tick,type,time,meta,track,program,channel,pitch,tempo,note,velocity
0,copyright,0,1,0,,,,,,
0,program_change,0,0,0,6,0,,,,
0,pitchwheel,0,0,0,,0,0,,,
0,program_change,0,0,0,6,1,,,,
0,pitchwheel,0,0,0,,1,-590,,,
0,program_change,0,0,0,6,2,,,,
0,pitchwheel,0,0,0,,2,-272,,,
0,program_change,0,0,0,6,3,,,,
0,pitchwheel,0,0,0,,3,-353,,,
0,program_change,0,0,0,6,4,,,,
0,pitchwheel,0,0,0,,4,-560,,,
0,program_change,0,0,0,6,5,,,,
0,pitchwheel,0,0,0,,5,-80,,,
0,program_change,0,0,0,6,6,,,,
0,pitchwheel,0,0,0,,6,-625,,,
0,program_change,0,0,0,6,7,,,,
0,pitchwheel,0,0,0,,7,-130,,,
0,program_change,0,0,0,6,8,,,,
0,pitchwheel,0,0,0,,8,-512,,,
0,program_change,0,0,0,6,10,,,,
0,pitchwheel,0,0,0,,10,-464,,,
0,program_change,0,0,0,6,11,,,,
0,pitchwheel,0,0,0,,11,-208,,,
0,program_change,0,0,0,6,12,,,,
0,pitchwheel,0,0,0,,12,-553,,,
0,set_tempo,0,1,0,,,,500000,,
45,note_on,45,0,0,,0,,,84,127
179,note_off,134,0,0,,0,,,84,127
180,note_on,1,0,0,,7,,,79,127
314,note_off,134,0,0,,7,,,79,127
315,note_on,1,0,0,,4,,,76,127
449,note_off,134,0,0,,4,,,76,127
450,note_on,1,0,0,,0,,,72,127
584,note_off,134,0,0,,0,,,72,127
585,note_on,1,0,0,,7,,,67,127
719,note_off,134,0,0,,7,,,67,127
720,note_on,1,0,0,,4,,,64,127
854,note_off,134,0,0,,4,,,64,127
855,note_on,1,0,0,,0,,,60,127
989,note_off,134,0,0,,0,,,60,127
990,note_on,1,0,0,,7,,,55,127
1124,note_off,134,0,0,,7,,,55,127
1125,note_on,1,0,0,,4,,,52,127
1259,note_off,134,0,0,,4,,,52,127
1260,note_on,1,0,0,,0,,,48,127
1394,note_off,134,0,0,,0,,,48,127
1395,note_on,1,0,0,,7,,,43,127
1529,note_off,134,0,0,,7,,,43,127
1530,note_on,1,0,0,,4,,,40,127
1664,note_off,134,0,0,,4,,,40,127
1665,note_on,1,0,0,,0,,,36,127
1936,note_on,271,0,0,,7,,,79,127
2070,note_off,134,0,0,,7,,,79,127
2071,note_on,1,0,0,,7,,,67,127
2144,note_off,73,0,0,,0,,,36,127
2205,note_off,61,0,0,,7,,,67,127
2206,note_on,1,0,0,,5,,,41,127
2206,note_on,0,0,0,,10,,,69,127
2476,note_off,270,0,0,,10,,,69,127
2477,note_on,1,0,0,,10,,,81,127
2611,note_off,134,0,0,,10,,,81,127
2612,note_on,1,0,0,,10,,,69,127
2746,note_off,134,0,0,,10,,,69,127
2746,note_off,0,0,0,,5,,,41,127
2747,note_on,1,0,0,,7,,,43,127
2747,note_on,0,0,0,,12,,,71,127
3017,note_off,270,0,0,,12,,,71,127
3018,note_on,1,0,0,,12,,,83,127
3152,note_off,134,0,0,,12,,,83,127
3153,note_on,1,0,0,,12,,,71,127
3287,note_off,134,0,0,,12,,,71,127
3287,note_off,0,0,0,,7,,,43,127
3288,note_on,1,0,0,,4,,,40,127
3288,note_on,0,0,0,,0,,,84,127
3422,note_off,134,0,0,,0,,,84,127
3423,note_on,1,0,0,,7,,,79,127
3557,note_off,134,0,0,,7,,,79,127
3558,note_on,1,0,0,,4,,,76,127
3692,note_off,134,0,0,,4,,,76,127
3693,note_on,1,0,0,,0,,,72,127
3827,note_off,134,0,0,,0,,,72,127
3828,note_on,1,0,0,,0,,,84,127
3992,note_off,164,0,0,,4,,,40,127
4099,note_on,107,0,0,,4,,,52,127
4233,note_off,134,0,0,,4,,,52,127
4234,note_on,1,0,0,,4,,,40,127
4368,note_off,134,0,0,,4,,,40,127
4369,note_on,1,0,0,,5,,,41,127
4639,note_off,270,0,0,,5,,,41,127
4639,note_off,0,0,0,,0,,,84,127
4640,note_on,1,0,0,,5,,,53,127
4640,note_on,0,0,0,,10,,,81,127
4774,note_off,134,0,0,,5,,,53,127
4775,note_on,1,0,0,,5,,,41,127
4909,note_off,134,0,0,,5,,,41,127
4910,note_on,1,0,0,,7,,,43,127
5180,note_off,270,0,0,,7,,,43,127
5180,note_off,0,0,0,,10,,,81,127
5181,note_on,1,0,0,,7,,,55,127
5181,note_on,0,0,0,,7,,,79,127
5315,note_off,134,0,0,,7,,,79,127
5315,note_off,0,0,0,,7,,,55,127
5316,note_on,1,0,0,,7,,,43,127
5316,note_on,0,0,0,,12,,,71,127
5450,note_off,134,0,0,,12,,,71,127
5450,note_off,0,0,0,,7,,,43,127
5451,note_on,1,0,0,,0,,,36,127
5451,note_on,0,0,0,,0,,,72,127
5738,note_off,287,0,0,,0,,,72,127
5745,note_on,7,0,0,,4,,,76,127
5745,note_on,0,0,0,,0,,,72,127
5847,note_off,102,0,0,,0,,,36,127
5879,note_off,32,0,0,,4,,,76,127
5880,note_on,1,0,0,,7,,,79,127
6014,note_off,134,0,0,,7,,,79,127
6015,note_off,1,0,0,,0,,,72,127
6015,note_on,0,0,0,,2,,,74,127
6015,note_on,0,0,0,,5,,,77,127
6285,note_off,270,0,0,,5,,,77,127
6285,note_off,0,0,0,,2,,,74,127
6286,note_on,1,0,0,,0,,,72,127
6286,note_on,0,0,0,,4,,,76,127
6556,note_off,270,0,0,,4,,,76,127
6556,note_off,0,0,0,,0,,,72,127
6557,note_on,1,0,0,,7,,,67,127
6557,note_on,0,0,0,,2,,,74,127
6827,note_off,270,0,0,,2,,,74,127
6827,note_off,0,0,0,,7,,,67,127
6828,note_on,1,0,0,,0,,,72,127
6828,note_on,0,0,0,,4,,,76,127
6828,note_on,0,0,0,,7,,,43,127
6962,note_off,134,0,0,,4,,,76,127
6962,note_off,0,0,0,,0,,,72,127
6963,note_on,1,0,0,,5,,,77,127
6963,note_on,0,0,0,,2,,,74,127
7097,note_off,134,0,0,,2,,,74,127
7097,note_off,0,0,0,,5,,,77,127
7097,note_off,0,0,0,,7,,,43,127
7098,note_on,1,0,0,,4,,,76,127
7098,note_on,0,0,0,,0,,,72,127
7098,note_on,0,0,0,,7,,,43,127
7368,note_off,270,0,0,,7,,,43,127
7368,note_off,0,0,0,,0,,,72,127
7368,note_off,0,0,0,,4,,,76,127
7369,note_on,1,0,0,,7,,,67,127
7369,note_on,0,0,0,,2,,,74,127
7369,note_on,0,0,0,,7,,,43,127
7639,note_off,270,0,0,,7,,,43,127
7639,note_off,0,0,0,,2,,,74,127
7639,note_off,0,0,0,,7,,,67,127
7640,note_on,1,0,0,,4,,,64,127
7640,note_on,0,0,0,,0,,,72,127
7640,note_on,0,0,0,,0,,,36,127
7910,note_off,270,0,0,,0,,,72,127
7910,note_off,0,0,0,,4,,,64,127
7911,note_on,1,0,0,,4,,,76,127
7911,note_on,0,0,0,,0,,,72,127
8045,note_off,134,0,0,,4,,,76,127
8046,note_on,1,0,0,,7,,,79,127
8180,note_off,134,0,0,,7,,,79,127
8180,note_off,0,0,0,,0,,,72,127
8181,note_on,1,0,0,,5,,,77,127
8181,note_on,0,0,0,,2,,,74,127
8451,note_off,270,0,0,,2,,,74,127
8451,note_off,0,0,0,,5,,,77,127
8452,note_on,1,0,0,,0,,,72,127
8452,note_on,0,0,0,,4,,,76,127
8722,note_off,270,0,0,,4,,,76,127
8722,note_off,0,0,0,,0,,,72,127
8722,note_off,0,0,0,,0,,,36,127
8723,note_on,1,0,0,,7,,,67,127
8723,note_on,0,0,0,,2,,,74,127
8993,note_off,270,0,0,,2,,,74,127
8993,note_off,0,0,0,,7,,,67,127
8994,note_on,1,0,0,,0,,,72,127
8994,note_on,0,0,0,,4,,,76,127
8994,note_on,0,0,0,,7,,,43,127
9128,note_off,134,0,0,,4,,,76,127
9128,note_off,0,0,0,,0,,,72,127
9129,note_on,1,0,0,,2,,,74,127
9129,note_on,0,0,0,,5,,,77,127
9263,note_off,134,0,0,,5,,,77,127
9263,note_off,0,0,0,,2,,,74,127
9263,note_off,0,0,0,,7,,,43,127
9264,note_on,1,0,0,,0,,,72,127
9264,note_on,0,0,0,,4,,,76,127
9264,note_on,0,0,0,,7,,,43,127
9534,note_off,270,0,0,,7,,,43,127
9534,note_off,0,0,0,,4,,,76,127
9534,note_off,0,0,0,,0,,,72,127
9535,note_on,1,0,0,,2,,,74,127
9535,note_on,0,0,0,,7,,,67,127
9535,note_on,0,0,0,,7,,,43,127
9805,note_off,270,0,0,,7,,,43,127
9805,note_off,0,0,0,,7,,,67,127
9805,note_off,0,0,0,,2,,,74,127
9806,note_on,1,0,0,,4,,,64,127
9806,note_on,0,0,0,,0,,,72,127
9806,note_on,0,0,0,,0,,,36,127
10076,note_off,270,0,0,,4,,,64,127
10100,note_on,24,0,0,,0,,,84,127
10145,note_off,45,0,0,,0,,,72,127
10347,note_off,202,0,0,,0,,,36,127
10370,note_off,23,0,0,,0,,,84,127
10371,note_on,1,0,0,,2,,,86,127
10437,note_off,66,0,0,,2,,,86,127
10438,note_on,1,0,0,,0,,,84,127
10504,note_off,66,0,0,,0,,,84,127
10505,note_on,1,0,0,,2,,,86,127
10571,note_off,66,0,0,,2,,,86,127
10572,note_on,1,0,0,,0,,,84,127
10638,note_off,66,0,0,,0,,,84,127
10639,note_on,1,0,0,,0,,,72,127
10639,note_on,0,0,0,,10,,,69,127
10639,note_on,0,0,0,,2,,,86,127
10705,note_off,66,0,0,,2,,,86,127
10706,note_on,1,0,0,,0,,,84,127
10772,note_off,66,0,0,,0,,,84,127
10773,note_on,1,0,0,,12,,,83,127
10839,note_off,66,0,0,,12,,,83,127
10840,note_on,1,0,0,,0,,,84,127
10906,note_off,66,0,0,,0,,,84,127
10906,note_off,0,0,0,,10,,,69,127
10906,note_off,0,0,0,,0,,,72,127
10907,note_on,1,0,0,,10,,,69,127
10907,note_on,0,0,0,,6,,,66,127
10907,note_on,0,0,0,,2,,,74,127
11177,note_off,270,0,0,,2,,,74,127
11177,note_off,0,0,0,,6,,,66,127
11177,note_off,0,0,0,,10,,,69,127
11178,note_on,1,0,0,,12,,,71,127
11178,note_on,0,0,0,,7,,,67,127
11178,note_on,0,0,0,,12,,,83,127
11448,note_off,270,0,0,,12,,,83,127
11449,note_on,1,0,0,,0,,,84,127
11515,note_off,66,0,0,,0,,,84,127
11516,note_on,1,0,0,,12,,,83,127
11582,note_off,66,0,0,,12,,,83,127
11583,note_on,1,0,0,,0,,,84,127
11642,note_off,59,0,0,,7,,,67,127
11642,note_off,0,0,0,,12,,,71,127
11649,note_off,7,0,0,,0,,,84,127
11650,note_on,1,0,0,,12,,,83,127
11716,note_off,66,0,0,,12,,,83,127
11717,note_on,1,0,0,,12,,,71,127
11717,note_on,0,0,0,,7,,,67,127
11717,note_on,0,0,0,,0,,,84,127
11783,note_off,66,0,0,,0,,,84,127
11784,note_on,1,0,0,,12,,,83,127
11850,note_off,66,0,0,,12,,,83,127
11851,note_on,1,0,0,,10,,,81,127
11917,note_off,66,0,0,,10,,,81,127
11918,note_on,1,0,0,,12,,,83,127
11984,note_off,66,0,0,,12,,,83,127
11984,note_off,0,0,0,,7,,,67,127
11984,note_off,0,0,0,,12,,,71,127
11985,note_on,1,0,0,,7,,,67,127
11985,note_on,0,0,0,,4,,,64,127
11985,note_on,0,0,0,,0,,,72,127
12255,note_off,270,0,0,,0,,,72,127
12255,note_off,0,0,0,,4,,,64,127
12255,note_off,0,0,0,,7,,,67,127
12256,note_on,1,0,0,,10,,,69,127
12256,note_on,0,0,0,,6,,,66,127
12256,note_on,0,0,0,,10,,,81,127
12526,note_off,270,0,0,,10,,,81,127
12527,note_on,1,0,0,,12,,,83,127
12593,note_off,66,0,0,,12,,,83,127
12594,note_on,1,0,0,,10,,,81,127
12660,note_off,66,0,0,,10,,,81,127
12661,note_on,1,0,0,,12,,,83,127
12720,note_off,59,0,0,,6,,,66,127
12720,note_off,0,0,0,,10,,,69,127
12727,note_off,7,0,0,,12,,,83,127
12728,note_on,1,0,0,,10,,,81,127
12794,note_off,66,0,0,,10,,,81,127
12795,note_on,1,0,0,,10,,,69,127
12795,note_on,0,0,0,,6,,,66,127
12795,note_on,0,0,0,,12,,,83,127
12861,note_off,66,0,0,,12,,,83,127
12862,note_on,1,0,0,,10,,,81,127
12928,note_off,66,0,0,,10,,,81,127
12929,note_on,1,0,0,,7,,,79,127
12995,note_off,66,0,0,,7,,,79,127
12996,note_on,1,0,0,,10,,,81,127
13062,note_off,66,0,0,,10,,,81,127
13062,note_off,0,0,0,,6,,,66,127
13062,note_off,0,0,0,,10,,,69,127
13063,note_on,1,0,0,,2,,,62,127
13063,note_on,0,0,0,,6,,,66,127
13063,note_on,0,0,0,,12,,,71,127
13333,note_off,270,0,0,,12,,,71,127
13333,note_off,0,0,0,,6,,,66,127
13333,note_off,0,0,0,,2,,,62,127
13334,note_on,1,0,0,,4,,,64,127
13334,note_on,0,0,0,,7,,,67,127
13334,note_on,0,0,0,,7,,,79,127
13604,note_off,270,0,0,,7,,,79,127
13605,note_on,1,0,0,,10,,,81,127
13671,note_off,66,0,0,,10,,,81,127
13672,note_on,1,0,0,,7,,,79,127
13738,note_off,66,0,0,,7,,,79,127
13739,note_on,1,0,0,,10,,,81,127
13798,note_off,59,0,0,,7,,,67,127
13798,note_off,0,0,0,,4,,,64,127
13805,note_off,7,0,0,,10,,,81,127
13806,note_on,1,0,0,,7,,,79,127
13872,note_off,66,0,0,,7,,,79,127
13873,note_on,1,0,0,,7,,,67,127
13873,note_on,0,0,0,,4,,,64,127
13873,note_on,0,0,0,,10,,,81,127
13939,note_off,66,0,0,,10,,,81,127
13940,note_on,1,0,0,,7,,,79,127
14006,note_off,66,0,0,,7,,,79,127
14007,note_on,1,0,0,,6,,,78,127
14073,note_off,66,0,0,,6,,,78,127
14074,note_on,1,0,0,,7,,,79,127
14140,note_off,66,0,0,,7,,,79,127
14140,note_off,0,0,0,,4,,,64,127
14140,note_off,0,0,0,,7,,,67,127
14141,note_on,1,0,0,,0,,,60,127
14141,note_on,0,0,0,,4,,,64,127
14141,note_on,0,0,0,,10,,,69,127
14275,note_off,134,0,0,,10,,,69,127
14276,note_on,1,0,0,,7,,,79,127
14410,note_off,134,0,0,,7,,,79,127
14410,note_off,0,0,0,,4,,,64,127
14410,note_off,0,0,0,,0,,,60,127
14411,note_on,1,0,0,,4,,,64,127
14411,note_on,0,0,0,,0,,,60,127
14411,note_on,0,0,0,,10,,,81,127
14545,note_off,134,0,0,,10,,,81,127
14546,note_on,1,0,0,,7,,,79,127
14680,note_off,134,0,0,,7,,,79,127
14680,note_off,0,0,0,,0,,,60,127
14680,note_off,0,0,0,,4,,,64,127
14681,note_on,1,0,0,,2,,,62,127
14681,note_on,0,0,0,,6,,,66,127
14681,note_on,0,0,0,,6,,,78,127
14815,note_off,134,0,0,,6,,,78,127
14816,note_on,1,0,0,,4,,,76,127
14950,note_off,134,0,0,,4,,,76,127
14950,note_off,0,0,0,,6,,,66,127
14950,note_off,0,0,0,,2,,,62,127
14951,note_on,1,0,0,,2,,,62,127
14951,note_on,0,0,0,,6,,,66,127
14951,note_on,0,0,0,,2,,,74,127
15085,note_off,134,0,0,,2,,,74,127
15086,note_on,1,0,0,,0,,,72,127
15220,note_off,134,0,0,,0,,,72,127
15220,note_off,0,0,0,,6,,,66,127
15220,note_off,0,0,0,,2,,,62,127
15221,note_on,1,0,0,,7,,,67,127
15221,note_on,0,0,0,,7,,,55,127
15221,note_on,0,0,0,,0,,,72,127
15258,note_on,37,0,0,,12,,,71,127
15269,note_off,11,0,0,,0,,,72,127
15294,note_on,25,0,0,,0,,,72,127
15305,note_off,11,0,0,,12,,,71,127
15330,note_on,25,0,0,,12,,,71,127
15341,note_off,11,0,0,,0,,,72,127
15517,note_off,176,0,0,,7,,,67,127
15520,note_off,3,0,0,,12,,,71,127
15536,note_on,16,0,0,,7,,,67,127
15536,note_on,0,0,0,,12,,,71,127
15573,note_off,37,0,0,,7,,,55,127
15670,note_off,97,0,0,,12,,,71,127
15670,note_off,0,0,0,,7,,,67,127
15671,note_on,1,0,0,,10,,,69,127
15671,note_on,0,0,0,,0,,,72,127
15805,note_off,134,0,0,,0,,,72,127
15805,note_off,0,0,0,,10,,,69,127
15806,note_on,1,0,0,,12,,,71,127
15806,note_on,0,0,0,,2,,,74,127
15940,note_off,134,0,0,,2,,,74,127
15940,note_off,0,0,0,,12,,,71,127
15941,note_on,1,0,0,,0,,,72,127
15941,note_on,0,0,0,,4,,,76,127
16075,note_off,134,0,0,,4,,,76,127
16075,note_off,0,0,0,,0,,,72,127
16076,note_on,1,0,0,,2,,,74,127
16076,note_on,0,0,0,,6,,,78,127
16210,note_off,134,0,0,,6,,,78,127
16210,note_off,0,0,0,,2,,,74,127
16211,note_on,1,0,0,,4,,,76,127
16211,note_on,0,0,0,,7,,,79,127
16345,note_off,134,0,0,,7,,,79,127
16345,note_off,0,0,0,,4,,,76,127
16346,note_on,1,0,0,,2,,,74,127
16346,note_on,0,0,0,,12,,,83,127
16383,note_on,37,0,0,,10,,,81,127
16394,note_off,11,0,0,,12,,,83,127
16419,note_on,25,0,0,,12,,,83,127
16430,note_off,11,0,0,,10,,,81,127
16455,note_on,25,0,0,,10,,,81,127
16466,note_off,11,0,0,,12,,,83,127
16610,note_off,144,0,0,,10,,,81,127
16614,note_off,4,0,0,,2,,,74,127
16615,note_on,1,0,0,,2,,,38,127
16615,note_on,0,0,0,,10,,,81,127
16615,note_on,0,0,0,,6,,,78,127
16749,note_off,134,0,0,,10,,,81,127
16750,note_on,1,0,0,,10,,,81,127
16884,note_off,134,0,0,,10,,,81,127
16884,note_off,0,0,0,,6,,,78,127
16884,note_off,0,0,0,,2,,,38,127
16885,note_on,1,0,0,,2,,,38,127
16885,note_on,0,0,0,,12,,,83,127
16885,note_on,0,0,0,,6,,,78,127
16922,note_on,37,0,0,,10,,,81,127
16933,note_off,11,0,0,,12,,,83,127
16958,note_on,25,0,0,,12,,,83,127
16969,note_off,11,0,0,,10,,,81,127
16994,note_on,25,0,0,,10,,,81,127
17005,note_off,11,0,0,,12,,,83,127
17149,note_off,144,0,0,,10,,,81,127
17153,note_off,4,0,0,,6,,,78,127
17153,note_off,0,0,0,,2,,,38,127
17154,note_on,1,0,0,,2,,,38,127
17154,note_on,0,0,0,,10,,,81,127
17154,note_on,0,0,0,,6,,,78,127
17288,note_off,134,0,0,,10,,,81,127
17289,note_on,1,0,0,,10,,,81,127
17423,note_off,134,0,0,,10,,,81,127
17423,note_off,0,0,0,,6,,,78,127
17423,note_off,0,0,0,,2,,,38,127
17424,note_on,1,0,0,,7,,,43,127
17424,note_on,0,0,0,,7,,,79,127
17424,note_on,0,0,0,,12,,,83,127
17694,note_off,270,0,0,,12,,,83,127
17694,note_off,0,0,0,,7,,,79,127
17694,note_off,0,0,0,,7,,,43,127
17695,note_on,1,0,0,,7,,,67,127
17695,note_on,0,0,0,,12,,,71,127
17829,note_off,134,0,0,,12,,,71,127
17829,note_off,0,0,0,,7,,,67,127
17830,note_on,1,0,0,,10,,,69,127
17830,note_on,0,0,0,,0,,,72,127
17964,note_off,134,0,0,,0,,,72,127
17964,note_off,0,0,0,,10,,,69,127
17965,note_on,1,0,0,,12,,,71,127
17965,note_on,0,0,0,,2,,,74,127
18099,note_off,134,0,0,,2,,,74,127
18099,note_off,0,0,0,,12,,,71,127
18100,note_on,1,0,0,,0,,,72,127
18100,note_on,0,0,0,,4,,,76,127
18234,note_off,134,0,0,,4,,,76,127
18234,note_off,0,0,0,,0,,,72,127
18235,note_on,1,0,0,,2,,,74,127
18235,note_on,0,0,0,,6,,,78,127
18369,note_off,134,0,0,,6,,,78,127
18369,note_off,0,0,0,,2,,,74,127
18370,note_on,1,0,0,,4,,,76,127
18370,note_on,0,0,0,,7,,,79,127
18504,note_off,134,0,0,,7,,,79,127
18504,note_off,0,0,0,,4,,,76,127
18505,note_on,1,0,0,,2,,,74,127
18505,note_on,0,0,0,,12,,,83,127
18542,note_on,37,0,0,,10,,,81,127
18553,note_off,11,0,0,,12,,,83,127
18578,note_on,25,0,0,,12,,,83,127
18589,note_off,11,0,0,,10,,,81,127
18614,note_on,25,0,0,,10,,,81,127
18625,note_off,11,0,0,,12,,,83,127
18769,note_off,144,0,0,,10,,,81,127
18773,note_off,4,0,0,,2,,,74,127
18774,note_on,1,0,0,,2,,,38,127
18774,note_on,0,0,0,,10,,,81,127
18774,note_on,0,0,0,,6,,,78,127
18908,note_off,134,0,0,,10,,,81,127
18909,note_on,1,0,0,,10,,,81,127
19043,note_off,134,0,0,,10,,,81,127
19043,note_off,0,0,0,,6,,,78,127
19043,note_off,0,0,0,,2,,,38,127
19044,note_on,1,0,0,,2,,,38,127
19044,note_on,0,0,0,,12,,,83,127
19044,note_on,0,0,0,,6,,,78,127
19081,note_on,37,0,0,,10,,,81,127
19092,note_off,11,0,0,,12,,,83,127
19117,note_on,25,0,0,,12,,,83,127
19128,note_off,11,0,0,,10,,,81,127
19153,note_on,25,0,0,,10,,,81,127
19164,note_off,11,0,0,,12,,,83,127
19308,note_off,144,0,0,,10,,,81,127
19312,note_off,4,0,0,,6,,,78,127
19312,note_off,0,0,0,,2,,,38,127
19313,note_on,1,0,0,,2,,,38,127
19313,note_on,0,0,0,,10,,,81,127
19313,note_on,0,0,0,,6,,,78,127
19447,note_off,134,0,0,,10,,,81,127
19448,note_on,1,0,0,,10,,,81,127
19582,note_off,134,0,0,,10,,,81,127
19582,note_off,0,0,0,,6,,,78,127
19582,note_off,0,0,0,,2,,,38,127
19583,note_on,1,0,0,,7,,,43,127
19583,note_on,0,0,0,,12,,,83,127
19583,note_on,0,0,0,,7,,,79,127
19853,note_off,270,0,0,,7,,,79,127
19853,note_off,0,0,0,,12,,,83,127
19877,note_on,24,0,0,,2,,,86,127
20011,note_off,134,0,0,,2,,,86,127
20012,note_on,1,0,0,,12,,,83,127
20146,note_off,134,0,0,,12,,,83,127
20147,note_on,1,0,0,,12,,,83,127
20260,note_off,113,0,0,,7,,,43,127
20417,note_off,157,0,0,,12,,,83,127
20418,note_on,1,0,0,,7,,,79,127
20418,note_on,0,0,0,,12,,,59,127
20552,note_off,134,0,0,,7,,,79,127
20553,note_on,1,0,0,,4,,,76,127
20687,note_off,134,0,0,,4,,,76,127
20687,note_off,0,0,0,,12,,,59,127
20688,note_on,1,0,0,,4,,,76,127
20688,note_on,0,0,0,,0,,,60,127
20958,note_off,270,0,0,,0,,,60,127
20958,note_off,0,0,0,,4,,,76,127
20959,note_on,1,0,0,,0,,,72,127
20959,note_on,0,0,0,,0,,,48,127
21093,note_off,134,0,0,,0,,,72,127
21094,note_on,1,0,0,,10,,,69,127
21228,note_off,134,0,0,,10,,,69,127
21228,note_off,0,0,0,,0,,,48,127
21229,note_on,1,0,0,,10,,,69,127
21229,note_on,0,0,0,,2,,,50,127
21499,note_off,270,0,0,,2,,,50,127
21499,note_off,0,0,0,,10,,,69,127
21500,note_on,1,0,0,,7,,,67,127
21500,note_on,0,0,0,,2,,,38,127
21634,note_off,134,0,0,,7,,,67,127
21635,note_on,1,0,0,,6,,,66,127
21769,note_off,134,0,0,,6,,,66,127
21769,note_off,0,0,0,,2,,,38,127
21770,note_on,1,0,0,,7,,,67,127
21770,note_on,0,0,0,,7,,,43,127
22040,note_off,270,0,0,,7,,,67,127
22064,note_on,24,0,0,,7,,,67,127
22064,note_on,0,0,0,,12,,,71,127
22109,note_off,45,0,0,,7,,,43,127
22198,note_off,89,0,0,,12,,,71,127
22198,note_off,0,0,0,,7,,,67,127
22199,note_on,1,0,0,,10,,,69,127
22199,note_on,0,0,0,,0,,,72,127
22333,note_off,134,0,0,,0,,,72,127
22333,note_off,0,0,0,,10,,,69,127
22334,note_on,1,0,0,,12,,,71,127
22334,note_on,0,0,0,,2,,,74,127
22468,note_off,134,0,0,,2,,,74,127
22468,note_off,0,0,0,,12,,,71,127
22469,note_on,1,0,0,,0,,,72,127
22469,note_on,0,0,0,,4,,,76,127
22603,note_off,134,0,0,,4,,,76,127
22603,note_off,0,0,0,,0,,,72,127
22604,note_on,1,0,0,,2,,,74,127
22604,note_on,0,0,0,,6,,,78,127
22738,note_off,134,0,0,,6,,,78,127
22738,note_off,0,0,0,,2,,,74,127
22739,note_on,1,0,0,,4,,,76,127
22739,note_on,0,0,0,,7,,,79,127
22873,note_off,134,0,0,,7,,,79,127
22873,note_off,0,0,0,,4,,,76,127
22874,note_on,1,0,0,,2,,,74,127
22874,note_on,0,0,0,,12,,,83,127
22911,note_on,37,0,0,,10,,,81,127
22922,note_off,11,0,0,,12,,,83,127
22947,note_on,25,0,0,,12,,,83,127
22958,note_off,11,0,0,,10,,,81,127
22983,note_on,25,0,0,,10,,,81,127
22994,note_off,11,0,0,,12,,,83,127
23138,note_off,144,0,0,,10,,,81,127
23142,note_off,4,0,0,,2,,,74,127
23143,note_on,1,0,0,,2,,,38,127
23143,note_on,0,0,0,,6,,,78,127
23143,note_on,0,0,0,,10,,,81,127
23277,note_off,134,0,0,,10,,,81,127
23278,note_on,1,0,0,,10,,,81,127
23412,note_off,134,0,0,,10,,,81,127
23412,note_off,0,0,0,,6,,,78,127
23412,note_off,0,0,0,,2,,,38,127
23413,note_on,1,0,0,,2,,,38,127
23413,note_on,0,0,0,,12,,,83,127
23413,note_on,0,0,0,,6,,,78,127
23450,note_on,37,0,0,,10,,,81,127
23461,note_off,11,0,0,,12,,,83,127
23486,note_on,25,0,0,,12,,,83,127
23497,note_off,11,0,0,,10,,,81,127
23522,note_on,25,0,0,,10,,,81,127
23533,note_off,11,0,0,,12,,,83,127
23677,note_off,144,0,0,,10,,,81,127
23681,note_off,4,0,0,,6,,,78,127
23681,note_off,0,0,0,,2,,,38,127
23682,note_on,1,0,0,,2,,,38,127
23682,note_on,0,0,0,,6,,,78,127
23682,note_on,0,0,0,,10,,,81,127
23816,note_off,134,0,0,,10,,,81,127
23817,note_on,1,0,0,,10,,,81,127
23951,note_off,134,0,0,,10,,,81,127
23951,note_off,0,0,0,,6,,,78,127
23951,note_off,0,0,0,,2,,,38,127
23952,note_on,1,0,0,,7,,,43,127
23952,note_on,0,0,0,,7,,,79,127
23952,note_on,0,0,0,,12,,,83,127
24222,note_off,270,0,0,,12,,,83,127
24222,note_off,0,0,0,,7,,,79,127
24222,note_off,0,0,0,,7,,,43,127
24223,note_on,1,0,0,,7,,,67,127
24223,note_on,0,0,0,,12,,,71,127
24357,note_off,134,0,0,,12,,,71,127
24357,note_off,0,0,0,,7,,,67,127
24358,note_on,1,0,0,,10,,,69,127
24358,note_on,0,0,0,,0,,,72,127
24492,note_off,134,0,0,,0,,,72,127
24492,note_off,0,0,0,,10,,,69,127
24493,note_on,1,0,0,,12,,,71,127
24493,note_on,0,0,0,,2,,,74,127
24627,note_off,134,0,0,,2,,,74,127
24627,note_off,0,0,0,,12,,,71,127
24628,note_on,1,0,0,,0,,,72,127
24628,note_on,0,0,0,,4,,,76,127
24762,note_off,134,0,0,,4,,,76,127
24762,note_off,0,0,0,,0,,,72,127
24763,note_on,1,0,0,,2,,,74,127
24763,note_on,0,0,0,,6,,,78,127
24897,note_off,134,0,0,,6,,,78,127
24897,note_off,0,0,0,,2,,,74,127
24898,note_on,1,0,0,,4,,,76,127
24898,note_on,0,0,0,,7,,,79,127
25032,note_off,134,0,0,,7,,,79,127
25032,note_off,0,0,0,,4,,,76,127
25033,note_on,1,0,0,,2,,,74,127
25033,note_on,0,0,0,,12,,,83,127
25070,note_on,37,0,0,,10,,,81,127
25081,note_off,11,0,0,,12,,,83,127
25106,note_on,25,0,0,,12,,,83,127
25117,note_off,11,0,0,,10,,,81,127
25142,note_on,25,0,0,,10,,,81,127
25153,note_off,11,0,0,,12,,,83,127
25297,note_off,144,0,0,,10,,,81,127
25301,note_off,4,0,0,,2,,,74,127
25302,note_on,1,0,0,,2,,,38,127
25302,note_on,0,0,0,,10,,,81,127
25302,note_on,0,0,0,,6,,,78,127
25436,note_off,134,0,0,,10,,,81,127
25437,note_on,1,0,0,,10,,,81,127
25571,note_off,134,0,0,,10,,,81,127
25571,note_off,0,0,0,,6,,,78,127
25571,note_off,0,0,0,,2,,,38,127
25572,note_on,1,0,0,,2,,,38,127
25572,note_on,0,0,0,,12,,,83,127
25572,note_on,0,0,0,,6,,,78,127
25609,note_on,37,0,0,,10,,,81,127
25620,note_off,11,0,0,,12,,,83,127
25645,note_on,25,0,0,,12,,,83,127
25656,note_off,11,0,0,,10,,,81,127
25681,note_on,25,0,0,,10,,,81,127
25692,note_off,11,0,0,,12,,,83,127
25836,note_off,144,0,0,,10,,,81,127
25840,note_off,4,0,0,,6,,,78,127
25840,note_off,0,0,0,,2,,,38,127
25841,note_on,1,0,0,,2,,,38,127
25841,note_on,0,0,0,,6,,,78,127
25841,note_on,0,0,0,,10,,,81,127
25975,note_off,134,0,0,,10,,,81,127
25976,note_on,1,0,0,,10,,,81,127
26110,note_off,134,0,0,,10,,,81,127
26110,note_off,0,0,0,,6,,,78,127
26110,note_off,0,0,0,,2,,,38,127
26111,note_on,1,0,0,,7,,,43,127
26111,note_on,0,0,0,,12,,,83,127
26111,note_on,0,0,0,,7,,,79,127
26381,note_off,270,0,0,,7,,,79,127
26381,note_off,0,0,0,,12,,,83,127
26405,note_on,24,0,0,,2,,,86,127
26539,note_off,134,0,0,,2,,,86,127
26540,note_on,1,0,0,,12,,,83,127
26674,note_off,134,0,0,,12,,,83,127
26675,note_on,1,0,0,,12,,,83,127
26788,note_off,113,0,0,,7,,,43,127
26945,note_off,157,0,0,,12,,,83,127
26946,note_on,1,0,0,,7,,,79,127
26946,note_on,0,0,0,,12,,,59,127
27080,note_off,134,0,0,,7,,,79,127
27081,note_on,1,0,0,,4,,,76,127
27215,note_off,134,0,0,,4,,,76,127
27215,note_off,0,0,0,,12,,,59,127
27216,note_on,1,0,0,,4,,,76,127
27216,note_on,0,0,0,,0,,,60,127
27486,note_off,270,0,0,,0,,,60,127
27486,note_off,0,0,0,,4,,,76,127
27487,note_on,1,0,0,,0,,,72,127
27487,note_on,0,0,0,,0,,,48,127
27621,note_off,134,0,0,,0,,,72,127
27622,note_on,1,0,0,,10,,,69,127
27756,note_off,134,0,0,,10,,,69,127
27756,note_off,0,0,0,,0,,,48,127
27757,note_on,1,0,0,,10,,,69,127
27757,note_on,0,0,0,,2,,,50,127
28027,note_off,270,0,0,,2,,,50,127
28027,note_off,0,0,0,,10,,,69,127
28028,note_on,1,0,0,,7,,,67,127
28028,note_on,0,0,0,,2,,,38,127
28162,note_off,134,0,0,,7,,,67,127
28163,note_on,1,0,0,,6,,,66,127
28297,note_off,134,0,0,,6,,,66,127
28297,note_off,0,0,0,,2,,,38,127
28298,note_on,1,0,0,,7,,,67,127
28298,note_on,0,0,0,,7,,,43,127
28603,note_on,305,0,0,,7,,,79,127
28737,note_off,134,0,0,,7,,,79,127
28738,note_on,1,0,0,,2,,,74,127
28834,note_off,96,0,0,,7,,,67,127
28838,note_off,4,0,0,,7,,,43,127
28872,note_off,34,0,0,,2,,,74,127
28873,note_on,1,0,0,,7,,,67,127
28873,note_on,0,0,0,,12,,,71,127
28873,note_on,0,0,0,,4,,,76,127
28910,note_on,37,0,0,,2,,,74,127
28921,note_off,11,0,0,,4,,,76,127
28946,note_on,25,0,0,,4,,,76,127
28957,note_off,11,0,0,,2,,,74,127
28982,note_on,25,0,0,,2,,,74,127
28993,note_off,11,0,0,,4,,,76,127
29137,note_off,144,0,0,,2,,,74,127
29143,note_on,6,0,0,,7,,,79,127
29277,note_off,134,0,0,,7,,,79,127
29278,note_on,1,0,0,,2,,,74,127
29412,note_off,134,0,0,,2,,,74,127
29412,note_off,0,0,0,,12,,,71,127
29412,note_off,0,0,0,,7,,,67,127
29413,note_on,1,0,0,,12,,,71,127
29413,note_on,0,0,0,,7,,,67,127
29413,note_on,0,0,0,,4,,,76,127
29450,note_on,37,0,0,,2,,,74,127
29461,note_off,11,0,0,,4,,,76,127
29486,note_on,25,0,0,,4,,,76,127
29497,note_off,11,0,0,,2,,,74,127
29522,note_on,25,0,0,,2,,,74,127
29533,note_off,11,0,0,,4,,,76,127
29677,note_off,144,0,0,,2,,,74,127
29680,note_off,3,0,0,,7,,,67,127
29705,note_on,25,0,0,,7,,,67,127
29841,note_on,136,0,0,,2,,,62,127
29953,note_off,112,0,0,,12,,,71,127
29976,note_off,23,0,0,,2,,,62,127
29976,note_off,0,0,0,,7,,,67,127
29977,note_on,1,0,0,,4,,,64,127
29977,note_on,0,0,0,,7,,,55,127
29977,note_on,0,0,0,,12,,,59,127
30014,note_on,37,0,0,,2,,,62,127
30025,note_off,11,0,0,,4,,,64,127
30050,note_on,25,0,0,,4,,,64,127
30061,note_off,11,0,0,,2,,,62,127
30086,note_on,25,0,0,,2,,,62,127
30097,note_off,11,0,0,,4,,,64,127
30241,note_off,144,0,0,,2,,,62,127
30247,note_on,6,0,0,,7,,,67,127
30381,note_off,134,0,0,,7,,,67,127
30382,note_on,1,0,0,,2,,,62,127
30516,note_off,134,0,0,,2,,,62,127
30516,note_off,0,0,0,,12,,,59,127
30516,note_off,0,0,0,,7,,,55,127
30517,note_on,1,0,0,,4,,,64,127
30517,note_on,0,0,0,,7,,,55,127
30517,note_on,0,0,0,,12,,,59,127
30554,note_on,37,0,0,,2,,,62,127
30565,note_off,11,0,0,,4,,,64,127
30590,note_on,25,0,0,,4,,,64,127
30601,note_off,11,0,0,,2,,,62,127
30626,note_on,25,0,0,,2,,,62,127
30637,note_off,11,0,0,,4,,,64,127
30781,note_off,144,0,0,,2,,,62,127
30809,note_on,28,0,0,,7,,,67,127
30911,note_off,102,0,0,,12,,,59,127
30943,note_off,32,0,0,,7,,,67,127
30944,note_on,1,0,0,,12,,,59,127
31056,note_off,112,0,0,,7,,,55,127
31079,note_off,23,0,0,,12,,,59,127
31080,note_on,1,0,0,,7,,,43,127
31080,note_on,0,0,0,,0,,,60,127
31117,note_on,37,0,0,,12,,,59,127
31128,note_off,11,0,0,,0,,,60,127
31153,note_on,25,0,0,,0,,,60,127
31164,note_off,11,0,0,,12,,,59,127
31189,note_on,25,0,0,,12,,,59,127
31200,note_off,11,0,0,,0,,,60,127
31344,note_off,144,0,0,,12,,,59,127
31350,note_on,6,0,0,,7,,,67,127
31484,note_off,134,0,0,,7,,,67,127
31485,note_on,1,0,0,,12,,,59,127
31619,note_off,134,0,0,,12,,,59,127
31619,note_off,0,0,0,,7,,,43,127
31620,note_on,1,0,0,,0,,,36,127
31620,note_on,0,0,0,,4,,,64,127
31890,note_off,270,0,0,,4,,,64,127
31891,note_on,1,0,0,,0,,,60,127
32025,note_off,134,0,0,,0,,,60,127
32026,note_on,1,0,0,,10,,,57,127
32160,note_off,134,0,0,,10,,,57,127
32160,note_off,0,0,0,,0,,,36,127
32161,note_on,1,0,0,,2,,,38,127
32161,note_on,0,0,0,,12,,,59,127
32161,note_on,0,0,0,,7,,,55,127
32431,note_off,270,0,0,,7,,,55,127
32432,note_on,1,0,0,,6,,,54,127
32474,note_off,42,0,0,,12,,,59,127
32480,note_on,6,0,0,,10,,,57,127
32528,note_off,48,0,0,,10,,,57,127
32528,note_on,0,0,0,,12,,,59,127
32576,note_off,48,0,0,,12,,,59,127
32576,note_on,0,0,0,,10,,,57,127
32702,note_off,126,0,0,,6,,,54,127
32702,note_off,0,0,0,,2,,,38,127
32715,note_on,13,0,0,,7,,,55,127
32715,note_on,0,0,0,,7,,,43,127
32718,note_off,3,0,0,,10,,,57,127
33053,note_off,335,0,0,,7,,,55,127
33054,note_on,1,0,0,,10,,,57,127
33088,note_on,34,0,0,,12,,,59,127
33118,note_off,30,0,0,,10,,,57,127
33122,note_on,4,0,0,,0,,,60,127
33152,note_off,30,0,0,,12,,,59,127
33156,note_on,4,0,0,,2,,,62,127
33186,note_off,30,0,0,,0,,,60,127
33190,note_on,4,0,0,,4,,,64,127
33220,note_off,30,0,0,,2,,,62,127
33224,note_on,4,0,0,,6,,,66,127
33254,note_off,30,0,0,,4,,,64,127
33258,note_on,4,0,0,,7,,,67,127
33288,note_off,30,0,0,,6,,,66,127
33596,note_off,308,0,0,,7,,,67,127
33597,note_on,1,0,0,,10,,,69,127
33631,note_on,34,0,0,,12,,,71,127
33661,note_off,30,0,0,,10,,,69,127
33665,note_on,4,0,0,,0,,,72,127
33695,note_off,30,0,0,,12,,,71,127
33699,note_on,4,0,0,,2,,,74,127
33729,note_off,30,0,0,,0,,,72,127
33733,note_on,4,0,0,,4,,,76,127
33763,note_off,30,0,0,,2,,,74,127
33767,note_on,4,0,0,,6,,,78,127
33797,note_off,30,0,0,,4,,,76,127
33801,note_on,4,0,0,,7,,,79,127
33831,note_off,30,0,0,,6,,,78,127
34139,note_off,308,0,0,,7,,,79,127
34140,note_on,1,0,0,,10,,,81,127
34174,note_on,34,0,0,,12,,,83,127
34204,note_off,30,0,0,,10,,,81,127
34208,note_on,4,0,0,,0,,,84,127
34238,note_off,30,0,0,,12,,,83,127
34242,note_on,4,0,0,,2,,,86,127
34272,note_off,30,0,0,,0,,,84,127
34276,note_on,4,0,0,,4,,,88,127
34306,note_off,30,0,0,,2,,,86,127
34310,note_on,4,0,0,,6,,,90,127
34340,note_off,30,0,0,,4,,,88,127
34344,note_on,4,0,0,,7,,,91,127
34374,note_off,30,0,0,,6,,,90,127
34614,note_off,240,0,0,,7,,,91,127
34614,note_off,0,0,0,,7,,,43,127
34615,note_on,1,0,0,,7,,,79,127
34615,note_on,0,0,0,,7,,,43,127
34885,note_off,270,0,0,,7,,,43,127
34886,note_on,1,0,0,,0,,,36,127
35156,note_off,270,0,0,,0,,,36,127
35156,note_off,0,0,0,,7,,,79,127
35157,note_on,1,0,0,,0,,,60,127
35157,note_on,0,0,0,,0,,,48,127
35291,note_off,134,0,0,,0,,,60,127
35292,note_on,1,0,0,,10,,,57,127
35426,note_off,134,0,0,,10,,,57,127
35426,note_off,0,0,0,,0,,,48,127
35427,note_on,1,0,0,,12,,,59,127
35427,note_on,0,0,0,,7,,,55,127
35427,note_on,0,0,0,,2,,,50,127
35697,note_off,270,0,0,,2,,,50,127
35697,note_off,0,0,0,,7,,,55,127
35698,note_on,1,0,0,,6,,,54,127
35698,note_on,0,0,0,,2,,,38,127
35740,note_off,42,0,0,,12,,,59,127
35743,note_on,3,0,0,,10,,,57,127
35788,note_on,45,0,0,,12,,,59,127
35809,note_off,21,0,0,,10,,,57,127
35833,note_on,24,0,0,,10,,,57,127
35854,note_off,21,0,0,,12,,,59,127
35967,note_off,113,0,0,,2,,,38,127
35967,note_off,0,0,0,,6,,,54,127
35968,note_off,1,0,0,,10,,,57,127
35968,note_on,0,0,0,,7,,,55,127
35968,note_on,0,0,0,,7,,,43,127
36305,note_off,337,0,0,,7,,,55,127
36306,note_on,1,0,0,,10,,,57,127
36340,note_on,34,0,0,,12,,,59,127
36370,note_off,30,0,0,,10,,,57,127
36374,note_on,4,0,0,,0,,,60,127
36404,note_off,30,0,0,,12,,,59,127
36408,note_on,4,0,0,,2,,,62,127
36438,note_off,30,0,0,,0,,,60,127
36442,note_on,4,0,0,,4,,,64,127
36472,note_off,30,0,0,,2,,,62,127
36476,note_on,4,0,0,,6,,,66,127
36506,note_off,30,0,0,,4,,,64,127
36510,note_on,4,0,0,,7,,,67,127
36540,note_off,30,0,0,,6,,,66,127
36848,note_off,308,0,0,,7,,,67,127
36849,note_on,1,0,0,,10,,,69,127
36883,note_on,34,0,0,,12,,,71,127
36913,note_off,30,0,0,,10,,,69,127
36917,note_on,4,0,0,,0,,,72,127
36947,note_off,30,0,0,,12,,,71,127
36951,note_on,4,0,0,,2,,,74,127
36981,note_off,30,0,0,,0,,,72,127
36985,note_on,4,0,0,,4,,,76,127
37015,note_off,30,0,0,,2,,,74,127
37019,note_on,4,0,0,,6,,,78,127
37049,note_off,30,0,0,,4,,,76,127
37053,note_on,4,0,0,,7,,,79,127
37083,note_off,30,0,0,,6,,,78,127
37391,note_off,308,0,0,,7,,,79,127
37392,note_on,1,0,0,,10,,,81,127
37426,note_on,34,0,0,,12,,,83,127
37456,note_off,30,0,0,,10,,,81,127
37460,note_on,4,0,0,,0,,,84,127
37490,note_off,30,0,0,,12,,,83,127
37494,note_on,4,0,0,,2,,,86,127
37524,note_off,30,0,0,,0,,,84,127
37528,note_on,4,0,0,,4,,,88,127
37558,note_off,30,0,0,,2,,,86,127
37562,note_on,4,0,0,,6,,,90,127
37592,note_off,30,0,0,,4,,,88,127
37596,note_on,4,0,0,,7,,,91,127
37626,note_off,30,0,0,,6,,,90,127
37866,note_off,240,0,0,,7,,,91,127
37866,note_off,0,0,0,,7,,,43,127
37867,note_on,1,0,0,,7,,,79,127
37867,note_on,0,0,0,,7,,,43,127
38137,note_off,270,0,0,,7,,,43,127
38138,note_on,1,0,0,,0,,,36,127
38408,note_off,270,0,0,,0,,,36,127
38408,note_off,0,0,0,,7,,,79,127
38409,note_on,1,0,0,,0,,,60,127
38409,note_on,0,0,0,,0,,,48,127
38543,note_off,134,0,0,,0,,,60,127
38544,note_on,1,0,0,,10,,,57,127
38678,note_off,134,0,0,,10,,,57,127
38678,note_off,0,0,0,,0,,,48,127
38679,note_on,1,0,0,,12,,,59,127
38679,note_on,0,0,0,,7,,,55,127
38679,note_on,0,0,0,,2,,,50,127
38949,note_off,270,0,0,,2,,,50,127
38949,note_off,0,0,0,,7,,,55,127
38950,note_on,1,0,0,,6,,,54,127
38950,note_on,0,0,0,,2,,,38,127
38992,note_off,42,0,0,,12,,,59,127
38995,note_on,3,0,0,,10,,,57,127
39040,note_on,45,0,0,,12,,,59,127
39043,note_off,3,0,0,,10,,,57,127
39085,note_on,42,0,0,,10,,,57,127
39088,note_off,3,0,0,,12,,,59,127
39130,note_on,42,0,0,,7,,,55,127
39133,note_off,3,0,0,,10,,,57,127
39175,note_on,42,0,0,,10,,,57,127
39178,note_off,3,0,0,,7,,,55,127
39219,note_off,41,0,0,,2,,,38,127
39219,note_off,0,0,0,,6,,,54,127
39220,note_on,1,0,0,,7,,,55,127
39220,note_on,0,0,0,,7,,,43,127
39223,note_off,3,0,0,,10,,,57,127
39490,note_off,267,0,0,,7,,,55,127
39491,note_on,1,0,0,,12,,,59,127
39491,note_on,0,0,0,,7,,,67,127
39625,note_off,134,0,0,,7,,,67,127
39625,note_off,0,0,0,,12,,,59,127
39626,note_on,1,0,0,,7,,,67,127
39626,note_on,0,0,0,,12,,,59,127
39760,note_off,134,0,0,,12,,,59,127
39760,note_off,0,0,0,,7,,,67,127
39760,note_off,0,0,0,,7,,,43,127
39761,note_on,1,0,0,,12,,,59,127
39761,note_on,0,0,0,,7,,,67,127
39761,note_on,0,0,0,,7,,,43,127
40031,note_off,270,0,0,,7,,,67,127
40031,note_off,0,0,0,,12,,,59,127
40032,note_on,1,0,0,,2,,,62,127
40032,note_on,0,0,0,,12,,,71,127
40166,note_off,134,0,0,,12,,,71,127
40166,note_off,0,0,0,,2,,,62,127
40167,note_on,1,0,0,,12,,,71,127
40167,note_on,0,0,0,,2,,,62,127
40301,note_off,134,0,0,,2,,,62,127
40301,note_off,0,0,0,,12,,,71,127
40301,note_off,0,0,0,,7,,,43,127
40302,note_on,1,0,0,,2,,,62,127
40302,note_on,0,0,0,,12,,,71,127
40302,note_on,0,0,0,,7,,,43,127
40572,note_off,270,0,0,,12,,,71,127
40572,note_off,0,0,0,,2,,,62,127
40573,note_on,1,0,0,,12,,,71,127
40573,note_on,0,0,0,,2,,,74,127
40707,note_off,134,0,0,,2,,,74,127
40707,note_off,0,0,0,,12,,,71,127
40708,note_on,1,0,0,,2,,,74,127
40708,note_on,0,0,0,,12,,,71,127
40842,note_off,134,0,0,,12,,,71,127
40842,note_off,0,0,0,,2,,,74,127
40842,note_off,0,0,0,,7,,,43,127
40843,note_on,1,0,0,,12,,,71,127
40843,note_on,0,0,0,,2,,,74,127
40843,note_on,0,0,0,,7,,,43,127
41113,note_off,270,0,0,,2,,,74,127
41113,note_off,0,0,0,,12,,,71,127
41114,note_on,1,0,0,,7,,,79,127
41114,note_on,0,0,0,,12,,,71,127
41248,note_off,134,0,0,,12,,,71,127
41248,note_off,0,0,0,,7,,,79,127
41249,note_on,1,0,0,,12,,,71,127
41249,note_on,0,0,0,,7,,,79,127
41383,note_off,134,0,0,,7,,,79,127
41383,note_off,0,0,0,,12,,,71,127
41383,note_off,0,0,0,,7,,,43,127
41384,note_on,1,0,0,,12,,,71,127
41384,note_on,0,0,0,,10,,,81,127
41384,note_on,0,0,0,,7,,,43,127
41421,note_on,37,0,0,,7,,,79,127
41432,note_off,11,0,0,,10,,,81,127
41457,note_on,25,0,0,,10,,,81,127
41468,note_off,11,0,0,,7,,,79,127
41493,note_on,25,0,0,,7,,,79,127
41504,note_off,11,0,0,,10,,,81,127
42424,note_off,920,0,0,,7,,,79,127
42428,note_off,4,0,0,,12,,,71,127
42500,note_off,72,0,0,,7,,,43,127
42511,note_on,11,0,0,,7,,,55,127
42511,note_on,0,0,0,,5,,,65,127
42782,note_on,271,0,0,,2,,,74,127
42916,note_off,134,0,0,,2,,,74,127
42917,note_on,1,0,0,,12,,,71,127
43051,note_off,134,0,0,,12,,,71,127
43051,note_off,0,0,0,,5,,,65,127
43051,note_off,0,0,0,,7,,,55,127
43052,note_on,1,0,0,,12,,,71,127
43052,note_on,0,0,0,,7,,,55,127
43052,note_on,0,0,0,,5,,,65,127
43322,note_off,270,0,0,,12,,,71,127
43323,note_on,1,0,0,,5,,,77,127
43457,note_off,134,0,0,,5,,,77,127
43458,note_on,1,0,0,,2,,,74,127
43592,note_off,134,0,0,,2,,,74,127
43592,note_off,0,0,0,,5,,,65,127
43592,note_off,0,0,0,,7,,,55,127
43593,note_on,1,0,0,,2,,,74,127
43593,note_on,0,0,0,,7,,,55,127
43593,note_on,0,0,0,,5,,,65,127
43863,note_off,270,0,0,,2,,,74,127
43864,note_on,1,0,0,,2,,,86,127
43998,note_off,134,0,0,,2,,,86,127
43999,note_on,1,0,0,,5,,,77,127
44133,note_off,134,0,0,,5,,,77,127
44133,note_off,0,0,0,,5,,,65,127
44133,note_off,0,0,0,,7,,,55,127
44134,note_on,1,0,0,,5,,,77,127
44134,note_on,0,0,0,,7,,,55,127
44134,note_on,0,0,0,,5,,,65,127
44404,note_off,270,0,0,,5,,,77,127
44405,note_on,1,0,0,,12,,,83,127
44539,note_off,134,0,0,,12,,,83,127
44540,note_on,1,0,0,,2,,,74,127
44674,note_off,134,0,0,,2,,,74,127
44674,note_off,0,0,0,,5,,,65,127
44674,note_off,0,0,0,,7,,,55,127
44675,note_on,1,0,0,,2,,,74,127
44675,note_on,0,0,0,,7,,,55,127
44675,note_on,0,0,0,,5,,,65,127
44945,note_off,270,0,0,,2,,,74,127
44946,note_on,1,0,0,,5,,,77,127
45080,note_off,134,0,0,,5,,,77,127
45081,note_on,1,0,0,,2,,,74,127
45215,note_off,134,0,0,,2,,,74,127
45215,note_off,0,0,0,,5,,,65,127
45215,note_off,0,0,0,,7,,,55,127
45216,note_on,1,0,0,,2,,,74,127
45216,note_on,0,0,0,,8,,,56,127
45216,note_on,0,0,0,,4,,,64,127
45216,note_on,0,0,0,,2,,,62,127
45510,note_on,294,0,0,,0,,,72,127
45552,note_off,42,0,0,,2,,,74,127
45563,note_on,11,0,0,,2,,,74,127
45583,note_off,20,0,0,,0,,,72,127
45617,note_on,34,0,0,,0,,,72,127
45637,note_off,20,0,0,,2,,,74,127
45671,note_on,34,0,0,,12,,,71,127
45691,note_off,20,0,0,,0,,,72,127
45757,note_off,66,0,0,,2,,,62,127
45757,note_off,0,0,0,,4,,,64,127
45757,note_off,0,0,0,,8,,,56,127
45758,note_on,1,0,0,,0,,,72,127
45758,note_on,0,0,0,,4,,,64,127
45758,note_on,0,0,0,,0,,,60,127
45758,note_on,0,0,0,,10,,,57,127
45769,note_off,11,0,0,,12,,,71,127
46027,note_off,258,0,0,,0,,,72,127
46051,note_on,24,0,0,,10,,,81,127
46185,note_off,134,0,0,,10,,,81,127
46186,note_on,1,0,0,,0,,,72,127
46298,note_off,112,0,0,,10,,,57,127
46298,note_off,0,0,0,,0,,,60,127
46298,note_off,0,0,0,,4,,,64,127
46321,note_off,23,0,0,,0,,,72,127
46322,note_on,1,0,0,,4,,,64,127
46322,note_on,0,0,0,,0,,,60,127
46322,note_on,0,0,0,,10,,,57,127
46322,note_on,0,0,0,,2,,,74,127
46367,note_on,45,0,0,,0,,,72,127
46388,note_off,21,0,0,,2,,,74,127
46412,note_on,24,0,0,,2,,,74,127
46433,note_off,21,0,0,,0,,,72,127
46457,note_on,24,0,0,,0,,,72,127
46478,note_off,21,0,0,,2,,,74,127
46591,note_off,113,0,0,,0,,,72,127
46592,note_on,1,0,0,,10,,,81,127
46726,note_off,134,0,0,,10,,,81,127
46727,note_on,1,0,0,,0,,,72,127
46861,note_off,134,0,0,,0,,,72,127
46861,note_off,0,0,0,,10,,,57,127
46861,note_off,0,0,0,,0,,,60,127
46861,note_off,0,0,0,,4,,,64,127
46862,note_on,1,0,0,,11,,,58,127
46862,note_on,0,0,0,,0,,,60,127
46862,note_on,0,0,0,,4,,,64,127
46862,note_on,0,0,0,,7,,,55,127
46862,note_on,0,0,0,,0,,,72,127
46907,note_on,45,0,0,,11,,,70,127
46928,note_off,21,0,0,,0,,,72,127
46952,note_on,24,0,0,,0,,,72,127
46973,note_off,21,0,0,,11,,,70,127
46997,note_on,24,0,0,,11,,,70,127
47018,note_off,21,0,0,,0,,,72,127
47131,note_off,113,0,0,,11,,,70,127
47132,note_on,1,0,0,,7,,,79,127
47266,note_off,134,0,0,,7,,,79,127
47267,note_on,1,0,0,,11,,,70,127
47401,note_off,134,0,0,,11,,,70,127
47401,note_off,0,0,0,,7,,,55,127
47401,note_off,0,0,0,,4,,,64,127
47401,note_off,0,0,0,,0,,,60,127
47401,note_off,0,0,0,,11,,,58,127
47402,note_on,1,0,0,,0,,,60,127
47402,note_on,0,0,0,,4,,,64,127
47402,note_on,0,0,0,,11,,,58,127
47402,note_on,0,0,0,,7,,,55,127
47402,note_on,0,0,0,,0,,,72,127
47447,note_on,45,0,0,,11,,,70,127
47468,note_off,21,0,0,,0,,,72,127
47492,note_on,24,0,0,,0,,,72,127
47513,note_off,21,0,0,,11,,,70,127
47537,note_on,24,0,0,,11,,,70,127
47558,note_off,21,0,0,,0,,,72,127
47671,note_off,113,0,0,,11,,,70,127
47672,note_on,1,0,0,,7,,,79,127
47806,note_off,134,0,0,,7,,,79,127
47807,note_on,1,0,0,,11,,,70,127
47941,note_off,134,0,0,,11,,,70,127
47941,note_off,0,0,0,,7,,,55,127
47941,note_off,0,0,0,,11,,,58,127
47941,note_off,0,0,0,,4,,,64,127
47941,note_off,0,0,0,,0,,,60,127
47942,note_on,1,0,0,,5,,,65,127
47942,note_on,0,0,0,,5,,,53,127
47942,note_on,0,0,0,,11,,,70,127
47987,note_on,45,0,0,,10,,,69,127
47990,note_off,3,0,0,,11,,,70,127
48032,note_on,42,0,0,,11,,,70,127
48035,note_off,3,0,0,,10,,,69,127
48077,note_on,42,0,0,,10,,,69,127
48080,note_off,3,0,0,,11,,,70,127
48240,note_off,160,0,0,,10,,,69,127
48240,note_off,0,0,0,,5,,,65,127
48258,note_on,18,0,0,,5,,,65,127
48258,note_on,0,0,0,,10,,,69,127
48266,note_off,8,0,0,,5,,,53,127
48392,note_off,126,0,0,,10,,,69,127
48392,note_off,0,0,0,,5,,,65,127
48393,note_on,1,0,0,,7,,,67,127
48393,note_on,0,0,0,,11,,,70,127
48527,note_off,134,0,0,,11,,,70,127
48527,note_off,0,0,0,,7,,,67,127
48528,note_on,1,0,0,,10,,,69,127
48528,note_on,0,0,0,,0,,,72,127
48662,note_off,134,0,0,,0,,,72,127
48662,note_off,0,0,0,,10,,,69,127
48663,note_on,1,0,0,,11,,,70,127
48663,note_on,0,0,0,,2,,,74,127
48797,note_off,134,0,0,,2,,,74,127
48797,note_off,0,0,0,,11,,,70,127
48798,note_on,1,0,0,,0,,,72,127
48798,note_on,0,0,0,,4,,,76,127
48932,note_off,134,0,0,,4,,,76,127
48932,note_off,0,0,0,,0,,,72,127
48933,note_on,1,0,0,,2,,,74,127
48933,note_on,0,0,0,,5,,,77,127
49067,note_off,134,0,0,,5,,,77,127
49067,note_off,0,0,0,,2,,,74,127
49068,note_on,1,0,0,,0,,,72,127
49068,note_on,0,0,0,,10,,,81,127
49105,note_on,37,0,0,,7,,,79,127
49116,note_off,11,0,0,,10,,,81,127
49141,note_on,25,0,0,,10,,,81,127
49152,note_off,11,0,0,,7,,,79,127
49177,note_on,25,0,0,,7,,,79,127
49188,note_off,11,0,0,,10,,,81,127
49332,note_off,144,0,0,,7,,,79,127
49336,note_off,4,0,0,,0,,,72,127
49337,note_on,1,0,0,,0,,,48,127
49337,note_on,0,0,0,,7,,,79,127
49337,note_on,0,0,0,,4,,,76,127
49471,note_off,134,0,0,,7,,,79,127
49472,note_on,1,0,0,,7,,,79,127
49606,note_off,134,0,0,,7,,,79,127
49606,note_off,0,0,0,,4,,,76,127
49606,note_off,0,0,0,,0,,,48,127
49607,note_on,1,0,0,,0,,,48,127
49607,note_on,0,0,0,,10,,,81,127
49607,note_on,0,0,0,,4,,,76,127
49644,note_on,37,0,0,,7,,,79,127
49655,note_off,11,0,0,,10,,,81,127
49680,note_on,25,0,0,,10,,,81,127
49691,note_off,11,0,0,,7,,,79,127
49716,note_on,25,0,0,,7,,,79,127
49727,note_off,11,0,0,,10,,,81,127
49871,note_off,144,0,0,,7,,,79,127
49875,note_off,4,0,0,,4,,,76,127
49875,note_off,0,0,0,,0,,,48,127
49876,note_on,1,0,0,,0,,,48,127
49876,note_on,0,0,0,,4,,,76,127
49876,note_on,0,0,0,,7,,,79,127
50010,note_off,134,0,0,,7,,,79,127
50011,note_on,1,0,0,,7,,,79,127
50145,note_off,134,0,0,,7,,,79,127
50145,note_off,0,0,0,,4,,,76,127
50145,note_off,0,0,0,,0,,,48,127
50146,note_on,1,0,0,,5,,,41,127
50146,note_on,0,0,0,,5,,,77,127
50146,note_on,0,0,0,,10,,,81,127
50416,note_off,270,0,0,,10,,,81,127
50416,note_off,0,0,0,,5,,,77,127
50416,note_off,0,0,0,,5,,,41,127
50440,note_on,24,0,0,,5,,,65,127
50440,note_on,0,0,0,,2,,,62,127
50574,note_off,134,0,0,,2,,,62,127
50574,note_off,0,0,0,,5,,,65,127
50575,note_on,1,0,0,,7,,,67,127
50575,note_on,0,0,0,,4,,,64,127
50709,note_off,134,0,0,,4,,,64,127
50709,note_off,0,0,0,,7,,,67,127
50710,note_on,1,0,0,,10,,,69,127
50710,note_on,0,0,0,,5,,,65,127
50844,note_off,134,0,0,,5,,,65,127
50844,note_off,0,0,0,,10,,,69,127
50845,note_on,1,0,0,,12,,,71,127
50845,note_on,0,0,0,,7,,,67,127
50979,note_off,134,0,0,,7,,,67,127
50979,note_off,0,0,0,,12,,,71,127
50980,note_on,1,0,0,,1,,,73,127
50980,note_on,0,0,0,,10,,,69,127
51114,note_off,134,0,0,,10,,,69,127
51114,note_off,0,0,0,,1,,,73,127
51115,note_on,1,0,0,,2,,,74,127
51115,note_on,0,0,0,,12,,,71,127
51239,note_off,124,0,0,,2,,,74,127
51249,note_off,10,0,0,,12,,,71,127
51250,note_on,1,0,0,,5,,,77,127
51250,note_on,0,0,0,,10,,,69,127
51287,note_on,37,0,0,,4,,,76,127
51298,note_off,11,0,0,,5,,,77,127
51323,note_on,25,0,0,,5,,,77,127
51334,note_off,11,0,0,,4,,,76,127
51359,note_on,25,0,0,,4,,,76,127
51370,note_off,11,0,0,,5,,,77,127
51514,note_off,144,0,0,,4,,,76,127
51518,note_off,4,0,0,,10,,,69,127
51519,note_on,1,0,0,,1,,,73,127
51519,note_on,0,0,0,,4,,,76,127
51519,note_on,0,0,0,,10,,,45,127
51653,note_off,134,0,0,,4,,,76,127
51654,note_on,1,0,0,,4,,,76,127
51788,note_off,134,0,0,,4,,,76,127
51788,note_off,0,0,0,,10,,,45,127
51788,note_off,0,0,0,,1,,,73,127
51789,note_on,1,0,0,,1,,,73,127
51789,note_on,0,0,0,,5,,,77,127
51789,note_on,0,0,0,,10,,,45,127
51826,note_on,37,0,0,,4,,,76,127
51837,note_off,11,0,0,,5,,,77,127
51862,note_on,25,0,0,,5,,,77,127
51873,note_off,11,0,0,,4,,,76,127
51898,note_on,25,0,0,,4,,,76,127
51909,note_off,11,0,0,,5,,,77,127
52053,note_off,144,0,0,,4,,,76,127
52057,note_off,4,0,0,,10,,,45,127
52057,note_off,0,0,0,,1,,,73,127
52058,note_on,1,0,0,,4,,,76,127
52058,note_on,0,0,0,,1,,,73,127
52058,note_on,0,0,0,,10,,,45,127
52192,note_off,134,0,0,,4,,,76,127
52193,note_on,1,0,0,,4,,,76,127
52327,note_off,134,0,0,,4,,,76,127
52327,note_off,0,0,0,,10,,,45,127
52327,note_off,0,0,0,,1,,,73,127
52328,note_on,1,0,0,,2,,,74,127
52328,note_on,0,0,0,,5,,,77,127
52328,note_on,0,0,0,,2,,,38,127
52598,note_off,270,0,0,,2,,,38,127
52598,note_off,0,0,0,,5,,,77,127
52598,note_off,0,0,0,,2,,,74,127
52622,note_on,24,0,0,,11,,,58,127
52622,note_on,0,0,0,,2,,,62,127
52756,note_off,134,0,0,,2,,,62,127
52756,note_off,0,0,0,,11,,,58,127
52757,note_on,1,0,0,,0,,,60,127
52757,note_on,0,0,0,,3,,,63,127
52891,note_off,134,0,0,,3,,,63,127
52891,note_off,0,0,0,,0,,,60,127
52892,note_on,1,0,0,,2,,,62,127
52892,note_on,0,0,0,,5,,,65,127
53026,note_off,134,0,0,,5,,,65,127
53026,note_off,0,0,0,,2,,,62,127
53027,note_on,1,0,0,,3,,,63,127
53027,note_on,0,0,0,,7,,,67,127
53161,note_off,134,0,0,,7,,,67,127
53161,note_off,0,0,0,,3,,,63,127
53162,note_on,1,0,0,,5,,,65,127
53162,note_on,0,0,0,,10,,,69,127
53296,note_off,134,0,0,,10,,,69,127
53296,note_off,0,0,0,,5,,,65,127
53297,note_on,1,0,0,,7,,,67,127
53297,note_on,0,0,0,,11,,,70,127
53431,note_off,134,0,0,,11,,,70,127
53431,note_off,0,0,0,,7,,,67,127
53432,note_on,1,0,0,,5,,,65,127
53432,note_on,0,0,0,,2,,,74,127
53469,note_on,37,0,0,,0,,,72,127
53480,note_off,11,0,0,,2,,,74,127
53505,note_on,25,0,0,,2,,,74,127
53516,note_off,11,0,0,,0,,,72,127
53541,note_on,25,0,0,,0,,,72,127
53552,note_off,11,0,0,,2,,,74,127
53696,note_off,144,0,0,,0,,,72,127
53700,note_off,4,0,0,,5,,,65,127
53701,note_on,1,0,0,,5,,,41,127
53701,note_on,0,0,0,,10,,,69,127
53701,note_on,0,0,0,,0,,,72,127
53835,note_off,134,0,0,,0,,,72,127
53836,note_on,1,0,0,,0,,,72,127
53970,note_off,134,0,0,,0,,,72,127
53970,note_off,0,0,0,,10,,,69,127
53970,note_off,0,0,0,,5,,,41,127
53971,note_on,1,0,0,,5,,,41,127
53971,note_on,0,0,0,,2,,,74,127
53971,note_on,0,0,0,,10,,,69,127
54008,note_on,37,0,0,,0,,,72,127
54019,note_off,11,0,0,,2,,,74,127
54044,note_on,25,0,0,,2,,,74,127
54055,note_off,11,0,0,,0,,,72,127
54080,note_on,25,0,0,,0,,,72,127
54091,note_off,11,0,0,,2,,,74,127
54235,note_off,144,0,0,,0,,,72,127
54239,note_off,4,0,0,,10,,,69,127
54239,note_off,0,0,0,,5,,,41,127
54240,note_on,1,0,0,,5,,,41,127
54240,note_on,0,0,0,,10,,,69,127
54240,note_on,0,0,0,,0,,,72,127
54374,note_off,134,0,0,,0,,,72,127
54375,note_on,1,0,0,,0,,,72,127
54509,note_off,134,0,0,,0,,,72,127
54509,note_off,0,0,0,,10,,,69,127
54509,note_off,0,0,0,,5,,,41,127
54510,note_on,1,0,0,,11,,,46,127
54510,note_on,0,0,0,,2,,,74,127
54510,note_on,0,0,0,,11,,,70,127
54780,note_off,270,0,0,,2,,,74,127
54827,note_on,47,0,0,,11,,,82,127
55047,note_off,220,0,0,,11,,,70,127
55096,note_off,49,0,0,,11,,,82,127
55097,note_on,1,0,0,,0,,,84,127
55163,note_off,66,0,0,,0,,,84,127
55164,note_on,1,0,0,,11,,,82,127
55187,note_off,23,0,0,,11,,,46,127
55231,note_off,44,0,0,,11,,,82,127
55232,note_on,1,0,0,,0,,,84,127
55298,note_off,66,0,0,,0,,,84,127
55299,note_on,1,0,0,,11,,,82,127
55365,note_off,66,0,0,,11,,,82,127
55366,note_on,1,0,0,,7,,,67,127
55366,note_on,0,0,0,,11,,,70,127
55366,note_on,0,0,0,,0,,,84,127
55432,note_off,66,0,0,,0,,,84,127
55433,note_on,1,0,0,,11,,,82,127
55499,note_off,66,0,0,,11,,,82,127
55500,note_on,1,0,0,,10,,,81,127
55566,note_off,66,0,0,,10,,,81,127
55567,note_on,1,0,0,,11,,,82,127
55633,note_off,66,0,0,,11,,,82,127
55633,note_off,0,0,0,,11,,,70,127
55633,note_off,0,0,0,,7,,,67,127
55634,note_on,1,0,0,,7,,,67,127
55634,note_on,0,0,0,,4,,,64,127
55634,note_on,0,0,0,,0,,,72,127
55904,note_off,270,0,0,,0,,,72,127
55904,note_off,0,0,0,,4,,,64,127
55904,note_off,0,0,0,,7,,,67,127
55905,note_on,1,0,0,,5,,,65,127
55905,note_on,0,0,0,,10,,,69,127
55905,note_on,0,0,0,,10,,,81,127
56175,note_off,270,0,0,,10,,,81,127
56176,note_on,1,0,0,,11,,,82,127
56242,note_off,66,0,0,,11,,,82,127
56243,note_on,1,0,0,,10,,,81,127
56299,note_off,56,0,0,,10,,,69,127
56299,note_off,0,0,0,,5,,,65,127
56309,note_off,10,0,0,,10,,,81,127
56310,note_on,1,0,0,,11,,,82,127
56376,note_off,66,0,0,,11,,,82,127
56377,note_on,1,0,0,,10,,,81,127
56443,note_off,66,0,0,,10,,,81,127
56444,note_on,1,0,0,,10,,,69,127
56444,note_on,0,0,0,,5,,,65,127
56444,note_on,0,0,0,,11,,,82,127
56510,note_off,66,0,0,,11,,,82,127
56511,note_on,1,0,0,,10,,,81,127
56577,note_off,66,0,0,,10,,,81,127
56578,note_on,1,0,0,,7,,,79,127
56644,note_off,66,0,0,,7,,,79,127
56645,note_on,1,0,0,,10,,,81,127
56711,note_off,66,0,0,,10,,,81,127
56711,note_off,0,0,0,,5,,,65,127
56711,note_off,0,0,0,,10,,,69,127
56712,note_on,1,0,0,,5,,,65,127
56712,note_on,0,0,0,,2,,,62,127
56712,note_on,0,0,0,,12,,,71,127
56982,note_off,270,0,0,,12,,,71,127
56982,note_off,0,0,0,,2,,,62,127
56982,note_off,0,0,0,,5,,,65,127
56983,note_on,1,0,0,,4,,,64,127
56983,note_on,0,0,0,,7,,,67,127
56983,note_on,0,0,0,,7,,,79,127
57253,note_off,270,0,0,,7,,,79,127
57254,note_on,1,0,0,,10,,,81,127
57320,note_off,66,0,0,,10,,,81,127
57321,note_on,1,0,0,,7,,,79,127
57387,note_off,66,0,0,,7,,,79,127
57388,note_on,1,0,0,,10,,,81,127
57454,note_off,66,0,0,,10,,,81,127
57455,note_on,1,0,0,,7,,,79,127
57461,note_off,6,0,0,,7,,,67,127
57461,note_off,0,0,0,,4,,,64,127
57522,note_off,61,0,0,,7,,,79,127
57523,note_on,1,0,0,,7,,,67,127
57523,note_on,0,0,0,,4,,,64,127
57523,note_on,0,0,0,,10,,,81,127
57589,note_off,66,0,0,,10,,,81,127
57590,note_on,1,0,0,,7,,,79,127
57656,note_off,66,0,0,,7,,,79,127
57657,note_on,1,0,0,,5,,,77,127
57723,note_off,66,0,0,,5,,,77,127
57724,note_on,1,0,0,,7,,,79,127
57790,note_off,66,0,0,,7,,,79,127
57790,note_off,0,0,0,,4,,,64,127
57790,note_off,0,0,0,,7,,,67,127
57791,note_on,1,0,0,,4,,,64,127
57791,note_on,0,0,0,,0,,,60,127
57791,note_on,0,0,0,,10,,,69,127
58061,note_off,270,0,0,,10,,,69,127
58061,note_off,0,0,0,,0,,,60,127
58061,note_off,0,0,0,,4,,,64,127
58062,note_on,1,0,0,,2,,,62,127
58062,note_on,0,0,0,,5,,,65,127
58062,note_on,0,0,0,,5,,,77,127
58332,note_off,270,0,0,,5,,,77,127
58333,note_on,1,0,0,,7,,,79,127
58399,note_off,66,0,0,,7,,,79,127
58400,note_on,1,0,0,,5,,,77,127
58466,note_off,66,0,0,,5,,,77,127
58467,note_on,1,0,0,,7,,,79,127
58533,note_off,66,0,0,,7,,,79,127
58534,note_on,1,0,0,,5,,,77,127
58554,note_off,20,0,0,,5,,,65,127
58554,note_off,0,0,0,,2,,,62,127
58601,note_off,47,0,0,,5,,,77,127
58602,note_on,1,0,0,,5,,,65,127
58602,note_on,0,0,0,,2,,,62,127
58602,note_on,0,0,0,,7,,,79,127
58668,note_off,66,0,0,,7,,,79,127
58669,note_on,1,0,0,,5,,,77,127
58735,note_off,66,0,0,,5,,,77,127
58736,note_on,1,0,0,,4,,,76,127
58802,note_off,66,0,0,,4,,,76,127
58803,note_on,1,0,0,,5,,,77,127
58869,note_off,66,0,0,,5,,,77,127
58869,note_off,0,0,0,,2,,,62,127
58869,note_off,0,0,0,,5,,,65,127
58870,note_on,1,0,0,,12,,,59,127
58870,note_on,0,0,0,,2,,,62,127
58870,note_on,0,0,0,,7,,,67,127
59140,note_off,270,0,0,,7,,,67,127
59140,note_off,0,0,0,,2,,,62,127
59140,note_off,0,0,0,,12,,,59,127
59141,note_on,1,0,0,,4,,,64,127
59141,note_on,0,0,0,,0,,,60,127
59141,note_on,0,0,0,,4,,,76,127
59411,note_off,270,0,0,,4,,,76,127
59412,note_on,1,0,0,,5,,,77,127
59478,note_off,66,0,0,,5,,,77,127
59479,note_on,1,0,0,,4,,,76,127
59545,note_off,66,0,0,,4,,,76,127
59546,note_on,1,0,0,,5,,,77,127
59612,note_off,66,0,0,,5,,,77,127
59613,note_on,1,0,0,,4,,,76,127
59647,note_off,34,0,0,,0,,,60,127
59647,note_off,0,0,0,,4,,,64,127
59679,note_off,32,0,0,,4,,,76,127
59680,note_on,1,0,0,,4,,,64,127
59680,note_on,0,0,0,,0,,,60,127
59680,note_on,0,0,0,,5,,,77,127
59746,note_off,66,0,0,,5,,,77,127
59747,note_on,1,0,0,,4,,,76,127
59813,note_off,66,0,0,,4,,,76,127
59817,note_on,4,0,0,,2,,,74,127
59883,note_off,66,0,0,,2,,,74,127
59890,note_on,7,0,0,,4,,,76,127
59962,note_off,72,0,0,,0,,,60,127
59962,note_off,0,0,0,,4,,,64,127
59969,note_off,7,0,0,,4,,,76,127
59972,note_on,3,0,0,,10,,,81,127
59972,note_on,0,0,0,,6,,,54,127
59972,note_on,0,0,0,,2,,,62,127
59972,note_on,0,0,0,,0,,,60,127
60242,note_off,270,0,0,,10,,,81,127
60243,note_on,1,0,0,,2,,,74,127
60513,note_off,270,0,0,,2,,,74,127
60513,note_off,0,0,0,,0,,,60,127
60513,note_off,0,0,0,,2,,,62,127
60513,note_off,0,0,0,,6,,,54,127
60514,note_on,1,0,0,,4,,,76,127
60514,note_on,0,0,0,,6,,,54,127
60514,note_on,0,0,0,,0,,,60,127
60514,note_on,0,0,0,,2,,,62,127
60580,note_off,66,0,0,,4,,,76,127
60581,note_on,1,0,0,,2,,,74,127
60647,note_off,66,0,0,,2,,,74,127
60648,note_on,1,0,0,,4,,,76,127
60714,note_off,66,0,0,,4,,,76,127
60715,note_on,1,0,0,,2,,,74,127
60781,note_off,66,0,0,,2,,,74,127
60782,note_on,1,0,0,,4,,,76,127
60848,note_off,66,0,0,,4,,,76,127
60849,note_on,1,0,0,,2,,,74,127
60915,note_off,66,0,0,,2,,,74,127
60919,note_on,4,0,0,,0,,,72,127
60985,note_off,66,0,0,,0,,,72,127
60992,note_on,7,0,0,,2,,,74,127
61064,note_off,72,0,0,,2,,,62,127
61064,note_off,0,0,0,,0,,,60,127
61064,note_off,0,0,0,,6,,,54,127
61068,note_off,4,0,0,,2,,,74,127
61074,note_on,6,0,0,,2,,,62,127
61074,note_on,0,0,0,,6,,,54,127
61074,note_on,0,0,0,,0,,,60,127
61074,note_on,0,0,0,,10,,,81,127
61344,note_off,270,0,0,,10,,,81,127
61345,note_on,1,0,0,,0,,,72,127
61615,note_off,270,0,0,,0,,,72,127
61615,note_off,0,0,0,,0,,,60,127
61615,note_off,0,0,0,,6,,,54,127
61615,note_off,0,0,0,,2,,,62,127
61616,note_on,1,0,0,,0,,,60,127
61616,note_on,0,0,0,,2,,,62,127
61616,note_on,0,0,0,,6,,,54,127
61616,note_on,0,0,0,,2,,,74,127
61682,note_off,66,0,0,,2,,,74,127
61683,note_on,1,0,0,,0,,,72,127
61749,note_off,66,0,0,,0,,,72,127
61750,note_on,1,0,0,,2,,,74,127
61816,note_off,66,0,0,,2,,,74,127
61817,note_on,1,0,0,,0,,,72,127
61883,note_off,66,0,0,,0,,,72,127
61884,note_on,1,0,0,,2,,,74,127
61950,note_off,66,0,0,,2,,,74,127
61951,note_on,1,0,0,,0,,,72,127
62017,note_off,66,0,0,,0,,,72,127
62018,note_on,1,0,0,,12,,,71,127
62084,note_off,66,0,0,,12,,,71,127
62085,note_on,1,0,0,,0,,,72,127
62151,note_off,66,0,0,,0,,,72,127
62151,note_off,0,0,0,,6,,,54,127
62151,note_off,0,0,0,,2,,,62,127
62151,note_off,0,0,0,,0,,,60,127
62152,note_on,1,0,0,,2,,,62,127
62152,note_on,0,0,0,,7,,,55,127
62152,note_on,0,0,0,,12,,,71,127
62422,note_off,270,0,0,,12,,,71,127
62422,note_off,0,0,0,,2,,,62,127
62446,note_on,24,0,0,,12,,,71,127
62446,note_on,0,0,0,,2,,,62,127
62491,note_off,45,0,0,,7,,,55,127
62580,note_off,89,0,0,,2,,,62,127
62580,note_off,0,0,0,,12,,,71,127
62581,note_on,1,0,0,,0,,,72,127
62581,note_on,0,0,0,,4,,,64,127
62715,note_off,134,0,0,,4,,,64,127
62715,note_off,0,0,0,,0,,,72,127
62716,note_on,1,0,0,,2,,,74,127
62716,note_on,0,0,0,,5,,,65,127
62850,note_off,134,0,0,,5,,,65,127
62850,note_off,0,0,0,,2,,,74,127
62851,note_on,1,0,0,,4,,,76,127
62851,note_on,0,0,0,,7,,,67,127
62985,note_off,134,0,0,,7,,,67,127
62985,note_off,0,0,0,,4,,,76,127
62986,note_on,1,0,0,,5,,,77,127
62986,note_on,0,0,0,,10,,,69,127
63120,note_off,134,0,0,,10,,,69,127
63120,note_off,0,0,0,,5,,,77,127
63121,note_on,1,0,0,,2,,,74,127
63121,note_on,0,0,0,,12,,,71,127
63255,note_off,134,0,0,,12,,,71,127
63255,note_off,0,0,0,,2,,,74,127
63256,note_on,1,0,0,,4,,,76,127
63256,note_on,0,0,0,,0,,,72,127
63390,note_off,134,0,0,,0,,,72,127
63390,note_off,0,0,0,,4,,,76,127
63391,note_on,1,0,0,,2,,,74,127
63391,note_on,0,0,0,,12,,,71,127
63525,note_off,134,0,0,,12,,,71,127
63525,note_off,0,0,0,,2,,,74,127
63526,note_on,1,0,0,,4,,,76,127
63526,note_on,0,0,0,,0,,,72,127
63660,note_off,134,0,0,,0,,,72,127
63660,note_off,0,0,0,,4,,,76,127
63661,note_on,1,0,0,,5,,,77,127
63661,note_on,0,0,0,,2,,,74,127
63795,note_off,134,0,0,,2,,,74,127
63795,note_off,0,0,0,,5,,,77,127
63796,note_on,1,0,0,,7,,,79,127
63796,note_on,0,0,0,,4,,,76,127
63930,note_off,134,0,0,,4,,,76,127
63930,note_off,0,0,0,,7,,,79,127
63931,note_on,1,0,0,,10,,,81,127
63931,note_on,0,0,0,,5,,,77,127
64065,note_off,134,0,0,,5,,,77,127
64065,note_off,0,0,0,,10,,,81,127
64066,note_on,1,0,0,,12,,,83,127
64066,note_on,0,0,0,,7,,,79,127
64200,note_off,134,0,0,,7,,,79,127
64200,note_off,0,0,0,,12,,,83,127
64201,note_on,1,0,0,,0,,,84,127
64201,note_on,0,0,0,,10,,,81,127
64327,note_off,126,0,0,,0,,,84,127
64335,note_off,8,0,0,,10,,,81,127
64336,note_on,1,0,0,,4,,,88,127
64336,note_on,0,0,0,,12,,,83,127
64373,note_on,37,0,0,,2,,,86,127
64384,note_off,11,0,0,,4,,,88,127
64409,note_on,25,0,0,,4,,,88,127
64420,note_off,11,0,0,,2,,,86,127
64445,note_on,25,0,0,,2,,,86,127
64456,note_off,11,0,0,,4,,,88,127
64600,note_off,144,0,0,,2,,,86,127
64604,note_off,4,0,0,,12,,,83,127
64605,note_on,1,0,0,,12,,,83,127
64605,note_on,0,0,0,,2,,,86,127
64605,note_on,0,0,0,,7,,,55,127
64739,note_off,134,0,0,,2,,,86,127
64740,note_on,1,0,0,,2,,,86,127
64874,note_off,134,0,0,,2,,,86,127
64874,note_off,0,0,0,,7,,,55,127
64874,note_off,0,0,0,,12,,,83,127
64875,note_on,1,0,0,,12,,,83,127
64875,note_on,0,0,0,,4,,,88,127
64875,note_on,0,0,0,,7,,,55,127
64912,note_on,37,0,0,,2,,,86,127
64923,note_off,11,0,0,,4,,,88,127
64948,note_on,25,0,0,,4,,,88,127
64959,note_off,11,0,0,,2,,,86,127
64984,note_on,25,0,0,,2,,,86,127
64995,note_off,11,0,0,,4,,,88,127
65139,note_off,144,0,0,,2,,,86,127
65143,note_off,4,0,0,,7,,,55,127
65143,note_off,0,0,0,,12,,,83,127
65144,note_on,1,0,0,,2,,,86,127
65144,note_on,0,0,0,,12,,,83,127
65144,note_on,0,0,0,,7,,,55,127
65278,note_off,134,0,0,,2,,,86,127
65279,note_on,1,0,0,,2,,,86,127
65413,note_off,134,0,0,,2,,,86,127
65413,note_off,0,0,0,,7,,,55,127
65413,note_off,0,0,0,,12,,,83,127
65414,note_on,1,0,0,,0,,,84,127
65414,note_on,0,0,0,,4,,,88,127
65414,note_on,0,0,0,,0,,,48,127
65684,note_off,270,0,0,,4,,,88,127
65684,note_off,0,0,0,,0,,,84,127
65708,note_on,24,0,0,,0,,,60,127
65708,note_on,0,0,0,,4,,,64,127
65753,note_off,45,0,0,,0,,,48,127
65842,note_off,89,0,0,,4,,,64,127
65842,note_off,0,0,0,,0,,,60,127
65843,note_on,1,0,0,,2,,,62,127
65843,note_on,0,0,0,,5,,,65,127
65977,note_off,134,0,0,,5,,,65,127
65977,note_off,0,0,0,,2,,,62,127
65978,note_on,1,0,0,,4,,,64,127
65978,note_on,0,0,0,,7,,,67,127
66112,note_off,134,0,0,,7,,,67,127
66112,note_off,0,0,0,,4,,,64,127
66113,note_on,1,0,0,,5,,,65,127
66113,note_on,0,0,0,,10,,,69,127
66247,note_off,134,0,0,,10,,,69,127
66247,note_off,0,0,0,,5,,,65,127
66248,note_on,1,0,0,,7,,,67,127
66248,note_on,0,0,0,,12,,,71,127
66382,note_off,134,0,0,,12,,,71,127
66382,note_off,0,0,0,,7,,,67,127
66383,note_on,1,0,0,,10,,,69,127
66383,note_on,0,0,0,,0,,,72,127
66510,note_off,127,0,0,,0,,,72,127
66517,note_off,7,0,0,,10,,,69,127
66518,note_on,1,0,0,,12,,,71,127
66518,note_on,0,0,0,,4,,,76,127
66555,note_on,37,0,0,,2,,,74,127
66566,note_off,11,0,0,,4,,,76,127
66591,note_on,25,0,0,,4,,,76,127
66602,note_off,11,0,0,,2,,,74,127
66627,note_on,25,0,0,,2,,,74,127
66638,note_off,11,0,0,,4,,,76,127
66782,note_off,144,0,0,,2,,,74,127
66786,note_off,4,0,0,,12,,,71,127
66787,note_on,1,0,0,,7,,,43,127
66787,note_on,0,0,0,,2,,,74,127
66787,note_on,0,0,0,,12,,,71,127
66921,note_off,134,0,0,,2,,,74,127
66922,note_on,1,0,0,,2,,,74,127
67056,note_off,134,0,0,,2,,,74,127
67056,note_off,0,0,0,,12,,,71,127
67056,note_off,0,0,0,,7,,,43,127
67057,note_on,1,0,0,,7,,,43,127
67057,note_on,0,0,0,,4,,,76,127
67057,note_on,0,0,0,,12,,,71,127
67094,note_on,37,0,0,,2,,,74,127
67105,note_off,11,0,0,,4,,,76,127
67130,note_on,25,0,0,,4,,,76,127
67141,note_off,11,0,0,,2,,,74,127
67166,note_on,25,0,0,,2,,,74,127
67177,note_off,11,0,0,,4,,,76,127
67321,note_off,144,0,0,,2,,,74,127
67325,note_off,4,0,0,,12,,,71,127
67325,note_off,0,0,0,,7,,,43,127
67326,note_on,1,0,0,,7,,,43,127
67326,note_on,0,0,0,,2,,,74,127
67326,note_on,0,0,0,,12,,,71,127
67460,note_off,134,0,0,,2,,,74,127
67461,note_on,1,0,0,,2,,,74,127
67595,note_off,134,0,0,,2,,,74,127
67595,note_off,0,0,0,,12,,,71,127
67595,note_off,0,0,0,,7,,,43,127
67596,note_on,1,0,0,,0,,,36,127
67596,note_on,0,0,0,,4,,,76,127
67596,note_on,0,0,0,,0,,,72,127
67866,note_off,270,0,0,,0,,,72,127
67866,note_off,0,0,0,,4,,,76,127
67890,note_on,24,0,0,,0,,,84,127
68024,note_off,134,0,0,,0,,,84,127
68025,note_on,1,0,0,,7,,,79,127
68137,note_off,112,0,0,,0,,,36,127
68160,note_off,23,0,0,,7,,,79,127
68161,note_on,1,0,0,,10,,,81,127
68161,note_on,0,0,0,,0,,,72,127
68161,note_on,0,0,0,,4,,,76,127
68198,note_on,37,0,0,,7,,,79,127
68209,note_off,11,0,0,,10,,,81,127
68234,note_on,25,0,0,,10,,,81,127
68245,note_off,11,0,0,,7,,,79,127
68270,note_on,25,0,0,,7,,,79,127
68281,note_off,11,0,0,,10,,,81,127
68425,note_off,144,0,0,,7,,,79,127
68431,note_on,6,0,0,,0,,,84,127
68565,note_off,134,0,0,,0,,,84,127
68566,note_on,1,0,0,,7,,,79,127
68700,note_off,134,0,0,,7,,,79,127
68700,note_off,0,0,0,,4,,,76,127
68700,note_off,0,0,0,,0,,,72,127
68701,note_on,1,0,0,,10,,,81,127
68701,note_on,0,0,0,,0,,,72,127
68701,note_on,0,0,0,,4,,,76,127
68738,note_on,37,0,0,,7,,,79,127
68749,note_off,11,0,0,,10,,,81,127
68774,note_on,25,0,0,,10,,,81,127
68785,note_off,11,0,0,,7,,,79,127
68810,note_on,25,0,0,,7,,,79,127
68821,note_off,11,0,0,,10,,,81,127
68965,note_off,144,0,0,,7,,,79,127
68968,note_off,3,0,0,,0,,,72,127
68993,note_on,25,0,0,,0,,,72,127
69129,note_on,136,0,0,,7,,,67,127
69241,note_off,112,0,0,,4,,,76,127
69264,note_off,23,0,0,,7,,,67,127
69264,note_off,0,0,0,,0,,,72,127
69265,note_on,1,0,0,,0,,,60,127
69265,note_on,0,0,0,,4,,,64,127
69265,note_on,0,0,0,,10,,,69,127
69302,note_on,37,0,0,,7,,,67,127
69313,note_off,11,0,0,,10,,,69,127
69338,note_on,25,0,0,,10,,,69,127
69349,note_off,11,0,0,,7,,,67,127
69374,note_on,25,0,0,,7,,,67,127
69385,note_off,11,0,0,,10,,,69,127
69529,note_off,144,0,0,,7,,,67,127
69535,note_on,6,0,0,,0,,,72,127
69669,note_off,134,0,0,,0,,,72,127
69670,note_on,1,0,0,,7,,,67,127
69804,note_off,134,0,0,,7,,,67,127
69804,note_off,0,0,0,,4,,,64,127
69804,note_off,0,0,0,,0,,,60,127
69805,note_on,1,0,0,,0,,,60,127
69805,note_on,0,0,0,,4,,,64,127
69805,note_on,0,0,0,,10,,,69,127
69842,note_on,37,0,0,,7,,,67,127
69853,note_off,11,0,0,,10,,,69,127
69878,note_on,25,0,0,,10,,,69,127
69889,note_off,11,0,0,,7,,,67,127
69914,note_on,25,0,0,,7,,,67,127
69925,note_off,11,0,0,,10,,,69,127
70069,note_off,144,0,0,,7,,,67,127
70072,note_off,3,0,0,,0,,,60,127
70097,note_on,25,0,0,,0,,,60,127
70233,note_on,136,0,0,,7,,,55,127
70345,note_off,112,0,0,,4,,,64,127
70368,note_off,23,0,0,,7,,,55,127
70368,note_off,0,0,0,,0,,,60,127
70369,note_on,1,0,0,,10,,,57,127
70369,note_on,0,0,0,,0,,,48,127
70369,note_on,0,0,0,,4,,,52,127
70413,note_on,44,0,0,,7,,,55,127
70417,note_off,4,0,0,,10,,,57,127
70457,note_on,40,0,0,,10,,,57,127
70461,note_off,4,0,0,,7,,,55,127
70501,note_on,40,0,0,,7,,,55,127
70505,note_off,4,0,0,,10,,,57,127
70628,note_off,123,0,0,,7,,,55,127
70641,note_on,13,0,0,,0,,,60,127
70775,note_off,134,0,0,,0,,,60,127
70776,note_on,1,0,0,,7,,,55,127
70910,note_off,134,0,0,,7,,,55,127
70910,note_off,0,0,0,,4,,,52,127
70910,note_off,0,0,0,,0,,,48,127
70911,note_on,1,0,0,,10,,,57,127
70911,note_on,0,0,0,,0,,,48,127
70911,note_on,0,0,0,,4,,,52,127
70955,note_on,44,0,0,,7,,,55,127
70959,note_off,4,0,0,,10,,,57,127
70999,note_on,40,0,0,,10,,,57,127
71003,note_off,4,0,0,,7,,,55,127
71043,note_on,40,0,0,,7,,,55,127
71047,note_off,4,0,0,,10,,,57,127
71170,note_off,123,0,0,,7,,,55,127
71181,note_off,11,0,0,,4,,,52,127
71181,note_off,0,0,0,,0,,,48,127
71182,note_on,1,0,0,,5,,,65,127
71182,note_on,0,0,0,,5,,,53,127
71316,note_off,134,0,0,,5,,,65,127
71317,note_on,1,0,0,,2,,,62,127
71451,note_off,134,0,0,,2,,,62,127
71451,note_off,0,0,0,,5,,,53,127
71452,note_on,1,0,0,,4,,,64,127
71452,note_on,0,0,0,,0,,,60,127
71452,note_on,0,0,0,,7,,,55,127
71722,note_off,270,0,0,,7,,,55,127
71722,note_off,0,0,0,,0,,,60,127
71722,note_off,0,0,0,,4,,,64,127
71723,note_on,1,0,0,,12,,,59,127
71723,note_on,0,0,0,,2,,,62,127
71723,note_on,0,0,0,,7,,,43,127
71993,note_off,270,0,0,,7,,,43,127
71993,note_off,0,0,0,,2,,,62,127
71993,note_off,0,0,0,,12,,,59,127
72006,note_on,13,0,0,,0,,,60,127
72006,note_on,0,0,0,,0,,,36,127
72157,note_off,151,0,0,,0,,,60,127
72164,note_on,7,0,0,,2,,,62,127
72230,note_off,66,0,0,,2,,,62,127
72231,note_on,1,0,0,,4,,,64,127
72297,note_off,66,0,0,,4,,,64,127
72298,note_on,1,0,0,,5,,,65,127
72364,note_off,66,0,0,,5,,,65,127
72365,note_on,1,0,0,,7,,,67,127
72431,note_off,66,0,0,,7,,,67,127
72432,note_on,1,0,0,,10,,,69,127
72498,note_off,66,0,0,,10,,,69,127
72499,note_on,1,0,0,,12,,,71,127
72565,note_off,66,0,0,,12,,,71,127
72566,note_on,1,0,0,,0,,,72,127
72632,note_off,66,0,0,,0,,,72,127
72633,note_on,1,0,0,,2,,,74,127
72699,note_off,66,0,0,,2,,,74,127
72700,note_on,1,0,0,,4,,,76,127
72766,note_off,66,0,0,,4,,,76,127
72767,note_on,1,0,0,,5,,,77,127
72833,note_off,66,0,0,,5,,,77,127
72834,note_on,1,0,0,,7,,,79,127
72900,note_off,66,0,0,,7,,,79,127
72901,note_on,1,0,0,,10,,,81,127
72967,note_off,66,0,0,,10,,,81,127
72968,note_on,1,0,0,,12,,,83,127
73034,note_off,66,0,0,,12,,,83,127
73035,note_on,1,0,0,,0,,,84,127
73101,note_off,66,0,0,,0,,,84,127
73102,note_on,1,0,0,,11,,,82,127
73322,note_off,220,0,0,,0,,,36,127
73373,note_on,51,0,0,,0,,,48,127
73373,note_on,0,0,0,,0,,,36,127
73643,note_off,270,0,0,,0,,,36,127
73643,note_off,0,0,0,,0,,,48,127
73644,note_on,1,0,0,,2,,,50,127
73644,note_on,0,0,0,,2,,,38,127
73914,note_off,270,0,0,,2,,,38,127
73914,note_off,0,0,0,,2,,,50,127
73915,note_on,1,0,0,,4,,,40,127
73915,note_on,0,0,0,,4,,,52,127
74185,note_off,270,0,0,,4,,,52,127
74185,note_off,0,0,0,,4,,,40,127
74186,note_on,1,0,0,,5,,,41,127
74186,note_on,0,0,0,,5,,,53,127
74456,note_off,270,0,0,,11,,,82,127
74457,note_on,1,0,0,,10,,,81,127
74591,note_off,134,0,0,,10,,,81,127
74592,note_on,1,0,0,,7,,,79,127
74726,note_off,134,0,0,,7,,,79,127
74726,note_off,0,0,0,,5,,,53,127
74726,note_off,0,0,0,,5,,,41,127
74727,note_on,1,0,0,,5,,,53,127
74727,note_on,0,0,0,,5,,,41,127
74727,note_on,0,0,0,,7,,,79,127
74861,note_off,134,0,0,,7,,,79,127
74862,note_on,1,0,0,,5,,,77,127
74996,note_off,134,0,0,,5,,,77,127
74997,note_on,1,0,0,,4,,,76,127
75131,note_off,134,0,0,,4,,,76,127
75132,note_on,1,0,0,,2,,,74,127
75266,note_off,134,0,0,,2,,,74,127
75266,note_off,0,0,0,,5,,,41,127
75266,note_off,0,0,0,,5,,,53,127
75267,note_on,1,0,0,,7,,,43,127
75267,note_on,0,0,0,,7,,,55,127
75267,note_on,0,0,0,,0,,,72,127
75582,note_off,315,0,0,,0,,,72,127
75583,note_on,1,0,0,,2,,,74,127
75628,note_on,45,0,0,,0,,,72,127
75631,note_off,3,0,0,,2,,,74,127
75673,note_on,42,0,0,,12,,,71,127
75676,note_off,3,0,0,,0,,,72,127
75718,note_on,42,0,0,,0,,,72,127
75721,note_off,3,0,0,,12,,,71,127
75763,note_on,42,0,0,,2,,,74,127
75766,note_off,3,0,0,,0,,,72,127
75807,note_off,41,0,0,,7,,,55,127
75807,note_off,0,0,0,,7,,,43,127
75808,note_on,1,0,0,,7,,,43,127
75808,note_on,0,0,0,,4,,,76,127
75811,note_off,3,0,0,,2,,,74,127
75853,note_on,42,0,0,,2,,,74,127
75856,note_off,3,0,0,,4,,,76,127
75898,note_on,42,0,0,,4,,,76,127
75901,note_off,3,0,0,,2,,,74,127
75943,note_on,42,0,0,,2,,,74,127
75946,note_off,3,0,0,,4,,,76,127
75988,note_on,42,0,0,,4,,,76,127
75991,note_off,3,0,0,,2,,,74,127
76033,note_on,42,0,0,,2,,,74,127
76036,note_off,3,0,0,,4,,,76,127
76078,note_on,42,0,0,,4,,,76,127
76081,note_off,3,0,0,,2,,,74,127
76123,note_on,42,0,0,,2,,,74,127
76126,note_off,3,0,0,,4,,,76,127
76348,note_off,222,0,0,,2,,,74,127
76348,note_off,0,0,0,,7,,,43,127
76372,note_on,24,0,0,,0,,,60,127
76372,note_on,0,0,0,,0,,,36,127
76506,note_off,134,0,0,,0,,,60,127
76507,note_on,1,0,0,,2,,,62,127
76573,note_off,66,0,0,,2,,,62,127
76574,note_on,1,0,0,,4,,,64,127
76640,note_off,66,0,0,,4,,,64,127
76641,note_on,1,0,0,,5,,,65,127
76707,note_off,66,0,0,,5,,,65,127
76708,note_on,1,0,0,,7,,,67,127
76774,note_off,66,0,0,,7,,,67,127
76775,note_on,1,0,0,,10,,,69,127
76841,note_off,66,0,0,,10,,,69,127
76842,note_on,1,0,0,,12,,,71,127
76908,note_off,66,0,0,,12,,,71,127
76909,note_on,1,0,0,,0,,,72,127
76975,note_off,66,0,0,,0,,,72,127
76976,note_on,1,0,0,,2,,,74,127
77042,note_off,66,0,0,,2,,,74,127
77043,note_on,1,0,0,,4,,,76,127
77109,note_off,66,0,0,,4,,,76,127
77110,note_on,1,0,0,,5,,,77,127
77176,note_off,66,0,0,,5,,,77,127
77177,note_on,1,0,0,,7,,,79,127
77243,note_off,66,0,0,,7,,,79,127
77244,note_on,1,0,0,,10,,,81,127
77310,note_off,66,0,0,,10,,,81,127
77311,note_on,1,0,0,,12,,,83,127
77377,note_off,66,0,0,,12,,,83,127
77378,note_on,1,0,0,,0,,,84,127
77444,note_off,66,0,0,,0,,,84,127
77445,note_on,1,0,0,,11,,,82,127
77688,note_off,243,0,0,,0,,,36,127
77716,note_on,28,0,0,,0,,,36,127
77716,note_on,0,0,0,,0,,,48,127
77986,note_off,270,0,0,,0,,,48,127
77986,note_off,0,0,0,,0,,,36,127
77987,note_on,1,0,0,,2,,,50,127
77987,note_on,0,0,0,,2,,,38,127
78257,note_off,270,0,0,,2,,,38,127
78257,note_off,0,0,0,,2,,,50,127
78258,note_on,1,0,0,,4,,,52,127
78258,note_on,0,0,0,,4,,,40,127
78528,note_off,270,0,0,,4,,,40,127
78528,note_off,0,0,0,,4,,,52,127
78529,note_on,1,0,0,,5,,,41,127
78529,note_on,0,0,0,,5,,,53,127
78799,note_off,270,0,0,,11,,,82,127
78800,note_on,1,0,0,,10,,,81,127
78934,note_off,134,0,0,,10,,,81,127
78935,note_on,1,0,0,,7,,,79,127
79069,note_off,134,0,0,,7,,,79,127
79069,note_off,0,0,0,,5,,,53,127
79069,note_off,0,0,0,,5,,,41,127
79070,note_on,1,0,0,,7,,,79,127
79070,note_on,0,0,0,,5,,,53,127
79070,note_on,0,0,0,,5,,,41,127
79204,note_off,134,0,0,,7,,,79,127
79205,note_on,1,0,0,,5,,,77,127
79339,note_off,134,0,0,,5,,,77,127
79340,note_on,1,0,0,,4,,,76,127
79474,note_off,134,0,0,,4,,,76,127
79475,note_on,1,0,0,,2,,,74,127
79609,note_off,134,0,0,,2,,,74,127
79609,note_off,0,0,0,,5,,,41,127
79609,note_off,0,0,0,,5,,,53,127
79610,note_on,1,0,0,,0,,,72,127
79610,note_on,0,0,0,,7,,,43,127
79610,note_on,0,0,0,,7,,,55,127
79925,note_off,315,0,0,,0,,,72,127
79926,note_on,1,0,0,,2,,,74,127
79971,note_on,45,0,0,,0,,,72,127
79974,note_off,3,0,0,,2,,,74,127
80016,note_on,42,0,0,,12,,,71,127
80019,note_off,3,0,0,,0,,,72,127
80061,note_on,42,0,0,,0,,,72,127
80064,note_off,3,0,0,,12,,,71,127
80106,note_on,42,0,0,,2,,,74,127
80109,note_off,3,0,0,,0,,,72,127
80150,note_off,41,0,0,,7,,,55,127
80150,note_off,0,0,0,,7,,,43,127
80151,note_on,1,0,0,,4,,,76,127
80151,note_on,0,0,0,,7,,,43,127
80154,note_off,3,0,0,,2,,,74,127
80196,note_on,42,0,0,,2,,,74,127
80199,note_off,3,0,0,,4,,,76,127
80241,note_on,42,0,0,,4,,,76,127
80244,note_off,3,0,0,,2,,,74,127
80286,note_on,42,0,0,,2,,,74,127
80289,note_off,3,0,0,,4,,,76,127
80331,note_on,42,0,0,,4,,,76,127
80334,note_off,3,0,0,,2,,,74,127
80376,note_on,42,0,0,,2,,,74,127
80379,note_off,3,0,0,,4,,,76,127
80421,note_on,42,0,0,,4,,,76,127
80424,note_off,3,0,0,,2,,,74,127
80466,note_on,42,0,0,,2,,,74,127
80469,note_off,3,0,0,,4,,,76,127
80511,note_on,42,0,0,,0,,,72,127
80514,note_off,3,0,0,,2,,,74,127
80678,note_off,164,0,0,,0,,,72,127
80691,note_off,13,0,0,,7,,,43,127
80692,note_on,1,0,0,,0,,,72,127
80692,note_on,0,0,0,,0,,,36,127
80962,note_off,270,0,0,,0,,,72,127
80986,note_on,24,0,0,,0,,,72,127
81120,note_off,134,0,0,,0,,,72,127
81121,note_on,1,0,0,,0,,,72,127
81233,note_off,112,0,0,,0,,,36,127
81256,note_off,23,0,0,,0,,,72,127
81257,note_on,1,0,0,,0,,,36,127
81257,note_on,0,0,0,,2,,,74,127
81257,note_on,0,0,0,,4,,,64,127
81295,note_on,38,0,0,,0,,,72,127
81305,note_off,10,0,0,,2,,,74,127
81333,note_on,28,0,0,,2,,,74,127
81343,note_off,10,0,0,,0,,,72,127
81371,note_on,28,0,0,,0,,,72,127
81381,note_off,10,0,0,,2,,,74,127
81518,note_off,137,0,0,,0,,,72,127
81550,note_on,32,0,0,,4,,,76,127
81684,note_off,134,0,0,,4,,,76,127
81685,note_on,1,0,0,,0,,,72,127
81797,note_off,112,0,0,,4,,,64,127
81797,note_off,0,0,0,,0,,,36,127
81820,note_off,23,0,0,,0,,,72,127
81821,note_on,1,0,0,,4,,,64,127
81821,note_on,0,0,0,,2,,,74,127
81821,note_on,0,0,0,,0,,,36,127
81859,note_on,38,0,0,,0,,,72,127
81869,note_off,10,0,0,,2,,,74,127
81897,note_on,28,0,0,,2,,,74,127
81907,note_off,10,0,0,,0,,,72,127
81935,note_on,28,0,0,,0,,,72,127
81945,note_off,10,0,0,,2,,,74,127
82082,note_off,137,0,0,,0,,,72,127
82114,note_on,32,0,0,,4,,,76,127
82248,note_off,134,0,0,,4,,,76,127
82249,note_on,1,0,0,,4,,,76,127
82361,note_off,112,0,0,,0,,,36,127
82361,note_off,0,0,0,,4,,,64,127
82384,note_off,23,0,0,,4,,,76,127
82385,note_on,1,0,0,,0,,,36,127
82385,note_on,0,0,0,,5,,,77,127
82385,note_on,0,0,0,,7,,,67,127
82423,note_on,38,0,0,,4,,,76,127
82433,note_off,10,0,0,,5,,,77,127
82461,note_on,28,0,0,,5,,,77,127
82471,note_off,10,0,0,,4,,,76,127
82499,note_on,28,0,0,,4,,,76,127
82509,note_off,10,0,0,,5,,,77,127
82646,note_off,137,0,0,,4,,,76,127
82678,note_on,32,0,0,,7,,,79,127
82812,note_off,134,0,0,,7,,,79,127
82813,note_on,1,0,0,,4,,,76,127
82925,note_off,112,0,0,,7,,,67,127
82925,note_off,0,0,0,,0,,,36,127
82948,note_off,23,0,0,,4,,,76,127
82949,note_on,1,0,0,,0,,,72,127
82949,note_on,0,0,0,,5,,,77,127
82949,note_on,0,0,0,,0,,,36,127
82987,note_on,38,0,0,,4,,,76,127
82997,note_off,10,0,0,,5,,,77,127
83025,note_on,28,0,0,,5,,,77,127
83035,note_off,10,0,0,,4,,,76,127
83063,note_on,28,0,0,,4,,,76,127
83073,note_off,10,0,0,,5,,,77,127
83210,note_off,137,0,0,,4,,,76,127
83242,note_on,32,0,0,,0,,,84,127
83376,note_off,134,0,0,,0,,,84,127
83377,note_on,1,0,0,,0,,,84,127
83489,note_off,112,0,0,,0,,,36,127
83489,note_off,0,0,0,,0,,,72,127
83512,note_off,23,0,0,,0,,,84,127
83513,note_on,1,0,0,,0,,,36,127
83513,note_on,0,0,0,,2,,,86,127
83513,note_on,0,0,0,,4,,,76,127
83553,note_on,40,0,0,,0,,,84,127
83561,note_off,8,0,0,,2,,,86,127
83592,note_on,31,0,0,,2,,,86,127
83600,note_off,8,0,0,,0,,,84,127
83631,note_on,31,0,0,,0,,,84,127
83639,note_off,8,0,0,,2,,,86,127
83772,note_off,133,0,0,,0,,,84,127
83783,note_on,11,0,0,,0,,,84,127
83917,note_off,134,0,0,,0,,,84,127
83918,note_on,1,0,0,,7,,,79,127
84052,note_off,134,0,0,,7,,,79,127
84052,note_off,0,0,0,,4,,,76,127
84052,note_off,0,0,0,,0,,,36,127
84053,note_on,1,0,0,,0,,,36,127
84053,note_on,0,0,0,,2,,,86,127
84053,note_on,0,0,0,,4,,,76,127
84093,note_on,40,0,0,,0,,,84,127
84101,note_off,8,0,0,,2,,,86,127
84132,note_on,31,0,0,,2,,,86,127
84140,note_off,8,0,0,,0,,,84,127
84171,note_on,31,0,0,,0,,,84,127
84179,note_off,8,0,0,,2,,,86,127
84312,note_off,133,0,0,,0,,,84,127
84323,note_on,11,0,0,,0,,,84,127
84457,note_off,134,0,0,,0,,,84,127
84458,note_on,1,0,0,,7,,,79,127
84592,note_off,134,0,0,,7,,,79,127
84592,note_off,0,0,0,,4,,,76,127
84592,note_off,0,0,0,,0,,,36,127
84593,note_on,1,0,0,,0,,,36,127
84593,note_on,0,0,0,,2,,,86,127
84593,note_on,0,0,0,,4,,,76,127
84634,note_on,41,0,0,,0,,,84,127
84641,note_off,7,0,0,,2,,,86,127
84675,note_on,34,0,0,,2,,,86,127
84682,note_off,7,0,0,,0,,,84,127
84716,note_on,34,0,0,,0,,,84,127
84723,note_off,7,0,0,,2,,,86,127
84851,note_off,128,0,0,,0,,,84,127
84864,note_on,13,0,0,,0,,,84,127
84998,note_off,134,0,0,,0,,,84,127
84999,note_on,1,0,0,,7,,,79,127
85133,note_off,134,0,0,,7,,,79,127
85133,note_off,0,0,0,,4,,,76,127
85133,note_off,0,0,0,,0,,,36,127
85163,note_on,30,0,0,,0,,,36,127
85163,note_on,0,0,0,,4,,,76,127
85163,note_on,0,0,0,,0,,,84,127
87331,note_off,2168,0,0,,0,,,84,127
87331,note_off,0,0,0,,4,,,76,127
87331,note_off,0,0,0,,0,,,36,127
90624,end_of_track,3293,1,0,,,,,,
