tick,type,time,meta,track,program,channel,pitch,tempo,note,velocity
0,copyright,0,1,0,,,,,,
0,program_change,0,0,0,6,0,,,,
0,pitchwheel,0,0,0,,0,0,,,
0,program_change,0,0,0,6,1,,,,
0,pitchwheel,0,0,0,,1,-590,,,
0,program_change,0,0,0,6,2,,,,
0,pitchwheel,0,0,0,,2,-272,,,
0,program_change,0,0,0,6,3,,,,
0,pitchwheel,0,0,0,,3,-353,,,
0,program_change,0,0,0,6,4,,,,
0,pitchwheel,0,0,0,,4,-560,,,
0,program_change,0,0,0,6,5,,,,
0,pitchwheel,0,0,0,,5,-80,,,
0,program_change,0,0,0,6,6,,,,
0,pitchwheel,0,0,0,,6,-625,,,
0,program_change,0,0,0,6,7,,,,
0,pitchwheel,0,0,0,,7,-130,,,
0,program_change,0,0,0,6,8,,,,
0,pitchwheel,0,0,0,,8,-512,,,
0,program_change,0,0,0,6,10,,,,
0,pitchwheel,0,0,0,,10,-464,,,
0,program_change,0,0,0,6,11,,,,
0,pitchwheel,0,0,0,,11,-208,,,
0,program_change,0,0,0,6,12,,,,
0,pitchwheel,0,0,0,,12,-553,,,
0,set_tempo,0,1,0,,,,500000,,
230,note_on,230,0,0,,6,,,78,127
343,note_off,113,0,0,,6,,,78,127
345,note_on,2,0,0,,2,,,74,127
458,note_off,113,0,0,,2,,,74,127
460,note_on,2,0,0,,12,,,71,127
688,note_off,228,0,0,,12,,,71,127
690,note_on,2,0,0,,6,,,66,127
918,note_off,228,0,0,,6,,,66,127
920,note_on,2,0,0,,12,,,71,127
1033,note_off,113,0,0,,12,,,71,127
1035,note_on,2,0,0,,11,,,70,127
1148,note_off,113,0,0,,11,,,70,127
1150,note_on,2,0,0,,1,,,73,127
1263,note_off,113,0,0,,1,,,73,127
1265,note_on,2,0,0,,12,,,71,127
1378,note_off,113,0,0,,12,,,71,127
1380,note_on,2,0,0,,2,,,74,127
1493,note_off,113,0,0,,2,,,74,127
1495,note_on,2,0,0,,1,,,73,127
1608,note_off,113,0,0,,1,,,73,127
1610,note_on,2,0,0,,4,,,76,127
1723,note_off,113,0,0,,4,,,76,127
1725,note_on,2,0,0,,2,,,74,127
1838,note_off,113,0,0,,2,,,74,127
1840,note_on,2,0,0,,6,,,78,127
2070,note_on,230,0,0,,6,,,66,127
2183,note_off,113,0,0,,6,,,66,127
2185,note_on,2,0,0,,2,,,62,127
2298,note_off,113,0,0,,2,,,62,127
2300,note_on,2,0,0,,12,,,59,127
2528,note_off,228,0,0,,12,,,59,127
2528,note_off,0,0,0,,6,,,78,127
2530,note_on,2,0,0,,4,,,76,127
2530,note_on,0,0,0,,6,,,54,127
2758,note_off,228,0,0,,6,,,54,127
2758,note_off,0,0,0,,4,,,76,127
2760,note_on,2,0,0,,2,,,74,127
2760,note_on,0,0,0,,12,,,59,127
2873,note_off,113,0,0,,12,,,59,127
2875,note_on,2,0,0,,11,,,58,127
2988,note_off,113,0,0,,11,,,58,127
2988,note_off,0,0,0,,2,,,74,127
2990,note_on,2,0,0,,1,,,73,127
2990,note_on,0,0,0,,1,,,61,127
3103,note_off,113,0,0,,1,,,61,127
3105,note_on,2,0,0,,12,,,59,127
3218,note_off,113,0,0,,12,,,59,127
3220,note_on,2,0,0,,2,,,62,127
3333,note_off,113,0,0,,2,,,62,127
3335,note_on,2,0,0,,1,,,61,127
3448,note_off,113,0,0,,1,,,61,127
3448,note_off,0,0,0,,1,,,73,127
3450,note_on,2,0,0,,12,,,71,127
3450,note_on,0,0,0,,4,,,64,127
3563,note_off,113,0,0,,4,,,64,127
3565,note_on,2,0,0,,2,,,62,127
3678,note_off,113,0,0,,2,,,62,127
3680,note_on,2,0,0,,6,,,66,127
3793,note_off,113,0,0,,12,,,71,127
3795,note_on,2,0,0,,11,,,70,127
3908,note_off,113,0,0,,11,,,70,127
3908,note_off,0,0,0,,6,,,66,127
3910,note_on,2,0,0,,11,,,70,127
3910,note_on,0,0,0,,4,,,64,127
4023,note_off,113,0,0,,11,,,70,127
4025,note_on,2,0,0,,12,,,71,127
4138,note_off,113,0,0,,12,,,71,127
4140,note_on,2,0,0,,1,,,73,127
4253,note_off,113,0,0,,1,,,73,127
4255,note_on,2,0,0,,2,,,74,127
4368,note_off,113,0,0,,2,,,74,127
4368,note_off,0,0,0,,4,,,64,127
4370,note_on,2,0,0,,4,,,76,127
4370,note_on,0,0,0,,2,,,62,127
4483,note_off,113,0,0,,4,,,76,127
4485,note_on,2,0,0,,6,,,78,127
4598,note_off,113,0,0,,6,,,78,127
4598,note_off,0,0,0,,2,,,62,127
4600,note_on,2,0,0,,6,,,78,127
4600,note_on,0,0,0,,1,,,61,127
4713,note_off,113,0,0,,6,,,78,127
4715,note_on,2,0,0,,7,,,79,127
4828,note_off,113,0,0,,7,,,79,127
4828,note_off,0,0,0,,1,,,61,127
4830,note_on,2,0,0,,7,,,79,127
4830,note_on,0,0,0,,12,,,59,127
4943,note_off,113,0,0,,7,,,79,127
4945,note_on,2,0,0,,6,,,78,127
5058,note_off,113,0,0,,6,,,78,127
5058,note_off,0,0,0,,12,,,59,127
5060,note_on,2,0,0,,6,,,78,127
5060,note_on,0,0,0,,11,,,58,127
5173,note_off,113,0,0,,6,,,78,127
5175,note_on,2,0,0,,4,,,76,127
5288,note_off,113,0,0,,4,,,76,127
5288,note_off,0,0,0,,11,,,58,127
5290,note_on,2,0,0,,2,,,74,127
5290,note_on,0,0,0,,6,,,54,127
5403,note_off,113,0,0,,2,,,74,127
5405,note_on,2,0,0,,1,,,73,127
5518,note_off,113,0,0,,1,,,73,127
5518,note_off,0,0,0,,6,,,54,127
5520,note_on,2,0,0,,2,,,74,127
5520,note_on,0,0,0,,12,,,59,127
5633,note_off,113,0,0,,12,,,59,127
5635,note_on,2,0,0,,11,,,58,127
5748,note_off,113,0,0,,11,,,58,127
5750,note_on,2,0,0,,11,,,58,127
5863,note_off,113,0,0,,11,,,58,127
5865,note_off,2,0,0,,2,,,74,127
5865,note_on,0,0,0,,12,,,59,127
5978,note_off,113,0,0,,12,,,59,127
5980,note_on,2,0,0,,1,,,61,127
6093,note_off,113,0,0,,1,,,61,127
6095,note_on,2,0,0,,2,,,62,127
6208,note_off,113,0,0,,2,,,62,127
6210,note_on,2,0,0,,4,,,64,127
6323,note_off,113,0,0,,4,,,64,127
6325,note_on,2,0,0,,6,,,66,127
6438,note_off,113,0,0,,6,,,66,127
6440,note_on,2,0,0,,6,,,66,127
6553,note_off,113,0,0,,6,,,66,127
6555,note_on,2,0,0,,7,,,67,127
6668,note_off,113,0,0,,7,,,67,127
6670,note_on,2,0,0,,7,,,67,127
6783,note_off,113,0,0,,7,,,67,127
6785,note_on,2,0,0,,6,,,66,127
6898,note_off,113,0,0,,6,,,66,127
6900,note_on,2,0,0,,6,,,66,127
7013,note_off,113,0,0,,6,,,66,127
7015,note_on,2,0,0,,1,,,73,127
7015,note_on,0,0,0,,4,,,64,127
7128,note_off,113,0,0,,4,,,64,127
7128,note_off,0,0,0,,1,,,73,127
7130,note_on,2,0,0,,12,,,71,127
7130,note_on,0,0,0,,2,,,62,127
7243,note_off,113,0,0,,2,,,62,127
7243,note_off,0,0,0,,12,,,71,127
7245,note_on,2,0,0,,11,,,70,127
7245,note_on,0,0,0,,1,,,61,127
7358,note_off,113,0,0,,1,,,61,127
7358,note_off,0,0,0,,11,,,70,127
7360,note_on,2,0,0,,12,,,71,127
7360,note_on,0,0,0,,2,,,62,127
7473,note_off,113,0,0,,12,,,71,127
7475,note_on,2,0,0,,6,,,78,127
7588,note_off,113,0,0,,6,,,78,127
7590,note_on,2,0,0,,6,,,78,127
7703,note_off,113,0,0,,6,,,78,127
7705,note_on,2,0,0,,12,,,71,127
7818,note_off,113,0,0,,12,,,71,127
7820,note_on,2,0,0,,12,,,71,127
7933,note_off,113,0,0,,12,,,71,127
7935,note_on,2,0,0,,10,,,69,127
8048,note_off,113,0,0,,10,,,69,127
8048,note_off,0,0,0,,2,,,62,127
8050,note_on,2,0,0,,7,,,67,127
8050,note_on,0,0,0,,12,,,59,127
8163,note_off,113,0,0,,7,,,67,127
8165,note_on,2,0,0,,6,,,66,127
8278,note_off,113,0,0,,6,,,66,127
8278,note_off,0,0,0,,12,,,59,127
8280,note_on,2,0,0,,7,,,67,127
8280,note_on,0,0,0,,4,,,64,127
8393,note_off,113,0,0,,7,,,67,127
8395,note_on,2,0,0,,4,,,76,127
8508,note_off,113,0,0,,4,,,76,127
8508,note_off,0,0,0,,4,,,64,127
8510,note_on,2,0,0,,4,,,76,127
8510,note_on,0,0,0,,2,,,62,127
8623,note_off,113,0,0,,4,,,76,127
8625,note_on,2,0,0,,10,,,69,127
8738,note_off,113,0,0,,10,,,69,127
8738,note_off,0,0,0,,2,,,62,127
8740,note_on,2,0,0,,10,,,69,127
8740,note_on,0,0,0,,1,,,61,127
8853,note_off,113,0,0,,10,,,69,127
8855,note_on,2,0,0,,7,,,67,127
8968,note_off,113,0,0,,7,,,67,127
8968,note_off,0,0,0,,1,,,61,127
8970,note_on,2,0,0,,6,,,66,127
8970,note_on,0,0,0,,10,,,57,127
9083,note_off,113,0,0,,6,,,66,127
9085,note_on,2,0,0,,4,,,64,127
9198,note_off,113,0,0,,4,,,64,127
9198,note_off,0,0,0,,10,,,57,127
9200,note_on,2,0,0,,6,,,66,127
9200,note_on,0,0,0,,2,,,62,127
9313,note_off,113,0,0,,6,,,66,127
9315,note_on,2,0,0,,10,,,81,127
9428,note_off,113,0,0,,10,,,81,127
9430,note_on,2,0,0,,10,,,81,127
9543,note_off,113,0,0,,10,,,81,127
9545,note_on,2,0,0,,2,,,74,127
9655,note_off,110,0,0,,2,,,62,127
9657,note_off,2,0,0,,2,,,74,127
9659,note_on,2,0,0,,2,,,74,127
9772,note_off,113,0,0,,2,,,74,127
9774,note_on,2,0,0,,1,,,73,127
9887,note_off,113,0,0,,1,,,73,127
9889,note_on,2,0,0,,1,,,73,127
9889,note_on,0,0,0,,6,,,66,127
10002,note_off,113,0,0,,1,,,73,127
10004,note_on,2,0,0,,12,,,71,127
10117,note_off,113,0,0,,12,,,71,127
10117,note_off,0,0,0,,6,,,66,127
10119,note_on,2,0,0,,12,,,71,127
10119,note_on,0,0,0,,7,,,67,127
10232,note_off,113,0,0,,12,,,71,127
10234,note_on,2,0,0,,12,,,83,127
10347,note_off,113,0,0,,12,,,83,127
10347,note_off,0,0,0,,7,,,67,127
10349,note_on,2,0,0,,12,,,83,127
10349,note_on,0,0,0,,6,,,66,127
10462,note_off,113,0,0,,12,,,83,127
10464,note_on,2,0,0,,4,,,76,127
10577,note_off,113,0,0,,4,,,76,127
10577,note_off,0,0,0,,6,,,66,127
10579,note_on,2,0,0,,4,,,76,127
10579,note_on,0,0,0,,4,,,64,127
10692,note_off,113,0,0,,4,,,76,127
10694,note_on,2,0,0,,2,,,74,127
10807,note_off,113,0,0,,2,,,74,127
10807,note_off,0,0,0,,4,,,64,127
10809,note_on,2,0,0,,2,,,74,127
10809,note_on,0,0,0,,7,,,67,127
10922,note_off,113,0,0,,2,,,74,127
10924,note_on,2,0,0,,1,,,73,127
11037,note_off,113,0,0,,1,,,73,127
11037,note_off,0,0,0,,7,,,67,127
11039,note_on,2,0,0,,1,,,73,127
11039,note_on,0,0,0,,10,,,57,127
11152,note_off,113,0,0,,10,,,57,127
11154,note_on,2,0,0,,8,,,56,127
11267,note_off,113,0,0,,8,,,56,127
11267,note_off,0,0,0,,1,,,73,127
11269,note_on,2,0,0,,2,,,74,127
11269,note_on,0,0,0,,12,,,59,127
11382,note_off,113,0,0,,12,,,59,127
11384,note_on,2,0,0,,10,,,57,127
11497,note_off,113,0,0,,10,,,57,127
11497,note_off,0,0,0,,2,,,74,127
11499,note_on,2,0,0,,4,,,76,127
11499,note_on,0,0,0,,1,,,61,127
11612,note_off,113,0,0,,1,,,61,127
11614,note_on,2,0,0,,12,,,59,127
11727,note_off,113,0,0,,12,,,59,127
11727,note_off,0,0,0,,4,,,76,127
11729,note_on,2,0,0,,6,,,78,127
11729,note_on,0,0,0,,2,,,62,127
11842,note_off,113,0,0,,2,,,62,127
11844,note_on,2,0,0,,2,,,50,127
11957,note_off,113,0,0,,2,,,50,127
11957,note_off,0,0,0,,6,,,78,127
11959,note_on,2,0,0,,4,,,76,127
11959,note_on,0,0,0,,10,,,57,127
12072,note_off,113,0,0,,4,,,76,127
12074,note_on,2,0,0,,2,,,74,127
12187,note_off,113,0,0,,2,,,74,127
12189,note_on,2,0,0,,1,,,73,127
12302,note_off,113,0,0,,1,,,73,127
12304,note_on,2,0,0,,12,,,71,127
12417,note_off,113,0,0,,12,,,71,127
12419,note_on,2,0,0,,10,,,69,127
12532,note_off,113,0,0,,10,,,69,127
12532,note_off,0,0,0,,10,,,57,127
12534,note_on,2,0,0,,7,,,67,127
12647,note_off,113,0,0,,7,,,67,127
12649,note_on,2,0,0,,6,,,66,127
12762,note_off,113,0,0,,6,,,66,127
12764,note_on,2,0,0,,4,,,64,127
12877,note_off,113,0,0,,4,,,64,127
12879,note_on,2,0,0,,2,,,62,127
12994,note_on,115,0,0,,2,,,74,127
13107,note_off,113,0,0,,2,,,74,127
13109,note_on,2,0,0,,1,,,73,127
13222,note_off,113,0,0,,1,,,73,127
13224,note_on,2,0,0,,2,,,74,127
13337,note_off,113,0,0,,2,,,74,127
13337,note_off,0,0,0,,2,,,62,127
13339,note_on,2,0,0,,7,,,79,127
13339,note_on,0,0,0,,4,,,64,127
13452,note_off,113,0,0,,7,,,79,127
13454,note_on,2,0,0,,4,,,76,127
13567,note_off,113,0,0,,4,,,76,127
13567,note_off,0,0,0,,4,,,64,127
13569,note_on,2,0,0,,2,,,74,127
13569,note_on,0,0,0,,7,,,67,127
13682,note_off,113,0,0,,2,,,74,127
13684,note_on,2,0,0,,1,,,73,127
13797,note_off,113,0,0,,1,,,73,127
13797,note_off,0,0,0,,7,,,67,127
13799,note_on,2,0,0,,1,,,73,127
13799,note_on,0,0,0,,6,,,66,127
13912,note_off,113,0,0,,1,,,73,127
13914,note_on,2,0,0,,2,,,74,127
14027,note_off,113,0,0,,2,,,74,127
14027,note_off,0,0,0,,6,,,66,127
14029,note_on,2,0,0,,1,,,73,127
14029,note_on,0,0,0,,2,,,62,127
14142,note_off,113,0,0,,1,,,73,127
14144,note_on,2,0,0,,2,,,74,127
14257,note_off,113,0,0,,2,,,74,127
14257,note_off,0,0,0,,2,,,62,127
14259,note_on,2,0,0,,7,,,79,127
14259,note_on,0,0,0,,4,,,64,127
14372,note_off,113,0,0,,7,,,79,127
14374,note_on,2,0,0,,4,,,76,127
14487,note_off,113,0,0,,4,,,76,127
14487,note_off,0,0,0,,4,,,64,127
14489,note_on,2,0,0,,2,,,74,127
14489,note_on,0,0,0,,7,,,67,127
14602,note_off,113,0,0,,2,,,74,127
14604,note_on,2,0,0,,1,,,73,127
14717,note_off,113,0,0,,1,,,73,127
14717,note_off,0,0,0,,7,,,67,127
14719,note_on,2,0,0,,2,,,74,127
14719,note_on,0,0,0,,6,,,66,127
14832,note_off,113,0,0,,6,,,66,127
14834,note_on,2,0,0,,2,,,62,127
14947,note_off,113,0,0,,2,,,62,127
14949,note_on,2,0,0,,1,,,61,127
15062,note_off,113,0,0,,1,,,61,127
15064,note_on,2,0,0,,2,,,62,127
15174,note_off,110,0,0,,2,,,74,127
15176,note_off,2,0,0,,2,,,62,127
15178,note_on,2,0,0,,7,,,67,127
15291,note_off,113,0,0,,7,,,67,127
15293,note_on,2,0,0,,4,,,64,127
15406,note_off,113,0,0,,4,,,64,127
15408,note_on,2,0,0,,7,,,79,127
15408,note_on,0,0,0,,2,,,62,127
15521,note_off,113,0,0,,2,,,62,127
15523,note_on,2,0,0,,1,,,61,127
15636,note_off,113,0,0,,1,,,61,127
15636,note_off,0,0,0,,7,,,79,127
15638,note_on,2,0,0,,6,,,78,127
15638,note_on,0,0,0,,1,,,61,127
15751,note_off,113,0,0,,1,,,61,127
15753,note_on,2,0,0,,2,,,62,127
15866,note_off,113,0,0,,2,,,62,127
15868,note_on,2,0,0,,1,,,61,127
15981,note_off,113,0,0,,1,,,61,127
15983,note_on,2,0,0,,2,,,62,127
16093,note_off,110,0,0,,6,,,78,127
16095,note_off,2,0,0,,2,,,62,127
16097,note_on,2,0,0,,7,,,67,127
16210,note_off,113,0,0,,7,,,67,127
16212,note_on,2,0,0,,4,,,64,127
16325,note_off,113,0,0,,4,,,64,127
16327,note_on,2,0,0,,7,,,79,127
16327,note_on,0,0,0,,2,,,62,127
16440,note_off,113,0,0,,2,,,62,127
16442,note_on,2,0,0,,1,,,61,127
16555,note_off,113,0,0,,1,,,61,127
16555,note_off,0,0,0,,7,,,79,127
16557,note_on,2,0,0,,6,,,78,127
16557,note_on,0,0,0,,2,,,62,127
16785,note_off,228,0,0,,2,,,62,127
16785,note_off,0,0,0,,6,,,78,127
16787,note_on,2,0,0,,2,,,86,127
16787,note_on,0,0,0,,2,,,74,127
16861,note_off,74,0,0,,2,,,86,127
16863,note_on,2,0,0,,1,,,85,127
16937,note_off,74,0,0,,1,,,85,127
16939,note_on,2,0,0,,2,,,86,127
17013,note_off,74,0,0,,2,,,86,127
17013,note_off,0,0,0,,2,,,74,127
17015,note_on,2,0,0,,10,,,81,127
17015,note_on,0,0,0,,1,,,73,127
17089,note_off,74,0,0,,10,,,81,127
17091,note_on,2,0,0,,8,,,80,127
17165,note_off,74,0,0,,8,,,80,127
17167,note_on,2,0,0,,10,,,81,127
17241,note_off,74,0,0,,10,,,81,127
17241,note_off,0,0,0,,1,,,73,127
17243,note_on,2,0,0,,4,,,76,127
17243,note_on,0,0,0,,10,,,69,127
17317,note_off,74,0,0,,4,,,76,127
17319,note_on,2,0,0,,6,,,78,127
17393,note_off,74,0,0,,6,,,78,127
17395,note_on,2,0,0,,7,,,79,127
17469,note_off,74,0,0,,7,,,79,127
17469,note_off,0,0,0,,10,,,69,127
17471,note_on,2,0,0,,6,,,78,127
17471,note_on,0,0,0,,2,,,62,127
17699,note_off,228,0,0,,2,,,62,127
17701,note_on,2,0,0,,2,,,74,127
17775,note_off,74,0,0,,2,,,74,127
17777,note_on,2,0,0,,1,,,73,127
17851,note_off,74,0,0,,1,,,73,127
17853,note_on,2,0,0,,2,,,74,127
17927,note_off,74,0,0,,2,,,74,127
17929,note_on,2,0,0,,10,,,69,127
18003,note_off,74,0,0,,10,,,69,127
18005,note_on,2,0,0,,8,,,68,127
18079,note_off,74,0,0,,8,,,68,127
18081,note_on,2,0,0,,10,,,69,127
18155,note_off,74,0,0,,10,,,69,127
18157,note_on,2,0,0,,4,,,64,127
18231,note_off,74,0,0,,4,,,64,127
18233,note_on,2,0,0,,6,,,66,127
18307,note_off,74,0,0,,6,,,66,127
18309,note_on,2,0,0,,7,,,67,127
18383,note_off,74,0,0,,7,,,67,127
18385,note_on,2,0,0,,6,,,66,127
18613,note_off,228,0,0,,6,,,66,127
18613,note_off,0,0,0,,6,,,78,127
18615,note_on,2,0,0,,2,,,86,127
18615,note_on,0,0,0,,2,,,62,127
18689,note_off,74,0,0,,2,,,86,127
18691,note_on,2,0,0,,1,,,85,127
18765,note_off,74,0,0,,1,,,85,127
18767,note_on,2,0,0,,2,,,86,127
18841,note_off,74,0,0,,2,,,86,127
18841,note_off,0,0,0,,2,,,62,127
18843,note_on,2,0,0,,10,,,81,127
18843,note_on,0,0,0,,1,,,61,127
18917,note_off,74,0,0,,10,,,81,127
18919,note_on,2,0,0,,8,,,80,127
18993,note_off,74,0,0,,8,,,80,127
18995,note_on,2,0,0,,10,,,81,127
19069,note_off,74,0,0,,10,,,81,127
19069,note_off,0,0,0,,1,,,61,127
19071,note_on,2,0,0,,4,,,76,127
19071,note_on,0,0,0,,10,,,57,127
19145,note_off,74,0,0,,4,,,76,127
19147,note_on,2,0,0,,6,,,78,127
19221,note_off,74,0,0,,6,,,78,127
19223,note_on,2,0,0,,7,,,79,127
19297,note_off,74,0,0,,7,,,79,127
19297,note_off,0,0,0,,10,,,57,127
19299,note_on,2,0,0,,6,,,78,127
19299,note_on,0,0,0,,2,,,62,127
19373,note_off,74,0,0,,6,,,78,127
19375,note_on,2,0,0,,7,,,79,127
19449,note_off,74,0,0,,7,,,79,127
19451,note_on,2,0,0,,10,,,81,127
19525,note_off,74,0,0,,10,,,81,127
19525,note_off,0,0,0,,2,,,62,127
19527,note_on,2,0,0,,7,,,79,127
19527,note_on,0,0,0,,7,,,55,127
19601,note_off,74,0,0,,7,,,79,127
19603,note_on,2,0,0,,6,,,78,127
19677,note_off,74,0,0,,6,,,78,127
19679,note_on,2,0,0,,4,,,76,127
19753,note_off,74,0,0,,4,,,76,127
19753,note_off,0,0,0,,7,,,55,127
19755,note_on,2,0,0,,2,,,74,127
19755,note_on,0,0,0,,10,,,57,127
19983,note_off,228,0,0,,10,,,57,127
19983,note_off,0,0,0,,2,,,74,127
19985,note_on,2,0,0,,1,,,73,127
19985,note_on,0,0,0,,10,,,45,127
20213,note_off,228,0,0,,10,,,45,127
20213,note_off,0,0,0,,1,,,73,127
20215,note_on,2,0,0,,2,,,74,127
20215,note_on,0,0,0,,2,,,50,127
20443,note_off,228,0,0,,2,,,50,127
20443,note_off,0,0,0,,2,,,74,127
20445,note_on,2,0,0,,6,,,78,127
20445,note_on,0,0,0,,2,,,62,127
20519,note_off,74,0,0,,2,,,62,127
20521,note_on,2,0,0,,1,,,61,127
20595,note_off,74,0,0,,1,,,61,127
20597,note_on,2,0,0,,2,,,62,127
20671,note_off,74,0,0,,2,,,62,127
20671,note_off,0,0,0,,6,,,78,127
20673,note_on,2,0,0,,4,,,76,127
20673,note_on,0,0,0,,10,,,57,127
20747,note_off,74,0,0,,10,,,57,127
20749,note_on,2,0,0,,8,,,56,127
20823,note_off,74,0,0,,8,,,56,127
20825,note_on,2,0,0,,10,,,57,127
20899,note_off,74,0,0,,10,,,57,127
20899,note_off,0,0,0,,4,,,76,127
20901,note_on,2,0,0,,2,,,74,127
20901,note_on,0,0,0,,2,,,50,127
20975,note_off,74,0,0,,2,,,50,127
20977,note_on,2,0,0,,1,,,49,127
21051,note_off,74,0,0,,1,,,49,127
21053,note_on,2,0,0,,2,,,50,127
21127,note_off,74,0,0,,2,,,50,127
21127,note_off,0,0,0,,2,,,74,127
21129,note_on,2,0,0,,4,,,76,127
21129,note_on,0,0,0,,10,,,45,127
21357,note_off,228,0,0,,10,,,45,127
21357,note_off,0,0,0,,4,,,76,127
21359,note_on,2,0,0,,7,,,79,127
21359,note_on,0,0,0,,4,,,76,127
21359,note_on,0,0,0,,10,,,57,127
21433,note_off,74,0,0,,10,,,57,127
21435,note_on,2,0,0,,8,,,56,127
21509,note_off,74,0,0,,8,,,56,127
21511,note_on,2,0,0,,10,,,57,127
21585,note_off,74,0,0,,10,,,57,127
21585,note_off,0,0,0,,4,,,76,127
21585,note_off,0,0,0,,7,,,79,127
21587,note_on,2,0,0,,6,,,78,127
21587,note_on,0,0,0,,2,,,74,127
21587,note_on,0,0,0,,2,,,50,127
21661,note_off,74,0,0,,2,,,50,127
21663,note_on,2,0,0,,1,,,49,127
21737,note_off,74,0,0,,1,,,49,127
21739,note_on,2,0,0,,2,,,50,127
21813,note_off,74,0,0,,2,,,50,127
21813,note_off,0,0,0,,2,,,74,127
21813,note_off,0,0,0,,6,,,78,127
21815,note_on,2,0,0,,1,,,73,127
21815,note_on,0,0,0,,4,,,76,127
21815,note_on,0,0,0,,10,,,45,127
21889,note_off,74,0,0,,10,,,45,127
21891,note_on,2,0,0,,8,,,44,127
21965,note_off,74,0,0,,8,,,44,127
21967,note_on,2,0,0,,10,,,45,127
22041,note_off,74,0,0,,10,,,45,127
22041,note_off,0,0,0,,4,,,76,127
22041,note_off,0,0,0,,1,,,73,127
22043,note_on,2,0,0,,2,,,74,127
22043,note_on,0,0,0,,2,,,38,127
22271,note_off,228,0,0,,2,,,38,127
22271,note_off,0,0,0,,2,,,74,127
22273,note_on,2,0,0,,6,,,78,127
22273,note_on,0,0,0,,2,,,62,127
22347,note_off,74,0,0,,2,,,62,127
22349,note_on,2,0,0,,1,,,61,127
22423,note_off,74,0,0,,1,,,61,127
22425,note_on,2,0,0,,2,,,62,127
22499,note_off,74,0,0,,2,,,62,127
22499,note_off,0,0,0,,6,,,78,127
22501,note_on,2,0,0,,4,,,76,127
22501,note_on,0,0,0,,10,,,57,127
22575,note_off,74,0,0,,10,,,57,127
22577,note_on,2,0,0,,8,,,56,127
22651,note_off,74,0,0,,8,,,56,127
22653,note_on,2,0,0,,10,,,57,127
22727,note_off,74,0,0,,10,,,57,127
22727,note_off,0,0,0,,4,,,76,127
22729,note_on,2,0,0,,2,,,74,127
22729,note_on,0,0,0,,2,,,50,127
22803,note_off,74,0,0,,2,,,50,127
22805,note_on,2,0,0,,1,,,49,127
22879,note_off,74,0,0,,1,,,49,127
22881,note_on,2,0,0,,2,,,50,127
22955,note_off,74,0,0,,2,,,50,127
22955,note_off,0,0,0,,2,,,74,127
22957,note_on,2,0,0,,4,,,76,127
22957,note_on,0,0,0,,10,,,45,127
23185,note_off,228,0,0,,10,,,45,127
23185,note_off,0,0,0,,4,,,76,127
23187,note_on,2,0,0,,4,,,76,127
23187,note_on,0,0,0,,7,,,79,127
23187,note_on,0,0,0,,10,,,57,127
23261,note_off,74,0,0,,10,,,57,127
23263,note_on,2,0,0,,8,,,56,127
23337,note_off,74,0,0,,8,,,56,127
23339,note_on,2,0,0,,10,,,57,127
23413,note_off,74,0,0,,10,,,57,127
23413,note_off,0,0,0,,7,,,79,127
23413,note_off,0,0,0,,4,,,76,127
23415,note_on,2,0,0,,2,,,74,127
23415,note_on,0,0,0,,6,,,78,127
23415,note_on,0,0,0,,2,,,50,127
23489,note_off,74,0,0,,2,,,50,127
23491,note_on,2,0,0,,1,,,49,127
23565,note_off,74,0,0,,1,,,49,127
23567,note_on,2,0,0,,2,,,50,127
23641,note_off,74,0,0,,2,,,50,127
23641,note_off,0,0,0,,6,,,78,127
23641,note_off,0,0,0,,2,,,74,127
23643,note_on,2,0,0,,1,,,73,127
23643,note_on,0,0,0,,4,,,76,127
23643,note_on,0,0,0,,10,,,45,127
23717,note_off,74,0,0,,10,,,45,127
23719,note_on,2,0,0,,8,,,44,127
23793,note_off,74,0,0,,8,,,44,127
23795,note_on,2,0,0,,10,,,45,127
23869,note_off,74,0,0,,10,,,45,127
23869,note_off,0,0,0,,4,,,76,127
23869,note_off,0,0,0,,1,,,73,127
23871,note_on,2,0,0,,2,,,74,127
23871,note_on,0,0,0,,6,,,78,127
23871,note_on,0,0,0,,2,,,38,127
23945,note_off,74,0,0,,6,,,78,127
23947,note_on,2,0,0,,7,,,79,127
24021,note_off,74,0,0,,7,,,79,127
24023,note_on,2,0,0,,10,,,81,127
24097,note_off,74,0,0,,10,,,81,127
24097,note_off,0,0,0,,2,,,38,127
24097,note_off,0,0,0,,2,,,74,127
24099,note_on,2,0,0,,7,,,79,127
24099,note_on,0,0,0,,7,,,55,127
24173,note_off,74,0,0,,7,,,79,127
24175,note_on,2,0,0,,6,,,78,127
24249,note_off,74,0,0,,6,,,78,127
24251,note_on,2,0,0,,4,,,76,127
24325,note_off,74,0,0,,4,,,76,127
24325,note_off,0,0,0,,7,,,55,127
24327,note_on,2,0,0,,2,,,74,127
24327,note_on,0,0,0,,10,,,57,127
24555,note_off,228,0,0,,10,,,57,127
24555,note_off,0,0,0,,2,,,74,127
24557,note_on,2,0,0,,1,,,73,127
24557,note_on,0,0,0,,10,,,45,127
24785,note_off,228,0,0,,10,,,45,127
24785,note_off,0,0,0,,1,,,73,127
24787,note_on,2,0,0,,2,,,74,127
24787,note_on,0,0,0,,12,,,59,127
24864,note_on,77,0,0,,10,,,69,127
24938,note_off,74,0,0,,10,,,69,127
24940,note_on,2,0,0,,1,,,73,127
25014,note_off,74,0,0,,1,,,73,127
25014,note_off,0,0,0,,12,,,59,127
25016,note_on,2,0,0,,12,,,71,127
25016,note_on,0,0,0,,7,,,55,127
25090,note_off,74,0,0,,12,,,71,127
25092,note_on,2,0,0,,10,,,69,127
25166,note_off,74,0,0,,10,,,69,127
25168,note_on,2,0,0,,7,,,67,127
25242,note_off,74,0,0,,7,,,67,127
25242,note_off,0,0,0,,7,,,55,127
25244,note_on,2,0,0,,6,,,66,127
25244,note_on,0,0,0,,10,,,57,127
25472,note_off,228,0,0,,10,,,57,127
25472,note_off,0,0,0,,6,,,66,127
25473,note_off,1,0,0,,2,,,74,127
25474,note_on,1,0,0,,4,,,64,127
25474,note_on,0,0,0,,1,,,73,127
25474,note_on,0,0,0,,10,,,45,127
25702,note_off,228,0,0,,10,,,45,127
25702,note_off,0,0,0,,1,,,73,127
25702,note_off,0,0,0,,4,,,64,127
25704,note_on,2,0,0,,4,,,64,127
25704,note_on,0,0,0,,1,,,73,127
25704,note_on,0,0,0,,2,,,38,127
25704,note_on,0,0,0,,2,,,50,127
25932,note_off,228,0,0,,1,,,73,127
25932,note_off,0,0,0,,4,,,64,127
25934,note_on,2,0,0,,2,,,62,127
25934,note_on,0,0,0,,2,,,74,127
26390,note_off,456,0,0,,2,,,74,127
26390,note_off,0,0,0,,2,,,62,127
26623,note_off,233,0,0,,2,,,50,127
26623,note_off,0,0,0,,2,,,38,127
26625,note_on,2,0,0,,2,,,74,127
26625,note_on,0,0,0,,2,,,62,127
26625,note_on,0,0,0,,2,,,50,127
26625,note_on,0,0,0,,2,,,38,127
26853,note_off,228,0,0,,2,,,62,127
26853,note_off,0,0,0,,2,,,74,127
26855,note_on,2,0,0,,2,,,62,127
26929,note_off,74,0,0,,2,,,62,127
26931,note_on,2,0,0,,1,,,61,127
27005,note_off,74,0,0,,1,,,61,127
27007,note_on,2,0,0,,2,,,62,127
27079,note_off,72,0,0,,2,,,38,127
27079,note_off,0,0,0,,2,,,50,127
27081,note_off,2,0,0,,2,,,62,127
27083,note_on,2,0,0,,6,,,66,127
27157,note_off,74,0,0,,6,,,66,127
27159,note_on,2,0,0,,4,,,64,127
27233,note_off,74,0,0,,4,,,64,127
27235,note_on,2,0,0,,6,,,66,127
27309,note_off,74,0,0,,6,,,66,127
27311,note_on,2,0,0,,6,,,66,127
27311,note_on,0,0,0,,2,,,74,127
27539,note_off,228,0,0,,2,,,74,127
27539,note_off,0,0,0,,6,,,66,127
27541,note_on,2,0,0,,4,,,64,127
27541,note_on,0,0,0,,1,,,73,127
27769,note_off,228,0,0,,1,,,73,127
27769,note_off,0,0,0,,4,,,64,127
27771,note_on,2,0,0,,3,,,75,127
27771,note_on,0,0,0,,6,,,66,127
27771,note_on,0,0,0,,10,,,57,127
27771,note_on,0,0,0,,10,,,45,127
27999,note_off,228,0,0,,10,,,45,127
27999,note_off,0,0,0,,10,,,57,127
27999,note_off,0,0,0,,6,,,66,127
27999,note_off,0,0,0,,3,,,75,127
28001,note_on,2,0,0,,7,,,67,127
28001,note_on,0,0,0,,4,,,76,127
28001,note_on,0,0,0,,7,,,55,127
28001,note_on,0,0,0,,7,,,43,127
28229,note_off,228,0,0,,7,,,43,127
28229,note_off,0,0,0,,7,,,55,127
28229,note_off,0,0,0,,4,,,76,127
28229,note_off,0,0,0,,7,,,67,127
28231,note_on,2,0,0,,6,,,78,127
28231,note_on,0,0,0,,10,,,69,127
28231,note_on,0,0,0,,6,,,54,127
28231,note_on,0,0,0,,6,,,42,127
28459,note_off,228,0,0,,6,,,42,127
28459,note_off,0,0,0,,6,,,54,127
28459,note_off,0,0,0,,10,,,69,127
28459,note_off,0,0,0,,6,,,78,127
28461,note_on,2,0,0,,12,,,71,127
28461,note_on,0,0,0,,7,,,79,127
28461,note_on,0,0,0,,4,,,52,127
28461,note_on,0,0,0,,4,,,40,127
28689,note_off,228,0,0,,7,,,79,127
28689,note_off,0,0,0,,12,,,71,127
28691,note_on,2,0,0,,4,,,64,127
28765,note_off,74,0,0,,4,,,64,127
28767,note_on,2,0,0,,3,,,63,127
28841,note_off,74,0,0,,3,,,63,127
28843,note_on,2,0,0,,4,,,64,127
28915,note_off,72,0,0,,4,,,40,127
28915,note_off,0,0,0,,4,,,52,127
28917,note_off,2,0,0,,4,,,64,127
28919,note_on,2,0,0,,7,,,67,127
28993,note_off,74,0,0,,7,,,67,127
28995,note_on,2,0,0,,6,,,66,127
29069,note_off,74,0,0,,6,,,66,127
29071,note_on,2,0,0,,7,,,67,127
29145,note_off,74,0,0,,7,,,67,127
29147,note_on,2,0,0,,7,,,67,127
29147,note_on,0,0,0,,4,,,76,127
29375,note_off,228,0,0,,4,,,76,127
29375,note_off,0,0,0,,7,,,67,127
29377,note_on,2,0,0,,6,,,66,127
29377,note_on,0,0,0,,2,,,74,127
29605,note_off,228,0,0,,2,,,74,127
29605,note_off,0,0,0,,6,,,66,127
29607,note_on,2,0,0,,8,,,68,127
29607,note_on,0,0,0,,5,,,77,127
29607,note_on,0,0,0,,12,,,59,127
29607,note_on,0,0,0,,12,,,47,127
29835,note_off,228,0,0,,12,,,47,127
29835,note_off,0,0,0,,12,,,59,127
29835,note_off,0,0,0,,5,,,77,127
29835,note_off,0,0,0,,8,,,68,127
29837,note_on,2,0,0,,10,,,69,127
29837,note_on,0,0,0,,6,,,78,127
29837,note_on,0,0,0,,10,,,45,127
29837,note_on,0,0,0,,10,,,57,127
30065,note_off,228,0,0,,10,,,57,127
30065,note_off,0,0,0,,10,,,45,127
30065,note_off,0,0,0,,6,,,78,127
30065,note_off,0,0,0,,10,,,69,127
30067,note_on,2,0,0,,12,,,71,127
30067,note_on,0,0,0,,8,,,80,127
30067,note_on,0,0,0,,8,,,56,127
30067,note_on,0,0,0,,8,,,44,127
30295,note_off,228,0,0,,8,,,44,127
30295,note_off,0,0,0,,8,,,56,127
30295,note_off,0,0,0,,8,,,80,127
30295,note_off,0,0,0,,12,,,71,127
30297,note_on,2,0,0,,10,,,81,127
30297,note_on,0,0,0,,6,,,42,127
30297,note_on,0,0,0,,6,,,54,127
30374,note_on,77,0,0,,1,,,73,127
30441,note_off,67,0,0,,10,,,81,127
30448,note_off,7,0,0,,1,,,73,127
30450,note_on,2,0,0,,10,,,81,127
30524,note_off,74,0,0,,10,,,81,127
30524,note_off,0,0,0,,6,,,54,127
30524,note_off,0,0,0,,6,,,42,127
30526,note_on,2,0,0,,8,,,80,127
30526,note_on,0,0,0,,8,,,44,127
30526,note_on,0,0,0,,8,,,56,127
30603,note_on,77,0,0,,12,,,71,127
30670,note_off,67,0,0,,8,,,80,127
30677,note_off,7,0,0,,12,,,71,127
30679,note_on,2,0,0,,8,,,80,127
30753,note_off,74,0,0,,8,,,80,127
30753,note_off,0,0,0,,8,,,56,127
30753,note_off,0,0,0,,8,,,44,127
30755,note_on,2,0,0,,6,,,78,127
30755,note_on,0,0,0,,10,,,57,127
30755,note_on,0,0,0,,10,,,45,127
30832,note_on,77,0,0,,10,,,69,127
30899,note_off,67,0,0,,6,,,78,127
30906,note_off,7,0,0,,10,,,69,127
30908,note_on,2,0,0,,6,,,78,127
30982,note_off,74,0,0,,6,,,78,127
30982,note_off,0,0,0,,10,,,45,127
30982,note_off,0,0,0,,10,,,57,127
30984,note_on,2,0,0,,4,,,76,127
30984,note_on,0,0,0,,11,,,58,127
30984,note_on,0,0,0,,11,,,46,127
31061,note_on,77,0,0,,7,,,67,127
31128,note_off,67,0,0,,4,,,76,127
31135,note_off,7,0,0,,7,,,67,127
31137,note_on,2,0,0,,4,,,76,127
31211,note_off,74,0,0,,4,,,76,127
31211,note_off,0,0,0,,11,,,46,127
31211,note_off,0,0,0,,11,,,58,127
31213,note_on,2,0,0,,2,,,74,127
31213,note_on,0,0,0,,12,,,47,127
31213,note_on,0,0,0,,12,,,59,127
31290,note_on,77,0,0,,6,,,66,127
31357,note_off,67,0,0,,2,,,74,127
31364,note_off,7,0,0,,6,,,66,127
31366,note_on,2,0,0,,2,,,74,127
31440,note_off,74,0,0,,2,,,74,127
31440,note_off,0,0,0,,12,,,59,127
31440,note_off,0,0,0,,12,,,47,127
31442,note_on,2,0,0,,1,,,73,127
31442,note_on,0,0,0,,1,,,61,127
31442,note_on,0,0,0,,1,,,49,127
31519,note_on,77,0,0,,5,,,65,127
31586,note_off,67,0,0,,1,,,73,127
31593,note_off,7,0,0,,5,,,65,127
31595,note_on,2,0,0,,1,,,73,127
31669,note_off,74,0,0,,1,,,73,127
31669,note_off,0,0,0,,1,,,49,127
31669,note_off,0,0,0,,1,,,61,127
31671,note_on,2,0,0,,12,,,71,127
31671,note_on,0,0,0,,2,,,62,127
31671,note_on,0,0,0,,2,,,50,127
31745,note_off,74,0,0,,12,,,71,127
31747,note_on,2,0,0,,10,,,69,127
31821,note_off,74,0,0,,10,,,69,127
31823,note_on,2,0,0,,8,,,68,127
31897,note_off,74,0,0,,8,,,68,127
31897,note_off,0,0,0,,2,,,50,127
31897,note_off,0,0,0,,2,,,62,127
31899,note_on,2,0,0,,6,,,66,127
31899,note_on,0,0,0,,2,,,62,127
31899,note_on,0,0,0,,2,,,50,127
31973,note_off,74,0,0,,6,,,66,127
31975,note_on,2,0,0,,5,,,65,127
32049,note_off,74,0,0,,5,,,65,127
32051,note_on,2,0,0,,6,,,66,127
32125,note_off,74,0,0,,6,,,66,127
32125,note_off,0,0,0,,2,,,50,127
32125,note_off,0,0,0,,2,,,62,127
32127,note_on,2,0,0,,5,,,65,127
32127,note_on,0,0,0,,1,,,61,127
32127,note_on,0,0,0,,1,,,49,127
32240,note_off,113,0,0,,5,,,65,127
32242,note_on,2,0,0,,1,,,73,127
32355,note_off,113,0,0,,1,,,73,127
32357,note_on,2,0,0,,12,,,71,127
32470,note_off,113,0,0,,12,,,71,127
32472,note_on,2,0,0,,1,,,73,127
32585,note_off,113,0,0,,1,,,73,127
32587,note_on,2,0,0,,2,,,74,127
32700,note_off,113,0,0,,2,,,74,127
32702,note_on,2,0,0,,12,,,71,127
32815,note_off,113,0,0,,12,,,71,127
32815,note_off,0,0,0,,1,,,49,127
32815,note_off,0,0,0,,1,,,61,127
32817,note_on,2,0,0,,10,,,69,127
32817,note_on,0,0,0,,5,,,65,127
32817,note_on,0,0,0,,1,,,61,127
32930,note_off,113,0,0,,10,,,69,127
32932,note_on,2,0,0,,8,,,68,127
33045,note_off,113,0,0,,8,,,68,127
33045,note_off,0,0,0,,1,,,61,127
33045,note_off,0,0,0,,5,,,65,127
33047,note_on,2,0,0,,10,,,69,127
33047,note_on,0,0,0,,1,,,61,127
33047,note_on,0,0,0,,6,,,66,127
33160,note_off,113,0,0,,10,,,69,127
33162,note_on,2,0,0,,1,,,73,127
33275,note_off,113,0,0,,1,,,73,127
33275,note_off,0,0,0,,6,,,66,127
33277,note_on,2,0,0,,12,,,71,127
33277,note_on,0,0,0,,5,,,65,127
33390,note_off,113,0,0,,12,,,71,127
33392,note_on,2,0,0,,1,,,73,127
33502,note_off,110,0,0,,1,,,61,127
33504,note_off,2,0,0,,1,,,73,127
33506,note_on,2,0,0,,2,,,74,127
33619,note_off,113,0,0,,2,,,74,127
33621,note_off,2,0,0,,5,,,65,127
33621,note_on,0,0,0,,12,,,71,127
33734,note_off,113,0,0,,12,,,71,127
33736,note_on,2,0,0,,10,,,69,127
33736,note_on,0,0,0,,1,,,61,127
33736,note_on,0,0,0,,5,,,65,127
33849,note_off,113,0,0,,10,,,69,127
33851,note_on,2,0,0,,8,,,68,127
33964,note_off,113,0,0,,8,,,68,127
33964,note_off,0,0,0,,5,,,65,127
33964,note_off,0,0,0,,1,,,61,127
33966,note_on,2,0,0,,10,,,69,127
33966,note_on,0,0,0,,6,,,66,127
33966,note_on,0,0,0,,1,,,61,127
34079,note_off,113,0,0,,10,,,69,127
34081,note_on,2,0,0,,1,,,73,127
34194,note_off,113,0,0,,1,,,73,127
34194,note_off,0,0,0,,6,,,66,127
34196,note_on,2,0,0,,12,,,71,127
34196,note_on,0,0,0,,4,,,64,127
34309,note_off,113,0,0,,12,,,71,127
34311,note_on,2,0,0,,1,,,73,127
34421,note_off,110,0,0,,1,,,61,127
34423,note_off,2,0,0,,1,,,73,127
34423,note_off,0,0,0,,4,,,64,127
34425,note_on,2,0,0,,4,,,76,127
34538,note_off,113,0,0,,4,,,76,127
34540,note_on,2,0,0,,1,,,73,127
34653,note_off,113,0,0,,1,,,73,127
34655,note_on,2,0,0,,12,,,71,127
34655,note_on,0,0,0,,4,,,64,127
34655,note_on,0,0,0,,7,,,67,127
34655,note_on,0,0,0,,1,,,61,127
34768,note_off,113,0,0,,12,,,71,127
34770,note_on,2,0,0,,11,,,70,127
34883,note_off,113,0,0,,11,,,70,127
34883,note_off,0,0,0,,1,,,61,127
34883,note_off,0,0,0,,7,,,67,127
34883,note_off,0,0,0,,4,,,64,127
34885,note_on,2,0,0,,11,,,70,127
34885,note_on,0,0,0,,2,,,62,127
34885,note_on,0,0,0,,6,,,66,127
34998,note_off,113,0,0,,11,,,70,127
35000,note_on,2,0,0,,12,,,71,127
35113,note_off,113,0,0,,12,,,71,127
35113,note_off,0,0,0,,6,,,66,127
35113,note_off,0,0,0,,2,,,62,127
35115,note_on,2,0,0,,11,,,70,127
35115,note_on,0,0,0,,1,,,61,127
35115,note_on,0,0,0,,4,,,64,127
35228,note_off,113,0,0,,11,,,70,127
35230,note_on,2,0,0,,12,,,71,127
35343,note_off,113,0,0,,12,,,71,127
35343,note_off,0,0,0,,4,,,64,127
35343,note_off,0,0,0,,1,,,61,127
35345,note_on,2,0,0,,4,,,76,127
35458,note_off,113,0,0,,4,,,76,127
35460,note_on,2,0,0,,1,,,73,127
35573,note_off,113,0,0,,1,,,73,127
35575,note_on,2,0,0,,12,,,71,127
35575,note_on,0,0,0,,4,,,64,127
35575,note_on,0,0,0,,7,,,67,127
35575,note_on,0,0,0,,1,,,61,127
35688,note_off,113,0,0,,12,,,71,127
35690,note_on,2,0,0,,11,,,70,127
35803,note_off,113,0,0,,11,,,70,127
35803,note_off,0,0,0,,1,,,61,127
35803,note_off,0,0,0,,7,,,67,127
35803,note_off,0,0,0,,4,,,64,127
35805,note_on,2,0,0,,12,,,71,127
35805,note_on,0,0,0,,2,,,62,127
35805,note_on,0,0,0,,6,,,66,127
35918,note_off,113,0,0,,12,,,71,127
35920,note_on,2,0,0,,6,,,78,127
36033,note_off,113,0,0,,6,,,78,127
36033,note_off,0,0,0,,6,,,66,127
36033,note_off,0,0,0,,2,,,62,127
36035,note_on,2,0,0,,4,,,76,127
36035,note_on,0,0,0,,2,,,62,127
36035,note_on,0,0,0,,12,,,59,127
36148,note_off,113,0,0,,4,,,76,127
36150,note_on,2,0,0,,6,,,78,127
36263,note_off,113,0,0,,6,,,78,127
36263,note_off,0,0,0,,12,,,59,127
36263,note_off,0,0,0,,2,,,62,127
36265,note_on,2,0,0,,7,,,79,127
36378,note_off,113,0,0,,7,,,79,127
36380,note_on,2,0,0,,4,,,76,127
36493,note_off,113,0,0,,4,,,76,127
36495,note_on,2,0,0,,2,,,74,127
36495,note_on,0,0,0,,11,,,58,127
36495,note_on,0,0,0,,1,,,61,127
36608,note_off,113,0,0,,2,,,74,127
36610,note_on,2,0,0,,1,,,73,127
36723,note_off,113,0,0,,1,,,73,127
36723,note_off,0,0,0,,1,,,61,127
36723,note_off,0,0,0,,11,,,58,127
36725,note_on,2,0,0,,2,,,74,127
36725,note_on,0,0,0,,12,,,59,127
36725,note_on,0,0,0,,2,,,62,127
36838,note_off,113,0,0,,2,,,74,127
36840,note_on,2,0,0,,6,,,78,127
36953,note_off,113,0,0,,6,,,78,127
36953,note_off,0,0,0,,2,,,62,127
36953,note_off,0,0,0,,12,,,59,127
36955,note_on,2,0,0,,4,,,76,127
36955,note_on,0,0,0,,1,,,61,127
36955,note_on,0,0,0,,11,,,58,127
37068,note_off,113,0,0,,4,,,76,127
37070,note_on,2,0,0,,6,,,78,127
37183,note_off,113,0,0,,6,,,78,127
37183,note_off,0,0,0,,11,,,58,127
37183,note_off,0,0,0,,1,,,61,127
37185,note_on,2,0,0,,7,,,79,127
37298,note_off,113,0,0,,7,,,79,127
37300,note_on,2,0,0,,4,,,76,127
37413,note_off,113,0,0,,4,,,76,127
37415,note_on,2,0,0,,2,,,74,127
37415,note_on,0,0,0,,11,,,58,127
37415,note_on,0,0,0,,1,,,61,127
37528,note_off,113,0,0,,2,,,74,127
37530,note_on,2,0,0,,1,,,73,127
37643,note_off,113,0,0,,1,,,73,127
37643,note_off,0,0,0,,1,,,61,127
37643,note_off,0,0,0,,11,,,58,127
37645,note_on,2,0,0,,2,,,74,127
37645,note_on,0,0,0,,12,,,59,127
37758,note_off,113,0,0,,12,,,59,127
37760,note_on,2,0,0,,11,,,58,127
37873,note_off,113,0,0,,11,,,58,127
37873,note_off,0,0,0,,2,,,74,127
37875,note_on,2,0,0,,4,,,76,127
37875,note_on,0,0,0,,1,,,61,127
37988,note_off,113,0,0,,1,,,61,127
37990,note_on,2,0,0,,12,,,59,127
38103,note_off,113,0,0,,12,,,59,127
38103,note_off,0,0,0,,4,,,76,127
38105,note_on,2,0,0,,6,,,78,127
38105,note_on,0,0,0,,2,,,62,127
38218,note_off,113,0,0,,2,,,62,127
38220,note_on,2,0,0,,1,,,61,127
38333,note_off,113,0,0,,1,,,61,127
38333,note_off,0,0,0,,6,,,78,127
38335,note_on,2,0,0,,7,,,79,127
38335,note_on,0,0,0,,4,,,64,127
38448,note_off,113,0,0,,4,,,64,127
38450,note_on,2,0,0,,2,,,62,127
38563,note_off,113,0,0,,2,,,62,127
38563,note_off,0,0,0,,7,,,79,127
38565,note_on,2,0,0,,6,,,78,127
38565,note_on,0,0,0,,6,,,66,127
38678,note_off,113,0,0,,6,,,66,127
38680,note_on,2,0,0,,4,,,64,127
38793,note_off,113,0,0,,4,,,64,127
38793,note_off,0,0,0,,6,,,78,127
38795,note_on,2,0,0,,4,,,76,127
38795,note_on,0,0,0,,7,,,67,127
38908,note_off,113,0,0,,7,,,67,127
38910,note_on,2,0,0,,6,,,66,127
39023,note_off,113,0,0,,6,,,66,127
39025,note_on,2,0,0,,11,,,70,127
39138,note_off,113,0,0,,11,,,70,127
39140,note_on,2,0,0,,6,,,66,127
39253,note_off,113,0,0,,6,,,66,127
39253,note_off,0,0,0,,4,,,76,127
39255,note_on,2,0,0,,2,,,74,127
39255,note_on,0,0,0,,12,,,71,127
39368,note_off,113,0,0,,12,,,71,127
39370,note_on,2,0,0,,12,,,59,127
39483,note_off,113,0,0,,12,,,59,127
39483,note_off,0,0,0,,2,,,74,127
39485,note_on,2,0,0,,1,,,73,127
39485,note_on,0,0,0,,6,,,54,127
39598,note_off,113,0,0,,1,,,73,127
39600,note_on,2,0,0,,12,,,71,127
39713,note_off,113,0,0,,12,,,71,127
39715,note_on,2,0,0,,11,,,70,127
39828,note_off,113,0,0,,11,,,70,127
39830,note_on,2,0,0,,8,,,68,127
39943,note_off,113,0,0,,8,,,68,127
39945,note_on,2,0,0,,6,,,66,127
40058,note_off,113,0,0,,6,,,66,127
40058,note_off,0,0,0,,6,,,54,127
40060,note_on,2,0,0,,4,,,64,127
40173,note_off,113,0,0,,4,,,64,127
40175,note_on,2,0,0,,2,,,62,127
40288,note_off,113,0,0,,2,,,62,127
40290,note_on,2,0,0,,1,,,61,127
40403,note_off,113,0,0,,1,,,61,127
40405,note_on,2,0,0,,12,,,59,127
40520,note_on,115,0,0,,12,,,71,127
40633,note_off,113,0,0,,12,,,71,127
40635,note_on,2,0,0,,11,,,70,127
40748,note_off,113,0,0,,11,,,70,127
40750,note_on,2,0,0,,12,,,71,127
40860,note_off,110,0,0,,12,,,59,127
40862,note_off,2,0,0,,12,,,71,127
40864,note_on,2,0,0,,4,,,76,127
40977,note_off,113,0,0,,4,,,76,127
40979,note_on,2,0,0,,1,,,73,127
41092,note_off,113,0,0,,1,,,73,127
41094,note_on,2,0,0,,12,,,71,127
41094,note_on,0,0,0,,1,,,61,127
41094,note_on,0,0,0,,4,,,64,127
41207,note_off,113,0,0,,12,,,71,127
41209,note_on,2,0,0,,11,,,70,127
41322,note_off,113,0,0,,11,,,70,127
41322,note_off,0,0,0,,4,,,64,127
41322,note_off,0,0,0,,1,,,61,127
41324,note_on,2,0,0,,11,,,70,127
41324,note_on,0,0,0,,2,,,62,127
41437,note_off,113,0,0,,11,,,70,127
41439,note_on,2,0,0,,12,,,71,127
41552,note_off,113,0,0,,12,,,71,127
41552,note_off,0,0,0,,2,,,62,127
41554,note_on,2,0,0,,11,,,70,127
41554,note_on,0,0,0,,12,,,59,127
41667,note_off,113,0,0,,11,,,70,127
41669,note_on,2,0,0,,12,,,71,127
41782,note_off,113,0,0,,12,,,71,127
41782,note_off,0,0,0,,12,,,59,127
41784,note_on,2,0,0,,4,,,76,127
41897,note_off,113,0,0,,4,,,76,127
41899,note_on,2,0,0,,1,,,73,127
42012,note_off,113,0,0,,1,,,73,127
42014,note_on,2,0,0,,12,,,71,127
42014,note_on,0,0,0,,1,,,61,127
42014,note_on,0,0,0,,4,,,64,127
42127,note_off,113,0,0,,12,,,71,127
42129,note_on,2,0,0,,11,,,70,127
42242,note_off,113,0,0,,11,,,70,127
42242,note_off,0,0,0,,4,,,64,127
42242,note_off,0,0,0,,1,,,61,127
42244,note_on,2,0,0,,12,,,71,127
42244,note_on,0,0,0,,2,,,62,127
42357,note_off,113,0,0,,2,,,62,127
42359,note_on,2,0,0,,12,,,59,127
42472,note_off,113,0,0,,12,,,59,127
42474,note_on,2,0,0,,11,,,58,127
42587,note_off,113,0,0,,11,,,58,127
42589,note_on,2,0,0,,12,,,59,127
42699,note_off,110,0,0,,12,,,71,127
42701,note_off,2,0,0,,12,,,59,127
42703,note_on,2,0,0,,4,,,64,127
42816,note_off,113,0,0,,4,,,64,127
42818,note_on,2,0,0,,1,,,61,127
42931,note_off,113,0,0,,1,,,61,127
42933,note_on,2,0,0,,4,,,76,127
42933,note_on,0,0,0,,12,,,59,127
43046,note_off,113,0,0,,12,,,59,127
43048,note_on,2,0,0,,11,,,58,127
43161,note_off,113,0,0,,11,,,58,127
43161,note_off,0,0,0,,4,,,76,127
43163,note_on,2,0,0,,2,,,74,127
43163,note_on,0,0,0,,11,,,58,127
43276,note_off,113,0,0,,11,,,58,127
43278,note_on,2,0,0,,12,,,59,127
43391,note_off,113,0,0,,12,,,59,127
43393,note_on,2,0,0,,11,,,58,127
43506,note_off,113,0,0,,11,,,58,127
43508,note_on,2,0,0,,12,,,59,127
43618,note_off,110,0,0,,2,,,74,127
43620,note_off,2,0,0,,12,,,59,127
43622,note_on,2,0,0,,4,,,64,127
43735,note_off,113,0,0,,4,,,64,127
43737,note_on,2,0,0,,1,,,61,127
43850,note_off,113,0,0,,1,,,61,127
43852,note_on,2,0,0,,4,,,76,127
43852,note_on,0,0,0,,12,,,59,127
43965,note_off,113,0,0,,12,,,59,127
43967,note_on,2,0,0,,11,,,58,127
44080,note_off,113,0,0,,11,,,58,127
44080,note_off,0,0,0,,4,,,76,127
44082,note_on,2,0,0,,2,,,74,127
44082,note_on,0,0,0,,12,,,59,127
44310,note_off,228,0,0,,12,,,59,127
44310,note_off,0,0,0,,2,,,74,127
44312,note_on,2,0,0,,12,,,83,127
44312,note_on,0,0,0,,12,,,71,127
44386,note_off,74,0,0,,12,,,83,127
44388,note_on,2,0,0,,11,,,82,127
44462,note_off,74,0,0,,11,,,82,127
44464,note_on,2,0,0,,12,,,83,127
44538,note_off,74,0,0,,12,,,83,127
44538,note_off,0,0,0,,12,,,71,127
44540,note_on,2,0,0,,6,,,78,127
44540,note_on,0,0,0,,11,,,70,127
44614,note_off,74,0,0,,6,,,78,127
44616,note_on,2,0,0,,4,,,76,127
44690,note_off,74,0,0,,4,,,76,127
44692,note_on,2,0,0,,6,,,78,127
44766,note_off,74,0,0,,6,,,78,127
44766,note_off,0,0,0,,11,,,70,127
44768,note_on,2,0,0,,1,,,73,127
44768,note_on,0,0,0,,6,,,66,127
44842,note_off,74,0,0,,1,,,73,127
44844,note_on,2,0,0,,2,,,74,127
44918,note_off,74,0,0,,2,,,74,127
44920,note_on,2,0,0,,4,,,76,127
44994,note_off,74,0,0,,4,,,76,127
44994,note_off,0,0,0,,6,,,66,127
44996,note_on,2,0,0,,2,,,74,127
44996,note_on,0,0,0,,12,,,59,127
45224,note_off,228,0,0,,12,,,59,127
45224,note_off,0,0,0,,2,,,74,127
45226,note_on,2,0,0,,12,,,71,127
45300,note_off,74,0,0,,12,,,71,127
45302,note_on,2,0,0,,11,,,70,127
45376,note_off,74,0,0,,11,,,70,127
45378,note_on,2,0,0,,12,,,71,127
45452,note_off,74,0,0,,12,,,71,127
45454,note_on,2,0,0,,6,,,66,127
45528,note_off,74,0,0,,6,,,66,127
45530,note_on,2,0,0,,4,,,64,127
45604,note_off,74,0,0,,4,,,64,127
45606,note_on,2,0,0,,6,,,66,127
45680,note_off,74,0,0,,6,,,66,127
45682,note_on,2,0,0,,1,,,61,127
45756,note_off,74,0,0,,1,,,61,127
45758,note_on,2,0,0,,2,,,62,127
45832,note_off,74,0,0,,2,,,62,127
45834,note_on,2,0,0,,4,,,64,127
45908,note_off,74,0,0,,4,,,64,127
45910,note_on,2,0,0,,2,,,62,127
46138,note_off,228,0,0,,2,,,62,127
46140,note_on,2,0,0,,12,,,83,127
46140,note_on,0,0,0,,12,,,59,127
46214,note_off,74,0,0,,12,,,83,127
46216,note_on,2,0,0,,11,,,82,127
46290,note_off,74,0,0,,11,,,82,127
46292,note_on,2,0,0,,12,,,83,127
46366,note_off,74,0,0,,12,,,83,127
46366,note_off,0,0,0,,12,,,59,127
46368,note_on,2,0,0,,6,,,78,127
46368,note_on,0,0,0,,11,,,58,127
46442,note_off,74,0,0,,6,,,78,127
46444,note_on,2,0,0,,4,,,76,127
46518,note_off,74,0,0,,4,,,76,127
46520,note_on,2,0,0,,6,,,78,127
46594,note_off,74,0,0,,6,,,78,127
46594,note_off,0,0,0,,11,,,58,127
46596,note_on,2,0,0,,1,,,73,127
46596,note_on,0,0,0,,6,,,54,127
46670,note_off,74,0,0,,1,,,73,127
46672,note_on,2,0,0,,2,,,74,127
46746,note_off,74,0,0,,2,,,74,127
46748,note_on,2,0,0,,4,,,76,127
46822,note_off,74,0,0,,4,,,76,127
46822,note_off,0,0,0,,6,,,54,127
46824,note_on,2,0,0,,2,,,74,127
46824,note_on,0,0,0,,12,,,59,127
46898,note_off,74,0,0,,2,,,74,127
46900,note_on,2,0,0,,4,,,76,127
46974,note_off,74,0,0,,4,,,76,127
46976,note_on,2,0,0,,6,,,78,127
47050,note_off,74,0,0,,6,,,78,127
47050,note_off,0,0,0,,12,,,59,127
47052,note_on,2,0,0,,4,,,76,127
47052,note_on,0,0,0,,4,,,52,127
47126,note_off,74,0,0,,4,,,76,127
47128,note_on,2,0,0,,2,,,74,127
47202,note_off,74,0,0,,2,,,74,127
47204,note_on,2,0,0,,1,,,73,127
47278,note_off,74,0,0,,1,,,73,127
47278,note_off,0,0,0,,4,,,52,127
47280,note_on,2,0,0,,12,,,71,127
47280,note_on,0,0,0,,6,,,54,127
47508,note_off,228,0,0,,6,,,54,127
47508,note_off,0,0,0,,12,,,71,127
47510,note_on,2,0,0,,11,,,70,127
47510,note_on,0,0,0,,6,,,42,127
47738,note_off,228,0,0,,6,,,42,127
47738,note_off,0,0,0,,11,,,70,127
47740,note_on,2,0,0,,12,,,71,127
47740,note_on,0,0,0,,12,,,47,127
47968,note_off,228,0,0,,12,,,47,127
47968,note_off,0,0,0,,12,,,71,127
47970,note_on,2,0,0,,2,,,74,127
47970,note_on,0,0,0,,12,,,71,127
48044,note_off,74,0,0,,12,,,71,127
48046,note_on,2,0,0,,11,,,70,127
48120,note_off,74,0,0,,11,,,70,127
48122,note_on,2,0,0,,12,,,71,127
48196,note_off,74,0,0,,12,,,71,127
48196,note_off,0,0,0,,2,,,74,127
48198,note_on,2,0,0,,1,,,73,127
48198,note_on,0,0,0,,6,,,66,127
48272,note_off,74,0,0,,6,,,66,127
48274,note_on,2,0,0,,4,,,64,127
48348,note_off,74,0,0,,4,,,64,127
48350,note_on,2,0,0,,6,,,66,127
48424,note_off,74,0,0,,6,,,66,127
48424,note_off,0,0,0,,1,,,73,127
48426,note_on,2,0,0,,12,,,71,127
48426,note_on,0,0,0,,12,,,59,127
48500,note_off,74,0,0,,12,,,59,127
48502,note_on,2,0,0,,11,,,58,127
48576,note_off,74,0,0,,11,,,58,127
48578,note_on,2,0,0,,12,,,59,127
48652,note_off,74,0,0,,12,,,59,127
48652,note_off,0,0,0,,12,,,71,127
48654,note_on,2,0,0,,1,,,73,127
48654,note_on,0,0,0,,6,,,54,127
48882,note_off,228,0,0,,6,,,54,127
48882,note_off,0,0,0,,1,,,73,127
48884,note_on,2,0,0,,4,,,76,127
48884,note_on,0,0,0,,1,,,73,127
48884,note_on,0,0,0,,6,,,66,127
48958,note_off,74,0,0,,6,,,66,127
48960,note_on,2,0,0,,4,,,64,127
49034,note_off,74,0,0,,4,,,64,127
49036,note_on,2,0,0,,6,,,66,127
49110,note_off,74,0,0,,6,,,66,127
49110,note_off,0,0,0,,1,,,73,127
49110,note_off,0,0,0,,4,,,76,127
49112,note_on,2,0,0,,2,,,74,127
49112,note_on,0,0,0,,12,,,71,127
49112,note_on,0,0,0,,12,,,59,127
49186,note_off,74,0,0,,12,,,59,127
49188,note_on,2,0,0,,11,,,58,127
49262,note_off,74,0,0,,11,,,58,127
49264,note_on,2,0,0,,12,,,59,127
49338,note_off,74,0,0,,12,,,59,127
49338,note_off,0,0,0,,12,,,71,127
49338,note_off,0,0,0,,2,,,74,127
49340,note_on,2,0,0,,1,,,73,127
49340,note_on,0,0,0,,11,,,70,127
49340,note_on,0,0,0,,6,,,54,127
49414,note_off,74,0,0,,6,,,54,127
49416,note_on,2,0,0,,4,,,52,127
49490,note_off,74,0,0,,4,,,52,127
49492,note_on,2,0,0,,6,,,54,127
49566,note_off,74,0,0,,6,,,54,127
49566,note_off,0,0,0,,11,,,70,127
49566,note_off,0,0,0,,1,,,73,127
49568,note_on,2,0,0,,12,,,71,127
49568,note_on,0,0,0,,12,,,47,127
49796,note_off,228,0,0,,12,,,47,127
49796,note_off,0,0,0,,12,,,71,127
49798,note_on,2,0,0,,2,,,74,127
49798,note_on,0,0,0,,12,,,59,127
49872,note_off,74,0,0,,12,,,59,127
49874,note_on,2,0,0,,11,,,58,127
49948,note_off,74,0,0,,11,,,58,127
49950,note_on,2,0,0,,12,,,59,127
50024,note_off,74,0,0,,12,,,59,127
50024,note_off,0,0,0,,2,,,74,127
50026,note_on,2,0,0,,1,,,73,127
50026,note_on,0,0,0,,6,,,54,127
50100,note_off,74,0,0,,6,,,54,127
50102,note_on,2,0,0,,4,,,52,127
50176,note_off,74,0,0,,4,,,52,127
50178,note_on,2,0,0,,6,,,54,127
50252,note_off,74,0,0,,6,,,54,127
50252,note_off,0,0,0,,1,,,73,127
50254,note_on,2,0,0,,12,,,71,127
50254,note_on,0,0,0,,12,,,47,127
50328,note_off,74,0,0,,12,,,47,127
50330,note_on,2,0,0,,11,,,46,127
50404,note_off,74,0,0,,11,,,46,127
50406,note_on,2,0,0,,12,,,47,127
50480,note_off,74,0,0,,12,,,47,127
50480,note_off,0,0,0,,12,,,71,127
50482,note_on,2,0,0,,1,,,73,127
50482,note_on,0,0,0,,6,,,42,127
50710,note_off,228,0,0,,6,,,42,127
50710,note_off,0,0,0,,1,,,73,127
50712,note_on,2,0,0,,1,,,73,127
50712,note_on,0,0,0,,4,,,76,127
50712,note_on,0,0,0,,6,,,54,127
50786,note_off,74,0,0,,6,,,54,127
50788,note_on,2,0,0,,4,,,52,127
50862,note_off,74,0,0,,4,,,52,127
50864,note_on,2,0,0,,6,,,54,127
50938,note_off,74,0,0,,6,,,54,127
50938,note_off,0,0,0,,4,,,76,127
50938,note_off,0,0,0,,1,,,73,127
50940,note_on,2,0,0,,2,,,74,127
50940,note_on,0,0,0,,12,,,71,127
50940,note_on,0,0,0,,12,,,47,127
51014,note_off,74,0,0,,12,,,47,127
51016,note_on,2,0,0,,11,,,46,127
51090,note_off,74,0,0,,11,,,46,127
51092,note_on,2,0,0,,12,,,47,127
51166,note_off,74,0,0,,12,,,47,127
51166,note_off,0,0,0,,12,,,71,127
51166,note_off,0,0,0,,2,,,74,127
51168,note_on,2,0,0,,11,,,70,127
51168,note_on,0,0,0,,1,,,73,127
51168,note_on,0,0,0,,6,,,42,127
51242,note_off,74,0,0,,6,,,42,127
51244,note_on,2,0,0,,4,,,40,127
51318,note_off,74,0,0,,4,,,40,127
51320,note_on,2,0,0,,6,,,42,127
51394,note_off,74,0,0,,6,,,42,127
51394,note_off,0,0,0,,1,,,73,127
51394,note_off,0,0,0,,11,,,70,127
51396,note_on,2,0,0,,12,,,71,127
51396,note_on,0,0,0,,2,,,74,127
51396,note_on,0,0,0,,12,,,47,127
51470,note_off,74,0,0,,2,,,74,127
51472,note_on,2,0,0,,4,,,76,127
51546,note_off,74,0,0,,4,,,76,127
51548,note_on,2,0,0,,6,,,78,127
51622,note_off,74,0,0,,6,,,78,127
51622,note_off,0,0,0,,12,,,47,127
51622,note_off,0,0,0,,12,,,71,127
51624,note_on,2,0,0,,4,,,76,127
51624,note_on,0,0,0,,4,,,52,127
51698,note_off,74,0,0,,4,,,76,127
51700,note_on,2,0,0,,2,,,74,127
51774,note_off,74,0,0,,2,,,74,127
51776,note_on,2,0,0,,1,,,73,127
51850,note_off,74,0,0,,1,,,73,127
51850,note_off,0,0,0,,4,,,52,127
51852,note_on,2,0,0,,12,,,71,127
51852,note_on,0,0,0,,6,,,54,127
52080,note_off,228,0,0,,6,,,54,127
52080,note_off,0,0,0,,12,,,71,127
52082,note_on,2,0,0,,11,,,70,127
52082,note_on,0,0,0,,6,,,42,127
52310,note_off,228,0,0,,6,,,42,127
52310,note_off,0,0,0,,11,,,70,127
52312,note_on,2,0,0,,12,,,71,127
52312,note_on,0,0,0,,7,,,55,127
52389,note_on,77,0,0,,4,,,64,127
52463,note_off,74,0,0,,4,,,64,127
52465,note_on,2,0,0,,6,,,66,127
52539,note_off,74,0,0,,6,,,66,127
52539,note_off,0,0,0,,7,,,55,127
52541,note_on,2,0,0,,7,,,67,127
52541,note_on,0,0,0,,4,,,52,127
52615,note_off,74,0,0,,7,,,67,127
52617,note_on,2,0,0,,6,,,66,127
52691,note_off,74,0,0,,6,,,66,127
52693,note_on,2,0,0,,4,,,64,127
52765,note_off,72,0,0,,12,,,71,127
52767,note_off,2,0,0,,4,,,64,127
52767,note_off,0,0,0,,4,,,52,127
52769,note_on,2,0,0,,12,,,71,127
52769,note_on,0,0,0,,2,,,62,127
52769,note_on,0,0,0,,6,,,54,127
52997,note_off,228,0,0,,6,,,54,127
52997,note_off,0,0,0,,2,,,62,127
52997,note_off,0,0,0,,12,,,71,127
52999,note_on,2,0,0,,1,,,61,127
52999,note_on,0,0,0,,11,,,70,127
52999,note_on,0,0,0,,6,,,42,127
53227,note_off,228,0,0,,6,,,42,127
53227,note_off,0,0,0,,11,,,70,127
53227,note_off,0,0,0,,1,,,61,127
53229,note_on,2,0,0,,1,,,61,127
53229,note_on,0,0,0,,11,,,70,127
53229,note_on,0,0,0,,12,,,47,127
53805,note_off,576,0,0,,11,,,70,127
53805,note_off,0,0,0,,1,,,61,127
53805,note_on,0,0,0,,12,,,71,127
53805,note_on,0,0,0,,12,,,59,127
54842,note_off,1037,0,0,,12,,,59,127
54842,note_off,0,0,0,,12,,,71,127
54842,note_off,0,0,0,,12,,,47,127
55296,end_of_track,454,1,0,,,,,,
