tick,type,time,meta,track,program,channel,pitch,tempo,note,velocity
0,copyright,0,1,0,,,,,,
0,program_change,0,0,0,6,0,,,,
0,pitchwheel,0,0,0,,0,0,,,
0,program_change,0,0,0,6,1,,,,
0,pitchwheel,0,0,0,,1,-590,,,
0,program_change,0,0,0,6,2,,,,
0,pitchwheel,0,0,0,,2,-272,,,
0,program_change,0,0,0,6,3,,,,
0,pitchwheel,0,0,0,,3,-353,,,
0,program_change,0,0,0,6,4,,,,
0,pitchwheel,0,0,0,,4,-560,,,
0,program_change,0,0,0,6,5,,,,
0,pitchwheel,0,0,0,,5,-80,,,
0,program_change,0,0,0,6,6,,,,
0,pitchwheel,0,0,0,,6,-625,,,
0,program_change,0,0,0,6,7,,,,
0,pitchwheel,0,0,0,,7,-130,,,
0,program_change,0,0,0,6,8,,,,
0,pitchwheel,0,0,0,,8,-512,,,
0,program_change,0,0,0,6,10,,,,
0,pitchwheel,0,0,0,,10,-464,,,
0,program_change,0,0,0,6,11,,,,
0,pitchwheel,0,0,0,,11,-208,,,
0,program_change,0,0,0,6,12,,,,
0,pitchwheel,0,0,0,,12,-553,,,
0,set_tempo,0,1,0,,,,500000,,
24,note_on,24,0,0,,12,,,47,127
24,note_on,0,0,0,,2,,,74,127
24,note_on,0,0,0,,2,,,86,127
167,note_off,143,0,0,,12,,,47,127
168,note_on,1,0,0,,12,,,59,127
311,note_off,143,0,0,,12,,,59,127
312,note_on,1,0,0,,12,,,71,127
455,note_off,143,0,0,,12,,,71,127
455,note_off,0,0,0,,2,,,86,127
455,note_off,0,0,0,,2,,,74,127
456,note_on,1,0,0,,10,,,45,127
456,note_on,0,0,0,,1,,,85,127
456,note_on,0,0,0,,1,,,73,127
599,note_off,143,0,0,,10,,,45,127
600,note_on,1,0,0,,10,,,57,127
743,note_off,143,0,0,,10,,,57,127
744,note_on,1,0,0,,10,,,69,127
887,note_off,143,0,0,,10,,,69,127
887,note_off,0,0,0,,1,,,73,127
887,note_off,0,0,0,,1,,,85,127
888,note_on,1,0,0,,7,,,43,127
888,note_on,0,0,0,,12,,,83,127
888,note_on,0,0,0,,12,,,71,127
1031,note_off,143,0,0,,7,,,43,127
1032,note_on,1,0,0,,7,,,55,127
1175,note_off,143,0,0,,7,,,55,127
1176,note_on,1,0,0,,7,,,67,127
1319,note_off,143,0,0,,7,,,67,127
1319,note_off,0,0,0,,12,,,71,127
1319,note_off,0,0,0,,12,,,83,127
1320,note_on,1,0,0,,6,,,42,127
1320,note_on,0,0,0,,11,,,82,127
1463,note_off,143,0,0,,11,,,82,127
1464,note_on,1,0,0,,7,,,79,127
1607,note_off,143,0,0,,7,,,79,127
1608,note_on,1,0,0,,6,,,78,127
1751,note_off,143,0,0,,6,,,78,127
1751,note_off,0,0,0,,6,,,42,127
1752,note_on,1,0,0,,6,,,54,127
1752,note_on,0,0,0,,4,,,76,127
1895,note_off,143,0,0,,4,,,76,127
1896,note_on,1,0,0,,2,,,74,127
2039,note_off,143,0,0,,2,,,74,127
2040,note_on,1,0,0,,1,,,73,127
2183,note_off,143,0,0,,1,,,73,127
2183,note_off,0,0,0,,6,,,54,127
2184,note_on,1,0,0,,7,,,55,127
2184,note_on,0,0,0,,12,,,71,127
2184,note_on,0,0,0,,1,,,73,127
2327,note_off,143,0,0,,1,,,73,127
2327,note_off,0,0,0,,12,,,71,127
2328,note_on,1,0,0,,11,,,70,127
2471,note_off,143,0,0,,11,,,70,127
2471,note_off,0,0,0,,7,,,55,127
2472,note_on,1,0,0,,6,,,54,127
2472,note_on,0,0,0,,12,,,71,127
2615,note_off,143,0,0,,12,,,71,127
2615,note_off,0,0,0,,6,,,54,127
2616,note_on,1,0,0,,4,,,52,127
2616,note_on,0,0,0,,1,,,73,127
2663,note_off,47,0,0,,1,,,73,127
2664,note_on,1,0,0,,2,,,74,127
2711,note_off,47,0,0,,2,,,74,127
2712,note_on,1,0,0,,4,,,76,127
2759,note_off,47,0,0,,4,,,76,127
2759,note_off,0,0,0,,4,,,52,127
2760,note_on,1,0,0,,6,,,54,127
2760,note_on,0,0,0,,2,,,74,127
2903,note_off,143,0,0,,2,,,74,127
2903,note_off,0,0,0,,6,,,54,127
2904,note_on,1,0,0,,6,,,42,127
2904,note_on,0,0,0,,1,,,73,127
3047,note_off,143,0,0,,1,,,73,127
3047,note_off,0,0,0,,6,,,42,127
3048,note_on,1,0,0,,12,,,47,127
3048,note_on,0,0,0,,1,,,73,127
3335,note_off,287,0,0,,1,,,73,127
3336,note_on,1,0,0,,12,,,71,127
3479,note_off,143,0,0,,12,,,71,127
3479,note_off,0,0,0,,12,,,47,127
3480,note_on,1,0,0,,12,,,47,127
3480,note_on,0,0,0,,2,,,86,127
3623,note_off,143,0,0,,12,,,47,127
3624,note_on,1,0,0,,12,,,59,127
3767,note_off,143,0,0,,12,,,59,127
3767,note_off,0,0,0,,2,,,86,127
3768,note_on,1,0,0,,12,,,71,127
3768,note_on,0,0,0,,2,,,74,127
3911,note_off,143,0,0,,2,,,74,127
3911,note_off,0,0,0,,12,,,71,127
3912,note_on,1,0,0,,10,,,45,127
3912,note_on,0,0,0,,1,,,85,127
4055,note_off,143,0,0,,10,,,45,127
4056,note_on,1,0,0,,10,,,57,127
4199,note_off,143,0,0,,10,,,57,127
4199,note_off,0,0,0,,1,,,85,127
4200,note_on,1,0,0,,10,,,69,127
4200,note_on,0,0,0,,1,,,73,127
4343,note_off,143,0,0,,1,,,73,127
4343,note_off,0,0,0,,10,,,69,127
4344,note_on,1,0,0,,7,,,43,127
4344,note_on,0,0,0,,12,,,83,127
4487,note_off,143,0,0,,7,,,43,127
4488,note_on,1,0,0,,7,,,55,127
4631,note_off,143,0,0,,7,,,55,127
4631,note_off,0,0,0,,12,,,83,127
4632,note_on,1,0,0,,7,,,67,127
4632,note_on,0,0,0,,12,,,71,127
4775,note_off,143,0,0,,12,,,71,127
4775,note_off,0,0,0,,7,,,67,127
4776,note_on,1,0,0,,6,,,42,127
4776,note_on,0,0,0,,11,,,82,127
4919,note_off,143,0,0,,11,,,82,127
4920,note_on,1,0,0,,7,,,79,127
5063,note_off,143,0,0,,7,,,79,127
5064,note_on,1,0,0,,6,,,78,127
5207,note_off,143,0,0,,6,,,78,127
5207,note_off,0,0,0,,6,,,42,127
5208,note_on,1,0,0,,6,,,54,127
5208,note_on,0,0,0,,4,,,76,127
5351,note_off,143,0,0,,4,,,76,127
5352,note_on,1,0,0,,2,,,74,127
5495,note_off,143,0,0,,2,,,74,127
5496,note_on,1,0,0,,1,,,73,127
5639,note_off,143,0,0,,1,,,73,127
5639,note_off,0,0,0,,6,,,54,127
5640,note_on,1,0,0,,7,,,55,127
5640,note_on,0,0,0,,1,,,73,127
5640,note_on,0,0,0,,12,,,71,127
5783,note_off,143,0,0,,12,,,71,127
5783,note_off,0,0,0,,1,,,73,127
5784,note_on,1,0,0,,11,,,70,127
5927,note_off,143,0,0,,11,,,70,127
5927,note_off,0,0,0,,7,,,55,127
5928,note_on,1,0,0,,6,,,54,127
5928,note_on,0,0,0,,12,,,71,127
6071,note_off,143,0,0,,12,,,71,127
6071,note_off,0,0,0,,6,,,54,127
6072,note_on,1,0,0,,4,,,52,127
6072,note_on,0,0,0,,1,,,73,127
6119,note_off,47,0,0,,1,,,73,127
6120,note_on,1,0,0,,2,,,74,127
6167,note_off,47,0,0,,2,,,74,127
6168,note_on,1,0,0,,4,,,76,127
6215,note_off,47,0,0,,4,,,76,127
6215,note_off,0,0,0,,4,,,52,127
6216,note_on,1,0,0,,6,,,54,127
6216,note_on,0,0,0,,2,,,74,127
6359,note_off,143,0,0,,2,,,74,127
6359,note_off,0,0,0,,6,,,54,127
6360,note_on,1,0,0,,6,,,42,127
6360,note_on,0,0,0,,1,,,73,127
6503,note_off,143,0,0,,1,,,73,127
6503,note_off,0,0,0,,6,,,42,127
6504,note_on,1,0,0,,12,,,47,127
6504,note_on,0,0,0,,1,,,73,127
6791,note_off,287,0,0,,1,,,73,127
6792,note_on,1,0,0,,12,,,71,127
6935,note_off,143,0,0,,12,,,71,127
6935,note_off,0,0,0,,12,,,47,127
6936,note_on,1,0,0,,12,,,47,127
6936,note_on,0,0,0,,6,,,78,127
7079,note_off,143,0,0,,12,,,47,127
7080,note_on,1,0,0,,12,,,59,127
7223,note_off,143,0,0,,12,,,59,127
7224,note_on,1,0,0,,6,,,66,127
7367,note_off,143,0,0,,6,,,66,127
7367,note_off,0,0,0,,6,,,78,127
7368,note_on,1,0,0,,6,,,42,127
7368,note_on,0,0,0,,4,,,76,127
7511,note_off,143,0,0,,4,,,76,127
7512,note_on,1,0,0,,1,,,73,127
7655,note_off,143,0,0,,1,,,73,127
7656,note_on,1,0,0,,11,,,70,127
7799,note_off,143,0,0,,11,,,70,127
7799,note_off,0,0,0,,6,,,42,127
7800,note_on,1,0,0,,12,,,47,127
7800,note_on,0,0,0,,1,,,73,127
7835,note_off,35,0,0,,1,,,73,127
7836,note_on,1,0,0,,12,,,71,127
7871,note_off,35,0,0,,12,,,71,127
7872,note_on,1,0,0,,1,,,73,127
7907,note_off,35,0,0,,1,,,73,127
7908,note_on,1,0,0,,12,,,71,127
7943,note_off,35,0,0,,12,,,71,127
7943,note_off,0,0,0,,12,,,47,127
7944,note_on,1,0,0,,12,,,59,127
7944,note_on,0,0,0,,11,,,70,127
8087,note_off,143,0,0,,11,,,70,127
8087,note_off,0,0,0,,12,,,59,127
8088,note_on,1,0,0,,6,,,66,127
8088,note_on,0,0,0,,12,,,71,127
8231,note_off,143,0,0,,12,,,71,127
8231,note_off,0,0,0,,6,,,66,127
8232,note_on,1,0,0,,6,,,42,127
8232,note_on,0,0,0,,2,,,74,127
8519,note_off,287,0,0,,2,,,74,127
8520,note_on,1,0,0,,1,,,73,127
8663,note_off,143,0,0,,1,,,73,127
8663,note_off,0,0,0,,6,,,42,127
8664,note_on,1,0,0,,12,,,47,127
8664,note_on,0,0,0,,6,,,78,127
8807,note_off,143,0,0,,12,,,47,127
8808,note_on,1,0,0,,12,,,59,127
8951,note_off,143,0,0,,12,,,59,127
8952,note_on,1,0,0,,6,,,66,127
9095,note_off,143,0,0,,6,,,66,127
9095,note_off,0,0,0,,6,,,78,127
9096,note_on,1,0,0,,6,,,42,127
9096,note_on,0,0,0,,10,,,81,127
9239,note_off,143,0,0,,10,,,81,127
9240,note_on,1,0,0,,7,,,79,127
9383,note_off,143,0,0,,7,,,79,127
9384,note_on,1,0,0,,4,,,76,127
9527,note_off,143,0,0,,4,,,76,127
9527,note_off,0,0,0,,6,,,42,127
9528,note_on,1,0,0,,12,,,47,127
9528,note_on,0,0,0,,2,,,74,127
9671,note_off,143,0,0,,2,,,74,127
9671,note_off,0,0,0,,12,,,47,127
9672,note_on,1,0,0,,12,,,59,127
9672,note_on,0,0,0,,11,,,70,127
9815,note_off,143,0,0,,11,,,70,127
9815,note_off,0,0,0,,12,,,59,127
9816,note_on,1,0,0,,6,,,66,127
9816,note_on,0,0,0,,12,,,71,127
9959,note_off,143,0,0,,12,,,71,127
9959,note_off,0,0,0,,6,,,66,127
9960,note_on,1,0,0,,6,,,42,127
9960,note_on,0,0,0,,2,,,74,127
10247,note_off,287,0,0,,2,,,74,127
10248,note_on,1,0,0,,1,,,73,127
10391,note_off,143,0,0,,1,,,73,127
10391,note_off,0,0,0,,6,,,42,127
10392,note_on,1,0,0,,4,,,40,127
10392,note_on,0,0,0,,7,,,79,127
10535,note_off,143,0,0,,4,,,40,127
10536,note_on,1,0,0,,4,,,52,127
10679,note_off,143,0,0,,4,,,52,127
10680,note_on,1,0,0,,12,,,59,127
10823,note_off,143,0,0,,12,,,59,127
10823,note_off,0,0,0,,7,,,79,127
10824,note_on,1,0,0,,12,,,35,127
10824,note_on,0,0,0,,10,,,81,127
10967,note_off,143,0,0,,10,,,81,127
10968,note_on,1,0,0,,6,,,78,127
11111,note_off,143,0,0,,6,,,78,127
11112,note_on,1,0,0,,3,,,75,127
11255,note_off,143,0,0,,3,,,75,127
11255,note_off,0,0,0,,12,,,35,127
11256,note_on,1,0,0,,4,,,40,127
11256,note_on,0,0,0,,6,,,78,127
11256,note_on,0,0,0,,4,,,76,127
11399,note_off,143,0,0,,4,,,76,127
11399,note_off,0,0,0,,6,,,78,127
11399,note_off,0,0,0,,4,,,40,127
11400,note_on,1,0,0,,4,,,52,127
11400,note_on,0,0,0,,3,,,75,127
11543,note_off,143,0,0,,3,,,75,127
11543,note_off,0,0,0,,4,,,52,127
11544,note_on,1,0,0,,12,,,59,127
11544,note_on,0,0,0,,4,,,76,127
11687,note_off,143,0,0,,4,,,76,127
11687,note_off,0,0,0,,12,,,59,127
11688,note_on,1,0,0,,12,,,35,127
11688,note_on,0,0,0,,6,,,78,127
11831,note_off,143,0,0,,6,,,78,127
11832,note_on,1,0,0,,7,,,79,127
11975,note_off,143,0,0,,7,,,79,127
11975,note_off,0,0,0,,12,,,35,127
11976,note_on,1,0,0,,1,,,37,127
11976,note_on,0,0,0,,10,,,81,127
12119,note_off,143,0,0,,10,,,81,127
12119,note_off,0,0,0,,1,,,37,127
12120,note_on,1,0,0,,2,,,38,127
12120,note_on,0,0,0,,6,,,78,127
12263,note_off,143,0,0,,6,,,78,127
12263,note_off,0,0,0,,2,,,38,127
12264,note_on,1,0,0,,2,,,50,127
12264,note_on,0,0,0,,4,,,76,127
12407,note_off,143,0,0,,4,,,76,127
12407,note_off,0,0,0,,2,,,50,127
12408,note_on,1,0,0,,10,,,57,127
12408,note_on,0,0,0,,2,,,74,127
12551,note_off,143,0,0,,2,,,74,127
12551,note_off,0,0,0,,10,,,57,127
12552,note_on,1,0,0,,10,,,33,127
12552,note_on,0,0,0,,4,,,76,127
12695,note_off,143,0,0,,4,,,76,127
12696,note_on,1,0,0,,6,,,78,127
12839,note_off,143,0,0,,6,,,78,127
12840,note_on,1,0,0,,7,,,79,127
12983,note_off,143,0,0,,7,,,79,127
12983,note_off,0,0,0,,10,,,33,127
12984,note_on,1,0,0,,2,,,38,127
12984,note_on,0,0,0,,6,,,78,127
13127,note_off,143,0,0,,6,,,78,127
13127,note_off,0,0,0,,2,,,38,127
13128,note_on,1,0,0,,2,,,50,127
13128,note_on,0,0,0,,1,,,73,127
13271,note_off,143,0,0,,1,,,73,127
13271,note_off,0,0,0,,2,,,50,127
13272,note_on,1,0,0,,10,,,57,127
13272,note_on,0,0,0,,2,,,74,127
13415,note_off,143,0,0,,2,,,74,127
13415,note_off,0,0,0,,10,,,57,127
13416,note_on,1,0,0,,10,,,33,127
13416,note_on,0,0,0,,6,,,78,127
13463,note_off,47,0,0,,6,,,78,127
13464,note_on,1,0,0,,4,,,76,127
13511,note_off,47,0,0,,4,,,76,127
13512,note_on,1,0,0,,6,,,78,127
13559,note_off,47,0,0,,6,,,78,127
13560,note_on,1,0,0,,4,,,76,127
13607,note_off,47,0,0,,4,,,76,127
13608,note_on,1,0,0,,6,,,78,127
13655,note_off,47,0,0,,6,,,78,127
13656,note_on,1,0,0,,4,,,76,127
13703,note_off,47,0,0,,4,,,76,127
13704,note_on,1,0,0,,6,,,78,127
13751,note_off,47,0,0,,6,,,78,127
13752,note_on,1,0,0,,4,,,76,127
13847,note_off,95,0,0,,4,,,76,127
13847,note_off,0,0,0,,10,,,33,127
13848,note_on,1,0,0,,6,,,42,127
13848,note_on,0,0,0,,10,,,81,127
13848,note_on,0,0,0,,2,,,74,127
13991,note_off,143,0,0,,2,,,74,127
13991,note_off,0,0,0,,6,,,42,127
13992,note_on,1,0,0,,6,,,54,127
13992,note_on,0,0,0,,4,,,76,127
14135,note_off,143,0,0,,4,,,76,127
14135,note_off,0,0,0,,6,,,54,127
14136,note_on,1,0,0,,6,,,66,127
14136,note_on,0,0,0,,6,,,78,127
14279,note_off,143,0,0,,6,,,78,127
14279,note_off,0,0,0,,6,,,66,127
14279,note_off,0,0,0,,10,,,81,127
14280,note_on,1,0,0,,7,,,43,127
14280,note_on,0,0,0,,12,,,71,127
14280,note_on,0,0,0,,10,,,81,127
14423,note_off,143,0,0,,12,,,71,127
14424,note_on,1,0,0,,1,,,73,127
14567,note_off,143,0,0,,1,,,73,127
14568,note_on,1,0,0,,2,,,74,127
14711,note_off,143,0,0,,2,,,74,127
14711,note_off,0,0,0,,10,,,81,127
14711,note_off,0,0,0,,7,,,43,127
14712,note_on,1,0,0,,4,,,40,127
14712,note_on,0,0,0,,7,,,79,127
14712,note_on,0,0,0,,1,,,73,127
14855,note_off,143,0,0,,1,,,73,127
14855,note_off,0,0,0,,4,,,40,127
14856,note_on,1,0,0,,4,,,52,127
14856,note_on,0,0,0,,2,,,74,127
14999,note_off,143,0,0,,2,,,74,127
14999,note_off,0,0,0,,4,,,52,127
15000,note_on,1,0,0,,4,,,64,127
15000,note_on,0,0,0,,4,,,76,127
15143,note_off,143,0,0,,4,,,76,127
15143,note_off,0,0,0,,4,,,64,127
15143,note_off,0,0,0,,7,,,79,127
15144,note_on,1,0,0,,6,,,42,127
15144,note_on,0,0,0,,7,,,79,127
15144,note_on,0,0,0,,10,,,69,127
15287,note_off,143,0,0,,10,,,69,127
15288,note_on,1,0,0,,12,,,71,127
15431,note_off,143,0,0,,12,,,71,127
15432,note_on,1,0,0,,1,,,73,127
15575,note_off,143,0,0,,1,,,73,127
15575,note_off,0,0,0,,7,,,79,127
15575,note_off,0,0,0,,6,,,42,127
15576,note_on,1,0,0,,2,,,38,127
15576,note_on,0,0,0,,6,,,78,127
15576,note_on,0,0,0,,12,,,71,127
15719,note_off,143,0,0,,12,,,71,127
15719,note_off,0,0,0,,2,,,38,127
15720,note_on,1,0,0,,2,,,50,127
15720,note_on,0,0,0,,1,,,73,127
15863,note_off,143,0,0,,1,,,73,127
15863,note_off,0,0,0,,2,,,50,127
15864,note_on,1,0,0,,2,,,62,127
15864,note_on,0,0,0,,2,,,74,127
16007,note_off,143,0,0,,2,,,74,127
16007,note_off,0,0,0,,2,,,62,127
16007,note_off,0,0,0,,6,,,78,127
16008,note_on,1,0,0,,4,,,40,127
16008,note_on,0,0,0,,6,,,78,127
16008,note_on,0,0,0,,7,,,67,127
16151,note_off,143,0,0,,7,,,67,127
16152,note_on,1,0,0,,10,,,69,127
16295,note_off,143,0,0,,10,,,69,127
16296,note_on,1,0,0,,12,,,71,127
16439,note_off,143,0,0,,12,,,71,127
16439,note_off,0,0,0,,6,,,78,127
16439,note_off,0,0,0,,4,,,40,127
16440,note_on,1,0,0,,10,,,33,127
16440,note_on,0,0,0,,4,,,76,127
16440,note_on,0,0,0,,10,,,69,127
16583,note_off,143,0,0,,10,,,69,127
16583,note_off,0,0,0,,10,,,33,127
16584,note_on,1,0,0,,10,,,45,127
16584,note_on,0,0,0,,12,,,71,127
16727,note_off,143,0,0,,12,,,71,127
16727,note_off,0,0,0,,10,,,45,127
16728,note_on,1,0,0,,10,,,57,127
16728,note_on,0,0,0,,1,,,73,127
16871,note_off,143,0,0,,1,,,73,127
16871,note_off,0,0,0,,10,,,57,127
16871,note_off,0,0,0,,4,,,76,127
16872,note_on,1,0,0,,2,,,50,127
16872,note_on,0,0,0,,6,,,66,127
17015,note_off,143,0,0,,2,,,50,127
17016,note_on,1,0,0,,4,,,52,127
17016,note_on,0,0,0,,2,,,74,127
17159,note_off,143,0,0,,2,,,74,127
17159,note_off,0,0,0,,4,,,52,127
17159,note_off,0,0,0,,6,,,66,127
17160,note_on,1,0,0,,6,,,54,127
17160,note_on,0,0,0,,1,,,73,127
17303,note_off,143,0,0,,1,,,73,127
17303,note_off,0,0,0,,6,,,54,127
17304,note_on,1,0,0,,7,,,55,127
17304,note_on,0,0,0,,12,,,71,127
17447,note_off,143,0,0,,12,,,71,127
17447,note_off,0,0,0,,7,,,55,127
17448,note_on,1,0,0,,6,,,54,127
17448,note_on,0,0,0,,10,,,69,127
17591,note_off,143,0,0,,10,,,69,127
17591,note_off,0,0,0,,6,,,54,127
17592,note_on,1,0,0,,4,,,52,127
17592,note_on,0,0,0,,7,,,67,127
17735,note_off,143,0,0,,7,,,67,127
17735,note_off,0,0,0,,4,,,52,127
17736,note_on,1,0,0,,6,,,54,127
17736,note_on,0,0,0,,10,,,81,127
17736,note_on,0,0,0,,10,,,69,127
17879,note_off,143,0,0,,10,,,81,127
17879,note_off,0,0,0,,6,,,54,127
17880,note_on,1,0,0,,4,,,52,127
17880,note_on,0,0,0,,7,,,79,127
18023,note_off,143,0,0,,7,,,79,127
18023,note_off,0,0,0,,4,,,52,127
18024,note_on,1,0,0,,2,,,50,127
18024,note_on,0,0,0,,6,,,78,127
18167,note_off,143,0,0,,2,,,50,127
18167,note_off,0,0,0,,10,,,69,127
18168,note_on,1,0,0,,7,,,43,127
18202,note_off,34,0,0,,6,,,78,127
18204,note_on,2,0,0,,4,,,76,127
18239,note_off,35,0,0,,4,,,76,127
18240,note_on,1,0,0,,6,,,78,127
18275,note_off,35,0,0,,6,,,78,127
18276,note_on,1,0,0,,4,,,76,127
18311,note_off,35,0,0,,4,,,76,127
18311,note_off,0,0,0,,7,,,43,127
18312,note_on,1,0,0,,10,,,57,127
18312,note_on,0,0,0,,2,,,74,127
18455,note_off,143,0,0,,2,,,74,127
18456,note_on,1,0,0,,10,,,45,127
18456,note_on,0,0,0,,1,,,73,127
18599,note_off,143,0,0,,1,,,73,127
18599,note_off,0,0,0,,10,,,45,127
18599,note_off,0,0,0,,10,,,57,127
18600,note_on,1,0,0,,2,,,50,127
18600,note_on,0,0,0,,1,,,73,127
18887,note_off,287,0,0,,1,,,73,127
18888,note_on,1,0,0,,2,,,74,127
19031,note_off,143,0,0,,2,,,74,127
19031,note_off,0,0,0,,2,,,50,127
19032,note_on,1,0,0,,6,,,42,127
19032,note_on,0,0,0,,10,,,81,127
19032,note_on,0,0,0,,2,,,74,127
19175,note_off,143,0,0,,2,,,74,127
19175,note_off,0,0,0,,6,,,42,127
19176,note_on,1,0,0,,6,,,54,127
19176,note_on,0,0,0,,4,,,76,127
19319,note_off,143,0,0,,4,,,76,127
19319,note_off,0,0,0,,6,,,54,127
19320,note_on,1,0,0,,6,,,66,127
19320,note_on,0,0,0,,6,,,78,127
19463,note_off,143,0,0,,6,,,78,127
19463,note_off,0,0,0,,6,,,66,127
19463,note_off,0,0,0,,10,,,81,127
19464,note_on,1,0,0,,7,,,43,127
19464,note_on,0,0,0,,12,,,71,127
19464,note_on,0,0,0,,10,,,81,127
19607,note_off,143,0,0,,12,,,71,127
19608,note_on,1,0,0,,1,,,73,127
19751,note_off,143,0,0,,1,,,73,127
19752,note_on,1,0,0,,2,,,74,127
19895,note_off,143,0,0,,2,,,74,127
19895,note_off,0,0,0,,10,,,81,127
19895,note_off,0,0,0,,7,,,43,127
19896,note_on,1,0,0,,4,,,40,127
19896,note_on,0,0,0,,7,,,79,127
19896,note_on,0,0,0,,1,,,73,127
20039,note_off,143,0,0,,1,,,73,127
20039,note_off,0,0,0,,4,,,40,127
20040,note_on,1,0,0,,4,,,52,127
20040,note_on,0,0,0,,2,,,74,127
20183,note_off,143,0,0,,2,,,74,127
20183,note_off,0,0,0,,4,,,52,127
20184,note_on,1,0,0,,4,,,64,127
20184,note_on,0,0,0,,4,,,76,127
20327,note_off,143,0,0,,4,,,76,127
20327,note_off,0,0,0,,4,,,64,127
20327,note_off,0,0,0,,7,,,79,127
20328,note_on,1,0,0,,6,,,42,127
20328,note_on,0,0,0,,10,,,69,127
20328,note_on,0,0,0,,7,,,79,127
20471,note_off,143,0,0,,10,,,69,127
20472,note_on,1,0,0,,12,,,71,127
20615,note_off,143,0,0,,12,,,71,127
20616,note_on,1,0,0,,1,,,73,127
20759,note_off,143,0,0,,1,,,73,127
20759,note_off,0,0,0,,7,,,79,127
20759,note_off,0,0,0,,6,,,42,127
20760,note_on,1,0,0,,2,,,38,127
20760,note_on,0,0,0,,6,,,78,127
20760,note_on,0,0,0,,12,,,71,127
20903,note_off,143,0,0,,12,,,71,127
20903,note_off,0,0,0,,2,,,38,127
20904,note_on,1,0,0,,2,,,50,127
20904,note_on,0,0,0,,1,,,73,127
21047,note_off,143,0,0,,1,,,73,127
21047,note_off,0,0,0,,2,,,50,127
21048,note_on,1,0,0,,2,,,62,127
21048,note_on,0,0,0,,2,,,74,127
21191,note_off,143,0,0,,2,,,74,127
21191,note_off,0,0,0,,2,,,62,127
21191,note_off,0,0,0,,6,,,78,127
21192,note_on,1,0,0,,4,,,40,127
21192,note_on,0,0,0,,6,,,78,127
21192,note_on,0,0,0,,7,,,67,127
21335,note_off,143,0,0,,7,,,67,127
21336,note_on,1,0,0,,10,,,69,127
21479,note_off,143,0,0,,10,,,69,127
21480,note_on,1,0,0,,12,,,71,127
21623,note_off,143,0,0,,12,,,71,127
21623,note_off,0,0,0,,6,,,78,127
21623,note_off,0,0,0,,4,,,40,127
21624,note_on,1,0,0,,10,,,33,127
21624,note_on,0,0,0,,10,,,69,127
21624,note_on,0,0,0,,4,,,76,127
21767,note_off,143,0,0,,10,,,69,127
21767,note_off,0,0,0,,10,,,33,127
21768,note_on,1,0,0,,10,,,45,127
21768,note_on,0,0,0,,12,,,71,127
21911,note_off,143,0,0,,12,,,71,127
21911,note_off,0,0,0,,10,,,45,127
21912,note_on,1,0,0,,10,,,57,127
21912,note_on,0,0,0,,1,,,73,127
22055,note_off,143,0,0,,1,,,73,127
22055,note_off,0,0,0,,10,,,57,127
22055,note_off,0,0,0,,4,,,76,127
22056,note_on,1,0,0,,2,,,50,127
22056,note_on,0,0,0,,6,,,66,127
22199,note_off,143,0,0,,2,,,50,127
22200,note_on,1,0,0,,4,,,52,127
22200,note_on,0,0,0,,2,,,74,127
22343,note_off,143,0,0,,2,,,74,127
22343,note_off,0,0,0,,4,,,52,127
22343,note_off,0,0,0,,6,,,66,127
22344,note_on,1,0,0,,6,,,54,127
22344,note_on,0,0,0,,1,,,73,127
22487,note_off,143,0,0,,1,,,73,127
22487,note_off,0,0,0,,6,,,54,127
22488,note_on,1,0,0,,7,,,55,127
22488,note_on,0,0,0,,12,,,71,127
22631,note_off,143,0,0,,12,,,71,127
22631,note_off,0,0,0,,7,,,55,127
22632,note_on,1,0,0,,6,,,54,127
22632,note_on,0,0,0,,10,,,69,127
22775,note_off,143,0,0,,10,,,69,127
22775,note_off,0,0,0,,6,,,54,127
22776,note_on,1,0,0,,4,,,52,127
22776,note_on,0,0,0,,7,,,67,127
22919,note_off,143,0,0,,7,,,67,127
22919,note_off,0,0,0,,4,,,52,127
22920,note_on,1,0,0,,6,,,54,127
22920,note_on,0,0,0,,10,,,81,127
22920,note_on,0,0,0,,10,,,69,127
23063,note_off,143,0,0,,10,,,81,127
23063,note_off,0,0,0,,6,,,54,127
23064,note_on,1,0,0,,4,,,52,127
23064,note_on,0,0,0,,7,,,79,127
23207,note_off,143,0,0,,7,,,79,127
23207,note_off,0,0,0,,4,,,52,127
23208,note_on,1,0,0,,2,,,50,127
23208,note_on,0,0,0,,6,,,78,127
23351,note_off,143,0,0,,2,,,50,127
23351,note_off,0,0,0,,10,,,69,127
23352,note_on,1,0,0,,7,,,55,127
23386,note_off,34,0,0,,6,,,78,127
23388,note_on,2,0,0,,4,,,76,127
23423,note_off,35,0,0,,4,,,76,127
23424,note_on,1,0,0,,6,,,78,127
23459,note_off,35,0,0,,6,,,78,127
23460,note_on,1,0,0,,4,,,76,127
23495,note_off,35,0,0,,4,,,76,127
23495,note_off,0,0,0,,7,,,55,127
23496,note_on,1,0,0,,10,,,57,127
23496,note_on,0,0,0,,2,,,74,127
23639,note_off,143,0,0,,2,,,74,127
23640,note_on,1,0,0,,10,,,45,127
23640,note_on,0,0,0,,1,,,73,127
23783,note_off,143,0,0,,1,,,73,127
23783,note_off,0,0,0,,10,,,45,127
23783,note_off,0,0,0,,10,,,57,127
23784,note_on,1,0,0,,2,,,38,127
23784,note_on,0,0,0,,2,,,74,127
23927,note_off,143,0,0,,2,,,74,127
23927,note_off,0,0,0,,2,,,38,127
23928,note_on,1,0,0,,2,,,50,127
23928,note_on,0,0,0,,10,,,69,127
24071,note_off,143,0,0,,10,,,69,127
24071,note_off,0,0,0,,2,,,50,127
24072,note_on,1,0,0,,2,,,62,127
24072,note_on,0,0,0,,10,,,81,127
24215,note_off,143,0,0,,2,,,62,127
24216,note_on,1,0,0,,10,,,33,127
24359,note_off,143,0,0,,10,,,81,127
24360,note_on,1,0,0,,4,,,76,127
24503,note_off,143,0,0,,4,,,76,127
24504,note_on,1,0,0,,7,,,79,127
24647,note_off,143,0,0,,7,,,79,127
24647,note_off,0,0,0,,10,,,33,127
24648,note_on,1,0,0,,2,,,38,127
24648,note_on,0,0,0,,6,,,78,127
24791,note_off,143,0,0,,6,,,78,127
24791,note_off,0,0,0,,2,,,38,127
24792,note_on,1,0,0,,2,,,50,127
24792,note_on,0,0,0,,2,,,74,127
24935,note_off,143,0,0,,2,,,74,127
24935,note_off,0,0,0,,2,,,50,127
24936,note_on,1,0,0,,2,,,62,127
24936,note_on,0,0,0,,10,,,81,127
25079,note_off,143,0,0,,2,,,62,127
25080,note_on,1,0,0,,10,,,33,127
25223,note_off,143,0,0,,10,,,81,127
25224,note_on,1,0,0,,1,,,73,127
25367,note_off,143,0,0,,1,,,73,127
25368,note_on,1,0,0,,4,,,76,127
25511,note_off,143,0,0,,4,,,76,127
25511,note_off,0,0,0,,10,,,33,127
25512,note_on,1,0,0,,2,,,38,127
25512,note_on,0,0,0,,2,,,74,127
25655,note_off,143,0,0,,2,,,74,127
25655,note_off,0,0,0,,2,,,38,127
25656,note_on,1,0,0,,2,,,50,127
25656,note_on,0,0,0,,10,,,69,127
25799,note_off,143,0,0,,10,,,69,127
25799,note_off,0,0,0,,2,,,50,127
25800,note_on,1,0,0,,10,,,69,127
25800,note_on,0,0,0,,10,,,81,127
25943,note_off,143,0,0,,10,,,69,127
25944,note_on,1,0,0,,10,,,33,127
26087,note_off,143,0,0,,10,,,81,127
26088,note_on,1,0,0,,4,,,76,127
26231,note_off,143,0,0,,4,,,76,127
26232,note_on,1,0,0,,7,,,79,127
26375,note_off,143,0,0,,7,,,79,127
26375,note_off,0,0,0,,10,,,33,127
26376,note_on,1,0,0,,2,,,38,127
26376,note_on,0,0,0,,6,,,78,127
26519,note_off,143,0,0,,6,,,78,127
26519,note_off,0,0,0,,2,,,38,127
26520,note_on,1,0,0,,2,,,50,127
26520,note_on,0,0,0,,2,,,74,127
26663,note_off,143,0,0,,2,,,74,127
26663,note_off,0,0,0,,2,,,50,127
26664,note_on,1,0,0,,10,,,69,127
26664,note_on,0,0,0,,10,,,81,127
26807,note_off,143,0,0,,10,,,69,127
26808,note_on,1,0,0,,10,,,33,127
26951,note_off,143,0,0,,10,,,81,127
26952,note_on,1,0,0,,1,,,73,127
27095,note_off,143,0,0,,1,,,73,127
27096,note_on,1,0,0,,4,,,76,127
27239,note_off,143,0,0,,4,,,76,127
27239,note_off,0,0,0,,10,,,33,127
27240,note_on,1,0,0,,2,,,38,127
27240,note_on,0,0,0,,2,,,74,127
27383,note_off,143,0,0,,2,,,74,127
27383,note_off,0,0,0,,2,,,38,127
27384,note_on,1,0,0,,2,,,50,127
27384,note_on,0,0,0,,10,,,69,127
27527,note_off,143,0,0,,10,,,69,127
27527,note_off,0,0,0,,2,,,50,127
27528,note_on,1,0,0,,10,,,69,127
27528,note_on,0,0,0,,10,,,81,127
27671,note_off,143,0,0,,10,,,81,127
27671,note_off,0,0,0,,10,,,69,127
27672,note_on,1,0,0,,10,,,57,127
27672,note_on,0,0,0,,10,,,45,127
27672,note_on,0,0,0,,10,,,69,127
27815,note_off,143,0,0,,10,,,69,127
27816,note_on,1,0,0,,12,,,71,127
27816,note_on,0,0,0,,12,,,83,127
27959,note_off,143,0,0,,12,,,83,127
27959,note_off,0,0,0,,12,,,71,127
27959,note_off,0,0,0,,10,,,45,127
27959,note_off,0,0,0,,10,,,57,127
27960,note_on,1,0,0,,7,,,55,127
27960,note_on,0,0,0,,7,,,43,127
27960,note_on,0,0,0,,1,,,85,127
27960,note_on,0,0,0,,1,,,73,127
28103,note_off,143,0,0,,1,,,73,127
28103,note_off,0,0,0,,1,,,85,127
28103,note_off,0,0,0,,7,,,43,127
28103,note_off,0,0,0,,7,,,55,127
28104,note_on,1,0,0,,6,,,54,127
28104,note_on,0,0,0,,6,,,42,127
28104,note_on,0,0,0,,2,,,74,127
28104,note_on,0,0,0,,2,,,86,127
28247,note_off,143,0,0,,2,,,86,127
28248,note_on,1,0,0,,10,,,81,127
28391,note_off,143,0,0,,10,,,81,127
28391,note_off,0,0,0,,6,,,42,127
28391,note_off,0,0,0,,6,,,54,127
28392,note_on,1,0,0,,7,,,43,127
28392,note_on,0,0,0,,7,,,55,127
28392,note_on,0,0,0,,12,,,83,127
28535,note_off,143,0,0,,12,,,83,127
28535,note_off,0,0,0,,7,,,55,127
28535,note_off,0,0,0,,7,,,43,127
28535,note_off,0,0,0,,2,,,74,127
28536,note_on,1,0,0,,10,,,45,127
28536,note_on,0,0,0,,10,,,57,127
28536,note_on,0,0,0,,6,,,78,127
28536,note_on,0,0,0,,2,,,74,127
28679,note_off,143,0,0,,6,,,78,127
28680,note_on,1,0,0,,7,,,79,127
28823,note_off,143,0,0,,7,,,79,127
28823,note_off,0,0,0,,2,,,74,127
28823,note_off,0,0,0,,10,,,57,127
28823,note_off,0,0,0,,10,,,45,127
28824,note_on,1,0,0,,7,,,43,127
28824,note_on,0,0,0,,7,,,55,127
28824,note_on,0,0,0,,4,,,76,127
28824,note_on,0,0,0,,1,,,73,127
28967,note_off,143,0,0,,1,,,73,127
28967,note_off,0,0,0,,4,,,76,127
28967,note_off,0,0,0,,7,,,55,127
28967,note_off,0,0,0,,7,,,43,127
28968,note_on,1,0,0,,6,,,42,127
28968,note_on,0,0,0,,6,,,54,127
28968,note_on,0,0,0,,2,,,74,127
29111,note_off,143,0,0,,2,,,74,127
29112,note_on,1,0,0,,10,,,69,127
29255,note_off,143,0,0,,10,,,69,127
29255,note_off,0,0,0,,6,,,54,127
29255,note_off,0,0,0,,6,,,42,127
29256,note_on,1,0,0,,7,,,43,127
29256,note_on,0,0,0,,7,,,55,127
29256,note_on,0,0,0,,12,,,71,127
29399,note_off,143,0,0,,12,,,71,127
29399,note_off,0,0,0,,7,,,55,127
29399,note_off,0,0,0,,7,,,43,127
29400,note_on,1,0,0,,10,,,57,127
29400,note_on,0,0,0,,6,,,66,127
29400,note_on,0,0,0,,2,,,62,127
29543,note_off,143,0,0,,6,,,66,127
29544,note_on,1,0,0,,7,,,67,127
29687,note_off,143,0,0,,7,,,67,127
29687,note_off,0,0,0,,2,,,62,127
29687,note_off,0,0,0,,10,,,57,127
29688,note_on,1,0,0,,10,,,45,127
29688,note_on,0,0,0,,1,,,61,127
29688,note_on,0,0,0,,4,,,64,127
29831,note_off,143,0,0,,1,,,61,127
29831,note_off,0,0,0,,10,,,45,127
29832,note_on,1,0,0,,2,,,38,127
29832,note_on,0,0,0,,2,,,50,127
29878,note_off,46,0,0,,4,,,64,127
29880,note_on,2,0,0,,2,,,62,127
29927,note_off,47,0,0,,2,,,62,127
29928,note_on,1,0,0,,4,,,64,127
29975,note_off,47,0,0,,4,,,64,127
29976,note_on,1,0,0,,2,,,62,127
30023,note_off,47,0,0,,2,,,62,127
30024,note_on,1,0,0,,4,,,64,127
30071,note_off,47,0,0,,4,,,64,127
30072,note_on,1,0,0,,2,,,62,127
30119,note_off,47,0,0,,2,,,62,127
30120,note_on,1,0,0,,4,,,64,127
30167,note_off,47,0,0,,4,,,64,127
30168,note_on,1,0,0,,2,,,62,127
30263,note_off,95,0,0,,2,,,62,127
30263,note_off,0,0,0,,2,,,50,127
30263,note_off,0,0,0,,2,,,38,127
30264,note_on,1,0,0,,2,,,50,127
30264,note_on,0,0,0,,10,,,57,127
30264,note_on,0,0,0,,2,,,62,127
30264,note_on,0,0,0,,6,,,78,127
30408,note_on,144,0,0,,2,,,74,127
30551,note_off,143,0,0,,6,,,78,127
30552,note_on,1,0,0,,10,,,69,127
30695,note_off,143,0,0,,2,,,74,127
30695,note_off,0,0,0,,2,,,62,127
30695,note_off,0,0,0,,10,,,57,127
30695,note_off,0,0,0,,2,,,50,127
30696,note_on,1,0,0,,10,,,57,127
30696,note_on,0,0,0,,2,,,62,127
30696,note_on,0,0,0,,2,,,50,127
30696,note_on,0,0,0,,6,,,78,127
30839,note_off,143,0,0,,10,,,69,127
30840,note_on,1,0,0,,2,,,74,127
30983,note_off,143,0,0,,6,,,78,127
30984,note_on,1,0,0,,10,,,69,127
31127,note_off,143,0,0,,2,,,74,127
31127,note_off,0,0,0,,2,,,50,127
31127,note_off,0,0,0,,2,,,62,127
31127,note_off,0,0,0,,10,,,57,127
31128,note_on,1,0,0,,2,,,62,127
31128,note_on,0,0,0,,2,,,50,127
31128,note_on,0,0,0,,10,,,57,127
31128,note_on,0,0,0,,6,,,78,127
31271,note_off,143,0,0,,10,,,69,127
31272,note_on,1,0,0,,2,,,74,127
31415,note_off,143,0,0,,6,,,78,127
31416,note_on,1,0,0,,10,,,69,127
31559,note_off,143,0,0,,2,,,74,127
31559,note_off,0,0,0,,10,,,57,127
31559,note_off,0,0,0,,2,,,50,127
31559,note_off,0,0,0,,2,,,62,127
31560,note_on,1,0,0,,10,,,57,127
31560,note_on,0,0,0,,0,,,60,127
31560,note_on,0,0,0,,2,,,50,127
31560,note_on,0,0,0,,6,,,78,127
31703,note_off,143,0,0,,10,,,69,127
31704,note_on,1,0,0,,0,,,72,127
31847,note_off,143,0,0,,6,,,78,127
31848,note_on,1,0,0,,10,,,69,127
31991,note_off,143,0,0,,0,,,72,127
31991,note_off,0,0,0,,2,,,50,127
31991,note_off,0,0,0,,0,,,60,127
31991,note_off,0,0,0,,10,,,57,127
31992,note_on,1,0,0,,10,,,57,127
31992,note_on,0,0,0,,2,,,50,127
31992,note_on,0,0,0,,0,,,60,127
31992,note_on,0,0,0,,6,,,78,127
32135,note_off,143,0,0,,10,,,69,127
32136,note_on,1,0,0,,0,,,72,127
32279,note_off,143,0,0,,6,,,78,127
32280,note_on,1,0,0,,10,,,69,127
32423,note_off,143,0,0,,0,,,72,127
32423,note_off,0,0,0,,0,,,60,127
32423,note_off,0,0,0,,2,,,50,127
32423,note_off,0,0,0,,10,,,57,127
32424,note_on,1,0,0,,2,,,50,127
32424,note_on,0,0,0,,0,,,60,127
32424,note_on,0,0,0,,10,,,57,127
32424,note_on,0,0,0,,6,,,78,127
32567,note_off,143,0,0,,10,,,69,127
32568,note_on,1,0,0,,0,,,72,127
32711,note_off,143,0,0,,6,,,78,127
32712,note_on,1,0,0,,10,,,69,127
32855,note_off,143,0,0,,0,,,72,127
32855,note_off,0,0,0,,10,,,57,127
32855,note_off,0,0,0,,0,,,60,127
32855,note_off,0,0,0,,2,,,50,127
32856,note_on,1,0,0,,10,,,57,127
32856,note_on,0,0,0,,3,,,51,127
32856,note_on,0,0,0,,0,,,60,127
32856,note_on,0,0,0,,6,,,78,127
32999,note_off,143,0,0,,10,,,69,127
33000,note_on,1,0,0,,0,,,72,127
33143,note_off,143,0,0,,6,,,78,127
33144,note_on,1,0,0,,10,,,69,127
33287,note_off,143,0,0,,0,,,72,127
33287,note_off,0,0,0,,0,,,60,127
33287,note_off,0,0,0,,3,,,51,127
33287,note_off,0,0,0,,10,,,57,127
33288,note_on,1,0,0,,3,,,51,127
33288,note_on,0,0,0,,0,,,60,127
33288,note_on,0,0,0,,10,,,57,127
33288,note_on,0,0,0,,6,,,78,127
33431,note_off,143,0,0,,10,,,69,127
33432,note_on,1,0,0,,0,,,72,127
33575,note_off,143,0,0,,6,,,78,127
33576,note_on,1,0,0,,10,,,69,127
33719,note_off,143,0,0,,0,,,72,127
33719,note_off,0,0,0,,10,,,57,127
33719,note_off,0,0,0,,0,,,60,127
33719,note_off,0,0,0,,3,,,51,127
33720,note_on,1,0,0,,0,,,60,127
33720,note_on,0,0,0,,3,,,51,127
33720,note_on,0,0,0,,10,,,57,127
33720,note_on,0,0,0,,6,,,78,127
33863,note_off,143,0,0,,10,,,69,127
33864,note_on,1,0,0,,0,,,72,127
34007,note_off,143,0,0,,6,,,78,127
34008,note_on,1,0,0,,10,,,69,127
34151,note_off,143,0,0,,0,,,72,127
34151,note_off,0,0,0,,10,,,57,127
34151,note_off,0,0,0,,3,,,51,127
34151,note_off,0,0,0,,0,,,60,127
34152,note_on,1,0,0,,0,,,60,127
34152,note_on,0,0,0,,10,,,57,127
34152,note_on,0,0,0,,4,,,52,127
34152,note_on,0,0,0,,4,,,76,127
34295,note_off,143,0,0,,10,,,69,127
34296,note_on,1,0,0,,0,,,72,127
34439,note_off,143,0,0,,4,,,76,127
34440,note_on,1,0,0,,10,,,69,127
34583,note_off,143,0,0,,0,,,72,127
34583,note_off,0,0,0,,4,,,52,127
34583,note_off,0,0,0,,10,,,57,127
34583,note_off,0,0,0,,0,,,60,127
34584,note_on,1,0,0,,0,,,60,127
34584,note_on,0,0,0,,4,,,52,127
34584,note_on,0,0,0,,10,,,57,127
34584,note_on,0,0,0,,4,,,76,127
34727,note_off,143,0,0,,10,,,69,127
34728,note_on,1,0,0,,0,,,72,127
34871,note_off,143,0,0,,4,,,76,127
34872,note_on,1,0,0,,10,,,69,127
35015,note_off,143,0,0,,0,,,72,127
35015,note_off,0,0,0,,10,,,57,127
35015,note_off,0,0,0,,4,,,52,127
35015,note_off,0,0,0,,0,,,60,127
35016,note_on,1,0,0,,4,,,52,127
35016,note_on,0,0,0,,0,,,60,127
35016,note_on,0,0,0,,10,,,57,127
35016,note_on,0,0,0,,4,,,76,127
35159,note_off,143,0,0,,10,,,69,127
35160,note_on,1,0,0,,0,,,72,127
35303,note_off,143,0,0,,4,,,76,127
35304,note_on,1,0,0,,10,,,69,127
35447,note_off,143,0,0,,0,,,72,127
35447,note_off,0,0,0,,10,,,57,127
35447,note_off,0,0,0,,0,,,60,127
35447,note_off,0,0,0,,4,,,52,127
35448,note_on,1,0,0,,4,,,52,127
35448,note_on,0,0,0,,2,,,62,127
35448,note_on,0,0,0,,12,,,59,127
35448,note_on,0,0,0,,8,,,80,127
35591,note_off,143,0,0,,10,,,69,127
35592,note_on,1,0,0,,2,,,74,127
35735,note_off,143,0,0,,8,,,80,127
35736,note_on,1,0,0,,12,,,71,127
35879,note_off,143,0,0,,2,,,74,127
35879,note_off,0,0,0,,12,,,59,127
35879,note_off,0,0,0,,2,,,62,127
35879,note_off,0,0,0,,4,,,52,127
35880,note_on,1,0,0,,12,,,59,127
35880,note_on,0,0,0,,4,,,52,127
35880,note_on,0,0,0,,2,,,62,127
35880,note_on,0,0,0,,8,,,80,127
36023,note_off,143,0,0,,12,,,71,127
36024,note_on,1,0,0,,2,,,74,127
36167,note_off,143,0,0,,8,,,80,127
36168,note_on,1,0,0,,12,,,71,127
36311,note_off,143,0,0,,2,,,74,127
36311,note_off,0,0,0,,2,,,62,127
36311,note_off,0,0,0,,4,,,52,127
36311,note_off,0,0,0,,12,,,59,127
36312,note_on,1,0,0,,12,,,59,127
36312,note_on,0,0,0,,4,,,52,127
36312,note_on,0,0,0,,2,,,62,127
36312,note_on,0,0,0,,8,,,80,127
36455,note_off,143,0,0,,12,,,71,127
36456,note_on,1,0,0,,2,,,74,127
36599,note_off,143,0,0,,8,,,80,127
36600,note_on,1,0,0,,12,,,71,127
36743,note_off,143,0,0,,2,,,74,127
36743,note_off,0,0,0,,2,,,62,127
36743,note_off,0,0,0,,4,,,52,127
36743,note_off,0,0,0,,12,,,59,127
36744,note_on,1,0,0,,2,,,62,127
36744,note_on,0,0,0,,5,,,53,127
36744,note_on,0,0,0,,12,,,59,127
36744,note_on,0,0,0,,8,,,80,127
36887,note_off,143,0,0,,12,,,71,127
36888,note_on,1,0,0,,2,,,74,127
37031,note_off,143,0,0,,8,,,80,127
37032,note_on,1,0,0,,12,,,71,127
37175,note_off,143,0,0,,2,,,74,127
37175,note_off,0,0,0,,12,,,59,127
37175,note_off,0,0,0,,5,,,53,127
37175,note_off,0,0,0,,2,,,62,127
37176,note_on,1,0,0,,2,,,62,127
37176,note_on,0,0,0,,12,,,59,127
37176,note_on,0,0,0,,5,,,53,127
37176,note_on,0,0,0,,8,,,80,127
37319,note_off,143,0,0,,12,,,71,127
37320,note_on,1,0,0,,2,,,74,127
37463,note_off,143,0,0,,8,,,80,127
37464,note_on,1,0,0,,12,,,71,127
37607,note_off,143,0,0,,2,,,74,127
37607,note_off,0,0,0,,5,,,53,127
37607,note_off,0,0,0,,12,,,59,127
37607,note_off,0,0,0,,2,,,62,127
37608,note_on,1,0,0,,5,,,53,127
37608,note_on,0,0,0,,12,,,59,127
37608,note_on,0,0,0,,2,,,62,127
37608,note_on,0,0,0,,8,,,80,127
37751,note_off,143,0,0,,12,,,71,127
37752,note_on,1,0,0,,2,,,74,127
37895,note_off,143,0,0,,8,,,80,127
37896,note_on,1,0,0,,12,,,71,127
38039,note_off,143,0,0,,2,,,74,127
38039,note_off,0,0,0,,2,,,62,127
38039,note_off,0,0,0,,12,,,59,127
38039,note_off,0,0,0,,5,,,53,127
38040,note_on,1,0,0,,6,,,54,127
38040,note_on,0,0,0,,12,,,59,127
38040,note_on,0,0,0,,2,,,62,127
38040,note_on,0,0,0,,6,,,78,127
38183,note_off,143,0,0,,12,,,71,127
38184,note_on,1,0,0,,2,,,74,127
38327,note_off,143,0,0,,6,,,78,127
38328,note_on,1,0,0,,12,,,71,127
38471,note_off,143,0,0,,2,,,74,127
38471,note_off,0,0,0,,2,,,62,127
38471,note_off,0,0,0,,12,,,59,127
38471,note_off,0,0,0,,6,,,54,127
38472,note_on,1,0,0,,12,,,59,127
38472,note_on,0,0,0,,6,,,54,127
38472,note_on,0,0,0,,2,,,62,127
38472,note_on,0,0,0,,6,,,78,127
38615,note_off,143,0,0,,12,,,71,127
38616,note_on,1,0,0,,2,,,74,127
38759,note_off,143,0,0,,6,,,78,127
38760,note_on,1,0,0,,12,,,71,127
38903,note_off,143,0,0,,2,,,74,127
38903,note_off,0,0,0,,2,,,62,127
38903,note_off,0,0,0,,6,,,54,127
38903,note_off,0,0,0,,12,,,59,127
38904,note_on,1,0,0,,6,,,54,127
38904,note_on,0,0,0,,2,,,62,127
38904,note_on,0,0,0,,12,,,59,127
38904,note_on,0,0,0,,6,,,78,127
39047,note_off,143,0,0,,12,,,71,127
39048,note_on,1,0,0,,2,,,74,127
39191,note_off,143,0,0,,6,,,78,127
39192,note_on,1,0,0,,12,,,71,127
39335,note_off,143,0,0,,2,,,74,127
39335,note_off,0,0,0,,12,,,59,127
39335,note_off,0,0,0,,2,,,62,127
39335,note_off,0,0,0,,6,,,54,127
39336,note_on,1,0,0,,11,,,58,127
39336,note_on,0,0,0,,1,,,61,127
39336,note_on,0,0,0,,6,,,54,127
39336,note_on,0,0,0,,4,,,52,127
39336,note_on,0,0,0,,6,,,78,127
39479,note_off,143,0,0,,12,,,71,127
39480,note_on,1,0,0,,1,,,73,127
39623,note_off,143,0,0,,6,,,78,127
39624,note_on,1,0,0,,11,,,70,127
39767,note_off,143,0,0,,1,,,73,127
39767,note_off,0,0,0,,4,,,52,127
39767,note_off,0,0,0,,6,,,54,127
39767,note_off,0,0,0,,1,,,61,127
39767,note_off,0,0,0,,11,,,58,127
39768,note_on,1,0,0,,1,,,61,127
39768,note_on,0,0,0,,11,,,58,127
39768,note_on,0,0,0,,4,,,52,127
39768,note_on,0,0,0,,6,,,54,127
39768,note_on,0,0,0,,6,,,78,127
39911,note_off,143,0,0,,11,,,70,127
39912,note_on,1,0,0,,1,,,73,127
40055,note_off,143,0,0,,6,,,78,127
40056,note_on,1,0,0,,11,,,70,127
40199,note_off,143,0,0,,1,,,73,127
40199,note_off,0,0,0,,6,,,54,127
40199,note_off,0,0,0,,4,,,52,127
40199,note_off,0,0,0,,11,,,58,127
40199,note_off,0,0,0,,1,,,61,127
40200,note_on,1,0,0,,6,,,54,127
40200,note_on,0,0,0,,4,,,52,127
40200,note_on,0,0,0,,1,,,61,127
40200,note_on,0,0,0,,11,,,58,127
40200,note_on,0,0,0,,6,,,78,127
40343,note_off,143,0,0,,11,,,70,127
40344,note_on,1,0,0,,1,,,73,127
40487,note_off,143,0,0,,6,,,78,127
40488,note_on,1,0,0,,8,,,80,127
40631,note_off,143,0,0,,8,,,80,127
40631,note_off,0,0,0,,1,,,73,127
40631,note_off,0,0,0,,11,,,58,127
40631,note_off,0,0,0,,1,,,61,127
40631,note_off,0,0,0,,4,,,52,127
40631,note_off,0,0,0,,6,,,54,127
40632,note_on,1,0,0,,3,,,51,127
40632,note_on,0,0,0,,1,,,61,127
40632,note_on,0,0,0,,11,,,58,127
40632,note_on,0,0,0,,7,,,79,127
40776,note_on,144,0,0,,1,,,73,127
40919,note_off,143,0,0,,7,,,79,127
40920,note_on,1,0,0,,11,,,70,127
41063,note_off,143,0,0,,1,,,73,127
41063,note_off,0,0,0,,11,,,58,127
41063,note_off,0,0,0,,1,,,61,127
41063,note_off,0,0,0,,3,,,51,127
41064,note_on,1,0,0,,3,,,51,127
41064,note_on,0,0,0,,1,,,61,127
41064,note_on,0,0,0,,11,,,58,127
41064,note_on,0,0,0,,7,,,79,127
41207,note_off,143,0,0,,11,,,70,127
41208,note_on,1,0,0,,1,,,73,127
41351,note_off,143,0,0,,7,,,79,127
41352,note_on,1,0,0,,11,,,70,127
41495,note_off,143,0,0,,1,,,73,127
41495,note_off,0,0,0,,11,,,58,127
41495,note_off,0,0,0,,1,,,61,127
41495,note_off,0,0,0,,3,,,51,127
41496,note_on,1,0,0,,11,,,58,127
41496,note_on,0,0,0,,1,,,61,127
41496,note_on,0,0,0,,3,,,51,127
41496,note_on,0,0,0,,7,,,79,127
41639,note_off,143,0,0,,11,,,70,127
41640,note_on,1,0,0,,1,,,73,127
41783,note_off,143,0,0,,7,,,79,127
41784,note_on,1,0,0,,11,,,70,127
41927,note_off,143,0,0,,1,,,73,127
41927,note_off,0,0,0,,3,,,51,127
41927,note_off,0,0,0,,1,,,61,127
41927,note_off,0,0,0,,11,,,58,127
41928,note_on,1,0,0,,11,,,58,127
41928,note_on,0,0,0,,1,,,49,127
41928,note_on,0,0,0,,1,,,61,127
41928,note_on,0,0,0,,7,,,79,127
42071,note_off,143,0,0,,11,,,70,127
42072,note_on,1,0,0,,4,,,76,127
42215,note_off,143,0,0,,7,,,79,127
42216,note_on,1,0,0,,11,,,70,127
42359,note_off,143,0,0,,4,,,76,127
42359,note_off,0,0,0,,1,,,61,127
42359,note_off,0,0,0,,1,,,49,127
42359,note_off,0,0,0,,11,,,58,127
42360,note_on,1,0,0,,1,,,61,127
42360,note_on,0,0,0,,11,,,58,127
42360,note_on,0,0,0,,1,,,49,127
42360,note_on,0,0,0,,7,,,79,127
42503,note_off,143,0,0,,11,,,70,127
42504,note_on,1,0,0,,4,,,76,127
42647,note_off,143,0,0,,7,,,79,127
42648,note_on,1,0,0,,11,,,70,127
42791,note_off,143,0,0,,4,,,76,127
42791,note_off,0,0,0,,1,,,49,127
42791,note_off,0,0,0,,11,,,58,127
42791,note_off,0,0,0,,1,,,61,127
42792,note_on,1,0,0,,1,,,61,127
42792,note_on,0,0,0,,1,,,49,127
42792,note_on,0,0,0,,11,,,58,127
42792,note_on,0,0,0,,7,,,79,127
42935,note_off,143,0,0,,11,,,70,127
42936,note_on,1,0,0,,4,,,76,127
43079,note_off,143,0,0,,7,,,79,127
43080,note_on,1,0,0,,11,,,70,127
43223,note_off,143,0,0,,4,,,76,127
43223,note_off,0,0,0,,11,,,58,127
43223,note_off,0,0,0,,1,,,49,127
43223,note_off,0,0,0,,1,,,61,127
43224,note_on,1,0,0,,12,,,47,127
43224,note_on,0,0,0,,7,,,55,127
43224,note_on,0,0,0,,12,,,59,127
43224,note_on,0,0,0,,7,,,79,127
43367,note_off,143,0,0,,11,,,70,127
43368,note_on,1,0,0,,4,,,76,127
43511,note_off,143,0,0,,7,,,79,127
43512,note_on,1,0,0,,12,,,71,127
43655,note_off,143,0,0,,4,,,76,127
43655,note_off,0,0,0,,12,,,59,127
43655,note_off,0,0,0,,7,,,55,127
43655,note_off,0,0,0,,12,,,47,127
43656,note_on,1,0,0,,7,,,55,127
43656,note_on,0,0,0,,12,,,47,127
43656,note_on,0,0,0,,12,,,59,127
43656,note_on,0,0,0,,7,,,79,127
43799,note_off,143,0,0,,12,,,71,127
43800,note_on,1,0,0,,4,,,76,127
43943,note_off,143,0,0,,7,,,79,127
43944,note_on,1,0,0,,12,,,71,127
44087,note_off,143,0,0,,4,,,76,127
44087,note_off,0,0,0,,12,,,59,127
44087,note_off,0,0,0,,12,,,47,127
44087,note_off,0,0,0,,7,,,55,127
44088,note_on,1,0,0,,12,,,59,127
44088,note_on,0,0,0,,7,,,55,127
44088,note_on,0,0,0,,12,,,47,127
44088,note_on,0,0,0,,7,,,79,127
44231,note_off,143,0,0,,12,,,71,127
44232,note_on,1,0,0,,4,,,76,127
44375,note_off,143,0,0,,7,,,79,127
44376,note_on,1,0,0,,12,,,71,127
44519,note_off,143,0,0,,4,,,76,127
44519,note_off,0,0,0,,12,,,47,127
44519,note_off,0,0,0,,7,,,55,127
44519,note_off,0,0,0,,12,,,59,127
44520,note_on,1,0,0,,10,,,57,127
44520,note_on,0,0,0,,1,,,49,127
44520,note_on,0,0,0,,7,,,55,127
44520,note_on,0,0,0,,7,,,79,127
44663,note_off,143,0,0,,12,,,71,127
44664,note_on,1,0,0,,4,,,76,127
44807,note_off,143,0,0,,7,,,79,127
44808,note_on,1,0,0,,10,,,69,127
44951,note_off,143,0,0,,4,,,76,127
44951,note_off,0,0,0,,7,,,55,127
44951,note_off,0,0,0,,1,,,49,127
44951,note_off,0,0,0,,10,,,57,127
44952,note_on,1,0,0,,1,,,49,127
44952,note_on,0,0,0,,10,,,57,127
44952,note_on,0,0,0,,7,,,55,127
44952,note_on,0,0,0,,7,,,79,127
45095,note_off,143,0,0,,10,,,69,127
45096,note_on,1,0,0,,4,,,76,127
45239,note_off,143,0,0,,7,,,79,127
45240,note_on,1,0,0,,10,,,69,127
45383,note_off,143,0,0,,4,,,76,127
45383,note_off,0,0,0,,7,,,55,127
45383,note_off,0,0,0,,10,,,57,127
45383,note_off,0,0,0,,1,,,49,127
45384,note_on,1,0,0,,7,,,55,127
45384,note_on,0,0,0,,1,,,49,127
45384,note_on,0,0,0,,10,,,57,127
45384,note_on,0,0,0,,7,,,79,127
45527,note_off,143,0,0,,10,,,69,127
45528,note_on,1,0,0,,4,,,76,127
45671,note_off,143,0,0,,7,,,79,127
45672,note_on,1,0,0,,10,,,69,127
45815,note_off,143,0,0,,4,,,76,127
45815,note_off,0,0,0,,10,,,57,127
45815,note_off,0,0,0,,1,,,49,127
45815,note_off,0,0,0,,7,,,55,127
45816,note_on,1,0,0,,2,,,50,127
45816,note_on,0,0,0,,7,,,55,127
45816,note_on,0,0,0,,11,,,58,127
45816,note_on,0,0,0,,7,,,79,127
45959,note_off,143,0,0,,10,,,69,127
45960,note_on,1,0,0,,4,,,76,127
46103,note_off,143,0,0,,7,,,79,127
46104,note_on,1,0,0,,11,,,70,127
46247,note_off,143,0,0,,4,,,76,127
46247,note_off,0,0,0,,11,,,58,127
46247,note_off,0,0,0,,7,,,55,127
46247,note_off,0,0,0,,2,,,50,127
46248,note_on,1,0,0,,2,,,50,127
46248,note_on,0,0,0,,11,,,58,127
46248,note_on,0,0,0,,7,,,55,127
46248,note_on,0,0,0,,7,,,79,127
46391,note_off,143,0,0,,11,,,70,127
46392,note_on,1,0,0,,4,,,76,127
46535,note_off,143,0,0,,7,,,79,127
46536,note_on,1,0,0,,11,,,70,127
46679,note_off,143,0,0,,4,,,76,127
46679,note_off,0,0,0,,7,,,55,127
46679,note_off,0,0,0,,11,,,58,127
46679,note_off,0,0,0,,2,,,50,127
46680,note_on,1,0,0,,2,,,50,127
46680,note_on,0,0,0,,7,,,55,127
46680,note_on,0,0,0,,11,,,58,127
46680,note_on,0,0,0,,7,,,79,127
46823,note_off,143,0,0,,11,,,70,127
46824,note_on,1,0,0,,4,,,76,127
46967,note_off,143,0,0,,7,,,79,127
46968,note_on,1,0,0,,11,,,70,127
47111,note_off,143,0,0,,4,,,76,127
47111,note_off,0,0,0,,11,,,58,127
47111,note_off,0,0,0,,7,,,55,127
47111,note_off,0,0,0,,2,,,50,127
47112,note_on,1,0,0,,1,,,61,127
47112,note_on,0,0,0,,7,,,55,127
47112,note_on,0,0,0,,10,,,57,127
47112,note_on,0,0,0,,4,,,52,127
47112,note_on,0,0,0,,7,,,79,127
47255,note_off,143,0,0,,11,,,70,127
47256,note_on,1,0,0,,1,,,73,127
47399,note_off,143,0,0,,7,,,79,127
47400,note_on,1,0,0,,10,,,69,127
47543,note_off,143,0,0,,1,,,73,127
47543,note_off,0,0,0,,4,,,52,127
47543,note_off,0,0,0,,10,,,57,127
47543,note_off,0,0,0,,7,,,55,127
47543,note_off,0,0,0,,1,,,61,127
47544,note_on,1,0,0,,1,,,61,127
47544,note_on,0,0,0,,7,,,55,127
47544,note_on,0,0,0,,10,,,57,127
47544,note_on,0,0,0,,4,,,52,127
47544,note_on,0,0,0,,7,,,79,127
47687,note_off,143,0,0,,10,,,69,127
47688,note_on,1,0,0,,1,,,73,127
47831,note_off,143,0,0,,7,,,79,127
47832,note_on,1,0,0,,10,,,69,127
47975,note_off,143,0,0,,1,,,73,127
47975,note_off,0,0,0,,4,,,52,127
47975,note_off,0,0,0,,10,,,57,127
47975,note_off,0,0,0,,7,,,55,127
47975,note_off,0,0,0,,1,,,61,127
47976,note_on,1,0,0,,4,,,52,127
47976,note_on,0,0,0,,10,,,57,127
47976,note_on,0,0,0,,7,,,55,127
47976,note_on,0,0,0,,1,,,61,127
47976,note_on,0,0,0,,7,,,79,127
48119,note_off,143,0,0,,10,,,69,127
48120,note_on,1,0,0,,1,,,73,127
48263,note_off,143,0,0,,7,,,79,127
48264,note_on,1,0,0,,10,,,69,127
48407,note_off,143,0,0,,1,,,73,127
48407,note_off,0,0,0,,1,,,61,127
48407,note_off,0,0,0,,7,,,55,127
48407,note_off,0,0,0,,10,,,57,127
48407,note_off,0,0,0,,4,,,52,127
48408,note_on,1,0,0,,5,,,53,127
48408,note_on,0,0,0,,2,,,62,127
48408,note_on,0,0,0,,10,,,57,127
48408,note_on,0,0,0,,10,,,81,127
48551,note_off,143,0,0,,10,,,69,127
48552,note_on,1,0,0,,2,,,74,127
48695,note_off,143,0,0,,10,,,81,127
48696,note_on,1,0,0,,10,,,69,127
48839,note_off,143,0,0,,2,,,74,127
48839,note_off,0,0,0,,10,,,57,127
48839,note_off,0,0,0,,2,,,62,127
48839,note_off,0,0,0,,5,,,53,127
48840,note_on,1,0,0,,5,,,53,127
48840,note_on,0,0,0,,10,,,57,127
48840,note_on,0,0,0,,2,,,62,127
48840,note_on,0,0,0,,10,,,81,127
48983,note_off,143,0,0,,10,,,69,127
48984,note_on,1,0,0,,2,,,74,127
49127,note_off,143,0,0,,10,,,81,127
49128,note_on,1,0,0,,10,,,69,127
49271,note_off,143,0,0,,2,,,74,127
49271,note_off,0,0,0,,2,,,62,127
49271,note_off,0,0,0,,10,,,57,127
49271,note_off,0,0,0,,5,,,53,127
49272,note_on,1,0,0,,2,,,62,127
49272,note_on,0,0,0,,10,,,57,127
49272,note_on,0,0,0,,5,,,53,127
49272,note_on,0,0,0,,10,,,81,127
49415,note_off,143,0,0,,10,,,69,127
49416,note_on,1,0,0,,10,,,69,127
49559,note_off,143,0,0,,10,,,81,127
49560,note_on,1,0,0,,10,,,81,127
49703,note_off,143,0,0,,10,,,81,127
49703,note_off,0,0,0,,10,,,69,127
49703,note_off,0,0,0,,5,,,53,127
49703,note_off,0,0,0,,10,,,57,127
49703,note_off,0,0,0,,2,,,62,127
49704,note_on,1,0,0,,4,,,52,127
49704,note_on,0,0,0,,12,,,59,127
49704,note_on,0,0,0,,2,,,62,127
49704,note_on,0,0,0,,8,,,80,127
49848,note_on,144,0,0,,2,,,74,127
49991,note_off,143,0,0,,8,,,80,127
49992,note_on,1,0,0,,12,,,71,127
50135,note_off,143,0,0,,2,,,74,127
50135,note_off,0,0,0,,2,,,62,127
50135,note_off,0,0,0,,12,,,59,127
50135,note_off,0,0,0,,4,,,52,127
50136,note_on,1,0,0,,2,,,62,127
50136,note_on,0,0,0,,12,,,59,127
50136,note_on,0,0,0,,4,,,52,127
50136,note_on,0,0,0,,8,,,80,127
50279,note_off,143,0,0,,12,,,71,127
50280,note_on,1,0,0,,2,,,74,127
50423,note_off,143,0,0,,8,,,80,127
50424,note_on,1,0,0,,12,,,71,127
50567,note_off,143,0,0,,2,,,74,127
50567,note_off,0,0,0,,4,,,52,127
50567,note_off,0,0,0,,12,,,59,127
50567,note_off,0,0,0,,2,,,62,127
50568,note_on,1,0,0,,2,,,62,127
50568,note_on,0,0,0,,12,,,59,127
50568,note_on,0,0,0,,4,,,52,127
50568,note_on,0,0,0,,8,,,80,127
50711,note_off,143,0,0,,12,,,71,127
50712,note_on,1,0,0,,2,,,74,127
50855,note_off,143,0,0,,8,,,80,127
50856,note_on,1,0,0,,12,,,71,127
50999,note_off,143,0,0,,2,,,74,127
50999,note_off,0,0,0,,4,,,52,127
50999,note_off,0,0,0,,12,,,59,127
50999,note_off,0,0,0,,2,,,62,127
51000,note_on,1,0,0,,2,,,62,127
51000,note_on,0,0,0,,12,,,59,127
51000,note_on,0,0,0,,6,,,54,127
51000,note_on,0,0,0,,6,,,78,127
51143,note_off,143,0,0,,12,,,71,127
51144,note_on,1,0,0,,2,,,74,127
51287,note_off,143,0,0,,6,,,78,127
51288,note_on,1,0,0,,12,,,71,127
51431,note_off,143,0,0,,2,,,74,127
51431,note_off,0,0,0,,6,,,54,127
51431,note_off,0,0,0,,12,,,59,127
51431,note_off,0,0,0,,2,,,62,127
51432,note_on,1,0,0,,6,,,54,127
51432,note_on,0,0,0,,2,,,62,127
51432,note_on,0,0,0,,12,,,59,127
51432,note_on,0,0,0,,6,,,78,127
51575,note_off,143,0,0,,12,,,71,127
51576,note_on,1,0,0,,2,,,74,127
51719,note_off,143,0,0,,6,,,78,127
51720,note_on,1,0,0,,12,,,71,127
51863,note_off,143,0,0,,2,,,74,127
51863,note_off,0,0,0,,12,,,59,127
51863,note_off,0,0,0,,2,,,62,127
51863,note_off,0,0,0,,6,,,54,127
51864,note_on,1,0,0,,12,,,59,127
51864,note_on,0,0,0,,2,,,62,127
51864,note_on,0,0,0,,6,,,54,127
51864,note_on,0,0,0,,6,,,78,127
52007,note_off,143,0,0,,12,,,71,127
52008,note_on,1,0,0,,2,,,74,127
52151,note_off,143,0,0,,6,,,78,127
52152,note_on,1,0,0,,12,,,71,127
52295,note_off,143,0,0,,2,,,74,127
52295,note_off,0,0,0,,6,,,54,127
52295,note_off,0,0,0,,2,,,62,127
52295,note_off,0,0,0,,12,,,59,127
52296,note_on,1,0,0,,4,,,64,127
52296,note_on,0,0,0,,12,,,59,127
52296,note_on,0,0,0,,1,,,61,127
52296,note_on,0,0,0,,7,,,55,127
52296,note_on,0,0,0,,4,,,76,127
52439,note_off,143,0,0,,12,,,71,127
52440,note_on,1,0,0,,1,,,73,127
52583,note_off,143,0,0,,4,,,76,127
52584,note_on,1,0,0,,11,,,70,127
52727,note_off,143,0,0,,1,,,73,127
52727,note_off,0,0,0,,7,,,55,127
52727,note_off,0,0,0,,1,,,61,127
52727,note_off,0,0,0,,12,,,59,127
52727,note_off,0,0,0,,4,,,64,127
52728,note_on,1,0,0,,4,,,64,127
52728,note_on,0,0,0,,7,,,55,127
52728,note_on,0,0,0,,12,,,59,127
52728,note_on,0,0,0,,1,,,61,127
52728,note_on,0,0,0,,4,,,76,127
52871,note_off,143,0,0,,11,,,70,127
52872,note_on,1,0,0,,1,,,73,127
53015,note_off,143,0,0,,4,,,76,127
53016,note_on,1,0,0,,11,,,70,127
53159,note_off,143,0,0,,1,,,73,127
53159,note_off,0,0,0,,1,,,61,127
53159,note_off,0,0,0,,12,,,59,127
53159,note_off,0,0,0,,7,,,55,127
53159,note_off,0,0,0,,4,,,64,127
53160,note_on,1,0,0,,7,,,55,127
53160,note_on,0,0,0,,4,,,64,127
53160,note_on,0,0,0,,1,,,61,127
53160,note_on,0,0,0,,12,,,59,127
53160,note_on,0,0,0,,4,,,76,127
53303,note_off,143,0,0,,11,,,70,127
53304,note_on,1,0,0,,1,,,73,127
53447,note_off,143,0,0,,4,,,76,127
53448,note_on,1,0,0,,11,,,70,127
53591,note_off,143,0,0,,1,,,73,127
53591,note_off,0,0,0,,12,,,59,127
53591,note_off,0,0,0,,1,,,61,127
53591,note_off,0,0,0,,4,,,64,127
53591,note_off,0,0,0,,7,,,55,127
53592,note_on,1,0,0,,11,,,58,127
53592,note_on,0,0,0,,1,,,61,127
53592,note_on,0,0,0,,1,,,85,127
53735,note_off,143,0,0,,11,,,70,127
53736,note_on,1,0,0,,1,,,73,127
53879,note_off,143,0,0,,1,,,85,127
53880,note_on,1,0,0,,1,,,85,127
54023,note_off,143,0,0,,1,,,73,127
54023,note_off,0,0,0,,1,,,61,127
54023,note_off,0,0,0,,11,,,58,127
54024,note_on,1,0,0,,12,,,47,127
54024,note_on,0,0,0,,12,,,59,127
54024,note_on,0,0,0,,2,,,86,127
54167,note_off,143,0,0,,1,,,85,127
54168,note_on,1,0,0,,2,,,74,127
54311,note_off,143,0,0,,2,,,86,127
54312,note_on,1,0,0,,2,,,86,127
54455,note_off,143,0,0,,2,,,74,127
54455,note_off,0,0,0,,12,,,59,127
54455,note_off,0,0,0,,12,,,47,127
54456,note_on,1,0,0,,1,,,49,127
54456,note_on,0,0,0,,1,,,61,127
54456,note_on,0,0,0,,12,,,59,127
54456,note_on,0,0,0,,1,,,85,127
54599,note_off,143,0,0,,2,,,86,127
54600,note_on,1,0,0,,1,,,73,127
54743,note_off,143,0,0,,1,,,85,127
54744,note_on,1,0,0,,1,,,85,127
54886,note_off,142,0,0,,1,,,85,127
54887,note_off,1,0,0,,1,,,73,127
54887,note_off,0,0,0,,12,,,59,127
54887,note_off,0,0,0,,1,,,61,127
54887,note_off,0,0,0,,1,,,49,127
54888,note_on,1,0,0,,12,,,59,127
54888,note_on,0,0,0,,7,,,55,127
54888,note_on,0,0,0,,1,,,85,127
54888,note_on,0,0,0,,12,,,83,127
55031,note_off,143,0,0,,12,,,83,127
55031,note_off,0,0,0,,1,,,85,127
55032,note_on,1,0,0,,11,,,82,127
55175,note_off,143,0,0,,11,,,82,127
55176,note_on,1,0,0,,12,,,83,127
55319,note_off,143,0,0,,12,,,83,127
55319,note_off,0,0,0,,7,,,55,127
55319,note_off,0,0,0,,12,,,59,127
55320,note_on,1,0,0,,6,,,54,127
55320,note_on,0,0,0,,12,,,83,127
55607,note_off,287,0,0,,12,,,83,127
55608,note_on,1,0,0,,1,,,85,127
55751,note_off,143,0,0,,1,,,85,127
55751,note_off,0,0,0,,6,,,54,127
55752,note_on,1,0,0,,12,,,47,127
55752,note_on,0,0,0,,2,,,86,127
55752,note_on,0,0,0,,2,,,74,127
55895,note_off,143,0,0,,12,,,47,127
55896,note_on,1,0,0,,12,,,59,127
56039,note_off,143,0,0,,12,,,59,127
56040,note_on,1,0,0,,12,,,71,127
56183,note_off,143,0,0,,12,,,71,127
56183,note_off,0,0,0,,2,,,74,127
56183,note_off,0,0,0,,2,,,86,127
56184,note_on,1,0,0,,10,,,45,127
56184,note_on,0,0,0,,1,,,85,127
56184,note_on,0,0,0,,1,,,73,127
56327,note_off,143,0,0,,10,,,45,127
56328,note_on,1,0,0,,10,,,57,127
56471,note_off,143,0,0,,10,,,57,127
56472,note_on,1,0,0,,10,,,69,127
56615,note_off,143,0,0,,10,,,69,127
56615,note_off,0,0,0,,1,,,73,127
56615,note_off,0,0,0,,1,,,85,127
56616,note_on,1,0,0,,7,,,43,127
56616,note_on,0,0,0,,12,,,83,127
56616,note_on,0,0,0,,12,,,71,127
56759,note_off,143,0,0,,7,,,43,127
56760,note_on,1,0,0,,7,,,55,127
56903,note_off,143,0,0,,7,,,55,127
56904,note_on,1,0,0,,7,,,67,127
57047,note_off,143,0,0,,7,,,67,127
57047,note_off,0,0,0,,12,,,71,127
57047,note_off,0,0,0,,12,,,83,127
57048,note_on,1,0,0,,6,,,42,127
57048,note_on,0,0,0,,10,,,69,127
57048,note_on,0,0,0,,10,,,81,127
57191,note_off,143,0,0,,6,,,42,127
57192,note_on,1,0,0,,6,,,54,127
57335,note_off,143,0,0,,6,,,54,127
57336,note_on,1,0,0,,6,,,66,127
57479,note_off,143,0,0,,6,,,66,127
57479,note_off,0,0,0,,10,,,81,127
57479,note_off,0,0,0,,10,,,69,127
57480,note_on,1,0,0,,4,,,40,127
57480,note_on,0,0,0,,7,,,79,127
57480,note_on,0,0,0,,7,,,67,127
57623,note_off,143,0,0,,4,,,40,127
57624,note_on,1,0,0,,4,,,52,127
57767,note_off,143,0,0,,4,,,52,127
57768,note_on,1,0,0,,4,,,64,127
57911,note_off,143,0,0,,4,,,64,127
57911,note_off,0,0,0,,7,,,67,127
57911,note_off,0,0,0,,7,,,79,127
57912,note_on,1,0,0,,2,,,38,127
57912,note_on,0,0,0,,6,,,78,127
57912,note_on,0,0,0,,6,,,66,127
58055,note_off,143,0,0,,2,,,38,127
58056,note_on,1,0,0,,2,,,50,127
58199,note_off,143,0,0,,2,,,50,127
58200,note_on,1,0,0,,2,,,62,127
58343,note_off,143,0,0,,2,,,62,127
58343,note_off,0,0,0,,6,,,66,127
58343,note_off,0,0,0,,6,,,78,127
58344,note_on,1,0,0,,1,,,37,127
58344,note_on,0,0,0,,4,,,64,127
58344,note_on,0,0,0,,4,,,76,127
58487,note_off,143,0,0,,1,,,37,127
58488,note_on,1,0,0,,1,,,49,127
58631,note_off,143,0,0,,1,,,49,127
58632,note_on,1,0,0,,1,,,61,127
58775,note_off,143,0,0,,1,,,61,127
58775,note_off,0,0,0,,4,,,76,127
58775,note_off,0,0,0,,4,,,64,127
58776,note_on,1,0,0,,12,,,35,127
58776,note_on,0,0,0,,4,,,76,127
58811,note_off,35,0,0,,4,,,76,127
58812,note_on,1,0,0,,2,,,74,127
58847,note_off,35,0,0,,2,,,74,127
58848,note_on,1,0,0,,4,,,76,127
58883,note_off,35,0,0,,4,,,76,127
58884,note_on,1,0,0,,2,,,74,127
58919,note_off,35,0,0,,2,,,74,127
58920,note_on,1,0,0,,1,,,73,127
59063,note_off,143,0,0,,1,,,73,127
59064,note_on,1,0,0,,12,,,71,127
59207,note_off,143,0,0,,12,,,71,127
59207,note_off,0,0,0,,12,,,35,127
59208,note_on,1,0,0,,12,,,47,127
59208,note_on,0,0,0,,2,,,74,127
59208,note_on,0,0,0,,2,,,86,127
59351,note_off,143,0,0,,12,,,47,127
59352,note_on,1,0,0,,12,,,59,127
59495,note_off,143,0,0,,12,,,59,127
59496,note_on,1,0,0,,12,,,71,127
59639,note_off,143,0,0,,12,,,71,127
59639,note_off,0,0,0,,2,,,86,127
59639,note_off,0,0,0,,2,,,74,127
59640,note_on,1,0,0,,10,,,45,127
59640,note_on,0,0,0,,1,,,73,127
59640,note_on,0,0,0,,1,,,85,127
59783,note_off,143,0,0,,10,,,45,127
59784,note_on,1,0,0,,10,,,57,127
59927,note_off,143,0,0,,10,,,57,127
59928,note_on,1,0,0,,10,,,69,127
60071,note_off,143,0,0,,10,,,69,127
60071,note_off,0,0,0,,1,,,85,127
60071,note_off,0,0,0,,1,,,73,127
60072,note_on,1,0,0,,7,,,43,127
60072,note_on,0,0,0,,11,,,82,127
60215,note_off,143,0,0,,11,,,82,127
60215,note_off,0,0,0,,7,,,43,127
60216,note_on,1,0,0,,7,,,55,127
60216,note_on,0,0,0,,12,,,83,127
60359,note_off,143,0,0,,12,,,83,127
60359,note_off,0,0,0,,7,,,55,127
60360,note_on,1,0,0,,7,,,67,127
60360,note_on,0,0,0,,12,,,71,127
60503,note_off,143,0,0,,12,,,71,127
60503,note_off,0,0,0,,7,,,67,127
60504,note_on,1,0,0,,6,,,42,127
60504,note_on,0,0,0,,8,,,80,127
60647,note_off,143,0,0,,8,,,80,127
60647,note_off,0,0,0,,6,,,42,127
60648,note_on,1,0,0,,6,,,54,127
60648,note_on,0,0,0,,10,,,81,127
60791,note_off,143,0,0,,10,,,81,127
60791,note_off,0,0,0,,6,,,54,127
60792,note_on,1,0,0,,6,,,66,127
60792,note_on,0,0,0,,10,,,69,127
60935,note_off,143,0,0,,10,,,69,127
60935,note_off,0,0,0,,6,,,66,127
60936,note_on,1,0,0,,4,,,40,127
60936,note_on,0,0,0,,6,,,78,127
61079,note_off,143,0,0,,6,,,78,127
61079,note_off,0,0,0,,4,,,40,127
61080,note_on,1,0,0,,4,,,52,127
61080,note_on,0,0,0,,7,,,79,127
61223,note_off,143,0,0,,7,,,79,127
61223,note_off,0,0,0,,4,,,52,127
61224,note_on,1,0,0,,4,,,64,127
61224,note_on,0,0,0,,7,,,67,127
61367,note_off,143,0,0,,7,,,67,127
61367,note_off,0,0,0,,4,,,64,127
61368,note_on,1,0,0,,2,,,38,127
61368,note_on,0,0,0,,4,,,76,127
61511,note_off,143,0,0,,4,,,76,127
61511,note_off,0,0,0,,2,,,38,127
61512,note_on,1,0,0,,2,,,50,127
61512,note_on,0,0,0,,6,,,78,127
61655,note_off,143,0,0,,6,,,78,127
61655,note_off,0,0,0,,2,,,50,127
61656,note_on,1,0,0,,2,,,62,127
61656,note_on,0,0,0,,6,,,66,127
61799,note_off,143,0,0,,6,,,66,127
61799,note_off,0,0,0,,2,,,62,127
61800,note_on,1,0,0,,1,,,37,127
61800,note_on,0,0,0,,3,,,75,127
61943,note_off,143,0,0,,3,,,75,127
61943,note_off,0,0,0,,1,,,37,127
61944,note_on,1,0,0,,1,,,49,127
61944,note_on,0,0,0,,4,,,76,127
62087,note_off,143,0,0,,4,,,76,127
62087,note_off,0,0,0,,1,,,49,127
62088,note_on,1,0,0,,1,,,61,127
62088,note_on,0,0,0,,4,,,64,127
62231,note_off,143,0,0,,4,,,64,127
62231,note_off,0,0,0,,1,,,61,127
62232,note_on,1,0,0,,12,,,35,127
62232,note_on,0,0,0,,2,,,74,127
62232,note_on,0,0,0,,4,,,76,127
62375,note_off,143,0,0,,4,,,76,127
62375,note_off,0,0,0,,2,,,74,127
62376,note_on,1,0,0,,1,,,73,127
62519,note_off,143,0,0,,1,,,73,127
62520,note_on,1,0,0,,12,,,71,127
62663,note_off,143,0,0,,12,,,71,127
62663,note_off,0,0,0,,12,,,35,127
62664,note_on,1,0,0,,2,,,50,127
62664,note_on,0,0,0,,12,,,59,127
62664,note_on,0,0,0,,6,,,78,127
62807,note_off,143,0,0,,6,,,78,127
62808,note_on,1,0,0,,7,,,79,127
62951,note_off,143,0,0,,7,,,79,127
62952,note_on,1,0,0,,10,,,81,127
63095,note_off,143,0,0,,10,,,81,127
63095,note_off,0,0,0,,12,,,59,127
63095,note_off,0,0,0,,2,,,50,127
63096,note_on,1,0,0,,12,,,59,127
63096,note_on,0,0,0,,4,,,52,127
63096,note_on,0,0,0,,7,,,79,127
63239,note_off,143,0,0,,7,,,79,127
63240,note_on,1,0,0,,4,,,76,127
63383,note_off,143,0,0,,4,,,76,127
63384,note_on,1,0,0,,1,,,73,127
63527,note_off,143,0,0,,1,,,73,127
63527,note_off,0,0,0,,4,,,52,127
63527,note_off,0,0,0,,12,,,59,127
63528,note_on,1,0,0,,6,,,54,127
63528,note_on,0,0,0,,12,,,71,127
63671,note_off,143,0,0,,12,,,71,127
63672,note_on,1,0,0,,1,,,73,127
63815,note_off,143,0,0,,1,,,73,127
63816,note_on,1,0,0,,11,,,70,127
63959,note_off,143,0,0,,11,,,70,127
63959,note_off,0,0,0,,6,,,54,127
63960,note_on,1,0,0,,12,,,47,127
63960,note_on,0,0,0,,11,,,70,127
64247,note_off,287,0,0,,11,,,70,127
64248,note_on,1,0,0,,12,,,71,127
64391,note_off,143,0,0,,12,,,71,127
64391,note_off,0,0,0,,12,,,47,127
64392,note_on,1,0,0,,12,,,47,127
64392,note_on,0,0,0,,6,,,78,127
64535,note_off,143,0,0,,12,,,47,127
64536,note_on,1,0,0,,12,,,59,127
64679,note_off,143,0,0,,12,,,59,127
64680,note_on,1,0,0,,6,,,66,127
64823,note_off,143,0,0,,6,,,66,127
64823,note_off,0,0,0,,6,,,78,127
64824,note_on,1,0,0,,6,,,42,127
64824,note_on,0,0,0,,4,,,76,127
64967,note_off,143,0,0,,4,,,76,127
64968,note_on,1,0,0,,1,,,73,127
65111,note_off,143,0,0,,1,,,73,127
65112,note_on,1,0,0,,11,,,70,127
65255,note_off,143,0,0,,11,,,70,127
65255,note_off,0,0,0,,6,,,42,127
65256,note_on,1,0,0,,12,,,47,127
65256,note_on,0,0,0,,12,,,71,127
65256,note_on,0,0,0,,1,,,73,127
65399,note_off,143,0,0,,1,,,73,127
65399,note_off,0,0,0,,12,,,71,127
65399,note_off,0,0,0,,12,,,47,127
65400,note_on,1,0,0,,12,,,59,127
65400,note_on,0,0,0,,11,,,70,127
65543,note_off,143,0,0,,11,,,70,127
65543,note_off,0,0,0,,12,,,59,127
65544,note_on,1,0,0,,6,,,66,127
65544,note_on,0,0,0,,12,,,71,127
65687,note_off,143,0,0,,12,,,71,127
65687,note_off,0,0,0,,6,,,66,127
65688,note_on,1,0,0,,6,,,42,127
65688,note_on,0,0,0,,12,,,71,127
65975,note_off,287,0,0,,12,,,71,127
65976,note_on,1,0,0,,1,,,73,127
66119,note_off,143,0,0,,1,,,73,127
66119,note_off,0,0,0,,6,,,42,127
66120,note_on,1,0,0,,12,,,47,127
66120,note_on,0,0,0,,6,,,78,127
66263,note_off,143,0,0,,12,,,47,127
66264,note_on,1,0,0,,12,,,59,127
66407,note_off,143,0,0,,12,,,59,127
66407,note_off,0,0,0,,6,,,78,127
66408,note_on,1,0,0,,6,,,66,127
66408,note_on,0,0,0,,10,,,81,127
66551,note_off,143,0,0,,10,,,81,127
66551,note_off,0,0,0,,6,,,66,127
66552,note_on,1,0,0,,6,,,42,127
66552,note_on,0,0,0,,7,,,79,127
66695,note_off,143,0,0,,7,,,79,127
66696,note_on,1,0,0,,4,,,76,127
66839,note_off,143,0,0,,4,,,76,127
66840,note_on,1,0,0,,1,,,73,127
66983,note_off,143,0,0,,1,,,73,127
66983,note_off,0,0,0,,6,,,42,127
66984,note_on,1,0,0,,12,,,47,127
66984,note_on,0,0,0,,1,,,73,127
66984,note_on,0,0,0,,12,,,71,127
67127,note_off,143,0,0,,12,,,71,127
67127,note_off,0,0,0,,1,,,73,127
67127,note_off,0,0,0,,12,,,47,127
67128,note_on,1,0,0,,12,,,59,127
67128,note_on,0,0,0,,11,,,70,127
67271,note_off,143,0,0,,11,,,70,127
67271,note_off,0,0,0,,12,,,59,127
67272,note_on,1,0,0,,6,,,66,127
67272,note_on,0,0,0,,12,,,71,127
67415,note_off,143,0,0,,12,,,71,127
67415,note_off,0,0,0,,6,,,66,127
67416,note_on,1,0,0,,6,,,42,127
67416,note_on,0,0,0,,12,,,71,127
67703,note_off,287,0,0,,12,,,71,127
67704,note_on,1,0,0,,1,,,73,127
67847,note_off,143,0,0,,1,,,73,127
67847,note_off,0,0,0,,6,,,42,127
67848,note_on,1,0,0,,2,,,38,127
67848,note_on,0,0,0,,6,,,78,127
67991,note_off,143,0,0,,6,,,78,127
67991,note_off,0,0,0,,2,,,38,127
67992,note_on,1,0,0,,2,,,50,127
67992,note_on,0,0,0,,7,,,79,127
68135,note_off,143,0,0,,7,,,79,127
68135,note_off,0,0,0,,2,,,50,127
68136,note_on,1,0,0,,2,,,62,127
68136,note_on,0,0,0,,10,,,81,127
68279,note_off,143,0,0,,10,,,81,127
68279,note_off,0,0,0,,2,,,62,127
68280,note_on,1,0,0,,4,,,40,127
68280,note_on,0,0,0,,7,,,79,127
68423,note_off,143,0,0,,7,,,79,127
68423,note_off,0,0,0,,4,,,40,127
68424,note_on,1,0,0,,4,,,52,127
68424,note_on,0,0,0,,6,,,78,127
68567,note_off,143,0,0,,6,,,78,127
68567,note_off,0,0,0,,4,,,52,127
68568,note_on,1,0,0,,4,,,64,127
68568,note_on,0,0,0,,4,,,76,127
68711,note_off,143,0,0,,4,,,76,127
68711,note_off,0,0,0,,4,,,64,127
68712,note_on,1,0,0,,6,,,42,127
68712,note_on,0,0,0,,2,,,74,127
68855,note_off,143,0,0,,2,,,74,127
68856,note_on,1,0,0,,4,,,76,127
68999,note_off,143,0,0,,4,,,76,127
69000,note_on,1,0,0,,1,,,73,127
69143,note_off,143,0,0,,1,,,73,127
69143,note_off,0,0,0,,6,,,42,127
69144,note_on,1,0,0,,12,,,35,127
69144,note_on,0,0,0,,1,,,73,127
69431,note_off,287,0,0,,1,,,73,127
69432,note_on,1,0,0,,12,,,71,127
69575,note_off,143,0,0,,12,,,71,127
69575,note_off,0,0,0,,12,,,35,127
69577,note_on,2,0,0,,6,,,78,127
69577,note_on,0,0,0,,2,,,38,127
69727,note_off,150,0,0,,2,,,38,127
69727,note_off,0,0,0,,6,,,78,127
69729,note_on,2,0,0,,12,,,83,127
69729,note_on,0,0,0,,2,,,50,127
69879,note_off,150,0,0,,2,,,50,127
69879,note_off,0,0,0,,12,,,83,127
69880,note_on,1,0,0,,10,,,81,127
69880,note_on,0,0,0,,2,,,62,127
70030,note_off,150,0,0,,2,,,62,127
70030,note_off,0,0,0,,10,,,81,127
70032,note_on,2,0,0,,7,,,79,127
70032,note_on,0,0,0,,4,,,40,127
70182,note_off,150,0,0,,4,,,40,127
70182,note_off,0,0,0,,7,,,79,127
70184,note_on,2,0,0,,11,,,82,127
70184,note_on,0,0,0,,4,,,52,127
70334,note_off,150,0,0,,4,,,52,127
70334,note_off,0,0,0,,11,,,82,127
70335,note_on,1,0,0,,12,,,83,127
70335,note_on,0,0,0,,4,,,64,127
70485,note_off,150,0,0,,4,,,64,127
70485,note_off,0,0,0,,12,,,83,127
70490,note_on,5,0,0,,6,,,42,127
70490,note_on,0,0,0,,2,,,74,127
70490,note_on,0,0,0,,12,,,83,127
70666,note_off,176,0,0,,2,,,74,127
70668,note_on,2,0,0,,4,,,76,127
70844,note_off,176,0,0,,4,,,76,127
70844,note_off,0,0,0,,12,,,83,127
70854,note_on,10,0,0,,11,,,82,127
70854,note_on,0,0,0,,1,,,73,127
71020,note_off,166,0,0,,6,,,42,127
71039,note_off,19,0,0,,1,,,73,127
71039,note_off,0,0,0,,11,,,82,127
71058,note_on,19,0,0,,12,,,47,127
71058,note_on,0,0,0,,12,,,35,127
71058,note_on,0,0,0,,12,,,83,127
71058,note_on,0,0,0,,12,,,71,127
73458,note_off,2400,0,0,,12,,,71,127
73458,note_off,0,0,0,,12,,,83,127
73458,note_off,0,0,0,,12,,,35,127
73458,note_off,0,0,0,,12,,,47,127
78336,end_of_track,4878,1,0,,,,,,
