tick,type,time,meta,track,program,channel,pitch,tempo,note,velocity
0,copyright,0,1,0,,,,,,
0,program_change,0,0,0,6,0,,,,
0,pitchwheel,0,0,0,,0,0,,,
0,program_change,0,0,0,6,1,,,,
0,pitchwheel,0,0,0,,1,-590,,,
0,program_change,0,0,0,6,2,,,,
0,pitchwheel,0,0,0,,2,-272,,,
0,program_change,0,0,0,6,3,,,,
0,pitchwheel,0,0,0,,3,-353,,,
0,program_change,0,0,0,6,4,,,,
0,pitchwheel,0,0,0,,4,-560,,,
0,program_change,0,0,0,6,5,,,,
0,pitchwheel,0,0,0,,5,-80,,,
0,program_change,0,0,0,6,6,,,,
0,pitchwheel,0,0,0,,6,-625,,,
0,program_change,0,0,0,6,7,,,,
0,pitchwheel,0,0,0,,7,-130,,,
0,program_change,0,0,0,6,8,,,,
0,pitchwheel,0,0,0,,8,-512,,,
0,program_change,0,0,0,6,10,,,,
0,pitchwheel,0,0,0,,10,-464,,,
0,program_change,0,0,0,6,11,,,,
0,pitchwheel,0,0,0,,11,-208,,,
0,program_change,0,0,0,6,12,,,,
0,pitchwheel,0,0,0,,12,-553,,,
0,set_tempo,0,1,0,,,,500000,,
40,note_on,40,0,0,,0,,,84,127
159,note_off,119,0,0,,0,,,84,127
162,note_on,3,0,0,,11,,,82,127
281,note_off,119,0,0,,11,,,82,127
284,note_on,3,0,0,,10,,,81,127
403,note_off,119,0,0,,10,,,81,127
406,note_on,3,0,0,,11,,,82,127
525,note_off,119,0,0,,11,,,82,127
528,note_on,3,0,0,,5,,,77,127
768,note_off,240,0,0,,5,,,77,127
771,note_on,3,0,0,,2,,,74,127
1011,note_off,240,0,0,,2,,,74,127
1014,note_on,3,0,0,,0,,,72,127
1014,note_on,0,0,0,,5,,,77,127
1133,note_off,119,0,0,,0,,,72,127
1136,note_on,3,0,0,,11,,,70,127
1255,note_off,119,0,0,,11,,,70,127
1258,note_on,3,0,0,,10,,,69,127
1377,note_off,119,0,0,,10,,,69,127
1380,note_on,3,0,0,,11,,,70,127
1499,note_off,119,0,0,,11,,,70,127
1502,note_on,3,0,0,,5,,,65,127
1742,note_off,240,0,0,,5,,,65,127
1745,note_on,3,0,0,,2,,,62,127
1985,note_off,240,0,0,,2,,,62,127
1988,note_on,3,0,0,,5,,,65,127
2228,note_off,240,0,0,,5,,,65,127
2228,note_off,0,0,0,,5,,,77,127
2231,note_on,3,0,0,,5,,,65,127
2231,note_on,0,0,0,,5,,,77,127
2471,note_off,240,0,0,,5,,,77,127
2471,note_off,0,0,0,,5,,,65,127
2474,note_on,3,0,0,,5,,,65,127
2474,note_on,0,0,0,,3,,,75,127
2714,note_off,240,0,0,,3,,,75,127
2714,note_off,0,0,0,,5,,,65,127
2717,note_on,3,0,0,,10,,,69,127
2717,note_on,0,0,0,,3,,,75,127
2795,note_off,78,0,0,,3,,,75,127
2798,note_on,3,0,0,,2,,,74,127
2876,note_off,78,0,0,,2,,,74,127
2879,note_on,3,0,0,,0,,,72,127
2957,note_off,78,0,0,,0,,,72,127
2957,note_off,0,0,0,,10,,,69,127
2960,note_on,3,0,0,,11,,,70,127
2960,note_on,0,0,0,,2,,,74,127
3200,note_off,240,0,0,,2,,,74,127
3200,note_off,0,0,0,,11,,,70,127
3203,note_on,3,0,0,,2,,,62,127
3203,note_on,0,0,0,,11,,,82,127
3443,note_off,240,0,0,,11,,,82,127
3443,note_off,0,0,0,,2,,,62,127
3446,note_on,3,0,0,,3,,,63,127
3446,note_on,0,0,0,,0,,,84,127
3686,note_off,240,0,0,,0,,,84,127
3686,note_off,0,0,0,,3,,,63,127
3689,note_on,3,0,0,,5,,,65,127
3689,note_on,0,0,0,,0,,,84,127
3767,note_off,78,0,0,,0,,,84,127
3770,note_on,3,0,0,,11,,,82,127
3848,note_off,78,0,0,,11,,,82,127
3851,note_on,3,0,0,,10,,,81,127
3929,note_off,78,0,0,,10,,,81,127
3929,note_off,0,0,0,,5,,,65,127
3932,note_on,3,0,0,,11,,,58,127
3932,note_on,0,0,0,,11,,,82,127
4172,note_off,240,0,0,,11,,,82,127
4172,note_off,0,0,0,,11,,,58,127
4175,note_on,3,0,0,,2,,,62,127
4175,note_on,0,0,0,,5,,,77,127
4415,note_off,240,0,0,,5,,,77,127
4415,note_off,0,0,0,,2,,,62,127
4418,note_on,3,0,0,,3,,,63,127
4418,note_on,0,0,0,,7,,,79,127
4658,note_off,240,0,0,,7,,,79,127
4658,note_off,0,0,0,,3,,,63,127
4661,note_on,3,0,0,,2,,,62,127
4661,note_on,0,0,0,,7,,,79,127
4739,note_off,78,0,0,,7,,,79,127
4742,note_on,3,0,0,,5,,,77,127
4820,note_off,78,0,0,,5,,,77,127
4820,note_off,0,0,0,,2,,,62,127
4823,note_on,3,0,0,,0,,,60,127
4823,note_on,0,0,0,,3,,,75,127
4901,note_off,78,0,0,,3,,,75,127
4902,note_off,1,0,0,,0,,,60,127
4903,note_on,1,0,0,,2,,,62,127
4903,note_on,0,0,0,,5,,,77,127
5143,note_off,240,0,0,,5,,,77,127
5143,note_off,0,0,0,,2,,,62,127
5146,note_on,3,0,0,,11,,,70,127
5146,note_on,0,0,0,,2,,,74,127
5386,note_off,240,0,0,,2,,,74,127
5386,note_off,0,0,0,,11,,,70,127
5389,note_on,3,0,0,,0,,,72,127
5389,note_on,0,0,0,,3,,,75,127
5629,note_off,240,0,0,,3,,,75,127
5629,note_off,0,0,0,,0,,,72,127
5632,note_on,3,0,0,,11,,,70,127
5632,note_on,0,0,0,,3,,,75,127
5710,note_off,78,0,0,,3,,,75,127
5713,note_on,3,0,0,,2,,,74,127
5791,note_off,78,0,0,,2,,,74,127
5792,note_off,1,0,0,,11,,,70,127
5793,note_on,1,0,0,,10,,,69,127
5793,note_on,0,0,0,,0,,,72,127
5871,note_off,78,0,0,,0,,,72,127
5872,note_off,1,0,0,,10,,,69,127
5873,note_on,1,0,0,,11,,,70,127
5873,note_on,0,0,0,,2,,,74,127
6113,note_off,240,0,0,,11,,,70,127
6116,note_on,3,0,0,,11,,,46,127
6356,note_off,240,0,0,,2,,,74,127
6359,note_on,3,0,0,,0,,,60,127
6437,note_off,78,0,0,,0,,,60,127
6440,note_on,3,0,0,,11,,,58,127
6518,note_off,78,0,0,,11,,,58,127
6521,note_on,3,0,0,,0,,,60,127
6599,note_off,78,0,0,,0,,,60,127
6599,note_off,0,0,0,,11,,,46,127
6602,note_on,3,0,0,,0,,,48,127
6602,note_on,0,0,0,,11,,,58,127
6680,note_off,78,0,0,,11,,,58,127
6683,note_on,3,0,0,,10,,,57,127
6761,note_off,78,0,0,,10,,,57,127
6764,note_on,3,0,0,,7,,,55,127
6842,note_off,78,0,0,,7,,,55,127
6842,note_off,0,0,0,,0,,,48,127
6845,note_on,3,0,0,,2,,,50,127
6845,note_on,0,0,0,,5,,,53,127
7085,note_off,240,0,0,,5,,,53,127
7085,note_off,0,0,0,,2,,,50,127
7088,note_on,3,0,0,,11,,,46,127
7088,note_on,0,0,0,,5,,,65,127
7328,note_off,240,0,0,,5,,,65,127
7328,note_off,0,0,0,,11,,,46,127
7331,note_on,3,0,0,,0,,,48,127
7331,note_on,0,0,0,,5,,,65,127
7409,note_off,78,0,0,,5,,,65,127
7412,note_on,3,0,0,,3,,,63,127
7490,note_off,78,0,0,,3,,,63,127
7493,note_on,3,0,0,,5,,,65,127
7571,note_off,78,0,0,,5,,,65,127
7571,note_off,0,0,0,,0,,,48,127
7574,note_on,3,0,0,,5,,,41,127
7574,note_on,0,0,0,,3,,,63,127
7652,note_off,78,0,0,,3,,,63,127
7655,note_on,3,0,0,,5,,,65,127
7733,note_off,78,0,0,,5,,,65,127
7736,note_on,3,0,0,,3,,,63,127
7814,note_off,78,0,0,,3,,,63,127
7814,note_off,0,0,0,,5,,,41,127
7817,note_on,3,0,0,,11,,,46,127
7817,note_on,0,0,0,,2,,,62,127
8057,note_off,240,0,0,,11,,,46,127
8060,note_on,3,0,0,,11,,,70,127
8300,note_off,240,0,0,,2,,,62,127
8303,note_on,3,0,0,,0,,,84,127
8381,note_off,78,0,0,,0,,,84,127
8384,note_on,3,0,0,,11,,,82,127
8462,note_off,78,0,0,,11,,,82,127
8465,note_on,3,0,0,,0,,,84,127
8543,note_off,78,0,0,,0,,,84,127
8543,note_off,0,0,0,,11,,,70,127
8546,note_on,3,0,0,,0,,,72,127
8546,note_on,0,0,0,,11,,,82,127
8624,note_off,78,0,0,,11,,,82,127
8627,note_on,3,0,0,,10,,,81,127
8705,note_off,78,0,0,,10,,,81,127
8708,note_on,3,0,0,,7,,,79,127
8786,note_off,78,0,0,,7,,,79,127
8786,note_off,0,0,0,,0,,,72,127
8789,note_on,3,0,0,,2,,,74,127
8789,note_on,0,0,0,,5,,,77,127
9029,note_off,240,0,0,,5,,,77,127
9029,note_off,0,0,0,,2,,,74,127
9032,note_on,3,0,0,,11,,,70,127
9032,note_on,0,0,0,,5,,,89,127
9272,note_off,240,0,0,,5,,,89,127
9272,note_off,0,0,0,,11,,,70,127
9275,note_on,3,0,0,,0,,,72,127
9275,note_on,0,0,0,,5,,,89,127
9353,note_off,78,0,0,,5,,,89,127
9356,note_on,3,0,0,,3,,,87,127
9434,note_off,78,0,0,,3,,,87,127
9437,note_on,3,0,0,,5,,,89,127
9515,note_off,78,0,0,,5,,,89,127
9515,note_off,0,0,0,,0,,,72,127
9518,note_on,3,0,0,,5,,,65,127
9518,note_on,0,0,0,,3,,,87,127
9596,note_off,78,0,0,,3,,,87,127
9599,note_on,3,0,0,,5,,,89,127
9677,note_off,78,0,0,,5,,,89,127
9680,note_on,3,0,0,,3,,,87,127
9758,note_off,78,0,0,,3,,,87,127
9758,note_off,0,0,0,,5,,,65,127
9761,note_on,3,0,0,,11,,,70,127
9761,note_on,0,0,0,,2,,,86,127
10001,note_off,240,0,0,,11,,,70,127
10004,note_on,3,0,0,,11,,,58,127
10244,note_off,240,0,0,,2,,,86,127
10247,note_on,3,0,0,,0,,,72,127
10325,note_off,78,0,0,,0,,,72,127
10328,note_on,3,0,0,,11,,,70,127
10406,note_off,78,0,0,,11,,,70,127
10409,note_on,3,0,0,,0,,,72,127
10487,note_off,78,0,0,,0,,,72,127
10487,note_off,0,0,0,,11,,,58,127
10490,note_on,3,0,0,,0,,,60,127
10490,note_on,0,0,0,,11,,,70,127
10568,note_off,78,0,0,,11,,,70,127
10571,note_on,3,0,0,,8,,,68,127
10649,note_off,78,0,0,,8,,,68,127
10652,note_on,3,0,0,,6,,,66,127
10730,note_off,78,0,0,,6,,,66,127
10730,note_off,0,0,0,,0,,,60,127
10733,note_on,3,0,0,,1,,,61,127
10733,note_on,0,0,0,,5,,,65,127
10973,note_off,240,0,0,,5,,,65,127
10973,note_off,0,0,0,,1,,,61,127
10976,note_on,3,0,0,,1,,,61,127
10976,note_on,0,0,0,,11,,,70,127
11216,note_off,240,0,0,,11,,,70,127
11216,note_off,0,0,0,,1,,,61,127
11219,note_on,3,0,0,,0,,,60,127
11219,note_on,0,0,0,,10,,,69,127
11459,note_off,240,0,0,,10,,,69,127
11459,note_off,0,0,0,,0,,,60,127
11462,note_on,3,0,0,,11,,,58,127
11462,note_on,0,0,0,,6,,,66,127
11462,note_on,0,0,0,,3,,,63,127
11462,note_on,0,0,0,,11,,,70,127
11702,note_off,240,0,0,,11,,,70,127
11702,note_off,0,0,0,,3,,,63,127
11702,note_off,0,0,0,,6,,,66,127
11702,note_off,0,0,0,,11,,,58,127
11705,note_on,3,0,0,,5,,,65,127
11705,note_on,0,0,0,,10,,,57,127
11705,note_on,0,0,0,,0,,,72,127
11945,note_off,240,0,0,,0,,,72,127
11945,note_off,0,0,0,,10,,,57,127
11945,note_off,0,0,0,,5,,,65,127
11948,note_on,3,0,0,,1,,,61,127
11948,note_on,0,0,0,,11,,,70,127
12188,note_off,240,0,0,,11,,,70,127
12188,note_off,0,0,0,,1,,,61,127
12191,note_on,3,0,0,,0,,,60,127
12191,note_on,0,0,0,,10,,,69,127
12431,note_off,240,0,0,,10,,,69,127
12431,note_off,0,0,0,,0,,,60,127
12434,note_on,3,0,0,,3,,,63,127
12434,note_on,0,0,0,,11,,,58,127
12434,note_on,0,0,0,,6,,,66,127
12434,note_on,0,0,0,,11,,,70,127
12674,note_off,240,0,0,,11,,,70,127
12674,note_off,0,0,0,,6,,,66,127
12674,note_off,0,0,0,,11,,,58,127
12674,note_off,0,0,0,,3,,,63,127
12677,note_on,3,0,0,,5,,,65,127
12677,note_on,0,0,0,,10,,,57,127
12677,note_on,0,0,0,,0,,,72,127
12917,note_off,240,0,0,,0,,,72,127
12917,note_off,0,0,0,,10,,,57,127
12917,note_off,0,0,0,,5,,,65,127
12920,note_on,3,0,0,,1,,,61,127
12920,note_on,0,0,0,,11,,,70,127
13160,note_off,240,0,0,,11,,,70,127
13160,note_off,0,0,0,,1,,,61,127
13163,note_on,3,0,0,,0,,,60,127
13163,note_on,0,0,0,,10,,,69,127
13403,note_off,240,0,0,,10,,,69,127
13403,note_off,0,0,0,,0,,,60,127
13406,note_on,3,0,0,,6,,,66,127
13406,note_on,0,0,0,,3,,,63,127
13406,note_on,0,0,0,,11,,,58,127
13406,note_on,0,0,0,,11,,,70,127
13646,note_off,240,0,0,,11,,,70,127
13646,note_off,0,0,0,,11,,,58,127
13646,note_off,0,0,0,,3,,,63,127
13646,note_off,0,0,0,,6,,,66,127
13649,note_on,3,0,0,,5,,,65,127
13649,note_on,0,0,0,,10,,,57,127
13649,note_on,0,0,0,,0,,,72,127
13889,note_off,240,0,0,,0,,,72,127
13889,note_off,0,0,0,,10,,,57,127
13889,note_off,0,0,0,,5,,,65,127
13892,note_on,3,0,0,,5,,,53,127
13892,note_on,0,0,0,,3,,,75,127
14132,note_off,240,0,0,,3,,,75,127
14132,note_off,0,0,0,,5,,,53,127
14135,note_on,3,0,0,,11,,,46,127
14135,note_on,0,0,0,,11,,,58,127
14135,note_on,0,0,0,,1,,,73,127
14375,note_off,240,0,0,,1,,,73,127
14375,note_off,0,0,0,,11,,,58,127
14375,note_off,0,0,0,,11,,,46,127
14378,note_on,3,0,0,,0,,,48,127
14378,note_on,0,0,0,,0,,,72,127
14618,note_off,240,0,0,,0,,,72,127
14618,note_off,0,0,0,,0,,,48,127
14621,note_on,3,0,0,,1,,,49,127
14621,note_on,0,0,0,,0,,,72,127
14699,note_off,78,0,0,,0,,,72,127
14702,note_on,3,0,0,,11,,,70,127
14780,note_off,78,0,0,,11,,,70,127
14783,note_on,3,0,0,,0,,,72,127
14861,note_off,78,0,0,,0,,,72,127
14861,note_off,0,0,0,,1,,,49,127
14864,note_on,3,0,0,,11,,,46,127
14864,note_on,0,0,0,,11,,,70,127
14942,note_off,78,0,0,,11,,,70,127
14945,note_on,3,0,0,,10,,,69,127
15023,note_off,78,0,0,,10,,,69,127
15026,note_on,3,0,0,,11,,,70,127
15104,note_off,78,0,0,,11,,,70,127
15104,note_off,0,0,0,,11,,,46,127
15107,note_on,3,0,0,,3,,,51,127
15107,note_on,0,0,0,,0,,,72,127
15347,note_off,240,0,0,,0,,,72,127
15347,note_off,0,0,0,,3,,,51,127
15350,note_on,3,0,0,,6,,,54,127
15350,note_on,0,0,0,,11,,,70,127
15590,note_off,240,0,0,,11,,,70,127
15590,note_off,0,0,0,,6,,,54,127
15593,note_on,3,0,0,,5,,,53,127
15593,note_on,0,0,0,,11,,,70,127
15671,note_off,78,0,0,,11,,,70,127
15674,note_on,3,0,0,,10,,,69,127
15752,note_off,78,0,0,,10,,,69,127
15755,note_on,3,0,0,,11,,,70,127
15833,note_off,78,0,0,,11,,,70,127
15836,note_on,3,0,0,,10,,,69,127
16076,note_off,240,0,0,,5,,,53,127
16079,note_on,3,0,0,,5,,,41,127
16157,note_off,78,0,0,,5,,,41,127
16160,note_on,3,0,0,,7,,,43,127
16238,note_off,78,0,0,,7,,,43,127
16241,note_on,3,0,0,,10,,,45,127
16317,note_off,76,0,0,,10,,,69,127
16320,note_off,3,0,0,,10,,,45,127
16323,note_on,3,0,0,,11,,,46,127
16401,note_off,78,0,0,,11,,,46,127
16404,note_on,3,0,0,,0,,,48,127
16482,note_off,78,0,0,,0,,,48,127
16485,note_on,3,0,0,,2,,,50,127
16563,note_off,78,0,0,,2,,,50,127
16566,note_on,3,0,0,,4,,,52,127
16806,note_off,240,0,0,,4,,,52,127
16809,note_on,3,0,0,,5,,,53,127
17049,note_off,240,0,0,,5,,,53,127
17052,note_on,3,0,0,,5,,,53,127
17110,note_off,58,0,0,,5,,,53,127
17113,note_on,3,0,0,,4,,,52,127
17171,note_off,58,0,0,,4,,,52,127
17174,note_on,3,0,0,,5,,,53,127
17232,note_off,58,0,0,,5,,,53,127
17235,note_on,3,0,0,,4,,,52,127
17293,note_off,58,0,0,,4,,,52,127
17296,note_on,3,0,0,,2,,,50,127
17536,note_off,240,0,0,,2,,,50,127
17539,note_on,3,0,0,,0,,,48,127
17539,note_on,0,0,0,,11,,,58,127
17617,note_off,78,0,0,,11,,,58,127
17620,note_on,3,0,0,,0,,,60,127
17698,note_off,78,0,0,,0,,,60,127
17701,note_on,3,0,0,,2,,,62,127
17779,note_off,78,0,0,,2,,,62,127
17779,note_off,0,0,0,,0,,,48,127
17782,note_on,3,0,0,,11,,,46,127
17782,note_on,0,0,0,,4,,,64,127
17860,note_off,78,0,0,,4,,,64,127
17863,note_on,3,0,0,,5,,,65,127
17941,note_off,78,0,0,,5,,,65,127
17944,note_on,3,0,0,,7,,,67,127
18022,note_off,78,0,0,,7,,,67,127
18022,note_off,0,0,0,,11,,,46,127
18025,note_on,3,0,0,,10,,,45,127
18025,note_on,0,0,0,,10,,,69,127
18265,note_off,240,0,0,,10,,,69,127
18265,note_off,0,0,0,,10,,,45,127
18268,note_on,3,0,0,,7,,,43,127
18268,note_on,0,0,0,,11,,,70,127
18508,note_off,240,0,0,,11,,,70,127
18508,note_off,0,0,0,,7,,,43,127
18511,note_on,3,0,0,,5,,,41,127
18511,note_on,0,0,0,,0,,,72,127
18751,note_off,240,0,0,,0,,,72,127
18751,note_off,0,0,0,,5,,,41,127
18754,note_on,3,0,0,,5,,,53,127
18754,note_on,0,0,0,,2,,,74,127
18994,note_off,240,0,0,,2,,,74,127
18994,note_off,0,0,0,,5,,,53,127
18997,note_on,3,0,0,,4,,,52,127
18997,note_on,0,0,0,,2,,,74,127
19055,note_off,58,0,0,,2,,,74,127
19058,note_on,3,0,0,,0,,,72,127
19116,note_off,58,0,0,,0,,,72,127
19119,note_on,3,0,0,,2,,,74,127
19177,note_off,58,0,0,,2,,,74,127
19180,note_on,3,0,0,,0,,,72,127
19238,note_off,58,0,0,,0,,,72,127
19238,note_off,0,0,0,,4,,,52,127
19241,note_on,3,0,0,,0,,,48,127
19241,note_on,0,0,0,,11,,,70,127
19481,note_off,240,0,0,,11,,,70,127
19481,note_off,0,0,0,,0,,,48,127
19484,note_on,3,0,0,,5,,,53,127
19484,note_on,0,0,0,,10,,,69,127
19724,note_off,240,0,0,,5,,,53,127
19727,note_on,3,0,0,,5,,,41,127
19964,note_off,237,0,0,,10,,,69,127
19967,note_off,3,0,0,,5,,,41,127
19970,note_on,3,0,0,,5,,,53,127
20048,note_off,78,0,0,,5,,,53,127
20051,note_on,3,0,0,,7,,,55,127
20129,note_off,78,0,0,,7,,,55,127
20132,note_on,3,0,0,,10,,,57,127
20210,note_off,78,0,0,,10,,,57,127
20213,note_on,3,0,0,,11,,,58,127
20291,note_off,78,0,0,,11,,,58,127
20294,note_on,3,0,0,,0,,,60,127
20372,note_off,78,0,0,,0,,,60,127
20375,note_on,3,0,0,,2,,,62,127
20453,note_off,78,0,0,,2,,,62,127
20456,note_on,3,0,0,,4,,,64,127
20696,note_off,240,0,0,,4,,,64,127
20699,note_on,3,0,0,,5,,,65,127
20939,note_off,240,0,0,,5,,,65,127
20942,note_on,3,0,0,,5,,,65,127
21000,note_off,58,0,0,,5,,,65,127
21003,note_on,3,0,0,,4,,,64,127
21061,note_off,58,0,0,,4,,,64,127
21064,note_on,3,0,0,,5,,,65,127
21122,note_off,58,0,0,,5,,,65,127
21125,note_on,3,0,0,,4,,,64,127
21183,note_off,58,0,0,,4,,,64,127
21186,note_on,3,0,0,,2,,,62,127
21426,note_off,240,0,0,,2,,,62,127
21429,note_on,3,0,0,,0,,,60,127
21429,note_on,0,0,0,,11,,,70,127
21507,note_off,78,0,0,,11,,,70,127
21510,note_on,3,0,0,,0,,,72,127
21588,note_off,78,0,0,,0,,,72,127
21591,note_on,3,0,0,,2,,,74,127
21669,note_off,78,0,0,,2,,,74,127
21669,note_off,0,0,0,,0,,,60,127
21672,note_on,3,0,0,,11,,,58,127
21672,note_on,0,0,0,,4,,,76,127
21750,note_off,78,0,0,,4,,,76,127
21753,note_on,3,0,0,,5,,,77,127
21831,note_off,78,0,0,,5,,,77,127
21834,note_on,3,0,0,,7,,,79,127
21912,note_off,78,0,0,,7,,,79,127
21912,note_off,0,0,0,,11,,,58,127
21915,note_on,3,0,0,,10,,,57,127
21915,note_on,0,0,0,,10,,,81,127
22155,note_off,240,0,0,,10,,,81,127
22155,note_off,0,0,0,,10,,,57,127
22158,note_on,3,0,0,,7,,,55,127
22158,note_on,0,0,0,,11,,,82,127
22398,note_off,240,0,0,,11,,,82,127
22398,note_off,0,0,0,,7,,,55,127
22401,note_on,3,0,0,,5,,,53,127
22401,note_on,0,0,0,,0,,,84,127
22641,note_off,240,0,0,,0,,,84,127
22641,note_off,0,0,0,,5,,,53,127
22644,note_on,3,0,0,,5,,,65,127
22644,note_on,0,0,0,,2,,,86,127
22884,note_off,240,0,0,,2,,,86,127
22884,note_off,0,0,0,,5,,,65,127
22887,note_on,3,0,0,,4,,,64,127
22887,note_on,0,0,0,,2,,,86,127
22945,note_off,58,0,0,,2,,,86,127
22948,note_on,3,0,0,,0,,,84,127
23006,note_off,58,0,0,,0,,,84,127
23009,note_on,3,0,0,,2,,,86,127
23067,note_off,58,0,0,,2,,,86,127
23070,note_on,3,0,0,,0,,,84,127
23128,note_off,58,0,0,,0,,,84,127
23128,note_off,0,0,0,,4,,,64,127
23131,note_on,3,0,0,,0,,,60,127
23131,note_on,0,0,0,,11,,,82,127
23371,note_off,240,0,0,,11,,,82,127
23371,note_off,0,0,0,,0,,,60,127
23374,note_on,3,0,0,,5,,,65,127
23374,note_on,0,0,0,,10,,,81,127
23614,note_off,240,0,0,,10,,,81,127
23617,note_on,3,0,0,,5,,,89,127
23857,note_off,240,0,0,,5,,,89,127
23860,note_on,3,0,0,,3,,,87,127
24100,note_off,240,0,0,,3,,,87,127
24100,note_off,0,0,0,,5,,,65,127
24103,note_on,3,0,0,,5,,,77,127
24103,note_on,0,0,0,,1,,,85,127
24343,note_off,240,0,0,,1,,,85,127
24343,note_off,0,0,0,,5,,,77,127
24346,note_on,3,0,0,,3,,,75,127
24346,note_on,0,0,0,,0,,,84,127
24586,note_off,240,0,0,,0,,,84,127
24586,note_off,0,0,0,,3,,,75,127
24589,note_on,3,0,0,,1,,,73,127
24589,note_on,0,0,0,,11,,,82,127
24829,note_off,240,0,0,,11,,,82,127
24829,note_off,0,0,0,,1,,,73,127
24832,note_on,3,0,0,,0,,,72,127
24832,note_on,0,0,0,,10,,,81,127
25072,note_off,240,0,0,,10,,,81,127
25072,note_off,0,0,0,,0,,,72,127
25075,note_on,3,0,0,,11,,,70,127
25075,note_on,0,0,0,,6,,,78,127
25315,note_off,240,0,0,,6,,,78,127
25315,note_off,0,0,0,,11,,,70,127
25318,note_on,3,0,0,,10,,,69,127
25318,note_on,0,0,0,,5,,,77,127
25558,note_off,240,0,0,,5,,,77,127
25558,note_off,0,0,0,,10,,,69,127
25561,note_on,3,0,0,,5,,,65,127
25561,note_on,0,0,0,,3,,,87,127
25801,note_off,240,0,0,,3,,,87,127
25804,note_on,3,0,0,,1,,,85,127
26044,note_off,240,0,0,,1,,,85,127
26044,note_off,0,0,0,,5,,,65,127
26047,note_on,3,0,0,,3,,,75,127
26047,note_on,0,0,0,,0,,,84,127
26287,note_off,240,0,0,,0,,,84,127
26287,note_off,0,0,0,,3,,,75,127
26290,note_on,3,0,0,,1,,,73,127
26290,note_on,0,0,0,,11,,,82,127
26530,note_off,240,0,0,,11,,,82,127
26530,note_off,0,0,0,,1,,,73,127
26533,note_on,3,0,0,,0,,,72,127
26533,note_on,0,0,0,,8,,,80,127
26773,note_off,240,0,0,,8,,,80,127
26773,note_off,0,0,0,,0,,,72,127
26776,note_on,3,0,0,,11,,,70,127
26776,note_on,0,0,0,,6,,,78,127
27016,note_off,240,0,0,,6,,,78,127
27016,note_off,0,0,0,,11,,,70,127
27019,note_on,3,0,0,,8,,,68,127
27019,note_on,0,0,0,,5,,,77,127
27259,note_off,240,0,0,,5,,,77,127
27259,note_off,0,0,0,,8,,,68,127
27262,note_on,3,0,0,,6,,,66,127
27262,note_on,0,0,0,,11,,,70,127
27262,note_on,0,0,0,,3,,,75,127
27502,note_off,240,0,0,,3,,,75,127
27505,note_on,3,0,0,,11,,,82,127
27745,note_off,240,0,0,,11,,,82,127
27745,note_off,0,0,0,,11,,,70,127
27745,note_off,0,0,0,,6,,,66,127
27748,note_on,3,0,0,,6,,,66,127
27748,note_on,0,0,0,,11,,,70,127
27748,note_on,0,0,0,,8,,,80,127
27867,note_off,119,0,0,,8,,,80,127
27870,note_on,3,0,0,,6,,,78,127
27989,note_off,119,0,0,,6,,,78,127
27992,note_on,3,0,0,,5,,,77,127
28232,note_off,240,0,0,,5,,,77,127
28232,note_off,0,0,0,,11,,,70,127
28232,note_off,0,0,0,,6,,,66,127
28235,note_on,3,0,0,,11,,,70,127
28235,note_on,0,0,0,,6,,,66,127
28235,note_on,0,0,0,,3,,,75,127
28475,note_off,240,0,0,,3,,,75,127
28478,note_on,3,0,0,,1,,,73,127
28718,note_off,240,0,0,,1,,,73,127
28721,note_on,3,0,0,,4,,,76,127
28721,note_on,0,0,0,,0,,,72,127
28961,note_off,240,0,0,,0,,,72,127
28961,note_off,0,0,0,,6,,,66,127
28961,note_off,0,0,0,,11,,,70,127
28964,note_on,3,0,0,,6,,,66,127
28964,note_on,0,0,0,,11,,,70,127
29201,note_off,237,0,0,,4,,,76,127
29204,note_off,3,0,0,,11,,,70,127
29204,note_off,0,0,0,,6,,,66,127
29207,note_on,3,0,0,,5,,,65,127
29207,note_on,0,0,0,,10,,,69,127
29207,note_on,0,0,0,,5,,,77,127
29447,note_off,240,0,0,,5,,,77,127
29447,note_off,0,0,0,,10,,,69,127
29447,note_off,0,0,0,,5,,,65,127
29450,note_on,3,0,0,,0,,,60,127
29450,note_on,0,0,0,,0,,,72,127
29690,note_off,240,0,0,,0,,,72,127
29690,note_off,0,0,0,,0,,,60,127
29693,note_on,3,0,0,,10,,,57,127
29693,note_on,0,0,0,,5,,,77,127
29933,note_off,240,0,0,,5,,,77,127
29933,note_off,0,0,0,,10,,,57,127
29936,note_on,3,0,0,,5,,,53,127
29936,note_on,0,0,0,,10,,,81,127
30176,note_off,240,0,0,,10,,,81,127
30176,note_off,0,0,0,,5,,,53,127
30179,note_on,3,0,0,,5,,,65,127
30179,note_on,0,0,0,,12,,,71,127
30419,note_off,240,0,0,,12,,,71,127
30419,note_off,0,0,0,,5,,,65,127
30422,note_on,3,0,0,,2,,,62,127
30422,note_on,0,0,0,,2,,,74,127
30662,note_off,240,0,0,,2,,,74,127
30662,note_off,0,0,0,,2,,,62,127
30665,note_on,3,0,0,,12,,,59,127
30665,note_on,0,0,0,,5,,,77,127
30905,note_off,240,0,0,,5,,,77,127
30905,note_off,0,0,0,,12,,,59,127
30908,note_on,3,0,0,,7,,,55,127
30908,note_on,0,0,0,,12,,,83,127
31148,note_off,240,0,0,,12,,,83,127
31148,note_off,0,0,0,,7,,,55,127
31151,note_on,3,0,0,,0,,,60,127
31151,note_on,0,0,0,,0,,,72,127
31391,note_off,240,0,0,,0,,,72,127
31391,note_off,0,0,0,,0,,,60,127
31394,note_on,3,0,0,,7,,,67,127
31394,note_on,0,0,0,,4,,,76,127
31634,note_off,240,0,0,,4,,,76,127
31634,note_off,0,0,0,,7,,,67,127
31637,note_on,3,0,0,,4,,,64,127
31637,note_on,0,0,0,,7,,,79,127
31877,note_off,240,0,0,,7,,,79,127
31877,note_off,0,0,0,,4,,,64,127
31880,note_on,3,0,0,,0,,,60,127
31880,note_on,0,0,0,,11,,,82,127
32102,note_off,222,0,0,,11,,,82,127
32120,note_off,18,0,0,,0,,,60,127
32123,note_on,3,0,0,,5,,,65,127
32123,note_on,0,0,0,,5,,,77,127
32366,note_on,243,0,0,,11,,,82,127
32485,note_off,119,0,0,,11,,,82,127
32488,note_on,3,0,0,,0,,,84,127
32604,note_off,116,0,0,,5,,,77,127
32607,note_off,3,0,0,,0,,,84,127
32607,note_off,0,0,0,,5,,,65,127
32610,note_on,3,0,0,,11,,,58,127
32610,note_on,0,0,0,,7,,,79,127
32610,note_on,0,0,0,,11,,,82,127
32850,note_off,240,0,0,,11,,,82,127
32850,note_off,0,0,0,,7,,,79,127
32853,note_on,3,0,0,,5,,,77,127
32853,note_on,0,0,0,,10,,,81,127
33093,note_off,240,0,0,,10,,,81,127
33093,note_off,0,0,0,,5,,,77,127
33093,note_off,0,0,0,,11,,,58,127
33096,note_on,3,0,0,,0,,,60,127
33096,note_on,0,0,0,,10,,,81,127
33154,note_off,58,0,0,,10,,,81,127
33157,note_on,3,0,0,,7,,,79,127
33215,note_off,58,0,0,,7,,,79,127
33218,note_on,3,0,0,,10,,,81,127
33276,note_off,58,0,0,,10,,,81,127
33279,note_on,3,0,0,,7,,,79,127
33337,note_off,58,0,0,,0,,,60,127
33340,note_on,3,0,0,,0,,,60,127
33580,note_off,240,0,0,,0,,,60,127
33583,note_on,3,0,0,,0,,,72,127
33823,note_off,240,0,0,,0,,,72,127
33823,note_off,0,0,0,,7,,,79,127
33826,note_on,3,0,0,,11,,,70,127
33826,note_on,0,0,0,,5,,,89,127
33884,note_off,58,0,0,,5,,,89,127
33887,note_on,3,0,0,,4,,,88,127
33945,note_off,58,0,0,,4,,,88,127
33948,note_on,3,0,0,,2,,,86,127
34006,note_off,58,0,0,,2,,,86,127
34009,note_on,3,0,0,,4,,,88,127
34067,note_off,58,0,0,,4,,,88,127
34067,note_off,0,0,0,,11,,,70,127
34070,note_on,3,0,0,,10,,,69,127
34070,note_on,0,0,0,,5,,,89,127
34148,note_off,78,0,0,,10,,,69,127
34151,note_on,3,0,0,,7,,,67,127
34229,note_off,78,0,0,,7,,,67,127
34232,note_on,3,0,0,,5,,,65,127
34310,note_off,78,0,0,,5,,,65,127
34310,note_off,0,0,0,,5,,,89,127
34313,note_on,3,0,0,,0,,,48,127
34313,note_on,0,0,0,,0,,,84,127
34553,note_off,240,0,0,,0,,,48,127
34556,note_on,3,0,0,,0,,,60,127
34796,note_off,240,0,0,,0,,,60,127
34796,note_off,0,0,0,,0,,,84,127
34799,note_on,3,0,0,,11,,,58,127
34799,note_on,0,0,0,,5,,,89,127
34857,note_off,58,0,0,,5,,,89,127
34860,note_on,3,0,0,,4,,,88,127
34918,note_off,58,0,0,,4,,,88,127
34921,note_on,3,0,0,,2,,,86,127
34979,note_off,58,0,0,,2,,,86,127
34982,note_on,3,0,0,,4,,,88,127
35040,note_off,58,0,0,,4,,,88,127
35040,note_off,0,0,0,,11,,,58,127
35043,note_on,3,0,0,,10,,,57,127
35043,note_on,0,0,0,,5,,,89,127
35121,note_off,78,0,0,,10,,,57,127
35124,note_on,3,0,0,,7,,,55,127
35202,note_off,78,0,0,,7,,,55,127
35205,note_on,3,0,0,,5,,,53,127
35283,note_off,78,0,0,,5,,,53,127
35283,note_off,0,0,0,,5,,,89,127
35286,note_on,3,0,0,,0,,,36,127
35286,note_on,0,0,0,,0,,,84,127
35526,note_off,240,0,0,,0,,,36,127
35529,note_on,3,0,0,,0,,,48,127
35769,note_off,240,0,0,,0,,,48,127
35769,note_off,0,0,0,,0,,,84,127
35772,note_on,3,0,0,,11,,,46,127
35772,note_on,0,0,0,,5,,,89,127
35830,note_off,58,0,0,,5,,,89,127
35833,note_on,3,0,0,,4,,,88,127
35891,note_off,58,0,0,,4,,,88,127
35894,note_on,3,0,0,,2,,,86,127
35952,note_off,58,0,0,,2,,,86,127
35955,note_on,3,0,0,,4,,,88,127
36013,note_off,58,0,0,,4,,,88,127
36013,note_off,0,0,0,,11,,,46,127
36016,note_on,3,0,0,,10,,,45,127
36016,note_on,0,0,0,,5,,,89,127
36094,note_off,78,0,0,,5,,,89,127
36097,note_on,3,0,0,,0,,,84,127
36175,note_off,78,0,0,,0,,,84,127
36178,note_on,3,0,0,,2,,,86,127
36256,note_off,78,0,0,,2,,,86,127
36256,note_off,0,0,0,,10,,,45,127
36259,note_on,3,0,0,,5,,,53,127
36259,note_on,0,0,0,,0,,,84,127
36337,note_off,78,0,0,,0,,,84,127
36340,note_on,3,0,0,,11,,,82,127
36418,note_off,78,0,0,,11,,,82,127
36421,note_on,3,0,0,,10,,,81,127
36499,note_off,78,0,0,,10,,,81,127
36499,note_off,0,0,0,,5,,,53,127
36502,note_on,3,0,0,,11,,,46,127
36502,note_on,0,0,0,,7,,,79,127
36742,note_off,240,0,0,,7,,,79,127
36742,note_off,0,0,0,,11,,,46,127
36745,note_on,3,0,0,,2,,,50,127
36745,note_on,0,0,0,,5,,,77,127
36985,note_off,240,0,0,,5,,,77,127
36985,note_off,0,0,0,,2,,,50,127
36988,note_on,3,0,0,,0,,,48,127
36988,note_on,0,0,0,,5,,,77,127
37066,note_off,78,0,0,,5,,,77,127
37069,note_on,3,0,0,,4,,,76,127
37147,note_off,78,0,0,,4,,,76,127
37150,note_on,3,0,0,,5,,,77,127
37228,note_off,78,0,0,,5,,,77,127
37228,note_off,0,0,0,,0,,,48,127
37231,note_on,3,0,0,,0,,,60,127
37231,note_on,0,0,0,,4,,,76,127
37471,note_off,240,0,0,,0,,,60,127
37474,note_on,3,0,0,,0,,,72,127
37714,note_off,240,0,0,,0,,,72,127
37714,note_off,0,0,0,,4,,,76,127
37717,note_on,3,0,0,,11,,,70,127
37717,note_on,0,0,0,,5,,,89,127
37775,note_off,58,0,0,,5,,,89,127
37778,note_on,3,0,0,,4,,,88,127
37836,note_off,58,0,0,,4,,,88,127
37839,note_on,3,0,0,,2,,,86,127
37897,note_off,58,0,0,,2,,,86,127
37900,note_on,3,0,0,,4,,,88,127
37958,note_off,58,0,0,,4,,,88,127
37958,note_off,0,0,0,,11,,,70,127
37961,note_on,3,0,0,,10,,,69,127
37961,note_on,0,0,0,,5,,,89,127
38039,note_off,78,0,0,,10,,,69,127
38042,note_on,3,0,0,,7,,,67,127
38120,note_off,78,0,0,,7,,,67,127
38123,note_on,3,0,0,,5,,,65,127
38201,note_off,78,0,0,,5,,,65,127
38201,note_off,0,0,0,,5,,,89,127
38204,note_on,3,0,0,,0,,,48,127
38204,note_on,0,0,0,,0,,,84,127
38444,note_off,240,0,0,,0,,,48,127
38447,note_on,3,0,0,,0,,,60,127
38687,note_off,240,0,0,,0,,,60,127
38687,note_off,0,0,0,,0,,,84,127
38690,note_on,3,0,0,,11,,,58,127
38690,note_on,0,0,0,,5,,,89,127
38748,note_off,58,0,0,,5,,,89,127
38751,note_on,3,0,0,,4,,,88,127
38809,note_off,58,0,0,,4,,,88,127
38812,note_on,3,0,0,,2,,,86,127
38870,note_off,58,0,0,,2,,,86,127
38873,note_on,3,0,0,,4,,,88,127
38931,note_off,58,0,0,,4,,,88,127
38931,note_off,0,0,0,,11,,,58,127
38934,note_on,3,0,0,,10,,,57,127
38934,note_on,0,0,0,,5,,,89,127
39012,note_off,78,0,0,,10,,,57,127
39015,note_on,3,0,0,,7,,,55,127
39093,note_off,78,0,0,,7,,,55,127
39096,note_on,3,0,0,,5,,,53,127
39174,note_off,78,0,0,,5,,,53,127
39174,note_off,0,0,0,,5,,,89,127
39177,note_on,3,0,0,,0,,,36,127
39177,note_on,0,0,0,,0,,,84,127
39417,note_off,240,0,0,,0,,,36,127
39420,note_on,3,0,0,,0,,,48,127
39660,note_off,240,0,0,,0,,,48,127
39660,note_off,0,0,0,,0,,,84,127
39663,note_on,3,0,0,,11,,,46,127
39663,note_on,0,0,0,,5,,,89,127
39721,note_off,58,0,0,,5,,,89,127
39724,note_on,3,0,0,,4,,,88,127
39782,note_off,58,0,0,,4,,,88,127
39785,note_on,3,0,0,,2,,,86,127
39843,note_off,58,0,0,,2,,,86,127
39846,note_on,3,0,0,,4,,,88,127
39904,note_off,58,0,0,,4,,,88,127
39904,note_off,0,0,0,,11,,,46,127
39907,note_on,3,0,0,,10,,,45,127
39907,note_on,0,0,0,,5,,,89,127
39985,note_off,78,0,0,,5,,,89,127
39988,note_on,3,0,0,,0,,,84,127
40066,note_off,78,0,0,,0,,,84,127
40069,note_on,3,0,0,,4,,,88,127
40147,note_off,78,0,0,,4,,,88,127
40147,note_off,0,0,0,,10,,,45,127
40150,note_on,3,0,0,,11,,,46,127
40150,note_on,0,0,0,,2,,,86,127
40228,note_off,78,0,0,,2,,,86,127
40231,note_on,3,0,0,,0,,,84,127
40309,note_off,78,0,0,,0,,,84,127
40312,note_on,3,0,0,,11,,,82,127
40390,note_off,78,0,0,,11,,,82,127
40390,note_off,0,0,0,,11,,,46,127
40393,note_on,3,0,0,,0,,,48,127
40393,note_on,0,0,0,,5,,,77,127
40393,note_on,0,0,0,,10,,,81,127
40633,note_off,240,0,0,,10,,,81,127
40633,note_off,0,0,0,,5,,,77,127
40633,note_off,0,0,0,,0,,,48,127
40636,note_on,3,0,0,,0,,,36,127
40636,note_on,0,0,0,,7,,,79,127
40636,note_on,0,0,0,,4,,,76,127
40876,note_off,240,0,0,,4,,,76,127
40876,note_off,0,0,0,,7,,,79,127
40876,note_off,0,0,0,,0,,,36,127
40879,note_on,3,0,0,,5,,,41,127
40879,note_on,0,0,0,,5,,,77,127
41119,note_off,240,0,0,,5,,,77,127
41119,note_off,0,0,0,,5,,,41,127
41122,note_on,3,0,0,,10,,,45,127
41122,note_on,0,0,0,,0,,,72,127
41122,note_on,0,0,0,,0,,,84,127
41362,note_off,240,0,0,,0,,,72,127
41362,note_off,0,0,0,,10,,,45,127
41365,note_on,3,0,0,,11,,,46,127
41365,note_on,0,0,0,,2,,,74,127
41602,note_off,237,0,0,,0,,,84,127
41605,note_off,3,0,0,,2,,,74,127
41605,note_off,0,0,0,,11,,,46,127
41608,note_on,3,0,0,,0,,,48,127
41608,note_on,0,0,0,,4,,,76,127
41608,note_on,0,0,0,,11,,,82,127
41848,note_off,240,0,0,,11,,,82,127
41848,note_off,0,0,0,,4,,,76,127
41848,note_off,0,0,0,,0,,,48,127
41851,note_on,3,0,0,,2,,,50,127
41851,note_on,0,0,0,,5,,,77,127
41851,note_on,0,0,0,,10,,,81,127
41929,note_off,78,0,0,,10,,,81,127
41932,note_on,3,0,0,,7,,,79,127
42010,note_off,78,0,0,,7,,,79,127
42013,note_on,3,0,0,,10,,,81,127
42091,note_off,78,0,0,,10,,,81,127
42091,note_off,0,0,0,,5,,,77,127
42091,note_off,0,0,0,,2,,,50,127
42094,note_on,3,0,0,,11,,,46,127
42094,note_on,0,0,0,,7,,,79,127
42094,note_on,0,0,0,,11,,,82,127
42334,note_off,240,0,0,,11,,,82,127
42334,note_off,0,0,0,,7,,,79,127
42334,note_off,0,0,0,,11,,,46,127
42337,note_on,3,0,0,,0,,,48,127
42337,note_on,0,0,0,,5,,,77,127
42337,note_on,0,0,0,,10,,,81,127
42577,note_off,240,0,0,,10,,,81,127
42577,note_off,0,0,0,,5,,,77,127
42577,note_off,0,0,0,,0,,,48,127
42580,note_on,3,0,0,,0,,,36,127
42580,note_on,0,0,0,,4,,,76,127
42580,note_on,0,0,0,,7,,,79,127
42820,note_off,240,0,0,,7,,,79,127
42820,note_off,0,0,0,,4,,,76,127
42820,note_off,0,0,0,,0,,,36,127
42823,note_on,3,0,0,,2,,,50,127
42823,note_on,0,0,0,,5,,,77,127
42823,note_on,0,0,0,,10,,,81,127
42901,note_off,78,0,0,,10,,,81,127
42904,note_on,3,0,0,,7,,,79,127
42982,note_off,78,0,0,,7,,,79,127
42985,note_on,3,0,0,,10,,,81,127
43063,note_off,78,0,0,,10,,,81,127
43063,note_off,0,0,0,,5,,,77,127
43063,note_off,0,0,0,,2,,,50,127
43066,note_on,3,0,0,,11,,,46,127
43066,note_on,0,0,0,,7,,,79,127
43066,note_on,0,0,0,,11,,,82,127
43306,note_off,240,0,0,,11,,,82,127
43306,note_off,0,0,0,,7,,,79,127
43306,note_off,0,0,0,,11,,,46,127
43309,note_on,3,0,0,,0,,,48,127
43309,note_on,0,0,0,,5,,,77,127
43309,note_on,0,0,0,,10,,,81,127
43549,note_off,240,0,0,,10,,,81,127
43549,note_off,0,0,0,,5,,,77,127
43549,note_off,0,0,0,,0,,,48,127
43552,note_on,3,0,0,,0,,,36,127
43552,note_on,0,0,0,,4,,,76,127
43552,note_on,0,0,0,,7,,,79,127
43792,note_off,240,0,0,,7,,,79,127
43792,note_off,0,0,0,,4,,,76,127
43792,note_off,0,0,0,,0,,,36,127
43795,note_on,3,0,0,,2,,,50,127
43795,note_on,0,0,0,,10,,,81,127
43795,note_on,0,0,0,,5,,,77,127
43873,note_off,78,0,0,,10,,,81,127
43876,note_on,3,0,0,,7,,,79,127
43954,note_off,78,0,0,,7,,,79,127
43957,note_on,3,0,0,,10,,,81,127
44035,note_off,78,0,0,,10,,,81,127
44035,note_off,0,0,0,,5,,,77,127
44035,note_off,0,0,0,,2,,,50,127
44038,note_on,3,0,0,,11,,,46,127
44038,note_on,0,0,0,,7,,,79,127
44038,note_on,0,0,0,,11,,,82,127
44278,note_off,240,0,0,,11,,,82,127
44278,note_off,0,0,0,,7,,,79,127
44278,note_off,0,0,0,,11,,,46,127
44281,note_on,3,0,0,,0,,,48,127
44281,note_on,0,0,0,,10,,,81,127
44281,note_on,0,0,0,,5,,,77,127
44521,note_off,240,0,0,,5,,,77,127
44521,note_off,0,0,0,,10,,,81,127
44521,note_off,0,0,0,,0,,,48,127
44524,note_on,3,0,0,,0,,,36,127
44524,note_on,0,0,0,,4,,,76,127
44524,note_on,0,0,0,,7,,,79,127
44764,note_off,240,0,0,,7,,,79,127
44764,note_off,0,0,0,,4,,,76,127
44764,note_off,0,0,0,,0,,,36,127
44767,note_on,3,0,0,,5,,,41,127
44767,note_on,0,0,0,,7,,,79,127
44826,note_off,59,0,0,,7,,,79,127
44827,note_on,1,0,0,,5,,,77,127
44886,note_off,59,0,0,,5,,,77,127
44887,note_on,1,0,0,,7,,,79,127
44946,note_off,59,0,0,,7,,,79,127
44947,note_on,1,0,0,,5,,,77,127
45427,note_off,480,0,0,,5,,,77,127
45733,note_off,306,0,0,,5,,,41,127
45736,note_on,3,0,0,,5,,,41,127
45736,note_on,0,0,0,,5,,,77,127
45976,note_off,240,0,0,,5,,,41,127
45979,note_on,3,0,0,,5,,,53,127
46219,note_off,240,0,0,,5,,,53,127
46222,note_on,3,0,0,,5,,,65,127
46462,note_off,240,0,0,,5,,,65,127
46462,note_off,0,0,0,,5,,,77,127
46465,note_on,3,0,0,,3,,,63,127
46465,note_on,0,0,0,,11,,,82,127
46523,note_off,58,0,0,,11,,,82,127
46526,note_on,3,0,0,,10,,,81,127
46584,note_off,58,0,0,,10,,,81,127
46587,note_on,3,0,0,,7,,,79,127
46645,note_off,58,0,0,,7,,,79,127
46648,note_on,3,0,0,,10,,,81,127
46706,note_off,58,0,0,,10,,,81,127
46706,note_off,0,0,0,,3,,,63,127
46709,note_on,3,0,0,,2,,,62,127
46709,note_on,0,0,0,,11,,,82,127
46787,note_off,78,0,0,,2,,,62,127
46790,note_on,3,0,0,,0,,,60,127
46868,note_off,78,0,0,,0,,,60,127
46871,note_on,3,0,0,,11,,,58,127
46949,note_off,78,0,0,,11,,,58,127
46949,note_off,0,0,0,,11,,,82,127
46952,note_on,3,0,0,,5,,,41,127
46952,note_on,0,0,0,,5,,,77,127
47192,note_off,240,0,0,,5,,,77,127
47192,note_off,0,0,0,,5,,,41,127
47195,note_on,3,0,0,,5,,,53,127
47435,note_off,240,0,0,,5,,,53,127
47438,note_on,3,0,0,,3,,,51,127
47438,note_on,0,0,0,,11,,,82,127
47496,note_off,58,0,0,,11,,,82,127
47499,note_on,3,0,0,,10,,,81,127
47557,note_off,58,0,0,,10,,,81,127
47560,note_on,3,0,0,,7,,,79,127
47618,note_off,58,0,0,,7,,,79,127
47621,note_on,3,0,0,,10,,,81,127
47679,note_off,58,0,0,,10,,,81,127
47679,note_off,0,0,0,,3,,,51,127
47682,note_on,3,0,0,,2,,,50,127
47682,note_on,0,0,0,,11,,,82,127
47760,note_off,78,0,0,,11,,,82,127
47763,note_on,3,0,0,,0,,,84,127
47841,note_off,78,0,0,,0,,,84,127
47844,note_on,3,0,0,,2,,,86,127
47922,note_off,78,0,0,,2,,,86,127
47922,note_off,0,0,0,,2,,,50,127
47925,note_on,3,0,0,,11,,,46,127
47925,note_on,0,0,0,,2,,,74,127
47925,note_on,0,0,0,,2,,,86,127
48165,note_off,240,0,0,,2,,,86,127
48165,note_off,0,0,0,,2,,,74,127
48165,note_off,0,0,0,,11,,,46,127
48168,note_on,3,0,0,,0,,,48,127
48168,note_on,0,0,0,,2,,,86,127
48168,note_on,0,0,0,,4,,,76,127
48408,note_off,240,0,0,,4,,,76,127
48408,note_off,0,0,0,,2,,,86,127
48408,note_off,0,0,0,,0,,,48,127
48411,note_on,3,0,0,,2,,,50,127
48411,note_on,0,0,0,,2,,,86,127
48411,note_on,0,0,0,,6,,,78,127
48651,note_off,240,0,0,,6,,,78,127
48651,note_off,0,0,0,,2,,,86,127
48651,note_off,0,0,0,,2,,,50,127
48654,note_on,3,0,0,,3,,,51,127
48654,note_on,0,0,0,,2,,,86,127
48654,note_on,0,0,0,,7,,,79,127
48894,note_off,240,0,0,,7,,,79,127
48894,note_off,0,0,0,,2,,,86,127
48894,note_off,0,0,0,,3,,,51,127
48897,note_on,3,0,0,,2,,,50,127
48897,note_on,0,0,0,,0,,,84,127
49016,note_off,119,0,0,,0,,,84,127
49019,note_on,3,0,0,,11,,,82,127
49138,note_off,119,0,0,,11,,,82,127
49138,note_off,0,0,0,,2,,,50,127
49141,note_on,3,0,0,,0,,,48,127
49141,note_on,0,0,0,,10,,,81,127
49381,note_off,240,0,0,,10,,,81,127
49381,note_off,0,0,0,,0,,,48,127
49384,note_on,3,0,0,,3,,,51,127
49384,note_on,0,0,0,,7,,,79,127
49624,note_off,240,0,0,,7,,,79,127
49624,note_off,0,0,0,,3,,,51,127
49627,note_on,3,0,0,,2,,,50,127
49627,note_on,0,0,0,,6,,,78,127
49867,note_off,240,0,0,,2,,,50,127
49870,note_on,3,0,0,,2,,,62,127
50107,note_off,237,0,0,,6,,,78,127
50110,note_off,3,0,0,,2,,,62,127
50113,note_on,3,0,0,,2,,,74,127
50353,note_off,240,0,0,,2,,,74,127
50356,note_on,3,0,0,,0,,,72,127
50356,note_on,0,0,0,,7,,,91,127
50414,note_off,58,0,0,,7,,,91,127
50417,note_on,3,0,0,,6,,,90,127
50475,note_off,58,0,0,,6,,,90,127
50478,note_on,3,0,0,,4,,,88,127
50536,note_off,58,0,0,,4,,,88,127
50539,note_on,3,0,0,,6,,,90,127
50597,note_off,58,0,0,,6,,,90,127
50597,note_off,0,0,0,,0,,,72,127
50600,note_on,3,0,0,,11,,,70,127
50600,note_on,0,0,0,,7,,,91,127
50678,note_off,78,0,0,,11,,,70,127
50681,note_on,3,0,0,,10,,,69,127
50759,note_off,78,0,0,,10,,,69,127
50762,note_on,3,0,0,,7,,,67,127
50840,note_off,78,0,0,,7,,,67,127
50840,note_off,0,0,0,,7,,,91,127
50843,note_on,3,0,0,,2,,,50,127
50843,note_on,0,0,0,,2,,,86,127
51083,note_off,240,0,0,,2,,,86,127
51083,note_off,0,0,0,,2,,,50,127
51086,note_on,3,0,0,,2,,,62,127
51326,note_off,240,0,0,,2,,,62,127
51329,note_on,3,0,0,,0,,,60,127
51329,note_on,0,0,0,,7,,,79,127
51387,note_off,58,0,0,,7,,,79,127
51390,note_on,3,0,0,,6,,,78,127
51448,note_off,58,0,0,,6,,,78,127
51451,note_on,3,0,0,,4,,,76,127
51509,note_off,58,0,0,,4,,,76,127
51512,note_on,3,0,0,,6,,,78,127
51570,note_off,58,0,0,,6,,,78,127
51570,note_off,0,0,0,,0,,,60,127
51573,note_on,3,0,0,,11,,,58,127
51573,note_on,0,0,0,,7,,,79,127
51651,note_off,78,0,0,,11,,,58,127
51654,note_on,3,0,0,,10,,,57,127
51732,note_off,78,0,0,,10,,,57,127
51735,note_on,3,0,0,,7,,,55,127
51813,note_off,78,0,0,,7,,,55,127
51813,note_off,0,0,0,,7,,,79,127
51816,note_on,3,0,0,,2,,,38,127
51816,note_on,0,0,0,,2,,,74,127
52056,note_off,240,0,0,,2,,,74,127
52056,note_off,0,0,0,,2,,,38,127
52059,note_on,3,0,0,,2,,,50,127
52299,note_off,240,0,0,,2,,,50,127
52302,note_on,3,0,0,,0,,,48,127
52302,note_on,0,0,0,,7,,,67,127
52360,note_off,58,0,0,,7,,,67,127
52363,note_on,3,0,0,,6,,,66,127
52421,note_off,58,0,0,,6,,,66,127
52424,note_on,3,0,0,,4,,,64,127
52482,note_off,58,0,0,,4,,,64,127
52485,note_on,3,0,0,,6,,,66,127
52543,note_off,58,0,0,,6,,,66,127
52543,note_off,0,0,0,,0,,,48,127
52546,note_on,3,0,0,,11,,,46,127
52546,note_on,0,0,0,,7,,,67,127
52624,note_off,78,0,0,,7,,,67,127
52627,note_on,3,0,0,,10,,,69,127
52705,note_off,78,0,0,,10,,,69,127
52708,note_on,3,0,0,,11,,,70,127
52786,note_off,78,0,0,,11,,,70,127
52786,note_off,0,0,0,,11,,,46,127
52789,note_on,3,0,0,,0,,,48,127
52789,note_on,0,0,0,,10,,,69,127
52867,note_off,78,0,0,,10,,,69,127
52870,note_on,3,0,0,,11,,,70,127
52948,note_off,78,0,0,,11,,,70,127
52951,note_on,3,0,0,,0,,,72,127
53029,note_off,78,0,0,,0,,,72,127
53029,note_off,0,0,0,,0,,,48,127
53032,note_on,3,0,0,,2,,,50,127
53032,note_on,0,0,0,,11,,,70,127
53032,note_on,0,0,0,,7,,,67,127
53272,note_off,240,0,0,,7,,,67,127
53272,note_off,0,0,0,,11,,,70,127
53272,note_off,0,0,0,,2,,,50,127
53275,note_on,3,0,0,,0,,,48,127
53275,note_on,0,0,0,,5,,,65,127
53275,note_on,0,0,0,,0,,,72,127
53275,note_on,0,0,0,,8,,,68,127
53515,note_off,240,0,0,,8,,,68,127
53515,note_off,0,0,0,,0,,,72,127
53515,note_off,0,0,0,,5,,,65,127
53515,note_off,0,0,0,,0,,,48,127
53518,note_on,3,0,0,,12,,,47,127
53518,note_on,0,0,0,,5,,,65,127
53518,note_on,0,0,0,,2,,,74,127
53518,note_on,0,0,0,,7,,,67,127
53758,note_off,240,0,0,,2,,,74,127
53758,note_off,0,0,0,,5,,,65,127
53758,note_off,0,0,0,,12,,,47,127
53761,note_on,3,0,0,,0,,,48,127
53761,note_on,0,0,0,,3,,,75,127
53998,note_off,237,0,0,,7,,,67,127
54001,note_off,3,0,0,,0,,,48,127
54004,note_on,3,0,0,,5,,,53,127
54004,note_on,0,0,0,,8,,,68,127
54241,note_off,237,0,0,,3,,,75,127
54244,note_off,3,0,0,,5,,,53,127
54247,note_on,3,0,0,,11,,,46,127
54247,note_on,0,0,0,,2,,,74,127
54484,note_off,237,0,0,,8,,,68,127
54487,note_off,3,0,0,,2,,,74,127
54487,note_off,0,0,0,,11,,,46,127
54490,note_on,3,0,0,,3,,,51,127
54490,note_on,0,0,0,,7,,,79,127
54490,note_on,0,0,0,,7,,,67,127
54730,note_off,240,0,0,,7,,,79,127
54730,note_off,0,0,0,,3,,,51,127
54733,note_on,3,0,0,,5,,,53,127
54733,note_on,0,0,0,,5,,,77,127
54970,note_off,237,0,0,,7,,,67,127
54973,note_off,3,0,0,,5,,,77,127
54973,note_off,0,0,0,,5,,,53,127
54976,note_on,3,0,0,,7,,,55,127
54976,note_on,0,0,0,,3,,,75,127
55216,note_off,240,0,0,,3,,,75,127
55216,note_off,0,0,0,,7,,,55,127
55219,note_on,3,0,0,,3,,,51,127
55219,note_on,0,0,0,,2,,,74,127
55446,note_off,227,0,0,,3,,,51,127
55459,note_off,13,0,0,,2,,,74,127
55462,note_on,3,0,0,,8,,,56,127
55462,note_on,0,0,0,,0,,,72,127
55702,note_off,240,0,0,,0,,,72,127
55702,note_off,0,0,0,,8,,,56,127
55705,note_on,3,0,0,,11,,,58,127
55705,note_on,0,0,0,,11,,,70,127
55945,note_off,240,0,0,,11,,,70,127
55945,note_off,0,0,0,,11,,,58,127
55948,note_on,3,0,0,,0,,,60,127
55948,note_on,0,0,0,,11,,,70,127
56026,note_off,78,0,0,,11,,,70,127
56029,note_on,3,0,0,,8,,,68,127
56107,note_off,78,0,0,,8,,,68,127
56110,note_on,3,0,0,,11,,,70,127
56188,note_off,78,0,0,,11,,,70,127
56188,note_off,0,0,0,,0,,,60,127
56191,note_on,3,0,0,,2,,,62,127
56191,note_on,0,0,0,,8,,,68,127
56269,note_off,78,0,0,,8,,,68,127
56272,note_on,3,0,0,,7,,,67,127
56350,note_off,78,0,0,,7,,,67,127
56353,note_on,3,0,0,,5,,,65,127
56431,note_off,78,0,0,,5,,,65,127
56431,note_off,0,0,0,,2,,,62,127
56434,note_on,3,0,0,,3,,,63,127
56434,note_on,0,0,0,,7,,,67,127
56674,note_off,240,0,0,,7,,,67,127
56677,note_on,3,0,0,,3,,,75,127
56917,note_off,240,0,0,,3,,,75,127
56920,note_on,3,0,0,,1,,,73,127
57160,note_off,240,0,0,,1,,,73,127
57160,note_off,0,0,0,,3,,,63,127
57163,note_on,3,0,0,,3,,,63,127
57163,note_on,0,0,0,,12,,,71,127
57403,note_off,240,0,0,,12,,,71,127
57403,note_off,0,0,0,,3,,,63,127
57406,note_on,3,0,0,,1,,,61,127
57406,note_on,0,0,0,,11,,,70,127
57646,note_off,240,0,0,,11,,,70,127
57646,note_off,0,0,0,,1,,,61,127
57649,note_on,3,0,0,,12,,,59,127
57649,note_on,0,0,0,,8,,,68,127
57889,note_off,240,0,0,,8,,,68,127
57889,note_off,0,0,0,,12,,,59,127
57892,note_on,3,0,0,,11,,,58,127
57892,note_on,0,0,0,,7,,,67,127
58132,note_off,240,0,0,,7,,,67,127
58132,note_off,0,0,0,,11,,,58,127
58135,note_on,3,0,0,,8,,,56,127
58135,note_on,0,0,0,,4,,,64,127
58375,note_off,240,0,0,,4,,,64,127
58375,note_off,0,0,0,,8,,,56,127
58378,note_on,3,0,0,,7,,,55,127
58378,note_on,0,0,0,,3,,,63,127
58618,note_off,240,0,0,,3,,,63,127
58618,note_off,0,0,0,,7,,,55,127
58621,note_on,3,0,0,,3,,,51,127
58621,note_on,0,0,0,,3,,,75,127
58861,note_off,240,0,0,,3,,,75,127
58864,note_on,3,0,0,,1,,,73,127
59104,note_off,240,0,0,,1,,,73,127
59104,note_off,0,0,0,,3,,,51,127
59107,note_on,3,0,0,,3,,,63,127
59107,note_on,0,0,0,,12,,,71,127
59347,note_off,240,0,0,,12,,,71,127
59347,note_off,0,0,0,,3,,,63,127
59350,note_on,3,0,0,,1,,,61,127
59350,note_on,0,0,0,,11,,,70,127
59590,note_off,240,0,0,,11,,,70,127
59590,note_off,0,0,0,,1,,,61,127
59593,note_on,3,0,0,,12,,,59,127
59593,note_on,0,0,0,,8,,,68,127
59833,note_off,240,0,0,,8,,,68,127
59833,note_off,0,0,0,,12,,,59,127
59836,note_on,3,0,0,,11,,,58,127
59836,note_on,0,0,0,,7,,,67,127
60076,note_off,240,0,0,,7,,,67,127
60076,note_off,0,0,0,,11,,,58,127
60079,note_on,3,0,0,,8,,,56,127
60079,note_on,0,0,0,,4,,,64,127
60319,note_off,240,0,0,,4,,,64,127
60319,note_off,0,0,0,,8,,,56,127
60322,note_on,3,0,0,,7,,,55,127
60322,note_on,0,0,0,,3,,,63,127
60562,note_off,240,0,0,,3,,,63,127
60562,note_off,0,0,0,,7,,,55,127
60565,note_on,3,0,0,,3,,,51,127
60565,note_on,0,0,0,,1,,,73,127
60805,note_off,240,0,0,,1,,,73,127
60805,note_off,0,0,0,,3,,,51,127
60808,note_on,3,0,0,,12,,,59,127
60808,note_on,0,0,0,,8,,,56,127
60808,note_on,0,0,0,,12,,,71,127
61048,note_off,240,0,0,,12,,,71,127
61048,note_off,0,0,0,,8,,,56,127
61048,note_off,0,0,0,,12,,,59,127
61051,note_on,3,0,0,,11,,,58,127
61051,note_on,0,0,0,,1,,,61,127
61051,note_on,0,0,0,,11,,,70,127
61291,note_off,240,0,0,,11,,,70,127
61291,note_off,0,0,0,,1,,,61,127
61291,note_off,0,0,0,,11,,,58,127
61294,note_on,3,0,0,,12,,,59,127
61294,note_on,0,0,0,,3,,,63,127
61294,note_on,0,0,0,,8,,,68,127
61534,note_off,240,0,0,,3,,,63,127
61534,note_off,0,0,0,,12,,,59,127
61537,note_on,3,0,0,,4,,,64,127
61537,note_on,0,0,0,,1,,,61,127
61777,note_off,240,0,0,,1,,,61,127
61777,note_off,0,0,0,,4,,,64,127
61780,note_on,3,0,0,,12,,,59,127
61780,note_on,0,0,0,,3,,,63,127
62020,note_off,240,0,0,,3,,,63,127
62020,note_off,0,0,0,,12,,,59,127
62020,note_off,0,0,0,,8,,,68,127
62023,note_on,3,0,0,,11,,,58,127
62023,note_on,0,0,0,,1,,,61,127
62023,note_on,0,0,0,,7,,,67,127
62263,note_off,240,0,0,,7,,,67,127
62263,note_off,0,0,0,,1,,,61,127
62263,note_off,0,0,0,,11,,,58,127
62266,note_on,3,0,0,,3,,,63,127
62266,note_on,0,0,0,,12,,,59,127
62266,note_on,0,0,0,,8,,,68,127
62506,note_off,240,0,0,,12,,,59,127
62506,note_off,0,0,0,,3,,,63,127
62509,note_on,3,0,0,,1,,,61,127
62509,note_on,0,0,0,,4,,,64,127
62749,note_off,240,0,0,,4,,,64,127
62749,note_off,0,0,0,,1,,,61,127
62752,note_on,3,0,0,,12,,,59,127
62752,note_on,0,0,0,,3,,,63,127
62992,note_off,240,0,0,,3,,,63,127
62992,note_off,0,0,0,,12,,,59,127
62992,note_off,0,0,0,,8,,,68,127
62995,note_on,3,0,0,,1,,,61,127
62995,note_on,0,0,0,,11,,,58,127
62995,note_on,0,0,0,,7,,,67,127
63235,note_off,240,0,0,,7,,,67,127
63235,note_off,0,0,0,,11,,,58,127
63235,note_off,0,0,0,,1,,,61,127
63238,note_on,3,0,0,,12,,,59,127
63238,note_on,0,0,0,,3,,,63,127
63238,note_on,0,0,0,,8,,,68,127
63478,note_off,240,0,0,,8,,,68,127
63478,note_off,0,0,0,,3,,,63,127
63478,note_off,0,0,0,,12,,,59,127
63481,note_on,3,0,0,,4,,,64,127
63481,note_on,0,0,0,,1,,,61,127
63481,note_on,0,0,0,,7,,,67,127
63721,note_off,240,0,0,,7,,,67,127
63721,note_off,0,0,0,,1,,,61,127
63721,note_off,0,0,0,,4,,,64,127
63724,note_on,3,0,0,,3,,,63,127
63724,note_on,0,0,0,,12,,,59,127
63724,note_on,0,0,0,,8,,,68,127
63964,note_off,240,0,0,,8,,,68,127
63964,note_off,0,0,0,,12,,,59,127
63964,note_off,0,0,0,,3,,,63,127
63967,note_on,3,0,0,,11,,,58,127
63967,note_on,0,0,0,,1,,,61,127
63967,note_on,0,0,0,,11,,,70,127
64207,note_off,240,0,0,,11,,,70,127
64207,note_off,0,0,0,,1,,,61,127
64207,note_off,0,0,0,,11,,,58,127
64210,note_on,3,0,0,,12,,,59,127
64210,note_on,0,0,0,,8,,,56,127
64210,note_on,0,0,0,,12,,,71,127
64450,note_off,240,0,0,,12,,,59,127
64453,note_on,3,0,0,,6,,,66,127
64690,note_off,237,0,0,,8,,,56,127
64693,note_off,3,0,0,,6,,,66,127
64696,note_on,3,0,0,,5,,,65,127
64936,note_off,240,0,0,,5,,,65,127
64936,note_off,0,0,0,,12,,,71,127
64939,note_on,3,0,0,,3,,,63,127
64939,note_on,0,0,0,,6,,,78,127
65179,note_off,240,0,0,,6,,,78,127
65179,note_off,0,0,0,,3,,,63,127
65182,note_on,3,0,0,,8,,,56,127
65182,note_on,0,0,0,,2,,,62,127
65182,note_on,0,0,0,,5,,,77,127
65422,note_off,240,0,0,,5,,,77,127
65422,note_off,0,0,0,,2,,,62,127
65425,note_on,3,0,0,,12,,,59,127
65425,note_on,0,0,0,,3,,,75,127
65662,note_off,237,0,0,,8,,,56,127
65665,note_off,3,0,0,,3,,,75,127
65665,note_off,0,0,0,,12,,,59,127
65668,note_on,3,0,0,,11,,,58,127
65668,note_on,0,0,0,,2,,,74,127
65908,note_off,240,0,0,,11,,,58,127
65911,note_on,3,0,0,,8,,,56,127
66151,note_off,240,0,0,,8,,,56,127
66151,note_off,0,0,0,,2,,,74,127
66154,note_on,3,0,0,,6,,,54,127
66154,note_on,0,0,0,,3,,,75,127
66394,note_off,240,0,0,,6,,,54,127
66397,note_on,3,0,0,,5,,,65,127
66637,note_off,240,0,0,,5,,,65,127
66640,note_on,3,0,0,,3,,,63,127
66880,note_off,240,0,0,,3,,,63,127
66880,note_off,0,0,0,,3,,,75,127
66883,note_on,3,0,0,,1,,,61,127
66883,note_on,0,0,0,,5,,,77,127
67123,note_off,240,0,0,,5,,,77,127
67123,note_off,0,0,0,,1,,,61,127
67126,note_on,3,0,0,,0,,,60,127
67126,note_on,0,0,0,,6,,,54,127
67126,note_on,0,0,0,,3,,,75,127
67366,note_off,240,0,0,,3,,,75,127
67366,note_off,0,0,0,,0,,,60,127
67369,note_on,3,0,0,,11,,,58,127
67369,note_on,0,0,0,,1,,,73,127
67606,note_off,237,0,0,,6,,,54,127
67609,note_off,3,0,0,,1,,,73,127
67609,note_off,0,0,0,,11,,,58,127
67612,note_on,3,0,0,,10,,,57,127
67612,note_on,0,0,0,,0,,,72,127
67852,note_off,240,0,0,,0,,,72,127
67852,note_off,0,0,0,,10,,,57,127
67855,note_on,3,0,0,,7,,,55,127
67855,note_on,0,0,0,,11,,,70,127
67855,note_on,0,0,0,,11,,,82,127
68095,note_off,240,0,0,,11,,,82,127
68095,note_off,0,0,0,,11,,,70,127
68095,note_off,0,0,0,,7,,,55,127
68098,note_on,3,0,0,,5,,,53,127
68098,note_on,0,0,0,,5,,,65,127
68098,note_on,0,0,0,,10,,,81,127
68098,note_on,0,0,0,,0,,,72,127
68338,note_off,240,0,0,,10,,,81,127
68338,note_off,0,0,0,,5,,,65,127
68341,note_on,3,0,0,,3,,,63,127
68341,note_on,0,0,0,,7,,,79,127
68578,note_off,237,0,0,,0,,,72,127
68581,note_off,3,0,0,,7,,,79,127
68581,note_off,0,0,0,,3,,,63,127
68584,note_on,3,0,0,,2,,,62,127
68584,note_on,0,0,0,,5,,,77,127
68824,note_off,240,0,0,,5,,,77,127
68824,note_off,0,0,0,,2,,,62,127
68827,note_on,3,0,0,,0,,,60,127
68827,note_on,0,0,0,,3,,,75,127
69067,note_off,240,0,0,,3,,,75,127
69067,note_off,0,0,0,,0,,,60,127
69068,note_off,1,0,0,,5,,,53,127
69069,note_on,1,0,0,,11,,,58,127
69069,note_on,0,0,0,,3,,,75,127
69147,note_off,78,0,0,,3,,,75,127
69150,note_on,3,0,0,,2,,,74,127
69228,note_off,78,0,0,,2,,,74,127
69231,note_on,3,0,0,,3,,,75,127
69309,note_off,78,0,0,,3,,,75,127
69309,note_off,0,0,0,,11,,,58,127
69312,note_on,3,0,0,,11,,,46,127
69312,note_on,0,0,0,,2,,,74,127
69390,note_off,78,0,0,,2,,,74,127
69393,note_on,3,0,0,,0,,,72,127
69471,note_off,78,0,0,,0,,,72,127
69474,note_on,3,0,0,,2,,,74,127
69552,note_off,78,0,0,,2,,,74,127
69552,note_off,0,0,0,,11,,,46,127
69555,note_on,3,0,0,,3,,,51,127
69555,note_on,0,0,0,,3,,,75,127
69555,note_on,0,0,0,,0,,,72,127
69795,note_off,240,0,0,,0,,,72,127
69795,note_off,0,0,0,,3,,,75,127
69798,note_on,3,0,0,,11,,,70,127
69798,note_on,0,0,0,,2,,,74,127
70038,note_off,240,0,0,,2,,,74,127
70038,note_off,0,0,0,,11,,,70,127
70038,note_off,0,0,0,,3,,,51,127
70041,note_on,3,0,0,,5,,,53,127
70041,note_on,0,0,0,,10,,,69,127
70041,note_on,0,0,0,,0,,,72,127
70281,note_off,240,0,0,,5,,,53,127
70284,note_on,3,0,0,,5,,,65,127
70521,note_off,237,0,0,,0,,,72,127
70521,note_off,0,0,0,,10,,,69,127
70524,note_off,3,0,0,,5,,,65,127
70527,note_on,3,0,0,,5,,,77,127
70767,note_off,240,0,0,,5,,,77,127
70770,note_on,3,0,0,,3,,,75,127
70770,note_on,0,0,0,,11,,,82,127
70828,note_off,58,0,0,,11,,,82,127
70831,note_on,3,0,0,,10,,,81,127
70889,note_off,58,0,0,,10,,,81,127
70892,note_on,3,0,0,,7,,,79,127
70950,note_off,58,0,0,,7,,,79,127
70953,note_on,3,0,0,,10,,,81,127
71011,note_off,58,0,0,,10,,,81,127
71011,note_off,0,0,0,,3,,,75,127
71014,note_on,3,0,0,,2,,,74,127
71014,note_on,0,0,0,,11,,,82,127
71092,note_off,78,0,0,,2,,,74,127
71095,note_on,3,0,0,,0,,,72,127
71173,note_off,78,0,0,,0,,,72,127
71176,note_on,3,0,0,,11,,,70,127
71254,note_off,78,0,0,,11,,,70,127
71254,note_off,0,0,0,,11,,,82,127
71257,note_on,3,0,0,,5,,,53,127
71257,note_on,0,0,0,,5,,,77,127
71497,note_off,240,0,0,,5,,,77,127
71497,note_off,0,0,0,,5,,,53,127
71500,note_on,3,0,0,,5,,,65,127
71740,note_off,240,0,0,,5,,,65,127
71743,note_on,3,0,0,,3,,,63,127
71743,note_on,0,0,0,,11,,,82,127
71801,note_off,58,0,0,,11,,,82,127
71804,note_on,3,0,0,,10,,,81,127
71862,note_off,58,0,0,,10,,,81,127
71865,note_on,3,0,0,,7,,,79,127
71923,note_off,58,0,0,,7,,,79,127
71926,note_on,3,0,0,,10,,,81,127
71984,note_off,58,0,0,,10,,,81,127
71984,note_off,0,0,0,,3,,,63,127
71987,note_on,3,0,0,,2,,,62,127
71987,note_on,0,0,0,,11,,,82,127
72065,note_off,78,0,0,,2,,,62,127
72068,note_on,3,0,0,,0,,,60,127
72146,note_off,78,0,0,,0,,,60,127
72149,note_on,3,0,0,,11,,,58,127
72227,note_off,78,0,0,,11,,,58,127
72227,note_off,0,0,0,,11,,,82,127
72230,note_on,3,0,0,,5,,,41,127
72230,note_on,0,0,0,,5,,,77,127
72470,note_off,240,0,0,,5,,,77,127
72470,note_off,0,0,0,,5,,,41,127
72473,note_on,3,0,0,,5,,,53,127
72713,note_off,240,0,0,,5,,,53,127
72716,note_on,3,0,0,,3,,,51,127
72716,note_on,0,0,0,,11,,,82,127
72774,note_off,58,0,0,,11,,,82,127
72777,note_on,3,0,0,,10,,,81,127
72835,note_off,58,0,0,,10,,,81,127
72838,note_on,3,0,0,,7,,,79,127
72896,note_off,58,0,0,,7,,,79,127
72899,note_on,3,0,0,,10,,,81,127
72957,note_off,58,0,0,,10,,,81,127
72957,note_off,0,0,0,,3,,,51,127
72960,note_on,3,0,0,,2,,,50,127
72960,note_on,0,0,0,,11,,,82,127
73038,note_off,78,0,0,,11,,,82,127
73041,note_on,3,0,0,,5,,,77,127
73119,note_off,78,0,0,,5,,,77,127
73122,note_on,3,0,0,,10,,,81,127
73200,note_off,78,0,0,,10,,,81,127
73200,note_off,0,0,0,,2,,,50,127
73203,note_on,3,0,0,,3,,,51,127
73203,note_on,0,0,0,,7,,,79,127
73281,note_off,78,0,0,,7,,,79,127
73284,note_on,3,0,0,,5,,,77,127
73362,note_off,78,0,0,,5,,,77,127
73365,note_on,3,0,0,,3,,,75,127
73443,note_off,78,0,0,,3,,,75,127
73443,note_off,0,0,0,,3,,,51,127
73446,note_on,3,0,0,,5,,,53,127
73446,note_on,0,0,0,,2,,,74,127
73686,note_off,240,0,0,,2,,,74,127
73686,note_off,0,0,0,,5,,,53,127
73689,note_on,3,0,0,,5,,,41,127
73689,note_on,0,0,0,,0,,,72,127
73929,note_off,240,0,0,,0,,,72,127
73929,note_off,0,0,0,,5,,,41,127
73932,note_on,3,0,0,,11,,,46,127
73932,note_on,0,0,0,,11,,,70,127
74172,note_off,240,0,0,,11,,,46,127
74175,note_on,3,0,0,,11,,,58,127
74412,note_off,237,0,0,,11,,,70,127
74415,note_off,3,0,0,,11,,,58,127
74418,note_on,3,0,0,,11,,,70,127
74658,note_off,240,0,0,,11,,,70,127
74661,note_on,3,0,0,,8,,,68,127
74661,note_on,0,0,0,,3,,,87,127
74719,note_off,58,0,0,,3,,,87,127
74722,note_on,3,0,0,,2,,,86,127
74780,note_off,58,0,0,,2,,,86,127
74783,note_on,3,0,0,,0,,,84,127
74841,note_off,58,0,0,,0,,,84,127
74844,note_on,3,0,0,,2,,,86,127
74902,note_off,58,0,0,,2,,,86,127
74902,note_off,0,0,0,,8,,,68,127
74905,note_on,3,0,0,,7,,,67,127
74905,note_on,0,0,0,,3,,,87,127
74983,note_off,78,0,0,,7,,,67,127
74986,note_on,3,0,0,,5,,,65,127
75064,note_off,78,0,0,,5,,,65,127
75067,note_on,3,0,0,,3,,,63,127
75145,note_off,78,0,0,,3,,,63,127
75145,note_off,0,0,0,,3,,,87,127
75148,note_on,3,0,0,,11,,,46,127
75148,note_on,0,0,0,,11,,,82,127
75388,note_off,240,0,0,,11,,,82,127
75388,note_off,0,0,0,,11,,,46,127
75391,note_on,3,0,0,,11,,,58,127
75631,note_off,240,0,0,,11,,,58,127
75634,note_on,3,0,0,,8,,,56,127
75634,note_on,0,0,0,,3,,,87,127
75692,note_off,58,0,0,,3,,,87,127
75695,note_on,3,0,0,,2,,,86,127
75753,note_off,58,0,0,,2,,,86,127
75756,note_on,3,0,0,,0,,,84,127
75814,note_off,58,0,0,,0,,,84,127
75817,note_on,3,0,0,,2,,,86,127
75875,note_off,58,0,0,,2,,,86,127
75875,note_off,0,0,0,,8,,,56,127
75878,note_on,3,0,0,,7,,,55,127
75878,note_on,0,0,0,,3,,,87,127
75956,note_off,78,0,0,,7,,,55,127
75959,note_on,3,0,0,,5,,,53,127
76037,note_off,78,0,0,,5,,,53,127
76040,note_on,3,0,0,,3,,,51,127
76118,note_off,78,0,0,,3,,,51,127
76118,note_off,0,0,0,,3,,,87,127
76121,note_on,3,0,0,,11,,,34,127
76121,note_on,0,0,0,,11,,,82,127
76361,note_off,240,0,0,,11,,,82,127
76361,note_off,0,0,0,,11,,,34,127
76364,note_on,3,0,0,,11,,,46,127
76604,note_off,240,0,0,,11,,,46,127
76607,note_on,3,0,0,,8,,,44,127
76607,note_on,0,0,0,,3,,,87,127
76665,note_off,58,0,0,,3,,,87,127
76668,note_on,3,0,0,,2,,,86,127
76726,note_off,58,0,0,,2,,,86,127
76729,note_on,3,0,0,,0,,,84,127
76787,note_off,58,0,0,,0,,,84,127
76790,note_on,3,0,0,,2,,,86,127
76848,note_off,58,0,0,,2,,,86,127
76848,note_off,0,0,0,,8,,,44,127
76851,note_on,3,0,0,,7,,,43,127
76851,note_on,0,0,0,,3,,,87,127
76929,note_off,78,0,0,,3,,,87,127
76932,note_on,3,0,0,,5,,,89,127
77010,note_off,78,0,0,,5,,,89,127
77013,note_on,3,0,0,,7,,,91,127
77091,note_off,78,0,0,,7,,,91,127
77091,note_off,0,0,0,,7,,,43,127
77094,note_on,3,0,0,,3,,,39,127
77094,note_on,0,0,0,,7,,,79,127
77334,note_off,240,0,0,,7,,,79,127
77334,note_off,0,0,0,,3,,,39,127
77337,note_on,3,0,0,,5,,,41,127
77337,note_on,0,0,0,,10,,,81,127
77415,note_off,78,0,0,,10,,,81,127
77418,note_on,3,0,0,,11,,,82,127
77496,note_off,78,0,0,,11,,,82,127
77499,note_on,3,0,0,,0,,,84,127
77577,note_off,78,0,0,,0,,,84,127
77577,note_off,0,0,0,,5,,,41,127
77580,note_on,3,0,0,,10,,,45,127
77580,note_on,0,0,0,,3,,,75,127
77820,note_off,240,0,0,,3,,,75,127
77820,note_off,0,0,0,,10,,,45,127
77823,note_on,3,0,0,,11,,,46,127
77823,note_on,0,0,0,,2,,,74,127
77901,note_off,78,0,0,,2,,,74,127
77904,note_on,3,0,0,,3,,,75,127
77982,note_off,78,0,0,,3,,,75,127
77985,note_on,3,0,0,,5,,,77,127
78063,note_off,78,0,0,,5,,,77,127
78063,note_off,0,0,0,,11,,,46,127
78066,note_on,3,0,0,,3,,,51,127
78066,note_on,0,0,0,,3,,,75,127
78144,note_off,78,0,0,,3,,,75,127
78147,note_on,3,0,0,,2,,,74,127
78225,note_off,78,0,0,,2,,,74,127
78228,note_on,3,0,0,,0,,,72,127
78306,note_off,78,0,0,,0,,,72,127
78306,note_off,0,0,0,,3,,,51,127
78309,note_on,3,0,0,,5,,,53,127
78309,note_on,0,0,0,,2,,,74,127
78309,note_on,0,0,0,,11,,,70,127
78549,note_off,240,0,0,,11,,,70,127
78549,note_off,0,0,0,,2,,,74,127
78549,note_off,0,0,0,,5,,,53,127
78552,note_on,3,0,0,,5,,,41,127
78552,note_on,0,0,0,,10,,,69,127
78552,note_on,0,0,0,,0,,,72,127
78792,note_off,240,0,0,,0,,,72,127
78792,note_off,0,0,0,,10,,,69,127
78792,note_off,0,0,0,,5,,,41,127
78795,note_on,3,0,0,,11,,,46,127
78795,note_on,0,0,0,,11,,,70,127
79035,note_off,240,0,0,,11,,,46,127
79038,note_on,3,0,0,,11,,,58,127
79275,note_off,237,0,0,,11,,,70,127
79278,note_off,3,0,0,,11,,,58,127
79281,note_on,3,0,0,,11,,,70,127
79521,note_off,240,0,0,,11,,,70,127
79524,note_on,3,0,0,,8,,,68,127
79524,note_on,0,0,0,,3,,,87,127
79582,note_off,58,0,0,,3,,,87,127
79585,note_on,3,0,0,,2,,,86,127
79643,note_off,58,0,0,,2,,,86,127
79646,note_on,3,0,0,,0,,,84,127
79704,note_off,58,0,0,,0,,,84,127
79707,note_on,3,0,0,,2,,,86,127
79765,note_off,58,0,0,,2,,,86,127
79765,note_off,0,0,0,,8,,,68,127
79768,note_on,3,0,0,,7,,,67,127
79768,note_on,0,0,0,,3,,,87,127
79846,note_off,78,0,0,,7,,,67,127
79849,note_on,3,0,0,,5,,,65,127
79927,note_off,78,0,0,,5,,,65,127
79930,note_on,3,0,0,,3,,,63,127
80008,note_off,78,0,0,,3,,,63,127
80008,note_off,0,0,0,,3,,,87,127
80011,note_on,3,0,0,,11,,,46,127
80011,note_on,0,0,0,,11,,,82,127
80251,note_off,240,0,0,,11,,,82,127
80251,note_off,0,0,0,,11,,,46,127
80254,note_on,3,0,0,,11,,,58,127
80494,note_off,240,0,0,,11,,,58,127
80497,note_on,3,0,0,,8,,,56,127
80497,note_on,0,0,0,,3,,,87,127
80555,note_off,58,0,0,,3,,,87,127
80558,note_on,3,0,0,,2,,,86,127
80616,note_off,58,0,0,,2,,,86,127
80619,note_on,3,0,0,,0,,,84,127
80677,note_off,58,0,0,,0,,,84,127
80680,note_on,3,0,0,,2,,,86,127
80738,note_off,58,0,0,,2,,,86,127
80738,note_off,0,0,0,,8,,,56,127
80741,note_on,3,0,0,,7,,,55,127
80741,note_on,0,0,0,,3,,,87,127
80819,note_off,78,0,0,,7,,,55,127
80822,note_on,3,0,0,,5,,,53,127
80900,note_off,78,0,0,,5,,,53,127
80903,note_on,3,0,0,,3,,,51,127
80981,note_off,78,0,0,,3,,,51,127
80981,note_off,0,0,0,,3,,,87,127
80984,note_on,3,0,0,,11,,,34,127
80984,note_on,0,0,0,,11,,,82,127
81224,note_off,240,0,0,,11,,,82,127
81224,note_off,0,0,0,,11,,,34,127
81227,note_on,3,0,0,,11,,,46,127
81467,note_off,240,0,0,,11,,,46,127
81470,note_on,3,0,0,,8,,,44,127
81470,note_on,0,0,0,,3,,,87,127
81528,note_off,58,0,0,,3,,,87,127
81531,note_on,3,0,0,,2,,,86,127
81589,note_off,58,0,0,,2,,,86,127
81592,note_on,3,0,0,,0,,,84,127
81650,note_off,58,0,0,,0,,,84,127
81653,note_on,3,0,0,,2,,,86,127
81711,note_off,58,0,0,,2,,,86,127
81711,note_off,0,0,0,,8,,,44,127
81714,note_on,3,0,0,,7,,,43,127
81714,note_on,0,0,0,,3,,,87,127
81792,note_off,78,0,0,,3,,,87,127
81795,note_on,3,0,0,,5,,,89,127
81873,note_off,78,0,0,,5,,,89,127
81876,note_on,3,0,0,,7,,,91,127
81954,note_off,78,0,0,,7,,,91,127
81954,note_off,0,0,0,,7,,,43,127
81957,note_on,3,0,0,,3,,,39,127
81957,note_on,0,0,0,,7,,,79,127
82197,note_off,240,0,0,,7,,,79,127
82197,note_off,0,0,0,,3,,,39,127
82200,note_on,3,0,0,,5,,,41,127
82200,note_on,0,0,0,,10,,,81,127
82278,note_off,78,0,0,,10,,,81,127
82281,note_on,3,0,0,,11,,,82,127
82359,note_off,78,0,0,,11,,,82,127
82362,note_on,3,0,0,,0,,,84,127
82440,note_off,78,0,0,,0,,,84,127
82440,note_off,0,0,0,,5,,,41,127
82443,note_on,3,0,0,,10,,,45,127
82443,note_on,0,0,0,,3,,,75,127
82683,note_off,240,0,0,,3,,,75,127
82683,note_off,0,0,0,,10,,,45,127
82686,note_on,3,0,0,,11,,,46,127
82686,note_on,0,0,0,,2,,,74,127
82764,note_off,78,0,0,,2,,,74,127
82767,note_on,3,0,0,,3,,,75,127
82845,note_off,78,0,0,,3,,,75,127
82848,note_on,3,0,0,,5,,,77,127
82926,note_off,78,0,0,,5,,,77,127
82926,note_off,0,0,0,,11,,,46,127
82929,note_on,3,0,0,,3,,,51,127
82929,note_on,0,0,0,,7,,,67,127
83169,note_off,240,0,0,,7,,,67,127
83169,note_off,0,0,0,,3,,,51,127
83172,note_on,3,0,0,,5,,,53,127
83172,note_on,0,0,0,,10,,,69,127
83250,note_off,78,0,0,,10,,,69,127
83253,note_on,3,0,0,,11,,,70,127
83331,note_off,78,0,0,,11,,,70,127
83334,note_on,3,0,0,,0,,,72,127
83412,note_off,78,0,0,,0,,,72,127
83412,note_off,0,0,0,,5,,,53,127
83415,note_on,3,0,0,,10,,,57,127
83415,note_on,0,0,0,,3,,,63,127
83655,note_off,240,0,0,,3,,,63,127
83655,note_off,0,0,0,,10,,,57,127
83658,note_on,3,0,0,,11,,,58,127
83658,note_on,0,0,0,,2,,,62,127
83736,note_off,78,0,0,,2,,,62,127
83739,note_on,3,0,0,,3,,,63,127
83817,note_off,78,0,0,,3,,,63,127
83820,note_on,3,0,0,,5,,,65,127
83898,note_off,78,0,0,,5,,,65,127
83898,note_off,0,0,0,,11,,,58,127
83901,note_on,3,0,0,,3,,,51,127
83901,note_on,0,0,0,,3,,,63,127
83979,note_off,78,0,0,,3,,,63,127
83982,note_on,3,0,0,,2,,,62,127
84060,note_off,78,0,0,,2,,,62,127
84063,note_on,3,0,0,,0,,,60,127
84141,note_off,78,0,0,,0,,,60,127
84141,note_off,0,0,0,,3,,,51,127
84144,note_on,3,0,0,,5,,,53,127
84144,note_on,0,0,0,,2,,,62,127
84144,note_on,0,0,0,,11,,,58,127
84384,note_off,240,0,0,,11,,,58,127
84384,note_off,0,0,0,,2,,,62,127
84384,note_off,0,0,0,,5,,,53,127
84387,note_on,3,0,0,,5,,,41,127
84387,note_on,0,0,0,,0,,,60,127
84387,note_on,0,0,0,,10,,,57,127
84627,note_off,240,0,0,,10,,,57,127
84627,note_off,0,0,0,,0,,,60,127
84627,note_off,0,0,0,,5,,,41,127
84630,note_on,3,0,0,,11,,,46,127
84630,note_on,0,0,0,,0,,,60,127
84688,note_off,58,0,0,,0,,,60,127
84691,note_on,3,0,0,,11,,,58,127
84749,note_off,58,0,0,,11,,,58,127
84752,note_on,3,0,0,,0,,,60,127
84810,note_off,58,0,0,,0,,,60,127
84813,note_on,3,0,0,,11,,,58,127
87016,note_off,2203,0,0,,11,,,58,127
87016,note_off,0,0,0,,11,,,46,127
87552,end_of_track,536,1,0,,,,,,
