tick,type,time,meta,track,program,channel,pitch,tempo,note,velocity
0,copyright,0,1,0,,,,,,
0,program_change,0,0,0,6,0,,,,
0,pitchwheel,0,0,0,,0,0,,,
0,program_change,0,0,0,6,1,,,,
0,pitchwheel,0,0,0,,1,-590,,,
0,program_change,0,0,0,6,2,,,,
0,pitchwheel,0,0,0,,2,-272,,,
0,program_change,0,0,0,6,3,,,,
0,pitchwheel,0,0,0,,3,-353,,,
0,program_change,0,0,0,6,4,,,,
0,pitchwheel,0,0,0,,4,-560,,,
0,program_change,0,0,0,6,5,,,,
0,pitchwheel,0,0,0,,5,-80,,,
0,program_change,0,0,0,6,6,,,,
0,pitchwheel,0,0,0,,6,-625,,,
0,program_change,0,0,0,6,7,,,,
0,pitchwheel,0,0,0,,7,-130,,,
0,program_change,0,0,0,6,8,,,,
0,pitchwheel,0,0,0,,8,-512,,,
0,program_change,0,0,0,6,10,,,,
0,pitchwheel,0,0,0,,10,-464,,,
0,program_change,0,0,0,6,11,,,,
0,pitchwheel,0,0,0,,11,-208,,,
0,program_change,0,0,0,6,12,,,,
0,pitchwheel,0,0,0,,12,-553,,,
0,set_tempo,0,1,0,,,,500000,,
48,note_on,48,0,0,,11,,,46,127
48,note_on,0,0,0,,2,,,86,127
183,note_off,135,0,0,,2,,,86,127
183,note_off,0,0,0,,11,,,46,127
192,note_on,9,0,0,,2,,,50,127
192,note_on,0,0,0,,11,,,82,127
327,note_off,135,0,0,,11,,,82,127
327,note_off,0,0,0,,2,,,50,127
336,note_on,9,0,0,,5,,,53,127
336,note_on,0,0,0,,5,,,77,127
471,note_off,135,0,0,,5,,,77,127
471,note_off,0,0,0,,5,,,53,127
480,note_on,9,0,0,,11,,,58,127
480,note_on,0,0,0,,2,,,74,127
615,note_off,135,0,0,,2,,,74,127
615,note_off,0,0,0,,11,,,58,127
624,note_on,9,0,0,,2,,,62,127
624,note_on,0,0,0,,11,,,70,127
759,note_off,135,0,0,,11,,,70,127
759,note_off,0,0,0,,2,,,62,127
768,note_on,9,0,0,,5,,,65,127
768,note_on,0,0,0,,10,,,69,127
903,note_off,135,0,0,,10,,,69,127
903,note_off,0,0,0,,5,,,65,127
912,note_on,9,0,0,,2,,,62,127
912,note_on,0,0,0,,11,,,70,127
1197,note_off,285,0,0,,11,,,70,127
1197,note_off,0,0,0,,2,,,62,127
1200,note_on,3,0,0,,0,,,60,127
1200,note_on,0,0,0,,0,,,72,127
1485,note_off,285,0,0,,0,,,72,127
1485,note_off,0,0,0,,0,,,60,127
1488,note_on,3,0,0,,11,,,58,127
1488,note_on,0,0,0,,2,,,74,127
1773,note_off,285,0,0,,2,,,74,127
1773,note_off,0,0,0,,11,,,58,127
1776,note_on,3,0,0,,3,,,51,127
1776,note_on,0,0,0,,5,,,77,127
1911,note_off,135,0,0,,5,,,77,127
1920,note_on,9,0,0,,3,,,75,127
2061,note_off,141,0,0,,3,,,51,127
2064,note_on,3,0,0,,5,,,53,127
2205,note_off,141,0,0,,3,,,75,127
2208,note_on,3,0,0,,2,,,74,127
2349,note_off,141,0,0,,5,,,53,127
2352,note_on,3,0,0,,5,,,41,127
2493,note_off,141,0,0,,2,,,74,127
2496,note_on,3,0,0,,0,,,72,127
2631,note_off,135,0,0,,0,,,72,127
2637,note_off,6,0,0,,5,,,41,127
2640,note_on,3,0,0,,11,,,46,127
2640,note_on,0,0,0,,2,,,74,127
2640,note_on,0,0,0,,3,,,75,127
2775,note_off,135,0,0,,3,,,75,127
2775,note_off,0,0,0,,2,,,74,127
2784,note_on,9,0,0,,0,,,72,127
2919,note_off,135,0,0,,0,,,72,127
2928,note_on,9,0,0,,11,,,70,127
3063,note_off,135,0,0,,11,,,70,127
3072,note_on,9,0,0,,10,,,69,127
3207,note_off,135,0,0,,10,,,69,127
3216,note_on,9,0,0,,11,,,70,127
3501,note_off,285,0,0,,11,,,70,127
3501,note_off,0,0,0,,11,,,46,127
3504,note_on,3,0,0,,11,,,46,127
3504,note_on,0,0,0,,2,,,86,127
3639,note_off,135,0,0,,2,,,86,127
3639,note_off,0,0,0,,11,,,46,127
3648,note_on,9,0,0,,2,,,50,127
3648,note_on,0,0,0,,11,,,82,127
3783,note_off,135,0,0,,11,,,82,127
3783,note_off,0,0,0,,2,,,50,127
3792,note_on,9,0,0,,5,,,53,127
3792,note_on,0,0,0,,5,,,77,127
3927,note_off,135,0,0,,5,,,77,127
3927,note_off,0,0,0,,5,,,53,127
3936,note_on,9,0,0,,11,,,58,127
3936,note_on,0,0,0,,2,,,74,127
4071,note_off,135,0,0,,2,,,74,127
4071,note_off,0,0,0,,11,,,58,127
4080,note_on,9,0,0,,2,,,62,127
4080,note_on,0,0,0,,11,,,70,127
4215,note_off,135,0,0,,11,,,70,127
4215,note_off,0,0,0,,2,,,62,127
4224,note_on,9,0,0,,5,,,65,127
4224,note_on,0,0,0,,10,,,69,127
4359,note_off,135,0,0,,10,,,69,127
4359,note_off,0,0,0,,5,,,65,127
4368,note_on,9,0,0,,2,,,62,127
4368,note_on,0,0,0,,11,,,70,127
4653,note_off,285,0,0,,11,,,70,127
4653,note_off,0,0,0,,2,,,62,127
4656,note_on,3,0,0,,0,,,60,127
4656,note_on,0,0,0,,0,,,72,127
4941,note_off,285,0,0,,0,,,72,127
4941,note_off,0,0,0,,0,,,60,127
4944,note_on,3,0,0,,11,,,58,127
4944,note_on,0,0,0,,2,,,74,127
5229,note_off,285,0,0,,2,,,74,127
5229,note_off,0,0,0,,11,,,58,127
5232,note_on,3,0,0,,10,,,57,127
5232,note_on,0,0,0,,5,,,77,127
5367,note_off,135,0,0,,5,,,77,127
5376,note_on,9,0,0,,3,,,75,127
5517,note_off,141,0,0,,10,,,57,127
5520,note_on,3,0,0,,11,,,58,127
5661,note_off,141,0,0,,3,,,75,127
5664,note_on,3,0,0,,2,,,74,127
5799,note_off,135,0,0,,2,,,74,127
5805,note_off,6,0,0,,11,,,58,127
5808,note_on,3,0,0,,11,,,46,127
5808,note_on,0,0,0,,0,,,72,127
5943,note_off,135,0,0,,0,,,72,127
5952,note_on,9,0,0,,11,,,70,127
6087,note_off,135,0,0,,11,,,70,127
6093,note_off,6,0,0,,11,,,46,127
6096,note_on,3,0,0,,5,,,41,127
6096,note_on,0,0,0,,2,,,74,127
6144,note_on,48,0,0,,0,,,72,127
6166,note_off,22,0,0,,2,,,74,127
6192,note_on,26,0,0,,2,,,74,127
6214,note_off,22,0,0,,0,,,72,127
6240,note_on,26,0,0,,0,,,72,127
6262,note_off,22,0,0,,2,,,74,127
6288,note_on,26,0,0,,2,,,74,127
6310,note_off,22,0,0,,0,,,72,127
6336,note_on,26,0,0,,0,,,72,127
6358,note_off,22,0,0,,2,,,74,127
6384,note_on,26,0,0,,2,,,74,127
6406,note_off,22,0,0,,0,,,72,127
6432,note_on,26,0,0,,0,,,72,127
6454,note_off,22,0,0,,2,,,74,127
6956,note_off,502,0,0,,0,,,72,127
6956,note_off,0,0,0,,5,,,41,127
6959,note_on,3,0,0,,5,,,41,127
6959,note_on,0,0,0,,0,,,84,127
7094,note_off,135,0,0,,0,,,84,127
7094,note_off,0,0,0,,5,,,41,127
7103,note_on,9,0,0,,10,,,45,127
7103,note_on,0,0,0,,10,,,81,127
7238,note_off,135,0,0,,10,,,81,127
7238,note_off,0,0,0,,10,,,45,127
7247,note_on,9,0,0,,0,,,48,127
7247,note_on,0,0,0,,5,,,77,127
7382,note_off,135,0,0,,5,,,77,127
7382,note_off,0,0,0,,0,,,48,127
7391,note_on,9,0,0,,5,,,53,127
7391,note_on,0,0,0,,0,,,72,127
7526,note_off,135,0,0,,0,,,72,127
7526,note_off,0,0,0,,5,,,53,127
7535,note_on,9,0,0,,10,,,57,127
7535,note_on,0,0,0,,10,,,69,127
7670,note_off,135,0,0,,10,,,69,127
7670,note_off,0,0,0,,10,,,57,127
7679,note_on,9,0,0,,0,,,60,127
7679,note_on,0,0,0,,5,,,65,127
7814,note_off,135,0,0,,5,,,65,127
7814,note_off,0,0,0,,0,,,60,127
7823,note_on,9,0,0,,0,,,36,127
7823,note_on,0,0,0,,10,,,81,127
7871,note_on,48,0,0,,7,,,79,127
7893,note_off,22,0,0,,10,,,81,127
7919,note_on,26,0,0,,10,,,81,127
7941,note_off,22,0,0,,7,,,79,127
7967,note_on,26,0,0,,7,,,79,127
7989,note_off,22,0,0,,10,,,81,127
8015,note_on,26,0,0,,10,,,81,127
8037,note_off,22,0,0,,7,,,79,127
8063,note_on,26,0,0,,7,,,79,127
8085,note_off,22,0,0,,10,,,81,127
8109,note_off,24,0,0,,7,,,79,127
8111,note_on,2,0,0,,5,,,77,127
8396,note_off,285,0,0,,5,,,77,127
8399,note_on,3,0,0,,7,,,79,127
8684,note_off,285,0,0,,7,,,79,127
8684,note_off,0,0,0,,0,,,36,127
8687,note_on,3,0,0,,5,,,41,127
8687,note_on,0,0,0,,0,,,84,127
8822,note_off,135,0,0,,0,,,84,127
8822,note_off,0,0,0,,5,,,41,127
8831,note_on,9,0,0,,10,,,45,127
8831,note_on,0,0,0,,10,,,81,127
8966,note_off,135,0,0,,10,,,81,127
8966,note_off,0,0,0,,10,,,45,127
8975,note_on,9,0,0,,0,,,48,127
8975,note_on,0,0,0,,5,,,77,127
9110,note_off,135,0,0,,5,,,77,127
9110,note_off,0,0,0,,0,,,48,127
9119,note_on,9,0,0,,5,,,53,127
9119,note_on,0,0,0,,0,,,72,127
9254,note_off,135,0,0,,0,,,72,127
9254,note_off,0,0,0,,5,,,53,127
9263,note_on,9,0,0,,10,,,57,127
9263,note_on,0,0,0,,10,,,69,127
9398,note_off,135,0,0,,10,,,69,127
9398,note_off,0,0,0,,10,,,57,127
9407,note_on,9,0,0,,0,,,60,127
9407,note_on,0,0,0,,5,,,65,127
9542,note_off,135,0,0,,5,,,65,127
9542,note_off,0,0,0,,0,,,60,127
9551,note_on,9,0,0,,0,,,36,127
9551,note_on,0,0,0,,10,,,81,127
9599,note_on,48,0,0,,7,,,79,127
9621,note_off,22,0,0,,10,,,81,127
9647,note_on,26,0,0,,10,,,81,127
9669,note_off,22,0,0,,7,,,79,127
9695,note_on,26,0,0,,7,,,79,127
9717,note_off,22,0,0,,10,,,81,127
9743,note_on,26,0,0,,10,,,81,127
9765,note_off,22,0,0,,7,,,79,127
9791,note_on,26,0,0,,7,,,79,127
9813,note_off,22,0,0,,10,,,81,127
9837,note_off,24,0,0,,7,,,79,127
9839,note_on,2,0,0,,5,,,77,127
10124,note_off,285,0,0,,5,,,77,127
10127,note_on,3,0,0,,7,,,79,127
10412,note_off,285,0,0,,7,,,79,127
10412,note_off,0,0,0,,0,,,36,127
10415,note_on,3,0,0,,5,,,41,127
10415,note_on,0,0,0,,5,,,89,127
10550,note_off,135,0,0,,5,,,89,127
10550,note_off,0,0,0,,5,,,41,127
10559,note_on,9,0,0,,10,,,45,127
10559,note_on,0,0,0,,0,,,84,127
10694,note_off,135,0,0,,0,,,84,127
10694,note_off,0,0,0,,10,,,45,127
10703,note_on,9,0,0,,0,,,48,127
10703,note_on,0,0,0,,10,,,81,127
10838,note_off,135,0,0,,10,,,81,127
10838,note_off,0,0,0,,0,,,48,127
10847,note_on,9,0,0,,5,,,53,127
10847,note_on,0,0,0,,5,,,77,127
10982,note_off,135,0,0,,5,,,77,127
10982,note_off,0,0,0,,5,,,53,127
10991,note_on,9,0,0,,10,,,57,127
10991,note_on,0,0,0,,0,,,72,127
11126,note_off,135,0,0,,0,,,72,127
11126,note_off,0,0,0,,10,,,57,127
11135,note_on,9,0,0,,0,,,60,127
11135,note_on,0,0,0,,10,,,69,127
11270,note_off,135,0,0,,10,,,69,127
11270,note_off,0,0,0,,0,,,60,127
11279,note_on,9,0,0,,11,,,46,127
11279,note_on,0,0,0,,5,,,77,127
11414,note_off,135,0,0,,5,,,77,127
11423,note_on,9,0,0,,2,,,74,127
11558,note_off,135,0,0,,2,,,74,127
11564,note_off,6,0,0,,11,,,46,127
11567,note_on,3,0,0,,11,,,46,127
11567,note_on,0,0,0,,11,,,70,127
11702,note_off,135,0,0,,11,,,70,127
11711,note_on,9,0,0,,5,,,65,127
11846,note_off,135,0,0,,5,,,65,127
11852,note_off,6,0,0,,11,,,46,127
11855,note_on,3,0,0,,11,,,46,127
11855,note_on,0,0,0,,2,,,62,127
11990,note_off,135,0,0,,2,,,62,127
11999,note_on,9,0,0,,11,,,58,127
12134,note_off,135,0,0,,11,,,58,127
12140,note_off,6,0,0,,11,,,46,127
12143,note_on,3,0,0,,0,,,48,127
12143,note_on,0,0,0,,10,,,57,127
12479,note_on,336,0,0,,7,,,55,127
12501,note_off,22,0,0,,10,,,57,127
12527,note_on,26,0,0,,10,,,57,127
12549,note_off,22,0,0,,7,,,55,127
12575,note_on,26,0,0,,7,,,55,127
12597,note_off,22,0,0,,10,,,57,127
12623,note_on,26,0,0,,10,,,57,127
12645,note_off,22,0,0,,7,,,55,127
12671,note_on,26,0,0,,7,,,55,127
12693,note_off,22,0,0,,10,,,57,127
12715,note_off,22,0,0,,0,,,48,127
12718,note_on,3,0,0,,0,,,36,127
12718,note_on,0,0,0,,10,,,57,127
12740,note_off,22,0,0,,7,,,55,127
12766,note_on,26,0,0,,7,,,55,127
12788,note_off,22,0,0,,10,,,57,127
12814,note_on,26,0,0,,10,,,57,127
12836,note_off,22,0,0,,7,,,55,127
12862,note_on,26,0,0,,7,,,55,127
12884,note_off,22,0,0,,10,,,57,127
12910,note_on,26,0,0,,5,,,53,127
12932,note_off,22,0,0,,7,,,55,127
12958,note_on,26,0,0,,7,,,55,127
12980,note_off,22,0,0,,5,,,53,127
13002,note_off,22,0,0,,0,,,36,127
13004,note_off,2,0,0,,7,,,55,127
13006,note_on,2,0,0,,5,,,41,127
13006,note_on,0,0,0,,5,,,53,127
13198,note_on,192,0,0,,0,,,60,127
13216,note_off,18,0,0,,5,,,53,127
13246,note_on,30,0,0,,2,,,62,127
13268,note_off,22,0,0,,0,,,60,127
13294,note_on,26,0,0,,4,,,64,127
13316,note_off,22,0,0,,2,,,62,127
13342,note_on,26,0,0,,5,,,65,127
13364,note_off,22,0,0,,4,,,64,127
13390,note_on,26,0,0,,7,,,67,127
13412,note_off,22,0,0,,5,,,65,127
13438,note_on,26,0,0,,10,,,69,127
13460,note_off,22,0,0,,7,,,67,127
13486,note_on,26,0,0,,11,,,70,127
13508,note_off,22,0,0,,10,,,69,127
13534,note_on,26,0,0,,0,,,72,127
13556,note_off,22,0,0,,11,,,70,127
13582,note_on,26,0,0,,2,,,74,127
13604,note_off,22,0,0,,0,,,72,127
13630,note_on,26,0,0,,4,,,76,127
13652,note_off,22,0,0,,2,,,74,127
13678,note_on,26,0,0,,5,,,77,127
13700,note_off,22,0,0,,4,,,76,127
13726,note_on,26,0,0,,7,,,79,127
13748,note_off,22,0,0,,5,,,77,127
13774,note_on,26,0,0,,10,,,81,127
13796,note_off,22,0,0,,7,,,79,127
13822,note_on,26,0,0,,11,,,82,127
13844,note_off,22,0,0,,10,,,81,127
13866,note_off,22,0,0,,5,,,41,127
13868,note_off,2,0,0,,11,,,82,127
13870,note_on,2,0,0,,5,,,41,127
13870,note_on,0,0,0,,0,,,84,127
14005,note_off,135,0,0,,0,,,84,127
14005,note_off,0,0,0,,5,,,41,127
14014,note_on,9,0,0,,10,,,45,127
14014,note_on,0,0,0,,10,,,81,127
14149,note_off,135,0,0,,10,,,81,127
14149,note_off,0,0,0,,10,,,45,127
14158,note_on,9,0,0,,0,,,48,127
14158,note_on,0,0,0,,5,,,77,127
14293,note_off,135,0,0,,5,,,77,127
14293,note_off,0,0,0,,0,,,48,127
14302,note_on,9,0,0,,5,,,53,127
14302,note_on,0,0,0,,0,,,72,127
14437,note_off,135,0,0,,0,,,72,127
14437,note_off,0,0,0,,5,,,53,127
14446,note_on,9,0,0,,10,,,57,127
14446,note_on,0,0,0,,10,,,69,127
14581,note_off,135,0,0,,10,,,69,127
14581,note_off,0,0,0,,10,,,57,127
14590,note_on,9,0,0,,0,,,60,127
14590,note_on,0,0,0,,5,,,65,127
14725,note_off,135,0,0,,5,,,65,127
14725,note_off,0,0,0,,0,,,60,127
14734,note_on,9,0,0,,0,,,36,127
14734,note_on,0,0,0,,10,,,81,127
14782,note_on,48,0,0,,7,,,79,127
14804,note_off,22,0,0,,10,,,81,127
14830,note_on,26,0,0,,10,,,81,127
14852,note_off,22,0,0,,7,,,79,127
14878,note_on,26,0,0,,7,,,79,127
14900,note_off,22,0,0,,10,,,81,127
14926,note_on,26,0,0,,10,,,81,127
14948,note_off,22,0,0,,7,,,79,127
14974,note_on,26,0,0,,7,,,79,127
14996,note_off,22,0,0,,10,,,81,127
15020,note_off,24,0,0,,7,,,79,127
15022,note_on,2,0,0,,5,,,77,127
15307,note_off,285,0,0,,5,,,77,127
15310,note_on,3,0,0,,7,,,79,127
15595,note_off,285,0,0,,7,,,79,127
15595,note_off,0,0,0,,0,,,36,127
15598,note_on,3,0,0,,5,,,41,127
15598,note_on,0,0,0,,0,,,84,127
15733,note_off,135,0,0,,0,,,84,127
15733,note_off,0,0,0,,5,,,41,127
15742,note_on,9,0,0,,10,,,45,127
15742,note_on,0,0,0,,10,,,81,127
15877,note_off,135,0,0,,10,,,81,127
15877,note_off,0,0,0,,10,,,45,127
15886,note_on,9,0,0,,0,,,48,127
15886,note_on,0,0,0,,5,,,77,127
16021,note_off,135,0,0,,5,,,77,127
16021,note_off,0,0,0,,0,,,48,127
16030,note_on,9,0,0,,5,,,53,127
16030,note_on,0,0,0,,0,,,72,127
16165,note_off,135,0,0,,0,,,72,127
16165,note_off,0,0,0,,5,,,53,127
16174,note_on,9,0,0,,10,,,57,127
16174,note_on,0,0,0,,10,,,69,127
16309,note_off,135,0,0,,10,,,69,127
16309,note_off,0,0,0,,10,,,57,127
16318,note_on,9,0,0,,0,,,60,127
16318,note_on,0,0,0,,5,,,65,127
16453,note_off,135,0,0,,5,,,65,127
16453,note_off,0,0,0,,0,,,60,127
16462,note_on,9,0,0,,0,,,36,127
16462,note_on,0,0,0,,10,,,81,127
16510,note_on,48,0,0,,7,,,79,127
16532,note_off,22,0,0,,10,,,81,127
16558,note_on,26,0,0,,10,,,81,127
16580,note_off,22,0,0,,7,,,79,127
16606,note_on,26,0,0,,7,,,79,127
16628,note_off,22,0,0,,10,,,81,127
16654,note_on,26,0,0,,10,,,81,127
16676,note_off,22,0,0,,7,,,79,127
16702,note_on,26,0,0,,7,,,79,127
16724,note_off,22,0,0,,10,,,81,127
16748,note_off,24,0,0,,7,,,79,127
16750,note_on,2,0,0,,5,,,77,127
17035,note_off,285,0,0,,5,,,77,127
17038,note_on,3,0,0,,7,,,79,127
17323,note_off,285,0,0,,7,,,79,127
17323,note_off,0,0,0,,0,,,36,127
17326,note_on,3,0,0,,5,,,41,127
17326,note_on,0,0,0,,5,,,89,127
17461,note_off,135,0,0,,5,,,89,127
17461,note_off,0,0,0,,5,,,41,127
17470,note_on,9,0,0,,10,,,45,127
17470,note_on,0,0,0,,0,,,84,127
17605,note_off,135,0,0,,0,,,84,127
17605,note_off,0,0,0,,10,,,45,127
17614,note_on,9,0,0,,0,,,48,127
17614,note_on,0,0,0,,10,,,81,127
17749,note_off,135,0,0,,10,,,81,127
17749,note_off,0,0,0,,0,,,48,127
17758,note_on,9,0,0,,5,,,53,127
17758,note_on,0,0,0,,5,,,77,127
17893,note_off,135,0,0,,5,,,77,127
17893,note_off,0,0,0,,5,,,53,127
17902,note_on,9,0,0,,10,,,57,127
17902,note_on,0,0,0,,0,,,72,127
18037,note_off,135,0,0,,0,,,72,127
18037,note_off,0,0,0,,10,,,57,127
18046,note_on,9,0,0,,0,,,60,127
18046,note_on,0,0,0,,10,,,69,127
18181,note_off,135,0,0,,10,,,69,127
18181,note_off,0,0,0,,0,,,60,127
18190,note_on,9,0,0,,11,,,46,127
18190,note_on,0,0,0,,5,,,77,127
18325,note_off,135,0,0,,5,,,77,127
18334,note_on,9,0,0,,2,,,74,127
18469,note_off,135,0,0,,2,,,74,127
18475,note_off,6,0,0,,11,,,46,127
18478,note_on,3,0,0,,11,,,46,127
18478,note_on,0,0,0,,11,,,70,127
18613,note_off,135,0,0,,11,,,70,127
18622,note_on,9,0,0,,5,,,65,127
18757,note_off,135,0,0,,5,,,65,127
18763,note_off,6,0,0,,11,,,46,127
18766,note_on,3,0,0,,11,,,46,127
18766,note_on,0,0,0,,2,,,62,127
18901,note_off,135,0,0,,2,,,62,127
18910,note_on,9,0,0,,11,,,58,127
19045,note_off,135,0,0,,11,,,58,127
19051,note_off,6,0,0,,11,,,46,127
19054,note_on,3,0,0,,0,,,48,127
19054,note_on,0,0,0,,10,,,57,127
19390,note_on,336,0,0,,7,,,55,127
19411,note_off,21,0,0,,10,,,57,127
19438,note_on,27,0,0,,10,,,57,127
19460,note_off,22,0,0,,7,,,55,127
19486,note_on,26,0,0,,7,,,55,127
19508,note_off,22,0,0,,10,,,57,127
19534,note_on,26,0,0,,10,,,57,127
19556,note_off,22,0,0,,7,,,55,127
19582,note_on,26,0,0,,7,,,55,127
19604,note_off,22,0,0,,10,,,57,127
19626,note_off,22,0,0,,0,,,48,127
19629,note_on,3,0,0,,0,,,36,127
19629,note_on,0,0,0,,10,,,57,127
19651,note_off,22,0,0,,7,,,55,127
19677,note_on,26,0,0,,7,,,55,127
19699,note_off,22,0,0,,10,,,57,127
19725,note_on,26,0,0,,10,,,57,127
19747,note_off,22,0,0,,7,,,55,127
19773,note_on,26,0,0,,7,,,55,127
19795,note_off,22,0,0,,10,,,57,127
19821,note_on,26,0,0,,5,,,53,127
19843,note_off,22,0,0,,7,,,55,127
19869,note_on,26,0,0,,7,,,55,127
19891,note_off,22,0,0,,5,,,53,127
19913,note_off,22,0,0,,0,,,36,127
19915,note_off,2,0,0,,7,,,55,127
19917,note_on,2,0,0,,5,,,41,127
19917,note_on,0,0,0,,5,,,53,127
20094,note_off,177,0,0,,5,,,53,127
20097,note_on,3,0,0,,7,,,55,127
20130,note_off,33,0,0,,7,,,55,127
20133,note_on,3,0,0,,10,,,57,127
20166,note_off,33,0,0,,10,,,57,127
20169,note_on,3,0,0,,11,,,58,127
20202,note_off,33,0,0,,11,,,58,127
20205,note_on,3,0,0,,0,,,60,127
20340,note_off,135,0,0,,0,,,60,127
20349,note_on,9,0,0,,2,,,62,127
20418,note_off,69,0,0,,2,,,62,127
20421,note_on,3,0,0,,4,,,64,127
20490,note_off,69,0,0,,4,,,64,127
20493,note_on,3,0,0,,5,,,65,127
20562,note_off,69,0,0,,5,,,65,127
20565,note_on,3,0,0,,7,,,67,127
20634,note_off,69,0,0,,7,,,67,127
20637,note_on,3,0,0,,10,,,69,127
20706,note_off,69,0,0,,10,,,69,127
20709,note_on,3,0,0,,11,,,70,127
20778,note_off,69,0,0,,11,,,70,127
20778,note_off,0,0,0,,5,,,41,127
20781,note_on,3,0,0,,5,,,41,127
20781,note_on,0,0,0,,0,,,72,127
20916,note_off,135,0,0,,0,,,72,127
20925,note_on,9,0,0,,2,,,74,127
20994,note_off,69,0,0,,2,,,74,127
20997,note_on,3,0,0,,4,,,76,127
21066,note_off,69,0,0,,4,,,76,127
21069,note_on,3,0,0,,5,,,77,127
21354,note_off,285,0,0,,5,,,77,127
21357,note_on,3,0,0,,5,,,77,127
21642,note_off,285,0,0,,5,,,77,127
21642,note_off,0,0,0,,5,,,41,127
21645,note_on,3,0,0,,11,,,46,127
21645,note_on,0,0,0,,2,,,74,127
21780,note_off,135,0,0,,2,,,74,127
21789,note_on,9,0,0,,0,,,72,127
21858,note_off,69,0,0,,0,,,72,127
21861,note_on,3,0,0,,11,,,70,127
21930,note_off,69,0,0,,11,,,70,127
21930,note_off,0,0,0,,11,,,46,127
21933,note_on,3,0,0,,0,,,48,127
21933,note_on,0,0,0,,10,,,69,127
22218,note_off,285,0,0,,10,,,69,127
22221,note_on,3,0,0,,0,,,36,127
22221,note_on,0,0,0,,10,,,69,127
22269,note_on,48,0,0,,7,,,67,127
22291,note_off,22,0,0,,10,,,69,127
22317,note_on,26,0,0,,10,,,69,127
22339,note_off,22,0,0,,7,,,67,127
22365,note_on,26,0,0,,7,,,67,127
22387,note_off,22,0,0,,10,,,69,127
22413,note_on,26,0,0,,5,,,65,127
22435,note_off,22,0,0,,7,,,67,127
22461,note_on,26,0,0,,7,,,67,127
22483,note_off,22,0,0,,5,,,65,127
22505,note_off,22,0,0,,0,,,36,127
22507,note_off,2,0,0,,7,,,67,127
22507,note_off,0,0,0,,0,,,48,127
22509,note_on,2,0,0,,5,,,41,127
22509,note_on,0,0,0,,5,,,65,127
22686,note_off,177,0,0,,5,,,65,127
22689,note_on,3,0,0,,7,,,67,127
22722,note_off,33,0,0,,7,,,67,127
22725,note_on,3,0,0,,10,,,69,127
22758,note_off,33,0,0,,10,,,69,127
22761,note_on,3,0,0,,11,,,70,127
22794,note_off,33,0,0,,11,,,70,127
22797,note_on,3,0,0,,0,,,72,127
22932,note_off,135,0,0,,0,,,72,127
22941,note_on,9,0,0,,2,,,74,127
23010,note_off,69,0,0,,2,,,74,127
23013,note_on,3,0,0,,4,,,76,127
23082,note_off,69,0,0,,4,,,76,127
23085,note_on,3,0,0,,5,,,77,127
23154,note_off,69,0,0,,5,,,77,127
23157,note_on,3,0,0,,7,,,79,127
23226,note_off,69,0,0,,7,,,79,127
23229,note_on,3,0,0,,10,,,81,127
23298,note_off,69,0,0,,10,,,81,127
23301,note_on,3,0,0,,11,,,82,127
23370,note_off,69,0,0,,11,,,82,127
23370,note_off,0,0,0,,5,,,41,127
23373,note_on,3,0,0,,5,,,41,127
23373,note_on,0,0,0,,0,,,84,127
23508,note_off,135,0,0,,0,,,84,127
23517,note_on,9,0,0,,2,,,86,127
23586,note_off,69,0,0,,2,,,86,127
23589,note_on,3,0,0,,4,,,88,127
23658,note_off,69,0,0,,4,,,88,127
23661,note_on,3,0,0,,5,,,89,127
23946,note_off,285,0,0,,5,,,89,127
23949,note_on,3,0,0,,5,,,89,127
24234,note_off,285,0,0,,5,,,89,127
24234,note_off,0,0,0,,5,,,41,127
24237,note_on,3,0,0,,11,,,46,127
24237,note_on,0,0,0,,2,,,86,127
24372,note_off,135,0,0,,2,,,86,127
24381,note_on,9,0,0,,0,,,84,127
24450,note_off,69,0,0,,0,,,84,127
24453,note_on,3,0,0,,11,,,82,127
24522,note_off,69,0,0,,11,,,82,127
24522,note_off,0,0,0,,11,,,46,127
24525,note_on,3,0,0,,0,,,48,127
24525,note_on,0,0,0,,10,,,81,127
24810,note_off,285,0,0,,10,,,81,127
24813,note_on,3,0,0,,0,,,36,127
24813,note_on,0,0,0,,10,,,81,127
24861,note_on,48,0,0,,7,,,79,127
24883,note_off,22,0,0,,10,,,81,127
24909,note_on,26,0,0,,10,,,81,127
24931,note_off,22,0,0,,7,,,79,127
24957,note_on,26,0,0,,7,,,79,127
24979,note_off,22,0,0,,10,,,81,127
25005,note_on,26,0,0,,5,,,77,127
25027,note_off,22,0,0,,7,,,79,127
25053,note_on,26,0,0,,7,,,79,127
25075,note_off,22,0,0,,5,,,77,127
25097,note_off,22,0,0,,0,,,36,127
25099,note_off,2,0,0,,7,,,79,127
25099,note_off,0,0,0,,0,,,48,127
25101,note_on,2,0,0,,5,,,41,127
25101,note_on,0,0,0,,5,,,77,127
25962,note_off,861,0,0,,5,,,77,127
25962,note_off,0,0,0,,5,,,41,127
25965,note_on,3,0,0,,2,,,38,127
25965,note_on,0,0,0,,2,,,86,127
26100,note_off,135,0,0,,2,,,86,127
26100,note_off,0,0,0,,2,,,38,127
26109,note_on,9,0,0,,6,,,42,127
26109,note_on,0,0,0,,10,,,81,127
26244,note_off,135,0,0,,10,,,81,127
26244,note_off,0,0,0,,6,,,42,127
26253,note_on,9,0,0,,10,,,45,127
26253,note_on,0,0,0,,6,,,78,127
26388,note_off,135,0,0,,6,,,78,127
26388,note_off,0,0,0,,10,,,45,127
26397,note_on,9,0,0,,2,,,50,127
26397,note_on,0,0,0,,2,,,74,127
26532,note_off,135,0,0,,2,,,74,127
26532,note_off,0,0,0,,2,,,50,127
26541,note_on,9,0,0,,6,,,54,127
26541,note_on,0,0,0,,10,,,69,127
26676,note_off,135,0,0,,10,,,69,127
26676,note_off,0,0,0,,6,,,54,127
26685,note_on,9,0,0,,10,,,57,127
26685,note_on,0,0,0,,2,,,62,127
26820,note_off,135,0,0,,2,,,62,127
26820,note_off,0,0,0,,10,,,57,127
26829,note_on,9,0,0,,7,,,43,127
26829,note_on,0,0,0,,7,,,55,127
26829,note_on,0,0,0,,0,,,72,127
26877,note_on,48,0,0,,11,,,70,127
26899,note_off,22,0,0,,0,,,72,127
26925,note_on,26,0,0,,0,,,72,127
26947,note_off,22,0,0,,11,,,70,127
26973,note_on,26,0,0,,11,,,70,127
26995,note_off,22,0,0,,0,,,72,127
27021,note_on,26,0,0,,0,,,72,127
27043,note_off,22,0,0,,11,,,70,127
27069,note_on,26,0,0,,11,,,70,127
27091,note_off,22,0,0,,0,,,72,127
27115,note_off,24,0,0,,11,,,70,127
27117,note_on,2,0,0,,10,,,69,127
27402,note_off,285,0,0,,10,,,69,127
27405,note_on,3,0,0,,11,,,70,127
27690,note_off,285,0,0,,11,,,70,127
27690,note_off,0,0,0,,7,,,55,127
27690,note_off,0,0,0,,7,,,43,127
27693,note_on,3,0,0,,2,,,38,127
27693,note_on,0,0,0,,2,,,86,127
27828,note_off,135,0,0,,2,,,86,127
27828,note_off,0,0,0,,2,,,38,127
27837,note_on,9,0,0,,6,,,42,127
27837,note_on,0,0,0,,10,,,81,127
27972,note_off,135,0,0,,10,,,81,127
27972,note_off,0,0,0,,6,,,42,127
27981,note_on,9,0,0,,10,,,45,127
27981,note_on,0,0,0,,6,,,78,127
28116,note_off,135,0,0,,6,,,78,127
28116,note_off,0,0,0,,10,,,45,127
28125,note_on,9,0,0,,2,,,50,127
28125,note_on,0,0,0,,2,,,74,127
28260,note_off,135,0,0,,2,,,74,127
28260,note_off,0,0,0,,2,,,50,127
28269,note_on,9,0,0,,6,,,54,127
28269,note_on,0,0,0,,10,,,69,127
28404,note_off,135,0,0,,10,,,69,127
28404,note_off,0,0,0,,6,,,54,127
28413,note_on,9,0,0,,10,,,57,127
28413,note_on,0,0,0,,2,,,62,127
28548,note_off,135,0,0,,2,,,62,127
28548,note_off,0,0,0,,10,,,57,127
28557,note_on,9,0,0,,7,,,55,127
28557,note_on,0,0,0,,7,,,43,127
28557,note_on,0,0,0,,0,,,72,127
28605,note_on,48,0,0,,11,,,70,127
28627,note_off,22,0,0,,0,,,72,127
28653,note_on,26,0,0,,0,,,72,127
28675,note_off,22,0,0,,11,,,70,127
28701,note_on,26,0,0,,11,,,70,127
28723,note_off,22,0,0,,0,,,72,127
28749,note_on,26,0,0,,0,,,72,127
28771,note_off,22,0,0,,11,,,70,127
28797,note_on,26,0,0,,11,,,70,127
28819,note_off,22,0,0,,0,,,72,127
28843,note_off,24,0,0,,11,,,70,127
28845,note_on,2,0,0,,10,,,69,127
29130,note_off,285,0,0,,10,,,69,127
29133,note_on,3,0,0,,11,,,70,127
29418,note_off,285,0,0,,11,,,70,127
29418,note_off,0,0,0,,7,,,43,127
29418,note_off,0,0,0,,7,,,55,127
29421,note_on,3,0,0,,0,,,36,127
29421,note_on,0,0,0,,0,,,84,127
29556,note_off,135,0,0,,0,,,84,127
29556,note_off,0,0,0,,0,,,36,127
29565,note_on,9,0,0,,4,,,40,127
29565,note_on,0,0,0,,7,,,79,127
29700,note_off,135,0,0,,7,,,79,127
29700,note_off,0,0,0,,4,,,40,127
29709,note_on,9,0,0,,7,,,43,127
29709,note_on,0,0,0,,4,,,76,127
29844,note_off,135,0,0,,4,,,76,127
29844,note_off,0,0,0,,7,,,43,127
29853,note_on,9,0,0,,0,,,48,127
29853,note_on,0,0,0,,0,,,72,127
29988,note_off,135,0,0,,0,,,72,127
29988,note_off,0,0,0,,0,,,48,127
29997,note_on,9,0,0,,4,,,52,127
29997,note_on,0,0,0,,7,,,67,127
30132,note_off,135,0,0,,7,,,67,127
30132,note_off,0,0,0,,4,,,52,127
30141,note_on,9,0,0,,7,,,55,127
30141,note_on,0,0,0,,0,,,60,127
30276,note_off,135,0,0,,0,,,60,127
30276,note_off,0,0,0,,7,,,55,127
30285,note_on,9,0,0,,5,,,53,127
30285,note_on,0,0,0,,5,,,41,127
30285,note_on,0,0,0,,11,,,70,127
30333,note_on,48,0,0,,10,,,69,127
30355,note_off,22,0,0,,11,,,70,127
30381,note_on,26,0,0,,11,,,70,127
30403,note_off,22,0,0,,10,,,69,127
30429,note_on,26,0,0,,10,,,69,127
30451,note_off,22,0,0,,11,,,70,127
30477,note_on,26,0,0,,11,,,70,127
30499,note_off,22,0,0,,10,,,69,127
30525,note_on,26,0,0,,10,,,69,127
30547,note_off,22,0,0,,11,,,70,127
30571,note_off,24,0,0,,10,,,69,127
30573,note_on,2,0,0,,7,,,67,127
30858,note_off,285,0,0,,7,,,67,127
30861,note_on,3,0,0,,10,,,69,127
31146,note_off,285,0,0,,10,,,69,127
31146,note_off,0,0,0,,5,,,41,127
31146,note_off,0,0,0,,5,,,53,127
31149,note_on,3,0,0,,0,,,36,127
31149,note_on,0,0,0,,0,,,84,127
31284,note_off,135,0,0,,0,,,84,127
31284,note_off,0,0,0,,0,,,36,127
31293,note_on,9,0,0,,4,,,40,127
31293,note_on,0,0,0,,7,,,79,127
31428,note_off,135,0,0,,7,,,79,127
31428,note_off,0,0,0,,4,,,40,127
31437,note_on,9,0,0,,7,,,43,127
31437,note_on,0,0,0,,4,,,76,127
31572,note_off,135,0,0,,4,,,76,127
31572,note_off,0,0,0,,7,,,43,127
31581,note_on,9,0,0,,0,,,48,127
31581,note_on,0,0,0,,0,,,72,127
31716,note_off,135,0,0,,0,,,72,127
31716,note_off,0,0,0,,0,,,48,127
31725,note_on,9,0,0,,4,,,52,127
31725,note_on,0,0,0,,7,,,67,127
31860,note_off,135,0,0,,7,,,67,127
31860,note_off,0,0,0,,4,,,52,127
31869,note_on,9,0,0,,7,,,55,127
31869,note_on,0,0,0,,0,,,60,127
32004,note_off,135,0,0,,0,,,60,127
32004,note_off,0,0,0,,7,,,55,127
32013,note_on,9,0,0,,5,,,53,127
32013,note_on,0,0,0,,5,,,41,127
32013,note_on,0,0,0,,11,,,70,127
32061,note_on,48,0,0,,10,,,69,127
32083,note_off,22,0,0,,11,,,70,127
32109,note_on,26,0,0,,11,,,70,127
32131,note_off,22,0,0,,10,,,69,127
32157,note_on,26,0,0,,10,,,69,127
32179,note_off,22,0,0,,11,,,70,127
32205,note_on,26,0,0,,11,,,70,127
32227,note_off,22,0,0,,10,,,69,127
32253,note_on,26,0,0,,10,,,69,127
32275,note_off,22,0,0,,11,,,70,127
32299,note_off,24,0,0,,10,,,69,127
32301,note_on,2,0,0,,7,,,67,127
32586,note_off,285,0,0,,7,,,67,127
32589,note_on,3,0,0,,10,,,69,127
32874,note_off,285,0,0,,10,,,69,127
32874,note_off,0,0,0,,5,,,41,127
32874,note_off,0,0,0,,5,,,53,127
32877,note_on,3,0,0,,5,,,41,127
32877,note_on,0,0,0,,0,,,84,127
33012,note_off,135,0,0,,0,,,84,127
33012,note_off,0,0,0,,5,,,41,127
33021,note_on,9,0,0,,10,,,45,127
33021,note_on,0,0,0,,10,,,81,127
33156,note_off,135,0,0,,10,,,81,127
33156,note_off,0,0,0,,10,,,45,127
33165,note_on,9,0,0,,0,,,48,127
33165,note_on,0,0,0,,5,,,77,127
33300,note_off,135,0,0,,5,,,77,127
33300,note_off,0,0,0,,0,,,48,127
33309,note_on,9,0,0,,5,,,53,127
33309,note_on,0,0,0,,0,,,72,127
33444,note_off,135,0,0,,0,,,72,127
33444,note_off,0,0,0,,5,,,53,127
33453,note_on,9,0,0,,10,,,57,127
33453,note_on,0,0,0,,10,,,69,127
33588,note_off,135,0,0,,10,,,69,127
33588,note_off,0,0,0,,10,,,57,127
33597,note_on,9,0,0,,0,,,60,127
33597,note_on,0,0,0,,5,,,65,127
33732,note_off,135,0,0,,5,,,65,127
33732,note_off,0,0,0,,0,,,60,127
33741,note_on,9,0,0,,11,,,46,127
33741,note_on,0,0,0,,2,,,86,127
33876,note_off,135,0,0,,2,,,86,127
33876,note_off,0,0,0,,11,,,46,127
33885,note_on,9,0,0,,2,,,50,127
33885,note_on,0,0,0,,11,,,82,127
34020,note_off,135,0,0,,11,,,82,127
34020,note_off,0,0,0,,2,,,50,127
34029,note_on,9,0,0,,5,,,53,127
34029,note_on,0,0,0,,5,,,77,127
34164,note_off,135,0,0,,5,,,77,127
34164,note_off,0,0,0,,5,,,53,127
34173,note_on,9,0,0,,11,,,58,127
34173,note_on,0,0,0,,2,,,74,127
34308,note_off,135,0,0,,2,,,74,127
34308,note_off,0,0,0,,11,,,58,127
34317,note_on,9,0,0,,2,,,62,127
34317,note_on,0,0,0,,11,,,70,127
34452,note_off,135,0,0,,11,,,70,127
34452,note_off,0,0,0,,2,,,62,127
34461,note_on,9,0,0,,5,,,65,127
34596,note_off,135,0,0,,5,,,65,127
34605,note_on,9,0,0,,5,,,41,127
34605,note_on,0,0,0,,0,,,84,127
34740,note_off,135,0,0,,0,,,84,127
34740,note_off,0,0,0,,5,,,41,127
34749,note_on,9,0,0,,10,,,45,127
34749,note_on,0,0,0,,10,,,81,127
34884,note_off,135,0,0,,10,,,81,127
34884,note_off,0,0,0,,10,,,45,127
34893,note_on,9,0,0,,0,,,48,127
34893,note_on,0,0,0,,5,,,77,127
35028,note_off,135,0,0,,5,,,77,127
35028,note_off,0,0,0,,0,,,48,127
35037,note_on,9,0,0,,5,,,53,127
35037,note_on,0,0,0,,0,,,72,127
35172,note_off,135,0,0,,0,,,72,127
35172,note_off,0,0,0,,5,,,53,127
35181,note_on,9,0,0,,10,,,57,127
35181,note_on,0,0,0,,10,,,69,127
35316,note_off,135,0,0,,10,,,69,127
35316,note_off,0,0,0,,10,,,57,127
35325,note_on,9,0,0,,0,,,60,127
35325,note_on,0,0,0,,5,,,65,127
35460,note_off,135,0,0,,5,,,65,127
35460,note_off,0,0,0,,0,,,60,127
35469,note_on,9,0,0,,11,,,46,127
35469,note_on,0,0,0,,2,,,86,127
35604,note_off,135,0,0,,2,,,86,127
35604,note_off,0,0,0,,11,,,46,127
35613,note_on,9,0,0,,2,,,50,127
35613,note_on,0,0,0,,11,,,82,127
35748,note_off,135,0,0,,11,,,82,127
35748,note_off,0,0,0,,2,,,50,127
35757,note_on,9,0,0,,5,,,53,127
35757,note_on,0,0,0,,5,,,77,127
35892,note_off,135,0,0,,5,,,77,127
35892,note_off,0,0,0,,5,,,53,127
35901,note_on,9,0,0,,11,,,58,127
35901,note_on,0,0,0,,2,,,74,127
36036,note_off,135,0,0,,2,,,74,127
36036,note_off,0,0,0,,11,,,58,127
36045,note_on,9,0,0,,2,,,62,127
36045,note_on,0,0,0,,11,,,70,127
36180,note_off,135,0,0,,11,,,70,127
36180,note_off,0,0,0,,2,,,62,127
36189,note_on,9,0,0,,5,,,65,127
36324,note_off,135,0,0,,5,,,65,127
36333,note_on,9,0,0,,2,,,38,127
36333,note_on,0,0,0,,5,,,89,127
36468,note_off,135,0,0,,5,,,89,127
36468,note_off,0,0,0,,2,,,38,127
36477,note_on,9,0,0,,5,,,41,127
36477,note_on,0,0,0,,2,,,86,127
36612,note_off,135,0,0,,2,,,86,127
36612,note_off,0,0,0,,5,,,41,127
36621,note_on,9,0,0,,11,,,46,127
36621,note_on,0,0,0,,11,,,82,127
36756,note_off,135,0,0,,11,,,82,127
36756,note_off,0,0,0,,11,,,46,127
36765,note_on,9,0,0,,2,,,50,127
36765,note_on,0,0,0,,5,,,77,127
36900,note_off,135,0,0,,5,,,77,127
36900,note_off,0,0,0,,2,,,50,127
36909,note_on,9,0,0,,5,,,53,127
36909,note_on,0,0,0,,2,,,74,127
37044,note_off,135,0,0,,2,,,74,127
37044,note_off,0,0,0,,5,,,53,127
37053,note_on,9,0,0,,11,,,58,127
37053,note_on,0,0,0,,11,,,70,127
37188,note_off,135,0,0,,11,,,70,127
37188,note_off,0,0,0,,11,,,58,127
37197,note_on,9,0,0,,3,,,51,127
37197,note_on,0,0,0,,7,,,79,127
37332,note_off,135,0,0,,7,,,79,127
37341,note_on,9,0,0,,3,,,75,127
37476,note_off,135,0,0,,3,,,75,127
37482,note_off,6,0,0,,3,,,51,127
37485,note_on,3,0,0,,3,,,51,127
37485,note_on,0,0,0,,11,,,70,127
37620,note_off,135,0,0,,11,,,70,127
37629,note_on,9,0,0,,7,,,67,127
37764,note_off,135,0,0,,7,,,67,127
37770,note_off,6,0,0,,3,,,51,127
37773,note_on,3,0,0,,3,,,51,127
37773,note_on,0,0,0,,3,,,63,127
37908,note_off,135,0,0,,3,,,63,127
37917,note_on,9,0,0,,0,,,60,127
38052,note_off,135,0,0,,0,,,60,127
38058,note_off,6,0,0,,3,,,51,127
38061,note_on,3,0,0,,5,,,53,127
38061,note_on,0,0,0,,2,,,62,127
38397,note_on,336,0,0,,0,,,60,127
38418,note_off,21,0,0,,2,,,62,127
38445,note_on,27,0,0,,2,,,62,127
38467,note_off,22,0,0,,0,,,60,127
38493,note_on,26,0,0,,0,,,60,127
38515,note_off,22,0,0,,2,,,62,127
38541,note_on,26,0,0,,2,,,62,127
38563,note_off,22,0,0,,0,,,60,127
38589,note_on,26,0,0,,0,,,60,127
38611,note_off,22,0,0,,2,,,62,127
38633,note_off,22,0,0,,5,,,53,127
38636,note_on,3,0,0,,5,,,41,127
38636,note_on,0,0,0,,2,,,62,127
38658,note_off,22,0,0,,0,,,60,127
38684,note_on,26,0,0,,0,,,60,127
38706,note_off,22,0,0,,2,,,62,127
38732,note_on,26,0,0,,2,,,62,127
38754,note_off,22,0,0,,0,,,60,127
38780,note_on,26,0,0,,0,,,60,127
38802,note_off,22,0,0,,2,,,62,127
38828,note_on,26,0,0,,11,,,58,127
38850,note_off,22,0,0,,0,,,60,127
38876,note_on,26,0,0,,0,,,60,127
38898,note_off,22,0,0,,11,,,58,127
38920,note_off,22,0,0,,5,,,41,127
38922,note_off,2,0,0,,0,,,60,127
38924,note_on,2,0,0,,11,,,34,127
38924,note_on,0,0,0,,11,,,58,127
39114,note_off,190,0,0,,11,,,58,127
39116,note_on,2,0,0,,0,,,60,127
39164,note_on,48,0,0,,2,,,62,127
39186,note_off,22,0,0,,0,,,60,127
39212,note_on,26,0,0,,3,,,63,127
39234,note_off,22,0,0,,2,,,62,127
39260,note_on,26,0,0,,5,,,65,127
39282,note_off,22,0,0,,3,,,63,127
39308,note_on,26,0,0,,7,,,67,127
39330,note_off,22,0,0,,5,,,65,127
39356,note_on,26,0,0,,10,,,69,127
39378,note_off,22,0,0,,7,,,67,127
39404,note_on,26,0,0,,11,,,70,127
39426,note_off,22,0,0,,10,,,69,127
39452,note_on,26,0,0,,0,,,72,127
39474,note_off,22,0,0,,11,,,70,127
39500,note_on,26,0,0,,2,,,74,127
39522,note_off,22,0,0,,0,,,72,127
39548,note_on,26,0,0,,3,,,75,127
39570,note_off,22,0,0,,2,,,74,127
39596,note_on,26,0,0,,5,,,77,127
39618,note_off,22,0,0,,3,,,75,127
39644,note_on,26,0,0,,7,,,79,127
39666,note_off,22,0,0,,5,,,77,127
39692,note_on,26,0,0,,10,,,81,127
39714,note_off,22,0,0,,7,,,79,127
39740,note_on,26,0,0,,11,,,82,127
39762,note_off,22,0,0,,10,,,81,127
39784,note_off,22,0,0,,11,,,34,127
39786,note_off,2,0,0,,11,,,82,127
39788,note_on,2,0,0,,5,,,41,127
39788,note_on,0,0,0,,0,,,84,127
39923,note_off,135,0,0,,0,,,84,127
39923,note_off,0,0,0,,5,,,41,127
39932,note_on,9,0,0,,10,,,45,127
39932,note_on,0,0,0,,10,,,81,127
40067,note_off,135,0,0,,10,,,81,127
40067,note_off,0,0,0,,10,,,45,127
40076,note_on,9,0,0,,0,,,48,127
40076,note_on,0,0,0,,5,,,77,127
40211,note_off,135,0,0,,5,,,77,127
40211,note_off,0,0,0,,0,,,48,127
40220,note_on,9,0,0,,5,,,53,127
40220,note_on,0,0,0,,0,,,72,127
40355,note_off,135,0,0,,0,,,72,127
40355,note_off,0,0,0,,5,,,53,127
40364,note_on,9,0,0,,10,,,57,127
40364,note_on,0,0,0,,10,,,69,127
40499,note_off,135,0,0,,10,,,69,127
40499,note_off,0,0,0,,10,,,57,127
40508,note_on,9,0,0,,0,,,60,127
40508,note_on,0,0,0,,5,,,65,127
40643,note_off,135,0,0,,5,,,65,127
40643,note_off,0,0,0,,0,,,60,127
40652,note_on,9,0,0,,11,,,46,127
40652,note_on,0,0,0,,2,,,86,127
40787,note_off,135,0,0,,2,,,86,127
40787,note_off,0,0,0,,11,,,46,127
40796,note_on,9,0,0,,2,,,50,127
40796,note_on,0,0,0,,11,,,82,127
40931,note_off,135,0,0,,11,,,82,127
40931,note_off,0,0,0,,2,,,50,127
40940,note_on,9,0,0,,5,,,53,127
40940,note_on,0,0,0,,5,,,77,127
41075,note_off,135,0,0,,5,,,77,127
41075,note_off,0,0,0,,5,,,53,127
41084,note_on,9,0,0,,11,,,58,127
41084,note_on,0,0,0,,2,,,74,127
41219,note_off,135,0,0,,2,,,74,127
41219,note_off,0,0,0,,11,,,58,127
41228,note_on,9,0,0,,2,,,62,127
41228,note_on,0,0,0,,11,,,70,127
41363,note_off,135,0,0,,11,,,70,127
41363,note_off,0,0,0,,2,,,62,127
41372,note_on,9,0,0,,5,,,65,127
41507,note_off,135,0,0,,5,,,65,127
41516,note_on,9,0,0,,5,,,41,127
41516,note_on,0,0,0,,0,,,84,127
41651,note_off,135,0,0,,0,,,84,127
41651,note_off,0,0,0,,5,,,41,127
41660,note_on,9,0,0,,10,,,45,127
41660,note_on,0,0,0,,10,,,81,127
41795,note_off,135,0,0,,10,,,81,127
41795,note_off,0,0,0,,10,,,45,127
41804,note_on,9,0,0,,0,,,48,127
41804,note_on,0,0,0,,5,,,77,127
41939,note_off,135,0,0,,5,,,77,127
41939,note_off,0,0,0,,0,,,48,127
41948,note_on,9,0,0,,5,,,53,127
41948,note_on,0,0,0,,0,,,72,127
42083,note_off,135,0,0,,0,,,72,127
42083,note_off,0,0,0,,5,,,53,127
42092,note_on,9,0,0,,10,,,57,127
42092,note_on,0,0,0,,10,,,69,127
42227,note_off,135,0,0,,10,,,69,127
42227,note_off,0,0,0,,10,,,57,127
42236,note_on,9,0,0,,0,,,60,127
42236,note_on,0,0,0,,5,,,65,127
42371,note_off,135,0,0,,5,,,65,127
42371,note_off,0,0,0,,0,,,60,127
42380,note_on,9,0,0,,11,,,46,127
42380,note_on,0,0,0,,2,,,86,127
42515,note_off,135,0,0,,2,,,86,127
42515,note_off,0,0,0,,11,,,46,127
42524,note_on,9,0,0,,2,,,50,127
42524,note_on,0,0,0,,11,,,82,127
42659,note_off,135,0,0,,11,,,82,127
42659,note_off,0,0,0,,2,,,50,127
42668,note_on,9,0,0,,5,,,53,127
42668,note_on,0,0,0,,5,,,77,127
42803,note_off,135,0,0,,5,,,77,127
42803,note_off,0,0,0,,5,,,53,127
42812,note_on,9,0,0,,11,,,58,127
42812,note_on,0,0,0,,2,,,74,127
42947,note_off,135,0,0,,2,,,74,127
42947,note_off,0,0,0,,11,,,58,127
42956,note_on,9,0,0,,2,,,62,127
42956,note_on,0,0,0,,11,,,70,127
43091,note_off,135,0,0,,11,,,70,127
43091,note_off,0,0,0,,2,,,62,127
43100,note_on,9,0,0,,5,,,65,127
43235,note_off,135,0,0,,5,,,65,127
43244,note_on,9,0,0,,2,,,38,127
43244,note_on,0,0,0,,5,,,89,127
43379,note_off,135,0,0,,5,,,89,127
43379,note_off,0,0,0,,2,,,38,127
43388,note_on,9,0,0,,5,,,41,127
43388,note_on,0,0,0,,2,,,86,127
43523,note_off,135,0,0,,2,,,86,127
43523,note_off,0,0,0,,5,,,41,127
43532,note_on,9,0,0,,11,,,46,127
43532,note_on,0,0,0,,11,,,82,127
43667,note_off,135,0,0,,11,,,82,127
43667,note_off,0,0,0,,11,,,46,127
43676,note_on,9,0,0,,2,,,50,127
43676,note_on,0,0,0,,5,,,77,127
43811,note_off,135,0,0,,5,,,77,127
43811,note_off,0,0,0,,2,,,50,127
43820,note_on,9,0,0,,5,,,53,127
43820,note_on,0,0,0,,2,,,74,127
43955,note_off,135,0,0,,2,,,74,127
43955,note_off,0,0,0,,5,,,53,127
43964,note_on,9,0,0,,11,,,58,127
43964,note_on,0,0,0,,11,,,70,127
44099,note_off,135,0,0,,11,,,70,127
44099,note_off,0,0,0,,11,,,58,127
44108,note_on,9,0,0,,3,,,51,127
44108,note_on,0,0,0,,7,,,79,127
44243,note_off,135,0,0,,7,,,79,127
44252,note_on,9,0,0,,3,,,75,127
44387,note_off,135,0,0,,3,,,75,127
44393,note_off,6,0,0,,3,,,51,127
44396,note_on,3,0,0,,3,,,51,127
44396,note_on,0,0,0,,11,,,70,127
44531,note_off,135,0,0,,11,,,70,127
44540,note_on,9,0,0,,7,,,67,127
44675,note_off,135,0,0,,7,,,67,127
44681,note_off,6,0,0,,3,,,51,127
44684,note_on,3,0,0,,3,,,51,127
44684,note_on,0,0,0,,3,,,63,127
44819,note_off,135,0,0,,3,,,63,127
44828,note_on,9,0,0,,0,,,60,127
44963,note_off,135,0,0,,0,,,60,127
44969,note_off,6,0,0,,3,,,51,127
44972,note_on,3,0,0,,5,,,53,127
44972,note_on,0,0,0,,2,,,62,127
45308,note_on,336,0,0,,0,,,60,127
45329,note_off,21,0,0,,2,,,62,127
45356,note_on,27,0,0,,2,,,62,127
45378,note_off,22,0,0,,0,,,60,127
45404,note_on,26,0,0,,0,,,60,127
45426,note_off,22,0,0,,2,,,62,127
45452,note_on,26,0,0,,2,,,62,127
45474,note_off,22,0,0,,0,,,60,127
45500,note_on,26,0,0,,0,,,60,127
45522,note_off,22,0,0,,2,,,62,127
45544,note_off,22,0,0,,5,,,53,127
45547,note_on,3,0,0,,5,,,41,127
45547,note_on,0,0,0,,2,,,62,127
45569,note_off,22,0,0,,0,,,60,127
45595,note_on,26,0,0,,0,,,60,127
45617,note_off,22,0,0,,2,,,62,127
45643,note_on,26,0,0,,2,,,62,127
45665,note_off,22,0,0,,0,,,60,127
45691,note_on,26,0,0,,0,,,60,127
45713,note_off,22,0,0,,2,,,62,127
45739,note_on,26,0,0,,11,,,58,127
45761,note_off,22,0,0,,0,,,60,127
45787,note_on,26,0,0,,0,,,60,127
45809,note_off,22,0,0,,11,,,58,127
45831,note_off,22,0,0,,5,,,41,127
45833,note_off,2,0,0,,0,,,60,127
45835,note_on,2,0,0,,11,,,46,127
45835,note_on,0,0,0,,11,,,58,127
46012,note_off,177,0,0,,11,,,58,127
46015,note_on,3,0,0,,0,,,60,127
46048,note_off,33,0,0,,0,,,60,127
46051,note_on,3,0,0,,2,,,62,127
46084,note_off,33,0,0,,2,,,62,127
46087,note_on,3,0,0,,3,,,63,127
46120,note_off,33,0,0,,3,,,63,127
46123,note_on,3,0,0,,5,,,65,127
46258,note_off,135,0,0,,5,,,65,127
46267,note_on,9,0,0,,7,,,67,127
46336,note_off,69,0,0,,7,,,67,127
46339,note_on,3,0,0,,10,,,69,127
46408,note_off,69,0,0,,10,,,69,127
46411,note_on,3,0,0,,11,,,70,127
46480,note_off,69,0,0,,11,,,70,127
46483,note_on,3,0,0,,0,,,72,127
46552,note_off,69,0,0,,0,,,72,127
46555,note_on,3,0,0,,2,,,74,127
46624,note_off,69,0,0,,2,,,74,127
46627,note_on,3,0,0,,3,,,75,127
46696,note_off,69,0,0,,3,,,75,127
46696,note_off,0,0,0,,11,,,46,127
46699,note_on,3,0,0,,11,,,46,127
46699,note_on,0,0,0,,5,,,77,127
46834,note_off,135,0,0,,5,,,77,127
46843,note_on,9,0,0,,7,,,79,127
46912,note_off,69,0,0,,7,,,79,127
46915,note_on,3,0,0,,10,,,81,127
46984,note_off,69,0,0,,10,,,81,127
46987,note_on,3,0,0,,11,,,82,127
47272,note_off,285,0,0,,11,,,82,127
47275,note_on,3,0,0,,11,,,82,127
47560,note_off,285,0,0,,11,,,82,127
47560,note_off,0,0,0,,11,,,46,127
47563,note_on,3,0,0,,3,,,39,127
47563,note_on,0,0,0,,7,,,79,127
47698,note_off,135,0,0,,7,,,79,127
47698,note_off,0,0,0,,3,,,39,127
47707,note_on,9,0,0,,3,,,51,127
47707,note_on,0,0,0,,5,,,77,127
47776,note_off,69,0,0,,5,,,77,127
47779,note_on,3,0,0,,3,,,75,127
47842,note_off,63,0,0,,3,,,51,127
47848,note_off,6,0,0,,3,,,75,127
47851,note_on,3,0,0,,5,,,53,127
47851,note_on,0,0,0,,2,,,74,127
48136,note_off,285,0,0,,2,,,74,127
48139,note_on,3,0,0,,5,,,41,127
48139,note_on,0,0,0,,2,,,74,127
48187,note_on,48,0,0,,0,,,72,127
48209,note_off,22,0,0,,2,,,74,127
48235,note_on,26,0,0,,2,,,74,127
48257,note_off,22,0,0,,0,,,72,127
48283,note_on,26,0,0,,0,,,72,127
48305,note_off,22,0,0,,2,,,74,127
48331,note_on,26,0,0,,11,,,70,127
48353,note_off,22,0,0,,0,,,72,127
48379,note_on,26,0,0,,0,,,72,127
48401,note_off,22,0,0,,11,,,70,127
48423,note_off,22,0,0,,5,,,41,127
48425,note_off,2,0,0,,0,,,72,127
48425,note_off,0,0,0,,5,,,53,127
48427,note_on,2,0,0,,11,,,46,127
48427,note_on,0,0,0,,11,,,58,127
48604,note_off,177,0,0,,11,,,58,127
48607,note_on,3,0,0,,0,,,60,127
48640,note_off,33,0,0,,0,,,60,127
48643,note_on,3,0,0,,2,,,62,127
48676,note_off,33,0,0,,2,,,62,127
48679,note_on,3,0,0,,3,,,63,127
48712,note_off,33,0,0,,3,,,63,127
48715,note_on,3,0,0,,5,,,65,127
48850,note_off,135,0,0,,5,,,65,127
48859,note_on,9,0,0,,7,,,67,127
48928,note_off,69,0,0,,7,,,67,127
48931,note_on,3,0,0,,10,,,69,127
49000,note_off,69,0,0,,10,,,69,127
49003,note_on,3,0,0,,11,,,70,127
49072,note_off,69,0,0,,11,,,70,127
49075,note_on,3,0,0,,0,,,72,127
49144,note_off,69,0,0,,0,,,72,127
49147,note_on,3,0,0,,2,,,74,127
49216,note_off,69,0,0,,2,,,74,127
49219,note_on,3,0,0,,3,,,75,127
49288,note_off,69,0,0,,3,,,75,127
49288,note_off,0,0,0,,11,,,46,127
49291,note_on,3,0,0,,11,,,46,127
49291,note_on,0,0,0,,5,,,77,127
49426,note_off,135,0,0,,5,,,77,127
49435,note_on,9,0,0,,7,,,79,127
49504,note_off,69,0,0,,7,,,79,127
49507,note_on,3,0,0,,10,,,81,127
49576,note_off,69,0,0,,10,,,81,127
49579,note_on,3,0,0,,11,,,82,127
49864,note_off,285,0,0,,11,,,82,127
49867,note_on,3,0,0,,11,,,82,127
50152,note_off,285,0,0,,11,,,82,127
50152,note_off,0,0,0,,11,,,46,127
50155,note_on,3,0,0,,3,,,51,127
50155,note_on,0,0,0,,7,,,79,127
50290,note_off,135,0,0,,7,,,79,127
50299,note_on,9,0,0,,5,,,77,127
50368,note_off,69,0,0,,5,,,77,127
50371,note_on,3,0,0,,3,,,75,127
50440,note_off,69,0,0,,3,,,75,127
50440,note_off,0,0,0,,3,,,51,127
50443,note_on,3,0,0,,5,,,53,127
50443,note_on,0,0,0,,2,,,74,127
50728,note_off,285,0,0,,2,,,74,127
50731,note_on,3,0,0,,5,,,41,127
50731,note_on,0,0,0,,2,,,74,127
50779,note_on,48,0,0,,0,,,72,127
50801,note_off,22,0,0,,2,,,74,127
50827,note_on,26,0,0,,2,,,74,127
50849,note_off,22,0,0,,0,,,72,127
50875,note_on,26,0,0,,0,,,72,127
50897,note_off,22,0,0,,2,,,74,127
50923,note_on,26,0,0,,11,,,70,127
50945,note_off,22,0,0,,0,,,72,127
50971,note_on,26,0,0,,0,,,72,127
50993,note_off,22,0,0,,11,,,70,127
51015,note_off,22,0,0,,5,,,41,127
51017,note_off,2,0,0,,0,,,72,127
51017,note_off,0,0,0,,5,,,53,127
51053,note_on,36,0,0,,11,,,46,127
51053,note_on,0,0,0,,11,,,70,127
52781,note_off,1728,0,0,,11,,,70,127
52781,note_off,0,0,0,,11,,,46,127
58368,end_of_track,5587,1,0,,,,,,
