tick,type,time,meta,track,program,channel,pitch,tempo,note,velocity
0,copyright,0,1,0,,,,,,
0,program_change,0,0,0,6,0,,,,
0,pitchwheel,0,0,0,,0,0,,,
0,program_change,0,0,0,6,1,,,,
0,pitchwheel,0,0,0,,1,-590,,,
0,program_change,0,0,0,6,2,,,,
0,pitchwheel,0,0,0,,2,-272,,,
0,program_change,0,0,0,6,3,,,,
0,pitchwheel,0,0,0,,3,-353,,,
0,program_change,0,0,0,6,4,,,,
0,pitchwheel,0,0,0,,4,-560,,,
0,program_change,0,0,0,6,5,,,,
0,pitchwheel,0,0,0,,5,-80,,,
0,program_change,0,0,0,6,6,,,,
0,pitchwheel,0,0,0,,6,-625,,,
0,program_change,0,0,0,6,7,,,,
0,pitchwheel,0,0,0,,7,-130,,,
0,program_change,0,0,0,6,8,,,,
0,pitchwheel,0,0,0,,8,-512,,,
0,program_change,0,0,0,6,10,,,,
0,pitchwheel,0,0,0,,10,-464,,,
0,program_change,0,0,0,6,11,,,,
0,pitchwheel,0,0,0,,11,-208,,,
0,program_change,0,0,0,6,12,,,,
0,pitchwheel,0,0,0,,12,-553,,,
0,set_tempo,0,1,0,,,,500000,,
35,note_on,35,0,0,,2,,,74,127
242,note_off,207,0,0,,2,,,74,127
244,note_on,2,0,0,,7,,,67,127
244,note_on,0,0,0,,12,,,71,127
347,note_off,103,0,0,,12,,,71,127
349,note_on,2,0,0,,4,,,76,127
452,note_off,103,0,0,,4,,,76,127
452,note_off,0,0,0,,7,,,67,127
454,note_on,2,0,0,,7,,,55,127
454,note_on,0,0,0,,2,,,74,127
661,note_off,207,0,0,,2,,,74,127
663,note_on,2,0,0,,12,,,71,127
868,note_off,205,0,0,,7,,,55,127
870,note_off,2,0,0,,12,,,71,127
872,note_on,2,0,0,,7,,,79,127
1079,note_off,207,0,0,,7,,,79,127
1081,note_on,2,0,0,,7,,,67,127
1081,note_on,0,0,0,,12,,,71,127
1184,note_off,103,0,0,,12,,,71,127
1186,note_on,2,0,0,,4,,,76,127
1289,note_off,103,0,0,,4,,,76,127
1289,note_off,0,0,0,,7,,,67,127
1291,note_on,2,0,0,,7,,,55,127
1291,note_on,0,0,0,,2,,,74,127
1498,note_off,207,0,0,,2,,,74,127
1500,note_on,2,0,0,,12,,,71,127
1705,note_off,205,0,0,,7,,,55,127
1709,note_on,4,0,0,,12,,,83,127
1761,note_off,52,0,0,,12,,,71,127
1916,note_off,155,0,0,,12,,,83,127
1918,note_on,2,0,0,,7,,,67,127
1918,note_on,0,0,0,,12,,,71,127
2021,note_off,103,0,0,,12,,,71,127
2023,note_on,2,0,0,,4,,,76,127
2126,note_off,103,0,0,,4,,,76,127
2126,note_off,0,0,0,,7,,,67,127
2128,note_on,2,0,0,,7,,,55,127
2128,note_on,0,0,0,,2,,,74,127
2335,note_off,207,0,0,,2,,,74,127
2337,note_on,2,0,0,,12,,,71,127
2542,note_off,205,0,0,,7,,,55,127
2544,note_off,2,0,0,,12,,,71,127
2546,note_on,2,0,0,,10,,,69,127
2753,note_off,207,0,0,,10,,,69,127
2755,note_on,2,0,0,,0,,,60,127
2755,note_on,0,0,0,,4,,,76,127
2858,note_off,103,0,0,,4,,,76,127
2860,note_on,2,0,0,,0,,,72,127
2963,note_off,103,0,0,,0,,,72,127
2965,note_on,2,0,0,,4,,,64,127
3172,note_off,207,0,0,,4,,,64,127
3172,note_off,0,0,0,,0,,,60,127
3174,note_on,2,0,0,,2,,,62,127
3174,note_on,0,0,0,,6,,,66,127
3174,note_on,0,0,0,,0,,,72,127
3381,note_off,207,0,0,,0,,,72,127
3381,note_off,0,0,0,,6,,,66,127
3381,note_off,0,0,0,,2,,,62,127
3383,note_on,2,0,0,,7,,,55,127
3383,note_on,0,0,0,,12,,,71,127
3383,note_on,0,0,0,,7,,,67,127
3590,note_off,207,0,0,,7,,,67,127
3590,note_off,0,0,0,,12,,,71,127
3590,note_off,0,0,0,,7,,,55,127
3592,note_on,2,0,0,,0,,,48,127
3592,note_on,0,0,0,,4,,,76,127
3695,note_off,103,0,0,,4,,,76,127
3697,note_on,2,0,0,,0,,,72,127
3800,note_off,103,0,0,,0,,,72,127
3802,note_on,2,0,0,,4,,,64,127
4009,note_off,207,0,0,,4,,,64,127
4009,note_off,0,0,0,,0,,,48,127
4011,note_on,2,0,0,,2,,,50,127
4011,note_on,0,0,0,,6,,,66,127
4011,note_on,0,0,0,,0,,,72,127
4218,note_off,207,0,0,,0,,,72,127
4218,note_off,0,0,0,,6,,,66,127
4218,note_off,0,0,0,,2,,,50,127
4220,note_on,2,0,0,,7,,,43,127
4220,note_on,0,0,0,,7,,,67,127
4220,note_on,0,0,0,,12,,,71,127
4427,note_off,207,0,0,,12,,,71,127
4427,note_off,0,0,0,,7,,,67,127
4427,note_off,0,0,0,,7,,,43,127
4429,note_on,2,0,0,,0,,,36,127
4429,note_on,0,0,0,,4,,,76,127
4532,note_off,103,0,0,,4,,,76,127
4534,note_on,2,0,0,,0,,,72,127
4637,note_off,103,0,0,,0,,,72,127
4639,note_on,2,0,0,,4,,,64,127
4846,note_off,207,0,0,,4,,,64,127
4846,note_off,0,0,0,,0,,,36,127
4848,note_on,2,0,0,,2,,,38,127
4848,note_on,0,0,0,,0,,,72,127
4848,note_on,0,0,0,,6,,,66,127
5055,note_off,207,0,0,,6,,,66,127
5055,note_off,0,0,0,,0,,,72,127
5055,note_off,0,0,0,,2,,,38,127
5057,note_on,2,0,0,,7,,,43,127
5057,note_on,0,0,0,,7,,,31,127
5057,note_on,0,0,0,,7,,,67,127
5057,note_on,0,0,0,,12,,,71,127
5264,note_off,207,0,0,,12,,,71,127
5264,note_off,0,0,0,,7,,,67,127
5266,note_on,2,0,0,,12,,,71,127
5369,note_off,103,0,0,,12,,,71,127
5371,note_on,2,0,0,,7,,,67,127
5474,note_off,103,0,0,,7,,,67,127
5476,note_on,2,0,0,,2,,,74,127
5683,note_off,207,0,0,,2,,,74,127
5684,note_off,1,0,0,,7,,,31,127
5684,note_off,0,0,0,,7,,,43,127
5685,note_on,1,0,0,,2,,,74,127
5892,note_off,207,0,0,,2,,,74,127
5894,note_on,2,0,0,,4,,,76,127
5945,note_off,51,0,0,,4,,,76,127
5947,note_on,2,0,0,,2,,,74,127
5999,note_off,52,0,0,,2,,,74,127
6001,note_on,2,0,0,,4,,,76,127
6053,note_off,52,0,0,,4,,,76,127
6055,note_on,2,0,0,,2,,,74,127
6102,note_on,47,0,0,,2,,,62,127
6107,note_off,5,0,0,,2,,,74,127
6109,note_on,2,0,0,,4,,,76,127
6161,note_off,52,0,0,,4,,,76,127
6163,note_on,2,0,0,,2,,,74,127
6203,note_off,40,0,0,,2,,,62,127
6205,note_on,2,0,0,,12,,,59,127
6215,note_off,10,0,0,,2,,,74,127
6217,note_on,2,0,0,,4,,,76,127
6269,note_off,52,0,0,,4,,,76,127
6271,note_on,2,0,0,,2,,,74,127
6307,note_off,36,0,0,,12,,,59,127
6309,note_on,2,0,0,,2,,,50,127
6323,note_off,14,0,0,,2,,,74,127
6325,note_on,2,0,0,,4,,,76,127
6377,note_off,52,0,0,,4,,,76,127
6379,note_on,2,0,0,,2,,,74,127
6431,note_off,52,0,0,,2,,,74,127
6433,note_on,2,0,0,,4,,,76,127
6485,note_off,52,0,0,,4,,,76,127
6487,note_on,2,0,0,,2,,,74,127
6514,note_off,27,0,0,,2,,,50,127
6516,note_on,2,0,0,,12,,,59,127
6516,note_on,0,0,0,,2,,,50,127
6539,note_off,23,0,0,,2,,,74,127
6541,note_on,2,0,0,,4,,,76,127
6592,note_off,51,0,0,,4,,,76,127
6594,note_on,2,0,0,,2,,,74,127
6646,note_off,52,0,0,,2,,,74,127
6648,note_on,2,0,0,,4,,,76,127
6700,note_off,52,0,0,,4,,,76,127
6702,note_on,2,0,0,,2,,,74,127
6722,note_off,20,0,0,,2,,,50,127
6722,note_off,0,0,0,,12,,,59,127
6724,note_on,2,0,0,,2,,,50,127
6724,note_on,0,0,0,,10,,,57,127
6724,note_on,0,0,0,,0,,,60,127
6755,note_off,31,0,0,,2,,,74,127
6757,note_on,2,0,0,,4,,,76,127
6809,note_off,52,0,0,,4,,,76,127
6811,note_on,2,0,0,,2,,,74,127
6863,note_off,52,0,0,,2,,,74,127
6865,note_on,2,0,0,,4,,,76,127
6917,note_off,52,0,0,,4,,,76,127
6919,note_on,2,0,0,,2,,,74,127
6930,note_off,11,0,0,,0,,,60,127
6930,note_off,0,0,0,,10,,,57,127
6930,note_off,0,0,0,,2,,,50,127
6932,note_on,2,0,0,,2,,,50,127
6932,note_on,0,0,0,,12,,,59,127
6932,note_on,0,0,0,,7,,,55,127
6971,note_off,39,0,0,,2,,,74,127
6973,note_on,2,0,0,,4,,,76,127
7025,note_off,52,0,0,,4,,,76,127
7027,note_on,2,0,0,,2,,,74,127
7079,note_off,52,0,0,,2,,,74,127
7081,note_on,2,0,0,,4,,,76,127
7133,note_off,52,0,0,,4,,,76,127
7135,note_on,2,0,0,,2,,,74,127
7137,note_off,2,0,0,,7,,,55,127
7137,note_off,0,0,0,,12,,,59,127
7137,note_off,0,0,0,,2,,,50,127
7139,note_on,2,0,0,,7,,,55,127
7139,note_on,0,0,0,,2,,,50,127
7139,note_on,0,0,0,,10,,,57,127
7187,note_off,48,0,0,,2,,,74,127
7189,note_on,2,0,0,,4,,,76,127
7241,note_off,52,0,0,,4,,,76,127
7243,note_on,2,0,0,,2,,,74,127
7294,note_off,51,0,0,,2,,,74,127
7296,note_on,2,0,0,,4,,,76,127
7345,note_off,49,0,0,,10,,,57,127
7345,note_off,0,0,0,,2,,,50,127
7345,note_off,0,0,0,,7,,,55,127
7347,note_on,2,0,0,,10,,,57,127
7347,note_on,0,0,0,,6,,,54,127
7347,note_on,0,0,0,,2,,,50,127
7348,note_off,1,0,0,,4,,,76,127
7350,note_on,2,0,0,,2,,,74,127
7402,note_off,52,0,0,,2,,,74,127
7404,note_on,2,0,0,,4,,,76,127
7456,note_off,52,0,0,,4,,,76,127
7458,note_on,2,0,0,,2,,,74,127
7510,note_off,52,0,0,,2,,,74,127
7512,note_on,2,0,0,,4,,,76,127
7552,note_off,40,0,0,,2,,,50,127
7552,note_off,0,0,0,,6,,,54,127
7552,note_off,0,0,0,,10,,,57,127
7564,note_off,12,0,0,,4,,,76,127
7566,note_on,2,0,0,,2,,,74,127
7618,note_off,52,0,0,,2,,,74,127
7620,note_on,2,0,0,,4,,,76,127
7672,note_off,52,0,0,,4,,,76,127
7674,note_on,2,0,0,,2,,,74,127
7726,note_off,52,0,0,,2,,,74,127
7728,note_on,2,0,0,,4,,,76,127
7762,note_on,34,0,0,,2,,,62,127
7781,note_off,19,0,0,,4,,,76,127
7783,note_on,2,0,0,,2,,,74,127
7835,note_off,52,0,0,,2,,,74,127
7837,note_on,2,0,0,,4,,,76,127
7864,note_off,27,0,0,,2,,,62,127
7866,note_on,2,0,0,,12,,,59,127
7889,note_off,23,0,0,,4,,,76,127
7891,note_on,2,0,0,,2,,,74,127
7942,note_off,51,0,0,,2,,,74,127
7944,note_on,2,0,0,,4,,,76,127
7968,note_off,24,0,0,,12,,,59,127
7970,note_on,2,0,0,,2,,,50,127
7996,note_off,26,0,0,,4,,,76,127
7998,note_on,2,0,0,,2,,,74,127
8050,note_off,52,0,0,,2,,,74,127
8052,note_on,2,0,0,,4,,,76,127
8104,note_off,52,0,0,,4,,,76,127
8106,note_on,2,0,0,,2,,,74,127
8158,note_off,52,0,0,,2,,,74,127
8160,note_on,2,0,0,,4,,,76,127
8175,note_off,15,0,0,,2,,,50,127
8177,note_on,2,0,0,,2,,,50,127
8177,note_on,0,0,0,,12,,,59,127
8212,note_off,35,0,0,,4,,,76,127
8214,note_on,2,0,0,,2,,,74,127
8266,note_off,52,0,0,,2,,,74,127
8268,note_on,2,0,0,,4,,,76,127
8320,note_off,52,0,0,,4,,,76,127
8322,note_on,2,0,0,,2,,,74,127
8374,note_off,52,0,0,,2,,,74,127
8376,note_on,2,0,0,,4,,,76,127
8383,note_off,7,0,0,,12,,,59,127
8383,note_off,0,0,0,,2,,,50,127
8385,note_on,2,0,0,,10,,,57,127
8385,note_on,0,0,0,,2,,,50,127
8385,note_on,0,0,0,,0,,,60,127
8429,note_off,44,0,0,,4,,,76,127
8431,note_on,2,0,0,,2,,,74,127
8483,note_off,52,0,0,,2,,,74,127
8485,note_on,2,0,0,,4,,,76,127
8537,note_off,52,0,0,,4,,,76,127
8539,note_on,2,0,0,,2,,,74,127
8591,note_off,52,0,0,,2,,,74,127
8591,note_off,0,0,0,,0,,,60,127
8591,note_off,0,0,0,,2,,,50,127
8591,note_off,0,0,0,,10,,,57,127
8593,note_on,2,0,0,,12,,,59,127
8593,note_on,0,0,0,,7,,,55,127
8593,note_on,0,0,0,,2,,,50,127
8593,note_on,0,0,0,,4,,,76,127
8644,note_off,51,0,0,,4,,,76,127
8646,note_on,2,0,0,,2,,,74,127
8698,note_off,52,0,0,,2,,,74,127
8700,note_on,2,0,0,,4,,,76,127
8752,note_off,52,0,0,,4,,,76,127
8754,note_on,2,0,0,,2,,,74,127
8799,note_off,45,0,0,,2,,,50,127
8799,note_off,0,0,0,,7,,,55,127
8799,note_off,0,0,0,,12,,,59,127
8801,note_on,2,0,0,,10,,,57,127
8801,note_on,0,0,0,,7,,,55,127
8801,note_on,0,0,0,,2,,,50,127
8806,note_off,5,0,0,,2,,,74,127
8808,note_on,2,0,0,,4,,,76,127
8860,note_off,52,0,0,,4,,,76,127
8862,note_on,2,0,0,,2,,,74,127
8914,note_off,52,0,0,,2,,,74,127
8916,note_on,2,0,0,,4,,,76,127
8968,note_off,52,0,0,,4,,,76,127
8970,note_on,2,0,0,,2,,,74,127
9006,note_off,36,0,0,,2,,,50,127
9006,note_off,0,0,0,,7,,,55,127
9006,note_off,0,0,0,,10,,,57,127
9008,note_on,2,0,0,,6,,,54,127
9008,note_on,0,0,0,,2,,,50,127
9008,note_on,0,0,0,,10,,,57,127
9022,note_off,14,0,0,,2,,,74,127
9024,note_on,2,0,0,,4,,,76,127
9076,note_off,52,0,0,,4,,,76,127
9078,note_on,2,0,0,,2,,,74,127
9130,note_off,52,0,0,,2,,,74,127
9132,note_on,2,0,0,,4,,,76,127
9184,note_off,52,0,0,,4,,,76,127
9186,note_on,2,0,0,,2,,,74,127
9213,note_off,27,0,0,,10,,,57,127
9213,note_off,0,0,0,,2,,,50,127
9213,note_off,0,0,0,,6,,,54,127
9215,note_on,2,0,0,,7,,,43,127
9215,note_on,0,0,0,,7,,,55,127
9422,note_off,207,0,0,,2,,,74,127
9424,note_on,2,0,0,,7,,,79,127
9527,note_off,103,0,0,,7,,,79,127
9529,note_on,2,0,0,,6,,,78,127
9629,note_off,100,0,0,,7,,,55,127
9629,note_off,0,0,0,,7,,,43,127
9631,note_off,2,0,0,,6,,,78,127
9633,note_on,2,0,0,,4,,,76,127
9840,note_off,207,0,0,,4,,,76,127
9842,note_on,2,0,0,,7,,,55,127
9842,note_on,0,0,0,,2,,,74,127
9842,note_on,0,0,0,,7,,,67,127
9945,note_off,103,0,0,,7,,,67,127
9947,note_on,2,0,0,,6,,,66,127
10050,note_off,103,0,0,,6,,,66,127
10050,note_off,0,0,0,,2,,,74,127
10050,note_off,0,0,0,,7,,,55,127
10052,note_on,2,0,0,,10,,,57,127
10052,note_on,0,0,0,,4,,,64,127
10052,note_on,0,0,0,,1,,,73,127
10259,note_off,207,0,0,,1,,,73,127
10259,note_off,0,0,0,,4,,,64,127
10261,note_on,2,0,0,,2,,,62,127
10261,note_on,0,0,0,,12,,,71,127
10468,note_off,207,0,0,,12,,,71,127
10468,note_off,0,0,0,,2,,,62,127
10468,note_off,0,0,0,,10,,,57,127
10470,note_on,2,0,0,,10,,,57,127
10470,note_on,0,0,0,,10,,,69,127
10470,note_on,0,0,0,,1,,,61,127
10677,note_off,207,0,0,,1,,,61,127
10677,note_off,0,0,0,,10,,,69,127
10679,note_on,2,0,0,,8,,,68,127
10679,note_on,0,0,0,,12,,,59,127
10886,note_off,207,0,0,,12,,,59,127
10886,note_off,0,0,0,,8,,,68,127
10886,note_off,0,0,0,,10,,,57,127
10888,note_on,2,0,0,,10,,,57,127
10888,note_on,0,0,0,,10,,,69,127
11097,note_on,209,0,0,,10,,,81,127
11182,note_off,85,0,0,,10,,,69,127
11199,note_off,17,0,0,,10,,,81,127
11201,note_on,2,0,0,,7,,,79,127
11304,note_off,103,0,0,,7,,,79,127
11306,note_on,2,0,0,,6,,,78,127
11411,note_off,105,0,0,,10,,,57,127
11514,note_off,103,0,0,,6,,,78,127
11516,note_on,2,0,0,,10,,,57,127
11516,note_on,0,0,0,,4,,,76,127
11516,note_on,0,0,0,,10,,,69,127
11619,note_off,103,0,0,,10,,,69,127
11621,note_on,2,0,0,,7,,,67,127
11724,note_off,103,0,0,,7,,,67,127
11724,note_off,0,0,0,,4,,,76,127
11724,note_off,0,0,0,,10,,,57,127
11726,note_on,2,0,0,,12,,,59,127
11726,note_on,0,0,0,,2,,,74,127
11726,note_on,0,0,0,,6,,,66,127
11933,note_off,207,0,0,,6,,,66,127
11933,note_off,0,0,0,,2,,,74,127
11935,note_on,2,0,0,,4,,,64,127
11935,note_on,0,0,0,,1,,,73,127
12142,note_off,207,0,0,,1,,,73,127
12142,note_off,0,0,0,,4,,,64,127
12142,note_off,0,0,0,,12,,,59,127
12144,note_on,2,0,0,,12,,,59,127
12144,note_on,0,0,0,,2,,,62,127
12144,note_on,0,0,0,,12,,,71,127
12351,note_off,207,0,0,,12,,,71,127
12351,note_off,0,0,0,,2,,,62,127
12353,note_on,2,0,0,,11,,,70,127
12353,note_on,0,0,0,,1,,,61,127
12560,note_off,207,0,0,,1,,,61,127
12560,note_off,0,0,0,,11,,,70,127
12560,note_off,0,0,0,,12,,,59,127
12562,note_on,2,0,0,,12,,,59,127
12562,note_on,0,0,0,,12,,,71,127
12771,note_on,209,0,0,,12,,,83,127
12856,note_off,85,0,0,,12,,,71,127
12873,note_off,17,0,0,,12,,,83,127
12875,note_on,2,0,0,,10,,,81,127
12978,note_off,103,0,0,,10,,,81,127
12980,note_on,2,0,0,,7,,,79,127
13085,note_off,105,0,0,,12,,,59,127
13188,note_off,103,0,0,,7,,,79,127
13190,note_on,2,0,0,,12,,,59,127
13190,note_on,0,0,0,,12,,,71,127
13190,note_on,0,0,0,,6,,,78,127
13293,note_off,103,0,0,,12,,,71,127
13295,note_on,2,0,0,,10,,,69,127
13398,note_off,103,0,0,,10,,,69,127
13398,note_off,0,0,0,,6,,,78,127
13398,note_off,0,0,0,,12,,,59,127
13400,note_on,2,0,0,,1,,,61,127
13400,note_on,0,0,0,,4,,,76,127
13400,note_on,0,0,0,,7,,,67,127
13607,note_off,207,0,0,,7,,,67,127
13607,note_off,0,0,0,,4,,,76,127
13609,note_on,2,0,0,,2,,,74,127
13609,note_on,0,0,0,,6,,,66,127
13816,note_off,207,0,0,,6,,,66,127
13816,note_off,0,0,0,,2,,,74,127
13816,note_off,0,0,0,,1,,,61,127
13818,note_on,2,0,0,,1,,,61,127
13818,note_on,0,0,0,,1,,,73,127
13818,note_on,0,0,0,,4,,,64,127
14025,note_off,207,0,0,,4,,,64,127
14025,note_off,0,0,0,,1,,,73,127
14027,note_on,2,0,0,,12,,,71,127
14027,note_on,0,0,0,,2,,,62,127
14234,note_off,207,0,0,,2,,,62,127
14234,note_off,0,0,0,,12,,,71,127
14234,note_off,0,0,0,,1,,,61,127
14236,note_on,2,0,0,,1,,,61,127
14236,note_on,0,0,0,,10,,,69,127
14443,note_off,207,0,0,,10,,,69,127
14445,note_on,2,0,0,,4,,,76,127
14548,note_off,103,0,0,,4,,,76,127
14550,note_on,2,0,0,,2,,,74,127
14653,note_off,103,0,0,,2,,,74,127
14655,note_on,2,0,0,,1,,,73,127
14760,note_off,105,0,0,,1,,,61,127
14863,note_off,103,0,0,,1,,,73,127
14865,note_on,2,0,0,,4,,,64,127
14865,note_on,0,0,0,,12,,,71,127
14968,note_off,103,0,0,,4,,,64,127
14970,note_on,2,0,0,,2,,,62,127
15073,note_off,103,0,0,,2,,,62,127
15073,note_off,0,0,0,,12,,,71,127
15075,note_on,2,0,0,,1,,,61,127
15075,note_on,0,0,0,,10,,,69,127
15282,note_off,207,0,0,,10,,,69,127
15282,note_off,0,0,0,,1,,,61,127
15284,note_on,2,0,0,,12,,,59,127
15284,note_on,0,0,0,,7,,,67,127
15491,note_off,207,0,0,,7,,,67,127
15491,note_off,0,0,0,,12,,,59,127
15493,note_on,2,0,0,,10,,,57,127
15493,note_on,0,0,0,,6,,,66,127
15700,note_off,207,0,0,,6,,,66,127
15700,note_off,0,0,0,,10,,,57,127
15702,note_on,2,0,0,,7,,,55,127
15702,note_on,0,0,0,,4,,,64,127
15702,note_on,0,0,0,,1,,,61,127
15909,note_off,207,0,0,,1,,,61,127
15909,note_off,0,0,0,,4,,,64,127
15909,note_off,0,0,0,,7,,,55,127
15911,note_on,2,0,0,,2,,,62,127
15911,note_on,0,0,0,,6,,,54,127
15911,note_on,0,0,0,,2,,,74,127
16118,note_off,207,0,0,,2,,,74,127
16120,note_on,2,0,0,,10,,,69,127
16223,note_off,103,0,0,,10,,,69,127
16225,note_on,2,0,0,,6,,,78,127
16328,note_off,103,0,0,,6,,,78,127
16328,note_off,0,0,0,,6,,,54,127
16328,note_off,0,0,0,,2,,,62,127
16330,note_on,2,0,0,,2,,,62,127
16330,note_on,0,0,0,,6,,,54,127
16330,note_on,0,0,0,,4,,,76,127
16537,note_off,207,0,0,,4,,,76,127
16539,note_on,2,0,0,,2,,,74,127
16746,note_off,207,0,0,,2,,,74,127
16746,note_off,0,0,0,,6,,,54,127
16746,note_off,0,0,0,,2,,,62,127
16748,note_on,2,0,0,,8,,,56,127
16748,note_on,0,0,0,,2,,,62,127
16748,note_on,0,0,0,,4,,,64,127
16748,note_on,0,0,0,,4,,,76,127
16955,note_off,207,0,0,,4,,,76,127
16957,note_on,2,0,0,,12,,,71,127
17060,note_off,103,0,0,,12,,,71,127
17062,note_on,2,0,0,,6,,,78,127
17165,note_off,103,0,0,,6,,,78,127
17165,note_off,0,0,0,,4,,,64,127
17165,note_off,0,0,0,,2,,,62,127
17165,note_off,0,0,0,,8,,,56,127
17167,note_on,2,0,0,,2,,,62,127
17167,note_on,0,0,0,,8,,,56,127
17167,note_on,0,0,0,,4,,,64,127
17167,note_on,0,0,0,,4,,,76,127
17374,note_off,207,0,0,,4,,,76,127
17376,note_on,2,0,0,,2,,,74,127
17583,note_off,207,0,0,,2,,,74,127
17583,note_off,0,0,0,,4,,,64,127
17583,note_off,0,0,0,,8,,,56,127
17583,note_off,0,0,0,,2,,,62,127
17585,note_on,2,0,0,,2,,,62,127
17585,note_on,0,0,0,,8,,,56,127
17585,note_on,0,0,0,,4,,,64,127
17585,note_on,0,0,0,,12,,,83,127
17792,note_off,207,0,0,,12,,,83,127
17794,note_on,2,0,0,,12,,,71,127
17897,note_off,103,0,0,,12,,,71,127
17899,note_on,2,0,0,,2,,,74,127
18002,note_off,103,0,0,,2,,,74,127
18002,note_off,0,0,0,,4,,,64,127
18002,note_off,0,0,0,,8,,,56,127
18002,note_off,0,0,0,,2,,,62,127
18004,note_on,2,0,0,,2,,,62,127
18004,note_on,0,0,0,,8,,,56,127
18004,note_on,0,0,0,,4,,,64,127
18004,note_on,0,0,0,,1,,,73,127
18211,note_off,207,0,0,,1,,,73,127
18213,note_on,2,0,0,,12,,,71,127
18420,note_off,207,0,0,,12,,,71,127
18420,note_off,0,0,0,,4,,,64,127
18420,note_off,0,0,0,,8,,,56,127
18420,note_off,0,0,0,,2,,,62,127
18422,note_on,2,0,0,,10,,,57,127
18422,note_on,0,0,0,,2,,,74,127
18472,note_off,50,0,0,,2,,,74,127
18474,note_on,2,0,0,,1,,,73,127
18524,note_off,50,0,0,,1,,,73,127
18526,note_on,2,0,0,,2,,,74,127
18576,note_off,50,0,0,,2,,,74,127
18578,note_on,2,0,0,,1,,,73,127
18628,note_off,50,0,0,,10,,,57,127
18630,note_on,2,0,0,,10,,,45,127
18735,note_on,105,0,0,,7,,,55,127
18838,note_off,103,0,0,,7,,,55,127
18840,note_on,2,0,0,,6,,,54,127
19047,note_off,207,0,0,,6,,,54,127
19047,note_off,0,0,0,,1,,,73,127
19049,note_on,2,0,0,,4,,,52,127
19049,note_on,0,0,0,,2,,,74,127
19152,note_off,103,0,0,,2,,,74,127
19154,note_on,2,0,0,,4,,,76,127
19257,note_off,103,0,0,,4,,,76,127
19257,note_off,0,0,0,,4,,,52,127
19258,note_off,1,0,0,,10,,,45,127
19259,note_on,1,0,0,,6,,,54,127
19259,note_on,0,0,0,,10,,,45,127
19259,note_on,0,0,0,,10,,,69,127
19468,note_on,209,0,0,,10,,,81,127
19651,note_off,183,0,0,,10,,,69,127
19675,note_off,24,0,0,,10,,,81,127
19675,note_off,0,0,0,,6,,,54,127
19677,note_on,2,0,0,,8,,,56,127
19677,note_on,0,0,0,,12,,,71,127
19886,note_on,209,0,0,,12,,,83,127
20069,note_off,183,0,0,,12,,,71,127
20093,note_off,24,0,0,,12,,,83,127
20093,note_off,0,0,0,,8,,,56,127
20094,note_off,1,0,0,,10,,,45,127
20095,note_on,1,0,0,,10,,,57,127
20095,note_on,0,0,0,,10,,,45,127
20095,note_on,0,0,0,,2,,,74,127
20145,note_off,50,0,0,,2,,,74,127
20147,note_on,2,0,0,,1,,,73,127
20197,note_off,50,0,0,,1,,,73,127
20199,note_on,2,0,0,,2,,,74,127
20249,note_off,50,0,0,,2,,,74,127
20251,note_on,2,0,0,,1,,,73,127
20301,note_off,50,0,0,,10,,,45,127
20301,note_off,0,0,0,,10,,,57,127
20303,note_on,2,0,0,,10,,,45,127
20408,note_on,105,0,0,,7,,,55,127
20511,note_off,103,0,0,,7,,,55,127
20513,note_on,2,0,0,,6,,,54,127
20720,note_off,207,0,0,,6,,,54,127
20720,note_off,0,0,0,,1,,,73,127
20722,note_on,2,0,0,,4,,,52,127
20722,note_on,0,0,0,,2,,,74,127
20825,note_off,103,0,0,,2,,,74,127
20827,note_on,2,0,0,,4,,,76,127
20930,note_off,103,0,0,,4,,,76,127
20930,note_off,0,0,0,,4,,,52,127
20931,note_off,1,0,0,,10,,,45,127
20932,note_on,1,0,0,,10,,,45,127
20932,note_on,0,0,0,,6,,,54,127
20932,note_on,0,0,0,,10,,,69,127
21139,note_off,207,0,0,,10,,,69,127
21141,note_on,2,0,0,,2,,,86,127
21348,note_off,207,0,0,,2,,,86,127
21348,note_off,0,0,0,,6,,,54,127
21350,note_on,2,0,0,,8,,,56,127
21350,note_on,0,0,0,,2,,,74,127
21557,note_off,207,0,0,,2,,,74,127
21559,note_on,2,0,0,,2,,,86,127
21766,note_off,207,0,0,,2,,,86,127
21766,note_off,0,0,0,,8,,,56,127
21767,note_off,1,0,0,,10,,,45,127
21768,note_on,1,0,0,,10,,,45,127
21768,note_on,0,0,0,,10,,,57,127
21768,note_on,0,0,0,,1,,,85,127
21871,note_off,103,0,0,,1,,,85,127
21873,note_on,2,0,0,,12,,,83,127
21976,note_off,103,0,0,,12,,,83,127
21978,note_on,2,0,0,,10,,,81,127
22820,note_off,842,0,0,,10,,,45,127
22832,note_off,12,0,0,,10,,,57,127
22851,note_off,19,0,0,,10,,,81,127
23235,note_on,384,0,0,,4,,,76,127
23442,note_off,207,0,0,,4,,,76,127
23444,note_on,2,0,0,,10,,,69,127
23547,note_off,103,0,0,,10,,,69,127
23549,note_on,2,0,0,,5,,,77,127
23652,note_off,103,0,0,,5,,,77,127
23654,note_on,2,0,0,,4,,,76,127
23861,note_off,207,0,0,,4,,,76,127
23863,note_on,2,0,0,,11,,,70,127
23863,note_on,0,0,0,,2,,,74,127
24070,note_off,207,0,0,,2,,,74,127
24070,note_off,0,0,0,,11,,,70,127
24072,note_on,2,0,0,,7,,,79,127
24072,note_on,0,0,0,,2,,,74,127
24072,note_on,0,0,0,,4,,,64,127
24122,note_off,50,0,0,,2,,,74,127
24124,note_on,2,0,0,,1,,,73,127
24174,note_off,50,0,0,,1,,,73,127
24176,note_on,2,0,0,,2,,,74,127
24226,note_off,50,0,0,,2,,,74,127
24228,note_on,2,0,0,,1,,,73,127
24278,note_off,50,0,0,,4,,,64,127
24280,note_on,2,0,0,,10,,,57,127
24383,note_off,103,0,0,,1,,,73,127
24385,note_on,2,0,0,,2,,,74,127
24385,note_on,0,0,0,,5,,,65,127
24485,note_off,100,0,0,,7,,,79,127
24487,note_off,2,0,0,,5,,,65,127
24487,note_off,0,0,0,,2,,,74,127
24489,note_on,2,0,0,,2,,,74,127
24489,note_on,0,0,0,,7,,,79,127
24489,note_on,0,0,0,,4,,,64,127
24539,note_off,50,0,0,,2,,,74,127
24541,note_on,2,0,0,,1,,,73,127
24591,note_off,50,0,0,,1,,,73,127
24593,note_on,2,0,0,,2,,,74,127
24643,note_off,50,0,0,,2,,,74,127
24645,note_on,2,0,0,,1,,,73,127
24695,note_off,50,0,0,,4,,,64,127
24697,note_on,2,0,0,,2,,,62,127
24800,note_off,103,0,0,,1,,,73,127
24802,note_on,2,0,0,,2,,,74,127
24902,note_off,100,0,0,,7,,,79,127
24904,note_off,2,0,0,,2,,,74,127
24904,note_off,0,0,0,,2,,,62,127
24905,note_off,1,0,0,,10,,,57,127
24906,note_on,1,0,0,,4,,,76,127
24906,note_on,0,0,0,,10,,,57,127
24906,note_on,0,0,0,,1,,,61,127
25113,note_off,207,0,0,,4,,,76,127
25115,note_on,2,0,0,,10,,,69,127
25218,note_off,103,0,0,,10,,,69,127
25220,note_on,2,0,0,,5,,,77,127
25323,note_off,103,0,0,,5,,,77,127
25325,note_on,2,0,0,,4,,,76,127
25532,note_off,207,0,0,,4,,,76,127
25533,note_off,1,0,0,,1,,,61,127
25533,note_off,0,0,0,,10,,,57,127
25534,note_on,1,0,0,,2,,,74,127
25534,note_on,0,0,0,,11,,,70,127
25741,note_off,207,0,0,,11,,,70,127
25741,note_off,0,0,0,,2,,,74,127
25743,note_on,2,0,0,,7,,,79,127
25743,note_on,0,0,0,,2,,,74,127
25743,note_on,0,0,0,,4,,,64,127
25793,note_off,50,0,0,,2,,,74,127
25795,note_on,2,0,0,,1,,,73,127
25845,note_off,50,0,0,,1,,,73,127
25847,note_on,2,0,0,,2,,,74,127
25897,note_off,50,0,0,,2,,,74,127
25899,note_on,2,0,0,,1,,,73,127
25949,note_off,50,0,0,,4,,,64,127
25951,note_on,2,0,0,,10,,,57,127
26054,note_off,103,0,0,,1,,,73,127
26056,note_on,2,0,0,,2,,,74,127
26056,note_on,0,0,0,,5,,,65,127
26156,note_off,100,0,0,,7,,,79,127
26158,note_off,2,0,0,,5,,,65,127
26158,note_off,0,0,0,,2,,,74,127
26160,note_on,2,0,0,,7,,,79,127
26160,note_on,0,0,0,,2,,,74,127
26160,note_on,0,0,0,,4,,,64,127
26210,note_off,50,0,0,,2,,,74,127
26212,note_on,2,0,0,,1,,,73,127
26262,note_off,50,0,0,,1,,,73,127
26264,note_on,2,0,0,,2,,,74,127
26314,note_off,50,0,0,,2,,,74,127
26316,note_on,2,0,0,,1,,,73,127
26364,note_off,48,0,0,,10,,,57,127
26366,note_off,2,0,0,,4,,,64,127
26368,note_on,2,0,0,,2,,,62,127
26471,note_off,103,0,0,,1,,,73,127
26473,note_on,2,0,0,,2,,,74,127
26573,note_off,100,0,0,,7,,,79,127
26575,note_off,2,0,0,,2,,,74,127
26575,note_off,0,0,0,,2,,,62,127
26577,note_on,2,0,0,,11,,,70,127
26577,note_on,0,0,0,,11,,,82,127
26786,note_on,209,0,0,,7,,,55,127
26995,note_on,209,0,0,,1,,,61,127
27202,note_off,207,0,0,,1,,,61,127
27204,note_on,2,0,0,,4,,,64,127
27411,note_off,207,0,0,,4,,,64,127
27411,note_off,0,0,0,,11,,,82,127
27411,note_off,0,0,0,,11,,,70,127
27412,note_off,1,0,0,,7,,,55,127
27413,note_on,1,0,0,,10,,,81,127
27413,note_on,0,0,0,,10,,,69,127
27622,note_on,209,0,0,,5,,,53,127
27831,note_on,209,0,0,,10,,,57,127
28038,note_off,207,0,0,,10,,,57,127
28038,note_off,0,0,0,,10,,,69,127
28038,note_off,0,0,0,,10,,,81,127
28040,note_on,2,0,0,,7,,,79,127
28040,note_on,0,0,0,,2,,,62,127
28143,note_off,103,0,0,,7,,,79,127
28145,note_on,2,0,0,,5,,,77,127
28248,note_off,103,0,0,,5,,,77,127
28248,note_off,0,0,0,,2,,,62,127
28249,note_off,1,0,0,,5,,,53,127
28250,note_on,1,0,0,,4,,,76,127
28250,note_on,0,0,0,,7,,,55,127
28459,note_on,209,0,0,,4,,,64,127
28562,note_off,103,0,0,,4,,,76,127
28564,note_on,2,0,0,,5,,,77,127
28614,note_off,50,0,0,,5,,,77,127
28616,note_on,2,0,0,,7,,,79,127
28664,note_off,48,0,0,,7,,,55,127
28666,note_off,2,0,0,,7,,,79,127
28666,note_off,0,0,0,,4,,,64,127
28668,note_on,2,0,0,,2,,,74,127
28668,note_on,0,0,0,,10,,,57,127
28668,note_on,0,0,0,,5,,,65,127
28875,note_off,207,0,0,,5,,,65,127
28875,note_off,0,0,0,,2,,,74,127
28877,note_on,2,0,0,,2,,,74,127
28877,note_on,0,0,0,,4,,,64,127
28927,note_off,50,0,0,,2,,,74,127
28929,note_on,2,0,0,,1,,,73,127
28979,note_off,50,0,0,,1,,,73,127
28981,note_on,2,0,0,,12,,,71,127
29031,note_off,50,0,0,,12,,,71,127
29033,note_on,2,0,0,,1,,,73,127
29114,note_off,81,0,0,,10,,,57,127
29160,note_off,46,0,0,,1,,,73,127
29160,note_off,0,0,0,,4,,,64,127
29924,note_on,764,0,0,,11,,,82,127
29924,note_on,0,0,0,,11,,,70,127
30133,note_on,209,0,0,,7,,,55,127
30342,note_on,209,0,0,,1,,,61,127
30549,note_off,207,0,0,,1,,,61,127
30551,note_on,2,0,0,,4,,,64,127
30758,note_off,207,0,0,,4,,,64,127
30758,note_off,0,0,0,,11,,,70,127
30758,note_off,0,0,0,,11,,,82,127
30759,note_off,1,0,0,,7,,,55,127
30760,note_on,1,0,0,,10,,,69,127
30760,note_on,0,0,0,,10,,,81,127
30969,note_on,209,0,0,,5,,,53,127
31178,note_on,209,0,0,,10,,,57,127
31385,note_off,207,0,0,,10,,,57,127
31385,note_off,0,0,0,,10,,,81,127
31385,note_off,0,0,0,,10,,,69,127
31387,note_on,2,0,0,,7,,,79,127
31387,note_on,0,0,0,,2,,,62,127
31490,note_off,103,0,0,,7,,,79,127
31492,note_on,2,0,0,,5,,,77,127
31595,note_off,103,0,0,,5,,,77,127
31595,note_off,0,0,0,,2,,,62,127
31596,note_off,1,0,0,,5,,,53,127
31597,note_on,1,0,0,,4,,,76,127
31597,note_on,0,0,0,,7,,,55,127
31806,note_on,209,0,0,,7,,,67,127
31909,note_off,103,0,0,,4,,,76,127
31911,note_on,2,0,0,,5,,,77,127
31961,note_off,50,0,0,,5,,,77,127
31963,note_on,2,0,0,,7,,,79,127
32011,note_off,48,0,0,,7,,,55,127
32013,note_off,2,0,0,,7,,,79,127
32013,note_off,0,0,0,,7,,,67,127
32015,note_on,2,0,0,,2,,,74,127
32015,note_on,0,0,0,,5,,,65,127
32015,note_on,0,0,0,,10,,,57,127
32222,note_off,207,0,0,,5,,,65,127
32222,note_off,0,0,0,,2,,,74,127
32224,note_on,2,0,0,,2,,,74,127
32224,note_on,0,0,0,,4,,,64,127
32274,note_off,50,0,0,,2,,,74,127
32276,note_on,2,0,0,,1,,,73,127
32326,note_off,50,0,0,,1,,,73,127
32328,note_on,2,0,0,,12,,,71,127
32378,note_off,50,0,0,,12,,,71,127
32380,note_on,2,0,0,,1,,,73,127
32515,note_off,135,0,0,,10,,,57,127
32594,note_off,79,0,0,,1,,,73,127
32594,note_off,0,0,0,,4,,,64,127
32956,note_on,362,0,0,,11,,,82,127
32956,note_on,0,0,0,,1,,,73,127
32956,note_on,0,0,0,,1,,,85,127
33165,note_on,209,0,0,,7,,,55,127
33374,note_on,209,0,0,,1,,,61,127
33581,note_off,207,0,0,,1,,,61,127
33583,note_on,2,0,0,,4,,,64,127
33790,note_off,207,0,0,,4,,,64,127
33790,note_off,0,0,0,,1,,,85,127
33790,note_off,0,0,0,,1,,,73,127
33790,note_off,0,0,0,,11,,,82,127
33791,note_off,1,0,0,,7,,,55,127
33792,note_on,1,0,0,,2,,,86,127
33999,note_off,207,0,0,,2,,,86,127
34001,note_on,2,0,0,,5,,,53,127
34001,note_on,0,0,0,,10,,,81,127
34104,note_off,103,0,0,,10,,,81,127
34106,note_on,2,0,0,,5,,,77,127
34209,note_off,103,0,0,,5,,,77,127
34211,note_on,2,0,0,,10,,,57,127
34211,note_on,0,0,0,,2,,,74,127
34418,note_off,207,0,0,,2,,,74,127
34418,note_off,0,0,0,,10,,,57,127
34420,note_on,2,0,0,,2,,,62,127
34420,note_on,0,0,0,,2,,,74,127
34627,note_off,207,0,0,,2,,,74,127
34627,note_off,0,0,0,,2,,,62,127
34628,note_off,1,0,0,,5,,,53,127
34629,note_on,1,0,0,,7,,,55,127
34629,note_on,0,0,0,,4,,,76,127
34838,note_on,209,0,0,,7,,,67,127
34941,note_off,103,0,0,,4,,,76,127
34943,note_on,2,0,0,,5,,,77,127
34993,note_off,50,0,0,,5,,,77,127
34995,note_on,2,0,0,,7,,,79,127
35043,note_off,48,0,0,,7,,,55,127
35045,note_off,2,0,0,,7,,,79,127
35045,note_off,0,0,0,,7,,,67,127
35047,note_on,2,0,0,,10,,,57,127
35047,note_on,0,0,0,,5,,,65,127
35047,note_on,0,0,0,,2,,,74,127
35254,note_off,207,0,0,,2,,,74,127
35254,note_off,0,0,0,,5,,,65,127
35256,note_on,2,0,0,,4,,,64,127
35256,note_on,0,0,0,,2,,,74,127
35306,note_off,50,0,0,,2,,,74,127
35308,note_on,2,0,0,,1,,,73,127
35358,note_off,50,0,0,,1,,,73,127
35360,note_on,2,0,0,,12,,,71,127
35410,note_off,50,0,0,,12,,,71,127
35412,note_on,2,0,0,,1,,,73,127
35460,note_off,48,0,0,,10,,,57,127
35462,note_off,2,0,0,,1,,,73,127
35462,note_off,0,0,0,,4,,,64,127
35464,note_on,2,0,0,,2,,,50,127
35464,note_on,0,0,0,,2,,,62,127
35464,note_on,0,0,0,,2,,,74,127
35464,note_on,0,0,0,,10,,,69,127
35776,note_off,312,0,0,,2,,,74,127
35778,note_on,2,0,0,,4,,,76,127
35828,note_off,50,0,0,,4,,,76,127
35830,note_on,2,0,0,,5,,,77,127
35880,note_off,50,0,0,,5,,,77,127
35880,note_off,0,0,0,,2,,,50,127
35882,note_on,2,0,0,,5,,,53,127
35882,note_on,0,0,0,,2,,,74,127
36089,note_off,207,0,0,,2,,,74,127
36091,note_on,2,0,0,,2,,,74,127
36298,note_off,207,0,0,,2,,,74,127
36298,note_off,0,0,0,,5,,,53,127
36299,note_off,1,0,0,,10,,,69,127
36299,note_off,0,0,0,,2,,,62,127
36300,note_on,1,0,0,,7,,,55,127
36300,note_on,0,0,0,,11,,,70,127
36300,note_on,0,0,0,,2,,,74,127
36612,note_off,312,0,0,,2,,,74,127
36614,note_on,2,0,0,,4,,,76,127
36664,note_off,50,0,0,,4,,,76,127
36666,note_on,2,0,0,,5,,,77,127
36714,note_off,48,0,0,,11,,,70,127
36716,note_off,2,0,0,,5,,,77,127
36716,note_off,0,0,0,,7,,,55,127
36718,note_on,2,0,0,,4,,,52,127
36718,note_on,0,0,0,,7,,,67,127
36718,note_on,0,0,0,,2,,,74,127
36925,note_off,207,0,0,,2,,,74,127
36927,note_on,2,0,0,,2,,,74,127
37132,note_off,205,0,0,,7,,,67,127
37134,note_off,2,0,0,,2,,,74,127
37134,note_off,0,0,0,,4,,,52,127
37136,note_on,2,0,0,,5,,,53,127
37136,note_on,0,0,0,,2,,,74,127
37136,note_on,0,0,0,,10,,,69,127
37448,note_off,312,0,0,,2,,,74,127
37450,note_on,2,0,0,,4,,,76,127
37500,note_off,50,0,0,,4,,,76,127
37502,note_on,2,0,0,,5,,,77,127
37550,note_off,48,0,0,,10,,,69,127
37552,note_off,2,0,0,,5,,,77,127
37552,note_off,0,0,0,,5,,,53,127
37554,note_on,2,0,0,,2,,,50,127
37554,note_on,0,0,0,,2,,,74,127
37554,note_on,0,0,0,,5,,,65,127
37761,note_off,207,0,0,,2,,,74,127
37763,note_on,2,0,0,,2,,,74,127
37968,note_off,205,0,0,,5,,,65,127
37970,note_off,2,0,0,,2,,,74,127
37970,note_off,0,0,0,,2,,,50,127
37972,note_on,2,0,0,,7,,,55,127
37972,note_on,0,0,0,,4,,,76,127
38181,note_on,209,0,0,,7,,,67,127
38284,note_off,103,0,0,,4,,,76,127
38286,note_on,2,0,0,,5,,,77,127
38336,note_off,50,0,0,,5,,,77,127
38338,note_on,2,0,0,,7,,,79,127
38386,note_off,48,0,0,,7,,,55,127
38388,note_off,2,0,0,,7,,,79,127
38388,note_off,0,0,0,,7,,,67,127
38390,note_on,2,0,0,,10,,,57,127
38390,note_on,0,0,0,,5,,,65,127
38390,note_on,0,0,0,,2,,,74,127
38597,note_off,207,0,0,,2,,,74,127
38597,note_off,0,0,0,,5,,,65,127
38599,note_on,2,0,0,,4,,,64,127
38599,note_on,0,0,0,,2,,,74,127
38649,note_off,50,0,0,,2,,,74,127
38651,note_on,2,0,0,,1,,,73,127
38701,note_off,50,0,0,,1,,,73,127
38703,note_on,2,0,0,,12,,,71,127
38753,note_off,50,0,0,,12,,,71,127
38755,note_on,2,0,0,,1,,,73,127
38803,note_off,48,0,0,,10,,,57,127
38805,note_off,2,0,0,,1,,,73,127
38805,note_off,0,0,0,,4,,,64,127
38807,note_on,2,0,0,,2,,,62,127
38807,note_on,0,0,0,,2,,,50,127
38807,note_on,0,0,0,,10,,,69,127
38807,note_on,0,0,0,,2,,,74,127
39119,note_off,312,0,0,,2,,,74,127
39121,note_on,2,0,0,,4,,,76,127
39171,note_off,50,0,0,,4,,,76,127
39173,note_on,2,0,0,,6,,,78,127
39223,note_off,50,0,0,,6,,,78,127
39223,note_off,0,0,0,,2,,,50,127
39223,note_off,0,0,0,,2,,,62,127
39225,note_on,2,0,0,,6,,,54,127
39225,note_on,0,0,0,,2,,,74,127
39432,note_off,207,0,0,,2,,,74,127
39434,note_on,2,0,0,,2,,,74,127
39641,note_off,207,0,0,,2,,,74,127
39641,note_off,0,0,0,,6,,,54,127
39642,note_off,1,0,0,,10,,,69,127
39643,note_on,1,0,0,,7,,,55,127
39643,note_on,0,0,0,,12,,,71,127
39643,note_on,0,0,0,,2,,,74,127
39955,note_off,312,0,0,,2,,,74,127
39957,note_on,2,0,0,,4,,,76,127
40007,note_off,50,0,0,,4,,,76,127
40009,note_on,2,0,0,,6,,,78,127
40057,note_off,48,0,0,,12,,,71,127
40059,note_off,2,0,0,,6,,,78,127
40059,note_off,0,0,0,,7,,,55,127
40061,note_on,2,0,0,,4,,,52,127
40061,note_on,0,0,0,,7,,,67,127
40061,note_on,0,0,0,,2,,,74,127
40268,note_off,207,0,0,,2,,,74,127
40270,note_on,2,0,0,,2,,,74,127
40475,note_off,205,0,0,,7,,,67,127
40477,note_off,2,0,0,,2,,,74,127
40477,note_off,0,0,0,,4,,,52,127
40479,note_on,2,0,0,,6,,,54,127
40479,note_on,0,0,0,,2,,,74,127
40479,note_on,0,0,0,,10,,,69,127
40791,note_off,312,0,0,,2,,,74,127
40793,note_on,2,0,0,,4,,,76,127
40843,note_off,50,0,0,,4,,,76,127
40845,note_on,2,0,0,,6,,,78,127
40893,note_off,48,0,0,,10,,,69,127
40895,note_off,2,0,0,,6,,,78,127
40895,note_off,0,0,0,,6,,,54,127
40897,note_on,2,0,0,,2,,,50,127
40897,note_on,0,0,0,,6,,,66,127
40897,note_on,0,0,0,,2,,,74,127
41104,note_off,207,0,0,,2,,,74,127
41106,note_on,2,0,0,,2,,,74,127
41311,note_off,205,0,0,,6,,,66,127
41313,note_off,2,0,0,,2,,,74,127
41313,note_off,0,0,0,,2,,,50,127
41315,note_on,2,0,0,,7,,,55,127
41315,note_on,0,0,0,,2,,,74,127
41315,note_on,0,0,0,,1,,,73,127
41383,note_off,68,0,0,,1,,,73,127
41385,note_on,2,0,0,,12,,,71,127
41453,note_off,68,0,0,,12,,,71,127
41455,note_on,2,0,0,,1,,,73,127
41523,note_off,68,0,0,,1,,,73,127
41523,note_off,0,0,0,,7,,,55,127
41525,note_on,2,0,0,,12,,,59,127
41525,note_on,0,0,0,,12,,,71,127
41593,note_off,68,0,0,,12,,,71,127
41595,note_on,2,0,0,,10,,,69,127
41663,note_off,68,0,0,,10,,,69,127
41665,note_on,2,0,0,,7,,,67,127
41733,note_off,68,0,0,,7,,,67,127
41733,note_off,0,0,0,,12,,,59,127
41735,note_on,2,0,0,,10,,,57,127
41735,note_on,0,0,0,,6,,,66,127
41942,note_off,207,0,0,,6,,,66,127
41942,note_off,0,0,0,,10,,,57,127
41943,note_off,1,0,0,,2,,,74,127
41944,note_on,1,0,0,,10,,,45,127
41944,note_on,0,0,0,,1,,,73,127
41944,note_on,0,0,0,,4,,,64,127
42151,note_off,207,0,0,,4,,,64,127
42151,note_off,0,0,0,,1,,,73,127
42151,note_off,0,0,0,,10,,,45,127
42153,note_on,2,0,0,,2,,,50,127
42153,note_on,0,0,0,,2,,,38,127
42153,note_on,0,0,0,,2,,,74,127
42153,note_on,0,0,0,,2,,,62,127
42917,note_off,764,0,0,,2,,,38,127
42989,note_off,72,0,0,,2,,,62,127
42989,note_off,0,0,0,,2,,,74,127
42989,note_off,0,0,0,,2,,,50,127
43009,note_on,20,0,0,,2,,,74,127
43009,note_on,0,0,0,,2,,,62,127
43216,note_off,207,0,0,,2,,,62,127
43218,note_on,2,0,0,,12,,,59,127
43321,note_off,103,0,0,,12,,,59,127
43323,note_on,2,0,0,,4,,,64,127
43423,note_off,100,0,0,,2,,,74,127
43425,note_off,2,0,0,,4,,,64,127
43427,note_on,2,0,0,,2,,,62,127
43634,note_off,207,0,0,,2,,,62,127
43636,note_on,2,0,0,,2,,,62,127
43843,note_off,207,0,0,,2,,,62,127
43845,note_on,2,0,0,,0,,,60,127
44052,note_off,207,0,0,,0,,,60,127
44054,note_on,2,0,0,,10,,,57,127
44157,note_off,103,0,0,,10,,,57,127
44159,note_on,2,0,0,,2,,,62,127
44262,note_off,103,0,0,,2,,,62,127
44264,note_on,2,0,0,,0,,,60,127
44471,note_off,207,0,0,,0,,,60,127
44473,note_on,2,0,0,,0,,,60,127
44680,note_off,207,0,0,,0,,,60,127
44682,note_on,2,0,0,,2,,,74,127
44682,note_on,0,0,0,,12,,,59,127
44889,note_off,207,0,0,,2,,,74,127
44891,note_on,2,0,0,,12,,,71,127
44994,note_off,103,0,0,,12,,,71,127
44996,note_on,2,0,0,,4,,,76,127
45099,note_off,103,0,0,,4,,,76,127
45099,note_off,0,0,0,,12,,,59,127
45101,note_on,2,0,0,,2,,,74,127
45101,note_on,0,0,0,,12,,,59,127
45101,note_on,0,0,0,,7,,,67,127
45308,note_off,207,0,0,,2,,,74,127
45310,note_on,2,0,0,,2,,,74,127
45517,note_off,207,0,0,,2,,,74,127
45517,note_off,0,0,0,,12,,,59,127
45519,note_on,2,0,0,,0,,,72,127
45519,note_on,0,0,0,,10,,,57,127
45726,note_off,207,0,0,,0,,,72,127
45728,note_on,2,0,0,,10,,,69,127
45831,note_off,103,0,0,,10,,,69,127
45833,note_on,2,0,0,,2,,,74,127
45936,note_off,103,0,0,,2,,,74,127
45937,note_off,1,0,0,,7,,,67,127
45938,note_on,1,0,0,,0,,,72,127
45938,note_on,0,0,0,,6,,,66,127
46145,note_off,207,0,0,,0,,,72,127
46147,note_on,2,0,0,,0,,,72,127
46354,note_off,207,0,0,,0,,,72,127
46355,note_off,1,0,0,,10,,,57,127
46356,note_on,1,0,0,,12,,,71,127
46356,note_on,0,0,0,,7,,,55,127
46563,note_off,207,0,0,,12,,,71,127
46565,note_on,2,0,0,,7,,,67,127
46668,note_off,103,0,0,,7,,,67,127
46670,note_on,2,0,0,,0,,,72,127
46773,note_off,103,0,0,,0,,,72,127
46774,note_off,1,0,0,,6,,,66,127
46775,note_on,1,0,0,,12,,,71,127
46775,note_on,0,0,0,,4,,,64,127
46982,note_off,207,0,0,,12,,,71,127
46984,note_on,2,0,0,,12,,,71,127
47191,note_off,207,0,0,,12,,,71,127
47192,note_off,1,0,0,,7,,,55,127
47193,note_on,1,0,0,,10,,,69,127
47193,note_on,0,0,0,,6,,,54,127
47400,note_off,207,0,0,,10,,,69,127
47402,note_on,2,0,0,,6,,,66,127
47505,note_off,103,0,0,,6,,,66,127
47507,note_on,2,0,0,,12,,,71,127
47610,note_off,103,0,0,,12,,,71,127
47611,note_off,1,0,0,,4,,,64,127
47612,note_on,1,0,0,,10,,,69,127
47612,note_on,0,0,0,,3,,,63,127
47819,note_off,207,0,0,,10,,,69,127
47821,note_on,2,0,0,,10,,,69,127
48028,note_off,207,0,0,,10,,,69,127
48028,note_off,0,0,0,,3,,,63,127
48029,note_off,1,0,0,,6,,,54,127
48030,note_on,1,0,0,,7,,,67,127
48030,note_on,0,0,0,,4,,,52,127
48030,note_on,0,0,0,,4,,,64,127
48237,note_off,207,0,0,,7,,,67,127
48239,note_on,2,0,0,,4,,,76,127
48342,note_off,103,0,0,,4,,,76,127
48344,note_on,2,0,0,,2,,,74,127
48444,note_off,100,0,0,,4,,,64,127
48444,note_off,0,0,0,,4,,,52,127
48446,note_off,2,0,0,,2,,,74,127
48448,note_on,2,0,0,,0,,,72,127
48655,note_off,207,0,0,,0,,,72,127
48657,note_on,2,0,0,,12,,,71,127
48657,note_on,0,0,0,,4,,,52,127
48657,note_on,0,0,0,,4,,,64,127
48760,note_off,103,0,0,,4,,,64,127
48762,note_on,2,0,0,,2,,,62,127
48865,note_off,103,0,0,,2,,,62,127
48865,note_off,0,0,0,,4,,,52,127
48865,note_off,0,0,0,,12,,,71,127
48867,note_on,2,0,0,,10,,,69,127
48867,note_on,0,0,0,,0,,,60,127
48867,note_on,0,0,0,,4,,,52,127
49074,note_off,207,0,0,,0,,,60,127
49074,note_off,0,0,0,,10,,,69,127
49076,note_on,2,0,0,,8,,,68,127
49076,note_on,0,0,0,,12,,,59,127
49281,note_off,205,0,0,,4,,,52,127
49283,note_off,2,0,0,,12,,,59,127
49283,note_off,0,0,0,,8,,,68,127
49285,note_on,2,0,0,,10,,,69,127
49285,note_on,0,0,0,,4,,,52,127
49285,note_on,0,0,0,,10,,,57,127
49492,note_off,207,0,0,,10,,,57,127
49492,note_off,0,0,0,,10,,,69,127
49494,note_on,2,0,0,,12,,,71,127
49494,note_on,0,0,0,,8,,,56,127
49699,note_off,205,0,0,,4,,,52,127
49701,note_off,2,0,0,,8,,,56,127
49701,note_off,0,0,0,,12,,,71,127
49703,note_on,2,0,0,,0,,,72,127
49703,note_on,0,0,0,,10,,,57,127
49703,note_on,0,0,0,,10,,,45,127
49910,note_off,207,0,0,,0,,,72,127
49912,note_on,2,0,0,,2,,,74,127
50015,note_off,103,0,0,,2,,,74,127
50017,note_on,2,0,0,,0,,,72,127
50117,note_off,100,0,0,,10,,,45,127
50117,note_off,0,0,0,,10,,,57,127
50119,note_off,2,0,0,,0,,,72,127
50121,note_on,2,0,0,,12,,,71,127
50328,note_off,207,0,0,,12,,,71,127
50330,note_on,2,0,0,,10,,,69,127
50330,note_on,0,0,0,,2,,,50,127
50330,note_on,0,0,0,,2,,,62,127
50433,note_off,103,0,0,,2,,,62,127
50435,note_on,2,0,0,,0,,,60,127
50538,note_off,103,0,0,,0,,,60,127
50538,note_off,0,0,0,,2,,,50,127
50538,note_off,0,0,0,,10,,,69,127
50540,note_on,2,0,0,,7,,,67,127
50540,note_on,0,0,0,,12,,,59,127
50540,note_on,0,0,0,,2,,,50,127
50747,note_off,207,0,0,,12,,,59,127
50747,note_off,0,0,0,,7,,,67,127
50749,note_on,2,0,0,,6,,,66,127
50749,note_on,0,0,0,,10,,,57,127
50954,note_off,205,0,0,,2,,,50,127
50956,note_off,2,0,0,,10,,,57,127
50956,note_off,0,0,0,,6,,,66,127
50958,note_on,2,0,0,,7,,,67,127
50958,note_on,0,0,0,,7,,,55,127
50958,note_on,0,0,0,,2,,,50,127
51165,note_off,207,0,0,,7,,,55,127
51165,note_off,0,0,0,,7,,,67,127
51167,note_on,2,0,0,,10,,,69,127
51167,note_on,0,0,0,,6,,,54,127
51372,note_off,205,0,0,,2,,,50,127
51374,note_off,2,0,0,,6,,,54,127
51374,note_off,0,0,0,,10,,,69,127
51376,note_on,2,0,0,,12,,,71,127
51376,note_on,0,0,0,,7,,,43,127
51376,note_on,0,0,0,,7,,,55,127
51583,note_off,207,0,0,,12,,,71,127
51585,note_on,2,0,0,,7,,,79,127
51688,note_off,103,0,0,,7,,,79,127
51690,note_on,2,0,0,,6,,,78,127
51790,note_off,100,0,0,,7,,,55,127
51790,note_off,0,0,0,,7,,,43,127
51792,note_off,2,0,0,,6,,,78,127
51794,note_on,2,0,0,,4,,,76,127
52001,note_off,207,0,0,,4,,,76,127
52003,note_on,2,0,0,,2,,,74,127
52003,note_on,0,0,0,,7,,,55,127
52003,note_on,0,0,0,,7,,,67,127
52106,note_off,103,0,0,,7,,,67,127
52108,note_on,2,0,0,,6,,,66,127
52211,note_off,103,0,0,,6,,,66,127
52211,note_off,0,0,0,,7,,,55,127
52211,note_off,0,0,0,,2,,,74,127
52213,note_on,2,0,0,,1,,,73,127
52213,note_on,0,0,0,,7,,,55,127
52213,note_on,0,0,0,,4,,,64,127
52420,note_off,207,0,0,,4,,,64,127
52420,note_off,0,0,0,,1,,,73,127
52422,note_on,2,0,0,,12,,,71,127
52422,note_on,0,0,0,,2,,,62,127
52627,note_off,205,0,0,,7,,,55,127
52629,note_off,2,0,0,,2,,,62,127
52629,note_off,0,0,0,,12,,,71,127
52631,note_on,2,0,0,,11,,,70,127
52631,note_on,0,0,0,,7,,,55,127
52631,note_on,0,0,0,,1,,,61,127
52838,note_off,207,0,0,,1,,,61,127
52838,note_off,0,0,0,,11,,,70,127
52840,note_on,2,0,0,,12,,,71,127
52840,note_on,0,0,0,,12,,,59,127
53045,note_off,205,0,0,,7,,,55,127
53047,note_off,2,0,0,,12,,,59,127
53047,note_off,0,0,0,,12,,,71,127
53049,note_on,2,0,0,,1,,,73,127
53049,note_on,0,0,0,,6,,,54,127
53049,note_on,0,0,0,,1,,,61,127
53049,note_on,0,0,0,,11,,,58,127
53256,note_off,207,0,0,,1,,,73,127
53258,note_on,2,0,0,,11,,,70,127
53361,note_off,103,0,0,,11,,,70,127
53363,note_on,2,0,0,,2,,,74,127
53466,note_off,103,0,0,,2,,,74,127
53466,note_off,0,0,0,,11,,,58,127
53466,note_off,0,0,0,,1,,,61,127
53466,note_off,0,0,0,,6,,,54,127
53468,note_on,2,0,0,,1,,,73,127
53468,note_on,0,0,0,,6,,,54,127
53468,note_on,0,0,0,,1,,,61,127
53468,note_on,0,0,0,,11,,,58,127
53675,note_off,207,0,0,,1,,,73,127
53677,note_on,2,0,0,,1,,,73,127
53884,note_off,207,0,0,,1,,,73,127
53884,note_off,0,0,0,,11,,,58,127
53884,note_off,0,0,0,,1,,,61,127
53884,note_off,0,0,0,,6,,,54,127
53886,note_on,2,0,0,,1,,,73,127
53886,note_on,0,0,0,,1,,,61,127
53886,note_on,0,0,0,,12,,,59,127
53886,note_on,0,0,0,,7,,,55,127
53886,note_on,0,0,0,,4,,,64,127
54093,note_off,207,0,0,,1,,,73,127
54095,note_on,2,0,0,,11,,,70,127
54198,note_off,103,0,0,,11,,,70,127
54200,note_on,2,0,0,,2,,,74,127
54303,note_off,103,0,0,,2,,,74,127
54303,note_off,0,0,0,,4,,,64,127
54303,note_off,0,0,0,,7,,,55,127
54303,note_off,0,0,0,,12,,,59,127
54303,note_off,0,0,0,,1,,,61,127
54305,note_on,2,0,0,,1,,,73,127
54305,note_on,0,0,0,,7,,,55,127
54305,note_on,0,0,0,,1,,,61,127
54305,note_on,0,0,0,,12,,,59,127
54305,note_on,0,0,0,,4,,,64,127
54512,note_off,207,0,0,,1,,,73,127
54514,note_on,2,0,0,,1,,,73,127
54721,note_off,207,0,0,,1,,,73,127
54721,note_off,0,0,0,,4,,,64,127
54721,note_off,0,0,0,,12,,,59,127
54721,note_off,0,0,0,,1,,,61,127
54721,note_off,0,0,0,,7,,,55,127
54723,note_on,2,0,0,,4,,,76,127
54723,note_on,0,0,0,,1,,,61,127
54723,note_on,0,0,0,,6,,,54,127
54723,note_on,0,0,0,,4,,,64,127
54723,note_on,0,0,0,,12,,,59,127
54930,note_off,207,0,0,,4,,,76,127
54932,note_on,2,0,0,,1,,,73,127
55035,note_off,103,0,0,,1,,,73,127
55037,note_on,2,0,0,,6,,,78,127
55140,note_off,103,0,0,,6,,,78,127
55140,note_off,0,0,0,,12,,,59,127
55140,note_off,0,0,0,,4,,,64,127
55140,note_off,0,0,0,,6,,,54,127
55140,note_off,0,0,0,,1,,,61,127
55142,note_on,2,0,0,,4,,,76,127
55142,note_on,0,0,0,,12,,,59,127
55142,note_on,0,0,0,,6,,,54,127
55142,note_on,0,0,0,,1,,,61,127
55142,note_on,0,0,0,,4,,,64,127
55349,note_off,207,0,0,,4,,,76,127
55351,note_on,2,0,0,,4,,,76,127
55558,note_off,207,0,0,,4,,,76,127
55558,note_off,0,0,0,,4,,,64,127
55558,note_off,0,0,0,,1,,,61,127
55558,note_off,0,0,0,,6,,,54,127
55558,note_off,0,0,0,,12,,,59,127
55560,note_on,2,0,0,,4,,,76,127
55560,note_on,0,0,0,,7,,,55,127
55560,note_on,0,0,0,,4,,,52,127
55560,note_on,0,0,0,,1,,,61,127
55560,note_on,0,0,0,,10,,,57,127
55767,note_off,207,0,0,,4,,,76,127
55769,note_on,2,0,0,,1,,,73,127
55872,note_off,103,0,0,,1,,,73,127
55874,note_on,2,0,0,,6,,,78,127
55977,note_off,103,0,0,,6,,,78,127
55977,note_off,0,0,0,,10,,,57,127
55977,note_off,0,0,0,,1,,,61,127
55977,note_off,0,0,0,,4,,,52,127
55977,note_off,0,0,0,,7,,,55,127
55979,note_on,2,0,0,,4,,,76,127
55979,note_on,0,0,0,,4,,,52,127
55979,note_on,0,0,0,,1,,,61,127
55979,note_on,0,0,0,,10,,,57,127
55979,note_on,0,0,0,,7,,,55,127
56186,note_off,207,0,0,,4,,,76,127
56188,note_on,2,0,0,,4,,,76,127
56395,note_off,207,0,0,,4,,,76,127
56395,note_off,0,0,0,,7,,,55,127
56395,note_off,0,0,0,,10,,,57,127
56395,note_off,0,0,0,,1,,,61,127
56395,note_off,0,0,0,,4,,,52,127
56397,note_on,2,0,0,,6,,,78,127
56397,note_on,0,0,0,,2,,,50,127
56397,note_on,0,0,0,,2,,,62,127
56397,note_on,0,0,0,,10,,,57,127
56604,note_off,207,0,0,,6,,,78,127
56606,note_on,2,0,0,,2,,,74,127
56709,note_off,103,0,0,,2,,,74,127
56711,note_on,2,0,0,,7,,,79,127
56814,note_off,103,0,0,,7,,,79,127
56814,note_off,0,0,0,,10,,,57,127
56814,note_off,0,0,0,,2,,,62,127
56814,note_off,0,0,0,,2,,,50,127
56816,note_on,2,0,0,,6,,,78,127
56816,note_on,0,0,0,,10,,,57,127
56816,note_on,0,0,0,,2,,,50,127
56816,note_on,0,0,0,,2,,,62,127
57023,note_off,207,0,0,,6,,,78,127
57025,note_on,2,0,0,,6,,,78,127
57232,note_off,207,0,0,,6,,,78,127
57232,note_off,0,0,0,,2,,,62,127
57232,note_off,0,0,0,,2,,,50,127
57232,note_off,0,0,0,,10,,,57,127
57234,note_on,2,0,0,,6,,,78,127
57234,note_on,0,0,0,,0,,,48,127
57234,note_on,0,0,0,,0,,,60,127
57234,note_on,0,0,0,,10,,,57,127
57441,note_off,207,0,0,,6,,,78,127
57443,note_on,2,0,0,,2,,,74,127
57546,note_off,103,0,0,,2,,,74,127
57548,note_on,2,0,0,,7,,,79,127
57651,note_off,103,0,0,,7,,,79,127
57651,note_off,0,0,0,,10,,,57,127
57651,note_off,0,0,0,,0,,,60,127
57651,note_off,0,0,0,,0,,,48,127
57653,note_on,2,0,0,,6,,,78,127
57653,note_on,0,0,0,,0,,,48,127
57653,note_on,0,0,0,,10,,,57,127
57653,note_on,0,0,0,,0,,,60,127
57860,note_off,207,0,0,,6,,,78,127
57862,note_on,2,0,0,,6,,,78,127
58069,note_off,207,0,0,,6,,,78,127
58069,note_off,0,0,0,,0,,,60,127
58069,note_off,0,0,0,,10,,,57,127
58069,note_off,0,0,0,,0,,,48,127
58071,note_on,2,0,0,,7,,,79,127
58071,note_on,0,0,0,,12,,,59,127
58071,note_on,0,0,0,,7,,,55,127
58071,note_on,0,0,0,,12,,,47,127
58278,note_off,207,0,0,,7,,,79,127
58280,note_on,2,0,0,,2,,,74,127
58383,note_off,103,0,0,,2,,,74,127
58385,note_on,2,0,0,,10,,,81,127
58488,note_off,103,0,0,,10,,,81,127
58488,note_off,0,0,0,,12,,,47,127
58488,note_off,0,0,0,,7,,,55,127
58488,note_off,0,0,0,,12,,,59,127
58490,note_on,2,0,0,,7,,,79,127
58490,note_on,0,0,0,,7,,,55,127
58490,note_on,0,0,0,,12,,,47,127
58490,note_on,0,0,0,,12,,,59,127
58697,note_off,207,0,0,,7,,,79,127
58699,note_on,2,0,0,,7,,,79,127
58906,note_off,207,0,0,,7,,,79,127
58906,note_off,0,0,0,,12,,,59,127
58906,note_off,0,0,0,,12,,,47,127
58906,note_off,0,0,0,,7,,,55,127
58908,note_on,2,0,0,,10,,,81,127
58908,note_on,0,0,0,,10,,,57,127
58908,note_on,0,0,0,,6,,,54,127
58908,note_on,0,0,0,,10,,,45,127
59115,note_off,207,0,0,,10,,,81,127
59117,note_on,2,0,0,,2,,,74,127
59220,note_off,103,0,0,,2,,,74,127
59222,note_on,2,0,0,,12,,,83,127
59325,note_off,103,0,0,,12,,,83,127
59325,note_off,0,0,0,,10,,,45,127
59325,note_off,0,0,0,,6,,,54,127
59325,note_off,0,0,0,,10,,,57,127
59327,note_on,2,0,0,,10,,,81,127
59327,note_on,0,0,0,,6,,,54,127
59327,note_on,0,0,0,,10,,,45,127
59327,note_on,0,0,0,,10,,,57,127
59534,note_off,207,0,0,,10,,,81,127
59536,note_on,2,0,0,,10,,,81,127
59743,note_off,207,0,0,,10,,,81,127
59743,note_off,0,0,0,,10,,,57,127
59743,note_off,0,0,0,,10,,,45,127
59743,note_off,0,0,0,,6,,,54,127
59745,note_on,2,0,0,,12,,,83,127
59745,note_on,0,0,0,,7,,,43,127
59745,note_on,0,0,0,,7,,,55,127
59952,note_off,207,0,0,,12,,,83,127
59972,note_on,20,0,0,,12,,,83,127
60075,note_off,103,0,0,,12,,,83,127
60077,note_on,2,0,0,,7,,,79,127
60160,note_off,83,0,0,,7,,,55,127
60160,note_off,0,0,0,,7,,,43,127
60180,note_off,20,0,0,,7,,,79,127
60182,note_on,2,0,0,,2,,,86,127
60389,note_off,207,0,0,,2,,,86,127
60391,note_on,2,0,0,,2,,,86,127
60598,note_off,207,0,0,,2,,,86,127
60600,note_on,2,0,0,,4,,,88,127
60653,note_off,53,0,0,,4,,,88,127
60655,note_on,2,0,0,,2,,,86,127
60708,note_off,53,0,0,,2,,,86,127
60710,note_on,2,0,0,,4,,,88,127
60765,note_off,55,0,0,,4,,,88,127
60767,note_on,2,0,0,,2,,,86,127
60808,note_on,41,0,0,,2,,,74,127
60820,note_off,12,0,0,,2,,,86,127
60822,note_on,2,0,0,,4,,,88,127
60875,note_off,53,0,0,,4,,,88,127
60877,note_on,2,0,0,,2,,,86,127
60910,note_off,33,0,0,,2,,,74,127
60912,note_on,2,0,0,,12,,,71,127
60932,note_off,20,0,0,,2,,,86,127
60934,note_on,2,0,0,,4,,,88,127
60987,note_off,53,0,0,,4,,,88,127
60989,note_on,2,0,0,,2,,,86,127
61014,note_off,25,0,0,,12,,,71,127
61016,note_on,2,0,0,,7,,,67,127
61042,note_off,26,0,0,,2,,,86,127
61044,note_on,2,0,0,,4,,,88,127
61099,note_off,55,0,0,,4,,,88,127
61101,note_on,2,0,0,,2,,,86,127
61154,note_off,53,0,0,,2,,,86,127
61156,note_on,2,0,0,,4,,,88,127
61209,note_off,53,0,0,,4,,,88,127
61211,note_on,2,0,0,,2,,,86,127
61222,note_off,11,0,0,,7,,,67,127
61224,note_on,2,0,0,,2,,,62,127
61224,note_on,0,0,0,,7,,,67,127
61224,note_on,0,0,0,,12,,,71,127
61265,note_off,41,0,0,,2,,,86,127
61267,note_on,2,0,0,,4,,,88,127
61320,note_off,53,0,0,,4,,,88,127
61322,note_on,2,0,0,,2,,,86,127
61377,note_off,55,0,0,,2,,,86,127
61379,note_on,2,0,0,,4,,,88,127
61430,note_off,51,0,0,,12,,,71,127
61430,note_off,0,0,0,,7,,,67,127
61430,note_off,0,0,0,,2,,,62,127
61432,note_off,2,0,0,,4,,,88,127
61432,note_on,0,0,0,,10,,,69,127
61432,note_on,0,0,0,,2,,,62,127
61432,note_on,0,0,0,,0,,,72,127
61434,note_on,2,0,0,,2,,,86,127
61487,note_off,53,0,0,,2,,,86,127
61489,note_on,2,0,0,,4,,,88,127
61544,note_off,55,0,0,,4,,,88,127
61546,note_on,2,0,0,,2,,,86,127
61599,note_off,53,0,0,,2,,,86,127
61601,note_on,2,0,0,,4,,,88,127
61638,note_off,37,0,0,,0,,,72,127
61638,note_off,0,0,0,,2,,,62,127
61638,note_off,0,0,0,,10,,,69,127
61640,note_on,2,0,0,,12,,,71,127
61640,note_on,0,0,0,,2,,,62,127
61640,note_on,0,0,0,,7,,,67,127
61654,note_off,14,0,0,,4,,,88,127
61656,note_on,2,0,0,,2,,,86,127
61711,note_off,55,0,0,,2,,,86,127
61713,note_on,2,0,0,,4,,,88,127
61766,note_off,53,0,0,,4,,,88,127
61768,note_on,2,0,0,,2,,,86,127
61821,note_off,53,0,0,,2,,,86,127
61823,note_on,2,0,0,,4,,,88,127
61846,note_off,23,0,0,,7,,,67,127
61846,note_off,0,0,0,,2,,,62,127
61846,note_off,0,0,0,,12,,,71,127
61848,note_on,2,0,0,,2,,,62,127
61848,note_on,0,0,0,,10,,,69,127
61848,note_on,0,0,0,,6,,,66,127
61877,note_off,29,0,0,,4,,,88,127
61879,note_on,2,0,0,,2,,,86,127
61932,note_off,53,0,0,,2,,,86,127
61934,note_on,2,0,0,,4,,,88,127
61989,note_off,55,0,0,,4,,,88,127
61991,note_on,2,0,0,,2,,,86,127
62044,note_off,53,0,0,,2,,,86,127
62046,note_on,2,0,0,,4,,,88,127
62054,note_off,8,0,0,,6,,,66,127
62054,note_off,0,0,0,,10,,,69,127
62054,note_off,0,0,0,,2,,,62,127
62056,note_on,2,0,0,,2,,,62,127
62056,note_on,0,0,0,,4,,,64,127
62056,note_on,0,0,0,,7,,,67,127
62100,note_off,44,0,0,,4,,,88,127
62102,note_on,2,0,0,,2,,,86,127
62157,note_off,55,0,0,,2,,,86,127
62159,note_on,2,0,0,,4,,,88,127
62212,note_off,53,0,0,,4,,,88,127
62214,note_on,2,0,0,,2,,,86,127
62263,note_off,49,0,0,,2,,,86,127
62263,note_off,0,0,0,,7,,,67,127
62263,note_off,0,0,0,,4,,,64,127
62263,note_off,0,0,0,,2,,,62,127
62265,note_on,2,0,0,,4,,,76,127
62318,note_off,53,0,0,,4,,,76,127
62320,note_on,2,0,0,,2,,,74,127
62373,note_off,53,0,0,,2,,,74,127
62375,note_on,2,0,0,,4,,,76,127
62430,note_off,55,0,0,,4,,,76,127
62432,note_on,2,0,0,,2,,,74,127
62473,note_on,41,0,0,,2,,,62,127
62485,note_off,12,0,0,,2,,,74,127
62487,note_on,2,0,0,,4,,,76,127
62540,note_off,53,0,0,,4,,,76,127
62542,note_on,2,0,0,,2,,,74,127
62575,note_off,33,0,0,,2,,,62,127
62577,note_on,2,0,0,,12,,,59,127
62597,note_off,20,0,0,,2,,,74,127
62599,note_on,2,0,0,,4,,,76,127
62652,note_off,53,0,0,,4,,,76,127
62654,note_on,2,0,0,,2,,,74,127
62679,note_off,25,0,0,,12,,,59,127
62681,note_on,2,0,0,,2,,,50,127
62707,note_off,26,0,0,,2,,,74,127
62709,note_on,2,0,0,,4,,,76,127
62764,note_off,55,0,0,,4,,,76,127
62766,note_on,2,0,0,,2,,,74,127
62819,note_off,53,0,0,,2,,,74,127
62821,note_on,2,0,0,,4,,,76,127
62874,note_off,53,0,0,,4,,,76,127
62876,note_on,2,0,0,,2,,,74,127
62887,note_off,11,0,0,,2,,,50,127
62889,note_on,2,0,0,,2,,,62,127
62889,note_on,0,0,0,,2,,,50,127
62889,note_on,0,0,0,,12,,,59,127
62930,note_off,41,0,0,,2,,,74,127
62932,note_on,2,0,0,,4,,,76,127
62985,note_off,53,0,0,,4,,,76,127
62987,note_on,2,0,0,,2,,,74,127
63042,note_off,55,0,0,,2,,,74,127
63044,note_on,2,0,0,,4,,,76,127
63095,note_off,51,0,0,,12,,,59,127
63095,note_off,0,0,0,,2,,,50,127
63095,note_off,0,0,0,,2,,,62,127
63097,note_off,2,0,0,,4,,,76,127
63097,note_on,0,0,0,,2,,,50,127
63097,note_on,0,0,0,,10,,,57,127
63097,note_on,0,0,0,,0,,,60,127
63099,note_on,2,0,0,,2,,,74,127
63152,note_off,53,0,0,,2,,,74,127
63154,note_on,2,0,0,,4,,,76,127
63209,note_off,55,0,0,,4,,,76,127
63211,note_on,2,0,0,,2,,,74,127
63264,note_off,53,0,0,,2,,,74,127
63266,note_on,2,0,0,,4,,,76,127
63303,note_off,37,0,0,,0,,,60,127
63303,note_off,0,0,0,,10,,,57,127
63303,note_off,0,0,0,,2,,,50,127
63305,note_on,2,0,0,,7,,,55,127
63305,note_on,0,0,0,,12,,,59,127
63305,note_on,0,0,0,,2,,,50,127
63319,note_off,14,0,0,,4,,,76,127
63321,note_on,2,0,0,,2,,,74,127
63376,note_off,55,0,0,,2,,,74,127
63378,note_on,2,0,0,,4,,,76,127
63431,note_off,53,0,0,,4,,,76,127
63433,note_on,2,0,0,,2,,,74,127
63486,note_off,53,0,0,,2,,,74,127
63488,note_on,2,0,0,,4,,,76,127
63511,note_off,23,0,0,,2,,,50,127
63511,note_off,0,0,0,,12,,,59,127
63511,note_off,0,0,0,,7,,,55,127
63513,note_on,2,0,0,,6,,,54,127
63513,note_on,0,0,0,,10,,,57,127
63513,note_on,0,0,0,,2,,,50,127
63542,note_off,29,0,0,,4,,,76,127
63544,note_on,2,0,0,,2,,,74,127
63597,note_off,53,0,0,,2,,,74,127
63599,note_on,2,0,0,,4,,,76,127
63654,note_off,55,0,0,,4,,,76,127
63656,note_on,2,0,0,,2,,,74,127
63709,note_off,53,0,0,,2,,,74,127
63711,note_on,2,0,0,,4,,,76,127
63719,note_off,8,0,0,,2,,,50,127
63719,note_off,0,0,0,,10,,,57,127
63719,note_off,0,0,0,,6,,,54,127
63721,note_on,2,0,0,,2,,,50,127
63721,note_on,0,0,0,,4,,,52,127
63721,note_on,0,0,0,,7,,,55,127
63765,note_off,44,0,0,,4,,,76,127
63767,note_on,2,0,0,,2,,,74,127
63822,note_off,55,0,0,,2,,,74,127
63824,note_on,2,0,0,,4,,,76,127
63877,note_off,53,0,0,,4,,,76,127
63879,note_on,2,0,0,,2,,,74,127
63928,note_off,49,0,0,,2,,,74,127
63928,note_off,0,0,0,,7,,,55,127
63928,note_off,0,0,0,,4,,,52,127
63928,note_off,0,0,0,,2,,,50,127
63930,note_on,2,0,0,,4,,,64,127
63983,note_off,53,0,0,,4,,,64,127
63985,note_on,2,0,0,,2,,,62,127
64038,note_off,53,0,0,,2,,,62,127
64040,note_on,2,0,0,,4,,,64,127
64095,note_off,55,0,0,,4,,,64,127
64097,note_on,2,0,0,,2,,,62,127
64138,note_on,41,0,0,,2,,,50,127
64150,note_off,12,0,0,,2,,,62,127
64152,note_on,2,0,0,,4,,,64,127
64205,note_off,53,0,0,,4,,,64,127
64207,note_on,2,0,0,,2,,,62,127
64240,note_off,33,0,0,,2,,,50,127
64242,note_on,2,0,0,,12,,,47,127
64262,note_off,20,0,0,,2,,,62,127
64264,note_on,2,0,0,,4,,,64,127
64317,note_off,53,0,0,,4,,,64,127
64319,note_on,2,0,0,,2,,,62,127
64344,note_off,25,0,0,,12,,,47,127
64346,note_on,2,0,0,,2,,,38,127
64372,note_off,26,0,0,,2,,,62,127
64374,note_on,2,0,0,,4,,,64,127
64429,note_off,55,0,0,,4,,,64,127
64431,note_on,2,0,0,,2,,,62,127
64484,note_off,53,0,0,,2,,,62,127
64486,note_on,2,0,0,,4,,,64,127
64539,note_off,53,0,0,,4,,,64,127
64541,note_on,2,0,0,,2,,,62,127
64552,note_off,11,0,0,,2,,,38,127
64554,note_on,2,0,0,,12,,,47,127
64554,note_on,0,0,0,,2,,,50,127
64554,note_on,0,0,0,,2,,,38,127
64595,note_off,41,0,0,,2,,,62,127
64597,note_on,2,0,0,,4,,,64,127
64650,note_off,53,0,0,,4,,,64,127
64652,note_on,2,0,0,,2,,,62,127
64707,note_off,55,0,0,,2,,,62,127
64709,note_on,2,0,0,,4,,,64,127
64760,note_off,51,0,0,,2,,,38,127
64760,note_off,0,0,0,,2,,,50,127
64760,note_off,0,0,0,,12,,,47,127
64762,note_off,2,0,0,,4,,,64,127
64762,note_on,0,0,0,,10,,,45,127
64762,note_on,0,0,0,,0,,,48,127
64762,note_on,0,0,0,,2,,,38,127
64764,note_on,2,0,0,,2,,,62,127
64817,note_off,53,0,0,,2,,,62,127
64819,note_on,2,0,0,,4,,,64,127
64874,note_off,55,0,0,,4,,,64,127
64876,note_on,2,0,0,,2,,,62,127
64929,note_off,53,0,0,,2,,,62,127
64931,note_on,2,0,0,,4,,,64,127
64968,note_off,37,0,0,,2,,,38,127
64968,note_off,0,0,0,,0,,,48,127
64968,note_off,0,0,0,,10,,,45,127
64970,note_on,2,0,0,,2,,,38,127
64970,note_on,0,0,0,,7,,,43,127
64970,note_on,0,0,0,,12,,,47,127
64984,note_off,14,0,0,,4,,,64,127
64986,note_on,2,0,0,,2,,,62,127
65041,note_off,55,0,0,,2,,,62,127
65043,note_on,2,0,0,,4,,,64,127
65096,note_off,53,0,0,,4,,,64,127
65098,note_on,2,0,0,,2,,,62,127
65151,note_off,53,0,0,,2,,,62,127
65153,note_on,2,0,0,,4,,,64,127
65176,note_off,23,0,0,,12,,,47,127
65176,note_off,0,0,0,,7,,,43,127
65176,note_off,0,0,0,,2,,,38,127
65178,note_on,2,0,0,,2,,,38,127
65178,note_on,0,0,0,,6,,,42,127
65178,note_on,0,0,0,,10,,,45,127
65207,note_off,29,0,0,,4,,,64,127
65209,note_on,2,0,0,,2,,,62,127
65262,note_off,53,0,0,,2,,,62,127
65264,note_on,2,0,0,,4,,,64,127
65319,note_off,55,0,0,,4,,,64,127
65321,note_on,2,0,0,,2,,,62,127
65374,note_off,53,0,0,,2,,,62,127
65376,note_on,2,0,0,,4,,,64,127
65384,note_off,8,0,0,,10,,,45,127
65384,note_off,0,0,0,,6,,,42,127
65384,note_off,0,0,0,,2,,,38,127
65386,note_on,2,0,0,,4,,,40,127
65386,note_on,0,0,0,,7,,,43,127
65386,note_on,0,0,0,,2,,,38,127
65430,note_off,44,0,0,,4,,,64,127
65432,note_on,2,0,0,,2,,,62,127
65487,note_off,55,0,0,,2,,,62,127
65489,note_on,2,0,0,,4,,,64,127
65542,note_off,53,0,0,,4,,,64,127
65544,note_on,2,0,0,,2,,,62,127
65593,note_off,49,0,0,,2,,,38,127
65593,note_off,0,0,0,,7,,,43,127
65593,note_off,0,0,0,,4,,,40,127
65595,note_on,2,0,0,,2,,,38,127
65698,note_off,103,0,0,,2,,,62,127
65700,note_on,2,0,0,,10,,,57,127
65803,note_off,103,0,0,,10,,,57,127
65805,note_on,2,0,0,,6,,,66,127
65908,note_off,103,0,0,,6,,,66,127
65910,note_on,2,0,0,,2,,,62,127
66013,note_off,103,0,0,,2,,,62,127
66015,note_on,2,0,0,,10,,,69,127
66118,note_off,103,0,0,,10,,,69,127
66120,note_on,2,0,0,,6,,,66,127
66223,note_off,103,0,0,,6,,,66,127
66225,note_on,2,0,0,,2,,,74,127
66328,note_off,103,0,0,,2,,,74,127
66330,note_on,2,0,0,,10,,,69,127
66433,note_off,103,0,0,,10,,,69,127
66435,note_on,2,0,0,,6,,,78,127
66538,note_off,103,0,0,,6,,,78,127
66540,note_on,2,0,0,,2,,,74,127
66643,note_off,103,0,0,,2,,,74,127
66645,note_on,2,0,0,,10,,,81,127
66748,note_off,103,0,0,,10,,,81,127
66750,note_on,2,0,0,,6,,,78,127
66853,note_off,103,0,0,,6,,,78,127
66855,note_on,2,0,0,,2,,,74,127
66958,note_off,103,0,0,,2,,,74,127
66960,note_on,2,0,0,,10,,,69,127
67063,note_off,103,0,0,,10,,,69,127
67065,note_on,2,0,0,,6,,,66,127
67168,note_off,103,0,0,,6,,,66,127
67170,note_on,2,0,0,,2,,,62,127
67273,note_off,103,0,0,,2,,,62,127
67273,note_off,0,0,0,,2,,,38,127
67275,note_on,2,0,0,,2,,,38,127
67275,note_on,0,0,0,,4,,,64,127
67325,note_off,50,0,0,,4,,,64,127
67327,note_on,2,0,0,,2,,,62,127
67377,note_off,50,0,0,,2,,,62,127
67379,note_on,2,0,0,,4,,,64,127
67429,note_off,50,0,0,,4,,,64,127
67431,note_on,2,0,0,,2,,,62,127
68441,note_off,1010,0,0,,2,,,38,127
68462,note_off,21,0,0,,2,,,62,127
68950,note_on,488,0,0,,10,,,81,127
69157,note_off,207,0,0,,10,,,81,127
69159,note_on,2,0,0,,2,,,74,127
69262,note_off,103,0,0,,2,,,74,127
69264,note_on,2,0,0,,11,,,82,127
69367,note_off,103,0,0,,11,,,82,127
69369,note_on,2,0,0,,10,,,81,127
69576,note_off,207,0,0,,10,,,81,127
69578,note_on,2,0,0,,3,,,75,127
69578,note_on,0,0,0,,7,,,79,127
69785,note_off,207,0,0,,7,,,79,127
69785,note_off,0,0,0,,3,,,75,127
69787,note_on,2,0,0,,0,,,84,127
69787,note_on,0,0,0,,7,,,79,127
69787,note_on,0,0,0,,10,,,69,127
69837,note_off,50,0,0,,7,,,79,127
69839,note_on,2,0,0,,6,,,78,127
69889,note_off,50,0,0,,6,,,78,127
69891,note_on,2,0,0,,7,,,79,127
69941,note_off,50,0,0,,7,,,79,127
69943,note_on,2,0,0,,6,,,78,127
69993,note_off,50,0,0,,10,,,69,127
69995,note_on,2,0,0,,2,,,62,127
70098,note_off,103,0,0,,6,,,78,127
70100,note_on,2,0,0,,7,,,79,127
70100,note_on,0,0,0,,11,,,70,127
70200,note_off,100,0,0,,0,,,84,127
70202,note_off,2,0,0,,11,,,70,127
70203,note_off,1,0,0,,7,,,79,127
70204,note_on,1,0,0,,7,,,79,127
70204,note_on,0,0,0,,0,,,84,127
70204,note_on,0,0,0,,10,,,69,127
70254,note_off,50,0,0,,7,,,79,127
70256,note_on,2,0,0,,6,,,78,127
70306,note_off,50,0,0,,6,,,78,127
70308,note_on,2,0,0,,7,,,79,127
70358,note_off,50,0,0,,7,,,79,127
70360,note_on,2,0,0,,6,,,78,127
70410,note_off,50,0,0,,10,,,69,127
70412,note_on,2,0,0,,7,,,67,127
70515,note_off,103,0,0,,6,,,78,127
70517,note_on,2,0,0,,7,,,79,127
70617,note_off,100,0,0,,0,,,84,127
70619,note_off,2,0,0,,7,,,79,127
70619,note_off,0,0,0,,7,,,67,127
70620,note_off,1,0,0,,2,,,62,127
70621,note_on,1,0,0,,10,,,81,127
70621,note_on,0,0,0,,6,,,66,127
70621,note_on,0,0,0,,2,,,62,127
70828,note_off,207,0,0,,10,,,81,127
70830,note_on,2,0,0,,2,,,74,127
70933,note_off,103,0,0,,2,,,74,127
70935,note_on,2,0,0,,11,,,82,127
71035,note_off,100,0,0,,2,,,62,127
71035,note_off,0,0,0,,6,,,66,127
71037,note_off,2,0,0,,11,,,82,127
71039,note_on,2,0,0,,10,,,81,127
71246,note_off,207,0,0,,10,,,81,127
71248,note_on,2,0,0,,7,,,79,127
71248,note_on,0,0,0,,3,,,75,127
71455,note_off,207,0,0,,3,,,75,127
71455,note_off,0,0,0,,7,,,79,127
71457,note_on,2,0,0,,0,,,84,127
71457,note_on,0,0,0,,7,,,79,127
71457,note_on,0,0,0,,10,,,69,127
71507,note_off,50,0,0,,7,,,79,127
71509,note_on,2,0,0,,6,,,78,127
71559,note_off,50,0,0,,6,,,78,127
71561,note_on,2,0,0,,7,,,79,127
71611,note_off,50,0,0,,7,,,79,127
71613,note_on,2,0,0,,6,,,78,127
71663,note_off,50,0,0,,10,,,69,127
71665,note_on,2,0,0,,2,,,62,127
71768,note_off,103,0,0,,6,,,78,127
71770,note_on,2,0,0,,7,,,79,127
71770,note_on,0,0,0,,11,,,70,127
71870,note_off,100,0,0,,0,,,84,127
71872,note_off,2,0,0,,11,,,70,127
71872,note_off,0,0,0,,7,,,79,127
71874,note_on,2,0,0,,7,,,79,127
71874,note_on,0,0,0,,0,,,84,127
71874,note_on,0,0,0,,10,,,69,127
71924,note_off,50,0,0,,7,,,79,127
71926,note_on,2,0,0,,6,,,78,127
71976,note_off,50,0,0,,6,,,78,127
71978,note_on,2,0,0,,7,,,79,127
72028,note_off,50,0,0,,7,,,79,127
72030,note_on,2,0,0,,6,,,78,127
72080,note_off,50,0,0,,10,,,69,127
72082,note_on,2,0,0,,7,,,67,127
72185,note_off,103,0,0,,6,,,78,127
72187,note_on,2,0,0,,7,,,79,127
72287,note_off,100,0,0,,0,,,84,127
72289,note_off,2,0,0,,7,,,79,127
72289,note_off,0,0,0,,7,,,67,127
72290,note_off,1,0,0,,2,,,62,127
72309,note_on,19,0,0,,3,,,87,127
72309,note_on,0,0,0,,3,,,75,127
72518,note_on,209,0,0,,0,,,60,127
72727,note_on,209,0,0,,6,,,66,127
72934,note_off,207,0,0,,6,,,66,127
72936,note_on,2,0,0,,10,,,69,127
73143,note_off,207,0,0,,10,,,69,127
73143,note_off,0,0,0,,3,,,75,127
73143,note_off,0,0,0,,3,,,87,127
73144,note_off,1,0,0,,0,,,60,127
73145,note_on,1,0,0,,2,,,86,127
73145,note_on,0,0,0,,2,,,74,127
73354,note_on,209,0,0,,11,,,58,127
73563,note_on,209,0,0,,2,,,62,127
73770,note_off,207,0,0,,2,,,62,127
73770,note_off,0,0,0,,2,,,74,127
73770,note_off,0,0,0,,2,,,86,127
73772,note_on,2,0,0,,7,,,67,127
73772,note_on,0,0,0,,0,,,84,127
73875,note_off,103,0,0,,0,,,84,127
73877,note_on,2,0,0,,11,,,82,127
73980,note_off,103,0,0,,11,,,82,127
73980,note_off,0,0,0,,7,,,67,127
73981,note_off,1,0,0,,11,,,58,127
73982,note_on,1,0,0,,0,,,60,127
73982,note_on,0,0,0,,10,,,81,127
74191,note_on,209,0,0,,0,,,72,127
74294,note_off,103,0,0,,10,,,81,127
74296,note_on,2,0,0,,11,,,82,127
74346,note_off,50,0,0,,11,,,82,127
74348,note_on,2,0,0,,0,,,84,127
74396,note_off,48,0,0,,0,,,60,127
74398,note_off,2,0,0,,0,,,84,127
74398,note_off,0,0,0,,0,,,72,127
74400,note_on,2,0,0,,2,,,62,127
74400,note_on,0,0,0,,11,,,70,127
74400,note_on,0,0,0,,7,,,79,127
74607,note_off,207,0,0,,7,,,79,127
74607,note_off,0,0,0,,11,,,70,127
74609,note_on,2,0,0,,10,,,69,127
74609,note_on,0,0,0,,7,,,79,127
74659,note_off,50,0,0,,7,,,79,127
74661,note_on,2,0,0,,6,,,78,127
74711,note_off,50,0,0,,6,,,78,127
74713,note_on,2,0,0,,7,,,79,127
74763,note_off,50,0,0,,7,,,79,127
74765,note_on,2,0,0,,6,,,78,127
74868,note_off,103,0,0,,2,,,62,127
74925,note_off,57,0,0,,6,,,78,127
74925,note_off,0,0,0,,10,,,69,127
75656,note_on,731,0,0,,3,,,63,127
75656,note_on,0,0,0,,3,,,75,127
75865,note_on,209,0,0,,0,,,48,127
76074,note_on,209,0,0,,6,,,54,127
76281,note_off,207,0,0,,6,,,54,127
76283,note_on,2,0,0,,10,,,57,127
76490,note_off,207,0,0,,10,,,57,127
76490,note_off,0,0,0,,3,,,75,127
76490,note_off,0,0,0,,3,,,63,127
76491,note_off,1,0,0,,0,,,48,127
76492,note_on,1,0,0,,2,,,62,127
76492,note_on,0,0,0,,2,,,74,127
76701,note_on,209,0,0,,11,,,46,127
76910,note_on,209,0,0,,2,,,50,127
77117,note_off,207,0,0,,2,,,50,127
77117,note_off,0,0,0,,2,,,74,127
77117,note_off,0,0,0,,2,,,62,127
77119,note_on,2,0,0,,7,,,55,127
77119,note_on,0,0,0,,0,,,72,127
77222,note_off,103,0,0,,0,,,72,127
77224,note_on,2,0,0,,11,,,70,127
77327,note_off,103,0,0,,11,,,70,127
77327,note_off,0,0,0,,7,,,55,127
77328,note_off,1,0,0,,11,,,46,127
77329,note_on,1,0,0,,0,,,48,127
77329,note_on,0,0,0,,10,,,69,127
77538,note_on,209,0,0,,0,,,60,127
77641,note_off,103,0,0,,10,,,69,127
77643,note_on,2,0,0,,11,,,70,127
77693,note_off,50,0,0,,11,,,70,127
77695,note_on,2,0,0,,0,,,72,127
77743,note_off,48,0,0,,0,,,48,127
77745,note_off,2,0,0,,0,,,72,127
77745,note_off,0,0,0,,0,,,60,127
77747,note_on,2,0,0,,11,,,58,127
77747,note_on,0,0,0,,2,,,50,127
77747,note_on,0,0,0,,7,,,67,127
77954,note_off,207,0,0,,7,,,67,127
77954,note_off,0,0,0,,11,,,58,127
77956,note_on,2,0,0,,10,,,57,127
77956,note_on,0,0,0,,7,,,67,127
78006,note_off,50,0,0,,7,,,67,127
78008,note_on,2,0,0,,6,,,66,127
78058,note_off,50,0,0,,6,,,66,127
78060,note_on,2,0,0,,7,,,67,127
78110,note_off,50,0,0,,7,,,67,127
78112,note_on,2,0,0,,6,,,66,127
78335,note_off,223,0,0,,2,,,50,127
78370,note_off,35,0,0,,10,,,57,127
78382,note_off,12,0,0,,6,,,66,127
78636,note_on,254,0,0,,6,,,66,127
78636,note_on,0,0,0,,3,,,75,127
78636,note_on,0,0,0,,6,,,78,127
78845,note_on,209,0,0,,0,,,48,127
79054,note_on,209,0,0,,6,,,54,127
79261,note_off,207,0,0,,6,,,54,127
79263,note_on,2,0,0,,10,,,57,127
79470,note_off,207,0,0,,10,,,57,127
79470,note_off,0,0,0,,6,,,78,127
79470,note_off,0,0,0,,3,,,75,127
79470,note_off,0,0,0,,6,,,66,127
79471,note_off,1,0,0,,0,,,48,127
79472,note_on,1,0,0,,7,,,79,127
79679,note_off,207,0,0,,7,,,79,127
79681,note_on,2,0,0,,11,,,46,127
79681,note_on,0,0,0,,2,,,74,127
79784,note_off,103,0,0,,2,,,74,127
79786,note_on,2,0,0,,11,,,70,127
79889,note_off,103,0,0,,11,,,70,127
79891,note_on,2,0,0,,2,,,50,127
79891,note_on,0,0,0,,7,,,67,127
80098,note_off,207,0,0,,7,,,67,127
80098,note_off,0,0,0,,2,,,50,127
80100,note_on,2,0,0,,7,,,55,127
80100,note_on,0,0,0,,7,,,67,127
80307,note_off,207,0,0,,7,,,67,127
80307,note_off,0,0,0,,7,,,55,127
80308,note_off,1,0,0,,11,,,46,127
80309,note_on,1,0,0,,0,,,48,127
80309,note_on,0,0,0,,10,,,69,127
80518,note_on,209,0,0,,0,,,60,127
80621,note_off,103,0,0,,10,,,69,127
80623,note_on,2,0,0,,11,,,70,127
80673,note_off,50,0,0,,11,,,70,127
80675,note_on,2,0,0,,0,,,72,127
80723,note_off,48,0,0,,0,,,48,127
80725,note_off,2,0,0,,0,,,72,127
80725,note_off,0,0,0,,0,,,60,127
80727,note_on,2,0,0,,2,,,50,127
80727,note_on,0,0,0,,11,,,58,127
80727,note_on,0,0,0,,7,,,67,127
80934,note_off,207,0,0,,7,,,67,127
80934,note_off,0,0,0,,11,,,58,127
80936,note_on,2,0,0,,10,,,57,127
80936,note_on,0,0,0,,7,,,67,127
80986,note_off,50,0,0,,7,,,67,127
80988,note_on,2,0,0,,6,,,66,127
81038,note_off,50,0,0,,6,,,66,127
81040,note_on,2,0,0,,4,,,64,127
81090,note_off,50,0,0,,4,,,64,127
81092,note_on,2,0,0,,6,,,66,127
81135,note_off,43,0,0,,6,,,66,127
81140,note_off,5,0,0,,2,,,50,127
81142,note_off,2,0,0,,10,,,57,127
81162,note_on,20,0,0,,7,,,79,127
81162,note_on,0,0,0,,7,,,43,127
81162,note_on,0,0,0,,7,,,55,127
81474,note_off,312,0,0,,7,,,79,127
81476,note_on,2,0,0,,10,,,81,127
81526,note_off,50,0,0,,10,,,81,127
81528,note_on,2,0,0,,11,,,82,127
81578,note_off,50,0,0,,11,,,82,127
81578,note_off,0,0,0,,7,,,55,127
81578,note_off,0,0,0,,7,,,43,127
81580,note_on,2,0,0,,7,,,79,127
81580,note_on,0,0,0,,2,,,74,127
81580,note_on,0,0,0,,11,,,58,127
81787,note_off,207,0,0,,7,,,79,127
81789,note_on,2,0,0,,7,,,79,127
81994,note_off,205,0,0,,2,,,74,127
81996,note_off,2,0,0,,7,,,79,127
81996,note_off,0,0,0,,11,,,58,127
81998,note_on,2,0,0,,3,,,75,127
81998,note_on,0,0,0,,7,,,79,127
81998,note_on,0,0,0,,0,,,60,127
82310,note_off,312,0,0,,7,,,79,127
82312,note_on,2,0,0,,10,,,81,127
82362,note_off,50,0,0,,10,,,81,127
82364,note_on,2,0,0,,11,,,82,127
82412,note_off,48,0,0,,3,,,75,127
82414,note_off,2,0,0,,11,,,82,127
82414,note_off,0,0,0,,0,,,60,127
82416,note_on,2,0,0,,7,,,79,127
82416,note_on,0,0,0,,0,,,72,127
82416,note_on,0,0,0,,10,,,57,127
82623,note_off,207,0,0,,7,,,79,127
82625,note_on,2,0,0,,7,,,79,127
82830,note_off,205,0,0,,0,,,72,127
82832,note_off,2,0,0,,7,,,79,127
82832,note_off,0,0,0,,10,,,57,127
82834,note_on,2,0,0,,2,,,74,127
82834,note_on,0,0,0,,7,,,79,127
82834,note_on,0,0,0,,11,,,58,127
83146,note_off,312,0,0,,7,,,79,127
83148,note_on,2,0,0,,10,,,81,127
83198,note_off,50,0,0,,10,,,81,127
83200,note_on,2,0,0,,11,,,82,127
83248,note_off,48,0,0,,2,,,74,127
83250,note_off,2,0,0,,11,,,82,127
83250,note_off,0,0,0,,11,,,58,127
83252,note_on,2,0,0,,11,,,70,127
83252,note_on,0,0,0,,7,,,79,127
83252,note_on,0,0,0,,7,,,55,127
83459,note_off,207,0,0,,7,,,79,127
83461,note_on,2,0,0,,7,,,79,127
83666,note_off,205,0,0,,11,,,70,127
83668,note_off,2,0,0,,7,,,79,127
83668,note_off,0,0,0,,7,,,55,127
83670,note_on,2,0,0,,3,,,75,127
83670,note_on,0,0,0,,0,,,60,127
83877,note_off,207,0,0,,0,,,60,127
83879,note_on,2,0,0,,3,,,63,127
83982,note_off,103,0,0,,3,,,75,127
83984,note_on,2,0,0,,2,,,74,127
84034,note_off,50,0,0,,2,,,74,127
84036,note_on,2,0,0,,0,,,72,127
84086,note_off,50,0,0,,0,,,72,127
84086,note_off,0,0,0,,3,,,63,127
84088,note_on,2,0,0,,11,,,70,127
84088,note_on,0,0,0,,2,,,62,127
84295,note_off,207,0,0,,2,,,62,127
84295,note_off,0,0,0,,11,,,70,127
84297,note_on,2,0,0,,10,,,69,127
84297,note_on,0,0,0,,2,,,50,127
84504,note_off,207,0,0,,2,,,50,127
84504,note_off,0,0,0,,10,,,69,127
84506,note_on,2,0,0,,7,,,79,127
84506,note_on,0,0,0,,7,,,43,127
84506,note_on,0,0,0,,7,,,55,127
84818,note_off,312,0,0,,7,,,79,127
84820,note_on,2,0,0,,10,,,81,127
84870,note_off,50,0,0,,10,,,81,127
84872,note_on,2,0,0,,12,,,83,127
84922,note_off,50,0,0,,12,,,83,127
84922,note_off,0,0,0,,7,,,55,127
84922,note_off,0,0,0,,7,,,43,127
84924,note_on,2,0,0,,7,,,79,127
84924,note_on,0,0,0,,2,,,74,127
84924,note_on,0,0,0,,12,,,59,127
85131,note_off,207,0,0,,7,,,79,127
85133,note_on,2,0,0,,7,,,79,127
85338,note_off,205,0,0,,2,,,74,127
85340,note_off,2,0,0,,7,,,79,127
85340,note_off,0,0,0,,12,,,59,127
85342,note_on,2,0,0,,4,,,76,127
85342,note_on,0,0,0,,7,,,79,127
85342,note_on,0,0,0,,0,,,60,127
85654,note_off,312,0,0,,7,,,79,127
85656,note_on,2,0,0,,10,,,81,127
85706,note_off,50,0,0,,10,,,81,127
85708,note_on,2,0,0,,12,,,83,127
85756,note_off,48,0,0,,4,,,76,127
85758,note_off,2,0,0,,12,,,83,127
85758,note_off,0,0,0,,0,,,60,127
85760,note_on,2,0,0,,0,,,72,127
85760,note_on,0,0,0,,7,,,79,127
85760,note_on,0,0,0,,10,,,57,127
85967,note_off,207,0,0,,7,,,79,127
85969,note_on,2,0,0,,7,,,79,127
86174,note_off,205,0,0,,0,,,72,127
86176,note_off,2,0,0,,7,,,79,127
86176,note_off,0,0,0,,10,,,57,127
86178,note_on,2,0,0,,2,,,74,127
86178,note_on,0,0,0,,7,,,79,127
86178,note_on,0,0,0,,12,,,59,127
86490,note_off,312,0,0,,7,,,79,127
86492,note_on,2,0,0,,10,,,81,127
86542,note_off,50,0,0,,10,,,81,127
86544,note_on,2,0,0,,12,,,83,127
86592,note_off,48,0,0,,2,,,74,127
86594,note_off,2,0,0,,12,,,83,127
86594,note_off,0,0,0,,12,,,59,127
86596,note_on,2,0,0,,12,,,71,127
86596,note_on,0,0,0,,7,,,79,127
86596,note_on,0,0,0,,7,,,55,127
86803,note_off,207,0,0,,7,,,79,127
86805,note_on,2,0,0,,7,,,79,127
87010,note_off,205,0,0,,12,,,71,127
87012,note_off,2,0,0,,7,,,79,127
87012,note_off,0,0,0,,7,,,55,127
87014,note_on,2,0,0,,6,,,78,127
87014,note_on,0,0,0,,7,,,79,127
87014,note_on,0,0,0,,0,,,48,127
87022,note_off,8,0,0,,6,,,78,127
87084,note_on,62,0,0,,4,,,76,127
87152,note_off,68,0,0,,4,,,76,127
87154,note_on,2,0,0,,6,,,78,127
87222,note_off,68,0,0,,6,,,78,127
87222,note_off,0,0,0,,0,,,48,127
87224,note_on,2,0,0,,4,,,76,127
87224,note_on,0,0,0,,4,,,52,127
87292,note_off,68,0,0,,4,,,76,127
87294,note_on,2,0,0,,2,,,74,127
87362,note_off,68,0,0,,2,,,74,127
87364,note_on,2,0,0,,0,,,72,127
87432,note_off,68,0,0,,0,,,72,127
87432,note_off,0,0,0,,4,,,52,127
87434,note_on,2,0,0,,12,,,71,127
87434,note_on,0,0,0,,2,,,50,127
87641,note_off,207,0,0,,12,,,71,127
87642,note_off,1,0,0,,7,,,79,127
87643,note_on,1,0,0,,10,,,69,127
87643,note_on,0,0,0,,6,,,78,127
87643,note_on,0,0,0,,2,,,38,127
87848,note_off,205,0,0,,2,,,50,127
87850,note_off,2,0,0,,2,,,38,127
87850,note_off,0,0,0,,6,,,78,127
87860,note_off,10,0,0,,10,,,69,127
87879,note_on,19,0,0,,7,,,67,127
87879,note_on,0,0,0,,7,,,79,127
87879,note_on,0,0,0,,7,,,43,127
87879,note_on,0,0,0,,7,,,55,127
89790,note_off,1911,0,0,,7,,,55,127
89790,note_off,0,0,0,,7,,,43,127
89790,note_off,0,0,0,,7,,,79,127
89790,note_off,0,0,0,,7,,,67,127
90624,end_of_track,834,1,0,,,,,,
