tick,type,time,meta,track,program,channel,pitch,tempo,note,velocity
0,copyright,0,1,0,,,,,,
0,program_change,0,0,0,6,0,,,,
0,pitchwheel,0,0,0,,0,0,,,
0,program_change,0,0,0,6,1,,,,
0,pitchwheel,0,0,0,,1,-590,,,
0,program_change,0,0,0,6,2,,,,
0,pitchwheel,0,0,0,,2,-272,,,
0,program_change,0,0,0,6,3,,,,
0,pitchwheel,0,0,0,,3,-353,,,
0,program_change,0,0,0,6,4,,,,
0,pitchwheel,0,0,0,,4,-560,,,
0,program_change,0,0,0,6,5,,,,
0,pitchwheel,0,0,0,,5,-80,,,
0,program_change,0,0,0,6,6,,,,
0,pitchwheel,0,0,0,,6,-625,,,
0,program_change,0,0,0,6,7,,,,
0,pitchwheel,0,0,0,,7,-130,,,
0,program_change,0,0,0,6,8,,,,
0,pitchwheel,0,0,0,,8,-512,,,
0,program_change,0,0,0,6,10,,,,
0,pitchwheel,0,0,0,,10,-464,,,
0,program_change,0,0,0,6,11,,,,
0,pitchwheel,0,0,0,,11,-208,,,
0,program_change,0,0,0,6,12,,,,
0,pitchwheel,0,0,0,,12,-553,,,
0,set_tempo,0,1,0,,,,500000,,
123,note_on,123,0,0,,7,,,67,127
244,note_off,121,0,0,,7,,,67,127
246,note_on,2,0,0,,7,,,67,127
367,note_off,121,0,0,,7,,,67,127
369,note_on,2,0,0,,10,,,69,127
490,note_off,121,0,0,,10,,,69,127
492,note_on,2,0,0,,10,,,69,127
613,note_off,121,0,0,,10,,,69,127
615,note_on,2,0,0,,12,,,71,127
736,note_off,121,0,0,,12,,,71,127
738,note_on,2,0,0,,0,,,72,127
859,note_off,121,0,0,,0,,,72,127
861,note_on,2,0,0,,0,,,72,127
982,note_off,121,0,0,,0,,,72,127
984,note_on,2,0,0,,2,,,74,127
1105,note_off,121,0,0,,2,,,74,127
1107,note_on,2,0,0,,4,,,76,127
1228,note_off,121,0,0,,4,,,76,127
1230,note_on,2,0,0,,6,,,78,127
1351,note_off,121,0,0,,6,,,78,127
1353,note_on,2,0,0,,7,,,79,127
1474,note_off,121,0,0,,7,,,79,127
1476,note_on,2,0,0,,2,,,74,127
1599,note_on,123,0,0,,2,,,50,127
1720,note_off,121,0,0,,2,,,50,127
1722,note_on,2,0,0,,2,,,50,127
1843,note_off,121,0,0,,2,,,50,127
1845,note_on,2,0,0,,4,,,52,127
1966,note_off,121,0,0,,4,,,52,127
1968,note_on,2,0,0,,4,,,52,127
2089,note_off,121,0,0,,4,,,52,127
2089,note_off,0,0,0,,2,,,74,127
2091,note_on,2,0,0,,0,,,72,127
2091,note_on,0,0,0,,6,,,54,127
2212,note_off,121,0,0,,6,,,54,127
2214,note_on,2,0,0,,7,,,55,127
2335,note_off,121,0,0,,7,,,55,127
2335,note_off,0,0,0,,0,,,72,127
2337,note_on,2,0,0,,12,,,71,127
2337,note_on,0,0,0,,7,,,55,127
2458,note_off,121,0,0,,7,,,55,127
2458,note_off,0,0,0,,12,,,71,127
2460,note_on,2,0,0,,10,,,69,127
2460,note_on,0,0,0,,10,,,57,127
2581,note_off,121,0,0,,10,,,57,127
2583,note_on,2,0,0,,12,,,59,127
2704,note_off,121,0,0,,12,,,59,127
2704,note_off,0,0,0,,10,,,69,127
2706,note_on,2,0,0,,7,,,67,127
2706,note_on,0,0,0,,0,,,60,127
2827,note_off,121,0,0,,0,,,60,127
2827,note_off,0,0,0,,7,,,67,127
2829,note_on,2,0,0,,6,,,66,127
2829,note_on,0,0,0,,2,,,62,127
2950,note_off,121,0,0,,2,,,62,127
2950,note_off,0,0,0,,6,,,66,127
2952,note_on,2,0,0,,7,,,67,127
2952,note_on,0,0,0,,7,,,55,127
3073,note_off,121,0,0,,7,,,67,127
3075,note_on,2,0,0,,7,,,67,127
3196,note_off,121,0,0,,7,,,67,127
3198,note_on,2,0,0,,7,,,67,127
3319,note_off,121,0,0,,7,,,67,127
3320,note_off,1,0,0,,7,,,55,127
3321,note_on,1,0,0,,10,,,69,127
3442,note_off,121,0,0,,10,,,69,127
3444,note_on,2,0,0,,10,,,69,127
3565,note_off,121,0,0,,10,,,69,127
3567,note_on,2,0,0,,10,,,69,127
3567,note_on,0,0,0,,7,,,55,127
3567,note_on,0,0,0,,5,,,65,127
3688,note_off,121,0,0,,10,,,69,127
3690,note_on,2,0,0,,12,,,71,127
3811,note_off,121,0,0,,12,,,71,127
3813,note_on,2,0,0,,12,,,71,127
3934,note_off,121,0,0,,12,,,71,127
3934,note_off,0,0,0,,5,,,65,127
3936,note_on,2,0,0,,0,,,72,127
3936,note_on,0,0,0,,4,,,64,127
4057,note_off,121,0,0,,4,,,64,127
4057,note_off,0,0,0,,0,,,72,127
4057,note_off,0,0,0,,7,,,55,127
4059,note_on,2,0,0,,2,,,74,127
4059,note_on,0,0,0,,7,,,55,127
4059,note_on,0,0,0,,2,,,62,127
4180,note_off,121,0,0,,2,,,62,127
4180,note_off,0,0,0,,2,,,74,127
4182,note_on,2,0,0,,4,,,76,127
4182,note_on,0,0,0,,0,,,60,127
4303,note_off,121,0,0,,0,,,60,127
4303,note_off,0,0,0,,4,,,76,127
4305,note_on,2,0,0,,5,,,77,127
4305,note_on,0,0,0,,12,,,59,127
4426,note_off,121,0,0,,12,,,59,127
4426,note_off,0,0,0,,5,,,77,127
4426,note_off,0,0,0,,7,,,55,127
4428,note_on,2,0,0,,4,,,76,127
4428,note_on,0,0,0,,0,,,48,127
4428,note_on,0,0,0,,0,,,60,127
4549,note_off,121,0,0,,4,,,76,127
4551,note_on,2,0,0,,10,,,69,127
4672,note_off,121,0,0,,10,,,69,127
4674,note_on,2,0,0,,10,,,69,127
4795,note_off,121,0,0,,10,,,69,127
4796,note_off,1,0,0,,0,,,60,127
4796,note_off,0,0,0,,0,,,48,127
4797,note_on,1,0,0,,12,,,71,127
4918,note_off,121,0,0,,12,,,71,127
4920,note_on,2,0,0,,12,,,71,127
5041,note_off,121,0,0,,12,,,71,127
5043,note_on,2,0,0,,12,,,71,127
5043,note_on,0,0,0,,10,,,57,127
5043,note_on,0,0,0,,7,,,67,127
5164,note_off,121,0,0,,12,,,71,127
5166,note_on,2,0,0,,1,,,73,127
5287,note_off,121,0,0,,1,,,73,127
5289,note_on,2,0,0,,1,,,73,127
5410,note_off,121,0,0,,1,,,73,127
5410,note_off,0,0,0,,7,,,67,127
5412,note_on,2,0,0,,2,,,74,127
5412,note_on,0,0,0,,6,,,66,127
5533,note_off,121,0,0,,6,,,66,127
5533,note_off,0,0,0,,2,,,74,127
5533,note_off,0,0,0,,10,,,57,127
5535,note_on,2,0,0,,4,,,76,127
5535,note_on,0,0,0,,4,,,64,127
5535,note_on,0,0,0,,10,,,57,127
5656,note_off,121,0,0,,4,,,64,127
5656,note_off,0,0,0,,4,,,76,127
5658,note_on,2,0,0,,6,,,78,127
5658,note_on,0,0,0,,2,,,62,127
5779,note_off,121,0,0,,2,,,62,127
5779,note_off,0,0,0,,6,,,78,127
5781,note_on,2,0,0,,7,,,79,127
5781,note_on,0,0,0,,1,,,61,127
5902,note_off,121,0,0,,1,,,61,127
5902,note_off,0,0,0,,7,,,79,127
5903,note_off,1,0,0,,10,,,57,127
5904,note_on,1,0,0,,6,,,78,127
5904,note_on,0,0,0,,2,,,62,127
5904,note_on,0,0,0,,2,,,50,127
6025,note_off,121,0,0,,6,,,78,127
6027,note_on,2,0,0,,10,,,81,127
6148,note_off,121,0,0,,10,,,81,127
6150,note_on,2,0,0,,10,,,81,127
6271,note_off,121,0,0,,10,,,81,127
6271,note_off,0,0,0,,2,,,50,127
6271,note_off,0,0,0,,2,,,62,127
6273,note_on,2,0,0,,10,,,81,127
6273,note_on,0,0,0,,6,,,54,127
6394,note_off,121,0,0,,10,,,81,127
6396,note_on,2,0,0,,7,,,79,127
6517,note_off,121,0,0,,7,,,79,127
6519,note_on,2,0,0,,6,,,78,127
6640,note_off,121,0,0,,6,,,78,127
6640,note_off,0,0,0,,6,,,54,127
6642,note_on,2,0,0,,6,,,78,127
6642,note_on,0,0,0,,7,,,55,127
6763,note_off,121,0,0,,6,,,78,127
6765,note_on,2,0,0,,4,,,76,127
6886,note_off,121,0,0,,4,,,76,127
6888,note_on,2,0,0,,2,,,74,127
7009,note_off,121,0,0,,2,,,74,127
7009,note_off,0,0,0,,7,,,55,127
7011,note_on,2,0,0,,4,,,76,127
7011,note_on,0,0,0,,2,,,74,127
7011,note_on,0,0,0,,8,,,56,127
7132,note_off,121,0,0,,2,,,74,127
7132,note_off,0,0,0,,4,,,76,127
7134,note_on,2,0,0,,1,,,73,127
7255,note_off,121,0,0,,1,,,73,127
7257,note_on,2,0,0,,12,,,71,127
7378,note_off,121,0,0,,12,,,71,127
7378,note_off,0,0,0,,8,,,56,127
7380,note_on,2,0,0,,10,,,69,127
7380,note_on,0,0,0,,10,,,57,127
7501,note_off,121,0,0,,10,,,57,127
7501,note_off,0,0,0,,10,,,69,127
7503,note_on,2,0,0,,1,,,73,127
7503,note_on,0,0,0,,4,,,64,127
7624,note_off,121,0,0,,4,,,64,127
7624,note_off,0,0,0,,1,,,73,127
7626,note_on,2,0,0,,4,,,76,127
7626,note_on,0,0,0,,1,,,61,127
7747,note_off,121,0,0,,1,,,61,127
7747,note_off,0,0,0,,4,,,76,127
7749,note_on,2,0,0,,10,,,81,127
7749,note_on,0,0,0,,10,,,57,127
7870,note_off,121,0,0,,10,,,57,127
7870,note_off,0,0,0,,10,,,81,127
7872,note_on,2,0,0,,1,,,73,127
7872,note_on,0,0,0,,4,,,64,127
7993,note_off,121,0,0,,4,,,64,127
7993,note_off,0,0,0,,1,,,73,127
7995,note_on,2,0,0,,4,,,76,127
7995,note_on,0,0,0,,1,,,61,127
8116,note_off,121,0,0,,1,,,61,127
8116,note_off,0,0,0,,4,,,76,127
8118,note_on,2,0,0,,10,,,81,127
8118,note_on,0,0,0,,4,,,52,127
8239,note_off,121,0,0,,4,,,52,127
8239,note_off,0,0,0,,10,,,81,127
8241,note_on,2,0,0,,10,,,69,127
8241,note_on,0,0,0,,4,,,64,127
8362,note_off,121,0,0,,4,,,64,127
8362,note_off,0,0,0,,10,,,69,127
8364,note_on,2,0,0,,1,,,73,127
8364,note_on,0,0,0,,1,,,61,127
8485,note_off,121,0,0,,1,,,61,127
8485,note_off,0,0,0,,1,,,73,127
8487,note_on,2,0,0,,10,,,81,127
8487,note_on,0,0,0,,1,,,49,127
8608,note_off,121,0,0,,1,,,49,127
8608,note_off,0,0,0,,10,,,81,127
8610,note_on,2,0,0,,10,,,69,127
8610,note_on,0,0,0,,4,,,64,127
8731,note_off,121,0,0,,4,,,64,127
8731,note_off,0,0,0,,10,,,69,127
8733,note_on,2,0,0,,1,,,73,127
8733,note_on,0,0,0,,1,,,61,127
8854,note_off,121,0,0,,1,,,61,127
8854,note_off,0,0,0,,1,,,73,127
8856,note_on,2,0,0,,10,,,81,127
8856,note_on,0,0,0,,10,,,45,127
8977,note_off,121,0,0,,10,,,45,127
8977,note_off,0,0,0,,10,,,81,127
8979,note_on,2,0,0,,10,,,69,127
8979,note_on,0,0,0,,4,,,64,127
9100,note_off,121,0,0,,4,,,64,127
9100,note_off,0,0,0,,10,,,69,127
9102,note_on,2,0,0,,1,,,73,127
9102,note_on,0,0,0,,1,,,61,127
9223,note_off,121,0,0,,1,,,61,127
9223,note_off,0,0,0,,1,,,73,127
9225,note_on,2,0,0,,10,,,81,127
9225,note_on,0,0,0,,4,,,40,127
9346,note_off,121,0,0,,4,,,40,127
9346,note_off,0,0,0,,10,,,81,127
9348,note_on,2,0,0,,10,,,69,127
9348,note_on,0,0,0,,4,,,64,127
9469,note_off,121,0,0,,4,,,64,127
9469,note_off,0,0,0,,10,,,69,127
9471,note_on,2,0,0,,1,,,73,127
9471,note_on,0,0,0,,1,,,61,127
9592,note_off,121,0,0,,1,,,61,127
9592,note_off,0,0,0,,1,,,73,127
9594,note_on,2,0,0,,10,,,81,127
9594,note_on,0,0,0,,1,,,37,127
9715,note_off,121,0,0,,1,,,37,127
9715,note_off,0,0,0,,10,,,81,127
9717,note_on,2,0,0,,10,,,69,127
9717,note_on,0,0,0,,4,,,64,127
9838,note_off,121,0,0,,4,,,64,127
9838,note_off,0,0,0,,10,,,69,127
9840,note_on,2,0,0,,1,,,73,127
9840,note_on,0,0,0,,1,,,61,127
9961,note_off,121,0,0,,1,,,61,127
9961,note_off,0,0,0,,1,,,73,127
9963,note_on,2,0,0,,10,,,81,127
9963,note_on,0,0,0,,10,,,33,127
10086,note_on,123,0,0,,10,,,69,127
10207,note_off,121,0,0,,10,,,69,127
10207,note_off,0,0,0,,10,,,33,127
10208,note_off,1,0,0,,10,,,81,127
10209,note_on,1,0,0,,7,,,79,127
10209,note_on,0,0,0,,1,,,37,127
10330,note_off,121,0,0,,1,,,37,127
10330,note_off,0,0,0,,7,,,79,127
10332,note_on,2,0,0,,6,,,78,127
10332,note_on,0,0,0,,2,,,74,127
10332,note_on,0,0,0,,2,,,38,127
10453,note_off,121,0,0,,2,,,74,127
10453,note_off,0,0,0,,6,,,78,127
10455,note_on,2,0,0,,1,,,73,127
10455,note_on,0,0,0,,4,,,76,127
10576,note_off,121,0,0,,4,,,76,127
10576,note_off,0,0,0,,1,,,73,127
10576,note_off,0,0,0,,2,,,38,127
10578,note_on,2,0,0,,2,,,74,127
10578,note_on,0,0,0,,6,,,78,127
10578,note_on,0,0,0,,7,,,43,127
10699,note_off,121,0,0,,7,,,43,127
10699,note_off,0,0,0,,6,,,78,127
10699,note_off,0,0,0,,2,,,74,127
10701,note_on,2,0,0,,4,,,76,127
10701,note_on,0,0,0,,7,,,79,127
10701,note_on,0,0,0,,10,,,45,127
10822,note_off,121,0,0,,7,,,79,127
10822,note_off,0,0,0,,4,,,76,127
10824,note_on,2,0,0,,2,,,74,127
10824,note_on,0,0,0,,6,,,78,127
10945,note_off,121,0,0,,6,,,78,127
10945,note_off,0,0,0,,2,,,74,127
10947,note_on,2,0,0,,1,,,73,127
10947,note_on,0,0,0,,4,,,76,127
11068,note_off,121,0,0,,4,,,76,127
11068,note_off,0,0,0,,1,,,73,127
11068,note_off,0,0,0,,10,,,45,127
11070,note_on,2,0,0,,2,,,74,127
11070,note_on,0,0,0,,2,,,50,127
11191,note_off,121,0,0,,2,,,74,127
11193,note_on,2,0,0,,10,,,81,127
11314,note_off,121,0,0,,10,,,81,127
11316,note_on,2,0,0,,10,,,81,127
11437,note_off,121,0,0,,10,,,81,127
11437,note_off,0,0,0,,2,,,50,127
11439,note_on,2,0,0,,10,,,81,127
11439,note_on,0,0,0,,6,,,54,127
11560,note_off,121,0,0,,10,,,81,127
11562,note_on,2,0,0,,7,,,79,127
11683,note_off,121,0,0,,7,,,79,127
11685,note_on,2,0,0,,6,,,78,127
11806,note_off,121,0,0,,6,,,78,127
11806,note_off,0,0,0,,6,,,54,127
11808,note_on,2,0,0,,6,,,78,127
11808,note_on,0,0,0,,7,,,55,127
11929,note_off,121,0,0,,6,,,78,127
11931,note_on,2,0,0,,4,,,76,127
12052,note_off,121,0,0,,4,,,76,127
12054,note_on,2,0,0,,2,,,74,127
12175,note_off,121,0,0,,2,,,74,127
12175,note_off,0,0,0,,7,,,55,127
12177,note_on,2,0,0,,4,,,76,127
12177,note_on,0,0,0,,2,,,74,127
12177,note_on,0,0,0,,8,,,56,127
12298,note_off,121,0,0,,2,,,74,127
12298,note_off,0,0,0,,4,,,76,127
12300,note_on,2,0,0,,1,,,73,127
12421,note_off,121,0,0,,1,,,73,127
12423,note_on,2,0,0,,12,,,71,127
12544,note_off,121,0,0,,12,,,71,127
12544,note_off,0,0,0,,8,,,56,127
12546,note_on,2,0,0,,10,,,69,127
12546,note_on,0,0,0,,10,,,57,127
12667,note_off,121,0,0,,10,,,57,127
12667,note_off,0,0,0,,10,,,69,127
12669,note_on,2,0,0,,1,,,73,127
12669,note_on,0,0,0,,4,,,64,127
12790,note_off,121,0,0,,4,,,64,127
12790,note_off,0,0,0,,1,,,73,127
12792,note_on,2,0,0,,4,,,76,127
12792,note_on,0,0,0,,1,,,61,127
12913,note_off,121,0,0,,1,,,61,127
12913,note_off,0,0,0,,4,,,76,127
12915,note_on,2,0,0,,10,,,81,127
12915,note_on,0,0,0,,10,,,57,127
13036,note_off,121,0,0,,10,,,57,127
13036,note_off,0,0,0,,10,,,81,127
13038,note_on,2,0,0,,1,,,73,127
13038,note_on,0,0,0,,4,,,64,127
13159,note_off,121,0,0,,4,,,64,127
13159,note_off,0,0,0,,1,,,73,127
13161,note_on,2,0,0,,4,,,76,127
13161,note_on,0,0,0,,1,,,61,127
13282,note_off,121,0,0,,1,,,61,127
13282,note_off,0,0,0,,4,,,76,127
13284,note_on,2,0,0,,10,,,81,127
13284,note_on,0,0,0,,4,,,52,127
13405,note_off,121,0,0,,4,,,52,127
13405,note_off,0,0,0,,10,,,81,127
13407,note_on,2,0,0,,10,,,69,127
13407,note_on,0,0,0,,4,,,64,127
13528,note_off,121,0,0,,4,,,64,127
13528,note_off,0,0,0,,10,,,69,127
13530,note_on,2,0,0,,1,,,73,127
13530,note_on,0,0,0,,1,,,61,127
13651,note_off,121,0,0,,1,,,61,127
13651,note_off,0,0,0,,1,,,73,127
13653,note_on,2,0,0,,10,,,81,127
13653,note_on,0,0,0,,1,,,49,127
13774,note_off,121,0,0,,1,,,49,127
13774,note_off,0,0,0,,10,,,81,127
13776,note_on,2,0,0,,10,,,69,127
13776,note_on,0,0,0,,4,,,64,127
13897,note_off,121,0,0,,4,,,64,127
13897,note_off,0,0,0,,10,,,69,127
13899,note_on,2,0,0,,1,,,73,127
13899,note_on,0,0,0,,1,,,61,127
14020,note_off,121,0,0,,1,,,61,127
14020,note_off,0,0,0,,1,,,73,127
14022,note_on,2,0,0,,10,,,81,127
14022,note_on,0,0,0,,10,,,45,127
14143,note_off,121,0,0,,10,,,45,127
14143,note_off,0,0,0,,10,,,81,127
14145,note_on,2,0,0,,10,,,69,127
14145,note_on,0,0,0,,4,,,64,127
14266,note_off,121,0,0,,4,,,64,127
14266,note_off,0,0,0,,10,,,69,127
14268,note_on,2,0,0,,1,,,73,127
14268,note_on,0,0,0,,1,,,61,127
14389,note_off,121,0,0,,1,,,61,127
14389,note_off,0,0,0,,1,,,73,127
14391,note_on,2,0,0,,10,,,81,127
14391,note_on,0,0,0,,4,,,40,127
14512,note_off,121,0,0,,4,,,40,127
14512,note_off,0,0,0,,10,,,81,127
14514,note_on,2,0,0,,10,,,69,127
14514,note_on,0,0,0,,4,,,64,127
14635,note_off,121,0,0,,4,,,64,127
14635,note_off,0,0,0,,10,,,69,127
14637,note_on,2,0,0,,1,,,73,127
14637,note_on,0,0,0,,1,,,61,127
14758,note_off,121,0,0,,1,,,61,127
14758,note_off,0,0,0,,1,,,73,127
14760,note_on,2,0,0,,10,,,81,127
14760,note_on,0,0,0,,1,,,37,127
14881,note_off,121,0,0,,1,,,37,127
14881,note_off,0,0,0,,10,,,81,127
14883,note_on,2,0,0,,10,,,69,127
14883,note_on,0,0,0,,4,,,64,127
15004,note_off,121,0,0,,4,,,64,127
15004,note_off,0,0,0,,10,,,69,127
15006,note_on,2,0,0,,1,,,73,127
15006,note_on,0,0,0,,1,,,61,127
15127,note_off,121,0,0,,1,,,61,127
15127,note_off,0,0,0,,1,,,73,127
15129,note_on,2,0,0,,10,,,81,127
15129,note_on,0,0,0,,10,,,33,127
15252,note_on,123,0,0,,10,,,69,127
15373,note_off,121,0,0,,10,,,69,127
15373,note_off,0,0,0,,10,,,33,127
15374,note_off,1,0,0,,10,,,81,127
15375,note_on,1,0,0,,7,,,79,127
15375,note_on,0,0,0,,1,,,37,127
15496,note_off,121,0,0,,1,,,37,127
15496,note_off,0,0,0,,7,,,79,127
15498,note_on,2,0,0,,6,,,78,127
15498,note_on,0,0,0,,2,,,74,127
15498,note_on,0,0,0,,2,,,38,127
15619,note_off,121,0,0,,2,,,74,127
15619,note_off,0,0,0,,6,,,78,127
15621,note_on,2,0,0,,1,,,73,127
15621,note_on,0,0,0,,4,,,76,127
15742,note_off,121,0,0,,4,,,76,127
15742,note_off,0,0,0,,1,,,73,127
15742,note_off,0,0,0,,2,,,38,127
15744,note_on,2,0,0,,2,,,74,127
15744,note_on,0,0,0,,6,,,78,127
15744,note_on,0,0,0,,7,,,43,127
15865,note_off,121,0,0,,7,,,43,127
15865,note_off,0,0,0,,6,,,78,127
15865,note_off,0,0,0,,2,,,74,127
15867,note_on,2,0,0,,7,,,79,127
15867,note_on,0,0,0,,4,,,76,127
15867,note_on,0,0,0,,10,,,45,127
15988,note_off,121,0,0,,4,,,76,127
15988,note_off,0,0,0,,7,,,79,127
15990,note_on,2,0,0,,2,,,74,127
15990,note_on,0,0,0,,6,,,78,127
16111,note_off,121,0,0,,6,,,78,127
16111,note_off,0,0,0,,2,,,74,127
16113,note_on,2,0,0,,4,,,76,127
16113,note_on,0,0,0,,1,,,73,127
16234,note_off,121,0,0,,1,,,73,127
16234,note_off,0,0,0,,4,,,76,127
16234,note_off,0,0,0,,10,,,45,127
16236,note_on,2,0,0,,2,,,74,127
16236,note_on,0,0,0,,2,,,50,127
16357,note_off,121,0,0,,2,,,74,127
16359,note_on,2,0,0,,10,,,81,127
16480,note_off,121,0,0,,10,,,81,127
16482,note_on,2,0,0,,6,,,78,127
16603,note_off,121,0,0,,6,,,78,127
16603,note_off,0,0,0,,2,,,50,127
16605,note_on,2,0,0,,2,,,74,127
16605,note_on,0,0,0,,6,,,42,127
16726,note_off,121,0,0,,2,,,74,127
16728,note_on,2,0,0,,10,,,69,127
16849,note_off,121,0,0,,10,,,69,127
16851,note_on,2,0,0,,6,,,66,127
16972,note_off,121,0,0,,6,,,66,127
16972,note_off,0,0,0,,6,,,42,127
16974,note_on,2,0,0,,2,,,62,127
16974,note_on,0,0,0,,7,,,43,127
17095,note_off,121,0,0,,2,,,62,127
17097,note_on,2,0,0,,12,,,59,127
17218,note_off,121,0,0,,12,,,59,127
17220,note_on,2,0,0,,7,,,55,127
17341,note_off,121,0,0,,7,,,55,127
17341,note_off,0,0,0,,7,,,43,127
17343,note_on,2,0,0,,6,,,54,127
17343,note_on,0,0,0,,10,,,45,127
17466,note_on,123,0,0,,2,,,62,127
17587,note_off,121,0,0,,2,,,62,127
17587,note_off,0,0,0,,6,,,54,127
17589,note_on,2,0,0,,4,,,52,127
17589,note_on,0,0,0,,1,,,61,127
17710,note_off,121,0,0,,1,,,61,127
17710,note_off,0,0,0,,4,,,52,127
17710,note_off,0,0,0,,10,,,45,127
17712,note_on,2,0,0,,2,,,62,127
17712,note_on,0,0,0,,2,,,50,127
17712,note_on,0,0,0,,2,,,38,127
17833,note_off,121,0,0,,2,,,50,127
17833,note_off,0,0,0,,2,,,62,127
17835,note_on,2,0,0,,10,,,81,127
17956,note_off,121,0,0,,10,,,81,127
17958,note_on,2,0,0,,6,,,78,127
18079,note_off,121,0,0,,6,,,78,127
18079,note_off,0,0,0,,2,,,38,127
18081,note_on,2,0,0,,2,,,74,127
18081,note_on,0,0,0,,6,,,42,127
18202,note_off,121,0,0,,2,,,74,127
18204,note_on,2,0,0,,10,,,69,127
18325,note_off,121,0,0,,10,,,69,127
18327,note_on,2,0,0,,6,,,66,127
18448,note_off,121,0,0,,6,,,66,127
18448,note_off,0,0,0,,6,,,42,127
18450,note_on,2,0,0,,2,,,62,127
18450,note_on,0,0,0,,7,,,43,127
18571,note_off,121,0,0,,2,,,62,127
18573,note_on,2,0,0,,12,,,59,127
18694,note_off,121,0,0,,12,,,59,127
18696,note_on,2,0,0,,7,,,55,127
18817,note_off,121,0,0,,7,,,55,127
18817,note_off,0,0,0,,7,,,43,127
18819,note_on,2,0,0,,6,,,54,127
18819,note_on,0,0,0,,10,,,45,127
18942,note_on,123,0,0,,2,,,62,127
19063,note_off,121,0,0,,2,,,62,127
19063,note_off,0,0,0,,6,,,54,127
19065,note_on,2,0,0,,1,,,61,127
19065,note_on,0,0,0,,4,,,52,127
19186,note_off,121,0,0,,4,,,52,127
19186,note_off,0,0,0,,1,,,61,127
19186,note_off,0,0,0,,10,,,45,127
19188,note_on,2,0,0,,2,,,62,127
19188,note_on,0,0,0,,2,,,50,127
19188,note_on,0,0,0,,2,,,38,127
19740,note_off,552,0,0,,2,,,62,127
19923,note_off,183,0,0,,2,,,38,127
19923,note_off,0,0,0,,2,,,50,127
19925,note_on,2,0,0,,2,,,62,127
19925,note_on,0,0,0,,2,,,50,127
19925,note_on,0,0,0,,2,,,38,127
20046,note_off,121,0,0,,2,,,62,127
20048,note_on,2,0,0,,2,,,62,127
20169,note_off,121,0,0,,2,,,62,127
20171,note_on,2,0,0,,2,,,62,127
20292,note_off,121,0,0,,2,,,62,127
20293,note_off,1,0,0,,2,,,38,127
20293,note_off,0,0,0,,2,,,50,127
20294,note_on,1,0,0,,4,,,64,127
20415,note_off,121,0,0,,4,,,64,127
20417,note_on,2,0,0,,4,,,64,127
20538,note_off,121,0,0,,4,,,64,127
20540,note_on,2,0,0,,4,,,64,127
20540,note_on,0,0,0,,2,,,50,127
20540,note_on,0,0,0,,0,,,60,127
20661,note_off,121,0,0,,4,,,64,127
20663,note_on,2,0,0,,6,,,66,127
20784,note_off,121,0,0,,6,,,66,127
20786,note_on,2,0,0,,6,,,66,127
20907,note_off,121,0,0,,6,,,66,127
20907,note_off,0,0,0,,0,,,60,127
20909,note_on,2,0,0,,7,,,67,127
20909,note_on,0,0,0,,12,,,59,127
21030,note_off,121,0,0,,12,,,59,127
21030,note_off,0,0,0,,7,,,67,127
21030,note_off,0,0,0,,2,,,50,127
21032,note_on,2,0,0,,10,,,69,127
21032,note_on,0,0,0,,2,,,50,127
21032,note_on,0,0,0,,10,,,57,127
21153,note_off,121,0,0,,10,,,57,127
21153,note_off,0,0,0,,10,,,69,127
21155,note_on,2,0,0,,12,,,71,127
21155,note_on,0,0,0,,7,,,55,127
21276,note_off,121,0,0,,7,,,55,127
21276,note_off,0,0,0,,12,,,71,127
21278,note_on,2,0,0,,0,,,72,127
21278,note_on,0,0,0,,6,,,54,127
21399,note_off,121,0,0,,6,,,54,127
21399,note_off,0,0,0,,0,,,72,127
21399,note_off,0,0,0,,2,,,50,127
21401,note_on,2,0,0,,12,,,71,127
21401,note_on,0,0,0,,7,,,55,127
21401,note_on,0,0,0,,7,,,43,127
21522,note_off,121,0,0,,12,,,71,127
21524,note_on,2,0,0,,7,,,67,127
21645,note_off,121,0,0,,7,,,67,127
21647,note_on,2,0,0,,7,,,67,127
21768,note_off,121,0,0,,7,,,67,127
21769,note_off,1,0,0,,7,,,43,127
21769,note_off,0,0,0,,7,,,55,127
21770,note_on,1,0,0,,10,,,69,127
21891,note_off,121,0,0,,10,,,69,127
21893,note_on,2,0,0,,10,,,69,127
22014,note_off,121,0,0,,10,,,69,127
22016,note_on,2,0,0,,10,,,69,127
22016,note_on,0,0,0,,5,,,65,127
22016,note_on,0,0,0,,7,,,55,127
22137,note_off,121,0,0,,10,,,69,127
22139,note_on,2,0,0,,12,,,71,127
22260,note_off,121,0,0,,12,,,71,127
22262,note_on,2,0,0,,12,,,71,127
22383,note_off,121,0,0,,12,,,71,127
22383,note_off,0,0,0,,5,,,65,127
22385,note_on,2,0,0,,0,,,72,127
22385,note_on,0,0,0,,4,,,64,127
22506,note_off,121,0,0,,4,,,64,127
22506,note_off,0,0,0,,0,,,72,127
22506,note_off,0,0,0,,7,,,55,127
22508,note_on,2,0,0,,2,,,74,127
22508,note_on,0,0,0,,7,,,55,127
22508,note_on,0,0,0,,2,,,62,127
22629,note_off,121,0,0,,2,,,62,127
22629,note_off,0,0,0,,2,,,74,127
22631,note_on,2,0,0,,4,,,76,127
22631,note_on,0,0,0,,0,,,60,127
22752,note_off,121,0,0,,0,,,60,127
22752,note_off,0,0,0,,4,,,76,127
22754,note_on,2,0,0,,5,,,77,127
22754,note_on,0,0,0,,12,,,59,127
22875,note_off,121,0,0,,12,,,59,127
22875,note_off,0,0,0,,5,,,77,127
22875,note_off,0,0,0,,7,,,55,127
22877,note_on,2,0,0,,4,,,76,127
22877,note_on,0,0,0,,0,,,48,127
22877,note_on,0,0,0,,0,,,60,127
22998,note_off,121,0,0,,4,,,76,127
23000,note_on,2,0,0,,10,,,69,127
23121,note_off,121,0,0,,10,,,69,127
23123,note_on,2,0,0,,10,,,69,127
23244,note_off,121,0,0,,10,,,69,127
23245,note_off,1,0,0,,0,,,60,127
23245,note_off,0,0,0,,0,,,48,127
23246,note_on,1,0,0,,12,,,71,127
23367,note_off,121,0,0,,12,,,71,127
23369,note_on,2,0,0,,12,,,71,127
23490,note_off,121,0,0,,12,,,71,127
23492,note_on,2,0,0,,12,,,71,127
23492,note_on,0,0,0,,10,,,57,127
23492,note_on,0,0,0,,7,,,67,127
23613,note_off,121,0,0,,12,,,71,127
23615,note_on,2,0,0,,1,,,73,127
23736,note_off,121,0,0,,1,,,73,127
23738,note_on,2,0,0,,1,,,73,127
23859,note_off,121,0,0,,1,,,73,127
23859,note_off,0,0,0,,7,,,67,127
23861,note_on,2,0,0,,2,,,74,127
23861,note_on,0,0,0,,6,,,66,127
23982,note_off,121,0,0,,6,,,66,127
23982,note_off,0,0,0,,2,,,74,127
23982,note_off,0,0,0,,10,,,57,127
23984,note_on,2,0,0,,4,,,76,127
23984,note_on,0,0,0,,4,,,64,127
23984,note_on,0,0,0,,10,,,57,127
24105,note_off,121,0,0,,4,,,64,127
24105,note_off,0,0,0,,4,,,76,127
24107,note_on,2,0,0,,6,,,78,127
24107,note_on,0,0,0,,2,,,62,127
24228,note_off,121,0,0,,2,,,62,127
24228,note_off,0,0,0,,6,,,78,127
24230,note_on,2,0,0,,7,,,79,127
24230,note_on,0,0,0,,1,,,61,127
24351,note_off,121,0,0,,1,,,61,127
24351,note_off,0,0,0,,7,,,79,127
24351,note_off,0,0,0,,10,,,57,127
24353,note_on,2,0,0,,6,,,78,127
24353,note_on,0,0,0,,2,,,50,127
24353,note_on,0,0,0,,2,,,62,127
24474,note_off,121,0,0,,6,,,78,127
24476,note_on,2,0,0,,12,,,71,127
24597,note_off,121,0,0,,12,,,71,127
24599,note_on,2,0,0,,12,,,71,127
24720,note_off,121,0,0,,12,,,71,127
24721,note_off,1,0,0,,2,,,62,127
24721,note_off,0,0,0,,2,,,50,127
24722,note_on,1,0,0,,1,,,73,127
24843,note_off,121,0,0,,1,,,73,127
24845,note_on,2,0,0,,1,,,73,127
24966,note_off,121,0,0,,1,,,73,127
24968,note_on,2,0,0,,1,,,73,127
24968,note_on,0,0,0,,12,,,59,127
24968,note_on,0,0,0,,10,,,69,127
25089,note_off,121,0,0,,1,,,73,127
25091,note_on,2,0,0,,3,,,75,127
25212,note_off,121,0,0,,3,,,75,127
25214,note_on,2,0,0,,3,,,75,127
25335,note_off,121,0,0,,3,,,75,127
25335,note_off,0,0,0,,10,,,69,127
25337,note_on,2,0,0,,4,,,76,127
25337,note_on,0,0,0,,7,,,67,127
25458,note_off,121,0,0,,7,,,67,127
25458,note_off,0,0,0,,4,,,76,127
25458,note_off,0,0,0,,12,,,59,127
25460,note_on,2,0,0,,6,,,78,127
25460,note_on,0,0,0,,6,,,66,127
25460,note_on,0,0,0,,12,,,59,127
25581,note_off,121,0,0,,6,,,66,127
25581,note_off,0,0,0,,6,,,78,127
25583,note_on,2,0,0,,7,,,79,127
25583,note_on,0,0,0,,4,,,64,127
25704,note_off,121,0,0,,4,,,64,127
25704,note_off,0,0,0,,7,,,79,127
25706,note_on,2,0,0,,10,,,81,127
25706,note_on,0,0,0,,3,,,63,127
25827,note_off,121,0,0,,3,,,63,127
25827,note_off,0,0,0,,10,,,81,127
25827,note_off,0,0,0,,12,,,59,127
25829,note_on,2,0,0,,7,,,79,127
25829,note_on,0,0,0,,4,,,64,127
25950,note_off,121,0,0,,4,,,64,127
25952,note_on,2,0,0,,12,,,71,127
26073,note_off,121,0,0,,12,,,71,127
26075,note_on,2,0,0,,7,,,67,127
26196,note_off,121,0,0,,7,,,67,127
26196,note_off,0,0,0,,7,,,79,127
26198,note_on,2,0,0,,10,,,81,127
26198,note_on,0,0,0,,0,,,60,127
26319,note_off,121,0,0,,0,,,60,127
26321,note_on,2,0,0,,6,,,66,127
26442,note_off,121,0,0,,6,,,66,127
26444,note_on,2,0,0,,2,,,62,127
26565,note_off,121,0,0,,2,,,62,127
26565,note_off,0,0,0,,10,,,81,127
26567,note_on,2,0,0,,12,,,83,127
26567,note_on,0,0,0,,12,,,59,127
26688,note_off,121,0,0,,12,,,59,127
26690,note_on,2,0,0,,7,,,67,127
26811,note_off,121,0,0,,7,,,67,127
26813,note_on,2,0,0,,4,,,64,127
26934,note_off,121,0,0,,4,,,64,127
26934,note_off,0,0,0,,12,,,83,127
26936,note_on,2,0,0,,0,,,84,127
26936,note_on,0,0,0,,10,,,57,127
27057,note_off,121,0,0,,10,,,57,127
27059,note_on,2,0,0,,6,,,66,127
27180,note_off,121,0,0,,6,,,66,127
27182,note_on,2,0,0,,3,,,63,127
27303,note_off,121,0,0,,3,,,63,127
27303,note_off,0,0,0,,0,,,84,127
27305,note_on,2,0,0,,12,,,83,127
27305,note_on,0,0,0,,7,,,55,127
27426,note_off,121,0,0,,7,,,55,127
27428,note_on,2,0,0,,12,,,59,127
27549,note_off,121,0,0,,12,,,59,127
27551,note_on,2,0,0,,4,,,64,127
27672,note_off,121,0,0,,4,,,64,127
27672,note_off,0,0,0,,12,,,83,127
27674,note_on,2,0,0,,10,,,81,127
27674,note_on,0,0,0,,6,,,54,127
27795,note_off,121,0,0,,6,,,54,127
27797,note_on,2,0,0,,10,,,57,127
27918,note_off,121,0,0,,10,,,57,127
27920,note_on,2,0,0,,3,,,63,127
28041,note_off,121,0,0,,3,,,63,127
28041,note_off,0,0,0,,10,,,81,127
28043,note_on,2,0,0,,7,,,79,127
28043,note_on,0,0,0,,4,,,52,127
28164,note_off,121,0,0,,7,,,79,127
28166,note_on,2,0,0,,12,,,83,127
28287,note_off,121,0,0,,12,,,83,127
28289,note_on,2,0,0,,3,,,75,127
28410,note_off,121,0,0,,3,,,75,127
28410,note_off,0,0,0,,4,,,52,127
28412,note_on,2,0,0,,4,,,76,127
28412,note_on,0,0,0,,7,,,55,127
28533,note_off,121,0,0,,4,,,76,127
28535,note_on,2,0,0,,12,,,83,127
28656,note_off,121,0,0,,12,,,83,127
28658,note_on,2,0,0,,12,,,71,127
28779,note_off,121,0,0,,12,,,71,127
28779,note_off,0,0,0,,7,,,55,127
28781,note_on,2,0,0,,0,,,72,127
28781,note_on,0,0,0,,10,,,57,127
28902,note_off,121,0,0,,0,,,72,127
28904,note_on,2,0,0,,10,,,81,127
29025,note_off,121,0,0,,10,,,81,127
29027,note_on,2,0,0,,4,,,76,127
29148,note_off,121,0,0,,4,,,76,127
29148,note_off,0,0,0,,10,,,57,127
29150,note_on,2,0,0,,6,,,78,127
29150,note_on,0,0,0,,2,,,50,127
29271,note_off,121,0,0,,6,,,78,127
29273,note_on,2,0,0,,10,,,81,127
29394,note_off,121,0,0,,10,,,81,127
29396,note_on,2,0,0,,10,,,69,127
29517,note_off,121,0,0,,10,,,69,127
29517,note_off,0,0,0,,2,,,50,127
29519,note_on,2,0,0,,12,,,71,127
29519,note_on,0,0,0,,7,,,55,127
29640,note_off,121,0,0,,12,,,71,127
29642,note_on,2,0,0,,2,,,86,127
29763,note_off,121,0,0,,2,,,86,127
29765,note_on,2,0,0,,2,,,86,127
29886,note_off,121,0,0,,2,,,86,127
29886,note_off,0,0,0,,7,,,55,127
29888,note_on,2,0,0,,2,,,86,127
29888,note_on,0,0,0,,12,,,59,127
30009,note_off,121,0,0,,2,,,86,127
30011,note_on,2,0,0,,0,,,84,127
30132,note_off,121,0,0,,0,,,84,127
30134,note_on,2,0,0,,12,,,83,127
30255,note_off,121,0,0,,12,,,83,127
30255,note_off,0,0,0,,12,,,59,127
30257,note_on,2,0,0,,12,,,83,127
30257,note_on,0,0,0,,0,,,60,127
30378,note_off,121,0,0,,12,,,83,127
30380,note_on,2,0,0,,10,,,81,127
30501,note_off,121,0,0,,10,,,81,127
30503,note_on,2,0,0,,7,,,79,127
30624,note_off,121,0,0,,7,,,79,127
30624,note_off,0,0,0,,0,,,60,127
30626,note_on,2,0,0,,10,,,81,127
30626,note_on,0,0,0,,7,,,79,127
30626,note_on,0,0,0,,1,,,61,127
30747,note_off,121,0,0,,7,,,79,127
30747,note_off,0,0,0,,10,,,81,127
30749,note_on,2,0,0,,6,,,78,127
30870,note_off,121,0,0,,6,,,78,127
30872,note_on,2,0,0,,4,,,76,127
30993,note_off,121,0,0,,4,,,76,127
30993,note_off,0,0,0,,1,,,61,127
30995,note_on,2,0,0,,2,,,74,127
30995,note_on,0,0,0,,2,,,62,127
31116,note_off,121,0,0,,2,,,62,127
31116,note_off,0,0,0,,2,,,74,127
31118,note_on,2,0,0,,6,,,78,127
31118,note_on,0,0,0,,10,,,69,127
31239,note_off,121,0,0,,10,,,69,127
31239,note_off,0,0,0,,6,,,78,127
31241,note_on,2,0,0,,10,,,81,127
31241,note_on,0,0,0,,6,,,66,127
31362,note_off,121,0,0,,6,,,66,127
31362,note_off,0,0,0,,10,,,81,127
31364,note_on,2,0,0,,2,,,86,127
31364,note_on,0,0,0,,2,,,62,127
31485,note_off,121,0,0,,2,,,62,127
31485,note_off,0,0,0,,2,,,86,127
31487,note_on,2,0,0,,6,,,78,127
31487,note_on,0,0,0,,10,,,69,127
31608,note_off,121,0,0,,10,,,69,127
31608,note_off,0,0,0,,6,,,78,127
31610,note_on,2,0,0,,10,,,81,127
31610,note_on,0,0,0,,6,,,66,127
31731,note_off,121,0,0,,6,,,66,127
31731,note_off,0,0,0,,10,,,81,127
31733,note_on,2,0,0,,2,,,86,127
31733,note_on,0,0,0,,10,,,57,127
31854,note_off,121,0,0,,10,,,57,127
31854,note_off,0,0,0,,2,,,86,127
31856,note_on,2,0,0,,2,,,74,127
31856,note_on,0,0,0,,10,,,69,127
31977,note_off,121,0,0,,10,,,69,127
31977,note_off,0,0,0,,2,,,74,127
31979,note_on,2,0,0,,6,,,78,127
31979,note_on,0,0,0,,6,,,66,127
32100,note_off,121,0,0,,6,,,66,127
32100,note_off,0,0,0,,6,,,78,127
32102,note_on,2,0,0,,2,,,86,127
32102,note_on,0,0,0,,6,,,54,127
32223,note_off,121,0,0,,6,,,54,127
32223,note_off,0,0,0,,2,,,86,127
32225,note_on,2,0,0,,2,,,74,127
32225,note_on,0,0,0,,10,,,69,127
32346,note_off,121,0,0,,10,,,69,127
32346,note_off,0,0,0,,2,,,74,127
32348,note_on,2,0,0,,6,,,78,127
32348,note_on,0,0,0,,6,,,66,127
32469,note_off,121,0,0,,6,,,66,127
32469,note_off,0,0,0,,6,,,78,127
32471,note_on,2,0,0,,2,,,86,127
32471,note_on,0,0,0,,2,,,50,127
32592,note_off,121,0,0,,2,,,50,127
32592,note_off,0,0,0,,2,,,86,127
32594,note_on,2,0,0,,2,,,74,127
32594,note_on,0,0,0,,10,,,69,127
32715,note_off,121,0,0,,10,,,69,127
32715,note_off,0,0,0,,2,,,74,127
32717,note_on,2,0,0,,6,,,78,127
32717,note_on,0,0,0,,6,,,66,127
32838,note_off,121,0,0,,6,,,66,127
32838,note_off,0,0,0,,6,,,78,127
32840,note_on,2,0,0,,2,,,86,127
32840,note_on,0,0,0,,10,,,45,127
32961,note_off,121,0,0,,10,,,45,127
32961,note_off,0,0,0,,2,,,86,127
32963,note_on,2,0,0,,2,,,74,127
32963,note_on,0,0,0,,10,,,69,127
33084,note_off,121,0,0,,10,,,69,127
33084,note_off,0,0,0,,2,,,74,127
33086,note_on,2,0,0,,6,,,78,127
33086,note_on,0,0,0,,6,,,66,127
33207,note_off,121,0,0,,6,,,66,127
33207,note_off,0,0,0,,6,,,78,127
33209,note_on,2,0,0,,2,,,86,127
33209,note_on,0,0,0,,6,,,42,127
33330,note_off,121,0,0,,6,,,42,127
33330,note_off,0,0,0,,2,,,86,127
33332,note_on,2,0,0,,2,,,74,127
33332,note_on,0,0,0,,10,,,69,127
33453,note_off,121,0,0,,10,,,69,127
33453,note_off,0,0,0,,2,,,74,127
33455,note_on,2,0,0,,6,,,78,127
33455,note_on,0,0,0,,6,,,66,127
33576,note_off,121,0,0,,6,,,66,127
33576,note_off,0,0,0,,6,,,78,127
33578,note_on,2,0,0,,2,,,86,127
33578,note_on,0,0,0,,2,,,38,127
33701,note_on,123,0,0,,2,,,74,127
33822,note_off,121,0,0,,2,,,74,127
33822,note_off,0,0,0,,2,,,38,127
33823,note_off,1,0,0,,2,,,86,127
33824,note_on,1,0,0,,0,,,84,127
33824,note_on,0,0,0,,6,,,42,127
33945,note_off,121,0,0,,6,,,42,127
33945,note_off,0,0,0,,0,,,84,127
33947,note_on,2,0,0,,7,,,79,127
33947,note_on,0,0,0,,12,,,83,127
33947,note_on,0,0,0,,7,,,43,127
34068,note_off,121,0,0,,12,,,83,127
34068,note_off,0,0,0,,7,,,79,127
34070,note_on,2,0,0,,6,,,78,127
34070,note_on,0,0,0,,10,,,81,127
34191,note_off,121,0,0,,10,,,81,127
34191,note_off,0,0,0,,6,,,78,127
34191,note_off,0,0,0,,7,,,43,127
34193,note_on,2,0,0,,12,,,83,127
34193,note_on,0,0,0,,7,,,79,127
34193,note_on,0,0,0,,0,,,48,127
34314,note_off,121,0,0,,0,,,48,127
34314,note_off,0,0,0,,7,,,79,127
34314,note_off,0,0,0,,12,,,83,127
34316,note_on,2,0,0,,0,,,84,127
34316,note_on,0,0,0,,10,,,81,127
34316,note_on,0,0,0,,2,,,50,127
34437,note_off,121,0,0,,10,,,81,127
34437,note_off,0,0,0,,0,,,84,127
34439,note_on,2,0,0,,12,,,83,127
34439,note_on,0,0,0,,7,,,79,127
34560,note_off,121,0,0,,7,,,79,127
34560,note_off,0,0,0,,12,,,83,127
34560,note_off,0,0,0,,2,,,50,127
34562,note_on,2,0,0,,10,,,81,127
34562,note_on,0,0,0,,6,,,78,127
34562,note_on,0,0,0,,2,,,38,127
34683,note_off,121,0,0,,2,,,38,127
34683,note_off,0,0,0,,6,,,78,127
34683,note_off,0,0,0,,10,,,81,127
34685,note_on,2,0,0,,7,,,79,127
34685,note_on,0,0,0,,7,,,43,127
34806,note_off,121,0,0,,7,,,79,127
34808,note_on,2,0,0,,2,,,86,127
34929,note_off,121,0,0,,2,,,86,127
34931,note_on,2,0,0,,2,,,86,127
35002,note_off,71,0,0,,7,,,43,127
35052,note_off,50,0,0,,2,,,86,127
35054,note_on,2,0,0,,2,,,86,127
35054,note_on,0,0,0,,12,,,59,127
35175,note_off,121,0,0,,2,,,86,127
35177,note_on,2,0,0,,0,,,84,127
35298,note_off,121,0,0,,0,,,84,127
35300,note_on,2,0,0,,12,,,83,127
35421,note_off,121,0,0,,12,,,83,127
35421,note_off,0,0,0,,12,,,59,127
35423,note_on,2,0,0,,12,,,83,127
35423,note_on,0,0,0,,0,,,60,127
35544,note_off,121,0,0,,12,,,83,127
35546,note_on,2,0,0,,10,,,81,127
35667,note_off,121,0,0,,10,,,81,127
35669,note_on,2,0,0,,7,,,79,127
35790,note_off,121,0,0,,7,,,79,127
35790,note_off,0,0,0,,0,,,60,127
35792,note_on,2,0,0,,10,,,81,127
35792,note_on,0,0,0,,7,,,79,127
35792,note_on,0,0,0,,1,,,61,127
35913,note_off,121,0,0,,7,,,79,127
35913,note_off,0,0,0,,10,,,81,127
35915,note_on,2,0,0,,6,,,78,127
36036,note_off,121,0,0,,6,,,78,127
36038,note_on,2,0,0,,4,,,76,127
36159,note_off,121,0,0,,4,,,76,127
36159,note_off,0,0,0,,1,,,61,127
36161,note_on,2,0,0,,2,,,74,127
36161,note_on,0,0,0,,2,,,62,127
36282,note_off,121,0,0,,2,,,62,127
36282,note_off,0,0,0,,2,,,74,127
36284,note_on,2,0,0,,6,,,78,127
36284,note_on,0,0,0,,10,,,69,127
36405,note_off,121,0,0,,10,,,69,127
36405,note_off,0,0,0,,6,,,78,127
36407,note_on,2,0,0,,10,,,81,127
36407,note_on,0,0,0,,6,,,66,127
36528,note_off,121,0,0,,6,,,66,127
36528,note_off,0,0,0,,10,,,81,127
36530,note_on,2,0,0,,2,,,86,127
36530,note_on,0,0,0,,2,,,62,127
36651,note_off,121,0,0,,2,,,62,127
36651,note_off,0,0,0,,2,,,86,127
36653,note_on,2,0,0,,6,,,78,127
36653,note_on,0,0,0,,10,,,69,127
36774,note_off,121,0,0,,10,,,69,127
36774,note_off,0,0,0,,6,,,78,127
36776,note_on,2,0,0,,10,,,81,127
36776,note_on,0,0,0,,6,,,66,127
36897,note_off,121,0,0,,6,,,66,127
36897,note_off,0,0,0,,10,,,81,127
36899,note_on,2,0,0,,2,,,86,127
36899,note_on,0,0,0,,10,,,57,127
37020,note_off,121,0,0,,10,,,57,127
37020,note_off,0,0,0,,2,,,86,127
37022,note_on,2,0,0,,2,,,74,127
37022,note_on,0,0,0,,10,,,69,127
37143,note_off,121,0,0,,10,,,69,127
37143,note_off,0,0,0,,2,,,74,127
37145,note_on,2,0,0,,6,,,78,127
37145,note_on,0,0,0,,6,,,66,127
37266,note_off,121,0,0,,6,,,66,127
37266,note_off,0,0,0,,6,,,78,127
37268,note_on,2,0,0,,2,,,86,127
37268,note_on,0,0,0,,6,,,54,127
37389,note_off,121,0,0,,6,,,54,127
37389,note_off,0,0,0,,2,,,86,127
37391,note_on,2,0,0,,2,,,74,127
37391,note_on,0,0,0,,10,,,69,127
37512,note_off,121,0,0,,10,,,69,127
37512,note_off,0,0,0,,2,,,74,127
37514,note_on,2,0,0,,6,,,78,127
37514,note_on,0,0,0,,6,,,66,127
37635,note_off,121,0,0,,6,,,66,127
37635,note_off,0,0,0,,6,,,78,127
37637,note_on,2,0,0,,2,,,86,127
37637,note_on,0,0,0,,2,,,50,127
37758,note_off,121,0,0,,2,,,50,127
37758,note_off,0,0,0,,2,,,86,127
37760,note_on,2,0,0,,2,,,74,127
37760,note_on,0,0,0,,10,,,69,127
37881,note_off,121,0,0,,10,,,69,127
37881,note_off,0,0,0,,2,,,74,127
37883,note_on,2,0,0,,6,,,78,127
37883,note_on,0,0,0,,6,,,66,127
38004,note_off,121,0,0,,6,,,66,127
38004,note_off,0,0,0,,6,,,78,127
38006,note_on,2,0,0,,2,,,86,127
38006,note_on,0,0,0,,10,,,45,127
38127,note_off,121,0,0,,10,,,45,127
38127,note_off,0,0,0,,2,,,86,127
38129,note_on,2,0,0,,2,,,74,127
38129,note_on,0,0,0,,10,,,69,127
38250,note_off,121,0,0,,10,,,69,127
38250,note_off,0,0,0,,2,,,74,127
38252,note_on,2,0,0,,6,,,78,127
38252,note_on,0,0,0,,6,,,66,127
38373,note_off,121,0,0,,6,,,66,127
38373,note_off,0,0,0,,6,,,78,127
38375,note_on,2,0,0,,2,,,86,127
38375,note_on,0,0,0,,6,,,42,127
38496,note_off,121,0,0,,6,,,42,127
38496,note_off,0,0,0,,2,,,86,127
38498,note_on,2,0,0,,2,,,74,127
38498,note_on,0,0,0,,10,,,69,127
38619,note_off,121,0,0,,10,,,69,127
38619,note_off,0,0,0,,2,,,74,127
38621,note_on,2,0,0,,6,,,78,127
38621,note_on,0,0,0,,6,,,66,127
38742,note_off,121,0,0,,6,,,66,127
38742,note_off,0,0,0,,6,,,78,127
38744,note_on,2,0,0,,2,,,86,127
38744,note_on,0,0,0,,2,,,38,127
38867,note_on,123,0,0,,2,,,74,127
38988,note_off,121,0,0,,2,,,74,127
38988,note_off,0,0,0,,2,,,38,127
38989,note_off,1,0,0,,2,,,86,127
38990,note_on,1,0,0,,0,,,84,127
38990,note_on,0,0,0,,6,,,42,127
39111,note_off,121,0,0,,6,,,42,127
39111,note_off,0,0,0,,0,,,84,127
39113,note_on,2,0,0,,12,,,83,127
39113,note_on,0,0,0,,7,,,79,127
39113,note_on,0,0,0,,7,,,43,127
39234,note_off,121,0,0,,7,,,79,127
39234,note_off,0,0,0,,12,,,83,127
39236,note_on,2,0,0,,10,,,81,127
39236,note_on,0,0,0,,6,,,78,127
39357,note_off,121,0,0,,6,,,78,127
39357,note_off,0,0,0,,10,,,81,127
39357,note_off,0,0,0,,7,,,43,127
39359,note_on,2,0,0,,12,,,83,127
39359,note_on,0,0,0,,7,,,79,127
39359,note_on,0,0,0,,0,,,48,127
39480,note_off,121,0,0,,0,,,48,127
39480,note_off,0,0,0,,7,,,79,127
39480,note_off,0,0,0,,12,,,83,127
39482,note_on,2,0,0,,0,,,84,127
39482,note_on,0,0,0,,10,,,81,127
39482,note_on,0,0,0,,2,,,50,127
39603,note_off,121,0,0,,10,,,81,127
39603,note_off,0,0,0,,0,,,84,127
39605,note_on,2,0,0,,7,,,79,127
39605,note_on,0,0,0,,12,,,83,127
39726,note_off,121,0,0,,12,,,83,127
39726,note_off,0,0,0,,7,,,79,127
39726,note_off,0,0,0,,2,,,50,127
39728,note_on,2,0,0,,10,,,81,127
39728,note_on,0,0,0,,6,,,78,127
39728,note_on,0,0,0,,2,,,38,127
39849,note_off,121,0,0,,2,,,38,127
39849,note_off,0,0,0,,6,,,78,127
39849,note_off,0,0,0,,10,,,81,127
39851,note_on,2,0,0,,7,,,79,127
39851,note_on,0,0,0,,7,,,43,127
39972,note_off,121,0,0,,7,,,79,127
39974,note_on,2,0,0,,2,,,74,127
40095,note_off,121,0,0,,2,,,74,127
40097,note_on,2,0,0,,12,,,71,127
40218,note_off,121,0,0,,12,,,71,127
40218,note_off,0,0,0,,7,,,43,127
40220,note_on,2,0,0,,7,,,67,127
40220,note_on,0,0,0,,12,,,47,127
40341,note_off,121,0,0,,7,,,67,127
40343,note_on,2,0,0,,2,,,62,127
40464,note_off,121,0,0,,2,,,62,127
40466,note_on,2,0,0,,12,,,59,127
40587,note_off,121,0,0,,12,,,59,127
40587,note_off,0,0,0,,12,,,47,127
40589,note_on,2,0,0,,4,,,64,127
40589,note_on,0,0,0,,0,,,48,127
40710,note_off,121,0,0,,4,,,64,127
40712,note_on,2,0,0,,0,,,60,127
40833,note_off,121,0,0,,0,,,60,127
40835,note_on,2,0,0,,10,,,57,127
40956,note_off,121,0,0,,10,,,57,127
40956,note_off,0,0,0,,0,,,48,127
40958,note_on,2,0,0,,2,,,62,127
40958,note_on,0,0,0,,2,,,50,127
41079,note_off,121,0,0,,2,,,62,127
41081,note_on,2,0,0,,7,,,55,127
41202,note_off,121,0,0,,7,,,55,127
41204,note_on,2,0,0,,6,,,54,127
41325,note_off,121,0,0,,6,,,54,127
41325,note_off,0,0,0,,2,,,50,127
41343,note_on,18,0,0,,7,,,79,127
41343,note_on,0,0,0,,7,,,43,127
41465,note_off,122,0,0,,7,,,79,127
41468,note_on,3,0,0,,2,,,74,127
41590,note_off,122,0,0,,2,,,74,127
41594,note_on,4,0,0,,12,,,71,127
41713,note_off,119,0,0,,7,,,43,127
41716,note_off,3,0,0,,12,,,71,127
41719,note_on,3,0,0,,7,,,67,127
41719,note_on,0,0,0,,12,,,47,127
41841,note_off,122,0,0,,7,,,67,127
41845,note_on,4,0,0,,2,,,62,127
41967,note_off,122,0,0,,2,,,62,127
41971,note_on,4,0,0,,12,,,59,127
42089,note_off,118,0,0,,12,,,47,127
42093,note_off,4,0,0,,12,,,59,127
42096,note_on,3,0,0,,4,,,64,127
42096,note_on,0,0,0,,0,,,48,127
42218,note_off,122,0,0,,4,,,64,127
42222,note_on,4,0,0,,0,,,60,127
42344,note_off,122,0,0,,0,,,60,127
42347,note_on,3,0,0,,10,,,57,127
42466,note_off,119,0,0,,0,,,48,127
42469,note_off,3,0,0,,10,,,57,127
42473,note_on,4,0,0,,2,,,62,127
42473,note_on,0,0,0,,2,,,50,127
42473,note_on,0,0,0,,2,,,38,127
42595,note_off,122,0,0,,2,,,62,127
42605,note_on,10,0,0,,7,,,55,127
42735,note_off,130,0,0,,7,,,55,127
42740,note_on,5,0,0,,6,,,54,127
42844,note_off,104,0,0,,2,,,38,127
42844,note_off,0,0,0,,2,,,50,127
42870,note_off,26,0,0,,6,,,54,127
42882,note_on,12,0,0,,7,,,31,127
42882,note_on,0,0,0,,7,,,55,127
42882,note_on,0,0,0,,7,,,43,127
44839,note_off,1957,0,0,,7,,,43,127
44839,note_off,0,0,0,,7,,,55,127
44839,note_off,0,0,0,,7,,,31,127
49152,end_of_track,4313,1,0,,,,,,
