tick,type,time,meta,track,program,channel,pitch,tempo,note,velocity
0,copyright,0,1,0,,,,,,
0,program_change,0,0,0,6,0,,,,
0,pitchwheel,0,0,0,,0,0,,,
0,program_change,0,0,0,6,1,,,,
0,pitchwheel,0,0,0,,1,-590,,,
0,program_change,0,0,0,6,2,,,,
0,pitchwheel,0,0,0,,2,-272,,,
0,program_change,0,0,0,6,3,,,,
0,pitchwheel,0,0,0,,3,-353,,,
0,program_change,0,0,0,6,4,,,,
0,pitchwheel,0,0,0,,4,-560,,,
0,program_change,0,0,0,6,5,,,,
0,pitchwheel,0,0,0,,5,-80,,,
0,program_change,0,0,0,6,6,,,,
0,pitchwheel,0,0,0,,6,-625,,,
0,program_change,0,0,0,6,7,,,,
0,pitchwheel,0,0,0,,7,-130,,,
0,program_change,0,0,0,6,8,,,,
0,pitchwheel,0,0,0,,8,-512,,,
0,program_change,0,0,0,6,10,,,,
0,pitchwheel,0,0,0,,10,-464,,,
0,program_change,0,0,0,6,11,,,,
0,pitchwheel,0,0,0,,11,-208,,,
0,program_change,0,0,0,6,12,,,,
0,pitchwheel,0,0,0,,12,-553,,,
0,set_tempo,0,1,0,,,,500000,,
105,note_on,105,0,0,,6,,,78,127
312,note_off,207,0,0,,6,,,78,127
314,note_on,2,0,0,,4,,,76,127
417,note_off,103,0,0,,4,,,76,127
419,note_on,2,0,0,,2,,,74,127
522,note_off,103,0,0,,2,,,74,127
524,note_on,2,0,0,,10,,,81,127
720,note_off,196,0,0,,10,,,81,127
733,note_on,13,0,0,,10,,,69,127
929,note_off,196,0,0,,10,,,69,127
942,note_on,13,0,0,,6,,,66,127
942,note_on,0,0,0,,2,,,74,127
1149,note_off,207,0,0,,6,,,66,127
1151,note_on,2,0,0,,4,,,64,127
1254,note_off,103,0,0,,4,,,64,127
1256,note_on,2,0,0,,2,,,62,127
1359,note_off,103,0,0,,2,,,62,127
1361,note_on,2,0,0,,10,,,69,127
1542,note_off,181,0,0,,2,,,74,127
1568,note_off,26,0,0,,10,,,69,127
1570,note_on,2,0,0,,10,,,57,127
1570,note_on,0,0,0,,4,,,76,127
1777,note_off,207,0,0,,4,,,76,127
1777,note_off,0,0,0,,10,,,57,127
1779,note_on,2,0,0,,2,,,62,127
1779,note_on,0,0,0,,6,,,78,127
1882,note_off,103,0,0,,6,,,78,127
1884,note_on,2,0,0,,2,,,74,127
1987,note_off,103,0,0,,2,,,74,127
1989,note_on,2,0,0,,7,,,79,127
2092,note_off,103,0,0,,7,,,79,127
2094,note_on,2,0,0,,4,,,76,127
2197,note_off,103,0,0,,4,,,76,127
2199,note_on,2,0,0,,10,,,81,127
2302,note_off,103,0,0,,10,,,81,127
2304,note_on,2,0,0,,6,,,78,127
2407,note_off,103,0,0,,6,,,78,127
2409,note_on,2,0,0,,12,,,83,127
2512,note_off,103,0,0,,12,,,83,127
2514,note_on,2,0,0,,7,,,79,127
2617,note_off,103,0,0,,7,,,79,127
2618,note_off,1,0,0,,2,,,62,127
2619,note_on,1,0,0,,10,,,81,127
2722,note_off,103,0,0,,10,,,81,127
2724,note_on,2,0,0,,6,,,78,127
2827,note_off,103,0,0,,6,,,78,127
2829,note_on,2,0,0,,7,,,79,127
2932,note_off,103,0,0,,7,,,79,127
2934,note_on,2,0,0,,4,,,76,127
3037,note_off,103,0,0,,4,,,76,127
3039,note_on,2,0,0,,6,,,78,127
3142,note_off,103,0,0,,6,,,78,127
3144,note_on,2,0,0,,2,,,74,127
3247,note_off,103,0,0,,2,,,74,127
3249,note_on,2,0,0,,4,,,64,127
3249,note_on,0,0,0,,4,,,76,127
3352,note_off,103,0,0,,4,,,76,127
3354,note_on,2,0,0,,1,,,73,127
3457,note_off,103,0,0,,1,,,73,127
3457,note_off,0,0,0,,4,,,64,127
3459,note_on,2,0,0,,6,,,66,127
3459,note_on,0,0,0,,2,,,74,127
3562,note_off,103,0,0,,6,,,66,127
3564,note_on,2,0,0,,2,,,62,127
3667,note_off,103,0,0,,2,,,62,127
3669,note_on,2,0,0,,7,,,67,127
3772,note_off,103,0,0,,7,,,67,127
3774,note_on,2,0,0,,4,,,64,127
3877,note_off,103,0,0,,4,,,64,127
3879,note_on,2,0,0,,10,,,69,127
3982,note_off,103,0,0,,10,,,69,127
3984,note_on,2,0,0,,6,,,66,127
4087,note_off,103,0,0,,6,,,66,127
4089,note_on,2,0,0,,12,,,71,127
4192,note_off,103,0,0,,12,,,71,127
4194,note_on,2,0,0,,7,,,67,127
4297,note_off,103,0,0,,7,,,67,127
4299,note_on,2,0,0,,10,,,69,127
4402,note_off,103,0,0,,10,,,69,127
4404,note_on,2,0,0,,6,,,66,127
4507,note_off,103,0,0,,6,,,66,127
4507,note_off,0,0,0,,2,,,74,127
4509,note_on,2,0,0,,7,,,67,127
4509,note_on,0,0,0,,1,,,73,127
4612,note_off,103,0,0,,7,,,67,127
4614,note_on,2,0,0,,4,,,64,127
4717,note_off,103,0,0,,4,,,64,127
4717,note_off,0,0,0,,1,,,73,127
4719,note_on,2,0,0,,6,,,66,127
4719,note_on,0,0,0,,2,,,74,127
4822,note_off,103,0,0,,6,,,66,127
4824,note_on,2,0,0,,2,,,62,127
4927,note_off,103,0,0,,2,,,62,127
4927,note_off,0,0,0,,2,,,74,127
4929,note_on,2,0,0,,4,,,64,127
4929,note_on,0,0,0,,4,,,76,127
5032,note_off,103,0,0,,4,,,64,127
5034,note_on,2,0,0,,1,,,61,127
5137,note_off,103,0,0,,1,,,61,127
5137,note_off,0,0,0,,4,,,76,127
5139,note_on,2,0,0,,2,,,62,127
5139,note_on,0,0,0,,6,,,78,127
5242,note_off,103,0,0,,6,,,78,127
5244,note_on,2,0,0,,2,,,74,127
5347,note_off,103,0,0,,2,,,74,127
5349,note_on,2,0,0,,7,,,79,127
5452,note_off,103,0,0,,7,,,79,127
5454,note_on,2,0,0,,4,,,76,127
5557,note_off,103,0,0,,4,,,76,127
5559,note_on,2,0,0,,10,,,81,127
5662,note_off,103,0,0,,10,,,81,127
5664,note_on,2,0,0,,6,,,78,127
5767,note_off,103,0,0,,6,,,78,127
5767,note_off,0,0,0,,2,,,62,127
5769,note_on,2,0,0,,7,,,55,127
5769,note_on,0,0,0,,12,,,83,127
5872,note_off,103,0,0,,12,,,83,127
5874,note_on,2,0,0,,7,,,79,127
5977,note_off,103,0,0,,7,,,79,127
5977,note_off,0,0,0,,7,,,55,127
5979,note_on,2,0,0,,10,,,57,127
5979,note_on,0,0,0,,10,,,81,127
6082,note_off,103,0,0,,10,,,81,127
6084,note_on,2,0,0,,6,,,78,127
6187,note_off,103,0,0,,6,,,78,127
6189,note_on,2,0,0,,7,,,79,127
6292,note_off,103,0,0,,7,,,79,127
6294,note_on,2,0,0,,4,,,76,127
6397,note_off,103,0,0,,4,,,76,127
6397,note_off,0,0,0,,10,,,57,127
6399,note_on,2,0,0,,10,,,45,127
6399,note_on,0,0,0,,6,,,78,127
6502,note_off,103,0,0,,6,,,78,127
6504,note_on,2,0,0,,2,,,74,127
6607,note_off,103,0,0,,2,,,74,127
6609,note_on,2,0,0,,4,,,76,127
6712,note_off,103,0,0,,4,,,76,127
6714,note_on,2,0,0,,1,,,73,127
6817,note_off,103,0,0,,1,,,73,127
6817,note_off,0,0,0,,10,,,45,127
6819,note_on,2,0,0,,2,,,38,127
6819,note_on,0,0,0,,2,,,50,127
6819,note_on,0,0,0,,2,,,74,127
6922,note_off,103,0,0,,2,,,74,127
6924,note_on,2,0,0,,10,,,81,127
7027,note_off,103,0,0,,10,,,81,127
7029,note_on,2,0,0,,6,,,78,127
7132,note_off,103,0,0,,6,,,78,127
7134,note_on,2,0,0,,10,,,81,127
7237,note_off,103,0,0,,10,,,81,127
7239,note_on,2,0,0,,2,,,74,127
7342,note_off,103,0,0,,2,,,74,127
7344,note_on,2,0,0,,6,,,78,127
7447,note_off,103,0,0,,6,,,78,127
7449,note_on,2,0,0,,10,,,69,127
7552,note_off,103,0,0,,10,,,69,127
7554,note_on,2,0,0,,2,,,74,127
7657,note_off,103,0,0,,2,,,74,127
7659,note_on,2,0,0,,6,,,66,127
7762,note_off,103,0,0,,6,,,66,127
7764,note_on,2,0,0,,10,,,69,127
7867,note_off,103,0,0,,10,,,69,127
7869,note_on,2,0,0,,2,,,62,127
7972,note_off,103,0,0,,2,,,62,127
7974,note_on,2,0,0,,6,,,66,127
8077,note_off,103,0,0,,6,,,66,127
8079,note_on,2,0,0,,10,,,57,127
8182,note_off,103,0,0,,10,,,57,127
8184,note_on,2,0,0,,2,,,62,127
8287,note_off,103,0,0,,2,,,62,127
8289,note_on,2,0,0,,6,,,54,127
8392,note_off,103,0,0,,6,,,54,127
8394,note_on,2,0,0,,10,,,57,127
8497,note_off,103,0,0,,10,,,57,127
8497,note_off,0,0,0,,2,,,50,127
8497,note_off,0,0,0,,2,,,38,127
8499,note_on,2,0,0,,2,,,38,127
9699,note_off,1200,0,0,,2,,,38,127
9860,note_on,161,0,0,,2,,,62,127
9963,note_off,103,0,0,,2,,,62,127
9965,note_on,2,0,0,,12,,,71,127
10068,note_off,103,0,0,,12,,,71,127
10070,note_on,2,0,0,,10,,,69,127
10173,note_off,103,0,0,,10,,,69,127
10175,note_on,2,0,0,,4,,,76,127
10278,note_off,103,0,0,,4,,,76,127
10280,note_on,2,0,0,,2,,,74,127
10383,note_off,103,0,0,,2,,,74,127
10385,note_on,2,0,0,,6,,,78,127
10488,note_off,103,0,0,,6,,,78,127
10490,note_on,2,0,0,,4,,,76,127
10593,note_off,103,0,0,,4,,,76,127
10595,note_on,2,0,0,,2,,,74,127
10698,note_off,103,0,0,,2,,,74,127
10700,note_on,2,0,0,,4,,,76,127
10803,note_off,103,0,0,,4,,,76,127
10805,note_on,2,0,0,,2,,,74,127
10908,note_off,103,0,0,,2,,,74,127
10910,note_on,2,0,0,,1,,,73,127
11013,note_off,103,0,0,,1,,,73,127
11015,note_on,2,0,0,,12,,,71,127
11118,note_off,103,0,0,,12,,,71,127
11120,note_on,2,0,0,,10,,,69,127
11223,note_off,103,0,0,,10,,,69,127
11225,note_on,2,0,0,,7,,,67,127
11328,note_off,103,0,0,,7,,,67,127
11330,note_on,2,0,0,,6,,,66,127
11433,note_off,103,0,0,,6,,,66,127
11435,note_on,2,0,0,,4,,,64,127
11538,note_off,103,0,0,,4,,,64,127
11540,note_on,2,0,0,,2,,,62,127
11540,note_on,0,0,0,,2,,,50,127
11643,note_off,103,0,0,,2,,,50,127
11645,note_on,2,0,0,,12,,,59,127
11748,note_off,103,0,0,,12,,,59,127
11750,note_on,2,0,0,,10,,,57,127
11853,note_off,103,0,0,,10,,,57,127
11855,note_off,2,0,0,,2,,,62,127
11855,note_on,0,0,0,,4,,,64,127
11958,note_off,103,0,0,,4,,,64,127
11960,note_on,2,0,0,,2,,,62,127
12063,note_off,103,0,0,,2,,,62,127
12065,note_on,2,0,0,,6,,,66,127
12168,note_off,103,0,0,,6,,,66,127
12170,note_on,2,0,0,,4,,,64,127
12273,note_off,103,0,0,,4,,,64,127
12275,note_on,2,0,0,,2,,,62,127
12378,note_off,103,0,0,,2,,,62,127
12380,note_on,2,0,0,,4,,,64,127
12483,note_off,103,0,0,,4,,,64,127
12485,note_on,2,0,0,,2,,,62,127
12588,note_off,103,0,0,,2,,,62,127
12590,note_on,2,0,0,,1,,,61,127
12693,note_off,103,0,0,,1,,,61,127
12695,note_on,2,0,0,,12,,,59,127
12798,note_off,103,0,0,,12,,,59,127
12800,note_on,2,0,0,,10,,,57,127
12903,note_off,103,0,0,,10,,,57,127
12905,note_on,2,0,0,,7,,,55,127
13008,note_off,103,0,0,,7,,,55,127
13010,note_on,2,0,0,,4,,,76,127
13010,note_on,0,0,0,,6,,,54,127
13113,note_off,103,0,0,,6,,,54,127
13115,note_on,2,0,0,,4,,,52,127
13218,note_off,103,0,0,,4,,,52,127
13218,note_off,0,0,0,,4,,,76,127
13220,note_on,2,0,0,,6,,,78,127
13220,note_on,0,0,0,,2,,,50,127
13323,note_off,103,0,0,,6,,,78,127
13325,note_on,2,0,0,,10,,,81,127
13428,note_off,103,0,0,,10,,,81,127
13428,note_off,0,0,0,,2,,,50,127
13430,note_on,2,0,0,,1,,,73,127
13430,note_on,0,0,0,,4,,,52,127
13533,note_off,103,0,0,,1,,,73,127
13535,note_on,2,0,0,,4,,,76,127
13638,note_off,103,0,0,,4,,,76,127
13638,note_off,0,0,0,,4,,,52,127
13640,note_on,2,0,0,,2,,,74,127
13640,note_on,0,0,0,,6,,,54,127
13743,note_off,103,0,0,,2,,,74,127
13745,note_on,2,0,0,,6,,,78,127
13848,note_off,103,0,0,,6,,,78,127
13848,note_off,0,0,0,,6,,,54,127
13850,note_on,2,0,0,,4,,,76,127
13850,note_on,0,0,0,,7,,,55,127
13953,note_off,103,0,0,,4,,,76,127
13955,note_on,2,0,0,,2,,,74,127
14058,note_off,103,0,0,,2,,,74,127
14058,note_off,0,0,0,,7,,,55,127
14060,note_on,2,0,0,,1,,,73,127
14060,note_on,0,0,0,,10,,,57,127
14163,note_off,103,0,0,,1,,,73,127
14165,note_on,2,0,0,,4,,,76,127
14268,note_off,103,0,0,,4,,,76,127
14268,note_off,0,0,0,,10,,,57,127
14270,note_on,2,0,0,,12,,,71,127
14270,note_on,0,0,0,,12,,,59,127
14373,note_off,103,0,0,,12,,,71,127
14375,note_on,2,0,0,,4,,,76,127
14478,note_off,103,0,0,,4,,,76,127
14478,note_off,0,0,0,,12,,,59,127
14480,note_on,2,0,0,,10,,,69,127
14480,note_on,0,0,0,,1,,,61,127
14583,note_off,103,0,0,,10,,,69,127
14585,note_on,2,0,0,,4,,,76,127
14688,note_off,103,0,0,,4,,,76,127
14688,note_off,0,0,0,,1,,,61,127
14690,note_on,2,0,0,,7,,,67,127
14690,note_on,0,0,0,,10,,,57,127
14793,note_off,103,0,0,,7,,,67,127
14795,note_on,2,0,0,,4,,,76,127
14898,note_off,103,0,0,,4,,,76,127
14898,note_off,0,0,0,,10,,,57,127
14900,note_on,2,0,0,,6,,,66,127
14900,note_on,0,0,0,,2,,,62,127
15003,note_off,103,0,0,,2,,,62,127
15005,note_on,2,0,0,,10,,,69,127
15108,note_off,103,0,0,,10,,,69,127
15108,note_off,0,0,0,,6,,,66,127
15110,note_on,2,0,0,,10,,,81,127
15110,note_on,0,0,0,,1,,,61,127
15213,note_off,103,0,0,,1,,,61,127
15215,note_on,2,0,0,,4,,,64,127
15318,note_off,103,0,0,,4,,,64,127
15320,note_on,2,0,0,,2,,,62,127
15423,note_off,103,0,0,,2,,,62,127
15425,note_off,2,0,0,,10,,,81,127
15425,note_on,0,0,0,,6,,,66,127
15528,note_off,103,0,0,,6,,,66,127
15530,note_on,2,0,0,,2,,,74,127
15530,note_on,0,0,0,,4,,,64,127
15633,note_off,103,0,0,,4,,,64,127
15635,note_on,2,0,0,,2,,,62,127
15738,note_off,103,0,0,,2,,,62,127
15738,note_off,0,0,0,,2,,,74,127
15740,note_on,2,0,0,,4,,,76,127
15740,note_on,0,0,0,,1,,,61,127
15843,note_off,103,0,0,,1,,,61,127
15845,note_on,2,0,0,,4,,,64,127
15948,note_off,103,0,0,,4,,,64,127
15948,note_off,0,0,0,,4,,,76,127
15950,note_on,2,0,0,,10,,,81,127
15950,note_on,0,0,0,,12,,,59,127
16053,note_off,103,0,0,,12,,,59,127
16055,note_on,2,0,0,,4,,,64,127
16158,note_off,103,0,0,,4,,,64,127
16160,note_on,2,0,0,,10,,,57,127
16263,note_off,103,0,0,,10,,,57,127
16265,note_off,2,0,0,,10,,,81,127
16265,note_on,0,0,0,,4,,,64,127
16368,note_off,103,0,0,,4,,,64,127
16370,note_on,2,0,0,,1,,,73,127
16370,note_on,0,0,0,,7,,,55,127
16473,note_off,103,0,0,,7,,,55,127
16475,note_on,2,0,0,,4,,,64,127
16578,note_off,103,0,0,,4,,,64,127
16578,note_off,0,0,0,,1,,,73,127
16580,note_on,2,0,0,,10,,,81,127
16580,note_on,0,0,0,,6,,,54,127
16683,note_off,103,0,0,,6,,,54,127
16685,note_on,2,0,0,,2,,,62,127
16788,note_off,103,0,0,,2,,,62,127
16788,note_off,0,0,0,,10,,,81,127
16790,note_on,2,0,0,,7,,,79,127
16790,note_on,0,0,0,,4,,,52,127
16893,note_off,103,0,0,,4,,,52,127
16895,note_on,2,0,0,,1,,,61,127
16998,note_off,103,0,0,,1,,,61,127
16998,note_off,0,0,0,,7,,,79,127
17000,note_on,2,0,0,,6,,,78,127
17000,note_on,0,0,0,,2,,,50,127
17103,note_off,103,0,0,,2,,,50,127
17105,note_on,2,0,0,,12,,,59,127
17208,note_off,103,0,0,,12,,,59,127
17208,note_off,0,0,0,,6,,,78,127
17210,note_on,2,0,0,,4,,,76,127
17210,note_on,0,0,0,,1,,,49,127
17313,note_off,103,0,0,,1,,,49,127
17315,note_on,2,0,0,,10,,,57,127
17418,note_off,103,0,0,,10,,,57,127
17418,note_off,0,0,0,,4,,,76,127
17420,note_on,2,0,0,,2,,,74,127
17420,note_on,0,0,0,,12,,,47,127
17523,note_off,103,0,0,,12,,,47,127
17525,note_on,2,0,0,,8,,,56,127
17628,note_off,103,0,0,,8,,,56,127
17628,note_off,0,0,0,,2,,,74,127
17630,note_on,2,0,0,,1,,,73,127
17630,note_on,0,0,0,,10,,,45,127
17733,note_off,103,0,0,,10,,,45,127
17735,note_on,2,0,0,,6,,,54,127
17838,note_off,103,0,0,,6,,,54,127
17838,note_off,0,0,0,,1,,,73,127
17840,note_on,2,0,0,,12,,,71,127
17840,note_on,0,0,0,,8,,,44,127
17943,note_off,103,0,0,,8,,,44,127
17945,note_on,2,0,0,,4,,,52,127
18048,note_off,103,0,0,,4,,,52,127
18048,note_off,0,0,0,,12,,,71,127
18050,note_on,2,0,0,,10,,,69,127
18050,note_on,0,0,0,,6,,,42,127
18153,note_off,103,0,0,,6,,,42,127
18155,note_on,2,0,0,,3,,,51,127
18258,note_off,103,0,0,,3,,,51,127
18258,note_off,0,0,0,,10,,,69,127
18260,note_on,2,0,0,,12,,,71,127
18260,note_on,0,0,0,,4,,,40,127
18363,note_off,103,0,0,,12,,,71,127
18365,note_on,2,0,0,,10,,,69,127
18468,note_off,103,0,0,,10,,,69,127
18470,note_on,2,0,0,,8,,,68,127
18573,note_off,103,0,0,,8,,,68,127
18575,note_on,2,0,0,,6,,,66,127
18678,note_off,103,0,0,,6,,,66,127
18680,note_on,2,0,0,,4,,,64,127
18783,note_off,103,0,0,,4,,,64,127
18785,note_on,2,0,0,,2,,,62,127
18888,note_off,103,0,0,,2,,,62,127
18889,note_off,1,0,0,,4,,,40,127
18890,note_on,1,0,0,,1,,,61,127
18993,note_off,103,0,0,,1,,,61,127
18995,note_on,2,0,0,,12,,,59,127
19098,note_off,103,0,0,,12,,,59,127
19100,note_on,2,0,0,,10,,,57,127
19100,note_on,0,0,0,,10,,,45,127
19203,note_off,103,0,0,,10,,,57,127
19205,note_on,2,0,0,,2,,,62,127
19308,note_off,103,0,0,,2,,,62,127
19310,note_on,2,0,0,,1,,,61,127
19413,note_off,103,0,0,,1,,,61,127
19415,note_on,2,0,0,,6,,,66,127
19518,note_off,103,0,0,,6,,,66,127
19520,note_on,2,0,0,,4,,,64,127
19623,note_off,103,0,0,,4,,,64,127
19625,note_on,2,0,0,,1,,,73,127
19728,note_off,103,0,0,,1,,,73,127
19730,note_on,2,0,0,,12,,,71,127
19833,note_off,103,0,0,,12,,,71,127
19835,note_on,2,0,0,,10,,,69,127
19938,note_off,103,0,0,,10,,,69,127
19938,note_off,0,0,0,,10,,,45,127
19940,note_on,2,0,0,,12,,,71,127
19940,note_on,0,0,0,,4,,,40,127
20043,note_off,103,0,0,,12,,,71,127
20045,note_on,2,0,0,,10,,,69,127
20148,note_off,103,0,0,,10,,,69,127
20150,note_on,2,0,0,,8,,,68,127
20253,note_off,103,0,0,,8,,,68,127
20255,note_on,2,0,0,,6,,,66,127
20358,note_off,103,0,0,,6,,,66,127
20360,note_on,2,0,0,,4,,,64,127
20463,note_off,103,0,0,,4,,,64,127
20465,note_on,2,0,0,,2,,,62,127
20568,note_off,103,0,0,,2,,,62,127
20570,note_on,2,0,0,,1,,,61,127
20673,note_off,103,0,0,,1,,,61,127
20675,note_on,2,0,0,,12,,,59,127
20778,note_off,103,0,0,,12,,,59,127
20778,note_off,0,0,0,,4,,,40,127
20780,note_on,2,0,0,,10,,,57,127
20780,note_on,0,0,0,,10,,,45,127
20883,note_off,103,0,0,,10,,,45,127
20885,note_on,2,0,0,,2,,,50,127
20988,note_off,103,0,0,,2,,,50,127
20990,note_on,2,0,0,,1,,,49,127
21093,note_off,103,0,0,,1,,,49,127
21095,note_on,2,0,0,,6,,,54,127
21198,note_off,103,0,0,,6,,,54,127
21200,note_on,2,0,0,,4,,,52,127
21298,note_off,98,0,0,,10,,,57,127
21302,note_off,4,0,0,,4,,,52,127
21304,note_on,2,0,0,,1,,,61,127
21407,note_off,103,0,0,,1,,,61,127
21409,note_on,2,0,0,,12,,,59,127
21512,note_off,103,0,0,,12,,,59,127
21514,note_on,2,0,0,,10,,,57,127
21617,note_off,103,0,0,,10,,,57,127
21619,note_on,2,0,0,,12,,,59,127
21722,note_off,103,0,0,,12,,,59,127
21724,note_on,2,0,0,,10,,,57,127
21827,note_off,103,0,0,,10,,,57,127
21829,note_on,2,0,0,,8,,,56,127
21932,note_off,103,0,0,,8,,,56,127
21934,note_on,2,0,0,,6,,,54,127
22037,note_off,103,0,0,,6,,,54,127
22039,note_on,2,0,0,,4,,,52,127
22142,note_off,103,0,0,,4,,,52,127
22144,note_on,2,0,0,,2,,,50,127
22247,note_off,103,0,0,,2,,,50,127
22249,note_on,2,0,0,,12,,,71,127
22249,note_on,0,0,0,,1,,,49,127
22352,note_off,103,0,0,,1,,,49,127
22354,note_on,2,0,0,,12,,,47,127
22457,note_off,103,0,0,,12,,,47,127
22457,note_off,0,0,0,,12,,,71,127
22459,note_on,2,0,0,,1,,,73,127
22459,note_on,0,0,0,,10,,,45,127
22562,note_off,103,0,0,,1,,,73,127
22564,note_on,2,0,0,,10,,,69,127
22667,note_off,103,0,0,,10,,,69,127
22667,note_off,0,0,0,,10,,,45,127
22669,note_on,2,0,0,,2,,,74,127
22669,note_on,0,0,0,,12,,,47,127
22772,note_off,103,0,0,,2,,,74,127
22774,note_on,2,0,0,,12,,,71,127
22877,note_off,103,0,0,,12,,,71,127
22877,note_off,0,0,0,,12,,,47,127
22879,note_on,2,0,0,,4,,,76,127
22879,note_on,0,0,0,,1,,,49,127
22982,note_off,103,0,0,,4,,,76,127
22984,note_on,2,0,0,,1,,,73,127
23087,note_off,103,0,0,,1,,,73,127
23087,note_off,0,0,0,,1,,,49,127
23089,note_on,2,0,0,,6,,,78,127
23089,note_on,0,0,0,,2,,,50,127
23192,note_off,103,0,0,,6,,,78,127
23194,note_on,2,0,0,,2,,,74,127
23297,note_off,103,0,0,,2,,,74,127
23297,note_off,0,0,0,,2,,,50,127
23299,note_on,2,0,0,,8,,,80,127
23299,note_on,0,0,0,,4,,,52,127
23402,note_off,103,0,0,,8,,,80,127
23404,note_on,2,0,0,,4,,,76,127
23507,note_off,103,0,0,,4,,,76,127
23507,note_off,0,0,0,,4,,,52,127
23509,note_on,2,0,0,,10,,,81,127
23509,note_on,0,0,0,,6,,,54,127
23612,note_off,103,0,0,,10,,,81,127
23614,note_on,2,0,0,,6,,,78,127
23717,note_off,103,0,0,,6,,,78,127
23717,note_off,0,0,0,,6,,,54,127
23719,note_on,2,0,0,,12,,,83,127
23719,note_on,0,0,0,,8,,,56,127
23822,note_off,103,0,0,,12,,,83,127
23824,note_on,2,0,0,,2,,,74,127
23927,note_off,103,0,0,,2,,,74,127
23927,note_off,0,0,0,,8,,,56,127
23929,note_on,2,0,0,,1,,,73,127
23929,note_on,0,0,0,,4,,,52,127
24032,note_off,103,0,0,,1,,,73,127
24034,note_on,2,0,0,,12,,,71,127
24137,note_off,103,0,0,,12,,,71,127
24137,note_off,0,0,0,,4,,,52,127
24139,note_on,2,0,0,,1,,,73,127
24139,note_on,0,0,0,,10,,,57,127
24242,note_off,103,0,0,,1,,,73,127
24244,note_on,2,0,0,,10,,,69,127
24347,note_off,103,0,0,,10,,,69,127
24347,note_off,0,0,0,,10,,,57,127
24349,note_on,2,0,0,,2,,,74,127
24349,note_on,0,0,0,,12,,,59,127
24452,note_off,103,0,0,,2,,,74,127
24454,note_on,2,0,0,,12,,,71,127
24557,note_off,103,0,0,,12,,,71,127
24557,note_off,0,0,0,,12,,,59,127
24559,note_on,2,0,0,,4,,,76,127
24559,note_on,0,0,0,,1,,,61,127
24662,note_off,103,0,0,,4,,,76,127
24664,note_on,2,0,0,,1,,,73,127
24767,note_off,103,0,0,,1,,,73,127
24767,note_off,0,0,0,,1,,,61,127
24769,note_on,2,0,0,,12,,,71,127
24769,note_on,0,0,0,,2,,,62,127
24872,note_off,103,0,0,,12,,,71,127
24874,note_on,2,0,0,,10,,,69,127
24977,note_off,103,0,0,,10,,,69,127
24977,note_off,0,0,0,,2,,,62,127
24979,note_on,2,0,0,,8,,,68,127
24979,note_on,0,0,0,,4,,,64,127
25082,note_off,103,0,0,,8,,,68,127
25084,note_on,2,0,0,,12,,,71,127
25187,note_off,103,0,0,,12,,,71,127
25187,note_off,0,0,0,,4,,,64,127
25189,note_on,2,0,0,,10,,,69,127
25189,note_on,0,0,0,,6,,,66,127
25292,note_off,103,0,0,,10,,,69,127
25294,note_on,2,0,0,,1,,,73,127
25397,note_off,103,0,0,,1,,,73,127
25397,note_off,0,0,0,,6,,,66,127
25399,note_on,2,0,0,,12,,,71,127
25399,note_on,0,0,0,,8,,,68,127
25502,note_off,103,0,0,,12,,,71,127
25504,note_on,2,0,0,,2,,,74,127
25607,note_off,103,0,0,,2,,,74,127
25607,note_off,0,0,0,,8,,,68,127
25609,note_on,2,0,0,,1,,,73,127
25609,note_on,0,0,0,,4,,,64,127
25712,note_off,103,0,0,,1,,,73,127
25714,note_on,2,0,0,,12,,,71,127
25817,note_off,103,0,0,,12,,,71,127
25817,note_off,0,0,0,,4,,,64,127
25819,note_on,2,0,0,,1,,,73,127
25819,note_on,0,0,0,,10,,,57,127
25922,note_off,103,0,0,,10,,,57,127
25924,note_on,2,0,0,,10,,,69,127
26027,note_off,103,0,0,,10,,,69,127
26027,note_off,0,0,0,,1,,,73,127
26029,note_on,2,0,0,,10,,,81,127
26029,note_on,0,0,0,,6,,,66,127
26132,note_off,103,0,0,,6,,,66,127
26134,note_on,2,0,0,,10,,,69,127
26237,note_off,103,0,0,,10,,,69,127
26237,note_off,0,0,0,,10,,,81,127
26239,note_on,2,0,0,,12,,,71,127
26239,note_on,0,0,0,,8,,,56,127
26342,note_off,103,0,0,,8,,,56,127
26344,note_on,2,0,0,,8,,,68,127
26447,note_off,103,0,0,,8,,,68,127
26447,note_off,0,0,0,,12,,,71,127
26449,note_on,2,0,0,,8,,,80,127
26449,note_on,0,0,0,,4,,,64,127
26552,note_off,103,0,0,,4,,,64,127
26554,note_on,2,0,0,,8,,,68,127
26657,note_off,103,0,0,,8,,,68,127
26657,note_off,0,0,0,,8,,,80,127
26659,note_on,2,0,0,,10,,,69,127
26659,note_on,0,0,0,,6,,,54,127
26762,note_off,103,0,0,,6,,,54,127
26764,note_on,2,0,0,,6,,,66,127
26867,note_off,103,0,0,,6,,,66,127
26867,note_off,0,0,0,,10,,,69,127
26869,note_on,2,0,0,,6,,,78,127
26869,note_on,0,0,0,,2,,,62,127
26972,note_off,103,0,0,,2,,,62,127
26974,note_on,2,0,0,,6,,,66,127
27077,note_off,103,0,0,,6,,,66,127
27077,note_off,0,0,0,,6,,,78,127
27079,note_on,2,0,0,,8,,,68,127
27079,note_on,0,0,0,,4,,,52,127
27182,note_off,103,0,0,,4,,,52,127
27184,note_on,2,0,0,,4,,,64,127
27287,note_off,103,0,0,,4,,,64,127
27287,note_off,0,0,0,,8,,,68,127
27289,note_on,2,0,0,,4,,,76,127
27289,note_on,0,0,0,,1,,,61,127
27392,note_off,103,0,0,,1,,,61,127
27394,note_on,2,0,0,,4,,,64,127
27497,note_off,103,0,0,,4,,,64,127
27497,note_off,0,0,0,,4,,,76,127
27499,note_on,2,0,0,,6,,,66,127
27499,note_on,0,0,0,,2,,,50,127
27602,note_off,103,0,0,,2,,,50,127
27604,note_on,2,0,0,,2,,,62,127
27707,note_off,103,0,0,,2,,,62,127
27707,note_off,0,0,0,,6,,,66,127
27709,note_on,2,0,0,,2,,,74,127
27709,note_on,0,0,0,,12,,,59,127
27812,note_off,103,0,0,,12,,,59,127
27814,note_on,2,0,0,,2,,,62,127
27917,note_off,103,0,0,,2,,,62,127
27917,note_off,0,0,0,,2,,,74,127
27919,note_on,2,0,0,,4,,,64,127
27919,note_on,0,0,0,,1,,,49,127
28022,note_off,103,0,0,,1,,,49,127
28024,note_on,2,0,0,,1,,,61,127
28127,note_off,103,0,0,,1,,,61,127
28127,note_off,0,0,0,,4,,,64,127
28129,note_on,2,0,0,,1,,,73,127
28129,note_on,0,0,0,,10,,,57,127
28232,note_off,103,0,0,,10,,,57,127
28234,note_on,2,0,0,,1,,,61,127
28337,note_off,103,0,0,,1,,,61,127
28337,note_off,0,0,0,,1,,,73,127
28339,note_on,2,0,0,,2,,,62,127
28339,note_on,0,0,0,,12,,,47,127
28442,note_off,103,0,0,,12,,,47,127
28444,note_on,2,0,0,,12,,,59,127
28547,note_off,103,0,0,,12,,,59,127
28547,note_off,0,0,0,,2,,,62,127
28549,note_on,2,0,0,,12,,,71,127
28549,note_on,0,0,0,,8,,,56,127
28652,note_off,103,0,0,,8,,,56,127
28654,note_on,2,0,0,,12,,,59,127
28757,note_off,103,0,0,,12,,,59,127
28757,note_off,0,0,0,,12,,,71,127
28759,note_on,2,0,0,,1,,,61,127
28759,note_on,0,0,0,,10,,,45,127
28862,note_off,103,0,0,,10,,,45,127
28864,note_on,2,0,0,,12,,,47,127
28967,note_off,103,0,0,,12,,,47,127
28967,note_off,0,0,0,,1,,,61,127
28969,note_on,2,0,0,,10,,,69,127
28969,note_on,0,0,0,,1,,,49,127
29072,note_off,103,0,0,,1,,,49,127
29074,note_on,2,0,0,,2,,,50,127
29177,note_off,103,0,0,,2,,,50,127
29177,note_off,0,0,0,,10,,,69,127
29179,note_on,2,0,0,,8,,,68,127
29179,note_on,0,0,0,,4,,,52,127
29282,note_off,103,0,0,,8,,,68,127
29284,note_on,2,0,0,,12,,,71,127
29387,note_off,103,0,0,,12,,,71,127
29387,note_off,0,0,0,,4,,,52,127
29389,note_on,2,0,0,,10,,,69,127
29389,note_on,0,0,0,,6,,,54,127
29492,note_off,103,0,0,,10,,,69,127
29494,note_on,2,0,0,,1,,,73,127
29597,note_off,103,0,0,,1,,,73,127
29597,note_off,0,0,0,,6,,,54,127
29599,note_on,2,0,0,,12,,,71,127
29599,note_on,0,0,0,,8,,,56,127
29702,note_off,103,0,0,,12,,,71,127
29704,note_on,2,0,0,,2,,,74,127
29807,note_off,103,0,0,,2,,,74,127
29807,note_off,0,0,0,,8,,,56,127
29809,note_on,2,0,0,,1,,,73,127
29809,note_on,0,0,0,,4,,,52,127
29912,note_off,103,0,0,,1,,,73,127
29914,note_on,2,0,0,,12,,,71,127
30017,note_off,103,0,0,,12,,,71,127
30017,note_off,0,0,0,,4,,,52,127
30019,note_on,2,0,0,,1,,,73,127
30019,note_on,0,0,0,,10,,,57,127
30122,note_off,103,0,0,,1,,,73,127
30124,note_on,2,0,0,,4,,,76,127
30227,note_off,103,0,0,,4,,,76,127
30227,note_off,0,0,0,,10,,,57,127
30229,note_on,2,0,0,,2,,,74,127
30229,note_on,0,0,0,,2,,,50,127
30332,note_off,103,0,0,,2,,,74,127
30334,note_on,2,0,0,,12,,,71,127
30437,note_off,103,0,0,,12,,,71,127
30437,note_off,0,0,0,,2,,,50,127
30439,note_on,2,0,0,,1,,,73,127
30439,note_on,0,0,0,,4,,,52,127
30542,note_off,103,0,0,,1,,,73,127
30544,note_on,2,0,0,,10,,,69,127
30647,note_off,103,0,0,,10,,,69,127
30647,note_off,0,0,0,,4,,,52,127
30649,note_on,2,0,0,,12,,,71,127
30649,note_on,0,0,0,,4,,,40,127
30749,note_off,100,0,0,,12,,,71,127
30753,note_on,4,0,0,,8,,,68,127
30856,note_off,103,0,0,,8,,,68,127
30856,note_off,0,0,0,,4,,,40,127
30867,note_on,11,0,0,,10,,,69,127
30867,note_on,0,0,0,,1,,,61,127
30867,note_on,0,0,0,,10,,,57,127
30972,note_on,105,0,0,,10,,,81,127
31075,note_off,103,0,0,,10,,,81,127
31075,note_off,0,0,0,,10,,,57,127
31075,note_off,0,0,0,,1,,,61,127
31075,note_off,0,0,0,,10,,,69,127
31077,note_on,2,0,0,,10,,,69,127
31077,note_on,0,0,0,,2,,,62,127
31077,note_on,0,0,0,,12,,,59,127
31182,note_on,105,0,0,,8,,,80,127
31285,note_off,103,0,0,,8,,,80,127
31285,note_off,0,0,0,,12,,,59,127
31285,note_off,0,0,0,,2,,,62,127
31285,note_off,0,0,0,,10,,,69,127
31287,note_on,2,0,0,,10,,,69,127
31287,note_on,0,0,0,,4,,,64,127
31287,note_on,0,0,0,,1,,,61,127
31392,note_on,105,0,0,,10,,,81,127
31495,note_off,103,0,0,,10,,,81,127
31495,note_off,0,0,0,,1,,,61,127
31495,note_off,0,0,0,,4,,,64,127
31495,note_off,0,0,0,,10,,,69,127
31497,note_on,2,0,0,,10,,,69,127
31497,note_on,0,0,0,,6,,,66,127
31497,note_on,0,0,0,,2,,,62,127
31602,note_on,105,0,0,,12,,,83,127
31705,note_off,103,0,0,,12,,,83,127
31705,note_off,0,0,0,,2,,,62,127
31705,note_off,0,0,0,,6,,,66,127
31705,note_off,0,0,0,,10,,,69,127
31707,note_on,2,0,0,,10,,,69,127
31707,note_on,0,0,0,,4,,,64,127
31707,note_on,0,0,0,,1,,,61,127
31812,note_on,105,0,0,,10,,,81,127
31915,note_off,103,0,0,,10,,,81,127
31915,note_off,0,0,0,,1,,,61,127
31915,note_off,0,0,0,,4,,,64,127
31915,note_off,0,0,0,,10,,,69,127
31917,note_on,2,0,0,,10,,,69,127
31917,note_on,0,0,0,,2,,,62,127
31917,note_on,0,0,0,,12,,,59,127
32022,note_on,105,0,0,,8,,,80,127
32125,note_off,103,0,0,,8,,,80,127
32125,note_off,0,0,0,,12,,,59,127
32125,note_off,0,0,0,,2,,,62,127
32125,note_off,0,0,0,,10,,,69,127
32127,note_on,2,0,0,,10,,,69,127
32127,note_on,0,0,0,,1,,,61,127
32127,note_on,0,0,0,,4,,,64,127
32232,note_on,105,0,0,,10,,,81,127
32335,note_off,103,0,0,,10,,,81,127
32335,note_off,0,0,0,,4,,,64,127
32335,note_off,0,0,0,,1,,,61,127
32335,note_off,0,0,0,,10,,,69,127
32337,note_on,2,0,0,,10,,,69,127
32337,note_on,0,0,0,,6,,,66,127
32337,note_on,0,0,0,,2,,,62,127
32440,note_off,103,0,0,,10,,,69,127
32442,note_on,2,0,0,,12,,,83,127
32545,note_off,103,0,0,,12,,,83,127
32545,note_off,0,0,0,,2,,,62,127
32545,note_off,0,0,0,,6,,,66,127
32547,note_on,2,0,0,,10,,,81,127
32547,note_on,0,0,0,,4,,,64,127
32547,note_on,0,0,0,,1,,,61,127
32650,note_off,103,0,0,,10,,,81,127
32652,note_on,2,0,0,,4,,,76,127
32755,note_off,103,0,0,,4,,,76,127
32755,note_off,0,0,0,,1,,,61,127
32755,note_off,0,0,0,,4,,,64,127
32757,note_on,2,0,0,,6,,,78,127
32757,note_on,0,0,0,,2,,,62,127
32860,note_off,103,0,0,,6,,,78,127
32862,note_on,2,0,0,,2,,,74,127
32965,note_off,103,0,0,,2,,,74,127
32965,note_off,0,0,0,,2,,,62,127
32967,note_on,2,0,0,,1,,,73,127
32967,note_on,0,0,0,,4,,,64,127
33070,note_off,103,0,0,,1,,,73,127
33072,note_on,2,0,0,,12,,,71,127
33175,note_off,103,0,0,,12,,,71,127
33175,note_off,0,0,0,,4,,,64,127
33177,note_on,2,0,0,,10,,,69,127
33177,note_on,0,0,0,,4,,,52,127
33280,note_off,103,0,0,,10,,,69,127
33282,note_on,2,0,0,,8,,,68,127
33385,note_off,103,0,0,,8,,,68,127
33385,note_off,0,0,0,,4,,,52,127
33387,note_on,2,0,0,,10,,,69,127
33387,note_on,0,0,0,,1,,,73,127
33387,note_on,0,0,0,,10,,,45,127
33490,note_off,103,0,0,,10,,,45,127
33492,note_on,2,0,0,,10,,,57,127
33595,note_off,103,0,0,,10,,,57,127
33595,note_off,0,0,0,,1,,,73,127
33595,note_off,0,0,0,,10,,,69,127
33597,note_on,2,0,0,,12,,,71,127
33597,note_on,0,0,0,,2,,,74,127
33597,note_on,0,0,0,,10,,,45,127
33700,note_off,103,0,0,,10,,,45,127
33702,note_on,2,0,0,,8,,,56,127
33805,note_off,103,0,0,,8,,,56,127
33805,note_off,0,0,0,,2,,,74,127
33805,note_off,0,0,0,,12,,,71,127
33807,note_on,2,0,0,,1,,,73,127
33807,note_on,0,0,0,,10,,,69,127
33807,note_on,0,0,0,,10,,,45,127
33910,note_off,103,0,0,,10,,,45,127
33912,note_on,2,0,0,,10,,,57,127
34015,note_off,103,0,0,,10,,,57,127
34015,note_off,0,0,0,,10,,,69,127
34015,note_off,0,0,0,,1,,,73,127
34017,note_on,2,0,0,,8,,,68,127
34017,note_on,0,0,0,,12,,,71,127
34017,note_on,0,0,0,,10,,,45,127
34120,note_off,103,0,0,,10,,,45,127
34122,note_on,2,0,0,,12,,,59,127
34225,note_off,103,0,0,,12,,,59,127
34225,note_off,0,0,0,,12,,,71,127
34225,note_off,0,0,0,,8,,,68,127
34227,note_on,2,0,0,,1,,,73,127
34227,note_on,0,0,0,,10,,,69,127
34227,note_on,0,0,0,,10,,,45,127
34330,note_off,103,0,0,,10,,,45,127
34332,note_on,2,0,0,,10,,,57,127
34435,note_off,103,0,0,,10,,,57,127
34435,note_off,0,0,0,,10,,,69,127
34435,note_off,0,0,0,,1,,,73,127
34437,note_on,2,0,0,,2,,,74,127
34437,note_on,0,0,0,,12,,,71,127
34437,note_on,0,0,0,,10,,,45,127
34540,note_off,103,0,0,,10,,,45,127
34542,note_on,2,0,0,,8,,,56,127
34645,note_off,103,0,0,,8,,,56,127
34645,note_off,0,0,0,,12,,,71,127
34645,note_off,0,0,0,,2,,,74,127
34647,note_on,2,0,0,,10,,,69,127
34647,note_on,0,0,0,,1,,,73,127
34647,note_on,0,0,0,,10,,,45,127
34750,note_off,103,0,0,,10,,,45,127
34752,note_on,2,0,0,,10,,,57,127
34855,note_off,103,0,0,,10,,,57,127
34855,note_off,0,0,0,,1,,,73,127
34855,note_off,0,0,0,,10,,,69,127
34857,note_on,2,0,0,,8,,,68,127
34857,note_on,0,0,0,,12,,,71,127
34857,note_on,0,0,0,,10,,,45,127
34960,note_off,103,0,0,,10,,,45,127
34962,note_on,2,0,0,,12,,,59,127
35065,note_off,103,0,0,,12,,,59,127
35065,note_off,0,0,0,,12,,,71,127
35065,note_off,0,0,0,,8,,,68,127
35067,note_on,2,0,0,,10,,,69,127
35067,note_on,0,0,0,,1,,,73,127
35067,note_on,0,0,0,,10,,,45,127
35170,note_off,103,0,0,,10,,,45,127
35172,note_on,2,0,0,,10,,,57,127
35275,note_off,103,0,0,,10,,,57,127
35275,note_off,0,0,0,,1,,,73,127
35275,note_off,0,0,0,,10,,,69,127
35277,note_on,2,0,0,,12,,,71,127
35277,note_on,0,0,0,,10,,,45,127
35380,note_off,103,0,0,,10,,,45,127
35382,note_on,2,0,0,,8,,,56,127
35485,note_off,103,0,0,,8,,,56,127
35485,note_off,0,0,0,,12,,,71,127
35487,note_on,2,0,0,,1,,,73,127
35487,note_on,0,0,0,,10,,,45,127
35590,note_off,103,0,0,,10,,,45,127
35592,note_on,2,0,0,,10,,,57,127
35695,note_off,103,0,0,,10,,,57,127
35695,note_off,0,0,0,,1,,,73,127
35697,note_on,2,0,0,,12,,,47,127
35697,note_on,0,0,0,,2,,,74,127
35800,note_off,103,0,0,,12,,,47,127
35802,note_on,2,0,0,,8,,,56,127
35905,note_off,103,0,0,,8,,,56,127
35905,note_off,0,0,0,,2,,,74,127
35907,note_on,2,0,0,,4,,,76,127
35907,note_on,0,0,0,,1,,,49,127
36010,note_off,103,0,0,,4,,,76,127
36012,note_on,2,0,0,,10,,,69,127
36115,note_off,103,0,0,,10,,,69,127
36115,note_off,0,0,0,,1,,,49,127
36117,note_on,2,0,0,,12,,,71,127
36117,note_on,0,0,0,,2,,,50,127
36220,note_off,103,0,0,,12,,,71,127
36222,note_on,2,0,0,,2,,,74,127
36325,note_off,103,0,0,,2,,,74,127
36325,note_off,0,0,0,,2,,,50,127
36327,note_on,2,0,0,,1,,,73,127
36327,note_on,0,0,0,,4,,,52,127
36430,note_off,103,0,0,,1,,,73,127
36432,note_on,2,0,0,,10,,,69,127
36535,note_off,103,0,0,,10,,,69,127
36535,note_off,0,0,0,,4,,,52,127
36537,note_on,2,0,0,,12,,,71,127
36537,note_on,0,0,0,,4,,,40,127
36640,note_off,103,0,0,,12,,,71,127
36642,note_on,2,0,0,,8,,,68,127
36745,note_off,103,0,0,,8,,,68,127
36745,note_off,0,0,0,,4,,,40,127
36747,note_on,2,0,0,,10,,,69,127
36852,note_on,105,0,0,,10,,,57,127
36955,note_off,103,0,0,,10,,,57,127
36955,note_off,0,0,0,,10,,,69,127
36957,note_on,2,0,0,,4,,,76,127
36957,note_on,0,0,0,,1,,,61,127
37060,note_off,103,0,0,,1,,,61,127
37062,note_on,2,0,0,,10,,,57,127
37165,note_off,103,0,0,,10,,,57,127
37167,note_on,2,0,0,,4,,,64,127
37270,note_off,103,0,0,,4,,,64,127
37272,note_on,2,0,0,,4,,,52,127
37375,note_off,103,0,0,,4,,,52,127
37375,note_off,0,0,0,,4,,,76,127
37377,note_on,2,0,0,,2,,,74,127
37377,note_on,0,0,0,,8,,,56,127
37480,note_off,103,0,0,,8,,,56,127
37482,note_on,2,0,0,,4,,,52,127
37585,note_off,103,0,0,,4,,,52,127
37585,note_off,0,0,0,,2,,,74,127
37587,note_on,2,0,0,,1,,,73,127
37587,note_on,0,0,0,,10,,,57,127
37690,note_off,103,0,0,,10,,,57,127
37692,note_on,2,0,0,,10,,,45,127
37795,note_off,103,0,0,,10,,,45,127
37795,note_off,0,0,0,,1,,,73,127
37797,note_on,2,0,0,,4,,,76,127
37797,note_on,0,0,0,,1,,,49,127
37900,note_off,103,0,0,,1,,,49,127
37902,note_on,2,0,0,,10,,,45,127
38005,note_off,103,0,0,,10,,,45,127
38007,note_on,2,0,0,,4,,,52,127
38110,note_off,103,0,0,,4,,,52,127
38112,note_on,2,0,0,,4,,,40,127
38215,note_off,103,0,0,,4,,,40,127
38215,note_off,0,0,0,,4,,,76,127
38217,note_on,2,0,0,,2,,,74,127
38217,note_on,0,0,0,,8,,,44,127
38320,note_off,103,0,0,,8,,,44,127
38322,note_on,2,0,0,,4,,,40,127
38425,note_off,103,0,0,,4,,,40,127
38425,note_off,0,0,0,,2,,,74,127
38427,note_on,2,0,0,,1,,,73,127
38427,note_on,0,0,0,,10,,,45,127
38530,note_off,103,0,0,,1,,,73,127
38532,note_on,2,0,0,,4,,,76,127
38635,note_off,103,0,0,,4,,,76,127
38635,note_off,0,0,0,,10,,,45,127
38637,note_on,2,0,0,,2,,,74,127
38637,note_on,0,0,0,,2,,,50,127
38740,note_off,103,0,0,,2,,,74,127
38742,note_on,2,0,0,,12,,,71,127
38845,note_off,103,0,0,,12,,,71,127
38845,note_off,0,0,0,,2,,,50,127
38847,note_on,2,0,0,,1,,,73,127
38847,note_on,0,0,0,,4,,,52,127
38950,note_off,103,0,0,,1,,,73,127
38952,note_on,2,0,0,,10,,,69,127
39055,note_off,103,0,0,,10,,,69,127
39055,note_off,0,0,0,,4,,,52,127
39057,note_on,2,0,0,,12,,,71,127
39057,note_on,0,0,0,,4,,,40,127
39160,note_off,103,0,0,,12,,,71,127
39162,note_on,2,0,0,,8,,,68,127
39265,note_off,103,0,0,,8,,,68,127
39265,note_off,0,0,0,,4,,,40,127
39267,note_on,2,0,0,,10,,,69,127
39267,note_on,0,0,0,,10,,,45,127
39370,note_off,103,0,0,,10,,,45,127
39370,note_off,0,0,0,,10,,,69,127
39372,note_on,2,0,0,,10,,,81,127
39372,note_on,0,0,0,,10,,,57,127
39475,note_off,103,0,0,,10,,,57,127
39475,note_off,0,0,0,,10,,,81,127
39477,note_on,2,0,0,,4,,,76,127
39477,note_on,0,0,0,,1,,,61,127
39580,note_off,103,0,0,,1,,,61,127
39582,note_on,2,0,0,,10,,,57,127
39685,note_off,103,0,0,,10,,,57,127
39687,note_on,2,0,0,,4,,,64,127
39790,note_off,103,0,0,,4,,,64,127
39792,note_on,2,0,0,,4,,,52,127
39895,note_off,103,0,0,,4,,,52,127
39895,note_off,0,0,0,,4,,,76,127
39897,note_on,2,0,0,,2,,,74,127
39897,note_on,0,0,0,,8,,,56,127
40000,note_off,103,0,0,,8,,,56,127
40002,note_on,2,0,0,,4,,,52,127
40105,note_off,103,0,0,,4,,,52,127
40105,note_off,0,0,0,,2,,,74,127
40107,note_on,2,0,0,,1,,,73,127
40107,note_on,0,0,0,,10,,,57,127
40210,note_off,103,0,0,,10,,,57,127
40210,note_off,0,0,0,,1,,,73,127
40212,note_on,2,0,0,,10,,,81,127
40212,note_on,0,0,0,,10,,,45,127
40315,note_off,103,0,0,,10,,,45,127
40315,note_off,0,0,0,,10,,,81,127
40317,note_on,2,0,0,,4,,,76,127
40317,note_on,0,0,0,,1,,,49,127
40420,note_off,103,0,0,,1,,,49,127
40422,note_on,2,0,0,,10,,,45,127
40525,note_off,103,0,0,,10,,,45,127
40527,note_on,2,0,0,,4,,,52,127
40630,note_off,103,0,0,,4,,,52,127
40632,note_on,2,0,0,,4,,,40,127
40735,note_off,103,0,0,,4,,,40,127
40735,note_off,0,0,0,,4,,,76,127
40737,note_on,2,0,0,,2,,,74,127
40737,note_on,0,0,0,,8,,,44,127
40840,note_off,103,0,0,,8,,,44,127
40842,note_on,2,0,0,,4,,,40,127
40945,note_off,103,0,0,,4,,,40,127
40945,note_off,0,0,0,,2,,,74,127
40947,note_on,2,0,0,,1,,,73,127
40947,note_on,0,0,0,,10,,,45,127
41050,note_off,103,0,0,,1,,,73,127
41052,note_on,2,0,0,,4,,,76,127
41155,note_off,103,0,0,,4,,,76,127
41155,note_off,0,0,0,,10,,,45,127
41157,note_on,2,0,0,,2,,,74,127
41157,note_on,0,0,0,,2,,,50,127
41260,note_off,103,0,0,,2,,,74,127
41262,note_on,2,0,0,,12,,,71,127
41365,note_off,103,0,0,,12,,,71,127
41365,note_off,0,0,0,,2,,,50,127
41367,note_on,2,0,0,,1,,,73,127
41367,note_on,0,0,0,,4,,,52,127
41470,note_off,103,0,0,,1,,,73,127
41472,note_on,2,0,0,,10,,,69,127
41575,note_off,103,0,0,,10,,,69,127
41575,note_off,0,0,0,,4,,,52,127
41577,note_on,2,0,0,,12,,,71,127
41577,note_on,0,0,0,,4,,,40,127
41680,note_off,103,0,0,,12,,,71,127
41682,note_on,2,0,0,,8,,,68,127
41785,note_off,103,0,0,,8,,,68,127
41785,note_off,0,0,0,,4,,,40,127
41787,note_on,2,0,0,,10,,,69,127
41787,note_on,0,0,0,,10,,,33,127
41787,note_on,0,0,0,,10,,,45,127
41890,note_off,103,0,0,,10,,,69,127
41892,note_on,2,0,0,,10,,,81,127
41995,note_off,103,0,0,,10,,,81,127
41997,note_on,2,0,0,,1,,,73,127
42100,note_off,103,0,0,,1,,,73,127
42102,note_on,2,0,0,,4,,,76,127
42205,note_off,103,0,0,,4,,,76,127
42207,note_on,2,0,0,,10,,,69,127
42310,note_off,103,0,0,,10,,,69,127
42312,note_on,2,0,0,,1,,,73,127
42415,note_off,103,0,0,,1,,,73,127
42417,note_on,2,0,0,,4,,,64,127
42520,note_off,103,0,0,,4,,,64,127
42522,note_on,2,0,0,,10,,,69,127
42625,note_off,103,0,0,,10,,,69,127
42627,note_on,2,0,0,,1,,,61,127
42730,note_off,103,0,0,,1,,,61,127
42732,note_on,2,0,0,,4,,,64,127
42835,note_off,103,0,0,,4,,,64,127
42837,note_on,2,0,0,,10,,,57,127
42940,note_off,103,0,0,,10,,,57,127
42942,note_on,2,0,0,,1,,,61,127
43045,note_off,103,0,0,,1,,,61,127
43047,note_on,2,0,0,,4,,,52,127
43150,note_off,103,0,0,,4,,,52,127
43152,note_on,2,0,0,,10,,,57,127
43255,note_off,103,0,0,,10,,,57,127
43257,note_on,2,0,0,,1,,,49,127
43360,note_off,103,0,0,,1,,,49,127
43362,note_on,2,0,0,,4,,,52,127
43465,note_off,103,0,0,,4,,,52,127
43465,note_off,0,0,0,,10,,,45,127
43465,note_off,0,0,0,,10,,,33,127
43467,note_on,2,0,0,,10,,,33,127
43467,note_on,0,0,0,,10,,,45,127
44994,note_off,1527,0,0,,10,,,45,127
44994,note_off,0,0,0,,10,,,33,127
45011,note_on,17,0,0,,6,,,54,127
45011,note_on,0,0,0,,1,,,61,127
45011,note_on,0,0,0,,4,,,64,127
45011,note_on,0,0,0,,4,,,76,127
45011,note_on,0,0,0,,1,,,73,127
45011,note_on,0,0,0,,12,,,71,127
45011,note_on,0,0,0,,11,,,70,127
45011,note_on,0,0,0,,6,,,66,127
45218,note_off,207,0,0,,6,,,66,127
45218,note_off,0,0,0,,11,,,70,127
45218,note_off,0,0,0,,12,,,71,127
45218,note_off,0,0,0,,1,,,73,127
45220,note_on,2,0,0,,1,,,73,127
45323,note_off,103,0,0,,1,,,73,127
45325,note_on,2,0,0,,12,,,71,127
45428,note_off,103,0,0,,12,,,71,127
45430,note_on,2,0,0,,11,,,70,127
45637,note_off,207,0,0,,11,,,70,127
45639,note_on,2,0,0,,11,,,70,127
45846,note_off,207,0,0,,11,,,70,127
45846,note_off,0,0,0,,4,,,64,127
45846,note_off,0,0,0,,1,,,61,127
45846,note_off,0,0,0,,6,,,54,127
45847,note_off,1,0,0,,4,,,76,127
45848,note_on,1,0,0,,6,,,54,127
45848,note_on,0,0,0,,2,,,62,127
45848,note_on,0,0,0,,12,,,59,127
45848,note_on,0,0,0,,6,,,78,127
45848,note_on,0,0,0,,2,,,74,127
45848,note_on,0,0,0,,1,,,73,127
45848,note_on,0,0,0,,12,,,71,127
45848,note_on,0,0,0,,6,,,66,127
46055,note_off,207,0,0,,6,,,66,127
46055,note_off,0,0,0,,12,,,71,127
46055,note_off,0,0,0,,1,,,73,127
46055,note_off,0,0,0,,2,,,74,127
46057,note_on,2,0,0,,2,,,74,127
46160,note_off,103,0,0,,2,,,74,127
46162,note_on,2,0,0,,1,,,73,127
46265,note_off,103,0,0,,1,,,73,127
46267,note_on,2,0,0,,12,,,71,127
46474,note_off,207,0,0,,12,,,71,127
46476,note_on,2,0,0,,12,,,71,127
46683,note_off,207,0,0,,12,,,71,127
46683,note_off,0,0,0,,12,,,59,127
46683,note_off,0,0,0,,2,,,62,127
46683,note_off,0,0,0,,6,,,54,127
46684,note_off,1,0,0,,6,,,78,127
46685,note_on,1,0,0,,6,,,54,127
46685,note_on,0,0,0,,1,,,61,127
46685,note_on,0,0,0,,12,,,59,127
46685,note_on,0,0,0,,4,,,64,127
46685,note_on,0,0,0,,6,,,78,127
46685,note_on,0,0,0,,2,,,74,127
46685,note_on,0,0,0,,1,,,73,127
46685,note_on,0,0,0,,12,,,71,127
46892,note_off,207,0,0,,2,,,74,127
46892,note_off,0,0,0,,6,,,78,127
46894,note_on,2,0,0,,4,,,76,127
46997,note_off,103,0,0,,4,,,76,127
46999,note_on,2,0,0,,2,,,74,127
47099,note_off,100,0,0,,12,,,71,127
47099,note_off,0,0,0,,1,,,73,127
47101,note_off,2,0,0,,2,,,74,127
47103,note_on,2,0,0,,1,,,73,127
47310,note_off,207,0,0,,1,,,73,127
47312,note_on,2,0,0,,12,,,71,127
47519,note_off,207,0,0,,12,,,71,127
47519,note_off,0,0,0,,4,,,64,127
47519,note_off,0,0,0,,12,,,59,127
47519,note_off,0,0,0,,1,,,61,127
47519,note_off,0,0,0,,6,,,54,127
47521,note_on,2,0,0,,6,,,54,127
47521,note_on,0,0,0,,6,,,66,127
47521,note_on,0,0,0,,12,,,71,127
47938,note_off,417,0,0,,12,,,71,127
47940,note_on,2,0,0,,11,,,70,127
47973,note_off,33,0,0,,11,,,70,127
47975,note_on,2,0,0,,12,,,71,127
48008,note_off,33,0,0,,12,,,71,127
48010,note_on,2,0,0,,11,,,70,127
48043,note_off,33,0,0,,11,,,70,127
48045,note_on,2,0,0,,12,,,71,127
48078,note_off,33,0,0,,12,,,71,127
48080,note_on,2,0,0,,11,,,70,127
48357,note_off,277,0,0,,11,,,70,127
48357,note_off,0,0,0,,6,,,66,127
48357,note_off,0,0,0,,6,,,54,127
48368,note_on,11,0,0,,6,,,54,127
48368,note_on,0,0,0,,4,,,64,127
48368,note_on,0,0,0,,1,,,61,127
48368,note_on,0,0,0,,7,,,79,127
48368,note_on,0,0,0,,4,,,76,127
48368,note_on,0,0,0,,1,,,73,127
48368,note_on,0,0,0,,11,,,70,127
48368,note_on,0,0,0,,7,,,67,127
48575,note_off,207,0,0,,7,,,67,127
48575,note_off,0,0,0,,11,,,70,127
48575,note_off,0,0,0,,1,,,73,127
48575,note_off,0,0,0,,4,,,76,127
48577,note_on,2,0,0,,4,,,76,127
48680,note_off,103,0,0,,4,,,76,127
48682,note_on,2,0,0,,1,,,73,127
48785,note_off,103,0,0,,1,,,73,127
48787,note_on,2,0,0,,11,,,70,127
48994,note_off,207,0,0,,11,,,70,127
48996,note_on,2,0,0,,11,,,70,127
49203,note_off,207,0,0,,11,,,70,127
49203,note_off,0,0,0,,1,,,61,127
49203,note_off,0,0,0,,4,,,64,127
49203,note_off,0,0,0,,6,,,54,127
49204,note_off,1,0,0,,7,,,79,127
49205,note_on,1,0,0,,6,,,54,127
49205,note_on,0,0,0,,2,,,62,127
49205,note_on,0,0,0,,12,,,59,127
49205,note_on,0,0,0,,6,,,78,127
49205,note_on,0,0,0,,2,,,74,127
49205,note_on,0,0,0,,1,,,73,127
49205,note_on,0,0,0,,12,,,71,127
49412,note_off,207,0,0,,12,,,71,127
49412,note_off,0,0,0,,1,,,73,127
49412,note_off,0,0,0,,2,,,74,127
49414,note_on,2,0,0,,2,,,74,127
49517,note_off,103,0,0,,2,,,74,127
49519,note_on,2,0,0,,1,,,73,127
49622,note_off,103,0,0,,1,,,73,127
49624,note_on,2,0,0,,12,,,71,127
49831,note_off,207,0,0,,12,,,71,127
49833,note_on,2,0,0,,12,,,71,127
50040,note_off,207,0,0,,12,,,71,127
50040,note_off,0,0,0,,12,,,59,127
50040,note_off,0,0,0,,2,,,62,127
50040,note_off,0,0,0,,6,,,54,127
50041,note_off,1,0,0,,6,,,78,127
50042,note_on,1,0,0,,6,,,54,127
50042,note_on,0,0,0,,1,,,61,127
50042,note_on,0,0,0,,12,,,59,127
50042,note_on,0,0,0,,5,,,65,127
50042,note_on,0,0,0,,6,,,78,127
50042,note_on,0,0,0,,12,,,71,127
50042,note_on,0,0,0,,1,,,73,127
50042,note_on,0,0,0,,2,,,74,127
50249,note_off,207,0,0,,2,,,74,127
50249,note_off,0,0,0,,6,,,78,127
50251,note_on,2,0,0,,4,,,76,127
50354,note_off,103,0,0,,4,,,76,127
50356,note_on,2,0,0,,2,,,74,127
50456,note_off,100,0,0,,1,,,73,127
50456,note_off,0,0,0,,12,,,71,127
50458,note_off,2,0,0,,2,,,74,127
50460,note_on,2,0,0,,1,,,73,127
50667,note_off,207,0,0,,1,,,73,127
50669,note_on,2,0,0,,12,,,71,127
50876,note_off,207,0,0,,12,,,71,127
50876,note_off,0,0,0,,5,,,65,127
50876,note_off,0,0,0,,12,,,59,127
50876,note_off,0,0,0,,1,,,61,127
50876,note_off,0,0,0,,6,,,54,127
50878,note_on,2,0,0,,6,,,54,127
50878,note_on,0,0,0,,6,,,66,127
50878,note_on,0,0,0,,12,,,71,127
51295,note_off,417,0,0,,12,,,71,127
51297,note_on,2,0,0,,11,,,70,127
51330,note_off,33,0,0,,11,,,70,127
51332,note_on,2,0,0,,12,,,71,127
51365,note_off,33,0,0,,12,,,71,127
51367,note_on,2,0,0,,11,,,70,127
51400,note_off,33,0,0,,11,,,70,127
51402,note_on,2,0,0,,12,,,71,127
51435,note_off,33,0,0,,12,,,71,127
51437,note_on,2,0,0,,11,,,70,127
51605,note_off,168,0,0,,11,,,70,127
51605,note_off,0,0,0,,6,,,54,127
51715,note_off,110,0,0,,6,,,66,127
51725,note_on,10,0,0,,7,,,43,127
51725,note_on,0,0,0,,7,,,55,127
51725,note_on,0,0,0,,2,,,50,127
51725,note_on,0,0,0,,7,,,79,127
51725,note_on,0,0,0,,2,,,74,127
51725,note_on,0,0,0,,12,,,71,127
51725,note_on,0,0,0,,7,,,67,127
51932,note_off,207,0,0,,12,,,71,127
51932,note_off,0,0,0,,2,,,74,127
51934,note_on,2,0,0,,2,,,74,127
52037,note_off,103,0,0,,2,,,74,127
52039,note_on,2,0,0,,12,,,71,127
52139,note_off,100,0,0,,7,,,67,127
52141,note_off,2,0,0,,12,,,71,127
52143,note_on,2,0,0,,7,,,67,127
52350,note_off,207,0,0,,7,,,67,127
52352,note_on,2,0,0,,7,,,67,127
52559,note_off,207,0,0,,7,,,67,127
52559,note_off,0,0,0,,2,,,50,127
52559,note_off,0,0,0,,7,,,55,127
52559,note_off,0,0,0,,7,,,43,127
52560,note_off,1,0,0,,7,,,79,127
52561,note_on,1,0,0,,2,,,50,127
52561,note_on,0,0,0,,7,,,43,127
52561,note_on,0,0,0,,7,,,55,127
52561,note_on,0,0,0,,7,,,79,127
52561,note_on,0,0,0,,7,,,67,127
52561,note_on,0,0,0,,12,,,71,127
52561,note_on,0,0,0,,2,,,74,127
52768,note_off,207,0,0,,2,,,74,127
52768,note_off,0,0,0,,12,,,71,127
52770,note_on,2,0,0,,2,,,74,127
52873,note_off,103,0,0,,2,,,74,127
52875,note_on,2,0,0,,12,,,71,127
52975,note_off,100,0,0,,7,,,67,127
52977,note_off,2,0,0,,12,,,71,127
52979,note_on,2,0,0,,7,,,67,127
53186,note_off,207,0,0,,7,,,67,127
53188,note_on,2,0,0,,7,,,67,127
53395,note_off,207,0,0,,7,,,67,127
53395,note_off,0,0,0,,7,,,55,127
53395,note_off,0,0,0,,7,,,43,127
53395,note_off,0,0,0,,2,,,50,127
53396,note_off,1,0,0,,7,,,79,127
53397,note_on,1,0,0,,7,,,43,127
53397,note_on,0,0,0,,7,,,55,127
53397,note_on,0,0,0,,2,,,50,127
53397,note_on,0,0,0,,7,,,79,127
53397,note_on,0,0,0,,7,,,67,127
53397,note_on,0,0,0,,12,,,71,127
53397,note_on,0,0,0,,2,,,74,127
53604,note_off,207,0,0,,2,,,74,127
53604,note_off,0,0,0,,12,,,71,127
53604,note_off,0,0,0,,7,,,67,127
53606,note_on,2,0,0,,7,,,67,127
53811,note_off,205,0,0,,7,,,79,127
53813,note_off,2,0,0,,7,,,67,127
53813,note_off,0,0,0,,2,,,50,127
53813,note_off,0,0,0,,7,,,55,127
53813,note_off,0,0,0,,7,,,43,127
53815,note_on,2,0,0,,7,,,43,127
53815,note_on,0,0,0,,7,,,55,127
53815,note_on,0,0,0,,2,,,50,127
53815,note_on,0,0,0,,12,,,83,127
53815,note_on,0,0,0,,12,,,71,127
53815,note_on,0,0,0,,2,,,74,127
53815,note_on,0,0,0,,5,,,77,127
54022,note_off,207,0,0,,5,,,77,127
54022,note_off,0,0,0,,2,,,74,127
54022,note_off,0,0,0,,12,,,71,127
54024,note_on,2,0,0,,12,,,71,127
54229,note_off,205,0,0,,12,,,83,127
54231,note_off,2,0,0,,12,,,71,127
54231,note_off,0,0,0,,2,,,50,127
54231,note_off,0,0,0,,7,,,55,127
54231,note_off,0,0,0,,7,,,43,127
54233,note_on,2,0,0,,0,,,48,127
54233,note_on,0,0,0,,0,,,36,127
54233,note_on,0,0,0,,4,,,76,127
54233,note_on,0,0,0,,0,,,72,127
54233,note_on,0,0,0,,0,,,84,127
54997,note_off,764,0,0,,0,,,36,127
55069,note_off,72,0,0,,0,,,84,127
55069,note_off,0,0,0,,0,,,72,127
55069,note_off,0,0,0,,4,,,76,127
55069,note_off,0,0,0,,0,,,48,127
55071,note_on,2,0,0,,0,,,48,127
55071,note_on,0,0,0,,0,,,60,127
55071,note_on,0,0,0,,7,,,55,127
55071,note_on,0,0,0,,0,,,84,127
55071,note_on,0,0,0,,7,,,79,127
55071,note_on,0,0,0,,4,,,76,127
55071,note_on,0,0,0,,0,,,72,127
55278,note_off,207,0,0,,4,,,76,127
55278,note_off,0,0,0,,7,,,79,127
55280,note_on,2,0,0,,7,,,79,127
55383,note_off,103,0,0,,7,,,79,127
55385,note_on,2,0,0,,4,,,76,127
55485,note_off,100,0,0,,0,,,72,127
55487,note_off,2,0,0,,4,,,76,127
55489,note_on,2,0,0,,0,,,72,127
55697,note_off,208,0,0,,0,,,84,127
55698,note_on,1,0,0,,0,,,84,127
55903,note_off,205,0,0,,0,,,72,127
55905,note_off,2,0,0,,0,,,84,127
55905,note_off,0,0,0,,7,,,55,127
55905,note_off,0,0,0,,0,,,60,127
55905,note_off,0,0,0,,0,,,48,127
55907,note_on,2,0,0,,7,,,55,127
55907,note_on,0,0,0,,2,,,62,127
55907,note_on,0,0,0,,0,,,84,127
55907,note_on,0,0,0,,2,,,74,127
56114,note_off,207,0,0,,0,,,84,127
56116,note_on,2,0,0,,12,,,83,127
56219,note_off,103,0,0,,12,,,83,127
56221,note_on,2,0,0,,10,,,81,127
56324,note_off,103,0,0,,10,,,81,127
56326,note_on,2,0,0,,12,,,83,127
56534,note_off,208,0,0,,2,,,74,127
56535,note_on,1,0,0,,4,,,76,127
56740,note_off,205,0,0,,12,,,83,127
56742,note_off,2,0,0,,4,,,76,127
56742,note_off,0,0,0,,2,,,62,127
56742,note_off,0,0,0,,7,,,55,127
56744,note_on,2,0,0,,2,,,50,127
56744,note_on,0,0,0,,2,,,62,127
56744,note_on,0,0,0,,12,,,83,127
56744,note_on,0,0,0,,5,,,77,127
56951,note_off,207,0,0,,5,,,77,127
56951,note_off,0,0,0,,12,,,83,127
56953,note_on,2,0,0,,0,,,72,127
56953,note_on,0,0,0,,10,,,81,127
57056,note_off,103,0,0,,10,,,81,127
57058,note_on,2,0,0,,8,,,80,127
57161,note_off,103,0,0,,8,,,80,127
57161,note_off,0,0,0,,0,,,72,127
57161,note_off,0,0,0,,2,,,62,127
57161,note_off,0,0,0,,2,,,50,127
57163,note_on,2,0,0,,2,,,62,127
57163,note_on,0,0,0,,5,,,53,127
57163,note_on,0,0,0,,10,,,81,127
57163,note_on,0,0,0,,0,,,72,127
57370,note_off,207,0,0,,0,,,72,127
57372,note_on,2,0,0,,2,,,74,127
57577,note_off,205,0,0,,10,,,81,127
57579,note_off,2,0,0,,2,,,74,127
57579,note_off,0,0,0,,5,,,53,127
57579,note_off,0,0,0,,2,,,62,127
57581,note_on,2,0,0,,4,,,52,127
57581,note_on,0,0,0,,4,,,64,127
57581,note_on,0,0,0,,12,,,71,127
57581,note_on,0,0,0,,10,,,81,127
57581,note_on,0,0,0,,4,,,76,127
57788,note_off,207,0,0,,10,,,81,127
57790,note_on,2,0,0,,8,,,80,127
57893,note_off,103,0,0,,8,,,80,127
57895,note_on,2,0,0,,6,,,78,127
57998,note_off,103,0,0,,6,,,78,127
58000,note_on,2,0,0,,8,,,80,127
58103,note_off,103,0,0,,4,,,64,127
58103,note_off,0,0,0,,4,,,52,127
58105,note_on,2,0,0,,2,,,62,127
58208,note_off,103,0,0,,2,,,62,127
58208,note_off,0,0,0,,8,,,80,127
58209,note_off,1,0,0,,4,,,76,127
58209,note_off,0,0,0,,12,,,71,127
58210,note_on,1,0,0,,0,,,60,127
58313,note_off,103,0,0,,0,,,60,127
58315,note_on,2,0,0,,12,,,59,127
58418,note_off,103,0,0,,12,,,59,127
58420,note_on,2,0,0,,0,,,48,127
58420,note_on,0,0,0,,0,,,60,127
58420,note_on,0,0,0,,7,,,55,127
58420,note_on,0,0,0,,0,,,84,127
58420,note_on,0,0,0,,7,,,79,127
58420,note_on,0,0,0,,4,,,76,127
58420,note_on,0,0,0,,0,,,72,127
58627,note_off,207,0,0,,4,,,76,127
58627,note_off,0,0,0,,7,,,79,127
58629,note_on,2,0,0,,7,,,79,127
58732,note_off,103,0,0,,7,,,79,127
58734,note_on,2,0,0,,4,,,76,127
58834,note_off,100,0,0,,0,,,72,127
58836,note_off,2,0,0,,4,,,76,127
58838,note_on,2,0,0,,0,,,72,127
59046,note_off,208,0,0,,0,,,84,127
59047,note_on,1,0,0,,0,,,84,127
59252,note_off,205,0,0,,0,,,72,127
59254,note_off,2,0,0,,0,,,84,127
59254,note_off,0,0,0,,7,,,55,127
59254,note_off,0,0,0,,0,,,60,127
59254,note_off,0,0,0,,0,,,48,127
59256,note_on,2,0,0,,7,,,55,127
59256,note_on,0,0,0,,2,,,62,127
59256,note_on,0,0,0,,0,,,84,127
59256,note_on,0,0,0,,2,,,74,127
59463,note_off,207,0,0,,0,,,84,127
59465,note_on,2,0,0,,12,,,83,127
59568,note_off,103,0,0,,12,,,83,127
59570,note_on,2,0,0,,10,,,81,127
59673,note_off,103,0,0,,10,,,81,127
59675,note_on,2,0,0,,12,,,83,127
59883,note_off,208,0,0,,2,,,74,127
59884,note_on,1,0,0,,4,,,76,127
60089,note_off,205,0,0,,12,,,83,127
60091,note_off,2,0,0,,4,,,76,127
60091,note_off,0,0,0,,2,,,62,127
60091,note_off,0,0,0,,7,,,55,127
60093,note_on,2,0,0,,2,,,62,127
60093,note_on,0,0,0,,2,,,50,127
60093,note_on,0,0,0,,5,,,77,127
60093,note_on,0,0,0,,12,,,83,127
60300,note_off,207,0,0,,12,,,83,127
60300,note_off,0,0,0,,5,,,77,127
60302,note_on,2,0,0,,10,,,81,127
60302,note_on,0,0,0,,0,,,72,127
60405,note_off,103,0,0,,10,,,81,127
60407,note_on,2,0,0,,8,,,80,127
60510,note_off,103,0,0,,8,,,80,127
60510,note_off,0,0,0,,0,,,72,127
60510,note_off,0,0,0,,2,,,50,127
60510,note_off,0,0,0,,2,,,62,127
60512,note_on,2,0,0,,5,,,53,127
60512,note_on,0,0,0,,2,,,62,127
60512,note_on,0,0,0,,0,,,72,127
60512,note_on,0,0,0,,10,,,81,127
60719,note_off,207,0,0,,0,,,72,127
60721,note_on,2,0,0,,2,,,74,127
60926,note_off,205,0,0,,10,,,81,127
60928,note_off,2,0,0,,2,,,74,127
60928,note_off,0,0,0,,2,,,62,127
60928,note_off,0,0,0,,5,,,53,127
60930,note_on,2,0,0,,4,,,64,127
60930,note_on,0,0,0,,4,,,52,127
60930,note_on,0,0,0,,10,,,81,127
60930,note_on,0,0,0,,4,,,76,127
60930,note_on,0,0,0,,12,,,71,127
61137,note_off,207,0,0,,10,,,81,127
61139,note_on,2,0,0,,8,,,80,127
61242,note_off,103,0,0,,8,,,80,127
61244,note_on,2,0,0,,6,,,78,127
61347,note_off,103,0,0,,6,,,78,127
61349,note_on,2,0,0,,8,,,80,127
61452,note_off,103,0,0,,4,,,52,127
61452,note_off,0,0,0,,4,,,64,127
61454,note_on,2,0,0,,12,,,59,127
61557,note_off,103,0,0,,12,,,59,127
61559,note_on,2,0,0,,8,,,56,127
61662,note_off,103,0,0,,8,,,56,127
61667,note_on,5,0,0,,12,,,59,127
61742,note_off,75,0,0,,8,,,80,127
61767,note_off,25,0,0,,12,,,71,127
61767,note_off,0,0,0,,4,,,76,127
61769,note_off,2,0,0,,12,,,59,127
61777,note_on,8,0,0,,4,,,52,127
61777,note_on,0,0,0,,4,,,64,127
61880,note_off,103,0,0,,4,,,64,127
61882,note_on,2,0,0,,10,,,69,127
61985,note_off,103,0,0,,10,,,69,127
61987,note_on,2,0,0,,8,,,68,127
62090,note_off,103,0,0,,8,,,68,127
62092,note_on,2,0,0,,0,,,72,127
62195,note_off,103,0,0,,0,,,72,127
62197,note_on,2,0,0,,12,,,71,127
62300,note_off,103,0,0,,12,,,71,127
62302,note_on,2,0,0,,2,,,74,127
62405,note_off,103,0,0,,2,,,74,127
62407,note_on,2,0,0,,0,,,72,127
62510,note_off,103,0,0,,0,,,72,127
62512,note_on,2,0,0,,12,,,71,127
62615,note_off,103,0,0,,12,,,71,127
62615,note_off,0,0,0,,4,,,52,127
62617,note_on,2,0,0,,10,,,45,127
62617,note_on,0,0,0,,0,,,72,127
62720,note_off,103,0,0,,10,,,45,127
62722,note_on,2,0,0,,2,,,50,127
62825,note_off,103,0,0,,2,,,50,127
62827,note_on,2,0,0,,0,,,48,127
62930,note_off,103,0,0,,0,,,48,127
62932,note_on,2,0,0,,5,,,53,127
63035,note_off,103,0,0,,5,,,53,127
63037,note_on,2,0,0,,4,,,52,127
63140,note_off,103,0,0,,4,,,52,127
63142,note_on,2,0,0,,0,,,60,127
63245,note_off,103,0,0,,0,,,60,127
63247,note_on,2,0,0,,12,,,59,127
63350,note_off,103,0,0,,12,,,59,127
63352,note_on,2,0,0,,10,,,57,127
63455,note_off,103,0,0,,10,,,57,127
63455,note_off,0,0,0,,0,,,72,127
63457,note_on,2,0,0,,4,,,40,127
63457,note_on,0,0,0,,4,,,64,127
63560,note_off,103,0,0,,4,,,64,127
63562,note_on,2,0,0,,10,,,69,127
63665,note_off,103,0,0,,10,,,69,127
63667,note_on,2,0,0,,8,,,68,127
63770,note_off,103,0,0,,8,,,68,127
63772,note_on,2,0,0,,0,,,72,127
63875,note_off,103,0,0,,0,,,72,127
63877,note_on,2,0,0,,12,,,71,127
63980,note_off,103,0,0,,12,,,71,127
63982,note_on,2,0,0,,2,,,74,127
64085,note_off,103,0,0,,2,,,74,127
64087,note_on,2,0,0,,0,,,72,127
64190,note_off,103,0,0,,0,,,72,127
64192,note_on,2,0,0,,12,,,71,127
64295,note_off,103,0,0,,12,,,71,127
64295,note_off,0,0,0,,4,,,40,127
64297,note_on,2,0,0,,10,,,45,127
64297,note_on,0,0,0,,0,,,72,127
64400,note_off,103,0,0,,0,,,72,127
64402,note_on,2,0,0,,12,,,71,127
64505,note_off,103,0,0,,12,,,71,127
64507,note_on,2,0,0,,10,,,69,127
64610,note_off,103,0,0,,10,,,69,127
64612,note_on,2,0,0,,4,,,76,127
64715,note_off,103,0,0,,4,,,76,127
64715,note_off,0,0,0,,10,,,45,127
64717,note_on,2,0,0,,12,,,47,127
64717,note_on,0,0,0,,2,,,74,127
64820,note_off,103,0,0,,2,,,74,127
64822,note_on,2,0,0,,0,,,72,127
64925,note_off,103,0,0,,0,,,72,127
64927,note_on,2,0,0,,12,,,71,127
65030,note_off,103,0,0,,12,,,71,127
65032,note_on,2,0,0,,5,,,77,127
65135,note_off,103,0,0,,5,,,77,127
65135,note_off,0,0,0,,12,,,47,127
65137,note_on,2,0,0,,0,,,48,127
65137,note_on,0,0,0,,4,,,76,127
65240,note_off,103,0,0,,4,,,76,127
65242,note_on,2,0,0,,5,,,77,127
65345,note_off,103,0,0,,5,,,77,127
65347,note_on,2,0,0,,7,,,79,127
65450,note_off,103,0,0,,7,,,79,127
65452,note_on,2,0,0,,5,,,77,127
65555,note_off,103,0,0,,5,,,77,127
65557,note_on,2,0,0,,4,,,76,127
65660,note_off,103,0,0,,4,,,76,127
65662,note_on,2,0,0,,2,,,74,127
65765,note_off,103,0,0,,2,,,74,127
65766,note_off,1,0,0,,0,,,48,127
65767,note_on,1,0,0,,0,,,72,127
65870,note_off,103,0,0,,0,,,72,127
65872,note_on,2,0,0,,11,,,70,127
65975,note_off,103,0,0,,11,,,70,127
65977,note_on,2,0,0,,5,,,53,127
65977,note_on,0,0,0,,5,,,41,127
65977,note_on,0,0,0,,10,,,69,127
66080,note_off,103,0,0,,10,,,69,127
66082,note_on,2,0,0,,7,,,67,127
66185,note_off,103,0,0,,7,,,67,127
66187,note_on,2,0,0,,5,,,65,127
66290,note_off,103,0,0,,5,,,65,127
66292,note_on,2,0,0,,7,,,67,127
66395,note_off,103,0,0,,7,,,67,127
66397,note_on,2,0,0,,10,,,69,127
66500,note_off,103,0,0,,10,,,69,127
66502,note_on,2,0,0,,11,,,70,127
66605,note_off,103,0,0,,11,,,70,127
66607,note_on,2,0,0,,0,,,72,127
66710,note_off,103,0,0,,0,,,72,127
66712,note_on,2,0,0,,2,,,74,127
66815,note_off,103,0,0,,2,,,74,127
66815,note_off,0,0,0,,5,,,41,127
66815,note_off,0,0,0,,5,,,53,127
66817,note_on,2,0,0,,0,,,48,127
66817,note_on,0,0,0,,0,,,36,127
66817,note_on,0,0,0,,4,,,76,127
66920,note_off,103,0,0,,4,,,76,127
66922,note_on,2,0,0,,5,,,77,127
67025,note_off,103,0,0,,5,,,77,127
67027,note_on,2,0,0,,7,,,79,127
67130,note_off,103,0,0,,7,,,79,127
67132,note_on,2,0,0,,5,,,77,127
67235,note_off,103,0,0,,5,,,77,127
67237,note_on,2,0,0,,4,,,76,127
67340,note_off,103,0,0,,4,,,76,127
67342,note_on,2,0,0,,2,,,74,127
67445,note_off,103,0,0,,2,,,74,127
67447,note_on,2,0,0,,0,,,72,127
67550,note_off,103,0,0,,0,,,72,127
67552,note_on,2,0,0,,11,,,70,127
67655,note_off,103,0,0,,11,,,70,127
67655,note_off,0,0,0,,0,,,36,127
67655,note_off,0,0,0,,0,,,48,127
67657,note_on,2,0,0,,5,,,41,127
67657,note_on,0,0,0,,5,,,53,127
67657,note_on,0,0,0,,10,,,69,127
67760,note_off,103,0,0,,10,,,69,127
67762,note_on,2,0,0,,7,,,67,127
67865,note_off,103,0,0,,7,,,67,127
67867,note_on,2,0,0,,5,,,65,127
68467,note_off,600,0,0,,5,,,65,127
68503,note_off,36,0,0,,5,,,53,127
68503,note_off,0,0,0,,5,,,41,127
68522,note_on,19,0,0,,5,,,65,127
68522,note_on,0,0,0,,10,,,69,127
68522,note_on,0,0,0,,0,,,72,127
68522,note_on,0,0,0,,5,,,77,127
68522,note_on,0,0,0,,5,,,53,127
68522,note_on,0,0,0,,0,,,48,127
68522,note_on,0,0,0,,5,,,41,127
68729,note_off,207,0,0,,0,,,72,127
68729,note_off,0,0,0,,10,,,69,127
68731,note_on,2,0,0,,0,,,72,127
68834,note_off,103,0,0,,0,,,72,127
68836,note_on,2,0,0,,10,,,69,127
68936,note_off,100,0,0,,5,,,65,127
68938,note_off,2,0,0,,10,,,69,127
68940,note_on,2,0,0,,5,,,65,127
69147,note_off,207,0,0,,5,,,65,127
69148,note_off,1,0,0,,5,,,77,127
69149,note_on,1,0,0,,5,,,77,127
69356,note_off,207,0,0,,5,,,77,127
69356,note_off,0,0,0,,5,,,41,127
69356,note_off,0,0,0,,0,,,48,127
69356,note_off,0,0,0,,5,,,53,127
69358,note_on,2,0,0,,7,,,67,127
69358,note_on,0,0,0,,5,,,77,127
69358,note_on,0,0,0,,7,,,55,127
69358,note_on,0,0,0,,0,,,60,127
69358,note_on,0,0,0,,0,,,48,127
69565,note_off,207,0,0,,5,,,77,127
69567,note_on,2,0,0,,4,,,76,127
69670,note_off,103,0,0,,4,,,76,127
69672,note_on,2,0,0,,2,,,74,127
69775,note_off,103,0,0,,2,,,74,127
69777,note_on,2,0,0,,4,,,76,127
69985,note_off,208,0,0,,7,,,67,127
69986,note_on,1,0,0,,10,,,69,127
70191,note_off,205,0,0,,4,,,76,127
70193,note_off,2,0,0,,10,,,69,127
70193,note_off,0,0,0,,0,,,48,127
70193,note_off,0,0,0,,0,,,60,127
70193,note_off,0,0,0,,7,,,55,127
70195,note_on,2,0,0,,11,,,70,127
70195,note_on,0,0,0,,4,,,76,127
70195,note_on,0,0,0,,7,,,55,127
70195,note_on,0,0,0,,2,,,50,127
70195,note_on,0,0,0,,7,,,43,127
70402,note_off,207,0,0,,4,,,76,127
70402,note_off,0,0,0,,11,,,70,127
70404,note_on,2,0,0,,5,,,65,127
70404,note_on,0,0,0,,2,,,74,127
70507,note_off,103,0,0,,2,,,74,127
70509,note_on,2,0,0,,1,,,73,127
70612,note_off,103,0,0,,1,,,73,127
70612,note_off,0,0,0,,5,,,65,127
70612,note_off,0,0,0,,7,,,43,127
70612,note_off,0,0,0,,2,,,50,127
70612,note_off,0,0,0,,7,,,55,127
70614,note_on,2,0,0,,5,,,65,127
70614,note_on,0,0,0,,2,,,74,127
70614,note_on,0,0,0,,11,,,46,127
70614,note_on,0,0,0,,7,,,55,127
70821,note_off,207,0,0,,5,,,65,127
70823,note_on,2,0,0,,7,,,67,127
71028,note_off,205,0,0,,2,,,74,127
71030,note_off,2,0,0,,7,,,67,127
71030,note_off,0,0,0,,7,,,55,127
71030,note_off,0,0,0,,11,,,46,127
71032,note_on,2,0,0,,4,,,64,127
71032,note_on,0,0,0,,10,,,69,127
71032,note_on,0,0,0,,2,,,74,127
71032,note_on,0,0,0,,10,,,57,127
71032,note_on,0,0,0,,10,,,45,127
71239,note_off,207,0,0,,2,,,74,127
71241,note_on,2,0,0,,1,,,73,127
71344,note_off,103,0,0,,1,,,73,127
71346,note_on,2,0,0,,12,,,71,127
71449,note_off,103,0,0,,12,,,71,127
71451,note_on,2,0,0,,1,,,73,127
71554,note_off,103,0,0,,10,,,45,127
71554,note_off,0,0,0,,10,,,57,127
71556,note_on,2,0,0,,7,,,55,127
71659,note_off,103,0,0,,7,,,55,127
71659,note_off,0,0,0,,1,,,73,127
71660,note_off,1,0,0,,10,,,69,127
71660,note_off,0,0,0,,4,,,64,127
71661,note_on,1,0,0,,5,,,53,127
71764,note_off,103,0,0,,5,,,53,127
71766,note_on,2,0,0,,4,,,52,127
71863,note_off,97,0,0,,4,,,52,127
71879,note_on,16,0,0,,10,,,69,127
71879,note_on,0,0,0,,5,,,65,127
71879,note_on,0,0,0,,0,,,72,127
71879,note_on,0,0,0,,5,,,77,127
71879,note_on,0,0,0,,5,,,41,127
71879,note_on,0,0,0,,5,,,53,127
72086,note_off,207,0,0,,0,,,72,127
72086,note_off,0,0,0,,10,,,69,127
72088,note_on,2,0,0,,0,,,72,127
72191,note_off,103,0,0,,0,,,72,127
72193,note_on,2,0,0,,10,,,69,127
72293,note_off,100,0,0,,5,,,65,127
72295,note_off,2,0,0,,10,,,69,127
72297,note_on,2,0,0,,5,,,65,127
72505,note_off,208,0,0,,5,,,77,127
72506,note_on,1,0,0,,5,,,77,127
72711,note_off,205,0,0,,5,,,65,127
72713,note_off,2,0,0,,5,,,77,127
72713,note_off,0,0,0,,5,,,53,127
72713,note_off,0,0,0,,5,,,41,127
72715,note_on,2,0,0,,7,,,67,127
72715,note_on,0,0,0,,5,,,77,127
72715,note_on,0,0,0,,7,,,55,127
72715,note_on,0,0,0,,0,,,60,127
72715,note_on,0,0,0,,0,,,48,127
72922,note_off,207,0,0,,5,,,77,127
72924,note_on,2,0,0,,4,,,76,127
73027,note_off,103,0,0,,4,,,76,127
73029,note_on,2,0,0,,2,,,74,127
73132,note_off,103,0,0,,2,,,74,127
73134,note_on,2,0,0,,4,,,76,127
73342,note_off,208,0,0,,7,,,67,127
73343,note_on,1,0,0,,10,,,69,127
73548,note_off,205,0,0,,4,,,76,127
73550,note_off,2,0,0,,10,,,69,127
73550,note_off,0,0,0,,0,,,48,127
73550,note_off,0,0,0,,0,,,60,127
73550,note_off,0,0,0,,7,,,55,127
73552,note_on,2,0,0,,11,,,70,127
73552,note_on,0,0,0,,4,,,76,127
73552,note_on,0,0,0,,7,,,55,127
73552,note_on,0,0,0,,2,,,50,127
73552,note_on,0,0,0,,7,,,43,127
73759,note_off,207,0,0,,4,,,76,127
73759,note_off,0,0,0,,11,,,70,127
73761,note_on,2,0,0,,2,,,74,127
73761,note_on,0,0,0,,5,,,65,127
73864,note_off,103,0,0,,2,,,74,127
73866,note_on,2,0,0,,1,,,73,127
73969,note_off,103,0,0,,1,,,73,127
73969,note_off,0,0,0,,5,,,65,127
73969,note_off,0,0,0,,7,,,43,127
73969,note_off,0,0,0,,2,,,50,127
73969,note_off,0,0,0,,7,,,55,127
73971,note_on,2,0,0,,2,,,74,127
73971,note_on,0,0,0,,5,,,65,127
73971,note_on,0,0,0,,7,,,55,127
73971,note_on,0,0,0,,11,,,46,127
74178,note_off,207,0,0,,5,,,65,127
74180,note_on,2,0,0,,7,,,67,127
74385,note_off,205,0,0,,2,,,74,127
74387,note_off,2,0,0,,7,,,67,127
74387,note_off,0,0,0,,11,,,46,127
74387,note_off,0,0,0,,7,,,55,127
74389,note_on,2,0,0,,2,,,74,127
74389,note_on,0,0,0,,10,,,69,127
74389,note_on,0,0,0,,4,,,64,127
74389,note_on,0,0,0,,10,,,57,127
74389,note_on,0,0,0,,10,,,45,127
74596,note_off,207,0,0,,2,,,74,127
74598,note_on,2,0,0,,1,,,73,127
74701,note_off,103,0,0,,1,,,73,127
74703,note_on,2,0,0,,12,,,71,127
74806,note_off,103,0,0,,12,,,71,127
74808,note_on,2,0,0,,1,,,73,127
74911,note_off,103,0,0,,10,,,45,127
74911,note_off,0,0,0,,10,,,57,127
74913,note_on,2,0,0,,4,,,52,127
75016,note_off,103,0,0,,4,,,52,127
75018,note_on,2,0,0,,1,,,49,127
75121,note_off,103,0,0,,1,,,49,127
75123,note_on,2,0,0,,4,,,52,127
75226,note_off,103,0,0,,4,,,52,127
75226,note_off,0,0,0,,1,,,73,127
75227,note_off,1,0,0,,4,,,64,127
75227,note_off,0,0,0,,10,,,69,127
75228,note_on,1,0,0,,10,,,69,127
75228,note_on,0,0,0,,10,,,45,127
75331,note_off,103,0,0,,10,,,69,127
75333,note_on,2,0,0,,2,,,74,127
75436,note_off,103,0,0,,2,,,74,127
75438,note_on,2,0,0,,1,,,73,127
75541,note_off,103,0,0,,1,,,73,127
75543,note_on,2,0,0,,6,,,78,127
75646,note_off,103,0,0,,6,,,78,127
75648,note_on,2,0,0,,4,,,76,127
75751,note_off,103,0,0,,4,,,76,127
75753,note_on,2,0,0,,7,,,79,127
75856,note_off,103,0,0,,7,,,79,127
75858,note_on,2,0,0,,6,,,78,127
75961,note_off,103,0,0,,6,,,78,127
75963,note_on,2,0,0,,4,,,76,127
76066,note_off,103,0,0,,4,,,76,127
76066,note_off,0,0,0,,10,,,45,127
76068,note_on,2,0,0,,6,,,78,127
76068,note_on,0,0,0,,2,,,50,127
76171,note_off,103,0,0,,2,,,50,127
76173,note_on,2,0,0,,7,,,55,127
76276,note_off,103,0,0,,7,,,55,127
76278,note_on,2,0,0,,6,,,54,127
76381,note_off,103,0,0,,6,,,54,127
76383,note_on,2,0,0,,12,,,59,127
76486,note_off,103,0,0,,12,,,59,127
76488,note_on,2,0,0,,10,,,57,127
76591,note_off,103,0,0,,10,,,57,127
76593,note_on,2,0,0,,2,,,62,127
76696,note_off,103,0,0,,2,,,62,127
76698,note_on,2,0,0,,1,,,61,127
76801,note_off,103,0,0,,1,,,61,127
76803,note_on,2,0,0,,12,,,59,127
76906,note_off,103,0,0,,12,,,59,127
76906,note_off,0,0,0,,6,,,78,127
76908,note_on,2,0,0,,10,,,69,127
76908,note_on,0,0,0,,10,,,57,127
76908,note_on,0,0,0,,10,,,45,127
77011,note_off,103,0,0,,10,,,69,127
77013,note_on,2,0,0,,2,,,74,127
77116,note_off,103,0,0,,2,,,74,127
77118,note_on,2,0,0,,1,,,73,127
77221,note_off,103,0,0,,1,,,73,127
77223,note_on,2,0,0,,6,,,78,127
77326,note_off,103,0,0,,6,,,78,127
77328,note_on,2,0,0,,4,,,76,127
77431,note_off,103,0,0,,4,,,76,127
77433,note_on,2,0,0,,7,,,79,127
77536,note_off,103,0,0,,7,,,79,127
77538,note_on,2,0,0,,6,,,78,127
77641,note_off,103,0,0,,6,,,78,127
77643,note_on,2,0,0,,4,,,76,127
77746,note_off,103,0,0,,4,,,76,127
77746,note_off,0,0,0,,10,,,45,127
77746,note_off,0,0,0,,10,,,57,127
77748,note_on,2,0,0,,6,,,78,127
77748,note_on,0,0,0,,10,,,57,127
77748,note_on,0,0,0,,2,,,50,127
77851,note_off,103,0,0,,6,,,78,127
77853,note_on,2,0,0,,2,,,86,127
77956,note_off,103,0,0,,2,,,86,127
77958,note_on,2,0,0,,10,,,81,127
78061,note_off,103,0,0,,10,,,81,127
78063,note_on,2,0,0,,2,,,86,127
78166,note_off,103,0,0,,2,,,86,127
78168,note_on,2,0,0,,6,,,78,127
78271,note_off,103,0,0,,6,,,78,127
78273,note_on,2,0,0,,10,,,81,127
78376,note_off,103,0,0,,10,,,81,127
78378,note_on,2,0,0,,2,,,74,127
78481,note_off,103,0,0,,2,,,74,127
78483,note_on,2,0,0,,6,,,78,127
78586,note_off,103,0,0,,6,,,78,127
78586,note_off,0,0,0,,2,,,50,127
78586,note_off,0,0,0,,10,,,57,127
78588,note_on,2,0,0,,10,,,69,127
78588,note_on,0,0,0,,6,,,42,127
78691,note_off,103,0,0,,10,,,69,127
78693,note_on,2,0,0,,2,,,74,127
78796,note_off,103,0,0,,2,,,74,127
78798,note_on,2,0,0,,6,,,66,127
78901,note_off,103,0,0,,6,,,66,127
78903,note_on,2,0,0,,10,,,69,127
79006,note_off,103,0,0,,10,,,69,127
79008,note_on,2,0,0,,2,,,62,127
79111,note_off,103,0,0,,2,,,62,127
79113,note_on,2,0,0,,6,,,66,127
79216,note_off,103,0,0,,6,,,66,127
79218,note_on,2,0,0,,10,,,57,127
79321,note_off,103,0,0,,10,,,57,127
79323,note_on,2,0,0,,2,,,62,127
79426,note_off,103,0,0,,2,,,62,127
79426,note_off,0,0,0,,6,,,42,127
79428,note_on,2,0,0,,12,,,59,127
79428,note_on,0,0,0,,7,,,43,127
79531,note_off,103,0,0,,12,,,59,127
79533,note_on,2,0,0,,7,,,55,127
79636,note_off,103,0,0,,7,,,55,127
79638,note_on,2,0,0,,2,,,62,127
79741,note_off,103,0,0,,2,,,62,127
79743,note_on,2,0,0,,12,,,59,127
79846,note_off,103,0,0,,12,,,59,127
79848,note_on,2,0,0,,7,,,67,127
79951,note_off,103,0,0,,7,,,67,127
79953,note_on,2,0,0,,2,,,62,127
80056,note_off,103,0,0,,2,,,62,127
80058,note_on,2,0,0,,12,,,71,127
80161,note_off,103,0,0,,12,,,71,127
80163,note_on,2,0,0,,7,,,67,127
80266,note_off,103,0,0,,7,,,67,127
80266,note_off,0,0,0,,7,,,43,127
80268,note_on,2,0,0,,2,,,74,127
80268,note_on,0,0,0,,7,,,55,127
80371,note_off,103,0,0,,2,,,74,127
80373,note_on,2,0,0,,12,,,71,127
80476,note_off,103,0,0,,12,,,71,127
80478,note_on,2,0,0,,7,,,79,127
80581,note_off,103,0,0,,7,,,79,127
80583,note_on,2,0,0,,2,,,74,127
80686,note_off,103,0,0,,2,,,74,127
80688,note_on,2,0,0,,12,,,83,127
80791,note_off,103,0,0,,12,,,83,127
80793,note_on,2,0,0,,7,,,79,127
80896,note_off,103,0,0,,7,,,79,127
80898,note_on,2,0,0,,6,,,78,127
81001,note_off,103,0,0,,6,,,78,127
81003,note_on,2,0,0,,4,,,76,127
81106,note_off,103,0,0,,4,,,76,127
81106,note_off,0,0,0,,7,,,55,127
81108,note_on,2,0,0,,6,,,78,127
81108,note_on,0,0,0,,10,,,57,127
81108,note_on,0,0,0,,10,,,45,127
81211,note_off,103,0,0,,6,,,78,127
81213,note_on,2,0,0,,10,,,81,127
81316,note_off,103,0,0,,10,,,81,127
81318,note_on,2,0,0,,2,,,86,127
81421,note_off,103,0,0,,2,,,86,127
81423,note_on,2,0,0,,10,,,81,127
81526,note_off,103,0,0,,10,,,81,127
81528,note_on,2,0,0,,6,,,78,127
81631,note_off,103,0,0,,6,,,78,127
81633,note_on,2,0,0,,10,,,81,127
81736,note_off,103,0,0,,10,,,81,127
81738,note_on,2,0,0,,6,,,78,127
81841,note_off,103,0,0,,6,,,78,127
81843,note_on,2,0,0,,2,,,74,127
81946,note_off,103,0,0,,2,,,74,127
81946,note_off,0,0,0,,10,,,45,127
81946,note_off,0,0,0,,10,,,57,127
81948,note_on,2,0,0,,4,,,76,127
81948,note_on,0,0,0,,7,,,55,127
81948,note_on,0,0,0,,4,,,52,127
81948,note_on,0,0,0,,10,,,45,127
82051,note_off,103,0,0,,4,,,76,127
82053,note_on,2,0,0,,2,,,74,127
82156,note_off,103,0,0,,2,,,74,127
82158,note_on,2,0,0,,4,,,76,127
82261,note_off,103,0,0,,4,,,76,127
82263,note_on,2,0,0,,7,,,79,127
82366,note_off,103,0,0,,7,,,79,127
82368,note_on,2,0,0,,10,,,69,127
82471,note_off,103,0,0,,10,,,69,127
82473,note_on,2,0,0,,2,,,74,127
82576,note_off,103,0,0,,2,,,74,127
82578,note_on,2,0,0,,1,,,73,127
82681,note_off,103,0,0,,1,,,73,127
82683,note_on,2,0,0,,4,,,76,127
82786,note_off,103,0,0,,4,,,76,127
82786,note_off,0,0,0,,10,,,45,127
82786,note_off,0,0,0,,4,,,52,127
82786,note_off,0,0,0,,7,,,55,127
82788,note_on,2,0,0,,2,,,74,127
82788,note_on,0,0,0,,2,,,50,127
82891,note_off,103,0,0,,2,,,50,127
82893,note_on,2,0,0,,10,,,45,127
82996,note_off,103,0,0,,10,,,45,127
82998,note_on,2,0,0,,6,,,54,127
83101,note_off,103,0,0,,6,,,54,127
83103,note_on,2,0,0,,2,,,50,127
83206,note_off,103,0,0,,2,,,50,127
83208,note_on,2,0,0,,10,,,57,127
83311,note_off,103,0,0,,10,,,57,127
83313,note_on,2,0,0,,6,,,54,127
83416,note_off,103,0,0,,6,,,54,127
83418,note_on,2,0,0,,2,,,62,127
83521,note_off,103,0,0,,2,,,62,127
83523,note_on,2,0,0,,10,,,57,127
83626,note_off,103,0,0,,10,,,57,127
83628,note_on,2,0,0,,6,,,66,127
83731,note_off,103,0,0,,6,,,66,127
83733,note_on,2,0,0,,2,,,62,127
83836,note_off,103,0,0,,2,,,62,127
83838,note_on,2,0,0,,10,,,69,127
83941,note_off,103,0,0,,10,,,69,127
83943,note_on,2,0,0,,7,,,67,127
84046,note_off,103,0,0,,7,,,67,127
84048,note_on,2,0,0,,6,,,66,127
84151,note_off,103,0,0,,6,,,66,127
84153,note_on,2,0,0,,4,,,64,127
84256,note_off,103,0,0,,4,,,64,127
84258,note_on,2,0,0,,2,,,62,127
84361,note_off,103,0,0,,2,,,62,127
84363,note_on,2,0,0,,1,,,61,127
84466,note_off,103,0,0,,1,,,61,127
84468,note_on,2,0,0,,2,,,62,127
84571,note_off,103,0,0,,2,,,74,127
84573,note_on,2,0,0,,12,,,83,127
84676,note_off,103,0,0,,12,,,83,127
84678,note_on,2,0,0,,10,,,81,127
84781,note_off,103,0,0,,10,,,81,127
84783,note_on,2,0,0,,7,,,79,127
84886,note_off,103,0,0,,7,,,79,127
84888,note_on,2,0,0,,6,,,78,127
84991,note_off,103,0,0,,6,,,78,127
84993,note_on,2,0,0,,4,,,76,127
85096,note_off,103,0,0,,4,,,76,127
85098,note_on,2,0,0,,2,,,74,127
85201,note_off,103,0,0,,2,,,74,127
85203,note_on,2,0,0,,1,,,73,127
85306,note_off,103,0,0,,1,,,73,127
85306,note_off,0,0,0,,2,,,62,127
85308,note_on,2,0,0,,2,,,86,127
85308,note_on,0,0,0,,6,,,42,127
85411,note_off,103,0,0,,2,,,86,127
85413,note_on,2,0,0,,1,,,85,127
85516,note_off,103,0,0,,1,,,85,127
85518,note_on,2,0,0,,12,,,83,127
85621,note_off,103,0,0,,12,,,83,127
85623,note_on,2,0,0,,10,,,81,127
85726,note_off,103,0,0,,10,,,81,127
85728,note_on,2,0,0,,7,,,79,127
85831,note_off,103,0,0,,7,,,79,127
85833,note_on,2,0,0,,6,,,78,127
85936,note_off,103,0,0,,6,,,78,127
85938,note_on,2,0,0,,4,,,76,127
86041,note_off,103,0,0,,4,,,76,127
86043,note_on,2,0,0,,2,,,74,127
86146,note_off,103,0,0,,2,,,74,127
86146,note_off,0,0,0,,6,,,42,127
86148,note_on,2,0,0,,12,,,83,127
86148,note_on,0,0,0,,7,,,43,127
86251,note_off,103,0,0,,12,,,83,127
86253,note_on,2,0,0,,10,,,81,127
86356,note_off,103,0,0,,10,,,81,127
86358,note_on,2,0,0,,7,,,79,127
86461,note_off,103,0,0,,7,,,79,127
86463,note_on,2,0,0,,6,,,78,127
86566,note_off,103,0,0,,6,,,78,127
86568,note_on,2,0,0,,4,,,76,127
86671,note_off,103,0,0,,4,,,76,127
86673,note_on,2,0,0,,2,,,74,127
86776,note_off,103,0,0,,2,,,74,127
86778,note_on,2,0,0,,1,,,73,127
86881,note_off,103,0,0,,1,,,73,127
86883,note_on,2,0,0,,12,,,71,127
86986,note_off,103,0,0,,12,,,71,127
86986,note_off,0,0,0,,7,,,43,127
86988,note_on,2,0,0,,4,,,76,127
86988,note_on,0,0,0,,10,,,45,127
87091,note_off,103,0,0,,4,,,76,127
87093,note_on,2,0,0,,2,,,74,127
87196,note_off,103,0,0,,2,,,74,127
87198,note_on,2,0,0,,1,,,73,127
87301,note_off,103,0,0,,1,,,73,127
87303,note_on,2,0,0,,12,,,71,127
87406,note_off,103,0,0,,12,,,71,127
87408,note_on,2,0,0,,10,,,69,127
87511,note_off,103,0,0,,10,,,69,127
87513,note_on,2,0,0,,7,,,67,127
87616,note_off,103,0,0,,7,,,67,127
87618,note_on,2,0,0,,6,,,66,127
87721,note_off,103,0,0,,6,,,66,127
87723,note_on,2,0,0,,4,,,64,127
87826,note_off,103,0,0,,4,,,64,127
87826,note_off,0,0,0,,10,,,45,127
87828,note_on,2,0,0,,2,,,62,127
87828,note_on,0,0,0,,2,,,50,127
87931,note_off,103,0,0,,2,,,50,127
87933,note_on,2,0,0,,10,,,45,127
88036,note_off,103,0,0,,10,,,45,127
88038,note_on,2,0,0,,6,,,54,127
88141,note_off,103,0,0,,6,,,54,127
88143,note_on,2,0,0,,2,,,50,127
88246,note_off,103,0,0,,2,,,50,127
88248,note_on,2,0,0,,10,,,57,127
88351,note_off,103,0,0,,10,,,57,127
88353,note_on,2,0,0,,6,,,54,127
88456,note_off,103,0,0,,6,,,54,127
88457,note_off,1,0,0,,2,,,62,127
88458,note_on,1,0,0,,2,,,62,127
88561,note_off,103,0,0,,2,,,62,127
88563,note_on,2,0,0,,10,,,57,127
88666,note_off,103,0,0,,10,,,57,127
88668,note_on,2,0,0,,6,,,66,127
88771,note_off,103,0,0,,6,,,66,127
88773,note_on,2,0,0,,2,,,62,127
88876,note_off,103,0,0,,2,,,62,127
88878,note_on,2,0,0,,10,,,69,127
88981,note_off,103,0,0,,10,,,69,127
88983,note_on,2,0,0,,7,,,67,127
89086,note_off,103,0,0,,7,,,67,127
89088,note_on,2,0,0,,6,,,66,127
89191,note_off,103,0,0,,6,,,66,127
89193,note_on,2,0,0,,4,,,64,127
89296,note_off,103,0,0,,4,,,64,127
89298,note_on,2,0,0,,2,,,62,127
89401,note_off,103,0,0,,2,,,62,127
89403,note_on,2,0,0,,1,,,61,127
89506,note_off,103,0,0,,1,,,61,127
89508,note_on,2,0,0,,2,,,62,127
89613,note_on,105,0,0,,12,,,83,127
89716,note_off,103,0,0,,12,,,83,127
89718,note_on,2,0,0,,10,,,81,127
89821,note_off,103,0,0,,10,,,81,127
89823,note_on,2,0,0,,7,,,79,127
89926,note_off,103,0,0,,7,,,79,127
89928,note_on,2,0,0,,6,,,78,127
90031,note_off,103,0,0,,6,,,78,127
90033,note_on,2,0,0,,4,,,76,127
90136,note_off,103,0,0,,4,,,76,127
90138,note_on,2,0,0,,2,,,74,127
90241,note_off,103,0,0,,2,,,74,127
90243,note_on,2,0,0,,1,,,73,127
90346,note_off,103,0,0,,1,,,73,127
90346,note_off,0,0,0,,2,,,62,127
90348,note_on,2,0,0,,2,,,86,127
90348,note_on,0,0,0,,6,,,42,127
90451,note_off,103,0,0,,2,,,86,127
90453,note_on,2,0,0,,1,,,85,127
90556,note_off,103,0,0,,1,,,85,127
90558,note_on,2,0,0,,12,,,83,127
90661,note_off,103,0,0,,12,,,83,127
90663,note_on,2,0,0,,10,,,81,127
90766,note_off,103,0,0,,10,,,81,127
90768,note_on,2,0,0,,7,,,79,127
90871,note_off,103,0,0,,7,,,79,127
90873,note_on,2,0,0,,6,,,78,127
90976,note_off,103,0,0,,6,,,78,127
90978,note_on,2,0,0,,4,,,76,127
91081,note_off,103,0,0,,4,,,76,127
91083,note_on,2,0,0,,2,,,74,127
91186,note_off,103,0,0,,2,,,74,127
91186,note_off,0,0,0,,6,,,42,127
91188,note_on,2,0,0,,12,,,83,127
91188,note_on,0,0,0,,7,,,43,127
91291,note_off,103,0,0,,12,,,83,127
91293,note_on,2,0,0,,10,,,81,127
91396,note_off,103,0,0,,10,,,81,127
91398,note_on,2,0,0,,7,,,79,127
91501,note_off,103,0,0,,7,,,79,127
91503,note_on,2,0,0,,6,,,78,127
91606,note_off,103,0,0,,6,,,78,127
91608,note_on,2,0,0,,4,,,76,127
91711,note_off,103,0,0,,4,,,76,127
91713,note_on,2,0,0,,2,,,74,127
91816,note_off,103,0,0,,2,,,74,127
91818,note_on,2,0,0,,1,,,73,127
91921,note_off,103,0,0,,1,,,73,127
91923,note_on,2,0,0,,12,,,71,127
92026,note_off,103,0,0,,12,,,71,127
92026,note_off,0,0,0,,7,,,43,127
92028,note_on,2,0,0,,4,,,76,127
92028,note_on,0,0,0,,10,,,45,127
92131,note_off,103,0,0,,4,,,76,127
92133,note_on,2,0,0,,2,,,74,127
92236,note_off,103,0,0,,2,,,74,127
92238,note_on,2,0,0,,1,,,73,127
92341,note_off,103,0,0,,1,,,73,127
92343,note_on,2,0,0,,12,,,71,127
92446,note_off,103,0,0,,12,,,71,127
92448,note_on,2,0,0,,10,,,69,127
92551,note_off,103,0,0,,10,,,69,127
92553,note_on,2,0,0,,7,,,67,127
92656,note_off,103,0,0,,7,,,67,127
92658,note_on,2,0,0,,6,,,66,127
92761,note_off,103,0,0,,6,,,66,127
92763,note_on,2,0,0,,4,,,64,127
92866,note_off,103,0,0,,4,,,64,127
92866,note_off,0,0,0,,10,,,45,127
92868,note_on,2,0,0,,2,,,62,127
92868,note_on,0,0,0,,2,,,50,127
92868,note_on,0,0,0,,6,,,54,127
92971,note_off,103,0,0,,2,,,62,127
92973,note_on,2,0,0,,2,,,74,127
93076,note_off,103,0,0,,2,,,74,127
93076,note_off,0,0,0,,6,,,54,127
93076,note_off,0,0,0,,2,,,50,127
93078,note_on,2,0,0,,2,,,62,127
93078,note_on,0,0,0,,4,,,52,127
93078,note_on,0,0,0,,7,,,55,127
93181,note_off,103,0,0,,2,,,62,127
93183,note_on,2,0,0,,1,,,73,127
93286,note_off,103,0,0,,1,,,73,127
93286,note_off,0,0,0,,7,,,55,127
93286,note_off,0,0,0,,4,,,52,127
93288,note_on,2,0,0,,2,,,62,127
93288,note_on,0,0,0,,6,,,54,127
93288,note_on,0,0,0,,10,,,57,127
93391,note_off,103,0,0,,2,,,62,127
93393,note_on,2,0,0,,2,,,74,127
93496,note_off,103,0,0,,2,,,74,127
93496,note_off,0,0,0,,10,,,57,127
93496,note_off,0,0,0,,6,,,54,127
93498,note_on,2,0,0,,2,,,62,127
93498,note_on,0,0,0,,12,,,59,127
93498,note_on,0,0,0,,7,,,55,127
93601,note_off,103,0,0,,2,,,62,127
93603,note_on,2,0,0,,4,,,76,127
93706,note_off,103,0,0,,4,,,76,127
93706,note_off,0,0,0,,7,,,55,127
93706,note_off,0,0,0,,12,,,59,127
93708,note_on,2,0,0,,2,,,62,127
93708,note_on,0,0,0,,10,,,57,127
93708,note_on,0,0,0,,6,,,54,127
93811,note_off,103,0,0,,2,,,62,127
93813,note_on,2,0,0,,2,,,74,127
93916,note_off,103,0,0,,2,,,74,127
93916,note_off,0,0,0,,6,,,54,127
93916,note_off,0,0,0,,10,,,57,127
93918,note_on,2,0,0,,2,,,62,127
93918,note_on,0,0,0,,7,,,55,127
93918,note_on,0,0,0,,4,,,52,127
94021,note_off,103,0,0,,2,,,62,127
94023,note_on,2,0,0,,1,,,73,127
94126,note_off,103,0,0,,1,,,73,127
94126,note_off,0,0,0,,4,,,52,127
94126,note_off,0,0,0,,7,,,55,127
94128,note_on,2,0,0,,2,,,62,127
94128,note_on,0,0,0,,10,,,57,127
94128,note_on,0,0,0,,6,,,54,127
94231,note_off,103,0,0,,2,,,62,127
94233,note_on,2,0,0,,2,,,74,127
94336,note_off,103,0,0,,2,,,74,127
94336,note_off,0,0,0,,6,,,54,127
94336,note_off,0,0,0,,10,,,57,127
94338,note_on,2,0,0,,2,,,62,127
94338,note_on,0,0,0,,12,,,59,127
94338,note_on,0,0,0,,7,,,55,127
94441,note_off,103,0,0,,2,,,62,127
94443,note_on,2,0,0,,4,,,76,127
94546,note_off,103,0,0,,4,,,76,127
94546,note_off,0,0,0,,7,,,55,127
94546,note_off,0,0,0,,12,,,59,127
94548,note_on,2,0,0,,2,,,74,127
94548,note_on,0,0,0,,10,,,57,127
94548,note_on,0,0,0,,6,,,54,127
94651,note_off,103,0,0,,2,,,74,127
94653,note_on,2,0,0,,10,,,69,127
94756,note_off,103,0,0,,10,,,69,127
94756,note_off,0,0,0,,6,,,54,127
94756,note_off,0,0,0,,10,,,57,127
94758,note_on,2,0,0,,12,,,71,127
94758,note_on,0,0,0,,7,,,55,127
94861,note_off,103,0,0,,12,,,71,127
94863,note_on,2,0,0,,7,,,67,127
94966,note_off,103,0,0,,7,,,67,127
94966,note_off,0,0,0,,7,,,55,127
94968,note_on,2,0,0,,6,,,66,127
94968,note_on,0,0,0,,10,,,57,127
95071,note_off,103,0,0,,6,,,66,127
95073,note_on,2,0,0,,2,,,74,127
95176,note_off,103,0,0,,2,,,74,127
95176,note_off,0,0,0,,10,,,57,127
95178,note_on,2,0,0,,4,,,64,127
95178,note_on,0,0,0,,10,,,45,127
95281,note_off,103,0,0,,4,,,64,127
95283,note_on,2,0,0,,1,,,73,127
95386,note_off,103,0,0,,1,,,73,127
95386,note_off,0,0,0,,10,,,45,127
95388,note_on,2,0,0,,2,,,74,127
95388,note_on,0,0,0,,2,,,50,127
95491,note_off,103,0,0,,2,,,50,127
95493,note_on,2,0,0,,2,,,62,127
95596,note_off,103,0,0,,2,,,62,127
95596,note_off,0,0,0,,2,,,74,127
95598,note_on,2,0,0,,4,,,76,127
95598,note_on,0,0,0,,7,,,79,127
95598,note_on,0,0,0,,2,,,50,127
95701,note_off,103,0,0,,2,,,50,127
95703,note_on,2,0,0,,1,,,61,127
95806,note_off,103,0,0,,1,,,61,127
95806,note_off,0,0,0,,7,,,79,127
95806,note_off,0,0,0,,4,,,76,127
95808,note_on,2,0,0,,2,,,74,127
95808,note_on,0,0,0,,6,,,78,127
95808,note_on,0,0,0,,2,,,50,127
95911,note_off,103,0,0,,2,,,50,127
95913,note_on,2,0,0,,2,,,62,127
96016,note_off,103,0,0,,2,,,62,127
96016,note_off,0,0,0,,6,,,78,127
96016,note_off,0,0,0,,2,,,74,127
96018,note_on,2,0,0,,4,,,76,127
96018,note_on,0,0,0,,1,,,73,127
96018,note_on,0,0,0,,2,,,50,127
96121,note_off,103,0,0,,2,,,50,127
96123,note_on,2,0,0,,4,,,64,127
96226,note_off,103,0,0,,4,,,64,127
96226,note_off,0,0,0,,1,,,73,127
96226,note_off,0,0,0,,4,,,76,127
96228,note_on,2,0,0,,2,,,74,127
96228,note_on,0,0,0,,6,,,78,127
96228,note_on,0,0,0,,2,,,50,127
96331,note_off,103,0,0,,2,,,50,127
96333,note_on,2,0,0,,2,,,62,127
96436,note_off,103,0,0,,2,,,62,127
96436,note_off,0,0,0,,6,,,78,127
96436,note_off,0,0,0,,2,,,74,127
96438,note_on,2,0,0,,4,,,76,127
96438,note_on,0,0,0,,7,,,79,127
96438,note_on,0,0,0,,2,,,50,127
96541,note_off,103,0,0,,2,,,50,127
96543,note_on,2,0,0,,1,,,61,127
96646,note_off,103,0,0,,1,,,61,127
96646,note_off,0,0,0,,7,,,79,127
96646,note_off,0,0,0,,4,,,76,127
96648,note_on,2,0,0,,6,,,78,127
96648,note_on,0,0,0,,2,,,74,127
96648,note_on,0,0,0,,2,,,50,127
96751,note_off,103,0,0,,2,,,50,127
96753,note_on,2,0,0,,2,,,62,127
96856,note_off,103,0,0,,2,,,62,127
96856,note_off,0,0,0,,2,,,74,127
96856,note_off,0,0,0,,6,,,78,127
96858,note_on,2,0,0,,1,,,73,127
96858,note_on,0,0,0,,4,,,76,127
96858,note_on,0,0,0,,2,,,50,127
96961,note_off,103,0,0,,2,,,50,127
96963,note_on,2,0,0,,4,,,64,127
97066,note_off,103,0,0,,4,,,64,127
97066,note_off,0,0,0,,4,,,76,127
97066,note_off,0,0,0,,1,,,73,127
97068,note_on,2,0,0,,6,,,78,127
97068,note_on,0,0,0,,2,,,74,127
97068,note_on,0,0,0,,2,,,50,127
97171,note_off,103,0,0,,2,,,50,127
97173,note_on,2,0,0,,2,,,62,127
97276,note_off,103,0,0,,2,,,62,127
97276,note_off,0,0,0,,2,,,74,127
97276,note_off,0,0,0,,6,,,78,127
97278,note_on,2,0,0,,1,,,73,127
97278,note_on,0,0,0,,4,,,76,127
97278,note_on,0,0,0,,2,,,50,127
97381,note_off,103,0,0,,2,,,50,127
97383,note_on,2,0,0,,4,,,64,127
97486,note_off,103,0,0,,4,,,64,127
97486,note_off,0,0,0,,4,,,76,127
97486,note_off,0,0,0,,1,,,73,127
97488,note_on,2,0,0,,6,,,78,127
97488,note_on,0,0,0,,2,,,74,127
97488,note_on,0,0,0,,2,,,50,127
97591,note_off,103,0,0,,2,,,50,127
97593,note_on,2,0,0,,2,,,62,127
97696,note_off,103,0,0,,2,,,62,127
97696,note_off,0,0,0,,2,,,74,127
97696,note_off,0,0,0,,6,,,78,127
97698,note_on,2,0,0,,4,,,76,127
97698,note_on,0,0,0,,7,,,79,127
97698,note_on,0,0,0,,2,,,50,127
97801,note_off,103,0,0,,2,,,50,127
97803,note_on,2,0,0,,1,,,61,127
97895,note_off,92,0,0,,7,,,79,127
97895,note_off,0,0,0,,4,,,76,127
97906,note_off,11,0,0,,1,,,61,127
97908,note_on,2,0,0,,2,,,86,127
97908,note_on,0,0,0,,2,,,62,127
97908,note_on,0,0,0,,6,,,54,127
98011,note_off,103,0,0,,2,,,86,127
98013,note_on,2,0,0,,10,,,81,127
98116,note_off,103,0,0,,10,,,81,127
98116,note_off,0,0,0,,6,,,54,127
98118,note_on,2,0,0,,12,,,83,127
98118,note_on,0,0,0,,7,,,55,127
98221,note_off,103,0,0,,12,,,83,127
98223,note_on,2,0,0,,7,,,79,127
98326,note_off,103,0,0,,7,,,79,127
98326,note_off,0,0,0,,7,,,55,127
98328,note_on,2,0,0,,6,,,78,127
98328,note_on,0,0,0,,10,,,57,127
98431,note_off,103,0,0,,6,,,78,127
98433,note_on,2,0,0,,4,,,76,127
98536,note_off,103,0,0,,4,,,76,127
98536,note_off,0,0,0,,10,,,57,127
98537,note_off,1,0,0,,2,,,62,127
98538,note_on,1,0,0,,2,,,74,127
98538,note_on,0,0,0,,10,,,45,127
98641,note_off,103,0,0,,2,,,74,127
98643,note_on,2,0,0,,1,,,73,127
98746,note_off,103,0,0,,1,,,73,127
98746,note_off,0,0,0,,10,,,45,127
98748,note_on,2,0,0,,2,,,74,127
98748,note_on,0,0,0,,2,,,50,127
98851,note_off,103,0,0,,2,,,50,127
98853,note_on,2,0,0,,2,,,62,127
98956,note_off,103,0,0,,2,,,62,127
98956,note_off,0,0,0,,2,,,74,127
98958,note_on,2,0,0,,10,,,81,127
98958,note_on,0,0,0,,6,,,66,127
99061,note_off,103,0,0,,6,,,66,127
99063,note_on,2,0,0,,2,,,62,127
99166,note_off,103,0,0,,2,,,62,127
99168,note_on,2,0,0,,10,,,69,127
99271,note_off,103,0,0,,10,,,69,127
99273,note_on,2,0,0,,10,,,57,127
99376,note_off,103,0,0,,10,,,57,127
99376,note_off,0,0,0,,10,,,81,127
99378,note_on,2,0,0,,7,,,79,127
99378,note_on,0,0,0,,1,,,61,127
99481,note_off,103,0,0,,1,,,61,127
99483,note_on,2,0,0,,10,,,57,127
99586,note_off,103,0,0,,10,,,57,127
99586,note_off,0,0,0,,7,,,79,127
99588,note_on,2,0,0,,6,,,78,127
99588,note_on,0,0,0,,2,,,62,127
99691,note_off,103,0,0,,2,,,62,127
99693,note_on,2,0,0,,2,,,50,127
99796,note_off,103,0,0,,2,,,50,127
99796,note_off,0,0,0,,6,,,78,127
99798,note_on,2,0,0,,10,,,81,127
99798,note_on,0,0,0,,6,,,54,127
99901,note_off,103,0,0,,6,,,54,127
99903,note_on,2,0,0,,2,,,50,127
100006,note_off,103,0,0,,2,,,50,127
100008,note_on,2,0,0,,10,,,57,127
100111,note_off,103,0,0,,10,,,57,127
100113,note_on,2,0,0,,10,,,45,127
100216,note_off,103,0,0,,10,,,45,127
100216,note_off,0,0,0,,10,,,81,127
100218,note_on,2,0,0,,7,,,79,127
100218,note_on,0,0,0,,1,,,49,127
100321,note_off,103,0,0,,1,,,49,127
100323,note_on,2,0,0,,10,,,45,127
100426,note_off,103,0,0,,10,,,45,127
100426,note_off,0,0,0,,7,,,79,127
100428,note_on,2,0,0,,6,,,78,127
100428,note_on,0,0,0,,2,,,50,127
100531,note_off,103,0,0,,6,,,78,127
100533,note_on,2,0,0,,10,,,81,127
100636,note_off,103,0,0,,10,,,81,127
100636,note_off,0,0,0,,2,,,50,127
100638,note_on,2,0,0,,7,,,79,127
100638,note_on,0,0,0,,7,,,55,127
100741,note_off,103,0,0,,7,,,79,127
100743,note_on,2,0,0,,4,,,76,127
100846,note_off,103,0,0,,4,,,76,127
100846,note_off,0,0,0,,7,,,55,127
100848,note_on,2,0,0,,6,,,78,127
100848,note_on,0,0,0,,10,,,57,127
100951,note_off,103,0,0,,6,,,78,127
100953,note_on,2,0,0,,2,,,74,127
101056,note_off,103,0,0,,2,,,74,127
101056,note_off,0,0,0,,10,,,57,127
101058,note_on,2,0,0,,4,,,76,127
101058,note_on,0,0,0,,10,,,45,127
101161,note_off,103,0,0,,4,,,76,127
101163,note_on,2,0,0,,1,,,73,127
101266,note_off,103,0,0,,1,,,73,127
101266,note_off,0,0,0,,10,,,45,127
101268,note_on,2,0,0,,2,,,74,127
101268,note_on,0,0,0,,2,,,50,127
101371,note_off,103,0,0,,2,,,50,127
101371,note_off,0,0,0,,2,,,74,127
101373,note_on,2,0,0,,2,,,86,127
101373,note_on,0,0,0,,2,,,62,127
101476,note_off,103,0,0,,2,,,62,127
101476,note_off,0,0,0,,2,,,86,127
101478,note_on,2,0,0,,10,,,81,127
101478,note_on,0,0,0,,6,,,66,127
101581,note_off,103,0,0,,6,,,66,127
101583,note_on,2,0,0,,2,,,62,127
101686,note_off,103,0,0,,2,,,62,127
101688,note_on,2,0,0,,10,,,69,127
101791,note_off,103,0,0,,10,,,69,127
101793,note_on,2,0,0,,10,,,57,127
101896,note_off,103,0,0,,10,,,57,127
101896,note_off,0,0,0,,10,,,81,127
101898,note_on,2,0,0,,7,,,79,127
101898,note_on,0,0,0,,1,,,61,127
102001,note_off,103,0,0,,1,,,61,127
102003,note_on,2,0,0,,10,,,57,127
102106,note_off,103,0,0,,10,,,57,127
102106,note_off,0,0,0,,7,,,79,127
102108,note_on,2,0,0,,6,,,78,127
102108,note_on,0,0,0,,2,,,62,127
102211,note_off,103,0,0,,2,,,62,127
102211,note_off,0,0,0,,6,,,78,127
102213,note_on,2,0,0,,2,,,86,127
102213,note_on,0,0,0,,2,,,50,127
102316,note_off,103,0,0,,2,,,50,127
102316,note_off,0,0,0,,2,,,86,127
102318,note_on,2,0,0,,10,,,81,127
102318,note_on,0,0,0,,6,,,54,127
102421,note_off,103,0,0,,6,,,54,127
102423,note_on,2,0,0,,2,,,50,127
102526,note_off,103,0,0,,2,,,50,127
102528,note_on,2,0,0,,10,,,57,127
102631,note_off,103,0,0,,10,,,57,127
102633,note_on,2,0,0,,10,,,45,127
102736,note_off,103,0,0,,10,,,45,127
102736,note_off,0,0,0,,10,,,81,127
102738,note_on,2,0,0,,7,,,79,127
102738,note_on,0,0,0,,1,,,49,127
102841,note_off,103,0,0,,1,,,49,127
102843,note_on,2,0,0,,10,,,45,127
102946,note_off,103,0,0,,10,,,45,127
102946,note_off,0,0,0,,7,,,79,127
102948,note_on,2,0,0,,6,,,78,127
102948,note_on,0,0,0,,2,,,50,127
103051,note_off,103,0,0,,6,,,78,127
103053,note_on,2,0,0,,2,,,86,127
103156,note_off,103,0,0,,2,,,86,127
103156,note_off,0,0,0,,2,,,50,127
103158,note_on,2,0,0,,12,,,83,127
103158,note_on,0,0,0,,7,,,55,127
103261,note_off,103,0,0,,12,,,83,127
103263,note_on,2,0,0,,7,,,79,127
103366,note_off,103,0,0,,7,,,79,127
103366,note_off,0,0,0,,7,,,55,127
103368,note_on,2,0,0,,6,,,78,127
103368,note_on,0,0,0,,10,,,57,127
103471,note_off,103,0,0,,6,,,78,127
103473,note_on,2,0,0,,2,,,86,127
103576,note_off,103,0,0,,2,,,86,127
103576,note_off,0,0,0,,10,,,57,127
103578,note_on,2,0,0,,4,,,76,127
103578,note_on,0,0,0,,10,,,45,127
103681,note_off,103,0,0,,4,,,76,127
103683,note_on,2,0,0,,1,,,85,127
103786,note_off,103,0,0,,1,,,85,127
103786,note_off,0,0,0,,10,,,45,127
103788,note_on,2,0,0,,2,,,74,127
103788,note_on,0,0,0,,2,,,38,127
103891,note_off,103,0,0,,2,,,74,127
103893,note_on,2,0,0,,2,,,86,127
103996,note_off,103,0,0,,2,,,86,127
103998,note_on,2,0,0,,6,,,78,127
104101,note_off,103,0,0,,6,,,78,127
104103,note_on,2,0,0,,10,,,81,127
104206,note_off,103,0,0,,10,,,81,127
104208,note_on,2,0,0,,2,,,74,127
104311,note_off,103,0,0,,2,,,74,127
104313,note_on,2,0,0,,6,,,78,127
104416,note_off,103,0,0,,6,,,78,127
104418,note_on,2,0,0,,10,,,69,127
104521,note_off,103,0,0,,10,,,69,127
104523,note_on,2,0,0,,2,,,74,127
104626,note_off,103,0,0,,2,,,74,127
104626,note_off,0,0,0,,2,,,38,127
104628,note_on,2,0,0,,6,,,66,127
104628,note_on,0,0,0,,2,,,38,127
104731,note_off,103,0,0,,6,,,66,127
104733,note_on,2,0,0,,10,,,69,127
104836,note_off,103,0,0,,10,,,69,127
104838,note_on,2,0,0,,2,,,62,127
104941,note_off,103,0,0,,2,,,62,127
104943,note_on,2,0,0,,6,,,66,127
105046,note_off,103,0,0,,6,,,66,127
105048,note_on,2,0,0,,10,,,57,127
105151,note_off,103,0,0,,10,,,57,127
105153,note_on,2,0,0,,2,,,62,127
105256,note_off,103,0,0,,2,,,62,127
105258,note_on,2,0,0,,6,,,54,127
105361,note_off,103,0,0,,6,,,54,127
105363,note_on,2,0,0,,10,,,57,127
105464,note_off,101,0,0,,10,,,57,127
105465,note_off,1,0,0,,2,,,38,127
105476,note_on,11,0,0,,2,,,38,127
105476,note_on,0,0,0,,2,,,50,127
107571,note_off,2095,0,0,,2,,,50,127
107571,note_off,0,0,0,,2,,,38,127
109056,end_of_track,1485,1,0,,,,,,
