tick,type,time,meta,track,program,channel,pitch,tempo,note,velocity
0,copyright,0,1,0,,,,,,
0,program_change,0,0,0,6,0,,,,
0,pitchwheel,0,0,0,,0,0,,,
0,program_change,0,0,0,6,1,,,,
0,pitchwheel,0,0,0,,1,-590,,,
0,program_change,0,0,0,6,2,,,,
0,pitchwheel,0,0,0,,2,-272,,,
0,program_change,0,0,0,6,3,,,,
0,pitchwheel,0,0,0,,3,-353,,,
0,program_change,0,0,0,6,4,,,,
0,pitchwheel,0,0,0,,4,-560,,,
0,program_change,0,0,0,6,5,,,,
0,pitchwheel,0,0,0,,5,-80,,,
0,program_change,0,0,0,6,6,,,,
0,pitchwheel,0,0,0,,6,-625,,,
0,program_change,0,0,0,6,7,,,,
0,pitchwheel,0,0,0,,7,-130,,,
0,program_change,0,0,0,6,8,,,,
0,pitchwheel,0,0,0,,8,-512,,,
0,program_change,0,0,0,6,10,,,,
0,pitchwheel,0,0,0,,10,-464,,,
0,program_change,0,0,0,6,11,,,,
0,pitchwheel,0,0,0,,11,-208,,,
0,program_change,0,0,0,6,12,,,,
0,pitchwheel,0,0,0,,12,-553,,,
0,set_tempo,0,1,0,,,,500000,,
99,note_on,99,0,0,,2,,,62,127
231,note_on,132,0,0,,12,,,83,127
363,note_on,132,0,0,,10,,,81,127
372,note_off,9,0,0,,12,,,83,127
494,note_off,122,0,0,,2,,,62,127
495,note_on,1,0,0,,6,,,66,127
495,note_on,0,0,0,,10,,,69,127
626,note_off,131,0,0,,10,,,81,127
627,note_on,1,0,0,,4,,,76,127
759,note_on,132,0,0,,2,,,74,127
768,note_off,9,0,0,,4,,,76,127
890,note_off,122,0,0,,10,,,69,127
890,note_off,0,0,0,,6,,,66,127
891,note_on,1,0,0,,7,,,67,127
891,note_on,0,0,0,,12,,,71,127
923,note_off,32,0,0,,2,,,74,127
1023,note_on,100,0,0,,10,,,81,127
1155,note_on,132,0,0,,7,,,79,127
1164,note_off,9,0,0,,10,,,81,127
1286,note_off,122,0,0,,12,,,71,127
1286,note_off,0,0,0,,7,,,67,127
1287,note_on,1,0,0,,7,,,67,127
1287,note_on,0,0,0,,4,,,64,127
1418,note_off,131,0,0,,7,,,79,127
1419,note_on,1,0,0,,4,,,76,127
1551,note_on,132,0,0,,1,,,73,127
1560,note_off,9,0,0,,4,,,76,127
1682,note_off,122,0,0,,4,,,64,127
1682,note_off,0,0,0,,7,,,67,127
1683,note_on,1,0,0,,6,,,66,127
1683,note_on,0,0,0,,10,,,69,127
1715,note_off,32,0,0,,1,,,73,127
1815,note_on,100,0,0,,2,,,74,127
1947,note_on,132,0,0,,6,,,78,127
1956,note_off,9,0,0,,2,,,74,127
2078,note_off,122,0,0,,10,,,69,127
2078,note_off,0,0,0,,6,,,66,127
2079,note_on,1,0,0,,6,,,66,127
2079,note_on,0,0,0,,10,,,69,127
2174,note_off,95,0,0,,6,,,78,127
2211,note_on,37,0,0,,10,,,81,127
2342,note_off,131,0,0,,10,,,69,127
2343,note_on,1,0,0,,10,,,69,127
2352,note_off,9,0,0,,10,,,81,127
2474,note_off,122,0,0,,6,,,66,127
2475,note_on,1,0,0,,7,,,67,127
2570,note_off,95,0,0,,10,,,69,127
2607,note_on,37,0,0,,12,,,71,127
2739,note_on,132,0,0,,7,,,79,127
2748,note_off,9,0,0,,12,,,71,127
2870,note_off,122,0,0,,7,,,67,127
2871,note_on,1,0,0,,7,,,67,127
2871,note_on,0,0,0,,4,,,64,127
2966,note_off,95,0,0,,7,,,79,127
3003,note_on,37,0,0,,4,,,76,127
3135,note_on,132,0,0,,1,,,73,127
3144,note_off,9,0,0,,4,,,76,127
3266,note_off,122,0,0,,4,,,64,127
3266,note_off,0,0,0,,7,,,67,127
3267,note_on,1,0,0,,6,,,66,127
3267,note_on,0,0,0,,10,,,69,127
3299,note_off,32,0,0,,1,,,73,127
3399,note_on,100,0,0,,2,,,74,127
3531,note_on,132,0,0,,6,,,78,127
3540,note_off,9,0,0,,2,,,74,127
3662,note_off,122,0,0,,10,,,69,127
3662,note_off,0,0,0,,6,,,66,127
3663,note_on,1,0,0,,6,,,54,127
3663,note_on,0,0,0,,2,,,62,127
3758,note_off,95,0,0,,6,,,78,127
3795,note_on,37,0,0,,10,,,81,127
3927,note_on,132,0,0,,10,,,69,127
3936,note_off,9,0,0,,10,,,81,127
4058,note_off,122,0,0,,2,,,62,127
4058,note_off,0,0,0,,6,,,54,127
4059,note_on,1,0,0,,2,,,62,127
4059,note_on,0,0,0,,7,,,55,127
4154,note_off,95,0,0,,10,,,69,127
4191,note_on,37,0,0,,12,,,71,127
4323,note_on,132,0,0,,7,,,79,127
4332,note_off,9,0,0,,12,,,71,127
4454,note_off,122,0,0,,7,,,55,127
4454,note_off,0,0,0,,2,,,62,127
4455,note_on,1,0,0,,10,,,57,127
4455,note_on,0,0,0,,4,,,64,127
4550,note_off,95,0,0,,7,,,79,127
4587,note_on,37,0,0,,4,,,76,127
4719,note_on,132,0,0,,1,,,73,127
4728,note_off,9,0,0,,4,,,76,127
4850,note_off,122,0,0,,4,,,64,127
4850,note_off,0,0,0,,10,,,57,127
4851,note_off,1,0,0,,1,,,73,127
4851,note_on,0,0,0,,2,,,62,127
4851,note_on,0,0,0,,2,,,50,127
4983,note_on,132,0,0,,10,,,69,127
5115,note_on,132,0,0,,6,,,78,127
5124,note_off,9,0,0,,10,,,69,127
5246,note_off,122,0,0,,2,,,50,127
5246,note_off,0,0,0,,2,,,62,127
5247,note_on,1,0,0,,1,,,49,127
5247,note_on,0,0,0,,10,,,57,127
5378,note_off,131,0,0,,6,,,78,127
5379,note_on,1,0,0,,7,,,79,127
5511,note_on,132,0,0,,4,,,76,127
5520,note_off,9,0,0,,7,,,79,127
5642,note_off,122,0,0,,10,,,57,127
5642,note_off,0,0,0,,1,,,49,127
5643,note_on,1,0,0,,2,,,50,127
5643,note_on,0,0,0,,10,,,57,127
5675,note_off,32,0,0,,4,,,76,127
5775,note_on,100,0,0,,10,,,69,127
5907,note_on,132,0,0,,6,,,78,127
5916,note_off,9,0,0,,10,,,69,127
6038,note_off,122,0,0,,10,,,57,127
6038,note_off,0,0,0,,2,,,50,127
6039,note_on,1,0,0,,1,,,49,127
6039,note_on,0,0,0,,10,,,57,127
6170,note_off,131,0,0,,6,,,78,127
6171,note_on,1,0,0,,7,,,79,127
6303,note_on,132,0,0,,4,,,76,127
6312,note_off,9,0,0,,7,,,79,127
6434,note_off,122,0,0,,10,,,57,127
6434,note_off,0,0,0,,1,,,49,127
6435,note_on,1,0,0,,2,,,50,127
6435,note_on,0,0,0,,10,,,57,127
6467,note_off,32,0,0,,4,,,76,127
6567,note_on,100,0,0,,6,,,78,127
6699,note_on,132,0,0,,10,,,81,127
6708,note_off,9,0,0,,6,,,78,127
6830,note_off,122,0,0,,10,,,57,127
6830,note_off,0,0,0,,2,,,50,127
6831,note_on,1,0,0,,1,,,49,127
6831,note_on,0,0,0,,10,,,57,127
6962,note_off,131,0,0,,10,,,81,127
6963,note_on,1,0,0,,4,,,76,127
7095,note_on,132,0,0,,10,,,81,127
7104,note_off,9,0,0,,4,,,76,127
7226,note_off,122,0,0,,10,,,57,127
7226,note_off,0,0,0,,1,,,49,127
7227,note_on,1,0,0,,12,,,47,127
7227,note_on,0,0,0,,10,,,57,127
7358,note_off,131,0,0,,10,,,81,127
7359,note_on,1,0,0,,2,,,74,127
7491,note_on,132,0,0,,10,,,81,127
7500,note_off,9,0,0,,2,,,74,127
7622,note_off,122,0,0,,10,,,57,127
7622,note_off,0,0,0,,12,,,47,127
7623,note_on,1,0,0,,10,,,45,127
7623,note_on,0,0,0,,10,,,57,127
7754,note_off,131,0,0,,10,,,81,127
7755,note_on,1,0,0,,1,,,73,127
7887,note_on,132,0,0,,10,,,81,127
7896,note_off,9,0,0,,1,,,73,127
8018,note_off,122,0,0,,10,,,57,127
8018,note_off,0,0,0,,10,,,45,127
8019,note_on,1,0,0,,2,,,50,127
8019,note_on,0,0,0,,10,,,57,127
8114,note_off,95,0,0,,10,,,81,127
8151,note_on,37,0,0,,6,,,78,127
8283,note_on,132,0,0,,2,,,74,127
8292,note_off,9,0,0,,6,,,78,127
8414,note_off,122,0,0,,10,,,57,127
8414,note_off,0,0,0,,2,,,50,127
8415,note_on,1,0,0,,10,,,57,127
8415,note_on,0,0,0,,6,,,54,127
8531,note_off,116,0,0,,2,,,74,127
8548,note_on,17,0,0,,12,,,71,127
8680,note_on,132,0,0,,10,,,69,127
8689,note_off,9,0,0,,12,,,71,127
8811,note_off,122,0,0,,6,,,54,127
8811,note_off,0,0,0,,10,,,57,127
8812,note_off,1,0,0,,10,,,69,127
8812,note_on,0,0,0,,4,,,52,127
8812,note_on,0,0,0,,12,,,59,127
8944,note_on,132,0,0,,3,,,75,127
9076,note_on,132,0,0,,4,,,76,127
9085,note_off,9,0,0,,3,,,75,127
9207,note_off,122,0,0,,12,,,59,127
9207,note_off,0,0,0,,4,,,52,127
9208,note_on,1,0,0,,8,,,56,127
9208,note_on,0,0,0,,12,,,59,127
9324,note_off,116,0,0,,4,,,76,127
9341,note_on,17,0,0,,2,,,74,127
9473,note_on,132,0,0,,12,,,71,127
9482,note_off,9,0,0,,2,,,74,127
9604,note_off,122,0,0,,12,,,59,127
9604,note_off,0,0,0,,8,,,56,127
9605,note_on,1,0,0,,10,,,57,127
9700,note_off,95,0,0,,12,,,71,127
9737,note_on,37,0,0,,1,,,73,127
9869,note_on,132,0,0,,8,,,68,127
9878,note_off,9,0,0,,1,,,73,127
10000,note_off,122,0,0,,10,,,57,127
10001,note_on,1,0,0,,1,,,49,127
10107,note_off,106,0,0,,8,,,68,127
10134,note_on,27,0,0,,10,,,69,127
10266,note_on,132,0,0,,4,,,64,127
10275,note_off,9,0,0,,10,,,69,127
10397,note_off,122,0,0,,1,,,49,127
10398,note_on,1,0,0,,2,,,50,127
10504,note_off,106,0,0,,4,,,64,127
10531,note_on,27,0,0,,6,,,66,127
10663,note_on,132,0,0,,2,,,62,127
10672,note_off,9,0,0,,6,,,66,127
10794,note_off,122,0,0,,2,,,50,127
10795,note_on,1,0,0,,8,,,44,127
10901,note_off,106,0,0,,2,,,62,127
10928,note_on,27,0,0,,4,,,64,127
11060,note_on,132,0,0,,12,,,59,127
11069,note_off,9,0,0,,4,,,64,127
11191,note_off,122,0,0,,8,,,44,127
11192,note_on,1,0,0,,10,,,45,127
11323,note_off,131,0,0,,12,,,59,127
11324,note_on,1,0,0,,12,,,59,127
11456,note_on,132,0,0,,1,,,61,127
11465,note_off,9,0,0,,12,,,59,127
11587,note_off,122,0,0,,10,,,45,127
11588,note_on,1,0,0,,12,,,47,127
11588,note_on,0,0,0,,8,,,56,127
11719,note_off,131,0,0,,1,,,61,127
11720,note_on,1,0,0,,1,,,61,127
11852,note_on,132,0,0,,2,,,62,127
11861,note_off,9,0,0,,1,,,61,127
11983,note_off,122,0,0,,8,,,56,127
11983,note_off,0,0,0,,12,,,47,127
11984,note_on,1,0,0,,10,,,57,127
11984,note_on,0,0,0,,1,,,49,127
12079,note_off,95,0,0,,2,,,62,127
12116,note_on,37,0,0,,3,,,63,127
12248,note_on,132,0,0,,4,,,64,127
12257,note_off,9,0,0,,3,,,63,127
12379,note_off,122,0,0,,1,,,49,127
12379,note_off,0,0,0,,10,,,57,127
12380,note_on,1,0,0,,2,,,50,127
12380,note_on,0,0,0,,12,,,59,127
12511,note_off,131,0,0,,4,,,64,127
12512,note_on,1,0,0,,4,,,64,127
12644,note_on,132,0,0,,6,,,66,127
12653,note_off,9,0,0,,4,,,64,127
12775,note_off,122,0,0,,12,,,59,127
12775,note_off,0,0,0,,2,,,50,127
12776,note_on,1,0,0,,4,,,52,127
12776,note_on,0,0,0,,1,,,61,127
12907,note_off,131,0,0,,6,,,66,127
12908,note_on,1,0,0,,6,,,66,127
13040,note_on,132,0,0,,8,,,68,127
13049,note_off,9,0,0,,6,,,66,127
13171,note_off,122,0,0,,1,,,61,127
13171,note_off,0,0,0,,4,,,52,127
13172,note_on,1,0,0,,6,,,54,127
13172,note_on,0,0,0,,2,,,62,127
13303,note_off,131,0,0,,8,,,68,127
13304,note_on,1,0,0,,8,,,68,127
13436,note_on,132,0,0,,10,,,69,127
13445,note_off,9,0,0,,8,,,68,127
13567,note_off,122,0,0,,2,,,62,127
13567,note_off,0,0,0,,6,,,54,127
13568,note_on,1,0,0,,8,,,56,127
13568,note_on,0,0,0,,4,,,64,127
13663,note_off,95,0,0,,10,,,69,127
13700,note_on,37,0,0,,11,,,70,127
13832,note_on,132,0,0,,12,,,71,127
13841,note_off,9,0,0,,11,,,70,127
13963,note_off,122,0,0,,4,,,64,127
13963,note_off,0,0,0,,8,,,56,127
13964,note_on,1,0,0,,10,,,57,127
13964,note_on,0,0,0,,6,,,66,127
14095,note_off,131,0,0,,12,,,71,127
14096,note_on,1,0,0,,12,,,71,127
14228,note_on,132,0,0,,1,,,73,127
14237,note_off,9,0,0,,12,,,71,127
14359,note_off,122,0,0,,6,,,66,127
14359,note_off,0,0,0,,10,,,57,127
14360,note_on,1,0,0,,12,,,59,127
14360,note_on,0,0,0,,8,,,68,127
14491,note_off,131,0,0,,1,,,73,127
14492,note_on,1,0,0,,1,,,73,127
14624,note_on,132,0,0,,2,,,74,127
14633,note_off,9,0,0,,1,,,73,127
14755,note_off,122,0,0,,8,,,68,127
14755,note_off,0,0,0,,12,,,59,127
14756,note_on,1,0,0,,1,,,61,127
14756,note_on,0,0,0,,10,,,69,127
14851,note_off,95,0,0,,2,,,74,127
14888,note_on,37,0,0,,3,,,75,127
15020,note_on,132,0,0,,4,,,76,127
15029,note_off,9,0,0,,3,,,75,127
15151,note_off,122,0,0,,10,,,69,127
15151,note_off,0,0,0,,1,,,61,127
15152,note_on,1,0,0,,2,,,62,127
15152,note_on,0,0,0,,6,,,66,127
15283,note_off,131,0,0,,4,,,76,127
15284,note_on,1,0,0,,4,,,76,127
15416,note_on,132,0,0,,6,,,78,127
15425,note_off,9,0,0,,4,,,76,127
15547,note_off,122,0,0,,6,,,66,127
15547,note_off,0,0,0,,2,,,62,127
15548,note_on,1,0,0,,2,,,62,127
15548,note_on,0,0,0,,12,,,59,127
15679,note_off,131,0,0,,6,,,78,127
15680,note_on,1,0,0,,6,,,78,127
15812,note_on,132,0,0,,8,,,80,127
15821,note_off,9,0,0,,6,,,78,127
15943,note_off,122,0,0,,12,,,59,127
15943,note_off,0,0,0,,2,,,62,127
15944,note_off,1,0,0,,8,,,80,127
15944,note_on,0,0,0,,1,,,61,127
15944,note_on,0,0,0,,4,,,64,127
16076,note_on,132,0,0,,12,,,83,127
16208,note_on,132,0,0,,10,,,81,127
16217,note_off,9,0,0,,12,,,83,127
16339,note_off,122,0,0,,4,,,64,127
16339,note_off,0,0,0,,1,,,61,127
16340,note_on,1,0,0,,1,,,49,127
16340,note_on,0,0,0,,10,,,57,127
16456,note_off,116,0,0,,10,,,81,127
16473,note_on,17,0,0,,6,,,78,127
16605,note_on,132,0,0,,4,,,76,127
16614,note_off,9,0,0,,6,,,78,127
16736,note_off,122,0,0,,10,,,57,127
16736,note_off,0,0,0,,1,,,49,127
16737,note_on,1,0,0,,2,,,50,127
16737,note_on,0,0,0,,10,,,57,127
16737,note_on,0,0,0,,12,,,59,127
16853,note_off,116,0,0,,4,,,76,127
16870,note_on,17,0,0,,2,,,74,127
17002,note_on,132,0,0,,12,,,71,127
17011,note_off,9,0,0,,2,,,74,127
17133,note_off,122,0,0,,12,,,59,127
17133,note_off,0,0,0,,10,,,57,127
17133,note_off,0,0,0,,2,,,50,127
17134,note_on,1,0,0,,4,,,52,127
17134,note_on,0,0,0,,12,,,59,127
17265,note_off,131,0,0,,12,,,71,127
17266,note_on,1,0,0,,12,,,71,127
17398,note_on,132,0,0,,8,,,68,127
17407,note_off,9,0,0,,12,,,71,127
17529,note_off,122,0,0,,12,,,59,127
17529,note_off,0,0,0,,4,,,52,127
17530,note_off,1,0,0,,8,,,68,127
17530,note_on,0,0,0,,6,,,54,127
17530,note_on,0,0,0,,10,,,57,127
17662,note_on,132,0,0,,12,,,83,127
17794,note_on,132,0,0,,10,,,81,127
17803,note_off,9,0,0,,12,,,83,127
17925,note_off,122,0,0,,10,,,57,127
17925,note_off,0,0,0,,6,,,54,127
17926,note_on,1,0,0,,10,,,57,127
17926,note_on,0,0,0,,1,,,49,127
18021,note_off,95,0,0,,10,,,81,127
18058,note_on,37,0,0,,6,,,78,127
18190,note_on,132,0,0,,4,,,76,127
18199,note_off,9,0,0,,6,,,78,127
18321,note_off,122,0,0,,1,,,49,127
18321,note_off,0,0,0,,10,,,57,127
18322,note_on,1,0,0,,2,,,50,127
18322,note_on,0,0,0,,12,,,59,127
18322,note_on,0,0,0,,10,,,57,127
18417,note_off,95,0,0,,4,,,76,127
18454,note_on,37,0,0,,2,,,74,127
18586,note_on,132,0,0,,12,,,71,127
18595,note_off,9,0,0,,2,,,74,127
18717,note_off,122,0,0,,10,,,57,127
18717,note_off,0,0,0,,12,,,59,127
18717,note_off,0,0,0,,2,,,50,127
18718,note_on,1,0,0,,12,,,47,127
18718,note_on,0,0,0,,8,,,56,127
18849,note_off,131,0,0,,12,,,71,127
18850,note_on,1,0,0,,12,,,71,127
18982,note_on,132,0,0,,8,,,68,127
18991,note_off,9,0,0,,12,,,71,127
19113,note_off,122,0,0,,8,,,56,127
19113,note_off,0,0,0,,12,,,47,127
19114,note_off,1,0,0,,8,,,68,127
19114,note_on,0,0,0,,1,,,49,127
19114,note_on,0,0,0,,10,,,57,127
19246,note_on,132,0,0,,6,,,78,127
19378,note_on,132,0,0,,4,,,76,127
19387,note_off,9,0,0,,6,,,78,127
19509,note_off,122,0,0,,10,,,57,127
19509,note_off,0,0,0,,1,,,49,127
19510,note_on,1,0,0,,1,,,49,127
19510,note_on,0,0,0,,10,,,57,127
19626,note_off,116,0,0,,4,,,76,127
19643,note_on,17,0,0,,1,,,73,127
19775,note_on,132,0,0,,10,,,69,127
19784,note_off,9,0,0,,1,,,73,127
19906,note_off,122,0,0,,10,,,57,127
19906,note_off,0,0,0,,1,,,49,127
19907,note_on,1,0,0,,2,,,50,127
20023,note_off,116,0,0,,10,,,69,127
20040,note_on,17,0,0,,6,,,66,127
20172,note_on,132,0,0,,2,,,62,127
20181,note_off,9,0,0,,6,,,66,127
20303,note_off,122,0,0,,2,,,50,127
20304,note_on,1,0,0,,4,,,52,127
20304,note_on,0,0,0,,4,,,40,127
20420,note_off,116,0,0,,2,,,62,127
20437,note_on,17,0,0,,12,,,59,127
20569,note_on,132,0,0,,8,,,56,127
20578,note_off,9,0,0,,12,,,59,127
20700,note_off,122,0,0,,4,,,40,127
20700,note_off,0,0,0,,4,,,52,127
20701,note_on,1,0,0,,10,,,45,127
20701,note_on,0,0,0,,10,,,57,127
20733,note_off,32,0,0,,8,,,56,127
20833,note_on,100,0,0,,6,,,66,127
20965,note_on,132,0,0,,4,,,64,127
20974,note_off,9,0,0,,6,,,66,127
21096,note_off,122,0,0,,10,,,57,127
21096,note_off,0,0,0,,10,,,45,127
21097,note_on,1,0,0,,1,,,49,127
21097,note_on,0,0,0,,10,,,57,127
21192,note_off,95,0,0,,4,,,64,127
21229,note_on,37,0,0,,12,,,71,127
21361,note_on,132,0,0,,10,,,69,127
21370,note_off,9,0,0,,12,,,71,127
21492,note_off,122,0,0,,10,,,57,127
21492,note_off,0,0,0,,1,,,49,127
21493,note_on,1,0,0,,2,,,50,127
21609,note_off,116,0,0,,10,,,69,127
21626,note_on,17,0,0,,11,,,70,127
21758,note_on,132,0,0,,12,,,71,127
21767,note_off,9,0,0,,11,,,70,127
21889,note_off,122,0,0,,2,,,50,127
21890,note_on,1,0,0,,2,,,38,127
21890,note_on,0,0,0,,2,,,50,127
22021,note_off,131,0,0,,12,,,71,127
22022,note_on,1,0,0,,12,,,83,127
22154,note_on,132,0,0,,10,,,81,127
22163,note_off,9,0,0,,12,,,83,127
22285,note_off,122,0,0,,2,,,50,127
22285,note_off,0,0,0,,2,,,38,127
22286,note_on,1,0,0,,4,,,40,127
22286,note_on,0,0,0,,4,,,52,127
22417,note_off,131,0,0,,10,,,81,127
22418,note_on,1,0,0,,8,,,80,127
22549,note_off,131,0,0,,8,,,80,127
22550,note_on,1,0,0,,6,,,78,127
22681,note_off,131,0,0,,4,,,52,127
22681,note_off,0,0,0,,4,,,40,127
22682,note_on,1,0,0,,4,,,40,127
22682,note_on,0,0,0,,4,,,52,127
22813,note_off,131,0,0,,6,,,78,127
22814,note_on,1,0,0,,4,,,76,127
22945,note_off,131,0,0,,4,,,76,127
22946,note_on,1,0,0,,2,,,74,127
23077,note_off,131,0,0,,2,,,74,127
23077,note_off,0,0,0,,4,,,52,127
23077,note_off,0,0,0,,4,,,40,127
23078,note_on,1,0,0,,10,,,45,127
23078,note_on,0,0,0,,10,,,57,127
23078,note_on,0,0,0,,1,,,73,127
23209,note_off,131,0,0,,1,,,73,127
23210,note_on,1,0,0,,6,,,78,127
23341,note_off,131,0,0,,6,,,78,127
23342,note_on,1,0,0,,4,,,76,127
23473,note_off,131,0,0,,10,,,57,127
23473,note_off,0,0,0,,10,,,45,127
23474,note_on,1,0,0,,1,,,49,127
23474,note_on,0,0,0,,10,,,57,127
23506,note_off,32,0,0,,4,,,76,127
23606,note_on,100,0,0,,1,,,73,127
23737,note_off,131,0,0,,1,,,73,127
23738,note_on,1,0,0,,10,,,69,127
23869,note_off,131,0,0,,10,,,69,127
23869,note_off,0,0,0,,10,,,57,127
23869,note_off,0,0,0,,1,,,49,127
23870,note_on,1,0,0,,2,,,50,127
23870,note_on,0,0,0,,10,,,57,127
23870,note_on,0,0,0,,6,,,66,127
24001,note_off,131,0,0,,6,,,66,127
24002,note_on,1,0,0,,2,,,74,127
24133,note_off,131,0,0,,2,,,74,127
24134,note_on,1,0,0,,12,,,71,127
24265,note_off,131,0,0,,10,,,57,127
24265,note_off,0,0,0,,2,,,50,127
24266,note_on,1,0,0,,4,,,52,127
24397,note_off,131,0,0,,12,,,71,127
24398,note_on,1,0,0,,4,,,76,127
24529,note_off,131,0,0,,4,,,76,127
24530,note_on,1,0,0,,8,,,68,127
24661,note_off,131,0,0,,8,,,68,127
24661,note_off,0,0,0,,4,,,52,127
24662,note_on,1,0,0,,10,,,45,127
24662,note_on,0,0,0,,10,,,69,127
24793,note_off,131,0,0,,10,,,69,127
24794,note_on,1,0,0,,6,,,78,127
24925,note_off,131,0,0,,6,,,78,127
24926,note_on,1,0,0,,4,,,76,127
25057,note_off,131,0,0,,10,,,45,127
25058,note_on,1,0,0,,1,,,37,127
25189,note_off,131,0,0,,4,,,76,127
25190,note_on,1,0,0,,1,,,73,127
25321,note_off,131,0,0,,1,,,73,127
25322,note_on,1,0,0,,10,,,69,127
25453,note_off,131,0,0,,10,,,69,127
25453,note_off,0,0,0,,1,,,37,127
25454,note_on,1,0,0,,2,,,38,127
25454,note_on,0,0,0,,6,,,66,127
25585,note_off,131,0,0,,6,,,66,127
25586,note_on,1,0,0,,2,,,74,127
25717,note_off,131,0,0,,2,,,74,127
25718,note_on,1,0,0,,1,,,73,127
25849,note_off,131,0,0,,1,,,73,127
25849,note_off,0,0,0,,2,,,38,127
25850,note_on,1,0,0,,4,,,40,127
25850,note_on,0,0,0,,12,,,71,127
25981,note_off,131,0,0,,12,,,71,127
25982,note_on,1,0,0,,4,,,76,127
26113,note_off,131,0,0,,4,,,76,127
26114,note_on,1,0,0,,8,,,68,127
26245,note_off,131,0,0,,8,,,68,127
26245,note_off,0,0,0,,4,,,40,127
26246,note_on,1,0,0,,10,,,33,127
26246,note_on,0,0,0,,10,,,69,127
26639,note_off,393,0,0,,10,,,69,127
26639,note_off,0,0,0,,10,,,33,127
26643,note_on,4,0,0,,4,,,76,127
26643,note_on,0,0,0,,1,,,73,127
26775,note_on,132,0,0,,10,,,69,127
26906,note_off,131,0,0,,10,,,69,127
26907,note_on,1,0,0,,7,,,67,127
27038,note_off,131,0,0,,1,,,73,127
27038,note_off,0,0,0,,4,,,76,127
27039,note_on,1,0,0,,4,,,76,127
27039,note_on,0,0,0,,1,,,73,127
27134,note_off,95,0,0,,7,,,67,127
27171,note_on,37,0,0,,7,,,67,127
27302,note_off,131,0,0,,7,,,67,127
27303,note_on,1,0,0,,6,,,66,127
27434,note_off,131,0,0,,1,,,73,127
27434,note_off,0,0,0,,4,,,76,127
27435,note_on,1,0,0,,6,,,78,127
27435,note_on,0,0,0,,2,,,74,127
27530,note_off,95,0,0,,6,,,66,127
27567,note_on,37,0,0,,6,,,66,127
27698,note_off,131,0,0,,6,,,66,127
27699,note_on,1,0,0,,4,,,64,127
27830,note_off,131,0,0,,2,,,74,127
27830,note_off,0,0,0,,6,,,78,127
27831,note_on,1,0,0,,4,,,76,127
27831,note_on,0,0,0,,7,,,79,127
27926,note_off,95,0,0,,4,,,64,127
27963,note_on,37,0,0,,4,,,64,127
28094,note_off,131,0,0,,4,,,64,127
28095,note_on,1,0,0,,2,,,62,127
28226,note_off,131,0,0,,7,,,79,127
28226,note_off,0,0,0,,4,,,76,127
28227,note_on,1,0,0,,2,,,74,127
28227,note_on,0,0,0,,6,,,78,127
28322,note_off,95,0,0,,2,,,62,127
28359,note_on,37,0,0,,2,,,62,127
28490,note_off,131,0,0,,2,,,62,127
28491,note_on,1,0,0,,1,,,61,127
28622,note_off,131,0,0,,6,,,78,127
28622,note_off,0,0,0,,2,,,74,127
28623,note_on,1,0,0,,1,,,73,127
28623,note_on,0,0,0,,4,,,76,127
28718,note_off,95,0,0,,1,,,61,127
28755,note_on,37,0,0,,1,,,61,127
28886,note_off,131,0,0,,1,,,61,127
28887,note_on,1,0,0,,12,,,59,127
29018,note_off,131,0,0,,4,,,76,127
29018,note_off,0,0,0,,1,,,73,127
29019,note_on,1,0,0,,2,,,74,127
29019,note_on,0,0,0,,12,,,71,127
29114,note_off,95,0,0,,12,,,59,127
29151,note_on,37,0,0,,12,,,59,127
29282,note_off,131,0,0,,12,,,59,127
29283,note_on,1,0,0,,6,,,54,127
29414,note_off,131,0,0,,12,,,71,127
29414,note_off,0,0,0,,2,,,74,127
29415,note_on,1,0,0,,1,,,73,127
29415,note_on,0,0,0,,11,,,70,127
29510,note_off,95,0,0,,6,,,54,127
29547,note_on,37,0,0,,6,,,54,127
29678,note_off,131,0,0,,6,,,54,127
29679,note_on,1,0,0,,12,,,47,127
29810,note_off,131,0,0,,11,,,70,127
29810,note_off,0,0,0,,1,,,73,127
29811,note_on,1,0,0,,12,,,71,127
29811,note_on,0,0,0,,2,,,74,127
29906,note_off,95,0,0,,12,,,47,127
29943,note_on,37,0,0,,12,,,59,127
30074,note_off,131,0,0,,12,,,59,127
30075,note_on,1,0,0,,10,,,57,127
30206,note_off,131,0,0,,2,,,74,127
30206,note_off,0,0,0,,12,,,71,127
30207,note_on,1,0,0,,6,,,66,127
30207,note_on,0,0,0,,2,,,74,127
30302,note_off,95,0,0,,10,,,57,127
30339,note_on,37,0,0,,10,,,57,127
30470,note_off,131,0,0,,10,,,57,127
30471,note_on,1,0,0,,8,,,56,127
30602,note_off,131,0,0,,2,,,74,127
30602,note_off,0,0,0,,6,,,66,127
30603,note_on,1,0,0,,2,,,74,127
30603,note_on,0,0,0,,4,,,64,127
30698,note_off,95,0,0,,8,,,56,127
30735,note_on,37,0,0,,8,,,56,127
30866,note_off,131,0,0,,8,,,56,127
30867,note_on,1,0,0,,6,,,54,127
30998,note_off,131,0,0,,4,,,64,127
30998,note_off,0,0,0,,2,,,74,127
30999,note_on,1,0,0,,2,,,74,127
30999,note_on,0,0,0,,10,,,69,127
31094,note_off,95,0,0,,6,,,54,127
31131,note_on,37,0,0,,6,,,54,127
31262,note_off,131,0,0,,6,,,54,127
31263,note_on,1,0,0,,4,,,52,127
31394,note_off,131,0,0,,10,,,69,127
31394,note_off,0,0,0,,2,,,74,127
31395,note_on,1,0,0,,2,,,74,127
31395,note_on,0,0,0,,8,,,68,127
31490,note_off,95,0,0,,4,,,52,127
31527,note_on,37,0,0,,4,,,52,127
31658,note_off,131,0,0,,4,,,52,127
31659,note_on,1,0,0,,2,,,50,127
31790,note_off,131,0,0,,8,,,68,127
31790,note_off,0,0,0,,2,,,74,127
31791,note_on,1,0,0,,8,,,68,127
31791,note_on,0,0,0,,6,,,78,127
31886,note_off,95,0,0,,2,,,50,127
31923,note_on,37,0,0,,2,,,50,127
32054,note_off,131,0,0,,2,,,50,127
32055,note_on,1,0,0,,1,,,49,127
32186,note_off,131,0,0,,6,,,78,127
32186,note_off,0,0,0,,8,,,68,127
32187,note_on,1,0,0,,10,,,69,127
32187,note_on,0,0,0,,4,,,76,127
32282,note_off,95,0,0,,1,,,49,127
32319,note_on,37,0,0,,1,,,49,127
32450,note_off,131,0,0,,1,,,49,127
32451,note_on,1,0,0,,12,,,47,127
32582,note_off,131,0,0,,4,,,76,127
32582,note_off,0,0,0,,10,,,69,127
32583,note_on,1,0,0,,2,,,74,127
32583,note_on,0,0,0,,12,,,71,127
32678,note_off,95,0,0,,12,,,47,127
32715,note_on,37,0,0,,12,,,47,127
32846,note_off,131,0,0,,12,,,47,127
32847,note_on,1,0,0,,10,,,45,127
32978,note_off,131,0,0,,12,,,71,127
32978,note_off,0,0,0,,2,,,74,127
32979,note_on,1,0,0,,10,,,69,127
32979,note_on,0,0,0,,1,,,73,127
33074,note_off,95,0,0,,10,,,45,127
33111,note_on,37,0,0,,10,,,57,127
33242,note_off,131,0,0,,10,,,57,127
33243,note_on,1,0,0,,7,,,55,127
33374,note_off,131,0,0,,1,,,73,127
33374,note_off,0,0,0,,10,,,69,127
33375,note_on,1,0,0,,1,,,73,127
33375,note_on,0,0,0,,10,,,69,127
33470,note_off,95,0,0,,7,,,55,127
33507,note_on,37,0,0,,7,,,55,127
33638,note_off,131,0,0,,7,,,55,127
33639,note_on,1,0,0,,6,,,54,127
33770,note_off,131,0,0,,10,,,69,127
33770,note_off,0,0,0,,1,,,73,127
33771,note_on,1,0,0,,2,,,74,127
33771,note_on,0,0,0,,10,,,69,127
33866,note_off,95,0,0,,6,,,54,127
33903,note_on,37,0,0,,6,,,54,127
34034,note_off,131,0,0,,6,,,54,127
34035,note_on,1,0,0,,4,,,52,127
34166,note_off,131,0,0,,10,,,69,127
34166,note_off,0,0,0,,2,,,74,127
34167,note_on,1,0,0,,1,,,73,127
34167,note_on,0,0,0,,4,,,76,127
34262,note_off,95,0,0,,4,,,52,127
34299,note_on,37,0,0,,4,,,52,127
34430,note_off,131,0,0,,4,,,52,127
34431,note_on,1,0,0,,2,,,50,127
34528,note_off,97,0,0,,4,,,76,127
34528,note_off,0,0,0,,1,,,73,127
34563,note_off,35,0,0,,2,,,50,127
34563,note_on,0,0,0,,2,,,74,127
34563,note_on,0,0,0,,6,,,78,127
34695,note_on,132,0,0,,1,,,61,127
34826,note_off,131,0,0,,1,,,61,127
34827,note_on,1,0,0,,2,,,62,127
34958,note_off,131,0,0,,6,,,78,127
34958,note_off,0,0,0,,2,,,74,127
34959,note_on,1,0,0,,2,,,74,127
34959,note_on,0,0,0,,6,,,78,127
35054,note_off,95,0,0,,2,,,62,127
35091,note_on,37,0,0,,2,,,62,127
35222,note_off,131,0,0,,2,,,62,127
35223,note_on,1,0,0,,6,,,54,127
35354,note_off,131,0,0,,6,,,78,127
35354,note_off,0,0,0,,2,,,74,127
35355,note_on,1,0,0,,4,,,76,127
35355,note_on,0,0,0,,2,,,74,127
35450,note_off,95,0,0,,6,,,54,127
35487,note_on,37,0,0,,7,,,55,127
35618,note_off,131,0,0,,7,,,55,127
35619,note_on,1,0,0,,10,,,57,127
35750,note_off,131,0,0,,2,,,74,127
35750,note_off,0,0,0,,4,,,76,127
35751,note_on,1,0,0,,4,,,76,127
35751,note_on,0,0,0,,1,,,73,127
35846,note_off,95,0,0,,10,,,57,127
35883,note_on,37,0,0,,10,,,57,127
36014,note_off,131,0,0,,10,,,57,127
36015,note_on,1,0,0,,1,,,49,127
36081,note_off,66,0,0,,1,,,73,127
36081,note_off,0,0,0,,4,,,76,127
36147,note_off,66,0,0,,1,,,49,127
36147,note_on,0,0,0,,2,,,74,127
36147,note_on,0,0,0,,6,,,78,127
36279,note_on,132,0,0,,1,,,61,127
36410,note_off,131,0,0,,1,,,61,127
36411,note_on,1,0,0,,2,,,62,127
36542,note_off,131,0,0,,6,,,78,127
36542,note_off,0,0,0,,2,,,74,127
36543,note_on,1,0,0,,6,,,78,127
36543,note_on,0,0,0,,2,,,74,127
36638,note_off,95,0,0,,2,,,62,127
36675,note_on,37,0,0,,2,,,62,127
36806,note_off,131,0,0,,2,,,62,127
36807,note_on,1,0,0,,6,,,54,127
36938,note_off,131,0,0,,2,,,74,127
36938,note_off,0,0,0,,6,,,78,127
36939,note_on,1,0,0,,4,,,76,127
36939,note_on,0,0,0,,2,,,74,127
37034,note_off,95,0,0,,6,,,54,127
37071,note_on,37,0,0,,7,,,55,127
37202,note_off,131,0,0,,7,,,55,127
37203,note_on,1,0,0,,10,,,57,127
37334,note_off,131,0,0,,2,,,74,127
37334,note_off,0,0,0,,4,,,76,127
37335,note_on,1,0,0,,4,,,76,127
37335,note_on,0,0,0,,1,,,73,127
37430,note_off,95,0,0,,10,,,57,127
37467,note_on,37,0,0,,10,,,57,127
37598,note_off,131,0,0,,10,,,57,127
37599,note_on,1,0,0,,1,,,49,127
37665,note_off,66,0,0,,1,,,73,127
37665,note_off,0,0,0,,4,,,76,127
37731,note_off,66,0,0,,1,,,49,127
37731,note_on,0,0,0,,6,,,78,127
37731,note_on,0,0,0,,2,,,74,127
37863,note_on,132,0,0,,2,,,50,127
37994,note_off,131,0,0,,2,,,50,127
37995,note_on,1,0,0,,2,,,62,127
38126,note_off,131,0,0,,2,,,74,127
38126,note_off,0,0,0,,6,,,78,127
38127,note_on,1,0,0,,7,,,79,127
38127,note_on,0,0,0,,4,,,76,127
38222,note_off,95,0,0,,2,,,62,127
38259,note_on,37,0,0,,4,,,52,127
38390,note_off,131,0,0,,4,,,52,127
38391,note_on,1,0,0,,1,,,61,127
38522,note_off,131,0,0,,4,,,76,127
38522,note_off,0,0,0,,7,,,79,127
38523,note_on,1,0,0,,10,,,81,127
38523,note_on,0,0,0,,6,,,78,127
38618,note_off,95,0,0,,1,,,61,127
38655,note_on,37,0,0,,2,,,50,127
38786,note_off,131,0,0,,2,,,50,127
38787,note_on,1,0,0,,2,,,62,127
38918,note_off,131,0,0,,6,,,78,127
38918,note_off,0,0,0,,10,,,81,127
38919,note_on,1,0,0,,12,,,83,127
38919,note_on,0,0,0,,7,,,79,127
39014,note_off,95,0,0,,2,,,62,127
39051,note_on,37,0,0,,7,,,55,127
39182,note_off,131,0,0,,7,,,55,127
39183,note_on,1,0,0,,7,,,67,127
39314,note_off,131,0,0,,7,,,79,127
39314,note_off,0,0,0,,12,,,83,127
39315,note_on,1,0,0,,7,,,79,127
39315,note_on,0,0,0,,4,,,76,127
39410,note_off,95,0,0,,7,,,67,127
39447,note_on,37,0,0,,10,,,57,127
39578,note_off,131,0,0,,10,,,57,127
39579,note_on,1,0,0,,1,,,61,127
39710,note_off,131,0,0,,4,,,76,127
39710,note_off,0,0,0,,7,,,79,127
39711,note_on,1,0,0,,10,,,81,127
39711,note_on,0,0,0,,10,,,69,127
39806,note_off,95,0,0,,1,,,61,127
39843,note_on,37,0,0,,2,,,62,127
39974,note_off,131,0,0,,2,,,62,127
39975,note_on,1,0,0,,6,,,54,127
40106,note_off,131,0,0,,10,,,69,127
40106,note_off,0,0,0,,10,,,81,127
40107,note_on,1,0,0,,7,,,79,127
40107,note_on,0,0,0,,12,,,71,127
40202,note_off,95,0,0,,6,,,54,127
40239,note_on,37,0,0,,7,,,55,127
40370,note_off,131,0,0,,7,,,55,127
40371,note_on,1,0,0,,12,,,59,127
40502,note_off,131,0,0,,12,,,71,127
40502,note_off,0,0,0,,7,,,79,127
40503,note_on,1,0,0,,4,,,76,127
40503,note_on,0,0,0,,1,,,73,127
40598,note_off,95,0,0,,12,,,59,127
40635,note_on,37,0,0,,10,,,57,127
40766,note_off,131,0,0,,10,,,57,127
40767,note_on,1,0,0,,1,,,49,127
40833,note_off,66,0,0,,1,,,73,127
40833,note_off,0,0,0,,4,,,76,127
40899,note_off,66,0,0,,1,,,49,127
40899,note_on,0,0,0,,6,,,78,127
40899,note_on,0,0,0,,2,,,74,127
41031,note_on,132,0,0,,2,,,50,127
41162,note_off,131,0,0,,2,,,50,127
41163,note_on,1,0,0,,2,,,62,127
41294,note_off,131,0,0,,2,,,74,127
41294,note_off,0,0,0,,6,,,78,127
41295,note_on,1,0,0,,4,,,76,127
41295,note_on,0,0,0,,7,,,79,127
41390,note_off,95,0,0,,2,,,62,127
41427,note_on,37,0,0,,4,,,52,127
41558,note_off,131,0,0,,4,,,52,127
41559,note_on,1,0,0,,1,,,61,127
41690,note_off,131,0,0,,7,,,79,127
41690,note_off,0,0,0,,4,,,76,127
41691,note_on,1,0,0,,10,,,81,127
41691,note_on,0,0,0,,6,,,78,127
41786,note_off,95,0,0,,1,,,61,127
41823,note_on,37,0,0,,2,,,50,127
41954,note_off,131,0,0,,2,,,50,127
41955,note_on,1,0,0,,2,,,62,127
42086,note_off,131,0,0,,6,,,78,127
42086,note_off,0,0,0,,10,,,81,127
42087,note_on,1,0,0,,12,,,83,127
42087,note_on,0,0,0,,7,,,79,127
42182,note_off,95,0,0,,2,,,62,127
42219,note_on,37,0,0,,7,,,55,127
42350,note_off,131,0,0,,7,,,55,127
42351,note_on,1,0,0,,4,,,64,127
42482,note_off,131,0,0,,7,,,79,127
42482,note_off,0,0,0,,12,,,83,127
42483,note_on,1,0,0,,1,,,73,127
42483,note_on,0,0,0,,4,,,76,127
42578,note_off,95,0,0,,4,,,64,127
42615,note_on,37,0,0,,10,,,57,127
42746,note_off,131,0,0,,10,,,57,127
42747,note_on,1,0,0,,1,,,61,127
42878,note_off,131,0,0,,4,,,76,127
42878,note_off,0,0,0,,1,,,73,127
42879,note_on,1,0,0,,10,,,81,127
42879,note_on,0,0,0,,10,,,69,127
42974,note_off,95,0,0,,1,,,61,127
43011,note_on,37,0,0,,2,,,62,127
43142,note_off,131,0,0,,2,,,62,127
43143,note_on,1,0,0,,6,,,54,127
43274,note_off,131,0,0,,10,,,69,127
43274,note_off,0,0,0,,10,,,81,127
43275,note_on,1,0,0,,12,,,71,127
43275,note_on,0,0,0,,7,,,79,127
43370,note_off,95,0,0,,6,,,54,127
43407,note_on,37,0,0,,7,,,55,127
43538,note_off,131,0,0,,7,,,55,127
43539,note_on,1,0,0,,12,,,59,127
43670,note_off,131,0,0,,7,,,79,127
43670,note_off,0,0,0,,12,,,71,127
43671,note_on,1,0,0,,1,,,73,127
43671,note_on,0,0,0,,4,,,76,127
43766,note_off,95,0,0,,12,,,59,127
43803,note_on,37,0,0,,10,,,57,127
43934,note_off,131,0,0,,10,,,57,127
43935,note_on,1,0,0,,1,,,49,127
44022,note_off,87,0,0,,1,,,73,127
44066,note_off,44,0,0,,1,,,49,127
44066,note_off,0,0,0,,4,,,76,127
44067,note_on,1,0,0,,6,,,78,127
44067,note_on,0,0,0,,2,,,50,127
44198,note_off,131,0,0,,6,,,78,127
44199,note_on,1,0,0,,2,,,86,127
44330,note_off,131,0,0,,2,,,86,127
44330,note_off,0,0,0,,2,,,50,127
44331,note_on,1,0,0,,10,,,81,127
44462,note_off,131,0,0,,10,,,81,127
44463,note_on,1,0,0,,12,,,83,127
44463,note_on,0,0,0,,7,,,55,127
44594,note_off,131,0,0,,12,,,83,127
44595,note_on,1,0,0,,7,,,79,127
44726,note_off,131,0,0,,7,,,79,127
44726,note_off,0,0,0,,7,,,55,127
44727,note_on,1,0,0,,4,,,76,127
44858,note_off,131,0,0,,4,,,76,127
44859,note_on,1,0,0,,1,,,73,127
44859,note_on,0,0,0,,10,,,57,127
44990,note_off,131,0,0,,1,,,73,127
44991,note_on,1,0,0,,10,,,69,127
45122,note_off,131,0,0,,10,,,69,127
45122,note_off,0,0,0,,10,,,57,127
45123,note_on,1,0,0,,7,,,79,127
45254,note_off,131,0,0,,7,,,79,127
45255,note_on,1,0,0,,6,,,78,127
45255,note_on,0,0,0,,2,,,50,127
45386,note_off,131,0,0,,6,,,78,127
45387,note_on,1,0,0,,2,,,74,127
45518,note_off,131,0,0,,2,,,74,127
45518,note_off,0,0,0,,2,,,50,127
45519,note_on,1,0,0,,10,,,69,127
45650,note_off,131,0,0,,10,,,69,127
45651,note_on,1,0,0,,12,,,71,127
45651,note_on,0,0,0,,7,,,43,127
45782,note_off,131,0,0,,12,,,71,127
45783,note_on,1,0,0,,7,,,67,127
45914,note_off,131,0,0,,7,,,67,127
45914,note_off,0,0,0,,7,,,43,127
45915,note_on,1,0,0,,6,,,66,127
46046,note_off,131,0,0,,6,,,66,127
46047,note_on,1,0,0,,4,,,64,127
46047,note_on,0,0,0,,10,,,45,127
46178,note_off,131,0,0,,4,,,64,127
46179,note_on,1,0,0,,2,,,74,127
46310,note_off,131,0,0,,2,,,74,127
46310,note_off,0,0,0,,10,,,45,127
46311,note_on,1,0,0,,1,,,73,127
46442,note_off,131,0,0,,1,,,73,127
46453,note_on,11,0,0,,2,,,74,127
46453,note_on,0,0,0,,2,,,38,127
48330,note_off,1877,0,0,,2,,,38,127
48330,note_off,0,0,0,,2,,,74,127
49152,end_of_track,822,1,0,,,,,,
