tick,type,time,meta,track,program,channel,pitch,tempo,note,velocity
0,copyright,0,1,0,,,,,,
0,program_change,0,0,0,6,0,,,,
0,pitchwheel,0,0,0,,0,0,,,
0,program_change,0,0,0,6,1,,,,
0,pitchwheel,0,0,0,,1,-590,,,
0,program_change,0,0,0,6,2,,,,
0,pitchwheel,0,0,0,,2,-272,,,
0,program_change,0,0,0,6,3,,,,
0,pitchwheel,0,0,0,,3,-353,,,
0,program_change,0,0,0,6,4,,,,
0,pitchwheel,0,0,0,,4,-560,,,
0,program_change,0,0,0,6,5,,,,
0,pitchwheel,0,0,0,,5,-80,,,
0,program_change,0,0,0,6,6,,,,
0,pitchwheel,0,0,0,,6,-625,,,
0,program_change,0,0,0,6,7,,,,
0,pitchwheel,0,0,0,,7,-130,,,
0,program_change,0,0,0,6,8,,,,
0,pitchwheel,0,0,0,,8,-512,,,
0,program_change,0,0,0,6,10,,,,
0,pitchwheel,0,0,0,,10,-464,,,
0,program_change,0,0,0,6,11,,,,
0,pitchwheel,0,0,0,,11,-208,,,
0,program_change,0,0,0,6,12,,,,
0,pitchwheel,0,0,0,,12,-553,,,
0,set_tempo,0,1,0,,,,500000,,
103,note_on,103,0,0,,2,,,62,127
103,note_on,0,0,0,,6,,,78,127
205,note_off,102,0,0,,6,,,78,127
206,note_on,1,0,0,,4,,,76,127
308,note_off,102,0,0,,4,,,76,127
309,note_on,1,0,0,,2,,,74,127
411,note_off,102,0,0,,2,,,74,127
412,note_on,1,0,0,,1,,,73,127
514,note_off,102,0,0,,1,,,73,127
515,note_on,1,0,0,,12,,,71,127
617,note_off,102,0,0,,12,,,71,127
618,note_on,1,0,0,,10,,,69,127
720,note_off,102,0,0,,10,,,69,127
720,note_off,0,0,0,,2,,,62,127
721,note_on,1,0,0,,7,,,55,127
721,note_on,0,0,0,,12,,,83,127
823,note_off,102,0,0,,12,,,83,127
824,note_on,1,0,0,,10,,,81,127
926,note_off,102,0,0,,10,,,81,127
927,note_on,1,0,0,,7,,,79,127
1029,note_off,102,0,0,,7,,,79,127
1030,note_on,1,0,0,,6,,,78,127
1132,note_off,102,0,0,,6,,,78,127
1133,note_on,1,0,0,,4,,,76,127
1235,note_off,102,0,0,,4,,,76,127
1236,note_on,1,0,0,,2,,,74,127
1338,note_off,102,0,0,,2,,,74,127
1338,note_off,0,0,0,,7,,,55,127
1339,note_on,1,0,0,,10,,,57,127
1339,note_on,0,0,0,,1,,,73,127
1441,note_off,102,0,0,,1,,,73,127
1442,note_on,1,0,0,,12,,,71,127
1544,note_off,102,0,0,,12,,,71,127
1545,note_on,1,0,0,,10,,,69,127
1647,note_off,102,0,0,,10,,,69,127
1648,note_on,1,0,0,,7,,,67,127
1750,note_off,102,0,0,,7,,,67,127
1751,note_on,1,0,0,,6,,,66,127
1853,note_off,102,0,0,,6,,,66,127
1854,note_on,1,0,0,,4,,,64,127
1956,note_off,102,0,0,,4,,,64,127
1956,note_off,0,0,0,,10,,,57,127
1957,note_on,1,0,0,,6,,,78,127
1957,note_on,0,0,0,,2,,,62,127
2059,note_off,102,0,0,,6,,,78,127
2060,note_on,1,0,0,,4,,,76,127
2162,note_off,102,0,0,,4,,,76,127
2163,note_on,1,0,0,,2,,,74,127
2265,note_off,102,0,0,,2,,,74,127
2266,note_on,1,0,0,,1,,,73,127
2368,note_off,102,0,0,,1,,,73,127
2369,note_on,1,0,0,,12,,,71,127
2471,note_off,102,0,0,,12,,,71,127
2472,note_on,1,0,0,,10,,,69,127
2574,note_off,102,0,0,,10,,,69,127
2574,note_off,0,0,0,,2,,,62,127
2575,note_on,1,0,0,,7,,,67,127
2575,note_on,0,0,0,,1,,,85,127
2626,note_on,51,0,0,,12,,,83,127
2639,note_off,13,0,0,,1,,,85,127
2676,note_off,37,0,0,,7,,,67,127
2677,note_on,1,0,0,,6,,,66,127
2677,note_on,0,0,0,,1,,,85,127
2690,note_off,13,0,0,,12,,,83,127
2729,note_on,39,0,0,,12,,,83,127
2742,note_off,13,0,0,,1,,,85,127
2779,note_off,37,0,0,,6,,,66,127
2780,note_on,1,0,0,,4,,,64,127
2780,note_on,0,0,0,,1,,,85,127
2793,note_off,13,0,0,,12,,,83,127
2832,note_on,39,0,0,,12,,,83,127
2845,note_off,13,0,0,,1,,,85,127
2882,note_off,37,0,0,,4,,,64,127
2883,note_on,1,0,0,,2,,,62,127
2883,note_on,0,0,0,,1,,,85,127
2896,note_off,13,0,0,,12,,,83,127
2935,note_on,39,0,0,,12,,,83,127
2948,note_off,13,0,0,,1,,,85,127
2985,note_off,37,0,0,,2,,,62,127
2986,note_on,1,0,0,,1,,,61,127
2986,note_on,0,0,0,,1,,,85,127
2999,note_off,13,0,0,,12,,,83,127
3038,note_on,39,0,0,,12,,,83,127
3051,note_off,13,0,0,,1,,,85,127
3088,note_off,37,0,0,,1,,,61,127
3089,note_on,1,0,0,,12,,,59,127
3089,note_on,0,0,0,,1,,,85,127
3102,note_off,13,0,0,,12,,,83,127
3141,note_on,39,0,0,,12,,,83,127
3154,note_off,13,0,0,,1,,,85,127
3191,note_off,37,0,0,,12,,,59,127
3192,note_on,1,0,0,,10,,,57,127
3192,note_on,0,0,0,,2,,,86,127
3205,note_off,13,0,0,,12,,,83,127
3244,note_on,39,0,0,,1,,,85,127
3257,note_off,13,0,0,,2,,,86,127
3294,note_off,37,0,0,,10,,,57,127
3295,note_on,1,0,0,,7,,,55,127
3295,note_on,0,0,0,,2,,,86,127
3308,note_off,13,0,0,,1,,,85,127
3347,note_on,39,0,0,,1,,,85,127
3360,note_off,13,0,0,,2,,,86,127
3397,note_off,37,0,0,,7,,,55,127
3398,note_on,1,0,0,,6,,,54,127
3398,note_on,0,0,0,,2,,,86,127
3411,note_off,13,0,0,,1,,,85,127
3450,note_on,39,0,0,,1,,,85,127
3463,note_off,13,0,0,,2,,,86,127
3500,note_off,37,0,0,,6,,,54,127
3501,note_on,1,0,0,,4,,,52,127
3501,note_on,0,0,0,,12,,,83,127
3514,note_off,13,0,0,,1,,,85,127
3553,note_on,39,0,0,,1,,,85,127
3566,note_off,13,0,0,,12,,,83,127
3603,note_off,37,0,0,,4,,,52,127
3604,note_on,1,0,0,,2,,,50,127
3604,note_on,0,0,0,,2,,,86,127
3617,note_off,13,0,0,,1,,,85,127
3706,note_off,89,0,0,,2,,,86,127
3707,note_on,1,0,0,,10,,,81,127
3809,note_off,102,0,0,,10,,,81,127
3809,note_off,0,0,0,,2,,,50,127
3810,note_on,1,0,0,,7,,,55,127
3810,note_on,0,0,0,,12,,,83,127
3912,note_off,102,0,0,,12,,,83,127
3913,note_on,1,0,0,,7,,,79,127
4015,note_off,102,0,0,,7,,,79,127
4015,note_off,0,0,0,,7,,,55,127
4016,note_on,1,0,0,,10,,,57,127
4016,note_on,0,0,0,,6,,,78,127
4118,note_off,102,0,0,,6,,,78,127
4119,note_on,1,0,0,,4,,,76,127
4221,note_off,102,0,0,,4,,,76,127
4222,note_on,1,0,0,,10,,,45,127
4222,note_on,0,0,0,,2,,,74,127
4324,note_off,102,0,0,,2,,,74,127
4325,note_on,1,0,0,,1,,,73,127
4427,note_off,102,0,0,,1,,,73,127
4427,note_off,0,0,0,,10,,,45,127
4427,note_off,0,0,0,,10,,,57,127
4428,note_on,1,0,0,,2,,,62,127
4428,note_on,0,0,0,,2,,,74,127
4531,note_on,103,0,0,,10,,,81,127
4633,note_off,102,0,0,,10,,,81,127
4633,note_off,0,0,0,,2,,,74,127
4633,note_off,0,0,0,,2,,,62,127
4634,note_on,1,0,0,,4,,,64,127
4634,note_on,0,0,0,,1,,,73,127
4736,note_off,102,0,0,,1,,,73,127
4737,note_on,1,0,0,,4,,,76,127
4839,note_off,102,0,0,,4,,,76,127
4839,note_off,0,0,0,,4,,,64,127
4840,note_on,1,0,0,,7,,,67,127
4840,note_on,0,0,0,,2,,,74,127
4942,note_off,102,0,0,,2,,,74,127
4943,note_on,1,0,0,,1,,,73,127
5045,note_off,102,0,0,,1,,,73,127
5045,note_off,0,0,0,,7,,,67,127
5046,note_on,1,0,0,,6,,,66,127
5046,note_on,0,0,0,,2,,,74,127
5149,note_on,103,0,0,,10,,,81,127
5251,note_off,102,0,0,,10,,,81,127
5251,note_off,0,0,0,,2,,,74,127
5251,note_off,0,0,0,,6,,,66,127
5252,note_on,1,0,0,,1,,,61,127
5252,note_on,0,0,0,,4,,,76,127
5354,note_off,102,0,0,,4,,,76,127
5355,note_on,1,0,0,,7,,,79,127
5457,note_off,102,0,0,,7,,,79,127
5457,note_off,0,0,0,,1,,,61,127
5458,note_on,1,0,0,,10,,,57,127
5458,note_on,0,0,0,,6,,,78,127
5560,note_off,102,0,0,,6,,,78,127
5561,note_on,1,0,0,,4,,,76,127
5663,note_off,102,0,0,,4,,,76,127
5663,note_off,0,0,0,,10,,,57,127
5664,note_on,1,0,0,,2,,,62,127
5664,note_on,0,0,0,,6,,,78,127
5767,note_on,103,0,0,,10,,,81,127
5869,note_off,102,0,0,,10,,,81,127
5869,note_off,0,0,0,,6,,,78,127
5869,note_off,0,0,0,,2,,,62,127
5870,note_on,1,0,0,,4,,,64,127
5870,note_on,0,0,0,,1,,,73,127
5972,note_off,102,0,0,,1,,,73,127
5973,note_on,1,0,0,,4,,,76,127
6075,note_off,102,0,0,,4,,,76,127
6075,note_off,0,0,0,,4,,,64,127
6076,note_on,1,0,0,,7,,,67,127
6076,note_on,0,0,0,,2,,,74,127
6178,note_off,102,0,0,,2,,,74,127
6179,note_on,1,0,0,,1,,,73,127
6281,note_off,102,0,0,,1,,,73,127
6281,note_off,0,0,0,,7,,,67,127
6282,note_on,1,0,0,,6,,,66,127
6282,note_on,0,0,0,,2,,,74,127
6385,note_on,103,0,0,,10,,,81,127
6487,note_off,102,0,0,,10,,,81,127
6487,note_off,0,0,0,,2,,,74,127
6487,note_off,0,0,0,,6,,,66,127
6488,note_on,1,0,0,,1,,,61,127
6488,note_on,0,0,0,,4,,,76,127
6590,note_off,102,0,0,,4,,,76,127
6591,note_on,1,0,0,,7,,,79,127
6693,note_off,102,0,0,,7,,,79,127
6693,note_off,0,0,0,,1,,,61,127
6694,note_on,1,0,0,,10,,,57,127
6694,note_on,0,0,0,,6,,,78,127
6796,note_off,102,0,0,,6,,,78,127
6797,note_on,1,0,0,,4,,,76,127
6899,note_off,102,0,0,,4,,,76,127
6899,note_off,0,0,0,,10,,,57,127
6900,note_on,1,0,0,,2,,,62,127
6900,note_on,0,0,0,,6,,,78,127
7003,note_on,103,0,0,,10,,,69,127
7072,note_off,69,0,0,,6,,,78,127
7093,note_off,21,0,0,,2,,,62,127
7105,note_off,12,0,0,,10,,,69,127
7106,note_on,1,0,0,,1,,,61,127
7106,note_on,0,0,0,,12,,,83,127
7157,note_on,51,0,0,,10,,,81,127
7170,note_off,13,0,0,,12,,,83,127
7207,note_off,37,0,0,,1,,,61,127
7208,note_on,1,0,0,,4,,,64,127
7208,note_on,0,0,0,,12,,,83,127
7221,note_off,13,0,0,,10,,,81,127
7260,note_on,39,0,0,,10,,,81,127
7273,note_off,13,0,0,,12,,,83,127
7310,note_off,37,0,0,,4,,,64,127
7311,note_on,1,0,0,,2,,,62,127
7311,note_on,0,0,0,,12,,,83,127
7324,note_off,13,0,0,,10,,,81,127
7363,note_on,39,0,0,,10,,,81,127
7376,note_off,13,0,0,,12,,,83,127
7413,note_off,37,0,0,,2,,,62,127
7414,note_on,1,0,0,,1,,,61,127
7414,note_on,0,0,0,,12,,,83,127
7427,note_off,13,0,0,,10,,,81,127
7466,note_on,39,0,0,,10,,,81,127
7479,note_off,13,0,0,,12,,,83,127
7516,note_off,37,0,0,,1,,,61,127
7517,note_on,1,0,0,,2,,,62,127
7567,note_off,50,0,0,,10,,,81,127
7619,note_on,52,0,0,,10,,,69,127
7709,note_off,90,0,0,,2,,,62,127
7721,note_off,12,0,0,,10,,,69,127
7722,note_on,1,0,0,,4,,,64,127
7722,note_on,0,0,0,,12,,,83,127
7773,note_on,51,0,0,,10,,,81,127
7786,note_off,13,0,0,,12,,,83,127
7823,note_off,37,0,0,,4,,,64,127
7824,note_on,1,0,0,,7,,,67,127
7824,note_on,0,0,0,,12,,,83,127
7837,note_off,13,0,0,,10,,,81,127
7876,note_on,39,0,0,,10,,,81,127
7889,note_off,13,0,0,,12,,,83,127
7926,note_off,37,0,0,,7,,,67,127
7927,note_on,1,0,0,,6,,,66,127
7927,note_on,0,0,0,,12,,,83,127
7940,note_off,13,0,0,,10,,,81,127
7979,note_on,39,0,0,,10,,,81,127
7992,note_off,13,0,0,,12,,,83,127
8029,note_off,37,0,0,,6,,,66,127
8030,note_on,1,0,0,,4,,,64,127
8030,note_on,0,0,0,,12,,,83,127
8043,note_off,13,0,0,,10,,,81,127
8082,note_on,39,0,0,,10,,,81,127
8095,note_off,13,0,0,,12,,,83,127
8132,note_off,37,0,0,,4,,,64,127
8133,note_on,1,0,0,,6,,,66,127
8183,note_off,50,0,0,,10,,,81,127
8235,note_on,52,0,0,,10,,,69,127
8325,note_off,90,0,0,,6,,,66,127
8337,note_off,12,0,0,,10,,,69,127
8338,note_on,1,0,0,,1,,,61,127
8338,note_on,0,0,0,,12,,,83,127
8389,note_on,51,0,0,,10,,,81,127
8402,note_off,13,0,0,,12,,,83,127
8439,note_off,37,0,0,,1,,,61,127
8440,note_on,1,0,0,,4,,,64,127
8440,note_on,0,0,0,,12,,,83,127
8453,note_off,13,0,0,,10,,,81,127
8492,note_on,39,0,0,,10,,,81,127
8505,note_off,13,0,0,,12,,,83,127
8542,note_off,37,0,0,,4,,,64,127
8543,note_on,1,0,0,,2,,,62,127
8543,note_on,0,0,0,,12,,,83,127
8556,note_off,13,0,0,,10,,,81,127
8595,note_on,39,0,0,,10,,,81,127
8608,note_off,13,0,0,,12,,,83,127
8645,note_off,37,0,0,,2,,,62,127
8646,note_on,1,0,0,,1,,,61,127
8646,note_on,0,0,0,,12,,,83,127
8659,note_off,13,0,0,,10,,,81,127
8698,note_on,39,0,0,,10,,,81,127
8711,note_off,13,0,0,,12,,,83,127
8748,note_off,37,0,0,,1,,,61,127
8749,note_on,1,0,0,,2,,,62,127
8799,note_off,50,0,0,,10,,,81,127
8851,note_on,52,0,0,,10,,,69,127
8941,note_off,90,0,0,,2,,,62,127
8953,note_off,12,0,0,,10,,,69,127
8954,note_on,1,0,0,,4,,,64,127
8954,note_on,0,0,0,,12,,,83,127
9005,note_on,51,0,0,,10,,,81,127
9018,note_off,13,0,0,,12,,,83,127
9055,note_off,37,0,0,,4,,,64,127
9056,note_on,1,0,0,,7,,,67,127
9056,note_on,0,0,0,,12,,,83,127
9069,note_off,13,0,0,,10,,,81,127
9108,note_on,39,0,0,,10,,,81,127
9121,note_off,13,0,0,,12,,,83,127
9158,note_off,37,0,0,,7,,,67,127
9159,note_on,1,0,0,,6,,,66,127
9159,note_on,0,0,0,,12,,,83,127
9172,note_off,13,0,0,,10,,,81,127
9211,note_on,39,0,0,,10,,,81,127
9224,note_off,13,0,0,,12,,,83,127
9261,note_off,37,0,0,,6,,,66,127
9262,note_on,1,0,0,,4,,,64,127
9262,note_on,0,0,0,,12,,,83,127
9275,note_off,13,0,0,,10,,,81,127
9314,note_on,39,0,0,,10,,,81,127
9327,note_off,13,0,0,,12,,,83,127
9364,note_off,37,0,0,,4,,,64,127
9365,note_on,1,0,0,,6,,,66,127
9365,note_on,0,0,0,,12,,,83,127
9378,note_off,13,0,0,,10,,,81,127
9417,note_on,39,0,0,,10,,,81,127
9430,note_off,13,0,0,,12,,,83,127
9467,note_off,37,0,0,,6,,,66,127
9468,note_on,1,0,0,,10,,,69,127
9468,note_on,0,0,0,,12,,,83,127
9481,note_off,13,0,0,,10,,,81,127
9520,note_on,39,0,0,,10,,,81,127
9533,note_off,13,0,0,,12,,,83,127
9570,note_off,37,0,0,,10,,,69,127
9571,note_on,1,0,0,,4,,,64,127
9571,note_on,0,0,0,,7,,,79,127
9584,note_off,13,0,0,,10,,,81,127
9673,note_off,89,0,0,,4,,,64,127
9674,note_on,1,0,0,,7,,,67,127
9776,note_off,102,0,0,,7,,,67,127
9776,note_off,0,0,0,,7,,,79,127
9777,note_on,1,0,0,,2,,,62,127
9777,note_on,0,0,0,,6,,,78,127
9879,note_off,102,0,0,,2,,,62,127
9880,note_on,1,0,0,,6,,,66,127
9982,note_off,102,0,0,,6,,,66,127
9982,note_off,0,0,0,,6,,,78,127
9983,note_on,1,0,0,,1,,,61,127
9983,note_on,0,0,0,,4,,,76,127
10085,note_off,102,0,0,,1,,,61,127
10086,note_on,1,0,0,,4,,,64,127
10188,note_off,102,0,0,,4,,,64,127
10188,note_off,0,0,0,,4,,,76,127
10189,note_on,1,0,0,,12,,,59,127
10189,note_on,0,0,0,,2,,,74,127
10291,note_off,102,0,0,,12,,,59,127
10292,note_on,1,0,0,,2,,,62,127
10394,note_off,102,0,0,,2,,,62,127
10394,note_off,0,0,0,,2,,,74,127
10395,note_on,1,0,0,,10,,,57,127
10395,note_on,0,0,0,,1,,,73,127
10497,note_off,102,0,0,,10,,,57,127
10498,note_on,1,0,0,,1,,,61,127
10600,note_off,102,0,0,,1,,,61,127
10600,note_off,0,0,0,,1,,,73,127
10601,note_on,1,0,0,,8,,,56,127
10601,note_on,0,0,0,,12,,,71,127
10703,note_off,102,0,0,,8,,,56,127
10704,note_on,1,0,0,,12,,,59,127
10806,note_off,102,0,0,,12,,,59,127
10806,note_off,0,0,0,,12,,,71,127
10807,note_on,1,0,0,,6,,,54,127
10807,note_on,0,0,0,,10,,,69,127
10909,note_off,102,0,0,,6,,,54,127
10910,note_on,1,0,0,,10,,,57,127
11012,note_off,102,0,0,,10,,,57,127
11012,note_off,0,0,0,,10,,,69,127
11013,note_on,1,0,0,,4,,,52,127
11013,note_on,0,0,0,,8,,,68,127
11115,note_off,102,0,0,,4,,,52,127
11116,note_on,1,0,0,,8,,,56,127
11218,note_off,102,0,0,,8,,,56,127
11218,note_off,0,0,0,,8,,,68,127
11219,note_on,1,0,0,,2,,,50,127
11219,note_on,0,0,0,,6,,,66,127
11321,note_off,102,0,0,,2,,,50,127
11322,note_on,1,0,0,,6,,,54,127
11424,note_off,102,0,0,,6,,,54,127
11424,note_off,0,0,0,,6,,,66,127
11425,note_on,1,0,0,,1,,,49,127
11425,note_on,0,0,0,,4,,,64,127
11527,note_off,102,0,0,,1,,,49,127
11528,note_on,1,0,0,,4,,,52,127
11630,note_off,102,0,0,,4,,,52,127
11630,note_off,0,0,0,,4,,,64,127
11631,note_on,1,0,0,,12,,,47,127
11631,note_on,0,0,0,,2,,,62,127
11733,note_off,102,0,0,,12,,,47,127
11734,note_on,1,0,0,,2,,,50,127
11836,note_off,102,0,0,,2,,,50,127
11836,note_off,0,0,0,,2,,,62,127
11837,note_on,1,0,0,,10,,,45,127
11837,note_on,0,0,0,,1,,,61,127
11939,note_off,102,0,0,,1,,,61,127
11940,note_on,1,0,0,,4,,,76,127
12042,note_off,102,0,0,,4,,,76,127
12042,note_off,0,0,0,,10,,,45,127
12043,note_on,1,0,0,,12,,,59,127
12043,note_on,0,0,0,,8,,,68,127
12145,note_off,102,0,0,,8,,,68,127
12146,note_on,1,0,0,,12,,,71,127
12248,note_off,102,0,0,,12,,,71,127
12248,note_off,0,0,0,,12,,,59,127
12249,note_on,1,0,0,,2,,,62,127
12249,note_on,0,0,0,,10,,,69,127
12351,note_off,102,0,0,,10,,,69,127
12352,note_on,1,0,0,,8,,,68,127
12454,note_off,102,0,0,,8,,,68,127
12454,note_off,0,0,0,,2,,,62,127
12455,note_on,1,0,0,,1,,,61,127
12455,note_on,0,0,0,,10,,,69,127
12558,note_on,103,0,0,,1,,,73,127
12660,note_off,102,0,0,,1,,,73,127
12660,note_off,0,0,0,,10,,,69,127
12660,note_off,0,0,0,,1,,,61,127
12661,note_on,1,0,0,,8,,,56,127
12661,note_on,0,0,0,,12,,,71,127
12763,note_off,102,0,0,,12,,,71,127
12764,note_on,1,0,0,,2,,,74,127
12866,note_off,102,0,0,,2,,,74,127
12866,note_off,0,0,0,,8,,,56,127
12867,note_on,1,0,0,,4,,,52,127
12867,note_on,0,0,0,,1,,,73,127
12969,note_off,102,0,0,,1,,,73,127
12970,note_on,1,0,0,,12,,,71,127
13072,note_off,102,0,0,,12,,,71,127
13072,note_off,0,0,0,,4,,,52,127
13073,note_on,1,0,0,,10,,,57,127
13073,note_on,0,0,0,,1,,,73,127
13176,note_on,103,0,0,,4,,,76,127
13278,note_off,102,0,0,,4,,,76,127
13278,note_off,0,0,0,,1,,,73,127
13278,note_off,0,0,0,,10,,,57,127
13279,note_on,1,0,0,,12,,,59,127
13279,note_on,0,0,0,,8,,,68,127
13381,note_off,102,0,0,,8,,,68,127
13382,note_on,1,0,0,,12,,,71,127
13484,note_off,102,0,0,,12,,,71,127
13484,note_off,0,0,0,,12,,,59,127
13485,note_on,1,0,0,,2,,,62,127
13485,note_on,0,0,0,,10,,,69,127
13587,note_off,102,0,0,,10,,,69,127
13588,note_on,1,0,0,,8,,,68,127
13690,note_off,102,0,0,,8,,,68,127
13690,note_off,0,0,0,,2,,,62,127
13691,note_on,1,0,0,,1,,,61,127
13691,note_on,0,0,0,,10,,,69,127
13794,note_on,103,0,0,,1,,,73,127
13896,note_off,102,0,0,,1,,,73,127
13896,note_off,0,0,0,,10,,,69,127
13896,note_off,0,0,0,,1,,,61,127
13897,note_on,1,0,0,,8,,,56,127
13897,note_on,0,0,0,,12,,,71,127
13999,note_off,102,0,0,,12,,,71,127
14000,note_on,1,0,0,,2,,,74,127
14102,note_off,102,0,0,,2,,,74,127
14102,note_off,0,0,0,,8,,,56,127
14103,note_on,1,0,0,,4,,,52,127
14103,note_on,0,0,0,,1,,,73,127
14205,note_off,102,0,0,,1,,,73,127
14206,note_on,1,0,0,,12,,,71,127
14308,note_off,102,0,0,,12,,,71,127
14308,note_off,0,0,0,,4,,,52,127
14309,note_on,1,0,0,,10,,,57,127
14309,note_on,0,0,0,,1,,,73,127
14412,note_on,103,0,0,,4,,,64,127
14481,note_off,69,0,0,,1,,,73,127
14502,note_off,21,0,0,,10,,,57,127
14514,note_off,12,0,0,,4,,,64,127
14515,note_on,1,0,0,,8,,,56,127
14515,note_on,0,0,0,,6,,,78,127
14566,note_on,51,0,0,,4,,,76,127
14579,note_off,13,0,0,,6,,,78,127
14616,note_off,37,0,0,,8,,,56,127
14617,note_on,1,0,0,,12,,,59,127
14617,note_on,0,0,0,,6,,,78,127
14630,note_off,13,0,0,,4,,,76,127
14669,note_on,39,0,0,,4,,,76,127
14682,note_off,13,0,0,,6,,,78,127
14719,note_off,37,0,0,,12,,,59,127
14720,note_on,1,0,0,,10,,,57,127
14720,note_on,0,0,0,,6,,,78,127
14733,note_off,13,0,0,,4,,,76,127
14772,note_on,39,0,0,,4,,,76,127
14785,note_off,13,0,0,,6,,,78,127
14822,note_off,37,0,0,,10,,,57,127
14823,note_on,1,0,0,,8,,,56,127
14823,note_on,0,0,0,,6,,,78,127
14836,note_off,13,0,0,,4,,,76,127
14875,note_on,39,0,0,,4,,,76,127
14888,note_off,13,0,0,,6,,,78,127
14925,note_off,37,0,0,,8,,,56,127
14926,note_on,1,0,0,,10,,,57,127
14976,note_off,50,0,0,,4,,,76,127
15028,note_on,52,0,0,,4,,,64,127
15118,note_off,90,0,0,,10,,,57,127
15130,note_off,12,0,0,,4,,,64,127
15131,note_on,1,0,0,,12,,,59,127
15131,note_on,0,0,0,,6,,,78,127
15182,note_on,51,0,0,,4,,,76,127
15195,note_off,13,0,0,,6,,,78,127
15232,note_off,37,0,0,,12,,,59,127
15233,note_on,1,0,0,,2,,,62,127
15233,note_on,0,0,0,,6,,,78,127
15246,note_off,13,0,0,,4,,,76,127
15285,note_on,39,0,0,,4,,,76,127
15298,note_off,13,0,0,,6,,,78,127
15335,note_off,37,0,0,,2,,,62,127
15336,note_on,1,0,0,,1,,,61,127
15336,note_on,0,0,0,,6,,,78,127
15349,note_off,13,0,0,,4,,,76,127
15388,note_on,39,0,0,,4,,,76,127
15401,note_off,13,0,0,,6,,,78,127
15438,note_off,37,0,0,,1,,,61,127
15439,note_on,1,0,0,,12,,,59,127
15439,note_on,0,0,0,,6,,,78,127
15452,note_off,13,0,0,,4,,,76,127
15491,note_on,39,0,0,,4,,,76,127
15504,note_off,13,0,0,,6,,,78,127
15541,note_off,37,0,0,,12,,,59,127
15542,note_on,1,0,0,,1,,,61,127
15592,note_off,50,0,0,,4,,,76,127
15644,note_on,52,0,0,,4,,,64,127
15734,note_off,90,0,0,,1,,,61,127
15746,note_off,12,0,0,,4,,,64,127
15747,note_on,1,0,0,,8,,,56,127
15747,note_on,0,0,0,,6,,,78,127
15798,note_on,51,0,0,,4,,,76,127
15811,note_off,13,0,0,,6,,,78,127
15848,note_off,37,0,0,,8,,,56,127
15849,note_on,1,0,0,,12,,,59,127
15849,note_on,0,0,0,,6,,,78,127
15862,note_off,13,0,0,,4,,,76,127
15901,note_on,39,0,0,,4,,,76,127
15914,note_off,13,0,0,,6,,,78,127
15951,note_off,37,0,0,,12,,,59,127
15952,note_on,1,0,0,,10,,,57,127
15952,note_on,0,0,0,,6,,,78,127
15965,note_off,13,0,0,,4,,,76,127
16004,note_on,39,0,0,,4,,,76,127
16017,note_off,13,0,0,,6,,,78,127
16054,note_off,37,0,0,,10,,,57,127
16055,note_on,1,0,0,,8,,,56,127
16055,note_on,0,0,0,,6,,,78,127
16068,note_off,13,0,0,,4,,,76,127
16107,note_on,39,0,0,,4,,,76,127
16120,note_off,13,0,0,,6,,,78,127
16157,note_off,37,0,0,,8,,,56,127
16158,note_on,1,0,0,,10,,,57,127
16208,note_off,50,0,0,,4,,,76,127
16260,note_on,52,0,0,,4,,,64,127
16350,note_off,90,0,0,,10,,,57,127
16362,note_off,12,0,0,,4,,,64,127
16363,note_on,1,0,0,,4,,,52,127
16363,note_on,0,0,0,,6,,,78,127
16414,note_on,51,0,0,,4,,,76,127
16427,note_off,13,0,0,,6,,,78,127
16464,note_off,37,0,0,,4,,,52,127
16465,note_on,1,0,0,,8,,,56,127
16465,note_on,0,0,0,,6,,,78,127
16478,note_off,13,0,0,,4,,,76,127
16517,note_on,39,0,0,,4,,,76,127
16530,note_off,13,0,0,,6,,,78,127
16567,note_off,37,0,0,,8,,,56,127
16568,note_on,1,0,0,,6,,,54,127
16568,note_on,0,0,0,,6,,,78,127
16581,note_off,13,0,0,,4,,,76,127
16620,note_on,39,0,0,,4,,,76,127
16633,note_off,13,0,0,,6,,,78,127
16670,note_off,37,0,0,,6,,,54,127
16671,note_on,1,0,0,,4,,,52,127
16671,note_on,0,0,0,,6,,,78,127
16684,note_off,13,0,0,,4,,,76,127
16723,note_on,39,0,0,,4,,,76,127
16736,note_off,13,0,0,,6,,,78,127
16773,note_off,37,0,0,,4,,,52,127
16774,note_on,1,0,0,,6,,,54,127
16824,note_off,50,0,0,,4,,,76,127
16876,note_on,52,0,0,,4,,,64,127
16966,note_off,90,0,0,,6,,,54,127
16978,note_off,12,0,0,,4,,,64,127
16979,note_on,1,0,0,,1,,,49,127
16979,note_on,0,0,0,,6,,,78,127
17030,note_on,51,0,0,,4,,,76,127
17043,note_off,13,0,0,,6,,,78,127
17080,note_off,37,0,0,,1,,,49,127
17081,note_on,1,0,0,,4,,,52,127
17081,note_on,0,0,0,,6,,,78,127
17094,note_off,13,0,0,,4,,,76,127
17133,note_on,39,0,0,,4,,,76,127
17146,note_off,13,0,0,,6,,,78,127
17183,note_off,37,0,0,,4,,,52,127
17184,note_on,1,0,0,,2,,,50,127
17184,note_on,0,0,0,,6,,,78,127
17197,note_off,13,0,0,,4,,,76,127
17236,note_on,39,0,0,,4,,,76,127
17249,note_off,13,0,0,,6,,,78,127
17286,note_off,37,0,0,,2,,,50,127
17287,note_on,1,0,0,,1,,,49,127
17287,note_on,0,0,0,,6,,,78,127
17300,note_off,13,0,0,,4,,,76,127
17339,note_on,39,0,0,,4,,,76,127
17352,note_off,13,0,0,,6,,,78,127
17389,note_off,37,0,0,,1,,,49,127
17390,note_on,1,0,0,,2,,,50,127
17440,note_off,50,0,0,,4,,,76,127
17491,note_off,51,0,0,,2,,,50,127
17492,note_on,1,0,0,,4,,,64,127
17594,note_off,102,0,0,,4,,,64,127
17595,note_on,1,0,0,,2,,,62,127
17595,note_on,0,0,0,,8,,,80,127
17646,note_on,51,0,0,,6,,,78,127
17659,note_off,13,0,0,,8,,,80,127
17696,note_off,37,0,0,,2,,,62,127
17697,note_on,1,0,0,,1,,,61,127
17697,note_on,0,0,0,,8,,,80,127
17710,note_off,13,0,0,,6,,,78,127
17749,note_on,39,0,0,,6,,,78,127
17762,note_off,13,0,0,,8,,,80,127
17799,note_off,37,0,0,,1,,,61,127
17800,note_on,1,0,0,,12,,,59,127
17800,note_on,0,0,0,,8,,,80,127
17813,note_off,13,0,0,,6,,,78,127
17852,note_on,39,0,0,,6,,,78,127
17865,note_off,13,0,0,,8,,,80,127
17902,note_off,37,0,0,,12,,,59,127
17903,note_on,1,0,0,,10,,,57,127
17903,note_on,0,0,0,,8,,,80,127
17916,note_off,13,0,0,,6,,,78,127
17955,note_on,39,0,0,,6,,,78,127
17968,note_off,13,0,0,,8,,,80,127
18005,note_off,37,0,0,,10,,,57,127
18006,note_on,1,0,0,,8,,,56,127
18006,note_on,0,0,0,,4,,,76,127
18019,note_off,13,0,0,,6,,,78,127
18108,note_off,89,0,0,,4,,,76,127
18109,note_on,1,0,0,,2,,,74,127
18211,note_off,102,0,0,,2,,,74,127
18211,note_off,0,0,0,,8,,,56,127
18212,note_on,1,0,0,,4,,,52,127
18212,note_on,0,0,0,,1,,,73,127
18314,note_off,102,0,0,,1,,,73,127
18315,note_on,1,0,0,,12,,,71,127
18417,note_off,102,0,0,,12,,,71,127
18417,note_off,0,0,0,,4,,,52,127
18418,note_on,1,0,0,,6,,,54,127
18418,note_on,0,0,0,,10,,,69,127
18520,note_off,102,0,0,,10,,,69,127
18521,note_on,1,0,0,,1,,,73,127
18623,note_off,102,0,0,,1,,,73,127
18623,note_off,0,0,0,,6,,,54,127
18624,note_on,1,0,0,,2,,,50,127
18624,note_on,0,0,0,,12,,,71,127
18726,note_off,102,0,0,,12,,,71,127
18727,note_on,1,0,0,,2,,,74,127
18829,note_off,102,0,0,,2,,,74,127
18829,note_off,0,0,0,,2,,,50,127
18830,note_on,1,0,0,,4,,,52,127
18830,note_on,0,0,0,,1,,,73,127
18932,note_off,102,0,0,,1,,,73,127
18933,note_on,1,0,0,,12,,,71,127
19035,note_off,102,0,0,,12,,,71,127
19036,note_on,1,0,0,,4,,,40,127
19036,note_on,0,0,0,,10,,,69,127
19138,note_off,102,0,0,,10,,,69,127
19139,note_on,1,0,0,,8,,,68,127
19241,note_off,102,0,0,,8,,,68,127
19241,note_off,0,0,0,,4,,,40,127
19241,note_off,0,0,0,,4,,,52,127
19242,note_on,1,0,0,,10,,,57,127
19242,note_on,0,0,0,,1,,,73,127
19345,note_on,103,0,0,,4,,,64,127
19435,note_off,90,0,0,,10,,,57,127
19447,note_off,12,0,0,,4,,,64,127
19447,note_off,0,0,0,,1,,,73,127
19448,note_on,1,0,0,,8,,,56,127
19448,note_on,0,0,0,,6,,,78,127
19499,note_on,51,0,0,,4,,,76,127
19512,note_off,13,0,0,,6,,,78,127
19549,note_off,37,0,0,,8,,,56,127
19550,note_on,1,0,0,,12,,,59,127
19550,note_on,0,0,0,,6,,,78,127
19563,note_off,13,0,0,,4,,,76,127
19602,note_on,39,0,0,,4,,,76,127
19615,note_off,13,0,0,,6,,,78,127
19652,note_off,37,0,0,,12,,,59,127
19653,note_on,1,0,0,,10,,,57,127
19653,note_on,0,0,0,,6,,,78,127
19666,note_off,13,0,0,,4,,,76,127
19705,note_on,39,0,0,,4,,,76,127
19718,note_off,13,0,0,,6,,,78,127
19755,note_off,37,0,0,,10,,,57,127
19756,note_on,1,0,0,,8,,,56,127
19756,note_on,0,0,0,,6,,,78,127
19769,note_off,13,0,0,,4,,,76,127
19808,note_on,39,0,0,,4,,,76,127
19821,note_off,13,0,0,,6,,,78,127
19858,note_off,37,0,0,,8,,,56,127
19859,note_on,1,0,0,,10,,,57,127
19909,note_off,50,0,0,,4,,,76,127
19961,note_on,52,0,0,,4,,,64,127
20051,note_off,90,0,0,,10,,,57,127
20063,note_off,12,0,0,,4,,,64,127
20064,note_on,1,0,0,,12,,,59,127
20064,note_on,0,0,0,,6,,,78,127
20115,note_on,51,0,0,,4,,,76,127
20128,note_off,13,0,0,,6,,,78,127
20165,note_off,37,0,0,,12,,,59,127
20166,note_on,1,0,0,,2,,,62,127
20166,note_on,0,0,0,,6,,,78,127
20179,note_off,13,0,0,,4,,,76,127
20218,note_on,39,0,0,,4,,,76,127
20231,note_off,13,0,0,,6,,,78,127
20268,note_off,37,0,0,,2,,,62,127
20269,note_on,1,0,0,,1,,,61,127
20269,note_on,0,0,0,,6,,,78,127
20282,note_off,13,0,0,,4,,,76,127
20321,note_on,39,0,0,,4,,,76,127
20334,note_off,13,0,0,,6,,,78,127
20371,note_off,37,0,0,,1,,,61,127
20372,note_on,1,0,0,,12,,,59,127
20372,note_on,0,0,0,,6,,,78,127
20385,note_off,13,0,0,,4,,,76,127
20424,note_on,39,0,0,,4,,,76,127
20437,note_off,13,0,0,,6,,,78,127
20474,note_off,37,0,0,,12,,,59,127
20475,note_on,1,0,0,,1,,,61,127
20525,note_off,50,0,0,,4,,,76,127
20577,note_on,52,0,0,,4,,,64,127
20667,note_off,90,0,0,,1,,,61,127
20679,note_off,12,0,0,,4,,,64,127
20680,note_on,1,0,0,,8,,,56,127
20680,note_on,0,0,0,,6,,,78,127
20731,note_on,51,0,0,,4,,,76,127
20744,note_off,13,0,0,,6,,,78,127
20781,note_off,37,0,0,,8,,,56,127
20782,note_on,1,0,0,,12,,,59,127
20782,note_on,0,0,0,,6,,,78,127
20795,note_off,13,0,0,,4,,,76,127
20834,note_on,39,0,0,,4,,,76,127
20847,note_off,13,0,0,,6,,,78,127
20884,note_off,37,0,0,,12,,,59,127
20885,note_on,1,0,0,,10,,,57,127
20885,note_on,0,0,0,,6,,,78,127
20898,note_off,13,0,0,,4,,,76,127
20937,note_on,39,0,0,,4,,,76,127
20950,note_off,13,0,0,,6,,,78,127
20987,note_off,37,0,0,,10,,,57,127
20988,note_on,1,0,0,,8,,,56,127
20988,note_on,0,0,0,,6,,,78,127
21001,note_off,13,0,0,,4,,,76,127
21040,note_on,39,0,0,,4,,,76,127
21053,note_off,13,0,0,,6,,,78,127
21090,note_off,37,0,0,,8,,,56,127
21091,note_on,1,0,0,,10,,,57,127
21141,note_off,50,0,0,,4,,,76,127
21193,note_on,52,0,0,,4,,,64,127
21283,note_off,90,0,0,,10,,,57,127
21295,note_off,12,0,0,,4,,,64,127
21296,note_on,1,0,0,,4,,,52,127
21296,note_on,0,0,0,,6,,,78,127
21347,note_on,51,0,0,,4,,,76,127
21360,note_off,13,0,0,,6,,,78,127
21397,note_off,37,0,0,,4,,,52,127
21398,note_on,1,0,0,,8,,,56,127
21398,note_on,0,0,0,,6,,,78,127
21411,note_off,13,0,0,,4,,,76,127
21450,note_on,39,0,0,,4,,,76,127
21463,note_off,13,0,0,,6,,,78,127
21500,note_off,37,0,0,,8,,,56,127
21501,note_on,1,0,0,,6,,,54,127
21501,note_on,0,0,0,,6,,,78,127
21514,note_off,13,0,0,,4,,,76,127
21553,note_on,39,0,0,,4,,,76,127
21566,note_off,13,0,0,,6,,,78,127
21603,note_off,37,0,0,,6,,,54,127
21604,note_on,1,0,0,,4,,,52,127
21604,note_on,0,0,0,,6,,,78,127
21617,note_off,13,0,0,,4,,,76,127
21656,note_on,39,0,0,,4,,,76,127
21669,note_off,13,0,0,,6,,,78,127
21706,note_off,37,0,0,,4,,,52,127
21707,note_on,1,0,0,,6,,,54,127
21757,note_off,50,0,0,,4,,,76,127
21809,note_on,52,0,0,,4,,,64,127
21899,note_off,90,0,0,,6,,,54,127
21911,note_off,12,0,0,,4,,,64,127
21912,note_on,1,0,0,,1,,,49,127
21912,note_on,0,0,0,,6,,,78,127
21963,note_on,51,0,0,,4,,,76,127
21976,note_off,13,0,0,,6,,,78,127
22013,note_off,37,0,0,,1,,,49,127
22014,note_on,1,0,0,,4,,,52,127
22014,note_on,0,0,0,,6,,,78,127
22027,note_off,13,0,0,,4,,,76,127
22066,note_on,39,0,0,,4,,,76,127
22079,note_off,13,0,0,,6,,,78,127
22116,note_off,37,0,0,,4,,,52,127
22117,note_on,1,0,0,,2,,,50,127
22117,note_on,0,0,0,,6,,,78,127
22130,note_off,13,0,0,,4,,,76,127
22169,note_on,39,0,0,,4,,,76,127
22182,note_off,13,0,0,,6,,,78,127
22219,note_off,37,0,0,,2,,,50,127
22220,note_on,1,0,0,,1,,,49,127
22220,note_on,0,0,0,,6,,,78,127
22233,note_off,13,0,0,,4,,,76,127
22272,note_on,39,0,0,,4,,,76,127
22285,note_off,13,0,0,,6,,,78,127
22322,note_off,37,0,0,,1,,,49,127
22323,note_on,1,0,0,,2,,,50,127
22373,note_off,50,0,0,,4,,,76,127
22424,note_off,51,0,0,,2,,,50,127
22425,note_on,1,0,0,,4,,,64,127
22527,note_off,102,0,0,,4,,,64,127
22528,note_on,1,0,0,,2,,,62,127
22528,note_on,0,0,0,,8,,,80,127
22579,note_on,51,0,0,,6,,,78,127
22592,note_off,13,0,0,,8,,,80,127
22629,note_off,37,0,0,,2,,,62,127
22630,note_on,1,0,0,,1,,,61,127
22630,note_on,0,0,0,,8,,,80,127
22643,note_off,13,0,0,,6,,,78,127
22682,note_on,39,0,0,,6,,,78,127
22695,note_off,13,0,0,,8,,,80,127
22732,note_off,37,0,0,,1,,,61,127
22733,note_on,1,0,0,,12,,,59,127
22733,note_on,0,0,0,,8,,,80,127
22746,note_off,13,0,0,,6,,,78,127
22785,note_on,39,0,0,,6,,,78,127
22798,note_off,13,0,0,,8,,,80,127
22835,note_off,37,0,0,,12,,,59,127
22836,note_on,1,0,0,,10,,,57,127
22836,note_on,0,0,0,,8,,,80,127
22849,note_off,13,0,0,,6,,,78,127
22888,note_on,39,0,0,,6,,,78,127
22901,note_off,13,0,0,,8,,,80,127
22938,note_off,37,0,0,,10,,,57,127
22939,note_on,1,0,0,,8,,,56,127
22939,note_on,0,0,0,,4,,,76,127
22952,note_off,13,0,0,,6,,,78,127
23041,note_off,89,0,0,,4,,,76,127
23042,note_on,1,0,0,,2,,,74,127
23144,note_off,102,0,0,,2,,,74,127
23144,note_off,0,0,0,,8,,,56,127
23145,note_on,1,0,0,,4,,,52,127
23145,note_on,0,0,0,,1,,,73,127
23247,note_off,102,0,0,,1,,,73,127
23248,note_on,1,0,0,,12,,,71,127
23350,note_off,102,0,0,,12,,,71,127
23350,note_off,0,0,0,,4,,,52,127
23351,note_on,1,0,0,,6,,,54,127
23351,note_on,0,0,0,,10,,,69,127
23453,note_off,102,0,0,,10,,,69,127
23454,note_on,1,0,0,,1,,,73,127
23556,note_off,102,0,0,,1,,,73,127
23556,note_off,0,0,0,,6,,,54,127
23557,note_on,1,0,0,,2,,,50,127
23557,note_on,0,0,0,,12,,,71,127
23659,note_off,102,0,0,,12,,,71,127
23660,note_on,1,0,0,,2,,,74,127
23762,note_off,102,0,0,,2,,,74,127
23762,note_off,0,0,0,,2,,,50,127
23763,note_on,1,0,0,,4,,,52,127
23763,note_on,0,0,0,,1,,,73,127
23865,note_off,102,0,0,,1,,,73,127
23866,note_on,1,0,0,,12,,,71,127
23968,note_off,102,0,0,,12,,,71,127
23969,note_on,1,0,0,,4,,,40,127
23969,note_on,0,0,0,,10,,,69,127
24071,note_off,102,0,0,,10,,,69,127
24072,note_on,1,0,0,,8,,,68,127
24174,note_off,102,0,0,,8,,,68,127
24174,note_off,0,0,0,,4,,,40,127
24174,note_off,0,0,0,,4,,,52,127
24175,note_on,1,0,0,,10,,,45,127
24175,note_on,0,0,0,,10,,,69,127
24277,note_off,102,0,0,,10,,,69,127
24278,note_on,1,0,0,,4,,,76,127
24380,note_off,102,0,0,,4,,,76,127
24381,note_on,1,0,0,,10,,,81,127
24483,note_off,102,0,0,,10,,,81,127
24484,note_on,1,0,0,,8,,,80,127
24586,note_off,102,0,0,,8,,,80,127
24587,note_on,1,0,0,,6,,,78,127
24689,note_off,102,0,0,,6,,,78,127
24690,note_on,1,0,0,,4,,,76,127
24792,note_off,102,0,0,,4,,,76,127
24792,note_off,0,0,0,,10,,,45,127
24793,note_on,1,0,0,,2,,,50,127
24793,note_on,0,0,0,,2,,,74,127
24895,note_off,102,0,0,,2,,,74,127
24896,note_on,1,0,0,,1,,,73,127
24998,note_off,102,0,0,,1,,,73,127
24999,note_on,1,0,0,,12,,,71,127
25101,note_off,102,0,0,,12,,,71,127
25102,note_on,1,0,0,,10,,,69,127
25204,note_off,102,0,0,,10,,,69,127
25205,note_on,1,0,0,,8,,,68,127
25307,note_off,102,0,0,,8,,,68,127
25308,note_on,1,0,0,,6,,,66,127
25410,note_off,102,0,0,,6,,,66,127
25410,note_off,0,0,0,,2,,,50,127
25411,note_on,1,0,0,,4,,,76,127
25411,note_on,0,0,0,,4,,,64,127
25513,note_off,102,0,0,,4,,,76,127
25514,note_on,1,0,0,,2,,,74,127
25616,note_off,102,0,0,,2,,,74,127
25617,note_on,1,0,0,,1,,,73,127
25719,note_off,102,0,0,,1,,,73,127
25720,note_on,1,0,0,,12,,,71,127
25822,note_off,102,0,0,,12,,,71,127
25823,note_on,1,0,0,,10,,,69,127
25925,note_off,102,0,0,,10,,,69,127
25926,note_on,1,0,0,,8,,,68,127
26028,note_off,102,0,0,,8,,,68,127
26028,note_off,0,0,0,,4,,,64,127
26029,note_on,1,0,0,,10,,,69,127
26029,note_on,0,0,0,,2,,,74,127
26080,note_on,51,0,0,,1,,,73,127
26093,note_off,13,0,0,,2,,,74,127
26130,note_off,37,0,0,,10,,,69,127
26131,note_on,1,0,0,,8,,,68,127
26131,note_on,0,0,0,,2,,,74,127
26144,note_off,13,0,0,,1,,,73,127
26183,note_on,39,0,0,,1,,,73,127
26196,note_off,13,0,0,,2,,,74,127
26233,note_off,37,0,0,,8,,,68,127
26234,note_on,1,0,0,,6,,,66,127
26234,note_on,0,0,0,,2,,,74,127
26247,note_off,13,0,0,,1,,,73,127
26286,note_on,39,0,0,,1,,,73,127
26299,note_off,13,0,0,,2,,,74,127
26336,note_off,37,0,0,,6,,,66,127
26337,note_on,1,0,0,,4,,,64,127
26337,note_on,0,0,0,,2,,,74,127
26350,note_off,13,0,0,,1,,,73,127
26389,note_on,39,0,0,,1,,,73,127
26402,note_off,13,0,0,,2,,,74,127
26439,note_off,37,0,0,,4,,,64,127
26440,note_on,1,0,0,,2,,,62,127
26440,note_on,0,0,0,,2,,,74,127
26453,note_off,13,0,0,,1,,,73,127
26492,note_on,39,0,0,,1,,,73,127
26505,note_off,13,0,0,,2,,,74,127
26542,note_off,37,0,0,,2,,,62,127
26543,note_on,1,0,0,,1,,,61,127
26543,note_on,0,0,0,,2,,,74,127
26556,note_off,13,0,0,,1,,,73,127
26595,note_on,39,0,0,,1,,,73,127
26608,note_off,13,0,0,,2,,,74,127
26645,note_off,37,0,0,,1,,,61,127
26646,note_on,1,0,0,,2,,,62,127
26646,note_on,0,0,0,,8,,,80,127
26659,note_off,13,0,0,,1,,,73,127
26698,note_on,39,0,0,,6,,,78,127
26711,note_off,13,0,0,,8,,,80,127
26748,note_off,37,0,0,,2,,,62,127
26749,note_on,1,0,0,,1,,,61,127
26749,note_on,0,0,0,,8,,,80,127
26762,note_off,13,0,0,,6,,,78,127
26801,note_on,39,0,0,,6,,,78,127
26814,note_off,13,0,0,,8,,,80,127
26851,note_off,37,0,0,,1,,,61,127
26852,note_on,1,0,0,,12,,,59,127
26852,note_on,0,0,0,,8,,,80,127
26865,note_off,13,0,0,,6,,,78,127
26904,note_on,39,0,0,,6,,,78,127
26917,note_off,13,0,0,,8,,,80,127
26954,note_off,37,0,0,,12,,,59,127
26955,note_on,1,0,0,,10,,,57,127
26955,note_on,0,0,0,,8,,,80,127
26968,note_off,13,0,0,,6,,,78,127
27007,note_on,39,0,0,,6,,,78,127
27020,note_off,13,0,0,,8,,,80,127
27057,note_off,37,0,0,,10,,,57,127
27058,note_on,1,0,0,,8,,,56,127
27058,note_on,0,0,0,,8,,,80,127
27071,note_off,13,0,0,,6,,,78,127
27110,note_on,39,0,0,,6,,,78,127
27123,note_off,13,0,0,,8,,,80,127
27160,note_off,37,0,0,,8,,,56,127
27161,note_on,1,0,0,,6,,,54,127
27161,note_on,0,0,0,,8,,,80,127
27174,note_off,13,0,0,,6,,,78,127
27213,note_on,39,0,0,,6,,,78,127
27226,note_off,13,0,0,,8,,,80,127
27263,note_off,37,0,0,,6,,,54,127
27264,note_on,1,0,0,,4,,,52,127
27264,note_on,0,0,0,,10,,,81,127
27277,note_off,13,0,0,,6,,,78,127
27316,note_on,39,0,0,,8,,,80,127
27329,note_off,13,0,0,,10,,,81,127
27366,note_off,37,0,0,,4,,,52,127
27367,note_on,1,0,0,,2,,,50,127
27367,note_on,0,0,0,,10,,,81,127
27380,note_off,13,0,0,,8,,,80,127
27419,note_on,39,0,0,,8,,,80,127
27432,note_off,13,0,0,,10,,,81,127
27469,note_off,37,0,0,,2,,,50,127
27470,note_on,1,0,0,,1,,,49,127
27470,note_on,0,0,0,,10,,,81,127
27483,note_off,13,0,0,,8,,,80,127
27522,note_on,39,0,0,,8,,,80,127
27535,note_off,13,0,0,,10,,,81,127
27572,note_off,37,0,0,,1,,,49,127
27573,note_on,1,0,0,,12,,,47,127
27573,note_on,0,0,0,,6,,,78,127
27586,note_off,13,0,0,,8,,,80,127
27625,note_on,39,0,0,,8,,,80,127
27638,note_off,13,0,0,,6,,,78,127
27675,note_off,37,0,0,,12,,,47,127
27676,note_on,1,0,0,,10,,,45,127
27676,note_on,0,0,0,,10,,,81,127
27689,note_off,13,0,0,,8,,,80,127
27778,note_off,89,0,0,,10,,,81,127
27779,note_on,1,0,0,,4,,,76,127
27881,note_off,102,0,0,,4,,,76,127
27881,note_off,0,0,0,,10,,,45,127
27882,note_on,1,0,0,,2,,,50,127
27882,note_on,0,0,0,,6,,,78,127
27984,note_off,102,0,0,,6,,,78,127
27985,note_on,1,0,0,,2,,,74,127
28087,note_off,102,0,0,,2,,,74,127
28087,note_off,0,0,0,,2,,,50,127
28088,note_on,1,0,0,,4,,,52,127
28088,note_on,0,0,0,,1,,,73,127
28190,note_off,102,0,0,,1,,,73,127
28191,note_on,1,0,0,,12,,,71,127
28293,note_off,102,0,0,,12,,,71,127
28294,note_on,1,0,0,,4,,,40,127
28294,note_on,0,0,0,,10,,,69,127
28396,note_off,102,0,0,,10,,,69,127
28397,note_on,1,0,0,,8,,,68,127
28499,note_off,102,0,0,,8,,,68,127
28499,note_off,0,0,0,,4,,,40,127
28499,note_off,0,0,0,,4,,,52,127
28500,note_on,1,0,0,,10,,,45,127
28500,note_on,0,0,0,,10,,,69,127
28602,note_off,102,0,0,,10,,,69,127
28603,note_on,1,0,0,,4,,,76,127
28705,note_off,102,0,0,,4,,,76,127
28706,note_on,1,0,0,,10,,,81,127
28808,note_off,102,0,0,,10,,,81,127
28809,note_on,1,0,0,,8,,,80,127
28911,note_off,102,0,0,,8,,,80,127
28912,note_on,1,0,0,,6,,,78,127
29014,note_off,102,0,0,,6,,,78,127
29015,note_on,1,0,0,,4,,,76,127
29117,note_off,102,0,0,,4,,,76,127
29117,note_off,0,0,0,,10,,,45,127
29118,note_on,1,0,0,,2,,,50,127
29118,note_on,0,0,0,,2,,,74,127
29220,note_off,102,0,0,,2,,,74,127
29221,note_on,1,0,0,,1,,,73,127
29323,note_off,102,0,0,,1,,,73,127
29324,note_on,1,0,0,,12,,,71,127
29426,note_off,102,0,0,,12,,,71,127
29427,note_on,1,0,0,,10,,,69,127
29529,note_off,102,0,0,,10,,,69,127
29530,note_on,1,0,0,,8,,,68,127
29632,note_off,102,0,0,,8,,,68,127
29633,note_on,1,0,0,,6,,,66,127
29735,note_off,102,0,0,,6,,,66,127
29735,note_off,0,0,0,,2,,,50,127
29736,note_on,1,0,0,,4,,,76,127
29736,note_on,0,0,0,,4,,,64,127
29838,note_off,102,0,0,,4,,,76,127
29839,note_on,1,0,0,,2,,,74,127
29941,note_off,102,0,0,,2,,,74,127
29942,note_on,1,0,0,,1,,,73,127
30044,note_off,102,0,0,,1,,,73,127
30045,note_on,1,0,0,,12,,,71,127
30147,note_off,102,0,0,,12,,,71,127
30148,note_on,1,0,0,,10,,,69,127
30250,note_off,102,0,0,,10,,,69,127
30251,note_on,1,0,0,,8,,,68,127
30353,note_off,102,0,0,,8,,,68,127
30353,note_off,0,0,0,,4,,,64,127
30354,note_on,1,0,0,,6,,,66,127
30354,note_on,0,0,0,,2,,,74,127
30405,note_on,51,0,0,,1,,,73,127
30418,note_off,13,0,0,,2,,,74,127
30455,note_off,37,0,0,,6,,,66,127
30456,note_on,1,0,0,,4,,,64,127
30456,note_on,0,0,0,,2,,,74,127
30469,note_off,13,0,0,,1,,,73,127
30508,note_on,39,0,0,,1,,,73,127
30521,note_off,13,0,0,,2,,,74,127
30558,note_off,37,0,0,,4,,,64,127
30559,note_on,1,0,0,,2,,,62,127
30559,note_on,0,0,0,,2,,,74,127
30572,note_off,13,0,0,,1,,,73,127
30611,note_on,39,0,0,,1,,,73,127
30624,note_off,13,0,0,,2,,,74,127
30661,note_off,37,0,0,,2,,,62,127
30662,note_on,1,0,0,,1,,,61,127
30662,note_on,0,0,0,,2,,,74,127
30675,note_off,13,0,0,,1,,,73,127
30714,note_on,39,0,0,,1,,,73,127
30727,note_off,13,0,0,,2,,,74,127
30764,note_off,37,0,0,,1,,,61,127
30765,note_on,1,0,0,,2,,,62,127
30765,note_on,0,0,0,,2,,,74,127
30778,note_off,13,0,0,,1,,,73,127
30817,note_on,39,0,0,,1,,,73,127
30830,note_off,13,0,0,,2,,,74,127
30867,note_off,37,0,0,,2,,,62,127
30868,note_on,1,0,0,,1,,,61,127
30868,note_on,0,0,0,,2,,,74,127
30881,note_off,13,0,0,,1,,,73,127
30920,note_on,39,0,0,,1,,,73,127
30933,note_off,13,0,0,,2,,,74,127
30970,note_off,37,0,0,,1,,,61,127
30971,note_on,1,0,0,,2,,,62,127
30971,note_on,0,0,0,,8,,,80,127
30984,note_off,13,0,0,,1,,,73,127
31023,note_on,39,0,0,,6,,,78,127
31036,note_off,13,0,0,,8,,,80,127
31073,note_off,37,0,0,,2,,,62,127
31074,note_on,1,0,0,,1,,,61,127
31074,note_on,0,0,0,,8,,,80,127
31087,note_off,13,0,0,,6,,,78,127
31126,note_on,39,0,0,,6,,,78,127
31139,note_off,13,0,0,,8,,,80,127
31176,note_off,37,0,0,,1,,,61,127
31177,note_on,1,0,0,,12,,,59,127
31177,note_on,0,0,0,,8,,,80,127
31190,note_off,13,0,0,,6,,,78,127
31229,note_on,39,0,0,,6,,,78,127
31242,note_off,13,0,0,,8,,,80,127
31279,note_off,37,0,0,,12,,,59,127
31280,note_on,1,0,0,,10,,,57,127
31280,note_on,0,0,0,,8,,,80,127
31293,note_off,13,0,0,,6,,,78,127
31332,note_on,39,0,0,,6,,,78,127
31345,note_off,13,0,0,,8,,,80,127
31382,note_off,37,0,0,,10,,,57,127
31383,note_on,1,0,0,,8,,,56,127
31383,note_on,0,0,0,,8,,,80,127
31396,note_off,13,0,0,,6,,,78,127
31435,note_on,39,0,0,,6,,,78,127
31448,note_off,13,0,0,,8,,,80,127
31485,note_off,37,0,0,,8,,,56,127
31486,note_on,1,0,0,,6,,,54,127
31486,note_on,0,0,0,,8,,,80,127
31499,note_off,13,0,0,,6,,,78,127
31538,note_on,39,0,0,,6,,,78,127
31551,note_off,13,0,0,,8,,,80,127
31588,note_off,37,0,0,,6,,,54,127
31589,note_on,1,0,0,,4,,,52,127
31589,note_on,0,0,0,,10,,,81,127
31602,note_off,13,0,0,,6,,,78,127
31641,note_on,39,0,0,,8,,,80,127
31654,note_off,13,0,0,,10,,,81,127
31691,note_off,37,0,0,,4,,,52,127
31692,note_on,1,0,0,,2,,,50,127
31692,note_on,0,0,0,,10,,,81,127
31705,note_off,13,0,0,,8,,,80,127
31744,note_on,39,0,0,,8,,,80,127
31757,note_off,13,0,0,,10,,,81,127
31794,note_off,37,0,0,,2,,,50,127
31795,note_on,1,0,0,,1,,,49,127
31795,note_on,0,0,0,,10,,,81,127
31808,note_off,13,0,0,,8,,,80,127
31847,note_on,39,0,0,,8,,,80,127
31860,note_off,13,0,0,,10,,,81,127
31897,note_off,37,0,0,,1,,,49,127
31898,note_on,1,0,0,,12,,,47,127
31898,note_on,0,0,0,,6,,,78,127
31911,note_off,13,0,0,,8,,,80,127
31950,note_on,39,0,0,,8,,,80,127
31963,note_off,13,0,0,,6,,,78,127
32000,note_off,37,0,0,,12,,,47,127
32001,note_on,1,0,0,,10,,,45,127
32001,note_on,0,0,0,,10,,,81,127
32014,note_off,13,0,0,,8,,,80,127
32103,note_off,89,0,0,,10,,,81,127
32104,note_on,1,0,0,,4,,,76,127
32206,note_off,102,0,0,,4,,,76,127
32206,note_off,0,0,0,,10,,,45,127
32207,note_on,1,0,0,,2,,,50,127
32207,note_on,0,0,0,,6,,,78,127
32309,note_off,102,0,0,,6,,,78,127
32310,note_on,1,0,0,,2,,,74,127
32412,note_off,102,0,0,,2,,,74,127
32412,note_off,0,0,0,,2,,,50,127
32413,note_on,1,0,0,,4,,,52,127
32413,note_on,0,0,0,,1,,,73,127
32515,note_off,102,0,0,,1,,,73,127
32516,note_on,1,0,0,,12,,,71,127
32618,note_off,102,0,0,,12,,,71,127
32619,note_on,1,0,0,,4,,,40,127
32619,note_on,0,0,0,,10,,,69,127
32721,note_off,102,0,0,,10,,,69,127
32722,note_on,1,0,0,,8,,,68,127
32824,note_off,102,0,0,,8,,,68,127
32824,note_off,0,0,0,,4,,,40,127
32824,note_off,0,0,0,,4,,,52,127
32825,note_on,1,0,0,,10,,,45,127
32825,note_on,0,0,0,,10,,,69,127
32928,note_on,103,0,0,,10,,,81,127
33030,note_off,102,0,0,,10,,,81,127
33030,note_off,0,0,0,,10,,,69,127
33030,note_off,0,0,0,,10,,,45,127
33031,note_on,1,0,0,,8,,,56,127
33031,note_on,0,0,0,,12,,,71,127
33133,note_off,102,0,0,,12,,,71,127
33134,note_on,1,0,0,,2,,,74,127
33236,note_off,102,0,0,,2,,,74,127
33236,note_off,0,0,0,,8,,,56,127
33237,note_on,1,0,0,,4,,,52,127
33237,note_on,0,0,0,,1,,,73,127
33339,note_off,102,0,0,,1,,,73,127
33340,note_on,1,0,0,,12,,,71,127
33442,note_off,102,0,0,,12,,,71,127
33442,note_off,0,0,0,,4,,,52,127
33443,note_on,1,0,0,,10,,,57,127
33443,note_on,0,0,0,,1,,,73,127
33545,note_off,102,0,0,,1,,,73,127
33546,note_on,1,0,0,,4,,,76,127
33648,note_off,102,0,0,,4,,,76,127
33648,note_off,0,0,0,,10,,,57,127
33649,note_on,1,0,0,,12,,,59,127
33649,note_on,0,0,0,,8,,,68,127
33751,note_off,102,0,0,,8,,,68,127
33752,note_on,1,0,0,,12,,,71,127
33854,note_off,102,0,0,,12,,,71,127
33854,note_off,0,0,0,,12,,,59,127
33855,note_on,1,0,0,,2,,,62,127
33855,note_on,0,0,0,,10,,,69,127
33957,note_off,102,0,0,,10,,,69,127
33958,note_on,1,0,0,,8,,,68,127
34060,note_off,102,0,0,,8,,,68,127
34060,note_off,0,0,0,,2,,,62,127
34061,note_on,1,0,0,,1,,,61,127
34061,note_on,0,0,0,,10,,,69,127
34164,note_on,103,0,0,,10,,,81,127
34266,note_off,102,0,0,,10,,,81,127
34266,note_off,0,0,0,,10,,,69,127
34266,note_off,0,0,0,,1,,,61,127
34267,note_on,1,0,0,,8,,,56,127
34267,note_on,0,0,0,,12,,,71,127
34369,note_off,102,0,0,,12,,,71,127
34370,note_on,1,0,0,,2,,,74,127
34472,note_off,102,0,0,,2,,,74,127
34472,note_off,0,0,0,,8,,,56,127
34473,note_on,1,0,0,,4,,,52,127
34473,note_on,0,0,0,,1,,,73,127
34575,note_off,102,0,0,,1,,,73,127
34576,note_on,1,0,0,,12,,,71,127
34678,note_off,102,0,0,,12,,,71,127
34678,note_off,0,0,0,,4,,,52,127
34679,note_on,1,0,0,,10,,,57,127
34679,note_on,0,0,0,,1,,,73,127
34781,note_off,102,0,0,,1,,,73,127
34782,note_on,1,0,0,,4,,,76,127
34884,note_off,102,0,0,,4,,,76,127
34884,note_off,0,0,0,,10,,,57,127
34885,note_on,1,0,0,,12,,,59,127
34885,note_on,0,0,0,,8,,,68,127
34987,note_off,102,0,0,,8,,,68,127
34988,note_on,1,0,0,,12,,,71,127
35090,note_off,102,0,0,,12,,,71,127
35090,note_off,0,0,0,,12,,,59,127
35091,note_on,1,0,0,,2,,,62,127
35091,note_on,0,0,0,,10,,,69,127
35193,note_off,102,0,0,,10,,,69,127
35194,note_on,1,0,0,,8,,,68,127
35296,note_off,102,0,0,,8,,,68,127
35296,note_off,0,0,0,,2,,,62,127
35297,note_on,1,0,0,,1,,,61,127
35297,note_on,0,0,0,,10,,,69,127
35399,note_off,102,0,0,,10,,,69,127
35400,note_on,1,0,0,,8,,,68,127
35502,note_off,102,0,0,,8,,,68,127
35503,note_on,1,0,0,,6,,,66,127
35605,note_off,102,0,0,,6,,,66,127
35606,note_on,1,0,0,,4,,,64,127
35662,note_off,56,0,0,,1,,,61,127
35708,note_off,46,0,0,,4,,,64,127
35709,note_on,1,0,0,,1,,,49,127
35709,note_on,0,0,0,,2,,,62,127
35811,note_off,102,0,0,,2,,,62,127
35812,note_on,1,0,0,,1,,,61,127
35914,note_off,102,0,0,,1,,,61,127
35914,note_off,0,0,0,,1,,,49,127
35915,note_on,1,0,0,,2,,,50,127
35915,note_on,0,0,0,,12,,,59,127
36017,note_off,102,0,0,,12,,,59,127
36018,note_on,1,0,0,,2,,,62,127
36120,note_off,102,0,0,,2,,,62,127
36120,note_off,0,0,0,,2,,,50,127
36121,note_on,1,0,0,,4,,,52,127
36121,note_on,0,0,0,,1,,,61,127
36223,note_off,102,0,0,,1,,,61,127
36224,note_on,1,0,0,,12,,,59,127
36326,note_off,102,0,0,,12,,,59,127
36327,note_on,1,0,0,,4,,,40,127
36327,note_on,0,0,0,,10,,,57,127
36429,note_off,102,0,0,,10,,,57,127
36430,note_on,1,0,0,,8,,,56,127
36532,note_off,102,0,0,,8,,,56,127
36532,note_off,0,0,0,,4,,,40,127
36532,note_off,0,0,0,,4,,,52,127
36533,note_on,1,0,0,,10,,,45,127
36533,note_on,0,0,0,,12,,,59,127
36584,note_on,51,0,0,,10,,,57,127
36597,note_off,13,0,0,,12,,,59,127
36636,note_on,39,0,0,,12,,,59,127
36649,note_off,13,0,0,,10,,,57,127
36688,note_on,39,0,0,,10,,,57,127
36701,note_off,13,0,0,,12,,,59,127
36740,note_on,39,0,0,,12,,,59,127
36753,note_off,13,0,0,,10,,,57,127
36792,note_on,39,0,0,,10,,,57,127
36805,note_off,13,0,0,,12,,,59,127
36844,note_on,39,0,0,,12,,,59,127
36857,note_off,13,0,0,,10,,,57,127
36896,note_on,39,0,0,,10,,,57,127
36909,note_off,13,0,0,,12,,,59,127
36948,note_on,39,0,0,,12,,,59,127
36961,note_off,13,0,0,,10,,,57,127
37000,note_on,39,0,0,,10,,,57,127
37013,note_off,13,0,0,,12,,,59,127
37052,note_on,39,0,0,,12,,,59,127
37065,note_off,13,0,0,,10,,,57,127
37104,note_on,39,0,0,,10,,,57,127
37117,note_off,13,0,0,,12,,,59,127
37154,note_off,37,0,0,,10,,,45,127
37155,note_on,1,0,0,,4,,,64,127
37258,note_on,103,0,0,,4,,,76,127
37361,note_on,103,0,0,,0,,,72,127
37408,note_off,47,0,0,,4,,,76,127
37464,note_on,56,0,0,,4,,,76,127
37511,note_off,47,0,0,,0,,,72,127
37567,note_on,56,0,0,,10,,,69,127
37614,note_off,47,0,0,,4,,,76,127
37670,note_on,56,0,0,,4,,,76,127
37717,note_off,47,0,0,,10,,,69,127
37771,note_off,54,0,0,,10,,,57,127
37772,note_off,1,0,0,,4,,,64,127
37773,note_on,1,0,0,,10,,,57,127
37773,note_on,0,0,0,,2,,,62,127
37773,note_on,0,0,0,,5,,,65,127
37773,note_on,0,0,0,,10,,,69,127
37820,note_off,47,0,0,,4,,,76,127
37876,note_on,56,0,0,,5,,,77,127
37923,note_off,47,0,0,,10,,,69,127
37979,note_on,56,0,0,,2,,,74,127
38026,note_off,47,0,0,,5,,,77,127
38082,note_on,56,0,0,,5,,,77,127
38129,note_off,47,0,0,,2,,,74,127
38185,note_on,56,0,0,,10,,,69,127
38232,note_off,47,0,0,,5,,,77,127
38288,note_on,56,0,0,,5,,,77,127
38335,note_off,47,0,0,,10,,,69,127
38390,note_off,55,0,0,,5,,,65,127
38390,note_off,0,0,0,,2,,,62,127
38390,note_off,0,0,0,,10,,,57,127
38391,note_on,1,0,0,,4,,,64,127
38391,note_on,0,0,0,,2,,,62,127
38391,note_on,0,0,0,,10,,,57,127
38391,note_on,0,0,0,,8,,,68,127
38391,note_on,0,0,0,,12,,,71,127
38438,note_off,47,0,0,,5,,,77,127
38494,note_on,56,0,0,,2,,,74,127
38541,note_off,47,0,0,,12,,,71,127
38597,note_on,56,0,0,,4,,,76,127
38644,note_off,47,0,0,,2,,,74,127
38700,note_on,56,0,0,,2,,,74,127
38747,note_off,47,0,0,,4,,,76,127
38803,note_on,56,0,0,,12,,,71,127
38850,note_off,47,0,0,,2,,,74,127
38906,note_on,56,0,0,,2,,,74,127
38953,note_off,47,0,0,,12,,,71,127
39008,note_off,55,0,0,,8,,,68,127
39008,note_off,0,0,0,,10,,,57,127
39008,note_off,0,0,0,,2,,,62,127
39008,note_off,0,0,0,,4,,,64,127
39009,note_on,1,0,0,,10,,,57,127
39009,note_on,0,0,0,,4,,,64,127
39009,note_on,0,0,0,,0,,,72,127
39056,note_off,47,0,0,,2,,,74,127
39112,note_on,56,0,0,,10,,,69,127
39159,note_off,47,0,0,,0,,,72,127
39215,note_on,56,0,0,,0,,,72,127
39262,note_off,47,0,0,,10,,,69,127
39318,note_on,56,0,0,,4,,,76,127
39365,note_off,47,0,0,,0,,,72,127
39421,note_on,56,0,0,,10,,,69,127
39468,note_off,47,0,0,,4,,,76,127
39524,note_on,56,0,0,,4,,,76,127
39571,note_off,47,0,0,,10,,,69,127
39626,note_off,55,0,0,,4,,,64,127
39626,note_off,0,0,0,,10,,,57,127
39627,note_on,1,0,0,,5,,,65,127
39627,note_on,0,0,0,,10,,,57,127
39627,note_on,0,0,0,,2,,,62,127
39627,note_on,0,0,0,,10,,,69,127
39674,note_off,47,0,0,,4,,,76,127
39730,note_on,56,0,0,,5,,,77,127
39777,note_off,47,0,0,,10,,,69,127
39833,note_on,56,0,0,,2,,,74,127
39880,note_off,47,0,0,,5,,,77,127
39936,note_on,56,0,0,,5,,,77,127
39983,note_off,47,0,0,,2,,,74,127
40039,note_on,56,0,0,,10,,,69,127
40086,note_off,47,0,0,,5,,,77,127
40142,note_on,56,0,0,,5,,,77,127
40189,note_off,47,0,0,,10,,,69,127
40244,note_off,55,0,0,,2,,,62,127
40244,note_off,0,0,0,,10,,,57,127
40244,note_off,0,0,0,,5,,,65,127
40245,note_on,1,0,0,,8,,,68,127
40245,note_on,0,0,0,,2,,,62,127
40245,note_on,0,0,0,,4,,,64,127
40245,note_on,0,0,0,,10,,,57,127
40245,note_on,0,0,0,,12,,,71,127
40292,note_off,47,0,0,,5,,,77,127
40348,note_on,56,0,0,,2,,,74,127
40395,note_off,47,0,0,,12,,,71,127
40451,note_on,56,0,0,,4,,,76,127
40498,note_off,47,0,0,,2,,,74,127
40554,note_on,56,0,0,,2,,,74,127
40601,note_off,47,0,0,,4,,,76,127
40657,note_on,56,0,0,,12,,,71,127
40704,note_off,47,0,0,,2,,,74,127
40760,note_on,56,0,0,,2,,,74,127
40807,note_off,47,0,0,,12,,,71,127
40862,note_off,55,0,0,,10,,,57,127
40862,note_off,0,0,0,,4,,,64,127
40862,note_off,0,0,0,,2,,,62,127
40862,note_off,0,0,0,,8,,,68,127
40863,note_on,1,0,0,,10,,,57,127
40863,note_on,0,0,0,,4,,,64,127
40863,note_on,0,0,0,,0,,,72,127
40910,note_off,47,0,0,,2,,,74,127
40966,note_on,56,0,0,,4,,,76,127
41013,note_off,47,0,0,,0,,,72,127
41069,note_on,56,0,0,,0,,,72,127
41116,note_off,47,0,0,,4,,,76,127
41172,note_on,56,0,0,,4,,,76,127
41219,note_off,47,0,0,,0,,,72,127
41275,note_on,56,0,0,,10,,,69,127
41322,note_off,47,0,0,,4,,,76,127
41378,note_on,56,0,0,,4,,,76,127
41425,note_off,47,0,0,,10,,,69,127
41480,note_off,55,0,0,,4,,,64,127
41480,note_off,0,0,0,,10,,,57,127
41481,note_on,1,0,0,,5,,,65,127
41481,note_on,0,0,0,,2,,,62,127
41481,note_on,0,0,0,,7,,,55,127
41481,note_on,0,0,0,,12,,,71,127
41528,note_off,47,0,0,,4,,,76,127
41584,note_on,56,0,0,,5,,,77,127
41631,note_off,47,0,0,,12,,,71,127
41687,note_on,56,0,0,,2,,,74,127
41734,note_off,47,0,0,,5,,,77,127
41790,note_on,56,0,0,,5,,,77,127
41837,note_off,47,0,0,,2,,,74,127
41893,note_on,56,0,0,,12,,,71,127
41940,note_off,47,0,0,,5,,,77,127
41996,note_on,56,0,0,,5,,,77,127
42043,note_off,47,0,0,,12,,,71,127
42098,note_off,55,0,0,,7,,,55,127
42098,note_off,0,0,0,,2,,,62,127
42098,note_off,0,0,0,,5,,,65,127
42099,note_on,1,0,0,,0,,,60,127
42099,note_on,0,0,0,,4,,,64,127
42099,note_on,0,0,0,,7,,,55,127
42099,note_on,0,0,0,,0,,,72,127
42146,note_off,47,0,0,,5,,,77,127
42202,note_on,56,0,0,,4,,,76,127
42249,note_off,47,0,0,,0,,,72,127
42305,note_on,56,0,0,,7,,,67,127
42352,note_off,47,0,0,,4,,,76,127
42408,note_on,56,0,0,,4,,,76,127
42455,note_off,47,0,0,,7,,,67,127
42511,note_on,56,0,0,,0,,,72,127
42558,note_off,47,0,0,,4,,,76,127
42614,note_on,56,0,0,,4,,,76,127
42661,note_off,47,0,0,,0,,,72,127
42716,note_off,55,0,0,,7,,,55,127
42716,note_off,0,0,0,,4,,,64,127
42716,note_off,0,0,0,,0,,,60,127
42717,note_on,1,0,0,,6,,,66,127
42717,note_on,0,0,0,,0,,,60,127
42717,note_on,0,0,0,,2,,,62,127
42717,note_on,0,0,0,,7,,,55,127
42717,note_on,0,0,0,,10,,,69,127
42764,note_off,47,0,0,,4,,,76,127
42820,note_on,56,0,0,,0,,,72,127
42867,note_off,47,0,0,,10,,,69,127
42923,note_on,56,0,0,,2,,,74,127
42970,note_off,47,0,0,,0,,,72,127
43026,note_on,56,0,0,,0,,,72,127
43073,note_off,47,0,0,,2,,,74,127
43129,note_on,56,0,0,,10,,,69,127
43176,note_off,47,0,0,,0,,,72,127
43232,note_on,56,0,0,,0,,,72,127
43279,note_off,47,0,0,,10,,,69,127
43334,note_off,55,0,0,,7,,,55,127
43334,note_off,0,0,0,,2,,,62,127
43334,note_off,0,0,0,,0,,,60,127
43334,note_off,0,0,0,,6,,,66,127
43335,note_on,1,0,0,,2,,,62,127
43335,note_on,0,0,0,,7,,,67,127
43335,note_on,0,0,0,,7,,,55,127
43335,note_on,0,0,0,,12,,,71,127
43382,note_off,47,0,0,,0,,,72,127
43438,note_on,56,0,0,,7,,,79,127
43485,note_off,47,0,0,,12,,,71,127
43541,note_on,56,0,0,,12,,,71,127
43588,note_off,47,0,0,,7,,,79,127
43644,note_on,56,0,0,,2,,,74,127
43691,note_off,47,0,0,,12,,,71,127
43747,note_on,56,0,0,,12,,,71,127
43794,note_off,47,0,0,,2,,,74,127
43850,note_on,56,0,0,,2,,,74,127
43897,note_off,47,0,0,,12,,,71,127
43952,note_off,55,0,0,,7,,,55,127
43952,note_off,0,0,0,,7,,,67,127
43952,note_off,0,0,0,,2,,,62,127
43953,note_on,1,0,0,,0,,,60,127
43953,note_on,0,0,0,,2,,,62,127
43953,note_on,0,0,0,,7,,,55,127
43953,note_on,0,0,0,,6,,,66,127
43953,note_on,0,0,0,,10,,,69,127
44000,note_off,47,0,0,,2,,,74,127
44056,note_on,56,0,0,,0,,,72,127
44103,note_off,47,0,0,,10,,,69,127
44159,note_on,56,0,0,,2,,,74,127
44206,note_off,47,0,0,,0,,,72,127
44262,note_on,56,0,0,,0,,,72,127
44309,note_off,47,0,0,,2,,,74,127
44365,note_on,56,0,0,,10,,,69,127
44412,note_off,47,0,0,,0,,,72,127
44468,note_on,56,0,0,,0,,,72,127
44515,note_off,47,0,0,,10,,,69,127
44570,note_off,55,0,0,,6,,,66,127
44570,note_off,0,0,0,,7,,,55,127
44570,note_off,0,0,0,,2,,,62,127
44570,note_off,0,0,0,,0,,,60,127
44571,note_on,1,0,0,,2,,,62,127
44571,note_on,0,0,0,,7,,,67,127
44571,note_on,0,0,0,,7,,,55,127
44571,note_on,0,0,0,,12,,,71,127
44618,note_off,47,0,0,,0,,,72,127
44674,note_on,56,0,0,,12,,,83,127
44721,note_off,47,0,0,,12,,,71,127
44777,note_on,56,0,0,,12,,,71,127
44824,note_off,47,0,0,,12,,,83,127
44880,note_on,56,0,0,,12,,,83,127
44927,note_off,47,0,0,,12,,,71,127
44983,note_on,56,0,0,,12,,,71,127
45030,note_off,47,0,0,,12,,,83,127
45086,note_on,56,0,0,,12,,,83,127
45133,note_off,47,0,0,,12,,,71,127
45188,note_off,55,0,0,,7,,,55,127
45188,note_off,0,0,0,,7,,,67,127
45188,note_off,0,0,0,,2,,,62,127
45189,note_on,1,0,0,,10,,,57,127
45189,note_on,0,0,0,,4,,,64,127
45189,note_on,0,0,0,,10,,,69,127
45189,note_on,0,0,0,,0,,,72,127
45236,note_off,47,0,0,,12,,,83,127
45292,note_on,56,0,0,,12,,,83,127
45339,note_off,47,0,0,,0,,,72,127
45395,note_on,56,0,0,,10,,,81,127
45442,note_off,47,0,0,,12,,,83,127
45498,note_on,56,0,0,,7,,,79,127
45545,note_off,47,0,0,,10,,,81,127
45601,note_on,56,0,0,,6,,,78,127
45648,note_off,47,0,0,,7,,,79,127
45704,note_on,56,0,0,,4,,,76,127
45751,note_off,47,0,0,,6,,,78,127
45806,note_off,55,0,0,,10,,,69,127
45806,note_off,0,0,0,,4,,,64,127
45806,note_off,0,0,0,,10,,,57,127
45807,note_on,1,0,0,,10,,,69,127
45807,note_on,0,0,0,,6,,,66,127
45807,note_on,0,0,0,,12,,,59,127
45807,note_on,0,0,0,,3,,,75,127
45854,note_off,47,0,0,,4,,,76,127
45910,note_on,56,0,0,,12,,,71,127
45957,note_off,47,0,0,,3,,,75,127
46013,note_on,56,0,0,,6,,,78,127
46060,note_off,47,0,0,,12,,,71,127
46116,note_on,56,0,0,,12,,,71,127
46163,note_off,47,0,0,,6,,,78,127
46219,note_on,56,0,0,,10,,,81,127
46266,note_off,47,0,0,,12,,,71,127
46322,note_on,56,0,0,,12,,,71,127
46369,note_off,47,0,0,,10,,,81,127
46424,note_off,55,0,0,,12,,,59,127
46424,note_off,0,0,0,,6,,,66,127
46424,note_off,0,0,0,,10,,,69,127
46425,note_on,1,0,0,,4,,,64,127
46425,note_on,0,0,0,,7,,,67,127
46425,note_on,0,0,0,,12,,,59,127
46425,note_on,0,0,0,,10,,,81,127
46472,note_off,47,0,0,,12,,,71,127
46528,note_on,56,0,0,,12,,,71,127
46575,note_off,47,0,0,,10,,,81,127
46631,note_on,56,0,0,,7,,,79,127
46678,note_off,47,0,0,,12,,,71,127
46734,note_on,56,0,0,,12,,,71,127
46781,note_off,47,0,0,,7,,,79,127
46837,note_on,56,0,0,,4,,,76,127
46884,note_off,47,0,0,,12,,,71,127
46940,note_on,56,0,0,,12,,,71,127
46987,note_off,47,0,0,,4,,,76,127
47042,note_off,55,0,0,,12,,,59,127
47042,note_off,0,0,0,,7,,,67,127
47042,note_off,0,0,0,,4,,,64,127
47043,note_on,1,0,0,,10,,,69,127
47043,note_on,0,0,0,,6,,,66,127
47043,note_on,0,0,0,,12,,,59,127
47043,note_on,0,0,0,,3,,,63,127
47043,note_on,0,0,0,,4,,,76,127
47090,note_off,47,0,0,,12,,,71,127
47146,note_on,56,0,0,,12,,,71,127
47193,note_off,47,0,0,,4,,,76,127
47249,note_on,56,0,0,,6,,,78,127
47296,note_off,47,0,0,,12,,,71,127
47352,note_on,56,0,0,,12,,,71,127
47399,note_off,47,0,0,,6,,,78,127
47455,note_on,56,0,0,,10,,,81,127
47502,note_off,47,0,0,,12,,,71,127
47558,note_on,56,0,0,,12,,,71,127
47605,note_off,47,0,0,,10,,,81,127
47660,note_off,55,0,0,,3,,,63,127
47660,note_off,0,0,0,,12,,,59,127
47660,note_off,0,0,0,,6,,,66,127
47660,note_off,0,0,0,,10,,,69,127
47661,note_on,1,0,0,,7,,,67,127
47661,note_on,0,0,0,,12,,,59,127
47661,note_on,0,0,0,,4,,,64,127
47661,note_on,0,0,0,,10,,,81,127
47708,note_off,47,0,0,,12,,,71,127
47764,note_on,56,0,0,,12,,,71,127
47811,note_off,47,0,0,,10,,,81,127
47867,note_on,56,0,0,,7,,,79,127
47914,note_off,47,0,0,,12,,,71,127
47970,note_on,56,0,0,,12,,,71,127
48017,note_off,47,0,0,,7,,,79,127
48073,note_on,56,0,0,,4,,,76,127
48120,note_off,47,0,0,,12,,,71,127
48176,note_on,56,0,0,,12,,,71,127
48223,note_off,47,0,0,,4,,,76,127
48278,note_off,55,0,0,,4,,,64,127
48278,note_off,0,0,0,,12,,,59,127
48278,note_off,0,0,0,,7,,,67,127
48279,note_on,1,0,0,,10,,,69,127
48279,note_on,0,0,0,,6,,,66,127
48279,note_on,0,0,0,,12,,,59,127
48279,note_on,0,0,0,,3,,,63,127
48279,note_on,0,0,0,,4,,,76,127
48326,note_off,47,0,0,,12,,,71,127
48382,note_on,56,0,0,,12,,,71,127
48429,note_off,47,0,0,,4,,,76,127
48485,note_on,56,0,0,,6,,,78,127
48532,note_off,47,0,0,,12,,,71,127
48588,note_on,56,0,0,,12,,,71,127
48635,note_off,47,0,0,,6,,,78,127
48691,note_on,56,0,0,,12,,,83,127
48738,note_off,47,0,0,,12,,,71,127
48794,note_on,56,0,0,,12,,,71,127
48841,note_off,47,0,0,,12,,,83,127
48896,note_off,55,0,0,,3,,,63,127
48896,note_off,0,0,0,,12,,,59,127
48896,note_off,0,0,0,,6,,,66,127
48896,note_off,0,0,0,,10,,,69,127
48897,note_on,1,0,0,,10,,,57,127
48897,note_on,0,0,0,,4,,,64,127
48897,note_on,0,0,0,,10,,,69,127
48897,note_on,0,0,0,,0,,,72,127
48944,note_off,47,0,0,,12,,,71,127
48999,note_off,55,0,0,,0,,,72,127
49000,note_on,1,0,0,,12,,,83,127
49102,note_off,102,0,0,,12,,,83,127
49103,note_on,1,0,0,,10,,,81,127
49205,note_off,102,0,0,,10,,,81,127
49206,note_on,1,0,0,,7,,,79,127
49308,note_off,102,0,0,,7,,,79,127
49309,note_on,1,0,0,,6,,,78,127
49411,note_off,102,0,0,,6,,,78,127
49412,note_on,1,0,0,,4,,,76,127
49514,note_off,102,0,0,,4,,,76,127
49514,note_off,0,0,0,,10,,,69,127
49514,note_off,0,0,0,,4,,,64,127
49514,note_off,0,0,0,,10,,,57,127
49515,note_on,1,0,0,,12,,,71,127
49515,note_on,0,0,0,,3,,,75,127
49617,note_off,102,0,0,,12,,,71,127
49618,note_on,1,0,0,,10,,,69,127
49720,note_off,102,0,0,,10,,,69,127
49720,note_off,0,0,0,,3,,,75,127
49721,note_on,1,0,0,,7,,,67,127
49721,note_on,0,0,0,,4,,,76,127
49823,note_off,102,0,0,,7,,,67,127
49824,note_on,1,0,0,,6,,,66,127
49926,note_off,102,0,0,,6,,,66,127
49926,note_off,0,0,0,,4,,,76,127
49927,note_on,1,0,0,,4,,,64,127
49927,note_on,0,0,0,,6,,,78,127
50029,note_off,102,0,0,,4,,,64,127
50030,note_on,1,0,0,,3,,,63,127
50132,note_off,102,0,0,,3,,,63,127
50132,note_off,0,0,0,,6,,,78,127
50133,note_on,1,0,0,,4,,,64,127
50133,note_on,0,0,0,,7,,,79,127
50235,note_off,102,0,0,,4,,,64,127
50236,note_on,1,0,0,,2,,,62,127
50338,note_off,102,0,0,,2,,,62,127
50338,note_off,0,0,0,,7,,,79,127
50339,note_on,1,0,0,,0,,,60,127
50339,note_on,0,0,0,,10,,,81,127
50441,note_off,102,0,0,,0,,,60,127
50442,note_on,1,0,0,,12,,,59,127
50544,note_off,102,0,0,,12,,,59,127
50544,note_off,0,0,0,,10,,,81,127
50545,note_on,1,0,0,,10,,,57,127
50545,note_on,0,0,0,,12,,,83,127
50647,note_off,102,0,0,,10,,,57,127
50648,note_on,1,0,0,,8,,,56,127
50750,note_off,102,0,0,,8,,,56,127
50750,note_off,0,0,0,,12,,,83,127
50751,note_on,1,0,0,,10,,,57,127
50751,note_on,0,0,0,,0,,,84,127
50853,note_off,102,0,0,,10,,,57,127
50854,note_on,1,0,0,,7,,,55,127
50956,note_off,102,0,0,,7,,,55,127
50957,note_on,1,0,0,,6,,,54,127
51059,note_off,102,0,0,,6,,,54,127
51060,note_on,1,0,0,,4,,,52,127
51162,note_off,102,0,0,,4,,,52,127
51163,note_on,1,0,0,,2,,,50,127
51265,note_off,102,0,0,,2,,,50,127
51266,note_on,1,0,0,,0,,,48,127
51368,note_off,102,0,0,,0,,,48,127
51368,note_off,0,0,0,,0,,,84,127
51369,note_on,1,0,0,,12,,,47,127
51369,note_on,0,0,0,,12,,,83,127
51471,note_off,102,0,0,,12,,,83,127
51472,note_on,1,0,0,,10,,,81,127
51574,note_off,102,0,0,,10,,,81,127
51575,note_on,1,0,0,,7,,,79,127
51677,note_off,102,0,0,,7,,,79,127
51678,note_on,1,0,0,,6,,,78,127
51780,note_off,102,0,0,,6,,,78,127
51780,note_off,0,0,0,,12,,,47,127
51781,note_on,1,0,0,,0,,,48,127
51781,note_on,0,0,0,,4,,,76,127
51883,note_off,102,0,0,,4,,,76,127
51884,note_on,1,0,0,,7,,,79,127
51986,note_off,102,0,0,,7,,,79,127
51986,note_off,0,0,0,,0,,,48,127
51987,note_on,1,0,0,,10,,,45,127
51987,note_on,0,0,0,,6,,,78,127
52089,note_off,102,0,0,,6,,,78,127
52090,note_on,1,0,0,,10,,,81,127
52192,note_off,102,0,0,,10,,,81,127
52192,note_off,0,0,0,,10,,,45,127
52193,note_on,1,0,0,,12,,,47,127
52193,note_on,0,0,0,,7,,,79,127
52295,note_off,102,0,0,,7,,,79,127
52296,note_on,1,0,0,,6,,,78,127
52398,note_off,102,0,0,,6,,,78,127
52398,note_off,0,0,0,,12,,,47,127
52399,note_on,1,0,0,,12,,,59,127
52399,note_on,0,0,0,,4,,,76,127
52501,note_off,102,0,0,,4,,,76,127
52502,note_on,1,0,0,,3,,,75,127
52604,note_off,102,0,0,,3,,,75,127
52604,note_off,0,0,0,,12,,,59,127
52605,note_on,1,0,0,,4,,,52,127
52605,note_on,0,0,0,,4,,,76,127
52708,note_on,103,0,0,,7,,,67,127
52777,note_off,69,0,0,,4,,,76,127
52811,note_on,34,0,0,,4,,,76,127
52880,note_off,69,0,0,,7,,,67,127
52914,note_on,34,0,0,,7,,,67,127
52983,note_off,69,0,0,,4,,,76,127
53017,note_on,34,0,0,,4,,,76,127
53086,note_off,69,0,0,,7,,,67,127
53120,note_on,34,0,0,,7,,,67,127
53189,note_off,69,0,0,,4,,,76,127
53222,note_off,33,0,0,,4,,,52,127
53223,note_on,1,0,0,,0,,,60,127
53223,note_on,0,0,0,,4,,,52,127
53223,note_on,0,0,0,,4,,,76,127
53292,note_off,69,0,0,,7,,,67,127
53326,note_on,34,0,0,,7,,,67,127
53395,note_off,69,0,0,,4,,,76,127
53429,note_on,34,0,0,,4,,,76,127
53498,note_off,69,0,0,,7,,,67,127
53532,note_on,34,0,0,,7,,,67,127
53601,note_off,69,0,0,,4,,,76,127
53635,note_on,34,0,0,,4,,,76,127
53704,note_off,69,0,0,,7,,,67,127
53738,note_on,34,0,0,,7,,,67,127
53807,note_off,69,0,0,,4,,,76,127
53840,note_off,33,0,0,,4,,,52,127
53840,note_off,0,0,0,,0,,,60,127
53841,note_on,1,0,0,,2,,,50,127
53841,note_on,0,0,0,,0,,,60,127
53841,note_on,0,0,0,,5,,,77,127
53910,note_off,69,0,0,,7,,,67,127
53944,note_on,34,0,0,,10,,,69,127
54013,note_off,69,0,0,,5,,,77,127
54047,note_on,34,0,0,,5,,,77,127
54116,note_off,69,0,0,,10,,,69,127
54150,note_on,34,0,0,,10,,,69,127
54219,note_off,69,0,0,,5,,,77,127
54253,note_on,34,0,0,,5,,,77,127
54322,note_off,69,0,0,,10,,,69,127
54356,note_on,34,0,0,,10,,,69,127
54425,note_off,69,0,0,,5,,,77,127
54458,note_off,33,0,0,,0,,,60,127
54458,note_off,0,0,0,,2,,,50,127
54459,note_on,1,0,0,,2,,,50,127
54459,note_on,0,0,0,,12,,,59,127
54459,note_on,0,0,0,,5,,,77,127
54528,note_off,69,0,0,,10,,,69,127
54562,note_on,34,0,0,,12,,,71,127
54631,note_off,69,0,0,,5,,,77,127
54665,note_on,34,0,0,,5,,,77,127
54734,note_off,69,0,0,,12,,,71,127
54768,note_on,34,0,0,,12,,,71,127
54837,note_off,69,0,0,,5,,,77,127
54871,note_on,34,0,0,,5,,,77,127
54940,note_off,69,0,0,,12,,,71,127
54974,note_on,34,0,0,,12,,,71,127
55043,note_off,69,0,0,,5,,,77,127
55076,note_off,33,0,0,,12,,,59,127
55076,note_off,0,0,0,,2,,,50,127
55077,note_on,1,0,0,,0,,,48,127
55077,note_on,0,0,0,,0,,,60,127
55077,note_on,0,0,0,,4,,,76,127
55146,note_off,69,0,0,,12,,,71,127
55180,note_on,34,0,0,,7,,,67,127
55249,note_off,69,0,0,,4,,,76,127
55283,note_on,34,0,0,,4,,,76,127
55352,note_off,69,0,0,,7,,,67,127
55386,note_on,34,0,0,,7,,,67,127
55455,note_off,69,0,0,,4,,,76,127
55489,note_on,34,0,0,,4,,,76,127
55558,note_off,69,0,0,,7,,,67,127
55592,note_on,34,0,0,,7,,,67,127
55661,note_off,69,0,0,,4,,,76,127
55694,note_off,33,0,0,,0,,,60,127
55694,note_off,0,0,0,,0,,,48,127
55695,note_on,1,0,0,,0,,,48,127
55695,note_on,0,0,0,,11,,,58,127
55695,note_on,0,0,0,,4,,,76,127
55764,note_off,69,0,0,,7,,,67,127
55798,note_on,34,0,0,,7,,,67,127
55867,note_off,69,0,0,,4,,,76,127
55901,note_on,34,0,0,,4,,,76,127
55970,note_off,69,0,0,,7,,,67,127
56004,note_on,34,0,0,,7,,,67,127
56073,note_off,69,0,0,,4,,,76,127
56107,note_on,34,0,0,,4,,,76,127
56176,note_off,69,0,0,,7,,,67,127
56210,note_on,34,0,0,,7,,,67,127
56279,note_off,69,0,0,,4,,,76,127
56312,note_off,33,0,0,,11,,,58,127
56312,note_off,0,0,0,,0,,,48,127
56313,note_on,1,0,0,,7,,,55,127
56313,note_on,0,0,0,,10,,,57,127
56313,note_on,0,0,0,,1,,,49,127
56313,note_on,0,0,0,,4,,,76,127
56382,note_off,69,0,0,,7,,,67,127
56416,note_on,34,0,0,,7,,,67,127
56485,note_off,69,0,0,,4,,,76,127
56519,note_on,34,0,0,,4,,,76,127
56588,note_off,69,0,0,,7,,,67,127
56622,note_on,34,0,0,,7,,,67,127
56691,note_off,69,0,0,,4,,,76,127
56725,note_on,34,0,0,,4,,,76,127
56794,note_off,69,0,0,,7,,,67,127
56828,note_on,34,0,0,,7,,,67,127
56897,note_off,69,0,0,,4,,,76,127
56930,note_off,33,0,0,,1,,,49,127
56930,note_off,0,0,0,,10,,,57,127
56930,note_off,0,0,0,,7,,,55,127
56931,note_on,1,0,0,,10,,,57,127
56931,note_on,0,0,0,,7,,,55,127
56931,note_on,0,0,0,,1,,,49,127
56931,note_on,0,0,0,,4,,,76,127
57000,note_off,69,0,0,,7,,,67,127
57034,note_on,34,0,0,,7,,,67,127
57103,note_off,69,0,0,,4,,,76,127
57137,note_on,34,0,0,,4,,,76,127
57206,note_off,69,0,0,,7,,,67,127
57240,note_on,34,0,0,,7,,,67,127
57309,note_off,69,0,0,,4,,,76,127
57343,note_on,34,0,0,,4,,,76,127
57412,note_off,69,0,0,,7,,,67,127
57446,note_on,34,0,0,,7,,,67,127
57515,note_off,69,0,0,,4,,,76,127
57548,note_off,33,0,0,,1,,,49,127
57548,note_off,0,0,0,,7,,,55,127
57548,note_off,0,0,0,,10,,,57,127
57549,note_on,1,0,0,,7,,,55,127
57549,note_on,0,0,0,,11,,,58,127
57549,note_on,0,0,0,,2,,,50,127
57549,note_on,0,0,0,,4,,,76,127
57618,note_off,69,0,0,,7,,,67,127
57652,note_on,34,0,0,,7,,,67,127
57721,note_off,69,0,0,,4,,,76,127
57755,note_on,34,0,0,,4,,,76,127
57824,note_off,69,0,0,,7,,,67,127
57858,note_on,34,0,0,,7,,,67,127
57927,note_off,69,0,0,,4,,,76,127
57961,note_on,34,0,0,,4,,,76,127
58030,note_off,69,0,0,,7,,,67,127
58064,note_on,34,0,0,,7,,,67,127
58133,note_off,69,0,0,,4,,,76,127
58166,note_off,33,0,0,,2,,,50,127
58166,note_off,0,0,0,,11,,,58,127
58166,note_off,0,0,0,,7,,,55,127
58167,note_on,1,0,0,,7,,,55,127
58167,note_on,0,0,0,,11,,,58,127
58167,note_on,0,0,0,,2,,,50,127
58167,note_on,0,0,0,,4,,,76,127
58236,note_off,69,0,0,,7,,,67,127
58270,note_on,34,0,0,,7,,,67,127
58339,note_off,69,0,0,,4,,,76,127
58373,note_on,34,0,0,,4,,,76,127
58442,note_off,69,0,0,,7,,,67,127
58476,note_on,34,0,0,,7,,,67,127
58545,note_off,69,0,0,,4,,,76,127
58579,note_on,34,0,0,,4,,,76,127
58648,note_off,69,0,0,,7,,,67,127
58682,note_on,34,0,0,,7,,,67,127
58751,note_off,69,0,0,,4,,,76,127
58784,note_off,33,0,0,,2,,,50,127
58784,note_off,0,0,0,,11,,,58,127
58784,note_off,0,0,0,,7,,,55,127
58785,note_on,1,0,0,,4,,,52,127
58785,note_on,0,0,0,,7,,,55,127
58785,note_on,0,0,0,,1,,,49,127
58785,note_on,0,0,0,,4,,,76,127
58854,note_off,69,0,0,,7,,,67,127
58888,note_on,34,0,0,,7,,,67,127
58957,note_off,69,0,0,,4,,,76,127
58991,note_on,34,0,0,,4,,,76,127
59060,note_off,69,0,0,,7,,,67,127
59094,note_on,34,0,0,,11,,,70,127
59163,note_off,69,0,0,,4,,,76,127
59197,note_on,34,0,0,,4,,,76,127
59266,note_off,69,0,0,,11,,,70,127
59300,note_on,34,0,0,,11,,,70,127
59369,note_off,69,0,0,,4,,,76,127
59402,note_off,33,0,0,,1,,,49,127
59402,note_off,0,0,0,,7,,,55,127
59402,note_off,0,0,0,,4,,,52,127
59403,note_on,1,0,0,,4,,,52,127
59403,note_on,0,0,0,,7,,,55,127
59403,note_on,0,0,0,,1,,,49,127
59403,note_on,0,0,0,,4,,,76,127
59472,note_off,69,0,0,,11,,,70,127
59506,note_on,34,0,0,,11,,,70,127
59575,note_off,69,0,0,,4,,,76,127
59609,note_on,34,0,0,,4,,,76,127
59678,note_off,69,0,0,,11,,,70,127
59712,note_on,34,0,0,,11,,,70,127
59781,note_off,69,0,0,,4,,,76,127
59815,note_on,34,0,0,,4,,,76,127
59884,note_off,69,0,0,,11,,,70,127
59918,note_on,34,0,0,,11,,,70,127
59987,note_off,69,0,0,,4,,,76,127
60020,note_off,33,0,0,,1,,,49,127
60020,note_off,0,0,0,,7,,,55,127
60020,note_off,0,0,0,,4,,,52,127
60021,note_on,1,0,0,,4,,,52,127
60021,note_on,0,0,0,,7,,,55,127
60021,note_on,0,0,0,,12,,,47,127
60021,note_on,0,0,0,,4,,,76,127
60090,note_off,69,0,0,,11,,,70,127
60124,note_on,34,0,0,,12,,,71,127
60193,note_off,69,0,0,,4,,,76,127
60227,note_on,34,0,0,,4,,,76,127
60296,note_off,69,0,0,,12,,,71,127
60330,note_on,34,0,0,,12,,,71,127
60399,note_off,69,0,0,,4,,,76,127
60433,note_on,34,0,0,,4,,,76,127
60502,note_off,69,0,0,,12,,,71,127
60536,note_on,34,0,0,,12,,,71,127
60605,note_off,69,0,0,,4,,,76,127
60638,note_off,33,0,0,,12,,,47,127
60638,note_off,0,0,0,,7,,,55,127
60638,note_off,0,0,0,,4,,,52,127
60639,note_on,1,0,0,,12,,,47,127
60639,note_on,0,0,0,,4,,,52,127
60639,note_on,0,0,0,,7,,,55,127
60639,note_on,0,0,0,,4,,,76,127
60708,note_off,69,0,0,,12,,,71,127
60742,note_on,34,0,0,,12,,,71,127
60811,note_off,69,0,0,,4,,,76,127
60845,note_on,34,0,0,,4,,,76,127
60914,note_off,69,0,0,,12,,,71,127
60948,note_on,34,0,0,,12,,,71,127
61017,note_off,69,0,0,,4,,,76,127
61051,note_on,34,0,0,,4,,,76,127
61120,note_off,69,0,0,,12,,,71,127
61154,note_on,34,0,0,,12,,,71,127
61223,note_off,69,0,0,,4,,,76,127
61256,note_off,33,0,0,,7,,,55,127
61256,note_off,0,0,0,,4,,,52,127
61256,note_off,0,0,0,,12,,,47,127
61257,note_on,1,0,0,,11,,,46,127
61257,note_on,0,0,0,,4,,,52,127
61257,note_on,0,0,0,,6,,,54,127
61257,note_on,0,0,0,,1,,,73,127
61257,note_on,0,0,0,,4,,,76,127
61326,note_off,69,0,0,,12,,,71,127
61360,note_on,34,0,0,,6,,,66,127
61429,note_off,69,0,0,,4,,,76,127
61429,note_off,0,0,0,,1,,,73,127
61463,note_on,34,0,0,,4,,,76,127
61463,note_on,0,0,0,,1,,,73,127
61532,note_off,69,0,0,,6,,,66,127
61566,note_on,34,0,0,,6,,,66,127
61635,note_off,69,0,0,,1,,,73,127
61635,note_off,0,0,0,,4,,,76,127
61669,note_on,34,0,0,,1,,,73,127
61669,note_on,0,0,0,,4,,,76,127
61738,note_off,69,0,0,,6,,,66,127
61772,note_on,34,0,0,,6,,,66,127
61841,note_off,69,0,0,,4,,,76,127
61841,note_off,0,0,0,,1,,,73,127
61874,note_off,33,0,0,,6,,,54,127
61874,note_off,0,0,0,,4,,,52,127
61874,note_off,0,0,0,,11,,,46,127
61875,note_on,1,0,0,,6,,,54,127
61875,note_on,0,0,0,,4,,,52,127
61875,note_on,0,0,0,,11,,,46,127
61875,note_on,0,0,0,,4,,,76,127
61875,note_on,0,0,0,,1,,,73,127
61944,note_off,69,0,0,,6,,,66,127
61978,note_on,34,0,0,,6,,,66,127
62047,note_off,69,0,0,,1,,,73,127
62047,note_off,0,0,0,,4,,,76,127
62081,note_on,34,0,0,,4,,,76,127
62081,note_on,0,0,0,,1,,,73,127
62150,note_off,69,0,0,,6,,,66,127
62184,note_on,34,0,0,,6,,,66,127
62253,note_off,69,0,0,,1,,,73,127
62253,note_off,0,0,0,,4,,,76,127
62287,note_on,34,0,0,,1,,,73,127
62287,note_on,0,0,0,,4,,,76,127
62356,note_off,69,0,0,,6,,,66,127
62390,note_on,34,0,0,,6,,,66,127
62459,note_off,69,0,0,,4,,,76,127
62459,note_off,0,0,0,,1,,,73,127
62492,note_off,33,0,0,,11,,,46,127
62492,note_off,0,0,0,,4,,,52,127
62492,note_off,0,0,0,,6,,,54,127
62493,note_on,1,0,0,,12,,,59,127
62493,note_on,0,0,0,,12,,,47,127
62493,note_on,0,0,0,,6,,,54,127
62493,note_on,0,0,0,,2,,,74,127
62562,note_off,69,0,0,,6,,,66,127
62596,note_on,34,0,0,,6,,,66,127
62665,note_off,69,0,0,,2,,,74,127
62699,note_on,34,0,0,,2,,,74,127
62768,note_off,69,0,0,,6,,,66,127
62802,note_on,34,0,0,,6,,,66,127
62871,note_off,69,0,0,,2,,,74,127
62905,note_on,34,0,0,,2,,,74,127
62974,note_off,69,0,0,,6,,,66,127
63008,note_on,34,0,0,,6,,,66,127
63077,note_off,69,0,0,,2,,,74,127
63110,note_off,33,0,0,,6,,,54,127
63110,note_off,0,0,0,,12,,,47,127
63110,note_off,0,0,0,,12,,,59,127
63111,note_on,1,0,0,,12,,,59,127
63111,note_on,0,0,0,,4,,,52,127
63111,note_on,0,0,0,,2,,,74,127
63180,note_off,69,0,0,,6,,,66,127
63214,note_on,34,0,0,,8,,,68,127
63283,note_off,69,0,0,,2,,,74,127
63317,note_on,34,0,0,,2,,,74,127
63386,note_off,69,0,0,,8,,,68,127
63420,note_on,34,0,0,,8,,,68,127
63489,note_off,69,0,0,,2,,,74,127
63523,note_on,34,0,0,,2,,,74,127
63592,note_off,69,0,0,,8,,,68,127
63626,note_on,34,0,0,,8,,,68,127
63695,note_off,69,0,0,,2,,,74,127
63728,note_off,33,0,0,,4,,,52,127
63728,note_off,0,0,0,,12,,,59,127
63729,note_on,1,0,0,,10,,,57,127
63729,note_on,0,0,0,,4,,,52,127
63729,note_on,0,0,0,,10,,,45,127
63729,note_on,0,0,0,,0,,,72,127
63798,note_off,69,0,0,,8,,,68,127
63832,note_on,34,0,0,,10,,,69,127
63901,note_off,69,0,0,,0,,,72,127
63935,note_on,34,0,0,,4,,,76,127
64004,note_off,69,0,0,,10,,,69,127
64038,note_on,34,0,0,,10,,,69,127
64107,note_off,69,0,0,,4,,,76,127
64141,note_on,34,0,0,,0,,,72,127
64210,note_off,69,0,0,,10,,,69,127
64244,note_on,34,0,0,,10,,,69,127
64313,note_off,69,0,0,,0,,,72,127
64346,note_off,33,0,0,,10,,,45,127
64346,note_off,0,0,0,,4,,,52,127
64346,note_off,0,0,0,,10,,,57,127
64347,note_on,1,0,0,,10,,,57,127
64347,note_on,0,0,0,,4,,,52,127
64347,note_on,0,0,0,,6,,,54,127
64347,note_on,0,0,0,,12,,,47,127
64347,note_on,0,0,0,,3,,,75,127
64416,note_off,69,0,0,,10,,,69,127
64450,note_on,34,0,0,,10,,,69,127
64519,note_off,69,0,0,,3,,,75,127
64553,note_on,34,0,0,,12,,,71,127
64622,note_off,69,0,0,,10,,,69,127
64656,note_on,34,0,0,,10,,,69,127
64725,note_off,69,0,0,,12,,,71,127
64759,note_on,34,0,0,,3,,,75,127
64828,note_off,69,0,0,,10,,,69,127
64862,note_on,34,0,0,,10,,,69,127
64931,note_off,69,0,0,,3,,,75,127
64964,note_off,33,0,0,,12,,,47,127
64964,note_off,0,0,0,,6,,,54,127
64964,note_off,0,0,0,,4,,,52,127
64964,note_off,0,0,0,,10,,,57,127
64965,note_on,1,0,0,,12,,,59,127
64965,note_on,0,0,0,,4,,,52,127
64965,note_on,0,0,0,,4,,,76,127
65034,note_off,69,0,0,,10,,,69,127
65068,note_on,34,0,0,,7,,,67,127
65137,note_off,69,0,0,,4,,,76,127
65171,note_on,34,0,0,,12,,,71,127
65240,note_off,69,0,0,,7,,,67,127
65274,note_on,34,0,0,,7,,,67,127
65343,note_off,69,0,0,,12,,,71,127
65377,note_on,34,0,0,,4,,,76,127
65446,note_off,69,0,0,,7,,,67,127
65480,note_on,34,0,0,,7,,,67,127
65549,note_off,69,0,0,,4,,,76,127
65582,note_off,33,0,0,,4,,,52,127
65582,note_off,0,0,0,,12,,,59,127
65583,note_on,1,0,0,,0,,,60,127
65583,note_on,0,0,0,,7,,,55,127
65583,note_on,0,0,0,,10,,,57,127
65583,note_on,0,0,0,,2,,,50,127
65583,note_on,0,0,0,,6,,,78,127
65652,note_off,69,0,0,,7,,,67,127
65686,note_on,34,0,0,,10,,,69,127
65755,note_off,69,0,0,,6,,,78,127
65789,note_on,34,0,0,,0,,,72,127
65858,note_off,69,0,0,,10,,,69,127
65892,note_on,34,0,0,,10,,,69,127
65961,note_off,69,0,0,,0,,,72,127
65995,note_on,34,0,0,,6,,,78,127
66064,note_off,69,0,0,,10,,,69,127
66098,note_on,34,0,0,,10,,,69,127
66167,note_off,69,0,0,,6,,,78,127
66200,note_off,33,0,0,,2,,,50,127
66200,note_off,0,0,0,,10,,,57,127
66200,note_off,0,0,0,,7,,,55,127
66200,note_off,0,0,0,,0,,,60,127
66201,note_on,1,0,0,,2,,,50,127
66201,note_on,0,0,0,,7,,,55,127
66201,note_on,0,0,0,,7,,,43,127
66201,note_on,0,0,0,,7,,,79,127
66270,note_off,69,0,0,,10,,,69,127
66304,note_on,34,0,0,,12,,,71,127
66373,note_off,69,0,0,,7,,,79,127
66407,note_on,34,0,0,,2,,,74,127
66476,note_off,69,0,0,,12,,,71,127
66510,note_on,34,0,0,,12,,,71,127
66579,note_off,69,0,0,,2,,,74,127
66613,note_on,34,0,0,,7,,,79,127
66682,note_off,69,0,0,,12,,,71,127
66716,note_on,34,0,0,,12,,,71,127
66785,note_off,69,0,0,,7,,,79,127
66818,note_off,33,0,0,,7,,,43,127
66818,note_off,0,0,0,,7,,,55,127
66818,note_off,0,0,0,,2,,,50,127
66819,note_on,1,0,0,,7,,,55,127
66819,note_on,0,0,0,,2,,,50,127
66819,note_on,0,0,0,,4,,,52,127
66819,note_on,0,0,0,,10,,,45,127
66819,note_on,0,0,0,,7,,,79,127
66888,note_off,69,0,0,,12,,,71,127
66922,note_on,34,0,0,,10,,,69,127
66991,note_off,69,0,0,,7,,,79,127
67025,note_on,34,0,0,,1,,,73,127
67094,note_off,69,0,0,,10,,,69,127
67128,note_on,34,0,0,,10,,,69,127
67197,note_off,69,0,0,,1,,,73,127
67231,note_on,34,0,0,,7,,,79,127
67300,note_off,69,0,0,,10,,,69,127
67334,note_on,34,0,0,,10,,,69,127
67403,note_off,69,0,0,,7,,,79,127
67436,note_off,33,0,0,,10,,,45,127
67436,note_off,0,0,0,,4,,,52,127
67436,note_off,0,0,0,,2,,,50,127
67436,note_off,0,0,0,,7,,,55,127
67437,note_on,1,0,0,,10,,,57,127
67437,note_on,0,0,0,,2,,,50,127
67437,note_on,0,0,0,,5,,,77,127
67506,note_off,69,0,0,,10,,,69,127
67540,note_on,34,0,0,,10,,,69,127
67609,note_off,69,0,0,,5,,,77,127
67643,note_on,34,0,0,,2,,,74,127
67712,note_off,69,0,0,,10,,,69,127
67746,note_on,34,0,0,,10,,,69,127
67815,note_off,69,0,0,,2,,,74,127
67849,note_on,34,0,0,,5,,,77,127
67918,note_off,69,0,0,,10,,,69,127
67952,note_on,34,0,0,,10,,,69,127
68021,note_off,69,0,0,,5,,,77,127
68054,note_off,33,0,0,,2,,,50,127
68054,note_off,0,0,0,,10,,,57,127
68055,note_on,1,0,0,,12,,,59,127
68055,note_on,0,0,0,,2,,,62,127
68055,note_on,0,0,0,,10,,,57,127
68055,note_on,0,0,0,,4,,,52,127
68055,note_on,0,0,0,,8,,,80,127
68124,note_off,69,0,0,,10,,,69,127
68158,note_on,34,0,0,,12,,,71,127
68227,note_off,69,0,0,,8,,,80,127
68261,note_on,34,0,0,,2,,,74,127
68330,note_off,69,0,0,,12,,,71,127
68364,note_on,34,0,0,,12,,,71,127
68433,note_off,69,0,0,,2,,,74,127
68467,note_on,34,0,0,,8,,,80,127
68536,note_off,69,0,0,,12,,,71,127
68570,note_on,34,0,0,,12,,,71,127
68639,note_off,69,0,0,,8,,,80,127
68672,note_off,33,0,0,,4,,,52,127
68672,note_off,0,0,0,,10,,,57,127
68672,note_off,0,0,0,,2,,,62,127
68672,note_off,0,0,0,,12,,,59,127
68673,note_on,1,0,0,,10,,,57,127
68673,note_on,0,0,0,,4,,,64,127
68673,note_on,0,0,0,,10,,,81,127
68742,note_off,69,0,0,,12,,,71,127
68776,note_on,34,0,0,,0,,,72,127
68845,note_off,69,0,0,,10,,,81,127
68879,note_on,34,0,0,,4,,,76,127
68948,note_off,69,0,0,,0,,,72,127
68982,note_on,34,0,0,,0,,,72,127
69051,note_off,69,0,0,,4,,,76,127
69085,note_on,34,0,0,,10,,,81,127
69154,note_off,69,0,0,,0,,,72,127
69188,note_on,34,0,0,,0,,,72,127
69257,note_off,69,0,0,,10,,,81,127
69290,note_off,33,0,0,,4,,,64,127
69290,note_off,0,0,0,,10,,,57,127
69291,note_on,1,0,0,,12,,,59,127
69291,note_on,0,0,0,,2,,,62,127
69291,note_on,0,0,0,,5,,,65,127
69291,note_on,0,0,0,,7,,,55,127
69291,note_on,0,0,0,,12,,,83,127
69360,note_off,69,0,0,,0,,,72,127
69394,note_on,34,0,0,,2,,,74,127
69463,note_off,69,0,0,,12,,,83,127
69497,note_on,34,0,0,,5,,,77,127
69566,note_off,69,0,0,,2,,,74,127
69600,note_on,34,0,0,,2,,,74,127
69669,note_off,69,0,0,,5,,,77,127
69703,note_on,34,0,0,,12,,,83,127
69772,note_off,69,0,0,,2,,,74,127
69806,note_on,34,0,0,,2,,,74,127
69875,note_off,69,0,0,,12,,,83,127
69908,note_off,33,0,0,,7,,,55,127
69908,note_off,0,0,0,,5,,,65,127
69908,note_off,0,0,0,,2,,,62,127
69908,note_off,0,0,0,,12,,,59,127
69909,note_on,1,0,0,,0,,,60,127
69909,note_on,0,0,0,,7,,,55,127
69909,note_on,0,0,0,,0,,,48,127
69909,note_on,0,0,0,,0,,,84,127
69978,note_off,69,0,0,,2,,,74,127
70012,note_on,34,0,0,,4,,,76,127
70081,note_off,69,0,0,,0,,,84,127
70115,note_on,34,0,0,,7,,,79,127
70184,note_off,69,0,0,,4,,,76,127
70218,note_on,34,0,0,,4,,,76,127
70287,note_off,69,0,0,,7,,,79,127
70321,note_on,34,0,0,,0,,,84,127
70390,note_off,69,0,0,,4,,,76,127
70424,note_on,34,0,0,,4,,,76,127
70493,note_off,69,0,0,,0,,,84,127
70526,note_off,33,0,0,,0,,,48,127
70526,note_off,0,0,0,,7,,,55,127
70526,note_off,0,0,0,,0,,,60,127
70527,note_on,1,0,0,,0,,,60,127
70527,note_on,0,0,0,,7,,,55,127
70527,note_on,0,0,0,,10,,,57,127
70527,note_on,0,0,0,,2,,,50,127
70527,note_on,0,0,0,,0,,,84,127
70596,note_off,69,0,0,,4,,,76,127
70630,note_on,34,0,0,,2,,,74,127
70699,note_off,69,0,0,,0,,,84,127
70733,note_on,34,0,0,,6,,,78,127
70802,note_off,69,0,0,,2,,,74,127
70836,note_on,34,0,0,,2,,,74,127
70905,note_off,69,0,0,,6,,,78,127
70939,note_on,34,0,0,,0,,,84,127
71008,note_off,69,0,0,,2,,,74,127
71042,note_on,34,0,0,,2,,,74,127
71111,note_off,69,0,0,,0,,,84,127
71144,note_off,33,0,0,,2,,,50,127
71144,note_off,0,0,0,,10,,,57,127
71144,note_off,0,0,0,,7,,,55,127
71144,note_off,0,0,0,,0,,,60,127
71145,note_on,1,0,0,,2,,,62,127
71145,note_on,0,0,0,,7,,,55,127
71145,note_on,0,0,0,,12,,,83,127
71214,note_off,69,0,0,,2,,,74,127
71248,note_on,34,0,0,,2,,,74,127
71317,note_off,69,0,0,,12,,,83,127
71351,note_on,34,0,0,,7,,,79,127
71420,note_off,69,0,0,,2,,,74,127
71454,note_on,34,0,0,,2,,,74,127
71523,note_off,69,0,0,,7,,,79,127
71557,note_on,34,0,0,,12,,,83,127
71626,note_off,69,0,0,,2,,,74,127
71660,note_on,34,0,0,,2,,,74,127
71729,note_off,69,0,0,,12,,,83,127
71762,note_off,33,0,0,,7,,,55,127
71762,note_off,0,0,0,,2,,,62,127
71763,note_on,1,0,0,,10,,,45,127
71763,note_on,0,0,0,,2,,,50,127
71763,note_on,0,0,0,,4,,,52,127
71763,note_on,0,0,0,,7,,,55,127
71763,note_on,0,0,0,,1,,,85,127
71832,note_off,69,0,0,,2,,,74,127
71866,note_on,34,0,0,,4,,,76,127
71935,note_off,69,0,0,,1,,,85,127
71969,note_on,34,0,0,,7,,,79,127
72038,note_off,69,0,0,,4,,,76,127
72072,note_on,34,0,0,,4,,,76,127
72141,note_off,69,0,0,,7,,,79,127
72175,note_on,34,0,0,,1,,,85,127
72244,note_off,69,0,0,,4,,,76,127
72278,note_on,34,0,0,,4,,,76,127
72347,note_off,69,0,0,,1,,,85,127
72380,note_off,33,0,0,,7,,,55,127
72380,note_off,0,0,0,,4,,,52,127
72380,note_off,0,0,0,,2,,,50,127
72380,note_off,0,0,0,,10,,,45,127
72381,note_on,1,0,0,,2,,,62,127
72381,note_on,0,0,0,,2,,,50,127
72381,note_on,0,0,0,,10,,,57,127
72381,note_on,0,0,0,,2,,,86,127
72450,note_off,69,0,0,,4,,,76,127
72484,note_on,34,0,0,,2,,,74,127
72553,note_off,69,0,0,,2,,,86,127
72587,note_on,34,0,0,,6,,,78,127
72656,note_off,69,0,0,,2,,,74,127
72690,note_on,34,0,0,,2,,,74,127
72759,note_off,69,0,0,,6,,,78,127
72793,note_on,34,0,0,,2,,,86,127
72862,note_off,69,0,0,,2,,,74,127
72896,note_on,34,0,0,,2,,,74,127
72965,note_off,69,0,0,,2,,,86,127
72998,note_off,33,0,0,,10,,,57,127
72998,note_off,0,0,0,,2,,,50,127
72998,note_off,0,0,0,,2,,,62,127
72999,note_on,1,0,0,,2,,,62,127
72999,note_on,0,0,0,,10,,,57,127
72999,note_on,0,0,0,,12,,,59,127
72999,note_on,0,0,0,,4,,,52,127
72999,note_on,0,0,0,,2,,,86,127
73068,note_off,69,0,0,,2,,,74,127
73102,note_on,34,0,0,,4,,,76,127
73171,note_off,69,0,0,,2,,,86,127
73205,note_on,34,0,0,,8,,,80,127
73274,note_off,69,0,0,,4,,,76,127
73308,note_on,34,0,0,,4,,,76,127
73377,note_off,69,0,0,,8,,,80,127
73411,note_on,34,0,0,,2,,,86,127
73480,note_off,69,0,0,,4,,,76,127
73514,note_on,34,0,0,,4,,,76,127
73583,note_off,69,0,0,,2,,,86,127
73616,note_off,33,0,0,,4,,,52,127
73616,note_off,0,0,0,,12,,,59,127
73616,note_off,0,0,0,,10,,,57,127
73616,note_off,0,0,0,,2,,,62,127
73617,note_on,1,0,0,,10,,,57,127
73617,note_on,0,0,0,,4,,,52,127
73617,note_on,0,0,0,,10,,,45,127
73617,note_on,0,0,0,,1,,,85,127
73686,note_off,69,0,0,,4,,,76,127
73719,note_off,33,0,0,,1,,,85,127
73720,note_on,1,0,0,,12,,,83,127
73822,note_off,102,0,0,,12,,,83,127
73823,note_on,1,0,0,,10,,,81,127
73925,note_off,102,0,0,,10,,,81,127
73926,note_on,1,0,0,,7,,,79,127
74028,note_off,102,0,0,,7,,,79,127
74029,note_on,1,0,0,,6,,,78,127
74131,note_off,102,0,0,,6,,,78,127
74132,note_on,1,0,0,,4,,,76,127
74234,note_off,102,0,0,,4,,,76,127
74234,note_off,0,0,0,,10,,,45,127
74234,note_off,0,0,0,,4,,,52,127
74234,note_off,0,0,0,,10,,,57,127
74235,note_on,1,0,0,,2,,,50,127
74235,note_on,0,0,0,,10,,,57,127
74235,note_on,0,0,0,,2,,,74,127
74337,note_off,102,0,0,,2,,,74,127
74338,note_on,1,0,0,,1,,,73,127
74440,note_off,102,0,0,,1,,,73,127
74441,note_on,1,0,0,,12,,,71,127
74543,note_off,102,0,0,,12,,,71,127
74544,note_on,1,0,0,,10,,,69,127
74646,note_off,102,0,0,,10,,,69,127
74647,note_on,1,0,0,,7,,,67,127
74749,note_off,102,0,0,,7,,,67,127
74750,note_on,1,0,0,,6,,,66,127
74852,note_off,102,0,0,,6,,,66,127
74852,note_off,0,0,0,,10,,,57,127
74852,note_off,0,0,0,,2,,,50,127
74853,note_on,1,0,0,,2,,,50,127
74853,note_on,0,0,0,,7,,,55,127
74853,note_on,0,0,0,,7,,,43,127
74853,note_on,0,0,0,,7,,,67,127
74955,note_off,102,0,0,,7,,,67,127
74956,note_on,1,0,0,,6,,,66,127
75058,note_off,102,0,0,,6,,,66,127
75059,note_on,1,0,0,,4,,,64,127
75161,note_off,102,0,0,,4,,,64,127
75162,note_on,1,0,0,,2,,,62,127
75264,note_off,102,0,0,,2,,,62,127
75265,note_on,1,0,0,,1,,,61,127
75367,note_off,102,0,0,,1,,,61,127
75368,note_on,1,0,0,,12,,,59,127
75470,note_off,102,0,0,,12,,,59,127
75470,note_off,0,0,0,,7,,,43,127
75470,note_off,0,0,0,,7,,,55,127
75470,note_off,0,0,0,,2,,,50,127
75471,note_on,1,0,0,,10,,,45,127
75471,note_on,0,0,0,,12,,,59,127
75522,note_on,51,0,0,,10,,,57,127
75535,note_off,13,0,0,,12,,,59,127
75574,note_on,39,0,0,,12,,,59,127
75587,note_off,13,0,0,,10,,,57,127
75626,note_on,39,0,0,,10,,,57,127
75639,note_off,13,0,0,,12,,,59,127
75678,note_on,39,0,0,,12,,,59,127
75691,note_off,13,0,0,,10,,,57,127
75730,note_on,39,0,0,,10,,,57,127
75743,note_off,13,0,0,,12,,,59,127
75782,note_on,39,0,0,,12,,,59,127
75795,note_off,13,0,0,,10,,,57,127
75834,note_on,39,0,0,,10,,,57,127
75847,note_off,13,0,0,,12,,,59,127
75886,note_on,39,0,0,,12,,,59,127
75899,note_off,13,0,0,,10,,,57,127
75938,note_on,39,0,0,,10,,,57,127
75951,note_off,13,0,0,,12,,,59,127
75990,note_on,39,0,0,,12,,,59,127
76003,note_off,13,0,0,,10,,,57,127
76042,note_on,39,0,0,,10,,,57,127
76055,note_off,13,0,0,,12,,,59,127
76092,note_off,37,0,0,,10,,,45,127
76093,note_on,1,0,0,,10,,,69,127
76195,note_off,102,0,0,,10,,,69,127
76196,note_on,1,0,0,,7,,,67,127
76298,note_off,102,0,0,,7,,,67,127
76299,note_on,1,0,0,,6,,,66,127
76401,note_off,102,0,0,,6,,,66,127
76402,note_on,1,0,0,,4,,,64,127
76504,note_off,102,0,0,,4,,,64,127
76505,note_on,1,0,0,,2,,,62,127
76607,note_off,102,0,0,,2,,,62,127
76608,note_on,1,0,0,,1,,,61,127
76710,note_off,102,0,0,,1,,,61,127
76710,note_off,0,0,0,,10,,,57,127
76711,note_on,1,0,0,,2,,,62,127
76711,note_on,0,0,0,,7,,,79,127
76762,note_on,51,0,0,,6,,,78,127
76775,note_off,13,0,0,,7,,,79,127
76812,note_off,37,0,0,,2,,,62,127
76813,note_on,1,0,0,,1,,,61,127
76813,note_on,0,0,0,,7,,,79,127
76826,note_off,13,0,0,,6,,,78,127
76865,note_on,39,0,0,,6,,,78,127
76878,note_off,13,0,0,,7,,,79,127
76915,note_off,37,0,0,,1,,,61,127
76916,note_on,1,0,0,,12,,,59,127
76916,note_on,0,0,0,,7,,,79,127
76929,note_off,13,0,0,,6,,,78,127
76968,note_on,39,0,0,,6,,,78,127
76981,note_off,13,0,0,,7,,,79,127
77018,note_off,37,0,0,,12,,,59,127
77019,note_on,1,0,0,,10,,,57,127
77019,note_on,0,0,0,,7,,,79,127
77032,note_off,13,0,0,,6,,,78,127
77071,note_on,39,0,0,,6,,,78,127
77084,note_off,13,0,0,,7,,,79,127
77121,note_off,37,0,0,,10,,,57,127
77122,note_on,1,0,0,,7,,,55,127
77122,note_on,0,0,0,,7,,,79,127
77135,note_off,13,0,0,,6,,,78,127
77174,note_on,39,0,0,,6,,,78,127
77187,note_off,13,0,0,,7,,,79,127
77224,note_off,37,0,0,,7,,,55,127
77225,note_on,1,0,0,,6,,,54,127
77225,note_on,0,0,0,,7,,,79,127
77238,note_off,13,0,0,,6,,,78,127
77277,note_on,39,0,0,,6,,,78,127
77290,note_off,13,0,0,,7,,,79,127
77327,note_off,37,0,0,,6,,,54,127
77328,note_on,1,0,0,,7,,,55,127
77328,note_on,0,0,0,,1,,,85,127
77341,note_off,13,0,0,,6,,,78,127
77380,note_on,39,0,0,,12,,,83,127
77393,note_off,13,0,0,,1,,,85,127
77430,note_off,37,0,0,,7,,,55,127
77431,note_on,1,0,0,,6,,,54,127
77431,note_on,0,0,0,,1,,,85,127
77444,note_off,13,0,0,,12,,,83,127
77483,note_on,39,0,0,,12,,,83,127
77496,note_off,13,0,0,,1,,,85,127
77533,note_off,37,0,0,,6,,,54,127
77534,note_on,1,0,0,,4,,,52,127
77534,note_on,0,0,0,,1,,,85,127
77547,note_off,13,0,0,,12,,,83,127
77586,note_on,39,0,0,,12,,,83,127
77599,note_off,13,0,0,,1,,,85,127
77636,note_off,37,0,0,,4,,,52,127
77637,note_on,1,0,0,,2,,,50,127
77637,note_on,0,0,0,,1,,,85,127
77650,note_off,13,0,0,,12,,,83,127
77689,note_on,39,0,0,,12,,,83,127
77702,note_off,13,0,0,,1,,,85,127
77739,note_off,37,0,0,,2,,,50,127
77740,note_on,1,0,0,,1,,,49,127
77740,note_on,0,0,0,,1,,,85,127
77753,note_off,13,0,0,,12,,,83,127
77792,note_on,39,0,0,,12,,,83,127
77805,note_off,13,0,0,,1,,,85,127
77842,note_off,37,0,0,,1,,,49,127
77843,note_on,1,0,0,,12,,,47,127
77843,note_on,0,0,0,,1,,,85,127
77856,note_off,13,0,0,,12,,,83,127
77895,note_on,39,0,0,,12,,,83,127
77908,note_off,13,0,0,,1,,,85,127
77945,note_off,37,0,0,,12,,,47,127
77946,note_on,1,0,0,,10,,,45,127
77946,note_on,0,0,0,,2,,,86,127
77959,note_off,13,0,0,,12,,,83,127
77998,note_on,39,0,0,,1,,,85,127
78011,note_off,13,0,0,,2,,,86,127
78048,note_off,37,0,0,,10,,,45,127
78049,note_on,1,0,0,,7,,,43,127
78049,note_on,0,0,0,,2,,,86,127
78062,note_off,13,0,0,,1,,,85,127
78101,note_on,39,0,0,,1,,,85,127
78114,note_off,13,0,0,,2,,,86,127
78151,note_off,37,0,0,,7,,,43,127
78152,note_on,1,0,0,,6,,,42,127
78152,note_on,0,0,0,,2,,,86,127
78165,note_off,13,0,0,,1,,,85,127
78204,note_on,39,0,0,,1,,,85,127
78217,note_off,13,0,0,,2,,,86,127
78254,note_off,37,0,0,,6,,,42,127
78255,note_on,1,0,0,,4,,,40,127
78255,note_on,0,0,0,,12,,,83,127
78268,note_off,13,0,0,,1,,,85,127
78307,note_on,39,0,0,,1,,,85,127
78320,note_off,13,0,0,,12,,,83,127
78357,note_off,37,0,0,,4,,,40,127
78358,note_on,1,0,0,,2,,,38,127
78358,note_on,0,0,0,,2,,,86,127
78371,note_off,13,0,0,,1,,,85,127
78460,note_off,89,0,0,,2,,,86,127
78461,note_on,1,0,0,,10,,,81,127
78563,note_off,102,0,0,,10,,,81,127
78563,note_off,0,0,0,,2,,,38,127
78564,note_on,1,0,0,,7,,,43,127
78564,note_on,0,0,0,,12,,,83,127
78666,note_off,102,0,0,,12,,,83,127
78667,note_on,1,0,0,,7,,,79,127
78769,note_off,102,0,0,,7,,,79,127
78769,note_off,0,0,0,,7,,,43,127
78770,note_on,1,0,0,,10,,,45,127
78770,note_on,0,0,0,,6,,,78,127
78872,note_off,102,0,0,,6,,,78,127
78873,note_on,1,0,0,,4,,,76,127
78975,note_off,102,0,0,,4,,,76,127
78976,note_on,1,0,0,,2,,,74,127
79078,note_off,102,0,0,,2,,,74,127
79079,note_on,1,0,0,,1,,,73,127
79135,note_off,56,0,0,,10,,,45,127
79181,note_off,46,0,0,,1,,,73,127
79182,note_on,1,0,0,,2,,,38,127
79182,note_on,0,0,0,,2,,,74,127
79284,note_off,102,0,0,,2,,,74,127
79285,note_on,1,0,0,,4,,,76,127
79387,note_off,102,0,0,,4,,,76,127
79388,note_on,1,0,0,,2,,,74,127
79490,note_off,102,0,0,,2,,,74,127
79491,note_on,1,0,0,,1,,,73,127
79593,note_off,102,0,0,,1,,,73,127
79594,note_on,1,0,0,,12,,,71,127
79696,note_off,102,0,0,,12,,,71,127
79697,note_on,1,0,0,,10,,,69,127
79799,note_off,102,0,0,,10,,,69,127
79799,note_off,0,0,0,,2,,,38,127
79800,note_on,1,0,0,,7,,,43,127
79800,note_on,0,0,0,,7,,,67,127
79902,note_off,102,0,0,,7,,,67,127
79903,note_on,1,0,0,,6,,,66,127
80005,note_off,102,0,0,,6,,,66,127
80006,note_on,1,0,0,,4,,,64,127
80108,note_off,102,0,0,,4,,,64,127
80109,note_on,1,0,0,,2,,,62,127
80211,note_off,102,0,0,,2,,,62,127
80212,note_on,1,0,0,,1,,,61,127
80314,note_off,102,0,0,,1,,,61,127
80315,note_on,1,0,0,,12,,,59,127
80417,note_off,102,0,0,,12,,,59,127
80417,note_off,0,0,0,,7,,,43,127
80418,note_on,1,0,0,,10,,,69,127
80418,note_on,0,0,0,,10,,,57,127
80520,note_off,102,0,0,,10,,,69,127
80521,note_on,1,0,0,,7,,,67,127
80623,note_off,102,0,0,,7,,,67,127
80624,note_on,1,0,0,,6,,,66,127
80726,note_off,102,0,0,,6,,,66,127
80727,note_on,1,0,0,,4,,,64,127
80829,note_off,102,0,0,,4,,,64,127
80830,note_on,1,0,0,,2,,,62,127
80932,note_off,102,0,0,,2,,,62,127
80933,note_on,1,0,0,,1,,,61,127
81035,note_off,102,0,0,,1,,,61,127
81035,note_off,0,0,0,,10,,,57,127
81036,note_on,1,0,0,,2,,,62,127
81036,note_on,0,0,0,,7,,,79,127
81087,note_on,51,0,0,,6,,,78,127
81100,note_off,13,0,0,,7,,,79,127
81137,note_off,37,0,0,,2,,,62,127
81138,note_on,1,0,0,,1,,,61,127
81138,note_on,0,0,0,,7,,,79,127
81151,note_off,13,0,0,,6,,,78,127
81190,note_on,39,0,0,,6,,,78,127
81203,note_off,13,0,0,,7,,,79,127
81240,note_off,37,0,0,,1,,,61,127
81241,note_on,1,0,0,,12,,,59,127
81241,note_on,0,0,0,,7,,,79,127
81254,note_off,13,0,0,,6,,,78,127
81293,note_on,39,0,0,,6,,,78,127
81306,note_off,13,0,0,,7,,,79,127
81343,note_off,37,0,0,,12,,,59,127
81344,note_on,1,0,0,,10,,,57,127
81344,note_on,0,0,0,,7,,,79,127
81357,note_off,13,0,0,,6,,,78,127
81396,note_on,39,0,0,,6,,,78,127
81409,note_off,13,0,0,,7,,,79,127
81446,note_off,37,0,0,,10,,,57,127
81447,note_on,1,0,0,,7,,,55,127
81447,note_on,0,0,0,,7,,,79,127
81460,note_off,13,0,0,,6,,,78,127
81499,note_on,39,0,0,,6,,,78,127
81512,note_off,13,0,0,,7,,,79,127
81549,note_off,37,0,0,,7,,,55,127
81550,note_on,1,0,0,,6,,,54,127
81550,note_on,0,0,0,,7,,,79,127
81563,note_off,13,0,0,,6,,,78,127
81602,note_on,39,0,0,,6,,,78,127
81615,note_off,13,0,0,,7,,,79,127
81652,note_off,37,0,0,,6,,,54,127
81653,note_on,1,0,0,,7,,,55,127
81653,note_on,0,0,0,,1,,,85,127
81666,note_off,13,0,0,,6,,,78,127
81705,note_on,39,0,0,,12,,,83,127
81718,note_off,13,0,0,,1,,,85,127
81755,note_off,37,0,0,,7,,,55,127
81756,note_on,1,0,0,,6,,,54,127
81756,note_on,0,0,0,,1,,,85,127
81769,note_off,13,0,0,,12,,,83,127
81808,note_on,39,0,0,,12,,,83,127
81821,note_off,13,0,0,,1,,,85,127
81858,note_off,37,0,0,,6,,,54,127
81859,note_on,1,0,0,,4,,,52,127
81859,note_on,0,0,0,,1,,,85,127
81872,note_off,13,0,0,,12,,,83,127
81911,note_on,39,0,0,,12,,,83,127
81924,note_off,13,0,0,,1,,,85,127
81961,note_off,37,0,0,,4,,,52,127
81962,note_on,1,0,0,,2,,,50,127
81962,note_on,0,0,0,,1,,,85,127
81975,note_off,13,0,0,,12,,,83,127
82014,note_on,39,0,0,,12,,,83,127
82027,note_off,13,0,0,,1,,,85,127
82064,note_off,37,0,0,,2,,,50,127
82065,note_on,1,0,0,,1,,,49,127
82065,note_on,0,0,0,,1,,,85,127
82078,note_off,13,0,0,,12,,,83,127
82117,note_on,39,0,0,,12,,,83,127
82130,note_off,13,0,0,,1,,,85,127
82167,note_off,37,0,0,,1,,,49,127
82168,note_on,1,0,0,,12,,,47,127
82168,note_on,0,0,0,,1,,,85,127
82181,note_off,13,0,0,,12,,,83,127
82220,note_on,39,0,0,,12,,,83,127
82233,note_off,13,0,0,,1,,,85,127
82270,note_off,37,0,0,,12,,,47,127
82271,note_on,1,0,0,,10,,,45,127
82271,note_on,0,0,0,,2,,,86,127
82284,note_off,13,0,0,,12,,,83,127
82323,note_on,39,0,0,,1,,,85,127
82336,note_off,13,0,0,,2,,,86,127
82373,note_off,37,0,0,,10,,,45,127
82374,note_on,1,0,0,,7,,,43,127
82374,note_on,0,0,0,,2,,,86,127
82387,note_off,13,0,0,,1,,,85,127
82426,note_on,39,0,0,,1,,,85,127
82439,note_off,13,0,0,,2,,,86,127
82476,note_off,37,0,0,,7,,,43,127
82477,note_on,1,0,0,,6,,,42,127
82477,note_on,0,0,0,,2,,,86,127
82490,note_off,13,0,0,,1,,,85,127
82529,note_on,39,0,0,,1,,,85,127
82542,note_off,13,0,0,,2,,,86,127
82579,note_off,37,0,0,,6,,,42,127
82580,note_on,1,0,0,,4,,,40,127
82580,note_on,0,0,0,,12,,,83,127
82593,note_off,13,0,0,,1,,,85,127
82632,note_on,39,0,0,,1,,,85,127
82645,note_off,13,0,0,,12,,,83,127
82682,note_off,37,0,0,,4,,,40,127
82683,note_on,1,0,0,,2,,,38,127
82683,note_on,0,0,0,,2,,,86,127
82696,note_off,13,0,0,,1,,,85,127
82785,note_off,89,0,0,,2,,,86,127
82786,note_on,1,0,0,,10,,,81,127
82888,note_off,102,0,0,,10,,,81,127
82888,note_off,0,0,0,,2,,,38,127
82889,note_on,1,0,0,,7,,,43,127
82889,note_on,0,0,0,,12,,,83,127
82991,note_off,102,0,0,,12,,,83,127
82992,note_on,1,0,0,,7,,,79,127
83094,note_off,102,0,0,,7,,,79,127
83094,note_off,0,0,0,,7,,,43,127
83095,note_on,1,0,0,,10,,,45,127
83095,note_on,0,0,0,,6,,,78,127
83197,note_off,102,0,0,,6,,,78,127
83198,note_on,1,0,0,,4,,,76,127
83300,note_off,102,0,0,,4,,,76,127
83301,note_on,1,0,0,,2,,,74,127
83403,note_off,102,0,0,,2,,,74,127
83404,note_on,1,0,0,,1,,,73,127
83470,note_off,66,0,0,,10,,,45,127
83505,note_off,35,0,0,,1,,,73,127
83506,note_on,1,0,0,,2,,,50,127
83506,note_on,0,0,0,,2,,,74,127
83608,note_off,102,0,0,,2,,,74,127
83609,note_on,1,0,0,,1,,,73,127
83711,note_off,102,0,0,,1,,,73,127
83711,note_off,0,0,0,,2,,,50,127
83712,note_on,1,0,0,,4,,,52,127
83712,note_on,0,0,0,,12,,,71,127
83814,note_off,102,0,0,,12,,,71,127
83815,note_on,1,0,0,,10,,,69,127
83917,note_off,102,0,0,,10,,,69,127
83917,note_off,0,0,0,,4,,,52,127
83918,note_on,1,0,0,,6,,,54,127
83918,note_on,0,0,0,,7,,,67,127
84020,note_off,102,0,0,,7,,,67,127
84021,note_on,1,0,0,,6,,,66,127
84123,note_off,102,0,0,,6,,,66,127
84123,note_off,0,0,0,,6,,,54,127
84124,note_on,1,0,0,,7,,,55,127
84124,note_on,0,0,0,,4,,,64,127
84226,note_off,102,0,0,,4,,,64,127
84227,note_on,1,0,0,,7,,,67,127
84329,note_off,102,0,0,,7,,,67,127
84329,note_off,0,0,0,,7,,,55,127
84330,note_on,1,0,0,,10,,,57,127
84330,note_on,0,0,0,,6,,,66,127
84432,note_off,102,0,0,,6,,,66,127
84433,note_on,1,0,0,,4,,,64,127
84535,note_off,102,0,0,,4,,,64,127
84536,note_on,1,0,0,,10,,,45,127
84536,note_on,0,0,0,,2,,,62,127
84638,note_off,102,0,0,,2,,,62,127
84639,note_on,1,0,0,,1,,,61,127
84741,note_off,102,0,0,,1,,,61,127
84741,note_off,0,0,0,,10,,,45,127
84741,note_off,0,0,0,,10,,,57,127
84742,note_on,1,0,0,,2,,,50,127
84742,note_on,0,0,0,,2,,,62,127
84844,note_off,102,0,0,,2,,,62,127
84845,note_on,1,0,0,,1,,,61,127
84947,note_off,102,0,0,,1,,,61,127
84949,note_on,2,0,0,,12,,,59,127
85051,note_off,102,0,0,,12,,,59,127
85053,note_on,2,0,0,,10,,,57,127
85153,note_off,100,0,0,,2,,,50,127
85155,note_off,2,0,0,,10,,,57,127
85157,note_on,2,0,0,,7,,,55,127
85157,note_on,0,0,0,,6,,,42,127
85259,note_off,102,0,0,,7,,,55,127
85261,note_on,2,0,0,,6,,,54,127
85362,note_off,101,0,0,,6,,,42,127
85363,note_off,1,0,0,,6,,,54,127
85365,note_on,2,0,0,,4,,,52,127
85365,note_on,0,0,0,,7,,,43,127
85467,note_off,102,0,0,,4,,,52,127
85469,note_on,2,0,0,,7,,,55,127
85570,note_off,101,0,0,,7,,,43,127
85571,note_off,1,0,0,,7,,,55,127
85573,note_on,2,0,0,,6,,,54,127
85573,note_on,0,0,0,,10,,,45,127
85675,note_off,102,0,0,,6,,,54,127
85684,note_on,9,0,0,,4,,,52,127
85792,note_off,108,0,0,,4,,,52,127
85797,note_on,5,0,0,,2,,,50,127
85905,note_off,108,0,0,,2,,,50,127
85910,note_on,5,0,0,,1,,,49,127
85983,note_off,73,0,0,,10,,,45,127
86018,note_off,35,0,0,,1,,,49,127
86023,note_on,5,0,0,,2,,,38,127
86023,note_on,0,0,0,,4,,,52,127
86079,note_on,56,0,0,,2,,,50,127
86091,note_off,12,0,0,,4,,,52,127
86137,note_on,46,0,0,,4,,,52,127
86147,note_off,10,0,0,,2,,,50,127
86193,note_on,46,0,0,,2,,,50,127
86205,note_off,12,0,0,,4,,,52,127
88137,note_off,1932,0,0,,2,,,50,127
88137,note_off,0,0,0,,2,,,38,127
92160,end_of_track,4023,1,0,,,,,,
