tick,type,time,meta,track,program,channel,pitch,tempo,note,velocity
0,copyright,0,1,0,,,,,,
0,program_change,0,0,0,6,0,,,,
0,pitchwheel,0,0,0,,0,0,,,
0,program_change,0,0,0,6,1,,,,
0,pitchwheel,0,0,0,,1,-590,,,
0,program_change,0,0,0,6,2,,,,
0,pitchwheel,0,0,0,,2,-272,,,
0,program_change,0,0,0,6,3,,,,
0,pitchwheel,0,0,0,,3,-353,,,
0,program_change,0,0,0,6,4,,,,
0,pitchwheel,0,0,0,,4,-560,,,
0,program_change,0,0,0,6,5,,,,
0,pitchwheel,0,0,0,,5,-80,,,
0,program_change,0,0,0,6,6,,,,
0,pitchwheel,0,0,0,,6,-625,,,
0,program_change,0,0,0,6,7,,,,
0,pitchwheel,0,0,0,,7,-130,,,
0,program_change,0,0,0,6,8,,,,
0,pitchwheel,0,0,0,,8,-512,,,
0,program_change,0,0,0,6,10,,,,
0,pitchwheel,0,0,0,,10,-464,,,
0,program_change,0,0,0,6,11,,,,
0,pitchwheel,0,0,0,,11,-208,,,
0,program_change,0,0,0,6,12,,,,
0,pitchwheel,0,0,0,,12,-553,,,
0,set_tempo,0,1,0,,,,500000,,
38,note_on,38,0,0,,2,,,62,127
498,note_off,460,0,0,,2,,,62,127
499,note_on,1,0,0,,0,,,60,127
959,note_off,460,0,0,,0,,,60,127
960,note_on,1,0,0,,11,,,58,127
1420,note_off,460,0,0,,11,,,58,127
1421,note_on,1,0,0,,10,,,57,127
1650,note_off,229,0,0,,10,,,57,127
1651,note_on,1,0,0,,7,,,55,127
1880,note_off,229,0,0,,7,,,55,127
1881,note_on,1,0,0,,5,,,53,127
2341,note_off,460,0,0,,5,,,53,127
2342,note_on,1,0,0,,4,,,52,127
2571,note_off,229,0,0,,4,,,52,127
2572,note_on,1,0,0,,2,,,50,127
2801,note_off,229,0,0,,2,,,50,127
2802,note_on,1,0,0,,1,,,49,127
3031,note_off,229,0,0,,1,,,49,127
3032,note_on,1,0,0,,10,,,45,127
3378,note_off,346,0,0,,10,,,45,127
3493,note_on,115,0,0,,10,,,57,127
3722,note_off,229,0,0,,10,,,57,127
3723,note_on,1,0,0,,11,,,58,127
3952,note_off,229,0,0,,11,,,58,127
3953,note_on,1,0,0,,7,,,55,127
4182,note_off,229,0,0,,7,,,55,127
4183,note_on,1,0,0,,1,,,61,127
4412,note_off,229,0,0,,1,,,61,127
4413,note_on,1,0,0,,10,,,57,127
4642,note_off,229,0,0,,10,,,57,127
4643,note_on,1,0,0,,2,,,62,127
4872,note_off,229,0,0,,2,,,62,127
4873,note_on,1,0,0,,4,,,64,127
5102,note_off,229,0,0,,4,,,64,127
5103,note_on,1,0,0,,5,,,65,127
5332,note_off,229,0,0,,5,,,65,127
5333,note_on,1,0,0,,7,,,67,127
5562,note_off,229,0,0,,7,,,67,127
5563,note_on,1,0,0,,5,,,65,127
5563,note_on,0,0,0,,10,,,69,127
5792,note_off,229,0,0,,5,,,65,127
5793,note_on,1,0,0,,2,,,62,127
6022,note_off,229,0,0,,2,,,62,127
6022,note_off,0,0,0,,10,,,69,127
6023,note_on,1,0,0,,4,,,64,127
6023,note_on,0,0,0,,7,,,67,127
6252,note_off,229,0,0,,4,,,64,127
6253,note_on,1,0,0,,1,,,61,127
6482,note_off,229,0,0,,1,,,61,127
6482,note_off,0,0,0,,7,,,67,127
6483,note_on,1,0,0,,2,,,62,127
6483,note_on,0,0,0,,5,,,65,127
6943,note_off,460,0,0,,5,,,65,127
6943,note_off,0,0,0,,2,,,62,127
6944,note_on,1,0,0,,0,,,60,127
6944,note_on,0,0,0,,4,,,64,127
7173,note_off,229,0,0,,4,,,64,127
7173,note_off,0,0,0,,0,,,60,127
7174,note_on,1,0,0,,12,,,59,127
7174,note_on,0,0,0,,2,,,62,127
7403,note_off,229,0,0,,2,,,62,127
7403,note_off,0,0,0,,12,,,59,127
7404,note_on,1,0,0,,10,,,57,127
7404,note_on,0,0,0,,0,,,60,127
7864,note_off,460,0,0,,0,,,60,127
7864,note_off,0,0,0,,10,,,57,127
7865,note_on,1,0,0,,7,,,55,127
7865,note_on,0,0,0,,12,,,59,127
8094,note_off,229,0,0,,12,,,59,127
8094,note_off,0,0,0,,7,,,55,127
8095,note_on,1,0,0,,5,,,53,127
8095,note_on,0,0,0,,10,,,57,127
8324,note_off,229,0,0,,10,,,57,127
8324,note_off,0,0,0,,5,,,53,127
8325,note_on,1,0,0,,4,,,52,127
8325,note_on,0,0,0,,8,,,56,127
8553,note_off,228,0,0,,4,,,52,127
8554,note_off,1,0,0,,8,,,56,127
8555,note_on,1,0,0,,4,,,52,127
8785,note_on,230,0,0,,0,,,48,127
8900,note_off,115,0,0,,4,,,52,127
9015,note_on,115,0,0,,4,,,64,127
9244,note_off,229,0,0,,4,,,64,127
9244,note_off,0,0,0,,0,,,48,127
9245,note_on,1,0,0,,2,,,50,127
9245,note_on,0,0,0,,5,,,65,127
9474,note_off,229,0,0,,5,,,65,127
9475,note_on,1,0,0,,2,,,62,127
9704,note_off,229,0,0,,2,,,62,127
9704,note_off,0,0,0,,2,,,50,127
9705,note_on,1,0,0,,2,,,62,127
9705,note_on,0,0,0,,8,,,68,127
9934,note_off,229,0,0,,8,,,68,127
9935,note_on,1,0,0,,4,,,64,127
10164,note_off,229,0,0,,4,,,64,127
10164,note_off,0,0,0,,2,,,62,127
10165,note_on,1,0,0,,0,,,60,127
10165,note_on,0,0,0,,10,,,69,127
10394,note_off,229,0,0,,10,,,69,127
10394,note_off,0,0,0,,0,,,60,127
10395,note_on,1,0,0,,12,,,59,127
10395,note_on,0,0,0,,12,,,71,127
10624,note_off,229,0,0,,12,,,71,127
10624,note_off,0,0,0,,12,,,59,127
10625,note_on,1,0,0,,10,,,57,127
10625,note_on,0,0,0,,0,,,72,127
10854,note_off,229,0,0,,0,,,72,127
10854,note_off,0,0,0,,10,,,57,127
10855,note_on,1,0,0,,7,,,55,127
10855,note_on,0,0,0,,2,,,74,127
10969,note_off,114,0,0,,7,,,55,127
10970,note_on,1,0,0,,5,,,53,127
11084,note_off,114,0,0,,5,,,53,127
11084,note_off,0,0,0,,2,,,74,127
11085,note_on,1,0,0,,4,,,52,127
11085,note_on,0,0,0,,0,,,72,127
11314,note_off,229,0,0,,0,,,72,127
11314,note_off,0,0,0,,4,,,52,127
11315,note_on,1,0,0,,4,,,64,127
11315,note_on,0,0,0,,12,,,71,127
11544,note_off,229,0,0,,12,,,71,127
11545,note_on,1,0,0,,10,,,69,127
11774,note_off,229,0,0,,10,,,69,127
11774,note_off,0,0,0,,4,,,64,127
11775,note_on,1,0,0,,2,,,62,127
11775,note_on,0,0,0,,8,,,68,127
12004,note_off,229,0,0,,8,,,68,127
12004,note_off,0,0,0,,2,,,62,127
12005,note_on,1,0,0,,1,,,61,127
12005,note_on,0,0,0,,10,,,69,127
12234,note_off,229,0,0,,1,,,61,127
12235,note_on,1,0,0,,10,,,57,127
12464,note_off,229,0,0,,10,,,57,127
12464,note_off,0,0,0,,10,,,69,127
12465,note_on,1,0,0,,12,,,59,127
12465,note_on,0,0,0,,7,,,67,127
12694,note_off,229,0,0,,12,,,59,127
12695,note_on,1,0,0,,1,,,61,127
12924,note_off,229,0,0,,1,,,61,127
12924,note_off,0,0,0,,7,,,67,127
12925,note_on,1,0,0,,2,,,62,127
12925,note_on,0,0,0,,2,,,74,127
13154,note_off,229,0,0,,2,,,62,127
13155,note_on,1,0,0,,2,,,50,127
13155,note_on,0,0,0,,5,,,65,127
13384,note_off,229,0,0,,5,,,65,127
13384,note_off,0,0,0,,2,,,50,127
13384,note_off,0,0,0,,2,,,74,127
13385,note_on,1,0,0,,4,,,52,127
13385,note_on,0,0,0,,7,,,67,127
13385,note_on,0,0,0,,0,,,72,127
13614,note_off,229,0,0,,7,,,67,127
13614,note_off,0,0,0,,4,,,52,127
13615,note_on,1,0,0,,6,,,54,127
13615,note_on,0,0,0,,10,,,69,127
13843,note_off,228,0,0,,10,,,69,127
13844,note_off,1,0,0,,6,,,54,127
13844,note_off,0,0,0,,0,,,72,127
13845,note_on,1,0,0,,7,,,55,127
13845,note_on,0,0,0,,11,,,70,127
14075,note_on,230,0,0,,2,,,62,127
14304,note_off,229,0,0,,2,,,62,127
14304,note_off,0,0,0,,11,,,70,127
14304,note_off,0,0,0,,7,,,55,127
14305,note_on,1,0,0,,10,,,57,127
14305,note_on,0,0,0,,1,,,61,127
14305,note_on,0,0,0,,10,,,69,127
14534,note_off,229,0,0,,10,,,69,127
14535,note_on,1,0,0,,7,,,67,127
14764,note_off,229,0,0,,7,,,67,127
14764,note_off,0,0,0,,1,,,61,127
14764,note_off,0,0,0,,10,,,57,127
14765,note_on,1,0,0,,11,,,58,127
14765,note_on,0,0,0,,2,,,62,127
14765,note_on,0,0,0,,5,,,65,127
15108,note_off,343,0,0,,2,,,62,127
15224,note_off,116,0,0,,5,,,65,127
15225,note_on,1,0,0,,4,,,64,127
15454,note_off,229,0,0,,4,,,64,127
15455,note_on,1,0,0,,2,,,62,127
15684,note_off,229,0,0,,2,,,62,127
15684,note_off,0,0,0,,11,,,58,127
15685,note_on,1,0,0,,10,,,57,127
15685,note_on,0,0,0,,1,,,61,127
15913,note_off,228,0,0,,10,,,57,127
15914,note_off,1,0,0,,1,,,61,127
15915,note_on,1,0,0,,10,,,57,127
16145,note_on,230,0,0,,5,,,53,127
16145,note_on,0,0,0,,2,,,62,127
16260,note_off,115,0,0,,10,,,57,127
16375,note_on,115,0,0,,10,,,69,127
16604,note_off,229,0,0,,10,,,69,127
16604,note_off,0,0,0,,5,,,53,127
16605,note_on,1,0,0,,7,,,55,127
16605,note_on,0,0,0,,11,,,70,127
16834,note_off,229,0,0,,11,,,70,127
16835,note_on,1,0,0,,7,,,67,127
17064,note_off,229,0,0,,7,,,67,127
17064,note_off,0,0,0,,7,,,55,127
17064,note_off,0,0,0,,2,,,62,127
17065,note_on,1,0,0,,7,,,67,127
17065,note_on,0,0,0,,1,,,73,127
17294,note_off,229,0,0,,1,,,73,127
17295,note_on,1,0,0,,10,,,69,127
17524,note_off,229,0,0,,10,,,69,127
17524,note_off,0,0,0,,7,,,67,127
17525,note_on,1,0,0,,5,,,65,127
17525,note_on,0,0,0,,2,,,74,127
17754,note_off,229,0,0,,2,,,74,127
17754,note_off,0,0,0,,5,,,65,127
17755,note_on,1,0,0,,4,,,64,127
17755,note_on,0,0,0,,4,,,76,127
17984,note_off,229,0,0,,4,,,76,127
17984,note_off,0,0,0,,4,,,64,127
17985,note_on,1,0,0,,2,,,62,127
17985,note_on,0,0,0,,5,,,77,127
18214,note_off,229,0,0,,5,,,77,127
18214,note_off,0,0,0,,2,,,62,127
18215,note_on,1,0,0,,0,,,60,127
18215,note_on,0,0,0,,7,,,79,127
18329,note_off,114,0,0,,0,,,60,127
18330,note_on,1,0,0,,11,,,58,127
18444,note_off,114,0,0,,11,,,58,127
18444,note_off,0,0,0,,7,,,79,127
18445,note_on,1,0,0,,10,,,57,127
18445,note_on,0,0,0,,5,,,77,127
18674,note_off,229,0,0,,5,,,77,127
18674,note_off,0,0,0,,10,,,57,127
18675,note_on,1,0,0,,10,,,69,127
18675,note_on,0,0,0,,4,,,76,127
18904,note_off,229,0,0,,4,,,76,127
18905,note_on,1,0,0,,2,,,74,127
19134,note_off,229,0,0,,2,,,74,127
19134,note_off,0,0,0,,10,,,69,127
19135,note_on,1,0,0,,7,,,67,127
19135,note_on,0,0,0,,1,,,73,127
19364,note_off,229,0,0,,1,,,73,127
19364,note_off,0,0,0,,7,,,67,127
19365,note_on,1,0,0,,5,,,65,127
19365,note_on,0,0,0,,10,,,81,127
19595,note_on,230,0,0,,10,,,69,127
19824,note_off,229,0,0,,10,,,69,127
19824,note_off,0,0,0,,10,,,81,127
19824,note_off,0,0,0,,5,,,65,127
19825,note_on,1,0,0,,4,,,64,127
19825,note_on,0,0,0,,12,,,71,127
19825,note_on,0,0,0,,7,,,79,127
20054,note_off,229,0,0,,12,,,71,127
20055,note_on,1,0,0,,1,,,73,127
20284,note_off,229,0,0,,1,,,73,127
20284,note_off,0,0,0,,7,,,79,127
20284,note_off,0,0,0,,4,,,64,127
20285,note_on,1,0,0,,2,,,62,127
20285,note_on,0,0,0,,2,,,74,127
20285,note_on,0,0,0,,5,,,77,127
20514,note_off,229,0,0,,2,,,74,127
20515,note_on,1,0,0,,10,,,69,127
20744,note_off,229,0,0,,10,,,69,127
20744,note_off,0,0,0,,5,,,77,127
20744,note_off,0,0,0,,2,,,62,127
20745,note_on,1,0,0,,4,,,64,127
20745,note_on,0,0,0,,8,,,68,127
20745,note_on,0,0,0,,4,,,76,127
20974,note_off,229,0,0,,4,,,76,127
20975,note_on,1,0,0,,2,,,74,127
21204,note_off,229,0,0,,2,,,74,127
21204,note_off,0,0,0,,8,,,68,127
21204,note_off,0,0,0,,4,,,64,127
21205,note_on,1,0,0,,5,,,65,127
21205,note_on,0,0,0,,10,,,69,127
21205,note_on,0,0,0,,0,,,72,127
21548,note_off,343,0,0,,10,,,69,127
21664,note_off,116,0,0,,0,,,72,127
21665,note_on,1,0,0,,12,,,71,127
21894,note_off,229,0,0,,12,,,71,127
21895,note_on,1,0,0,,10,,,69,127
22124,note_off,229,0,0,,10,,,69,127
22124,note_off,0,0,0,,5,,,65,127
22125,note_on,1,0,0,,4,,,64,127
22125,note_on,0,0,0,,8,,,68,127
22353,note_off,228,0,0,,4,,,64,127
22354,note_off,1,0,0,,8,,,68,127
22355,note_on,1,0,0,,4,,,64,127
22585,note_on,230,0,0,,0,,,60,127
22585,note_on,0,0,0,,10,,,69,127
22700,note_off,115,0,0,,4,,,64,127
22815,note_on,115,0,0,,4,,,76,127
23044,note_off,229,0,0,,4,,,76,127
23044,note_off,0,0,0,,0,,,60,127
23045,note_on,1,0,0,,2,,,62,127
23045,note_on,0,0,0,,5,,,77,127
23274,note_off,229,0,0,,5,,,77,127
23275,note_on,1,0,0,,2,,,74,127
23504,note_off,229,0,0,,2,,,74,127
23504,note_off,0,0,0,,2,,,62,127
23504,note_off,0,0,0,,10,,,69,127
23505,note_on,1,0,0,,2,,,74,127
23505,note_on,0,0,0,,8,,,80,127
23734,note_off,229,0,0,,8,,,80,127
23735,note_on,1,0,0,,4,,,76,127
23964,note_off,229,0,0,,4,,,76,127
23964,note_off,0,0,0,,2,,,74,127
23965,note_on,1,0,0,,0,,,72,127
23965,note_on,0,0,0,,10,,,81,127
24194,note_off,229,0,0,,10,,,81,127
24194,note_off,0,0,0,,0,,,72,127
24195,note_on,1,0,0,,12,,,71,127
24195,note_on,0,0,0,,12,,,83,127
24424,note_off,229,0,0,,12,,,83,127
24424,note_off,0,0,0,,12,,,71,127
24425,note_on,1,0,0,,10,,,69,127
24425,note_on,0,0,0,,0,,,84,127
24654,note_off,229,0,0,,0,,,84,127
24654,note_off,0,0,0,,10,,,69,127
24655,note_on,1,0,0,,7,,,67,127
24655,note_on,0,0,0,,2,,,86,127
24769,note_off,114,0,0,,7,,,67,127
24770,note_on,1,0,0,,5,,,65,127
24884,note_off,114,0,0,,5,,,65,127
24884,note_off,0,0,0,,2,,,86,127
24885,note_on,1,0,0,,4,,,64,127
24885,note_on,0,0,0,,0,,,84,127
25114,note_off,229,0,0,,0,,,84,127
25114,note_off,0,0,0,,4,,,64,127
25115,note_on,1,0,0,,4,,,76,127
25115,note_on,0,0,0,,12,,,83,127
25344,note_off,229,0,0,,12,,,83,127
25345,note_on,1,0,0,,10,,,81,127
25574,note_off,229,0,0,,10,,,81,127
25574,note_off,0,0,0,,4,,,76,127
25575,note_on,1,0,0,,2,,,74,127
25575,note_on,0,0,0,,8,,,80,127
25804,note_off,229,0,0,,8,,,80,127
25804,note_off,0,0,0,,2,,,74,127
25805,note_on,1,0,0,,1,,,73,127
25805,note_on,0,0,0,,10,,,81,127
26034,note_off,229,0,0,,1,,,73,127
26035,note_on,1,0,0,,10,,,69,127
26264,note_off,229,0,0,,10,,,69,127
26264,note_off,0,0,0,,10,,,81,127
26265,note_on,1,0,0,,12,,,71,127
26265,note_on,0,0,0,,7,,,79,127
26494,note_off,229,0,0,,12,,,71,127
26495,note_on,1,0,0,,1,,,73,127
26724,note_off,229,0,0,,1,,,73,127
26724,note_off,0,0,0,,7,,,79,127
26725,note_on,1,0,0,,2,,,62,127
26725,note_on,0,0,0,,5,,,77,127
26954,note_off,229,0,0,,5,,,77,127
26954,note_off,0,0,0,,2,,,62,127
26955,note_on,1,0,0,,4,,,64,127
26955,note_on,0,0,0,,4,,,76,127
26955,note_on,0,0,0,,7,,,79,127
27184,note_off,229,0,0,,7,,,79,127
27184,note_off,0,0,0,,4,,,76,127
27184,note_off,0,0,0,,4,,,64,127
27185,note_on,1,0,0,,5,,,65,127
27185,note_on,0,0,0,,2,,,74,127
27185,note_on,0,0,0,,10,,,81,127
27414,note_off,229,0,0,,2,,,74,127
27414,note_off,0,0,0,,5,,,65,127
27415,note_on,1,0,0,,2,,,62,127
27415,note_on,0,0,0,,0,,,72,127
27644,note_off,229,0,0,,0,,,72,127
27644,note_off,0,0,0,,2,,,62,127
27645,note_on,1,0,0,,7,,,67,127
27645,note_on,0,0,0,,11,,,70,127
27874,note_off,229,0,0,,11,,,70,127
27874,note_off,0,0,0,,7,,,67,127
27875,note_on,1,0,0,,10,,,69,127
27875,note_on,0,0,0,,0,,,72,127
28104,note_off,229,0,0,,0,,,72,127
28104,note_off,0,0,0,,10,,,69,127
28104,note_off,0,0,0,,10,,,81,127
28105,note_on,1,0,0,,11,,,70,127
28105,note_on,0,0,0,,2,,,74,127
28105,note_on,0,0,0,,7,,,79,127
28334,note_off,229,0,0,,7,,,79,127
28335,note_on,1,0,0,,7,,,67,127
28335,note_on,0,0,0,,5,,,77,127
28564,note_off,229,0,0,,5,,,77,127
28564,note_off,0,0,0,,7,,,67,127
28565,note_on,1,0,0,,0,,,60,127
28565,note_on,0,0,0,,4,,,76,127
28794,note_off,229,0,0,,4,,,76,127
28794,note_off,0,0,0,,0,,,60,127
28795,note_on,1,0,0,,2,,,62,127
28795,note_on,0,0,0,,5,,,77,127
29024,note_off,229,0,0,,5,,,77,127
29024,note_off,0,0,0,,2,,,62,127
29024,note_off,0,0,0,,2,,,74,127
29024,note_off,0,0,0,,11,,,70,127
29025,note_on,1,0,0,,4,,,64,127
29025,note_on,0,0,0,,0,,,72,127
29025,note_on,0,0,0,,7,,,79,127
29254,note_off,229,0,0,,0,,,72,127
29254,note_off,0,0,0,,4,,,64,127
29255,note_on,1,0,0,,0,,,60,127
29255,note_on,0,0,0,,11,,,70,127
29484,note_off,229,0,0,,11,,,70,127
29484,note_off,0,0,0,,0,,,60,127
29485,note_on,1,0,0,,5,,,65,127
29485,note_on,0,0,0,,10,,,69,127
29714,note_off,229,0,0,,10,,,69,127
29714,note_off,0,0,0,,5,,,65,127
29715,note_on,1,0,0,,7,,,67,127
29715,note_on,0,0,0,,11,,,70,127
29944,note_off,229,0,0,,11,,,70,127
29944,note_off,0,0,0,,7,,,67,127
29944,note_off,0,0,0,,7,,,79,127
29945,note_on,1,0,0,,10,,,69,127
29945,note_on,0,0,0,,0,,,72,127
29945,note_on,0,0,0,,5,,,77,127
30174,note_off,229,0,0,,5,,,77,127
30174,note_off,0,0,0,,10,,,69,127
30175,note_on,1,0,0,,5,,,65,127
30175,note_on,0,0,0,,4,,,76,127
30404,note_off,229,0,0,,4,,,76,127
30404,note_off,0,0,0,,5,,,65,127
30405,note_on,1,0,0,,11,,,58,127
30405,note_on,0,0,0,,2,,,74,127
30634,note_off,229,0,0,,2,,,74,127
30634,note_off,0,0,0,,11,,,58,127
30635,note_on,1,0,0,,0,,,60,127
30635,note_on,0,0,0,,4,,,76,127
30864,note_off,229,0,0,,4,,,76,127
30864,note_off,0,0,0,,0,,,60,127
30864,note_off,0,0,0,,0,,,72,127
30865,note_on,1,0,0,,2,,,62,127
30865,note_on,0,0,0,,11,,,70,127
30865,note_on,0,0,0,,5,,,77,127
31094,note_off,229,0,0,,11,,,70,127
31094,note_off,0,0,0,,2,,,62,127
31095,note_on,1,0,0,,11,,,58,127
31095,note_on,0,0,0,,10,,,69,127
31324,note_off,229,0,0,,10,,,69,127
31324,note_off,0,0,0,,11,,,58,127
31325,note_on,1,0,0,,4,,,64,127
31325,note_on,0,0,0,,7,,,67,127
31554,note_off,229,0,0,,7,,,67,127
31554,note_off,0,0,0,,4,,,64,127
31555,note_on,1,0,0,,5,,,65,127
31555,note_on,0,0,0,,10,,,69,127
31784,note_off,229,0,0,,10,,,69,127
31784,note_off,0,0,0,,5,,,65,127
31784,note_off,0,0,0,,5,,,77,127
31785,note_on,1,0,0,,7,,,67,127
31785,note_on,0,0,0,,11,,,70,127
31785,note_on,0,0,0,,4,,,76,127
32014,note_off,229,0,0,,4,,,76,127
32014,note_off,0,0,0,,7,,,67,127
32015,note_on,1,0,0,,4,,,64,127
32015,note_on,0,0,0,,2,,,74,127
32244,note_off,229,0,0,,2,,,74,127
32244,note_off,0,0,0,,4,,,64,127
32245,note_on,1,0,0,,10,,,57,127
32245,note_on,0,0,0,,1,,,73,127
32474,note_off,229,0,0,,1,,,73,127
32474,note_off,0,0,0,,10,,,57,127
32475,note_on,1,0,0,,12,,,59,127
32475,note_on,0,0,0,,2,,,74,127
32704,note_off,229,0,0,,2,,,74,127
32704,note_off,0,0,0,,12,,,59,127
32704,note_off,0,0,0,,11,,,70,127
32705,note_on,1,0,0,,1,,,61,127
32705,note_on,0,0,0,,10,,,69,127
32705,note_on,0,0,0,,4,,,76,127
32934,note_off,229,0,0,,10,,,69,127
32934,note_off,0,0,0,,1,,,61,127
32935,note_on,1,0,0,,10,,,57,127
32935,note_on,0,0,0,,7,,,67,127
33164,note_off,229,0,0,,7,,,67,127
33164,note_off,0,0,0,,10,,,57,127
33164,note_off,0,0,0,,4,,,76,127
33165,note_on,1,0,0,,2,,,62,127
33165,note_on,0,0,0,,5,,,65,127
33165,note_on,0,0,0,,2,,,74,127
33625,note_off,460,0,0,,2,,,74,127
33625,note_off,0,0,0,,2,,,62,127
33626,note_on,1,0,0,,0,,,60,127
33626,note_on,0,0,0,,10,,,69,127
33855,note_off,229,0,0,,5,,,65,127
33856,note_on,1,0,0,,4,,,64,127
34085,note_off,229,0,0,,4,,,64,127
34085,note_off,0,0,0,,0,,,60,127
34086,note_on,1,0,0,,11,,,58,127
34086,note_on,0,0,0,,2,,,62,127
34316,note_on,230,0,0,,7,,,67,127
34545,note_off,229,0,0,,7,,,67,127
34545,note_off,0,0,0,,11,,,58,127
34546,note_on,1,0,0,,10,,,57,127
34546,note_on,0,0,0,,5,,,65,127
34775,note_off,229,0,0,,5,,,65,127
34775,note_off,0,0,0,,10,,,57,127
34775,note_off,0,0,0,,2,,,62,127
34776,note_on,1,0,0,,7,,,55,127
34776,note_on,0,0,0,,4,,,64,127
35005,note_off,229,0,0,,7,,,55,127
35006,note_on,1,0,0,,5,,,53,127
35017,note_off,11,0,0,,4,,,64,127
35237,note_on,220,0,0,,2,,,62,127
35466,note_off,229,0,0,,2,,,62,127
35466,note_off,0,0,0,,5,,,53,127
35467,note_on,1,0,0,,4,,,52,127
35467,note_on,0,0,0,,1,,,61,127
35696,note_off,229,0,0,,1,,,61,127
35696,note_off,0,0,0,,4,,,52,127
35697,note_on,1,0,0,,2,,,50,127
35697,note_on,0,0,0,,2,,,62,127
35926,note_off,229,0,0,,2,,,62,127
35926,note_off,0,0,0,,2,,,50,127
35927,note_on,1,0,0,,1,,,49,127
35927,note_on,0,0,0,,4,,,64,127
36155,note_off,228,0,0,,10,,,69,127
36156,note_off,1,0,0,,1,,,49,127
36157,note_on,1,0,0,,10,,,45,127
36157,note_on,0,0,0,,7,,,67,127
36383,note_off,226,0,0,,4,,,64,127
36387,note_off,4,0,0,,7,,,67,127
36388,note_on,1,0,0,,5,,,65,127
36503,note_off,115,0,0,,10,,,45,127
36617,note_off,114,0,0,,5,,,65,127
36618,note_on,1,0,0,,10,,,57,127
36618,note_on,0,0,0,,4,,,64,127
36847,note_off,229,0,0,,4,,,64,127
36847,note_off,0,0,0,,10,,,57,127
36848,note_on,1,0,0,,11,,,58,127
36848,note_on,0,0,0,,2,,,62,127
37077,note_off,229,0,0,,2,,,62,127
37077,note_off,0,0,0,,11,,,58,127
37078,note_on,1,0,0,,7,,,55,127
37078,note_on,0,0,0,,7,,,67,127
37307,note_off,229,0,0,,7,,,55,127
37308,note_on,1,0,0,,1,,,61,127
37537,note_off,229,0,0,,1,,,61,127
37537,note_off,0,0,0,,7,,,67,127
37538,note_on,1,0,0,,10,,,57,127
37538,note_on,0,0,0,,5,,,65,127
37652,note_off,114,0,0,,5,,,65,127
37653,note_on,1,0,0,,4,,,64,127
37767,note_off,114,0,0,,4,,,64,127
37767,note_off,0,0,0,,10,,,57,127
37768,note_on,1,0,0,,2,,,62,127
37768,note_on,0,0,0,,5,,,65,127
37768,note_on,0,0,0,,2,,,74,127
37997,note_off,229,0,0,,5,,,65,127
37997,note_off,0,0,0,,2,,,62,127
37998,note_on,1,0,0,,4,,,64,127
37998,note_on,0,0,0,,7,,,67,127
38227,note_off,229,0,0,,7,,,67,127
38227,note_off,0,0,0,,4,,,64,127
38228,note_on,1,0,0,,5,,,65,127
38228,note_on,0,0,0,,10,,,69,127
38457,note_off,229,0,0,,10,,,69,127
38457,note_off,0,0,0,,5,,,65,127
38458,note_on,1,0,0,,7,,,67,127
38458,note_on,0,0,0,,11,,,70,127
38687,note_off,229,0,0,,11,,,70,127
38687,note_off,0,0,0,,7,,,67,127
38688,note_on,1,0,0,,5,,,65,127
38688,note_on,0,0,0,,10,,,69,127
38917,note_off,229,0,0,,5,,,65,127
38917,note_off,0,0,0,,2,,,74,127
38918,note_on,1,0,0,,4,,,64,127
38918,note_on,0,0,0,,4,,,76,127
39147,note_off,229,0,0,,4,,,76,127
39147,note_off,0,0,0,,4,,,64,127
39148,note_on,1,0,0,,2,,,62,127
39148,note_on,0,0,0,,5,,,77,127
39377,note_off,229,0,0,,5,,,77,127
39377,note_off,0,0,0,,2,,,62,127
39378,note_on,1,0,0,,1,,,61,127
39378,note_on,0,0,0,,7,,,79,127
39607,note_off,229,0,0,,7,,,79,127
39607,note_off,0,0,0,,1,,,61,127
39608,note_on,1,0,0,,2,,,62,127
39608,note_on,0,0,0,,5,,,77,127
39837,note_off,229,0,0,,5,,,77,127
39837,note_off,0,0,0,,2,,,62,127
39838,note_on,1,0,0,,0,,,60,127
39838,note_on,0,0,0,,4,,,76,127
40067,note_off,229,0,0,,4,,,76,127
40067,note_off,0,0,0,,0,,,60,127
40068,note_on,1,0,0,,11,,,58,127
40068,note_on,0,0,0,,2,,,74,127
40297,note_off,229,0,0,,2,,,74,127
40297,note_off,0,0,0,,11,,,58,127
40298,note_on,1,0,0,,10,,,57,127
40298,note_on,0,0,0,,0,,,72,127
40521,note_off,223,0,0,,10,,,69,127
40527,note_off,6,0,0,,0,,,72,127
40527,note_off,0,0,0,,10,,,57,127
40528,note_on,1,0,0,,7,,,55,127
40528,note_on,0,0,0,,11,,,70,127
40757,note_off,229,0,0,,11,,,70,127
40758,note_on,1,0,0,,0,,,72,127
40987,note_off,229,0,0,,0,,,72,127
40987,note_off,0,0,0,,7,,,55,127
40988,note_on,1,0,0,,7,,,67,127
40988,note_on,0,0,0,,2,,,74,127
41217,note_off,229,0,0,,2,,,74,127
41218,note_on,1,0,0,,0,,,72,127
41447,note_off,229,0,0,,0,,,72,127
41448,note_on,1,0,0,,11,,,70,127
41677,note_off,229,0,0,,11,,,70,127
41677,note_off,0,0,0,,7,,,67,127
41678,note_on,1,0,0,,5,,,65,127
41678,note_on,0,0,0,,10,,,69,127
41907,note_off,229,0,0,,10,,,69,127
41907,note_off,0,0,0,,5,,,65,127
41908,note_on,1,0,0,,4,,,64,127
41908,note_on,0,0,0,,7,,,67,127
42137,note_off,229,0,0,,7,,,67,127
42137,note_off,0,0,0,,4,,,64,127
42138,note_on,1,0,0,,2,,,62,127
42138,note_on,0,0,0,,5,,,65,127
42367,note_off,229,0,0,,5,,,65,127
42367,note_off,0,0,0,,2,,,62,127
42368,note_on,1,0,0,,4,,,64,127
42368,note_on,0,0,0,,7,,,67,127
42368,note_on,0,0,0,,0,,,72,127
42597,note_off,229,0,0,,7,,,67,127
42597,note_off,0,0,0,,4,,,64,127
42598,note_on,1,0,0,,5,,,65,127
42598,note_on,0,0,0,,10,,,69,127
42827,note_off,229,0,0,,10,,,69,127
42827,note_off,0,0,0,,5,,,65,127
42828,note_on,1,0,0,,4,,,64,127
42828,note_on,0,0,0,,7,,,67,127
43057,note_off,229,0,0,,7,,,67,127
43057,note_off,0,0,0,,4,,,64,127
43058,note_on,1,0,0,,2,,,62,127
43058,note_on,0,0,0,,5,,,65,127
43287,note_off,229,0,0,,5,,,65,127
43287,note_off,0,0,0,,2,,,62,127
43288,note_on,1,0,0,,4,,,64,127
43288,note_on,0,0,0,,7,,,67,127
43517,note_off,229,0,0,,7,,,67,127
43517,note_off,0,0,0,,4,,,64,127
43518,note_on,1,0,0,,2,,,62,127
43518,note_on,0,0,0,,5,,,65,127
43747,note_off,229,0,0,,5,,,65,127
43747,note_off,0,0,0,,2,,,62,127
43748,note_on,1,0,0,,0,,,60,127
43748,note_on,0,0,0,,4,,,64,127
43977,note_off,229,0,0,,4,,,64,127
43977,note_off,0,0,0,,0,,,60,127
43978,note_on,1,0,0,,2,,,62,127
43978,note_on,0,0,0,,5,,,65,127
44207,note_off,229,0,0,,5,,,65,127
44207,note_off,0,0,0,,2,,,62,127
44208,note_on,1,0,0,,4,,,64,127
44208,note_on,0,0,0,,7,,,67,127
44437,note_off,229,0,0,,4,,,64,127
44437,note_off,0,0,0,,0,,,72,127
44438,note_on,1,0,0,,2,,,62,127
44438,note_on,0,0,0,,2,,,74,127
44667,note_off,229,0,0,,2,,,74,127
44667,note_off,0,0,0,,2,,,62,127
44668,note_on,1,0,0,,0,,,60,127
44668,note_on,0,0,0,,4,,,76,127
44897,note_off,229,0,0,,4,,,76,127
44897,note_off,0,0,0,,0,,,60,127
44898,note_on,1,0,0,,12,,,59,127
44898,note_on,0,0,0,,5,,,77,127
45127,note_off,229,0,0,,5,,,77,127
45127,note_off,0,0,0,,12,,,59,127
45128,note_on,1,0,0,,0,,,60,127
45128,note_on,0,0,0,,4,,,76,127
45357,note_off,229,0,0,,4,,,76,127
45357,note_off,0,0,0,,0,,,60,127
45358,note_on,1,0,0,,2,,,62,127
45358,note_on,0,0,0,,2,,,74,127
45587,note_off,229,0,0,,2,,,74,127
45587,note_off,0,0,0,,2,,,62,127
45588,note_on,1,0,0,,4,,,64,127
45588,note_on,0,0,0,,0,,,72,127
45817,note_off,229,0,0,,0,,,72,127
45817,note_off,0,0,0,,4,,,64,127
45818,note_on,1,0,0,,0,,,60,127
45818,note_on,0,0,0,,11,,,70,127
46041,note_off,223,0,0,,7,,,67,127
46047,note_off,6,0,0,,11,,,70,127
46047,note_off,0,0,0,,0,,,60,127
46048,note_on,1,0,0,,5,,,65,127
46048,note_on,0,0,0,,10,,,69,127
46277,note_off,229,0,0,,10,,,69,127
46278,note_on,1,0,0,,11,,,70,127
46507,note_off,229,0,0,,11,,,70,127
46507,note_off,0,0,0,,5,,,65,127
46508,note_on,1,0,0,,4,,,64,127
46508,note_on,0,0,0,,0,,,72,127
46737,note_off,229,0,0,,0,,,72,127
46738,note_on,1,0,0,,7,,,67,127
46967,note_off,229,0,0,,7,,,67,127
46967,note_off,0,0,0,,4,,,64,127
46968,note_on,1,0,0,,2,,,62,127
46968,note_on,0,0,0,,5,,,65,127
47197,note_off,229,0,0,,5,,,65,127
47198,note_on,1,0,0,,7,,,67,127
47427,note_off,229,0,0,,7,,,67,127
47427,note_off,0,0,0,,2,,,62,127
47428,note_on,1,0,0,,0,,,60,127
47428,note_on,0,0,0,,10,,,69,127
47657,note_off,229,0,0,,10,,,69,127
47657,note_off,0,0,0,,0,,,60,127
47658,note_on,1,0,0,,11,,,58,127
47658,note_on,0,0,0,,11,,,70,127
47873,note_off,215,0,0,,11,,,70,127
47887,note_off,14,0,0,,11,,,58,127
47888,note_on,1,0,0,,10,,,57,127
47888,note_on,0,0,0,,5,,,77,127
48117,note_off,229,0,0,,10,,,57,127
48118,note_on,1,0,0,,5,,,53,127
48347,note_off,229,0,0,,5,,,53,127
48347,note_off,0,0,0,,5,,,77,127
48348,note_on,1,0,0,,7,,,55,127
48348,note_on,0,0,0,,10,,,69,127
48348,note_on,0,0,0,,4,,,76,127
48577,note_off,229,0,0,,7,,,55,127
48578,note_on,1,0,0,,10,,,57,127
48807,note_off,229,0,0,,10,,,57,127
48807,note_off,0,0,0,,4,,,76,127
48808,note_on,1,0,0,,11,,,58,127
48808,note_on,0,0,0,,2,,,74,127
49268,note_off,460,0,0,,2,,,74,127
49268,note_off,0,0,0,,11,,,58,127
49268,note_off,0,0,0,,10,,,69,127
49269,note_on,1,0,0,,0,,,60,127
49269,note_on,0,0,0,,4,,,64,127
49269,note_on,0,0,0,,0,,,72,127
49498,note_off,229,0,0,,0,,,72,127
49499,note_on,1,0,0,,11,,,70,127
49728,note_off,229,0,0,,11,,,70,127
49728,note_off,0,0,0,,4,,,64,127
49728,note_off,0,0,0,,0,,,60,127
49729,note_on,1,0,0,,2,,,62,127
49729,note_on,0,0,0,,5,,,65,127
49729,note_on,0,0,0,,10,,,69,127
50185,note_off,456,0,0,,5,,,65,127
50189,note_off,4,0,0,,10,,,69,127
50190,note_on,1,0,0,,7,,,67,127
50419,note_off,229,0,0,,7,,,67,127
50420,note_on,1,0,0,,5,,,65,127
50649,note_off,229,0,0,,5,,,65,127
50649,note_off,0,0,0,,2,,,62,127
50650,note_on,1,0,0,,0,,,60,127
50650,note_on,0,0,0,,4,,,64,127
50878,note_off,228,0,0,,0,,,60,127
50879,note_off,1,0,0,,4,,,64,127
50880,note_on,1,0,0,,0,,,60,127
51110,note_on,230,0,0,,10,,,57,127
51110,note_on,0,0,0,,5,,,65,127
51225,note_off,115,0,0,,0,,,60,127
51340,note_on,115,0,0,,0,,,72,127
51569,note_off,229,0,0,,0,,,72,127
51569,note_off,0,0,0,,10,,,57,127
51570,note_on,1,0,0,,11,,,58,127
51570,note_on,0,0,0,,2,,,74,127
51799,note_off,229,0,0,,2,,,74,127
51800,note_on,1,0,0,,11,,,70,127
52029,note_off,229,0,0,,11,,,70,127
52029,note_off,0,0,0,,11,,,58,127
52029,note_off,0,0,0,,5,,,65,127
52030,note_on,1,0,0,,11,,,70,127
52030,note_on,0,0,0,,4,,,76,127
52259,note_off,229,0,0,,4,,,76,127
52260,note_on,1,0,0,,0,,,72,127
52489,note_off,229,0,0,,0,,,72,127
52489,note_off,0,0,0,,11,,,70,127
52490,note_on,1,0,0,,10,,,69,127
52490,note_on,0,0,0,,5,,,77,127
52719,note_off,229,0,0,,5,,,77,127
52719,note_off,0,0,0,,10,,,69,127
52720,note_on,1,0,0,,7,,,67,127
52720,note_on,0,0,0,,7,,,79,127
52949,note_off,229,0,0,,7,,,79,127
52949,note_off,0,0,0,,7,,,67,127
52950,note_on,1,0,0,,5,,,65,127
52950,note_on,0,0,0,,10,,,81,127
53179,note_off,229,0,0,,10,,,81,127
53179,note_off,0,0,0,,5,,,65,127
53180,note_on,1,0,0,,4,,,64,127
53180,note_on,0,0,0,,11,,,82,127
53409,note_off,229,0,0,,11,,,82,127
53409,note_off,0,0,0,,4,,,64,127
53410,note_on,1,0,0,,0,,,60,127
53410,note_on,0,0,0,,0,,,72,127
53410,note_on,0,0,0,,10,,,81,127
53639,note_off,229,0,0,,10,,,81,127
53639,note_off,0,0,0,,0,,,72,127
53640,note_on,1,0,0,,11,,,70,127
53640,note_on,0,0,0,,7,,,79,127
53869,note_off,229,0,0,,7,,,79,127
53869,note_off,0,0,0,,11,,,70,127
53870,note_on,1,0,0,,10,,,69,127
53870,note_on,0,0,0,,5,,,77,127
54099,note_off,229,0,0,,5,,,77,127
54099,note_off,0,0,0,,10,,,69,127
54099,note_off,0,0,0,,0,,,60,127
54100,note_on,1,0,0,,11,,,58,127
54100,note_on,0,0,0,,7,,,67,127
54100,note_on,0,0,0,,4,,,76,127
54328,note_off,228,0,0,,7,,,67,127
54329,note_off,1,0,0,,4,,,76,127
54329,note_off,0,0,0,,11,,,58,127
54330,note_on,1,0,0,,10,,,57,127
54330,note_on,0,0,0,,5,,,77,127
54559,note_off,229,0,0,,10,,,57,127
54560,note_on,1,0,0,,5,,,53,127
54560,note_on,0,0,0,,0,,,72,127
54789,note_off,229,0,0,,0,,,72,127
54789,note_off,0,0,0,,5,,,53,127
54790,note_on,1,0,0,,12,,,59,127
54790,note_on,0,0,0,,2,,,74,127
55019,note_off,229,0,0,,2,,,74,127
55019,note_off,0,0,0,,12,,,59,127
55020,note_on,1,0,0,,7,,,55,127
55020,note_on,0,0,0,,12,,,71,127
55249,note_off,229,0,0,,12,,,71,127
55249,note_off,0,0,0,,7,,,55,127
55249,note_off,0,0,0,,5,,,77,127
55250,note_on,1,0,0,,0,,,60,127
55250,note_on,0,0,0,,7,,,67,127
55250,note_on,0,0,0,,4,,,76,127
55479,note_off,229,0,0,,4,,,76,127
55480,note_on,1,0,0,,0,,,72,127
55709,note_off,229,0,0,,0,,,72,127
55709,note_off,0,0,0,,7,,,67,127
55709,note_off,0,0,0,,0,,,60,127
55710,note_on,1,0,0,,10,,,57,127
55710,note_on,0,0,0,,10,,,69,127
55710,note_on,0,0,0,,6,,,78,127
55939,note_off,229,0,0,,6,,,78,127
55940,note_on,1,0,0,,2,,,74,127
56166,note_off,226,0,0,,10,,,69,127
56170,note_off,4,0,0,,2,,,74,127
56170,note_off,0,0,0,,10,,,57,127
56171,note_on,1,0,0,,11,,,58,127
56171,note_on,0,0,0,,2,,,62,127
56171,note_on,0,0,0,,7,,,79,127
56400,note_off,229,0,0,,2,,,62,127
56400,note_off,0,0,0,,11,,,58,127
56401,note_on,1,0,0,,7,,,55,127
56401,note_on,0,0,0,,2,,,74,127
56630,note_off,229,0,0,,2,,,74,127
56630,note_off,0,0,0,,7,,,55,127
56631,note_on,1,0,0,,1,,,61,127
56631,note_on,0,0,0,,4,,,76,127
56860,note_off,229,0,0,,4,,,76,127
56860,note_off,0,0,0,,1,,,61,127
56861,note_on,1,0,0,,10,,,57,127
56861,note_on,0,0,0,,1,,,73,127
57090,note_off,229,0,0,,1,,,73,127
57090,note_off,0,0,0,,10,,,57,127
57090,note_off,0,0,0,,7,,,79,127
57091,note_on,1,0,0,,2,,,62,127
57091,note_on,0,0,0,,10,,,69,127
57091,note_on,0,0,0,,5,,,77,127
57320,note_off,229,0,0,,5,,,77,127
57321,note_on,1,0,0,,2,,,74,127
57547,note_off,226,0,0,,10,,,69,127
57551,note_off,4,0,0,,2,,,74,127
57551,note_off,0,0,0,,2,,,62,127
57552,note_on,1,0,0,,2,,,62,127
57552,note_on,0,0,0,,12,,,59,127
57552,note_on,0,0,0,,8,,,80,127
57781,note_off,229,0,0,,8,,,80,127
57782,note_on,1,0,0,,4,,,76,127
58011,note_off,229,0,0,,4,,,76,127
58011,note_off,0,0,0,,12,,,59,127
58011,note_off,0,0,0,,2,,,62,127
58012,note_on,1,0,0,,0,,,60,127
58012,note_on,0,0,0,,4,,,64,127
58012,note_on,0,0,0,,10,,,81,127
58241,note_off,229,0,0,,4,,,64,127
58241,note_off,0,0,0,,0,,,60,127
58242,note_on,1,0,0,,10,,,57,127
58242,note_on,0,0,0,,0,,,72,127
58471,note_off,229,0,0,,0,,,72,127
58471,note_off,0,0,0,,10,,,57,127
58471,note_off,0,0,0,,10,,,81,127
58472,note_on,1,0,0,,12,,,59,127
58472,note_on,0,0,0,,2,,,74,127
58472,note_on,0,0,0,,7,,,79,127
58701,note_off,229,0,0,,2,,,74,127
58701,note_off,0,0,0,,12,,,59,127
58702,note_on,1,0,0,,0,,,60,127
58702,note_on,0,0,0,,4,,,76,127
58930,note_off,228,0,0,,4,,,76,127
58931,note_off,1,0,0,,0,,,60,127
58931,note_off,0,0,0,,7,,,79,127
58932,note_on,1,0,0,,2,,,62,127
58932,note_on,0,0,0,,5,,,77,127
59162,note_on,230,0,0,,10,,,69,127
59391,note_off,229,0,0,,10,,,69,127
59391,note_off,0,0,0,,5,,,77,127
59391,note_off,0,0,0,,2,,,62,127
59392,note_on,1,0,0,,4,,,64,127
59392,note_on,0,0,0,,8,,,68,127
59392,note_on,0,0,0,,4,,,76,127
59621,note_off,229,0,0,,4,,,76,127
59622,note_on,1,0,0,,2,,,74,127
59851,note_off,229,0,0,,2,,,74,127
59851,note_off,0,0,0,,8,,,68,127
59851,note_off,0,0,0,,4,,,64,127
59852,note_on,1,0,0,,5,,,65,127
59852,note_on,0,0,0,,10,,,69,127
59852,note_on,0,0,0,,0,,,72,127
60312,note_off,460,0,0,,0,,,72,127
60313,note_on,1,0,0,,12,,,71,127
60428,note_off,115,0,0,,10,,,69,127
60542,note_off,114,0,0,,12,,,71,127
60543,note_on,1,0,0,,10,,,69,127
60772,note_off,229,0,0,,10,,,69,127
60772,note_off,0,0,0,,5,,,65,127
60773,note_on,1,0,0,,4,,,64,127
60773,note_on,0,0,0,,8,,,68,127
61001,note_off,228,0,0,,4,,,64,127
61002,note_off,1,0,0,,8,,,68,127
61003,note_on,1,0,0,,4,,,64,127
61233,note_on,230,0,0,,0,,,60,127
61348,note_off,115,0,0,,4,,,64,127
61462,note_off,114,0,0,,0,,,60,127
61463,note_on,1,0,0,,10,,,57,127
61463,note_on,0,0,0,,4,,,64,127
61692,note_off,229,0,0,,4,,,64,127
61692,note_off,0,0,0,,10,,,57,127
61693,note_on,1,0,0,,2,,,62,127
61693,note_on,0,0,0,,5,,,65,127
61921,note_off,228,0,0,,2,,,62,127
61922,note_off,1,0,0,,5,,,65,127
61923,note_on,1,0,0,,2,,,62,127
62152,note_off,229,0,0,,2,,,62,127
62153,note_on,1,0,0,,2,,,62,127
62153,note_on,0,0,0,,12,,,59,127
62153,note_on,0,0,0,,8,,,68,127
62382,note_off,229,0,0,,8,,,68,127
62383,note_on,1,0,0,,4,,,64,127
62612,note_off,229,0,0,,4,,,64,127
62612,note_off,0,0,0,,12,,,59,127
62612,note_off,0,0,0,,2,,,62,127
62613,note_on,1,0,0,,0,,,60,127
62613,note_on,0,0,0,,4,,,64,127
62613,note_on,0,0,0,,10,,,69,127
62842,note_off,229,0,0,,10,,,69,127
62843,note_on,1,0,0,,12,,,71,127
63072,note_off,229,0,0,,12,,,71,127
63072,note_off,0,0,0,,4,,,64,127
63072,note_off,0,0,0,,0,,,60,127
63073,note_on,1,0,0,,5,,,65,127
63073,note_on,0,0,0,,0,,,72,127
63302,note_off,229,0,0,,0,,,72,127
63302,note_off,0,0,0,,5,,,65,127
63303,note_on,1,0,0,,2,,,62,127
63303,note_on,0,0,0,,2,,,74,127
63532,note_off,229,0,0,,2,,,74,127
63532,note_off,0,0,0,,2,,,62,127
63533,note_on,1,0,0,,4,,,52,127
63533,note_on,0,0,0,,0,,,72,127
63762,note_off,229,0,0,,0,,,72,127
63762,note_off,0,0,0,,4,,,52,127
63763,note_on,1,0,0,,4,,,64,127
63763,note_on,0,0,0,,12,,,71,127
63992,note_off,229,0,0,,12,,,71,127
63993,note_on,1,0,0,,10,,,69,127
64222,note_off,229,0,0,,10,,,69,127
64222,note_off,0,0,0,,4,,,64,127
64223,note_on,1,0,0,,2,,,62,127
64223,note_on,0,0,0,,8,,,68,127
64452,note_off,229,0,0,,8,,,68,127
64452,note_off,0,0,0,,2,,,62,127
64453,note_on,1,0,0,,1,,,61,127
64453,note_on,0,0,0,,10,,,69,127
64453,note_on,0,0,0,,4,,,76,127
64682,note_off,229,0,0,,10,,,69,127
64682,note_off,0,0,0,,1,,,61,127
64683,note_on,1,0,0,,10,,,57,127
64683,note_on,0,0,0,,7,,,67,127
64912,note_off,229,0,0,,7,,,67,127
64912,note_off,0,0,0,,10,,,57,127
64912,note_off,0,0,0,,4,,,76,127
64913,note_on,1,0,0,,12,,,59,127
64913,note_on,0,0,0,,5,,,65,127
64913,note_on,0,0,0,,4,,,76,127
65142,note_off,229,0,0,,5,,,65,127
65142,note_off,0,0,0,,12,,,59,127
65143,note_on,1,0,0,,1,,,61,127
65143,note_on,0,0,0,,4,,,64,127
65372,note_off,229,0,0,,4,,,64,127
65372,note_off,0,0,0,,1,,,61,127
65373,note_on,1,0,0,,2,,,62,127
65373,note_on,0,0,0,,5,,,65,127
65602,note_off,229,0,0,,5,,,65,127
65602,note_off,0,0,0,,2,,,62,127
65603,note_on,1,0,0,,4,,,64,127
65603,note_on,0,0,0,,7,,,67,127
65832,note_off,229,0,0,,7,,,67,127
65832,note_off,0,0,0,,4,,,64,127
65832,note_off,0,0,0,,4,,,76,127
65833,note_on,1,0,0,,5,,,65,127
65833,note_on,0,0,0,,10,,,69,127
65833,note_on,0,0,0,,2,,,74,127
66062,note_off,229,0,0,,2,,,74,127
66062,note_off,0,0,0,,5,,,65,127
66063,note_on,1,0,0,,2,,,62,127
66063,note_on,0,0,0,,0,,,72,127
66292,note_off,229,0,0,,0,,,72,127
66292,note_off,0,0,0,,2,,,62,127
66293,note_on,1,0,0,,7,,,55,127
66293,note_on,0,0,0,,11,,,70,127
66522,note_off,229,0,0,,11,,,70,127
66522,note_off,0,0,0,,7,,,55,127
66523,note_on,1,0,0,,10,,,57,127
66523,note_on,0,0,0,,0,,,72,127
66752,note_off,229,0,0,,0,,,72,127
66752,note_off,0,0,0,,10,,,57,127
66752,note_off,0,0,0,,10,,,69,127
66753,note_on,1,0,0,,11,,,58,127
66753,note_on,0,0,0,,7,,,67,127
66753,note_on,0,0,0,,2,,,74,127
66982,note_off,229,0,0,,7,,,67,127
66982,note_off,0,0,0,,11,,,58,127
66983,note_on,1,0,0,,7,,,55,127
66983,note_on,0,0,0,,5,,,65,127
67212,note_off,229,0,0,,5,,,65,127
67212,note_off,0,0,0,,7,,,55,127
67213,note_on,1,0,0,,0,,,60,127
67213,note_on,0,0,0,,4,,,64,127
67442,note_off,229,0,0,,4,,,64,127
67442,note_off,0,0,0,,0,,,60,127
67443,note_on,1,0,0,,2,,,62,127
67443,note_on,0,0,0,,5,,,65,127
67672,note_off,229,0,0,,5,,,65,127
67672,note_off,0,0,0,,2,,,62,127
67672,note_off,0,0,0,,2,,,74,127
67673,note_on,1,0,0,,4,,,64,127
67673,note_on,0,0,0,,7,,,67,127
67673,note_on,0,0,0,,0,,,72,127
67902,note_off,229,0,0,,0,,,72,127
67902,note_off,0,0,0,,4,,,64,127
67903,note_on,1,0,0,,0,,,60,127
67903,note_on,0,0,0,,11,,,70,127
68132,note_off,229,0,0,,11,,,70,127
68132,note_off,0,0,0,,0,,,60,127
68133,note_on,1,0,0,,5,,,53,127
68133,note_on,0,0,0,,10,,,69,127
68362,note_off,229,0,0,,10,,,69,127
68362,note_off,0,0,0,,5,,,53,127
68363,note_on,1,0,0,,7,,,55,127
68363,note_on,0,0,0,,11,,,70,127
68592,note_off,229,0,0,,11,,,70,127
68592,note_off,0,0,0,,7,,,55,127
68592,note_off,0,0,0,,7,,,67,127
68593,note_on,1,0,0,,10,,,57,127
68593,note_on,0,0,0,,5,,,65,127
68593,note_on,0,0,0,,0,,,72,127
68822,note_off,229,0,0,,5,,,65,127
68822,note_off,0,0,0,,10,,,57,127
68823,note_on,1,0,0,,5,,,53,127
68823,note_on,0,0,0,,4,,,64,127
69052,note_off,229,0,0,,4,,,64,127
69052,note_off,0,0,0,,5,,,53,127
69053,note_on,1,0,0,,11,,,58,127
69053,note_on,0,0,0,,2,,,62,127
69282,note_off,229,0,0,,2,,,62,127
69282,note_off,0,0,0,,11,,,58,127
69283,note_on,1,0,0,,0,,,60,127
69283,note_on,0,0,0,,4,,,64,127
69512,note_off,229,0,0,,4,,,64,127
69512,note_off,0,0,0,,0,,,60,127
69512,note_off,0,0,0,,0,,,72,127
69513,note_on,1,0,0,,2,,,62,127
69513,note_on,0,0,0,,5,,,65,127
69513,note_on,0,0,0,,11,,,70,127
69742,note_off,229,0,0,,11,,,70,127
69742,note_off,0,0,0,,2,,,62,127
69743,note_on,1,0,0,,11,,,58,127
69743,note_on,0,0,0,,10,,,69,127
69972,note_off,229,0,0,,10,,,69,127
69972,note_off,0,0,0,,11,,,58,127
69973,note_on,1,0,0,,4,,,52,127
69973,note_on,0,0,0,,7,,,67,127
70202,note_off,229,0,0,,7,,,67,127
70202,note_off,0,0,0,,4,,,52,127
70203,note_on,1,0,0,,5,,,53,127
70203,note_on,0,0,0,,10,,,69,127
70432,note_off,229,0,0,,10,,,69,127
70432,note_off,0,0,0,,5,,,53,127
70432,note_off,0,0,0,,5,,,65,127
70433,note_on,1,0,0,,7,,,55,127
70433,note_on,0,0,0,,4,,,64,127
70433,note_on,0,0,0,,11,,,70,127
70662,note_off,229,0,0,,4,,,64,127
70662,note_off,0,0,0,,7,,,55,127
70663,note_on,1,0,0,,4,,,52,127
70663,note_on,0,0,0,,2,,,62,127
70892,note_off,229,0,0,,2,,,62,127
70892,note_off,0,0,0,,4,,,52,127
70893,note_on,1,0,0,,10,,,57,127
70893,note_on,0,0,0,,1,,,61,127
71122,note_off,229,0,0,,1,,,61,127
71122,note_off,0,0,0,,10,,,57,127
71123,note_on,1,0,0,,12,,,59,127
71123,note_on,0,0,0,,2,,,62,127
71352,note_off,229,0,0,,2,,,62,127
71352,note_off,0,0,0,,12,,,59,127
71352,note_off,0,0,0,,11,,,70,127
71353,note_on,1,0,0,,1,,,61,127
71353,note_on,0,0,0,,4,,,64,127
71353,note_on,0,0,0,,10,,,69,127
71582,note_off,229,0,0,,10,,,69,127
71582,note_off,0,0,0,,1,,,61,127
71583,note_on,1,0,0,,10,,,57,127
71583,note_on,0,0,0,,7,,,67,127
71812,note_off,229,0,0,,7,,,67,127
71812,note_off,0,0,0,,10,,,57,127
71812,note_off,0,0,0,,4,,,64,127
71813,note_on,1,0,0,,2,,,50,127
71813,note_on,0,0,0,,5,,,65,127
72043,note_on,230,0,0,,7,,,67,127
72272,note_off,229,0,0,,7,,,67,127
72272,note_off,0,0,0,,2,,,50,127
72273,note_on,1,0,0,,0,,,48,127
72273,note_on,0,0,0,,10,,,69,127
72502,note_off,229,0,0,,5,,,65,127
72503,note_on,1,0,0,,4,,,64,127
72732,note_off,229,0,0,,4,,,64,127
72732,note_off,0,0,0,,0,,,48,127
72733,note_on,1,0,0,,11,,,46,127
72733,note_on,0,0,0,,2,,,62,127
72962,note_off,229,0,0,,10,,,69,127
72963,note_on,1,0,0,,7,,,67,127
73192,note_off,229,0,0,,7,,,67,127
73192,note_off,0,0,0,,11,,,46,127
73193,note_on,1,0,0,,10,,,45,127
73193,note_on,0,0,0,,5,,,65,127
73422,note_off,229,0,0,,5,,,65,127
73422,note_off,0,0,0,,10,,,45,127
73423,note_on,1,0,0,,7,,,43,127
73423,note_on,0,0,0,,4,,,64,127
73652,note_off,229,0,0,,4,,,64,127
73652,note_off,0,0,0,,7,,,43,127
73652,note_off,0,0,0,,2,,,62,127
73653,note_on,1,0,0,,5,,,41,127
73653,note_on,0,0,0,,2,,,74,127
73653,note_on,0,0,0,,2,,,86,127
73882,note_off,229,0,0,,5,,,41,127
73883,note_on,1,0,0,,2,,,38,127
74112,note_off,229,0,0,,2,,,38,127
74112,note_off,0,0,0,,2,,,86,127
74113,note_on,1,0,0,,4,,,40,127
74113,note_on,0,0,0,,0,,,84,127
74342,note_off,229,0,0,,4,,,40,127
74343,note_on,1,0,0,,5,,,41,127
74572,note_off,229,0,0,,5,,,41,127
74572,note_off,0,0,0,,0,,,84,127
74573,note_on,1,0,0,,7,,,43,127
74573,note_on,0,0,0,,11,,,82,127
75033,note_off,460,0,0,,11,,,82,127
75033,note_off,0,0,0,,7,,,43,127
75033,note_off,0,0,0,,2,,,74,127
75034,note_on,1,0,0,,10,,,45,127
75034,note_on,0,0,0,,10,,,57,127
75034,note_on,0,0,0,,1,,,73,127
75034,note_on,0,0,0,,10,,,81,127
75263,note_off,229,0,0,,10,,,81,127
75264,note_on,1,0,0,,7,,,79,127
75493,note_off,229,0,0,,7,,,79,127
75493,note_off,0,0,0,,1,,,73,127
75493,note_off,0,0,0,,10,,,45,127
75494,note_on,1,0,0,,11,,,46,127
75494,note_on,0,0,0,,2,,,74,127
75494,note_on,0,0,0,,5,,,77,127
75950,note_off,456,0,0,,2,,,74,127
75954,note_off,4,0,0,,5,,,77,127
75954,note_off,0,0,0,,10,,,57,127
75955,note_on,1,0,0,,7,,,55,127
75955,note_on,0,0,0,,4,,,76,127
76184,note_off,229,0,0,,4,,,76,127
76185,note_on,1,0,0,,2,,,74,127
76414,note_off,229,0,0,,2,,,74,127
76414,note_off,0,0,0,,7,,,55,127
76414,note_off,0,0,0,,11,,,46,127
76415,note_on,1,0,0,,10,,,45,127
76415,note_on,0,0,0,,10,,,57,127
76415,note_on,0,0,0,,1,,,73,127
76644,note_off,229,0,0,,1,,,73,127
76645,note_on,1,0,0,,10,,,69,127
76874,note_off,229,0,0,,10,,,57,127
76874,note_off,0,0,0,,10,,,45,127
76875,note_on,1,0,0,,5,,,53,127
76990,note_off,115,0,0,,10,,,69,127
77104,note_off,114,0,0,,5,,,53,127
77105,note_on,1,0,0,,2,,,50,127
77105,note_on,0,0,0,,10,,,69,127
77334,note_off,229,0,0,,10,,,69,127
77334,note_off,0,0,0,,2,,,50,127
77335,note_on,1,0,0,,7,,,55,127
77335,note_on,0,0,0,,11,,,70,127
77564,note_off,229,0,0,,11,,,70,127
77565,note_on,1,0,0,,7,,,67,127
77794,note_off,229,0,0,,7,,,67,127
77794,note_off,0,0,0,,7,,,55,127
77795,note_on,1,0,0,,10,,,57,127
77795,note_on,0,0,0,,1,,,73,127
78024,note_off,229,0,0,,1,,,73,127
78025,note_on,1,0,0,,10,,,69,127
78254,note_off,229,0,0,,10,,,69,127
78254,note_off,0,0,0,,10,,,57,127
78255,note_on,1,0,0,,11,,,58,127
78255,note_on,0,0,0,,2,,,74,127
78484,note_off,229,0,0,,11,,,58,127
78485,note_on,1,0,0,,7,,,55,127
78714,note_off,229,0,0,,7,,,55,127
78714,note_off,0,0,0,,2,,,74,127
78715,note_on,1,0,0,,1,,,61,127
78715,note_on,0,0,0,,4,,,76,127
78944,note_off,229,0,0,,1,,,61,127
78945,note_on,1,0,0,,10,,,57,127
79174,note_off,229,0,0,,10,,,57,127
79174,note_off,0,0,0,,4,,,76,127
79175,note_on,1,0,0,,2,,,50,127
79175,note_on,0,0,0,,2,,,62,127
79175,note_on,0,0,0,,10,,,69,127
79175,note_on,0,0,0,,5,,,77,127
79404,note_off,229,0,0,,5,,,77,127
79405,note_on,1,0,0,,2,,,74,127
79634,note_off,229,0,0,,2,,,74,127
79634,note_off,0,0,0,,2,,,50,127
79635,note_on,1,0,0,,4,,,52,127
79635,note_on,0,0,0,,7,,,79,127
79864,note_off,229,0,0,,7,,,79,127
79865,note_on,1,0,0,,4,,,76,127
80094,note_off,229,0,0,,4,,,76,127
80094,note_off,0,0,0,,4,,,52,127
80095,note_on,1,0,0,,5,,,53,127
80095,note_on,0,0,0,,10,,,81,127
80324,note_off,229,0,0,,5,,,53,127
80325,note_on,1,0,0,,2,,,50,127
80554,note_off,229,0,0,,2,,,50,127
80554,note_off,0,0,0,,10,,,81,127
80554,note_off,0,0,0,,10,,,69,127
80555,note_on,1,0,0,,7,,,55,127
80555,note_on,0,0,0,,11,,,70,127
80555,note_on,0,0,0,,7,,,79,127
80784,note_off,229,0,0,,7,,,55,127
80785,note_on,1,0,0,,4,,,52,127
81008,note_off,223,0,0,,2,,,62,127
81014,note_off,6,0,0,,4,,,52,127
81014,note_off,0,0,0,,7,,,79,127
81014,note_off,0,0,0,,11,,,70,127
81015,note_on,1,0,0,,10,,,57,127
81015,note_on,0,0,0,,1,,,73,127
81015,note_on,0,0,0,,7,,,79,127
81244,note_off,229,0,0,,1,,,73,127
81245,note_on,1,0,0,,10,,,69,127
81474,note_off,229,0,0,,10,,,69,127
81474,note_off,0,0,0,,10,,,57,127
81475,note_on,1,0,0,,12,,,59,127
81475,note_on,0,0,0,,2,,,74,127
81704,note_off,229,0,0,,2,,,74,127
81705,note_on,1,0,0,,12,,,71,127
81934,note_off,229,0,0,,12,,,71,127
81934,note_off,0,0,0,,12,,,59,127
81935,note_on,1,0,0,,1,,,61,127
81935,note_on,0,0,0,,10,,,69,127
82164,note_off,229,0,0,,7,,,79,127
82165,note_on,1,0,0,,4,,,76,127
82394,note_off,229,0,0,,4,,,76,127
82394,note_off,0,0,0,,1,,,61,127
82395,note_on,1,0,0,,2,,,62,127
82395,note_on,0,0,0,,5,,,77,127
82624,note_off,229,0,0,,5,,,77,127
82625,note_on,1,0,0,,2,,,74,127
82854,note_off,229,0,0,,2,,,74,127
82854,note_off,0,0,0,,2,,,62,127
82855,note_on,1,0,0,,10,,,57,127
82855,note_on,0,0,0,,4,,,76,127
83084,note_off,229,0,0,,10,,,69,127
83085,note_on,1,0,0,,12,,,71,127
83314,note_off,229,0,0,,12,,,71,127
83315,note_on,1,0,0,,4,,,64,127
83315,note_on,0,0,0,,1,,,73,127
83544,note_off,229,0,0,,1,,,73,127
83545,note_on,1,0,0,,10,,,69,127
83774,note_off,229,0,0,,10,,,69,127
83774,note_off,0,0,0,,10,,,57,127
83775,note_on,1,0,0,,7,,,55,127
83775,note_on,0,0,0,,11,,,70,127
84004,note_off,229,0,0,,4,,,76,127
84005,note_on,1,0,0,,2,,,74,127
84234,note_off,229,0,0,,2,,,74,127
84234,note_off,0,0,0,,11,,,70,127
84234,note_off,0,0,0,,4,,,64,127
84235,note_on,1,0,0,,4,,,64,127
84235,note_on,0,0,0,,7,,,67,127
84235,note_on,0,0,0,,4,,,76,127
84464,note_off,229,0,0,,4,,,76,127
84465,note_on,1,0,0,,0,,,72,127
84694,note_off,229,0,0,,0,,,72,127
84694,note_off,0,0,0,,7,,,67,127
84694,note_off,0,0,0,,4,,,64,127
84694,note_off,0,0,0,,7,,,55,127
84695,note_on,1,0,0,,5,,,53,127
84695,note_on,0,0,0,,5,,,65,127
84695,note_on,0,0,0,,10,,,69,127
84695,note_on,0,0,0,,2,,,74,127
84924,note_off,229,0,0,,10,,,69,127
84924,note_off,0,0,0,,5,,,65,127
84925,note_on,1,0,0,,4,,,64,127
84925,note_on,0,0,0,,7,,,67,127
85154,note_off,229,0,0,,7,,,67,127
85154,note_off,0,0,0,,4,,,64,127
85155,note_on,1,0,0,,2,,,62,127
85155,note_on,0,0,0,,5,,,65,127
85384,note_off,229,0,0,,5,,,65,127
85384,note_off,0,0,0,,2,,,62,127
85385,note_on,1,0,0,,0,,,60,127
85385,note_on,0,0,0,,4,,,64,127
85614,note_off,229,0,0,,4,,,64,127
85614,note_off,0,0,0,,0,,,60,127
85614,note_off,0,0,0,,2,,,74,127
85614,note_off,0,0,0,,5,,,53,127
85615,note_on,1,0,0,,2,,,62,127
85615,note_on,0,0,0,,11,,,58,127
85615,note_on,0,0,0,,2,,,74,127
85844,note_off,229,0,0,,11,,,58,127
85845,note_on,1,0,0,,10,,,57,127
85845,note_on,0,0,0,,0,,,72,127
86074,note_off,229,0,0,,0,,,72,127
86074,note_off,0,0,0,,10,,,57,127
86074,note_off,0,0,0,,2,,,74,127
86075,note_on,1,0,0,,7,,,55,127
86075,note_on,0,0,0,,11,,,70,127
86075,note_on,0,0,0,,7,,,79,127
86304,note_off,229,0,0,,11,,,70,127
86304,note_off,0,0,0,,7,,,55,127
86305,note_on,1,0,0,,5,,,53,127
86305,note_on,0,0,0,,10,,,69,127
86534,note_off,229,0,0,,10,,,69,127
86534,note_off,0,0,0,,5,,,53,127
86534,note_off,0,0,0,,2,,,62,127
86535,note_on,1,0,0,,4,,,52,127
86535,note_on,0,0,0,,4,,,64,127
86535,note_on,0,0,0,,7,,,67,127
86764,note_off,229,0,0,,4,,,64,127
86764,note_off,0,0,0,,7,,,79,127
86765,note_on,1,0,0,,2,,,62,127
86765,note_on,0,0,0,,5,,,77,127
86994,note_off,229,0,0,,5,,,77,127
86994,note_off,0,0,0,,2,,,62,127
86995,note_on,1,0,0,,0,,,60,127
86995,note_on,0,0,0,,4,,,76,127
87224,note_off,229,0,0,,4,,,76,127
87224,note_off,0,0,0,,0,,,60,127
87225,note_on,1,0,0,,11,,,58,127
87225,note_on,0,0,0,,2,,,74,127
87454,note_off,229,0,0,,2,,,74,127
87454,note_off,0,0,0,,11,,,58,127
87454,note_off,0,0,0,,7,,,67,127
87454,note_off,0,0,0,,4,,,52,127
87455,note_on,1,0,0,,10,,,57,127
87455,note_on,0,0,0,,0,,,72,127
87684,note_off,229,0,0,,10,,,57,127
87685,note_on,1,0,0,,7,,,55,127
87685,note_on,0,0,0,,11,,,70,127
87914,note_off,229,0,0,,11,,,70,127
87914,note_off,0,0,0,,7,,,55,127
87914,note_off,0,0,0,,0,,,72,127
87915,note_on,1,0,0,,5,,,53,127
87915,note_on,0,0,0,,10,,,69,127
87915,note_on,0,0,0,,5,,,77,127
88144,note_off,229,0,0,,10,,,69,127
88144,note_off,0,0,0,,5,,,53,127
88145,note_on,1,0,0,,4,,,52,127
88145,note_on,0,0,0,,7,,,67,127
88374,note_off,229,0,0,,7,,,67,127
88374,note_off,0,0,0,,4,,,52,127
88375,note_on,1,0,0,,2,,,50,127
88375,note_on,0,0,0,,2,,,62,127
88375,note_on,0,0,0,,5,,,65,127
88604,note_off,229,0,0,,2,,,62,127
88604,note_off,0,0,0,,5,,,77,127
88605,note_on,1,0,0,,0,,,60,127
88605,note_on,0,0,0,,4,,,76,127
88834,note_off,229,0,0,,4,,,76,127
88834,note_off,0,0,0,,0,,,60,127
88835,note_on,1,0,0,,11,,,58,127
88835,note_on,0,0,0,,2,,,74,127
89064,note_off,229,0,0,,2,,,74,127
89064,note_off,0,0,0,,11,,,58,127
89065,note_on,1,0,0,,10,,,57,127
89065,note_on,0,0,0,,0,,,72,127
89294,note_off,229,0,0,,0,,,72,127
89294,note_off,0,0,0,,10,,,57,127
89294,note_off,0,0,0,,5,,,65,127
89294,note_off,0,0,0,,2,,,50,127
89295,note_on,1,0,0,,7,,,55,127
89295,note_on,0,0,0,,11,,,70,127
89524,note_off,229,0,0,,11,,,70,127
89524,note_off,0,0,0,,7,,,55,127
89525,note_on,1,0,0,,5,,,53,127
89525,note_on,0,0,0,,10,,,69,127
89754,note_off,229,0,0,,10,,,69,127
89754,note_off,0,0,0,,5,,,53,127
89755,note_on,1,0,0,,4,,,52,127
89755,note_on,0,0,0,,7,,,67,127
89984,note_off,229,0,0,,7,,,67,127
89984,note_off,0,0,0,,4,,,52,127
89985,note_on,1,0,0,,2,,,50,127
89985,note_on,0,0,0,,5,,,65,127
90214,note_off,229,0,0,,5,,,65,127
90214,note_off,0,0,0,,2,,,50,127
90215,note_on,1,0,0,,0,,,48,127
90215,note_on,0,0,0,,4,,,64,127
90215,note_on,0,0,0,,0,,,72,127
90444,note_off,229,0,0,,4,,,64,127
90445,note_on,1,0,0,,0,,,60,127
90674,note_off,229,0,0,,0,,,60,127
90674,note_off,0,0,0,,0,,,48,127
90675,note_on,1,0,0,,2,,,50,127
90675,note_on,0,0,0,,6,,,66,127
90904,note_off,229,0,0,,6,,,66,127
90905,note_on,1,0,0,,2,,,62,127
91134,note_off,229,0,0,,2,,,62,127
91134,note_off,0,0,0,,2,,,50,127
91134,note_off,0,0,0,,0,,,72,127
91135,note_on,1,0,0,,7,,,55,127
91135,note_on,0,0,0,,7,,,67,127
91135,note_on,0,0,0,,11,,,70,127
91363,note_off,228,0,0,,7,,,67,127
91364,note_off,1,0,0,,11,,,70,127
91365,note_on,1,0,0,,7,,,67,127
91594,note_off,229,0,0,,7,,,67,127
91594,note_off,0,0,0,,7,,,55,127
91595,note_on,1,0,0,,10,,,57,127
91595,note_on,0,0,0,,1,,,73,127
91824,note_off,229,0,0,,1,,,73,127
91825,note_on,1,0,0,,10,,,69,127
92054,note_off,229,0,0,,10,,,69,127
92054,note_off,0,0,0,,10,,,57,127
92055,note_on,1,0,0,,5,,,53,127
92055,note_on,0,0,0,,10,,,57,127
92055,note_on,0,0,0,,5,,,65,127
92055,note_on,0,0,0,,2,,,74,127
92284,note_off,229,0,0,,5,,,53,127
92285,note_on,1,0,0,,2,,,50,127
92511,note_off,226,0,0,,10,,,57,127
92515,note_off,4,0,0,,2,,,50,127
92515,note_off,0,0,0,,5,,,65,127
92516,note_on,1,0,0,,8,,,56,127
92516,note_on,0,0,0,,12,,,59,127
92516,note_on,0,0,0,,4,,,64,127
92745,note_off,229,0,0,,8,,,56,127
92746,note_on,1,0,0,,4,,,52,127
92972,note_off,226,0,0,,12,,,59,127
92976,note_off,4,0,0,,4,,,52,127
92976,note_off,0,0,0,,2,,,74,127
92977,note_on,1,0,0,,10,,,57,127
92977,note_on,0,0,0,,0,,,72,127
93206,note_off,229,0,0,,0,,,72,127
93207,note_on,1,0,0,,10,,,69,127
93436,note_off,229,0,0,,10,,,69,127
93436,note_off,0,0,0,,10,,,57,127
93436,note_off,0,0,0,,4,,,64,127
93437,note_on,1,0,0,,12,,,59,127
93437,note_on,0,0,0,,2,,,62,127
93437,note_on,0,0,0,,2,,,74,127
93666,note_off,229,0,0,,2,,,74,127
93667,note_on,1,0,0,,12,,,71,127
93896,note_off,229,0,0,,12,,,71,127
93896,note_off,0,0,0,,2,,,62,127
93896,note_off,0,0,0,,12,,,59,127
93897,note_on,1,0,0,,0,,,60,127
93897,note_on,0,0,0,,10,,,69,127
93897,note_on,0,0,0,,4,,,76,127
94126,note_off,229,0,0,,0,,,60,127
94127,note_on,1,0,0,,10,,,57,127
94356,note_off,229,0,0,,10,,,57,127
94356,note_off,0,0,0,,10,,,69,127
94357,note_on,1,0,0,,12,,,59,127
94357,note_on,0,0,0,,7,,,67,127
94586,note_off,229,0,0,,12,,,59,127
94587,note_on,1,0,0,,0,,,60,127
94816,note_off,229,0,0,,0,,,60,127
94816,note_off,0,0,0,,7,,,67,127
94817,note_on,1,0,0,,2,,,50,127
94817,note_on,0,0,0,,5,,,65,127
94817,note_on,0,0,0,,2,,,62,127
95046,note_off,229,0,0,,2,,,62,127
95046,note_off,0,0,0,,5,,,65,127
95046,note_off,0,0,0,,2,,,50,127
95047,note_on,1,0,0,,4,,,52,127
95047,note_on,0,0,0,,7,,,67,127
95276,note_off,229,0,0,,7,,,67,127
95276,note_off,0,0,0,,4,,,52,127
95276,note_off,0,0,0,,4,,,76,127
95277,note_on,1,0,0,,5,,,53,127
95277,note_on,0,0,0,,10,,,69,127
95277,note_on,0,0,0,,2,,,74,127
95506,note_off,229,0,0,,2,,,74,127
95506,note_off,0,0,0,,5,,,53,127
95507,note_on,1,0,0,,2,,,50,127
95507,note_on,0,0,0,,0,,,72,127
95736,note_off,229,0,0,,0,,,72,127
95736,note_off,0,0,0,,2,,,50,127
95737,note_on,1,0,0,,7,,,55,127
95737,note_on,0,0,0,,12,,,71,127
95966,note_off,229,0,0,,12,,,71,127
95966,note_off,0,0,0,,7,,,55,127
95967,note_on,1,0,0,,10,,,57,127
95967,note_on,0,0,0,,0,,,72,127
96196,note_off,229,0,0,,0,,,72,127
96196,note_off,0,0,0,,10,,,57,127
96196,note_off,0,0,0,,10,,,69,127
96197,note_on,1,0,0,,12,,,59,127
96197,note_on,0,0,0,,7,,,67,127
96197,note_on,0,0,0,,2,,,74,127
96426,note_off,229,0,0,,7,,,67,127
96426,note_off,0,0,0,,12,,,59,127
96427,note_on,1,0,0,,7,,,55,127
96427,note_on,0,0,0,,5,,,65,127
96656,note_off,229,0,0,,5,,,65,127
96656,note_off,0,0,0,,7,,,55,127
96657,note_on,1,0,0,,0,,,48,127
96657,note_on,0,0,0,,0,,,60,127
96657,note_on,0,0,0,,4,,,64,127
96886,note_off,229,0,0,,4,,,64,127
96886,note_off,0,0,0,,0,,,48,127
96887,note_on,1,0,0,,2,,,50,127
96887,note_on,0,0,0,,5,,,65,127
97116,note_off,229,0,0,,5,,,65,127
97116,note_off,0,0,0,,2,,,50,127
97116,note_off,0,0,0,,2,,,74,127
97117,note_on,1,0,0,,4,,,52,127
97117,note_on,0,0,0,,7,,,67,127
97117,note_on,0,0,0,,0,,,72,127
97346,note_off,229,0,0,,0,,,72,127
97346,note_off,0,0,0,,4,,,52,127
97347,note_on,1,0,0,,0,,,48,127
97347,note_on,0,0,0,,12,,,71,127
97576,note_off,229,0,0,,12,,,71,127
97576,note_off,0,0,0,,0,,,48,127
97576,note_off,0,0,0,,0,,,60,127
97577,note_on,1,0,0,,5,,,53,127
97577,note_on,0,0,0,,10,,,69,127
97806,note_off,229,0,0,,10,,,69,127
97806,note_off,0,0,0,,5,,,53,127
97807,note_on,1,0,0,,7,,,55,127
97807,note_on,0,0,0,,12,,,71,127
98036,note_off,229,0,0,,12,,,71,127
98036,note_off,0,0,0,,7,,,55,127
98036,note_off,0,0,0,,7,,,67,127
98037,note_on,1,0,0,,10,,,57,127
98037,note_on,0,0,0,,5,,,65,127
98037,note_on,0,0,0,,0,,,72,127
98266,note_off,229,0,0,,5,,,65,127
98266,note_off,0,0,0,,10,,,57,127
98267,note_on,1,0,0,,5,,,53,127
98267,note_on,0,0,0,,4,,,64,127
98496,note_off,229,0,0,,4,,,64,127
98496,note_off,0,0,0,,5,,,53,127
98497,note_on,1,0,0,,12,,,59,127
98497,note_on,0,0,0,,12,,,47,127
98497,note_on,0,0,0,,2,,,62,127
98726,note_off,229,0,0,,2,,,62,127
98726,note_off,0,0,0,,12,,,47,127
98727,note_on,1,0,0,,0,,,48,127
98727,note_on,0,0,0,,4,,,64,127
98956,note_off,229,0,0,,4,,,64,127
98956,note_off,0,0,0,,0,,,48,127
98956,note_off,0,0,0,,0,,,72,127
98957,note_on,1,0,0,,2,,,50,127
98957,note_on,0,0,0,,5,,,65,127
98957,note_on,0,0,0,,12,,,71,127
99186,note_off,229,0,0,,12,,,71,127
99186,note_off,0,0,0,,2,,,50,127
99187,note_on,1,0,0,,12,,,47,127
99187,note_on,0,0,0,,10,,,69,127
99416,note_off,229,0,0,,10,,,69,127
99416,note_off,0,0,0,,12,,,47,127
99416,note_off,0,0,0,,12,,,59,127
99417,note_on,1,0,0,,4,,,52,127
99417,note_on,0,0,0,,8,,,68,127
99646,note_off,229,0,0,,8,,,68,127
99646,note_off,0,0,0,,4,,,52,127
99647,note_on,1,0,0,,6,,,54,127
99647,note_on,0,0,0,,10,,,69,127
99876,note_off,229,0,0,,10,,,69,127
99876,note_off,0,0,0,,6,,,54,127
99876,note_off,0,0,0,,5,,,65,127
99877,note_on,1,0,0,,8,,,56,127
99877,note_on,0,0,0,,4,,,64,127
99877,note_on,0,0,0,,12,,,71,127
100106,note_off,229,0,0,,4,,,64,127
100106,note_off,0,0,0,,8,,,56,127
100107,note_on,1,0,0,,4,,,52,127
100107,note_on,0,0,0,,2,,,62,127
100336,note_off,229,0,0,,2,,,62,127
100336,note_off,0,0,0,,4,,,52,127
100336,note_off,0,0,0,,12,,,71,127
100337,note_on,1,0,0,,10,,,57,127
100337,note_on,0,0,0,,0,,,60,127
100337,note_on,0,0,0,,0,,,72,127
100566,note_off,229,0,0,,0,,,60,127
100567,note_on,1,0,0,,2,,,62,127
100796,note_off,229,0,0,,2,,,62,127
100796,note_off,0,0,0,,10,,,57,127
100797,note_on,1,0,0,,7,,,55,127
100797,note_on,0,0,0,,4,,,64,127
101026,note_off,229,0,0,,0,,,72,127
101027,note_on,1,0,0,,12,,,71,127
101256,note_off,229,0,0,,12,,,71,127
101256,note_off,0,0,0,,4,,,64,127
101256,note_off,0,0,0,,7,,,55,127
101257,note_on,1,0,0,,5,,,53,127
101257,note_on,0,0,0,,5,,,65,127
101257,note_on,0,0,0,,10,,,69,127
101486,note_off,229,0,0,,10,,,69,127
101487,note_on,1,0,0,,12,,,71,127
101716,note_off,229,0,0,,12,,,71,127
101716,note_off,0,0,0,,5,,,53,127
101717,note_on,1,0,0,,4,,,52,127
101717,note_on,0,0,0,,0,,,72,127
101946,note_off,229,0,0,,0,,,72,127
101946,note_off,0,0,0,,4,,,52,127
101947,note_on,1,0,0,,2,,,50,127
101947,note_on,0,0,0,,2,,,74,127
102176,note_off,229,0,0,,2,,,74,127
102176,note_off,0,0,0,,2,,,50,127
102176,note_off,0,0,0,,5,,,65,127
102177,note_on,1,0,0,,0,,,48,127
102177,note_on,0,0,0,,4,,,64,127
102177,note_on,0,0,0,,4,,,76,127
102406,note_off,229,0,0,,4,,,64,127
102407,note_on,1,0,0,,6,,,66,127
102636,note_off,229,0,0,,6,,,66,127
102636,note_off,0,0,0,,0,,,48,127
102637,note_on,1,0,0,,12,,,47,127
102637,note_on,0,0,0,,8,,,68,127
102866,note_off,229,0,0,,8,,,68,127
102866,note_off,0,0,0,,12,,,47,127
102867,note_on,1,0,0,,10,,,45,127
102867,note_on,0,0,0,,10,,,69,127
103096,note_off,229,0,0,,10,,,69,127
103096,note_off,0,0,0,,10,,,45,127
103097,note_on,1,0,0,,8,,,44,127
103097,note_on,0,0,0,,12,,,71,127
103326,note_off,229,0,0,,8,,,44,127
103326,note_off,0,0,0,,4,,,76,127
103327,note_on,1,0,0,,4,,,40,127
103327,note_on,0,0,0,,2,,,74,127
103556,note_off,229,0,0,,2,,,74,127
103556,note_off,0,0,0,,4,,,40,127
103556,note_off,0,0,0,,12,,,71,127
103557,note_on,1,0,0,,6,,,42,127
103557,note_on,0,0,0,,4,,,64,127
103557,note_on,0,0,0,,0,,,72,127
103786,note_off,229,0,0,,0,,,72,127
103786,note_off,0,0,0,,6,,,42,127
103787,note_on,1,0,0,,8,,,44,127
103787,note_on,0,0,0,,12,,,71,127
104016,note_off,229,0,0,,12,,,71,127
104016,note_off,0,0,0,,8,,,44,127
104017,note_on,1,0,0,,10,,,45,127
104017,note_on,0,0,0,,10,,,57,127
104017,note_on,0,0,0,,0,,,72,127
104246,note_off,229,0,0,,0,,,72,127
104246,note_off,0,0,0,,10,,,57,127
104247,note_on,1,0,0,,7,,,55,127
104247,note_on,0,0,0,,12,,,71,127
104476,note_off,229,0,0,,12,,,71,127
104476,note_off,0,0,0,,7,,,55,127
104476,note_off,0,0,0,,4,,,64,127
104477,note_on,1,0,0,,5,,,53,127
104477,note_on,0,0,0,,10,,,69,127
104706,note_off,229,0,0,,10,,,69,127
104706,note_off,0,0,0,,5,,,53,127
104707,note_on,1,0,0,,4,,,52,127
104707,note_on,0,0,0,,7,,,67,127
104936,note_off,229,0,0,,7,,,67,127
104936,note_off,0,0,0,,4,,,52,127
104936,note_off,0,0,0,,10,,,45,127
104937,note_on,1,0,0,,2,,,50,127
104937,note_on,0,0,0,,2,,,62,127
104937,note_on,0,0,0,,5,,,65,127
104937,note_on,0,0,0,,2,,,74,127
105166,note_off,229,0,0,,5,,,65,127
105166,note_off,0,0,0,,2,,,62,127
105167,note_on,1,0,0,,0,,,60,127
105167,note_on,0,0,0,,4,,,64,127
105396,note_off,229,0,0,,4,,,64,127
105396,note_off,0,0,0,,0,,,60,127
105397,note_on,1,0,0,,12,,,59,127
105397,note_on,0,0,0,,2,,,62,127
105626,note_off,229,0,0,,12,,,59,127
105626,note_off,0,0,0,,2,,,74,127
105627,note_on,1,0,0,,10,,,57,127
105627,note_on,0,0,0,,0,,,72,127
105856,note_off,229,0,0,,0,,,72,127
105856,note_off,0,0,0,,10,,,57,127
105856,note_off,0,0,0,,2,,,50,127
105857,note_on,1,0,0,,7,,,55,127
105857,note_on,0,0,0,,12,,,71,127
106086,note_off,229,0,0,,12,,,71,127
106086,note_off,0,0,0,,7,,,55,127
106087,note_on,1,0,0,,5,,,53,127
106087,note_on,0,0,0,,10,,,69,127
106316,note_off,229,0,0,,10,,,69,127
106316,note_off,0,0,0,,5,,,53,127
106316,note_off,0,0,0,,2,,,62,127
106317,note_on,1,0,0,,4,,,52,127
106317,note_on,0,0,0,,7,,,67,127
106546,note_off,229,0,0,,7,,,67,127
106546,note_off,0,0,0,,4,,,52,127
106547,note_on,1,0,0,,2,,,50,127
106547,note_on,0,0,0,,5,,,65,127
106776,note_off,229,0,0,,5,,,65,127
106776,note_off,0,0,0,,2,,,50,127
106777,note_on,1,0,0,,0,,,48,127
106777,note_on,0,0,0,,0,,,60,127
106777,note_on,0,0,0,,4,,,64,127
106777,note_on,0,0,0,,0,,,72,127
107006,note_off,229,0,0,,4,,,64,127
107006,note_off,0,0,0,,0,,,60,127
107007,note_on,1,0,0,,12,,,59,127
107007,note_on,0,0,0,,2,,,62,127
107236,note_off,229,0,0,,2,,,62,127
107236,note_off,0,0,0,,12,,,59,127
107237,note_on,1,0,0,,10,,,57,127
107237,note_on,0,0,0,,0,,,60,127
107466,note_off,229,0,0,,10,,,57,127
107466,note_off,0,0,0,,0,,,72,127
107467,note_on,1,0,0,,7,,,55,127
107467,note_on,0,0,0,,12,,,71,127
107693,note_off,226,0,0,,0,,,60,127
107697,note_off,4,0,0,,12,,,71,127
107697,note_off,0,0,0,,7,,,55,127
107697,note_off,0,0,0,,0,,,48,127
107698,note_on,1,0,0,,5,,,53,127
107698,note_on,0,0,0,,10,,,69,127
107927,note_off,229,0,0,,10,,,69,127
107928,note_on,1,0,0,,12,,,71,127
108157,note_off,229,0,0,,12,,,71,127
108158,note_on,1,0,0,,5,,,65,127
108158,note_on,0,0,0,,0,,,72,127
108387,note_off,229,0,0,,0,,,72,127
108388,note_on,1,0,0,,10,,,69,127
108617,note_off,229,0,0,,10,,,69,127
108617,note_off,0,0,0,,5,,,53,127
108618,note_on,1,0,0,,7,,,55,127
108618,note_on,0,0,0,,12,,,71,127
108847,note_off,229,0,0,,5,,,65,127
108848,note_on,1,0,0,,2,,,62,127
109077,note_off,229,0,0,,2,,,62,127
109077,note_off,0,0,0,,12,,,71,127
109077,note_off,0,0,0,,7,,,55,127
109078,note_on,1,0,0,,0,,,48,127
109078,note_on,0,0,0,,4,,,64,127
109078,note_on,0,0,0,,0,,,72,127
109307,note_off,229,0,0,,4,,,64,127
109308,note_on,1,0,0,,0,,,60,127
109537,note_off,229,0,0,,0,,,60,127
109537,note_off,0,0,0,,0,,,48,127
109538,note_on,1,0,0,,2,,,50,127
109538,note_on,0,0,0,,6,,,66,127
109767,note_off,229,0,0,,0,,,72,127
109768,note_on,1,0,0,,10,,,69,127
109997,note_off,229,0,0,,10,,,69,127
109997,note_off,0,0,0,,6,,,66,127
109997,note_off,0,0,0,,2,,,50,127
109998,note_on,1,0,0,,7,,,55,127
109998,note_on,0,0,0,,7,,,67,127
109998,note_on,0,0,0,,11,,,70,127
110226,note_off,228,0,0,,7,,,67,127
110227,note_off,1,0,0,,11,,,70,127
110228,note_on,1,0,0,,7,,,67,127
110457,note_off,229,0,0,,7,,,67,127
110457,note_off,0,0,0,,7,,,55,127
110458,note_on,1,0,0,,10,,,57,127
110458,note_on,0,0,0,,1,,,73,127
110688,note_on,230,0,0,,4,,,64,127
110917,note_off,229,0,0,,4,,,64,127
110917,note_off,0,0,0,,1,,,73,127
110917,note_off,0,0,0,,10,,,57,127
110918,note_on,1,0,0,,2,,,50,127
110918,note_on,0,0,0,,5,,,65,127
110918,note_on,0,0,0,,2,,,74,127
111147,note_off,229,0,0,,5,,,65,127
111148,note_on,1,0,0,,2,,,62,127
111377,note_off,229,0,0,,2,,,62,127
111377,note_off,0,0,0,,2,,,50,127
111378,note_on,1,0,0,,4,,,52,127
111378,note_on,0,0,0,,8,,,68,127
111607,note_off,229,0,0,,8,,,68,127
111608,note_on,1,0,0,,4,,,64,127
111836,note_off,228,0,0,,4,,,64,127
111837,note_off,1,0,0,,4,,,52,127
111837,note_off,0,0,0,,2,,,74,127
111838,note_on,1,0,0,,10,,,57,127
111838,note_on,0,0,0,,1,,,73,127
112068,note_on,230,0,0,,10,,,69,127
112297,note_off,229,0,0,,1,,,73,127
112297,note_off,0,0,0,,10,,,57,127
112298,note_on,1,0,0,,11,,,58,127
112298,note_on,0,0,0,,2,,,74,127
112527,note_off,229,0,0,,10,,,69,127
112528,note_on,1,0,0,,7,,,67,127
112756,note_off,228,0,0,,7,,,67,127
112757,note_off,1,0,0,,2,,,74,127
112757,note_off,0,0,0,,11,,,58,127
112758,note_on,1,0,0,,1,,,61,127
112758,note_on,0,0,0,,4,,,76,127
112988,note_on,230,0,0,,10,,,69,127
113216,note_off,228,0,0,,10,,,69,127
113217,note_off,1,0,0,,4,,,76,127
113217,note_off,0,0,0,,1,,,61,127
113218,note_on,1,0,0,,2,,,62,127
113218,note_on,0,0,0,,5,,,77,127
113447,note_off,229,0,0,,5,,,77,127
113448,note_on,1,0,0,,10,,,81,127
113677,note_off,229,0,0,,2,,,62,127
113678,note_on,1,0,0,,0,,,60,127
113792,note_off,114,0,0,,10,,,81,127
113793,note_on,1,0,0,,7,,,79,127
113907,note_off,114,0,0,,7,,,79,127
113908,note_on,1,0,0,,5,,,77,127
114022,note_off,114,0,0,,5,,,77,127
114023,note_on,1,0,0,,4,,,76,127
114137,note_off,114,0,0,,4,,,76,127
114137,note_off,0,0,0,,0,,,60,127
114138,note_on,1,0,0,,11,,,58,127
114138,note_on,0,0,0,,2,,,74,127
114252,note_off,114,0,0,,2,,,74,127
114253,note_on,1,0,0,,1,,,73,127
114367,note_off,114,0,0,,1,,,73,127
114368,note_on,1,0,0,,2,,,74,127
114482,note_off,114,0,0,,2,,,74,127
114483,note_on,1,0,0,,4,,,76,127
114597,note_off,114,0,0,,4,,,76,127
114597,note_off,0,0,0,,11,,,58,127
114598,note_on,1,0,0,,10,,,57,127
114598,note_on,0,0,0,,5,,,77,127
114712,note_off,114,0,0,,5,,,77,127
114713,note_on,1,0,0,,4,,,76,127
114827,note_off,114,0,0,,4,,,76,127
114827,note_off,0,0,0,,10,,,57,127
114828,note_on,1,0,0,,7,,,55,127
114828,note_on,0,0,0,,5,,,77,127
114942,note_off,114,0,0,,5,,,77,127
114943,note_on,1,0,0,,7,,,79,127
115057,note_off,114,0,0,,7,,,79,127
115057,note_off,0,0,0,,7,,,55,127
115058,note_on,1,0,0,,5,,,53,127
115058,note_on,0,0,0,,10,,,81,127
115172,note_off,114,0,0,,10,,,81,127
115173,note_on,1,0,0,,5,,,77,127
115287,note_off,114,0,0,,5,,,77,127
115288,note_on,1,0,0,,4,,,76,127
115402,note_off,114,0,0,,4,,,76,127
115403,note_on,1,0,0,,2,,,74,127
115517,note_off,114,0,0,,2,,,74,127
115517,note_off,0,0,0,,5,,,53,127
115518,note_on,1,0,0,,4,,,52,127
115518,note_on,0,0,0,,1,,,73,127
115632,note_off,114,0,0,,1,,,73,127
115633,note_on,1,0,0,,4,,,76,127
115747,note_off,114,0,0,,4,,,76,127
115747,note_off,0,0,0,,4,,,52,127
115748,note_on,1,0,0,,2,,,50,127
115748,note_on,0,0,0,,2,,,74,127
115862,note_off,114,0,0,,2,,,74,127
115863,note_on,1,0,0,,5,,,77,127
115977,note_off,114,0,0,,5,,,77,127
115977,note_off,0,0,0,,2,,,50,127
115978,note_on,1,0,0,,1,,,49,127
115978,note_on,0,0,0,,4,,,76,127
116092,note_off,114,0,0,,4,,,76,127
116093,note_on,1,0,0,,2,,,74,127
116207,note_off,114,0,0,,2,,,74,127
116207,note_off,0,0,0,,1,,,49,127
116208,note_on,1,0,0,,10,,,45,127
116208,note_on,0,0,0,,1,,,73,127
116322,note_off,114,0,0,,1,,,73,127
116323,note_on,1,0,0,,12,,,71,127
116437,note_off,114,0,0,,12,,,71,127
116438,note_on,1,0,0,,10,,,69,127
116552,note_off,114,0,0,,10,,,69,127
116553,note_off,1,0,0,,10,,,45,127
116553,note_on,0,0,0,,7,,,67,127
116667,note_off,114,0,0,,7,,,67,127
116668,note_on,1,0,0,,10,,,57,127
116668,note_on,0,0,0,,5,,,65,127
116782,note_off,114,0,0,,5,,,65,127
116783,note_on,1,0,0,,4,,,64,127
116897,note_off,114,0,0,,4,,,64,127
116897,note_off,0,0,0,,10,,,57,127
116898,note_on,1,0,0,,11,,,58,127
116898,note_on,0,0,0,,2,,,62,127
117012,note_off,114,0,0,,2,,,62,127
117013,note_on,1,0,0,,5,,,65,127
117127,note_off,114,0,0,,5,,,65,127
117127,note_off,0,0,0,,11,,,58,127
117128,note_on,1,0,0,,7,,,55,127
117128,note_on,0,0,0,,4,,,64,127
117242,note_off,114,0,0,,4,,,64,127
117243,note_on,1,0,0,,2,,,62,127
117357,note_off,114,0,0,,2,,,62,127
117357,note_off,0,0,0,,7,,,55,127
117358,note_on,1,0,0,,1,,,61,127
117358,note_on,0,0,0,,4,,,64,127
117472,note_off,114,0,0,,4,,,64,127
117473,note_on,1,0,0,,7,,,67,127
117587,note_off,114,0,0,,7,,,67,127
117587,note_off,0,0,0,,1,,,61,127
117588,note_on,1,0,0,,10,,,57,127
117588,note_on,0,0,0,,5,,,65,127
117702,note_off,114,0,0,,5,,,65,127
117703,note_on,1,0,0,,4,,,64,127
117817,note_off,114,0,0,,4,,,64,127
117817,note_off,0,0,0,,10,,,57,127
117818,note_on,1,0,0,,2,,,62,127
117818,note_on,0,0,0,,5,,,65,127
117932,note_off,114,0,0,,5,,,65,127
117933,note_on,1,0,0,,11,,,70,127
118047,note_off,114,0,0,,11,,,70,127
118047,note_off,0,0,0,,2,,,62,127
118048,note_on,1,0,0,,4,,,64,127
118048,note_on,0,0,0,,10,,,69,127
118162,note_off,114,0,0,,10,,,69,127
118163,note_on,1,0,0,,7,,,67,127
118277,note_off,114,0,0,,7,,,67,127
118277,note_off,0,0,0,,4,,,64,127
118278,note_on,1,0,0,,5,,,65,127
118278,note_on,0,0,0,,10,,,69,127
118392,note_off,114,0,0,,10,,,69,127
118393,note_on,1,0,0,,4,,,76,127
118507,note_off,114,0,0,,4,,,76,127
118507,note_off,0,0,0,,5,,,65,127
118508,note_on,1,0,0,,7,,,67,127
118508,note_on,0,0,0,,2,,,74,127
118622,note_off,114,0,0,,2,,,74,127
118623,note_on,1,0,0,,1,,,73,127
118737,note_off,114,0,0,,1,,,73,127
118737,note_off,0,0,0,,7,,,67,127
118738,note_on,1,0,0,,5,,,65,127
118738,note_on,0,0,0,,2,,,74,127
118852,note_off,114,0,0,,2,,,74,127
118853,note_on,1,0,0,,10,,,69,127
118967,note_off,114,0,0,,10,,,69,127
118967,note_off,0,0,0,,5,,,65,127
118968,note_on,1,0,0,,4,,,64,127
118968,note_on,0,0,0,,4,,,76,127
119082,note_off,114,0,0,,4,,,76,127
119083,note_on,1,0,0,,1,,,73,127
119197,note_off,114,0,0,,1,,,73,127
119197,note_off,0,0,0,,4,,,64,127
119198,note_on,1,0,0,,2,,,62,127
119198,note_on,0,0,0,,5,,,77,127
119312,note_off,114,0,0,,5,,,77,127
119313,note_on,1,0,0,,2,,,74,127
119427,note_off,114,0,0,,2,,,74,127
119427,note_off,0,0,0,,2,,,62,127
119428,note_on,1,0,0,,1,,,61,127
119428,note_on,0,0,0,,7,,,79,127
119542,note_off,114,0,0,,7,,,79,127
119543,note_on,1,0,0,,4,,,76,127
119657,note_off,114,0,0,,4,,,76,127
119657,note_off,0,0,0,,1,,,61,127
119658,note_on,1,0,0,,2,,,62,127
119658,note_on,0,0,0,,2,,,74,127
119658,note_on,0,0,0,,5,,,77,127
119772,note_off,114,0,0,,2,,,62,127
119773,note_on,1,0,0,,1,,,61,127
119887,note_off,114,0,0,,1,,,61,127
119887,note_off,0,0,0,,5,,,77,127
119888,note_on,1,0,0,,2,,,62,127
119888,note_on,0,0,0,,7,,,79,127
120002,note_off,114,0,0,,2,,,62,127
120003,note_on,1,0,0,,4,,,64,127
120117,note_off,114,0,0,,4,,,64,127
120117,note_off,0,0,0,,7,,,79,127
120118,note_on,1,0,0,,5,,,65,127
120118,note_on,0,0,0,,10,,,81,127
120232,note_off,114,0,0,,5,,,65,127
120233,note_on,1,0,0,,4,,,64,127
120347,note_off,114,0,0,,4,,,64,127
120347,note_off,0,0,0,,2,,,74,127
120348,note_on,1,0,0,,5,,,65,127
120348,note_on,0,0,0,,0,,,72,127
120462,note_off,114,0,0,,5,,,65,127
120463,note_on,1,0,0,,2,,,62,127
120577,note_off,114,0,0,,2,,,62,127
120577,note_off,0,0,0,,0,,,72,127
120578,note_on,1,0,0,,7,,,55,127
120578,note_on,0,0,0,,11,,,70,127
120692,note_off,114,0,0,,7,,,55,127
120693,note_on,1,0,0,,5,,,53,127
120807,note_off,114,0,0,,5,,,53,127
120807,note_off,0,0,0,,11,,,70,127
120808,note_on,1,0,0,,7,,,55,127
120808,note_on,0,0,0,,0,,,72,127
120922,note_off,114,0,0,,7,,,55,127
120923,note_on,1,0,0,,10,,,57,127
121037,note_off,114,0,0,,10,,,57,127
121037,note_off,0,0,0,,0,,,72,127
121037,note_off,0,0,0,,10,,,81,127
121038,note_on,1,0,0,,11,,,58,127
121038,note_on,0,0,0,,2,,,74,127
121038,note_on,0,0,0,,7,,,79,127
121152,note_off,114,0,0,,11,,,58,127
121153,note_on,1,0,0,,10,,,57,127
121267,note_off,114,0,0,,10,,,57,127
121267,note_off,0,0,0,,7,,,79,127
121268,note_on,1,0,0,,11,,,58,127
121268,note_on,0,0,0,,5,,,77,127
121382,note_off,114,0,0,,11,,,58,127
121383,note_on,1,0,0,,7,,,55,127
121497,note_off,114,0,0,,7,,,55,127
121497,note_off,0,0,0,,5,,,77,127
121498,note_on,1,0,0,,0,,,60,127
121498,note_on,0,0,0,,4,,,76,127
121612,note_off,114,0,0,,0,,,60,127
121613,note_on,1,0,0,,12,,,59,127
121727,note_off,114,0,0,,12,,,59,127
121727,note_off,0,0,0,,4,,,76,127
121728,note_on,1,0,0,,0,,,60,127
121728,note_on,0,0,0,,5,,,77,127
121842,note_off,114,0,0,,0,,,60,127
121843,note_on,1,0,0,,2,,,62,127
121957,note_off,114,0,0,,2,,,62,127
121957,note_off,0,0,0,,5,,,77,127
121957,note_off,0,0,0,,2,,,74,127
121958,note_on,1,0,0,,4,,,64,127
121958,note_on,0,0,0,,0,,,72,127
121958,note_on,0,0,0,,7,,,79,127
122072,note_off,114,0,0,,4,,,64,127
122073,note_on,1,0,0,,2,,,62,127
122187,note_off,114,0,0,,2,,,62,127
122187,note_off,0,0,0,,0,,,72,127
122188,note_on,1,0,0,,4,,,64,127
122188,note_on,0,0,0,,11,,,70,127
122302,note_off,114,0,0,,4,,,64,127
122303,note_on,1,0,0,,0,,,60,127
122417,note_off,114,0,0,,0,,,60,127
122417,note_off,0,0,0,,11,,,70,127
122418,note_on,1,0,0,,5,,,53,127
122418,note_on,0,0,0,,10,,,69,127
122532,note_off,114,0,0,,5,,,53,127
122533,note_on,1,0,0,,4,,,52,127
122647,note_off,114,0,0,,4,,,52,127
122647,note_off,0,0,0,,10,,,69,127
122648,note_on,1,0,0,,5,,,53,127
122648,note_on,0,0,0,,11,,,70,127
122762,note_off,114,0,0,,5,,,53,127
122763,note_on,1,0,0,,7,,,55,127
122877,note_off,114,0,0,,7,,,55,127
122877,note_off,0,0,0,,11,,,70,127
122877,note_off,0,0,0,,7,,,79,127
122878,note_on,1,0,0,,10,,,57,127
122878,note_on,0,0,0,,0,,,72,127
122878,note_on,0,0,0,,5,,,77,127
122992,note_off,114,0,0,,10,,,57,127
122993,note_on,1,0,0,,7,,,55,127
123107,note_off,114,0,0,,7,,,55,127
123107,note_off,0,0,0,,5,,,77,127
123108,note_on,1,0,0,,10,,,57,127
123108,note_on,0,0,0,,4,,,76,127
123222,note_off,114,0,0,,10,,,57,127
123223,note_on,1,0,0,,5,,,53,127
123337,note_off,114,0,0,,5,,,53,127
123337,note_off,0,0,0,,4,,,76,127
123338,note_on,1,0,0,,11,,,58,127
123338,note_on,0,0,0,,2,,,74,127
123452,note_off,114,0,0,,11,,,58,127
123453,note_on,1,0,0,,10,,,57,127
123567,note_off,114,0,0,,10,,,57,127
123567,note_off,0,0,0,,2,,,74,127
123568,note_on,1,0,0,,11,,,58,127
123568,note_on,0,0,0,,4,,,76,127
123682,note_off,114,0,0,,11,,,58,127
123683,note_on,1,0,0,,0,,,60,127
123797,note_off,114,0,0,,0,,,60,127
123797,note_off,0,0,0,,4,,,76,127
123797,note_off,0,0,0,,0,,,72,127
123798,note_on,1,0,0,,2,,,62,127
123798,note_on,0,0,0,,11,,,70,127
123798,note_on,0,0,0,,5,,,77,127
123912,note_off,114,0,0,,2,,,62,127
123913,note_on,1,0,0,,0,,,60,127
124027,note_off,114,0,0,,0,,,60,127
124027,note_off,0,0,0,,11,,,70,127
124028,note_on,1,0,0,,2,,,62,127
124028,note_on,0,0,0,,10,,,69,127
124142,note_off,114,0,0,,2,,,62,127
124143,note_on,1,0,0,,11,,,58,127
124257,note_off,114,0,0,,11,,,58,127
124257,note_off,0,0,0,,10,,,69,127
124258,note_on,1,0,0,,4,,,52,127
124258,note_on,0,0,0,,7,,,67,127
124372,note_off,114,0,0,,4,,,52,127
124373,note_on,1,0,0,,2,,,50,127
124487,note_off,114,0,0,,2,,,50,127
124487,note_off,0,0,0,,7,,,67,127
124488,note_on,1,0,0,,4,,,52,127
124488,note_on,0,0,0,,10,,,69,127
124602,note_off,114,0,0,,4,,,52,127
124603,note_on,1,0,0,,5,,,53,127
124717,note_off,114,0,0,,5,,,53,127
124717,note_off,0,0,0,,10,,,69,127
124717,note_off,0,0,0,,5,,,77,127
124718,note_on,1,0,0,,7,,,55,127
124718,note_on,0,0,0,,11,,,70,127
124718,note_on,0,0,0,,4,,,76,127
124832,note_off,114,0,0,,7,,,55,127
124833,note_on,1,0,0,,5,,,53,127
124947,note_off,114,0,0,,5,,,53,127
124947,note_off,0,0,0,,4,,,76,127
124948,note_on,1,0,0,,7,,,55,127
124948,note_on,0,0,0,,2,,,74,127
125062,note_off,114,0,0,,7,,,55,127
125063,note_on,1,0,0,,4,,,52,127
125177,note_off,114,0,0,,4,,,52,127
125177,note_off,0,0,0,,2,,,74,127
125178,note_on,1,0,0,,10,,,57,127
125178,note_on,0,0,0,,1,,,73,127
125292,note_off,114,0,0,,10,,,57,127
125293,note_on,1,0,0,,7,,,55,127
125407,note_off,114,0,0,,7,,,55,127
125407,note_off,0,0,0,,1,,,73,127
125408,note_on,1,0,0,,10,,,57,127
125408,note_on,0,0,0,,2,,,74,127
125522,note_off,114,0,0,,10,,,57,127
125523,note_on,1,0,0,,12,,,59,127
125637,note_off,114,0,0,,12,,,59,127
125637,note_off,0,0,0,,2,,,74,127
125637,note_off,0,0,0,,11,,,70,127
125638,note_on,1,0,0,,1,,,61,127
125638,note_on,0,0,0,,10,,,69,127
125638,note_on,0,0,0,,4,,,76,127
125752,note_off,114,0,0,,1,,,61,127
125753,note_on,1,0,0,,12,,,59,127
125867,note_off,114,0,0,,12,,,59,127
125867,note_off,0,0,0,,10,,,69,127
125868,note_on,1,0,0,,1,,,61,127
125868,note_on,0,0,0,,7,,,67,127
125982,note_off,114,0,0,,1,,,61,127
125983,note_on,1,0,0,,10,,,57,127
126097,note_off,114,0,0,,10,,,57,127
126097,note_off,0,0,0,,7,,,67,127
126097,note_off,0,0,0,,4,,,76,127
126098,note_on,1,0,0,,2,,,62,127
126098,note_on,0,0,0,,5,,,65,127
126098,note_on,0,0,0,,2,,,74,127
126212,note_off,114,0,0,,2,,,62,127
126213,note_on,1,0,0,,0,,,60,127
126327,note_off,114,0,0,,0,,,60,127
126327,note_off,0,0,0,,5,,,65,127
126328,note_on,1,0,0,,11,,,58,127
126328,note_on,0,0,0,,4,,,64,127
126442,note_off,114,0,0,,11,,,58,127
126443,note_on,1,0,0,,10,,,57,127
126557,note_off,114,0,0,,10,,,57,127
126557,note_off,0,0,0,,4,,,64,127
126558,note_on,1,0,0,,11,,,58,127
126558,note_on,0,0,0,,2,,,62,127
126672,note_off,114,0,0,,11,,,58,127
126672,note_off,0,0,0,,2,,,74,127
126673,note_on,1,0,0,,10,,,57,127
126673,note_on,0,0,0,,0,,,72,127
126787,note_off,114,0,0,,0,,,72,127
126787,note_off,0,0,0,,10,,,57,127
126788,note_on,1,0,0,,7,,,55,127
126788,note_on,0,0,0,,11,,,70,127
126902,note_off,114,0,0,,11,,,70,127
126902,note_off,0,0,0,,7,,,55,127
126903,note_on,1,0,0,,5,,,53,127
126903,note_on,0,0,0,,10,,,69,127
127013,note_off,110,0,0,,2,,,62,127
127017,note_off,4,0,0,,10,,,69,127
127017,note_off,0,0,0,,5,,,53,127
127018,note_on,1,0,0,,7,,,55,127
127018,note_on,0,0,0,,11,,,70,127
127132,note_off,114,0,0,,11,,,70,127
127132,note_off,0,0,0,,7,,,55,127
127133,note_on,1,0,0,,5,,,53,127
127133,note_on,0,0,0,,10,,,69,127
127247,note_off,114,0,0,,10,,,69,127
127247,note_off,0,0,0,,5,,,53,127
127248,note_on,1,0,0,,4,,,52,127
127248,note_on,0,0,0,,7,,,67,127
127362,note_off,114,0,0,,7,,,67,127
127362,note_off,0,0,0,,4,,,52,127
127363,note_on,1,0,0,,2,,,50,127
127363,note_on,0,0,0,,5,,,65,127
127477,note_off,114,0,0,,5,,,65,127
127477,note_off,0,0,0,,2,,,50,127
127478,note_on,1,0,0,,4,,,52,127
127478,note_on,0,0,0,,7,,,67,127
127592,note_off,114,0,0,,7,,,67,127
127592,note_off,0,0,0,,4,,,52,127
127593,note_on,1,0,0,,2,,,50,127
127593,note_on,0,0,0,,5,,,65,127
127707,note_off,114,0,0,,5,,,65,127
127707,note_off,0,0,0,,2,,,50,127
127708,note_on,1,0,0,,1,,,49,127
127708,note_on,0,0,0,,4,,,64,127
127822,note_off,114,0,0,,4,,,64,127
127822,note_off,0,0,0,,1,,,49,127
127823,note_on,1,0,0,,11,,,46,127
127823,note_on,0,0,0,,2,,,62,127
127937,note_off,114,0,0,,2,,,62,127
127937,note_off,0,0,0,,11,,,46,127
127938,note_on,1,0,0,,10,,,45,127
127938,note_on,0,0,0,,1,,,61,127
128052,note_off,114,0,0,,10,,,45,127
128053,note_on,1,0,0,,10,,,57,127
128167,note_off,114,0,0,,10,,,57,127
128168,note_on,1,0,0,,7,,,55,127
128168,note_on,0,0,0,,10,,,69,127
128282,note_off,114,0,0,,7,,,55,127
128283,note_on,1,0,0,,10,,,57,127
128397,note_off,114,0,0,,10,,,57,127
128397,note_off,0,0,0,,1,,,61,127
128398,note_on,1,0,0,,5,,,53,127
128398,note_on,0,0,0,,2,,,62,127
128512,note_off,114,0,0,,5,,,53,127
128513,note_on,1,0,0,,10,,,57,127
128627,note_off,114,0,0,,10,,,57,127
128627,note_off,0,0,0,,10,,,69,127
128628,note_on,1,0,0,,2,,,50,127
128628,note_on,0,0,0,,2,,,74,127
128742,note_off,114,0,0,,2,,,50,127
128743,note_on,1,0,0,,5,,,53,127
128857,note_off,114,0,0,,5,,,53,127
128857,note_off,0,0,0,,2,,,62,127
128858,note_on,1,0,0,,4,,,52,127
128858,note_on,0,0,0,,7,,,67,127
128972,note_off,114,0,0,,4,,,52,127
128973,note_on,1,0,0,,7,,,55,127
129087,note_off,114,0,0,,7,,,55,127
129087,note_off,0,0,0,,2,,,74,127
129088,note_on,1,0,0,,1,,,49,127
129088,note_on,0,0,0,,4,,,76,127
129202,note_off,114,0,0,,1,,,49,127
129203,note_on,1,0,0,,4,,,52,127
129317,note_off,114,0,0,,4,,,52,127
129317,note_off,0,0,0,,7,,,67,127
129318,note_on,1,0,0,,10,,,45,127
129318,note_on,0,0,0,,10,,,69,127
129432,note_off,114,0,0,,10,,,45,127
129433,note_on,1,0,0,,10,,,57,127
129547,note_off,114,0,0,,10,,,57,127
129547,note_off,0,0,0,,4,,,76,127
129548,note_on,1,0,0,,1,,,49,127
129548,note_on,0,0,0,,7,,,79,127
129662,note_off,114,0,0,,1,,,49,127
129663,note_on,1,0,0,,10,,,57,127
129777,note_off,114,0,0,,10,,,57,127
129777,note_off,0,0,0,,7,,,79,127
129777,note_off,0,0,0,,10,,,69,127
129778,note_on,1,0,0,,2,,,50,127
129778,note_on,0,0,0,,10,,,69,127
129778,note_on,0,0,0,,5,,,77,127
129892,note_off,114,0,0,,2,,,50,127
129893,note_on,1,0,0,,2,,,62,127
130007,note_off,114,0,0,,2,,,62,127
130007,note_off,0,0,0,,5,,,77,127
130008,note_on,1,0,0,,4,,,52,127
130008,note_on,0,0,0,,4,,,76,127
130122,note_off,114,0,0,,4,,,52,127
130123,note_on,1,0,0,,1,,,61,127
130237,note_off,114,0,0,,1,,,61,127
130237,note_off,0,0,0,,4,,,76,127
130237,note_off,0,0,0,,10,,,69,127
130238,note_on,1,0,0,,5,,,53,127
130238,note_on,0,0,0,,2,,,74,127
130238,note_on,0,0,0,,10,,,81,127
130352,note_off,114,0,0,,5,,,53,127
130353,note_on,1,0,0,,10,,,57,127
130467,note_off,114,0,0,,10,,,57,127
130467,note_off,0,0,0,,2,,,74,127
130468,note_on,1,0,0,,2,,,50,127
130468,note_on,0,0,0,,0,,,72,127
130582,note_off,114,0,0,,2,,,50,127
130583,note_on,1,0,0,,5,,,53,127
130697,note_off,114,0,0,,5,,,53,127
130697,note_off,0,0,0,,0,,,72,127
130698,note_on,1,0,0,,7,,,55,127
130698,note_on,0,0,0,,12,,,71,127
130812,note_off,114,0,0,,7,,,55,127
130813,note_on,1,0,0,,2,,,62,127
130927,note_off,114,0,0,,2,,,62,127
130927,note_off,0,0,0,,10,,,81,127
130928,note_on,1,0,0,,5,,,53,127
130928,note_on,0,0,0,,7,,,79,127
131042,note_off,114,0,0,,5,,,53,127
131043,note_on,1,0,0,,2,,,62,127
131157,note_off,114,0,0,,2,,,62,127
131157,note_off,0,0,0,,12,,,71,127
131158,note_on,1,0,0,,4,,,52,127
131158,note_on,0,0,0,,0,,,72,127
131272,note_off,114,0,0,,4,,,52,127
131273,note_on,1,0,0,,0,,,60,127
131387,note_off,114,0,0,,0,,,60,127
131387,note_off,0,0,0,,0,,,72,127
131387,note_off,0,0,0,,7,,,79,127
131388,note_on,1,0,0,,2,,,50,127
131388,note_on,0,0,0,,2,,,74,127
131388,note_on,0,0,0,,5,,,77,127
131502,note_off,114,0,0,,2,,,50,127
131503,note_on,1,0,0,,12,,,59,127
131617,note_off,114,0,0,,12,,,59,127
131617,note_off,0,0,0,,5,,,77,127
131617,note_off,0,0,0,,2,,,74,127
131618,note_on,1,0,0,,0,,,48,127
131618,note_on,0,0,0,,7,,,67,127
131618,note_on,0,0,0,,4,,,76,127
131732,note_off,114,0,0,,0,,,48,127
131733,note_on,1,0,0,,4,,,52,127
131847,note_off,114,0,0,,4,,,52,127
131847,note_off,0,0,0,,4,,,76,127
131847,note_off,0,0,0,,7,,,67,127
131848,note_on,1,0,0,,2,,,50,127
131848,note_on,0,0,0,,2,,,74,127
131848,note_on,0,0,0,,5,,,77,127
131962,note_off,114,0,0,,2,,,50,127
131963,note_on,1,0,0,,5,,,53,127
132077,note_off,114,0,0,,5,,,53,127
132077,note_off,0,0,0,,5,,,77,127
132077,note_off,0,0,0,,2,,,74,127
132078,note_on,1,0,0,,4,,,52,127
132078,note_on,0,0,0,,0,,,72,127
132078,note_on,0,0,0,,7,,,79,127
132192,note_off,114,0,0,,4,,,52,127
132193,note_on,1,0,0,,7,,,55,127
132307,note_off,114,0,0,,7,,,55,127
132307,note_off,0,0,0,,0,,,72,127
132308,note_on,1,0,0,,0,,,48,127
132308,note_on,0,0,0,,11,,,70,127
132422,note_off,114,0,0,,0,,,48,127
132423,note_on,1,0,0,,4,,,52,127
132537,note_off,114,0,0,,4,,,52,127
132537,note_off,0,0,0,,11,,,70,127
132537,note_off,0,0,0,,7,,,79,127
132538,note_on,1,0,0,,5,,,53,127
132538,note_on,0,0,0,,10,,,69,127
132538,note_on,0,0,0,,5,,,77,127
132652,note_off,114,0,0,,5,,,53,127
132653,note_on,1,0,0,,4,,,52,127
132767,note_off,114,0,0,,4,,,52,127
132768,note_on,1,0,0,,5,,,53,127
132882,note_off,114,0,0,,5,,,53,127
132883,note_on,1,0,0,,7,,,55,127
132997,note_off,114,0,0,,7,,,55,127
132997,note_off,0,0,0,,5,,,77,127
132998,note_on,1,0,0,,10,,,57,127
132998,note_on,0,0,0,,4,,,76,127
133112,note_off,114,0,0,,10,,,57,127
133113,note_on,1,0,0,,11,,,58,127
133227,note_off,114,0,0,,11,,,58,127
133228,note_on,1,0,0,,0,,,60,127
133342,note_off,114,0,0,,0,,,60,127
133343,note_on,1,0,0,,10,,,57,127
133457,note_off,114,0,0,,10,,,57,127
133457,note_off,0,0,0,,4,,,76,127
133457,note_off,0,0,0,,10,,,69,127
133458,note_on,1,0,0,,11,,,58,127
133458,note_on,0,0,0,,2,,,74,127
133572,note_off,114,0,0,,11,,,58,127
133573,note_on,1,0,0,,2,,,62,127
133687,note_off,114,0,0,,2,,,62,127
133688,note_on,1,0,0,,0,,,60,127
133688,note_on,0,0,0,,5,,,65,127
133802,note_off,114,0,0,,0,,,60,127
133803,note_on,1,0,0,,11,,,58,127
133917,note_off,114,0,0,,11,,,58,127
133917,note_off,0,0,0,,2,,,74,127
133918,note_on,1,0,0,,10,,,57,127
133918,note_on,0,0,0,,0,,,72,127
134032,note_off,114,0,0,,10,,,57,127
134033,note_on,1,0,0,,11,,,58,127
134147,note_off,114,0,0,,11,,,58,127
134147,note_off,0,0,0,,0,,,72,127
134147,note_off,0,0,0,,5,,,65,127
134148,note_on,1,0,0,,7,,,55,127
134148,note_on,0,0,0,,7,,,67,127
134148,note_on,0,0,0,,11,,,70,127
134262,note_off,114,0,0,,7,,,55,127
134263,note_on,1,0,0,,10,,,57,127
134377,note_off,114,0,0,,10,,,57,127
134377,note_off,0,0,0,,11,,,70,127
134377,note_off,0,0,0,,7,,,67,127
134378,note_on,1,0,0,,5,,,53,127
134378,note_on,0,0,0,,0,,,60,127
134378,note_on,0,0,0,,10,,,69,127
134492,note_off,114,0,0,,5,,,53,127
134493,note_on,1,0,0,,10,,,57,127
134607,note_off,114,0,0,,10,,,57,127
134608,note_on,1,0,0,,7,,,55,127
134722,note_off,114,0,0,,7,,,55,127
134723,note_on,1,0,0,,5,,,53,127
134833,note_off,110,0,0,,0,,,60,127
134837,note_off,4,0,0,,5,,,53,127
134837,note_off,0,0,0,,10,,,69,127
134838,note_on,1,0,0,,4,,,52,127
134838,note_on,0,0,0,,7,,,67,127
134952,note_off,114,0,0,,4,,,52,127
134953,note_on,1,0,0,,5,,,53,127
135067,note_off,114,0,0,,5,,,53,127
135067,note_off,0,0,0,,7,,,67,127
135068,note_on,1,0,0,,2,,,50,127
135068,note_on,0,0,0,,5,,,65,127
135182,note_off,114,0,0,,2,,,50,127
135183,note_on,1,0,0,,4,,,52,127
135297,note_off,114,0,0,,4,,,52,127
135297,note_off,0,0,0,,5,,,65,127
135298,note_on,1,0,0,,0,,,48,127
135298,note_on,0,0,0,,4,,,64,127
135412,note_off,114,0,0,,0,,,48,127
135413,note_on,1,0,0,,0,,,60,127
135527,note_off,114,0,0,,0,,,60,127
135528,note_on,1,0,0,,11,,,58,127
135642,note_off,114,0,0,,11,,,58,127
135643,note_on,1,0,0,,0,,,60,127
135757,note_off,114,0,0,,0,,,60,127
135757,note_off,0,0,0,,4,,,64,127
135758,note_on,1,0,0,,2,,,50,127
135758,note_on,0,0,0,,7,,,67,127
135834,note_off,76,0,0,,7,,,67,127
135835,note_on,1,0,0,,6,,,66,127
135872,note_off,37,0,0,,2,,,50,127
135873,note_on,1,0,0,,0,,,60,127
135910,note_off,37,0,0,,6,,,66,127
135911,note_on,1,0,0,,7,,,67,127
135987,note_off,76,0,0,,7,,,67,127
135987,note_off,0,0,0,,0,,,60,127
135988,note_on,1,0,0,,11,,,58,127
135988,note_on,0,0,0,,6,,,66,127
136064,note_off,76,0,0,,6,,,66,127
136065,note_on,1,0,0,,4,,,64,127
136102,note_off,37,0,0,,11,,,58,127
136103,note_on,1,0,0,,10,,,57,127
136140,note_off,37,0,0,,4,,,64,127
136141,note_on,1,0,0,,6,,,66,127
136217,note_off,76,0,0,,6,,,66,127
136217,note_off,0,0,0,,10,,,57,127
136218,note_on,1,0,0,,11,,,58,127
136218,note_on,0,0,0,,7,,,67,127
136218,note_on,0,0,0,,7,,,79,127
136332,note_off,114,0,0,,11,,,58,127
136333,note_on,1,0,0,,0,,,60,127
136447,note_off,114,0,0,,0,,,60,127
136448,note_on,1,0,0,,11,,,58,127
136562,note_off,114,0,0,,11,,,58,127
136563,note_on,1,0,0,,10,,,57,127
136677,note_off,114,0,0,,10,,,57,127
136677,note_off,0,0,0,,7,,,79,127
136678,note_on,1,0,0,,7,,,55,127
136678,note_on,0,0,0,,5,,,77,127
136792,note_off,114,0,0,,7,,,55,127
136793,note_on,1,0,0,,10,,,57,127
136907,note_off,114,0,0,,10,,,57,127
136908,note_on,1,0,0,,11,,,58,127
137022,note_off,114,0,0,,11,,,58,127
137023,note_on,1,0,0,,7,,,55,127
137137,note_off,114,0,0,,7,,,55,127
137137,note_off,0,0,0,,5,,,77,127
137137,note_off,0,0,0,,7,,,67,127
137138,note_on,1,0,0,,0,,,60,127
137138,note_on,0,0,0,,3,,,75,127
137252,note_off,114,0,0,,0,,,60,127
137253,note_on,1,0,0,,3,,,63,127
137367,note_off,114,0,0,,3,,,63,127
137368,note_on,1,0,0,,2,,,62,127
137368,note_on,0,0,0,,7,,,67,127
137482,note_off,114,0,0,,2,,,62,127
137483,note_on,1,0,0,,0,,,60,127
137597,note_off,114,0,0,,0,,,60,127
137597,note_off,0,0,0,,3,,,75,127
137598,note_on,1,0,0,,11,,,58,127
137598,note_on,0,0,0,,2,,,74,127
137712,note_off,114,0,0,,11,,,58,127
137713,note_on,1,0,0,,2,,,62,127
137827,note_off,114,0,0,,2,,,62,127
137827,note_off,0,0,0,,2,,,74,127
137827,note_off,0,0,0,,7,,,67,127
137828,note_on,1,0,0,,10,,,57,127
137828,note_on,0,0,0,,10,,,69,127
137828,note_on,0,0,0,,0,,,72,127
137942,note_off,114,0,0,,10,,,57,127
137943,note_on,1,0,0,,0,,,60,127
138057,note_off,114,0,0,,0,,,60,127
138057,note_off,0,0,0,,0,,,72,127
138057,note_off,0,0,0,,10,,,69,127
138058,note_on,1,0,0,,7,,,55,127
138058,note_on,0,0,0,,2,,,62,127
138058,note_on,0,0,0,,11,,,70,127
138172,note_off,114,0,0,,7,,,55,127
138173,note_on,1,0,0,,11,,,58,127
138287,note_off,114,0,0,,11,,,58,127
138288,note_on,1,0,0,,10,,,57,127
138402,note_off,114,0,0,,10,,,57,127
138403,note_on,1,0,0,,7,,,55,127
138513,note_off,110,0,0,,2,,,62,127
138517,note_off,4,0,0,,7,,,55,127
138517,note_off,0,0,0,,11,,,70,127
138518,note_on,1,0,0,,5,,,53,127
138518,note_on,0,0,0,,10,,,69,127
138632,note_off,114,0,0,,5,,,53,127
138633,note_on,1,0,0,,7,,,55,127
138747,note_off,114,0,0,,7,,,55,127
138747,note_off,0,0,0,,10,,,69,127
138748,note_on,1,0,0,,3,,,51,127
138748,note_on,0,0,0,,7,,,67,127
138862,note_off,114,0,0,,3,,,51,127
138863,note_on,1,0,0,,5,,,53,127
138977,note_off,114,0,0,,5,,,53,127
138977,note_off,0,0,0,,7,,,67,127
138978,note_on,1,0,0,,2,,,50,127
138978,note_on,0,0,0,,6,,,66,127
139092,note_off,114,0,0,,2,,,50,127
139093,note_on,1,0,0,,2,,,62,127
139207,note_off,114,0,0,,2,,,62,127
139208,note_on,1,0,0,,0,,,60,127
139322,note_off,114,0,0,,0,,,60,127
139323,note_on,1,0,0,,2,,,62,127
139437,note_off,114,0,0,,2,,,62,127
139437,note_off,0,0,0,,6,,,66,127
139438,note_on,1,0,0,,4,,,52,127
139438,note_on,0,0,0,,10,,,69,127
139514,note_off,76,0,0,,10,,,69,127
139515,note_on,1,0,0,,8,,,68,127
139552,note_off,37,0,0,,4,,,52,127
139553,note_on,1,0,0,,2,,,62,127
139590,note_off,37,0,0,,8,,,68,127
139591,note_on,1,0,0,,10,,,69,127
139667,note_off,76,0,0,,10,,,69,127
139667,note_off,0,0,0,,2,,,62,127
139668,note_on,1,0,0,,0,,,60,127
139668,note_on,0,0,0,,8,,,68,127
139744,note_off,76,0,0,,8,,,68,127
139745,note_on,1,0,0,,6,,,66,127
139782,note_off,37,0,0,,0,,,60,127
139783,note_on,1,0,0,,12,,,59,127
139820,note_off,37,0,0,,6,,,66,127
139821,note_on,1,0,0,,8,,,68,127
139897,note_off,76,0,0,,8,,,68,127
139897,note_off,0,0,0,,12,,,59,127
139898,note_on,1,0,0,,0,,,60,127
139898,note_on,0,0,0,,10,,,69,127
139898,note_on,0,0,0,,10,,,81,127
140012,note_off,114,0,0,,0,,,60,127
140013,note_on,1,0,0,,2,,,62,127
140127,note_off,114,0,0,,2,,,62,127
140128,note_on,1,0,0,,0,,,60,127
140242,note_off,114,0,0,,0,,,60,127
140243,note_on,1,0,0,,12,,,59,127
140357,note_off,114,0,0,,12,,,59,127
140357,note_off,0,0,0,,10,,,81,127
140358,note_on,1,0,0,,10,,,57,127
140358,note_on,0,0,0,,7,,,79,127
140472,note_off,114,0,0,,10,,,57,127
140473,note_on,1,0,0,,12,,,59,127
140587,note_off,114,0,0,,12,,,59,127
140588,note_on,1,0,0,,0,,,60,127
140702,note_off,114,0,0,,0,,,60,127
140703,note_on,1,0,0,,10,,,57,127
140817,note_off,114,0,0,,10,,,57,127
140817,note_off,0,0,0,,7,,,79,127
140817,note_off,0,0,0,,10,,,69,127
140818,note_on,1,0,0,,2,,,50,127
140818,note_on,0,0,0,,5,,,77,127
140932,note_off,114,0,0,,2,,,50,127
140933,note_on,1,0,0,,2,,,62,127
141047,note_off,114,0,0,,2,,,62,127
141048,note_on,1,0,0,,0,,,60,127
141048,note_on,0,0,0,,10,,,69,127
141162,note_off,114,0,0,,0,,,60,127
141163,note_on,1,0,0,,2,,,62,127
141277,note_off,114,0,0,,2,,,62,127
141277,note_off,0,0,0,,10,,,69,127
141277,note_off,0,0,0,,5,,,77,127
141278,note_on,1,0,0,,4,,,64,127
141278,note_on,0,0,0,,8,,,68,127
141278,note_on,0,0,0,,4,,,76,127
141392,note_off,114,0,0,,4,,,64,127
141393,note_on,1,0,0,,2,,,62,127
141507,note_off,114,0,0,,2,,,62,127
141507,note_off,0,0,0,,4,,,76,127
141508,note_on,1,0,0,,0,,,60,127
141508,note_on,0,0,0,,2,,,74,127
141622,note_off,114,0,0,,0,,,60,127
141623,note_on,1,0,0,,12,,,59,127
141737,note_off,114,0,0,,12,,,59,127
141737,note_off,0,0,0,,2,,,74,127
141737,note_off,0,0,0,,8,,,68,127
141738,note_on,1,0,0,,10,,,57,127
141738,note_on,0,0,0,,10,,,69,127
141738,note_on,0,0,0,,0,,,72,127
141852,note_off,114,0,0,,10,,,57,127
141853,note_on,1,0,0,,7,,,55,127
141967,note_off,114,0,0,,7,,,55,127
141968,note_on,1,0,0,,5,,,53,127
142082,note_off,114,0,0,,5,,,53,127
142083,note_on,1,0,0,,4,,,52,127
142193,note_off,110,0,0,,10,,,69,127
142197,note_off,4,0,0,,4,,,52,127
142197,note_off,0,0,0,,0,,,72,127
142198,note_on,1,0,0,,2,,,50,127
142198,note_on,0,0,0,,12,,,71,127
142312,note_off,114,0,0,,2,,,50,127
142313,note_on,1,0,0,,4,,,52,127
142427,note_off,114,0,0,,4,,,52,127
142427,note_off,0,0,0,,12,,,71,127
142428,note_on,1,0,0,,5,,,53,127
142428,note_on,0,0,0,,10,,,69,127
142542,note_off,114,0,0,,5,,,53,127
142543,note_on,1,0,0,,2,,,50,127
142657,note_off,114,0,0,,2,,,50,127
142657,note_off,0,0,0,,10,,,69,127
142658,note_on,1,0,0,,4,,,52,127
142658,note_on,0,0,0,,8,,,68,127
142772,note_off,114,0,0,,4,,,52,127
142773,note_on,1,0,0,,4,,,64,127
142887,note_off,114,0,0,,4,,,64,127
142887,note_off,0,0,0,,8,,,68,127
142888,note_on,1,0,0,,2,,,62,127
142888,note_on,0,0,0,,4,,,64,127
143001,note_off,113,0,0,,4,,,64,127
143002,note_off,1,0,0,,2,,,62,127
143003,note_on,1,0,0,,4,,,64,127
143118,note_on,115,0,0,,0,,,60,127
143231,note_off,113,0,0,,4,,,64,127
143232,note_off,1,0,0,,0,,,60,127
143233,note_on,1,0,0,,4,,,64,127
143347,note_off,114,0,0,,4,,,64,127
143348,note_on,1,0,0,,10,,,57,127
143348,note_on,0,0,0,,4,,,64,127
143348,note_on,0,0,0,,4,,,76,127
143462,note_off,114,0,0,,10,,,57,127
143463,note_on,1,0,0,,0,,,60,127
143577,note_off,114,0,0,,0,,,60,127
143577,note_off,0,0,0,,4,,,64,127
143578,note_on,1,0,0,,2,,,50,127
143578,note_on,0,0,0,,5,,,65,127
143692,note_off,114,0,0,,2,,,50,127
143693,note_on,1,0,0,,2,,,62,127
143807,note_off,114,0,0,,2,,,62,127
143807,note_off,0,0,0,,4,,,76,127
143808,note_on,1,0,0,,0,,,60,127
143808,note_on,0,0,0,,2,,,74,127
143922,note_off,114,0,0,,0,,,60,127
143923,note_on,1,0,0,,2,,,62,127
144037,note_off,114,0,0,,2,,,62,127
144038,note_on,1,0,0,,12,,,59,127
144152,note_off,114,0,0,,12,,,59,127
144153,note_off,1,0,0,,2,,,74,127
144153,note_on,0,0,0,,2,,,62,127
144267,note_off,114,0,0,,2,,,62,127
144267,note_off,0,0,0,,5,,,65,127
144268,note_on,1,0,0,,7,,,55,127
144268,note_on,0,0,0,,5,,,65,127
144268,note_on,0,0,0,,2,,,74,127
144382,note_off,114,0,0,,7,,,55,127
144383,note_on,1,0,0,,12,,,59,127
144497,note_off,114,0,0,,12,,,59,127
144497,note_off,0,0,0,,5,,,65,127
144498,note_on,1,0,0,,0,,,48,127
144498,note_on,0,0,0,,4,,,64,127
144612,note_off,114,0,0,,0,,,48,127
144613,note_on,1,0,0,,0,,,60,127
144727,note_off,114,0,0,,0,,,60,127
144727,note_off,0,0,0,,2,,,74,127
144728,note_on,1,0,0,,12,,,59,127
144728,note_on,0,0,0,,0,,,72,127
144842,note_off,114,0,0,,12,,,59,127
144843,note_on,1,0,0,,0,,,60,127
144957,note_off,114,0,0,,0,,,60,127
144958,note_on,1,0,0,,10,,,57,127
145072,note_off,114,0,0,,10,,,57,127
145073,note_off,1,0,0,,0,,,72,127
145073,note_on,0,0,0,,0,,,60,127
145187,note_off,114,0,0,,0,,,60,127
145187,note_off,0,0,0,,4,,,64,127
145188,note_on,1,0,0,,5,,,53,127
145188,note_on,0,0,0,,4,,,64,127
145188,note_on,0,0,0,,0,,,72,127
145302,note_off,114,0,0,,5,,,53,127
145303,note_on,1,0,0,,10,,,57,127
145417,note_off,114,0,0,,10,,,57,127
145417,note_off,0,0,0,,4,,,64,127
145418,note_on,1,0,0,,12,,,47,127
145418,note_on,0,0,0,,2,,,62,127
145532,note_off,114,0,0,,12,,,47,127
145533,note_on,1,0,0,,12,,,59,127
145647,note_off,114,0,0,,12,,,59,127
145647,note_off,0,0,0,,0,,,72,127
145648,note_on,1,0,0,,10,,,57,127
145648,note_on,0,0,0,,12,,,71,127
145762,note_off,114,0,0,,10,,,57,127
145763,note_on,1,0,0,,12,,,59,127
145877,note_off,114,0,0,,12,,,59,127
145878,note_on,1,0,0,,8,,,56,127
145992,note_off,114,0,0,,8,,,56,127
145993,note_off,1,0,0,,12,,,71,127
145993,note_on,0,0,0,,12,,,59,127
146107,note_off,114,0,0,,12,,,59,127
146107,note_off,0,0,0,,2,,,62,127
146108,note_on,1,0,0,,4,,,52,127
146108,note_on,0,0,0,,2,,,62,127
146108,note_on,0,0,0,,12,,,71,127
146222,note_off,114,0,0,,4,,,52,127
146223,note_on,1,0,0,,8,,,56,127
146337,note_off,114,0,0,,8,,,56,127
146337,note_off,0,0,0,,2,,,62,127
146338,note_on,1,0,0,,10,,,45,127
146338,note_on,0,0,0,,1,,,61,127
146452,note_off,114,0,0,,10,,,45,127
146453,note_on,1,0,0,,10,,,57,127
146567,note_off,114,0,0,,10,,,57,127
146567,note_off,0,0,0,,12,,,71,127
146568,note_on,1,0,0,,7,,,55,127
146568,note_on,0,0,0,,10,,,69,127
146682,note_off,114,0,0,,7,,,55,127
146683,note_on,1,0,0,,10,,,57,127
146797,note_off,114,0,0,,10,,,57,127
146797,note_off,0,0,0,,1,,,61,127
146798,note_on,1,0,0,,5,,,53,127
146798,note_on,0,0,0,,2,,,62,127
146912,note_off,114,0,0,,5,,,53,127
146913,note_on,1,0,0,,10,,,57,127
147027,note_off,114,0,0,,10,,,57,127
147027,note_off,0,0,0,,2,,,62,127
147027,note_off,0,0,0,,10,,,69,127
147028,note_on,1,0,0,,2,,,50,127
147028,note_on,0,0,0,,10,,,69,127
147028,note_on,0,0,0,,10,,,81,127
147142,note_off,114,0,0,,2,,,50,127
147143,note_on,1,0,0,,5,,,53,127
147257,note_off,114,0,0,,5,,,53,127
147257,note_off,0,0,0,,10,,,69,127
147258,note_on,1,0,0,,7,,,43,127
147258,note_on,0,0,0,,11,,,70,127
147372,note_off,114,0,0,,7,,,43,127
147373,note_on,1,0,0,,7,,,55,127
147487,note_off,114,0,0,,7,,,55,127
147487,note_off,0,0,0,,10,,,81,127
147488,note_on,1,0,0,,5,,,53,127
147488,note_on,0,0,0,,7,,,79,127
147602,note_off,114,0,0,,5,,,53,127
147603,note_on,1,0,0,,7,,,55,127
147717,note_off,114,0,0,,7,,,55,127
147718,note_on,1,0,0,,4,,,52,127
147832,note_off,114,0,0,,4,,,52,127
147833,note_off,1,0,0,,7,,,79,127
147833,note_on,0,0,0,,7,,,55,127
147947,note_off,114,0,0,,7,,,55,127
147947,note_off,0,0,0,,11,,,70,127
147948,note_on,1,0,0,,0,,,48,127
147948,note_on,0,0,0,,11,,,70,127
147948,note_on,0,0,0,,7,,,79,127
148062,note_off,114,0,0,,0,,,48,127
148063,note_on,1,0,0,,4,,,52,127
148177,note_off,114,0,0,,4,,,52,127
148177,note_off,0,0,0,,11,,,70,127
148178,note_on,1,0,0,,5,,,41,127
148178,note_on,0,0,0,,10,,,69,127
148292,note_off,114,0,0,,5,,,41,127
148293,note_on,1,0,0,,5,,,53,127
148407,note_off,114,0,0,,5,,,53,127
148407,note_off,0,0,0,,7,,,79,127
148408,note_on,1,0,0,,4,,,52,127
148408,note_on,0,0,0,,5,,,77,127
148522,note_off,114,0,0,,4,,,52,127
148523,note_on,1,0,0,,5,,,53,127
148637,note_off,114,0,0,,5,,,53,127
148638,note_on,1,0,0,,2,,,50,127
148752,note_off,114,0,0,,2,,,50,127
148753,note_off,1,0,0,,5,,,77,127
148753,note_on,0,0,0,,5,,,53,127
148867,note_off,114,0,0,,5,,,53,127
148867,note_off,0,0,0,,10,,,69,127
148868,note_on,1,0,0,,11,,,46,127
148868,note_on,0,0,0,,10,,,69,127
148868,note_on,0,0,0,,5,,,77,127
148982,note_off,114,0,0,,11,,,46,127
148983,note_on,1,0,0,,2,,,50,127
149097,note_off,114,0,0,,2,,,50,127
149097,note_off,0,0,0,,10,,,69,127
149098,note_on,1,0,0,,4,,,40,127
149098,note_on,0,0,0,,7,,,67,127
149212,note_off,114,0,0,,4,,,40,127
149213,note_on,1,0,0,,4,,,52,127
149327,note_off,114,0,0,,4,,,52,127
149327,note_off,0,0,0,,5,,,77,127
149328,note_on,1,0,0,,2,,,50,127
149328,note_on,0,0,0,,4,,,76,127
149442,note_off,114,0,0,,2,,,50,127
149443,note_on,1,0,0,,4,,,52,127
149557,note_off,114,0,0,,4,,,52,127
149558,note_on,1,0,0,,1,,,49,127
149672,note_off,114,0,0,,1,,,49,127
149673,note_off,1,0,0,,4,,,76,127
149673,note_on,0,0,0,,4,,,52,127
149787,note_off,114,0,0,,4,,,52,127
149787,note_off,0,0,0,,7,,,67,127
149788,note_on,1,0,0,,10,,,45,127
149788,note_on,0,0,0,,7,,,67,127
149788,note_on,0,0,0,,4,,,76,127
149902,note_off,114,0,0,,10,,,45,127
149903,note_on,1,0,0,,1,,,49,127
150017,note_off,114,0,0,,1,,,49,127
150017,note_off,0,0,0,,7,,,67,127
150018,note_on,1,0,0,,2,,,50,127
150018,note_on,0,0,0,,5,,,65,127
150132,note_off,114,0,0,,2,,,50,127
150133,note_on,1,0,0,,1,,,49,127
150247,note_off,114,0,0,,1,,,49,127
150247,note_off,0,0,0,,4,,,76,127
150248,note_on,1,0,0,,2,,,50,127
150248,note_on,0,0,0,,2,,,74,127
150362,note_off,114,0,0,,2,,,50,127
150363,note_on,1,0,0,,4,,,52,127
150477,note_off,114,0,0,,4,,,52,127
150478,note_on,1,0,0,,5,,,53,127
150592,note_off,114,0,0,,5,,,53,127
150593,note_off,1,0,0,,2,,,74,127
150593,note_on,0,0,0,,4,,,52,127
150707,note_off,114,0,0,,4,,,52,127
150707,note_off,0,0,0,,5,,,65,127
150708,note_on,1,0,0,,5,,,53,127
150708,note_on,0,0,0,,5,,,65,127
150708,note_on,0,0,0,,2,,,74,127
150822,note_off,114,0,0,,5,,,53,127
150823,note_on,1,0,0,,7,,,55,127
150937,note_off,114,0,0,,7,,,55,127
150937,note_off,0,0,0,,5,,,65,127
150938,note_on,1,0,0,,10,,,57,127
150938,note_on,0,0,0,,4,,,64,127
151052,note_off,114,0,0,,10,,,57,127
151053,note_on,1,0,0,,7,,,55,127
151167,note_off,114,0,0,,7,,,55,127
151167,note_off,0,0,0,,2,,,74,127
151168,note_on,1,0,0,,10,,,57,127
151168,note_on,0,0,0,,0,,,72,127
151282,note_off,114,0,0,,10,,,57,127
151283,note_on,1,0,0,,12,,,59,127
151397,note_off,114,0,0,,12,,,59,127
151398,note_on,1,0,0,,0,,,60,127
151512,note_off,114,0,0,,0,,,60,127
151513,note_off,1,0,0,,0,,,72,127
151513,note_on,0,0,0,,12,,,59,127
151627,note_off,114,0,0,,12,,,59,127
151627,note_off,0,0,0,,4,,,64,127
151628,note_on,1,0,0,,0,,,60,127
151628,note_on,0,0,0,,4,,,64,127
151628,note_on,0,0,0,,0,,,72,127
151742,note_off,114,0,0,,0,,,60,127
151743,note_on,1,0,0,,10,,,57,127
151857,note_off,114,0,0,,10,,,57,127
151857,note_off,0,0,0,,4,,,64,127
151858,note_on,1,0,0,,11,,,58,127
151858,note_on,0,0,0,,2,,,62,127
151972,note_off,114,0,0,,11,,,58,127
151973,note_on,1,0,0,,10,,,57,127
152087,note_off,114,0,0,,10,,,57,127
152087,note_off,0,0,0,,0,,,72,127
152088,note_on,1,0,0,,11,,,58,127
152088,note_on,0,0,0,,11,,,70,127
152202,note_off,114,0,0,,11,,,58,127
152203,note_on,1,0,0,,0,,,60,127
152313,note_off,110,0,0,,2,,,62,127
152317,note_off,4,0,0,,0,,,60,127
152318,note_on,1,0,0,,2,,,62,127
152432,note_off,114,0,0,,2,,,62,127
152433,note_off,1,0,0,,11,,,70,127
152433,note_on,0,0,0,,0,,,60,127
152547,note_off,114,0,0,,0,,,60,127
152548,note_on,1,0,0,,2,,,62,127
152548,note_on,0,0,0,,11,,,70,127
152662,note_off,114,0,0,,2,,,62,127
152663,note_on,1,0,0,,4,,,64,127
152776,note_off,113,0,0,,11,,,70,127
152777,note_off,1,0,0,,4,,,64,127
152778,note_on,1,0,0,,5,,,65,127
152893,note_on,115,0,0,,11,,,70,127
153007,note_off,114,0,0,,11,,,70,127
153008,note_on,1,0,0,,10,,,69,127
153122,note_off,114,0,0,,10,,,69,127
153123,note_on,1,0,0,,7,,,67,127
153237,note_off,114,0,0,,7,,,67,127
153238,note_on,1,0,0,,10,,,69,127
153350,note_off,112,0,0,,5,,,65,127
153352,note_off,2,0,0,,10,,,69,127
153353,note_on,1,0,0,,5,,,65,127
153467,note_off,114,0,0,,5,,,65,127
153468,note_on,1,0,0,,2,,,62,127
153468,note_on,0,0,0,,12,,,71,127
153582,note_off,114,0,0,,12,,,71,127
153583,note_on,1,0,0,,7,,,67,127
153697,note_off,114,0,0,,7,,,67,127
153697,note_off,0,0,0,,2,,,62,127
153698,note_on,1,0,0,,0,,,60,127
153698,note_on,0,0,0,,0,,,72,127
153812,note_off,114,0,0,,0,,,72,127
153813,note_on,1,0,0,,5,,,65,127
153927,note_off,114,0,0,,5,,,65,127
153928,note_on,1,0,0,,4,,,64,127
154042,note_off,114,0,0,,4,,,64,127
154043,note_on,1,0,0,,2,,,62,127
154157,note_off,114,0,0,,2,,,62,127
154158,note_on,1,0,0,,4,,,64,127
154268,note_off,110,0,0,,0,,,60,127
154272,note_off,4,0,0,,4,,,64,127
154273,note_on,1,0,0,,0,,,60,127
154387,note_off,114,0,0,,0,,,60,127
154388,note_on,1,0,0,,10,,,57,127
154388,note_on,0,0,0,,6,,,66,127
154502,note_off,114,0,0,,6,,,66,127
154503,note_on,1,0,0,,2,,,62,127
154617,note_off,114,0,0,,2,,,62,127
154617,note_off,0,0,0,,10,,,57,127
154618,note_on,1,0,0,,7,,,55,127
154618,note_on,0,0,0,,7,,,67,127
154732,note_off,114,0,0,,7,,,67,127
154733,note_on,1,0,0,,0,,,72,127
154847,note_off,114,0,0,,0,,,72,127
154848,note_on,1,0,0,,11,,,70,127
154962,note_off,114,0,0,,11,,,70,127
154963,note_on,1,0,0,,10,,,69,127
155077,note_off,114,0,0,,10,,,69,127
155078,note_on,1,0,0,,11,,,70,127
155192,note_off,114,0,0,,11,,,70,127
155193,note_on,1,0,0,,7,,,67,127
155307,note_off,114,0,0,,7,,,67,127
155307,note_off,0,0,0,,7,,,55,127
155308,note_on,1,0,0,,3,,,51,127
155308,note_on,0,0,0,,1,,,73,127
155422,note_off,114,0,0,,1,,,73,127
155423,note_on,1,0,0,,10,,,69,127
155537,note_off,114,0,0,,10,,,69,127
155537,note_off,0,0,0,,3,,,51,127
155538,note_on,1,0,0,,2,,,50,127
155538,note_on,0,0,0,,2,,,74,127
155652,note_off,114,0,0,,2,,,50,127
155653,note_on,1,0,0,,2,,,62,127
155767,note_off,114,0,0,,2,,,62,127
155768,note_on,1,0,0,,0,,,60,127
155882,note_off,114,0,0,,0,,,60,127
155883,note_on,1,0,0,,2,,,62,127
155997,note_off,114,0,0,,2,,,62,127
155998,note_on,1,0,0,,11,,,58,127
156112,note_off,114,0,0,,11,,,58,127
156113,note_on,1,0,0,,2,,,62,127
156227,note_off,114,0,0,,2,,,62,127
156227,note_off,0,0,0,,2,,,74,127
156228,note_on,1,0,0,,7,,,55,127
156228,note_on,0,0,0,,2,,,74,127
156228,note_on,0,0,0,,2,,,86,127
156342,note_off,114,0,0,,7,,,55,127
156343,note_on,1,0,0,,11,,,58,127
156457,note_off,114,0,0,,11,,,58,127
156457,note_off,0,0,0,,2,,,74,127
156458,note_on,1,0,0,,0,,,48,127
156458,note_on,0,0,0,,3,,,75,127
156572,note_off,114,0,0,,0,,,48,127
156573,note_on,1,0,0,,0,,,60,127
156687,note_off,114,0,0,,0,,,60,127
156687,note_off,0,0,0,,2,,,86,127
156688,note_on,1,0,0,,11,,,58,127
156688,note_on,0,0,0,,0,,,84,127
156802,note_off,114,0,0,,11,,,58,127
156803,note_on,1,0,0,,0,,,60,127
156918,note_on,115,0,0,,10,,,57,127
156923,note_off,5,0,0,,0,,,60,127
157032,note_off,109,0,0,,10,,,57,127
157033,note_off,1,0,0,,0,,,84,127
157033,note_on,0,0,0,,0,,,60,127
157147,note_off,114,0,0,,0,,,60,127
157147,note_off,0,0,0,,3,,,75,127
157148,note_on,1,0,0,,5,,,53,127
157148,note_on,0,0,0,,3,,,75,127
157148,note_on,0,0,0,,0,,,84,127
157262,note_off,114,0,0,,5,,,53,127
157263,note_on,1,0,0,,10,,,57,127
157377,note_off,114,0,0,,10,,,57,127
157377,note_off,0,0,0,,3,,,75,127
157378,note_on,1,0,0,,11,,,46,127
157378,note_on,0,0,0,,2,,,74,127
157492,note_off,114,0,0,,11,,,46,127
157493,note_on,1,0,0,,11,,,58,127
157607,note_off,114,0,0,,11,,,58,127
157607,note_off,0,0,0,,0,,,84,127
157608,note_on,1,0,0,,10,,,57,127
157608,note_on,0,0,0,,11,,,82,127
157722,note_off,114,0,0,,10,,,57,127
157723,note_on,1,0,0,,11,,,58,127
157837,note_off,114,0,0,,11,,,58,127
157838,note_on,1,0,0,,7,,,55,127
157952,note_off,114,0,0,,7,,,55,127
157953,note_off,1,0,0,,11,,,82,127
157953,note_on,0,0,0,,11,,,58,127
158067,note_off,114,0,0,,11,,,58,127
158067,note_off,0,0,0,,2,,,74,127
158068,note_on,1,0,0,,3,,,51,127
158068,note_on,0,0,0,,2,,,74,127
158068,note_on,0,0,0,,11,,,82,127
158182,note_off,114,0,0,,3,,,51,127
158183,note_on,1,0,0,,7,,,55,127
158297,note_off,114,0,0,,7,,,55,127
158297,note_off,0,0,0,,2,,,74,127
158298,note_on,1,0,0,,10,,,45,127
158298,note_on,0,0,0,,0,,,72,127
158412,note_off,114,0,0,,10,,,45,127
158413,note_on,1,0,0,,10,,,57,127
158527,note_off,114,0,0,,10,,,57,127
158527,note_off,0,0,0,,11,,,82,127
158528,note_on,1,0,0,,7,,,55,127
158528,note_on,0,0,0,,10,,,81,127
158642,note_off,114,0,0,,7,,,55,127
158643,note_on,1,0,0,,10,,,57,127
158757,note_off,114,0,0,,10,,,57,127
158758,note_on,1,0,0,,6,,,54,127
158872,note_off,114,0,0,,6,,,54,127
158873,note_off,1,0,0,,10,,,81,127
158873,note_on,0,0,0,,10,,,57,127
158987,note_off,114,0,0,,10,,,57,127
158987,note_off,0,0,0,,0,,,72,127
158988,note_on,1,0,0,,2,,,50,127
158988,note_on,0,0,0,,0,,,72,127
158988,note_on,0,0,0,,10,,,81,127
159102,note_off,114,0,0,,2,,,50,127
159103,note_on,1,0,0,,6,,,54,127
159217,note_off,114,0,0,,6,,,54,127
159217,note_off,0,0,0,,0,,,72,127
159218,note_on,1,0,0,,7,,,55,127
159218,note_on,0,0,0,,11,,,70,127
159332,note_off,114,0,0,,7,,,55,127
159333,note_on,1,0,0,,6,,,54,127
159447,note_off,114,0,0,,6,,,54,127
159447,note_off,0,0,0,,10,,,81,127
159448,note_on,1,0,0,,7,,,55,127
159448,note_on,0,0,0,,7,,,79,127
159562,note_off,114,0,0,,7,,,55,127
159563,note_on,1,0,0,,10,,,57,127
159677,note_off,114,0,0,,10,,,57,127
159678,note_on,1,0,0,,11,,,58,127
159792,note_off,114,0,0,,11,,,58,127
159793,note_off,1,0,0,,7,,,79,127
159793,note_on,0,0,0,,10,,,57,127
159907,note_off,114,0,0,,10,,,57,127
159907,note_off,0,0,0,,11,,,70,127
159908,note_on,1,0,0,,11,,,58,127
159908,note_on,0,0,0,,10,,,69,127
159908,note_on,0,0,0,,5,,,77,127
160022,note_off,114,0,0,,11,,,58,127
160023,note_on,1,0,0,,7,,,55,127
160137,note_off,114,0,0,,7,,,55,127
160137,note_off,0,0,0,,5,,,77,127
160137,note_off,0,0,0,,10,,,69,127
160138,note_on,1,0,0,,0,,,48,127
160138,note_on,0,0,0,,7,,,67,127
160138,note_on,0,0,0,,3,,,75,127
160252,note_off,114,0,0,,0,,,48,127
160253,note_on,1,0,0,,0,,,60,127
160367,note_off,114,0,0,,0,,,60,127
160368,note_on,1,0,0,,11,,,58,127
160482,note_off,114,0,0,,11,,,58,127
160483,note_on,1,0,0,,0,,,60,127
160597,note_off,114,0,0,,0,,,60,127
160597,note_off,0,0,0,,3,,,75,127
160597,note_off,0,0,0,,7,,,67,127
160598,note_on,1,0,0,,2,,,50,127
160598,note_on,0,0,0,,6,,,66,127
160598,note_on,0,0,0,,2,,,74,127
160712,note_off,114,0,0,,2,,,50,127
160713,note_on,1,0,0,,0,,,60,127
160827,note_off,114,0,0,,0,,,60,127
160827,note_off,0,0,0,,2,,,74,127
160828,note_on,1,0,0,,10,,,57,127
160828,note_on,0,0,0,,0,,,72,127
160942,note_off,114,0,0,,10,,,57,127
160943,note_on,1,0,0,,0,,,60,127
161057,note_off,114,0,0,,0,,,60,127
161057,note_off,0,0,0,,0,,,72,127
161057,note_off,0,0,0,,6,,,66,127
161058,note_on,1,0,0,,3,,,51,127
161058,note_on,0,0,0,,7,,,67,127
161058,note_on,0,0,0,,0,,,72,127
161134,note_off,76,0,0,,0,,,72,127
161135,note_on,1,0,0,,11,,,70,127
161172,note_off,37,0,0,,3,,,51,127
161173,note_on,1,0,0,,5,,,53,127
161210,note_off,37,0,0,,11,,,70,127
161211,note_on,1,0,0,,0,,,72,127
161287,note_off,76,0,0,,0,,,72,127
161287,note_off,0,0,0,,5,,,53,127
161288,note_on,1,0,0,,3,,,51,127
161288,note_on,0,0,0,,11,,,70,127
161364,note_off,76,0,0,,11,,,70,127
161365,note_on,1,0,0,,0,,,72,127
161402,note_off,37,0,0,,3,,,51,127
161403,note_on,1,0,0,,2,,,50,127
161440,note_off,37,0,0,,0,,,72,127
161441,note_on,1,0,0,,11,,,70,127
161513,note_off,72,0,0,,7,,,67,127
161517,note_off,4,0,0,,11,,,70,127
161517,note_off,0,0,0,,2,,,50,127
161518,note_on,1,0,0,,0,,,48,127
161518,note_on,0,0,0,,10,,,69,127
161632,note_off,114,0,0,,0,,,48,127
161633,note_on,1,0,0,,2,,,50,127
161747,note_off,114,0,0,,2,,,50,127
161747,note_off,0,0,0,,10,,,69,127
161748,note_on,1,0,0,,3,,,51,127
161748,note_on,0,0,0,,7,,,67,127
161862,note_off,114,0,0,,3,,,51,127
161863,note_on,1,0,0,,0,,,48,127
161977,note_off,114,0,0,,0,,,48,127
161977,note_off,0,0,0,,7,,,67,127
161978,note_on,1,0,0,,2,,,50,127
161978,note_on,0,0,0,,6,,,66,127
162092,note_off,114,0,0,,2,,,50,127
162093,note_on,1,0,0,,2,,,62,127
162207,note_off,114,0,0,,2,,,62,127
162207,note_off,0,0,0,,6,,,66,127
162208,note_on,1,0,0,,0,,,60,127
162208,note_on,0,0,0,,2,,,74,127
162322,note_off,114,0,0,,0,,,60,127
162323,note_on,1,0,0,,2,,,62,127
162437,note_off,114,0,0,,2,,,62,127
162438,note_on,1,0,0,,12,,,59,127
162552,note_off,114,0,0,,12,,,59,127
162553,note_on,1,0,0,,2,,,62,127
162667,note_off,114,0,0,,2,,,62,127
162667,note_off,0,0,0,,2,,,74,127
162668,note_on,1,0,0,,8,,,56,127
162668,note_on,0,0,0,,0,,,72,127
162782,note_off,114,0,0,,8,,,56,127
162783,note_on,1,0,0,,2,,,62,127
162897,note_off,114,0,0,,2,,,62,127
162897,note_off,0,0,0,,0,,,72,127
162898,note_on,1,0,0,,7,,,55,127
162898,note_on,0,0,0,,12,,,71,127
163012,note_off,114,0,0,,7,,,55,127
163013,note_on,1,0,0,,2,,,62,127
163127,note_off,114,0,0,,2,,,62,127
163128,note_on,1,0,0,,5,,,53,127
163128,note_on,0,0,0,,8,,,68,127
163242,note_off,114,0,0,,5,,,53,127
163243,note_on,1,0,0,,2,,,62,127
163357,note_off,114,0,0,,2,,,62,127
163357,note_off,0,0,0,,8,,,68,127
163357,note_off,0,0,0,,12,,,71,127
163358,note_on,1,0,0,,3,,,51,127
163358,note_on,0,0,0,,7,,,67,127
163358,note_on,0,0,0,,0,,,72,127
163472,note_off,114,0,0,,3,,,51,127
163473,note_on,1,0,0,,0,,,60,127
163587,note_off,114,0,0,,0,,,60,127
163587,note_off,0,0,0,,0,,,72,127
163587,note_off,0,0,0,,7,,,67,127
163588,note_on,1,0,0,,2,,,50,127
163588,note_on,0,0,0,,5,,,65,127
163588,note_on,0,0,0,,2,,,74,127
163702,note_off,114,0,0,,2,,,50,127
163703,note_on,1,0,0,,12,,,59,127
163816,note_off,113,0,0,,5,,,65,127
163817,note_off,1,0,0,,12,,,59,127
163817,note_off,0,0,0,,2,,,74,127
163818,note_on,1,0,0,,0,,,48,127
163818,note_on,0,0,0,,3,,,75,127
163932,note_off,114,0,0,,0,,,48,127
163933,note_on,1,0,0,,0,,,60,127
164047,note_off,114,0,0,,0,,,60,127
164047,note_off,0,0,0,,3,,,75,127
164048,note_on,1,0,0,,11,,,58,127
164048,note_on,0,0,0,,2,,,74,127
164162,note_off,114,0,0,,11,,,58,127
164163,note_on,1,0,0,,0,,,60,127
164277,note_off,114,0,0,,0,,,60,127
164277,note_off,0,0,0,,2,,,74,127
164278,note_on,1,0,0,,10,,,57,127
164278,note_on,0,0,0,,0,,,72,127
164392,note_off,114,0,0,,10,,,57,127
164393,note_on,1,0,0,,0,,,60,127
164507,note_off,114,0,0,,0,,,60,127
164507,note_off,0,0,0,,0,,,72,127
164508,note_on,1,0,0,,7,,,55,127
164508,note_on,0,0,0,,11,,,70,127
164622,note_off,114,0,0,,7,,,55,127
164623,note_on,1,0,0,,0,,,60,127
164737,note_off,114,0,0,,0,,,60,127
164737,note_off,0,0,0,,11,,,70,127
164738,note_on,1,0,0,,5,,,53,127
164738,note_on,0,0,0,,10,,,69,127
164852,note_off,114,0,0,,5,,,53,127
164853,note_on,1,0,0,,0,,,60,127
164967,note_off,114,0,0,,0,,,60,127
164968,note_on,1,0,0,,3,,,51,127
164968,note_on,0,0,0,,7,,,67,127
165082,note_off,114,0,0,,3,,,51,127
165083,note_on,1,0,0,,0,,,60,127
165197,note_off,114,0,0,,0,,,60,127
165197,note_off,0,0,0,,7,,,67,127
165197,note_off,0,0,0,,10,,,69,127
165198,note_on,1,0,0,,2,,,50,127
165198,note_on,0,0,0,,5,,,65,127
165198,note_on,0,0,0,,11,,,70,127
165312,note_off,114,0,0,,2,,,50,127
165313,note_on,1,0,0,,11,,,58,127
165427,note_off,114,0,0,,11,,,58,127
165427,note_off,0,0,0,,11,,,70,127
165427,note_off,0,0,0,,5,,,65,127
165428,note_on,1,0,0,,0,,,48,127
165428,note_on,0,0,0,,3,,,63,127
165428,note_on,0,0,0,,0,,,72,127
165542,note_off,114,0,0,,0,,,48,127
165543,note_on,1,0,0,,10,,,57,127
165657,note_off,114,0,0,,10,,,57,127
165657,note_off,0,0,0,,0,,,72,127
165657,note_off,0,0,0,,3,,,63,127
165658,note_on,1,0,0,,11,,,46,127
165658,note_on,0,0,0,,11,,,70,127
165658,note_on,0,0,0,,11,,,82,127
165772,note_off,114,0,0,,11,,,46,127
165773,note_on,1,0,0,,10,,,45,127
165887,note_off,114,0,0,,10,,,45,127
165888,note_on,1,0,0,,11,,,46,127
166002,note_off,114,0,0,,11,,,46,127
166003,note_on,1,0,0,,0,,,48,127
166117,note_off,114,0,0,,0,,,48,127
166117,note_off,0,0,0,,11,,,82,127
166118,note_on,1,0,0,,2,,,50,127
166118,note_on,0,0,0,,10,,,81,127
166232,note_off,114,0,0,,2,,,50,127
166233,note_on,1,0,0,,0,,,48,127
166347,note_off,114,0,0,,0,,,48,127
166348,note_on,1,0,0,,2,,,50,127
166462,note_off,114,0,0,,2,,,50,127
166463,note_on,1,0,0,,11,,,46,127
166577,note_off,114,0,0,,11,,,46,127
166577,note_off,0,0,0,,10,,,81,127
166577,note_off,0,0,0,,11,,,70,127
166578,note_on,1,0,0,,3,,,51,127
166578,note_on,0,0,0,,7,,,79,127
166692,note_off,114,0,0,,3,,,51,127
166693,note_on,1,0,0,,7,,,55,127
166807,note_off,114,0,0,,7,,,55,127
166808,note_on,1,0,0,,5,,,53,127
166808,note_on,0,0,0,,11,,,70,127
166922,note_off,114,0,0,,5,,,53,127
166923,note_on,1,0,0,,3,,,51,127
167037,note_off,114,0,0,,3,,,51,127
167037,note_off,0,0,0,,11,,,70,127
167037,note_off,0,0,0,,7,,,79,127
167038,note_on,1,0,0,,5,,,53,127
167038,note_on,0,0,0,,10,,,69,127
167038,note_on,0,0,0,,5,,,77,127
167152,note_off,114,0,0,,5,,,53,127
167153,note_on,1,0,0,,7,,,55,127
167267,note_off,114,0,0,,7,,,55,127
167267,note_off,0,0,0,,5,,,77,127
167267,note_off,0,0,0,,10,,,69,127
167268,note_on,1,0,0,,10,,,57,127
167268,note_on,0,0,0,,0,,,72,127
167268,note_on,0,0,0,,3,,,75,127
167382,note_off,114,0,0,,10,,,57,127
167383,note_on,1,0,0,,5,,,53,127
167497,note_off,114,0,0,,5,,,53,127
167497,note_off,0,0,0,,3,,,75,127
167497,note_off,0,0,0,,0,,,72,127
167498,note_on,1,0,0,,11,,,58,127
167498,note_on,0,0,0,,5,,,65,127
167498,note_on,0,0,0,,2,,,74,127
167612,note_off,114,0,0,,11,,,58,127
167613,note_on,1,0,0,,10,,,57,127
167727,note_off,114,0,0,,10,,,57,127
167728,note_on,1,0,0,,7,,,55,127
167842,note_off,114,0,0,,7,,,55,127
167843,note_on,1,0,0,,5,,,53,127
167957,note_off,114,0,0,,5,,,53,127
167957,note_off,0,0,0,,2,,,74,127
167958,note_on,1,0,0,,3,,,51,127
167958,note_on,0,0,0,,0,,,72,127
168072,note_off,114,0,0,,3,,,51,127
168073,note_on,1,0,0,,5,,,53,127
168187,note_off,114,0,0,,5,,,53,127
168187,note_off,0,0,0,,0,,,72,127
168188,note_on,1,0,0,,7,,,55,127
168188,note_on,0,0,0,,11,,,70,127
168302,note_off,114,0,0,,7,,,55,127
168303,note_on,1,0,0,,3,,,51,127
168417,note_off,114,0,0,,3,,,51,127
168417,note_off,0,0,0,,11,,,70,127
168417,note_off,0,0,0,,5,,,65,127
168418,note_on,1,0,0,,5,,,53,127
168418,note_on,0,0,0,,10,,,69,127
168532,note_off,114,0,0,,5,,,53,127
168533,note_on,1,0,0,,5,,,65,127
168647,note_off,114,0,0,,5,,,65,127
168648,note_on,1,0,0,,4,,,64,127
168762,note_off,114,0,0,,4,,,64,127
168763,note_on,1,0,0,,5,,,65,127
168877,note_off,114,0,0,,5,,,65,127
168877,note_off,0,0,0,,10,,,69,127
168878,note_on,1,0,0,,7,,,55,127
168878,note_on,0,0,0,,0,,,72,127
168954,note_off,76,0,0,,0,,,72,127
168955,note_on,1,0,0,,12,,,71,127
168992,note_off,37,0,0,,7,,,55,127
168993,note_on,1,0,0,,5,,,65,127
169030,note_off,37,0,0,,12,,,71,127
169031,note_on,1,0,0,,0,,,72,127
169107,note_off,76,0,0,,0,,,72,127
169107,note_off,0,0,0,,5,,,65,127
169108,note_on,1,0,0,,3,,,63,127
169108,note_on,0,0,0,,12,,,71,127
169184,note_off,76,0,0,,12,,,71,127
169185,note_on,1,0,0,,10,,,69,127
169222,note_off,37,0,0,,3,,,63,127
169223,note_on,1,0,0,,2,,,62,127
169260,note_off,37,0,0,,10,,,69,127
169261,note_on,1,0,0,,12,,,71,127
169337,note_off,76,0,0,,12,,,71,127
169337,note_off,0,0,0,,2,,,62,127
169338,note_on,1,0,0,,3,,,63,127
169338,note_on,0,0,0,,0,,,72,127
169338,note_on,0,0,0,,0,,,84,127
169452,note_off,114,0,0,,3,,,63,127
169453,note_on,1,0,0,,5,,,65,127
169567,note_off,114,0,0,,5,,,65,127
169568,note_on,1,0,0,,3,,,63,127
169682,note_off,114,0,0,,3,,,63,127
169683,note_on,1,0,0,,2,,,62,127
169797,note_off,114,0,0,,2,,,62,127
169797,note_off,0,0,0,,0,,,84,127
169798,note_on,1,0,0,,0,,,60,127
169798,note_on,0,0,0,,11,,,82,127
169912,note_off,114,0,0,,0,,,60,127
169913,note_on,1,0,0,,2,,,62,127
170027,note_off,114,0,0,,2,,,62,127
170028,note_on,1,0,0,,3,,,63,127
170142,note_off,114,0,0,,3,,,63,127
170143,note_on,1,0,0,,0,,,60,127
170257,note_off,114,0,0,,0,,,60,127
170257,note_off,0,0,0,,11,,,82,127
170257,note_off,0,0,0,,0,,,72,127
170258,note_on,1,0,0,,5,,,65,127
170258,note_on,0,0,0,,0,,,72,127
170258,note_on,0,0,0,,8,,,80,127
170372,note_off,114,0,0,,5,,,65,127
170373,note_on,1,0,0,,3,,,63,127
170487,note_off,114,0,0,,3,,,63,127
170488,note_on,1,0,0,,2,,,62,127
170602,note_off,114,0,0,,2,,,62,127
170603,note_on,1,0,0,,0,,,60,127
170717,note_off,114,0,0,,0,,,60,127
170717,note_off,0,0,0,,8,,,80,127
170717,note_off,0,0,0,,0,,,72,127
170718,note_on,1,0,0,,12,,,59,127
170718,note_on,0,0,0,,2,,,74,127
170718,note_on,0,0,0,,7,,,79,127
170832,note_off,114,0,0,,12,,,59,127
170833,note_on,1,0,0,,2,,,62,127
170947,note_off,114,0,0,,2,,,62,127
170947,note_off,0,0,0,,7,,,79,127
170948,note_on,1,0,0,,0,,,60,127
170948,note_on,0,0,0,,5,,,77,127
171062,note_off,114,0,0,,0,,,60,127
171063,note_on,1,0,0,,12,,,59,127
171177,note_off,114,0,0,,12,,,59,127
171177,note_off,0,0,0,,5,,,77,127
171177,note_off,0,0,0,,2,,,74,127
171178,note_on,1,0,0,,0,,,60,127
171178,note_on,0,0,0,,7,,,67,127
171178,note_on,0,0,0,,3,,,75,127
171292,note_off,114,0,0,,0,,,60,127
171293,note_on,1,0,0,,11,,,58,127
171407,note_off,114,0,0,,11,,,58,127
171408,note_on,1,0,0,,8,,,56,127
171522,note_off,114,0,0,,8,,,56,127
171523,note_on,1,0,0,,7,,,55,127
171637,note_off,114,0,0,,7,,,55,127
171637,note_off,0,0,0,,3,,,75,127
171637,note_off,0,0,0,,7,,,67,127
171638,note_on,1,0,0,,5,,,53,127
171638,note_on,0,0,0,,8,,,68,127
171638,note_on,0,0,0,,2,,,74,127
171752,note_off,114,0,0,,5,,,53,127
171753,note_on,1,0,0,,7,,,55,127
171867,note_off,114,0,0,,7,,,55,127
171867,note_off,0,0,0,,2,,,74,127
171868,note_on,1,0,0,,8,,,56,127
171868,note_on,0,0,0,,0,,,72,127
171982,note_off,114,0,0,,8,,,56,127
171983,note_on,1,0,0,,5,,,53,127
172097,note_off,114,0,0,,5,,,53,127
172097,note_off,0,0,0,,0,,,72,127
172097,note_off,0,0,0,,8,,,68,127
172098,note_on,1,0,0,,7,,,55,127
172098,note_on,0,0,0,,7,,,67,127
172098,note_on,0,0,0,,12,,,71,127
172211,note_off,113,0,0,,7,,,67,127
172212,note_off,1,0,0,,7,,,55,127
172213,note_on,1,0,0,,7,,,67,127
172327,note_off,114,0,0,,7,,,67,127
172328,note_on,1,0,0,,5,,,65,127
172442,note_off,114,0,0,,5,,,65,127
172443,note_on,1,0,0,,7,,,67,127
172557,note_off,114,0,0,,7,,,67,127
172557,note_off,0,0,0,,12,,,71,127
172558,note_on,1,0,0,,10,,,57,127
172558,note_on,0,0,0,,2,,,74,127
172634,note_off,76,0,0,,2,,,74,127
172635,note_on,1,0,0,,1,,,73,127
172672,note_off,37,0,0,,10,,,57,127
172673,note_on,1,0,0,,7,,,67,127
172710,note_off,37,0,0,,1,,,73,127
172711,note_on,1,0,0,,2,,,74,127
172787,note_off,76,0,0,,2,,,74,127
172787,note_off,0,0,0,,7,,,67,127
172788,note_on,1,0,0,,5,,,65,127
172788,note_on,0,0,0,,1,,,73,127
172864,note_off,76,0,0,,1,,,73,127
172865,note_on,1,0,0,,12,,,71,127
172902,note_off,37,0,0,,5,,,65,127
172903,note_on,1,0,0,,4,,,64,127
172940,note_off,37,0,0,,12,,,71,127
172941,note_on,1,0,0,,1,,,73,127
173017,note_off,76,0,0,,1,,,73,127
173017,note_off,0,0,0,,4,,,64,127
173018,note_on,1,0,0,,5,,,65,127
173018,note_on,0,0,0,,2,,,74,127
173018,note_on,0,0,0,,2,,,86,127
173132,note_off,114,0,0,,5,,,65,127
173133,note_on,1,0,0,,7,,,67,127
173247,note_off,114,0,0,,7,,,67,127
173248,note_on,1,0,0,,5,,,65,127
173362,note_off,114,0,0,,5,,,65,127
173363,note_on,1,0,0,,4,,,64,127
173477,note_off,114,0,0,,4,,,64,127
173477,note_off,0,0,0,,2,,,86,127
173478,note_on,1,0,0,,2,,,62,127
173478,note_on,0,0,0,,0,,,84,127
173592,note_off,114,0,0,,2,,,62,127
173593,note_on,1,0,0,,4,,,64,127
173707,note_off,114,0,0,,4,,,64,127
173708,note_on,1,0,0,,5,,,65,127
173822,note_off,114,0,0,,5,,,65,127
173823,note_on,1,0,0,,2,,,62,127
173937,note_off,114,0,0,,2,,,62,127
173937,note_off,0,0,0,,0,,,84,127
173937,note_off,0,0,0,,2,,,74,127
173938,note_on,1,0,0,,7,,,67,127
173938,note_on,0,0,0,,2,,,74,127
173938,note_on,0,0,0,,11,,,82,127
174052,note_off,114,0,0,,7,,,67,127
174053,note_on,1,0,0,,5,,,65,127
174167,note_off,114,0,0,,5,,,65,127
174168,note_on,1,0,0,,4,,,64,127
174282,note_off,114,0,0,,4,,,64,127
174283,note_on,1,0,0,,2,,,62,127
174397,note_off,114,0,0,,2,,,62,127
174397,note_off,0,0,0,,11,,,82,127
174397,note_off,0,0,0,,2,,,74,127
174398,note_on,1,0,0,,1,,,61,127
174398,note_on,0,0,0,,4,,,76,127
174398,note_on,0,0,0,,10,,,81,127
174512,note_off,114,0,0,,1,,,61,127
174513,note_on,1,0,0,,4,,,64,127
174627,note_off,114,0,0,,4,,,64,127
174627,note_off,0,0,0,,10,,,81,127
174628,note_on,1,0,0,,2,,,62,127
174628,note_on,0,0,0,,7,,,79,127
174742,note_off,114,0,0,,2,,,62,127
174743,note_on,1,0,0,,1,,,61,127
174857,note_off,114,0,0,,1,,,61,127
174857,note_off,0,0,0,,7,,,79,127
174857,note_off,0,0,0,,4,,,76,127
174858,note_on,1,0,0,,2,,,62,127
174858,note_on,0,0,0,,10,,,69,127
174858,note_on,0,0,0,,5,,,77,127
174972,note_off,114,0,0,,2,,,62,127
174973,note_on,1,0,0,,0,,,60,127
175087,note_off,114,0,0,,0,,,60,127
175088,note_on,1,0,0,,11,,,58,127
175202,note_off,114,0,0,,11,,,58,127
175203,note_on,1,0,0,,10,,,57,127
175317,note_off,114,0,0,,10,,,57,127
175317,note_off,0,0,0,,5,,,77,127
175317,note_off,0,0,0,,10,,,69,127
175318,note_on,1,0,0,,7,,,55,127
175318,note_on,0,0,0,,11,,,70,127
175318,note_on,0,0,0,,4,,,76,127
175432,note_off,114,0,0,,7,,,55,127
175433,note_on,1,0,0,,10,,,57,127
175547,note_off,114,0,0,,10,,,57,127
175547,note_off,0,0,0,,4,,,76,127
175548,note_on,1,0,0,,11,,,58,127
175548,note_on,0,0,0,,2,,,74,127
175662,note_off,114,0,0,,11,,,58,127
175663,note_on,1,0,0,,7,,,55,127
175773,note_off,110,0,0,,11,,,70,127
175777,note_off,4,0,0,,7,,,55,127
175777,note_off,0,0,0,,2,,,74,127
175778,note_on,1,0,0,,10,,,45,127
175778,note_on,0,0,0,,1,,,73,127
175892,note_off,114,0,0,,10,,,45,127
175893,note_on,1,0,0,,10,,,57,127
176007,note_off,114,0,0,,10,,,57,127
176007,note_off,0,0,0,,1,,,73,127
176008,note_on,1,0,0,,7,,,55,127
176008,note_on,0,0,0,,10,,,69,127
176122,note_off,114,0,0,,7,,,55,127
176123,note_on,1,0,0,,10,,,57,127
176237,note_off,114,0,0,,10,,,57,127
176238,note_on,1,0,0,,5,,,53,127
176352,note_off,114,0,0,,5,,,53,127
176353,note_on,1,0,0,,10,,,57,127
176467,note_off,114,0,0,,10,,,57,127
176467,note_off,0,0,0,,10,,,69,127
176468,note_on,1,0,0,,2,,,50,127
176468,note_on,0,0,0,,10,,,69,127
176468,note_on,0,0,0,,10,,,81,127
176582,note_off,114,0,0,,2,,,50,127
176583,note_on,1,0,0,,5,,,53,127
176697,note_off,114,0,0,,5,,,53,127
176697,note_off,0,0,0,,10,,,69,127
176698,note_on,1,0,0,,7,,,43,127
176698,note_on,0,0,0,,11,,,70,127
176812,note_off,114,0,0,,7,,,43,127
176813,note_on,1,0,0,,7,,,55,127
176927,note_off,114,0,0,,7,,,55,127
176927,note_off,0,0,0,,10,,,81,127
176928,note_on,1,0,0,,5,,,53,127
176928,note_on,0,0,0,,7,,,79,127
177042,note_off,114,0,0,,5,,,53,127
177043,note_on,1,0,0,,7,,,55,127
177157,note_off,114,0,0,,7,,,55,127
177158,note_on,1,0,0,,4,,,52,127
177272,note_off,114,0,0,,4,,,52,127
177273,note_off,1,0,0,,7,,,79,127
177273,note_on,0,0,0,,7,,,55,127
177387,note_off,114,0,0,,7,,,55,127
177387,note_off,0,0,0,,11,,,70,127
177388,note_on,1,0,0,,0,,,48,127
177388,note_on,0,0,0,,11,,,70,127
177388,note_on,0,0,0,,7,,,79,127
177502,note_off,114,0,0,,0,,,48,127
177503,note_on,1,0,0,,4,,,52,127
177617,note_off,114,0,0,,4,,,52,127
177617,note_off,0,0,0,,11,,,70,127
177618,note_on,1,0,0,,5,,,41,127
177618,note_on,0,0,0,,10,,,69,127
177732,note_off,114,0,0,,5,,,41,127
177733,note_on,1,0,0,,5,,,53,127
177847,note_off,114,0,0,,5,,,53,127
177847,note_off,0,0,0,,7,,,79,127
177848,note_on,1,0,0,,4,,,52,127
177848,note_on,0,0,0,,5,,,77,127
177962,note_off,114,0,0,,4,,,52,127
177963,note_on,1,0,0,,5,,,53,127
178077,note_off,114,0,0,,5,,,53,127
178078,note_on,1,0,0,,2,,,50,127
178192,note_off,114,0,0,,2,,,50,127
178193,note_off,1,0,0,,5,,,77,127
178193,note_on,0,0,0,,5,,,53,127
178307,note_off,114,0,0,,5,,,53,127
178307,note_off,0,0,0,,10,,,69,127
178308,note_on,1,0,0,,11,,,46,127
178308,note_on,0,0,0,,10,,,69,127
178308,note_on,0,0,0,,5,,,77,127
178422,note_off,114,0,0,,11,,,46,127
178423,note_on,1,0,0,,2,,,50,127
178537,note_off,114,0,0,,2,,,50,127
178537,note_off,0,0,0,,10,,,69,127
178538,note_on,1,0,0,,4,,,40,127
178538,note_on,0,0,0,,7,,,67,127
178652,note_off,114,0,0,,4,,,40,127
178653,note_on,1,0,0,,4,,,52,127
178767,note_off,114,0,0,,4,,,52,127
178767,note_off,0,0,0,,5,,,77,127
178768,note_on,1,0,0,,2,,,50,127
178768,note_on,0,0,0,,4,,,76,127
178882,note_off,114,0,0,,2,,,50,127
178883,note_on,1,0,0,,4,,,52,127
178997,note_off,114,0,0,,4,,,52,127
178998,note_on,1,0,0,,1,,,49,127
179112,note_off,114,0,0,,1,,,49,127
179113,note_off,1,0,0,,4,,,76,127
179113,note_on,0,0,0,,4,,,52,127
179227,note_off,114,0,0,,4,,,52,127
179227,note_off,0,0,0,,7,,,67,127
179228,note_on,1,0,0,,10,,,45,127
179228,note_on,0,0,0,,7,,,67,127
179228,note_on,0,0,0,,4,,,76,127
179342,note_off,114,0,0,,10,,,45,127
179343,note_on,1,0,0,,1,,,49,127
179457,note_off,114,0,0,,1,,,49,127
179457,note_off,0,0,0,,7,,,67,127
179458,note_on,1,0,0,,2,,,50,127
179458,note_on,0,0,0,,5,,,65,127
179572,note_off,114,0,0,,2,,,50,127
179573,note_on,1,0,0,,1,,,49,127
179687,note_off,114,0,0,,1,,,49,127
179687,note_off,0,0,0,,4,,,76,127
179688,note_on,1,0,0,,2,,,50,127
179688,note_on,0,0,0,,2,,,74,127
179802,note_off,114,0,0,,2,,,50,127
179803,note_on,1,0,0,,4,,,52,127
179917,note_off,114,0,0,,4,,,52,127
179918,note_on,1,0,0,,5,,,53,127
180032,note_off,114,0,0,,5,,,53,127
180033,note_off,1,0,0,,2,,,74,127
180033,note_on,0,0,0,,4,,,52,127
180147,note_off,114,0,0,,4,,,52,127
180147,note_off,0,0,0,,5,,,65,127
180148,note_on,1,0,0,,5,,,53,127
180148,note_on,0,0,0,,5,,,65,127
180148,note_on,0,0,0,,2,,,74,127
180262,note_off,114,0,0,,5,,,53,127
180263,note_on,1,0,0,,7,,,55,127
180377,note_off,114,0,0,,7,,,55,127
180377,note_off,0,0,0,,2,,,74,127
180377,note_off,0,0,0,,5,,,65,127
180378,note_on,1,0,0,,10,,,45,127
180378,note_on,0,0,0,,10,,,69,127
180378,note_on,0,0,0,,1,,,73,127
180493,note_on,115,0,0,,10,,,57,127
180606,note_off,113,0,0,,10,,,45,127
180607,note_off,1,0,0,,10,,,57,127
180607,note_off,0,0,0,,1,,,73,127
180608,note_on,1,0,0,,7,,,55,127
180608,note_on,0,0,0,,4,,,76,127
180722,note_off,114,0,0,,7,,,55,127
180723,note_on,1,0,0,,10,,,57,127
180837,note_off,114,0,0,,10,,,57,127
180837,note_off,0,0,0,,4,,,76,127
180838,note_on,1,0,0,,5,,,53,127
180838,note_on,0,0,0,,2,,,74,127
180952,note_off,114,0,0,,5,,,53,127
180953,note_on,1,0,0,,10,,,57,127
181067,note_off,114,0,0,,10,,,57,127
181067,note_off,0,0,0,,2,,,74,127
181067,note_off,0,0,0,,10,,,69,127
181068,note_on,1,0,0,,2,,,50,127
181068,note_on,0,0,0,,2,,,74,127
181068,note_on,0,0,0,,5,,,77,127
181182,note_off,114,0,0,,2,,,50,127
181183,note_on,1,0,0,,5,,,53,127
181297,note_off,114,0,0,,5,,,53,127
181297,note_off,0,0,0,,5,,,77,127
181297,note_off,0,0,0,,2,,,74,127
181298,note_on,1,0,0,,10,,,45,127
181298,note_on,0,0,0,,10,,,69,127
181298,note_on,0,0,0,,1,,,73,127
181413,note_on,115,0,0,,10,,,57,127
181526,note_off,113,0,0,,10,,,45,127
181527,note_off,1,0,0,,10,,,57,127
181527,note_off,0,0,0,,1,,,73,127
181528,note_on,1,0,0,,7,,,55,127
181528,note_on,0,0,0,,4,,,76,127
181642,note_off,114,0,0,,7,,,55,127
181643,note_on,1,0,0,,10,,,57,127
181757,note_off,114,0,0,,10,,,57,127
181757,note_off,0,0,0,,4,,,76,127
181758,note_on,1,0,0,,5,,,53,127
181758,note_on,0,0,0,,2,,,74,127
181872,note_off,114,0,0,,5,,,53,127
181873,note_on,1,0,0,,10,,,57,127
181987,note_off,114,0,0,,10,,,57,127
181987,note_off,0,0,0,,2,,,74,127
181987,note_off,0,0,0,,10,,,69,127
181988,note_on,1,0,0,,2,,,50,127
181988,note_on,0,0,0,,2,,,74,127
181988,note_on,0,0,0,,5,,,77,127
182102,note_off,114,0,0,,2,,,50,127
182103,note_on,1,0,0,,5,,,53,127
182217,note_off,114,0,0,,5,,,53,127
182217,note_off,0,0,0,,5,,,77,127
182217,note_off,0,0,0,,2,,,74,127
182218,note_on,1,0,0,,10,,,45,127
182218,note_on,0,0,0,,1,,,73,127
182218,note_on,0,0,0,,10,,,69,127
182218,note_on,0,0,0,,4,,,76,127
182333,note_on,115,0,0,,10,,,57,127
182446,note_off,113,0,0,,1,,,73,127
182446,note_off,0,0,0,,10,,,45,127
182447,note_off,1,0,0,,10,,,57,127
182447,note_off,0,0,0,,4,,,76,127
182448,note_on,1,0,0,,7,,,55,127
182448,note_on,0,0,0,,1,,,73,127
182562,note_off,114,0,0,,7,,,55,127
182563,note_on,1,0,0,,10,,,57,127
182673,note_off,110,0,0,,10,,,69,127
182677,note_off,4,0,0,,10,,,57,127
182677,note_off,0,0,0,,1,,,73,127
182678,note_on,1,0,0,,5,,,53,127
182678,note_on,0,0,0,,10,,,69,127
182792,note_off,114,0,0,,5,,,53,127
182793,note_on,1,0,0,,10,,,57,127
182907,note_off,114,0,0,,10,,,57,127
182908,note_on,1,0,0,,2,,,50,127
182908,note_on,0,0,0,,10,,,81,127
183022,note_off,114,0,0,,2,,,50,127
183023,note_on,1,0,0,,5,,,53,127
183133,note_off,110,0,0,,10,,,69,127
183137,note_off,4,0,0,,5,,,53,127
183138,note_on,1,0,0,,7,,,55,127
183138,note_on,0,0,0,,12,,,71,127
183252,note_off,114,0,0,,7,,,55,127
183253,note_on,1,0,0,,12,,,59,127
183367,note_off,114,0,0,,12,,,59,127
183367,note_off,0,0,0,,12,,,71,127
183367,note_off,0,0,0,,10,,,81,127
183368,note_on,1,0,0,,10,,,57,127
183368,note_on,0,0,0,,0,,,72,127
183368,note_on,0,0,0,,7,,,79,127
183482,note_off,114,0,0,,10,,,57,127
183483,note_on,1,0,0,,0,,,60,127
183597,note_off,114,0,0,,0,,,60,127
183597,note_off,0,0,0,,0,,,72,127
183598,note_on,1,0,0,,12,,,59,127
183598,note_on,0,0,0,,2,,,74,127
183712,note_off,114,0,0,,12,,,59,127
183713,note_on,1,0,0,,2,,,62,127
183827,note_off,114,0,0,,2,,,62,127
183827,note_off,0,0,0,,7,,,79,127
183828,note_on,1,0,0,,7,,,55,127
183828,note_on,0,0,0,,5,,,77,127
183942,note_off,114,0,0,,7,,,55,127
183943,note_on,1,0,0,,12,,,59,127
184057,note_off,114,0,0,,12,,,59,127
184057,note_off,0,0,0,,5,,,77,127
184058,note_on,1,0,0,,0,,,48,127
184058,note_on,0,0,0,,4,,,76,127
184172,note_off,114,0,0,,0,,,48,127
184173,note_on,1,0,0,,4,,,52,127
184287,note_off,114,0,0,,4,,,52,127
184287,note_off,0,0,0,,4,,,76,127
184288,note_on,1,0,0,,2,,,50,127
184288,note_on,0,0,0,,5,,,77,127
184402,note_off,114,0,0,,2,,,50,127
184403,note_on,1,0,0,,5,,,53,127
184517,note_off,114,0,0,,5,,,53,127
184517,note_off,0,0,0,,5,,,77,127
184517,note_off,0,0,0,,2,,,74,127
184518,note_on,1,0,0,,4,,,52,127
184518,note_on,0,0,0,,0,,,72,127
184518,note_on,0,0,0,,7,,,79,127
184632,note_off,114,0,0,,4,,,52,127
184633,note_on,1,0,0,,7,,,55,127
184747,note_off,114,0,0,,7,,,55,127
184747,note_off,0,0,0,,0,,,72,127
184748,note_on,1,0,0,,0,,,48,127
184748,note_on,0,0,0,,12,,,71,127
184862,note_off,114,0,0,,0,,,48,127
184863,note_on,1,0,0,,4,,,52,127
184977,note_off,114,0,0,,4,,,52,127
184977,note_off,0,0,0,,12,,,71,127
184978,note_on,1,0,0,,5,,,53,127
184978,note_on,0,0,0,,10,,,69,127
185092,note_off,114,0,0,,5,,,53,127
185093,note_on,1,0,0,,10,,,57,127
185207,note_off,114,0,0,,10,,,57,127
185207,note_off,0,0,0,,10,,,69,127
185208,note_on,1,0,0,,7,,,55,127
185208,note_on,0,0,0,,12,,,71,127
185322,note_off,114,0,0,,7,,,55,127
185323,note_on,1,0,0,,12,,,59,127
185437,note_off,114,0,0,,12,,,59,127
185437,note_off,0,0,0,,12,,,71,127
185437,note_off,0,0,0,,7,,,79,127
185438,note_on,1,0,0,,10,,,57,127
185438,note_on,0,0,0,,0,,,72,127
185438,note_on,0,0,0,,5,,,77,127
185552,note_off,114,0,0,,10,,,57,127
185553,note_on,1,0,0,,0,,,60,127
185667,note_off,114,0,0,,0,,,60,127
185667,note_off,0,0,0,,5,,,77,127
185668,note_on,1,0,0,,5,,,53,127
185668,note_on,0,0,0,,4,,,76,127
185782,note_off,114,0,0,,5,,,53,127
185783,note_on,1,0,0,,10,,,57,127
185897,note_off,114,0,0,,10,,,57,127
185897,note_off,0,0,0,,4,,,76,127
185898,note_on,1,0,0,,12,,,47,127
185898,note_on,0,0,0,,2,,,74,127
186012,note_off,114,0,0,,12,,,47,127
186013,note_on,1,0,0,,2,,,50,127
186127,note_off,114,0,0,,2,,,50,127
186127,note_off,0,0,0,,2,,,74,127
186128,note_on,1,0,0,,0,,,48,127
186128,note_on,0,0,0,,4,,,76,127
186242,note_off,114,0,0,,0,,,48,127
186243,note_on,1,0,0,,4,,,52,127
186357,note_off,114,0,0,,4,,,52,127
186357,note_off,0,0,0,,4,,,76,127
186357,note_off,0,0,0,,0,,,72,127
186358,note_on,1,0,0,,2,,,50,127
186358,note_on,0,0,0,,12,,,71,127
186358,note_on,0,0,0,,5,,,77,127
186472,note_off,114,0,0,,2,,,50,127
186473,note_on,1,0,0,,5,,,53,127
186587,note_off,114,0,0,,5,,,53,127
186587,note_off,0,0,0,,12,,,71,127
186588,note_on,1,0,0,,12,,,47,127
186588,note_on,0,0,0,,10,,,69,127
186702,note_off,114,0,0,,12,,,47,127
186703,note_on,1,0,0,,2,,,50,127
186817,note_off,114,0,0,,2,,,50,127
186817,note_off,0,0,0,,10,,,69,127
186818,note_on,1,0,0,,4,,,52,127
186818,note_on,0,0,0,,8,,,68,127
186932,note_off,114,0,0,,4,,,52,127
186933,note_on,1,0,0,,8,,,56,127
187047,note_off,114,0,0,,8,,,56,127
187047,note_off,0,0,0,,8,,,68,127
187048,note_on,1,0,0,,6,,,54,127
187048,note_on,0,0,0,,10,,,69,127
187162,note_off,114,0,0,,6,,,54,127
187163,note_on,1,0,0,,10,,,57,127
187277,note_off,114,0,0,,10,,,57,127
187277,note_off,0,0,0,,10,,,69,127
187277,note_off,0,0,0,,5,,,77,127
187278,note_on,1,0,0,,8,,,56,127
187278,note_on,0,0,0,,12,,,71,127
187278,note_on,0,0,0,,4,,,76,127
187392,note_off,114,0,0,,8,,,56,127
187393,note_on,1,0,0,,12,,,59,127
187507,note_off,114,0,0,,12,,,59,127
187507,note_off,0,0,0,,4,,,76,127
187508,note_on,1,0,0,,4,,,52,127
187508,note_on,0,0,0,,2,,,74,127
187622,note_off,114,0,0,,4,,,52,127
187623,note_on,1,0,0,,8,,,56,127
187737,note_off,114,0,0,,8,,,56,127
187737,note_off,0,0,0,,2,,,74,127
187738,note_on,1,0,0,,10,,,57,127
187738,note_on,0,0,0,,1,,,73,127
187852,note_off,114,0,0,,10,,,57,127
187853,note_on,1,0,0,,8,,,56,127
187967,note_off,114,0,0,,8,,,56,127
187967,note_off,0,0,0,,1,,,73,127
187968,note_on,1,0,0,,10,,,57,127
187968,note_on,0,0,0,,2,,,74,127
188082,note_off,114,0,0,,10,,,57,127
188083,note_on,1,0,0,,12,,,59,127
188197,note_off,114,0,0,,12,,,59,127
188197,note_off,0,0,0,,2,,,74,127
188197,note_off,0,0,0,,12,,,71,127
188198,note_on,1,0,0,,1,,,61,127
188198,note_on,0,0,0,,10,,,69,127
188198,note_on,0,0,0,,4,,,76,127
188312,note_off,114,0,0,,1,,,61,127
188313,note_on,1,0,0,,12,,,59,127
188427,note_off,114,0,0,,12,,,59,127
188427,note_off,0,0,0,,10,,,69,127
188428,note_on,1,0,0,,1,,,61,127
188428,note_on,0,0,0,,7,,,67,127
188542,note_off,114,0,0,,1,,,61,127
188543,note_on,1,0,0,,10,,,57,127
188657,note_off,114,0,0,,10,,,57,127
188657,note_off,0,0,0,,7,,,67,127
188658,note_on,1,0,0,,2,,,50,127
188658,note_on,0,0,0,,5,,,65,127
188772,note_off,114,0,0,,2,,,50,127
188773,note_on,1,0,0,,1,,,49,127
188887,note_off,114,0,0,,1,,,49,127
188887,note_off,0,0,0,,5,,,65,127
188888,note_on,1,0,0,,2,,,50,127
188888,note_on,0,0,0,,7,,,67,127
189002,note_off,114,0,0,,2,,,50,127
189003,note_on,1,0,0,,4,,,52,127
189117,note_off,114,0,0,,4,,,52,127
189117,note_off,0,0,0,,7,,,67,127
189117,note_off,0,0,0,,4,,,76,127
189118,note_on,1,0,0,,5,,,53,127
189118,note_on,0,0,0,,10,,,69,127
189118,note_on,0,0,0,,2,,,74,127
189232,note_off,114,0,0,,5,,,53,127
189233,note_on,1,0,0,,4,,,52,127
189347,note_off,114,0,0,,4,,,52,127
189347,note_off,0,0,0,,2,,,74,127
189348,note_on,1,0,0,,5,,,53,127
189348,note_on,0,0,0,,0,,,72,127
189462,note_off,114,0,0,,5,,,53,127
189463,note_on,1,0,0,,2,,,50,127
189577,note_off,114,0,0,,2,,,50,127
189577,note_off,0,0,0,,0,,,72,127
189578,note_on,1,0,0,,7,,,55,127
189578,note_on,0,0,0,,11,,,70,127
189692,note_off,114,0,0,,7,,,55,127
189693,note_on,1,0,0,,5,,,53,127
189807,note_off,114,0,0,,5,,,53,127
189807,note_off,0,0,0,,11,,,70,127
189808,note_on,1,0,0,,7,,,55,127
189808,note_on,0,0,0,,0,,,72,127
189922,note_off,114,0,0,,7,,,55,127
189923,note_on,1,0,0,,10,,,57,127
190037,note_off,114,0,0,,10,,,57,127
190037,note_off,0,0,0,,0,,,72,127
190037,note_off,0,0,0,,10,,,69,127
190038,note_on,1,0,0,,11,,,58,127
190038,note_on,0,0,0,,7,,,67,127
190038,note_on,0,0,0,,2,,,74,127
190152,note_off,114,0,0,,11,,,58,127
190153,note_on,1,0,0,,10,,,57,127
190267,note_off,114,0,0,,10,,,57,127
190267,note_off,0,0,0,,7,,,67,127
190268,note_on,1,0,0,,11,,,58,127
190268,note_on,0,0,0,,5,,,65,127
190382,note_off,114,0,0,,11,,,58,127
190383,note_on,1,0,0,,7,,,55,127
190497,note_off,114,0,0,,7,,,55,127
190497,note_off,0,0,0,,5,,,65,127
190498,note_on,1,0,0,,0,,,48,127
190498,note_on,0,0,0,,4,,,64,127
190612,note_off,114,0,0,,0,,,48,127
190613,note_on,1,0,0,,12,,,47,127
190727,note_off,114,0,0,,12,,,47,127
190727,note_off,0,0,0,,4,,,64,127
190728,note_on,1,0,0,,0,,,48,127
190728,note_on,0,0,0,,5,,,65,127
190842,note_off,114,0,0,,0,,,48,127
190843,note_on,1,0,0,,2,,,50,127
190957,note_off,114,0,0,,2,,,50,127
190957,note_off,0,0,0,,5,,,65,127
190957,note_off,0,0,0,,2,,,74,127
190958,note_on,1,0,0,,4,,,52,127
190958,note_on,0,0,0,,7,,,67,127
190958,note_on,0,0,0,,0,,,72,127
191072,note_off,114,0,0,,4,,,52,127
191073,note_on,1,0,0,,2,,,50,127
191187,note_off,114,0,0,,2,,,50,127
191187,note_off,0,0,0,,0,,,72,127
191188,note_on,1,0,0,,4,,,52,127
191188,note_on,0,0,0,,11,,,70,127
191302,note_off,114,0,0,,4,,,52,127
191303,note_on,1,0,0,,0,,,48,127
191413,note_off,110,0,0,,7,,,67,127
191417,note_off,4,0,0,,0,,,48,127
191418,note_on,1,0,0,,5,,,53,127
191532,note_off,114,0,0,,5,,,53,127
191533,note_off,1,0,0,,11,,,70,127
191533,note_on,0,0,0,,10,,,57,127
191647,note_off,114,0,0,,10,,,57,127
191648,note_on,1,0,0,,7,,,55,127
191648,note_on,0,0,0,,0,,,60,127
191648,note_on,0,0,0,,10,,,69,127
191762,note_off,114,0,0,,7,,,55,127
191763,note_on,1,0,0,,5,,,53,127
191877,note_off,114,0,0,,5,,,53,127
191878,note_on,1,0,0,,4,,,52,127
191992,note_off,114,0,0,,4,,,52,127
191993,note_on,1,0,0,,7,,,55,127
192107,note_off,114,0,0,,7,,,55,127
192107,note_off,0,0,0,,0,,,60,127
192108,note_on,1,0,0,,2,,,50,127
192108,note_on,0,0,0,,2,,,62,127
192222,note_off,114,0,0,,2,,,50,127
192223,note_on,1,0,0,,5,,,53,127
192337,note_off,114,0,0,,5,,,53,127
192337,note_off,0,0,0,,2,,,62,127
192338,note_on,1,0,0,,0,,,48,127
192338,note_on,0,0,0,,4,,,64,127
192452,note_off,114,0,0,,0,,,48,127
192453,note_on,1,0,0,,7,,,55,127
192567,note_off,114,0,0,,7,,,55,127
192567,note_off,0,0,0,,4,,,64,127
192567,note_off,0,0,0,,10,,,69,127
192568,note_on,1,0,0,,6,,,54,127
192568,note_on,0,0,0,,6,,,66,127
192568,note_on,0,0,0,,10,,,69,127
192682,note_off,114,0,0,,6,,,54,127
192683,note_on,1,0,0,,7,,,55,127
192797,note_off,114,0,0,,7,,,55,127
192797,note_off,0,0,0,,10,,,69,127
192797,note_off,0,0,0,,6,,,66,127
192798,note_on,1,0,0,,11,,,46,127
192798,note_on,0,0,0,,7,,,67,127
192798,note_on,0,0,0,,11,,,70,127
192912,note_off,114,0,0,,11,,,46,127
192913,note_on,1,0,0,,7,,,55,127
193027,note_off,114,0,0,,7,,,55,127
193027,note_off,0,0,0,,11,,,70,127
193027,note_off,0,0,0,,7,,,67,127
193028,note_on,1,0,0,,10,,,45,127
193028,note_on,0,0,0,,10,,,69,127
193028,note_on,0,0,0,,0,,,72,127
193142,note_off,114,0,0,,10,,,45,127
193143,note_on,1,0,0,,5,,,53,127
193257,note_off,114,0,0,,5,,,53,127
193257,note_off,0,0,0,,0,,,72,127
193257,note_off,0,0,0,,10,,,69,127
193258,note_on,1,0,0,,7,,,43,127
193258,note_on,0,0,0,,11,,,70,127
193258,note_on,0,0,0,,2,,,74,127
193372,note_off,114,0,0,,7,,,43,127
193373,note_on,1,0,0,,7,,,55,127
193487,note_off,114,0,0,,7,,,55,127
193487,note_off,0,0,0,,11,,,70,127
193488,note_on,1,0,0,,5,,,53,127
193488,note_on,0,0,0,,2,,,62,127
193602,note_off,114,0,0,,5,,,53,127
193603,note_on,1,0,0,,4,,,52,127
193717,note_off,114,0,0,,4,,,52,127
193718,note_on,1,0,0,,5,,,53,127
193832,note_off,114,0,0,,5,,,53,127
193833,note_on,1,0,0,,10,,,57,127
193947,note_off,114,0,0,,10,,,57,127
193947,note_off,0,0,0,,2,,,62,127
193948,note_on,1,0,0,,4,,,52,127
193948,note_on,0,0,0,,4,,,64,127
194062,note_off,114,0,0,,4,,,52,127
194063,note_on,1,0,0,,10,,,57,127
194177,note_off,114,0,0,,10,,,57,127
194177,note_off,0,0,0,,4,,,64,127
194178,note_on,1,0,0,,2,,,50,127
194178,note_on,0,0,0,,5,,,65,127
194292,note_off,114,0,0,,2,,,50,127
194293,note_on,1,0,0,,10,,,57,127
194407,note_off,114,0,0,,10,,,57,127
194407,note_off,0,0,0,,5,,,65,127
194407,note_off,0,0,0,,2,,,74,127
194408,note_on,1,0,0,,1,,,49,127
194408,note_on,0,0,0,,10,,,69,127
194408,note_on,0,0,0,,4,,,76,127
194522,note_off,114,0,0,,1,,,49,127
194523,note_on,1,0,0,,10,,,57,127
194637,note_off,114,0,0,,10,,,57,127
194637,note_off,0,0,0,,4,,,76,127
194638,note_on,1,0,0,,2,,,50,127
194638,note_on,0,0,0,,5,,,77,127
194752,note_off,114,0,0,,2,,,50,127
194753,note_on,1,0,0,,10,,,57,127
194867,note_off,114,0,0,,10,,,57,127
194867,note_off,0,0,0,,5,,,77,127
194867,note_off,0,0,0,,10,,,69,127
194868,note_on,1,0,0,,11,,,46,127
194868,note_on,0,0,0,,2,,,74,127
194868,note_on,0,0,0,,7,,,79,127
194982,note_off,114,0,0,,11,,,46,127
194983,note_on,1,0,0,,7,,,55,127
195097,note_off,114,0,0,,7,,,55,127
195097,note_off,0,0,0,,7,,,79,127
195097,note_off,0,0,0,,2,,,74,127
195098,note_on,1,0,0,,10,,,45,127
195098,note_on,0,0,0,,1,,,73,127
195098,note_on,0,0,0,,10,,,81,127
195212,note_off,114,0,0,,10,,,45,127
195213,note_on,1,0,0,,10,,,57,127
195327,note_off,114,0,0,,10,,,57,127
195327,note_off,0,0,0,,1,,,73,127
195328,note_on,1,0,0,,12,,,47,127
195328,note_on,0,0,0,,2,,,74,127
195442,note_off,114,0,0,,12,,,47,127
195443,note_on,1,0,0,,7,,,55,127
195557,note_off,114,0,0,,7,,,55,127
195557,note_off,0,0,0,,2,,,74,127
195558,note_on,1,0,0,,1,,,49,127
195558,note_on,0,0,0,,4,,,76,127
195672,note_off,114,0,0,,1,,,49,127
195673,note_on,1,0,0,,4,,,52,127
195787,note_off,114,0,0,,4,,,52,127
195787,note_off,0,0,0,,10,,,81,127
195788,note_on,1,0,0,,10,,,45,127
195788,note_on,0,0,0,,7,,,79,127
195902,note_off,114,0,0,,10,,,45,127
195903,note_on,1,0,0,,1,,,49,127
196017,note_off,114,0,0,,1,,,49,127
196017,note_off,0,0,0,,7,,,79,127
196017,note_off,0,0,0,,4,,,76,127
196018,note_on,1,0,0,,2,,,38,127
196018,note_on,0,0,0,,10,,,69,127
196018,note_on,0,0,0,,5,,,77,127
196132,note_off,114,0,0,,2,,,38,127
196133,note_on,1,0,0,,2,,,50,127
196247,note_off,114,0,0,,2,,,50,127
196248,note_on,1,0,0,,5,,,53,127
196362,note_off,114,0,0,,5,,,53,127
196363,note_on,1,0,0,,2,,,50,127
196477,note_off,114,0,0,,2,,,50,127
196477,note_off,0,0,0,,5,,,77,127
196477,note_off,0,0,0,,10,,,69,127
196478,note_on,1,0,0,,7,,,43,127
196478,note_on,0,0,0,,11,,,70,127
196478,note_on,0,0,0,,4,,,76,127
196592,note_off,114,0,0,,7,,,43,127
196593,note_on,1,0,0,,7,,,55,127
196707,note_off,114,0,0,,7,,,55,127
196707,note_off,0,0,0,,4,,,76,127
196708,note_on,1,0,0,,11,,,58,127
196708,note_on,0,0,0,,2,,,74,127
196822,note_off,114,0,0,,11,,,58,127
196823,note_on,1,0,0,,7,,,55,127
196937,note_off,114,0,0,,7,,,55,127
196937,note_off,0,0,0,,2,,,74,127
196937,note_off,0,0,0,,11,,,70,127
196938,note_on,1,0,0,,10,,,45,127
196938,note_on,0,0,0,,10,,,69,127
196938,note_on,0,0,0,,1,,,73,127
196938,note_on,0,0,0,,10,,,81,127
197052,note_off,114,0,0,,10,,,45,127
197053,note_on,1,0,0,,10,,,57,127
197167,note_off,114,0,0,,10,,,57,127
197167,note_off,0,0,0,,1,,,73,127
197168,note_on,1,0,0,,12,,,47,127
197168,note_on,0,0,0,,2,,,74,127
197282,note_off,114,0,0,,12,,,47,127
197283,note_on,1,0,0,,7,,,55,127
197397,note_off,114,0,0,,7,,,55,127
197397,note_off,0,0,0,,2,,,74,127
197398,note_on,1,0,0,,1,,,49,127
197398,note_on,0,0,0,,4,,,76,127
197512,note_off,114,0,0,,1,,,49,127
197513,note_on,1,0,0,,4,,,52,127
197627,note_off,114,0,0,,4,,,52,127
197627,note_off,0,0,0,,10,,,81,127
197628,note_on,1,0,0,,10,,,45,127
197628,note_on,0,0,0,,7,,,79,127
197742,note_off,114,0,0,,10,,,45,127
197743,note_on,1,0,0,,1,,,49,127
197857,note_off,114,0,0,,1,,,49,127
197857,note_off,0,0,0,,7,,,79,127
197857,note_off,0,0,0,,4,,,76,127
197858,note_on,1,0,0,,2,,,38,127
197858,note_on,0,0,0,,2,,,74,127
197858,note_on,0,0,0,,5,,,77,127
197972,note_off,114,0,0,,2,,,38,127
197973,note_on,1,0,0,,2,,,50,127
198087,note_off,114,0,0,,2,,,50,127
198088,note_on,1,0,0,,5,,,53,127
198202,note_off,114,0,0,,5,,,53,127
198203,note_on,1,0,0,,2,,,50,127
198316,note_off,113,0,0,,10,,,69,127
198317,note_off,1,0,0,,2,,,50,127
198317,note_off,0,0,0,,5,,,77,127
198317,note_off,0,0,0,,2,,,74,127
198318,note_on,1,0,0,,7,,,43,127
198318,note_on,0,0,0,,11,,,70,127
198318,note_on,0,0,0,,4,,,76,127
198432,note_off,114,0,0,,7,,,43,127
198433,note_on,1,0,0,,7,,,55,127
198547,note_off,114,0,0,,7,,,55,127
198547,note_off,0,0,0,,4,,,76,127
198548,note_on,1,0,0,,11,,,58,127
198548,note_on,0,0,0,,2,,,74,127
198662,note_off,114,0,0,,11,,,58,127
198663,note_on,1,0,0,,7,,,55,127
198773,note_off,110,0,0,,11,,,70,127
198777,note_off,4,0,0,,7,,,55,127
198777,note_off,0,0,0,,2,,,74,127
198778,note_on,1,0,0,,10,,,45,127
198778,note_on,0,0,0,,10,,,81,127
198892,note_off,114,0,0,,10,,,45,127
198893,note_on,1,0,0,,10,,,57,127
199007,note_off,114,0,0,,10,,,57,127
199007,note_off,0,0,0,,10,,,81,127
199008,note_on,1,0,0,,1,,,61,127
199008,note_on,0,0,0,,4,,,76,127
199122,note_off,114,0,0,,1,,,61,127
199123,note_on,1,0,0,,10,,,57,127
199237,note_off,114,0,0,,10,,,57,127
199237,note_off,0,0,0,,4,,,76,127
199238,note_on,1,0,0,,2,,,38,127
199238,note_on,0,0,0,,5,,,77,127
199352,note_off,114,0,0,,2,,,38,127
199353,note_on,1,0,0,,2,,,50,127
199467,note_off,114,0,0,,2,,,50,127
199467,note_off,0,0,0,,5,,,77,127
199468,note_on,1,0,0,,5,,,53,127
199468,note_on,0,0,0,,2,,,74,127
199582,note_off,114,0,0,,5,,,53,127
199583,note_on,1,0,0,,2,,,50,127
199697,note_off,114,0,0,,2,,,50,127
199697,note_off,0,0,0,,2,,,74,127
199698,note_on,1,0,0,,7,,,43,127
199698,note_on,0,0,0,,11,,,70,127
199812,note_off,114,0,0,,7,,,43,127
199813,note_on,1,0,0,,7,,,55,127
199927,note_off,114,0,0,,7,,,55,127
199927,note_off,0,0,0,,11,,,70,127
199928,note_on,1,0,0,,11,,,58,127
199928,note_on,0,0,0,,7,,,79,127
200042,note_off,114,0,0,,11,,,58,127
200043,note_on,1,0,0,,7,,,55,127
200157,note_off,114,0,0,,7,,,55,127
200157,note_off,0,0,0,,7,,,79,127
200158,note_on,1,0,0,,10,,,45,127
200158,note_on,0,0,0,,1,,,73,127
200272,note_off,114,0,0,,10,,,45,127
200273,note_on,1,0,0,,10,,,57,127
200387,note_off,114,0,0,,10,,,57,127
200387,note_off,0,0,0,,1,,,73,127
200388,note_on,1,0,0,,1,,,61,127
200388,note_on,0,0,0,,7,,,79,127
200502,note_off,114,0,0,,1,,,61,127
200503,note_on,1,0,0,,10,,,57,127
200617,note_off,114,0,0,,10,,,57,127
200617,note_off,0,0,0,,7,,,79,127
200618,note_on,1,0,0,,2,,,38,127
200618,note_on,0,0,0,,5,,,77,127
200732,note_off,114,0,0,,2,,,38,127
200733,note_on,1,0,0,,2,,,50,127
200847,note_off,114,0,0,,2,,,50,127
200847,note_off,0,0,0,,5,,,77,127
200848,note_on,1,0,0,,5,,,53,127
200848,note_on,0,0,0,,10,,,69,127
200962,note_off,114,0,0,,5,,,53,127
200963,note_on,1,0,0,,2,,,50,127
201077,note_off,114,0,0,,2,,,50,127
201077,note_off,0,0,0,,10,,,69,127
201078,note_on,1,0,0,,7,,,43,127
201078,note_on,0,0,0,,11,,,70,127
201192,note_off,114,0,0,,7,,,43,127
201193,note_on,1,0,0,,7,,,55,127
201307,note_off,114,0,0,,7,,,55,127
201307,note_off,0,0,0,,11,,,70,127
201308,note_on,1,0,0,,11,,,58,127
201308,note_on,0,0,0,,7,,,79,127
201422,note_off,114,0,0,,11,,,58,127
201423,note_on,1,0,0,,7,,,55,127
201537,note_off,114,0,0,,7,,,55,127
201537,note_off,0,0,0,,7,,,79,127
201538,note_on,1,0,0,,10,,,45,127
201538,note_on,0,0,0,,1,,,73,127
201652,note_off,114,0,0,,10,,,45,127
201653,note_on,1,0,0,,10,,,57,127
201767,note_off,114,0,0,,10,,,57,127
201767,note_off,0,0,0,,1,,,73,127
201768,note_on,1,0,0,,1,,,61,127
201768,note_on,0,0,0,,7,,,79,127
201882,note_off,114,0,0,,1,,,61,127
201883,note_on,1,0,0,,10,,,57,127
201997,note_off,114,0,0,,10,,,57,127
201997,note_off,0,0,0,,7,,,79,127
201998,note_on,1,0,0,,2,,,38,127
201998,note_on,0,0,0,,5,,,77,127
202112,note_off,114,0,0,,2,,,38,127
202113,note_on,1,0,0,,2,,,50,127
202227,note_off,114,0,0,,2,,,50,127
202227,note_off,0,0,0,,5,,,77,127
202228,note_on,1,0,0,,5,,,53,127
202228,note_on,0,0,0,,2,,,74,127
202342,note_off,114,0,0,,5,,,53,127
202343,note_on,1,0,0,,2,,,50,127
202456,note_off,113,0,0,,2,,,74,127
202457,note_off,1,0,0,,2,,,50,127
202458,note_on,1,0,0,,7,,,43,127
202573,note_on,115,0,0,,11,,,82,127
202687,note_off,114,0,0,,11,,,82,127
202688,note_on,1,0,0,,10,,,81,127
202802,note_off,114,0,0,,10,,,81,127
202803,note_on,1,0,0,,7,,,79,127
202917,note_off,114,0,0,,7,,,79,127
202917,note_off,0,0,0,,7,,,43,127
202918,note_on,1,0,0,,10,,,45,127
202918,note_on,0,0,0,,5,,,77,127
203032,note_off,114,0,0,,5,,,77,127
203033,note_on,1,0,0,,4,,,76,127
203147,note_off,114,0,0,,4,,,76,127
203148,note_on,1,0,0,,2,,,74,127
203262,note_off,114,0,0,,2,,,74,127
203263,note_on,1,0,0,,1,,,73,127
203377,note_off,114,0,0,,1,,,73,127
203377,note_off,0,0,0,,10,,,45,127
203378,note_on,1,0,0,,2,,,50,127
203378,note_on,0,0,0,,2,,,74,127
203378,note_on,0,0,0,,2,,,86,127
203492,note_off,114,0,0,,2,,,50,127
203493,note_on,1,0,0,,1,,,49,127
203607,note_off,114,0,0,,1,,,49,127
203608,note_on,1,0,0,,2,,,50,127
203722,note_off,114,0,0,,2,,,50,127
203723,note_on,1,0,0,,4,,,52,127
203837,note_off,114,0,0,,4,,,52,127
203837,note_off,0,0,0,,2,,,86,127
203838,note_on,1,0,0,,5,,,53,127
203838,note_on,0,0,0,,0,,,84,127
203952,note_off,114,0,0,,5,,,53,127
203953,note_on,1,0,0,,4,,,52,127
204067,note_off,114,0,0,,4,,,52,127
204068,note_on,1,0,0,,5,,,53,127
204182,note_off,114,0,0,,5,,,53,127
204183,note_on,1,0,0,,2,,,50,127
204297,note_off,114,0,0,,2,,,50,127
204297,note_off,0,0,0,,0,,,84,127
204297,note_off,0,0,0,,2,,,74,127
204298,note_on,1,0,0,,7,,,43,127
204298,note_on,0,0,0,,11,,,82,127
204412,note_off,114,0,0,,7,,,43,127
204413,note_on,1,0,0,,7,,,55,127
204527,note_off,114,0,0,,7,,,55,127
204528,note_on,1,0,0,,5,,,53,127
204528,note_on,0,0,0,,2,,,74,127
204642,note_off,114,0,0,,5,,,53,127
204643,note_on,1,0,0,,7,,,55,127
204757,note_off,114,0,0,,7,,,55,127
204757,note_off,0,0,0,,2,,,74,127
204757,note_off,0,0,0,,11,,,82,127
204758,note_on,1,0,0,,10,,,45,127
204758,note_on,0,0,0,,1,,,73,127
204758,note_on,0,0,0,,10,,,81,127
204872,note_off,114,0,0,,10,,,45,127
204873,note_on,1,0,0,,10,,,57,127
204987,note_off,114,0,0,,10,,,57,127
204987,note_off,0,0,0,,10,,,81,127
204987,note_off,0,0,0,,1,,,73,127
204988,note_on,1,0,0,,7,,,55,127
204988,note_on,0,0,0,,4,,,76,127
204988,note_on,0,0,0,,7,,,79,127
205102,note_off,114,0,0,,7,,,55,127
205103,note_on,1,0,0,,10,,,57,127
205216,note_off,113,0,0,,4,,,76,127
205217,note_off,1,0,0,,10,,,57,127
205217,note_off,0,0,0,,7,,,79,127
205218,note_on,1,0,0,,2,,,38,127
205218,note_on,0,0,0,,5,,,77,127
205332,note_off,114,0,0,,2,,,38,127
205333,note_on,1,0,0,,2,,,50,127
205447,note_off,114,0,0,,2,,,50,127
205448,note_on,1,0,0,,5,,,53,127
205448,note_on,0,0,0,,10,,,69,127
205562,note_off,114,0,0,,5,,,53,127
205563,note_on,1,0,0,,2,,,50,127
205677,note_off,114,0,0,,2,,,50,127
205677,note_off,0,0,0,,10,,,69,127
205677,note_off,0,0,0,,5,,,77,127
205678,note_on,1,0,0,,7,,,43,127
205678,note_on,0,0,0,,11,,,70,127
205678,note_on,0,0,0,,4,,,76,127
205792,note_off,114,0,0,,7,,,43,127
205793,note_on,1,0,0,,7,,,55,127
205907,note_off,114,0,0,,7,,,55,127
205907,note_off,0,0,0,,4,,,76,127
205908,note_on,1,0,0,,11,,,58,127
205908,note_on,0,0,0,,2,,,74,127
206022,note_off,114,0,0,,11,,,58,127
206023,note_on,1,0,0,,7,,,55,127
206133,note_off,110,0,0,,11,,,70,127
206137,note_off,4,0,0,,7,,,55,127
206137,note_off,0,0,0,,2,,,74,127
206138,note_on,1,0,0,,10,,,45,127
206138,note_on,0,0,0,,1,,,73,127
206252,note_off,114,0,0,,10,,,45,127
206253,note_on,1,0,0,,10,,,57,127
206367,note_off,114,0,0,,1,,,73,127
206368,note_on,1,0,0,,7,,,55,127
206368,note_on,0,0,0,,10,,,69,127
206373,note_off,5,0,0,,10,,,57,127
206482,note_off,109,0,0,,7,,,55,127
206483,note_on,1,0,0,,10,,,57,127
206597,note_off,114,0,0,,10,,,57,127
206598,note_on,1,0,0,,5,,,53,127
206712,note_off,114,0,0,,5,,,53,127
206713,note_off,1,0,0,,10,,,69,127
206713,note_on,0,0,0,,10,,,57,127
206827,note_off,114,0,0,,10,,,57,127
206828,note_on,1,0,0,,2,,,50,127
206828,note_on,0,0,0,,10,,,69,127
206942,note_off,114,0,0,,2,,,50,127
206943,note_on,1,0,0,,5,,,53,127
207057,note_off,114,0,0,,5,,,53,127
207057,note_off,0,0,0,,10,,,69,127
207058,note_on,1,0,0,,7,,,43,127
207058,note_on,0,0,0,,11,,,70,127
207172,note_off,114,0,0,,7,,,43,127
207173,note_on,1,0,0,,7,,,55,127
207287,note_off,114,0,0,,7,,,55,127
207287,note_off,0,0,0,,11,,,70,127
207288,note_on,1,0,0,,11,,,58,127
207288,note_on,0,0,0,,7,,,67,127
207402,note_off,114,0,0,,11,,,58,127
207403,note_on,1,0,0,,7,,,55,127
207517,note_off,114,0,0,,7,,,55,127
207517,note_off,0,0,0,,7,,,67,127
207518,note_on,1,0,0,,7,,,43,127
207518,note_on,0,0,0,,1,,,73,127
207632,note_off,114,0,0,,7,,,43,127
207633,note_on,1,0,0,,7,,,55,127
207747,note_off,114,0,0,,7,,,55,127
207747,note_off,0,0,0,,1,,,73,127
207748,note_on,1,0,0,,5,,,53,127
207748,note_on,0,0,0,,10,,,69,127
207862,note_off,114,0,0,,5,,,53,127
207863,note_on,1,0,0,,4,,,52,127
207977,note_off,114,0,0,,4,,,52,127
207977,note_off,0,0,0,,10,,,69,127
207978,note_on,1,0,0,,5,,,53,127
207978,note_on,0,0,0,,2,,,74,127
207978,note_on,0,0,0,,5,,,65,127
208092,note_off,114,0,0,,5,,,53,127
208093,note_on,1,0,0,,10,,,57,127
208207,note_off,114,0,0,,10,,,57,127
208207,note_off,0,0,0,,5,,,65,127
208207,note_off,0,0,0,,2,,,74,127
208208,note_on,1,0,0,,1,,,49,127
208208,note_on,0,0,0,,7,,,67,127
208208,note_on,0,0,0,,4,,,76,127
208322,note_off,114,0,0,,1,,,49,127
208323,note_on,1,0,0,,4,,,52,127
208437,note_off,114,0,0,,4,,,52,127
208437,note_off,0,0,0,,4,,,76,127
208437,note_off,0,0,0,,7,,,67,127
208438,note_on,1,0,0,,2,,,50,127
208438,note_on,0,0,0,,10,,,69,127
208438,note_on,0,0,0,,5,,,77,127
208552,note_off,114,0,0,,2,,,50,127
208553,note_on,1,0,0,,5,,,53,127
208667,note_off,114,0,0,,5,,,53,127
208667,note_off,0,0,0,,5,,,77,127
208667,note_off,0,0,0,,10,,,69,127
208668,note_on,1,0,0,,11,,,46,127
208668,note_on,0,0,0,,11,,,70,127
208668,note_on,0,0,0,,7,,,79,127
208782,note_off,114,0,0,,11,,,46,127
208783,note_on,1,0,0,,7,,,55,127
208897,note_off,114,0,0,,7,,,55,127
208897,note_off,0,0,0,,7,,,79,127
208897,note_off,0,0,0,,11,,,70,127
208898,note_on,1,0,0,,10,,,45,127
208898,note_on,0,0,0,,10,,,69,127
208898,note_on,0,0,0,,5,,,77,127
209012,note_off,114,0,0,,10,,,45,127
209013,note_on,1,0,0,,10,,,57,127
209127,note_off,114,0,0,,10,,,57,127
209127,note_off,0,0,0,,5,,,77,127
209127,note_off,0,0,0,,10,,,69,127
209128,note_on,1,0,0,,7,,,55,127
209128,note_on,0,0,0,,7,,,67,127
209128,note_on,0,0,0,,4,,,76,127
209242,note_off,114,0,0,,7,,,55,127
209243,note_on,1,0,0,,10,,,57,127
209357,note_off,114,0,0,,10,,,57,127
209357,note_off,0,0,0,,4,,,76,127
209357,note_off,0,0,0,,7,,,67,127
209358,note_on,1,0,0,,10,,,45,127
209358,note_on,0,0,0,,5,,,65,127
209358,note_on,0,0,0,,2,,,74,127
209472,note_off,114,0,0,,10,,,45,127
209473,note_on,1,0,0,,10,,,57,127
209587,note_off,114,0,0,,10,,,57,127
209587,note_off,0,0,0,,2,,,74,127
209587,note_off,0,0,0,,5,,,65,127
209588,note_on,1,0,0,,7,,,43,127
209588,note_on,0,0,0,,4,,,64,127
209588,note_on,0,0,0,,1,,,73,127
209702,note_off,114,0,0,,7,,,43,127
209703,note_on,1,0,0,,7,,,55,127
209817,note_off,114,0,0,,7,,,55,127
209817,note_off,0,0,0,,1,,,73,127
209817,note_off,0,0,0,,4,,,64,127
209818,note_on,1,0,0,,5,,,41,127
209818,note_on,0,0,0,,2,,,74,127
209818,note_on,0,0,0,,5,,,65,127
209932,note_off,114,0,0,,5,,,41,127
209933,note_on,1,0,0,,5,,,53,127
210047,note_off,114,0,0,,5,,,53,127
210047,note_off,0,0,0,,5,,,65,127
210047,note_off,0,0,0,,2,,,74,127
210048,note_on,1,0,0,,2,,,50,127
210048,note_on,0,0,0,,10,,,81,127
210162,note_off,114,0,0,,2,,,50,127
210163,note_on,1,0,0,,5,,,53,127
210277,note_off,114,0,0,,5,,,53,127
210277,note_off,0,0,0,,10,,,81,127
210278,note_on,1,0,0,,7,,,43,127
210278,note_on,0,0,0,,11,,,82,127
210392,note_off,114,0,0,,7,,,43,127
210393,note_on,1,0,0,,7,,,55,127
210507,note_off,114,0,0,,7,,,55,127
210507,note_off,0,0,0,,11,,,82,127
210508,note_on,1,0,0,,11,,,58,127
210508,note_on,0,0,0,,2,,,74,127
210622,note_off,114,0,0,,11,,,58,127
210623,note_on,1,0,0,,7,,,55,127
210737,note_off,114,0,0,,7,,,55,127
210737,note_off,0,0,0,,2,,,74,127
210738,note_on,1,0,0,,10,,,45,127
210738,note_on,0,0,0,,1,,,73,127
210852,note_off,114,0,0,,10,,,45,127
210853,note_on,1,0,0,,10,,,57,127
210967,note_off,114,0,0,,10,,,57,127
210967,note_off,0,0,0,,1,,,73,127
210968,note_on,1,0,0,,1,,,61,127
210968,note_on,0,0,0,,10,,,81,127
211082,note_off,114,0,0,,10,,,81,127
211082,note_off,0,0,0,,1,,,61,127
211083,note_on,1,0,0,,10,,,57,127
211083,note_on,0,0,0,,7,,,79,127
211197,note_off,114,0,0,,7,,,79,127
211197,note_off,0,0,0,,10,,,57,127
211198,note_on,1,0,0,,2,,,50,127
211198,note_on,0,0,0,,5,,,77,127
211312,note_off,114,0,0,,5,,,77,127
211312,note_off,0,0,0,,2,,,50,127
211313,note_on,1,0,0,,2,,,62,127
211313,note_on,0,0,0,,4,,,76,127
211427,note_off,114,0,0,,4,,,76,127
211427,note_off,0,0,0,,2,,,62,127
211428,note_on,1,0,0,,5,,,65,127
211428,note_on,0,0,0,,2,,,74,127
211428,note_on,0,0,0,,10,,,81,127
211542,note_off,114,0,0,,2,,,74,127
211542,note_off,0,0,0,,5,,,65,127
211543,note_on,1,0,0,,2,,,62,127
211543,note_on,0,0,0,,0,,,72,127
211657,note_off,114,0,0,,0,,,72,127
211657,note_off,0,0,0,,2,,,62,127
211658,note_on,1,0,0,,7,,,43,127
211658,note_on,0,0,0,,11,,,70,127
211772,note_off,114,0,0,,11,,,70,127
211772,note_off,0,0,0,,7,,,43,127
211773,note_on,1,0,0,,7,,,55,127
211773,note_on,0,0,0,,0,,,72,127
211887,note_off,114,0,0,,0,,,72,127
211887,note_off,0,0,0,,7,,,55,127
211887,note_off,0,0,0,,10,,,81,127
211888,note_on,1,0,0,,11,,,58,127
211888,note_on,0,0,0,,2,,,74,127
211888,note_on,0,0,0,,7,,,79,127
212002,note_off,114,0,0,,7,,,79,127
212002,note_off,0,0,0,,11,,,58,127
212003,note_on,1,0,0,,7,,,55,127
212003,note_on,0,0,0,,5,,,77,127
212117,note_off,114,0,0,,5,,,77,127
212117,note_off,0,0,0,,7,,,55,127
212118,note_on,1,0,0,,0,,,48,127
212118,note_on,0,0,0,,4,,,76,127
212232,note_off,114,0,0,,4,,,76,127
212232,note_off,0,0,0,,0,,,48,127
212233,note_on,1,0,0,,0,,,60,127
212233,note_on,0,0,0,,5,,,77,127
212347,note_off,114,0,0,,5,,,77,127
212347,note_off,0,0,0,,0,,,60,127
212347,note_off,0,0,0,,2,,,74,127
212348,note_on,1,0,0,,4,,,64,127
212348,note_on,0,0,0,,0,,,72,127
212348,note_on,0,0,0,,7,,,79,127
212462,note_off,114,0,0,,0,,,72,127
212462,note_off,0,0,0,,4,,,64,127
212463,note_on,1,0,0,,0,,,60,127
212463,note_on,0,0,0,,11,,,70,127
212577,note_off,114,0,0,,11,,,70,127
212577,note_off,0,0,0,,0,,,60,127
212578,note_on,1,0,0,,5,,,41,127
212578,note_on,0,0,0,,10,,,69,127
212692,note_off,114,0,0,,10,,,69,127
212692,note_off,0,0,0,,5,,,41,127
212693,note_on,1,0,0,,5,,,53,127
212693,note_on,0,0,0,,11,,,70,127
212807,note_off,114,0,0,,11,,,70,127
212807,note_off,0,0,0,,5,,,53,127
212807,note_off,0,0,0,,7,,,79,127
212808,note_on,1,0,0,,10,,,57,127
212808,note_on,0,0,0,,0,,,72,127
212808,note_on,0,0,0,,5,,,77,127
212922,note_off,114,0,0,,5,,,77,127
212922,note_off,0,0,0,,10,,,57,127
212923,note_on,1,0,0,,5,,,53,127
212923,note_on,0,0,0,,4,,,76,127
213037,note_off,114,0,0,,4,,,76,127
213037,note_off,0,0,0,,5,,,53,127
213038,note_on,1,0,0,,11,,,46,127
213038,note_on,0,0,0,,2,,,74,127
213152,note_off,114,0,0,,2,,,74,127
213152,note_off,0,0,0,,11,,,46,127
213153,note_on,1,0,0,,11,,,58,127
213153,note_on,0,0,0,,4,,,76,127
213267,note_off,114,0,0,,4,,,76,127
213267,note_off,0,0,0,,11,,,58,127
213267,note_off,0,0,0,,0,,,72,127
213268,note_on,1,0,0,,2,,,62,127
213268,note_on,0,0,0,,11,,,70,127
213268,note_on,0,0,0,,5,,,77,127
213382,note_off,114,0,0,,11,,,70,127
213382,note_off,0,0,0,,2,,,62,127
213383,note_on,1,0,0,,11,,,58,127
213383,note_on,0,0,0,,10,,,69,127
213497,note_off,114,0,0,,10,,,69,127
213497,note_off,0,0,0,,11,,,58,127
213498,note_on,1,0,0,,4,,,40,127
213498,note_on,0,0,0,,7,,,67,127
213612,note_off,114,0,0,,7,,,67,127
213612,note_off,0,0,0,,4,,,40,127
213613,note_on,1,0,0,,4,,,52,127
213613,note_on,0,0,0,,10,,,69,127
213727,note_off,114,0,0,,10,,,69,127
213727,note_off,0,0,0,,4,,,52,127
213727,note_off,0,0,0,,5,,,77,127
213728,note_on,1,0,0,,7,,,55,127
213728,note_on,0,0,0,,11,,,70,127
213728,note_on,0,0,0,,4,,,76,127
213842,note_off,114,0,0,,4,,,76,127
213842,note_off,0,0,0,,7,,,55,127
213843,note_on,1,0,0,,4,,,52,127
213843,note_on,0,0,0,,2,,,74,127
213957,note_off,114,0,0,,2,,,74,127
213957,note_off,0,0,0,,4,,,52,127
213958,note_on,1,0,0,,10,,,45,127
213958,note_on,0,0,0,,1,,,73,127
214072,note_off,114,0,0,,1,,,73,127
214072,note_off,0,0,0,,10,,,45,127
214073,note_on,1,0,0,,10,,,57,127
214073,note_on,0,0,0,,2,,,74,127
214187,note_off,114,0,0,,2,,,74,127
214187,note_off,0,0,0,,10,,,57,127
214187,note_off,0,0,0,,11,,,70,127
214188,note_on,1,0,0,,1,,,61,127
214188,note_on,0,0,0,,10,,,69,127
214188,note_on,0,0,0,,4,,,76,127
214302,note_off,114,0,0,,10,,,69,127
214302,note_off,0,0,0,,1,,,61,127
214303,note_on,1,0,0,,10,,,57,127
214303,note_on,0,0,0,,7,,,67,127
214417,note_off,114,0,0,,7,,,67,127
214417,note_off,0,0,0,,10,,,57,127
214418,note_on,1,0,0,,2,,,38,127
214418,note_on,0,0,0,,5,,,65,127
214532,note_off,114,0,0,,5,,,65,127
214532,note_off,0,0,0,,2,,,38,127
214533,note_on,1,0,0,,2,,,50,127
214533,note_on,0,0,0,,7,,,67,127
214647,note_off,114,0,0,,7,,,67,127
214647,note_off,0,0,0,,2,,,50,127
214647,note_off,0,0,0,,4,,,76,127
214648,note_on,1,0,0,,5,,,53,127
214648,note_on,0,0,0,,10,,,69,127
214648,note_on,0,0,0,,2,,,74,127
214762,note_off,114,0,0,,2,,,74,127
214762,note_off,0,0,0,,5,,,53,127
214763,note_on,1,0,0,,2,,,50,127
214763,note_on,0,0,0,,0,,,72,127
214877,note_off,114,0,0,,0,,,72,127
214877,note_off,0,0,0,,2,,,50,127
214878,note_on,1,0,0,,7,,,43,127
214878,note_on,0,0,0,,11,,,70,127
214992,note_off,114,0,0,,11,,,70,127
214992,note_off,0,0,0,,7,,,43,127
214993,note_on,1,0,0,,7,,,55,127
214993,note_on,0,0,0,,5,,,77,127
215107,note_off,114,0,0,,5,,,77,127
215107,note_off,0,0,0,,7,,,55,127
215107,note_off,0,0,0,,10,,,69,127
215108,note_on,1,0,0,,11,,,58,127
215108,note_on,0,0,0,,7,,,67,127
215108,note_on,0,0,0,,4,,,76,127
215222,note_off,114,0,0,,4,,,76,127
215222,note_off,0,0,0,,11,,,58,127
215223,note_on,1,0,0,,7,,,55,127
215223,note_on,0,0,0,,2,,,74,127
215337,note_off,114,0,0,,2,,,74,127
215337,note_off,0,0,0,,7,,,55,127
215338,note_on,1,0,0,,10,,,45,127
215338,note_on,0,0,0,,1,,,73,127
215452,note_off,114,0,0,,10,,,45,127
215452,note_off,0,0,0,,7,,,67,127
215453,note_on,1,0,0,,10,,,57,127
215453,note_on,0,0,0,,7,,,67,127
215566,note_off,113,0,0,,1,,,73,127
215567,note_off,1,0,0,,7,,,67,127
215567,note_off,0,0,0,,10,,,57,127
215568,note_on,1,0,0,,12,,,59,127
215568,note_on,0,0,0,,5,,,65,127
215682,note_off,114,0,0,,5,,,65,127
215682,note_off,0,0,0,,12,,,59,127
215683,note_on,1,0,0,,1,,,61,127
215683,note_on,0,0,0,,4,,,64,127
215797,note_off,114,0,0,,4,,,64,127
215797,note_off,0,0,0,,1,,,61,127
215798,note_on,1,0,0,,2,,,62,127
215798,note_on,0,0,0,,5,,,65,127
215912,note_off,114,0,0,,2,,,62,127
215913,note_on,1,0,0,,2,,,50,127
215913,note_on,0,0,0,,2,,,74,127
216027,note_off,114,0,0,,2,,,74,127
216027,note_off,0,0,0,,2,,,50,127
216028,note_on,1,0,0,,5,,,53,127
216028,note_on,0,0,0,,10,,,69,127
216142,note_off,114,0,0,,10,,,69,127
216142,note_off,0,0,0,,5,,,53,127
216143,note_on,1,0,0,,2,,,50,127
216143,note_on,0,0,0,,0,,,72,127
216253,note_off,110,0,0,,5,,,65,127
216257,note_off,4,0,0,,0,,,72,127
216257,note_off,0,0,0,,2,,,50,127
216258,note_on,1,0,0,,7,,,55,127
216258,note_on,0,0,0,,11,,,70,127
216372,note_off,114,0,0,,11,,,70,127
216372,note_off,0,0,0,,7,,,55,127
216373,note_on,1,0,0,,7,,,43,127
216373,note_on,0,0,0,,7,,,79,127
216487,note_off,114,0,0,,7,,,79,127
216487,note_off,0,0,0,,7,,,43,127
216488,note_on,1,0,0,,11,,,46,127
216488,note_on,0,0,0,,11,,,70,127
216488,note_on,0,0,0,,5,,,77,127
216602,note_off,114,0,0,,5,,,77,127
216602,note_off,0,0,0,,11,,,46,127
216603,note_on,1,0,0,,7,,,43,127
216603,note_on,0,0,0,,4,,,76,127
216717,note_off,114,0,0,,4,,,76,127
216717,note_off,0,0,0,,7,,,43,127
216717,note_off,0,0,0,,11,,,70,127
216718,note_on,1,0,0,,10,,,45,127
216718,note_on,0,0,0,,10,,,69,127
216718,note_on,0,0,0,,5,,,77,127
216832,note_off,114,0,0,,5,,,77,127
216833,note_on,1,0,0,,2,,,74,127
216947,note_off,114,0,0,,2,,,74,127
216947,note_off,0,0,0,,10,,,69,127
216947,note_off,0,0,0,,10,,,45,127
216948,note_on,1,0,0,,10,,,57,127
216948,note_on,0,0,0,,7,,,67,127
216948,note_on,0,0,0,,4,,,76,127
217062,note_off,114,0,0,,4,,,76,127
217063,note_on,1,0,0,,1,,,73,127
217177,note_off,114,0,0,,1,,,73,127
217177,note_off,0,0,0,,7,,,67,127
217177,note_off,0,0,0,,10,,,57,127
217178,note_on,1,0,0,,2,,,74,127
217178,note_on,0,0,0,,5,,,65,127
217178,note_on,0,0,0,,2,,,50,127
217292,note_off,114,0,0,,2,,,74,127
217294,note_on,2,0,0,,10,,,69,127
217408,note_off,114,0,0,,10,,,69,127
217408,note_off,0,0,0,,2,,,50,127
217408,note_off,0,0,0,,5,,,65,127
217410,note_on,2,0,0,,11,,,70,127
217410,note_on,0,0,0,,2,,,62,127
217410,note_on,0,0,0,,7,,,43,127
217524,note_off,114,0,0,,11,,,70,127
217526,note_on,2,0,0,,7,,,67,127
217640,note_off,114,0,0,,7,,,67,127
217640,note_off,0,0,0,,7,,,43,127
217642,note_on,2,0,0,,10,,,69,127
217642,note_on,0,0,0,,10,,,45,127
217756,note_off,114,0,0,,10,,,69,127
217758,note_on,2,0,0,,5,,,65,127
217872,note_off,114,0,0,,5,,,65,127
217872,note_off,0,0,0,,10,,,45,127
217872,note_off,0,0,0,,2,,,62,127
217874,note_on,2,0,0,,7,,,67,127
217874,note_on,0,0,0,,1,,,61,127
217874,note_on,0,0,0,,10,,,45,127
217988,note_off,114,0,0,,7,,,67,127
217990,note_on,2,0,0,,4,,,64,127
218104,note_off,114,0,0,,4,,,64,127
218104,note_off,0,0,0,,10,,,45,127
218104,note_off,0,0,0,,1,,,61,127
218106,note_on,2,0,0,,5,,,65,127
218106,note_on,0,0,0,,2,,,62,127
218106,note_on,0,0,0,,2,,,38,127
218220,note_off,114,0,0,,2,,,62,127
218221,note_on,1,0,0,,10,,,57,127
218335,note_off,114,0,0,,10,,,57,127
218336,note_off,1,0,0,,2,,,38,127
218337,note_on,1,0,0,,11,,,58,127
218337,note_on,0,0,0,,7,,,55,127
218337,note_on,0,0,0,,7,,,43,127
218403,note_off,66,0,0,,5,,,65,127
218451,note_off,48,0,0,,11,,,58,127
218453,note_on,2,0,0,,4,,,64,127
218567,note_off,114,0,0,,4,,,64,127
218567,note_off,0,0,0,,7,,,43,127
218567,note_off,0,0,0,,7,,,55,127
218569,note_on,2,0,0,,10,,,57,127
218569,note_on,0,0,0,,5,,,53,127
218569,note_on,0,0,0,,10,,,45,127
218683,note_off,114,0,0,,10,,,57,127
218685,note_on,2,0,0,,2,,,62,127
218799,note_off,114,0,0,,2,,,62,127
218799,note_off,0,0,0,,10,,,45,127
218799,note_off,0,0,0,,5,,,53,127
218801,note_on,2,0,0,,7,,,55,127
218801,note_on,0,0,0,,10,,,45,127
218801,note_on,0,0,0,,4,,,52,127
218915,note_off,114,0,0,,7,,,55,127
218917,note_on,2,0,0,,1,,,61,127
219031,note_off,114,0,0,,1,,,61,127
219031,note_off,0,0,0,,4,,,52,127
219031,note_off,0,0,0,,10,,,45,127
219035,note_on,4,0,0,,2,,,38,127
219035,note_on,0,0,0,,5,,,53,127
219035,note_on,0,0,0,,2,,,62,127
219149,note_off,114,0,0,,5,,,53,127
219157,note_on,8,0,0,,7,,,55,127
219271,note_off,114,0,0,,7,,,55,127
219279,note_on,8,0,0,,5,,,53,127
219393,note_off,114,0,0,,5,,,53,127
219401,note_on,8,0,0,,4,,,52,127
219515,note_off,114,0,0,,4,,,52,127
219522,note_on,7,0,0,,5,,,53,127
219636,note_off,114,0,0,,5,,,53,127
219644,note_on,8,0,0,,10,,,57,127
219758,note_off,114,0,0,,10,,,57,127
219766,note_on,8,0,0,,7,,,55,127
219852,note_off,86,0,0,,2,,,62,127
219888,note_on,36,0,0,,1,,,61,127
219970,note_off,82,0,0,,2,,,38,127
220002,note_off,32,0,0,,1,,,61,127
220010,note_on,8,0,0,,2,,,38,127
220010,note_on,0,0,0,,2,,,62,127
220114,note_off,104,0,0,,7,,,55,127
220131,note_on,17,0,0,,7,,,55,127
220245,note_off,114,0,0,,7,,,55,127
220253,note_on,8,0,0,,5,,,53,127
220367,note_off,114,0,0,,5,,,53,127
220375,note_on,8,0,0,,4,,,52,127
220489,note_off,114,0,0,,4,,,52,127
220497,note_on,8,0,0,,5,,,53,127
220592,note_off,95,0,0,,2,,,62,127
220620,note_on,28,0,0,,2,,,62,127
220728,note_off,108,0,0,,5,,,53,127
220750,note_on,22,0,0,,4,,,52,127
220851,note_off,101,0,0,,2,,,62,127
220916,note_on,65,0,0,,1,,,61,127
220926,note_off,10,0,0,,4,,,52,127
220948,note_off,22,0,0,,2,,,38,127
221063,note_off,115,0,0,,1,,,61,127
221164,note_on,101,0,0,,2,,,38,127
224102,note_off,2938,0,0,,2,,,38,127
230400,end_of_track,6298,1,0,,,,,,
