tick,type,time,meta,track,program,channel,pitch,tempo,note,velocity
0,copyright,0,1,0,,,,,,
0,program_change,0,0,0,6,0,,,,
0,pitchwheel,0,0,0,,0,0,,,
0,program_change,0,0,0,6,1,,,,
0,pitchwheel,0,0,0,,1,-590,,,
0,program_change,0,0,0,6,2,,,,
0,pitchwheel,0,0,0,,2,-272,,,
0,program_change,0,0,0,6,3,,,,
0,pitchwheel,0,0,0,,3,-353,,,
0,program_change,0,0,0,6,4,,,,
0,pitchwheel,0,0,0,,4,-560,,,
0,program_change,0,0,0,6,5,,,,
0,pitchwheel,0,0,0,,5,-80,,,
0,program_change,0,0,0,6,6,,,,
0,pitchwheel,0,0,0,,6,-625,,,
0,program_change,0,0,0,6,7,,,,
0,pitchwheel,0,0,0,,7,-130,,,
0,program_change,0,0,0,6,8,,,,
0,pitchwheel,0,0,0,,8,-512,,,
0,program_change,0,0,0,6,10,,,,
0,pitchwheel,0,0,0,,10,-464,,,
0,program_change,0,0,0,6,11,,,,
0,pitchwheel,0,0,0,,11,-208,,,
0,program_change,0,0,0,6,12,,,,
0,pitchwheel,0,0,0,,12,-553,,,
0,set_tempo,0,1,0,,,,500000,,
230,note_on,230,0,0,,10,,,69,127
332,note_off,102,0,0,,10,,,69,127
345,note_on,13,0,0,,5,,,65,127
447,note_off,102,0,0,,5,,,65,127
460,note_on,13,0,0,,0,,,72,127
575,note_on,115,0,0,,10,,,69,127
592,note_off,17,0,0,,0,,,72,127
689,note_off,97,0,0,,10,,,69,127
690,note_on,1,0,0,,5,,,77,127
804,note_off,114,0,0,,5,,,77,127
805,note_on,1,0,0,,0,,,72,127
919,note_off,114,0,0,,0,,,72,127
920,note_on,1,0,0,,10,,,81,127
1035,note_on,115,0,0,,5,,,77,127
1052,note_off,17,0,0,,10,,,81,127
1149,note_off,97,0,0,,5,,,77,127
1150,note_on,1,0,0,,0,,,84,127
1264,note_off,114,0,0,,0,,,84,127
1265,note_on,1,0,0,,11,,,82,127
1379,note_off,114,0,0,,11,,,82,127
1380,note_on,1,0,0,,10,,,81,127
1495,note_on,115,0,0,,7,,,79,127
1500,note_off,5,0,0,,10,,,81,127
1603,note_off,103,0,0,,7,,,79,127
1610,note_on,7,0,0,,5,,,77,127
1718,note_off,108,0,0,,5,,,77,127
1725,note_on,7,0,0,,4,,,76,127
1833,note_off,108,0,0,,4,,,76,127
1840,note_on,7,0,0,,5,,,77,127
2070,note_on,230,0,0,,10,,,57,127
2172,note_off,102,0,0,,10,,,57,127
2185,note_on,13,0,0,,5,,,53,127
2287,note_off,102,0,0,,5,,,53,127
2300,note_on,13,0,0,,0,,,60,127
2414,note_off,114,0,0,,0,,,60,127
2415,note_on,1,0,0,,10,,,57,127
2529,note_off,114,0,0,,10,,,57,127
2530,note_on,1,0,0,,5,,,65,127
2644,note_off,114,0,0,,5,,,65,127
2645,note_on,1,0,0,,0,,,60,127
2759,note_off,114,0,0,,0,,,60,127
2760,note_on,1,0,0,,10,,,69,127
2874,note_off,114,0,0,,10,,,69,127
2875,note_on,1,0,0,,5,,,65,127
2989,note_off,114,0,0,,5,,,65,127
2990,note_on,1,0,0,,0,,,72,127
3104,note_off,114,0,0,,0,,,72,127
3105,note_on,1,0,0,,11,,,70,127
3219,note_off,114,0,0,,11,,,70,127
3220,note_on,1,0,0,,10,,,69,127
3334,note_off,114,0,0,,10,,,69,127
3334,note_off,0,0,0,,5,,,77,127
3335,note_on,1,0,0,,7,,,79,127
3335,note_on,0,0,0,,7,,,67,127
3449,note_off,114,0,0,,7,,,67,127
3449,note_off,0,0,0,,7,,,79,127
3450,note_on,1,0,0,,10,,,81,127
3450,note_on,0,0,0,,5,,,65,127
3564,note_off,114,0,0,,5,,,65,127
3564,note_off,0,0,0,,10,,,81,127
3565,note_on,1,0,0,,11,,,82,127
3565,note_on,0,0,0,,4,,,64,127
3679,note_off,114,0,0,,4,,,64,127
3679,note_off,0,0,0,,11,,,82,127
3680,note_on,1,0,0,,10,,,81,127
3680,note_on,0,0,0,,5,,,65,127
3794,note_off,114,0,0,,10,,,81,127
3795,note_on,1,0,0,,11,,,82,127
3909,note_off,114,0,0,,11,,,82,127
3910,note_on,1,0,0,,0,,,84,127
4024,note_off,114,0,0,,0,,,84,127
4025,note_on,1,0,0,,4,,,76,127
4139,note_off,114,0,0,,4,,,76,127
4139,note_off,0,0,0,,5,,,65,127
4140,note_on,1,0,0,,5,,,77,127
4140,note_on,0,0,0,,10,,,57,127
4254,note_off,114,0,0,,5,,,77,127
4255,note_on,1,0,0,,7,,,79,127
4369,note_off,114,0,0,,7,,,79,127
4370,note_on,1,0,0,,10,,,81,127
4484,note_off,114,0,0,,10,,,81,127
4485,note_on,1,0,0,,0,,,72,127
4599,note_off,114,0,0,,0,,,72,127
4599,note_off,0,0,0,,10,,,57,127
4600,note_on,1,0,0,,2,,,74,127
4600,note_on,0,0,0,,11,,,58,127
4714,note_off,114,0,0,,2,,,74,127
4715,note_on,1,0,0,,4,,,76,127
4829,note_off,114,0,0,,4,,,76,127
4830,note_on,1,0,0,,5,,,77,127
4944,note_off,114,0,0,,5,,,77,127
4945,note_on,1,0,0,,10,,,69,127
5059,note_off,114,0,0,,10,,,69,127
5059,note_off,0,0,0,,11,,,58,127
5060,note_on,1,0,0,,0,,,72,127
5060,note_on,0,0,0,,11,,,70,127
5060,note_on,0,0,0,,0,,,60,127
5174,note_off,114,0,0,,11,,,70,127
5174,note_off,0,0,0,,0,,,72,127
5175,note_on,1,0,0,,10,,,69,127
5289,note_off,114,0,0,,10,,,69,127
5290,note_on,1,0,0,,11,,,70,127
5404,note_off,114,0,0,,11,,,70,127
5405,note_on,1,0,0,,0,,,72,127
5519,note_off,114,0,0,,0,,,72,127
5519,note_off,0,0,0,,0,,,60,127
5520,note_on,1,0,0,,10,,,69,127
5520,note_on,0,0,0,,5,,,53,127
5634,note_off,114,0,0,,10,,,69,127
5635,note_on,1,0,0,,11,,,70,127
5749,note_off,114,0,0,,11,,,70,127
5750,note_on,1,0,0,,0,,,72,127
5864,note_off,114,0,0,,0,,,72,127
5865,note_on,1,0,0,,4,,,64,127
5979,note_off,114,0,0,,4,,,64,127
5979,note_off,0,0,0,,5,,,53,127
5980,note_on,1,0,0,,5,,,65,127
5980,note_on,0,0,0,,10,,,45,127
6094,note_off,114,0,0,,5,,,65,127
6095,note_on,1,0,0,,7,,,67,127
6209,note_off,114,0,0,,7,,,67,127
6210,note_on,1,0,0,,10,,,69,127
6324,note_off,114,0,0,,10,,,69,127
6325,note_on,1,0,0,,0,,,60,127
6439,note_off,114,0,0,,0,,,60,127
6439,note_off,0,0,0,,10,,,45,127
6440,note_on,1,0,0,,2,,,62,127
6440,note_on,0,0,0,,11,,,46,127
6554,note_off,114,0,0,,2,,,62,127
6555,note_on,1,0,0,,4,,,64,127
6669,note_off,114,0,0,,4,,,64,127
6670,note_on,1,0,0,,5,,,65,127
6784,note_off,114,0,0,,5,,,65,127
6785,note_on,1,0,0,,10,,,57,127
6899,note_off,114,0,0,,10,,,57,127
6899,note_off,0,0,0,,11,,,46,127
6900,note_on,1,0,0,,0,,,60,127
6900,note_on,0,0,0,,0,,,48,127
7014,note_off,114,0,0,,0,,,60,127
7015,note_on,1,0,0,,11,,,58,127
7129,note_off,114,0,0,,11,,,58,127
7130,note_on,1,0,0,,10,,,57,127
7244,note_off,114,0,0,,10,,,57,127
7245,note_on,1,0,0,,11,,,58,127
7359,note_off,114,0,0,,11,,,58,127
7359,note_off,0,0,0,,0,,,48,127
7360,note_on,1,0,0,,11,,,58,127
7360,note_on,0,0,0,,5,,,41,127
7820,note_off,460,0,0,,11,,,58,127
7821,note_on,1,0,0,,10,,,57,127
8128,note_off,307,0,0,,5,,,41,127
8280,note_off,152,0,0,,10,,,57,127
8281,note_on,1,0,0,,5,,,65,127
8396,note_on,115,0,0,,10,,,69,127
8491,note_off,95,0,0,,5,,,65,127
8511,note_on,20,0,0,,7,,,67,127
8606,note_off,95,0,0,,10,,,69,127
8626,note_on,20,0,0,,11,,,70,127
8721,note_off,95,0,0,,7,,,67,127
8741,note_on,20,0,0,,10,,,69,127
8836,note_off,95,0,0,,11,,,70,127
8856,note_on,20,0,0,,0,,,72,127
8951,note_off,95,0,0,,10,,,69,127
8971,note_on,20,0,0,,12,,,71,127
9066,note_off,95,0,0,,0,,,72,127
9086,note_on,20,0,0,,2,,,74,127
9181,note_off,95,0,0,,12,,,71,127
9200,note_off,19,0,0,,2,,,74,127
9201,note_on,1,0,0,,0,,,72,127
9431,note_on,230,0,0,,5,,,77,127
9660,note_off,229,0,0,,0,,,72,127
9661,note_on,1,0,0,,0,,,60,127
9890,note_off,229,0,0,,5,,,77,127
9891,note_on,1,0,0,,4,,,76,127
10120,note_off,229,0,0,,0,,,60,127
10121,note_off,1,0,0,,4,,,76,127
10121,note_on,0,0,0,,2,,,62,127
10236,note_on,115,0,0,,5,,,65,127
10331,note_off,95,0,0,,2,,,62,127
10351,note_on,20,0,0,,4,,,64,127
10446,note_off,95,0,0,,5,,,65,127
10466,note_on,20,0,0,,7,,,67,127
10561,note_off,95,0,0,,4,,,64,127
10581,note_on,20,0,0,,5,,,65,127
10676,note_off,95,0,0,,7,,,67,127
10696,note_on,20,0,0,,10,,,69,127
10791,note_off,95,0,0,,5,,,65,127
10811,note_on,20,0,0,,7,,,67,127
10906,note_off,95,0,0,,10,,,69,127
10926,note_on,20,0,0,,11,,,70,127
11021,note_off,95,0,0,,7,,,67,127
11040,note_off,19,0,0,,11,,,70,127
11041,note_on,1,0,0,,10,,,69,127
11271,note_on,230,0,0,,2,,,74,127
11500,note_off,229,0,0,,10,,,69,127
11501,note_on,1,0,0,,10,,,57,127
11730,note_off,229,0,0,,2,,,74,127
11731,note_on,1,0,0,,0,,,72,127
11960,note_off,229,0,0,,10,,,57,127
11961,note_off,1,0,0,,0,,,72,127
11961,note_on,0,0,0,,11,,,58,127
12076,note_on,115,0,0,,2,,,62,127
12171,note_off,95,0,0,,11,,,58,127
12191,note_on,20,0,0,,0,,,60,127
12286,note_off,95,0,0,,2,,,62,127
12306,note_on,20,0,0,,4,,,64,127
12401,note_off,95,0,0,,0,,,60,127
12421,note_on,20,0,0,,2,,,62,127
12516,note_off,95,0,0,,4,,,64,127
12536,note_on,20,0,0,,5,,,65,127
12631,note_off,95,0,0,,2,,,62,127
12651,note_on,20,0,0,,4,,,64,127
12746,note_off,95,0,0,,5,,,65,127
12766,note_on,20,0,0,,7,,,67,127
12861,note_off,95,0,0,,4,,,64,127
12880,note_off,19,0,0,,7,,,67,127
12881,note_on,1,0,0,,5,,,65,127
13111,note_on,230,0,0,,11,,,70,127
13340,note_off,229,0,0,,5,,,65,127
13341,note_on,1,0,0,,5,,,53,127
13570,note_off,229,0,0,,11,,,70,127
13571,note_on,1,0,0,,10,,,69,127
13775,note_off,204,0,0,,10,,,69,127
13800,note_off,25,0,0,,5,,,53,127
13801,note_on,1,0,0,,10,,,69,127
13801,note_on,0,0,0,,5,,,65,127
13915,note_off,114,0,0,,10,,,69,127
13916,note_on,1,0,0,,7,,,67,127
14030,note_off,114,0,0,,7,,,67,127
14031,note_on,1,0,0,,10,,,69,127
14145,note_off,114,0,0,,10,,,69,127
14146,note_on,1,0,0,,2,,,74,127
14260,note_off,114,0,0,,2,,,74,127
14260,note_off,0,0,0,,5,,,65,127
14261,note_on,1,0,0,,0,,,72,127
14261,note_on,0,0,0,,4,,,64,127
14375,note_off,114,0,0,,0,,,72,127
14376,note_on,1,0,0,,12,,,71,127
14490,note_off,114,0,0,,12,,,71,127
14491,note_on,1,0,0,,0,,,72,127
14605,note_off,114,0,0,,0,,,72,127
14606,note_on,1,0,0,,7,,,79,127
14720,note_off,114,0,0,,7,,,79,127
14720,note_off,0,0,0,,4,,,64,127
14721,note_on,1,0,0,,5,,,77,127
14721,note_on,0,0,0,,2,,,62,127
14835,note_off,114,0,0,,5,,,77,127
14836,note_on,1,0,0,,4,,,76,127
14950,note_off,114,0,0,,4,,,76,127
14951,note_on,1,0,0,,5,,,77,127
15065,note_off,114,0,0,,5,,,77,127
15066,note_on,1,0,0,,2,,,86,127
15180,note_off,114,0,0,,2,,,86,127
15180,note_off,0,0,0,,2,,,62,127
15181,note_on,1,0,0,,4,,,76,127
15181,note_on,0,0,0,,0,,,60,127
15295,note_off,114,0,0,,4,,,76,127
15296,note_on,1,0,0,,2,,,74,127
15410,note_off,114,0,0,,2,,,74,127
15411,note_on,1,0,0,,4,,,76,127
15525,note_off,114,0,0,,4,,,76,127
15526,note_on,1,0,0,,0,,,84,127
15640,note_off,114,0,0,,0,,,84,127
15640,note_off,0,0,0,,0,,,60,127
15641,note_on,1,0,0,,2,,,74,127
15641,note_on,0,0,0,,5,,,65,127
15755,note_off,114,0,0,,2,,,74,127
15756,note_on,1,0,0,,0,,,72,127
15870,note_off,114,0,0,,0,,,72,127
15871,note_on,1,0,0,,2,,,74,127
15985,note_off,114,0,0,,2,,,74,127
15986,note_on,1,0,0,,12,,,83,127
16100,note_off,114,0,0,,12,,,83,127
16100,note_off,0,0,0,,5,,,65,127
16101,note_on,1,0,0,,0,,,72,127
16101,note_on,0,0,0,,6,,,66,127
16215,note_off,114,0,0,,0,,,72,127
16216,note_on,1,0,0,,12,,,71,127
16330,note_off,114,0,0,,12,,,71,127
16331,note_on,1,0,0,,0,,,72,127
16445,note_off,114,0,0,,0,,,72,127
16446,note_on,1,0,0,,10,,,81,127
16560,note_off,114,0,0,,10,,,81,127
16560,note_off,0,0,0,,6,,,66,127
16561,note_on,1,0,0,,2,,,74,127
16561,note_on,0,0,0,,7,,,67,127
16619,note_on,58,0,0,,0,,,72,127
16638,note_off,19,0,0,,2,,,74,127
16676,note_on,38,0,0,,2,,,74,127
16695,note_off,19,0,0,,0,,,72,127
16733,note_on,38,0,0,,0,,,72,127
16752,note_off,19,0,0,,2,,,74,127
16790,note_on,38,0,0,,2,,,74,127
16809,note_off,19,0,0,,0,,,72,127
16847,note_on,38,0,0,,0,,,72,127
16866,note_off,19,0,0,,2,,,74,127
16904,note_on,38,0,0,,12,,,71,127
16923,note_off,19,0,0,,0,,,72,127
16961,note_on,38,0,0,,0,,,72,127
16980,note_off,19,0,0,,12,,,71,127
17017,note_off,37,0,0,,0,,,72,127
17018,note_on,1,0,0,,12,,,71,127
17018,note_on,0,0,0,,7,,,55,127
17132,note_off,114,0,0,,12,,,71,127
17133,note_on,1,0,0,,7,,,79,127
17247,note_off,114,0,0,,7,,,79,127
17248,note_on,1,0,0,,5,,,77,127
17362,note_off,114,0,0,,5,,,77,127
17363,note_off,1,0,0,,7,,,55,127
17363,note_on,0,0,0,,7,,,79,127
17477,note_off,114,0,0,,7,,,79,127
17477,note_off,0,0,0,,7,,,67,127
17478,note_on,1,0,0,,4,,,76,127
17478,note_on,0,0,0,,0,,,72,127
17592,note_off,114,0,0,,4,,,76,127
17593,note_on,1,0,0,,2,,,74,127
17707,note_off,114,0,0,,2,,,74,127
17708,note_on,1,0,0,,4,,,76,127
17822,note_off,114,0,0,,4,,,76,127
17823,note_on,1,0,0,,7,,,79,127
17937,note_off,114,0,0,,7,,,79,127
17937,note_off,0,0,0,,0,,,72,127
17938,note_on,1,0,0,,2,,,74,127
17938,note_on,0,0,0,,12,,,71,127
18052,note_off,114,0,0,,2,,,74,127
18053,note_on,1,0,0,,0,,,72,127
18167,note_off,114,0,0,,0,,,72,127
18168,note_on,1,0,0,,2,,,74,127
18282,note_off,114,0,0,,2,,,74,127
18283,note_on,1,0,0,,7,,,79,127
18397,note_off,114,0,0,,7,,,79,127
18397,note_off,0,0,0,,12,,,71,127
18398,note_on,1,0,0,,0,,,72,127
18398,note_on,0,0,0,,10,,,69,127
18512,note_off,114,0,0,,0,,,72,127
18513,note_on,1,0,0,,12,,,71,127
18627,note_off,114,0,0,,12,,,71,127
18628,note_on,1,0,0,,0,,,72,127
18742,note_off,114,0,0,,0,,,72,127
18743,note_on,1,0,0,,7,,,79,127
18857,note_off,114,0,0,,7,,,79,127
18857,note_off,0,0,0,,10,,,69,127
18858,note_on,1,0,0,,12,,,71,127
18858,note_on,0,0,0,,7,,,67,127
18972,note_off,114,0,0,,12,,,71,127
18973,note_on,1,0,0,,10,,,69,127
19087,note_off,114,0,0,,10,,,69,127
19088,note_on,1,0,0,,12,,,71,127
19202,note_off,114,0,0,,12,,,71,127
19203,note_on,1,0,0,,7,,,79,127
19317,note_off,114,0,0,,7,,,79,127
19317,note_off,0,0,0,,7,,,67,127
19318,note_on,1,0,0,,10,,,69,127
19318,note_on,0,0,0,,5,,,65,127
19432,note_off,114,0,0,,10,,,69,127
19433,note_on,1,0,0,,7,,,67,127
19547,note_off,114,0,0,,7,,,67,127
19548,note_on,1,0,0,,10,,,69,127
19662,note_off,114,0,0,,10,,,69,127
19663,note_on,1,0,0,,7,,,79,127
19777,note_off,114,0,0,,7,,,79,127
19777,note_off,0,0,0,,5,,,65,127
19778,note_on,1,0,0,,7,,,67,127
19778,note_on,0,0,0,,4,,,64,127
19892,note_off,114,0,0,,7,,,67,127
19893,note_on,1,0,0,,7,,,79,127
20007,note_off,114,0,0,,7,,,79,127
20008,note_on,1,0,0,,5,,,77,127
20122,note_off,114,0,0,,5,,,77,127
20123,note_on,1,0,0,,7,,,79,127
20237,note_off,114,0,0,,7,,,79,127
20237,note_off,0,0,0,,4,,,64,127
20238,note_on,1,0,0,,10,,,81,127
20238,note_on,0,0,0,,5,,,65,127
20352,note_off,114,0,0,,10,,,81,127
20353,note_on,1,0,0,,4,,,76,127
20467,note_off,114,0,0,,4,,,76,127
20468,note_on,1,0,0,,5,,,77,127
20582,note_off,114,0,0,,5,,,77,127
20583,note_on,1,0,0,,0,,,72,127
20697,note_off,114,0,0,,0,,,72,127
20697,note_off,0,0,0,,5,,,65,127
20698,note_on,1,0,0,,2,,,74,127
20698,note_on,0,0,0,,6,,,66,127
20812,note_off,114,0,0,,2,,,74,127
20813,note_on,1,0,0,,12,,,71,127
20927,note_off,114,0,0,,12,,,71,127
20928,note_on,1,0,0,,0,,,72,127
21042,note_off,114,0,0,,0,,,72,127
21043,note_on,1,0,0,,10,,,69,127
21157,note_off,114,0,0,,10,,,69,127
21157,note_off,0,0,0,,6,,,66,127
21158,note_on,1,0,0,,2,,,74,127
21158,note_on,0,0,0,,7,,,67,127
21216,note_on,58,0,0,,0,,,72,127
21235,note_off,19,0,0,,2,,,74,127
21273,note_on,38,0,0,,2,,,74,127
21292,note_off,19,0,0,,0,,,72,127
21330,note_on,38,0,0,,0,,,72,127
21349,note_off,19,0,0,,2,,,74,127
21386,note_off,37,0,0,,7,,,67,127
21387,note_on,1,0,0,,2,,,74,127
21387,note_on,0,0,0,,7,,,55,127
21406,note_off,19,0,0,,0,,,72,127
21444,note_on,38,0,0,,0,,,72,127
21463,note_off,19,0,0,,2,,,74,127
21501,note_on,38,0,0,,12,,,71,127
21520,note_off,19,0,0,,0,,,72,127
21558,note_on,38,0,0,,0,,,72,127
21577,note_off,19,0,0,,12,,,71,127
21614,note_off,37,0,0,,0,,,72,127
21615,note_on,1,0,0,,12,,,71,127
21729,note_off,114,0,0,,7,,,55,127
21730,note_on,1,0,0,,7,,,67,127
21844,note_off,114,0,0,,7,,,67,127
21844,note_off,0,0,0,,12,,,71,127
21845,note_on,1,0,0,,5,,,65,127
21959,note_off,114,0,0,,5,,,65,127
21960,note_on,1,0,0,,7,,,67,127
22074,note_off,114,0,0,,7,,,67,127
22075,note_on,1,0,0,,7,,,79,127
22075,note_on,0,0,0,,4,,,64,127
22113,note_on,38,0,0,,5,,,77,127
22132,note_off,19,0,0,,7,,,79,127
22151,note_on,19,0,0,,7,,,79,127
22170,note_off,19,0,0,,5,,,77,127
22188,note_off,18,0,0,,4,,,64,127
22189,note_on,1,0,0,,2,,,62,127
22303,note_off,114,0,0,,2,,,62,127
22304,note_on,1,0,0,,4,,,64,127
22418,note_off,114,0,0,,4,,,64,127
22419,note_on,1,0,0,,7,,,67,127
22533,note_off,114,0,0,,7,,,67,127
22533,note_off,0,0,0,,7,,,79,127
22534,note_on,1,0,0,,5,,,77,127
22534,note_on,0,0,0,,2,,,62,127
22572,note_on,38,0,0,,4,,,76,127
22591,note_off,19,0,0,,5,,,77,127
22610,note_on,19,0,0,,5,,,77,127
22629,note_off,19,0,0,,4,,,76,127
22647,note_off,18,0,0,,2,,,62,127
22648,note_on,1,0,0,,0,,,60,127
22762,note_off,114,0,0,,0,,,60,127
22763,note_on,1,0,0,,2,,,62,127
22877,note_off,114,0,0,,2,,,62,127
22878,note_on,1,0,0,,7,,,67,127
22992,note_off,114,0,0,,7,,,67,127
22992,note_off,0,0,0,,5,,,77,127
22993,note_on,1,0,0,,4,,,76,127
22993,note_on,0,0,0,,0,,,60,127
23031,note_on,38,0,0,,2,,,74,127
23050,note_off,19,0,0,,4,,,76,127
23069,note_on,19,0,0,,4,,,76,127
23088,note_off,19,0,0,,2,,,74,127
23106,note_off,18,0,0,,0,,,60,127
23107,note_on,1,0,0,,12,,,59,127
23221,note_off,114,0,0,,12,,,59,127
23222,note_on,1,0,0,,0,,,60,127
23336,note_off,114,0,0,,0,,,60,127
23337,note_on,1,0,0,,7,,,67,127
23451,note_off,114,0,0,,7,,,67,127
23451,note_off,0,0,0,,4,,,76,127
23452,note_on,1,0,0,,2,,,74,127
23452,note_on,0,0,0,,12,,,59,127
23490,note_on,38,0,0,,0,,,72,127
23509,note_off,19,0,0,,2,,,74,127
23528,note_on,19,0,0,,2,,,74,127
23547,note_off,19,0,0,,0,,,72,127
23565,note_off,18,0,0,,12,,,59,127
23566,note_on,1,0,0,,10,,,57,127
23680,note_off,114,0,0,,10,,,57,127
23681,note_on,1,0,0,,12,,,59,127
23795,note_off,114,0,0,,12,,,59,127
23796,note_on,1,0,0,,7,,,67,127
23910,note_off,114,0,0,,7,,,67,127
23910,note_off,0,0,0,,2,,,74,127
23911,note_on,1,0,0,,0,,,72,127
23911,note_on,0,0,0,,10,,,57,127
23949,note_on,38,0,0,,12,,,71,127
23968,note_off,19,0,0,,0,,,72,127
23987,note_on,19,0,0,,0,,,72,127
24006,note_off,19,0,0,,12,,,71,127
24024,note_off,18,0,0,,10,,,57,127
24025,note_on,1,0,0,,7,,,55,127
24139,note_off,114,0,0,,7,,,55,127
24140,note_on,1,0,0,,10,,,57,127
24254,note_off,114,0,0,,10,,,57,127
24255,note_on,1,0,0,,7,,,67,127
24369,note_off,114,0,0,,7,,,67,127
24369,note_off,0,0,0,,0,,,72,127
24370,note_on,1,0,0,,12,,,71,127
24370,note_on,0,0,0,,7,,,55,127
24408,note_on,38,0,0,,10,,,69,127
24427,note_off,19,0,0,,12,,,71,127
24446,note_on,19,0,0,,12,,,71,127
24465,note_off,19,0,0,,10,,,69,127
24483,note_off,18,0,0,,7,,,55,127
24484,note_on,1,0,0,,5,,,65,127
24598,note_off,114,0,0,,5,,,65,127
24599,note_on,1,0,0,,4,,,64,127
24713,note_off,114,0,0,,4,,,64,127
24714,note_on,1,0,0,,2,,,62,127
24828,note_off,114,0,0,,2,,,62,127
24828,note_off,0,0,0,,12,,,71,127
24829,note_on,1,0,0,,0,,,72,127
24829,note_on,0,0,0,,4,,,64,127
24943,note_off,114,0,0,,0,,,72,127
24944,note_on,1,0,0,,2,,,74,127
25058,note_off,114,0,0,,2,,,74,127
25059,note_on,1,0,0,,4,,,76,127
25173,note_off,114,0,0,,4,,,76,127
25174,note_on,1,0,0,,5,,,77,127
25288,note_off,114,0,0,,5,,,77,127
25288,note_off,0,0,0,,4,,,64,127
25289,note_on,1,0,0,,7,,,79,127
25289,note_on,0,0,0,,5,,,65,127
25403,note_off,114,0,0,,7,,,79,127
25404,note_on,1,0,0,,10,,,81,127
25518,note_off,114,0,0,,10,,,81,127
25519,note_on,1,0,0,,12,,,83,127
25633,note_off,114,0,0,,12,,,83,127
25634,note_on,1,0,0,,0,,,84,127
25748,note_off,114,0,0,,0,,,84,127
25748,note_off,0,0,0,,5,,,65,127
25749,note_on,1,0,0,,0,,,72,127
25749,note_on,0,0,0,,7,,,67,127
25922,note_off,173,0,0,,0,,,72,127
25922,note_on,0,0,0,,2,,,74,127
25980,note_on,58,0,0,,0,,,72,127
25999,note_off,19,0,0,,2,,,74,127
26037,note_on,38,0,0,,12,,,71,127
26056,note_off,19,0,0,,0,,,72,127
26094,note_on,38,0,0,,0,,,72,127
26113,note_off,19,0,0,,12,,,71,127
26151,note_on,38,0,0,,2,,,74,127
26170,note_off,19,0,0,,0,,,72,127
26207,note_off,37,0,0,,7,,,67,127
26208,note_on,1,0,0,,4,,,76,127
26208,note_on,0,0,0,,7,,,55,127
26227,note_off,19,0,0,,2,,,74,127
26265,note_on,38,0,0,,2,,,74,127
26284,note_off,19,0,0,,4,,,76,127
26322,note_on,38,0,0,,4,,,76,127
26341,note_off,19,0,0,,2,,,74,127
26379,note_on,38,0,0,,2,,,74,127
26398,note_off,19,0,0,,4,,,76,127
26436,note_on,38,0,0,,4,,,76,127
26455,note_off,19,0,0,,2,,,74,127
26493,note_on,38,0,0,,2,,,74,127
26512,note_off,19,0,0,,4,,,76,127
26550,note_on,38,0,0,,0,,,72,127
26569,note_off,19,0,0,,2,,,74,127
26664,note_off,95,0,0,,0,,,72,127
26664,note_off,0,0,0,,7,,,55,127
26665,note_on,1,0,0,,0,,,72,127
26665,note_on,0,0,0,,0,,,48,127
27241,note_off,576,0,0,,0,,,48,127
27355,note_off,114,0,0,,0,,,72,127
27356,note_on,1,0,0,,4,,,64,127
27471,note_on,115,0,0,,7,,,67,127
27566,note_off,95,0,0,,4,,,64,127
27586,note_on,20,0,0,,5,,,65,127
27681,note_off,95,0,0,,7,,,67,127
27701,note_on,20,0,0,,10,,,69,127
27796,note_off,95,0,0,,5,,,65,127
27816,note_on,20,0,0,,7,,,67,127
27911,note_off,95,0,0,,10,,,69,127
27931,note_on,20,0,0,,12,,,71,127
28026,note_off,95,0,0,,7,,,67,127
28046,note_on,20,0,0,,10,,,69,127
28141,note_off,95,0,0,,12,,,71,127
28161,note_on,20,0,0,,0,,,72,127
28256,note_off,95,0,0,,10,,,69,127
28276,note_on,20,0,0,,12,,,71,127
28371,note_off,95,0,0,,0,,,72,127
28391,note_on,20,0,0,,2,,,74,127
28486,note_off,95,0,0,,12,,,71,127
28505,note_off,19,0,0,,2,,,74,127
28506,note_on,1,0,0,,0,,,72,127
28736,note_on,230,0,0,,5,,,77,127
28965,note_off,229,0,0,,0,,,72,127
28966,note_on,1,0,0,,0,,,60,127
29195,note_off,229,0,0,,5,,,77,127
29196,note_on,1,0,0,,4,,,76,127
29310,note_off,114,0,0,,4,,,76,127
29311,note_on,1,0,0,,7,,,67,127
29425,note_off,114,0,0,,0,,,60,127
29426,note_on,1,0,0,,5,,,65,127
29521,note_off,95,0,0,,7,,,67,127
29541,note_on,20,0,0,,10,,,69,127
29636,note_off,95,0,0,,5,,,65,127
29656,note_on,20,0,0,,7,,,67,127
29751,note_off,95,0,0,,10,,,69,127
29771,note_on,20,0,0,,12,,,71,127
29866,note_off,95,0,0,,7,,,67,127
29886,note_on,20,0,0,,10,,,69,127
29981,note_off,95,0,0,,12,,,71,127
30001,note_on,20,0,0,,0,,,72,127
30096,note_off,95,0,0,,10,,,69,127
30116,note_on,20,0,0,,12,,,71,127
30211,note_off,95,0,0,,0,,,72,127
30231,note_on,20,0,0,,2,,,74,127
30326,note_off,95,0,0,,12,,,71,127
30345,note_off,19,0,0,,2,,,74,127
30346,note_on,1,0,0,,0,,,72,127
30576,note_on,230,0,0,,5,,,77,127
30576,note_on,0,0,0,,10,,,81,127
30805,note_off,229,0,0,,0,,,72,127
30806,note_on,1,0,0,,0,,,60,127
31035,note_off,229,0,0,,10,,,81,127
31035,note_off,0,0,0,,5,,,77,127
31036,note_on,1,0,0,,4,,,76,127
31036,note_on,0,0,0,,7,,,79,127
31150,note_off,114,0,0,,7,,,79,127
31150,note_off,0,0,0,,4,,,76,127
31151,note_on,1,0,0,,7,,,67,127
31265,note_off,114,0,0,,0,,,60,127
31266,note_on,1,0,0,,5,,,65,127
31361,note_off,95,0,0,,7,,,67,127
31381,note_on,20,0,0,,10,,,69,127
31476,note_off,95,0,0,,5,,,65,127
31496,note_on,20,0,0,,7,,,67,127
31591,note_off,95,0,0,,10,,,69,127
31611,note_on,20,0,0,,12,,,71,127
31706,note_off,95,0,0,,7,,,67,127
31726,note_on,20,0,0,,10,,,69,127
31821,note_off,95,0,0,,12,,,71,127
31841,note_on,20,0,0,,0,,,72,127
31936,note_off,95,0,0,,10,,,69,127
31956,note_on,20,0,0,,12,,,71,127
32051,note_off,95,0,0,,0,,,72,127
32071,note_on,20,0,0,,2,,,74,127
32166,note_off,95,0,0,,12,,,71,127
32185,note_off,19,0,0,,2,,,74,127
32186,note_on,1,0,0,,0,,,72,127
32416,note_on,230,0,0,,2,,,86,127
32416,note_on,0,0,0,,5,,,77,127
32645,note_off,229,0,0,,0,,,72,127
32646,note_on,1,0,0,,0,,,60,127
32875,note_off,229,0,0,,5,,,77,127
32875,note_off,0,0,0,,2,,,86,127
32876,note_on,1,0,0,,0,,,84,127
32876,note_on,0,0,0,,4,,,76,127
32990,note_off,114,0,0,,0,,,84,127
32991,note_on,1,0,0,,7,,,79,127
33104,note_off,113,0,0,,4,,,76,127
33105,note_off,1,0,0,,7,,,79,127
33105,note_off,0,0,0,,0,,,60,127
33106,note_on,1,0,0,,10,,,81,127
33106,note_on,0,0,0,,5,,,65,127
33220,note_off,114,0,0,,10,,,81,127
33221,note_on,1,0,0,,4,,,76,127
33335,note_off,114,0,0,,4,,,76,127
33336,note_on,1,0,0,,5,,,77,127
33450,note_off,114,0,0,,5,,,77,127
33451,note_on,1,0,0,,2,,,74,127
33565,note_off,114,0,0,,2,,,74,127
33565,note_off,0,0,0,,5,,,65,127
33566,note_on,1,0,0,,0,,,72,127
33566,note_on,0,0,0,,7,,,67,127
33776,note_off,210,0,0,,0,,,72,127
33796,note_on,20,0,0,,0,,,72,127
33852,note_off,56,0,0,,0,,,72,127
33853,note_on,1,0,0,,12,,,71,127
33909,note_off,56,0,0,,12,,,71,127
33910,note_on,1,0,0,,10,,,69,127
33966,note_off,56,0,0,,10,,,69,127
33967,note_on,1,0,0,,12,,,71,127
34023,note_off,56,0,0,,12,,,71,127
34023,note_off,0,0,0,,7,,,67,127
34024,note_on,1,0,0,,12,,,71,127
34024,note_on,0,0,0,,0,,,60,127
34254,note_on,230,0,0,,0,,,72,127
34258,note_off,4,0,0,,12,,,71,127
34600,note_off,342,0,0,,0,,,72,127
34714,note_off,114,0,0,,0,,,60,127
34715,note_on,1,0,0,,4,,,64,127
34830,note_on,115,0,0,,7,,,67,127
34925,note_off,95,0,0,,4,,,64,127
34945,note_on,20,0,0,,5,,,65,127
35040,note_off,95,0,0,,7,,,67,127
35060,note_on,20,0,0,,10,,,69,127
35155,note_off,95,0,0,,5,,,65,127
35175,note_on,20,0,0,,7,,,67,127
35270,note_off,95,0,0,,10,,,69,127
35290,note_on,20,0,0,,12,,,71,127
35385,note_off,95,0,0,,7,,,67,127
35405,note_on,20,0,0,,10,,,69,127
35500,note_off,95,0,0,,12,,,71,127
35520,note_on,20,0,0,,0,,,72,127
35615,note_off,95,0,0,,10,,,69,127
35635,note_on,20,0,0,,12,,,71,127
35730,note_off,95,0,0,,0,,,72,127
35750,note_on,20,0,0,,2,,,74,127
35845,note_off,95,0,0,,12,,,71,127
35864,note_off,19,0,0,,2,,,74,127
35865,note_on,1,0,0,,0,,,72,127
36095,note_on,230,0,0,,5,,,77,127
36324,note_off,229,0,0,,0,,,72,127
36325,note_on,1,0,0,,0,,,60,127
36554,note_off,229,0,0,,5,,,77,127
36555,note_on,1,0,0,,4,,,76,127
36669,note_off,114,0,0,,4,,,76,127
36670,note_on,1,0,0,,7,,,67,127
36784,note_off,114,0,0,,0,,,60,127
36785,note_on,1,0,0,,5,,,65,127
36880,note_off,95,0,0,,7,,,67,127
36900,note_on,20,0,0,,10,,,69,127
36995,note_off,95,0,0,,5,,,65,127
37015,note_on,20,0,0,,7,,,67,127
37110,note_off,95,0,0,,10,,,69,127
37130,note_on,20,0,0,,12,,,71,127
37225,note_off,95,0,0,,7,,,67,127
37245,note_on,20,0,0,,10,,,69,127
37340,note_off,95,0,0,,12,,,71,127
37360,note_on,20,0,0,,0,,,72,127
37455,note_off,95,0,0,,10,,,69,127
37475,note_on,20,0,0,,12,,,71,127
37570,note_off,95,0,0,,0,,,72,127
37590,note_on,20,0,0,,2,,,74,127
37685,note_off,95,0,0,,12,,,71,127
37704,note_off,19,0,0,,2,,,74,127
37705,note_on,1,0,0,,0,,,72,127
37935,note_on,230,0,0,,10,,,81,127
37935,note_on,0,0,0,,5,,,77,127
38164,note_off,229,0,0,,0,,,72,127
38165,note_on,1,0,0,,0,,,60,127
38394,note_off,229,0,0,,5,,,77,127
38394,note_off,0,0,0,,10,,,81,127
38395,note_on,1,0,0,,4,,,76,127
38395,note_on,0,0,0,,7,,,79,127
38509,note_off,114,0,0,,7,,,79,127
38509,note_off,0,0,0,,4,,,76,127
38510,note_on,1,0,0,,7,,,67,127
38624,note_off,114,0,0,,0,,,60,127
38625,note_on,1,0,0,,5,,,65,127
38720,note_off,95,0,0,,7,,,67,127
38740,note_on,20,0,0,,10,,,69,127
38835,note_off,95,0,0,,5,,,65,127
38855,note_on,20,0,0,,7,,,67,127
38950,note_off,95,0,0,,10,,,69,127
38970,note_on,20,0,0,,12,,,71,127
39065,note_off,95,0,0,,7,,,67,127
39085,note_on,20,0,0,,10,,,69,127
39180,note_off,95,0,0,,12,,,71,127
39200,note_on,20,0,0,,0,,,72,127
39295,note_off,95,0,0,,10,,,69,127
39315,note_on,20,0,0,,12,,,71,127
39410,note_off,95,0,0,,0,,,72,127
39430,note_on,20,0,0,,2,,,74,127
39525,note_off,95,0,0,,12,,,71,127
39544,note_off,19,0,0,,2,,,74,127
39545,note_on,1,0,0,,0,,,72,127
39775,note_on,230,0,0,,5,,,77,127
39775,note_on,0,0,0,,2,,,86,127
40004,note_off,229,0,0,,0,,,72,127
40005,note_on,1,0,0,,0,,,60,127
40234,note_off,229,0,0,,2,,,86,127
40234,note_off,0,0,0,,5,,,77,127
40235,note_on,1,0,0,,0,,,84,127
40235,note_on,0,0,0,,4,,,76,127
40349,note_off,114,0,0,,0,,,84,127
40350,note_on,1,0,0,,7,,,79,127
40463,note_off,113,0,0,,4,,,76,127
40464,note_off,1,0,0,,7,,,79,127
40464,note_off,0,0,0,,0,,,60,127
40465,note_on,1,0,0,,10,,,81,127
40465,note_on,0,0,0,,5,,,65,127
40579,note_off,114,0,0,,10,,,81,127
40580,note_on,1,0,0,,4,,,76,127
40694,note_off,114,0,0,,4,,,76,127
40695,note_on,1,0,0,,5,,,77,127
40809,note_off,114,0,0,,5,,,77,127
40810,note_on,1,0,0,,2,,,74,127
40924,note_off,114,0,0,,2,,,74,127
40924,note_off,0,0,0,,5,,,65,127
40925,note_on,1,0,0,,0,,,72,127
40925,note_on,0,0,0,,7,,,67,127
41154,note_off,229,0,0,,0,,,72,127
41155,note_on,1,0,0,,12,,,71,127
41193,note_on,38,0,0,,0,,,72,127
41211,note_off,18,0,0,,12,,,71,127
41231,note_on,20,0,0,,12,,,71,127
41249,note_off,18,0,0,,0,,,72,127
41383,note_off,134,0,0,,7,,,67,127
41384,note_off,1,0,0,,12,,,71,127
41384,note_on,0,0,0,,0,,,72,127
41384,note_on,0,0,0,,0,,,60,127
41498,note_off,114,0,0,,0,,,72,127
41499,note_on,1,0,0,,12,,,71,127
41613,note_off,114,0,0,,12,,,71,127
41614,note_on,1,0,0,,0,,,72,127
41728,note_off,114,0,0,,0,,,72,127
41729,note_on,1,0,0,,10,,,81,127
41843,note_off,114,0,0,,10,,,81,127
41843,note_off,0,0,0,,0,,,60,127
41844,note_on,1,0,0,,0,,,72,127
41844,note_on,0,0,0,,6,,,54,127
41958,note_off,114,0,0,,0,,,72,127
41959,note_on,1,0,0,,12,,,71,127
42073,note_off,114,0,0,,12,,,71,127
42074,note_on,1,0,0,,0,,,72,127
42188,note_off,114,0,0,,0,,,72,127
42189,note_on,1,0,0,,10,,,81,127
42303,note_off,114,0,0,,10,,,81,127
42303,note_off,0,0,0,,6,,,54,127
42304,note_on,1,0,0,,2,,,74,127
42304,note_on,0,0,0,,5,,,53,127
42418,note_off,114,0,0,,2,,,74,127
42419,note_on,1,0,0,,0,,,72,127
42533,note_off,114,0,0,,0,,,72,127
42534,note_on,1,0,0,,2,,,74,127
42648,note_off,114,0,0,,2,,,74,127
42649,note_on,1,0,0,,12,,,83,127
42763,note_off,114,0,0,,12,,,83,127
42763,note_off,0,0,0,,5,,,53,127
42764,note_on,1,0,0,,0,,,84,127
42764,note_on,0,0,0,,4,,,52,127
42878,note_off,114,0,0,,0,,,84,127
42879,note_on,1,0,0,,7,,,79,127
42993,note_off,114,0,0,,7,,,79,127
42994,note_on,1,0,0,,4,,,76,127
43108,note_off,114,0,0,,4,,,76,127
43109,note_on,1,0,0,,0,,,72,127
43223,note_off,114,0,0,,0,,,72,127
43223,note_off,0,0,0,,4,,,52,127
43224,note_on,1,0,0,,10,,,81,127
43224,note_on,0,0,0,,5,,,53,127
43338,note_off,114,0,0,,10,,,81,127
43339,note_on,1,0,0,,5,,,77,127
43453,note_off,114,0,0,,5,,,77,127
43454,note_on,1,0,0,,2,,,74,127
43568,note_off,114,0,0,,2,,,74,127
43569,note_on,1,0,0,,10,,,69,127
43683,note_off,114,0,0,,10,,,69,127
43683,note_off,0,0,0,,5,,,53,127
43684,note_on,1,0,0,,0,,,72,127
43684,note_on,0,0,0,,7,,,55,127
43913,note_off,229,0,0,,0,,,72,127
43914,note_on,1,0,0,,12,,,71,127
43952,note_on,38,0,0,,0,,,72,127
43970,note_off,18,0,0,,12,,,71,127
43990,note_on,20,0,0,,12,,,71,127
44008,note_off,18,0,0,,0,,,72,127
44103,note_off,95,0,0,,7,,,55,127
44144,note_off,41,0,0,,12,,,71,127
44144,note_on,0,0,0,,0,,,72,127
44144,note_on,0,0,0,,0,,,60,127
44258,note_off,114,0,0,,0,,,72,127
44259,note_on,1,0,0,,12,,,71,127
44373,note_off,114,0,0,,12,,,71,127
44374,note_on,1,0,0,,0,,,72,127
44489,note_on,115,0,0,,10,,,81,127
44542,note_off,53,0,0,,0,,,72,127
44603,note_off,61,0,0,,10,,,81,127
44603,note_off,0,0,0,,0,,,60,127
44604,note_on,1,0,0,,0,,,72,127
44604,note_on,0,0,0,,6,,,54,127
44718,note_off,114,0,0,,0,,,72,127
44719,note_on,1,0,0,,12,,,71,127
44833,note_off,114,0,0,,12,,,71,127
44834,note_on,1,0,0,,0,,,72,127
44949,note_on,115,0,0,,10,,,81,127
45002,note_off,53,0,0,,0,,,72,127
45063,note_off,61,0,0,,10,,,81,127
45063,note_off,0,0,0,,6,,,54,127
45064,note_on,1,0,0,,2,,,74,127
45064,note_on,0,0,0,,5,,,53,127
45178,note_off,114,0,0,,2,,,74,127
45179,note_on,1,0,0,,0,,,72,127
45293,note_off,114,0,0,,0,,,72,127
45294,note_on,1,0,0,,2,,,74,127
45408,note_off,114,0,0,,2,,,74,127
45409,note_on,1,0,0,,12,,,83,127
45523,note_off,114,0,0,,12,,,83,127
45523,note_off,0,0,0,,5,,,53,127
45524,note_on,1,0,0,,0,,,84,127
45524,note_on,0,0,0,,4,,,52,127
45638,note_off,114,0,0,,0,,,84,127
45639,note_on,1,0,0,,7,,,79,127
45753,note_off,114,0,0,,7,,,79,127
45754,note_on,1,0,0,,4,,,76,127
45868,note_off,114,0,0,,4,,,76,127
45869,note_on,1,0,0,,0,,,72,127
45983,note_off,114,0,0,,0,,,72,127
45983,note_off,0,0,0,,4,,,52,127
45984,note_on,1,0,0,,10,,,81,127
45984,note_on,0,0,0,,5,,,41,127
45984,note_on,0,0,0,,5,,,53,127
46098,note_off,114,0,0,,10,,,81,127
46099,note_on,1,0,0,,5,,,77,127
46213,note_off,114,0,0,,5,,,77,127
46214,note_on,1,0,0,,2,,,74,127
46328,note_off,114,0,0,,2,,,74,127
46329,note_on,1,0,0,,10,,,69,127
46443,note_off,114,0,0,,10,,,69,127
46443,note_off,0,0,0,,5,,,53,127
46443,note_off,0,0,0,,5,,,41,127
46444,note_on,1,0,0,,0,,,72,127
46444,note_on,0,0,0,,7,,,43,127
46444,note_on,0,0,0,,7,,,55,127
46673,note_off,229,0,0,,0,,,72,127
46674,note_on,1,0,0,,0,,,72,127
46730,note_off,56,0,0,,0,,,72,127
46731,note_on,1,0,0,,12,,,71,127
46787,note_off,56,0,0,,12,,,71,127
46788,note_on,1,0,0,,10,,,69,127
46844,note_off,56,0,0,,10,,,69,127
46845,note_on,1,0,0,,12,,,71,127
46901,note_off,56,0,0,,12,,,71,127
46901,note_off,0,0,0,,7,,,55,127
46901,note_off,0,0,0,,7,,,43,127
46902,note_on,1,0,0,,12,,,71,127
46902,note_on,0,0,0,,0,,,36,127
46902,note_on,0,0,0,,0,,,48,127
47131,note_off,229,0,0,,12,,,71,127
47132,note_on,1,0,0,,0,,,72,127
47593,note_off,461,0,0,,0,,,48,127
47593,note_off,0,0,0,,0,,,36,127
47593,note_on,0,0,0,,0,,,48,127
47699,note_off,106,0,0,,0,,,48,127
47709,note_on,10,0,0,,7,,,43,127
47815,note_off,106,0,0,,7,,,43,127
47823,note_off,8,0,0,,0,,,72,127
47824,note_on,1,0,0,,4,,,52,127
47938,note_off,114,0,0,,4,,,52,127
47939,note_on,1,0,0,,0,,,48,127
48053,note_off,114,0,0,,0,,,48,127
48054,note_on,1,0,0,,7,,,55,127
48168,note_off,114,0,0,,7,,,55,127
48169,note_on,1,0,0,,4,,,52,127
48283,note_off,114,0,0,,4,,,52,127
48284,note_on,1,0,0,,0,,,60,127
48398,note_off,114,0,0,,0,,,60,127
48399,note_on,1,0,0,,7,,,55,127
48513,note_off,114,0,0,,7,,,55,127
48514,note_on,1,0,0,,4,,,64,127
48628,note_off,114,0,0,,4,,,64,127
48629,note_on,1,0,0,,0,,,60,127
48743,note_off,114,0,0,,0,,,60,127
48744,note_on,1,0,0,,7,,,67,127
48858,note_off,114,0,0,,7,,,67,127
48859,note_on,1,0,0,,5,,,65,127
48973,note_off,114,0,0,,5,,,65,127
48974,note_on,1,0,0,,4,,,64,127
49088,note_off,114,0,0,,4,,,64,127
49089,note_on,1,0,0,,2,,,62,127
49089,note_on,0,0,0,,2,,,74,127
49203,note_off,114,0,0,,2,,,74,127
49203,note_off,0,0,0,,2,,,62,127
49204,note_on,1,0,0,,0,,,60,127
49204,note_on,0,0,0,,4,,,76,127
49318,note_off,114,0,0,,4,,,76,127
49318,note_off,0,0,0,,0,,,60,127
49319,note_on,1,0,0,,12,,,59,127
49319,note_on,0,0,0,,5,,,77,127
49433,note_off,114,0,0,,5,,,77,127
49433,note_off,0,0,0,,12,,,59,127
49434,note_on,1,0,0,,0,,,60,127
49434,note_on,0,0,0,,4,,,76,127
49548,note_off,114,0,0,,4,,,76,127
49549,note_on,1,0,0,,5,,,77,127
49663,note_off,114,0,0,,5,,,77,127
49664,note_on,1,0,0,,7,,,79,127
49778,note_off,114,0,0,,7,,,79,127
49779,note_on,1,0,0,,5,,,77,127
49893,note_off,114,0,0,,5,,,77,127
49893,note_off,0,0,0,,0,,,60,127
49894,note_on,1,0,0,,0,,,48,127
49894,note_on,0,0,0,,4,,,76,127
50008,note_off,114,0,0,,4,,,76,127
50009,note_on,1,0,0,,2,,,74,127
50123,note_off,114,0,0,,2,,,74,127
50124,note_on,1,0,0,,0,,,72,127
50238,note_off,114,0,0,,0,,,72,127
50239,note_on,1,0,0,,11,,,70,127
50353,note_off,114,0,0,,11,,,70,127
50353,note_off,0,0,0,,0,,,48,127
50354,note_on,1,0,0,,1,,,49,127
50354,note_on,0,0,0,,10,,,69,127
50468,note_off,114,0,0,,10,,,69,127
50469,note_on,1,0,0,,12,,,71,127
50583,note_off,114,0,0,,12,,,71,127
50584,note_on,1,0,0,,1,,,73,127
50698,note_off,114,0,0,,1,,,73,127
50699,note_on,1,0,0,,2,,,74,127
50813,note_off,114,0,0,,2,,,74,127
50813,note_off,0,0,0,,1,,,49,127
50814,note_on,1,0,0,,10,,,45,127
50814,note_on,0,0,0,,4,,,76,127
50928,note_off,114,0,0,,4,,,76,127
50929,note_on,1,0,0,,7,,,67,127
51043,note_off,114,0,0,,7,,,67,127
51044,note_on,1,0,0,,5,,,65,127
51158,note_off,114,0,0,,5,,,65,127
51159,note_on,1,0,0,,4,,,64,127
51273,note_off,114,0,0,,4,,,64,127
51273,note_off,0,0,0,,10,,,45,127
51274,note_on,1,0,0,,2,,,50,127
51274,note_on,0,0,0,,5,,,65,127
51388,note_off,114,0,0,,2,,,50,127
51389,note_on,1,0,0,,10,,,45,127
51503,note_off,114,0,0,,10,,,45,127
51504,note_on,1,0,0,,5,,,53,127
51618,note_off,114,0,0,,5,,,53,127
51619,note_on,1,0,0,,2,,,50,127
51733,note_off,114,0,0,,2,,,50,127
51734,note_on,1,0,0,,10,,,57,127
51848,note_off,114,0,0,,10,,,57,127
51849,note_on,1,0,0,,5,,,53,127
51963,note_off,114,0,0,,5,,,53,127
51964,note_on,1,0,0,,2,,,62,127
52078,note_off,114,0,0,,2,,,62,127
52079,note_on,1,0,0,,10,,,57,127
52193,note_off,114,0,0,,10,,,57,127
52193,note_off,0,0,0,,5,,,65,127
52194,note_on,1,0,0,,5,,,65,127
52308,note_off,114,0,0,,5,,,65,127
52309,note_on,1,0,0,,2,,,62,127
52423,note_off,114,0,0,,2,,,62,127
52424,note_on,1,0,0,,10,,,69,127
52538,note_off,114,0,0,,10,,,69,127
52539,note_on,1,0,0,,7,,,67,127
52653,note_off,114,0,0,,7,,,67,127
52654,note_on,1,0,0,,5,,,65,127
52768,note_off,114,0,0,,5,,,65,127
52769,note_on,1,0,0,,4,,,64,127
52769,note_on,0,0,0,,4,,,76,127
52883,note_off,114,0,0,,4,,,76,127
52883,note_off,0,0,0,,4,,,64,127
52884,note_on,1,0,0,,2,,,62,127
52884,note_on,0,0,0,,5,,,77,127
52998,note_off,114,0,0,,5,,,77,127
52998,note_off,0,0,0,,2,,,62,127
52999,note_on,1,0,0,,1,,,61,127
52999,note_on,0,0,0,,7,,,79,127
53113,note_off,114,0,0,,7,,,79,127
53113,note_off,0,0,0,,1,,,61,127
53114,note_on,1,0,0,,2,,,62,127
53114,note_on,0,0,0,,5,,,77,127
53228,note_off,114,0,0,,5,,,77,127
53229,note_on,1,0,0,,7,,,79,127
53343,note_off,114,0,0,,7,,,79,127
53344,note_on,1,0,0,,10,,,81,127
53458,note_off,114,0,0,,10,,,81,127
53459,note_on,1,0,0,,7,,,79,127
53573,note_off,114,0,0,,7,,,79,127
53573,note_off,0,0,0,,2,,,62,127
53574,note_on,1,0,0,,2,,,50,127
53574,note_on,0,0,0,,5,,,77,127
53688,note_off,114,0,0,,5,,,77,127
53689,note_on,1,0,0,,4,,,76,127
53803,note_off,114,0,0,,4,,,76,127
53804,note_on,1,0,0,,2,,,74,127
53918,note_off,114,0,0,,2,,,74,127
53919,note_on,1,0,0,,0,,,72,127
54033,note_off,114,0,0,,0,,,72,127
54033,note_off,0,0,0,,2,,,50,127
54034,note_on,1,0,0,,7,,,55,127
54034,note_on,0,0,0,,11,,,70,127
54148,note_off,114,0,0,,11,,,70,127
54149,note_on,1,0,0,,10,,,69,127
54263,note_off,114,0,0,,10,,,69,127
54264,note_on,1,0,0,,7,,,67,127
54378,note_off,114,0,0,,7,,,67,127
54379,note_on,1,0,0,,5,,,65,127
54493,note_off,114,0,0,,5,,,65,127
54494,note_on,1,0,0,,7,,,43,127
54494,note_on,0,0,0,,4,,,64,127
54608,note_off,114,0,0,,4,,,64,127
54609,note_on,1,0,0,,2,,,62,127
54723,note_off,114,0,0,,2,,,62,127
54724,note_on,1,0,0,,1,,,61,127
54838,note_off,114,0,0,,1,,,61,127
54839,note_on,1,0,0,,2,,,62,127
54953,note_off,114,0,0,,2,,,62,127
54953,note_off,0,0,0,,7,,,43,127
54953,note_off,0,0,0,,7,,,55,127
54954,note_on,1,0,0,,10,,,45,127
54954,note_on,0,0,0,,2,,,62,127
55414,note_off,460,0,0,,2,,,62,127
55415,note_on,1,0,0,,1,,,61,127
55530,note_off,115,0,0,,10,,,45,127
55645,note_off,115,0,0,,1,,,61,127
55645,note_on,0,0,0,,5,,,53,127
55760,note_on,115,0,0,,10,,,57,127
55855,note_off,95,0,0,,5,,,53,127
55875,note_on,20,0,0,,7,,,55,127
55970,note_off,95,0,0,,10,,,57,127
55990,note_on,20,0,0,,12,,,59,127
56085,note_off,95,0,0,,7,,,55,127
56105,note_on,20,0,0,,10,,,57,127
56200,note_off,95,0,0,,12,,,59,127
56220,note_on,20,0,0,,1,,,61,127
56315,note_off,95,0,0,,10,,,57,127
56335,note_on,20,0,0,,12,,,59,127
56430,note_off,95,0,0,,1,,,61,127
56450,note_on,20,0,0,,2,,,62,127
56545,note_off,95,0,0,,12,,,59,127
56565,note_on,20,0,0,,1,,,61,127
56660,note_off,95,0,0,,2,,,62,127
56680,note_on,20,0,0,,4,,,64,127
56775,note_off,95,0,0,,1,,,61,127
56795,note_on,20,0,0,,2,,,50,127
56968,note_off,173,0,0,,4,,,64,127
57026,note_on,58,0,0,,5,,,65,127
57372,note_off,346,0,0,,5,,,65,127
57486,note_off,114,0,0,,2,,,50,127
57487,note_on,1,0,0,,5,,,53,127
57602,note_on,115,0,0,,2,,,62,127
57697,note_off,95,0,0,,5,,,53,127
57717,note_on,20,0,0,,7,,,55,127
57812,note_off,95,0,0,,2,,,62,127
57832,note_on,20,0,0,,4,,,64,127
57927,note_off,95,0,0,,7,,,55,127
57947,note_on,20,0,0,,10,,,57,127
58042,note_off,95,0,0,,4,,,64,127
58062,note_on,20,0,0,,5,,,65,127
58157,note_off,95,0,0,,10,,,57,127
58177,note_on,20,0,0,,12,,,59,127
58272,note_off,95,0,0,,5,,,65,127
58292,note_on,20,0,0,,7,,,67,127
58387,note_off,95,0,0,,12,,,59,127
58407,note_on,20,0,0,,1,,,61,127
58502,note_off,95,0,0,,7,,,67,127
58522,note_on,20,0,0,,10,,,69,127
58617,note_off,95,0,0,,1,,,61,127
58637,note_on,20,0,0,,2,,,62,127
58732,note_off,95,0,0,,10,,,69,127
58752,note_on,20,0,0,,12,,,71,127
58847,note_off,95,0,0,,2,,,62,127
58867,note_on,20,0,0,,4,,,64,127
58962,note_off,95,0,0,,12,,,71,127
58982,note_on,20,0,0,,1,,,73,127
59077,note_off,95,0,0,,4,,,64,127
59097,note_on,20,0,0,,5,,,65,127
59192,note_off,95,0,0,,1,,,73,127
59212,note_on,20,0,0,,2,,,74,127
59307,note_off,95,0,0,,5,,,65,127
59327,note_on,20,0,0,,8,,,68,127
59422,note_off,95,0,0,,2,,,74,127
59442,note_on,20,0,0,,4,,,76,127
59537,note_off,95,0,0,,8,,,68,127
59557,note_on,20,0,0,,10,,,69,127
59652,note_off,95,0,0,,4,,,76,127
59672,note_on,20,0,0,,5,,,77,127
59767,note_off,95,0,0,,10,,,69,127
59787,note_on,20,0,0,,12,,,71,127
59882,note_off,95,0,0,,5,,,77,127
59902,note_on,20,0,0,,8,,,80,127
59997,note_off,95,0,0,,12,,,71,127
60017,note_on,20,0,0,,0,,,72,127
60112,note_off,95,0,0,,8,,,80,127
60132,note_on,20,0,0,,10,,,81,127
60227,note_off,95,0,0,,0,,,72,127
60247,note_on,20,0,0,,2,,,74,127
60342,note_off,95,0,0,,10,,,81,127
60362,note_on,20,0,0,,12,,,83,127
60457,note_off,95,0,0,,2,,,74,127
60476,note_off,19,0,0,,12,,,83,127
60477,note_on,1,0,0,,4,,,76,127
60477,note_on,0,0,0,,10,,,81,127
60477,note_on,0,0,0,,12,,,83,127
60687,note_off,210,0,0,,12,,,83,127
60687,note_off,0,0,0,,10,,,81,127
60707,note_on,20,0,0,,8,,,80,127
60821,note_off,114,0,0,,8,,,80,127
60822,note_on,1,0,0,,6,,,78,127
60936,note_off,114,0,0,,6,,,78,127
60936,note_off,0,0,0,,4,,,76,127
60937,note_on,1,0,0,,4,,,52,127
60937,note_on,0,0,0,,4,,,76,127
61051,note_off,114,0,0,,4,,,76,127
61052,note_on,1,0,0,,4,,,76,127
61166,note_off,114,0,0,,4,,,76,127
61167,note_on,1,0,0,,2,,,74,127
61281,note_off,114,0,0,,2,,,74,127
61282,note_on,1,0,0,,4,,,76,127
61396,note_off,114,0,0,,4,,,76,127
61396,note_off,0,0,0,,4,,,52,127
61397,note_on,1,0,0,,10,,,69,127
61397,note_on,0,0,0,,0,,,72,127
61511,note_off,114,0,0,,0,,,72,127
61512,note_on,1,0,0,,12,,,71,127
61626,note_off,114,0,0,,12,,,71,127
61627,note_on,1,0,0,,0,,,72,127
61741,note_off,114,0,0,,0,,,72,127
61742,note_on,1,0,0,,4,,,76,127
61856,note_off,114,0,0,,4,,,76,127
61856,note_off,0,0,0,,10,,,69,127
61857,note_on,1,0,0,,7,,,67,127
61857,note_on,0,0,0,,12,,,71,127
61971,note_off,114,0,0,,12,,,71,127
61972,note_on,1,0,0,,10,,,69,127
62086,note_off,114,0,0,,10,,,69,127
62087,note_on,1,0,0,,12,,,71,127
62201,note_off,114,0,0,,12,,,71,127
62202,note_on,1,0,0,,4,,,76,127
62316,note_off,114,0,0,,4,,,76,127
62316,note_off,0,0,0,,7,,,67,127
62317,note_on,1,0,0,,5,,,65,127
62317,note_on,0,0,0,,10,,,69,127
62431,note_off,114,0,0,,10,,,69,127
62432,note_on,1,0,0,,7,,,67,127
62546,note_off,114,0,0,,7,,,67,127
62547,note_on,1,0,0,,10,,,69,127
62661,note_off,114,0,0,,10,,,69,127
62662,note_on,1,0,0,,4,,,76,127
62776,note_off,114,0,0,,4,,,76,127
62776,note_off,0,0,0,,5,,,65,127
62777,note_on,1,0,0,,4,,,64,127
62777,note_on,0,0,0,,7,,,67,127
62891,note_off,114,0,0,,7,,,67,127
62892,note_on,1,0,0,,5,,,65,127
63006,note_off,114,0,0,,5,,,65,127
63007,note_on,1,0,0,,7,,,67,127
63121,note_off,114,0,0,,7,,,67,127
63122,note_on,1,0,0,,4,,,76,127
63236,note_off,114,0,0,,4,,,76,127
63236,note_off,0,0,0,,4,,,64,127
63237,note_on,1,0,0,,2,,,62,127
63237,note_on,0,0,0,,5,,,65,127
63351,note_off,114,0,0,,5,,,65,127
63352,note_on,1,0,0,,4,,,64,127
63466,note_off,114,0,0,,4,,,64,127
63467,note_on,1,0,0,,5,,,65,127
63581,note_off,114,0,0,,5,,,65,127
63582,note_on,1,0,0,,4,,,76,127
63696,note_off,114,0,0,,4,,,76,127
63696,note_off,0,0,0,,2,,,62,127
63697,note_on,1,0,0,,0,,,60,127
63697,note_on,0,0,0,,4,,,64,127
63811,note_off,114,0,0,,4,,,64,127
63812,note_on,1,0,0,,4,,,76,127
63926,note_off,114,0,0,,4,,,76,127
63927,note_on,1,0,0,,2,,,74,127
64041,note_off,114,0,0,,2,,,74,127
64042,note_on,1,0,0,,4,,,76,127
64156,note_off,114,0,0,,4,,,76,127
64156,note_off,0,0,0,,0,,,60,127
64157,note_on,1,0,0,,2,,,62,127
64157,note_on,0,0,0,,5,,,77,127
64271,note_off,114,0,0,,5,,,77,127
64272,note_on,1,0,0,,2,,,74,127
64386,note_off,114,0,0,,2,,,74,127
64387,note_on,1,0,0,,4,,,76,127
64501,note_off,114,0,0,,4,,,76,127
64502,note_on,1,0,0,,0,,,72,127
64616,note_off,114,0,0,,0,,,72,127
64616,note_off,0,0,0,,2,,,62,127
64617,note_on,1,0,0,,2,,,50,127
64617,note_on,0,0,0,,2,,,74,127
64731,note_off,114,0,0,,2,,,74,127
64732,note_on,1,0,0,,12,,,71,127
64846,note_off,114,0,0,,12,,,71,127
64847,note_on,1,0,0,,0,,,72,127
64961,note_off,114,0,0,,0,,,72,127
64962,note_on,1,0,0,,10,,,69,127
65076,note_off,114,0,0,,2,,,50,127
65077,note_on,1,0,0,,4,,,52,127
65306,note_off,229,0,0,,10,,,69,127
65307,note_on,1,0,0,,8,,,68,127
65421,note_off,114,0,0,,8,,,68,127
65422,note_on,1,0,0,,6,,,66,127
65536,note_off,114,0,0,,6,,,66,127
65537,note_on,1,0,0,,4,,,64,127
65651,note_off,114,0,0,,4,,,64,127
65651,note_off,0,0,0,,4,,,52,127
65652,note_on,1,0,0,,4,,,64,127
65766,note_off,114,0,0,,4,,,64,127
65767,note_on,1,0,0,,2,,,62,127
65881,note_off,114,0,0,,2,,,62,127
65882,note_on,1,0,0,,4,,,64,127
65996,note_off,114,0,0,,4,,,64,127
65997,note_on,1,0,0,,0,,,60,127
65997,note_on,0,0,0,,4,,,76,127
66035,note_on,38,0,0,,2,,,74,127
66054,note_off,19,0,0,,4,,,76,127
66073,note_on,19,0,0,,4,,,76,127
66092,note_off,19,0,0,,2,,,74,127
66110,note_off,18,0,0,,0,,,60,127
66111,note_on,1,0,0,,12,,,59,127
66225,note_off,114,0,0,,12,,,59,127
66226,note_on,1,0,0,,0,,,60,127
66340,note_off,114,0,0,,0,,,60,127
66341,note_on,1,0,0,,4,,,64,127
66455,note_off,114,0,0,,4,,,64,127
66455,note_off,0,0,0,,4,,,76,127
66456,note_on,1,0,0,,12,,,59,127
66456,note_on,0,0,0,,2,,,74,127
66494,note_on,38,0,0,,0,,,72,127
66513,note_off,19,0,0,,2,,,74,127
66532,note_on,19,0,0,,2,,,74,127
66551,note_off,19,0,0,,0,,,72,127
66569,note_off,18,0,0,,12,,,59,127
66570,note_on,1,0,0,,10,,,57,127
66684,note_off,114,0,0,,10,,,57,127
66685,note_on,1,0,0,,12,,,59,127
66799,note_off,114,0,0,,12,,,59,127
66800,note_on,1,0,0,,4,,,64,127
66914,note_off,114,0,0,,4,,,64,127
66914,note_off,0,0,0,,2,,,74,127
66915,note_on,1,0,0,,10,,,57,127
66915,note_on,0,0,0,,0,,,72,127
66953,note_on,38,0,0,,12,,,71,127
66972,note_off,19,0,0,,0,,,72,127
66991,note_on,19,0,0,,0,,,72,127
67010,note_off,19,0,0,,12,,,71,127
67028,note_off,18,0,0,,10,,,57,127
67029,note_on,1,0,0,,7,,,55,127
67143,note_off,114,0,0,,7,,,55,127
67144,note_on,1,0,0,,10,,,57,127
67258,note_off,114,0,0,,10,,,57,127
67259,note_on,1,0,0,,4,,,64,127
67373,note_off,114,0,0,,4,,,64,127
67373,note_off,0,0,0,,0,,,72,127
67374,note_on,1,0,0,,7,,,55,127
67374,note_on,0,0,0,,12,,,71,127
67412,note_on,38,0,0,,10,,,69,127
67431,note_off,19,0,0,,12,,,71,127
67450,note_on,19,0,0,,12,,,71,127
67469,note_off,19,0,0,,10,,,69,127
67487,note_off,18,0,0,,7,,,55,127
67488,note_on,1,0,0,,5,,,53,127
67602,note_off,114,0,0,,5,,,53,127
67603,note_on,1,0,0,,7,,,55,127
67717,note_off,114,0,0,,7,,,55,127
67718,note_on,1,0,0,,4,,,64,127
67832,note_off,114,0,0,,4,,,64,127
67832,note_off,0,0,0,,12,,,71,127
67833,note_on,1,0,0,,5,,,53,127
67833,note_on,0,0,0,,10,,,69,127
67871,note_on,38,0,0,,8,,,68,127
67890,note_off,19,0,0,,10,,,69,127
67909,note_on,19,0,0,,10,,,69,127
67928,note_off,19,0,0,,8,,,68,127
67946,note_off,18,0,0,,5,,,53,127
67947,note_on,1,0,0,,4,,,52,127
68061,note_off,114,0,0,,4,,,52,127
68062,note_on,1,0,0,,5,,,53,127
68176,note_off,114,0,0,,5,,,53,127
68177,note_on,1,0,0,,4,,,64,127
68291,note_off,114,0,0,,4,,,64,127
68291,note_off,0,0,0,,10,,,69,127
68292,note_on,1,0,0,,4,,,52,127
68292,note_on,0,0,0,,8,,,68,127
68330,note_on,38,0,0,,6,,,66,127
68349,note_off,19,0,0,,8,,,68,127
68368,note_on,19,0,0,,8,,,68,127
68387,note_off,19,0,0,,6,,,66,127
68405,note_off,18,0,0,,4,,,52,127
68406,note_on,1,0,0,,2,,,62,127
68520,note_off,114,0,0,,2,,,62,127
68521,note_on,1,0,0,,0,,,60,127
68635,note_off,114,0,0,,0,,,60,127
68636,note_on,1,0,0,,12,,,59,127
68750,note_off,114,0,0,,12,,,59,127
68750,note_off,0,0,0,,8,,,68,127
68751,note_on,1,0,0,,0,,,60,127
68751,note_on,0,0,0,,10,,,69,127
68865,note_off,114,0,0,,10,,,69,127
68866,note_on,1,0,0,,12,,,71,127
68980,note_off,114,0,0,,12,,,71,127
68981,note_on,1,0,0,,0,,,72,127
69095,note_off,114,0,0,,0,,,72,127
69096,note_on,1,0,0,,2,,,74,127
69210,note_off,114,0,0,,2,,,74,127
69210,note_off,0,0,0,,0,,,60,127
69211,note_on,1,0,0,,2,,,62,127
69211,note_on,0,0,0,,4,,,76,127
69325,note_off,114,0,0,,4,,,76,127
69326,note_on,1,0,0,,6,,,78,127
69440,note_off,114,0,0,,6,,,78,127
69441,note_on,1,0,0,,8,,,80,127
69555,note_off,114,0,0,,8,,,80,127
69556,note_on,1,0,0,,10,,,81,127
69670,note_off,114,0,0,,10,,,81,127
69670,note_off,0,0,0,,2,,,62,127
69671,note_on,1,0,0,,4,,,64,127
69671,note_on,0,0,0,,0,,,72,127
69785,note_off,114,0,0,,0,,,72,127
69786,note_on,1,0,0,,12,,,71,127
69900,note_off,114,0,0,,12,,,71,127
69901,note_on,1,0,0,,0,,,72,127
70016,note_on,115,0,0,,10,,,81,127
70074,note_off,58,0,0,,0,,,72,127
70130,note_off,56,0,0,,10,,,81,127
70130,note_off,0,0,0,,4,,,64,127
70131,note_on,1,0,0,,2,,,62,127
70131,note_on,0,0,0,,11,,,70,127
70245,note_off,114,0,0,,11,,,70,127
70246,note_on,1,0,0,,10,,,69,127
70360,note_off,114,0,0,,10,,,69,127
70361,note_on,1,0,0,,11,,,70,127
70476,note_on,115,0,0,,7,,,79,127
70534,note_off,58,0,0,,11,,,70,127
70590,note_off,56,0,0,,7,,,79,127
70590,note_off,0,0,0,,2,,,62,127
70591,note_on,1,0,0,,1,,,61,127
70591,note_on,0,0,0,,10,,,69,127
70705,note_off,114,0,0,,10,,,69,127
70706,note_on,1,0,0,,7,,,67,127
70820,note_off,114,0,0,,7,,,67,127
70821,note_on,1,0,0,,10,,,69,127
70936,note_on,115,0,0,,7,,,79,127
70994,note_off,58,0,0,,10,,,69,127
71050,note_off,56,0,0,,7,,,79,127
71050,note_off,0,0,0,,1,,,61,127
71051,note_on,1,0,0,,0,,,60,127
71051,note_on,0,0,0,,10,,,69,127
71165,note_off,114,0,0,,10,,,69,127
71166,note_on,1,0,0,,7,,,67,127
71280,note_off,114,0,0,,7,,,67,127
71281,note_on,1,0,0,,10,,,69,127
71395,note_off,114,0,0,,10,,,69,127
71396,note_on,1,0,0,,6,,,78,127
71510,note_off,114,0,0,,6,,,78,127
71510,note_off,0,0,0,,0,,,60,127
71511,note_on,1,0,0,,11,,,58,127
71511,note_on,0,0,0,,11,,,70,127
71625,note_off,114,0,0,,11,,,70,127
71626,note_on,1,0,0,,7,,,79,127
71740,note_off,114,0,0,,7,,,79,127
71740,note_off,0,0,0,,11,,,58,127
71741,note_on,1,0,0,,10,,,57,127
71741,note_on,0,0,0,,0,,,72,127
71855,note_off,114,0,0,,0,,,72,127
71856,note_on,1,0,0,,10,,,81,127
71970,note_off,114,0,0,,10,,,81,127
71970,note_off,0,0,0,,10,,,57,127
71971,note_on,1,0,0,,7,,,55,127
71971,note_on,0,0,0,,2,,,74,127
72085,note_off,114,0,0,,2,,,74,127
72086,note_on,1,0,0,,11,,,82,127
72200,note_off,114,0,0,,11,,,82,127
72200,note_off,0,0,0,,7,,,55,127
72201,note_on,1,0,0,,6,,,54,127
72201,note_on,0,0,0,,3,,,75,127
72315,note_off,114,0,0,,3,,,75,127
72316,note_on,1,0,0,,0,,,84,127
72405,note_off,89,0,0,,6,,,54,127
72430,note_off,25,0,0,,0,,,84,127
72431,note_on,1,0,0,,7,,,55,127
72431,note_on,0,0,0,,11,,,70,127
72545,note_off,114,0,0,,11,,,70,127
72546,note_on,1,0,0,,10,,,69,127
72660,note_off,114,0,0,,10,,,69,127
72661,note_on,1,0,0,,11,,,70,127
72776,note_on,115,0,0,,7,,,79,127
72834,note_off,58,0,0,,11,,,70,127
72890,note_off,56,0,0,,7,,,79,127
72890,note_off,0,0,0,,7,,,55,127
72891,note_on,1,0,0,,11,,,58,127
72891,note_on,0,0,0,,10,,,69,127
73005,note_off,114,0,0,,10,,,69,127
73006,note_on,1,0,0,,7,,,67,127
73120,note_off,114,0,0,,7,,,67,127
73121,note_on,1,0,0,,10,,,69,127
73236,note_on,115,0,0,,5,,,77,127
73294,note_off,58,0,0,,10,,,69,127
73350,note_off,56,0,0,,5,,,77,127
73350,note_off,0,0,0,,11,,,58,127
73351,note_on,1,0,0,,0,,,60,127
73351,note_on,0,0,0,,7,,,67,127
73465,note_off,114,0,0,,7,,,67,127
73466,note_on,1,0,0,,5,,,65,127
73580,note_off,114,0,0,,5,,,65,127
73581,note_on,1,0,0,,7,,,67,127
73696,note_on,115,0,0,,4,,,76,127
73754,note_off,58,0,0,,7,,,67,127
73810,note_off,56,0,0,,4,,,76,127
73810,note_off,0,0,0,,0,,,60,127
73811,note_on,1,0,0,,11,,,58,127
73811,note_on,0,0,0,,7,,,67,127
73925,note_off,114,0,0,,7,,,67,127
73926,note_on,1,0,0,,5,,,65,127
74040,note_off,114,0,0,,5,,,65,127
74041,note_on,1,0,0,,7,,,67,127
74155,note_off,114,0,0,,7,,,67,127
74156,note_on,1,0,0,,4,,,76,127
74270,note_off,114,0,0,,4,,,76,127
74270,note_off,0,0,0,,11,,,58,127
74271,note_on,1,0,0,,10,,,57,127
74271,note_on,0,0,0,,10,,,69,127
74385,note_off,114,0,0,,10,,,69,127
74386,note_on,1,0,0,,5,,,77,127
74500,note_off,114,0,0,,5,,,77,127
74500,note_off,0,0,0,,10,,,57,127
74501,note_on,1,0,0,,7,,,55,127
74501,note_on,0,0,0,,11,,,70,127
74615,note_off,114,0,0,,11,,,70,127
74616,note_on,1,0,0,,7,,,79,127
74730,note_off,114,0,0,,7,,,79,127
74730,note_off,0,0,0,,7,,,55,127
74731,note_on,1,0,0,,5,,,53,127
74731,note_on,0,0,0,,0,,,72,127
74845,note_off,114,0,0,,0,,,72,127
74846,note_on,1,0,0,,10,,,81,127
74960,note_off,114,0,0,,10,,,81,127
74960,note_off,0,0,0,,5,,,53,127
74961,note_on,1,0,0,,4,,,52,127
74961,note_on,0,0,0,,2,,,74,127
75075,note_off,114,0,0,,2,,,74,127
75076,note_on,1,0,0,,11,,,82,127
75165,note_off,89,0,0,,4,,,52,127
75190,note_off,25,0,0,,11,,,82,127
75191,note_on,1,0,0,,5,,,53,127
75191,note_on,0,0,0,,10,,,69,127
75305,note_off,114,0,0,,10,,,69,127
75306,note_on,1,0,0,,7,,,67,127
75420,note_off,114,0,0,,7,,,67,127
75421,note_on,1,0,0,,10,,,69,127
75536,note_on,115,0,0,,5,,,77,127
75594,note_off,58,0,0,,10,,,69,127
75650,note_off,56,0,0,,5,,,77,127
75650,note_off,0,0,0,,5,,,53,127
75651,note_on,1,0,0,,10,,,45,127
75651,note_on,0,0,0,,5,,,65,127
75765,note_off,114,0,0,,5,,,65,127
75766,note_on,1,0,0,,4,,,64,127
75880,note_off,114,0,0,,4,,,64,127
75881,note_on,1,0,0,,5,,,65,127
75996,note_on,115,0,0,,2,,,74,127
76054,note_off,58,0,0,,5,,,65,127
76110,note_off,56,0,0,,2,,,74,127
76110,note_off,0,0,0,,10,,,45,127
76111,note_on,1,0,0,,11,,,46,127
76111,note_on,0,0,0,,2,,,62,127
76225,note_off,114,0,0,,2,,,62,127
76226,note_on,1,0,0,,0,,,60,127
76340,note_off,114,0,0,,0,,,60,127
76341,note_on,1,0,0,,2,,,62,127
76456,note_on,115,0,0,,11,,,70,127
76514,note_off,58,0,0,,2,,,62,127
76570,note_off,56,0,0,,11,,,70,127
76570,note_off,0,0,0,,11,,,46,127
76571,note_on,1,0,0,,2,,,50,127
76571,note_on,0,0,0,,11,,,58,127
76685,note_off,114,0,0,,11,,,58,127
76686,note_on,1,0,0,,10,,,57,127
76800,note_off,114,0,0,,10,,,57,127
76801,note_on,1,0,0,,11,,,58,127
76915,note_off,114,0,0,,11,,,58,127
76916,note_on,1,0,0,,7,,,67,127
77030,note_off,114,0,0,,2,,,50,127
77031,note_on,1,0,0,,0,,,48,127
77089,note_on,58,0,0,,5,,,65,127
77107,note_off,18,0,0,,7,,,67,127
77147,note_on,40,0,0,,7,,,67,127
77166,note_off,19,0,0,,5,,,65,127
77204,note_on,38,0,0,,5,,,65,127
77223,note_off,19,0,0,,7,,,67,127
77261,note_on,38,0,0,,7,,,67,127
77280,note_off,19,0,0,,5,,,65,127
77318,note_on,38,0,0,,5,,,65,127
77337,note_off,19,0,0,,7,,,67,127
77375,note_on,38,0,0,,4,,,64,127
77394,note_off,19,0,0,,5,,,65,127
77432,note_on,38,0,0,,5,,,65,127
77451,note_off,19,0,0,,4,,,64,127
77488,note_off,37,0,0,,5,,,65,127
77489,note_on,1,0,0,,4,,,64,127
77718,note_off,229,0,0,,0,,,48,127
77719,note_off,1,0,0,,4,,,64,127
77719,note_on,0,0,0,,10,,,57,127
77834,note_on,115,0,0,,0,,,60,127
77929,note_off,95,0,0,,10,,,57,127
77949,note_on,20,0,0,,11,,,58,127
78044,note_off,95,0,0,,0,,,60,127
78064,note_on,20,0,0,,2,,,62,127
78159,note_off,95,0,0,,11,,,58,127
78179,note_on,20,0,0,,0,,,60,127
78274,note_off,95,0,0,,2,,,62,127
78294,note_on,20,0,0,,4,,,64,127
78389,note_off,95,0,0,,0,,,60,127
78409,note_on,20,0,0,,2,,,62,127
78504,note_off,95,0,0,,4,,,64,127
78524,note_on,20,0,0,,5,,,65,127
78619,note_off,95,0,0,,2,,,62,127
78639,note_on,20,0,0,,4,,,64,127
78734,note_off,95,0,0,,5,,,65,127
78754,note_on,20,0,0,,7,,,67,127
78849,note_off,95,0,0,,4,,,64,127
78868,note_off,19,0,0,,7,,,67,127
78869,note_on,1,0,0,,5,,,65,127
79099,note_on,230,0,0,,11,,,70,127
79328,note_off,229,0,0,,5,,,65,127
79329,note_on,1,0,0,,5,,,53,127
79557,note_off,228,0,0,,5,,,53,127
79558,note_off,1,0,0,,11,,,70,127
79559,note_on,1,0,0,,10,,,57,127
79559,note_on,0,0,0,,10,,,69,127
79673,note_off,114,0,0,,10,,,69,127
79674,note_on,1,0,0,,0,,,60,127
79769,note_off,95,0,0,,10,,,57,127
79789,note_on,20,0,0,,11,,,58,127
79884,note_off,95,0,0,,0,,,60,127
79904,note_on,20,0,0,,2,,,62,127
79999,note_off,95,0,0,,11,,,58,127
80019,note_on,20,0,0,,0,,,60,127
80114,note_off,95,0,0,,2,,,62,127
80134,note_on,20,0,0,,4,,,64,127
80229,note_off,95,0,0,,0,,,60,127
80249,note_on,20,0,0,,2,,,62,127
80344,note_off,95,0,0,,4,,,64,127
80364,note_on,20,0,0,,5,,,65,127
80459,note_off,95,0,0,,2,,,62,127
80479,note_on,20,0,0,,4,,,64,127
80574,note_off,95,0,0,,5,,,65,127
80594,note_on,20,0,0,,7,,,67,127
80689,note_off,95,0,0,,4,,,64,127
80708,note_off,19,0,0,,7,,,67,127
80709,note_on,1,0,0,,5,,,65,127
80939,note_on,230,0,0,,11,,,70,127
80939,note_on,0,0,0,,2,,,74,127
81168,note_off,229,0,0,,5,,,65,127
81169,note_on,1,0,0,,5,,,53,127
81397,note_off,228,0,0,,5,,,53,127
81398,note_off,1,0,0,,2,,,74,127
81398,note_off,0,0,0,,11,,,70,127
81399,note_on,1,0,0,,10,,,57,127
81399,note_on,0,0,0,,10,,,69,127
81399,note_on,0,0,0,,0,,,72,127
81513,note_off,114,0,0,,0,,,72,127
81513,note_off,0,0,0,,10,,,69,127
81514,note_on,1,0,0,,0,,,60,127
81609,note_off,95,0,0,,10,,,57,127
81629,note_on,20,0,0,,11,,,58,127
81724,note_off,95,0,0,,0,,,60,127
81744,note_on,20,0,0,,2,,,62,127
81839,note_off,95,0,0,,11,,,58,127
81859,note_on,20,0,0,,0,,,60,127
81954,note_off,95,0,0,,2,,,62,127
81974,note_on,20,0,0,,4,,,64,127
82069,note_off,95,0,0,,0,,,60,127
82089,note_on,20,0,0,,2,,,62,127
82184,note_off,95,0,0,,4,,,64,127
82204,note_on,20,0,0,,5,,,65,127
82299,note_off,95,0,0,,2,,,62,127
82319,note_on,20,0,0,,4,,,64,127
82414,note_off,95,0,0,,5,,,65,127
82434,note_on,20,0,0,,7,,,67,127
82529,note_off,95,0,0,,4,,,64,127
82548,note_off,19,0,0,,7,,,67,127
82549,note_on,1,0,0,,5,,,65,127
82779,note_on,230,0,0,,11,,,70,127
82779,note_on,0,0,0,,7,,,79,127
83008,note_off,229,0,0,,5,,,65,127
83009,note_on,1,0,0,,5,,,53,127
83238,note_off,229,0,0,,7,,,79,127
83238,note_off,0,0,0,,11,,,70,127
83239,note_on,1,0,0,,5,,,77,127
83239,note_on,0,0,0,,10,,,69,127
83353,note_off,114,0,0,,5,,,77,127
83354,note_on,1,0,0,,0,,,72,127
83467,note_off,113,0,0,,10,,,69,127
83468,note_off,1,0,0,,0,,,72,127
83468,note_off,0,0,0,,5,,,53,127
83469,note_on,1,0,0,,11,,,58,127
83469,note_on,0,0,0,,2,,,74,127
83583,note_off,114,0,0,,2,,,74,127
83584,note_on,1,0,0,,10,,,69,127
83698,note_off,114,0,0,,10,,,69,127
83699,note_on,1,0,0,,11,,,70,127
83813,note_off,114,0,0,,11,,,70,127
83814,note_on,1,0,0,,7,,,67,127
83928,note_off,114,0,0,,7,,,67,127
83928,note_off,0,0,0,,11,,,58,127
83929,note_on,1,0,0,,0,,,60,127
83929,note_on,0,0,0,,5,,,65,127
84139,note_off,210,0,0,,5,,,65,127
84159,note_on,20,0,0,,5,,,65,127
84215,note_off,56,0,0,,5,,,65,127
84216,note_on,1,0,0,,4,,,64,127
84272,note_off,56,0,0,,4,,,64,127
84273,note_on,1,0,0,,2,,,62,127
84329,note_off,56,0,0,,2,,,62,127
84330,note_on,1,0,0,,4,,,64,127
84386,note_off,56,0,0,,4,,,64,127
84386,note_off,0,0,0,,0,,,60,127
84387,note_on,1,0,0,,5,,,53,127
84387,note_on,0,0,0,,4,,,64,127
84615,note_off,228,0,0,,4,,,64,127
84617,note_on,2,0,0,,5,,,65,127
84963,note_off,346,0,0,,5,,,65,127
85077,note_off,114,0,0,,5,,,53,127
85078,note_on,1,0,0,,10,,,57,127
85193,note_on,115,0,0,,0,,,60,127
85288,note_off,95,0,0,,10,,,57,127
85308,note_on,20,0,0,,11,,,58,127
85403,note_off,95,0,0,,0,,,60,127
85423,note_on,20,0,0,,2,,,62,127
85518,note_off,95,0,0,,11,,,58,127
85538,note_on,20,0,0,,0,,,60,127
85633,note_off,95,0,0,,2,,,62,127
85653,note_on,20,0,0,,4,,,64,127
85748,note_off,95,0,0,,0,,,60,127
85768,note_on,20,0,0,,2,,,62,127
85863,note_off,95,0,0,,4,,,64,127
85883,note_on,20,0,0,,5,,,65,127
85978,note_off,95,0,0,,2,,,62,127
85998,note_on,20,0,0,,4,,,64,127
86093,note_off,95,0,0,,5,,,65,127
86113,note_on,20,0,0,,7,,,67,127
86208,note_off,95,0,0,,4,,,64,127
86227,note_off,19,0,0,,7,,,67,127
86228,note_on,1,0,0,,5,,,65,127
86458,note_on,230,0,0,,11,,,70,127
86687,note_off,229,0,0,,5,,,65,127
86688,note_on,1,0,0,,5,,,53,127
86916,note_off,228,0,0,,5,,,53,127
86917,note_off,1,0,0,,11,,,70,127
86918,note_on,1,0,0,,10,,,57,127
86918,note_on,0,0,0,,10,,,69,127
87032,note_off,114,0,0,,10,,,69,127
87033,note_on,1,0,0,,0,,,60,127
87128,note_off,95,0,0,,10,,,57,127
87148,note_on,20,0,0,,11,,,58,127
87243,note_off,95,0,0,,0,,,60,127
87263,note_on,20,0,0,,2,,,62,127
87358,note_off,95,0,0,,11,,,58,127
87378,note_on,20,0,0,,0,,,60,127
87473,note_off,95,0,0,,2,,,62,127
87493,note_on,20,0,0,,4,,,64,127
87588,note_off,95,0,0,,0,,,60,127
87608,note_on,20,0,0,,2,,,62,127
87703,note_off,95,0,0,,4,,,64,127
87723,note_on,20,0,0,,5,,,65,127
87818,note_off,95,0,0,,2,,,62,127
87838,note_on,20,0,0,,4,,,64,127
87933,note_off,95,0,0,,5,,,65,127
87953,note_on,20,0,0,,7,,,67,127
88048,note_off,95,0,0,,4,,,64,127
88067,note_off,19,0,0,,7,,,67,127
88068,note_on,1,0,0,,5,,,65,127
88298,note_on,230,0,0,,2,,,74,127
88298,note_on,0,0,0,,11,,,70,127
88527,note_off,229,0,0,,5,,,65,127
88528,note_on,1,0,0,,5,,,53,127
88756,note_off,228,0,0,,5,,,53,127
88757,note_off,1,0,0,,11,,,70,127
88757,note_off,0,0,0,,2,,,74,127
88758,note_on,1,0,0,,10,,,57,127
88758,note_on,0,0,0,,10,,,69,127
88758,note_on,0,0,0,,0,,,72,127
88872,note_off,114,0,0,,0,,,72,127
88872,note_off,0,0,0,,10,,,69,127
88873,note_on,1,0,0,,0,,,60,127
88968,note_off,95,0,0,,10,,,57,127
88988,note_on,20,0,0,,11,,,58,127
89083,note_off,95,0,0,,0,,,60,127
89103,note_on,20,0,0,,2,,,62,127
89198,note_off,95,0,0,,11,,,58,127
89218,note_on,20,0,0,,0,,,60,127
89313,note_off,95,0,0,,2,,,62,127
89333,note_on,20,0,0,,4,,,64,127
89428,note_off,95,0,0,,0,,,60,127
89448,note_on,20,0,0,,2,,,62,127
89543,note_off,95,0,0,,4,,,64,127
89563,note_on,20,0,0,,5,,,65,127
89658,note_off,95,0,0,,2,,,62,127
89678,note_on,20,0,0,,4,,,64,127
89773,note_off,95,0,0,,5,,,65,127
89793,note_on,20,0,0,,7,,,67,127
89888,note_off,95,0,0,,4,,,64,127
89907,note_off,19,0,0,,7,,,67,127
89908,note_on,1,0,0,,5,,,65,127
90138,note_on,230,0,0,,7,,,79,127
90138,note_on,0,0,0,,11,,,70,127
90367,note_off,229,0,0,,5,,,65,127
90368,note_on,1,0,0,,5,,,53,127
90597,note_off,229,0,0,,11,,,70,127
90597,note_off,0,0,0,,7,,,79,127
90598,note_on,1,0,0,,10,,,69,127
90598,note_on,0,0,0,,5,,,77,127
90712,note_off,114,0,0,,5,,,77,127
90713,note_on,1,0,0,,0,,,72,127
90826,note_off,113,0,0,,10,,,69,127
90827,note_off,1,0,0,,0,,,72,127
90827,note_off,0,0,0,,5,,,53,127
90828,note_on,1,0,0,,11,,,58,127
90828,note_on,0,0,0,,2,,,74,127
90942,note_off,114,0,0,,2,,,74,127
90943,note_on,1,0,0,,10,,,69,127
91057,note_off,114,0,0,,10,,,69,127
91058,note_on,1,0,0,,11,,,70,127
91172,note_off,114,0,0,,11,,,70,127
91173,note_on,1,0,0,,7,,,67,127
91287,note_off,114,0,0,,7,,,67,127
91287,note_off,0,0,0,,11,,,58,127
91288,note_on,1,0,0,,0,,,60,127
91288,note_on,0,0,0,,5,,,65,127
91517,note_off,229,0,0,,5,,,65,127
91518,note_on,1,0,0,,4,,,64,127
91556,note_on,38,0,0,,5,,,65,127
91575,note_off,19,0,0,,4,,,64,127
91594,note_on,19,0,0,,4,,,64,127
91613,note_off,19,0,0,,5,,,65,127
91746,note_off,133,0,0,,0,,,60,127
91747,note_off,1,0,0,,4,,,64,127
91747,note_on,0,0,0,,5,,,53,127
91747,note_on,0,0,0,,5,,,65,127
91861,note_off,114,0,0,,5,,,65,127
91862,note_on,1,0,0,,4,,,64,127
91976,note_off,114,0,0,,4,,,64,127
91977,note_on,1,0,0,,5,,,65,127
92092,note_on,115,0,0,,2,,,74,127
92150,note_off,58,0,0,,5,,,65,127
92206,note_off,56,0,0,,2,,,74,127
92206,note_off,0,0,0,,5,,,53,127
92207,note_on,1,0,0,,12,,,47,127
92207,note_on,0,0,0,,5,,,65,127
92321,note_off,114,0,0,,5,,,65,127
92322,note_on,1,0,0,,4,,,64,127
92436,note_off,114,0,0,,4,,,64,127
92437,note_on,1,0,0,,5,,,65,127
92552,note_on,115,0,0,,2,,,74,127
92610,note_off,58,0,0,,5,,,65,127
92666,note_off,56,0,0,,2,,,74,127
92666,note_off,0,0,0,,12,,,47,127
92667,note_on,1,0,0,,11,,,46,127
92667,note_on,0,0,0,,7,,,67,127
92781,note_off,114,0,0,,7,,,67,127
92782,note_on,1,0,0,,5,,,65,127
92896,note_off,114,0,0,,5,,,65,127
92897,note_on,1,0,0,,7,,,67,127
93011,note_off,114,0,0,,7,,,67,127
93012,note_on,1,0,0,,4,,,76,127
93126,note_off,114,0,0,,4,,,76,127
93126,note_off,0,0,0,,11,,,46,127
93127,note_on,1,0,0,,10,,,45,127
93127,note_on,0,0,0,,5,,,77,127
93241,note_off,114,0,0,,5,,,77,127
93242,note_on,1,0,0,,0,,,72,127
93356,note_off,114,0,0,,0,,,72,127
93357,note_on,1,0,0,,10,,,69,127
93471,note_off,114,0,0,,10,,,69,127
93472,note_on,1,0,0,,5,,,65,127
93586,note_off,114,0,0,,5,,,65,127
93586,note_off,0,0,0,,10,,,45,127
93587,note_on,1,0,0,,11,,,46,127
93587,note_on,0,0,0,,2,,,74,127
93701,note_off,114,0,0,,2,,,74,127
93702,note_on,1,0,0,,11,,,70,127
93816,note_off,114,0,0,,11,,,70,127
93817,note_on,1,0,0,,5,,,65,127
93931,note_off,114,0,0,,5,,,65,127
93932,note_on,1,0,0,,2,,,62,127
94046,note_off,114,0,0,,2,,,62,127
94046,note_off,0,0,0,,11,,,46,127
94047,note_on,1,0,0,,0,,,48,127
94047,note_on,0,0,0,,5,,,65,127
94276,note_off,229,0,0,,5,,,65,127
94277,note_on,1,0,0,,4,,,64,127
94315,note_on,38,0,0,,5,,,65,127
94333,note_off,18,0,0,,4,,,64,127
94353,note_on,20,0,0,,4,,,64,127
94371,note_off,18,0,0,,5,,,65,127
94454,note_off,83,0,0,,0,,,48,127
94507,note_off,53,0,0,,4,,,64,127
94507,note_on,0,0,0,,5,,,53,127
94507,note_on,0,0,0,,5,,,65,127
94621,note_off,114,0,0,,5,,,65,127
94622,note_on,1,0,0,,4,,,64,127
94736,note_off,114,0,0,,4,,,64,127
94737,note_on,1,0,0,,5,,,65,127
94852,note_on,115,0,0,,2,,,74,127
94910,note_off,58,0,0,,5,,,65,127
94966,note_off,56,0,0,,2,,,74,127
94966,note_off,0,0,0,,5,,,53,127
94967,note_on,1,0,0,,12,,,47,127
94967,note_on,0,0,0,,5,,,65,127
95081,note_off,114,0,0,,5,,,65,127
95082,note_on,1,0,0,,4,,,64,127
95196,note_off,114,0,0,,4,,,64,127
95197,note_on,1,0,0,,5,,,65,127
95312,note_on,115,0,0,,2,,,74,127
95370,note_off,58,0,0,,5,,,65,127
95426,note_off,56,0,0,,2,,,74,127
95426,note_off,0,0,0,,12,,,47,127
95427,note_on,1,0,0,,11,,,46,127
95427,note_on,0,0,0,,7,,,67,127
95541,note_off,114,0,0,,7,,,67,127
95542,note_on,1,0,0,,5,,,65,127
95656,note_off,114,0,0,,5,,,65,127
95657,note_on,1,0,0,,7,,,67,127
95771,note_off,114,0,0,,7,,,67,127
95772,note_on,1,0,0,,4,,,76,127
95886,note_off,114,0,0,,4,,,76,127
95886,note_off,0,0,0,,11,,,46,127
95887,note_on,1,0,0,,10,,,45,127
95887,note_on,0,0,0,,5,,,77,127
96001,note_off,114,0,0,,5,,,77,127
96002,note_on,1,0,0,,0,,,72,127
96116,note_off,114,0,0,,0,,,72,127
96117,note_on,1,0,0,,10,,,69,127
96231,note_off,114,0,0,,10,,,69,127
96232,note_on,1,0,0,,5,,,65,127
96346,note_off,114,0,0,,5,,,65,127
96346,note_off,0,0,0,,10,,,45,127
96347,note_on,1,0,0,,2,,,74,127
96347,note_on,0,0,0,,11,,,46,127
96461,note_off,114,0,0,,2,,,74,127
96462,note_on,1,0,0,,11,,,70,127
96576,note_off,114,0,0,,11,,,70,127
96578,note_on,2,0,0,,5,,,65,127
96692,note_off,114,0,0,,5,,,65,127
96694,note_on,2,0,0,,2,,,62,127
96806,note_off,112,0,0,,11,,,46,127
96808,note_off,2,0,0,,2,,,62,127
96810,note_on,2,0,0,,5,,,65,127
96810,note_on,0,0,0,,0,,,48,127
97039,note_off,229,0,0,,5,,,65,127
97043,note_on,4,0,0,,5,,,65,127
97099,note_off,56,0,0,,5,,,65,127
97101,note_on,2,0,0,,4,,,64,127
97157,note_off,56,0,0,,4,,,64,127
97158,note_on,1,0,0,,2,,,62,127
97214,note_off,56,0,0,,2,,,62,127
97216,note_on,2,0,0,,4,,,64,127
97268,note_off,52,0,0,,0,,,48,127
97269,note_off,1,0,0,,4,,,64,127
97274,note_on,5,0,0,,4,,,64,127
97274,note_on,0,0,0,,5,,,41,127
97735,note_off,461,0,0,,4,,,64,127
97740,note_on,5,0,0,,5,,,65,127
99463,note_off,1723,0,0,,5,,,41,127
99468,note_off,5,0,0,,5,,,65,127
99840,end_of_track,372,1,0,,,,,,
