tick,type,time,meta,track,program,channel,pitch,tempo,note,velocity
0,copyright,0,1,0,,,,,,
0,program_change,0,0,0,6,0,,,,
0,pitchwheel,0,0,0,,0,0,,,
0,program_change,0,0,0,6,1,,,,
0,pitchwheel,0,0,0,,1,-590,,,
0,program_change,0,0,0,6,2,,,,
0,pitchwheel,0,0,0,,2,-272,,,
0,program_change,0,0,0,6,3,,,,
0,pitchwheel,0,0,0,,3,-353,,,
0,program_change,0,0,0,6,4,,,,
0,pitchwheel,0,0,0,,4,-560,,,
0,program_change,0,0,0,6,5,,,,
0,pitchwheel,0,0,0,,5,-80,,,
0,program_change,0,0,0,6,6,,,,
0,pitchwheel,0,0,0,,6,-625,,,
0,program_change,0,0,0,6,7,,,,
0,pitchwheel,0,0,0,,7,-130,,,
0,program_change,0,0,0,6,8,,,,
0,pitchwheel,0,0,0,,8,-512,,,
0,program_change,0,0,0,6,10,,,,
0,pitchwheel,0,0,0,,10,-464,,,
0,program_change,0,0,0,6,11,,,,
0,pitchwheel,0,0,0,,11,-208,,,
0,program_change,0,0,0,6,12,,,,
0,pitchwheel,0,0,0,,12,-553,,,
0,set_tempo,0,1,0,,,,500000,,
92,note_on,92,0,0,,5,,,53,127
330,note_on,238,0,0,,0,,,72,127
548,note_off,218,0,0,,5,,,53,127
559,note_off,11,0,0,,0,,,72,127
560,note_on,1,0,0,,11,,,82,127
789,note_off,229,0,0,,11,,,82,127
790,note_on,1,0,0,,10,,,81,127
1020,note_on,230,0,0,,0,,,60,127
1096,note_off,76,0,0,,10,,,81,127
1097,note_on,1,0,0,,7,,,79,127
1173,note_off,76,0,0,,7,,,79,127
1174,note_on,1,0,0,,10,,,81,127
1250,note_off,76,0,0,,10,,,81,127
1250,note_off,0,0,0,,0,,,60,127
1251,note_on,1,0,0,,11,,,70,127
1251,note_on,0,0,0,,7,,,79,127
1327,note_off,76,0,0,,7,,,79,127
1328,note_on,1,0,0,,10,,,81,127
1404,note_off,76,0,0,,10,,,81,127
1405,note_on,1,0,0,,7,,,79,127
1481,note_off,76,0,0,,11,,,70,127
1482,note_on,1,0,0,,10,,,69,127
1559,note_off,77,0,0,,7,,,79,127
1713,note_on,154,0,0,,0,,,84,127
1713,note_on,0,0,0,,5,,,77,127
1942,note_off,229,0,0,,5,,,77,127
1942,note_off,0,0,0,,10,,,69,127
1943,note_on,1,0,0,,7,,,67,127
1943,note_on,0,0,0,,4,,,76,127
2169,note_off,226,0,0,,0,,,84,127
2173,note_off,4,0,0,,7,,,67,127
2174,note_on,1,0,0,,5,,,65,127
2289,note_off,115,0,0,,4,,,76,127
2404,note_on,115,0,0,,2,,,74,127
2404,note_on,0,0,0,,10,,,81,127
2633,note_off,229,0,0,,2,,,74,127
2633,note_off,0,0,0,,5,,,65,127
2634,note_on,1,0,0,,4,,,64,127
2634,note_on,0,0,0,,0,,,72,127
2860,note_off,226,0,0,,10,,,81,127
2864,note_off,4,0,0,,4,,,64,127
2865,note_on,1,0,0,,2,,,62,127
2980,note_off,115,0,0,,0,,,72,127
3095,note_on,115,0,0,,5,,,77,127
3095,note_on,0,0,0,,11,,,70,127
3324,note_off,229,0,0,,11,,,70,127
3324,note_off,0,0,0,,2,,,62,127
3325,note_on,1,0,0,,0,,,60,127
3325,note_on,0,0,0,,10,,,69,127
3551,note_off,226,0,0,,5,,,77,127
3555,note_off,4,0,0,,0,,,60,127
3556,note_on,1,0,0,,11,,,58,127
3671,note_off,115,0,0,,10,,,69,127
3786,note_on,115,0,0,,4,,,64,127
3786,note_on,0,0,0,,2,,,74,127
4015,note_off,229,0,0,,2,,,74,127
4015,note_off,0,0,0,,4,,,64,127
4015,note_off,0,0,0,,11,,,58,127
4016,note_on,1,0,0,,10,,,57,127
4016,note_on,0,0,0,,0,,,72,127
4016,note_on,0,0,0,,5,,,65,127
4245,note_off,229,0,0,,5,,,65,127
4245,note_off,0,0,0,,0,,,72,127
4245,note_off,0,0,0,,10,,,57,127
4246,note_on,1,0,0,,11,,,58,127
4246,note_on,0,0,0,,11,,,70,127
4246,note_on,0,0,0,,7,,,67,127
4475,note_off,229,0,0,,7,,,67,127
4475,note_off,0,0,0,,11,,,70,127
4475,note_off,0,0,0,,11,,,58,127
4476,note_on,1,0,0,,0,,,60,127
4476,note_on,0,0,0,,5,,,65,127
4476,note_on,0,0,0,,10,,,69,127
4705,note_off,229,0,0,,10,,,69,127
4705,note_off,0,0,0,,5,,,65,127
4705,note_off,0,0,0,,0,,,60,127
4706,note_on,1,0,0,,0,,,48,127
4706,note_on,0,0,0,,7,,,67,127
4706,note_on,0,0,0,,4,,,64,127
4935,note_off,229,0,0,,4,,,64,127
4935,note_off,0,0,0,,7,,,67,127
4935,note_off,0,0,0,,0,,,48,127
4936,note_on,1,0,0,,5,,,53,127
4936,note_on,0,0,0,,7,,,67,127
5050,note_off,114,0,0,,7,,,67,127
5051,note_on,1,0,0,,5,,,65,127
5165,note_off,114,0,0,,5,,,65,127
5165,note_off,0,0,0,,5,,,53,127
5166,note_on,1,0,0,,0,,,48,127
5166,note_on,0,0,0,,4,,,64,127
5390,note_on,224,0,0,,5,,,41,127
5390,note_on,0,0,0,,5,,,65,127
5395,note_off,5,0,0,,4,,,64,127
5395,note_off,0,0,0,,0,,,48,127
5619,note_off,224,0,0,,5,,,41,127
5631,note_on,12,0,0,,5,,,53,127
5850,note_off,219,0,0,,5,,,65,127
5857,note_on,7,0,0,,0,,,72,127
6086,note_off,229,0,0,,0,,,72,127
6087,note_on,1,0,0,,11,,,82,127
6207,note_off,120,0,0,,5,,,53,127
6316,note_off,109,0,0,,11,,,82,127
6317,note_on,1,0,0,,10,,,81,127
6547,note_on,230,0,0,,0,,,60,127
6623,note_off,76,0,0,,10,,,81,127
6624,note_on,1,0,0,,7,,,79,127
6700,note_off,76,0,0,,7,,,79,127
6701,note_on,1,0,0,,10,,,81,127
6777,note_off,76,0,0,,10,,,81,127
6777,note_off,0,0,0,,0,,,60,127
6778,note_on,1,0,0,,11,,,70,127
6778,note_on,0,0,0,,7,,,79,127
6854,note_off,76,0,0,,7,,,79,127
6855,note_on,1,0,0,,10,,,81,127
6931,note_off,76,0,0,,10,,,81,127
6932,note_on,1,0,0,,7,,,79,127
7008,note_off,76,0,0,,11,,,70,127
7009,note_on,1,0,0,,10,,,69,127
7086,note_off,77,0,0,,7,,,79,127
7240,note_on,154,0,0,,0,,,84,127
7240,note_on,0,0,0,,5,,,77,127
7469,note_off,229,0,0,,5,,,77,127
7469,note_off,0,0,0,,10,,,69,127
7470,note_on,1,0,0,,7,,,67,127
7470,note_on,0,0,0,,4,,,76,127
7696,note_off,226,0,0,,0,,,84,127
7700,note_off,4,0,0,,7,,,67,127
7701,note_on,1,0,0,,5,,,65,127
7816,note_off,115,0,0,,4,,,76,127
7931,note_on,115,0,0,,10,,,81,127
7931,note_on,0,0,0,,2,,,74,127
8160,note_off,229,0,0,,2,,,74,127
8160,note_off,0,0,0,,5,,,65,127
8161,note_on,1,0,0,,4,,,64,127
8161,note_on,0,0,0,,0,,,72,127
8387,note_off,226,0,0,,10,,,81,127
8391,note_off,4,0,0,,4,,,64,127
8392,note_on,1,0,0,,2,,,62,127
8507,note_off,115,0,0,,0,,,72,127
8622,note_on,115,0,0,,11,,,70,127
8622,note_on,0,0,0,,5,,,77,127
8851,note_off,229,0,0,,11,,,70,127
8851,note_off,0,0,0,,2,,,62,127
8852,note_on,1,0,0,,0,,,60,127
8852,note_on,0,0,0,,10,,,69,127
9078,note_off,226,0,0,,5,,,77,127
9082,note_off,4,0,0,,0,,,60,127
9083,note_on,1,0,0,,11,,,58,127
9198,note_off,115,0,0,,10,,,69,127
9313,note_on,115,0,0,,4,,,64,127
9313,note_on,0,0,0,,2,,,74,127
9542,note_off,229,0,0,,2,,,74,127
9542,note_off,0,0,0,,4,,,64,127
9542,note_off,0,0,0,,11,,,58,127
9543,note_on,1,0,0,,10,,,57,127
9543,note_on,0,0,0,,0,,,72,127
9543,note_on,0,0,0,,5,,,65,127
9772,note_off,229,0,0,,5,,,65,127
9772,note_off,0,0,0,,0,,,72,127
9772,note_off,0,0,0,,10,,,57,127
9773,note_on,1,0,0,,11,,,58,127
9773,note_on,0,0,0,,11,,,70,127
9773,note_on,0,0,0,,7,,,67,127
10002,note_off,229,0,0,,7,,,67,127
10002,note_off,0,0,0,,11,,,70,127
10002,note_off,0,0,0,,11,,,58,127
10003,note_on,1,0,0,,0,,,60,127
10003,note_on,0,0,0,,5,,,65,127
10003,note_on,0,0,0,,10,,,69,127
10232,note_off,229,0,0,,10,,,69,127
10232,note_off,0,0,0,,5,,,65,127
10232,note_off,0,0,0,,0,,,60,127
10233,note_on,1,0,0,,0,,,48,127
10233,note_on,0,0,0,,7,,,67,127
10233,note_on,0,0,0,,4,,,64,127
10462,note_off,229,0,0,,4,,,64,127
10462,note_off,0,0,0,,7,,,67,127
10462,note_off,0,0,0,,0,,,48,127
10463,note_on,1,0,0,,5,,,53,127
10463,note_on,0,0,0,,7,,,67,127
10577,note_off,114,0,0,,7,,,67,127
10578,note_on,1,0,0,,5,,,65,127
10692,note_off,114,0,0,,5,,,65,127
10692,note_off,0,0,0,,5,,,53,127
10699,note_on,7,0,0,,4,,,64,127
10699,note_on,0,0,0,,0,,,48,127
10969,note_off,270,0,0,,0,,,48,127
10969,note_off,0,0,0,,4,,,64,127
10971,note_on,2,0,0,,5,,,65,127
10971,note_on,0,0,0,,5,,,41,127
11471,note_off,500,0,0,,5,,,41,127
11471,note_off,0,0,0,,5,,,65,127
11892,note_on,421,0,0,,5,,,53,127
12122,note_on,230,0,0,,5,,,77,127
12351,note_off,229,0,0,,5,,,77,127
12352,note_on,1,0,0,,5,,,65,127
12352,note_on,0,0,0,,2,,,74,127
12581,note_off,229,0,0,,2,,,74,127
12581,note_off,0,0,0,,5,,,53,127
12582,note_on,1,0,0,,7,,,55,127
12582,note_on,0,0,0,,0,,,72,127
12658,note_off,76,0,0,,0,,,72,127
12659,note_on,1,0,0,,12,,,71,127
12735,note_off,76,0,0,,12,,,71,127
12736,note_on,1,0,0,,0,,,72,127
12808,note_off,72,0,0,,5,,,65,127
12812,note_off,4,0,0,,0,,,72,127
12813,note_on,1,0,0,,2,,,62,127
12813,note_on,0,0,0,,12,,,71,127
12889,note_off,76,0,0,,12,,,71,127
12890,note_on,1,0,0,,0,,,72,127
12966,note_off,76,0,0,,0,,,72,127
12967,note_on,1,0,0,,12,,,71,127
13043,note_off,76,0,0,,12,,,71,127
13043,note_off,0,0,0,,2,,,62,127
13044,note_on,1,0,0,,4,,,64,127
13044,note_on,0,0,0,,0,,,72,127
13272,note_off,228,0,0,,0,,,72,127
13273,note_off,1,0,0,,4,,,64,127
13273,note_off,0,0,0,,7,,,55,127
13274,note_on,1,0,0,,7,,,55,127
13274,note_on,0,0,0,,5,,,65,127
13503,note_off,229,0,0,,5,,,65,127
13504,note_on,1,0,0,,2,,,62,127
13504,note_on,0,0,0,,2,,,74,127
13733,note_off,229,0,0,,2,,,74,127
13733,note_off,0,0,0,,2,,,62,127
13734,note_on,1,0,0,,12,,,59,127
13734,note_on,0,0,0,,5,,,77,127
13963,note_off,229,0,0,,12,,,59,127
13963,note_off,0,0,0,,7,,,55,127
13964,note_on,1,0,0,,0,,,60,127
14193,note_off,229,0,0,,5,,,77,127
14194,note_on,1,0,0,,4,,,76,127
14270,note_off,76,0,0,,4,,,76,127
14271,note_on,1,0,0,,5,,,77,127
14347,note_off,76,0,0,,5,,,77,127
14348,note_on,1,0,0,,4,,,76,127
14424,note_off,76,0,0,,4,,,76,127
14424,note_off,0,0,0,,0,,,60,127
14425,note_on,1,0,0,,7,,,55,127
14425,note_on,0,0,0,,2,,,74,127
14654,note_off,229,0,0,,7,,,55,127
14655,note_on,1,0,0,,7,,,67,127
14655,note_on,0,0,0,,7,,,55,127
14881,note_off,226,0,0,,2,,,74,127
14886,note_on,5,0,0,,7,,,79,127
15115,note_off,229,0,0,,7,,,79,127
15116,note_on,1,0,0,,4,,,76,127
15345,note_off,229,0,0,,4,,,76,127
15345,note_off,0,0,0,,7,,,55,127
15346,note_on,1,0,0,,10,,,57,127
15346,note_on,0,0,0,,2,,,74,127
15422,note_off,76,0,0,,2,,,74,127
15423,note_on,1,0,0,,1,,,73,127
15499,note_off,76,0,0,,1,,,73,127
15500,note_on,1,0,0,,2,,,74,127
15576,note_off,76,0,0,,2,,,74,127
15576,note_off,0,0,0,,7,,,67,127
15577,note_on,1,0,0,,4,,,64,127
15577,note_on,0,0,0,,1,,,73,127
15653,note_off,76,0,0,,1,,,73,127
15654,note_on,1,0,0,,2,,,74,127
15730,note_off,76,0,0,,2,,,74,127
15731,note_on,1,0,0,,1,,,73,127
15807,note_off,76,0,0,,1,,,73,127
15807,note_off,0,0,0,,4,,,64,127
15808,note_on,1,0,0,,5,,,65,127
15808,note_on,0,0,0,,2,,,74,127
16036,note_off,228,0,0,,2,,,74,127
16037,note_off,1,0,0,,5,,,65,127
16037,note_off,0,0,0,,10,,,57,127
16038,note_on,1,0,0,,4,,,64,127
16038,note_on,0,0,0,,10,,,57,127
16267,note_off,229,0,0,,4,,,64,127
16268,note_on,1,0,0,,1,,,61,127
16268,note_on,0,0,0,,4,,,76,127
16494,note_off,226,0,0,,10,,,57,127
16498,note_off,4,0,0,,4,,,76,127
16498,note_off,0,0,0,,1,,,61,127
16499,note_on,1,0,0,,10,,,57,127
16499,note_on,0,0,0,,7,,,79,127
16728,note_off,229,0,0,,10,,,57,127
16729,note_on,1,0,0,,2,,,62,127
16958,note_off,229,0,0,,7,,,79,127
16959,note_on,1,0,0,,5,,,77,127
17035,note_off,76,0,0,,5,,,77,127
17036,note_on,1,0,0,,7,,,79,127
17112,note_off,76,0,0,,7,,,79,127
17113,note_on,1,0,0,,5,,,77,127
17189,note_off,76,0,0,,5,,,77,127
17189,note_off,0,0,0,,2,,,62,127
17190,note_on,1,0,0,,10,,,57,127
17190,note_on,0,0,0,,4,,,76,127
17418,note_off,228,0,0,,4,,,76,127
17419,note_off,1,0,0,,10,,,57,127
17425,note_on,6,0,0,,5,,,65,127
17651,note_on,226,0,0,,10,,,81,127
17651,note_on,0,0,0,,10,,,69,127
17880,note_off,229,0,0,,10,,,81,127
17881,note_on,1,0,0,,4,,,64,127
17881,note_on,0,0,0,,7,,,79,127
17885,note_off,4,0,0,,5,,,65,127
18111,note_off,226,0,0,,7,,,79,127
18111,note_off,0,0,0,,4,,,64,127
18112,note_on,1,0,0,,2,,,62,127
18112,note_on,0,0,0,,5,,,77,127
18341,note_off,229,0,0,,10,,,69,127
18342,note_on,1,0,0,,12,,,71,127
18568,note_off,226,0,0,,5,,,77,127
18572,note_off,4,0,0,,12,,,71,127
18572,note_off,0,0,0,,2,,,62,127
18573,note_on,1,0,0,,0,,,60,127
18573,note_on,0,0,0,,4,,,76,127
18573,note_on,0,0,0,,0,,,72,127
18802,note_off,229,0,0,,0,,,60,127
18803,note_on,1,0,0,,12,,,59,127
18837,note_off,34,0,0,,0,,,72,127
18837,note_off,0,0,0,,4,,,76,127
19034,note_on,197,0,0,,2,,,62,127
19034,note_on,0,0,0,,2,,,74,127
19263,note_off,229,0,0,,2,,,74,127
19263,note_off,0,0,0,,2,,,62,127
19263,note_off,0,0,0,,12,,,59,127
19264,note_on,1,0,0,,10,,,57,127
19264,note_on,0,0,0,,0,,,72,127
19264,note_on,0,0,0,,6,,,66,127
19493,note_off,229,0,0,,6,,,66,127
19493,note_off,0,0,0,,10,,,57,127
19494,note_on,1,0,0,,7,,,55,127
19494,note_on,0,0,0,,7,,,67,127
19720,note_off,226,0,0,,0,,,72,127
19724,note_off,4,0,0,,7,,,67,127
19725,note_on,1,0,0,,5,,,53,127
19725,note_on,0,0,0,,12,,,71,127
19951,note_off,226,0,0,,7,,,55,127
19955,note_off,4,0,0,,12,,,71,127
19955,note_off,0,0,0,,5,,,53,127
19956,note_on,1,0,0,,4,,,52,127
19956,note_on,0,0,0,,0,,,60,127
19956,note_on,0,0,0,,0,,,72,127
20185,note_off,229,0,0,,0,,,72,127
20185,note_off,0,0,0,,4,,,52,127
20186,note_on,1,0,0,,2,,,50,127
20186,note_on,0,0,0,,2,,,74,127
20412,note_off,226,0,0,,0,,,60,127
20417,note_on,5,0,0,,12,,,59,127
20643,note_off,226,0,0,,2,,,50,127
20647,note_off,4,0,0,,12,,,59,127
20647,note_off,0,0,0,,2,,,74,127
20648,note_on,1,0,0,,0,,,60,127
20648,note_on,0,0,0,,0,,,48,127
20648,note_on,0,0,0,,4,,,76,127
20877,note_off,229,0,0,,0,,,48,127
20877,note_off,0,0,0,,0,,,60,127
20878,note_on,1,0,0,,7,,,43,127
21107,note_off,229,0,0,,4,,,76,127
21113,note_on,6,0,0,,4,,,76,127
21197,note_off,84,0,0,,4,,,76,127
21199,note_on,2,0,0,,2,,,74,127
21283,note_off,84,0,0,,2,,,74,127
21287,note_on,4,0,0,,0,,,72,127
21371,note_off,84,0,0,,0,,,72,127
21382,note_on,11,0,0,,2,,,74,127
21650,note_off,268,0,0,,7,,,43,127
21982,note_off,332,0,0,,2,,,74,127
22414,note_on,432,0,0,,7,,,55,127
22644,note_on,230,0,0,,2,,,62,127
22644,note_on,0,0,0,,2,,,74,127
22873,note_off,229,0,0,,2,,,74,127
22873,note_off,0,0,0,,2,,,62,127
22874,note_on,1,0,0,,7,,,67,127
22874,note_on,0,0,0,,3,,,75,127
23103,note_off,229,0,0,,3,,,75,127
23103,note_off,0,0,0,,7,,,55,127
23104,note_on,1,0,0,,8,,,56,127
23104,note_on,0,0,0,,2,,,74,127
23330,note_off,226,0,0,,7,,,67,127
23334,note_off,4,0,0,,2,,,74,127
23335,note_on,1,0,0,,5,,,65,127
23335,note_on,0,0,0,,2,,,74,127
23411,note_off,76,0,0,,2,,,74,127
23412,note_on,1,0,0,,0,,,72,127
23488,note_off,76,0,0,,0,,,72,127
23489,note_on,1,0,0,,2,,,74,127
23565,note_off,76,0,0,,2,,,74,127
23565,note_off,0,0,0,,5,,,65,127
23566,note_on,1,0,0,,2,,,62,127
23566,note_on,0,0,0,,0,,,72,127
23642,note_off,76,0,0,,0,,,72,127
23643,note_on,1,0,0,,2,,,74,127
23719,note_off,76,0,0,,2,,,74,127
23720,note_on,1,0,0,,0,,,72,127
23796,note_off,76,0,0,,2,,,62,127
23796,note_off,0,0,0,,8,,,56,127
23797,note_on,1,0,0,,7,,,55,127
23816,note_off,19,0,0,,0,,,72,127
24027,note_on,211,0,0,,2,,,62,127
24027,note_on,0,0,0,,2,,,74,127
24256,note_off,229,0,0,,2,,,74,127
24256,note_off,0,0,0,,2,,,62,127
24257,note_on,1,0,0,,7,,,67,127
24257,note_on,0,0,0,,3,,,75,127
24486,note_off,229,0,0,,3,,,75,127
24486,note_off,0,0,0,,7,,,55,127
24487,note_on,1,0,0,,8,,,56,127
24487,note_on,0,0,0,,2,,,74,127
24713,note_off,226,0,0,,7,,,67,127
24717,note_off,4,0,0,,2,,,74,127
24718,note_on,1,0,0,,5,,,65,127
24718,note_on,0,0,0,,2,,,74,127
24794,note_off,76,0,0,,2,,,74,127
24795,note_on,1,0,0,,0,,,72,127
24871,note_off,76,0,0,,0,,,72,127
24872,note_on,1,0,0,,2,,,74,127
24948,note_off,76,0,0,,2,,,74,127
24948,note_off,0,0,0,,5,,,65,127
24949,note_on,1,0,0,,2,,,62,127
24949,note_on,0,0,0,,0,,,72,127
25025,note_off,76,0,0,,0,,,72,127
25026,note_on,1,0,0,,2,,,74,127
25102,note_off,76,0,0,,2,,,74,127
25103,note_on,1,0,0,,0,,,72,127
25179,note_off,76,0,0,,2,,,62,127
25179,note_off,0,0,0,,8,,,56,127
25180,note_on,1,0,0,,7,,,55,127
25180,note_on,0,0,0,,3,,,63,127
25409,note_off,229,0,0,,3,,,63,127
25409,note_off,0,0,0,,0,,,72,127
25410,note_on,1,0,0,,2,,,62,127
25410,note_on,0,0,0,,12,,,71,127
25410,note_on,0,0,0,,7,,,79,127
25639,note_off,229,0,0,,12,,,71,127
25640,note_on,1,0,0,,7,,,67,127
25866,note_off,226,0,0,,7,,,79,127
25870,note_off,4,0,0,,7,,,67,127
25870,note_off,0,0,0,,7,,,55,127
25871,note_on,1,0,0,,5,,,77,127
25871,note_on,0,0,0,,8,,,68,127
26101,note_on,230,0,0,,5,,,53,127
26330,note_off,229,0,0,,8,,,68,127
26330,note_off,0,0,0,,5,,,77,127
26330,note_off,0,0,0,,2,,,62,127
26331,note_on,1,0,0,,8,,,80,127
26331,note_on,0,0,0,,0,,,72,127
26560,note_off,229,0,0,,5,,,53,127
26561,note_on,1,0,0,,2,,,50,127
26790,note_off,229,0,0,,0,,,72,127
26790,note_off,0,0,0,,8,,,80,127
26791,note_on,1,0,0,,12,,,83,127
26791,note_on,0,0,0,,2,,,74,127
27021,note_on,230,0,0,,12,,,59,127
27247,note_off,226,0,0,,2,,,74,127
27247,note_off,0,0,0,,12,,,83,127
27251,note_off,4,0,0,,12,,,59,127
27251,note_off,0,0,0,,2,,,50,127
27252,note_on,1,0,0,,3,,,51,127
27252,note_on,0,0,0,,0,,,60,127
27482,note_on,230,0,0,,0,,,84,127
27711,note_off,229,0,0,,0,,,84,127
27711,note_off,0,0,0,,0,,,60,127
27711,note_off,0,0,0,,3,,,51,127
27712,note_on,1,0,0,,5,,,53,127
27712,note_on,0,0,0,,2,,,62,127
27712,note_on,0,0,0,,0,,,72,127
27941,note_off,229,0,0,,2,,,62,127
27941,note_off,0,0,0,,5,,,53,127
27942,note_on,1,0,0,,3,,,63,127
27942,note_on,0,0,0,,7,,,55,127
28171,note_off,229,0,0,,3,,,63,127
28171,note_off,0,0,0,,0,,,72,127
28172,note_on,1,0,0,,2,,,62,127
28172,note_on,0,0,0,,0,,,72,127
28248,note_off,76,0,0,,0,,,72,127
28249,note_on,1,0,0,,12,,,71,127
28325,note_off,76,0,0,,12,,,71,127
28326,note_on,1,0,0,,0,,,72,127
28402,note_off,76,0,0,,0,,,72,127
28402,note_off,0,0,0,,2,,,62,127
28403,note_on,1,0,0,,5,,,65,127
28403,note_on,0,0,0,,12,,,71,127
28479,note_off,76,0,0,,12,,,71,127
28480,note_on,1,0,0,,10,,,69,127
28556,note_off,76,0,0,,10,,,69,127
28557,note_on,1,0,0,,12,,,71,127
28633,note_off,76,0,0,,12,,,71,127
28633,note_off,0,0,0,,7,,,55,127
28634,note_on,1,0,0,,0,,,60,127
28634,note_on,0,0,0,,0,,,72,127
28860,note_off,226,0,0,,5,,,65,127
28865,note_on,5,0,0,,3,,,63,127
28979,note_off,114,0,0,,3,,,63,127
28980,note_on,1,0,0,,2,,,62,127
29090,note_off,110,0,0,,0,,,60,127
29094,note_off,4,0,0,,2,,,62,127
29095,note_on,1,0,0,,0,,,60,127
29324,note_off,229,0,0,,0,,,60,127
29324,note_off,0,0,0,,0,,,72,127
29346,note_on,22,0,0,,7,,,55,127
29572,note_on,226,0,0,,2,,,74,127
29572,note_on,0,0,0,,2,,,62,127
29801,note_off,229,0,0,,2,,,62,127
29801,note_off,0,0,0,,2,,,74,127
29802,note_on,1,0,0,,3,,,75,127
29802,note_on,0,0,0,,7,,,67,127
30031,note_off,229,0,0,,3,,,75,127
30032,note_on,1,0,0,,2,,,74,127
30032,note_on,0,0,0,,8,,,56,127
30036,note_off,4,0,0,,7,,,55,127
30258,note_off,222,0,0,,7,,,67,127
30262,note_off,4,0,0,,2,,,74,127
30263,note_on,1,0,0,,2,,,74,127
30263,note_on,0,0,0,,5,,,65,127
30339,note_off,76,0,0,,2,,,74,127
30340,note_on,1,0,0,,0,,,72,127
30416,note_off,76,0,0,,0,,,72,127
30417,note_on,1,0,0,,2,,,74,127
30493,note_off,76,0,0,,2,,,74,127
30493,note_off,0,0,0,,5,,,65,127
30494,note_on,1,0,0,,0,,,72,127
30494,note_on,0,0,0,,2,,,62,127
30570,note_off,76,0,0,,0,,,72,127
30571,note_on,1,0,0,,2,,,74,127
30647,note_off,76,0,0,,2,,,74,127
30648,note_on,1,0,0,,0,,,72,127
30724,note_off,76,0,0,,2,,,62,127
30724,note_off,0,0,0,,8,,,56,127
30725,note_on,1,0,0,,7,,,55,127
30744,note_off,19,0,0,,0,,,72,127
30955,note_on,211,0,0,,2,,,74,127
30955,note_on,0,0,0,,2,,,62,127
31184,note_off,229,0,0,,2,,,62,127
31184,note_off,0,0,0,,2,,,74,127
31185,note_on,1,0,0,,3,,,75,127
31185,note_on,0,0,0,,7,,,67,127
31414,note_off,229,0,0,,3,,,75,127
31414,note_off,0,0,0,,7,,,55,127
31415,note_on,1,0,0,,2,,,74,127
31415,note_on,0,0,0,,8,,,56,127
31641,note_off,226,0,0,,7,,,67,127
31645,note_off,4,0,0,,2,,,74,127
31646,note_on,1,0,0,,2,,,74,127
31646,note_on,0,0,0,,5,,,65,127
31722,note_off,76,0,0,,2,,,74,127
31723,note_on,1,0,0,,0,,,72,127
31799,note_off,76,0,0,,0,,,72,127
31800,note_on,1,0,0,,2,,,74,127
31876,note_off,76,0,0,,2,,,74,127
31876,note_off,0,0,0,,5,,,65,127
31877,note_on,1,0,0,,0,,,72,127
31877,note_on,0,0,0,,2,,,62,127
31953,note_off,76,0,0,,0,,,72,127
31954,note_on,1,0,0,,2,,,74,127
32030,note_off,76,0,0,,2,,,74,127
32031,note_on,1,0,0,,0,,,72,127
32107,note_off,76,0,0,,2,,,62,127
32107,note_off,0,0,0,,8,,,56,127
32108,note_on,1,0,0,,3,,,63,127
32108,note_on,0,0,0,,7,,,55,127
32337,note_off,229,0,0,,3,,,63,127
32337,note_off,0,0,0,,0,,,72,127
32338,note_on,1,0,0,,12,,,71,127
32338,note_on,0,0,0,,7,,,79,127
32338,note_on,0,0,0,,2,,,62,127
32567,note_off,229,0,0,,7,,,79,127
32567,note_off,0,0,0,,12,,,71,127
32568,note_on,1,0,0,,7,,,67,127
32797,note_off,229,0,0,,7,,,67,127
32797,note_off,0,0,0,,7,,,55,127
32798,note_on,1,0,0,,8,,,68,127
32798,note_on,0,0,0,,5,,,77,127
33028,note_on,230,0,0,,5,,,53,127
33257,note_off,229,0,0,,5,,,77,127
33257,note_off,0,0,0,,8,,,68,127
33257,note_off,0,0,0,,2,,,62,127
33258,note_on,1,0,0,,0,,,72,127
33258,note_on,0,0,0,,8,,,80,127
33487,note_off,229,0,0,,5,,,53,127
33488,note_on,1,0,0,,2,,,50,127
33717,note_off,229,0,0,,8,,,80,127
33717,note_off,0,0,0,,0,,,72,127
33718,note_on,1,0,0,,2,,,74,127
33718,note_on,0,0,0,,12,,,83,127
33948,note_on,230,0,0,,12,,,59,127
34174,note_off,226,0,0,,12,,,83,127
34174,note_off,0,0,0,,2,,,74,127
34178,note_off,4,0,0,,12,,,59,127
34178,note_off,0,0,0,,2,,,50,127
34179,note_on,1,0,0,,0,,,60,127
34179,note_on,0,0,0,,3,,,51,127
34409,note_on,230,0,0,,0,,,84,127
34638,note_off,229,0,0,,0,,,84,127
34638,note_off,0,0,0,,3,,,51,127
34638,note_off,0,0,0,,0,,,60,127
34639,note_on,1,0,0,,0,,,72,127
34639,note_on,0,0,0,,5,,,53,127
34639,note_on,0,0,0,,2,,,62,127
34868,note_off,229,0,0,,2,,,62,127
34868,note_off,0,0,0,,5,,,53,127
34869,note_on,1,0,0,,3,,,63,127
34869,note_on,0,0,0,,7,,,55,127
35098,note_off,229,0,0,,3,,,63,127
35098,note_off,0,0,0,,0,,,72,127
35099,note_on,1,0,0,,0,,,72,127
35099,note_on,0,0,0,,2,,,62,127
35175,note_off,76,0,0,,0,,,72,127
35176,note_on,1,0,0,,12,,,71,127
35252,note_off,76,0,0,,12,,,71,127
35253,note_on,1,0,0,,0,,,72,127
35329,note_off,76,0,0,,0,,,72,127
35329,note_off,0,0,0,,2,,,62,127
35330,note_on,1,0,0,,12,,,71,127
35330,note_on,0,0,0,,5,,,65,127
35406,note_off,76,0,0,,12,,,71,127
35407,note_on,1,0,0,,0,,,72,127
35483,note_off,76,0,0,,0,,,72,127
35484,note_on,1,0,0,,12,,,71,127
35548,note_off,64,0,0,,7,,,55,127
35560,note_off,12,0,0,,5,,,65,127
35561,note_off,1,0,0,,12,,,71,127
35604,note_on,43,0,0,,0,,,36,127
35824,note_on,220,0,0,,0,,,72,127
35824,note_on,0,0,0,,4,,,76,127
36054,note_on,230,0,0,,4,,,64,127
36283,note_off,229,0,0,,4,,,64,127
36284,note_on,1,0,0,,5,,,65,127
36284,note_on,0,0,0,,2,,,38,127
36294,note_off,10,0,0,,0,,,36,127
36514,note_off,220,0,0,,4,,,76,127
36514,note_off,0,0,0,,0,,,72,127
36515,note_on,1,0,0,,2,,,74,127
36515,note_on,0,0,0,,5,,,77,127
36741,note_off,226,0,0,,5,,,65,127
36746,note_on,5,0,0,,6,,,66,127
36975,note_off,229,0,0,,6,,,66,127
36975,note_off,0,0,0,,2,,,38,127
36976,note_on,1,0,0,,7,,,67,127
36976,note_on,0,0,0,,4,,,40,127
37205,note_off,229,0,0,,5,,,77,127
37205,note_off,0,0,0,,2,,,74,127
37206,note_on,1,0,0,,7,,,79,127
37206,note_on,0,0,0,,4,,,76,127
37432,note_off,226,0,0,,7,,,67,127
37437,note_on,5,0,0,,8,,,68,127
37666,note_off,229,0,0,,8,,,68,127
37666,note_off,0,0,0,,4,,,40,127
37667,note_on,1,0,0,,10,,,69,127
37667,note_on,0,0,0,,5,,,41,127
37896,note_off,229,0,0,,4,,,76,127
37896,note_off,0,0,0,,7,,,79,127
37897,note_on,1,0,0,,10,,,81,127
38123,note_off,226,0,0,,10,,,69,127
38127,note_off,4,0,0,,10,,,81,127
38128,note_on,1,0,0,,2,,,74,127
38128,note_on,0,0,0,,5,,,77,127
38357,note_off,229,0,0,,5,,,77,127
38357,note_off,0,0,0,,2,,,74,127
38357,note_off,0,0,0,,5,,,41,127
38358,note_on,1,0,0,,0,,,72,127
38358,note_on,0,0,0,,4,,,76,127
38358,note_on,0,0,0,,7,,,43,127
38587,note_off,229,0,0,,4,,,76,127
38587,note_off,0,0,0,,0,,,72,127
38588,note_on,1,0,0,,4,,,76,127
38588,note_on,0,0,0,,0,,,72,127
38664,note_off,76,0,0,,0,,,72,127
38664,note_off,0,0,0,,4,,,76,127
38665,note_on,1,0,0,,2,,,74,127
38665,note_on,0,0,0,,12,,,71,127
38741,note_off,76,0,0,,12,,,71,127
38741,note_off,0,0,0,,2,,,74,127
38742,note_on,1,0,0,,4,,,76,127
38742,note_on,0,0,0,,0,,,72,127
38818,note_off,76,0,0,,0,,,72,127
38818,note_off,0,0,0,,4,,,76,127
38819,note_on,1,0,0,,2,,,74,127
38819,note_on,0,0,0,,12,,,71,127
38895,note_off,76,0,0,,12,,,71,127
38895,note_off,0,0,0,,2,,,74,127
38896,note_on,1,0,0,,4,,,76,127
38896,note_on,0,0,0,,0,,,72,127
38972,note_off,76,0,0,,0,,,72,127
38972,note_off,0,0,0,,4,,,76,127
38973,note_on,1,0,0,,2,,,74,127
38973,note_on,0,0,0,,12,,,71,127
39049,note_off,76,0,0,,12,,,71,127
39049,note_off,0,0,0,,2,,,74,127
39049,note_off,0,0,0,,7,,,43,127
39050,note_on,1,0,0,,0,,,72,127
39050,note_on,0,0,0,,0,,,36,127
39279,note_off,229,0,0,,0,,,72,127
39280,note_on,1,0,0,,0,,,72,127
39280,note_on,0,0,0,,4,,,76,127
39510,note_on,230,0,0,,4,,,64,127
39739,note_off,229,0,0,,4,,,64,127
39739,note_off,0,0,0,,0,,,36,127
39740,note_on,1,0,0,,5,,,65,127
39740,note_on,0,0,0,,2,,,38,127
39969,note_off,229,0,0,,4,,,76,127
39969,note_off,0,0,0,,0,,,72,127
39970,note_on,1,0,0,,5,,,77,127
39970,note_on,0,0,0,,2,,,74,127
40196,note_off,226,0,0,,5,,,65,127
40201,note_on,5,0,0,,6,,,66,127
40430,note_off,229,0,0,,6,,,66,127
40430,note_off,0,0,0,,2,,,38,127
40431,note_on,1,0,0,,7,,,67,127
40431,note_on,0,0,0,,4,,,40,127
40660,note_off,229,0,0,,2,,,74,127
40660,note_off,0,0,0,,5,,,77,127
40661,note_on,1,0,0,,7,,,79,127
40661,note_on,0,0,0,,4,,,76,127
40887,note_off,226,0,0,,7,,,67,127
40892,note_on,5,0,0,,8,,,68,127
41121,note_off,229,0,0,,8,,,68,127
41121,note_off,0,0,0,,4,,,40,127
41122,note_on,1,0,0,,10,,,69,127
41122,note_on,0,0,0,,5,,,41,127
41351,note_off,229,0,0,,4,,,76,127
41351,note_off,0,0,0,,7,,,79,127
41352,note_on,1,0,0,,10,,,81,127
41578,note_off,226,0,0,,10,,,69,127
41582,note_off,4,0,0,,10,,,81,127
41583,note_on,1,0,0,,2,,,74,127
41583,note_on,0,0,0,,5,,,77,127
41812,note_off,229,0,0,,5,,,77,127
41812,note_off,0,0,0,,2,,,74,127
41812,note_off,0,0,0,,5,,,41,127
41813,note_on,1,0,0,,0,,,72,127
41813,note_on,0,0,0,,4,,,76,127
41813,note_on,0,0,0,,7,,,43,127
42042,note_off,229,0,0,,4,,,76,127
42042,note_off,0,0,0,,0,,,72,127
42043,note_on,1,0,0,,4,,,76,127
42043,note_on,0,0,0,,0,,,72,127
42119,note_off,76,0,0,,0,,,72,127
42119,note_off,0,0,0,,4,,,76,127
42120,note_on,1,0,0,,2,,,74,127
42120,note_on,0,0,0,,12,,,71,127
42196,note_off,76,0,0,,12,,,71,127
42196,note_off,0,0,0,,2,,,74,127
42197,note_on,1,0,0,,0,,,72,127
42197,note_on,0,0,0,,4,,,76,127
42273,note_off,76,0,0,,4,,,76,127
42273,note_off,0,0,0,,0,,,72,127
42274,note_on,1,0,0,,2,,,74,127
42274,note_on,0,0,0,,12,,,71,127
42350,note_off,76,0,0,,12,,,71,127
42350,note_off,0,0,0,,2,,,74,127
42351,note_on,1,0,0,,0,,,72,127
42351,note_on,0,0,0,,4,,,76,127
42427,note_off,76,0,0,,4,,,76,127
42427,note_off,0,0,0,,0,,,72,127
42428,note_on,1,0,0,,12,,,71,127
42428,note_on,0,0,0,,2,,,74,127
42504,note_off,76,0,0,,2,,,74,127
42504,note_off,0,0,0,,12,,,71,127
42504,note_off,0,0,0,,7,,,43,127
42505,note_on,1,0,0,,0,,,72,127
42505,note_on,0,0,0,,0,,,36,127
42773,note_off,268,0,0,,0,,,72,127
42774,note_on,1,0,0,,7,,,67,127
42961,note_off,187,0,0,,0,,,36,127
43003,note_off,42,0,0,,7,,,67,127
43004,note_on,1,0,0,,5,,,77,127
43233,note_off,229,0,0,,5,,,77,127
43234,note_on,1,0,0,,4,,,76,127
43463,note_off,229,0,0,,4,,,76,127
43464,note_on,1,0,0,,4,,,76,127
43464,note_on,0,0,0,,7,,,55,127
43540,note_off,76,0,0,,4,,,76,127
43541,note_on,1,0,0,,2,,,74,127
43617,note_off,76,0,0,,2,,,74,127
43618,note_on,1,0,0,,4,,,76,127
43694,note_off,76,0,0,,4,,,76,127
43694,note_off,0,0,0,,7,,,55,127
43695,note_on,1,0,0,,2,,,74,127
43695,note_on,0,0,0,,5,,,65,127
43771,note_off,76,0,0,,2,,,74,127
43772,note_on,1,0,0,,4,,,76,127
43848,note_off,76,0,0,,4,,,76,127
43849,note_on,1,0,0,,2,,,74,127
43925,note_off,76,0,0,,5,,,65,127
43926,note_on,1,0,0,,4,,,64,127
44003,note_off,77,0,0,,2,,,74,127
44157,note_on,154,0,0,,7,,,79,127
44157,note_on,0,0,0,,0,,,72,127
44386,note_off,229,0,0,,0,,,72,127
44386,note_off,0,0,0,,4,,,64,127
44387,note_on,1,0,0,,11,,,70,127
44387,note_on,0,0,0,,2,,,62,127
44616,note_off,229,0,0,,2,,,62,127
44616,note_off,0,0,0,,11,,,70,127
44617,note_on,1,0,0,,10,,,69,127
44617,note_on,0,0,0,,1,,,61,127
44846,note_off,229,0,0,,1,,,61,127
44846,note_off,0,0,0,,7,,,79,127
44847,note_on,1,0,0,,5,,,77,127
44847,note_on,0,0,0,,12,,,59,127
45076,note_off,229,0,0,,12,,,59,127
45076,note_off,0,0,0,,5,,,77,127
45077,note_on,1,0,0,,4,,,76,127
45077,note_on,0,0,0,,10,,,57,127
45306,note_off,229,0,0,,10,,,57,127
45306,note_off,0,0,0,,4,,,76,127
45307,note_on,1,0,0,,1,,,73,127
45307,note_on,0,0,0,,11,,,58,127
45536,note_off,229,0,0,,1,,,73,127
45537,note_on,1,0,0,,2,,,74,127
45765,note_off,228,0,0,,10,,,69,127
45766,note_off,1,0,0,,11,,,58,127
45767,note_on,1,0,0,,7,,,67,127
45767,note_on,0,0,0,,11,,,46,127
45996,note_off,229,0,0,,11,,,46,127
45996,note_off,0,0,0,,7,,,67,127
45997,note_on,1,0,0,,5,,,65,127
45997,note_on,0,0,0,,10,,,45,127
46226,note_off,229,0,0,,10,,,45,127
46226,note_off,0,0,0,,5,,,65,127
46226,note_off,0,0,0,,2,,,74,127
46227,note_on,1,0,0,,1,,,73,127
46227,note_on,0,0,0,,4,,,64,127
46227,note_on,0,0,0,,7,,,55,127
46456,note_off,229,0,0,,7,,,55,127
46456,note_off,0,0,0,,4,,,64,127
46456,note_off,0,0,0,,1,,,73,127
46457,note_on,1,0,0,,2,,,74,127
46457,note_on,0,0,0,,5,,,65,127
46457,note_on,0,0,0,,5,,,53,127
46686,note_off,229,0,0,,5,,,53,127
46686,note_off,0,0,0,,5,,,65,127
46686,note_off,0,0,0,,2,,,74,127
46687,note_on,1,0,0,,7,,,67,127
46687,note_on,0,0,0,,4,,,76,127
46687,note_on,0,0,0,,4,,,52,127
46916,note_off,229,0,0,,4,,,52,127
46916,note_off,0,0,0,,4,,,76,127
46916,note_off,0,0,0,,7,,,67,127
46917,note_on,1,0,0,,5,,,77,127
46917,note_on,0,0,0,,10,,,69,127
46917,note_on,0,0,0,,2,,,50,127
47146,note_off,229,0,0,,2,,,50,127
47146,note_off,0,0,0,,10,,,69,127
47147,note_on,1,0,0,,2,,,74,127
47147,note_on,0,0,0,,8,,,44,127
47376,note_off,229,0,0,,8,,,44,127
47377,note_on,1,0,0,,10,,,45,127
47606,note_off,229,0,0,,2,,,74,127
47606,note_off,0,0,0,,5,,,77,127
47607,note_on,1,0,0,,1,,,73,127
47607,note_on,0,0,0,,4,,,76,127
47721,note_off,114,0,0,,4,,,76,127
47721,note_off,0,0,0,,1,,,73,127
47722,note_on,1,0,0,,2,,,74,127
47722,note_on,0,0,0,,12,,,71,127
47836,note_off,114,0,0,,12,,,71,127
47836,note_off,0,0,0,,2,,,74,127
47853,note_on,17,0,0,,1,,,73,127
47853,note_on,0,0,0,,4,,,76,127
48277,note_off,424,0,0,,10,,,45,127
48303,note_off,26,0,0,,4,,,76,127
48303,note_off,0,0,0,,1,,,73,127
48679,note_on,376,0,0,,10,,,57,127
48909,note_on,230,0,0,,10,,,69,127
49138,note_off,229,0,0,,10,,,69,127
49139,note_on,1,0,0,,7,,,79,127
49368,note_off,229,0,0,,7,,,79,127
49368,note_off,0,0,0,,10,,,57,127
49369,note_on,1,0,0,,5,,,77,127
49598,note_off,229,0,0,,5,,,77,127
49599,note_on,1,0,0,,10,,,57,127
49599,note_on,0,0,0,,5,,,77,127
49675,note_off,76,0,0,,5,,,77,127
49676,note_on,1,0,0,,4,,,76,127
49752,note_off,76,0,0,,4,,,76,127
49753,note_on,1,0,0,,5,,,77,127
49829,note_off,76,0,0,,5,,,77,127
49829,note_off,0,0,0,,10,,,57,127
49830,note_on,1,0,0,,7,,,67,127
49830,note_on,0,0,0,,4,,,76,127
49906,note_off,76,0,0,,4,,,76,127
49907,note_on,1,0,0,,5,,,77,127
49983,note_off,76,0,0,,5,,,77,127
49984,note_on,1,0,0,,4,,,76,127
50060,note_off,76,0,0,,7,,,67,127
50061,note_on,1,0,0,,6,,,66,127
50138,note_off,77,0,0,,4,,,76,127
50292,note_on,154,0,0,,2,,,74,127
50292,note_on,0,0,0,,10,,,81,127
50521,note_off,229,0,0,,10,,,81,127
50521,note_off,0,0,0,,2,,,74,127
50521,note_off,0,0,0,,6,,,66,127
50522,note_on,1,0,0,,3,,,63,127
50522,note_on,0,0,0,,0,,,72,127
50522,note_on,0,0,0,,7,,,79,127
50751,note_off,229,0,0,,7,,,79,127
50751,note_off,0,0,0,,3,,,63,127
50752,note_on,1,0,0,,2,,,62,127
50752,note_on,0,0,0,,6,,,78,127
50978,note_off,226,0,0,,0,,,72,127
50983,note_on,5,0,0,,2,,,74,127
51212,note_off,229,0,0,,2,,,74,127
51212,note_off,0,0,0,,2,,,62,127
51213,note_on,1,0,0,,0,,,60,127
51213,note_on,0,0,0,,3,,,75,127
51442,note_off,229,0,0,,3,,,75,127
51442,note_off,0,0,0,,0,,,60,127
51443,note_on,1,0,0,,11,,,58,127
51443,note_on,0,0,0,,2,,,74,127
51672,note_off,229,0,0,,6,,,78,127
51673,note_on,1,0,0,,7,,,67,127
51673,note_on,0,0,0,,7,,,79,127
51899,note_off,226,0,0,,11,,,58,127
51903,note_off,4,0,0,,7,,,79,127
51903,note_off,0,0,0,,7,,,67,127
51904,note_on,1,0,0,,10,,,57,127
51904,note_on,0,0,0,,6,,,66,127
51904,note_on,0,0,0,,10,,,81,127
52133,note_off,229,0,0,,10,,,81,127
52133,note_off,0,0,0,,6,,,66,127
52133,note_off,0,0,0,,10,,,57,127
52150,note_on,17,0,0,,11,,,82,127
52150,note_on,0,0,0,,7,,,55,127
52363,note_off,213,0,0,,2,,,74,127
52379,note_off,16,0,0,,7,,,55,127
52379,note_off,0,0,0,,11,,,82,127
52380,note_on,1,0,0,,10,,,81,127
52380,note_on,0,0,0,,0,,,72,127
52380,note_on,0,0,0,,10,,,57,127
52609,note_off,229,0,0,,10,,,57,127
52609,note_off,0,0,0,,0,,,72,127
52609,note_off,0,0,0,,10,,,81,127
52610,note_on,1,0,0,,11,,,70,127
52610,note_on,0,0,0,,7,,,79,127
52610,note_on,0,0,0,,11,,,58,127
52839,note_off,229,0,0,,11,,,58,127
52839,note_off,0,0,0,,7,,,79,127
52839,note_off,0,0,0,,11,,,70,127
52840,note_on,1,0,0,,10,,,69,127
52840,note_on,0,0,0,,5,,,77,127
52840,note_on,0,0,0,,11,,,46,127
53069,note_off,229,0,0,,11,,,46,127
53069,note_off,0,0,0,,5,,,77,127
53069,note_off,0,0,0,,10,,,69,127
53070,note_on,1,0,0,,7,,,67,127
53070,note_on,0,0,0,,3,,,75,127
53070,note_on,0,0,0,,0,,,48,127
53299,note_off,229,0,0,,0,,,48,127
53299,note_off,0,0,0,,3,,,75,127
53299,note_off,0,0,0,,7,,,67,127
53300,note_on,1,0,0,,2,,,74,127
53300,note_on,0,0,0,,6,,,66,127
53300,note_on,0,0,0,,2,,,50,127
53529,note_off,229,0,0,,2,,,50,127
53529,note_off,0,0,0,,6,,,66,127
53529,note_off,0,0,0,,2,,,74,127
53530,note_on,1,0,0,,0,,,72,127
53530,note_on,0,0,0,,3,,,63,127
53530,note_on,0,0,0,,3,,,51,127
53759,note_off,229,0,0,,3,,,63,127
53759,note_off,0,0,0,,0,,,72,127
53760,note_on,1,0,0,,11,,,70,127
53760,note_on,0,0,0,,2,,,62,127
53989,note_off,229,0,0,,2,,,62,127
53989,note_off,0,0,0,,11,,,70,127
53990,note_on,1,0,0,,10,,,69,127
53990,note_on,0,0,0,,0,,,60,127
54219,note_off,229,0,0,,0,,,60,127
54219,note_off,0,0,0,,10,,,69,127
54219,note_off,0,0,0,,3,,,51,127
54220,note_on,1,0,0,,11,,,70,127
54220,note_on,0,0,0,,7,,,67,127
54220,note_on,0,0,0,,3,,,39,127
54449,note_off,229,0,0,,7,,,67,127
54449,note_off,0,0,0,,11,,,70,127
54450,note_on,1,0,0,,10,,,69,127
54450,note_on,0,0,0,,6,,,66,127
54679,note_off,229,0,0,,6,,,66,127
54679,note_off,0,0,0,,10,,,69,127
54680,note_on,1,0,0,,7,,,67,127
54680,note_on,0,0,0,,11,,,70,127
54909,note_off,229,0,0,,3,,,39,127
54910,note_on,1,0,0,,2,,,38,127
55112,note_off,202,0,0,,11,,,70,127
55112,note_off,0,0,0,,7,,,67,127
55141,note_on,29,0,0,,10,,,69,127
55141,note_on,0,0,0,,6,,,66,127
55255,note_off,114,0,0,,6,,,66,127
55255,note_off,0,0,0,,10,,,69,127
55256,note_on,1,0,0,,7,,,67,127
55256,note_on,0,0,0,,4,,,64,127
55370,note_off,114,0,0,,4,,,64,127
55370,note_off,0,0,0,,7,,,67,127
55403,note_on,33,0,0,,10,,,69,127
55403,note_on,0,0,0,,6,,,66,127
55810,note_off,407,0,0,,2,,,38,127
56003,note_off,193,0,0,,6,,,66,127
56003,note_off,0,0,0,,10,,,69,127
56189,note_on,186,0,0,,0,,,60,127
56411,note_on,222,0,0,,7,,,67,127
56411,note_on,0,0,0,,3,,,75,127
56640,note_off,229,0,0,,3,,,75,127
56641,note_on,1,0,0,,2,,,74,127
56641,note_on,0,0,0,,11,,,58,127
56648,note_off,7,0,0,,0,,,60,127
56870,note_off,222,0,0,,11,,,58,127
56870,note_off,0,0,0,,2,,,74,127
56871,note_on,1,0,0,,0,,,72,127
56871,note_on,0,0,0,,10,,,57,127
57100,note_off,229,0,0,,7,,,67,127
57101,note_on,1,0,0,,6,,,66,127
57327,note_off,226,0,0,,0,,,72,127
57331,note_off,4,0,0,,6,,,66,127
57331,note_off,0,0,0,,10,,,57,127
57332,note_on,1,0,0,,7,,,67,127
57332,note_on,0,0,0,,11,,,70,127
57332,note_on,0,0,0,,7,,,55,127
57561,note_off,229,0,0,,7,,,55,127
57562,note_on,1,0,0,,3,,,63,127
57596,note_off,34,0,0,,11,,,70,127
57596,note_off,0,0,0,,7,,,67,127
57793,note_on,197,0,0,,11,,,70,127
57793,note_on,0,0,0,,7,,,79,127
58022,note_off,229,0,0,,7,,,79,127
58022,note_off,0,0,0,,3,,,63,127
58023,note_on,1,0,0,,5,,,77,127
58023,note_on,0,0,0,,2,,,62,127
58252,note_off,229,0,0,,2,,,62,127
58252,note_off,0,0,0,,5,,,77,127
58253,note_on,1,0,0,,3,,,75,127
58253,note_on,0,0,0,,0,,,60,127
58482,note_off,229,0,0,,11,,,70,127
58483,note_on,1,0,0,,10,,,69,127
58709,note_off,226,0,0,,3,,,75,127
58713,note_off,4,0,0,,10,,,69,127
58713,note_off,0,0,0,,0,,,60,127
58714,note_on,1,0,0,,2,,,74,127
58714,note_on,0,0,0,,11,,,70,127
58714,note_on,0,0,0,,11,,,58,127
58942,note_off,228,0,0,,11,,,70,127
58943,note_off,1,0,0,,11,,,58,127
58944,note_on,1,0,0,,11,,,70,127
58978,note_off,34,0,0,,2,,,74,127
59175,note_on,197,0,0,,5,,,77,127
59175,note_on,0,0,0,,2,,,86,127
59404,note_off,229,0,0,,2,,,86,127
59404,note_off,0,0,0,,11,,,70,127
59405,note_on,1,0,0,,0,,,84,127
59405,note_on,0,0,0,,10,,,69,127
59634,note_off,229,0,0,,10,,,69,127
59634,note_off,0,0,0,,0,,,84,127
59635,note_on,1,0,0,,11,,,82,127
59635,note_on,0,0,0,,7,,,67,127
59864,note_off,229,0,0,,5,,,77,127
59865,note_on,1,0,0,,4,,,76,127
60091,note_off,226,0,0,,11,,,82,127
60095,note_off,4,0,0,,4,,,76,127
60095,note_off,0,0,0,,7,,,67,127
60096,note_on,1,0,0,,10,,,81,127
60096,note_on,0,0,0,,5,,,77,127
60096,note_on,0,0,0,,5,,,65,127
60325,note_off,229,0,0,,5,,,65,127
60326,note_on,1,0,0,,11,,,58,127
60528,note_off,202,0,0,,5,,,77,127
60528,note_off,0,0,0,,10,,,81,127
60557,note_on,29,0,0,,7,,,79,127
60786,note_off,229,0,0,,7,,,79,127
60787,note_on,1,0,0,,5,,,77,127
60787,note_on,0,0,0,,11,,,70,127
61016,note_off,229,0,0,,5,,,77,127
61016,note_off,0,0,0,,11,,,58,127
61017,note_on,1,0,0,,4,,,76,127
61017,note_on,0,0,0,,0,,,60,127
61243,note_off,226,0,0,,11,,,70,127
61247,note_off,4,0,0,,4,,,76,127
61248,note_on,1,0,0,,5,,,77,127
61248,note_on,0,0,0,,10,,,69,127
61477,note_off,229,0,0,,10,,,69,127
61478,note_on,1,0,0,,5,,,65,127
61707,note_off,229,0,0,,5,,,65,127
61707,note_off,0,0,0,,0,,,60,127
61708,note_on,1,0,0,,7,,,67,127
61708,note_on,0,0,0,,0,,,60,127
61937,note_off,229,0,0,,7,,,67,127
61937,note_off,0,0,0,,5,,,77,127
61938,note_on,1,0,0,,7,,,79,127
61938,note_on,0,0,0,,10,,,69,127
62014,note_off,76,0,0,,7,,,79,127
62015,note_on,1,0,0,,5,,,77,127
62091,note_off,76,0,0,,5,,,77,127
62092,note_on,1,0,0,,7,,,79,127
62168,note_off,76,0,0,,7,,,79,127
62168,note_off,0,0,0,,10,,,69,127
62169,note_on,1,0,0,,5,,,77,127
62169,note_on,0,0,0,,5,,,65,127
62245,note_off,76,0,0,,5,,,77,127
62246,note_on,1,0,0,,4,,,76,127
62322,note_off,76,0,0,,4,,,76,127
62323,note_on,1,0,0,,5,,,77,127
62399,note_off,76,0,0,,5,,,77,127
62399,note_off,0,0,0,,5,,,65,127
62399,note_off,0,0,0,,0,,,60,127
62400,note_on,1,0,0,,5,,,77,127
62400,note_on,0,0,0,,0,,,48,127
62860,note_off,460,0,0,,5,,,77,127
62861,note_on,1,0,0,,7,,,79,127
63200,note_off,339,0,0,,0,,,48,127
63311,note_off,111,0,0,,7,,,79,127
63590,note_on,279,0,0,,0,,,60,127
63820,note_on,230,0,0,,7,,,67,127
63820,note_on,0,0,0,,7,,,79,127
64049,note_off,229,0,0,,7,,,79,127
64049,note_off,0,0,0,,7,,,67,127
64050,note_on,1,0,0,,0,,,72,127
64050,note_on,0,0,0,,8,,,80,127
64279,note_off,229,0,0,,8,,,80,127
64279,note_off,0,0,0,,0,,,60,127
64280,note_on,1,0,0,,1,,,61,127
64280,note_on,0,0,0,,7,,,79,127
64506,note_off,226,0,0,,0,,,72,127
64510,note_off,4,0,0,,7,,,79,127
64511,note_on,1,0,0,,11,,,70,127
64511,note_on,0,0,0,,7,,,79,127
64587,note_off,76,0,0,,7,,,79,127
64588,note_on,1,0,0,,5,,,77,127
64664,note_off,76,0,0,,5,,,77,127
64665,note_on,1,0,0,,7,,,79,127
64741,note_off,76,0,0,,7,,,79,127
64741,note_off,0,0,0,,11,,,70,127
64742,note_on,1,0,0,,7,,,67,127
64742,note_on,0,0,0,,5,,,77,127
64818,note_off,76,0,0,,5,,,77,127
64819,note_on,1,0,0,,7,,,79,127
64895,note_off,76,0,0,,7,,,79,127
64896,note_on,1,0,0,,5,,,77,127
64972,note_off,76,0,0,,7,,,67,127
64972,note_off,0,0,0,,1,,,61,127
64973,note_on,1,0,0,,0,,,60,127
65050,note_off,77,0,0,,5,,,77,127
65204,note_on,154,0,0,,7,,,67,127
65204,note_on,0,0,0,,7,,,79,127
65433,note_off,229,0,0,,7,,,79,127
65433,note_off,0,0,0,,7,,,67,127
65434,note_on,1,0,0,,0,,,72,127
65434,note_on,0,0,0,,8,,,80,127
65663,note_off,229,0,0,,8,,,80,127
65663,note_off,0,0,0,,0,,,60,127
65664,note_on,1,0,0,,1,,,61,127
65664,note_on,0,0,0,,7,,,79,127
65890,note_off,226,0,0,,0,,,72,127
65894,note_off,4,0,0,,7,,,79,127
65895,note_on,1,0,0,,11,,,70,127
65895,note_on,0,0,0,,7,,,79,127
65971,note_off,76,0,0,,7,,,79,127
65972,note_on,1,0,0,,5,,,77,127
66048,note_off,76,0,0,,5,,,77,127
66049,note_on,1,0,0,,7,,,79,127
66125,note_off,76,0,0,,7,,,79,127
66125,note_off,0,0,0,,11,,,70,127
66126,note_on,1,0,0,,7,,,67,127
66126,note_on,0,0,0,,5,,,77,127
66202,note_off,76,0,0,,5,,,77,127
66203,note_on,1,0,0,,7,,,79,127
66279,note_off,76,0,0,,7,,,79,127
66280,note_on,1,0,0,,5,,,77,127
66356,note_off,76,0,0,,7,,,67,127
66356,note_off,0,0,0,,1,,,61,127
66357,note_on,1,0,0,,8,,,68,127
66357,note_on,0,0,0,,0,,,60,127
66586,note_off,229,0,0,,8,,,68,127
66586,note_off,0,0,0,,5,,,77,127
66587,note_on,1,0,0,,7,,,67,127
66587,note_on,0,0,0,,3,,,75,127
66816,note_off,229,0,0,,3,,,75,127
66817,note_on,1,0,0,,0,,,72,127
67046,note_off,229,0,0,,0,,,72,127
67046,note_off,0,0,0,,0,,,60,127
67047,note_on,1,0,0,,11,,,58,127
67047,note_on,0,0,0,,1,,,73,127
67276,note_off,229,0,0,,7,,,67,127
67277,note_on,1,0,0,,5,,,65,127
67506,note_off,229,0,0,,1,,,73,127
67507,note_on,1,0,0,,0,,,72,127
67736,note_off,229,0,0,,11,,,58,127
67737,note_on,1,0,0,,8,,,56,127
67966,note_off,229,0,0,,8,,,56,127
67966,note_off,0,0,0,,0,,,72,127
67967,note_on,1,0,0,,6,,,54,127
67967,note_on,0,0,0,,11,,,70,127
68196,note_off,229,0,0,,5,,,65,127
68197,note_on,1,0,0,,3,,,63,127
68423,note_off,226,0,0,,6,,,54,127
68427,note_off,4,0,0,,3,,,63,127
68428,note_on,1,0,0,,1,,,61,127
68428,note_on,0,0,0,,5,,,53,127
68657,note_off,229,0,0,,1,,,61,127
68657,note_off,0,0,0,,11,,,70,127
68658,note_on,1,0,0,,0,,,60,127
68658,note_on,0,0,0,,10,,,69,127
68887,note_off,229,0,0,,10,,,69,127
68887,note_off,0,0,0,,0,,,60,127
68888,note_on,1,0,0,,11,,,58,127
68888,note_on,0,0,0,,11,,,70,127
69117,note_off,229,0,0,,11,,,70,127
69117,note_off,0,0,0,,11,,,58,127
69117,note_off,0,0,0,,5,,,53,127
69118,note_on,1,0,0,,10,,,57,127
69118,note_on,0,0,0,,0,,,72,127
69347,note_off,229,0,0,,0,,,72,127
69347,note_off,0,0,0,,10,,,57,127
69348,note_on,1,0,0,,11,,,58,127
69348,note_on,0,0,0,,3,,,75,127
69424,note_off,76,0,0,,3,,,75,127
69425,note_on,1,0,0,,1,,,73,127
69501,note_off,76,0,0,,1,,,73,127
69502,note_on,1,0,0,,3,,,75,127
69578,note_off,76,0,0,,3,,,75,127
69578,note_off,0,0,0,,11,,,58,127
69579,note_on,1,0,0,,11,,,46,127
69579,note_on,0,0,0,,1,,,73,127
69655,note_off,76,0,0,,1,,,73,127
69656,note_on,1,0,0,,0,,,72,127
69732,note_off,76,0,0,,0,,,72,127
69733,note_on,1,0,0,,1,,,73,127
69809,note_off,76,0,0,,1,,,73,127
69809,note_off,0,0,0,,11,,,46,127
69810,note_on,1,0,0,,5,,,41,127
69810,note_on,0,0,0,,1,,,73,127
69886,note_off,76,0,0,,1,,,73,127
69887,note_on,1,0,0,,0,,,72,127
69963,note_off,76,0,0,,0,,,72,127
69964,note_on,1,0,0,,1,,,73,127
70040,note_off,76,0,0,,1,,,73,127
70041,note_on,1,0,0,,0,,,72,127
70435,note_off,394,0,0,,5,,,41,127
70497,note_off,62,0,0,,0,,,72,127
70502,note_on,5,0,0,,5,,,53,127
70732,note_on,230,0,0,,0,,,60,127
70732,note_on,0,0,0,,0,,,72,127
70961,note_off,229,0,0,,0,,,72,127
70961,note_off,0,0,0,,0,,,60,127
70962,note_on,1,0,0,,5,,,65,127
70962,note_on,0,0,0,,1,,,73,127
71191,note_off,229,0,0,,1,,,73,127
71191,note_off,0,0,0,,5,,,53,127
71192,note_on,1,0,0,,6,,,54,127
71192,note_on,0,0,0,,0,,,72,127
71418,note_off,226,0,0,,5,,,65,127
71422,note_off,4,0,0,,0,,,72,127
71423,note_on,1,0,0,,3,,,63,127
71423,note_on,0,0,0,,0,,,72,127
71499,note_off,76,0,0,,0,,,72,127
71500,note_on,1,0,0,,11,,,70,127
71576,note_off,76,0,0,,11,,,70,127
71577,note_on,1,0,0,,0,,,72,127
71653,note_off,76,0,0,,0,,,72,127
71653,note_off,0,0,0,,3,,,63,127
71654,note_on,1,0,0,,0,,,60,127
71654,note_on,0,0,0,,11,,,70,127
71730,note_off,76,0,0,,11,,,70,127
71731,note_on,1,0,0,,0,,,72,127
71807,note_off,76,0,0,,0,,,72,127
71808,note_on,1,0,0,,11,,,70,127
71884,note_off,76,0,0,,0,,,60,127
71884,note_off,0,0,0,,6,,,54,127
71885,note_on,1,0,0,,5,,,53,127
71962,note_off,77,0,0,,11,,,70,127
72116,note_on,154,0,0,,0,,,60,127
72116,note_on,0,0,0,,0,,,72,127
72345,note_off,229,0,0,,0,,,72,127
72345,note_off,0,0,0,,0,,,60,127
72346,note_on,1,0,0,,5,,,65,127
72346,note_on,0,0,0,,1,,,73,127
72575,note_off,229,0,0,,1,,,73,127
72575,note_off,0,0,0,,5,,,53,127
72576,note_on,1,0,0,,6,,,54,127
72576,note_on,0,0,0,,0,,,72,127
72802,note_off,226,0,0,,5,,,65,127
72806,note_off,4,0,0,,0,,,72,127
72807,note_on,1,0,0,,3,,,63,127
72807,note_on,0,0,0,,0,,,72,127
72883,note_off,76,0,0,,0,,,72,127
72884,note_on,1,0,0,,11,,,70,127
72960,note_off,76,0,0,,11,,,70,127
72961,note_on,1,0,0,,0,,,72,127
73037,note_off,76,0,0,,0,,,72,127
73037,note_off,0,0,0,,3,,,63,127
73038,note_on,1,0,0,,0,,,60,127
73038,note_on,0,0,0,,11,,,70,127
73114,note_off,76,0,0,,11,,,70,127
73115,note_on,1,0,0,,0,,,72,127
73191,note_off,76,0,0,,0,,,72,127
73192,note_on,1,0,0,,11,,,70,127
73268,note_off,76,0,0,,0,,,60,127
73268,note_off,0,0,0,,6,,,54,127
73269,note_on,1,0,0,,5,,,53,127
73269,note_on,0,0,0,,1,,,61,127
73498,note_off,229,0,0,,1,,,61,127
73498,note_off,0,0,0,,11,,,70,127
73499,note_on,1,0,0,,0,,,60,127
73499,note_on,0,0,0,,5,,,77,127
73499,note_on,0,0,0,,8,,,68,127
73728,note_off,229,0,0,,8,,,68,127
73729,note_on,1,0,0,,5,,,65,127
73955,note_off,226,0,0,,5,,,77,127
73959,note_off,4,0,0,,5,,,65,127
73959,note_off,0,0,0,,0,,,60,127
73959,note_off,0,0,0,,5,,,53,127
73960,note_on,1,0,0,,11,,,70,127
73960,note_on,0,0,0,,6,,,78,127
74190,note_on,230,0,0,,3,,,51,127
74419,note_off,229,0,0,,6,,,78,127
74419,note_off,0,0,0,,11,,,70,127
74420,note_on,1,0,0,,0,,,72,127
74420,note_on,0,0,0,,10,,,81,127
74649,note_off,229,0,0,,3,,,51,127
74650,note_on,1,0,0,,0,,,60,127
74879,note_off,229,0,0,,10,,,81,127
74879,note_off,0,0,0,,0,,,72,127
74880,note_on,1,0,0,,11,,,82,127
74880,note_on,0,0,0,,1,,,73,127
75109,note_off,229,0,0,,0,,,60,127
75110,note_on,1,0,0,,1,,,61,127
75339,note_off,229,0,0,,1,,,73,127
75339,note_off,0,0,0,,11,,,82,127
75340,note_on,1,0,0,,0,,,84,127
75340,note_on,0,0,0,,4,,,76,127
75569,note_off,229,0,0,,1,,,61,127
75570,note_on,1,0,0,,0,,,60,127
75799,note_off,229,0,0,,4,,,76,127
75799,note_off,0,0,0,,0,,,84,127
75800,note_on,1,0,0,,5,,,77,127
75800,note_on,0,0,0,,1,,,85,127
76029,note_off,229,0,0,,0,,,60,127
76030,note_on,1,0,0,,11,,,58,127
76259,note_off,229,0,0,,1,,,85,127
76259,note_off,0,0,0,,5,,,77,127
76260,note_on,1,0,0,,7,,,79,127
76260,note_on,0,0,0,,4,,,88,127
76489,note_off,229,0,0,,11,,,58,127
76490,note_on,1,0,0,,7,,,55,127
76719,note_off,229,0,0,,7,,,55,127
76719,note_off,0,0,0,,4,,,88,127
76719,note_off,0,0,0,,7,,,79,127
76720,note_on,1,0,0,,5,,,65,127
76720,note_on,0,0,0,,8,,,56,127
76720,note_on,0,0,0,,5,,,89,127
76720,note_on,0,0,0,,5,,,77,127
76949,note_off,229,0,0,,5,,,89,127
76950,note_on,1,0,0,,0,,,84,127
77176,note_off,226,0,0,,5,,,77,127
77180,note_off,4,0,0,,0,,,84,127
77180,note_off,0,0,0,,8,,,56,127
77180,note_off,0,0,0,,5,,,65,127
77181,note_on,1,0,0,,11,,,58,127
77181,note_on,0,0,0,,5,,,77,127
77181,note_on,0,0,0,,7,,,67,127
77410,note_off,229,0,0,,7,,,67,127
77410,note_off,0,0,0,,11,,,58,127
77411,note_on,1,0,0,,0,,,60,127
77411,note_on,0,0,0,,8,,,68,127
77640,note_off,229,0,0,,8,,,68,127
77641,note_on,1,0,0,,7,,,67,127
77708,note_off,67,0,0,,5,,,77,127
77718,note_on,10,0,0,,4,,,76,127
77794,note_off,76,0,0,,4,,,76,127
77795,note_on,1,0,0,,5,,,77,127
77869,note_off,74,0,0,,7,,,67,127
77870,note_off,1,0,0,,5,,,77,127
77871,note_on,1,0,0,,4,,,76,127
77871,note_on,0,0,0,,11,,,70,127
77947,note_off,76,0,0,,4,,,76,127
77948,note_on,1,0,0,,2,,,74,127
78024,note_off,76,0,0,,2,,,74,127
78025,note_on,1,0,0,,4,,,76,127
78101,note_off,76,0,0,,4,,,76,127
78101,note_off,0,0,0,,0,,,60,127
78102,note_on,1,0,0,,5,,,53,127
78102,note_on,0,0,0,,5,,,77,127
78328,note_off,226,0,0,,11,,,70,127
78333,note_on,5,0,0,,8,,,68,127
78447,note_off,114,0,0,,8,,,68,127
78448,note_on,1,0,0,,7,,,67,127
78562,note_off,114,0,0,,7,,,67,127
78563,note_on,1,0,0,,5,,,65,127
78792,note_off,229,0,0,,5,,,77,127
78792,note_off,0,0,0,,5,,,53,127
78812,note_on,20,0,0,,5,,,53,127
79013,note_off,201,0,0,,5,,,65,127
79042,note_on,29,0,0,,0,,,72,127
79042,note_on,0,0,0,,0,,,60,127
79271,note_off,229,0,0,,0,,,60,127
79271,note_off,0,0,0,,0,,,72,127
79272,note_on,1,0,0,,1,,,73,127
79272,note_on,0,0,0,,5,,,65,127
79501,note_off,229,0,0,,1,,,73,127
79501,note_off,0,0,0,,5,,,53,127
79502,note_on,1,0,0,,0,,,72,127
79502,note_on,0,0,0,,6,,,54,127
79728,note_off,226,0,0,,5,,,65,127
79732,note_off,4,0,0,,0,,,72,127
79733,note_on,1,0,0,,0,,,72,127
79733,note_on,0,0,0,,3,,,63,127
79809,note_off,76,0,0,,0,,,72,127
79810,note_on,1,0,0,,11,,,70,127
79886,note_off,76,0,0,,11,,,70,127
79887,note_on,1,0,0,,0,,,72,127
79963,note_off,76,0,0,,0,,,72,127
79963,note_off,0,0,0,,3,,,63,127
79964,note_on,1,0,0,,11,,,70,127
79964,note_on,0,0,0,,0,,,60,127
80040,note_off,76,0,0,,11,,,70,127
80041,note_on,1,0,0,,0,,,72,127
80117,note_off,76,0,0,,0,,,72,127
80118,note_on,1,0,0,,11,,,70,127
80194,note_off,76,0,0,,0,,,60,127
80194,note_off,0,0,0,,6,,,54,127
80195,note_on,1,0,0,,5,,,53,127
80272,note_off,77,0,0,,11,,,70,127
80426,note_on,154,0,0,,0,,,72,127
80426,note_on,0,0,0,,0,,,60,127
80655,note_off,229,0,0,,0,,,60,127
80655,note_off,0,0,0,,0,,,72,127
80656,note_on,1,0,0,,1,,,73,127
80656,note_on,0,0,0,,5,,,65,127
80885,note_off,229,0,0,,1,,,73,127
80885,note_off,0,0,0,,5,,,53,127
80886,note_on,1,0,0,,0,,,72,127
80886,note_on,0,0,0,,6,,,54,127
81112,note_off,226,0,0,,5,,,65,127
81116,note_off,4,0,0,,0,,,72,127
81117,note_on,1,0,0,,0,,,72,127
81117,note_on,0,0,0,,3,,,63,127
81193,note_off,76,0,0,,0,,,72,127
81194,note_on,1,0,0,,11,,,70,127
81270,note_off,76,0,0,,11,,,70,127
81271,note_on,1,0,0,,0,,,72,127
81347,note_off,76,0,0,,0,,,72,127
81347,note_off,0,0,0,,3,,,63,127
81348,note_on,1,0,0,,11,,,70,127
81348,note_on,0,0,0,,0,,,60,127
81424,note_off,76,0,0,,11,,,70,127
81425,note_on,1,0,0,,0,,,72,127
81501,note_off,76,0,0,,0,,,72,127
81502,note_on,1,0,0,,11,,,70,127
81578,note_off,76,0,0,,0,,,60,127
81578,note_off,0,0,0,,6,,,54,127
81579,note_on,1,0,0,,5,,,53,127
81579,note_on,0,0,0,,1,,,61,127
81808,note_off,229,0,0,,1,,,61,127
81808,note_off,0,0,0,,11,,,70,127
81809,note_on,1,0,0,,5,,,77,127
81809,note_on,0,0,0,,8,,,68,127
81809,note_on,0,0,0,,0,,,60,127
82038,note_off,229,0,0,,8,,,68,127
82039,note_on,1,0,0,,5,,,65,127
82265,note_off,226,0,0,,5,,,77,127
82269,note_off,4,0,0,,5,,,65,127
82269,note_off,0,0,0,,0,,,60,127
82269,note_off,0,0,0,,5,,,53,127
82270,note_on,1,0,0,,11,,,70,127
82270,note_on,0,0,0,,6,,,78,127
82500,note_on,230,0,0,,3,,,51,127
82729,note_off,229,0,0,,6,,,78,127
82729,note_off,0,0,0,,11,,,70,127
82730,note_on,1,0,0,,10,,,81,127
82730,note_on,0,0,0,,0,,,72,127
82959,note_off,229,0,0,,3,,,51,127
82960,note_on,1,0,0,,0,,,60,127
83189,note_off,229,0,0,,0,,,72,127
83189,note_off,0,0,0,,10,,,81,127
83190,note_on,1,0,0,,11,,,82,127
83190,note_on,0,0,0,,1,,,73,127
83419,note_off,229,0,0,,0,,,60,127
83420,note_on,1,0,0,,1,,,61,127
83649,note_off,229,0,0,,1,,,73,127
83649,note_off,0,0,0,,11,,,82,127
83650,note_on,1,0,0,,4,,,76,127
83650,note_on,0,0,0,,0,,,84,127
83879,note_off,229,0,0,,1,,,61,127
83880,note_on,1,0,0,,0,,,60,127
84109,note_off,229,0,0,,0,,,84,127
84109,note_off,0,0,0,,4,,,76,127
84110,note_on,1,0,0,,5,,,77,127
84110,note_on,0,0,0,,1,,,85,127
84339,note_off,229,0,0,,0,,,60,127
84340,note_on,1,0,0,,11,,,58,127
84569,note_off,229,0,0,,1,,,85,127
84569,note_off,0,0,0,,5,,,77,127
84570,note_on,1,0,0,,7,,,79,127
84570,note_on,0,0,0,,4,,,88,127
84799,note_off,229,0,0,,11,,,58,127
84800,note_on,1,0,0,,7,,,55,127
85029,note_off,229,0,0,,7,,,55,127
85029,note_off,0,0,0,,4,,,88,127
85029,note_off,0,0,0,,7,,,79,127
85030,note_on,1,0,0,,5,,,89,127
85030,note_on,0,0,0,,5,,,77,127
85030,note_on,0,0,0,,5,,,65,127
85030,note_on,0,0,0,,8,,,56,127
85259,note_off,229,0,0,,5,,,89,127
85260,note_on,1,0,0,,0,,,84,127
85486,note_off,226,0,0,,5,,,77,127
85490,note_off,4,0,0,,0,,,84,127
85490,note_off,0,0,0,,8,,,56,127
85490,note_off,0,0,0,,5,,,65,127
85491,note_on,1,0,0,,5,,,77,127
85491,note_on,0,0,0,,7,,,67,127
85491,note_on,0,0,0,,11,,,58,127
85720,note_off,229,0,0,,11,,,58,127
85720,note_off,0,0,0,,7,,,67,127
85721,note_on,1,0,0,,8,,,68,127
85721,note_on,0,0,0,,0,,,60,127
85950,note_off,229,0,0,,8,,,68,127
85951,note_on,1,0,0,,7,,,67,127
86018,note_off,67,0,0,,5,,,77,127
86028,note_on,10,0,0,,4,,,76,127
86104,note_off,76,0,0,,4,,,76,127
86105,note_on,1,0,0,,5,,,77,127
86181,note_off,76,0,0,,5,,,77,127
86182,note_on,1,0,0,,4,,,76,127
86258,note_off,76,0,0,,4,,,76,127
86259,note_on,1,0,0,,2,,,74,127
86335,note_off,76,0,0,,2,,,74,127
86336,note_on,1,0,0,,4,,,76,127
86408,note_off,72,0,0,,7,,,67,127
86412,note_off,4,0,0,,4,,,76,127
86412,note_off,0,0,0,,0,,,60,127
86429,note_on,17,0,0,,5,,,41,127
86429,note_on,0,0,0,,5,,,77,127
86429,note_on,0,0,0,,5,,,65,127
86602,note_off,173,0,0,,5,,,65,127
86657,note_off,55,0,0,,5,,,77,127
86659,note_on,2,0,0,,5,,,77,127
86659,note_on,0,0,0,,10,,,81,127
86889,note_on,230,0,0,,10,,,69,127
87118,note_off,229,0,0,,10,,,69,127
87118,note_off,0,0,0,,5,,,41,127
87119,note_on,1,0,0,,7,,,43,127
87119,note_on,0,0,0,,11,,,70,127
87348,note_off,229,0,0,,10,,,81,127
87348,note_off,0,0,0,,5,,,77,127
87349,note_on,1,0,0,,11,,,82,127
87349,note_on,0,0,0,,7,,,79,127
87575,note_off,226,0,0,,11,,,70,127
87580,note_on,5,0,0,,12,,,71,127
87809,note_off,229,0,0,,12,,,71,127
87809,note_off,0,0,0,,7,,,43,127
87810,note_on,1,0,0,,10,,,45,127
87810,note_on,0,0,0,,0,,,72,127
88039,note_off,229,0,0,,7,,,79,127
88039,note_off,0,0,0,,11,,,82,127
88040,note_on,1,0,0,,10,,,81,127
88040,note_on,0,0,0,,0,,,84,127
88266,note_off,226,0,0,,0,,,72,127
88271,note_on,5,0,0,,1,,,73,127
88500,note_off,229,0,0,,1,,,73,127
88500,note_off,0,0,0,,10,,,45,127
88501,note_on,1,0,0,,11,,,46,127
88501,note_on,0,0,0,,2,,,74,127
88730,note_off,229,0,0,,0,,,84,127
88730,note_off,0,0,0,,10,,,81,127
88731,note_on,1,0,0,,2,,,86,127
88957,note_off,226,0,0,,2,,,74,127
88961,note_off,4,0,0,,2,,,86,127
88962,note_on,1,0,0,,11,,,82,127
88962,note_on,0,0,0,,7,,,79,127
89191,note_off,229,0,0,,7,,,79,127
89191,note_off,0,0,0,,11,,,82,127
89191,note_off,0,0,0,,11,,,46,127
89192,note_on,1,0,0,,0,,,48,127
89192,note_on,0,0,0,,5,,,77,127
89192,note_on,0,0,0,,10,,,81,127
89421,note_off,229,0,0,,10,,,81,127
89421,note_off,0,0,0,,5,,,77,127
89422,note_on,1,0,0,,5,,,77,127
89422,note_on,0,0,0,,10,,,81,127
89498,note_off,76,0,0,,10,,,81,127
89498,note_off,0,0,0,,5,,,77,127
89499,note_on,1,0,0,,7,,,79,127
89499,note_on,0,0,0,,4,,,76,127
89575,note_off,76,0,0,,4,,,76,127
89575,note_off,0,0,0,,7,,,79,127
89576,note_on,1,0,0,,5,,,77,127
89576,note_on,0,0,0,,10,,,81,127
89652,note_off,76,0,0,,10,,,81,127
89652,note_off,0,0,0,,5,,,77,127
89653,note_on,1,0,0,,4,,,76,127
89653,note_on,0,0,0,,7,,,79,127
89729,note_off,76,0,0,,7,,,79,127
89729,note_off,0,0,0,,4,,,76,127
89730,note_on,1,0,0,,5,,,77,127
89730,note_on,0,0,0,,10,,,81,127
89806,note_off,76,0,0,,10,,,81,127
89806,note_off,0,0,0,,5,,,77,127
89807,note_on,1,0,0,,4,,,76,127
89807,note_on,0,0,0,,7,,,79,127
89883,note_off,76,0,0,,7,,,79,127
89883,note_off,0,0,0,,4,,,76,127
89883,note_off,0,0,0,,0,,,48,127
89884,note_on,1,0,0,,5,,,41,127
89884,note_on,0,0,0,,5,,,77,127
90113,note_off,229,0,0,,5,,,77,127
90130,note_on,17,0,0,,10,,,81,127
90130,note_on,0,0,0,,5,,,77,127
90360,note_on,230,0,0,,10,,,69,127
90573,note_off,213,0,0,,5,,,41,127
90589,note_off,16,0,0,,10,,,69,127
90590,note_on,1,0,0,,11,,,70,127
90590,note_on,0,0,0,,7,,,43,127
90819,note_off,229,0,0,,5,,,77,127
90819,note_off,0,0,0,,10,,,81,127
90820,note_on,1,0,0,,7,,,79,127
90820,note_on,0,0,0,,11,,,82,127
91046,note_off,226,0,0,,11,,,70,127
91051,note_on,5,0,0,,12,,,71,127
91280,note_off,229,0,0,,12,,,71,127
91280,note_off,0,0,0,,7,,,43,127
91281,note_on,1,0,0,,0,,,72,127
91281,note_on,0,0,0,,10,,,45,127
91510,note_off,229,0,0,,11,,,82,127
91510,note_off,0,0,0,,7,,,79,127
91511,note_on,1,0,0,,10,,,81,127
91511,note_on,0,0,0,,0,,,84,127
91737,note_off,226,0,0,,0,,,72,127
91742,note_on,5,0,0,,1,,,73,127
91971,note_off,229,0,0,,1,,,73,127
91971,note_off,0,0,0,,10,,,45,127
91972,note_on,1,0,0,,2,,,74,127
91972,note_on,0,0,0,,11,,,46,127
92201,note_off,229,0,0,,0,,,84,127
92201,note_off,0,0,0,,10,,,81,127
92214,note_on,13,0,0,,2,,,86,127
92428,note_off,214,0,0,,2,,,74,127
92459,note_off,31,0,0,,2,,,86,127
92460,note_on,1,0,0,,11,,,82,127
92460,note_on,0,0,0,,7,,,79,127
92662,note_off,202,0,0,,11,,,46,127
92705,note_off,43,0,0,,7,,,79,127
92705,note_off,0,0,0,,11,,,82,127
92707,note_on,2,0,0,,0,,,48,127
92707,note_on,0,0,0,,5,,,77,127
92707,note_on,0,0,0,,10,,,81,127
92971,note_off,264,0,0,,10,,,81,127
92971,note_off,0,0,0,,5,,,77,127
92989,note_on,18,0,0,,10,,,81,127
92989,note_on,0,0,0,,5,,,77,127
93054,note_off,65,0,0,,5,,,77,127
93054,note_off,0,0,0,,10,,,81,127
93059,note_on,5,0,0,,7,,,79,127
93059,note_on,0,0,0,,4,,,76,127
93124,note_off,65,0,0,,4,,,76,127
93124,note_off,0,0,0,,7,,,79,127
93128,note_on,4,0,0,,5,,,77,127
93128,note_on,0,0,0,,10,,,81,127
93193,note_off,65,0,0,,10,,,81,127
93193,note_off,0,0,0,,5,,,77,127
93198,note_on,5,0,0,,7,,,79,127
93198,note_on,0,0,0,,4,,,76,127
93263,note_off,65,0,0,,4,,,76,127
93263,note_off,0,0,0,,7,,,79,127
93267,note_on,4,0,0,,5,,,77,127
93267,note_on,0,0,0,,10,,,81,127
93332,note_off,65,0,0,,10,,,81,127
93332,note_off,0,0,0,,5,,,77,127
93337,note_on,5,0,0,,7,,,79,127
93337,note_on,0,0,0,,4,,,76,127
93402,note_off,65,0,0,,4,,,76,127
93402,note_off,0,0,0,,7,,,79,127
93407,note_on,5,0,0,,10,,,81,127
93407,note_on,0,0,0,,5,,,77,127
93472,note_off,65,0,0,,5,,,77,127
93472,note_off,0,0,0,,10,,,81,127
93482,note_on,10,0,0,,7,,,79,127
93482,note_on,0,0,0,,4,,,76,127
93553,note_off,71,0,0,,4,,,76,127
93553,note_off,0,0,0,,7,,,79,127
93596,note_off,43,0,0,,0,,,48,127
93657,note_on,61,0,0,,5,,,41,127
93657,note_on,0,0,0,,5,,,77,127
95901,note_off,2244,0,0,,5,,,77,127
95901,note_off,0,0,0,,5,,,41,127
101376,end_of_track,5475,1,0,,,,,,
