tick,type,time,meta,track,program,channel,pitch,tempo,note,velocity
0,copyright,0,1,0,,,,,,
0,program_change,0,0,0,6,0,,,,
0,pitchwheel,0,0,0,,0,0,,,
0,program_change,0,0,0,6,1,,,,
0,pitchwheel,0,0,0,,1,-590,,,
0,program_change,0,0,0,6,2,,,,
0,pitchwheel,0,0,0,,2,-272,,,
0,program_change,0,0,0,6,3,,,,
0,pitchwheel,0,0,0,,3,-353,,,
0,program_change,0,0,0,6,4,,,,
0,pitchwheel,0,0,0,,4,-560,,,
0,program_change,0,0,0,6,5,,,,
0,pitchwheel,0,0,0,,5,-80,,,
0,program_change,0,0,0,6,6,,,,
0,pitchwheel,0,0,0,,6,-625,,,
0,program_change,0,0,0,6,7,,,,
0,pitchwheel,0,0,0,,7,-130,,,
0,program_change,0,0,0,6,8,,,,
0,pitchwheel,0,0,0,,8,-512,,,
0,program_change,0,0,0,6,10,,,,
0,pitchwheel,0,0,0,,10,-464,,,
0,program_change,0,0,0,6,11,,,,
0,pitchwheel,0,0,0,,11,-208,,,
0,program_change,0,0,0,6,12,,,,
0,pitchwheel,0,0,0,,12,-553,,,
0,set_tempo,0,1,0,,,,500000,,
112,note_on,112,0,0,,7,,,55,127
112,note_on,0,0,0,,0,,,60,127
112,note_on,0,0,0,,4,,,52,127
112,note_on,0,0,0,,4,,,76,127
112,note_on,0,0,0,,0,,,48,127
112,note_on,0,0,0,,7,,,67,127
112,note_on,0,0,0,,0,,,72,127
335,note_off,223,0,0,,0,,,72,127
336,note_on,1,0,0,,0,,,72,127
447,note_off,111,0,0,,0,,,72,127
448,note_on,1,0,0,,0,,,72,127
559,note_off,111,0,0,,0,,,72,127
560,note_on,1,0,0,,0,,,72,127
783,note_off,223,0,0,,0,,,72,127
784,note_on,1,0,0,,0,,,72,127
993,note_off,209,0,0,,0,,,48,127
993,note_off,0,0,0,,4,,,52,127
993,note_off,0,0,0,,7,,,55,127
1007,note_off,14,0,0,,0,,,72,127
1007,note_off,0,0,0,,7,,,67,127
1007,note_off,0,0,0,,4,,,76,127
1007,note_off,0,0,0,,0,,,60,127
1008,note_on,1,0,0,,10,,,57,127
1008,note_on,0,0,0,,4,,,52,127
1008,note_on,0,0,0,,0,,,48,127
1008,note_on,0,0,0,,10,,,45,127
1008,note_on,0,0,0,,10,,,69,127
1008,note_on,0,0,0,,4,,,76,127
1008,note_on,0,0,0,,0,,,72,127
1231,note_off,223,0,0,,0,,,72,127
1232,note_on,1,0,0,,0,,,72,127
1343,note_off,111,0,0,,0,,,72,127
1344,note_on,1,0,0,,0,,,72,127
1455,note_off,111,0,0,,0,,,72,127
1456,note_on,1,0,0,,0,,,72,127
1679,note_off,223,0,0,,0,,,72,127
1680,note_on,1,0,0,,0,,,72,127
1889,note_off,209,0,0,,10,,,45,127
1889,note_off,0,0,0,,0,,,48,127
1889,note_off,0,0,0,,4,,,52,127
1889,note_off,0,0,0,,10,,,57,127
1903,note_off,14,0,0,,0,,,72,127
1903,note_off,0,0,0,,4,,,76,127
1903,note_off,0,0,0,,10,,,69,127
1904,note_on,1,0,0,,10,,,81,127
1904,note_on,0,0,0,,5,,,53,127
1904,note_on,0,0,0,,10,,,69,127
1904,note_on,0,0,0,,0,,,48,127
1904,note_on,0,0,0,,5,,,41,127
1904,note_on,0,0,0,,0,,,72,127
2127,note_off,223,0,0,,0,,,72,127
2128,note_on,1,0,0,,0,,,72,127
2239,note_off,111,0,0,,0,,,72,127
2240,note_on,1,0,0,,0,,,72,127
2351,note_off,111,0,0,,0,,,72,127
2352,note_on,1,0,0,,0,,,72,127
2575,note_off,223,0,0,,0,,,72,127
2576,note_on,1,0,0,,0,,,72,127
2785,note_off,209,0,0,,5,,,41,127
2785,note_off,0,0,0,,0,,,48,127
2785,note_off,0,0,0,,5,,,53,127
2799,note_off,14,0,0,,0,,,72,127
2799,note_off,0,0,0,,10,,,69,127
2799,note_off,0,0,0,,10,,,81,127
2800,note_on,1,0,0,,0,,,48,127
2800,note_on,0,0,0,,4,,,40,127
2800,note_on,0,0,0,,7,,,43,127
2800,note_on,0,0,0,,7,,,79,127
2800,note_on,0,0,0,,4,,,76,127
2800,note_on,0,0,0,,0,,,36,127
2800,note_on,0,0,0,,0,,,84,127
2800,note_on,0,0,0,,0,,,72,127
3023,note_off,223,0,0,,0,,,72,127
3024,note_on,1,0,0,,0,,,72,127
3135,note_off,111,0,0,,0,,,72,127
3136,note_on,1,0,0,,0,,,72,127
3247,note_off,111,0,0,,0,,,72,127
3248,note_on,1,0,0,,0,,,72,127
3471,note_off,223,0,0,,0,,,72,127
3472,note_on,1,0,0,,0,,,72,127
3681,note_off,209,0,0,,0,,,36,127
3681,note_off,0,0,0,,7,,,43,127
3681,note_off,0,0,0,,4,,,40,127
3681,note_off,0,0,0,,0,,,48,127
3695,note_off,14,0,0,,0,,,72,127
3695,note_off,0,0,0,,0,,,84,127
3695,note_off,0,0,0,,4,,,76,127
3695,note_off,0,0,0,,7,,,79,127
3696,note_on,1,0,0,,5,,,53,127
3696,note_on,0,0,0,,5,,,41,127
3696,note_on,0,0,0,,10,,,81,127
3696,note_on,0,0,0,,5,,,77,127
3919,note_off,223,0,0,,5,,,77,127
3919,note_off,0,0,0,,10,,,81,127
3920,note_on,1,0,0,,7,,,79,127
3920,note_on,0,0,0,,4,,,76,127
4031,note_off,111,0,0,,4,,,76,127
4031,note_off,0,0,0,,7,,,79,127
4032,note_on,1,0,0,,5,,,77,127
4032,note_on,0,0,0,,2,,,74,127
4143,note_off,111,0,0,,2,,,74,127
4143,note_off,0,0,0,,5,,,77,127
4143,note_off,0,0,0,,5,,,41,127
4143,note_off,0,0,0,,5,,,53,127
4144,note_on,1,0,0,,7,,,55,127
4144,note_on,0,0,0,,7,,,43,127
4144,note_on,0,0,0,,0,,,72,127
4144,note_on,0,0,0,,4,,,76,127
4367,note_off,223,0,0,,4,,,76,127
4367,note_off,0,0,0,,0,,,72,127
4368,note_on,1,0,0,,2,,,74,127
4368,note_on,0,0,0,,12,,,71,127
4591,note_off,223,0,0,,12,,,71,127
4591,note_off,0,0,0,,2,,,74,127
4591,note_off,0,0,0,,7,,,43,127
4591,note_off,0,0,0,,7,,,55,127
4592,note_on,1,0,0,,0,,,48,127
4592,note_on,0,0,0,,0,,,36,127
4592,note_on,0,0,0,,12,,,71,127
4592,note_on,0,0,0,,2,,,74,127
5038,note_off,446,0,0,,2,,,74,127
5038,note_off,0,0,0,,12,,,71,127
5039,note_on,1,0,0,,4,,,76,127
5039,note_on,0,0,0,,0,,,72,127
5375,note_off,336,0,0,,0,,,72,127
5375,note_off,0,0,0,,4,,,76,127
5486,note_off,111,0,0,,0,,,36,127
5486,note_off,0,0,0,,0,,,48,127
5526,note_on,40,0,0,,0,,,60,127
5526,note_on,0,0,0,,7,,,55,127
5526,note_on,0,0,0,,4,,,52,127
5526,note_on,0,0,0,,0,,,48,127
5526,note_on,0,0,0,,7,,,67,127
5526,note_on,0,0,0,,4,,,76,127
5526,note_on,0,0,0,,0,,,72,127
5749,note_off,223,0,0,,0,,,72,127
5750,note_on,1,0,0,,0,,,72,127
5861,note_off,111,0,0,,0,,,72,127
5862,note_on,1,0,0,,0,,,72,127
5973,note_off,111,0,0,,0,,,72,127
5974,note_on,1,0,0,,0,,,72,127
6197,note_off,223,0,0,,0,,,72,127
6197,note_off,0,0,0,,4,,,76,127
6197,note_off,0,0,0,,7,,,67,127
6197,note_off,0,0,0,,0,,,48,127
6197,note_off,0,0,0,,4,,,52,127
6197,note_off,0,0,0,,7,,,55,127
6197,note_off,0,0,0,,0,,,60,127
6198,note_on,1,0,0,,0,,,72,127
6421,note_off,223,0,0,,0,,,72,127
6422,note_on,1,0,0,,4,,,76,127
6422,note_on,0,0,0,,10,,,69,127
6422,note_on,0,0,0,,10,,,57,127
6422,note_on,0,0,0,,4,,,52,127
6422,note_on,0,0,0,,10,,,45,127
6422,note_on,0,0,0,,0,,,48,127
6422,note_on,0,0,0,,0,,,72,127
6645,note_off,223,0,0,,0,,,72,127
6646,note_on,1,0,0,,0,,,72,127
6757,note_off,111,0,0,,0,,,72,127
6758,note_on,1,0,0,,0,,,72,127
6869,note_off,111,0,0,,0,,,72,127
6870,note_on,1,0,0,,0,,,72,127
7093,note_off,223,0,0,,0,,,72,127
7093,note_off,0,0,0,,0,,,48,127
7093,note_off,0,0,0,,10,,,45,127
7093,note_off,0,0,0,,4,,,52,127
7093,note_off,0,0,0,,10,,,57,127
7093,note_off,0,0,0,,10,,,69,127
7093,note_off,0,0,0,,4,,,76,127
7094,note_on,1,0,0,,0,,,72,127
7317,note_off,223,0,0,,0,,,72,127
7318,note_on,1,0,0,,10,,,81,127
7318,note_on,0,0,0,,10,,,69,127
7318,note_on,0,0,0,,5,,,53,127
7318,note_on,0,0,0,,0,,,48,127
7318,note_on,0,0,0,,5,,,41,127
7318,note_on,0,0,0,,0,,,72,127
7541,note_off,223,0,0,,0,,,72,127
7542,note_on,1,0,0,,0,,,72,127
7653,note_off,111,0,0,,0,,,72,127
7654,note_on,1,0,0,,0,,,72,127
7765,note_off,111,0,0,,0,,,72,127
7766,note_on,1,0,0,,0,,,72,127
7989,note_off,223,0,0,,0,,,72,127
7989,note_off,0,0,0,,5,,,41,127
7989,note_off,0,0,0,,0,,,48,127
7989,note_off,0,0,0,,5,,,53,127
7989,note_off,0,0,0,,10,,,69,127
7989,note_off,0,0,0,,10,,,81,127
7990,note_on,1,0,0,,0,,,72,127
8213,note_off,223,0,0,,0,,,72,127
8214,note_on,1,0,0,,0,,,48,127
8214,note_on,0,0,0,,4,,,40,127
8214,note_on,0,0,0,,7,,,43,127
8214,note_on,0,0,0,,0,,,36,127
8214,note_on,0,0,0,,4,,,76,127
8214,note_on,0,0,0,,7,,,79,127
8214,note_on,0,0,0,,0,,,84,127
8214,note_on,0,0,0,,0,,,72,127
8437,note_off,223,0,0,,0,,,72,127
8438,note_on,1,0,0,,0,,,72,127
8549,note_off,111,0,0,,0,,,72,127
8550,note_on,1,0,0,,0,,,72,127
8661,note_off,111,0,0,,0,,,72,127
8662,note_on,1,0,0,,0,,,72,127
8885,note_off,223,0,0,,0,,,72,127
8885,note_off,0,0,0,,0,,,84,127
8885,note_off,0,0,0,,7,,,79,127
8885,note_off,0,0,0,,4,,,76,127
8885,note_off,0,0,0,,0,,,36,127
8885,note_off,0,0,0,,7,,,43,127
8885,note_off,0,0,0,,4,,,40,127
8885,note_off,0,0,0,,0,,,48,127
8886,note_on,1,0,0,,0,,,72,127
9109,note_off,223,0,0,,0,,,72,127
9110,note_on,1,0,0,,5,,,53,127
9110,note_on,0,0,0,,5,,,41,127
9110,note_on,0,0,0,,5,,,77,127
9110,note_on,0,0,0,,10,,,81,127
9333,note_off,223,0,0,,10,,,81,127
9333,note_off,0,0,0,,5,,,77,127
9334,note_on,1,0,0,,4,,,76,127
9334,note_on,0,0,0,,7,,,79,127
9445,note_off,111,0,0,,7,,,79,127
9445,note_off,0,0,0,,4,,,76,127
9446,note_on,1,0,0,,5,,,77,127
9446,note_on,0,0,0,,2,,,74,127
9557,note_off,111,0,0,,2,,,74,127
9557,note_off,0,0,0,,5,,,77,127
9557,note_off,0,0,0,,5,,,41,127
9557,note_off,0,0,0,,5,,,53,127
9558,note_on,1,0,0,,7,,,55,127
9558,note_on,0,0,0,,7,,,43,127
9558,note_on,0,0,0,,0,,,72,127
9558,note_on,0,0,0,,4,,,76,127
9781,note_off,223,0,0,,4,,,76,127
9781,note_off,0,0,0,,0,,,72,127
9782,note_on,1,0,0,,2,,,74,127
9782,note_on,0,0,0,,12,,,71,127
10005,note_off,223,0,0,,12,,,71,127
10005,note_off,0,0,0,,2,,,74,127
10005,note_off,0,0,0,,7,,,55,127
10006,note_on,1,0,0,,0,,,48,127
10006,note_on,0,0,0,,0,,,36,127
10006,note_on,0,0,0,,2,,,74,127
10006,note_on,0,0,0,,12,,,71,127
10452,note_off,446,0,0,,12,,,71,127
10452,note_off,0,0,0,,2,,,74,127
10453,note_on,1,0,0,,0,,,72,127
10453,note_on,0,0,0,,4,,,76,127
10789,note_off,336,0,0,,4,,,76,127
10789,note_off,0,0,0,,0,,,72,127
10900,note_off,111,0,0,,0,,,36,127
10900,note_off,0,0,0,,0,,,48,127
10901,note_off,1,0,0,,7,,,43,127
10966,note_on,65,0,0,,7,,,79,127
10966,note_on,0,0,0,,0,,,60,127
10966,note_on,0,0,0,,0,,,72,127
11189,note_off,223,0,0,,7,,,79,127
11190,note_on,1,0,0,,7,,,79,127
11301,note_off,111,0,0,,7,,,79,127
11302,note_on,1,0,0,,7,,,79,127
11413,note_off,111,0,0,,7,,,79,127
11414,note_on,1,0,0,,7,,,79,127
11637,note_off,223,0,0,,7,,,79,127
11638,note_on,1,0,0,,7,,,79,127
11861,note_off,223,0,0,,7,,,79,127
11861,note_off,0,0,0,,0,,,72,127
11861,note_off,0,0,0,,0,,,60,127
11862,note_on,1,0,0,,10,,,81,127
11862,note_on,0,0,0,,7,,,79,127
11862,note_on,0,0,0,,12,,,71,127
11862,note_on,0,0,0,,2,,,62,127
12085,note_off,223,0,0,,7,,,79,127
12085,note_off,0,0,0,,10,,,81,127
12086,note_on,1,0,0,,7,,,79,127
12197,note_off,111,0,0,,7,,,79,127
12198,note_on,1,0,0,,7,,,79,127
12309,note_off,111,0,0,,7,,,79,127
12310,note_on,1,0,0,,7,,,79,127
12533,note_off,223,0,0,,7,,,79,127
12534,note_on,1,0,0,,7,,,79,127
12757,note_off,223,0,0,,7,,,79,127
12757,note_off,0,0,0,,2,,,62,127
12757,note_off,0,0,0,,12,,,71,127
12758,note_on,1,0,0,,8,,,80,127
12758,note_on,0,0,0,,7,,,79,127
12758,note_on,0,0,0,,4,,,64,127
12758,note_on,0,0,0,,11,,,70,127
12981,note_off,223,0,0,,7,,,79,127
12981,note_off,0,0,0,,8,,,80,127
12982,note_on,1,0,0,,7,,,79,127
13093,note_off,111,0,0,,7,,,79,127
13094,note_on,1,0,0,,7,,,79,127
13205,note_off,111,0,0,,7,,,79,127
13206,note_on,1,0,0,,7,,,79,127
13429,note_off,223,0,0,,7,,,79,127
13429,note_off,0,0,0,,11,,,70,127
13430,note_on,1,0,0,,7,,,79,127
13430,note_on,0,0,0,,0,,,72,127
13653,note_off,223,0,0,,0,,,72,127
13653,note_off,0,0,0,,7,,,79,127
13653,note_off,0,0,0,,4,,,64,127
13654,note_on,1,0,0,,7,,,79,127
13654,note_on,0,0,0,,11,,,70,127
13654,note_on,0,0,0,,5,,,65,127
13654,note_on,0,0,0,,1,,,73,127
13877,note_off,223,0,0,,7,,,79,127
13878,note_on,1,0,0,,7,,,79,127
14101,note_off,223,0,0,,7,,,79,127
14102,note_on,1,0,0,,11,,,82,127
14325,note_off,223,0,0,,11,,,82,127
14326,note_on,1,0,0,,1,,,85,127
14549,note_off,223,0,0,,1,,,85,127
14549,note_off,0,0,0,,1,,,73,127
14549,note_off,0,0,0,,5,,,65,127
14549,note_off,0,0,0,,11,,,70,127
14550,note_on,1,0,0,,11,,,82,127
14550,note_on,0,0,0,,0,,,84,127
14550,note_on,0,0,0,,11,,,70,127
14550,note_on,0,0,0,,7,,,67,127
14550,note_on,0,0,0,,0,,,72,127
14550,note_on,0,0,0,,4,,,76,127
14773,note_off,223,0,0,,0,,,84,127
14773,note_off,0,0,0,,11,,,82,127
14774,note_on,1,0,0,,8,,,80,127
14885,note_off,111,0,0,,8,,,80,127
14886,note_on,1,0,0,,7,,,79,127
14997,note_off,111,0,0,,7,,,79,127
14998,note_on,1,0,0,,5,,,77,127
15221,note_off,223,0,0,,5,,,77,127
15221,note_off,0,0,0,,4,,,76,127
15222,note_on,1,0,0,,4,,,76,127
15445,note_off,223,0,0,,4,,,76,127
15445,note_off,0,0,0,,0,,,72,127
15445,note_off,0,0,0,,7,,,67,127
15445,note_off,0,0,0,,11,,,70,127
15446,note_on,1,0,0,,4,,,76,127
15446,note_on,0,0,0,,8,,,68,127
15446,note_on,0,0,0,,0,,,72,127
15892,note_off,446,0,0,,4,,,76,127
15893,note_on,1,0,0,,5,,,77,127
16339,note_off,446,0,0,,5,,,77,127
16339,note_off,0,0,0,,0,,,72,127
16339,note_off,0,0,0,,8,,,68,127
16359,note_on,20,0,0,,11,,,70,127
16359,note_on,0,0,0,,11,,,58,127
16359,note_on,0,0,0,,5,,,77,127
16582,note_off,223,0,0,,5,,,77,127
16583,note_on,1,0,0,,5,,,77,127
16694,note_off,111,0,0,,5,,,77,127
16695,note_on,1,0,0,,5,,,77,127
16806,note_off,111,0,0,,5,,,77,127
16807,note_on,1,0,0,,5,,,77,127
17030,note_off,223,0,0,,5,,,77,127
17031,note_on,1,0,0,,5,,,77,127
17254,note_off,223,0,0,,5,,,77,127
17254,note_off,0,0,0,,11,,,58,127
17254,note_off,0,0,0,,11,,,70,127
17255,note_on,1,0,0,,0,,,60,127
17255,note_on,0,0,0,,10,,,69,127
17255,note_on,0,0,0,,7,,,79,127
17255,note_on,0,0,0,,5,,,77,127
17478,note_off,223,0,0,,5,,,77,127
17478,note_off,0,0,0,,7,,,79,127
17479,note_on,1,0,0,,5,,,77,127
17590,note_off,111,0,0,,5,,,77,127
17591,note_on,1,0,0,,5,,,77,127
17702,note_off,111,0,0,,5,,,77,127
17703,note_on,1,0,0,,5,,,77,127
17926,note_off,223,0,0,,5,,,77,127
17927,note_on,1,0,0,,5,,,77,127
18150,note_off,223,0,0,,5,,,77,127
18150,note_off,0,0,0,,10,,,69,127
18150,note_off,0,0,0,,0,,,60,127
18151,note_on,1,0,0,,8,,,68,127
18151,note_on,0,0,0,,2,,,62,127
18151,note_on,0,0,0,,5,,,77,127
18151,note_on,0,0,0,,6,,,78,127
18374,note_off,223,0,0,,6,,,78,127
18374,note_off,0,0,0,,5,,,77,127
18375,note_on,1,0,0,,5,,,77,127
18486,note_off,111,0,0,,5,,,77,127
18487,note_on,1,0,0,,5,,,77,127
18598,note_off,111,0,0,,5,,,77,127
18599,note_on,1,0,0,,5,,,77,127
18822,note_off,223,0,0,,5,,,77,127
18822,note_off,0,0,0,,8,,,68,127
18823,note_on,1,0,0,,11,,,70,127
18823,note_on,0,0,0,,5,,,77,127
19046,note_off,223,0,0,,5,,,77,127
19046,note_off,0,0,0,,11,,,70,127
19046,note_off,0,0,0,,2,,,62,127
19047,note_on,1,0,0,,12,,,71,127
19047,note_on,0,0,0,,3,,,63,127
19047,note_on,0,0,0,,8,,,68,127
19047,note_on,0,0,0,,5,,,77,127
19270,note_off,223,0,0,,5,,,77,127
19271,note_on,1,0,0,,5,,,77,127
19494,note_off,223,0,0,,5,,,77,127
19495,note_on,1,0,0,,8,,,80,127
19718,note_off,223,0,0,,8,,,80,127
19719,note_on,1,0,0,,12,,,83,127
19942,note_off,223,0,0,,12,,,83,127
19942,note_off,0,0,0,,8,,,68,127
19942,note_off,0,0,0,,3,,,63,127
19942,note_off,0,0,0,,12,,,71,127
19943,note_on,1,0,0,,8,,,68,127
19943,note_on,0,0,0,,11,,,70,127
19943,note_on,0,0,0,,2,,,74,127
19943,note_on,0,0,0,,5,,,65,127
19943,note_on,0,0,0,,11,,,82,127
19943,note_on,0,0,0,,8,,,80,127
20166,note_off,223,0,0,,8,,,80,127
20166,note_off,0,0,0,,11,,,82,127
20167,note_on,1,0,0,,6,,,78,127
20278,note_off,111,0,0,,6,,,78,127
20279,note_on,1,0,0,,5,,,77,127
20390,note_off,111,0,0,,5,,,77,127
20391,note_on,1,0,0,,3,,,75,127
20614,note_off,223,0,0,,3,,,75,127
20614,note_off,0,0,0,,2,,,74,127
20615,note_on,1,0,0,,2,,,74,127
20838,note_off,223,0,0,,2,,,74,127
20838,note_off,0,0,0,,5,,,65,127
20838,note_off,0,0,0,,11,,,70,127
20838,note_off,0,0,0,,8,,,68,127
20839,note_on,1,0,0,,11,,,70,127
20839,note_on,0,0,0,,6,,,66,127
20839,note_on,0,0,0,,2,,,74,127
21285,note_off,446,0,0,,2,,,74,127
21286,note_on,1,0,0,,3,,,75,127
21732,note_off,446,0,0,,3,,,75,127
21732,note_off,0,0,0,,6,,,66,127
21732,note_off,0,0,0,,11,,,70,127
21752,note_on,20,0,0,,3,,,75,127
21752,note_on,0,0,0,,6,,,66,127
21752,note_on,0,0,0,,11,,,70,127
21975,note_off,223,0,0,,3,,,75,127
21976,note_on,1,0,0,,3,,,75,127
22087,note_off,111,0,0,,3,,,75,127
22088,note_on,1,0,0,,3,,,75,127
22199,note_off,111,0,0,,3,,,75,127
22200,note_on,1,0,0,,3,,,75,127
22423,note_off,223,0,0,,3,,,75,127
22423,note_off,0,0,0,,11,,,70,127
22423,note_off,0,0,0,,6,,,66,127
22424,note_on,1,0,0,,5,,,77,127
22424,note_on,0,0,0,,8,,,68,127
22424,note_on,0,0,0,,5,,,65,127
22647,note_off,223,0,0,,5,,,65,127
22647,note_off,0,0,0,,8,,,68,127
22647,note_off,0,0,0,,5,,,77,127
22648,note_on,1,0,0,,6,,,78,127
22648,note_on,0,0,0,,6,,,66,127
22648,note_on,0,0,0,,3,,,63,127
22871,note_off,223,0,0,,6,,,78,127
22872,note_on,1,0,0,,3,,,75,127
22983,note_off,111,0,0,,3,,,75,127
22984,note_on,1,0,0,,3,,,75,127
23095,note_off,111,0,0,,3,,,75,127
23096,note_on,1,0,0,,3,,,75,127
23319,note_off,223,0,0,,3,,,75,127
23319,note_off,0,0,0,,3,,,63,127
23319,note_off,0,0,0,,6,,,66,127
23320,note_on,1,0,0,,5,,,77,127
23320,note_on,0,0,0,,1,,,61,127
23320,note_on,0,0,0,,5,,,65,127
23543,note_off,223,0,0,,5,,,65,127
23543,note_off,0,0,0,,1,,,61,127
23543,note_off,0,0,0,,5,,,77,127
23544,note_on,1,0,0,,6,,,78,127
23544,note_on,0,0,0,,3,,,63,127
23544,note_on,0,0,0,,0,,,60,127
23767,note_off,223,0,0,,6,,,78,127
23768,note_on,1,0,0,,3,,,75,127
23879,note_off,111,0,0,,3,,,75,127
23880,note_on,1,0,0,,3,,,75,127
23991,note_off,111,0,0,,3,,,75,127
23992,note_on,1,0,0,,3,,,75,127
24215,note_off,223,0,0,,3,,,75,127
24215,note_off,0,0,0,,0,,,60,127
24215,note_off,0,0,0,,3,,,63,127
24216,note_on,1,0,0,,1,,,73,127
24216,note_on,0,0,0,,5,,,77,127
24216,note_on,0,0,0,,5,,,65,127
24216,note_on,0,0,0,,11,,,58,127
24439,note_off,223,0,0,,11,,,58,127
24439,note_off,0,0,0,,5,,,65,127
24439,note_off,0,0,0,,5,,,77,127
24439,note_off,0,0,0,,1,,,73,127
24440,note_on,1,0,0,,0,,,72,127
24440,note_on,0,0,0,,6,,,78,127
24440,note_on,0,0,0,,8,,,56,127
24440,note_on,0,0,0,,6,,,66,127
24663,note_off,223,0,0,,6,,,78,127
24664,note_on,1,0,0,,6,,,78,127
24775,note_off,111,0,0,,6,,,78,127
24776,note_on,1,0,0,,6,,,78,127
24887,note_off,111,0,0,,6,,,78,127
24888,note_on,1,0,0,,6,,,78,127
25111,note_off,223,0,0,,6,,,78,127
25112,note_on,1,0,0,,6,,,78,127
25335,note_off,223,0,0,,6,,,78,127
25335,note_off,0,0,0,,6,,,66,127
25335,note_off,0,0,0,,8,,,56,127
25335,note_off,0,0,0,,0,,,72,127
25345,note_on,10,0,0,,0,,,72,127
25345,note_on,0,0,0,,6,,,78,127
25345,note_on,0,0,0,,8,,,80,127
25345,note_on,0,0,0,,8,,,56,127
25345,note_on,0,0,0,,6,,,66,127
25568,note_off,223,0,0,,8,,,80,127
25568,note_off,0,0,0,,6,,,78,127
25569,note_on,1,0,0,,6,,,78,127
25680,note_off,111,0,0,,6,,,78,127
25681,note_on,1,0,0,,6,,,78,127
25792,note_off,111,0,0,,6,,,78,127
25793,note_on,1,0,0,,6,,,78,127
26016,note_off,223,0,0,,6,,,78,127
26017,note_on,1,0,0,,6,,,78,127
26240,note_off,223,0,0,,6,,,78,127
26240,note_off,0,0,0,,6,,,66,127
26240,note_off,0,0,0,,8,,,56,127
26240,note_off,0,0,0,,0,,,72,127
26260,note_on,20,0,0,,0,,,72,127
26260,note_on,0,0,0,,6,,,78,127
26260,note_on,0,0,0,,10,,,57,127
26260,note_on,0,0,0,,0,,,60,127
26260,note_on,0,0,0,,2,,,62,127
26260,note_on,0,0,0,,6,,,66,127
26483,note_off,223,0,0,,6,,,78,127
26484,note_on,1,0,0,,0,,,84,127
26707,note_off,223,0,0,,0,,,84,127
26707,note_off,0,0,0,,0,,,72,127
26708,note_on,1,0,0,,0,,,84,127
26931,note_off,223,0,0,,0,,,84,127
26932,note_on,1,0,0,,10,,,81,127
27155,note_off,223,0,0,,10,,,81,127
27155,note_off,0,0,0,,6,,,66,127
27155,note_off,0,0,0,,2,,,62,127
27155,note_off,0,0,0,,0,,,60,127
27155,note_off,0,0,0,,10,,,57,127
27156,note_on,1,0,0,,10,,,81,127
27156,note_on,0,0,0,,0,,,60,127
27156,note_on,0,0,0,,10,,,57,127
27156,note_on,0,0,0,,2,,,62,127
27156,note_on,0,0,0,,6,,,66,127
27379,note_off,223,0,0,,10,,,81,127
27380,note_on,1,0,0,,6,,,78,127
27603,note_off,223,0,0,,6,,,78,127
27604,note_on,1,0,0,,6,,,78,127
27827,note_off,223,0,0,,6,,,78,127
27828,note_on,1,0,0,,0,,,72,127
28051,note_off,223,0,0,,0,,,72,127
28051,note_off,0,0,0,,6,,,66,127
28051,note_off,0,0,0,,2,,,62,127
28051,note_off,0,0,0,,10,,,57,127
28051,note_off,0,0,0,,0,,,60,127
28052,note_on,1,0,0,,2,,,74,127
28052,note_on,0,0,0,,7,,,55,127
28052,note_on,0,0,0,,2,,,62,127
28052,note_on,0,0,0,,7,,,67,127
28107,note_off,55,0,0,,2,,,74,127
28108,note_on,1,0,0,,0,,,72,127
28163,note_off,55,0,0,,0,,,72,127
28164,note_on,1,0,0,,2,,,74,127
28219,note_off,55,0,0,,2,,,74,127
28220,note_on,1,0,0,,0,,,72,127
28275,note_off,55,0,0,,0,,,72,127
28276,note_on,1,0,0,,12,,,71,127
28387,note_off,111,0,0,,12,,,71,127
28388,note_on,1,0,0,,10,,,69,127
28499,note_off,111,0,0,,10,,,69,127
28500,note_on,1,0,0,,10,,,69,127
28723,note_off,223,0,0,,10,,,69,127
28732,note_on,9,0,0,,12,,,71,127
29218,note_off,486,0,0,,7,,,67,127
29218,note_off,0,0,0,,2,,,62,127
29218,note_off,0,0,0,,7,,,55,127
29256,note_off,38,0,0,,12,,,71,127
29945,note_on,689,0,0,,7,,,67,127
29945,note_on,0,0,0,,12,,,71,127
30056,note_off,111,0,0,,12,,,71,127
30057,note_on,1,0,0,,2,,,74,127
30168,note_off,111,0,0,,2,,,74,127
30169,note_on,1,0,0,,0,,,72,127
30280,note_off,111,0,0,,0,,,72,127
30281,note_on,1,0,0,,4,,,76,127
30392,note_off,111,0,0,,4,,,76,127
30393,note_on,1,0,0,,2,,,74,127
30504,note_off,111,0,0,,2,,,74,127
30505,note_on,1,0,0,,5,,,77,127
30616,note_off,111,0,0,,5,,,77,127
30617,note_on,1,0,0,,4,,,76,127
30728,note_off,111,0,0,,4,,,76,127
30729,note_on,1,0,0,,7,,,79,127
30840,note_off,111,0,0,,7,,,79,127
30840,note_off,0,0,0,,7,,,67,127
30841,note_on,1,0,0,,5,,,65,127
30841,note_on,0,0,0,,5,,,77,127
30952,note_off,111,0,0,,5,,,77,127
30953,note_on,1,0,0,,10,,,81,127
31064,note_off,111,0,0,,10,,,81,127
31065,note_on,1,0,0,,8,,,80,127
31176,note_off,111,0,0,,8,,,80,127
31177,note_on,1,0,0,,12,,,83,127
31288,note_off,111,0,0,,12,,,83,127
31289,note_on,1,0,0,,10,,,81,127
31400,note_off,111,0,0,,10,,,81,127
31401,note_on,1,0,0,,0,,,84,127
31512,note_off,111,0,0,,0,,,84,127
31513,note_on,1,0,0,,12,,,83,127
31624,note_off,111,0,0,,12,,,83,127
31625,note_on,1,0,0,,4,,,88,127
31736,note_off,111,0,0,,4,,,88,127
31736,note_off,0,0,0,,5,,,65,127
31737,note_on,1,0,0,,4,,,64,127
31737,note_on,0,0,0,,2,,,86,127
31848,note_off,111,0,0,,2,,,86,127
31849,note_on,1,0,0,,0,,,84,127
31960,note_off,111,0,0,,0,,,84,127
31961,note_on,1,0,0,,12,,,83,127
32072,note_off,111,0,0,,12,,,83,127
32073,note_on,1,0,0,,10,,,81,127
32184,note_off,111,0,0,,10,,,81,127
32185,note_on,1,0,0,,8,,,80,127
32296,note_off,111,0,0,,8,,,80,127
32297,note_on,1,0,0,,5,,,77,127
32408,note_off,111,0,0,,5,,,77,127
32409,note_on,1,0,0,,4,,,76,127
32520,note_off,111,0,0,,4,,,76,127
32521,note_on,1,0,0,,2,,,74,127
32632,note_off,111,0,0,,2,,,74,127
32632,note_off,0,0,0,,4,,,64,127
32633,note_on,1,0,0,,10,,,57,127
32633,note_on,0,0,0,,2,,,74,127
33079,note_off,446,0,0,,2,,,74,127
33080,note_on,1,0,0,,0,,,72,127
33135,note_off,55,0,0,,0,,,72,127
33136,note_on,1,0,0,,2,,,74,127
33191,note_off,55,0,0,,2,,,74,127
33192,note_on,1,0,0,,0,,,72,127
33247,note_off,55,0,0,,0,,,72,127
33248,note_on,1,0,0,,2,,,74,127
33303,note_off,55,0,0,,2,,,74,127
33304,note_on,1,0,0,,0,,,72,127
33472,note_off,168,0,0,,10,,,57,127
33528,note_off,56,0,0,,0,,,72,127
33537,note_on,9,0,0,,6,,,66,127
33537,note_on,0,0,0,,10,,,69,127
33648,note_off,111,0,0,,10,,,69,127
33649,note_on,1,0,0,,0,,,72,127
33760,note_off,111,0,0,,0,,,72,127
33761,note_on,1,0,0,,12,,,71,127
33872,note_off,111,0,0,,12,,,71,127
33873,note_on,1,0,0,,2,,,74,127
33984,note_off,111,0,0,,2,,,74,127
33985,note_on,1,0,0,,0,,,72,127
34096,note_off,111,0,0,,0,,,72,127
34097,note_on,1,0,0,,4,,,76,127
34208,note_off,111,0,0,,4,,,76,127
34209,note_on,1,0,0,,2,,,74,127
34320,note_off,111,0,0,,2,,,74,127
34321,note_on,1,0,0,,6,,,78,127
34432,note_off,111,0,0,,6,,,78,127
34432,note_off,0,0,0,,6,,,66,127
34433,note_on,1,0,0,,4,,,64,127
34433,note_on,0,0,0,,4,,,76,127
34544,note_off,111,0,0,,4,,,76,127
34545,note_on,1,0,0,,7,,,79,127
34656,note_off,111,0,0,,7,,,79,127
34657,note_on,1,0,0,,6,,,78,127
34768,note_off,111,0,0,,6,,,78,127
34769,note_on,1,0,0,,10,,,81,127
34880,note_off,111,0,0,,10,,,81,127
34881,note_on,1,0,0,,7,,,79,127
34992,note_off,111,0,0,,7,,,79,127
34993,note_on,1,0,0,,12,,,83,127
35104,note_off,111,0,0,,12,,,83,127
35105,note_on,1,0,0,,10,,,81,127
35216,note_off,111,0,0,,10,,,81,127
35217,note_on,1,0,0,,2,,,86,127
35328,note_off,111,0,0,,2,,,86,127
35328,note_off,0,0,0,,4,,,64,127
35329,note_on,1,0,0,,2,,,62,127
35329,note_on,0,0,0,,0,,,84,127
35440,note_off,111,0,0,,0,,,84,127
35441,note_on,1,0,0,,12,,,83,127
35552,note_off,111,0,0,,12,,,83,127
35553,note_on,1,0,0,,10,,,81,127
35664,note_off,111,0,0,,10,,,81,127
35665,note_on,1,0,0,,7,,,79,127
35776,note_off,111,0,0,,7,,,79,127
35777,note_on,1,0,0,,6,,,78,127
35888,note_off,111,0,0,,6,,,78,127
35889,note_on,1,0,0,,4,,,76,127
36000,note_off,111,0,0,,4,,,76,127
36001,note_on,1,0,0,,2,,,74,127
36112,note_off,111,0,0,,2,,,74,127
36113,note_on,1,0,0,,0,,,72,127
36224,note_off,111,0,0,,0,,,72,127
36224,note_off,0,0,0,,2,,,62,127
36225,note_on,1,0,0,,7,,,55,127
36225,note_on,0,0,0,,0,,,72,127
36671,note_off,446,0,0,,0,,,72,127
36672,note_on,1,0,0,,12,,,71,127
36727,note_off,55,0,0,,12,,,71,127
36728,note_on,1,0,0,,0,,,72,127
36783,note_off,55,0,0,,0,,,72,127
36784,note_on,1,0,0,,12,,,71,127
36839,note_off,55,0,0,,12,,,71,127
36840,note_on,1,0,0,,0,,,72,127
36895,note_off,55,0,0,,0,,,72,127
36896,note_on,1,0,0,,12,,,71,127
37157,note_off,261,0,0,,7,,,55,127
37166,note_on,9,0,0,,7,,,43,127
37175,note_off,9,0,0,,12,,,71,127
37276,note_off,101,0,0,,7,,,43,127
37277,note_on,1,0,0,,12,,,47,127
37277,note_on,0,0,0,,4,,,76,127
37388,note_off,111,0,0,,4,,,76,127
37388,note_off,0,0,0,,12,,,47,127
37389,note_on,1,0,0,,10,,,45,127
37389,note_on,0,0,0,,2,,,74,127
37500,note_off,111,0,0,,10,,,45,127
37501,note_on,1,0,0,,0,,,48,127
37557,note_off,56,0,0,,2,,,74,127
37612,note_off,55,0,0,,0,,,48,127
37613,note_on,1,0,0,,12,,,47,127
37724,note_off,111,0,0,,12,,,47,127
37725,note_on,1,0,0,,2,,,50,127
37836,note_off,111,0,0,,2,,,50,127
37837,note_on,1,0,0,,0,,,48,127
37948,note_off,111,0,0,,0,,,48,127
37949,note_on,1,0,0,,4,,,52,127
38060,note_off,111,0,0,,4,,,52,127
38061,note_on,1,0,0,,2,,,50,127
38172,note_off,111,0,0,,2,,,50,127
38173,note_on,1,0,0,,6,,,54,127
38173,note_on,0,0,0,,4,,,76,127
38284,note_off,111,0,0,,4,,,76,127
38284,note_off,0,0,0,,6,,,54,127
38285,note_on,1,0,0,,4,,,52,127
38285,note_on,0,0,0,,2,,,74,127
38396,note_off,111,0,0,,4,,,52,127
38397,note_on,1,0,0,,7,,,55,127
38453,note_off,56,0,0,,2,,,74,127
38508,note_off,55,0,0,,7,,,55,127
38509,note_on,1,0,0,,6,,,54,127
38620,note_off,111,0,0,,6,,,54,127
38621,note_on,1,0,0,,10,,,57,127
38732,note_off,111,0,0,,10,,,57,127
38733,note_on,1,0,0,,2,,,50,127
38844,note_off,111,0,0,,2,,,50,127
38845,note_on,1,0,0,,6,,,54,127
38955,note_off,110,0,0,,6,,,54,127
38967,note_on,12,0,0,,7,,,43,127
39078,note_off,111,0,0,,7,,,43,127
39079,note_on,1,0,0,,12,,,47,127
39079,note_on,0,0,0,,4,,,76,127
39190,note_off,111,0,0,,4,,,76,127
39190,note_off,0,0,0,,12,,,47,127
39191,note_on,1,0,0,,10,,,45,127
39191,note_on,0,0,0,,2,,,74,127
39302,note_off,111,0,0,,10,,,45,127
39303,note_on,1,0,0,,0,,,48,127
39359,note_off,56,0,0,,2,,,74,127
39414,note_off,55,0,0,,0,,,48,127
39415,note_on,1,0,0,,12,,,47,127
39526,note_off,111,0,0,,12,,,47,127
39527,note_on,1,0,0,,2,,,50,127
39638,note_off,111,0,0,,2,,,50,127
39639,note_on,1,0,0,,0,,,48,127
39750,note_off,111,0,0,,0,,,48,127
39751,note_on,1,0,0,,4,,,52,127
39862,note_off,111,0,0,,4,,,52,127
39863,note_on,1,0,0,,2,,,50,127
39974,note_off,111,0,0,,2,,,50,127
39975,note_on,1,0,0,,6,,,54,127
39975,note_on,0,0,0,,4,,,76,127
40086,note_off,111,0,0,,4,,,76,127
40086,note_off,0,0,0,,6,,,54,127
40087,note_on,1,0,0,,4,,,52,127
40087,note_on,0,0,0,,2,,,74,127
40198,note_off,111,0,0,,4,,,52,127
40199,note_on,1,0,0,,7,,,55,127
40255,note_off,56,0,0,,2,,,74,127
40310,note_off,55,0,0,,7,,,55,127
40311,note_on,1,0,0,,6,,,54,127
40422,note_off,111,0,0,,6,,,54,127
40423,note_on,1,0,0,,10,,,57,127
40534,note_off,111,0,0,,10,,,57,127
40535,note_on,1,0,0,,2,,,50,127
40646,note_off,111,0,0,,2,,,50,127
40647,note_on,1,0,0,,6,,,54,127
40748,note_off,101,0,0,,6,,,54,127
40768,note_on,20,0,0,,7,,,43,127
40879,note_off,111,0,0,,7,,,43,127
40880,note_on,1,0,0,,12,,,47,127
40880,note_on,0,0,0,,10,,,81,127
40991,note_off,111,0,0,,10,,,81,127
40991,note_off,0,0,0,,12,,,47,127
40992,note_on,1,0,0,,10,,,45,127
40992,note_on,0,0,0,,7,,,79,127
41103,note_off,111,0,0,,10,,,45,127
41104,note_on,1,0,0,,0,,,48,127
41160,note_off,56,0,0,,7,,,79,127
41215,note_off,55,0,0,,0,,,48,127
41216,note_on,1,0,0,,12,,,47,127
41327,note_off,111,0,0,,12,,,47,127
41328,note_on,1,0,0,,2,,,50,127
41439,note_off,111,0,0,,2,,,50,127
41440,note_on,1,0,0,,7,,,43,127
41551,note_off,111,0,0,,7,,,43,127
41552,note_on,1,0,0,,2,,,50,127
41663,note_off,111,0,0,,2,,,50,127
41664,note_on,1,0,0,,0,,,48,127
41775,note_off,111,0,0,,0,,,48,127
41776,note_on,1,0,0,,4,,,52,127
41776,note_on,0,0,0,,10,,,81,127
41887,note_off,111,0,0,,10,,,81,127
41887,note_off,0,0,0,,4,,,52,127
41888,note_on,1,0,0,,2,,,50,127
41888,note_on,0,0,0,,7,,,79,127
41999,note_off,111,0,0,,2,,,50,127
42000,note_on,1,0,0,,6,,,54,127
42056,note_off,56,0,0,,7,,,79,127
42111,note_off,55,0,0,,6,,,54,127
42112,note_on,1,0,0,,4,,,52,127
42223,note_off,111,0,0,,4,,,52,127
42224,note_on,1,0,0,,7,,,55,127
42335,note_off,111,0,0,,7,,,55,127
42336,note_on,1,0,0,,6,,,54,127
42447,note_off,111,0,0,,6,,,54,127
42448,note_on,1,0,0,,10,,,57,127
42556,note_off,108,0,0,,10,,,57,127
42569,note_on,13,0,0,,7,,,43,127
42680,note_off,111,0,0,,7,,,43,127
42681,note_on,1,0,0,,12,,,47,127
42681,note_on,0,0,0,,10,,,81,127
42792,note_off,111,0,0,,10,,,81,127
42792,note_off,0,0,0,,12,,,47,127
42793,note_on,1,0,0,,10,,,45,127
42793,note_on,0,0,0,,7,,,79,127
42904,note_off,111,0,0,,10,,,45,127
42905,note_on,1,0,0,,0,,,48,127
42961,note_off,56,0,0,,7,,,79,127
43016,note_off,55,0,0,,0,,,48,127
43017,note_on,1,0,0,,12,,,47,127
43128,note_off,111,0,0,,12,,,47,127
43129,note_on,1,0,0,,2,,,50,127
43240,note_off,111,0,0,,2,,,50,127
43241,note_on,1,0,0,,7,,,43,127
43352,note_off,111,0,0,,7,,,43,127
43353,note_on,1,0,0,,2,,,50,127
43464,note_off,111,0,0,,2,,,50,127
43465,note_on,1,0,0,,0,,,48,127
43576,note_off,111,0,0,,0,,,48,127
43577,note_on,1,0,0,,4,,,52,127
43577,note_on,0,0,0,,10,,,81,127
43688,note_off,111,0,0,,10,,,81,127
43688,note_off,0,0,0,,4,,,52,127
43689,note_on,1,0,0,,2,,,50,127
43689,note_on,0,0,0,,7,,,79,127
43800,note_off,111,0,0,,2,,,50,127
43801,note_on,1,0,0,,6,,,54,127
43857,note_off,56,0,0,,7,,,79,127
43912,note_off,55,0,0,,6,,,54,127
43913,note_on,1,0,0,,4,,,52,127
44024,note_off,111,0,0,,4,,,52,127
44025,note_on,1,0,0,,7,,,55,127
44025,note_on,0,0,0,,10,,,81,127
44136,note_off,111,0,0,,10,,,81,127
44136,note_off,0,0,0,,7,,,55,127
44137,note_on,1,0,0,,6,,,54,127
44137,note_on,0,0,0,,7,,,79,127
44248,note_off,111,0,0,,6,,,54,127
44249,note_on,1,0,0,,10,,,57,127
44305,note_off,56,0,0,,7,,,79,127
44360,note_off,55,0,0,,10,,,57,127
44361,note_on,1,0,0,,7,,,55,127
44472,note_off,111,0,0,,7,,,55,127
44473,note_on,1,0,0,,12,,,59,127
44473,note_on,0,0,0,,10,,,81,127
44584,note_off,111,0,0,,10,,,81,127
44584,note_off,0,0,0,,12,,,59,127
44585,note_on,1,0,0,,10,,,57,127
44585,note_on,0,0,0,,7,,,79,127
44696,note_off,111,0,0,,10,,,57,127
44697,note_on,1,0,0,,0,,,60,127
44808,note_off,111,0,0,,0,,,60,127
44809,note_on,1,0,0,,12,,,59,127
44920,note_off,111,0,0,,7,,,79,127
44921,note_on,1,0,0,,6,,,78,127
45032,note_off,111,0,0,,6,,,78,127
45032,note_off,0,0,0,,12,,,59,127
45033,note_on,1,0,0,,7,,,55,127
45033,note_on,0,0,0,,4,,,76,127
45144,note_off,111,0,0,,4,,,76,127
45145,note_on,1,0,0,,2,,,74,127
45256,note_off,111,0,0,,2,,,74,127
45256,note_off,0,0,0,,7,,,55,127
45257,note_on,1,0,0,,0,,,60,127
45257,note_on,0,0,0,,4,,,76,127
45368,note_off,111,0,0,,4,,,76,127
45369,note_on,1,0,0,,12,,,71,127
45480,note_off,111,0,0,,12,,,71,127
45481,note_on,1,0,0,,0,,,48,127
45481,note_on,0,0,0,,0,,,72,127
45592,note_off,111,0,0,,0,,,72,127
45593,note_on,1,0,0,,10,,,69,127
45700,note_off,107,0,0,,0,,,60,127
45703,note_off,3,0,0,,10,,,69,127
45703,note_off,0,0,0,,0,,,48,127
45704,note_on,1,0,0,,2,,,50,127
45704,note_on,0,0,0,,7,,,67,127
45927,note_off,223,0,0,,7,,,67,127
45928,note_on,1,0,0,,2,,,38,127
45928,note_on,0,0,0,,7,,,67,127
45983,note_off,55,0,0,,7,,,67,127
45985,note_on,2,0,0,,6,,,66,127
46041,note_off,56,0,0,,6,,,66,127
46042,note_on,1,0,0,,4,,,64,127
46100,note_off,58,0,0,,4,,,64,127
46101,note_on,1,0,0,,6,,,66,127
46162,note_off,61,0,0,,6,,,66,127
46169,note_off,7,0,0,,2,,,50,127
46170,note_on,1,0,0,,7,,,67,127
46170,note_on,0,0,0,,7,,,43,127
46171,note_off,1,0,0,,2,,,38,127
46281,note_off,110,0,0,,7,,,43,127
46281,note_off,0,0,0,,7,,,67,127
46282,note_on,1,0,0,,4,,,76,127
46282,note_on,0,0,0,,12,,,47,127
46390,note_off,108,0,0,,12,,,47,127
46390,note_off,0,0,0,,4,,,76,127
46393,note_on,3,0,0,,2,,,74,127
46393,note_on,0,0,0,,10,,,45,127
46501,note_off,108,0,0,,10,,,45,127
46504,note_on,3,0,0,,0,,,48,127
46558,note_off,54,0,0,,2,,,74,127
46613,note_off,55,0,0,,0,,,48,127
46616,note_on,3,0,0,,12,,,47,127
46724,note_off,108,0,0,,12,,,47,127
46727,note_on,3,0,0,,2,,,50,127
46835,note_off,108,0,0,,2,,,50,127
46838,note_on,3,0,0,,0,,,48,127
46946,note_off,108,0,0,,0,,,48,127
46949,note_on,3,0,0,,4,,,52,127
47057,note_off,108,0,0,,4,,,52,127
47060,note_on,3,0,0,,2,,,50,127
47168,note_off,108,0,0,,2,,,50,127
47171,note_on,3,0,0,,4,,,76,127
47171,note_on,0,0,0,,6,,,54,127
47279,note_off,108,0,0,,6,,,54,127
47279,note_off,0,0,0,,4,,,76,127
47282,note_on,3,0,0,,2,,,74,127
47282,note_on,0,0,0,,4,,,52,127
47390,note_off,108,0,0,,4,,,52,127
47393,note_on,3,0,0,,7,,,55,127
47447,note_off,54,0,0,,2,,,74,127
47502,note_off,55,0,0,,7,,,55,127
47505,note_on,3,0,0,,6,,,54,127
47613,note_off,108,0,0,,6,,,54,127
47616,note_on,3,0,0,,10,,,57,127
47724,note_off,108,0,0,,10,,,57,127
47727,note_on,3,0,0,,2,,,50,127
47835,note_off,108,0,0,,2,,,50,127
47838,note_on,3,0,0,,6,,,54,127
47946,note_off,108,0,0,,6,,,54,127
47959,note_on,13,0,0,,7,,,43,127
48067,note_off,108,0,0,,7,,,43,127
48070,note_on,3,0,0,,4,,,76,127
48070,note_on,0,0,0,,12,,,47,127
48178,note_off,108,0,0,,12,,,47,127
48178,note_off,0,0,0,,4,,,76,127
48181,note_on,3,0,0,,2,,,74,127
48181,note_on,0,0,0,,10,,,45,127
48289,note_off,108,0,0,,10,,,45,127
48292,note_on,3,0,0,,0,,,48,127
48346,note_off,54,0,0,,2,,,74,127
48401,note_off,55,0,0,,0,,,48,127
48404,note_on,3,0,0,,12,,,47,127
48512,note_off,108,0,0,,12,,,47,127
48515,note_on,3,0,0,,2,,,50,127
48623,note_off,108,0,0,,2,,,50,127
48626,note_on,3,0,0,,0,,,48,127
48734,note_off,108,0,0,,0,,,48,127
48737,note_on,3,0,0,,4,,,52,127
48845,note_off,108,0,0,,4,,,52,127
48848,note_on,3,0,0,,2,,,50,127
48956,note_off,108,0,0,,2,,,50,127
48959,note_on,3,0,0,,4,,,76,127
48959,note_on,0,0,0,,6,,,54,127
49067,note_off,108,0,0,,6,,,54,127
49067,note_off,0,0,0,,4,,,76,127
49070,note_on,3,0,0,,2,,,74,127
49070,note_on,0,0,0,,4,,,52,127
49178,note_off,108,0,0,,4,,,52,127
49181,note_on,3,0,0,,7,,,55,127
49235,note_off,54,0,0,,2,,,74,127
49290,note_off,55,0,0,,7,,,55,127
49293,note_on,3,0,0,,6,,,54,127
49401,note_off,108,0,0,,6,,,54,127
49404,note_on,3,0,0,,10,,,57,127
49512,note_off,108,0,0,,10,,,57,127
49515,note_on,3,0,0,,2,,,50,127
49623,note_off,108,0,0,,2,,,50,127
49626,note_on,3,0,0,,6,,,54,127
49734,note_off,108,0,0,,6,,,54,127
49747,note_on,13,0,0,,7,,,43,127
49855,note_off,108,0,0,,7,,,43,127
49858,note_on,3,0,0,,10,,,81,127
49858,note_on,0,0,0,,12,,,47,127
49966,note_off,108,0,0,,12,,,47,127
49966,note_off,0,0,0,,10,,,81,127
49969,note_on,3,0,0,,7,,,79,127
49969,note_on,0,0,0,,10,,,45,127
50077,note_off,108,0,0,,10,,,45,127
50080,note_on,3,0,0,,0,,,48,127
50134,note_off,54,0,0,,7,,,79,127
50189,note_off,55,0,0,,0,,,48,127
50192,note_on,3,0,0,,12,,,47,127
50300,note_off,108,0,0,,12,,,47,127
50303,note_on,3,0,0,,2,,,50,127
50411,note_off,108,0,0,,2,,,50,127
50414,note_on,3,0,0,,7,,,43,127
50522,note_off,108,0,0,,7,,,43,127
50525,note_on,3,0,0,,2,,,50,127
50633,note_off,108,0,0,,2,,,50,127
50636,note_on,3,0,0,,0,,,48,127
50744,note_off,108,0,0,,0,,,48,127
50747,note_on,3,0,0,,10,,,81,127
50747,note_on,0,0,0,,4,,,52,127
50855,note_off,108,0,0,,4,,,52,127
50855,note_off,0,0,0,,10,,,81,127
50858,note_on,3,0,0,,7,,,79,127
50858,note_on,0,0,0,,2,,,50,127
50966,note_off,108,0,0,,2,,,50,127
50969,note_on,3,0,0,,6,,,54,127
51023,note_off,54,0,0,,7,,,79,127
51078,note_off,55,0,0,,6,,,54,127
51081,note_on,3,0,0,,4,,,52,127
51189,note_off,108,0,0,,4,,,52,127
51192,note_on,3,0,0,,7,,,55,127
51300,note_off,108,0,0,,7,,,55,127
51303,note_on,3,0,0,,6,,,54,127
51411,note_off,108,0,0,,6,,,54,127
51414,note_on,3,0,0,,10,,,57,127
51522,note_off,108,0,0,,10,,,57,127
51535,note_on,13,0,0,,7,,,43,127
51643,note_off,108,0,0,,7,,,43,127
51646,note_on,3,0,0,,10,,,81,127
51646,note_on,0,0,0,,12,,,47,127
51754,note_off,108,0,0,,12,,,47,127
51754,note_off,0,0,0,,10,,,81,127
51757,note_on,3,0,0,,7,,,79,127
51757,note_on,0,0,0,,10,,,45,127
51865,note_off,108,0,0,,10,,,45,127
51868,note_on,3,0,0,,0,,,48,127
51922,note_off,54,0,0,,7,,,79,127
51977,note_off,55,0,0,,0,,,48,127
51980,note_on,3,0,0,,12,,,47,127
52088,note_off,108,0,0,,12,,,47,127
52091,note_on,3,0,0,,2,,,50,127
52199,note_off,108,0,0,,2,,,50,127
52202,note_on,3,0,0,,7,,,43,127
52310,note_off,108,0,0,,7,,,43,127
52313,note_on,3,0,0,,2,,,50,127
52421,note_off,108,0,0,,2,,,50,127
52424,note_on,3,0,0,,0,,,48,127
52532,note_off,108,0,0,,0,,,48,127
52535,note_on,3,0,0,,10,,,81,127
52535,note_on,0,0,0,,4,,,52,127
52643,note_off,108,0,0,,4,,,52,127
52643,note_off,0,0,0,,10,,,81,127
52646,note_on,3,0,0,,7,,,79,127
52646,note_on,0,0,0,,2,,,50,127
52754,note_off,108,0,0,,2,,,50,127
52757,note_on,3,0,0,,6,,,54,127
52811,note_off,54,0,0,,7,,,79,127
52866,note_off,55,0,0,,6,,,54,127
52869,note_on,3,0,0,,4,,,52,127
52977,note_off,108,0,0,,4,,,52,127
52980,note_on,3,0,0,,10,,,81,127
52980,note_on,0,0,0,,7,,,55,127
53088,note_off,108,0,0,,7,,,55,127
53088,note_off,0,0,0,,10,,,81,127
53091,note_on,3,0,0,,7,,,79,127
53091,note_on,0,0,0,,6,,,54,127
53199,note_off,108,0,0,,6,,,54,127
53202,note_on,3,0,0,,10,,,57,127
53256,note_off,54,0,0,,7,,,79,127
53311,note_off,55,0,0,,10,,,57,127
53314,note_on,3,0,0,,7,,,55,127
53422,note_off,108,0,0,,7,,,55,127
53425,note_on,3,0,0,,10,,,81,127
53425,note_on,0,0,0,,12,,,59,127
53533,note_off,108,0,0,,12,,,59,127
53533,note_off,0,0,0,,10,,,81,127
53536,note_on,3,0,0,,7,,,79,127
53536,note_on,0,0,0,,10,,,57,127
53644,note_off,108,0,0,,10,,,57,127
53647,note_on,3,0,0,,0,,,60,127
53755,note_off,108,0,0,,0,,,60,127
53758,note_on,3,0,0,,12,,,59,127
53866,note_off,108,0,0,,7,,,79,127
53869,note_on,3,0,0,,6,,,78,127
53977,note_off,108,0,0,,6,,,78,127
53977,note_off,0,0,0,,12,,,59,127
53980,note_on,3,0,0,,4,,,76,127
53980,note_on,0,0,0,,7,,,55,127
54088,note_off,108,0,0,,4,,,76,127
54091,note_on,3,0,0,,2,,,74,127
54199,note_off,108,0,0,,2,,,74,127
54199,note_off,0,0,0,,7,,,55,127
54202,note_on,3,0,0,,4,,,76,127
54202,note_on,0,0,0,,0,,,60,127
54310,note_off,108,0,0,,4,,,76,127
54313,note_on,3,0,0,,12,,,71,127
54421,note_off,108,0,0,,12,,,71,127
54424,note_on,3,0,0,,0,,,72,127
54424,note_on,0,0,0,,0,,,48,127
54532,note_off,108,0,0,,0,,,72,127
54535,note_on,3,0,0,,10,,,69,127
54640,note_off,105,0,0,,0,,,60,127
54643,note_off,3,0,0,,10,,,69,127
54643,note_off,0,0,0,,0,,,48,127
54646,note_on,3,0,0,,7,,,67,127
54646,note_on,0,0,0,,2,,,50,127
54866,note_off,220,0,0,,7,,,67,127
54869,note_on,3,0,0,,7,,,67,127
54869,note_on,0,0,0,,2,,,38,127
54924,note_off,55,0,0,,7,,,67,127
54926,note_on,2,0,0,,6,,,66,127
54981,note_off,55,0,0,,6,,,66,127
54984,note_on,3,0,0,,4,,,64,127
55040,note_off,56,0,0,,4,,,64,127
55043,note_on,3,0,0,,6,,,66,127
55091,note_off,48,0,0,,2,,,38,127
55105,note_off,14,0,0,,6,,,66,127
55107,note_off,2,0,0,,2,,,50,127
55110,note_on,3,0,0,,7,,,43,127
55110,note_on,0,0,0,,7,,,67,127
55221,note_off,111,0,0,,7,,,67,127
55222,note_on,1,0,0,,7,,,79,127
55333,note_off,111,0,0,,7,,,79,127
55334,note_on,1,0,0,,2,,,74,127
55445,note_off,111,0,0,,2,,,74,127
55446,note_on,1,0,0,,12,,,71,127
55557,note_off,111,0,0,,12,,,71,127
55558,note_on,1,0,0,,7,,,67,127
55669,note_off,111,0,0,,7,,,67,127
55670,note_on,1,0,0,,2,,,62,127
55781,note_off,111,0,0,,2,,,62,127
55782,note_on,1,0,0,,12,,,59,127
55893,note_off,111,0,0,,12,,,59,127
55894,note_on,1,0,0,,7,,,67,127
56005,note_off,111,0,0,,7,,,67,127
56005,note_off,0,0,0,,7,,,43,127
56006,note_on,1,0,0,,2,,,38,127
56006,note_on,0,0,0,,6,,,66,127
56117,note_off,111,0,0,,6,,,66,127
56118,note_on,1,0,0,,2,,,62,127
56229,note_off,111,0,0,,2,,,62,127
56230,note_on,1,0,0,,10,,,57,127
56341,note_off,111,0,0,,10,,,57,127
56342,note_on,1,0,0,,6,,,54,127
56453,note_off,111,0,0,,6,,,54,127
56454,note_on,1,0,0,,2,,,50,127
56565,note_off,111,0,0,,2,,,50,127
56566,note_on,1,0,0,,6,,,54,127
56677,note_off,111,0,0,,6,,,54,127
56678,note_on,1,0,0,,10,,,57,127
56789,note_off,111,0,0,,10,,,57,127
56790,note_on,1,0,0,,0,,,60,127
56881,note_off,91,0,0,,2,,,38,127
56901,note_off,20,0,0,,0,,,60,127
56911,note_on,10,0,0,,7,,,43,127
56911,note_on,0,0,0,,12,,,59,127
57022,note_off,111,0,0,,12,,,59,127
57023,note_on,1,0,0,,7,,,79,127
57134,note_off,111,0,0,,7,,,79,127
57135,note_on,1,0,0,,2,,,74,127
57246,note_off,111,0,0,,2,,,74,127
57247,note_on,1,0,0,,12,,,71,127
57358,note_off,111,0,0,,12,,,71,127
57359,note_on,1,0,0,,7,,,67,127
57470,note_off,111,0,0,,7,,,67,127
57471,note_on,1,0,0,,2,,,62,127
57582,note_off,111,0,0,,2,,,62,127
57583,note_on,1,0,0,,12,,,59,127
57694,note_off,111,0,0,,12,,,59,127
57695,note_on,1,0,0,,7,,,67,127
57806,note_off,111,0,0,,7,,,67,127
57806,note_off,0,0,0,,7,,,43,127
57807,note_on,1,0,0,,2,,,38,127
57807,note_on,0,0,0,,6,,,66,127
57918,note_off,111,0,0,,6,,,66,127
57919,note_on,1,0,0,,2,,,62,127
58030,note_off,111,0,0,,2,,,62,127
58031,note_on,1,0,0,,10,,,57,127
58142,note_off,111,0,0,,10,,,57,127
58143,note_on,1,0,0,,6,,,54,127
58254,note_off,111,0,0,,6,,,54,127
58255,note_on,1,0,0,,2,,,50,127
58366,note_off,111,0,0,,2,,,50,127
58367,note_on,1,0,0,,6,,,54,127
58478,note_off,111,0,0,,6,,,54,127
58479,note_on,1,0,0,,10,,,57,127
58590,note_off,111,0,0,,10,,,57,127
58591,note_on,1,0,0,,0,,,60,127
58694,note_off,103,0,0,,2,,,38,127
58702,note_off,8,0,0,,0,,,60,127
58712,note_on,10,0,0,,7,,,43,127
58712,note_on,0,0,0,,12,,,59,127
58823,note_off,111,0,0,,12,,,59,127
58824,note_on,1,0,0,,7,,,55,127
58935,note_off,111,0,0,,7,,,55,127
58936,note_on,1,0,0,,2,,,62,127
59047,note_off,111,0,0,,2,,,62,127
59048,note_on,1,0,0,,12,,,59,127
59159,note_off,111,0,0,,12,,,59,127
59160,note_on,1,0,0,,7,,,67,127
59271,note_off,111,0,0,,7,,,67,127
59272,note_on,1,0,0,,2,,,62,127
59383,note_off,111,0,0,,2,,,62,127
59384,note_on,1,0,0,,12,,,71,127
59495,note_off,111,0,0,,12,,,71,127
59496,note_on,1,0,0,,7,,,67,127
59607,note_off,111,0,0,,7,,,67,127
59607,note_off,0,0,0,,7,,,43,127
59608,note_on,1,0,0,,7,,,43,127
59608,note_on,0,0,0,,2,,,74,127
59719,note_off,111,0,0,,2,,,74,127
59720,note_on,1,0,0,,12,,,71,127
59831,note_off,111,0,0,,12,,,71,127
59832,note_on,1,0,0,,7,,,79,127
59943,note_off,111,0,0,,7,,,79,127
59944,note_on,1,0,0,,2,,,74,127
60055,note_off,111,0,0,,2,,,74,127
60056,note_on,1,0,0,,12,,,83,127
60167,note_off,111,0,0,,12,,,83,127
60168,note_on,1,0,0,,7,,,79,127
60279,note_off,111,0,0,,7,,,79,127
60280,note_on,1,0,0,,2,,,86,127
60391,note_off,111,0,0,,2,,,86,127
60392,note_on,1,0,0,,2,,,74,127
60503,note_off,111,0,0,,2,,,74,127
60503,note_off,0,0,0,,7,,,43,127
60504,note_on,1,0,0,,0,,,48,127
60504,note_on,0,0,0,,0,,,36,127
60504,note_on,0,0,0,,4,,,76,127
60615,note_off,111,0,0,,4,,,76,127
60616,note_on,1,0,0,,0,,,84,127
60727,note_off,111,0,0,,0,,,84,127
60728,note_on,1,0,0,,12,,,83,127
60839,note_off,111,0,0,,12,,,83,127
60840,note_on,1,0,0,,10,,,81,127
60951,note_off,111,0,0,,10,,,81,127
60951,note_off,0,0,0,,0,,,36,127
60951,note_off,0,0,0,,0,,,48,127
60952,note_on,1,0,0,,2,,,50,127
60952,note_on,0,0,0,,2,,,38,127
60952,note_on,0,0,0,,7,,,79,127
61063,note_off,111,0,0,,7,,,79,127
61064,note_on,1,0,0,,10,,,81,127
61175,note_off,111,0,0,,10,,,81,127
61176,note_on,1,0,0,,2,,,74,127
61287,note_off,111,0,0,,2,,,74,127
61288,note_on,1,0,0,,6,,,78,127
61399,note_off,111,0,0,,6,,,78,127
61399,note_off,0,0,0,,2,,,38,127
61399,note_off,0,0,0,,2,,,50,127
61428,note_on,29,0,0,,12,,,59,127
61428,note_on,0,0,0,,7,,,43,127
61539,note_off,111,0,0,,12,,,59,127
61540,note_on,1,0,0,,7,,,55,127
61651,note_off,111,0,0,,7,,,55,127
61652,note_on,1,0,0,,2,,,62,127
61763,note_off,111,0,0,,2,,,62,127
61764,note_on,1,0,0,,12,,,59,127
61875,note_off,111,0,0,,12,,,59,127
61876,note_on,1,0,0,,7,,,67,127
61987,note_off,111,0,0,,7,,,67,127
61988,note_on,1,0,0,,2,,,62,127
62099,note_off,111,0,0,,2,,,62,127
62100,note_on,1,0,0,,12,,,71,127
62211,note_off,111,0,0,,12,,,71,127
62212,note_on,1,0,0,,7,,,67,127
62323,note_off,111,0,0,,7,,,67,127
62323,note_off,0,0,0,,7,,,43,127
62324,note_on,1,0,0,,2,,,74,127
62324,note_on,0,0,0,,7,,,43,127
62435,note_off,111,0,0,,2,,,74,127
62436,note_on,1,0,0,,12,,,71,127
62547,note_off,111,0,0,,12,,,71,127
62548,note_on,1,0,0,,7,,,79,127
62659,note_off,111,0,0,,7,,,79,127
62660,note_on,1,0,0,,2,,,74,127
62771,note_off,111,0,0,,2,,,74,127
62772,note_on,1,0,0,,12,,,83,127
62883,note_off,111,0,0,,12,,,83,127
62884,note_on,1,0,0,,7,,,79,127
62995,note_off,111,0,0,,7,,,79,127
62996,note_on,1,0,0,,2,,,86,127
63107,note_off,111,0,0,,2,,,86,127
63108,note_on,1,0,0,,2,,,74,127
63219,note_off,111,0,0,,2,,,74,127
63219,note_off,0,0,0,,7,,,43,127
63220,note_on,1,0,0,,4,,,76,127
63220,note_on,0,0,0,,0,,,36,127
63220,note_on,0,0,0,,0,,,48,127
63331,note_off,111,0,0,,4,,,76,127
63332,note_on,1,0,0,,0,,,84,127
63443,note_off,111,0,0,,0,,,84,127
63444,note_on,1,0,0,,12,,,83,127
63555,note_off,111,0,0,,12,,,83,127
63556,note_on,1,0,0,,10,,,81,127
63667,note_off,111,0,0,,10,,,81,127
63667,note_off,0,0,0,,0,,,48,127
63667,note_off,0,0,0,,0,,,36,127
63668,note_on,1,0,0,,7,,,79,127
63668,note_on,0,0,0,,2,,,50,127
63668,note_on,0,0,0,,2,,,38,127
63779,note_off,111,0,0,,7,,,79,127
63780,note_on,1,0,0,,10,,,81,127
63891,note_off,111,0,0,,10,,,81,127
63892,note_on,1,0,0,,2,,,74,127
64003,note_off,111,0,0,,2,,,74,127
64004,note_on,1,0,0,,6,,,78,127
64115,note_off,111,0,0,,6,,,78,127
64115,note_off,0,0,0,,2,,,38,127
64115,note_off,0,0,0,,2,,,50,127
64116,note_on,1,0,0,,7,,,79,127
64116,note_on,0,0,0,,7,,,43,127
64227,note_off,111,0,0,,7,,,79,127
64228,note_on,1,0,0,,12,,,83,127
64339,note_off,111,0,0,,12,,,83,127
64340,note_on,1,0,0,,7,,,79,127
64451,note_off,111,0,0,,7,,,79,127
64452,note_on,1,0,0,,2,,,74,127
64563,note_off,111,0,0,,2,,,74,127
64564,note_on,1,0,0,,12,,,71,127
64675,note_off,111,0,0,,12,,,71,127
64676,note_on,1,0,0,,7,,,67,127
64787,note_off,111,0,0,,7,,,67,127
64788,note_on,1,0,0,,2,,,62,127
64899,note_off,111,0,0,,2,,,62,127
64900,note_on,1,0,0,,12,,,59,127
65011,note_off,111,0,0,,12,,,59,127
65011,note_off,0,0,0,,7,,,43,127
65012,note_on,1,0,0,,7,,,55,127
65130,note_on,118,0,0,,2,,,50,127
65241,note_off,111,0,0,,2,,,50,127
65248,note_on,7,0,0,,12,,,47,127
65359,note_off,111,0,0,,12,,,47,127
65362,note_off,3,0,0,,7,,,55,127
65365,note_on,3,0,0,,7,,,43,127
65537,note_on,172,0,0,,7,,,31,127
66297,note_off,760,0,0,,7,,,43,127
66324,note_off,27,0,0,,7,,,31,127
66475,note_on,151,0,0,,7,,,67,127
66475,note_on,0,0,0,,7,,,55,127
66475,note_on,0,0,0,,2,,,74,127
66698,note_off,223,0,0,,2,,,74,127
66699,note_on,1,0,0,,2,,,74,127
66810,note_off,111,0,0,,2,,,74,127
66811,note_on,1,0,0,,2,,,74,127
66922,note_off,111,0,0,,2,,,74,127
66923,note_on,1,0,0,,2,,,74,127
67146,note_off,223,0,0,,2,,,74,127
67147,note_on,1,0,0,,2,,,74,127
67370,note_off,223,0,0,,2,,,74,127
67370,note_off,0,0,0,,7,,,55,127
67370,note_off,0,0,0,,7,,,67,127
67371,note_on,1,0,0,,10,,,57,127
67371,note_on,0,0,0,,6,,,66,127
67371,note_on,0,0,0,,2,,,74,127
67371,note_on,0,0,0,,4,,,76,127
67594,note_off,223,0,0,,4,,,76,127
67594,note_off,0,0,0,,2,,,74,127
67595,note_on,1,0,0,,2,,,74,127
67706,note_off,111,0,0,,2,,,74,127
67707,note_on,1,0,0,,2,,,74,127
67818,note_off,111,0,0,,2,,,74,127
67819,note_on,1,0,0,,2,,,74,127
68042,note_off,223,0,0,,2,,,74,127
68043,note_on,1,0,0,,2,,,74,127
68266,note_off,223,0,0,,2,,,74,127
68266,note_off,0,0,0,,6,,,66,127
68266,note_off,0,0,0,,10,,,57,127
68267,note_on,1,0,0,,5,,,65,127
68267,note_on,0,0,0,,12,,,59,127
68267,note_on,0,0,0,,2,,,74,127
68267,note_on,0,0,0,,3,,,75,127
68490,note_off,223,0,0,,3,,,75,127
68490,note_off,0,0,0,,2,,,74,127
68491,note_on,1,0,0,,2,,,74,127
68602,note_off,111,0,0,,2,,,74,127
68603,note_on,1,0,0,,2,,,74,127
68714,note_off,111,0,0,,2,,,74,127
68715,note_on,1,0,0,,2,,,74,127
68938,note_off,223,0,0,,2,,,74,127
68938,note_off,0,0,0,,5,,,65,127
68939,note_on,1,0,0,,7,,,67,127
68939,note_on,0,0,0,,2,,,74,127
69162,note_off,223,0,0,,2,,,74,127
69162,note_off,0,0,0,,7,,,67,127
69162,note_off,0,0,0,,12,,,59,127
69163,note_on,1,0,0,,8,,,68,127
69163,note_on,0,0,0,,5,,,65,127
69163,note_on,0,0,0,,0,,,60,127
69163,note_on,0,0,0,,2,,,74,127
69386,note_off,223,0,0,,2,,,74,127
69387,note_on,1,0,0,,2,,,74,127
69610,note_off,223,0,0,,2,,,74,127
69611,note_on,1,0,0,,5,,,77,127
69834,note_off,223,0,0,,5,,,77,127
69835,note_on,1,0,0,,8,,,80,127
70058,note_off,223,0,0,,8,,,80,127
70058,note_off,0,0,0,,0,,,60,127
70058,note_off,0,0,0,,5,,,65,127
70058,note_off,0,0,0,,8,,,68,127
70064,note_on,6,0,0,,7,,,79,127
70064,note_on,0,0,0,,5,,,77,127
70064,note_on,0,0,0,,2,,,62,127
70064,note_on,0,0,0,,5,,,65,127
70064,note_on,0,0,0,,7,,,67,127
70064,note_on,0,0,0,,12,,,71,127
70287,note_off,223,0,0,,5,,,77,127
70287,note_off,0,0,0,,7,,,79,127
70288,note_on,1,0,0,,3,,,75,127
70399,note_off,111,0,0,,3,,,75,127
70400,note_on,1,0,0,,2,,,74,127
70511,note_off,111,0,0,,2,,,74,127
70512,note_on,1,0,0,,0,,,72,127
70735,note_off,223,0,0,,0,,,72,127
70735,note_off,0,0,0,,12,,,71,127
70736,note_on,1,0,0,,12,,,71,127
70959,note_off,223,0,0,,12,,,71,127
70959,note_off,0,0,0,,7,,,67,127
70959,note_off,0,0,0,,5,,,65,127
70959,note_off,0,0,0,,2,,,62,127
70960,note_on,1,0,0,,12,,,71,127
70960,note_on,0,0,0,,3,,,63,127
70960,note_on,0,0,0,,7,,,67,127
71406,note_off,446,0,0,,12,,,71,127
71419,note_on,13,0,0,,0,,,72,127
71854,note_off,435,0,0,,7,,,67,127
71854,note_off,0,0,0,,3,,,63,127
71877,note_off,23,0,0,,0,,,72,127
71911,note_on,34,0,0,,7,,,67,127
71911,note_on,0,0,0,,0,,,72,127
71911,note_on,0,0,0,,3,,,63,127
71911,note_on,0,0,0,,0,,,84,127
72134,note_off,223,0,0,,0,,,84,127
72135,note_on,1,0,0,,0,,,84,127
72246,note_off,111,0,0,,0,,,84,127
72247,note_on,1,0,0,,0,,,84,127
72358,note_off,111,0,0,,0,,,84,127
72359,note_on,1,0,0,,0,,,84,127
72582,note_off,223,0,0,,0,,,84,127
72583,note_on,1,0,0,,0,,,84,127
72806,note_off,223,0,0,,0,,,84,127
72806,note_off,0,0,0,,3,,,63,127
72806,note_off,0,0,0,,0,,,72,127
72806,note_off,0,0,0,,7,,,67,127
72816,note_on,10,0,0,,2,,,62,127
72816,note_on,0,0,0,,6,,,66,127
72816,note_on,0,0,0,,0,,,72,127
72816,note_on,0,0,0,,0,,,84,127
73039,note_off,223,0,0,,0,,,84,127
73040,note_on,1,0,0,,0,,,84,127
73151,note_off,111,0,0,,0,,,84,127
73152,note_on,1,0,0,,0,,,84,127
73263,note_off,111,0,0,,0,,,84,127
73264,note_on,1,0,0,,0,,,84,127
73487,note_off,223,0,0,,0,,,84,127
73488,note_on,1,0,0,,0,,,84,127
73711,note_off,223,0,0,,0,,,84,127
73711,note_off,0,0,0,,0,,,72,127
73711,note_off,0,0,0,,6,,,66,127
73711,note_off,0,0,0,,2,,,62,127
73721,note_on,10,0,0,,0,,,72,127
73721,note_on,0,0,0,,7,,,67,127
73721,note_on,0,0,0,,3,,,63,127
73721,note_on,0,0,0,,0,,,84,127
73944,note_off,223,0,0,,0,,,84,127
73945,note_on,1,0,0,,0,,,84,127
74056,note_off,111,0,0,,0,,,84,127
74057,note_on,1,0,0,,0,,,84,127
74168,note_off,111,0,0,,0,,,84,127
74169,note_on,1,0,0,,0,,,84,127
74392,note_off,223,0,0,,0,,,84,127
74393,note_on,1,0,0,,0,,,84,127
74616,note_off,223,0,0,,0,,,84,127
74616,note_off,0,0,0,,3,,,63,127
74616,note_off,0,0,0,,7,,,67,127
74616,note_off,0,0,0,,0,,,72,127
74617,note_on,1,0,0,,0,,,72,127
74617,note_on,0,0,0,,10,,,69,127
74617,note_on,0,0,0,,2,,,62,127
74617,note_on,0,0,0,,0,,,84,127
74840,note_off,223,0,0,,0,,,84,127
74841,note_on,1,0,0,,0,,,84,127
74952,note_off,111,0,0,,0,,,84,127
74953,note_on,1,0,0,,0,,,84,127
75064,note_off,111,0,0,,0,,,84,127
75065,note_on,1,0,0,,0,,,84,127
75288,note_off,223,0,0,,0,,,84,127
75289,note_on,1,0,0,,0,,,84,127
75512,note_off,223,0,0,,0,,,84,127
75512,note_off,0,0,0,,2,,,62,127
75512,note_off,0,0,0,,10,,,69,127
75512,note_off,0,0,0,,0,,,72,127
75527,note_on,15,0,0,,0,,,84,127
75527,note_on,0,0,0,,3,,,63,127
75527,note_on,0,0,0,,0,,,72,127
75527,note_on,0,0,0,,10,,,69,127
75750,note_off,223,0,0,,0,,,84,127
75751,note_on,1,0,0,,0,,,84,127
75862,note_off,111,0,0,,0,,,84,127
75863,note_on,1,0,0,,0,,,84,127
75974,note_off,111,0,0,,0,,,84,127
75975,note_on,1,0,0,,0,,,84,127
76198,note_off,223,0,0,,0,,,84,127
76198,note_off,0,0,0,,10,,,69,127
76198,note_off,0,0,0,,0,,,72,127
76199,note_on,1,0,0,,0,,,84,127
76199,note_on,0,0,0,,12,,,71,127
76199,note_on,0,0,0,,2,,,74,127
76422,note_off,223,0,0,,2,,,74,127
76422,note_off,0,0,0,,12,,,71,127
76422,note_off,0,0,0,,3,,,63,127
76423,note_on,1,0,0,,4,,,64,127
76423,note_on,0,0,0,,4,,,76,127
76423,note_on,0,0,0,,10,,,69,127
76423,note_on,0,0,0,,0,,,72,127
76646,note_off,223,0,0,,0,,,84,127
76647,note_on,1,0,0,,12,,,83,127
76758,note_off,111,0,0,,12,,,83,127
76759,note_on,1,0,0,,0,,,84,127
76870,note_off,111,0,0,,0,,,84,127
76871,note_on,1,0,0,,2,,,86,127
77094,note_off,223,0,0,,2,,,86,127
77095,note_on,1,0,0,,0,,,84,127
77318,note_off,223,0,0,,0,,,84,127
77318,note_off,0,0,0,,0,,,72,127
77318,note_off,0,0,0,,10,,,69,127
77318,note_off,0,0,0,,4,,,76,127
77318,note_off,0,0,0,,4,,,64,127
77319,note_on,1,0,0,,12,,,83,127
77319,note_on,0,0,0,,5,,,65,127
77319,note_on,0,0,0,,10,,,69,127
77319,note_on,0,0,0,,2,,,74,127
77319,note_on,0,0,0,,12,,,71,127
77542,note_off,223,0,0,,12,,,83,127
77543,note_on,1,0,0,,10,,,81,127
77766,note_off,223,0,0,,10,,,81,127
77767,note_on,1,0,0,,8,,,80,127
77990,note_off,223,0,0,,8,,,80,127
77991,note_on,1,0,0,,10,,,81,127
78214,note_off,223,0,0,,10,,,81,127
78214,note_off,0,0,0,,12,,,71,127
78214,note_off,0,0,0,,2,,,74,127
78214,note_off,0,0,0,,10,,,69,127
78214,note_off,0,0,0,,5,,,65,127
78215,note_on,1,0,0,,10,,,81,127
78215,note_on,0,0,0,,4,,,64,127
78215,note_on,0,0,0,,12,,,71,127
78661,note_off,446,0,0,,10,,,81,127
78678,note_on,17,0,0,,12,,,83,127
79108,note_off,430,0,0,,12,,,71,127
79108,note_off,0,0,0,,4,,,64,127
79192,note_off,84,0,0,,12,,,83,127
79202,note_on,10,0,0,,4,,,76,127
79202,note_on,0,0,0,,10,,,57,127
79202,note_on,0,0,0,,10,,,69,127
79425,note_off,223,0,0,,4,,,76,127
79426,note_on,1,0,0,,4,,,76,127
79537,note_off,111,0,0,,4,,,76,127
79538,note_on,1,0,0,,4,,,76,127
79649,note_off,111,0,0,,4,,,76,127
79650,note_on,1,0,0,,4,,,76,127
79873,note_off,223,0,0,,4,,,76,127
79874,note_on,1,0,0,,4,,,76,127
80097,note_off,223,0,0,,4,,,76,127
80097,note_off,0,0,0,,10,,,69,127
80097,note_off,0,0,0,,10,,,57,127
80107,note_on,10,0,0,,4,,,76,127
80107,note_on,0,0,0,,6,,,78,127
80107,note_on,0,0,0,,12,,,59,127
80107,note_on,0,0,0,,8,,,68,127
80330,note_off,223,0,0,,6,,,78,127
80330,note_off,0,0,0,,4,,,76,127
80331,note_on,1,0,0,,4,,,76,127
80442,note_off,111,0,0,,4,,,76,127
80443,note_on,1,0,0,,4,,,76,127
80554,note_off,111,0,0,,4,,,76,127
80555,note_on,1,0,0,,4,,,76,127
80778,note_off,223,0,0,,4,,,76,127
80779,note_on,1,0,0,,4,,,76,127
81002,note_off,223,0,0,,4,,,76,127
81002,note_off,0,0,0,,8,,,68,127
81002,note_off,0,0,0,,12,,,59,127
81012,note_on,10,0,0,,5,,,77,127
81012,note_on,0,0,0,,4,,,76,127
81012,note_on,0,0,0,,7,,,67,127
81012,note_on,0,0,0,,1,,,61,127
81235,note_off,223,0,0,,4,,,76,127
81235,note_off,0,0,0,,5,,,77,127
81236,note_on,1,0,0,,4,,,76,127
81347,note_off,111,0,0,,4,,,76,127
81348,note_on,1,0,0,,4,,,76,127
81459,note_off,111,0,0,,4,,,76,127
81460,note_on,1,0,0,,4,,,76,127
81683,note_off,223,0,0,,4,,,76,127
81683,note_off,0,0,0,,7,,,67,127
81684,note_on,1,0,0,,4,,,76,127
81684,note_on,0,0,0,,10,,,69,127
81907,note_off,223,0,0,,10,,,69,127
81907,note_off,0,0,0,,4,,,76,127
81907,note_off,0,0,0,,1,,,61,127
81917,note_on,10,0,0,,4,,,76,127
81917,note_on,0,0,0,,2,,,62,127
81917,note_on,0,0,0,,11,,,70,127
81917,note_on,0,0,0,,7,,,67,127
82140,note_off,223,0,0,,4,,,76,127
82141,note_on,1,0,0,,4,,,76,127
82364,note_off,223,0,0,,4,,,76,127
82365,note_on,1,0,0,,7,,,79,127
82588,note_off,223,0,0,,7,,,79,127
82589,note_on,1,0,0,,11,,,82,127
82812,note_off,223,0,0,,11,,,82,127
82812,note_off,0,0,0,,7,,,67,127
82812,note_off,0,0,0,,11,,,70,127
82812,note_off,0,0,0,,2,,,62,127
82822,note_on,10,0,0,,7,,,79,127
82822,note_on,0,0,0,,10,,,81,127
82822,note_on,0,0,0,,10,,,69,127
82822,note_on,0,0,0,,1,,,73,127
82822,note_on,0,0,0,,4,,,64,127
82822,note_on,0,0,0,,7,,,67,127
83045,note_off,223,0,0,,10,,,81,127
83045,note_off,0,0,0,,7,,,79,127
83046,note_on,1,0,0,,5,,,77,127
83157,note_off,111,0,0,,5,,,77,127
83158,note_on,1,0,0,,4,,,76,127
83269,note_off,111,0,0,,4,,,76,127
83270,note_on,1,0,0,,2,,,74,127
83493,note_off,223,0,0,,2,,,74,127
83493,note_off,0,0,0,,1,,,73,127
83494,note_on,1,0,0,,1,,,73,127
83717,note_off,223,0,0,,1,,,73,127
83717,note_off,0,0,0,,7,,,67,127
83717,note_off,0,0,0,,4,,,64,127
83717,note_off,0,0,0,,10,,,69,127
83718,note_on,1,0,0,,1,,,73,127
83718,note_on,0,0,0,,5,,,65,127
83718,note_on,0,0,0,,10,,,69,127
84164,note_off,446,0,0,,1,,,73,127
84177,note_on,13,0,0,,2,,,74,127
84612,note_off,435,0,0,,10,,,69,127
84612,note_off,0,0,0,,5,,,65,127
84725,note_on,113,0,0,,10,,,69,127
84725,note_on,0,0,0,,5,,,65,127
84737,note_off,12,0,0,,2,,,74,127
84836,note_off,99,0,0,,10,,,69,127
84837,note_on,1,0,0,,0,,,72,127
84948,note_off,111,0,0,,0,,,72,127
84949,note_on,1,0,0,,12,,,71,127
85060,note_off,111,0,0,,12,,,71,127
85061,note_on,1,0,0,,2,,,74,127
85172,note_off,111,0,0,,2,,,74,127
85173,note_on,1,0,0,,0,,,72,127
85284,note_off,111,0,0,,0,,,72,127
85285,note_on,1,0,0,,4,,,76,127
85396,note_off,111,0,0,,4,,,76,127
85397,note_on,1,0,0,,2,,,74,127
85508,note_off,111,0,0,,2,,,74,127
85509,note_on,1,0,0,,5,,,77,127
85620,note_off,111,0,0,,5,,,77,127
85620,note_off,0,0,0,,5,,,65,127
85621,note_on,1,0,0,,4,,,76,127
85621,note_on,0,0,0,,4,,,64,127
85621,note_on,0,0,0,,7,,,67,127
85732,note_off,111,0,0,,4,,,76,127
85733,note_on,1,0,0,,7,,,79,127
85844,note_off,111,0,0,,7,,,79,127
85845,note_on,1,0,0,,5,,,77,127
85956,note_off,111,0,0,,5,,,77,127
85957,note_on,1,0,0,,10,,,81,127
86068,note_off,111,0,0,,10,,,81,127
86069,note_on,1,0,0,,10,,,81,127
86106,note_off,37,0,0,,10,,,81,127
86106,note_on,0,0,0,,7,,,79,127
86143,note_off,37,0,0,,7,,,79,127
86143,note_on,0,0,0,,10,,,81,127
86180,note_off,37,0,0,,10,,,81,127
86180,note_on,0,0,0,,7,,,79,127
86514,note_off,334,0,0,,7,,,79,127
86514,note_off,0,0,0,,7,,,67,127
86514,note_off,0,0,0,,4,,,64,127
86524,note_on,10,0,0,,7,,,67,127
86524,note_on,0,0,0,,4,,,64,127
86635,note_off,111,0,0,,7,,,67,127
86636,note_on,1,0,0,,12,,,71,127
86747,note_off,111,0,0,,12,,,71,127
86748,note_on,1,0,0,,10,,,69,127
86859,note_off,111,0,0,,10,,,69,127
86860,note_on,1,0,0,,0,,,72,127
86971,note_off,111,0,0,,0,,,72,127
86972,note_on,1,0,0,,12,,,71,127
87083,note_off,111,0,0,,12,,,71,127
87084,note_on,1,0,0,,2,,,74,127
87195,note_off,111,0,0,,2,,,74,127
87196,note_on,1,0,0,,0,,,72,127
87307,note_off,111,0,0,,0,,,72,127
87308,note_on,1,0,0,,4,,,76,127
87419,note_off,111,0,0,,4,,,76,127
87419,note_off,0,0,0,,4,,,64,127
87420,note_on,1,0,0,,2,,,74,127
87420,note_on,0,0,0,,2,,,62,127
87420,note_on,0,0,0,,5,,,65,127
87531,note_off,111,0,0,,2,,,74,127
87532,note_on,1,0,0,,5,,,77,127
87643,note_off,111,0,0,,5,,,77,127
87644,note_on,1,0,0,,4,,,76,127
87755,note_off,111,0,0,,4,,,76,127
87756,note_on,1,0,0,,7,,,79,127
87867,note_off,111,0,0,,7,,,79,127
87868,note_on,1,0,0,,7,,,79,127
87905,note_off,37,0,0,,7,,,79,127
87905,note_on,0,0,0,,5,,,77,127
87942,note_off,37,0,0,,5,,,77,127
87942,note_on,0,0,0,,7,,,79,127
87979,note_off,37,0,0,,7,,,79,127
87979,note_on,0,0,0,,5,,,77,127
88313,note_off,334,0,0,,5,,,77,127
88313,note_off,0,0,0,,5,,,65,127
88313,note_off,0,0,0,,2,,,62,127
88323,note_on,10,0,0,,5,,,65,127
88323,note_on,0,0,0,,2,,,62,127
88434,note_off,111,0,0,,5,,,65,127
88435,note_on,1,0,0,,10,,,69,127
88546,note_off,111,0,0,,10,,,69,127
88547,note_on,1,0,0,,7,,,67,127
88658,note_off,111,0,0,,7,,,67,127
88659,note_on,1,0,0,,12,,,71,127
88770,note_off,111,0,0,,12,,,71,127
88771,note_on,1,0,0,,10,,,69,127
88882,note_off,111,0,0,,10,,,69,127
88883,note_on,1,0,0,,0,,,72,127
88994,note_off,111,0,0,,0,,,72,127
88995,note_on,1,0,0,,12,,,71,127
89106,note_off,111,0,0,,12,,,71,127
89107,note_on,1,0,0,,2,,,74,127
89218,note_off,111,0,0,,2,,,74,127
89218,note_off,0,0,0,,2,,,62,127
89219,note_on,1,0,0,,0,,,72,127
89219,note_on,0,0,0,,4,,,64,127
89219,note_on,0,0,0,,0,,,60,127
89330,note_off,111,0,0,,0,,,72,127
89331,note_on,1,0,0,,4,,,76,127
89442,note_off,111,0,0,,4,,,76,127
89443,note_on,1,0,0,,2,,,74,127
89554,note_off,111,0,0,,2,,,74,127
89555,note_on,1,0,0,,5,,,77,127
89666,note_off,111,0,0,,5,,,77,127
89667,note_on,1,0,0,,5,,,77,127
89704,note_off,37,0,0,,5,,,77,127
89704,note_on,0,0,0,,4,,,76,127
89741,note_off,37,0,0,,4,,,76,127
89741,note_on,0,0,0,,5,,,77,127
89778,note_off,37,0,0,,5,,,77,127
89797,note_on,19,0,0,,4,,,76,127
90113,note_off,316,0,0,,0,,,60,127
90113,note_off,0,0,0,,4,,,64,127
90132,note_off,19,0,0,,4,,,76,127
90145,note_on,13,0,0,,0,,,60,127
90145,note_on,0,0,0,,7,,,55,127
90145,note_on,0,0,0,,0,,,48,127
90145,note_on,0,0,0,,4,,,64,127
90256,note_off,111,0,0,,4,,,64,127
90257,note_on,1,0,0,,7,,,67,127
90368,note_off,111,0,0,,7,,,67,127
90369,note_on,1,0,0,,6,,,66,127
90480,note_off,111,0,0,,6,,,66,127
90481,note_on,1,0,0,,10,,,69,127
90592,note_off,111,0,0,,10,,,69,127
90593,note_on,1,0,0,,7,,,67,127
90704,note_off,111,0,0,,7,,,67,127
90705,note_on,1,0,0,,11,,,70,127
90816,note_off,111,0,0,,11,,,70,127
90817,note_on,1,0,0,,10,,,69,127
90928,note_off,111,0,0,,10,,,69,127
90929,note_on,1,0,0,,0,,,72,127
91040,note_off,111,0,0,,0,,,72,127
91040,note_off,0,0,0,,0,,,48,127
91040,note_off,0,0,0,,7,,,55,127
91040,note_off,0,0,0,,0,,,60,127
91041,note_on,1,0,0,,7,,,55,127
91041,note_on,0,0,0,,2,,,50,127
91041,note_on,0,0,0,,7,,,43,127
91041,note_on,0,0,0,,11,,,70,127
91152,note_off,111,0,0,,11,,,70,127
91153,note_on,1,0,0,,2,,,74,127
91264,note_off,111,0,0,,2,,,74,127
91265,note_on,1,0,0,,1,,,73,127
91376,note_off,111,0,0,,1,,,73,127
91377,note_on,1,0,0,,4,,,76,127
91488,note_off,111,0,0,,4,,,76,127
91489,note_on,1,0,0,,2,,,74,127
91600,note_off,111,0,0,,2,,,74,127
91601,note_on,1,0,0,,5,,,77,127
91712,note_off,111,0,0,,5,,,77,127
91713,note_on,1,0,0,,4,,,76,127
91824,note_off,111,0,0,,4,,,76,127
91825,note_on,1,0,0,,10,,,81,127
91936,note_off,111,0,0,,10,,,81,127
91936,note_off,0,0,0,,7,,,43,127
91936,note_off,0,0,0,,2,,,50,127
91936,note_off,0,0,0,,7,,,55,127
91937,note_on,1,0,0,,10,,,57,127
91937,note_on,0,0,0,,10,,,45,127
91937,note_on,0,0,0,,4,,,52,127
91937,note_on,0,0,0,,7,,,79,127
92048,note_off,111,0,0,,7,,,79,127
92049,note_on,1,0,0,,5,,,77,127
92160,note_off,111,0,0,,5,,,77,127
92161,note_on,1,0,0,,4,,,76,127
92272,note_off,111,0,0,,4,,,76,127
92273,note_on,1,0,0,,2,,,74,127
92384,note_off,111,0,0,,2,,,74,127
92385,note_on,1,0,0,,1,,,73,127
92496,note_off,111,0,0,,1,,,73,127
92497,note_on,1,0,0,,11,,,70,127
92608,note_off,111,0,0,,11,,,70,127
92609,note_on,1,0,0,,10,,,69,127
92720,note_off,111,0,0,,10,,,69,127
92721,note_on,1,0,0,,7,,,67,127
92832,note_off,111,0,0,,7,,,67,127
92832,note_off,0,0,0,,4,,,52,127
92832,note_off,0,0,0,,10,,,45,127
92832,note_off,0,0,0,,10,,,57,127
92833,note_on,1,0,0,,2,,,50,127
92833,note_on,0,0,0,,2,,,38,127
92833,note_on,0,0,0,,7,,,67,127
93279,note_off,446,0,0,,7,,,67,127
93280,note_on,1,0,0,,5,,,65,127
93336,note_on,56,0,0,,7,,,67,127
93355,note_off,19,0,0,,5,,,65,127
93392,note_on,37,0,0,,5,,,65,127
93411,note_off,19,0,0,,7,,,67,127
93448,note_on,37,0,0,,7,,,67,127
93467,note_off,19,0,0,,5,,,65,127
93504,note_on,37,0,0,,5,,,65,127
93523,note_off,19,0,0,,7,,,67,127
93727,note_off,204,0,0,,5,,,65,127
93727,note_off,0,0,0,,2,,,38,127
93727,note_off,0,0,0,,2,,,50,127
93747,note_on,20,0,0,,2,,,62,127
93747,note_on,0,0,0,,2,,,50,127
93858,note_off,111,0,0,,2,,,62,127
93859,note_on,1,0,0,,5,,,65,127
93970,note_off,111,0,0,,5,,,65,127
93971,note_on,1,0,0,,4,,,64,127
94082,note_off,111,0,0,,4,,,64,127
94083,note_on,1,0,0,,7,,,67,127
94194,note_off,111,0,0,,7,,,67,127
94194,note_off,0,0,0,,2,,,50,127
94195,note_on,1,0,0,,5,,,65,127
94195,note_on,0,0,0,,0,,,48,127
94195,note_on,0,0,0,,0,,,60,127
94306,note_off,111,0,0,,5,,,65,127
94307,note_on,1,0,0,,10,,,69,127
94418,note_off,111,0,0,,10,,,69,127
94419,note_on,1,0,0,,7,,,67,127
94530,note_off,111,0,0,,7,,,67,127
94531,note_on,1,0,0,,12,,,71,127
94642,note_off,111,0,0,,12,,,71,127
94642,note_off,0,0,0,,0,,,60,127
94642,note_off,0,0,0,,0,,,48,127
94643,note_on,1,0,0,,10,,,69,127
94643,note_on,0,0,0,,12,,,47,127
94643,note_on,0,0,0,,12,,,59,127
94754,note_off,111,0,0,,10,,,69,127
94755,note_on,1,0,0,,0,,,72,127
94866,note_off,111,0,0,,0,,,72,127
94867,note_on,1,0,0,,12,,,71,127
94978,note_off,111,0,0,,12,,,71,127
94979,note_on,1,0,0,,2,,,74,127
95090,note_off,111,0,0,,2,,,74,127
95090,note_off,0,0,0,,12,,,59,127
95090,note_off,0,0,0,,12,,,47,127
95091,note_on,1,0,0,,0,,,72,127
95091,note_on,0,0,0,,10,,,45,127
95091,note_on,0,0,0,,10,,,57,127
95202,note_off,111,0,0,,0,,,72,127
95203,note_on,1,0,0,,4,,,76,127
95314,note_off,111,0,0,,4,,,76,127
95315,note_on,1,0,0,,2,,,74,127
95426,note_off,111,0,0,,2,,,74,127
95427,note_on,1,0,0,,7,,,79,127
95538,note_off,111,0,0,,7,,,79,127
95538,note_off,0,0,0,,10,,,57,127
95538,note_off,0,0,0,,10,,,45,127
95539,note_on,1,0,0,,5,,,77,127
95539,note_on,0,0,0,,7,,,43,127
95539,note_on,0,0,0,,7,,,55,127
95650,note_off,111,0,0,,5,,,77,127
95651,note_on,1,0,0,,4,,,76,127
95762,note_off,111,0,0,,4,,,76,127
95763,note_on,1,0,0,,2,,,74,127
95874,note_off,111,0,0,,2,,,74,127
95875,note_on,1,0,0,,0,,,72,127
95986,note_off,111,0,0,,0,,,72,127
95986,note_off,0,0,0,,7,,,55,127
95986,note_off,0,0,0,,7,,,43,127
95987,note_on,1,0,0,,12,,,71,127
95987,note_on,0,0,0,,7,,,31,127
96098,note_off,111,0,0,,12,,,71,127
96099,note_on,1,0,0,,10,,,69,127
96210,note_off,111,0,0,,10,,,69,127
96211,note_on,1,0,0,,7,,,67,127
96322,note_off,111,0,0,,7,,,67,127
96323,note_on,1,0,0,,5,,,65,127
96434,note_off,111,0,0,,5,,,65,127
96434,note_off,0,0,0,,7,,,31,127
96435,note_on,1,0,0,,5,,,65,127
96435,note_on,0,0,0,,0,,,36,127
96881,note_off,446,0,0,,5,,,65,127
96882,note_on,1,0,0,,4,,,64,127
96938,note_on,56,0,0,,5,,,65,127
96957,note_off,19,0,0,,4,,,64,127
96994,note_on,37,0,0,,4,,,64,127
97013,note_off,19,0,0,,5,,,65,127
97251,note_off,238,0,0,,0,,,36,127
97329,note_off,78,0,0,,4,,,64,127
97386,note_on,57,0,0,,0,,,48,127
97497,note_off,111,0,0,,0,,,48,127
97498,note_on,1,0,0,,4,,,52,127
97498,note_on,0,0,0,,10,,,81,127
97609,note_off,111,0,0,,10,,,81,127
97609,note_off,0,0,0,,4,,,52,127
97610,note_on,1,0,0,,2,,,50,127
97610,note_on,0,0,0,,7,,,79,127
97721,note_off,111,0,0,,2,,,50,127
97722,note_on,1,0,0,,5,,,53,127
97778,note_off,56,0,0,,7,,,79,127
97833,note_off,55,0,0,,5,,,53,127
97834,note_on,1,0,0,,4,,,52,127
97945,note_off,111,0,0,,4,,,52,127
97946,note_on,1,0,0,,7,,,55,127
98057,note_off,111,0,0,,7,,,55,127
98058,note_on,1,0,0,,5,,,53,127
98169,note_off,111,0,0,,5,,,53,127
98170,note_on,1,0,0,,10,,,57,127
98281,note_off,111,0,0,,10,,,57,127
98282,note_on,1,0,0,,7,,,55,127
98393,note_off,111,0,0,,7,,,55,127
98394,note_on,1,0,0,,12,,,59,127
98394,note_on,0,0,0,,10,,,81,127
98505,note_off,111,0,0,,10,,,81,127
98505,note_off,0,0,0,,12,,,59,127
98506,note_on,1,0,0,,10,,,57,127
98506,note_on,0,0,0,,7,,,79,127
98617,note_off,111,0,0,,10,,,57,127
98618,note_on,1,0,0,,0,,,60,127
98674,note_off,56,0,0,,7,,,79,127
98729,note_off,55,0,0,,0,,,60,127
98730,note_on,1,0,0,,12,,,59,127
98841,note_off,111,0,0,,12,,,59,127
98842,note_on,1,0,0,,2,,,62,127
98953,note_off,111,0,0,,2,,,62,127
98954,note_on,1,0,0,,7,,,55,127
99065,note_off,111,0,0,,7,,,55,127
99066,note_on,1,0,0,,12,,,59,127
99177,note_off,111,0,0,,12,,,59,127
99187,note_on,10,0,0,,0,,,48,127
99298,note_off,111,0,0,,0,,,48,127
99299,note_on,1,0,0,,4,,,52,127
99299,note_on,0,0,0,,10,,,81,127
99410,note_off,111,0,0,,10,,,81,127
99410,note_off,0,0,0,,4,,,52,127
99411,note_on,1,0,0,,2,,,50,127
99411,note_on,0,0,0,,7,,,79,127
99522,note_off,111,0,0,,2,,,50,127
99523,note_on,1,0,0,,5,,,53,127
99579,note_off,56,0,0,,7,,,79,127
99634,note_off,55,0,0,,5,,,53,127
99635,note_on,1,0,0,,4,,,52,127
99746,note_off,111,0,0,,4,,,52,127
99747,note_on,1,0,0,,7,,,55,127
99858,note_off,111,0,0,,7,,,55,127
99859,note_on,1,0,0,,5,,,53,127
99970,note_off,111,0,0,,5,,,53,127
99971,note_on,1,0,0,,10,,,57,127
100082,note_off,111,0,0,,10,,,57,127
100083,note_on,1,0,0,,7,,,55,127
100194,note_off,111,0,0,,7,,,55,127
100195,note_on,1,0,0,,12,,,59,127
100195,note_on,0,0,0,,10,,,81,127
100306,note_off,111,0,0,,10,,,81,127
100306,note_off,0,0,0,,12,,,59,127
100307,note_on,1,0,0,,10,,,57,127
100307,note_on,0,0,0,,7,,,79,127
100418,note_off,111,0,0,,10,,,57,127
100419,note_on,1,0,0,,0,,,60,127
100475,note_off,56,0,0,,7,,,79,127
100530,note_off,55,0,0,,0,,,60,127
100531,note_on,1,0,0,,12,,,59,127
100642,note_off,111,0,0,,12,,,59,127
100643,note_on,1,0,0,,2,,,62,127
100754,note_off,111,0,0,,2,,,62,127
100755,note_on,1,0,0,,7,,,55,127
100866,note_off,111,0,0,,7,,,55,127
100867,note_on,1,0,0,,12,,,59,127
100978,note_off,111,0,0,,12,,,59,127
100988,note_on,10,0,0,,0,,,48,127
101099,note_off,111,0,0,,0,,,48,127
101100,note_on,1,0,0,,4,,,52,127
101100,note_on,0,0,0,,2,,,86,127
101211,note_off,111,0,0,,2,,,86,127
101211,note_off,0,0,0,,4,,,52,127
101212,note_on,1,0,0,,2,,,50,127
101212,note_on,0,0,0,,0,,,84,127
101323,note_off,111,0,0,,2,,,50,127
101324,note_on,1,0,0,,5,,,53,127
101380,note_off,56,0,0,,0,,,84,127
101435,note_off,55,0,0,,5,,,53,127
101436,note_on,1,0,0,,4,,,52,127
101547,note_off,111,0,0,,4,,,52,127
101548,note_on,1,0,0,,7,,,55,127
101659,note_off,111,0,0,,7,,,55,127
101660,note_on,1,0,0,,0,,,48,127
101771,note_off,111,0,0,,0,,,48,127
101772,note_on,1,0,0,,7,,,55,127
101883,note_off,111,0,0,,7,,,55,127
101884,note_on,1,0,0,,5,,,53,127
101995,note_off,111,0,0,,5,,,53,127
101996,note_on,1,0,0,,10,,,57,127
101996,note_on,0,0,0,,2,,,86,127
102107,note_off,111,0,0,,2,,,86,127
102107,note_off,0,0,0,,10,,,57,127
102108,note_on,1,0,0,,7,,,55,127
102108,note_on,0,0,0,,0,,,84,127
102219,note_off,111,0,0,,7,,,55,127
102220,note_on,1,0,0,,12,,,59,127
102276,note_off,56,0,0,,0,,,84,127
102331,note_off,55,0,0,,12,,,59,127
102332,note_on,1,0,0,,10,,,57,127
102443,note_off,111,0,0,,10,,,57,127
102444,note_on,1,0,0,,0,,,60,127
102555,note_off,111,0,0,,0,,,60,127
102556,note_on,1,0,0,,12,,,59,127
102667,note_off,111,0,0,,12,,,59,127
102668,note_on,1,0,0,,2,,,62,127
102779,note_off,111,0,0,,2,,,62,127
102789,note_on,10,0,0,,0,,,48,127
102900,note_off,111,0,0,,0,,,48,127
102901,note_on,1,0,0,,4,,,52,127
102901,note_on,0,0,0,,2,,,86,127
103012,note_off,111,0,0,,2,,,86,127
103012,note_off,0,0,0,,4,,,52,127
103013,note_on,1,0,0,,2,,,50,127
103013,note_on,0,0,0,,0,,,84,127
103124,note_off,111,0,0,,2,,,50,127
103125,note_on,1,0,0,,5,,,53,127
103181,note_off,56,0,0,,0,,,84,127
103236,note_off,55,0,0,,5,,,53,127
103237,note_on,1,0,0,,4,,,52,127
103348,note_off,111,0,0,,4,,,52,127
103349,note_on,1,0,0,,7,,,55,127
103460,note_off,111,0,0,,7,,,55,127
103461,note_on,1,0,0,,0,,,48,127
103572,note_off,111,0,0,,0,,,48,127
103573,note_on,1,0,0,,7,,,55,127
103684,note_off,111,0,0,,7,,,55,127
103685,note_on,1,0,0,,5,,,53,127
103796,note_off,111,0,0,,5,,,53,127
103797,note_on,1,0,0,,10,,,57,127
103797,note_on,0,0,0,,2,,,86,127
103908,note_off,111,0,0,,2,,,86,127
103908,note_off,0,0,0,,10,,,57,127
103909,note_on,1,0,0,,7,,,55,127
103909,note_on,0,0,0,,0,,,84,127
104020,note_off,111,0,0,,7,,,55,127
104021,note_on,1,0,0,,12,,,59,127
104077,note_off,56,0,0,,0,,,84,127
104132,note_off,55,0,0,,12,,,59,127
104133,note_on,1,0,0,,10,,,57,127
104244,note_off,111,0,0,,10,,,57,127
104245,note_on,1,0,0,,0,,,60,127
104245,note_on,0,0,0,,2,,,86,127
104356,note_off,111,0,0,,2,,,86,127
104356,note_off,0,0,0,,0,,,60,127
104357,note_on,1,0,0,,12,,,59,127
104357,note_on,0,0,0,,0,,,84,127
104468,note_off,111,0,0,,12,,,59,127
104469,note_on,1,0,0,,2,,,62,127
104525,note_off,56,0,0,,0,,,84,127
104580,note_off,55,0,0,,2,,,62,127
104581,note_on,1,0,0,,0,,,60,127
104692,note_off,111,0,0,,0,,,60,127
104693,note_on,1,0,0,,4,,,64,127
104693,note_on,0,0,0,,2,,,86,127
104804,note_off,111,0,0,,2,,,86,127
104804,note_off,0,0,0,,4,,,64,127
104805,note_on,1,0,0,,2,,,62,127
104805,note_on,0,0,0,,0,,,84,127
104916,note_off,111,0,0,,2,,,62,127
104917,note_on,1,0,0,,5,,,65,127
105028,note_off,111,0,0,,5,,,65,127
105029,note_on,1,0,0,,4,,,64,127
105140,note_off,111,0,0,,0,,,84,127
105141,note_on,1,0,0,,12,,,83,127
105252,note_off,111,0,0,,12,,,83,127
105253,note_on,1,0,0,,4,,,52,127
105253,note_on,0,0,0,,10,,,81,127
105364,note_off,111,0,0,,10,,,81,127
105365,note_on,1,0,0,,7,,,79,127
105472,note_off,107,0,0,,4,,,64,127
105475,note_off,3,0,0,,7,,,79,127
105475,note_off,0,0,0,,4,,,52,127
105476,note_on,1,0,0,,5,,,53,127
105476,note_on,0,0,0,,10,,,81,127
105587,note_off,111,0,0,,10,,,81,127
105588,note_on,1,0,0,,4,,,76,127
105699,note_off,111,0,0,,4,,,76,127
105699,note_off,0,0,0,,5,,,53,127
105700,note_on,1,0,0,,5,,,53,127
105700,note_on,0,0,0,,5,,,77,127
105811,note_off,111,0,0,,5,,,77,127
105812,note_on,1,0,0,,2,,,74,127
105923,note_off,111,0,0,,2,,,74,127
105923,note_off,0,0,0,,5,,,53,127
105924,note_on,1,0,0,,7,,,55,127
105924,note_on,0,0,0,,0,,,72,127
106147,note_off,223,0,0,,0,,,72,127
106148,note_on,1,0,0,,7,,,43,127
106148,note_on,0,0,0,,0,,,72,127
106204,note_off,56,0,0,,0,,,72,127
106205,note_on,1,0,0,,12,,,71,127
106261,note_off,56,0,0,,12,,,71,127
106263,note_on,2,0,0,,10,,,69,127
106321,note_off,58,0,0,,10,,,69,127
106322,note_on,1,0,0,,12,,,71,127
106366,note_off,44,0,0,,7,,,55,127
106369,note_off,3,0,0,,7,,,43,127
106382,note_off,13,0,0,,12,,,71,127
106389,note_on,7,0,0,,0,,,72,127
106389,note_on,0,0,0,,0,,,48,127
106500,note_off,111,0,0,,0,,,48,127
106500,note_off,0,0,0,,0,,,72,127
106501,note_on,1,0,0,,10,,,81,127
106501,note_on,0,0,0,,4,,,52,127
106608,note_off,107,0,0,,4,,,52,127
106608,note_off,0,0,0,,10,,,81,127
106613,note_on,5,0,0,,7,,,79,127
106613,note_on,0,0,0,,2,,,50,127
106720,note_off,107,0,0,,2,,,50,127
106725,note_on,5,0,0,,5,,,53,127
106777,note_off,52,0,0,,7,,,79,127
106832,note_off,55,0,0,,5,,,53,127
106837,note_on,5,0,0,,4,,,52,127
106944,note_off,107,0,0,,4,,,52,127
106949,note_on,5,0,0,,7,,,55,127
107056,note_off,107,0,0,,7,,,55,127
107061,note_on,5,0,0,,5,,,53,127
107168,note_off,107,0,0,,5,,,53,127
107173,note_on,5,0,0,,10,,,57,127
107280,note_off,107,0,0,,10,,,57,127
107285,note_on,5,0,0,,7,,,55,127
107392,note_off,107,0,0,,7,,,55,127
107397,note_on,5,0,0,,10,,,81,127
107397,note_on,0,0,0,,12,,,59,127
107504,note_off,107,0,0,,12,,,59,127
107504,note_off,0,0,0,,10,,,81,127
107509,note_on,5,0,0,,7,,,79,127
107509,note_on,0,0,0,,10,,,57,127
107616,note_off,107,0,0,,10,,,57,127
107621,note_on,5,0,0,,0,,,60,127
107673,note_off,52,0,0,,7,,,79,127
107728,note_off,55,0,0,,0,,,60,127
107733,note_on,5,0,0,,12,,,59,127
107840,note_off,107,0,0,,12,,,59,127
107845,note_on,5,0,0,,2,,,62,127
107952,note_off,107,0,0,,2,,,62,127
107957,note_on,5,0,0,,7,,,55,127
108064,note_off,107,0,0,,7,,,55,127
108069,note_on,5,0,0,,12,,,59,127
108176,note_off,107,0,0,,12,,,59,127
108190,note_on,14,0,0,,0,,,48,127
108297,note_off,107,0,0,,0,,,48,127
108302,note_on,5,0,0,,10,,,81,127
108302,note_on,0,0,0,,4,,,52,127
108409,note_off,107,0,0,,4,,,52,127
108409,note_off,0,0,0,,10,,,81,127
108414,note_on,5,0,0,,7,,,79,127
108414,note_on,0,0,0,,2,,,50,127
108521,note_off,107,0,0,,2,,,50,127
108526,note_on,5,0,0,,5,,,53,127
108578,note_off,52,0,0,,7,,,79,127
108633,note_off,55,0,0,,5,,,53,127
108638,note_on,5,0,0,,4,,,52,127
108745,note_off,107,0,0,,4,,,52,127
108750,note_on,5,0,0,,7,,,55,127
108857,note_off,107,0,0,,7,,,55,127
108862,note_on,5,0,0,,5,,,53,127
108969,note_off,107,0,0,,5,,,53,127
108974,note_on,5,0,0,,10,,,57,127
109081,note_off,107,0,0,,10,,,57,127
109086,note_on,5,0,0,,7,,,55,127
109193,note_off,107,0,0,,7,,,55,127
109198,note_on,5,0,0,,10,,,81,127
109198,note_on,0,0,0,,12,,,59,127
109305,note_off,107,0,0,,12,,,59,127
109305,note_off,0,0,0,,10,,,81,127
109310,note_on,5,0,0,,7,,,79,127
109310,note_on,0,0,0,,10,,,57,127
109417,note_off,107,0,0,,10,,,57,127
109422,note_on,5,0,0,,0,,,60,127
109474,note_off,52,0,0,,7,,,79,127
109529,note_off,55,0,0,,0,,,60,127
109534,note_on,5,0,0,,12,,,59,127
109641,note_off,107,0,0,,12,,,59,127
109646,note_on,5,0,0,,2,,,62,127
109753,note_off,107,0,0,,2,,,62,127
109758,note_on,5,0,0,,7,,,55,127
109865,note_off,107,0,0,,7,,,55,127
109870,note_on,5,0,0,,12,,,59,127
109977,note_off,107,0,0,,12,,,59,127
109991,note_on,14,0,0,,0,,,48,127
110098,note_off,107,0,0,,0,,,48,127
110103,note_on,5,0,0,,2,,,86,127
110103,note_on,0,0,0,,4,,,52,127
110210,note_off,107,0,0,,4,,,52,127
110210,note_off,0,0,0,,2,,,86,127
110215,note_on,5,0,0,,0,,,84,127
110215,note_on,0,0,0,,2,,,50,127
110322,note_off,107,0,0,,2,,,50,127
110327,note_on,5,0,0,,5,,,53,127
110379,note_off,52,0,0,,0,,,84,127
110434,note_off,55,0,0,,5,,,53,127
110439,note_on,5,0,0,,4,,,52,127
110546,note_off,107,0,0,,4,,,52,127
110551,note_on,5,0,0,,7,,,55,127
110658,note_off,107,0,0,,7,,,55,127
110663,note_on,5,0,0,,0,,,48,127
110770,note_off,107,0,0,,0,,,48,127
110775,note_on,5,0,0,,7,,,55,127
110882,note_off,107,0,0,,7,,,55,127
110887,note_on,5,0,0,,5,,,53,127
110994,note_off,107,0,0,,5,,,53,127
110999,note_on,5,0,0,,2,,,86,127
110999,note_on,0,0,0,,10,,,57,127
111106,note_off,107,0,0,,10,,,57,127
111106,note_off,0,0,0,,2,,,86,127
111111,note_on,5,0,0,,0,,,84,127
111111,note_on,0,0,0,,7,,,55,127
111218,note_off,107,0,0,,7,,,55,127
111223,note_on,5,0,0,,12,,,59,127
111275,note_off,52,0,0,,0,,,84,127
111330,note_off,55,0,0,,12,,,59,127
111335,note_on,5,0,0,,10,,,57,127
111442,note_off,107,0,0,,10,,,57,127
111447,note_on,5,0,0,,0,,,60,127
111554,note_off,107,0,0,,0,,,60,127
111559,note_on,5,0,0,,12,,,59,127
111666,note_off,107,0,0,,12,,,59,127
111671,note_on,5,0,0,,2,,,62,127
111778,note_off,107,0,0,,2,,,62,127
111792,note_on,14,0,0,,0,,,48,127
111899,note_off,107,0,0,,0,,,48,127
111904,note_on,5,0,0,,2,,,86,127
111904,note_on,0,0,0,,4,,,52,127
112011,note_off,107,0,0,,4,,,52,127
112011,note_off,0,0,0,,2,,,86,127
112016,note_on,5,0,0,,0,,,84,127
112016,note_on,0,0,0,,2,,,50,127
112123,note_off,107,0,0,,2,,,50,127
112128,note_on,5,0,0,,5,,,53,127
112180,note_off,52,0,0,,0,,,84,127
112235,note_off,55,0,0,,5,,,53,127
112240,note_on,5,0,0,,4,,,52,127
112347,note_off,107,0,0,,4,,,52,127
112352,note_on,5,0,0,,7,,,55,127
112459,note_off,107,0,0,,7,,,55,127
112464,note_on,5,0,0,,0,,,48,127
112571,note_off,107,0,0,,0,,,48,127
112576,note_on,5,0,0,,7,,,55,127
112683,note_off,107,0,0,,7,,,55,127
112688,note_on,5,0,0,,5,,,53,127
112795,note_off,107,0,0,,5,,,53,127
112800,note_on,5,0,0,,2,,,86,127
112800,note_on,0,0,0,,10,,,57,127
112907,note_off,107,0,0,,10,,,57,127
112907,note_off,0,0,0,,2,,,86,127
112912,note_on,5,0,0,,0,,,84,127
112912,note_on,0,0,0,,7,,,55,127
113019,note_off,107,0,0,,7,,,55,127
113024,note_on,5,0,0,,12,,,59,127
113076,note_off,52,0,0,,0,,,84,127
113131,note_off,55,0,0,,12,,,59,127
113136,note_on,5,0,0,,10,,,57,127
113243,note_off,107,0,0,,10,,,57,127
113248,note_on,5,0,0,,2,,,86,127
113248,note_on,0,0,0,,0,,,60,127
113355,note_off,107,0,0,,0,,,60,127
113355,note_off,0,0,0,,2,,,86,127
113360,note_on,5,0,0,,0,,,84,127
113360,note_on,0,0,0,,12,,,59,127
113467,note_off,107,0,0,,12,,,59,127
113472,note_on,5,0,0,,2,,,62,127
113524,note_off,52,0,0,,0,,,84,127
113579,note_off,55,0,0,,2,,,62,127
113584,note_on,5,0,0,,0,,,60,127
113691,note_off,107,0,0,,0,,,60,127
113696,note_on,5,0,0,,2,,,86,127
113696,note_on,0,0,0,,4,,,64,127
113803,note_off,107,0,0,,4,,,64,127
113803,note_off,0,0,0,,2,,,86,127
113808,note_on,5,0,0,,0,,,84,127
113808,note_on,0,0,0,,2,,,62,127
113915,note_off,107,0,0,,2,,,62,127
113920,note_on,5,0,0,,5,,,65,127
114027,note_off,107,0,0,,5,,,65,127
114032,note_on,5,0,0,,4,,,64,127
114139,note_off,107,0,0,,0,,,84,127
114144,note_on,5,0,0,,12,,,83,127
114251,note_off,107,0,0,,12,,,83,127
114256,note_on,5,0,0,,10,,,81,127
114256,note_on,0,0,0,,4,,,52,127
114363,note_off,107,0,0,,10,,,81,127
114368,note_on,5,0,0,,7,,,79,127
114472,note_off,104,0,0,,4,,,64,127
114475,note_off,3,0,0,,7,,,79,127
114475,note_off,0,0,0,,4,,,52,127
114480,note_on,5,0,0,,10,,,81,127
114480,note_on,0,0,0,,5,,,53,127
114587,note_off,107,0,0,,10,,,81,127
114592,note_on,5,0,0,,4,,,76,127
114699,note_off,107,0,0,,4,,,76,127
114699,note_off,0,0,0,,5,,,53,127
114704,note_on,5,0,0,,5,,,77,127
114704,note_on,0,0,0,,5,,,53,127
114811,note_off,107,0,0,,5,,,77,127
114816,note_on,5,0,0,,2,,,74,127
114923,note_off,107,0,0,,2,,,74,127
114923,note_off,0,0,0,,5,,,53,127
114928,note_on,5,0,0,,0,,,72,127
114928,note_on,0,0,0,,7,,,55,127
115147,note_off,219,0,0,,0,,,72,127
115152,note_on,5,0,0,,0,,,72,127
115152,note_on,0,0,0,,7,,,43,127
115208,note_on,56,0,0,,12,,,71,127
115227,note_off,19,0,0,,0,,,72,127
115264,note_on,37,0,0,,10,,,69,127
115283,note_off,19,0,0,,12,,,71,127
115320,note_on,37,0,0,,12,,,71,127
115339,note_off,19,0,0,,10,,,69,127
115368,note_off,29,0,0,,7,,,55,127
115375,note_off,7,0,0,,7,,,43,127
115376,note_off,1,0,0,,12,,,71,127
115376,note_on,0,0,0,,0,,,72,127
115376,note_on,0,0,0,,0,,,48,127
115506,note_on,130,0,0,,0,,,84,127
115597,note_off,91,0,0,,0,,,72,127
115617,note_off,20,0,0,,0,,,84,127
115618,note_on,1,0,0,,7,,,79,127
115729,note_off,111,0,0,,7,,,79,127
115730,note_on,1,0,0,,4,,,76,127
115841,note_off,111,0,0,,4,,,76,127
115842,note_on,1,0,0,,0,,,72,127
115953,note_off,111,0,0,,0,,,72,127
115954,note_on,1,0,0,,7,,,67,127
116065,note_off,111,0,0,,7,,,67,127
116066,note_on,1,0,0,,4,,,64,127
116177,note_off,111,0,0,,4,,,64,127
116178,note_on,1,0,0,,4,,,76,127
116270,note_off,92,0,0,,0,,,48,127
116289,note_off,19,0,0,,4,,,76,127
116290,note_on,1,0,0,,7,,,43,127
116290,note_on,0,0,0,,2,,,74,127
116401,note_off,111,0,0,,2,,,74,127
116402,note_on,1,0,0,,12,,,71,127
116513,note_off,111,0,0,,12,,,71,127
116514,note_on,1,0,0,,7,,,67,127
116625,note_off,111,0,0,,7,,,67,127
116626,note_on,1,0,0,,2,,,62,127
116737,note_off,111,0,0,,2,,,62,127
116738,note_on,1,0,0,,12,,,59,127
116849,note_off,111,0,0,,12,,,59,127
116850,note_on,1,0,0,,7,,,55,127
116961,note_off,111,0,0,,7,,,55,127
116962,note_on,1,0,0,,2,,,62,127
117073,note_off,111,0,0,,2,,,62,127
117074,note_on,1,0,0,,5,,,65,127
117185,note_off,111,0,0,,5,,,65,127
117185,note_off,0,0,0,,7,,,43,127
117186,note_on,1,0,0,,0,,,36,127
117186,note_on,0,0,0,,4,,,64,127
117297,note_off,111,0,0,,4,,,64,127
117307,note_on,10,0,0,,0,,,84,127
117418,note_off,111,0,0,,0,,,84,127
117419,note_on,1,0,0,,7,,,79,127
117530,note_off,111,0,0,,7,,,79,127
117531,note_on,1,0,0,,4,,,76,127
117642,note_off,111,0,0,,4,,,76,127
117643,note_on,1,0,0,,0,,,72,127
117754,note_off,111,0,0,,0,,,72,127
117755,note_on,1,0,0,,7,,,67,127
117866,note_off,111,0,0,,7,,,67,127
117867,note_on,1,0,0,,4,,,64,127
117978,note_off,111,0,0,,4,,,64,127
117979,note_on,1,0,0,,4,,,76,127
118080,note_off,101,0,0,,0,,,36,127
118089,note_off,9,0,0,,4,,,76,127
118090,note_on,1,0,0,,7,,,43,127
118090,note_on,0,0,0,,2,,,74,127
118201,note_off,111,0,0,,2,,,74,127
118202,note_on,1,0,0,,12,,,71,127
118313,note_off,111,0,0,,12,,,71,127
118314,note_on,1,0,0,,7,,,67,127
118425,note_off,111,0,0,,7,,,67,127
118426,note_on,1,0,0,,2,,,62,127
118537,note_off,111,0,0,,2,,,62,127
118538,note_on,1,0,0,,12,,,59,127
118649,note_off,111,0,0,,12,,,59,127
118650,note_on,1,0,0,,7,,,55,127
118761,note_off,111,0,0,,7,,,55,127
118762,note_on,1,0,0,,2,,,62,127
118873,note_off,111,0,0,,2,,,62,127
118874,note_on,1,0,0,,5,,,65,127
118985,note_off,111,0,0,,5,,,65,127
118985,note_off,0,0,0,,7,,,43,127
118995,note_on,10,0,0,,0,,,36,127
118995,note_on,0,0,0,,4,,,64,127
119106,note_off,111,0,0,,4,,,64,127
119107,note_on,1,0,0,,0,,,60,127
119218,note_off,111,0,0,,0,,,60,127
119219,note_on,1,0,0,,7,,,67,127
119330,note_off,111,0,0,,7,,,67,127
119331,note_on,1,0,0,,4,,,64,127
119442,note_off,111,0,0,,4,,,64,127
119443,note_on,1,0,0,,0,,,72,127
119554,note_off,111,0,0,,0,,,72,127
119555,note_on,1,0,0,,7,,,67,127
119666,note_off,111,0,0,,7,,,67,127
119667,note_on,1,0,0,,4,,,76,127
119778,note_off,111,0,0,,4,,,76,127
119779,note_on,1,0,0,,0,,,72,127
119890,note_off,111,0,0,,0,,,72,127
119890,note_off,0,0,0,,0,,,36,127
119891,note_on,1,0,0,,0,,,36,127
119891,note_on,0,0,0,,7,,,79,127
120002,note_off,111,0,0,,7,,,79,127
120003,note_on,1,0,0,,4,,,76,127
120114,note_off,111,0,0,,4,,,76,127
120115,note_on,1,0,0,,0,,,84,127
120226,note_off,111,0,0,,0,,,84,127
120227,note_on,1,0,0,,7,,,79,127
120338,note_off,111,0,0,,7,,,79,127
120339,note_on,1,0,0,,4,,,76,127
120450,note_off,111,0,0,,4,,,76,127
120451,note_on,1,0,0,,0,,,72,127
120562,note_off,111,0,0,,0,,,72,127
120563,note_on,1,0,0,,4,,,76,127
120674,note_off,111,0,0,,4,,,76,127
120675,note_on,1,0,0,,7,,,79,127
120786,note_off,111,0,0,,7,,,79,127
120786,note_off,0,0,0,,0,,,36,127
120796,note_on,10,0,0,,5,,,41,127
120796,note_on,0,0,0,,10,,,81,127
120907,note_off,111,0,0,,10,,,81,127
120908,note_on,1,0,0,,5,,,77,127
121019,note_off,111,0,0,,5,,,77,127
121020,note_on,1,0,0,,0,,,72,127
121131,note_off,111,0,0,,0,,,72,127
121132,note_on,1,0,0,,10,,,69,127
121243,note_off,111,0,0,,10,,,69,127
121244,note_on,1,0,0,,5,,,65,127
121355,note_off,111,0,0,,5,,,65,127
121356,note_on,1,0,0,,10,,,69,127
121467,note_off,111,0,0,,10,,,69,127
121468,note_on,1,0,0,,0,,,72,127
121579,note_off,111,0,0,,0,,,72,127
121580,note_on,1,0,0,,10,,,81,127
121691,note_off,111,0,0,,10,,,81,127
121691,note_off,0,0,0,,5,,,41,127
121692,note_on,1,0,0,,7,,,43,127
121692,note_on,0,0,0,,7,,,79,127
121803,note_off,111,0,0,,7,,,79,127
121804,note_on,1,0,0,,4,,,76,127
121915,note_off,111,0,0,,4,,,76,127
121916,note_on,1,0,0,,0,,,72,127
122027,note_off,111,0,0,,0,,,72,127
122028,note_on,1,0,0,,7,,,67,127
122139,note_off,111,0,0,,7,,,67,127
122140,note_on,1,0,0,,7,,,31,127
122140,note_on,0,0,0,,5,,,77,127
122251,note_off,111,0,0,,5,,,77,127
122253,note_on,2,0,0,,2,,,74,127
122366,note_off,113,0,0,,2,,,74,127
122367,note_on,1,0,0,,0,,,72,127
122482,note_off,115,0,0,,0,,,72,127
122487,note_on,5,0,0,,12,,,71,127
122615,note_off,128,0,0,,12,,,71,127
122625,note_off,10,0,0,,7,,,31,127
122628,note_off,3,0,0,,7,,,43,127
122642,note_on,14,0,0,,0,,,36,127
122642,note_on,0,0,0,,4,,,64,127
122753,note_off,111,0,0,,4,,,64,127
122754,note_on,1,0,0,,0,,,60,127
122865,note_off,111,0,0,,0,,,60,127
122866,note_on,1,0,0,,7,,,67,127
122977,note_off,111,0,0,,7,,,67,127
122978,note_on,1,0,0,,4,,,64,127
123089,note_off,111,0,0,,4,,,64,127
123090,note_on,1,0,0,,0,,,72,127
123201,note_off,111,0,0,,0,,,72,127
123202,note_on,1,0,0,,7,,,67,127
123313,note_off,111,0,0,,7,,,67,127
123314,note_on,1,0,0,,4,,,76,127
123425,note_off,111,0,0,,4,,,76,127
123426,note_on,1,0,0,,0,,,72,127
123537,note_off,111,0,0,,0,,,72,127
123537,note_off,0,0,0,,0,,,36,127
123538,note_on,1,0,0,,0,,,36,127
123538,note_on,0,0,0,,7,,,79,127
123649,note_off,111,0,0,,7,,,79,127
123650,note_on,1,0,0,,4,,,76,127
123761,note_off,111,0,0,,4,,,76,127
123762,note_on,1,0,0,,0,,,84,127
123873,note_off,111,0,0,,0,,,84,127
123874,note_on,1,0,0,,7,,,79,127
123985,note_off,111,0,0,,7,,,79,127
123986,note_on,1,0,0,,4,,,76,127
124097,note_off,111,0,0,,4,,,76,127
124098,note_on,1,0,0,,0,,,72,127
124209,note_off,111,0,0,,0,,,72,127
124210,note_on,1,0,0,,4,,,76,127
124321,note_off,111,0,0,,4,,,76,127
124322,note_on,1,0,0,,7,,,79,127
124433,note_off,111,0,0,,7,,,79,127
124433,note_off,0,0,0,,0,,,36,127
124443,note_on,10,0,0,,5,,,41,127
124443,note_on,0,0,0,,10,,,81,127
124554,note_off,111,0,0,,10,,,81,127
124555,note_on,1,0,0,,5,,,77,127
124666,note_off,111,0,0,,5,,,77,127
124667,note_on,1,0,0,,0,,,72,127
124778,note_off,111,0,0,,0,,,72,127
124779,note_on,1,0,0,,10,,,69,127
124890,note_off,111,0,0,,10,,,69,127
124891,note_on,1,0,0,,5,,,65,127
125002,note_off,111,0,0,,5,,,65,127
125003,note_on,1,0,0,,10,,,69,127
125114,note_off,111,0,0,,10,,,69,127
125115,note_on,1,0,0,,0,,,72,127
125226,note_off,111,0,0,,0,,,72,127
125227,note_on,1,0,0,,10,,,81,127
125338,note_off,111,0,0,,10,,,81,127
125338,note_off,0,0,0,,5,,,41,127
125339,note_on,1,0,0,,7,,,43,127
125339,note_on,0,0,0,,7,,,79,127
125450,note_off,111,0,0,,7,,,79,127
125451,note_on,1,0,0,,4,,,76,127
125562,note_off,111,0,0,,4,,,76,127
125563,note_on,1,0,0,,0,,,72,127
125674,note_off,111,0,0,,0,,,72,127
125675,note_on,1,0,0,,7,,,67,127
125786,note_off,111,0,0,,7,,,67,127
125786,note_off,0,0,0,,7,,,43,127
125787,note_on,1,0,0,,7,,,31,127
125787,note_on,0,0,0,,5,,,77,127
125898,note_off,111,0,0,,5,,,77,127
125899,note_on,1,0,0,,2,,,74,127
126010,note_off,111,0,0,,2,,,74,127
126011,note_on,1,0,0,,0,,,72,127
126122,note_off,111,0,0,,0,,,72,127
126123,note_on,1,0,0,,12,,,71,127
126234,note_off,111,0,0,,12,,,71,127
126234,note_off,0,0,0,,7,,,31,127
126235,note_on,1,0,0,,0,,,36,127
126235,note_on,0,0,0,,0,,,72,127
126384,note_on,149,0,0,,7,,,79,127
126433,note_off,49,0,0,,0,,,72,127
126495,note_off,62,0,0,,7,,,79,127
126496,note_on,1,0,0,,4,,,76,127
126607,note_off,111,0,0,,4,,,76,127
126608,note_on,1,0,0,,0,,,72,127
126719,note_off,111,0,0,,0,,,72,127
126720,note_on,1,0,0,,7,,,67,127
126831,note_off,111,0,0,,7,,,67,127
126832,note_on,1,0,0,,4,,,64,127
126943,note_off,111,0,0,,4,,,64,127
126944,note_on,1,0,0,,0,,,60,127
127055,note_off,111,0,0,,0,,,60,127
127056,note_on,1,0,0,,7,,,55,127
127129,note_off,73,0,0,,0,,,36,127
127166,note_off,37,0,0,,7,,,55,127
127167,note_on,1,0,0,,4,,,52,127
127278,note_off,111,0,0,,4,,,52,127
127279,note_on,1,0,0,,0,,,48,127
127390,note_off,111,0,0,,0,,,48,127
127391,note_on,1,0,0,,7,,,43,127
127502,note_off,111,0,0,,7,,,43,127
127512,note_on,10,0,0,,4,,,40,127
127623,note_off,111,0,0,,4,,,40,127
127633,note_on,10,0,0,,0,,,36,127
129381,note_off,1748,0,0,,0,,,36,127
130560,end_of_track,1179,1,0,,,,,,
