tick,type,time,meta,track,program,channel,pitch,tempo,note,velocity
0,copyright,0,1,0,,,,,,
0,program_change,0,0,0,6,0,,,,
0,pitchwheel,0,0,0,,0,0,,,
0,program_change,0,0,0,6,1,,,,
0,pitchwheel,0,0,0,,1,-590,,,
0,program_change,0,0,0,6,2,,,,
0,pitchwheel,0,0,0,,2,-272,,,
0,program_change,0,0,0,6,3,,,,
0,pitchwheel,0,0,0,,3,-353,,,
0,program_change,0,0,0,6,4,,,,
0,pitchwheel,0,0,0,,4,-560,,,
0,program_change,0,0,0,6,5,,,,
0,pitchwheel,0,0,0,,5,-80,,,
0,program_change,0,0,0,6,6,,,,
0,pitchwheel,0,0,0,,6,-625,,,
0,program_change,0,0,0,6,7,,,,
0,pitchwheel,0,0,0,,7,-130,,,
0,program_change,0,0,0,6,8,,,,
0,pitchwheel,0,0,0,,8,-512,,,
0,program_change,0,0,0,6,10,,,,
0,pitchwheel,0,0,0,,10,-464,,,
0,program_change,0,0,0,6,11,,,,
0,pitchwheel,0,0,0,,11,-208,,,
0,program_change,0,0,0,6,12,,,,
0,pitchwheel,0,0,0,,12,-553,,,
0,set_tempo,0,1,0,,,,500000,,
110,note_on,110,0,0,,0,,,60,127
110,note_on,0,0,0,,0,,,72,127
310,note_off,200,0,0,,0,,,72,127
310,note_off,0,0,0,,0,,,60,127
329,note_on,19,0,0,,7,,,55,127
329,note_on,0,0,0,,7,,,67,127
529,note_off,200,0,0,,7,,,67,127
529,note_off,0,0,0,,7,,,55,127
548,note_on,19,0,0,,0,,,60,127
548,note_on,0,0,0,,0,,,72,127
748,note_off,200,0,0,,0,,,72,127
748,note_off,0,0,0,,0,,,60,127
767,note_on,19,0,0,,4,,,64,127
767,note_on,0,0,0,,4,,,76,127
967,note_off,200,0,0,,4,,,76,127
967,note_off,0,0,0,,4,,,64,127
986,note_on,19,0,0,,0,,,60,127
986,note_on,0,0,0,,0,,,72,127
1186,note_off,200,0,0,,0,,,72,127
1186,note_off,0,0,0,,0,,,60,127
1205,note_on,19,0,0,,4,,,64,127
1205,note_on,0,0,0,,4,,,76,127
1405,note_off,200,0,0,,4,,,76,127
1405,note_off,0,0,0,,4,,,64,127
1424,note_on,19,0,0,,10,,,69,127
1424,note_on,0,0,0,,10,,,81,127
1533,note_off,109,0,0,,10,,,81,127
1533,note_off,0,0,0,,10,,,69,127
1534,note_on,1,0,0,,7,,,67,127
1534,note_on,0,0,0,,7,,,79,127
1643,note_off,109,0,0,,7,,,79,127
1643,note_off,0,0,0,,7,,,67,127
1644,note_on,1,0,0,,5,,,65,127
1644,note_on,0,0,0,,5,,,77,127
1753,note_off,109,0,0,,5,,,77,127
1753,note_off,0,0,0,,5,,,65,127
1754,note_on,1,0,0,,4,,,64,127
1754,note_on,0,0,0,,4,,,76,127
1863,note_off,109,0,0,,4,,,76,127
1863,note_off,0,0,0,,4,,,64,127
1864,note_on,1,0,0,,2,,,62,127
1864,note_on,0,0,0,,2,,,74,127
1973,note_off,109,0,0,,2,,,74,127
1973,note_off,0,0,0,,2,,,62,127
1974,note_on,1,0,0,,0,,,60,127
1974,note_on,0,0,0,,0,,,72,127
2083,note_off,109,0,0,,0,,,72,127
2083,note_off,0,0,0,,0,,,60,127
2084,note_on,1,0,0,,0,,,60,127
2084,note_on,0,0,0,,0,,,72,127
2139,note_off,55,0,0,,0,,,72,127
2139,note_off,0,0,0,,0,,,60,127
2139,note_on,0,0,0,,12,,,59,127
2139,note_on,0,0,0,,12,,,71,127
2194,note_off,55,0,0,,12,,,71,127
2194,note_off,0,0,0,,12,,,59,127
2194,note_on,0,0,0,,0,,,60,127
2194,note_on,0,0,0,,0,,,72,127
2249,note_off,55,0,0,,0,,,72,127
2249,note_off,0,0,0,,0,,,60,127
2249,note_on,0,0,0,,12,,,59,127
2249,note_on,0,0,0,,12,,,71,127
2523,note_off,274,0,0,,12,,,71,127
2523,note_off,0,0,0,,12,,,59,127
2523,note_on,0,0,0,,0,,,60,127
2523,note_on,0,0,0,,0,,,72,127
2729,note_off,206,0,0,,0,,,72,127
2729,note_off,0,0,0,,0,,,60,127
2756,note_on,27,0,0,,2,,,74,127
2756,note_on,0,0,0,,2,,,62,127
2865,note_off,109,0,0,,2,,,62,127
2865,note_off,0,0,0,,2,,,74,127
2866,note_on,1,0,0,,0,,,72,127
2866,note_on,0,0,0,,0,,,60,127
2975,note_off,109,0,0,,0,,,60,127
2975,note_off,0,0,0,,0,,,72,127
2976,note_on,1,0,0,,12,,,71,127
2976,note_on,0,0,0,,12,,,59,127
3085,note_off,109,0,0,,12,,,59,127
3085,note_off,0,0,0,,12,,,71,127
3086,note_on,1,0,0,,10,,,69,127
3086,note_on,0,0,0,,10,,,57,127
3195,note_off,109,0,0,,10,,,57,127
3195,note_off,0,0,0,,10,,,69,127
3196,note_on,1,0,0,,7,,,67,127
3196,note_on,0,0,0,,7,,,55,127
3305,note_off,109,0,0,,7,,,55,127
3305,note_off,0,0,0,,7,,,67,127
3306,note_on,1,0,0,,5,,,65,127
3306,note_on,0,0,0,,5,,,53,127
3415,note_off,109,0,0,,5,,,53,127
3415,note_off,0,0,0,,5,,,65,127
3416,note_on,1,0,0,,4,,,64,127
3416,note_on,0,0,0,,4,,,52,127
3616,note_off,200,0,0,,4,,,64,127
3622,note_off,6,0,0,,4,,,52,127
3636,note_on,14,0,0,,5,,,65,127
3636,note_on,0,0,0,,5,,,53,127
3836,note_off,200,0,0,,5,,,65,127
3842,note_off,6,0,0,,5,,,53,127
3856,note_on,14,0,0,,7,,,67,127
3856,note_on,0,0,0,,7,,,55,127
4056,note_off,200,0,0,,7,,,55,127
4056,note_off,0,0,0,,7,,,67,127
4075,note_on,19,0,0,,4,,,64,127
4075,note_on,0,0,0,,4,,,52,127
4275,note_off,200,0,0,,4,,,64,127
4281,note_off,6,0,0,,4,,,52,127
4295,note_on,14,0,0,,2,,,62,127
4295,note_on,0,0,0,,2,,,50,127
4495,note_off,200,0,0,,2,,,62,127
4501,note_off,6,0,0,,2,,,50,127
4515,note_on,14,0,0,,0,,,60,127
4515,note_on,0,0,0,,0,,,48,127
4715,note_off,200,0,0,,0,,,60,127
4721,note_off,6,0,0,,0,,,48,127
4735,note_on,14,0,0,,10,,,69,127
4735,note_on,0,0,0,,7,,,43,127
4790,note_off,55,0,0,,10,,,69,127
4790,note_on,0,0,0,,7,,,67,127
4845,note_off,55,0,0,,7,,,67,127
4845,note_on,0,0,0,,10,,,69,127
4900,note_off,55,0,0,,10,,,69,127
4900,note_on,0,0,0,,7,,,67,127
4955,note_off,55,0,0,,7,,,67,127
4955,note_on,0,0,0,,10,,,69,127
5010,note_off,55,0,0,,10,,,69,127
5010,note_on,0,0,0,,7,,,67,127
5612,note_off,602,0,0,,7,,,43,127
5667,note_off,55,0,0,,7,,,67,127
6107,note_on,440,0,0,,2,,,74,127
6107,note_on,0,0,0,,11,,,82,127
6107,note_on,0,0,0,,7,,,67,127
6216,note_off,109,0,0,,2,,,74,127
6217,note_on,1,0,0,,1,,,73,127
6307,note_off,90,0,0,,7,,,67,127
6325,note_off,18,0,0,,1,,,73,127
6326,note_on,1,0,0,,1,,,73,127
6326,note_on,0,0,0,,11,,,70,127
6435,note_off,109,0,0,,1,,,73,127
6436,note_on,1,0,0,,2,,,74,127
6526,note_off,90,0,0,,11,,,70,127
6544,note_off,18,0,0,,2,,,74,127
6545,note_on,1,0,0,,2,,,74,127
6545,note_on,0,0,0,,7,,,67,127
6654,note_off,109,0,0,,2,,,74,127
6655,note_on,1,0,0,,1,,,73,127
6745,note_off,90,0,0,,7,,,67,127
6763,note_off,18,0,0,,1,,,73,127
6764,note_off,1,0,0,,11,,,82,127
6764,note_on,0,0,0,,10,,,81,127
6764,note_on,0,0,0,,1,,,73,127
6764,note_on,0,0,0,,5,,,65,127
6873,note_off,109,0,0,,1,,,73,127
6874,note_on,1,0,0,,2,,,74,127
6964,note_off,90,0,0,,5,,,65,127
6982,note_off,18,0,0,,2,,,74,127
6983,note_on,1,0,0,,2,,,74,127
6983,note_on,0,0,0,,2,,,62,127
7092,note_off,109,0,0,,2,,,74,127
7093,note_on,1,0,0,,1,,,73,127
7183,note_off,90,0,0,,2,,,62,127
7201,note_off,18,0,0,,1,,,73,127
7202,note_on,1,0,0,,1,,,73,127
7202,note_on,0,0,0,,5,,,65,127
7311,note_off,109,0,0,,1,,,73,127
7312,note_on,1,0,0,,2,,,74,127
7402,note_off,90,0,0,,5,,,65,127
7420,note_off,18,0,0,,2,,,74,127
7421,note_off,1,0,0,,10,,,81,127
7421,note_on,0,0,0,,11,,,82,127
7421,note_on,0,0,0,,2,,,74,127
7421,note_on,0,0,0,,7,,,67,127
7530,note_off,109,0,0,,2,,,74,127
7531,note_on,1,0,0,,1,,,73,127
7621,note_off,90,0,0,,7,,,67,127
7639,note_off,18,0,0,,1,,,73,127
7640,note_on,1,0,0,,1,,,73,127
7640,note_on,0,0,0,,11,,,70,127
7749,note_off,109,0,0,,1,,,73,127
7750,note_on,1,0,0,,2,,,74,127
7840,note_off,90,0,0,,11,,,70,127
7858,note_off,18,0,0,,2,,,74,127
7859,note_on,1,0,0,,2,,,74,127
7859,note_on,0,0,0,,7,,,67,127
7968,note_off,109,0,0,,2,,,74,127
7969,note_on,1,0,0,,1,,,73,127
8059,note_off,90,0,0,,7,,,67,127
8077,note_off,18,0,0,,1,,,73,127
8078,note_off,1,0,0,,11,,,82,127
8078,note_on,0,0,0,,10,,,81,127
8078,note_on,0,0,0,,1,,,73,127
8078,note_on,0,0,0,,5,,,65,127
8187,note_off,109,0,0,,1,,,73,127
8188,note_on,1,0,0,,2,,,74,127
8278,note_off,90,0,0,,5,,,65,127
8296,note_off,18,0,0,,2,,,74,127
8297,note_on,1,0,0,,2,,,74,127
8297,note_on,0,0,0,,2,,,62,127
8406,note_off,109,0,0,,2,,,74,127
8407,note_on,1,0,0,,1,,,73,127
8497,note_off,90,0,0,,2,,,62,127
8515,note_off,18,0,0,,1,,,73,127
8516,note_on,1,0,0,,1,,,73,127
8516,note_on,0,0,0,,5,,,65,127
8625,note_off,109,0,0,,1,,,73,127
8626,note_on,1,0,0,,2,,,74,127
8722,note_off,96,0,0,,5,,,65,127
8743,note_on,21,0,0,,0,,,84,127
8743,note_on,0,0,0,,4,,,76,127
8743,note_on,0,0,0,,10,,,69,127
8748,note_off,5,0,0,,10,,,81,127
8751,note_off,3,0,0,,2,,,74,127
8852,note_off,101,0,0,,4,,,76,127
8853,note_on,1,0,0,,3,,,75,127
8943,note_off,90,0,0,,10,,,69,127
8961,note_off,18,0,0,,3,,,75,127
8962,note_on,1,0,0,,3,,,75,127
8962,note_on,0,0,0,,0,,,72,127
9071,note_off,109,0,0,,3,,,75,127
9072,note_on,1,0,0,,4,,,76,127
9162,note_off,90,0,0,,0,,,72,127
9180,note_off,18,0,0,,4,,,76,127
9181,note_on,1,0,0,,4,,,76,127
9181,note_on,0,0,0,,10,,,69,127
9290,note_off,109,0,0,,4,,,76,127
9291,note_on,1,0,0,,3,,,75,127
9381,note_off,90,0,0,,10,,,69,127
9399,note_off,18,0,0,,3,,,75,127
9400,note_off,1,0,0,,0,,,84,127
9400,note_on,0,0,0,,12,,,83,127
9400,note_on,0,0,0,,3,,,75,127
9400,note_on,0,0,0,,8,,,68,127
9509,note_off,109,0,0,,3,,,75,127
9510,note_on,1,0,0,,4,,,76,127
9600,note_off,90,0,0,,8,,,68,127
9618,note_off,18,0,0,,4,,,76,127
9619,note_on,1,0,0,,4,,,76,127
9619,note_on,0,0,0,,4,,,64,127
9728,note_off,109,0,0,,4,,,76,127
9729,note_on,1,0,0,,3,,,75,127
9819,note_off,90,0,0,,4,,,64,127
9837,note_off,18,0,0,,3,,,75,127
9838,note_on,1,0,0,,3,,,75,127
9838,note_on,0,0,0,,8,,,68,127
9947,note_off,109,0,0,,3,,,75,127
9948,note_on,1,0,0,,4,,,76,127
10038,note_off,90,0,0,,8,,,68,127
10056,note_off,18,0,0,,4,,,76,127
10057,note_off,1,0,0,,12,,,83,127
10057,note_on,0,0,0,,4,,,76,127
10057,note_on,0,0,0,,0,,,84,127
10057,note_on,0,0,0,,10,,,69,127
10166,note_off,109,0,0,,4,,,76,127
10167,note_on,1,0,0,,3,,,75,127
10257,note_off,90,0,0,,10,,,69,127
10275,note_off,18,0,0,,3,,,75,127
10276,note_on,1,0,0,,3,,,75,127
10276,note_on,0,0,0,,0,,,72,127
10385,note_off,109,0,0,,3,,,75,127
10386,note_on,1,0,0,,4,,,76,127
10476,note_off,90,0,0,,0,,,72,127
10494,note_off,18,0,0,,4,,,76,127
10495,note_on,1,0,0,,4,,,76,127
10495,note_on,0,0,0,,10,,,69,127
10604,note_off,109,0,0,,4,,,76,127
10605,note_on,1,0,0,,3,,,75,127
10695,note_off,90,0,0,,10,,,69,127
10713,note_off,18,0,0,,3,,,75,127
10714,note_off,1,0,0,,0,,,84,127
10714,note_on,0,0,0,,12,,,83,127
10714,note_on,0,0,0,,3,,,75,127
10714,note_on,0,0,0,,8,,,68,127
10823,note_off,109,0,0,,3,,,75,127
10824,note_on,1,0,0,,4,,,76,127
10914,note_off,90,0,0,,8,,,68,127
10932,note_off,18,0,0,,4,,,76,127
10933,note_on,1,0,0,,4,,,76,127
10933,note_on,0,0,0,,4,,,64,127
11042,note_off,109,0,0,,4,,,76,127
11043,note_on,1,0,0,,3,,,75,127
11133,note_off,90,0,0,,4,,,64,127
11151,note_off,18,0,0,,3,,,75,127
11152,note_on,1,0,0,,3,,,75,127
11152,note_on,0,0,0,,8,,,68,127
11261,note_off,109,0,0,,3,,,75,127
11262,note_on,1,0,0,,4,,,76,127
11335,note_off,73,0,0,,8,,,68,127
11372,note_off,37,0,0,,12,,,83,127
11379,note_off,7,0,0,,4,,,76,127
11384,note_on,5,0,0,,2,,,86,127
11384,note_on,0,0,0,,4,,,76,127
11384,note_on,0,0,0,,4,,,64,127
11493,note_off,109,0,0,,2,,,86,127
11494,note_on,1,0,0,,0,,,84,127
11584,note_off,90,0,0,,4,,,64,127
11602,note_off,18,0,0,,0,,,84,127
11603,note_on,1,0,0,,0,,,84,127
11603,note_on,0,0,0,,6,,,66,127
11712,note_off,109,0,0,,0,,,84,127
11713,note_on,1,0,0,,12,,,83,127
11803,note_off,90,0,0,,6,,,66,127
11821,note_off,18,0,0,,12,,,83,127
11822,note_on,1,0,0,,12,,,83,127
11822,note_on,0,0,0,,8,,,68,127
11931,note_off,109,0,0,,12,,,83,127
11932,note_on,1,0,0,,12,,,83,127
12022,note_off,90,0,0,,8,,,68,127
12040,note_off,18,0,0,,12,,,83,127
12040,note_off,0,0,0,,4,,,76,127
12041,note_on,1,0,0,,2,,,86,127
12041,note_on,0,0,0,,4,,,76,127
12041,note_on,0,0,0,,10,,,69,127
12041,note_on,0,0,0,,10,,,57,127
12150,note_off,109,0,0,,2,,,86,127
12151,note_on,1,0,0,,0,,,84,127
12241,note_off,90,0,0,,10,,,57,127
12259,note_off,18,0,0,,0,,,84,127
12260,note_on,1,0,0,,0,,,84,127
12260,note_on,0,0,0,,0,,,60,127
12369,note_off,109,0,0,,0,,,84,127
12370,note_on,1,0,0,,12,,,83,127
12460,note_off,90,0,0,,0,,,60,127
12478,note_off,18,0,0,,12,,,83,127
12479,note_on,1,0,0,,12,,,83,127
12479,note_on,0,0,0,,10,,,57,127
12588,note_off,109,0,0,,12,,,83,127
12589,note_on,1,0,0,,10,,,81,127
12679,note_off,90,0,0,,10,,,57,127
12688,note_off,9,0,0,,4,,,76,127
12689,note_on,1,0,0,,4,,,64,127
12689,note_on,0,0,0,,4,,,76,127
12689,note_on,0,0,0,,2,,,86,127
12697,note_off,8,0,0,,10,,,81,127
12698,note_off,1,0,0,,10,,,69,127
12797,note_off,99,0,0,,2,,,86,127
12798,note_on,1,0,0,,0,,,84,127
12888,note_off,90,0,0,,4,,,64,127
12906,note_off,18,0,0,,0,,,84,127
12907,note_on,1,0,0,,6,,,66,127
12907,note_on,0,0,0,,0,,,84,127
13016,note_off,109,0,0,,0,,,84,127
13017,note_on,1,0,0,,12,,,83,127
13107,note_off,90,0,0,,6,,,66,127
13125,note_off,18,0,0,,12,,,83,127
13126,note_on,1,0,0,,8,,,68,127
13126,note_on,0,0,0,,12,,,83,127
13235,note_off,109,0,0,,12,,,83,127
13236,note_on,1,0,0,,12,,,83,127
13326,note_off,90,0,0,,8,,,68,127
13344,note_off,18,0,0,,12,,,83,127
13344,note_off,0,0,0,,4,,,76,127
13345,note_on,1,0,0,,10,,,57,127
13345,note_on,0,0,0,,10,,,69,127
13345,note_on,0,0,0,,2,,,86,127
13345,note_on,0,0,0,,4,,,76,127
13454,note_off,109,0,0,,2,,,86,127
13455,note_on,1,0,0,,0,,,84,127
13545,note_off,90,0,0,,10,,,57,127
13563,note_off,18,0,0,,0,,,84,127
13564,note_on,1,0,0,,0,,,60,127
13564,note_on,0,0,0,,0,,,84,127
13673,note_off,109,0,0,,0,,,84,127
13674,note_on,1,0,0,,12,,,83,127
13764,note_off,90,0,0,,0,,,60,127
13778,note_off,14,0,0,,12,,,83,127
13784,note_on,6,0,0,,12,,,83,127
13784,note_on,0,0,0,,10,,,57,127
13893,note_off,109,0,0,,12,,,83,127
13895,note_on,2,0,0,,10,,,81,127
13984,note_off,89,0,0,,10,,,57,127
14002,note_off,18,0,0,,4,,,76,127
14003,note_off,1,0,0,,10,,,69,127
14006,note_off,3,0,0,,10,,,81,127
14012,note_on,6,0,0,,2,,,74,127
14012,note_on,0,0,0,,0,,,84,127
14012,note_on,0,0,0,,2,,,62,127
14121,note_off,109,0,0,,0,,,84,127
14122,note_on,1,0,0,,12,,,83,127
14212,note_off,90,0,0,,2,,,62,127
14230,note_off,18,0,0,,12,,,83,127
14231,note_on,1,0,0,,12,,,83,127
14231,note_on,0,0,0,,4,,,64,127
14340,note_off,109,0,0,,12,,,83,127
14341,note_on,1,0,0,,10,,,81,127
14431,note_off,90,0,0,,4,,,64,127
14449,note_off,18,0,0,,10,,,81,127
14450,note_on,1,0,0,,10,,,81,127
14450,note_on,0,0,0,,6,,,66,127
14559,note_off,109,0,0,,10,,,81,127
14560,note_on,1,0,0,,10,,,81,127
14650,note_off,90,0,0,,6,,,66,127
14668,note_off,18,0,0,,10,,,81,127
14668,note_off,0,0,0,,2,,,74,127
14669,note_on,1,0,0,,0,,,84,127
14669,note_on,0,0,0,,2,,,74,127
14669,note_on,0,0,0,,7,,,67,127
14669,note_on,0,0,0,,7,,,55,127
14778,note_off,109,0,0,,0,,,84,127
14779,note_on,1,0,0,,12,,,83,127
14869,note_off,90,0,0,,7,,,55,127
14887,note_off,18,0,0,,12,,,83,127
14888,note_on,1,0,0,,12,,,83,127
14888,note_on,0,0,0,,12,,,59,127
14997,note_off,109,0,0,,12,,,83,127
14998,note_on,1,0,0,,10,,,81,127
15088,note_off,90,0,0,,12,,,59,127
15106,note_off,18,0,0,,10,,,81,127
15107,note_on,1,0,0,,10,,,81,127
15107,note_on,0,0,0,,7,,,55,127
15216,note_off,109,0,0,,10,,,81,127
15217,note_on,1,0,0,,7,,,79,127
15307,note_off,90,0,0,,7,,,55,127
15325,note_off,18,0,0,,7,,,79,127
15325,note_off,0,0,0,,2,,,74,127
15326,note_off,1,0,0,,7,,,67,127
15331,note_on,5,0,0,,2,,,62,127
15331,note_on,0,0,0,,2,,,74,127
15331,note_on,0,0,0,,0,,,84,127
15440,note_off,109,0,0,,0,,,84,127
15441,note_on,1,0,0,,12,,,83,127
15531,note_off,90,0,0,,2,,,62,127
15549,note_off,18,0,0,,12,,,83,127
15550,note_on,1,0,0,,4,,,64,127
15550,note_on,0,0,0,,12,,,83,127
15659,note_off,109,0,0,,12,,,83,127
15660,note_on,1,0,0,,10,,,81,127
15750,note_off,90,0,0,,4,,,64,127
15768,note_off,18,0,0,,10,,,81,127
15769,note_on,1,0,0,,6,,,66,127
15769,note_on,0,0,0,,10,,,81,127
15878,note_off,109,0,0,,10,,,81,127
15879,note_on,1,0,0,,10,,,81,127
15969,note_off,90,0,0,,6,,,66,127
15987,note_off,18,0,0,,10,,,81,127
15987,note_off,0,0,0,,2,,,74,127
15988,note_on,1,0,0,,7,,,55,127
15988,note_on,0,0,0,,7,,,67,127
15988,note_on,0,0,0,,2,,,74,127
15988,note_on,0,0,0,,0,,,84,127
16097,note_off,109,0,0,,0,,,84,127
16098,note_on,1,0,0,,12,,,83,127
16188,note_off,90,0,0,,7,,,55,127
16206,note_off,18,0,0,,12,,,83,127
16207,note_on,1,0,0,,12,,,59,127
16207,note_on,0,0,0,,12,,,83,127
16316,note_off,109,0,0,,12,,,83,127
16317,note_on,1,0,0,,10,,,81,127
16407,note_off,90,0,0,,12,,,59,127
16425,note_off,18,0,0,,10,,,81,127
16426,note_on,1,0,0,,7,,,55,127
16426,note_on,0,0,0,,10,,,81,127
16535,note_off,109,0,0,,10,,,81,127
16543,note_on,8,0,0,,7,,,79,127
16632,note_off,89,0,0,,7,,,55,127
16645,note_off,13,0,0,,2,,,74,127
16662,note_off,17,0,0,,7,,,67,127
16681,note_off,19,0,0,,7,,,79,127
16682,note_on,1,0,0,,0,,,60,127
16682,note_on,0,0,0,,4,,,88,127
16791,note_off,109,0,0,,4,,,88,127
16792,note_on,1,0,0,,2,,,86,127
16901,note_off,109,0,0,,2,,,86,127
16902,note_on,1,0,0,,0,,,84,127
17011,note_off,109,0,0,,0,,,84,127
17012,note_on,1,0,0,,12,,,83,127
17121,note_off,109,0,0,,12,,,83,127
17122,note_on,1,0,0,,0,,,72,127
17122,note_on,0,0,0,,10,,,81,127
17231,note_off,109,0,0,,10,,,81,127
17232,note_on,1,0,0,,7,,,79,127
17322,note_off,90,0,0,,0,,,72,127
17340,note_off,18,0,0,,7,,,79,127
17340,note_off,0,0,0,,0,,,60,127
17341,note_on,1,0,0,,2,,,62,127
17341,note_on,0,0,0,,6,,,78,127
17541,note_off,200,0,0,,6,,,78,127
17560,note_on,19,0,0,,12,,,71,127
17560,note_on,0,0,0,,10,,,81,127
17614,note_off,54,0,0,,10,,,81,127
17615,note_on,1,0,0,,7,,,79,127
17669,note_off,54,0,0,,7,,,79,127
17670,note_on,1,0,0,,10,,,81,127
17724,note_off,54,0,0,,10,,,81,127
17725,note_on,1,0,0,,7,,,79,127
17760,note_off,35,0,0,,12,,,71,127
17778,note_off,18,0,0,,7,,,79,127
17779,note_on,1,0,0,,7,,,67,127
17779,note_on,0,0,0,,10,,,81,127
17833,note_off,54,0,0,,10,,,81,127
17834,note_on,1,0,0,,7,,,79,127
17888,note_off,54,0,0,,7,,,79,127
17889,note_on,1,0,0,,6,,,78,127
17943,note_off,54,0,0,,6,,,78,127
17944,note_on,1,0,0,,7,,,79,127
17979,note_off,35,0,0,,7,,,67,127
17997,note_off,18,0,0,,7,,,79,127
17997,note_off,0,0,0,,2,,,62,127
17998,note_on,1,0,0,,2,,,74,127
17998,note_on,0,0,0,,2,,,62,127
17998,note_on,0,0,0,,6,,,78,127
18052,note_off,54,0,0,,6,,,78,127
18053,note_on,1,0,0,,7,,,79,127
18107,note_off,54,0,0,,7,,,79,127
18108,note_on,1,0,0,,10,,,81,127
18162,note_off,54,0,0,,10,,,81,127
18163,note_on,1,0,0,,6,,,78,127
18198,note_off,35,0,0,,2,,,62,127
18198,note_off,0,0,0,,2,,,74,127
18216,note_off,18,0,0,,6,,,78,127
18217,note_on,1,0,0,,12,,,71,127
18217,note_on,0,0,0,,12,,,59,127
18217,note_on,0,0,0,,10,,,81,127
18271,note_off,54,0,0,,10,,,81,127
18272,note_on,1,0,0,,7,,,79,127
18326,note_off,54,0,0,,7,,,79,127
18327,note_on,1,0,0,,10,,,81,127
18381,note_off,54,0,0,,10,,,81,127
18382,note_on,1,0,0,,7,,,79,127
18417,note_off,35,0,0,,12,,,59,127
18417,note_off,0,0,0,,12,,,71,127
18435,note_off,18,0,0,,7,,,79,127
18436,note_on,1,0,0,,7,,,67,127
18436,note_on,0,0,0,,7,,,55,127
18436,note_on,0,0,0,,10,,,81,127
18490,note_off,54,0,0,,10,,,81,127
18491,note_on,1,0,0,,7,,,79,127
18545,note_off,54,0,0,,7,,,79,127
18546,note_on,1,0,0,,6,,,78,127
18600,note_off,54,0,0,,6,,,78,127
18601,note_on,1,0,0,,7,,,79,127
18636,note_off,35,0,0,,7,,,55,127
18636,note_off,0,0,0,,7,,,67,127
18654,note_off,18,0,0,,7,,,79,127
18655,note_on,1,0,0,,2,,,50,127
18655,note_on,0,0,0,,2,,,62,127
18655,note_on,0,0,0,,6,,,78,127
18709,note_off,54,0,0,,6,,,78,127
18710,note_on,1,0,0,,7,,,79,127
18764,note_off,54,0,0,,7,,,79,127
18765,note_on,1,0,0,,10,,,81,127
18819,note_off,54,0,0,,10,,,81,127
18820,note_on,1,0,0,,6,,,78,127
18855,note_off,35,0,0,,2,,,62,127
18861,note_off,6,0,0,,2,,,50,127
18874,note_off,13,0,0,,6,,,78,127
18875,note_on,1,0,0,,12,,,47,127
18875,note_on,0,0,0,,12,,,59,127
18875,note_on,0,0,0,,10,,,81,127
18929,note_off,54,0,0,,10,,,81,127
18930,note_on,1,0,0,,7,,,79,127
18984,note_off,54,0,0,,7,,,79,127
18985,note_on,1,0,0,,10,,,81,127
19039,note_off,54,0,0,,10,,,81,127
19040,note_on,1,0,0,,7,,,79,127
19075,note_off,35,0,0,,12,,,59,127
19081,note_off,6,0,0,,12,,,47,127
19094,note_off,13,0,0,,7,,,79,127
19095,note_on,1,0,0,,7,,,43,127
19095,note_on,0,0,0,,7,,,55,127
19095,note_on,0,0,0,,10,,,81,127
19149,note_off,54,0,0,,10,,,81,127
19150,note_on,1,0,0,,7,,,79,127
19204,note_off,54,0,0,,7,,,79,127
19205,note_on,1,0,0,,6,,,78,127
19259,note_off,54,0,0,,6,,,78,127
19265,note_on,6,0,0,,7,,,79,127
19296,note_off,31,0,0,,7,,,55,127
19302,note_off,6,0,0,,7,,,43,127
19329,note_off,27,0,0,,7,,,79,127
19334,note_on,5,0,0,,7,,,79,127
19334,note_on,0,0,0,,2,,,50,127
19334,note_on,0,0,0,,2,,,38,127
19572,note_on,238,0,0,,10,,,81,127
19582,note_off,10,0,0,,7,,,79,127
20212,note_off,630,0,0,,2,,,38,127
20212,note_off,0,0,0,,2,,,50,127
20230,note_off,18,0,0,,10,,,81,127
20715,note_on,485,0,0,,10,,,81,127
20715,note_on,0,0,0,,0,,,72,127
20824,note_off,109,0,0,,0,,,72,127
20825,note_on,1,0,0,,12,,,71,127
20934,note_off,109,0,0,,12,,,71,127
20935,note_on,1,0,0,,10,,,69,127
20935,note_on,0,0,0,,12,,,71,127
21044,note_off,109,0,0,,12,,,71,127
21045,note_on,1,0,0,,0,,,72,127
21135,note_off,90,0,0,,10,,,69,127
21153,note_off,18,0,0,,0,,,72,127
21154,note_on,1,0,0,,6,,,66,127
21154,note_on,0,0,0,,0,,,72,127
21263,note_off,109,0,0,,0,,,72,127
21264,note_on,1,0,0,,12,,,71,127
21354,note_off,90,0,0,,6,,,66,127
21372,note_off,18,0,0,,12,,,71,127
21372,note_off,0,0,0,,10,,,81,127
21373,note_on,1,0,0,,2,,,38,127
21373,note_on,0,0,0,,10,,,81,127
21373,note_on,0,0,0,,0,,,72,127
21482,note_off,109,0,0,,0,,,72,127
21483,note_on,1,0,0,,12,,,71,127
21579,note_off,96,0,0,,2,,,38,127
21592,note_off,13,0,0,,12,,,71,127
21593,note_on,1,0,0,,10,,,69,127
21593,note_on,0,0,0,,12,,,71,127
21702,note_off,109,0,0,,12,,,71,127
21703,note_on,1,0,0,,0,,,72,127
21793,note_off,90,0,0,,10,,,69,127
21811,note_off,18,0,0,,0,,,72,127
21812,note_on,1,0,0,,6,,,66,127
21812,note_on,0,0,0,,0,,,72,127
21921,note_off,109,0,0,,0,,,72,127
21922,note_on,1,0,0,,12,,,71,127
22012,note_off,90,0,0,,6,,,66,127
22030,note_off,18,0,0,,12,,,71,127
22030,note_off,0,0,0,,10,,,81,127
22031,note_on,1,0,0,,4,,,40,127
22031,note_on,0,0,0,,10,,,81,127
22031,note_on,0,0,0,,0,,,72,127
22140,note_off,109,0,0,,0,,,72,127
22141,note_on,1,0,0,,12,,,71,127
22237,note_off,96,0,0,,4,,,40,127
22250,note_off,13,0,0,,12,,,71,127
22251,note_on,1,0,0,,10,,,69,127
22251,note_on,0,0,0,,12,,,71,127
22360,note_off,109,0,0,,12,,,71,127
22361,note_on,1,0,0,,0,,,72,127
22451,note_off,90,0,0,,10,,,69,127
22469,note_off,18,0,0,,0,,,72,127
22470,note_on,1,0,0,,6,,,66,127
22470,note_on,0,0,0,,0,,,72,127
22579,note_off,109,0,0,,0,,,72,127
22580,note_on,1,0,0,,12,,,71,127
22670,note_off,90,0,0,,6,,,66,127
22688,note_off,18,0,0,,12,,,71,127
22688,note_off,0,0,0,,10,,,81,127
22689,note_on,1,0,0,,6,,,42,127
22689,note_on,0,0,0,,0,,,72,127
22689,note_on,0,0,0,,10,,,81,127
22798,note_off,109,0,0,,0,,,72,127
22799,note_on,1,0,0,,12,,,71,127
22895,note_off,96,0,0,,6,,,42,127
22908,note_off,13,0,0,,12,,,71,127
22909,note_on,1,0,0,,10,,,69,127
22909,note_on,0,0,0,,12,,,71,127
23018,note_off,109,0,0,,12,,,71,127
23019,note_on,1,0,0,,0,,,72,127
23109,note_off,90,0,0,,10,,,69,127
23127,note_off,18,0,0,,0,,,72,127
23128,note_on,1,0,0,,6,,,66,127
23128,note_on,0,0,0,,0,,,72,127
23237,note_off,109,0,0,,0,,,72,127
23238,note_on,1,0,0,,12,,,71,127
23328,note_off,90,0,0,,6,,,66,127
23346,note_off,18,0,0,,12,,,71,127
23346,note_off,0,0,0,,10,,,81,127
23347,note_on,1,0,0,,2,,,38,127
23347,note_on,0,0,0,,0,,,72,127
23347,note_on,0,0,0,,10,,,81,127
23456,note_off,109,0,0,,0,,,72,127
23457,note_on,1,0,0,,12,,,71,127
23553,note_off,96,0,0,,2,,,38,127
23566,note_off,13,0,0,,12,,,71,127
23567,note_on,1,0,0,,10,,,69,127
23567,note_on,0,0,0,,12,,,71,127
23676,note_off,109,0,0,,12,,,71,127
23677,note_on,1,0,0,,0,,,72,127
23767,note_off,90,0,0,,10,,,69,127
23785,note_off,18,0,0,,0,,,72,127
23786,note_on,1,0,0,,6,,,66,127
23786,note_on,0,0,0,,0,,,72,127
23895,note_off,109,0,0,,0,,,72,127
23896,note_on,1,0,0,,10,,,69,127
23986,note_off,90,0,0,,6,,,66,127
24004,note_off,18,0,0,,10,,,69,127
24004,note_off,0,0,0,,10,,,81,127
24005,note_on,1,0,0,,7,,,43,127
24005,note_on,0,0,0,,12,,,71,127
24114,note_off,109,0,0,,12,,,71,127
24115,note_on,1,0,0,,10,,,81,127
24211,note_off,96,0,0,,7,,,43,127
24224,note_off,13,0,0,,10,,,81,127
24225,note_on,1,0,0,,10,,,45,127
24225,note_on,0,0,0,,7,,,79,127
24334,note_off,109,0,0,,7,,,79,127
24335,note_on,1,0,0,,6,,,78,127
24431,note_off,96,0,0,,10,,,45,127
24444,note_off,13,0,0,,6,,,78,127
24445,note_on,1,0,0,,12,,,47,127
24445,note_on,0,0,0,,7,,,79,127
24554,note_off,109,0,0,,7,,,79,127
24555,note_on,1,0,0,,2,,,74,127
24651,note_off,96,0,0,,12,,,47,127
24664,note_off,13,0,0,,2,,,74,127
24665,note_on,1,0,0,,0,,,48,127
24665,note_on,0,0,0,,4,,,76,127
24774,note_off,109,0,0,,4,,,76,127
24775,note_on,1,0,0,,0,,,72,127
24871,note_off,96,0,0,,0,,,48,127
24884,note_off,13,0,0,,0,,,72,127
24885,note_on,1,0,0,,2,,,50,127
24885,note_on,0,0,0,,12,,,71,127
24994,note_off,109,0,0,,12,,,71,127
24995,note_on,1,0,0,,7,,,79,127
25104,note_off,109,0,0,,7,,,79,127
25105,note_on,1,0,0,,2,,,38,127
25105,note_on,0,0,0,,10,,,69,127
25160,note_off,55,0,0,,2,,,50,127
25214,note_off,54,0,0,,10,,,69,127
25215,note_on,1,0,0,,6,,,78,127
25311,note_off,96,0,0,,2,,,38,127
25324,note_off,13,0,0,,6,,,78,127
25325,note_on,1,0,0,,7,,,43,127
25325,note_on,0,0,0,,7,,,79,127
25434,note_off,109,0,0,,7,,,79,127
25437,note_on,3,0,0,,6,,,78,127
25546,note_off,109,0,0,,6,,,78,127
25549,note_on,3,0,0,,4,,,76,127
25658,note_off,109,0,0,,4,,,76,127
25661,note_on,3,0,0,,2,,,74,127
25759,note_off,98,0,0,,7,,,43,127
25769,note_off,10,0,0,,2,,,74,127
25772,note_on,3,0,0,,0,,,72,127
25881,note_off,109,0,0,,0,,,72,127
25884,note_on,3,0,0,,12,,,71,127
25993,note_off,109,0,0,,12,,,71,127
26001,note_on,8,0,0,,10,,,81,127
26001,note_on,0,0,0,,0,,,72,127
26110,note_off,109,0,0,,0,,,72,127
26111,note_on,1,0,0,,12,,,71,127
26220,note_off,109,0,0,,12,,,71,127
26221,note_on,1,0,0,,12,,,71,127
26221,note_on,0,0,0,,10,,,69,127
26330,note_off,109,0,0,,12,,,71,127
26331,note_on,1,0,0,,0,,,72,127
26421,note_off,90,0,0,,10,,,69,127
26439,note_off,18,0,0,,0,,,72,127
26440,note_off,1,0,0,,10,,,81,127
26440,note_on,0,0,0,,0,,,72,127
26440,note_on,0,0,0,,6,,,66,127
26549,note_off,109,0,0,,0,,,72,127
26550,note_on,1,0,0,,12,,,71,127
26640,note_off,90,0,0,,6,,,66,127
26658,note_off,18,0,0,,12,,,71,127
26659,note_on,1,0,0,,10,,,81,127
26659,note_on,0,0,0,,0,,,72,127
26659,note_on,0,0,0,,2,,,38,127
26768,note_off,109,0,0,,0,,,72,127
26769,note_on,1,0,0,,12,,,71,127
26865,note_off,96,0,0,,2,,,38,127
26878,note_off,13,0,0,,12,,,71,127
26879,note_on,1,0,0,,12,,,71,127
26879,note_on,0,0,0,,10,,,69,127
26988,note_off,109,0,0,,12,,,71,127
26989,note_on,1,0,0,,0,,,72,127
27079,note_off,90,0,0,,10,,,69,127
27097,note_off,18,0,0,,0,,,72,127
27098,note_off,1,0,0,,10,,,81,127
27098,note_on,0,0,0,,0,,,72,127
27098,note_on,0,0,0,,6,,,66,127
27207,note_off,109,0,0,,0,,,72,127
27208,note_on,1,0,0,,12,,,71,127
27298,note_off,90,0,0,,6,,,66,127
27316,note_off,18,0,0,,12,,,71,127
27317,note_on,1,0,0,,0,,,72,127
27317,note_on,0,0,0,,10,,,81,127
27317,note_on,0,0,0,,4,,,40,127
27426,note_off,109,0,0,,0,,,72,127
27427,note_on,1,0,0,,12,,,71,127
27523,note_off,96,0,0,,4,,,40,127
27536,note_off,13,0,0,,12,,,71,127
27537,note_on,1,0,0,,12,,,71,127
27537,note_on,0,0,0,,10,,,69,127
27646,note_off,109,0,0,,12,,,71,127
27647,note_on,1,0,0,,0,,,72,127
27737,note_off,90,0,0,,10,,,69,127
27755,note_off,18,0,0,,0,,,72,127
27756,note_off,1,0,0,,10,,,81,127
27756,note_on,0,0,0,,0,,,72,127
27756,note_on,0,0,0,,6,,,66,127
27865,note_off,109,0,0,,0,,,72,127
27866,note_on,1,0,0,,12,,,71,127
27956,note_off,90,0,0,,6,,,66,127
27974,note_off,18,0,0,,12,,,71,127
27975,note_on,1,0,0,,10,,,81,127
27975,note_on,0,0,0,,0,,,72,127
27975,note_on,0,0,0,,6,,,42,127
28084,note_off,109,0,0,,0,,,72,127
28085,note_on,1,0,0,,12,,,71,127
28181,note_off,96,0,0,,6,,,42,127
28194,note_off,13,0,0,,12,,,71,127
28195,note_on,1,0,0,,12,,,71,127
28195,note_on,0,0,0,,10,,,69,127
28304,note_off,109,0,0,,12,,,71,127
28305,note_on,1,0,0,,0,,,72,127
28395,note_off,90,0,0,,10,,,69,127
28413,note_off,18,0,0,,0,,,72,127
28414,note_off,1,0,0,,10,,,81,127
28414,note_on,0,0,0,,0,,,72,127
28414,note_on,0,0,0,,6,,,66,127
28523,note_off,109,0,0,,0,,,72,127
28524,note_on,1,0,0,,12,,,71,127
28614,note_off,90,0,0,,6,,,66,127
28632,note_off,18,0,0,,12,,,71,127
28633,note_on,1,0,0,,10,,,81,127
28633,note_on,0,0,0,,0,,,72,127
28633,note_on,0,0,0,,2,,,38,127
28742,note_off,109,0,0,,0,,,72,127
28743,note_on,1,0,0,,12,,,71,127
28839,note_off,96,0,0,,2,,,38,127
28852,note_off,13,0,0,,12,,,71,127
28853,note_on,1,0,0,,12,,,71,127
28853,note_on,0,0,0,,10,,,69,127
28962,note_off,109,0,0,,12,,,71,127
28963,note_on,1,0,0,,0,,,72,127
29053,note_off,90,0,0,,10,,,69,127
29071,note_off,18,0,0,,0,,,72,127
29072,note_off,1,0,0,,10,,,81,127
29072,note_on,0,0,0,,0,,,72,127
29072,note_on,0,0,0,,6,,,66,127
29181,note_off,109,0,0,,0,,,72,127
29182,note_on,1,0,0,,10,,,69,127
29272,note_off,90,0,0,,6,,,66,127
29290,note_off,18,0,0,,10,,,69,127
29291,note_on,1,0,0,,12,,,71,127
29291,note_on,0,0,0,,7,,,43,127
29400,note_off,109,0,0,,12,,,71,127
29401,note_on,1,0,0,,10,,,81,127
29497,note_off,96,0,0,,7,,,43,127
29510,note_off,13,0,0,,10,,,81,127
29511,note_on,1,0,0,,7,,,79,127
29511,note_on,0,0,0,,10,,,45,127
29620,note_off,109,0,0,,7,,,79,127
29621,note_on,1,0,0,,6,,,78,127
29717,note_off,96,0,0,,10,,,45,127
29730,note_off,13,0,0,,6,,,78,127
29731,note_on,1,0,0,,7,,,79,127
29731,note_on,0,0,0,,12,,,47,127
29840,note_off,109,0,0,,7,,,79,127
29841,note_on,1,0,0,,2,,,74,127
29937,note_off,96,0,0,,12,,,47,127
29950,note_off,13,0,0,,2,,,74,127
29951,note_on,1,0,0,,4,,,76,127
29951,note_on,0,0,0,,0,,,48,127
30060,note_off,109,0,0,,4,,,76,127
30061,note_on,1,0,0,,0,,,72,127
30157,note_off,96,0,0,,0,,,48,127
30170,note_off,13,0,0,,0,,,72,127
30171,note_on,1,0,0,,12,,,71,127
30171,note_on,0,0,0,,2,,,50,127
30280,note_off,109,0,0,,12,,,71,127
30281,note_on,1,0,0,,7,,,79,127
30377,note_off,96,0,0,,2,,,50,127
30390,note_off,13,0,0,,7,,,79,127
30391,note_on,1,0,0,,10,,,69,127
30391,note_on,0,0,0,,2,,,38,127
30500,note_off,109,0,0,,10,,,69,127
30501,note_on,1,0,0,,6,,,78,127
30597,note_off,96,0,0,,2,,,38,127
30610,note_off,13,0,0,,6,,,78,127
30611,note_on,1,0,0,,7,,,79,127
30611,note_on,0,0,0,,7,,,43,127
30739,note_on,128,0,0,,6,,,78,127
30753,note_off,14,0,0,,7,,,79,127
30817,note_off,64,0,0,,7,,,43,127
30848,note_off,31,0,0,,6,,,78,127
30849,note_on,1,0,0,,6,,,78,127
30849,note_on,0,0,0,,6,,,66,127
30958,note_off,109,0,0,,6,,,78,127
30959,note_on,1,0,0,,7,,,79,127
31049,note_off,90,0,0,,6,,,66,127
31067,note_off,18,0,0,,7,,,79,127
31068,note_on,1,0,0,,7,,,79,127
31068,note_on,0,0,0,,7,,,67,127
31177,note_off,109,0,0,,7,,,79,127
31178,note_on,1,0,0,,3,,,75,127
31268,note_off,90,0,0,,7,,,67,127
31286,note_off,18,0,0,,3,,,75,127
31287,note_on,1,0,0,,3,,,75,127
31287,note_on,0,0,0,,3,,,63,127
31396,note_off,109,0,0,,3,,,75,127
31397,note_on,1,0,0,,4,,,76,127
31487,note_off,90,0,0,,3,,,63,127
31505,note_off,18,0,0,,4,,,76,127
31506,note_on,1,0,0,,4,,,76,127
31506,note_on,0,0,0,,4,,,64,127
31615,note_off,109,0,0,,4,,,76,127
31616,note_on,1,0,0,,1,,,73,127
31706,note_off,90,0,0,,4,,,64,127
31724,note_off,18,0,0,,1,,,73,127
31725,note_on,1,0,0,,1,,,73,127
31725,note_on,0,0,0,,1,,,61,127
31834,note_off,109,0,0,,1,,,73,127
31835,note_on,1,0,0,,2,,,74,127
31925,note_off,90,0,0,,1,,,61,127
31943,note_off,18,0,0,,2,,,74,127
31944,note_on,1,0,0,,2,,,74,127
31944,note_on,0,0,0,,2,,,62,127
32053,note_off,109,0,0,,2,,,74,127
32054,note_on,1,0,0,,10,,,69,127
32144,note_off,90,0,0,,2,,,62,127
32162,note_off,18,0,0,,10,,,69,127
32163,note_on,1,0,0,,10,,,69,127
32163,note_on,0,0,0,,10,,,57,127
32272,note_off,109,0,0,,10,,,69,127
32273,note_on,1,0,0,,12,,,71,127
32363,note_off,90,0,0,,10,,,57,127
32381,note_off,18,0,0,,12,,,71,127
32382,note_on,1,0,0,,12,,,71,127
32382,note_on,0,0,0,,12,,,59,127
32491,note_off,109,0,0,,12,,,71,127
32492,note_on,1,0,0,,6,,,66,127
32582,note_off,90,0,0,,12,,,59,127
32600,note_off,18,0,0,,6,,,66,127
32601,note_on,1,0,0,,6,,,66,127
32601,note_on,0,0,0,,6,,,54,127
32710,note_off,109,0,0,,6,,,66,127
32711,note_on,1,0,0,,7,,,67,127
32807,note_off,96,0,0,,6,,,54,127
32820,note_off,13,0,0,,7,,,67,127
32821,note_on,1,0,0,,7,,,67,127
32821,note_on,0,0,0,,7,,,55,127
32930,note_off,109,0,0,,7,,,67,127
32931,note_on,1,0,0,,1,,,61,127
33021,note_off,90,0,0,,7,,,55,127
33039,note_off,18,0,0,,1,,,61,127
33040,note_on,1,0,0,,1,,,61,127
33040,note_on,0,0,0,,1,,,49,127
33149,note_off,109,0,0,,1,,,61,127
33150,note_on,1,0,0,,2,,,62,127
33246,note_off,96,0,0,,1,,,49,127
33259,note_off,13,0,0,,2,,,62,127
33260,note_on,1,0,0,,2,,,62,127
33260,note_on,0,0,0,,2,,,50,127
33369,note_off,109,0,0,,2,,,62,127
33370,note_on,1,0,0,,7,,,67,127
33466,note_off,96,0,0,,2,,,50,127
33479,note_off,13,0,0,,7,,,67,127
33480,note_on,1,0,0,,6,,,66,127
33480,note_on,0,0,0,,0,,,48,127
33589,note_off,109,0,0,,6,,,66,127
33590,note_on,1,0,0,,10,,,69,127
33686,note_off,96,0,0,,0,,,48,127
33699,note_off,13,0,0,,10,,,69,127
33700,note_on,1,0,0,,7,,,67,127
33700,note_on,0,0,0,,12,,,47,127
33809,note_off,109,0,0,,7,,,67,127
33810,note_on,1,0,0,,2,,,74,127
33906,note_off,96,0,0,,12,,,47,127
33919,note_off,13,0,0,,2,,,74,127
33920,note_on,1,0,0,,0,,,72,127
33920,note_on,0,0,0,,0,,,48,127
34029,note_off,109,0,0,,0,,,72,127
34030,note_on,1,0,0,,4,,,76,127
34126,note_off,96,0,0,,0,,,48,127
34139,note_off,13,0,0,,4,,,76,127
34140,note_on,1,0,0,,2,,,74,127
34140,note_on,0,0,0,,2,,,50,127
34249,note_off,109,0,0,,2,,,74,127
34250,note_on,1,0,0,,0,,,72,127
34346,note_off,96,0,0,,2,,,50,127
34359,note_off,13,0,0,,0,,,72,127
34360,note_on,1,0,0,,12,,,71,127
34360,note_on,0,0,0,,2,,,38,127
34469,note_off,109,0,0,,12,,,71,127
34475,note_on,6,0,0,,10,,,69,127
34566,note_off,91,0,0,,2,,,38,127
34598,note_off,32,0,0,,10,,,69,127
34598,note_on,0,0,0,,7,,,43,127
34598,note_on,0,0,0,,7,,,79,127
34707,note_off,109,0,0,,7,,,79,127
34708,note_on,1,0,0,,6,,,78,127
34804,note_off,96,0,0,,7,,,43,127
34817,note_off,13,0,0,,6,,,78,127
34818,note_on,1,0,0,,6,,,66,127
34818,note_on,0,0,0,,6,,,78,127
34927,note_off,109,0,0,,6,,,78,127
34928,note_on,1,0,0,,7,,,79,127
35018,note_off,90,0,0,,6,,,66,127
35036,note_off,18,0,0,,7,,,79,127
35037,note_on,1,0,0,,7,,,67,127
35037,note_on,0,0,0,,7,,,79,127
35146,note_off,109,0,0,,7,,,79,127
35147,note_on,1,0,0,,3,,,75,127
35237,note_off,90,0,0,,7,,,67,127
35255,note_off,18,0,0,,3,,,75,127
35256,note_on,1,0,0,,3,,,63,127
35256,note_on,0,0,0,,3,,,75,127
35365,note_off,109,0,0,,3,,,75,127
35366,note_on,1,0,0,,4,,,76,127
35456,note_off,90,0,0,,3,,,63,127
35474,note_off,18,0,0,,4,,,76,127
35475,note_on,1,0,0,,4,,,64,127
35475,note_on,0,0,0,,4,,,76,127
35584,note_off,109,0,0,,4,,,76,127
35585,note_on,1,0,0,,1,,,73,127
35675,note_off,90,0,0,,4,,,64,127
35693,note_off,18,0,0,,1,,,73,127
35694,note_on,1,0,0,,1,,,61,127
35694,note_on,0,0,0,,1,,,73,127
35803,note_off,109,0,0,,1,,,73,127
35804,note_on,1,0,0,,2,,,74,127
35894,note_off,90,0,0,,1,,,61,127
35912,note_off,18,0,0,,2,,,74,127
35913,note_on,1,0,0,,2,,,62,127
35913,note_on,0,0,0,,2,,,74,127
36022,note_off,109,0,0,,2,,,74,127
36023,note_on,1,0,0,,10,,,69,127
36113,note_off,90,0,0,,2,,,62,127
36131,note_off,18,0,0,,10,,,69,127
36132,note_on,1,0,0,,10,,,57,127
36132,note_on,0,0,0,,10,,,69,127
36241,note_off,109,0,0,,10,,,69,127
36242,note_on,1,0,0,,12,,,71,127
36332,note_off,90,0,0,,10,,,57,127
36350,note_off,18,0,0,,12,,,71,127
36351,note_on,1,0,0,,12,,,59,127
36351,note_on,0,0,0,,12,,,71,127
36460,note_off,109,0,0,,12,,,71,127
36461,note_on,1,0,0,,6,,,66,127
36551,note_off,90,0,0,,12,,,59,127
36569,note_off,18,0,0,,6,,,66,127
36570,note_on,1,0,0,,6,,,54,127
36570,note_on,0,0,0,,6,,,66,127
36679,note_off,109,0,0,,6,,,66,127
36680,note_on,1,0,0,,7,,,67,127
36776,note_off,96,0,0,,6,,,54,127
36789,note_off,13,0,0,,7,,,67,127
36790,note_on,1,0,0,,7,,,55,127
36790,note_on,0,0,0,,7,,,67,127
36899,note_off,109,0,0,,7,,,67,127
36900,note_on,1,0,0,,1,,,61,127
36990,note_off,90,0,0,,7,,,55,127
37008,note_off,18,0,0,,1,,,61,127
37009,note_on,1,0,0,,1,,,49,127
37009,note_on,0,0,0,,1,,,61,127
37118,note_off,109,0,0,,1,,,61,127
37119,note_on,1,0,0,,2,,,62,127
37215,note_off,96,0,0,,1,,,49,127
37228,note_off,13,0,0,,2,,,62,127
37229,note_on,1,0,0,,2,,,50,127
37229,note_on,0,0,0,,2,,,62,127
37338,note_off,109,0,0,,2,,,62,127
37339,note_on,1,0,0,,7,,,67,127
37435,note_off,96,0,0,,2,,,50,127
37448,note_off,13,0,0,,7,,,67,127
37449,note_on,1,0,0,,0,,,48,127
37449,note_on,0,0,0,,6,,,66,127
37558,note_off,109,0,0,,6,,,66,127
37559,note_on,1,0,0,,10,,,69,127
37655,note_off,96,0,0,,0,,,48,127
37668,note_off,13,0,0,,10,,,69,127
37669,note_on,1,0,0,,12,,,47,127
37669,note_on,0,0,0,,7,,,67,127
37778,note_off,109,0,0,,7,,,67,127
37779,note_on,1,0,0,,2,,,74,127
37875,note_off,96,0,0,,12,,,47,127
37888,note_off,13,0,0,,2,,,74,127
37889,note_on,1,0,0,,0,,,48,127
37889,note_on,0,0,0,,0,,,72,127
37998,note_off,109,0,0,,0,,,72,127
37999,note_on,1,0,0,,4,,,76,127
38095,note_off,96,0,0,,0,,,48,127
38108,note_off,13,0,0,,4,,,76,127
38109,note_on,1,0,0,,2,,,50,127
38109,note_on,0,0,0,,2,,,74,127
38218,note_off,109,0,0,,2,,,74,127
38219,note_on,1,0,0,,0,,,72,127
38315,note_off,96,0,0,,2,,,50,127
38328,note_off,13,0,0,,0,,,72,127
38329,note_on,1,0,0,,2,,,38,127
38329,note_on,0,0,0,,12,,,71,127
38438,note_off,109,0,0,,12,,,71,127
38439,note_on,1,0,0,,10,,,69,127
38535,note_off,96,0,0,,2,,,38,127
38548,note_off,13,0,0,,10,,,69,127
38549,note_on,1,0,0,,7,,,43,127
38549,note_on,0,0,0,,7,,,67,127
38677,note_on,128,0,0,,7,,,79,127
38755,note_off,78,0,0,,7,,,67,127
38786,note_off,31,0,0,,7,,,79,127
38787,note_on,1,0,0,,2,,,74,127
38896,note_off,109,0,0,,2,,,74,127
38897,note_on,1,0,0,,2,,,74,127
38987,note_off,90,0,0,,7,,,43,127
39005,note_off,18,0,0,,2,,,74,127
39006,note_on,1,0,0,,2,,,74,127
39006,note_on,0,0,0,,12,,,47,127
39115,note_off,109,0,0,,2,,,74,127
39116,note_on,1,0,0,,2,,,74,127
39212,note_off,96,0,0,,12,,,47,127
39225,note_off,13,0,0,,2,,,74,127
39226,note_on,1,0,0,,2,,,74,127
39226,note_on,0,0,0,,0,,,48,127
39335,note_off,109,0,0,,2,,,74,127
39336,note_on,1,0,0,,2,,,74,127
39432,note_off,96,0,0,,0,,,48,127
39445,note_off,13,0,0,,2,,,74,127
39446,note_on,1,0,0,,2,,,74,127
39446,note_on,0,0,0,,2,,,50,127
39555,note_off,109,0,0,,2,,,74,127
39556,note_on,1,0,0,,4,,,76,127
39652,note_off,96,0,0,,2,,,50,127
39665,note_off,13,0,0,,4,,,76,127
39666,note_on,1,0,0,,2,,,74,127
39666,note_on,0,0,0,,2,,,38,127
39775,note_off,109,0,0,,2,,,74,127
39776,note_on,1,0,0,,0,,,72,127
39872,note_off,96,0,0,,2,,,38,127
39885,note_off,13,0,0,,0,,,72,127
39886,note_on,1,0,0,,12,,,71,127
39886,note_on,0,0,0,,7,,,43,127
39995,note_off,109,0,0,,12,,,71,127
40005,note_on,10,0,0,,7,,,79,127
40114,note_off,109,0,0,,7,,,79,127
40115,note_on,1,0,0,,2,,,74,127
40224,note_off,109,0,0,,2,,,74,127
40225,note_on,1,0,0,,2,,,74,127
40324,note_off,99,0,0,,7,,,43,127
40333,note_off,9,0,0,,2,,,74,127
40334,note_on,1,0,0,,2,,,74,127
40334,note_on,0,0,0,,12,,,47,127
40443,note_off,109,0,0,,2,,,74,127
40444,note_on,1,0,0,,4,,,76,127
40540,note_off,96,0,0,,12,,,47,127
40553,note_off,13,0,0,,4,,,76,127
40554,note_on,1,0,0,,2,,,74,127
40554,note_on,0,0,0,,0,,,48,127
40663,note_off,109,0,0,,2,,,74,127
40664,note_on,1,0,0,,0,,,72,127
40760,note_off,96,0,0,,0,,,48,127
40773,note_off,13,0,0,,0,,,72,127
40774,note_on,1,0,0,,12,,,71,127
40774,note_on,0,0,0,,2,,,50,127
40883,note_off,109,0,0,,12,,,71,127
40884,note_on,1,0,0,,10,,,69,127
40980,note_off,96,0,0,,2,,,50,127
40993,note_off,13,0,0,,10,,,69,127
40994,note_on,1,0,0,,7,,,67,127
40994,note_on,0,0,0,,2,,,38,127
41103,note_off,109,0,0,,7,,,67,127
41104,note_on,1,0,0,,6,,,66,127
41200,note_off,96,0,0,,2,,,38,127
41213,note_off,13,0,0,,6,,,66,127
41214,note_on,1,0,0,,7,,,67,127
41214,note_on,0,0,0,,7,,,43,127
41342,note_on,128,0,0,,7,,,79,127
41431,note_off,89,0,0,,7,,,67,127
41450,note_off,19,0,0,,7,,,79,127
41451,note_on,1,0,0,,2,,,74,127
41560,note_off,109,0,0,,2,,,74,127
41561,note_on,1,0,0,,2,,,74,127
41651,note_off,90,0,0,,7,,,43,127
41669,note_off,18,0,0,,2,,,74,127
41670,note_on,1,0,0,,12,,,47,127
41670,note_on,0,0,0,,2,,,74,127
41779,note_off,109,0,0,,2,,,74,127
41780,note_on,1,0,0,,2,,,74,127
41876,note_off,96,0,0,,12,,,47,127
41889,note_off,13,0,0,,2,,,74,127
41890,note_on,1,0,0,,0,,,48,127
41890,note_on,0,0,0,,2,,,74,127
41999,note_off,109,0,0,,2,,,74,127
42000,note_on,1,0,0,,2,,,74,127
42096,note_off,96,0,0,,0,,,48,127
42109,note_off,13,0,0,,2,,,74,127
42110,note_on,1,0,0,,2,,,50,127
42110,note_on,0,0,0,,2,,,74,127
42219,note_off,109,0,0,,2,,,74,127
42220,note_on,1,0,0,,4,,,76,127
42316,note_off,96,0,0,,2,,,50,127
42329,note_off,13,0,0,,4,,,76,127
42330,note_on,1,0,0,,2,,,38,127
42330,note_on,0,0,0,,2,,,74,127
42439,note_off,109,0,0,,2,,,74,127
42440,note_on,1,0,0,,0,,,72,127
42536,note_off,96,0,0,,2,,,38,127
42549,note_off,13,0,0,,0,,,72,127
42550,note_on,1,0,0,,7,,,43,127
42550,note_on,0,0,0,,12,,,71,127
42657,note_off,107,0,0,,12,,,71,127
42668,note_on,11,0,0,,7,,,79,127
42777,note_off,109,0,0,,7,,,79,127
42778,note_on,1,0,0,,2,,,74,127
42887,note_off,109,0,0,,2,,,74,127
42888,note_on,1,0,0,,2,,,74,127
42987,note_off,99,0,0,,7,,,43,127
42996,note_off,9,0,0,,2,,,74,127
42997,note_on,1,0,0,,12,,,47,127
42997,note_on,0,0,0,,2,,,74,127
43106,note_off,109,0,0,,2,,,74,127
43107,note_on,1,0,0,,4,,,76,127
43203,note_off,96,0,0,,12,,,47,127
43216,note_off,13,0,0,,4,,,76,127
43217,note_on,1,0,0,,0,,,48,127
43217,note_on,0,0,0,,2,,,74,127
43326,note_off,109,0,0,,2,,,74,127
43327,note_on,1,0,0,,0,,,72,127
43423,note_off,96,0,0,,0,,,48,127
43436,note_off,13,0,0,,0,,,72,127
43437,note_on,1,0,0,,2,,,50,127
43437,note_on,0,0,0,,12,,,71,127
43546,note_off,109,0,0,,12,,,71,127
43547,note_on,1,0,0,,10,,,69,127
43643,note_off,96,0,0,,2,,,50,127
43656,note_off,13,0,0,,10,,,69,127
43657,note_on,1,0,0,,2,,,38,127
43657,note_on,0,0,0,,7,,,67,127
43766,note_off,109,0,0,,7,,,67,127
43767,note_on,1,0,0,,6,,,66,127
43863,note_off,96,0,0,,2,,,38,127
43876,note_off,13,0,0,,6,,,66,127
43877,note_on,1,0,0,,7,,,43,127
43877,note_on,0,0,0,,10,,,69,127
43932,note_off,55,0,0,,10,,,69,127
43932,note_on,0,0,0,,7,,,67,127
43987,note_off,55,0,0,,7,,,67,127
43987,note_on,0,0,0,,10,,,69,127
44042,note_off,55,0,0,,10,,,69,127
44042,note_on,0,0,0,,7,,,67,127
44481,note_off,439,0,0,,7,,,67,127
44535,note_off,54,0,0,,7,,,43,127
44618,note_on,83,0,0,,7,,,55,127
44618,note_on,0,0,0,,7,,,67,127
44818,note_off,200,0,0,,7,,,67,127
44818,note_off,0,0,0,,7,,,55,127
44837,note_on,19,0,0,,2,,,50,127
44837,note_on,0,0,0,,2,,,62,127
45037,note_off,200,0,0,,2,,,62,127
45043,note_off,6,0,0,,2,,,50,127
45057,note_on,14,0,0,,7,,,55,127
45057,note_on,0,0,0,,7,,,67,127
45257,note_off,200,0,0,,7,,,67,127
45257,note_off,0,0,0,,7,,,55,127
45276,note_on,19,0,0,,11,,,58,127
45276,note_on,0,0,0,,11,,,70,127
45476,note_off,200,0,0,,11,,,70,127
45476,note_off,0,0,0,,11,,,58,127
45495,note_on,19,0,0,,0,,,60,127
45495,note_on,0,0,0,,0,,,72,127
45695,note_off,200,0,0,,0,,,72,127
45695,note_off,0,0,0,,0,,,60,127
45714,note_on,19,0,0,,2,,,62,127
45714,note_on,0,0,0,,2,,,74,127
45914,note_off,200,0,0,,2,,,74,127
45914,note_off,0,0,0,,2,,,62,127
45933,note_on,19,0,0,,11,,,58,127
45933,note_on,0,0,0,,11,,,70,127
45933,note_on,0,0,0,,0,,,72,127
46133,note_off,200,0,0,,0,,,72,127
46133,note_off,0,0,0,,11,,,70,127
46133,note_off,0,0,0,,11,,,58,127
46152,note_on,19,0,0,,10,,,57,127
46152,note_on,0,0,0,,10,,,69,127
46352,note_off,200,0,0,,10,,,69,127
46352,note_off,0,0,0,,10,,,57,127
46371,note_on,19,0,0,,7,,,55,127
46371,note_on,0,0,0,,7,,,79,127
46371,note_on,0,0,0,,11,,,70,127
46571,note_off,200,0,0,,11,,,70,127
46571,note_off,0,0,0,,7,,,79,127
46571,note_off,0,0,0,,7,,,55,127
46590,note_on,19,0,0,,2,,,62,127
46590,note_on,0,0,0,,7,,,79,127
46590,note_on,0,0,0,,11,,,70,127
46807,note_off,217,0,0,,11,,,70,127
46807,note_off,0,0,0,,7,,,79,127
46809,note_on,2,0,0,,6,,,78,127
46809,note_on,0,0,0,,10,,,69,127
47027,note_off,218,0,0,,2,,,62,127
47028,note_on,1,0,0,,2,,,50,127
47234,note_off,206,0,0,,2,,,50,127
47247,note_off,13,0,0,,10,,,69,127
47247,note_off,0,0,0,,6,,,78,127
47266,note_on,19,0,0,,7,,,67,127
47266,note_on,0,0,0,,7,,,55,127
47466,note_off,200,0,0,,7,,,55,127
47466,note_off,0,0,0,,7,,,67,127
47485,note_on,19,0,0,,2,,,62,127
47485,note_on,0,0,0,,2,,,50,127
47685,note_off,200,0,0,,2,,,62,127
47691,note_off,6,0,0,,2,,,50,127
47705,note_on,14,0,0,,7,,,67,127
47705,note_on,0,0,0,,7,,,55,127
47905,note_off,200,0,0,,7,,,55,127
47905,note_off,0,0,0,,7,,,67,127
47924,note_on,19,0,0,,11,,,70,127
47924,note_on,0,0,0,,11,,,58,127
48124,note_off,200,0,0,,11,,,58,127
48124,note_off,0,0,0,,11,,,70,127
48143,note_on,19,0,0,,0,,,72,127
48143,note_on,0,0,0,,0,,,60,127
48343,note_off,200,0,0,,0,,,60,127
48343,note_off,0,0,0,,0,,,72,127
48362,note_on,19,0,0,,2,,,74,127
48362,note_on,0,0,0,,2,,,62,127
48562,note_off,200,0,0,,2,,,62,127
48562,note_off,0,0,0,,2,,,74,127
48581,note_on,19,0,0,,0,,,72,127
48581,note_on,0,0,0,,11,,,70,127
48581,note_on,0,0,0,,11,,,58,127
48781,note_off,200,0,0,,11,,,58,127
48781,note_off,0,0,0,,11,,,70,127
48781,note_off,0,0,0,,0,,,72,127
48800,note_on,19,0,0,,10,,,69,127
48800,note_on,0,0,0,,10,,,57,127
49000,note_off,200,0,0,,10,,,57,127
49000,note_off,0,0,0,,10,,,69,127
49019,note_on,19,0,0,,7,,,79,127
49019,note_on,0,0,0,,11,,,82,127
49019,note_on,0,0,0,,7,,,55,127
49219,note_off,200,0,0,,7,,,55,127
49219,note_off,0,0,0,,11,,,82,127
49219,note_off,0,0,0,,7,,,79,127
49238,note_on,19,0,0,,7,,,79,127
49238,note_on,0,0,0,,11,,,82,127
49238,note_on,0,0,0,,2,,,62,127
49455,note_off,217,0,0,,11,,,82,127
49455,note_off,0,0,0,,7,,,79,127
49462,note_on,7,0,0,,10,,,81,127
49462,note_on,0,0,0,,6,,,78,127
49709,note_on,247,0,0,,2,,,50,127
49895,note_off,186,0,0,,2,,,62,127
49900,note_off,5,0,0,,6,,,78,127
49900,note_off,0,0,0,,10,,,81,127
49915,note_off,15,0,0,,2,,,50,127
49979,note_on,64,0,0,,3,,,75,127
49979,note_on,0,0,0,,7,,,67,127
49979,note_on,0,0,0,,0,,,60,127
50088,note_off,109,0,0,,7,,,67,127
50089,note_on,1,0,0,,6,,,66,127
50179,note_off,90,0,0,,0,,,60,127
50197,note_off,18,0,0,,6,,,66,127
50198,note_on,1,0,0,,6,,,66,127
50198,note_on,0,0,0,,0,,,60,127
50307,note_off,109,0,0,,6,,,66,127
50308,note_on,1,0,0,,7,,,67,127
50398,note_off,90,0,0,,0,,,60,127
50416,note_off,18,0,0,,7,,,67,127
50417,note_on,1,0,0,,7,,,67,127
50417,note_on,0,0,0,,0,,,60,127
50526,note_off,109,0,0,,7,,,67,127
50527,note_on,1,0,0,,6,,,66,127
50617,note_off,90,0,0,,0,,,60,127
50635,note_off,18,0,0,,6,,,66,127
50635,note_off,0,0,0,,3,,,75,127
50636,note_on,1,0,0,,2,,,74,127
50636,note_on,0,0,0,,6,,,66,127
50636,note_on,0,0,0,,2,,,62,127
50745,note_off,109,0,0,,6,,,66,127
50746,note_on,1,0,0,,7,,,67,127
50836,note_off,90,0,0,,2,,,62,127
50854,note_off,18,0,0,,7,,,67,127
50855,note_on,1,0,0,,7,,,67,127
50855,note_on,0,0,0,,2,,,62,127
50964,note_off,109,0,0,,7,,,67,127
50965,note_on,1,0,0,,6,,,66,127
51055,note_off,90,0,0,,2,,,62,127
51073,note_off,18,0,0,,6,,,66,127
51074,note_on,1,0,0,,6,,,66,127
51074,note_on,0,0,0,,2,,,62,127
51183,note_off,109,0,0,,6,,,66,127
51184,note_on,1,0,0,,7,,,67,127
51283,note_off,99,0,0,,2,,,74,127
51289,note_off,6,0,0,,7,,,67,127
51290,note_off,1,0,0,,2,,,62,127
51303,note_on,13,0,0,,3,,,75,127
51303,note_on,0,0,0,,0,,,60,127
51303,note_on,0,0,0,,7,,,67,127
51412,note_off,109,0,0,,7,,,67,127
51413,note_on,1,0,0,,6,,,66,127
51503,note_off,90,0,0,,0,,,60,127
51521,note_off,18,0,0,,6,,,66,127
51522,note_on,1,0,0,,6,,,66,127
51522,note_on,0,0,0,,0,,,60,127
51631,note_off,109,0,0,,6,,,66,127
51632,note_on,1,0,0,,7,,,67,127
51722,note_off,90,0,0,,0,,,60,127
51740,note_off,18,0,0,,7,,,67,127
51741,note_on,1,0,0,,7,,,67,127
51741,note_on,0,0,0,,0,,,60,127
51850,note_off,109,0,0,,7,,,67,127
51851,note_on,1,0,0,,6,,,66,127
51941,note_off,90,0,0,,0,,,60,127
51959,note_off,18,0,0,,6,,,66,127
51959,note_off,0,0,0,,3,,,75,127
51960,note_on,1,0,0,,2,,,74,127
51960,note_on,0,0,0,,6,,,66,127
51960,note_on,0,0,0,,2,,,62,127
52069,note_off,109,0,0,,6,,,66,127
52070,note_on,1,0,0,,7,,,67,127
52160,note_off,90,0,0,,2,,,62,127
52178,note_off,18,0,0,,7,,,67,127
52179,note_on,1,0,0,,7,,,67,127
52179,note_on,0,0,0,,2,,,62,127
52288,note_off,109,0,0,,7,,,67,127
52289,note_on,1,0,0,,6,,,66,127
52379,note_off,90,0,0,,2,,,62,127
52397,note_off,18,0,0,,6,,,66,127
52398,note_on,1,0,0,,6,,,66,127
52398,note_on,0,0,0,,2,,,62,127
52507,note_off,109,0,0,,6,,,66,127
52508,note_on,1,0,0,,7,,,67,127
52631,note_off,123,0,0,,7,,,67,127
52633,note_off,2,0,0,,2,,,62,127
52635,note_on,2,0,0,,2,,,62,127
52635,note_on,0,0,0,,7,,,55,127
52635,note_on,0,0,0,,7,,,67,127
52635,note_on,0,0,0,,5,,,77,127
52661,note_off,26,0,0,,2,,,74,127
52743,note_off,82,0,0,,5,,,77,127
52744,note_on,1,0,0,,3,,,75,127
52834,note_off,90,0,0,,7,,,55,127
52852,note_off,18,0,0,,3,,,75,127
52853,note_on,1,0,0,,10,,,57,127
52853,note_on,0,0,0,,3,,,75,127
52962,note_off,109,0,0,,3,,,75,127
52963,note_on,1,0,0,,2,,,74,127
53053,note_off,90,0,0,,10,,,57,127
53071,note_off,18,0,0,,2,,,74,127
53072,note_on,1,0,0,,12,,,59,127
53072,note_on,0,0,0,,2,,,74,127
53181,note_off,109,0,0,,2,,,74,127
53182,note_on,1,0,0,,2,,,74,127
53272,note_off,90,0,0,,12,,,59,127
53290,note_off,18,0,0,,2,,,74,127
53290,note_off,0,0,0,,7,,,67,127
53290,note_off,0,0,0,,2,,,62,127
53291,note_on,1,0,0,,0,,,60,127
53291,note_on,0,0,0,,7,,,67,127
53291,note_on,0,0,0,,5,,,77,127
53400,note_off,109,0,0,,5,,,77,127
53401,note_on,1,0,0,,3,,,75,127
53491,note_off,90,0,0,,0,,,60,127
53509,note_off,18,0,0,,3,,,75,127
53510,note_on,1,0,0,,2,,,62,127
53510,note_on,0,0,0,,3,,,75,127
53619,note_off,109,0,0,,3,,,75,127
53620,note_on,1,0,0,,2,,,74,127
53710,note_off,90,0,0,,2,,,62,127
53728,note_off,18,0,0,,2,,,74,127
53729,note_off,1,0,0,,7,,,67,127
53729,note_on,0,0,0,,3,,,63,127
53729,note_on,0,0,0,,2,,,74,127
53838,note_off,109,0,0,,2,,,74,127
53839,note_on,1,0,0,,0,,,72,127
53929,note_off,90,0,0,,3,,,63,127
53947,note_off,18,0,0,,0,,,72,127
53948,note_on,1,0,0,,7,,,55,127
53948,note_on,0,0,0,,2,,,62,127
53948,note_on,0,0,0,,7,,,67,127
53948,note_on,0,0,0,,5,,,77,127
54057,note_off,109,0,0,,5,,,77,127
54058,note_on,1,0,0,,3,,,75,127
54148,note_off,90,0,0,,7,,,55,127
54166,note_off,18,0,0,,3,,,75,127
54167,note_on,1,0,0,,10,,,57,127
54167,note_on,0,0,0,,3,,,75,127
54276,note_off,109,0,0,,3,,,75,127
54277,note_on,1,0,0,,2,,,74,127
54367,note_off,90,0,0,,10,,,57,127
54385,note_off,18,0,0,,2,,,74,127
54386,note_on,1,0,0,,12,,,59,127
54386,note_on,0,0,0,,2,,,74,127
54495,note_off,109,0,0,,2,,,74,127
54496,note_on,1,0,0,,2,,,74,127
54586,note_off,90,0,0,,12,,,59,127
54604,note_off,18,0,0,,2,,,74,127
54604,note_off,0,0,0,,7,,,67,127
54604,note_off,0,0,0,,2,,,62,127
54605,note_on,1,0,0,,7,,,67,127
54605,note_on,0,0,0,,0,,,60,127
54605,note_on,0,0,0,,5,,,77,127
54714,note_off,109,0,0,,5,,,77,127
54715,note_on,1,0,0,,3,,,75,127
54805,note_off,90,0,0,,0,,,60,127
54823,note_off,18,0,0,,3,,,75,127
54824,note_on,1,0,0,,2,,,62,127
54824,note_on,0,0,0,,3,,,75,127
54933,note_off,109,0,0,,3,,,75,127
54934,note_on,1,0,0,,2,,,74,127
55024,note_off,90,0,0,,2,,,62,127
55042,note_off,18,0,0,,2,,,74,127
55043,note_off,1,0,0,,7,,,67,127
55043,note_on,0,0,0,,3,,,63,127
55043,note_on,0,0,0,,2,,,74,127
55152,note_off,109,0,0,,2,,,74,127
55153,note_on,1,0,0,,0,,,72,127
55243,note_off,90,0,0,,3,,,63,127
55261,note_off,18,0,0,,0,,,72,127
55271,note_on,10,0,0,,10,,,69,127
55271,note_on,0,0,0,,5,,,77,127
55271,note_on,0,0,0,,2,,,62,127
55271,note_on,0,0,0,,5,,,65,127
55380,note_off,109,0,0,,10,,,69,127
55381,note_on,1,0,0,,8,,,68,127
55471,note_off,90,0,0,,5,,,65,127
55471,note_off,0,0,0,,2,,,62,127
55489,note_off,18,0,0,,8,,,68,127
55490,note_on,1,0,0,,8,,,68,127
55490,note_on,0,0,0,,2,,,62,127
55490,note_on,0,0,0,,5,,,65,127
55599,note_off,109,0,0,,8,,,68,127
55600,note_on,1,0,0,,10,,,69,127
55690,note_off,90,0,0,,5,,,65,127
55690,note_off,0,0,0,,2,,,62,127
55708,note_off,18,0,0,,10,,,69,127
55709,note_on,1,0,0,,10,,,69,127
55709,note_on,0,0,0,,2,,,62,127
55709,note_on,0,0,0,,5,,,65,127
55818,note_off,109,0,0,,10,,,69,127
55819,note_on,1,0,0,,8,,,68,127
55909,note_off,90,0,0,,5,,,65,127
55909,note_off,0,0,0,,2,,,62,127
55927,note_off,18,0,0,,8,,,68,127
55927,note_off,0,0,0,,5,,,77,127
55928,note_on,1,0,0,,8,,,68,127
55928,note_on,0,0,0,,4,,,76,127
55928,note_on,0,0,0,,1,,,61,127
55928,note_on,0,0,0,,4,,,64,127
56037,note_off,109,0,0,,8,,,68,127
56038,note_on,1,0,0,,10,,,69,127
56128,note_off,90,0,0,,4,,,64,127
56128,note_off,0,0,0,,1,,,61,127
56146,note_off,18,0,0,,10,,,69,127
56147,note_on,1,0,0,,10,,,69,127
56147,note_on,0,0,0,,1,,,61,127
56147,note_on,0,0,0,,4,,,64,127
56256,note_off,109,0,0,,10,,,69,127
56257,note_on,1,0,0,,8,,,68,127
56347,note_off,90,0,0,,4,,,64,127
56347,note_off,0,0,0,,1,,,61,127
56365,note_off,18,0,0,,8,,,68,127
56366,note_on,1,0,0,,8,,,68,127
56366,note_on,0,0,0,,1,,,61,127
56366,note_on,0,0,0,,4,,,64,127
56475,note_off,109,0,0,,8,,,68,127
56476,note_on,1,0,0,,10,,,69,127
56566,note_off,90,0,0,,4,,,64,127
56566,note_off,0,0,0,,1,,,61,127
56584,note_off,18,0,0,,10,,,69,127
56584,note_off,0,0,0,,4,,,76,127
56585,note_on,1,0,0,,10,,,69,127
56585,note_on,0,0,0,,5,,,77,127
56585,note_on,0,0,0,,2,,,62,127
56585,note_on,0,0,0,,5,,,65,127
56694,note_off,109,0,0,,10,,,69,127
56695,note_on,1,0,0,,8,,,68,127
56785,note_off,90,0,0,,5,,,65,127
56785,note_off,0,0,0,,2,,,62,127
56803,note_off,18,0,0,,8,,,68,127
56804,note_on,1,0,0,,8,,,68,127
56804,note_on,0,0,0,,2,,,62,127
56804,note_on,0,0,0,,5,,,65,127
56913,note_off,109,0,0,,8,,,68,127
56914,note_on,1,0,0,,10,,,69,127
57004,note_off,90,0,0,,5,,,65,127
57004,note_off,0,0,0,,2,,,62,127
57022,note_off,18,0,0,,10,,,69,127
57023,note_on,1,0,0,,10,,,69,127
57023,note_on,0,0,0,,2,,,62,127
57023,note_on,0,0,0,,5,,,65,127
57132,note_off,109,0,0,,10,,,69,127
57133,note_on,1,0,0,,8,,,68,127
57223,note_off,90,0,0,,5,,,65,127
57223,note_off,0,0,0,,2,,,62,127
57241,note_off,18,0,0,,8,,,68,127
57241,note_off,0,0,0,,5,,,77,127
57242,note_on,1,0,0,,4,,,76,127
57242,note_on,0,0,0,,8,,,68,127
57242,note_on,0,0,0,,1,,,61,127
57242,note_on,0,0,0,,4,,,64,127
57351,note_off,109,0,0,,8,,,68,127
57352,note_on,1,0,0,,10,,,69,127
57442,note_off,90,0,0,,4,,,64,127
57442,note_off,0,0,0,,1,,,61,127
57460,note_off,18,0,0,,10,,,69,127
57461,note_on,1,0,0,,10,,,69,127
57461,note_on,0,0,0,,1,,,61,127
57461,note_on,0,0,0,,4,,,64,127
57570,note_off,109,0,0,,10,,,69,127
57571,note_on,1,0,0,,8,,,68,127
57661,note_off,90,0,0,,4,,,64,127
57661,note_off,0,0,0,,1,,,61,127
57679,note_off,18,0,0,,8,,,68,127
57680,note_on,1,0,0,,8,,,68,127
57680,note_on,0,0,0,,4,,,64,127
57680,note_on,0,0,0,,1,,,61,127
57789,note_off,109,0,0,,8,,,68,127
57790,note_on,1,0,0,,10,,,69,127
57880,note_off,90,0,0,,1,,,61,127
57880,note_off,0,0,0,,4,,,64,127
57898,note_off,18,0,0,,10,,,69,127
57898,note_off,0,0,0,,4,,,76,127
57917,note_on,19,0,0,,10,,,57,127
57917,note_on,0,0,0,,10,,,69,127
57917,note_on,0,0,0,,7,,,79,127
58026,note_off,109,0,0,,7,,,79,127
58027,note_on,1,0,0,,5,,,77,127
58117,note_off,90,0,0,,10,,,57,127
58135,note_off,18,0,0,,5,,,77,127
58136,note_on,1,0,0,,12,,,59,127
58136,note_on,0,0,0,,5,,,77,127
58245,note_off,109,0,0,,5,,,77,127
58246,note_on,1,0,0,,4,,,76,127
58336,note_off,90,0,0,,12,,,59,127
58354,note_off,18,0,0,,4,,,76,127
58355,note_on,1,0,0,,1,,,61,127
58355,note_on,0,0,0,,4,,,76,127
58464,note_off,109,0,0,,4,,,76,127
58465,note_on,1,0,0,,4,,,76,127
58555,note_off,90,0,0,,1,,,61,127
58573,note_off,18,0,0,,4,,,76,127
58573,note_off,0,0,0,,10,,,69,127
58574,note_on,1,0,0,,2,,,62,127
58574,note_on,0,0,0,,10,,,69,127
58574,note_on,0,0,0,,7,,,79,127
58683,note_off,109,0,0,,7,,,79,127
58684,note_on,1,0,0,,5,,,77,127
58774,note_off,90,0,0,,2,,,62,127
58792,note_off,18,0,0,,5,,,77,127
58793,note_on,1,0,0,,4,,,64,127
58793,note_on,0,0,0,,5,,,77,127
58902,note_off,109,0,0,,5,,,77,127
58903,note_on,1,0,0,,4,,,76,127
58993,note_off,90,0,0,,4,,,64,127
59011,note_off,18,0,0,,4,,,76,127
59012,note_off,1,0,0,,10,,,69,127
59012,note_on,0,0,0,,5,,,65,127
59012,note_on,0,0,0,,4,,,76,127
59121,note_off,109,0,0,,4,,,76,127
59122,note_on,1,0,0,,2,,,74,127
59212,note_off,90,0,0,,5,,,65,127
59230,note_off,18,0,0,,2,,,74,127
59231,note_on,1,0,0,,10,,,57,127
59231,note_on,0,0,0,,10,,,69,127
59231,note_on,0,0,0,,7,,,79,127
59340,note_off,109,0,0,,7,,,79,127
59341,note_on,1,0,0,,5,,,77,127
59431,note_off,90,0,0,,10,,,57,127
59449,note_off,18,0,0,,5,,,77,127
59450,note_on,1,0,0,,12,,,59,127
59450,note_on,0,0,0,,5,,,77,127
59559,note_off,109,0,0,,5,,,77,127
59560,note_on,1,0,0,,4,,,76,127
59650,note_off,90,0,0,,12,,,59,127
59668,note_off,18,0,0,,4,,,76,127
59669,note_on,1,0,0,,1,,,61,127
59669,note_on,0,0,0,,4,,,76,127
59778,note_off,109,0,0,,4,,,76,127
59779,note_on,1,0,0,,4,,,76,127
59869,note_off,90,0,0,,1,,,61,127
59887,note_off,18,0,0,,4,,,76,127
59887,note_off,0,0,0,,10,,,69,127
59888,note_on,1,0,0,,2,,,62,127
59888,note_on,0,0,0,,10,,,69,127
59888,note_on,0,0,0,,5,,,77,127
59997,note_off,109,0,0,,5,,,77,127
59998,note_on,1,0,0,,4,,,76,127
60088,note_off,90,0,0,,2,,,62,127
60106,note_off,18,0,0,,4,,,76,127
60107,note_on,1,0,0,,4,,,64,127
60107,note_on,0,0,0,,4,,,76,127
60216,note_off,109,0,0,,4,,,76,127
60217,note_on,1,0,0,,2,,,74,127
60307,note_off,90,0,0,,4,,,64,127
60325,note_off,18,0,0,,2,,,74,127
60326,note_off,1,0,0,,10,,,69,127
60326,note_on,0,0,0,,5,,,65,127
60326,note_on,0,0,0,,2,,,74,127
60435,note_off,109,0,0,,2,,,74,127
60436,note_on,1,0,0,,2,,,74,127
60526,note_off,90,0,0,,5,,,65,127
60544,note_off,18,0,0,,2,,,74,127
60555,note_on,11,0,0,,4,,,52,127
60555,note_on,0,0,0,,4,,,64,127
60555,note_on,0,0,0,,4,,,76,127
60555,note_on,0,0,0,,2,,,86,127
60664,note_off,109,0,0,,2,,,86,127
60665,note_on,1,0,0,,0,,,84,127
60761,note_off,96,0,0,,4,,,52,127
60774,note_off,13,0,0,,0,,,84,127
60775,note_on,1,0,0,,6,,,54,127
60775,note_on,0,0,0,,0,,,84,127
60884,note_off,109,0,0,,0,,,84,127
60885,note_on,1,0,0,,12,,,83,127
60981,note_off,96,0,0,,6,,,54,127
60994,note_off,13,0,0,,12,,,83,127
60995,note_on,1,0,0,,8,,,56,127
60995,note_on,0,0,0,,12,,,83,127
61104,note_off,109,0,0,,12,,,83,127
61105,note_on,1,0,0,,12,,,83,127
61195,note_off,90,0,0,,8,,,56,127
61213,note_off,18,0,0,,12,,,83,127
61213,note_off,0,0,0,,4,,,76,127
61213,note_off,0,0,0,,4,,,64,127
61214,note_on,1,0,0,,10,,,57,127
61214,note_on,0,0,0,,4,,,64,127
61214,note_on,0,0,0,,2,,,86,127
61214,note_on,0,0,0,,4,,,76,127
61323,note_off,109,0,0,,2,,,86,127
61324,note_on,1,0,0,,0,,,84,127
61414,note_off,90,0,0,,10,,,57,127
61432,note_off,18,0,0,,0,,,84,127
61433,note_on,1,0,0,,0,,,60,127
61433,note_on,0,0,0,,0,,,84,127
61542,note_off,109,0,0,,0,,,84,127
61543,note_on,1,0,0,,12,,,83,127
61633,note_off,90,0,0,,0,,,60,127
61651,note_off,18,0,0,,12,,,83,127
61651,note_off,0,0,0,,4,,,64,127
61652,note_on,1,0,0,,10,,,57,127
61652,note_on,0,0,0,,12,,,83,127
61761,note_off,109,0,0,,12,,,83,127
61762,note_on,1,0,0,,10,,,81,127
61852,note_off,90,0,0,,10,,,57,127
61870,note_off,18,0,0,,10,,,81,127
61870,note_off,0,0,0,,4,,,76,127
61871,note_on,1,0,0,,4,,,52,127
61871,note_on,0,0,0,,4,,,64,127
61871,note_on,0,0,0,,2,,,86,127
61871,note_on,0,0,0,,4,,,76,127
61980,note_off,109,0,0,,2,,,86,127
61981,note_on,1,0,0,,0,,,84,127
62077,note_off,96,0,0,,4,,,52,127
62090,note_off,13,0,0,,0,,,84,127
62091,note_on,1,0,0,,6,,,54,127
62091,note_on,0,0,0,,0,,,84,127
62200,note_off,109,0,0,,0,,,84,127
62201,note_on,1,0,0,,12,,,83,127
62297,note_off,96,0,0,,6,,,54,127
62310,note_off,13,0,0,,12,,,83,127
62311,note_on,1,0,0,,8,,,56,127
62311,note_on,0,0,0,,12,,,83,127
62420,note_off,109,0,0,,12,,,83,127
62421,note_on,1,0,0,,12,,,83,127
62511,note_off,90,0,0,,8,,,56,127
62529,note_off,18,0,0,,12,,,83,127
62529,note_off,0,0,0,,4,,,76,127
62529,note_off,0,0,0,,4,,,64,127
62530,note_on,1,0,0,,10,,,57,127
62530,note_on,0,0,0,,4,,,64,127
62530,note_on,0,0,0,,4,,,76,127
62530,note_on,0,0,0,,2,,,86,127
62639,note_off,109,0,0,,2,,,86,127
62640,note_on,1,0,0,,0,,,84,127
62730,note_off,90,0,0,,10,,,57,127
62748,note_off,18,0,0,,0,,,84,127
62749,note_on,1,0,0,,0,,,60,127
62749,note_on,0,0,0,,0,,,84,127
62858,note_off,109,0,0,,0,,,84,127
62859,note_on,1,0,0,,12,,,83,127
62949,note_off,90,0,0,,0,,,60,127
62967,note_off,18,0,0,,12,,,83,127
62967,note_off,0,0,0,,4,,,64,127
62968,note_on,1,0,0,,10,,,57,127
62968,note_on,0,0,0,,12,,,83,127
63077,note_off,109,0,0,,12,,,83,127
63078,note_on,1,0,0,,10,,,81,127
63168,note_off,90,0,0,,10,,,57,127
63186,note_off,18,0,0,,4,,,76,127
63196,note_on,10,0,0,,2,,,50,127
63196,note_on,0,0,0,,2,,,62,127
63196,note_on,0,0,0,,0,,,84,127
63196,note_on,0,0,0,,2,,,74,127
63197,note_off,1,0,0,,10,,,81,127
63304,note_off,107,0,0,,0,,,84,127
63305,note_on,1,0,0,,12,,,83,127
63401,note_off,96,0,0,,2,,,50,127
63414,note_off,13,0,0,,12,,,83,127
63415,note_on,1,0,0,,4,,,52,127
63415,note_on,0,0,0,,12,,,83,127
63524,note_off,109,0,0,,12,,,83,127
63525,note_on,1,0,0,,10,,,81,127
63621,note_off,96,0,0,,4,,,52,127
63634,note_off,13,0,0,,10,,,81,127
63635,note_on,1,0,0,,6,,,54,127
63635,note_on,0,0,0,,10,,,81,127
63744,note_off,109,0,0,,10,,,81,127
63745,note_on,1,0,0,,10,,,81,127
63841,note_off,96,0,0,,6,,,54,127
63854,note_off,13,0,0,,10,,,81,127
63854,note_off,0,0,0,,2,,,74,127
63854,note_off,0,0,0,,2,,,62,127
63855,note_on,1,0,0,,7,,,55,127
63855,note_on,0,0,0,,2,,,62,127
63855,note_on,0,0,0,,0,,,84,127
63855,note_on,0,0,0,,2,,,74,127
63964,note_off,109,0,0,,0,,,84,127
63965,note_on,1,0,0,,12,,,83,127
64055,note_off,90,0,0,,7,,,55,127
64073,note_off,18,0,0,,12,,,83,127
64074,note_on,1,0,0,,12,,,59,127
64074,note_on,0,0,0,,12,,,83,127
64183,note_off,109,0,0,,12,,,83,127
64184,note_on,1,0,0,,10,,,81,127
64274,note_off,90,0,0,,12,,,59,127
64292,note_off,18,0,0,,10,,,81,127
64292,note_off,0,0,0,,2,,,74,127
64292,note_off,0,0,0,,2,,,62,127
64293,note_on,1,0,0,,7,,,55,127
64293,note_on,0,0,0,,10,,,81,127
64402,note_off,109,0,0,,10,,,81,127
64403,note_on,1,0,0,,7,,,79,127
64493,note_off,90,0,0,,7,,,55,127
64512,note_on,19,0,0,,2,,,50,127
64512,note_on,0,0,0,,2,,,62,127
64512,note_on,0,0,0,,0,,,84,127
64512,note_on,0,0,0,,2,,,74,127
64533,note_off,21,0,0,,7,,,79,127
64621,note_off,88,0,0,,0,,,84,127
64622,note_on,1,0,0,,12,,,83,127
64718,note_off,96,0,0,,2,,,50,127
64731,note_off,13,0,0,,12,,,83,127
64732,note_on,1,0,0,,4,,,52,127
64732,note_on,0,0,0,,12,,,83,127
64841,note_off,109,0,0,,12,,,83,127
64842,note_on,1,0,0,,10,,,81,127
64938,note_off,96,0,0,,4,,,52,127
64951,note_off,13,0,0,,10,,,81,127
64952,note_on,1,0,0,,6,,,54,127
64952,note_on,0,0,0,,10,,,81,127
65061,note_off,109,0,0,,10,,,81,127
65062,note_on,1,0,0,,10,,,81,127
65158,note_off,96,0,0,,6,,,54,127
65171,note_off,13,0,0,,10,,,81,127
65171,note_off,0,0,0,,2,,,74,127
65171,note_off,0,0,0,,2,,,62,127
65172,note_on,1,0,0,,7,,,55,127
65172,note_on,0,0,0,,2,,,62,127
65172,note_on,0,0,0,,0,,,84,127
65172,note_on,0,0,0,,2,,,74,127
65281,note_off,109,0,0,,0,,,84,127
65282,note_on,1,0,0,,12,,,83,127
65372,note_off,90,0,0,,7,,,55,127
65390,note_off,18,0,0,,12,,,83,127
65391,note_on,1,0,0,,12,,,59,127
65391,note_on,0,0,0,,12,,,83,127
65500,note_off,109,0,0,,12,,,83,127
65501,note_on,1,0,0,,10,,,81,127
65591,note_off,90,0,0,,12,,,59,127
65609,note_off,18,0,0,,10,,,81,127
65609,note_off,0,0,0,,2,,,74,127
65609,note_off,0,0,0,,2,,,62,127
65610,note_on,1,0,0,,7,,,55,127
65610,note_on,0,0,0,,10,,,81,127
65719,note_off,109,0,0,,10,,,81,127
65720,note_on,1,0,0,,7,,,79,127
65810,note_off,90,0,0,,7,,,55,127
65828,note_off,18,0,0,,7,,,79,127
65847,note_on,19,0,0,,2,,,86,127
65847,note_on,0,0,0,,7,,,67,127
65956,note_off,109,0,0,,2,,,86,127
65957,note_on,1,0,0,,0,,,84,127
66066,note_off,109,0,0,,0,,,84,127
66067,note_on,1,0,0,,0,,,84,127
66176,note_off,109,0,0,,0,,,84,127
66177,note_on,1,0,0,,12,,,83,127
66286,note_off,109,0,0,,12,,,83,127
66286,note_off,0,0,0,,7,,,67,127
66287,note_on,1,0,0,,12,,,83,127
66287,note_on,0,0,0,,10,,,69,127
66396,note_off,109,0,0,,12,,,83,127
66397,note_on,1,0,0,,10,,,81,127
66487,note_off,90,0,0,,10,,,69,127
66505,note_off,18,0,0,,10,,,81,127
66506,note_on,1,0,0,,10,,,81,127
66506,note_on,0,0,0,,12,,,71,127
66615,note_off,109,0,0,,10,,,81,127
66616,note_on,1,0,0,,7,,,79,127
66706,note_off,90,0,0,,12,,,71,127
66724,note_off,18,0,0,,7,,,79,127
66725,note_on,1,0,0,,7,,,79,127
66725,note_on,0,0,0,,7,,,67,127
66834,note_off,109,0,0,,7,,,79,127
66835,note_on,1,0,0,,5,,,77,127
66925,note_off,90,0,0,,7,,,67,127
66943,note_off,18,0,0,,5,,,77,127
66944,note_on,1,0,0,,5,,,77,127
66944,note_on,0,0,0,,12,,,71,127
67053,note_off,109,0,0,,5,,,77,127
67054,note_on,1,0,0,,4,,,76,127
67144,note_off,90,0,0,,12,,,71,127
67162,note_off,18,0,0,,4,,,76,127
67163,note_on,1,0,0,,4,,,76,127
67163,note_on,0,0,0,,0,,,72,127
67272,note_off,109,0,0,,4,,,76,127
67273,note_on,1,0,0,,2,,,74,127
67363,note_off,90,0,0,,0,,,72,127
67381,note_off,18,0,0,,2,,,74,127
67382,note_on,1,0,0,,2,,,74,127
67382,note_on,0,0,0,,5,,,65,127
67491,note_off,109,0,0,,2,,,74,127
67492,note_on,1,0,0,,0,,,72,127
67582,note_off,90,0,0,,5,,,65,127
67600,note_off,18,0,0,,0,,,72,127
67601,note_on,1,0,0,,0,,,72,127
67601,note_on,0,0,0,,10,,,69,127
67710,note_off,109,0,0,,0,,,72,127
67711,note_on,1,0,0,,12,,,71,127
67801,note_off,90,0,0,,10,,,69,127
67820,note_on,19,0,0,,7,,,67,127
68020,note_off,200,0,0,,7,,,67,127
68038,note_off,18,0,0,,12,,,71,127
68039,note_on,1,0,0,,2,,,74,127
68039,note_on,0,0,0,,4,,,64,127
68093,note_off,54,0,0,,2,,,74,127
68094,note_on,1,0,0,,0,,,72,127
68148,note_off,54,0,0,,0,,,72,127
68149,note_on,1,0,0,,2,,,74,127
68203,note_off,54,0,0,,2,,,74,127
68204,note_on,1,0,0,,0,,,72,127
68239,note_off,35,0,0,,4,,,64,127
68257,note_off,18,0,0,,0,,,72,127
68258,note_on,1,0,0,,2,,,74,127
68258,note_on,0,0,0,,0,,,60,127
68312,note_off,54,0,0,,2,,,74,127
68313,note_on,1,0,0,,0,,,72,127
68367,note_off,54,0,0,,0,,,72,127
68368,note_on,1,0,0,,12,,,71,127
68422,note_off,54,0,0,,12,,,71,127
68423,note_on,1,0,0,,0,,,72,127
68458,note_off,35,0,0,,0,,,60,127
68476,note_off,18,0,0,,0,,,72,127
68477,note_on,1,0,0,,12,,,71,127
68477,note_on,0,0,0,,7,,,67,127
68477,note_on,0,0,0,,7,,,55,127
68531,note_off,54,0,0,,12,,,71,127
68532,note_on,1,0,0,,0,,,72,127
68586,note_off,54,0,0,,0,,,72,127
68587,note_on,1,0,0,,2,,,74,127
68641,note_off,54,0,0,,2,,,74,127
68642,note_on,1,0,0,,12,,,71,127
68677,note_off,35,0,0,,7,,,55,127
68677,note_off,0,0,0,,7,,,67,127
68695,note_off,18,0,0,,12,,,71,127
68696,note_on,1,0,0,,2,,,74,127
68696,note_on,0,0,0,,4,,,64,127
68696,note_on,0,0,0,,4,,,52,127
68750,note_off,54,0,0,,2,,,74,127
68751,note_on,1,0,0,,0,,,72,127
68805,note_off,54,0,0,,0,,,72,127
68806,note_on,1,0,0,,2,,,74,127
68860,note_off,54,0,0,,2,,,74,127
68861,note_on,1,0,0,,0,,,72,127
68896,note_off,35,0,0,,4,,,64,127
68902,note_off,6,0,0,,4,,,52,127
68915,note_off,13,0,0,,0,,,72,127
68916,note_on,1,0,0,,2,,,74,127
68916,note_on,0,0,0,,0,,,60,127
68916,note_on,0,0,0,,0,,,48,127
68970,note_off,54,0,0,,2,,,74,127
68971,note_on,1,0,0,,0,,,72,127
69025,note_off,54,0,0,,0,,,72,127
69026,note_on,1,0,0,,12,,,71,127
69080,note_off,54,0,0,,12,,,71,127
69081,note_on,1,0,0,,0,,,72,127
69116,note_off,35,0,0,,0,,,60,127
69122,note_off,6,0,0,,0,,,48,127
69135,note_off,13,0,0,,0,,,72,127
69136,note_on,1,0,0,,12,,,71,127
69136,note_on,0,0,0,,7,,,55,127
69136,note_on,0,0,0,,7,,,43,127
69190,note_off,54,0,0,,12,,,71,127
69191,note_on,1,0,0,,0,,,72,127
69245,note_off,54,0,0,,0,,,72,127
69246,note_on,1,0,0,,2,,,74,127
69300,note_off,54,0,0,,2,,,74,127
69301,note_on,1,0,0,,12,,,71,127
69336,note_off,35,0,0,,7,,,55,127
69342,note_off,6,0,0,,7,,,43,127
69355,note_off,13,0,0,,12,,,71,127
69356,note_on,1,0,0,,2,,,74,127
69356,note_on,0,0,0,,4,,,52,127
69356,note_on,0,0,0,,4,,,40,127
69410,note_off,54,0,0,,2,,,74,127
69411,note_on,1,0,0,,0,,,72,127
69465,note_off,54,0,0,,0,,,72,127
69466,note_on,1,0,0,,2,,,74,127
69520,note_off,54,0,0,,2,,,74,127
69521,note_on,1,0,0,,0,,,72,127
69562,note_off,41,0,0,,4,,,40,127
69562,note_off,0,0,0,,4,,,52,127
69575,note_off,13,0,0,,0,,,72,127
69576,note_on,1,0,0,,2,,,74,127
69576,note_on,0,0,0,,0,,,48,127
69576,note_on,0,0,0,,0,,,36,127
69630,note_off,54,0,0,,2,,,74,127
69631,note_on,1,0,0,,0,,,72,127
69685,note_off,54,0,0,,0,,,72,127
69686,note_on,1,0,0,,12,,,71,127
69740,note_off,54,0,0,,12,,,71,127
69741,note_on,1,0,0,,0,,,72,127
69782,note_off,41,0,0,,0,,,36,127
69782,note_off,0,0,0,,0,,,48,127
69795,note_off,13,0,0,,0,,,72,127
69796,note_on,1,0,0,,0,,,72,127
69796,note_on,0,0,0,,7,,,31,127
69796,note_on,0,0,0,,7,,,43,127
70059,note_off,263,0,0,,0,,,72,127
70061,note_on,2,0,0,,2,,,74,127
70562,note_off,501,0,0,,7,,,43,127
70562,note_off,0,0,0,,7,,,31,127
70724,note_off,162,0,0,,2,,,74,127
71140,note_on,416,0,0,,5,,,77,127
71140,note_on,0,0,0,,2,,,86,127
71249,note_off,109,0,0,,5,,,77,127
71250,note_on,1,0,0,,4,,,76,127
71359,note_off,109,0,0,,4,,,76,127
71360,note_on,1,0,0,,2,,,74,127
71360,note_on,0,0,0,,4,,,76,127
71469,note_off,109,0,0,,4,,,76,127
71470,note_on,1,0,0,,5,,,77,127
71560,note_off,90,0,0,,2,,,74,127
71578,note_off,18,0,0,,5,,,77,127
71579,note_on,1,0,0,,12,,,71,127
71579,note_on,0,0,0,,5,,,77,127
71688,note_off,109,0,0,,5,,,77,127
71689,note_on,1,0,0,,4,,,76,127
71779,note_off,90,0,0,,12,,,71,127
71797,note_off,18,0,0,,4,,,76,127
71797,note_off,0,0,0,,2,,,86,127
71798,note_on,1,0,0,,7,,,43,127
71798,note_on,0,0,0,,2,,,86,127
71798,note_on,0,0,0,,5,,,77,127
71907,note_off,109,0,0,,5,,,77,127
71908,note_on,1,0,0,,4,,,76,127
72004,note_off,96,0,0,,7,,,43,127
72017,note_off,13,0,0,,4,,,76,127
72018,note_on,1,0,0,,2,,,74,127
72018,note_on,0,0,0,,4,,,76,127
72127,note_off,109,0,0,,4,,,76,127
72128,note_on,1,0,0,,5,,,77,127
72218,note_off,90,0,0,,2,,,74,127
72236,note_off,18,0,0,,5,,,77,127
72237,note_on,1,0,0,,12,,,71,127
72237,note_on,0,0,0,,5,,,77,127
72346,note_off,109,0,0,,5,,,77,127
72347,note_on,1,0,0,,4,,,76,127
72437,note_off,90,0,0,,12,,,71,127
72455,note_off,18,0,0,,4,,,76,127
72455,note_off,0,0,0,,2,,,86,127
72456,note_on,1,0,0,,10,,,45,127
72456,note_on,0,0,0,,5,,,77,127
72456,note_on,0,0,0,,2,,,86,127
72565,note_off,109,0,0,,5,,,77,127
72566,note_on,1,0,0,,4,,,76,127
72662,note_off,96,0,0,,10,,,45,127
72675,note_off,13,0,0,,4,,,76,127
72676,note_on,1,0,0,,2,,,74,127
72676,note_on,0,0,0,,4,,,76,127
72785,note_off,109,0,0,,4,,,76,127
72786,note_on,1,0,0,,5,,,77,127
72876,note_off,90,0,0,,2,,,74,127
72894,note_off,18,0,0,,5,,,77,127
72895,note_on,1,0,0,,12,,,71,127
72895,note_on,0,0,0,,5,,,77,127
73004,note_off,109,0,0,,5,,,77,127
73005,note_on,1,0,0,,4,,,76,127
73095,note_off,90,0,0,,12,,,71,127
73113,note_off,18,0,0,,4,,,76,127
73113,note_off,0,0,0,,2,,,86,127
73114,note_on,1,0,0,,12,,,47,127
73114,note_on,0,0,0,,5,,,77,127
73114,note_on,0,0,0,,2,,,86,127
73223,note_off,109,0,0,,5,,,77,127
73224,note_on,1,0,0,,4,,,76,127
73320,note_off,96,0,0,,12,,,47,127
73333,note_off,13,0,0,,4,,,76,127
73334,note_on,1,0,0,,2,,,74,127
73334,note_on,0,0,0,,4,,,76,127
73443,note_off,109,0,0,,4,,,76,127
73444,note_on,1,0,0,,5,,,77,127
73534,note_off,90,0,0,,2,,,74,127
73552,note_off,18,0,0,,5,,,77,127
73553,note_on,1,0,0,,12,,,71,127
73553,note_on,0,0,0,,5,,,77,127
73662,note_off,109,0,0,,5,,,77,127
73663,note_on,1,0,0,,4,,,76,127
73753,note_off,90,0,0,,12,,,71,127
73771,note_off,18,0,0,,4,,,76,127
73771,note_off,0,0,0,,2,,,86,127
73772,note_on,1,0,0,,7,,,43,127
73772,note_on,0,0,0,,2,,,86,127
73772,note_on,0,0,0,,5,,,77,127
73881,note_off,109,0,0,,5,,,77,127
73882,note_on,1,0,0,,4,,,76,127
73978,note_off,96,0,0,,7,,,43,127
73991,note_off,13,0,0,,4,,,76,127
73992,note_on,1,0,0,,2,,,74,127
73992,note_on,0,0,0,,4,,,76,127
74101,note_off,109,0,0,,4,,,76,127
74102,note_on,1,0,0,,5,,,77,127
74192,note_off,90,0,0,,2,,,74,127
74210,note_off,18,0,0,,5,,,77,127
74211,note_on,1,0,0,,12,,,71,127
74211,note_on,0,0,0,,5,,,77,127
74320,note_off,109,0,0,,5,,,77,127
74321,note_on,1,0,0,,2,,,74,127
74411,note_off,90,0,0,,12,,,71,127
74429,note_off,18,0,0,,2,,,74,127
74429,note_off,0,0,0,,2,,,86,127
74439,note_on,10,0,0,,0,,,36,127
74439,note_on,0,0,0,,4,,,76,127
74548,note_off,109,0,0,,4,,,76,127
74549,note_on,1,0,0,,2,,,86,127
74645,note_off,96,0,0,,0,,,36,127
74658,note_off,13,0,0,,2,,,86,127
74659,note_on,1,0,0,,2,,,38,127
74659,note_on,0,0,0,,0,,,84,127
74768,note_off,109,0,0,,0,,,84,127
74769,note_on,1,0,0,,12,,,83,127
74865,note_off,96,0,0,,2,,,38,127
74878,note_off,13,0,0,,12,,,83,127
74879,note_on,1,0,0,,4,,,40,127
74879,note_on,0,0,0,,0,,,84,127
74988,note_off,109,0,0,,0,,,84,127
74989,note_on,1,0,0,,7,,,79,127
75085,note_off,96,0,0,,4,,,40,127
75098,note_off,13,0,0,,7,,,79,127
75099,note_on,1,0,0,,5,,,41,127
75099,note_on,0,0,0,,10,,,81,127
75208,note_off,109,0,0,,10,,,81,127
75209,note_on,1,0,0,,5,,,77,127
75305,note_off,96,0,0,,5,,,41,127
75318,note_off,13,0,0,,5,,,77,127
75319,note_on,1,0,0,,7,,,43,127
75319,note_on,0,0,0,,4,,,76,127
75428,note_off,109,0,0,,4,,,76,127
75429,note_on,1,0,0,,0,,,84,127
75525,note_off,96,0,0,,7,,,43,127
75538,note_off,13,0,0,,0,,,84,127
75539,note_on,1,0,0,,7,,,43,127
75539,note_on,0,0,0,,2,,,74,127
75648,note_off,109,0,0,,2,,,74,127
75649,note_on,1,0,0,,12,,,83,127
75745,note_off,96,0,0,,7,,,43,127
75758,note_off,13,0,0,,12,,,83,127
75759,note_on,1,0,0,,0,,,36,127
75759,note_on,0,0,0,,0,,,84,127
75868,note_off,109,0,0,,0,,,84,127
75870,note_on,2,0,0,,12,,,83,127
75979,note_off,109,0,0,,12,,,83,127
75981,note_on,2,0,0,,10,,,81,127
76090,note_off,109,0,0,,10,,,81,127
76092,note_on,2,0,0,,7,,,79,127
76148,note_off,56,0,0,,0,,,36,127
76201,note_off,53,0,0,,7,,,79,127
76203,note_on,2,0,0,,5,,,77,127
76312,note_off,109,0,0,,5,,,77,127
76315,note_on,3,0,0,,4,,,76,127
76435,note_off,120,0,0,,4,,,76,127
76436,note_on,1,0,0,,5,,,77,127
76436,note_on,0,0,0,,2,,,86,127
76545,note_off,109,0,0,,5,,,77,127
76546,note_on,1,0,0,,4,,,76,127
76655,note_off,109,0,0,,4,,,76,127
76656,note_on,1,0,0,,4,,,76,127
76656,note_on,0,0,0,,2,,,74,127
76765,note_off,109,0,0,,4,,,76,127
76766,note_on,1,0,0,,5,,,77,127
76856,note_off,90,0,0,,2,,,74,127
76874,note_off,18,0,0,,5,,,77,127
76875,note_off,1,0,0,,2,,,86,127
76875,note_on,0,0,0,,5,,,77,127
76875,note_on,0,0,0,,12,,,71,127
76984,note_off,109,0,0,,5,,,77,127
76985,note_on,1,0,0,,4,,,76,127
77075,note_off,90,0,0,,12,,,71,127
77093,note_off,18,0,0,,4,,,76,127
77094,note_on,1,0,0,,2,,,86,127
77094,note_on,0,0,0,,5,,,77,127
77094,note_on,0,0,0,,7,,,43,127
77203,note_off,109,0,0,,5,,,77,127
77204,note_on,1,0,0,,4,,,76,127
77300,note_off,96,0,0,,7,,,43,127
77313,note_off,13,0,0,,4,,,76,127
77314,note_on,1,0,0,,4,,,76,127
77314,note_on,0,0,0,,2,,,74,127
77423,note_off,109,0,0,,4,,,76,127
77424,note_on,1,0,0,,5,,,77,127
77514,note_off,90,0,0,,2,,,74,127
77532,note_off,18,0,0,,5,,,77,127
77533,note_off,1,0,0,,2,,,86,127
77533,note_on,0,0,0,,5,,,77,127
77533,note_on,0,0,0,,12,,,71,127
77642,note_off,109,0,0,,5,,,77,127
77643,note_on,1,0,0,,4,,,76,127
77733,note_off,90,0,0,,12,,,71,127
77751,note_off,18,0,0,,4,,,76,127
77752,note_on,1,0,0,,2,,,86,127
77752,note_on,0,0,0,,5,,,77,127
77752,note_on,0,0,0,,10,,,45,127
77861,note_off,109,0,0,,5,,,77,127
77862,note_on,1,0,0,,4,,,76,127
77958,note_off,96,0,0,,10,,,45,127
77971,note_off,13,0,0,,4,,,76,127
77972,note_on,1,0,0,,4,,,76,127
77972,note_on,0,0,0,,2,,,74,127
78081,note_off,109,0,0,,4,,,76,127
78082,note_on,1,0,0,,5,,,77,127
78172,note_off,90,0,0,,2,,,74,127
78190,note_off,18,0,0,,5,,,77,127
78191,note_off,1,0,0,,2,,,86,127
78191,note_on,0,0,0,,5,,,77,127
78191,note_on,0,0,0,,12,,,71,127
78300,note_off,109,0,0,,5,,,77,127
78301,note_on,1,0,0,,4,,,76,127
78391,note_off,90,0,0,,12,,,71,127
78409,note_off,18,0,0,,4,,,76,127
78410,note_on,1,0,0,,5,,,77,127
78410,note_on,0,0,0,,2,,,86,127
78410,note_on,0,0,0,,12,,,47,127
78519,note_off,109,0,0,,5,,,77,127
78520,note_on,1,0,0,,4,,,76,127
78616,note_off,96,0,0,,12,,,47,127
78629,note_off,13,0,0,,4,,,76,127
78630,note_on,1,0,0,,4,,,76,127
78630,note_on,0,0,0,,2,,,74,127
78739,note_off,109,0,0,,4,,,76,127
78740,note_on,1,0,0,,5,,,77,127
78830,note_off,90,0,0,,2,,,74,127
78848,note_off,18,0,0,,5,,,77,127
78849,note_off,1,0,0,,2,,,86,127
78849,note_on,0,0,0,,12,,,71,127
78849,note_on,0,0,0,,5,,,77,127
78958,note_off,109,0,0,,5,,,77,127
78959,note_on,1,0,0,,4,,,76,127
79049,note_off,90,0,0,,12,,,71,127
79067,note_off,18,0,0,,4,,,76,127
79068,note_on,1,0,0,,7,,,43,127
79068,note_on,0,0,0,,5,,,77,127
79068,note_on,0,0,0,,2,,,86,127
79177,note_off,109,0,0,,5,,,77,127
79178,note_on,1,0,0,,4,,,76,127
79274,note_off,96,0,0,,7,,,43,127
79287,note_off,13,0,0,,4,,,76,127
79288,note_on,1,0,0,,2,,,74,127
79288,note_on,0,0,0,,4,,,76,127
79397,note_off,109,0,0,,4,,,76,127
79398,note_on,1,0,0,,5,,,77,127
79488,note_off,90,0,0,,2,,,74,127
79506,note_off,18,0,0,,5,,,77,127
79507,note_off,1,0,0,,2,,,86,127
79507,note_on,0,0,0,,12,,,71,127
79507,note_on,0,0,0,,5,,,77,127
79616,note_off,109,0,0,,5,,,77,127
79617,note_on,1,0,0,,2,,,74,127
79734,note_off,117,0,0,,2,,,74,127
79735,note_on,1,0,0,,4,,,76,127
79735,note_on,0,0,0,,0,,,36,127
79737,note_off,2,0,0,,12,,,71,127
79849,note_on,112,0,0,,2,,,86,127
79872,note_off,23,0,0,,4,,,76,127
79951,note_off,79,0,0,,0,,,36,127
79958,note_off,7,0,0,,2,,,86,127
79959,note_on,1,0,0,,0,,,84,127
79959,note_on,0,0,0,,2,,,38,127
80068,note_off,109,0,0,,0,,,84,127
80069,note_on,1,0,0,,12,,,83,127
80165,note_off,96,0,0,,2,,,38,127
80178,note_off,13,0,0,,12,,,83,127
80179,note_on,1,0,0,,0,,,84,127
80179,note_on,0,0,0,,4,,,40,127
80288,note_off,109,0,0,,0,,,84,127
80289,note_on,1,0,0,,7,,,79,127
80385,note_off,96,0,0,,4,,,40,127
80398,note_off,13,0,0,,7,,,79,127
80399,note_on,1,0,0,,10,,,81,127
80399,note_on,0,0,0,,5,,,41,127
80508,note_off,109,0,0,,10,,,81,127
80509,note_on,1,0,0,,5,,,77,127
80605,note_off,96,0,0,,5,,,41,127
80618,note_off,13,0,0,,5,,,77,127
80619,note_on,1,0,0,,4,,,76,127
80619,note_on,0,0,0,,7,,,43,127
80728,note_off,109,0,0,,4,,,76,127
80729,note_on,1,0,0,,0,,,84,127
80825,note_off,96,0,0,,7,,,43,127
80838,note_off,13,0,0,,0,,,84,127
80839,note_on,1,0,0,,2,,,74,127
80839,note_on,0,0,0,,7,,,43,127
80948,note_off,109,0,0,,2,,,74,127
80957,note_on,9,0,0,,12,,,83,127
81053,note_off,96,0,0,,7,,,43,127
81074,note_off,21,0,0,,12,,,83,127
81077,note_on,3,0,0,,0,,,36,127
81077,note_on,0,0,0,,0,,,84,127
81205,note_on,128,0,0,,12,,,83,127
81207,note_off,2,0,0,,0,,,84,127
81289,note_off,82,0,0,,0,,,36,127
81313,note_off,24,0,0,,12,,,83,127
81314,note_on,1,0,0,,12,,,71,127
81314,note_on,0,0,0,,12,,,83,127
81423,note_off,109,0,0,,12,,,83,127
81424,note_on,1,0,0,,0,,,84,127
81514,note_off,90,0,0,,12,,,71,127
81532,note_off,18,0,0,,0,,,84,127
81533,note_on,1,0,0,,0,,,72,127
81533,note_on,0,0,0,,0,,,84,127
81642,note_off,109,0,0,,0,,,84,127
81643,note_on,1,0,0,,8,,,80,127
81733,note_off,90,0,0,,0,,,72,127
81751,note_off,18,0,0,,8,,,80,127
81752,note_on,1,0,0,,8,,,68,127
81752,note_on,0,0,0,,8,,,80,127
81861,note_off,109,0,0,,8,,,80,127
81862,note_on,1,0,0,,10,,,81,127
81952,note_off,90,0,0,,8,,,68,127
81970,note_off,18,0,0,,10,,,81,127
81971,note_on,1,0,0,,10,,,69,127
81971,note_on,0,0,0,,10,,,81,127
82080,note_off,109,0,0,,10,,,81,127
82081,note_on,1,0,0,,6,,,78,127
82171,note_off,90,0,0,,10,,,69,127
82189,note_off,18,0,0,,6,,,78,127
82190,note_on,1,0,0,,6,,,66,127
82190,note_on,0,0,0,,6,,,78,127
82299,note_off,109,0,0,,6,,,78,127
82300,note_on,1,0,0,,7,,,79,127
82390,note_off,90,0,0,,6,,,66,127
82408,note_off,18,0,0,,7,,,79,127
82409,note_on,1,0,0,,7,,,67,127
82409,note_on,0,0,0,,7,,,79,127
82518,note_off,109,0,0,,7,,,79,127
82519,note_on,1,0,0,,2,,,74,127
82609,note_off,90,0,0,,7,,,67,127
82627,note_off,18,0,0,,2,,,74,127
82628,note_on,1,0,0,,2,,,62,127
82628,note_on,0,0,0,,2,,,74,127
82737,note_off,109,0,0,,2,,,74,127
82738,note_on,1,0,0,,4,,,76,127
82828,note_off,90,0,0,,2,,,62,127
82846,note_off,18,0,0,,4,,,76,127
82847,note_on,1,0,0,,4,,,64,127
82847,note_on,0,0,0,,4,,,76,127
82956,note_off,109,0,0,,4,,,76,127
82957,note_on,1,0,0,,12,,,71,127
83047,note_off,90,0,0,,4,,,64,127
83065,note_off,18,0,0,,12,,,71,127
83066,note_on,1,0,0,,12,,,59,127
83066,note_on,0,0,0,,12,,,71,127
83175,note_off,109,0,0,,12,,,71,127
83176,note_on,1,0,0,,0,,,72,127
83266,note_off,90,0,0,,12,,,59,127
83284,note_off,18,0,0,,0,,,72,127
83285,note_on,1,0,0,,0,,,60,127
83285,note_on,0,0,0,,0,,,72,127
83394,note_off,109,0,0,,0,,,72,127
83395,note_on,1,0,0,,6,,,66,127
83485,note_off,90,0,0,,0,,,60,127
83503,note_off,18,0,0,,6,,,66,127
83504,note_on,1,0,0,,6,,,54,127
83504,note_on,0,0,0,,6,,,66,127
83613,note_off,109,0,0,,6,,,66,127
83614,note_on,1,0,0,,7,,,67,127
83710,note_off,96,0,0,,6,,,54,127
83723,note_off,13,0,0,,7,,,67,127
83724,note_on,1,0,0,,7,,,55,127
83724,note_on,0,0,0,,7,,,67,127
83833,note_off,109,0,0,,7,,,67,127
83834,note_on,1,0,0,,0,,,72,127
83924,note_off,90,0,0,,7,,,55,127
83942,note_off,18,0,0,,0,,,72,127
83943,note_on,1,0,0,,5,,,53,127
83943,note_on,0,0,0,,12,,,71,127
84052,note_off,109,0,0,,12,,,71,127
84053,note_on,1,0,0,,2,,,74,127
84149,note_off,96,0,0,,5,,,53,127
84162,note_off,13,0,0,,2,,,74,127
84163,note_on,1,0,0,,4,,,52,127
84163,note_on,0,0,0,,0,,,72,127
84272,note_off,109,0,0,,0,,,72,127
84273,note_on,1,0,0,,7,,,79,127
84369,note_off,96,0,0,,4,,,52,127
84382,note_off,13,0,0,,7,,,79,127
84383,note_on,1,0,0,,5,,,53,127
84383,note_on,0,0,0,,5,,,77,127
84492,note_off,109,0,0,,5,,,77,127
84493,note_on,1,0,0,,10,,,81,127
84589,note_off,96,0,0,,5,,,53,127
84602,note_off,13,0,0,,10,,,81,127
84603,note_on,1,0,0,,7,,,55,127
84603,note_on,0,0,0,,7,,,79,127
84712,note_off,109,0,0,,7,,,79,127
84713,note_on,1,0,0,,5,,,77,127
84803,note_off,90,0,0,,7,,,55,127
84821,note_off,18,0,0,,5,,,77,127
84822,note_on,1,0,0,,7,,,43,127
84822,note_on,0,0,0,,4,,,76,127
84931,note_off,109,0,0,,4,,,76,127
84932,note_on,1,0,0,,2,,,74,127
85046,note_off,114,0,0,,7,,,43,127
85055,note_off,9,0,0,,2,,,74,127
85055,note_on,0,0,0,,0,,,48,127
85055,note_on,0,0,0,,0,,,84,127
85164,note_off,109,0,0,,0,,,84,127
85165,note_on,1,0,0,,12,,,83,127
85261,note_off,96,0,0,,0,,,48,127
85274,note_off,13,0,0,,12,,,83,127
85275,note_on,1,0,0,,12,,,71,127
85275,note_on,0,0,0,,12,,,83,127
85384,note_off,109,0,0,,12,,,83,127
85385,note_on,1,0,0,,0,,,84,127
85475,note_off,90,0,0,,12,,,71,127
85493,note_off,18,0,0,,0,,,84,127
85494,note_on,1,0,0,,0,,,72,127
85494,note_on,0,0,0,,0,,,84,127
85603,note_off,109,0,0,,0,,,84,127
85604,note_on,1,0,0,,8,,,80,127
85694,note_off,90,0,0,,0,,,72,127
85712,note_off,18,0,0,,8,,,80,127
85713,note_on,1,0,0,,8,,,68,127
85713,note_on,0,0,0,,8,,,80,127
85822,note_off,109,0,0,,8,,,80,127
85823,note_on,1,0,0,,10,,,81,127
85913,note_off,90,0,0,,8,,,68,127
85931,note_off,18,0,0,,10,,,81,127
85932,note_on,1,0,0,,10,,,69,127
85932,note_on,0,0,0,,10,,,81,127
86041,note_off,109,0,0,,10,,,81,127
86042,note_on,1,0,0,,6,,,78,127
86132,note_off,90,0,0,,10,,,69,127
86150,note_off,18,0,0,,6,,,78,127
86151,note_on,1,0,0,,6,,,66,127
86151,note_on,0,0,0,,6,,,78,127
86260,note_off,109,0,0,,6,,,78,127
86261,note_on,1,0,0,,7,,,79,127
86351,note_off,90,0,0,,6,,,66,127
86369,note_off,18,0,0,,7,,,79,127
86370,note_on,1,0,0,,7,,,67,127
86370,note_on,0,0,0,,7,,,79,127
86479,note_off,109,0,0,,7,,,79,127
86480,note_on,1,0,0,,2,,,74,127
86570,note_off,90,0,0,,7,,,67,127
86588,note_off,18,0,0,,2,,,74,127
86589,note_on,1,0,0,,2,,,62,127
86589,note_on,0,0,0,,2,,,74,127
86698,note_off,109,0,0,,2,,,74,127
86699,note_on,1,0,0,,4,,,76,127
86789,note_off,90,0,0,,2,,,62,127
86807,note_off,18,0,0,,4,,,76,127
86808,note_on,1,0,0,,4,,,64,127
86808,note_on,0,0,0,,4,,,76,127
86917,note_off,109,0,0,,4,,,76,127
86918,note_on,1,0,0,,12,,,71,127
87008,note_off,90,0,0,,4,,,64,127
87026,note_off,18,0,0,,12,,,71,127
87027,note_on,1,0,0,,12,,,59,127
87027,note_on,0,0,0,,12,,,71,127
87136,note_off,109,0,0,,12,,,71,127
87137,note_on,1,0,0,,0,,,72,127
87227,note_off,90,0,0,,12,,,59,127
87245,note_off,18,0,0,,0,,,72,127
87246,note_on,1,0,0,,0,,,60,127
87246,note_on,0,0,0,,0,,,72,127
87355,note_off,109,0,0,,0,,,72,127
87356,note_on,1,0,0,,6,,,66,127
87446,note_off,90,0,0,,0,,,60,127
87464,note_off,18,0,0,,6,,,66,127
87465,note_on,1,0,0,,6,,,54,127
87465,note_on,0,0,0,,6,,,66,127
87574,note_off,109,0,0,,6,,,66,127
87575,note_on,1,0,0,,7,,,67,127
87671,note_off,96,0,0,,6,,,54,127
87684,note_off,13,0,0,,7,,,67,127
87685,note_on,1,0,0,,7,,,55,127
87685,note_on,0,0,0,,7,,,67,127
87794,note_off,109,0,0,,7,,,67,127
87795,note_on,1,0,0,,0,,,72,127
87885,note_off,90,0,0,,7,,,55,127
87903,note_off,18,0,0,,0,,,72,127
87904,note_on,1,0,0,,5,,,53,127
87904,note_on,0,0,0,,12,,,71,127
88013,note_off,109,0,0,,12,,,71,127
88014,note_on,1,0,0,,2,,,74,127
88110,note_off,96,0,0,,5,,,53,127
88123,note_off,13,0,0,,2,,,74,127
88124,note_on,1,0,0,,4,,,52,127
88124,note_on,0,0,0,,0,,,72,127
88233,note_off,109,0,0,,0,,,72,127
88234,note_on,1,0,0,,7,,,79,127
88330,note_off,96,0,0,,4,,,52,127
88343,note_off,13,0,0,,7,,,79,127
88344,note_on,1,0,0,,5,,,53,127
88344,note_on,0,0,0,,5,,,77,127
88453,note_off,109,0,0,,5,,,77,127
88454,note_on,1,0,0,,10,,,81,127
88550,note_off,96,0,0,,5,,,53,127
88563,note_off,13,0,0,,10,,,81,127
88564,note_on,1,0,0,,7,,,55,127
88564,note_on,0,0,0,,7,,,79,127
88673,note_off,109,0,0,,7,,,79,127
88674,note_on,1,0,0,,5,,,77,127
88764,note_off,90,0,0,,7,,,55,127
88782,note_off,18,0,0,,5,,,77,127
88783,note_on,1,0,0,,7,,,43,127
88783,note_on,0,0,0,,4,,,76,127
88892,note_off,109,0,0,,4,,,76,127
88893,note_on,1,0,0,,2,,,74,127
88989,note_off,96,0,0,,7,,,43,127
89002,note_off,13,0,0,,2,,,74,127
89003,note_on,1,0,0,,0,,,48,127
89003,note_on,0,0,0,,0,,,72,127
89131,note_on,128,0,0,,0,,,84,127
89220,note_off,89,0,0,,0,,,72,127
89239,note_off,19,0,0,,0,,,84,127
89240,note_on,1,0,0,,7,,,79,127
89349,note_off,109,0,0,,7,,,79,127
89350,note_on,1,0,0,,7,,,79,127
89440,note_off,90,0,0,,0,,,48,127
89458,note_off,18,0,0,,7,,,79,127
89459,note_on,1,0,0,,7,,,79,127
89459,note_on,0,0,0,,4,,,52,127
89568,note_off,109,0,0,,7,,,79,127
89569,note_on,1,0,0,,7,,,79,127
89665,note_off,96,0,0,,4,,,52,127
89678,note_off,13,0,0,,7,,,79,127
89679,note_on,1,0,0,,7,,,79,127
89679,note_on,0,0,0,,5,,,53,127
89788,note_off,109,0,0,,7,,,79,127
89789,note_on,1,0,0,,7,,,79,127
89885,note_off,96,0,0,,5,,,53,127
89898,note_off,13,0,0,,7,,,79,127
89899,note_on,1,0,0,,7,,,79,127
89899,note_on,0,0,0,,7,,,55,127
90008,note_off,109,0,0,,7,,,79,127
90009,note_on,1,0,0,,10,,,81,127
90099,note_off,90,0,0,,7,,,55,127
90117,note_off,18,0,0,,10,,,81,127
90118,note_on,1,0,0,,7,,,79,127
90118,note_on,0,0,0,,7,,,43,127
90227,note_off,109,0,0,,7,,,79,127
90228,note_on,1,0,0,,5,,,77,127
90324,note_off,96,0,0,,7,,,43,127
90337,note_off,13,0,0,,5,,,77,127
90338,note_on,1,0,0,,4,,,76,127
90338,note_on,0,0,0,,0,,,48,127
90447,note_off,109,0,0,,4,,,76,127
90448,note_on,1,0,0,,0,,,84,127
90557,note_off,109,0,0,,0,,,84,127
90558,note_on,1,0,0,,7,,,79,127
90667,note_off,109,0,0,,7,,,79,127
90668,note_on,1,0,0,,7,,,79,127
90777,note_off,109,0,0,,7,,,79,127
90777,note_off,0,0,0,,0,,,48,127
90778,note_on,1,0,0,,7,,,79,127
90778,note_on,0,0,0,,4,,,52,127
90887,note_off,109,0,0,,7,,,79,127
90888,note_on,1,0,0,,10,,,81,127
90984,note_off,96,0,0,,4,,,52,127
90997,note_off,13,0,0,,10,,,81,127
90998,note_on,1,0,0,,7,,,79,127
90998,note_on,0,0,0,,5,,,53,127
91107,note_off,109,0,0,,7,,,79,127
91108,note_on,1,0,0,,5,,,77,127
91204,note_off,96,0,0,,5,,,53,127
91217,note_off,13,0,0,,5,,,77,127
91218,note_on,1,0,0,,4,,,76,127
91218,note_on,0,0,0,,7,,,55,127
91327,note_off,109,0,0,,4,,,76,127
91328,note_on,1,0,0,,2,,,74,127
91418,note_off,90,0,0,,7,,,55,127
91436,note_off,18,0,0,,2,,,74,127
91437,note_on,1,0,0,,0,,,72,127
91437,note_on,0,0,0,,7,,,43,127
91546,note_off,109,0,0,,0,,,72,127
91547,note_on,1,0,0,,12,,,71,127
91643,note_off,96,0,0,,7,,,43,127
91656,note_off,13,0,0,,12,,,71,127
91657,note_on,1,0,0,,0,,,72,127
91657,note_on,0,0,0,,0,,,48,127
91778,note_on,121,0,0,,7,,,67,127
91789,note_off,11,0,0,,0,,,72,127
91886,note_off,97,0,0,,7,,,67,127
91887,note_on,1,0,0,,7,,,67,127
91996,note_off,109,0,0,,7,,,67,127
91997,note_on,1,0,0,,7,,,67,127
92094,note_off,97,0,0,,0,,,48,127
92105,note_off,11,0,0,,7,,,67,127
92106,note_on,1,0,0,,7,,,67,127
92106,note_on,0,0,0,,4,,,52,127
92215,note_off,109,0,0,,7,,,67,127
92216,note_on,1,0,0,,7,,,67,127
92312,note_off,96,0,0,,4,,,52,127
92325,note_off,13,0,0,,7,,,67,127
92326,note_on,1,0,0,,7,,,67,127
92326,note_on,0,0,0,,5,,,53,127
92435,note_off,109,0,0,,7,,,67,127
92436,note_on,1,0,0,,7,,,67,127
92532,note_off,96,0,0,,5,,,53,127
92545,note_off,13,0,0,,7,,,67,127
92546,note_on,1,0,0,,7,,,67,127
92546,note_on,0,0,0,,7,,,55,127
92655,note_off,109,0,0,,7,,,67,127
92656,note_on,1,0,0,,10,,,69,127
92746,note_off,90,0,0,,7,,,55,127
92764,note_off,18,0,0,,10,,,69,127
92765,note_on,1,0,0,,7,,,67,127
92765,note_on,0,0,0,,7,,,43,127
92874,note_off,109,0,0,,7,,,67,127
92875,note_on,1,0,0,,5,,,65,127
92971,note_off,96,0,0,,7,,,43,127
92984,note_off,13,0,0,,5,,,65,127
92985,note_on,1,0,0,,4,,,64,127
92985,note_on,0,0,0,,0,,,48,127
93094,note_off,109,0,0,,4,,,64,127
93095,note_on,1,0,0,,0,,,72,127
93191,note_off,96,0,0,,0,,,48,127
93204,note_off,13,0,0,,0,,,72,127
93205,note_on,1,0,0,,7,,,67,127
93205,note_on,0,0,0,,0,,,36,127
93314,note_off,109,0,0,,7,,,67,127
93315,note_on,1,0,0,,7,,,67,127
93411,note_off,96,0,0,,0,,,36,127
93424,note_off,13,0,0,,7,,,67,127
93425,note_on,1,0,0,,7,,,67,127
93425,note_on,0,0,0,,4,,,40,127
93534,note_off,109,0,0,,7,,,67,127
93535,note_on,1,0,0,,10,,,69,127
93631,note_off,96,0,0,,4,,,40,127
93644,note_off,13,0,0,,10,,,69,127
93645,note_on,1,0,0,,7,,,67,127
93645,note_on,0,0,0,,5,,,41,127
93754,note_off,109,0,0,,7,,,67,127
93759,note_on,5,0,0,,5,,,65,127
93852,note_off,93,0,0,,5,,,41,127
93871,note_off,19,0,0,,5,,,65,127
93873,note_on,2,0,0,,7,,,43,127
93873,note_on,0,0,0,,4,,,64,127
93985,note_off,112,0,0,,4,,,64,127
93987,note_on,2,0,0,,2,,,62,127
94086,note_off,99,0,0,,7,,,43,127
94099,note_off,13,0,0,,2,,,62,127
94100,note_on,1,0,0,,7,,,31,127
94100,note_on,0,0,0,,0,,,60,127
94212,note_off,112,0,0,,0,,,60,127
94214,note_on,2,0,0,,12,,,59,127
94313,note_off,99,0,0,,7,,,31,127
94345,note_off,32,0,0,,12,,,59,127
94364,note_on,19,0,0,,0,,,36,127
94364,note_on,0,0,0,,0,,,60,127
96961,note_off,2597,0,0,,0,,,60,127
96961,note_off,0,0,0,,0,,,36,127
99840,end_of_track,2879,1,0,,,,,,
