tick,type,time,meta,track,program,channel,pitch,tempo,note,velocity
0,copyright,0,1,0,,,,,,
0,program_change,0,0,0,6,0,,,,
0,pitchwheel,0,0,0,,0,0,,,
0,program_change,0,0,0,6,1,,,,
0,pitchwheel,0,0,0,,1,-590,,,
0,program_change,0,0,0,6,2,,,,
0,pitchwheel,0,0,0,,2,-272,,,
0,program_change,0,0,0,6,3,,,,
0,pitchwheel,0,0,0,,3,-353,,,
0,program_change,0,0,0,6,4,,,,
0,pitchwheel,0,0,0,,4,-560,,,
0,program_change,0,0,0,6,5,,,,
0,pitchwheel,0,0,0,,5,-80,,,
0,program_change,0,0,0,6,6,,,,
0,pitchwheel,0,0,0,,6,-625,,,
0,program_change,0,0,0,6,7,,,,
0,pitchwheel,0,0,0,,7,-130,,,
0,program_change,0,0,0,6,8,,,,
0,pitchwheel,0,0,0,,8,-512,,,
0,program_change,0,0,0,6,10,,,,
0,pitchwheel,0,0,0,,10,-464,,,
0,program_change,0,0,0,6,11,,,,
0,pitchwheel,0,0,0,,11,-208,,,
0,program_change,0,0,0,6,12,,,,
0,pitchwheel,0,0,0,,12,-553,,,
0,set_tempo,0,1,0,,,,500000,,
72,note_on,72,0,0,,2,,,74,127
143,note_off,71,0,0,,2,,,74,127
144,note_on,1,0,0,,0,,,72,127
215,note_off,71,0,0,,0,,,72,127
216,note_on,1,0,0,,2,,,74,127
287,note_off,71,0,0,,2,,,74,127
288,note_on,1,0,0,,0,,,72,127
359,note_off,71,0,0,,0,,,72,127
360,note_on,1,0,0,,2,,,74,127
431,note_off,71,0,0,,2,,,74,127
432,note_on,1,0,0,,0,,,72,127
503,note_off,71,0,0,,0,,,72,127
504,note_on,1,0,0,,2,,,74,127
575,note_off,71,0,0,,2,,,74,127
576,note_on,1,0,0,,0,,,72,127
647,note_off,71,0,0,,0,,,72,127
648,note_on,1,0,0,,2,,,74,127
719,note_off,71,0,0,,2,,,74,127
720,note_on,1,0,0,,0,,,72,127
791,note_off,71,0,0,,0,,,72,127
792,note_on,1,0,0,,12,,,71,127
863,note_off,71,0,0,,12,,,71,127
864,note_on,1,0,0,,0,,,72,127
935,note_off,71,0,0,,0,,,72,127
936,note_on,1,0,0,,2,,,74,127
1007,note_off,71,0,0,,2,,,74,127
1008,note_on,1,0,0,,4,,,76,127
1079,note_off,71,0,0,,4,,,76,127
1080,note_on,1,0,0,,5,,,77,127
1151,note_off,71,0,0,,5,,,77,127
1152,note_on,1,0,0,,7,,,79,127
1439,note_off,287,0,0,,7,,,79,127
1440,note_on,1,0,0,,7,,,79,127
1727,note_off,287,0,0,,7,,,79,127
1728,note_on,1,0,0,,7,,,79,127
2015,note_off,287,0,0,,7,,,79,127
2016,note_on,1,0,0,,7,,,79,127
2278,note_off,262,0,0,,7,,,79,127
2304,note_on,26,0,0,,5,,,77,127
2375,note_off,71,0,0,,5,,,77,127
2376,note_on,1,0,0,,4,,,76,127
2447,note_off,71,0,0,,4,,,76,127
2448,note_on,1,0,0,,5,,,77,127
2519,note_off,71,0,0,,5,,,77,127
2520,note_on,1,0,0,,4,,,76,127
2591,note_off,71,0,0,,4,,,76,127
2592,note_on,1,0,0,,5,,,77,127
2663,note_off,71,0,0,,5,,,77,127
2664,note_on,1,0,0,,4,,,76,127
2735,note_off,71,0,0,,4,,,76,127
2736,note_on,1,0,0,,5,,,77,127
2807,note_off,71,0,0,,5,,,77,127
2808,note_on,1,0,0,,4,,,76,127
2879,note_off,71,0,0,,4,,,76,127
2880,note_on,1,0,0,,5,,,77,127
2951,note_off,71,0,0,,5,,,77,127
2952,note_on,1,0,0,,4,,,76,127
3023,note_off,71,0,0,,4,,,76,127
3024,note_on,1,0,0,,2,,,74,127
3095,note_off,71,0,0,,2,,,74,127
3096,note_on,1,0,0,,4,,,76,127
3167,note_off,71,0,0,,4,,,76,127
3168,note_on,1,0,0,,5,,,77,127
3239,note_off,71,0,0,,5,,,77,127
3240,note_on,1,0,0,,7,,,79,127
3311,note_off,71,0,0,,7,,,79,127
3312,note_on,1,0,0,,10,,,81,127
3383,note_off,71,0,0,,10,,,81,127
3384,note_on,1,0,0,,12,,,83,127
3455,note_off,71,0,0,,12,,,83,127
3456,note_on,1,0,0,,0,,,84,127
3743,note_off,287,0,0,,0,,,84,127
3744,note_on,1,0,0,,0,,,84,127
4031,note_off,287,0,0,,0,,,84,127
4032,note_on,1,0,0,,0,,,84,127
4319,note_off,287,0,0,,0,,,84,127
4320,note_on,1,0,0,,0,,,84,127
4568,note_off,248,0,0,,0,,,84,127
4608,note_on,40,0,0,,12,,,83,127
4752,note_on,144,0,0,,2,,,74,127
4759,note_off,7,0,0,,12,,,83,127
4895,note_off,136,0,0,,2,,,74,127
4896,note_on,1,0,0,,0,,,72,127
5039,note_off,143,0,0,,0,,,72,127
5040,note_on,1,0,0,,10,,,81,127
5183,note_off,143,0,0,,10,,,81,127
5184,note_on,1,0,0,,7,,,79,127
5328,note_on,144,0,0,,12,,,71,127
5335,note_off,7,0,0,,7,,,79,127
5471,note_off,136,0,0,,12,,,71,127
5472,note_on,1,0,0,,10,,,69,127
5615,note_off,143,0,0,,10,,,69,127
5616,note_on,1,0,0,,5,,,77,127
5759,note_off,143,0,0,,5,,,77,127
5760,note_on,1,0,0,,4,,,76,127
5904,note_on,144,0,0,,7,,,67,127
5911,note_off,7,0,0,,4,,,76,127
6047,note_off,136,0,0,,7,,,67,127
6048,note_on,1,0,0,,5,,,65,127
6191,note_off,143,0,0,,5,,,65,127
6192,note_on,1,0,0,,2,,,74,127
6335,note_off,143,0,0,,2,,,74,127
6336,note_on,1,0,0,,0,,,72,127
6480,note_on,144,0,0,,4,,,64,127
6487,note_off,7,0,0,,0,,,72,127
6623,note_off,136,0,0,,4,,,64,127
6624,note_on,1,0,0,,2,,,62,127
6768,note_on,144,0,0,,12,,,71,127
6775,note_off,7,0,0,,2,,,62,127
6911,note_off,136,0,0,,12,,,71,127
6912,note_on,1,0,0,,2,,,62,127
6912,note_on,0,0,0,,0,,,72,127
6988,note_off,76,0,0,,2,,,62,127
6988,note_on,0,0,0,,0,,,60,127
7064,note_off,76,0,0,,0,,,60,127
7065,note_on,1,0,0,,2,,,62,127
7141,note_off,76,0,0,,2,,,62,127
7142,note_on,1,0,0,,0,,,60,127
7218,note_off,76,0,0,,0,,,60,127
7218,note_on,0,0,0,,2,,,62,127
7294,note_off,76,0,0,,2,,,62,127
7295,note_on,1,0,0,,0,,,60,127
7371,note_off,76,0,0,,0,,,60,127
7372,note_on,1,0,0,,2,,,62,127
7448,note_off,76,0,0,,2,,,62,127
7449,note_on,1,0,0,,0,,,60,127
7525,note_off,76,0,0,,0,,,60,127
7525,note_on,0,0,0,,2,,,62,127
7530,note_off,5,0,0,,0,,,72,127
7601,note_off,71,0,0,,2,,,62,127
7602,note_on,1,0,0,,0,,,60,127
7678,note_off,76,0,0,,0,,,60,127
7679,note_on,1,0,0,,12,,,59,127
7755,note_off,76,0,0,,12,,,59,127
7755,note_on,0,0,0,,0,,,60,127
7831,note_off,76,0,0,,0,,,60,127
7832,note_on,1,0,0,,2,,,62,127
7908,note_off,76,0,0,,2,,,62,127
7909,note_on,1,0,0,,4,,,64,127
7985,note_off,76,0,0,,4,,,64,127
7986,note_on,1,0,0,,5,,,65,127
8060,note_on,74,0,0,,7,,,67,127
8063,note_off,3,0,0,,5,,,65,127
8347,note_off,284,0,0,,7,,,67,127
8348,note_on,1,0,0,,7,,,67,127
8635,note_off,287,0,0,,7,,,67,127
8636,note_on,1,0,0,,7,,,67,127
8923,note_off,287,0,0,,7,,,67,127
8924,note_on,1,0,0,,7,,,67,127
9194,note_off,270,0,0,,7,,,67,127
9212,note_on,18,0,0,,5,,,65,127
9355,note_off,143,0,0,,5,,,65,127
9356,note_on,1,0,0,,10,,,57,127
9499,note_off,143,0,0,,10,,,57,127
9500,note_on,1,0,0,,7,,,55,127
9643,note_off,143,0,0,,7,,,55,127
9644,note_on,1,0,0,,4,,,64,127
9787,note_off,143,0,0,,4,,,64,127
9788,note_on,1,0,0,,2,,,62,127
9931,note_off,143,0,0,,2,,,62,127
9932,note_on,1,0,0,,5,,,53,127
10075,note_off,143,0,0,,5,,,53,127
10076,note_on,1,0,0,,4,,,52,127
10219,note_off,143,0,0,,4,,,52,127
10220,note_on,1,0,0,,0,,,60,127
10363,note_off,143,0,0,,0,,,60,127
10364,note_on,1,0,0,,12,,,59,127
10507,note_off,143,0,0,,12,,,59,127
10508,note_on,1,0,0,,2,,,50,127
10651,note_off,143,0,0,,2,,,50,127
10652,note_on,1,0,0,,0,,,48,127
10795,note_off,143,0,0,,0,,,48,127
10796,note_on,1,0,0,,10,,,57,127
10939,note_off,143,0,0,,10,,,57,127
10940,note_on,1,0,0,,7,,,55,127
11083,note_off,143,0,0,,7,,,55,127
11084,note_on,1,0,0,,12,,,47,127
11227,note_off,143,0,0,,12,,,47,127
11228,note_on,1,0,0,,10,,,45,127
11371,note_off,143,0,0,,10,,,45,127
11372,note_on,1,0,0,,5,,,53,127
11515,note_off,143,0,0,,5,,,53,127
11516,note_on,1,0,0,,4,,,52,127
11659,note_off,143,0,0,,4,,,52,127
11660,note_on,1,0,0,,7,,,43,127
11803,note_off,143,0,0,,7,,,43,127
11804,note_on,1,0,0,,5,,,41,127
11947,note_off,143,0,0,,5,,,41,127
11948,note_on,1,0,0,,2,,,50,127
12091,note_off,143,0,0,,2,,,50,127
12092,note_on,1,0,0,,0,,,48,127
12236,note_on,144,0,0,,4,,,40,127
12257,note_off,21,0,0,,0,,,48,127
12379,note_off,122,0,0,,4,,,40,127
12380,note_on,1,0,0,,2,,,38,127
12524,note_on,144,0,0,,12,,,47,127
12545,note_off,21,0,0,,2,,,38,127
12667,note_off,122,0,0,,12,,,47,127
12668,note_on,1,0,0,,2,,,74,127
12668,note_on,0,0,0,,0,,,48,127
12668,note_on,0,0,0,,0,,,36,127
12732,note_on,64,0,0,,0,,,72,127
12740,note_off,8,0,0,,2,,,74,127
12797,note_on,57,0,0,,2,,,74,127
12804,note_off,7,0,0,,0,,,72,127
12862,note_on,58,0,0,,0,,,72,127
12869,note_off,7,0,0,,2,,,74,127
12927,note_on,58,0,0,,2,,,74,127
12934,note_off,7,0,0,,0,,,72,127
12992,note_on,58,0,0,,0,,,72,127
12998,note_off,6,0,0,,2,,,74,127
13056,note_on,58,0,0,,12,,,71,127
13064,note_off,8,0,0,,0,,,72,127
13121,note_on,57,0,0,,0,,,72,127
13128,note_off,7,0,0,,12,,,71,127
13185,note_on,57,0,0,,2,,,74,127
13193,note_off,8,0,0,,0,,,72,127
13247,note_on,54,0,0,,5,,,77,127
13257,note_off,10,0,0,,2,,,74,127
13311,note_on,54,0,0,,4,,,76,127
13319,note_off,8,0,0,,5,,,77,127
13376,note_on,57,0,0,,5,,,77,127
13383,note_off,7,0,0,,4,,,76,127
13441,note_on,58,0,0,,4,,,76,127
13448,note_off,7,0,0,,5,,,77,127
13506,note_on,58,0,0,,5,,,77,127
13513,note_off,7,0,0,,4,,,76,127
13571,note_on,58,0,0,,4,,,76,127
13577,note_off,6,0,0,,5,,,77,127
13635,note_on,58,0,0,,2,,,74,127
13643,note_off,8,0,0,,4,,,76,127
13700,note_on,57,0,0,,4,,,76,127
13707,note_off,7,0,0,,2,,,74,127
13764,note_on,57,0,0,,5,,,77,127
13772,note_off,8,0,0,,4,,,76,127
13822,note_off,50,0,0,,0,,,36,127
13822,note_off,0,0,0,,0,,,48,127
13826,note_off,4,0,0,,5,,,77,127
13827,note_on,1,0,0,,7,,,79,127
14114,note_off,287,0,0,,7,,,79,127
14115,note_on,1,0,0,,4,,,76,127
14115,note_on,0,0,0,,4,,,64,127
14115,note_on,0,0,0,,0,,,60,127
14402,note_off,287,0,0,,0,,,60,127
14402,note_off,0,0,0,,4,,,64,127
14402,note_off,0,0,0,,4,,,76,127
14403,note_on,1,0,0,,0,,,72,127
14403,note_on,0,0,0,,0,,,60,127
14403,note_on,0,0,0,,4,,,64,127
14690,note_off,287,0,0,,4,,,64,127
14690,note_off,0,0,0,,0,,,60,127
14690,note_off,0,0,0,,0,,,72,127
14691,note_on,1,0,0,,7,,,67,127
14691,note_on,0,0,0,,0,,,60,127
14691,note_on,0,0,0,,4,,,64,127
14978,note_off,287,0,0,,7,,,67,127
14979,note_on,1,0,0,,7,,,67,127
15122,note_off,143,0,0,,4,,,64,127
15122,note_off,0,0,0,,0,,,60,127
15266,note_off,144,0,0,,7,,,67,127
15267,note_on,1,0,0,,10,,,69,127
15267,note_on,0,0,0,,0,,,60,127
15267,note_on,0,0,0,,5,,,65,127
15554,note_off,287,0,0,,5,,,65,127
15554,note_off,0,0,0,,0,,,60,127
15555,note_on,1,0,0,,0,,,60,127
15555,note_on,0,0,0,,5,,,65,127
15626,note_off,71,0,0,,10,,,69,127
15627,note_on,1,0,0,,12,,,71,127
15698,note_off,71,0,0,,12,,,71,127
15699,note_on,1,0,0,,0,,,72,127
15770,note_off,71,0,0,,0,,,72,127
15771,note_on,1,0,0,,2,,,74,127
15842,note_off,71,0,0,,2,,,74,127
15842,note_off,0,0,0,,5,,,65,127
15842,note_off,0,0,0,,0,,,60,127
15843,note_on,1,0,0,,4,,,76,127
15843,note_on,0,0,0,,5,,,65,127
15843,note_on,0,0,0,,0,,,60,127
15914,note_off,71,0,0,,4,,,76,127
15915,note_on,1,0,0,,5,,,77,127
15986,note_off,71,0,0,,5,,,77,127
15987,note_on,1,0,0,,7,,,79,127
16058,note_off,71,0,0,,7,,,79,127
16059,note_on,1,0,0,,10,,,81,127
16130,note_off,71,0,0,,10,,,81,127
16130,note_off,0,0,0,,0,,,60,127
16130,note_off,0,0,0,,5,,,65,127
16131,note_on,1,0,0,,5,,,77,127
16131,note_on,0,0,0,,5,,,65,127
16131,note_on,0,0,0,,0,,,60,127
16131,note_on,0,0,0,,2,,,62,127
16418,note_off,287,0,0,,2,,,62,127
16418,note_off,0,0,0,,0,,,60,127
16418,note_off,0,0,0,,5,,,65,127
16418,note_off,0,0,0,,5,,,77,127
16419,note_on,1,0,0,,2,,,74,127
16419,note_on,0,0,0,,5,,,65,127
16419,note_on,0,0,0,,2,,,62,127
16419,note_on,0,0,0,,0,,,60,127
16706,note_off,287,0,0,,0,,,60,127
16706,note_off,0,0,0,,2,,,62,127
16706,note_off,0,0,0,,5,,,65,127
16706,note_off,0,0,0,,2,,,74,127
16707,note_on,1,0,0,,2,,,74,127
16707,note_on,0,0,0,,5,,,65,127
16707,note_on,0,0,0,,2,,,62,127
16707,note_on,0,0,0,,0,,,60,127
16778,note_off,71,0,0,,2,,,74,127
16779,note_on,1,0,0,,0,,,72,127
16850,note_off,71,0,0,,0,,,72,127
16851,note_on,1,0,0,,2,,,74,127
16922,note_off,71,0,0,,2,,,74,127
16923,note_on,1,0,0,,0,,,72,127
16994,note_off,71,0,0,,0,,,72,127
16994,note_off,0,0,0,,0,,,60,127
16994,note_off,0,0,0,,2,,,62,127
16994,note_off,0,0,0,,5,,,65,127
16995,note_on,1,0,0,,12,,,71,127
16995,note_on,0,0,0,,5,,,65,127
16995,note_on,0,0,0,,2,,,62,127
16995,note_on,0,0,0,,0,,,60,127
17280,note_off,285,0,0,,0,,,60,127
17280,note_off,0,0,0,,2,,,62,127
17280,note_off,0,0,0,,5,,,65,127
17282,note_off,2,0,0,,12,,,71,127
17283,note_on,1,0,0,,12,,,71,127
17570,note_off,287,0,0,,12,,,71,127
17571,note_on,1,0,0,,0,,,72,127
17571,note_on,0,0,0,,0,,,60,127
17571,note_on,0,0,0,,4,,,64,127
17858,note_off,287,0,0,,4,,,64,127
17858,note_off,0,0,0,,0,,,60,127
17859,note_on,1,0,0,,4,,,64,127
17859,note_on,0,0,0,,0,,,60,127
18074,note_off,215,0,0,,0,,,72,127
18075,note_on,1,0,0,,12,,,71,127
18146,note_off,71,0,0,,12,,,71,127
18146,note_off,0,0,0,,0,,,60,127
18146,note_off,0,0,0,,4,,,64,127
18147,note_on,1,0,0,,0,,,72,127
18147,note_on,0,0,0,,4,,,64,127
18147,note_on,0,0,0,,0,,,60,127
18218,note_off,71,0,0,,0,,,72,127
18219,note_on,1,0,0,,2,,,74,127
18290,note_off,71,0,0,,2,,,74,127
18291,note_on,1,0,0,,4,,,76,127
18362,note_off,71,0,0,,4,,,76,127
18363,note_on,1,0,0,,5,,,77,127
18434,note_off,71,0,0,,5,,,77,127
18434,note_off,0,0,0,,0,,,60,127
18434,note_off,0,0,0,,4,,,64,127
18435,note_on,1,0,0,,7,,,79,127
18435,note_on,0,0,0,,4,,,64,127
18435,note_on,0,0,0,,0,,,60,127
18722,note_off,287,0,0,,0,,,60,127
18722,note_off,0,0,0,,4,,,64,127
18722,note_off,0,0,0,,7,,,79,127
18723,note_on,1,0,0,,4,,,76,127
18723,note_on,0,0,0,,0,,,60,127
18723,note_on,0,0,0,,4,,,64,127
19010,note_off,287,0,0,,4,,,64,127
19010,note_off,0,0,0,,0,,,60,127
19010,note_off,0,0,0,,4,,,76,127
19011,note_on,1,0,0,,0,,,72,127
19011,note_on,0,0,0,,0,,,60,127
19011,note_on,0,0,0,,4,,,64,127
19298,note_off,287,0,0,,4,,,64,127
19298,note_off,0,0,0,,0,,,60,127
19298,note_off,0,0,0,,0,,,72,127
19299,note_on,1,0,0,,7,,,67,127
19299,note_on,0,0,0,,0,,,60,127
19299,note_on,0,0,0,,4,,,64,127
19586,note_off,287,0,0,,7,,,67,127
19587,note_on,1,0,0,,8,,,68,127
19730,note_off,143,0,0,,4,,,64,127
19730,note_off,0,0,0,,0,,,60,127
19874,note_off,144,0,0,,8,,,68,127
19875,note_on,1,0,0,,10,,,69,127
19875,note_on,0,0,0,,5,,,65,127
19875,note_on,0,0,0,,0,,,60,127
20162,note_off,287,0,0,,0,,,60,127
20162,note_off,0,0,0,,5,,,65,127
20162,note_off,0,0,0,,10,,,69,127
20163,note_on,1,0,0,,8,,,80,127
20163,note_on,0,0,0,,0,,,60,127
20163,note_on,0,0,0,,5,,,65,127
20450,note_off,287,0,0,,5,,,65,127
20450,note_off,0,0,0,,0,,,60,127
20450,note_off,0,0,0,,8,,,80,127
20451,note_on,1,0,0,,10,,,81,127
20451,note_on,0,0,0,,5,,,65,127
20451,note_on,0,0,0,,0,,,60,127
20738,note_off,287,0,0,,0,,,60,127
20738,note_off,0,0,0,,5,,,65,127
20739,note_on,1,0,0,,5,,,65,127
20739,note_on,0,0,0,,2,,,62,127
20739,note_on,0,0,0,,0,,,60,127
21026,note_off,287,0,0,,0,,,60,127
21026,note_off,0,0,0,,2,,,62,127
21026,note_off,0,0,0,,5,,,65,127
21026,note_off,0,0,0,,10,,,81,127
21027,note_on,1,0,0,,7,,,79,127
21027,note_on,0,0,0,,2,,,62,127
21027,note_on,0,0,0,,5,,,65,127
21027,note_on,0,0,0,,0,,,60,127
21170,note_off,143,0,0,,7,,,79,127
21171,note_on,1,0,0,,5,,,77,127
21314,note_off,143,0,0,,5,,,77,127
21314,note_off,0,0,0,,0,,,60,127
21314,note_off,0,0,0,,5,,,65,127
21314,note_off,0,0,0,,2,,,62,127
21315,note_on,1,0,0,,4,,,76,127
21315,note_on,0,0,0,,2,,,62,127
21315,note_on,0,0,0,,5,,,65,127
21315,note_on,0,0,0,,0,,,60,127
21458,note_off,143,0,0,,4,,,76,127
21459,note_on,1,0,0,,2,,,74,127
21602,note_off,143,0,0,,2,,,74,127
21602,note_off,0,0,0,,0,,,60,127
21602,note_off,0,0,0,,5,,,65,127
21602,note_off,0,0,0,,2,,,62,127
21603,note_on,1,0,0,,0,,,72,127
21603,note_on,0,0,0,,2,,,62,127
21603,note_on,0,0,0,,5,,,65,127
21603,note_on,0,0,0,,0,,,60,127
21746,note_off,143,0,0,,0,,,72,127
21747,note_on,1,0,0,,12,,,71,127
21890,note_off,143,0,0,,12,,,71,127
21890,note_off,0,0,0,,0,,,60,127
21890,note_off,0,0,0,,5,,,65,127
21890,note_off,0,0,0,,2,,,62,127
21891,note_on,1,0,0,,12,,,71,127
21891,note_on,0,0,0,,0,,,60,127
21891,note_on,0,0,0,,4,,,64,127
22178,note_off,287,0,0,,12,,,71,127
22179,note_on,1,0,0,,0,,,72,127
22395,note_off,216,0,0,,0,,,72,127
22491,note_on,96,0,0,,7,,,79,127
22491,note_on,0,0,0,,10,,,81,127
22562,note_off,71,0,0,,10,,,81,127
22562,note_off,0,0,0,,7,,,79,127
22563,note_on,1,0,0,,6,,,78,127
22634,note_off,71,0,0,,6,,,78,127
22635,note_on,1,0,0,,7,,,79,127
22754,note_off,119,0,0,,4,,,64,127
22754,note_off,0,0,0,,0,,,60,127
22779,note_on,25,0,0,,7,,,67,127
22779,note_on,0,0,0,,4,,,64,127
22779,note_on,0,0,0,,0,,,60,127
23066,note_off,287,0,0,,0,,,60,127
23066,note_off,0,0,0,,4,,,64,127
23066,note_off,0,0,0,,7,,,67,127
23066,note_off,0,0,0,,7,,,79,127
23067,note_on,1,0,0,,10,,,81,127
23067,note_on,0,0,0,,7,,,79,127
23067,note_on,0,0,0,,2,,,62,127
23067,note_on,0,0,0,,7,,,67,127
23067,note_on,0,0,0,,12,,,59,127
23138,note_off,71,0,0,,7,,,79,127
23138,note_off,0,0,0,,10,,,81,127
23139,note_on,1,0,0,,6,,,78,127
23210,note_off,71,0,0,,6,,,78,127
23211,note_on,1,0,0,,7,,,79,127
23354,note_off,143,0,0,,12,,,59,127
23354,note_off,0,0,0,,7,,,67,127
23354,note_off,0,0,0,,2,,,62,127
23355,note_on,1,0,0,,7,,,67,127
23355,note_on,0,0,0,,2,,,62,127
23355,note_on,0,0,0,,12,,,59,127
23642,note_off,287,0,0,,12,,,59,127
23642,note_off,0,0,0,,2,,,62,127
23642,note_off,0,0,0,,7,,,67,127
23642,note_off,0,0,0,,7,,,79,127
23643,note_on,1,0,0,,10,,,81,127
23643,note_on,0,0,0,,7,,,79,127
23643,note_on,0,0,0,,7,,,67,127
23643,note_on,0,0,0,,0,,,60,127
23643,note_on,0,0,0,,4,,,64,127
23714,note_off,71,0,0,,7,,,79,127
23714,note_off,0,0,0,,10,,,81,127
23715,note_on,1,0,0,,6,,,78,127
23786,note_off,71,0,0,,6,,,78,127
23787,note_on,1,0,0,,7,,,79,127
23930,note_off,143,0,0,,4,,,64,127
23930,note_off,0,0,0,,0,,,60,127
23930,note_off,0,0,0,,7,,,67,127
23931,note_on,1,0,0,,7,,,67,127
23931,note_on,0,0,0,,4,,,64,127
23931,note_on,0,0,0,,0,,,60,127
24218,note_off,287,0,0,,0,,,60,127
24218,note_off,0,0,0,,4,,,64,127
24218,note_off,0,0,0,,7,,,67,127
24218,note_off,0,0,0,,7,,,79,127
24219,note_on,1,0,0,,7,,,79,127
24219,note_on,0,0,0,,10,,,81,127
24219,note_on,0,0,0,,2,,,62,127
24219,note_on,0,0,0,,7,,,67,127
24219,note_on,0,0,0,,12,,,59,127
24290,note_off,71,0,0,,10,,,81,127
24290,note_off,0,0,0,,7,,,79,127
24291,note_on,1,0,0,,6,,,78,127
24362,note_off,71,0,0,,6,,,78,127
24363,note_on,1,0,0,,7,,,79,127
24506,note_off,143,0,0,,12,,,59,127
24506,note_off,0,0,0,,7,,,67,127
24506,note_off,0,0,0,,2,,,62,127
24507,note_on,1,0,0,,7,,,67,127
24507,note_on,0,0,0,,12,,,59,127
24507,note_on,0,0,0,,2,,,62,127
24794,note_off,287,0,0,,2,,,62,127
24794,note_off,0,0,0,,12,,,59,127
24794,note_off,0,0,0,,7,,,67,127
24795,note_on,1,0,0,,2,,,62,127
24795,note_on,0,0,0,,7,,,67,127
24795,note_on,0,0,0,,11,,,58,127
24938,note_off,143,0,0,,7,,,79,127
25082,note_off,144,0,0,,11,,,58,127
25082,note_off,0,0,0,,7,,,67,127
25082,note_off,0,0,0,,2,,,62,127
25083,note_on,1,0,0,,2,,,62,127
25083,note_on,0,0,0,,7,,,67,127
25083,note_on,0,0,0,,11,,,58,127
25370,note_off,287,0,0,,11,,,58,127
25370,note_off,0,0,0,,7,,,67,127
25370,note_off,0,0,0,,2,,,62,127
25380,note_on,10,0,0,,10,,,81,127
25380,note_on,0,0,0,,7,,,79,127
25380,note_on,0,0,0,,1,,,61,127
25380,note_on,0,0,0,,7,,,67,127
25380,note_on,0,0,0,,10,,,57,127
25451,note_off,71,0,0,,7,,,79,127
25451,note_off,0,0,0,,10,,,81,127
25452,note_on,1,0,0,,6,,,78,127
25523,note_off,71,0,0,,6,,,78,127
25524,note_on,1,0,0,,7,,,79,127
25667,note_off,143,0,0,,10,,,57,127
25667,note_off,0,0,0,,7,,,67,127
25667,note_off,0,0,0,,1,,,61,127
25668,note_on,1,0,0,,7,,,67,127
25668,note_on,0,0,0,,1,,,61,127
25668,note_on,0,0,0,,10,,,57,127
25955,note_off,287,0,0,,10,,,57,127
25955,note_off,0,0,0,,1,,,61,127
25955,note_off,0,0,0,,7,,,67,127
25955,note_off,0,0,0,,7,,,79,127
25956,note_on,1,0,0,,10,,,81,127
25956,note_on,0,0,0,,7,,,79,127
25956,note_on,0,0,0,,7,,,67,127
25956,note_on,0,0,0,,11,,,58,127
25956,note_on,0,0,0,,2,,,62,127
26027,note_off,71,0,0,,7,,,79,127
26027,note_off,0,0,0,,10,,,81,127
26028,note_on,1,0,0,,6,,,78,127
26099,note_off,71,0,0,,6,,,78,127
26100,note_on,1,0,0,,7,,,79,127
26243,note_off,143,0,0,,2,,,62,127
26243,note_off,0,0,0,,11,,,58,127
26243,note_off,0,0,0,,7,,,67,127
26244,note_on,1,0,0,,7,,,67,127
26244,note_on,0,0,0,,11,,,58,127
26244,note_on,0,0,0,,2,,,62,127
26531,note_off,287,0,0,,2,,,62,127
26531,note_off,0,0,0,,11,,,58,127
26531,note_off,0,0,0,,7,,,67,127
26531,note_off,0,0,0,,7,,,79,127
26532,note_on,1,0,0,,10,,,81,127
26532,note_on,0,0,0,,7,,,79,127
26532,note_on,0,0,0,,7,,,67,127
26532,note_on,0,0,0,,10,,,57,127
26532,note_on,0,0,0,,1,,,61,127
26603,note_off,71,0,0,,7,,,79,127
26603,note_off,0,0,0,,10,,,81,127
26604,note_on,1,0,0,,6,,,78,127
26675,note_off,71,0,0,,6,,,78,127
26676,note_on,1,0,0,,7,,,79,127
26819,note_off,143,0,0,,1,,,61,127
26819,note_off,0,0,0,,10,,,57,127
26819,note_off,0,0,0,,7,,,67,127
26820,note_on,1,0,0,,7,,,67,127
26820,note_on,0,0,0,,1,,,61,127
26820,note_on,0,0,0,,10,,,57,127
27107,note_off,287,0,0,,10,,,57,127
27107,note_off,0,0,0,,1,,,61,127
27107,note_off,0,0,0,,7,,,67,127
27108,note_on,1,0,0,,3,,,63,127
27108,note_on,0,0,0,,7,,,67,127
27108,note_on,0,0,0,,12,,,59,127
27251,note_off,143,0,0,,7,,,79,127
27395,note_off,144,0,0,,12,,,59,127
27395,note_off,0,0,0,,7,,,67,127
27395,note_off,0,0,0,,3,,,63,127
27396,note_on,1,0,0,,7,,,67,127
27396,note_on,0,0,0,,3,,,63,127
27396,note_on,0,0,0,,12,,,59,127
27683,note_off,287,0,0,,12,,,59,127
27683,note_off,0,0,0,,3,,,63,127
27683,note_off,0,0,0,,7,,,67,127
27696,note_on,13,0,0,,0,,,60,127
27696,note_on,0,0,0,,4,,,64,127
27696,note_on,0,0,0,,7,,,67,127
27696,note_on,0,0,0,,10,,,81,127
27696,note_on,0,0,0,,7,,,79,127
27767,note_off,71,0,0,,7,,,79,127
27767,note_off,0,0,0,,10,,,81,127
27768,note_on,1,0,0,,6,,,78,127
27839,note_off,71,0,0,,6,,,78,127
27840,note_on,1,0,0,,7,,,79,127
27983,note_off,143,0,0,,7,,,67,127
27983,note_off,0,0,0,,4,,,64,127
27983,note_off,0,0,0,,0,,,60,127
27984,note_on,1,0,0,,4,,,64,127
27984,note_on,0,0,0,,0,,,60,127
27984,note_on,0,0,0,,7,,,67,127
28271,note_off,287,0,0,,7,,,67,127
28271,note_off,0,0,0,,0,,,60,127
28271,note_off,0,0,0,,4,,,64,127
28271,note_off,0,0,0,,7,,,79,127
28272,note_on,1,0,0,,12,,,59,127
28272,note_on,0,0,0,,7,,,67,127
28272,note_on,0,0,0,,3,,,63,127
28272,note_on,0,0,0,,7,,,79,127
28272,note_on,0,0,0,,10,,,81,127
28343,note_off,71,0,0,,10,,,81,127
28343,note_off,0,0,0,,7,,,79,127
28344,note_on,1,0,0,,6,,,78,127
28415,note_off,71,0,0,,6,,,78,127
28416,note_on,1,0,0,,7,,,79,127
28559,note_off,143,0,0,,3,,,63,127
28559,note_off,0,0,0,,7,,,67,127
28559,note_off,0,0,0,,12,,,59,127
28560,note_on,1,0,0,,3,,,63,127
28560,note_on,0,0,0,,12,,,59,127
28560,note_on,0,0,0,,7,,,67,127
28847,note_off,287,0,0,,7,,,67,127
28847,note_off,0,0,0,,12,,,59,127
28847,note_off,0,0,0,,3,,,63,127
28847,note_off,0,0,0,,7,,,79,127
28848,note_on,1,0,0,,4,,,64,127
28848,note_on,0,0,0,,0,,,60,127
28848,note_on,0,0,0,,7,,,67,127
28848,note_on,0,0,0,,7,,,79,127
28848,note_on,0,0,0,,10,,,81,127
28919,note_off,71,0,0,,10,,,81,127
28919,note_off,0,0,0,,7,,,79,127
28920,note_on,1,0,0,,6,,,78,127
28991,note_off,71,0,0,,6,,,78,127
28992,note_on,1,0,0,,7,,,79,127
29135,note_off,143,0,0,,7,,,67,127
29135,note_off,0,0,0,,0,,,60,127
29135,note_off,0,0,0,,4,,,64,127
29136,note_on,1,0,0,,0,,,60,127
29136,note_on,0,0,0,,4,,,64,127
29136,note_on,0,0,0,,7,,,67,127
29423,note_off,287,0,0,,7,,,67,127
29423,note_off,0,0,0,,4,,,64,127
29423,note_off,0,0,0,,0,,,60,127
29424,note_on,1,0,0,,1,,,61,127
29424,note_on,0,0,0,,10,,,69,127
29424,note_on,0,0,0,,7,,,67,127
29567,note_off,143,0,0,,7,,,79,127
29711,note_off,144,0,0,,7,,,67,127
29711,note_off,0,0,0,,10,,,69,127
29711,note_off,0,0,0,,1,,,61,127
29712,note_on,1,0,0,,1,,,61,127
29712,note_on,0,0,0,,7,,,67,127
29712,note_on,0,0,0,,10,,,69,127
29999,note_off,287,0,0,,10,,,69,127
29999,note_off,0,0,0,,7,,,67,127
29999,note_off,0,0,0,,1,,,61,127
30007,note_on,8,0,0,,2,,,62,127
30007,note_on,0,0,0,,11,,,70,127
30007,note_on,0,0,0,,7,,,67,127
30007,note_on,0,0,0,,10,,,81,127
30007,note_on,0,0,0,,7,,,79,127
30078,note_off,71,0,0,,7,,,79,127
30078,note_off,0,0,0,,10,,,81,127
30079,note_on,1,0,0,,6,,,78,127
30150,note_off,71,0,0,,6,,,78,127
30151,note_on,1,0,0,,7,,,79,127
30294,note_off,143,0,0,,7,,,67,127
30294,note_off,0,0,0,,11,,,70,127
30294,note_off,0,0,0,,2,,,62,127
30295,note_on,1,0,0,,2,,,62,127
30295,note_on,0,0,0,,7,,,67,127
30295,note_on,0,0,0,,11,,,70,127
30582,note_off,287,0,0,,11,,,70,127
30582,note_off,0,0,0,,7,,,67,127
30582,note_off,0,0,0,,2,,,62,127
30582,note_off,0,0,0,,7,,,79,127
30583,note_on,1,0,0,,1,,,61,127
30583,note_on,0,0,0,,7,,,67,127
30583,note_on,0,0,0,,10,,,69,127
30583,note_on,0,0,0,,7,,,79,127
30583,note_on,0,0,0,,10,,,81,127
30654,note_off,71,0,0,,10,,,81,127
30654,note_off,0,0,0,,7,,,79,127
30655,note_on,1,0,0,,6,,,78,127
30726,note_off,71,0,0,,6,,,78,127
30727,note_on,1,0,0,,7,,,79,127
30870,note_off,143,0,0,,10,,,69,127
30870,note_off,0,0,0,,7,,,67,127
30870,note_off,0,0,0,,1,,,61,127
30871,note_on,1,0,0,,1,,,61,127
30871,note_on,0,0,0,,7,,,67,127
30871,note_on,0,0,0,,10,,,69,127
31158,note_off,287,0,0,,10,,,69,127
31158,note_off,0,0,0,,7,,,67,127
31158,note_off,0,0,0,,1,,,61,127
31158,note_off,0,0,0,,7,,,79,127
31159,note_on,1,0,0,,7,,,67,127
31159,note_on,0,0,0,,2,,,62,127
31159,note_on,0,0,0,,11,,,70,127
31159,note_on,0,0,0,,10,,,81,127
31159,note_on,0,0,0,,7,,,79,127
31230,note_off,71,0,0,,7,,,79,127
31230,note_off,0,0,0,,10,,,81,127
31231,note_on,1,0,0,,6,,,78,127
31302,note_off,71,0,0,,6,,,78,127
31303,note_on,1,0,0,,7,,,79,127
31446,note_off,143,0,0,,11,,,70,127
31446,note_off,0,0,0,,2,,,62,127
31446,note_off,0,0,0,,7,,,67,127
31447,note_on,1,0,0,,2,,,62,127
31447,note_on,0,0,0,,7,,,67,127
31447,note_on,0,0,0,,11,,,70,127
31734,note_off,287,0,0,,11,,,70,127
31734,note_off,0,0,0,,7,,,67,127
31734,note_off,0,0,0,,2,,,62,127
31735,note_on,1,0,0,,2,,,62,127
31735,note_on,0,0,0,,5,,,65,127
31735,note_on,0,0,0,,7,,,67,127
31735,note_on,0,0,0,,12,,,71,127
31878,note_off,143,0,0,,7,,,79,127
32022,note_off,144,0,0,,12,,,71,127
32022,note_off,0,0,0,,7,,,67,127
32022,note_off,0,0,0,,5,,,65,127
32022,note_off,0,0,0,,2,,,62,127
32023,note_on,1,0,0,,2,,,62,127
32023,note_on,0,0,0,,5,,,65,127
32023,note_on,0,0,0,,12,,,71,127
32023,note_on,0,0,0,,7,,,67,127
32318,note_off,295,0,0,,7,,,67,127
32318,note_off,0,0,0,,12,,,71,127
32318,note_off,0,0,0,,5,,,65,127
32318,note_off,0,0,0,,2,,,62,127
32323,note_on,5,0,0,,10,,,81,127
32323,note_on,0,0,0,,7,,,79,127
32323,note_on,0,0,0,,0,,,72,127
32323,note_on,0,0,0,,7,,,67,127
32323,note_on,0,0,0,,4,,,64,127
32394,note_off,71,0,0,,7,,,79,127
32394,note_off,0,0,0,,10,,,81,127
32395,note_on,1,0,0,,6,,,78,127
32466,note_off,71,0,0,,6,,,78,127
32467,note_on,1,0,0,,7,,,79,127
32610,note_off,143,0,0,,4,,,64,127
32610,note_off,0,0,0,,7,,,67,127
32610,note_off,0,0,0,,0,,,72,127
32611,note_on,1,0,0,,7,,,67,127
32611,note_on,0,0,0,,4,,,64,127
32611,note_on,0,0,0,,0,,,72,127
32898,note_off,287,0,0,,0,,,72,127
32898,note_off,0,0,0,,4,,,64,127
32898,note_off,0,0,0,,7,,,67,127
32898,note_off,0,0,0,,7,,,79,127
32899,note_on,1,0,0,,10,,,81,127
32899,note_on,0,0,0,,7,,,79,127
32899,note_on,0,0,0,,7,,,67,127
32899,note_on,0,0,0,,12,,,71,127
32899,note_on,0,0,0,,2,,,62,127
32970,note_off,71,0,0,,7,,,79,127
32970,note_off,0,0,0,,10,,,81,127
32971,note_on,1,0,0,,6,,,78,127
33042,note_off,71,0,0,,6,,,78,127
33043,note_on,1,0,0,,7,,,79,127
33186,note_off,143,0,0,,2,,,62,127
33186,note_off,0,0,0,,12,,,71,127
33186,note_off,0,0,0,,7,,,67,127
33187,note_on,1,0,0,,12,,,71,127
33187,note_on,0,0,0,,7,,,67,127
33187,note_on,0,0,0,,2,,,62,127
33474,note_off,287,0,0,,2,,,62,127
33474,note_off,0,0,0,,7,,,67,127
33474,note_off,0,0,0,,12,,,71,127
33474,note_off,0,0,0,,7,,,79,127
33475,note_on,1,0,0,,7,,,79,127
33475,note_on,0,0,0,,10,,,81,127
33475,note_on,0,0,0,,0,,,72,127
33475,note_on,0,0,0,,7,,,67,127
33475,note_on,0,0,0,,4,,,64,127
33546,note_off,71,0,0,,10,,,81,127
33546,note_off,0,0,0,,7,,,79,127
33547,note_on,1,0,0,,6,,,78,127
33618,note_off,71,0,0,,6,,,78,127
33619,note_on,1,0,0,,7,,,79,127
33762,note_off,143,0,0,,4,,,64,127
33762,note_off,0,0,0,,7,,,67,127
33762,note_off,0,0,0,,0,,,72,127
33763,note_on,1,0,0,,0,,,72,127
33763,note_on,0,0,0,,7,,,67,127
33763,note_on,0,0,0,,4,,,64,127
34050,note_off,287,0,0,,4,,,64,127
34050,note_off,0,0,0,,7,,,67,127
34050,note_off,0,0,0,,0,,,72,127
34050,note_off,0,0,0,,7,,,79,127
34051,note_on,1,0,0,,12,,,83,127
34051,note_on,0,0,0,,10,,,81,127
34051,note_on,0,0,0,,0,,,72,127
34051,note_on,0,0,0,,6,,,66,127
34051,note_on,0,0,0,,10,,,69,127
34122,note_off,71,0,0,,10,,,81,127
34122,note_off,0,0,0,,12,,,83,127
34123,note_on,1,0,0,,7,,,79,127
34194,note_off,71,0,0,,7,,,79,127
34195,note_on,1,0,0,,10,,,81,127
34338,note_off,143,0,0,,10,,,69,127
34338,note_off,0,0,0,,6,,,66,127
34338,note_off,0,0,0,,0,,,72,127
34339,note_on,1,0,0,,0,,,72,127
34339,note_on,0,0,0,,10,,,69,127
34339,note_on,0,0,0,,6,,,66,127
34626,note_off,287,0,0,,10,,,81,127
34633,note_on,7,0,0,,12,,,83,127
34633,note_on,0,0,0,,12,,,71,127
34633,note_on,0,0,0,,7,,,67,127
34634,note_off,1,0,0,,6,,,66,127
34634,note_off,0,0,0,,10,,,69,127
34634,note_off,0,0,0,,0,,,72,127
34920,note_off,286,0,0,,7,,,67,127
34920,note_off,0,0,0,,12,,,71,127
34920,note_off,0,0,0,,12,,,83,127
34921,note_on,1,0,0,,0,,,84,127
34921,note_on,0,0,0,,12,,,71,127
34921,note_on,0,0,0,,7,,,67,127
35064,note_off,143,0,0,,0,,,84,127
35065,note_on,1,0,0,,2,,,86,127
35208,note_off,143,0,0,,2,,,86,127
35208,note_off,0,0,0,,7,,,67,127
35208,note_off,0,0,0,,12,,,71,127
35209,note_on,1,0,0,,0,,,84,127
35209,note_on,0,0,0,,7,,,67,127
35209,note_on,0,0,0,,10,,,69,127
35209,note_on,0,0,0,,0,,,60,127
35352,note_off,143,0,0,,0,,,84,127
35353,note_on,1,0,0,,12,,,83,127
35496,note_off,143,0,0,,12,,,83,127
35496,note_off,0,0,0,,0,,,60,127
35496,note_off,0,0,0,,10,,,69,127
35496,note_off,0,0,0,,7,,,67,127
35497,note_on,1,0,0,,10,,,81,127
35497,note_on,0,0,0,,10,,,69,127
35497,note_on,0,0,0,,7,,,67,127
35497,note_on,0,0,0,,0,,,60,127
35640,note_off,143,0,0,,10,,,81,127
35641,note_on,1,0,0,,7,,,79,127
35784,note_off,143,0,0,,7,,,79,127
35784,note_off,0,0,0,,0,,,60,127
35784,note_off,0,0,0,,7,,,67,127
35784,note_off,0,0,0,,10,,,69,127
35785,note_on,1,0,0,,7,,,79,127
35785,note_on,0,0,0,,10,,,69,127
35785,note_on,0,0,0,,2,,,62,127
35785,note_on,0,0,0,,6,,,66,127
35856,note_off,71,0,0,,7,,,79,127
35857,note_on,1,0,0,,6,,,78,127
35928,note_off,71,0,0,,6,,,78,127
35929,note_on,1,0,0,,7,,,79,127
36000,note_off,71,0,0,,7,,,79,127
36001,note_on,1,0,0,,6,,,78,127
36072,note_off,71,0,0,,6,,,78,127
36072,note_off,0,0,0,,6,,,66,127
36072,note_off,0,0,0,,2,,,62,127
36072,note_off,0,0,0,,10,,,69,127
36073,note_on,1,0,0,,7,,,79,127
36073,note_on,0,0,0,,10,,,69,127
36073,note_on,0,0,0,,6,,,66,127
36073,note_on,0,0,0,,2,,,62,127
36144,note_off,71,0,0,,7,,,79,127
36145,note_on,1,0,0,,6,,,78,127
36216,note_off,71,0,0,,6,,,78,127
36217,note_on,1,0,0,,4,,,76,127
36360,note_off,143,0,0,,4,,,76,127
36360,note_off,0,0,0,,2,,,62,127
36360,note_off,0,0,0,,6,,,66,127
36360,note_off,0,0,0,,10,,,69,127
36361,note_on,1,0,0,,2,,,74,127
36361,note_on,0,0,0,,2,,,62,127
36361,note_on,0,0,0,,6,,,66,127
36361,note_on,0,0,0,,10,,,69,127
36504,note_off,143,0,0,,2,,,74,127
36505,note_on,1,0,0,,0,,,72,127
36648,note_off,143,0,0,,0,,,72,127
36648,note_off,0,0,0,,10,,,69,127
36648,note_off,0,0,0,,6,,,66,127
36648,note_off,0,0,0,,2,,,62,127
36649,note_on,1,0,0,,12,,,71,127
36649,note_on,0,0,0,,6,,,66,127
36649,note_on,0,0,0,,2,,,62,127
36792,note_off,143,0,0,,12,,,71,127
36793,note_on,1,0,0,,10,,,69,127
36936,note_off,143,0,0,,10,,,69,127
36936,note_off,0,0,0,,2,,,62,127
36936,note_off,0,0,0,,6,,,66,127
36940,note_on,4,0,0,,7,,,55,127
36940,note_on,0,0,0,,7,,,67,127
36940,note_on,0,0,0,,2,,,62,127
36940,note_on,0,0,0,,12,,,71,127
37227,note_off,287,0,0,,12,,,71,127
37227,note_off,0,0,0,,2,,,62,127
37227,note_off,0,0,0,,7,,,67,127
37227,note_off,0,0,0,,7,,,55,127
37228,note_on,1,0,0,,7,,,55,127
37228,note_on,0,0,0,,7,,,67,127
37228,note_on,0,0,0,,2,,,62,127
37228,note_on,0,0,0,,0,,,72,127
37371,note_off,143,0,0,,0,,,72,127
37372,note_on,1,0,0,,2,,,74,127
37515,note_off,143,0,0,,2,,,74,127
37515,note_off,0,0,0,,2,,,62,127
37515,note_off,0,0,0,,7,,,67,127
37515,note_off,0,0,0,,7,,,55,127
37516,note_on,1,0,0,,0,,,60,127
37516,note_on,0,0,0,,7,,,67,127
37516,note_on,0,0,0,,4,,,64,127
37516,note_on,0,0,0,,0,,,72,127
37659,note_off,143,0,0,,0,,,72,127
37660,note_on,1,0,0,,12,,,71,127
37803,note_off,143,0,0,,12,,,71,127
37803,note_off,0,0,0,,4,,,64,127
37803,note_off,0,0,0,,7,,,67,127
37803,note_off,0,0,0,,0,,,60,127
37804,note_on,1,0,0,,0,,,60,127
37804,note_on,0,0,0,,4,,,64,127
37804,note_on,0,0,0,,10,,,69,127
37947,note_off,143,0,0,,10,,,69,127
37948,note_on,1,0,0,,7,,,67,127
38091,note_off,143,0,0,,7,,,67,127
38091,note_off,0,0,0,,4,,,64,127
38091,note_off,0,0,0,,0,,,60,127
38092,note_on,1,0,0,,2,,,50,127
38092,note_on,0,0,0,,6,,,66,127
38163,note_off,71,0,0,,6,,,66,127
38164,note_on,1,0,0,,4,,,64,127
38235,note_off,71,0,0,,4,,,64,127
38236,note_on,1,0,0,,2,,,62,127
38722,note_off,486,0,0,,2,,,50,127
38742,note_off,20,0,0,,2,,,62,127
39244,note_on,502,0,0,,7,,,55,127
39388,note_on,144,0,0,,7,,,43,127
39531,note_off,143,0,0,,7,,,43,127
39532,note_on,1,0,0,,12,,,47,127
39675,note_off,143,0,0,,12,,,47,127
39676,note_on,1,0,0,,2,,,50,127
39819,note_off,143,0,0,,2,,,50,127
39819,note_off,0,0,0,,7,,,55,127
39820,note_on,1,0,0,,4,,,52,127
39963,note_off,143,0,0,,4,,,52,127
39964,note_on,1,0,0,,0,,,48,127
40107,note_off,143,0,0,,0,,,48,127
40108,note_on,1,0,0,,6,,,54,127
40108,note_on,0,0,0,,2,,,62,127
40179,note_off,71,0,0,,2,,,62,127
40180,note_on,1,0,0,,0,,,60,127
40251,note_off,71,0,0,,0,,,60,127
40251,note_off,0,0,0,,6,,,54,127
40252,note_on,1,0,0,,2,,,50,127
40252,note_on,0,0,0,,12,,,59,127
40323,note_off,71,0,0,,12,,,59,127
40324,note_on,1,0,0,,10,,,57,127
40395,note_off,71,0,0,,10,,,57,127
40396,note_on,1,0,0,,12,,,59,127
40468,note_off,72,0,0,,2,,,50,127
40540,note_on,72,0,0,,7,,,55,127
40681,note_off,141,0,0,,12,,,59,127
40683,note_off,2,0,0,,7,,,55,127
40684,note_on,1,0,0,,12,,,59,127
40827,note_off,143,0,0,,12,,,59,127
40828,note_on,1,0,0,,2,,,62,127
40971,note_off,143,0,0,,2,,,62,127
40972,note_on,1,0,0,,4,,,64,127
41115,note_off,143,0,0,,4,,,64,127
41116,note_on,1,0,0,,0,,,60,127
41259,note_off,143,0,0,,0,,,60,127
41260,note_on,1,0,0,,6,,,66,127
41260,note_on,0,0,0,,2,,,74,127
41331,note_off,71,0,0,,2,,,74,127
41332,note_on,1,0,0,,0,,,72,127
41403,note_off,71,0,0,,0,,,72,127
41403,note_off,0,0,0,,6,,,66,127
41404,note_on,1,0,0,,2,,,62,127
41404,note_on,0,0,0,,12,,,71,127
41475,note_off,71,0,0,,12,,,71,127
41476,note_on,1,0,0,,10,,,69,127
41547,note_off,71,0,0,,10,,,69,127
41548,note_on,1,0,0,,12,,,71,127
41620,note_off,72,0,0,,2,,,62,127
41692,note_on,72,0,0,,7,,,67,127
41833,note_off,141,0,0,,12,,,71,127
41835,note_off,2,0,0,,7,,,67,127
41836,note_on,1,0,0,,12,,,71,127
41979,note_off,143,0,0,,12,,,71,127
41980,note_on,1,0,0,,2,,,74,127
42123,note_off,143,0,0,,2,,,74,127
42124,note_on,1,0,0,,4,,,76,127
42267,note_off,143,0,0,,4,,,76,127
42268,note_on,1,0,0,,0,,,72,127
42411,note_off,143,0,0,,0,,,72,127
42412,note_on,1,0,0,,6,,,78,127
42412,note_on,0,0,0,,2,,,86,127
42483,note_off,71,0,0,,2,,,86,127
42484,note_on,1,0,0,,0,,,84,127
42555,note_off,71,0,0,,0,,,84,127
42555,note_off,0,0,0,,6,,,78,127
42556,note_on,1,0,0,,2,,,74,127
42556,note_on,0,0,0,,12,,,83,127
42627,note_off,71,0,0,,12,,,83,127
42628,note_on,1,0,0,,10,,,81,127
42699,note_off,71,0,0,,10,,,81,127
42699,note_off,0,0,0,,2,,,74,127
42700,note_on,1,0,0,,7,,,79,127
42700,note_on,0,0,0,,12,,,83,127
42843,note_off,143,0,0,,12,,,83,127
42843,note_off,0,0,0,,7,,,79,127
42844,note_on,1,0,0,,4,,,76,127
42844,note_on,0,0,0,,7,,,79,127
42987,note_off,143,0,0,,7,,,79,127
42987,note_off,0,0,0,,4,,,76,127
42988,note_on,1,0,0,,0,,,72,127
42988,note_on,0,0,0,,4,,,76,127
43131,note_off,143,0,0,,4,,,76,127
43131,note_off,0,0,0,,0,,,72,127
43132,note_on,1,0,0,,10,,,69,127
43132,note_on,0,0,0,,0,,,72,127
43275,note_off,143,0,0,,0,,,72,127
43275,note_off,0,0,0,,10,,,69,127
43276,note_on,1,0,0,,6,,,66,127
43276,note_on,0,0,0,,10,,,69,127
43419,note_off,143,0,0,,10,,,69,127
43419,note_off,0,0,0,,6,,,66,127
43420,note_on,1,0,0,,2,,,62,127
43420,note_on,0,0,0,,6,,,66,127
43563,note_off,143,0,0,,6,,,66,127
43563,note_off,0,0,0,,2,,,62,127
43564,note_on,1,0,0,,12,,,59,127
43564,note_on,0,0,0,,2,,,62,127
43707,note_off,143,0,0,,2,,,62,127
43707,note_off,0,0,0,,12,,,59,127
43708,note_on,1,0,0,,7,,,55,127
43708,note_on,0,0,0,,12,,,59,127
43851,note_off,143,0,0,,12,,,59,127
43851,note_off,0,0,0,,7,,,55,127
43852,note_on,1,0,0,,4,,,52,127
43852,note_on,0,0,0,,7,,,55,127
44139,note_off,287,0,0,,7,,,55,127
44139,note_off,0,0,0,,4,,,52,127
44140,note_on,1,0,0,,0,,,48,127
44140,note_on,0,0,0,,2,,,62,127
44211,note_off,71,0,0,,2,,,62,127
44212,note_on,1,0,0,,0,,,60,127
44283,note_off,71,0,0,,0,,,60,127
44284,note_on,1,0,0,,12,,,59,127
44355,note_off,71,0,0,,12,,,59,127
44356,note_on,1,0,0,,10,,,57,127
44427,note_off,71,0,0,,10,,,57,127
44427,note_off,0,0,0,,0,,,48,127
44428,note_on,1,0,0,,2,,,50,127
44428,note_on,0,0,0,,12,,,59,127
44428,note_on,0,0,0,,7,,,55,127
44715,note_off,287,0,0,,7,,,55,127
44715,note_off,0,0,0,,12,,,59,127
44715,note_off,0,0,0,,2,,,50,127
44716,note_on,1,0,0,,2,,,38,127
44716,note_on,0,0,0,,10,,,57,127
44716,note_on,0,0,0,,6,,,54,127
45001,note_off,285,0,0,,2,,,38,127
45011,note_off,10,0,0,,6,,,54,127
45011,note_off,0,0,0,,10,,,57,127
45016,note_on,5,0,0,,7,,,55,127
45160,note_on,144,0,0,,7,,,43,127
45303,note_off,143,0,0,,7,,,43,127
45304,note_on,1,0,0,,12,,,47,127
45447,note_off,143,0,0,,12,,,47,127
45448,note_on,1,0,0,,2,,,50,127
45591,note_off,143,0,0,,2,,,50,127
45591,note_off,0,0,0,,7,,,55,127
45592,note_on,1,0,0,,4,,,52,127
45735,note_off,143,0,0,,4,,,52,127
45736,note_on,1,0,0,,0,,,48,127
45879,note_off,143,0,0,,0,,,48,127
45880,note_on,1,0,0,,2,,,62,127
45880,note_on,0,0,0,,6,,,54,127
45951,note_off,71,0,0,,2,,,62,127
45952,note_on,1,0,0,,0,,,60,127
46023,note_off,71,0,0,,0,,,60,127
46023,note_off,0,0,0,,6,,,54,127
46024,note_on,1,0,0,,12,,,59,127
46024,note_on,0,0,0,,2,,,50,127
46095,note_off,71,0,0,,12,,,59,127
46096,note_on,1,0,0,,10,,,57,127
46167,note_off,71,0,0,,10,,,57,127
46168,note_on,1,0,0,,12,,,59,127
46240,note_off,72,0,0,,2,,,50,127
46312,note_on,72,0,0,,7,,,55,127
46453,note_off,141,0,0,,12,,,59,127
46455,note_off,2,0,0,,7,,,55,127
46456,note_on,1,0,0,,12,,,59,127
46600,note_on,144,0,0,,2,,,62,127
46741,note_off,141,0,0,,12,,,59,127
46743,note_off,2,0,0,,2,,,62,127
46744,note_on,1,0,0,,4,,,64,127
46887,note_off,143,0,0,,4,,,64,127
46888,note_on,1,0,0,,0,,,60,127
47031,note_off,143,0,0,,0,,,60,127
47032,note_on,1,0,0,,2,,,74,127
47032,note_on,0,0,0,,6,,,66,127
47103,note_off,71,0,0,,2,,,74,127
47104,note_on,1,0,0,,0,,,72,127
47175,note_off,71,0,0,,0,,,72,127
47175,note_off,0,0,0,,6,,,66,127
47176,note_on,1,0,0,,12,,,71,127
47176,note_on,0,0,0,,2,,,62,127
47247,note_off,71,0,0,,12,,,71,127
47248,note_on,1,0,0,,10,,,69,127
47319,note_off,71,0,0,,10,,,69,127
47320,note_on,1,0,0,,12,,,71,127
47392,note_off,72,0,0,,2,,,62,127
47464,note_on,72,0,0,,7,,,67,127
47605,note_off,141,0,0,,12,,,71,127
47607,note_off,2,0,0,,7,,,67,127
47608,note_on,1,0,0,,12,,,71,127
47752,note_on,144,0,0,,2,,,74,127
47893,note_off,141,0,0,,12,,,71,127
47895,note_off,2,0,0,,2,,,74,127
47896,note_on,1,0,0,,4,,,76,127
48039,note_off,143,0,0,,4,,,76,127
48040,note_on,1,0,0,,0,,,72,127
48183,note_off,143,0,0,,0,,,72,127
48190,note_on,7,0,0,,2,,,86,127
48190,note_on,0,0,0,,6,,,78,127
48261,note_off,71,0,0,,2,,,86,127
48262,note_on,1,0,0,,0,,,84,127
48333,note_off,71,0,0,,0,,,84,127
48333,note_off,0,0,0,,6,,,78,127
48334,note_on,1,0,0,,12,,,83,127
48334,note_on,0,0,0,,2,,,74,127
48405,note_off,71,0,0,,12,,,83,127
48406,note_on,1,0,0,,10,,,81,127
48477,note_off,71,0,0,,10,,,81,127
48477,note_off,0,0,0,,2,,,74,127
48478,note_on,1,0,0,,12,,,83,127
48478,note_on,0,0,0,,7,,,79,127
48621,note_off,143,0,0,,7,,,79,127
48621,note_off,0,0,0,,12,,,83,127
48622,note_on,1,0,0,,7,,,79,127
48622,note_on,0,0,0,,4,,,76,127
48765,note_off,143,0,0,,4,,,76,127
48765,note_off,0,0,0,,7,,,79,127
48766,note_on,1,0,0,,4,,,76,127
48766,note_on,0,0,0,,0,,,72,127
48909,note_off,143,0,0,,0,,,72,127
48909,note_off,0,0,0,,4,,,76,127
48910,note_on,1,0,0,,0,,,72,127
48910,note_on,0,0,0,,10,,,69,127
49053,note_off,143,0,0,,10,,,69,127
49053,note_off,0,0,0,,0,,,72,127
49054,note_on,1,0,0,,10,,,69,127
49054,note_on,0,0,0,,6,,,66,127
49197,note_off,143,0,0,,6,,,66,127
49197,note_off,0,0,0,,10,,,69,127
49198,note_on,1,0,0,,6,,,66,127
49198,note_on,0,0,0,,2,,,62,127
49341,note_off,143,0,0,,2,,,62,127
49341,note_off,0,0,0,,6,,,66,127
49342,note_on,1,0,0,,2,,,62,127
49342,note_on,0,0,0,,12,,,59,127
49485,note_off,143,0,0,,12,,,59,127
49485,note_off,0,0,0,,2,,,62,127
49486,note_on,1,0,0,,12,,,59,127
49486,note_on,0,0,0,,7,,,55,127
49629,note_off,143,0,0,,7,,,55,127
49629,note_off,0,0,0,,12,,,59,127
49630,note_on,1,0,0,,7,,,55,127
49630,note_on,0,0,0,,4,,,52,127
49917,note_off,287,0,0,,4,,,52,127
49917,note_off,0,0,0,,7,,,55,127
49918,note_on,1,0,0,,2,,,62,127
49918,note_on,0,0,0,,0,,,48,127
49989,note_off,71,0,0,,2,,,62,127
49990,note_on,1,0,0,,0,,,60,127
50061,note_off,71,0,0,,0,,,60,127
50062,note_on,1,0,0,,12,,,59,127
50133,note_off,71,0,0,,12,,,59,127
50134,note_on,1,0,0,,10,,,57,127
50205,note_off,71,0,0,,10,,,57,127
50205,note_off,0,0,0,,0,,,48,127
50206,note_on,1,0,0,,7,,,55,127
50206,note_on,0,0,0,,12,,,59,127
50206,note_on,0,0,0,,2,,,50,127
50493,note_off,287,0,0,,2,,,50,127
50493,note_off,0,0,0,,12,,,59,127
50493,note_off,0,0,0,,7,,,55,127
50494,note_on,1,0,0,,10,,,57,127
50494,note_on,0,0,0,,6,,,54,127
50494,note_on,0,0,0,,2,,,38,127
50781,note_off,287,0,0,,2,,,38,127
50781,note_off,0,0,0,,6,,,54,127
50781,note_off,0,0,0,,10,,,57,127
50782,note_on,1,0,0,,7,,,55,127
50782,note_on,0,0,0,,7,,,43,127
50997,note_off,215,0,0,,7,,,43,127
50998,note_on,1,0,0,,10,,,45,127
51069,note_off,71,0,0,,10,,,45,127
51070,note_on,1,0,0,,12,,,47,127
51141,note_off,71,0,0,,12,,,47,127
51142,note_on,1,0,0,,0,,,48,127
51213,note_off,71,0,0,,0,,,48,127
51214,note_on,1,0,0,,2,,,50,127
51285,note_off,71,0,0,,2,,,50,127
51286,note_on,1,0,0,,4,,,52,127
51357,note_off,71,0,0,,4,,,52,127
51357,note_off,0,0,0,,7,,,55,127
51358,note_on,1,0,0,,6,,,54,127
51429,note_off,71,0,0,,6,,,54,127
51430,note_on,1,0,0,,7,,,55,127
51501,note_off,71,0,0,,7,,,55,127
51502,note_on,1,0,0,,10,,,57,127
51573,note_off,71,0,0,,10,,,57,127
51574,note_on,1,0,0,,12,,,59,127
51645,note_off,71,0,0,,12,,,59,127
51646,note_on,1,0,0,,0,,,60,127
51717,note_off,71,0,0,,0,,,60,127
51718,note_on,1,0,0,,2,,,62,127
51789,note_off,71,0,0,,2,,,62,127
51790,note_on,1,0,0,,4,,,64,127
51861,note_off,71,0,0,,4,,,64,127
51862,note_on,1,0,0,,6,,,66,127
51933,note_off,71,0,0,,6,,,66,127
51934,note_on,1,0,0,,7,,,67,127
52150,note_on,216,0,0,,10,,,69,127
52221,note_off,71,0,0,,10,,,69,127
52222,note_on,1,0,0,,12,,,71,127
52293,note_off,71,0,0,,12,,,71,127
52294,note_on,1,0,0,,0,,,72,127
52365,note_off,71,0,0,,0,,,72,127
52366,note_on,1,0,0,,2,,,74,127
52437,note_off,71,0,0,,2,,,74,127
52438,note_on,1,0,0,,4,,,76,127
52509,note_off,71,0,0,,4,,,76,127
52510,note_on,1,0,0,,6,,,78,127
52581,note_off,71,0,0,,6,,,78,127
52582,note_on,1,0,0,,7,,,79,127
52653,note_off,71,0,0,,7,,,79,127
52654,note_on,1,0,0,,10,,,81,127
52725,note_off,71,0,0,,10,,,81,127
52726,note_on,1,0,0,,12,,,83,127
52797,note_off,71,0,0,,12,,,83,127
52798,note_on,1,0,0,,0,,,84,127
52869,note_off,71,0,0,,0,,,84,127
52870,note_on,1,0,0,,2,,,86,127
52941,note_off,71,0,0,,2,,,86,127
52942,note_on,1,0,0,,4,,,88,127
53013,note_off,71,0,0,,4,,,88,127
53014,note_on,1,0,0,,6,,,90,127
53085,note_off,71,0,0,,6,,,90,127
53086,note_on,1,0,0,,7,,,91,127
53229,note_off,143,0,0,,7,,,91,127
53230,note_on,1,0,0,,6,,,90,127
53373,note_off,143,0,0,,7,,,67,127
53374,note_on,1,0,0,,7,,,67,127
53374,note_on,0,0,0,,12,,,71,127
53517,note_off,143,0,0,,6,,,90,127
53518,note_on,1,0,0,,4,,,88,127
53661,note_off,143,0,0,,12,,,71,127
53661,note_off,0,0,0,,7,,,67,127
53662,note_on,1,0,0,,10,,,69,127
53662,note_on,0,0,0,,6,,,66,127
53805,note_off,143,0,0,,4,,,88,127
53806,note_on,1,0,0,,2,,,86,127
53949,note_off,143,0,0,,6,,,66,127
53949,note_off,0,0,0,,10,,,69,127
53950,note_on,1,0,0,,10,,,69,127
53950,note_on,0,0,0,,2,,,62,127
54093,note_off,143,0,0,,2,,,86,127
54094,note_on,1,0,0,,0,,,84,127
54237,note_off,143,0,0,,2,,,62,127
54237,note_off,0,0,0,,10,,,69,127
54238,note_on,1,0,0,,12,,,71,127
54238,note_on,0,0,0,,7,,,67,127
54381,note_off,143,0,0,,0,,,84,127
54382,note_on,1,0,0,,12,,,83,127
54525,note_off,143,0,0,,7,,,67,127
54525,note_off,0,0,0,,12,,,71,127
54526,note_on,1,0,0,,0,,,72,127
54526,note_on,0,0,0,,0,,,60,127
54526,note_on,0,0,0,,7,,,67,127
54669,note_off,143,0,0,,12,,,83,127
54670,note_on,1,0,0,,10,,,81,127
54813,note_off,143,0,0,,7,,,67,127
54813,note_off,0,0,0,,0,,,60,127
54813,note_off,0,0,0,,0,,,72,127
54814,note_on,1,0,0,,12,,,71,127
54814,note_on,0,0,0,,7,,,67,127
54814,note_on,0,0,0,,2,,,62,127
54957,note_off,143,0,0,,10,,,81,127
54958,note_on,1,0,0,,7,,,79,127
55101,note_off,143,0,0,,2,,,62,127
55101,note_off,0,0,0,,7,,,67,127
55101,note_off,0,0,0,,12,,,71,127
55102,note_on,1,0,0,,10,,,69,127
55102,note_on,0,0,0,,2,,,62,127
55102,note_on,0,0,0,,6,,,66,127
55245,note_off,143,0,0,,7,,,79,127
55246,note_on,1,0,0,,6,,,78,127
55387,note_off,141,0,0,,6,,,66,127
55387,note_off,0,0,0,,2,,,62,127
55387,note_off,0,0,0,,10,,,69,127
55389,note_off,2,0,0,,6,,,78,127
55390,note_on,1,0,0,,7,,,79,127
55533,note_off,143,0,0,,7,,,79,127
55534,note_on,1,0,0,,6,,,78,127
55678,note_on,144,0,0,,7,,,55,127
55678,note_on,0,0,0,,2,,,62,127
55678,note_on,0,0,0,,12,,,59,127
55821,note_off,143,0,0,,6,,,78,127
55822,note_on,1,0,0,,4,,,76,127
55965,note_off,143,0,0,,12,,,59,127
55965,note_off,0,0,0,,2,,,62,127
55965,note_off,0,0,0,,7,,,55,127
55966,note_on,1,0,0,,2,,,62,127
55966,note_on,0,0,0,,6,,,54,127
55966,note_on,0,0,0,,10,,,57,127
56109,note_off,143,0,0,,4,,,76,127
56110,note_on,1,0,0,,2,,,74,127
56253,note_off,143,0,0,,10,,,57,127
56253,note_off,0,0,0,,6,,,54,127
56253,note_off,0,0,0,,2,,,62,127
56254,note_on,1,0,0,,2,,,62,127
56254,note_on,0,0,0,,2,,,50,127
56254,note_on,0,0,0,,10,,,57,127
56397,note_off,143,0,0,,2,,,74,127
56398,note_on,1,0,0,,0,,,72,127
56541,note_off,143,0,0,,0,,,72,127
56541,note_off,0,0,0,,10,,,57,127
56541,note_off,0,0,0,,2,,,50,127
56541,note_off,0,0,0,,2,,,62,127
56542,note_on,1,0,0,,7,,,67,127
56542,note_on,0,0,0,,12,,,71,127
56542,note_on,0,0,0,,7,,,55,127
56613,note_off,71,0,0,,12,,,71,127
56614,note_on,1,0,0,,10,,,69,127
56685,note_off,71,0,0,,10,,,69,127
56686,note_on,1,0,0,,12,,,71,127
56829,note_off,143,0,0,,7,,,55,127
56830,note_on,1,0,0,,0,,,60,127
56941,note_off,111,0,0,,12,,,71,127
56943,note_off,2,0,0,,7,,,67,127
56974,note_on,31,0,0,,10,,,69,127
56974,note_on,0,0,0,,0,,,72,127
57117,note_off,143,0,0,,0,,,60,127
57118,note_on,1,0,0,,2,,,62,127
57229,note_off,111,0,0,,0,,,72,127
57229,note_off,0,0,0,,10,,,69,127
57262,note_on,33,0,0,,7,,,67,127
57262,note_on,0,0,0,,12,,,71,127
57405,note_off,143,0,0,,2,,,62,127
57406,note_on,1,0,0,,2,,,50,127
57547,note_off,141,0,0,,12,,,71,127
57547,note_off,0,0,0,,7,,,67,127
57550,note_on,3,0,0,,10,,,69,127
57550,note_on,0,0,0,,6,,,66,127
57691,note_off,141,0,0,,2,,,50,127
57700,note_off,9,0,0,,6,,,66,127
57700,note_off,0,0,0,,10,,,69,127
57712,note_on,12,0,0,,0,,,72,127
57712,note_on,0,0,0,,4,,,76,127
57855,note_off,143,0,0,,4,,,76,127
57855,note_off,0,0,0,,0,,,72,127
57856,note_on,1,0,0,,2,,,74,127
57856,note_on,0,0,0,,6,,,78,127
58000,note_on,144,0,0,,0,,,60,127
58143,note_off,143,0,0,,6,,,78,127
58143,note_off,0,0,0,,2,,,74,127
58144,note_on,1,0,0,,4,,,76,127
58144,note_on,0,0,0,,7,,,79,127
58287,note_off,143,0,0,,7,,,79,127
58287,note_off,0,0,0,,4,,,76,127
58287,note_off,0,0,0,,0,,,60,127
58288,note_on,1,0,0,,2,,,62,127
58288,note_on,0,0,0,,6,,,78,127
58288,note_on,0,0,0,,2,,,74,127
58431,note_off,143,0,0,,2,,,74,127
58431,note_off,0,0,0,,6,,,78,127
58432,note_on,1,0,0,,0,,,72,127
58432,note_on,0,0,0,,4,,,76,127
58575,note_off,143,0,0,,4,,,76,127
58575,note_off,0,0,0,,0,,,72,127
58575,note_off,0,0,0,,2,,,62,127
58576,note_on,1,0,0,,2,,,50,127
58576,note_on,0,0,0,,12,,,71,127
58576,note_on,0,0,0,,2,,,74,127
58719,note_off,143,0,0,,2,,,74,127
58719,note_off,0,0,0,,12,,,71,127
58720,note_on,1,0,0,,0,,,72,127
58720,note_on,0,0,0,,10,,,69,127
58863,note_off,143,0,0,,10,,,69,127
58863,note_off,0,0,0,,0,,,72,127
58863,note_off,0,0,0,,2,,,50,127
58864,note_on,1,0,0,,7,,,55,127
58864,note_on,0,0,0,,7,,,67,127
58864,note_on,0,0,0,,12,,,71,127
58935,note_off,71,0,0,,12,,,71,127
58936,note_on,1,0,0,,10,,,69,127
59007,note_off,71,0,0,,10,,,69,127
59008,note_on,1,0,0,,12,,,71,127
59151,note_off,143,0,0,,7,,,55,127
59152,note_on,1,0,0,,0,,,60,127
59270,note_off,118,0,0,,12,,,71,127
59272,note_off,2,0,0,,7,,,67,127
59295,note_on,23,0,0,,10,,,69,127
59295,note_on,0,0,0,,0,,,72,127
59438,note_off,143,0,0,,0,,,60,127
59439,note_on,1,0,0,,2,,,62,127
59580,note_off,141,0,0,,0,,,72,127
59580,note_off,0,0,0,,10,,,69,127
59583,note_on,3,0,0,,7,,,67,127
59583,note_on,0,0,0,,12,,,71,127
59726,note_off,143,0,0,,2,,,62,127
59727,note_on,1,0,0,,2,,,50,127
59870,note_off,143,0,0,,12,,,71,127
59870,note_off,0,0,0,,7,,,67,127
59871,note_on,1,0,0,,6,,,66,127
59871,note_on,0,0,0,,10,,,69,127
60012,note_off,141,0,0,,2,,,50,127
60014,note_off,2,0,0,,10,,,69,127
60014,note_off,0,0,0,,6,,,66,127
60028,note_on,14,0,0,,0,,,72,127
60028,note_on,0,0,0,,4,,,76,127
60171,note_off,143,0,0,,4,,,76,127
60171,note_off,0,0,0,,0,,,72,127
60172,note_on,1,0,0,,2,,,74,127
60172,note_on,0,0,0,,6,,,78,127
60316,note_on,144,0,0,,0,,,60,127
60459,note_off,143,0,0,,6,,,78,127
60459,note_off,0,0,0,,2,,,74,127
60460,note_on,1,0,0,,4,,,76,127
60460,note_on,0,0,0,,7,,,79,127
60603,note_off,143,0,0,,7,,,79,127
60603,note_off,0,0,0,,4,,,76,127
60603,note_off,0,0,0,,0,,,60,127
60604,note_on,1,0,0,,2,,,74,127
60604,note_on,0,0,0,,6,,,78,127
60604,note_on,0,0,0,,2,,,62,127
60747,note_off,143,0,0,,6,,,78,127
60747,note_off,0,0,0,,2,,,74,127
60748,note_on,1,0,0,,0,,,72,127
60748,note_on,0,0,0,,4,,,76,127
60891,note_off,143,0,0,,4,,,76,127
60891,note_off,0,0,0,,0,,,72,127
60891,note_off,0,0,0,,2,,,62,127
60892,note_on,1,0,0,,12,,,71,127
60892,note_on,0,0,0,,2,,,74,127
60892,note_on,0,0,0,,2,,,50,127
61035,note_off,143,0,0,,2,,,74,127
61035,note_off,0,0,0,,12,,,71,127
61036,note_on,1,0,0,,10,,,69,127
61036,note_on,0,0,0,,0,,,72,127
61179,note_off,143,0,0,,0,,,72,127
61179,note_off,0,0,0,,10,,,69,127
61179,note_off,0,0,0,,2,,,50,127
61180,note_on,1,0,0,,7,,,67,127
61180,note_on,0,0,0,,12,,,71,127
61180,note_on,0,0,0,,7,,,43,127
61251,note_off,71,0,0,,12,,,71,127
61252,note_on,1,0,0,,10,,,69,127
61323,note_off,71,0,0,,10,,,69,127
61324,note_on,1,0,0,,12,,,71,127
61465,note_off,141,0,0,,7,,,67,127
61467,note_off,2,0,0,,12,,,71,127
61467,note_off,0,0,0,,7,,,43,127
61468,note_on,1,0,0,,7,,,67,127
61468,note_on,0,0,0,,0,,,72,127
61468,note_on,0,0,0,,0,,,48,127
61539,note_off,71,0,0,,0,,,72,127
61540,note_on,1,0,0,,12,,,71,127
61611,note_off,71,0,0,,12,,,71,127
61612,note_on,1,0,0,,10,,,69,127
61755,note_off,143,0,0,,10,,,69,127
61755,note_off,0,0,0,,0,,,48,127
61756,note_on,1,0,0,,12,,,71,127
61756,note_on,0,0,0,,2,,,50,127
62043,note_off,287,0,0,,2,,,50,127
62043,note_off,0,0,0,,12,,,71,127
62043,note_off,0,0,0,,7,,,67,127
62044,note_on,1,0,0,,6,,,66,127
62044,note_on,0,0,0,,12,,,71,127
62044,note_on,0,0,0,,2,,,38,127
62115,note_off,71,0,0,,12,,,71,127
62116,note_on,1,0,0,,10,,,69,127
62187,note_off,71,0,0,,10,,,69,127
62188,note_on,1,0,0,,7,,,67,127
62259,note_off,71,0,0,,7,,,67,127
62260,note_on,1,0,0,,10,,,69,127
62329,note_off,69,0,0,,6,,,66,127
62331,note_off,2,0,0,,10,,,69,127
62331,note_off,0,0,0,,2,,,38,127
62332,note_on,1,0,0,,7,,,67,127
62332,note_on,0,0,0,,2,,,50,127
62332,note_on,0,0,0,,7,,,55,127
62332,note_on,0,0,0,,7,,,43,127
62547,note_off,215,0,0,,7,,,67,127
62548,note_on,1,0,0,,12,,,71,127
62619,note_off,71,0,0,,12,,,71,127
62619,note_off,0,0,0,,7,,,43,127
62619,note_off,0,0,0,,7,,,55,127
62619,note_off,0,0,0,,2,,,50,127
62620,note_on,1,0,0,,7,,,67,127
62620,note_on,0,0,0,,7,,,55,127
62620,note_on,0,0,0,,2,,,50,127
62620,note_on,0,0,0,,7,,,43,127
62835,note_off,215,0,0,,7,,,67,127
62836,note_on,1,0,0,,2,,,74,127
62907,note_off,71,0,0,,2,,,74,127
62907,note_off,0,0,0,,7,,,43,127
62907,note_off,0,0,0,,2,,,50,127
62907,note_off,0,0,0,,7,,,55,127
62908,note_on,1,0,0,,12,,,71,127
62908,note_on,0,0,0,,7,,,55,127
62908,note_on,0,0,0,,2,,,50,127
62908,note_on,0,0,0,,7,,,43,127
63123,note_off,215,0,0,,12,,,71,127
63124,note_on,1,0,0,,7,,,79,127
63195,note_off,71,0,0,,7,,,79,127
63195,note_off,0,0,0,,7,,,43,127
63195,note_off,0,0,0,,2,,,50,127
63195,note_off,0,0,0,,7,,,55,127
63196,note_on,1,0,0,,2,,,74,127
63196,note_on,0,0,0,,7,,,55,127
63196,note_on,0,0,0,,7,,,43,127
63196,note_on,0,0,0,,2,,,50,127
63411,note_off,215,0,0,,2,,,74,127
63412,note_on,1,0,0,,12,,,83,127
63483,note_off,71,0,0,,12,,,83,127
63483,note_off,0,0,0,,2,,,50,127
63483,note_off,0,0,0,,7,,,43,127
63483,note_off,0,0,0,,7,,,55,127
63484,note_on,1,0,0,,7,,,79,127
63484,note_on,0,0,0,,2,,,50,127
63484,note_on,0,0,0,,7,,,55,127
63484,note_on,0,0,0,,7,,,43,127
63699,note_off,215,0,0,,7,,,79,127
63700,note_on,1,0,0,,2,,,86,127
63771,note_off,71,0,0,,2,,,86,127
63771,note_off,0,0,0,,7,,,43,127
63771,note_off,0,0,0,,7,,,55,127
63771,note_off,0,0,0,,2,,,50,127
63772,note_on,1,0,0,,12,,,83,127
63772,note_on,0,0,0,,7,,,55,127
63772,note_on,0,0,0,,2,,,50,127
63772,note_on,0,0,0,,7,,,43,127
63987,note_off,215,0,0,,12,,,83,127
63988,note_on,1,0,0,,7,,,79,127
64059,note_off,71,0,0,,7,,,79,127
64059,note_off,0,0,0,,7,,,43,127
64059,note_off,0,0,0,,2,,,50,127
64059,note_off,0,0,0,,7,,,55,127
64060,note_on,1,0,0,,2,,,74,127
64060,note_on,0,0,0,,7,,,55,127
64060,note_on,0,0,0,,7,,,43,127
64060,note_on,0,0,0,,2,,,50,127
64275,note_off,215,0,0,,2,,,74,127
64276,note_on,1,0,0,,12,,,71,127
64347,note_off,71,0,0,,12,,,71,127
64347,note_off,0,0,0,,2,,,50,127
64347,note_off,0,0,0,,7,,,43,127
64347,note_off,0,0,0,,7,,,55,127
64348,note_on,1,0,0,,7,,,67,127
64348,note_on,0,0,0,,7,,,55,127
64348,note_on,0,0,0,,2,,,50,127
64348,note_on,0,0,0,,7,,,43,127
64563,note_off,215,0,0,,7,,,67,127
64564,note_on,1,0,0,,2,,,62,127
64635,note_off,71,0,0,,2,,,62,127
64635,note_off,0,0,0,,7,,,43,127
64635,note_off,0,0,0,,2,,,50,127
64635,note_off,0,0,0,,7,,,55,127
64636,note_on,1,0,0,,7,,,67,127
64636,note_on,0,0,0,,7,,,43,127
65498,note_off,862,0,0,,7,,,67,127
65787,note_off,289,0,0,,7,,,43,127
65872,note_on,85,0,0,,10,,,69,127
65872,note_on,0,0,0,,7,,,43,127
65943,note_off,71,0,0,,10,,,69,127
65944,note_on,1,0,0,,7,,,67,127
66015,note_off,71,0,0,,7,,,67,127
66016,note_on,1,0,0,,10,,,69,127
66087,note_off,71,0,0,,10,,,69,127
66088,note_on,1,0,0,,7,,,67,127
66159,note_off,71,0,0,,7,,,67,127
66160,note_on,1,0,0,,10,,,69,127
66231,note_off,71,0,0,,10,,,69,127
66232,note_on,1,0,0,,7,,,67,127
66303,note_off,71,0,0,,7,,,67,127
66304,note_on,1,0,0,,10,,,69,127
66375,note_off,71,0,0,,10,,,69,127
66376,note_on,1,0,0,,7,,,67,127
66447,note_off,71,0,0,,7,,,67,127
66448,note_on,1,0,0,,10,,,69,127
66519,note_off,71,0,0,,10,,,69,127
66520,note_on,1,0,0,,7,,,67,127
66591,note_off,71,0,0,,7,,,67,127
66592,note_on,1,0,0,,6,,,66,127
66663,note_off,71,0,0,,6,,,66,127
66664,note_on,1,0,0,,7,,,67,127
66735,note_off,71,0,0,,7,,,67,127
66736,note_on,1,0,0,,10,,,69,127
66807,note_off,71,0,0,,10,,,69,127
66808,note_on,1,0,0,,12,,,71,127
66879,note_off,71,0,0,,12,,,71,127
66880,note_on,1,0,0,,0,,,72,127
66948,note_off,68,0,0,,7,,,43,127
66951,note_off,3,0,0,,0,,,72,127
66952,note_on,1,0,0,,2,,,74,127
67239,note_off,287,0,0,,2,,,74,127
67240,note_on,1,0,0,,2,,,74,127
67527,note_off,287,0,0,,2,,,74,127
67528,note_on,1,0,0,,2,,,74,127
67815,note_off,287,0,0,,2,,,74,127
67816,note_on,1,0,0,,2,,,74,127
68103,note_off,287,0,0,,2,,,74,127
68116,note_on,13,0,0,,10,,,57,127
68116,note_on,0,0,0,,2,,,74,127
68192,note_off,76,0,0,,10,,,57,127
68192,note_on,0,0,0,,7,,,55,127
68268,note_off,76,0,0,,7,,,55,127
68269,note_on,1,0,0,,10,,,57,127
68345,note_off,76,0,0,,10,,,57,127
68346,note_on,1,0,0,,7,,,55,127
68422,note_off,76,0,0,,7,,,55,127
68422,note_on,0,0,0,,10,,,57,127
68498,note_off,76,0,0,,10,,,57,127
68499,note_on,1,0,0,,7,,,55,127
68575,note_off,76,0,0,,7,,,55,127
68576,note_on,1,0,0,,10,,,57,127
68652,note_off,76,0,0,,10,,,57,127
68653,note_on,1,0,0,,7,,,55,127
68729,note_off,76,0,0,,7,,,55,127
68729,note_on,0,0,0,,10,,,57,127
68805,note_off,76,0,0,,10,,,57,127
68806,note_on,1,0,0,,7,,,55,127
68882,note_off,76,0,0,,7,,,55,127
68883,note_on,1,0,0,,6,,,54,127
68959,note_off,76,0,0,,6,,,54,127
68959,note_on,0,0,0,,7,,,55,127
69035,note_off,76,0,0,,7,,,55,127
69036,note_on,1,0,0,,10,,,57,127
69112,note_off,76,0,0,,10,,,57,127
69113,note_on,1,0,0,,12,,,59,127
69189,note_off,76,0,0,,12,,,59,127
69190,note_on,1,0,0,,0,,,60,127
69264,note_on,74,0,0,,2,,,62,127
69267,note_off,3,0,0,,0,,,60,127
69551,note_off,284,0,0,,2,,,62,127
69552,note_on,1,0,0,,2,,,62,127
69839,note_off,287,0,0,,2,,,62,127
69840,note_on,1,0,0,,2,,,62,127
70127,note_off,287,0,0,,2,,,62,127
70128,note_on,1,0,0,,2,,,62,127
70415,note_off,287,0,0,,2,,,62,127
70415,note_off,0,0,0,,2,,,74,127
70428,note_on,13,0,0,,2,,,62,127
70428,note_on,0,0,0,,4,,,76,127
70504,note_off,76,0,0,,4,,,76,127
70504,note_on,0,0,0,,2,,,74,127
70580,note_off,76,0,0,,2,,,74,127
70581,note_on,1,0,0,,4,,,76,127
70657,note_off,76,0,0,,4,,,76,127
70658,note_on,1,0,0,,2,,,74,127
70714,note_off,56,0,0,,2,,,62,127
70715,note_on,1,0,0,,10,,,57,127
70735,note_off,20,0,0,,2,,,74,127
70735,note_on,0,0,0,,4,,,76,127
70811,note_off,76,0,0,,4,,,76,127
70812,note_on,1,0,0,,2,,,74,127
70888,note_off,76,0,0,,2,,,74,127
70889,note_on,1,0,0,,4,,,76,127
70965,note_off,76,0,0,,4,,,76,127
70966,note_on,1,0,0,,2,,,74,127
71002,note_off,36,0,0,,10,,,57,127
71003,note_on,1,0,0,,5,,,53,127
71043,note_off,40,0,0,,2,,,74,127
71043,note_on,0,0,0,,4,,,76,127
71119,note_off,76,0,0,,4,,,76,127
71120,note_on,1,0,0,,2,,,74,127
71196,note_off,76,0,0,,2,,,74,127
71197,note_on,1,0,0,,1,,,73,127
71273,note_off,76,0,0,,1,,,73,127
71273,note_on,0,0,0,,2,,,74,127
71289,note_off,16,0,0,,5,,,53,127
71290,note_on,1,0,0,,2,,,50,127
71349,note_off,59,0,0,,2,,,74,127
71350,note_on,1,0,0,,4,,,76,127
71426,note_off,76,0,0,,4,,,76,127
71427,note_on,1,0,0,,5,,,77,127
71503,note_off,76,0,0,,5,,,77,127
71504,note_on,1,0,0,,7,,,79,127
71577,note_off,73,0,0,,2,,,50,127
71578,note_on,1,0,0,,2,,,62,127
71578,note_on,0,0,0,,10,,,81,127
71581,note_off,3,0,0,,7,,,79,127
71865,note_off,284,0,0,,10,,,81,127
71865,note_off,0,0,0,,2,,,62,127
71866,note_on,1,0,0,,0,,,60,127
71866,note_on,0,0,0,,10,,,81,127
72153,note_off,287,0,0,,10,,,81,127
72153,note_off,0,0,0,,0,,,60,127
72154,note_on,1,0,0,,11,,,58,127
72154,note_on,0,0,0,,10,,,81,127
72441,note_off,287,0,0,,10,,,81,127
72441,note_off,0,0,0,,11,,,58,127
72442,note_on,1,0,0,,10,,,57,127
72442,note_on,0,0,0,,10,,,81,127
72729,note_off,287,0,0,,10,,,81,127
72729,note_off,0,0,0,,10,,,57,127
72730,note_on,1,0,0,,7,,,55,127
72730,note_on,0,0,0,,2,,,62,127
72730,note_on,0,0,0,,11,,,82,127
72873,note_off,143,0,0,,11,,,82,127
72874,note_on,1,0,0,,2,,,74,127
73017,note_off,143,0,0,,2,,,74,127
73017,note_off,0,0,0,,7,,,55,127
73018,note_on,1,0,0,,10,,,57,127
73018,note_on,0,0,0,,0,,,72,127
73161,note_off,143,0,0,,0,,,72,127
73162,note_on,1,0,0,,10,,,81,127
73305,note_off,143,0,0,,10,,,81,127
73305,note_off,0,0,0,,10,,,57,127
73306,note_on,1,0,0,,11,,,58,127
73306,note_on,0,0,0,,7,,,79,127
73449,note_off,143,0,0,,7,,,79,127
73450,note_on,1,0,0,,11,,,70,127
73593,note_off,143,0,0,,11,,,70,127
73593,note_off,0,0,0,,11,,,58,127
73594,note_on,1,0,0,,10,,,57,127
73594,note_on,0,0,0,,10,,,69,127
73737,note_off,143,0,0,,10,,,69,127
73738,note_on,1,0,0,,5,,,77,127
73878,note_off,140,0,0,,2,,,62,127
73882,note_off,4,0,0,,5,,,77,127
73882,note_off,0,0,0,,10,,,57,127
73883,note_on,1,0,0,,7,,,55,127
73883,note_on,0,0,0,,2,,,62,127
73883,note_on,0,0,0,,4,,,76,127
74026,note_off,143,0,0,,4,,,76,127
74027,note_on,1,0,0,,7,,,67,127
74170,note_off,143,0,0,,7,,,67,127
74170,note_off,0,0,0,,7,,,55,127
74171,note_on,1,0,0,,10,,,57,127
74171,note_on,0,0,0,,5,,,65,127
74314,note_off,143,0,0,,5,,,65,127
74315,note_on,1,0,0,,2,,,74,127
74458,note_off,143,0,0,,2,,,74,127
74458,note_off,0,0,0,,10,,,57,127
74459,note_on,1,0,0,,11,,,58,127
74459,note_on,0,0,0,,1,,,73,127
74602,note_off,143,0,0,,1,,,73,127
74603,note_on,1,0,0,,4,,,64,127
74746,note_off,143,0,0,,4,,,64,127
74746,note_off,0,0,0,,11,,,58,127
74747,note_on,1,0,0,,7,,,55,127
74747,note_on,0,0,0,,5,,,65,127
74890,note_off,143,0,0,,5,,,65,127
74891,note_on,1,0,0,,2,,,74,127
75031,note_off,140,0,0,,2,,,62,127
75035,note_off,4,0,0,,2,,,74,127
75035,note_off,0,0,0,,7,,,55,127
75048,note_on,13,0,0,,12,,,59,127
75048,note_on,0,0,0,,4,,,64,127
75048,note_on,0,0,0,,2,,,74,127
75124,note_off,76,0,0,,12,,,59,127
75124,note_on,0,0,0,,10,,,57,127
75200,note_off,76,0,0,,10,,,57,127
75201,note_on,1,0,0,,12,,,59,127
75277,note_off,76,0,0,,12,,,59,127
75278,note_on,1,0,0,,10,,,57,127
75334,note_off,56,0,0,,2,,,74,127
75334,note_off,0,0,0,,4,,,64,127
75335,note_on,1,0,0,,1,,,73,127
75355,note_off,20,0,0,,10,,,57,127
75355,note_on,0,0,0,,12,,,59,127
75431,note_off,76,0,0,,12,,,59,127
75432,note_on,1,0,0,,10,,,57,127
75508,note_off,76,0,0,,10,,,57,127
75509,note_on,1,0,0,,12,,,59,127
75585,note_off,76,0,0,,12,,,59,127
75586,note_on,1,0,0,,10,,,57,127
75662,note_off,76,0,0,,10,,,57,127
75662,note_on,0,0,0,,12,,,59,127
75738,note_off,76,0,0,,12,,,59,127
75739,note_on,1,0,0,,10,,,57,127
75765,note_off,26,0,0,,1,,,73,127
75815,note_off,50,0,0,,10,,,57,127
75816,note_on,1,0,0,,8,,,56,127
75892,note_off,76,0,0,,8,,,56,127
75892,note_on,0,0,0,,10,,,57,127
75968,note_off,76,0,0,,10,,,57,127
75969,note_on,1,0,0,,12,,,59,127
76045,note_off,76,0,0,,12,,,59,127
76046,note_on,1,0,0,,1,,,61,127
76122,note_off,76,0,0,,1,,,61,127
76123,note_on,1,0,0,,2,,,62,127
76197,note_on,74,0,0,,4,,,64,127
76200,note_off,3,0,0,,2,,,62,127
76484,note_off,284,0,0,,4,,,64,127
76485,note_on,1,0,0,,4,,,64,127
76772,note_off,287,0,0,,4,,,64,127
76773,note_on,1,0,0,,4,,,64,127
77060,note_off,287,0,0,,4,,,64,127
77061,note_on,1,0,0,,4,,,64,127
77348,note_off,287,0,0,,4,,,64,127
77349,note_on,1,0,0,,5,,,65,127
77492,note_off,143,0,0,,5,,,65,127
77493,note_on,1,0,0,,10,,,57,127
77636,note_off,143,0,0,,10,,,57,127
77637,note_on,1,0,0,,7,,,55,127
77780,note_off,143,0,0,,7,,,55,127
77781,note_on,1,0,0,,4,,,64,127
77924,note_off,143,0,0,,4,,,64,127
77925,note_on,1,0,0,,2,,,62,127
78068,note_off,143,0,0,,2,,,62,127
78069,note_on,1,0,0,,5,,,53,127
78212,note_off,143,0,0,,5,,,53,127
78213,note_on,1,0,0,,4,,,52,127
78356,note_off,143,0,0,,4,,,52,127
78357,note_on,1,0,0,,0,,,60,127
78500,note_off,143,0,0,,0,,,60,127
78501,note_on,1,0,0,,11,,,58,127
78644,note_off,143,0,0,,11,,,58,127
78645,note_on,1,0,0,,2,,,50,127
78788,note_off,143,0,0,,2,,,50,127
78789,note_on,1,0,0,,0,,,48,127
78932,note_off,143,0,0,,0,,,48,127
78933,note_on,1,0,0,,10,,,57,127
79076,note_off,143,0,0,,10,,,57,127
79077,note_on,1,0,0,,7,,,55,127
79220,note_off,143,0,0,,7,,,55,127
79221,note_on,1,0,0,,11,,,46,127
79364,note_off,143,0,0,,11,,,46,127
79365,note_on,1,0,0,,10,,,45,127
79508,note_off,143,0,0,,10,,,45,127
79509,note_on,1,0,0,,5,,,53,127
79652,note_off,143,0,0,,5,,,53,127
79653,note_on,1,0,0,,4,,,52,127
79796,note_off,143,0,0,,4,,,52,127
79797,note_on,1,0,0,,7,,,43,127
79940,note_off,143,0,0,,7,,,43,127
79941,note_on,1,0,0,,5,,,41,127
80084,note_off,143,0,0,,5,,,41,127
80085,note_on,1,0,0,,2,,,50,127
80228,note_off,143,0,0,,2,,,50,127
80229,note_on,1,0,0,,4,,,40,127
80372,note_off,143,0,0,,4,,,40,127
80373,note_on,1,0,0,,1,,,49,127
80516,note_off,143,0,0,,1,,,49,127
80517,note_on,1,0,0,,2,,,38,127
80660,note_off,143,0,0,,2,,,38,127
80661,note_on,1,0,0,,2,,,50,127
80804,note_off,143,0,0,,2,,,50,127
80817,note_on,13,0,0,,10,,,45,127
80817,note_on,0,0,0,,12,,,71,127
80893,note_off,76,0,0,,12,,,71,127
80893,note_on,0,0,0,,10,,,69,127
80969,note_off,76,0,0,,10,,,69,127
80970,note_on,1,0,0,,12,,,71,127
81046,note_off,76,0,0,,12,,,71,127
81047,note_on,1,0,0,,10,,,69,127
81123,note_off,76,0,0,,10,,,69,127
81123,note_on,0,0,0,,12,,,71,127
81199,note_off,76,0,0,,12,,,71,127
81200,note_on,1,0,0,,10,,,69,127
81276,note_off,76,0,0,,10,,,69,127
81277,note_on,1,0,0,,12,,,71,127
81353,note_off,76,0,0,,12,,,71,127
81354,note_on,1,0,0,,10,,,69,127
81430,note_off,76,0,0,,10,,,69,127
81430,note_on,0,0,0,,12,,,71,127
81506,note_off,76,0,0,,12,,,71,127
81507,note_on,1,0,0,,10,,,69,127
81583,note_off,76,0,0,,10,,,69,127
81584,note_on,1,0,0,,8,,,68,127
81660,note_off,76,0,0,,8,,,68,127
81660,note_on,0,0,0,,10,,,69,127
81736,note_off,76,0,0,,10,,,69,127
81737,note_on,1,0,0,,12,,,71,127
81813,note_off,76,0,0,,12,,,71,127
81814,note_on,1,0,0,,1,,,73,127
81890,note_off,76,0,0,,1,,,73,127
81891,note_on,1,0,0,,2,,,74,127
81960,note_off,69,0,0,,10,,,45,127
81964,note_on,4,0,0,,4,,,76,127
81967,note_off,3,0,0,,2,,,74,127
82251,note_off,284,0,0,,4,,,76,127
82252,note_on,1,0,0,,4,,,76,127
82539,note_off,287,0,0,,4,,,76,127
82540,note_on,1,0,0,,4,,,76,127
82827,note_off,287,0,0,,4,,,76,127
82828,note_on,1,0,0,,10,,,57,127
82828,note_on,0,0,0,,4,,,64,127
82828,note_on,0,0,0,,4,,,76,127
83115,note_off,287,0,0,,4,,,76,127
83115,note_off,0,0,0,,4,,,64,127
83115,note_off,0,0,0,,10,,,57,127
83128,note_on,13,0,0,,2,,,86,127
83128,note_on,0,0,0,,2,,,62,127
83128,note_on,0,0,0,,4,,,64,127
83128,note_on,0,0,0,,8,,,56,127
83415,note_off,287,0,0,,8,,,56,127
83415,note_off,0,0,0,,4,,,64,127
83415,note_off,0,0,0,,2,,,62,127
83415,note_off,0,0,0,,2,,,86,127
83416,note_on,1,0,0,,12,,,83,127
83416,note_on,0,0,0,,4,,,64,127
83416,note_on,0,0,0,,8,,,56,127
83416,note_on,0,0,0,,2,,,62,127
83703,note_off,287,0,0,,2,,,62,127
83703,note_off,0,0,0,,8,,,56,127
83703,note_off,0,0,0,,4,,,64,127
83703,note_off,0,0,0,,12,,,83,127
83704,note_on,1,0,0,,8,,,80,127
83704,note_on,0,0,0,,2,,,62,127
83704,note_on,0,0,0,,4,,,64,127
83704,note_on,0,0,0,,8,,,56,127
83991,note_off,287,0,0,,8,,,56,127
83991,note_off,0,0,0,,4,,,64,127
83991,note_off,0,0,0,,2,,,62,127
83991,note_off,0,0,0,,8,,,80,127
83992,note_on,1,0,0,,5,,,77,127
83992,note_on,0,0,0,,4,,,64,127
83992,note_on,0,0,0,,2,,,62,127
83992,note_on,0,0,0,,8,,,56,127
84279,note_off,287,0,0,,8,,,56,127
84279,note_off,0,0,0,,2,,,62,127
84279,note_off,0,0,0,,4,,,64,127
84280,note_on,1,0,0,,4,,,64,127
84280,note_on,0,0,0,,2,,,62,127
84280,note_on,0,0,0,,8,,,56,127
84477,note_off,197,0,0,,5,,,77,127
84567,note_off,90,0,0,,8,,,56,127
84567,note_off,0,0,0,,2,,,62,127
84567,note_off,0,0,0,,4,,,64,127
84568,note_on,1,0,0,,2,,,74,127
84568,note_on,0,0,0,,2,,,62,127
84568,note_on,0,0,0,,4,,,64,127
84568,note_on,0,0,0,,8,,,56,127
84855,note_off,287,0,0,,8,,,56,127
84855,note_off,0,0,0,,4,,,64,127
84855,note_off,0,0,0,,2,,,62,127
84856,note_on,1,0,0,,2,,,62,127
84856,note_on,0,0,0,,4,,,64,127
84856,note_on,0,0,0,,8,,,56,127
85143,note_off,287,0,0,,8,,,56,127
85143,note_off,0,0,0,,4,,,64,127
85143,note_off,0,0,0,,2,,,62,127
85143,note_off,0,0,0,,2,,,74,127
85144,note_on,1,0,0,,0,,,72,127
85144,note_on,0,0,0,,2,,,62,127
85144,note_on,0,0,0,,4,,,64,127
85144,note_on,0,0,0,,8,,,56,127
85287,note_off,143,0,0,,0,,,72,127
85288,note_on,1,0,0,,12,,,71,127
85431,note_off,143,0,0,,12,,,71,127
85431,note_off,0,0,0,,8,,,56,127
85431,note_off,0,0,0,,4,,,64,127
85431,note_off,0,0,0,,2,,,62,127
85432,note_on,1,0,0,,2,,,74,127
85432,note_on,0,0,0,,4,,,64,127
85432,note_on,0,0,0,,10,,,57,127
85503,note_off,71,0,0,,2,,,74,127
85504,note_on,1,0,0,,0,,,72,127
85575,note_off,71,0,0,,0,,,72,127
85576,note_on,1,0,0,,2,,,74,127
85647,note_off,71,0,0,,2,,,74,127
85648,note_on,1,0,0,,0,,,72,127
85719,note_off,71,0,0,,0,,,72,127
85719,note_off,0,0,0,,10,,,57,127
85719,note_off,0,0,0,,4,,,64,127
85720,note_on,1,0,0,,2,,,74,127
85720,note_on,0,0,0,,4,,,64,127
85720,note_on,0,0,0,,10,,,57,127
85791,note_off,71,0,0,,2,,,74,127
85792,note_on,1,0,0,,0,,,72,127
85863,note_off,71,0,0,,0,,,72,127
85864,note_on,1,0,0,,12,,,71,127
85935,note_off,71,0,0,,12,,,71,127
85936,note_on,1,0,0,,0,,,72,127
86007,note_off,71,0,0,,0,,,72,127
86007,note_off,0,0,0,,10,,,57,127
86007,note_off,0,0,0,,4,,,64,127
86008,note_on,1,0,0,,2,,,74,127
86008,note_on,0,0,0,,4,,,64,127
86008,note_on,0,0,0,,10,,,57,127
86079,note_off,71,0,0,,2,,,74,127
86080,note_on,1,0,0,,0,,,72,127
86151,note_off,71,0,0,,0,,,72,127
86152,note_on,1,0,0,,2,,,74,127
86223,note_off,71,0,0,,2,,,74,127
86224,note_on,1,0,0,,0,,,72,127
86295,note_off,71,0,0,,0,,,72,127
86295,note_off,0,0,0,,10,,,57,127
86295,note_off,0,0,0,,4,,,64,127
86296,note_on,1,0,0,,2,,,74,127
86296,note_on,0,0,0,,4,,,64,127
86296,note_on,0,0,0,,10,,,57,127
86367,note_off,71,0,0,,2,,,74,127
86368,note_on,1,0,0,,0,,,72,127
86439,note_off,71,0,0,,0,,,72,127
86440,note_on,1,0,0,,12,,,71,127
86511,note_off,71,0,0,,12,,,71,127
86512,note_on,1,0,0,,0,,,72,127
86583,note_off,71,0,0,,0,,,72,127
86584,note_on,1,0,0,,0,,,84,127
86656,note_off,72,0,0,,10,,,57,127
86656,note_off,0,0,0,,4,,,64,127
86871,note_off,215,0,0,,0,,,84,127
86872,note_on,1,0,0,,10,,,81,127
86872,note_on,0,0,0,,0,,,60,127
86872,note_on,0,0,0,,10,,,57,127
86872,note_on,0,0,0,,3,,,51,127
87159,note_off,287,0,0,,3,,,51,127
87159,note_off,0,0,0,,10,,,57,127
87159,note_off,0,0,0,,0,,,60,127
87159,note_off,0,0,0,,10,,,81,127
87160,note_on,1,0,0,,6,,,78,127
87160,note_on,0,0,0,,0,,,60,127
87160,note_on,0,0,0,,3,,,51,127
87160,note_on,0,0,0,,10,,,57,127
87447,note_off,287,0,0,,10,,,57,127
87447,note_off,0,0,0,,3,,,51,127
87447,note_off,0,0,0,,0,,,60,127
87447,note_off,0,0,0,,6,,,78,127
87448,note_on,1,0,0,,3,,,75,127
87448,note_on,0,0,0,,0,,,60,127
87448,note_on,0,0,0,,3,,,51,127
87448,note_on,0,0,0,,10,,,57,127
87735,note_off,287,0,0,,10,,,57,127
87735,note_off,0,0,0,,3,,,51,127
87735,note_off,0,0,0,,0,,,60,127
87735,note_off,0,0,0,,3,,,75,127
87736,note_on,1,0,0,,0,,,72,127
87736,note_on,0,0,0,,0,,,60,127
87736,note_on,0,0,0,,10,,,57,127
87736,note_on,0,0,0,,3,,,51,127
88023,note_off,287,0,0,,3,,,51,127
88023,note_off,0,0,0,,10,,,57,127
88023,note_off,0,0,0,,0,,,60,127
88023,note_off,0,0,0,,0,,,72,127
88024,note_on,1,0,0,,10,,,69,127
88024,note_on,0,0,0,,10,,,57,127
88024,note_on,0,0,0,,0,,,60,127
88024,note_on,0,0,0,,3,,,51,127
88311,note_off,287,0,0,,3,,,51,127
88311,note_off,0,0,0,,0,,,60,127
88311,note_off,0,0,0,,10,,,57,127
88311,note_off,0,0,0,,10,,,69,127
88312,note_on,1,0,0,,12,,,71,127
88312,note_on,0,0,0,,0,,,60,127
88312,note_on,0,0,0,,3,,,51,127
88312,note_on,0,0,0,,10,,,57,127
88383,note_off,71,0,0,,12,,,71,127
88384,note_on,1,0,0,,10,,,69,127
88455,note_off,71,0,0,,10,,,69,127
88456,note_on,1,0,0,,12,,,71,127
88527,note_off,71,0,0,,12,,,71,127
88528,note_on,1,0,0,,10,,,69,127
88599,note_off,71,0,0,,10,,,69,127
88599,note_off,0,0,0,,10,,,57,127
88599,note_off,0,0,0,,3,,,51,127
88599,note_off,0,0,0,,0,,,60,127
88600,note_on,1,0,0,,12,,,71,127
88600,note_on,0,0,0,,0,,,60,127
88600,note_on,0,0,0,,3,,,51,127
88600,note_on,0,0,0,,10,,,57,127
88671,note_off,71,0,0,,12,,,71,127
88672,note_on,1,0,0,,10,,,69,127
88743,note_off,71,0,0,,10,,,69,127
88744,note_on,1,0,0,,7,,,67,127
88815,note_off,71,0,0,,7,,,67,127
88816,note_on,1,0,0,,6,,,66,127
88887,note_off,71,0,0,,6,,,66,127
88887,note_off,0,0,0,,10,,,57,127
88887,note_off,0,0,0,,3,,,51,127
88887,note_off,0,0,0,,0,,,60,127
88888,note_on,1,0,0,,10,,,69,127
88888,note_on,0,0,0,,4,,,52,127
88888,note_on,0,0,0,,12,,,59,127
88959,note_off,71,0,0,,10,,,69,127
88960,note_on,1,0,0,,7,,,67,127
89031,note_off,71,0,0,,7,,,67,127
89032,note_on,1,0,0,,10,,,69,127
89103,note_off,71,0,0,,10,,,69,127
89104,note_on,1,0,0,,7,,,67,127
89175,note_off,71,0,0,,7,,,67,127
89175,note_off,0,0,0,,12,,,59,127
89175,note_off,0,0,0,,4,,,52,127
89176,note_on,1,0,0,,10,,,69,127
89176,note_on,0,0,0,,12,,,59,127
89176,note_on,0,0,0,,4,,,52,127
89247,note_off,71,0,0,,10,,,69,127
89248,note_on,1,0,0,,7,,,67,127
89319,note_off,71,0,0,,7,,,67,127
89320,note_on,1,0,0,,6,,,66,127
89391,note_off,71,0,0,,6,,,66,127
89392,note_on,1,0,0,,7,,,67,127
89463,note_off,71,0,0,,7,,,67,127
89463,note_off,0,0,0,,4,,,52,127
89463,note_off,0,0,0,,12,,,59,127
89464,note_on,1,0,0,,10,,,69,127
89464,note_on,0,0,0,,12,,,59,127
89464,note_on,0,0,0,,4,,,52,127
89535,note_off,71,0,0,,10,,,69,127
89536,note_on,1,0,0,,7,,,67,127
89607,note_off,71,0,0,,7,,,67,127
89608,note_on,1,0,0,,10,,,69,127
89679,note_off,71,0,0,,10,,,69,127
89680,note_on,1,0,0,,7,,,67,127
89751,note_off,71,0,0,,7,,,67,127
89751,note_off,0,0,0,,4,,,52,127
89751,note_off,0,0,0,,12,,,59,127
89752,note_on,1,0,0,,10,,,69,127
89752,note_on,0,0,0,,12,,,59,127
89752,note_on,0,0,0,,4,,,52,127
89823,note_off,71,0,0,,10,,,69,127
89824,note_on,1,0,0,,7,,,67,127
89895,note_off,71,0,0,,7,,,67,127
89896,note_on,1,0,0,,6,,,66,127
89967,note_off,71,0,0,,6,,,66,127
89968,note_on,1,0,0,,7,,,67,127
90037,note_off,69,0,0,,4,,,52,127
90037,note_off,0,0,0,,12,,,59,127
90039,note_off,2,0,0,,7,,,67,127
90040,note_on,1,0,0,,2,,,86,127
90327,note_off,287,0,0,,2,,,86,127
90328,note_on,1,0,0,,12,,,83,127
90328,note_on,0,0,0,,7,,,55,127
90328,note_on,0,0,0,,5,,,53,127
90328,note_on,0,0,0,,12,,,47,127
90615,note_off,287,0,0,,12,,,47,127
90615,note_off,0,0,0,,5,,,53,127
90615,note_off,0,0,0,,7,,,55,127
90615,note_off,0,0,0,,12,,,83,127
90616,note_on,1,0,0,,5,,,77,127
90616,note_on,0,0,0,,7,,,55,127
90616,note_on,0,0,0,,12,,,47,127
90616,note_on,0,0,0,,5,,,53,127
90903,note_off,287,0,0,,5,,,53,127
90903,note_off,0,0,0,,12,,,47,127
90903,note_off,0,0,0,,7,,,55,127
90903,note_off,0,0,0,,5,,,77,127
90904,note_on,1,0,0,,2,,,74,127
90904,note_on,0,0,0,,7,,,55,127
90904,note_on,0,0,0,,12,,,47,127
90904,note_on,0,0,0,,5,,,53,127
91191,note_off,287,0,0,,5,,,53,127
91191,note_off,0,0,0,,12,,,47,127
91191,note_off,0,0,0,,7,,,55,127
91191,note_off,0,0,0,,2,,,74,127
91192,note_on,1,0,0,,12,,,71,127
91192,note_on,0,0,0,,7,,,55,127
91192,note_on,0,0,0,,5,,,53,127
91192,note_on,0,0,0,,12,,,47,127
91479,note_off,287,0,0,,12,,,47,127
91479,note_off,0,0,0,,5,,,53,127
91479,note_off,0,0,0,,7,,,55,127
91479,note_off,0,0,0,,12,,,71,127
91480,note_on,1,0,0,,5,,,65,127
91480,note_on,0,0,0,,7,,,55,127
91480,note_on,0,0,0,,5,,,53,127
91480,note_on,0,0,0,,12,,,47,127
91767,note_off,287,0,0,,12,,,47,127
91767,note_off,0,0,0,,5,,,53,127
91767,note_off,0,0,0,,7,,,55,127
91768,note_on,1,0,0,,5,,,53,127
91768,note_on,0,0,0,,7,,,55,127
91768,note_on,0,0,0,,12,,,47,127
92055,note_off,287,0,0,,12,,,47,127
92055,note_off,0,0,0,,7,,,55,127
92055,note_off,0,0,0,,5,,,53,127
92055,note_off,0,0,0,,5,,,65,127
92056,note_on,1,0,0,,4,,,64,127
92056,note_on,0,0,0,,7,,,55,127
92056,note_on,0,0,0,,5,,,53,127
92056,note_on,0,0,0,,12,,,47,127
92199,note_off,143,0,0,,4,,,64,127
92200,note_on,1,0,0,,2,,,62,127
92343,note_off,143,0,0,,2,,,62,127
92343,note_off,0,0,0,,12,,,47,127
92343,note_off,0,0,0,,5,,,53,127
92343,note_off,0,0,0,,7,,,55,127
92344,note_on,1,0,0,,4,,,64,127
92344,note_on,0,0,0,,7,,,55,127
92344,note_on,0,0,0,,0,,,48,127
92631,note_off,287,0,0,,4,,,64,127
92632,note_on,1,0,0,,0,,,72,127
92919,note_off,287,0,0,,0,,,72,127
92932,note_on,13,0,0,,0,,,72,127
92932,note_on,0,0,0,,2,,,74,127
93003,note_off,71,0,0,,2,,,74,127
93003,note_off,0,0,0,,0,,,72,127
93004,note_on,1,0,0,,12,,,71,127
93064,note_off,60,0,0,,0,,,48,127
93064,note_off,0,0,0,,7,,,55,127
93075,note_off,11,0,0,,12,,,71,127
93076,note_on,1,0,0,,0,,,72,127
93220,note_on,144,0,0,,4,,,52,127
93220,note_on,0,0,0,,7,,,55,127
93220,note_on,0,0,0,,0,,,60,127
93507,note_off,287,0,0,,0,,,60,127
93507,note_off,0,0,0,,7,,,55,127
93507,note_off,0,0,0,,4,,,52,127
93507,note_off,0,0,0,,0,,,72,127
93508,note_on,1,0,0,,5,,,53,127
93508,note_on,0,0,0,,10,,,57,127
93508,note_on,0,0,0,,0,,,60,127
93508,note_on,0,0,0,,0,,,72,127
93508,note_on,0,0,0,,2,,,74,127
93579,note_off,71,0,0,,2,,,74,127
93579,note_off,0,0,0,,0,,,72,127
93580,note_on,1,0,0,,12,,,71,127
93651,note_off,71,0,0,,12,,,71,127
93652,note_on,1,0,0,,0,,,72,127
93795,note_off,143,0,0,,0,,,60,127
93795,note_off,0,0,0,,10,,,57,127
93795,note_off,0,0,0,,5,,,53,127
93796,note_on,1,0,0,,10,,,57,127
93796,note_on,0,0,0,,5,,,53,127
93796,note_on,0,0,0,,0,,,60,127
94083,note_off,287,0,0,,0,,,60,127
94083,note_off,0,0,0,,5,,,53,127
94083,note_off,0,0,0,,10,,,57,127
94083,note_off,0,0,0,,0,,,72,127
94084,note_on,1,0,0,,4,,,52,127
94084,note_on,0,0,0,,7,,,55,127
94084,note_on,0,0,0,,0,,,60,127
94084,note_on,0,0,0,,0,,,72,127
94084,note_on,0,0,0,,2,,,74,127
94155,note_off,71,0,0,,2,,,74,127
94155,note_off,0,0,0,,0,,,72,127
94156,note_on,1,0,0,,12,,,71,127
94227,note_off,71,0,0,,12,,,71,127
94228,note_on,1,0,0,,0,,,72,127
94371,note_off,143,0,0,,0,,,60,127
94371,note_off,0,0,0,,7,,,55,127
94371,note_off,0,0,0,,4,,,52,127
94372,note_on,1,0,0,,7,,,55,127
94372,note_on,0,0,0,,4,,,52,127
94372,note_on,0,0,0,,0,,,60,127
94659,note_off,287,0,0,,0,,,60,127
94659,note_off,0,0,0,,4,,,52,127
94659,note_off,0,0,0,,7,,,55,127
94659,note_off,0,0,0,,0,,,72,127
94660,note_on,1,0,0,,5,,,53,127
94660,note_on,0,0,0,,0,,,60,127
94660,note_on,0,0,0,,10,,,57,127
94660,note_on,0,0,0,,2,,,74,127
94660,note_on,0,0,0,,0,,,72,127
94731,note_off,71,0,0,,0,,,72,127
94731,note_off,0,0,0,,2,,,74,127
94732,note_on,1,0,0,,12,,,71,127
94803,note_off,71,0,0,,12,,,71,127
94804,note_on,1,0,0,,0,,,72,127
94947,note_off,143,0,0,,10,,,57,127
94947,note_off,0,0,0,,0,,,60,127
94947,note_off,0,0,0,,5,,,53,127
94948,note_on,1,0,0,,5,,,53,127
94948,note_on,0,0,0,,10,,,57,127
94948,note_on,0,0,0,,0,,,60,127
95235,note_off,287,0,0,,0,,,60,127
95235,note_off,0,0,0,,10,,,57,127
95235,note_off,0,0,0,,5,,,53,127
95236,note_on,1,0,0,,7,,,55,127
95236,note_on,0,0,0,,3,,,51,127
95236,note_on,0,0,0,,0,,,60,127
95379,note_off,143,0,0,,0,,,72,127
95523,note_off,144,0,0,,0,,,60,127
95523,note_off,0,0,0,,3,,,51,127
95523,note_off,0,0,0,,7,,,55,127
95524,note_on,1,0,0,,3,,,51,127
95524,note_on,0,0,0,,0,,,60,127
95524,note_on,0,0,0,,7,,,55,127
95811,note_off,287,0,0,,7,,,55,127
95811,note_off,0,0,0,,0,,,60,127
95811,note_off,0,0,0,,3,,,51,127
95824,note_on,13,0,0,,0,,,72,127
95824,note_on,0,0,0,,2,,,74,127
95824,note_on,0,0,0,,6,,,54,127
95824,note_on,0,0,0,,0,,,60,127
95824,note_on,0,0,0,,2,,,50,127
95895,note_off,71,0,0,,2,,,74,127
95895,note_off,0,0,0,,0,,,72,127
95896,note_on,1,0,0,,12,,,71,127
95967,note_off,71,0,0,,12,,,71,127
95968,note_on,1,0,0,,0,,,72,127
96111,note_off,143,0,0,,2,,,50,127
96111,note_off,0,0,0,,0,,,60,127
96111,note_off,0,0,0,,6,,,54,127
96112,note_on,1,0,0,,0,,,60,127
96112,note_on,0,0,0,,6,,,54,127
96112,note_on,0,0,0,,2,,,50,127
96399,note_off,287,0,0,,2,,,50,127
96399,note_off,0,0,0,,6,,,54,127
96399,note_off,0,0,0,,0,,,60,127
96399,note_off,0,0,0,,0,,,72,127
96400,note_on,1,0,0,,2,,,74,127
96400,note_on,0,0,0,,0,,,72,127
96400,note_on,0,0,0,,7,,,55,127
96400,note_on,0,0,0,,0,,,60,127
96400,note_on,0,0,0,,3,,,51,127
96471,note_off,71,0,0,,0,,,72,127
96471,note_off,0,0,0,,2,,,74,127
96472,note_on,1,0,0,,12,,,71,127
96543,note_off,71,0,0,,12,,,71,127
96544,note_on,1,0,0,,0,,,72,127
96687,note_off,143,0,0,,3,,,51,127
96687,note_off,0,0,0,,0,,,60,127
96687,note_off,0,0,0,,7,,,55,127
96688,note_on,1,0,0,,7,,,55,127
96688,note_on,0,0,0,,0,,,60,127
96688,note_on,0,0,0,,3,,,51,127
96975,note_off,287,0,0,,3,,,51,127
96975,note_off,0,0,0,,0,,,60,127
96975,note_off,0,0,0,,7,,,55,127
96975,note_off,0,0,0,,0,,,72,127
96976,note_on,1,0,0,,2,,,74,127
96976,note_on,0,0,0,,0,,,72,127
96976,note_on,0,0,0,,0,,,60,127
96976,note_on,0,0,0,,2,,,50,127
96976,note_on,0,0,0,,6,,,54,127
97047,note_off,71,0,0,,0,,,72,127
97047,note_off,0,0,0,,2,,,74,127
97048,note_on,1,0,0,,12,,,71,127
97119,note_off,71,0,0,,12,,,71,127
97120,note_on,1,0,0,,0,,,72,127
97263,note_off,143,0,0,,6,,,54,127
97263,note_off,0,0,0,,2,,,50,127
97263,note_off,0,0,0,,0,,,60,127
97264,note_on,1,0,0,,0,,,60,127
97264,note_on,0,0,0,,6,,,54,127
97264,note_on,0,0,0,,2,,,50,127
97551,note_off,287,0,0,,2,,,50,127
97551,note_off,0,0,0,,6,,,54,127
97551,note_off,0,0,0,,0,,,60,127
97552,note_on,1,0,0,,0,,,60,127
97552,note_on,0,0,0,,4,,,52,127
97552,note_on,0,0,0,,8,,,56,127
97695,note_off,143,0,0,,0,,,72,127
97839,note_off,144,0,0,,8,,,56,127
97839,note_off,0,0,0,,4,,,52,127
97839,note_off,0,0,0,,0,,,60,127
97840,note_on,1,0,0,,0,,,60,127
97840,note_on,0,0,0,,8,,,56,127
97840,note_on,0,0,0,,4,,,52,127
98127,note_off,287,0,0,,4,,,52,127
98127,note_off,0,0,0,,8,,,56,127
98127,note_off,0,0,0,,0,,,60,127
98140,note_on,13,0,0,,5,,,53,127
98140,note_on,0,0,0,,10,,,57,127
98140,note_on,0,0,0,,0,,,60,127
98140,note_on,0,0,0,,0,,,72,127
98140,note_on,0,0,0,,2,,,74,127
98211,note_off,71,0,0,,2,,,74,127
98211,note_off,0,0,0,,0,,,72,127
98212,note_on,1,0,0,,12,,,71,127
98283,note_off,71,0,0,,12,,,71,127
98284,note_on,1,0,0,,0,,,72,127
98427,note_off,143,0,0,,0,,,60,127
98427,note_off,0,0,0,,10,,,57,127
98427,note_off,0,0,0,,5,,,53,127
98428,note_on,1,0,0,,10,,,57,127
98428,note_on,0,0,0,,5,,,53,127
98428,note_on,0,0,0,,0,,,60,127
98715,note_off,287,0,0,,0,,,60,127
98715,note_off,0,0,0,,5,,,53,127
98715,note_off,0,0,0,,10,,,57,127
98715,note_off,0,0,0,,0,,,72,127
98716,note_on,1,0,0,,4,,,52,127
98716,note_on,0,0,0,,8,,,56,127
98716,note_on,0,0,0,,0,,,60,127
98716,note_on,0,0,0,,2,,,74,127
98716,note_on,0,0,0,,0,,,72,127
98787,note_off,71,0,0,,0,,,72,127
98787,note_off,0,0,0,,2,,,74,127
98788,note_on,1,0,0,,12,,,71,127
98859,note_off,71,0,0,,12,,,71,127
98860,note_on,1,0,0,,0,,,72,127
99003,note_off,143,0,0,,0,,,60,127
99003,note_off,0,0,0,,8,,,56,127
99003,note_off,0,0,0,,4,,,52,127
99004,note_on,1,0,0,,8,,,56,127
99004,note_on,0,0,0,,4,,,52,127
99004,note_on,0,0,0,,0,,,60,127
99291,note_off,287,0,0,,0,,,60,127
99291,note_off,0,0,0,,4,,,52,127
99291,note_off,0,0,0,,8,,,56,127
99291,note_off,0,0,0,,0,,,72,127
99292,note_on,1,0,0,,5,,,53,127
99292,note_on,0,0,0,,0,,,60,127
99292,note_on,0,0,0,,10,,,57,127
99292,note_on,0,0,0,,0,,,72,127
99292,note_on,0,0,0,,2,,,74,127
99363,note_off,71,0,0,,2,,,74,127
99363,note_off,0,0,0,,0,,,72,127
99364,note_on,1,0,0,,12,,,71,127
99435,note_off,71,0,0,,12,,,71,127
99436,note_on,1,0,0,,0,,,72,127
99579,note_off,143,0,0,,10,,,57,127
99579,note_off,0,0,0,,0,,,60,127
99579,note_off,0,0,0,,5,,,53,127
99580,note_on,1,0,0,,5,,,53,127
99580,note_on,0,0,0,,10,,,57,127
99580,note_on,0,0,0,,0,,,60,127
99867,note_off,287,0,0,,0,,,60,127
99867,note_off,0,0,0,,10,,,57,127
99867,note_off,0,0,0,,5,,,53,127
99868,note_on,1,0,0,,6,,,54,127
99868,note_on,0,0,0,,2,,,62,127
99868,note_on,0,0,0,,0,,,60,127
100011,note_off,143,0,0,,0,,,72,127
100155,note_off,144,0,0,,0,,,60,127
100155,note_off,0,0,0,,2,,,62,127
100155,note_off,0,0,0,,6,,,54,127
100156,note_on,1,0,0,,0,,,60,127
100156,note_on,0,0,0,,6,,,54,127
100156,note_on,0,0,0,,2,,,62,127
100443,note_off,287,0,0,,2,,,62,127
100443,note_off,0,0,0,,6,,,54,127
100443,note_off,0,0,0,,0,,,60,127
100456,note_on,13,0,0,,2,,,74,127
100456,note_on,0,0,0,,0,,,72,127
100456,note_on,0,0,0,,3,,,63,127
100456,note_on,0,0,0,,0,,,60,127
100456,note_on,0,0,0,,7,,,55,127
100527,note_off,71,0,0,,0,,,72,127
100527,note_off,0,0,0,,2,,,74,127
100528,note_on,1,0,0,,12,,,71,127
100599,note_off,71,0,0,,12,,,71,127
100600,note_on,1,0,0,,0,,,72,127
100743,note_off,143,0,0,,7,,,55,127
100743,note_off,0,0,0,,0,,,60,127
100743,note_off,0,0,0,,3,,,63,127
100744,note_on,1,0,0,,3,,,63,127
100744,note_on,0,0,0,,0,,,60,127
100744,note_on,0,0,0,,7,,,55,127
101031,note_off,287,0,0,,7,,,55,127
101031,note_off,0,0,0,,0,,,60,127
101031,note_off,0,0,0,,3,,,63,127
101031,note_off,0,0,0,,0,,,72,127
101032,note_on,1,0,0,,2,,,74,127
101032,note_on,0,0,0,,0,,,72,127
101032,note_on,0,0,0,,2,,,62,127
101032,note_on,0,0,0,,0,,,60,127
101032,note_on,0,0,0,,6,,,54,127
101103,note_off,71,0,0,,0,,,72,127
101103,note_off,0,0,0,,2,,,74,127
101104,note_on,1,0,0,,12,,,71,127
101175,note_off,71,0,0,,12,,,71,127
101176,note_on,1,0,0,,0,,,72,127
101319,note_off,143,0,0,,6,,,54,127
101319,note_off,0,0,0,,0,,,60,127
101319,note_off,0,0,0,,2,,,62,127
101320,note_on,1,0,0,,2,,,62,127
101320,note_on,0,0,0,,6,,,54,127
101320,note_on,0,0,0,,0,,,60,127
101607,note_off,287,0,0,,0,,,60,127
101607,note_off,0,0,0,,6,,,54,127
101607,note_off,0,0,0,,2,,,62,127
101607,note_off,0,0,0,,0,,,72,127
101608,note_on,1,0,0,,0,,,72,127
101608,note_on,0,0,0,,2,,,74,127
101608,note_on,0,0,0,,3,,,63,127
101608,note_on,0,0,0,,0,,,60,127
101608,note_on,0,0,0,,7,,,55,127
101679,note_off,71,0,0,,2,,,74,127
101679,note_off,0,0,0,,0,,,72,127
101680,note_on,1,0,0,,12,,,71,127
101751,note_off,71,0,0,,12,,,71,127
101752,note_on,1,0,0,,0,,,72,127
101895,note_off,143,0,0,,7,,,55,127
101895,note_off,0,0,0,,0,,,60,127
101895,note_off,0,0,0,,3,,,63,127
101896,note_on,1,0,0,,3,,,63,127
101896,note_on,0,0,0,,7,,,55,127
101896,note_on,0,0,0,,0,,,60,127
102183,note_off,287,0,0,,0,,,60,127
102183,note_off,0,0,0,,7,,,55,127
102183,note_off,0,0,0,,3,,,63,127
102184,note_on,1,0,0,,7,,,55,127
102184,note_on,0,0,0,,0,,,60,127
102184,note_on,0,0,0,,11,,,58,127
102184,note_on,0,0,0,,4,,,64,127
102327,note_off,143,0,0,,0,,,72,127
102471,note_off,144,0,0,,4,,,64,127
102471,note_off,0,0,0,,11,,,58,127
102471,note_off,0,0,0,,0,,,60,127
102471,note_off,0,0,0,,7,,,55,127
102472,note_on,1,0,0,,4,,,64,127
102472,note_on,0,0,0,,11,,,58,127
102472,note_on,0,0,0,,0,,,60,127
102472,note_on,0,0,0,,7,,,55,127
102759,note_off,287,0,0,,7,,,55,127
102759,note_off,0,0,0,,0,,,60,127
102759,note_off,0,0,0,,11,,,58,127
102759,note_off,0,0,0,,4,,,64,127
102766,note_on,7,0,0,,2,,,74,127
102766,note_on,0,0,0,,0,,,72,127
102766,note_on,0,0,0,,5,,,65,127
102766,note_on,0,0,0,,10,,,57,127
102766,note_on,0,0,0,,0,,,60,127
102837,note_off,71,0,0,,0,,,72,127
102837,note_off,0,0,0,,2,,,74,127
102838,note_on,1,0,0,,12,,,71,127
102909,note_off,71,0,0,,12,,,71,127
102910,note_on,1,0,0,,0,,,72,127
103053,note_off,143,0,0,,0,,,60,127
103053,note_off,0,0,0,,10,,,57,127
103053,note_off,0,0,0,,5,,,65,127
103054,note_on,1,0,0,,5,,,65,127
103054,note_on,0,0,0,,10,,,57,127
103054,note_on,0,0,0,,0,,,60,127
103341,note_off,287,0,0,,0,,,60,127
103341,note_off,0,0,0,,10,,,57,127
103341,note_off,0,0,0,,5,,,65,127
103341,note_off,0,0,0,,0,,,72,127
103342,note_on,1,0,0,,0,,,72,127
103342,note_on,0,0,0,,2,,,74,127
103342,note_on,0,0,0,,0,,,60,127
103342,note_on,0,0,0,,4,,,64,127
103342,note_on,0,0,0,,11,,,58,127
103342,note_on,0,0,0,,7,,,55,127
103413,note_off,71,0,0,,2,,,74,127
103413,note_off,0,0,0,,0,,,72,127
103414,note_on,1,0,0,,12,,,71,127
103485,note_off,71,0,0,,12,,,71,127
103486,note_on,1,0,0,,0,,,72,127
103629,note_off,143,0,0,,7,,,55,127
103629,note_off,0,0,0,,11,,,58,127
103629,note_off,0,0,0,,4,,,64,127
103629,note_off,0,0,0,,0,,,60,127
103630,note_on,1,0,0,,4,,,64,127
103630,note_on,0,0,0,,0,,,60,127
103630,note_on,0,0,0,,7,,,55,127
103630,note_on,0,0,0,,11,,,58,127
103917,note_off,287,0,0,,11,,,58,127
103917,note_off,0,0,0,,7,,,55,127
103917,note_off,0,0,0,,0,,,60,127
103917,note_off,0,0,0,,4,,,64,127
103917,note_off,0,0,0,,0,,,72,127
103918,note_on,1,0,0,,2,,,74,127
103918,note_on,0,0,0,,0,,,72,127
103918,note_on,0,0,0,,5,,,65,127
103918,note_on,0,0,0,,10,,,57,127
103918,note_on,0,0,0,,0,,,60,127
103989,note_off,71,0,0,,0,,,72,127
103989,note_off,0,0,0,,2,,,74,127
103990,note_on,1,0,0,,12,,,71,127
104061,note_off,71,0,0,,12,,,71,127
104062,note_on,1,0,0,,0,,,72,127
104205,note_off,143,0,0,,0,,,60,127
104205,note_off,0,0,0,,10,,,57,127
104205,note_off,0,0,0,,5,,,65,127
104206,note_on,1,0,0,,0,,,60,127
104206,note_on,0,0,0,,5,,,65,127
104206,note_on,0,0,0,,10,,,57,127
104493,note_off,287,0,0,,10,,,57,127
104493,note_off,0,0,0,,5,,,65,127
104493,note_off,0,0,0,,0,,,60,127
104493,note_off,0,0,0,,0,,,72,127
104494,note_on,1,0,0,,2,,,74,127
104494,note_on,0,0,0,,4,,,76,127
104494,note_on,0,0,0,,5,,,65,127
104494,note_on,0,0,0,,7,,,67,127
104494,note_on,0,0,0,,12,,,59,127
104565,note_off,71,0,0,,4,,,76,127
104565,note_off,0,0,0,,2,,,74,127
104566,note_on,1,0,0,,0,,,72,127
104637,note_off,71,0,0,,0,,,72,127
104638,note_on,1,0,0,,2,,,74,127
104781,note_off,143,0,0,,12,,,59,127
104781,note_off,0,0,0,,7,,,67,127
104781,note_off,0,0,0,,5,,,65,127
104782,note_on,1,0,0,,5,,,65,127
104782,note_on,0,0,0,,7,,,67,127
104782,note_on,0,0,0,,12,,,59,127
105069,note_off,287,0,0,,12,,,59,127
105069,note_off,0,0,0,,7,,,67,127
105069,note_off,0,0,0,,5,,,65,127
105069,note_off,0,0,0,,2,,,74,127
105070,note_on,1,0,0,,4,,,76,127
105070,note_on,0,0,0,,0,,,60,127
105070,note_on,0,0,0,,7,,,67,127
105357,note_off,287,0,0,,7,,,67,127
105357,note_off,0,0,0,,0,,,60,127
105357,note_off,0,0,0,,4,,,76,127
105358,note_on,1,0,0,,5,,,77,127
105358,note_on,0,0,0,,7,,,67,127
105358,note_on,0,0,0,,0,,,60,127
105501,note_off,143,0,0,,5,,,77,127
105502,note_on,1,0,0,,7,,,79,127
105645,note_off,143,0,0,,7,,,79,127
105645,note_off,0,0,0,,0,,,60,127
105645,note_off,0,0,0,,7,,,67,127
105646,note_on,1,0,0,,5,,,77,127
105646,note_on,0,0,0,,5,,,41,127
105789,note_off,143,0,0,,5,,,77,127
105790,note_on,1,0,0,,4,,,76,127
105933,note_off,143,0,0,,4,,,76,127
105934,note_on,1,0,0,,2,,,74,127
105934,note_on,0,0,0,,5,,,53,127
106077,note_off,143,0,0,,2,,,74,127
106078,note_on,1,0,0,,0,,,72,127
106221,note_off,143,0,0,,0,,,72,127
106221,note_off,0,0,0,,5,,,53,127
106221,note_off,0,0,0,,5,,,41,127
106222,note_on,1,0,0,,12,,,71,127
106222,note_on,0,0,0,,7,,,43,127
106293,note_off,71,0,0,,12,,,71,127
106294,note_on,1,0,0,,10,,,69,127
106365,note_off,71,0,0,,10,,,69,127
106366,note_on,1,0,0,,7,,,67,127
106844,note_off,478,0,0,,7,,,43,127
106872,note_off,28,0,0,,7,,,67,127
107374,note_on,502,0,0,,0,,,48,127
107518,note_on,144,0,0,,0,,,36,127
107661,note_off,143,0,0,,0,,,36,127
107662,note_on,1,0,0,,4,,,40,127
107805,note_off,143,0,0,,4,,,40,127
107806,note_on,1,0,0,,7,,,43,127
107949,note_off,143,0,0,,7,,,43,127
107949,note_off,0,0,0,,0,,,48,127
107950,note_on,1,0,0,,10,,,45,127
108093,note_off,143,0,0,,10,,,45,127
108094,note_on,1,0,0,,5,,,41,127
108237,note_off,143,0,0,,5,,,41,127
108238,note_on,1,0,0,,7,,,55,127
108238,note_on,0,0,0,,12,,,47,127
108309,note_off,71,0,0,,7,,,55,127
108310,note_on,1,0,0,,5,,,53,127
108381,note_off,71,0,0,,5,,,53,127
108381,note_off,0,0,0,,12,,,47,127
108382,note_on,1,0,0,,4,,,52,127
108382,note_on,0,0,0,,7,,,43,127
108453,note_off,71,0,0,,4,,,52,127
108454,note_on,1,0,0,,2,,,50,127
108525,note_off,71,0,0,,2,,,50,127
108532,note_on,7,0,0,,4,,,52,127
108598,note_off,66,0,0,,7,,,43,127
108676,note_on,78,0,0,,0,,,48,127
108817,note_off,141,0,0,,4,,,52,127
108819,note_off,2,0,0,,0,,,48,127
108820,note_on,1,0,0,,4,,,52,127
108963,note_off,143,0,0,,4,,,52,127
108964,note_on,1,0,0,,7,,,55,127
109107,note_off,143,0,0,,7,,,55,127
109108,note_on,1,0,0,,10,,,57,127
109251,note_off,143,0,0,,10,,,57,127
109252,note_on,1,0,0,,5,,,53,127
109395,note_off,143,0,0,,5,,,53,127
109396,note_on,1,0,0,,7,,,67,127
109396,note_on,0,0,0,,12,,,59,127
109467,note_off,71,0,0,,7,,,67,127
109468,note_on,1,0,0,,5,,,65,127
109539,note_off,71,0,0,,5,,,65,127
109539,note_off,0,0,0,,12,,,59,127
109540,note_on,1,0,0,,4,,,64,127
109540,note_on,0,0,0,,7,,,55,127
109611,note_off,71,0,0,,4,,,64,127
109612,note_on,1,0,0,,2,,,62,127
109683,note_off,71,0,0,,2,,,62,127
109690,note_on,7,0,0,,4,,,64,127
109756,note_off,66,0,0,,7,,,55,127
109834,note_on,78,0,0,,0,,,60,127
109975,note_off,141,0,0,,4,,,64,127
109977,note_off,2,0,0,,0,,,60,127
109978,note_on,1,0,0,,4,,,64,127
110121,note_off,143,0,0,,4,,,64,127
110122,note_on,1,0,0,,7,,,67,127
110265,note_off,143,0,0,,7,,,67,127
110266,note_on,1,0,0,,10,,,69,127
110409,note_off,143,0,0,,10,,,69,127
110410,note_on,1,0,0,,5,,,65,127
110553,note_off,143,0,0,,5,,,65,127
110554,note_on,1,0,0,,7,,,79,127
110554,note_on,0,0,0,,12,,,71,127
110625,note_off,71,0,0,,7,,,79,127
110626,note_on,1,0,0,,5,,,77,127
110697,note_off,71,0,0,,5,,,77,127
110697,note_off,0,0,0,,12,,,71,127
110698,note_on,1,0,0,,4,,,76,127
110698,note_on,0,0,0,,7,,,67,127
110769,note_off,71,0,0,,4,,,76,127
110770,note_on,1,0,0,,2,,,74,127
110841,note_off,71,0,0,,2,,,74,127
110841,note_off,0,0,0,,7,,,67,127
110842,note_on,1,0,0,,4,,,76,127
110842,note_on,0,0,0,,0,,,72,127
110985,note_off,143,0,0,,4,,,76,127
110986,note_on,1,0,0,,0,,,84,127
111129,note_off,143,0,0,,0,,,84,127
111129,note_off,0,0,0,,0,,,72,127
111130,note_on,1,0,0,,10,,,81,127
111130,note_on,0,0,0,,5,,,77,127
111273,note_off,143,0,0,,5,,,77,127
111273,note_off,0,0,0,,10,,,81,127
111274,note_on,1,0,0,,5,,,77,127
111274,note_on,0,0,0,,2,,,74,127
111417,note_off,143,0,0,,2,,,74,127
111417,note_off,0,0,0,,5,,,77,127
111418,note_on,1,0,0,,2,,,74,127
111418,note_on,0,0,0,,12,,,71,127
111561,note_off,143,0,0,,12,,,71,127
111561,note_off,0,0,0,,2,,,74,127
111562,note_on,1,0,0,,12,,,71,127
111562,note_on,0,0,0,,7,,,67,127
111705,note_off,143,0,0,,7,,,67,127
111705,note_off,0,0,0,,12,,,71,127
111706,note_on,1,0,0,,7,,,67,127
111706,note_on,0,0,0,,4,,,64,127
111849,note_off,143,0,0,,4,,,64,127
111849,note_off,0,0,0,,7,,,67,127
111850,note_on,1,0,0,,4,,,64,127
111850,note_on,0,0,0,,0,,,60,127
111993,note_off,143,0,0,,0,,,60,127
111993,note_off,0,0,0,,4,,,64,127
111994,note_on,1,0,0,,0,,,60,127
111994,note_on,0,0,0,,10,,,57,127
112281,note_off,287,0,0,,10,,,57,127
112281,note_off,0,0,0,,0,,,60,127
112282,note_on,1,0,0,,7,,,67,127
112282,note_on,0,0,0,,5,,,53,127
112353,note_off,71,0,0,,7,,,67,127
112354,note_on,1,0,0,,5,,,65,127
112425,note_off,71,0,0,,5,,,65,127
112426,note_on,1,0,0,,4,,,64,127
112497,note_off,71,0,0,,4,,,64,127
112498,note_on,1,0,0,,2,,,62,127
112569,note_off,71,0,0,,2,,,62,127
112569,note_off,0,0,0,,5,,,53,127
112570,note_on,1,0,0,,4,,,64,127
112570,note_on,0,0,0,,0,,,60,127
112570,note_on,0,0,0,,7,,,55,127
112857,note_off,287,0,0,,7,,,55,127
112857,note_off,0,0,0,,0,,,60,127
112857,note_off,0,0,0,,4,,,64,127
112858,note_on,1,0,0,,2,,,62,127
112858,note_on,0,0,0,,12,,,59,127
112858,note_on,0,0,0,,7,,,43,127
113143,note_off,285,0,0,,7,,,43,127
113145,note_off,2,0,0,,12,,,59,127
113145,note_off,0,0,0,,2,,,62,127
113158,note_on,13,0,0,,0,,,48,127
113302,note_on,144,0,0,,0,,,36,127
113445,note_off,143,0,0,,0,,,36,127
113446,note_on,1,0,0,,4,,,40,127
113589,note_off,143,0,0,,4,,,40,127
113590,note_on,1,0,0,,7,,,43,127
113733,note_off,143,0,0,,7,,,43,127
113733,note_off,0,0,0,,0,,,48,127
113734,note_on,1,0,0,,10,,,45,127
113877,note_off,143,0,0,,10,,,45,127
113878,note_on,1,0,0,,5,,,41,127
114021,note_off,143,0,0,,5,,,41,127
114022,note_on,1,0,0,,12,,,47,127
114022,note_on,0,0,0,,7,,,55,127
114093,note_off,71,0,0,,7,,,55,127
114095,note_on,2,0,0,,5,,,53,127
114165,note_off,70,0,0,,12,,,47,127
114166,note_off,1,0,0,,5,,,53,127
114168,note_on,2,0,0,,4,,,52,127
114168,note_on,0,0,0,,7,,,43,127
114239,note_off,71,0,0,,4,,,52,127
114241,note_on,2,0,0,,2,,,50,127
114317,note_off,76,0,0,,2,,,50,127
114322,note_on,5,0,0,,4,,,52,127
114384,note_off,62,0,0,,7,,,43,127
114466,note_on,82,0,0,,0,,,48,127
114607,note_off,141,0,0,,4,,,52,127
114609,note_off,2,0,0,,0,,,48,127
114610,note_on,1,0,0,,4,,,52,127
114754,note_on,144,0,0,,7,,,55,127
114895,note_off,141,0,0,,4,,,52,127
114897,note_off,2,0,0,,7,,,55,127
114898,note_on,1,0,0,,10,,,57,127
115041,note_off,143,0,0,,10,,,57,127
115042,note_on,1,0,0,,5,,,53,127
115185,note_off,143,0,0,,5,,,53,127
115186,note_on,1,0,0,,7,,,67,127
115186,note_on,0,0,0,,12,,,59,127
115257,note_off,71,0,0,,7,,,67,127
115259,note_on,2,0,0,,5,,,65,127
115329,note_off,70,0,0,,12,,,59,127
115330,note_off,1,0,0,,5,,,65,127
115332,note_on,2,0,0,,7,,,55,127
115332,note_on,0,0,0,,4,,,64,127
115403,note_off,71,0,0,,4,,,64,127
115405,note_on,2,0,0,,2,,,62,127
115482,note_off,77,0,0,,2,,,62,127
115486,note_on,4,0,0,,4,,,64,127
115548,note_off,62,0,0,,7,,,55,127
115630,note_on,82,0,0,,0,,,60,127
115771,note_off,141,0,0,,4,,,64,127
115773,note_off,2,0,0,,0,,,60,127
115774,note_on,1,0,0,,4,,,64,127
115918,note_on,144,0,0,,7,,,67,127
116059,note_off,141,0,0,,4,,,64,127
116061,note_off,2,0,0,,7,,,67,127
116062,note_on,1,0,0,,10,,,69,127
116205,note_off,143,0,0,,10,,,69,127
116206,note_on,1,0,0,,5,,,65,127
116349,note_off,143,0,0,,5,,,65,127
116350,note_on,1,0,0,,12,,,71,127
116350,note_on,0,0,0,,7,,,79,127
116421,note_off,71,0,0,,7,,,79,127
116422,note_on,1,0,0,,5,,,77,127
116493,note_off,71,0,0,,5,,,77,127
116493,note_off,0,0,0,,12,,,71,127
116494,note_on,1,0,0,,7,,,67,127
116494,note_on,0,0,0,,4,,,76,127
116565,note_off,71,0,0,,4,,,76,127
116566,note_on,1,0,0,,2,,,74,127
116637,note_off,71,0,0,,2,,,74,127
116637,note_off,0,0,0,,7,,,67,127
116638,note_on,1,0,0,,0,,,72,127
116638,note_on,0,0,0,,4,,,76,127
116781,note_off,143,0,0,,4,,,76,127
116794,note_on,13,0,0,,0,,,84,127
116925,note_off,131,0,0,,0,,,72,127
116937,note_off,12,0,0,,0,,,84,127
116938,note_on,1,0,0,,10,,,81,127
116938,note_on,0,0,0,,5,,,77,127
117081,note_off,143,0,0,,5,,,77,127
117081,note_off,0,0,0,,10,,,81,127
117082,note_on,1,0,0,,5,,,77,127
117082,note_on,0,0,0,,2,,,74,127
117225,note_off,143,0,0,,2,,,74,127
117225,note_off,0,0,0,,5,,,77,127
117226,note_on,1,0,0,,2,,,74,127
117226,note_on,0,0,0,,12,,,71,127
117369,note_off,143,0,0,,12,,,71,127
117369,note_off,0,0,0,,2,,,74,127
117370,note_on,1,0,0,,12,,,71,127
117370,note_on,0,0,0,,7,,,67,127
117513,note_off,143,0,0,,7,,,67,127
117513,note_off,0,0,0,,12,,,71,127
117514,note_on,1,0,0,,7,,,67,127
117514,note_on,0,0,0,,4,,,64,127
117657,note_off,143,0,0,,4,,,64,127
117657,note_off,0,0,0,,7,,,67,127
117658,note_on,1,0,0,,4,,,64,127
117658,note_on,0,0,0,,0,,,60,127
117801,note_off,143,0,0,,0,,,60,127
117801,note_off,0,0,0,,4,,,64,127
117802,note_on,1,0,0,,0,,,60,127
117802,note_on,0,0,0,,10,,,57,127
118089,note_off,287,0,0,,10,,,57,127
118089,note_off,0,0,0,,0,,,60,127
118090,note_on,1,0,0,,7,,,67,127
118090,note_on,0,0,0,,5,,,53,127
118161,note_off,71,0,0,,7,,,67,127
118162,note_on,1,0,0,,5,,,65,127
118233,note_off,71,0,0,,5,,,65,127
118234,note_on,1,0,0,,4,,,64,127
118305,note_off,71,0,0,,4,,,64,127
118306,note_on,1,0,0,,2,,,62,127
118377,note_off,71,0,0,,2,,,62,127
118377,note_off,0,0,0,,5,,,53,127
118378,note_on,1,0,0,,0,,,60,127
118378,note_on,0,0,0,,4,,,64,127
118378,note_on,0,0,0,,7,,,55,127
118665,note_off,287,0,0,,4,,,64,127
118665,note_off,0,0,0,,0,,,60,127
118666,note_on,1,0,0,,2,,,62,127
118666,note_on,0,0,0,,12,,,59,127
118666,note_on,0,0,0,,7,,,43,127
118953,note_off,287,0,0,,7,,,43,127
118961,note_off,8,0,0,,12,,,59,127
118961,note_off,0,0,0,,2,,,62,127
118961,note_off,0,0,0,,7,,,55,127
118966,note_on,5,0,0,,0,,,48,127
118966,note_on,0,0,0,,0,,,60,127
119181,note_off,215,0,0,,0,,,48,127
119182,note_on,1,0,0,,2,,,50,127
119253,note_off,71,0,0,,2,,,50,127
119254,note_on,1,0,0,,4,,,52,127
119325,note_off,71,0,0,,4,,,52,127
119326,note_on,1,0,0,,5,,,53,127
119397,note_off,71,0,0,,5,,,53,127
119398,note_on,1,0,0,,7,,,55,127
119469,note_off,71,0,0,,7,,,55,127
119470,note_on,1,0,0,,10,,,57,127
119541,note_off,71,0,0,,10,,,57,127
119541,note_off,0,0,0,,0,,,60,127
119542,note_on,1,0,0,,12,,,59,127
119613,note_off,71,0,0,,12,,,59,127
119614,note_on,1,0,0,,0,,,60,127
119685,note_off,71,0,0,,0,,,60,127
119686,note_on,1,0,0,,2,,,62,127
119757,note_off,71,0,0,,2,,,62,127
119758,note_on,1,0,0,,4,,,64,127
119829,note_off,71,0,0,,4,,,64,127
119830,note_on,1,0,0,,5,,,65,127
119901,note_off,71,0,0,,5,,,65,127
119902,note_on,1,0,0,,7,,,67,127
119973,note_off,71,0,0,,7,,,67,127
119974,note_on,1,0,0,,10,,,69,127
120045,note_off,71,0,0,,10,,,69,127
120046,note_on,1,0,0,,12,,,71,127
120117,note_off,71,0,0,,12,,,71,127
120118,note_on,1,0,0,,0,,,72,127
120118,note_on,0,0,0,,0,,,60,127
120333,note_off,215,0,0,,0,,,60,127
120334,note_on,1,0,0,,2,,,62,127
120405,note_off,71,0,0,,2,,,62,127
120406,note_on,1,0,0,,4,,,64,127
120477,note_off,71,0,0,,4,,,64,127
120478,note_on,1,0,0,,5,,,65,127
120549,note_off,71,0,0,,5,,,65,127
120550,note_on,1,0,0,,7,,,67,127
120621,note_off,71,0,0,,7,,,67,127
120622,note_on,1,0,0,,10,,,69,127
120693,note_off,71,0,0,,10,,,69,127
120693,note_off,0,0,0,,0,,,72,127
120694,note_on,1,0,0,,12,,,71,127
120765,note_off,71,0,0,,12,,,71,127
120766,note_on,1,0,0,,0,,,72,127
120837,note_off,71,0,0,,0,,,72,127
120838,note_on,1,0,0,,2,,,74,127
120909,note_off,71,0,0,,2,,,74,127
120910,note_on,1,0,0,,4,,,76,127
120981,note_off,71,0,0,,4,,,76,127
120982,note_on,1,0,0,,5,,,77,127
121053,note_off,71,0,0,,5,,,77,127
121054,note_on,1,0,0,,7,,,79,127
121125,note_off,71,0,0,,7,,,79,127
121126,note_on,1,0,0,,10,,,81,127
121197,note_off,71,0,0,,10,,,81,127
121198,note_on,1,0,0,,12,,,83,127
121269,note_off,71,0,0,,12,,,83,127
121270,note_on,1,0,0,,0,,,84,127
121426,note_on,156,0,0,,12,,,83,127
121430,note_off,4,0,0,,0,,,84,127
121570,note_on,140,0,0,,0,,,72,127
121570,note_on,0,0,0,,4,,,76,127
121713,note_off,143,0,0,,12,,,83,127
121714,note_on,1,0,0,,10,,,81,127
121857,note_off,143,0,0,,4,,,76,127
121857,note_off,0,0,0,,0,,,72,127
121858,note_on,1,0,0,,2,,,74,127
121858,note_on,0,0,0,,12,,,71,127
122001,note_off,143,0,0,,10,,,81,127
122002,note_on,1,0,0,,7,,,79,127
122145,note_off,143,0,0,,12,,,71,127
122145,note_off,0,0,0,,2,,,74,127
122146,note_on,1,0,0,,2,,,74,127
122146,note_on,0,0,0,,7,,,67,127
122289,note_off,143,0,0,,7,,,79,127
122290,note_on,1,0,0,,5,,,77,127
122433,note_off,143,0,0,,7,,,67,127
122433,note_off,0,0,0,,2,,,74,127
122434,note_on,1,0,0,,0,,,72,127
122577,note_off,143,0,0,,5,,,77,127
122578,note_on,1,0,0,,4,,,76,127
122721,note_off,143,0,0,,0,,,72,127
122722,note_on,1,0,0,,0,,,60,127
122722,note_on,0,0,0,,5,,,65,127
122722,note_on,0,0,0,,5,,,53,127
122865,note_off,143,0,0,,4,,,76,127
122866,note_on,1,0,0,,2,,,74,127
123009,note_off,143,0,0,,5,,,53,127
123009,note_off,0,0,0,,5,,,65,127
123009,note_off,0,0,0,,0,,,60,127
123010,note_on,1,0,0,,4,,,64,127
123010,note_on,0,0,0,,0,,,60,127
123010,note_on,0,0,0,,7,,,55,127
123153,note_off,143,0,0,,2,,,74,127
123154,note_on,1,0,0,,0,,,72,127
123297,note_off,143,0,0,,7,,,55,127
123297,note_off,0,0,0,,0,,,60,127
123297,note_off,0,0,0,,4,,,64,127
123298,note_on,1,0,0,,2,,,62,127
123298,note_on,0,0,0,,7,,,55,127
123441,note_off,143,0,0,,0,,,72,127
123442,note_on,1,0,0,,12,,,71,127
123585,note_off,143,0,0,,7,,,55,127
123585,note_off,0,0,0,,2,,,62,127
123594,note_off,9,0,0,,12,,,71,127
123598,note_on,4,0,0,,0,,,60,127
123598,note_on,0,0,0,,4,,,64,127
123598,note_on,0,0,0,,0,,,72,127
123741,note_off,143,0,0,,0,,,72,127
123742,note_on,1,0,0,,12,,,71,127
123885,note_off,143,0,0,,4,,,64,127
123885,note_off,0,0,0,,0,,,60,127
123886,note_on,1,0,0,,0,,,60,127
123886,note_on,0,0,0,,4,,,64,127
124029,note_off,143,0,0,,12,,,71,127
124030,note_on,1,0,0,,10,,,69,127
124173,note_off,143,0,0,,4,,,64,127
124173,note_off,0,0,0,,0,,,60,127
124174,note_on,1,0,0,,12,,,59,127
124174,note_on,0,0,0,,2,,,62,127
124317,note_off,143,0,0,,10,,,69,127
124318,note_on,1,0,0,,7,,,67,127
124461,note_off,143,0,0,,2,,,62,127
124461,note_off,0,0,0,,12,,,59,127
124462,note_on,1,0,0,,7,,,55,127
124462,note_on,0,0,0,,2,,,62,127
124605,note_off,143,0,0,,7,,,67,127
124606,note_on,1,0,0,,5,,,65,127
124749,note_off,143,0,0,,2,,,62,127
124749,note_off,0,0,0,,7,,,55,127
124750,note_on,1,0,0,,0,,,60,127
124893,note_off,143,0,0,,5,,,65,127
124894,note_on,1,0,0,,4,,,64,127
125037,note_off,143,0,0,,0,,,60,127
125038,note_on,1,0,0,,5,,,53,127
125181,note_off,143,0,0,,4,,,64,127
125182,note_on,1,0,0,,2,,,62,127
125325,note_off,143,0,0,,5,,,53,127
125326,note_on,1,0,0,,7,,,55,127
125469,note_off,143,0,0,,2,,,62,127
125470,note_on,1,0,0,,0,,,60,127
125613,note_off,143,0,0,,7,,,55,127
125614,note_on,1,0,0,,7,,,43,127
125757,note_off,143,0,0,,0,,,60,127
125758,note_on,1,0,0,,12,,,59,127
125899,note_off,141,0,0,,7,,,43,127
125901,note_off,2,0,0,,12,,,59,127
125938,note_on,37,0,0,,0,,,60,127
125938,note_on,0,0,0,,4,,,64,127
126009,note_off,71,0,0,,4,,,64,127
126009,note_off,0,0,0,,0,,,60,127
126010,note_on,1,0,0,,2,,,62,127
126010,note_on,0,0,0,,12,,,59,127
126081,note_off,71,0,0,,12,,,59,127
126081,note_off,0,0,0,,2,,,62,127
126082,note_on,1,0,0,,0,,,60,127
126082,note_on,0,0,0,,4,,,64,127
126226,note_on,144,0,0,,5,,,53,127
126369,note_off,143,0,0,,4,,,64,127
126369,note_off,0,0,0,,0,,,60,127
126370,note_on,1,0,0,,5,,,65,127
126370,note_on,0,0,0,,2,,,62,127
126513,note_off,143,0,0,,5,,,53,127
126514,note_on,1,0,0,,7,,,55,127
126657,note_off,143,0,0,,2,,,62,127
126657,note_off,0,0,0,,5,,,65,127
126658,note_on,1,0,0,,4,,,64,127
126658,note_on,0,0,0,,0,,,60,127
126801,note_off,143,0,0,,7,,,55,127
126802,note_on,1,0,0,,7,,,43,127
126945,note_off,143,0,0,,0,,,60,127
126945,note_off,0,0,0,,4,,,64,127
126946,note_on,1,0,0,,2,,,62,127
126946,note_on,0,0,0,,12,,,59,127
127074,note_off,128,0,0,,12,,,59,127
127074,note_off,0,0,0,,2,,,62,127
127088,note_off,14,0,0,,7,,,43,127
127103,note_on,15,0,0,,10,,,69,127
127103,note_on,0,0,0,,5,,,65,127
127246,note_off,143,0,0,,5,,,65,127
127246,note_off,0,0,0,,10,,,69,127
127247,note_on,1,0,0,,12,,,71,127
127247,note_on,0,0,0,,7,,,67,127
127391,note_on,144,0,0,,5,,,53,127
127534,note_off,143,0,0,,7,,,67,127
127534,note_off,0,0,0,,12,,,71,127
127535,note_on,1,0,0,,0,,,72,127
127535,note_on,0,0,0,,10,,,69,127
127678,note_off,143,0,0,,10,,,69,127
127678,note_off,0,0,0,,0,,,72,127
127678,note_off,0,0,0,,5,,,53,127
127679,note_on,1,0,0,,7,,,55,127
127679,note_on,0,0,0,,7,,,67,127
127679,note_on,0,0,0,,12,,,71,127
127822,note_off,143,0,0,,12,,,71,127
127822,note_off,0,0,0,,7,,,67,127
127823,note_on,1,0,0,,5,,,65,127
127823,note_on,0,0,0,,10,,,69,127
127966,note_off,143,0,0,,10,,,69,127
127966,note_off,0,0,0,,5,,,65,127
127966,note_off,0,0,0,,7,,,55,127
127967,note_on,1,0,0,,7,,,43,127
127967,note_on,0,0,0,,4,,,64,127
127967,note_on,0,0,0,,7,,,67,127
128110,note_off,143,0,0,,7,,,67,127
128110,note_off,0,0,0,,4,,,64,127
128111,note_on,1,0,0,,2,,,62,127
128111,note_on,0,0,0,,5,,,65,127
128239,note_off,128,0,0,,5,,,65,127
128239,note_off,0,0,0,,2,,,62,127
128267,note_on,28,0,0,,0,,,72,127
128267,note_on,0,0,0,,4,,,76,127
128327,note_off,60,0,0,,7,,,43,127
128338,note_off,11,0,0,,4,,,76,127
128338,note_off,0,0,0,,0,,,72,127
128339,note_on,1,0,0,,2,,,74,127
128339,note_on,0,0,0,,12,,,71,127
128410,note_off,71,0,0,,12,,,71,127
128410,note_off,0,0,0,,2,,,74,127
128411,note_on,1,0,0,,4,,,76,127
128411,note_on,0,0,0,,0,,,72,127
128555,note_on,144,0,0,,5,,,53,127
128698,note_off,143,0,0,,0,,,72,127
128698,note_off,0,0,0,,4,,,76,127
128699,note_on,1,0,0,,2,,,74,127
128699,note_on,0,0,0,,5,,,77,127
128842,note_off,143,0,0,,5,,,53,127
128843,note_on,1,0,0,,7,,,55,127
128986,note_off,143,0,0,,5,,,77,127
128986,note_off,0,0,0,,2,,,74,127
128987,note_on,1,0,0,,4,,,76,127
128987,note_on,0,0,0,,0,,,72,127
129130,note_off,143,0,0,,7,,,55,127
129131,note_on,1,0,0,,7,,,43,127
129274,note_off,143,0,0,,0,,,72,127
129274,note_off,0,0,0,,4,,,76,127
129275,note_on,1,0,0,,2,,,74,127
129275,note_on,0,0,0,,12,,,71,127
129403,note_off,128,0,0,,12,,,71,127
129403,note_off,0,0,0,,2,,,74,127
129431,note_on,28,0,0,,10,,,81,127
129431,note_on,0,0,0,,5,,,77,127
129562,note_off,131,0,0,,7,,,43,127
129574,note_off,12,0,0,,5,,,77,127
129574,note_off,0,0,0,,10,,,81,127
129575,note_on,1,0,0,,7,,,79,127
129575,note_on,0,0,0,,12,,,83,127
129719,note_on,144,0,0,,5,,,53,127
129862,note_off,143,0,0,,12,,,83,127
129862,note_off,0,0,0,,7,,,79,127
129863,note_on,1,0,0,,10,,,81,127
129863,note_on,0,0,0,,0,,,84,127
130006,note_off,143,0,0,,0,,,84,127
130006,note_off,0,0,0,,10,,,81,127
130006,note_off,0,0,0,,5,,,53,127
130007,note_on,1,0,0,,7,,,55,127
130007,note_on,0,0,0,,7,,,79,127
130007,note_on,0,0,0,,12,,,83,127
130150,note_off,143,0,0,,12,,,83,127
130150,note_off,0,0,0,,7,,,79,127
130151,note_on,1,0,0,,5,,,77,127
130151,note_on,0,0,0,,10,,,81,127
130294,note_off,143,0,0,,10,,,81,127
130294,note_off,0,0,0,,5,,,77,127
130294,note_off,0,0,0,,7,,,55,127
130295,note_on,1,0,0,,7,,,43,127
130295,note_on,0,0,0,,7,,,79,127
130295,note_on,0,0,0,,4,,,76,127
130438,note_off,143,0,0,,4,,,76,127
130438,note_off,0,0,0,,7,,,79,127
130439,note_on,1,0,0,,2,,,74,127
130439,note_on,0,0,0,,5,,,77,127
130582,note_off,143,0,0,,5,,,77,127
130582,note_off,0,0,0,,2,,,74,127
130582,note_off,0,0,0,,7,,,43,127
130595,note_on,13,0,0,,4,,,76,127
130595,note_on,0,0,0,,0,,,72,127
130595,note_on,0,0,0,,0,,,48,127
130666,note_off,71,0,0,,4,,,76,127
130667,note_on,1,0,0,,2,,,74,127
130738,note_off,71,0,0,,2,,,74,127
130739,note_on,1,0,0,,4,,,76,127
130880,note_off,141,0,0,,0,,,72,127
130882,note_off,2,0,0,,4,,,76,127
130882,note_off,0,0,0,,0,,,48,127
130883,note_on,1,0,0,,0,,,72,127
130883,note_on,0,0,0,,5,,,77,127
130883,note_on,0,0,0,,5,,,53,127
130954,note_off,71,0,0,,5,,,77,127
130955,note_on,1,0,0,,4,,,76,127
131026,note_off,71,0,0,,4,,,76,127
131027,note_on,1,0,0,,2,,,74,127
131170,note_off,143,0,0,,2,,,74,127
131170,note_off,0,0,0,,5,,,53,127
131171,note_on,1,0,0,,4,,,76,127
131171,note_on,0,0,0,,7,,,55,127
131458,note_off,287,0,0,,7,,,55,127
131458,note_off,0,0,0,,4,,,76,127
131458,note_off,0,0,0,,0,,,72,127
131459,note_on,1,0,0,,4,,,76,127
131459,note_on,0,0,0,,12,,,71,127
131459,note_on,0,0,0,,7,,,43,127
131530,note_off,71,0,0,,4,,,76,127
131531,note_on,1,0,0,,2,,,74,127
131602,note_off,71,0,0,,2,,,74,127
131603,note_on,1,0,0,,0,,,72,127
131674,note_off,71,0,0,,0,,,72,127
131675,note_on,1,0,0,,2,,,74,127
131744,note_off,69,0,0,,12,,,71,127
131746,note_off,2,0,0,,2,,,74,127
131746,note_off,0,0,0,,7,,,43,127
131747,note_on,1,0,0,,0,,,72,127
131747,note_on,0,0,0,,0,,,48,127
131975,note_on,228,0,0,,0,,,84,127
132032,note_off,57,0,0,,0,,,72,127
132034,note_off,2,0,0,,0,,,48,127
132046,note_off,12,0,0,,0,,,84,127
132047,note_on,1,0,0,,0,,,36,127
132047,note_on,0,0,0,,0,,,48,127
132047,note_on,0,0,0,,7,,,79,127
132262,note_off,215,0,0,,7,,,79,127
132263,note_on,1,0,0,,4,,,76,127
132334,note_off,71,0,0,,4,,,76,127
132334,note_off,0,0,0,,0,,,48,127
132334,note_off,0,0,0,,0,,,36,127
132335,note_on,1,0,0,,0,,,36,127
132335,note_on,0,0,0,,0,,,48,127
132335,note_on,0,0,0,,0,,,72,127
132550,note_off,215,0,0,,0,,,72,127
132551,note_on,1,0,0,,4,,,76,127
132622,note_off,71,0,0,,4,,,76,127
132622,note_off,0,0,0,,0,,,48,127
132622,note_off,0,0,0,,0,,,36,127
132623,note_on,1,0,0,,0,,,36,127
132623,note_on,0,0,0,,0,,,48,127
132623,note_on,0,0,0,,0,,,72,127
132838,note_off,215,0,0,,0,,,72,127
132839,note_on,1,0,0,,7,,,67,127
132910,note_off,71,0,0,,7,,,67,127
132910,note_off,0,0,0,,0,,,48,127
132910,note_off,0,0,0,,0,,,36,127
132911,note_on,1,0,0,,0,,,48,127
132911,note_on,0,0,0,,0,,,36,127
132911,note_on,0,0,0,,4,,,64,127
133126,note_off,215,0,0,,4,,,64,127
133127,note_on,1,0,0,,7,,,67,127
133198,note_off,71,0,0,,7,,,67,127
133198,note_off,0,0,0,,0,,,36,127
133198,note_off,0,0,0,,0,,,48,127
133199,note_on,1,0,0,,0,,,48,127
133199,note_on,0,0,0,,0,,,36,127
133199,note_on,0,0,0,,4,,,64,127
133414,note_off,215,0,0,,4,,,64,127
133415,note_on,1,0,0,,0,,,60,127
133486,note_off,71,0,0,,0,,,60,127
133486,note_off,0,0,0,,0,,,36,127
133486,note_off,0,0,0,,0,,,48,127
133487,note_on,1,0,0,,0,,,48,127
133487,note_on,0,0,0,,0,,,36,127
133487,note_on,0,0,0,,0,,,72,127
133702,note_off,215,0,0,,0,,,72,127
133703,note_on,1,0,0,,4,,,76,127
133774,note_off,71,0,0,,4,,,76,127
133774,note_off,0,0,0,,0,,,36,127
133774,note_off,0,0,0,,0,,,48,127
133775,note_on,1,0,0,,0,,,36,127
133775,note_on,0,0,0,,0,,,48,127
133775,note_on,0,0,0,,0,,,72,127
133990,note_off,215,0,0,,0,,,72,127
133991,note_on,1,0,0,,7,,,67,127
134062,note_off,71,0,0,,7,,,67,127
134062,note_off,0,0,0,,0,,,48,127
134062,note_off,0,0,0,,0,,,36,127
134075,note_on,13,0,0,,0,,,72,127
134075,note_on,0,0,0,,0,,,48,127
134075,note_on,0,0,0,,0,,,36,127
136215,note_off,2140,0,0,,0,,,36,127
136215,note_off,0,0,0,,0,,,48,127
136215,note_off,0,0,0,,0,,,72,127
136704,end_of_track,489,1,0,,,,,,
