tick,type,time,meta,track,program,channel,pitch,tempo,note,velocity
0,copyright,0,1,0,,,,,,
0,program_change,0,0,0,6,0,,,,
0,pitchwheel,0,0,0,,0,0,,,
0,program_change,0,0,0,6,1,,,,
0,pitchwheel,0,0,0,,1,-590,,,
0,program_change,0,0,0,6,2,,,,
0,pitchwheel,0,0,0,,2,-272,,,
0,program_change,0,0,0,6,3,,,,
0,pitchwheel,0,0,0,,3,-353,,,
0,program_change,0,0,0,6,4,,,,
0,pitchwheel,0,0,0,,4,-560,,,
0,program_change,0,0,0,6,5,,,,
0,pitchwheel,0,0,0,,5,-80,,,
0,program_change,0,0,0,6,6,,,,
0,pitchwheel,0,0,0,,6,-625,,,
0,program_change,0,0,0,6,7,,,,
0,pitchwheel,0,0,0,,7,-130,,,
0,program_change,0,0,0,6,8,,,,
0,pitchwheel,0,0,0,,8,-512,,,
0,program_change,0,0,0,6,10,,,,
0,pitchwheel,0,0,0,,10,-464,,,
0,program_change,0,0,0,6,11,,,,
0,pitchwheel,0,0,0,,11,-208,,,
0,program_change,0,0,0,6,12,,,,
0,pitchwheel,0,0,0,,12,-553,,,
0,set_tempo,0,1,0,,,,500000,,
121,note_on,121,0,0,,0,,,60,127
121,note_on,0,0,0,,4,,,64,127
121,note_on,0,0,0,,0,,,72,127
201,note_off,80,0,0,,4,,,64,127
201,note_off,0,0,0,,0,,,60,127
202,note_on,1,0,0,,2,,,62,127
202,note_on,0,0,0,,5,,,65,127
282,note_off,80,0,0,,5,,,65,127
282,note_off,0,0,0,,2,,,62,127
283,note_on,1,0,0,,4,,,64,127
283,note_on,0,0,0,,7,,,67,127
363,note_off,80,0,0,,7,,,67,127
363,note_off,0,0,0,,4,,,64,127
364,note_on,1,0,0,,4,,,64,127
364,note_on,0,0,0,,7,,,67,127
605,note_off,241,0,0,,7,,,67,127
605,note_off,0,0,0,,4,,,64,127
606,note_on,1,0,0,,4,,,64,127
606,note_on,0,0,0,,7,,,67,127
847,note_off,241,0,0,,7,,,67,127
847,note_off,0,0,0,,4,,,64,127
847,note_off,0,0,0,,0,,,72,127
848,note_on,1,0,0,,5,,,65,127
848,note_on,0,0,0,,10,,,69,127
928,note_off,80,0,0,,10,,,69,127
929,note_on,1,0,0,,7,,,67,127
1009,note_off,80,0,0,,7,,,67,127
1010,note_on,1,0,0,,10,,,69,127
1090,note_off,80,0,0,,10,,,69,127
1090,note_off,0,0,0,,5,,,65,127
1091,note_on,1,0,0,,2,,,62,127
1091,note_on,0,0,0,,12,,,71,127
1171,note_off,80,0,0,,12,,,71,127
1172,note_on,1,0,0,,10,,,69,127
1252,note_off,80,0,0,,10,,,69,127
1253,note_on,1,0,0,,12,,,71,127
1333,note_off,80,0,0,,12,,,71,127
1333,note_off,0,0,0,,2,,,62,127
1334,note_on,1,0,0,,4,,,64,127
1334,note_on,0,0,0,,0,,,72,127
1698,note_off,364,0,0,,0,,,72,127
1698,note_off,0,0,0,,4,,,64,127
1819,note_on,121,0,0,,5,,,53,127
1819,note_on,0,0,0,,5,,,77,127
1819,note_on,0,0,0,,10,,,69,127
2060,note_off,241,0,0,,10,,,69,127
2060,note_off,0,0,0,,5,,,77,127
2061,note_on,1,0,0,,7,,,67,127
2061,note_on,0,0,0,,4,,,76,127
2302,note_off,241,0,0,,5,,,53,127
2303,note_on,1,0,0,,7,,,55,127
2544,note_off,241,0,0,,4,,,76,127
2544,note_off,0,0,0,,7,,,67,127
2545,note_on,1,0,0,,2,,,74,127
2545,note_on,0,0,0,,5,,,65,127
2786,note_off,241,0,0,,5,,,65,127
2786,note_off,0,0,0,,2,,,74,127
2786,note_off,0,0,0,,7,,,55,127
2787,note_on,1,0,0,,0,,,48,127
2787,note_on,0,0,0,,0,,,72,127
2787,note_on,0,0,0,,4,,,64,127
3028,note_off,241,0,0,,4,,,64,127
3028,note_off,0,0,0,,0,,,72,127
3028,note_off,0,0,0,,0,,,48,127
3029,note_on,1,0,0,,0,,,60,127
3029,note_on,0,0,0,,0,,,72,127
3029,note_on,0,0,0,,4,,,64,127
3109,note_off,80,0,0,,4,,,64,127
3109,note_off,0,0,0,,0,,,60,127
3110,note_on,1,0,0,,2,,,62,127
3110,note_on,0,0,0,,5,,,65,127
3190,note_off,80,0,0,,5,,,65,127
3190,note_off,0,0,0,,2,,,62,127
3191,note_on,1,0,0,,4,,,64,127
3191,note_on,0,0,0,,7,,,67,127
3271,note_off,80,0,0,,7,,,67,127
3271,note_off,0,0,0,,4,,,64,127
3272,note_on,1,0,0,,4,,,64,127
3272,note_on,0,0,0,,7,,,67,127
3513,note_off,241,0,0,,7,,,67,127
3513,note_off,0,0,0,,4,,,64,127
3514,note_on,1,0,0,,4,,,64,127
3514,note_on,0,0,0,,7,,,67,127
3755,note_off,241,0,0,,7,,,67,127
3755,note_off,0,0,0,,4,,,64,127
3755,note_off,0,0,0,,0,,,72,127
3756,note_on,1,0,0,,5,,,65,127
3756,note_on,0,0,0,,0,,,72,127
3756,note_on,0,0,0,,10,,,69,127
3836,note_off,80,0,0,,10,,,69,127
3837,note_on,1,0,0,,7,,,67,127
3917,note_off,80,0,0,,7,,,67,127
3918,note_on,1,0,0,,10,,,69,127
3998,note_off,80,0,0,,10,,,69,127
3998,note_off,0,0,0,,0,,,72,127
3998,note_off,0,0,0,,5,,,65,127
3999,note_on,1,0,0,,2,,,62,127
3999,note_on,0,0,0,,12,,,71,127
3999,note_on,0,0,0,,2,,,74,127
4079,note_off,80,0,0,,12,,,71,127
4080,note_on,1,0,0,,10,,,69,127
4160,note_off,80,0,0,,10,,,69,127
4161,note_on,1,0,0,,12,,,71,127
4241,note_off,80,0,0,,12,,,71,127
4241,note_off,0,0,0,,2,,,74,127
4241,note_off,0,0,0,,2,,,62,127
4242,note_on,1,0,0,,0,,,60,127
4242,note_on,0,0,0,,0,,,72,127
4242,note_on,0,0,0,,4,,,76,127
4606,note_off,364,0,0,,4,,,76,127
4606,note_off,0,0,0,,0,,,72,127
4606,note_off,0,0,0,,0,,,60,127
4727,note_on,121,0,0,,5,,,53,127
4727,note_on,0,0,0,,10,,,81,127
4727,note_on,0,0,0,,5,,,77,127
4968,note_off,241,0,0,,5,,,77,127
4968,note_off,0,0,0,,10,,,81,127
4969,note_on,1,0,0,,4,,,76,127
4969,note_on,0,0,0,,7,,,79,127
5210,note_off,241,0,0,,5,,,53,127
5211,note_on,1,0,0,,7,,,55,127
5452,note_off,241,0,0,,7,,,79,127
5452,note_off,0,0,0,,4,,,76,127
5453,note_on,1,0,0,,5,,,77,127
5453,note_on,0,0,0,,2,,,74,127
5694,note_off,241,0,0,,2,,,74,127
5694,note_off,0,0,0,,5,,,77,127
5694,note_off,0,0,0,,7,,,55,127
5695,note_on,1,0,0,,0,,,48,127
5695,note_on,0,0,0,,4,,,76,127
5695,note_on,0,0,0,,0,,,72,127
5936,note_off,241,0,0,,0,,,72,127
5936,note_off,0,0,0,,4,,,76,127
5936,note_off,0,0,0,,0,,,48,127
5937,note_on,1,0,0,,7,,,67,127
6017,note_off,80,0,0,,7,,,67,127
6018,note_on,1,0,0,,6,,,66,127
6098,note_off,80,0,0,,6,,,66,127
6099,note_on,1,0,0,,7,,,67,127
6179,note_off,80,0,0,,7,,,67,127
6180,note_on,1,0,0,,0,,,60,127
6180,note_on,0,0,0,,4,,,64,127
6180,note_on,0,0,0,,10,,,69,127
6260,note_off,80,0,0,,10,,,69,127
6261,note_on,1,0,0,,7,,,67,127
6341,note_off,80,0,0,,7,,,67,127
6342,note_on,1,0,0,,10,,,69,127
6422,note_off,80,0,0,,10,,,69,127
6422,note_off,0,0,0,,4,,,64,127
6422,note_off,0,0,0,,0,,,60,127
6423,note_on,1,0,0,,2,,,62,127
6423,note_on,0,0,0,,12,,,59,127
6423,note_on,0,0,0,,12,,,71,127
6503,note_off,80,0,0,,12,,,71,127
6504,note_on,1,0,0,,10,,,69,127
6584,note_off,80,0,0,,10,,,69,127
6585,note_on,1,0,0,,12,,,71,127
6665,note_off,80,0,0,,12,,,71,127
6665,note_off,0,0,0,,12,,,59,127
6665,note_off,0,0,0,,2,,,62,127
6666,note_on,1,0,0,,0,,,60,127
6666,note_on,0,0,0,,10,,,57,127
6666,note_on,0,0,0,,0,,,72,127
6746,note_off,80,0,0,,0,,,72,127
6747,note_on,1,0,0,,12,,,71,127
6827,note_off,80,0,0,,12,,,71,127
6828,note_on,1,0,0,,0,,,72,127
6908,note_off,80,0,0,,0,,,72,127
6909,note_on,1,0,0,,2,,,74,127
6989,note_off,80,0,0,,2,,,74,127
6990,note_on,1,0,0,,0,,,72,127
7070,note_off,80,0,0,,0,,,72,127
7071,note_on,1,0,0,,2,,,74,127
7151,note_off,80,0,0,,2,,,74,127
7151,note_off,0,0,0,,10,,,57,127
7151,note_off,0,0,0,,0,,,60,127
7152,note_on,1,0,0,,7,,,55,127
7152,note_on,0,0,0,,0,,,60,127
7152,note_on,0,0,0,,4,,,76,127
7232,note_off,80,0,0,,4,,,76,127
7233,note_on,1,0,0,,2,,,74,127
7313,note_off,80,0,0,,2,,,74,127
7314,note_on,1,0,0,,4,,,76,127
7394,note_off,80,0,0,,4,,,76,127
7394,note_off,0,0,0,,0,,,60,127
7394,note_off,0,0,0,,7,,,55,127
7395,note_on,1,0,0,,5,,,53,127
7395,note_on,0,0,0,,2,,,62,127
7395,note_on,0,0,0,,5,,,77,127
7636,note_off,241,0,0,,5,,,77,127
7636,note_off,0,0,0,,2,,,62,127
7636,note_off,0,0,0,,5,,,53,127
7637,note_on,1,0,0,,7,,,55,127
7637,note_on,0,0,0,,0,,,60,127
7637,note_on,0,0,0,,7,,,67,127
7878,note_off,241,0,0,,7,,,67,127
7878,note_off,0,0,0,,0,,,60,127
7879,note_on,1,0,0,,12,,,59,127
7879,note_on,0,0,0,,5,,,77,127
8120,note_off,241,0,0,,5,,,77,127
8120,note_off,0,0,0,,12,,,59,127
8120,note_off,0,0,0,,7,,,55,127
8121,note_on,1,0,0,,0,,,48,127
8121,note_on,0,0,0,,0,,,60,127
8121,note_on,0,0,0,,5,,,77,127
8161,note_on,40,0,0,,4,,,76,127
8177,note_off,16,0,0,,5,,,77,127
8201,note_on,24,0,0,,5,,,77,127
8217,note_off,16,0,0,,4,,,76,127
8241,note_on,24,0,0,,4,,,76,127
8257,note_off,16,0,0,,5,,,77,127
8281,note_on,24,0,0,,5,,,77,127
8297,note_off,16,0,0,,4,,,76,127
8321,note_on,24,0,0,,4,,,76,127
8337,note_off,16,0,0,,5,,,77,127
8361,note_on,24,0,0,,2,,,74,127
8377,note_off,16,0,0,,4,,,76,127
8602,note_off,225,0,0,,2,,,74,127
8603,note_on,1,0,0,,0,,,72,127
8724,note_off,121,0,0,,0,,,48,127
8844,note_off,120,0,0,,0,,,72,127
8844,note_off,0,0,0,,0,,,60,127
8845,note_on,1,0,0,,7,,,55,127
8845,note_on,0,0,0,,7,,,67,127
8845,note_on,0,0,0,,7,,,79,127
8925,note_off,80,0,0,,7,,,55,127
8926,note_on,1,0,0,,6,,,54,127
9006,note_off,80,0,0,,6,,,54,127
9007,note_on,1,0,0,,7,,,55,127
9087,note_off,80,0,0,,7,,,55,127
9088,note_on,1,0,0,,10,,,57,127
9168,note_off,80,0,0,,10,,,57,127
9169,note_on,1,0,0,,7,,,55,127
9249,note_off,80,0,0,,7,,,55,127
9250,note_on,1,0,0,,10,,,57,127
9330,note_off,80,0,0,,10,,,57,127
9330,note_off,0,0,0,,7,,,79,127
9331,note_on,1,0,0,,12,,,59,127
9331,note_on,0,0,0,,5,,,77,127
9411,note_off,80,0,0,,12,,,59,127
9412,note_on,1,0,0,,10,,,57,127
9492,note_off,80,0,0,,10,,,57,127
9493,note_on,1,0,0,,12,,,59,127
9573,note_off,80,0,0,,12,,,59,127
9573,note_off,0,0,0,,5,,,77,127
9573,note_off,0,0,0,,7,,,67,127
9574,note_on,1,0,0,,0,,,60,127
9574,note_on,0,0,0,,4,,,76,127
9574,note_on,0,0,0,,7,,,67,127
9654,note_off,80,0,0,,0,,,60,127
9655,note_on,1,0,0,,12,,,59,127
9735,note_off,80,0,0,,12,,,59,127
9736,note_on,1,0,0,,0,,,60,127
9816,note_off,80,0,0,,0,,,60,127
9816,note_off,0,0,0,,4,,,76,127
9817,note_on,1,0,0,,2,,,62,127
9817,note_on,0,0,0,,2,,,74,127
9897,note_off,80,0,0,,2,,,62,127
9898,note_on,1,0,0,,0,,,60,127
9978,note_off,80,0,0,,0,,,60,127
9979,note_on,1,0,0,,2,,,62,127
10059,note_off,80,0,0,,2,,,62,127
10059,note_off,0,0,0,,2,,,74,127
10060,note_on,1,0,0,,4,,,64,127
10060,note_on,0,0,0,,0,,,72,127
10140,note_off,80,0,0,,4,,,64,127
10141,note_on,1,0,0,,2,,,62,127
10221,note_off,80,0,0,,2,,,62,127
10222,note_on,1,0,0,,4,,,64,127
10302,note_off,80,0,0,,4,,,64,127
10302,note_off,0,0,0,,0,,,72,127
10302,note_off,0,0,0,,7,,,67,127
10303,note_on,1,0,0,,5,,,65,127
10303,note_on,0,0,0,,2,,,74,127
10544,note_off,241,0,0,,2,,,74,127
10545,note_on,1,0,0,,7,,,55,127
10545,note_on,0,0,0,,0,,,72,127
10782,note_off,237,0,0,,5,,,65,127
10786,note_off,4,0,0,,0,,,72,127
10787,note_on,1,0,0,,5,,,65,127
10787,note_on,0,0,0,,12,,,71,127
10908,note_off,121,0,0,,7,,,55,127
11028,note_off,120,0,0,,12,,,71,127
11028,note_off,0,0,0,,5,,,65,127
11029,note_on,1,0,0,,4,,,64,127
11029,note_on,0,0,0,,2,,,74,127
11069,note_on,40,0,0,,0,,,72,127
11085,note_off,16,0,0,,2,,,74,127
11109,note_on,24,0,0,,2,,,74,127
11125,note_off,16,0,0,,0,,,72,127
11149,note_on,24,0,0,,0,,,72,127
11165,note_off,16,0,0,,2,,,74,127
11189,note_on,24,0,0,,2,,,74,127
11205,note_off,16,0,0,,0,,,72,127
11229,note_on,24,0,0,,0,,,72,127
11245,note_off,16,0,0,,2,,,74,127
11268,note_off,23,0,0,,4,,,64,127
11269,note_on,1,0,0,,2,,,62,127
11269,note_on,0,0,0,,12,,,71,127
11285,note_off,16,0,0,,0,,,72,127
11510,note_off,225,0,0,,12,,,71,127
11510,note_off,0,0,0,,2,,,62,127
11511,note_on,1,0,0,,0,,,60,127
11511,note_on,0,0,0,,0,,,72,127
11752,note_off,241,0,0,,0,,,72,127
11752,note_off,0,0,0,,0,,,60,127
11753,note_on,1,0,0,,0,,,72,127
11833,note_off,80,0,0,,0,,,72,127
11834,note_on,1,0,0,,12,,,71,127
11914,note_off,80,0,0,,12,,,71,127
11915,note_on,1,0,0,,0,,,72,127
11995,note_off,80,0,0,,0,,,72,127
11996,note_on,1,0,0,,0,,,60,127
11996,note_on,0,0,0,,7,,,67,127
11996,note_on,0,0,0,,4,,,76,127
12076,note_off,80,0,0,,4,,,76,127
12077,note_on,1,0,0,,2,,,74,127
12157,note_off,80,0,0,,2,,,74,127
12158,note_on,1,0,0,,4,,,76,127
12238,note_off,80,0,0,,4,,,76,127
12238,note_off,0,0,0,,7,,,67,127
12238,note_off,0,0,0,,0,,,60,127
12239,note_on,1,0,0,,0,,,60,127
12239,note_on,0,0,0,,10,,,69,127
12239,note_on,0,0,0,,6,,,78,127
12319,note_off,80,0,0,,6,,,78,127
12320,note_on,1,0,0,,4,,,76,127
12400,note_off,80,0,0,,4,,,76,127
12401,note_on,1,0,0,,6,,,78,127
12481,note_off,80,0,0,,6,,,78,127
12481,note_off,0,0,0,,10,,,69,127
12481,note_off,0,0,0,,0,,,60,127
12482,note_on,1,0,0,,12,,,59,127
12482,note_on,0,0,0,,7,,,67,127
12482,note_on,0,0,0,,7,,,79,127
12562,note_off,80,0,0,,7,,,79,127
12563,note_on,1,0,0,,6,,,78,127
12643,note_off,80,0,0,,6,,,78,127
12644,note_on,1,0,0,,7,,,79,127
12724,note_off,80,0,0,,7,,,79,127
12724,note_off,0,0,0,,7,,,67,127
12724,note_off,0,0,0,,12,,,59,127
12725,note_on,1,0,0,,6,,,66,127
12725,note_on,0,0,0,,10,,,57,127
12725,note_on,0,0,0,,10,,,81,127
12805,note_off,80,0,0,,10,,,81,127
12806,note_on,1,0,0,,7,,,79,127
12886,note_off,80,0,0,,7,,,79,127
12887,note_on,1,0,0,,10,,,81,127
12967,note_off,80,0,0,,10,,,81,127
12967,note_off,0,0,0,,10,,,57,127
12967,note_off,0,0,0,,6,,,66,127
12968,note_on,1,0,0,,7,,,67,127
12968,note_on,0,0,0,,7,,,55,127
12968,note_on,0,0,0,,12,,,83,127
13048,note_off,80,0,0,,12,,,83,127
13049,note_on,1,0,0,,10,,,81,127
13129,note_off,80,0,0,,10,,,81,127
13130,note_on,1,0,0,,12,,,83,127
13210,note_off,80,0,0,,12,,,83,127
13210,note_off,0,0,0,,7,,,55,127
13210,note_off,0,0,0,,7,,,67,127
13211,note_on,1,0,0,,2,,,50,127
13211,note_on,0,0,0,,0,,,84,127
13452,note_off,241,0,0,,0,,,84,127
13453,note_on,1,0,0,,2,,,74,127
13694,note_off,241,0,0,,2,,,74,127
13694,note_off,0,0,0,,2,,,50,127
13695,note_on,1,0,0,,2,,,62,127
13695,note_on,0,0,0,,0,,,84,127
13936,note_off,241,0,0,,0,,,84,127
13936,note_off,0,0,0,,2,,,62,127
13937,note_on,1,0,0,,7,,,43,127
13937,note_on,0,0,0,,0,,,84,127
13977,note_on,40,0,0,,12,,,83,127
13993,note_off,16,0,0,,0,,,84,127
14017,note_on,24,0,0,,0,,,84,127
14033,note_off,16,0,0,,12,,,83,127
14057,note_on,24,0,0,,12,,,83,127
14073,note_off,16,0,0,,0,,,84,127
14097,note_on,24,0,0,,0,,,84,127
14113,note_off,16,0,0,,12,,,83,127
14137,note_on,24,0,0,,12,,,83,127
14153,note_off,16,0,0,,0,,,84,127
14177,note_on,24,0,0,,10,,,81,127
14193,note_off,16,0,0,,12,,,83,127
14418,note_off,225,0,0,,10,,,81,127
14419,note_on,1,0,0,,7,,,79,127
14540,note_off,121,0,0,,7,,,43,127
14660,note_off,120,0,0,,7,,,79,127
14661,note_on,1,0,0,,2,,,62,127
14661,note_on,0,0,0,,2,,,86,127
14661,note_on,0,0,0,,2,,,74,127
14741,note_off,80,0,0,,2,,,62,127
14742,note_on,1,0,0,,1,,,61,127
14822,note_off,80,0,0,,1,,,61,127
14823,note_on,1,0,0,,2,,,62,127
14903,note_off,80,0,0,,2,,,62,127
14904,note_on,1,0,0,,4,,,64,127
14984,note_off,80,0,0,,4,,,64,127
14985,note_on,1,0,0,,2,,,62,127
15065,note_off,80,0,0,,2,,,62,127
15066,note_on,1,0,0,,4,,,64,127
15146,note_off,80,0,0,,4,,,64,127
15146,note_off,0,0,0,,2,,,86,127
15147,note_on,1,0,0,,6,,,66,127
15147,note_on,0,0,0,,0,,,84,127
15227,note_off,80,0,0,,6,,,66,127
15228,note_on,1,0,0,,4,,,64,127
15308,note_off,80,0,0,,4,,,64,127
15309,note_on,1,0,0,,6,,,66,127
15389,note_off,80,0,0,,6,,,66,127
15389,note_off,0,0,0,,0,,,84,127
15389,note_off,0,0,0,,2,,,74,127
15390,note_on,1,0,0,,7,,,67,127
15390,note_on,0,0,0,,12,,,83,127
15390,note_on,0,0,0,,2,,,74,127
15470,note_off,80,0,0,,7,,,67,127
15471,note_on,1,0,0,,6,,,66,127
15551,note_off,80,0,0,,6,,,66,127
15552,note_on,1,0,0,,7,,,67,127
15632,note_off,80,0,0,,7,,,67,127
15632,note_off,0,0,0,,12,,,83,127
15633,note_on,1,0,0,,10,,,69,127
15633,note_on,0,0,0,,10,,,81,127
15713,note_off,80,0,0,,10,,,69,127
15714,note_on,1,0,0,,7,,,67,127
15794,note_off,80,0,0,,7,,,67,127
15795,note_on,1,0,0,,10,,,69,127
15875,note_off,80,0,0,,10,,,69,127
15875,note_off,0,0,0,,10,,,81,127
15876,note_on,1,0,0,,12,,,71,127
15876,note_on,0,0,0,,7,,,79,127
15956,note_off,80,0,0,,12,,,71,127
15957,note_on,1,0,0,,10,,,69,127
16037,note_off,80,0,0,,10,,,69,127
16038,note_on,1,0,0,,12,,,71,127
16118,note_off,80,0,0,,12,,,71,127
16118,note_off,0,0,0,,7,,,79,127
16118,note_off,0,0,0,,2,,,74,127
16119,note_on,1,0,0,,0,,,72,127
16119,note_on,0,0,0,,10,,,81,127
16360,note_off,241,0,0,,10,,,81,127
16361,note_on,1,0,0,,2,,,62,127
16361,note_on,0,0,0,,7,,,79,127
16598,note_off,237,0,0,,0,,,72,127
16602,note_off,4,0,0,,7,,,79,127
16603,note_on,1,0,0,,0,,,72,127
16603,note_on,0,0,0,,6,,,78,127
16724,note_off,121,0,0,,2,,,62,127
16844,note_off,120,0,0,,6,,,78,127
16844,note_off,0,0,0,,0,,,72,127
16845,note_on,1,0,0,,12,,,71,127
16845,note_on,0,0,0,,10,,,81,127
16885,note_on,40,0,0,,7,,,79,127
16901,note_off,16,0,0,,10,,,81,127
16925,note_on,24,0,0,,10,,,81,127
16941,note_off,16,0,0,,7,,,79,127
16965,note_on,24,0,0,,7,,,79,127
16981,note_off,16,0,0,,10,,,81,127
17005,note_on,24,0,0,,10,,,81,127
17021,note_off,16,0,0,,7,,,79,127
17045,note_on,24,0,0,,7,,,79,127
17061,note_off,16,0,0,,10,,,81,127
17084,note_off,23,0,0,,12,,,71,127
17085,note_on,1,0,0,,10,,,69,127
17085,note_on,0,0,0,,6,,,78,127
17101,note_off,16,0,0,,7,,,79,127
17326,note_off,225,0,0,,6,,,78,127
17326,note_off,0,0,0,,10,,,69,127
17327,note_on,1,0,0,,7,,,67,127
17327,note_on,0,0,0,,7,,,79,127
17581,note_off,254,0,0,,7,,,79,127
17581,note_off,0,0,0,,7,,,67,127
17590,note_on,9,0,0,,2,,,74,127
17590,note_on,0,0,0,,2,,,86,127
17590,note_on,0,0,0,,7,,,67,127
17670,note_off,80,0,0,,7,,,67,127
17671,note_on,1,0,0,,6,,,66,127
17751,note_off,80,0,0,,6,,,66,127
17752,note_on,1,0,0,,7,,,67,127
17832,note_off,80,0,0,,7,,,67,127
17832,note_off,0,0,0,,2,,,86,127
17832,note_off,0,0,0,,2,,,74,127
17833,note_on,1,0,0,,2,,,74,127
17833,note_on,0,0,0,,2,,,86,127
17833,note_on,0,0,0,,10,,,69,127
17913,note_off,80,0,0,,10,,,69,127
17914,note_on,1,0,0,,7,,,67,127
17994,note_off,80,0,0,,7,,,67,127
17995,note_on,1,0,0,,10,,,69,127
18075,note_off,80,0,0,,10,,,69,127
18075,note_off,0,0,0,,2,,,86,127
18075,note_off,0,0,0,,2,,,74,127
18076,note_on,1,0,0,,2,,,74,127
18076,note_on,0,0,0,,2,,,86,127
18076,note_on,0,0,0,,12,,,71,127
18156,note_off,80,0,0,,12,,,71,127
18157,note_on,1,0,0,,10,,,69,127
18237,note_off,80,0,0,,10,,,69,127
18238,note_on,1,0,0,,12,,,71,127
18318,note_off,80,0,0,,12,,,71,127
18318,note_off,0,0,0,,2,,,86,127
18318,note_off,0,0,0,,2,,,74,127
18319,note_on,1,0,0,,2,,,86,127
18319,note_on,0,0,0,,2,,,74,127
18319,note_on,0,0,0,,2,,,38,127
18399,note_off,80,0,0,,2,,,86,127
18400,note_on,1,0,0,,0,,,84,127
18433,note_off,33,0,0,,2,,,74,127
18480,note_off,47,0,0,,0,,,84,127
18481,note_on,1,0,0,,12,,,83,127
18561,note_off,80,0,0,,12,,,83,127
18562,note_on,1,0,0,,10,,,81,127
18642,note_off,80,0,0,,10,,,81,127
18643,note_on,1,0,0,,12,,,83,127
18723,note_off,80,0,0,,12,,,83,127
18724,note_on,1,0,0,,7,,,79,127
18804,note_off,80,0,0,,7,,,79,127
18805,note_on,1,0,0,,6,,,78,127
18885,note_off,80,0,0,,6,,,78,127
18886,note_on,1,0,0,,7,,,79,127
18966,note_off,80,0,0,,7,,,79,127
18967,note_on,1,0,0,,4,,,76,127
19047,note_off,80,0,0,,2,,,38,127
19060,note_off,13,0,0,,4,,,76,127
19069,note_on,9,0,0,,6,,,66,127
19069,note_on,0,0,0,,2,,,74,127
19069,note_on,0,0,0,,2,,,86,127
19149,note_off,80,0,0,,6,,,66,127
19150,note_on,1,0,0,,4,,,64,127
19230,note_off,80,0,0,,4,,,64,127
19231,note_on,1,0,0,,6,,,66,127
19311,note_off,80,0,0,,6,,,66,127
19311,note_off,0,0,0,,2,,,86,127
19311,note_off,0,0,0,,2,,,74,127
19312,note_on,1,0,0,,7,,,67,127
19312,note_on,0,0,0,,2,,,86,127
19312,note_on,0,0,0,,2,,,74,127
19392,note_off,80,0,0,,7,,,67,127
19393,note_on,1,0,0,,6,,,66,127
19473,note_off,80,0,0,,6,,,66,127
19474,note_on,1,0,0,,7,,,67,127
19554,note_off,80,0,0,,7,,,67,127
19554,note_off,0,0,0,,2,,,74,127
19554,note_off,0,0,0,,2,,,86,127
19555,note_on,1,0,0,,10,,,69,127
19555,note_on,0,0,0,,2,,,74,127
19555,note_on,0,0,0,,2,,,86,127
19635,note_off,80,0,0,,10,,,69,127
19636,note_on,1,0,0,,7,,,67,127
19716,note_off,80,0,0,,7,,,67,127
19717,note_on,1,0,0,,10,,,69,127
19797,note_off,80,0,0,,10,,,69,127
19797,note_off,0,0,0,,2,,,86,127
19797,note_off,0,0,0,,2,,,74,127
19798,note_on,1,0,0,,0,,,36,127
19798,note_on,0,0,0,,2,,,86,127
19798,note_on,0,0,0,,2,,,74,127
19878,note_off,80,0,0,,2,,,86,127
19879,note_on,1,0,0,,0,,,84,127
19912,note_off,33,0,0,,2,,,74,127
19959,note_off,47,0,0,,0,,,84,127
19960,note_on,1,0,0,,12,,,83,127
20040,note_off,80,0,0,,12,,,83,127
20041,note_on,1,0,0,,10,,,81,127
20121,note_off,80,0,0,,10,,,81,127
20122,note_on,1,0,0,,12,,,83,127
20202,note_off,80,0,0,,12,,,83,127
20203,note_on,1,0,0,,7,,,79,127
20283,note_off,80,0,0,,7,,,79,127
20284,note_on,1,0,0,,6,,,78,127
20364,note_off,80,0,0,,6,,,78,127
20365,note_on,1,0,0,,7,,,79,127
20445,note_off,80,0,0,,7,,,79,127
20446,note_on,1,0,0,,4,,,76,127
20526,note_off,80,0,0,,0,,,36,127
20539,note_off,13,0,0,,4,,,76,127
20548,note_on,9,0,0,,2,,,74,127
20548,note_on,0,0,0,,2,,,86,127
20548,note_on,0,0,0,,6,,,66,127
20628,note_off,80,0,0,,6,,,66,127
20629,note_on,1,0,0,,4,,,64,127
20709,note_off,80,0,0,,4,,,64,127
20710,note_on,1,0,0,,6,,,66,127
20790,note_off,80,0,0,,6,,,66,127
20790,note_off,0,0,0,,2,,,86,127
20790,note_off,0,0,0,,2,,,74,127
20791,note_on,1,0,0,,2,,,86,127
20791,note_on,0,0,0,,2,,,74,127
20791,note_on,0,0,0,,7,,,67,127
20871,note_off,80,0,0,,7,,,67,127
20872,note_on,1,0,0,,6,,,66,127
20952,note_off,80,0,0,,6,,,66,127
20953,note_on,1,0,0,,7,,,67,127
21033,note_off,80,0,0,,7,,,67,127
21033,note_off,0,0,0,,2,,,74,127
21033,note_off,0,0,0,,2,,,86,127
21034,note_on,1,0,0,,2,,,74,127
21034,note_on,0,0,0,,2,,,86,127
21034,note_on,0,0,0,,10,,,69,127
21114,note_off,80,0,0,,10,,,69,127
21115,note_on,1,0,0,,7,,,67,127
21195,note_off,80,0,0,,7,,,67,127
21196,note_on,1,0,0,,10,,,69,127
21276,note_off,80,0,0,,10,,,69,127
21276,note_off,0,0,0,,2,,,74,127
21277,note_on,1,0,0,,2,,,74,127
21277,note_on,0,0,0,,12,,,35,127
21357,note_off,80,0,0,,2,,,86,127
21358,note_on,1,0,0,,2,,,86,127
21391,note_off,33,0,0,,2,,,74,127
21438,note_off,47,0,0,,2,,,86,127
21439,note_on,1,0,0,,0,,,84,127
21519,note_off,80,0,0,,0,,,84,127
21520,note_on,1,0,0,,12,,,83,127
21600,note_off,80,0,0,,12,,,83,127
21601,note_on,1,0,0,,0,,,84,127
21681,note_off,80,0,0,,0,,,84,127
21682,note_on,1,0,0,,10,,,81,127
21762,note_off,80,0,0,,10,,,81,127
21763,note_on,1,0,0,,7,,,79,127
21843,note_off,80,0,0,,7,,,79,127
21844,note_on,1,0,0,,10,,,81,127
21924,note_off,80,0,0,,10,,,81,127
21925,note_on,1,0,0,,6,,,78,127
22005,note_off,80,0,0,,12,,,35,127
22018,note_off,13,0,0,,6,,,78,127
22027,note_on,9,0,0,,7,,,67,127
22027,note_on,0,0,0,,2,,,74,127
22027,note_on,0,0,0,,2,,,86,127
22107,note_off,80,0,0,,7,,,67,127
22108,note_on,1,0,0,,6,,,66,127
22188,note_off,80,0,0,,6,,,66,127
22189,note_on,1,0,0,,7,,,67,127
22269,note_off,80,0,0,,7,,,67,127
22269,note_off,0,0,0,,2,,,86,127
22269,note_off,0,0,0,,2,,,74,127
22270,note_on,1,0,0,,10,,,69,127
22270,note_on,0,0,0,,2,,,86,127
22270,note_on,0,0,0,,2,,,74,127
22350,note_off,80,0,0,,10,,,69,127
22351,note_on,1,0,0,,7,,,67,127
22431,note_off,80,0,0,,7,,,67,127
22432,note_on,1,0,0,,10,,,69,127
22512,note_off,80,0,0,,10,,,69,127
22512,note_off,0,0,0,,2,,,74,127
22512,note_off,0,0,0,,2,,,86,127
22513,note_on,1,0,0,,12,,,71,127
22513,note_on,0,0,0,,2,,,86,127
22513,note_on,0,0,0,,2,,,74,127
22593,note_off,80,0,0,,12,,,71,127
22594,note_on,1,0,0,,10,,,69,127
22674,note_off,80,0,0,,10,,,69,127
22675,note_on,1,0,0,,12,,,71,127
22755,note_off,80,0,0,,2,,,74,127
22755,note_off,0,0,0,,2,,,86,127
22766,note_on,11,0,0,,0,,,36,127
22766,note_on,0,0,0,,4,,,76,127
22767,note_off,1,0,0,,12,,,71,127
22845,note_off,78,0,0,,4,,,76,127
22846,note_on,1,0,0,,6,,,78,127
22926,note_off,80,0,0,,6,,,78,127
22927,note_on,1,0,0,,7,,,79,127
23007,note_off,80,0,0,,7,,,79,127
23008,note_on,1,0,0,,10,,,81,127
23088,note_off,80,0,0,,10,,,81,127
23089,note_on,1,0,0,,12,,,83,127
23169,note_off,80,0,0,,12,,,83,127
23170,note_on,1,0,0,,0,,,84,127
23250,note_off,80,0,0,,0,,,84,127
23250,note_off,0,0,0,,0,,,36,127
23251,note_on,1,0,0,,0,,,48,127
23251,note_on,0,0,0,,4,,,88,127
23331,note_off,80,0,0,,4,,,88,127
23332,note_on,1,0,0,,2,,,86,127
23412,note_off,80,0,0,,2,,,86,127
23413,note_on,1,0,0,,0,,,84,127
23493,note_off,80,0,0,,0,,,84,127
23493,note_off,0,0,0,,0,,,48,127
23494,note_on,1,0,0,,2,,,50,127
23494,note_on,0,0,0,,12,,,83,127
23574,note_off,80,0,0,,12,,,83,127
23575,note_on,1,0,0,,10,,,81,127
23655,note_off,80,0,0,,10,,,81,127
23656,note_on,1,0,0,,7,,,79,127
23736,note_off,80,0,0,,7,,,79,127
23737,note_on,1,0,0,,6,,,78,127
23817,note_off,80,0,0,,6,,,78,127
23818,note_on,1,0,0,,4,,,76,127
23898,note_off,80,0,0,,4,,,76,127
23899,note_on,1,0,0,,2,,,74,127
23979,note_off,80,0,0,,2,,,74,127
23979,note_off,0,0,0,,2,,,50,127
23980,note_on,1,0,0,,2,,,38,127
23980,note_on,0,0,0,,12,,,83,127
24020,note_on,40,0,0,,10,,,81,127
24036,note_off,16,0,0,,12,,,83,127
24060,note_on,24,0,0,,12,,,83,127
24076,note_off,16,0,0,,10,,,81,127
24100,note_on,24,0,0,,10,,,81,127
24116,note_off,16,0,0,,12,,,83,127
24140,note_on,24,0,0,,12,,,83,127
24156,note_off,16,0,0,,10,,,81,127
24180,note_on,24,0,0,,10,,,81,127
24196,note_off,16,0,0,,12,,,83,127
24219,note_off,23,0,0,,2,,,38,127
24220,note_on,1,0,0,,7,,,43,127
24220,note_on,0,0,0,,7,,,79,127
24236,note_off,16,0,0,,10,,,81,127
24299,note_off,63,0,0,,7,,,79,127
24300,note_on,1,0,0,,6,,,78,127
24380,note_off,80,0,0,,6,,,78,127
24381,note_on,1,0,0,,7,,,79,127
24461,note_off,80,0,0,,7,,,79,127
24462,note_on,1,0,0,,2,,,74,127
24542,note_off,80,0,0,,2,,,74,127
24543,note_on,1,0,0,,0,,,72,127
24623,note_off,80,0,0,,0,,,72,127
24624,note_on,1,0,0,,2,,,74,127
24704,note_off,80,0,0,,2,,,74,127
24705,note_on,1,0,0,,12,,,71,127
24785,note_off,80,0,0,,12,,,71,127
24786,note_on,1,0,0,,10,,,69,127
24826,note_off,40,0,0,,7,,,43,127
24865,note_off,39,0,0,,10,,,69,127
24866,note_on,1,0,0,,12,,,71,127
24958,note_off,92,0,0,,12,,,71,127
24967,note_on,9,0,0,,2,,,86,127
24967,note_on,0,0,0,,2,,,74,127
24967,note_on,0,0,0,,7,,,67,127
25047,note_off,80,0,0,,7,,,67,127
25048,note_on,1,0,0,,6,,,66,127
25128,note_off,80,0,0,,6,,,66,127
25129,note_on,1,0,0,,7,,,67,127
25209,note_off,80,0,0,,7,,,67,127
25209,note_off,0,0,0,,2,,,74,127
25209,note_off,0,0,0,,2,,,86,127
25210,note_on,1,0,0,,2,,,74,127
25210,note_on,0,0,0,,2,,,86,127
25210,note_on,0,0,0,,10,,,69,127
25290,note_off,80,0,0,,10,,,69,127
25291,note_on,1,0,0,,7,,,67,127
25371,note_off,80,0,0,,7,,,67,127
25372,note_on,1,0,0,,10,,,69,127
25452,note_off,80,0,0,,10,,,69,127
25452,note_off,0,0,0,,2,,,86,127
25452,note_off,0,0,0,,2,,,74,127
25453,note_on,1,0,0,,2,,,74,127
25453,note_on,0,0,0,,2,,,86,127
25453,note_on,0,0,0,,12,,,71,127
25533,note_off,80,0,0,,12,,,71,127
25534,note_on,1,0,0,,10,,,69,127
25614,note_off,80,0,0,,10,,,69,127
25615,note_on,1,0,0,,12,,,71,127
25695,note_off,80,0,0,,12,,,71,127
25695,note_off,0,0,0,,2,,,86,127
25695,note_off,0,0,0,,2,,,74,127
25696,note_on,1,0,0,,2,,,74,127
25696,note_on,0,0,0,,2,,,86,127
25696,note_on,0,0,0,,2,,,38,127
25776,note_off,80,0,0,,2,,,86,127
25777,note_on,1,0,0,,0,,,84,127
25857,note_off,80,0,0,,0,,,84,127
25858,note_on,1,0,0,,12,,,83,127
25936,note_off,78,0,0,,2,,,74,127
25937,note_off,1,0,0,,12,,,83,127
25938,note_on,1,0,0,,10,,,81,127
26018,note_off,80,0,0,,10,,,81,127
26019,note_on,1,0,0,,12,,,83,127
26099,note_off,80,0,0,,12,,,83,127
26100,note_on,1,0,0,,7,,,79,127
26180,note_off,80,0,0,,7,,,79,127
26181,note_on,1,0,0,,6,,,78,127
26261,note_off,80,0,0,,6,,,78,127
26262,note_on,1,0,0,,7,,,79,127
26342,note_off,80,0,0,,7,,,79,127
26343,note_on,1,0,0,,4,,,76,127
26423,note_off,80,0,0,,4,,,76,127
26423,note_off,0,0,0,,2,,,38,127
26434,note_on,11,0,0,,2,,,86,127
26434,note_on,0,0,0,,2,,,74,127
26434,note_on,0,0,0,,6,,,66,127
26514,note_off,80,0,0,,6,,,66,127
26515,note_on,1,0,0,,4,,,64,127
26595,note_off,80,0,0,,4,,,64,127
26596,note_on,1,0,0,,6,,,66,127
26676,note_off,80,0,0,,6,,,66,127
26676,note_off,0,0,0,,2,,,74,127
26676,note_off,0,0,0,,2,,,86,127
26677,note_on,1,0,0,,2,,,74,127
26677,note_on,0,0,0,,2,,,86,127
26677,note_on,0,0,0,,7,,,67,127
26757,note_off,80,0,0,,7,,,67,127
26758,note_on,1,0,0,,6,,,66,127
26838,note_off,80,0,0,,6,,,66,127
26839,note_on,1,0,0,,7,,,67,127
26919,note_off,80,0,0,,7,,,67,127
26919,note_off,0,0,0,,2,,,86,127
26919,note_off,0,0,0,,2,,,74,127
26920,note_on,1,0,0,,2,,,86,127
26920,note_on,0,0,0,,2,,,74,127
26920,note_on,0,0,0,,10,,,69,127
27000,note_off,80,0,0,,10,,,69,127
27001,note_on,1,0,0,,7,,,67,127
27081,note_off,80,0,0,,7,,,67,127
27082,note_on,1,0,0,,10,,,69,127
27162,note_off,80,0,0,,10,,,69,127
27162,note_off,0,0,0,,2,,,74,127
27162,note_off,0,0,0,,2,,,86,127
27163,note_on,1,0,0,,2,,,86,127
27163,note_on,0,0,0,,2,,,74,127
27163,note_on,0,0,0,,0,,,36,127
27243,note_off,80,0,0,,2,,,86,127
27244,note_on,1,0,0,,0,,,84,127
27324,note_off,80,0,0,,0,,,84,127
27325,note_on,1,0,0,,12,,,83,127
27403,note_off,78,0,0,,2,,,74,127
27404,note_off,1,0,0,,12,,,83,127
27405,note_on,1,0,0,,10,,,81,127
27485,note_off,80,0,0,,10,,,81,127
27486,note_on,1,0,0,,12,,,83,127
27566,note_off,80,0,0,,12,,,83,127
27567,note_on,1,0,0,,7,,,79,127
27647,note_off,80,0,0,,7,,,79,127
27648,note_on,1,0,0,,6,,,78,127
27728,note_off,80,0,0,,6,,,78,127
27729,note_on,1,0,0,,7,,,79,127
27809,note_off,80,0,0,,7,,,79,127
27810,note_on,1,0,0,,4,,,76,127
27890,note_off,80,0,0,,4,,,76,127
27890,note_off,0,0,0,,0,,,36,127
27901,note_on,11,0,0,,2,,,74,127
27901,note_on,0,0,0,,2,,,86,127
27901,note_on,0,0,0,,6,,,66,127
27981,note_off,80,0,0,,6,,,66,127
27982,note_on,1,0,0,,4,,,64,127
28062,note_off,80,0,0,,4,,,64,127
28063,note_on,1,0,0,,6,,,66,127
28143,note_off,80,0,0,,6,,,66,127
28143,note_off,0,0,0,,2,,,86,127
28143,note_off,0,0,0,,2,,,74,127
28144,note_on,1,0,0,,2,,,86,127
28144,note_on,0,0,0,,2,,,74,127
28144,note_on,0,0,0,,7,,,67,127
28224,note_off,80,0,0,,7,,,67,127
28225,note_on,1,0,0,,6,,,66,127
28305,note_off,80,0,0,,6,,,66,127
28306,note_on,1,0,0,,7,,,67,127
28386,note_off,80,0,0,,7,,,67,127
28386,note_off,0,0,0,,2,,,74,127
28386,note_off,0,0,0,,2,,,86,127
28387,note_on,1,0,0,,2,,,74,127
28387,note_on,0,0,0,,2,,,86,127
28387,note_on,0,0,0,,10,,,69,127
28467,note_off,80,0,0,,10,,,69,127
28468,note_on,1,0,0,,7,,,67,127
28548,note_off,80,0,0,,7,,,67,127
28549,note_on,1,0,0,,10,,,69,127
28629,note_off,80,0,0,,10,,,69,127
28629,note_off,0,0,0,,2,,,74,127
28630,note_on,1,0,0,,2,,,74,127
28630,note_on,0,0,0,,12,,,35,127
28710,note_off,80,0,0,,2,,,86,127
28711,note_on,1,0,0,,2,,,86,127
28791,note_off,80,0,0,,2,,,86,127
28792,note_on,1,0,0,,0,,,84,127
28870,note_off,78,0,0,,2,,,74,127
28871,note_off,1,0,0,,0,,,84,127
28872,note_on,1,0,0,,12,,,83,127
28952,note_off,80,0,0,,12,,,83,127
28953,note_on,1,0,0,,0,,,84,127
29033,note_off,80,0,0,,0,,,84,127
29034,note_on,1,0,0,,10,,,81,127
29114,note_off,80,0,0,,10,,,81,127
29115,note_on,1,0,0,,7,,,79,127
29195,note_off,80,0,0,,7,,,79,127
29196,note_on,1,0,0,,10,,,81,127
29276,note_off,80,0,0,,10,,,81,127
29277,note_on,1,0,0,,6,,,78,127
29357,note_off,80,0,0,,6,,,78,127
29357,note_off,0,0,0,,12,,,35,127
29368,note_on,11,0,0,,2,,,74,127
29368,note_on,0,0,0,,2,,,86,127
29368,note_on,0,0,0,,7,,,67,127
29448,note_off,80,0,0,,7,,,67,127
29449,note_on,1,0,0,,6,,,66,127
29529,note_off,80,0,0,,6,,,66,127
29530,note_on,1,0,0,,7,,,67,127
29610,note_off,80,0,0,,7,,,67,127
29610,note_off,0,0,0,,2,,,86,127
29610,note_off,0,0,0,,2,,,74,127
29611,note_on,1,0,0,,2,,,74,127
29611,note_on,0,0,0,,2,,,86,127
29611,note_on,0,0,0,,10,,,69,127
29691,note_off,80,0,0,,10,,,69,127
29692,note_on,1,0,0,,7,,,67,127
29772,note_off,80,0,0,,7,,,67,127
29773,note_on,1,0,0,,10,,,69,127
29853,note_off,80,0,0,,10,,,69,127
29853,note_off,0,0,0,,2,,,86,127
29853,note_off,0,0,0,,2,,,74,127
29854,note_on,1,0,0,,2,,,86,127
29854,note_on,0,0,0,,2,,,74,127
29854,note_on,0,0,0,,12,,,71,127
29934,note_off,80,0,0,,12,,,71,127
29935,note_on,1,0,0,,10,,,69,127
30015,note_off,80,0,0,,10,,,69,127
30016,note_on,1,0,0,,12,,,71,127
30096,note_off,80,0,0,,2,,,74,127
30096,note_off,0,0,0,,2,,,86,127
30107,note_on,11,0,0,,4,,,76,127
30107,note_on,0,0,0,,0,,,36,127
30108,note_off,1,0,0,,12,,,71,127
30186,note_off,78,0,0,,4,,,76,127
30187,note_on,1,0,0,,6,,,78,127
30267,note_off,80,0,0,,6,,,78,127
30268,note_on,1,0,0,,7,,,79,127
30348,note_off,80,0,0,,7,,,79,127
30349,note_on,1,0,0,,10,,,81,127
30429,note_off,80,0,0,,10,,,81,127
30430,note_on,1,0,0,,12,,,83,127
30510,note_off,80,0,0,,12,,,83,127
30511,note_on,1,0,0,,0,,,84,127
30591,note_off,80,0,0,,0,,,84,127
30591,note_off,0,0,0,,0,,,36,127
30592,note_on,1,0,0,,4,,,88,127
30592,note_on,0,0,0,,0,,,48,127
30672,note_off,80,0,0,,4,,,88,127
30673,note_on,1,0,0,,2,,,86,127
30753,note_off,80,0,0,,2,,,86,127
30754,note_on,1,0,0,,0,,,84,127
30834,note_off,80,0,0,,0,,,84,127
30834,note_off,0,0,0,,0,,,48,127
30835,note_on,1,0,0,,12,,,83,127
30835,note_on,0,0,0,,2,,,50,127
30915,note_off,80,0,0,,12,,,83,127
30916,note_on,1,0,0,,10,,,81,127
30996,note_off,80,0,0,,10,,,81,127
30997,note_on,1,0,0,,7,,,79,127
31077,note_off,80,0,0,,7,,,79,127
31078,note_on,1,0,0,,6,,,78,127
31158,note_off,80,0,0,,6,,,78,127
31159,note_on,1,0,0,,4,,,76,127
31239,note_off,80,0,0,,4,,,76,127
31240,note_on,1,0,0,,2,,,74,127
31320,note_off,80,0,0,,2,,,74,127
31320,note_off,0,0,0,,2,,,50,127
31321,note_on,1,0,0,,12,,,83,127
31321,note_on,0,0,0,,2,,,38,127
31361,note_on,40,0,0,,10,,,81,127
31377,note_off,16,0,0,,12,,,83,127
31401,note_on,24,0,0,,12,,,83,127
31417,note_off,16,0,0,,10,,,81,127
31441,note_on,24,0,0,,10,,,81,127
31457,note_off,16,0,0,,12,,,83,127
31481,note_on,24,0,0,,7,,,79,127
31497,note_off,16,0,0,,10,,,81,127
31521,note_on,24,0,0,,10,,,81,127
31537,note_off,16,0,0,,7,,,79,127
31560,note_off,23,0,0,,10,,,81,127
31560,note_off,0,0,0,,2,,,38,127
31561,note_on,1,0,0,,7,,,79,127
31561,note_on,0,0,0,,7,,,55,127
31561,note_on,0,0,0,,12,,,59,127
31809,note_off,248,0,0,,12,,,59,127
31809,note_off,0,0,0,,7,,,55,127
31810,note_on,1,0,0,,10,,,57,127
31810,note_on,0,0,0,,0,,,60,127
32041,note_off,231,0,0,,7,,,79,127
32057,note_off,16,0,0,,0,,,60,127
32057,note_off,0,0,0,,10,,,57,127
32058,note_on,1,0,0,,12,,,59,127
32058,note_on,0,0,0,,2,,,62,127
32295,note_off,237,0,0,,2,,,62,127
32295,note_off,0,0,0,,12,,,59,127
32318,note_on,23,0,0,,8,,,68,127
32318,note_on,0,0,0,,4,,,64,127
32318,note_on,0,0,0,,0,,,60,127
32398,note_off,80,0,0,,8,,,68,127
32399,note_on,1,0,0,,10,,,69,127
32479,note_off,80,0,0,,10,,,69,127
32480,note_on,1,0,0,,12,,,71,127
32560,note_off,80,0,0,,12,,,71,127
32560,note_off,0,0,0,,0,,,60,127
32560,note_off,0,0,0,,4,,,64,127
32561,note_on,1,0,0,,12,,,71,127
32561,note_on,0,0,0,,0,,,60,127
32561,note_on,0,0,0,,4,,,64,127
32802,note_off,241,0,0,,4,,,64,127
32802,note_off,0,0,0,,0,,,60,127
32802,note_off,0,0,0,,12,,,71,127
32803,note_on,1,0,0,,10,,,69,127
32803,note_on,0,0,0,,4,,,64,127
32803,note_on,0,0,0,,0,,,60,127
33044,note_off,241,0,0,,0,,,60,127
33044,note_off,0,0,0,,4,,,64,127
33044,note_off,0,0,0,,10,,,69,127
33045,note_on,1,0,0,,3,,,75,127
33045,note_on,0,0,0,,4,,,64,127
33045,note_on,0,0,0,,0,,,60,127
33125,note_off,80,0,0,,3,,,75,127
33126,note_on,1,0,0,,4,,,76,127
33206,note_off,80,0,0,,4,,,76,127
33207,note_on,1,0,0,,6,,,78,127
33287,note_off,80,0,0,,6,,,78,127
33287,note_off,0,0,0,,0,,,60,127
33287,note_off,0,0,0,,4,,,64,127
33288,note_on,1,0,0,,6,,,78,127
33288,note_on,0,0,0,,0,,,60,127
33288,note_on,0,0,0,,4,,,64,127
33529,note_off,241,0,0,,4,,,64,127
33529,note_off,0,0,0,,0,,,60,127
33529,note_off,0,0,0,,6,,,78,127
33530,note_on,1,0,0,,4,,,76,127
33530,note_on,0,0,0,,0,,,60,127
33530,note_on,0,0,0,,4,,,64,127
33771,note_off,241,0,0,,4,,,64,127
33771,note_off,0,0,0,,0,,,60,127
33771,note_off,0,0,0,,4,,,76,127
33772,note_on,1,0,0,,8,,,80,127
33772,note_on,0,0,0,,4,,,64,127
33772,note_on,0,0,0,,0,,,60,127
33852,note_off,80,0,0,,8,,,80,127
33853,note_on,1,0,0,,10,,,81,127
33933,note_off,80,0,0,,10,,,81,127
33934,note_on,1,0,0,,12,,,83,127
34014,note_off,80,0,0,,12,,,83,127
34014,note_off,0,0,0,,0,,,60,127
34014,note_off,0,0,0,,4,,,64,127
34015,note_on,1,0,0,,12,,,83,127
34015,note_on,0,0,0,,0,,,60,127
34015,note_on,0,0,0,,4,,,64,127
34256,note_off,241,0,0,,4,,,64,127
34256,note_off,0,0,0,,0,,,60,127
34256,note_off,0,0,0,,12,,,83,127
34257,note_on,1,0,0,,10,,,81,127
34257,note_on,0,0,0,,0,,,60,127
34257,note_on,0,0,0,,4,,,64,127
34498,note_off,241,0,0,,4,,,64,127
34498,note_off,0,0,0,,0,,,60,127
34498,note_off,0,0,0,,10,,,81,127
34499,note_on,1,0,0,,4,,,76,127
34499,note_on,0,0,0,,6,,,78,127
34499,note_on,0,0,0,,0,,,48,127
34579,note_off,80,0,0,,6,,,78,127
34579,note_off,0,0,0,,4,,,76,127
34580,note_on,1,0,0,,2,,,74,127
34660,note_off,80,0,0,,2,,,74,127
34661,note_on,1,0,0,,0,,,72,127
34741,note_off,80,0,0,,0,,,72,127
34741,note_off,0,0,0,,0,,,48,127
34742,note_on,1,0,0,,7,,,67,127
34742,note_on,0,0,0,,12,,,71,127
34742,note_on,0,0,0,,2,,,50,127
34983,note_off,241,0,0,,2,,,50,127
34983,note_off,0,0,0,,12,,,71,127
34983,note_off,0,0,0,,7,,,67,127
34984,note_on,1,0,0,,10,,,69,127
34984,note_on,0,0,0,,6,,,66,127
34984,note_on,0,0,0,,2,,,38,127
35225,note_off,241,0,0,,2,,,38,127
35225,note_off,0,0,0,,6,,,66,127
35226,note_on,1,0,0,,12,,,59,127
35226,note_on,0,0,0,,7,,,55,127
35287,note_on,61,0,0,,7,,,67,127
35302,note_off,15,0,0,,10,,,69,127
35347,note_on,45,0,0,,10,,,69,127
35363,note_off,16,0,0,,7,,,67,127
35407,note_on,44,0,0,,7,,,67,127
35423,note_off,16,0,0,,10,,,69,127
35466,note_off,43,0,0,,7,,,55,127
35466,note_off,0,0,0,,12,,,59,127
35467,note_on,1,0,0,,10,,,69,127
35467,note_on,0,0,0,,0,,,60,127
35467,note_on,0,0,0,,10,,,57,127
35483,note_off,16,0,0,,7,,,67,127
35527,note_on,44,0,0,,7,,,67,127
35543,note_off,16,0,0,,10,,,69,127
35587,note_on,44,0,0,,10,,,69,127
35603,note_off,16,0,0,,7,,,67,127
35647,note_on,44,0,0,,7,,,67,127
35663,note_off,16,0,0,,10,,,69,127
35706,note_off,43,0,0,,10,,,57,127
35706,note_off,0,0,0,,0,,,60,127
35707,note_on,1,0,0,,10,,,69,127
35707,note_on,0,0,0,,12,,,59,127
35707,note_on,0,0,0,,2,,,62,127
35723,note_off,16,0,0,,7,,,67,127
35767,note_on,44,0,0,,7,,,67,127
35783,note_off,16,0,0,,10,,,69,127
35827,note_on,44,0,0,,10,,,69,127
35843,note_off,16,0,0,,7,,,67,127
35887,note_on,44,0,0,,7,,,67,127
35903,note_off,16,0,0,,10,,,69,127
35946,note_off,43,0,0,,2,,,62,127
35946,note_off,0,0,0,,12,,,59,127
35959,note_off,13,0,0,,7,,,67,127
35968,note_on,9,0,0,,4,,,76,127
35968,note_on,0,0,0,,0,,,60,127
35968,note_on,0,0,0,,4,,,64,127
36209,note_off,241,0,0,,4,,,64,127
36209,note_off,0,0,0,,0,,,60,127
36209,note_off,0,0,0,,4,,,76,127
36210,note_on,1,0,0,,8,,,68,127
36210,note_on,0,0,0,,4,,,64,127
36210,note_on,0,0,0,,0,,,60,127
36451,note_off,241,0,0,,0,,,60,127
36451,note_off,0,0,0,,4,,,64,127
36451,note_off,0,0,0,,8,,,68,127
36452,note_on,1,0,0,,10,,,69,127
36452,note_on,0,0,0,,4,,,64,127
36452,note_on,0,0,0,,0,,,60,127
36693,note_off,241,0,0,,0,,,60,127
36693,note_off,0,0,0,,4,,,64,127
36693,note_off,0,0,0,,10,,,69,127
36704,note_on,11,0,0,,10,,,81,127
36704,note_on,0,0,0,,0,,,60,127
36704,note_on,0,0,0,,4,,,64,127
36945,note_off,241,0,0,,4,,,64,127
36945,note_off,0,0,0,,0,,,60,127
36945,note_off,0,0,0,,10,,,81,127
36946,note_on,1,0,0,,3,,,75,127
36946,note_on,0,0,0,,4,,,64,127
36946,note_on,0,0,0,,0,,,60,127
37187,note_off,241,0,0,,0,,,60,127
37187,note_off,0,0,0,,4,,,64,127
37187,note_off,0,0,0,,3,,,75,127
37188,note_on,1,0,0,,4,,,76,127
37188,note_on,0,0,0,,4,,,64,127
37188,note_on,0,0,0,,0,,,60,127
37429,note_off,241,0,0,,0,,,60,127
37429,note_off,0,0,0,,4,,,64,127
37430,note_off,1,0,0,,4,,,76,127
37435,note_on,5,0,0,,0,,,60,127
37435,note_on,0,0,0,,4,,,64,127
37435,note_on,0,0,0,,4,,,88,127
37676,note_off,241,0,0,,4,,,88,127
37676,note_off,0,0,0,,4,,,64,127
37676,note_off,0,0,0,,0,,,60,127
37677,note_on,1,0,0,,0,,,60,127
37677,note_on,0,0,0,,4,,,64,127
37677,note_on,0,0,0,,8,,,80,127
37918,note_off,241,0,0,,8,,,80,127
37918,note_off,0,0,0,,4,,,64,127
37918,note_off,0,0,0,,0,,,60,127
37919,note_on,1,0,0,,0,,,60,127
37919,note_on,0,0,0,,4,,,64,127
37919,note_on,0,0,0,,10,,,81,127
38160,note_off,241,0,0,,10,,,81,127
38160,note_off,0,0,0,,4,,,64,127
38160,note_off,0,0,0,,0,,,60,127
38165,note_on,5,0,0,,4,,,76,127
38165,note_on,0,0,0,,6,,,78,127
38165,note_on,0,0,0,,0,,,48,127
38245,note_off,80,0,0,,6,,,78,127
38245,note_off,0,0,0,,4,,,76,127
38246,note_on,1,0,0,,2,,,74,127
38326,note_off,80,0,0,,2,,,74,127
38327,note_on,1,0,0,,0,,,72,127
38407,note_off,80,0,0,,0,,,72,127
38407,note_off,0,0,0,,0,,,48,127
38408,note_on,1,0,0,,7,,,67,127
38408,note_on,0,0,0,,12,,,71,127
38408,note_on,0,0,0,,2,,,50,127
38649,note_off,241,0,0,,12,,,71,127
38649,note_off,0,0,0,,7,,,67,127
38650,note_on,1,0,0,,6,,,66,127
38650,note_on,0,0,0,,10,,,69,127
38650,note_on,0,0,0,,2,,,38,127
38887,note_off,237,0,0,,2,,,50,127
38891,note_off,4,0,0,,2,,,38,127
38904,note_off,13,0,0,,10,,,69,127
38904,note_off,0,0,0,,6,,,66,127
38913,note_on,9,0,0,,7,,,67,127
38913,note_on,0,0,0,,12,,,71,127
38993,note_off,80,0,0,,7,,,67,127
38994,note_on,1,0,0,,2,,,62,127
39074,note_off,80,0,0,,2,,,62,127
39075,note_on,1,0,0,,12,,,59,127
39155,note_off,80,0,0,,12,,,59,127
39155,note_off,0,0,0,,12,,,71,127
39156,note_on,1,0,0,,7,,,55,127
39156,note_on,0,0,0,,2,,,74,127
39236,note_off,80,0,0,,7,,,55,127
39237,note_on,1,0,0,,2,,,50,127
39317,note_off,80,0,0,,2,,,50,127
39318,note_on,1,0,0,,12,,,47,127
39398,note_off,80,0,0,,12,,,47,127
39398,note_off,0,0,0,,2,,,74,127
39399,note_on,1,0,0,,7,,,43,127
39399,note_on,0,0,0,,7,,,79,127
39640,note_off,241,0,0,,7,,,79,127
39640,note_off,0,0,0,,7,,,43,127
39641,note_on,1,0,0,,0,,,60,127
39641,note_on,0,0,0,,2,,,74,127
39641,note_on,0,0,0,,0,,,72,127
39721,note_off,80,0,0,,0,,,72,127
39721,note_off,0,0,0,,2,,,74,127
39722,note_on,1,0,0,,12,,,71,127
39802,note_off,80,0,0,,12,,,71,127
39803,note_on,1,0,0,,10,,,69,127
39883,note_off,80,0,0,,10,,,69,127
39883,note_off,0,0,0,,0,,,60,127
39884,note_on,1,0,0,,2,,,62,127
39884,note_on,0,0,0,,12,,,71,127
39884,note_on,0,0,0,,7,,,67,127
40125,note_off,241,0,0,,7,,,67,127
40126,note_on,1,0,0,,2,,,50,127
40126,note_on,0,0,0,,6,,,66,127
40166,note_on,40,0,0,,10,,,69,127
40181,note_off,15,0,0,,12,,,71,127
40206,note_on,25,0,0,,12,,,71,127
40222,note_off,16,0,0,,10,,,69,127
40246,note_on,24,0,0,,10,,,69,127
40262,note_off,16,0,0,,12,,,71,127
40286,note_on,24,0,0,,12,,,71,127
40302,note_off,16,0,0,,10,,,69,127
40326,note_on,24,0,0,,10,,,69,127
40342,note_off,16,0,0,,12,,,71,127
40361,note_off,19,0,0,,2,,,62,127
40365,note_off,4,0,0,,10,,,69,127
40365,note_off,0,0,0,,6,,,66,127
40365,note_off,0,0,0,,2,,,50,127
40386,note_on,21,0,0,,12,,,71,127
40386,note_on,0,0,0,,7,,,55,127
40466,note_off,80,0,0,,7,,,55,127
40467,note_on,1,0,0,,2,,,50,127
40547,note_off,80,0,0,,2,,,50,127
40548,note_on,1,0,0,,12,,,47,127
40628,note_off,80,0,0,,12,,,47,127
40628,note_off,0,0,0,,12,,,71,127
40629,note_on,1,0,0,,2,,,74,127
40629,note_on,0,0,0,,7,,,43,127
40709,note_off,80,0,0,,7,,,43,127
40710,note_on,1,0,0,,2,,,38,127
40790,note_off,80,0,0,,2,,,38,127
40791,note_on,1,0,0,,12,,,35,127
40871,note_off,80,0,0,,12,,,35,127
40871,note_off,0,0,0,,2,,,74,127
40872,note_on,1,0,0,,7,,,79,127
40872,note_on,0,0,0,,7,,,31,127
41113,note_off,241,0,0,,7,,,31,127
41113,note_off,0,0,0,,7,,,79,127
41114,note_on,1,0,0,,0,,,72,127
41114,note_on,0,0,0,,2,,,74,127
41114,note_on,0,0,0,,0,,,48,127
41194,note_off,80,0,0,,2,,,74,127
41194,note_off,0,0,0,,0,,,72,127
41195,note_on,1,0,0,,12,,,71,127
41275,note_off,80,0,0,,12,,,71,127
41276,note_on,1,0,0,,10,,,69,127
41356,note_off,80,0,0,,10,,,69,127
41356,note_off,0,0,0,,0,,,48,127
41357,note_on,1,0,0,,12,,,71,127
41357,note_on,0,0,0,,7,,,67,127
41357,note_on,0,0,0,,2,,,50,127
41598,note_off,241,0,0,,2,,,50,127
41598,note_off,0,0,0,,7,,,67,127
41598,note_off,0,0,0,,12,,,71,127
41599,note_on,1,0,0,,10,,,69,127
41599,note_on,0,0,0,,6,,,66,127
41599,note_on,0,0,0,,2,,,38,127
41840,note_off,241,0,0,,2,,,38,127
41840,note_off,0,0,0,,6,,,66,127
41841,note_on,1,0,0,,7,,,31,127
41902,note_on,61,0,0,,7,,,67,127
41917,note_off,15,0,0,,10,,,69,127
41962,note_on,45,0,0,,10,,,69,127
41978,note_off,16,0,0,,7,,,67,127
42022,note_on,44,0,0,,7,,,67,127
42038,note_off,16,0,0,,10,,,69,127
42082,note_on,44,0,0,,10,,,69,127
42098,note_off,16,0,0,,7,,,67,127
42142,note_on,44,0,0,,7,,,67,127
42158,note_off,16,0,0,,10,,,69,127
42202,note_on,44,0,0,,10,,,69,127
42218,note_off,16,0,0,,7,,,67,127
42262,note_on,44,0,0,,7,,,67,127
42278,note_off,16,0,0,,10,,,69,127
42322,note_on,44,0,0,,10,,,69,127
42338,note_off,16,0,0,,7,,,67,127
42382,note_on,44,0,0,,7,,,67,127
42398,note_off,16,0,0,,10,,,69,127
42442,note_on,44,0,0,,10,,,69,127
42458,note_off,16,0,0,,7,,,67,127
42502,note_on,44,0,0,,7,,,67,127
42518,note_off,16,0,0,,10,,,69,127
42561,note_off,43,0,0,,7,,,31,127
42562,note_on,1,0,0,,12,,,59,127
42562,note_on,0,0,0,,7,,,55,127
42642,note_off,80,0,0,,12,,,59,127
42643,note_on,1,0,0,,10,,,57,127
42723,note_off,80,0,0,,10,,,57,127
42724,note_on,1,0,0,,12,,,59,127
42804,note_off,80,0,0,,12,,,59,127
42804,note_off,0,0,0,,7,,,55,127
42805,note_on,1,0,0,,0,,,60,127
42805,note_on,0,0,0,,10,,,57,127
42885,note_off,80,0,0,,0,,,60,127
42886,note_on,1,0,0,,12,,,59,127
42966,note_off,80,0,0,,12,,,59,127
42967,note_on,1,0,0,,0,,,60,127
43047,note_off,80,0,0,,0,,,60,127
43047,note_off,0,0,0,,10,,,57,127
43048,note_on,1,0,0,,2,,,62,127
43048,note_on,0,0,0,,12,,,59,127
43128,note_off,80,0,0,,2,,,62,127
43129,note_on,1,0,0,,0,,,60,127
43209,note_off,80,0,0,,0,,,60,127
43210,note_on,1,0,0,,2,,,62,127
43290,note_off,80,0,0,,2,,,62,127
43290,note_off,0,0,0,,12,,,59,127
43291,note_on,1,0,0,,4,,,64,127
43291,note_on,0,0,0,,0,,,60,127
43371,note_off,80,0,0,,4,,,64,127
43372,note_on,1,0,0,,2,,,62,127
43452,note_off,80,0,0,,2,,,62,127
43453,note_on,1,0,0,,4,,,64,127
43533,note_off,80,0,0,,4,,,64,127
43533,note_off,0,0,0,,0,,,60,127
43534,note_on,1,0,0,,5,,,65,127
43534,note_on,0,0,0,,2,,,62,127
43614,note_off,80,0,0,,5,,,65,127
43615,note_on,1,0,0,,4,,,64,127
43695,note_off,80,0,0,,4,,,64,127
43696,note_on,1,0,0,,5,,,65,127
43767,note_off,71,0,0,,7,,,67,127
43776,note_off,9,0,0,,5,,,65,127
43776,note_off,0,0,0,,2,,,62,127
43777,note_on,1,0,0,,7,,,67,127
43777,note_on,0,0,0,,4,,,64,127
43857,note_off,80,0,0,,7,,,67,127
43858,note_on,1,0,0,,5,,,65,127
43938,note_off,80,0,0,,5,,,65,127
43939,note_on,1,0,0,,7,,,67,127
44019,note_off,80,0,0,,4,,,64,127
44020,note_on,1,0,0,,12,,,59,127
44020,note_on,0,0,0,,7,,,55,127
44100,note_off,80,0,0,,12,,,59,127
44101,note_on,1,0,0,,10,,,57,127
44181,note_off,80,0,0,,10,,,57,127
44182,note_on,1,0,0,,12,,,59,127
44262,note_off,80,0,0,,12,,,59,127
44262,note_off,0,0,0,,7,,,55,127
44263,note_on,1,0,0,,0,,,60,127
44263,note_on,0,0,0,,10,,,57,127
44343,note_off,80,0,0,,0,,,60,127
44344,note_on,1,0,0,,12,,,59,127
44424,note_off,80,0,0,,12,,,59,127
44425,note_on,1,0,0,,0,,,60,127
44505,note_off,80,0,0,,0,,,60,127
44505,note_off,0,0,0,,10,,,57,127
44506,note_on,1,0,0,,2,,,62,127
44506,note_on,0,0,0,,12,,,59,127
44586,note_off,80,0,0,,2,,,62,127
44587,note_on,1,0,0,,0,,,60,127
44667,note_off,80,0,0,,0,,,60,127
44668,note_on,1,0,0,,2,,,62,127
44748,note_off,80,0,0,,2,,,62,127
44748,note_off,0,0,0,,12,,,59,127
44749,note_on,1,0,0,,4,,,64,127
44749,note_on,0,0,0,,0,,,60,127
44829,note_off,80,0,0,,4,,,64,127
44830,note_on,1,0,0,,2,,,62,127
44910,note_off,80,0,0,,2,,,62,127
44911,note_on,1,0,0,,4,,,64,127
44991,note_off,80,0,0,,4,,,64,127
44991,note_off,0,0,0,,0,,,60,127
44992,note_on,1,0,0,,5,,,65,127
44992,note_on,0,0,0,,2,,,62,127
45072,note_off,80,0,0,,5,,,65,127
45073,note_on,1,0,0,,4,,,64,127
45153,note_off,80,0,0,,4,,,64,127
45154,note_on,1,0,0,,5,,,65,127
45234,note_off,80,0,0,,5,,,65,127
45234,note_off,0,0,0,,2,,,62,127
45234,note_off,0,0,0,,7,,,67,127
45235,note_on,1,0,0,,7,,,67,127
45235,note_on,0,0,0,,4,,,64,127
45315,note_off,80,0,0,,7,,,67,127
45316,note_on,1,0,0,,5,,,65,127
45396,note_off,80,0,0,,5,,,65,127
45397,note_on,1,0,0,,7,,,67,127
45477,note_off,80,0,0,,7,,,67,127
45477,note_off,0,0,0,,4,,,64,127
45488,note_on,11,0,0,,10,,,69,127
45488,note_on,0,0,0,,1,,,61,127
45488,note_on,0,0,0,,10,,,57,127
45568,note_off,80,0,0,,1,,,61,127
45569,note_on,1,0,0,,12,,,59,127
45649,note_off,80,0,0,,12,,,59,127
45650,note_on,1,0,0,,1,,,61,127
45730,note_off,80,0,0,,1,,,61,127
45730,note_off,0,0,0,,10,,,57,127
45731,note_on,1,0,0,,2,,,62,127
45731,note_on,0,0,0,,12,,,59,127
45811,note_off,80,0,0,,2,,,62,127
45812,note_on,1,0,0,,1,,,61,127
45892,note_off,80,0,0,,1,,,61,127
45893,note_on,1,0,0,,2,,,62,127
45973,note_off,80,0,0,,2,,,62,127
45973,note_off,0,0,0,,12,,,59,127
45974,note_on,1,0,0,,4,,,64,127
45974,note_on,0,0,0,,1,,,61,127
46054,note_off,80,0,0,,4,,,64,127
46055,note_on,1,0,0,,2,,,62,127
46135,note_off,80,0,0,,2,,,62,127
46136,note_on,1,0,0,,4,,,64,127
46216,note_off,80,0,0,,4,,,64,127
46216,note_off,0,0,0,,1,,,61,127
46217,note_on,1,0,0,,6,,,66,127
46217,note_on,0,0,0,,2,,,62,127
46297,note_off,80,0,0,,6,,,66,127
46298,note_on,1,0,0,,4,,,64,127
46378,note_off,80,0,0,,4,,,64,127
46379,note_on,1,0,0,,6,,,66,127
46459,note_off,80,0,0,,6,,,66,127
46459,note_off,0,0,0,,2,,,62,127
46460,note_on,1,0,0,,7,,,67,127
46460,note_on,0,0,0,,4,,,64,127
46540,note_off,80,0,0,,7,,,67,127
46541,note_on,1,0,0,,6,,,66,127
46621,note_off,80,0,0,,6,,,66,127
46622,note_on,1,0,0,,7,,,67,127
46702,note_off,80,0,0,,7,,,67,127
46702,note_off,0,0,0,,4,,,64,127
46703,note_off,1,0,0,,10,,,69,127
46703,note_on,0,0,0,,10,,,69,127
46703,note_on,0,0,0,,6,,,66,127
46783,note_off,80,0,0,,10,,,69,127
46784,note_on,1,0,0,,7,,,67,127
46864,note_off,80,0,0,,7,,,67,127
46865,note_on,1,0,0,,10,,,69,127
46945,note_off,80,0,0,,6,,,66,127
46946,note_on,1,0,0,,1,,,61,127
46946,note_on,0,0,0,,10,,,57,127
47026,note_off,80,0,0,,1,,,61,127
47027,note_on,1,0,0,,12,,,59,127
47107,note_off,80,0,0,,12,,,59,127
47108,note_on,1,0,0,,1,,,61,127
47188,note_off,80,0,0,,1,,,61,127
47188,note_off,0,0,0,,10,,,57,127
47189,note_on,1,0,0,,2,,,62,127
47189,note_on,0,0,0,,12,,,59,127
47269,note_off,80,0,0,,2,,,62,127
47270,note_on,1,0,0,,1,,,61,127
47350,note_off,80,0,0,,1,,,61,127
47351,note_on,1,0,0,,2,,,62,127
47431,note_off,80,0,0,,2,,,62,127
47431,note_off,0,0,0,,12,,,59,127
47432,note_on,1,0,0,,4,,,64,127
47432,note_on,0,0,0,,1,,,61,127
47512,note_off,80,0,0,,4,,,64,127
47513,note_on,1,0,0,,2,,,62,127
47593,note_off,80,0,0,,2,,,62,127
47594,note_on,1,0,0,,4,,,64,127
47674,note_off,80,0,0,,4,,,64,127
47674,note_off,0,0,0,,1,,,61,127
47675,note_on,1,0,0,,6,,,66,127
47675,note_on,0,0,0,,2,,,62,127
47755,note_off,80,0,0,,6,,,66,127
47756,note_on,1,0,0,,4,,,64,127
47836,note_off,80,0,0,,4,,,64,127
47837,note_on,1,0,0,,6,,,66,127
47917,note_off,80,0,0,,6,,,66,127
47917,note_off,0,0,0,,2,,,62,127
47918,note_on,1,0,0,,7,,,67,127
47918,note_on,0,0,0,,4,,,64,127
47998,note_off,80,0,0,,7,,,67,127
47999,note_on,1,0,0,,6,,,66,127
48079,note_off,80,0,0,,6,,,66,127
48080,note_on,1,0,0,,7,,,67,127
48160,note_off,80,0,0,,7,,,67,127
48160,note_off,0,0,0,,4,,,64,127
48160,note_off,0,0,0,,10,,,69,127
48161,note_on,1,0,0,,10,,,69,127
48161,note_on,0,0,0,,6,,,66,127
48241,note_off,80,0,0,,10,,,69,127
48242,note_on,1,0,0,,7,,,67,127
48322,note_off,80,0,0,,7,,,67,127
48323,note_on,1,0,0,,10,,,69,127
48413,note_off,90,0,0,,6,,,66,127
48414,note_on,1,0,0,,12,,,59,127
48414,note_on,0,0,0,,3,,,63,127
48414,note_on,0,0,0,,12,,,71,127
48418,note_off,4,0,0,,10,,,69,127
48494,note_off,76,0,0,,3,,,63,127
48495,note_on,1,0,0,,1,,,61,127
48575,note_off,80,0,0,,1,,,61,127
48576,note_on,1,0,0,,3,,,63,127
48656,note_off,80,0,0,,3,,,63,127
48656,note_off,0,0,0,,12,,,59,127
48657,note_on,1,0,0,,1,,,61,127
48657,note_on,0,0,0,,4,,,64,127
48737,note_off,80,0,0,,4,,,64,127
48738,note_on,1,0,0,,3,,,63,127
48818,note_off,80,0,0,,3,,,63,127
48819,note_on,1,0,0,,4,,,64,127
48899,note_off,80,0,0,,4,,,64,127
48899,note_off,0,0,0,,1,,,61,127
48900,note_on,1,0,0,,3,,,63,127
48900,note_on,0,0,0,,6,,,66,127
48980,note_off,80,0,0,,6,,,66,127
48981,note_on,1,0,0,,4,,,64,127
49061,note_off,80,0,0,,4,,,64,127
49062,note_on,1,0,0,,6,,,66,127
49142,note_off,80,0,0,,6,,,66,127
49142,note_off,0,0,0,,3,,,63,127
49143,note_on,1,0,0,,4,,,64,127
49143,note_on,0,0,0,,7,,,67,127
49223,note_off,80,0,0,,7,,,67,127
49224,note_on,1,0,0,,6,,,66,127
49304,note_off,80,0,0,,6,,,66,127
49305,note_on,1,0,0,,7,,,67,127
49385,note_off,80,0,0,,7,,,67,127
49385,note_off,0,0,0,,4,,,64,127
49386,note_on,1,0,0,,6,,,66,127
49386,note_on,0,0,0,,10,,,69,127
49466,note_off,80,0,0,,10,,,69,127
49467,note_on,1,0,0,,7,,,67,127
49547,note_off,80,0,0,,7,,,67,127
49548,note_on,1,0,0,,10,,,69,127
49628,note_off,80,0,0,,10,,,69,127
49628,note_off,0,0,0,,6,,,66,127
49628,note_off,0,0,0,,12,,,71,127
49629,note_on,1,0,0,,7,,,67,127
49629,note_on,0,0,0,,12,,,71,127
49709,note_off,80,0,0,,12,,,71,127
49710,note_on,1,0,0,,10,,,69,127
49790,note_off,80,0,0,,10,,,69,127
49791,note_on,1,0,0,,12,,,71,127
49871,note_off,80,0,0,,7,,,67,127
49872,note_on,1,0,0,,12,,,59,127
49872,note_on,0,0,0,,3,,,63,127
49952,note_off,80,0,0,,3,,,63,127
49953,note_on,1,0,0,,1,,,61,127
50033,note_off,80,0,0,,1,,,61,127
50034,note_on,1,0,0,,3,,,63,127
50114,note_off,80,0,0,,3,,,63,127
50114,note_off,0,0,0,,12,,,59,127
50115,note_on,1,0,0,,1,,,61,127
50115,note_on,0,0,0,,4,,,64,127
50195,note_off,80,0,0,,4,,,64,127
50196,note_on,1,0,0,,3,,,63,127
50276,note_off,80,0,0,,3,,,63,127
50277,note_on,1,0,0,,4,,,64,127
50357,note_off,80,0,0,,4,,,64,127
50357,note_off,0,0,0,,1,,,61,127
50358,note_on,1,0,0,,3,,,63,127
50358,note_on,0,0,0,,6,,,66,127
50438,note_off,80,0,0,,6,,,66,127
50439,note_on,1,0,0,,4,,,64,127
50519,note_off,80,0,0,,4,,,64,127
50520,note_on,1,0,0,,6,,,66,127
50600,note_off,80,0,0,,6,,,66,127
50600,note_off,0,0,0,,3,,,63,127
50601,note_on,1,0,0,,4,,,64,127
50601,note_on,0,0,0,,7,,,67,127
50681,note_off,80,0,0,,7,,,67,127
50682,note_on,1,0,0,,6,,,66,127
50762,note_off,80,0,0,,6,,,66,127
50763,note_on,1,0,0,,7,,,67,127
50843,note_off,80,0,0,,7,,,67,127
50843,note_off,0,0,0,,4,,,64,127
50844,note_on,1,0,0,,6,,,66,127
50844,note_on,0,0,0,,10,,,69,127
50924,note_off,80,0,0,,10,,,69,127
50925,note_on,1,0,0,,7,,,67,127
51005,note_off,80,0,0,,7,,,67,127
51006,note_on,1,0,0,,10,,,69,127
51086,note_off,80,0,0,,10,,,69,127
51086,note_off,0,0,0,,6,,,66,127
51086,note_off,0,0,0,,12,,,71,127
51087,note_on,1,0,0,,7,,,67,127
51087,note_on,0,0,0,,12,,,71,127
51167,note_off,80,0,0,,12,,,71,127
51168,note_on,1,0,0,,10,,,69,127
51248,note_off,80,0,0,,10,,,69,127
51249,note_on,1,0,0,,12,,,71,127
51329,note_off,80,0,0,,12,,,71,127
51329,note_off,0,0,0,,7,,,67,127
51340,note_on,11,0,0,,4,,,64,127
51340,note_on,0,0,0,,4,,,76,127
51340,note_on,0,0,0,,8,,,68,127
51420,note_off,80,0,0,,8,,,68,127
51421,note_on,1,0,0,,6,,,66,127
51501,note_off,80,0,0,,6,,,66,127
51502,note_on,1,0,0,,8,,,68,127
51582,note_off,80,0,0,,8,,,68,127
51582,note_off,0,0,0,,4,,,64,127
51583,note_on,1,0,0,,6,,,66,127
51583,note_on,0,0,0,,10,,,69,127
51663,note_off,80,0,0,,10,,,69,127
51664,note_on,1,0,0,,8,,,68,127
51744,note_off,80,0,0,,8,,,68,127
51745,note_on,1,0,0,,10,,,69,127
51825,note_off,80,0,0,,10,,,69,127
51825,note_off,0,0,0,,6,,,66,127
51826,note_on,1,0,0,,8,,,68,127
51826,note_on,0,0,0,,12,,,71,127
51906,note_off,80,0,0,,12,,,71,127
51907,note_on,1,0,0,,10,,,69,127
51987,note_off,80,0,0,,10,,,69,127
51988,note_on,1,0,0,,12,,,71,127
52068,note_off,80,0,0,,12,,,71,127
52068,note_off,0,0,0,,8,,,68,127
52069,note_on,1,0,0,,10,,,69,127
52069,note_on,0,0,0,,0,,,72,127
52149,note_off,80,0,0,,0,,,72,127
52150,note_on,1,0,0,,12,,,71,127
52230,note_off,80,0,0,,12,,,71,127
52231,note_on,1,0,0,,0,,,72,127
52311,note_off,80,0,0,,0,,,72,127
52311,note_off,0,0,0,,10,,,69,127
52312,note_on,1,0,0,,12,,,71,127
52312,note_on,0,0,0,,2,,,74,127
52392,note_off,80,0,0,,2,,,74,127
52393,note_on,1,0,0,,0,,,72,127
52473,note_off,80,0,0,,0,,,72,127
52474,note_on,1,0,0,,2,,,74,127
52554,note_off,80,0,0,,2,,,74,127
52554,note_off,0,0,0,,12,,,71,127
52554,note_off,0,0,0,,4,,,76,127
52555,note_on,1,0,0,,0,,,72,127
52555,note_on,0,0,0,,4,,,76,127
52635,note_off,80,0,0,,4,,,76,127
52636,note_on,1,0,0,,2,,,74,127
52716,note_off,80,0,0,,2,,,74,127
52717,note_on,1,0,0,,4,,,76,127
52797,note_off,80,0,0,,0,,,72,127
52798,note_on,1,0,0,,4,,,64,127
52798,note_on,0,0,0,,8,,,68,127
52878,note_off,80,0,0,,8,,,68,127
52879,note_on,1,0,0,,6,,,66,127
52959,note_off,80,0,0,,6,,,66,127
52960,note_on,1,0,0,,8,,,68,127
53040,note_off,80,0,0,,8,,,68,127
53040,note_off,0,0,0,,4,,,64,127
53041,note_on,1,0,0,,6,,,66,127
53041,note_on,0,0,0,,10,,,69,127
53121,note_off,80,0,0,,10,,,69,127
53122,note_on,1,0,0,,8,,,68,127
53202,note_off,80,0,0,,8,,,68,127
53203,note_on,1,0,0,,10,,,69,127
53283,note_off,80,0,0,,10,,,69,127
53283,note_off,0,0,0,,6,,,66,127
53284,note_on,1,0,0,,8,,,68,127
53284,note_on,0,0,0,,12,,,71,127
53364,note_off,80,0,0,,12,,,71,127
53365,note_on,1,0,0,,10,,,69,127
53445,note_off,80,0,0,,10,,,69,127
53446,note_on,1,0,0,,12,,,71,127
53526,note_off,80,0,0,,12,,,71,127
53526,note_off,0,0,0,,8,,,68,127
53527,note_on,1,0,0,,10,,,69,127
53527,note_on,0,0,0,,0,,,72,127
53607,note_off,80,0,0,,0,,,72,127
53608,note_on,1,0,0,,12,,,71,127
53688,note_off,80,0,0,,12,,,71,127
53689,note_on,1,0,0,,0,,,72,127
53769,note_off,80,0,0,,0,,,72,127
53769,note_off,0,0,0,,10,,,69,127
53770,note_on,1,0,0,,12,,,71,127
53770,note_on,0,0,0,,2,,,74,127
53850,note_off,80,0,0,,2,,,74,127
53851,note_on,1,0,0,,0,,,72,127
53931,note_off,80,0,0,,0,,,72,127
53932,note_on,1,0,0,,2,,,74,127
54012,note_off,80,0,0,,2,,,74,127
54012,note_off,0,0,0,,12,,,71,127
54012,note_off,0,0,0,,4,,,76,127
54013,note_on,1,0,0,,0,,,72,127
54013,note_on,0,0,0,,4,,,76,127
54093,note_off,80,0,0,,4,,,76,127
54094,note_on,1,0,0,,2,,,74,127
54174,note_off,80,0,0,,2,,,74,127
54175,note_on,1,0,0,,4,,,76,127
54255,note_off,80,0,0,,4,,,76,127
54255,note_off,0,0,0,,0,,,72,127
54266,note_on,11,0,0,,2,,,62,127
54266,note_on,0,0,0,,5,,,77,127
54346,note_off,80,0,0,,5,,,77,127
54347,note_on,1,0,0,,10,,,81,127
54427,note_off,80,0,0,,10,,,81,127
54428,note_on,1,0,0,,7,,,79,127
54508,note_off,80,0,0,,7,,,79,127
54508,note_off,0,0,0,,2,,,62,127
54509,note_on,1,0,0,,4,,,64,127
54509,note_on,0,0,0,,5,,,77,127
54589,note_off,80,0,0,,5,,,77,127
54590,note_on,1,0,0,,4,,,76,127
54670,note_off,80,0,0,,4,,,76,127
54671,note_on,1,0,0,,2,,,74,127
54751,note_off,80,0,0,,2,,,74,127
54751,note_off,0,0,0,,4,,,64,127
54752,note_on,1,0,0,,5,,,65,127
54752,note_on,0,0,0,,0,,,72,127
54832,note_off,80,0,0,,0,,,72,127
54833,note_on,1,0,0,,12,,,71,127
54913,note_off,80,0,0,,12,,,71,127
54914,note_on,1,0,0,,10,,,69,127
54994,note_off,80,0,0,,10,,,69,127
54994,note_off,0,0,0,,5,,,65,127
54995,note_on,1,0,0,,4,,,64,127
54995,note_on,0,0,0,,12,,,71,127
55043,note_on,48,0,0,,10,,,69,127
55044,note_off,1,0,0,,12,,,71,127
55091,note_on,47,0,0,,12,,,71,127
55092,note_off,1,0,0,,10,,,69,127
55139,note_on,47,0,0,,10,,,69,127
55140,note_off,1,0,0,,12,,,71,127
55187,note_on,47,0,0,,12,,,71,127
55188,note_off,1,0,0,,10,,,69,127
55236,note_off,48,0,0,,12,,,71,127
55236,note_off,0,0,0,,4,,,64,127
55237,note_on,1,0,0,,4,,,52,127
55237,note_on,0,0,0,,10,,,69,127
55285,note_on,48,0,0,,12,,,71,127
55286,note_off,1,0,0,,10,,,69,127
55333,note_on,47,0,0,,10,,,69,127
55334,note_off,1,0,0,,12,,,71,127
55381,note_on,47,0,0,,12,,,71,127
55382,note_off,1,0,0,,10,,,69,127
55429,note_on,47,0,0,,10,,,69,127
55430,note_off,1,0,0,,12,,,71,127
55478,note_off,48,0,0,,10,,,69,127
55479,note_on,1,0,0,,8,,,68,127
55705,note_off,226,0,0,,8,,,68,127
55720,note_off,15,0,0,,4,,,52,127
55741,note_on,21,0,0,,8,,,68,127
55741,note_on,0,0,0,,4,,,76,127
55741,note_on,0,0,0,,4,,,52,127
55821,note_off,80,0,0,,4,,,52,127
55822,note_on,1,0,0,,2,,,50,127
55902,note_off,80,0,0,,2,,,50,127
55903,note_on,1,0,0,,4,,,52,127
55983,note_off,80,0,0,,4,,,52,127
55983,note_off,0,0,0,,8,,,68,127
55984,note_on,1,0,0,,10,,,69,127
55984,note_on,0,0,0,,6,,,54,127
56064,note_off,80,0,0,,6,,,54,127
56065,note_on,1,0,0,,4,,,52,127
56145,note_off,80,0,0,,4,,,52,127
56146,note_on,1,0,0,,6,,,54,127
56226,note_off,80,0,0,,6,,,54,127
56226,note_off,0,0,0,,10,,,69,127
56227,note_on,1,0,0,,12,,,71,127
56227,note_on,0,0,0,,8,,,56,127
56307,note_off,80,0,0,,8,,,56,127
56308,note_on,1,0,0,,6,,,54,127
56388,note_off,80,0,0,,6,,,54,127
56389,note_on,1,0,0,,8,,,56,127
56469,note_off,80,0,0,,8,,,56,127
56469,note_off,0,0,0,,12,,,71,127
56470,note_on,1,0,0,,0,,,72,127
56470,note_on,0,0,0,,10,,,57,127
56550,note_off,80,0,0,,10,,,57,127
56551,note_on,1,0,0,,8,,,56,127
56631,note_off,80,0,0,,8,,,56,127
56632,note_on,1,0,0,,10,,,57,127
56712,note_off,80,0,0,,10,,,57,127
56712,note_off,0,0,0,,0,,,72,127
56713,note_on,1,0,0,,2,,,74,127
56713,note_on,0,0,0,,12,,,59,127
56793,note_off,80,0,0,,12,,,59,127
56794,note_on,1,0,0,,10,,,57,127
56874,note_off,80,0,0,,10,,,57,127
56875,note_on,1,0,0,,12,,,59,127
56955,note_off,80,0,0,,12,,,59,127
56955,note_off,0,0,0,,2,,,74,127
56955,note_off,0,0,0,,4,,,76,127
56956,note_on,1,0,0,,4,,,76,127
56956,note_on,0,0,0,,0,,,60,127
57036,note_off,80,0,0,,0,,,60,127
57037,note_on,1,0,0,,12,,,59,127
57117,note_off,80,0,0,,12,,,59,127
57118,note_on,1,0,0,,0,,,60,127
57198,note_off,80,0,0,,0,,,60,127
57207,note_on,9,0,0,,2,,,50,127
57207,note_on,0,0,0,,2,,,74,127
57207,note_on,0,0,0,,6,,,66,127
57208,note_off,1,0,0,,4,,,76,127
57286,note_off,78,0,0,,2,,,50,127
57287,note_on,1,0,0,,0,,,48,127
57367,note_off,80,0,0,,0,,,48,127
57368,note_on,1,0,0,,2,,,50,127
57448,note_off,80,0,0,,2,,,50,127
57448,note_off,0,0,0,,6,,,66,127
57449,note_on,1,0,0,,4,,,52,127
57449,note_on,0,0,0,,7,,,67,127
57529,note_off,80,0,0,,4,,,52,127
57530,note_on,1,0,0,,2,,,50,127
57610,note_off,80,0,0,,2,,,50,127
57611,note_on,1,0,0,,4,,,52,127
57691,note_off,80,0,0,,4,,,52,127
57691,note_off,0,0,0,,7,,,67,127
57692,note_on,1,0,0,,6,,,54,127
57692,note_on,0,0,0,,10,,,69,127
57772,note_off,80,0,0,,6,,,54,127
57773,note_on,1,0,0,,4,,,52,127
57853,note_off,80,0,0,,4,,,52,127
57854,note_on,1,0,0,,6,,,54,127
57934,note_off,80,0,0,,6,,,54,127
57934,note_off,0,0,0,,10,,,69,127
57935,note_on,1,0,0,,7,,,55,127
57935,note_on,0,0,0,,12,,,71,127
58015,note_off,80,0,0,,7,,,55,127
58016,note_on,1,0,0,,6,,,54,127
58096,note_off,80,0,0,,6,,,54,127
58097,note_on,1,0,0,,7,,,55,127
58177,note_off,80,0,0,,7,,,55,127
58177,note_off,0,0,0,,12,,,71,127
58178,note_on,1,0,0,,10,,,57,127
58178,note_on,0,0,0,,0,,,72,127
58258,note_off,80,0,0,,10,,,57,127
58259,note_on,1,0,0,,7,,,55,127
58339,note_off,80,0,0,,7,,,55,127
58340,note_on,1,0,0,,10,,,57,127
58420,note_off,80,0,0,,10,,,57,127
58420,note_off,0,0,0,,0,,,72,127
58420,note_off,0,0,0,,2,,,74,127
58421,note_on,1,0,0,,12,,,59,127
58421,note_on,0,0,0,,2,,,74,127
58501,note_off,80,0,0,,12,,,59,127
58504,note_on,3,0,0,,10,,,57,127
58584,note_off,80,0,0,,10,,,57,127
58588,note_on,4,0,0,,12,,,59,127
58675,note_on,87,0,0,,0,,,48,127
58675,note_on,0,0,0,,0,,,72,127
58675,note_on,0,0,0,,4,,,64,127
58676,note_off,1,0,0,,12,,,59,127
58682,note_off,6,0,0,,2,,,74,127
58754,note_off,72,0,0,,0,,,48,127
58755,note_on,1,0,0,,12,,,47,127
58835,note_off,80,0,0,,12,,,47,127
58836,note_on,1,0,0,,0,,,48,127
58916,note_off,80,0,0,,0,,,48,127
58916,note_off,0,0,0,,4,,,64,127
58917,note_on,1,0,0,,2,,,50,127
58917,note_on,0,0,0,,5,,,65,127
58997,note_off,80,0,0,,2,,,50,127
58998,note_on,1,0,0,,0,,,48,127
59078,note_off,80,0,0,,0,,,48,127
59079,note_on,1,0,0,,2,,,50,127
59159,note_off,80,0,0,,2,,,50,127
59159,note_off,0,0,0,,5,,,65,127
59160,note_on,1,0,0,,4,,,52,127
59160,note_on,0,0,0,,7,,,67,127
59240,note_off,80,0,0,,4,,,52,127
59241,note_on,1,0,0,,2,,,50,127
59321,note_off,80,0,0,,2,,,50,127
59322,note_on,1,0,0,,4,,,52,127
59402,note_off,80,0,0,,4,,,52,127
59402,note_off,0,0,0,,7,,,67,127
59403,note_on,1,0,0,,5,,,53,127
59403,note_on,0,0,0,,10,,,69,127
59483,note_off,80,0,0,,5,,,53,127
59484,note_on,1,0,0,,4,,,52,127
59564,note_off,80,0,0,,4,,,52,127
59565,note_on,1,0,0,,5,,,53,127
59645,note_off,80,0,0,,5,,,53,127
59645,note_off,0,0,0,,10,,,69,127
59646,note_on,1,0,0,,7,,,55,127
59646,note_on,0,0,0,,12,,,71,127
59726,note_off,80,0,0,,7,,,55,127
59727,note_on,1,0,0,,5,,,53,127
59807,note_off,80,0,0,,5,,,53,127
59808,note_on,1,0,0,,7,,,55,127
59888,note_off,80,0,0,,7,,,55,127
59888,note_off,0,0,0,,12,,,71,127
59888,note_off,0,0,0,,0,,,72,127
59889,note_on,1,0,0,,10,,,57,127
59889,note_on,0,0,0,,0,,,72,127
59969,note_off,80,0,0,,10,,,57,127
59970,note_on,1,0,0,,7,,,55,127
60050,note_off,80,0,0,,7,,,55,127
60051,note_on,1,0,0,,10,,,57,127
60131,note_off,80,0,0,,10,,,57,127
60131,note_off,0,0,0,,0,,,72,127
60132,note_on,1,0,0,,12,,,59,127
60132,note_on,0,0,0,,2,,,74,127
60212,note_off,80,0,0,,12,,,59,127
60213,note_on,1,0,0,,10,,,57,127
60293,note_off,80,0,0,,10,,,57,127
60294,note_on,1,0,0,,12,,,59,127
60374,note_off,80,0,0,,12,,,59,127
60374,note_off,0,0,0,,2,,,74,127
60375,note_on,1,0,0,,0,,,60,127
60375,note_on,0,0,0,,4,,,76,127
60455,note_off,80,0,0,,0,,,60,127
60456,note_on,1,0,0,,7,,,55,127
60536,note_off,80,0,0,,7,,,55,127
60537,note_on,1,0,0,,4,,,52,127
60617,note_off,80,0,0,,4,,,52,127
60617,note_off,0,0,0,,4,,,76,127
60618,note_on,1,0,0,,0,,,48,127
60618,note_on,0,0,0,,0,,,72,127
60618,note_on,0,0,0,,4,,,76,127
60859,note_off,241,0,0,,4,,,76,127
60859,note_off,0,0,0,,0,,,72,127
60859,note_off,0,0,0,,0,,,48,127
60860,note_on,1,0,0,,7,,,43,127
60860,note_on,0,0,0,,4,,,76,127
60860,note_on,0,0,0,,0,,,72,127
60940,note_off,80,0,0,,4,,,76,127
60941,note_on,1,0,0,,7,,,79,127
61021,note_off,80,0,0,,7,,,79,127
61022,note_on,1,0,0,,5,,,77,127
61102,note_off,80,0,0,,5,,,77,127
61103,note_on,1,0,0,,4,,,76,127
61183,note_off,80,0,0,,4,,,76,127
61184,note_off,1,0,0,,0,,,72,127
61184,note_on,0,0,0,,2,,,74,127
61264,note_off,80,0,0,,2,,,74,127
61265,note_on,1,0,0,,0,,,72,127
61345,note_off,80,0,0,,0,,,72,127
61346,note_on,1,0,0,,12,,,71,127
61346,note_on,0,0,0,,2,,,74,127
61467,note_off,121,0,0,,7,,,43,127
61587,note_off,120,0,0,,2,,,74,127
61587,note_off,0,0,0,,12,,,71,127
61608,note_on,21,0,0,,7,,,67,127
61608,note_on,0,0,0,,7,,,79,127
61608,note_on,0,0,0,,4,,,64,127
61688,note_off,80,0,0,,4,,,64,127
61689,note_on,1,0,0,,2,,,62,127
61769,note_off,80,0,0,,2,,,62,127
61770,note_on,1,0,0,,4,,,64,127
61850,note_off,80,0,0,,4,,,64,127
61850,note_off,0,0,0,,7,,,67,127
61851,note_on,1,0,0,,10,,,69,127
61851,note_on,0,0,0,,5,,,65,127
61931,note_off,80,0,0,,5,,,65,127
61932,note_on,1,0,0,,4,,,64,127
62012,note_off,80,0,0,,4,,,64,127
62013,note_on,1,0,0,,5,,,65,127
62093,note_off,80,0,0,,5,,,65,127
62093,note_off,0,0,0,,10,,,69,127
62094,note_on,1,0,0,,12,,,71,127
62094,note_on,0,0,0,,7,,,67,127
62174,note_off,80,0,0,,7,,,67,127
62175,note_on,1,0,0,,5,,,65,127
62255,note_off,80,0,0,,5,,,65,127
62256,note_on,1,0,0,,7,,,67,127
62336,note_off,80,0,0,,7,,,67,127
62336,note_off,0,0,0,,12,,,71,127
62337,note_on,1,0,0,,10,,,69,127
62337,note_on,0,0,0,,5,,,41,127
62417,note_off,80,0,0,,7,,,79,127
62418,note_on,1,0,0,,10,,,81,127
62498,note_off,80,0,0,,10,,,81,127
62499,note_off,1,0,0,,10,,,69,127
62499,note_on,0,0,0,,7,,,79,127
62579,note_off,80,0,0,,7,,,79,127
62580,note_on,1,0,0,,5,,,77,127
62660,note_off,80,0,0,,5,,,77,127
62661,note_on,1,0,0,,4,,,76,127
62741,note_off,80,0,0,,4,,,76,127
62742,note_on,1,0,0,,2,,,74,127
62822,note_off,80,0,0,,2,,,74,127
62823,note_on,1,0,0,,0,,,72,127
62903,note_off,80,0,0,,0,,,72,127
62904,note_on,1,0,0,,12,,,71,127
62984,note_off,80,0,0,,12,,,71,127
62985,note_on,1,0,0,,10,,,69,127
63065,note_off,80,0,0,,10,,,69,127
63065,note_off,0,0,0,,5,,,41,127
63066,note_on,1,0,0,,5,,,65,127
63066,note_on,0,0,0,,5,,,77,127
63066,note_on,0,0,0,,2,,,62,127
63146,note_off,80,0,0,,2,,,62,127
63147,note_on,1,0,0,,0,,,60,127
63227,note_off,80,0,0,,0,,,60,127
63228,note_on,1,0,0,,2,,,62,127
63308,note_off,80,0,0,,2,,,62,127
63308,note_off,0,0,0,,5,,,65,127
63309,note_on,1,0,0,,7,,,67,127
63309,note_on,0,0,0,,4,,,64,127
63389,note_off,80,0,0,,4,,,64,127
63390,note_on,1,0,0,,2,,,62,127
63470,note_off,80,0,0,,2,,,62,127
63471,note_on,1,0,0,,4,,,64,127
63551,note_off,80,0,0,,4,,,64,127
63551,note_off,0,0,0,,7,,,67,127
63552,note_on,1,0,0,,10,,,69,127
63552,note_on,0,0,0,,5,,,65,127
63632,note_off,80,0,0,,5,,,65,127
63633,note_on,1,0,0,,4,,,64,127
63713,note_off,80,0,0,,4,,,64,127
63714,note_on,1,0,0,,5,,,65,127
63794,note_off,80,0,0,,5,,,65,127
63794,note_off,0,0,0,,10,,,69,127
63795,note_on,1,0,0,,7,,,67,127
63795,note_on,0,0,0,,4,,,40,127
63875,note_off,80,0,0,,5,,,77,127
63876,note_on,1,0,0,,7,,,79,127
63956,note_off,80,0,0,,7,,,79,127
63957,note_off,1,0,0,,7,,,67,127
63957,note_on,0,0,0,,5,,,77,127
64037,note_off,80,0,0,,5,,,77,127
64038,note_on,1,0,0,,4,,,76,127
64118,note_off,80,0,0,,4,,,76,127
64119,note_on,1,0,0,,2,,,74,127
64199,note_off,80,0,0,,2,,,74,127
64200,note_on,1,0,0,,0,,,72,127
64280,note_off,80,0,0,,0,,,72,127
64281,note_on,1,0,0,,12,,,71,127
64361,note_off,80,0,0,,12,,,71,127
64362,note_on,1,0,0,,10,,,69,127
64442,note_off,80,0,0,,10,,,69,127
64443,note_on,1,0,0,,7,,,67,127
64523,note_off,80,0,0,,7,,,67,127
64523,note_off,0,0,0,,4,,,40,127
64524,note_on,1,0,0,,4,,,76,127
64524,note_on,0,0,0,,4,,,64,127
64524,note_on,0,0,0,,0,,,60,127
64604,note_off,80,0,0,,0,,,60,127
64605,note_on,1,0,0,,12,,,59,127
64685,note_off,80,0,0,,12,,,59,127
64686,note_on,1,0,0,,0,,,60,127
64766,note_off,80,0,0,,0,,,60,127
64766,note_off,0,0,0,,4,,,64,127
64767,note_on,1,0,0,,5,,,65,127
64767,note_on,0,0,0,,2,,,62,127
64847,note_off,80,0,0,,2,,,62,127
64848,note_on,1,0,0,,0,,,60,127
64928,note_off,80,0,0,,0,,,60,127
64929,note_on,1,0,0,,2,,,62,127
65009,note_off,80,0,0,,2,,,62,127
65009,note_off,0,0,0,,5,,,65,127
65010,note_on,1,0,0,,7,,,67,127
65010,note_on,0,0,0,,4,,,64,127
65090,note_off,80,0,0,,4,,,64,127
65091,note_on,1,0,0,,2,,,62,127
65171,note_off,80,0,0,,2,,,62,127
65172,note_on,1,0,0,,4,,,64,127
65252,note_off,80,0,0,,4,,,64,127
65252,note_off,0,0,0,,7,,,67,127
65253,note_on,1,0,0,,5,,,65,127
65253,note_on,0,0,0,,2,,,38,127
65333,note_off,80,0,0,,4,,,76,127
65334,note_on,1,0,0,,5,,,77,127
65414,note_off,80,0,0,,5,,,77,127
65415,note_off,1,0,0,,5,,,65,127
65415,note_on,0,0,0,,4,,,76,127
65495,note_off,80,0,0,,4,,,76,127
65496,note_on,1,0,0,,2,,,74,127
65576,note_off,80,0,0,,2,,,74,127
65577,note_on,1,0,0,,0,,,72,127
65657,note_off,80,0,0,,0,,,72,127
65658,note_on,1,0,0,,12,,,71,127
65738,note_off,80,0,0,,12,,,71,127
65739,note_on,1,0,0,,10,,,69,127
65819,note_off,80,0,0,,10,,,69,127
65820,note_on,1,0,0,,7,,,67,127
65900,note_off,80,0,0,,7,,,67,127
65901,note_on,1,0,0,,5,,,65,127
65981,note_off,80,0,0,,5,,,65,127
65981,note_off,0,0,0,,2,,,38,127
65982,note_on,1,0,0,,2,,,62,127
65982,note_on,0,0,0,,2,,,74,127
65982,note_on,0,0,0,,12,,,59,127
66062,note_off,80,0,0,,12,,,59,127
66063,note_on,1,0,0,,10,,,57,127
66143,note_off,80,0,0,,10,,,57,127
66144,note_on,1,0,0,,12,,,59,127
66224,note_off,80,0,0,,12,,,59,127
66224,note_off,0,0,0,,2,,,62,127
66225,note_on,1,0,0,,4,,,64,127
66225,note_on,0,0,0,,0,,,60,127
66305,note_off,80,0,0,,0,,,60,127
66306,note_on,1,0,0,,12,,,59,127
66386,note_off,80,0,0,,12,,,59,127
66387,note_on,1,0,0,,0,,,60,127
66467,note_off,80,0,0,,0,,,60,127
66467,note_off,0,0,0,,4,,,64,127
66468,note_on,1,0,0,,5,,,65,127
66468,note_on,0,0,0,,2,,,62,127
66548,note_off,80,0,0,,2,,,62,127
66549,note_on,1,0,0,,0,,,60,127
66629,note_off,80,0,0,,0,,,60,127
66630,note_on,1,0,0,,2,,,62,127
66710,note_off,80,0,0,,2,,,62,127
66710,note_off,0,0,0,,5,,,65,127
66711,note_on,1,0,0,,4,,,64,127
66711,note_on,0,0,0,,0,,,36,127
66791,note_off,80,0,0,,2,,,74,127
66792,note_on,1,0,0,,4,,,76,127
66872,note_off,80,0,0,,4,,,76,127
66873,note_off,1,0,0,,4,,,64,127
66873,note_on,0,0,0,,2,,,74,127
66953,note_off,80,0,0,,2,,,74,127
66954,note_on,1,0,0,,0,,,72,127
67034,note_off,80,0,0,,0,,,72,127
67035,note_on,1,0,0,,12,,,71,127
67115,note_off,80,0,0,,12,,,71,127
67116,note_on,1,0,0,,0,,,72,127
67196,note_off,80,0,0,,0,,,72,127
67196,note_off,0,0,0,,0,,,36,127
67197,note_on,1,0,0,,7,,,79,127
67197,note_on,0,0,0,,0,,,48,127
67277,note_off,80,0,0,,7,,,79,127
67278,note_on,1,0,0,,5,,,77,127
67358,note_off,80,0,0,,5,,,77,127
67359,note_on,1,0,0,,4,,,76,127
67439,note_off,80,0,0,,4,,,76,127
67439,note_off,0,0,0,,0,,,48,127
67440,note_on,1,0,0,,2,,,74,127
67440,note_on,0,0,0,,5,,,53,127
67520,note_off,80,0,0,,2,,,74,127
67521,note_on,1,0,0,,4,,,76,127
67601,note_off,80,0,0,,4,,,76,127
67602,note_on,1,0,0,,5,,,77,127
67682,note_off,80,0,0,,5,,,77,127
67682,note_off,0,0,0,,5,,,53,127
67683,note_on,1,0,0,,4,,,76,127
67683,note_on,0,0,0,,7,,,55,127
67763,note_off,80,0,0,,4,,,76,127
67764,note_on,1,0,0,,5,,,77,127
67844,note_off,80,0,0,,5,,,77,127
67845,note_on,1,0,0,,7,,,79,127
67925,note_off,80,0,0,,7,,,79,127
67925,note_off,0,0,0,,7,,,55,127
67926,note_on,1,0,0,,0,,,72,127
67926,note_on,0,0,0,,7,,,43,127
68006,note_off,80,0,0,,0,,,72,127
68007,note_on,1,0,0,,2,,,74,127
68087,note_off,80,0,0,,2,,,74,127
68088,note_on,1,0,0,,12,,,71,127
68168,note_off,80,0,0,,12,,,71,127
68168,note_off,0,0,0,,7,,,43,127
68169,note_on,1,0,0,,0,,,72,127
68169,note_on,0,0,0,,0,,,36,127
68249,note_off,80,0,0,,0,,,72,127
68250,note_on,1,0,0,,12,,,71,127
68330,note_off,80,0,0,,12,,,71,127
68331,note_on,1,0,0,,0,,,72,127
68411,note_off,80,0,0,,0,,,72,127
68412,note_on,1,0,0,,7,,,67,127
68492,note_off,80,0,0,,7,,,67,127
68493,note_on,1,0,0,,5,,,65,127
68573,note_off,80,0,0,,5,,,65,127
68574,note_on,1,0,0,,7,,,67,127
68654,note_off,80,0,0,,7,,,67,127
68655,note_on,1,0,0,,4,,,64,127
68735,note_off,80,0,0,,4,,,64,127
68740,note_on,5,0,0,,2,,,62,127
68820,note_off,80,0,0,,2,,,62,127
68828,note_on,8,0,0,,4,,,64,127
68897,note_off,69,0,0,,0,,,36,127
68916,note_off,19,0,0,,4,,,64,127
68919,note_on,3,0,0,,4,,,64,127
68919,note_on,0,0,0,,7,,,67,127
68919,note_on,0,0,0,,7,,,79,127
68999,note_off,80,0,0,,4,,,64,127
69000,note_on,1,0,0,,2,,,62,127
69080,note_off,80,0,0,,2,,,62,127
69081,note_on,1,0,0,,4,,,64,127
69161,note_off,80,0,0,,4,,,64,127
69161,note_off,0,0,0,,7,,,67,127
69162,note_on,1,0,0,,5,,,65,127
69162,note_on,0,0,0,,10,,,69,127
69242,note_off,80,0,0,,5,,,65,127
69243,note_on,1,0,0,,4,,,64,127
69323,note_off,80,0,0,,4,,,64,127
69324,note_on,1,0,0,,5,,,65,127
69404,note_off,80,0,0,,5,,,65,127
69404,note_off,0,0,0,,10,,,69,127
69405,note_on,1,0,0,,7,,,67,127
69405,note_on,0,0,0,,12,,,71,127
69485,note_off,80,0,0,,7,,,67,127
69486,note_on,1,0,0,,5,,,65,127
69566,note_off,80,0,0,,5,,,65,127
69567,note_on,1,0,0,,7,,,67,127
69647,note_off,80,0,0,,7,,,67,127
69647,note_off,0,0,0,,12,,,71,127
69648,note_on,1,0,0,,5,,,41,127
69648,note_on,0,0,0,,10,,,69,127
69728,note_off,80,0,0,,7,,,79,127
69729,note_on,1,0,0,,10,,,81,127
69809,note_off,80,0,0,,10,,,81,127
69810,note_on,1,0,0,,7,,,79,127
69888,note_off,78,0,0,,10,,,69,127
69889,note_off,1,0,0,,7,,,79,127
69890,note_on,1,0,0,,5,,,77,127
69970,note_off,80,0,0,,5,,,77,127
69971,note_on,1,0,0,,4,,,76,127
70051,note_off,80,0,0,,4,,,76,127
70052,note_on,1,0,0,,2,,,74,127
70132,note_off,80,0,0,,2,,,74,127
70133,note_on,1,0,0,,0,,,72,127
70213,note_off,80,0,0,,0,,,72,127
70214,note_on,1,0,0,,12,,,71,127
70294,note_off,80,0,0,,12,,,71,127
70295,note_on,1,0,0,,10,,,69,127
70375,note_off,80,0,0,,10,,,69,127
70375,note_off,0,0,0,,5,,,41,127
70386,note_on,11,0,0,,2,,,62,127
70386,note_on,0,0,0,,5,,,65,127
70386,note_on,0,0,0,,5,,,77,127
70466,note_off,80,0,0,,2,,,62,127
70467,note_on,1,0,0,,0,,,60,127
70547,note_off,80,0,0,,0,,,60,127
70548,note_on,1,0,0,,2,,,62,127
70628,note_off,80,0,0,,2,,,62,127
70628,note_off,0,0,0,,5,,,65,127
70629,note_on,1,0,0,,4,,,64,127
70629,note_on,0,0,0,,7,,,67,127
70709,note_off,80,0,0,,4,,,64,127
70710,note_on,1,0,0,,2,,,62,127
70790,note_off,80,0,0,,2,,,62,127
70791,note_on,1,0,0,,4,,,64,127
70871,note_off,80,0,0,,4,,,64,127
70871,note_off,0,0,0,,7,,,67,127
70872,note_on,1,0,0,,5,,,65,127
70872,note_on,0,0,0,,10,,,69,127
70952,note_off,80,0,0,,5,,,65,127
70953,note_on,1,0,0,,4,,,64,127
71033,note_off,80,0,0,,4,,,64,127
71034,note_on,1,0,0,,5,,,65,127
71114,note_off,80,0,0,,5,,,65,127
71114,note_off,0,0,0,,10,,,69,127
71115,note_on,1,0,0,,4,,,40,127
71115,note_on,0,0,0,,7,,,67,127
71195,note_off,80,0,0,,5,,,77,127
71196,note_on,1,0,0,,7,,,79,127
71276,note_off,80,0,0,,7,,,79,127
71277,note_on,1,0,0,,5,,,77,127
71355,note_off,78,0,0,,7,,,67,127
71356,note_off,1,0,0,,5,,,77,127
71357,note_on,1,0,0,,4,,,76,127
71437,note_off,80,0,0,,4,,,76,127
71438,note_on,1,0,0,,2,,,74,127
71518,note_off,80,0,0,,2,,,74,127
71519,note_on,1,0,0,,0,,,72,127
71599,note_off,80,0,0,,0,,,72,127
71600,note_on,1,0,0,,12,,,71,127
71680,note_off,80,0,0,,12,,,71,127
71681,note_on,1,0,0,,10,,,69,127
71761,note_off,80,0,0,,10,,,69,127
71762,note_on,1,0,0,,7,,,67,127
71842,note_off,80,0,0,,4,,,40,127
71853,note_off,11,0,0,,7,,,67,127
71853,note_on,0,0,0,,0,,,60,127
71853,note_on,0,0,0,,4,,,76,127
71853,note_on,0,0,0,,4,,,64,127
71933,note_off,80,0,0,,0,,,60,127
71934,note_on,1,0,0,,12,,,59,127
72014,note_off,80,0,0,,12,,,59,127
72015,note_on,1,0,0,,0,,,60,127
72095,note_off,80,0,0,,0,,,60,127
72095,note_off,0,0,0,,4,,,64,127
72096,note_on,1,0,0,,2,,,62,127
72096,note_on,0,0,0,,5,,,65,127
72176,note_off,80,0,0,,2,,,62,127
72177,note_on,1,0,0,,0,,,60,127
72257,note_off,80,0,0,,0,,,60,127
72258,note_on,1,0,0,,2,,,62,127
72338,note_off,80,0,0,,2,,,62,127
72338,note_off,0,0,0,,5,,,65,127
72339,note_on,1,0,0,,4,,,64,127
72339,note_on,0,0,0,,7,,,67,127
72419,note_off,80,0,0,,4,,,64,127
72420,note_on,1,0,0,,2,,,62,127
72500,note_off,80,0,0,,2,,,62,127
72501,note_on,1,0,0,,4,,,64,127
72581,note_off,80,0,0,,4,,,64,127
72581,note_off,0,0,0,,7,,,67,127
72582,note_on,1,0,0,,2,,,38,127
72582,note_on,0,0,0,,5,,,65,127
72662,note_off,80,0,0,,4,,,76,127
72663,note_on,1,0,0,,5,,,77,127
72743,note_off,80,0,0,,5,,,77,127
72744,note_on,1,0,0,,4,,,76,127
72822,note_off,78,0,0,,5,,,65,127
72823,note_off,1,0,0,,4,,,76,127
72824,note_on,1,0,0,,2,,,74,127
72904,note_off,80,0,0,,2,,,74,127
72905,note_on,1,0,0,,0,,,72,127
72985,note_off,80,0,0,,0,,,72,127
72986,note_on,1,0,0,,12,,,71,127
73066,note_off,80,0,0,,12,,,71,127
73067,note_on,1,0,0,,10,,,69,127
73147,note_off,80,0,0,,10,,,69,127
73148,note_on,1,0,0,,7,,,67,127
73228,note_off,80,0,0,,7,,,67,127
73229,note_on,1,0,0,,5,,,65,127
73309,note_off,80,0,0,,5,,,65,127
73309,note_off,0,0,0,,2,,,38,127
73320,note_on,11,0,0,,12,,,59,127
73320,note_on,0,0,0,,2,,,74,127
73320,note_on,0,0,0,,2,,,62,127
73400,note_off,80,0,0,,12,,,59,127
73401,note_on,1,0,0,,10,,,57,127
73481,note_off,80,0,0,,10,,,57,127
73482,note_on,1,0,0,,12,,,59,127
73562,note_off,80,0,0,,12,,,59,127
73562,note_off,0,0,0,,2,,,62,127
73563,note_on,1,0,0,,0,,,60,127
73563,note_on,0,0,0,,4,,,64,127
73643,note_off,80,0,0,,0,,,60,127
73644,note_on,1,0,0,,12,,,59,127
73724,note_off,80,0,0,,12,,,59,127
73725,note_on,1,0,0,,0,,,60,127
73805,note_off,80,0,0,,0,,,60,127
73805,note_off,0,0,0,,4,,,64,127
73806,note_on,1,0,0,,2,,,62,127
73806,note_on,0,0,0,,5,,,65,127
73886,note_off,80,0,0,,2,,,62,127
73887,note_on,1,0,0,,0,,,60,127
73967,note_off,80,0,0,,0,,,60,127
73968,note_on,1,0,0,,2,,,62,127
74048,note_off,80,0,0,,2,,,62,127
74048,note_off,0,0,0,,5,,,65,127
74049,note_on,1,0,0,,0,,,36,127
74049,note_on,0,0,0,,4,,,64,127
74129,note_off,80,0,0,,2,,,74,127
74130,note_on,1,0,0,,4,,,76,127
74210,note_off,80,0,0,,4,,,76,127
74211,note_on,1,0,0,,2,,,74,127
74289,note_off,78,0,0,,4,,,64,127
74290,note_off,1,0,0,,2,,,74,127
74291,note_on,1,0,0,,0,,,72,127
74371,note_off,80,0,0,,0,,,72,127
74372,note_on,1,0,0,,12,,,71,127
74452,note_off,80,0,0,,12,,,71,127
74453,note_on,1,0,0,,0,,,72,127
74535,note_off,82,0,0,,0,,,72,127
74544,note_on,9,0,0,,0,,,48,127
74544,note_on,0,0,0,,7,,,79,127
74592,note_off,48,0,0,,0,,,36,127
74624,note_off,32,0,0,,7,,,79,127
74625,note_on,1,0,0,,5,,,77,127
74705,note_off,80,0,0,,5,,,77,127
74706,note_on,1,0,0,,4,,,76,127
74772,note_off,66,0,0,,0,,,48,127
74786,note_off,14,0,0,,4,,,76,127
74787,note_on,1,0,0,,5,,,53,127
74787,note_on,0,0,0,,2,,,74,127
74867,note_off,80,0,0,,2,,,74,127
74868,note_on,1,0,0,,4,,,76,127
74948,note_off,80,0,0,,4,,,76,127
74949,note_on,1,0,0,,5,,,77,127
75029,note_off,80,0,0,,5,,,77,127
75029,note_off,0,0,0,,5,,,53,127
75030,note_on,1,0,0,,7,,,55,127
75030,note_on,0,0,0,,4,,,76,127
75110,note_off,80,0,0,,4,,,76,127
75111,note_on,1,0,0,,5,,,77,127
75191,note_off,80,0,0,,5,,,77,127
75192,note_on,1,0,0,,7,,,79,127
75272,note_off,80,0,0,,7,,,79,127
75273,note_on,1,0,0,,7,,,43,127
75273,note_on,0,0,0,,0,,,72,127
75353,note_off,80,0,0,,0,,,72,127
75354,note_on,1,0,0,,2,,,74,127
75394,note_off,40,0,0,,7,,,55,127
75433,note_off,39,0,0,,2,,,74,127
75434,note_on,1,0,0,,12,,,71,127
75514,note_off,80,0,0,,12,,,71,127
75514,note_off,0,0,0,,7,,,43,127
75515,note_on,1,0,0,,0,,,60,127
75515,note_on,0,0,0,,4,,,64,127
75515,note_on,0,0,0,,0,,,72,127
75764,note_on,249,0,0,,5,,,65,127
75764,note_on,0,0,0,,2,,,62,127
75765,note_off,1,0,0,,4,,,64,127
75766,note_off,1,0,0,,0,,,60,127
76005,note_off,239,0,0,,2,,,62,127
76005,note_off,0,0,0,,5,,,65,127
76013,note_on,8,0,0,,4,,,64,127
76013,note_on,0,0,0,,7,,,67,127
76132,note_off,119,0,0,,0,,,72,127
76265,note_off,133,0,0,,7,,,67,127
76265,note_off,0,0,0,,4,,,64,127
76281,note_on,16,0,0,,1,,,73,127
76281,note_on,0,0,0,,5,,,65,127
76281,note_on,0,0,0,,10,,,69,127
76361,note_off,80,0,0,,1,,,73,127
76362,note_on,1,0,0,,2,,,74,127
76442,note_off,80,0,0,,2,,,74,127
76443,note_on,1,0,0,,4,,,76,127
76523,note_off,80,0,0,,4,,,76,127
76523,note_off,0,0,0,,10,,,69,127
76523,note_off,0,0,0,,5,,,65,127
76524,note_on,1,0,0,,4,,,76,127
76524,note_on,0,0,0,,5,,,65,127
76524,note_on,0,0,0,,10,,,69,127
76765,note_off,241,0,0,,10,,,69,127
76765,note_off,0,0,0,,5,,,65,127
76765,note_off,0,0,0,,4,,,76,127
76766,note_on,1,0,0,,2,,,74,127
76766,note_on,0,0,0,,5,,,65,127
76766,note_on,0,0,0,,10,,,69,127
77007,note_off,241,0,0,,10,,,69,127
77007,note_off,0,0,0,,5,,,65,127
77021,note_off,14,0,0,,2,,,74,127
77029,note_on,8,0,0,,10,,,69,127
77029,note_on,0,0,0,,5,,,65,127
77029,note_on,0,0,0,,8,,,80,127
77109,note_off,80,0,0,,8,,,80,127
77110,note_on,1,0,0,,10,,,81,127
77190,note_off,80,0,0,,10,,,81,127
77191,note_on,1,0,0,,12,,,83,127
77271,note_off,80,0,0,,12,,,83,127
77271,note_off,0,0,0,,5,,,65,127
77271,note_off,0,0,0,,10,,,69,127
77272,note_on,1,0,0,,5,,,65,127
77272,note_on,0,0,0,,10,,,69,127
77272,note_on,0,0,0,,12,,,83,127
77513,note_off,241,0,0,,12,,,83,127
77513,note_off,0,0,0,,10,,,69,127
77513,note_off,0,0,0,,5,,,65,127
77514,note_on,1,0,0,,5,,,65,127
77514,note_on,0,0,0,,10,,,69,127
77514,note_on,0,0,0,,10,,,81,127
77755,note_off,241,0,0,,10,,,69,127
77755,note_off,0,0,0,,5,,,65,127
77769,note_off,14,0,0,,10,,,81,127
77777,note_on,8,0,0,,1,,,85,127
77777,note_on,0,0,0,,10,,,69,127
77777,note_on,0,0,0,,5,,,65,127
77857,note_off,80,0,0,,1,,,85,127
77858,note_on,1,0,0,,2,,,86,127
77938,note_off,80,0,0,,2,,,86,127
77939,note_on,1,0,0,,4,,,88,127
78019,note_off,80,0,0,,4,,,88,127
78019,note_off,0,0,0,,5,,,65,127
78019,note_off,0,0,0,,10,,,69,127
78020,note_on,1,0,0,,4,,,88,127
78020,note_on,0,0,0,,10,,,69,127
78020,note_on,0,0,0,,5,,,65,127
78261,note_off,241,0,0,,5,,,65,127
78261,note_off,0,0,0,,10,,,69,127
78261,note_off,0,0,0,,4,,,88,127
78262,note_on,1,0,0,,2,,,86,127
78262,note_on,0,0,0,,10,,,69,127
78262,note_on,0,0,0,,5,,,65,127
78503,note_off,241,0,0,,5,,,65,127
78503,note_off,0,0,0,,10,,,69,127
78517,note_off,14,0,0,,2,,,86,127
78525,note_on,8,0,0,,5,,,53,127
78525,note_on,0,0,0,,12,,,83,127
78525,note_on,0,0,0,,10,,,81,127
78605,note_off,80,0,0,,10,,,81,127
78605,note_off,0,0,0,,12,,,83,127
78606,note_on,1,0,0,,7,,,79,127
78686,note_off,80,0,0,,7,,,79,127
78687,note_on,1,0,0,,5,,,77,127
78767,note_off,80,0,0,,5,,,77,127
78767,note_off,0,0,0,,5,,,53,127
78768,note_on,1,0,0,,7,,,55,127
78768,note_on,0,0,0,,4,,,76,127
78768,note_on,0,0,0,,0,,,72,127
79009,note_off,241,0,0,,0,,,72,127
79009,note_off,0,0,0,,4,,,76,127
79010,note_on,1,0,0,,7,,,43,127
79010,note_on,0,0,0,,12,,,71,127
79010,note_on,0,0,0,,2,,,74,127
79247,note_off,237,0,0,,7,,,55,127
79251,note_off,4,0,0,,2,,,74,127
79251,note_off,0,0,0,,12,,,71,127
79251,note_off,0,0,0,,7,,,43,127
79252,note_on,1,0,0,,0,,,60,127
79252,note_on,0,0,0,,0,,,48,127
79252,note_on,0,0,0,,4,,,76,127
79252,note_on,0,0,0,,0,,,72,127
79493,note_off,241,0,0,,4,,,76,127
79493,note_off,0,0,0,,0,,,48,127
79493,note_off,0,0,0,,0,,,60,127
79494,note_on,1,0,0,,2,,,50,127
79494,note_on,0,0,0,,5,,,77,127
79735,note_off,241,0,0,,5,,,77,127
79735,note_off,0,0,0,,2,,,50,127
79736,note_on,1,0,0,,4,,,52,127
79736,note_on,0,0,0,,7,,,79,127
79938,note_off,202,0,0,,7,,,79,127
79977,note_off,39,0,0,,4,,,52,127
79977,note_off,0,0,0,,0,,,72,127
79998,note_on,21,0,0,,10,,,69,127
79998,note_on,0,0,0,,10,,,57,127
79998,note_on,0,0,0,,5,,,53,127
80078,note_off,80,0,0,,10,,,69,127
80079,note_on,1,0,0,,12,,,71,127
80159,note_off,80,0,0,,12,,,71,127
80160,note_on,1,0,0,,1,,,73,127
80240,note_off,80,0,0,,1,,,73,127
80240,note_off,0,0,0,,5,,,53,127
80240,note_off,0,0,0,,10,,,57,127
80241,note_on,1,0,0,,1,,,73,127
80241,note_on,0,0,0,,10,,,57,127
80241,note_on,0,0,0,,5,,,53,127
80482,note_off,241,0,0,,5,,,53,127
80482,note_off,0,0,0,,10,,,57,127
80482,note_off,0,0,0,,1,,,73,127
80483,note_on,1,0,0,,2,,,74,127
80483,note_on,0,0,0,,5,,,53,127
80483,note_on,0,0,0,,10,,,57,127
80724,note_off,241,0,0,,10,,,57,127
80724,note_off,0,0,0,,5,,,53,127
80724,note_off,0,0,0,,2,,,74,127
80735,note_on,11,0,0,,10,,,81,127
80735,note_on,0,0,0,,5,,,53,127
80735,note_on,0,0,0,,10,,,57,127
80976,note_off,241,0,0,,10,,,57,127
80976,note_off,0,0,0,,5,,,53,127
80976,note_off,0,0,0,,10,,,81,127
80977,note_on,1,0,0,,1,,,73,127
80977,note_on,0,0,0,,10,,,57,127
80977,note_on,0,0,0,,5,,,53,127
81218,note_off,241,0,0,,5,,,53,127
81218,note_off,0,0,0,,10,,,57,127
81218,note_off,0,0,0,,1,,,73,127
81219,note_on,1,0,0,,2,,,74,127
81219,note_on,0,0,0,,10,,,57,127
81219,note_on,0,0,0,,5,,,53,127
81460,note_off,241,0,0,,5,,,53,127
81460,note_off,0,0,0,,10,,,57,127
81460,note_off,0,0,0,,2,,,74,127
81471,note_on,11,0,0,,1,,,85,127
81471,note_on,0,0,0,,5,,,53,127
81471,note_on,0,0,0,,10,,,57,127
81551,note_off,80,0,0,,1,,,85,127
81552,note_on,1,0,0,,2,,,86,127
81632,note_off,80,0,0,,2,,,86,127
81633,note_on,1,0,0,,4,,,88,127
81713,note_off,80,0,0,,4,,,88,127
81713,note_off,0,0,0,,10,,,57,127
81713,note_off,0,0,0,,5,,,53,127
81714,note_on,1,0,0,,4,,,88,127
81714,note_on,0,0,0,,10,,,57,127
81714,note_on,0,0,0,,5,,,53,127
81955,note_off,241,0,0,,5,,,53,127
81955,note_off,0,0,0,,10,,,57,127
81955,note_off,0,0,0,,4,,,88,127
81956,note_on,1,0,0,,2,,,86,127
81956,note_on,0,0,0,,5,,,53,127
81956,note_on,0,0,0,,10,,,57,127
82197,note_off,241,0,0,,10,,,57,127
82197,note_off,0,0,0,,5,,,53,127
82197,note_off,0,0,0,,2,,,86,127
82218,note_on,21,0,0,,12,,,83,127
82218,note_on,0,0,0,,10,,,81,127
82218,note_on,0,0,0,,5,,,53,127
82298,note_off,80,0,0,,10,,,81,127
82298,note_off,0,0,0,,12,,,83,127
82299,note_on,1,0,0,,7,,,79,127
82379,note_off,80,0,0,,7,,,79,127
82380,note_on,1,0,0,,5,,,77,127
82460,note_off,80,0,0,,5,,,77,127
82460,note_off,0,0,0,,5,,,53,127
82461,note_on,1,0,0,,4,,,76,127
82461,note_on,0,0,0,,0,,,72,127
82461,note_on,0,0,0,,7,,,55,127
82702,note_off,241,0,0,,0,,,72,127
82702,note_off,0,0,0,,4,,,76,127
82703,note_on,1,0,0,,2,,,74,127
82703,note_on,0,0,0,,12,,,71,127
82703,note_on,0,0,0,,7,,,43,127
82940,note_off,237,0,0,,7,,,55,127
82944,note_off,4,0,0,,7,,,43,127
82944,note_off,0,0,0,,12,,,71,127
82944,note_off,0,0,0,,2,,,74,127
82986,note_on,42,0,0,,4,,,76,127
82986,note_on,0,0,0,,0,,,72,127
83066,note_off,80,0,0,,0,,,72,127
83067,note_on,1,0,0,,7,,,67,127
83147,note_off,80,0,0,,7,,,67,127
83148,note_on,1,0,0,,4,,,64,127
83228,note_off,80,0,0,,4,,,64,127
83228,note_off,0,0,0,,4,,,76,127
83229,note_on,1,0,0,,7,,,79,127
83229,note_on,0,0,0,,0,,,60,127
83309,note_off,80,0,0,,0,,,60,127
83310,note_on,1,0,0,,7,,,55,127
83390,note_off,80,0,0,,7,,,55,127
83391,note_on,1,0,0,,4,,,52,127
83471,note_off,80,0,0,,4,,,52,127
83471,note_off,0,0,0,,7,,,79,127
83472,note_on,1,0,0,,0,,,84,127
83472,note_on,0,0,0,,0,,,48,127
83713,note_off,241,0,0,,0,,,48,127
83713,note_off,0,0,0,,0,,,84,127
83714,note_on,1,0,0,,5,,,77,127
83714,note_on,0,0,0,,7,,,79,127
83714,note_on,0,0,0,,5,,,53,127
83794,note_off,80,0,0,,7,,,79,127
83794,note_off,0,0,0,,5,,,77,127
83795,note_on,1,0,0,,4,,,76,127
83875,note_off,80,0,0,,4,,,76,127
83876,note_on,1,0,0,,2,,,74,127
83956,note_off,80,0,0,,2,,,74,127
83956,note_off,0,0,0,,5,,,53,127
83957,note_on,1,0,0,,4,,,76,127
83957,note_on,0,0,0,,0,,,72,127
83957,note_on,0,0,0,,7,,,55,127
84198,note_off,241,0,0,,0,,,72,127
84199,note_on,1,0,0,,12,,,71,127
84199,note_on,0,0,0,,7,,,43,127
84239,note_on,40,0,0,,2,,,74,127
84254,note_off,15,0,0,,4,,,76,127
84279,note_on,25,0,0,,4,,,76,127
84295,note_off,16,0,0,,2,,,74,127
84319,note_on,24,0,0,,2,,,74,127
84335,note_off,16,0,0,,4,,,76,127
84359,note_on,24,0,0,,4,,,76,127
84375,note_off,16,0,0,,2,,,74,127
84399,note_on,24,0,0,,2,,,74,127
84415,note_off,16,0,0,,4,,,76,127
84434,note_off,19,0,0,,7,,,55,127
84438,note_off,4,0,0,,2,,,74,127
84438,note_off,0,0,0,,7,,,43,127
84438,note_off,0,0,0,,12,,,71,127
84466,note_on,28,0,0,,0,,,72,127
84466,note_on,0,0,0,,4,,,76,127
84466,note_on,0,0,0,,0,,,60,127
84546,note_off,80,0,0,,0,,,60,127
84547,note_on,1,0,0,,7,,,55,127
84627,note_off,80,0,0,,7,,,55,127
84628,note_on,1,0,0,,4,,,52,127
84708,note_off,80,0,0,,4,,,52,127
84708,note_off,0,0,0,,4,,,76,127
84708,note_off,0,0,0,,0,,,72,127
84709,note_on,1,0,0,,7,,,79,127
84709,note_on,0,0,0,,0,,,48,127
84789,note_off,80,0,0,,0,,,48,127
84790,note_on,1,0,0,,7,,,43,127
84870,note_off,80,0,0,,7,,,43,127
84871,note_on,1,0,0,,4,,,40,127
84951,note_off,80,0,0,,4,,,40,127
84951,note_off,0,0,0,,7,,,79,127
84952,note_on,1,0,0,,0,,,84,127
84952,note_on,0,0,0,,0,,,36,127
85193,note_off,241,0,0,,0,,,36,127
85193,note_off,0,0,0,,0,,,84,127
85214,note_on,21,0,0,,7,,,31,127
85214,note_on,0,0,0,,7,,,67,127
85455,note_off,241,0,0,,7,,,67,127
85463,note_on,8,0,0,,4,,,76,127
85507,note_on,44,0,0,,2,,,74,127
85522,note_off,15,0,0,,4,,,76,127
85551,note_on,29,0,0,,4,,,76,127
85566,note_off,15,0,0,,2,,,74,127
85595,note_on,29,0,0,,2,,,74,127
85610,note_off,15,0,0,,4,,,76,127
85639,note_on,29,0,0,,4,,,76,127
85654,note_off,15,0,0,,2,,,74,127
85684,note_on,30,0,0,,2,,,74,127
85698,note_off,14,0,0,,4,,,76,127
85728,note_on,30,0,0,,4,,,76,127
85743,note_off,15,0,0,,2,,,74,127
85772,note_on,29,0,0,,2,,,74,127
85787,note_off,15,0,0,,4,,,76,127
85816,note_on,29,0,0,,4,,,76,127
85831,note_off,15,0,0,,2,,,74,127
85860,note_on,29,0,0,,2,,,74,127
85875,note_off,15,0,0,,4,,,76,127
85905,note_on,30,0,0,,0,,,72,127
85919,note_off,14,0,0,,2,,,74,127
85938,note_off,19,0,0,,7,,,31,127
85949,note_on,11,0,0,,2,,,74,127
85964,note_off,15,0,0,,0,,,72,127
86001,note_off,37,0,0,,2,,,74,127
86024,note_on,23,0,0,,0,,,36,127
86024,note_on,0,0,0,,0,,,72,127
87898,note_off,1874,0,0,,0,,,72,127
87898,note_off,0,0,0,,0,,,36,127
93696,end_of_track,5798,1,0,,,,,,
