tick,type,time,meta,track,program,channel,pitch,tempo,note,velocity
0,copyright,0,1,0,,,,,,
0,program_change,0,0,0,6,0,,,,
0,pitchwheel,0,0,0,,0,0,,,
0,program_change,0,0,0,6,1,,,,
0,pitchwheel,0,0,0,,1,-590,,,
0,program_change,0,0,0,6,2,,,,
0,pitchwheel,0,0,0,,2,-272,,,
0,program_change,0,0,0,6,3,,,,
0,pitchwheel,0,0,0,,3,-353,,,
0,program_change,0,0,0,6,4,,,,
0,pitchwheel,0,0,0,,4,-560,,,
0,program_change,0,0,0,6,5,,,,
0,pitchwheel,0,0,0,,5,-80,,,
0,program_change,0,0,0,6,6,,,,
0,pitchwheel,0,0,0,,6,-625,,,
0,program_change,0,0,0,6,7,,,,
0,pitchwheel,0,0,0,,7,-130,,,
0,program_change,0,0,0,6,8,,,,
0,pitchwheel,0,0,0,,8,-512,,,
0,program_change,0,0,0,6,10,,,,
0,pitchwheel,0,0,0,,10,-464,,,
0,program_change,0,0,0,6,11,,,,
0,pitchwheel,0,0,0,,11,-208,,,
0,program_change,0,0,0,6,12,,,,
0,pitchwheel,0,0,0,,12,-553,,,
0,set_tempo,0,1,0,,,,500000,,
107,note_on,107,0,0,,7,,,67,127
319,note_off,212,0,0,,7,,,67,127
320,note_on,1,0,0,,6,,,66,127
426,note_off,106,0,0,,6,,,66,127
427,note_on,1,0,0,,7,,,67,127
533,note_off,106,0,0,,7,,,67,127
534,note_on,1,0,0,,10,,,69,127
746,note_off,212,0,0,,10,,,69,127
747,note_on,1,0,0,,12,,,71,127
959,note_off,212,0,0,,12,,,71,127
960,note_on,1,0,0,,0,,,72,127
1172,note_off,212,0,0,,0,,,72,127
1173,note_on,1,0,0,,2,,,74,127
1385,note_off,212,0,0,,2,,,74,127
1386,note_on,1,0,0,,4,,,76,127
1598,note_off,212,0,0,,4,,,76,127
1599,note_on,1,0,0,,6,,,78,127
1811,note_off,212,0,0,,6,,,78,127
1812,note_on,1,0,0,,7,,,55,127
1812,note_on,0,0,0,,7,,,79,127
2024,note_off,212,0,0,,7,,,55,127
2025,note_on,1,0,0,,6,,,54,127
2131,note_off,106,0,0,,6,,,54,127
2132,note_on,1,0,0,,7,,,55,127
2238,note_off,106,0,0,,7,,,55,127
2239,note_on,1,0,0,,10,,,57,127
2451,note_off,212,0,0,,10,,,57,127
2452,note_on,1,0,0,,12,,,59,127
2664,note_off,212,0,0,,12,,,59,127
2665,note_on,1,0,0,,0,,,60,127
2877,note_off,212,0,0,,0,,,60,127
2877,note_off,0,0,0,,7,,,79,127
2878,note_on,1,0,0,,2,,,62,127
2878,note_on,0,0,0,,6,,,78,127
2984,note_off,106,0,0,,6,,,78,127
2985,note_on,1,0,0,,4,,,76,127
3091,note_off,106,0,0,,4,,,76,127
3091,note_off,0,0,0,,2,,,62,127
3092,note_on,1,0,0,,4,,,64,127
3092,note_on,0,0,0,,2,,,74,127
3304,note_off,212,0,0,,2,,,74,127
3304,note_off,0,0,0,,4,,,64,127
3305,note_on,1,0,0,,6,,,66,127
3305,note_on,0,0,0,,0,,,72,127
3517,note_off,212,0,0,,0,,,72,127
3517,note_off,0,0,0,,6,,,66,127
3518,note_on,1,0,0,,7,,,67,127
3518,note_on,0,0,0,,12,,,71,127
3730,note_off,212,0,0,,12,,,71,127
3731,note_on,1,0,0,,7,,,79,127
3837,note_off,106,0,0,,7,,,79,127
3838,note_on,1,0,0,,4,,,76,127
3944,note_off,106,0,0,,4,,,76,127
3945,note_on,1,0,0,,2,,,74,127
4051,note_off,106,0,0,,7,,,67,127
4052,note_on,1,0,0,,6,,,66,127
4158,note_off,106,0,0,,6,,,66,127
4159,note_on,1,0,0,,4,,,64,127
4265,note_off,106,0,0,,4,,,64,127
4266,note_on,1,0,0,,2,,,62,127
4372,note_off,106,0,0,,2,,,62,127
4373,note_on,1,0,0,,0,,,60,127
4480,note_off,107,0,0,,2,,,74,127
4587,note_on,107,0,0,,4,,,76,127
4799,note_off,212,0,0,,4,,,76,127
4799,note_off,0,0,0,,0,,,60,127
4800,note_on,1,0,0,,2,,,62,127
4800,note_on,0,0,0,,10,,,69,127
5012,note_off,212,0,0,,10,,,69,127
5013,note_on,1,0,0,,12,,,71,127
5119,note_off,106,0,0,,12,,,71,127
5120,note_on,1,0,0,,0,,,72,127
5226,note_off,106,0,0,,0,,,72,127
5226,note_off,0,0,0,,2,,,62,127
5227,note_on,1,0,0,,7,,,67,127
5227,note_on,0,0,0,,12,,,71,127
5439,note_off,212,0,0,,12,,,71,127
5440,note_on,1,0,0,,7,,,79,127
5546,note_off,106,0,0,,7,,,79,127
5547,note_on,1,0,0,,4,,,76,127
5653,note_off,106,0,0,,4,,,76,127
5654,note_on,1,0,0,,2,,,74,127
5760,note_off,106,0,0,,7,,,67,127
5761,note_on,1,0,0,,6,,,66,127
5867,note_off,106,0,0,,6,,,66,127
5868,note_on,1,0,0,,4,,,64,127
5974,note_off,106,0,0,,4,,,64,127
5975,note_on,1,0,0,,2,,,62,127
6081,note_off,106,0,0,,2,,,62,127
6082,note_on,1,0,0,,0,,,60,127
6189,note_off,107,0,0,,2,,,74,127
6296,note_on,107,0,0,,4,,,76,127
6508,note_off,212,0,0,,4,,,76,127
6508,note_off,0,0,0,,0,,,60,127
6509,note_on,1,0,0,,2,,,62,127
6509,note_on,0,0,0,,6,,,66,127
6721,note_off,212,0,0,,6,,,66,127
6722,note_on,1,0,0,,7,,,67,127
6828,note_off,106,0,0,,7,,,67,127
6829,note_on,1,0,0,,10,,,69,127
6935,note_off,106,0,0,,10,,,69,127
6935,note_off,0,0,0,,2,,,62,127
6936,note_on,1,0,0,,7,,,55,127
6936,note_on,0,0,0,,7,,,67,127
7148,note_off,212,0,0,,7,,,67,127
7149,note_on,1,0,0,,2,,,74,127
7361,note_off,212,0,0,,2,,,74,127
7362,note_on,1,0,0,,2,,,74,127
7574,note_off,212,0,0,,2,,,74,127
7575,note_on,1,0,0,,7,,,79,127
7787,note_off,212,0,0,,7,,,79,127
7787,note_off,0,0,0,,7,,,55,127
7788,note_on,1,0,0,,7,,,79,127
8000,note_off,212,0,0,,7,,,79,127
8001,note_on,1,0,0,,11,,,82,127
8213,note_off,212,0,0,,11,,,82,127
8214,note_on,1,0,0,,7,,,67,127
8214,note_on,0,0,0,,11,,,82,127
8426,note_off,212,0,0,,11,,,82,127
8427,note_on,1,0,0,,2,,,74,127
8639,note_off,212,0,0,,2,,,74,127
8640,note_on,1,0,0,,0,,,72,127
8852,note_off,212,0,0,,0,,,72,127
8852,note_off,0,0,0,,7,,,67,127
8853,note_on,1,0,0,,6,,,66,127
8853,note_on,0,0,0,,10,,,81,127
8959,note_off,106,0,0,,6,,,66,127
8960,note_on,1,0,0,,4,,,64,127
9066,note_off,106,0,0,,4,,,64,127
9067,note_on,1,0,0,,6,,,66,127
9279,note_off,212,0,0,,6,,,66,127
9279,note_off,0,0,0,,10,,,81,127
9280,note_on,1,0,0,,2,,,62,127
9280,note_on,0,0,0,,0,,,72,127
9492,note_off,212,0,0,,0,,,72,127
9492,note_off,0,0,0,,2,,,62,127
9493,note_on,1,0,0,,7,,,67,127
9493,note_on,0,0,0,,11,,,70,127
9705,note_off,212,0,0,,11,,,70,127
9706,note_on,1,0,0,,2,,,74,127
9918,note_off,212,0,0,,2,,,74,127
9919,note_on,1,0,0,,7,,,55,127
9919,note_on,0,0,0,,2,,,74,127
10131,note_off,212,0,0,,2,,,74,127
10132,note_on,1,0,0,,7,,,79,127
10344,note_off,212,0,0,,7,,,79,127
10345,note_on,1,0,0,,7,,,79,127
10557,note_off,212,0,0,,7,,,79,127
10558,note_on,1,0,0,,11,,,82,127
10769,note_off,211,0,0,,7,,,67,127
10770,note_off,1,0,0,,11,,,82,127
10770,note_off,0,0,0,,7,,,55,127
10771,note_on,1,0,0,,7,,,67,127
10771,note_on,0,0,0,,11,,,82,127
10983,note_off,212,0,0,,11,,,82,127
10984,note_on,1,0,0,,2,,,74,127
11196,note_off,212,0,0,,2,,,74,127
11197,note_on,1,0,0,,1,,,73,127
11409,note_off,212,0,0,,1,,,73,127
11409,note_off,0,0,0,,7,,,67,127
11410,note_on,1,0,0,,5,,,65,127
11410,note_on,0,0,0,,10,,,81,127
11516,note_off,106,0,0,,5,,,65,127
11517,note_on,1,0,0,,4,,,64,127
11623,note_off,106,0,0,,4,,,64,127
11624,note_on,1,0,0,,5,,,65,127
11730,note_off,106,0,0,,10,,,81,127
11731,note_on,1,0,0,,7,,,79,127
11837,note_off,106,0,0,,7,,,79,127
11837,note_off,0,0,0,,5,,,65,127
11838,note_on,1,0,0,,2,,,62,127
11838,note_on,0,0,0,,5,,,77,127
11944,note_off,106,0,0,,5,,,77,127
11945,note_on,1,0,0,,4,,,76,127
12051,note_off,106,0,0,,4,,,76,127
12051,note_off,0,0,0,,2,,,62,127
12052,note_on,1,0,0,,11,,,58,127
12052,note_on,0,0,0,,2,,,74,127
12264,note_off,212,0,0,,2,,,74,127
12265,note_on,1,0,0,,11,,,82,127
12477,note_off,212,0,0,,11,,,58,127
12478,note_on,1,0,0,,11,,,58,127
12478,note_on,0,0,0,,7,,,67,127
12584,note_off,106,0,0,,11,,,82,127
12585,note_on,1,0,0,,10,,,81,127
12691,note_off,106,0,0,,10,,,81,127
12692,note_on,1,0,0,,11,,,82,127
12904,note_off,212,0,0,,7,,,67,127
12904,note_off,0,0,0,,11,,,58,127
12905,note_on,1,0,0,,11,,,58,127
12905,note_on,0,0,0,,7,,,67,127
13011,note_off,106,0,0,,11,,,82,127
13012,note_on,1,0,0,,0,,,84,127
13118,note_off,106,0,0,,0,,,84,127
13119,note_on,1,0,0,,2,,,86,127
13331,note_off,212,0,0,,7,,,67,127
13331,note_off,0,0,0,,11,,,58,127
13332,note_on,1,0,0,,11,,,58,127
13332,note_on,0,0,0,,7,,,67,127
13438,note_off,106,0,0,,2,,,86,127
13439,note_on,1,0,0,,0,,,84,127
13545,note_off,106,0,0,,0,,,84,127
13546,note_on,1,0,0,,11,,,82,127
13758,note_off,212,0,0,,7,,,67,127
13758,note_off,0,0,0,,11,,,58,127
13759,note_on,1,0,0,,7,,,67,127
13759,note_on,0,0,0,,11,,,58,127
13865,note_off,106,0,0,,11,,,82,127
13866,note_on,1,0,0,,10,,,81,127
13972,note_off,106,0,0,,10,,,81,127
13973,note_on,1,0,0,,7,,,79,127
14185,note_off,212,0,0,,11,,,58,127
14185,note_off,0,0,0,,7,,,67,127
14186,note_on,1,0,0,,11,,,46,127
14292,note_off,106,0,0,,7,,,79,127
14293,note_on,1,0,0,,5,,,77,127
14399,note_off,106,0,0,,5,,,77,127
14400,note_on,1,0,0,,4,,,76,127
14506,note_off,106,0,0,,4,,,76,127
14507,note_on,1,0,0,,2,,,74,127
14613,note_off,106,0,0,,2,,,74,127
14613,note_off,0,0,0,,11,,,46,127
14614,note_on,1,0,0,,10,,,45,127
14614,note_on,0,0,0,,2,,,74,127
14826,note_off,212,0,0,,2,,,74,127
14827,note_on,1,0,0,,2,,,74,127
14897,note_off,70,0,0,,2,,,74,127
14898,note_on,1,0,0,,1,,,73,127
14968,note_off,70,0,0,,1,,,73,127
14969,note_on,1,0,0,,12,,,71,127
15039,note_off,70,0,0,,12,,,71,127
15040,note_on,1,0,0,,10,,,69,127
15252,note_off,212,0,0,,10,,,45,127
15462,note_off,210,0,0,,10,,,69,127
15466,note_on,4,0,0,,6,,,54,127
15466,note_on,0,0,0,,6,,,66,127
15679,note_on,213,0,0,,2,,,74,127
15785,note_off,106,0,0,,2,,,74,127
15786,note_on,1,0,0,,10,,,69,127
15892,note_off,106,0,0,,10,,,69,127
15893,note_on,1,0,0,,6,,,78,127
15893,note_on,0,0,0,,2,,,74,127
16105,note_off,212,0,0,,2,,,74,127
16105,note_off,0,0,0,,6,,,78,127
16105,note_off,0,0,0,,6,,,66,127
16105,note_off,0,0,0,,6,,,54,127
16106,note_on,1,0,0,,4,,,52,127
16106,note_on,0,0,0,,4,,,64,127
16106,note_on,0,0,0,,7,,,79,127
16106,note_on,0,0,0,,4,,,76,127
16318,note_off,212,0,0,,4,,,76,127
16318,note_off,0,0,0,,7,,,79,127
16318,note_off,0,0,0,,4,,,64,127
16318,note_off,0,0,0,,4,,,52,127
16319,note_on,1,0,0,,2,,,62,127
16319,note_on,0,0,0,,2,,,50,127
16319,note_on,0,0,0,,6,,,78,127
16319,note_on,0,0,0,,10,,,81,127
16531,note_off,212,0,0,,6,,,78,127
16531,note_off,0,0,0,,2,,,50,127
16531,note_off,0,0,0,,2,,,62,127
16532,note_on,1,0,0,,6,,,66,127
16532,note_on,0,0,0,,6,,,54,127
16532,note_on,0,0,0,,2,,,74,127
16638,note_off,106,0,0,,2,,,74,127
16639,note_on,1,0,0,,10,,,69,127
16741,note_off,102,0,0,,10,,,81,127
16744,note_off,3,0,0,,10,,,69,127
16745,note_on,1,0,0,,2,,,74,127
16745,note_on,0,0,0,,6,,,78,127
16957,note_off,212,0,0,,6,,,78,127
16957,note_off,0,0,0,,2,,,74,127
16957,note_off,0,0,0,,6,,,54,127
16957,note_off,0,0,0,,6,,,66,127
16958,note_on,1,0,0,,4,,,52,127
16958,note_on,0,0,0,,4,,,64,127
16958,note_on,0,0,0,,4,,,76,127
16958,note_on,0,0,0,,7,,,79,127
17170,note_off,212,0,0,,7,,,79,127
17170,note_off,0,0,0,,4,,,76,127
17170,note_off,0,0,0,,4,,,64,127
17170,note_off,0,0,0,,4,,,52,127
17171,note_on,1,0,0,,2,,,62,127
17171,note_on,0,0,0,,2,,,50,127
17171,note_on,0,0,0,,6,,,78,127
17171,note_on,0,0,0,,10,,,81,127
17383,note_off,212,0,0,,10,,,81,127
17383,note_off,0,0,0,,6,,,78,127
17383,note_off,0,0,0,,2,,,50,127
17383,note_off,0,0,0,,2,,,62,127
17384,note_on,1,0,0,,10,,,57,127
17384,note_on,0,0,0,,10,,,69,127
17384,note_on,0,0,0,,4,,,76,127
17384,note_on,0,0,0,,1,,,73,127
17490,note_off,106,0,0,,1,,,73,127
17490,note_off,0,0,0,,10,,,69,127
17491,note_on,1,0,0,,10,,,69,127
17595,note_off,104,0,0,,4,,,76,127
17596,note_off,1,0,0,,10,,,69,127
17596,note_off,0,0,0,,10,,,57,127
17597,note_on,1,0,0,,7,,,55,127
17597,note_on,0,0,0,,7,,,67,127
17597,note_on,0,0,0,,4,,,76,127
17597,note_on,0,0,0,,1,,,73,127
17809,note_off,212,0,0,,1,,,73,127
17809,note_off,0,0,0,,4,,,76,127
17809,note_off,0,0,0,,7,,,67,127
17809,note_off,0,0,0,,7,,,55,127
17810,note_on,1,0,0,,6,,,66,127
17810,note_on,0,0,0,,6,,,54,127
17810,note_on,0,0,0,,6,,,78,127
17810,note_on,0,0,0,,2,,,74,127
18022,note_off,212,0,0,,2,,,74,127
18022,note_off,0,0,0,,6,,,78,127
18022,note_off,0,0,0,,6,,,54,127
18022,note_off,0,0,0,,6,,,66,127
18023,note_on,1,0,0,,4,,,52,127
18023,note_on,0,0,0,,4,,,64,127
18023,note_on,0,0,0,,7,,,79,127
18023,note_on,0,0,0,,4,,,76,127
18235,note_off,212,0,0,,4,,,76,127
18235,note_off,0,0,0,,7,,,79,127
18235,note_off,0,0,0,,4,,,64,127
18235,note_off,0,0,0,,4,,,52,127
18236,note_on,1,0,0,,10,,,69,127
18236,note_on,0,0,0,,10,,,57,127
18236,note_on,0,0,0,,1,,,73,127
18236,note_on,0,0,0,,4,,,76,127
18342,note_off,106,0,0,,1,,,73,127
18342,note_off,0,0,0,,10,,,69,127
18343,note_on,1,0,0,,10,,,69,127
18449,note_off,106,0,0,,10,,,69,127
18449,note_off,0,0,0,,10,,,57,127
18450,note_on,1,0,0,,7,,,55,127
18450,note_on,0,0,0,,7,,,67,127
18450,note_on,0,0,0,,1,,,73,127
18659,note_off,209,0,0,,4,,,76,127
18662,note_off,3,0,0,,1,,,73,127
18662,note_off,0,0,0,,7,,,67,127
18662,note_off,0,0,0,,7,,,55,127
18663,note_on,1,0,0,,6,,,66,127
18663,note_on,0,0,0,,6,,,54,127
18663,note_on,0,0,0,,6,,,78,127
18663,note_on,0,0,0,,2,,,74,127
18875,note_off,212,0,0,,2,,,74,127
18875,note_off,0,0,0,,6,,,78,127
18875,note_off,0,0,0,,6,,,54,127
18875,note_off,0,0,0,,6,,,66,127
18876,note_on,1,0,0,,4,,,52,127
18876,note_on,0,0,0,,4,,,64,127
18876,note_on,0,0,0,,7,,,79,127
18876,note_on,0,0,0,,4,,,76,127
19088,note_off,212,0,0,,4,,,76,127
19088,note_off,0,0,0,,7,,,79,127
19088,note_off,0,0,0,,4,,,64,127
19088,note_off,0,0,0,,4,,,52,127
19089,note_on,1,0,0,,2,,,50,127
19089,note_on,0,0,0,,2,,,62,127
19089,note_on,0,0,0,,4,,,76,127
19089,note_on,0,0,0,,1,,,73,127
19195,note_off,106,0,0,,1,,,73,127
19196,note_on,1,0,0,,10,,,69,127
19300,note_off,104,0,0,,4,,,76,127
19301,note_off,1,0,0,,10,,,69,127
19301,note_off,0,0,0,,2,,,62,127
19301,note_off,0,0,0,,2,,,50,127
19302,note_on,1,0,0,,1,,,61,127
19302,note_on,0,0,0,,1,,,49,127
19302,note_on,0,0,0,,4,,,76,127
19302,note_on,0,0,0,,1,,,73,127
19514,note_off,212,0,0,,1,,,73,127
19514,note_off,0,0,0,,4,,,76,127
19514,note_off,0,0,0,,1,,,49,127
19514,note_off,0,0,0,,1,,,61,127
19515,note_on,1,0,0,,12,,,59,127
19515,note_on,0,0,0,,12,,,47,127
19515,note_on,0,0,0,,2,,,74,127
19515,note_on,0,0,0,,6,,,78,127
19727,note_off,212,0,0,,6,,,78,127
19727,note_off,0,0,0,,2,,,74,127
19727,note_off,0,0,0,,12,,,47,127
19727,note_off,0,0,0,,12,,,59,127
19728,note_on,1,0,0,,10,,,45,127
19728,note_on,0,0,0,,10,,,57,127
19728,note_on,0,0,0,,7,,,79,127
19834,note_off,106,0,0,,7,,,79,127
19835,note_on,1,0,0,,6,,,78,127
19941,note_off,106,0,0,,6,,,78,127
19942,note_on,1,0,0,,4,,,76,127
20048,note_off,106,0,0,,4,,,76,127
20049,note_on,1,0,0,,2,,,74,127
20155,note_off,106,0,0,,2,,,74,127
20155,note_off,0,0,0,,10,,,57,127
20155,note_off,0,0,0,,10,,,45,127
20156,note_on,1,0,0,,7,,,43,127
20156,note_on,0,0,0,,7,,,55,127
20156,note_on,0,0,0,,1,,,73,127
20262,note_off,106,0,0,,1,,,73,127
20263,note_on,1,0,0,,12,,,71,127
20369,note_off,106,0,0,,12,,,71,127
20370,note_on,1,0,0,,10,,,69,127
20476,note_off,106,0,0,,10,,,69,127
20477,note_on,1,0,0,,8,,,80,127
20583,note_off,106,0,0,,8,,,80,127
20583,note_off,0,0,0,,7,,,55,127
20583,note_off,0,0,0,,7,,,43,127
20584,note_on,1,0,0,,6,,,42,127
20584,note_on,0,0,0,,6,,,54,127
20584,note_on,0,0,0,,10,,,81,127
20690,note_off,106,0,0,,10,,,81,127
20691,note_on,1,0,0,,7,,,79,127
20797,note_off,106,0,0,,7,,,79,127
20798,note_on,1,0,0,,6,,,78,127
20904,note_off,106,0,0,,6,,,78,127
20905,note_on,1,0,0,,4,,,76,127
21011,note_off,106,0,0,,4,,,76,127
21012,note_on,1,0,0,,2,,,74,127
21118,note_off,106,0,0,,2,,,74,127
21119,note_on,1,0,0,,1,,,73,127
21225,note_off,106,0,0,,1,,,73,127
21226,note_on,1,0,0,,12,,,71,127
21332,note_off,106,0,0,,12,,,71,127
21333,note_on,1,0,0,,11,,,82,127
21439,note_off,106,0,0,,11,,,82,127
21439,note_off,0,0,0,,6,,,54,127
21439,note_off,0,0,0,,6,,,42,127
21440,note_on,1,0,0,,7,,,55,127
21440,note_on,0,0,0,,7,,,43,127
21440,note_on,0,0,0,,12,,,83,127
21546,note_off,106,0,0,,12,,,83,127
21547,note_on,1,0,0,,10,,,81,127
21653,note_off,106,0,0,,10,,,81,127
21654,note_on,1,0,0,,7,,,79,127
21760,note_off,106,0,0,,7,,,79,127
21761,note_on,1,0,0,,6,,,78,127
21867,note_off,106,0,0,,6,,,78,127
21868,note_on,1,0,0,,4,,,76,127
21974,note_off,106,0,0,,4,,,76,127
21975,note_on,1,0,0,,2,,,74,127
22081,note_off,106,0,0,,2,,,74,127
22082,note_on,1,0,0,,1,,,73,127
22188,note_off,106,0,0,,1,,,73,127
22189,note_on,1,0,0,,12,,,71,127
22295,note_off,106,0,0,,12,,,71,127
22295,note_off,0,0,0,,7,,,43,127
22295,note_off,0,0,0,,7,,,55,127
22296,note_on,1,0,0,,10,,,57,127
22296,note_on,0,0,0,,10,,,69,127
22402,note_off,106,0,0,,10,,,69,127
22403,note_on,1,0,0,,6,,,78,127
22509,note_off,106,0,0,,6,,,78,127
22510,note_on,1,0,0,,4,,,76,127
22616,note_off,106,0,0,,4,,,76,127
22617,note_on,1,0,0,,2,,,74,127
22723,note_off,106,0,0,,2,,,74,127
22724,note_on,1,0,0,,10,,,45,127
22724,note_on,0,0,0,,6,,,78,127
22776,note_off,52,0,0,,6,,,78,127
22777,note_on,1,0,0,,4,,,76,127
22829,note_off,52,0,0,,4,,,76,127
22830,note_on,1,0,0,,6,,,78,127
22882,note_off,52,0,0,,6,,,78,127
22883,note_on,1,0,0,,4,,,76,127
22935,note_off,52,0,0,,4,,,76,127
22936,note_on,1,0,0,,6,,,78,127
22988,note_off,52,0,0,,6,,,78,127
22989,note_on,1,0,0,,4,,,76,127
23041,note_off,52,0,0,,4,,,76,127
23042,note_on,1,0,0,,2,,,74,127
23094,note_off,52,0,0,,2,,,74,127
23095,note_on,1,0,0,,4,,,76,127
23147,note_off,52,0,0,,4,,,76,127
23147,note_off,0,0,0,,10,,,45,127
23147,note_off,0,0,0,,10,,,57,127
23148,note_on,1,0,0,,2,,,50,127
23148,note_on,0,0,0,,2,,,74,127
23360,note_off,212,0,0,,2,,,74,127
23361,note_on,1,0,0,,10,,,81,127
23467,note_off,106,0,0,,10,,,81,127
23468,note_off,1,0,0,,2,,,50,127
23468,note_on,0,0,0,,12,,,71,127
23574,note_off,106,0,0,,12,,,71,127
23575,note_on,1,0,0,,1,,,73,127
23787,note_off,212,0,0,,1,,,73,127
23788,note_on,1,0,0,,7,,,67,127
23788,note_on,0,0,0,,2,,,74,127
24000,note_off,212,0,0,,2,,,74,127
24000,note_off,0,0,0,,7,,,67,127
24001,note_on,1,0,0,,7,,,67,127
24001,note_on,0,0,0,,10,,,69,127
24213,note_off,212,0,0,,10,,,69,127
24213,note_off,0,0,0,,7,,,67,127
24214,note_on,1,0,0,,6,,,66,127
24214,note_on,0,0,0,,10,,,81,127
24320,note_off,106,0,0,,10,,,81,127
24321,note_on,1,0,0,,12,,,71,127
24427,note_off,106,0,0,,12,,,71,127
24428,note_on,1,0,0,,1,,,73,127
24535,note_off,107,0,0,,6,,,66,127
24641,note_off,106,0,0,,1,,,73,127
24642,note_on,1,0,0,,7,,,67,127
24642,note_on,0,0,0,,2,,,74,127
24854,note_off,212,0,0,,2,,,74,127
24854,note_off,0,0,0,,7,,,67,127
24855,note_on,1,0,0,,7,,,67,127
24855,note_on,0,0,0,,10,,,69,127
25067,note_off,212,0,0,,10,,,69,127
25067,note_off,0,0,0,,7,,,67,127
25068,note_on,1,0,0,,6,,,66,127
25068,note_on,0,0,0,,10,,,81,127
25174,note_off,106,0,0,,10,,,81,127
25175,note_on,1,0,0,,12,,,71,127
25281,note_off,106,0,0,,12,,,71,127
25282,note_on,1,0,0,,1,,,73,127
25389,note_off,107,0,0,,6,,,66,127
25495,note_off,106,0,0,,1,,,73,127
25496,note_on,1,0,0,,6,,,66,127
25496,note_on,0,0,0,,2,,,74,127
25708,note_off,212,0,0,,2,,,74,127
25708,note_off,0,0,0,,6,,,66,127
25709,note_on,1,0,0,,4,,,64,127
25709,note_on,0,0,0,,7,,,67,127
25815,note_off,106,0,0,,4,,,64,127
25816,note_on,1,0,0,,2,,,62,127
25922,note_off,106,0,0,,2,,,62,127
25922,note_off,0,0,0,,7,,,67,127
25923,note_on,1,0,0,,1,,,61,127
25923,note_on,0,0,0,,7,,,79,127
26029,note_off,106,0,0,,1,,,61,127
26030,note_on,1,0,0,,12,,,59,127
26136,note_off,106,0,0,,12,,,59,127
26137,note_on,1,0,0,,10,,,57,127
26243,note_off,106,0,0,,10,,,57,127
26244,note_on,1,0,0,,7,,,55,127
26350,note_off,106,0,0,,7,,,55,127
26351,note_on,1,0,0,,6,,,54,127
26457,note_off,106,0,0,,6,,,54,127
26458,note_on,1,0,0,,4,,,52,127
26564,note_off,106,0,0,,4,,,52,127
26564,note_off,0,0,0,,7,,,79,127
26565,note_on,1,0,0,,2,,,50,127
26565,note_on,0,0,0,,6,,,78,127
26671,note_off,106,0,0,,6,,,78,127
26672,note_on,1,0,0,,2,,,74,127
26778,note_off,106,0,0,,2,,,74,127
26779,note_on,1,0,0,,6,,,78,127
26885,note_off,106,0,0,,6,,,78,127
26886,note_on,1,0,0,,10,,,81,127
26992,note_off,106,0,0,,10,,,81,127
26993,note_on,1,0,0,,2,,,86,127
27099,note_off,106,0,0,,2,,,86,127
27100,note_off,1,0,0,,2,,,50,127
27100,note_on,0,0,0,,10,,,81,127
27206,note_off,106,0,0,,10,,,81,127
27207,note_on,1,0,0,,6,,,54,127
27207,note_on,0,0,0,,6,,,78,127
27313,note_off,106,0,0,,6,,,78,127
27314,note_on,1,0,0,,2,,,74,127
27420,note_off,106,0,0,,2,,,74,127
27420,note_off,0,0,0,,6,,,54,127
27421,note_on,1,0,0,,7,,,55,127
27421,note_on,0,0,0,,12,,,83,127
27527,note_off,106,0,0,,12,,,83,127
27528,note_on,1,0,0,,7,,,79,127
27634,note_off,106,0,0,,7,,,79,127
27635,note_on,1,0,0,,7,,,43,127
27635,note_on,0,0,0,,2,,,74,127
27741,note_off,106,0,0,,2,,,74,127
27742,note_on,1,0,0,,12,,,71,127
27844,note_off,102,0,0,,7,,,55,127
27847,note_off,3,0,0,,12,,,71,127
27847,note_off,0,0,0,,7,,,43,127
27848,note_on,1,0,0,,10,,,57,127
27848,note_on,0,0,0,,6,,,78,127
27900,note_off,52,0,0,,6,,,78,127
27901,note_on,1,0,0,,4,,,76,127
27953,note_off,52,0,0,,4,,,76,127
27954,note_on,1,0,0,,6,,,78,127
28006,note_off,52,0,0,,6,,,78,127
28007,note_on,1,0,0,,4,,,76,127
28059,note_off,52,0,0,,4,,,76,127
28060,note_on,1,0,0,,10,,,45,127
28060,note_on,0,0,0,,6,,,78,127
28112,note_off,52,0,0,,6,,,78,127
28113,note_on,1,0,0,,4,,,76,127
28165,note_off,52,0,0,,4,,,76,127
28166,note_off,1,0,0,,10,,,57,127
28166,note_on,0,0,0,,2,,,74,127
28218,note_off,52,0,0,,2,,,74,127
28219,note_on,1,0,0,,4,,,76,127
28271,note_off,52,0,0,,4,,,76,127
28271,note_off,0,0,0,,10,,,45,127
28272,note_on,1,0,0,,2,,,38,127
28272,note_on,0,0,0,,2,,,74,127
28484,note_off,212,0,0,,2,,,74,127
28485,note_on,1,0,0,,10,,,81,127
28591,note_off,106,0,0,,10,,,81,127
28592,note_off,1,0,0,,2,,,38,127
28592,note_on,0,0,0,,12,,,71,127
28698,note_off,106,0,0,,12,,,71,127
28699,note_on,1,0,0,,1,,,73,127
28911,note_off,212,0,0,,1,,,73,127
28912,note_on,1,0,0,,7,,,67,127
28912,note_on,0,0,0,,2,,,74,127
29124,note_off,212,0,0,,2,,,74,127
29124,note_off,0,0,0,,7,,,67,127
29125,note_on,1,0,0,,7,,,67,127
29125,note_on,0,0,0,,10,,,69,127
29337,note_off,212,0,0,,10,,,69,127
29337,note_off,0,0,0,,7,,,67,127
29338,note_on,1,0,0,,6,,,66,127
29338,note_on,0,0,0,,10,,,81,127
29444,note_off,106,0,0,,10,,,81,127
29445,note_on,1,0,0,,12,,,71,127
29551,note_off,106,0,0,,12,,,71,127
29552,note_on,1,0,0,,1,,,73,127
29659,note_off,107,0,0,,6,,,66,127
29765,note_off,106,0,0,,1,,,73,127
29766,note_on,1,0,0,,7,,,67,127
29766,note_on,0,0,0,,2,,,74,127
29978,note_off,212,0,0,,2,,,74,127
29978,note_off,0,0,0,,7,,,67,127
29979,note_on,1,0,0,,7,,,67,127
29979,note_on,0,0,0,,10,,,69,127
30191,note_off,212,0,0,,10,,,69,127
30191,note_off,0,0,0,,7,,,67,127
30192,note_on,1,0,0,,6,,,66,127
30192,note_on,0,0,0,,10,,,81,127
30298,note_off,106,0,0,,10,,,81,127
30299,note_on,1,0,0,,12,,,71,127
30405,note_off,106,0,0,,12,,,71,127
30406,note_on,1,0,0,,1,,,73,127
30513,note_off,107,0,0,,6,,,66,127
30619,note_off,106,0,0,,1,,,73,127
30620,note_on,1,0,0,,6,,,66,127
30620,note_on,0,0,0,,2,,,74,127
30832,note_off,212,0,0,,2,,,74,127
30832,note_off,0,0,0,,6,,,66,127
30833,note_on,1,0,0,,4,,,64,127
30833,note_on,0,0,0,,7,,,67,127
30939,note_off,106,0,0,,4,,,64,127
30940,note_on,1,0,0,,2,,,62,127
31046,note_off,106,0,0,,2,,,62,127
31046,note_off,0,0,0,,7,,,67,127
31047,note_on,1,0,0,,1,,,61,127
31047,note_on,0,0,0,,7,,,79,127
31153,note_off,106,0,0,,1,,,61,127
31154,note_on,1,0,0,,12,,,59,127
31260,note_off,106,0,0,,12,,,59,127
31261,note_on,1,0,0,,10,,,57,127
31367,note_off,106,0,0,,10,,,57,127
31368,note_on,1,0,0,,7,,,55,127
31474,note_off,106,0,0,,7,,,55,127
31475,note_on,1,0,0,,6,,,54,127
31581,note_off,106,0,0,,6,,,54,127
31582,note_on,1,0,0,,4,,,52,127
31688,note_off,106,0,0,,4,,,52,127
31688,note_off,0,0,0,,7,,,79,127
31689,note_on,1,0,0,,2,,,50,127
31689,note_on,0,0,0,,6,,,78,127
31795,note_off,106,0,0,,6,,,78,127
31796,note_on,1,0,0,,2,,,74,127
31902,note_off,106,0,0,,2,,,74,127
31903,note_on,1,0,0,,6,,,78,127
32009,note_off,106,0,0,,6,,,78,127
32010,note_on,1,0,0,,10,,,81,127
32116,note_off,106,0,0,,10,,,81,127
32117,note_on,1,0,0,,2,,,86,127
32223,note_off,106,0,0,,2,,,86,127
32224,note_off,1,0,0,,2,,,50,127
32224,note_on,0,0,0,,10,,,81,127
32330,note_off,106,0,0,,10,,,81,127
32331,note_on,1,0,0,,6,,,54,127
32331,note_on,0,0,0,,6,,,78,127
32437,note_off,106,0,0,,6,,,78,127
32438,note_on,1,0,0,,2,,,74,127
32544,note_off,106,0,0,,2,,,74,127
32544,note_off,0,0,0,,6,,,54,127
32545,note_on,1,0,0,,7,,,55,127
32545,note_on,0,0,0,,12,,,83,127
32651,note_off,106,0,0,,12,,,83,127
32652,note_on,1,0,0,,7,,,79,127
32758,note_off,106,0,0,,7,,,79,127
32759,note_on,1,0,0,,7,,,43,127
32759,note_on,0,0,0,,2,,,74,127
32865,note_off,106,0,0,,2,,,74,127
32866,note_on,1,0,0,,12,,,71,127
32968,note_off,102,0,0,,7,,,55,127
32971,note_off,3,0,0,,12,,,71,127
32971,note_off,0,0,0,,7,,,43,127
32972,note_on,1,0,0,,10,,,57,127
32972,note_on,0,0,0,,6,,,78,127
33024,note_off,52,0,0,,6,,,78,127
33025,note_on,1,0,0,,4,,,76,127
33077,note_off,52,0,0,,4,,,76,127
33078,note_on,1,0,0,,6,,,78,127
33130,note_off,52,0,0,,6,,,78,127
33131,note_on,1,0,0,,4,,,76,127
33183,note_off,52,0,0,,4,,,76,127
33184,note_on,1,0,0,,10,,,45,127
33184,note_on,0,0,0,,6,,,78,127
33236,note_off,52,0,0,,6,,,78,127
33237,note_on,1,0,0,,4,,,76,127
33289,note_off,52,0,0,,4,,,76,127
33290,note_on,1,0,0,,2,,,74,127
33342,note_off,52,0,0,,2,,,74,127
33343,note_on,1,0,0,,4,,,76,127
33392,note_off,49,0,0,,10,,,57,127
33395,note_off,3,0,0,,4,,,76,127
33395,note_off,0,0,0,,10,,,45,127
33396,note_on,1,0,0,,2,,,50,127
33396,note_on,0,0,0,,2,,,74,127
33502,note_off,106,0,0,,2,,,74,127
33503,note_on,1,0,0,,2,,,62,127
33609,note_off,106,0,0,,2,,,62,127
33610,note_on,1,0,0,,6,,,66,127
33716,note_off,106,0,0,,6,,,66,127
33717,note_on,1,0,0,,2,,,62,127
33823,note_off,106,0,0,,2,,,62,127
33824,note_on,1,0,0,,10,,,69,127
33930,note_off,106,0,0,,10,,,69,127
33931,note_on,1,0,0,,6,,,66,127
34037,note_off,106,0,0,,6,,,66,127
34037,note_off,0,0,0,,2,,,50,127
34038,note_on,1,0,0,,0,,,60,127
34038,note_on,0,0,0,,2,,,50,127
34038,note_on,0,0,0,,0,,,72,127
34144,note_off,106,0,0,,0,,,72,127
34145,note_on,1,0,0,,10,,,69,127
34251,note_off,106,0,0,,10,,,69,127
34251,note_off,0,0,0,,2,,,50,127
34251,note_off,0,0,0,,0,,,60,127
34252,note_on,1,0,0,,2,,,50,127
34252,note_on,0,0,0,,12,,,59,127
34252,note_on,0,0,0,,2,,,74,127
34358,note_off,106,0,0,,2,,,74,127
34359,note_on,1,0,0,,2,,,62,127
34465,note_off,106,0,0,,2,,,62,127
34466,note_on,1,0,0,,7,,,67,127
34572,note_off,106,0,0,,7,,,67,127
34573,note_on,1,0,0,,2,,,62,127
34679,note_off,106,0,0,,2,,,62,127
34680,note_on,1,0,0,,12,,,71,127
34786,note_off,106,0,0,,12,,,71,127
34787,note_on,1,0,0,,7,,,67,127
34893,note_off,106,0,0,,7,,,67,127
34893,note_off,0,0,0,,12,,,59,127
34893,note_off,0,0,0,,2,,,50,127
34894,note_on,1,0,0,,12,,,59,127
34894,note_on,0,0,0,,2,,,50,127
34894,note_on,0,0,0,,2,,,74,127
35000,note_off,106,0,0,,2,,,74,127
35001,note_on,1,0,0,,12,,,71,127
35107,note_off,106,0,0,,12,,,71,127
35107,note_off,0,0,0,,2,,,50,127
35107,note_off,0,0,0,,12,,,59,127
35108,note_on,1,0,0,,1,,,49,127
35108,note_on,0,0,0,,10,,,57,127
35108,note_on,0,0,0,,4,,,76,127
35214,note_off,106,0,0,,4,,,76,127
35215,note_on,1,0,0,,4,,,64,127
35321,note_off,106,0,0,,4,,,64,127
35322,note_on,1,0,0,,7,,,67,127
35428,note_off,106,0,0,,7,,,67,127
35429,note_on,1,0,0,,4,,,64,127
35535,note_off,106,0,0,,4,,,64,127
35535,note_off,0,0,0,,10,,,57,127
35535,note_off,0,0,0,,1,,,49,127
35536,note_on,1,0,0,,2,,,50,127
35536,note_on,0,0,0,,10,,,57,127
35536,note_on,0,0,0,,6,,,66,127
35642,note_off,106,0,0,,6,,,66,127
35643,note_on,1,0,0,,2,,,62,127
35749,note_off,106,0,0,,2,,,62,127
35750,note_on,1,0,0,,2,,,74,127
35856,note_off,106,0,0,,2,,,74,127
35857,note_on,1,0,0,,10,,,69,127
35963,note_off,106,0,0,,10,,,69,127
35963,note_off,0,0,0,,10,,,57,127
35963,note_off,0,0,0,,2,,,50,127
35964,note_on,1,0,0,,7,,,43,127
35964,note_on,0,0,0,,7,,,55,127
35964,note_on,0,0,0,,12,,,71,127
36070,note_off,106,0,0,,12,,,71,127
36071,note_on,1,0,0,,7,,,67,127
36177,note_off,106,0,0,,7,,,67,127
36178,note_on,1,0,0,,7,,,79,127
36284,note_off,106,0,0,,7,,,79,127
36285,note_on,1,0,0,,4,,,76,127
36391,note_off,106,0,0,,4,,,76,127
36391,note_off,0,0,0,,7,,,55,127
36391,note_off,0,0,0,,7,,,43,127
36392,note_on,1,0,0,,10,,,45,127
36392,note_on,0,0,0,,10,,,57,127
36392,note_on,0,0,0,,2,,,74,127
36604,note_off,212,0,0,,2,,,74,127
36605,note_on,1,0,0,,2,,,74,127
36657,note_off,52,0,0,,2,,,74,127
36658,note_on,1,0,0,,1,,,73,127
36710,note_off,52,0,0,,1,,,73,127
36711,note_on,1,0,0,,12,,,71,127
36763,note_off,52,0,0,,12,,,71,127
36764,note_on,1,0,0,,1,,,73,127
36816,note_off,52,0,0,,1,,,73,127
36816,note_off,0,0,0,,10,,,57,127
36816,note_off,0,0,0,,10,,,45,127
36817,note_on,1,0,0,,2,,,50,127
36817,note_on,0,0,0,,2,,,74,127
36923,note_off,106,0,0,,2,,,74,127
36924,note_on,1,0,0,,2,,,62,127
37030,note_off,106,0,0,,2,,,62,127
37031,note_on,1,0,0,,6,,,66,127
37137,note_off,106,0,0,,6,,,66,127
37138,note_on,1,0,0,,2,,,62,127
37244,note_off,106,0,0,,2,,,62,127
37245,note_on,1,0,0,,10,,,69,127
37351,note_off,106,0,0,,10,,,69,127
37352,note_on,1,0,0,,6,,,66,127
37458,note_off,106,0,0,,6,,,66,127
37458,note_off,0,0,0,,2,,,50,127
37459,note_on,1,0,0,,2,,,50,127
37459,note_on,0,0,0,,0,,,60,127
37459,note_on,0,0,0,,0,,,72,127
37565,note_off,106,0,0,,0,,,72,127
37566,note_on,1,0,0,,10,,,69,127
37672,note_off,106,0,0,,10,,,69,127
37672,note_off,0,0,0,,0,,,60,127
37672,note_off,0,0,0,,2,,,50,127
37673,note_on,1,0,0,,12,,,59,127
37673,note_on,0,0,0,,2,,,50,127
37673,note_on,0,0,0,,2,,,74,127
37779,note_off,106,0,0,,2,,,74,127
37780,note_on,1,0,0,,2,,,62,127
37886,note_off,106,0,0,,2,,,62,127
37887,note_on,1,0,0,,7,,,67,127
37993,note_off,106,0,0,,7,,,67,127
37994,note_on,1,0,0,,2,,,62,127
38100,note_off,106,0,0,,2,,,62,127
38101,note_on,1,0,0,,12,,,71,127
38207,note_off,106,0,0,,12,,,71,127
38208,note_on,1,0,0,,7,,,67,127
38314,note_off,106,0,0,,7,,,67,127
38314,note_off,0,0,0,,2,,,50,127
38314,note_off,0,0,0,,12,,,59,127
38315,note_on,1,0,0,,2,,,50,127
38315,note_on,0,0,0,,12,,,59,127
38315,note_on,0,0,0,,2,,,74,127
38421,note_off,106,0,0,,2,,,74,127
38422,note_on,1,0,0,,12,,,71,127
38528,note_off,106,0,0,,12,,,71,127
38528,note_off,0,0,0,,12,,,59,127
38528,note_off,0,0,0,,2,,,50,127
38529,note_on,1,0,0,,1,,,49,127
38529,note_on,0,0,0,,10,,,57,127
38529,note_on,0,0,0,,4,,,76,127
38635,note_off,106,0,0,,4,,,76,127
38636,note_on,1,0,0,,4,,,64,127
38742,note_off,106,0,0,,4,,,64,127
38743,note_on,1,0,0,,7,,,67,127
38849,note_off,106,0,0,,7,,,67,127
38850,note_on,1,0,0,,4,,,64,127
38956,note_off,106,0,0,,4,,,64,127
38956,note_off,0,0,0,,10,,,57,127
38956,note_off,0,0,0,,1,,,49,127
38957,note_on,1,0,0,,2,,,50,127
38957,note_on,0,0,0,,10,,,57,127
38957,note_on,0,0,0,,6,,,66,127
39063,note_off,106,0,0,,6,,,66,127
39064,note_on,1,0,0,,2,,,62,127
39170,note_off,106,0,0,,2,,,62,127
39171,note_on,1,0,0,,2,,,74,127
39277,note_off,106,0,0,,2,,,74,127
39278,note_on,1,0,0,,10,,,69,127
39384,note_off,106,0,0,,10,,,69,127
39384,note_off,0,0,0,,10,,,57,127
39384,note_off,0,0,0,,2,,,50,127
39385,note_on,1,0,0,,7,,,43,127
39385,note_on,0,0,0,,7,,,55,127
39385,note_on,0,0,0,,12,,,71,127
39491,note_off,106,0,0,,12,,,71,127
39492,note_on,1,0,0,,7,,,67,127
39598,note_off,106,0,0,,7,,,67,127
39599,note_on,1,0,0,,7,,,79,127
39705,note_off,106,0,0,,7,,,79,127
39706,note_on,1,0,0,,4,,,76,127
39812,note_off,106,0,0,,4,,,76,127
39812,note_off,0,0,0,,7,,,55,127
39812,note_off,0,0,0,,7,,,43,127
39813,note_on,1,0,0,,10,,,57,127
39813,note_on,0,0,0,,10,,,45,127
39813,note_on,0,0,0,,2,,,74,127
40025,note_off,212,0,0,,2,,,74,127
40026,note_on,1,0,0,,2,,,74,127
40078,note_off,52,0,0,,2,,,74,127
40079,note_on,1,0,0,,1,,,73,127
40131,note_off,52,0,0,,1,,,73,127
40132,note_on,1,0,0,,12,,,71,127
40184,note_off,52,0,0,,12,,,71,127
40185,note_on,1,0,0,,1,,,73,127
40237,note_off,52,0,0,,1,,,73,127
40237,note_off,0,0,0,,10,,,45,127
40237,note_off,0,0,0,,10,,,57,127
40238,note_on,1,0,0,,6,,,54,127
40238,note_on,0,0,0,,2,,,74,127
40344,note_off,106,0,0,,2,,,74,127
40345,note_on,1,0,0,,10,,,69,127
40451,note_off,106,0,0,,10,,,69,127
40451,note_off,0,0,0,,6,,,54,127
40452,note_on,1,0,0,,7,,,55,127
40452,note_on,0,0,0,,12,,,71,127
40558,note_off,106,0,0,,12,,,71,127
40559,note_on,1,0,0,,2,,,62,127
40665,note_off,106,0,0,,2,,,62,127
40665,note_off,0,0,0,,7,,,55,127
40666,note_on,1,0,0,,10,,,57,127
40666,note_on,0,0,0,,2,,,62,127
40878,note_off,212,0,0,,2,,,62,127
40879,note_on,1,0,0,,10,,,45,127
40879,note_on,0,0,0,,2,,,62,127
40931,note_off,52,0,0,,2,,,62,127
40932,note_on,1,0,0,,1,,,61,127
40984,note_off,52,0,0,,1,,,61,127
40985,note_off,1,0,0,,10,,,57,127
40985,note_on,0,0,0,,12,,,59,127
41037,note_off,52,0,0,,12,,,59,127
41038,note_on,1,0,0,,1,,,61,127
41090,note_off,52,0,0,,1,,,61,127
41090,note_off,0,0,0,,10,,,45,127
41091,note_on,1,0,0,,2,,,38,127
41091,note_on,0,0,0,,2,,,62,127
41730,note_off,639,0,0,,2,,,62,127
41943,note_off,213,0,0,,2,,,38,127
41944,note_on,1,0,0,,2,,,62,127
41944,note_on,0,0,0,,6,,,66,127
42156,note_off,212,0,0,,6,,,66,127
42157,note_on,1,0,0,,4,,,64,127
42263,note_off,106,0,0,,4,,,64,127
42264,note_on,1,0,0,,6,,,66,127
42370,note_off,106,0,0,,6,,,66,127
42371,note_on,1,0,0,,7,,,67,127
42477,note_off,106,0,0,,7,,,67,127
42478,note_on,1,0,0,,10,,,69,127
42584,note_off,106,0,0,,10,,,69,127
42584,note_off,0,0,0,,2,,,62,127
42585,note_on,1,0,0,,0,,,60,127
42585,note_on,0,0,0,,12,,,71,127
42691,note_off,106,0,0,,12,,,71,127
42692,note_on,1,0,0,,0,,,72,127
42798,note_off,106,0,0,,0,,,72,127
42798,note_off,0,0,0,,0,,,60,127
42799,note_on,1,0,0,,12,,,59,127
42799,note_on,0,0,0,,2,,,74,127
43012,note_on,213,0,0,,7,,,67,127
43221,note_off,209,0,0,,12,,,59,127
43224,note_off,3,0,0,,2,,,74,127
43225,note_on,1,0,0,,10,,,57,127
43225,note_on,0,0,0,,2,,,74,127
43277,note_off,52,0,0,,2,,,74,127
43278,note_on,1,0,0,,0,,,72,127
43330,note_off,52,0,0,,0,,,72,127
43331,note_on,1,0,0,,2,,,74,127
43383,note_off,52,0,0,,2,,,74,127
43384,note_on,1,0,0,,0,,,72,127
43433,note_off,49,0,0,,7,,,67,127
43436,note_off,3,0,0,,0,,,72,127
43437,note_on,1,0,0,,6,,,66,127
43437,note_on,0,0,0,,2,,,74,127
43489,note_off,52,0,0,,2,,,74,127
43490,note_on,1,0,0,,0,,,72,127
43542,note_off,52,0,0,,0,,,72,127
43543,note_on,1,0,0,,12,,,71,127
43595,note_off,52,0,0,,12,,,71,127
43596,note_on,1,0,0,,0,,,72,127
43636,note_off,40,0,0,,6,,,66,127
43645,note_off,9,0,0,,10,,,57,127
43648,note_off,3,0,0,,0,,,72,127
43649,note_on,1,0,0,,7,,,79,127
43862,note_on,213,0,0,,7,,,43,127
43862,note_on,0,0,0,,12,,,71,127
44074,note_off,212,0,0,,12,,,71,127
44074,note_off,0,0,0,,7,,,43,127
44075,note_on,1,0,0,,10,,,45,127
44075,note_on,0,0,0,,0,,,72,127
44287,note_off,212,0,0,,0,,,72,127
44287,note_off,0,0,0,,10,,,45,127
44287,note_off,0,0,0,,7,,,79,127
44288,note_on,1,0,0,,12,,,47,127
44288,note_on,0,0,0,,2,,,74,127
44288,note_on,0,0,0,,5,,,77,127
44500,note_off,212,0,0,,5,,,77,127
44500,note_off,0,0,0,,2,,,74,127
44500,note_off,0,0,0,,12,,,47,127
44501,note_on,1,0,0,,0,,,48,127
44501,note_on,0,0,0,,3,,,75,127
44501,note_on,0,0,0,,7,,,67,127
44713,note_off,212,0,0,,7,,,67,127
44713,note_off,0,0,0,,3,,,75,127
44713,note_off,0,0,0,,0,,,48,127
44714,note_on,1,0,0,,2,,,50,127
44714,note_on,0,0,0,,2,,,74,127
44714,note_on,0,0,0,,6,,,66,127
44926,note_off,212,0,0,,6,,,66,127
44926,note_off,0,0,0,,2,,,50,127
44927,note_on,1,0,0,,4,,,52,127
44927,note_on,0,0,0,,7,,,67,127
45136,note_off,209,0,0,,2,,,74,127
45139,note_off,3,0,0,,7,,,67,127
45139,note_off,0,0,0,,4,,,52,127
45140,note_on,1,0,0,,6,,,54,127
45140,note_on,0,0,0,,0,,,72,127
45140,note_on,0,0,0,,10,,,69,127
45352,note_off,212,0,0,,10,,,69,127
45352,note_off,0,0,0,,0,,,72,127
45352,note_off,0,0,0,,6,,,54,127
45353,note_on,1,0,0,,7,,,55,127
45353,note_on,0,0,0,,11,,,70,127
45353,note_on,0,0,0,,2,,,62,127
45565,note_off,212,0,0,,2,,,62,127
45565,note_off,0,0,0,,11,,,70,127
45565,note_off,0,0,0,,7,,,55,127
45566,note_on,1,0,0,,10,,,57,127
45566,note_on,0,0,0,,1,,,61,127
45566,note_on,0,0,0,,10,,,69,127
45778,note_off,212,0,0,,1,,,61,127
45778,note_off,0,0,0,,10,,,57,127
45779,note_on,1,0,0,,11,,,58,127
45779,note_on,0,0,0,,2,,,62,127
45988,note_off,209,0,0,,10,,,69,127
45991,note_off,3,0,0,,2,,,62,127
45991,note_off,0,0,0,,11,,,58,127
45992,note_on,1,0,0,,1,,,61,127
45992,note_on,0,0,0,,7,,,67,127
45992,note_on,0,0,0,,4,,,64,127
46204,note_off,212,0,0,,4,,,64,127
46204,note_off,0,0,0,,7,,,67,127
46204,note_off,0,0,0,,1,,,61,127
46205,note_on,1,0,0,,2,,,62,127
46205,note_on,0,0,0,,6,,,66,127
46417,note_off,212,0,0,,6,,,66,127
46418,note_on,1,0,0,,4,,,64,127
46524,note_off,106,0,0,,4,,,64,127
46525,note_on,1,0,0,,6,,,66,127
46631,note_off,106,0,0,,6,,,66,127
46632,note_on,1,0,0,,8,,,68,127
46738,note_off,106,0,0,,8,,,68,127
46739,note_on,1,0,0,,10,,,69,127
46845,note_off,106,0,0,,10,,,69,127
46845,note_off,0,0,0,,2,,,62,127
46846,note_on,1,0,0,,0,,,60,127
46846,note_on,0,0,0,,12,,,71,127
46952,note_off,106,0,0,,12,,,71,127
46953,note_on,1,0,0,,0,,,72,127
47059,note_off,106,0,0,,0,,,72,127
47059,note_off,0,0,0,,0,,,60,127
47060,note_on,1,0,0,,12,,,59,127
47060,note_on,0,0,0,,2,,,74,127
47272,note_off,212,0,0,,2,,,74,127
47272,note_off,0,0,0,,12,,,59,127
47273,note_on,1,0,0,,10,,,57,127
47273,note_on,0,0,0,,2,,,74,127
47485,note_off,212,0,0,,10,,,57,127
47486,note_on,1,0,0,,8,,,56,127
47698,note_off,212,0,0,,8,,,56,127
47698,note_off,0,0,0,,2,,,74,127
47699,note_on,1,0,0,,4,,,52,127
47699,note_on,0,0,0,,0,,,72,127
47805,note_off,106,0,0,,0,,,72,127
47806,note_on,1,0,0,,12,,,71,127
47899,note_off,93,0,0,,4,,,52,127
47911,note_off,12,0,0,,12,,,71,127
47912,note_on,1,0,0,,10,,,81,127
48125,note_on,213,0,0,,10,,,45,127
48125,note_on,0,0,0,,0,,,72,127
48337,note_off,212,0,0,,0,,,72,127
48337,note_off,0,0,0,,10,,,45,127
48338,note_on,1,0,0,,12,,,47,127
48338,note_on,0,0,0,,2,,,74,127
48550,note_off,212,0,0,,2,,,74,127
48550,note_off,0,0,0,,12,,,47,127
48550,note_off,0,0,0,,10,,,81,127
48551,note_on,1,0,0,,0,,,48,127
48551,note_on,0,0,0,,7,,,79,127
48551,note_on,0,0,0,,4,,,76,127
48763,note_off,212,0,0,,4,,,76,127
48763,note_off,0,0,0,,7,,,79,127
48763,note_off,0,0,0,,0,,,48,127
48764,note_on,1,0,0,,2,,,50,127
48764,note_on,0,0,0,,5,,,77,127
48764,note_on,0,0,0,,10,,,69,127
48976,note_off,212,0,0,,10,,,69,127
48976,note_off,0,0,0,,5,,,77,127
48976,note_off,0,0,0,,2,,,50,127
48977,note_on,1,0,0,,4,,,52,127
48977,note_on,0,0,0,,8,,,68,127
48977,note_on,0,0,0,,4,,,76,127
49189,note_off,212,0,0,,8,,,68,127
49189,note_off,0,0,0,,4,,,52,127
49190,note_on,1,0,0,,6,,,54,127
49190,note_on,0,0,0,,10,,,69,127
49399,note_off,209,0,0,,4,,,76,127
49402,note_off,3,0,0,,10,,,69,127
49402,note_off,0,0,0,,6,,,54,127
49403,note_on,1,0,0,,8,,,56,127
49403,note_on,0,0,0,,2,,,74,127
49403,note_on,0,0,0,,12,,,71,127
49615,note_off,212,0,0,,12,,,71,127
49615,note_off,0,0,0,,2,,,74,127
49615,note_off,0,0,0,,8,,,56,127
49616,note_on,1,0,0,,10,,,57,127
49616,note_on,0,0,0,,0,,,72,127
49616,note_on,0,0,0,,4,,,64,127
49828,note_off,212,0,0,,4,,,64,127
49828,note_off,0,0,0,,0,,,72,127
49828,note_off,0,0,0,,10,,,57,127
49829,note_on,1,0,0,,12,,,59,127
49829,note_on,0,0,0,,12,,,71,127
49829,note_on,0,0,0,,2,,,62,127
50041,note_off,212,0,0,,2,,,62,127
50041,note_off,0,0,0,,12,,,59,127
50042,note_on,1,0,0,,0,,,60,127
50042,note_on,0,0,0,,4,,,64,127
50251,note_off,209,0,0,,12,,,71,127
50254,note_off,3,0,0,,4,,,64,127
50254,note_off,0,0,0,,0,,,60,127
50255,note_on,1,0,0,,2,,,62,127
50255,note_on,0,0,0,,10,,,69,127
50255,note_on,0,0,0,,5,,,65,127
50467,note_off,212,0,0,,5,,,65,127
50467,note_off,0,0,0,,10,,,69,127
50467,note_off,0,0,0,,2,,,62,127
50468,note_on,1,0,0,,4,,,64,127
50468,note_on,0,0,0,,8,,,68,127
50680,note_off,212,0,0,,8,,,68,127
50681,note_on,1,0,0,,4,,,76,127
50785,note_off,104,0,0,,4,,,64,127
50786,note_off,1,0,0,,4,,,76,127
50787,note_on,1,0,0,,4,,,64,127
50893,note_off,106,0,0,,4,,,64,127
50894,note_on,1,0,0,,5,,,65,127
51106,note_off,212,0,0,,5,,,65,127
51107,note_on,1,0,0,,10,,,57,127
51107,note_on,0,0,0,,2,,,74,127
51319,note_off,212,0,0,,10,,,57,127
51320,note_on,1,0,0,,8,,,56,127
51320,note_on,0,0,0,,4,,,64,127
51529,note_off,209,0,0,,2,,,74,127
51532,note_off,3,0,0,,8,,,56,127
51533,note_on,1,0,0,,10,,,57,127
51533,note_on,0,0,0,,0,,,72,127
51637,note_off,104,0,0,,4,,,64,127
51638,note_off,1,0,0,,0,,,72,127
51639,note_on,1,0,0,,4,,,64,127
51745,note_off,106,0,0,,4,,,64,127
51746,note_on,1,0,0,,5,,,65,127
51958,note_off,212,0,0,,5,,,65,127
51958,note_off,0,0,0,,10,,,57,127
51959,note_on,1,0,0,,10,,,57,127
51959,note_on,0,0,0,,2,,,74,127
52171,note_off,212,0,0,,10,,,57,127
52172,note_on,1,0,0,,4,,,64,127
52172,note_on,0,0,0,,8,,,56,127
52381,note_off,209,0,0,,2,,,74,127
52384,note_off,3,0,0,,8,,,56,127
52385,note_on,1,0,0,,7,,,55,127
52385,note_on,0,0,0,,1,,,73,127
52491,note_off,106,0,0,,1,,,73,127
52492,note_on,1,0,0,,10,,,69,127
52594,note_off,102,0,0,,4,,,64,127
52597,note_off,3,0,0,,10,,,69,127
52597,note_off,0,0,0,,7,,,55,127
52598,note_on,1,0,0,,5,,,53,127
52598,note_on,0,0,0,,2,,,74,127
52810,note_off,212,0,0,,2,,,74,127
52810,note_off,0,0,0,,5,,,53,127
52811,note_on,1,0,0,,4,,,52,127
52811,note_on,0,0,0,,4,,,76,127
53023,note_off,212,0,0,,4,,,76,127
53023,note_off,0,0,0,,4,,,52,127
53024,note_on,1,0,0,,2,,,50,127
53024,note_on,0,0,0,,5,,,77,127
53236,note_off,212,0,0,,5,,,77,127
53236,note_off,0,0,0,,2,,,50,127
53237,note_on,1,0,0,,5,,,53,127
53237,note_on,0,0,0,,2,,,74,127
53343,note_off,106,0,0,,2,,,74,127
53344,note_on,1,0,0,,12,,,71,127
53450,note_off,106,0,0,,12,,,71,127
53450,note_off,0,0,0,,5,,,53,127
53451,note_on,1,0,0,,4,,,52,127
53451,note_on,0,0,0,,0,,,72,127
53663,note_off,212,0,0,,0,,,72,127
53663,note_off,0,0,0,,4,,,52,127
53664,note_on,1,0,0,,2,,,50,127
53664,note_on,0,0,0,,2,,,74,127
53864,note_off,200,0,0,,2,,,50,127
53876,note_off,12,0,0,,2,,,74,127
53877,note_on,1,0,0,,4,,,76,127
54089,note_off,212,0,0,,4,,,76,127
54090,note_on,1,0,0,,4,,,52,127
54090,note_on,0,0,0,,4,,,64,127
54090,note_on,0,0,0,,4,,,76,127
54090,note_on,0,0,0,,0,,,72,127
54196,note_off,106,0,0,,0,,,72,127
54197,note_on,1,0,0,,7,,,67,127
54303,note_off,106,0,0,,7,,,67,127
54304,note_on,1,0,0,,0,,,72,127
54513,note_off,209,0,0,,4,,,76,127
54516,note_off,3,0,0,,0,,,72,127
54516,note_off,0,0,0,,4,,,64,127
54516,note_off,0,0,0,,4,,,52,127
54517,note_on,1,0,0,,2,,,50,127
54517,note_on,0,0,0,,2,,,62,127
54517,note_on,0,0,0,,2,,,74,127
54517,note_on,0,0,0,,5,,,77,127
54729,note_off,212,0,0,,5,,,77,127
54729,note_off,0,0,0,,2,,,74,127
54729,note_off,0,0,0,,2,,,62,127
54729,note_off,0,0,0,,2,,,50,127
54730,note_on,1,0,0,,0,,,48,127
54730,note_on,0,0,0,,0,,,60,127
54730,note_on,0,0,0,,4,,,76,127
54730,note_on,0,0,0,,7,,,79,127
54942,note_off,212,0,0,,7,,,79,127
54942,note_off,0,0,0,,4,,,76,127
54942,note_off,0,0,0,,0,,,60,127
54942,note_off,0,0,0,,0,,,48,127
54943,note_on,1,0,0,,4,,,52,127
54943,note_on,0,0,0,,4,,,64,127
54943,note_on,0,0,0,,4,,,76,127
54943,note_on,0,0,0,,0,,,72,127
55049,note_off,106,0,0,,0,,,72,127
55050,note_on,1,0,0,,7,,,67,127
55156,note_off,106,0,0,,7,,,67,127
55157,note_on,1,0,0,,0,,,72,127
55366,note_off,209,0,0,,4,,,76,127
55369,note_off,3,0,0,,0,,,72,127
55369,note_off,0,0,0,,4,,,64,127
55369,note_off,0,0,0,,4,,,52,127
55370,note_on,1,0,0,,2,,,50,127
55370,note_on,0,0,0,,2,,,62,127
55370,note_on,0,0,0,,2,,,74,127
55370,note_on,0,0,0,,5,,,77,127
55582,note_off,212,0,0,,5,,,77,127
55582,note_off,0,0,0,,2,,,74,127
55582,note_off,0,0,0,,2,,,62,127
55582,note_off,0,0,0,,2,,,50,127
55583,note_on,1,0,0,,0,,,48,127
55583,note_on,0,0,0,,0,,,60,127
55583,note_on,0,0,0,,7,,,79,127
55583,note_on,0,0,0,,4,,,76,127
55795,note_off,212,0,0,,4,,,76,127
55795,note_off,0,0,0,,7,,,79,127
55795,note_off,0,0,0,,0,,,60,127
55795,note_off,0,0,0,,0,,,48,127
55796,note_on,1,0,0,,7,,,67,127
55796,note_on,0,0,0,,7,,,55,127
55796,note_on,0,0,0,,12,,,71,127
55796,note_on,0,0,0,,2,,,74,127
55902,note_off,106,0,0,,12,,,71,127
55902,note_off,0,0,0,,7,,,67,127
55903,note_on,1,0,0,,7,,,67,127
56007,note_off,104,0,0,,2,,,74,127
56008,note_off,1,0,0,,7,,,67,127
56008,note_off,0,0,0,,7,,,55,127
56009,note_on,1,0,0,,5,,,53,127
56009,note_on,0,0,0,,5,,,65,127
56009,note_on,0,0,0,,2,,,74,127
56009,note_on,0,0,0,,12,,,71,127
56221,note_off,212,0,0,,12,,,71,127
56221,note_off,0,0,0,,2,,,74,127
56221,note_off,0,0,0,,5,,,65,127
56221,note_off,0,0,0,,5,,,53,127
56222,note_on,1,0,0,,4,,,64,127
56222,note_on,0,0,0,,4,,,52,127
56222,note_on,0,0,0,,0,,,72,127
56222,note_on,0,0,0,,4,,,76,127
56434,note_off,212,0,0,,4,,,76,127
56434,note_off,0,0,0,,0,,,72,127
56434,note_off,0,0,0,,4,,,52,127
56434,note_off,0,0,0,,4,,,64,127
56435,note_on,1,0,0,,2,,,62,127
56435,note_on,0,0,0,,2,,,50,127
56435,note_on,0,0,0,,5,,,77,127
56435,note_on,0,0,0,,2,,,74,127
56647,note_off,212,0,0,,2,,,74,127
56647,note_off,0,0,0,,5,,,77,127
56647,note_off,0,0,0,,2,,,50,127
56647,note_off,0,0,0,,2,,,62,127
56648,note_on,1,0,0,,7,,,67,127
56648,note_on,0,0,0,,7,,,55,127
56648,note_on,0,0,0,,12,,,71,127
56648,note_on,0,0,0,,2,,,74,127
56754,note_off,106,0,0,,12,,,71,127
56754,note_off,0,0,0,,7,,,67,127
56755,note_on,1,0,0,,7,,,67,127
56861,note_off,106,0,0,,7,,,67,127
56861,note_off,0,0,0,,7,,,55,127
56862,note_on,1,0,0,,5,,,65,127
56862,note_on,0,0,0,,5,,,53,127
56862,note_on,0,0,0,,12,,,71,127
57071,note_off,209,0,0,,2,,,74,127
57074,note_off,3,0,0,,12,,,71,127
57074,note_off,0,0,0,,5,,,53,127
57074,note_off,0,0,0,,5,,,65,127
57075,note_on,1,0,0,,4,,,52,127
57075,note_on,0,0,0,,4,,,64,127
57075,note_on,0,0,0,,4,,,76,127
57075,note_on,0,0,0,,0,,,72,127
57287,note_off,212,0,0,,0,,,72,127
57287,note_off,0,0,0,,4,,,76,127
57287,note_off,0,0,0,,4,,,64,127
57287,note_off,0,0,0,,4,,,52,127
57288,note_on,1,0,0,,2,,,50,127
57288,note_on,0,0,0,,2,,,62,127
57288,note_on,0,0,0,,5,,,77,127
57288,note_on,0,0,0,,2,,,74,127
57500,note_off,212,0,0,,2,,,74,127
57500,note_off,0,0,0,,5,,,77,127
57500,note_off,0,0,0,,2,,,62,127
57500,note_off,0,0,0,,2,,,50,127
57501,note_on,1,0,0,,0,,,48,127
57501,note_on,0,0,0,,0,,,60,127
57501,note_on,0,0,0,,2,,,74,127
57501,note_on,0,0,0,,12,,,71,127
57607,note_off,106,0,0,,12,,,71,127
57608,note_on,1,0,0,,7,,,67,127
57712,note_off,104,0,0,,2,,,74,127
57713,note_off,1,0,0,,7,,,67,127
57713,note_off,0,0,0,,0,,,60,127
57713,note_off,0,0,0,,0,,,48,127
57714,note_on,1,0,0,,12,,,47,127
57714,note_on,0,0,0,,12,,,59,127
57714,note_on,0,0,0,,2,,,74,127
57714,note_on,0,0,0,,12,,,71,127
57926,note_off,212,0,0,,12,,,71,127
57926,note_off,0,0,0,,2,,,74,127
57926,note_off,0,0,0,,12,,,59,127
57926,note_off,0,0,0,,12,,,47,127
57927,note_on,1,0,0,,10,,,45,127
57927,note_on,0,0,0,,10,,,57,127
57927,note_on,0,0,0,,4,,,76,127
57927,note_on,0,0,0,,0,,,72,127
58139,note_off,212,0,0,,0,,,72,127
58139,note_off,0,0,0,,4,,,76,127
58139,note_off,0,0,0,,10,,,57,127
58139,note_off,0,0,0,,10,,,45,127
58140,note_on,1,0,0,,7,,,43,127
58140,note_on,0,0,0,,7,,,55,127
58140,note_on,0,0,0,,5,,,77,127
58246,note_off,106,0,0,,5,,,77,127
58247,note_on,1,0,0,,4,,,76,127
58353,note_off,106,0,0,,4,,,76,127
58354,note_on,1,0,0,,2,,,74,127
58460,note_off,106,0,0,,2,,,74,127
58461,note_on,1,0,0,,0,,,72,127
58567,note_off,106,0,0,,0,,,72,127
58567,note_off,0,0,0,,7,,,55,127
58567,note_off,0,0,0,,7,,,43,127
58568,note_on,1,0,0,,5,,,53,127
58568,note_on,0,0,0,,5,,,41,127
58568,note_on,0,0,0,,12,,,71,127
58674,note_off,106,0,0,,12,,,71,127
58675,note_on,1,0,0,,10,,,69,127
58781,note_off,106,0,0,,10,,,69,127
58782,note_on,1,0,0,,7,,,67,127
58888,note_off,106,0,0,,7,,,67,127
58889,note_on,1,0,0,,6,,,78,127
58995,note_off,106,0,0,,6,,,78,127
58995,note_off,0,0,0,,5,,,41,127
58995,note_off,0,0,0,,5,,,53,127
58996,note_on,1,0,0,,4,,,52,127
58996,note_on,0,0,0,,4,,,40,127
58996,note_on,0,0,0,,7,,,79,127
59102,note_off,106,0,0,,7,,,79,127
59103,note_on,1,0,0,,5,,,77,127
59209,note_off,106,0,0,,5,,,77,127
59210,note_on,1,0,0,,4,,,76,127
59316,note_off,106,0,0,,4,,,76,127
59317,note_on,1,0,0,,2,,,74,127
59423,note_off,106,0,0,,2,,,74,127
59424,note_on,1,0,0,,0,,,72,127
59530,note_off,106,0,0,,0,,,72,127
59531,note_on,1,0,0,,12,,,71,127
59637,note_off,106,0,0,,12,,,71,127
59638,note_on,1,0,0,,10,,,69,127
59744,note_off,106,0,0,,10,,,69,127
59745,note_on,1,0,0,,8,,,80,127
59851,note_off,106,0,0,,8,,,80,127
59851,note_off,0,0,0,,4,,,40,127
59851,note_off,0,0,0,,4,,,52,127
59852,note_on,1,0,0,,5,,,41,127
59852,note_on,0,0,0,,5,,,53,127
59852,note_on,0,0,0,,10,,,81,127
59958,note_off,106,0,0,,10,,,81,127
59959,note_on,1,0,0,,7,,,79,127
60065,note_off,106,0,0,,7,,,79,127
60066,note_on,1,0,0,,5,,,77,127
60172,note_off,106,0,0,,5,,,77,127
60173,note_on,1,0,0,,4,,,76,127
60279,note_off,106,0,0,,4,,,76,127
60280,note_on,1,0,0,,2,,,74,127
60386,note_off,106,0,0,,2,,,74,127
60387,note_on,1,0,0,,0,,,72,127
60493,note_off,106,0,0,,0,,,72,127
60494,note_on,1,0,0,,12,,,71,127
60600,note_off,106,0,0,,12,,,71,127
60601,note_on,1,0,0,,10,,,69,127
60707,note_off,106,0,0,,10,,,69,127
60707,note_off,0,0,0,,5,,,53,127
60707,note_off,0,0,0,,5,,,41,127
60708,note_on,1,0,0,,7,,,43,127
60708,note_on,0,0,0,,7,,,55,127
60708,note_on,0,0,0,,7,,,67,127
60814,note_off,106,0,0,,7,,,67,127
60815,note_on,1,0,0,,4,,,76,127
60921,note_off,106,0,0,,4,,,76,127
60922,note_on,1,0,0,,2,,,74,127
61028,note_off,106,0,0,,2,,,74,127
61029,note_on,1,0,0,,0,,,72,127
61135,note_off,106,0,0,,0,,,72,127
61136,note_on,1,0,0,,2,,,74,127
61243,note_off,107,0,0,,7,,,43,127
61349,note_off,106,0,0,,7,,,55,127
61350,note_on,1,0,0,,7,,,67,127
61350,note_on,0,0,0,,12,,,71,127
61562,note_off,212,0,0,,12,,,71,127
61562,note_off,0,0,0,,7,,,67,127
61563,note_on,1,0,0,,6,,,66,127
61563,note_on,0,0,0,,0,,,72,127
61669,note_off,106,0,0,,2,,,74,127
61670,note_on,1,0,0,,4,,,76,127
61776,note_off,106,0,0,,4,,,76,127
61776,note_off,0,0,0,,0,,,72,127
61776,note_off,0,0,0,,6,,,66,127
61777,note_on,1,0,0,,12,,,71,127
61777,note_on,0,0,0,,7,,,67,127
61777,note_on,0,0,0,,2,,,74,127
61883,note_off,106,0,0,,2,,,74,127
61884,note_on,1,0,0,,0,,,72,127
61990,note_off,106,0,0,,0,,,72,127
61991,note_on,1,0,0,,2,,,74,127
62098,note_off,107,0,0,,12,,,71,127
62200,note_off,102,0,0,,7,,,67,127
62204,note_on,4,0,0,,12,,,71,127
62204,note_on,0,0,0,,7,,,67,127
62416,note_off,212,0,0,,7,,,67,127
62416,note_off,0,0,0,,12,,,71,127
62417,note_on,1,0,0,,6,,,66,127
62417,note_on,0,0,0,,0,,,72,127
62523,note_off,106,0,0,,2,,,74,127
62524,note_on,1,0,0,,4,,,76,127
62630,note_off,106,0,0,,4,,,76,127
62630,note_off,0,0,0,,0,,,72,127
62630,note_off,0,0,0,,6,,,66,127
62631,note_on,1,0,0,,7,,,67,127
62631,note_on,0,0,0,,12,,,71,127
62631,note_on,0,0,0,,2,,,74,127
62737,note_off,106,0,0,,2,,,74,127
62738,note_on,1,0,0,,0,,,72,127
62844,note_off,106,0,0,,0,,,72,127
62845,note_on,1,0,0,,2,,,74,127
62952,note_off,107,0,0,,12,,,71,127
63054,note_off,102,0,0,,7,,,67,127
63058,note_on,4,0,0,,7,,,67,127
63058,note_on,0,0,0,,12,,,71,127
63270,note_off,212,0,0,,12,,,71,127
63270,note_off,0,0,0,,7,,,67,127
63271,note_on,1,0,0,,6,,,66,127
63271,note_on,0,0,0,,0,,,72,127
63377,note_off,106,0,0,,2,,,74,127
63378,note_on,1,0,0,,4,,,76,127
63484,note_off,106,0,0,,4,,,76,127
63484,note_off,0,0,0,,0,,,72,127
63484,note_off,0,0,0,,6,,,66,127
63485,note_on,1,0,0,,7,,,67,127
63485,note_on,0,0,0,,12,,,71,127
63485,note_on,0,0,0,,2,,,74,127
63591,note_off,106,0,0,,2,,,74,127
63592,note_on,1,0,0,,0,,,72,127
63698,note_off,106,0,0,,0,,,72,127
63699,note_on,1,0,0,,7,,,79,127
63805,note_off,106,0,0,,7,,,79,127
63806,note_on,1,0,0,,6,,,78,127
63912,note_off,106,0,0,,6,,,78,127
63912,note_off,0,0,0,,12,,,71,127
63912,note_off,0,0,0,,7,,,67,127
63913,note_on,1,0,0,,12,,,59,127
63913,note_on,0,0,0,,4,,,76,127
64019,note_off,106,0,0,,4,,,76,127
64020,note_on,1,0,0,,2,,,74,127
64126,note_off,106,0,0,,2,,,74,127
64126,note_off,0,0,0,,12,,,59,127
64127,note_on,1,0,0,,0,,,60,127
64127,note_on,0,0,0,,4,,,76,127
64233,note_off,106,0,0,,4,,,76,127
64234,note_on,1,0,0,,2,,,74,127
64340,note_off,106,0,0,,2,,,74,127
64340,note_off,0,0,0,,0,,,60,127
64341,note_on,1,0,0,,12,,,59,127
64341,note_on,0,0,0,,0,,,72,127
64447,note_off,106,0,0,,0,,,72,127
64448,note_on,1,0,0,,12,,,71,127
64554,note_off,106,0,0,,12,,,71,127
64554,note_off,0,0,0,,12,,,59,127
64555,note_on,1,0,0,,10,,,57,127
64555,note_on,0,0,0,,0,,,72,127
64661,note_off,106,0,0,,0,,,72,127
64662,note_on,1,0,0,,2,,,74,127
64768,note_off,106,0,0,,2,,,74,127
64768,note_off,0,0,0,,10,,,57,127
64769,note_on,1,0,0,,2,,,62,127
64769,note_on,0,0,0,,4,,,76,127
64875,note_off,106,0,0,,4,,,76,127
64876,note_on,1,0,0,,6,,,78,127
64982,note_off,106,0,0,,6,,,78,127
64982,note_off,0,0,0,,2,,,62,127
64983,note_on,1,0,0,,7,,,55,127
64983,note_on,0,0,0,,7,,,79,127
65195,note_off,212,0,0,,7,,,79,127
65196,note_on,1,0,0,,2,,,86,127
65302,note_off,106,0,0,,2,,,86,127
65303,note_off,1,0,0,,7,,,55,127
65303,note_on,0,0,0,,4,,,76,127
65409,note_off,106,0,0,,4,,,76,127
65410,note_on,1,0,0,,6,,,78,127
65622,note_off,212,0,0,,6,,,78,127
65623,note_on,1,0,0,,0,,,72,127
65623,note_on,0,0,0,,7,,,79,127
65835,note_off,212,0,0,,7,,,79,127
65835,note_off,0,0,0,,0,,,72,127
65836,note_on,1,0,0,,0,,,72,127
65836,note_on,0,0,0,,2,,,74,127
66048,note_off,212,0,0,,2,,,74,127
66048,note_off,0,0,0,,0,,,72,127
66049,note_on,1,0,0,,12,,,71,127
66049,note_on,0,0,0,,2,,,86,127
66155,note_off,106,0,0,,2,,,86,127
66156,note_on,1,0,0,,4,,,76,127
66262,note_off,106,0,0,,4,,,76,127
66263,note_on,1,0,0,,6,,,78,127
66370,note_off,107,0,0,,12,,,71,127
66476,note_off,106,0,0,,6,,,78,127
66477,note_on,1,0,0,,0,,,72,127
66477,note_on,0,0,0,,7,,,79,127
66689,note_off,212,0,0,,7,,,79,127
66689,note_off,0,0,0,,0,,,72,127
66690,note_on,1,0,0,,0,,,72,127
66690,note_on,0,0,0,,2,,,74,127
66902,note_off,212,0,0,,2,,,74,127
66902,note_off,0,0,0,,0,,,72,127
66903,note_on,1,0,0,,12,,,71,127
66903,note_on,0,0,0,,2,,,86,127
67009,note_off,106,0,0,,2,,,86,127
67010,note_on,1,0,0,,4,,,76,127
67116,note_off,106,0,0,,4,,,76,127
67117,note_on,1,0,0,,6,,,78,127
67224,note_off,107,0,0,,12,,,71,127
67330,note_off,106,0,0,,6,,,78,127
67331,note_on,1,0,0,,12,,,71,127
67331,note_on,0,0,0,,7,,,79,127
67543,note_off,212,0,0,,7,,,79,127
67543,note_off,0,0,0,,12,,,71,127
67544,note_on,1,0,0,,10,,,69,127
67544,note_on,0,0,0,,0,,,72,127
67650,note_off,106,0,0,,10,,,69,127
67651,note_on,1,0,0,,7,,,67,127
67757,note_off,106,0,0,,7,,,67,127
67757,note_off,0,0,0,,0,,,72,127
67758,note_on,1,0,0,,6,,,66,127
67758,note_on,0,0,0,,0,,,84,127
67864,note_off,106,0,0,,6,,,66,127
67865,note_on,1,0,0,,4,,,64,127
67971,note_off,106,0,0,,4,,,64,127
67972,note_on,1,0,0,,2,,,62,127
68078,note_off,106,0,0,,2,,,62,127
68079,note_on,1,0,0,,0,,,60,127
68185,note_off,106,0,0,,0,,,60,127
68186,note_on,1,0,0,,12,,,59,127
68292,note_off,106,0,0,,12,,,59,127
68293,note_on,1,0,0,,10,,,57,127
68399,note_off,106,0,0,,10,,,57,127
68399,note_off,0,0,0,,0,,,84,127
68400,note_on,1,0,0,,7,,,55,127
68400,note_on,0,0,0,,12,,,83,127
68506,note_off,106,0,0,,12,,,83,127
68507,note_on,1,0,0,,10,,,81,127
68613,note_off,106,0,0,,10,,,81,127
68614,note_on,1,0,0,,7,,,79,127
68720,note_off,106,0,0,,7,,,79,127
68721,note_on,1,0,0,,6,,,78,127
68827,note_off,106,0,0,,6,,,78,127
68828,note_on,1,0,0,,7,,,43,127
68828,note_on,0,0,0,,4,,,76,127
68934,note_off,106,0,0,,4,,,76,127
68935,note_on,1,0,0,,2,,,74,127
69041,note_off,106,0,0,,2,,,74,127
69042,note_on,1,0,0,,0,,,72,127
69148,note_off,106,0,0,,0,,,72,127
69149,note_on,1,0,0,,12,,,71,127
69255,note_off,106,0,0,,12,,,71,127
69255,note_off,0,0,0,,7,,,43,127
69255,note_off,0,0,0,,7,,,55,127
69256,note_on,1,0,0,,0,,,48,127
69256,note_on,0,0,0,,4,,,76,127
69362,note_off,106,0,0,,4,,,76,127
69363,note_on,1,0,0,,2,,,74,127
69469,note_off,106,0,0,,2,,,74,127
69470,note_on,1,0,0,,0,,,72,127
69576,note_off,106,0,0,,0,,,72,127
69577,note_on,1,0,0,,12,,,71,127
69683,note_off,106,0,0,,12,,,71,127
69684,note_on,1,0,0,,0,,,36,127
69684,note_on,0,0,0,,10,,,69,127
69790,note_off,106,0,0,,10,,,69,127
69791,note_on,1,0,0,,7,,,67,127
69897,note_off,106,0,0,,7,,,67,127
69898,note_on,1,0,0,,6,,,66,127
70004,note_off,106,0,0,,6,,,66,127
70005,note_on,1,0,0,,4,,,64,127
70111,note_off,106,0,0,,4,,,64,127
70111,note_off,0,0,0,,0,,,36,127
70111,note_off,0,0,0,,0,,,48,127
70112,note_on,1,0,0,,2,,,38,127
70112,note_on,0,0,0,,2,,,62,127
70324,note_off,212,0,0,,2,,,62,127
70325,note_on,1,0,0,,2,,,74,127
70431,note_off,106,0,0,,2,,,74,127
70432,note_off,1,0,0,,2,,,38,127
70432,note_on,0,0,0,,4,,,64,127
70538,note_off,106,0,0,,4,,,64,127
70539,note_on,1,0,0,,6,,,66,127
70751,note_off,212,0,0,,6,,,66,127
70752,note_on,1,0,0,,0,,,60,127
70752,note_on,0,0,0,,7,,,67,127
70964,note_off,212,0,0,,7,,,67,127
70964,note_off,0,0,0,,0,,,60,127
70965,note_on,1,0,0,,0,,,60,127
70965,note_on,0,0,0,,2,,,62,127
71177,note_off,212,0,0,,2,,,62,127
71177,note_off,0,0,0,,0,,,60,127
71178,note_on,1,0,0,,12,,,59,127
71178,note_on,0,0,0,,2,,,74,127
71284,note_off,106,0,0,,2,,,74,127
71285,note_on,1,0,0,,4,,,64,127
71391,note_off,106,0,0,,4,,,64,127
71392,note_on,1,0,0,,6,,,66,127
71499,note_off,107,0,0,,12,,,59,127
71605,note_off,106,0,0,,6,,,66,127
71606,note_on,1,0,0,,0,,,60,127
71606,note_on,0,0,0,,7,,,67,127
71818,note_off,212,0,0,,7,,,67,127
71818,note_off,0,0,0,,0,,,60,127
71819,note_on,1,0,0,,0,,,60,127
71819,note_on,0,0,0,,2,,,62,127
72031,note_off,212,0,0,,2,,,62,127
72031,note_off,0,0,0,,0,,,60,127
72032,note_on,1,0,0,,12,,,59,127
72032,note_on,0,0,0,,2,,,74,127
72138,note_off,106,0,0,,2,,,74,127
72139,note_on,1,0,0,,4,,,64,127
72245,note_off,106,0,0,,4,,,64,127
72246,note_on,1,0,0,,6,,,66,127
72353,note_off,107,0,0,,12,,,59,127
72459,note_off,106,0,0,,6,,,66,127
72460,note_on,1,0,0,,12,,,59,127
72460,note_on,0,0,0,,7,,,67,127
72672,note_off,212,0,0,,7,,,67,127
72672,note_off,0,0,0,,12,,,59,127
72673,note_on,1,0,0,,10,,,57,127
72673,note_on,0,0,0,,0,,,60,127
72779,note_off,106,0,0,,10,,,57,127
72780,note_on,1,0,0,,7,,,55,127
72886,note_off,106,0,0,,7,,,55,127
72886,note_off,0,0,0,,0,,,60,127
72887,note_on,1,0,0,,6,,,54,127
72887,note_on,0,0,0,,0,,,72,127
72993,note_off,106,0,0,,6,,,54,127
72994,note_on,1,0,0,,4,,,52,127
73100,note_off,106,0,0,,4,,,52,127
73101,note_on,1,0,0,,2,,,50,127
73207,note_off,106,0,0,,2,,,50,127
73208,note_on,1,0,0,,0,,,48,127
73314,note_off,106,0,0,,0,,,48,127
73315,note_on,1,0,0,,12,,,47,127
73421,note_off,106,0,0,,12,,,47,127
73422,note_on,1,0,0,,10,,,45,127
73528,note_off,106,0,0,,10,,,45,127
73528,note_off,0,0,0,,0,,,72,127
73529,note_on,1,0,0,,7,,,43,127
73529,note_on,0,0,0,,12,,,71,127
73635,note_off,106,0,0,,12,,,71,127
73636,note_on,1,0,0,,7,,,67,127
73742,note_off,106,0,0,,7,,,67,127
73743,note_on,1,0,0,,12,,,71,127
73849,note_off,106,0,0,,12,,,71,127
73850,note_on,1,0,0,,2,,,74,127
73956,note_off,106,0,0,,2,,,74,127
73957,note_on,1,0,0,,7,,,79,127
74063,note_off,106,0,0,,7,,,79,127
74064,note_on,1,0,0,,6,,,78,127
74170,note_off,106,0,0,,6,,,78,127
74170,note_off,0,0,0,,7,,,43,127
74171,note_on,1,0,0,,12,,,47,127
74171,note_on,0,0,0,,12,,,35,127
74171,note_on,0,0,0,,4,,,76,127
74277,note_off,106,0,0,,4,,,76,127
74278,note_on,1,0,0,,2,,,74,127
74384,note_off,106,0,0,,2,,,74,127
74384,note_off,0,0,0,,12,,,35,127
74384,note_off,0,0,0,,12,,,47,127
74385,note_on,1,0,0,,0,,,36,127
74385,note_on,0,0,0,,0,,,48,127
74385,note_on,0,0,0,,4,,,76,127
74491,note_off,106,0,0,,4,,,76,127
74492,note_on,1,0,0,,12,,,71,127
74598,note_off,106,0,0,,12,,,71,127
74599,note_on,1,0,0,,0,,,72,127
74705,note_off,106,0,0,,0,,,72,127
74706,note_on,1,0,0,,10,,,69,127
74812,note_off,106,0,0,,10,,,69,127
74812,note_off,0,0,0,,0,,,48,127
74812,note_off,0,0,0,,0,,,36,127
74813,note_on,1,0,0,,2,,,50,127
74813,note_on,0,0,0,,2,,,38,127
74813,note_on,0,0,0,,12,,,71,127
74919,note_off,106,0,0,,12,,,71,127
74920,note_on,1,0,0,,7,,,79,127
75026,note_off,106,0,0,,7,,,79,127
75027,note_on,1,0,0,,10,,,69,127
75133,note_off,106,0,0,,10,,,69,127
75134,note_on,1,0,0,,6,,,78,127
75240,note_off,106,0,0,,6,,,78,127
75240,note_off,0,0,0,,2,,,38,127
75240,note_off,0,0,0,,2,,,50,127
75241,note_on,1,0,0,,7,,,43,127
75241,note_on,0,0,0,,7,,,31,127
75241,note_on,0,0,0,,7,,,79,127
75347,note_off,106,0,0,,7,,,79,127
75348,note_on,1,0,0,,7,,,67,127
75454,note_off,106,0,0,,7,,,67,127
75455,note_on,1,0,0,,12,,,71,127
75561,note_off,106,0,0,,12,,,71,127
75562,note_on,1,0,0,,7,,,67,127
75668,note_off,106,0,0,,7,,,67,127
75669,note_on,1,0,0,,2,,,74,127
75775,note_off,106,0,0,,2,,,74,127
75776,note_on,1,0,0,,12,,,71,127
75882,note_off,106,0,0,,12,,,71,127
75882,note_off,0,0,0,,7,,,31,127
75882,note_off,0,0,0,,7,,,43,127
75883,note_on,1,0,0,,7,,,43,127
75883,note_on,0,0,0,,5,,,53,127
75883,note_on,0,0,0,,5,,,77,127
75989,note_off,106,0,0,,5,,,77,127
75990,note_on,1,0,0,,2,,,74,127
76096,note_off,106,0,0,,2,,,74,127
76096,note_off,0,0,0,,5,,,53,127
76096,note_off,0,0,0,,7,,,43,127
76097,note_on,1,0,0,,4,,,52,127
76097,note_on,0,0,0,,7,,,43,127
76097,note_on,0,0,0,,7,,,79,127
76203,note_off,106,0,0,,7,,,79,127
76204,note_on,1,0,0,,7,,,67,127
76310,note_off,106,0,0,,7,,,67,127
76311,note_on,1,0,0,,0,,,72,127
76417,note_off,106,0,0,,0,,,72,127
76418,note_on,1,0,0,,7,,,67,127
76524,note_off,106,0,0,,7,,,67,127
76525,note_on,1,0,0,,4,,,76,127
76631,note_off,106,0,0,,4,,,76,127
76632,note_on,1,0,0,,0,,,72,127
76738,note_off,106,0,0,,0,,,72,127
76738,note_off,0,0,0,,7,,,43,127
76738,note_off,0,0,0,,4,,,52,127
76739,note_on,1,0,0,,4,,,52,127
76739,note_on,0,0,0,,7,,,43,127
76739,note_on,0,0,0,,7,,,79,127
76845,note_off,106,0,0,,7,,,79,127
76846,note_on,1,0,0,,4,,,76,127
76952,note_off,106,0,0,,4,,,76,127
76952,note_off,0,0,0,,7,,,43,127
76952,note_off,0,0,0,,4,,,52,127
76953,note_on,1,0,0,,6,,,42,127
76953,note_on,0,0,0,,2,,,50,127
76953,note_on,0,0,0,,10,,,81,127
77059,note_off,106,0,0,,10,,,81,127
77060,note_on,1,0,0,,10,,,69,127
77166,note_off,106,0,0,,10,,,69,127
77167,note_on,1,0,0,,0,,,72,127
77273,note_off,106,0,0,,0,,,72,127
77274,note_on,1,0,0,,10,,,69,127
77380,note_off,106,0,0,,10,,,69,127
77380,note_off,0,0,0,,2,,,50,127
77380,note_off,0,0,0,,6,,,42,127
77381,note_on,1,0,0,,7,,,43,127
77381,note_on,0,0,0,,2,,,50,127
77381,note_on,0,0,0,,12,,,71,127
77487,note_off,106,0,0,,12,,,71,127
77488,note_on,1,0,0,,7,,,67,127
77594,note_off,106,0,0,,7,,,67,127
77595,note_on,1,0,0,,7,,,79,127
77701,note_off,106,0,0,,7,,,79,127
77702,note_on,1,0,0,,2,,,74,127
77808,note_off,106,0,0,,2,,,74,127
77808,note_off,0,0,0,,2,,,50,127
77808,note_off,0,0,0,,7,,,43,127
77809,note_on,1,0,0,,0,,,36,127
77809,note_on,0,0,0,,0,,,48,127
77809,note_on,0,0,0,,4,,,76,127
77915,note_off,106,0,0,,4,,,76,127
77916,note_on,1,0,0,,0,,,72,127
78022,note_off,106,0,0,,0,,,72,127
78023,note_on,1,0,0,,0,,,84,127
78129,note_off,106,0,0,,0,,,84,127
78130,note_on,1,0,0,,10,,,81,127
78236,note_off,106,0,0,,10,,,81,127
78236,note_off,0,0,0,,0,,,48,127
78236,note_off,0,0,0,,0,,,36,127
78237,note_on,1,0,0,,2,,,38,127
78237,note_on,0,0,0,,2,,,50,127
78237,note_on,0,0,0,,7,,,79,127
78449,note_off,212,0,0,,7,,,79,127
78450,note_on,1,0,0,,7,,,79,127
78502,note_off,52,0,0,,7,,,79,127
78503,note_on,1,0,0,,6,,,78,127
78555,note_off,52,0,0,,6,,,78,127
78556,note_on,1,0,0,,4,,,76,127
78608,note_off,52,0,0,,4,,,76,127
78609,note_on,1,0,0,,6,,,78,127
78661,note_off,52,0,0,,6,,,78,127
78661,note_off,0,0,0,,2,,,50,127
78661,note_off,0,0,0,,2,,,38,127
78662,note_on,1,0,0,,7,,,31,127
78662,note_on,0,0,0,,7,,,79,127
78768,note_off,106,0,0,,7,,,79,127
78769,note_on,1,0,0,,7,,,67,127
78875,note_off,106,0,0,,7,,,67,127
78876,note_on,1,0,0,,12,,,71,127
78982,note_off,106,0,0,,12,,,71,127
78983,note_on,1,0,0,,7,,,67,127
79089,note_off,106,0,0,,7,,,67,127
79090,note_on,1,0,0,,2,,,74,127
79196,note_off,106,0,0,,2,,,74,127
79197,note_off,1,0,0,,7,,,31,127
79197,note_on,0,0,0,,12,,,71,127
79303,note_off,106,0,0,,12,,,71,127
79304,note_on,1,0,0,,7,,,43,127
79304,note_on,0,0,0,,5,,,53,127
79304,note_on,0,0,0,,5,,,77,127
79410,note_off,106,0,0,,5,,,77,127
79411,note_on,1,0,0,,2,,,74,127
79517,note_off,106,0,0,,2,,,74,127
79517,note_off,0,0,0,,5,,,53,127
79517,note_off,0,0,0,,7,,,43,127
79518,note_on,1,0,0,,7,,,43,127
79518,note_on,0,0,0,,4,,,52,127
79518,note_on,0,0,0,,7,,,79,127
79624,note_off,106,0,0,,7,,,79,127
79625,note_on,1,0,0,,7,,,67,127
79731,note_off,106,0,0,,7,,,67,127
79732,note_on,1,0,0,,0,,,72,127
79838,note_off,106,0,0,,0,,,72,127
79839,note_on,1,0,0,,7,,,67,127
79945,note_off,106,0,0,,7,,,67,127
79946,note_on,1,0,0,,4,,,76,127
80052,note_off,106,0,0,,4,,,76,127
80053,note_on,1,0,0,,0,,,72,127
80159,note_off,106,0,0,,0,,,72,127
80159,note_off,0,0,0,,4,,,52,127
80159,note_off,0,0,0,,7,,,43,127
80160,note_on,1,0,0,,4,,,52,127
80160,note_on,0,0,0,,7,,,43,127
80160,note_on,0,0,0,,7,,,79,127
80266,note_off,106,0,0,,7,,,79,127
80267,note_on,1,0,0,,4,,,76,127
80373,note_off,106,0,0,,4,,,76,127
80373,note_off,0,0,0,,7,,,43,127
80373,note_off,0,0,0,,4,,,52,127
80374,note_on,1,0,0,,6,,,42,127
80374,note_on,0,0,0,,2,,,50,127
80374,note_on,0,0,0,,10,,,81,127
80480,note_off,106,0,0,,10,,,81,127
80481,note_on,1,0,0,,10,,,69,127
80587,note_off,106,0,0,,10,,,69,127
80588,note_on,1,0,0,,0,,,72,127
80694,note_off,106,0,0,,0,,,72,127
80695,note_on,1,0,0,,10,,,69,127
80801,note_off,106,0,0,,10,,,69,127
80801,note_off,0,0,0,,2,,,50,127
80801,note_off,0,0,0,,6,,,42,127
80802,note_on,1,0,0,,2,,,50,127
80802,note_on,0,0,0,,7,,,43,127
80802,note_on,0,0,0,,12,,,71,127
80908,note_off,106,0,0,,12,,,71,127
80909,note_on,1,0,0,,7,,,67,127
81015,note_off,106,0,0,,7,,,67,127
81016,note_on,1,0,0,,7,,,79,127
81122,note_off,106,0,0,,7,,,79,127
81123,note_on,1,0,0,,2,,,74,127
81229,note_off,106,0,0,,2,,,74,127
81229,note_off,0,0,0,,7,,,43,127
81229,note_off,0,0,0,,2,,,50,127
81230,note_on,1,0,0,,0,,,36,127
81230,note_on,0,0,0,,0,,,48,127
81230,note_on,0,0,0,,4,,,76,127
81336,note_off,106,0,0,,4,,,76,127
81337,note_on,1,0,0,,0,,,72,127
81443,note_off,106,0,0,,0,,,72,127
81444,note_on,1,0,0,,0,,,84,127
81550,note_off,106,0,0,,0,,,84,127
81551,note_on,1,0,0,,10,,,81,127
81657,note_off,106,0,0,,10,,,81,127
81657,note_off,0,0,0,,0,,,48,127
81657,note_off,0,0,0,,0,,,36,127
81658,note_on,1,0,0,,2,,,38,127
81658,note_on,0,0,0,,2,,,50,127
81658,note_on,0,0,0,,7,,,79,127
81870,note_off,212,0,0,,7,,,79,127
81871,note_on,1,0,0,,7,,,79,127
81923,note_off,52,0,0,,7,,,79,127
81924,note_on,1,0,0,,6,,,78,127
81976,note_off,52,0,0,,6,,,78,127
81977,note_on,1,0,0,,4,,,76,127
82029,note_off,52,0,0,,4,,,76,127
82030,note_on,1,0,0,,6,,,78,127
82082,note_off,52,0,0,,6,,,78,127
82082,note_off,0,0,0,,2,,,50,127
82082,note_off,0,0,0,,2,,,38,127
82083,note_on,1,0,0,,12,,,47,127
82083,note_on,0,0,0,,7,,,79,127
82189,note_off,106,0,0,,7,,,79,127
82190,note_on,1,0,0,,2,,,74,127
82296,note_off,106,0,0,,2,,,74,127
82296,note_off,0,0,0,,12,,,47,127
82297,note_on,1,0,0,,0,,,48,127
82297,note_on,0,0,0,,4,,,76,127
82403,note_off,106,0,0,,4,,,76,127
82404,note_on,1,0,0,,7,,,67,127
82510,note_off,106,0,0,,7,,,67,127
82510,note_off,0,0,0,,0,,,48,127
82511,note_on,1,0,0,,2,,,50,127
82511,note_on,0,0,0,,7,,,67,127
82723,note_off,212,0,0,,7,,,67,127
82724,note_on,1,0,0,,2,,,38,127
82724,note_on,0,0,0,,7,,,67,127
82776,note_off,52,0,0,,7,,,67,127
82777,note_on,1,0,0,,6,,,66,127
82829,note_off,52,0,0,,6,,,66,127
82830,note_off,1,0,0,,2,,,50,127
82830,note_on,0,0,0,,4,,,64,127
82882,note_off,52,0,0,,4,,,64,127
82883,note_on,1,0,0,,6,,,66,127
82935,note_off,52,0,0,,6,,,66,127
82935,note_off,0,0,0,,2,,,38,127
82945,note_on,10,0,0,,7,,,31,127
82945,note_on,0,0,0,,7,,,67,127
84749,note_off,1804,0,0,,7,,,67,127
84749,note_off,0,0,0,,7,,,31,127
86016,end_of_track,1267,1,0,,,,,,
