tick,type,time,meta,track,program,channel,pitch,tempo,note,velocity
0,copyright,0,1,0,,,,,,
0,program_change,0,0,0,6,0,,,,
0,pitchwheel,0,0,0,,0,0,,,
0,program_change,0,0,0,6,1,,,,
0,pitchwheel,0,0,0,,1,-590,,,
0,program_change,0,0,0,6,2,,,,
0,pitchwheel,0,0,0,,2,-272,,,
0,program_change,0,0,0,6,3,,,,
0,pitchwheel,0,0,0,,3,-353,,,
0,program_change,0,0,0,6,4,,,,
0,pitchwheel,0,0,0,,4,-560,,,
0,program_change,0,0,0,6,5,,,,
0,pitchwheel,0,0,0,,5,-80,,,
0,program_change,0,0,0,6,6,,,,
0,pitchwheel,0,0,0,,6,-625,,,
0,program_change,0,0,0,6,7,,,,
0,pitchwheel,0,0,0,,7,-130,,,
0,program_change,0,0,0,6,8,,,,
0,pitchwheel,0,0,0,,8,-512,,,
0,program_change,0,0,0,6,10,,,,
0,pitchwheel,0,0,0,,10,-464,,,
0,program_change,0,0,0,6,11,,,,
0,pitchwheel,0,0,0,,11,-208,,,
0,program_change,0,0,0,6,12,,,,
0,pitchwheel,0,0,0,,12,-553,,,
0,set_tempo,0,1,0,,,,500000,,
92,note_on,92,0,0,,2,,,74,127
276,note_on,184,0,0,,7,,,67,127
459,note_off,183,0,0,,7,,,67,127
460,note_on,1,0,0,,12,,,71,127
643,note_off,183,0,0,,2,,,74,127
644,note_on,1,0,0,,2,,,74,127
707,note_off,63,0,0,,2,,,74,127
708,note_on,1,0,0,,0,,,72,127
736,note_off,28,0,0,,12,,,71,127
773,note_on,37,0,0,,2,,,74,127
775,note_off,2,0,0,,0,,,72,127
828,note_on,53,0,0,,10,,,69,127
839,note_on,11,0,0,,0,,,72,127
841,note_off,2,0,0,,2,,,74,127
904,note_on,63,0,0,,2,,,74,127
906,note_off,2,0,0,,0,,,72,127
969,note_on,63,0,0,,0,,,72,127
971,note_off,2,0,0,,2,,,74,127
1011,note_off,40,0,0,,10,,,69,127
1012,note_on,1,0,0,,6,,,66,127
1034,note_on,22,0,0,,2,,,74,127
1036,note_off,2,0,0,,0,,,72,127
1098,note_on,62,0,0,,0,,,72,127
1101,note_off,3,0,0,,2,,,74,127
1163,note_on,62,0,0,,2,,,74,127
1165,note_off,2,0,0,,0,,,72,127
1228,note_on,63,0,0,,0,,,72,127
1230,note_off,2,0,0,,2,,,74,127
1288,note_off,58,0,0,,6,,,66,127
1294,note_on,6,0,0,,12,,,71,127
1296,note_off,2,0,0,,0,,,72,127
1359,note_on,63,0,0,,0,,,72,127
1361,note_off,2,0,0,,12,,,71,127
1380,note_on,19,0,0,,7,,,67,127
1424,note_on,44,0,0,,12,,,71,127
1426,note_off,2,0,0,,0,,,72,127
1488,note_on,62,0,0,,0,,,72,127
1491,note_off,3,0,0,,12,,,71,127
1553,note_on,62,0,0,,12,,,71,127
1555,note_off,2,0,0,,0,,,72,127
1563,note_off,8,0,0,,7,,,67,127
1564,note_on,1,0,0,,12,,,59,127
1619,note_on,55,0,0,,0,,,72,127
1621,note_off,2,0,0,,12,,,71,127
1684,note_on,63,0,0,,12,,,71,127
1686,note_off,2,0,0,,0,,,72,127
1747,note_off,61,0,0,,12,,,71,127
1747,note_off,0,0,0,,12,,,59,127
1748,note_on,1,0,0,,0,,,60,127
1748,note_on,0,0,0,,4,,,76,127
1931,note_off,183,0,0,,4,,,76,127
1931,note_off,0,0,0,,0,,,60,127
1932,note_on,1,0,0,,2,,,62,127
1932,note_on,0,0,0,,10,,,69,127
2115,note_off,183,0,0,,10,,,69,127
2115,note_off,0,0,0,,2,,,62,127
2116,note_on,1,0,0,,2,,,50,127
2116,note_on,0,0,0,,0,,,72,127
2254,note_off,138,0,0,,0,,,72,127
2298,note_off,44,0,0,,2,,,50,127
2300,note_on,2,0,0,,2,,,74,127
2484,note_on,184,0,0,,7,,,67,127
2667,note_off,183,0,0,,7,,,67,127
2668,note_on,1,0,0,,12,,,71,127
2851,note_off,183,0,0,,2,,,74,127
2852,note_on,1,0,0,,2,,,74,127
2916,note_on,64,0,0,,0,,,72,127
2919,note_off,3,0,0,,2,,,74,127
2944,note_off,25,0,0,,12,,,71,127
2981,note_on,37,0,0,,2,,,74,127
2983,note_off,2,0,0,,0,,,72,127
3036,note_on,53,0,0,,10,,,69,127
3047,note_on,11,0,0,,0,,,72,127
3049,note_off,2,0,0,,2,,,74,127
3112,note_on,63,0,0,,2,,,74,127
3114,note_off,2,0,0,,0,,,72,127
3177,note_on,63,0,0,,0,,,72,127
3179,note_off,2,0,0,,2,,,74,127
3219,note_off,40,0,0,,10,,,69,127
3220,note_on,1,0,0,,6,,,66,127
3242,note_on,22,0,0,,2,,,74,127
3244,note_off,2,0,0,,0,,,72,127
3306,note_on,62,0,0,,0,,,72,127
3309,note_off,3,0,0,,2,,,74,127
3371,note_on,62,0,0,,2,,,74,127
3373,note_off,2,0,0,,0,,,72,127
3436,note_on,63,0,0,,0,,,72,127
3438,note_off,2,0,0,,2,,,74,127
3496,note_off,58,0,0,,6,,,66,127
3502,note_on,6,0,0,,12,,,71,127
3504,note_off,2,0,0,,0,,,72,127
3567,note_on,63,0,0,,0,,,72,127
3569,note_off,2,0,0,,12,,,71,127
3588,note_on,19,0,0,,7,,,67,127
3632,note_on,44,0,0,,12,,,71,127
3634,note_off,2,0,0,,0,,,72,127
3696,note_on,62,0,0,,0,,,72,127
3699,note_off,3,0,0,,12,,,71,127
3761,note_on,62,0,0,,12,,,71,127
3763,note_off,2,0,0,,0,,,72,127
3771,note_off,8,0,0,,7,,,67,127
3772,note_on,1,0,0,,12,,,59,127
3827,note_on,55,0,0,,0,,,72,127
3829,note_off,2,0,0,,12,,,71,127
3892,note_on,63,0,0,,12,,,71,127
3894,note_off,2,0,0,,0,,,72,127
3955,note_off,61,0,0,,12,,,71,127
3955,note_off,0,0,0,,12,,,59,127
3956,note_on,1,0,0,,0,,,60,127
3956,note_on,0,0,0,,4,,,76,127
4139,note_off,183,0,0,,4,,,76,127
4139,note_off,0,0,0,,0,,,60,127
4140,note_on,1,0,0,,2,,,62,127
4140,note_on,0,0,0,,10,,,69,127
4323,note_off,183,0,0,,10,,,69,127
4323,note_off,0,0,0,,2,,,62,127
4324,note_on,1,0,0,,2,,,50,127
4324,note_on,0,0,0,,0,,,72,127
4507,note_off,183,0,0,,0,,,72,127
4507,note_off,0,0,0,,2,,,50,127
4508,note_on,1,0,0,,7,,,55,127
4508,note_on,0,0,0,,12,,,71,127
4691,note_off,183,0,0,,12,,,71,127
4692,note_on,1,0,0,,2,,,74,127
4875,note_off,183,0,0,,2,,,74,127
4876,note_on,1,0,0,,7,,,79,127
5059,note_off,183,0,0,,7,,,79,127
5059,note_off,0,0,0,,7,,,55,127
5060,note_on,1,0,0,,2,,,50,127
5060,note_on,0,0,0,,6,,,78,127
5243,note_off,183,0,0,,6,,,78,127
5244,note_on,1,0,0,,10,,,69,127
5427,note_off,183,0,0,,10,,,69,127
5428,note_on,1,0,0,,0,,,72,127
5611,note_off,183,0,0,,0,,,72,127
5611,note_off,0,0,0,,2,,,50,127
5612,note_on,1,0,0,,12,,,71,127
5796,note_on,184,0,0,,7,,,55,127
5979,note_off,183,0,0,,7,,,55,127
5980,note_on,1,0,0,,2,,,62,127
6163,note_off,183,0,0,,2,,,62,127
6163,note_off,0,0,0,,12,,,71,127
6164,note_on,1,0,0,,0,,,60,127
6164,note_on,0,0,0,,10,,,69,127
6164,note_on,0,0,0,,6,,,66,127
6347,note_off,183,0,0,,0,,,60,127
6348,note_on,1,0,0,,10,,,57,127
6531,note_off,183,0,0,,10,,,57,127
6532,note_on,1,0,0,,2,,,50,127
6715,note_off,183,0,0,,2,,,50,127
6715,note_off,0,0,0,,6,,,66,127
6715,note_off,0,0,0,,10,,,69,127
6716,note_on,1,0,0,,7,,,55,127
6716,note_on,0,0,0,,12,,,59,127
6900,note_on,184,0,0,,12,,,71,127
7083,note_off,183,0,0,,12,,,71,127
7084,note_on,1,0,0,,2,,,74,127
7267,note_off,183,0,0,,2,,,74,127
7267,note_off,0,0,0,,12,,,59,127
7267,note_off,0,0,0,,7,,,55,127
7268,note_on,1,0,0,,10,,,57,127
7268,note_on,0,0,0,,0,,,60,127
7268,note_on,0,0,0,,0,,,72,127
7451,note_off,183,0,0,,0,,,72,127
7452,note_on,1,0,0,,10,,,69,127
7635,note_off,183,0,0,,10,,,69,127
7636,note_on,1,0,0,,6,,,66,127
7819,note_off,183,0,0,,6,,,66,127
7819,note_off,0,0,0,,0,,,60,127
7819,note_off,0,0,0,,10,,,57,127
7820,note_on,1,0,0,,12,,,59,127
7820,note_on,0,0,0,,2,,,62,127
7820,note_on,0,0,0,,7,,,67,127
8003,note_off,183,0,0,,7,,,67,127
8004,note_on,1,0,0,,2,,,74,127
8187,note_off,183,0,0,,2,,,74,127
8188,note_on,1,0,0,,6,,,78,127
8371,note_off,183,0,0,,6,,,78,127
8371,note_off,0,0,0,,2,,,62,127
8371,note_off,0,0,0,,12,,,59,127
8372,note_on,1,0,0,,1,,,61,127
8372,note_on,0,0,0,,4,,,64,127
8372,note_on,0,0,0,,4,,,76,127
8555,note_off,183,0,0,,4,,,76,127
8556,note_on,1,0,0,,1,,,73,127
8739,note_off,183,0,0,,1,,,73,127
8740,note_on,1,0,0,,10,,,69,127
8923,note_off,183,0,0,,10,,,69,127
8923,note_off,0,0,0,,4,,,64,127
8923,note_off,0,0,0,,1,,,61,127
8924,note_on,1,0,0,,10,,,81,127
9108,note_on,184,0,0,,2,,,62,127
9291,note_off,183,0,0,,2,,,62,127
9292,note_on,1,0,0,,6,,,66,127
9475,note_off,183,0,0,,10,,,81,127
9476,note_on,1,0,0,,10,,,81,127
9540,note_on,64,0,0,,7,,,79,127
9543,note_off,3,0,0,,10,,,81,127
9568,note_off,25,0,0,,6,,,66,127
9605,note_on,37,0,0,,10,,,81,127
9607,note_off,2,0,0,,7,,,79,127
9660,note_on,53,0,0,,4,,,64,127
9671,note_on,11,0,0,,7,,,79,127
9673,note_off,2,0,0,,10,,,81,127
9736,note_on,63,0,0,,10,,,81,127
9738,note_off,2,0,0,,7,,,79,127
9801,note_on,63,0,0,,7,,,79,127
9803,note_off,2,0,0,,10,,,81,127
9843,note_off,40,0,0,,4,,,64,127
9844,note_on,1,0,0,,1,,,61,127
9866,note_on,22,0,0,,10,,,81,127
9868,note_off,2,0,0,,7,,,79,127
9930,note_on,62,0,0,,7,,,79,127
9933,note_off,3,0,0,,10,,,81,127
9995,note_on,62,0,0,,10,,,81,127
9997,note_off,2,0,0,,7,,,79,127
10060,note_on,63,0,0,,7,,,79,127
10062,note_off,2,0,0,,10,,,81,127
10120,note_off,58,0,0,,1,,,61,127
10126,note_on,6,0,0,,6,,,78,127
10128,note_off,2,0,0,,7,,,79,127
10191,note_on,63,0,0,,7,,,79,127
10193,note_off,2,0,0,,6,,,78,127
10212,note_on,19,0,0,,2,,,62,127
10256,note_on,44,0,0,,6,,,78,127
10258,note_off,2,0,0,,7,,,79,127
10320,note_on,62,0,0,,7,,,79,127
10323,note_off,3,0,0,,6,,,78,127
10385,note_on,62,0,0,,6,,,78,127
10387,note_off,2,0,0,,7,,,79,127
10395,note_off,8,0,0,,2,,,62,127
10396,note_on,1,0,0,,2,,,50,127
10451,note_on,55,0,0,,7,,,79,127
10453,note_off,2,0,0,,6,,,78,127
10516,note_on,63,0,0,,6,,,78,127
10518,note_off,2,0,0,,7,,,79,127
10579,note_off,61,0,0,,6,,,78,127
10579,note_off,0,0,0,,2,,,50,127
10580,note_on,1,0,0,,7,,,55,127
10580,note_on,0,0,0,,4,,,76,127
10763,note_off,183,0,0,,4,,,76,127
10763,note_off,0,0,0,,7,,,55,127
10764,note_on,1,0,0,,10,,,57,127
10764,note_on,0,0,0,,2,,,74,127
10764,note_on,0,0,0,,6,,,78,127
10947,note_off,183,0,0,,6,,,78,127
10947,note_off,0,0,0,,2,,,74,127
10947,note_off,0,0,0,,10,,,57,127
10948,note_on,1,0,0,,10,,,45,127
10948,note_on,0,0,0,,7,,,79,127
10948,note_on,0,0,0,,1,,,73,127
11130,note_off,182,0,0,,10,,,45,127
11131,note_off,1,0,0,,1,,,73,127
11131,note_off,0,0,0,,7,,,79,127
11132,note_on,1,0,0,,10,,,81,127
11316,note_on,184,0,0,,2,,,62,127
11499,note_off,183,0,0,,2,,,62,127
11500,note_on,1,0,0,,6,,,66,127
11683,note_off,183,0,0,,10,,,81,127
11684,note_on,1,0,0,,10,,,81,127
11748,note_on,64,0,0,,7,,,79,127
11751,note_off,3,0,0,,10,,,81,127
11776,note_off,25,0,0,,6,,,66,127
11813,note_on,37,0,0,,10,,,81,127
11815,note_off,2,0,0,,7,,,79,127
11868,note_on,53,0,0,,4,,,64,127
11879,note_on,11,0,0,,7,,,79,127
11881,note_off,2,0,0,,10,,,81,127
11944,note_on,63,0,0,,10,,,81,127
11946,note_off,2,0,0,,7,,,79,127
12009,note_on,63,0,0,,7,,,79,127
12011,note_off,2,0,0,,10,,,81,127
12051,note_off,40,0,0,,4,,,64,127
12052,note_on,1,0,0,,1,,,61,127
12074,note_on,22,0,0,,10,,,81,127
12076,note_off,2,0,0,,7,,,79,127
12138,note_on,62,0,0,,7,,,79,127
12141,note_off,3,0,0,,10,,,81,127
12203,note_on,62,0,0,,10,,,81,127
12205,note_off,2,0,0,,7,,,79,127
12268,note_on,63,0,0,,7,,,79,127
12270,note_off,2,0,0,,10,,,81,127
12328,note_off,58,0,0,,1,,,61,127
12334,note_on,6,0,0,,6,,,78,127
12336,note_off,2,0,0,,7,,,79,127
12399,note_on,63,0,0,,7,,,79,127
12401,note_off,2,0,0,,6,,,78,127
12420,note_on,19,0,0,,2,,,62,127
12464,note_on,44,0,0,,6,,,78,127
12466,note_off,2,0,0,,7,,,79,127
12528,note_on,62,0,0,,7,,,79,127
12531,note_off,3,0,0,,6,,,78,127
12593,note_on,62,0,0,,6,,,78,127
12595,note_off,2,0,0,,7,,,79,127
12603,note_off,8,0,0,,2,,,62,127
12604,note_on,1,0,0,,2,,,50,127
12659,note_on,55,0,0,,7,,,79,127
12661,note_off,2,0,0,,6,,,78,127
12724,note_on,63,0,0,,6,,,78,127
12726,note_off,2,0,0,,7,,,79,127
12787,note_off,61,0,0,,6,,,78,127
12787,note_off,0,0,0,,2,,,50,127
12788,note_on,1,0,0,,7,,,55,127
12788,note_on,0,0,0,,4,,,76,127
12971,note_off,183,0,0,,4,,,76,127
12971,note_off,0,0,0,,7,,,55,127
12972,note_on,1,0,0,,10,,,57,127
12972,note_on,0,0,0,,2,,,74,127
12972,note_on,0,0,0,,6,,,78,127
13155,note_off,183,0,0,,6,,,78,127
13155,note_off,0,0,0,,2,,,74,127
13155,note_off,0,0,0,,10,,,57,127
13156,note_on,1,0,0,,10,,,45,127
13156,note_on,0,0,0,,1,,,73,127
13156,note_on,0,0,0,,7,,,79,127
13339,note_off,183,0,0,,7,,,79,127
13339,note_off,0,0,0,,1,,,73,127
13339,note_off,0,0,0,,10,,,45,127
13340,note_on,1,0,0,,2,,,50,127
13340,note_on,0,0,0,,2,,,74,127
13340,note_on,0,0,0,,6,,,78,127
13431,note_off,91,0,0,,6,,,78,127
13431,note_off,0,0,0,,2,,,74,127
13432,note_on,1,0,0,,4,,,76,127
13523,note_off,91,0,0,,4,,,76,127
13524,note_on,1,0,0,,2,,,74,127
13615,note_off,91,0,0,,2,,,74,127
13616,note_on,1,0,0,,1,,,73,127
13707,note_off,91,0,0,,1,,,73,127
13708,note_on,1,0,0,,12,,,71,127
13799,note_off,91,0,0,,12,,,71,127
13800,note_on,1,0,0,,10,,,69,127
13891,note_off,91,0,0,,10,,,69,127
13891,note_off,0,0,0,,2,,,50,127
13892,note_on,1,0,0,,7,,,43,127
13892,note_on,0,0,0,,7,,,67,127
13983,note_off,91,0,0,,7,,,67,127
13984,note_on,1,0,0,,6,,,66,127
14075,note_off,91,0,0,,6,,,66,127
14076,note_on,1,0,0,,4,,,64,127
14167,note_off,91,0,0,,4,,,64,127
14168,note_on,1,0,0,,2,,,62,127
14259,note_off,91,0,0,,2,,,62,127
14260,note_on,1,0,0,,1,,,61,127
14351,note_off,91,0,0,,1,,,61,127
14352,note_on,1,0,0,,12,,,59,127
14443,note_off,91,0,0,,12,,,59,127
14443,note_off,0,0,0,,7,,,43,127
14444,note_on,1,0,0,,10,,,45,127
14444,note_on,0,0,0,,12,,,59,127
14489,note_off,45,0,0,,12,,,59,127
14490,note_on,1,0,0,,10,,,57,127
14535,note_off,45,0,0,,10,,,57,127
14536,note_on,1,0,0,,12,,,59,127
14581,note_off,45,0,0,,12,,,59,127
14582,note_on,1,0,0,,10,,,57,127
15372,note_off,790,0,0,,10,,,57,127
15372,note_off,0,0,0,,10,,,45,127
16103,note_on,731,0,0,,5,,,65,127
16287,note_on,184,0,0,,10,,,57,127
16470,note_off,183,0,0,,10,,,57,127
16471,note_on,1,0,0,,2,,,62,127
16654,note_off,183,0,0,,5,,,65,127
16655,note_on,1,0,0,,8,,,68,127
16747,note_off,92,0,0,,2,,,62,127
16839,note_on,92,0,0,,10,,,57,127
17022,note_off,183,0,0,,10,,,57,127
17023,note_on,1,0,0,,4,,,64,127
17206,note_off,183,0,0,,8,,,68,127
17207,note_on,1,0,0,,10,,,69,127
17299,note_off,92,0,0,,4,,,64,127
17391,note_on,92,0,0,,10,,,57,127
17574,note_off,183,0,0,,10,,,57,127
17575,note_on,1,0,0,,5,,,65,127
17758,note_off,183,0,0,,10,,,69,127
17759,note_on,1,0,0,,1,,,73,127
17759,note_on,0,0,0,,11,,,70,127
17851,note_off,92,0,0,,5,,,65,127
17943,note_on,92,0,0,,10,,,57,127
18126,note_off,183,0,0,,10,,,57,127
18127,note_on,1,0,0,,7,,,67,127
18310,note_off,183,0,0,,7,,,67,127
18310,note_off,0,0,0,,11,,,70,127
18310,note_off,0,0,0,,1,,,73,127
18311,note_on,1,0,0,,2,,,74,127
18311,note_on,0,0,0,,10,,,69,127
18311,note_on,0,0,0,,5,,,65,127
18494,note_off,183,0,0,,5,,,65,127
18494,note_off,0,0,0,,2,,,74,127
18495,note_on,1,0,0,,4,,,76,127
18495,note_on,0,0,0,,4,,,64,127
18678,note_off,183,0,0,,4,,,64,127
18678,note_off,0,0,0,,4,,,76,127
18679,note_on,1,0,0,,5,,,77,127
18679,note_on,0,0,0,,2,,,62,127
18862,note_off,183,0,0,,2,,,62,127
18862,note_off,0,0,0,,10,,,69,127
18863,note_on,1,0,0,,8,,,68,127
18863,note_on,0,0,0,,4,,,40,127
19043,note_off,180,0,0,,5,,,77,127
19047,note_on,4,0,0,,4,,,76,127
19230,note_off,183,0,0,,4,,,76,127
19231,note_on,1,0,0,,2,,,74,127
19414,note_off,183,0,0,,2,,,74,127
19414,note_off,0,0,0,,4,,,40,127
19414,note_off,0,0,0,,8,,,68,127
19415,note_on,1,0,0,,10,,,69,127
19415,note_on,0,0,0,,1,,,73,127
19415,note_on,0,0,0,,10,,,33,127
19598,note_off,183,0,0,,1,,,73,127
19599,note_on,1,0,0,,2,,,74,127
19782,note_off,183,0,0,,2,,,74,127
19783,note_on,1,0,0,,4,,,76,127
19966,note_off,183,0,0,,10,,,33,127
19966,note_off,0,0,0,,10,,,69,127
19967,note_on,1,0,0,,7,,,67,127
20059,note_off,92,0,0,,4,,,76,127
20150,note_off,91,0,0,,7,,,67,127
20151,note_on,1,0,0,,5,,,65,127
20334,note_off,183,0,0,,5,,,65,127
20335,note_on,1,0,0,,4,,,64,127
20518,note_off,183,0,0,,4,,,64,127
20519,note_on,1,0,0,,5,,,65,127
20703,note_on,184,0,0,,10,,,57,127
20886,note_off,183,0,0,,10,,,57,127
20887,note_on,1,0,0,,2,,,62,127
21070,note_off,183,0,0,,5,,,65,127
21071,note_on,1,0,0,,8,,,68,127
21163,note_off,92,0,0,,2,,,62,127
21255,note_on,92,0,0,,10,,,57,127
21438,note_off,183,0,0,,10,,,57,127
21439,note_on,1,0,0,,4,,,64,127
21622,note_off,183,0,0,,8,,,68,127
21623,note_on,1,0,0,,10,,,69,127
21715,note_off,92,0,0,,4,,,64,127
21807,note_on,92,0,0,,10,,,57,127
21990,note_off,183,0,0,,10,,,57,127
21991,note_on,1,0,0,,5,,,65,127
22174,note_off,183,0,0,,10,,,69,127
22175,note_on,1,0,0,,11,,,70,127
22175,note_on,0,0,0,,1,,,73,127
22267,note_off,92,0,0,,5,,,65,127
22359,note_on,92,0,0,,10,,,57,127
22542,note_off,183,0,0,,10,,,57,127
22543,note_on,1,0,0,,7,,,67,127
22726,note_off,183,0,0,,7,,,67,127
22726,note_off,0,0,0,,1,,,73,127
22726,note_off,0,0,0,,11,,,70,127
22727,note_on,1,0,0,,10,,,69,127
22727,note_on,0,0,0,,2,,,74,127
22727,note_on,0,0,0,,5,,,65,127
22910,note_off,183,0,0,,5,,,65,127
22910,note_off,0,0,0,,2,,,74,127
22911,note_on,1,0,0,,4,,,76,127
22911,note_on,0,0,0,,4,,,64,127
23094,note_off,183,0,0,,4,,,64,127
23094,note_off,0,0,0,,4,,,76,127
23095,note_on,1,0,0,,5,,,77,127
23095,note_on,0,0,0,,2,,,62,127
23278,note_off,183,0,0,,2,,,62,127
23278,note_off,0,0,0,,10,,,69,127
23279,note_on,1,0,0,,8,,,68,127
23279,note_on,0,0,0,,4,,,40,127
23459,note_off,180,0,0,,5,,,77,127
23463,note_on,4,0,0,,4,,,76,127
23646,note_off,183,0,0,,4,,,76,127
23647,note_on,1,0,0,,2,,,74,127
23830,note_off,183,0,0,,2,,,74,127
23830,note_off,0,0,0,,4,,,40,127
23830,note_off,0,0,0,,8,,,68,127
23831,note_on,1,0,0,,7,,,67,127
23831,note_on,0,0,0,,4,,,76,127
23831,note_on,0,0,0,,10,,,33,127
24014,note_off,183,0,0,,4,,,76,127
24015,note_on,1,0,0,,5,,,77,127
24198,note_off,183,0,0,,5,,,77,127
24199,note_on,1,0,0,,7,,,79,127
24382,note_off,183,0,0,,10,,,33,127
24382,note_off,0,0,0,,7,,,67,127
24383,note_on,1,0,0,,1,,,73,127
24383,note_on,0,0,0,,10,,,33,127
24563,note_off,180,0,0,,7,,,79,127
24567,note_on,4,0,0,,5,,,77,127
24750,note_off,183,0,0,,5,,,77,127
24751,note_on,1,0,0,,4,,,76,127
24934,note_off,183,0,0,,4,,,76,127
24934,note_off,0,0,0,,10,,,33,127
24934,note_off,0,0,0,,1,,,73,127
24935,note_on,1,0,0,,2,,,74,127
24935,note_on,0,0,0,,5,,,77,127
24935,note_on,0,0,0,,2,,,38,127
25118,note_off,183,0,0,,5,,,77,127
25119,note_on,1,0,0,,7,,,79,127
25302,note_off,183,0,0,,7,,,79,127
25303,note_on,1,0,0,,10,,,81,127
25486,note_off,183,0,0,,2,,,38,127
25486,note_off,0,0,0,,2,,,74,127
25487,note_on,1,0,0,,5,,,41,127
25578,note_off,91,0,0,,10,,,81,127
25579,note_on,1,0,0,,7,,,79,127
25670,note_off,91,0,0,,7,,,79,127
25671,note_on,1,0,0,,5,,,77,127
25762,note_off,91,0,0,,5,,,77,127
25763,note_on,1,0,0,,4,,,76,127
25854,note_off,91,0,0,,4,,,76,127
25855,note_on,1,0,0,,2,,,74,127
25946,note_off,91,0,0,,2,,,74,127
25947,note_on,1,0,0,,0,,,72,127
26038,note_off,91,0,0,,0,,,72,127
26038,note_off,0,0,0,,5,,,41,127
26039,note_on,1,0,0,,11,,,70,127
26039,note_on,0,0,0,,7,,,43,127
26130,note_off,91,0,0,,11,,,70,127
26131,note_on,1,0,0,,10,,,69,127
26222,note_off,91,0,0,,10,,,69,127
26223,note_on,1,0,0,,7,,,67,127
26314,note_off,91,0,0,,7,,,67,127
26315,note_on,1,0,0,,5,,,77,127
26406,note_off,91,0,0,,5,,,77,127
26407,note_on,1,0,0,,4,,,76,127
26498,note_off,91,0,0,,4,,,76,127
26499,note_on,1,0,0,,2,,,74,127
26590,note_off,91,0,0,,2,,,74,127
26590,note_off,0,0,0,,7,,,43,127
26591,note_on,1,0,0,,2,,,74,127
26591,note_on,0,0,0,,10,,,45,127
26774,note_off,183,0,0,,2,,,74,127
26775,note_on,1,0,0,,2,,,74,127
26835,note_off,60,0,0,,2,,,74,127
26836,note_on,1,0,0,,1,,,73,127
26896,note_off,60,0,0,,1,,,73,127
26897,note_on,1,0,0,,2,,,74,127
26957,note_off,60,0,0,,2,,,74,127
26958,note_on,1,0,0,,1,,,73,127
27018,note_off,60,0,0,,1,,,73,127
27019,note_on,1,0,0,,12,,,71,127
27079,note_off,60,0,0,,12,,,71,127
27080,note_on,1,0,0,,1,,,73,127
27140,note_off,60,0,0,,1,,,73,127
27140,note_off,0,0,0,,10,,,45,127
27141,note_on,1,0,0,,2,,,74,127
27141,note_on,0,0,0,,2,,,38,127
27324,note_off,183,0,0,,2,,,74,127
27325,note_on,1,0,0,,10,,,69,127
27416,note_off,91,0,0,,10,,,69,127
27417,note_on,1,0,0,,6,,,78,127
27467,note_off,50,0,0,,2,,,38,127
27508,note_off,41,0,0,,6,,,78,127
27509,note_on,1,0,0,,4,,,76,127
27509,note_on,0,0,0,,2,,,50,127
27600,note_off,91,0,0,,4,,,76,127
27601,note_on,1,0,0,,2,,,74,127
27692,note_off,91,0,0,,2,,,74,127
27692,note_off,0,0,0,,2,,,50,127
27693,note_on,1,0,0,,10,,,81,127
27693,note_on,0,0,0,,1,,,49,127
27876,note_off,183,0,0,,1,,,49,127
27876,note_off,0,0,0,,10,,,81,127
27877,note_on,1,0,0,,10,,,69,127
27877,note_on,0,0,0,,10,,,45,127
27968,note_off,91,0,0,,10,,,69,127
27969,note_on,1,0,0,,7,,,79,127
28060,note_off,91,0,0,,7,,,79,127
28060,note_off,0,0,0,,10,,,45,127
28061,note_on,1,0,0,,6,,,78,127
28061,note_on,0,0,0,,7,,,55,127
28152,note_off,91,0,0,,6,,,78,127
28153,note_on,1,0,0,,4,,,76,127
28244,note_off,91,0,0,,4,,,76,127
28244,note_off,0,0,0,,7,,,55,127
28245,note_on,1,0,0,,2,,,74,127
28245,note_on,0,0,0,,6,,,54,127
28428,note_off,183,0,0,,6,,,54,127
28428,note_off,0,0,0,,2,,,74,127
28429,note_on,1,0,0,,10,,,69,127
28429,note_on,0,0,0,,2,,,50,127
28520,note_off,91,0,0,,10,,,69,127
28521,note_on,1,0,0,,6,,,78,127
28612,note_off,91,0,0,,6,,,78,127
28612,note_off,0,0,0,,2,,,50,127
28613,note_on,1,0,0,,4,,,76,127
28613,note_on,0,0,0,,2,,,62,127
28704,note_off,91,0,0,,4,,,76,127
28705,note_on,1,0,0,,2,,,74,127
28796,note_off,91,0,0,,2,,,74,127
28796,note_off,0,0,0,,2,,,62,127
28797,note_on,1,0,0,,10,,,81,127
28797,note_on,0,0,0,,1,,,61,127
28980,note_off,183,0,0,,1,,,61,127
28980,note_off,0,0,0,,10,,,81,127
28981,note_on,1,0,0,,10,,,69,127
28981,note_on,0,0,0,,10,,,57,127
29072,note_off,91,0,0,,10,,,69,127
29073,note_on,1,0,0,,7,,,79,127
29164,note_off,91,0,0,,7,,,79,127
29164,note_off,0,0,0,,10,,,57,127
29165,note_on,1,0,0,,6,,,78,127
29165,note_on,0,0,0,,1,,,61,127
29256,note_off,91,0,0,,6,,,78,127
29257,note_on,1,0,0,,4,,,76,127
29348,note_off,91,0,0,,4,,,76,127
29348,note_off,0,0,0,,1,,,61,127
29349,note_on,1,0,0,,2,,,74,127
29349,note_on,0,0,0,,2,,,62,127
29532,note_off,183,0,0,,2,,,74,127
29533,note_on,1,0,0,,10,,,69,127
29624,note_off,91,0,0,,10,,,69,127
29625,note_on,1,0,0,,6,,,78,127
29716,note_off,91,0,0,,6,,,78,127
29716,note_off,0,0,0,,2,,,62,127
29717,note_on,1,0,0,,4,,,76,127
29717,note_on,0,0,0,,2,,,50,127
29808,note_off,91,0,0,,4,,,76,127
29809,note_on,1,0,0,,2,,,74,127
29900,note_off,91,0,0,,2,,,74,127
29900,note_off,0,0,0,,2,,,50,127
29901,note_on,1,0,0,,10,,,81,127
29901,note_on,0,0,0,,6,,,54,127
29992,note_off,91,0,0,,10,,,81,127
29993,note_on,1,0,0,,7,,,79,127
30084,note_off,91,0,0,,7,,,79,127
30084,note_off,0,0,0,,6,,,54,127
30085,note_on,1,0,0,,6,,,78,127
30085,note_on,0,0,0,,2,,,50,127
30176,note_off,91,0,0,,6,,,78,127
30177,note_on,1,0,0,,4,,,76,127
30268,note_off,91,0,0,,4,,,76,127
30268,note_off,0,0,0,,2,,,50,127
30269,note_on,1,0,0,,2,,,74,127
30269,note_on,0,0,0,,6,,,54,127
30360,note_off,91,0,0,,2,,,74,127
30361,note_on,1,0,0,,1,,,73,127
30452,note_off,91,0,0,,1,,,73,127
30452,note_off,0,0,0,,6,,,54,127
30453,note_on,1,0,0,,12,,,71,127
30453,note_on,0,0,0,,7,,,55,127
30544,note_off,91,0,0,,12,,,71,127
30545,note_on,1,0,0,,10,,,69,127
30636,note_off,91,0,0,,10,,,69,127
30637,note_on,1,0,0,,7,,,67,127
30728,note_off,91,0,0,,7,,,67,127
30729,note_on,1,0,0,,7,,,79,127
30820,note_off,91,0,0,,7,,,79,127
30820,note_off,0,0,0,,7,,,55,127
30821,note_on,1,0,0,,6,,,78,127
30821,note_on,0,0,0,,7,,,43,127
30912,note_off,91,0,0,,6,,,78,127
30913,note_on,1,0,0,,4,,,76,127
31004,note_off,91,0,0,,4,,,76,127
31004,note_off,0,0,0,,7,,,43,127
31005,note_on,1,0,0,,2,,,74,127
31005,note_on,0,0,0,,10,,,45,127
31188,note_off,183,0,0,,2,,,74,127
31189,note_on,1,0,0,,2,,,74,127
31249,note_off,60,0,0,,2,,,74,127
31250,note_on,1,0,0,,1,,,73,127
31310,note_off,60,0,0,,1,,,73,127
31311,note_on,1,0,0,,2,,,74,127
31371,note_off,60,0,0,,2,,,74,127
31371,note_off,0,0,0,,10,,,45,127
31372,note_on,1,0,0,,1,,,73,127
31372,note_on,0,0,0,,10,,,33,127
31432,note_off,60,0,0,,1,,,73,127
31433,note_on,1,0,0,,12,,,71,127
31493,note_off,60,0,0,,12,,,71,127
31494,note_on,1,0,0,,1,,,73,127
31554,note_off,60,0,0,,1,,,73,127
31554,note_off,0,0,0,,10,,,33,127
31555,note_on,1,0,0,,2,,,74,127
31555,note_on,0,0,0,,2,,,38,127
31738,note_off,183,0,0,,2,,,74,127
31739,note_on,1,0,0,,10,,,69,127
31830,note_off,91,0,0,,10,,,69,127
31831,note_on,1,0,0,,6,,,78,127
31891,note_off,60,0,0,,2,,,38,127
31923,note_off,32,0,0,,6,,,78,127
31924,note_on,1,0,0,,4,,,76,127
31924,note_on,0,0,0,,2,,,50,127
32015,note_off,91,0,0,,4,,,76,127
32016,note_on,1,0,0,,2,,,74,127
32107,note_off,91,0,0,,2,,,74,127
32107,note_off,0,0,0,,2,,,50,127
32108,note_on,1,0,0,,10,,,81,127
32108,note_on,0,0,0,,1,,,49,127
32291,note_off,183,0,0,,1,,,49,127
32291,note_off,0,0,0,,10,,,81,127
32292,note_on,1,0,0,,10,,,69,127
32292,note_on,0,0,0,,10,,,45,127
32383,note_off,91,0,0,,10,,,69,127
32384,note_on,1,0,0,,7,,,79,127
32475,note_off,91,0,0,,7,,,79,127
32475,note_off,0,0,0,,10,,,45,127
32476,note_on,1,0,0,,6,,,78,127
32476,note_on,0,0,0,,7,,,55,127
32567,note_off,91,0,0,,6,,,78,127
32568,note_on,1,0,0,,4,,,76,127
32659,note_off,91,0,0,,4,,,76,127
32659,note_off,0,0,0,,7,,,55,127
32660,note_on,1,0,0,,2,,,74,127
32660,note_on,0,0,0,,6,,,54,127
32843,note_off,183,0,0,,6,,,54,127
32843,note_off,0,0,0,,2,,,74,127
32844,note_on,1,0,0,,10,,,69,127
32844,note_on,0,0,0,,2,,,50,127
32935,note_off,91,0,0,,10,,,69,127
32936,note_on,1,0,0,,6,,,78,127
33027,note_off,91,0,0,,6,,,78,127
33027,note_off,0,0,0,,2,,,50,127
33028,note_on,1,0,0,,4,,,76,127
33028,note_on,0,0,0,,2,,,62,127
33119,note_off,91,0,0,,4,,,76,127
33120,note_on,1,0,0,,2,,,74,127
33211,note_off,91,0,0,,2,,,74,127
33211,note_off,0,0,0,,2,,,62,127
33212,note_on,1,0,0,,10,,,81,127
33212,note_on,0,0,0,,1,,,61,127
33395,note_off,183,0,0,,1,,,61,127
33395,note_off,0,0,0,,10,,,81,127
33396,note_on,1,0,0,,10,,,69,127
33396,note_on,0,0,0,,10,,,57,127
33487,note_off,91,0,0,,10,,,69,127
33488,note_on,1,0,0,,7,,,79,127
33579,note_off,91,0,0,,7,,,79,127
33579,note_off,0,0,0,,10,,,57,127
33580,note_on,1,0,0,,6,,,78,127
33580,note_on,0,0,0,,1,,,61,127
33671,note_off,91,0,0,,6,,,78,127
33672,note_on,1,0,0,,4,,,76,127
33763,note_off,91,0,0,,4,,,76,127
33763,note_off,0,0,0,,1,,,61,127
33764,note_on,1,0,0,,2,,,74,127
33764,note_on,0,0,0,,2,,,62,127
33947,note_off,183,0,0,,2,,,74,127
33948,note_on,1,0,0,,10,,,69,127
34039,note_off,91,0,0,,10,,,69,127
34040,note_on,1,0,0,,6,,,78,127
34131,note_off,91,0,0,,6,,,78,127
34131,note_off,0,0,0,,2,,,62,127
34132,note_on,1,0,0,,4,,,76,127
34132,note_on,0,0,0,,2,,,50,127
34223,note_off,91,0,0,,4,,,76,127
34224,note_on,1,0,0,,2,,,74,127
34315,note_off,91,0,0,,2,,,74,127
34315,note_off,0,0,0,,2,,,50,127
34316,note_on,1,0,0,,10,,,81,127
34316,note_on,0,0,0,,6,,,54,127
34407,note_off,91,0,0,,10,,,81,127
34408,note_on,1,0,0,,7,,,79,127
34499,note_off,91,0,0,,7,,,79,127
34499,note_off,0,0,0,,6,,,54,127
34500,note_on,1,0,0,,6,,,78,127
34500,note_on,0,0,0,,2,,,50,127
34591,note_off,91,0,0,,6,,,78,127
34592,note_on,1,0,0,,4,,,76,127
34683,note_off,91,0,0,,4,,,76,127
34683,note_off,0,0,0,,2,,,50,127
34684,note_on,1,0,0,,2,,,74,127
34684,note_on,0,0,0,,6,,,54,127
34775,note_off,91,0,0,,2,,,74,127
34776,note_on,1,0,0,,1,,,73,127
34867,note_off,91,0,0,,1,,,73,127
34867,note_off,0,0,0,,6,,,54,127
34868,note_on,1,0,0,,12,,,71,127
34868,note_on,0,0,0,,7,,,43,127
34959,note_off,91,0,0,,12,,,71,127
34960,note_on,1,0,0,,10,,,69,127
35051,note_off,91,0,0,,10,,,69,127
35052,note_on,1,0,0,,7,,,67,127
35143,note_off,91,0,0,,7,,,67,127
35144,note_on,1,0,0,,6,,,66,127
35235,note_off,91,0,0,,6,,,66,127
35236,note_on,1,0,0,,4,,,64,127
35327,note_off,91,0,0,,4,,,64,127
35328,note_on,1,0,0,,2,,,62,127
35419,note_off,91,0,0,,2,,,62,127
35419,note_off,0,0,0,,7,,,43,127
35420,note_on,1,0,0,,1,,,61,127
35420,note_on,0,0,0,,10,,,45,127
35511,note_off,91,0,0,,1,,,61,127
35512,note_on,1,0,0,,12,,,59,127
35603,note_off,91,0,0,,12,,,59,127
35604,note_on,1,0,0,,10,,,57,127
35695,note_off,91,0,0,,10,,,57,127
35696,note_on,1,0,0,,7,,,55,127
35787,note_off,91,0,0,,7,,,55,127
35788,note_on,1,0,0,,6,,,54,127
35879,note_off,91,0,0,,6,,,54,127
35880,note_on,1,0,0,,4,,,52,127
35971,note_off,91,0,0,,4,,,52,127
35971,note_off,0,0,0,,10,,,45,127
35972,note_on,1,0,0,,4,,,52,127
35972,note_on,0,0,0,,2,,,38,127
36017,note_off,45,0,0,,4,,,52,127
36018,note_on,1,0,0,,2,,,50,127
36063,note_off,45,0,0,,2,,,50,127
36064,note_on,1,0,0,,4,,,52,127
36109,note_off,45,0,0,,4,,,52,127
36110,note_on,1,0,0,,2,,,50,127
36481,note_off,371,0,0,,2,,,38,127
36524,note_off,43,0,0,,2,,,50,127
36525,note_on,1,0,0,,2,,,74,127
36525,note_on,0,0,0,,6,,,66,127
36709,note_on,184,0,0,,2,,,50,127
36892,note_off,183,0,0,,2,,,50,127
36893,note_on,1,0,0,,2,,,62,127
37076,note_off,183,0,0,,6,,,66,127
37076,note_off,0,0,0,,2,,,74,127
37077,note_on,1,0,0,,2,,,74,127
37077,note_on,0,0,0,,7,,,67,127
37169,note_off,92,0,0,,2,,,62,127
37261,note_on,92,0,0,,4,,,52,127
37444,note_off,183,0,0,,4,,,52,127
37445,note_on,1,0,0,,2,,,62,127
37628,note_off,183,0,0,,7,,,67,127
37628,note_off,0,0,0,,2,,,74,127
37629,note_on,1,0,0,,10,,,69,127
37629,note_on,0,0,0,,2,,,74,127
37721,note_off,92,0,0,,2,,,62,127
37813,note_on,92,0,0,,6,,,54,127
37996,note_off,183,0,0,,6,,,54,127
37997,note_on,1,0,0,,2,,,62,127
38180,note_off,183,0,0,,2,,,74,127
38180,note_off,0,0,0,,10,,,69,127
38181,note_on,1,0,0,,2,,,74,127
38181,note_on,0,0,0,,12,,,71,127
38273,note_off,92,0,0,,2,,,62,127
38365,note_on,92,0,0,,8,,,56,127
38548,note_off,183,0,0,,8,,,56,127
38549,note_on,1,0,0,,4,,,64,127
38732,note_off,183,0,0,,4,,,64,127
38732,note_off,0,0,0,,12,,,71,127
38732,note_off,0,0,0,,2,,,74,127
38733,note_on,1,0,0,,0,,,72,127
38733,note_on,0,0,0,,10,,,69,127
38733,note_on,0,0,0,,10,,,57,127
38916,note_off,183,0,0,,10,,,69,127
38916,note_off,0,0,0,,0,,,72,127
38917,note_on,1,0,0,,2,,,74,127
38917,note_on,0,0,0,,12,,,71,127
39100,note_off,183,0,0,,12,,,71,127
39100,note_off,0,0,0,,2,,,74,127
39101,note_on,1,0,0,,0,,,72,127
39101,note_on,0,0,0,,4,,,76,127
39284,note_off,183,0,0,,4,,,76,127
39284,note_off,0,0,0,,0,,,72,127
39284,note_off,0,0,0,,10,,,57,127
39285,note_on,1,0,0,,8,,,68,127
39285,note_on,0,0,0,,12,,,71,127
39285,note_on,0,0,0,,2,,,50,127
39468,note_off,183,0,0,,12,,,71,127
39468,note_off,0,0,0,,8,,,68,127
39469,note_on,1,0,0,,0,,,72,127
39469,note_on,0,0,0,,10,,,69,127
39652,note_off,183,0,0,,10,,,69,127
39652,note_off,0,0,0,,0,,,72,127
39653,note_on,1,0,0,,12,,,71,127
39653,note_on,0,0,0,,2,,,74,127
39836,note_off,183,0,0,,2,,,50,127
39837,note_on,1,0,0,,4,,,52,127
40014,note_off,177,0,0,,2,,,74,127
40014,note_off,0,0,0,,12,,,71,127
40022,note_on,8,0,0,,10,,,69,127
40022,note_on,0,0,0,,0,,,72,127
40205,note_off,183,0,0,,0,,,72,127
40205,note_off,0,0,0,,10,,,69,127
40206,note_on,1,0,0,,8,,,68,127
40206,note_on,0,0,0,,12,,,71,127
40389,note_off,183,0,0,,4,,,52,127
40390,note_on,1,0,0,,4,,,40,127
40482,note_off,92,0,0,,12,,,71,127
40482,note_off,0,0,0,,8,,,68,127
40942,note_off,460,0,0,,4,,,40,127
40943,note_on,1,0,0,,4,,,76,127
40943,note_on,0,0,0,,8,,,68,127
41127,note_on,184,0,0,,4,,,52,127
41310,note_off,183,0,0,,4,,,52,127
41311,note_on,1,0,0,,4,,,64,127
41494,note_off,183,0,0,,8,,,68,127
41494,note_off,0,0,0,,4,,,76,127
41495,note_on,1,0,0,,11,,,70,127
41495,note_on,0,0,0,,4,,,76,127
41587,note_off,92,0,0,,4,,,64,127
41679,note_on,92,0,0,,6,,,54,127
41862,note_off,183,0,0,,6,,,54,127
41863,note_on,1,0,0,,4,,,64,127
42046,note_off,183,0,0,,4,,,76,127
42046,note_off,0,0,0,,11,,,70,127
42047,note_on,1,0,0,,12,,,71,127
42047,note_on,0,0,0,,4,,,76,127
42139,note_off,92,0,0,,4,,,64,127
42231,note_on,92,0,0,,8,,,56,127
42414,note_off,183,0,0,,8,,,56,127
42415,note_on,1,0,0,,4,,,64,127
42598,note_off,183,0,0,,4,,,76,127
42598,note_off,0,0,0,,12,,,71,127
42599,note_on,1,0,0,,1,,,73,127
42599,note_on,0,0,0,,4,,,76,127
42691,note_off,92,0,0,,4,,,64,127
42783,note_on,92,0,0,,11,,,58,127
42966,note_off,183,0,0,,11,,,58,127
42967,note_on,1,0,0,,6,,,66,127
43150,note_off,183,0,0,,6,,,66,127
43150,note_off,0,0,0,,4,,,76,127
43150,note_off,0,0,0,,1,,,73,127
43151,note_on,1,0,0,,2,,,74,127
43151,note_on,0,0,0,,12,,,71,127
43151,note_on,0,0,0,,12,,,59,127
43334,note_off,183,0,0,,12,,,71,127
43334,note_off,0,0,0,,2,,,74,127
43335,note_on,1,0,0,,1,,,73,127
43335,note_on,0,0,0,,4,,,76,127
43518,note_off,183,0,0,,4,,,76,127
43518,note_off,0,0,0,,1,,,73,127
43519,note_on,1,0,0,,2,,,74,127
43519,note_on,0,0,0,,6,,,78,127
43702,note_off,183,0,0,,6,,,78,127
43702,note_off,0,0,0,,2,,,74,127
43702,note_off,0,0,0,,12,,,59,127
43703,note_on,1,0,0,,1,,,73,127
43703,note_on,0,0,0,,11,,,70,127
43703,note_on,0,0,0,,4,,,52,127
43886,note_off,183,0,0,,11,,,70,127
43886,note_off,0,0,0,,1,,,73,127
43887,note_on,1,0,0,,2,,,74,127
43887,note_on,0,0,0,,12,,,71,127
44069,note_off,182,0,0,,12,,,71,127
44069,note_off,0,0,0,,2,,,74,127
44071,note_on,2,0,0,,1,,,73,127
44071,note_on,0,0,0,,4,,,76,127
44254,note_off,183,0,0,,4,,,52,127
44255,note_on,1,0,0,,6,,,54,127
44432,note_off,177,0,0,,4,,,76,127
44432,note_off,0,0,0,,1,,,73,127
44440,note_on,8,0,0,,2,,,74,127
44440,note_on,0,0,0,,12,,,71,127
44623,note_off,183,0,0,,12,,,71,127
44623,note_off,0,0,0,,2,,,74,127
44624,note_on,1,0,0,,1,,,73,127
44624,note_on,0,0,0,,11,,,70,127
44807,note_off,183,0,0,,6,,,54,127
44808,note_on,1,0,0,,6,,,42,127
44900,note_off,92,0,0,,11,,,70,127
44900,note_off,0,0,0,,1,,,73,127
45360,note_off,460,0,0,,6,,,42,127
45361,note_on,1,0,0,,6,,,78,127
45545,note_on,184,0,0,,12,,,71,127
45728,note_off,183,0,0,,12,,,71,127
45729,note_on,1,0,0,,2,,,74,127
45912,note_off,183,0,0,,6,,,78,127
45913,note_on,1,0,0,,6,,,78,127
45973,note_off,60,0,0,,6,,,78,127
45974,note_on,1,0,0,,4,,,76,127
46005,note_off,31,0,0,,2,,,74,127
46035,note_off,30,0,0,,4,,,76,127
46036,note_on,1,0,0,,6,,,78,127
46096,note_off,60,0,0,,6,,,78,127
46097,note_on,1,0,0,,4,,,76,127
46097,note_on,0,0,0,,1,,,73,127
46157,note_off,60,0,0,,4,,,76,127
46158,note_on,1,0,0,,6,,,78,127
46218,note_off,60,0,0,,6,,,78,127
46219,note_on,1,0,0,,4,,,76,127
46279,note_off,60,0,0,,4,,,76,127
46279,note_off,0,0,0,,1,,,73,127
46280,note_on,1,0,0,,6,,,78,127
46280,note_on,0,0,0,,11,,,70,127
46340,note_off,60,0,0,,6,,,78,127
46341,note_on,1,0,0,,4,,,76,127
46401,note_off,60,0,0,,4,,,76,127
46402,note_on,1,0,0,,6,,,78,127
46462,note_off,60,0,0,,6,,,78,127
46463,note_on,1,0,0,,4,,,76,127
46523,note_off,60,0,0,,4,,,76,127
46524,note_on,1,0,0,,2,,,74,127
46555,note_off,31,0,0,,11,,,70,127
46585,note_off,30,0,0,,2,,,74,127
46586,note_on,1,0,0,,4,,,76,127
46646,note_off,60,0,0,,4,,,76,127
46647,note_on,1,0,0,,2,,,74,127
46647,note_on,0,0,0,,12,,,71,127
46707,note_off,60,0,0,,2,,,74,127
46708,note_on,1,0,0,,4,,,76,127
46768,note_off,60,0,0,,4,,,76,127
46769,note_on,1,0,0,,2,,,74,127
46829,note_off,60,0,0,,2,,,74,127
46829,note_off,0,0,0,,12,,,71,127
46830,note_on,1,0,0,,4,,,76,127
46830,note_on,0,0,0,,2,,,62,127
46890,note_off,60,0,0,,4,,,76,127
46891,note_on,1,0,0,,2,,,74,127
46951,note_off,60,0,0,,2,,,74,127
46952,note_on,1,0,0,,4,,,76,127
47012,note_off,60,0,0,,4,,,76,127
47012,note_off,0,0,0,,2,,,62,127
47013,note_on,1,0,0,,2,,,74,127
47013,note_on,0,0,0,,4,,,64,127
47080,note_off,67,0,0,,2,,,74,127
47081,note_on,1,0,0,,1,,,73,127
47149,note_off,68,0,0,,1,,,73,127
47150,note_on,1,0,0,,2,,,74,127
47196,note_off,46,0,0,,4,,,64,127
47197,note_on,1,0,0,,6,,,66,127
47218,note_off,21,0,0,,2,,,74,127
47219,note_on,1,0,0,,1,,,73,127
47286,note_off,67,0,0,,1,,,73,127
47287,note_on,1,0,0,,2,,,74,127
47355,note_off,68,0,0,,2,,,74,127
47356,note_on,1,0,0,,1,,,73,127
47380,note_off,24,0,0,,6,,,66,127
47381,note_on,1,0,0,,6,,,54,127
47424,note_off,43,0,0,,1,,,73,127
47425,note_on,1,0,0,,2,,,74,127
47492,note_off,67,0,0,,2,,,74,127
47493,note_on,1,0,0,,1,,,73,127
47563,note_off,70,0,0,,6,,,54,127
47564,note_off,1,0,0,,1,,,73,127
47565,note_on,1,0,0,,6,,,78,127
47749,note_on,184,0,0,,12,,,71,127
47932,note_off,183,0,0,,12,,,71,127
47933,note_on,1,0,0,,2,,,74,127
48148,note_off,215,0,0,,6,,,78,127
48178,note_on,30,0,0,,4,,,76,127
48210,note_off,32,0,0,,2,,,74,127
48246,note_off,36,0,0,,4,,,76,127
48255,note_on,9,0,0,,6,,,78,127
48302,note_on,47,0,0,,0,,,72,127
48323,note_off,21,0,0,,6,,,78,127
48324,note_on,1,0,0,,4,,,76,127
48391,note_off,67,0,0,,4,,,76,127
48392,note_on,1,0,0,,6,,,78,127
48460,note_off,68,0,0,,6,,,78,127
48461,note_on,1,0,0,,4,,,76,127
48485,note_off,24,0,0,,0,,,72,127
48486,note_on,1,0,0,,10,,,69,127
48529,note_off,43,0,0,,4,,,76,127
48530,note_on,1,0,0,,6,,,78,127
48597,note_off,67,0,0,,6,,,78,127
48598,note_on,1,0,0,,4,,,76,127
48669,note_off,71,0,0,,4,,,76,127
48670,note_on,1,0,0,,3,,,75,127
48762,note_off,92,0,0,,10,,,69,127
48854,note_on,92,0,0,,12,,,71,127
49037,note_off,183,0,0,,12,,,71,127
49037,note_off,0,0,0,,3,,,75,127
49038,note_on,1,0,0,,12,,,83,127
49038,note_on,0,0,0,,7,,,67,127
49221,note_off,183,0,0,,12,,,83,127
49222,note_on,1,0,0,,0,,,72,127
49314,note_off,92,0,0,,7,,,67,127
49406,note_on,92,0,0,,10,,,69,127
49589,note_off,183,0,0,,10,,,69,127
49589,note_off,0,0,0,,0,,,72,127
49590,note_on,1,0,0,,10,,,81,127
49590,note_on,0,0,0,,6,,,66,127
49773,note_off,183,0,0,,10,,,81,127
49774,note_on,1,0,0,,12,,,71,127
49866,note_off,92,0,0,,6,,,66,127
49958,note_on,92,0,0,,3,,,63,127
50141,note_off,183,0,0,,3,,,63,127
50141,note_off,0,0,0,,12,,,71,127
50142,note_on,1,0,0,,7,,,79,127
50142,note_on,0,0,0,,4,,,64,127
50325,note_off,183,0,0,,7,,,79,127
50326,note_on,1,0,0,,10,,,69,127
50418,note_off,92,0,0,,4,,,64,127
50510,note_on,92,0,0,,0,,,60,127
50693,note_off,183,0,0,,0,,,60,127
50693,note_off,0,0,0,,10,,,69,127
50694,note_on,1,0,0,,6,,,78,127
50694,note_on,0,0,0,,2,,,62,127
50877,note_off,183,0,0,,6,,,78,127
50878,note_on,1,0,0,,7,,,67,127
50970,note_off,92,0,0,,2,,,62,127
51062,note_on,92,0,0,,12,,,59,127
51245,note_off,183,0,0,,12,,,59,127
51245,note_off,0,0,0,,7,,,67,127
51246,note_on,1,0,0,,4,,,76,127
51246,note_on,0,0,0,,0,,,60,127
51429,note_off,183,0,0,,4,,,76,127
51430,note_on,1,0,0,,6,,,66,127
51522,note_off,92,0,0,,0,,,60,127
51614,note_on,92,0,0,,10,,,57,127
51797,note_off,183,0,0,,10,,,57,127
51797,note_off,0,0,0,,6,,,66,127
51798,note_on,1,0,0,,2,,,74,127
51798,note_on,0,0,0,,12,,,59,127
51981,note_off,183,0,0,,2,,,74,127
51982,note_on,1,0,0,,4,,,64,127
52074,note_off,92,0,0,,12,,,59,127
52166,note_on,92,0,0,,7,,,55,127
52349,note_off,183,0,0,,7,,,55,127
52349,note_off,0,0,0,,4,,,64,127
52350,note_on,1,0,0,,0,,,72,127
52350,note_on,0,0,0,,10,,,57,127
52533,note_off,183,0,0,,10,,,57,127
52533,note_off,0,0,0,,0,,,72,127
52534,note_on,1,0,0,,2,,,62,127
52534,note_on,0,0,0,,6,,,54,127
52717,note_off,183,0,0,,6,,,54,127
52718,note_on,1,0,0,,7,,,55,127
52901,note_off,183,0,0,,7,,,55,127
52901,note_off,0,0,0,,2,,,62,127
52902,note_on,1,0,0,,12,,,71,127
52902,note_on,0,0,0,,7,,,43,127
53085,note_off,183,0,0,,7,,,43,127
53086,note_on,1,0,0,,0,,,36,127
53269,note_off,183,0,0,,12,,,71,127
53272,note_on,3,0,0,,10,,,69,127
53456,note_off,184,0,0,,10,,,69,127
53458,note_on,2,0,0,,7,,,67,127
53642,note_off,184,0,0,,7,,,67,127
53642,note_off,0,0,0,,0,,,36,127
53644,note_on,2,0,0,,0,,,48,127
53644,note_on,0,0,0,,6,,,66,127
53828,note_off,184,0,0,,6,,,66,127
53830,note_on,2,0,0,,10,,,69,127
54014,note_off,184,0,0,,10,,,69,127
54014,note_off,0,0,0,,0,,,48,127
54016,note_on,2,0,0,,12,,,47,127
54016,note_on,0,0,0,,7,,,67,127
54200,note_off,184,0,0,,7,,,67,127
54202,note_on,2,0,0,,6,,,66,127
54386,note_off,184,0,0,,6,,,66,127
54386,note_off,0,0,0,,12,,,47,127
54388,note_on,2,0,0,,10,,,45,127
54388,note_on,0,0,0,,4,,,64,127
54572,note_off,184,0,0,,4,,,64,127
54572,note_off,0,0,0,,10,,,45,127
54574,note_on,2,0,0,,7,,,43,127
54574,note_on,0,0,0,,2,,,62,127
54758,note_off,184,0,0,,2,,,62,127
54758,note_off,0,0,0,,7,,,43,127
54760,note_on,2,0,0,,10,,,57,127
54760,note_on,0,0,0,,2,,,38,127
54945,note_off,185,0,0,,10,,,57,127
54948,note_on,3,0,0,,2,,,62,127
55133,note_off,185,0,0,,2,,,62,127
55136,note_on,3,0,0,,12,,,59,127
55321,note_off,185,0,0,,12,,,59,127
55321,note_off,0,0,0,,2,,,38,127
55324,note_on,3,0,0,,0,,,60,127
55324,note_on,0,0,0,,2,,,38,127
55512,note_on,188,0,0,,6,,,54,127
55694,note_off,182,0,0,,0,,,60,127
55697,note_off,3,0,0,,6,,,54,127
55699,note_on,2,0,0,,7,,,55,127
55699,note_on,0,0,0,,12,,,59,127
55884,note_off,185,0,0,,12,,,59,127
55884,note_off,0,0,0,,7,,,55,127
55885,note_off,1,0,0,,2,,,38,127
55887,note_on,2,0,0,,2,,,38,127
55887,note_on,0,0,0,,6,,,54,127
55887,note_on,0,0,0,,10,,,57,127
56073,note_off,186,0,0,,10,,,57,127
56073,note_off,0,0,0,,6,,,54,127
56077,note_on,4,0,0,,2,,,62,127
56263,note_off,186,0,0,,2,,,62,127
56267,note_on,4,0,0,,12,,,59,127
56453,note_off,186,0,0,,12,,,59,127
56453,note_off,0,0,0,,2,,,38,127
56457,note_on,4,0,0,,2,,,38,127
56457,note_on,0,0,0,,0,,,60,127
56647,note_on,190,0,0,,6,,,54,127
56830,note_off,183,0,0,,0,,,60,127
56833,note_off,3,0,0,,6,,,54,127
56837,note_on,4,0,0,,7,,,55,127
56837,note_on,0,0,0,,12,,,59,127
57023,note_off,186,0,0,,12,,,59,127
57023,note_off,0,0,0,,7,,,55,127
57023,note_off,0,0,0,,2,,,38,127
57029,note_on,6,0,0,,10,,,57,127
57029,note_on,0,0,0,,6,,,54,127
57029,note_on,0,0,0,,2,,,38,127
57220,note_off,191,0,0,,6,,,54,127
57220,note_off,0,0,0,,10,,,57,127
57225,note_on,5,0,0,,7,,,55,127
57225,note_on,0,0,0,,12,,,59,127
57416,note_off,191,0,0,,12,,,59,127
57416,note_off,0,0,0,,7,,,55,127
57421,note_on,5,0,0,,10,,,57,127
57421,note_on,0,0,0,,1,,,61,127
57612,note_off,191,0,0,,1,,,61,127
57612,note_off,0,0,0,,10,,,57,127
57613,note_off,1,0,0,,2,,,38,127
57617,note_on,4,0,0,,12,,,59,127
57617,note_on,0,0,0,,2,,,62,127
57617,note_on,0,0,0,,2,,,38,127
57808,note_off,191,0,0,,2,,,62,127
57808,note_off,0,0,0,,12,,,59,127
57812,note_on,4,0,0,,4,,,64,127
57812,note_on,0,0,0,,1,,,61,127
58003,note_off,191,0,0,,1,,,61,127
58003,note_off,0,0,0,,4,,,64,127
58008,note_on,5,0,0,,7,,,55,127
58008,note_on,0,0,0,,1,,,61,127
58199,note_off,191,0,0,,1,,,61,127
58201,note_off,2,0,0,,2,,,38,127
58204,note_on,3,0,0,,2,,,62,127
58204,note_on,0,0,0,,2,,,38,127
58392,note_off,188,0,0,,7,,,55,127
58400,note_on,8,0,0,,6,,,54,127
58493,note_off,93,0,0,,6,,,54,127
58498,note_on,5,0,0,,4,,,52,127
58591,note_off,93,0,0,,4,,,52,127
58595,note_on,4,0,0,,2,,,50,127
58788,note_off,193,0,0,,2,,,62,127
59535,note_off,747,0,0,,2,,,50,127
59627,note_off,92,0,0,,2,,,38,127
59965,note_on,338,0,0,,11,,,70,127
60149,note_on,184,0,0,,2,,,62,127
60332,note_off,183,0,0,,2,,,62,127
60333,note_on,1,0,0,,7,,,67,127
60516,note_off,183,0,0,,11,,,70,127
60517,note_on,1,0,0,,1,,,73,127
60609,note_off,92,0,0,,7,,,67,127
60701,note_on,92,0,0,,2,,,62,127
60884,note_off,183,0,0,,2,,,62,127
60885,note_on,1,0,0,,10,,,69,127
61068,note_off,183,0,0,,1,,,73,127
61069,note_on,1,0,0,,2,,,74,127
61161,note_off,92,0,0,,10,,,69,127
61253,note_on,92,0,0,,2,,,62,127
61436,note_off,183,0,0,,2,,,62,127
61437,note_on,1,0,0,,11,,,70,127
61620,note_off,183,0,0,,2,,,74,127
61621,note_on,1,0,0,,3,,,75,127
61621,note_on,0,0,0,,6,,,78,127
61713,note_off,92,0,0,,11,,,70,127
61805,note_on,92,0,0,,2,,,62,127
61988,note_off,183,0,0,,2,,,62,127
61989,note_on,1,0,0,,0,,,72,127
62172,note_off,183,0,0,,0,,,72,127
62172,note_off,0,0,0,,6,,,78,127
62172,note_off,0,0,0,,3,,,75,127
62173,note_on,1,0,0,,2,,,74,127
62173,note_on,0,0,0,,7,,,79,127
62173,note_on,0,0,0,,11,,,70,127
62356,note_off,183,0,0,,11,,,70,127
62356,note_off,0,0,0,,7,,,79,127
62357,note_on,1,0,0,,10,,,81,127
62357,note_on,0,0,0,,10,,,69,127
62540,note_off,183,0,0,,10,,,69,127
62540,note_off,0,0,0,,10,,,81,127
62541,note_on,1,0,0,,11,,,82,127
62541,note_on,0,0,0,,7,,,67,127
62724,note_off,183,0,0,,7,,,67,127
62724,note_off,0,0,0,,2,,,74,127
62725,note_on,1,0,0,,1,,,73,127
62725,note_on,0,0,0,,10,,,45,127
62905,note_off,180,0,0,,11,,,82,127
62909,note_on,4,0,0,,10,,,81,127
63092,note_off,183,0,0,,10,,,81,127
63093,note_on,1,0,0,,7,,,79,127
63276,note_off,183,0,0,,7,,,79,127
63276,note_off,0,0,0,,10,,,45,127
63276,note_off,0,0,0,,1,,,73,127
63277,note_on,1,0,0,,2,,,74,127
63277,note_on,0,0,0,,6,,,78,127
63277,note_on,0,0,0,,2,,,38,127
63460,note_off,183,0,0,,6,,,78,127
63461,note_on,1,0,0,,7,,,79,127
63644,note_off,183,0,0,,7,,,79,127
63645,note_on,1,0,0,,10,,,81,127
63828,note_off,183,0,0,,2,,,38,127
63828,note_off,0,0,0,,2,,,74,127
63829,note_on,1,0,0,,0,,,72,127
63921,note_off,92,0,0,,10,,,81,127
64012,note_off,91,0,0,,0,,,72,127
64013,note_on,1,0,0,,11,,,70,127
64196,note_off,183,0,0,,11,,,70,127
64197,note_on,1,0,0,,10,,,69,127
64380,note_off,183,0,0,,10,,,69,127
64381,note_on,1,0,0,,11,,,70,127
64565,note_on,184,0,0,,2,,,62,127
64748,note_off,183,0,0,,2,,,62,127
64749,note_on,1,0,0,,7,,,67,127
64932,note_off,183,0,0,,11,,,70,127
64933,note_on,1,0,0,,1,,,73,127
65025,note_off,92,0,0,,7,,,67,127
65117,note_on,92,0,0,,2,,,62,127
65300,note_off,183,0,0,,2,,,62,127
65301,note_on,1,0,0,,10,,,69,127
65484,note_off,183,0,0,,1,,,73,127
65485,note_on,1,0,0,,2,,,74,127
65577,note_off,92,0,0,,10,,,69,127
65669,note_on,92,0,0,,2,,,62,127
65852,note_off,183,0,0,,2,,,62,127
65853,note_on,1,0,0,,11,,,70,127
66036,note_off,183,0,0,,2,,,74,127
66037,note_on,1,0,0,,3,,,75,127
66037,note_on,0,0,0,,6,,,78,127
66129,note_off,92,0,0,,11,,,70,127
66221,note_on,92,0,0,,2,,,62,127
66404,note_off,183,0,0,,2,,,62,127
66405,note_on,1,0,0,,0,,,72,127
66588,note_off,183,0,0,,0,,,72,127
66588,note_off,0,0,0,,6,,,78,127
66588,note_off,0,0,0,,3,,,75,127
66589,note_on,1,0,0,,2,,,74,127
66589,note_on,0,0,0,,7,,,79,127
66589,note_on,0,0,0,,11,,,70,127
66772,note_off,183,0,0,,11,,,70,127
66772,note_off,0,0,0,,7,,,79,127
66773,note_on,1,0,0,,10,,,81,127
66773,note_on,0,0,0,,10,,,69,127
66956,note_off,183,0,0,,10,,,69,127
66956,note_off,0,0,0,,10,,,81,127
66957,note_on,1,0,0,,11,,,82,127
66957,note_on,0,0,0,,7,,,67,127
67140,note_off,183,0,0,,7,,,67,127
67140,note_off,0,0,0,,2,,,74,127
67141,note_on,1,0,0,,1,,,73,127
67141,note_on,0,0,0,,10,,,45,127
67321,note_off,180,0,0,,11,,,82,127
67325,note_on,4,0,0,,10,,,81,127
67508,note_off,183,0,0,,10,,,81,127
67509,note_on,1,0,0,,7,,,79,127
67692,note_off,183,0,0,,7,,,79,127
67692,note_off,0,0,0,,10,,,45,127
67692,note_off,0,0,0,,1,,,73,127
67693,note_on,1,0,0,,10,,,81,127
67693,note_on,0,0,0,,0,,,72,127
67693,note_on,0,0,0,,2,,,38,127
67876,note_off,183,0,0,,10,,,81,127
67877,note_on,1,0,0,,11,,,82,127
68060,note_off,183,0,0,,11,,,82,127
68061,note_on,1,0,0,,0,,,84,127
68244,note_off,183,0,0,,2,,,38,127
68244,note_off,0,0,0,,0,,,72,127
68245,note_on,1,0,0,,6,,,78,127
68245,note_on,0,0,0,,2,,,38,127
68425,note_off,180,0,0,,0,,,84,127
68429,note_on,4,0,0,,11,,,82,127
68612,note_off,183,0,0,,11,,,82,127
68613,note_on,1,0,0,,10,,,81,127
68796,note_off,183,0,0,,10,,,81,127
68796,note_off,0,0,0,,2,,,38,127
68796,note_off,0,0,0,,6,,,78,127
68797,note_on,1,0,0,,11,,,82,127
68797,note_on,0,0,0,,7,,,79,127
68797,note_on,0,0,0,,7,,,43,127
68980,note_off,183,0,0,,11,,,82,127
68981,note_on,1,0,0,,0,,,84,127
69164,note_off,183,0,0,,0,,,84,127
69165,note_on,1,0,0,,2,,,86,127
69348,note_off,183,0,0,,7,,,43,127
69348,note_off,0,0,0,,7,,,79,127
69349,note_on,1,0,0,,11,,,46,127
69440,note_off,91,0,0,,2,,,86,127
69441,note_on,1,0,0,,0,,,84,127
69532,note_off,91,0,0,,0,,,84,127
69533,note_on,1,0,0,,11,,,82,127
69624,note_off,91,0,0,,11,,,82,127
69625,note_on,1,0,0,,10,,,81,127
69716,note_off,91,0,0,,10,,,81,127
69717,note_on,1,0,0,,7,,,79,127
69808,note_off,91,0,0,,7,,,79,127
69809,note_on,1,0,0,,5,,,77,127
69900,note_off,91,0,0,,5,,,77,127
69900,note_off,0,0,0,,11,,,46,127
69901,note_on,1,0,0,,3,,,75,127
69901,note_on,0,0,0,,0,,,48,127
69992,note_off,91,0,0,,3,,,75,127
69993,note_on,1,0,0,,2,,,74,127
70084,note_off,91,0,0,,2,,,74,127
70085,note_on,1,0,0,,0,,,72,127
70176,note_off,91,0,0,,0,,,72,127
70177,note_on,1,0,0,,0,,,84,127
70268,note_off,91,0,0,,0,,,84,127
70269,note_on,1,0,0,,11,,,82,127
70360,note_off,91,0,0,,11,,,82,127
70361,note_on,1,0,0,,10,,,81,127
70452,note_off,91,0,0,,10,,,81,127
70452,note_off,0,0,0,,0,,,48,127
70453,note_on,1,0,0,,7,,,79,127
70453,note_on,0,0,0,,2,,,50,127
70636,note_off,183,0,0,,7,,,79,127
70637,note_on,1,0,0,,7,,,79,127
70697,note_off,60,0,0,,7,,,79,127
70698,note_on,1,0,0,,6,,,78,127
70758,note_off,60,0,0,,6,,,78,127
70759,note_on,1,0,0,,7,,,79,127
70819,note_off,60,0,0,,7,,,79,127
70820,note_on,1,0,0,,6,,,78,127
70880,note_off,60,0,0,,6,,,78,127
70881,note_on,1,0,0,,4,,,76,127
70941,note_off,60,0,0,,4,,,76,127
70942,note_on,1,0,0,,6,,,78,127
71002,note_off,60,0,0,,6,,,78,127
71002,note_off,0,0,0,,2,,,50,127
71003,note_on,1,0,0,,7,,,79,127
71003,note_on,0,0,0,,7,,,43,127
71186,note_off,183,0,0,,7,,,79,127
71187,note_on,1,0,0,,2,,,74,127
71278,note_off,91,0,0,,2,,,74,127
71279,note_on,1,0,0,,12,,,83,127
71329,note_off,50,0,0,,7,,,43,127
71370,note_off,41,0,0,,12,,,83,127
71371,note_on,1,0,0,,10,,,81,127
71371,note_on,0,0,0,,7,,,55,127
71462,note_off,91,0,0,,10,,,81,127
71463,note_on,1,0,0,,7,,,79,127
71554,note_off,91,0,0,,7,,,79,127
71554,note_off,0,0,0,,7,,,55,127
71555,note_on,1,0,0,,2,,,86,127
71555,note_on,0,0,0,,6,,,54,127
71738,note_off,183,0,0,,6,,,54,127
71738,note_off,0,0,0,,2,,,86,127
71739,note_on,1,0,0,,2,,,74,127
71739,note_on,0,0,0,,2,,,50,127
71830,note_off,91,0,0,,2,,,74,127
71831,note_on,1,0,0,,0,,,84,127
71922,note_off,91,0,0,,0,,,84,127
71922,note_off,0,0,0,,2,,,50,127
71923,note_on,1,0,0,,12,,,83,127
71923,note_on,0,0,0,,6,,,54,127
72014,note_off,91,0,0,,12,,,83,127
72015,note_on,1,0,0,,10,,,81,127
72106,note_off,91,0,0,,10,,,81,127
72106,note_off,0,0,0,,6,,,54,127
72107,note_on,1,0,0,,7,,,79,127
72107,note_on,0,0,0,,7,,,55,127
72290,note_off,183,0,0,,7,,,55,127
72290,note_off,0,0,0,,7,,,79,127
72291,note_on,1,0,0,,2,,,74,127
72291,note_on,0,0,0,,7,,,43,127
72382,note_off,91,0,0,,2,,,74,127
72383,note_on,1,0,0,,12,,,83,127
72474,note_off,91,0,0,,12,,,83,127
72474,note_off,0,0,0,,7,,,43,127
72475,note_on,1,0,0,,10,,,81,127
72475,note_on,0,0,0,,7,,,55,127
72566,note_off,91,0,0,,10,,,81,127
72567,note_on,1,0,0,,7,,,79,127
72658,note_off,91,0,0,,7,,,79,127
72658,note_off,0,0,0,,7,,,55,127
72659,note_on,1,0,0,,2,,,86,127
72659,note_on,0,0,0,,6,,,54,127
72842,note_off,183,0,0,,6,,,54,127
72842,note_off,0,0,0,,2,,,86,127
72843,note_on,1,0,0,,2,,,74,127
72843,note_on,0,0,0,,2,,,50,127
72934,note_off,91,0,0,,2,,,74,127
72935,note_on,1,0,0,,0,,,84,127
73026,note_off,91,0,0,,0,,,84,127
73026,note_off,0,0,0,,2,,,50,127
73027,note_on,1,0,0,,12,,,83,127
73027,note_on,0,0,0,,6,,,54,127
73118,note_off,91,0,0,,12,,,83,127
73119,note_on,1,0,0,,10,,,81,127
73210,note_off,91,0,0,,10,,,81,127
73210,note_off,0,0,0,,6,,,54,127
73211,note_on,1,0,0,,7,,,79,127
73211,note_on,0,0,0,,7,,,55,127
73394,note_off,183,0,0,,7,,,79,127
73395,note_on,1,0,0,,2,,,74,127
73486,note_off,91,0,0,,2,,,74,127
73487,note_on,1,0,0,,12,,,83,127
73578,note_off,91,0,0,,12,,,83,127
73578,note_off,0,0,0,,7,,,55,127
73579,note_on,1,0,0,,10,,,81,127
73579,note_on,0,0,0,,7,,,43,127
73670,note_off,91,0,0,,10,,,81,127
73671,note_on,1,0,0,,7,,,79,127
73762,note_off,91,0,0,,7,,,79,127
73762,note_off,0,0,0,,7,,,43,127
73763,note_on,1,0,0,,2,,,86,127
73763,note_on,0,0,0,,12,,,47,127
73854,note_off,91,0,0,,2,,,86,127
73855,note_on,1,0,0,,0,,,84,127
73946,note_off,91,0,0,,0,,,84,127
73946,note_off,0,0,0,,12,,,47,127
73947,note_on,1,0,0,,12,,,83,127
73947,note_on,0,0,0,,7,,,43,127
74038,note_off,91,0,0,,12,,,83,127
74039,note_on,1,0,0,,10,,,81,127
74130,note_off,91,0,0,,10,,,81,127
74130,note_off,0,0,0,,7,,,43,127
74131,note_on,1,0,0,,7,,,79,127
74131,note_on,0,0,0,,12,,,47,127
74222,note_off,91,0,0,,7,,,79,127
74223,note_on,1,0,0,,6,,,78,127
74314,note_off,91,0,0,,6,,,78,127
74314,note_off,0,0,0,,12,,,47,127
74315,note_on,1,0,0,,4,,,76,127
74315,note_on,0,0,0,,0,,,48,127
74406,note_off,91,0,0,,4,,,76,127
74407,note_on,1,0,0,,2,,,74,127
74498,note_off,91,0,0,,2,,,74,127
74499,note_on,1,0,0,,0,,,72,127
74590,note_off,91,0,0,,0,,,72,127
74591,note_on,1,0,0,,0,,,84,127
74682,note_off,91,0,0,,0,,,84,127
74682,note_off,0,0,0,,0,,,48,127
74683,note_on,1,0,0,,12,,,83,127
74683,note_on,0,0,0,,0,,,60,127
74774,note_off,91,0,0,,12,,,83,127
74775,note_on,1,0,0,,10,,,81,127
74866,note_off,91,0,0,,10,,,81,127
74866,note_off,0,0,0,,0,,,60,127
74867,note_on,1,0,0,,7,,,79,127
74867,note_on,0,0,0,,2,,,62,127
75050,note_off,183,0,0,,7,,,79,127
75051,note_on,1,0,0,,7,,,79,127
75111,note_off,60,0,0,,7,,,79,127
75112,note_on,1,0,0,,6,,,78,127
75172,note_off,60,0,0,,6,,,78,127
75173,note_on,1,0,0,,7,,,79,127
75233,note_off,60,0,0,,7,,,79,127
75233,note_off,0,0,0,,2,,,62,127
75234,note_on,1,0,0,,6,,,78,127
75234,note_on,0,0,0,,2,,,50,127
75294,note_off,60,0,0,,6,,,78,127
75295,note_on,1,0,0,,4,,,76,127
75355,note_off,60,0,0,,4,,,76,127
75356,note_on,1,0,0,,6,,,78,127
75416,note_off,60,0,0,,6,,,78,127
75416,note_off,0,0,0,,2,,,50,127
75417,note_on,1,0,0,,7,,,79,127
75417,note_on,0,0,0,,7,,,43,127
75600,note_off,183,0,0,,7,,,79,127
75601,note_on,1,0,0,,2,,,74,127
75692,note_off,91,0,0,,2,,,74,127
75693,note_on,1,0,0,,12,,,83,127
75753,note_off,60,0,0,,7,,,43,127
75785,note_off,32,0,0,,12,,,83,127
75786,note_on,1,0,0,,10,,,81,127
75786,note_on,0,0,0,,7,,,55,127
75877,note_off,91,0,0,,10,,,81,127
75878,note_on,1,0,0,,7,,,79,127
75969,note_off,91,0,0,,7,,,79,127
75969,note_off,0,0,0,,7,,,55,127
75970,note_on,1,0,0,,2,,,86,127
75970,note_on,0,0,0,,6,,,54,127
76153,note_off,183,0,0,,6,,,54,127
76153,note_off,0,0,0,,2,,,86,127
76154,note_on,1,0,0,,2,,,74,127
76154,note_on,0,0,0,,2,,,50,127
76245,note_off,91,0,0,,2,,,74,127
76246,note_on,1,0,0,,0,,,84,127
76337,note_off,91,0,0,,0,,,84,127
76337,note_off,0,0,0,,2,,,50,127
76338,note_on,1,0,0,,12,,,83,127
76338,note_on,0,0,0,,6,,,54,127
76429,note_off,91,0,0,,12,,,83,127
76430,note_on,1,0,0,,10,,,81,127
76521,note_off,91,0,0,,10,,,81,127
76521,note_off,0,0,0,,6,,,54,127
76522,note_on,1,0,0,,7,,,79,127
76522,note_on,0,0,0,,7,,,55,127
76705,note_off,183,0,0,,7,,,55,127
76705,note_off,0,0,0,,7,,,79,127
76706,note_on,1,0,0,,2,,,74,127
76706,note_on,0,0,0,,7,,,43,127
76797,note_off,91,0,0,,2,,,74,127
76798,note_on,1,0,0,,12,,,83,127
76889,note_off,91,0,0,,12,,,83,127
76889,note_off,0,0,0,,7,,,43,127
76890,note_on,1,0,0,,10,,,81,127
76890,note_on,0,0,0,,7,,,55,127
76981,note_off,91,0,0,,10,,,81,127
76982,note_on,1,0,0,,7,,,79,127
77073,note_off,91,0,0,,7,,,79,127
77073,note_off,0,0,0,,7,,,55,127
77074,note_on,1,0,0,,2,,,86,127
77074,note_on,0,0,0,,6,,,54,127
77257,note_off,183,0,0,,6,,,54,127
77257,note_off,0,0,0,,2,,,86,127
77258,note_on,1,0,0,,2,,,74,127
77258,note_on,0,0,0,,2,,,50,127
77349,note_off,91,0,0,,2,,,74,127
77350,note_on,1,0,0,,0,,,84,127
77441,note_off,91,0,0,,0,,,84,127
77441,note_off,0,0,0,,2,,,50,127
77442,note_on,1,0,0,,12,,,83,127
77442,note_on,0,0,0,,6,,,54,127
77533,note_off,91,0,0,,12,,,83,127
77534,note_on,1,0,0,,10,,,81,127
77625,note_off,91,0,0,,10,,,81,127
77625,note_off,0,0,0,,6,,,54,127
77626,note_on,1,0,0,,7,,,79,127
77626,note_on,0,0,0,,7,,,55,127
77809,note_off,183,0,0,,7,,,79,127
77810,note_on,1,0,0,,2,,,74,127
77901,note_off,91,0,0,,2,,,74,127
77902,note_on,1,0,0,,12,,,83,127
77993,note_off,91,0,0,,12,,,83,127
77993,note_off,0,0,0,,7,,,55,127
77994,note_on,1,0,0,,10,,,81,127
77994,note_on,0,0,0,,7,,,43,127
78085,note_off,91,0,0,,10,,,81,127
78086,note_on,1,0,0,,7,,,79,127
78177,note_off,91,0,0,,7,,,79,127
78177,note_off,0,0,0,,7,,,43,127
78178,note_on,1,0,0,,2,,,86,127
78178,note_on,0,0,0,,12,,,47,127
78269,note_off,91,0,0,,2,,,86,127
78270,note_on,1,0,0,,0,,,84,127
78361,note_off,91,0,0,,0,,,84,127
78361,note_off,0,0,0,,12,,,47,127
78362,note_on,1,0,0,,12,,,83,127
78362,note_on,0,0,0,,7,,,43,127
78453,note_off,91,0,0,,12,,,83,127
78454,note_on,1,0,0,,10,,,81,127
78545,note_off,91,0,0,,10,,,81,127
78545,note_off,0,0,0,,7,,,43,127
78546,note_on,1,0,0,,7,,,79,127
78546,note_on,0,0,0,,12,,,47,127
78637,note_off,91,0,0,,7,,,79,127
78638,note_on,1,0,0,,6,,,78,127
78729,note_off,91,0,0,,6,,,78,127
78729,note_off,0,0,0,,12,,,47,127
78730,note_on,1,0,0,,0,,,48,127
78730,note_on,0,0,0,,4,,,76,127
78822,note_off,92,0,0,,4,,,76,127
78824,note_on,2,0,0,,2,,,74,127
78916,note_off,92,0,0,,2,,,74,127
78918,note_on,2,0,0,,0,,,72,127
79010,note_off,92,0,0,,0,,,72,127
79012,note_on,2,0,0,,12,,,71,127
79104,note_off,92,0,0,,12,,,71,127
79104,note_off,0,0,0,,0,,,48,127
79106,note_on,2,0,0,,0,,,36,127
79106,note_on,0,0,0,,10,,,69,127
79198,note_off,92,0,0,,10,,,69,127
79200,note_on,2,0,0,,7,,,67,127
79292,note_off,92,0,0,,7,,,67,127
79292,note_off,0,0,0,,0,,,36,127
79295,note_on,3,0,0,,2,,,38,127
79295,note_on,0,0,0,,6,,,66,127
79394,note_off,99,0,0,,6,,,66,127
79398,note_on,4,0,0,,4,,,64,127
79497,note_off,99,0,0,,4,,,64,127
79502,note_on,5,0,0,,2,,,62,127
79601,note_off,99,0,0,,2,,,62,127
79605,note_on,4,0,0,,0,,,60,127
79701,note_off,96,0,0,,2,,,38,127
79704,note_off,3,0,0,,0,,,60,127
79707,note_on,3,0,0,,2,,,38,127
79707,note_on,0,0,0,,12,,,59,127
79806,note_off,99,0,0,,12,,,59,127
79810,note_on,4,0,0,,10,,,57,127
79909,note_off,99,0,0,,10,,,57,127
79909,note_off,0,0,0,,2,,,38,127
79929,note_on,20,0,0,,7,,,31,127
79929,note_on,0,0,0,,10,,,57,127
79978,note_off,49,0,0,,10,,,57,127
79980,note_on,2,0,0,,7,,,55,127
80029,note_off,49,0,0,,7,,,55,127
80032,note_on,3,0,0,,10,,,57,127
80081,note_off,49,0,0,,10,,,57,127
80083,note_on,2,0,0,,7,,,55,127
82209,note_off,2126,0,0,,7,,,55,127
82209,note_off,0,0,0,,7,,,31,127
84480,end_of_track,2271,1,0,,,,,,
