tick,type,time,meta,track,program,channel,pitch,tempo,note,velocity
0,copyright,0,1,0,,,,,,
0,program_change,0,0,0,6,0,,,,
0,pitchwheel,0,0,0,,0,0,,,
0,program_change,0,0,0,6,1,,,,
0,pitchwheel,0,0,0,,1,-590,,,
0,program_change,0,0,0,6,2,,,,
0,pitchwheel,0,0,0,,2,-272,,,
0,program_change,0,0,0,6,3,,,,
0,pitchwheel,0,0,0,,3,-353,,,
0,program_change,0,0,0,6,4,,,,
0,pitchwheel,0,0,0,,4,-560,,,
0,program_change,0,0,0,6,5,,,,
0,pitchwheel,0,0,0,,5,-80,,,
0,program_change,0,0,0,6,6,,,,
0,pitchwheel,0,0,0,,6,-625,,,
0,program_change,0,0,0,6,7,,,,
0,pitchwheel,0,0,0,,7,-130,,,
0,program_change,0,0,0,6,8,,,,
0,pitchwheel,0,0,0,,8,-512,,,
0,program_change,0,0,0,6,10,,,,
0,pitchwheel,0,0,0,,10,-464,,,
0,program_change,0,0,0,6,11,,,,
0,pitchwheel,0,0,0,,11,-208,,,
0,program_change,0,0,0,6,12,,,,
0,pitchwheel,0,0,0,,12,-553,,,
0,set_tempo,0,1,0,,,,500000,,
115,note_on,115,0,0,,2,,,62,127
805,note_off,690,0,0,,2,,,62,127
806,note_on,1,0,0,,2,,,62,127
1496,note_off,690,0,0,,2,,,62,127
1497,note_on,1,0,0,,11,,,58,127
1497,note_on,0,0,0,,2,,,74,127
1726,note_off,229,0,0,,11,,,58,127
1727,note_on,1,0,0,,2,,,62,127
1956,note_off,229,0,0,,2,,,62,127
1957,note_on,1,0,0,,7,,,55,127
2186,note_off,229,0,0,,7,,,55,127
2186,note_off,0,0,0,,2,,,74,127
2187,note_on,1,0,0,,6,,,54,127
2187,note_on,0,0,0,,2,,,74,127
2416,note_off,229,0,0,,6,,,54,127
2417,note_on,1,0,0,,10,,,57,127
2646,note_off,229,0,0,,10,,,57,127
2647,note_on,1,0,0,,2,,,50,127
2876,note_off,229,0,0,,2,,,50,127
2876,note_off,0,0,0,,2,,,74,127
2877,note_on,1,0,0,,7,,,55,127
2877,note_on,0,0,0,,11,,,70,127
3106,note_off,229,0,0,,11,,,70,127
3107,note_on,1,0,0,,2,,,74,127
3336,note_off,229,0,0,,2,,,74,127
3337,note_on,1,0,0,,7,,,67,127
3566,note_off,229,0,0,,7,,,67,127
3566,note_off,0,0,0,,7,,,55,127
3567,note_on,1,0,0,,2,,,50,127
3567,note_on,0,0,0,,6,,,66,127
3796,note_off,229,0,0,,6,,,66,127
3797,note_on,1,0,0,,10,,,69,127
4026,note_off,229,0,0,,10,,,69,127
4027,note_on,1,0,0,,2,,,62,127
4256,note_off,229,0,0,,2,,,62,127
4256,note_off,0,0,0,,2,,,50,127
4257,note_on,1,0,0,,7,,,67,127
4487,note_on,230,0,0,,11,,,46,127
4716,note_off,229,0,0,,11,,,46,127
4717,note_on,1,0,0,,7,,,43,127
4946,note_off,229,0,0,,7,,,43,127
4946,note_off,0,0,0,,7,,,67,127
4947,note_on,1,0,0,,0,,,48,127
5176,note_off,229,0,0,,0,,,48,127
5177,note_on,1,0,0,,2,,,50,127
5177,note_on,0,0,0,,10,,,69,127
5407,note_on,230,0,0,,2,,,38,127
5483,note_off,76,0,0,,10,,,69,127
5484,note_on,1,0,0,,11,,,70,127
5560,note_off,76,0,0,,11,,,70,127
5561,note_on,1,0,0,,0,,,72,127
5637,note_off,76,0,0,,0,,,72,127
5637,note_off,0,0,0,,2,,,38,127
5637,note_off,0,0,0,,2,,,50,127
5638,note_on,1,0,0,,7,,,43,127
5638,note_on,0,0,0,,11,,,70,127
5867,note_off,229,0,0,,11,,,70,127
5867,note_off,0,0,0,,7,,,43,127
5868,note_on,1,0,0,,10,,,45,127
5868,note_on,0,0,0,,10,,,69,127
6097,note_off,229,0,0,,10,,,69,127
6097,note_off,0,0,0,,10,,,45,127
6098,note_on,1,0,0,,11,,,46,127
6098,note_on,0,0,0,,7,,,67,127
6327,note_off,229,0,0,,7,,,67,127
6327,note_off,0,0,0,,11,,,46,127
6328,note_on,1,0,0,,0,,,48,127
6557,note_off,229,0,0,,0,,,48,127
6558,note_on,1,0,0,,2,,,50,127
6558,note_on,0,0,0,,10,,,69,127
6788,note_on,230,0,0,,2,,,38,127
6864,note_off,76,0,0,,10,,,69,127
6865,note_on,1,0,0,,11,,,70,127
6941,note_off,76,0,0,,11,,,70,127
6942,note_on,1,0,0,,0,,,72,127
7018,note_off,76,0,0,,0,,,72,127
7018,note_off,0,0,0,,2,,,38,127
7019,note_off,1,0,0,,2,,,50,127
7019,note_on,0,0,0,,7,,,43,127
7019,note_on,0,0,0,,11,,,70,127
7248,note_off,229,0,0,,11,,,70,127
7248,note_off,0,0,0,,7,,,43,127
7249,note_on,1,0,0,,10,,,45,127
7249,note_on,0,0,0,,10,,,69,127
7478,note_off,229,0,0,,10,,,69,127
7478,note_off,0,0,0,,10,,,45,127
7479,note_on,1,0,0,,11,,,46,127
7479,note_on,0,0,0,,7,,,67,127
7708,note_off,229,0,0,,7,,,67,127
7708,note_off,0,0,0,,11,,,46,127
7709,note_on,1,0,0,,0,,,48,127
7938,note_off,229,0,0,,0,,,48,127
7939,note_on,1,0,0,,2,,,50,127
7939,note_on,0,0,0,,10,,,69,127
8169,note_on,230,0,0,,2,,,38,127
8245,note_off,76,0,0,,10,,,69,127
8246,note_on,1,0,0,,11,,,70,127
8322,note_off,76,0,0,,11,,,70,127
8323,note_on,1,0,0,,0,,,72,127
8399,note_off,76,0,0,,0,,,72,127
8399,note_off,0,0,0,,2,,,38,127
8400,note_off,1,0,0,,2,,,50,127
8400,note_on,0,0,0,,7,,,43,127
8400,note_on,0,0,0,,11,,,70,127
8629,note_off,229,0,0,,11,,,70,127
8630,note_on,1,0,0,,10,,,69,127
8859,note_off,229,0,0,,10,,,69,127
8860,note_on,1,0,0,,7,,,67,127
9089,note_off,229,0,0,,7,,,43,127
9316,note_off,227,0,0,,7,,,67,127
10242,note_on,926,0,0,,3,,,63,127
10242,note_on,0,0,0,,3,,,75,127
10472,note_on,230,0,0,,8,,,56,127
10701,note_off,229,0,0,,8,,,56,127
10702,note_on,1,0,0,,0,,,60,127
10930,note_off,228,0,0,,0,,,60,127
10931,note_off,1,0,0,,3,,,75,127
10931,note_off,0,0,0,,3,,,63,127
10932,note_on,1,0,0,,3,,,63,127
10932,note_on,0,0,0,,3,,,75,127
10932,note_on,0,0,0,,1,,,73,127
11162,note_on,230,0,0,,11,,,58,127
11391,note_off,229,0,0,,11,,,58,127
11392,note_on,1,0,0,,7,,,55,127
11620,note_off,228,0,0,,7,,,55,127
11621,note_off,1,0,0,,1,,,73,127
11621,note_off,0,0,0,,3,,,75,127
11621,note_off,0,0,0,,3,,,63,127
11622,note_on,1,0,0,,3,,,63,127
11622,note_on,0,0,0,,0,,,72,127
11622,note_on,0,0,0,,3,,,75,127
11852,note_on,230,0,0,,8,,,56,127
12081,note_off,229,0,0,,8,,,56,127
12082,note_on,1,0,0,,0,,,60,127
12311,note_off,229,0,0,,0,,,60,127
12311,note_off,0,0,0,,3,,,75,127
12311,note_off,0,0,0,,0,,,72,127
12311,note_off,0,0,0,,3,,,63,127
12312,note_on,1,0,0,,11,,,58,127
12312,note_on,0,0,0,,11,,,70,127
12312,note_on,0,0,0,,3,,,63,127
12312,note_on,0,0,0,,1,,,73,127
12312,note_on,0,0,0,,3,,,75,127
12541,note_off,229,0,0,,11,,,58,127
12542,note_on,1,0,0,,3,,,51,127
12771,note_off,229,0,0,,3,,,51,127
12772,note_on,1,0,0,,7,,,55,127
13001,note_off,229,0,0,,7,,,55,127
13001,note_off,0,0,0,,3,,,75,127
13001,note_off,0,0,0,,1,,,73,127
13001,note_off,0,0,0,,3,,,63,127
13001,note_off,0,0,0,,11,,,70,127
13002,note_on,1,0,0,,8,,,56,127
13002,note_on,0,0,0,,3,,,63,127
13002,note_on,0,0,0,,3,,,75,127
13002,note_on,0,0,0,,0,,,72,127
13231,note_off,229,0,0,,0,,,72,127
13231,note_off,0,0,0,,8,,,56,127
13232,note_on,1,0,0,,0,,,60,127
13232,note_on,0,0,0,,8,,,68,127
13461,note_off,229,0,0,,8,,,68,127
13461,note_off,0,0,0,,0,,,60,127
13461,note_off,0,0,0,,3,,,75,127
13462,note_on,1,0,0,,11,,,58,127
13462,note_on,0,0,0,,7,,,55,127
13462,note_on,0,0,0,,11,,,70,127
13691,note_off,229,0,0,,11,,,70,127
13691,note_off,0,0,0,,7,,,55,127
13691,note_off,0,0,0,,11,,,58,127
13691,note_off,0,0,0,,3,,,63,127
13692,note_on,1,0,0,,8,,,56,127
13692,note_on,0,0,0,,0,,,60,127
13692,note_on,0,0,0,,3,,,63,127
13692,note_on,0,0,0,,0,,,72,127
13921,note_off,229,0,0,,0,,,60,127
13921,note_off,0,0,0,,8,,,56,127
13922,note_on,1,0,0,,11,,,58,127
13922,note_on,0,0,0,,7,,,55,127
14151,note_off,229,0,0,,7,,,55,127
14151,note_off,0,0,0,,11,,,58,127
14151,note_off,0,0,0,,0,,,72,127
14151,note_off,0,0,0,,3,,,63,127
14152,note_on,1,0,0,,8,,,56,127
14152,note_on,0,0,0,,5,,,53,127
14152,note_on,0,0,0,,2,,,74,127
14152,note_on,0,0,0,,5,,,65,127
14381,note_off,229,0,0,,5,,,65,127
14381,note_off,0,0,0,,2,,,74,127
14381,note_off,0,0,0,,5,,,53,127
14381,note_off,0,0,0,,8,,,56,127
14382,note_on,1,0,0,,11,,,58,127
14382,note_on,0,0,0,,3,,,51,127
14382,note_on,0,0,0,,3,,,75,127
14382,note_on,0,0,0,,7,,,67,127
14611,note_off,229,0,0,,7,,,67,127
14612,note_on,1,0,0,,11,,,70,127
14841,note_off,229,0,0,,11,,,70,127
14841,note_off,0,0,0,,3,,,75,127
14841,note_off,0,0,0,,3,,,51,127
14841,note_off,0,0,0,,11,,,58,127
14842,note_on,1,0,0,,2,,,50,127
14842,note_on,0,0,0,,11,,,58,127
14842,note_on,0,0,0,,7,,,79,127
14898,note_off,56,0,0,,7,,,79,127
14899,note_on,1,0,0,,5,,,77,127
14955,note_off,56,0,0,,5,,,77,127
14956,note_on,1,0,0,,3,,,75,127
15012,note_off,56,0,0,,3,,,75,127
15013,note_on,1,0,0,,5,,,77,127
15069,note_off,56,0,0,,5,,,77,127
15069,note_off,0,0,0,,11,,,58,127
15069,note_off,0,0,0,,2,,,50,127
15070,note_on,1,0,0,,3,,,51,127
15070,note_on,0,0,0,,7,,,79,127
15299,note_off,229,0,0,,3,,,51,127
15300,note_on,1,0,0,,2,,,50,127
15529,note_off,229,0,0,,2,,,50,127
15529,note_off,0,0,0,,7,,,79,127
15530,note_on,1,0,0,,0,,,48,127
15530,note_on,0,0,0,,11,,,82,127
15586,note_off,56,0,0,,11,,,82,127
15587,note_on,1,0,0,,10,,,81,127
15643,note_off,56,0,0,,10,,,81,127
15644,note_on,1,0,0,,7,,,79,127
15700,note_off,56,0,0,,7,,,79,127
15701,note_on,1,0,0,,10,,,81,127
15757,note_off,56,0,0,,10,,,81,127
15757,note_off,0,0,0,,0,,,48,127
15758,note_on,1,0,0,,11,,,46,127
15758,note_on,0,0,0,,11,,,82,127
15872,note_off,114,0,0,,11,,,82,127
15873,note_on,1,0,0,,5,,,77,127
15987,note_off,114,0,0,,5,,,77,127
15988,note_on,1,0,0,,2,,,74,127
16102,note_off,114,0,0,,2,,,74,127
16103,note_on,1,0,0,,11,,,70,127
16217,note_off,114,0,0,,11,,,70,127
16218,note_on,1,0,0,,5,,,65,127
16332,note_off,114,0,0,,5,,,65,127
16333,note_on,1,0,0,,2,,,62,127
16447,note_off,114,0,0,,2,,,62,127
16447,note_off,0,0,0,,11,,,46,127
16448,note_on,1,0,0,,11,,,58,127
16562,note_off,114,0,0,,11,,,58,127
16563,note_on,1,0,0,,5,,,53,127
16677,note_off,114,0,0,,5,,,53,127
16678,note_on,1,0,0,,2,,,50,127
16792,note_off,114,0,0,,2,,,50,127
16793,note_on,1,0,0,,11,,,46,127
16907,note_off,114,0,0,,11,,,46,127
16908,note_on,1,0,0,,5,,,41,127
17022,note_off,114,0,0,,5,,,41,127
17023,note_on,1,0,0,,2,,,38,127
17137,note_off,114,0,0,,2,,,38,127
17138,note_on,1,0,0,,11,,,34,127
18058,note_off,920,0,0,,11,,,34,127
18750,note_on,692,0,0,,2,,,62,127
18750,note_on,0,0,0,,2,,,74,127
18750,note_on,0,0,0,,7,,,55,127
18980,note_on,230,0,0,,12,,,59,127
19209,note_off,229,0,0,,12,,,59,127
19209,note_off,0,0,0,,2,,,74,127
19209,note_off,0,0,0,,2,,,62,127
19210,note_on,1,0,0,,0,,,72,127
19210,note_on,0,0,0,,3,,,63,127
19210,note_on,0,0,0,,0,,,60,127
19439,note_off,229,0,0,,0,,,60,127
19439,note_off,0,0,0,,3,,,63,127
19439,note_off,0,0,0,,0,,,72,127
19439,note_off,0,0,0,,7,,,55,127
19440,note_on,1,0,0,,5,,,77,127
19440,note_on,0,0,0,,5,,,65,127
19440,note_on,0,0,0,,7,,,55,127
19670,note_on,230,0,0,,2,,,62,127
19899,note_off,229,0,0,,2,,,62,127
19899,note_off,0,0,0,,5,,,65,127
19899,note_off,0,0,0,,5,,,77,127
19900,note_on,1,0,0,,7,,,67,127
19900,note_on,0,0,0,,3,,,75,127
19900,note_on,0,0,0,,3,,,63,127
20129,note_off,229,0,0,,3,,,63,127
20129,note_off,0,0,0,,3,,,75,127
20129,note_off,0,0,0,,7,,,67,127
20129,note_off,0,0,0,,7,,,55,127
20130,note_on,1,0,0,,12,,,71,127
20130,note_on,0,0,0,,8,,,80,127
20130,note_on,0,0,0,,7,,,55,127
20360,note_on,230,0,0,,5,,,65,127
20589,note_off,229,0,0,,5,,,65,127
20589,note_off,0,0,0,,8,,,80,127
20589,note_off,0,0,0,,12,,,71,127
20590,note_on,1,0,0,,7,,,79,127
20590,note_on,0,0,0,,0,,,72,127
20590,note_on,0,0,0,,3,,,63,127
20819,note_off,229,0,0,,3,,,63,127
20819,note_off,0,0,0,,0,,,72,127
20819,note_off,0,0,0,,7,,,79,127
20819,note_off,0,0,0,,7,,,55,127
20820,note_on,1,0,0,,2,,,74,127
20820,note_on,0,0,0,,12,,,83,127
20820,note_on,0,0,0,,7,,,55,127
21050,note_on,230,0,0,,2,,,62,127
21279,note_off,229,0,0,,2,,,62,127
21279,note_off,0,0,0,,12,,,83,127
21279,note_off,0,0,0,,2,,,74,127
21280,note_on,1,0,0,,3,,,75,127
21280,note_on,0,0,0,,0,,,84,127
21280,note_on,0,0,0,,0,,,60,127
21509,note_off,229,0,0,,0,,,60,127
21509,note_off,0,0,0,,0,,,84,127
21509,note_off,0,0,0,,3,,,75,127
21509,note_off,0,0,0,,7,,,55,127
21510,note_on,1,0,0,,7,,,79,127
21510,note_on,0,0,0,,2,,,74,127
21510,note_on,0,0,0,,2,,,62,127
21510,note_on,0,0,0,,12,,,59,127
21739,note_off,229,0,0,,7,,,79,127
21740,note_on,1,0,0,,5,,,77,127
21969,note_off,229,0,0,,5,,,77,127
21969,note_off,0,0,0,,12,,,59,127
21969,note_off,0,0,0,,2,,,62,127
21969,note_off,0,0,0,,2,,,74,127
21970,note_on,1,0,0,,3,,,75,127
21970,note_on,0,0,0,,0,,,60,127
22199,note_off,229,0,0,,0,,,60,127
22199,note_off,0,0,0,,3,,,75,127
22200,note_on,1,0,0,,2,,,74,127
22200,note_on,0,0,0,,5,,,53,127
22429,note_off,229,0,0,,5,,,53,127
22430,note_on,1,0,0,,7,,,55,127
22659,note_off,229,0,0,,7,,,55,127
22659,note_off,0,0,0,,2,,,74,127
22660,note_on,1,0,0,,2,,,74,127
22660,note_on,0,0,0,,8,,,56,127
22716,note_off,56,0,0,,2,,,74,127
22717,note_on,1,0,0,,0,,,72,127
22773,note_off,56,0,0,,0,,,72,127
22774,note_on,1,0,0,,12,,,71,127
22830,note_off,56,0,0,,12,,,71,127
22831,note_on,1,0,0,,0,,,72,127
22887,note_off,56,0,0,,0,,,72,127
22887,note_off,0,0,0,,8,,,56,127
22888,note_on,1,0,0,,0,,,72,127
22888,note_on,0,0,0,,7,,,43,127
23117,note_off,229,0,0,,7,,,43,127
23118,note_on,1,0,0,,7,,,55,127
23347,note_off,229,0,0,,0,,,72,127
23348,note_on,1,0,0,,2,,,74,127
23577,note_off,229,0,0,,2,,,74,127
23577,note_off,0,0,0,,7,,,55,127
24039,note_on,462,0,0,,5,,,77,127
24039,note_on,0,0,0,,5,,,65,127
24269,note_on,230,0,0,,11,,,58,127
24498,note_off,229,0,0,,11,,,58,127
24499,note_on,1,0,0,,2,,,62,127
24727,note_off,228,0,0,,2,,,62,127
24728,note_off,1,0,0,,5,,,65,127
24728,note_off,0,0,0,,5,,,77,127
24729,note_on,1,0,0,,5,,,65,127
24729,note_on,0,0,0,,3,,,75,127
24729,note_on,0,0,0,,5,,,77,127
24959,note_on,230,0,0,,0,,,60,127
25188,note_off,229,0,0,,0,,,60,127
25189,note_on,1,0,0,,10,,,57,127
25417,note_off,228,0,0,,10,,,57,127
25418,note_off,1,0,0,,5,,,77,127
25418,note_off,0,0,0,,3,,,75,127
25418,note_off,0,0,0,,5,,,65,127
25419,note_on,1,0,0,,5,,,77,127
25419,note_on,0,0,0,,2,,,74,127
25419,note_on,0,0,0,,5,,,65,127
25649,note_on,230,0,0,,11,,,58,127
25878,note_off,229,0,0,,11,,,58,127
25879,note_on,1,0,0,,2,,,62,127
26108,note_off,229,0,0,,2,,,62,127
26108,note_off,0,0,0,,5,,,65,127
26108,note_off,0,0,0,,2,,,74,127
26108,note_off,0,0,0,,5,,,77,127
26109,note_on,1,0,0,,0,,,60,127
26109,note_on,0,0,0,,5,,,77,127
26109,note_on,0,0,0,,3,,,75,127
26109,note_on,0,0,0,,0,,,72,127
26109,note_on,0,0,0,,5,,,65,127
26338,note_off,229,0,0,,0,,,60,127
26339,note_on,1,0,0,,5,,,53,127
26568,note_off,229,0,0,,5,,,53,127
26569,note_on,1,0,0,,10,,,57,127
26798,note_off,229,0,0,,10,,,57,127
26798,note_off,0,0,0,,5,,,65,127
26798,note_off,0,0,0,,0,,,72,127
26798,note_off,0,0,0,,3,,,75,127
26798,note_off,0,0,0,,5,,,77,127
26799,note_on,1,0,0,,11,,,58,127
26799,note_on,0,0,0,,5,,,65,127
26799,note_on,0,0,0,,2,,,74,127
27028,note_off,229,0,0,,2,,,74,127
27028,note_off,0,0,0,,11,,,58,127
27029,note_on,1,0,0,,2,,,62,127
27029,note_on,0,0,0,,11,,,70,127
27258,note_off,229,0,0,,11,,,70,127
27258,note_off,0,0,0,,2,,,62,127
27259,note_on,1,0,0,,0,,,60,127
27259,note_on,0,0,0,,0,,,72,127
27488,note_off,229,0,0,,0,,,72,127
27488,note_off,0,0,0,,0,,,60,127
27488,note_off,0,0,0,,5,,,65,127
27489,note_on,1,0,0,,2,,,62,127
27489,note_on,0,0,0,,11,,,58,127
27489,note_on,0,0,0,,5,,,65,127
27489,note_on,0,0,0,,2,,,74,127
27718,note_off,229,0,0,,11,,,58,127
27718,note_off,0,0,0,,2,,,62,127
27719,note_on,1,0,0,,10,,,57,127
27719,note_on,0,0,0,,0,,,60,127
27948,note_off,229,0,0,,0,,,60,127
27948,note_off,0,0,0,,10,,,57,127
27948,note_off,0,0,0,,2,,,74,127
27948,note_off,0,0,0,,5,,,65,127
27949,note_on,1,0,0,,11,,,58,127
27949,note_on,0,0,0,,7,,,55,127
27949,note_on,0,0,0,,4,,,76,127
27949,note_on,0,0,0,,7,,,67,127
28178,note_off,229,0,0,,7,,,67,127
28178,note_off,0,0,0,,4,,,76,127
28178,note_off,0,0,0,,7,,,55,127
28178,note_off,0,0,0,,11,,,58,127
28179,note_on,1,0,0,,0,,,60,127
28179,note_on,0,0,0,,5,,,53,127
28179,note_on,0,0,0,,5,,,77,127
28179,note_on,0,0,0,,10,,,69,127
28408,note_off,229,0,0,,10,,,69,127
28409,note_on,1,0,0,,0,,,72,127
28638,note_off,229,0,0,,0,,,72,127
28638,note_off,0,0,0,,5,,,77,127
28638,note_off,0,0,0,,5,,,53,127
28639,note_on,1,0,0,,4,,,52,127
28639,note_on,0,0,0,,10,,,81,127
28695,note_off,56,0,0,,10,,,81,127
28696,note_on,1,0,0,,7,,,79,127
28752,note_off,56,0,0,,7,,,79,127
28753,note_on,1,0,0,,5,,,77,127
28809,note_off,56,0,0,,5,,,77,127
28810,note_on,1,0,0,,7,,,79,127
28866,note_off,56,0,0,,7,,,79,127
28866,note_off,0,0,0,,4,,,52,127
28866,note_off,0,0,0,,0,,,60,127
28867,note_on,1,0,0,,0,,,60,127
28867,note_on,0,0,0,,5,,,53,127
28867,note_on,0,0,0,,10,,,81,127
29096,note_off,229,0,0,,5,,,53,127
29097,note_on,1,0,0,,4,,,52,127
29326,note_off,229,0,0,,4,,,52,127
29326,note_off,0,0,0,,10,,,81,127
29326,note_off,0,0,0,,0,,,60,127
29327,note_on,1,0,0,,12,,,59,127
29327,note_on,0,0,0,,2,,,50,127
29327,note_on,0,0,0,,0,,,84,127
29383,note_off,56,0,0,,0,,,84,127
29384,note_on,1,0,0,,12,,,83,127
29440,note_off,56,0,0,,12,,,83,127
29441,note_on,1,0,0,,10,,,81,127
29497,note_off,56,0,0,,10,,,81,127
29498,note_on,1,0,0,,12,,,83,127
29554,note_off,56,0,0,,12,,,83,127
29554,note_off,0,0,0,,2,,,50,127
29554,note_off,0,0,0,,12,,,59,127
29555,note_on,1,0,0,,0,,,60,127
29555,note_on,0,0,0,,0,,,48,127
29555,note_on,0,0,0,,0,,,84,127
29669,note_off,114,0,0,,0,,,84,127
29670,note_on,1,0,0,,7,,,79,127
29784,note_off,114,0,0,,7,,,79,127
29785,note_on,1,0,0,,4,,,76,127
29899,note_off,114,0,0,,4,,,76,127
29900,note_on,1,0,0,,0,,,72,127
30014,note_off,114,0,0,,0,,,72,127
30015,note_on,1,0,0,,7,,,67,127
30129,note_off,114,0,0,,7,,,67,127
30130,note_on,1,0,0,,4,,,64,127
30244,note_off,114,0,0,,4,,,64,127
30244,note_off,0,0,0,,0,,,48,127
30244,note_off,0,0,0,,0,,,60,127
30245,note_on,1,0,0,,0,,,60,127
30359,note_off,114,0,0,,0,,,60,127
30360,note_on,1,0,0,,7,,,55,127
30474,note_off,114,0,0,,7,,,55,127
30475,note_on,1,0,0,,4,,,52,127
30589,note_off,114,0,0,,4,,,52,127
30590,note_on,1,0,0,,0,,,48,127
30704,note_off,114,0,0,,0,,,48,127
30705,note_on,1,0,0,,7,,,43,127
30819,note_off,114,0,0,,7,,,43,127
30820,note_on,1,0,0,,4,,,40,127
30934,note_off,114,0,0,,4,,,40,127
30935,note_on,1,0,0,,0,,,36,127
31855,note_off,920,0,0,,0,,,36,127
32317,note_on,462,0,0,,10,,,57,127
32317,note_on,0,0,0,,4,,,76,127
32317,note_on,0,0,0,,4,,,64,127
32547,note_on,230,0,0,,1,,,61,127
32776,note_off,229,0,0,,1,,,61,127
32776,note_off,0,0,0,,4,,,64,127
32776,note_off,0,0,0,,4,,,76,127
32777,note_on,1,0,0,,2,,,62,127
32777,note_on,0,0,0,,2,,,74,127
32777,note_on,0,0,0,,5,,,65,127
33006,note_off,229,0,0,,5,,,65,127
33006,note_off,0,0,0,,2,,,74,127
33006,note_off,0,0,0,,2,,,62,127
33006,note_off,0,0,0,,10,,,57,127
33007,note_on,1,0,0,,10,,,57,127
33007,note_on,0,0,0,,7,,,79,127
33007,note_on,0,0,0,,7,,,67,127
33237,note_on,230,0,0,,4,,,64,127
33466,note_off,229,0,0,,4,,,64,127
33466,note_off,0,0,0,,7,,,67,127
33466,note_off,0,0,0,,7,,,79,127
33467,note_on,1,0,0,,5,,,65,127
33467,note_on,0,0,0,,5,,,77,127
33467,note_on,0,0,0,,10,,,69,127
33696,note_off,229,0,0,,10,,,69,127
33696,note_off,0,0,0,,5,,,77,127
33696,note_off,0,0,0,,5,,,65,127
33696,note_off,0,0,0,,10,,,57,127
33697,note_on,1,0,0,,10,,,57,127
33697,note_on,0,0,0,,1,,,73,127
33697,note_on,0,0,0,,11,,,82,127
33927,note_on,230,0,0,,7,,,67,127
34156,note_off,229,0,0,,7,,,67,127
34156,note_off,0,0,0,,11,,,82,127
34156,note_off,0,0,0,,1,,,73,127
34157,note_on,1,0,0,,5,,,65,127
34157,note_on,0,0,0,,2,,,74,127
34157,note_on,0,0,0,,10,,,81,127
34386,note_off,229,0,0,,10,,,81,127
34386,note_off,0,0,0,,2,,,74,127
34386,note_off,0,0,0,,5,,,65,127
34386,note_off,0,0,0,,10,,,57,127
34387,note_on,1,0,0,,10,,,57,127
34387,note_on,0,0,0,,1,,,85,127
34387,note_on,0,0,0,,4,,,76,127
34617,note_on,230,0,0,,4,,,64,127
34846,note_off,229,0,0,,4,,,64,127
34846,note_off,0,0,0,,4,,,76,127
34846,note_off,0,0,0,,1,,,85,127
34847,note_on,1,0,0,,2,,,62,127
34847,note_on,0,0,0,,2,,,86,127
34847,note_on,0,0,0,,5,,,77,127
35076,note_off,229,0,0,,5,,,77,127
35076,note_off,0,0,0,,2,,,86,127
35076,note_off,0,0,0,,2,,,62,127
35076,note_off,0,0,0,,10,,,57,127
35077,note_on,1,0,0,,1,,,61,127
35077,note_on,0,0,0,,4,,,64,127
35077,note_on,0,0,0,,10,,,81,127
35306,note_off,229,0,0,,10,,,81,127
35307,note_on,1,0,0,,7,,,79,127
35536,note_off,229,0,0,,7,,,79,127
35536,note_off,0,0,0,,4,,,64,127
35536,note_off,0,0,0,,1,,,61,127
35537,note_on,1,0,0,,2,,,62,127
35537,note_on,0,0,0,,5,,,65,127
35537,note_on,0,0,0,,5,,,77,127
35766,note_off,229,0,0,,5,,,77,127
35766,note_off,0,0,0,,5,,,65,127
35766,note_off,0,0,0,,2,,,62,127
35767,note_on,1,0,0,,7,,,55,127
35767,note_on,0,0,0,,4,,,76,127
35996,note_off,229,0,0,,7,,,55,127
35997,note_on,1,0,0,,10,,,57,127
36226,note_off,229,0,0,,10,,,57,127
36226,note_off,0,0,0,,4,,,76,127
36227,note_on,1,0,0,,11,,,58,127
36227,note_on,0,0,0,,4,,,76,127
36283,note_off,56,0,0,,4,,,76,127
36284,note_on,1,0,0,,2,,,74,127
36340,note_off,56,0,0,,2,,,74,127
36341,note_on,1,0,0,,1,,,73,127
36397,note_off,56,0,0,,1,,,73,127
36398,note_on,1,0,0,,2,,,74,127
36454,note_off,56,0,0,,2,,,74,127
36454,note_off,0,0,0,,11,,,58,127
36455,note_on,1,0,0,,10,,,45,127
36455,note_on,0,0,0,,2,,,74,127
36684,note_off,229,0,0,,10,,,45,127
36685,note_on,1,0,0,,10,,,57,127
36914,note_off,229,0,0,,2,,,74,127
36915,note_on,1,0,0,,4,,,76,127
37144,note_off,229,0,0,,4,,,76,127
37144,note_off,0,0,0,,10,,,57,127
37376,note_on,232,0,0,,2,,,62,127
37376,note_on,0,0,0,,2,,,50,127
37605,note_off,229,0,0,,2,,,50,127
37606,note_on,1,0,0,,4,,,52,127
37835,note_off,229,0,0,,4,,,52,127
37836,note_on,1,0,0,,5,,,53,127
38065,note_off,229,0,0,,5,,,53,127
38065,note_off,0,0,0,,2,,,62,127
38066,note_on,1,0,0,,4,,,64,127
38066,note_on,0,0,0,,7,,,55,127
38295,note_off,229,0,0,,7,,,55,127
38296,note_on,1,0,0,,10,,,57,127
38525,note_off,229,0,0,,4,,,64,127
38526,note_on,1,0,0,,7,,,79,127
38526,note_on,0,0,0,,1,,,61,127
38755,note_off,229,0,0,,1,,,61,127
38755,note_off,0,0,0,,10,,,57,127
38756,note_on,1,0,0,,2,,,50,127
38756,note_on,0,0,0,,2,,,62,127
38985,note_off,229,0,0,,2,,,50,127
38985,note_off,0,0,0,,7,,,79,127
38986,note_on,1,0,0,,5,,,77,127
38986,note_on,0,0,0,,4,,,52,127
39100,note_off,114,0,0,,5,,,77,127
39101,note_on,1,0,0,,4,,,76,127
39215,note_off,114,0,0,,4,,,76,127
39215,note_off,0,0,0,,4,,,52,127
39216,note_on,1,0,0,,2,,,74,127
39216,note_on,0,0,0,,5,,,53,127
39445,note_off,229,0,0,,5,,,53,127
39445,note_off,0,0,0,,2,,,74,127
39445,note_off,0,0,0,,2,,,62,127
39446,note_on,1,0,0,,4,,,64,127
39446,note_on,0,0,0,,7,,,55,127
39675,note_off,229,0,0,,7,,,55,127
39676,note_on,1,0,0,,10,,,57,127
39905,note_off,229,0,0,,4,,,64,127
39906,note_on,1,0,0,,7,,,79,127
39906,note_on,0,0,0,,1,,,61,127
40135,note_off,229,0,0,,1,,,61,127
40135,note_off,0,0,0,,10,,,57,127
40136,note_on,1,0,0,,2,,,62,127
40136,note_on,0,0,0,,2,,,50,127
40365,note_off,229,0,0,,2,,,50,127
40365,note_off,0,0,0,,7,,,79,127
40366,note_on,1,0,0,,5,,,77,127
40366,note_on,0,0,0,,4,,,52,127
40480,note_off,114,0,0,,5,,,77,127
40481,note_on,1,0,0,,4,,,76,127
40595,note_off,114,0,0,,4,,,76,127
40595,note_off,0,0,0,,4,,,52,127
40596,note_on,1,0,0,,2,,,74,127
40596,note_on,0,0,0,,5,,,53,127
40825,note_off,229,0,0,,5,,,53,127
40825,note_off,0,0,0,,2,,,74,127
40825,note_off,0,0,0,,2,,,62,127
40826,note_on,1,0,0,,4,,,64,127
40826,note_on,0,0,0,,7,,,55,127
41055,note_off,229,0,0,,7,,,55,127
41056,note_on,1,0,0,,10,,,57,127
41285,note_off,229,0,0,,4,,,64,127
41286,note_on,1,0,0,,7,,,79,127
41286,note_on,0,0,0,,1,,,61,127
41515,note_off,229,0,0,,1,,,61,127
41515,note_off,0,0,0,,10,,,57,127
41516,note_on,1,0,0,,2,,,50,127
41516,note_on,0,0,0,,2,,,62,127
41745,note_off,229,0,0,,2,,,50,127
41745,note_off,0,0,0,,7,,,79,127
41746,note_on,1,0,0,,5,,,77,127
41746,note_on,0,0,0,,4,,,52,127
41860,note_off,114,0,0,,5,,,77,127
41861,note_on,1,0,0,,7,,,79,127
41975,note_off,114,0,0,,7,,,79,127
41975,note_off,0,0,0,,4,,,52,127
41976,note_on,1,0,0,,10,,,81,127
41976,note_on,0,0,0,,5,,,53,127
42205,note_off,229,0,0,,5,,,53,127
42205,note_off,0,0,0,,10,,,81,127
42205,note_off,0,0,0,,2,,,62,127
42206,note_on,1,0,0,,2,,,74,127
42206,note_on,0,0,0,,11,,,82,127
42206,note_on,0,0,0,,7,,,55,127
42435,note_off,229,0,0,,7,,,55,127
42435,note_off,0,0,0,,11,,,82,127
42435,note_off,0,0,0,,2,,,74,127
42436,note_on,1,0,0,,10,,,81,127
42436,note_on,0,0,0,,1,,,73,127
42436,note_on,0,0,0,,10,,,57,127
42665,note_off,229,0,0,,10,,,57,127
42665,note_off,0,0,0,,1,,,73,127
42665,note_off,0,0,0,,10,,,81,127
42666,note_on,1,0,0,,7,,,79,127
42666,note_on,0,0,0,,2,,,74,127
42666,note_on,0,0,0,,11,,,58,127
42895,note_off,229,0,0,,11,,,58,127
42896,note_on,1,0,0,,10,,,45,127
43125,note_off,229,0,0,,2,,,74,127
43125,note_off,0,0,0,,7,,,79,127
43126,note_on,1,0,0,,1,,,73,127
43126,note_on,0,0,0,,10,,,81,127
43510,note_off,384,0,0,,10,,,81,127
43510,note_off,0,0,0,,1,,,73,127
43586,note_off,76,0,0,,10,,,45,127
43587,note_on,1,0,0,,2,,,62,127
43587,note_on,0,0,0,,2,,,50,127
43816,note_off,229,0,0,,2,,,50,127
43816,note_off,0,0,0,,2,,,62,127
43817,note_on,1,0,0,,4,,,52,127
43817,note_on,0,0,0,,4,,,64,127
44046,note_off,229,0,0,,4,,,64,127
44046,note_off,0,0,0,,4,,,52,127
44047,note_on,1,0,0,,5,,,65,127
44047,note_on,0,0,0,,5,,,53,127
44276,note_off,229,0,0,,5,,,53,127
44276,note_off,0,0,0,,5,,,65,127
44277,note_on,1,0,0,,7,,,67,127
44277,note_on,0,0,0,,7,,,55,127
44506,note_off,229,0,0,,7,,,55,127
44506,note_off,0,0,0,,7,,,67,127
44507,note_on,1,0,0,,5,,,65,127
44507,note_on,0,0,0,,10,,,57,127
44736,note_off,229,0,0,,5,,,65,127
44737,note_on,1,0,0,,1,,,85,127
44737,note_on,0,0,0,,7,,,79,127
44737,note_on,0,0,0,,4,,,64,127
44966,note_off,229,0,0,,4,,,64,127
44966,note_off,0,0,0,,7,,,79,127
44966,note_off,0,0,0,,1,,,85,127
44966,note_off,0,0,0,,10,,,57,127
44967,note_on,1,0,0,,2,,,86,127
44967,note_on,0,0,0,,2,,,62,127
44967,note_on,0,0,0,,2,,,50,127
45196,note_off,229,0,0,,2,,,50,127
45196,note_off,0,0,0,,2,,,62,127
45196,note_off,0,0,0,,2,,,86,127
45197,note_on,1,0,0,,7,,,79,127
45197,note_on,0,0,0,,5,,,77,127
45197,note_on,0,0,0,,4,,,64,127
45197,note_on,0,0,0,,4,,,52,127
45311,note_off,114,0,0,,5,,,77,127
45311,note_off,0,0,0,,7,,,79,127
45312,note_on,1,0,0,,4,,,76,127
45426,note_off,114,0,0,,4,,,76,127
45426,note_off,0,0,0,,4,,,52,127
45426,note_off,0,0,0,,4,,,64,127
45427,note_on,1,0,0,,2,,,74,127
45427,note_on,0,0,0,,5,,,65,127
45427,note_on,0,0,0,,5,,,53,127
45656,note_off,229,0,0,,5,,,53,127
45656,note_off,0,0,0,,5,,,65,127
45657,note_on,1,0,0,,7,,,67,127
45657,note_on,0,0,0,,7,,,55,127
45886,note_off,229,0,0,,7,,,55,127
45886,note_off,0,0,0,,7,,,67,127
45887,note_on,1,0,0,,10,,,57,127
45887,note_on,0,0,0,,5,,,65,127
46116,note_off,229,0,0,,5,,,65,127
46116,note_off,0,0,0,,2,,,74,127
46117,note_on,1,0,0,,1,,,85,127
46117,note_on,0,0,0,,7,,,79,127
46117,note_on,0,0,0,,4,,,64,127
46346,note_off,229,0,0,,4,,,64,127
46346,note_off,0,0,0,,7,,,79,127
46346,note_off,0,0,0,,1,,,85,127
46346,note_off,0,0,0,,10,,,57,127
46347,note_on,1,0,0,,2,,,86,127
46347,note_on,0,0,0,,2,,,62,127
46347,note_on,0,0,0,,2,,,50,127
46576,note_off,229,0,0,,2,,,50,127
46576,note_off,0,0,0,,2,,,62,127
46576,note_off,0,0,0,,2,,,86,127
46577,note_on,1,0,0,,7,,,79,127
46577,note_on,0,0,0,,5,,,77,127
46577,note_on,0,0,0,,4,,,52,127
46577,note_on,0,0,0,,4,,,64,127
46691,note_off,114,0,0,,5,,,77,127
46691,note_off,0,0,0,,7,,,79,127
46692,note_on,1,0,0,,4,,,76,127
46806,note_off,114,0,0,,4,,,76,127
46806,note_off,0,0,0,,4,,,64,127
46806,note_off,0,0,0,,4,,,52,127
46807,note_on,1,0,0,,2,,,74,127
46807,note_on,0,0,0,,5,,,65,127
46807,note_on,0,0,0,,5,,,53,127
47036,note_off,229,0,0,,5,,,53,127
47036,note_off,0,0,0,,5,,,65,127
47037,note_on,1,0,0,,7,,,55,127
47037,note_on,0,0,0,,7,,,67,127
47266,note_off,229,0,0,,7,,,67,127
47266,note_off,0,0,0,,7,,,55,127
47267,note_on,1,0,0,,10,,,57,127
47267,note_on,0,0,0,,5,,,65,127
47496,note_off,229,0,0,,5,,,65,127
47496,note_off,0,0,0,,2,,,74,127
47497,note_on,1,0,0,,7,,,79,127
47497,note_on,0,0,0,,1,,,85,127
47497,note_on,0,0,0,,4,,,64,127
47726,note_off,229,0,0,,4,,,64,127
47726,note_off,0,0,0,,1,,,85,127
47726,note_off,0,0,0,,7,,,79,127
47726,note_off,0,0,0,,10,,,57,127
47727,note_on,1,0,0,,2,,,86,127
47727,note_on,0,0,0,,2,,,62,127
47727,note_on,0,0,0,,2,,,50,127
47956,note_off,229,0,0,,2,,,50,127
47956,note_off,0,0,0,,2,,,62,127
47956,note_off,0,0,0,,2,,,86,127
47957,note_on,1,0,0,,5,,,77,127
47957,note_on,0,0,0,,4,,,64,127
47957,note_on,0,0,0,,4,,,52,127
48071,note_off,114,0,0,,5,,,77,127
48072,note_on,1,0,0,,7,,,79,127
48186,note_off,114,0,0,,7,,,79,127
48186,note_off,0,0,0,,4,,,52,127
48186,note_off,0,0,0,,4,,,64,127
48187,note_on,1,0,0,,10,,,81,127
48187,note_on,0,0,0,,5,,,53,127
48187,note_on,0,0,0,,5,,,65,127
48416,note_off,229,0,0,,5,,,65,127
48416,note_off,0,0,0,,5,,,53,127
48416,note_off,0,0,0,,10,,,81,127
48417,note_on,1,0,0,,11,,,82,127
48417,note_on,0,0,0,,7,,,55,127
48646,note_off,229,0,0,,7,,,55,127
48646,note_off,0,0,0,,11,,,82,127
48647,note_on,1,0,0,,2,,,74,127
48647,note_on,0,0,0,,10,,,57,127
48876,note_off,229,0,0,,10,,,57,127
48876,note_off,0,0,0,,2,,,74,127
48877,note_on,1,0,0,,1,,,73,127
48877,note_on,0,0,0,,10,,,45,127
49106,note_off,229,0,0,,10,,,45,127
49106,note_off,0,0,0,,1,,,73,127
49107,note_on,1,0,0,,2,,,74,127
49107,note_on,0,0,0,,2,,,50,127
49336,note_off,229,0,0,,2,,,50,127
49337,note_on,1,0,0,,4,,,52,127
49413,note_off,76,0,0,,2,,,74,127
49414,note_on,1,0,0,,4,,,76,127
49490,note_off,76,0,0,,4,,,76,127
49491,note_on,1,0,0,,5,,,77,127
49567,note_off,76,0,0,,4,,,52,127
49568,note_on,1,0,0,,10,,,69,127
49568,note_on,0,0,0,,5,,,53,127
49720,note_off,152,0,0,,5,,,77,127
49797,note_off,77,0,0,,5,,,53,127
49797,note_off,0,0,0,,10,,,69,127
49798,note_on,1,0,0,,7,,,79,127
49798,note_on,0,0,0,,11,,,70,127
49798,note_on,0,0,0,,7,,,55,127
50027,note_off,229,0,0,,7,,,55,127
50028,note_on,1,0,0,,1,,,49,127
50257,note_off,229,0,0,,1,,,49,127
50258,note_on,1,0,0,,10,,,45,127
50487,note_off,229,0,0,,10,,,45,127
50487,note_off,0,0,0,,11,,,70,127
50487,note_off,0,0,0,,7,,,79,127
50488,note_on,1,0,0,,2,,,74,127
50488,note_on,0,0,0,,2,,,50,127
50717,note_off,229,0,0,,2,,,50,127
50718,note_on,1,0,0,,4,,,52,127
50794,note_off,76,0,0,,2,,,74,127
50795,note_on,1,0,0,,4,,,76,127
50871,note_off,76,0,0,,4,,,76,127
50872,note_on,1,0,0,,5,,,77,127
50948,note_off,76,0,0,,4,,,52,127
50949,note_on,1,0,0,,10,,,69,127
50949,note_on,0,0,0,,5,,,53,127
51101,note_off,152,0,0,,5,,,77,127
51178,note_off,77,0,0,,5,,,53,127
51178,note_off,0,0,0,,10,,,69,127
51179,note_on,1,0,0,,11,,,70,127
51179,note_on,0,0,0,,7,,,79,127
51179,note_on,0,0,0,,7,,,55,127
51408,note_off,229,0,0,,7,,,55,127
51409,note_on,1,0,0,,1,,,49,127
51638,note_off,229,0,0,,1,,,49,127
51639,note_on,1,0,0,,10,,,45,127
51868,note_off,229,0,0,,10,,,45,127
51868,note_off,0,0,0,,7,,,79,127
51868,note_off,0,0,0,,11,,,70,127
51869,note_on,1,0,0,,5,,,77,127
51869,note_on,0,0,0,,2,,,50,127
52098,note_off,229,0,0,,2,,,50,127
52099,note_on,1,0,0,,4,,,52,127
52175,note_off,76,0,0,,5,,,77,127
52176,note_on,1,0,0,,7,,,79,127
52252,note_off,76,0,0,,7,,,79,127
52253,note_on,1,0,0,,10,,,81,127
52329,note_off,76,0,0,,4,,,52,127
52330,note_on,1,0,0,,2,,,74,127
52330,note_on,0,0,0,,5,,,53,127
52482,note_off,152,0,0,,10,,,81,127
52559,note_off,77,0,0,,5,,,53,127
52559,note_off,0,0,0,,2,,,74,127
52560,note_on,1,0,0,,11,,,82,127
52560,note_on,0,0,0,,7,,,55,127
52789,note_off,229,0,0,,7,,,55,127
52789,note_off,0,0,0,,11,,,82,127
52790,note_on,1,0,0,,2,,,74,127
52790,note_on,0,0,0,,10,,,57,127
53019,note_off,229,0,0,,10,,,57,127
53019,note_off,0,0,0,,2,,,74,127
53020,note_on,1,0,0,,1,,,73,127
53020,note_on,0,0,0,,10,,,45,127
53249,note_off,229,0,0,,10,,,45,127
53249,note_off,0,0,0,,1,,,73,127
53250,note_on,1,0,0,,2,,,74,127
53250,note_on,0,0,0,,2,,,50,127
53479,note_off,229,0,0,,2,,,50,127
53480,note_on,1,0,0,,4,,,52,127
53556,note_off,76,0,0,,2,,,74,127
53557,note_on,1,0,0,,4,,,76,127
53633,note_off,76,0,0,,4,,,76,127
53634,note_on,1,0,0,,5,,,77,127
53710,note_off,76,0,0,,4,,,52,127
53711,note_on,1,0,0,,10,,,69,127
53711,note_on,0,0,0,,5,,,53,127
53898,note_off,187,0,0,,5,,,77,127
53940,note_off,42,0,0,,5,,,53,127
53940,note_off,0,0,0,,10,,,69,127
53941,note_on,1,0,0,,7,,,79,127
53941,note_on,0,0,0,,11,,,70,127
53941,note_on,0,0,0,,7,,,55,127
54170,note_off,229,0,0,,7,,,55,127
54171,note_on,1,0,0,,1,,,49,127
54400,note_off,229,0,0,,1,,,49,127
54401,note_on,1,0,0,,10,,,45,127
54630,note_off,229,0,0,,10,,,45,127
54630,note_off,0,0,0,,11,,,70,127
54630,note_off,0,0,0,,7,,,79,127
54631,note_on,1,0,0,,2,,,74,127
54631,note_on,0,0,0,,2,,,50,127
54860,note_off,229,0,0,,2,,,50,127
54861,note_on,1,0,0,,4,,,52,127
54937,note_off,76,0,0,,2,,,74,127
54938,note_on,1,0,0,,4,,,76,127
55014,note_off,76,0,0,,4,,,76,127
55015,note_on,1,0,0,,5,,,77,127
55091,note_off,76,0,0,,4,,,52,127
55092,note_on,1,0,0,,10,,,69,127
55092,note_on,0,0,0,,5,,,53,127
55291,note_off,199,0,0,,5,,,77,127
55321,note_off,30,0,0,,5,,,53,127
55321,note_off,0,0,0,,10,,,69,127
55322,note_on,1,0,0,,7,,,79,127
55322,note_on,0,0,0,,11,,,70,127
55322,note_on,0,0,0,,7,,,55,127
55551,note_off,229,0,0,,7,,,55,127
55552,note_on,1,0,0,,1,,,49,127
55781,note_off,229,0,0,,1,,,49,127
55782,note_on,1,0,0,,10,,,45,127
56011,note_off,229,0,0,,10,,,45,127
56011,note_off,0,0,0,,11,,,70,127
56011,note_off,0,0,0,,7,,,79,127
56012,note_on,1,0,0,,5,,,77,127
56012,note_on,0,0,0,,2,,,50,127
56241,note_off,229,0,0,,2,,,50,127
56242,note_on,1,0,0,,4,,,52,127
56318,note_off,76,0,0,,5,,,77,127
56319,note_on,1,0,0,,7,,,79,127
56395,note_off,76,0,0,,7,,,79,127
56396,note_on,1,0,0,,10,,,81,127
56472,note_off,76,0,0,,4,,,52,127
56473,note_on,1,0,0,,2,,,74,127
56473,note_on,0,0,0,,5,,,53,127
56625,note_off,152,0,0,,10,,,81,127
56702,note_off,77,0,0,,5,,,53,127
56702,note_off,0,0,0,,2,,,74,127
56703,note_on,1,0,0,,11,,,82,127
56703,note_on,0,0,0,,7,,,55,127
56932,note_off,229,0,0,,7,,,55,127
56932,note_off,0,0,0,,11,,,82,127
56933,note_on,1,0,0,,2,,,74,127
56933,note_on,0,0,0,,10,,,57,127
57162,note_off,229,0,0,,2,,,74,127
57163,note_on,1,0,0,,1,,,73,127
57163,note_on,0,0,0,,10,,,45,127
57392,note_off,229,0,0,,10,,,45,127
57392,note_off,0,0,0,,1,,,73,127
57392,note_off,0,0,0,,10,,,57,127
57393,note_on,1,0,0,,2,,,74,127
57393,note_on,0,0,0,,2,,,50,127
57622,note_off,229,0,0,,2,,,50,127
57623,note_on,1,0,0,,2,,,86,127
57623,note_on,0,0,0,,4,,,52,127
57852,note_off,229,0,0,,4,,,52,127
57852,note_off,0,0,0,,2,,,86,127
57852,note_off,0,0,0,,2,,,74,127
57853,note_on,1,0,0,,2,,,74,127
57853,note_on,0,0,0,,5,,,53,127
58082,note_off,229,0,0,,5,,,53,127
58082,note_off,0,0,0,,2,,,74,127
58083,note_on,1,0,0,,2,,,62,127
58083,note_on,0,0,0,,7,,,55,127
58312,note_off,229,0,0,,7,,,55,127
58313,note_on,1,0,0,,10,,,57,127
58542,note_off,229,0,0,,10,,,57,127
58542,note_off,0,0,0,,2,,,62,127
58543,note_on,1,0,0,,1,,,61,127
58543,note_on,0,0,0,,10,,,45,127
58772,note_off,229,0,0,,10,,,45,127
58772,note_off,0,0,0,,1,,,61,127
58773,note_on,1,0,0,,2,,,62,127
58773,note_on,0,0,0,,2,,,50,127
59002,note_off,229,0,0,,2,,,50,127
59002,note_off,0,0,0,,2,,,62,127
59003,note_on,1,0,0,,2,,,86,127
59003,note_on,0,0,0,,4,,,52,127
59232,note_off,229,0,0,,4,,,52,127
59232,note_off,0,0,0,,2,,,86,127
59233,note_on,1,0,0,,2,,,74,127
59233,note_on,0,0,0,,5,,,53,127
59462,note_off,229,0,0,,5,,,53,127
59462,note_off,0,0,0,,2,,,74,127
59463,note_on,1,0,0,,2,,,62,127
59463,note_on,0,0,0,,7,,,55,127
59692,note_off,229,0,0,,7,,,55,127
59693,note_on,1,0,0,,10,,,57,127
59922,note_off,229,0,0,,10,,,57,127
59922,note_off,0,0,0,,2,,,62,127
59923,note_on,1,0,0,,1,,,61,127
59923,note_on,0,0,0,,10,,,45,127
60152,note_off,229,0,0,,10,,,45,127
60152,note_off,0,0,0,,1,,,61,127
60153,note_on,1,0,0,,2,,,62,127
60153,note_on,0,0,0,,2,,,50,127
60382,note_off,229,0,0,,2,,,50,127
60382,note_off,0,0,0,,2,,,62,127
60383,note_on,1,0,0,,2,,,74,127
60383,note_on,0,0,0,,4,,,52,127
60612,note_off,229,0,0,,4,,,52,127
60612,note_off,0,0,0,,2,,,74,127
60613,note_on,1,0,0,,2,,,86,127
60613,note_on,0,0,0,,5,,,53,127
60842,note_off,229,0,0,,5,,,53,127
60842,note_off,0,0,0,,2,,,86,127
60843,note_on,1,0,0,,2,,,62,127
60843,note_on,0,0,0,,7,,,55,127
61072,note_off,229,0,0,,7,,,55,127
61073,note_on,1,0,0,,10,,,57,127
61302,note_off,229,0,0,,10,,,57,127
61302,note_off,0,0,0,,2,,,62,127
61303,note_on,1,0,0,,1,,,61,127
61303,note_on,0,0,0,,10,,,45,127
61532,note_off,229,0,0,,10,,,45,127
61532,note_off,0,0,0,,1,,,61,127
61533,note_on,1,0,0,,2,,,62,127
61533,note_on,0,0,0,,2,,,38,127
62223,note_off,690,0,0,,2,,,38,127
62333,note_off,110,0,0,,2,,,62,127
62454,note_on,121,0,0,,10,,,69,127
62760,note_off,306,0,0,,10,,,69,127
62761,note_on,1,0,0,,11,,,70,127
62837,note_off,76,0,0,,11,,,70,127
62838,note_on,1,0,0,,0,,,72,127
62914,note_off,76,0,0,,0,,,72,127
62915,note_on,1,0,0,,10,,,69,127
63144,note_off,229,0,0,,10,,,69,127
63145,note_on,1,0,0,,3,,,63,127
63145,note_on,0,0,0,,7,,,67,127
63374,note_off,229,0,0,,7,,,67,127
63374,note_off,0,0,0,,3,,,63,127
63375,note_on,1,0,0,,2,,,62,127
63375,note_on,0,0,0,,7,,,67,127
63604,note_off,229,0,0,,7,,,67,127
63604,note_off,0,0,0,,2,,,62,127
63605,note_on,1,0,0,,0,,,60,127
63605,note_on,0,0,0,,6,,,66,127
63834,note_off,229,0,0,,6,,,66,127
63834,note_off,0,0,0,,0,,,60,127
63835,note_on,1,0,0,,11,,,58,127
63835,note_on,0,0,0,,11,,,70,127
64064,note_off,229,0,0,,11,,,58,127
64065,note_on,1,0,0,,10,,,57,127
64141,note_off,76,0,0,,11,,,70,127
64142,note_on,1,0,0,,0,,,72,127
64218,note_off,76,0,0,,0,,,72,127
64219,note_on,1,0,0,,2,,,74,127
64295,note_off,76,0,0,,2,,,74,127
64295,note_off,0,0,0,,10,,,57,127
64296,note_on,1,0,0,,7,,,55,127
64296,note_on,0,0,0,,11,,,70,127
64525,note_off,229,0,0,,11,,,70,127
64525,note_off,0,0,0,,7,,,55,127
64526,note_on,1,0,0,,5,,,53,127
64526,note_on,0,0,0,,10,,,69,127
64755,note_off,229,0,0,,10,,,69,127
64755,note_off,0,0,0,,5,,,53,127
64756,note_on,1,0,0,,4,,,52,127
64756,note_on,0,0,0,,10,,,69,127
64985,note_off,229,0,0,,10,,,69,127
64985,note_off,0,0,0,,4,,,52,127
64986,note_on,1,0,0,,2,,,50,127
64986,note_on,0,0,0,,8,,,68,127
65215,note_off,229,0,0,,8,,,68,127
65215,note_off,0,0,0,,2,,,50,127
65216,note_on,1,0,0,,1,,,49,127
65216,note_on,0,0,0,,4,,,76,127
65445,note_off,229,0,0,,1,,,49,127
65446,note_on,1,0,0,,11,,,46,127
65522,note_off,76,0,0,,4,,,76,127
65523,note_on,1,0,0,,5,,,77,127
65599,note_off,76,0,0,,5,,,77,127
65600,note_on,1,0,0,,7,,,79,127
65676,note_off,76,0,0,,7,,,79,127
65676,note_off,0,0,0,,11,,,46,127
65677,note_on,1,0,0,,10,,,45,127
65677,note_on,0,0,0,,4,,,76,127
65906,note_off,229,0,0,,4,,,76,127
65906,note_off,0,0,0,,10,,,45,127
65907,note_on,1,0,0,,11,,,58,127
65907,note_on,0,0,0,,11,,,46,127
65907,note_on,0,0,0,,2,,,74,127
66136,note_off,229,0,0,,2,,,74,127
66136,note_off,0,0,0,,11,,,46,127
66136,note_off,0,0,0,,11,,,58,127
66137,note_on,1,0,0,,10,,,57,127
66137,note_on,0,0,0,,10,,,45,127
66137,note_on,0,0,0,,1,,,73,127
66366,note_off,229,0,0,,1,,,73,127
66366,note_off,0,0,0,,10,,,45,127
66366,note_off,0,0,0,,10,,,57,127
66367,note_on,1,0,0,,7,,,43,127
66367,note_on,0,0,0,,7,,,55,127
66367,note_on,0,0,0,,11,,,70,127
66596,note_off,229,0,0,,11,,,70,127
66596,note_off,0,0,0,,7,,,55,127
66596,note_off,0,0,0,,7,,,43,127
66597,note_on,1,0,0,,5,,,53,127
66597,note_on,0,0,0,,5,,,41,127
66597,note_on,0,0,0,,10,,,69,127
66597,note_on,0,0,0,,2,,,74,127
66826,note_off,229,0,0,,10,,,69,127
66826,note_off,0,0,0,,5,,,41,127
66826,note_off,0,0,0,,5,,,53,127
66827,note_on,1,0,0,,4,,,40,127
66827,note_on,0,0,0,,4,,,52,127
66827,note_on,0,0,0,,7,,,67,127
67056,note_off,229,0,0,,7,,,67,127
67056,note_off,0,0,0,,4,,,52,127
67056,note_off,0,0,0,,4,,,40,127
67056,note_off,0,0,0,,2,,,74,127
67057,note_on,1,0,0,,2,,,50,127
67057,note_on,0,0,0,,2,,,38,127
67057,note_on,0,0,0,,10,,,69,127
67057,note_on,0,0,0,,5,,,65,127
67286,note_off,229,0,0,,5,,,65,127
67286,note_off,0,0,0,,2,,,38,127
67286,note_off,0,0,0,,2,,,50,127
67287,note_on,1,0,0,,0,,,36,127
67287,note_on,0,0,0,,0,,,48,127
67287,note_on,0,0,0,,4,,,64,127
67516,note_off,229,0,0,,4,,,64,127
67516,note_off,0,0,0,,0,,,48,127
67516,note_off,0,0,0,,0,,,36,127
67517,note_on,1,0,0,,11,,,34,127
67517,note_on,0,0,0,,11,,,46,127
67517,note_on,0,0,0,,2,,,62,127
67746,note_off,229,0,0,,10,,,69,127
67747,note_on,1,0,0,,7,,,67,127
67976,note_off,229,0,0,,7,,,67,127
67976,note_off,0,0,0,,11,,,46,127
67976,note_off,0,0,0,,11,,,34,127
67977,note_on,1,0,0,,10,,,33,127
67977,note_on,0,0,0,,10,,,45,127
67977,note_on,0,0,0,,5,,,65,127
68206,note_off,229,0,0,,5,,,65,127
68206,note_off,0,0,0,,2,,,62,127
68207,note_on,1,0,0,,1,,,61,127
68207,note_on,0,0,0,,4,,,64,127
68321,note_off,114,0,0,,4,,,64,127
68321,note_off,0,0,0,,1,,,61,127
68322,note_on,1,0,0,,2,,,62,127
68322,note_on,0,0,0,,12,,,59,127
68436,note_off,114,0,0,,12,,,59,127
68436,note_off,0,0,0,,2,,,62,127
68437,note_on,1,0,0,,10,,,57,127
68437,note_on,0,0,0,,4,,,64,127
68666,note_off,229,0,0,,4,,,64,127
68666,note_off,0,0,0,,10,,,57,127
68667,note_on,1,0,0,,2,,,62,127
68667,note_on,0,0,0,,5,,,65,127
68896,note_off,229,0,0,,5,,,65,127
68896,note_off,0,0,0,,2,,,62,127
68897,note_on,1,0,0,,4,,,64,127
68897,note_on,0,0,0,,10,,,57,127
69126,note_off,229,0,0,,10,,,57,127
69126,note_off,0,0,0,,4,,,64,127
69127,note_on,1,0,0,,2,,,62,127
69127,note_on,0,0,0,,5,,,65,127
69356,note_off,229,0,0,,5,,,65,127
69356,note_off,0,0,0,,2,,,62,127
69357,note_on,1,0,0,,4,,,64,127
69357,note_on,0,0,0,,10,,,57,127
70047,note_off,690,0,0,,10,,,57,127
70047,note_off,0,0,0,,4,,,64,127
70048,note_off,1,0,0,,10,,,45,127
70048,note_off,0,0,0,,10,,,33,127
70739,note_on,691,0,0,,0,,,72,127
70739,note_on,0,0,0,,0,,,84,127
70969,note_on,230,0,0,,5,,,65,127
71198,note_off,229,0,0,,5,,,65,127
71199,note_on,1,0,0,,10,,,69,127
71427,note_off,228,0,0,,10,,,69,127
71428,note_off,1,0,0,,0,,,84,127
71428,note_off,0,0,0,,0,,,72,127
71429,note_on,1,0,0,,0,,,72,127
71429,note_on,0,0,0,,11,,,82,127
71429,note_on,0,0,0,,0,,,84,127
71659,note_on,230,0,0,,7,,,67,127
71888,note_off,229,0,0,,7,,,67,127
71889,note_on,1,0,0,,4,,,64,127
72117,note_off,228,0,0,,4,,,64,127
72118,note_off,1,0,0,,0,,,84,127
72118,note_off,0,0,0,,11,,,82,127
72118,note_off,0,0,0,,0,,,72,127
72119,note_on,1,0,0,,10,,,81,127
72119,note_on,0,0,0,,0,,,84,127
72119,note_on,0,0,0,,0,,,72,127
72349,note_on,230,0,0,,5,,,65,127
72578,note_off,229,0,0,,5,,,65,127
72579,note_on,1,0,0,,10,,,69,127
72808,note_off,229,0,0,,10,,,69,127
72808,note_off,0,0,0,,0,,,72,127
72808,note_off,0,0,0,,0,,,84,127
72808,note_off,0,0,0,,10,,,81,127
72809,note_on,1,0,0,,7,,,67,127
72809,note_on,0,0,0,,11,,,82,127
72809,note_on,0,0,0,,4,,,76,127
72809,note_on,0,0,0,,7,,,79,127
72809,note_on,0,0,0,,0,,,72,127
73038,note_off,229,0,0,,7,,,67,127
73039,note_on,1,0,0,,0,,,60,127
73268,note_off,229,0,0,,0,,,60,127
73269,note_on,1,0,0,,4,,,64,127
73498,note_off,229,0,0,,4,,,64,127
73498,note_off,0,0,0,,0,,,72,127
73498,note_off,0,0,0,,7,,,79,127
73498,note_off,0,0,0,,4,,,76,127
73498,note_off,0,0,0,,11,,,82,127
73499,note_on,1,0,0,,5,,,65,127
73499,note_on,0,0,0,,5,,,77,127
73499,note_on,0,0,0,,10,,,81,127
73499,note_on,0,0,0,,0,,,72,127
73728,note_off,229,0,0,,10,,,81,127
73728,note_off,0,0,0,,5,,,77,127
73728,note_off,0,0,0,,5,,,65,127
73729,note_on,1,0,0,,10,,,69,127
73729,note_on,0,0,0,,5,,,77,127
73958,note_off,229,0,0,,5,,,77,127
73958,note_off,0,0,0,,10,,,69,127
73959,note_on,1,0,0,,7,,,67,127
73959,note_on,0,0,0,,7,,,79,127
74188,note_off,229,0,0,,7,,,79,127
74188,note_off,0,0,0,,7,,,67,127
74188,note_off,0,0,0,,0,,,72,127
74189,note_on,1,0,0,,5,,,65,127
74189,note_on,0,0,0,,10,,,81,127
74418,note_off,229,0,0,,5,,,65,127
74419,note_on,1,0,0,,4,,,64,127
74648,note_off,229,0,0,,4,,,64,127
74648,note_off,0,0,0,,10,,,81,127
74649,note_on,1,0,0,,2,,,62,127
74649,note_on,0,0,0,,0,,,84,127
74705,note_off,56,0,0,,0,,,84,127
74706,note_on,1,0,0,,12,,,83,127
74762,note_off,56,0,0,,12,,,83,127
74763,note_on,1,0,0,,10,,,81,127
74819,note_off,56,0,0,,10,,,81,127
74820,note_on,1,0,0,,12,,,83,127
74876,note_off,56,0,0,,12,,,83,127
74876,note_off,0,0,0,,2,,,62,127
74877,note_on,1,0,0,,0,,,60,127
74877,note_on,0,0,0,,0,,,84,127
75106,note_off,229,0,0,,0,,,60,127
75107,note_on,1,0,0,,7,,,67,127
75107,note_on,0,0,0,,4,,,64,127
75107,note_on,0,0,0,,0,,,72,127
75336,note_off,229,0,0,,0,,,72,127
75336,note_off,0,0,0,,4,,,64,127
75336,note_off,0,0,0,,7,,,67,127
75336,note_off,0,0,0,,0,,,84,127
75337,note_on,1,0,0,,5,,,65,127
75337,note_on,0,0,0,,2,,,62,127
75337,note_on,0,0,0,,2,,,74,127
75566,note_off,229,0,0,,2,,,74,127
75566,note_off,0,0,0,,2,,,62,127
75566,note_off,0,0,0,,5,,,65,127
75567,note_on,1,0,0,,4,,,64,127
75567,note_on,0,0,0,,0,,,60,127
75567,note_on,0,0,0,,4,,,76,127
75796,note_off,229,0,0,,0,,,60,127
75796,note_off,0,0,0,,4,,,64,127
75797,note_on,1,0,0,,12,,,59,127
75797,note_on,0,0,0,,2,,,62,127
76026,note_off,229,0,0,,2,,,62,127
76026,note_off,0,0,0,,12,,,59,127
76026,note_off,0,0,0,,4,,,76,127
76027,note_on,1,0,0,,0,,,60,127
76027,note_on,0,0,0,,10,,,57,127
76027,note_on,0,0,0,,7,,,79,127
76083,note_off,56,0,0,,7,,,79,127
76084,note_on,1,0,0,,6,,,78,127
76140,note_off,56,0,0,,6,,,78,127
76141,note_on,1,0,0,,4,,,76,127
76197,note_off,56,0,0,,4,,,76,127
76198,note_on,1,0,0,,6,,,78,127
76254,note_off,56,0,0,,6,,,78,127
76254,note_off,0,0,0,,10,,,57,127
76254,note_off,0,0,0,,0,,,60,127
76255,note_on,1,0,0,,7,,,55,127
76255,note_on,0,0,0,,7,,,79,127
76369,note_off,114,0,0,,7,,,79,127
76370,note_on,1,0,0,,2,,,74,127
76484,note_off,114,0,0,,2,,,74,127
76485,note_on,1,0,0,,12,,,71,127
76599,note_off,114,0,0,,12,,,71,127
76600,note_on,1,0,0,,7,,,67,127
76714,note_off,114,0,0,,7,,,67,127
76715,note_on,1,0,0,,2,,,62,127
76829,note_off,114,0,0,,2,,,62,127
76830,note_on,1,0,0,,12,,,59,127
76944,note_off,114,0,0,,12,,,59,127
76944,note_off,0,0,0,,7,,,55,127
76945,note_on,1,0,0,,7,,,55,127
77059,note_off,114,0,0,,7,,,55,127
77060,note_on,1,0,0,,2,,,50,127
77174,note_off,114,0,0,,2,,,50,127
77175,note_on,1,0,0,,12,,,47,127
77289,note_off,114,0,0,,12,,,47,127
77290,note_on,1,0,0,,7,,,43,127
77404,note_off,114,0,0,,7,,,43,127
77405,note_on,1,0,0,,2,,,38,127
77519,note_off,114,0,0,,2,,,38,127
77520,note_on,1,0,0,,12,,,35,127
77634,note_off,114,0,0,,12,,,35,127
77635,note_on,1,0,0,,7,,,31,127
78555,note_off,920,0,0,,7,,,31,127
79017,note_on,462,0,0,,0,,,60,127
79017,note_on,0,0,0,,0,,,72,127
79017,note_on,0,0,0,,11,,,82,127
79017,note_on,0,0,0,,7,,,79,127
79246,note_off,229,0,0,,0,,,60,127
79247,note_on,1,0,0,,4,,,64,127
79476,note_off,229,0,0,,4,,,64,127
79476,note_off,0,0,0,,7,,,79,127
79476,note_off,0,0,0,,11,,,82,127
79477,note_on,1,0,0,,5,,,65,127
79477,note_on,0,0,0,,5,,,77,127
79477,note_on,0,0,0,,8,,,80,127
79706,note_off,229,0,0,,8,,,80,127
79706,note_off,0,0,0,,5,,,77,127
79706,note_off,0,0,0,,5,,,65,127
79706,note_off,0,0,0,,0,,,72,127
79707,note_on,1,0,0,,0,,,60,127
79707,note_on,0,0,0,,7,,,79,127
79707,note_on,0,0,0,,0,,,72,127
79707,note_on,0,0,0,,4,,,76,127
79936,note_off,229,0,0,,0,,,60,127
79937,note_on,1,0,0,,7,,,67,127
80166,note_off,229,0,0,,7,,,67,127
80166,note_off,0,0,0,,4,,,76,127
80166,note_off,0,0,0,,0,,,72,127
80166,note_off,0,0,0,,7,,,79,127
80167,note_on,1,0,0,,8,,,68,127
80167,note_on,0,0,0,,5,,,77,127
80167,note_on,0,0,0,,0,,,72,127
80396,note_off,229,0,0,,0,,,72,127
80396,note_off,0,0,0,,5,,,77,127
80396,note_off,0,0,0,,8,,,68,127
80397,note_on,1,0,0,,0,,,60,127
80397,note_on,0,0,0,,1,,,73,127
80397,note_on,0,0,0,,4,,,76,127
80626,note_off,229,0,0,,0,,,60,127
80627,note_on,1,0,0,,11,,,70,127
80856,note_off,229,0,0,,11,,,70,127
80856,note_off,0,0,0,,4,,,76,127
80856,note_off,0,0,0,,1,,,73,127
80857,note_on,1,0,0,,8,,,68,127
80857,note_on,0,0,0,,5,,,77,127
80857,note_on,0,0,0,,0,,,72,127
81086,note_off,229,0,0,,0,,,72,127
81086,note_off,0,0,0,,5,,,77,127
81086,note_off,0,0,0,,8,,,68,127
81087,note_on,1,0,0,,0,,,60,127
81087,note_on,0,0,0,,4,,,76,127
81087,note_on,0,0,0,,7,,,79,127
81087,note_on,0,0,0,,11,,,70,127
81316,note_off,229,0,0,,0,,,60,127
81317,note_on,1,0,0,,7,,,67,127
81546,note_off,229,0,0,,7,,,67,127
81546,note_off,0,0,0,,11,,,70,127
81546,note_off,0,0,0,,7,,,79,127
81546,note_off,0,0,0,,4,,,76,127
81547,note_on,1,0,0,,5,,,65,127
81547,note_on,0,0,0,,8,,,80,127
81547,note_on,0,0,0,,0,,,72,127
81547,note_on,0,0,0,,5,,,77,127
81776,note_off,229,0,0,,5,,,77,127
81776,note_off,0,0,0,,0,,,72,127
81776,note_off,0,0,0,,8,,,80,127
81776,note_off,0,0,0,,5,,,65,127
81777,note_on,1,0,0,,4,,,64,127
81777,note_on,0,0,0,,0,,,72,127
81777,note_on,0,0,0,,4,,,76,127
81777,note_on,0,0,0,,7,,,79,127
81777,note_on,0,0,0,,11,,,82,127
82006,note_off,229,0,0,,4,,,64,127
82007,note_on,1,0,0,,0,,,60,127
82236,note_off,229,0,0,,0,,,60,127
82236,note_off,0,0,0,,11,,,82,127
82236,note_off,0,0,0,,7,,,79,127
82236,note_off,0,0,0,,4,,,76,127
82236,note_off,0,0,0,,0,,,72,127
82237,note_on,1,0,0,,5,,,65,127
82237,note_on,0,0,0,,8,,,80,127
82237,note_on,0,0,0,,5,,,77,127
82466,note_off,229,0,0,,5,,,77,127
82466,note_off,0,0,0,,8,,,80,127
82466,note_off,0,0,0,,5,,,65,127
82467,note_on,1,0,0,,11,,,58,127
82467,note_on,0,0,0,,1,,,73,127
82467,note_on,0,0,0,,8,,,80,127
82696,note_off,229,0,0,,8,,,80,127
82696,note_off,0,0,0,,11,,,58,127
82697,note_on,1,0,0,,0,,,60,127
82697,note_on,0,0,0,,7,,,79,127
82926,note_off,229,0,0,,7,,,79,127
82926,note_off,0,0,0,,0,,,60,127
82927,note_on,1,0,0,,1,,,61,127
82927,note_on,0,0,0,,5,,,77,127
83156,note_off,229,0,0,,5,,,77,127
83156,note_off,0,0,0,,1,,,61,127
83156,note_off,0,0,0,,1,,,73,127
83157,note_on,1,0,0,,0,,,48,127
83157,note_on,0,0,0,,5,,,77,127
83157,note_on,0,0,0,,0,,,72,127
83617,note_off,460,0,0,,5,,,77,127
83618,note_on,1,0,0,,7,,,79,127
83847,note_off,229,0,0,,0,,,72,127
83847,note_off,0,0,0,,0,,,48,127
83848,note_off,1,0,0,,7,,,79,127
84539,note_on,691,0,0,,8,,,80,127
84539,note_on,0,0,0,,8,,,68,127
84539,note_on,0,0,0,,5,,,77,127
84769,note_on,230,0,0,,1,,,61,127
84998,note_off,229,0,0,,1,,,61,127
84999,note_on,1,0,0,,5,,,65,127
85227,note_off,228,0,0,,5,,,65,127
85228,note_off,1,0,0,,5,,,77,127
85228,note_off,0,0,0,,8,,,68,127
85228,note_off,0,0,0,,8,,,80,127
85229,note_on,1,0,0,,8,,,80,127
85229,note_on,0,0,0,,6,,,78,127
85229,note_on,0,0,0,,8,,,68,127
85459,note_on,230,0,0,,3,,,63,127
85688,note_off,229,0,0,,3,,,63,127
85689,note_on,1,0,0,,0,,,60,127
85917,note_off,228,0,0,,0,,,60,127
85918,note_off,1,0,0,,8,,,68,127
85918,note_off,0,0,0,,6,,,78,127
85918,note_off,0,0,0,,8,,,80,127
85919,note_on,1,0,0,,5,,,77,127
85919,note_on,0,0,0,,8,,,80,127
85919,note_on,0,0,0,,8,,,68,127
86149,note_on,230,0,0,,1,,,61,127
86378,note_off,229,0,0,,1,,,61,127
86379,note_on,1,0,0,,5,,,65,127
86608,note_off,229,0,0,,5,,,65,127
86608,note_off,0,0,0,,8,,,68,127
86608,note_off,0,0,0,,8,,,80,127
86608,note_off,0,0,0,,5,,,77,127
86609,note_on,1,0,0,,3,,,63,127
86609,note_on,0,0,0,,0,,,72,127
86609,note_on,0,0,0,,3,,,75,127
86609,note_on,0,0,0,,6,,,78,127
86609,note_on,0,0,0,,8,,,68,127
86838,note_off,229,0,0,,3,,,63,127
86839,note_on,1,0,0,,8,,,56,127
87068,note_off,229,0,0,,8,,,56,127
87069,note_on,1,0,0,,0,,,60,127
87298,note_off,229,0,0,,0,,,60,127
87298,note_off,0,0,0,,8,,,68,127
87298,note_off,0,0,0,,6,,,78,127
87298,note_off,0,0,0,,3,,,75,127
87298,note_off,0,0,0,,0,,,72,127
87299,note_on,1,0,0,,1,,,61,127
87299,note_on,0,0,0,,8,,,68,127
87299,note_on,0,0,0,,5,,,77,127
87528,note_off,229,0,0,,5,,,77,127
87528,note_off,0,0,0,,1,,,61,127
87529,note_on,1,0,0,,5,,,65,127
87529,note_on,0,0,0,,1,,,73,127
87758,note_off,229,0,0,,1,,,73,127
87758,note_off,0,0,0,,5,,,65,127
87759,note_on,1,0,0,,3,,,63,127
87759,note_on,0,0,0,,3,,,75,127
87988,note_off,229,0,0,,3,,,75,127
87988,note_off,0,0,0,,3,,,63,127
87988,note_off,0,0,0,,8,,,68,127
87989,note_on,1,0,0,,5,,,65,127
87989,note_on,0,0,0,,1,,,61,127
87989,note_on,0,0,0,,5,,,77,127
88218,note_off,229,0,0,,1,,,61,127
88218,note_off,0,0,0,,5,,,65,127
88219,note_on,1,0,0,,0,,,60,127
88219,note_on,0,0,0,,3,,,63,127
88448,note_off,229,0,0,,3,,,63,127
88448,note_off,0,0,0,,0,,,60,127
88448,note_off,0,0,0,,5,,,77,127
88449,note_on,1,0,0,,1,,,61,127
88449,note_on,0,0,0,,11,,,58,127
88449,note_on,0,0,0,,8,,,80,127
88505,note_off,56,0,0,,8,,,80,127
88506,note_on,1,0,0,,7,,,79,127
88562,note_off,56,0,0,,7,,,79,127
88563,note_on,1,0,0,,5,,,77,127
88619,note_off,56,0,0,,5,,,77,127
88620,note_on,1,0,0,,7,,,79,127
88676,note_off,56,0,0,,7,,,79,127
88676,note_off,0,0,0,,11,,,58,127
88676,note_off,0,0,0,,1,,,61,127
88677,note_on,1,0,0,,0,,,60,127
88677,note_on,0,0,0,,8,,,56,127
88677,note_on,0,0,0,,8,,,80,127
88907,note_on,230,0,0,,3,,,75,127
89136,note_off,229,0,0,,3,,,75,127
89136,note_off,0,0,0,,8,,,80,127
89136,note_off,0,0,0,,8,,,56,127
89136,note_off,0,0,0,,0,,,60,127
89137,note_on,1,0,0,,7,,,55,127
89137,note_on,0,0,0,,11,,,58,127
89137,note_on,0,0,0,,0,,,84,127
89193,note_off,56,0,0,,0,,,84,127
89194,note_on,1,0,0,,11,,,82,127
89250,note_off,56,0,0,,11,,,82,127
89251,note_on,1,0,0,,8,,,80,127
89307,note_off,56,0,0,,8,,,80,127
89308,note_on,1,0,0,,11,,,82,127
89364,note_off,56,0,0,,11,,,82,127
89364,note_off,0,0,0,,11,,,58,127
89364,note_off,0,0,0,,7,,,55,127
89365,note_on,1,0,0,,8,,,56,127
89365,note_on,0,0,0,,0,,,60,127
89365,note_on,0,0,0,,0,,,84,127
89594,note_off,229,0,0,,0,,,60,127
89594,note_off,0,0,0,,8,,,56,127
89595,note_on,1,0,0,,11,,,58,127
89595,note_on,0,0,0,,7,,,55,127
89824,note_off,229,0,0,,7,,,55,127
89824,note_off,0,0,0,,11,,,58,127
89824,note_off,0,0,0,,0,,,84,127
89825,note_on,1,0,0,,5,,,53,127
89825,note_on,0,0,0,,8,,,56,127
89825,note_on,0,0,0,,3,,,87,127
89881,note_off,56,0,0,,3,,,87,127
89882,note_on,1,0,0,,2,,,86,127
89938,note_off,56,0,0,,2,,,86,127
89939,note_on,1,0,0,,0,,,84,127
89995,note_off,56,0,0,,0,,,84,127
89996,note_on,1,0,0,,2,,,86,127
90052,note_off,56,0,0,,2,,,86,127
90052,note_off,0,0,0,,8,,,56,127
90052,note_off,0,0,0,,5,,,53,127
90053,note_on,1,0,0,,3,,,39,127
90053,note_on,0,0,0,,3,,,87,127
90167,note_off,114,0,0,,3,,,87,127
90168,note_on,1,0,0,,11,,,82,127
90282,note_off,114,0,0,,11,,,82,127
90283,note_on,1,0,0,,7,,,79,127
90397,note_off,114,0,0,,7,,,79,127
90398,note_on,1,0,0,,3,,,75,127
90512,note_off,114,0,0,,3,,,75,127
90513,note_on,1,0,0,,11,,,70,127
90627,note_off,114,0,0,,11,,,70,127
90628,note_on,1,0,0,,7,,,67,127
90742,note_off,114,0,0,,7,,,67,127
90742,note_off,0,0,0,,3,,,39,127
90743,note_on,1,0,0,,3,,,63,127
90857,note_off,114,0,0,,3,,,63,127
90858,note_on,1,0,0,,11,,,58,127
90972,note_off,114,0,0,,11,,,58,127
90973,note_on,1,0,0,,7,,,55,127
91087,note_off,114,0,0,,7,,,55,127
91088,note_on,1,0,0,,3,,,51,127
91202,note_off,114,0,0,,3,,,51,127
91203,note_on,1,0,0,,11,,,46,127
91317,note_off,114,0,0,,11,,,46,127
91318,note_on,1,0,0,,7,,,43,127
91432,note_off,114,0,0,,7,,,43,127
91433,note_on,1,0,0,,3,,,39,127
92353,note_off,920,0,0,,3,,,39,127
92815,note_on,462,0,0,,3,,,51,127
92815,note_on,0,0,0,,7,,,79,127
92815,note_on,0,0,0,,7,,,67,127
93045,note_on,230,0,0,,7,,,55,127
93275,note_on,230,0,0,,0,,,60,127
93448,note_off,173,0,0,,3,,,51,127
93504,note_off,56,0,0,,7,,,67,127
93504,note_off,0,0,0,,7,,,79,127
93505,note_on,1,0,0,,3,,,51,127
93505,note_on,0,0,0,,7,,,79,127
93505,note_on,0,0,0,,7,,,67,127
93678,note_off,173,0,0,,7,,,55,127
93736,note_on,58,0,0,,7,,,55,127
93909,note_off,173,0,0,,0,,,60,127
93967,note_on,58,0,0,,0,,,60,127
94140,note_off,173,0,0,,3,,,51,127
94196,note_off,56,0,0,,7,,,55,127
94196,note_off,0,0,0,,7,,,67,127
94196,note_off,0,0,0,,7,,,79,127
94197,note_on,1,0,0,,2,,,50,127
94197,note_on,0,0,0,,8,,,68,127
94197,note_on,0,0,0,,7,,,79,127
94427,note_on,230,0,0,,8,,,56,127
94600,note_off,173,0,0,,0,,,60,127
94658,note_on,58,0,0,,0,,,60,127
94831,note_off,173,0,0,,2,,,50,127
94887,note_off,56,0,0,,7,,,79,127
94887,note_off,0,0,0,,8,,,68,127
94888,note_on,1,0,0,,2,,,50,127
94888,note_on,0,0,0,,5,,,77,127
94888,note_on,0,0,0,,8,,,68,127
95061,note_off,173,0,0,,8,,,56,127
95119,note_on,58,0,0,,8,,,56,127
95292,note_off,173,0,0,,0,,,60,127
95350,note_on,58,0,0,,0,,,60,127
95350,note_on,0,0,0,,2,,,74,127
95523,note_off,173,0,0,,2,,,50,127
95579,note_off,56,0,0,,2,,,74,127
95579,note_off,0,0,0,,0,,,60,127
95579,note_off,0,0,0,,8,,,56,127
95579,note_off,0,0,0,,8,,,68,127
95579,note_off,0,0,0,,5,,,77,127
95580,note_on,1,0,0,,7,,,43,127
95580,note_on,0,0,0,,5,,,65,127
95580,note_on,0,0,0,,12,,,71,127
95580,note_on,0,0,0,,5,,,77,127
95810,note_on,230,0,0,,2,,,50,127
96040,note_on,230,0,0,,7,,,55,127
96213,note_off,173,0,0,,7,,,43,127
96269,note_off,56,0,0,,5,,,77,127
96269,note_off,0,0,0,,12,,,71,127
96269,note_off,0,0,0,,5,,,65,127
96270,note_on,1,0,0,,7,,,43,127
96270,note_on,0,0,0,,5,,,77,127
96270,note_on,0,0,0,,5,,,65,127
96270,note_on,0,0,0,,12,,,71,127
96443,note_off,173,0,0,,2,,,50,127
96501,note_on,58,0,0,,2,,,50,127
96674,note_off,173,0,0,,7,,,55,127
96732,note_on,58,0,0,,7,,,55,127
96905,note_off,173,0,0,,7,,,43,127
96958,note_off,53,0,0,,2,,,50,127
96962,note_off,4,0,0,,12,,,71,127
96962,note_off,0,0,0,,5,,,65,127
96962,note_off,0,0,0,,5,,,77,127
96963,note_off,1,0,0,,7,,,55,127
96963,note_on,0,0,0,,8,,,44,127
96963,note_on,0,0,0,,5,,,77,127
96963,note_on,0,0,0,,5,,,65,127
96963,note_on,0,0,0,,0,,,72,127
97193,note_on,230,0,0,,0,,,48,127
97423,note_on,230,0,0,,5,,,53,127
97596,note_off,173,0,0,,8,,,44,127
97652,note_off,56,0,0,,0,,,72,127
97652,note_off,0,0,0,,5,,,65,127
97652,note_off,0,0,0,,5,,,77,127
97653,note_on,1,0,0,,8,,,44,127
97653,note_on,0,0,0,,5,,,77,127
97653,note_on,0,0,0,,0,,,72,127
97653,note_on,0,0,0,,5,,,65,127
97826,note_off,173,0,0,,0,,,48,127
97884,note_on,58,0,0,,0,,,48,127
98057,note_off,173,0,0,,5,,,53,127
98115,note_on,58,0,0,,5,,,53,127
98288,note_off,173,0,0,,8,,,44,127
98341,note_off,53,0,0,,0,,,48,127
98345,note_off,4,0,0,,5,,,65,127
98345,note_off,0,0,0,,0,,,72,127
98345,note_off,0,0,0,,5,,,77,127
98346,note_on,1,0,0,,12,,,47,127
98346,note_on,0,0,0,,2,,,74,127
98346,note_on,0,0,0,,5,,,77,127
98346,note_on,0,0,0,,5,,,65,127
98575,note_off,229,0,0,,5,,,53,127
98576,note_on,1,0,0,,5,,,53,127
98806,note_on,230,0,0,,7,,,55,127
98979,note_off,173,0,0,,12,,,47,127
99035,note_off,56,0,0,,5,,,65,127
99035,note_off,0,0,0,,5,,,77,127
99035,note_off,0,0,0,,2,,,74,127
99036,note_on,1,0,0,,12,,,47,127
99036,note_on,0,0,0,,2,,,74,127
99036,note_on,0,0,0,,5,,,77,127
99036,note_on,0,0,0,,5,,,65,127
99209,note_off,173,0,0,,5,,,53,127
99267,note_on,58,0,0,,5,,,53,127
99440,note_off,173,0,0,,7,,,55,127
99498,note_on,58,0,0,,7,,,55,127
99671,note_off,173,0,0,,12,,,47,127
99724,note_off,53,0,0,,5,,,53,127
99728,note_off,4,0,0,,5,,,65,127
99728,note_off,0,0,0,,5,,,77,127
99728,note_off,0,0,0,,2,,,74,127
99729,note_on,1,0,0,,0,,,48,127
99729,note_on,0,0,0,,5,,,65,127
99729,note_on,0,0,0,,2,,,74,127
99729,note_on,0,0,0,,5,,,77,127
99959,note_on,230,0,0,,5,,,53,127
100132,note_off,173,0,0,,7,,,55,127
100190,note_on,58,0,0,,8,,,56,127
100363,note_off,173,0,0,,0,,,48,127
100419,note_off,56,0,0,,5,,,77,127
100419,note_off,0,0,0,,2,,,74,127
100419,note_off,0,0,0,,5,,,65,127
100420,note_on,1,0,0,,0,,,48,127
100420,note_on,0,0,0,,5,,,77,127
100420,note_on,0,0,0,,5,,,65,127
100420,note_on,0,0,0,,2,,,74,127
100593,note_off,173,0,0,,5,,,53,127
100651,note_on,58,0,0,,5,,,53,127
100824,note_off,173,0,0,,8,,,56,127
100882,note_on,58,0,0,,8,,,56,127
101055,note_off,173,0,0,,0,,,48,127
101111,note_off,56,0,0,,2,,,74,127
101111,note_off,0,0,0,,5,,,65,127
101111,note_off,0,0,0,,5,,,77,127
101112,note_on,1,0,0,,12,,,47,127
101112,note_on,0,0,0,,5,,,77,127
101112,note_on,0,0,0,,5,,,65,127
101112,note_on,0,0,0,,2,,,74,127
101285,note_off,173,0,0,,5,,,53,127
101343,note_on,58,0,0,,2,,,50,127
101516,note_off,173,0,0,,8,,,56,127
101574,note_on,58,0,0,,8,,,56,127
101747,note_off,173,0,0,,12,,,47,127
101803,note_off,56,0,0,,2,,,74,127
101803,note_off,0,0,0,,5,,,65,127
101803,note_off,0,0,0,,5,,,77,127
101804,note_on,1,0,0,,12,,,47,127
101804,note_on,0,0,0,,2,,,74,127
101804,note_on,0,0,0,,5,,,77,127
101804,note_on,0,0,0,,5,,,65,127
101977,note_off,173,0,0,,2,,,50,127
102035,note_on,58,0,0,,2,,,50,127
102208,note_off,173,0,0,,8,,,56,127
102266,note_on,58,0,0,,8,,,56,127
102439,note_off,173,0,0,,12,,,47,127
102495,note_off,56,0,0,,8,,,56,127
102495,note_off,0,0,0,,5,,,65,127
102495,note_off,0,0,0,,5,,,77,127
102495,note_off,0,0,0,,2,,,74,127
102496,note_on,1,0,0,,10,,,45,127
102496,note_on,0,0,0,,2,,,74,127
102496,note_on,0,0,0,,5,,,77,127
102496,note_on,0,0,0,,5,,,65,127
102669,note_off,173,0,0,,2,,,50,127
102727,note_on,58,0,0,,2,,,50,127
102957,note_on,230,0,0,,10,,,57,127
103130,note_off,173,0,0,,10,,,45,127
103186,note_off,56,0,0,,5,,,65,127
103186,note_off,0,0,0,,5,,,77,127
103186,note_off,0,0,0,,2,,,74,127
103187,note_on,1,0,0,,10,,,45,127
103187,note_on,0,0,0,,5,,,77,127
103187,note_on,0,0,0,,5,,,65,127
103187,note_on,0,0,0,,2,,,74,127
103360,note_off,173,0,0,,2,,,50,127
103418,note_on,58,0,0,,2,,,50,127
103591,note_off,173,0,0,,10,,,57,127
103649,note_on,58,0,0,,10,,,57,127
103822,note_off,173,0,0,,10,,,45,127
103878,note_off,56,0,0,,2,,,74,127
103878,note_off,0,0,0,,5,,,65,127
103878,note_off,0,0,0,,5,,,77,127
103879,note_on,1,0,0,,10,,,45,127
103879,note_on,0,0,0,,10,,,69,127
103879,note_on,0,0,0,,0,,,72,127
103879,note_on,0,0,0,,3,,,75,127
103879,note_on,0,0,0,,6,,,78,127
104052,note_off,173,0,0,,2,,,50,127
104110,note_on,58,0,0,,0,,,48,127
104283,note_off,173,0,0,,10,,,57,127
104341,note_on,58,0,0,,10,,,57,127
104514,note_off,173,0,0,,10,,,45,127
104570,note_off,56,0,0,,10,,,57,127
104570,note_off,0,0,0,,6,,,78,127
104570,note_off,0,0,0,,3,,,75,127
104570,note_off,0,0,0,,0,,,72,127
104570,note_off,0,0,0,,10,,,69,127
104571,note_on,1,0,0,,7,,,43,127
104571,note_on,0,0,0,,3,,,75,127
104571,note_on,0,0,0,,7,,,79,127
104571,note_on,0,0,0,,0,,,72,127
104571,note_on,0,0,0,,7,,,67,127
104744,note_off,173,0,0,,0,,,48,127
104802,note_on,58,0,0,,3,,,51,127
105032,note_on,230,0,0,,7,,,55,127
105205,note_off,173,0,0,,7,,,43,127
105261,note_off,56,0,0,,7,,,55,127
105261,note_off,0,0,0,,7,,,67,127
105261,note_off,0,0,0,,0,,,72,127
105261,note_off,0,0,0,,7,,,79,127
105261,note_off,0,0,0,,3,,,75,127
105262,note_on,1,0,0,,6,,,42,127
105262,note_on,0,0,0,,2,,,74,127
105262,note_on,0,0,0,,10,,,69,127
105262,note_on,0,0,0,,10,,,81,127
105435,note_off,173,0,0,,3,,,51,127
105493,note_on,58,0,0,,2,,,50,127
105723,note_on,230,0,0,,10,,,57,127
105896,note_off,173,0,0,,6,,,42,127
105952,note_off,56,0,0,,10,,,57,127
105952,note_off,0,0,0,,10,,,81,127
105952,note_off,0,0,0,,10,,,69,127
105952,note_off,0,0,0,,2,,,74,127
105953,note_on,1,0,0,,7,,,43,127
105953,note_on,0,0,0,,11,,,70,127
105953,note_on,0,0,0,,2,,,74,127
105953,note_on,0,0,0,,11,,,82,127
106126,note_off,173,0,0,,2,,,50,127
106184,note_on,58,0,0,,2,,,50,127
106414,note_on,230,0,0,,7,,,55,127
106587,note_off,173,0,0,,7,,,43,127
106643,note_off,56,0,0,,7,,,55,127
106643,note_off,0,0,0,,2,,,50,127
106643,note_off,0,0,0,,11,,,82,127
106643,note_off,0,0,0,,2,,,74,127
106643,note_off,0,0,0,,11,,,70,127
106644,note_on,1,0,0,,0,,,60,127
106644,note_on,0,0,0,,3,,,51,127
106644,note_on,0,0,0,,7,,,55,127
106644,note_on,0,0,0,,0,,,72,127
106874,note_on,230,0,0,,0,,,84,127
107103,note_off,229,0,0,,0,,,84,127
107103,note_off,0,0,0,,0,,,72,127
107104,note_on,1,0,0,,10,,,81,127
107333,note_off,229,0,0,,10,,,81,127
107333,note_off,0,0,0,,7,,,55,127
107333,note_off,0,0,0,,3,,,51,127
107333,note_off,0,0,0,,0,,,60,127
107334,note_on,1,0,0,,7,,,55,127
107334,note_on,0,0,0,,0,,,60,127
107334,note_on,0,0,0,,3,,,51,127
107334,note_on,0,0,0,,10,,,81,127
107392,note_off,58,0,0,,10,,,81,127
107392,note_on,0,0,0,,7,,,79,127
107450,note_off,58,0,0,,7,,,79,127
107450,note_on,0,0,0,,10,,,81,127
107508,note_off,58,0,0,,10,,,81,127
107508,note_on,0,0,0,,7,,,79,127
107566,note_off,58,0,0,,7,,,79,127
107566,note_on,0,0,0,,6,,,78,127
107795,note_off,229,0,0,,6,,,78,127
107796,note_on,1,0,0,,7,,,79,127
108025,note_off,229,0,0,,7,,,79,127
108025,note_off,0,0,0,,3,,,51,127
108025,note_off,0,0,0,,0,,,60,127
108025,note_off,0,0,0,,7,,,55,127
108026,note_on,1,0,0,,0,,,60,127
108026,note_on,0,0,0,,2,,,50,127
108026,note_on,0,0,0,,10,,,57,127
108026,note_on,0,0,0,,10,,,81,127
108255,note_off,229,0,0,,10,,,81,127
108256,note_on,1,0,0,,6,,,78,127
108485,note_off,229,0,0,,6,,,78,127
108486,note_on,1,0,0,,0,,,72,127
108715,note_off,229,0,0,,0,,,72,127
108715,note_off,0,0,0,,10,,,57,127
108715,note_off,0,0,0,,2,,,50,127
108715,note_off,0,0,0,,0,,,60,127
108716,note_on,1,0,0,,2,,,62,127
108716,note_on,0,0,0,,2,,,50,127
108716,note_on,0,0,0,,7,,,55,127
108716,note_on,0,0,0,,0,,,72,127
108774,note_off,58,0,0,,0,,,72,127
108774,note_on,0,0,0,,11,,,70,127
108832,note_off,58,0,0,,11,,,70,127
108832,note_on,0,0,0,,0,,,72,127
108890,note_off,58,0,0,,0,,,72,127
108890,note_on,0,0,0,,11,,,70,127
108948,note_off,58,0,0,,11,,,70,127
108948,note_on,0,0,0,,10,,,69,127
109177,note_off,229,0,0,,10,,,69,127
109178,note_on,1,0,0,,11,,,70,127
109407,note_off,229,0,0,,11,,,70,127
109407,note_off,0,0,0,,7,,,55,127
109407,note_off,0,0,0,,2,,,50,127
109407,note_off,0,0,0,,2,,,62,127
109408,note_on,1,0,0,,2,,,38,127
109408,note_on,0,0,0,,2,,,62,127
109408,note_on,0,0,0,,10,,,69,127
109637,note_off,229,0,0,,10,,,69,127
109637,note_off,0,0,0,,2,,,62,127
109638,note_on,1,0,0,,7,,,67,127
109638,note_on,0,0,0,,11,,,70,127
109867,note_off,229,0,0,,11,,,70,127
109867,note_off,0,0,0,,7,,,67,127
109867,note_off,0,0,0,,2,,,38,127
109868,note_on,1,0,0,,2,,,38,127
109868,note_on,0,0,0,,10,,,69,127
109868,note_on,0,0,0,,2,,,62,127
110097,note_off,229,0,0,,2,,,62,127
110097,note_off,0,0,0,,10,,,69,127
110098,note_on,1,0,0,,7,,,67,127
110098,note_on,0,0,0,,11,,,70,127
110327,note_off,229,0,0,,11,,,70,127
110327,note_off,0,0,0,,7,,,67,127
110327,note_off,0,0,0,,2,,,38,127
110328,note_on,1,0,0,,2,,,38,127
110328,note_on,0,0,0,,2,,,62,127
110328,note_on,0,0,0,,10,,,69,127
110557,note_off,229,0,0,,10,,,69,127
110557,note_off,0,0,0,,2,,,62,127
110558,note_on,1,0,0,,7,,,67,127
110558,note_on,0,0,0,,11,,,70,127
110787,note_off,229,0,0,,11,,,70,127
110787,note_off,0,0,0,,7,,,67,127
110787,note_off,0,0,0,,2,,,38,127
110788,note_on,1,0,0,,2,,,38,127
110788,note_on,0,0,0,,2,,,62,127
110788,note_on,0,0,0,,11,,,70,127
110846,note_off,58,0,0,,11,,,70,127
110846,note_on,0,0,0,,10,,,69,127
110904,note_off,58,0,0,,10,,,69,127
110904,note_on,0,0,0,,11,,,70,127
110962,note_off,58,0,0,,11,,,70,127
110962,note_on,0,0,0,,10,,,69,127
111422,note_off,460,0,0,,10,,,69,127
111423,note_off,1,0,0,,2,,,62,127
111479,note_off,56,0,0,,2,,,38,127
111480,note_on,1,0,0,,7,,,67,127
111480,note_on,0,0,0,,7,,,55,127
111709,note_off,229,0,0,,7,,,55,127
111710,note_on,1,0,0,,10,,,57,127
111939,note_off,229,0,0,,10,,,57,127
111940,note_on,1,0,0,,11,,,58,127
112169,note_off,229,0,0,,11,,,58,127
112169,note_off,0,0,0,,7,,,67,127
112170,note_on,1,0,0,,0,,,60,127
112170,note_on,0,0,0,,10,,,69,127
112399,note_off,229,0,0,,0,,,60,127
112400,note_on,1,0,0,,2,,,62,127
112629,note_off,229,0,0,,10,,,69,127
112630,note_on,1,0,0,,6,,,66,127
112630,note_on,0,0,0,,0,,,84,127
112859,note_off,229,0,0,,6,,,66,127
112859,note_off,0,0,0,,2,,,62,127
112860,note_on,1,0,0,,7,,,55,127
112860,note_on,0,0,0,,7,,,67,127
113089,note_off,229,0,0,,7,,,55,127
113089,note_off,0,0,0,,0,,,84,127
113090,note_on,1,0,0,,10,,,57,127
113090,note_on,0,0,0,,11,,,82,127
113204,note_off,114,0,0,,11,,,82,127
113205,note_on,1,0,0,,10,,,81,127
113319,note_off,114,0,0,,10,,,81,127
113319,note_off,0,0,0,,10,,,57,127
113320,note_on,1,0,0,,11,,,58,127
113320,note_on,0,0,0,,7,,,79,127
113549,note_off,229,0,0,,11,,,58,127
113549,note_off,0,0,0,,7,,,67,127
113550,note_off,1,0,0,,7,,,79,127
113550,note_on,0,0,0,,0,,,60,127
113550,note_on,0,0,0,,10,,,69,127
113779,note_off,229,0,0,,0,,,60,127
113780,note_on,1,0,0,,2,,,62,127
114009,note_off,229,0,0,,10,,,69,127
114010,note_on,1,0,0,,6,,,66,127
114010,note_on,0,0,0,,0,,,84,127
114239,note_off,229,0,0,,6,,,66,127
114239,note_off,0,0,0,,2,,,62,127
114240,note_on,1,0,0,,7,,,55,127
114240,note_on,0,0,0,,7,,,67,127
114469,note_off,229,0,0,,7,,,55,127
114469,note_off,0,0,0,,0,,,84,127
114470,note_on,1,0,0,,10,,,57,127
114470,note_on,0,0,0,,11,,,82,127
114584,note_off,114,0,0,,11,,,82,127
114585,note_on,1,0,0,,10,,,81,127
114699,note_off,114,0,0,,10,,,81,127
114699,note_off,0,0,0,,10,,,57,127
114700,note_on,1,0,0,,11,,,58,127
114700,note_on,0,0,0,,7,,,79,127
114929,note_off,229,0,0,,11,,,58,127
114929,note_off,0,0,0,,7,,,67,127
114930,note_off,1,0,0,,7,,,79,127
114930,note_on,0,0,0,,0,,,60,127
114930,note_on,0,0,0,,10,,,69,127
115159,note_off,229,0,0,,0,,,60,127
115160,note_on,1,0,0,,2,,,62,127
115389,note_off,229,0,0,,10,,,69,127
115390,note_on,1,0,0,,6,,,66,127
115390,note_on,0,0,0,,0,,,84,127
115619,note_off,229,0,0,,6,,,66,127
115619,note_off,0,0,0,,2,,,62,127
115620,note_on,1,0,0,,7,,,67,127
115620,note_on,0,0,0,,7,,,55,127
115849,note_off,229,0,0,,7,,,55,127
115849,note_off,0,0,0,,0,,,84,127
115850,note_on,1,0,0,,10,,,57,127
115850,note_on,0,0,0,,11,,,82,127
115964,note_off,114,0,0,,11,,,82,127
115965,note_on,1,0,0,,0,,,84,127
116079,note_off,114,0,0,,0,,,84,127
116079,note_off,0,0,0,,10,,,57,127
116080,note_on,1,0,0,,11,,,58,127
116080,note_on,0,0,0,,2,,,86,127
116309,note_off,229,0,0,,2,,,86,127
116309,note_off,0,0,0,,11,,,58,127
116309,note_off,0,0,0,,7,,,67,127
116310,note_on,1,0,0,,0,,,60,127
116310,note_on,0,0,0,,3,,,87,127
116310,note_on,0,0,0,,7,,,79,127
116539,note_off,229,0,0,,7,,,79,127
116539,note_off,0,0,0,,3,,,87,127
116539,note_off,0,0,0,,0,,,60,127
116540,note_on,1,0,0,,2,,,62,127
116540,note_on,0,0,0,,2,,,86,127
116540,note_on,0,0,0,,6,,,78,127
116769,note_off,229,0,0,,6,,,78,127
116769,note_off,0,0,0,,2,,,86,127
116769,note_off,0,0,0,,2,,,62,127
116770,note_on,1,0,0,,3,,,63,127
116770,note_on,0,0,0,,0,,,84,127
116770,note_on,0,0,0,,7,,,79,127
116999,note_off,229,0,0,,3,,,63,127
117000,note_on,1,0,0,,2,,,38,127
117229,note_off,229,0,0,,7,,,79,127
117229,note_off,0,0,0,,0,,,84,127
117230,note_on,1,0,0,,6,,,78,127
117230,note_on,0,0,0,,2,,,86,127
117690,note_off,460,0,0,,2,,,38,127
117691,note_off,1,0,0,,2,,,86,127
117691,note_off,0,0,0,,6,,,78,127
117691,note_on,0,0,0,,7,,,55,127
117691,note_on,0,0,0,,7,,,67,127
117920,note_off,229,0,0,,7,,,67,127
117920,note_off,0,0,0,,7,,,55,127
117921,note_on,1,0,0,,10,,,69,127
117921,note_on,0,0,0,,10,,,57,127
118150,note_off,229,0,0,,10,,,57,127
118150,note_off,0,0,0,,10,,,69,127
118151,note_on,1,0,0,,11,,,58,127
118151,note_on,0,0,0,,11,,,70,127
118380,note_off,229,0,0,,11,,,70,127
118380,note_off,0,0,0,,11,,,58,127
118381,note_on,1,0,0,,0,,,72,127
118381,note_on,0,0,0,,0,,,60,127
118610,note_off,229,0,0,,0,,,60,127
118610,note_off,0,0,0,,0,,,72,127
118611,note_on,1,0,0,,11,,,70,127
118611,note_on,0,0,0,,2,,,62,127
118840,note_off,229,0,0,,11,,,70,127
118841,note_on,1,0,0,,10,,,69,127
118841,note_on,0,0,0,,0,,,84,127
118841,note_on,0,0,0,,6,,,90,127
119070,note_off,229,0,0,,6,,,90,127
119070,note_off,0,0,0,,0,,,84,127
119070,note_off,0,0,0,,10,,,69,127
119070,note_off,0,0,0,,2,,,62,127
119071,note_on,1,0,0,,7,,,55,127
119071,note_on,0,0,0,,7,,,67,127
119071,note_on,0,0,0,,7,,,91,127
119300,note_off,229,0,0,,7,,,91,127
119300,note_off,0,0,0,,7,,,67,127
119300,note_off,0,0,0,,7,,,55,127
119301,note_on,1,0,0,,10,,,69,127
119301,note_on,0,0,0,,10,,,57,127
119301,note_on,0,0,0,,11,,,82,127
119301,note_on,0,0,0,,0,,,84,127
119415,note_off,114,0,0,,0,,,84,127
119415,note_off,0,0,0,,11,,,82,127
119416,note_on,1,0,0,,10,,,81,127
119530,note_off,114,0,0,,10,,,81,127
119530,note_off,0,0,0,,10,,,57,127
119530,note_off,0,0,0,,10,,,69,127
119531,note_on,1,0,0,,11,,,58,127
119531,note_on,0,0,0,,11,,,70,127
119531,note_on,0,0,0,,7,,,79,127
119760,note_off,229,0,0,,11,,,70,127
119760,note_off,0,0,0,,11,,,58,127
119761,note_on,1,0,0,,0,,,72,127
119761,note_on,0,0,0,,0,,,60,127
119990,note_off,229,0,0,,0,,,60,127
119990,note_off,0,0,0,,0,,,72,127
119991,note_on,1,0,0,,2,,,62,127
119991,note_on,0,0,0,,11,,,70,127
120220,note_off,229,0,0,,11,,,70,127
120220,note_off,0,0,0,,7,,,79,127
120221,note_on,1,0,0,,10,,,69,127
120221,note_on,0,0,0,,0,,,84,127
120221,note_on,0,0,0,,6,,,90,127
120450,note_off,229,0,0,,6,,,90,127
120450,note_off,0,0,0,,0,,,84,127
120450,note_off,0,0,0,,10,,,69,127
120450,note_off,0,0,0,,2,,,62,127
120451,note_on,1,0,0,,7,,,55,127
120451,note_on,0,0,0,,7,,,67,127
120451,note_on,0,0,0,,7,,,91,127
120680,note_off,229,0,0,,7,,,91,127
120680,note_off,0,0,0,,7,,,67,127
120680,note_off,0,0,0,,7,,,55,127
120681,note_on,1,0,0,,10,,,57,127
120681,note_on,0,0,0,,10,,,69,127
120681,note_on,0,0,0,,11,,,82,127
120681,note_on,0,0,0,,0,,,84,127
120795,note_off,114,0,0,,0,,,84,127
120795,note_off,0,0,0,,11,,,82,127
120796,note_on,1,0,0,,10,,,81,127
120910,note_off,114,0,0,,10,,,81,127
120910,note_off,0,0,0,,10,,,69,127
120910,note_off,0,0,0,,10,,,57,127
120911,note_on,1,0,0,,11,,,58,127
120911,note_on,0,0,0,,11,,,70,127
120911,note_on,0,0,0,,7,,,79,127
121140,note_off,229,0,0,,11,,,70,127
121140,note_off,0,0,0,,11,,,58,127
121141,note_on,1,0,0,,0,,,60,127
121141,note_on,0,0,0,,0,,,72,127
121370,note_off,229,0,0,,0,,,72,127
121370,note_off,0,0,0,,0,,,60,127
121371,note_on,1,0,0,,2,,,62,127
121371,note_on,0,0,0,,11,,,70,127
121600,note_off,229,0,0,,11,,,70,127
121600,note_off,0,0,0,,7,,,79,127
121601,note_on,1,0,0,,10,,,69,127
121601,note_on,0,0,0,,6,,,90,127
121601,note_on,0,0,0,,0,,,84,127
121830,note_off,229,0,0,,0,,,84,127
121830,note_off,0,0,0,,6,,,90,127
121830,note_off,0,0,0,,10,,,69,127
121830,note_off,0,0,0,,2,,,62,127
121831,note_on,1,0,0,,7,,,67,127
121831,note_on,0,0,0,,7,,,55,127
121831,note_on,0,0,0,,7,,,91,127
122060,note_off,229,0,0,,7,,,91,127
122060,note_off,0,0,0,,7,,,55,127
122061,note_on,1,0,0,,10,,,57,127
122061,note_on,0,0,0,,11,,,82,127
122175,note_off,114,0,0,,11,,,82,127
122176,note_on,1,0,0,,0,,,84,127
122290,note_off,114,0,0,,0,,,84,127
122290,note_off,0,0,0,,10,,,57,127
122291,note_on,1,0,0,,11,,,58,127
122291,note_on,0,0,0,,2,,,86,127
122520,note_off,229,0,0,,2,,,86,127
122520,note_off,0,0,0,,11,,,58,127
122520,note_off,0,0,0,,7,,,67,127
122521,note_on,1,0,0,,0,,,60,127
122521,note_on,0,0,0,,3,,,87,127
122750,note_off,229,0,0,,3,,,87,127
122750,note_off,0,0,0,,0,,,60,127
122751,note_on,1,0,0,,2,,,62,127
122751,note_on,0,0,0,,7,,,79,127
122980,note_off,229,0,0,,7,,,79,127
122981,note_on,1,0,0,,2,,,50,127
122981,note_on,0,0,0,,6,,,78,127
123210,note_off,229,0,0,,6,,,78,127
123210,note_off,0,0,0,,2,,,50,127
123210,note_off,0,0,0,,2,,,62,127
123211,note_on,1,0,0,,7,,,55,127
123211,note_on,0,0,0,,7,,,79,127
123440,note_off,229,0,0,,7,,,55,127
123441,note_on,1,0,0,,10,,,57,127
123517,note_off,76,0,0,,7,,,79,127
123518,note_on,1,0,0,,10,,,81,127
123594,note_off,76,0,0,,10,,,81,127
123595,note_on,1,0,0,,11,,,82,127
123671,note_off,76,0,0,,10,,,57,127
123672,note_on,1,0,0,,11,,,58,127
123672,note_on,0,0,0,,2,,,74,127
123824,note_off,152,0,0,,11,,,82,127
123901,note_off,77,0,0,,2,,,74,127
123901,note_off,0,0,0,,11,,,58,127
123902,note_on,1,0,0,,0,,,60,127
123902,note_on,0,0,0,,0,,,84,127
123902,note_on,0,0,0,,3,,,75,127
124131,note_off,229,0,0,,0,,,60,127
124132,note_on,1,0,0,,6,,,54,127
124361,note_off,229,0,0,,6,,,54,127
124362,note_on,1,0,0,,2,,,50,127
124591,note_off,229,0,0,,2,,,50,127
124591,note_off,0,0,0,,3,,,75,127
124591,note_off,0,0,0,,0,,,84,127
124592,note_on,1,0,0,,7,,,55,127
124592,note_on,0,0,0,,7,,,79,127
124821,note_off,229,0,0,,7,,,55,127
124822,note_on,1,0,0,,10,,,57,127
124898,note_off,76,0,0,,7,,,79,127
124899,note_on,1,0,0,,10,,,81,127
124975,note_off,76,0,0,,10,,,81,127
124976,note_on,1,0,0,,11,,,82,127
125052,note_off,76,0,0,,10,,,57,127
125053,note_on,1,0,0,,11,,,58,127
125053,note_on,0,0,0,,2,,,74,127
125205,note_off,152,0,0,,11,,,82,127
125282,note_off,77,0,0,,2,,,74,127
125282,note_off,0,0,0,,11,,,58,127
125283,note_on,1,0,0,,0,,,60,127
125283,note_on,0,0,0,,3,,,75,127
125283,note_on,0,0,0,,0,,,84,127
125512,note_off,229,0,0,,0,,,60,127
125513,note_on,1,0,0,,6,,,54,127
125742,note_off,229,0,0,,6,,,54,127
125743,note_on,1,0,0,,2,,,50,127
125972,note_off,229,0,0,,2,,,50,127
125972,note_off,0,0,0,,0,,,84,127
125972,note_off,0,0,0,,3,,,75,127
125973,note_on,1,0,0,,7,,,55,127
125973,note_on,0,0,0,,11,,,82,127
126202,note_off,229,0,0,,7,,,55,127
126203,note_on,1,0,0,,10,,,57,127
126279,note_off,76,0,0,,11,,,82,127
126280,note_on,1,0,0,,0,,,84,127
126356,note_off,76,0,0,,0,,,84,127
126357,note_on,1,0,0,,2,,,86,127
126433,note_off,76,0,0,,10,,,57,127
126434,note_on,1,0,0,,11,,,58,127
126434,note_on,0,0,0,,7,,,79,127
126586,note_off,152,0,0,,2,,,86,127
126663,note_off,77,0,0,,7,,,79,127
126663,note_off,0,0,0,,11,,,58,127
126664,note_on,1,0,0,,0,,,60,127
126664,note_on,0,0,0,,7,,,91,127
126893,note_off,229,0,0,,7,,,91,127
126893,note_off,0,0,0,,0,,,60,127
126894,note_on,1,0,0,,2,,,62,127
126894,note_on,0,0,0,,7,,,79,127
127123,note_off,229,0,0,,7,,,79,127
127123,note_off,0,0,0,,2,,,62,127
127124,note_on,1,0,0,,2,,,50,127
127124,note_on,0,0,0,,6,,,78,127
127353,note_off,229,0,0,,6,,,78,127
127353,note_off,0,0,0,,2,,,50,127
127354,note_on,1,0,0,,7,,,43,127
127354,note_on,0,0,0,,7,,,67,127
127583,note_off,229,0,0,,7,,,43,127
127584,note_on,1,0,0,,10,,,45,127
127660,note_off,76,0,0,,7,,,67,127
127661,note_on,1,0,0,,10,,,69,127
127737,note_off,76,0,0,,10,,,69,127
127738,note_on,1,0,0,,11,,,70,127
127814,note_off,76,0,0,,10,,,45,127
127815,note_on,1,0,0,,11,,,46,127
127815,note_on,0,0,0,,2,,,62,127
127967,note_off,152,0,0,,11,,,70,127
128044,note_off,77,0,0,,2,,,62,127
128044,note_off,0,0,0,,11,,,46,127
128045,note_on,1,0,0,,0,,,48,127
128045,note_on,0,0,0,,0,,,72,127
128045,note_on,0,0,0,,3,,,63,127
128274,note_off,229,0,0,,0,,,48,127
128275,note_on,1,0,0,,6,,,42,127
128504,note_off,229,0,0,,6,,,42,127
128505,note_on,1,0,0,,2,,,38,127
128734,note_off,229,0,0,,2,,,38,127
128734,note_off,0,0,0,,3,,,63,127
128734,note_off,0,0,0,,0,,,72,127
128735,note_on,1,0,0,,7,,,43,127
128735,note_on,0,0,0,,7,,,67,127
128964,note_off,229,0,0,,7,,,43,127
128965,note_on,1,0,0,,10,,,45,127
129041,note_off,76,0,0,,7,,,67,127
129042,note_on,1,0,0,,10,,,69,127
129118,note_off,76,0,0,,10,,,69,127
129119,note_on,1,0,0,,11,,,70,127
129195,note_off,76,0,0,,10,,,45,127
129196,note_on,1,0,0,,11,,,46,127
129196,note_on,0,0,0,,2,,,62,127
129348,note_off,152,0,0,,11,,,70,127
129425,note_off,77,0,0,,2,,,62,127
129425,note_off,0,0,0,,11,,,46,127
129426,note_on,1,0,0,,0,,,48,127
129426,note_on,0,0,0,,0,,,72,127
129426,note_on,0,0,0,,3,,,63,127
129655,note_off,229,0,0,,0,,,48,127
129656,note_on,1,0,0,,6,,,42,127
129885,note_off,229,0,0,,6,,,42,127
129886,note_on,1,0,0,,2,,,38,127
130115,note_off,229,0,0,,2,,,38,127
130115,note_off,0,0,0,,3,,,63,127
130115,note_off,0,0,0,,0,,,72,127
130116,note_on,1,0,0,,7,,,43,127
130116,note_on,0,0,0,,11,,,70,127
130345,note_off,229,0,0,,7,,,43,127
130346,note_on,1,0,0,,10,,,45,127
130422,note_off,76,0,0,,11,,,70,127
130423,note_on,1,0,0,,0,,,72,127
130499,note_off,76,0,0,,0,,,72,127
130500,note_on,1,0,0,,2,,,74,127
130576,note_off,76,0,0,,10,,,45,127
130577,note_on,1,0,0,,11,,,46,127
130577,note_on,0,0,0,,7,,,67,127
130729,note_off,152,0,0,,2,,,74,127
130806,note_off,77,0,0,,7,,,67,127
130806,note_off,0,0,0,,11,,,46,127
130807,note_on,1,0,0,,0,,,48,127
130807,note_on,0,0,0,,3,,,75,127
131036,note_off,229,0,0,,3,,,75,127
131036,note_off,0,0,0,,0,,,48,127
131037,note_on,1,0,0,,2,,,50,127
131037,note_on,0,0,0,,7,,,67,127
131266,note_off,229,0,0,,7,,,67,127
131266,note_off,0,0,0,,2,,,50,127
131267,note_on,1,0,0,,2,,,38,127
131267,note_on,0,0,0,,6,,,66,127
131496,note_off,229,0,0,,6,,,66,127
131496,note_off,0,0,0,,2,,,38,127
131497,note_on,1,0,0,,7,,,43,127
131497,note_on,0,0,0,,7,,,67,127
131726,note_off,229,0,0,,7,,,67,127
131726,note_off,0,0,0,,7,,,43,127
131727,note_on,1,0,0,,10,,,45,127
131727,note_on,0,0,0,,7,,,91,127
131956,note_off,229,0,0,,7,,,91,127
131956,note_off,0,0,0,,10,,,45,127
131957,note_on,1,0,0,,11,,,46,127
131957,note_on,0,0,0,,7,,,79,127
132186,note_off,229,0,0,,7,,,79,127
132186,note_off,0,0,0,,11,,,46,127
132187,note_on,1,0,0,,0,,,48,127
132187,note_on,0,0,0,,7,,,67,127
132416,note_off,229,0,0,,0,,,48,127
132417,note_on,1,0,0,,2,,,50,127
132646,note_off,229,0,0,,7,,,67,127
132647,note_on,1,0,0,,2,,,38,127
132647,note_on,0,0,0,,6,,,66,127
132876,note_off,229,0,0,,6,,,66,127
132876,note_off,0,0,0,,2,,,38,127
132876,note_off,0,0,0,,2,,,50,127
132877,note_on,1,0,0,,7,,,43,127
132877,note_on,0,0,0,,7,,,67,127
133106,note_off,229,0,0,,7,,,67,127
133106,note_off,0,0,0,,7,,,43,127
133107,note_on,1,0,0,,10,,,45,127
133107,note_on,0,0,0,,7,,,91,127
133336,note_off,229,0,0,,7,,,91,127
133336,note_off,0,0,0,,10,,,45,127
133337,note_on,1,0,0,,11,,,46,127
133337,note_on,0,0,0,,7,,,79,127
133566,note_off,229,0,0,,7,,,79,127
133566,note_off,0,0,0,,11,,,46,127
133567,note_on,1,0,0,,0,,,48,127
133567,note_on,0,0,0,,7,,,67,127
133796,note_off,229,0,0,,0,,,48,127
133797,note_on,1,0,0,,2,,,50,127
134026,note_off,229,0,0,,7,,,67,127
134027,note_on,1,0,0,,2,,,38,127
134027,note_on,0,0,0,,6,,,66,127
134256,note_off,229,0,0,,6,,,66,127
134256,note_off,0,0,0,,2,,,38,127
134256,note_off,0,0,0,,2,,,50,127
134258,note_on,2,0,0,,7,,,67,127
134258,note_on,0,0,0,,7,,,43,127
134491,note_off,233,0,0,,7,,,43,127
134491,note_off,0,0,0,,7,,,67,127
134496,note_on,5,0,0,,7,,,79,127
134496,note_on,0,0,0,,10,,,45,127
134729,note_off,233,0,0,,10,,,45,127
134729,note_off,0,0,0,,7,,,79,127
134733,note_on,4,0,0,,7,,,91,127
134733,note_on,0,0,0,,11,,,46,127
134966,note_off,233,0,0,,11,,,46,127
134966,note_off,0,0,0,,7,,,91,127
134971,note_on,5,0,0,,7,,,67,127
134971,note_on,0,0,0,,0,,,48,127
135204,note_off,233,0,0,,0,,,48,127
135209,note_on,5,0,0,,2,,,50,127
135439,note_off,230,0,0,,7,,,67,127
135456,note_on,17,0,0,,6,,,66,127
135456,note_on,0,0,0,,2,,,38,127
135677,note_off,221,0,0,,2,,,50,127
135732,note_off,55,0,0,,2,,,38,127
135732,note_off,0,0,0,,6,,,66,127
135754,note_on,22,0,0,,7,,,43,127
135754,note_on,0,0,0,,7,,,67,127
138060,note_off,2306,0,0,,7,,,67,127
138060,note_off,0,0,0,,7,,,43,127
139776,end_of_track,1716,1,0,,,,,,
