tick,type,time,meta,track,program,channel,pitch,tempo,note,velocity
0,copyright,0,1,0,,,,,,
0,program_change,0,0,0,6,0,,,,
0,pitchwheel,0,0,0,,0,0,,,
0,program_change,0,0,0,6,1,,,,
0,pitchwheel,0,0,0,,1,-590,,,
0,program_change,0,0,0,6,2,,,,
0,pitchwheel,0,0,0,,2,-272,,,
0,program_change,0,0,0,6,3,,,,
0,pitchwheel,0,0,0,,3,-353,,,
0,program_change,0,0,0,6,4,,,,
0,pitchwheel,0,0,0,,4,-560,,,
0,program_change,0,0,0,6,5,,,,
0,pitchwheel,0,0,0,,5,-80,,,
0,program_change,0,0,0,6,6,,,,
0,pitchwheel,0,0,0,,6,-625,,,
0,program_change,0,0,0,6,7,,,,
0,pitchwheel,0,0,0,,7,-130,,,
0,program_change,0,0,0,6,8,,,,
0,pitchwheel,0,0,0,,8,-512,,,
0,program_change,0,0,0,6,10,,,,
0,pitchwheel,0,0,0,,10,-464,,,
0,program_change,0,0,0,6,11,,,,
0,pitchwheel,0,0,0,,11,-208,,,
0,program_change,0,0,0,6,12,,,,
0,pitchwheel,0,0,0,,12,-553,,,
0,set_tempo,0,1,0,,,,500000,,
92,note_on,92,0,0,,7,,,67,127
92,note_on,0,0,0,,2,,,74,127
171,note_off,79,0,0,,2,,,74,127
184,note_on,13,0,0,,0,,,72,127
263,note_off,79,0,0,,0,,,72,127
275,note_off,12,0,0,,7,,,67,127
277,note_on,2,0,0,,10,,,69,127
277,note_on,0,0,0,,2,,,74,127
356,note_off,79,0,0,,2,,,74,127
369,note_on,13,0,0,,4,,,76,127
448,note_off,79,0,0,,4,,,76,127
460,note_off,12,0,0,,10,,,69,127
462,note_on,2,0,0,,7,,,67,127
462,note_on,0,0,0,,12,,,71,127
462,note_on,0,0,0,,2,,,74,127
644,note_off,182,0,0,,12,,,71,127
644,note_off,0,0,0,,7,,,67,127
646,note_on,2,0,0,,6,,,66,127
646,note_on,0,0,0,,10,,,69,127
828,note_off,182,0,0,,10,,,69,127
828,note_off,0,0,0,,6,,,66,127
830,note_on,2,0,0,,12,,,71,127
830,note_on,0,0,0,,7,,,67,127
920,note_off,90,0,0,,2,,,74,127
922,note_on,2,0,0,,0,,,72,127
1001,note_off,79,0,0,,0,,,72,127
1013,note_off,12,0,0,,7,,,67,127
1013,note_off,0,0,0,,12,,,71,127
1015,note_on,2,0,0,,10,,,69,127
1015,note_on,0,0,0,,2,,,74,127
1094,note_off,79,0,0,,2,,,74,127
1107,note_on,13,0,0,,4,,,76,127
1186,note_off,79,0,0,,4,,,76,127
1198,note_off,12,0,0,,10,,,69,127
1200,note_on,2,0,0,,12,,,71,127
1200,note_on,0,0,0,,2,,,74,127
1382,note_off,182,0,0,,12,,,71,127
1384,note_on,2,0,0,,10,,,69,127
1384,note_on,0,0,0,,6,,,66,127
1566,note_off,182,0,0,,6,,,66,127
1566,note_off,0,0,0,,10,,,69,127
1568,note_on,2,0,0,,7,,,67,127
1658,note_off,90,0,0,,2,,,74,127
1660,note_on,2,0,0,,0,,,72,127
1739,note_off,79,0,0,,0,,,72,127
1751,note_off,12,0,0,,7,,,67,127
1753,note_on,2,0,0,,10,,,69,127
1753,note_on,0,0,0,,2,,,74,127
1832,note_off,79,0,0,,2,,,74,127
1845,note_on,13,0,0,,4,,,76,127
1924,note_off,79,0,0,,4,,,76,127
1936,note_off,12,0,0,,10,,,69,127
1938,note_on,2,0,0,,12,,,71,127
1938,note_on,0,0,0,,2,,,74,127
2122,note_on,184,0,0,,7,,,67,127
2304,note_off,182,0,0,,7,,,67,127
2304,note_off,0,0,0,,2,,,74,127
2306,note_on,2,0,0,,0,,,60,127
2306,note_on,0,0,0,,4,,,76,127
2385,note_off,79,0,0,,4,,,76,127
2398,note_on,13,0,0,,7,,,79,127
2477,note_off,79,0,0,,7,,,79,127
2489,note_off,12,0,0,,12,,,71,127
2490,note_on,1,0,0,,7,,,67,127
2490,note_on,0,0,0,,6,,,78,127
2569,note_off,79,0,0,,6,,,78,127
2582,note_on,13,0,0,,4,,,76,127
2661,note_off,79,0,0,,4,,,76,127
2674,note_off,13,0,0,,0,,,60,127
2674,note_on,0,0,0,,2,,,62,127
2674,note_on,0,0,0,,2,,,74,127
2753,note_off,79,0,0,,2,,,74,127
2766,note_on,13,0,0,,0,,,72,127
2845,note_off,79,0,0,,0,,,72,127
2858,note_off,13,0,0,,7,,,67,127
2858,note_on,0,0,0,,6,,,66,127
2858,note_on,0,0,0,,12,,,71,127
2937,note_off,79,0,0,,12,,,71,127
2950,note_on,13,0,0,,10,,,69,127
3029,note_off,79,0,0,,10,,,69,127
3041,note_off,12,0,0,,6,,,66,127
3043,note_off,2,0,0,,2,,,62,127
3043,note_on,0,0,0,,7,,,67,127
3043,note_on,0,0,0,,12,,,71,127
3122,note_off,79,0,0,,12,,,71,127
3135,note_on,13,0,0,,10,,,69,127
3214,note_off,79,0,0,,10,,,69,127
3227,note_on,13,0,0,,12,,,71,127
3306,note_off,79,0,0,,12,,,71,127
3319,note_on,13,0,0,,0,,,72,127
3398,note_off,79,0,0,,0,,,72,127
3411,note_on,13,0,0,,12,,,71,127
3490,note_off,79,0,0,,12,,,71,127
3503,note_on,13,0,0,,0,,,72,127
3582,note_off,79,0,0,,0,,,72,127
3595,note_off,13,0,0,,7,,,67,127
3595,note_on,0,0,0,,2,,,74,127
3674,note_off,79,0,0,,2,,,74,127
3687,note_on,13,0,0,,12,,,71,127
3766,note_off,79,0,0,,12,,,71,127
3779,note_on,13,0,0,,2,,,62,127
3779,note_on,0,0,0,,10,,,69,127
3779,note_on,0,0,0,,6,,,66,127
3858,note_off,79,0,0,,2,,,62,127
3871,note_on,13,0,0,,0,,,60,127
3950,note_off,79,0,0,,0,,,60,127
3963,note_on,13,0,0,,2,,,62,127
4042,note_off,79,0,0,,2,,,62,127
4055,note_on,13,0,0,,4,,,64,127
4134,note_off,79,0,0,,4,,,64,127
4147,note_on,13,0,0,,2,,,62,127
4237,note_off,90,0,0,,6,,,66,127
4237,note_off,0,0,0,,10,,,69,127
4239,note_on,2,0,0,,7,,,67,127
4318,note_off,79,0,0,,7,,,67,127
4331,note_on,13,0,0,,10,,,69,127
4410,note_off,79,0,0,,10,,,69,127
4423,note_on,13,0,0,,12,,,71,127
4502,note_off,79,0,0,,12,,,71,127
4515,note_on,13,0,0,,6,,,66,127
4515,note_on,0,0,0,,10,,,69,127
4605,note_off,90,0,0,,2,,,62,127
4607,note_on,2,0,0,,0,,,60,127
4686,note_off,79,0,0,,0,,,60,127
4699,note_on,13,0,0,,2,,,62,127
4778,note_off,79,0,0,,2,,,62,127
4791,note_on,13,0,0,,4,,,64,127
4870,note_off,79,0,0,,4,,,64,127
4883,note_on,13,0,0,,2,,,62,127
4973,note_off,90,0,0,,10,,,69,127
4973,note_off,0,0,0,,6,,,66,127
4975,note_on,2,0,0,,7,,,67,127
5054,note_off,79,0,0,,7,,,67,127
5067,note_on,13,0,0,,10,,,69,127
5146,note_off,79,0,0,,10,,,69,127
5159,note_on,13,0,0,,12,,,71,127
5238,note_off,79,0,0,,12,,,71,127
5251,note_on,13,0,0,,6,,,66,127
5251,note_on,0,0,0,,10,,,69,127
5341,note_off,90,0,0,,2,,,62,127
5343,note_on,2,0,0,,4,,,64,127
5422,note_off,79,0,0,,4,,,64,127
5434,note_off,12,0,0,,6,,,66,127
5436,note_on,2,0,0,,6,,,66,127
5515,note_off,79,0,0,,6,,,66,127
5528,note_on,13,0,0,,2,,,62,127
5607,note_off,79,0,0,,2,,,62,127
5619,note_off,12,0,0,,10,,,69,127
5621,note_on,2,0,0,,7,,,67,127
5621,note_on,0,0,0,,12,,,71,127
5700,note_off,79,0,0,,7,,,67,127
5713,note_on,13,0,0,,6,,,66,127
5792,note_off,79,0,0,,6,,,66,127
5805,note_on,13,0,0,,4,,,64,127
5884,note_off,79,0,0,,4,,,64,127
5897,note_on,13,0,0,,2,,,62,127
5976,note_off,79,0,0,,2,,,62,127
5988,note_off,12,0,0,,12,,,71,127
5990,note_on,2,0,0,,0,,,60,127
5990,note_on,0,0,0,,4,,,76,127
6069,note_off,79,0,0,,0,,,60,127
6082,note_on,13,0,0,,2,,,62,127
6161,note_off,79,0,0,,2,,,62,127
6174,note_on,13,0,0,,4,,,64,127
6174,note_on,0,0,0,,7,,,67,127
6253,note_off,79,0,0,,4,,,64,127
6266,note_on,13,0,0,,0,,,60,127
6345,note_off,79,0,0,,0,,,60,127
6357,note_off,12,0,0,,7,,,67,127
6359,note_off,2,0,0,,4,,,76,127
6359,note_on,0,0,0,,2,,,62,127
6359,note_on,0,0,0,,6,,,66,127
6359,note_on,0,0,0,,2,,,74,127
6438,note_off,79,0,0,,2,,,62,127
6451,note_on,13,0,0,,4,,,64,127
6530,note_off,79,0,0,,4,,,64,127
6542,note_off,12,0,0,,2,,,74,127
6542,note_off,0,0,0,,6,,,66,127
6544,note_on,2,0,0,,6,,,66,127
6544,note_on,0,0,0,,10,,,69,127
6544,note_on,0,0,0,,0,,,72,127
6623,note_off,79,0,0,,6,,,66,127
6636,note_on,13,0,0,,2,,,62,127
6715,note_off,79,0,0,,2,,,62,127
6727,note_off,12,0,0,,0,,,72,127
6727,note_off,0,0,0,,10,,,69,127
6729,note_on,2,0,0,,7,,,67,127
6729,note_on,0,0,0,,12,,,71,127
6808,note_off,79,0,0,,12,,,71,127
6821,note_on,13,0,0,,10,,,69,127
6900,note_off,79,0,0,,10,,,69,127
6913,note_on,13,0,0,,7,,,55,127
6913,note_on,0,0,0,,12,,,71,127
6992,note_off,79,0,0,,12,,,71,127
7005,note_on,13,0,0,,0,,,72,127
7084,note_off,79,0,0,,0,,,72,127
7096,note_off,12,0,0,,7,,,67,127
7097,note_on,1,0,0,,7,,,67,127
7097,note_on,0,0,0,,2,,,74,127
7176,note_off,79,0,0,,2,,,74,127
7189,note_on,13,0,0,,4,,,76,127
7268,note_off,79,0,0,,4,,,76,127
7280,note_off,12,0,0,,7,,,67,127
7281,note_off,1,0,0,,7,,,55,127
7282,note_on,1,0,0,,6,,,66,127
7282,note_on,0,0,0,,6,,,78,127
7361,note_off,79,0,0,,6,,,78,127
7374,note_on,13,0,0,,2,,,74,127
7453,note_off,79,0,0,,2,,,74,127
7465,note_off,12,0,0,,6,,,66,127
7467,note_on,2,0,0,,4,,,64,127
7467,note_on,0,0,0,,7,,,79,127
7546,note_off,79,0,0,,7,,,79,127
7559,note_on,13,0,0,,12,,,83,127
7638,note_off,79,0,0,,12,,,83,127
7651,note_on,13,0,0,,0,,,60,127
7651,note_on,0,0,0,,10,,,81,127
7730,note_off,79,0,0,,10,,,81,127
7736,note_off,6,0,0,,4,,,64,127
7744,note_on,8,0,0,,7,,,79,127
7823,note_off,79,0,0,,7,,,79,127
7835,note_off,12,0,0,,0,,,60,127
7837,note_on,2,0,0,,2,,,62,127
7837,note_on,0,0,0,,6,,,78,127
7916,note_off,79,0,0,,6,,,78,127
7929,note_on,13,0,0,,4,,,76,127
8008,note_off,79,0,0,,4,,,76,127
8020,note_off,12,0,0,,2,,,62,127
8022,note_on,2,0,0,,6,,,66,127
8022,note_on,0,0,0,,2,,,74,127
8101,note_off,79,0,0,,2,,,74,127
8114,note_on,13,0,0,,0,,,72,127
8193,note_off,79,0,0,,0,,,72,127
8205,note_off,12,0,0,,6,,,66,127
8207,note_on,2,0,0,,7,,,55,127
8207,note_on,0,0,0,,12,,,71,127
8286,note_off,79,0,0,,7,,,55,127
8299,note_on,13,0,0,,10,,,57,127
8378,note_off,79,0,0,,10,,,57,127
8390,note_off,12,0,0,,12,,,71,127
8392,note_on,2,0,0,,12,,,59,127
8392,note_on,0,0,0,,2,,,74,127
8471,note_off,79,0,0,,12,,,59,127
8484,note_on,13,0,0,,0,,,60,127
8563,note_off,79,0,0,,0,,,60,127
8576,note_on,13,0,0,,2,,,62,127
8655,note_off,79,0,0,,2,,,62,127
8668,note_on,13,0,0,,4,,,64,127
8747,note_off,79,0,0,,4,,,64,127
8759,note_off,12,0,0,,2,,,74,127
8761,note_on,2,0,0,,6,,,66,127
8761,note_on,0,0,0,,0,,,72,127
8840,note_off,79,0,0,,6,,,66,127
8853,note_on,13,0,0,,2,,,62,127
8932,note_off,79,0,0,,2,,,62,127
8944,note_off,12,0,0,,0,,,72,127
8946,note_on,2,0,0,,7,,,67,127
8946,note_on,0,0,0,,12,,,71,127
9025,note_off,79,0,0,,12,,,71,127
9038,note_on,13,0,0,,10,,,69,127
9117,note_off,79,0,0,,10,,,69,127
9130,note_on,13,0,0,,7,,,55,127
9130,note_on,0,0,0,,12,,,71,127
9209,note_off,79,0,0,,12,,,71,127
9222,note_on,13,0,0,,0,,,72,127
9301,note_off,79,0,0,,0,,,72,127
9313,note_off,12,0,0,,7,,,67,127
9314,note_on,1,0,0,,7,,,67,127
9314,note_on,0,0,0,,2,,,74,127
9393,note_off,79,0,0,,2,,,74,127
9406,note_on,13,0,0,,4,,,76,127
9485,note_off,79,0,0,,4,,,76,127
9497,note_off,12,0,0,,7,,,67,127
9498,note_off,1,0,0,,7,,,55,127
9499,note_on,1,0,0,,6,,,66,127
9499,note_on,0,0,0,,6,,,78,127
9578,note_off,79,0,0,,6,,,78,127
9591,note_on,13,0,0,,2,,,74,127
9670,note_off,79,0,0,,2,,,74,127
9682,note_off,12,0,0,,6,,,66,127
9684,note_on,2,0,0,,4,,,64,127
9684,note_on,0,0,0,,7,,,79,127
9763,note_off,79,0,0,,7,,,79,127
9776,note_on,13,0,0,,12,,,83,127
9855,note_off,79,0,0,,12,,,83,127
9868,note_on,13,0,0,,0,,,60,127
9868,note_on,0,0,0,,10,,,81,127
9947,note_off,79,0,0,,10,,,81,127
9953,note_off,6,0,0,,4,,,64,127
9961,note_on,8,0,0,,7,,,79,127
10040,note_off,79,0,0,,7,,,79,127
10052,note_off,12,0,0,,0,,,60,127
10054,note_on,2,0,0,,2,,,62,127
10054,note_on,0,0,0,,6,,,78,127
10133,note_off,79,0,0,,6,,,78,127
10146,note_on,13,0,0,,4,,,76,127
10225,note_off,79,0,0,,4,,,76,127
10237,note_off,12,0,0,,2,,,62,127
10239,note_on,2,0,0,,6,,,66,127
10239,note_on,0,0,0,,2,,,74,127
10318,note_off,79,0,0,,2,,,74,127
10331,note_on,13,0,0,,0,,,72,127
10410,note_off,79,0,0,,0,,,72,127
10422,note_off,12,0,0,,6,,,66,127
10424,note_on,2,0,0,,7,,,55,127
10424,note_on,0,0,0,,12,,,71,127
10503,note_off,79,0,0,,7,,,55,127
10516,note_on,13,0,0,,4,,,64,127
10562,note_off,46,0,0,,12,,,71,127
10595,note_off,33,0,0,,4,,,64,127
10608,note_on,13,0,0,,7,,,67,127
10608,note_on,0,0,0,,12,,,83,127
10687,note_off,79,0,0,,7,,,67,127
10700,note_on,13,0,0,,4,,,64,127
10779,note_off,79,0,0,,4,,,64,127
10792,note_on,13,0,0,,6,,,54,127
10871,note_off,79,0,0,,6,,,54,127
10877,note_off,6,0,0,,12,,,83,127
10885,note_on,8,0,0,,2,,,62,127
10964,note_off,79,0,0,,2,,,62,127
10977,note_on,13,0,0,,6,,,66,127
10977,note_on,0,0,0,,10,,,81,127
11056,note_off,79,0,0,,6,,,66,127
11069,note_on,13,0,0,,2,,,62,127
11148,note_off,79,0,0,,2,,,62,127
11161,note_on,13,0,0,,4,,,52,127
11240,note_off,79,0,0,,4,,,52,127
11246,note_off,6,0,0,,10,,,81,127
11254,note_on,8,0,0,,0,,,60,127
11333,note_off,79,0,0,,0,,,60,127
11346,note_on,13,0,0,,4,,,64,127
11346,note_on,0,0,0,,7,,,79,127
11425,note_off,79,0,0,,4,,,64,127
11438,note_on,13,0,0,,0,,,60,127
11517,note_off,79,0,0,,0,,,60,127
11530,note_on,13,0,0,,2,,,50,127
11609,note_off,79,0,0,,2,,,50,127
11615,note_off,6,0,0,,7,,,79,127
11623,note_on,8,0,0,,12,,,59,127
11702,note_off,79,0,0,,12,,,59,127
11715,note_on,13,0,0,,2,,,62,127
11715,note_on,0,0,0,,6,,,78,127
11794,note_off,79,0,0,,2,,,62,127
11807,note_on,13,0,0,,12,,,59,127
11886,note_off,79,0,0,,12,,,59,127
11899,note_on,13,0,0,,0,,,48,127
11978,note_off,79,0,0,,0,,,48,127
11984,note_off,6,0,0,,6,,,78,127
11992,note_on,8,0,0,,10,,,57,127
12071,note_off,79,0,0,,10,,,57,127
12084,note_on,13,0,0,,0,,,60,127
12084,note_on,0,0,0,,4,,,76,127
12163,note_off,79,0,0,,0,,,60,127
12176,note_on,13,0,0,,10,,,57,127
12255,note_off,79,0,0,,10,,,57,127
12268,note_on,13,0,0,,12,,,47,127
12347,note_off,79,0,0,,12,,,47,127
12353,note_off,6,0,0,,4,,,76,127
12361,note_on,8,0,0,,7,,,55,127
12440,note_off,79,0,0,,7,,,55,127
12453,note_on,13,0,0,,12,,,59,127
12453,note_on,0,0,0,,2,,,74,127
12532,note_off,79,0,0,,12,,,59,127
12545,note_on,13,0,0,,7,,,55,127
12624,note_off,79,0,0,,7,,,55,127
12637,note_on,13,0,0,,10,,,45,127
12716,note_off,79,0,0,,10,,,45,127
12722,note_off,6,0,0,,2,,,74,127
12730,note_on,8,0,0,,6,,,54,127
12809,note_off,79,0,0,,6,,,54,127
12822,note_on,13,0,0,,10,,,57,127
12822,note_on,0,0,0,,0,,,72,127
12901,note_off,79,0,0,,10,,,57,127
12914,note_on,13,0,0,,6,,,54,127
12993,note_off,79,0,0,,6,,,54,127
13006,note_on,13,0,0,,7,,,43,127
13085,note_off,79,0,0,,7,,,43,127
13091,note_off,6,0,0,,0,,,72,127
13099,note_on,8,0,0,,10,,,45,127
13178,note_off,79,0,0,,10,,,45,127
13191,note_on,13,0,0,,12,,,47,127
13191,note_on,0,0,0,,12,,,71,127
13270,note_off,79,0,0,,12,,,47,127
13283,note_on,13,0,0,,0,,,48,127
13329,note_off,46,0,0,,12,,,71,127
13362,note_off,33,0,0,,0,,,48,127
13375,note_on,13,0,0,,2,,,50,127
13375,note_on,0,0,0,,10,,,69,127
13454,note_off,79,0,0,,2,,,50,127
13467,note_on,13,0,0,,6,,,54,127
13546,note_off,79,0,0,,6,,,54,127
13558,note_off,12,0,0,,10,,,69,127
13560,note_on,2,0,0,,4,,,52,127
13560,note_on,0,0,0,,2,,,74,127
13639,note_off,79,0,0,,4,,,52,127
13652,note_on,13,0,0,,7,,,55,127
13731,note_off,79,0,0,,7,,,55,127
13744,note_on,13,0,0,,6,,,54,127
13823,note_off,79,0,0,,6,,,54,127
13836,note_on,13,0,0,,10,,,57,127
13915,note_off,79,0,0,,10,,,57,127
13927,note_off,12,0,0,,2,,,74,127
13929,note_on,2,0,0,,2,,,50,127
13929,note_on,0,0,0,,10,,,81,127
13929,note_on,0,0,0,,0,,,72,127
14008,note_off,79,0,0,,2,,,50,127
14021,note_on,13,0,0,,6,,,54,127
14100,note_off,79,0,0,,6,,,54,127
14112,note_off,12,0,0,,0,,,72,127
14114,note_on,2,0,0,,7,,,55,127
14114,note_on,0,0,0,,12,,,71,127
14193,note_off,79,0,0,,7,,,55,127
14206,note_on,13,0,0,,12,,,59,127
14285,note_off,79,0,0,,12,,,59,127
14297,note_off,12,0,0,,10,,,81,127
14298,note_on,1,0,0,,10,,,57,127
14298,note_on,0,0,0,,7,,,79,127
14377,note_off,79,0,0,,10,,,57,127
14390,note_on,13,0,0,,0,,,60,127
14469,note_off,79,0,0,,0,,,60,127
14482,note_on,13,0,0,,12,,,59,127
14561,note_off,79,0,0,,12,,,59,127
14574,note_on,13,0,0,,2,,,62,127
14653,note_off,79,0,0,,2,,,62,127
14665,note_off,12,0,0,,7,,,79,127
14667,note_on,2,0,0,,0,,,60,127
14667,note_on,0,0,0,,4,,,76,127
14746,note_off,79,0,0,,0,,,60,127
14759,note_on,13,0,0,,4,,,64,127
14838,note_off,79,0,0,,4,,,64,127
14850,note_off,12,0,0,,4,,,76,127
14852,note_off,2,0,0,,12,,,71,127
14852,note_on,0,0,0,,2,,,50,127
14852,note_on,0,0,0,,6,,,78,127
14852,note_on,0,0,0,,10,,,69,127
14931,note_off,79,0,0,,2,,,50,127
14944,note_on,13,0,0,,6,,,54,127
15023,note_off,79,0,0,,6,,,54,127
15035,note_off,12,0,0,,10,,,69,127
15037,note_on,2,0,0,,4,,,52,127
15037,note_on,0,0,0,,2,,,74,127
15116,note_off,79,0,0,,4,,,52,127
15129,note_on,13,0,0,,7,,,55,127
15208,note_off,79,0,0,,7,,,55,127
15221,note_off,13,0,0,,6,,,78,127
15221,note_on,0,0,0,,6,,,54,127
15300,note_off,79,0,0,,6,,,54,127
15313,note_on,13,0,0,,10,,,57,127
15392,note_off,79,0,0,,10,,,57,127
15404,note_off,12,0,0,,2,,,74,127
15406,note_on,2,0,0,,2,,,50,127
15406,note_on,0,0,0,,0,,,72,127
15406,note_on,0,0,0,,10,,,81,127
15485,note_off,79,0,0,,2,,,50,127
15498,note_on,13,0,0,,6,,,54,127
15577,note_off,79,0,0,,6,,,54,127
15589,note_off,12,0,0,,0,,,72,127
15591,note_on,2,0,0,,7,,,55,127
15591,note_on,0,0,0,,12,,,71,127
15670,note_off,79,0,0,,7,,,55,127
15683,note_on,13,0,0,,12,,,59,127
15762,note_off,79,0,0,,12,,,59,127
15775,note_off,13,0,0,,10,,,81,127
15775,note_on,0,0,0,,10,,,57,127
15775,note_on,0,0,0,,7,,,79,127
15854,note_off,79,0,0,,10,,,57,127
15867,note_on,13,0,0,,0,,,60,127
15946,note_off,79,0,0,,0,,,60,127
15959,note_on,13,0,0,,12,,,59,127
16038,note_off,79,0,0,,12,,,59,127
16051,note_on,13,0,0,,2,,,62,127
16130,note_off,79,0,0,,2,,,62,127
16142,note_off,12,0,0,,7,,,79,127
16144,note_on,2,0,0,,1,,,61,127
16144,note_on,0,0,0,,4,,,76,127
16223,note_off,79,0,0,,1,,,61,127
16236,note_on,13,0,0,,4,,,64,127
16315,note_off,79,0,0,,4,,,64,127
16327,note_off,12,0,0,,4,,,76,127
16329,note_off,2,0,0,,12,,,71,127
16329,note_on,0,0,0,,2,,,50,127
16329,note_on,0,0,0,,6,,,78,127
16329,note_on,0,0,0,,10,,,69,127
16408,note_off,79,0,0,,2,,,50,127
16421,note_on,13,0,0,,2,,,62,127
16500,note_off,79,0,0,,2,,,62,127
16512,note_off,12,0,0,,6,,,78,127
16514,note_on,2,0,0,,6,,,66,127
16514,note_on,0,0,0,,10,,,81,127
16593,note_off,79,0,0,,6,,,66,127
16606,note_on,13,0,0,,2,,,62,127
16685,note_off,79,0,0,,2,,,62,127
16698,note_on,13,0,0,,1,,,61,127
16777,note_off,79,0,0,,1,,,61,127
16790,note_on,13,0,0,,4,,,64,127
16869,note_off,79,0,0,,4,,,64,127
16881,note_off,12,0,0,,10,,,81,127
16883,note_on,2,0,0,,10,,,57,127
16883,note_on,0,0,0,,7,,,79,127
16962,note_off,79,0,0,,10,,,57,127
16975,note_on,13,0,0,,1,,,61,127
17054,note_off,79,0,0,,1,,,61,127
17066,note_off,12,0,0,,7,,,79,127
17067,note_off,1,0,0,,10,,,69,127
17068,note_on,1,0,0,,2,,,50,127
17068,note_on,0,0,0,,6,,,78,127
17068,note_on,0,0,0,,10,,,69,127
17147,note_off,79,0,0,,2,,,50,127
17160,note_on,13,0,0,,2,,,62,127
17239,note_off,79,0,0,,2,,,62,127
17251,note_off,12,0,0,,6,,,78,127
17253,note_on,2,0,0,,6,,,66,127
17253,note_on,0,0,0,,10,,,81,127
17332,note_off,79,0,0,,6,,,66,127
17345,note_on,13,0,0,,2,,,62,127
17424,note_off,79,0,0,,2,,,62,127
17437,note_on,13,0,0,,1,,,61,127
17516,note_off,79,0,0,,1,,,61,127
17529,note_on,13,0,0,,4,,,64,127
17608,note_off,79,0,0,,4,,,64,127
17620,note_off,12,0,0,,10,,,81,127
17622,note_on,2,0,0,,10,,,57,127
17622,note_on,0,0,0,,7,,,79,127
17701,note_off,79,0,0,,10,,,57,127
17714,note_on,13,0,0,,1,,,61,127
17793,note_off,79,0,0,,1,,,61,127
17805,note_off,12,0,0,,7,,,79,127
17806,note_off,1,0,0,,10,,,69,127
17807,note_on,1,0,0,,2,,,50,127
17807,note_on,0,0,0,,6,,,78,127
17807,note_on,0,0,0,,10,,,69,127
17886,note_off,79,0,0,,2,,,50,127
17899,note_on,13,0,0,,2,,,62,127
17978,note_off,79,0,0,,2,,,62,127
17990,note_off,12,0,0,,6,,,78,127
17992,note_on,2,0,0,,6,,,66,127
17992,note_on,0,0,0,,10,,,81,127
18071,note_off,79,0,0,,6,,,66,127
18084,note_on,13,0,0,,2,,,62,127
18163,note_off,79,0,0,,2,,,62,127
18176,note_on,13,0,0,,1,,,61,127
18255,note_off,79,0,0,,1,,,61,127
18268,note_on,13,0,0,,4,,,64,127
18347,note_off,79,0,0,,4,,,64,127
18359,note_off,12,0,0,,10,,,81,127
18361,note_on,2,0,0,,10,,,57,127
18361,note_on,0,0,0,,7,,,79,127
18440,note_off,79,0,0,,10,,,57,127
18453,note_on,13,0,0,,1,,,61,127
18532,note_off,79,0,0,,1,,,61,127
18544,note_off,12,0,0,,7,,,79,127
18545,note_off,1,0,0,,10,,,69,127
18730,note_on,185,0,0,,2,,,38,127
18730,note_on,0,0,0,,2,,,50,127
18730,note_on,0,0,0,,2,,,86,127
18730,note_on,0,0,0,,10,,,81,127
18730,note_on,0,0,0,,6,,,78,127
18730,note_on,0,0,0,,2,,,74,127
18912,note_off,182,0,0,,2,,,74,127
18912,note_off,0,0,0,,6,,,78,127
18912,note_off,0,0,0,,10,,,81,127
18912,note_off,0,0,0,,2,,,86,127
18912,note_off,0,0,0,,2,,,50,127
18912,note_off,0,0,0,,2,,,38,127
18914,note_on,2,0,0,,2,,,50,127
18914,note_on,0,0,0,,2,,,38,127
18914,note_on,0,0,0,,2,,,86,127
18914,note_on,0,0,0,,6,,,78,127
18914,note_on,0,0,0,,10,,,81,127
18914,note_on,0,0,0,,2,,,74,127
18993,note_off,79,0,0,,2,,,74,127
18993,note_off,0,0,0,,10,,,81,127
18993,note_off,0,0,0,,6,,,78,127
18993,note_off,0,0,0,,2,,,86,127
18993,note_off,0,0,0,,2,,,38,127
18993,note_off,0,0,0,,2,,,50,127
19006,note_on,13,0,0,,2,,,38,127
19006,note_on,0,0,0,,2,,,50,127
19006,note_on,0,0,0,,10,,,81,127
19006,note_on,0,0,0,,2,,,86,127
19006,note_on,0,0,0,,2,,,74,127
19006,note_on,0,0,0,,6,,,78,127
19085,note_off,79,0,0,,6,,,78,127
19085,note_off,0,0,0,,2,,,74,127
19085,note_off,0,0,0,,2,,,86,127
19085,note_off,0,0,0,,10,,,81,127
19085,note_off,0,0,0,,2,,,50,127
19085,note_off,0,0,0,,2,,,38,127
19098,note_on,13,0,0,,2,,,50,127
19098,note_on,0,0,0,,2,,,38,127
19098,note_on,0,0,0,,10,,,81,127
19098,note_on,0,0,0,,2,,,86,127
19098,note_on,0,0,0,,6,,,78,127
19098,note_on,0,0,0,,2,,,74,127
19465,note_off,367,0,0,,2,,,38,127
19465,note_off,0,0,0,,2,,,50,127
19467,note_on,2,0,0,,7,,,43,127
19557,note_off,90,0,0,,2,,,74,127
19557,note_off,0,0,0,,6,,,78,127
19557,note_off,0,0,0,,2,,,86,127
19557,note_off,0,0,0,,10,,,81,127
19559,note_on,2,0,0,,12,,,83,127
19638,note_off,79,0,0,,12,,,83,127
19650,note_off,12,0,0,,7,,,43,127
19652,note_on,2,0,0,,7,,,55,127
19652,note_on,0,0,0,,12,,,71,127
19731,note_off,79,0,0,,12,,,71,127
19744,note_on,13,0,0,,12,,,83,127
19823,note_off,79,0,0,,12,,,83,127
19835,note_off,12,0,0,,7,,,55,127
19837,note_on,2,0,0,,10,,,57,127
19837,note_on,0,0,0,,10,,,69,127
19916,note_off,79,0,0,,10,,,69,127
19929,note_on,13,0,0,,10,,,81,127
20008,note_off,79,0,0,,10,,,81,127
20020,note_off,12,0,0,,10,,,57,127
20022,note_on,2,0,0,,10,,,45,127
20022,note_on,0,0,0,,10,,,69,127
20101,note_off,79,0,0,,10,,,69,127
20114,note_on,13,0,0,,7,,,79,127
20193,note_off,79,0,0,,7,,,79,127
20205,note_off,12,0,0,,10,,,45,127
20207,note_on,2,0,0,,2,,,50,127
20207,note_on,0,0,0,,6,,,78,127
20286,note_off,79,0,0,,2,,,50,127
20299,note_on,13,0,0,,2,,,62,127
20378,note_off,79,0,0,,2,,,62,127
20390,note_off,12,0,0,,6,,,78,127
20392,note_on,2,0,0,,6,,,66,127
20392,note_on,0,0,0,,10,,,81,127
20471,note_off,79,0,0,,6,,,66,127
20484,note_on,13,0,0,,2,,,62,127
20563,note_off,79,0,0,,2,,,62,127
20576,note_on,13,0,0,,1,,,61,127
20655,note_off,79,0,0,,1,,,61,127
20668,note_on,13,0,0,,4,,,64,127
20747,note_off,79,0,0,,4,,,64,127
20759,note_off,12,0,0,,10,,,81,127
20761,note_on,2,0,0,,10,,,57,127
20761,note_on,0,0,0,,7,,,79,127
20840,note_off,79,0,0,,10,,,57,127
20853,note_on,13,0,0,,1,,,61,127
20932,note_off,79,0,0,,1,,,61,127
20944,note_off,12,0,0,,7,,,79,127
20946,note_on,2,0,0,,2,,,50,127
20946,note_on,0,0,0,,6,,,78,127
20946,note_on,0,0,0,,10,,,69,127
21025,note_off,79,0,0,,2,,,50,127
21038,note_on,13,0,0,,2,,,62,127
21117,note_off,79,0,0,,2,,,62,127
21129,note_off,12,0,0,,6,,,78,127
21131,note_on,2,0,0,,6,,,66,127
21131,note_on,0,0,0,,10,,,81,127
21210,note_off,79,0,0,,6,,,66,127
21223,note_on,13,0,0,,2,,,62,127
21302,note_off,79,0,0,,2,,,62,127
21315,note_on,13,0,0,,1,,,61,127
21394,note_off,79,0,0,,1,,,61,127
21407,note_on,13,0,0,,4,,,64,127
21486,note_off,79,0,0,,4,,,64,127
21498,note_off,12,0,0,,10,,,81,127
21500,note_on,2,0,0,,10,,,57,127
21500,note_on,0,0,0,,7,,,79,127
21579,note_off,79,0,0,,10,,,57,127
21592,note_on,13,0,0,,1,,,61,127
21671,note_off,79,0,0,,1,,,61,127
21683,note_off,12,0,0,,7,,,79,127
21684,note_off,1,0,0,,10,,,69,127
21685,note_on,1,0,0,,2,,,50,127
21685,note_on,0,0,0,,10,,,69,127
21685,note_on,0,0,0,,6,,,78,127
21764,note_off,79,0,0,,2,,,50,127
21777,note_on,13,0,0,,2,,,62,127
21856,note_off,79,0,0,,2,,,62,127
21868,note_off,12,0,0,,6,,,78,127
21870,note_on,2,0,0,,6,,,66,127
21870,note_on,0,0,0,,10,,,81,127
21949,note_off,79,0,0,,6,,,66,127
21962,note_on,13,0,0,,2,,,62,127
22041,note_off,79,0,0,,2,,,62,127
22054,note_on,13,0,0,,1,,,61,127
22133,note_off,79,0,0,,1,,,61,127
22146,note_on,13,0,0,,4,,,64,127
22225,note_off,79,0,0,,4,,,64,127
22237,note_off,12,0,0,,10,,,81,127
22239,note_on,2,0,0,,10,,,57,127
22239,note_on,0,0,0,,7,,,79,127
22318,note_off,79,0,0,,10,,,57,127
22331,note_on,13,0,0,,1,,,61,127
22410,note_off,79,0,0,,1,,,61,127
22422,note_off,12,0,0,,7,,,79,127
22423,note_off,1,0,0,,10,,,69,127
22608,note_on,185,0,0,,2,,,50,127
22608,note_on,0,0,0,,2,,,38,127
22608,note_on,0,0,0,,10,,,45,127
22608,note_on,0,0,0,,6,,,42,127
22608,note_on,0,0,0,,10,,,81,127
22608,note_on,0,0,0,,2,,,86,127
22608,note_on,0,0,0,,2,,,74,127
22608,note_on,0,0,0,,6,,,78,127
22790,note_off,182,0,0,,6,,,78,127
22790,note_off,0,0,0,,2,,,74,127
22790,note_off,0,0,0,,2,,,86,127
22790,note_off,0,0,0,,10,,,81,127
22790,note_off,0,0,0,,6,,,42,127
22790,note_off,0,0,0,,10,,,45,127
22790,note_off,0,0,0,,2,,,38,127
22790,note_off,0,0,0,,2,,,50,127
22792,note_on,2,0,0,,2,,,38,127
22792,note_on,0,0,0,,2,,,50,127
22792,note_on,0,0,0,,10,,,45,127
22792,note_on,0,0,0,,6,,,42,127
22792,note_on,0,0,0,,2,,,86,127
22792,note_on,0,0,0,,6,,,78,127
22792,note_on,0,0,0,,10,,,81,127
22792,note_on,0,0,0,,2,,,74,127
22871,note_off,79,0,0,,2,,,74,127
22871,note_off,0,0,0,,10,,,81,127
22871,note_off,0,0,0,,6,,,78,127
22871,note_off,0,0,0,,2,,,86,127
22871,note_off,0,0,0,,6,,,42,127
22871,note_off,0,0,0,,10,,,45,127
22871,note_off,0,0,0,,2,,,50,127
22871,note_off,0,0,0,,2,,,38,127
22884,note_on,13,0,0,,2,,,38,127
22884,note_on,0,0,0,,2,,,50,127
22884,note_on,0,0,0,,10,,,45,127
22884,note_on,0,0,0,,6,,,42,127
22884,note_on,0,0,0,,10,,,81,127
22884,note_on,0,0,0,,2,,,86,127
22884,note_on,0,0,0,,6,,,78,127
22884,note_on,0,0,0,,2,,,74,127
22963,note_off,79,0,0,,2,,,74,127
22963,note_off,0,0,0,,6,,,78,127
22963,note_off,0,0,0,,2,,,86,127
22963,note_off,0,0,0,,10,,,81,127
22963,note_off,0,0,0,,6,,,42,127
22963,note_off,0,0,0,,10,,,45,127
22963,note_off,0,0,0,,2,,,50,127
22963,note_off,0,0,0,,2,,,38,127
22976,note_on,13,0,0,,2,,,38,127
22976,note_on,0,0,0,,2,,,50,127
22976,note_on,0,0,0,,10,,,45,127
22976,note_on,0,0,0,,6,,,42,127
22976,note_on,0,0,0,,2,,,86,127
22976,note_on,0,0,0,,6,,,78,127
22976,note_on,0,0,0,,10,,,81,127
22976,note_on,0,0,0,,2,,,74,127
23343,note_off,367,0,0,,6,,,42,127
23343,note_off,0,0,0,,10,,,45,127
23343,note_off,0,0,0,,2,,,50,127
23343,note_off,0,0,0,,2,,,38,127
23435,note_off,92,0,0,,2,,,74,127
23435,note_off,0,0,0,,10,,,81,127
23435,note_off,0,0,0,,6,,,78,127
23435,note_off,0,0,0,,2,,,86,127
23529,note_on,94,0,0,,7,,,43,127
23621,note_on,92,0,0,,12,,,83,127
23700,note_off,79,0,0,,12,,,83,127
23712,note_off,12,0,0,,7,,,43,127
23714,note_on,2,0,0,,7,,,55,127
23714,note_on,0,0,0,,12,,,71,127
23793,note_off,79,0,0,,12,,,71,127
23806,note_on,13,0,0,,12,,,83,127
23885,note_off,79,0,0,,12,,,83,127
23897,note_off,12,0,0,,7,,,55,127
23899,note_on,2,0,0,,10,,,57,127
23899,note_on,0,0,0,,10,,,69,127
23978,note_off,79,0,0,,10,,,69,127
23991,note_on,13,0,0,,10,,,81,127
24070,note_off,79,0,0,,10,,,81,127
24082,note_off,12,0,0,,10,,,57,127
24084,note_on,2,0,0,,10,,,45,127
24084,note_on,0,0,0,,10,,,69,127
24163,note_off,79,0,0,,10,,,69,127
24176,note_on,13,0,0,,1,,,73,127
24255,note_off,79,0,0,,1,,,73,127
24267,note_off,12,0,0,,10,,,45,127
24269,note_on,2,0,0,,2,,,50,127
24269,note_on,0,0,0,,2,,,74,127
24348,note_off,79,0,0,,2,,,74,127
24361,note_on,13,0,0,,2,,,62,127
24440,note_off,79,0,0,,2,,,62,127
24452,note_off,12,0,0,,2,,,50,127
24454,note_on,2,0,0,,2,,,62,127
24454,note_on,0,0,0,,6,,,66,127
24533,note_off,79,0,0,,6,,,66,127
24546,note_on,13,0,0,,10,,,69,127
24625,note_off,79,0,0,,10,,,69,127
24638,note_on,13,0,0,,2,,,74,127
24717,note_off,79,0,0,,2,,,74,127
24729,note_off,12,0,0,,2,,,62,127
24731,note_on,2,0,0,,2,,,62,127
24810,note_off,79,0,0,,2,,,62,127
24823,note_on,13,0,0,,1,,,61,127
24823,note_on,0,0,0,,4,,,76,127
24902,note_off,79,0,0,,4,,,76,127
24915,note_on,13,0,0,,1,,,73,127
24994,note_off,79,0,0,,1,,,73,127
25006,note_off,12,0,0,,1,,,61,127
25008,note_on,2,0,0,,12,,,47,127
25008,note_on,0,0,0,,2,,,74,127
25087,note_off,79,0,0,,2,,,74,127
25100,note_on,13,0,0,,2,,,62,127
25179,note_off,79,0,0,,2,,,62,127
25191,note_off,12,0,0,,12,,,47,127
25193,note_on,2,0,0,,12,,,59,127
25193,note_on,0,0,0,,6,,,66,127
25272,note_off,79,0,0,,6,,,66,127
25285,note_on,13,0,0,,12,,,71,127
25364,note_off,79,0,0,,12,,,71,127
25377,note_on,13,0,0,,2,,,74,127
25456,note_off,79,0,0,,2,,,74,127
25469,note_on,13,0,0,,2,,,62,127
25548,note_off,79,0,0,,2,,,62,127
25560,note_off,12,0,0,,12,,,59,127
25562,note_on,2,0,0,,10,,,57,127
25562,note_on,0,0,0,,4,,,76,127
25641,note_off,79,0,0,,4,,,76,127
25654,note_on,13,0,0,,1,,,73,127
25733,note_off,79,0,0,,1,,,73,127
25745,note_off,12,0,0,,10,,,57,127
25747,note_on,2,0,0,,7,,,43,127
25747,note_on,0,0,0,,2,,,74,127
25826,note_off,79,0,0,,2,,,74,127
25839,note_on,13,0,0,,2,,,62,127
25918,note_off,79,0,0,,2,,,62,127
25930,note_off,12,0,0,,7,,,43,127
25932,note_on,2,0,0,,7,,,55,127
25932,note_on,0,0,0,,7,,,67,127
26011,note_off,79,0,0,,7,,,67,127
26024,note_on,13,0,0,,12,,,71,127
26103,note_off,79,0,0,,12,,,71,127
26116,note_on,13,0,0,,2,,,74,127
26195,note_off,79,0,0,,2,,,74,127
26208,note_on,13,0,0,,2,,,62,127
26287,note_off,79,0,0,,2,,,62,127
26299,note_off,12,0,0,,7,,,55,127
26301,note_on,2,0,0,,6,,,54,127
26301,note_on,0,0,0,,10,,,81,127
26380,note_off,79,0,0,,10,,,81,127
26393,note_on,13,0,0,,6,,,78,127
26472,note_off,79,0,0,,6,,,78,127
26484,note_off,12,0,0,,6,,,54,127
26486,note_on,2,0,0,,4,,,52,127
26486,note_on,0,0,0,,7,,,79,127
26565,note_off,79,0,0,,7,,,79,127
26578,note_on,13,0,0,,1,,,85,127
26657,note_off,79,0,0,,1,,,85,127
26669,note_off,12,0,0,,4,,,52,127
26671,note_on,2,0,0,,2,,,50,127
26671,note_on,0,0,0,,2,,,86,127
26750,note_off,79,0,0,,2,,,86,127
26763,note_on,13,0,0,,6,,,78,127
26842,note_off,79,0,0,,6,,,78,127
26854,note_off,12,0,0,,2,,,50,127
26856,note_on,2,0,0,,7,,,43,127
26856,note_on,0,0,0,,4,,,76,127
26935,note_off,79,0,0,,4,,,76,127
26948,note_on,13,0,0,,2,,,86,127
27027,note_off,79,0,0,,2,,,86,127
27039,note_off,12,0,0,,7,,,43,127
27041,note_on,2,0,0,,10,,,45,127
27041,note_on,0,0,0,,4,,,76,127
27120,note_off,79,0,0,,4,,,76,127
27133,note_on,13,0,0,,1,,,85,127
27212,note_off,79,0,0,,1,,,85,127
27224,note_off,12,0,0,,10,,,45,127
27226,note_on,2,0,0,,2,,,50,127
27226,note_on,0,0,0,,2,,,74,127
27305,note_off,79,0,0,,2,,,74,127
27318,note_on,13,0,0,,2,,,62,127
27397,note_off,79,0,0,,2,,,62,127
27409,note_off,12,0,0,,2,,,50,127
27411,note_on,2,0,0,,2,,,62,127
27411,note_on,0,0,0,,6,,,66,127
27490,note_off,79,0,0,,6,,,66,127
27503,note_on,13,0,0,,10,,,69,127
27582,note_off,79,0,0,,10,,,69,127
27595,note_on,13,0,0,,2,,,74,127
27674,note_off,79,0,0,,2,,,74,127
27686,note_off,12,0,0,,2,,,62,127
27688,note_on,2,0,0,,2,,,62,127
27767,note_off,79,0,0,,2,,,62,127
27780,note_on,13,0,0,,1,,,61,127
27780,note_on,0,0,0,,4,,,76,127
27859,note_off,79,0,0,,4,,,76,127
27872,note_on,13,0,0,,1,,,73,127
27951,note_off,79,0,0,,1,,,73,127
27963,note_off,12,0,0,,1,,,61,127
27965,note_on,2,0,0,,12,,,47,127
27965,note_on,0,0,0,,2,,,74,127
28044,note_off,79,0,0,,2,,,74,127
28057,note_on,13,0,0,,2,,,62,127
28136,note_off,79,0,0,,2,,,62,127
28148,note_off,12,0,0,,12,,,47,127
28150,note_on,2,0,0,,12,,,59,127
28150,note_on,0,0,0,,6,,,66,127
28229,note_off,79,0,0,,6,,,66,127
28242,note_on,13,0,0,,12,,,71,127
28321,note_off,79,0,0,,12,,,71,127
28334,note_on,13,0,0,,2,,,74,127
28413,note_off,79,0,0,,2,,,74,127
28426,note_on,13,0,0,,2,,,62,127
28505,note_off,79,0,0,,2,,,62,127
28517,note_off,12,0,0,,12,,,59,127
28519,note_on,2,0,0,,10,,,57,127
28519,note_on,0,0,0,,4,,,76,127
28598,note_off,79,0,0,,4,,,76,127
28611,note_on,13,0,0,,1,,,73,127
28690,note_off,79,0,0,,1,,,73,127
28702,note_off,12,0,0,,10,,,57,127
28704,note_on,2,0,0,,7,,,43,127
28704,note_on,0,0,0,,2,,,74,127
28783,note_off,79,0,0,,2,,,74,127
28796,note_on,13,0,0,,2,,,62,127
28875,note_off,79,0,0,,2,,,62,127
28887,note_off,12,0,0,,7,,,43,127
28889,note_on,2,0,0,,7,,,55,127
28889,note_on,0,0,0,,7,,,67,127
28968,note_off,79,0,0,,7,,,67,127
28981,note_on,13,0,0,,12,,,71,127
29060,note_off,79,0,0,,12,,,71,127
29073,note_on,13,0,0,,2,,,74,127
29152,note_off,79,0,0,,2,,,74,127
29165,note_on,13,0,0,,2,,,62,127
29244,note_off,79,0,0,,2,,,62,127
29256,note_off,12,0,0,,7,,,55,127
29258,note_on,2,0,0,,6,,,54,127
29258,note_on,0,0,0,,10,,,81,127
29337,note_off,79,0,0,,10,,,81,127
29350,note_on,13,0,0,,6,,,78,127
29429,note_off,79,0,0,,6,,,78,127
29441,note_off,12,0,0,,6,,,54,127
29443,note_on,2,0,0,,4,,,52,127
29443,note_on,0,0,0,,7,,,79,127
29522,note_off,79,0,0,,7,,,79,127
29535,note_on,13,0,0,,1,,,85,127
29614,note_off,79,0,0,,1,,,85,127
29626,note_off,12,0,0,,4,,,52,127
29628,note_on,2,0,0,,2,,,50,127
29628,note_on,0,0,0,,2,,,86,127
29707,note_off,79,0,0,,2,,,86,127
29720,note_on,13,0,0,,6,,,78,127
29799,note_off,79,0,0,,6,,,78,127
29811,note_off,12,0,0,,2,,,50,127
29813,note_on,2,0,0,,7,,,43,127
29813,note_on,0,0,0,,4,,,76,127
29892,note_off,79,0,0,,4,,,76,127
29905,note_on,13,0,0,,2,,,86,127
29984,note_off,79,0,0,,2,,,86,127
29996,note_off,12,0,0,,7,,,43,127
29998,note_on,2,0,0,,10,,,45,127
29998,note_on,0,0,0,,4,,,76,127
30077,note_off,79,0,0,,4,,,76,127
30090,note_on,13,0,0,,1,,,85,127
30169,note_off,79,0,0,,1,,,85,127
30181,note_off,12,0,0,,10,,,45,127
30183,note_on,2,0,0,,2,,,38,127
30183,note_on,0,0,0,,2,,,86,127
30262,note_off,79,0,0,,2,,,86,127
30275,note_on,13,0,0,,10,,,81,127
30354,note_off,79,0,0,,10,,,81,127
30367,note_on,13,0,0,,6,,,78,127
30446,note_off,79,0,0,,6,,,78,127
30459,note_on,13,0,0,,2,,,74,127
30538,note_off,79,0,0,,2,,,74,127
30551,note_on,13,0,0,,10,,,69,127
30630,note_off,79,0,0,,10,,,69,127
30643,note_on,13,0,0,,6,,,66,127
30722,note_off,79,0,0,,6,,,66,127
30735,note_on,13,0,0,,2,,,62,127
30814,note_off,79,0,0,,2,,,62,127
30827,note_on,13,0,0,,10,,,57,127
30906,note_off,79,0,0,,10,,,57,127
30918,note_off,12,0,0,,2,,,38,127
30919,note_on,1,0,0,,6,,,54,127
30998,note_off,79,0,0,,6,,,54,127
31011,note_on,13,0,0,,2,,,50,127
31090,note_off,79,0,0,,2,,,50,127
31103,note_on,13,0,0,,10,,,45,127
31182,note_off,79,0,0,,10,,,45,127
31195,note_on,13,0,0,,6,,,42,127
31274,note_off,79,0,0,,6,,,42,127
31287,note_on,13,0,0,,2,,,38,127
31652,note_off,365,0,0,,2,,,38,127
31656,note_on,4,0,0,,2,,,62,127
31735,note_off,79,0,0,,2,,,62,127
31748,note_on,13,0,0,,6,,,66,127
31827,note_off,79,0,0,,6,,,66,127
31840,note_on,13,0,0,,4,,,64,127
31840,note_on,0,0,0,,10,,,81,127
31919,note_off,79,0,0,,4,,,64,127
31932,note_on,13,0,0,,7,,,67,127
32011,note_off,79,0,0,,7,,,67,127
32023,note_off,12,0,0,,10,,,81,127
32025,note_on,2,0,0,,6,,,66,127
32025,note_on,0,0,0,,12,,,83,127
32054,note_off,29,0,0,,12,,,83,127
32056,note_on,2,0,0,,10,,,81,127
32085,note_off,29,0,0,,10,,,81,127
32087,note_on,2,0,0,,12,,,83,127
32104,note_off,17,0,0,,6,,,66,127
32116,note_off,12,0,0,,12,,,83,127
32118,note_on,2,0,0,,10,,,69,127
32118,note_on,0,0,0,,10,,,81,127
32197,note_off,79,0,0,,10,,,69,127
32210,note_on,13,0,0,,1,,,61,127
32289,note_off,79,0,0,,1,,,61,127
32302,note_on,13,0,0,,4,,,64,127
32381,note_off,79,0,0,,4,,,64,127
32394,note_on,13,0,0,,2,,,62,127
32473,note_off,79,0,0,,2,,,62,127
32485,note_off,12,0,0,,10,,,81,127
32486,note_on,1,0,0,,6,,,66,127
32565,note_off,79,0,0,,6,,,66,127
32578,note_on,13,0,0,,4,,,64,127
32578,note_on,0,0,0,,10,,,81,127
32657,note_off,79,0,0,,4,,,64,127
32670,note_on,13,0,0,,7,,,67,127
32749,note_off,79,0,0,,7,,,67,127
32761,note_off,12,0,0,,10,,,81,127
32763,note_on,2,0,0,,6,,,66,127
32763,note_on,0,0,0,,12,,,83,127
32792,note_off,29,0,0,,12,,,83,127
32794,note_on,2,0,0,,10,,,81,127
32823,note_off,29,0,0,,10,,,81,127
32825,note_on,2,0,0,,12,,,83,127
32842,note_off,17,0,0,,6,,,66,127
32854,note_off,12,0,0,,12,,,83,127
32856,note_on,2,0,0,,10,,,69,127
32856,note_on,0,0,0,,10,,,81,127
32935,note_off,79,0,0,,10,,,69,127
32948,note_on,13,0,0,,1,,,61,127
33027,note_off,79,0,0,,1,,,61,127
33040,note_on,13,0,0,,4,,,64,127
33119,note_off,79,0,0,,4,,,64,127
33132,note_on,13,0,0,,2,,,62,127
33211,note_off,79,0,0,,2,,,62,127
33223,note_off,12,0,0,,10,,,81,127
33224,note_on,1,0,0,,6,,,66,127
33303,note_off,79,0,0,,6,,,66,127
33316,note_on,13,0,0,,4,,,64,127
33316,note_on,0,0,0,,10,,,81,127
33395,note_off,79,0,0,,4,,,64,127
33408,note_on,13,0,0,,7,,,67,127
33487,note_off,79,0,0,,7,,,67,127
33499,note_off,12,0,0,,10,,,81,127
33501,note_on,2,0,0,,6,,,66,127
33501,note_on,0,0,0,,12,,,83,127
33530,note_off,29,0,0,,12,,,83,127
33532,note_on,2,0,0,,10,,,81,127
33561,note_off,29,0,0,,10,,,81,127
33563,note_on,2,0,0,,12,,,83,127
33580,note_off,17,0,0,,6,,,66,127
33592,note_off,12,0,0,,12,,,83,127
33594,note_on,2,0,0,,10,,,69,127
33594,note_on,0,0,0,,10,,,81,127
33673,note_off,79,0,0,,10,,,69,127
33686,note_on,13,0,0,,3,,,63,127
33765,note_off,79,0,0,,3,,,63,127
33778,note_on,13,0,0,,6,,,66,127
33857,note_off,79,0,0,,6,,,66,127
33870,note_on,13,0,0,,4,,,64,127
33949,note_off,79,0,0,,4,,,64,127
33961,note_off,12,0,0,,10,,,81,127
33962,note_on,1,0,0,,7,,,67,127
34041,note_off,79,0,0,,7,,,67,127
34054,note_on,13,0,0,,6,,,66,127
34054,note_on,0,0,0,,12,,,83,127
34133,note_off,79,0,0,,6,,,66,127
34146,note_on,13,0,0,,10,,,69,127
34225,note_off,79,0,0,,10,,,69,127
34237,note_off,12,0,0,,12,,,83,127
34239,note_on,2,0,0,,7,,,67,127
34239,note_on,0,0,0,,0,,,84,127
34268,note_off,29,0,0,,0,,,84,127
34270,note_on,2,0,0,,12,,,83,127
34299,note_off,29,0,0,,12,,,83,127
34301,note_on,2,0,0,,0,,,84,127
34318,note_off,17,0,0,,7,,,67,127
34330,note_off,12,0,0,,0,,,84,127
34332,note_on,2,0,0,,12,,,71,127
34332,note_on,0,0,0,,12,,,83,127
34411,note_off,79,0,0,,12,,,71,127
34424,note_on,13,0,0,,3,,,63,127
34503,note_off,79,0,0,,3,,,63,127
34516,note_on,13,0,0,,6,,,66,127
34595,note_off,79,0,0,,6,,,66,127
34608,note_on,13,0,0,,4,,,64,127
34687,note_off,79,0,0,,4,,,64,127
34700,note_on,13,0,0,,7,,,67,127
34779,note_off,79,0,0,,7,,,67,127
34791,note_off,12,0,0,,12,,,83,127
34793,note_on,2,0,0,,6,,,66,127
34793,note_on,0,0,0,,12,,,83,127
34872,note_off,79,0,0,,6,,,66,127
34885,note_on,13,0,0,,10,,,69,127
34964,note_off,79,0,0,,10,,,69,127
34976,note_off,12,0,0,,12,,,83,127
34978,note_on,2,0,0,,7,,,67,127
34978,note_on,0,0,0,,0,,,84,127
35007,note_off,29,0,0,,0,,,84,127
35009,note_on,2,0,0,,12,,,83,127
35038,note_off,29,0,0,,12,,,83,127
35040,note_on,2,0,0,,0,,,84,127
35057,note_off,17,0,0,,7,,,67,127
35069,note_off,12,0,0,,0,,,84,127
35071,note_on,2,0,0,,12,,,71,127
35071,note_on,0,0,0,,12,,,83,127
35150,note_off,79,0,0,,12,,,71,127
35163,note_on,13,0,0,,3,,,63,127
35242,note_off,79,0,0,,3,,,63,127
35255,note_on,13,0,0,,6,,,66,127
35334,note_off,79,0,0,,6,,,66,127
35347,note_on,13,0,0,,4,,,64,127
35426,note_off,79,0,0,,4,,,64,127
35438,note_off,12,0,0,,12,,,83,127
35439,note_on,1,0,0,,7,,,67,127
35518,note_off,79,0,0,,7,,,67,127
35531,note_on,13,0,0,,6,,,66,127
35531,note_on,0,0,0,,12,,,83,127
35610,note_off,79,0,0,,6,,,66,127
35623,note_on,13,0,0,,10,,,69,127
35702,note_off,79,0,0,,10,,,69,127
35714,note_off,12,0,0,,12,,,83,127
35716,note_on,2,0,0,,7,,,67,127
35716,note_on,0,0,0,,0,,,84,127
35745,note_off,29,0,0,,0,,,84,127
35747,note_on,2,0,0,,12,,,83,127
35776,note_off,29,0,0,,12,,,83,127
35778,note_on,2,0,0,,0,,,84,127
35795,note_off,17,0,0,,7,,,67,127
35807,note_off,12,0,0,,0,,,84,127
35809,note_on,2,0,0,,12,,,71,127
35809,note_on,0,0,0,,12,,,83,127
35888,note_off,79,0,0,,12,,,71,127
35901,note_on,13,0,0,,4,,,64,127
35980,note_off,79,0,0,,4,,,64,127
35993,note_on,13,0,0,,7,,,67,127
36072,note_off,79,0,0,,7,,,67,127
36085,note_on,13,0,0,,10,,,57,127
36164,note_off,79,0,0,,10,,,57,127
36176,note_off,12,0,0,,12,,,83,127
36177,note_on,1,0,0,,10,,,69,127
36256,note_off,79,0,0,,10,,,69,127
36269,note_on,13,0,0,,6,,,66,127
36269,note_on,0,0,0,,0,,,84,127
36348,note_off,79,0,0,,6,,,66,127
36361,note_on,13,0,0,,10,,,69,127
36440,note_off,79,0,0,,10,,,69,127
36453,note_on,13,0,0,,7,,,55,127
36532,note_off,79,0,0,,7,,,55,127
36538,note_off,6,0,0,,0,,,84,127
36546,note_on,8,0,0,,7,,,67,127
36625,note_off,79,0,0,,7,,,67,127
36638,note_on,13,0,0,,4,,,64,127
36638,note_on,0,0,0,,12,,,83,127
36717,note_off,79,0,0,,4,,,64,127
36730,note_on,13,0,0,,7,,,67,127
36809,note_off,79,0,0,,7,,,67,127
36822,note_on,13,0,0,,6,,,54,127
36901,note_off,79,0,0,,6,,,54,127
36907,note_off,6,0,0,,12,,,83,127
36915,note_on,8,0,0,,6,,,66,127
36994,note_off,79,0,0,,6,,,66,127
37007,note_on,13,0,0,,3,,,63,127
37007,note_on,0,0,0,,10,,,81,127
37086,note_off,79,0,0,,3,,,63,127
37099,note_on,13,0,0,,6,,,66,127
37178,note_off,79,0,0,,6,,,66,127
37191,note_on,13,0,0,,4,,,52,127
37270,note_off,79,0,0,,4,,,52,127
37276,note_off,6,0,0,,10,,,81,127
37284,note_on,8,0,0,,4,,,64,127
37363,note_off,79,0,0,,4,,,64,127
37376,note_on,13,0,0,,0,,,60,127
37376,note_on,0,0,0,,7,,,79,127
37455,note_off,79,0,0,,0,,,60,127
37468,note_on,13,0,0,,4,,,64,127
37547,note_off,79,0,0,,4,,,64,127
37560,note_on,13,0,0,,2,,,50,127
37639,note_off,79,0,0,,2,,,50,127
37645,note_off,6,0,0,,7,,,79,127
37653,note_on,8,0,0,,2,,,62,127
37732,note_off,79,0,0,,2,,,62,127
37745,note_on,13,0,0,,12,,,59,127
37745,note_on,0,0,0,,6,,,78,127
37824,note_off,79,0,0,,12,,,59,127
37837,note_on,13,0,0,,2,,,62,127
37916,note_off,79,0,0,,2,,,62,127
37929,note_on,13,0,0,,0,,,48,127
38008,note_off,79,0,0,,0,,,48,127
38014,note_off,6,0,0,,6,,,78,127
38022,note_on,8,0,0,,0,,,60,127
38101,note_off,79,0,0,,0,,,60,127
38114,note_on,13,0,0,,10,,,57,127
38114,note_on,0,0,0,,4,,,76,127
38193,note_off,79,0,0,,10,,,57,127
38206,note_on,13,0,0,,0,,,60,127
38252,note_off,46,0,0,,4,,,76,127
38285,note_off,33,0,0,,0,,,60,127
38298,note_on,13,0,0,,12,,,47,127
38298,note_on,0,0,0,,3,,,75,127
38377,note_off,79,0,0,,12,,,47,127
38390,note_on,13,0,0,,3,,,51,127
38469,note_off,79,0,0,,3,,,51,127
38481,note_off,12,0,0,,3,,,75,127
38483,note_on,2,0,0,,1,,,49,127
38483,note_on,0,0,0,,12,,,83,127
38562,note_off,79,0,0,,1,,,49,127
38575,note_on,13,0,0,,4,,,52,127
38654,note_off,79,0,0,,4,,,52,127
38667,note_on,13,0,0,,3,,,51,127
38746,note_off,79,0,0,,3,,,51,127
38759,note_on,13,0,0,,6,,,54,127
38838,note_off,79,0,0,,6,,,54,127
38850,note_off,12,0,0,,12,,,83,127
38852,note_on,2,0,0,,12,,,47,127
38852,note_on,0,0,0,,10,,,81,127
38931,note_off,79,0,0,,12,,,47,127
38944,note_on,13,0,0,,3,,,51,127
39023,note_off,79,0,0,,3,,,51,127
39035,note_off,12,0,0,,10,,,81,127
39037,note_on,2,0,0,,4,,,52,127
39037,note_on,0,0,0,,7,,,79,127
39116,note_off,79,0,0,,4,,,52,127
39129,note_on,13,0,0,,7,,,55,127
39208,note_off,79,0,0,,7,,,55,127
39220,note_off,12,0,0,,7,,,79,127
39222,note_on,2,0,0,,6,,,54,127
39222,note_on,0,0,0,,6,,,78,127
39301,note_off,79,0,0,,6,,,54,127
39314,note_on,13,0,0,,10,,,57,127
39393,note_off,79,0,0,,10,,,57,127
39405,note_off,12,0,0,,6,,,78,127
39407,note_on,2,0,0,,7,,,55,127
39407,note_on,0,0,0,,12,,,83,127
39407,note_on,0,0,0,,4,,,76,127
39486,note_off,79,0,0,,7,,,55,127
39499,note_on,13,0,0,,12,,,59,127
39578,note_off,79,0,0,,12,,,59,127
39590,note_off,12,0,0,,4,,,76,127
39592,note_on,2,0,0,,4,,,52,127
39592,note_on,0,0,0,,2,,,74,127
39671,note_off,79,0,0,,4,,,52,127
39684,note_on,13,0,0,,7,,,55,127
39763,note_off,79,0,0,,7,,,55,127
39775,note_off,12,0,0,,2,,,74,127
39777,note_on,2,0,0,,10,,,45,127
39777,note_on,0,0,0,,0,,,72,127
39856,note_off,79,0,0,,10,,,45,127
39869,note_on,13,0,0,,0,,,48,127
39948,note_off,79,0,0,,0,,,48,127
39960,note_off,12,0,0,,0,,,72,127
39962,note_on,2,0,0,,12,,,47,127
39962,note_on,0,0,0,,2,,,74,127
40041,note_off,79,0,0,,12,,,47,127
40054,note_on,13,0,0,,2,,,50,127
40133,note_off,79,0,0,,2,,,50,127
40145,note_off,12,0,0,,2,,,74,127
40147,note_off,2,0,0,,12,,,83,127
40147,note_on,0,0,0,,0,,,48,127
40147,note_on,0,0,0,,10,,,81,127
40147,note_on,0,0,0,,4,,,76,127
40226,note_off,79,0,0,,0,,,48,127
40239,note_on,13,0,0,,4,,,52,127
40318,note_off,79,0,0,,4,,,52,127
40330,note_off,12,0,0,,10,,,81,127
40332,note_on,2,0,0,,10,,,45,127
40332,note_on,0,0,0,,7,,,79,127
40411,note_off,79,0,0,,10,,,45,127
40424,note_on,13,0,0,,0,,,48,127
40503,note_off,79,0,0,,0,,,48,127
40515,note_off,12,0,0,,7,,,79,127
40517,note_off,2,0,0,,4,,,76,127
40517,note_on,0,0,0,,2,,,50,127
40517,note_on,0,0,0,,6,,,78,127
40596,note_off,79,0,0,,2,,,50,127
40609,note_on,13,0,0,,6,,,54,127
40688,note_off,79,0,0,,6,,,54,127
40700,note_off,12,0,0,,6,,,78,127
40702,note_on,2,0,0,,4,,,52,127
40702,note_on,0,0,0,,4,,,76,127
40781,note_off,79,0,0,,4,,,52,127
40794,note_on,13,0,0,,7,,,55,127
40873,note_off,79,0,0,,7,,,55,127
40885,note_off,12,0,0,,4,,,76,127
40887,note_on,2,0,0,,6,,,54,127
40887,note_on,0,0,0,,10,,,81,127
40887,note_on,0,0,0,,2,,,74,127
40966,note_off,79,0,0,,6,,,54,127
40979,note_on,13,0,0,,10,,,57,127
41058,note_off,79,0,0,,10,,,57,127
41070,note_off,12,0,0,,2,,,74,127
41072,note_on,2,0,0,,2,,,50,127
41072,note_on,0,0,0,,0,,,72,127
41151,note_off,79,0,0,,2,,,50,127
41164,note_on,13,0,0,,6,,,54,127
41243,note_off,79,0,0,,6,,,54,127
41255,note_off,12,0,0,,0,,,72,127
41257,note_on,2,0,0,,7,,,55,127
41257,note_on,0,0,0,,12,,,71,127
41336,note_off,79,0,0,,7,,,55,127
41349,note_on,13,0,0,,12,,,59,127
41428,note_off,79,0,0,,12,,,59,127
41440,note_off,12,0,0,,12,,,71,127
41442,note_on,2,0,0,,10,,,57,127
41442,note_on,0,0,0,,0,,,72,127
41521,note_off,79,0,0,,10,,,57,127
41534,note_on,13,0,0,,0,,,60,127
41613,note_off,79,0,0,,0,,,60,127
41625,note_off,12,0,0,,0,,,72,127
41626,note_off,1,0,0,,10,,,81,127
41627,note_on,1,0,0,,12,,,59,127
41627,note_on,0,0,0,,7,,,79,127
41627,note_on,0,0,0,,2,,,74,127
41706,note_off,79,0,0,,12,,,59,127
41719,note_on,13,0,0,,2,,,62,127
41798,note_off,79,0,0,,2,,,62,127
41810,note_off,12,0,0,,2,,,74,127
41812,note_on,2,0,0,,0,,,60,127
41812,note_on,0,0,0,,4,,,76,127
41891,note_off,79,0,0,,0,,,60,127
41904,note_on,13,0,0,,4,,,64,127
41983,note_off,79,0,0,,4,,,64,127
41995,note_off,12,0,0,,4,,,76,127
41997,note_off,2,0,0,,7,,,79,127
41997,note_on,0,0,0,,2,,,62,127
41997,note_on,0,0,0,,6,,,78,127
41997,note_on,0,0,0,,10,,,69,127
42076,note_off,79,0,0,,2,,,62,127
42089,note_on,13,0,0,,6,,,66,127
42168,note_off,79,0,0,,6,,,66,127
42180,note_off,12,0,0,,10,,,69,127
42180,note_off,0,0,0,,6,,,78,127
42182,note_on,2,0,0,,4,,,64,127
42182,note_on,0,0,0,,4,,,76,127
42261,note_off,79,0,0,,4,,,64,127
42274,note_on,13,0,0,,7,,,67,127
42353,note_off,79,0,0,,7,,,67,127
42365,note_off,12,0,0,,4,,,76,127
42367,note_on,2,0,0,,6,,,66,127
42367,note_on,0,0,0,,2,,,74,127
42446,note_off,79,0,0,,6,,,66,127
42459,note_on,13,0,0,,10,,,69,127
42538,note_off,79,0,0,,10,,,69,127
42550,note_off,12,0,0,,2,,,74,127
42552,note_on,2,0,0,,2,,,62,127
42552,note_on,0,0,0,,0,,,72,127
42631,note_off,79,0,0,,2,,,62,127
42644,note_on,13,0,0,,6,,,66,127
42723,note_off,79,0,0,,6,,,66,127
42735,note_off,12,0,0,,0,,,72,127
42737,note_on,2,0,0,,7,,,55,127
42737,note_on,0,0,0,,12,,,71,127
42816,note_off,79,0,0,,7,,,55,127
42829,note_on,13,0,0,,7,,,67,127
42908,note_off,79,0,0,,7,,,67,127
42920,note_off,12,0,0,,12,,,71,127
42922,note_on,2,0,0,,12,,,71,127
42922,note_on,0,0,0,,2,,,86,127
43001,note_off,79,0,0,,12,,,71,127
43014,note_on,13,0,0,,7,,,67,127
43093,note_off,79,0,0,,7,,,67,127
43106,note_on,13,0,0,,6,,,66,127
43185,note_off,79,0,0,,6,,,66,127
43198,note_on,13,0,0,,10,,,69,127
43277,note_off,79,0,0,,10,,,69,127
43289,note_off,12,0,0,,2,,,86,127
43291,note_on,2,0,0,,2,,,62,127
43291,note_on,0,0,0,,0,,,84,127
43370,note_off,79,0,0,,2,,,62,127
43383,note_on,13,0,0,,6,,,66,127
43462,note_off,79,0,0,,6,,,66,127
43474,note_off,12,0,0,,0,,,84,127
43476,note_on,2,0,0,,7,,,55,127
43476,note_on,0,0,0,,12,,,83,127
43476,note_on,0,0,0,,2,,,74,127
43555,note_off,79,0,0,,7,,,55,127
43568,note_on,13,0,0,,7,,,67,127
43647,note_off,79,0,0,,7,,,67,127
43659,note_off,12,0,0,,12,,,83,127
43661,note_on,2,0,0,,12,,,71,127
43661,note_on,0,0,0,,2,,,86,127
43740,note_off,79,0,0,,12,,,71,127
43753,note_on,13,0,0,,7,,,67,127
43832,note_off,79,0,0,,7,,,67,127
43845,note_on,13,0,0,,6,,,66,127
43924,note_off,79,0,0,,6,,,66,127
43937,note_on,13,0,0,,10,,,69,127
44016,note_off,79,0,0,,10,,,69,127
44028,note_off,12,0,0,,2,,,86,127
44030,note_on,2,0,0,,2,,,62,127
44030,note_on,0,0,0,,0,,,84,127
44109,note_off,79,0,0,,2,,,62,127
44122,note_on,13,0,0,,6,,,66,127
44201,note_off,79,0,0,,6,,,66,127
44213,note_off,12,0,0,,0,,,84,127
44214,note_off,1,0,0,,2,,,74,127
44215,note_on,1,0,0,,7,,,55,127
44215,note_on,0,0,0,,12,,,83,127
44215,note_on,0,0,0,,2,,,74,127
44294,note_off,79,0,0,,7,,,55,127
44307,note_on,13,0,0,,7,,,67,127
44386,note_off,79,0,0,,7,,,67,127
44398,note_off,12,0,0,,12,,,83,127
44400,note_on,2,0,0,,12,,,71,127
44400,note_on,0,0,0,,2,,,86,127
44479,note_off,79,0,0,,12,,,71,127
44492,note_on,13,0,0,,7,,,67,127
44571,note_off,79,0,0,,7,,,67,127
44584,note_on,13,0,0,,6,,,66,127
44663,note_off,79,0,0,,6,,,66,127
44676,note_on,13,0,0,,10,,,69,127
44755,note_off,79,0,0,,10,,,69,127
44767,note_off,12,0,0,,2,,,86,127
44769,note_on,2,0,0,,2,,,62,127
44769,note_on,0,0,0,,0,,,84,127
44848,note_off,79,0,0,,2,,,62,127
44861,note_on,13,0,0,,6,,,66,127
44940,note_off,79,0,0,,6,,,66,127
44952,note_off,12,0,0,,0,,,84,127
44953,note_off,1,0,0,,2,,,74,127
45138,note_on,185,0,0,,7,,,55,127
45138,note_on,0,0,0,,7,,,43,127
45138,note_on,0,0,0,,12,,,47,127
45138,note_on,0,0,0,,2,,,50,127
45138,note_on,0,0,0,,7,,,67,127
45138,note_on,0,0,0,,2,,,74,127
45138,note_on,0,0,0,,7,,,79,127
45138,note_on,0,0,0,,12,,,71,127
45320,note_off,182,0,0,,12,,,71,127
45320,note_off,0,0,0,,7,,,79,127
45320,note_off,0,0,0,,2,,,74,127
45320,note_off,0,0,0,,7,,,67,127
45320,note_off,0,0,0,,2,,,50,127
45320,note_off,0,0,0,,12,,,47,127
45320,note_off,0,0,0,,7,,,43,127
45320,note_off,0,0,0,,7,,,55,127
45322,note_on,2,0,0,,7,,,55,127
45322,note_on,0,0,0,,7,,,43,127
45322,note_on,0,0,0,,12,,,47,127
45322,note_on,0,0,0,,2,,,50,127
45322,note_on,0,0,0,,2,,,74,127
45322,note_on,0,0,0,,7,,,79,127
45322,note_on,0,0,0,,7,,,67,127
45322,note_on,0,0,0,,12,,,71,127
45401,note_off,79,0,0,,12,,,71,127
45401,note_off,0,0,0,,7,,,67,127
45401,note_off,0,0,0,,7,,,79,127
45401,note_off,0,0,0,,2,,,74,127
45401,note_off,0,0,0,,2,,,50,127
45401,note_off,0,0,0,,12,,,47,127
45401,note_off,0,0,0,,7,,,43,127
45401,note_off,0,0,0,,7,,,55,127
45414,note_on,13,0,0,,7,,,43,127
45414,note_on,0,0,0,,7,,,55,127
45414,note_on,0,0,0,,12,,,47,127
45414,note_on,0,0,0,,2,,,50,127
45414,note_on,0,0,0,,12,,,71,127
45414,note_on,0,0,0,,7,,,79,127
45414,note_on,0,0,0,,7,,,67,127
45414,note_on,0,0,0,,2,,,74,127
45493,note_off,79,0,0,,2,,,74,127
45493,note_off,0,0,0,,7,,,67,127
45493,note_off,0,0,0,,7,,,79,127
45493,note_off,0,0,0,,12,,,71,127
45493,note_off,0,0,0,,2,,,50,127
45493,note_off,0,0,0,,12,,,47,127
45493,note_off,0,0,0,,7,,,55,127
45493,note_off,0,0,0,,7,,,43,127
45506,note_on,13,0,0,,7,,,43,127
45506,note_on,0,0,0,,7,,,55,127
45506,note_on,0,0,0,,12,,,47,127
45506,note_on,0,0,0,,2,,,50,127
45506,note_on,0,0,0,,7,,,79,127
45506,note_on,0,0,0,,7,,,67,127
45506,note_on,0,0,0,,12,,,71,127
45506,note_on,0,0,0,,2,,,74,127
45873,note_off,367,0,0,,2,,,50,127
45873,note_off,0,0,0,,12,,,47,127
45873,note_off,0,0,0,,7,,,55,127
45873,note_off,0,0,0,,7,,,43,127
45875,note_on,2,0,0,,0,,,48,127
45965,note_off,90,0,0,,2,,,74,127
45965,note_off,0,0,0,,12,,,71,127
45965,note_off,0,0,0,,7,,,67,127
45965,note_off,0,0,0,,7,,,79,127
45967,note_on,2,0,0,,4,,,88,127
46046,note_off,79,0,0,,4,,,88,127
46058,note_off,12,0,0,,0,,,48,127
46060,note_on,2,0,0,,0,,,60,127
46060,note_on,0,0,0,,4,,,76,127
46139,note_off,79,0,0,,4,,,76,127
46152,note_on,13,0,0,,4,,,88,127
46231,note_off,79,0,0,,4,,,88,127
46243,note_off,12,0,0,,0,,,60,127
46245,note_on,2,0,0,,2,,,62,127
46245,note_on,0,0,0,,2,,,86,127
46324,note_off,79,0,0,,2,,,86,127
46337,note_on,13,0,0,,0,,,84,127
46416,note_off,79,0,0,,0,,,84,127
46428,note_off,12,0,0,,2,,,62,127
46430,note_on,2,0,0,,2,,,50,127
46430,note_on,0,0,0,,12,,,83,127
46509,note_off,79,0,0,,12,,,83,127
46522,note_on,13,0,0,,10,,,81,127
46601,note_off,79,0,0,,10,,,81,127
46613,note_off,12,0,0,,2,,,50,127
46615,note_on,2,0,0,,7,,,55,127
46615,note_on,0,0,0,,12,,,83,127
46615,note_on,0,0,0,,2,,,74,127
46694,note_off,79,0,0,,7,,,55,127
46707,note_on,13,0,0,,7,,,67,127
46786,note_off,79,0,0,,7,,,67,127
46798,note_off,12,0,0,,12,,,83,127
46800,note_on,2,0,0,,12,,,71,127
46800,note_on,0,0,0,,2,,,86,127
46879,note_off,79,0,0,,12,,,71,127
46892,note_on,13,0,0,,7,,,67,127
46971,note_off,79,0,0,,7,,,67,127
46984,note_on,13,0,0,,6,,,66,127
47063,note_off,79,0,0,,6,,,66,127
47076,note_on,13,0,0,,10,,,69,127
47155,note_off,79,0,0,,10,,,69,127
47167,note_off,12,0,0,,2,,,86,127
47169,note_on,2,0,0,,2,,,62,127
47169,note_on,0,0,0,,0,,,84,127
47248,note_off,79,0,0,,2,,,62,127
47261,note_on,13,0,0,,6,,,66,127
47340,note_off,79,0,0,,6,,,66,127
47352,note_off,12,0,0,,0,,,84,127
47353,note_off,1,0,0,,2,,,74,127
47354,note_on,1,0,0,,7,,,55,127
47354,note_on,0,0,0,,2,,,74,127
47354,note_on,0,0,0,,12,,,83,127
47433,note_off,79,0,0,,7,,,55,127
47446,note_on,13,0,0,,7,,,67,127
47525,note_off,79,0,0,,7,,,67,127
47537,note_off,12,0,0,,12,,,83,127
47539,note_on,2,0,0,,12,,,71,127
47539,note_on,0,0,0,,2,,,86,127
47618,note_off,79,0,0,,12,,,71,127
47631,note_on,13,0,0,,7,,,67,127
47710,note_off,79,0,0,,7,,,67,127
47723,note_on,13,0,0,,6,,,66,127
47802,note_off,79,0,0,,6,,,66,127
47815,note_on,13,0,0,,10,,,69,127
47894,note_off,79,0,0,,10,,,69,127
47906,note_off,12,0,0,,2,,,86,127
47908,note_on,2,0,0,,2,,,62,127
47908,note_on,0,0,0,,0,,,84,127
47987,note_off,79,0,0,,2,,,62,127
48000,note_on,13,0,0,,6,,,66,127
48079,note_off,79,0,0,,6,,,66,127
48091,note_off,12,0,0,,0,,,84,127
48092,note_off,1,0,0,,2,,,74,127
48093,note_on,1,0,0,,7,,,55,127
48093,note_on,0,0,0,,2,,,74,127
48093,note_on,0,0,0,,12,,,83,127
48172,note_off,79,0,0,,7,,,55,127
48185,note_on,13,0,0,,7,,,67,127
48264,note_off,79,0,0,,7,,,67,127
48276,note_off,12,0,0,,12,,,83,127
48278,note_on,2,0,0,,12,,,71,127
48278,note_on,0,0,0,,2,,,86,127
48357,note_off,79,0,0,,12,,,71,127
48370,note_on,13,0,0,,7,,,67,127
48449,note_off,79,0,0,,7,,,67,127
48462,note_on,13,0,0,,6,,,66,127
48541,note_off,79,0,0,,6,,,66,127
48554,note_on,13,0,0,,10,,,69,127
48633,note_off,79,0,0,,10,,,69,127
48645,note_off,12,0,0,,2,,,86,127
48647,note_on,2,0,0,,2,,,62,127
48647,note_on,0,0,0,,0,,,84,127
48726,note_off,79,0,0,,2,,,62,127
48739,note_on,13,0,0,,6,,,66,127
48818,note_off,79,0,0,,6,,,66,127
48830,note_off,12,0,0,,0,,,84,127
48831,note_off,1,0,0,,2,,,74,127
49016,note_on,185,0,0,,7,,,43,127
49016,note_on,0,0,0,,2,,,38,127
49016,note_on,0,0,0,,12,,,35,127
49016,note_on,0,0,0,,7,,,31,127
49016,note_on,0,0,0,,7,,,91,127
49016,note_on,0,0,0,,2,,,86,127
49016,note_on,0,0,0,,12,,,83,127
49016,note_on,0,0,0,,7,,,79,127
49198,note_off,182,0,0,,7,,,79,127
49198,note_off,0,0,0,,12,,,83,127
49198,note_off,0,0,0,,2,,,86,127
49198,note_off,0,0,0,,7,,,91,127
49198,note_off,0,0,0,,7,,,31,127
49198,note_off,0,0,0,,12,,,35,127
49198,note_off,0,0,0,,2,,,38,127
49198,note_off,0,0,0,,7,,,43,127
49200,note_on,2,0,0,,7,,,43,127
49200,note_on,0,0,0,,2,,,38,127
49200,note_on,0,0,0,,12,,,35,127
49200,note_on,0,0,0,,7,,,31,127
49200,note_on,0,0,0,,7,,,91,127
49200,note_on,0,0,0,,2,,,86,127
49200,note_on,0,0,0,,12,,,83,127
49200,note_on,0,0,0,,7,,,79,127
49279,note_off,79,0,0,,7,,,79,127
49279,note_off,0,0,0,,12,,,83,127
49279,note_off,0,0,0,,2,,,86,127
49279,note_off,0,0,0,,7,,,91,127
49279,note_off,0,0,0,,7,,,31,127
49279,note_off,0,0,0,,12,,,35,127
49279,note_off,0,0,0,,2,,,38,127
49279,note_off,0,0,0,,7,,,43,127
49292,note_on,13,0,0,,7,,,43,127
49292,note_on,0,0,0,,2,,,38,127
49292,note_on,0,0,0,,12,,,35,127
49292,note_on,0,0,0,,7,,,31,127
49292,note_on,0,0,0,,7,,,91,127
49292,note_on,0,0,0,,2,,,86,127
49292,note_on,0,0,0,,12,,,83,127
49292,note_on,0,0,0,,7,,,79,127
49371,note_off,79,0,0,,7,,,79,127
49371,note_off,0,0,0,,12,,,83,127
49371,note_off,0,0,0,,2,,,86,127
49371,note_off,0,0,0,,7,,,91,127
49371,note_off,0,0,0,,7,,,31,127
49371,note_off,0,0,0,,12,,,35,127
49371,note_off,0,0,0,,2,,,38,127
49371,note_off,0,0,0,,7,,,43,127
49384,note_on,13,0,0,,7,,,43,127
49384,note_on,0,0,0,,2,,,38,127
49384,note_on,0,0,0,,12,,,35,127
49384,note_on,0,0,0,,7,,,31,127
49384,note_on,0,0,0,,7,,,91,127
49384,note_on,0,0,0,,2,,,86,127
49384,note_on,0,0,0,,12,,,83,127
49384,note_on,0,0,0,,7,,,79,127
49843,note_off,459,0,0,,7,,,79,127
49843,note_off,0,0,0,,12,,,83,127
49843,note_off,0,0,0,,2,,,86,127
49843,note_off,0,0,0,,7,,,91,127
49843,note_off,0,0,0,,7,,,31,127
49843,note_off,0,0,0,,12,,,35,127
49843,note_off,0,0,0,,2,,,38,127
49843,note_off,0,0,0,,7,,,43,127
50121,note_on,278,0,0,,0,,,36,127
50213,note_on,92,0,0,,4,,,88,127
50292,note_off,79,0,0,,4,,,88,127
50304,note_off,12,0,0,,0,,,36,127
50306,note_on,2,0,0,,0,,,48,127
50306,note_on,0,0,0,,4,,,76,127
50385,note_off,79,0,0,,4,,,76,127
50398,note_on,13,0,0,,4,,,88,127
50477,note_off,79,0,0,,4,,,88,127
50489,note_off,12,0,0,,0,,,48,127
50491,note_on,2,0,0,,2,,,50,127
50491,note_on,0,0,0,,2,,,86,127
50570,note_off,79,0,0,,2,,,86,127
50583,note_on,13,0,0,,0,,,84,127
50662,note_off,79,0,0,,0,,,84,127
50674,note_off,12,0,0,,2,,,50,127
50676,note_on,2,0,0,,2,,,38,127
50676,note_on,0,0,0,,12,,,83,127
50755,note_off,79,0,0,,12,,,83,127
50768,note_on,13,0,0,,10,,,81,127
50847,note_off,79,0,0,,10,,,81,127
50859,note_off,12,0,0,,2,,,38,127
50861,note_on,2,0,0,,7,,,55,127
50861,note_on,0,0,0,,7,,,79,127
50940,note_off,79,0,0,,7,,,79,127
50953,note_on,13,0,0,,7,,,67,127
51032,note_off,79,0,0,,7,,,67,127
51044,note_off,12,0,0,,7,,,55,127
51046,note_on,2,0,0,,7,,,67,127
51046,note_on,0,0,0,,12,,,71,127
51125,note_off,79,0,0,,12,,,71,127
51138,note_on,13,0,0,,2,,,74,127
51217,note_off,79,0,0,,2,,,74,127
51230,note_on,13,0,0,,7,,,79,127
51305,note_off,75,0,0,,7,,,67,127
51309,note_off,4,0,0,,7,,,79,127
51322,note_on,13,0,0,,7,,,67,127
51401,note_off,79,0,0,,7,,,67,127
51414,note_on,13,0,0,,6,,,66,127
51414,note_on,0,0,0,,10,,,81,127
51493,note_off,79,0,0,,10,,,81,127
51506,note_on,13,0,0,,6,,,78,127
51585,note_off,79,0,0,,6,,,78,127
51597,note_off,12,0,0,,6,,,66,127
51599,note_on,2,0,0,,4,,,52,127
51599,note_on,0,0,0,,7,,,79,127
51678,note_off,79,0,0,,7,,,79,127
51691,note_on,13,0,0,,7,,,67,127
51770,note_off,79,0,0,,7,,,67,127
51782,note_off,12,0,0,,4,,,52,127
51784,note_on,2,0,0,,4,,,64,127
51784,note_on,0,0,0,,12,,,71,127
51863,note_off,79,0,0,,12,,,71,127
51876,note_on,13,0,0,,4,,,76,127
51955,note_off,79,0,0,,4,,,76,127
51968,note_on,13,0,0,,7,,,79,127
52047,note_off,79,0,0,,7,,,79,127
52060,note_on,13,0,0,,7,,,67,127
52139,note_off,79,0,0,,7,,,67,127
52151,note_off,12,0,0,,4,,,64,127
52153,note_on,2,0,0,,2,,,62,127
52153,note_on,0,0,0,,10,,,81,127
52232,note_off,79,0,0,,10,,,81,127
52245,note_on,13,0,0,,6,,,78,127
52324,note_off,79,0,0,,6,,,78,127
52336,note_off,12,0,0,,2,,,62,127
52338,note_on,2,0,0,,0,,,48,127
52338,note_on,0,0,0,,7,,,79,127
52417,note_off,79,0,0,,7,,,79,127
52430,note_on,13,0,0,,7,,,67,127
52509,note_off,79,0,0,,7,,,67,127
52521,note_off,12,0,0,,0,,,48,127
52523,note_on,2,0,0,,0,,,60,127
52523,note_on,0,0,0,,0,,,72,127
52602,note_off,79,0,0,,0,,,72,127
52615,note_on,13,0,0,,4,,,76,127
52694,note_off,79,0,0,,4,,,76,127
52707,note_on,13,0,0,,7,,,79,127
52786,note_off,79,0,0,,7,,,79,127
52799,note_on,13,0,0,,7,,,67,127
52878,note_off,79,0,0,,7,,,67,127
52890,note_off,12,0,0,,0,,,60,127
52892,note_on,2,0,0,,12,,,59,127
52892,note_on,0,0,0,,2,,,86,127
52971,note_off,79,0,0,,2,,,86,127
52984,note_on,13,0,0,,12,,,83,127
53063,note_off,79,0,0,,12,,,83,127
53075,note_off,12,0,0,,12,,,59,127
53077,note_on,2,0,0,,10,,,57,127
53077,note_on,0,0,0,,0,,,84,127
53156,note_off,79,0,0,,0,,,84,127
53169,note_on,13,0,0,,10,,,81,127
53248,note_off,79,0,0,,10,,,81,127
53260,note_off,12,0,0,,10,,,57,127
53262,note_on,2,0,0,,7,,,55,127
53262,note_on,0,0,0,,12,,,83,127
53341,note_off,79,0,0,,12,,,83,127
53354,note_on,13,0,0,,7,,,91,127
53433,note_off,79,0,0,,7,,,91,127
53445,note_off,12,0,0,,7,,,55,127
53447,note_on,2,0,0,,0,,,48,127
53447,note_on,0,0,0,,10,,,81,127
53526,note_off,79,0,0,,10,,,81,127
53539,note_on,13,0,0,,7,,,91,127
53618,note_off,79,0,0,,7,,,91,127
53630,note_off,12,0,0,,0,,,48,127
53632,note_on,2,0,0,,2,,,50,127
53632,note_on,0,0,0,,10,,,81,127
53711,note_off,79,0,0,,10,,,81,127
53724,note_on,13,0,0,,6,,,90,127
53803,note_off,79,0,0,,6,,,90,127
53815,note_off,12,0,0,,2,,,50,127
53817,note_on,2,0,0,,7,,,43,127
53817,note_on,0,0,0,,7,,,79,127
53896,note_off,79,0,0,,7,,,79,127
53909,note_on,13,0,0,,7,,,67,127
53988,note_off,79,0,0,,7,,,67,127
54000,note_off,12,0,0,,7,,,43,127
54002,note_on,2,0,0,,7,,,67,127
54002,note_on,0,0,0,,12,,,71,127
54081,note_off,79,0,0,,12,,,71,127
54094,note_on,13,0,0,,2,,,74,127
54173,note_off,79,0,0,,2,,,74,127
54186,note_on,13,0,0,,7,,,79,127
54261,note_off,75,0,0,,7,,,67,127
54265,note_off,4,0,0,,7,,,79,127
54278,note_on,13,0,0,,7,,,67,127
54357,note_off,79,0,0,,7,,,67,127
54370,note_on,13,0,0,,6,,,66,127
54370,note_on,0,0,0,,10,,,81,127
54449,note_off,79,0,0,,10,,,81,127
54462,note_on,13,0,0,,6,,,78,127
54541,note_off,79,0,0,,6,,,78,127
54553,note_off,12,0,0,,6,,,66,127
54555,note_on,2,0,0,,4,,,52,127
54555,note_on,0,0,0,,7,,,79,127
54634,note_off,79,0,0,,7,,,79,127
54647,note_on,13,0,0,,7,,,67,127
54726,note_off,79,0,0,,7,,,67,127
54738,note_off,12,0,0,,4,,,52,127
54740,note_on,2,0,0,,4,,,64,127
54740,note_on,0,0,0,,12,,,71,127
54819,note_off,79,0,0,,12,,,71,127
54832,note_on,13,0,0,,4,,,76,127
54911,note_off,79,0,0,,4,,,76,127
54924,note_on,13,0,0,,7,,,79,127
55003,note_off,79,0,0,,7,,,79,127
55016,note_on,13,0,0,,7,,,67,127
55095,note_off,79,0,0,,7,,,67,127
55107,note_off,12,0,0,,4,,,64,127
55109,note_on,2,0,0,,2,,,62,127
55109,note_on,0,0,0,,10,,,81,127
55188,note_off,79,0,0,,10,,,81,127
55201,note_on,13,0,0,,6,,,78,127
55280,note_off,79,0,0,,6,,,78,127
55292,note_off,12,0,0,,2,,,62,127
55294,note_on,2,0,0,,0,,,48,127
55294,note_on,0,0,0,,7,,,79,127
55373,note_off,79,0,0,,7,,,79,127
55386,note_on,13,0,0,,7,,,67,127
55465,note_off,79,0,0,,7,,,67,127
55477,note_off,12,0,0,,0,,,48,127
55479,note_on,2,0,0,,0,,,60,127
55479,note_on,0,0,0,,0,,,72,127
55558,note_off,79,0,0,,0,,,72,127
55571,note_on,13,0,0,,4,,,76,127
55650,note_off,79,0,0,,4,,,76,127
55663,note_on,13,0,0,,7,,,79,127
55742,note_off,79,0,0,,7,,,79,127
55755,note_on,13,0,0,,7,,,67,127
55834,note_off,79,0,0,,7,,,67,127
55846,note_off,12,0,0,,0,,,60,127
55848,note_on,2,0,0,,12,,,59,127
55848,note_on,0,0,0,,2,,,86,127
55927,note_off,79,0,0,,2,,,86,127
55940,note_on,13,0,0,,12,,,83,127
56019,note_off,79,0,0,,12,,,83,127
56031,note_off,12,0,0,,12,,,59,127
56033,note_on,2,0,0,,10,,,57,127
56033,note_on,0,0,0,,0,,,84,127
56112,note_off,79,0,0,,0,,,84,127
56125,note_on,13,0,0,,10,,,81,127
56204,note_off,79,0,0,,10,,,81,127
56216,note_off,12,0,0,,10,,,57,127
56218,note_on,2,0,0,,7,,,55,127
56218,note_on,0,0,0,,12,,,83,127
56297,note_off,79,0,0,,12,,,83,127
56310,note_on,13,0,0,,7,,,91,127
56389,note_off,79,0,0,,7,,,91,127
56401,note_off,12,0,0,,7,,,55,127
56403,note_on,2,0,0,,0,,,48,127
56403,note_on,0,0,0,,10,,,81,127
56482,note_off,79,0,0,,10,,,81,127
56495,note_on,13,0,0,,7,,,91,127
56574,note_off,79,0,0,,7,,,91,127
56586,note_off,12,0,0,,0,,,48,127
56588,note_on,2,0,0,,2,,,50,127
56588,note_on,0,0,0,,10,,,81,127
56667,note_off,79,0,0,,10,,,81,127
56680,note_on,13,0,0,,6,,,90,127
56759,note_off,79,0,0,,6,,,90,127
56771,note_off,12,0,0,,2,,,50,127
56773,note_on,2,0,0,,7,,,43,127
56773,note_on,0,0,0,,7,,,91,127
56852,note_off,79,0,0,,7,,,91,127
56865,note_on,13,0,0,,2,,,86,127
56944,note_off,79,0,0,,2,,,86,127
56957,note_on,13,0,0,,12,,,83,127
57036,note_off,79,0,0,,12,,,83,127
57049,note_on,13,0,0,,7,,,79,127
57128,note_off,79,0,0,,7,,,79,127
57141,note_on,13,0,0,,2,,,74,127
57220,note_off,79,0,0,,2,,,74,127
57233,note_on,13,0,0,,12,,,71,127
57312,note_off,79,0,0,,12,,,71,127
57325,note_on,13,0,0,,7,,,67,127
57404,note_off,79,0,0,,7,,,67,127
57417,note_on,13,0,0,,2,,,62,127
57496,note_off,79,0,0,,2,,,62,127
57507,note_off,11,0,0,,7,,,43,127
57510,note_on,3,0,0,,12,,,59,127
57589,note_off,79,0,0,,12,,,59,127
57602,note_on,13,0,0,,7,,,55,127
57681,note_off,79,0,0,,7,,,55,127
57694,note_on,13,0,0,,2,,,50,127
57773,note_off,79,0,0,,2,,,50,127
57786,note_on,13,0,0,,12,,,47,127
57865,note_off,79,0,0,,12,,,47,127
57878,note_on,13,0,0,,7,,,43,127
57957,note_off,79,0,0,,7,,,43,127
57970,note_on,13,0,0,,2,,,38,127
58049,note_off,79,0,0,,2,,,38,127
58062,note_on,13,0,0,,12,,,35,127
58141,note_off,79,0,0,,12,,,35,127
58154,note_on,13,0,0,,2,,,38,127
58233,note_off,79,0,0,,2,,,38,127
58246,note_on,13,0,0,,7,,,31,127
60366,note_off,2120,0,0,,7,,,31,127
66048,end_of_track,5682,1,0,,,,,,
