tick,type,time,meta,track,program,channel,pitch,tempo,note,velocity
0,copyright,0,1,0,,,,,,
0,program_change,0,0,0,6,0,,,,
0,pitchwheel,0,0,0,,0,0,,,
0,program_change,0,0,0,6,1,,,,
0,pitchwheel,0,0,0,,1,-590,,,
0,program_change,0,0,0,6,2,,,,
0,pitchwheel,0,0,0,,2,-272,,,
0,program_change,0,0,0,6,3,,,,
0,pitchwheel,0,0,0,,3,-353,,,
0,program_change,0,0,0,6,4,,,,
0,pitchwheel,0,0,0,,4,-560,,,
0,program_change,0,0,0,6,5,,,,
0,pitchwheel,0,0,0,,5,-80,,,
0,program_change,0,0,0,6,6,,,,
0,pitchwheel,0,0,0,,6,-625,,,
0,program_change,0,0,0,6,7,,,,
0,pitchwheel,0,0,0,,7,-130,,,
0,program_change,0,0,0,6,8,,,,
0,pitchwheel,0,0,0,,8,-512,,,
0,program_change,0,0,0,6,10,,,,
0,pitchwheel,0,0,0,,10,-464,,,
0,program_change,0,0,0,6,11,,,,
0,pitchwheel,0,0,0,,11,-208,,,
0,program_change,0,0,0,6,12,,,,
0,pitchwheel,0,0,0,,12,-553,,,
0,set_tempo,0,1,0,,,,500000,,
115,note_on,115,0,0,,10,,,45,127
345,note_on,230,0,0,,10,,,69,127
459,note_off,114,0,0,,10,,,69,127
460,note_on,1,0,0,,8,,,68,127
574,note_off,114,0,0,,8,,,68,127
575,note_on,1,0,0,,10,,,69,127
689,note_off,114,0,0,,10,,,69,127
690,note_on,1,0,0,,4,,,64,127
804,note_off,114,0,0,,4,,,64,127
804,note_off,0,0,0,,10,,,45,127
805,note_on,1,0,0,,4,,,76,127
919,note_off,114,0,0,,4,,,76,127
920,note_on,1,0,0,,2,,,74,127
1034,note_off,114,0,0,,2,,,74,127
1035,note_on,1,0,0,,1,,,73,127
1149,note_off,114,0,0,,1,,,73,127
1150,note_on,1,0,0,,10,,,69,127
1264,note_off,114,0,0,,10,,,69,127
1265,note_on,1,0,0,,10,,,81,127
1379,note_off,114,0,0,,10,,,81,127
1380,note_on,1,0,0,,8,,,80,127
1494,note_off,114,0,0,,8,,,80,127
1495,note_on,1,0,0,,6,,,78,127
1609,note_off,114,0,0,,6,,,78,127
1610,note_on,1,0,0,,2,,,74,127
1724,note_off,114,0,0,,2,,,74,127
1725,note_on,1,0,0,,12,,,71,127
1839,note_off,114,0,0,,12,,,71,127
1840,note_on,1,0,0,,4,,,76,127
1954,note_off,114,0,0,,4,,,76,127
1955,note_on,1,0,0,,10,,,69,127
2184,note_off,229,0,0,,10,,,69,127
2185,note_on,1,0,0,,10,,,57,127
2185,note_on,0,0,0,,10,,,69,127
2299,note_off,114,0,0,,10,,,57,127
2300,note_on,1,0,0,,8,,,56,127
2414,note_off,114,0,0,,8,,,56,127
2415,note_on,1,0,0,,10,,,57,127
2529,note_off,114,0,0,,10,,,57,127
2530,note_on,1,0,0,,4,,,52,127
2644,note_off,114,0,0,,4,,,52,127
2644,note_off,0,0,0,,10,,,69,127
2645,note_on,1,0,0,,4,,,64,127
2645,note_on,0,0,0,,12,,,71,127
2759,note_off,114,0,0,,4,,,64,127
2760,note_on,1,0,0,,2,,,62,127
2874,note_off,114,0,0,,2,,,62,127
2874,note_off,0,0,0,,12,,,71,127
2875,note_on,1,0,0,,1,,,61,127
2875,note_on,0,0,0,,1,,,73,127
2989,note_off,114,0,0,,1,,,61,127
2990,note_on,1,0,0,,10,,,57,127
3104,note_off,114,0,0,,10,,,57,127
3104,note_off,0,0,0,,1,,,73,127
3105,note_on,1,0,0,,10,,,69,127
3105,note_on,0,0,0,,1,,,73,127
3219,note_off,114,0,0,,10,,,69,127
3220,note_on,1,0,0,,8,,,68,127
3334,note_off,114,0,0,,8,,,68,127
3335,note_on,1,0,0,,6,,,66,127
3449,note_off,114,0,0,,6,,,66,127
3450,note_on,1,0,0,,2,,,62,127
3564,note_off,114,0,0,,2,,,62,127
3564,note_off,0,0,0,,1,,,73,127
3565,note_on,1,0,0,,12,,,59,127
3565,note_on,0,0,0,,2,,,74,127
3679,note_off,114,0,0,,12,,,59,127
3681,note_on,2,0,0,,4,,,64,127
3795,note_off,114,0,0,,4,,,64,127
3799,note_on,4,0,0,,10,,,57,127
3829,note_off,30,0,0,,2,,,74,127
4028,note_off,199,0,0,,10,,,57,127
4035,note_on,7,0,0,,10,,,57,127
4035,note_on,0,0,0,,1,,,73,127
4149,note_off,114,0,0,,1,,,73,127
4150,note_on,1,0,0,,12,,,71,127
4264,note_off,114,0,0,,12,,,71,127
4265,note_on,1,0,0,,2,,,74,127
4379,note_off,114,0,0,,2,,,74,127
4380,note_on,1,0,0,,1,,,73,127
4494,note_off,114,0,0,,1,,,73,127
4494,note_off,0,0,0,,10,,,57,127
4495,note_on,1,0,0,,8,,,56,127
4495,note_on,0,0,0,,4,,,76,127
4609,note_off,114,0,0,,4,,,76,127
4610,note_on,1,0,0,,2,,,74,127
4724,note_off,114,0,0,,2,,,74,127
4724,note_off,0,0,0,,8,,,56,127
4725,note_on,1,0,0,,10,,,57,127
4725,note_on,0,0,0,,1,,,73,127
4839,note_off,114,0,0,,1,,,73,127
4840,note_on,1,0,0,,12,,,71,127
4954,note_off,114,0,0,,12,,,71,127
4954,note_off,0,0,0,,10,,,57,127
4955,note_on,1,0,0,,1,,,61,127
4955,note_on,0,0,0,,10,,,69,127
5069,note_off,114,0,0,,1,,,61,127
5070,note_on,1,0,0,,12,,,59,127
5184,note_off,114,0,0,,12,,,59,127
5185,note_on,1,0,0,,2,,,62,127
5299,note_off,114,0,0,,2,,,62,127
5300,note_on,1,0,0,,1,,,61,127
5414,note_off,114,0,0,,1,,,61,127
5414,note_off,0,0,0,,10,,,69,127
5415,note_on,1,0,0,,4,,,64,127
5415,note_on,0,0,0,,8,,,68,127
5529,note_off,114,0,0,,4,,,64,127
5530,note_on,1,0,0,,2,,,62,127
5644,note_off,114,0,0,,2,,,62,127
5644,note_off,0,0,0,,8,,,68,127
5645,note_on,1,0,0,,1,,,61,127
5645,note_on,0,0,0,,10,,,69,127
5759,note_off,114,0,0,,1,,,61,127
5760,note_on,1,0,0,,12,,,59,127
5874,note_off,114,0,0,,12,,,59,127
5874,note_off,0,0,0,,10,,,69,127
5875,note_on,1,0,0,,10,,,57,127
5875,note_on,0,0,0,,1,,,73,127
5989,note_off,114,0,0,,1,,,73,127
5990,note_on,1,0,0,,12,,,71,127
6104,note_off,114,0,0,,12,,,71,127
6105,note_on,1,0,0,,2,,,74,127
6219,note_off,114,0,0,,2,,,74,127
6220,note_on,1,0,0,,1,,,73,127
6294,note_off,74,0,0,,10,,,57,127
6334,note_off,40,0,0,,1,,,73,127
6335,note_on,1,0,0,,8,,,56,127
6335,note_on,0,0,0,,4,,,76,127
6449,note_off,114,0,0,,4,,,76,127
6450,note_on,1,0,0,,2,,,74,127
6564,note_off,114,0,0,,2,,,74,127
6564,note_off,0,0,0,,8,,,56,127
6565,note_on,1,0,0,,10,,,57,127
6565,note_on,0,0,0,,1,,,73,127
6679,note_off,114,0,0,,1,,,73,127
6680,note_on,1,0,0,,12,,,71,127
6794,note_off,114,0,0,,12,,,71,127
6794,note_off,0,0,0,,10,,,57,127
6795,note_on,1,0,0,,8,,,56,127
6795,note_on,0,0,0,,4,,,76,127
6909,note_off,114,0,0,,4,,,76,127
6910,note_on,1,0,0,,3,,,75,127
7024,note_off,114,0,0,,3,,,75,127
7024,note_off,0,0,0,,8,,,56,127
7025,note_on,1,0,0,,6,,,54,127
7025,note_on,0,0,0,,10,,,81,127
7139,note_off,114,0,0,,10,,,81,127
7140,note_on,1,0,0,,8,,,80,127
7254,note_off,114,0,0,,8,,,80,127
7254,note_off,0,0,0,,6,,,54,127
7255,note_on,1,0,0,,12,,,47,127
7255,note_on,0,0,0,,12,,,83,127
7369,note_off,114,0,0,,12,,,83,127
7370,note_on,1,0,0,,10,,,81,127
7484,note_off,114,0,0,,10,,,81,127
7484,note_off,0,0,0,,12,,,47,127
7485,note_on,1,0,0,,4,,,52,127
7485,note_on,0,0,0,,8,,,80,127
7599,note_off,114,0,0,,8,,,80,127
7600,note_on,1,0,0,,6,,,78,127
7714,note_off,114,0,0,,6,,,78,127
7714,note_off,0,0,0,,4,,,52,127
7715,note_on,1,0,0,,8,,,68,127
7715,note_on,0,0,0,,4,,,76,127
7829,note_off,114,0,0,,8,,,68,127
7830,note_on,1,0,0,,6,,,66,127
7944,note_off,114,0,0,,6,,,66,127
7945,note_on,1,0,0,,10,,,69,127
8059,note_off,114,0,0,,10,,,69,127
8060,note_on,1,0,0,,8,,,68,127
8174,note_off,114,0,0,,8,,,68,127
8174,note_off,0,0,0,,4,,,76,127
8175,note_on,1,0,0,,12,,,71,127
8175,note_on,0,0,0,,3,,,75,127
8289,note_off,114,0,0,,12,,,71,127
8290,note_on,1,0,0,,10,,,69,127
8404,note_off,114,0,0,,10,,,69,127
8404,note_off,0,0,0,,3,,,75,127
8405,note_on,1,0,0,,8,,,68,127
8405,note_on,0,0,0,,4,,,76,127
8519,note_off,114,0,0,,8,,,68,127
8520,note_on,1,0,0,,6,,,66,127
8634,note_off,114,0,0,,6,,,66,127
8634,note_off,0,0,0,,4,,,76,127
8635,note_on,1,0,0,,4,,,64,127
8635,note_on,0,0,0,,8,,,80,127
8749,note_off,114,0,0,,8,,,80,127
8750,note_on,1,0,0,,6,,,78,127
8864,note_off,114,0,0,,6,,,78,127
8865,note_on,1,0,0,,10,,,81,127
8979,note_off,114,0,0,,10,,,81,127
8980,note_on,1,0,0,,8,,,80,127
9042,note_off,62,0,0,,4,,,64,127
9094,note_off,52,0,0,,8,,,80,127
9095,note_on,1,0,0,,3,,,63,127
9095,note_on,0,0,0,,12,,,83,127
9209,note_off,114,0,0,,12,,,83,127
9210,note_on,1,0,0,,10,,,81,127
9324,note_off,114,0,0,,10,,,81,127
9324,note_off,0,0,0,,3,,,63,127
9325,note_on,1,0,0,,4,,,64,127
9325,note_on,0,0,0,,8,,,80,127
9439,note_off,114,0,0,,8,,,80,127
9440,note_on,1,0,0,,6,,,78,127
9554,note_off,114,0,0,,6,,,78,127
9554,note_off,0,0,0,,4,,,64,127
9555,note_on,1,0,0,,6,,,66,127
9555,note_on,0,0,0,,10,,,81,127
9669,note_off,114,0,0,,10,,,81,127
9670,note_on,1,0,0,,8,,,80,127
9784,note_off,114,0,0,,8,,,80,127
9784,note_off,0,0,0,,6,,,66,127
9785,note_on,1,0,0,,8,,,68,127
9785,note_on,0,0,0,,12,,,83,127
9899,note_off,114,0,0,,12,,,83,127
9900,note_on,1,0,0,,10,,,81,127
10014,note_off,114,0,0,,10,,,81,127
10014,note_off,0,0,0,,8,,,68,127
10015,note_on,1,0,0,,10,,,69,127
10015,note_on,0,0,0,,1,,,85,127
10129,note_off,114,0,0,,1,,,85,127
10130,note_on,1,0,0,,4,,,76,127
10244,note_off,114,0,0,,4,,,76,127
10244,note_off,0,0,0,,10,,,69,127
10245,note_on,1,0,0,,12,,,59,127
10245,note_on,0,0,0,,3,,,75,127
10474,note_off,229,0,0,,3,,,75,127
10474,note_off,0,0,0,,12,,,59,127
10494,note_on,20,0,0,,8,,,68,127
10494,note_on,0,0,0,,4,,,64,127
10608,note_off,114,0,0,,4,,,64,127
10608,note_off,0,0,0,,8,,,68,127
10609,note_on,1,0,0,,6,,,66,127
10609,note_on,0,0,0,,3,,,63,127
10723,note_off,114,0,0,,3,,,63,127
10723,note_off,0,0,0,,6,,,66,127
10724,note_on,1,0,0,,12,,,71,127
10724,note_on,0,0,0,,8,,,68,127
10838,note_off,114,0,0,,8,,,68,127
10838,note_off,0,0,0,,12,,,71,127
10839,note_on,1,0,0,,10,,,69,127
10839,note_on,0,0,0,,6,,,66,127
10953,note_off,114,0,0,,6,,,66,127
10953,note_off,0,0,0,,10,,,69,127
10954,note_on,1,0,0,,4,,,76,127
10954,note_on,0,0,0,,8,,,68,127
11068,note_off,114,0,0,,8,,,68,127
11068,note_off,0,0,0,,4,,,76,127
11069,note_on,1,0,0,,3,,,75,127
11069,note_on,0,0,0,,6,,,66,127
11183,note_off,114,0,0,,6,,,66,127
11183,note_off,0,0,0,,3,,,75,127
11184,note_on,1,0,0,,8,,,80,127
11184,note_on,0,0,0,,4,,,40,127
11413,note_off,229,0,0,,4,,,40,127
11413,note_off,0,0,0,,8,,,80,127
11414,note_on,1,0,0,,8,,,68,127
11414,note_on,0,0,0,,4,,,64,127
11528,note_off,114,0,0,,4,,,64,127
11528,note_off,0,0,0,,8,,,68,127
11529,note_on,1,0,0,,6,,,66,127
11529,note_on,0,0,0,,3,,,63,127
11643,note_off,114,0,0,,3,,,63,127
11643,note_off,0,0,0,,6,,,66,127
11644,note_on,1,0,0,,12,,,71,127
11644,note_on,0,0,0,,8,,,68,127
11758,note_off,114,0,0,,8,,,68,127
11758,note_off,0,0,0,,12,,,71,127
11759,note_on,1,0,0,,10,,,69,127
11759,note_on,0,0,0,,6,,,66,127
11873,note_off,114,0,0,,6,,,66,127
11873,note_off,0,0,0,,10,,,69,127
11874,note_on,1,0,0,,4,,,76,127
11874,note_on,0,0,0,,8,,,68,127
11988,note_off,114,0,0,,8,,,68,127
11988,note_off,0,0,0,,4,,,76,127
11989,note_on,1,0,0,,3,,,75,127
11989,note_on,0,0,0,,6,,,66,127
12103,note_off,114,0,0,,6,,,66,127
12103,note_off,0,0,0,,3,,,75,127
12104,note_on,1,0,0,,8,,,80,127
12104,note_on,0,0,0,,4,,,40,127
12333,note_off,229,0,0,,4,,,40,127
12333,note_off,0,0,0,,8,,,80,127
12334,note_on,1,0,0,,8,,,68,127
12334,note_on,0,0,0,,4,,,64,127
12448,note_off,114,0,0,,4,,,64,127
12448,note_off,0,0,0,,8,,,68,127
12449,note_on,1,0,0,,6,,,66,127
12449,note_on,0,0,0,,3,,,63,127
12563,note_off,114,0,0,,3,,,63,127
12563,note_off,0,0,0,,6,,,66,127
12564,note_on,1,0,0,,12,,,71,127
12564,note_on,0,0,0,,8,,,68,127
12678,note_off,114,0,0,,8,,,68,127
12678,note_off,0,0,0,,12,,,71,127
12679,note_on,1,0,0,,10,,,69,127
12679,note_on,0,0,0,,6,,,66,127
12793,note_off,114,0,0,,6,,,66,127
12793,note_off,0,0,0,,10,,,69,127
12794,note_on,1,0,0,,4,,,76,127
12794,note_on,0,0,0,,8,,,68,127
12908,note_off,114,0,0,,8,,,68,127
12908,note_off,0,0,0,,4,,,76,127
12909,note_on,1,0,0,,3,,,75,127
12909,note_on,0,0,0,,6,,,66,127
13023,note_off,114,0,0,,6,,,66,127
13023,note_off,0,0,0,,3,,,75,127
13024,note_on,1,0,0,,8,,,80,127
13024,note_on,0,0,0,,4,,,40,127
13139,note_on,115,0,0,,12,,,71,127
13253,note_off,114,0,0,,12,,,71,127
13253,note_off,0,0,0,,4,,,40,127
13254,note_on,1,0,0,,1,,,73,127
13254,note_on,0,0,0,,10,,,45,127
13368,note_off,114,0,0,,8,,,80,127
13369,note_on,1,0,0,,10,,,81,127
13483,note_off,114,0,0,,10,,,81,127
13483,note_off,0,0,0,,10,,,45,127
13483,note_off,0,0,0,,1,,,73,127
13484,note_on,1,0,0,,8,,,80,127
13484,note_on,0,0,0,,12,,,47,127
13598,note_off,114,0,0,,8,,,80,127
13599,note_on,1,0,0,,4,,,76,127
13713,note_off,114,0,0,,4,,,76,127
13714,note_on,1,0,0,,6,,,78,127
13714,note_on,0,0,0,,12,,,35,127
13828,note_off,114,0,0,,6,,,78,127
13829,note_on,1,0,0,,3,,,75,127
13943,note_off,114,0,0,,3,,,75,127
13943,note_off,0,0,0,,12,,,35,127
13943,note_off,0,0,0,,12,,,47,127
13944,note_on,1,0,0,,4,,,76,127
13944,note_on,0,0,0,,4,,,40,127
14173,note_off,229,0,0,,4,,,40,127
14193,note_on,20,0,0,,10,,,69,127
14193,note_on,0,0,0,,4,,,64,127
14193,note_on,0,0,0,,1,,,73,127
14279,note_off,86,0,0,,4,,,76,127
14307,note_off,28,0,0,,1,,,73,127
14308,note_on,1,0,0,,12,,,71,127
14422,note_off,114,0,0,,12,,,71,127
14422,note_off,0,0,0,,4,,,64,127
14422,note_off,0,0,0,,10,,,69,127
14423,note_on,1,0,0,,10,,,69,127
14423,note_on,0,0,0,,4,,,64,127
14423,note_on,0,0,0,,4,,,76,127
14537,note_off,114,0,0,,4,,,76,127
14538,note_on,1,0,0,,3,,,75,127
14652,note_off,114,0,0,,3,,,75,127
14652,note_off,0,0,0,,4,,,64,127
14652,note_off,0,0,0,,10,,,69,127
14653,note_on,1,0,0,,4,,,64,127
14653,note_on,0,0,0,,10,,,69,127
14653,note_on,0,0,0,,6,,,78,127
14767,note_off,114,0,0,,6,,,78,127
14768,note_on,1,0,0,,3,,,75,127
14882,note_off,114,0,0,,3,,,75,127
14882,note_off,0,0,0,,10,,,69,127
14882,note_off,0,0,0,,4,,,64,127
14883,note_on,1,0,0,,8,,,68,127
14883,note_on,0,0,0,,4,,,64,127
14883,note_on,0,0,0,,12,,,71,127
15112,note_off,229,0,0,,12,,,71,127
15112,note_off,0,0,0,,4,,,64,127
15112,note_off,0,0,0,,8,,,68,127
15113,note_on,1,0,0,,10,,,69,127
15113,note_on,0,0,0,,4,,,64,127
15113,note_on,0,0,0,,1,,,73,127
15227,note_off,114,0,0,,1,,,73,127
15228,note_on,1,0,0,,12,,,71,127
15342,note_off,114,0,0,,12,,,71,127
15342,note_off,0,0,0,,4,,,64,127
15342,note_off,0,0,0,,10,,,69,127
15343,note_on,1,0,0,,4,,,64,127
15343,note_on,0,0,0,,10,,,69,127
15343,note_on,0,0,0,,4,,,76,127
15457,note_off,114,0,0,,4,,,76,127
15458,note_on,1,0,0,,3,,,75,127
15572,note_off,114,0,0,,3,,,75,127
15572,note_off,0,0,0,,10,,,69,127
15572,note_off,0,0,0,,4,,,64,127
15573,note_on,1,0,0,,10,,,69,127
15573,note_on,0,0,0,,4,,,64,127
15573,note_on,0,0,0,,6,,,78,127
15687,note_off,114,0,0,,6,,,78,127
15688,note_on,1,0,0,,3,,,75,127
15802,note_off,114,0,0,,3,,,75,127
15802,note_off,0,0,0,,4,,,64,127
15802,note_off,0,0,0,,10,,,69,127
15803,note_on,1,0,0,,8,,,68,127
15803,note_on,0,0,0,,4,,,64,127
15803,note_on,0,0,0,,12,,,71,127
16032,note_off,229,0,0,,12,,,71,127
16032,note_off,0,0,0,,4,,,64,127
16032,note_off,0,0,0,,8,,,68,127
16033,note_on,1,0,0,,10,,,69,127
16033,note_on,0,0,0,,4,,,64,127
16033,note_on,0,0,0,,1,,,73,127
16147,note_off,114,0,0,,1,,,73,127
16148,note_on,1,0,0,,12,,,71,127
16262,note_off,114,0,0,,12,,,71,127
16262,note_off,0,0,0,,4,,,64,127
16262,note_off,0,0,0,,10,,,69,127
16263,note_on,1,0,0,,4,,,64,127
16263,note_on,0,0,0,,10,,,69,127
16263,note_on,0,0,0,,4,,,76,127
16377,note_off,114,0,0,,4,,,76,127
16378,note_on,1,0,0,,3,,,75,127
16492,note_off,114,0,0,,3,,,75,127
16492,note_off,0,0,0,,10,,,69,127
16492,note_off,0,0,0,,4,,,64,127
16493,note_on,1,0,0,,10,,,69,127
16493,note_on,0,0,0,,4,,,64,127
16493,note_on,0,0,0,,6,,,78,127
16607,note_off,114,0,0,,6,,,78,127
16608,note_on,1,0,0,,3,,,75,127
16722,note_off,114,0,0,,3,,,75,127
16722,note_off,0,0,0,,4,,,64,127
16722,note_off,0,0,0,,10,,,69,127
16723,note_on,1,0,0,,8,,,68,127
16723,note_on,0,0,0,,4,,,64,127
16723,note_on,0,0,0,,12,,,71,127
16837,note_off,114,0,0,,12,,,71,127
16838,note_on,1,0,0,,12,,,83,127
16952,note_off,114,0,0,,12,,,83,127
16952,note_off,0,0,0,,4,,,64,127
16952,note_off,0,0,0,,8,,,68,127
16953,note_on,1,0,0,,10,,,57,127
16953,note_on,0,0,0,,1,,,73,127
17067,note_off,114,0,0,,1,,,73,127
17068,note_on,1,0,0,,10,,,81,127
17182,note_off,114,0,0,,10,,,81,127
17182,note_off,0,0,0,,10,,,57,127
17183,note_on,1,0,0,,12,,,59,127
17183,note_on,0,0,0,,8,,,80,127
17297,note_off,114,0,0,,8,,,80,127
17298,note_on,1,0,0,,4,,,76,127
17412,note_off,114,0,0,,4,,,76,127
17412,note_off,0,0,0,,12,,,59,127
17413,note_on,1,0,0,,12,,,47,127
17413,note_on,0,0,0,,6,,,78,127
17527,note_off,114,0,0,,6,,,78,127
17528,note_on,1,0,0,,3,,,75,127
17642,note_off,114,0,0,,3,,,75,127
17642,note_off,0,0,0,,12,,,47,127
17643,note_on,1,0,0,,4,,,40,127
17643,note_on,0,0,0,,4,,,76,127
17872,note_off,229,0,0,,4,,,76,127
17872,note_off,0,0,0,,4,,,40,127
17892,note_on,20,0,0,,8,,,68,127
17892,note_on,0,0,0,,12,,,59,127
18006,note_off,114,0,0,,12,,,59,127
18006,note_off,0,0,0,,8,,,68,127
18007,note_on,1,0,0,,6,,,66,127
18007,note_on,0,0,0,,10,,,57,127
18121,note_off,114,0,0,,10,,,57,127
18121,note_off,0,0,0,,6,,,66,127
18122,note_on,1,0,0,,10,,,69,127
18122,note_on,0,0,0,,1,,,61,127
18236,note_off,114,0,0,,1,,,61,127
18236,note_off,0,0,0,,10,,,69,127
18237,note_on,1,0,0,,8,,,68,127
18237,note_on,0,0,0,,12,,,59,127
18351,note_off,114,0,0,,12,,,59,127
18351,note_off,0,0,0,,8,,,68,127
18352,note_on,1,0,0,,1,,,73,127
18352,note_on,0,0,0,,4,,,64,127
18466,note_off,114,0,0,,4,,,64,127
18466,note_off,0,0,0,,1,,,73,127
18467,note_on,1,0,0,,12,,,71,127
18467,note_on,0,0,0,,3,,,63,127
18581,note_off,114,0,0,,3,,,63,127
18581,note_off,0,0,0,,12,,,71,127
18582,note_on,1,0,0,,8,,,80,127
18582,note_on,0,0,0,,4,,,76,127
18582,note_on,0,0,0,,4,,,40,127
18811,note_off,229,0,0,,4,,,40,127
18811,note_off,0,0,0,,4,,,76,127
18811,note_off,0,0,0,,8,,,80,127
18812,note_on,1,0,0,,8,,,68,127
18812,note_on,0,0,0,,12,,,59,127
18926,note_off,114,0,0,,12,,,59,127
18926,note_off,0,0,0,,8,,,68,127
18927,note_on,1,0,0,,6,,,66,127
18927,note_on,0,0,0,,10,,,57,127
19041,note_off,114,0,0,,10,,,57,127
19041,note_off,0,0,0,,6,,,66,127
19042,note_on,1,0,0,,10,,,69,127
19042,note_on,0,0,0,,1,,,61,127
19156,note_off,114,0,0,,1,,,61,127
19156,note_off,0,0,0,,10,,,69,127
19157,note_on,1,0,0,,8,,,68,127
19157,note_on,0,0,0,,12,,,59,127
19271,note_off,114,0,0,,12,,,59,127
19271,note_off,0,0,0,,8,,,68,127
19272,note_on,1,0,0,,1,,,73,127
19272,note_on,0,0,0,,4,,,64,127
19386,note_off,114,0,0,,4,,,64,127
19386,note_off,0,0,0,,1,,,73,127
19387,note_on,1,0,0,,12,,,71,127
19387,note_on,0,0,0,,3,,,63,127
19501,note_off,114,0,0,,3,,,63,127
19501,note_off,0,0,0,,12,,,71,127
19502,note_on,1,0,0,,8,,,80,127
19502,note_on,0,0,0,,4,,,76,127
19502,note_on,0,0,0,,4,,,40,127
19731,note_off,229,0,0,,4,,,40,127
19731,note_off,0,0,0,,4,,,76,127
19731,note_off,0,0,0,,8,,,80,127
19732,note_on,1,0,0,,8,,,68,127
19732,note_on,0,0,0,,12,,,59,127
19846,note_off,114,0,0,,12,,,59,127
19846,note_off,0,0,0,,8,,,68,127
19847,note_on,1,0,0,,6,,,66,127
19847,note_on,0,0,0,,10,,,57,127
19961,note_off,114,0,0,,10,,,57,127
19961,note_off,0,0,0,,6,,,66,127
19962,note_on,1,0,0,,10,,,69,127
19962,note_on,0,0,0,,1,,,61,127
20076,note_off,114,0,0,,1,,,61,127
20076,note_off,0,0,0,,10,,,69,127
20077,note_on,1,0,0,,8,,,68,127
20077,note_on,0,0,0,,12,,,59,127
20191,note_off,114,0,0,,12,,,59,127
20191,note_off,0,0,0,,8,,,68,127
20192,note_on,1,0,0,,1,,,73,127
20192,note_on,0,0,0,,4,,,64,127
20306,note_off,114,0,0,,4,,,64,127
20306,note_off,0,0,0,,1,,,73,127
20307,note_on,1,0,0,,12,,,71,127
20307,note_on,0,0,0,,3,,,63,127
20421,note_off,114,0,0,,3,,,63,127
20421,note_off,0,0,0,,12,,,71,127
20422,note_on,1,0,0,,8,,,80,127
20422,note_on,0,0,0,,4,,,40,127
20478,note_off,56,0,0,,8,,,80,127
20479,note_on,1,0,0,,10,,,81,127
20535,note_off,56,0,0,,10,,,81,127
20536,note_on,1,0,0,,12,,,83,127
20650,note_off,114,0,0,,4,,,40,127
20651,note_on,1,0,0,,1,,,73,127
20651,note_on,0,0,0,,10,,,45,127
20765,note_off,114,0,0,,12,,,83,127
20766,note_on,1,0,0,,10,,,81,127
20880,note_off,114,0,0,,10,,,81,127
20880,note_off,0,0,0,,10,,,45,127
20880,note_off,0,0,0,,1,,,73,127
20881,note_on,1,0,0,,8,,,80,127
20881,note_on,0,0,0,,12,,,71,127
20881,note_on,0,0,0,,12,,,47,127
20995,note_off,114,0,0,,8,,,80,127
20996,note_on,1,0,0,,4,,,76,127
21110,note_off,114,0,0,,4,,,76,127
21110,note_off,0,0,0,,12,,,71,127
21111,note_on,1,0,0,,6,,,78,127
21111,note_on,0,0,0,,12,,,35,127
21225,note_off,114,0,0,,6,,,78,127
21226,note_on,1,0,0,,3,,,75,127
21340,note_off,114,0,0,,3,,,75,127
21340,note_off,0,0,0,,12,,,35,127
21340,note_off,0,0,0,,12,,,47,127
21341,note_on,1,0,0,,4,,,76,127
21341,note_on,0,0,0,,4,,,64,127
21397,note_off,56,0,0,,4,,,64,127
21398,note_on,1,0,0,,12,,,59,127
21454,note_off,56,0,0,,12,,,59,127
21455,note_on,1,0,0,,8,,,56,127
21511,note_off,56,0,0,,8,,,56,127
21512,note_on,1,0,0,,4,,,52,127
21570,note_on,58,0,0,,4,,,40,127
21626,note_off,56,0,0,,4,,,52,127
21627,note_off,1,0,0,,4,,,76,127
21685,note_on,58,0,0,,12,,,83,127
21799,note_off,114,0,0,,12,,,83,127
21799,note_off,0,0,0,,4,,,40,127
21800,note_on,1,0,0,,8,,,80,127
21800,note_on,0,0,0,,12,,,35,127
21914,note_off,114,0,0,,8,,,80,127
21915,note_on,1,0,0,,4,,,76,127
22029,note_off,114,0,0,,4,,,76,127
22029,note_off,0,0,0,,12,,,35,127
22030,note_on,1,0,0,,6,,,78,127
22030,note_on,0,0,0,,12,,,35,127
22144,note_off,114,0,0,,6,,,78,127
22145,note_on,1,0,0,,3,,,75,127
22259,note_off,114,0,0,,3,,,75,127
22259,note_off,0,0,0,,12,,,35,127
22260,note_on,1,0,0,,4,,,76,127
22260,note_on,0,0,0,,4,,,64,127
22316,note_off,56,0,0,,4,,,64,127
22317,note_on,1,0,0,,12,,,59,127
22373,note_off,56,0,0,,12,,,59,127
22374,note_on,1,0,0,,8,,,56,127
22430,note_off,56,0,0,,8,,,56,127
22431,note_on,1,0,0,,4,,,52,127
22489,note_on,58,0,0,,4,,,40,127
22545,note_off,56,0,0,,4,,,52,127
22546,note_off,1,0,0,,4,,,76,127
22604,note_on,58,0,0,,12,,,83,127
22718,note_off,114,0,0,,12,,,83,127
22718,note_off,0,0,0,,4,,,40,127
22719,note_on,1,0,0,,8,,,80,127
22719,note_on,0,0,0,,12,,,35,127
22833,note_off,114,0,0,,8,,,80,127
22834,note_on,1,0,0,,4,,,76,127
22948,note_off,114,0,0,,4,,,76,127
22948,note_off,0,0,0,,12,,,35,127
22949,note_on,1,0,0,,6,,,78,127
22949,note_on,0,0,0,,12,,,35,127
23063,note_off,114,0,0,,6,,,78,127
23064,note_on,1,0,0,,3,,,75,127
23178,note_off,114,0,0,,3,,,75,127
23178,note_off,0,0,0,,12,,,35,127
23179,note_on,1,0,0,,4,,,76,127
23179,note_on,0,0,0,,4,,,40,127
23408,note_off,229,0,0,,4,,,76,127
23457,note_on,49,0,0,,5,,,65,127
23571,note_off,114,0,0,,5,,,65,127
23572,note_on,1,0,0,,4,,,64,127
23686,note_off,114,0,0,,4,,,64,127
23687,note_on,1,0,0,,10,,,69,127
23754,note_off,67,0,0,,4,,,40,127
23801,note_off,47,0,0,,10,,,69,127
23802,note_on,1,0,0,,8,,,68,127
23916,note_off,114,0,0,,8,,,68,127
23917,note_on,1,0,0,,0,,,72,127
23917,note_on,0,0,0,,4,,,52,127
23917,note_on,0,0,0,,2,,,62,127
24031,note_off,114,0,0,,0,,,72,127
24032,note_on,1,0,0,,12,,,71,127
24146,note_off,114,0,0,,12,,,71,127
24146,note_off,0,0,0,,2,,,62,127
24146,note_off,0,0,0,,4,,,52,127
24147,note_on,1,0,0,,10,,,69,127
24147,note_on,0,0,0,,4,,,52,127
24147,note_on,0,0,0,,0,,,60,127
24376,note_off,229,0,0,,0,,,60,127
24376,note_off,0,0,0,,4,,,52,127
24376,note_off,0,0,0,,10,,,69,127
24377,note_on,1,0,0,,7,,,67,127
24377,note_on,0,0,0,,4,,,52,127
24377,note_on,0,0,0,,12,,,59,127
24491,note_off,114,0,0,,7,,,67,127
24492,note_on,1,0,0,,5,,,65,127
24606,note_off,114,0,0,,5,,,65,127
24607,note_on,1,0,0,,12,,,71,127
24721,note_off,114,0,0,,12,,,71,127
24722,note_off,1,0,0,,12,,,59,127
24722,note_off,0,0,0,,4,,,52,127
24722,note_on,0,0,0,,10,,,69,127
24836,note_off,114,0,0,,10,,,69,127
24837,note_on,1,0,0,,2,,,74,127
24837,note_on,0,0,0,,10,,,57,127
24837,note_on,0,0,0,,4,,,52,127
24951,note_off,114,0,0,,2,,,74,127
24952,note_on,1,0,0,,0,,,72,127
25066,note_off,114,0,0,,0,,,72,127
25066,note_off,0,0,0,,4,,,52,127
25066,note_off,0,0,0,,10,,,57,127
25067,note_on,1,0,0,,12,,,71,127
25067,note_on,0,0,0,,4,,,52,127
25067,note_on,0,0,0,,2,,,62,127
25296,note_off,229,0,0,,2,,,62,127
25296,note_off,0,0,0,,4,,,52,127
25296,note_off,0,0,0,,12,,,71,127
25297,note_on,1,0,0,,10,,,69,127
25297,note_on,0,0,0,,0,,,60,127
25297,note_on,0,0,0,,4,,,52,127
25411,note_off,114,0,0,,10,,,69,127
25412,note_on,1,0,0,,8,,,68,127
25526,note_off,114,0,0,,8,,,68,127
25527,note_on,1,0,0,,0,,,72,127
25641,note_off,114,0,0,,0,,,72,127
25642,note_off,1,0,0,,4,,,52,127
25642,note_on,0,0,0,,12,,,71,127
25756,note_off,114,0,0,,12,,,71,127
25756,note_off,0,0,0,,0,,,60,127
25757,note_on,1,0,0,,4,,,76,127
25757,note_on,0,0,0,,12,,,59,127
25757,note_on,0,0,0,,4,,,52,127
25871,note_off,114,0,0,,4,,,76,127
25872,note_on,1,0,0,,2,,,74,127
25986,note_off,114,0,0,,2,,,74,127
25986,note_off,0,0,0,,4,,,52,127
25986,note_off,0,0,0,,12,,,59,127
25987,note_on,1,0,0,,0,,,72,127
25987,note_on,0,0,0,,10,,,57,127
26102,note_on,115,0,0,,12,,,71,127
26216,note_off,114,0,0,,10,,,57,127
26216,note_off,0,0,0,,0,,,72,127
26217,note_on,1,0,0,,5,,,77,127
26217,note_on,0,0,0,,2,,,50,127
26331,note_off,114,0,0,,12,,,71,127
26332,note_on,1,0,0,,10,,,69,127
26446,note_off,114,0,0,,2,,,50,127
26446,note_off,0,0,0,,5,,,77,127
26447,note_on,1,0,0,,4,,,76,127
26447,note_on,0,0,0,,4,,,52,127
26561,note_off,114,0,0,,10,,,69,127
26562,note_on,1,0,0,,8,,,68,127
26676,note_off,114,0,0,,8,,,68,127
26676,note_off,0,0,0,,4,,,52,127
26677,note_on,1,0,0,,10,,,69,127
26677,note_on,0,0,0,,5,,,53,127
26791,note_off,114,0,0,,4,,,76,127
26792,note_on,1,0,0,,2,,,74,127
26906,note_off,114,0,0,,2,,,74,127
26906,note_off,0,0,0,,5,,,53,127
26906,note_off,0,0,0,,10,,,69,127
26907,note_on,1,0,0,,4,,,76,127
26907,note_on,0,0,0,,4,,,52,127
27136,note_off,229,0,0,,4,,,52,127
27136,note_off,0,0,0,,4,,,76,127
27156,note_on,20,0,0,,4,,,64,127
27156,note_on,0,0,0,,0,,,72,127
27270,note_off,114,0,0,,0,,,72,127
27270,note_off,0,0,0,,4,,,64,127
27271,note_on,1,0,0,,2,,,62,127
27271,note_on,0,0,0,,12,,,71,127
27385,note_off,114,0,0,,12,,,71,127
27385,note_off,0,0,0,,2,,,62,127
27386,note_on,1,0,0,,7,,,67,127
27386,note_on,0,0,0,,4,,,76,127
27500,note_off,114,0,0,,4,,,76,127
27500,note_off,0,0,0,,7,,,67,127
27501,note_on,1,0,0,,5,,,65,127
27501,note_on,0,0,0,,2,,,74,127
27615,note_off,114,0,0,,2,,,74,127
27615,note_off,0,0,0,,5,,,65,127
27616,note_on,1,0,0,,4,,,64,127
27616,note_on,0,0,0,,7,,,79,127
27730,note_off,114,0,0,,7,,,79,127
27730,note_off,0,0,0,,4,,,64,127
27731,note_on,1,0,0,,2,,,62,127
27731,note_on,0,0,0,,5,,,77,127
27845,note_off,114,0,0,,5,,,77,127
27845,note_off,0,0,0,,2,,,62,127
27846,note_on,1,0,0,,0,,,36,127
27846,note_on,0,0,0,,4,,,76,127
28075,note_off,229,0,0,,4,,,76,127
28075,note_off,0,0,0,,0,,,36,127
28076,note_on,1,0,0,,4,,,64,127
28076,note_on,0,0,0,,0,,,72,127
28190,note_off,114,0,0,,0,,,72,127
28190,note_off,0,0,0,,4,,,64,127
28191,note_on,1,0,0,,2,,,62,127
28191,note_on,0,0,0,,12,,,71,127
28305,note_off,114,0,0,,12,,,71,127
28305,note_off,0,0,0,,2,,,62,127
28306,note_on,1,0,0,,7,,,67,127
28306,note_on,0,0,0,,4,,,76,127
28420,note_off,114,0,0,,4,,,76,127
28420,note_off,0,0,0,,7,,,67,127
28421,note_on,1,0,0,,5,,,65,127
28421,note_on,0,0,0,,2,,,74,127
28535,note_off,114,0,0,,2,,,74,127
28535,note_off,0,0,0,,5,,,65,127
28536,note_on,1,0,0,,4,,,64,127
28536,note_on,0,0,0,,7,,,79,127
28650,note_off,114,0,0,,7,,,79,127
28650,note_off,0,0,0,,4,,,64,127
28651,note_on,1,0,0,,2,,,62,127
28651,note_on,0,0,0,,5,,,77,127
28765,note_off,114,0,0,,5,,,77,127
28765,note_off,0,0,0,,2,,,62,127
28766,note_on,1,0,0,,0,,,36,127
28766,note_on,0,0,0,,4,,,76,127
28995,note_off,229,0,0,,4,,,76,127
28995,note_off,0,0,0,,0,,,36,127
29015,note_on,20,0,0,,2,,,74,127
29015,note_on,0,0,0,,5,,,65,127
29129,note_off,114,0,0,,5,,,65,127
29129,note_off,0,0,0,,2,,,74,127
29130,note_on,1,0,0,,1,,,73,127
29130,note_on,0,0,0,,4,,,64,127
29244,note_off,114,0,0,,4,,,64,127
29244,note_off,0,0,0,,1,,,73,127
29245,note_on,1,0,0,,5,,,77,127
29245,note_on,0,0,0,,10,,,69,127
29359,note_off,114,0,0,,10,,,69,127
29359,note_off,0,0,0,,5,,,77,127
29360,note_on,1,0,0,,4,,,76,127
29360,note_on,0,0,0,,7,,,67,127
29474,note_off,114,0,0,,7,,,67,127
29474,note_off,0,0,0,,4,,,76,127
29475,note_on,1,0,0,,10,,,81,127
29475,note_on,0,0,0,,5,,,65,127
29589,note_off,114,0,0,,5,,,65,127
29589,note_off,0,0,0,,10,,,81,127
29590,note_on,1,0,0,,7,,,79,127
29590,note_on,0,0,0,,4,,,64,127
29704,note_off,114,0,0,,4,,,64,127
29704,note_off,0,0,0,,7,,,79,127
29705,note_on,1,0,0,,5,,,77,127
29705,note_on,0,0,0,,2,,,38,127
29934,note_off,229,0,0,,2,,,38,127
29934,note_off,0,0,0,,5,,,77,127
29935,note_on,1,0,0,,2,,,74,127
29935,note_on,0,0,0,,5,,,65,127
30049,note_off,114,0,0,,5,,,65,127
30049,note_off,0,0,0,,2,,,74,127
30050,note_on,1,0,0,,1,,,73,127
30050,note_on,0,0,0,,4,,,64,127
30164,note_off,114,0,0,,4,,,64,127
30164,note_off,0,0,0,,1,,,73,127
30165,note_on,1,0,0,,5,,,77,127
30165,note_on,0,0,0,,10,,,69,127
30279,note_off,114,0,0,,10,,,69,127
30279,note_off,0,0,0,,5,,,77,127
30280,note_on,1,0,0,,4,,,76,127
30280,note_on,0,0,0,,7,,,67,127
30394,note_off,114,0,0,,7,,,67,127
30394,note_off,0,0,0,,4,,,76,127
30395,note_on,1,0,0,,10,,,81,127
30395,note_on,0,0,0,,5,,,65,127
30509,note_off,114,0,0,,5,,,65,127
30509,note_off,0,0,0,,10,,,81,127
30510,note_on,1,0,0,,7,,,79,127
30510,note_on,0,0,0,,4,,,64,127
30624,note_off,114,0,0,,4,,,64,127
30624,note_off,0,0,0,,7,,,79,127
30625,note_on,1,0,0,,5,,,77,127
30625,note_on,0,0,0,,2,,,50,127
30625,note_on,0,0,0,,2,,,62,127
30739,note_off,114,0,0,,5,,,77,127
30740,note_on,1,0,0,,4,,,76,127
30854,note_off,114,0,0,,4,,,76,127
30854,note_off,0,0,0,,2,,,62,127
30854,note_off,0,0,0,,2,,,50,127
30855,note_on,1,0,0,,4,,,76,127
30855,note_on,0,0,0,,4,,,52,127
30855,note_on,0,0,0,,4,,,64,127
30969,note_off,114,0,0,,4,,,76,127
30970,note_on,1,0,0,,2,,,74,127
31084,note_off,114,0,0,,2,,,74,127
31084,note_off,0,0,0,,4,,,64,127
31084,note_off,0,0,0,,4,,,52,127
31085,note_on,1,0,0,,2,,,74,127
31085,note_on,0,0,0,,5,,,53,127
31085,note_on,0,0,0,,5,,,65,127
31199,note_off,114,0,0,,2,,,74,127
31200,note_on,1,0,0,,0,,,72,127
31314,note_off,114,0,0,,0,,,72,127
31314,note_off,0,0,0,,5,,,65,127
31315,note_on,1,0,0,,0,,,72,127
31315,note_on,0,0,0,,4,,,64,127
31429,note_off,114,0,0,,0,,,72,127
31430,note_on,1,0,0,,12,,,71,127
31544,note_off,114,0,0,,12,,,71,127
31544,note_off,0,0,0,,4,,,64,127
31544,note_off,0,0,0,,5,,,53,127
31545,note_on,1,0,0,,12,,,71,127
31545,note_on,0,0,0,,2,,,62,127
31545,note_on,0,0,0,,5,,,53,127
31659,note_off,114,0,0,,12,,,71,127
31660,note_on,1,0,0,,10,,,69,127
31774,note_off,114,0,0,,10,,,69,127
31774,note_off,0,0,0,,2,,,62,127
31775,note_on,1,0,0,,10,,,69,127
31775,note_on,0,0,0,,0,,,60,127
31889,note_off,114,0,0,,10,,,69,127
31890,note_on,1,0,0,,8,,,68,127
32004,note_off,114,0,0,,8,,,68,127
32004,note_off,0,0,0,,0,,,60,127
32004,note_off,0,0,0,,5,,,53,127
32005,note_on,1,0,0,,8,,,68,127
32005,note_on,0,0,0,,12,,,59,127
32005,note_on,0,0,0,,5,,,53,127
32234,note_off,229,0,0,,12,,,59,127
32234,note_off,0,0,0,,8,,,68,127
32235,note_on,1,0,0,,12,,,71,127
32235,note_on,0,0,0,,10,,,57,127
32291,note_off,56,0,0,,12,,,71,127
32292,note_on,1,0,0,,10,,,69,127
32348,note_off,56,0,0,,10,,,69,127
32349,note_on,1,0,0,,8,,,68,127
32405,note_off,56,0,0,,8,,,68,127
32406,note_on,1,0,0,,10,,,69,127
32462,note_off,56,0,0,,10,,,69,127
32462,note_off,0,0,0,,10,,,57,127
32462,note_off,0,0,0,,5,,,53,127
32463,note_on,1,0,0,,8,,,68,127
32463,note_on,0,0,0,,4,,,40,127
32692,note_off,229,0,0,,4,,,40,127
32692,note_off,0,0,0,,8,,,68,127
32712,note_on,20,0,0,,10,,,57,127
32712,note_on,0,0,0,,1,,,61,127
32826,note_off,114,0,0,,1,,,61,127
32826,note_off,0,0,0,,10,,,57,127
32827,note_on,1,0,0,,8,,,56,127
32827,note_on,0,0,0,,12,,,59,127
32941,note_off,114,0,0,,12,,,59,127
32941,note_off,0,0,0,,8,,,56,127
32942,note_on,1,0,0,,1,,,61,127
32942,note_on,0,0,0,,4,,,64,127
33056,note_off,114,0,0,,4,,,64,127
33056,note_off,0,0,0,,1,,,61,127
33057,note_on,1,0,0,,12,,,59,127
33057,note_on,0,0,0,,2,,,62,127
33171,note_off,114,0,0,,2,,,62,127
33171,note_off,0,0,0,,12,,,59,127
33172,note_on,1,0,0,,1,,,61,127
33172,note_on,0,0,0,,10,,,69,127
33286,note_off,114,0,0,,10,,,69,127
33286,note_off,0,0,0,,1,,,61,127
33287,note_on,1,0,0,,12,,,59,127
33287,note_on,0,0,0,,8,,,68,127
33401,note_off,114,0,0,,8,,,68,127
33401,note_off,0,0,0,,12,,,59,127
33402,note_on,1,0,0,,10,,,33,127
33402,note_on,0,0,0,,10,,,69,127
33402,note_on,0,0,0,,1,,,73,127
33631,note_off,229,0,0,,1,,,73,127
33631,note_off,0,0,0,,10,,,69,127
33631,note_off,0,0,0,,10,,,33,127
33632,note_on,1,0,0,,10,,,57,127
33632,note_on,0,0,0,,1,,,61,127
33746,note_off,114,0,0,,1,,,61,127
33746,note_off,0,0,0,,10,,,57,127
33747,note_on,1,0,0,,8,,,56,127
33747,note_on,0,0,0,,12,,,59,127
33861,note_off,114,0,0,,12,,,59,127
33861,note_off,0,0,0,,8,,,56,127
33862,note_on,1,0,0,,1,,,61,127
33862,note_on,0,0,0,,4,,,64,127
33976,note_off,114,0,0,,4,,,64,127
33976,note_off,0,0,0,,1,,,61,127
33977,note_on,1,0,0,,12,,,59,127
33977,note_on,0,0,0,,2,,,62,127
34091,note_off,114,0,0,,2,,,62,127
34091,note_off,0,0,0,,12,,,59,127
34092,note_on,1,0,0,,1,,,61,127
34092,note_on,0,0,0,,10,,,69,127
34206,note_off,114,0,0,,10,,,69,127
34206,note_off,0,0,0,,1,,,61,127
34207,note_on,1,0,0,,12,,,59,127
34207,note_on,0,0,0,,8,,,68,127
34321,note_off,114,0,0,,8,,,68,127
34321,note_off,0,0,0,,12,,,59,127
34322,note_on,1,0,0,,10,,,33,127
34322,note_on,0,0,0,,1,,,73,127
34322,note_on,0,0,0,,10,,,69,127
34551,note_off,229,0,0,,10,,,69,127
34551,note_off,0,0,0,,1,,,73,127
34551,note_off,0,0,0,,10,,,33,127
34552,note_on,1,0,0,,10,,,57,127
34552,note_on,0,0,0,,1,,,61,127
34666,note_off,114,0,0,,1,,,61,127
34666,note_off,0,0,0,,10,,,57,127
34667,note_on,1,0,0,,8,,,56,127
34667,note_on,0,0,0,,12,,,59,127
34781,note_off,114,0,0,,12,,,59,127
34781,note_off,0,0,0,,8,,,56,127
34782,note_on,1,0,0,,1,,,61,127
34782,note_on,0,0,0,,4,,,64,127
34896,note_off,114,0,0,,4,,,64,127
34896,note_off,0,0,0,,1,,,61,127
34897,note_on,1,0,0,,12,,,59,127
34897,note_on,0,0,0,,2,,,62,127
35011,note_off,114,0,0,,2,,,62,127
35011,note_off,0,0,0,,12,,,59,127
35012,note_on,1,0,0,,1,,,61,127
35012,note_on,0,0,0,,10,,,69,127
35126,note_off,114,0,0,,10,,,69,127
35126,note_off,0,0,0,,1,,,61,127
35127,note_on,1,0,0,,12,,,59,127
35127,note_on,0,0,0,,8,,,68,127
35241,note_off,114,0,0,,8,,,68,127
35241,note_off,0,0,0,,12,,,59,127
35242,note_on,1,0,0,,10,,,33,127
35242,note_on,0,0,0,,10,,,69,127
35242,note_on,0,0,0,,1,,,73,127
35356,note_off,114,0,0,,10,,,69,127
35357,note_on,1,0,0,,4,,,64,127
35471,note_off,114,0,0,,4,,,64,127
35471,note_off,0,0,0,,10,,,33,127
35472,note_on,1,0,0,,2,,,38,127
35472,note_on,0,0,0,,6,,,66,127
35586,note_off,114,0,0,,1,,,73,127
35587,note_on,1,0,0,,2,,,74,127
35701,note_off,114,0,0,,2,,,74,127
35701,note_off,0,0,0,,6,,,66,127
35701,note_off,0,0,0,,2,,,38,127
35702,note_on,1,0,0,,4,,,40,127
35702,note_on,0,0,0,,1,,,73,127
35816,note_off,114,0,0,,1,,,73,127
35817,note_on,1,0,0,,10,,,69,127
35931,note_off,114,0,0,,10,,,69,127
35931,note_off,0,0,0,,4,,,40,127
35932,note_on,1,0,0,,4,,,40,127
35932,note_on,0,0,0,,12,,,71,127
36046,note_off,114,0,0,,12,,,71,127
36047,note_on,1,0,0,,8,,,68,127
36161,note_off,114,0,0,,8,,,68,127
36161,note_off,0,0,0,,4,,,40,127
36162,note_on,1,0,0,,10,,,33,127
36162,note_on,0,0,0,,10,,,69,127
36391,note_off,229,0,0,,10,,,69,127
36391,note_off,0,0,0,,10,,,33,127
36411,note_on,20,0,0,,1,,,73,127
36411,note_on,0,0,0,,4,,,76,127
36411,note_on,0,0,0,,10,,,33,127
36525,note_off,114,0,0,,1,,,73,127
36526,note_on,1,0,0,,12,,,71,127
36640,note_off,114,0,0,,12,,,71,127
36640,note_off,0,0,0,,10,,,33,127
36640,note_off,0,0,0,,4,,,76,127
36641,note_on,1,0,0,,2,,,74,127
36641,note_on,0,0,0,,6,,,78,127
36641,note_on,0,0,0,,10,,,33,127
36755,note_off,114,0,0,,2,,,74,127
36756,note_on,1,0,0,,1,,,73,127
36870,note_off,114,0,0,,1,,,73,127
36870,note_off,0,0,0,,10,,,33,127
36870,note_off,0,0,0,,6,,,78,127
36871,note_on,1,0,0,,4,,,76,127
36871,note_on,0,0,0,,8,,,80,127
36871,note_on,0,0,0,,10,,,33,127
36985,note_off,114,0,0,,4,,,76,127
36986,note_on,1,0,0,,2,,,74,127
37100,note_off,114,0,0,,2,,,74,127
37100,note_off,0,0,0,,10,,,33,127
37100,note_off,0,0,0,,8,,,80,127
37101,note_on,1,0,0,,1,,,73,127
37101,note_on,0,0,0,,10,,,81,127
37101,note_on,0,0,0,,10,,,33,127
37330,note_off,229,0,0,,10,,,33,127
37330,note_off,0,0,0,,10,,,81,127
37330,note_off,0,0,0,,1,,,73,127
37331,note_on,1,0,0,,4,,,64,127
37331,note_on,0,0,0,,1,,,73,127
37331,note_on,0,0,0,,10,,,33,127
37445,note_off,114,0,0,,1,,,73,127
37446,note_on,1,0,0,,12,,,71,127
37560,note_off,114,0,0,,12,,,71,127
37560,note_off,0,0,0,,10,,,33,127
37560,note_off,0,0,0,,4,,,64,127
37561,note_on,1,0,0,,2,,,74,127
37561,note_on,0,0,0,,6,,,66,127
37561,note_on,0,0,0,,10,,,33,127
37675,note_off,114,0,0,,2,,,74,127
37676,note_on,1,0,0,,1,,,73,127
37790,note_off,114,0,0,,1,,,73,127
37790,note_off,0,0,0,,10,,,33,127
37790,note_off,0,0,0,,6,,,66,127
37791,note_on,1,0,0,,8,,,68,127
37791,note_on,0,0,0,,4,,,76,127
37791,note_on,0,0,0,,10,,,33,127
37905,note_off,114,0,0,,4,,,76,127
37906,note_on,1,0,0,,2,,,74,127
38020,note_off,114,0,0,,2,,,74,127
38020,note_off,0,0,0,,10,,,33,127
38020,note_off,0,0,0,,8,,,68,127
38021,note_on,1,0,0,,10,,,69,127
38021,note_on,0,0,0,,1,,,73,127
38021,note_on,0,0,0,,10,,,33,127
38250,note_off,229,0,0,,10,,,33,127
38250,note_off,0,0,0,,1,,,73,127
38250,note_off,0,0,0,,10,,,69,127
38251,note_on,1,0,0,,4,,,76,127
38251,note_on,0,0,0,,1,,,73,127
38251,note_on,0,0,0,,10,,,33,127
38365,note_off,114,0,0,,1,,,73,127
38366,note_on,1,0,0,,12,,,71,127
38480,note_off,114,0,0,,12,,,71,127
38480,note_off,0,0,0,,10,,,33,127
38480,note_off,0,0,0,,4,,,76,127
38481,note_on,1,0,0,,6,,,78,127
38481,note_on,0,0,0,,2,,,74,127
38481,note_on,0,0,0,,10,,,33,127
38595,note_off,114,0,0,,2,,,74,127
38596,note_on,1,0,0,,1,,,73,127
38710,note_off,114,0,0,,1,,,73,127
38710,note_off,0,0,0,,10,,,33,127
38710,note_off,0,0,0,,6,,,78,127
38711,note_on,1,0,0,,4,,,76,127
38711,note_on,0,0,0,,8,,,80,127
38711,note_on,0,0,0,,10,,,33,127
38825,note_off,114,0,0,,4,,,76,127
38826,note_on,1,0,0,,2,,,74,127
38940,note_off,114,0,0,,2,,,74,127
38940,note_off,0,0,0,,10,,,33,127
38940,note_off,0,0,0,,8,,,80,127
38941,note_on,1,0,0,,1,,,73,127
38941,note_on,0,0,0,,10,,,81,127
38941,note_on,0,0,0,,10,,,33,127
39170,note_off,229,0,0,,10,,,33,127
39170,note_off,0,0,0,,10,,,81,127
39170,note_off,0,0,0,,1,,,73,127
39171,note_on,1,0,0,,1,,,73,127
39171,note_on,0,0,0,,4,,,64,127
39171,note_on,0,0,0,,10,,,33,127
39285,note_off,114,0,0,,1,,,73,127
39286,note_on,1,0,0,,12,,,71,127
39400,note_off,114,0,0,,12,,,71,127
39400,note_off,0,0,0,,10,,,33,127
39400,note_off,0,0,0,,4,,,64,127
39401,note_on,1,0,0,,6,,,66,127
39401,note_on,0,0,0,,2,,,74,127
39401,note_on,0,0,0,,10,,,33,127
39515,note_off,114,0,0,,2,,,74,127
39516,note_on,1,0,0,,1,,,73,127
39630,note_off,114,0,0,,1,,,73,127
39630,note_off,0,0,0,,10,,,33,127
39630,note_off,0,0,0,,6,,,66,127
39631,note_on,1,0,0,,4,,,76,127
39631,note_on,0,0,0,,8,,,68,127
39631,note_on,0,0,0,,10,,,33,127
39745,note_off,114,0,0,,4,,,76,127
39746,note_on,1,0,0,,2,,,74,127
39860,note_off,114,0,0,,2,,,74,127
39860,note_off,0,0,0,,10,,,33,127
39860,note_off,0,0,0,,8,,,68,127
39861,note_on,1,0,0,,1,,,73,127
39861,note_on,0,0,0,,10,,,69,127
39861,note_on,0,0,0,,10,,,33,127
39975,note_off,114,0,0,,1,,,73,127
39976,note_on,1,0,0,,10,,,81,127
40090,note_off,114,0,0,,10,,,81,127
40090,note_off,0,0,0,,10,,,33,127
40090,note_off,0,0,0,,10,,,69,127
40091,note_on,1,0,0,,6,,,78,127
40091,note_on,0,0,0,,2,,,38,127
40205,note_off,114,0,0,,6,,,78,127
40206,note_on,1,0,0,,2,,,74,127
40320,note_off,114,0,0,,2,,,74,127
40320,note_off,0,0,0,,2,,,38,127
40321,note_on,1,0,0,,1,,,73,127
40321,note_on,0,0,0,,4,,,40,127
40435,note_off,114,0,0,,1,,,73,127
40436,note_on,1,0,0,,10,,,69,127
40550,note_off,114,0,0,,10,,,69,127
40550,note_off,0,0,0,,4,,,40,127
40551,note_on,1,0,0,,12,,,71,127
40551,note_on,0,0,0,,4,,,40,127
40665,note_off,114,0,0,,12,,,71,127
40666,note_on,1,0,0,,8,,,68,127
40780,note_off,114,0,0,,8,,,68,127
40780,note_off,0,0,0,,4,,,40,127
40781,note_on,1,0,0,,10,,,69,127
40781,note_on,0,0,0,,10,,,57,127
40837,note_off,56,0,0,,10,,,57,127
40838,note_on,1,0,0,,4,,,52,127
40894,note_off,56,0,0,,4,,,52,127
40895,note_on,1,0,0,,1,,,49,127
40951,note_off,56,0,0,,1,,,49,127
40952,note_on,1,0,0,,10,,,45,127
41008,note_off,56,0,0,,10,,,45,127
41009,note_on,1,0,0,,10,,,33,127
41067,note_off,58,0,0,,10,,,69,127
41125,note_on,58,0,0,,10,,,81,127
41239,note_off,114,0,0,,10,,,81,127
41239,note_off,0,0,0,,10,,,33,127
41240,note_on,1,0,0,,1,,,73,127
41240,note_on,0,0,0,,4,,,40,127
41354,note_off,114,0,0,,1,,,73,127
41355,note_on,1,0,0,,10,,,69,127
41469,note_off,114,0,0,,10,,,69,127
41469,note_off,0,0,0,,4,,,40,127
41470,note_on,1,0,0,,12,,,71,127
41470,note_on,0,0,0,,4,,,40,127
41584,note_off,114,0,0,,12,,,71,127
41585,note_on,1,0,0,,8,,,68,127
41699,note_off,114,0,0,,8,,,68,127
41699,note_off,0,0,0,,4,,,40,127
41700,note_on,1,0,0,,10,,,69,127
41700,note_on,0,0,0,,10,,,57,127
41756,note_off,56,0,0,,10,,,57,127
41757,note_on,1,0,0,,4,,,52,127
41813,note_off,56,0,0,,4,,,52,127
41814,note_on,1,0,0,,1,,,49,127
41870,note_off,56,0,0,,1,,,49,127
41871,note_on,1,0,0,,10,,,45,127
41927,note_off,56,0,0,,10,,,45,127
41928,note_on,1,0,0,,10,,,33,127
41986,note_off,58,0,0,,10,,,69,127
42044,note_on,58,0,0,,10,,,81,127
42158,note_off,114,0,0,,10,,,81,127
42158,note_off,0,0,0,,10,,,33,127
42159,note_on,1,0,0,,1,,,73,127
42159,note_on,0,0,0,,4,,,40,127
42273,note_off,114,0,0,,1,,,73,127
42274,note_on,1,0,0,,10,,,69,127
42388,note_off,114,0,0,,10,,,69,127
42388,note_off,0,0,0,,4,,,40,127
42389,note_on,1,0,0,,12,,,71,127
42389,note_on,0,0,0,,4,,,40,127
42503,note_off,114,0,0,,12,,,71,127
42504,note_on,1,0,0,,8,,,68,127
42618,note_off,114,0,0,,8,,,68,127
42618,note_off,0,0,0,,4,,,40,127
42619,note_on,1,0,0,,10,,,69,127
42619,note_on,0,0,0,,10,,,33,127
44299,note_off,1680,0,0,,10,,,33,127
44299,note_off,0,0,0,,10,,,69,127
46080,end_of_track,1781,1,0,,,,,,
