tick,type,time,meta,track,program,channel,pitch,tempo,note,velocity
0,copyright,0,1,0,,,,,,
0,program_change,0,0,0,6,0,,,,
0,pitchwheel,0,0,0,,0,0,,,
0,program_change,0,0,0,6,1,,,,
0,pitchwheel,0,0,0,,1,-590,,,
0,program_change,0,0,0,6,2,,,,
0,pitchwheel,0,0,0,,2,-272,,,
0,program_change,0,0,0,6,3,,,,
0,pitchwheel,0,0,0,,3,-353,,,
0,program_change,0,0,0,6,4,,,,
0,pitchwheel,0,0,0,,4,-560,,,
0,program_change,0,0,0,6,5,,,,
0,pitchwheel,0,0,0,,5,-80,,,
0,program_change,0,0,0,6,6,,,,
0,pitchwheel,0,0,0,,6,-625,,,
0,program_change,0,0,0,6,7,,,,
0,pitchwheel,0,0,0,,7,-130,,,
0,program_change,0,0,0,6,8,,,,
0,pitchwheel,0,0,0,,8,-512,,,
0,program_change,0,0,0,6,10,,,,
0,pitchwheel,0,0,0,,10,-464,,,
0,program_change,0,0,0,6,11,,,,
0,pitchwheel,0,0,0,,11,-208,,,
0,program_change,0,0,0,6,12,,,,
0,pitchwheel,0,0,0,,12,-553,,,
0,set_tempo,0,1,0,,,,500000,,
89,note_on,89,0,0,,10,,,45,127
265,note_off,176,0,0,,10,,,45,127
266,note_on,1,0,0,,10,,,57,127
442,note_off,176,0,0,,10,,,57,127
443,note_on,1,0,0,,4,,,64,127
443,note_on,0,0,0,,1,,,61,127
619,note_off,176,0,0,,1,,,61,127
619,note_off,0,0,0,,4,,,64,127
620,note_on,1,0,0,,12,,,59,127
620,note_on,0,0,0,,2,,,62,127
796,note_off,176,0,0,,12,,,59,127
797,note_on,1,0,0,,8,,,56,127
973,note_off,176,0,0,,8,,,56,127
974,note_on,1,0,0,,4,,,52,127
1118,note_off,144,0,0,,2,,,62,127
1150,note_off,32,0,0,,4,,,52,127
1151,note_on,1,0,0,,10,,,45,127
1327,note_off,176,0,0,,10,,,45,127
1328,note_on,1,0,0,,10,,,57,127
1504,note_off,176,0,0,,10,,,57,127
1505,note_on,1,0,0,,4,,,64,127
1505,note_on,0,0,0,,1,,,61,127
1681,note_off,176,0,0,,1,,,61,127
1681,note_off,0,0,0,,4,,,64,127
1682,note_on,1,0,0,,12,,,59,127
1682,note_on,0,0,0,,2,,,62,127
1858,note_off,176,0,0,,12,,,59,127
1859,note_on,1,0,0,,8,,,56,127
2035,note_off,176,0,0,,8,,,56,127
2036,note_on,1,0,0,,4,,,52,127
2180,note_off,144,0,0,,2,,,62,127
2212,note_off,32,0,0,,4,,,52,127
2213,note_on,1,0,0,,10,,,57,127
2213,note_on,0,0,0,,10,,,45,127
2389,note_off,176,0,0,,10,,,57,127
2390,note_on,1,0,0,,10,,,69,127
2566,note_off,176,0,0,,10,,,69,127
2567,note_on,1,0,0,,1,,,73,127
2567,note_on,0,0,0,,4,,,76,127
2743,note_off,176,0,0,,4,,,76,127
2743,note_off,0,0,0,,1,,,73,127
2743,note_off,0,0,0,,10,,,45,127
2744,note_on,1,0,0,,12,,,71,127
2744,note_on,0,0,0,,2,,,74,127
2744,note_on,0,0,0,,4,,,40,127
2920,note_off,176,0,0,,12,,,71,127
2921,note_on,1,0,0,,8,,,68,127
3097,note_off,176,0,0,,8,,,68,127
3098,note_on,1,0,0,,4,,,64,127
3242,note_off,144,0,0,,2,,,74,127
3274,note_off,32,0,0,,4,,,64,127
3274,note_off,0,0,0,,4,,,40,127
3275,note_on,1,0,0,,10,,,57,127
3275,note_on,0,0,0,,10,,,45,127
3451,note_off,176,0,0,,10,,,57,127
3452,note_on,1,0,0,,10,,,69,127
3628,note_off,176,0,0,,10,,,69,127
3629,note_on,1,0,0,,4,,,76,127
3629,note_on,0,0,0,,1,,,73,127
3805,note_off,176,0,0,,1,,,73,127
3805,note_off,0,0,0,,4,,,76,127
3805,note_off,0,0,0,,10,,,45,127
3806,note_on,1,0,0,,12,,,71,127
3806,note_on,0,0,0,,2,,,74,127
3806,note_on,0,0,0,,4,,,40,127
3982,note_off,176,0,0,,12,,,71,127
3983,note_on,1,0,0,,8,,,68,127
4159,note_off,176,0,0,,8,,,68,127
4160,note_on,1,0,0,,4,,,64,127
4336,note_off,176,0,0,,4,,,64,127
4336,note_off,0,0,0,,4,,,40,127
4336,note_off,0,0,0,,2,,,74,127
4352,note_on,16,0,0,,10,,,45,127
4352,note_on,0,0,0,,10,,,69,127
4440,note_off,88,0,0,,10,,,45,127
4441,note_on,1,0,0,,1,,,49,127
4529,note_off,88,0,0,,1,,,49,127
4530,note_on,1,0,0,,4,,,52,127
4618,note_off,88,0,0,,4,,,52,127
4619,note_on,1,0,0,,10,,,57,127
4707,note_off,88,0,0,,10,,,57,127
4708,note_on,1,0,0,,1,,,61,127
4884,note_off,176,0,0,,1,,,61,127
4885,note_on,1,0,0,,2,,,50,127
4885,note_on,0,0,0,,2,,,62,127
5061,note_off,176,0,0,,2,,,62,127
5062,note_on,1,0,0,,12,,,59,127
5238,note_off,176,0,0,,12,,,59,127
5238,note_off,0,0,0,,2,,,50,127
5239,note_on,1,0,0,,4,,,52,127
5239,note_on,0,0,0,,8,,,56,127
5414,note_off,175,0,0,,10,,,69,127
5415,note_off,1,0,0,,8,,,56,127
5415,note_off,0,0,0,,4,,,52,127
5431,note_on,16,0,0,,10,,,57,127
5431,note_on,0,0,0,,10,,,45,127
5519,note_off,88,0,0,,10,,,57,127
5520,note_on,1,0,0,,1,,,61,127
5608,note_off,88,0,0,,1,,,61,127
5609,note_on,1,0,0,,4,,,64,127
5697,note_off,88,0,0,,4,,,64,127
5698,note_on,1,0,0,,10,,,69,127
5786,note_off,88,0,0,,10,,,69,127
5786,note_off,0,0,0,,10,,,45,127
5787,note_on,1,0,0,,1,,,73,127
5787,note_on,0,0,0,,10,,,57,127
5963,note_off,176,0,0,,10,,,57,127
5963,note_off,0,0,0,,1,,,73,127
5964,note_on,1,0,0,,2,,,74,127
5964,note_on,0,0,0,,6,,,66,127
5964,note_on,0,0,0,,2,,,50,127
6140,note_off,176,0,0,,2,,,74,127
6141,note_on,1,0,0,,12,,,71,127
6317,note_off,176,0,0,,12,,,71,127
6317,note_off,0,0,0,,2,,,50,127
6317,note_off,0,0,0,,6,,,66,127
6318,note_on,1,0,0,,4,,,64,127
6318,note_on,0,0,0,,8,,,68,127
6318,note_on,0,0,0,,4,,,52,127
6494,note_off,176,0,0,,4,,,52,127
6494,note_off,0,0,0,,8,,,68,127
6494,note_off,0,0,0,,4,,,64,127
6510,note_on,16,0,0,,10,,,45,127
6510,note_on,0,0,0,,10,,,69,127
6598,note_off,88,0,0,,10,,,45,127
6599,note_on,1,0,0,,1,,,49,127
6687,note_off,88,0,0,,1,,,49,127
6688,note_on,1,0,0,,4,,,52,127
6776,note_off,88,0,0,,4,,,52,127
6777,note_on,1,0,0,,10,,,57,127
6865,note_off,88,0,0,,10,,,57,127
6866,note_on,1,0,0,,1,,,61,127
7042,note_off,176,0,0,,1,,,61,127
7043,note_on,1,0,0,,2,,,50,127
7043,note_on,0,0,0,,2,,,62,127
7219,note_off,176,0,0,,2,,,62,127
7220,note_on,1,0,0,,12,,,59,127
7396,note_off,176,0,0,,12,,,59,127
7396,note_off,0,0,0,,2,,,50,127
7397,note_on,1,0,0,,4,,,52,127
7397,note_on,0,0,0,,8,,,56,127
7572,note_off,175,0,0,,10,,,69,127
7573,note_off,1,0,0,,8,,,56,127
7573,note_off,0,0,0,,4,,,52,127
7589,note_on,16,0,0,,1,,,61,127
7589,note_on,0,0,0,,10,,,45,127
7677,note_off,88,0,0,,1,,,61,127
7678,note_on,1,0,0,,4,,,64,127
7766,note_off,88,0,0,,4,,,64,127
7766,note_off,0,0,0,,10,,,45,127
7767,note_on,1,0,0,,10,,,69,127
7767,note_on,0,0,0,,10,,,57,127
7855,note_off,88,0,0,,10,,,69,127
7856,note_on,1,0,0,,1,,,73,127
7944,note_off,88,0,0,,1,,,73,127
7944,note_off,0,0,0,,10,,,57,127
7945,note_on,1,0,0,,4,,,76,127
7945,note_on,0,0,0,,12,,,59,127
7945,note_on,0,0,0,,8,,,56,127
8121,note_off,176,0,0,,8,,,56,127
8121,note_off,0,0,0,,12,,,59,127
8121,note_off,0,0,0,,4,,,76,127
8122,note_on,1,0,0,,10,,,69,127
8122,note_on,0,0,0,,10,,,81,127
8122,note_on,0,0,0,,10,,,57,127
8122,note_on,0,0,0,,6,,,54,127
8298,note_off,176,0,0,,10,,,81,127
8299,note_on,1,0,0,,6,,,78,127
8475,note_off,176,0,0,,6,,,78,127
8475,note_off,0,0,0,,6,,,54,127
8476,note_on,1,0,0,,3,,,75,127
8476,note_on,0,0,0,,12,,,47,127
8652,note_off,176,0,0,,12,,,47,127
8652,note_off,0,0,0,,3,,,75,127
8652,note_off,0,0,0,,10,,,57,127
8652,note_off,0,0,0,,10,,,69,127
8668,note_on,16,0,0,,4,,,52,127
8668,note_on,0,0,0,,8,,,68,127
8668,note_on,0,0,0,,4,,,76,127
8756,note_off,88,0,0,,4,,,52,127
8757,note_on,1,0,0,,8,,,56,127
8845,note_off,88,0,0,,8,,,56,127
8846,note_on,1,0,0,,12,,,59,127
8934,note_off,88,0,0,,12,,,59,127
8935,note_on,1,0,0,,4,,,64,127
9023,note_off,88,0,0,,4,,,64,127
9023,note_off,0,0,0,,8,,,68,127
9024,note_on,1,0,0,,8,,,68,127
9200,note_off,176,0,0,,8,,,68,127
9201,note_on,1,0,0,,10,,,57,127
9201,note_on,0,0,0,,10,,,69,127
9377,note_off,176,0,0,,10,,,69,127
9378,note_on,1,0,0,,6,,,66,127
9554,note_off,176,0,0,,6,,,66,127
9554,note_off,0,0,0,,10,,,57,127
9555,note_on,1,0,0,,3,,,63,127
9555,note_on,0,0,0,,12,,,59,127
9592,note_off,37,0,0,,4,,,76,127
9731,note_off,139,0,0,,12,,,59,127
9731,note_off,0,0,0,,3,,,63,127
9747,note_on,16,0,0,,4,,,40,127
9835,note_off,88,0,0,,4,,,40,127
9836,note_on,1,0,0,,8,,,44,127
9924,note_off,88,0,0,,8,,,44,127
9925,note_on,1,0,0,,12,,,47,127
10013,note_off,88,0,0,,12,,,47,127
10014,note_on,1,0,0,,4,,,52,127
10102,note_off,88,0,0,,4,,,52,127
10103,note_on,1,0,0,,8,,,56,127
10279,note_off,176,0,0,,8,,,56,127
10280,note_on,1,0,0,,10,,,45,127
10280,note_on,0,0,0,,10,,,57,127
10456,note_off,176,0,0,,10,,,57,127
10457,note_on,1,0,0,,6,,,54,127
10633,note_off,176,0,0,,6,,,54,127
10633,note_off,0,0,0,,10,,,45,127
10634,note_on,1,0,0,,12,,,83,127
10634,note_on,0,0,0,,3,,,51,127
10634,note_on,0,0,0,,12,,,47,127
10810,note_off,176,0,0,,12,,,47,127
10810,note_off,0,0,0,,3,,,51,127
10811,note_on,1,0,0,,4,,,40,127
10899,note_off,88,0,0,,12,,,83,127
10900,note_on,1,0,0,,10,,,81,127
10988,note_off,88,0,0,,10,,,81,127
10989,note_on,1,0,0,,8,,,80,127
11077,note_off,88,0,0,,8,,,80,127
11078,note_on,1,0,0,,6,,,78,127
11166,note_off,88,0,0,,6,,,78,127
11167,note_on,1,0,0,,4,,,76,127
11255,note_off,88,0,0,,4,,,76,127
11256,note_on,1,0,0,,3,,,75,127
11344,note_off,88,0,0,,3,,,75,127
11344,note_off,0,0,0,,4,,,40,127
11345,note_on,1,0,0,,1,,,73,127
11345,note_on,0,0,0,,10,,,45,127
11433,note_off,88,0,0,,1,,,73,127
11434,note_on,1,0,0,,12,,,71,127
11522,note_off,88,0,0,,12,,,71,127
11523,note_on,1,0,0,,10,,,69,127
11611,note_off,88,0,0,,10,,,69,127
11612,note_on,1,0,0,,8,,,68,127
11700,note_off,88,0,0,,8,,,68,127
11701,note_on,1,0,0,,6,,,66,127
11789,note_off,88,0,0,,6,,,66,127
11790,note_on,1,0,0,,4,,,64,127
11878,note_off,88,0,0,,4,,,64,127
11878,note_off,0,0,0,,10,,,45,127
11879,note_on,1,0,0,,1,,,61,127
11879,note_on,0,0,0,,12,,,47,127
11925,note_on,46,0,0,,12,,,59,127
11937,note_off,12,0,0,,1,,,61,127
11971,note_on,34,0,0,,1,,,61,127
11983,note_off,12,0,0,,12,,,59,127
12017,note_on,34,0,0,,12,,,59,127
12029,note_off,12,0,0,,1,,,61,127
12949,note_off,920,0,0,,12,,,47,127
12967,note_off,18,0,0,,12,,,59,127
13296,note_on,329,0,0,,3,,,75,127
13296,note_on,0,0,0,,12,,,71,127
13296,note_on,0,0,0,,12,,,59,127
13472,note_off,176,0,0,,12,,,59,127
13472,note_off,0,0,0,,12,,,71,127
13473,note_on,1,0,0,,0,,,72,127
13473,note_on,0,0,0,,10,,,57,127
13649,note_off,176,0,0,,10,,,57,127
13649,note_off,0,0,0,,0,,,72,127
13650,note_on,1,0,0,,12,,,71,127
13650,note_on,0,0,0,,12,,,59,127
13826,note_off,176,0,0,,12,,,59,127
13826,note_off,0,0,0,,3,,,75,127
13827,note_on,1,0,0,,4,,,76,127
13827,note_on,0,0,0,,0,,,60,127
13827,note_on,0,0,0,,10,,,69,127
13862,note_off,35,0,0,,12,,,71,127
13885,note_off,23,0,0,,10,,,69,127
13886,note_on,1,0,0,,12,,,71,127
13944,note_off,58,0,0,,12,,,71,127
13945,note_on,1,0,0,,10,,,69,127
14003,note_off,58,0,0,,10,,,69,127
14003,note_off,0,0,0,,0,,,60,127
14004,note_on,1,0,0,,8,,,68,127
14004,note_on,0,0,0,,12,,,59,127
14180,note_off,176,0,0,,12,,,59,127
14180,note_off,0,0,0,,8,,,68,127
14181,note_on,1,0,0,,10,,,69,127
14181,note_on,0,0,0,,0,,,60,127
14357,note_off,176,0,0,,0,,,60,127
14357,note_off,0,0,0,,10,,,69,127
14357,note_off,0,0,0,,4,,,76,127
14358,note_on,1,0,0,,12,,,71,127
14358,note_on,0,0,0,,3,,,75,127
14358,note_on,0,0,0,,12,,,59,127
14534,note_off,176,0,0,,12,,,59,127
14534,note_off,0,0,0,,12,,,71,127
14535,note_on,1,0,0,,0,,,72,127
14535,note_on,0,0,0,,10,,,57,127
14711,note_off,176,0,0,,10,,,57,127
14711,note_off,0,0,0,,0,,,72,127
14712,note_on,1,0,0,,12,,,71,127
14712,note_on,0,0,0,,12,,,59,127
14888,note_off,176,0,0,,12,,,59,127
14888,note_off,0,0,0,,3,,,75,127
14889,note_on,1,0,0,,4,,,76,127
14889,note_on,0,0,0,,0,,,60,127
14889,note_on,0,0,0,,10,,,69,127
14924,note_off,35,0,0,,12,,,71,127
14947,note_off,23,0,0,,10,,,69,127
14948,note_on,1,0,0,,12,,,71,127
15006,note_off,58,0,0,,12,,,71,127
15007,note_on,1,0,0,,10,,,69,127
15065,note_off,58,0,0,,10,,,69,127
15065,note_off,0,0,0,,0,,,60,127
15066,note_on,1,0,0,,8,,,68,127
15066,note_on,0,0,0,,12,,,59,127
15242,note_off,176,0,0,,12,,,59,127
15242,note_off,0,0,0,,8,,,68,127
15243,note_on,1,0,0,,10,,,69,127
15243,note_on,0,0,0,,0,,,60,127
15419,note_off,176,0,0,,0,,,60,127
15419,note_off,0,0,0,,10,,,69,127
15419,note_off,0,0,0,,4,,,76,127
15420,note_on,1,0,0,,12,,,71,127
15420,note_on,0,0,0,,6,,,78,127
15420,note_on,0,0,0,,3,,,63,127
15420,note_on,0,0,0,,12,,,59,127
15596,note_off,176,0,0,,3,,,63,127
15596,note_off,0,0,0,,6,,,78,127
15597,note_on,1,0,0,,7,,,79,127
15597,note_on,0,0,0,,4,,,64,127
15773,note_off,176,0,0,,4,,,64,127
15773,note_off,0,0,0,,7,,,79,127
15774,note_on,1,0,0,,6,,,78,127
15774,note_on,0,0,0,,6,,,66,127
15950,note_off,176,0,0,,6,,,66,127
15950,note_off,0,0,0,,12,,,59,127
15950,note_off,0,0,0,,12,,,71,127
15951,note_on,1,0,0,,12,,,71,127
15951,note_on,0,0,0,,7,,,67,127
15951,note_on,0,0,0,,12,,,59,127
15951,note_on,0,0,0,,4,,,76,127
15986,note_off,35,0,0,,6,,,78,127
16009,note_off,23,0,0,,4,,,76,127
16010,note_on,1,0,0,,6,,,78,127
16068,note_off,58,0,0,,6,,,78,127
16069,note_on,1,0,0,,4,,,76,127
16127,note_off,58,0,0,,4,,,76,127
16127,note_off,0,0,0,,7,,,67,127
16128,note_on,1,0,0,,3,,,75,127
16128,note_on,0,0,0,,6,,,66,127
16304,note_off,176,0,0,,6,,,66,127
16304,note_off,0,0,0,,3,,,75,127
16305,note_on,1,0,0,,4,,,76,127
16305,note_on,0,0,0,,7,,,67,127
16481,note_off,176,0,0,,7,,,67,127
16481,note_off,0,0,0,,4,,,76,127
16481,note_off,0,0,0,,12,,,59,127
16481,note_off,0,0,0,,12,,,71,127
16482,note_on,1,0,0,,12,,,71,127
16482,note_on,0,0,0,,6,,,78,127
16482,note_on,0,0,0,,12,,,59,127
16482,note_on,0,0,0,,3,,,63,127
16658,note_off,176,0,0,,3,,,63,127
16658,note_off,0,0,0,,6,,,78,127
16659,note_on,1,0,0,,7,,,79,127
16659,note_on,0,0,0,,4,,,64,127
16835,note_off,176,0,0,,4,,,64,127
16835,note_off,0,0,0,,7,,,79,127
16836,note_on,1,0,0,,6,,,78,127
16836,note_on,0,0,0,,6,,,66,127
17012,note_off,176,0,0,,6,,,66,127
17012,note_off,0,0,0,,6,,,78,127
17012,note_off,0,0,0,,12,,,59,127
17012,note_off,0,0,0,,12,,,71,127
17013,note_on,1,0,0,,4,,,76,127
17013,note_on,0,0,0,,12,,,71,127
17013,note_on,0,0,0,,7,,,67,127
17013,note_on,0,0,0,,12,,,59,127
17189,note_off,176,0,0,,7,,,67,127
17189,note_off,0,0,0,,4,,,76,127
17190,note_on,1,0,0,,3,,,75,127
17190,note_on,0,0,0,,6,,,66,127
17366,note_off,176,0,0,,6,,,66,127
17366,note_off,0,0,0,,3,,,75,127
17367,note_on,1,0,0,,4,,,76,127
17367,note_on,0,0,0,,7,,,67,127
17543,note_off,176,0,0,,7,,,67,127
17543,note_off,0,0,0,,4,,,76,127
17543,note_off,0,0,0,,12,,,59,127
17543,note_off,0,0,0,,12,,,71,127
17559,note_on,16,0,0,,4,,,64,127
17559,note_on,0,0,0,,8,,,68,127
17559,note_on,0,0,0,,12,,,83,127
17559,note_on,0,0,0,,4,,,76,127
17735,note_off,176,0,0,,12,,,83,127
17735,note_off,0,0,0,,8,,,68,127
17736,note_on,1,0,0,,10,,,69,127
17736,note_on,0,0,0,,0,,,84,127
17912,note_off,176,0,0,,0,,,84,127
17912,note_off,0,0,0,,10,,,69,127
17913,note_on,1,0,0,,12,,,71,127
17913,note_on,0,0,0,,12,,,83,127
18089,note_off,176,0,0,,12,,,71,127
18089,note_off,0,0,0,,4,,,76,127
18089,note_off,0,0,0,,4,,,64,127
18090,note_on,1,0,0,,10,,,81,127
18090,note_on,0,0,0,,0,,,72,127
18090,note_on,0,0,0,,4,,,64,127
18090,note_on,0,0,0,,4,,,76,127
18125,note_off,35,0,0,,12,,,83,127
18148,note_off,23,0,0,,10,,,81,127
18149,note_on,1,0,0,,12,,,83,127
18207,note_off,58,0,0,,12,,,83,127
18208,note_on,1,0,0,,10,,,81,127
18266,note_off,58,0,0,,10,,,81,127
18266,note_off,0,0,0,,0,,,72,127
18267,note_on,1,0,0,,12,,,71,127
18267,note_on,0,0,0,,8,,,80,127
18443,note_off,176,0,0,,8,,,80,127
18443,note_off,0,0,0,,12,,,71,127
18444,note_on,1,0,0,,0,,,72,127
18444,note_on,0,0,0,,10,,,81,127
18620,note_off,176,0,0,,10,,,81,127
18620,note_off,0,0,0,,0,,,72,127
18620,note_off,0,0,0,,4,,,76,127
18620,note_off,0,0,0,,4,,,64,127
18621,note_on,1,0,0,,4,,,64,127
18621,note_on,0,0,0,,8,,,68,127
18621,note_on,0,0,0,,12,,,83,127
18621,note_on,0,0,0,,4,,,76,127
18797,note_off,176,0,0,,12,,,83,127
18797,note_off,0,0,0,,8,,,68,127
18798,note_on,1,0,0,,10,,,69,127
18798,note_on,0,0,0,,0,,,84,127
18974,note_off,176,0,0,,0,,,84,127
18974,note_off,0,0,0,,10,,,69,127
18975,note_on,1,0,0,,12,,,71,127
18975,note_on,0,0,0,,12,,,83,127
19151,note_off,176,0,0,,12,,,71,127
19151,note_off,0,0,0,,4,,,76,127
19151,note_off,0,0,0,,4,,,64,127
19152,note_on,1,0,0,,10,,,81,127
19152,note_on,0,0,0,,4,,,64,127
19152,note_on,0,0,0,,0,,,72,127
19152,note_on,0,0,0,,4,,,76,127
19187,note_off,35,0,0,,12,,,83,127
19210,note_off,23,0,0,,10,,,81,127
19211,note_on,1,0,0,,12,,,83,127
19269,note_off,58,0,0,,12,,,83,127
19270,note_on,1,0,0,,10,,,81,127
19328,note_off,58,0,0,,10,,,81,127
19328,note_off,0,0,0,,0,,,72,127
19329,note_on,1,0,0,,12,,,71,127
19329,note_on,0,0,0,,8,,,80,127
19505,note_off,176,0,0,,8,,,80,127
19505,note_off,0,0,0,,12,,,71,127
19506,note_on,1,0,0,,0,,,72,127
19506,note_on,0,0,0,,10,,,81,127
19682,note_off,176,0,0,,0,,,72,127
19682,note_off,0,0,0,,4,,,76,127
19682,note_off,0,0,0,,4,,,64,127
19698,note_on,16,0,0,,12,,,71,127
19698,note_on,0,0,0,,4,,,64,127
19698,note_on,0,0,0,,7,,,79,127
19718,note_off,20,0,0,,10,,,81,127
19756,note_off,38,0,0,,7,,,79,127
19757,note_on,1,0,0,,10,,,81,127
19815,note_off,58,0,0,,10,,,81,127
19816,note_on,1,0,0,,7,,,79,127
19874,note_off,58,0,0,,7,,,79,127
19874,note_off,0,0,0,,12,,,71,127
19875,note_on,1,0,0,,6,,,78,127
19875,note_on,0,0,0,,10,,,69,127
20051,note_off,176,0,0,,10,,,69,127
20051,note_off,0,0,0,,6,,,78,127
20052,note_on,1,0,0,,7,,,79,127
20052,note_on,0,0,0,,12,,,71,127
20228,note_off,176,0,0,,12,,,71,127
20228,note_off,0,0,0,,7,,,79,127
20228,note_off,0,0,0,,4,,,64,127
20229,note_on,1,0,0,,10,,,81,127
20229,note_on,0,0,0,,4,,,64,127
20229,note_on,0,0,0,,0,,,72,127
20405,note_off,176,0,0,,0,,,72,127
20405,note_off,0,0,0,,10,,,81,127
20406,note_on,1,0,0,,7,,,79,127
20406,note_on,0,0,0,,12,,,71,127
20582,note_off,176,0,0,,12,,,71,127
20582,note_off,0,0,0,,7,,,79,127
20583,note_on,1,0,0,,10,,,81,127
20583,note_on,0,0,0,,0,,,72,127
20759,note_off,176,0,0,,0,,,72,127
20759,note_off,0,0,0,,4,,,64,127
20760,note_on,1,0,0,,4,,,64,127
20760,note_on,0,0,0,,12,,,71,127
20760,note_on,0,0,0,,7,,,79,127
20795,note_off,35,0,0,,10,,,81,127
20818,note_off,23,0,0,,7,,,79,127
20819,note_on,1,0,0,,10,,,81,127
20877,note_off,58,0,0,,10,,,81,127
20878,note_on,1,0,0,,7,,,79,127
20936,note_off,58,0,0,,7,,,79,127
20936,note_off,0,0,0,,12,,,71,127
20937,note_on,1,0,0,,6,,,78,127
20937,note_on,0,0,0,,10,,,69,127
21113,note_off,176,0,0,,10,,,69,127
21113,note_off,0,0,0,,6,,,78,127
21114,note_on,1,0,0,,7,,,79,127
21114,note_on,0,0,0,,12,,,71,127
21290,note_off,176,0,0,,12,,,71,127
21290,note_off,0,0,0,,7,,,79,127
21290,note_off,0,0,0,,4,,,64,127
21291,note_on,1,0,0,,10,,,81,127
21291,note_on,0,0,0,,0,,,72,127
21291,note_on,0,0,0,,0,,,60,127
21467,note_off,176,0,0,,0,,,72,127
21467,note_off,0,0,0,,10,,,81,127
21468,note_on,1,0,0,,7,,,79,127
21468,note_on,0,0,0,,12,,,71,127
21644,note_off,176,0,0,,12,,,71,127
21644,note_off,0,0,0,,7,,,79,127
21645,note_on,1,0,0,,6,,,78,127
21645,note_on,0,0,0,,10,,,69,127
21821,note_off,176,0,0,,10,,,69,127
21821,note_off,0,0,0,,0,,,60,127
21822,note_on,1,0,0,,0,,,60,127
21822,note_on,0,0,0,,7,,,67,127
21822,note_on,0,0,0,,4,,,76,127
21857,note_off,35,0,0,,6,,,78,127
21880,note_off,23,0,0,,4,,,76,127
21881,note_on,1,0,0,,6,,,78,127
21939,note_off,58,0,0,,6,,,78,127
21940,note_on,1,0,0,,4,,,76,127
21998,note_off,58,0,0,,4,,,76,127
21998,note_off,0,0,0,,7,,,67,127
21999,note_on,1,0,0,,3,,,75,127
21999,note_on,0,0,0,,6,,,66,127
22175,note_off,176,0,0,,6,,,66,127
22175,note_off,0,0,0,,3,,,75,127
22176,note_on,1,0,0,,4,,,76,127
22176,note_on,0,0,0,,7,,,67,127
22352,note_off,176,0,0,,7,,,67,127
22352,note_off,0,0,0,,4,,,76,127
22352,note_off,0,0,0,,0,,,60,127
22353,note_on,1,0,0,,10,,,81,127
22353,note_on,0,0,0,,0,,,60,127
22353,note_on,0,0,0,,0,,,72,127
22529,note_off,176,0,0,,0,,,72,127
22529,note_off,0,0,0,,10,,,81,127
22530,note_on,1,0,0,,7,,,79,127
22530,note_on,0,0,0,,12,,,71,127
22706,note_off,176,0,0,,12,,,71,127
22706,note_off,0,0,0,,7,,,79,127
22707,note_on,1,0,0,,6,,,78,127
22707,note_on,0,0,0,,10,,,69,127
22883,note_off,176,0,0,,10,,,69,127
22883,note_off,0,0,0,,0,,,60,127
22884,note_on,1,0,0,,0,,,60,127
22884,note_on,0,0,0,,7,,,67,127
22884,note_on,0,0,0,,4,,,76,127
22919,note_off,35,0,0,,6,,,78,127
22942,note_off,23,0,0,,4,,,76,127
22943,note_on,1,0,0,,6,,,78,127
23001,note_off,58,0,0,,6,,,78,127
23002,note_on,1,0,0,,4,,,76,127
23060,note_off,58,0,0,,4,,,76,127
23060,note_off,0,0,0,,7,,,67,127
23061,note_on,1,0,0,,3,,,75,127
23061,note_on,0,0,0,,6,,,66,127
23237,note_off,176,0,0,,6,,,66,127
23237,note_off,0,0,0,,3,,,75,127
23238,note_on,1,0,0,,4,,,76,127
23238,note_on,0,0,0,,7,,,67,127
23414,note_off,176,0,0,,7,,,67,127
23414,note_off,0,0,0,,4,,,76,127
23414,note_off,0,0,0,,0,,,60,127
23415,note_on,1,0,0,,3,,,75,127
23415,note_on,0,0,0,,6,,,66,127
23415,note_on,0,0,0,,12,,,59,127
23618,note_off,203,0,0,,3,,,75,127
23710,note_off,92,0,0,,6,,,66,127
23768,note_off,58,0,0,,12,,,59,127
23784,note_on,16,0,0,,8,,,56,127
23784,note_on,0,0,0,,12,,,83,127
23960,note_off,176,0,0,,12,,,83,127
23960,note_off,0,0,0,,8,,,56,127
23961,note_on,1,0,0,,10,,,57,127
23961,note_on,0,0,0,,1,,,85,127
24049,note_off,88,0,0,,1,,,85,127
24050,note_on,1,0,0,,12,,,83,127
24138,note_off,88,0,0,,12,,,83,127
24139,note_on,1,0,0,,10,,,81,127
24227,note_off,88,0,0,,10,,,81,127
24228,note_on,1,0,0,,8,,,80,127
24316,note_off,88,0,0,,8,,,80,127
24317,note_on,1,0,0,,10,,,45,127
24317,note_on,0,0,0,,6,,,78,127
24405,note_off,88,0,0,,6,,,78,127
24406,note_on,1,0,0,,4,,,76,127
24494,note_off,88,0,0,,4,,,76,127
24494,note_off,0,0,0,,10,,,45,127
24494,note_off,0,0,0,,10,,,57,127
24495,note_on,1,0,0,,12,,,47,127
24495,note_on,0,0,0,,3,,,75,127
24583,note_off,88,0,0,,3,,,75,127
24584,note_on,1,0,0,,1,,,73,127
24672,note_off,88,0,0,,1,,,73,127
24673,note_on,1,0,0,,12,,,71,127
24761,note_off,88,0,0,,12,,,71,127
24762,note_on,1,0,0,,10,,,69,127
24850,note_off,88,0,0,,10,,,69,127
24851,note_on,1,0,0,,8,,,68,127
24939,note_off,88,0,0,,8,,,68,127
24940,note_on,1,0,0,,6,,,66,127
25028,note_off,88,0,0,,6,,,66,127
25028,note_off,0,0,0,,12,,,47,127
25029,note_on,1,0,0,,1,,,49,127
25029,note_on,0,0,0,,4,,,64,127
25206,note_on,177,0,0,,4,,,76,127
25382,note_off,176,0,0,,4,,,76,127
25382,note_off,0,0,0,,4,,,64,127
25383,note_on,1,0,0,,11,,,70,127
25559,note_off,176,0,0,,11,,,70,127
25559,note_off,0,0,0,,1,,,49,127
25560,note_on,1,0,0,,12,,,47,127
25560,note_on,0,0,0,,12,,,71,127
25892,note_off,332,0,0,,12,,,47,127
25913,note_off,21,0,0,,12,,,71,127
25914,note_on,1,0,0,,8,,,56,127
25914,note_on,0,0,0,,12,,,83,127
26090,note_off,176,0,0,,12,,,83,127
26090,note_off,0,0,0,,8,,,56,127
26091,note_on,1,0,0,,10,,,57,127
26091,note_on,0,0,0,,1,,,85,127
26179,note_off,88,0,0,,1,,,85,127
26180,note_on,1,0,0,,12,,,83,127
26268,note_off,88,0,0,,12,,,83,127
26269,note_on,1,0,0,,10,,,81,127
26357,note_off,88,0,0,,10,,,81,127
26358,note_on,1,0,0,,8,,,80,127
26446,note_off,88,0,0,,8,,,80,127
26447,note_on,1,0,0,,10,,,45,127
26447,note_on,0,0,0,,6,,,78,127
26535,note_off,88,0,0,,6,,,78,127
26536,note_on,1,0,0,,4,,,76,127
26624,note_off,88,0,0,,4,,,76,127
26624,note_off,0,0,0,,10,,,45,127
26624,note_off,0,0,0,,10,,,57,127
26625,note_on,1,0,0,,12,,,47,127
26625,note_on,0,0,0,,3,,,75,127
26713,note_off,88,0,0,,3,,,75,127
26714,note_on,1,0,0,,1,,,73,127
26802,note_off,88,0,0,,1,,,73,127
26803,note_on,1,0,0,,12,,,71,127
26891,note_off,88,0,0,,12,,,71,127
26892,note_on,1,0,0,,10,,,69,127
26980,note_off,88,0,0,,10,,,69,127
26981,note_on,1,0,0,,8,,,68,127
27069,note_off,88,0,0,,8,,,68,127
27070,note_on,1,0,0,,6,,,66,127
27158,note_off,88,0,0,,6,,,66,127
27158,note_off,0,0,0,,12,,,47,127
27159,note_on,1,0,0,,1,,,49,127
27159,note_on,0,0,0,,4,,,64,127
27336,note_on,177,0,0,,4,,,76,127
27512,note_off,176,0,0,,4,,,76,127
27512,note_off,0,0,0,,4,,,64,127
27513,note_on,1,0,0,,11,,,70,127
27689,note_off,176,0,0,,11,,,70,127
27689,note_off,0,0,0,,1,,,49,127
27690,note_on,1,0,0,,12,,,47,127
27690,note_on,0,0,0,,12,,,71,127
27985,note_off,295,0,0,,12,,,71,127
28043,note_off,58,0,0,,12,,,47,127
28059,note_on,16,0,0,,12,,,71,127
28059,note_on,0,0,0,,12,,,59,127
28235,note_off,176,0,0,,12,,,59,127
28235,note_off,0,0,0,,12,,,71,127
28236,note_on,1,0,0,,4,,,76,127
28236,note_on,0,0,0,,1,,,61,127
28324,note_off,88,0,0,,1,,,61,127
28325,note_on,1,0,0,,12,,,59,127
28413,note_off,88,0,0,,12,,,59,127
28413,note_off,0,0,0,,4,,,76,127
28414,note_on,1,0,0,,3,,,75,127
28414,note_on,0,0,0,,10,,,57,127
28502,note_off,88,0,0,,10,,,57,127
28503,note_on,1,0,0,,8,,,56,127
28591,note_off,88,0,0,,8,,,56,127
28591,note_off,0,0,0,,3,,,75,127
28592,note_on,1,0,0,,4,,,76,127
28592,note_on,0,0,0,,6,,,54,127
28680,note_off,88,0,0,,6,,,54,127
28681,note_on,1,0,0,,4,,,52,127
28769,note_off,88,0,0,,4,,,52,127
28769,note_off,0,0,0,,4,,,76,127
28770,note_on,1,0,0,,6,,,78,127
28770,note_on,0,0,0,,3,,,51,127
28858,note_off,88,0,0,,3,,,51,127
28859,note_on,1,0,0,,1,,,49,127
28947,note_off,88,0,0,,1,,,49,127
28947,note_off,0,0,0,,6,,,78,127
28948,note_on,1,0,0,,8,,,80,127
28948,note_on,0,0,0,,12,,,47,127
29036,note_off,88,0,0,,12,,,47,127
29037,note_on,1,0,0,,10,,,45,127
29125,note_off,88,0,0,,10,,,45,127
29125,note_off,0,0,0,,8,,,80,127
29126,note_on,1,0,0,,10,,,81,127
29126,note_on,0,0,0,,8,,,44,127
29214,note_off,88,0,0,,8,,,44,127
29215,note_on,1,0,0,,6,,,42,127
29303,note_off,88,0,0,,6,,,42,127
29303,note_off,0,0,0,,10,,,81,127
29304,note_on,1,0,0,,8,,,80,127
29304,note_on,0,0,0,,4,,,40,127
29480,note_off,176,0,0,,4,,,40,127
29481,note_on,1,0,0,,10,,,45,127
29535,note_off,54,0,0,,8,,,80,127
29541,note_on,6,0,0,,6,,,78,127
29599,note_off,58,0,0,,6,,,78,127
29600,note_on,1,0,0,,8,,,80,127
29658,note_off,58,0,0,,8,,,80,127
29658,note_off,0,0,0,,10,,,45,127
29659,note_on,1,0,0,,12,,,47,127
29659,note_on,0,0,0,,6,,,78,127
29717,note_off,58,0,0,,6,,,78,127
29718,note_on,1,0,0,,4,,,76,127
29776,note_off,58,0,0,,4,,,76,127
29777,note_on,1,0,0,,6,,,78,127
29835,note_off,58,0,0,,6,,,78,127
29835,note_off,0,0,0,,12,,,47,127
29836,note_on,1,0,0,,4,,,76,127
29836,note_on,0,0,0,,4,,,40,127
30012,note_off,176,0,0,,4,,,76,127
30013,note_on,1,0,0,,12,,,83,127
30189,note_off,176,0,0,,12,,,83,127
30189,note_off,0,0,0,,4,,,40,127
30190,note_on,1,0,0,,12,,,71,127
30190,note_on,0,0,0,,12,,,59,127
30366,note_off,176,0,0,,12,,,59,127
30366,note_off,0,0,0,,12,,,71,127
30367,note_on,1,0,0,,4,,,76,127
30367,note_on,0,0,0,,1,,,61,127
30455,note_off,88,0,0,,1,,,61,127
30456,note_on,1,0,0,,12,,,59,127
30544,note_off,88,0,0,,12,,,59,127
30544,note_off,0,0,0,,4,,,76,127
30545,note_on,1,0,0,,3,,,75,127
30545,note_on,0,0,0,,10,,,57,127
30633,note_off,88,0,0,,10,,,57,127
30634,note_on,1,0,0,,8,,,56,127
30722,note_off,88,0,0,,8,,,56,127
30722,note_off,0,0,0,,3,,,75,127
30723,note_on,1,0,0,,4,,,76,127
30723,note_on,0,0,0,,6,,,54,127
30811,note_off,88,0,0,,6,,,54,127
30812,note_on,1,0,0,,4,,,52,127
30900,note_off,88,0,0,,4,,,52,127
30900,note_off,0,0,0,,4,,,76,127
30901,note_on,1,0,0,,6,,,78,127
30901,note_on,0,0,0,,3,,,51,127
30989,note_off,88,0,0,,3,,,51,127
30990,note_on,1,0,0,,1,,,49,127
31078,note_off,88,0,0,,1,,,49,127
31078,note_off,0,0,0,,6,,,78,127
31079,note_on,1,0,0,,8,,,80,127
31079,note_on,0,0,0,,12,,,47,127
31167,note_off,88,0,0,,12,,,47,127
31168,note_on,1,0,0,,10,,,45,127
31256,note_off,88,0,0,,10,,,45,127
31256,note_off,0,0,0,,8,,,80,127
31257,note_on,1,0,0,,10,,,81,127
31257,note_on,0,0,0,,8,,,44,127
31345,note_off,88,0,0,,8,,,44,127
31346,note_on,1,0,0,,6,,,42,127
31434,note_off,88,0,0,,6,,,42,127
31434,note_off,0,0,0,,10,,,81,127
31435,note_on,1,0,0,,8,,,80,127
31435,note_on,0,0,0,,4,,,40,127
31611,note_off,176,0,0,,4,,,40,127
31612,note_on,1,0,0,,10,,,45,127
31666,note_off,54,0,0,,8,,,80,127
31672,note_on,6,0,0,,6,,,78,127
31730,note_off,58,0,0,,6,,,78,127
31731,note_on,1,0,0,,8,,,80,127
31789,note_off,58,0,0,,8,,,80,127
31789,note_off,0,0,0,,10,,,45,127
31790,note_on,1,0,0,,12,,,47,127
31790,note_on,0,0,0,,6,,,78,127
31848,note_off,58,0,0,,6,,,78,127
31849,note_on,1,0,0,,4,,,76,127
31907,note_off,58,0,0,,4,,,76,127
31908,note_on,1,0,0,,6,,,78,127
31966,note_off,58,0,0,,6,,,78,127
31966,note_off,0,0,0,,12,,,47,127
31967,note_on,1,0,0,,4,,,76,127
31967,note_on,0,0,0,,4,,,40,127
32056,note_on,89,0,0,,12,,,83,127
32115,note_off,59,0,0,,4,,,76,127
32144,note_off,29,0,0,,12,,,83,127
32145,note_on,1,0,0,,8,,,80,127
32233,note_off,88,0,0,,8,,,80,127
32234,note_on,1,0,0,,4,,,76,127
32322,note_off,88,0,0,,4,,,76,127
32322,note_off,0,0,0,,4,,,40,127
32323,note_on,1,0,0,,12,,,71,127
32323,note_on,0,0,0,,8,,,44,127
32411,note_off,88,0,0,,12,,,71,127
32412,note_on,1,0,0,,8,,,68,127
32500,note_off,88,0,0,,8,,,68,127
32500,note_off,0,0,0,,8,,,44,127
32501,note_on,1,0,0,,4,,,64,127
32501,note_on,0,0,0,,10,,,45,127
32589,note_off,88,0,0,,4,,,64,127
32590,note_on,1,0,0,,1,,,73,127
32678,note_off,88,0,0,,1,,,73,127
32679,note_on,1,0,0,,12,,,71,127
32767,note_off,88,0,0,,12,,,71,127
32768,note_on,1,0,0,,10,,,69,127
32856,note_off,88,0,0,,10,,,69,127
32856,note_off,0,0,0,,10,,,45,127
32857,note_on,1,0,0,,8,,,68,127
32857,note_on,0,0,0,,12,,,47,127
32945,note_off,88,0,0,,8,,,68,127
32946,note_on,1,0,0,,6,,,66,127
33034,note_off,88,0,0,,6,,,66,127
33034,note_off,0,0,0,,12,,,47,127
33035,note_on,1,0,0,,4,,,64,127
33035,note_on,0,0,0,,4,,,40,127
33124,note_on,89,0,0,,12,,,71,127
33155,note_off,31,0,0,,4,,,64,127
33211,note_off,56,0,0,,12,,,71,127
33212,note_on,1,0,0,,8,,,68,127
33300,note_off,88,0,0,,8,,,68,127
33301,note_on,1,0,0,,4,,,64,127
33389,note_off,88,0,0,,4,,,64,127
33390,note_on,1,0,0,,12,,,59,127
33478,note_off,88,0,0,,12,,,59,127
33479,note_on,1,0,0,,8,,,56,127
33567,note_off,88,0,0,,8,,,56,127
33567,note_off,0,0,0,,4,,,40,127
33568,note_on,1,0,0,,4,,,52,127
33568,note_on,0,0,0,,10,,,33,127
33656,note_off,88,0,0,,4,,,52,127
33657,note_on,1,0,0,,1,,,61,127
33745,note_off,88,0,0,,1,,,61,127
33746,note_on,1,0,0,,12,,,59,127
33834,note_off,88,0,0,,12,,,59,127
33835,note_on,1,0,0,,10,,,57,127
33923,note_off,88,0,0,,10,,,57,127
33923,note_off,0,0,0,,10,,,33,127
33924,note_on,1,0,0,,8,,,56,127
33924,note_on,0,0,0,,12,,,35,127
34012,note_off,88,0,0,,8,,,56,127
34013,note_on,1,0,0,,6,,,54,127
34101,note_off,88,0,0,,6,,,54,127
34101,note_off,0,0,0,,12,,,35,127
34102,note_on,1,0,0,,4,,,52,127
34102,note_on,0,0,0,,4,,,40,127
34693,note_off,591,0,0,,4,,,40,127
34785,note_off,92,0,0,,4,,,52,127
34929,note_on,144,0,0,,4,,,52,127
35017,note_off,88,0,0,,4,,,52,127
35018,note_on,1,0,0,,8,,,56,127
35106,note_off,88,0,0,,8,,,56,127
35107,note_on,1,0,0,,12,,,59,127
35195,note_off,88,0,0,,12,,,59,127
35196,note_on,1,0,0,,4,,,64,127
35284,note_off,88,0,0,,4,,,64,127
35285,note_on,1,0,0,,8,,,68,127
35461,note_off,176,0,0,,8,,,68,127
35462,note_on,1,0,0,,10,,,69,127
35462,note_on,0,0,0,,10,,,57,127
35638,note_off,176,0,0,,10,,,69,127
35639,note_on,1,0,0,,6,,,66,127
35815,note_off,176,0,0,,6,,,66,127
35815,note_off,0,0,0,,10,,,57,127
35816,note_on,1,0,0,,12,,,59,127
35816,note_on,0,0,0,,3,,,63,127
35973,note_off,157,0,0,,3,,,63,127
35992,note_off,19,0,0,,12,,,59,127
35993,note_on,1,0,0,,4,,,40,127
36081,note_off,88,0,0,,4,,,40,127
36082,note_on,1,0,0,,8,,,44,127
36170,note_off,88,0,0,,8,,,44,127
36171,note_on,1,0,0,,12,,,47,127
36259,note_off,88,0,0,,12,,,47,127
36260,note_on,1,0,0,,4,,,52,127
36348,note_off,88,0,0,,4,,,52,127
36349,note_on,1,0,0,,8,,,56,127
36525,note_off,176,0,0,,8,,,56,127
36526,note_on,1,0,0,,10,,,57,127
36526,note_on,0,0,0,,10,,,45,127
36702,note_off,176,0,0,,10,,,57,127
36703,note_on,1,0,0,,6,,,54,127
36879,note_off,176,0,0,,6,,,54,127
36879,note_off,0,0,0,,10,,,45,127
36880,note_on,1,0,0,,3,,,51,127
36880,note_on,0,0,0,,12,,,47,127
37037,note_off,157,0,0,,3,,,51,127
37056,note_off,19,0,0,,12,,,47,127
37086,note_on,30,0,0,,4,,,52,127
37174,note_off,88,0,0,,4,,,52,127
37175,note_on,1,0,0,,7,,,55,127
37263,note_off,88,0,0,,7,,,55,127
37264,note_on,1,0,0,,12,,,59,127
37352,note_off,88,0,0,,12,,,59,127
37353,note_on,1,0,0,,4,,,64,127
37441,note_off,88,0,0,,4,,,64,127
37442,note_on,1,0,0,,7,,,67,127
37619,note_on,177,0,0,,1,,,73,127
37619,note_on,0,0,0,,10,,,57,127
37795,note_off,176,0,0,,1,,,73,127
37795,note_off,0,0,0,,7,,,67,127
37796,note_on,1,0,0,,2,,,74,127
37796,note_on,0,0,0,,6,,,66,127
37972,note_off,176,0,0,,6,,,66,127
37972,note_off,0,0,0,,2,,,74,127
37973,note_on,1,0,0,,4,,,76,127
37973,note_on,0,0,0,,4,,,64,127
38149,note_off,176,0,0,,4,,,64,127
38149,note_off,0,0,0,,4,,,76,127
38149,note_off,0,0,0,,10,,,57,127
38150,note_on,1,0,0,,4,,,76,127
38150,note_on,0,0,0,,2,,,50,127
38238,note_off,88,0,0,,2,,,50,127
38239,note_on,1,0,0,,5,,,53,127
38327,note_off,88,0,0,,5,,,53,127
38328,note_on,1,0,0,,10,,,57,127
38416,note_off,88,0,0,,10,,,57,127
38417,note_on,1,0,0,,2,,,62,127
38505,note_off,88,0,0,,2,,,62,127
38505,note_off,0,0,0,,4,,,76,127
38506,note_on,1,0,0,,5,,,77,127
38506,note_on,0,0,0,,5,,,65,127
38682,note_off,176,0,0,,5,,,77,127
38683,note_on,1,0,0,,12,,,71,127
38683,note_on,0,0,0,,7,,,55,127
38859,note_off,176,0,0,,12,,,71,127
38859,note_off,0,0,0,,5,,,65,127
38860,note_on,1,0,0,,0,,,72,127
38860,note_on,0,0,0,,4,,,64,127
39036,note_off,176,0,0,,4,,,64,127
39036,note_off,0,0,0,,0,,,72,127
39037,note_on,1,0,0,,2,,,74,127
39037,note_on,0,0,0,,2,,,62,127
39213,note_off,176,0,0,,2,,,62,127
39213,note_off,0,0,0,,2,,,74,127
39213,note_off,0,0,0,,7,,,55,127
39214,note_on,1,0,0,,2,,,74,127
39214,note_on,0,0,0,,0,,,48,127
39302,note_off,88,0,0,,0,,,48,127
39303,note_on,1,0,0,,4,,,52,127
39391,note_off,88,0,0,,4,,,52,127
39392,note_on,1,0,0,,7,,,55,127
39480,note_off,88,0,0,,7,,,55,127
39481,note_on,1,0,0,,0,,,60,127
39569,note_off,88,0,0,,0,,,60,127
39569,note_off,0,0,0,,2,,,74,127
39570,note_on,1,0,0,,4,,,76,127
39570,note_on,0,0,0,,4,,,64,127
39746,note_off,176,0,0,,4,,,76,127
39747,note_on,1,0,0,,10,,,69,127
39747,note_on,0,0,0,,5,,,53,127
39923,note_off,176,0,0,,10,,,69,127
39923,note_off,0,0,0,,4,,,64,127
39924,note_on,1,0,0,,12,,,71,127
39924,note_on,0,0,0,,2,,,62,127
40100,note_off,176,0,0,,2,,,62,127
40100,note_off,0,0,0,,12,,,71,127
40101,note_on,1,0,0,,0,,,72,127
40101,note_on,0,0,0,,0,,,60,127
40277,note_off,176,0,0,,0,,,60,127
40277,note_off,0,0,0,,0,,,72,127
40277,note_off,0,0,0,,5,,,53,127
40278,note_on,1,0,0,,0,,,72,127
40278,note_on,0,0,0,,12,,,47,127
40366,note_off,88,0,0,,12,,,47,127
40367,note_on,1,0,0,,2,,,50,127
40455,note_off,88,0,0,,2,,,50,127
40456,note_on,1,0,0,,5,,,53,127
40544,note_off,88,0,0,,5,,,53,127
40545,note_on,1,0,0,,12,,,59,127
40633,note_off,88,0,0,,12,,,59,127
40633,note_off,0,0,0,,0,,,72,127
40634,note_on,1,0,0,,2,,,74,127
40634,note_on,0,0,0,,2,,,62,127
40810,note_off,176,0,0,,2,,,74,127
40811,note_on,1,0,0,,8,,,68,127
40811,note_on,0,0,0,,4,,,52,127
40987,note_off,176,0,0,,8,,,68,127
40987,note_off,0,0,0,,2,,,62,127
40988,note_on,1,0,0,,10,,,69,127
40988,note_on,0,0,0,,0,,,60,127
41164,note_off,176,0,0,,0,,,60,127
41164,note_off,0,0,0,,10,,,69,127
41165,note_on,1,0,0,,12,,,71,127
41165,note_on,0,0,0,,12,,,59,127
41341,note_off,176,0,0,,12,,,59,127
41341,note_off,0,0,0,,12,,,71,127
41341,note_off,0,0,0,,4,,,52,127
41342,note_on,1,0,0,,0,,,72,127
41342,note_on,0,0,0,,10,,,57,127
41342,note_on,0,0,0,,10,,,45,127
41518,note_off,176,0,0,,10,,,45,127
41518,note_off,0,0,0,,0,,,72,127
41519,note_on,1,0,0,,2,,,74,127
41519,note_on,0,0,0,,12,,,47,127
41695,note_off,176,0,0,,12,,,47,127
41695,note_off,0,0,0,,2,,,74,127
41696,note_on,1,0,0,,4,,,76,127
41696,note_on,0,0,0,,0,,,48,127
41872,note_off,176,0,0,,0,,,48,127
41872,note_off,0,0,0,,4,,,76,127
41872,note_off,0,0,0,,10,,,57,127
41873,note_on,1,0,0,,7,,,67,127
41873,note_on,0,0,0,,2,,,50,127
41917,note_on,44,0,0,,5,,,65,127
41931,note_off,14,0,0,,7,,,67,127
41961,note_on,30,0,0,,7,,,67,127
41975,note_off,14,0,0,,5,,,65,127
42005,note_on,30,0,0,,5,,,65,127
42019,note_off,14,0,0,,7,,,67,127
42049,note_on,30,0,0,,4,,,64,127
42063,note_off,14,0,0,,5,,,65,127
42225,note_off,162,0,0,,4,,,64,127
42225,note_off,0,0,0,,2,,,50,127
42226,note_on,1,0,0,,5,,,65,127
42226,note_on,0,0,0,,10,,,69,127
42226,note_on,0,0,0,,2,,,38,127
42402,note_off,176,0,0,,2,,,38,127
42402,note_off,0,0,0,,10,,,69,127
42402,note_off,0,0,0,,5,,,65,127
42403,note_on,1,0,0,,4,,,64,127
42403,note_on,0,0,0,,8,,,68,127
42403,note_on,0,0,0,,4,,,40,127
42579,note_off,176,0,0,,8,,,68,127
42580,note_on,1,0,0,,10,,,69,127
42756,note_off,176,0,0,,10,,,69,127
42757,note_on,1,0,0,,8,,,68,127
42933,note_off,176,0,0,,8,,,68,127
42933,note_off,0,0,0,,4,,,40,127
42933,note_off,0,0,0,,4,,,64,127
42934,note_on,1,0,0,,7,,,67,127
42934,note_on,0,0,0,,10,,,69,127
42934,note_on,0,0,0,,2,,,38,127
42978,note_on,44,0,0,,5,,,65,127
42992,note_off,14,0,0,,7,,,67,127
43022,note_on,30,0,0,,7,,,67,127
43036,note_off,14,0,0,,5,,,65,127
43066,note_on,30,0,0,,5,,,65,127
43080,note_off,14,0,0,,7,,,67,127
43110,note_on,30,0,0,,4,,,64,127
43124,note_off,14,0,0,,5,,,65,127
43286,note_off,162,0,0,,4,,,64,127
43287,note_on,1,0,0,,5,,,65,127
43463,note_off,176,0,0,,5,,,65,127
43463,note_off,0,0,0,,2,,,38,127
43463,note_off,0,0,0,,10,,,69,127
43464,note_on,1,0,0,,8,,,68,127
43464,note_on,0,0,0,,4,,,64,127
43464,note_on,0,0,0,,4,,,40,127
43640,note_off,176,0,0,,8,,,68,127
43641,note_on,1,0,0,,10,,,69,127
43817,note_off,176,0,0,,10,,,69,127
43818,note_on,1,0,0,,8,,,68,127
43994,note_off,176,0,0,,8,,,68,127
43994,note_off,0,0,0,,4,,,40,127
43994,note_off,0,0,0,,4,,,64,127
43995,note_on,1,0,0,,10,,,69,127
43995,note_on,0,0,0,,7,,,67,127
43995,note_on,0,0,0,,2,,,38,127
44039,note_on,44,0,0,,5,,,65,127
44053,note_off,14,0,0,,7,,,67,127
44083,note_on,30,0,0,,7,,,67,127
44097,note_off,14,0,0,,5,,,65,127
44127,note_on,30,0,0,,5,,,65,127
44141,note_off,14,0,0,,7,,,67,127
44171,note_on,30,0,0,,4,,,64,127
44185,note_off,14,0,0,,5,,,65,127
44347,note_off,162,0,0,,4,,,64,127
44348,note_on,1,0,0,,5,,,65,127
44524,note_off,176,0,0,,5,,,65,127
44524,note_off,0,0,0,,2,,,38,127
44524,note_off,0,0,0,,10,,,69,127
44529,note_on,5,0,0,,4,,,40,127
44529,note_on,0,0,0,,4,,,64,127
44529,note_on,0,0,0,,8,,,68,127
45415,note_off,886,0,0,,8,,,68,127
45415,note_off,0,0,0,,4,,,64,127
45415,note_off,0,0,0,,4,,,40,127
45781,note_on,366,0,0,,5,,,77,127
45781,note_on,0,0,0,,7,,,67,127
45781,note_on,0,0,0,,0,,,60,127
45825,note_on,44,0,0,,4,,,76,127
45839,note_off,14,0,0,,5,,,77,127
45869,note_on,30,0,0,,5,,,77,127
45883,note_off,14,0,0,,4,,,76,127
45913,note_on,30,0,0,,4,,,76,127
45927,note_off,14,0,0,,5,,,77,127
45957,note_off,30,0,0,,7,,,67,127
45958,note_on,1,0,0,,2,,,74,127
45958,note_on,0,0,0,,5,,,65,127
45972,note_off,14,0,0,,4,,,76,127
46134,note_off,162,0,0,,5,,,65,127
46134,note_off,0,0,0,,2,,,74,127
46135,note_on,1,0,0,,4,,,76,127
46135,note_on,0,0,0,,7,,,67,127
46311,note_off,176,0,0,,7,,,67,127
46311,note_off,0,0,0,,4,,,76,127
46311,note_off,0,0,0,,0,,,60,127
46312,note_on,1,0,0,,5,,,77,127
46312,note_on,0,0,0,,10,,,69,127
46312,note_on,0,0,0,,0,,,60,127
46488,note_off,176,0,0,,10,,,69,127
46488,note_off,0,0,0,,5,,,77,127
46489,note_on,1,0,0,,2,,,74,127
46489,note_on,0,0,0,,5,,,65,127
46665,note_off,176,0,0,,5,,,65,127
46665,note_off,0,0,0,,2,,,74,127
46666,note_on,1,0,0,,7,,,79,127
46666,note_on,0,0,0,,12,,,71,127
46842,note_off,176,0,0,,12,,,71,127
46842,note_off,0,0,0,,7,,,79,127
46842,note_off,0,0,0,,0,,,60,127
46843,note_on,1,0,0,,5,,,77,127
46843,note_on,0,0,0,,0,,,60,127
46843,note_on,0,0,0,,0,,,72,127
46887,note_on,44,0,0,,4,,,76,127
46901,note_off,14,0,0,,5,,,77,127
46931,note_on,30,0,0,,5,,,77,127
46945,note_off,14,0,0,,4,,,76,127
46975,note_on,30,0,0,,4,,,76,127
46989,note_off,14,0,0,,5,,,77,127
47019,note_on,30,0,0,,2,,,74,127
47033,note_off,14,0,0,,4,,,76,127
47195,note_off,162,0,0,,2,,,74,127
47196,note_on,1,0,0,,4,,,76,127
47372,note_off,176,0,0,,4,,,76,127
47372,note_off,0,0,0,,0,,,72,127
47372,note_off,0,0,0,,0,,,60,127
47373,note_on,1,0,0,,5,,,77,127
47373,note_on,0,0,0,,10,,,69,127
47373,note_on,0,0,0,,0,,,60,127
47549,note_off,176,0,0,,10,,,69,127
47549,note_off,0,0,0,,5,,,77,127
47550,note_on,1,0,0,,2,,,74,127
47550,note_on,0,0,0,,5,,,65,127
47726,note_off,176,0,0,,5,,,65,127
47726,note_off,0,0,0,,2,,,74,127
47727,note_on,1,0,0,,7,,,79,127
47727,note_on,0,0,0,,12,,,71,127
47903,note_off,176,0,0,,12,,,71,127
47903,note_off,0,0,0,,7,,,79,127
47903,note_off,0,0,0,,0,,,60,127
47919,note_on,16,0,0,,0,,,72,127
47919,note_on,0,0,0,,4,,,76,127
48095,note_off,176,0,0,,4,,,76,127
48096,note_on,1,0,0,,5,,,77,127
48272,note_off,176,0,0,,5,,,77,127
48272,note_off,0,0,0,,0,,,72,127
48273,note_on,1,0,0,,11,,,70,127
48273,note_on,0,0,0,,7,,,79,127
48273,note_on,0,0,0,,2,,,74,127
48449,note_off,176,0,0,,2,,,74,127
48449,note_off,0,0,0,,11,,,70,127
48450,note_on,1,0,0,,10,,,69,127
48450,note_on,0,0,0,,1,,,73,127
48626,note_off,176,0,0,,7,,,79,127
48627,note_on,1,0,0,,10,,,81,127
48715,note_off,88,0,0,,10,,,81,127
48716,note_on,1,0,0,,7,,,79,127
48804,note_off,88,0,0,,7,,,79,127
48804,note_off,0,0,0,,10,,,69,127
48805,note_on,1,0,0,,10,,,57,127
48805,note_on,0,0,0,,5,,,77,127
48893,note_off,88,0,0,,5,,,77,127
48894,note_on,1,0,0,,4,,,76,127
48982,note_off,88,0,0,,4,,,76,127
48982,note_off,0,0,0,,10,,,57,127
48982,note_off,0,0,0,,1,,,73,127
48998,note_on,16,0,0,,7,,,79,127
48998,note_on,0,0,0,,10,,,69,127
48998,note_on,0,0,0,,2,,,62,127
49042,note_on,44,0,0,,5,,,77,127
49056,note_off,14,0,0,,7,,,79,127
49086,note_on,30,0,0,,7,,,79,127
49100,note_off,14,0,0,,5,,,77,127
49130,note_on,30,0,0,,5,,,77,127
49144,note_off,14,0,0,,7,,,79,127
49174,note_off,30,0,0,,10,,,69,127
49175,note_on,1,0,0,,4,,,76,127
49175,note_on,0,0,0,,7,,,67,127
49189,note_off,14,0,0,,5,,,77,127
49351,note_off,162,0,0,,7,,,67,127
49351,note_off,0,0,0,,4,,,76,127
49352,note_on,1,0,0,,5,,,77,127
49352,note_on,0,0,0,,10,,,69,127
49528,note_off,176,0,0,,10,,,69,127
49528,note_off,0,0,0,,5,,,77,127
49528,note_off,0,0,0,,2,,,62,127
49529,note_on,1,0,0,,7,,,79,127
49529,note_on,0,0,0,,2,,,62,127
49529,note_on,0,0,0,,11,,,70,127
49705,note_off,176,0,0,,11,,,70,127
49705,note_off,0,0,0,,7,,,79,127
49706,note_on,1,0,0,,4,,,76,127
49706,note_on,0,0,0,,7,,,67,127
49882,note_off,176,0,0,,7,,,67,127
49882,note_off,0,0,0,,4,,,76,127
49883,note_on,1,0,0,,10,,,81,127
49883,note_on,0,0,0,,1,,,73,127
50059,note_off,176,0,0,,1,,,73,127
50059,note_off,0,0,0,,10,,,81,127
50059,note_off,0,0,0,,2,,,62,127
50060,note_on,1,0,0,,7,,,79,127
50060,note_on,0,0,0,,2,,,74,127
50060,note_on,0,0,0,,2,,,62,127
50104,note_on,44,0,0,,5,,,77,127
50118,note_off,14,0,0,,7,,,79,127
50148,note_on,30,0,0,,7,,,79,127
50162,note_off,14,0,0,,5,,,77,127
50192,note_on,30,0,0,,5,,,77,127
50206,note_off,14,0,0,,7,,,79,127
50236,note_on,30,0,0,,4,,,76,127
50250,note_off,14,0,0,,5,,,77,127
50412,note_off,162,0,0,,4,,,76,127
50413,note_on,1,0,0,,5,,,77,127
50589,note_off,176,0,0,,5,,,77,127
50589,note_off,0,0,0,,2,,,62,127
50589,note_off,0,0,0,,2,,,74,127
50590,note_on,1,0,0,,7,,,79,127
50590,note_on,0,0,0,,11,,,70,127
50590,note_on,0,0,0,,2,,,62,127
50766,note_off,176,0,0,,11,,,70,127
50766,note_off,0,0,0,,7,,,79,127
50767,note_on,1,0,0,,4,,,76,127
50767,note_on,0,0,0,,7,,,67,127
50943,note_off,176,0,0,,7,,,67,127
50943,note_off,0,0,0,,4,,,76,127
50944,note_on,1,0,0,,1,,,73,127
50946,note_on,2,0,0,,10,,,81,127
51120,note_off,174,0,0,,1,,,73,127
51120,note_off,0,0,0,,2,,,62,127
51122,note_off,2,0,0,,10,,,81,127
51134,note_on,12,0,0,,2,,,62,127
51134,note_on,0,0,0,,2,,,74,127
51134,note_on,0,0,0,,5,,,77,127
51319,note_off,185,0,0,,5,,,77,127
51328,note_on,9,0,0,,2,,,86,127
51504,note_off,176,0,0,,2,,,86,127
51505,note_on,1,0,0,,10,,,81,127
51665,note_off,160,0,0,,2,,,74,127
51665,note_off,0,0,0,,2,,,62,127
51682,note_off,17,0,0,,10,,,81,127
51683,note_on,1,0,0,,8,,,80,127
51683,note_on,0,0,0,,2,,,62,127
51683,note_on,0,0,0,,4,,,52,127
51859,note_off,176,0,0,,8,,,80,127
51860,note_on,1,0,0,,12,,,83,127
52036,note_off,176,0,0,,12,,,83,127
52037,note_on,1,0,0,,2,,,74,127
52213,note_off,176,0,0,,2,,,74,127
52213,note_off,0,0,0,,4,,,52,127
52213,note_off,0,0,0,,2,,,62,127
52214,note_on,1,0,0,,0,,,72,127
52214,note_on,0,0,0,,4,,,64,127
52214,note_on,0,0,0,,10,,,57,127
52390,note_off,176,0,0,,0,,,72,127
52391,note_on,1,0,0,,4,,,76,127
52567,note_off,176,0,0,,4,,,76,127
52568,note_on,1,0,0,,7,,,67,127
52744,note_off,176,0,0,,7,,,67,127
52744,note_off,0,0,0,,10,,,57,127
52744,note_off,0,0,0,,4,,,64,127
52745,note_on,1,0,0,,5,,,65,127
52745,note_on,0,0,0,,2,,,62,127
52745,note_on,0,0,0,,2,,,50,127
52921,note_off,176,0,0,,5,,,65,127
52922,note_on,1,0,0,,2,,,74,127
53098,note_off,176,0,0,,2,,,74,127
53099,note_on,1,0,0,,10,,,69,127
53275,note_off,176,0,0,,10,,,69,127
53275,note_off,0,0,0,,2,,,50,127
53275,note_off,0,0,0,,2,,,62,127
53276,note_on,1,0,0,,8,,,68,127
53276,note_on,0,0,0,,2,,,62,127
53276,note_on,0,0,0,,4,,,52,127
53452,note_off,176,0,0,,8,,,68,127
53453,note_on,1,0,0,,12,,,71,127
53629,note_off,176,0,0,,12,,,71,127
53629,note_off,0,0,0,,2,,,62,127
53630,note_on,1,0,0,,2,,,62,127
53806,note_off,176,0,0,,2,,,62,127
53806,note_off,0,0,0,,4,,,52,127
53807,note_on,1,0,0,,0,,,60,127
53807,note_on,0,0,0,,4,,,64,127
53807,note_on,0,0,0,,4,,,52,127
53807,note_on,0,0,0,,4,,,40,127
53983,note_off,176,0,0,,4,,,64,127
53983,note_off,0,0,0,,0,,,60,127
53984,note_on,1,0,0,,5,,,65,127
54160,note_off,176,0,0,,5,,,65,127
54161,note_on,1,0,0,,10,,,57,127
54337,note_off,176,0,0,,10,,,57,127
54337,note_off,0,0,0,,4,,,40,127
54337,note_off,0,0,0,,4,,,52,127
54338,note_on,1,0,0,,4,,,40,127
54338,note_on,0,0,0,,10,,,57,127
54389,note_on,51,0,0,,8,,,56,127
54405,note_off,16,0,0,,10,,,57,127
54440,note_on,35,0,0,,10,,,57,127
54456,note_off,16,0,0,,8,,,56,127
54491,note_on,35,0,0,,8,,,56,127
54507,note_off,16,0,0,,10,,,57,127
54801,note_off,294,0,0,,4,,,40,127
54861,note_off,60,0,0,,8,,,56,127
55078,note_on,217,0,0,,1,,,49,127
55078,note_on,0,0,0,,4,,,76,127
55254,note_off,176,0,0,,4,,,76,127
55254,note_off,0,0,0,,1,,,49,127
55255,note_on,1,0,0,,2,,,50,127
55255,note_on,0,0,0,,6,,,78,127
55343,note_off,88,0,0,,6,,,78,127
55344,note_on,1,0,0,,4,,,76,127
55432,note_off,88,0,0,,4,,,76,127
55433,note_on,1,0,0,,2,,,74,127
55521,note_off,88,0,0,,2,,,74,127
55522,note_on,1,0,0,,1,,,73,127
55610,note_off,88,0,0,,1,,,73,127
55610,note_off,0,0,0,,2,,,50,127
55611,note_on,1,0,0,,2,,,38,127
55611,note_on,0,0,0,,12,,,71,127
55699,note_off,88,0,0,,12,,,71,127
55700,note_on,1,0,0,,10,,,69,127
55788,note_off,88,0,0,,10,,,69,127
55788,note_off,0,0,0,,2,,,38,127
55789,note_on,1,0,0,,4,,,40,127
55789,note_on,0,0,0,,8,,,68,127
55877,note_off,88,0,0,,8,,,68,127
55878,note_on,1,0,0,,6,,,66,127
55966,note_off,88,0,0,,6,,,66,127
55967,note_on,1,0,0,,4,,,64,127
56055,note_off,88,0,0,,4,,,64,127
56056,note_on,1,0,0,,2,,,62,127
56144,note_off,88,0,0,,2,,,62,127
56145,note_on,1,0,0,,1,,,61,127
56233,note_off,88,0,0,,1,,,61,127
56234,note_on,1,0,0,,12,,,59,127
56322,note_off,88,0,0,,12,,,59,127
56322,note_off,0,0,0,,4,,,40,127
56323,note_on,1,0,0,,6,,,42,127
56323,note_on,0,0,0,,10,,,57,127
56500,note_on,177,0,0,,10,,,69,127
56676,note_off,176,0,0,,10,,,69,127
56676,note_off,0,0,0,,10,,,57,127
56677,note_on,1,0,0,,3,,,63,127
56853,note_off,176,0,0,,3,,,63,127
56853,note_off,0,0,0,,6,,,42,127
56854,note_on,1,0,0,,4,,,40,127
56854,note_on,0,0,0,,4,,,64,127
57168,note_off,314,0,0,,4,,,40,127
57208,note_off,40,0,0,,4,,,64,127
57224,note_on,16,0,0,,4,,,88,127
57224,note_on,0,0,0,,1,,,49,127
57400,note_off,176,0,0,,1,,,49,127
57400,note_off,0,0,0,,4,,,88,127
57401,note_on,1,0,0,,6,,,90,127
57401,note_on,0,0,0,,2,,,50,127
57489,note_off,88,0,0,,6,,,90,127
57490,note_on,1,0,0,,4,,,88,127
57578,note_off,88,0,0,,4,,,88,127
57579,note_on,1,0,0,,2,,,86,127
57667,note_off,88,0,0,,2,,,86,127
57668,note_on,1,0,0,,1,,,85,127
57756,note_off,88,0,0,,1,,,85,127
57756,note_off,0,0,0,,2,,,50,127
57757,note_on,1,0,0,,12,,,83,127
57757,note_on,0,0,0,,2,,,38,127
57845,note_off,88,0,0,,12,,,83,127
57846,note_on,1,0,0,,10,,,81,127
57934,note_off,88,0,0,,10,,,81,127
57934,note_off,0,0,0,,2,,,38,127
57935,note_on,1,0,0,,8,,,80,127
57935,note_on,0,0,0,,4,,,40,127
58023,note_off,88,0,0,,8,,,80,127
58024,note_on,1,0,0,,6,,,78,127
58112,note_off,88,0,0,,6,,,78,127
58113,note_on,1,0,0,,4,,,76,127
58201,note_off,88,0,0,,4,,,76,127
58202,note_on,1,0,0,,2,,,74,127
58290,note_off,88,0,0,,2,,,74,127
58291,note_on,1,0,0,,1,,,73,127
58379,note_off,88,0,0,,1,,,73,127
58380,note_on,1,0,0,,12,,,71,127
58468,note_off,88,0,0,,12,,,71,127
58468,note_off,0,0,0,,4,,,40,127
58469,note_on,1,0,0,,10,,,69,127
58469,note_on,0,0,0,,6,,,42,127
58646,note_on,177,0,0,,10,,,81,127
58822,note_off,176,0,0,,10,,,81,127
58822,note_off,0,0,0,,10,,,69,127
58823,note_on,1,0,0,,3,,,75,127
58999,note_off,176,0,0,,3,,,75,127
58999,note_off,0,0,0,,6,,,42,127
59000,note_on,1,0,0,,4,,,76,127
59000,note_on,0,0,0,,4,,,40,127
59295,note_off,295,0,0,,4,,,76,127
59353,note_off,58,0,0,,4,,,40,127
59369,note_on,16,0,0,,4,,,64,127
59369,note_on,0,0,0,,4,,,76,127
59545,note_off,176,0,0,,4,,,76,127
59545,note_off,0,0,0,,4,,,64,127
59546,note_on,1,0,0,,6,,,66,127
59546,note_on,0,0,0,,10,,,81,127
59634,note_off,88,0,0,,6,,,66,127
59635,note_on,1,0,0,,4,,,64,127
59723,note_off,88,0,0,,4,,,64,127
59723,note_off,0,0,0,,10,,,81,127
59724,note_on,1,0,0,,2,,,62,127
59724,note_on,0,0,0,,8,,,80,127
59812,note_off,88,0,0,,2,,,62,127
59813,note_on,1,0,0,,1,,,61,127
59901,note_off,88,0,0,,1,,,61,127
59901,note_off,0,0,0,,8,,,80,127
59902,note_on,1,0,0,,12,,,59,127
59902,note_on,0,0,0,,10,,,81,127
59990,note_off,88,0,0,,12,,,59,127
59991,note_on,1,0,0,,10,,,57,127
60079,note_off,88,0,0,,10,,,57,127
60079,note_off,0,0,0,,10,,,81,127
60080,note_on,1,0,0,,8,,,56,127
60080,note_on,0,0,0,,12,,,83,127
60168,note_off,88,0,0,,8,,,56,127
60169,note_on,1,0,0,,6,,,54,127
60257,note_off,88,0,0,,6,,,54,127
60257,note_off,0,0,0,,12,,,83,127
60258,note_on,1,0,0,,4,,,52,127
60258,note_on,0,0,0,,1,,,85,127
60346,note_off,88,0,0,,4,,,52,127
60347,note_on,1,0,0,,2,,,50,127
60435,note_off,88,0,0,,2,,,50,127
60435,note_off,0,0,0,,1,,,85,127
60436,note_on,1,0,0,,1,,,49,127
60436,note_on,0,0,0,,2,,,86,127
60524,note_off,88,0,0,,1,,,49,127
60525,note_on,1,0,0,,12,,,47,127
60613,note_off,88,0,0,,12,,,47,127
60613,note_off,0,0,0,,2,,,86,127
60614,note_on,1,0,0,,10,,,45,127
60614,note_on,0,0,0,,1,,,85,127
60790,note_off,176,0,0,,10,,,45,127
60791,note_on,1,0,0,,2,,,38,127
60845,note_off,54,0,0,,1,,,85,127
60851,note_on,6,0,0,,12,,,83,127
60909,note_off,58,0,0,,12,,,83,127
60910,note_on,1,0,0,,1,,,85,127
60968,note_off,58,0,0,,1,,,85,127
60968,note_off,0,0,0,,2,,,38,127
60969,note_on,1,0,0,,12,,,83,127
60969,note_on,0,0,0,,4,,,40,127
61027,note_off,58,0,0,,12,,,83,127
61028,note_on,1,0,0,,10,,,81,127
61086,note_off,58,0,0,,10,,,81,127
61087,note_on,1,0,0,,12,,,83,127
61145,note_off,58,0,0,,12,,,83,127
61145,note_off,0,0,0,,4,,,40,127
61146,note_on,1,0,0,,10,,,33,127
61146,note_on,0,0,0,,10,,,81,127
61322,note_off,176,0,0,,10,,,81,127
61323,note_on,1,0,0,,4,,,88,127
61499,note_off,176,0,0,,4,,,88,127
61499,note_off,0,0,0,,10,,,33,127
61515,note_on,16,0,0,,4,,,76,127
61515,note_on,0,0,0,,4,,,64,127
61691,note_off,176,0,0,,4,,,64,127
61691,note_off,0,0,0,,4,,,76,127
61692,note_on,1,0,0,,10,,,81,127
61692,note_on,0,0,0,,6,,,66,127
61780,note_off,88,0,0,,6,,,66,127
61781,note_on,1,0,0,,4,,,64,127
61869,note_off,88,0,0,,4,,,64,127
61869,note_off,0,0,0,,10,,,81,127
61870,note_on,1,0,0,,8,,,80,127
61870,note_on,0,0,0,,2,,,62,127
61958,note_off,88,0,0,,2,,,62,127
61959,note_on,1,0,0,,1,,,61,127
62047,note_off,88,0,0,,1,,,61,127
62047,note_off,0,0,0,,8,,,80,127
62048,note_on,1,0,0,,10,,,81,127
62048,note_on,0,0,0,,12,,,59,127
62136,note_off,88,0,0,,12,,,59,127
62137,note_on,1,0,0,,10,,,57,127
62225,note_off,88,0,0,,10,,,57,127
62225,note_off,0,0,0,,10,,,81,127
62226,note_on,1,0,0,,12,,,83,127
62226,note_on,0,0,0,,8,,,56,127
62314,note_off,88,0,0,,8,,,56,127
62315,note_on,1,0,0,,6,,,54,127
62403,note_off,88,0,0,,6,,,54,127
62403,note_off,0,0,0,,12,,,83,127
62404,note_on,1,0,0,,1,,,85,127
62404,note_on,0,0,0,,4,,,52,127
62492,note_off,88,0,0,,4,,,52,127
62493,note_on,1,0,0,,2,,,50,127
62581,note_off,88,0,0,,2,,,50,127
62581,note_off,0,0,0,,1,,,85,127
62582,note_on,1,0,0,,2,,,86,127
62582,note_on,0,0,0,,1,,,49,127
62670,note_off,88,0,0,,1,,,49,127
62671,note_on,1,0,0,,12,,,47,127
62759,note_off,88,0,0,,12,,,47,127
62759,note_off,0,0,0,,2,,,86,127
62760,note_on,1,0,0,,1,,,85,127
62760,note_on,0,0,0,,10,,,45,127
62936,note_off,176,0,0,,10,,,45,127
62937,note_on,1,0,0,,2,,,38,127
62991,note_off,54,0,0,,1,,,85,127
62997,note_on,6,0,0,,12,,,83,127
63055,note_off,58,0,0,,12,,,83,127
63056,note_on,1,0,0,,1,,,85,127
63114,note_off,58,0,0,,1,,,85,127
63114,note_off,0,0,0,,2,,,38,127
63115,note_on,1,0,0,,4,,,40,127
63115,note_on,0,0,0,,12,,,83,127
63173,note_off,58,0,0,,12,,,83,127
63174,note_on,1,0,0,,10,,,81,127
63232,note_off,58,0,0,,10,,,81,127
63233,note_on,1,0,0,,12,,,83,127
63291,note_off,58,0,0,,12,,,83,127
63291,note_off,0,0,0,,4,,,40,127
63292,note_on,1,0,0,,10,,,81,127
63292,note_on,0,0,0,,10,,,33,127
63380,note_off,88,0,0,,10,,,81,127
63381,note_on,1,0,0,,4,,,88,127
63469,note_off,88,0,0,,4,,,88,127
63470,note_on,1,0,0,,1,,,85,127
63558,note_off,88,0,0,,1,,,85,127
63559,note_on,1,0,0,,10,,,81,127
63647,note_off,88,0,0,,10,,,81,127
63647,note_off,0,0,0,,10,,,33,127
63648,note_on,1,0,0,,4,,,76,127
63648,note_on,0,0,0,,1,,,37,127
63736,note_off,88,0,0,,4,,,76,127
63737,note_on,1,0,0,,1,,,73,127
63825,note_off,88,0,0,,1,,,73,127
63825,note_off,0,0,0,,1,,,37,127
63826,note_on,1,0,0,,10,,,69,127
63826,note_on,0,0,0,,2,,,38,127
63914,note_off,88,0,0,,10,,,69,127
63915,note_on,1,0,0,,6,,,78,127
64003,note_off,88,0,0,,6,,,78,127
64004,note_on,1,0,0,,4,,,76,127
64092,note_off,88,0,0,,4,,,76,127
64093,note_on,1,0,0,,2,,,74,127
64181,note_off,88,0,0,,2,,,74,127
64181,note_off,0,0,0,,2,,,38,127
64182,note_on,1,0,0,,1,,,73,127
64182,note_on,0,0,0,,4,,,40,127
64270,note_off,88,0,0,,1,,,73,127
64271,note_on,1,0,0,,12,,,71,127
64359,note_off,88,0,0,,12,,,71,127
64359,note_off,0,0,0,,4,,,40,127
64360,note_on,1,0,0,,10,,,69,127
64360,note_on,0,0,0,,10,,,33,127
64448,note_off,88,0,0,,10,,,69,127
64449,note_on,1,0,0,,4,,,76,127
64537,note_off,88,0,0,,4,,,76,127
64538,note_on,1,0,0,,1,,,73,127
64626,note_off,88,0,0,,1,,,73,127
64627,note_on,1,0,0,,10,,,69,127
64715,note_off,88,0,0,,10,,,69,127
64715,note_off,0,0,0,,10,,,33,127
64716,note_on,1,0,0,,4,,,64,127
64716,note_on,0,0,0,,1,,,37,127
64804,note_off,88,0,0,,4,,,64,127
64805,note_on,1,0,0,,1,,,61,127
64893,note_off,88,0,0,,1,,,61,127
64893,note_off,0,0,0,,1,,,37,127
64894,note_on,1,0,0,,10,,,57,127
64894,note_on,0,0,0,,2,,,38,127
64982,note_off,88,0,0,,10,,,57,127
64983,note_on,1,0,0,,6,,,66,127
65071,note_off,88,0,0,,6,,,66,127
65072,note_on,1,0,0,,4,,,64,127
65160,note_off,88,0,0,,4,,,64,127
65161,note_on,1,0,0,,2,,,62,127
65249,note_off,88,0,0,,2,,,62,127
65249,note_off,0,0,0,,2,,,38,127
65250,note_on,1,0,0,,1,,,61,127
65250,note_on,0,0,0,,4,,,40,127
65338,note_off,88,0,0,,1,,,61,127
65339,note_on,1,0,0,,12,,,59,127
65427,note_off,88,0,0,,12,,,59,127
65427,note_off,0,0,0,,4,,,40,127
65428,note_on,1,0,0,,10,,,57,127
65428,note_on,0,0,0,,10,,,33,127
65516,note_off,88,0,0,,10,,,57,127
65517,note_on,1,0,0,,4,,,64,127
65605,note_off,88,0,0,,4,,,64,127
65606,note_on,1,0,0,,1,,,61,127
65694,note_off,88,0,0,,1,,,61,127
65695,note_on,1,0,0,,10,,,57,127
65783,note_off,88,0,0,,10,,,57,127
65783,note_off,0,0,0,,10,,,33,127
65784,note_on,1,0,0,,4,,,52,127
65784,note_on,0,0,0,,1,,,37,127
65872,note_off,88,0,0,,4,,,52,127
65873,note_on,1,0,0,,1,,,49,127
65961,note_off,88,0,0,,1,,,49,127
65961,note_off,0,0,0,,1,,,37,127
65962,note_on,1,0,0,,10,,,45,127
65962,note_on,0,0,0,,2,,,38,127
66050,note_off,88,0,0,,10,,,45,127
66051,note_on,1,0,0,,6,,,54,127
66139,note_off,88,0,0,,6,,,54,127
66140,note_on,1,0,0,,4,,,52,127
66228,note_off,88,0,0,,4,,,52,127
66229,note_on,1,0,0,,2,,,50,127
66317,note_off,88,0,0,,2,,,50,127
66317,note_off,0,0,0,,2,,,38,127
66318,note_on,1,0,0,,1,,,49,127
66318,note_on,0,0,0,,4,,,40,127
66406,note_off,88,0,0,,1,,,49,127
66407,note_on,1,0,0,,12,,,47,127
66495,note_off,88,0,0,,12,,,47,127
66495,note_off,0,0,0,,4,,,40,127
66496,note_on,1,0,0,,10,,,33,127
66496,note_on,0,0,0,,10,,,45,127
67914,note_off,1418,0,0,,10,,,45,127
67914,note_off,0,0,0,,10,,,33,127
73728,end_of_track,5814,1,0,,,,,,
