tick,type,time,meta,track,program,channel,pitch,tempo,note,velocity
0,copyright,0,1,0,,,,,,
0,program_change,0,0,0,6,0,,,,
0,pitchwheel,0,0,0,,0,0,,,
0,program_change,0,0,0,6,1,,,,
0,pitchwheel,0,0,0,,1,-590,,,
0,program_change,0,0,0,6,2,,,,
0,pitchwheel,0,0,0,,2,-272,,,
0,program_change,0,0,0,6,3,,,,
0,pitchwheel,0,0,0,,3,-353,,,
0,program_change,0,0,0,6,4,,,,
0,pitchwheel,0,0,0,,4,-560,,,
0,program_change,0,0,0,6,5,,,,
0,pitchwheel,0,0,0,,5,-80,,,
0,program_change,0,0,0,6,6,,,,
0,pitchwheel,0,0,0,,6,-625,,,
0,program_change,0,0,0,6,7,,,,
0,pitchwheel,0,0,0,,7,-130,,,
0,program_change,0,0,0,6,8,,,,
0,pitchwheel,0,0,0,,8,-512,,,
0,program_change,0,0,0,6,10,,,,
0,pitchwheel,0,0,0,,10,-464,,,
0,program_change,0,0,0,6,11,,,,
0,pitchwheel,0,0,0,,11,-208,,,
0,program_change,0,0,0,6,12,,,,
0,pitchwheel,0,0,0,,12,-553,,,
0,set_tempo,0,1,0,,,,500000,,
100,note_on,100,0,0,,2,,,62,127
100,note_on,0,0,0,,2,,,74,127
199,note_off,99,0,0,,2,,,74,127
200,note_on,1,0,0,,6,,,78,127
299,note_off,99,0,0,,6,,,78,127
300,note_on,1,0,0,,2,,,74,127
499,note_off,199,0,0,,2,,,74,127
499,note_off,0,0,0,,2,,,62,127
500,note_on,1,0,0,,6,,,66,127
500,note_on,0,0,0,,2,,,62,127
500,note_on,0,0,0,,10,,,69,127
699,note_off,199,0,0,,10,,,69,127
699,note_off,0,0,0,,2,,,62,127
699,note_off,0,0,0,,6,,,66,127
700,note_on,1,0,0,,2,,,62,127
700,note_on,0,0,0,,7,,,67,127
700,note_on,0,0,0,,12,,,71,127
899,note_off,199,0,0,,12,,,71,127
899,note_off,0,0,0,,7,,,67,127
899,note_off,0,0,0,,2,,,62,127
900,note_on,1,0,0,,7,,,67,127
900,note_on,0,0,0,,2,,,62,127
900,note_on,0,0,0,,1,,,73,127
1099,note_off,199,0,0,,1,,,73,127
1099,note_off,0,0,0,,2,,,62,127
1099,note_off,0,0,0,,7,,,67,127
1100,note_on,1,0,0,,7,,,67,127
1100,note_on,0,0,0,,2,,,62,127
1100,note_on,0,0,0,,2,,,74,127
1299,note_off,199,0,0,,2,,,74,127
1299,note_off,0,0,0,,2,,,62,127
1299,note_off,0,0,0,,7,,,67,127
1300,note_on,1,0,0,,2,,,62,127
1300,note_on,0,0,0,,6,,,66,127
1300,note_on,0,0,0,,10,,,69,127
1400,note_on,100,0,0,,10,,,81,127
1498,note_off,98,0,0,,10,,,69,127
1499,note_off,1,0,0,,10,,,81,127
1500,note_on,1,0,0,,10,,,69,127
1699,note_off,199,0,0,,6,,,66,127
1699,note_off,0,0,0,,2,,,62,127
1700,note_on,1,0,0,,6,,,66,127
1700,note_on,0,0,0,,2,,,62,127
1899,note_off,199,0,0,,2,,,62,127
1899,note_off,0,0,0,,6,,,66,127
1899,note_off,0,0,0,,10,,,69,127
1900,note_on,1,0,0,,4,,,64,127
1900,note_on,0,0,0,,10,,,57,127
1900,note_on,0,0,0,,10,,,69,127
1999,note_off,99,0,0,,10,,,69,127
2000,note_on,1,0,0,,7,,,67,127
2099,note_off,99,0,0,,7,,,67,127
2099,note_off,0,0,0,,10,,,57,127
2099,note_off,0,0,0,,4,,,64,127
2100,note_on,1,0,0,,2,,,62,127
2100,note_on,0,0,0,,10,,,57,127
2100,note_on,0,0,0,,6,,,66,127
2299,note_off,199,0,0,,6,,,66,127
2299,note_off,0,0,0,,10,,,57,127
2299,note_off,0,0,0,,2,,,62,127
2300,note_on,1,0,0,,1,,,61,127
2300,note_on,0,0,0,,10,,,57,127
2300,note_on,0,0,0,,4,,,64,127
2467,note_off,167,0,0,,4,,,64,127
2499,note_off,32,0,0,,10,,,57,127
2499,note_off,0,0,0,,1,,,61,127
2500,note_on,1,0,0,,2,,,50,127
2500,note_on,0,0,0,,2,,,62,127
2500,note_on,0,0,0,,2,,,74,127
2599,note_off,99,0,0,,2,,,74,127
2600,note_on,1,0,0,,6,,,78,127
2699,note_off,99,0,0,,6,,,78,127
2700,note_on,1,0,0,,2,,,74,127
2899,note_off,199,0,0,,2,,,74,127
2899,note_off,0,0,0,,2,,,62,127
2899,note_off,0,0,0,,2,,,50,127
2900,note_on,1,0,0,,6,,,66,127
2900,note_on,0,0,0,,2,,,62,127
2900,note_on,0,0,0,,10,,,69,127
3099,note_off,199,0,0,,10,,,69,127
3099,note_off,0,0,0,,2,,,62,127
3099,note_off,0,0,0,,6,,,66,127
3100,note_on,1,0,0,,2,,,62,127
3100,note_on,0,0,0,,7,,,67,127
3100,note_on,0,0,0,,12,,,71,127
3299,note_off,199,0,0,,12,,,71,127
3299,note_off,0,0,0,,7,,,67,127
3299,note_off,0,0,0,,2,,,62,127
3300,note_on,1,0,0,,7,,,67,127
3300,note_on,0,0,0,,2,,,62,127
3300,note_on,0,0,0,,1,,,73,127
3499,note_off,199,0,0,,1,,,73,127
3499,note_off,0,0,0,,2,,,62,127
3499,note_off,0,0,0,,7,,,67,127
3500,note_on,1,0,0,,2,,,62,127
3500,note_on,0,0,0,,7,,,67,127
3500,note_on,0,0,0,,2,,,74,127
3699,note_off,199,0,0,,2,,,74,127
3699,note_off,0,0,0,,7,,,67,127
3699,note_off,0,0,0,,2,,,62,127
3700,note_on,1,0,0,,2,,,62,127
3700,note_on,0,0,0,,6,,,66,127
3700,note_on,0,0,0,,10,,,69,127
3800,note_on,100,0,0,,10,,,81,127
3898,note_off,98,0,0,,10,,,69,127
3899,note_off,1,0,0,,10,,,81,127
3900,note_on,1,0,0,,10,,,69,127
4099,note_off,199,0,0,,6,,,66,127
4099,note_off,0,0,0,,2,,,62,127
4100,note_on,1,0,0,,6,,,66,127
4100,note_on,0,0,0,,2,,,62,127
4299,note_off,199,0,0,,2,,,62,127
4299,note_off,0,0,0,,6,,,66,127
4299,note_off,0,0,0,,10,,,69,127
4300,note_on,1,0,0,,4,,,64,127
4300,note_on,0,0,0,,10,,,57,127
4300,note_on,0,0,0,,10,,,69,127
4399,note_off,99,0,0,,10,,,69,127
4400,note_on,1,0,0,,7,,,67,127
4499,note_off,99,0,0,,7,,,67,127
4499,note_off,0,0,0,,10,,,57,127
4499,note_off,0,0,0,,4,,,64,127
4500,note_on,1,0,0,,2,,,62,127
4500,note_on,0,0,0,,10,,,57,127
4500,note_on,0,0,0,,6,,,66,127
4699,note_off,199,0,0,,6,,,66,127
4699,note_off,0,0,0,,10,,,57,127
4699,note_off,0,0,0,,2,,,62,127
4700,note_on,1,0,0,,1,,,61,127
4700,note_on,0,0,0,,10,,,57,127
4700,note_on,0,0,0,,4,,,64,127
4899,note_off,199,0,0,,4,,,64,127
4899,note_off,0,0,0,,10,,,57,127
4899,note_off,0,0,0,,1,,,61,127
4900,note_on,1,0,0,,2,,,50,127
4900,note_on,0,0,0,,2,,,62,127
4900,note_on,0,0,0,,6,,,66,127
5099,note_off,199,0,0,,6,,,66,127
5100,note_on,1,0,0,,10,,,69,127
5299,note_off,199,0,0,,10,,,69,127
5299,note_off,0,0,0,,2,,,62,127
5299,note_off,0,0,0,,2,,,50,127
5300,note_on,1,0,0,,2,,,50,127
5300,note_on,0,0,0,,2,,,74,127
5499,note_off,199,0,0,,2,,,74,127
5499,note_off,0,0,0,,2,,,50,127
5500,note_on,1,0,0,,10,,,45,127
5500,note_on,0,0,0,,2,,,74,127
5699,note_off,199,0,0,,2,,,74,127
5699,note_off,0,0,0,,10,,,45,127
5700,note_on,1,0,0,,10,,,57,127
5700,note_on,0,0,0,,1,,,73,127
5899,note_off,199,0,0,,10,,,57,127
5900,note_on,1,0,0,,1,,,61,127
5900,note_on,0,0,0,,7,,,67,127
6000,note_off,100,0,0,,1,,,73,127
6099,note_off,99,0,0,,7,,,67,127
6099,note_off,0,0,0,,1,,,61,127
6100,note_on,1,0,0,,2,,,62,127
6100,note_on,0,0,0,,10,,,69,127
6199,note_off,99,0,0,,10,,,69,127
6200,note_on,1,0,0,,7,,,67,127
6299,note_off,99,0,0,,7,,,67,127
6300,note_on,1,0,0,,6,,,66,127
6499,note_off,199,0,0,,6,,,66,127
6499,note_off,0,0,0,,2,,,62,127
6500,note_on,1,0,0,,2,,,50,127
6500,note_on,0,0,0,,6,,,78,127
6500,note_on,0,0,0,,2,,,74,127
6699,note_off,199,0,0,,2,,,74,127
6699,note_off,0,0,0,,6,,,78,127
6699,note_off,0,0,0,,2,,,50,127
6700,note_on,1,0,0,,10,,,45,127
6700,note_on,0,0,0,,2,,,74,127
6700,note_on,0,0,0,,6,,,78,127
6899,note_off,199,0,0,,6,,,78,127
6899,note_off,0,0,0,,2,,,74,127
6899,note_off,0,0,0,,10,,,45,127
6900,note_on,1,0,0,,10,,,57,127
6900,note_on,0,0,0,,4,,,76,127
6900,note_on,0,0,0,,1,,,73,127
7099,note_off,199,0,0,,1,,,73,127
7099,note_off,0,0,0,,10,,,57,127
7100,note_on,1,0,0,,1,,,61,127
7100,note_on,0,0,0,,7,,,67,127
7200,note_off,100,0,0,,4,,,76,127
7299,note_off,99,0,0,,7,,,67,127
7299,note_off,0,0,0,,1,,,61,127
7300,note_on,1,0,0,,2,,,62,127
7300,note_on,0,0,0,,10,,,69,127
7399,note_off,99,0,0,,10,,,69,127
7400,note_on,1,0,0,,7,,,67,127
7499,note_off,99,0,0,,7,,,67,127
7500,note_on,1,0,0,,6,,,66,127
7699,note_off,199,0,0,,6,,,66,127
7699,note_off,0,0,0,,2,,,62,127
7700,note_on,1,0,0,,2,,,50,127
7700,note_on,0,0,0,,6,,,78,127
7700,note_on,0,0,0,,10,,,81,127
7899,note_off,199,0,0,,10,,,81,127
7899,note_off,0,0,0,,6,,,78,127
7899,note_off,0,0,0,,2,,,50,127
7900,note_on,1,0,0,,10,,,45,127
7900,note_on,0,0,0,,6,,,78,127
7900,note_on,0,0,0,,10,,,81,127
8099,note_off,199,0,0,,10,,,81,127
8099,note_off,0,0,0,,6,,,78,127
8099,note_off,0,0,0,,10,,,45,127
8100,note_on,1,0,0,,10,,,57,127
8100,note_on,0,0,0,,4,,,76,127
8100,note_on,0,0,0,,7,,,79,127
8299,note_off,199,0,0,,4,,,76,127
8299,note_off,0,0,0,,10,,,57,127
8300,note_on,1,0,0,,1,,,61,127
8300,note_on,0,0,0,,7,,,67,127
8400,note_off,100,0,0,,7,,,79,127
8499,note_off,99,0,0,,7,,,67,127
8499,note_off,0,0,0,,1,,,61,127
8500,note_on,1,0,0,,2,,,62,127
8500,note_on,0,0,0,,10,,,69,127
8599,note_off,99,0,0,,10,,,69,127
8600,note_on,1,0,0,,7,,,67,127
8699,note_off,99,0,0,,7,,,67,127
8700,note_on,1,0,0,,6,,,66,127
8899,note_off,199,0,0,,6,,,66,127
8899,note_off,0,0,0,,2,,,62,127
8900,note_on,1,0,0,,2,,,62,127
8900,note_on,0,0,0,,6,,,78,127
9099,note_off,199,0,0,,6,,,78,127
9099,note_off,0,0,0,,2,,,62,127
9100,note_on,1,0,0,,1,,,61,127
9100,note_on,0,0,0,,6,,,78,127
9299,note_off,199,0,0,,6,,,78,127
9300,note_on,1,0,0,,4,,,76,127
9499,note_off,199,0,0,,1,,,61,127
9500,note_on,1,0,0,,6,,,66,127
9500,note_on,0,0,0,,10,,,69,127
9600,note_off,100,0,0,,4,,,76,127
9699,note_off,99,0,0,,10,,,69,127
9699,note_off,0,0,0,,6,,,66,127
9700,note_on,1,0,0,,12,,,59,127
9700,note_on,0,0,0,,12,,,71,127
9799,note_off,99,0,0,,12,,,71,127
9800,note_on,1,0,0,,10,,,69,127
9899,note_off,99,0,0,,10,,,69,127
9900,note_on,1,0,0,,8,,,68,127
10099,note_off,199,0,0,,8,,,68,127
10099,note_off,0,0,0,,12,,,59,127
10100,note_on,1,0,0,,4,,,64,127
10100,note_on,0,0,0,,2,,,74,127
10299,note_off,199,0,0,,2,,,74,127
10299,note_off,0,0,0,,4,,,64,127
10300,note_on,1,0,0,,10,,,57,127
10300,note_on,0,0,0,,2,,,74,127
10499,note_off,199,0,0,,2,,,74,127
10500,note_on,1,0,0,,1,,,73,127
10699,note_off,199,0,0,,1,,,73,127
10699,note_off,0,0,0,,10,,,57,127
10700,note_on,1,0,0,,3,,,63,127
10700,note_on,0,0,0,,1,,,73,127
10700,note_on,0,0,0,,10,,,69,127
10899,note_off,199,0,0,,10,,,69,127
10899,note_off,0,0,0,,1,,,73,127
10899,note_off,0,0,0,,3,,,63,127
10900,note_on,1,0,0,,4,,,64,127
10900,note_on,0,0,0,,10,,,69,127
10900,note_on,0,0,0,,1,,,73,127
11099,note_off,199,0,0,,1,,,73,127
11099,note_off,0,0,0,,10,,,69,127
11100,note_on,1,0,0,,12,,,71,127
11100,note_on,0,0,0,,8,,,68,127
11277,note_off,177,0,0,,8,,,68,127
11277,note_off,0,0,0,,12,,,71,127
11299,note_off,22,0,0,,4,,,64,127
11300,note_on,1,0,0,,4,,,40,127
11300,note_on,0,0,0,,4,,,52,127
11300,note_on,0,0,0,,4,,,64,127
11499,note_off,199,0,0,,4,,,64,127
11499,note_off,0,0,0,,4,,,52,127
11499,note_off,0,0,0,,4,,,40,127
11500,note_on,1,0,0,,1,,,37,127
11500,note_on,0,0,0,,1,,,49,127
11500,note_on,0,0,0,,1,,,61,127
11700,note_on,200,0,0,,1,,,73,127
11800,note_off,100,0,0,,1,,,61,127
11800,note_off,0,0,0,,1,,,49,127
11800,note_off,0,0,0,,1,,,37,127
11899,note_off,99,0,0,,1,,,73,127
11900,note_on,1,0,0,,4,,,76,127
11900,note_on,0,0,0,,1,,,73,127
12099,note_off,199,0,0,,1,,,73,127
12099,note_off,0,0,0,,4,,,76,127
12100,note_on,1,0,0,,4,,,76,127
12100,note_on,0,0,0,,1,,,73,127
12299,note_off,199,0,0,,1,,,73,127
12299,note_off,0,0,0,,4,,,76,127
12300,note_on,1,0,0,,2,,,74,127
12300,note_on,0,0,0,,12,,,71,127
12499,note_off,199,0,0,,12,,,71,127
12499,note_off,0,0,0,,2,,,74,127
12500,note_on,1,0,0,,4,,,40,127
12500,note_on,0,0,0,,4,,,52,127
12500,note_on,0,0,0,,4,,,64,127
12699,note_off,199,0,0,,4,,,64,127
12699,note_off,0,0,0,,4,,,52,127
12699,note_off,0,0,0,,4,,,40,127
12700,note_on,1,0,0,,1,,,37,127
12700,note_on,0,0,0,,1,,,49,127
12700,note_on,0,0,0,,1,,,61,127
12900,note_on,200,0,0,,4,,,76,127
12950,note_off,50,0,0,,1,,,61,127
12950,note_off,0,0,0,,1,,,49,127
12950,note_off,0,0,0,,1,,,37,127
13099,note_off,149,0,0,,4,,,76,127
13100,note_on,1,0,0,,1,,,73,127
13100,note_on,0,0,0,,10,,,81,127
13299,note_off,199,0,0,,10,,,81,127
13299,note_off,0,0,0,,1,,,73,127
13300,note_on,1,0,0,,1,,,73,127
13300,note_on,0,0,0,,10,,,81,127
13499,note_off,199,0,0,,10,,,81,127
13499,note_off,0,0,0,,1,,,73,127
13500,note_on,1,0,0,,12,,,71,127
13500,note_on,0,0,0,,8,,,80,127
13699,note_off,199,0,0,,8,,,80,127
13699,note_off,0,0,0,,12,,,71,127
13700,note_on,1,0,0,,4,,,40,127
13700,note_on,0,0,0,,4,,,52,127
13700,note_on,0,0,0,,4,,,64,127
13899,note_off,199,0,0,,4,,,64,127
13899,note_off,0,0,0,,4,,,52,127
13899,note_off,0,0,0,,4,,,40,127
13900,note_on,1,0,0,,1,,,37,127
13900,note_on,0,0,0,,1,,,49,127
13900,note_on,0,0,0,,1,,,61,127
14098,note_off,198,0,0,,1,,,49,127
14098,note_off,0,0,0,,1,,,37,127
14099,note_off,1,0,0,,1,,,61,127
14100,note_on,1,0,0,,10,,,81,127
14299,note_off,199,0,0,,10,,,81,127
14300,note_on,1,0,0,,10,,,81,127
14300,note_on,0,0,0,,1,,,85,127
14499,note_off,199,0,0,,1,,,85,127
14499,note_off,0,0,0,,10,,,81,127
14500,note_on,1,0,0,,1,,,85,127
14500,note_on,0,0,0,,10,,,81,127
14699,note_off,199,0,0,,10,,,81,127
14699,note_off,0,0,0,,1,,,85,127
14700,note_on,1,0,0,,8,,,80,127
14700,note_on,0,0,0,,12,,,83,127
14899,note_off,199,0,0,,12,,,83,127
14899,note_off,0,0,0,,8,,,80,127
14900,note_on,1,0,0,,4,,,40,127
14900,note_on,0,0,0,,4,,,52,127
14900,note_on,0,0,0,,4,,,64,127
15099,note_off,199,0,0,,4,,,64,127
15099,note_off,0,0,0,,4,,,52,127
15099,note_off,0,0,0,,4,,,40,127
15100,note_on,1,0,0,,1,,,49,127
15100,note_on,0,0,0,,1,,,37,127
15100,note_on,0,0,0,,1,,,61,127
15299,note_off,199,0,0,,1,,,61,127
15300,note_on,1,0,0,,4,,,64,127
15499,note_off,199,0,0,,1,,,37,127
15499,note_off,0,0,0,,1,,,49,127
15500,note_on,1,0,0,,1,,,37,127
15500,note_on,0,0,0,,1,,,49,127
15500,note_on,0,0,0,,4,,,76,127
15696,note_off,196,0,0,,4,,,64,127
15699,note_off,3,0,0,,1,,,49,127
15699,note_off,0,0,0,,1,,,37,127
15700,note_on,1,0,0,,2,,,38,127
15700,note_on,0,0,0,,2,,,50,127
15700,note_on,0,0,0,,6,,,66,127
15896,note_off,196,0,0,,4,,,76,127
15900,note_on,4,0,0,,2,,,74,127
16096,note_off,196,0,0,,6,,,66,127
16099,note_off,3,0,0,,2,,,50,127
16099,note_off,0,0,0,,2,,,38,127
16100,note_on,1,0,0,,4,,,40,127
16100,note_on,0,0,0,,4,,,52,127
16100,note_on,0,0,0,,8,,,68,127
16299,note_off,199,0,0,,8,,,68,127
16299,note_off,0,0,0,,4,,,52,127
16299,note_off,0,0,0,,4,,,40,127
16300,note_on,1,0,0,,6,,,54,127
16300,note_on,0,0,0,,6,,,42,127
16300,note_on,0,0,0,,10,,,69,127
16395,note_off,95,0,0,,2,,,74,127
16400,note_on,5,0,0,,10,,,81,127
16498,note_off,98,0,0,,10,,,69,127
16499,note_off,1,0,0,,10,,,81,127
16499,note_off,0,0,0,,6,,,42,127
16499,note_off,0,0,0,,6,,,54,127
16500,note_on,1,0,0,,4,,,40,127
16500,note_on,0,0,0,,4,,,52,127
16500,note_on,0,0,0,,10,,,69,127
16699,note_off,199,0,0,,4,,,52,127
16699,note_off,0,0,0,,4,,,40,127
16700,note_on,1,0,0,,2,,,38,127
16700,note_on,0,0,0,,2,,,50,127
16899,note_off,199,0,0,,2,,,50,127
16899,note_off,0,0,0,,2,,,38,127
16900,note_on,1,0,0,,4,,,40,127
16900,note_on,0,0,0,,4,,,52,127
17099,note_off,199,0,0,,10,,,69,127
17100,note_on,1,0,0,,10,,,69,127
17100,note_on,0,0,0,,1,,,73,127
17299,note_off,199,0,0,,1,,,73,127
17299,note_off,0,0,0,,10,,,69,127
17299,note_off,0,0,0,,4,,,52,127
17299,note_off,0,0,0,,4,,,40,127
17300,note_on,1,0,0,,4,,,40,127
17300,note_on,0,0,0,,4,,,52,127
17300,note_on,0,0,0,,8,,,68,127
17300,note_on,0,0,0,,12,,,71,127
17499,note_off,199,0,0,,12,,,71,127
17499,note_off,0,0,0,,8,,,68,127
17499,note_off,0,0,0,,4,,,52,127
17499,note_off,0,0,0,,4,,,40,127
17500,note_on,1,0,0,,10,,,45,127
17500,note_on,0,0,0,,10,,,69,127
17677,note_off,177,0,0,,10,,,69,127
17700,note_on,23,0,0,,4,,,64,127
17896,note_off,196,0,0,,10,,,45,127
17899,note_off,3,0,0,,4,,,64,127
17900,note_on,1,0,0,,1,,,73,127
17900,note_on,0,0,0,,10,,,69,127
18099,note_off,199,0,0,,10,,,69,127
18099,note_off,0,0,0,,1,,,73,127
18100,note_on,1,0,0,,10,,,69,127
18100,note_on,0,0,0,,1,,,73,127
18299,note_off,199,0,0,,1,,,73,127
18299,note_off,0,0,0,,10,,,69,127
18300,note_on,1,0,0,,8,,,68,127
18300,note_on,0,0,0,,12,,,71,127
18499,note_off,199,0,0,,12,,,71,127
18499,note_off,0,0,0,,8,,,68,127
18500,note_on,1,0,0,,4,,,40,127
18500,note_on,0,0,0,,4,,,52,127
18500,note_on,0,0,0,,4,,,64,127
18699,note_off,199,0,0,,4,,,64,127
18699,note_off,0,0,0,,4,,,52,127
18699,note_off,0,0,0,,4,,,40,127
18700,note_on,1,0,0,,1,,,49,127
18700,note_on,0,0,0,,1,,,37,127
18700,note_on,0,0,0,,1,,,61,127
18900,note_on,200,0,0,,1,,,73,127
19000,note_off,100,0,0,,1,,,61,127
19000,note_off,0,0,0,,1,,,37,127
19000,note_off,0,0,0,,1,,,49,127
19099,note_off,99,0,0,,1,,,73,127
19100,note_on,1,0,0,,4,,,76,127
19100,note_on,0,0,0,,1,,,73,127
19299,note_off,199,0,0,,1,,,73,127
19299,note_off,0,0,0,,4,,,76,127
19300,note_on,1,0,0,,4,,,76,127
19300,note_on,0,0,0,,1,,,73,127
19499,note_off,199,0,0,,1,,,73,127
19499,note_off,0,0,0,,4,,,76,127
19500,note_on,1,0,0,,12,,,71,127
19500,note_on,0,0,0,,2,,,74,127
19699,note_off,199,0,0,,2,,,74,127
19699,note_off,0,0,0,,12,,,71,127
19700,note_on,1,0,0,,4,,,40,127
19700,note_on,0,0,0,,4,,,52,127
19700,note_on,0,0,0,,4,,,64,127
19899,note_off,199,0,0,,4,,,64,127
19899,note_off,0,0,0,,4,,,52,127
19899,note_off,0,0,0,,4,,,40,127
19900,note_on,1,0,0,,1,,,37,127
19900,note_on,0,0,0,,1,,,49,127
19900,note_on,0,0,0,,1,,,61,127
20100,note_on,200,0,0,,4,,,76,127
20150,note_off,50,0,0,,1,,,61,127
20150,note_off,0,0,0,,1,,,49,127
20150,note_off,0,0,0,,1,,,37,127
20299,note_off,149,0,0,,4,,,76,127
20300,note_on,1,0,0,,1,,,73,127
20300,note_on,0,0,0,,10,,,81,127
20499,note_off,199,0,0,,10,,,81,127
20499,note_off,0,0,0,,1,,,73,127
20500,note_on,1,0,0,,1,,,73,127
20500,note_on,0,0,0,,10,,,81,127
20699,note_off,199,0,0,,10,,,81,127
20699,note_off,0,0,0,,1,,,73,127
20700,note_on,1,0,0,,12,,,71,127
20700,note_on,0,0,0,,8,,,80,127
20899,note_off,199,0,0,,8,,,80,127
20899,note_off,0,0,0,,12,,,71,127
20900,note_on,1,0,0,,4,,,40,127
20900,note_on,0,0,0,,4,,,52,127
20900,note_on,0,0,0,,4,,,64,127
21099,note_off,199,0,0,,4,,,64,127
21099,note_off,0,0,0,,4,,,52,127
21099,note_off,0,0,0,,4,,,40,127
21100,note_on,1,0,0,,1,,,37,127
21100,note_on,0,0,0,,1,,,49,127
21100,note_on,0,0,0,,1,,,61,127
21298,note_off,198,0,0,,1,,,49,127
21298,note_off,0,0,0,,1,,,37,127
21299,note_off,1,0,0,,1,,,61,127
21300,note_on,1,0,0,,10,,,81,127
21499,note_off,199,0,0,,10,,,81,127
21500,note_on,1,0,0,,10,,,81,127
21500,note_on,0,0,0,,1,,,85,127
21699,note_off,199,0,0,,1,,,85,127
21699,note_off,0,0,0,,10,,,81,127
21700,note_on,1,0,0,,1,,,85,127
21700,note_on,0,0,0,,10,,,81,127
21899,note_off,199,0,0,,10,,,81,127
21899,note_off,0,0,0,,1,,,85,127
21900,note_on,1,0,0,,8,,,80,127
21900,note_on,0,0,0,,12,,,83,127
22099,note_off,199,0,0,,12,,,83,127
22099,note_off,0,0,0,,8,,,80,127
22100,note_on,1,0,0,,4,,,40,127
22100,note_on,0,0,0,,4,,,52,127
22100,note_on,0,0,0,,4,,,64,127
22299,note_off,199,0,0,,4,,,64,127
22299,note_off,0,0,0,,4,,,52,127
22299,note_off,0,0,0,,4,,,40,127
22300,note_on,1,0,0,,1,,,49,127
22300,note_on,0,0,0,,1,,,37,127
22300,note_on,0,0,0,,1,,,61,127
22499,note_off,199,0,0,,1,,,61,127
22500,note_on,1,0,0,,4,,,64,127
22699,note_off,199,0,0,,1,,,37,127
22699,note_off,0,0,0,,1,,,49,127
22700,note_on,1,0,0,,1,,,37,127
22700,note_on,0,0,0,,1,,,49,127
22700,note_on,0,0,0,,4,,,76,127
22896,note_off,196,0,0,,4,,,64,127
22899,note_off,3,0,0,,1,,,49,127
22899,note_off,0,0,0,,1,,,37,127
22900,note_on,1,0,0,,2,,,38,127
22900,note_on,0,0,0,,2,,,50,127
22900,note_on,0,0,0,,6,,,66,127
23096,note_off,196,0,0,,4,,,76,127
23100,note_on,4,0,0,,2,,,74,127
23296,note_off,196,0,0,,6,,,66,127
23299,note_off,3,0,0,,2,,,50,127
23299,note_off,0,0,0,,2,,,38,127
23300,note_on,1,0,0,,4,,,52,127
23300,note_on,0,0,0,,4,,,40,127
23300,note_on,0,0,0,,8,,,68,127
23499,note_off,199,0,0,,8,,,68,127
23499,note_off,0,0,0,,4,,,40,127
23499,note_off,0,0,0,,4,,,52,127
23500,note_on,1,0,0,,6,,,42,127
23500,note_on,0,0,0,,6,,,54,127
23500,note_on,0,0,0,,10,,,69,127
23699,note_off,199,0,0,,6,,,54,127
23699,note_off,0,0,0,,6,,,42,127
23699,note_off,0,0,0,,2,,,74,127
23700,note_on,1,0,0,,4,,,40,127
23700,note_on,0,0,0,,4,,,52,127
23700,note_on,0,0,0,,4,,,76,127
23899,note_off,199,0,0,,4,,,76,127
23899,note_off,0,0,0,,4,,,52,127
23899,note_off,0,0,0,,4,,,40,127
23900,note_on,1,0,0,,2,,,38,127
23900,note_on,0,0,0,,2,,,50,127
23900,note_on,0,0,0,,6,,,78,127
24099,note_off,199,0,0,,6,,,78,127
24099,note_off,0,0,0,,2,,,50,127
24099,note_off,0,0,0,,2,,,38,127
24100,note_on,1,0,0,,4,,,40,127
24100,note_on,0,0,0,,4,,,52,127
24100,note_on,0,0,0,,1,,,73,127
24299,note_off,199,0,0,,1,,,73,127
24299,note_off,0,0,0,,10,,,69,127
24300,note_on,1,0,0,,8,,,68,127
24300,note_on,0,0,0,,1,,,73,127
24366,note_off,66,0,0,,1,,,73,127
24367,note_on,1,0,0,,12,,,71,127
24433,note_off,66,0,0,,12,,,71,127
24434,note_on,1,0,0,,1,,,73,127
24500,note_off,66,0,0,,1,,,73,127
24500,note_off,0,0,0,,4,,,52,127
24500,note_off,0,0,0,,4,,,40,127
24501,note_on,1,0,0,,4,,,52,127
24501,note_on,0,0,0,,4,,,40,127
24501,note_on,0,0,0,,12,,,71,127
24567,note_off,66,0,0,,12,,,71,127
24568,note_on,1,0,0,,10,,,69,127
24634,note_off,66,0,0,,10,,,69,127
24635,note_on,1,0,0,,12,,,71,127
24698,note_off,63,0,0,,8,,,68,127
24701,note_off,3,0,0,,12,,,71,127
24701,note_off,0,0,0,,4,,,40,127
24701,note_off,0,0,0,,4,,,52,127
24702,note_on,1,0,0,,10,,,45,127
24702,note_on,0,0,0,,10,,,69,127
24801,note_off,99,0,0,,10,,,69,127
24802,note_on,1,0,0,,1,,,73,127
24901,note_off,99,0,0,,1,,,73,127
24902,note_on,1,0,0,,10,,,69,127
25101,note_off,199,0,0,,10,,,45,127
25102,note_on,1,0,0,,1,,,49,127
25102,note_on,0,0,0,,10,,,57,127
25301,note_off,199,0,0,,10,,,57,127
25301,note_off,0,0,0,,1,,,49,127
25302,note_on,1,0,0,,2,,,50,127
25302,note_on,0,0,0,,12,,,59,127
25501,note_off,199,0,0,,12,,,59,127
25501,note_off,0,0,0,,2,,,50,127
25502,note_on,1,0,0,,1,,,61,127
25502,note_on,0,0,0,,4,,,52,127
25701,note_off,199,0,0,,4,,,52,127
25701,note_off,0,0,0,,1,,,61,127
25702,note_on,1,0,0,,8,,,56,127
25702,note_on,0,0,0,,2,,,62,127
25901,note_off,199,0,0,,2,,,62,127
25901,note_off,0,0,0,,8,,,56,127
25902,note_on,1,0,0,,1,,,61,127
25902,note_on,0,0,0,,10,,,57,127
26001,note_off,99,0,0,,10,,,69,127
26002,note_on,1,0,0,,4,,,76,127
26101,note_off,99,0,0,,4,,,76,127
26102,note_on,1,0,0,,10,,,69,127
26301,note_off,199,0,0,,10,,,57,127
26301,note_off,0,0,0,,1,,,61,127
26302,note_on,1,0,0,,10,,,57,127
26302,note_on,0,0,0,,4,,,64,127
26501,note_off,199,0,0,,4,,,64,127
26501,note_off,0,0,0,,10,,,57,127
26502,note_on,1,0,0,,6,,,54,127
26502,note_on,0,0,0,,2,,,62,127
26701,note_off,199,0,0,,2,,,62,127
26701,note_off,0,0,0,,6,,,54,127
26702,note_on,1,0,0,,1,,,61,127
26702,note_on,0,0,0,,4,,,52,127
26901,note_off,199,0,0,,4,,,52,127
26901,note_off,0,0,0,,1,,,61,127
26902,note_on,1,0,0,,2,,,50,127
26902,note_on,0,0,0,,12,,,59,127
27101,note_off,199,0,0,,12,,,59,127
27101,note_off,0,0,0,,2,,,50,127
27102,note_on,1,0,0,,1,,,49,127
27102,note_on,0,0,0,,10,,,57,127
27201,note_off,99,0,0,,10,,,69,127
27202,note_on,1,0,0,,10,,,81,127
27301,note_off,99,0,0,,10,,,81,127
27302,note_on,1,0,0,,10,,,69,127
27501,note_off,199,0,0,,10,,,57,127
27501,note_off,0,0,0,,1,,,49,127
27502,note_on,1,0,0,,1,,,49,127
27502,note_on,0,0,0,,10,,,57,127
27701,note_off,199,0,0,,10,,,57,127
27701,note_off,0,0,0,,1,,,49,127
27702,note_on,1,0,0,,12,,,59,127
27702,note_on,0,0,0,,2,,,50,127
27901,note_off,199,0,0,,2,,,50,127
27901,note_off,0,0,0,,12,,,59,127
27902,note_on,1,0,0,,4,,,52,127
27902,note_on,0,0,0,,1,,,61,127
28101,note_off,199,0,0,,1,,,61,127
28101,note_off,0,0,0,,4,,,52,127
28102,note_on,1,0,0,,8,,,56,127
28102,note_on,0,0,0,,2,,,62,127
28301,note_off,199,0,0,,2,,,62,127
28301,note_off,0,0,0,,8,,,56,127
28302,note_on,1,0,0,,1,,,61,127
28302,note_on,0,0,0,,10,,,57,127
28401,note_off,99,0,0,,10,,,69,127
28402,note_on,1,0,0,,10,,,81,127
28501,note_off,99,0,0,,10,,,81,127
28502,note_on,1,0,0,,10,,,69,127
28701,note_off,199,0,0,,10,,,57,127
28701,note_off,0,0,0,,1,,,61,127
28702,note_on,1,0,0,,10,,,57,127
28702,note_on,0,0,0,,4,,,64,127
28901,note_off,199,0,0,,4,,,64,127
28901,note_off,0,0,0,,10,,,57,127
28902,note_on,1,0,0,,6,,,54,127
28902,note_on,0,0,0,,2,,,62,127
29101,note_off,199,0,0,,2,,,62,127
29101,note_off,0,0,0,,6,,,54,127
29102,note_on,1,0,0,,4,,,52,127
29102,note_on,0,0,0,,1,,,61,127
29301,note_off,199,0,0,,1,,,61,127
29301,note_off,0,0,0,,4,,,52,127
29302,note_on,1,0,0,,2,,,50,127
29302,note_on,0,0,0,,12,,,59,127
29501,note_off,199,0,0,,12,,,59,127
29501,note_off,0,0,0,,2,,,50,127
29502,note_on,1,0,0,,1,,,49,127
29502,note_on,0,0,0,,10,,,57,127
29601,note_off,99,0,0,,10,,,69,127
29602,note_on,1,0,0,,10,,,81,127
29701,note_off,99,0,0,,10,,,81,127
29702,note_on,1,0,0,,10,,,69,127
29901,note_off,199,0,0,,10,,,69,127
29901,note_off,0,0,0,,10,,,57,127
29901,note_off,0,0,0,,1,,,49,127
29902,note_on,1,0,0,,1,,,49,127
29902,note_on,0,0,0,,1,,,73,127
29902,note_on,0,0,0,,4,,,76,127
30101,note_off,199,0,0,,4,,,76,127
30101,note_off,0,0,0,,1,,,73,127
30101,note_off,0,0,0,,1,,,49,127
30102,note_on,1,0,0,,2,,,50,127
30102,note_on,0,0,0,,12,,,71,127
30102,note_on,0,0,0,,2,,,74,127
30301,note_off,199,0,0,,2,,,74,127
30301,note_off,0,0,0,,12,,,71,127
30301,note_off,0,0,0,,2,,,50,127
30302,note_on,1,0,0,,4,,,52,127
30302,note_on,0,0,0,,1,,,73,127
30302,note_on,0,0,0,,10,,,69,127
30501,note_off,199,0,0,,10,,,69,127
30501,note_off,0,0,0,,1,,,73,127
30502,note_on,1,0,0,,4,,,40,127
30502,note_on,0,0,0,,12,,,71,127
30502,note_on,0,0,0,,8,,,68,127
30698,note_off,196,0,0,,4,,,52,127
30701,note_off,3,0,0,,8,,,68,127
30701,note_off,0,0,0,,12,,,71,127
30701,note_off,0,0,0,,4,,,40,127
30702,note_on,1,0,0,,10,,,45,127
30702,note_on,0,0,0,,10,,,69,127
30801,note_off,99,0,0,,10,,,69,127
30802,note_on,1,0,0,,10,,,81,127
30901,note_off,99,0,0,,10,,,81,127
30901,note_off,0,0,0,,10,,,45,127
30902,note_on,1,0,0,,12,,,47,127
30902,note_on,0,0,0,,10,,,69,127
31101,note_off,199,0,0,,10,,,69,127
31101,note_off,0,0,0,,12,,,47,127
31102,note_on,1,0,0,,1,,,49,127
31102,note_on,0,0,0,,4,,,64,127
31301,note_off,199,0,0,,4,,,64,127
31301,note_off,0,0,0,,1,,,49,127
31302,note_on,1,0,0,,2,,,50,127
31302,note_on,0,0,0,,6,,,66,127
31501,note_off,199,0,0,,6,,,66,127
31501,note_off,0,0,0,,2,,,50,127
31502,note_on,1,0,0,,4,,,52,127
31502,note_on,0,0,0,,4,,,64,127
31601,note_off,99,0,0,,4,,,64,127
31602,note_on,1,0,0,,2,,,62,127
31701,note_off,99,0,0,,2,,,62,127
31702,note_on,1,0,0,,4,,,40,127
31702,note_on,0,0,0,,1,,,61,127
31801,note_off,99,0,0,,1,,,61,127
31802,note_on,1,0,0,,12,,,59,127
31898,note_off,96,0,0,,4,,,52,127
31901,note_off,3,0,0,,12,,,59,127
31901,note_off,0,0,0,,4,,,40,127
31902,note_on,1,0,0,,10,,,45,127
31902,note_on,0,0,0,,12,,,59,127
31951,note_off,49,0,0,,12,,,59,127
31952,note_on,1,0,0,,10,,,57,127
32001,note_off,49,0,0,,10,,,57,127
32002,note_on,1,0,0,,12,,,59,127
32051,note_off,49,0,0,,12,,,59,127
32052,note_on,1,0,0,,10,,,57,127
32396,note_off,344,0,0,,10,,,57,127
32501,note_off,105,0,0,,10,,,45,127
32502,note_on,1,0,0,,10,,,45,127
32502,note_on,0,0,0,,10,,,69,127
32601,note_off,99,0,0,,10,,,69,127
32602,note_on,1,0,0,,1,,,73,127
32701,note_off,99,0,0,,1,,,73,127
32702,note_on,1,0,0,,10,,,69,127
32901,note_off,199,0,0,,10,,,69,127
32901,note_off,0,0,0,,10,,,45,127
32902,note_on,1,0,0,,1,,,61,127
32902,note_on,0,0,0,,10,,,57,127
32902,note_on,0,0,0,,4,,,64,127
33101,note_off,199,0,0,,4,,,64,127
33101,note_off,0,0,0,,10,,,57,127
33101,note_off,0,0,0,,1,,,61,127
33102,note_on,1,0,0,,10,,,57,127
33102,note_on,0,0,0,,2,,,62,127
33102,note_on,0,0,0,,6,,,66,127
33301,note_off,199,0,0,,6,,,66,127
33301,note_off,0,0,0,,2,,,62,127
33301,note_off,0,0,0,,10,,,57,127
33302,note_on,1,0,0,,10,,,57,127
33302,note_on,0,0,0,,2,,,62,127
33302,note_on,0,0,0,,8,,,68,127
33501,note_off,199,0,0,,8,,,68,127
33501,note_off,0,0,0,,2,,,62,127
33501,note_off,0,0,0,,10,,,57,127
33502,note_on,1,0,0,,10,,,57,127
33502,note_on,0,0,0,,2,,,62,127
33502,note_on,0,0,0,,10,,,69,127
33701,note_off,199,0,0,,10,,,69,127
33701,note_off,0,0,0,,2,,,62,127
33701,note_off,0,0,0,,10,,,57,127
33702,note_on,1,0,0,,10,,,57,127
33702,note_on,0,0,0,,1,,,61,127
33702,note_on,0,0,0,,4,,,64,127
33802,note_on,100,0,0,,4,,,76,127
33900,note_off,98,0,0,,4,,,64,127
33901,note_off,1,0,0,,4,,,76,127
33902,note_on,1,0,0,,4,,,64,127
34101,note_off,199,0,0,,1,,,61,127
34101,note_off,0,0,0,,10,,,57,127
34102,note_on,1,0,0,,10,,,57,127
34102,note_on,0,0,0,,1,,,61,127
34301,note_off,199,0,0,,1,,,61,127
34301,note_off,0,0,0,,10,,,57,127
34301,note_off,0,0,0,,4,,,64,127
34302,note_on,1,0,0,,4,,,52,127
34302,note_on,0,0,0,,12,,,59,127
34302,note_on,0,0,0,,4,,,64,127
34401,note_off,99,0,0,,4,,,64,127
34402,note_on,1,0,0,,2,,,62,127
34501,note_off,99,0,0,,2,,,62,127
34501,note_off,0,0,0,,12,,,59,127
34501,note_off,0,0,0,,4,,,52,127
34502,note_on,1,0,0,,4,,,52,127
34502,note_on,0,0,0,,10,,,57,127
34502,note_on,0,0,0,,1,,,61,127
34701,note_off,199,0,0,,1,,,61,127
34701,note_off,0,0,0,,10,,,57,127
34701,note_off,0,0,0,,4,,,52,127
34702,note_on,1,0,0,,4,,,52,127
34702,note_on,0,0,0,,8,,,56,127
34702,note_on,0,0,0,,12,,,59,127
34901,note_off,199,0,0,,12,,,59,127
34901,note_off,0,0,0,,8,,,56,127
34901,note_off,0,0,0,,4,,,52,127
34902,note_on,1,0,0,,10,,,45,127
34902,note_on,0,0,0,,10,,,57,127
34902,note_on,0,0,0,,1,,,61,127
35001,note_off,99,0,0,,1,,,61,127
35002,note_on,1,0,0,,10,,,81,127
35101,note_off,99,0,0,,10,,,81,127
35102,note_on,1,0,0,,1,,,73,127
35301,note_off,199,0,0,,10,,,57,127
35301,note_off,0,0,0,,10,,,45,127
35302,note_on,1,0,0,,10,,,69,127
35302,note_on,0,0,0,,10,,,57,127
35501,note_off,199,0,0,,10,,,57,127
35501,note_off,0,0,0,,10,,,69,127
35501,note_off,0,0,0,,1,,,73,127
35502,note_on,1,0,0,,10,,,57,127
35502,note_on,0,0,0,,7,,,67,127
35502,note_on,0,0,0,,1,,,73,127
35701,note_off,199,0,0,,1,,,73,127
35701,note_off,0,0,0,,7,,,67,127
35701,note_off,0,0,0,,10,,,57,127
35702,note_on,1,0,0,,5,,,65,127
35702,note_on,0,0,0,,10,,,57,127
35702,note_on,0,0,0,,2,,,74,127
35901,note_off,199,0,0,,2,,,74,127
35901,note_off,0,0,0,,10,,,57,127
35901,note_off,0,0,0,,5,,,65,127
35902,note_on,1,0,0,,4,,,64,127
35902,note_on,0,0,0,,10,,,57,127
35902,note_on,0,0,0,,4,,,76,127
36101,note_off,199,0,0,,4,,,76,127
36101,note_off,0,0,0,,10,,,57,127
36101,note_off,0,0,0,,4,,,64,127
36102,note_on,1,0,0,,10,,,57,127
36102,note_on,0,0,0,,5,,,65,127
36102,note_on,0,0,0,,10,,,69,127
36202,note_on,100,0,0,,10,,,81,127
36300,note_off,98,0,0,,10,,,69,127
36301,note_off,1,0,0,,10,,,81,127
36302,note_on,1,0,0,,10,,,69,127
36501,note_off,199,0,0,,5,,,65,127
36501,note_off,0,0,0,,10,,,57,127
36502,note_on,1,0,0,,5,,,65,127
36502,note_on,0,0,0,,10,,,57,127
36701,note_off,199,0,0,,5,,,65,127
36701,note_off,0,0,0,,10,,,69,127
36702,note_on,1,0,0,,4,,,64,127
36702,note_on,0,0,0,,1,,,73,127
36702,note_on,0,0,0,,4,,,76,127
36901,note_off,199,0,0,,4,,,76,127
36901,note_off,0,0,0,,1,,,73,127
36901,note_off,0,0,0,,4,,,64,127
36902,note_on,1,0,0,,2,,,62,127
36902,note_on,0,0,0,,2,,,74,127
36902,note_on,0,0,0,,5,,,77,127
37101,note_off,199,0,0,,5,,,77,127
37101,note_off,0,0,0,,2,,,74,127
37101,note_off,0,0,0,,2,,,62,127
37102,note_on,1,0,0,,1,,,61,127
37102,note_on,0,0,0,,7,,,79,127
37102,note_on,0,0,0,,4,,,76,127
37301,note_off,199,0,0,,4,,,76,127
37301,note_off,0,0,0,,7,,,79,127
37301,note_off,0,0,0,,1,,,61,127
37302,note_on,1,0,0,,2,,,62,127
37302,note_on,0,0,0,,10,,,69,127
37302,note_on,0,0,0,,5,,,77,127
37401,note_off,99,0,0,,5,,,77,127
37402,note_on,1,0,0,,10,,,81,127
37501,note_off,99,0,0,,10,,,81,127
37502,note_on,1,0,0,,8,,,80,127
37698,note_off,196,0,0,,10,,,69,127
37700,note_off,2,0,0,,10,,,57,127
37701,note_off,1,0,0,,2,,,62,127
37702,note_on,1,0,0,,10,,,57,127
37702,note_on,0,0,0,,2,,,62,127
37702,note_on,0,0,0,,10,,,69,127
37901,note_off,199,0,0,,10,,,69,127
37901,note_off,0,0,0,,2,,,62,127
37902,note_on,1,0,0,,2,,,62,127
37902,note_on,0,0,0,,12,,,71,127
38101,note_off,199,0,0,,12,,,71,127
38101,note_off,0,0,0,,2,,,62,127
38102,note_on,1,0,0,,0,,,60,127
38102,note_on,0,0,0,,0,,,72,127
38301,note_off,199,0,0,,0,,,72,127
38301,note_off,0,0,0,,0,,,60,127
38302,note_on,1,0,0,,12,,,59,127
38302,note_on,0,0,0,,2,,,74,127
38501,note_off,199,0,0,,2,,,74,127
38501,note_off,0,0,0,,12,,,59,127
38502,note_on,1,0,0,,4,,,64,127
38502,note_on,0,0,0,,0,,,72,127
38596,note_off,94,0,0,,8,,,80,127
38601,note_off,5,0,0,,0,,,72,127
38602,note_on,1,0,0,,10,,,81,127
38701,note_off,99,0,0,,10,,,81,127
38702,note_on,1,0,0,,8,,,80,127
38900,note_off,198,0,0,,10,,,57,127
38901,note_off,1,0,0,,4,,,64,127
38902,note_on,1,0,0,,10,,,57,127
38902,note_on,0,0,0,,0,,,60,127
38902,note_on,0,0,0,,10,,,69,127
39101,note_off,199,0,0,,10,,,69,127
39101,note_off,0,0,0,,0,,,60,127
39102,note_on,1,0,0,,2,,,62,127
39102,note_on,0,0,0,,12,,,71,127
39301,note_off,199,0,0,,12,,,71,127
39301,note_off,0,0,0,,2,,,62,127
39302,note_on,1,0,0,,0,,,60,127
39302,note_on,0,0,0,,0,,,72,127
39501,note_off,199,0,0,,0,,,72,127
39501,note_off,0,0,0,,0,,,60,127
39502,note_on,1,0,0,,12,,,59,127
39502,note_on,0,0,0,,2,,,74,127
39701,note_off,199,0,0,,2,,,74,127
39701,note_off,0,0,0,,12,,,59,127
39702,note_on,1,0,0,,4,,,64,127
39702,note_on,0,0,0,,0,,,72,127
39796,note_off,94,0,0,,8,,,80,127
39801,note_off,5,0,0,,0,,,72,127
39802,note_on,1,0,0,,10,,,81,127
39901,note_off,99,0,0,,10,,,81,127
39902,note_on,1,0,0,,10,,,69,127
40100,note_off,198,0,0,,10,,,57,127
40101,note_off,1,0,0,,10,,,69,127
40101,note_off,0,0,0,,4,,,64,127
40102,note_on,1,0,0,,10,,,57,127
40102,note_on,0,0,0,,1,,,61,127
40102,note_on,0,0,0,,7,,,79,127
40301,note_off,199,0,0,,7,,,79,127
40301,note_off,0,0,0,,1,,,61,127
40301,note_off,0,0,0,,10,,,57,127
40302,note_on,1,0,0,,2,,,62,127
40302,note_on,0,0,0,,6,,,78,127
40501,note_off,199,0,0,,6,,,78,127
40501,note_off,0,0,0,,2,,,62,127
40502,note_on,1,0,0,,4,,,64,127
40502,note_on,0,0,0,,10,,,57,127
40502,note_on,0,0,0,,7,,,79,127
40701,note_off,199,0,0,,7,,,79,127
40701,note_off,0,0,0,,10,,,57,127
40701,note_off,0,0,0,,4,,,64,127
40702,note_on,1,0,0,,10,,,57,127
40702,note_on,0,0,0,,1,,,61,127
40702,note_on,0,0,0,,10,,,81,127
40901,note_off,199,0,0,,10,,,81,127
40901,note_off,0,0,0,,1,,,61,127
40901,note_off,0,0,0,,10,,,57,127
40902,note_on,1,0,0,,2,,,62,127
40902,note_on,0,0,0,,2,,,50,127
40902,note_on,0,0,0,,6,,,78,127
41101,note_off,199,0,0,,6,,,78,127
41101,note_off,0,0,0,,2,,,50,127
41101,note_off,0,0,0,,2,,,62,127
41102,note_on,1,0,0,,1,,,49,127
41102,note_on,0,0,0,,1,,,61,127
41102,note_on,0,0,0,,4,,,76,127
41301,note_off,199,0,0,,4,,,76,127
41301,note_off,0,0,0,,1,,,61,127
41301,note_off,0,0,0,,1,,,49,127
41302,note_on,1,0,0,,12,,,59,127
41302,note_on,0,0,0,,12,,,47,127
41302,note_on,0,0,0,,2,,,74,127
41501,note_off,199,0,0,,2,,,74,127
41501,note_off,0,0,0,,12,,,47,127
41501,note_off,0,0,0,,12,,,59,127
41502,note_on,1,0,0,,10,,,45,127
41502,note_on,0,0,0,,10,,,57,127
41502,note_on,0,0,0,,2,,,74,127
41601,note_off,99,0,0,,2,,,74,127
41602,note_on,1,0,0,,1,,,73,127
41701,note_off,99,0,0,,1,,,73,127
41701,note_off,0,0,0,,10,,,57,127
41702,note_on,1,0,0,,7,,,55,127
41702,note_on,0,0,0,,12,,,71,127
41901,note_off,199,0,0,,12,,,71,127
41901,note_off,0,0,0,,7,,,55,127
41902,note_on,1,0,0,,6,,,54,127
41902,note_on,0,0,0,,10,,,69,127
42101,note_off,199,0,0,,10,,,69,127
42101,note_off,0,0,0,,6,,,54,127
42102,note_on,1,0,0,,4,,,52,127
42102,note_on,0,0,0,,7,,,67,127
42301,note_off,199,0,0,,7,,,67,127
42301,note_off,0,0,0,,4,,,52,127
42302,note_on,1,0,0,,2,,,50,127
42302,note_on,0,0,0,,6,,,66,127
42501,note_off,199,0,0,,6,,,66,127
42501,note_off,0,0,0,,2,,,50,127
42502,note_on,1,0,0,,1,,,49,127
42502,note_on,0,0,0,,4,,,64,127
42700,note_off,198,0,0,,10,,,45,127
42701,note_off,1,0,0,,4,,,64,127
42701,note_off,0,0,0,,1,,,49,127
42702,note_on,1,0,0,,2,,,38,127
42702,note_on,0,0,0,,2,,,50,127
42702,note_on,0,0,0,,6,,,66,127
42879,note_off,177,0,0,,6,,,66,127
42902,note_on,23,0,0,,10,,,69,127
43098,note_off,196,0,0,,2,,,50,127
43098,note_off,0,0,0,,2,,,38,127
43101,note_off,3,0,0,,10,,,69,127
43102,note_on,1,0,0,,6,,,66,127
43102,note_on,0,0,0,,2,,,74,127
43301,note_off,199,0,0,,2,,,74,127
43301,note_off,0,0,0,,6,,,66,127
43302,note_on,1,0,0,,6,,,66,127
43302,note_on,0,0,0,,2,,,74,127
43501,note_off,199,0,0,,2,,,74,127
43501,note_off,0,0,0,,6,,,66,127
43502,note_on,1,0,0,,4,,,64,127
43502,note_on,0,0,0,,1,,,73,127
43701,note_off,199,0,0,,1,,,73,127
43701,note_off,0,0,0,,4,,,64,127
43702,note_on,1,0,0,,10,,,45,127
43702,note_on,0,0,0,,10,,,57,127
43702,note_on,0,0,0,,10,,,69,127
43901,note_off,199,0,0,,10,,,69,127
43901,note_off,0,0,0,,10,,,57,127
43901,note_off,0,0,0,,10,,,45,127
43902,note_on,1,0,0,,6,,,42,127
43902,note_on,0,0,0,,6,,,54,127
43902,note_on,0,0,0,,6,,,66,127
44102,note_on,200,0,0,,2,,,74,127
44202,note_off,100,0,0,,6,,,66,127
44202,note_off,0,0,0,,6,,,54,127
44202,note_off,0,0,0,,6,,,42,127
44301,note_off,99,0,0,,2,,,74,127
44302,note_on,1,0,0,,6,,,78,127
44302,note_on,0,0,0,,2,,,74,127
44501,note_off,199,0,0,,2,,,74,127
44501,note_off,0,0,0,,6,,,78,127
44502,note_on,1,0,0,,6,,,78,127
44502,note_on,0,0,0,,2,,,74,127
44701,note_off,199,0,0,,2,,,74,127
44701,note_off,0,0,0,,6,,,78,127
44702,note_on,1,0,0,,1,,,73,127
44702,note_on,0,0,0,,4,,,76,127
44901,note_off,199,0,0,,4,,,76,127
44901,note_off,0,0,0,,1,,,73,127
44902,note_on,1,0,0,,10,,,45,127
44902,note_on,0,0,0,,10,,,57,127
44902,note_on,0,0,0,,10,,,69,127
45101,note_off,199,0,0,,10,,,69,127
45101,note_off,0,0,0,,10,,,57,127
45101,note_off,0,0,0,,10,,,45,127
45102,note_on,1,0,0,,6,,,42,127
45102,note_on,0,0,0,,6,,,54,127
45102,note_on,0,0,0,,6,,,66,127
45302,note_on,200,0,0,,6,,,78,127
45402,note_off,100,0,0,,6,,,66,127
45402,note_off,0,0,0,,6,,,54,127
45402,note_off,0,0,0,,6,,,42,127
45501,note_off,99,0,0,,6,,,78,127
45502,note_on,1,0,0,,10,,,81,127
45502,note_on,0,0,0,,6,,,78,127
45701,note_off,199,0,0,,6,,,78,127
45701,note_off,0,0,0,,10,,,81,127
45702,note_on,1,0,0,,6,,,78,127
45702,note_on,0,0,0,,10,,,81,127
45901,note_off,199,0,0,,10,,,81,127
45901,note_off,0,0,0,,6,,,78,127
45902,note_on,1,0,0,,4,,,76,127
45902,note_on,0,0,0,,7,,,79,127
46101,note_off,199,0,0,,7,,,79,127
46101,note_off,0,0,0,,4,,,76,127
46102,note_on,1,0,0,,10,,,57,127
46102,note_on,0,0,0,,10,,,45,127
46102,note_on,0,0,0,,10,,,69,127
46301,note_off,199,0,0,,10,,,69,127
46301,note_off,0,0,0,,10,,,45,127
46301,note_off,0,0,0,,10,,,57,127
46302,note_on,1,0,0,,6,,,42,127
46302,note_on,0,0,0,,6,,,54,127
46302,note_on,0,0,0,,6,,,66,127
46500,note_off,198,0,0,,6,,,54,127
46500,note_off,0,0,0,,6,,,42,127
46501,note_off,1,0,0,,6,,,66,127
46502,note_on,1,0,0,,10,,,81,127
46701,note_off,199,0,0,,10,,,81,127
46702,note_on,1,0,0,,6,,,78,127
46702,note_on,0,0,0,,2,,,86,127
46901,note_off,199,0,0,,2,,,86,127
46901,note_off,0,0,0,,6,,,78,127
46902,note_on,1,0,0,,2,,,86,127
46902,note_on,0,0,0,,6,,,78,127
47101,note_off,199,0,0,,6,,,78,127
47101,note_off,0,0,0,,2,,,86,127
47102,note_on,1,0,0,,4,,,76,127
47102,note_on,0,0,0,,1,,,85,127
47301,note_off,199,0,0,,1,,,85,127
47301,note_off,0,0,0,,4,,,76,127
47302,note_on,1,0,0,,10,,,45,127
47302,note_on,0,0,0,,10,,,57,127
47302,note_on,0,0,0,,10,,,69,127
47501,note_off,199,0,0,,10,,,69,127
47501,note_off,0,0,0,,10,,,57,127
47501,note_off,0,0,0,,10,,,45,127
47502,note_on,1,0,0,,6,,,54,127
47502,note_on,0,0,0,,6,,,42,127
47502,note_on,0,0,0,,6,,,66,127
47701,note_off,199,0,0,,6,,,66,127
47702,note_on,1,0,0,,10,,,69,127
47901,note_off,199,0,0,,6,,,42,127
47901,note_off,0,0,0,,6,,,54,127
47902,note_on,1,0,0,,6,,,42,127
47902,note_on,0,0,0,,6,,,54,127
47902,note_on,0,0,0,,10,,,81,127
48098,note_off,196,0,0,,10,,,69,127
48101,note_off,3,0,0,,6,,,54,127
48101,note_off,0,0,0,,6,,,42,127
48102,note_on,1,0,0,,7,,,43,127
48102,note_on,0,0,0,,7,,,55,127
48102,note_on,0,0,0,,12,,,71,127
48298,note_off,196,0,0,,10,,,81,127
48302,note_on,4,0,0,,12,,,83,127
48498,note_off,196,0,0,,12,,,71,127
48501,note_off,3,0,0,,7,,,55,127
48501,note_off,0,0,0,,7,,,43,127
48502,note_on,1,0,0,,10,,,45,127
48502,note_on,0,0,0,,10,,,57,127
48502,note_on,0,0,0,,1,,,73,127
48701,note_off,199,0,0,,1,,,73,127
48701,note_off,0,0,0,,10,,,57,127
48701,note_off,0,0,0,,10,,,45,127
48702,note_on,1,0,0,,12,,,47,127
48702,note_on,0,0,0,,12,,,59,127
48702,note_on,0,0,0,,2,,,74,127
48802,note_off,100,0,0,,12,,,83,127
48802,note_on,0,0,0,,2,,,86,127
48900,note_off,98,0,0,,2,,,74,127
48901,note_off,1,0,0,,2,,,86,127
48901,note_off,0,0,0,,12,,,59,127
48901,note_off,0,0,0,,12,,,47,127
48902,note_on,1,0,0,,10,,,45,127
48902,note_on,0,0,0,,10,,,57,127
48902,note_on,0,0,0,,2,,,74,127
49101,note_off,199,0,0,,10,,,57,127
49101,note_off,0,0,0,,10,,,45,127
49102,note_on,1,0,0,,7,,,43,127
49102,note_on,0,0,0,,7,,,55,127
49301,note_off,199,0,0,,7,,,55,127
49301,note_off,0,0,0,,7,,,43,127
49302,note_on,1,0,0,,10,,,57,127
49302,note_on,0,0,0,,10,,,45,127
49501,note_off,199,0,0,,2,,,74,127
49502,note_on,1,0,0,,2,,,74,127
49502,note_on,0,0,0,,6,,,78,127
49701,note_off,199,0,0,,6,,,78,127
49701,note_off,0,0,0,,2,,,74,127
49701,note_off,0,0,0,,10,,,45,127
49701,note_off,0,0,0,,10,,,57,127
49702,note_on,1,0,0,,10,,,57,127
49702,note_on,0,0,0,,10,,,45,127
49702,note_on,0,0,0,,4,,,76,127
49702,note_on,0,0,0,,1,,,73,127
49901,note_off,199,0,0,,1,,,73,127
49901,note_off,0,0,0,,4,,,76,127
49901,note_off,0,0,0,,10,,,45,127
49901,note_off,0,0,0,,10,,,57,127
49902,note_on,1,0,0,,2,,,38,127
49902,note_on,0,0,0,,2,,,50,127
49902,note_on,0,0,0,,2,,,74,127
50079,note_off,177,0,0,,2,,,74,127
50102,note_on,23,0,0,,10,,,69,127
50298,note_off,196,0,0,,2,,,50,127
50298,note_off,0,0,0,,2,,,38,127
50301,note_off,3,0,0,,10,,,69,127
50302,note_on,1,0,0,,6,,,66,127
50302,note_on,0,0,0,,2,,,74,127
50501,note_off,199,0,0,,2,,,74,127
50501,note_off,0,0,0,,6,,,66,127
50502,note_on,1,0,0,,2,,,74,127
50502,note_on,0,0,0,,6,,,66,127
50701,note_off,199,0,0,,6,,,66,127
50701,note_off,0,0,0,,2,,,74,127
50702,note_on,1,0,0,,4,,,64,127
50702,note_on,0,0,0,,1,,,73,127
50901,note_off,199,0,0,,1,,,73,127
50901,note_off,0,0,0,,4,,,64,127
50902,note_on,1,0,0,,10,,,45,127
50902,note_on,0,0,0,,10,,,57,127
50902,note_on,0,0,0,,10,,,69,127
51101,note_off,199,0,0,,10,,,69,127
51101,note_off,0,0,0,,10,,,57,127
51101,note_off,0,0,0,,10,,,45,127
51102,note_on,1,0,0,,6,,,42,127
51102,note_on,0,0,0,,6,,,54,127
51102,note_on,0,0,0,,6,,,66,127
51302,note_on,200,0,0,,2,,,74,127
51402,note_off,100,0,0,,6,,,66,127
51402,note_off,0,0,0,,6,,,54,127
51402,note_off,0,0,0,,6,,,42,127
51501,note_off,99,0,0,,2,,,74,127
51502,note_on,1,0,0,,2,,,74,127
51502,note_on,0,0,0,,6,,,78,127
51701,note_off,199,0,0,,6,,,78,127
51701,note_off,0,0,0,,2,,,74,127
51702,note_on,1,0,0,,6,,,78,127
51702,note_on,0,0,0,,2,,,74,127
51901,note_off,199,0,0,,2,,,74,127
51901,note_off,0,0,0,,6,,,78,127
51902,note_on,1,0,0,,1,,,73,127
51902,note_on,0,0,0,,4,,,76,127
52101,note_off,199,0,0,,4,,,76,127
52101,note_off,0,0,0,,1,,,73,127
52102,note_on,1,0,0,,10,,,45,127
52102,note_on,0,0,0,,10,,,57,127
52102,note_on,0,0,0,,10,,,69,127
52301,note_off,199,0,0,,10,,,69,127
52301,note_off,0,0,0,,10,,,57,127
52301,note_off,0,0,0,,10,,,45,127
52302,note_on,1,0,0,,6,,,42,127
52302,note_on,0,0,0,,6,,,54,127
52302,note_on,0,0,0,,6,,,66,127
52502,note_on,200,0,0,,6,,,78,127
52602,note_off,100,0,0,,6,,,66,127
52602,note_off,0,0,0,,6,,,54,127
52602,note_off,0,0,0,,6,,,42,127
52701,note_off,99,0,0,,6,,,78,127
52702,note_on,1,0,0,,6,,,78,127
52702,note_on,0,0,0,,10,,,81,127
52901,note_off,199,0,0,,10,,,81,127
52901,note_off,0,0,0,,6,,,78,127
52902,note_on,1,0,0,,10,,,81,127
52902,note_on,0,0,0,,6,,,78,127
53101,note_off,199,0,0,,6,,,78,127
53101,note_off,0,0,0,,10,,,81,127
53102,note_on,1,0,0,,4,,,76,127
53102,note_on,0,0,0,,7,,,79,127
53301,note_off,199,0,0,,7,,,79,127
53301,note_off,0,0,0,,4,,,76,127
53302,note_on,1,0,0,,10,,,57,127
53302,note_on,0,0,0,,10,,,45,127
53302,note_on,0,0,0,,10,,,69,127
53501,note_off,199,0,0,,10,,,69,127
53501,note_off,0,0,0,,10,,,45,127
53501,note_off,0,0,0,,10,,,57,127
53502,note_on,1,0,0,,6,,,42,127
53502,note_on,0,0,0,,6,,,54,127
53502,note_on,0,0,0,,6,,,66,127
53700,note_off,198,0,0,,6,,,54,127
53700,note_off,0,0,0,,6,,,42,127
53701,note_off,1,0,0,,6,,,66,127
53702,note_on,1,0,0,,10,,,81,127
53901,note_off,199,0,0,,10,,,81,127
53902,note_on,1,0,0,,2,,,86,127
53902,note_on,0,0,0,,6,,,78,127
54101,note_off,199,0,0,,6,,,78,127
54101,note_off,0,0,0,,2,,,86,127
54102,note_on,1,0,0,,6,,,78,127
54102,note_on,0,0,0,,2,,,86,127
54301,note_off,199,0,0,,2,,,86,127
54301,note_off,0,0,0,,6,,,78,127
54302,note_on,1,0,0,,4,,,76,127
54302,note_on,0,0,0,,1,,,85,127
54501,note_off,199,0,0,,1,,,85,127
54501,note_off,0,0,0,,4,,,76,127
54502,note_on,1,0,0,,10,,,45,127
54502,note_on,0,0,0,,10,,,57,127
54502,note_on,0,0,0,,10,,,69,127
54701,note_off,199,0,0,,10,,,69,127
54701,note_off,0,0,0,,10,,,57,127
54701,note_off,0,0,0,,10,,,45,127
54702,note_on,1,0,0,,6,,,42,127
54702,note_on,0,0,0,,6,,,54,127
54702,note_on,0,0,0,,6,,,66,127
54901,note_off,199,0,0,,6,,,66,127
54902,note_on,1,0,0,,10,,,69,127
55101,note_off,199,0,0,,6,,,54,127
55101,note_off,0,0,0,,6,,,42,127
55102,note_on,1,0,0,,6,,,42,127
55102,note_on,0,0,0,,6,,,54,127
55102,note_on,0,0,0,,10,,,81,127
55298,note_off,196,0,0,,10,,,69,127
55301,note_off,3,0,0,,6,,,54,127
55301,note_off,0,0,0,,6,,,42,127
55302,note_on,1,0,0,,7,,,43,127
55302,note_on,0,0,0,,7,,,55,127
55302,note_on,0,0,0,,12,,,71,127
55498,note_off,196,0,0,,10,,,81,127
55502,note_on,4,0,0,,7,,,79,127
55698,note_off,196,0,0,,12,,,71,127
55701,note_off,3,0,0,,7,,,55,127
55701,note_off,0,0,0,,7,,,43,127
55702,note_on,1,0,0,,10,,,45,127
55702,note_on,0,0,0,,10,,,57,127
55702,note_on,0,0,0,,1,,,73,127
55901,note_off,199,0,0,,1,,,73,127
55901,note_off,0,0,0,,10,,,57,127
55901,note_off,0,0,0,,10,,,45,127
55902,note_on,1,0,0,,12,,,47,127
55902,note_on,0,0,0,,12,,,59,127
55902,note_on,0,0,0,,2,,,74,127
56101,note_off,199,0,0,,12,,,59,127
56101,note_off,0,0,0,,12,,,47,127
56101,note_off,0,0,0,,7,,,79,127
56102,note_on,1,0,0,,10,,,57,127
56102,note_on,0,0,0,,10,,,45,127
56102,note_on,0,0,0,,10,,,81,127
56301,note_off,199,0,0,,10,,,81,127
56301,note_off,0,0,0,,10,,,45,127
56301,note_off,0,0,0,,10,,,57,127
56302,note_on,1,0,0,,7,,,43,127
56302,note_on,0,0,0,,7,,,55,127
56302,note_on,0,0,0,,12,,,83,127
56501,note_off,199,0,0,,12,,,83,127
56501,note_off,0,0,0,,7,,,55,127
56501,note_off,0,0,0,,7,,,43,127
56502,note_on,1,0,0,,10,,,45,127
56502,note_on,0,0,0,,10,,,57,127
56502,note_on,0,0,0,,6,,,78,127
56701,note_off,199,0,0,,6,,,78,127
56701,note_off,0,0,0,,2,,,74,127
56702,note_on,1,0,0,,1,,,73,127
56702,note_on,0,0,0,,6,,,78,127
56768,note_off,66,0,0,,6,,,78,127
56769,note_on,1,0,0,,4,,,76,127
56835,note_off,66,0,0,,4,,,76,127
56836,note_on,1,0,0,,6,,,78,127
56902,note_off,66,0,0,,6,,,78,127
56902,note_off,0,0,0,,10,,,57,127
56902,note_off,0,0,0,,10,,,45,127
56903,note_on,1,0,0,,10,,,45,127
56903,note_on,0,0,0,,10,,,57,127
56903,note_on,0,0,0,,4,,,76,127
56969,note_off,66,0,0,,4,,,76,127
56970,note_on,1,0,0,,2,,,74,127
57036,note_off,66,0,0,,2,,,74,127
57037,note_on,1,0,0,,4,,,76,127
57100,note_off,63,0,0,,1,,,73,127
57103,note_off,3,0,0,,4,,,76,127
57103,note_off,0,0,0,,10,,,57,127
57103,note_off,0,0,0,,10,,,45,127
57104,note_on,1,0,0,,2,,,38,127
57104,note_on,0,0,0,,2,,,50,127
57104,note_on,0,0,0,,2,,,74,127
57203,note_off,99,0,0,,2,,,74,127
57204,note_on,1,0,0,,6,,,78,127
57303,note_off,99,0,0,,6,,,78,127
57304,note_on,1,0,0,,2,,,74,127
57503,note_off,199,0,0,,2,,,50,127
57503,note_off,0,0,0,,2,,,38,127
57504,note_on,1,0,0,,6,,,54,127
57504,note_on,0,0,0,,2,,,62,127
57703,note_off,199,0,0,,2,,,62,127
57703,note_off,0,0,0,,6,,,54,127
57704,note_on,1,0,0,,4,,,64,127
57704,note_on,0,0,0,,7,,,55,127
57903,note_off,199,0,0,,7,,,55,127
57903,note_off,0,0,0,,4,,,64,127
57904,note_on,1,0,0,,10,,,57,127
57904,note_on,0,0,0,,6,,,66,127
58103,note_off,199,0,0,,6,,,66,127
58103,note_off,0,0,0,,10,,,57,127
58104,note_on,1,0,0,,1,,,61,127
58104,note_on,0,0,0,,7,,,67,127
58303,note_off,199,0,0,,7,,,67,127
58303,note_off,0,0,0,,1,,,61,127
58304,note_on,1,0,0,,6,,,66,127
58304,note_on,0,0,0,,2,,,62,127
58403,note_off,99,0,0,,2,,,74,127
58404,note_on,1,0,0,,10,,,81,127
58503,note_off,99,0,0,,10,,,81,127
58504,note_on,1,0,0,,2,,,74,127
58703,note_off,199,0,0,,2,,,62,127
58703,note_off,0,0,0,,6,,,66,127
58704,note_on,1,0,0,,2,,,62,127
58704,note_on,0,0,0,,10,,,69,127
58903,note_off,199,0,0,,10,,,69,127
58903,note_off,0,0,0,,2,,,62,127
58904,note_on,1,0,0,,12,,,59,127
58904,note_on,0,0,0,,7,,,67,127
59103,note_off,199,0,0,,7,,,67,127
59103,note_off,0,0,0,,12,,,59,127
59104,note_on,1,0,0,,10,,,57,127
59104,note_on,0,0,0,,6,,,66,127
59303,note_off,199,0,0,,6,,,66,127
59303,note_off,0,0,0,,10,,,57,127
59304,note_on,1,0,0,,7,,,55,127
59304,note_on,0,0,0,,4,,,64,127
59503,note_off,199,0,0,,4,,,64,127
59503,note_off,0,0,0,,7,,,55,127
59504,note_on,1,0,0,,6,,,54,127
59504,note_on,0,0,0,,2,,,62,127
59603,note_off,99,0,0,,2,,,74,127
59604,note_on,1,0,0,,2,,,86,127
59703,note_off,99,0,0,,2,,,86,127
59704,note_on,1,0,0,,2,,,74,127
59903,note_off,199,0,0,,2,,,62,127
59903,note_off,0,0,0,,6,,,54,127
59904,note_on,1,0,0,,2,,,62,127
59904,note_on,0,0,0,,6,,,54,127
60103,note_off,199,0,0,,6,,,54,127
60103,note_off,0,0,0,,2,,,62,127
60104,note_on,1,0,0,,7,,,55,127
60104,note_on,0,0,0,,4,,,64,127
60303,note_off,199,0,0,,4,,,64,127
60303,note_off,0,0,0,,7,,,55,127
60304,note_on,1,0,0,,10,,,57,127
60304,note_on,0,0,0,,6,,,66,127
60503,note_off,199,0,0,,6,,,66,127
60503,note_off,0,0,0,,10,,,57,127
60504,note_on,1,0,0,,1,,,61,127
60504,note_on,0,0,0,,7,,,67,127
60703,note_off,199,0,0,,7,,,67,127
60703,note_off,0,0,0,,1,,,61,127
60704,note_on,1,0,0,,2,,,62,127
60704,note_on,0,0,0,,6,,,66,127
60803,note_off,99,0,0,,2,,,74,127
60804,note_on,1,0,0,,2,,,86,127
60903,note_off,99,0,0,,2,,,86,127
60904,note_on,1,0,0,,2,,,74,127
61103,note_off,199,0,0,,6,,,66,127
61103,note_off,0,0,0,,2,,,62,127
61104,note_on,1,0,0,,2,,,62,127
61104,note_on,0,0,0,,10,,,69,127
61303,note_off,199,0,0,,10,,,69,127
61303,note_off,0,0,0,,2,,,62,127
61304,note_on,1,0,0,,12,,,59,127
61304,note_on,0,0,0,,7,,,67,127
61503,note_off,199,0,0,,7,,,67,127
61503,note_off,0,0,0,,12,,,59,127
61504,note_on,1,0,0,,10,,,57,127
61504,note_on,0,0,0,,6,,,66,127
61703,note_off,199,0,0,,6,,,66,127
61703,note_off,0,0,0,,10,,,57,127
61704,note_on,1,0,0,,7,,,55,127
61704,note_on,0,0,0,,4,,,64,127
61903,note_off,199,0,0,,4,,,64,127
61903,note_off,0,0,0,,7,,,55,127
61904,note_on,1,0,0,,6,,,54,127
61904,note_on,0,0,0,,2,,,62,127
62003,note_off,99,0,0,,2,,,74,127
62004,note_on,1,0,0,,2,,,86,127
62103,note_off,99,0,0,,2,,,86,127
62104,note_on,1,0,0,,2,,,74,127
62303,note_off,199,0,0,,2,,,74,127
62303,note_off,0,0,0,,2,,,62,127
62303,note_off,0,0,0,,6,,,54,127
62304,note_on,1,0,0,,6,,,54,127
62304,note_on,0,0,0,,6,,,78,127
62304,note_on,0,0,0,,10,,,81,127
62503,note_off,199,0,0,,10,,,81,127
62503,note_off,0,0,0,,6,,,78,127
62503,note_off,0,0,0,,6,,,54,127
62504,note_on,1,0,0,,7,,,55,127
62504,note_on,0,0,0,,4,,,76,127
62504,note_on,0,0,0,,7,,,79,127
62703,note_off,199,0,0,,7,,,79,127
62703,note_off,0,0,0,,4,,,76,127
62703,note_off,0,0,0,,7,,,55,127
62704,note_on,1,0,0,,10,,,57,127
62704,note_on,0,0,0,,2,,,74,127
62704,note_on,0,0,0,,6,,,78,127
62903,note_off,199,0,0,,6,,,78,127
62903,note_off,0,0,0,,2,,,74,127
62903,note_off,0,0,0,,10,,,57,127
62904,note_on,1,0,0,,10,,,45,127
62904,note_on,0,0,0,,1,,,73,127
62904,note_on,0,0,0,,4,,,76,127
63103,note_off,199,0,0,,4,,,76,127
63103,note_off,0,0,0,,1,,,73,127
63103,note_off,0,0,0,,10,,,45,127
63104,note_on,1,0,0,,2,,,50,127
63104,note_on,0,0,0,,2,,,74,127
63104,note_on,0,0,0,,6,,,78,127
63203,note_off,99,0,0,,6,,,78,127
63203,note_off,0,0,0,,2,,,74,127
63204,note_on,1,0,0,,2,,,86,127
63303,note_off,99,0,0,,2,,,86,127
63303,note_off,0,0,0,,2,,,50,127
63304,note_on,1,0,0,,2,,,38,127
63304,note_on,0,0,0,,2,,,74,127
63503,note_off,199,0,0,,2,,,74,127
63503,note_off,0,0,0,,2,,,38,127
63504,note_on,1,0,0,,6,,,42,127
63504,note_on,0,0,0,,10,,,69,127
63703,note_off,199,0,0,,10,,,69,127
63703,note_off,0,0,0,,6,,,42,127
63709,note_on,6,0,0,,12,,,71,127
63709,note_on,0,0,0,,7,,,43,127
63918,note_off,209,0,0,,7,,,43,127
63918,note_off,0,0,0,,12,,,71,127
63921,note_on,3,0,0,,10,,,69,127
63921,note_on,0,0,0,,10,,,45,127
64024,note_off,103,0,0,,10,,,69,127
64027,note_on,3,0,0,,7,,,67,127
64129,note_off,102,0,0,,10,,,45,127
64130,note_off,1,0,0,,7,,,67,127
64133,note_on,3,0,0,,6,,,66,127
64133,note_on,0,0,0,,10,,,45,127
64236,note_off,103,0,0,,6,,,66,127
64239,note_on,3,0,0,,4,,,64,127
64341,note_off,102,0,0,,10,,,45,127
64342,note_off,1,0,0,,4,,,64,127
64365,note_on,23,0,0,,4,,,64,127
64365,note_on,0,0,0,,2,,,38,127
64416,note_off,51,0,0,,4,,,64,127
64418,note_on,2,0,0,,2,,,62,127
64469,note_off,51,0,0,,2,,,62,127
64471,note_on,2,0,0,,4,,,64,127
64522,note_off,51,0,0,,4,,,64,127
64524,note_on,2,0,0,,2,,,62,127
66607,note_off,2083,0,0,,2,,,62,127
66607,note_off,0,0,0,,2,,,38,127
70656,end_of_track,4049,1,0,,,,,,
