tick,type,time,meta,track,program,channel,pitch,tempo,note,velocity
0,copyright,0,1,0,,,,,,
0,program_change,0,0,0,6,0,,,,
0,pitchwheel,0,0,0,,0,0,,,
0,program_change,0,0,0,6,1,,,,
0,pitchwheel,0,0,0,,1,-590,,,
0,program_change,0,0,0,6,2,,,,
0,pitchwheel,0,0,0,,2,-272,,,
0,program_change,0,0,0,6,3,,,,
0,pitchwheel,0,0,0,,3,-353,,,
0,program_change,0,0,0,6,4,,,,
0,pitchwheel,0,0,0,,4,-560,,,
0,program_change,0,0,0,6,5,,,,
0,pitchwheel,0,0,0,,5,-80,,,
0,program_change,0,0,0,6,6,,,,
0,pitchwheel,0,0,0,,6,-625,,,
0,program_change,0,0,0,6,7,,,,
0,pitchwheel,0,0,0,,7,-130,,,
0,program_change,0,0,0,6,8,,,,
0,pitchwheel,0,0,0,,8,-512,,,
0,program_change,0,0,0,6,10,,,,
0,pitchwheel,0,0,0,,10,-464,,,
0,program_change,0,0,0,6,11,,,,
0,pitchwheel,0,0,0,,11,-208,,,
0,program_change,0,0,0,6,12,,,,
0,pitchwheel,0,0,0,,12,-553,,,
0,set_tempo,0,1,0,,,,500000,,
110,note_on,110,0,0,,7,,,67,127
110,note_on,0,0,0,,7,,,79,127
218,note_off,108,0,0,,7,,,79,127
220,note_on,2,0,0,,2,,,74,127
328,note_off,108,0,0,,2,,,74,127
330,note_on,2,0,0,,12,,,71,127
438,note_off,108,0,0,,12,,,71,127
438,note_off,0,0,0,,7,,,67,127
440,note_on,2,0,0,,7,,,67,127
550,note_on,110,0,0,,12,,,71,127
658,note_off,108,0,0,,12,,,71,127
660,note_on,2,0,0,,7,,,79,127
768,note_off,108,0,0,,7,,,79,127
768,note_off,0,0,0,,7,,,67,127
770,note_on,2,0,0,,2,,,62,127
770,note_on,0,0,0,,0,,,72,127
878,note_off,108,0,0,,0,,,72,127
880,note_on,2,0,0,,6,,,78,127
988,note_off,108,0,0,,6,,,78,127
990,note_on,2,0,0,,10,,,81,127
1098,note_off,108,0,0,,10,,,81,127
1098,note_off,0,0,0,,2,,,62,127
1100,note_on,2,0,0,,7,,,67,127
1100,note_on,0,0,0,,7,,,79,127
1208,note_off,108,0,0,,7,,,79,127
1210,note_on,2,0,0,,2,,,74,127
1318,note_off,108,0,0,,2,,,74,127
1320,note_on,2,0,0,,12,,,71,127
1428,note_off,108,0,0,,12,,,71,127
1428,note_off,0,0,0,,7,,,67,127
1430,note_on,2,0,0,,7,,,67,127
1540,note_on,110,0,0,,12,,,71,127
1648,note_off,108,0,0,,12,,,71,127
1650,note_on,2,0,0,,7,,,79,127
1758,note_off,108,0,0,,7,,,79,127
1758,note_off,0,0,0,,7,,,67,127
1760,note_on,2,0,0,,10,,,69,127
1760,note_on,0,0,0,,0,,,72,127
1868,note_off,108,0,0,,0,,,72,127
1870,note_on,2,0,0,,6,,,78,127
1978,note_off,108,0,0,,6,,,78,127
1980,note_on,2,0,0,,10,,,81,127
2088,note_off,108,0,0,,10,,,81,127
2088,note_off,0,0,0,,10,,,69,127
2090,note_on,2,0,0,,12,,,71,127
2090,note_on,0,0,0,,2,,,74,127
2198,note_off,108,0,0,,2,,,74,127
2200,note_on,2,0,0,,2,,,86,127
2308,note_off,108,0,0,,2,,,86,127
2310,note_on,2,0,0,,12,,,83,127
2418,note_off,108,0,0,,12,,,83,127
2418,note_off,0,0,0,,12,,,71,127
2420,note_on,2,0,0,,0,,,60,127
2420,note_on,0,0,0,,4,,,76,127
2528,note_off,108,0,0,,4,,,76,127
2530,note_on,2,0,0,,0,,,84,127
2638,note_off,108,0,0,,0,,,84,127
2640,note_on,2,0,0,,10,,,81,127
2748,note_off,108,0,0,,10,,,81,127
2748,note_off,0,0,0,,0,,,60,127
2750,note_on,2,0,0,,2,,,62,127
2750,note_on,0,0,0,,0,,,72,127
2858,note_off,108,0,0,,0,,,72,127
2860,note_on,2,0,0,,10,,,81,127
2968,note_off,108,0,0,,10,,,81,127
2970,note_on,2,0,0,,6,,,78,127
3078,note_off,108,0,0,,6,,,78,127
3078,note_off,0,0,0,,2,,,62,127
3080,note_on,2,0,0,,7,,,55,127
3080,note_on,0,0,0,,7,,,79,127
3188,note_off,108,0,0,,7,,,79,127
3190,note_on,2,0,0,,2,,,74,127
3298,note_off,108,0,0,,2,,,74,127
3300,note_on,2,0,0,,12,,,71,127
3408,note_off,108,0,0,,12,,,71,127
3410,note_on,2,0,0,,7,,,67,127
3518,note_off,108,0,0,,7,,,67,127
3520,note_on,2,0,0,,2,,,62,127
3628,note_off,108,0,0,,2,,,62,127
3630,note_on,2,0,0,,12,,,59,127
3738,note_off,108,0,0,,12,,,59,127
3738,note_off,0,0,0,,7,,,55,127
3740,note_on,2,0,0,,7,,,55,127
4067,note_off,327,0,0,,7,,,55,127
4069,note_on,2,0,0,,7,,,67,127
4069,note_on,0,0,0,,12,,,83,127
4177,note_off,108,0,0,,12,,,83,127
4179,note_on,2,0,0,,7,,,79,127
4287,note_off,108,0,0,,7,,,79,127
4289,note_on,2,0,0,,2,,,74,127
4397,note_off,108,0,0,,2,,,74,127
4399,note_on,2,0,0,,12,,,71,127
4507,note_off,108,0,0,,12,,,71,127
4509,note_on,2,0,0,,10,,,81,127
4617,note_off,108,0,0,,10,,,81,127
4619,note_on,2,0,0,,1,,,73,127
4727,note_off,108,0,0,,1,,,73,127
4727,note_off,0,0,0,,7,,,67,127
4729,note_on,2,0,0,,6,,,66,127
4729,note_on,0,0,0,,2,,,74,127
4837,note_off,108,0,0,,2,,,74,127
4839,note_on,2,0,0,,6,,,78,127
4947,note_off,108,0,0,,6,,,78,127
4949,note_on,2,0,0,,10,,,81,127
5057,note_off,108,0,0,,10,,,81,127
5057,note_off,0,0,0,,6,,,66,127
5059,note_on,2,0,0,,4,,,64,127
5059,note_on,0,0,0,,7,,,79,127
5167,note_off,108,0,0,,7,,,79,127
5169,note_on,2,0,0,,4,,,76,127
5277,note_off,108,0,0,,4,,,76,127
5279,note_on,2,0,0,,1,,,73,127
5387,note_off,108,0,0,,1,,,73,127
5389,note_on,2,0,0,,7,,,67,127
5497,note_off,108,0,0,,7,,,67,127
5499,note_on,2,0,0,,1,,,73,127
5607,note_off,108,0,0,,1,,,73,127
5609,note_on,2,0,0,,4,,,76,127
5717,note_off,108,0,0,,4,,,76,127
5717,note_off,0,0,0,,4,,,64,127
5719,note_on,2,0,0,,6,,,66,127
5719,note_on,0,0,0,,10,,,69,127
5827,note_off,108,0,0,,10,,,69,127
5829,note_on,2,0,0,,6,,,78,127
5937,note_off,108,0,0,,6,,,78,127
5939,note_on,2,0,0,,2,,,74,127
6047,note_off,108,0,0,,2,,,74,127
6047,note_off,0,0,0,,6,,,66,127
6049,note_on,2,0,0,,7,,,55,127
6049,note_on,0,0,0,,12,,,71,127
6157,note_off,108,0,0,,12,,,71,127
6159,note_on,2,0,0,,7,,,79,127
6267,note_off,108,0,0,,7,,,79,127
6269,note_on,2,0,0,,4,,,76,127
6377,note_off,108,0,0,,4,,,76,127
6377,note_off,0,0,0,,7,,,55,127
6379,note_on,2,0,0,,10,,,57,127
6379,note_on,0,0,0,,6,,,66,127
6487,note_off,108,0,0,,6,,,66,127
6489,note_on,2,0,0,,10,,,69,127
6597,note_off,108,0,0,,10,,,69,127
6599,note_on,2,0,0,,2,,,74,127
6707,note_off,108,0,0,,2,,,74,127
6707,note_off,0,0,0,,10,,,57,127
6709,note_on,2,0,0,,10,,,45,127
6709,note_on,0,0,0,,4,,,64,127
6817,note_off,108,0,0,,4,,,64,127
6819,note_on,2,0,0,,4,,,76,127
6927,note_off,108,0,0,,4,,,76,127
6929,note_on,2,0,0,,1,,,73,127
7037,note_off,108,0,0,,1,,,73,127
7037,note_off,0,0,0,,10,,,45,127
7039,note_on,2,0,0,,2,,,50,127
7039,note_on,0,0,0,,2,,,74,127
7147,note_off,108,0,0,,2,,,74,127
7149,note_on,2,0,0,,10,,,69,127
7257,note_off,108,0,0,,10,,,69,127
7259,note_on,2,0,0,,6,,,66,127
7367,note_off,108,0,0,,6,,,66,127
7369,note_on,2,0,0,,2,,,62,127
7477,note_off,108,0,0,,2,,,62,127
7477,note_off,0,0,0,,2,,,50,127
7479,note_on,2,0,0,,10,,,57,127
7587,note_off,108,0,0,,10,,,57,127
7589,note_on,2,0,0,,2,,,62,127
7697,note_off,108,0,0,,2,,,62,127
7699,note_on,2,0,0,,10,,,69,127
7807,note_off,108,0,0,,10,,,69,127
7809,note_on,2,0,0,,2,,,74,127
7917,note_off,108,0,0,,2,,,74,127
7919,note_on,2,0,0,,6,,,78,127
8027,note_off,108,0,0,,6,,,78,127
8029,note_on,2,0,0,,7,,,67,127
8029,note_on,0,0,0,,7,,,79,127
8137,note_off,108,0,0,,7,,,79,127
8139,note_on,2,0,0,,2,,,74,127
8247,note_off,108,0,0,,2,,,74,127
8249,note_on,2,0,0,,12,,,71,127
8357,note_off,108,0,0,,12,,,71,127
8357,note_off,0,0,0,,7,,,67,127
8359,note_on,2,0,0,,7,,,67,127
8469,note_on,110,0,0,,12,,,71,127
8577,note_off,108,0,0,,12,,,71,127
8579,note_on,2,0,0,,7,,,79,127
8687,note_off,108,0,0,,7,,,79,127
8687,note_off,0,0,0,,7,,,67,127
8689,note_on,2,0,0,,2,,,62,127
8689,note_on,0,0,0,,0,,,72,127
8797,note_off,108,0,0,,0,,,72,127
8799,note_on,2,0,0,,6,,,78,127
8907,note_off,108,0,0,,6,,,78,127
8909,note_on,2,0,0,,10,,,81,127
9017,note_off,108,0,0,,10,,,81,127
9017,note_off,0,0,0,,2,,,62,127
9019,note_on,2,0,0,,7,,,67,127
9019,note_on,0,0,0,,7,,,79,127
9127,note_off,108,0,0,,7,,,79,127
9129,note_on,2,0,0,,2,,,74,127
9237,note_off,108,0,0,,2,,,74,127
9239,note_on,2,0,0,,12,,,71,127
9347,note_off,108,0,0,,12,,,71,127
9347,note_off,0,0,0,,7,,,67,127
9349,note_on,2,0,0,,7,,,67,127
9459,note_on,110,0,0,,12,,,71,127
9567,note_off,108,0,0,,12,,,71,127
9569,note_on,2,0,0,,7,,,79,127
9677,note_off,108,0,0,,7,,,79,127
9677,note_off,0,0,0,,7,,,67,127
9679,note_on,2,0,0,,10,,,69,127
9679,note_on,0,0,0,,0,,,72,127
9787,note_off,108,0,0,,0,,,72,127
9789,note_on,2,0,0,,6,,,78,127
9897,note_off,108,0,0,,6,,,78,127
9899,note_on,2,0,0,,10,,,81,127
10007,note_off,108,0,0,,10,,,81,127
10007,note_off,0,0,0,,10,,,69,127
10009,note_on,2,0,0,,12,,,71,127
10009,note_on,0,0,0,,2,,,74,127
10117,note_off,108,0,0,,2,,,74,127
10119,note_on,2,0,0,,2,,,86,127
10227,note_off,108,0,0,,2,,,86,127
10229,note_on,2,0,0,,12,,,83,127
10337,note_off,108,0,0,,12,,,83,127
10337,note_off,0,0,0,,12,,,71,127
10339,note_on,2,0,0,,0,,,60,127
10339,note_on,0,0,0,,4,,,76,127
10447,note_off,108,0,0,,4,,,76,127
10449,note_on,2,0,0,,0,,,84,127
10557,note_off,108,0,0,,0,,,84,127
10559,note_on,2,0,0,,10,,,81,127
10667,note_off,108,0,0,,10,,,81,127
10667,note_off,0,0,0,,0,,,60,127
10669,note_on,2,0,0,,2,,,62,127
10669,note_on,0,0,0,,0,,,72,127
10777,note_off,108,0,0,,0,,,72,127
10779,note_on,2,0,0,,10,,,81,127
10887,note_off,108,0,0,,10,,,81,127
10889,note_on,2,0,0,,6,,,78,127
10997,note_off,108,0,0,,6,,,78,127
10997,note_off,0,0,0,,2,,,62,127
10999,note_on,2,0,0,,7,,,55,127
10999,note_on,0,0,0,,7,,,79,127
11107,note_off,108,0,0,,7,,,79,127
11109,note_on,2,0,0,,2,,,74,127
11217,note_off,108,0,0,,2,,,74,127
11219,note_on,2,0,0,,12,,,71,127
11327,note_off,108,0,0,,12,,,71,127
11329,note_on,2,0,0,,7,,,67,127
11437,note_off,108,0,0,,7,,,67,127
11439,note_on,2,0,0,,2,,,62,127
11547,note_off,108,0,0,,2,,,62,127
11549,note_on,2,0,0,,12,,,59,127
11657,note_off,108,0,0,,12,,,59,127
11657,note_off,0,0,0,,7,,,55,127
11659,note_on,2,0,0,,7,,,55,127
11769,note_on,110,0,0,,7,,,79,127
11877,note_off,108,0,0,,7,,,79,127
11879,note_on,2,0,0,,10,,,81,127
11987,note_off,108,0,0,,10,,,81,127
11987,note_off,0,0,0,,7,,,55,127
11989,note_on,2,0,0,,7,,,67,127
11989,note_on,0,0,0,,12,,,83,127
12097,note_off,108,0,0,,12,,,83,127
12099,note_on,2,0,0,,7,,,79,127
12207,note_off,108,0,0,,7,,,79,127
12209,note_on,2,0,0,,2,,,74,127
12317,note_off,108,0,0,,2,,,74,127
12319,note_on,2,0,0,,12,,,71,127
12427,note_off,108,0,0,,12,,,71,127
12429,note_on,2,0,0,,10,,,81,127
12537,note_off,108,0,0,,10,,,81,127
12539,note_on,2,0,0,,1,,,73,127
12647,note_off,108,0,0,,1,,,73,127
12647,note_off,0,0,0,,7,,,67,127
12649,note_on,2,0,0,,6,,,66,127
12649,note_on,0,0,0,,2,,,74,127
12757,note_off,108,0,0,,2,,,74,127
12759,note_on,2,0,0,,6,,,78,127
12867,note_off,108,0,0,,6,,,78,127
12869,note_on,2,0,0,,10,,,81,127
12977,note_off,108,0,0,,10,,,81,127
12977,note_off,0,0,0,,6,,,66,127
12979,note_on,2,0,0,,4,,,64,127
12979,note_on,0,0,0,,7,,,79,127
13087,note_off,108,0,0,,7,,,79,127
13089,note_on,2,0,0,,4,,,76,127
13197,note_off,108,0,0,,4,,,76,127
13199,note_on,2,0,0,,1,,,73,127
13307,note_off,108,0,0,,1,,,73,127
13309,note_on,2,0,0,,7,,,67,127
13417,note_off,108,0,0,,7,,,67,127
13419,note_on,2,0,0,,1,,,73,127
13527,note_off,108,0,0,,1,,,73,127
13529,note_on,2,0,0,,4,,,76,127
13637,note_off,108,0,0,,4,,,76,127
13637,note_off,0,0,0,,4,,,64,127
13639,note_on,2,0,0,,6,,,66,127
13639,note_on,0,0,0,,10,,,69,127
13747,note_off,108,0,0,,10,,,69,127
13749,note_on,2,0,0,,6,,,78,127
13857,note_off,108,0,0,,6,,,78,127
13859,note_on,2,0,0,,2,,,74,127
13967,note_off,108,0,0,,2,,,74,127
13967,note_off,0,0,0,,6,,,66,127
13969,note_on,2,0,0,,7,,,55,127
13969,note_on,0,0,0,,12,,,71,127
14077,note_off,108,0,0,,12,,,71,127
14079,note_on,2,0,0,,7,,,79,127
14187,note_off,108,0,0,,7,,,79,127
14189,note_on,2,0,0,,4,,,76,127
14297,note_off,108,0,0,,4,,,76,127
14297,note_off,0,0,0,,7,,,55,127
14299,note_on,2,0,0,,10,,,57,127
14299,note_on,0,0,0,,6,,,66,127
14407,note_off,108,0,0,,6,,,66,127
14409,note_on,2,0,0,,10,,,69,127
14517,note_off,108,0,0,,10,,,69,127
14519,note_on,2,0,0,,2,,,74,127
14627,note_off,108,0,0,,2,,,74,127
14627,note_off,0,0,0,,10,,,57,127
14629,note_on,2,0,0,,10,,,45,127
14629,note_on,0,0,0,,4,,,64,127
14737,note_off,108,0,0,,4,,,64,127
14739,note_on,2,0,0,,4,,,76,127
14847,note_off,108,0,0,,4,,,76,127
14849,note_on,2,0,0,,1,,,73,127
14957,note_off,108,0,0,,1,,,73,127
14957,note_off,0,0,0,,10,,,45,127
14959,note_on,2,0,0,,2,,,50,127
14959,note_on,0,0,0,,2,,,74,127
15067,note_off,108,0,0,,2,,,74,127
15069,note_on,2,0,0,,10,,,69,127
15177,note_off,108,0,0,,10,,,69,127
15179,note_on,2,0,0,,6,,,66,127
15287,note_off,108,0,0,,6,,,66,127
15289,note_on,2,0,0,,2,,,62,127
15397,note_off,108,0,0,,2,,,50,127
15399,note_on,2,0,0,,10,,,57,127
15507,note_off,108,0,0,,10,,,57,127
15509,note_on,2,0,0,,6,,,54,127
15617,note_off,108,0,0,,6,,,54,127
15619,note_on,2,0,0,,2,,,50,127
15728,note_off,109,0,0,,2,,,62,127
15729,note_on,1,0,0,,6,,,66,127
15837,note_off,108,0,0,,6,,,66,127
15839,note_on,2,0,0,,10,,,69,127
15947,note_off,108,0,0,,10,,,69,127
15947,note_off,0,0,0,,2,,,50,127
15949,note_on,2,0,0,,2,,,62,127
15949,note_on,0,0,0,,2,,,74,127
16057,note_off,108,0,0,,2,,,74,127
16059,note_on,2,0,0,,10,,,69,127
16167,note_off,108,0,0,,10,,,69,127
16169,note_on,2,0,0,,6,,,66,127
16277,note_off,108,0,0,,6,,,66,127
16277,note_off,0,0,0,,2,,,62,127
16279,note_on,2,0,0,,0,,,60,127
16279,note_on,0,0,0,,2,,,62,127
16387,note_off,108,0,0,,2,,,62,127
16389,note_on,2,0,0,,6,,,66,127
16497,note_off,108,0,0,,6,,,66,127
16499,note_on,2,0,0,,10,,,69,127
16607,note_off,108,0,0,,10,,,69,127
16607,note_off,0,0,0,,0,,,60,127
16609,note_on,2,0,0,,2,,,62,127
16609,note_on,0,0,0,,12,,,59,127
16609,note_on,0,0,0,,7,,,67,127
16717,note_off,108,0,0,,7,,,67,127
16719,note_on,2,0,0,,12,,,71,127
16827,note_off,108,0,0,,12,,,71,127
16829,note_on,2,0,0,,2,,,74,127
16937,note_off,108,0,0,,2,,,74,127
16937,note_off,0,0,0,,12,,,59,127
16937,note_off,0,0,0,,2,,,62,127
16939,note_on,2,0,0,,10,,,57,127
16939,note_on,0,0,0,,0,,,60,127
16939,note_on,0,0,0,,0,,,72,127
17047,note_off,108,0,0,,0,,,72,127
17049,note_on,2,0,0,,10,,,69,127
17157,note_off,108,0,0,,10,,,69,127
17159,note_on,2,0,0,,4,,,76,127
17267,note_off,108,0,0,,4,,,76,127
17269,note_on,2,0,0,,0,,,72,127
17377,note_off,108,0,0,,0,,,72,127
17379,note_on,2,0,0,,10,,,69,127
17487,note_off,108,0,0,,10,,,69,127
17489,note_on,2,0,0,,4,,,76,127
17597,note_off,108,0,0,,4,,,76,127
17597,note_off,0,0,0,,0,,,60,127
17597,note_off,0,0,0,,10,,,57,127
17599,note_on,2,0,0,,0,,,60,127
17599,note_on,0,0,0,,7,,,55,127
17599,note_on,0,0,0,,0,,,72,127
17707,note_off,108,0,0,,0,,,72,127
17709,note_on,2,0,0,,10,,,69,127
17817,note_off,108,0,0,,10,,,69,127
17819,note_on,2,0,0,,4,,,76,127
17927,note_off,108,0,0,,4,,,76,127
17927,note_off,0,0,0,,7,,,55,127
17927,note_off,0,0,0,,0,,,60,127
17929,note_on,2,0,0,,0,,,60,127
17929,note_on,0,0,0,,6,,,54,127
17929,note_on,0,0,0,,2,,,62,127
17929,note_on,0,0,0,,0,,,72,127
18037,note_off,108,0,0,,0,,,72,127
18039,note_on,2,0,0,,10,,,69,127
18147,note_off,108,0,0,,10,,,69,127
18149,note_on,2,0,0,,10,,,81,127
18257,note_off,108,0,0,,10,,,81,127
18259,note_on,2,0,0,,0,,,72,127
18367,note_off,108,0,0,,0,,,72,127
18369,note_on,2,0,0,,10,,,69,127
18477,note_off,108,0,0,,10,,,69,127
18479,note_on,2,0,0,,10,,,81,127
18587,note_off,108,0,0,,10,,,81,127
18587,note_off,0,0,0,,2,,,62,127
18587,note_off,0,0,0,,6,,,54,127
18587,note_off,0,0,0,,0,,,60,127
18589,note_on,2,0,0,,7,,,55,127
18589,note_on,0,0,0,,2,,,62,127
18589,note_on,0,0,0,,0,,,72,127
18697,note_off,108,0,0,,0,,,72,127
18699,note_on,2,0,0,,12,,,71,127
18807,note_off,108,0,0,,12,,,71,127
18809,note_on,2,0,0,,7,,,79,127
18917,note_off,108,0,0,,7,,,79,127
18917,note_off,0,0,0,,2,,,62,127
18917,note_off,0,0,0,,7,,,55,127
18919,note_on,2,0,0,,2,,,50,127
18919,note_on,0,0,0,,12,,,71,127
19246,note_off,327,0,0,,12,,,71,127
19248,note_on,2,0,0,,12,,,71,127
19301,note_off,53,0,0,,12,,,71,127
19303,note_on,2,0,0,,10,,,69,127
19356,note_off,53,0,0,,10,,,69,127
19358,note_on,2,0,0,,12,,,71,127
19411,note_off,53,0,0,,12,,,71,127
19413,note_on,2,0,0,,10,,,69,127
19466,note_off,53,0,0,,10,,,69,127
19468,note_on,2,0,0,,7,,,67,127
19576,note_off,108,0,0,,7,,,67,127
19578,note_on,2,0,0,,10,,,69,127
19905,note_off,327,0,0,,10,,,69,127
19905,note_off,0,0,0,,2,,,50,127
19907,note_on,2,0,0,,2,,,62,127
19907,note_on,0,0,0,,10,,,81,127
20015,note_off,108,0,0,,10,,,81,127
20017,note_on,2,0,0,,6,,,78,127
20125,note_off,108,0,0,,6,,,78,127
20127,note_on,2,0,0,,2,,,74,127
20235,note_off,108,0,0,,2,,,74,127
20237,note_on,2,0,0,,10,,,69,127
20345,note_off,108,0,0,,10,,,69,127
20347,note_on,2,0,0,,6,,,78,127
20455,note_off,108,0,0,,6,,,78,127
20457,note_on,2,0,0,,10,,,81,127
20565,note_off,108,0,0,,10,,,81,127
20565,note_off,0,0,0,,2,,,62,127
20567,note_on,2,0,0,,12,,,59,127
20567,note_on,0,0,0,,12,,,71,127
20675,note_off,108,0,0,,12,,,71,127
20677,note_on,2,0,0,,7,,,79,127
20785,note_off,108,0,0,,7,,,79,127
20787,note_on,2,0,0,,12,,,83,127
20895,note_off,108,0,0,,12,,,83,127
20895,note_off,0,0,0,,12,,,59,127
20897,note_on,2,0,0,,10,,,57,127
20897,note_on,0,0,0,,0,,,84,127
21005,note_off,108,0,0,,0,,,84,127
21007,note_on,2,0,0,,10,,,81,127
21115,note_off,108,0,0,,10,,,81,127
21117,note_on,2,0,0,,6,,,78,127
21225,note_off,108,0,0,,6,,,78,127
21227,note_on,2,0,0,,0,,,72,127
21335,note_off,108,0,0,,0,,,72,127
21337,note_on,2,0,0,,10,,,81,127
21445,note_off,108,0,0,,10,,,81,127
21447,note_on,2,0,0,,0,,,84,127
21555,note_off,108,0,0,,0,,,84,127
21555,note_off,0,0,0,,10,,,57,127
21557,note_on,2,0,0,,7,,,55,127
21557,note_on,0,0,0,,12,,,83,127
21665,note_off,108,0,0,,12,,,83,127
21667,note_on,2,0,0,,7,,,79,127
21775,note_off,108,0,0,,7,,,79,127
21777,note_on,2,0,0,,2,,,74,127
21885,note_off,108,0,0,,2,,,74,127
21885,note_off,0,0,0,,7,,,55,127
21887,note_on,2,0,0,,0,,,60,127
21887,note_on,0,0,0,,4,,,76,127
21995,note_off,108,0,0,,4,,,76,127
21997,note_on,2,0,0,,0,,,72,127
22105,note_off,108,0,0,,0,,,72,127
22107,note_on,2,0,0,,10,,,81,127
22215,note_off,108,0,0,,10,,,81,127
22215,note_off,0,0,0,,0,,,60,127
22217,note_on,2,0,0,,2,,,62,127
22217,note_on,0,0,0,,7,,,79,127
22325,note_off,108,0,0,,7,,,79,127
22327,note_on,2,0,0,,2,,,74,127
22435,note_off,108,0,0,,2,,,74,127
22437,note_on,2,0,0,,12,,,71,127
22545,note_off,108,0,0,,12,,,71,127
22545,note_off,0,0,0,,2,,,62,127
22547,note_on,2,0,0,,2,,,50,127
22547,note_on,0,0,0,,10,,,69,127
22655,note_off,108,0,0,,10,,,69,127
22657,note_on,2,0,0,,10,,,81,127
22765,note_off,108,0,0,,10,,,81,127
22767,note_on,2,0,0,,6,,,78,127
22875,note_off,108,0,0,,6,,,78,127
22875,note_off,0,0,0,,2,,,50,127
22877,note_on,2,0,0,,7,,,55,127
22877,note_on,0,0,0,,7,,,79,127
22985,note_off,108,0,0,,7,,,79,127
22987,note_on,2,0,0,,2,,,74,127
23095,note_off,108,0,0,,2,,,74,127
23097,note_on,2,0,0,,12,,,71,127
23205,note_off,108,0,0,,12,,,71,127
23207,note_on,2,0,0,,7,,,67,127
23315,note_off,108,0,0,,7,,,67,127
23317,note_off,2,0,0,,7,,,55,127
23317,note_on,0,0,0,,2,,,62,127
23425,note_off,108,0,0,,2,,,62,127
23427,note_on,2,0,0,,12,,,59,127
23535,note_off,108,0,0,,12,,,59,127
23537,note_on,2,0,0,,2,,,62,127
23645,note_off,108,0,0,,2,,,62,127
23647,note_on,2,0,0,,6,,,66,127
23755,note_off,108,0,0,,6,,,66,127
23757,note_on,2,0,0,,10,,,69,127
23865,note_off,108,0,0,,10,,,69,127
23867,note_on,2,0,0,,2,,,62,127
23867,note_on,0,0,0,,2,,,74,127
23975,note_off,108,0,0,,2,,,74,127
23977,note_on,2,0,0,,10,,,69,127
24085,note_off,108,0,0,,10,,,69,127
24087,note_on,2,0,0,,6,,,66,127
24195,note_off,108,0,0,,6,,,66,127
24195,note_off,0,0,0,,2,,,62,127
24197,note_on,2,0,0,,0,,,60,127
24197,note_on,0,0,0,,2,,,62,127
24305,note_off,108,0,0,,2,,,62,127
24307,note_on,2,0,0,,6,,,66,127
24415,note_off,108,0,0,,6,,,66,127
24417,note_on,2,0,0,,10,,,69,127
24525,note_off,108,0,0,,10,,,69,127
24525,note_off,0,0,0,,0,,,60,127
24527,note_on,2,0,0,,2,,,62,127
24527,note_on,0,0,0,,12,,,59,127
24527,note_on,0,0,0,,7,,,67,127
24635,note_off,108,0,0,,7,,,67,127
24637,note_on,2,0,0,,12,,,71,127
24745,note_off,108,0,0,,12,,,71,127
24747,note_on,2,0,0,,2,,,74,127
24855,note_off,108,0,0,,2,,,74,127
24855,note_off,0,0,0,,12,,,59,127
24855,note_off,0,0,0,,2,,,62,127
24857,note_on,2,0,0,,10,,,57,127
24857,note_on,0,0,0,,0,,,60,127
24857,note_on,0,0,0,,0,,,72,127
24965,note_off,108,0,0,,0,,,72,127
24967,note_on,2,0,0,,10,,,69,127
25075,note_off,108,0,0,,10,,,69,127
25077,note_on,2,0,0,,4,,,76,127
25185,note_off,108,0,0,,4,,,76,127
25187,note_on,2,0,0,,0,,,72,127
25295,note_off,108,0,0,,0,,,72,127
25297,note_on,2,0,0,,10,,,69,127
25405,note_off,108,0,0,,10,,,69,127
25407,note_on,2,0,0,,4,,,76,127
25515,note_off,108,0,0,,4,,,76,127
25515,note_off,0,0,0,,0,,,60,127
25515,note_off,0,0,0,,10,,,57,127
25517,note_on,2,0,0,,0,,,60,127
25517,note_on,0,0,0,,7,,,55,127
25517,note_on,0,0,0,,0,,,72,127
25625,note_off,108,0,0,,0,,,72,127
25627,note_on,2,0,0,,10,,,69,127
25735,note_off,108,0,0,,10,,,69,127
25737,note_on,2,0,0,,4,,,76,127
25845,note_off,108,0,0,,4,,,76,127
25845,note_off,0,0,0,,7,,,55,127
25845,note_off,0,0,0,,0,,,60,127
25847,note_on,2,0,0,,0,,,60,127
25847,note_on,0,0,0,,6,,,54,127
25847,note_on,0,0,0,,2,,,62,127
25847,note_on,0,0,0,,0,,,72,127
25955,note_off,108,0,0,,0,,,72,127
25957,note_on,2,0,0,,10,,,69,127
26065,note_off,108,0,0,,10,,,69,127
26067,note_on,2,0,0,,10,,,81,127
26175,note_off,108,0,0,,10,,,81,127
26177,note_on,2,0,0,,0,,,72,127
26285,note_off,108,0,0,,0,,,72,127
26287,note_on,2,0,0,,10,,,69,127
26395,note_off,108,0,0,,10,,,69,127
26397,note_on,2,0,0,,10,,,81,127
26505,note_off,108,0,0,,10,,,81,127
26505,note_off,0,0,0,,2,,,62,127
26505,note_off,0,0,0,,6,,,54,127
26505,note_off,0,0,0,,0,,,60,127
26507,note_on,2,0,0,,7,,,55,127
26507,note_on,0,0,0,,2,,,62,127
26507,note_on,0,0,0,,0,,,72,127
26615,note_off,108,0,0,,0,,,72,127
26617,note_on,2,0,0,,12,,,71,127
26725,note_off,108,0,0,,12,,,71,127
26727,note_on,2,0,0,,7,,,79,127
26835,note_off,108,0,0,,7,,,79,127
26835,note_off,0,0,0,,2,,,62,127
26835,note_off,0,0,0,,7,,,55,127
26837,note_on,2,0,0,,2,,,38,127
26837,note_on,0,0,0,,12,,,71,127
27164,note_off,327,0,0,,12,,,71,127
27166,note_on,2,0,0,,12,,,71,127
27219,note_off,53,0,0,,12,,,71,127
27221,note_on,2,0,0,,10,,,69,127
27274,note_off,53,0,0,,10,,,69,127
27276,note_on,2,0,0,,12,,,71,127
27329,note_off,53,0,0,,12,,,71,127
27331,note_on,2,0,0,,10,,,69,127
27384,note_off,53,0,0,,10,,,69,127
27386,note_on,2,0,0,,7,,,67,127
27494,note_off,108,0,0,,7,,,67,127
27496,note_on,2,0,0,,10,,,69,127
27823,note_off,327,0,0,,10,,,69,127
27823,note_off,0,0,0,,2,,,38,127
27825,note_on,2,0,0,,2,,,38,127
27825,note_on,0,0,0,,10,,,45,127
27825,note_on,0,0,0,,2,,,50,127
27825,note_on,0,0,0,,10,,,69,127
27825,note_on,0,0,0,,2,,,74,127
27825,note_on,0,0,0,,6,,,78,127
27825,note_on,0,0,0,,10,,,81,127
27933,note_off,108,0,0,,10,,,81,127
27933,note_off,0,0,0,,6,,,78,127
27935,note_on,2,0,0,,6,,,78,127
28040,note_off,105,0,0,,2,,,74,127
28043,note_off,3,0,0,,6,,,78,127
28045,note_on,2,0,0,,2,,,74,127
28151,note_off,106,0,0,,10,,,69,127
28153,note_off,2,0,0,,2,,,74,127
28155,note_on,2,0,0,,10,,,69,127
28263,note_off,108,0,0,,10,,,69,127
28265,note_on,2,0,0,,6,,,78,127
28373,note_off,108,0,0,,6,,,78,127
28375,note_on,2,0,0,,10,,,81,127
28483,note_off,108,0,0,,10,,,81,127
28483,note_off,0,0,0,,2,,,50,127
28483,note_off,0,0,0,,10,,,45,127
28483,note_off,0,0,0,,2,,,38,127
28485,note_on,2,0,0,,7,,,43,127
28485,note_on,0,0,0,,12,,,47,127
28485,note_on,0,0,0,,12,,,35,127
28485,note_on,0,0,0,,12,,,71,127
28593,note_off,108,0,0,,12,,,71,127
28595,note_on,2,0,0,,7,,,79,127
28703,note_off,108,0,0,,7,,,79,127
28705,note_on,2,0,0,,12,,,83,127
28813,note_off,108,0,0,,12,,,83,127
28813,note_off,0,0,0,,12,,,35,127
28813,note_off,0,0,0,,12,,,47,127
28813,note_off,0,0,0,,7,,,43,127
28815,note_on,2,0,0,,10,,,45,127
28815,note_on,0,0,0,,10,,,33,127
28815,note_on,0,0,0,,6,,,42,127
28815,note_on,0,0,0,,0,,,84,127
28923,note_off,108,0,0,,0,,,84,127
28925,note_on,2,0,0,,10,,,81,127
29033,note_off,108,0,0,,10,,,81,127
29035,note_on,2,0,0,,6,,,78,127
29143,note_off,108,0,0,,6,,,78,127
29145,note_on,2,0,0,,0,,,72,127
29253,note_off,108,0,0,,0,,,72,127
29255,note_on,2,0,0,,10,,,81,127
29363,note_off,108,0,0,,10,,,81,127
29365,note_on,2,0,0,,0,,,84,127
29473,note_off,108,0,0,,0,,,84,127
29473,note_off,0,0,0,,6,,,42,127
29473,note_off,0,0,0,,10,,,33,127
29473,note_off,0,0,0,,10,,,45,127
29475,note_on,2,0,0,,2,,,38,127
29475,note_on,0,0,0,,7,,,31,127
29475,note_on,0,0,0,,7,,,43,127
29475,note_on,0,0,0,,12,,,83,127
29583,note_off,108,0,0,,12,,,83,127
29585,note_on,2,0,0,,7,,,79,127
29693,note_off,108,0,0,,7,,,79,127
29695,note_on,2,0,0,,2,,,74,127
29803,note_off,108,0,0,,2,,,74,127
29803,note_off,0,0,0,,7,,,43,127
29803,note_off,0,0,0,,7,,,31,127
29803,note_off,0,0,0,,2,,,38,127
29805,note_on,2,0,0,,0,,,36,127
29805,note_on,0,0,0,,0,,,48,127
29805,note_on,0,0,0,,7,,,43,127
29805,note_on,0,0,0,,4,,,76,127
29913,note_off,108,0,0,,4,,,76,127
29915,note_on,2,0,0,,0,,,72,127
30023,note_off,108,0,0,,0,,,72,127
30025,note_on,2,0,0,,10,,,81,127
30133,note_off,108,0,0,,10,,,81,127
30133,note_off,0,0,0,,7,,,43,127
30133,note_off,0,0,0,,0,,,48,127
30133,note_off,0,0,0,,0,,,36,127
30135,note_on,2,0,0,,2,,,50,127
30135,note_on,0,0,0,,2,,,38,127
30135,note_on,0,0,0,,7,,,79,127
30243,note_off,108,0,0,,7,,,79,127
30245,note_on,2,0,0,,2,,,74,127
30353,note_off,108,0,0,,2,,,74,127
30355,note_on,2,0,0,,12,,,71,127
30463,note_off,108,0,0,,12,,,71,127
30463,note_off,0,0,0,,2,,,38,127
30463,note_off,0,0,0,,2,,,50,127
30465,note_on,2,0,0,,2,,,38,127
30465,note_on,0,0,0,,2,,,50,127
30465,note_on,0,0,0,,10,,,45,127
30465,note_on,0,0,0,,10,,,69,127
30573,note_off,108,0,0,,10,,,69,127
30575,note_on,2,0,0,,10,,,81,127
30683,note_off,108,0,0,,10,,,81,127
30685,note_on,2,0,0,,6,,,78,127
30793,note_off,108,0,0,,6,,,78,127
30793,note_off,0,0,0,,10,,,45,127
30793,note_off,0,0,0,,2,,,50,127
30793,note_off,0,0,0,,2,,,38,127
30795,note_on,2,0,0,,7,,,31,127
30795,note_on,0,0,0,,7,,,43,127
30795,note_on,0,0,0,,7,,,79,127
30903,note_off,108,0,0,,7,,,79,127
30905,note_on,2,0,0,,2,,,74,127
31013,note_off,108,0,0,,2,,,74,127
31015,note_on,2,0,0,,12,,,71,127
31123,note_off,108,0,0,,12,,,71,127
31125,note_on,2,0,0,,7,,,67,127
31233,note_off,108,0,0,,7,,,67,127
31235,note_on,2,0,0,,2,,,62,127
31343,note_off,108,0,0,,2,,,62,127
31345,note_on,2,0,0,,12,,,59,127
31453,note_off,108,0,0,,12,,,59,127
31454,note_off,1,0,0,,7,,,43,127
31455,note_on,1,0,0,,7,,,55,127
31563,note_off,108,0,0,,7,,,55,127
31565,note_on,2,0,0,,2,,,50,127
31673,note_off,108,0,0,,2,,,50,127
31675,note_on,2,0,0,,12,,,47,127
31782,note_off,107,0,0,,7,,,31,127
31783,note_off,1,0,0,,12,,,47,127
31785,note_on,2,0,0,,7,,,43,127
31893,note_off,108,0,0,,7,,,43,127
31895,note_on,2,0,0,,2,,,38,127
32003,note_off,108,0,0,,2,,,38,127
32005,note_on,2,0,0,,12,,,35,127
32113,note_off,108,0,0,,12,,,35,127
32115,note_on,2,0,0,,7,,,31,127
33898,note_off,1783,0,0,,7,,,31,127
35328,end_of_track,1430,1,0,,,,,,
