tick,type,time,meta,track,program,channel,pitch,tempo,note,velocity
0,copyright,0,1,0,,,,,,
0,program_change,0,0,0,6,0,,,,
0,pitchwheel,0,0,0,,0,0,,,
0,program_change,0,0,0,6,1,,,,
0,pitchwheel,0,0,0,,1,-590,,,
0,program_change,0,0,0,6,2,,,,
0,pitchwheel,0,0,0,,2,-272,,,
0,program_change,0,0,0,6,3,,,,
0,pitchwheel,0,0,0,,3,-353,,,
0,program_change,0,0,0,6,4,,,,
0,pitchwheel,0,0,0,,4,-560,,,
0,program_change,0,0,0,6,5,,,,
0,pitchwheel,0,0,0,,5,-80,,,
0,program_change,0,0,0,6,6,,,,
0,pitchwheel,0,0,0,,6,-625,,,
0,program_change,0,0,0,6,7,,,,
0,pitchwheel,0,0,0,,7,-130,,,
0,program_change,0,0,0,6,8,,,,
0,pitchwheel,0,0,0,,8,-512,,,
0,program_change,0,0,0,6,10,,,,
0,pitchwheel,0,0,0,,10,-464,,,
0,program_change,0,0,0,6,11,,,,
0,pitchwheel,0,0,0,,11,-208,,,
0,program_change,0,0,0,6,12,,,,
0,pitchwheel,0,0,0,,12,-553,,,
0,set_tempo,0,1,0,,,,500000,,
110,note_on,110,0,0,,7,,,67,127
219,note_off,109,0,0,,7,,,67,127
220,note_on,1,0,0,,6,,,66,127
329,note_off,109,0,0,,6,,,66,127
330,note_on,1,0,0,,7,,,67,127
330,note_on,0,0,0,,12,,,71,127
439,note_off,109,0,0,,7,,,67,127
440,note_on,1,0,0,,2,,,62,127
549,note_off,109,0,0,,2,,,62,127
549,note_off,0,0,0,,12,,,71,127
550,note_on,1,0,0,,12,,,59,127
550,note_on,0,0,0,,12,,,71,127
659,note_off,109,0,0,,12,,,59,127
660,note_on,1,0,0,,7,,,55,127
769,note_off,109,0,0,,7,,,55,127
769,note_off,0,0,0,,12,,,71,127
770,note_on,1,0,0,,7,,,67,127
770,note_on,0,0,0,,2,,,74,127
879,note_off,109,0,0,,7,,,67,127
880,note_on,1,0,0,,6,,,66,127
989,note_off,109,0,0,,6,,,66,127
989,note_off,0,0,0,,2,,,74,127
990,note_on,1,0,0,,7,,,67,127
990,note_on,0,0,0,,12,,,71,127
1099,note_off,109,0,0,,7,,,67,127
1100,note_on,1,0,0,,2,,,62,127
1209,note_off,109,0,0,,2,,,62,127
1210,note_on,1,0,0,,12,,,59,127
1319,note_off,109,0,0,,12,,,59,127
1320,note_off,1,0,0,,12,,,71,127
1320,note_on,0,0,0,,7,,,55,127
1429,note_off,109,0,0,,7,,,55,127
1430,note_on,1,0,0,,7,,,67,127
1539,note_off,109,0,0,,7,,,67,127
1540,note_on,1,0,0,,6,,,66,127
1649,note_off,109,0,0,,6,,,66,127
1650,note_on,1,0,0,,7,,,67,127
1650,note_on,0,0,0,,12,,,71,127
1759,note_off,109,0,0,,7,,,67,127
1760,note_on,1,0,0,,2,,,62,127
1869,note_off,109,0,0,,2,,,62,127
1869,note_off,0,0,0,,12,,,71,127
1870,note_on,1,0,0,,12,,,59,127
1870,note_on,0,0,0,,12,,,71,127
1979,note_off,109,0,0,,12,,,59,127
1980,note_on,1,0,0,,7,,,55,127
2089,note_off,109,0,0,,7,,,55,127
2089,note_off,0,0,0,,12,,,71,127
2090,note_on,1,0,0,,7,,,67,127
2090,note_on,0,0,0,,2,,,74,127
2199,note_off,109,0,0,,7,,,67,127
2200,note_on,1,0,0,,6,,,66,127
2309,note_off,109,0,0,,6,,,66,127
2309,note_off,0,0,0,,2,,,74,127
2310,note_on,1,0,0,,7,,,67,127
2310,note_on,0,0,0,,12,,,71,127
2419,note_off,109,0,0,,7,,,67,127
2420,note_on,1,0,0,,2,,,62,127
2529,note_off,109,0,0,,2,,,62,127
2530,note_on,1,0,0,,12,,,59,127
2639,note_off,109,0,0,,12,,,59,127
2640,note_off,1,0,0,,12,,,71,127
2640,note_on,0,0,0,,7,,,55,127
2749,note_off,109,0,0,,7,,,55,127
2750,note_on,1,0,0,,7,,,67,127
2750,note_on,0,0,0,,12,,,71,127
2859,note_off,109,0,0,,7,,,67,127
2860,note_on,1,0,0,,6,,,66,127
2969,note_off,109,0,0,,6,,,66,127
2969,note_off,0,0,0,,12,,,71,127
2970,note_on,1,0,0,,4,,,64,127
2970,note_on,0,0,0,,0,,,72,127
3079,note_off,109,0,0,,4,,,64,127
3080,note_on,1,0,0,,2,,,62,127
3189,note_off,109,0,0,,2,,,62,127
3189,note_off,0,0,0,,0,,,72,127
3190,note_on,1,0,0,,0,,,60,127
3190,note_on,0,0,0,,2,,,74,127
3299,note_off,109,0,0,,0,,,60,127
3300,note_on,1,0,0,,12,,,59,127
3409,note_off,109,0,0,,12,,,59,127
3409,note_off,0,0,0,,2,,,74,127
3410,note_on,1,0,0,,0,,,60,127
3410,note_on,0,0,0,,4,,,76,127
3519,note_off,109,0,0,,0,,,60,127
3520,note_on,1,0,0,,12,,,59,127
3629,note_off,109,0,0,,12,,,59,127
3629,note_off,0,0,0,,4,,,76,127
3630,note_on,1,0,0,,10,,,57,127
3630,note_on,0,0,0,,6,,,78,127
3739,note_off,109,0,0,,10,,,57,127
3740,note_on,1,0,0,,7,,,55,127
3849,note_off,109,0,0,,7,,,55,127
3849,note_off,0,0,0,,6,,,78,127
3850,note_on,1,0,0,,6,,,54,127
3850,note_on,0,0,0,,7,,,79,127
3959,note_off,109,0,0,,6,,,54,127
3960,note_on,1,0,0,,4,,,52,127
4069,note_off,109,0,0,,4,,,52,127
4069,note_off,0,0,0,,7,,,79,127
4070,note_on,1,0,0,,2,,,50,127
4070,note_on,0,0,0,,10,,,69,127
4179,note_off,109,0,0,,2,,,50,127
4180,note_on,1,0,0,,0,,,48,127
4289,note_off,109,0,0,,0,,,48,127
4289,note_off,0,0,0,,10,,,69,127
4290,note_on,1,0,0,,12,,,47,127
4290,note_on,0,0,0,,12,,,71,127
4399,note_off,109,0,0,,12,,,47,127
4400,note_on,1,0,0,,10,,,45,127
4509,note_off,109,0,0,,10,,,45,127
4509,note_off,0,0,0,,12,,,71,127
4510,note_on,1,0,0,,7,,,43,127
4510,note_on,0,0,0,,0,,,72,127
4619,note_off,109,0,0,,7,,,43,127
4620,note_on,1,0,0,,6,,,42,127
4729,note_off,109,0,0,,6,,,42,127
4729,note_off,0,0,0,,0,,,72,127
4730,note_on,1,0,0,,7,,,43,127
4730,note_on,0,0,0,,2,,,74,127
4839,note_off,109,0,0,,2,,,74,127
4840,note_on,1,0,0,,12,,,71,127
4949,note_off,109,0,0,,12,,,71,127
4950,note_on,1,0,0,,0,,,72,127
5059,note_off,109,0,0,,0,,,72,127
5060,note_on,1,0,0,,10,,,69,127
5169,note_off,109,0,0,,10,,,69,127
5170,note_on,1,0,0,,12,,,71,127
5279,note_off,109,0,0,,12,,,71,127
5280,note_off,1,0,0,,7,,,43,127
5280,note_on,0,0,0,,7,,,67,127
5389,note_off,109,0,0,,7,,,67,127
5390,note_on,1,0,0,,7,,,67,127
5390,note_on,0,0,0,,12,,,71,127
5499,note_off,109,0,0,,7,,,67,127
5500,note_on,1,0,0,,6,,,66,127
5609,note_off,109,0,0,,6,,,66,127
5609,note_off,0,0,0,,12,,,71,127
5610,note_on,1,0,0,,4,,,64,127
5610,note_on,0,0,0,,0,,,72,127
5719,note_off,109,0,0,,4,,,64,127
5720,note_on,1,0,0,,2,,,62,127
5829,note_off,109,0,0,,2,,,62,127
5829,note_off,0,0,0,,0,,,72,127
5830,note_on,1,0,0,,0,,,60,127
5830,note_on,0,0,0,,2,,,74,127
5939,note_off,109,0,0,,0,,,60,127
5940,note_on,1,0,0,,12,,,59,127
6049,note_off,109,0,0,,12,,,59,127
6049,note_off,0,0,0,,2,,,74,127
6050,note_on,1,0,0,,0,,,60,127
6050,note_on,0,0,0,,4,,,76,127
6159,note_off,109,0,0,,0,,,60,127
6160,note_on,1,0,0,,12,,,59,127
6269,note_off,109,0,0,,12,,,59,127
6269,note_off,0,0,0,,4,,,76,127
6270,note_on,1,0,0,,10,,,57,127
6270,note_on,0,0,0,,6,,,78,127
6379,note_off,109,0,0,,10,,,57,127
6380,note_on,1,0,0,,7,,,55,127
6489,note_off,109,0,0,,7,,,55,127
6489,note_off,0,0,0,,6,,,78,127
6490,note_on,1,0,0,,6,,,54,127
6490,note_on,0,0,0,,7,,,79,127
6599,note_off,109,0,0,,6,,,54,127
6600,note_on,1,0,0,,4,,,52,127
6709,note_off,109,0,0,,4,,,52,127
6709,note_off,0,0,0,,7,,,79,127
6710,note_on,1,0,0,,2,,,50,127
6710,note_on,0,0,0,,10,,,69,127
6819,note_off,109,0,0,,2,,,50,127
6820,note_on,1,0,0,,0,,,48,127
6929,note_off,109,0,0,,0,,,48,127
6929,note_off,0,0,0,,10,,,69,127
6930,note_on,1,0,0,,12,,,47,127
6930,note_on,0,0,0,,12,,,71,127
7039,note_off,109,0,0,,12,,,47,127
7040,note_on,1,0,0,,10,,,45,127
7149,note_off,109,0,0,,10,,,45,127
7149,note_off,0,0,0,,12,,,71,127
7150,note_on,1,0,0,,7,,,43,127
7150,note_on,0,0,0,,0,,,72,127
7259,note_off,109,0,0,,7,,,43,127
7260,note_on,1,0,0,,6,,,42,127
7369,note_off,109,0,0,,6,,,42,127
7369,note_off,0,0,0,,0,,,72,127
7370,note_on,1,0,0,,7,,,43,127
7370,note_on,0,0,0,,2,,,74,127
7479,note_off,109,0,0,,2,,,74,127
7480,note_on,1,0,0,,12,,,71,127
7589,note_off,109,0,0,,12,,,71,127
7590,note_on,1,0,0,,0,,,72,127
7699,note_off,109,0,0,,0,,,72,127
7700,note_on,1,0,0,,10,,,69,127
7805,note_off,105,0,0,,7,,,43,127
7808,note_off,3,0,0,,10,,,69,127
7809,note_on,1,0,0,,12,,,71,127
7918,note_off,109,0,0,,12,,,71,127
7919,note_on,1,0,0,,7,,,67,127
8028,note_off,109,0,0,,7,,,67,127
8029,note_on,1,0,0,,7,,,55,127
8029,note_on,0,0,0,,12,,,71,127
8138,note_off,109,0,0,,12,,,71,127
8139,note_on,1,0,0,,7,,,79,127
8248,note_off,109,0,0,,7,,,79,127
8248,note_off,0,0,0,,7,,,55,127
8249,note_on,1,0,0,,12,,,59,127
8249,note_on,0,0,0,,2,,,74,127
8358,note_off,109,0,0,,2,,,74,127
8359,note_on,1,0,0,,12,,,83,127
8468,note_off,109,0,0,,12,,,83,127
8468,note_off,0,0,0,,12,,,59,127
8469,note_on,1,0,0,,7,,,55,127
8469,note_on,0,0,0,,12,,,71,127
8578,note_off,109,0,0,,12,,,71,127
8579,note_on,1,0,0,,2,,,74,127
8688,note_off,109,0,0,,2,,,74,127
8688,note_off,0,0,0,,7,,,55,127
8689,note_on,1,0,0,,2,,,50,127
8689,note_on,0,0,0,,0,,,72,127
8798,note_off,109,0,0,,0,,,72,127
8799,note_on,1,0,0,,10,,,81,127
8908,note_off,109,0,0,,10,,,81,127
8908,note_off,0,0,0,,2,,,50,127
8909,note_on,1,0,0,,10,,,57,127
8909,note_on,0,0,0,,10,,,69,127
9018,note_off,109,0,0,,10,,,69,127
9019,note_on,1,0,0,,6,,,78,127
9128,note_off,109,0,0,,6,,,78,127
9128,note_off,0,0,0,,10,,,57,127
9129,note_on,1,0,0,,0,,,60,127
9129,note_on,0,0,0,,0,,,72,127
9238,note_off,109,0,0,,0,,,72,127
9239,note_on,1,0,0,,10,,,81,127
9348,note_off,109,0,0,,10,,,81,127
9348,note_off,0,0,0,,0,,,60,127
9349,note_on,1,0,0,,7,,,55,127
9349,note_on,0,0,0,,12,,,71,127
9458,note_off,109,0,0,,12,,,71,127
9459,note_on,1,0,0,,7,,,79,127
9568,note_off,109,0,0,,7,,,79,127
9568,note_off,0,0,0,,7,,,55,127
9569,note_on,1,0,0,,12,,,59,127
9569,note_on,0,0,0,,2,,,74,127
9678,note_off,109,0,0,,2,,,74,127
9679,note_on,1,0,0,,12,,,83,127
9788,note_off,109,0,0,,12,,,83,127
9788,note_off,0,0,0,,12,,,59,127
9789,note_on,1,0,0,,7,,,55,127
9789,note_on,0,0,0,,12,,,71,127
9898,note_off,109,0,0,,12,,,71,127
9899,note_on,1,0,0,,2,,,74,127
10008,note_off,109,0,0,,2,,,74,127
10008,note_off,0,0,0,,7,,,55,127
10009,note_on,1,0,0,,2,,,50,127
10009,note_on,0,0,0,,0,,,72,127
10118,note_off,109,0,0,,0,,,72,127
10119,note_on,1,0,0,,10,,,81,127
10228,note_off,109,0,0,,10,,,81,127
10228,note_off,0,0,0,,2,,,50,127
10229,note_on,1,0,0,,10,,,57,127
10229,note_on,0,0,0,,10,,,69,127
10338,note_off,109,0,0,,10,,,69,127
10339,note_on,1,0,0,,6,,,78,127
10448,note_off,109,0,0,,6,,,78,127
10448,note_off,0,0,0,,10,,,57,127
10449,note_on,1,0,0,,0,,,60,127
10449,note_on,0,0,0,,0,,,72,127
10558,note_off,109,0,0,,0,,,72,127
10559,note_on,1,0,0,,10,,,81,127
10668,note_off,109,0,0,,10,,,81,127
10668,note_off,0,0,0,,0,,,60,127
10669,note_on,1,0,0,,7,,,55,127
10669,note_on,0,0,0,,12,,,71,127
10778,note_off,109,0,0,,7,,,55,127
10779,note_on,1,0,0,,2,,,62,127
10888,note_off,109,0,0,,2,,,62,127
10889,note_on,1,0,0,,12,,,59,127
10998,note_off,109,0,0,,12,,,59,127
10999,note_off,1,0,0,,12,,,71,127
10999,note_on,0,0,0,,2,,,62,127
11108,note_off,109,0,0,,2,,,62,127
11109,note_on,1,0,0,,7,,,55,127
11109,note_on,0,0,0,,2,,,74,127
11218,note_off,109,0,0,,7,,,55,127
11219,note_on,1,0,0,,2,,,62,127
11328,note_off,109,0,0,,2,,,62,127
11329,note_on,1,0,0,,2,,,50,127
11438,note_off,109,0,0,,2,,,50,127
11439,note_on,1,0,0,,2,,,62,127
11548,note_off,109,0,0,,2,,,62,127
11548,note_off,0,0,0,,2,,,74,127
11549,note_on,1,0,0,,6,,,54,127
11549,note_on,0,0,0,,10,,,81,127
11658,note_off,109,0,0,,6,,,54,127
11659,note_on,1,0,0,,2,,,62,127
11768,note_off,109,0,0,,2,,,62,127
11768,note_off,0,0,0,,10,,,81,127
11769,note_on,1,0,0,,2,,,50,127
11769,note_on,0,0,0,,2,,,74,127
11878,note_off,109,0,0,,2,,,50,127
11879,note_on,1,0,0,,2,,,62,127
11988,note_off,109,0,0,,2,,,62,127
11988,note_off,0,0,0,,2,,,74,127
11989,note_on,1,0,0,,7,,,55,127
11989,note_on,0,0,0,,4,,,76,127
12098,note_off,109,0,0,,4,,,76,127
12098,note_off,0,0,0,,7,,,55,127
12099,note_on,1,0,0,,2,,,62,127
12099,note_on,0,0,0,,2,,,74,127
12208,note_off,109,0,0,,2,,,74,127
12208,note_off,0,0,0,,2,,,62,127
12209,note_on,1,0,0,,12,,,59,127
12209,note_on,0,0,0,,0,,,72,127
12318,note_off,109,0,0,,12,,,59,127
12319,note_on,1,0,0,,2,,,62,127
12428,note_off,109,0,0,,2,,,62,127
12428,note_off,0,0,0,,0,,,72,127
12429,note_on,1,0,0,,7,,,55,127
12429,note_on,0,0,0,,12,,,71,127
12538,note_off,109,0,0,,7,,,55,127
12539,note_on,1,0,0,,2,,,62,127
12646,note_off,107,0,0,,12,,,71,127
12647,note_off,1,0,0,,2,,,62,127
12648,note_on,1,0,0,,2,,,50,127
12757,note_off,109,0,0,,2,,,50,127
12758,note_on,1,0,0,,2,,,62,127
12867,note_off,109,0,0,,2,,,62,127
12868,note_on,1,0,0,,6,,,54,127
12868,note_on,0,0,0,,10,,,81,127
12977,note_off,109,0,0,,6,,,54,127
12978,note_on,1,0,0,,2,,,62,127
13087,note_off,109,0,0,,2,,,62,127
13087,note_off,0,0,0,,10,,,81,127
13088,note_on,1,0,0,,2,,,50,127
13088,note_on,0,0,0,,2,,,74,127
13197,note_off,109,0,0,,2,,,50,127
13198,note_on,1,0,0,,2,,,62,127
13307,note_off,109,0,0,,2,,,62,127
13307,note_off,0,0,0,,2,,,74,127
13308,note_on,1,0,0,,7,,,55,127
13308,note_on,0,0,0,,4,,,76,127
13417,note_off,109,0,0,,4,,,76,127
13417,note_off,0,0,0,,7,,,55,127
13418,note_on,1,0,0,,2,,,62,127
13418,note_on,0,0,0,,2,,,74,127
13527,note_off,109,0,0,,2,,,74,127
13527,note_off,0,0,0,,2,,,62,127
13528,note_on,1,0,0,,12,,,59,127
13528,note_on,0,0,0,,0,,,72,127
13637,note_off,109,0,0,,12,,,59,127
13638,note_on,1,0,0,,2,,,62,127
13747,note_off,109,0,0,,2,,,62,127
13747,note_off,0,0,0,,0,,,72,127
13748,note_on,1,0,0,,7,,,55,127
13748,note_on,0,0,0,,12,,,71,127
13857,note_off,109,0,0,,7,,,55,127
13858,note_on,1,0,0,,2,,,62,127
13967,note_off,109,0,0,,2,,,62,127
13967,note_off,0,0,0,,12,,,71,127
13968,note_on,1,0,0,,1,,,49,127
13968,note_on,0,0,0,,7,,,79,127
14077,note_off,109,0,0,,1,,,49,127
14078,note_on,1,0,0,,10,,,57,127
14187,note_off,109,0,0,,10,,,57,127
14187,note_off,0,0,0,,7,,,79,127
14188,note_on,1,0,0,,2,,,50,127
14188,note_on,0,0,0,,6,,,78,127
14297,note_off,109,0,0,,2,,,50,127
14298,note_on,1,0,0,,12,,,59,127
14407,note_off,109,0,0,,12,,,59,127
14407,note_off,0,0,0,,6,,,78,127
14408,note_on,1,0,0,,4,,,52,127
14408,note_on,0,0,0,,4,,,76,127
14517,note_off,109,0,0,,4,,,52,127
14518,note_on,1,0,0,,1,,,61,127
14627,note_off,109,0,0,,1,,,61,127
14627,note_off,0,0,0,,4,,,76,127
14628,note_on,1,0,0,,6,,,54,127
14628,note_on,0,0,0,,2,,,74,127
14737,note_off,109,0,0,,6,,,54,127
14738,note_on,1,0,0,,2,,,62,127
14847,note_off,109,0,0,,2,,,62,127
14847,note_off,0,0,0,,2,,,74,127
14848,note_on,1,0,0,,7,,,55,127
14848,note_on,0,0,0,,4,,,76,127
14957,note_off,109,0,0,,7,,,55,127
14958,note_on,1,0,0,,4,,,64,127
15067,note_off,109,0,0,,4,,,64,127
15067,note_off,0,0,0,,4,,,76,127
15068,note_on,1,0,0,,10,,,57,127
15068,note_on,0,0,0,,1,,,73,127
15177,note_off,109,0,0,,10,,,57,127
15178,note_on,1,0,0,,6,,,66,127
15287,note_off,109,0,0,,6,,,66,127
15287,note_off,0,0,0,,1,,,73,127
15288,note_on,1,0,0,,12,,,59,127
15288,note_on,0,0,0,,2,,,74,127
15397,note_off,109,0,0,,12,,,59,127
15398,note_on,1,0,0,,7,,,67,127
15507,note_off,109,0,0,,7,,,67,127
15507,note_off,0,0,0,,2,,,74,127
15508,note_on,1,0,0,,1,,,61,127
15508,note_on,0,0,0,,4,,,76,127
15617,note_off,109,0,0,,1,,,61,127
15618,note_on,1,0,0,,10,,,69,127
15727,note_off,109,0,0,,10,,,69,127
15727,note_off,0,0,0,,4,,,76,127
15728,note_on,1,0,0,,6,,,66,127
15728,note_on,0,0,0,,6,,,78,127
15837,note_off,109,0,0,,6,,,66,127
15838,note_on,1,0,0,,2,,,62,127
15947,note_off,109,0,0,,2,,,62,127
15947,note_off,0,0,0,,6,,,78,127
15948,note_on,1,0,0,,10,,,57,127
15948,note_on,0,0,0,,4,,,76,127
16057,note_off,109,0,0,,4,,,76,127
16058,note_on,1,0,0,,2,,,74,127
16167,note_off,109,0,0,,2,,,74,127
16168,note_on,1,0,0,,1,,,73,127
16277,note_off,109,0,0,,1,,,73,127
16278,note_on,1,0,0,,12,,,71,127
16383,note_off,105,0,0,,10,,,57,127
16386,note_off,3,0,0,,12,,,71,127
16387,note_on,1,0,0,,10,,,69,127
16496,note_off,109,0,0,,10,,,69,127
16497,note_on,1,0,0,,7,,,67,127
16606,note_off,109,0,0,,7,,,67,127
16607,note_on,1,0,0,,2,,,50,127
16607,note_on,0,0,0,,6,,,66,127
16716,note_off,109,0,0,,6,,,66,127
16717,note_on,1,0,0,,2,,,74,127
16826,note_off,109,0,0,,2,,,74,127
16826,note_off,0,0,0,,2,,,50,127
16827,note_on,1,0,0,,6,,,54,127
16827,note_on,0,0,0,,10,,,69,127
16936,note_off,109,0,0,,10,,,69,127
16937,note_on,1,0,0,,6,,,78,127
17046,note_off,109,0,0,,6,,,78,127
17046,note_off,0,0,0,,6,,,54,127
17047,note_on,1,0,0,,2,,,50,127
17047,note_on,0,0,0,,6,,,66,127
17156,note_off,109,0,0,,6,,,66,127
17157,note_on,1,0,0,,2,,,74,127
17266,note_off,109,0,0,,2,,,74,127
17266,note_off,0,0,0,,2,,,50,127
17267,note_on,1,0,0,,7,,,55,127
17267,note_on,0,0,0,,7,,,67,127
17376,note_off,109,0,0,,7,,,67,127
17377,note_on,1,0,0,,4,,,76,127
17486,note_off,109,0,0,,4,,,76,127
17486,note_off,0,0,0,,7,,,55,127
17487,note_on,1,0,0,,10,,,57,127
17487,note_on,0,0,0,,4,,,64,127
17596,note_off,109,0,0,,4,,,64,127
17597,note_on,1,0,0,,1,,,73,127
17706,note_off,109,0,0,,1,,,73,127
17707,note_on,1,0,0,,10,,,45,127
17707,note_on,0,0,0,,7,,,67,127
17816,note_off,109,0,0,,7,,,67,127
17817,note_on,1,0,0,,4,,,76,127
17922,note_off,105,0,0,,10,,,57,127
17925,note_off,3,0,0,,4,,,76,127
17925,note_off,0,0,0,,10,,,45,127
17926,note_on,1,0,0,,2,,,50,127
17926,note_on,0,0,0,,6,,,66,127
18035,note_off,109,0,0,,6,,,66,127
18036,note_on,1,0,0,,2,,,74,127
18145,note_off,109,0,0,,2,,,74,127
18145,note_off,0,0,0,,2,,,50,127
18146,note_on,1,0,0,,6,,,54,127
18146,note_on,0,0,0,,10,,,69,127
18255,note_off,109,0,0,,10,,,69,127
18256,note_on,1,0,0,,6,,,78,127
18365,note_off,109,0,0,,6,,,78,127
18365,note_off,0,0,0,,6,,,54,127
18366,note_on,1,0,0,,2,,,50,127
18366,note_on,0,0,0,,6,,,66,127
18475,note_off,109,0,0,,6,,,66,127
18476,note_on,1,0,0,,2,,,74,127
18585,note_off,109,0,0,,2,,,74,127
18585,note_off,0,0,0,,2,,,50,127
18586,note_on,1,0,0,,7,,,55,127
18586,note_on,0,0,0,,7,,,67,127
18695,note_off,109,0,0,,7,,,67,127
18696,note_on,1,0,0,,4,,,76,127
18805,note_off,109,0,0,,4,,,76,127
18805,note_off,0,0,0,,7,,,55,127
18806,note_on,1,0,0,,10,,,57,127
18806,note_on,0,0,0,,4,,,64,127
18915,note_off,109,0,0,,4,,,64,127
18916,note_on,1,0,0,,1,,,73,127
19025,note_off,109,0,0,,1,,,73,127
19026,note_on,1,0,0,,10,,,45,127
19026,note_on,0,0,0,,7,,,67,127
19135,note_off,109,0,0,,7,,,67,127
19136,note_on,1,0,0,,4,,,76,127
19241,note_off,105,0,0,,10,,,57,127
19244,note_off,3,0,0,,4,,,76,127
19244,note_off,0,0,0,,10,,,45,127
19245,note_on,1,0,0,,2,,,50,127
19245,note_on,0,0,0,,6,,,66,127
19354,note_off,109,0,0,,2,,,50,127
19355,note_on,1,0,0,,2,,,62,127
19464,note_off,109,0,0,,2,,,62,127
19465,note_on,1,0,0,,10,,,57,127
19574,note_off,109,0,0,,10,,,57,127
19575,note_off,1,0,0,,6,,,66,127
19575,note_on,0,0,0,,2,,,62,127
19684,note_off,109,0,0,,2,,,62,127
19685,note_on,1,0,0,,6,,,54,127
19685,note_on,0,0,0,,2,,,74,127
19794,note_off,109,0,0,,6,,,54,127
19795,note_on,1,0,0,,2,,,62,127
19904,note_off,109,0,0,,2,,,62,127
19905,note_on,1,0,0,,12,,,59,127
20014,note_off,109,0,0,,12,,,59,127
20015,note_on,1,0,0,,2,,,62,127
20124,note_off,109,0,0,,2,,,62,127
20124,note_off,0,0,0,,2,,,74,127
20125,note_on,1,0,0,,7,,,55,127
20125,note_on,0,0,0,,12,,,71,127
20234,note_off,109,0,0,,7,,,55,127
20235,note_on,1,0,0,,12,,,59,127
20344,note_off,109,0,0,,12,,,59,127
20344,note_off,0,0,0,,12,,,71,127
20345,note_on,1,0,0,,4,,,52,127
20345,note_on,0,0,0,,7,,,79,127
20454,note_off,109,0,0,,4,,,52,127
20455,note_on,1,0,0,,7,,,55,127
20564,note_off,109,0,0,,7,,,55,127
20565,note_on,1,0,0,,10,,,33,127
20674,note_off,109,0,0,,7,,,79,127
20675,note_on,1,0,0,,4,,,76,127
20784,note_off,109,0,0,,4,,,76,127
20785,note_on,1,0,0,,10,,,69,127
20894,note_off,109,0,0,,10,,,69,127
20895,note_on,1,0,0,,7,,,79,127
21004,note_off,109,0,0,,7,,,79,127
21004,note_off,0,0,0,,10,,,33,127
21005,note_on,1,0,0,,2,,,38,127
21005,note_on,0,0,0,,6,,,78,127
21114,note_off,109,0,0,,6,,,78,127
21115,note_on,1,0,0,,2,,,74,127
21224,note_off,109,0,0,,2,,,74,127
21224,note_off,0,0,0,,2,,,38,127
21225,note_on,1,0,0,,7,,,43,127
21225,note_on,0,0,0,,7,,,67,127
21334,note_off,109,0,0,,7,,,67,127
21335,note_on,1,0,0,,4,,,76,127
21444,note_off,109,0,0,,4,,,76,127
21444,note_off,0,0,0,,7,,,43,127
21445,note_on,1,0,0,,10,,,45,127
21445,note_on,0,0,0,,6,,,66,127
21554,note_off,109,0,0,,6,,,66,127
21555,note_on,1,0,0,,2,,,74,127
21664,note_off,109,0,0,,2,,,74,127
21665,note_on,1,0,0,,4,,,64,127
21774,note_off,109,0,0,,4,,,64,127
21775,note_on,1,0,0,,1,,,73,127
21884,note_off,109,0,0,,1,,,73,127
21884,note_off,0,0,0,,10,,,45,127
21885,note_on,1,0,0,,2,,,50,127
21885,note_on,0,0,0,,2,,,74,127
21994,note_off,109,0,0,,2,,,50,127
21995,note_on,1,0,0,,2,,,62,127
22104,note_off,109,0,0,,2,,,62,127
22105,note_on,1,0,0,,10,,,57,127
22214,note_off,109,0,0,,10,,,57,127
22215,note_on,1,0,0,,2,,,62,127
22324,note_off,109,0,0,,2,,,62,127
22324,note_off,0,0,0,,2,,,74,127
22325,note_on,1,0,0,,6,,,54,127
22325,note_on,0,0,0,,2,,,74,127
22434,note_off,109,0,0,,6,,,54,127
22435,note_on,1,0,0,,2,,,62,127
22544,note_off,109,0,0,,2,,,62,127
22545,note_on,1,0,0,,12,,,59,127
22654,note_off,109,0,0,,12,,,59,127
22655,note_on,1,0,0,,2,,,62,127
22764,note_off,109,0,0,,2,,,62,127
22764,note_off,0,0,0,,2,,,74,127
22765,note_on,1,0,0,,7,,,55,127
22765,note_on,0,0,0,,12,,,71,127
22874,note_off,109,0,0,,7,,,55,127
22875,note_on,1,0,0,,12,,,59,127
22984,note_off,109,0,0,,12,,,59,127
22984,note_off,0,0,0,,12,,,71,127
22985,note_on,1,0,0,,4,,,52,127
22985,note_on,0,0,0,,7,,,79,127
23094,note_off,109,0,0,,4,,,52,127
23095,note_on,1,0,0,,7,,,55,127
23204,note_off,109,0,0,,7,,,55,127
23205,note_on,1,0,0,,10,,,33,127
23314,note_off,109,0,0,,7,,,79,127
23315,note_on,1,0,0,,4,,,76,127
23424,note_off,109,0,0,,4,,,76,127
23425,note_on,1,0,0,,10,,,69,127
23534,note_off,109,0,0,,10,,,69,127
23535,note_on,1,0,0,,7,,,79,127
23644,note_off,109,0,0,,7,,,79,127
23644,note_off,0,0,0,,10,,,33,127
23645,note_on,1,0,0,,2,,,38,127
23645,note_on,0,0,0,,6,,,78,127
23754,note_off,109,0,0,,6,,,78,127
23755,note_on,1,0,0,,2,,,74,127
23864,note_off,109,0,0,,2,,,74,127
23864,note_off,0,0,0,,2,,,38,127
23865,note_on,1,0,0,,7,,,55,127
23865,note_on,0,0,0,,7,,,67,127
23974,note_off,109,0,0,,7,,,67,127
23975,note_on,1,0,0,,4,,,76,127
24084,note_off,109,0,0,,4,,,76,127
24084,note_off,0,0,0,,7,,,55,127
24085,note_on,1,0,0,,10,,,57,127
24085,note_on,0,0,0,,6,,,66,127
24194,note_off,109,0,0,,6,,,66,127
24195,note_on,1,0,0,,2,,,74,127
24304,note_off,109,0,0,,2,,,74,127
24304,note_off,0,0,0,,10,,,57,127
24305,note_on,1,0,0,,10,,,45,127
24305,note_on,0,0,0,,4,,,64,127
24414,note_off,109,0,0,,4,,,64,127
24415,note_on,1,0,0,,1,,,73,127
24524,note_off,109,0,0,,1,,,73,127
24524,note_off,0,0,0,,10,,,45,127
24525,note_on,1,0,0,,2,,,38,127
24525,note_on,0,0,0,,2,,,74,127
24634,note_off,109,0,0,,2,,,74,127
24635,note_on,1,0,0,,6,,,78,127
24744,note_off,109,0,0,,6,,,78,127
24744,note_off,0,0,0,,2,,,38,127
24745,note_on,1,0,0,,4,,,40,127
24745,note_on,0,0,0,,2,,,74,127
24854,note_off,109,0,0,,2,,,74,127
24855,note_on,1,0,0,,10,,,69,127
24964,note_off,109,0,0,,10,,,69,127
24964,note_off,0,0,0,,4,,,40,127
24965,note_on,1,0,0,,6,,,42,127
24965,note_on,0,0,0,,6,,,66,127
25074,note_off,109,0,0,,6,,,66,127
25075,note_on,1,0,0,,2,,,62,127
25184,note_off,109,0,0,,2,,,62,127
25184,note_off,0,0,0,,6,,,42,127
25185,note_on,1,0,0,,7,,,43,127
25185,note_on,0,0,0,,12,,,59,127
25294,note_off,109,0,0,,12,,,59,127
25295,note_on,1,0,0,,4,,,64,127
25404,note_off,109,0,0,,4,,,64,127
25404,note_off,0,0,0,,7,,,43,127
25405,note_on,1,0,0,,10,,,45,127
25405,note_on,0,0,0,,6,,,54,127
25514,note_off,109,0,0,,6,,,54,127
25515,note_on,1,0,0,,2,,,62,127
25624,note_off,109,0,0,,2,,,62,127
25624,note_off,0,0,0,,10,,,45,127
25625,note_on,1,0,0,,10,,,33,127
25625,note_on,0,0,0,,4,,,52,127
25734,note_off,109,0,0,,4,,,52,127
25735,note_on,1,0,0,,1,,,61,127
25844,note_off,109,0,0,,1,,,61,127
25844,note_off,0,0,0,,10,,,33,127
25845,note_on,1,0,0,,2,,,50,127
25845,note_on,0,0,0,,2,,,38,127
25845,note_on,0,0,0,,1,,,61,127
26283,note_off,438,0,0,,1,,,61,127
26284,note_on,1,0,0,,2,,,62,127
26394,note_off,110,0,0,,2,,,38,127
26503,note_off,109,0,0,,2,,,50,127
26504,note_on,1,0,0,,2,,,50,127
26613,note_off,109,0,0,,2,,,50,127
26614,note_off,1,0,0,,2,,,62,127
26614,note_on,0,0,0,,2,,,62,127
26723,note_off,109,0,0,,2,,,62,127
26724,note_on,1,0,0,,6,,,54,127
26724,note_on,0,0,0,,2,,,74,127
26833,note_off,109,0,0,,6,,,54,127
26834,note_on,1,0,0,,2,,,62,127
26943,note_off,109,0,0,,2,,,62,127
26943,note_off,0,0,0,,2,,,74,127
26944,note_on,1,0,0,,2,,,50,127
26944,note_on,0,0,0,,2,,,74,127
27053,note_off,109,0,0,,2,,,50,127
27054,note_on,1,0,0,,2,,,62,127
27163,note_off,109,0,0,,2,,,62,127
27163,note_off,0,0,0,,2,,,74,127
27164,note_on,1,0,0,,7,,,55,127
27164,note_on,0,0,0,,2,,,74,127
27273,note_off,109,0,0,,7,,,55,127
27274,note_on,1,0,0,,2,,,62,127
27383,note_off,109,0,0,,2,,,62,127
27383,note_off,0,0,0,,2,,,74,127
27384,note_on,1,0,0,,11,,,58,127
27384,note_on,0,0,0,,0,,,72,127
27493,note_off,109,0,0,,11,,,58,127
27494,note_on,1,0,0,,2,,,62,127
27603,note_off,109,0,0,,2,,,62,127
27603,note_off,0,0,0,,0,,,72,127
27604,note_on,1,0,0,,7,,,55,127
27604,note_on,0,0,0,,11,,,70,127
27713,note_off,109,0,0,,7,,,55,127
27714,note_on,1,0,0,,2,,,62,127
27823,note_off,109,0,0,,2,,,62,127
27824,note_on,1,0,0,,2,,,50,127
27933,note_off,109,0,0,,2,,,50,127
27934,note_off,1,0,0,,11,,,70,127
27934,note_on,0,0,0,,2,,,62,127
28043,note_off,109,0,0,,2,,,62,127
28044,note_on,1,0,0,,6,,,54,127
28044,note_on,0,0,0,,2,,,74,127
28153,note_off,109,0,0,,6,,,54,127
28154,note_on,1,0,0,,2,,,62,127
28263,note_off,109,0,0,,2,,,62,127
28263,note_off,0,0,0,,2,,,74,127
28264,note_on,1,0,0,,2,,,50,127
28264,note_on,0,0,0,,2,,,74,127
28373,note_off,109,0,0,,2,,,50,127
28374,note_on,1,0,0,,2,,,62,127
28483,note_off,109,0,0,,2,,,62,127
28483,note_off,0,0,0,,2,,,74,127
28484,note_on,1,0,0,,7,,,55,127
28484,note_on,0,0,0,,2,,,74,127
28593,note_off,109,0,0,,7,,,55,127
28594,note_on,1,0,0,,2,,,62,127
28703,note_off,109,0,0,,2,,,62,127
28703,note_off,0,0,0,,2,,,74,127
28704,note_on,1,0,0,,11,,,58,127
28704,note_on,0,0,0,,0,,,72,127
28813,note_off,109,0,0,,11,,,58,127
28814,note_on,1,0,0,,2,,,62,127
28923,note_off,109,0,0,,2,,,62,127
28923,note_off,0,0,0,,0,,,72,127
28924,note_on,1,0,0,,7,,,55,127
28924,note_on,0,0,0,,11,,,70,127
29033,note_off,109,0,0,,7,,,55,127
29034,note_on,1,0,0,,2,,,62,127
29141,note_off,107,0,0,,11,,,70,127
29142,note_off,1,0,0,,2,,,62,127
29143,note_on,1,0,0,,5,,,53,127
29252,note_off,109,0,0,,5,,,53,127
29253,note_on,1,0,0,,5,,,65,127
29362,note_off,109,0,0,,5,,,65,127
29363,note_on,1,0,0,,10,,,57,127
29363,note_on,0,0,0,,5,,,77,127
29472,note_off,109,0,0,,10,,,57,127
29473,note_on,1,0,0,,5,,,65,127
29582,note_off,109,0,0,,5,,,65,127
29582,note_off,0,0,0,,5,,,77,127
29583,note_on,1,0,0,,5,,,53,127
29583,note_on,0,0,0,,5,,,77,127
29692,note_off,109,0,0,,5,,,53,127
29693,note_on,1,0,0,,5,,,65,127
29802,note_off,109,0,0,,5,,,65,127
29802,note_off,0,0,0,,5,,,77,127
29803,note_on,1,0,0,,11,,,58,127
29803,note_on,0,0,0,,5,,,77,127
29912,note_off,109,0,0,,11,,,58,127
29913,note_on,1,0,0,,5,,,65,127
30022,note_off,109,0,0,,5,,,65,127
30022,note_off,0,0,0,,5,,,77,127
30023,note_on,1,0,0,,2,,,62,127
30023,note_on,0,0,0,,3,,,75,127
30132,note_off,109,0,0,,2,,,62,127
30133,note_on,1,0,0,,5,,,65,127
30242,note_off,109,0,0,,5,,,65,127
30242,note_off,0,0,0,,3,,,75,127
30243,note_on,1,0,0,,11,,,58,127
30243,note_on,0,0,0,,2,,,74,127
30352,note_off,109,0,0,,11,,,58,127
30353,note_on,1,0,0,,5,,,65,127
30462,note_off,109,0,0,,5,,,65,127
30463,note_on,1,0,0,,5,,,53,127
30572,note_off,109,0,0,,5,,,53,127
30573,note_off,1,0,0,,2,,,74,127
30573,note_on,0,0,0,,5,,,65,127
30682,note_off,109,0,0,,5,,,65,127
30683,note_on,1,0,0,,10,,,57,127
30683,note_on,0,0,0,,5,,,77,127
30792,note_off,109,0,0,,10,,,57,127
30793,note_on,1,0,0,,5,,,65,127
30902,note_off,109,0,0,,5,,,65,127
30902,note_off,0,0,0,,5,,,77,127
30903,note_on,1,0,0,,5,,,53,127
30903,note_on,0,0,0,,5,,,77,127
31012,note_off,109,0,0,,5,,,53,127
31013,note_on,1,0,0,,5,,,65,127
31122,note_off,109,0,0,,5,,,65,127
31122,note_off,0,0,0,,5,,,77,127
31123,note_on,1,0,0,,11,,,58,127
31123,note_on,0,0,0,,5,,,77,127
31232,note_off,109,0,0,,11,,,58,127
31233,note_on,1,0,0,,5,,,65,127
31342,note_off,109,0,0,,5,,,65,127
31342,note_off,0,0,0,,5,,,77,127
31343,note_on,1,0,0,,2,,,62,127
31343,note_on,0,0,0,,3,,,75,127
31452,note_off,109,0,0,,2,,,62,127
31453,note_on,1,0,0,,5,,,65,127
31562,note_off,109,0,0,,5,,,65,127
31562,note_off,0,0,0,,3,,,75,127
31563,note_on,1,0,0,,11,,,58,127
31563,note_on,0,0,0,,2,,,74,127
31672,note_off,109,0,0,,11,,,58,127
31673,note_on,1,0,0,,2,,,62,127
31780,note_off,107,0,0,,2,,,74,127
31781,note_off,1,0,0,,2,,,62,127
31782,note_on,1,0,0,,10,,,57,127
31891,note_off,109,0,0,,10,,,57,127
31892,note_on,1,0,0,,10,,,69,127
32001,note_off,109,0,0,,10,,,69,127
32002,note_on,1,0,0,,1,,,61,127
32002,note_on,0,0,0,,10,,,81,127
32111,note_off,109,0,0,,1,,,61,127
32112,note_on,1,0,0,,10,,,69,127
32221,note_off,109,0,0,,10,,,69,127
32221,note_off,0,0,0,,10,,,81,127
32222,note_on,1,0,0,,10,,,57,127
32222,note_on,0,0,0,,10,,,81,127
32331,note_off,109,0,0,,10,,,57,127
32332,note_on,1,0,0,,10,,,69,127
32441,note_off,109,0,0,,10,,,69,127
32441,note_off,0,0,0,,10,,,81,127
32442,note_on,1,0,0,,2,,,62,127
32442,note_on,0,0,0,,10,,,81,127
32551,note_off,109,0,0,,2,,,62,127
32552,note_on,1,0,0,,10,,,69,127
32661,note_off,109,0,0,,10,,,69,127
32661,note_off,0,0,0,,10,,,81,127
32662,note_on,1,0,0,,5,,,65,127
32662,note_on,0,0,0,,7,,,79,127
32771,note_off,109,0,0,,5,,,65,127
32772,note_on,1,0,0,,10,,,69,127
32881,note_off,109,0,0,,10,,,69,127
32881,note_off,0,0,0,,7,,,79,127
32882,note_on,1,0,0,,2,,,62,127
32882,note_on,0,0,0,,5,,,77,127
32991,note_off,109,0,0,,2,,,62,127
32992,note_on,1,0,0,,10,,,69,127
33101,note_off,109,0,0,,10,,,69,127
33102,note_on,1,0,0,,10,,,57,127
33211,note_off,109,0,0,,10,,,57,127
33212,note_off,1,0,0,,5,,,77,127
33212,note_on,0,0,0,,10,,,69,127
33321,note_off,109,0,0,,10,,,69,127
33322,note_on,1,0,0,,1,,,61,127
33322,note_on,0,0,0,,10,,,81,127
33431,note_off,109,0,0,,1,,,61,127
33432,note_on,1,0,0,,10,,,69,127
33541,note_off,109,0,0,,10,,,69,127
33541,note_off,0,0,0,,10,,,81,127
33542,note_on,1,0,0,,10,,,57,127
33542,note_on,0,0,0,,10,,,81,127
33651,note_off,109,0,0,,10,,,57,127
33652,note_on,1,0,0,,10,,,69,127
33761,note_off,109,0,0,,10,,,69,127
33761,note_off,0,0,0,,10,,,81,127
33762,note_on,1,0,0,,2,,,62,127
33762,note_on,0,0,0,,10,,,81,127
33871,note_off,109,0,0,,2,,,62,127
33872,note_on,1,0,0,,10,,,69,127
33981,note_off,109,0,0,,10,,,69,127
33981,note_off,0,0,0,,10,,,81,127
33982,note_on,1,0,0,,5,,,65,127
33982,note_on,0,0,0,,7,,,79,127
34091,note_off,109,0,0,,5,,,65,127
34092,note_on,1,0,0,,10,,,69,127
34201,note_off,109,0,0,,10,,,69,127
34201,note_off,0,0,0,,7,,,79,127
34202,note_on,1,0,0,,2,,,62,127
34202,note_on,0,0,0,,5,,,77,127
34311,note_off,109,0,0,,2,,,62,127
34312,note_on,1,0,0,,10,,,69,127
34421,note_off,109,0,0,,10,,,69,127
34421,note_off,0,0,0,,5,,,77,127
34422,note_on,1,0,0,,11,,,58,127
34422,note_on,0,0,0,,7,,,79,127
34422,note_on,0,0,0,,11,,,82,127
34531,note_off,109,0,0,,11,,,58,127
34532,note_on,1,0,0,,7,,,67,127
34641,note_off,109,0,0,,7,,,67,127
34641,note_off,0,0,0,,11,,,82,127
34641,note_off,0,0,0,,7,,,79,127
34642,note_on,1,0,0,,0,,,60,127
34642,note_on,0,0,0,,4,,,76,127
34642,note_on,0,0,0,,7,,,79,127
34751,note_off,109,0,0,,0,,,60,127
34752,note_on,1,0,0,,4,,,64,127
34861,note_off,109,0,0,,4,,,64,127
34861,note_off,0,0,0,,7,,,79,127
34861,note_off,0,0,0,,4,,,76,127
34862,note_on,1,0,0,,10,,,57,127
34862,note_on,0,0,0,,5,,,77,127
34862,note_on,0,0,0,,10,,,81,127
34971,note_off,109,0,0,,10,,,57,127
34972,note_on,1,0,0,,5,,,65,127
35081,note_off,109,0,0,,5,,,65,127
35081,note_off,0,0,0,,10,,,81,127
35081,note_off,0,0,0,,5,,,77,127
35082,note_on,1,0,0,,11,,,58,127
35082,note_on,0,0,0,,2,,,74,127
35082,note_on,0,0,0,,5,,,77,127
35191,note_off,109,0,0,,11,,,58,127
35192,note_on,1,0,0,,2,,,62,127
35301,note_off,109,0,0,,2,,,62,127
35301,note_off,0,0,0,,5,,,77,127
35301,note_off,0,0,0,,2,,,74,127
35302,note_on,1,0,0,,7,,,55,127
35302,note_on,0,0,0,,4,,,76,127
35302,note_on,0,0,0,,7,,,79,127
35411,note_off,109,0,0,,7,,,55,127
35412,note_on,1,0,0,,4,,,64,127
35521,note_off,109,0,0,,4,,,64,127
35521,note_off,0,0,0,,7,,,79,127
35521,note_off,0,0,0,,4,,,76,127
35522,note_on,1,0,0,,10,,,57,127
35522,note_on,0,0,0,,1,,,73,127
35522,note_on,0,0,0,,4,,,76,127
35631,note_off,109,0,0,,10,,,57,127
35632,note_on,1,0,0,,1,,,61,127
35741,note_off,109,0,0,,1,,,61,127
35741,note_off,0,0,0,,4,,,76,127
35741,note_off,0,0,0,,1,,,73,127
35742,note_on,1,0,0,,5,,,53,127
35742,note_on,0,0,0,,5,,,77,127
35742,note_on,0,0,0,,2,,,74,127
35851,note_off,109,0,0,,5,,,53,127
35852,note_on,1,0,0,,2,,,62,127
35961,note_off,109,0,0,,2,,,62,127
35961,note_off,0,0,0,,2,,,74,127
35961,note_off,0,0,0,,5,,,77,127
35962,note_on,1,0,0,,4,,,52,127
35962,note_on,0,0,0,,7,,,79,127
35962,note_on,0,0,0,,4,,,76,127
36071,note_off,109,0,0,,4,,,52,127
36072,note_on,1,0,0,,1,,,61,127
36181,note_off,109,0,0,,1,,,61,127
36181,note_off,0,0,0,,4,,,76,127
36181,note_off,0,0,0,,7,,,79,127
36182,note_on,1,0,0,,2,,,50,127
36182,note_on,0,0,0,,5,,,77,127
36182,note_on,0,0,0,,10,,,81,127
36291,note_off,109,0,0,,2,,,50,127
36292,note_on,1,0,0,,2,,,62,127
36401,note_off,109,0,0,,2,,,62,127
36401,note_off,0,0,0,,10,,,81,127
36401,note_off,0,0,0,,5,,,77,127
36402,note_on,1,0,0,,10,,,45,127
36402,note_on,0,0,0,,4,,,76,127
36511,note_off,109,0,0,,4,,,76,127
36512,note_on,1,0,0,,2,,,74,127
36621,note_off,109,0,0,,2,,,74,127
36622,note_on,1,0,0,,1,,,73,127
36731,note_off,109,0,0,,1,,,73,127
36732,note_on,1,0,0,,11,,,70,127
36837,note_off,105,0,0,,10,,,45,127
36840,note_off,3,0,0,,11,,,70,127
36841,note_on,1,0,0,,10,,,69,127
36950,note_off,109,0,0,,10,,,69,127
36951,note_on,1,0,0,,7,,,67,127
37060,note_off,109,0,0,,7,,,67,127
37061,note_on,1,0,0,,2,,,50,127
37061,note_on,0,0,0,,5,,,65,127
37170,note_off,109,0,0,,5,,,65,127
37171,note_on,1,0,0,,2,,,74,127
37280,note_off,109,0,0,,2,,,74,127
37280,note_off,0,0,0,,2,,,50,127
37281,note_on,1,0,0,,5,,,53,127
37281,note_on,0,0,0,,10,,,69,127
37390,note_off,109,0,0,,10,,,69,127
37391,note_on,1,0,0,,5,,,77,127
37500,note_off,109,0,0,,5,,,77,127
37500,note_off,0,0,0,,5,,,53,127
37501,note_on,1,0,0,,2,,,50,127
37501,note_on,0,0,0,,5,,,65,127
37610,note_off,109,0,0,,5,,,65,127
37611,note_on,1,0,0,,2,,,74,127
37720,note_off,109,0,0,,2,,,74,127
37720,note_off,0,0,0,,2,,,50,127
37721,note_on,1,0,0,,7,,,55,127
37721,note_on,0,0,0,,7,,,67,127
37830,note_off,109,0,0,,7,,,67,127
37831,note_on,1,0,0,,4,,,76,127
37940,note_off,109,0,0,,4,,,76,127
37940,note_off,0,0,0,,7,,,55,127
37941,note_on,1,0,0,,10,,,57,127
37941,note_on,0,0,0,,4,,,64,127
38050,note_off,109,0,0,,4,,,64,127
38051,note_on,1,0,0,,1,,,73,127
38160,note_off,109,0,0,,1,,,73,127
38161,note_on,1,0,0,,10,,,45,127
38161,note_on,0,0,0,,7,,,67,127
38270,note_off,109,0,0,,7,,,67,127
38271,note_on,1,0,0,,4,,,76,127
38376,note_off,105,0,0,,10,,,57,127
38379,note_off,3,0,0,,4,,,76,127
38379,note_off,0,0,0,,10,,,45,127
38380,note_on,1,0,0,,2,,,50,127
38380,note_on,0,0,0,,5,,,65,127
38489,note_off,109,0,0,,5,,,65,127
38490,note_on,1,0,0,,2,,,74,127
38599,note_off,109,0,0,,2,,,74,127
38599,note_off,0,0,0,,2,,,50,127
38600,note_on,1,0,0,,5,,,53,127
38600,note_on,0,0,0,,10,,,69,127
38709,note_off,109,0,0,,10,,,69,127
38710,note_on,1,0,0,,5,,,77,127
38819,note_off,109,0,0,,5,,,77,127
38819,note_off,0,0,0,,5,,,53,127
38820,note_on,1,0,0,,2,,,50,127
38820,note_on,0,0,0,,5,,,65,127
38929,note_off,109,0,0,,5,,,65,127
38930,note_on,1,0,0,,2,,,74,127
39039,note_off,109,0,0,,2,,,74,127
39039,note_off,0,0,0,,2,,,50,127
39040,note_on,1,0,0,,7,,,55,127
39040,note_on,0,0,0,,7,,,67,127
39149,note_off,109,0,0,,7,,,67,127
39150,note_on,1,0,0,,4,,,76,127
39259,note_off,109,0,0,,4,,,76,127
39259,note_off,0,0,0,,7,,,55,127
39260,note_on,1,0,0,,10,,,57,127
39260,note_on,0,0,0,,4,,,64,127
39369,note_off,109,0,0,,4,,,64,127
39370,note_on,1,0,0,,1,,,73,127
39479,note_off,109,0,0,,1,,,73,127
39480,note_on,1,0,0,,10,,,45,127
39480,note_on,0,0,0,,7,,,67,127
39589,note_off,109,0,0,,7,,,67,127
39590,note_on,1,0,0,,4,,,76,127
39695,note_off,105,0,0,,10,,,57,127
39698,note_off,3,0,0,,4,,,76,127
39698,note_off,0,0,0,,10,,,45,127
39699,note_on,1,0,0,,2,,,50,127
39699,note_on,0,0,0,,2,,,74,127
39699,note_on,0,0,0,,2,,,62,127
39808,note_off,109,0,0,,2,,,62,127
39808,note_off,0,0,0,,2,,,50,127
39809,note_on,1,0,0,,2,,,62,127
39919,note_on,110,0,0,,5,,,53,127
39919,note_on,0,0,0,,12,,,71,127
40026,note_off,107,0,0,,2,,,62,127
40027,note_off,1,0,0,,5,,,53,127
40028,note_on,1,0,0,,2,,,62,127
40133,note_off,105,0,0,,2,,,74,127
40136,note_off,3,0,0,,2,,,62,127
40136,note_off,0,0,0,,12,,,71,127
40137,note_on,1,0,0,,2,,,50,127
40137,note_on,0,0,0,,10,,,69,127
40137,note_on,0,0,0,,2,,,74,127
40246,note_off,109,0,0,,2,,,50,127
40247,note_on,1,0,0,,2,,,62,127
40354,note_off,107,0,0,,2,,,74,127
40355,note_off,1,0,0,,2,,,62,127
40355,note_off,0,0,0,,10,,,69,127
40356,note_on,1,0,0,,4,,,52,127
40356,note_on,0,0,0,,8,,,68,127
40356,note_on,0,0,0,,2,,,74,127
40465,note_off,109,0,0,,4,,,52,127
40466,note_on,1,0,0,,2,,,62,127
40573,note_off,107,0,0,,2,,,74,127
40574,note_off,1,0,0,,2,,,62,127
40574,note_off,0,0,0,,8,,,68,127
40575,note_on,1,0,0,,5,,,53,127
40575,note_on,0,0,0,,2,,,74,127
40575,note_on,0,0,0,,10,,,69,127
40684,note_off,109,0,0,,5,,,53,127
40685,note_on,1,0,0,,2,,,62,127
40794,note_off,109,0,0,,2,,,62,127
40794,note_off,0,0,0,,2,,,74,127
40795,note_on,1,0,0,,2,,,50,127
40795,note_on,0,0,0,,2,,,74,127
40902,note_off,107,0,0,,10,,,69,127
40903,note_off,1,0,0,,2,,,50,127
40904,note_on,1,0,0,,2,,,62,127
40904,note_on,0,0,0,,12,,,71,127
41013,note_off,109,0,0,,12,,,71,127
41013,note_off,0,0,0,,2,,,62,127
41013,note_off,0,0,0,,2,,,74,127
41014,note_on,1,0,0,,4,,,52,127
41014,note_on,0,0,0,,8,,,68,127
41014,note_on,0,0,0,,2,,,74,127
41123,note_off,109,0,0,,4,,,52,127
41124,note_on,1,0,0,,2,,,62,127
41233,note_off,109,0,0,,2,,,62,127
41233,note_off,0,0,0,,2,,,74,127
41233,note_off,0,0,0,,8,,,68,127
41234,note_on,1,0,0,,5,,,53,127
41234,note_on,0,0,0,,2,,,74,127
41234,note_on,0,0,0,,10,,,69,127
41343,note_off,109,0,0,,5,,,53,127
41344,note_on,1,0,0,,2,,,62,127
41453,note_off,109,0,0,,2,,,62,127
41453,note_off,0,0,0,,2,,,74,127
41454,note_on,1,0,0,,2,,,50,127
41454,note_on,0,0,0,,2,,,74,127
41561,note_off,107,0,0,,10,,,69,127
41562,note_off,1,0,0,,2,,,50,127
41563,note_on,1,0,0,,2,,,62,127
41563,note_on,0,0,0,,12,,,71,127
41672,note_off,109,0,0,,12,,,71,127
41672,note_off,0,0,0,,2,,,62,127
41673,note_on,1,0,0,,4,,,52,127
41673,note_on,0,0,0,,8,,,68,127
41782,note_off,109,0,0,,4,,,52,127
41783,note_on,1,0,0,,4,,,64,127
41888,note_off,105,0,0,,2,,,74,127
41891,note_off,3,0,0,,4,,,64,127
41891,note_off,0,0,0,,8,,,68,127
41892,note_on,1,0,0,,8,,,56,127
41892,note_on,0,0,0,,12,,,83,127
42001,note_off,109,0,0,,8,,,56,127
42002,note_on,1,0,0,,4,,,64,127
42111,note_off,109,0,0,,4,,,64,127
42111,note_off,0,0,0,,12,,,83,127
42112,note_on,1,0,0,,4,,,52,127
42112,note_on,0,0,0,,4,,,76,127
42221,note_off,109,0,0,,4,,,52,127
42222,note_on,1,0,0,,4,,,64,127
42331,note_off,109,0,0,,4,,,64,127
42331,note_off,0,0,0,,4,,,76,127
42332,note_on,1,0,0,,10,,,57,127
42332,note_on,0,0,0,,5,,,77,127
42441,note_off,109,0,0,,5,,,77,127
42441,note_off,0,0,0,,10,,,57,127
42442,note_on,1,0,0,,4,,,64,127
42442,note_on,0,0,0,,4,,,76,127
42551,note_off,109,0,0,,4,,,76,127
42551,note_off,0,0,0,,4,,,64,127
42552,note_on,1,0,0,,0,,,60,127
42552,note_on,0,0,0,,2,,,74,127
42661,note_off,109,0,0,,0,,,60,127
42662,note_on,1,0,0,,4,,,64,127
42771,note_off,109,0,0,,4,,,64,127
42771,note_off,0,0,0,,2,,,74,127
42772,note_on,1,0,0,,10,,,57,127
42772,note_on,0,0,0,,0,,,72,127
42881,note_off,109,0,0,,10,,,57,127
42882,note_on,1,0,0,,4,,,64,127
42989,note_off,107,0,0,,0,,,72,127
42990,note_off,1,0,0,,4,,,64,127
42991,note_on,1,0,0,,4,,,52,127
43100,note_off,109,0,0,,4,,,52,127
43101,note_on,1,0,0,,4,,,64,127
43210,note_off,109,0,0,,4,,,64,127
43211,note_on,1,0,0,,8,,,56,127
43211,note_on,0,0,0,,12,,,83,127
43320,note_off,109,0,0,,8,,,56,127
43321,note_on,1,0,0,,4,,,64,127
43430,note_off,109,0,0,,4,,,64,127
43430,note_off,0,0,0,,12,,,83,127
43431,note_on,1,0,0,,4,,,52,127
43431,note_on,0,0,0,,4,,,76,127
43540,note_off,109,0,0,,4,,,52,127
43541,note_on,1,0,0,,4,,,64,127
43650,note_off,109,0,0,,4,,,64,127
43650,note_off,0,0,0,,4,,,76,127
43651,note_on,1,0,0,,10,,,57,127
43651,note_on,0,0,0,,5,,,77,127
43760,note_off,109,0,0,,5,,,77,127
43760,note_off,0,0,0,,10,,,57,127
43761,note_on,1,0,0,,4,,,64,127
43761,note_on,0,0,0,,4,,,76,127
43870,note_off,109,0,0,,4,,,76,127
43870,note_off,0,0,0,,4,,,64,127
43871,note_on,1,0,0,,0,,,60,127
43871,note_on,0,0,0,,2,,,74,127
43980,note_off,109,0,0,,0,,,60,127
43981,note_on,1,0,0,,4,,,64,127
44090,note_off,109,0,0,,4,,,64,127
44090,note_off,0,0,0,,2,,,74,127
44091,note_on,1,0,0,,10,,,57,127
44091,note_on,0,0,0,,0,,,72,127
44200,note_off,109,0,0,,10,,,57,127
44201,note_on,1,0,0,,4,,,64,127
44308,note_off,107,0,0,,0,,,72,127
44309,note_off,1,0,0,,4,,,64,127
44310,note_on,1,0,0,,2,,,50,127
44419,note_off,109,0,0,,2,,,50,127
44420,note_on,1,0,0,,2,,,62,127
44529,note_off,109,0,0,,2,,,62,127
44530,note_on,1,0,0,,6,,,54,127
44530,note_on,0,0,0,,10,,,81,127
44639,note_off,109,0,0,,6,,,54,127
44640,note_on,1,0,0,,2,,,62,127
44749,note_off,109,0,0,,2,,,62,127
44749,note_off,0,0,0,,10,,,81,127
44750,note_on,1,0,0,,2,,,50,127
44750,note_on,0,0,0,,2,,,74,127
44859,note_off,109,0,0,,2,,,50,127
44860,note_on,1,0,0,,2,,,62,127
44969,note_off,109,0,0,,2,,,62,127
44969,note_off,0,0,0,,2,,,74,127
44970,note_on,1,0,0,,7,,,55,127
44970,note_on,0,0,0,,4,,,76,127
45079,note_off,109,0,0,,4,,,76,127
45079,note_off,0,0,0,,7,,,55,127
45080,note_on,1,0,0,,2,,,62,127
45080,note_on,0,0,0,,2,,,74,127
45189,note_off,109,0,0,,2,,,74,127
45189,note_off,0,0,0,,2,,,62,127
45190,note_on,1,0,0,,12,,,59,127
45190,note_on,0,0,0,,0,,,72,127
45299,note_off,109,0,0,,12,,,59,127
45300,note_on,1,0,0,,2,,,62,127
45409,note_off,109,0,0,,2,,,62,127
45409,note_off,0,0,0,,0,,,72,127
45410,note_on,1,0,0,,7,,,55,127
45410,note_on,0,0,0,,12,,,71,127
45519,note_off,109,0,0,,7,,,55,127
45520,note_on,1,0,0,,2,,,62,127
45627,note_off,107,0,0,,12,,,71,127
45628,note_off,1,0,0,,2,,,62,127
45629,note_on,1,0,0,,2,,,50,127
45738,note_off,109,0,0,,2,,,50,127
45739,note_on,1,0,0,,2,,,62,127
45848,note_off,109,0,0,,2,,,62,127
45849,note_on,1,0,0,,6,,,54,127
45849,note_on,0,0,0,,10,,,81,127
45958,note_off,109,0,0,,6,,,54,127
45959,note_on,1,0,0,,2,,,62,127
46068,note_off,109,0,0,,2,,,62,127
46068,note_off,0,0,0,,10,,,81,127
46069,note_on,1,0,0,,2,,,50,127
46069,note_on,0,0,0,,2,,,74,127
46178,note_off,109,0,0,,2,,,50,127
46179,note_on,1,0,0,,2,,,62,127
46288,note_off,109,0,0,,2,,,62,127
46288,note_off,0,0,0,,2,,,74,127
46289,note_on,1,0,0,,7,,,55,127
46289,note_on,0,0,0,,4,,,76,127
46398,note_off,109,0,0,,4,,,76,127
46398,note_off,0,0,0,,7,,,55,127
46399,note_on,1,0,0,,2,,,62,127
46399,note_on,0,0,0,,2,,,74,127
46508,note_off,109,0,0,,2,,,74,127
46508,note_off,0,0,0,,2,,,62,127
46509,note_on,1,0,0,,12,,,59,127
46509,note_on,0,0,0,,0,,,72,127
46618,note_off,109,0,0,,12,,,59,127
46619,note_on,1,0,0,,2,,,62,127
46728,note_off,109,0,0,,2,,,62,127
46728,note_off,0,0,0,,0,,,72,127
46729,note_on,1,0,0,,7,,,55,127
46729,note_on,0,0,0,,12,,,71,127
46838,note_off,109,0,0,,7,,,55,127
46839,note_on,1,0,0,,2,,,62,127
46948,note_off,109,0,0,,2,,,62,127
46948,note_off,0,0,0,,12,,,71,127
46949,note_on,1,0,0,,0,,,60,127
46949,note_on,0,0,0,,4,,,76,127
47058,note_off,109,0,0,,4,,,76,127
47058,note_off,0,0,0,,0,,,60,127
47059,note_on,1,0,0,,12,,,59,127
47059,note_on,0,0,0,,2,,,74,127
47168,note_off,109,0,0,,2,,,74,127
47168,note_off,0,0,0,,12,,,59,127
47169,note_on,1,0,0,,0,,,60,127
47169,note_on,0,0,0,,0,,,72,127
47278,note_off,109,0,0,,0,,,72,127
47278,note_off,0,0,0,,0,,,60,127
47279,note_on,1,0,0,,2,,,62,127
47279,note_on,0,0,0,,12,,,71,127
47388,note_off,109,0,0,,12,,,71,127
47388,note_off,0,0,0,,2,,,62,127
47389,note_on,1,0,0,,4,,,64,127
47389,note_on,0,0,0,,0,,,72,127
47498,note_off,109,0,0,,0,,,72,127
47498,note_off,0,0,0,,4,,,64,127
47499,note_on,1,0,0,,6,,,66,127
47499,note_on,0,0,0,,2,,,74,127
47608,note_off,109,0,0,,2,,,74,127
47608,note_off,0,0,0,,6,,,66,127
47609,note_on,1,0,0,,7,,,67,127
47609,note_on,0,0,0,,12,,,71,127
47718,note_off,109,0,0,,7,,,67,127
47719,note_on,1,0,0,,6,,,66,127
47828,note_off,109,0,0,,6,,,66,127
47828,note_off,0,0,0,,12,,,71,127
47829,note_on,1,0,0,,4,,,64,127
47829,note_on,0,0,0,,0,,,72,127
47938,note_off,109,0,0,,4,,,64,127
47939,note_on,1,0,0,,2,,,62,127
48048,note_off,109,0,0,,2,,,62,127
48048,note_off,0,0,0,,0,,,72,127
48049,note_on,1,0,0,,0,,,60,127
48049,note_on,0,0,0,,2,,,74,127
48158,note_off,109,0,0,,0,,,60,127
48159,note_on,1,0,0,,12,,,59,127
48268,note_off,109,0,0,,12,,,59,127
48268,note_off,0,0,0,,2,,,74,127
48269,note_on,1,0,0,,0,,,60,127
48269,note_on,0,0,0,,4,,,76,127
48378,note_off,109,0,0,,0,,,60,127
48379,note_on,1,0,0,,12,,,59,127
48488,note_off,109,0,0,,12,,,59,127
48488,note_off,0,0,0,,4,,,76,127
48489,note_on,1,0,0,,10,,,57,127
48489,note_on,0,0,0,,6,,,78,127
48598,note_off,109,0,0,,10,,,57,127
48599,note_on,1,0,0,,7,,,55,127
48708,note_off,109,0,0,,7,,,55,127
48708,note_off,0,0,0,,6,,,78,127
48709,note_on,1,0,0,,6,,,54,127
48709,note_on,0,0,0,,7,,,79,127
48818,note_off,109,0,0,,6,,,54,127
48819,note_on,1,0,0,,4,,,52,127
48928,note_off,109,0,0,,4,,,52,127
48928,note_off,0,0,0,,7,,,79,127
48929,note_on,1,0,0,,2,,,50,127
48929,note_on,0,0,0,,10,,,69,127
49038,note_off,109,0,0,,2,,,50,127
49039,note_on,1,0,0,,0,,,48,127
49148,note_off,109,0,0,,0,,,48,127
49148,note_off,0,0,0,,10,,,69,127
49149,note_on,1,0,0,,12,,,47,127
49149,note_on,0,0,0,,12,,,71,127
49258,note_off,109,0,0,,12,,,71,127
49258,note_off,0,0,0,,12,,,47,127
49259,note_on,1,0,0,,10,,,45,127
49259,note_on,0,0,0,,0,,,72,127
49368,note_off,109,0,0,,0,,,72,127
49368,note_off,0,0,0,,10,,,45,127
49369,note_on,1,0,0,,7,,,43,127
49369,note_on,0,0,0,,2,,,74,127
49478,note_off,109,0,0,,2,,,74,127
49479,note_on,1,0,0,,12,,,71,127
49588,note_off,109,0,0,,12,,,71,127
49588,note_off,0,0,0,,7,,,43,127
49589,note_on,1,0,0,,0,,,48,127
49589,note_on,0,0,0,,0,,,72,127
49698,note_off,109,0,0,,0,,,72,127
49699,note_on,1,0,0,,10,,,69,127
49808,note_off,109,0,0,,10,,,69,127
49808,note_off,0,0,0,,0,,,48,127
49809,note_on,1,0,0,,2,,,50,127
49809,note_on,0,0,0,,12,,,71,127
49918,note_off,109,0,0,,12,,,71,127
49919,note_on,1,0,0,,7,,,67,127
50028,note_off,109,0,0,,7,,,67,127
50029,note_on,1,0,0,,2,,,38,127
50029,note_on,0,0,0,,10,,,69,127
50138,note_off,109,0,0,,10,,,69,127
50139,note_on,1,0,0,,6,,,66,127
50244,note_off,105,0,0,,2,,,50,127
50247,note_off,3,0,0,,6,,,66,127
50247,note_off,0,0,0,,2,,,38,127
50248,note_on,1,0,0,,7,,,43,127
50248,note_on,0,0,0,,7,,,67,127
50352,note_off,104,0,0,,7,,,67,127
50357,note_off,5,0,0,,7,,,43,127
50358,note_on,1,0,0,,7,,,67,127
50468,note_on,110,0,0,,2,,,62,127
50575,note_off,107,0,0,,7,,,67,127
50576,note_off,1,0,0,,2,,,62,127
50577,note_on,1,0,0,,7,,,67,127
50686,note_off,109,0,0,,7,,,67,127
50687,note_on,1,0,0,,12,,,59,127
50687,note_on,0,0,0,,7,,,79,127
50796,note_off,109,0,0,,12,,,59,127
50797,note_on,1,0,0,,7,,,67,127
50906,note_off,109,0,0,,7,,,67,127
50907,note_on,1,0,0,,4,,,64,127
51016,note_off,109,0,0,,4,,,64,127
51017,note_on,1,0,0,,7,,,67,127
51126,note_off,109,0,0,,7,,,67,127
51126,note_off,0,0,0,,7,,,79,127
51127,note_on,1,0,0,,0,,,60,127
51127,note_on,0,0,0,,4,,,76,127
51236,note_off,109,0,0,,0,,,60,127
51237,note_on,1,0,0,,4,,,64,127
51346,note_off,109,0,0,,4,,,64,127
51346,note_off,0,0,0,,4,,,76,127
51347,note_on,1,0,0,,10,,,57,127
51347,note_on,0,0,0,,0,,,84,127
51456,note_off,109,0,0,,10,,,57,127
51457,note_on,1,0,0,,0,,,60,127
51566,note_off,109,0,0,,0,,,60,127
51567,note_on,1,0,0,,2,,,38,127
51676,note_off,109,0,0,,0,,,84,127
51677,note_on,1,0,0,,10,,,81,127
51786,note_off,109,0,0,,10,,,81,127
51787,note_on,1,0,0,,2,,,74,127
51896,note_off,109,0,0,,2,,,74,127
51897,note_on,1,0,0,,0,,,84,127
52006,note_off,109,0,0,,0,,,84,127
52006,note_off,0,0,0,,2,,,38,127
52007,note_on,1,0,0,,7,,,43,127
52007,note_on,0,0,0,,12,,,83,127
52116,note_off,109,0,0,,12,,,83,127
52117,note_on,1,0,0,,2,,,74,127
52226,note_off,109,0,0,,2,,,74,127
52226,note_off,0,0,0,,7,,,43,127
52227,note_on,1,0,0,,0,,,48,127
52227,note_on,0,0,0,,0,,,72,127
52336,note_off,109,0,0,,0,,,72,127
52337,note_on,1,0,0,,10,,,81,127
52446,note_off,109,0,0,,10,,,81,127
52446,note_off,0,0,0,,0,,,48,127
52447,note_on,1,0,0,,2,,,50,127
52447,note_on,0,0,0,,12,,,71,127
52556,note_off,109,0,0,,12,,,71,127
52557,note_on,1,0,0,,7,,,79,127
52666,note_off,109,0,0,,7,,,79,127
52667,note_on,1,0,0,,2,,,38,127
52667,note_on,0,0,0,,10,,,69,127
52776,note_off,109,0,0,,10,,,69,127
52777,note_on,1,0,0,,6,,,78,127
52882,note_off,105,0,0,,2,,,50,127
52885,note_off,3,0,0,,6,,,78,127
52885,note_off,0,0,0,,2,,,38,127
52886,note_on,1,0,0,,7,,,55,127
52886,note_on,0,0,0,,7,,,79,127
52995,note_off,109,0,0,,7,,,55,127
52996,note_on,1,0,0,,7,,,67,127
53105,note_off,109,0,0,,7,,,67,127
53106,note_on,1,0,0,,2,,,62,127
53215,note_off,109,0,0,,2,,,62,127
53216,note_on,1,0,0,,7,,,67,127
53325,note_off,109,0,0,,7,,,67,127
53325,note_off,0,0,0,,7,,,79,127
53326,note_on,1,0,0,,12,,,59,127
53326,note_on,0,0,0,,7,,,79,127
53435,note_off,109,0,0,,12,,,59,127
53436,note_on,1,0,0,,7,,,67,127
53545,note_off,109,0,0,,7,,,67,127
53546,note_on,1,0,0,,4,,,64,127
53655,note_off,109,0,0,,4,,,64,127
53656,note_on,1,0,0,,7,,,67,127
53765,note_off,109,0,0,,7,,,67,127
53765,note_off,0,0,0,,7,,,79,127
53766,note_on,1,0,0,,0,,,60,127
53766,note_on,0,0,0,,4,,,76,127
53875,note_off,109,0,0,,0,,,60,127
53876,note_on,1,0,0,,4,,,64,127
53985,note_off,109,0,0,,4,,,64,127
53985,note_off,0,0,0,,4,,,76,127
53986,note_on,1,0,0,,10,,,57,127
53986,note_on,0,0,0,,0,,,84,127
54095,note_off,109,0,0,,10,,,57,127
54096,note_on,1,0,0,,0,,,60,127
54205,note_off,109,0,0,,0,,,60,127
54206,note_on,1,0,0,,2,,,38,127
54315,note_off,109,0,0,,0,,,84,127
54316,note_on,1,0,0,,10,,,81,127
54425,note_off,109,0,0,,10,,,81,127
54426,note_on,1,0,0,,2,,,74,127
54535,note_off,109,0,0,,2,,,74,127
54536,note_on,1,0,0,,0,,,84,127
54645,note_off,109,0,0,,0,,,84,127
54645,note_off,0,0,0,,2,,,38,127
54646,note_on,1,0,0,,7,,,43,127
54646,note_on,0,0,0,,12,,,83,127
54755,note_off,109,0,0,,12,,,83,127
54756,note_on,1,0,0,,2,,,74,127
54865,note_off,109,0,0,,2,,,74,127
54865,note_off,0,0,0,,7,,,43,127
54866,note_on,1,0,0,,0,,,48,127
54866,note_on,0,0,0,,0,,,72,127
54975,note_off,109,0,0,,0,,,72,127
54976,note_on,1,0,0,,10,,,81,127
55085,note_off,109,0,0,,10,,,81,127
55085,note_off,0,0,0,,0,,,48,127
55086,note_on,1,0,0,,2,,,50,127
55086,note_on,0,0,0,,12,,,71,127
55195,note_off,109,0,0,,12,,,71,127
55196,note_on,1,0,0,,7,,,79,127
55305,note_off,109,0,0,,7,,,79,127
55306,note_on,1,0,0,,2,,,38,127
55306,note_on,0,0,0,,10,,,69,127
55415,note_off,109,0,0,,10,,,69,127
55416,note_on,1,0,0,,6,,,78,127
55521,note_off,105,0,0,,2,,,50,127
55524,note_off,3,0,0,,6,,,78,127
55524,note_off,0,0,0,,2,,,38,127
55525,note_on,1,0,0,,7,,,55,127
55525,note_on,0,0,0,,12,,,71,127
55634,note_off,109,0,0,,12,,,71,127
55635,note_on,1,0,0,,7,,,79,127
55744,note_off,109,0,0,,7,,,79,127
55744,note_off,0,0,0,,7,,,55,127
55745,note_on,1,0,0,,12,,,59,127
55745,note_on,0,0,0,,2,,,74,127
55854,note_off,109,0,0,,2,,,74,127
55855,note_on,1,0,0,,12,,,83,127
55964,note_off,109,0,0,,12,,,83,127
55964,note_off,0,0,0,,12,,,59,127
55965,note_on,1,0,0,,7,,,55,127
55965,note_on,0,0,0,,12,,,71,127
56074,note_off,109,0,0,,12,,,71,127
56075,note_on,1,0,0,,7,,,79,127
56184,note_off,109,0,0,,7,,,79,127
56184,note_off,0,0,0,,7,,,55,127
56185,note_on,1,0,0,,0,,,60,127
56185,note_on,0,0,0,,0,,,72,127
56294,note_off,109,0,0,,0,,,72,127
56295,note_on,1,0,0,,10,,,81,127
56404,note_off,109,0,0,,10,,,81,127
56404,note_off,0,0,0,,0,,,60,127
56405,note_on,1,0,0,,2,,,62,127
56405,note_on,0,0,0,,10,,,69,127
56514,note_off,109,0,0,,10,,,69,127
56515,note_on,1,0,0,,6,,,78,127
56624,note_off,109,0,0,,6,,,78,127
56625,note_on,1,0,0,,2,,,50,127
56625,note_on,0,0,0,,0,,,72,127
56734,note_off,109,0,0,,0,,,72,127
56735,note_on,1,0,0,,10,,,81,127
56840,note_off,105,0,0,,2,,,62,127
56843,note_off,3,0,0,,10,,,81,127
56843,note_off,0,0,0,,2,,,50,127
56844,note_on,1,0,0,,7,,,55,127
56844,note_on,0,0,0,,12,,,71,127
56953,note_off,109,0,0,,12,,,71,127
56954,note_on,1,0,0,,7,,,79,127
57063,note_off,109,0,0,,7,,,79,127
57063,note_off,0,0,0,,7,,,55,127
57064,note_on,1,0,0,,12,,,59,127
57064,note_on,0,0,0,,2,,,74,127
57173,note_off,109,0,0,,2,,,74,127
57174,note_on,1,0,0,,12,,,83,127
57283,note_off,109,0,0,,12,,,83,127
57283,note_off,0,0,0,,12,,,59,127
57284,note_on,1,0,0,,7,,,55,127
57284,note_on,0,0,0,,12,,,71,127
57393,note_off,109,0,0,,12,,,71,127
57394,note_on,1,0,0,,7,,,79,127
57503,note_off,109,0,0,,7,,,79,127
57503,note_off,0,0,0,,7,,,55,127
57504,note_on,1,0,0,,0,,,60,127
57504,note_on,0,0,0,,0,,,72,127
57613,note_off,109,0,0,,0,,,72,127
57614,note_on,1,0,0,,10,,,81,127
57723,note_off,109,0,0,,10,,,81,127
57723,note_off,0,0,0,,0,,,60,127
57724,note_on,1,0,0,,2,,,62,127
57724,note_on,0,0,0,,10,,,69,127
57833,note_off,109,0,0,,10,,,69,127
57834,note_on,1,0,0,,6,,,78,127
57943,note_off,109,0,0,,6,,,78,127
57944,note_on,1,0,0,,2,,,50,127
57944,note_on,0,0,0,,0,,,72,127
58053,note_off,109,0,0,,0,,,72,127
58054,note_off,1,0,0,,2,,,62,127
58054,note_on,0,0,0,,10,,,81,127
58163,note_off,109,0,0,,10,,,81,127
58163,note_off,0,0,0,,2,,,50,127
58164,note_on,1,0,0,,7,,,43,127
58164,note_on,0,0,0,,7,,,79,127
58273,note_off,109,0,0,,7,,,79,127
58274,note_on,1,0,0,,2,,,74,127
58383,note_off,109,0,0,,2,,,74,127
58383,note_off,0,0,0,,7,,,43,127
58384,note_on,1,0,0,,10,,,45,127
58384,note_on,0,0,0,,12,,,71,127
58493,note_off,109,0,0,,12,,,71,127
58494,note_on,1,0,0,,2,,,74,127
58603,note_off,109,0,0,,2,,,74,127
58603,note_off,0,0,0,,10,,,45,127
58604,note_on,1,0,0,,12,,,47,127
58604,note_on,0,0,0,,7,,,67,127
58713,note_off,109,0,0,,7,,,67,127
58714,note_on,1,0,0,,12,,,71,127
58823,note_off,109,0,0,,12,,,71,127
58823,note_off,0,0,0,,12,,,47,127
58824,note_on,1,0,0,,0,,,48,127
58824,note_on,0,0,0,,4,,,64,127
58933,note_off,109,0,0,,4,,,64,127
58934,note_on,1,0,0,,0,,,72,127
59043,note_off,109,0,0,,0,,,72,127
59043,note_off,0,0,0,,0,,,48,127
59044,note_on,1,0,0,,2,,,50,127
59044,note_on,0,0,0,,2,,,62,127
59153,note_off,109,0,0,,2,,,62,127
59154,note_on,1,0,0,,12,,,71,127
59263,note_off,109,0,0,,12,,,71,127
59263,note_off,0,0,0,,2,,,50,127
59264,note_on,1,0,0,,2,,,38,127
59264,note_on,0,0,0,,0,,,60,127
59373,note_off,109,0,0,,0,,,60,127
59374,note_on,1,0,0,,10,,,69,127
59483,note_off,109,0,0,,10,,,69,127
59483,note_off,0,0,0,,2,,,38,127
59484,note_on,1,0,0,,7,,,43,127
59484,note_on,0,0,0,,2,,,62,127
59593,note_off,109,0,0,,2,,,62,127
59594,note_on,1,0,0,,12,,,71,127
59703,note_off,109,0,0,,12,,,71,127
59703,note_off,0,0,0,,7,,,43,127
59704,note_on,1,0,0,,10,,,45,127
59704,note_on,0,0,0,,0,,,60,127
59813,note_off,109,0,0,,0,,,60,127
59814,note_on,1,0,0,,10,,,69,127
59923,note_off,109,0,0,,10,,,69,127
59923,note_off,0,0,0,,10,,,45,127
59924,note_on,1,0,0,,12,,,47,127
59924,note_on,0,0,0,,12,,,59,127
60033,note_off,109,0,0,,12,,,59,127
60034,note_on,1,0,0,,7,,,67,127
60143,note_off,109,0,0,,7,,,67,127
60143,note_off,0,0,0,,12,,,47,127
60144,note_on,1,0,0,,0,,,48,127
60144,note_on,0,0,0,,0,,,60,127
60253,note_off,109,0,0,,0,,,60,127
60254,note_on,1,0,0,,10,,,69,127
60363,note_off,109,0,0,,10,,,69,127
60363,note_off,0,0,0,,0,,,48,127
60364,note_on,1,0,0,,2,,,50,127
60364,note_on,0,0,0,,12,,,59,127
60473,note_off,109,0,0,,12,,,59,127
60474,note_on,1,0,0,,7,,,67,127
60583,note_off,109,0,0,,7,,,67,127
60583,note_off,0,0,0,,2,,,50,127
60584,note_on,1,0,0,,2,,,38,127
60584,note_on,0,0,0,,10,,,57,127
60693,note_off,109,0,0,,10,,,57,127
60694,note_on,1,0,0,,6,,,66,127
60803,note_off,109,0,0,,6,,,66,127
60803,note_off,0,0,0,,2,,,38,127
60813,note_on,10,0,0,,7,,,43,127
60813,note_on,0,0,0,,7,,,31,127
60813,note_on,0,0,0,,7,,,67,127
63007,note_off,2194,0,0,,7,,,67,127
63007,note_off,0,0,0,,7,,,31,127
63007,note_off,0,0,0,,7,,,43,127
64512,end_of_track,1505,1,0,,,,,,
