tick,type,time,meta,track,program,channel,pitch,tempo,note,velocity
0,copyright,0,1,0,,,,,,
0,program_change,0,0,0,6,0,,,,
0,pitchwheel,0,0,0,,0,0,,,
0,program_change,0,0,0,6,1,,,,
0,pitchwheel,0,0,0,,1,-590,,,
0,program_change,0,0,0,6,2,,,,
0,pitchwheel,0,0,0,,2,-272,,,
0,program_change,0,0,0,6,3,,,,
0,pitchwheel,0,0,0,,3,-353,,,
0,program_change,0,0,0,6,4,,,,
0,pitchwheel,0,0,0,,4,-560,,,
0,program_change,0,0,0,6,5,,,,
0,pitchwheel,0,0,0,,5,-80,,,
0,program_change,0,0,0,6,6,,,,
0,pitchwheel,0,0,0,,6,-625,,,
0,program_change,0,0,0,6,7,,,,
0,pitchwheel,0,0,0,,7,-130,,,
0,program_change,0,0,0,6,8,,,,
0,pitchwheel,0,0,0,,8,-512,,,
0,program_change,0,0,0,6,10,,,,
0,pitchwheel,0,0,0,,10,-464,,,
0,program_change,0,0,0,6,11,,,,
0,pitchwheel,0,0,0,,11,-208,,,
0,program_change,0,0,0,6,12,,,,
0,pitchwheel,0,0,0,,12,-553,,,
0,set_tempo,0,1,0,,,,500000,,
77,note_on,77,0,0,,7,,,55,127
77,note_on,0,0,0,,7,,,67,127
230,note_off,153,0,0,,7,,,67,127
231,note_on,1,0,0,,6,,,78,127
384,note_off,153,0,0,,6,,,78,127
385,note_on,1,0,0,,7,,,79,127
538,note_off,153,0,0,,7,,,79,127
538,note_off,0,0,0,,7,,,55,127
539,note_on,1,0,0,,12,,,59,127
539,note_on,0,0,0,,7,,,67,127
692,note_off,153,0,0,,7,,,67,127
693,note_on,1,0,0,,1,,,73,127
846,note_off,153,0,0,,1,,,73,127
847,note_on,1,0,0,,2,,,74,127
1000,note_off,153,0,0,,2,,,74,127
1000,note_off,0,0,0,,12,,,59,127
1001,note_on,1,0,0,,0,,,60,127
1001,note_on,0,0,0,,4,,,64,127
1154,note_off,153,0,0,,4,,,64,127
1155,note_on,1,0,0,,4,,,76,127
1308,note_off,153,0,0,,4,,,76,127
1309,note_on,1,0,0,,2,,,74,127
1462,note_off,153,0,0,,2,,,74,127
1462,note_off,0,0,0,,0,,,60,127
1463,note_on,1,0,0,,2,,,62,127
1463,note_on,0,0,0,,0,,,72,127
1463,note_on,0,0,0,,2,,,74,127
1616,note_off,153,0,0,,2,,,74,127
1616,note_off,0,0,0,,0,,,72,127
1617,note_on,1,0,0,,12,,,71,127
1770,note_off,153,0,0,,12,,,71,127
1771,note_on,1,0,0,,10,,,69,127
1924,note_off,153,0,0,,10,,,69,127
1924,note_off,0,0,0,,2,,,62,127
1925,note_on,1,0,0,,7,,,55,127
1925,note_on,0,0,0,,12,,,71,127
2078,note_off,153,0,0,,12,,,71,127
2079,note_on,1,0,0,,6,,,78,127
2232,note_off,153,0,0,,6,,,78,127
2233,note_on,1,0,0,,7,,,79,127
2386,note_off,153,0,0,,7,,,79,127
2386,note_off,0,0,0,,7,,,55,127
2387,note_on,1,0,0,,12,,,47,127
2387,note_on,0,0,0,,7,,,67,127
2540,note_off,153,0,0,,7,,,67,127
2541,note_on,1,0,0,,1,,,73,127
2694,note_off,153,0,0,,1,,,73,127
2695,note_on,1,0,0,,2,,,74,127
2848,note_off,153,0,0,,2,,,74,127
2848,note_off,0,0,0,,12,,,47,127
2849,note_on,1,0,0,,0,,,48,127
2849,note_on,0,0,0,,4,,,64,127
3002,note_off,153,0,0,,4,,,64,127
3003,note_on,1,0,0,,0,,,72,127
3156,note_off,153,0,0,,0,,,72,127
3157,note_on,1,0,0,,12,,,71,127
3310,note_off,153,0,0,,12,,,71,127
3310,note_off,0,0,0,,0,,,48,127
3311,note_on,1,0,0,,2,,,50,127
3311,note_on,0,0,0,,12,,,71,127
3311,note_on,0,0,0,,10,,,69,127
3464,note_off,153,0,0,,10,,,69,127
3464,note_off,0,0,0,,12,,,71,127
3465,note_on,1,0,0,,7,,,67,127
3618,note_off,153,0,0,,7,,,67,127
3619,note_on,1,0,0,,6,,,66,127
3772,note_off,153,0,0,,6,,,66,127
3772,note_off,0,0,0,,2,,,50,127
3773,note_on,1,0,0,,7,,,55,127
3773,note_on,0,0,0,,7,,,67,127
3926,note_off,153,0,0,,7,,,55,127
3927,note_on,1,0,0,,6,,,66,127
3949,note_off,22,0,0,,7,,,67,127
4079,note_off,130,0,0,,6,,,66,127
4080,note_on,1,0,0,,7,,,67,127
4233,note_off,153,0,0,,7,,,67,127
4234,note_on,1,0,0,,12,,,59,127
4387,note_off,153,0,0,,12,,,59,127
4388,note_on,1,0,0,,6,,,66,127
4541,note_off,153,0,0,,6,,,66,127
4542,note_on,1,0,0,,7,,,67,127
4695,note_off,153,0,0,,7,,,67,127
4696,note_on,1,0,0,,0,,,60,127
4696,note_on,0,0,0,,6,,,78,127
4696,note_on,0,0,0,,4,,,76,127
4849,note_off,153,0,0,,0,,,60,127
4850,note_on,1,0,0,,6,,,66,127
5000,note_off,150,0,0,,6,,,78,127
5002,note_off,2,0,0,,6,,,66,127
5003,note_on,1,0,0,,7,,,67,127
5156,note_off,153,0,0,,7,,,67,127
5157,note_on,1,0,0,,2,,,62,127
5310,note_off,153,0,0,,2,,,62,127
5310,note_off,0,0,0,,4,,,76,127
5311,note_on,1,0,0,,6,,,66,127
5311,note_on,0,0,0,,2,,,74,127
5464,note_off,153,0,0,,2,,,74,127
5464,note_off,0,0,0,,6,,,66,127
5465,note_on,1,0,0,,7,,,67,127
5465,note_on,0,0,0,,0,,,72,127
5618,note_off,153,0,0,,0,,,72,127
5618,note_off,0,0,0,,7,,,67,127
5619,note_on,1,0,0,,7,,,55,127
5619,note_on,0,0,0,,12,,,71,127
5772,note_off,153,0,0,,7,,,55,127
5773,note_on,1,0,0,,6,,,66,127
5926,note_off,153,0,0,,6,,,66,127
5927,note_on,1,0,0,,7,,,67,127
6080,note_off,153,0,0,,7,,,67,127
6080,note_off,0,0,0,,12,,,71,127
6081,note_on,1,0,0,,12,,,59,127
6234,note_off,153,0,0,,12,,,59,127
6235,note_on,1,0,0,,6,,,66,127
6388,note_off,153,0,0,,6,,,66,127
6389,note_on,1,0,0,,7,,,67,127
6542,note_off,153,0,0,,7,,,67,127
6543,note_on,1,0,0,,0,,,60,127
6543,note_on,0,0,0,,6,,,78,127
6543,note_on,0,0,0,,4,,,76,127
6696,note_off,153,0,0,,0,,,60,127
6697,note_on,1,0,0,,6,,,66,127
6847,note_off,150,0,0,,6,,,78,127
6849,note_off,2,0,0,,6,,,66,127
6850,note_on,1,0,0,,7,,,67,127
7003,note_off,153,0,0,,7,,,67,127
7004,note_on,1,0,0,,2,,,62,127
7157,note_off,153,0,0,,2,,,62,127
7157,note_off,0,0,0,,4,,,76,127
7158,note_on,1,0,0,,6,,,66,127
7158,note_on,0,0,0,,2,,,74,127
7311,note_off,153,0,0,,2,,,74,127
7311,note_off,0,0,0,,6,,,66,127
7312,note_on,1,0,0,,7,,,67,127
7312,note_on,0,0,0,,0,,,72,127
7465,note_off,153,0,0,,0,,,72,127
7465,note_off,0,0,0,,7,,,67,127
7466,note_on,1,0,0,,7,,,55,127
7466,note_on,0,0,0,,12,,,71,127
7619,note_off,153,0,0,,12,,,71,127
7620,note_on,1,0,0,,2,,,86,127
7773,note_off,153,0,0,,2,,,86,127
7774,note_on,1,0,0,,0,,,84,127
7927,note_off,153,0,0,,0,,,84,127
7927,note_off,0,0,0,,7,,,55,127
7928,note_on,1,0,0,,7,,,55,127
7928,note_on,0,0,0,,12,,,83,127
8081,note_off,153,0,0,,12,,,83,127
8082,note_on,1,0,0,,10,,,81,127
8235,note_off,153,0,0,,10,,,81,127
8236,note_on,1,0,0,,7,,,79,127
8389,note_off,153,0,0,,7,,,79,127
8389,note_off,0,0,0,,7,,,55,127
8390,note_on,1,0,0,,10,,,57,127
8390,note_on,0,0,0,,6,,,78,127
8543,note_off,153,0,0,,6,,,78,127
8544,note_on,1,0,0,,4,,,76,127
8697,note_off,153,0,0,,4,,,76,127
8698,note_on,1,0,0,,3,,,75,127
8851,note_off,153,0,0,,3,,,75,127
8851,note_off,0,0,0,,10,,,57,127
8852,note_on,1,0,0,,12,,,59,127
8852,note_on,0,0,0,,0,,,72,127
9005,note_off,153,0,0,,0,,,72,127
9006,note_on,1,0,0,,12,,,71,127
9159,note_off,153,0,0,,12,,,71,127
9160,note_on,1,0,0,,10,,,69,127
9313,note_off,153,0,0,,10,,,69,127
9313,note_off,0,0,0,,12,,,59,127
9314,note_on,1,0,0,,4,,,52,127
9314,note_on,0,0,0,,7,,,67,127
9467,note_off,153,0,0,,4,,,52,127
9468,note_on,1,0,0,,3,,,63,127
9621,note_off,153,0,0,,3,,,63,127
9622,note_on,1,0,0,,4,,,64,127
9775,note_off,153,0,0,,4,,,64,127
9775,note_off,0,0,0,,7,,,67,127
9776,note_on,1,0,0,,7,,,55,127
9929,note_off,153,0,0,,7,,,55,127
9930,note_on,1,0,0,,3,,,63,127
10083,note_off,153,0,0,,3,,,63,127
10084,note_on,1,0,0,,4,,,64,127
10237,note_off,153,0,0,,4,,,64,127
10238,note_on,1,0,0,,10,,,57,127
10238,note_on,0,0,0,,6,,,78,127
10238,note_on,0,0,0,,7,,,79,127
10391,note_off,153,0,0,,10,,,57,127
10392,note_on,1,0,0,,3,,,63,127
10542,note_off,150,0,0,,7,,,79,127
10544,note_off,2,0,0,,3,,,63,127
10545,note_on,1,0,0,,4,,,64,127
10698,note_off,153,0,0,,4,,,64,127
10699,note_on,1,0,0,,12,,,59,127
10852,note_off,153,0,0,,12,,,59,127
10852,note_off,0,0,0,,6,,,78,127
10853,note_on,1,0,0,,3,,,63,127
10853,note_on,0,0,0,,7,,,79,127
11006,note_off,153,0,0,,7,,,79,127
11006,note_off,0,0,0,,3,,,63,127
11007,note_on,1,0,0,,4,,,64,127
11007,note_on,0,0,0,,10,,,81,127
11160,note_off,153,0,0,,10,,,81,127
11160,note_off,0,0,0,,4,,,64,127
11161,note_on,1,0,0,,4,,,52,127
11161,note_on,0,0,0,,10,,,81,127
11161,note_on,0,0,0,,7,,,79,127
11314,note_off,153,0,0,,7,,,79,127
11314,note_off,0,0,0,,10,,,81,127
11314,note_off,0,0,0,,4,,,52,127
11315,note_on,1,0,0,,3,,,63,127
11315,note_on,0,0,0,,6,,,78,127
11468,note_off,153,0,0,,6,,,78,127
11468,note_off,0,0,0,,3,,,63,127
11469,note_on,1,0,0,,4,,,64,127
11469,note_on,0,0,0,,4,,,76,127
11622,note_off,153,0,0,,4,,,64,127
11623,note_on,1,0,0,,7,,,55,127
11773,note_off,150,0,0,,4,,,76,127
11775,note_off,2,0,0,,7,,,55,127
11776,note_on,1,0,0,,3,,,63,127
11929,note_off,153,0,0,,3,,,63,127
11930,note_on,1,0,0,,4,,,64,127
12083,note_off,153,0,0,,4,,,64,127
12084,note_on,1,0,0,,10,,,57,127
12084,note_on,0,0,0,,7,,,79,127
12084,note_on,0,0,0,,6,,,78,127
12237,note_off,153,0,0,,10,,,57,127
12238,note_on,1,0,0,,3,,,63,127
12388,note_off,150,0,0,,7,,,79,127
12390,note_off,2,0,0,,3,,,63,127
12391,note_on,1,0,0,,4,,,64,127
12544,note_off,153,0,0,,4,,,64,127
12545,note_on,1,0,0,,12,,,59,127
12698,note_off,153,0,0,,12,,,59,127
12698,note_off,0,0,0,,6,,,78,127
12699,note_on,1,0,0,,3,,,63,127
12699,note_on,0,0,0,,7,,,79,127
12852,note_off,153,0,0,,7,,,79,127
12852,note_off,0,0,0,,3,,,63,127
12853,note_on,1,0,0,,4,,,64,127
12853,note_on,0,0,0,,10,,,81,127
13006,note_off,153,0,0,,10,,,81,127
13006,note_off,0,0,0,,4,,,64,127
13007,note_on,1,0,0,,4,,,52,127
13007,note_on,0,0,0,,7,,,79,127
13160,note_off,153,0,0,,7,,,79,127
13161,note_on,1,0,0,,0,,,84,127
13314,note_off,153,0,0,,0,,,84,127
13315,note_on,1,0,0,,12,,,83,127
13468,note_off,153,0,0,,12,,,83,127
13468,note_off,0,0,0,,4,,,52,127
13469,note_on,1,0,0,,7,,,55,127
13469,note_on,0,0,0,,10,,,81,127
13622,note_off,153,0,0,,10,,,81,127
13623,note_on,1,0,0,,7,,,79,127
13776,note_off,153,0,0,,7,,,79,127
13777,note_on,1,0,0,,5,,,77,127
13930,note_off,153,0,0,,5,,,77,127
13930,note_off,0,0,0,,7,,,55,127
13931,note_on,1,0,0,,10,,,57,127
13931,note_on,0,0,0,,4,,,76,127
14084,note_off,153,0,0,,4,,,76,127
14085,note_on,1,0,0,,2,,,74,127
14238,note_off,153,0,0,,2,,,74,127
14239,note_on,1,0,0,,1,,,73,127
14392,note_off,153,0,0,,1,,,73,127
14392,note_off,0,0,0,,10,,,57,127
14393,note_on,1,0,0,,1,,,61,127
14393,note_on,0,0,0,,11,,,70,127
14546,note_off,153,0,0,,11,,,70,127
14547,note_on,1,0,0,,10,,,69,127
14700,note_off,153,0,0,,10,,,69,127
14701,note_on,1,0,0,,7,,,67,127
14854,note_off,153,0,0,,7,,,67,127
14854,note_off,0,0,0,,1,,,61,127
14855,note_on,1,0,0,,2,,,50,127
14855,note_on,0,0,0,,5,,,65,127
15008,note_off,153,0,0,,2,,,50,127
15009,note_on,1,0,0,,1,,,61,127
15162,note_off,153,0,0,,1,,,61,127
15163,note_on,1,0,0,,2,,,62,127
15316,note_off,153,0,0,,2,,,62,127
15316,note_off,0,0,0,,5,,,65,127
15317,note_on,1,0,0,,5,,,53,127
15470,note_off,153,0,0,,5,,,53,127
15471,note_on,1,0,0,,1,,,61,127
15624,note_off,153,0,0,,1,,,61,127
15625,note_on,1,0,0,,2,,,62,127
15778,note_off,153,0,0,,2,,,62,127
15779,note_on,1,0,0,,7,,,55,127
15779,note_on,0,0,0,,4,,,76,127
15779,note_on,0,0,0,,5,,,77,127
15932,note_off,153,0,0,,7,,,55,127
15933,note_on,1,0,0,,1,,,61,127
16083,note_off,150,0,0,,5,,,77,127
16085,note_off,2,0,0,,1,,,61,127
16086,note_on,1,0,0,,2,,,62,127
16239,note_off,153,0,0,,2,,,62,127
16240,note_on,1,0,0,,10,,,57,127
16393,note_off,153,0,0,,10,,,57,127
16393,note_off,0,0,0,,4,,,76,127
16394,note_on,1,0,0,,1,,,61,127
16394,note_on,0,0,0,,5,,,77,127
16547,note_off,153,0,0,,5,,,77,127
16547,note_off,0,0,0,,1,,,61,127
16548,note_on,1,0,0,,2,,,62,127
16548,note_on,0,0,0,,7,,,79,127
16701,note_off,153,0,0,,7,,,79,127
16701,note_off,0,0,0,,2,,,62,127
16702,note_on,1,0,0,,2,,,50,127
16702,note_on,0,0,0,,7,,,79,127
16702,note_on,0,0,0,,5,,,77,127
16855,note_off,153,0,0,,5,,,77,127
16855,note_off,0,0,0,,7,,,79,127
16855,note_off,0,0,0,,2,,,50,127
16856,note_on,1,0,0,,1,,,61,127
16856,note_on,0,0,0,,4,,,76,127
17009,note_off,153,0,0,,4,,,76,127
17009,note_off,0,0,0,,1,,,61,127
17010,note_on,1,0,0,,2,,,62,127
17010,note_on,0,0,0,,2,,,74,127
17163,note_off,153,0,0,,2,,,62,127
17164,note_on,1,0,0,,5,,,53,127
17314,note_off,150,0,0,,2,,,74,127
17316,note_off,2,0,0,,5,,,53,127
17317,note_on,1,0,0,,1,,,61,127
17470,note_off,153,0,0,,1,,,61,127
17471,note_on,1,0,0,,2,,,62,127
17624,note_off,153,0,0,,2,,,62,127
17625,note_on,1,0,0,,7,,,55,127
17625,note_on,0,0,0,,4,,,76,127
17625,note_on,0,0,0,,5,,,77,127
17778,note_off,153,0,0,,7,,,55,127
17779,note_on,1,0,0,,1,,,61,127
17929,note_off,150,0,0,,5,,,77,127
17931,note_off,2,0,0,,1,,,61,127
17932,note_on,1,0,0,,2,,,62,127
18085,note_off,153,0,0,,2,,,62,127
18086,note_on,1,0,0,,10,,,57,127
18239,note_off,153,0,0,,10,,,57,127
18239,note_off,0,0,0,,4,,,76,127
18240,note_on,1,0,0,,1,,,61,127
18240,note_on,0,0,0,,5,,,77,127
18393,note_off,153,0,0,,5,,,77,127
18393,note_off,0,0,0,,1,,,61,127
18394,note_on,1,0,0,,2,,,62,127
18394,note_on,0,0,0,,7,,,79,127
18547,note_off,153,0,0,,7,,,79,127
18547,note_off,0,0,0,,2,,,62,127
18548,note_on,1,0,0,,2,,,50,127
18548,note_on,0,0,0,,5,,,77,127
18701,note_off,153,0,0,,5,,,77,127
18702,note_on,1,0,0,,11,,,82,127
18855,note_off,153,0,0,,11,,,82,127
18856,note_on,1,0,0,,10,,,81,127
19009,note_off,153,0,0,,10,,,81,127
19009,note_off,0,0,0,,2,,,50,127
19010,note_on,1,0,0,,5,,,53,127
19010,note_on,0,0,0,,7,,,79,127
19163,note_off,153,0,0,,7,,,79,127
19164,note_on,1,0,0,,5,,,77,127
19317,note_off,153,0,0,,5,,,77,127
19318,note_on,1,0,0,,4,,,76,127
19471,note_off,153,0,0,,4,,,76,127
19471,note_off,0,0,0,,5,,,53,127
19472,note_on,1,0,0,,7,,,55,127
19472,note_on,0,0,0,,2,,,74,127
19625,note_off,153,0,0,,2,,,74,127
19626,note_on,1,0,0,,0,,,72,127
19779,note_off,153,0,0,,0,,,72,127
19780,note_on,1,0,0,,12,,,71,127
19933,note_off,153,0,0,,12,,,71,127
19933,note_off,0,0,0,,7,,,55,127
19934,note_on,1,0,0,,12,,,59,127
19934,note_on,0,0,0,,10,,,69,127
20087,note_off,153,0,0,,10,,,69,127
20088,note_on,1,0,0,,7,,,67,127
20241,note_off,153,0,0,,7,,,67,127
20242,note_on,1,0,0,,5,,,65,127
20395,note_off,153,0,0,,5,,,65,127
20395,note_off,0,0,0,,12,,,59,127
20396,note_on,1,0,0,,0,,,48,127
20396,note_on,0,0,0,,4,,,64,127
20549,note_off,153,0,0,,0,,,48,127
20550,note_on,1,0,0,,12,,,59,127
20703,note_off,153,0,0,,12,,,59,127
20704,note_on,1,0,0,,0,,,60,127
20857,note_off,153,0,0,,0,,,60,127
20857,note_off,0,0,0,,4,,,64,127
20858,note_on,1,0,0,,4,,,52,127
21011,note_off,153,0,0,,4,,,52,127
21012,note_on,1,0,0,,12,,,59,127
21165,note_off,153,0,0,,12,,,59,127
21166,note_on,1,0,0,,0,,,60,127
21319,note_off,153,0,0,,0,,,60,127
21320,note_on,1,0,0,,5,,,53,127
21320,note_on,0,0,0,,2,,,74,127
21320,note_on,0,0,0,,4,,,76,127
21473,note_off,153,0,0,,5,,,53,127
21474,note_on,1,0,0,,12,,,59,127
21624,note_off,150,0,0,,4,,,76,127
21626,note_off,2,0,0,,12,,,59,127
21627,note_on,1,0,0,,0,,,60,127
21780,note_off,153,0,0,,0,,,60,127
21781,note_on,1,0,0,,7,,,55,127
21934,note_off,153,0,0,,7,,,55,127
21934,note_off,0,0,0,,2,,,74,127
21935,note_on,1,0,0,,12,,,59,127
21935,note_on,0,0,0,,4,,,76,127
22088,note_off,153,0,0,,4,,,76,127
22088,note_off,0,0,0,,12,,,59,127
22089,note_on,1,0,0,,0,,,60,127
22089,note_on,0,0,0,,5,,,77,127
22242,note_off,153,0,0,,5,,,77,127
22242,note_off,0,0,0,,0,,,60,127
22243,note_on,1,0,0,,0,,,48,127
22243,note_on,0,0,0,,5,,,77,127
22243,note_on,0,0,0,,4,,,76,127
22396,note_off,153,0,0,,4,,,76,127
22396,note_off,0,0,0,,5,,,77,127
22396,note_off,0,0,0,,0,,,48,127
22397,note_on,1,0,0,,12,,,59,127
22397,note_on,0,0,0,,2,,,74,127
22550,note_off,153,0,0,,2,,,74,127
22550,note_off,0,0,0,,12,,,59,127
22551,note_on,1,0,0,,0,,,60,127
22551,note_on,0,0,0,,0,,,72,127
22704,note_off,153,0,0,,0,,,60,127
22705,note_on,1,0,0,,4,,,52,127
22855,note_off,150,0,0,,0,,,72,127
22857,note_off,2,0,0,,4,,,52,127
22858,note_on,1,0,0,,12,,,59,127
23011,note_off,153,0,0,,12,,,59,127
23012,note_on,1,0,0,,0,,,60,127
23165,note_off,153,0,0,,0,,,60,127
23166,note_on,1,0,0,,5,,,53,127
23166,note_on,0,0,0,,2,,,74,127
23166,note_on,0,0,0,,4,,,76,127
23319,note_off,153,0,0,,5,,,53,127
23320,note_on,1,0,0,,12,,,59,127
23470,note_off,150,0,0,,4,,,76,127
23472,note_off,2,0,0,,12,,,59,127
23473,note_on,1,0,0,,0,,,60,127
23626,note_off,153,0,0,,0,,,60,127
23627,note_on,1,0,0,,7,,,55,127
23780,note_off,153,0,0,,7,,,55,127
23780,note_off,0,0,0,,2,,,74,127
23781,note_on,1,0,0,,12,,,59,127
23781,note_on,0,0,0,,4,,,76,127
23934,note_off,153,0,0,,4,,,76,127
23934,note_off,0,0,0,,12,,,59,127
23935,note_on,1,0,0,,0,,,60,127
23935,note_on,0,0,0,,5,,,77,127
24088,note_off,153,0,0,,5,,,77,127
24088,note_off,0,0,0,,0,,,60,127
24089,note_on,1,0,0,,0,,,48,127
24089,note_on,0,0,0,,4,,,76,127
24242,note_off,153,0,0,,0,,,48,127
24243,note_on,1,0,0,,12,,,59,127
24396,note_off,153,0,0,,12,,,59,127
24397,note_on,1,0,0,,0,,,60,127
24550,note_off,153,0,0,,0,,,60,127
24550,note_off,0,0,0,,4,,,76,127
24551,note_on,1,0,0,,12,,,47,127
24551,note_on,0,0,0,,2,,,74,127
24704,note_off,153,0,0,,12,,,47,127
24705,note_on,1,0,0,,10,,,57,127
24858,note_off,153,0,0,,10,,,57,127
24859,note_on,1,0,0,,12,,,59,127
25012,note_off,153,0,0,,12,,,59,127
25012,note_off,0,0,0,,2,,,74,127
25013,note_on,1,0,0,,10,,,45,127
25013,note_on,0,0,0,,0,,,72,127
25166,note_off,153,0,0,,10,,,45,127
25167,note_on,1,0,0,,7,,,55,127
25320,note_off,153,0,0,,7,,,55,127
25321,note_on,1,0,0,,10,,,57,127
25474,note_off,153,0,0,,10,,,57,127
25474,note_off,0,0,0,,0,,,72,127
25475,note_on,1,0,0,,7,,,43,127
25475,note_on,0,0,0,,12,,,71,127
25628,note_off,153,0,0,,7,,,43,127
25629,note_on,1,0,0,,6,,,54,127
25782,note_off,153,0,0,,6,,,54,127
25783,note_on,1,0,0,,7,,,55,127
25860,note_off,77,0,0,,12,,,71,127
25936,note_off,76,0,0,,7,,,55,127
25937,note_on,1,0,0,,2,,,50,127
25937,note_on,0,0,0,,2,,,62,127
26039,note_off,102,0,0,,2,,,62,127
26040,note_on,1,0,0,,4,,,64,127
26090,note_off,50,0,0,,4,,,64,127
26091,note_on,1,0,0,,6,,,66,127
26141,note_off,50,0,0,,6,,,66,127
26142,note_on,1,0,0,,7,,,67,127
26192,note_off,50,0,0,,7,,,67,127
26193,note_on,1,0,0,,10,,,69,127
26243,note_off,50,0,0,,10,,,69,127
26244,note_on,1,0,0,,12,,,71,127
26294,note_off,50,0,0,,12,,,71,127
26295,note_on,1,0,0,,0,,,72,127
26345,note_off,50,0,0,,0,,,72,127
26346,note_on,1,0,0,,2,,,74,127
26384,note_off,38,0,0,,2,,,74,127
26397,note_on,13,0,0,,2,,,74,127
26447,note_off,50,0,0,,2,,,74,127
26448,note_on,1,0,0,,0,,,72,127
26498,note_off,50,0,0,,0,,,72,127
26499,note_on,1,0,0,,2,,,74,127
26549,note_off,50,0,0,,2,,,74,127
26550,note_on,1,0,0,,0,,,72,127
26600,note_off,50,0,0,,0,,,72,127
26601,note_on,1,0,0,,2,,,74,127
26651,note_off,50,0,0,,2,,,74,127
26652,note_on,1,0,0,,0,,,72,127
26702,note_off,50,0,0,,0,,,72,127
26703,note_on,1,0,0,,12,,,71,127
26779,note_off,76,0,0,,12,,,71,127
26780,note_on,1,0,0,,10,,,69,127
26856,note_off,76,0,0,,10,,,69,127
26856,note_off,0,0,0,,2,,,50,127
26857,note_on,1,0,0,,2,,,50,127
26857,note_on,0,0,0,,12,,,71,127
26959,note_off,102,0,0,,2,,,50,127
26960,note_on,1,0,0,,4,,,52,127
27010,note_off,50,0,0,,4,,,52,127
27011,note_on,1,0,0,,6,,,54,127
27061,note_off,50,0,0,,6,,,54,127
27062,note_on,1,0,0,,7,,,55,127
27112,note_off,50,0,0,,7,,,55,127
27113,note_on,1,0,0,,10,,,57,127
27163,note_off,50,0,0,,10,,,57,127
27164,note_on,1,0,0,,12,,,59,127
27214,note_off,50,0,0,,12,,,59,127
27215,note_on,1,0,0,,0,,,60,127
27265,note_off,50,0,0,,0,,,60,127
27266,note_on,1,0,0,,2,,,62,127
27304,note_off,38,0,0,,2,,,62,127
27317,note_on,13,0,0,,2,,,62,127
27367,note_off,50,0,0,,2,,,62,127
27368,note_on,1,0,0,,0,,,60,127
27418,note_off,50,0,0,,0,,,60,127
27419,note_on,1,0,0,,2,,,62,127
27469,note_off,50,0,0,,2,,,62,127
27470,note_on,1,0,0,,0,,,60,127
27520,note_off,50,0,0,,0,,,60,127
27521,note_on,1,0,0,,2,,,62,127
27571,note_off,50,0,0,,2,,,62,127
27572,note_on,1,0,0,,0,,,60,127
27622,note_off,50,0,0,,0,,,60,127
27623,note_on,1,0,0,,12,,,59,127
27699,note_off,76,0,0,,12,,,59,127
27700,note_on,1,0,0,,10,,,57,127
27776,note_off,76,0,0,,10,,,57,127
27776,note_off,0,0,0,,12,,,71,127
27777,note_on,1,0,0,,12,,,59,127
27777,note_on,0,0,0,,2,,,74,127
27879,note_off,102,0,0,,2,,,74,127
27880,note_on,1,0,0,,4,,,76,127
27930,note_off,50,0,0,,4,,,76,127
27931,note_on,1,0,0,,6,,,78,127
27981,note_off,50,0,0,,6,,,78,127
27982,note_on,1,0,0,,7,,,79,127
28032,note_off,50,0,0,,7,,,79,127
28033,note_on,1,0,0,,10,,,81,127
28083,note_off,50,0,0,,10,,,81,127
28084,note_on,1,0,0,,12,,,83,127
28134,note_off,50,0,0,,12,,,83,127
28135,note_on,1,0,0,,0,,,84,127
28161,note_off,26,0,0,,12,,,59,127
28186,note_off,25,0,0,,0,,,84,127
28187,note_on,1,0,0,,2,,,86,127
28225,note_off,38,0,0,,2,,,86,127
28238,note_on,13,0,0,,2,,,86,127
28288,note_off,50,0,0,,2,,,86,127
28289,note_on,1,0,0,,0,,,84,127
28339,note_off,50,0,0,,0,,,84,127
28340,note_on,1,0,0,,2,,,86,127
28390,note_off,50,0,0,,2,,,86,127
28391,note_on,1,0,0,,0,,,84,127
28441,note_off,50,0,0,,0,,,84,127
28442,note_on,1,0,0,,2,,,86,127
28492,note_off,50,0,0,,2,,,86,127
28493,note_on,1,0,0,,0,,,84,127
28543,note_off,50,0,0,,0,,,84,127
28544,note_on,1,0,0,,12,,,83,127
28620,note_off,76,0,0,,12,,,83,127
28621,note_on,1,0,0,,10,,,81,127
28697,note_off,76,0,0,,10,,,81,127
28698,note_on,1,0,0,,7,,,55,127
28698,note_on,0,0,0,,12,,,83,127
28774,note_off,76,0,0,,12,,,83,127
28775,note_on,1,0,0,,1,,,85,127
28851,note_off,76,0,0,,1,,,85,127
28852,note_on,1,0,0,,12,,,83,127
28928,note_off,76,0,0,,12,,,83,127
28929,note_on,1,0,0,,10,,,81,127
29005,note_off,76,0,0,,10,,,81,127
29006,note_on,1,0,0,,7,,,79,127
29082,note_off,76,0,0,,7,,,79,127
29083,note_on,1,0,0,,6,,,78,127
29159,note_off,76,0,0,,6,,,78,127
29159,note_off,0,0,0,,7,,,55,127
29160,note_on,1,0,0,,10,,,57,127
29160,note_on,0,0,0,,4,,,76,127
29236,note_off,76,0,0,,4,,,76,127
29237,note_on,1,0,0,,2,,,74,127
29313,note_off,76,0,0,,2,,,74,127
29314,note_on,1,0,0,,1,,,73,127
29390,note_off,76,0,0,,1,,,73,127
29391,note_on,1,0,0,,12,,,71,127
29467,note_off,76,0,0,,12,,,71,127
29468,note_on,1,0,0,,10,,,69,127
29544,note_off,76,0,0,,10,,,69,127
29545,note_on,1,0,0,,7,,,67,127
29621,note_off,76,0,0,,7,,,67,127
29621,note_off,0,0,0,,10,,,57,127
29622,note_on,1,0,0,,2,,,50,127
29622,note_on,0,0,0,,6,,,66,127
29775,note_off,153,0,0,,6,,,66,127
29776,note_on,1,0,0,,1,,,73,127
29929,note_off,153,0,0,,1,,,73,127
29930,note_on,1,0,0,,2,,,74,127
30083,note_off,153,0,0,,2,,,50,127
30084,note_on,1,0,0,,2,,,62,127
30237,note_off,153,0,0,,2,,,74,127
30238,note_on,1,0,0,,12,,,71,127
30238,note_on,0,0,0,,1,,,73,127
30391,note_off,153,0,0,,1,,,73,127
30391,note_off,0,0,0,,12,,,71,127
30392,note_on,1,0,0,,11,,,70,127
30545,note_off,153,0,0,,11,,,70,127
30545,note_off,0,0,0,,2,,,62,127
30546,note_on,1,0,0,,7,,,67,127
30546,note_on,0,0,0,,12,,,71,127
30699,note_off,153,0,0,,12,,,71,127
30700,note_on,1,0,0,,1,,,73,127
30853,note_off,153,0,0,,1,,,73,127
30854,note_on,1,0,0,,2,,,74,127
31007,note_off,153,0,0,,7,,,67,127
31008,note_on,1,0,0,,7,,,67,127
31161,note_off,153,0,0,,2,,,74,127
31162,note_on,1,0,0,,12,,,71,127
31162,note_on,0,0,0,,10,,,69,127
31315,note_off,153,0,0,,10,,,69,127
31315,note_off,0,0,0,,12,,,71,127
31316,note_on,1,0,0,,8,,,68,127
31469,note_off,153,0,0,,8,,,68,127
31469,note_off,0,0,0,,7,,,67,127
31470,note_on,1,0,0,,6,,,66,127
31470,note_on,0,0,0,,10,,,69,127
31623,note_off,153,0,0,,10,,,69,127
31624,note_on,1,0,0,,1,,,73,127
31777,note_off,153,0,0,,1,,,73,127
31778,note_on,1,0,0,,2,,,74,127
31931,note_off,153,0,0,,6,,,66,127
31932,note_on,1,0,0,,6,,,66,127
32085,note_off,153,0,0,,2,,,74,127
32086,note_on,1,0,0,,7,,,67,127
32086,note_on,0,0,0,,10,,,69,127
32236,note_off,150,0,0,,6,,,66,127
32238,note_off,2,0,0,,10,,,69,127
32238,note_off,0,0,0,,7,,,67,127
32239,note_on,1,0,0,,6,,,66,127
32392,note_off,153,0,0,,6,,,66,127
32393,note_on,1,0,0,,4,,,64,127
32393,note_on,0,0,0,,7,,,67,127
32546,note_off,153,0,0,,7,,,67,127
32547,note_on,1,0,0,,1,,,73,127
32700,note_off,153,0,0,,1,,,73,127
32701,note_on,1,0,0,,2,,,74,127
32854,note_off,153,0,0,,4,,,64,127
32855,note_on,1,0,0,,4,,,64,127
33008,note_off,153,0,0,,2,,,74,127
33009,note_on,1,0,0,,6,,,66,127
33009,note_on,0,0,0,,7,,,67,127
33159,note_off,150,0,0,,4,,,64,127
33161,note_off,2,0,0,,7,,,67,127
33161,note_off,0,0,0,,6,,,66,127
33162,note_on,1,0,0,,4,,,64,127
33315,note_off,153,0,0,,4,,,64,127
33316,note_on,1,0,0,,2,,,62,127
33316,note_on,0,0,0,,6,,,66,127
33469,note_off,153,0,0,,6,,,66,127
33470,note_on,1,0,0,,1,,,73,127
33623,note_off,153,0,0,,1,,,73,127
33624,note_on,1,0,0,,2,,,74,127
33777,note_off,153,0,0,,2,,,62,127
33778,note_on,1,0,0,,6,,,54,127
33931,note_off,153,0,0,,2,,,74,127
33932,note_on,1,0,0,,12,,,71,127
33932,note_on,0,0,0,,1,,,73,127
34085,note_off,153,0,0,,1,,,73,127
34085,note_off,0,0,0,,12,,,71,127
34086,note_on,1,0,0,,11,,,70,127
34239,note_off,153,0,0,,6,,,54,127
34240,note_on,1,0,0,,7,,,55,127
34393,note_off,153,0,0,,11,,,70,127
34394,note_on,1,0,0,,12,,,71,127
34547,note_off,153,0,0,,12,,,71,127
34548,note_on,1,0,0,,7,,,67,127
34701,note_off,153,0,0,,7,,,55,127
34702,note_on,1,0,0,,7,,,43,127
34855,note_off,153,0,0,,7,,,67,127
34856,note_on,1,0,0,,6,,,66,127
34856,note_on,0,0,0,,4,,,64,127
35009,note_off,153,0,0,,4,,,64,127
35009,note_off,0,0,0,,6,,,66,127
35010,note_on,1,0,0,,2,,,62,127
35163,note_off,153,0,0,,2,,,62,127
35163,note_off,0,0,0,,7,,,43,127
35164,note_on,1,0,0,,10,,,45,127
35164,note_on,0,0,0,,2,,,62,127
35470,note_off,306,0,0,,2,,,62,127
35471,note_on,1,0,0,,1,,,61,127
35932,note_off,461,0,0,,10,,,45,127
36239,note_off,307,0,0,,1,,,61,127
36546,note_on,307,0,0,,10,,,69,127
36546,note_on,0,0,0,,4,,,76,127
36546,note_on,0,0,0,,10,,,57,127
36700,note_on,154,0,0,,12,,,59,127
36853,note_off,153,0,0,,12,,,59,127
36853,note_off,0,0,0,,10,,,69,127
36854,note_on,1,0,0,,7,,,67,127
36854,note_on,0,0,0,,1,,,61,127
37007,note_off,153,0,0,,1,,,61,127
37007,note_off,0,0,0,,7,,,67,127
37007,note_off,0,0,0,,10,,,57,127
37007,note_off,0,0,0,,4,,,76,127
37008,note_on,1,0,0,,5,,,65,127
37008,note_on,0,0,0,,2,,,74,127
37008,note_on,0,0,0,,10,,,57,127
37008,note_on,0,0,0,,2,,,62,127
37161,note_off,153,0,0,,2,,,62,127
37161,note_off,0,0,0,,5,,,65,127
37162,note_on,1,0,0,,7,,,67,127
37162,note_on,0,0,0,,4,,,64,127
37315,note_off,153,0,0,,4,,,64,127
37315,note_off,0,0,0,,7,,,67,127
37316,note_on,1,0,0,,10,,,69,127
37316,note_on,0,0,0,,5,,,65,127
37469,note_off,153,0,0,,5,,,65,127
37469,note_off,0,0,0,,10,,,69,127
37469,note_off,0,0,0,,10,,,57,127
37470,note_on,1,0,0,,11,,,70,127
37470,note_on,0,0,0,,7,,,67,127
37470,note_on,0,0,0,,10,,,57,127
37623,note_off,153,0,0,,7,,,67,127
37623,note_off,0,0,0,,11,,,70,127
37624,note_on,1,0,0,,10,,,69,127
37624,note_on,0,0,0,,5,,,65,127
37777,note_off,153,0,0,,5,,,65,127
37777,note_off,0,0,0,,10,,,69,127
37778,note_off,1,0,0,,2,,,74,127
37778,note_on,0,0,0,,1,,,73,127
37778,note_on,0,0,0,,11,,,70,127
37778,note_on,0,0,0,,7,,,67,127
37931,note_off,153,0,0,,7,,,67,127
37931,note_off,0,0,0,,11,,,70,127
37931,note_off,0,0,0,,1,,,73,127
37931,note_off,0,0,0,,10,,,57,127
37932,note_on,1,0,0,,2,,,74,127
37932,note_on,0,0,0,,4,,,76,127
37932,note_on,0,0,0,,10,,,69,127
37932,note_on,0,0,0,,5,,,65,127
37932,note_on,0,0,0,,10,,,57,127
38085,note_off,153,0,0,,5,,,65,127
38085,note_off,0,0,0,,4,,,76,127
38085,note_off,0,0,0,,2,,,74,127
38086,note_on,1,0,0,,1,,,73,127
38086,note_on,0,0,0,,4,,,64,127
38239,note_off,153,0,0,,4,,,64,127
38239,note_off,0,0,0,,1,,,73,127
38240,note_on,1,0,0,,2,,,74,127
38240,note_on,0,0,0,,2,,,62,127
38393,note_off,153,0,0,,2,,,62,127
38393,note_off,0,0,0,,2,,,74,127
38393,note_off,0,0,0,,10,,,57,127
38393,note_off,0,0,0,,10,,,69,127
38394,note_on,1,0,0,,10,,,69,127
38394,note_on,0,0,0,,4,,,76,127
38394,note_on,0,0,0,,10,,,57,127
38548,note_on,154,0,0,,12,,,59,127
38701,note_off,153,0,0,,12,,,59,127
38701,note_off,0,0,0,,10,,,69,127
38702,note_on,1,0,0,,7,,,67,127
38702,note_on,0,0,0,,1,,,61,127
38855,note_off,153,0,0,,1,,,61,127
38855,note_off,0,0,0,,7,,,67,127
38855,note_off,0,0,0,,10,,,57,127
38855,note_off,0,0,0,,4,,,76,127
38856,note_on,1,0,0,,5,,,65,127
38856,note_on,0,0,0,,2,,,74,127
38856,note_on,0,0,0,,10,,,57,127
38856,note_on,0,0,0,,2,,,62,127
39009,note_off,153,0,0,,2,,,62,127
39009,note_off,0,0,0,,5,,,65,127
39010,note_on,1,0,0,,7,,,67,127
39010,note_on,0,0,0,,4,,,64,127
39163,note_off,153,0,0,,4,,,64,127
39163,note_off,0,0,0,,7,,,67,127
39164,note_on,1,0,0,,10,,,69,127
39164,note_on,0,0,0,,5,,,65,127
39317,note_off,153,0,0,,5,,,65,127
39317,note_off,0,0,0,,10,,,69,127
39317,note_off,0,0,0,,10,,,57,127
39318,note_on,1,0,0,,11,,,70,127
39318,note_on,0,0,0,,7,,,67,127
39318,note_on,0,0,0,,10,,,57,127
39471,note_off,153,0,0,,7,,,67,127
39471,note_off,0,0,0,,11,,,70,127
39472,note_on,1,0,0,,10,,,69,127
39472,note_on,0,0,0,,5,,,65,127
39625,note_off,153,0,0,,5,,,65,127
39625,note_off,0,0,0,,10,,,69,127
39626,note_off,1,0,0,,2,,,74,127
39626,note_on,0,0,0,,1,,,73,127
39626,note_on,0,0,0,,11,,,70,127
39626,note_on,0,0,0,,7,,,67,127
39779,note_off,153,0,0,,7,,,67,127
39779,note_off,0,0,0,,11,,,70,127
39779,note_off,0,0,0,,1,,,73,127
39779,note_off,0,0,0,,10,,,57,127
39780,note_on,1,0,0,,2,,,74,127
39780,note_on,0,0,0,,4,,,76,127
39780,note_on,0,0,0,,10,,,69,127
39780,note_on,0,0,0,,5,,,65,127
39780,note_on,0,0,0,,10,,,57,127
39933,note_off,153,0,0,,5,,,65,127
39933,note_off,0,0,0,,4,,,76,127
39933,note_off,0,0,0,,2,,,74,127
39934,note_on,1,0,0,,1,,,73,127
39934,note_on,0,0,0,,4,,,64,127
40087,note_off,153,0,0,,4,,,64,127
40087,note_off,0,0,0,,1,,,73,127
40088,note_on,1,0,0,,2,,,74,127
40088,note_on,0,0,0,,2,,,62,127
40241,note_off,153,0,0,,2,,,62,127
40241,note_off,0,0,0,,2,,,74,127
40241,note_off,0,0,0,,10,,,57,127
40241,note_off,0,0,0,,10,,,69,127
40242,note_on,1,0,0,,10,,,69,127
40242,note_on,0,0,0,,4,,,76,127
40242,note_on,0,0,0,,10,,,57,127
40318,note_off,76,0,0,,10,,,57,127
40319,note_on,1,0,0,,12,,,59,127
40395,note_off,76,0,0,,12,,,59,127
40396,note_on,1,0,0,,1,,,61,127
40472,note_off,76,0,0,,1,,,61,127
40473,note_on,1,0,0,,2,,,62,127
40549,note_off,76,0,0,,2,,,62,127
40550,note_on,1,0,0,,4,,,64,127
40626,note_off,76,0,0,,4,,,64,127
40627,note_on,1,0,0,,2,,,62,127
40703,note_off,76,0,0,,2,,,62,127
40703,note_off,0,0,0,,10,,,69,127
40704,note_on,1,0,0,,1,,,61,127
40780,note_off,76,0,0,,1,,,61,127
40781,note_on,1,0,0,,12,,,59,127
40857,note_off,76,0,0,,12,,,59,127
40858,note_on,1,0,0,,10,,,57,127
40934,note_off,76,0,0,,10,,,57,127
40935,note_on,1,0,0,,7,,,55,127
41011,note_off,76,0,0,,7,,,55,127
41012,note_on,1,0,0,,5,,,53,127
41088,note_off,76,0,0,,5,,,53,127
41089,note_on,1,0,0,,4,,,52,127
41165,note_off,76,0,0,,4,,,52,127
41165,note_off,0,0,0,,4,,,76,127
41166,note_on,1,0,0,,5,,,77,127
41166,note_on,0,0,0,,2,,,50,127
41242,note_off,76,0,0,,5,,,77,127
41243,note_on,1,0,0,,7,,,79,127
41319,note_off,76,0,0,,7,,,79,127
41320,note_on,1,0,0,,10,,,81,127
41396,note_off,76,0,0,,10,,,81,127
41397,note_on,1,0,0,,7,,,79,127
41473,note_off,76,0,0,,7,,,79,127
41474,note_on,1,0,0,,5,,,77,127
41550,note_off,76,0,0,,5,,,77,127
41551,note_on,1,0,0,,4,,,76,127
41627,note_off,76,0,0,,4,,,76,127
41627,note_off,0,0,0,,2,,,50,127
41628,note_on,1,0,0,,2,,,74,127
41628,note_on,0,0,0,,5,,,53,127
41704,note_off,76,0,0,,2,,,74,127
41705,note_on,1,0,0,,0,,,72,127
41781,note_off,76,0,0,,0,,,72,127
41782,note_on,1,0,0,,11,,,70,127
41858,note_off,76,0,0,,11,,,70,127
41859,note_on,1,0,0,,10,,,69,127
41935,note_off,76,0,0,,10,,,69,127
41936,note_on,1,0,0,,7,,,67,127
42012,note_off,76,0,0,,7,,,67,127
42013,note_on,1,0,0,,5,,,65,127
42089,note_off,76,0,0,,5,,,65,127
42089,note_off,0,0,0,,5,,,53,127
42090,note_on,1,0,0,,4,,,64,127
42090,note_on,0,0,0,,7,,,55,127
42243,note_off,153,0,0,,4,,,64,127
42244,note_on,1,0,0,,11,,,70,127
42397,note_off,153,0,0,,11,,,70,127
42398,note_on,1,0,0,,2,,,62,127
42551,note_off,153,0,0,,7,,,55,127
42552,note_on,1,0,0,,10,,,57,127
42705,note_off,153,0,0,,2,,,62,127
42706,note_on,1,0,0,,4,,,64,127
42859,note_off,153,0,0,,4,,,64,127
42860,note_on,1,0,0,,1,,,61,127
43013,note_off,153,0,0,,1,,,61,127
43013,note_off,0,0,0,,10,,,57,127
43014,note_on,1,0,0,,1,,,61,127
43014,note_on,0,0,0,,2,,,50,127
43320,note_off,306,0,0,,1,,,61,127
43321,note_on,1,0,0,,2,,,62,127
43627,note_off,306,0,0,,2,,,50,127
43934,note_off,307,0,0,,2,,,62,127
43935,note_on,1,0,0,,10,,,57,127
43935,note_on,0,0,0,,10,,,69,127
43935,note_on,0,0,0,,4,,,76,127
44089,note_on,154,0,0,,12,,,59,127
44242,note_off,153,0,0,,12,,,59,127
44242,note_off,0,0,0,,10,,,69,127
44243,note_on,1,0,0,,1,,,61,127
44243,note_on,0,0,0,,7,,,67,127
44396,note_off,153,0,0,,7,,,67,127
44396,note_off,0,0,0,,1,,,61,127
44396,note_off,0,0,0,,4,,,76,127
44396,note_off,0,0,0,,10,,,57,127
44397,note_on,1,0,0,,2,,,62,127
44397,note_on,0,0,0,,10,,,57,127
44397,note_on,0,0,0,,5,,,65,127
44397,note_on,0,0,0,,2,,,74,127
44550,note_off,153,0,0,,5,,,65,127
44550,note_off,0,0,0,,2,,,62,127
44551,note_on,1,0,0,,4,,,64,127
44551,note_on,0,0,0,,7,,,67,127
44704,note_off,153,0,0,,7,,,67,127
44704,note_off,0,0,0,,4,,,64,127
44705,note_on,1,0,0,,5,,,65,127
44705,note_on,0,0,0,,10,,,69,127
44858,note_off,153,0,0,,10,,,69,127
44858,note_off,0,0,0,,5,,,65,127
44858,note_off,0,0,0,,10,,,57,127
44859,note_on,1,0,0,,10,,,57,127
44859,note_on,0,0,0,,7,,,67,127
44859,note_on,0,0,0,,11,,,70,127
45012,note_off,153,0,0,,11,,,70,127
45012,note_off,0,0,0,,7,,,67,127
45013,note_on,1,0,0,,5,,,65,127
45013,note_on,0,0,0,,10,,,69,127
45166,note_off,153,0,0,,10,,,69,127
45166,note_off,0,0,0,,5,,,65,127
45167,note_off,1,0,0,,2,,,74,127
45167,note_on,0,0,0,,7,,,67,127
45167,note_on,0,0,0,,11,,,70,127
45167,note_on,0,0,0,,1,,,73,127
45320,note_off,153,0,0,,1,,,73,127
45320,note_off,0,0,0,,11,,,70,127
45320,note_off,0,0,0,,7,,,67,127
45320,note_off,0,0,0,,10,,,57,127
45321,note_on,1,0,0,,5,,,65,127
45321,note_on,0,0,0,,10,,,57,127
45321,note_on,0,0,0,,10,,,69,127
45321,note_on,0,0,0,,4,,,76,127
45321,note_on,0,0,0,,2,,,74,127
45474,note_off,153,0,0,,2,,,74,127
45474,note_off,0,0,0,,4,,,76,127
45474,note_off,0,0,0,,5,,,65,127
45475,note_on,1,0,0,,4,,,64,127
45475,note_on,0,0,0,,1,,,73,127
45628,note_off,153,0,0,,1,,,73,127
45628,note_off,0,0,0,,4,,,64,127
45629,note_on,1,0,0,,2,,,62,127
45629,note_on,0,0,0,,2,,,74,127
45782,note_off,153,0,0,,2,,,74,127
45782,note_off,0,0,0,,2,,,62,127
45782,note_off,0,0,0,,10,,,69,127
45782,note_off,0,0,0,,10,,,57,127
45783,note_on,1,0,0,,10,,,57,127
45783,note_on,0,0,0,,10,,,69,127
45783,note_on,0,0,0,,4,,,76,127
45937,note_on,154,0,0,,12,,,59,127
46090,note_off,153,0,0,,12,,,59,127
46090,note_off,0,0,0,,10,,,69,127
46091,note_on,1,0,0,,1,,,61,127
46091,note_on,0,0,0,,7,,,67,127
46244,note_off,153,0,0,,7,,,67,127
46244,note_off,0,0,0,,1,,,61,127
46244,note_off,0,0,0,,4,,,76,127
46244,note_off,0,0,0,,10,,,57,127
46245,note_on,1,0,0,,2,,,62,127
46245,note_on,0,0,0,,10,,,57,127
46245,note_on,0,0,0,,2,,,74,127
46245,note_on,0,0,0,,5,,,65,127
46398,note_off,153,0,0,,5,,,65,127
46398,note_off,0,0,0,,2,,,62,127
46399,note_on,1,0,0,,4,,,64,127
46399,note_on,0,0,0,,7,,,67,127
46552,note_off,153,0,0,,7,,,67,127
46552,note_off,0,0,0,,4,,,64,127
46553,note_on,1,0,0,,5,,,65,127
46553,note_on,0,0,0,,10,,,69,127
46706,note_off,153,0,0,,10,,,69,127
46706,note_off,0,0,0,,5,,,65,127
46706,note_off,0,0,0,,10,,,57,127
46707,note_on,1,0,0,,7,,,67,127
46707,note_on,0,0,0,,10,,,57,127
46707,note_on,0,0,0,,11,,,70,127
46860,note_off,153,0,0,,11,,,70,127
46860,note_off,0,0,0,,7,,,67,127
46861,note_on,1,0,0,,5,,,65,127
46861,note_on,0,0,0,,10,,,69,127
47014,note_off,153,0,0,,10,,,69,127
47014,note_off,0,0,0,,5,,,65,127
47015,note_off,1,0,0,,2,,,74,127
47015,note_on,0,0,0,,7,,,67,127
47015,note_on,0,0,0,,11,,,70,127
47015,note_on,0,0,0,,1,,,73,127
47168,note_off,153,0,0,,1,,,73,127
47168,note_off,0,0,0,,11,,,70,127
47168,note_off,0,0,0,,7,,,67,127
47168,note_off,0,0,0,,10,,,57,127
47169,note_on,1,0,0,,10,,,57,127
47169,note_on,0,0,0,,5,,,65,127
47169,note_on,0,0,0,,2,,,74,127
47169,note_on,0,0,0,,10,,,69,127
47169,note_on,0,0,0,,4,,,76,127
47322,note_off,153,0,0,,4,,,76,127
47322,note_off,0,0,0,,2,,,74,127
47322,note_off,0,0,0,,5,,,65,127
47323,note_on,1,0,0,,4,,,64,127
47323,note_on,0,0,0,,1,,,73,127
47476,note_off,153,0,0,,1,,,73,127
47476,note_off,0,0,0,,4,,,64,127
47477,note_on,1,0,0,,2,,,62,127
47477,note_on,0,0,0,,2,,,74,127
47630,note_off,153,0,0,,2,,,74,127
47630,note_off,0,0,0,,2,,,62,127
47630,note_off,0,0,0,,10,,,69,127
47630,note_off,0,0,0,,10,,,57,127
47631,note_on,1,0,0,,10,,,57,127
47631,note_on,0,0,0,,10,,,69,127
47631,note_on,0,0,0,,4,,,76,127
47707,note_off,76,0,0,,10,,,57,127
47708,note_on,1,0,0,,12,,,59,127
47784,note_off,76,0,0,,12,,,59,127
47785,note_on,1,0,0,,1,,,61,127
47861,note_off,76,0,0,,1,,,61,127
47862,note_on,1,0,0,,2,,,62,127
47938,note_off,76,0,0,,2,,,62,127
47939,note_on,1,0,0,,4,,,64,127
48015,note_off,76,0,0,,4,,,64,127
48016,note_on,1,0,0,,2,,,62,127
48092,note_off,76,0,0,,2,,,62,127
48092,note_off,0,0,0,,10,,,69,127
48093,note_on,1,0,0,,1,,,61,127
48169,note_off,76,0,0,,1,,,61,127
48170,note_on,1,0,0,,12,,,59,127
48246,note_off,76,0,0,,12,,,59,127
48247,note_on,1,0,0,,10,,,57,127
48323,note_off,76,0,0,,10,,,57,127
48324,note_on,1,0,0,,7,,,55,127
48400,note_off,76,0,0,,7,,,55,127
48401,note_on,1,0,0,,5,,,53,127
48477,note_off,76,0,0,,5,,,53,127
48478,note_on,1,0,0,,4,,,52,127
48554,note_off,76,0,0,,4,,,52,127
48554,note_off,0,0,0,,4,,,76,127
48555,note_on,1,0,0,,2,,,50,127
48555,note_on,0,0,0,,5,,,77,127
48631,note_off,76,0,0,,5,,,77,127
48632,note_on,1,0,0,,7,,,79,127
48708,note_off,76,0,0,,7,,,79,127
48709,note_on,1,0,0,,10,,,81,127
48785,note_off,76,0,0,,10,,,81,127
48786,note_on,1,0,0,,7,,,79,127
48862,note_off,76,0,0,,7,,,79,127
48863,note_on,1,0,0,,5,,,77,127
48939,note_off,76,0,0,,5,,,77,127
48940,note_on,1,0,0,,4,,,76,127
49016,note_off,76,0,0,,4,,,76,127
49016,note_off,0,0,0,,2,,,50,127
49017,note_on,1,0,0,,5,,,53,127
49017,note_on,0,0,0,,2,,,74,127
49093,note_off,76,0,0,,2,,,74,127
49094,note_on,1,0,0,,0,,,72,127
49170,note_off,76,0,0,,0,,,72,127
49171,note_on,1,0,0,,11,,,70,127
49247,note_off,76,0,0,,11,,,70,127
49248,note_on,1,0,0,,10,,,69,127
49324,note_off,76,0,0,,10,,,69,127
49325,note_on,1,0,0,,7,,,67,127
49401,note_off,76,0,0,,7,,,67,127
49402,note_on,1,0,0,,5,,,65,127
49478,note_off,76,0,0,,5,,,65,127
49478,note_off,0,0,0,,5,,,53,127
49479,note_on,1,0,0,,7,,,55,127
49479,note_on,0,0,0,,4,,,64,127
49632,note_off,153,0,0,,4,,,64,127
49633,note_on,1,0,0,,11,,,70,127
49786,note_off,153,0,0,,11,,,70,127
49787,note_on,1,0,0,,2,,,62,127
49940,note_off,153,0,0,,7,,,55,127
49941,note_on,1,0,0,,10,,,57,127
50094,note_off,153,0,0,,2,,,62,127
50095,note_on,1,0,0,,4,,,64,127
50248,note_off,153,0,0,,4,,,64,127
50249,note_on,1,0,0,,1,,,61,127
50377,note_off,128,0,0,,1,,,61,127
50402,note_off,25,0,0,,10,,,57,127
50403,note_on,1,0,0,,2,,,50,127
50403,note_on,0,0,0,,10,,,81,127
50479,note_off,76,0,0,,10,,,81,127
50480,note_on,1,0,0,,12,,,83,127
50556,note_off,76,0,0,,12,,,83,127
50557,note_on,1,0,0,,10,,,81,127
50633,note_off,76,0,0,,10,,,81,127
50634,note_on,1,0,0,,7,,,79,127
50710,note_off,76,0,0,,7,,,79,127
50711,note_on,1,0,0,,6,,,78,127
50787,note_off,76,0,0,,6,,,78,127
50788,note_on,1,0,0,,4,,,76,127
50864,note_off,76,0,0,,4,,,76,127
50864,note_off,0,0,0,,2,,,50,127
50865,note_on,1,0,0,,6,,,54,127
50865,note_on,0,0,0,,2,,,74,127
50941,note_off,76,0,0,,2,,,74,127
50942,note_on,1,0,0,,4,,,76,127
51018,note_off,76,0,0,,4,,,76,127
51019,note_on,1,0,0,,2,,,74,127
51095,note_off,76,0,0,,2,,,74,127
51096,note_on,1,0,0,,1,,,73,127
51172,note_off,76,0,0,,1,,,73,127
51173,note_on,1,0,0,,12,,,71,127
51249,note_off,76,0,0,,12,,,71,127
51250,note_on,1,0,0,,10,,,69,127
51326,note_off,76,0,0,,10,,,69,127
51326,note_off,0,0,0,,6,,,54,127
51327,note_on,1,0,0,,7,,,55,127
51327,note_on,0,0,0,,12,,,71,127
51403,note_off,76,0,0,,12,,,71,127
51404,note_on,1,0,0,,1,,,73,127
51480,note_off,76,0,0,,1,,,73,127
51481,note_on,1,0,0,,12,,,71,127
51557,note_off,76,0,0,,12,,,71,127
51558,note_on,1,0,0,,10,,,69,127
51634,note_off,76,0,0,,10,,,69,127
51635,note_on,1,0,0,,7,,,67,127
51711,note_off,76,0,0,,7,,,67,127
51712,note_on,1,0,0,,6,,,66,127
51788,note_off,76,0,0,,6,,,66,127
51788,note_off,0,0,0,,7,,,55,127
51789,note_on,1,0,0,,10,,,57,127
51789,note_on,0,0,0,,7,,,67,127
51855,note_off,66,0,0,,7,,,67,127
51855,note_on,0,0,0,,10,,,69,127
51921,note_off,66,0,0,,10,,,69,127
51922,note_on,1,0,0,,7,,,67,127
51988,note_off,66,0,0,,7,,,67,127
51988,note_on,0,0,0,,6,,,66,127
52054,note_off,66,0,0,,6,,,66,127
52054,note_on,0,0,0,,4,,,64,127
52120,note_off,66,0,0,,4,,,64,127
52120,note_on,0,0,0,,2,,,62,127
52186,note_off,66,0,0,,2,,,62,127
52187,note_on,1,0,0,,1,,,61,127
52252,note_off,65,0,0,,10,,,57,127
52253,note_off,1,0,0,,1,,,61,127
52253,note_on,0,0,0,,2,,,50,127
52253,note_on,0,0,0,,10,,,81,127
52329,note_off,76,0,0,,10,,,81,127
52330,note_on,1,0,0,,12,,,83,127
52406,note_off,76,0,0,,12,,,83,127
52407,note_on,1,0,0,,10,,,81,127
52483,note_off,76,0,0,,10,,,81,127
52484,note_on,1,0,0,,7,,,79,127
52560,note_off,76,0,0,,7,,,79,127
52561,note_on,1,0,0,,6,,,78,127
52637,note_off,76,0,0,,6,,,78,127
52638,note_on,1,0,0,,4,,,76,127
52714,note_off,76,0,0,,4,,,76,127
52714,note_off,0,0,0,,2,,,50,127
52715,note_on,1,0,0,,6,,,54,127
52715,note_on,0,0,0,,2,,,74,127
52791,note_off,76,0,0,,2,,,74,127
52792,note_on,1,0,0,,4,,,76,127
52868,note_off,76,0,0,,4,,,76,127
52869,note_on,1,0,0,,2,,,74,127
52945,note_off,76,0,0,,2,,,74,127
52946,note_on,1,0,0,,1,,,73,127
53022,note_off,76,0,0,,1,,,73,127
53023,note_on,1,0,0,,12,,,71,127
53099,note_off,76,0,0,,12,,,71,127
53100,note_on,1,0,0,,10,,,69,127
53176,note_off,76,0,0,,10,,,69,127
53176,note_off,0,0,0,,6,,,54,127
53177,note_on,1,0,0,,7,,,55,127
53177,note_on,0,0,0,,12,,,71,127
53253,note_off,76,0,0,,12,,,71,127
53254,note_on,1,0,0,,1,,,73,127
53330,note_off,76,0,0,,1,,,73,127
53331,note_on,1,0,0,,12,,,71,127
53407,note_off,76,0,0,,12,,,71,127
53408,note_on,1,0,0,,10,,,69,127
53484,note_off,76,0,0,,10,,,69,127
53485,note_on,1,0,0,,7,,,67,127
53561,note_off,76,0,0,,7,,,67,127
53562,note_on,1,0,0,,6,,,66,127
53638,note_off,76,0,0,,6,,,66,127
53638,note_off,0,0,0,,7,,,55,127
53639,note_on,1,0,0,,10,,,57,127
53639,note_on,0,0,0,,7,,,67,127
53705,note_off,66,0,0,,7,,,67,127
53705,note_on,0,0,0,,10,,,69,127
53771,note_off,66,0,0,,10,,,69,127
53772,note_on,1,0,0,,7,,,67,127
53838,note_off,66,0,0,,7,,,67,127
53838,note_on,0,0,0,,6,,,66,127
53904,note_off,66,0,0,,6,,,66,127
53904,note_on,0,0,0,,4,,,64,127
53970,note_off,66,0,0,,4,,,64,127
53970,note_on,0,0,0,,2,,,62,127
54036,note_off,66,0,0,,2,,,62,127
54037,note_on,1,0,0,,1,,,61,127
54102,note_off,65,0,0,,10,,,57,127
54103,note_off,1,0,0,,1,,,61,127
54103,note_on,0,0,0,,2,,,50,127
54103,note_on,0,0,0,,10,,,69,127
54179,note_off,76,0,0,,10,,,69,127
54180,note_on,1,0,0,,12,,,71,127
54256,note_off,76,0,0,,12,,,71,127
54257,note_on,1,0,0,,10,,,69,127
54333,note_off,76,0,0,,10,,,69,127
54334,note_on,1,0,0,,7,,,67,127
54410,note_off,76,0,0,,7,,,67,127
54411,note_on,1,0,0,,6,,,66,127
54487,note_off,76,0,0,,6,,,66,127
54488,note_on,1,0,0,,4,,,64,127
54564,note_off,76,0,0,,4,,,64,127
54564,note_off,0,0,0,,2,,,50,127
54565,note_on,1,0,0,,6,,,42,127
54565,note_on,0,0,0,,2,,,62,127
54641,note_off,76,0,0,,2,,,62,127
54642,note_on,1,0,0,,4,,,64,127
54718,note_off,76,0,0,,4,,,64,127
54719,note_on,1,0,0,,2,,,62,127
54795,note_off,76,0,0,,2,,,62,127
54796,note_on,1,0,0,,1,,,61,127
54872,note_off,76,0,0,,1,,,61,127
54873,note_on,1,0,0,,12,,,59,127
54949,note_off,76,0,0,,12,,,59,127
54950,note_on,1,0,0,,10,,,57,127
55026,note_off,76,0,0,,10,,,57,127
55026,note_off,0,0,0,,6,,,42,127
55027,note_on,1,0,0,,7,,,43,127
55027,note_on,0,0,0,,12,,,59,127
55103,note_off,76,0,0,,12,,,59,127
55104,note_on,1,0,0,,1,,,61,127
55180,note_off,76,0,0,,1,,,61,127
55181,note_on,1,0,0,,12,,,59,127
55257,note_off,76,0,0,,12,,,59,127
55258,note_on,1,0,0,,10,,,57,127
55334,note_off,76,0,0,,10,,,57,127
55335,note_on,1,0,0,,7,,,55,127
55411,note_off,76,0,0,,7,,,55,127
55412,note_on,1,0,0,,6,,,54,127
55488,note_off,76,0,0,,6,,,54,127
55488,note_off,0,0,0,,7,,,43,127
55489,note_on,1,0,0,,10,,,45,127
55489,note_on,0,0,0,,7,,,55,127
55555,note_off,66,0,0,,7,,,55,127
55555,note_on,0,0,0,,10,,,57,127
55621,note_off,66,0,0,,10,,,57,127
55622,note_on,1,0,0,,7,,,55,127
55688,note_off,66,0,0,,7,,,55,127
55688,note_on,0,0,0,,6,,,54,127
55754,note_off,66,0,0,,6,,,54,127
55754,note_on,0,0,0,,4,,,52,127
55820,note_off,66,0,0,,4,,,52,127
55820,note_on,0,0,0,,2,,,50,127
55886,note_off,66,0,0,,2,,,50,127
55887,note_on,1,0,0,,1,,,49,127
55952,note_off,65,0,0,,10,,,45,127
55953,note_off,1,0,0,,1,,,49,127
55953,note_on,0,0,0,,2,,,38,127
55953,note_on,0,0,0,,10,,,69,127
56029,note_off,76,0,0,,10,,,69,127
56030,note_on,1,0,0,,12,,,71,127
56106,note_off,76,0,0,,12,,,71,127
56107,note_on,1,0,0,,10,,,69,127
56183,note_off,76,0,0,,10,,,69,127
56184,note_on,1,0,0,,7,,,67,127
56260,note_off,76,0,0,,7,,,67,127
56261,note_on,1,0,0,,6,,,66,127
56337,note_off,76,0,0,,6,,,66,127
56338,note_on,1,0,0,,4,,,64,127
56414,note_off,76,0,0,,4,,,64,127
56414,note_off,0,0,0,,2,,,38,127
56415,note_on,1,0,0,,6,,,42,127
56415,note_on,0,0,0,,2,,,62,127
56491,note_off,76,0,0,,2,,,62,127
56492,note_on,1,0,0,,4,,,64,127
56568,note_off,76,0,0,,4,,,64,127
56569,note_on,1,0,0,,2,,,62,127
56645,note_off,76,0,0,,2,,,62,127
56646,note_on,1,0,0,,1,,,61,127
56722,note_off,76,0,0,,1,,,61,127
56723,note_on,1,0,0,,12,,,59,127
56799,note_off,76,0,0,,12,,,59,127
56800,note_on,1,0,0,,10,,,57,127
56876,note_off,76,0,0,,10,,,57,127
56876,note_off,0,0,0,,6,,,42,127
56877,note_on,1,0,0,,7,,,43,127
56877,note_on,0,0,0,,12,,,59,127
56953,note_off,76,0,0,,12,,,59,127
56954,note_on,1,0,0,,1,,,61,127
57030,note_off,76,0,0,,1,,,61,127
57031,note_on,1,0,0,,12,,,59,127
57107,note_off,76,0,0,,12,,,59,127
57108,note_on,1,0,0,,10,,,57,127
57184,note_off,76,0,0,,10,,,57,127
57185,note_on,1,0,0,,7,,,55,127
57261,note_off,76,0,0,,7,,,55,127
57262,note_on,1,0,0,,6,,,54,127
57338,note_off,76,0,0,,6,,,54,127
57338,note_off,0,0,0,,7,,,43,127
57339,note_on,1,0,0,,10,,,45,127
57339,note_on,0,0,0,,7,,,55,127
57405,note_off,66,0,0,,7,,,55,127
57405,note_on,0,0,0,,10,,,57,127
57471,note_off,66,0,0,,10,,,57,127
57472,note_on,1,0,0,,7,,,55,127
57538,note_off,66,0,0,,7,,,55,127
57538,note_on,0,0,0,,6,,,54,127
57604,note_off,66,0,0,,6,,,54,127
57604,note_on,0,0,0,,4,,,52,127
57670,note_off,66,0,0,,4,,,52,127
57670,note_on,0,0,0,,2,,,50,127
57736,note_off,66,0,0,,2,,,50,127
57737,note_on,1,0,0,,1,,,49,127
57802,note_off,65,0,0,,10,,,45,127
57803,note_off,1,0,0,,1,,,49,127
57803,note_on,0,0,0,,2,,,38,127
57803,note_on,0,0,0,,2,,,50,127
58724,note_off,921,0,0,,2,,,50,127
58725,note_on,1,0,0,,4,,,64,127
58782,note_on,57,0,0,,2,,,62,127
58783,note_off,1,0,0,,4,,,64,127
58840,note_off,57,0,0,,2,,,62,127
58840,note_on,0,0,0,,4,,,64,127
58898,note_off,58,0,0,,4,,,64,127
58898,note_on,0,0,0,,2,,,62,127
58955,note_on,57,0,0,,4,,,64,127
58956,note_off,1,0,0,,2,,,62,127
59013,note_off,57,0,0,,4,,,64,127
59013,note_on,0,0,0,,2,,,62,127
59071,note_off,58,0,0,,2,,,62,127
59071,note_on,0,0,0,,4,,,64,127
59128,note_on,57,0,0,,2,,,62,127
59129,note_off,1,0,0,,4,,,64,127
59186,note_off,57,0,0,,2,,,62,127
59188,note_on,2,0,0,,7,,,67,127
59245,note_on,57,0,0,,6,,,66,127
59246,note_off,1,0,0,,7,,,67,127
59303,note_off,57,0,0,,6,,,66,127
59303,note_on,0,0,0,,7,,,67,127
59361,note_off,58,0,0,,7,,,67,127
59361,note_on,0,0,0,,6,,,66,127
59418,note_on,57,0,0,,7,,,67,127
59419,note_off,1,0,0,,6,,,66,127
59476,note_off,57,0,0,,7,,,67,127
59476,note_on,0,0,0,,6,,,66,127
59534,note_off,58,0,0,,6,,,66,127
59534,note_on,0,0,0,,7,,,67,127
59591,note_on,57,0,0,,6,,,66,127
59592,note_off,1,0,0,,7,,,67,127
59649,note_off,57,0,0,,6,,,66,127
59651,note_off,2,0,0,,2,,,38,127
59652,note_on,1,0,0,,4,,,52,127
59652,note_on,0,0,0,,10,,,69,127
59708,note_off,56,0,0,,4,,,52,127
59709,note_on,1,0,0,,2,,,50,127
59765,note_off,56,0,0,,2,,,50,127
59767,note_on,2,0,0,,4,,,52,127
59823,note_off,56,0,0,,4,,,52,127
59825,note_on,2,0,0,,2,,,50,127
59881,note_off,56,0,0,,2,,,50,127
59882,note_on,1,0,0,,4,,,52,127
59938,note_off,56,0,0,,4,,,52,127
59940,note_on,2,0,0,,2,,,50,127
59996,note_off,56,0,0,,2,,,50,127
59998,note_on,2,0,0,,4,,,52,127
60054,note_off,56,0,0,,4,,,52,127
60055,note_on,1,0,0,,2,,,50,127
60111,note_off,56,0,0,,2,,,50,127
60115,note_on,4,0,0,,7,,,55,127
60171,note_off,56,0,0,,7,,,55,127
60172,note_on,1,0,0,,6,,,54,127
60228,note_off,56,0,0,,6,,,54,127
60230,note_on,2,0,0,,7,,,55,127
60286,note_off,56,0,0,,7,,,55,127
60288,note_on,2,0,0,,6,,,54,127
60344,note_off,56,0,0,,6,,,54,127
60345,note_on,1,0,0,,7,,,55,127
60401,note_off,56,0,0,,7,,,55,127
60403,note_on,2,0,0,,6,,,54,127
60459,note_off,56,0,0,,6,,,54,127
60461,note_on,2,0,0,,7,,,55,127
60517,note_off,56,0,0,,7,,,55,127
60518,note_on,1,0,0,,6,,,54,127
60574,note_off,56,0,0,,6,,,54,127
60577,note_off,3,0,0,,10,,,69,127
60578,note_on,1,0,0,,10,,,57,127
60578,note_on,0,0,0,,12,,,71,127
60634,note_off,56,0,0,,12,,,71,127
60635,note_on,1,0,0,,10,,,69,127
60691,note_off,56,0,0,,10,,,69,127
60693,note_on,2,0,0,,12,,,71,127
60749,note_off,56,0,0,,12,,,71,127
60751,note_on,2,0,0,,10,,,69,127
60807,note_off,56,0,0,,10,,,69,127
60808,note_on,1,0,0,,12,,,71,127
60864,note_off,56,0,0,,12,,,71,127
60866,note_on,2,0,0,,10,,,69,127
60922,note_off,56,0,0,,10,,,69,127
60924,note_on,2,0,0,,12,,,71,127
60980,note_off,56,0,0,,12,,,71,127
60981,note_on,1,0,0,,10,,,69,127
61037,note_off,56,0,0,,10,,,69,127
61041,note_on,4,0,0,,2,,,74,127
61097,note_off,56,0,0,,2,,,74,127
61098,note_on,1,0,0,,0,,,72,127
61154,note_off,56,0,0,,0,,,72,127
61156,note_on,2,0,0,,2,,,74,127
61212,note_off,56,0,0,,2,,,74,127
61214,note_on,2,0,0,,0,,,72,127
61270,note_off,56,0,0,,0,,,72,127
61271,note_on,1,0,0,,2,,,74,127
61327,note_off,56,0,0,,2,,,74,127
61329,note_on,2,0,0,,0,,,72,127
61385,note_off,56,0,0,,0,,,72,127
61387,note_on,2,0,0,,2,,,74,127
61443,note_off,56,0,0,,2,,,74,127
61444,note_on,1,0,0,,0,,,72,127
61500,note_off,56,0,0,,0,,,72,127
61503,note_off,3,0,0,,10,,,57,127
61504,note_on,1,0,0,,12,,,59,127
61504,note_on,0,0,0,,4,,,76,127
61560,note_off,56,0,0,,12,,,59,127
61561,note_on,1,0,0,,10,,,57,127
61617,note_off,56,0,0,,10,,,57,127
61619,note_on,2,0,0,,12,,,59,127
61675,note_off,56,0,0,,12,,,59,127
61677,note_on,2,0,0,,10,,,57,127
61733,note_off,56,0,0,,10,,,57,127
61734,note_on,1,0,0,,12,,,59,127
61790,note_off,56,0,0,,12,,,59,127
61792,note_on,2,0,0,,10,,,57,127
61848,note_off,56,0,0,,10,,,57,127
61850,note_on,2,0,0,,12,,,59,127
61906,note_off,56,0,0,,12,,,59,127
61907,note_on,1,0,0,,10,,,57,127
61963,note_off,56,0,0,,10,,,57,127
61967,note_on,4,0,0,,2,,,62,127
62023,note_off,56,0,0,,2,,,62,127
62024,note_on,1,0,0,,0,,,60,127
62080,note_off,56,0,0,,0,,,60,127
62082,note_on,2,0,0,,2,,,62,127
62138,note_off,56,0,0,,2,,,62,127
62140,note_on,2,0,0,,0,,,60,127
62196,note_off,56,0,0,,0,,,60,127
62197,note_on,1,0,0,,2,,,62,127
62253,note_off,56,0,0,,2,,,62,127
62255,note_on,2,0,0,,0,,,60,127
62311,note_off,56,0,0,,0,,,60,127
62313,note_on,2,0,0,,2,,,62,127
62369,note_off,56,0,0,,2,,,62,127
62370,note_on,1,0,0,,0,,,60,127
62388,note_off,18,0,0,,4,,,76,127
62426,note_off,38,0,0,,0,,,60,127
62430,note_on,4,0,0,,4,,,64,127
62430,note_on,0,0,0,,4,,,76,127
62430,note_on,0,0,0,,12,,,83,127
62584,note_on,154,0,0,,6,,,66,127
62737,note_off,153,0,0,,6,,,66,127
62737,note_off,0,0,0,,4,,,76,127
62738,note_on,1,0,0,,8,,,68,127
62738,note_on,0,0,0,,2,,,74,127
62891,note_off,153,0,0,,2,,,74,127
62891,note_off,0,0,0,,8,,,68,127
62891,note_off,0,0,0,,12,,,83,127
62891,note_off,0,0,0,,4,,,64,127
62892,note_on,1,0,0,,4,,,64,127
62892,note_on,0,0,0,,10,,,69,127
62892,note_on,0,0,0,,10,,,81,127
62892,note_on,0,0,0,,0,,,72,127
63045,note_off,153,0,0,,0,,,72,127
63045,note_off,0,0,0,,10,,,69,127
63046,note_on,1,0,0,,12,,,71,127
63046,note_on,0,0,0,,2,,,74,127
63199,note_off,153,0,0,,2,,,74,127
63199,note_off,0,0,0,,12,,,71,127
63200,note_on,1,0,0,,0,,,72,127
63200,note_on,0,0,0,,4,,,76,127
63353,note_off,153,0,0,,4,,,76,127
63353,note_off,0,0,0,,0,,,72,127
63353,note_off,0,0,0,,4,,,64,127
63354,note_on,1,0,0,,4,,,64,127
63354,note_on,0,0,0,,2,,,74,127
63354,note_on,0,0,0,,5,,,77,127
63507,note_off,153,0,0,,5,,,77,127
63507,note_off,0,0,0,,2,,,74,127
63508,note_on,1,0,0,,0,,,72,127
63508,note_on,0,0,0,,4,,,76,127
63661,note_off,153,0,0,,4,,,76,127
63661,note_off,0,0,0,,0,,,72,127
63662,note_off,1,0,0,,10,,,81,127
63662,note_on,0,0,0,,2,,,74,127
63662,note_on,0,0,0,,5,,,77,127
63662,note_on,0,0,0,,8,,,80,127
63815,note_off,153,0,0,,8,,,80,127
63815,note_off,0,0,0,,5,,,77,127
63815,note_off,0,0,0,,2,,,74,127
63815,note_off,0,0,0,,4,,,64,127
63816,note_on,1,0,0,,4,,,64,127
63816,note_on,0,0,0,,0,,,72,127
63816,note_on,0,0,0,,4,,,76,127
63816,note_on,0,0,0,,12,,,83,127
63816,note_on,0,0,0,,10,,,81,127
63969,note_off,153,0,0,,10,,,81,127
63969,note_off,0,0,0,,12,,,83,127
63969,note_off,0,0,0,,0,,,72,127
63970,note_on,1,0,0,,12,,,71,127
63970,note_on,0,0,0,,8,,,80,127
64123,note_off,153,0,0,,8,,,80,127
64123,note_off,0,0,0,,12,,,71,127
64124,note_on,1,0,0,,10,,,69,127
64124,note_on,0,0,0,,10,,,81,127
64277,note_off,153,0,0,,10,,,81,127
64277,note_off,0,0,0,,10,,,69,127
64277,note_off,0,0,0,,4,,,76,127
64277,note_off,0,0,0,,4,,,64,127
64278,note_on,1,0,0,,4,,,64,127
64278,note_on,0,0,0,,4,,,76,127
64278,note_on,0,0,0,,12,,,83,127
64432,note_on,154,0,0,,6,,,66,127
64585,note_off,153,0,0,,6,,,66,127
64585,note_off,0,0,0,,4,,,76,127
64586,note_on,1,0,0,,8,,,68,127
64586,note_on,0,0,0,,2,,,74,127
64739,note_off,153,0,0,,2,,,74,127
64739,note_off,0,0,0,,8,,,68,127
64739,note_off,0,0,0,,12,,,83,127
64739,note_off,0,0,0,,4,,,64,127
64740,note_on,1,0,0,,10,,,69,127
64740,note_on,0,0,0,,4,,,64,127
64740,note_on,0,0,0,,0,,,72,127
64740,note_on,0,0,0,,10,,,81,127
64893,note_off,153,0,0,,0,,,72,127
64893,note_off,0,0,0,,10,,,69,127
64894,note_on,1,0,0,,12,,,71,127
64894,note_on,0,0,0,,2,,,74,127
65047,note_off,153,0,0,,2,,,74,127
65047,note_off,0,0,0,,12,,,71,127
65048,note_on,1,0,0,,0,,,72,127
65048,note_on,0,0,0,,4,,,76,127
65201,note_off,153,0,0,,4,,,76,127
65201,note_off,0,0,0,,0,,,72,127
65201,note_off,0,0,0,,4,,,64,127
65202,note_on,1,0,0,,2,,,74,127
65202,note_on,0,0,0,,4,,,64,127
65202,note_on,0,0,0,,5,,,77,127
65355,note_off,153,0,0,,5,,,77,127
65355,note_off,0,0,0,,2,,,74,127
65356,note_on,1,0,0,,0,,,72,127
65356,note_on,0,0,0,,4,,,76,127
65509,note_off,153,0,0,,4,,,76,127
65509,note_off,0,0,0,,0,,,72,127
65510,note_off,1,0,0,,10,,,81,127
65510,note_on,0,0,0,,2,,,74,127
65510,note_on,0,0,0,,8,,,80,127
65510,note_on,0,0,0,,5,,,77,127
65663,note_off,153,0,0,,5,,,77,127
65663,note_off,0,0,0,,8,,,80,127
65663,note_off,0,0,0,,2,,,74,127
65663,note_off,0,0,0,,4,,,64,127
65664,note_on,1,0,0,,0,,,72,127
65664,note_on,0,0,0,,4,,,64,127
65664,note_on,0,0,0,,10,,,81,127
65664,note_on,0,0,0,,4,,,76,127
65817,note_off,153,0,0,,10,,,81,127
65817,note_off,0,0,0,,0,,,72,127
65818,note_on,1,0,0,,12,,,71,127
65818,note_on,0,0,0,,8,,,80,127
65971,note_off,153,0,0,,8,,,80,127
65971,note_off,0,0,0,,12,,,71,127
65972,note_on,1,0,0,,10,,,69,127
65972,note_on,0,0,0,,10,,,81,127
66125,note_off,153,0,0,,10,,,81,127
66125,note_off,0,0,0,,10,,,69,127
66125,note_off,0,0,0,,4,,,76,127
66125,note_off,0,0,0,,4,,,64,127
66126,note_on,1,0,0,,4,,,64,127
66126,note_on,0,0,0,,12,,,83,127
66202,note_off,76,0,0,,12,,,83,127
66203,note_on,1,0,0,,0,,,84,127
66279,note_off,76,0,0,,0,,,84,127
66280,note_on,1,0,0,,12,,,83,127
66356,note_off,76,0,0,,12,,,83,127
66357,note_on,1,0,0,,10,,,81,127
66433,note_off,76,0,0,,10,,,81,127
66434,note_on,1,0,0,,8,,,80,127
66510,note_off,76,0,0,,8,,,80,127
66511,note_on,1,0,0,,5,,,77,127
66587,note_off,76,0,0,,5,,,77,127
66587,note_off,0,0,0,,4,,,64,127
66588,note_on,1,0,0,,8,,,56,127
66588,note_on,0,0,0,,4,,,76,127
66664,note_off,76,0,0,,4,,,76,127
66665,note_on,1,0,0,,5,,,77,127
66741,note_off,76,0,0,,5,,,77,127
66742,note_on,1,0,0,,4,,,76,127
66818,note_off,76,0,0,,4,,,76,127
66819,note_on,1,0,0,,2,,,74,127
66895,note_off,76,0,0,,2,,,74,127
66896,note_on,1,0,0,,0,,,72,127
66972,note_off,76,0,0,,0,,,72,127
66973,note_on,1,0,0,,12,,,71,127
67049,note_off,76,0,0,,12,,,71,127
67049,note_off,0,0,0,,8,,,56,127
67050,note_on,1,0,0,,10,,,57,127
67050,note_on,0,0,0,,0,,,72,127
67126,note_off,76,0,0,,0,,,72,127
67127,note_on,1,0,0,,2,,,74,127
67203,note_off,76,0,0,,2,,,74,127
67204,note_on,1,0,0,,0,,,72,127
67280,note_off,76,0,0,,0,,,72,127
67281,note_on,1,0,0,,12,,,71,127
67357,note_off,76,0,0,,12,,,71,127
67358,note_on,1,0,0,,10,,,69,127
67434,note_off,76,0,0,,10,,,69,127
67435,note_on,1,0,0,,8,,,68,127
67511,note_off,76,0,0,,8,,,68,127
67511,note_off,0,0,0,,10,,,57,127
67512,note_on,1,0,0,,0,,,48,127
67512,note_on,0,0,0,,10,,,69,127
67588,note_off,76,0,0,,10,,,69,127
67589,note_on,1,0,0,,12,,,71,127
67665,note_off,76,0,0,,12,,,71,127
67666,note_on,1,0,0,,10,,,69,127
67742,note_off,76,0,0,,10,,,69,127
67743,note_on,1,0,0,,7,,,67,127
67819,note_off,76,0,0,,7,,,67,127
67820,note_on,1,0,0,,5,,,65,127
67896,note_off,76,0,0,,5,,,65,127
67897,note_on,1,0,0,,4,,,64,127
67973,note_off,76,0,0,,4,,,64,127
67973,note_off,0,0,0,,0,,,48,127
67974,note_on,1,0,0,,2,,,50,127
67974,note_on,0,0,0,,5,,,65,127
68050,note_off,76,0,0,,5,,,65,127
68051,note_on,1,0,0,,7,,,67,127
68127,note_off,76,0,0,,7,,,67,127
68128,note_on,1,0,0,,5,,,65,127
68204,note_off,76,0,0,,5,,,65,127
68205,note_on,1,0,0,,4,,,64,127
68281,note_off,76,0,0,,4,,,64,127
68282,note_on,1,0,0,,2,,,62,127
68358,note_off,76,0,0,,2,,,62,127
68359,note_on,1,0,0,,0,,,60,127
68435,note_off,76,0,0,,0,,,60,127
68435,note_off,0,0,0,,2,,,50,127
68436,note_on,1,0,0,,5,,,53,127
68436,note_on,0,0,0,,2,,,62,127
68512,note_off,76,0,0,,2,,,62,127
68513,note_on,1,0,0,,4,,,64,127
68589,note_off,76,0,0,,4,,,64,127
68590,note_on,1,0,0,,2,,,62,127
68666,note_off,76,0,0,,2,,,62,127
68667,note_on,1,0,0,,0,,,60,127
68743,note_off,76,0,0,,0,,,60,127
68744,note_on,1,0,0,,12,,,59,127
68820,note_off,76,0,0,,12,,,59,127
68821,note_on,1,0,0,,10,,,57,127
68897,note_off,76,0,0,,10,,,57,127
68897,note_off,0,0,0,,5,,,53,127
68898,note_on,1,0,0,,3,,,63,127
69051,note_off,153,0,0,,3,,,63,127
69052,note_on,1,0,0,,4,,,64,127
69205,note_off,153,0,0,,4,,,64,127
69206,note_on,1,0,0,,4,,,52,127
69359,note_off,153,0,0,,4,,,52,127
69360,note_on,1,0,0,,1,,,61,127
69513,note_off,153,0,0,,1,,,61,127
69514,note_on,1,0,0,,2,,,62,127
69667,note_off,153,0,0,,2,,,62,127
69668,note_on,1,0,0,,2,,,50,127
69821,note_off,153,0,0,,2,,,50,127
69822,note_on,1,0,0,,0,,,60,127
69822,note_on,0,0,0,,3,,,75,127
69975,note_off,153,0,0,,3,,,75,127
69976,note_on,1,0,0,,4,,,76,127
70129,note_off,153,0,0,,4,,,76,127
70130,note_on,1,0,0,,4,,,64,127
70283,note_off,153,0,0,,4,,,64,127
70283,note_off,0,0,0,,0,,,60,127
70284,note_on,1,0,0,,12,,,59,127
70284,note_on,0,0,0,,1,,,73,127
70437,note_off,153,0,0,,1,,,73,127
70438,note_on,1,0,0,,2,,,74,127
70591,note_off,153,0,0,,2,,,74,127
70592,note_on,1,0,0,,2,,,62,127
70745,note_off,153,0,0,,2,,,62,127
70745,note_off,0,0,0,,12,,,59,127
70746,note_on,1,0,0,,10,,,57,127
70746,note_on,0,0,0,,0,,,72,127
70822,note_off,76,0,0,,0,,,72,127
70823,note_on,1,0,0,,2,,,74,127
70899,note_off,76,0,0,,2,,,74,127
70900,note_on,1,0,0,,0,,,72,127
70976,note_off,76,0,0,,0,,,72,127
70977,note_on,1,0,0,,12,,,71,127
71053,note_off,76,0,0,,12,,,71,127
71054,note_on,1,0,0,,10,,,69,127
71130,note_off,76,0,0,,10,,,69,127
71131,note_on,1,0,0,,7,,,67,127
71207,note_off,76,0,0,,7,,,67,127
71207,note_off,0,0,0,,10,,,57,127
71208,note_on,1,0,0,,0,,,48,127
71208,note_on,0,0,0,,10,,,69,127
71284,note_off,76,0,0,,10,,,69,127
71285,note_on,1,0,0,,12,,,71,127
71361,note_off,76,0,0,,12,,,71,127
71362,note_on,1,0,0,,10,,,69,127
71438,note_off,76,0,0,,10,,,69,127
71439,note_on,1,0,0,,7,,,67,127
71515,note_off,76,0,0,,7,,,67,127
71516,note_on,1,0,0,,6,,,66,127
71592,note_off,76,0,0,,6,,,66,127
71593,note_on,1,0,0,,4,,,64,127
71669,note_off,76,0,0,,4,,,64,127
71669,note_off,0,0,0,,0,,,48,127
71670,note_on,1,0,0,,2,,,50,127
71670,note_on,0,0,0,,6,,,66,127
71746,note_off,76,0,0,,6,,,66,127
71747,note_on,1,0,0,,7,,,67,127
71823,note_off,76,0,0,,7,,,67,127
71824,note_on,1,0,0,,6,,,66,127
71900,note_off,76,0,0,,6,,,66,127
71901,note_on,1,0,0,,4,,,64,127
71977,note_off,76,0,0,,4,,,64,127
71978,note_on,1,0,0,,2,,,62,127
72054,note_off,76,0,0,,2,,,62,127
72055,note_on,1,0,0,,0,,,60,127
72131,note_off,76,0,0,,0,,,60,127
72131,note_off,0,0,0,,2,,,50,127
72132,note_on,1,0,0,,6,,,54,127
72132,note_on,0,0,0,,2,,,62,127
72208,note_off,76,0,0,,2,,,62,127
72209,note_on,1,0,0,,4,,,64,127
72285,note_off,76,0,0,,4,,,64,127
72286,note_on,1,0,0,,2,,,62,127
72362,note_off,76,0,0,,2,,,62,127
72363,note_on,1,0,0,,0,,,60,127
72439,note_off,76,0,0,,0,,,60,127
72440,note_on,1,0,0,,12,,,59,127
72516,note_off,76,0,0,,12,,,59,127
72517,note_on,1,0,0,,10,,,57,127
72593,note_off,76,0,0,,10,,,57,127
72593,note_off,0,0,0,,6,,,54,127
72594,note_on,1,0,0,,1,,,61,127
72747,note_off,153,0,0,,1,,,61,127
72748,note_on,1,0,0,,2,,,62,127
72901,note_off,153,0,0,,2,,,62,127
72902,note_on,1,0,0,,2,,,50,127
73055,note_off,153,0,0,,2,,,50,127
73056,note_on,1,0,0,,12,,,59,127
73209,note_off,153,0,0,,12,,,59,127
73210,note_on,1,0,0,,0,,,60,127
73363,note_off,153,0,0,,0,,,60,127
73364,note_on,1,0,0,,0,,,48,127
73517,note_off,153,0,0,,0,,,48,127
73518,note_on,1,0,0,,12,,,59,127
73518,note_on,0,0,0,,1,,,73,127
73671,note_off,153,0,0,,1,,,73,127
73672,note_on,1,0,0,,2,,,74,127
73825,note_off,153,0,0,,2,,,74,127
73826,note_on,1,0,0,,2,,,62,127
73979,note_off,153,0,0,,2,,,62,127
73979,note_off,0,0,0,,12,,,59,127
73980,note_on,1,0,0,,10,,,57,127
73980,note_on,0,0,0,,12,,,71,127
74133,note_off,153,0,0,,12,,,71,127
74134,note_on,1,0,0,,0,,,72,127
74287,note_off,153,0,0,,0,,,72,127
74288,note_on,1,0,0,,0,,,60,127
74441,note_off,153,0,0,,0,,,60,127
74441,note_off,0,0,0,,10,,,57,127
74442,note_on,1,0,0,,7,,,55,127
74442,note_on,0,0,0,,12,,,71,127
74518,note_off,76,0,0,,12,,,71,127
74519,note_on,1,0,0,,0,,,72,127
74595,note_off,76,0,0,,0,,,72,127
74596,note_on,1,0,0,,12,,,71,127
74672,note_off,76,0,0,,12,,,71,127
74673,note_on,1,0,0,,10,,,69,127
74749,note_off,76,0,0,,10,,,69,127
74750,note_on,1,0,0,,7,,,67,127
74826,note_off,76,0,0,,7,,,67,127
74827,note_on,1,0,0,,6,,,66,127
74903,note_off,76,0,0,,6,,,66,127
74903,note_off,0,0,0,,7,,,55,127
74904,note_on,1,0,0,,12,,,47,127
74904,note_on,0,0,0,,7,,,67,127
74980,note_off,76,0,0,,7,,,67,127
74981,note_on,1,0,0,,10,,,69,127
75057,note_off,76,0,0,,10,,,69,127
75058,note_on,1,0,0,,7,,,67,127
75134,note_off,76,0,0,,7,,,67,127
75135,note_on,1,0,0,,6,,,66,127
75211,note_off,76,0,0,,6,,,66,127
75212,note_on,1,0,0,,4,,,64,127
75288,note_off,76,0,0,,4,,,64,127
75289,note_on,1,0,0,,2,,,62,127
75365,note_off,76,0,0,,2,,,62,127
75365,note_off,0,0,0,,12,,,47,127
75366,note_on,1,0,0,,0,,,48,127
75366,note_on,0,0,0,,4,,,64,127
75442,note_off,76,0,0,,4,,,64,127
75443,note_on,1,0,0,,6,,,66,127
75519,note_off,76,0,0,,6,,,66,127
75520,note_on,1,0,0,,4,,,64,127
75596,note_off,76,0,0,,4,,,64,127
75597,note_on,1,0,0,,2,,,62,127
75673,note_off,76,0,0,,2,,,62,127
75674,note_on,1,0,0,,0,,,60,127
75750,note_off,76,0,0,,0,,,60,127
75751,note_on,1,0,0,,12,,,59,127
75827,note_off,76,0,0,,12,,,59,127
75827,note_off,0,0,0,,0,,,48,127
75828,note_on,1,0,0,,2,,,50,127
75828,note_on,0,0,0,,0,,,60,127
75904,note_off,76,0,0,,0,,,60,127
75905,note_on,1,0,0,,4,,,64,127
75981,note_off,76,0,0,,4,,,64,127
75982,note_on,1,0,0,,2,,,62,127
76058,note_off,76,0,0,,2,,,62,127
76059,note_on,1,0,0,,0,,,60,127
76135,note_off,76,0,0,,0,,,60,127
76136,note_on,1,0,0,,12,,,59,127
76212,note_off,76,0,0,,12,,,59,127
76213,note_on,1,0,0,,10,,,57,127
76289,note_off,76,0,0,,10,,,57,127
76289,note_off,0,0,0,,2,,,50,127
76290,note_on,1,0,0,,7,,,55,127
76290,note_on,0,0,0,,12,,,59,127
76443,note_off,153,0,0,,12,,,59,127
76444,note_on,1,0,0,,6,,,78,127
76597,note_off,153,0,0,,6,,,78,127
76598,note_on,1,0,0,,7,,,79,127
76751,note_off,153,0,0,,7,,,55,127
76752,note_on,1,0,0,,7,,,67,127
76905,note_off,153,0,0,,7,,,79,127
76906,note_on,1,0,0,,6,,,78,127
76906,note_on,0,0,0,,4,,,76,127
77059,note_off,153,0,0,,4,,,76,127
77059,note_off,0,0,0,,6,,,78,127
77060,note_on,1,0,0,,3,,,75,127
77213,note_off,153,0,0,,3,,,75,127
77213,note_off,0,0,0,,7,,,67,127
77214,note_on,1,0,0,,0,,,72,127
77214,note_on,0,0,0,,4,,,76,127
77367,note_off,153,0,0,,4,,,76,127
77368,note_on,1,0,0,,6,,,78,127
77521,note_off,153,0,0,,6,,,78,127
77522,note_on,1,0,0,,7,,,79,127
77675,note_off,153,0,0,,0,,,72,127
77676,note_on,1,0,0,,0,,,72,127
77829,note_off,153,0,0,,7,,,79,127
77830,note_on,1,0,0,,4,,,76,127
77830,note_on,0,0,0,,2,,,74,127
77983,note_off,153,0,0,,2,,,74,127
77983,note_off,0,0,0,,4,,,76,127
77984,note_on,1,0,0,,1,,,73,127
78137,note_off,153,0,0,,1,,,73,127
78137,note_off,0,0,0,,0,,,72,127
78138,note_on,1,0,0,,12,,,71,127
78138,note_on,0,0,0,,2,,,74,127
78291,note_off,153,0,0,,2,,,74,127
78292,note_on,1,0,0,,6,,,78,127
78445,note_off,153,0,0,,6,,,78,127
78446,note_on,1,0,0,,7,,,79,127
78599,note_off,153,0,0,,12,,,71,127
78600,note_on,1,0,0,,12,,,71,127
78753,note_off,153,0,0,,7,,,79,127
78754,note_on,1,0,0,,0,,,72,127
78754,note_on,0,0,0,,2,,,74,127
78904,note_off,150,0,0,,12,,,71,127
78906,note_off,2,0,0,,2,,,74,127
78906,note_off,0,0,0,,0,,,72,127
78907,note_on,1,0,0,,12,,,71,127
79060,note_off,153,0,0,,12,,,71,127
79061,note_on,1,0,0,,10,,,69,127
79061,note_on,0,0,0,,0,,,72,127
79214,note_off,153,0,0,,0,,,72,127
79215,note_on,1,0,0,,6,,,78,127
79368,note_off,153,0,0,,6,,,78,127
79369,note_on,1,0,0,,7,,,79,127
79522,note_off,153,0,0,,10,,,69,127
79523,note_on,1,0,0,,10,,,69,127
79676,note_off,153,0,0,,7,,,79,127
79677,note_on,1,0,0,,12,,,71,127
79677,note_on,0,0,0,,0,,,72,127
79827,note_off,150,0,0,,10,,,69,127
79829,note_off,2,0,0,,0,,,72,127
79829,note_off,0,0,0,,12,,,71,127
79830,note_on,1,0,0,,10,,,69,127
79983,note_off,153,0,0,,10,,,69,127
79984,note_on,1,0,0,,7,,,67,127
79984,note_on,0,0,0,,12,,,71,127
80137,note_off,153,0,0,,12,,,71,127
80138,note_on,1,0,0,,6,,,78,127
80291,note_off,153,0,0,,6,,,78,127
80292,note_on,1,0,0,,7,,,79,127
80445,note_off,153,0,0,,7,,,67,127
80446,note_on,1,0,0,,12,,,59,127
80599,note_off,153,0,0,,7,,,79,127
80600,note_on,1,0,0,,6,,,78,127
80600,note_on,0,0,0,,4,,,76,127
80753,note_off,153,0,0,,4,,,76,127
80753,note_off,0,0,0,,6,,,78,127
80754,note_on,1,0,0,,3,,,75,127
80907,note_off,153,0,0,,12,,,59,127
80908,note_on,1,0,0,,0,,,60,127
81061,note_off,153,0,0,,3,,,75,127
81062,note_on,1,0,0,,4,,,76,127
81215,note_off,153,0,0,,4,,,76,127
81216,note_on,1,0,0,,0,,,72,127
81369,note_off,153,0,0,,0,,,60,127
81370,note_on,1,0,0,,0,,,48,127
81523,note_off,153,0,0,,0,,,72,127
81524,note_on,1,0,0,,12,,,71,127
81524,note_on,0,0,0,,10,,,69,127
81677,note_off,153,0,0,,10,,,69,127
81677,note_off,0,0,0,,12,,,71,127
81678,note_on,1,0,0,,7,,,67,127
81831,note_off,153,0,0,,7,,,67,127
81831,note_off,0,0,0,,0,,,48,127
81832,note_on,1,0,0,,2,,,50,127
81832,note_on,0,0,0,,7,,,67,127
82138,note_off,306,0,0,,7,,,67,127
82139,note_on,1,0,0,,6,,,66,127
82445,note_off,306,0,0,,2,,,50,127
82752,note_off,307,0,0,,6,,,66,127
82906,note_on,154,0,0,,10,,,81,127
82906,note_on,0,0,0,,2,,,74,127
82906,note_on,0,0,0,,2,,,62,127
83060,note_on,154,0,0,,4,,,64,127
83213,note_off,153,0,0,,4,,,64,127
83213,note_off,0,0,0,,2,,,74,127
83214,note_on,1,0,0,,0,,,72,127
83214,note_on,0,0,0,,6,,,66,127
83367,note_off,153,0,0,,6,,,66,127
83367,note_off,0,0,0,,0,,,72,127
83367,note_off,0,0,0,,2,,,62,127
83367,note_off,0,0,0,,10,,,81,127
83368,note_on,1,0,0,,11,,,70,127
83368,note_on,0,0,0,,7,,,79,127
83368,note_on,0,0,0,,7,,,67,127
83368,note_on,0,0,0,,2,,,62,127
83521,note_off,153,0,0,,7,,,67,127
83521,note_off,0,0,0,,11,,,70,127
83522,note_on,1,0,0,,0,,,72,127
83522,note_on,0,0,0,,10,,,69,127
83675,note_off,153,0,0,,10,,,69,127
83675,note_off,0,0,0,,0,,,72,127
83676,note_on,1,0,0,,2,,,74,127
83676,note_on,0,0,0,,11,,,70,127
83829,note_off,153,0,0,,11,,,70,127
83829,note_off,0,0,0,,2,,,74,127
83829,note_off,0,0,0,,2,,,62,127
83830,note_on,1,0,0,,3,,,75,127
83830,note_on,0,0,0,,0,,,72,127
83830,note_on,0,0,0,,2,,,62,127
83983,note_off,153,0,0,,0,,,72,127
83983,note_off,0,0,0,,3,,,75,127
83984,note_on,1,0,0,,2,,,74,127
83984,note_on,0,0,0,,11,,,70,127
84137,note_off,153,0,0,,11,,,70,127
84137,note_off,0,0,0,,2,,,74,127
84138,note_off,1,0,0,,7,,,79,127
84138,note_on,0,0,0,,3,,,75,127
84138,note_on,0,0,0,,6,,,78,127
84138,note_on,0,0,0,,0,,,72,127
84291,note_off,153,0,0,,0,,,72,127
84291,note_off,0,0,0,,6,,,78,127
84291,note_off,0,0,0,,3,,,75,127
84291,note_off,0,0,0,,2,,,62,127
84292,note_on,1,0,0,,7,,,79,127
84292,note_on,0,0,0,,10,,,81,127
84292,note_on,0,0,0,,2,,,74,127
84292,note_on,0,0,0,,2,,,62,127
84292,note_on,0,0,0,,11,,,70,127
84445,note_off,153,0,0,,11,,,70,127
84445,note_off,0,0,0,,10,,,81,127
84445,note_off,0,0,0,,7,,,79,127
84446,note_on,1,0,0,,6,,,78,127
84446,note_on,0,0,0,,10,,,69,127
84599,note_off,153,0,0,,10,,,69,127
84599,note_off,0,0,0,,6,,,78,127
84600,note_on,1,0,0,,7,,,79,127
84600,note_on,0,0,0,,7,,,67,127
84753,note_off,153,0,0,,7,,,67,127
84753,note_off,0,0,0,,7,,,79,127
84753,note_off,0,0,0,,2,,,62,127
84753,note_off,0,0,0,,2,,,74,127
84754,note_on,1,0,0,,2,,,74,127
84754,note_on,0,0,0,,10,,,81,127
84754,note_on,0,0,0,,2,,,62,127
84908,note_on,154,0,0,,4,,,64,127
85061,note_off,153,0,0,,4,,,64,127
85061,note_off,0,0,0,,2,,,74,127
85062,note_on,1,0,0,,0,,,72,127
85062,note_on,0,0,0,,6,,,66,127
85215,note_off,153,0,0,,6,,,66,127
85215,note_off,0,0,0,,0,,,72,127
85215,note_off,0,0,0,,2,,,62,127
85215,note_off,0,0,0,,10,,,81,127
85216,note_on,1,0,0,,7,,,79,127
85216,note_on,0,0,0,,11,,,70,127
85216,note_on,0,0,0,,2,,,62,127
85216,note_on,0,0,0,,7,,,67,127
85369,note_off,153,0,0,,7,,,67,127
85369,note_off,0,0,0,,11,,,70,127
85370,note_on,1,0,0,,0,,,72,127
85370,note_on,0,0,0,,10,,,69,127
85523,note_off,153,0,0,,10,,,69,127
85523,note_off,0,0,0,,0,,,72,127
85524,note_on,1,0,0,,2,,,74,127
85524,note_on,0,0,0,,11,,,70,127
85677,note_off,153,0,0,,11,,,70,127
85677,note_off,0,0,0,,2,,,74,127
85677,note_off,0,0,0,,2,,,62,127
85678,note_on,1,0,0,,3,,,75,127
85678,note_on,0,0,0,,2,,,62,127
85678,note_on,0,0,0,,0,,,72,127
85831,note_off,153,0,0,,0,,,72,127
85831,note_off,0,0,0,,3,,,75,127
85832,note_on,1,0,0,,2,,,74,127
85832,note_on,0,0,0,,11,,,70,127
85985,note_off,153,0,0,,11,,,70,127
85985,note_off,0,0,0,,2,,,74,127
85986,note_off,1,0,0,,7,,,79,127
85986,note_on,0,0,0,,6,,,78,127
85986,note_on,0,0,0,,3,,,75,127
85986,note_on,0,0,0,,0,,,72,127
86139,note_off,153,0,0,,0,,,72,127
86139,note_off,0,0,0,,3,,,75,127
86139,note_off,0,0,0,,6,,,78,127
86139,note_off,0,0,0,,2,,,62,127
86140,note_on,1,0,0,,7,,,79,127
86140,note_on,0,0,0,,10,,,81,127
86140,note_on,0,0,0,,2,,,74,127
86140,note_on,0,0,0,,2,,,62,127
86140,note_on,0,0,0,,11,,,70,127
86293,note_off,153,0,0,,11,,,70,127
86293,note_off,0,0,0,,10,,,81,127
86293,note_off,0,0,0,,7,,,79,127
86294,note_on,1,0,0,,6,,,78,127
86294,note_on,0,0,0,,10,,,69,127
86447,note_off,153,0,0,,10,,,69,127
86447,note_off,0,0,0,,6,,,78,127
86448,note_on,1,0,0,,7,,,79,127
86448,note_on,0,0,0,,7,,,67,127
86601,note_off,153,0,0,,7,,,67,127
86601,note_off,0,0,0,,7,,,79,127
86601,note_off,0,0,0,,2,,,62,127
86601,note_off,0,0,0,,2,,,74,127
86602,note_on,1,0,0,,2,,,74,127
86602,note_on,0,0,0,,10,,,81,127
86602,note_on,0,0,0,,2,,,62,127
86678,note_off,76,0,0,,2,,,62,127
86679,note_on,1,0,0,,4,,,64,127
86755,note_off,76,0,0,,4,,,64,127
86756,note_on,1,0,0,,6,,,66,127
86832,note_off,76,0,0,,6,,,66,127
86833,note_on,1,0,0,,7,,,67,127
86909,note_off,76,0,0,,7,,,67,127
86910,note_on,1,0,0,,10,,,69,127
86986,note_off,76,0,0,,10,,,69,127
86987,note_on,1,0,0,,7,,,67,127
87063,note_off,76,0,0,,7,,,67,127
87063,note_off,0,0,0,,2,,,74,127
87064,note_on,1,0,0,,6,,,66,127
87140,note_off,76,0,0,,6,,,66,127
87141,note_on,1,0,0,,4,,,64,127
87217,note_off,76,0,0,,4,,,64,127
87218,note_on,1,0,0,,2,,,62,127
87294,note_off,76,0,0,,2,,,62,127
87295,note_on,1,0,0,,0,,,60,127
87371,note_off,76,0,0,,0,,,60,127
87372,note_on,1,0,0,,11,,,58,127
87448,note_off,76,0,0,,11,,,58,127
87449,note_on,1,0,0,,10,,,57,127
87525,note_off,76,0,0,,10,,,57,127
87525,note_off,0,0,0,,10,,,81,127
87526,note_on,1,0,0,,11,,,82,127
87526,note_on,0,0,0,,7,,,55,127
87602,note_off,76,0,0,,11,,,82,127
87603,note_on,1,0,0,,0,,,84,127
87679,note_off,76,0,0,,0,,,84,127
87680,note_on,1,0,0,,2,,,86,127
87756,note_off,76,0,0,,2,,,86,127
87757,note_on,1,0,0,,0,,,84,127
87833,note_off,76,0,0,,0,,,84,127
87834,note_on,1,0,0,,11,,,82,127
87910,note_off,76,0,0,,11,,,82,127
87911,note_on,1,0,0,,10,,,81,127
87987,note_off,76,0,0,,10,,,81,127
87987,note_off,0,0,0,,7,,,55,127
87988,note_on,1,0,0,,7,,,79,127
87988,note_on,0,0,0,,11,,,46,127
88064,note_off,76,0,0,,7,,,79,127
88065,note_on,1,0,0,,5,,,77,127
88141,note_off,76,0,0,,5,,,77,127
88142,note_on,1,0,0,,3,,,75,127
88218,note_off,76,0,0,,3,,,75,127
88219,note_on,1,0,0,,2,,,74,127
88295,note_off,76,0,0,,2,,,74,127
88296,note_on,1,0,0,,0,,,72,127
88372,note_off,76,0,0,,0,,,72,127
88373,note_on,1,0,0,,11,,,70,127
88449,note_off,76,0,0,,11,,,70,127
88449,note_off,0,0,0,,11,,,46,127
88450,note_on,1,0,0,,10,,,69,127
88450,note_on,0,0,0,,0,,,48,127
88603,note_off,153,0,0,,10,,,69,127
88604,note_on,1,0,0,,3,,,75,127
88757,note_off,153,0,0,,3,,,75,127
88758,note_on,1,0,0,,7,,,67,127
88911,note_off,153,0,0,,0,,,48,127
88912,note_on,1,0,0,,2,,,50,127
89065,note_off,153,0,0,,7,,,67,127
89066,note_on,1,0,0,,10,,,69,127
89219,note_off,153,0,0,,10,,,69,127
89220,note_on,1,0,0,,6,,,66,127
89373,note_off,153,0,0,,6,,,66,127
89373,note_off,0,0,0,,2,,,50,127
89374,note_on,1,0,0,,6,,,66,127
89374,note_on,0,0,0,,7,,,55,127
89680,note_off,306,0,0,,6,,,66,127
89681,note_on,1,0,0,,7,,,67,127
89833,note_off,152,0,0,,7,,,67,127
89834,note_off,1,0,0,,7,,,55,127
89835,note_on,1,0,0,,2,,,62,127
89835,note_on,0,0,0,,10,,,81,127
89835,note_on,0,0,0,,2,,,74,127
89989,note_on,154,0,0,,4,,,64,127
90142,note_off,153,0,0,,4,,,64,127
90142,note_off,0,0,0,,2,,,74,127
90143,note_on,1,0,0,,6,,,66,127
90143,note_on,0,0,0,,0,,,72,127
90296,note_off,153,0,0,,0,,,72,127
90296,note_off,0,0,0,,6,,,66,127
90296,note_off,0,0,0,,10,,,81,127
90296,note_off,0,0,0,,2,,,62,127
90297,note_on,1,0,0,,2,,,62,127
90297,note_on,0,0,0,,7,,,67,127
90297,note_on,0,0,0,,7,,,79,127
90297,note_on,0,0,0,,11,,,70,127
90450,note_off,153,0,0,,11,,,70,127
90450,note_off,0,0,0,,7,,,67,127
90451,note_on,1,0,0,,10,,,69,127
90451,note_on,0,0,0,,0,,,72,127
90604,note_off,153,0,0,,0,,,72,127
90604,note_off,0,0,0,,10,,,69,127
90605,note_on,1,0,0,,11,,,70,127
90605,note_on,0,0,0,,2,,,74,127
90758,note_off,153,0,0,,2,,,74,127
90758,note_off,0,0,0,,11,,,70,127
90758,note_off,0,0,0,,2,,,62,127
90759,note_on,1,0,0,,2,,,62,127
90759,note_on,0,0,0,,0,,,72,127
90759,note_on,0,0,0,,3,,,75,127
90912,note_off,153,0,0,,3,,,75,127
90912,note_off,0,0,0,,0,,,72,127
90913,note_on,1,0,0,,11,,,70,127
90913,note_on,0,0,0,,2,,,74,127
91066,note_off,153,0,0,,2,,,74,127
91066,note_off,0,0,0,,11,,,70,127
91067,note_off,1,0,0,,7,,,79,127
91067,note_on,0,0,0,,0,,,72,127
91067,note_on,0,0,0,,6,,,78,127
91067,note_on,0,0,0,,3,,,75,127
91220,note_off,153,0,0,,3,,,75,127
91220,note_off,0,0,0,,6,,,78,127
91220,note_off,0,0,0,,0,,,72,127
91220,note_off,0,0,0,,2,,,62,127
91221,note_on,1,0,0,,2,,,62,127
91221,note_on,0,0,0,,11,,,70,127
91221,note_on,0,0,0,,2,,,74,127
91221,note_on,0,0,0,,7,,,79,127
91221,note_on,0,0,0,,10,,,81,127
91374,note_off,153,0,0,,10,,,81,127
91374,note_off,0,0,0,,7,,,79,127
91374,note_off,0,0,0,,11,,,70,127
91375,note_on,1,0,0,,10,,,69,127
91375,note_on,0,0,0,,6,,,78,127
91528,note_off,153,0,0,,6,,,78,127
91528,note_off,0,0,0,,10,,,69,127
91529,note_on,1,0,0,,7,,,67,127
91529,note_on,0,0,0,,7,,,79,127
91682,note_off,153,0,0,,7,,,79,127
91682,note_off,0,0,0,,7,,,67,127
91682,note_off,0,0,0,,2,,,74,127
91682,note_off,0,0,0,,2,,,62,127
91683,note_on,1,0,0,,2,,,62,127
91683,note_on,0,0,0,,2,,,74,127
91683,note_on,0,0,0,,10,,,81,127
91837,note_on,154,0,0,,4,,,64,127
91990,note_off,153,0,0,,4,,,64,127
91990,note_off,0,0,0,,2,,,74,127
91991,note_on,1,0,0,,6,,,66,127
91991,note_on,0,0,0,,0,,,72,127
92144,note_off,153,0,0,,0,,,72,127
92144,note_off,0,0,0,,6,,,66,127
92144,note_off,0,0,0,,10,,,81,127
92144,note_off,0,0,0,,2,,,62,127
92145,note_on,1,0,0,,7,,,67,127
92145,note_on,0,0,0,,2,,,62,127
92145,note_on,0,0,0,,11,,,70,127
92145,note_on,0,0,0,,7,,,79,127
92298,note_off,153,0,0,,11,,,70,127
92298,note_off,0,0,0,,7,,,67,127
92299,note_on,1,0,0,,10,,,69,127
92299,note_on,0,0,0,,0,,,72,127
92452,note_off,153,0,0,,0,,,72,127
92452,note_off,0,0,0,,10,,,69,127
92453,note_on,1,0,0,,11,,,70,127
92453,note_on,0,0,0,,2,,,74,127
92606,note_off,153,0,0,,2,,,74,127
92606,note_off,0,0,0,,11,,,70,127
92606,note_off,0,0,0,,2,,,62,127
92607,note_on,1,0,0,,0,,,72,127
92607,note_on,0,0,0,,2,,,62,127
92607,note_on,0,0,0,,3,,,75,127
92760,note_off,153,0,0,,3,,,75,127
92760,note_off,0,0,0,,0,,,72,127
92761,note_on,1,0,0,,11,,,70,127
92761,note_on,0,0,0,,2,,,74,127
92914,note_off,153,0,0,,2,,,74,127
92914,note_off,0,0,0,,11,,,70,127
92915,note_off,1,0,0,,7,,,79,127
92915,note_on,0,0,0,,0,,,72,127
92915,note_on,0,0,0,,6,,,78,127
92915,note_on,0,0,0,,3,,,75,127
93068,note_off,153,0,0,,3,,,75,127
93068,note_off,0,0,0,,6,,,78,127
93068,note_off,0,0,0,,0,,,72,127
93068,note_off,0,0,0,,2,,,62,127
93069,note_on,1,0,0,,11,,,70,127
93069,note_on,0,0,0,,2,,,62,127
93069,note_on,0,0,0,,2,,,74,127
93069,note_on,0,0,0,,10,,,81,127
93069,note_on,0,0,0,,7,,,79,127
93222,note_off,153,0,0,,7,,,79,127
93222,note_off,0,0,0,,10,,,81,127
93222,note_off,0,0,0,,11,,,70,127
93223,note_on,1,0,0,,10,,,69,127
93223,note_on,0,0,0,,6,,,78,127
93376,note_off,153,0,0,,6,,,78,127
93376,note_off,0,0,0,,10,,,69,127
93377,note_on,1,0,0,,7,,,67,127
93377,note_on,0,0,0,,7,,,79,127
93530,note_off,153,0,0,,7,,,79,127
93530,note_off,0,0,0,,7,,,67,127
93530,note_off,0,0,0,,2,,,74,127
93530,note_off,0,0,0,,2,,,62,127
93531,note_on,1,0,0,,2,,,62,127
93531,note_on,0,0,0,,10,,,81,127
93531,note_on,0,0,0,,2,,,74,127
93607,note_off,76,0,0,,2,,,62,127
93608,note_on,1,0,0,,4,,,64,127
93684,note_off,76,0,0,,4,,,64,127
93685,note_on,1,0,0,,6,,,66,127
93761,note_off,76,0,0,,6,,,66,127
93762,note_on,1,0,0,,7,,,67,127
93838,note_off,76,0,0,,7,,,67,127
93839,note_on,1,0,0,,10,,,69,127
93915,note_off,76,0,0,,10,,,69,127
93916,note_on,1,0,0,,7,,,67,127
93992,note_off,76,0,0,,7,,,67,127
93992,note_off,0,0,0,,2,,,74,127
93993,note_on,1,0,0,,6,,,66,127
94069,note_off,76,0,0,,6,,,66,127
94070,note_on,1,0,0,,4,,,64,127
94146,note_off,76,0,0,,4,,,64,127
94147,note_on,1,0,0,,2,,,62,127
94223,note_off,76,0,0,,2,,,62,127
94224,note_on,1,0,0,,0,,,60,127
94300,note_off,76,0,0,,0,,,60,127
94301,note_on,1,0,0,,11,,,58,127
94377,note_off,76,0,0,,11,,,58,127
94378,note_on,1,0,0,,10,,,57,127
94454,note_off,76,0,0,,10,,,57,127
94454,note_off,0,0,0,,10,,,81,127
94455,note_on,1,0,0,,7,,,55,127
94455,note_on,0,0,0,,11,,,82,127
94531,note_off,76,0,0,,11,,,82,127
94532,note_on,1,0,0,,0,,,84,127
94608,note_off,76,0,0,,0,,,84,127
94609,note_on,1,0,0,,2,,,86,127
94685,note_off,76,0,0,,2,,,86,127
94686,note_on,1,0,0,,0,,,84,127
94762,note_off,76,0,0,,0,,,84,127
94763,note_on,1,0,0,,11,,,82,127
94839,note_off,76,0,0,,11,,,82,127
94840,note_on,1,0,0,,10,,,81,127
94916,note_off,76,0,0,,10,,,81,127
94916,note_off,0,0,0,,7,,,55,127
94917,note_on,1,0,0,,11,,,46,127
94917,note_on,0,0,0,,7,,,79,127
94993,note_off,76,0,0,,7,,,79,127
94994,note_on,1,0,0,,5,,,77,127
95070,note_off,76,0,0,,5,,,77,127
95071,note_on,1,0,0,,3,,,75,127
95147,note_off,76,0,0,,3,,,75,127
95148,note_on,1,0,0,,2,,,74,127
95224,note_off,76,0,0,,2,,,74,127
95225,note_on,1,0,0,,0,,,72,127
95301,note_off,76,0,0,,0,,,72,127
95302,note_on,1,0,0,,11,,,70,127
95378,note_off,76,0,0,,11,,,70,127
95378,note_off,0,0,0,,11,,,46,127
95379,note_on,1,0,0,,0,,,48,127
95379,note_on,0,0,0,,10,,,69,127
95532,note_off,153,0,0,,10,,,69,127
95533,note_on,1,0,0,,3,,,75,127
95686,note_off,153,0,0,,3,,,75,127
95687,note_on,1,0,0,,7,,,67,127
95840,note_off,153,0,0,,0,,,48,127
95841,note_on,1,0,0,,2,,,50,127
95994,note_off,153,0,0,,7,,,67,127
95995,note_on,1,0,0,,10,,,69,127
96148,note_off,153,0,0,,10,,,69,127
96149,note_on,1,0,0,,6,,,66,127
96264,note_off,115,0,0,,6,,,66,127
96302,note_off,38,0,0,,2,,,50,127
96303,note_on,1,0,0,,7,,,55,127
96303,note_on,0,0,0,,2,,,86,127
96379,note_off,76,0,0,,2,,,86,127
96380,note_on,1,0,0,,4,,,88,127
96456,note_off,76,0,0,,4,,,88,127
96457,note_on,1,0,0,,2,,,86,127
96533,note_off,76,0,0,,2,,,86,127
96534,note_on,1,0,0,,0,,,84,127
96610,note_off,76,0,0,,0,,,84,127
96611,note_on,1,0,0,,12,,,83,127
96687,note_off,76,0,0,,12,,,83,127
96688,note_on,1,0,0,,10,,,81,127
96764,note_off,76,0,0,,10,,,81,127
96764,note_off,0,0,0,,7,,,55,127
96765,note_on,1,0,0,,12,,,59,127
96765,note_on,0,0,0,,7,,,79,127
96841,note_off,76,0,0,,7,,,79,127
96842,note_on,1,0,0,,10,,,81,127
96918,note_off,76,0,0,,10,,,81,127
96919,note_on,1,0,0,,7,,,79,127
96995,note_off,76,0,0,,7,,,79,127
96996,note_on,1,0,0,,6,,,78,127
97072,note_off,76,0,0,,6,,,78,127
97073,note_on,1,0,0,,4,,,76,127
97149,note_off,76,0,0,,4,,,76,127
97150,note_on,1,0,0,,2,,,74,127
97226,note_off,76,0,0,,2,,,74,127
97226,note_off,0,0,0,,12,,,59,127
97227,note_on,1,0,0,,0,,,60,127
97227,note_on,0,0,0,,4,,,76,127
97303,note_off,76,0,0,,4,,,76,127
97304,note_on,1,0,0,,6,,,78,127
97380,note_off,76,0,0,,6,,,78,127
97381,note_on,1,0,0,,4,,,76,127
97457,note_off,76,0,0,,4,,,76,127
97458,note_on,1,0,0,,2,,,74,127
97534,note_off,76,0,0,,2,,,74,127
97535,note_on,1,0,0,,0,,,72,127
97611,note_off,76,0,0,,0,,,72,127
97612,note_on,1,0,0,,12,,,71,127
97688,note_off,76,0,0,,12,,,71,127
97688,note_off,0,0,0,,0,,,60,127
97689,note_on,1,0,0,,2,,,62,127
97689,note_on,0,0,0,,0,,,72,127
97755,note_off,66,0,0,,0,,,72,127
97755,note_on,0,0,0,,2,,,74,127
97821,note_off,66,0,0,,2,,,74,127
97822,note_on,1,0,0,,0,,,72,127
97888,note_off,66,0,0,,0,,,72,127
97888,note_on,0,0,0,,12,,,71,127
97954,note_off,66,0,0,,12,,,71,127
97954,note_on,0,0,0,,10,,,69,127
98020,note_off,66,0,0,,10,,,69,127
98020,note_on,0,0,0,,7,,,67,127
98086,note_off,66,0,0,,7,,,67,127
98087,note_on,1,0,0,,6,,,66,127
98152,note_off,65,0,0,,2,,,62,127
98153,note_off,1,0,0,,6,,,66,127
98153,note_on,0,0,0,,7,,,55,127
98153,note_on,0,0,0,,2,,,86,127
98229,note_off,76,0,0,,2,,,86,127
98230,note_on,1,0,0,,4,,,88,127
98306,note_off,76,0,0,,4,,,88,127
98307,note_on,1,0,0,,2,,,86,127
98383,note_off,76,0,0,,2,,,86,127
98384,note_on,1,0,0,,0,,,84,127
98460,note_off,76,0,0,,0,,,84,127
98461,note_on,1,0,0,,12,,,83,127
98537,note_off,76,0,0,,12,,,83,127
98538,note_on,1,0,0,,10,,,81,127
98614,note_off,76,0,0,,10,,,81,127
98614,note_off,0,0,0,,7,,,55,127
98615,note_on,1,0,0,,12,,,59,127
98615,note_on,0,0,0,,12,,,83,127
98691,note_off,76,0,0,,12,,,83,127
98692,note_on,1,0,0,,0,,,84,127
98768,note_off,76,0,0,,0,,,84,127
98769,note_on,1,0,0,,12,,,83,127
98845,note_off,76,0,0,,12,,,83,127
98846,note_on,1,0,0,,10,,,81,127
98922,note_off,76,0,0,,10,,,81,127
98923,note_on,1,0,0,,7,,,79,127
98999,note_off,76,0,0,,7,,,79,127
99000,note_on,1,0,0,,6,,,78,127
99076,note_off,76,0,0,,6,,,78,127
99076,note_off,0,0,0,,12,,,59,127
99077,note_on,1,0,0,,0,,,60,127
99077,note_on,0,0,0,,4,,,76,127
99153,note_off,76,0,0,,4,,,76,127
99154,note_on,1,0,0,,6,,,78,127
99230,note_off,76,0,0,,6,,,78,127
99231,note_on,1,0,0,,4,,,76,127
99307,note_off,76,0,0,,4,,,76,127
99308,note_on,1,0,0,,2,,,74,127
99384,note_off,76,0,0,,2,,,74,127
99385,note_on,1,0,0,,0,,,72,127
99461,note_off,76,0,0,,0,,,72,127
99462,note_on,1,0,0,,12,,,71,127
99538,note_off,76,0,0,,12,,,71,127
99538,note_off,0,0,0,,0,,,60,127
99539,note_on,1,0,0,,2,,,62,127
99539,note_on,0,0,0,,0,,,72,127
99605,note_off,66,0,0,,0,,,72,127
99605,note_on,0,0,0,,2,,,74,127
99671,note_off,66,0,0,,2,,,74,127
99672,note_on,1,0,0,,0,,,72,127
99738,note_off,66,0,0,,0,,,72,127
99738,note_on,0,0,0,,12,,,71,127
99804,note_off,66,0,0,,12,,,71,127
99804,note_on,0,0,0,,10,,,69,127
99870,note_off,66,0,0,,10,,,69,127
99870,note_on,0,0,0,,7,,,67,127
99936,note_off,66,0,0,,7,,,67,127
99937,note_on,1,0,0,,6,,,66,127
100002,note_off,65,0,0,,2,,,62,127
100003,note_off,1,0,0,,6,,,66,127
100003,note_on,0,0,0,,7,,,43,127
100003,note_on,0,0,0,,2,,,74,127
100079,note_off,76,0,0,,2,,,74,127
100080,note_on,1,0,0,,4,,,76,127
100156,note_off,76,0,0,,4,,,76,127
100157,note_on,1,0,0,,2,,,74,127
100233,note_off,76,0,0,,2,,,74,127
100234,note_on,1,0,0,,0,,,72,127
100310,note_off,76,0,0,,0,,,72,127
100311,note_on,1,0,0,,12,,,71,127
100387,note_off,76,0,0,,12,,,71,127
100388,note_on,1,0,0,,10,,,69,127
100464,note_off,76,0,0,,10,,,69,127
100464,note_off,0,0,0,,7,,,43,127
100465,note_on,1,0,0,,12,,,47,127
100465,note_on,0,0,0,,7,,,67,127
100541,note_off,76,0,0,,7,,,67,127
100542,note_on,1,0,0,,10,,,69,127
100618,note_off,76,0,0,,10,,,69,127
100619,note_on,1,0,0,,7,,,67,127
100695,note_off,76,0,0,,7,,,67,127
100696,note_on,1,0,0,,6,,,66,127
100772,note_off,76,0,0,,6,,,66,127
100773,note_on,1,0,0,,4,,,64,127
100849,note_off,76,0,0,,4,,,64,127
100850,note_on,1,0,0,,2,,,62,127
100926,note_off,76,0,0,,2,,,62,127
100926,note_off,0,0,0,,12,,,47,127
100927,note_on,1,0,0,,0,,,48,127
100927,note_on,0,0,0,,4,,,64,127
101003,note_off,76,0,0,,4,,,64,127
101004,note_on,1,0,0,,6,,,66,127
101080,note_off,76,0,0,,6,,,66,127
101081,note_on,1,0,0,,4,,,64,127
101157,note_off,76,0,0,,4,,,64,127
101158,note_on,1,0,0,,2,,,62,127
101234,note_off,76,0,0,,2,,,62,127
101235,note_on,1,0,0,,0,,,60,127
101311,note_off,76,0,0,,0,,,60,127
101312,note_on,1,0,0,,12,,,59,127
101388,note_off,76,0,0,,12,,,59,127
101388,note_off,0,0,0,,0,,,48,127
101389,note_on,1,0,0,,2,,,50,127
101389,note_on,0,0,0,,0,,,60,127
101455,note_off,66,0,0,,0,,,60,127
101455,note_on,0,0,0,,2,,,62,127
101521,note_off,66,0,0,,2,,,62,127
101522,note_on,1,0,0,,0,,,60,127
101588,note_off,66,0,0,,0,,,60,127
101588,note_on,0,0,0,,12,,,59,127
101654,note_off,66,0,0,,12,,,59,127
101654,note_on,0,0,0,,10,,,57,127
101720,note_off,66,0,0,,10,,,57,127
101720,note_on,0,0,0,,7,,,55,127
101786,note_off,66,0,0,,7,,,55,127
101787,note_on,1,0,0,,6,,,54,127
101852,note_off,65,0,0,,2,,,50,127
101853,note_off,1,0,0,,6,,,54,127
101853,note_on,0,0,0,,7,,,43,127
101853,note_on,0,0,0,,2,,,74,127
101929,note_off,76,0,0,,2,,,74,127
101930,note_on,1,0,0,,4,,,76,127
102006,note_off,76,0,0,,4,,,76,127
102007,note_on,1,0,0,,2,,,74,127
102083,note_off,76,0,0,,2,,,74,127
102084,note_on,1,0,0,,0,,,72,127
102160,note_off,76,0,0,,0,,,72,127
102161,note_on,1,0,0,,12,,,71,127
102237,note_off,76,0,0,,12,,,71,127
102238,note_on,1,0,0,,10,,,69,127
102314,note_off,76,0,0,,10,,,69,127
102314,note_off,0,0,0,,7,,,43,127
102315,note_on,1,0,0,,12,,,47,127
102315,note_on,0,0,0,,7,,,67,127
102391,note_off,76,0,0,,7,,,67,127
102392,note_on,1,0,0,,10,,,69,127
102468,note_off,76,0,0,,10,,,69,127
102469,note_on,1,0,0,,7,,,67,127
102545,note_off,76,0,0,,7,,,67,127
102546,note_on,1,0,0,,6,,,66,127
102622,note_off,76,0,0,,6,,,66,127
102623,note_on,1,0,0,,4,,,64,127
102699,note_off,76,0,0,,4,,,64,127
102700,note_on,1,0,0,,2,,,62,127
102776,note_off,76,0,0,,2,,,62,127
102776,note_off,0,0,0,,12,,,47,127
102777,note_on,1,0,0,,0,,,48,127
102777,note_on,0,0,0,,4,,,64,127
102853,note_off,76,0,0,,4,,,64,127
102854,note_on,1,0,0,,6,,,66,127
102930,note_off,76,0,0,,6,,,66,127
102931,note_on,1,0,0,,4,,,64,127
103007,note_off,76,0,0,,4,,,64,127
103008,note_on,1,0,0,,2,,,62,127
103084,note_off,76,0,0,,2,,,62,127
103085,note_on,1,0,0,,0,,,60,127
103161,note_off,76,0,0,,0,,,60,127
103162,note_on,1,0,0,,12,,,59,127
103238,note_off,76,0,0,,12,,,59,127
103238,note_off,0,0,0,,0,,,48,127
103239,note_on,1,0,0,,2,,,38,127
103239,note_on,0,0,0,,2,,,50,127
103239,note_on,0,0,0,,0,,,60,127
103305,note_off,66,0,0,,0,,,60,127
103305,note_on,0,0,0,,2,,,62,127
103371,note_off,66,0,0,,2,,,62,127
103372,note_on,1,0,0,,0,,,60,127
103438,note_off,66,0,0,,0,,,60,127
103438,note_on,0,0,0,,12,,,59,127
103504,note_off,66,0,0,,12,,,59,127
103504,note_on,0,0,0,,10,,,57,127
103570,note_off,66,0,0,,10,,,57,127
103570,note_on,0,0,0,,7,,,55,127
103636,note_off,66,0,0,,7,,,55,127
103637,note_on,1,0,0,,6,,,54,127
103709,note_off,72,0,0,,6,,,54,127
103711,note_off,2,0,0,,2,,,50,127
103711,note_off,0,0,0,,2,,,38,127
103718,note_on,7,0,0,,7,,,43,127
103718,note_on,0,0,0,,7,,,55,127
103718,note_on,0,0,0,,7,,,31,127
105700,note_off,1982,0,0,,7,,,31,127
105700,note_off,0,0,0,,7,,,55,127
105700,note_off,0,0,0,,7,,,43,127
110592,end_of_track,4892,1,0,,,,,,
