tick,type,time,meta,track,program,channel,pitch,tempo,note,velocity
0,copyright,0,1,0,,,,,,
0,program_change,0,0,0,6,0,,,,
0,pitchwheel,0,0,0,,0,0,,,
0,program_change,0,0,0,6,1,,,,
0,pitchwheel,0,0,0,,1,-590,,,
0,program_change,0,0,0,6,2,,,,
0,pitchwheel,0,0,0,,2,-272,,,
0,program_change,0,0,0,6,3,,,,
0,pitchwheel,0,0,0,,3,-353,,,
0,program_change,0,0,0,6,4,,,,
0,pitchwheel,0,0,0,,4,-560,,,
0,program_change,0,0,0,6,5,,,,
0,pitchwheel,0,0,0,,5,-80,,,
0,program_change,0,0,0,6,6,,,,
0,pitchwheel,0,0,0,,6,-625,,,
0,program_change,0,0,0,6,7,,,,
0,pitchwheel,0,0,0,,7,-130,,,
0,program_change,0,0,0,6,8,,,,
0,pitchwheel,0,0,0,,8,-512,,,
0,program_change,0,0,0,6,10,,,,
0,pitchwheel,0,0,0,,10,-464,,,
0,program_change,0,0,0,6,11,,,,
0,pitchwheel,0,0,0,,11,-208,,,
0,program_change,0,0,0,6,12,,,,
0,pitchwheel,0,0,0,,12,-553,,,
0,set_tempo,0,1,0,,,,500000,,
199,note_on,199,0,0,,2,,,62,127
389,note_off,190,0,0,,2,,,62,127
397,note_on,8,0,0,,2,,,62,127
587,note_off,190,0,0,,2,,,62,127
595,note_on,8,0,0,,2,,,62,127
785,note_off,190,0,0,,2,,,62,127
793,note_on,8,0,0,,2,,,62,127
793,note_on,0,0,0,,6,,,66,127
983,note_off,190,0,0,,6,,,66,127
983,note_off,0,0,0,,2,,,62,127
991,note_on,8,0,0,,2,,,62,127
991,note_on,0,0,0,,6,,,66,127
1181,note_off,190,0,0,,6,,,66,127
1181,note_off,0,0,0,,2,,,62,127
1189,note_on,8,0,0,,6,,,66,127
1189,note_on,0,0,0,,2,,,62,127
1379,note_off,190,0,0,,2,,,62,127
1379,note_off,0,0,0,,6,,,66,127
1387,note_on,8,0,0,,6,,,66,127
1387,note_on,0,0,0,,2,,,74,127
1577,note_off,190,0,0,,2,,,74,127
1577,note_off,0,0,0,,6,,,66,127
1585,note_on,8,0,0,,6,,,66,127
1585,note_on,0,0,0,,2,,,74,127
1775,note_off,190,0,0,,2,,,74,127
1775,note_off,0,0,0,,6,,,66,127
1783,note_on,8,0,0,,6,,,66,127
1783,note_on,0,0,0,,2,,,74,127
1973,note_off,190,0,0,,2,,,74,127
1973,note_off,0,0,0,,6,,,66,127
1981,note_on,8,0,0,,10,,,69,127
1981,note_on,0,0,0,,6,,,78,127
2171,note_off,190,0,0,,6,,,78,127
2171,note_off,0,0,0,,10,,,69,127
2179,note_on,8,0,0,,10,,,69,127
2179,note_on,0,0,0,,6,,,78,127
2369,note_off,190,0,0,,6,,,78,127
2369,note_off,0,0,0,,10,,,69,127
2377,note_on,8,0,0,,10,,,69,127
2377,note_on,0,0,0,,6,,,78,127
2567,note_off,190,0,0,,6,,,78,127
2567,note_off,0,0,0,,10,,,69,127
2575,note_on,8,0,0,,6,,,78,127
2575,note_on,0,0,0,,10,,,81,127
2765,note_off,190,0,0,,10,,,81,127
2765,note_off,0,0,0,,6,,,78,127
2773,note_on,8,0,0,,6,,,78,127
2773,note_on,0,0,0,,10,,,81,127
2963,note_off,190,0,0,,10,,,81,127
2963,note_off,0,0,0,,6,,,78,127
2971,note_on,8,0,0,,6,,,78,127
2971,note_on,0,0,0,,10,,,81,127
3161,note_off,190,0,0,,10,,,81,127
3161,note_off,0,0,0,,6,,,78,127
3169,note_on,8,0,0,,7,,,79,127
3169,note_on,0,0,0,,4,,,76,127
3359,note_off,190,0,0,,4,,,76,127
3359,note_off,0,0,0,,7,,,79,127
3367,note_on,8,0,0,,2,,,74,127
3367,note_on,0,0,0,,6,,,78,127
3557,note_off,190,0,0,,6,,,78,127
3557,note_off,0,0,0,,2,,,74,127
3565,note_on,8,0,0,,10,,,69,127
3565,note_on,0,0,0,,6,,,78,127
3606,note_off,41,0,0,,6,,,78,127
3614,note_on,8,0,0,,4,,,76,127
3655,note_off,41,0,0,,4,,,76,127
3663,note_on,8,0,0,,6,,,78,127
3704,note_off,41,0,0,,6,,,78,127
3712,note_on,8,0,0,,4,,,76,127
3762,note_on,50,0,0,,10,,,57,127
3762,note_on,0,0,0,,10,,,45,127
3952,note_off,190,0,0,,10,,,45,127
3952,note_off,0,0,0,,10,,,57,127
3960,note_on,8,0,0,,10,,,45,127
3960,note_on,0,0,0,,10,,,57,127
4150,note_off,190,0,0,,10,,,57,127
4150,note_off,0,0,0,,10,,,45,127
4157,note_off,7,0,0,,10,,,69,127
4158,note_on,1,0,0,,10,,,45,127
4158,note_on,0,0,0,,10,,,57,127
4216,note_off,58,0,0,,4,,,76,127
4348,note_off,132,0,0,,10,,,57,127
4348,note_off,0,0,0,,10,,,45,127
4356,note_on,8,0,0,,7,,,79,127
4356,note_on,0,0,0,,1,,,49,127
4356,note_on,0,0,0,,7,,,55,127
4546,note_off,190,0,0,,7,,,55,127
4546,note_off,0,0,0,,1,,,49,127
4546,note_off,0,0,0,,7,,,79,127
4554,note_on,8,0,0,,4,,,76,127
4554,note_on,0,0,0,,7,,,55,127
4554,note_on,0,0,0,,1,,,49,127
4744,note_off,190,0,0,,1,,,49,127
4744,note_off,0,0,0,,7,,,55,127
4744,note_off,0,0,0,,4,,,76,127
4752,note_on,8,0,0,,2,,,74,127
4752,note_on,0,0,0,,7,,,55,127
4752,note_on,0,0,0,,1,,,49,127
4793,note_off,41,0,0,,2,,,74,127
4801,note_on,8,0,0,,1,,,73,127
4842,note_off,41,0,0,,1,,,73,127
4850,note_on,8,0,0,,2,,,74,127
4891,note_off,41,0,0,,2,,,74,127
4899,note_on,8,0,0,,1,,,73,127
4940,note_off,41,0,0,,1,,,49,127
4940,note_off,0,0,0,,7,,,55,127
4948,note_on,8,0,0,,4,,,52,127
4948,note_on,0,0,0,,1,,,61,127
5138,note_off,190,0,0,,1,,,61,127
5138,note_off,0,0,0,,4,,,52,127
5146,note_on,8,0,0,,4,,,52,127
5146,note_on,0,0,0,,1,,,61,127
5336,note_off,190,0,0,,1,,,61,127
5336,note_off,0,0,0,,4,,,52,127
5344,note_on,8,0,0,,1,,,61,127
5344,note_on,0,0,0,,4,,,52,127
5402,note_off,58,0,0,,1,,,73,127
5534,note_off,132,0,0,,4,,,52,127
5534,note_off,0,0,0,,1,,,61,127
5542,note_on,8,0,0,,7,,,79,127
5542,note_on,0,0,0,,7,,,55,127
5542,note_on,0,0,0,,4,,,64,127
5732,note_off,190,0,0,,4,,,64,127
5732,note_off,0,0,0,,7,,,55,127
5732,note_off,0,0,0,,7,,,79,127
5740,note_on,8,0,0,,4,,,76,127
5740,note_on,0,0,0,,7,,,55,127
5740,note_on,0,0,0,,4,,,64,127
5930,note_off,190,0,0,,4,,,64,127
5930,note_off,0,0,0,,7,,,55,127
5930,note_off,0,0,0,,4,,,76,127
5938,note_on,8,0,0,,2,,,74,127
5938,note_on,0,0,0,,4,,,64,127
5938,note_on,0,0,0,,7,,,55,127
5979,note_off,41,0,0,,2,,,74,127
5987,note_on,8,0,0,,1,,,73,127
6028,note_off,41,0,0,,1,,,73,127
6036,note_on,8,0,0,,2,,,74,127
6077,note_off,41,0,0,,2,,,74,127
6085,note_on,8,0,0,,1,,,73,127
6126,note_off,41,0,0,,7,,,55,127
6126,note_off,0,0,0,,4,,,64,127
6134,note_on,8,0,0,,7,,,67,127
6134,note_on,0,0,0,,1,,,61,127
6324,note_off,190,0,0,,1,,,61,127
6324,note_off,0,0,0,,7,,,67,127
6332,note_on,8,0,0,,7,,,67,127
6332,note_on,0,0,0,,1,,,61,127
6522,note_off,190,0,0,,1,,,61,127
6522,note_off,0,0,0,,7,,,67,127
6530,note_on,8,0,0,,1,,,61,127
6530,note_on,0,0,0,,7,,,67,127
6588,note_off,58,0,0,,1,,,73,127
6720,note_off,132,0,0,,7,,,67,127
6728,note_on,8,0,0,,2,,,74,127
6728,note_on,0,0,0,,6,,,66,127
6778,note_off,50,0,0,,1,,,61,127
6919,note_off,141,0,0,,6,,,66,127
6919,note_off,0,0,0,,2,,,74,127
6927,note_on,8,0,0,,4,,,76,127
6927,note_on,0,0,0,,4,,,64,127
7117,note_off,190,0,0,,4,,,64,127
7117,note_off,0,0,0,,4,,,76,127
7125,note_on,8,0,0,,10,,,81,127
7125,note_on,0,0,0,,6,,,66,127
7125,note_on,0,0,0,,2,,,62,127
7315,note_off,190,0,0,,2,,,62,127
7315,note_off,0,0,0,,6,,,66,127
7315,note_off,0,0,0,,10,,,81,127
7323,note_on,8,0,0,,7,,,79,127
7323,note_on,0,0,0,,4,,,64,127
7513,note_off,190,0,0,,4,,,64,127
7513,note_off,0,0,0,,7,,,79,127
7521,note_on,8,0,0,,6,,,78,127
7521,note_on,0,0,0,,2,,,62,127
7711,note_off,190,0,0,,2,,,62,127
7711,note_off,0,0,0,,6,,,78,127
7719,note_on,8,0,0,,10,,,81,127
7719,note_on,0,0,0,,4,,,76,127
7719,note_on,0,0,0,,7,,,79,127
7719,note_on,0,0,0,,7,,,55,127
7909,note_off,190,0,0,,7,,,55,127
7909,note_off,0,0,0,,7,,,79,127
7909,note_off,0,0,0,,4,,,76,127
7909,note_off,0,0,0,,10,,,81,127
7917,note_on,8,0,0,,2,,,74,127
7917,note_on,0,0,0,,6,,,78,127
7917,note_on,0,0,0,,10,,,57,127
8107,note_off,190,0,0,,10,,,57,127
8107,note_off,0,0,0,,6,,,78,127
8107,note_off,0,0,0,,2,,,74,127
8115,note_on,8,0,0,,1,,,73,127
8115,note_on,0,0,0,,4,,,76,127
8115,note_on,0,0,0,,10,,,45,127
8305,note_off,190,0,0,,10,,,45,127
8305,note_off,0,0,0,,4,,,76,127
8305,note_off,0,0,0,,1,,,73,127
8313,note_on,8,0,0,,2,,,74,127
8313,note_on,0,0,0,,2,,,50,127
8503,note_off,190,0,0,,2,,,50,127
8503,note_off,0,0,0,,2,,,74,127
8511,note_on,8,0,0,,6,,,78,127
8511,note_on,0,0,0,,6,,,66,127
8610,note_on,99,0,0,,4,,,64,127
8618,note_off,8,0,0,,6,,,66,127
8701,note_off,83,0,0,,6,,,78,127
8709,note_on,8,0,0,,6,,,78,127
8709,note_on,0,0,0,,2,,,62,127
8717,note_off,8,0,0,,4,,,64,127
8808,note_on,91,0,0,,1,,,61,127
8816,note_off,8,0,0,,2,,,62,127
8899,note_off,83,0,0,,6,,,78,127
8907,note_on,8,0,0,,6,,,78,127
8907,note_on,0,0,0,,2,,,62,127
8915,note_off,8,0,0,,1,,,61,127
9006,note_on,91,0,0,,4,,,64,127
9014,note_off,8,0,0,,2,,,62,127
9097,note_off,83,0,0,,6,,,78,127
9105,note_on,8,0,0,,6,,,78,127
9105,note_on,0,0,0,,2,,,62,127
9113,note_off,8,0,0,,4,,,64,127
9204,note_on,91,0,0,,1,,,61,127
9212,note_off,8,0,0,,2,,,62,127
9295,note_off,83,0,0,,6,,,78,127
9303,note_on,8,0,0,,6,,,78,127
9303,note_on,0,0,0,,12,,,59,127
9311,note_off,8,0,0,,1,,,61,127
9402,note_on,91,0,0,,11,,,58,127
9410,note_off,8,0,0,,12,,,59,127
9493,note_off,83,0,0,,6,,,78,127
9501,note_on,8,0,0,,6,,,78,127
9501,note_on,0,0,0,,12,,,59,127
9509,note_off,8,0,0,,11,,,58,127
9600,note_on,91,0,0,,1,,,61,127
9608,note_off,8,0,0,,12,,,59,127
9691,note_off,83,0,0,,6,,,78,127
9699,note_on,8,0,0,,6,,,78,127
9699,note_on,0,0,0,,12,,,59,127
9707,note_off,8,0,0,,1,,,61,127
9798,note_on,91,0,0,,10,,,57,127
9806,note_off,8,0,0,,12,,,59,127
9889,note_off,83,0,0,,6,,,78,127
9897,note_on,8,0,0,,6,,,78,127
9897,note_on,0,0,0,,7,,,55,127
9905,note_off,8,0,0,,10,,,57,127
9996,note_on,91,0,0,,6,,,54,127
10004,note_off,8,0,0,,7,,,55,127
10087,note_off,83,0,0,,6,,,78,127
10095,note_on,8,0,0,,7,,,79,127
10095,note_on,0,0,0,,10,,,81,127
10095,note_on,0,0,0,,4,,,52,127
10103,note_off,8,0,0,,6,,,54,127
10285,note_off,182,0,0,,4,,,52,127
10285,note_off,0,0,0,,10,,,81,127
10285,note_off,0,0,0,,7,,,79,127
10293,note_on,8,0,0,,6,,,78,127
10293,note_on,0,0,0,,6,,,54,127
10392,note_on,99,0,0,,4,,,76,127
10400,note_off,8,0,0,,6,,,78,127
10491,note_on,91,0,0,,2,,,74,127
10499,note_off,8,0,0,,4,,,76,127
10590,note_on,91,0,0,,1,,,73,127
10598,note_off,8,0,0,,2,,,74,127
10684,note_off,86,0,0,,6,,,54,127
10688,note_off,4,0,0,,1,,,73,127
10689,note_on,1,0,0,,12,,,71,127
10689,note_on,0,0,0,,12,,,59,127
10879,note_off,190,0,0,,12,,,59,127
10887,note_on,8,0,0,,6,,,78,127
10887,note_on,0,0,0,,12,,,59,127
11077,note_off,190,0,0,,12,,,59,127
11077,note_off,0,0,0,,6,,,78,127
11081,note_off,4,0,0,,12,,,71,127
11085,note_on,4,0,0,,12,,,71,127
11085,note_on,0,0,0,,12,,,59,127
11275,note_off,190,0,0,,12,,,59,127
11275,note_off,0,0,0,,12,,,71,127
11283,note_on,8,0,0,,10,,,69,127
11283,note_on,0,0,0,,12,,,71,127
11283,note_on,0,0,0,,12,,,59,127
11473,note_off,190,0,0,,12,,,59,127
11473,note_off,0,0,0,,12,,,71,127
11473,note_off,0,0,0,,10,,,69,127
11481,note_on,8,0,0,,8,,,68,127
11481,note_on,0,0,0,,12,,,59,127
11671,note_off,190,0,0,,12,,,59,127
11671,note_off,0,0,0,,8,,,68,127
11679,note_on,8,0,0,,10,,,69,127
11679,note_on,0,0,0,,12,,,59,127
11869,note_off,190,0,0,,12,,,59,127
11869,note_off,0,0,0,,10,,,69,127
11877,note_on,8,0,0,,8,,,68,127
11877,note_on,0,0,0,,0,,,60,127
12067,note_off,190,0,0,,0,,,60,127
12067,note_off,0,0,0,,8,,,68,127
12075,note_on,8,0,0,,10,,,81,127
12075,note_on,0,0,0,,0,,,60,127
12265,note_off,190,0,0,,0,,,60,127
12265,note_off,0,0,0,,10,,,81,127
12273,note_on,8,0,0,,8,,,80,127
12273,note_on,0,0,0,,0,,,60,127
12463,note_off,190,0,0,,0,,,60,127
12463,note_off,0,0,0,,8,,,80,127
12471,note_on,8,0,0,,6,,,78,127
12471,note_on,0,0,0,,8,,,80,127
12471,note_on,0,0,0,,10,,,69,127
12471,note_on,0,0,0,,0,,,60,127
12661,note_off,190,0,0,,0,,,60,127
12661,note_off,0,0,0,,10,,,69,127
12661,note_off,0,0,0,,8,,,80,127
12661,note_off,0,0,0,,6,,,78,127
12669,note_on,8,0,0,,5,,,77,127
12669,note_on,0,0,0,,10,,,69,127
12669,note_on,0,0,0,,0,,,60,127
12859,note_off,190,0,0,,0,,,60,127
12859,note_off,0,0,0,,10,,,69,127
12859,note_off,0,0,0,,5,,,77,127
12867,note_on,8,0,0,,6,,,78,127
12867,note_on,0,0,0,,10,,,69,127
12867,note_on,0,0,0,,0,,,60,127
13057,note_off,190,0,0,,0,,,60,127
13057,note_off,0,0,0,,10,,,69,127
13057,note_off,0,0,0,,6,,,78,127
13065,note_on,8,0,0,,5,,,77,127
13065,note_on,0,0,0,,8,,,68,127
13065,note_on,0,0,0,,1,,,61,127
13255,note_off,190,0,0,,1,,,61,127
13255,note_off,0,0,0,,8,,,68,127
13255,note_off,0,0,0,,5,,,77,127
13263,note_on,8,0,0,,5,,,77,127
13263,note_on,0,0,0,,8,,,80,127
13263,note_on,0,0,0,,1,,,73,127
13362,note_on,99,0,0,,12,,,71,127
13370,note_off,8,0,0,,1,,,73,127
13453,note_off,83,0,0,,8,,,80,127
13453,note_off,0,0,0,,5,,,77,127
13461,note_on,8,0,0,,5,,,77,127
13461,note_on,0,0,0,,8,,,80,127
13461,note_on,0,0,0,,10,,,69,127
13469,note_off,8,0,0,,12,,,71,127
13560,note_on,91,0,0,,8,,,68,127
13568,note_off,8,0,0,,10,,,69,127
13651,note_off,83,0,0,,8,,,80,127
13651,note_off,0,0,0,,5,,,77,127
13659,note_on,8,0,0,,10,,,81,127
13659,note_on,0,0,0,,6,,,78,127
13659,note_on,0,0,0,,6,,,66,127
13667,note_off,8,0,0,,8,,,68,127
13758,note_on,91,0,0,,4,,,64,127
13766,note_off,8,0,0,,6,,,66,127
13849,note_off,83,0,0,,6,,,78,127
13849,note_off,0,0,0,,10,,,81,127
13857,note_on,8,0,0,,10,,,81,127
13857,note_on,0,0,0,,6,,,78,127
13857,note_on,0,0,0,,3,,,63,127
13865,note_off,8,0,0,,4,,,64,127
13956,note_on,91,0,0,,1,,,61,127
13964,note_off,8,0,0,,3,,,63,127
14047,note_off,83,0,0,,6,,,78,127
14047,note_off,0,0,0,,10,,,81,127
14055,note_on,8,0,0,,6,,,78,127
14055,note_on,0,0,0,,10,,,81,127
14055,note_on,0,0,0,,0,,,60,127
14063,note_off,8,0,0,,1,,,61,127
14154,note_on,91,0,0,,11,,,58,127
14162,note_off,8,0,0,,0,,,60,127
14245,note_off,83,0,0,,10,,,81,127
14245,note_off,0,0,0,,6,,,78,127
14253,note_on,8,0,0,,10,,,81,127
14253,note_on,0,0,0,,6,,,78,127
14253,note_on,0,0,0,,8,,,56,127
14261,note_off,8,0,0,,11,,,58,127
14443,note_off,182,0,0,,8,,,56,127
14443,note_off,0,0,0,,6,,,78,127
14443,note_off,0,0,0,,10,,,81,127
14451,note_on,8,0,0,,4,,,76,127
14451,note_on,0,0,0,,8,,,80,127
14451,note_on,0,0,0,,8,,,56,127
14641,note_off,190,0,0,,8,,,56,127
14641,note_off,0,0,0,,8,,,80,127
14641,note_off,0,0,0,,4,,,76,127
14649,note_on,8,0,0,,6,,,78,127
14649,note_on,0,0,0,,3,,,75,127
14649,note_on,0,0,0,,8,,,56,127
14839,note_off,190,0,0,,8,,,56,127
14839,note_off,0,0,0,,3,,,75,127
14839,note_off,0,0,0,,6,,,78,127
14847,note_on,8,0,0,,8,,,80,127
14847,note_on,0,0,0,,3,,,75,127
14847,note_on,0,0,0,,6,,,78,127
14847,note_on,0,0,0,,8,,,56,127
15037,note_off,190,0,0,,8,,,56,127
15037,note_off,0,0,0,,6,,,78,127
15037,note_off,0,0,0,,3,,,75,127
15037,note_off,0,0,0,,8,,,80,127
15045,note_on,8,0,0,,4,,,76,127
15045,note_on,0,0,0,,1,,,73,127
15045,note_on,0,0,0,,8,,,56,127
15235,note_off,190,0,0,,8,,,56,127
15235,note_off,0,0,0,,1,,,73,127
15235,note_off,0,0,0,,4,,,76,127
15243,note_on,8,0,0,,3,,,75,127
15243,note_on,0,0,0,,0,,,72,127
15243,note_on,0,0,0,,8,,,56,127
15433,note_off,190,0,0,,8,,,56,127
15433,note_off,0,0,0,,0,,,72,127
15433,note_off,0,0,0,,3,,,75,127
15441,note_on,8,0,0,,1,,,73,127
15441,note_on,0,0,0,,4,,,76,127
15441,note_on,0,0,0,,1,,,61,127
15631,note_off,190,0,0,,1,,,61,127
15631,note_off,0,0,0,,4,,,76,127
15631,note_off,0,0,0,,1,,,73,127
15639,note_on,8,0,0,,1,,,73,127
15639,note_on,0,0,0,,4,,,76,127
15639,note_on,0,0,0,,8,,,68,127
15738,note_on,99,0,0,,6,,,66,127
15746,note_off,8,0,0,,8,,,68,127
15829,note_off,83,0,0,,4,,,76,127
15829,note_off,0,0,0,,1,,,73,127
15837,note_on,8,0,0,,1,,,73,127
15837,note_on,0,0,0,,4,,,76,127
15837,note_on,0,0,0,,4,,,64,127
15845,note_off,8,0,0,,6,,,66,127
15936,note_on,91,0,0,,3,,,63,127
15944,note_off,8,0,0,,4,,,64,127
16027,note_off,83,0,0,,4,,,76,127
16027,note_off,0,0,0,,1,,,73,127
16035,note_on,8,0,0,,1,,,73,127
16035,note_on,0,0,0,,4,,,76,127
16035,note_on,0,0,0,,1,,,61,127
16043,note_off,8,0,0,,3,,,63,127
16134,note_on,91,0,0,,12,,,59,127
16142,note_off,8,0,0,,1,,,61,127
16225,note_off,83,0,0,,4,,,76,127
16225,note_off,0,0,0,,1,,,73,127
16233,note_on,8,0,0,,1,,,73,127
16233,note_on,0,0,0,,4,,,76,127
16233,note_on,0,0,0,,11,,,58,127
16241,note_off,8,0,0,,12,,,59,127
16332,note_on,91,0,0,,8,,,56,127
16340,note_off,8,0,0,,11,,,58,127
16423,note_off,83,0,0,,4,,,76,127
16423,note_off,0,0,0,,1,,,73,127
16431,note_on,8,0,0,,1,,,73,127
16431,note_on,0,0,0,,4,,,76,127
16431,note_on,0,0,0,,6,,,54,127
16439,note_off,8,0,0,,8,,,56,127
16530,note_on,91,0,0,,4,,,52,127
16538,note_off,8,0,0,,6,,,54,127
16621,note_off,83,0,0,,4,,,76,127
16621,note_off,0,0,0,,1,,,73,127
16629,note_on,8,0,0,,1,,,73,127
16629,note_on,0,0,0,,4,,,76,127
16629,note_on,0,0,0,,3,,,51,127
16637,note_off,8,0,0,,4,,,52,127
16728,note_on,91,0,0,,1,,,49,127
16736,note_off,8,0,0,,3,,,51,127
16819,note_off,83,0,0,,4,,,76,127
16819,note_off,0,0,0,,1,,,73,127
16827,note_on,8,0,0,,1,,,73,127
16827,note_on,0,0,0,,4,,,76,127
16827,note_on,0,0,0,,12,,,47,127
16835,note_off,8,0,0,,1,,,49,127
16926,note_on,91,0,0,,11,,,46,127
16934,note_off,8,0,0,,12,,,47,127
17017,note_off,83,0,0,,4,,,76,127
17017,note_off,0,0,0,,1,,,73,127
17025,note_on,8,0,0,,4,,,76,127
17025,note_on,0,0,0,,1,,,73,127
17025,note_on,0,0,0,,8,,,44,127
17033,note_off,8,0,0,,11,,,46,127
17124,note_on,91,0,0,,6,,,42,127
17132,note_off,8,0,0,,8,,,44,127
17215,note_off,83,0,0,,1,,,73,127
17215,note_off,0,0,0,,4,,,76,127
17217,note_off,2,0,0,,6,,,42,127
17223,note_on,6,0,0,,6,,,78,127
17223,note_on,0,0,0,,1,,,73,127
17223,note_on,0,0,0,,4,,,76,127
17223,note_on,0,0,0,,6,,,42,127
17413,note_off,190,0,0,,6,,,42,127
17413,note_off,0,0,0,,4,,,76,127
17413,note_off,0,0,0,,1,,,73,127
17413,note_off,0,0,0,,6,,,78,127
17421,note_on,8,0,0,,2,,,74,127
17421,note_on,0,0,0,,12,,,71,127
17421,note_on,0,0,0,,6,,,42,127
17611,note_off,190,0,0,,6,,,42,127
17611,note_off,0,0,0,,12,,,71,127
17611,note_off,0,0,0,,2,,,74,127
17619,note_on,8,0,0,,11,,,70,127
17619,note_on,0,0,0,,1,,,73,127
17619,note_on,0,0,0,,6,,,42,127
17809,note_off,190,0,0,,6,,,42,127
17809,note_off,0,0,0,,1,,,73,127
17809,note_off,0,0,0,,11,,,70,127
17817,note_on,8,0,0,,12,,,71,127
17817,note_on,0,0,0,,2,,,74,127
17817,note_on,0,0,0,,12,,,47,127
18007,note_off,190,0,0,,12,,,47,127
18007,note_off,0,0,0,,2,,,74,127
18007,note_off,0,0,0,,12,,,71,127
18015,note_on,8,0,0,,12,,,71,127
18015,note_on,0,0,0,,2,,,74,127
18015,note_on,0,0,0,,6,,,66,127
18114,note_on,99,0,0,,4,,,64,127
18122,note_off,8,0,0,,6,,,66,127
18205,note_off,83,0,0,,2,,,74,127
18205,note_off,0,0,0,,12,,,71,127
18213,note_on,8,0,0,,12,,,71,127
18213,note_on,0,0,0,,2,,,74,127
18213,note_on,0,0,0,,2,,,62,127
18221,note_off,8,0,0,,4,,,64,127
18312,note_on,91,0,0,,1,,,61,127
18320,note_off,8,0,0,,2,,,62,127
18403,note_off,83,0,0,,2,,,74,127
18403,note_off,0,0,0,,12,,,71,127
18411,note_on,8,0,0,,12,,,71,127
18411,note_on,0,0,0,,2,,,74,127
18411,note_on,0,0,0,,12,,,59,127
18419,note_off,8,0,0,,1,,,61,127
18510,note_on,91,0,0,,10,,,57,127
18518,note_off,8,0,0,,12,,,59,127
18601,note_off,83,0,0,,2,,,74,127
18601,note_off,0,0,0,,12,,,71,127
18609,note_on,8,0,0,,2,,,74,127
18609,note_on,0,0,0,,12,,,71,127
18609,note_on,0,0,0,,8,,,56,127
18617,note_off,8,0,0,,10,,,57,127
18708,note_on,91,0,0,,6,,,54,127
18716,note_off,8,0,0,,8,,,56,127
18799,note_off,83,0,0,,12,,,71,127
18799,note_off,0,0,0,,2,,,74,127
18807,note_on,8,0,0,,12,,,71,127
18807,note_on,0,0,0,,2,,,74,127
18807,note_on,0,0,0,,4,,,52,127
18815,note_off,8,0,0,,6,,,54,127
18906,note_on,91,0,0,,2,,,50,127
18914,note_off,8,0,0,,4,,,52,127
18997,note_off,83,0,0,,2,,,74,127
18997,note_off,0,0,0,,12,,,71,127
19005,note_on,8,0,0,,2,,,74,127
19005,note_on,0,0,0,,12,,,71,127
19005,note_on,0,0,0,,1,,,49,127
19013,note_off,8,0,0,,2,,,50,127
19104,note_on,91,0,0,,12,,,47,127
19112,note_off,8,0,0,,1,,,49,127
19195,note_off,83,0,0,,12,,,71,127
19195,note_off,0,0,0,,2,,,74,127
19203,note_on,8,0,0,,2,,,74,127
19203,note_on,0,0,0,,12,,,71,127
19203,note_on,0,0,0,,10,,,45,127
19211,note_off,8,0,0,,12,,,47,127
19302,note_on,91,0,0,,8,,,44,127
19310,note_off,8,0,0,,10,,,45,127
19393,note_off,83,0,0,,12,,,71,127
19393,note_off,0,0,0,,2,,,74,127
19401,note_on,8,0,0,,2,,,74,127
19401,note_on,0,0,0,,12,,,71,127
19401,note_on,0,0,0,,6,,,42,127
19409,note_off,8,0,0,,8,,,44,127
19500,note_on,91,0,0,,4,,,40,127
19508,note_off,8,0,0,,6,,,42,127
19591,note_off,83,0,0,,12,,,71,127
19591,note_off,0,0,0,,2,,,74,127
19593,note_off,2,0,0,,4,,,40,127
19599,note_on,6,0,0,,4,,,76,127
19599,note_on,0,0,0,,2,,,74,127
19599,note_on,0,0,0,,12,,,71,127
19599,note_on,0,0,0,,4,,,40,127
19789,note_off,190,0,0,,4,,,40,127
19789,note_off,0,0,0,,12,,,71,127
19789,note_off,0,0,0,,2,,,74,127
19789,note_off,0,0,0,,4,,,76,127
19797,note_on,8,0,0,,10,,,69,127
19797,note_on,0,0,0,,1,,,73,127
19797,note_on,0,0,0,,4,,,40,127
19987,note_off,190,0,0,,4,,,40,127
19987,note_off,0,0,0,,1,,,73,127
19987,note_off,0,0,0,,10,,,69,127
19995,note_on,8,0,0,,8,,,68,127
19995,note_on,0,0,0,,12,,,71,127
19995,note_on,0,0,0,,4,,,40,127
20185,note_off,190,0,0,,4,,,40,127
20185,note_off,0,0,0,,12,,,71,127
20185,note_off,0,0,0,,8,,,68,127
20193,note_on,8,0,0,,10,,,69,127
20193,note_on,0,0,0,,1,,,73,127
20193,note_on,0,0,0,,10,,,45,127
20383,note_off,190,0,0,,10,,,45,127
20383,note_off,0,0,0,,1,,,73,127
20383,note_off,0,0,0,,10,,,69,127
20391,note_on,8,0,0,,10,,,81,127
20391,note_on,0,0,0,,10,,,45,127
20490,note_on,99,0,0,,8,,,80,127
20498,note_off,8,0,0,,10,,,81,127
20581,note_off,83,0,0,,10,,,45,127
20589,note_on,8,0,0,,6,,,78,127
20589,note_on,0,0,0,,10,,,45,127
20597,note_off,8,0,0,,8,,,80,127
20688,note_on,91,0,0,,4,,,76,127
20696,note_off,8,0,0,,6,,,78,127
20779,note_off,83,0,0,,10,,,45,127
20787,note_on,8,0,0,,2,,,74,127
20787,note_on,0,0,0,,2,,,50,127
20795,note_off,8,0,0,,4,,,76,127
20886,note_on,91,0,0,,1,,,73,127
20894,note_off,8,0,0,,2,,,74,127
20977,note_off,83,0,0,,2,,,50,127
20985,note_on,8,0,0,,12,,,71,127
20985,note_on,0,0,0,,2,,,50,127
20993,note_off,8,0,0,,1,,,73,127
21084,note_on,91,0,0,,10,,,69,127
21092,note_off,8,0,0,,12,,,71,127
21175,note_off,83,0,0,,2,,,50,127
21183,note_on,8,0,0,,8,,,68,127
21183,note_on,0,0,0,,2,,,50,127
21191,note_off,8,0,0,,10,,,69,127
21282,note_on,91,0,0,,6,,,66,127
21290,note_off,8,0,0,,8,,,68,127
21373,note_off,83,0,0,,2,,,50,127
21381,note_on,8,0,0,,4,,,64,127
21381,note_on,0,0,0,,4,,,52,127
21389,note_off,8,0,0,,6,,,66,127
21480,note_on,91,0,0,,3,,,75,127
21488,note_off,8,0,0,,4,,,64,127
21578,note_off,90,0,0,,3,,,75,127
21579,note_on,1,0,0,,4,,,76,127
21673,note_off,94,0,0,,4,,,52,127
21678,note_on,5,0,0,,3,,,63,127
21776,note_off,98,0,0,,3,,,63,127
21777,note_on,1,0,0,,4,,,64,127
21827,note_off,50,0,0,,4,,,76,127
21877,note_on,50,0,0,,3,,,63,127
21885,note_off,8,0,0,,4,,,64,127
21975,note_off,90,0,0,,3,,,63,127
21976,note_on,1,0,0,,4,,,64,127
22075,note_on,99,0,0,,3,,,51,127
22173,note_off,98,0,0,,3,,,51,127
22174,note_on,1,0,0,,4,,,52,127
22224,note_off,50,0,0,,4,,,64,127
22274,note_on,50,0,0,,3,,,51,127
22282,note_off,8,0,0,,4,,,52,127
22372,note_off,90,0,0,,3,,,51,127
22373,note_on,1,0,0,,4,,,52,127
22472,note_on,99,0,0,,3,,,39,127
22570,note_off,98,0,0,,3,,,39,127
22571,note_on,1,0,0,,4,,,40,127
22621,note_off,50,0,0,,4,,,52,127
22671,note_on,50,0,0,,3,,,51,127
22769,note_off,98,0,0,,3,,,51,127
22770,note_on,1,0,0,,4,,,52,127
22820,note_off,50,0,0,,4,,,40,127
22870,note_on,50,0,0,,3,,,51,127
22878,note_off,8,0,0,,4,,,52,127
22968,note_off,90,0,0,,3,,,51,127
22969,note_on,1,0,0,,4,,,52,127
23068,note_on,99,0,0,,3,,,63,127
23166,note_off,98,0,0,,3,,,63,127
23167,note_on,1,0,0,,4,,,64,127
23217,note_off,50,0,0,,4,,,52,127
23267,note_on,50,0,0,,3,,,63,127
23275,note_off,8,0,0,,4,,,64,127
23365,note_off,90,0,0,,3,,,63,127
23366,note_on,1,0,0,,4,,,64,127
23465,note_on,99,0,0,,3,,,75,127
23563,note_off,98,0,0,,3,,,75,127
23564,note_on,1,0,0,,4,,,76,127
23658,note_off,94,0,0,,4,,,64,127
23663,note_off,5,0,0,,4,,,76,127
23663,note_on,0,0,0,,12,,,59,127
23762,note_on,99,0,0,,2,,,62,127
23770,note_off,8,0,0,,12,,,59,127
23795,note_on,25,0,0,,1,,,61,127
23803,note_off,8,0,0,,2,,,62,127
23828,note_on,25,0,0,,2,,,62,127
23836,note_off,8,0,0,,1,,,61,127
23861,note_on,25,0,0,,1,,,61,127
23869,note_off,8,0,0,,2,,,62,127
24257,note_off,388,0,0,,1,,,61,127
24357,note_on,100,0,0,,1,,,73,127
24357,note_on,0,0,0,,10,,,81,127
24456,note_on,99,0,0,,10,,,45,127
24547,note_off,91,0,0,,10,,,81,127
24547,note_off,0,0,0,,1,,,73,127
24555,note_on,8,0,0,,1,,,73,127
24555,note_on,0,0,0,,10,,,81,127
24555,note_on,0,0,0,,1,,,49,127
24563,note_off,8,0,0,,10,,,45,127
24654,note_on,91,0,0,,4,,,52,127
24662,note_off,8,0,0,,1,,,49,127
24745,note_off,83,0,0,,10,,,81,127
24745,note_off,0,0,0,,1,,,73,127
24753,note_on,8,0,0,,1,,,73,127
24753,note_on,0,0,0,,10,,,81,127
24753,note_on,0,0,0,,10,,,57,127
24761,note_off,8,0,0,,4,,,52,127
24852,note_on,91,0,0,,1,,,61,127
24860,note_off,8,0,0,,10,,,57,127
24943,note_off,83,0,0,,10,,,81,127
24943,note_off,0,0,0,,1,,,73,127
24951,note_on,8,0,0,,6,,,66,127
24951,note_on,0,0,0,,2,,,62,127
24959,note_off,8,0,0,,1,,,61,127
25050,note_on,91,0,0,,8,,,68,127
25058,note_off,8,0,0,,6,,,66,127
25141,note_off,83,0,0,,2,,,62,127
25149,note_on,8,0,0,,10,,,69,127
25149,note_on,0,0,0,,1,,,61,127
25157,note_off,8,0,0,,8,,,68,127
25248,note_on,91,0,0,,12,,,71,127
25256,note_off,8,0,0,,10,,,69,127
25339,note_off,83,0,0,,1,,,61,127
25347,note_on,8,0,0,,1,,,73,127
25347,note_on,0,0,0,,12,,,59,127
25355,note_off,8,0,0,,12,,,71,127
25446,note_on,91,0,0,,2,,,74,127
25454,note_off,8,0,0,,1,,,73,127
25522,note_off,68,0,0,,12,,,59,127
25539,note_off,17,0,0,,2,,,74,127
25545,note_on,6,0,0,,10,,,81,127
25545,note_on,0,0,0,,1,,,73,127
25644,note_on,99,0,0,,10,,,45,127
25735,note_off,91,0,0,,1,,,73,127
25735,note_off,0,0,0,,10,,,81,127
25743,note_on,8,0,0,,1,,,73,127
25743,note_on,0,0,0,,10,,,81,127
25743,note_on,0,0,0,,1,,,49,127
25751,note_off,8,0,0,,10,,,45,127
25842,note_on,91,0,0,,4,,,52,127
25850,note_off,8,0,0,,1,,,49,127
25933,note_off,83,0,0,,10,,,81,127
25933,note_off,0,0,0,,1,,,73,127
25941,note_on,8,0,0,,10,,,81,127
25941,note_on,0,0,0,,1,,,73,127
25941,note_on,0,0,0,,10,,,57,127
25949,note_off,8,0,0,,4,,,52,127
26040,note_on,91,0,0,,1,,,61,127
26048,note_off,8,0,0,,10,,,57,127
26131,note_off,83,0,0,,1,,,73,127
26131,note_off,0,0,0,,10,,,81,127
26139,note_on,8,0,0,,6,,,66,127
26139,note_on,0,0,0,,2,,,62,127
26147,note_off,8,0,0,,1,,,61,127
26238,note_on,91,0,0,,8,,,68,127
26246,note_off,8,0,0,,6,,,66,127
26329,note_off,83,0,0,,2,,,62,127
26337,note_on,8,0,0,,10,,,69,127
26337,note_on,0,0,0,,1,,,61,127
26345,note_off,8,0,0,,8,,,68,127
26436,note_on,91,0,0,,12,,,71,127
26444,note_off,8,0,0,,10,,,69,127
26527,note_off,83,0,0,,1,,,61,127
26535,note_on,8,0,0,,1,,,73,127
26535,note_on,0,0,0,,12,,,59,127
26543,note_off,8,0,0,,12,,,71,127
26634,note_on,91,0,0,,2,,,74,127
26642,note_off,8,0,0,,1,,,73,127
26725,note_off,83,0,0,,12,,,59,127
26727,note_off,2,0,0,,2,,,74,127
26733,note_on,6,0,0,,10,,,81,127
26733,note_on,0,0,0,,10,,,57,127
26832,note_on,99,0,0,,1,,,73,127
26840,note_off,8,0,0,,10,,,81,127
26923,note_off,83,0,0,,10,,,57,127
26931,note_on,8,0,0,,2,,,74,127
26931,note_on,0,0,0,,12,,,59,127
26939,note_off,8,0,0,,1,,,73,127
27030,note_on,91,0,0,,12,,,71,127
27038,note_off,8,0,0,,2,,,74,127
27121,note_off,83,0,0,,12,,,59,127
27129,note_on,8,0,0,,4,,,76,127
27129,note_on,0,0,0,,1,,,61,127
27137,note_off,8,0,0,,12,,,71,127
27228,note_on,91,0,0,,1,,,73,127
27236,note_off,8,0,0,,4,,,76,127
27319,note_off,83,0,0,,1,,,61,127
27327,note_on,8,0,0,,6,,,78,127
27327,note_on,0,0,0,,2,,,62,127
27335,note_off,8,0,0,,1,,,73,127
27426,note_on,91,0,0,,2,,,74,127
27434,note_off,8,0,0,,6,,,78,127
27517,note_off,83,0,0,,2,,,62,127
27525,note_on,8,0,0,,1,,,73,127
27525,note_on,0,0,0,,4,,,64,127
27533,note_off,8,0,0,,2,,,74,127
27624,note_on,91,0,0,,12,,,71,127
27632,note_off,8,0,0,,1,,,73,127
27715,note_off,83,0,0,,4,,,64,127
27723,note_on,8,0,0,,10,,,69,127
27723,note_on,0,0,0,,4,,,52,127
27731,note_off,8,0,0,,12,,,71,127
27822,note_on,91,0,0,,8,,,68,127
27830,note_off,8,0,0,,10,,,69,127
27915,note_off,85,0,0,,8,,,68,127
27919,note_off,4,0,0,,4,,,52,127
27921,note_on,2,0,0,,10,,,81,127
27921,note_on,0,0,0,,1,,,73,127
28020,note_on,99,0,0,,10,,,45,127
28111,note_off,91,0,0,,1,,,73,127
28111,note_off,0,0,0,,10,,,81,127
28119,note_on,8,0,0,,1,,,73,127
28119,note_on,0,0,0,,10,,,81,127
28119,note_on,0,0,0,,1,,,49,127
28127,note_off,8,0,0,,10,,,45,127
28218,note_on,91,0,0,,4,,,52,127
28226,note_off,8,0,0,,1,,,49,127
28309,note_off,83,0,0,,10,,,81,127
28309,note_off,0,0,0,,1,,,73,127
28317,note_on,8,0,0,,1,,,73,127
28317,note_on,0,0,0,,10,,,81,127
28317,note_on,0,0,0,,10,,,57,127
28325,note_off,8,0,0,,4,,,52,127
28416,note_on,91,0,0,,1,,,61,127
28424,note_off,8,0,0,,10,,,57,127
28507,note_off,83,0,0,,10,,,81,127
28507,note_off,0,0,0,,1,,,73,127
28515,note_on,8,0,0,,6,,,66,127
28515,note_on,0,0,0,,2,,,62,127
28523,note_off,8,0,0,,1,,,61,127
28614,note_on,91,0,0,,8,,,68,127
28622,note_off,8,0,0,,6,,,66,127
28705,note_off,83,0,0,,2,,,62,127
28713,note_on,8,0,0,,10,,,69,127
28713,note_on,0,0,0,,1,,,61,127
28721,note_off,8,0,0,,8,,,68,127
28812,note_on,91,0,0,,12,,,71,127
28820,note_off,8,0,0,,10,,,69,127
28903,note_off,83,0,0,,1,,,61,127
28911,note_on,8,0,0,,1,,,73,127
28911,note_on,0,0,0,,12,,,59,127
28919,note_off,8,0,0,,12,,,71,127
29010,note_on,91,0,0,,2,,,74,127
29018,note_off,8,0,0,,1,,,73,127
29086,note_off,68,0,0,,12,,,59,127
29103,note_off,17,0,0,,2,,,74,127
29109,note_on,6,0,0,,1,,,73,127
29109,note_on,0,0,0,,10,,,81,127
29208,note_on,99,0,0,,10,,,45,127
29299,note_off,91,0,0,,10,,,81,127
29299,note_off,0,0,0,,1,,,73,127
29307,note_on,8,0,0,,10,,,81,127
29307,note_on,0,0,0,,1,,,73,127
29307,note_on,0,0,0,,1,,,49,127
29315,note_off,8,0,0,,10,,,45,127
29406,note_on,91,0,0,,4,,,52,127
29414,note_off,8,0,0,,1,,,49,127
29497,note_off,83,0,0,,1,,,73,127
29497,note_off,0,0,0,,10,,,81,127
29505,note_on,8,0,0,,1,,,73,127
29505,note_on,0,0,0,,10,,,81,127
29505,note_on,0,0,0,,10,,,57,127
29513,note_off,8,0,0,,4,,,52,127
29604,note_on,91,0,0,,1,,,61,127
29612,note_off,8,0,0,,10,,,57,127
29695,note_off,83,0,0,,10,,,81,127
29695,note_off,0,0,0,,1,,,73,127
29703,note_on,8,0,0,,6,,,66,127
29703,note_on,0,0,0,,2,,,62,127
29711,note_off,8,0,0,,1,,,61,127
29802,note_on,91,0,0,,8,,,68,127
29810,note_off,8,0,0,,6,,,66,127
29893,note_off,83,0,0,,2,,,62,127
29901,note_on,8,0,0,,10,,,69,127
29901,note_on,0,0,0,,1,,,61,127
29909,note_off,8,0,0,,8,,,68,127
30000,note_on,91,0,0,,12,,,71,127
30008,note_off,8,0,0,,10,,,69,127
30091,note_off,83,0,0,,1,,,61,127
30099,note_on,8,0,0,,1,,,73,127
30099,note_on,0,0,0,,12,,,59,127
30107,note_off,8,0,0,,12,,,71,127
30198,note_on,91,0,0,,2,,,74,127
30206,note_off,8,0,0,,1,,,73,127
30289,note_off,83,0,0,,12,,,59,127
30291,note_off,2,0,0,,2,,,74,127
30297,note_on,6,0,0,,10,,,81,127
30297,note_on,0,0,0,,10,,,57,127
30396,note_on,99,0,0,,1,,,73,127
30404,note_off,8,0,0,,10,,,81,127
30487,note_off,83,0,0,,10,,,57,127
30495,note_on,8,0,0,,2,,,74,127
30495,note_on,0,0,0,,12,,,59,127
30503,note_off,8,0,0,,1,,,73,127
30594,note_on,91,0,0,,12,,,71,127
30602,note_off,8,0,0,,2,,,74,127
30685,note_off,83,0,0,,12,,,59,127
30693,note_on,8,0,0,,4,,,76,127
30693,note_on,0,0,0,,1,,,61,127
30701,note_off,8,0,0,,12,,,71,127
30792,note_on,91,0,0,,1,,,73,127
30800,note_off,8,0,0,,4,,,76,127
30883,note_off,83,0,0,,1,,,61,127
30891,note_on,8,0,0,,6,,,78,127
30891,note_on,0,0,0,,2,,,62,127
30899,note_off,8,0,0,,1,,,73,127
30990,note_on,91,0,0,,2,,,74,127
30998,note_off,8,0,0,,6,,,78,127
31081,note_off,83,0,0,,2,,,62,127
31089,note_on,8,0,0,,1,,,73,127
31089,note_on,0,0,0,,4,,,64,127
31097,note_off,8,0,0,,2,,,74,127
31188,note_on,91,0,0,,12,,,71,127
31196,note_off,8,0,0,,1,,,73,127
31279,note_off,83,0,0,,4,,,64,127
31287,note_on,8,0,0,,10,,,69,127
31287,note_on,0,0,0,,4,,,52,127
31295,note_off,8,0,0,,12,,,71,127
31386,note_on,91,0,0,,8,,,68,127
31394,note_off,8,0,0,,10,,,69,127
31477,note_off,83,0,0,,4,,,52,127
31485,note_on,8,0,0,,10,,,69,127
31485,note_on,0,0,0,,10,,,57,127
31493,note_off,8,0,0,,8,,,68,127
31675,note_off,182,0,0,,10,,,57,127
31675,note_off,0,0,0,,10,,,69,127
31683,note_on,8,0,0,,1,,,73,127
31683,note_on,0,0,0,,10,,,81,127
31683,note_on,0,0,0,,10,,,57,127
31782,note_on,99,0,0,,10,,,69,127
31859,note_off,77,0,0,,10,,,57,127
31873,note_off,14,0,0,,10,,,81,127
31873,note_off,0,0,0,,1,,,73,127
31881,note_on,8,0,0,,1,,,73,127
31881,note_on,0,0,0,,10,,,81,127
31881,note_on,0,0,0,,8,,,56,127
31906,note_off,25,0,0,,10,,,69,127
31980,note_on,74,0,0,,8,,,68,127
32057,note_off,77,0,0,,8,,,56,127
32071,note_off,14,0,0,,10,,,81,127
32071,note_off,0,0,0,,1,,,73,127
32079,note_on,8,0,0,,1,,,73,127
32079,note_on,0,0,0,,10,,,81,127
32079,note_on,0,0,0,,6,,,54,127
32104,note_off,25,0,0,,8,,,68,127
32178,note_on,74,0,0,,6,,,66,127
32255,note_off,77,0,0,,6,,,54,127
32269,note_off,14,0,0,,10,,,81,127
32269,note_off,0,0,0,,1,,,73,127
32277,note_on,8,0,0,,10,,,81,127
32277,note_on,0,0,0,,1,,,73,127
32277,note_on,0,0,0,,4,,,52,127
32302,note_off,25,0,0,,6,,,66,127
32376,note_on,74,0,0,,4,,,64,127
32453,note_off,77,0,0,,4,,,52,127
32467,note_off,14,0,0,,1,,,73,127
32467,note_off,0,0,0,,10,,,81,127
32475,note_on,8,0,0,,1,,,73,127
32475,note_on,0,0,0,,10,,,81,127
32475,note_on,0,0,0,,2,,,50,127
32500,note_off,25,0,0,,4,,,64,127
32574,note_on,74,0,0,,2,,,62,127
32651,note_off,77,0,0,,2,,,50,127
32665,note_off,14,0,0,,10,,,81,127
32665,note_off,0,0,0,,1,,,73,127
32673,note_on,8,0,0,,1,,,73,127
32673,note_on,0,0,0,,10,,,81,127
32673,note_on,0,0,0,,1,,,49,127
32698,note_off,25,0,0,,2,,,62,127
32772,note_on,74,0,0,,1,,,61,127
32849,note_off,77,0,0,,1,,,49,127
32863,note_off,14,0,0,,10,,,81,127
32863,note_off,0,0,0,,1,,,73,127
32871,note_on,8,0,0,,12,,,83,127
32871,note_on,0,0,0,,2,,,74,127
32871,note_on,0,0,0,,12,,,47,127
32896,note_off,25,0,0,,1,,,61,127
32970,note_on,74,0,0,,12,,,59,127
33047,note_off,77,0,0,,12,,,47,127
33061,note_off,14,0,0,,2,,,74,127
33061,note_off,0,0,0,,12,,,83,127
33069,note_on,8,0,0,,1,,,85,127
33069,note_on,0,0,0,,4,,,76,127
33069,note_on,0,0,0,,10,,,45,127
33094,note_off,25,0,0,,12,,,59,127
33168,note_on,74,0,0,,10,,,57,127
33245,note_off,77,0,0,,10,,,45,127
33259,note_off,14,0,0,,4,,,76,127
33259,note_off,0,0,0,,1,,,85,127
33267,note_on,8,0,0,,12,,,83,127
33267,note_on,0,0,0,,1,,,85,127
33267,note_on,0,0,0,,2,,,74,127
33267,note_on,0,0,0,,2,,,50,127
33292,note_off,25,0,0,,10,,,57,127
33458,note_off,166,0,0,,2,,,50,127
33458,note_off,0,0,0,,2,,,74,127
33458,note_off,0,0,0,,1,,,85,127
33458,note_off,0,0,0,,12,,,83,127
33466,note_on,8,0,0,,1,,,73,127
33466,note_on,0,0,0,,10,,,81,127
33466,note_on,0,0,0,,4,,,52,127
33656,note_off,190,0,0,,10,,,81,127
33656,note_off,0,0,0,,1,,,73,127
33664,note_on,8,0,0,,8,,,80,127
33664,note_on,0,0,0,,12,,,71,127
33664,note_on,0,0,0,,4,,,40,127
33854,note_off,190,0,0,,4,,,40,127
33854,note_off,0,0,0,,12,,,71,127
33854,note_off,0,0,0,,8,,,80,127
33858,note_off,4,0,0,,4,,,52,127
33862,note_on,4,0,0,,1,,,73,127
33862,note_on,0,0,0,,10,,,81,127
33862,note_on,0,0,0,,10,,,45,127
34052,note_off,190,0,0,,10,,,45,127
34052,note_off,0,0,0,,10,,,81,127
34052,note_off,0,0,0,,1,,,73,127
34060,note_on,8,0,0,,1,,,73,127
34060,note_on,0,0,0,,10,,,69,127
34060,note_on,0,0,0,,10,,,45,127
34159,note_on,99,0,0,,10,,,57,127
34236,note_off,77,0,0,,10,,,45,127
34250,note_off,14,0,0,,10,,,69,127
34250,note_off,0,0,0,,1,,,73,127
34258,note_on,8,0,0,,1,,,73,127
34258,note_on,0,0,0,,10,,,69,127
34258,note_on,0,0,0,,8,,,44,127
34304,note_off,46,0,0,,10,,,57,127
34358,note_on,54,0,0,,8,,,56,127
34435,note_off,77,0,0,,8,,,44,127
34449,note_off,14,0,0,,10,,,69,127
34449,note_off,0,0,0,,1,,,73,127
34457,note_on,8,0,0,,1,,,73,127
34457,note_on,0,0,0,,10,,,69,127
34457,note_on,0,0,0,,6,,,42,127
34503,note_off,46,0,0,,8,,,56,127
34557,note_on,54,0,0,,6,,,54,127
34634,note_off,77,0,0,,6,,,42,127
34648,note_off,14,0,0,,10,,,69,127
34648,note_off,0,0,0,,1,,,73,127
34656,note_on,8,0,0,,10,,,69,127
34656,note_on,0,0,0,,1,,,73,127
34656,note_on,0,0,0,,4,,,40,127
34702,note_off,46,0,0,,6,,,54,127
34756,note_on,54,0,0,,4,,,52,127
34833,note_off,77,0,0,,4,,,40,127
34847,note_off,14,0,0,,1,,,73,127
34847,note_off,0,0,0,,10,,,69,127
34855,note_on,8,0,0,,1,,,73,127
34855,note_on,0,0,0,,10,,,69,127
34855,note_on,0,0,0,,2,,,38,127
34901,note_off,46,0,0,,4,,,52,127
34955,note_on,54,0,0,,2,,,50,127
35032,note_off,77,0,0,,2,,,38,127
35046,note_off,14,0,0,,10,,,69,127
35046,note_off,0,0,0,,1,,,73,127
35054,note_on,8,0,0,,1,,,73,127
35054,note_on,0,0,0,,10,,,69,127
35054,note_on,0,0,0,,1,,,37,127
35100,note_off,46,0,0,,2,,,50,127
35154,note_on,54,0,0,,1,,,49,127
35231,note_off,77,0,0,,1,,,37,127
35245,note_off,14,0,0,,10,,,69,127
35245,note_off,0,0,0,,1,,,73,127
35253,note_on,8,0,0,,2,,,74,127
35253,note_on,0,0,0,,12,,,71,127
35253,note_on,0,0,0,,12,,,35,127
35299,note_off,46,0,0,,1,,,49,127
35353,note_on,54,0,0,,12,,,47,127
35430,note_off,77,0,0,,12,,,35,127
35444,note_off,14,0,0,,12,,,71,127
35444,note_off,0,0,0,,2,,,74,127
35452,note_on,8,0,0,,4,,,76,127
35452,note_on,0,0,0,,1,,,73,127
35452,note_on,0,0,0,,10,,,33,127
35498,note_off,46,0,0,,12,,,47,127
35643,note_off,145,0,0,,10,,,33,127
35643,note_off,0,0,0,,1,,,73,127
35643,note_off,0,0,0,,4,,,76,127
35651,note_on,8,0,0,,2,,,74,127
35651,note_on,0,0,0,,4,,,76,127
35651,note_on,0,0,0,,12,,,71,127
35651,note_on,0,0,0,,2,,,50,127
35841,note_off,190,0,0,,2,,,50,127
35841,note_off,0,0,0,,12,,,71,127
35841,note_off,0,0,0,,4,,,76,127
35841,note_off,0,0,0,,2,,,74,127
35849,note_on,8,0,0,,10,,,69,127
35849,note_on,0,0,0,,1,,,73,127
35849,note_on,0,0,0,,4,,,52,127
36039,note_off,190,0,0,,1,,,73,127
36039,note_off,0,0,0,,10,,,69,127
36047,note_on,8,0,0,,12,,,71,127
36047,note_on,0,0,0,,8,,,68,127
36047,note_on,0,0,0,,4,,,40,127
36237,note_off,190,0,0,,4,,,40,127
36237,note_off,0,0,0,,8,,,68,127
36237,note_off,0,0,0,,12,,,71,127
36241,note_off,4,0,0,,4,,,52,127
36245,note_on,4,0,0,,12,,,71,127
36245,note_on,0,0,0,,10,,,45,127
36278,note_on,33,0,0,,10,,,69,127
36286,note_off,8,0,0,,12,,,71,127
36311,note_on,25,0,0,,12,,,71,127
36319,note_off,8,0,0,,10,,,69,127
36344,note_on,25,0,0,,10,,,69,127
36352,note_off,8,0,0,,12,,,71,127
36964,note_off,612,0,0,,10,,,69,127
37037,note_off,73,0,0,,10,,,45,127
37038,note_on,1,0,0,,7,,,67,127
37038,note_on,0,0,0,,4,,,76,127
37228,note_off,190,0,0,,4,,,76,127
37228,note_off,0,0,0,,7,,,67,127
37236,note_on,8,0,0,,7,,,67,127
37236,note_on,0,0,0,,4,,,76,127
37426,note_off,190,0,0,,4,,,76,127
37426,note_off,0,0,0,,7,,,67,127
37434,note_on,8,0,0,,4,,,76,127
37434,note_on,0,0,0,,7,,,67,127
37624,note_off,190,0,0,,7,,,67,127
37624,note_off,0,0,0,,4,,,76,127
37632,note_on,8,0,0,,2,,,74,127
37632,note_on,0,0,0,,6,,,66,127
37822,note_off,190,0,0,,6,,,66,127
37822,note_off,0,0,0,,2,,,74,127
37830,note_on,8,0,0,,2,,,74,127
37830,note_on,0,0,0,,6,,,66,127
38020,note_off,190,0,0,,6,,,66,127
38020,note_off,0,0,0,,2,,,74,127
38028,note_on,8,0,0,,1,,,73,127
38028,note_on,0,0,0,,4,,,64,127
38226,note_off,198,0,0,,4,,,64,127
38227,note_on,1,0,0,,4,,,64,127
38227,note_on,0,0,0,,7,,,55,127
38417,note_off,190,0,0,,7,,,55,127
38417,note_off,0,0,0,,4,,,64,127
38425,note_on,8,0,0,,7,,,55,127
38425,note_on,0,0,0,,4,,,64,127
38615,note_off,190,0,0,,4,,,64,127
38615,note_off,0,0,0,,7,,,55,127
38623,note_on,8,0,0,,4,,,64,127
38623,note_on,0,0,0,,7,,,55,127
38813,note_off,190,0,0,,7,,,55,127
38813,note_off,0,0,0,,4,,,64,127
38816,note_off,3,0,0,,1,,,73,127
38821,note_on,5,0,0,,2,,,74,127
38821,note_on,0,0,0,,6,,,54,127
38821,note_on,0,0,0,,2,,,62,127
39011,note_off,190,0,0,,2,,,62,127
39011,note_off,0,0,0,,6,,,54,127
39019,note_on,8,0,0,,2,,,62,127
39019,note_on,0,0,0,,6,,,54,127
39209,note_off,190,0,0,,6,,,54,127
39209,note_off,0,0,0,,2,,,62,127
39217,note_on,8,0,0,,4,,,52,127
39217,note_on,0,0,0,,1,,,61,127
39407,note_off,190,0,0,,1,,,61,127
39407,note_off,0,0,0,,4,,,52,127
39410,note_off,3,0,0,,2,,,74,127
39415,note_on,5,0,0,,4,,,76,127
39415,note_on,0,0,0,,1,,,61,127
39415,note_on,0,0,0,,4,,,52,127
39605,note_off,190,0,0,,4,,,52,127
39605,note_off,0,0,0,,1,,,61,127
39613,note_on,8,0,0,,1,,,61,127
39613,note_on,0,0,0,,4,,,52,127
39803,note_off,190,0,0,,4,,,52,127
39803,note_off,0,0,0,,1,,,61,127
39811,note_on,8,0,0,,2,,,62,127
39811,note_on,0,0,0,,2,,,50,127
40001,note_off,190,0,0,,2,,,50,127
40001,note_off,0,0,0,,2,,,62,127
40004,note_off,3,0,0,,4,,,76,127
40009,note_on,5,0,0,,7,,,79,127
40009,note_on,0,0,0,,2,,,62,127
40009,note_on,0,0,0,,2,,,50,127
40053,note_off,44,0,0,,7,,,79,127
40058,note_on,5,0,0,,6,,,78,127
40102,note_off,44,0,0,,6,,,78,127
40107,note_on,5,0,0,,7,,,79,127
40151,note_off,44,0,0,,7,,,79,127
40156,note_on,5,0,0,,6,,,78,127
40197,note_off,41,0,0,,2,,,50,127
40197,note_off,0,0,0,,2,,,62,127
40200,note_off,3,0,0,,6,,,78,127
40205,note_on,5,0,0,,7,,,79,127
40205,note_on,0,0,0,,2,,,62,127
40205,note_on,0,0,0,,2,,,50,127
40249,note_off,44,0,0,,7,,,79,127
40254,note_on,5,0,0,,6,,,78,127
40298,note_off,44,0,0,,6,,,78,127
40303,note_on,5,0,0,,4,,,76,127
40347,note_off,44,0,0,,4,,,76,127
40352,note_on,5,0,0,,6,,,78,127
40393,note_off,41,0,0,,2,,,50,127
40393,note_off,0,0,0,,2,,,62,127
40396,note_off,3,0,0,,6,,,78,127
40401,note_on,5,0,0,,4,,,76,127
40401,note_on,0,0,0,,10,,,45,127
40401,note_on,0,0,0,,10,,,57,127
40591,note_off,190,0,0,,10,,,57,127
40591,note_off,0,0,0,,10,,,45,127
40591,note_off,0,0,0,,4,,,76,127
40599,note_on,8,0,0,,4,,,76,127
40599,note_on,0,0,0,,1,,,73,127
40599,note_on,0,0,0,,10,,,69,127
40698,note_on,99,0,0,,8,,,68,127
40706,note_off,8,0,0,,10,,,69,127
40789,note_off,83,0,0,,1,,,73,127
40789,note_off,0,0,0,,4,,,76,127
40797,note_on,8,0,0,,4,,,76,127
40797,note_on,0,0,0,,1,,,73,127
40797,note_on,0,0,0,,6,,,66,127
40805,note_off,8,0,0,,8,,,68,127
40896,note_on,91,0,0,,4,,,64,127
40904,note_off,8,0,0,,6,,,66,127
40987,note_off,83,0,0,,1,,,73,127
40987,note_off,0,0,0,,4,,,76,127
40995,note_on,8,0,0,,2,,,74,127
40995,note_on,0,0,0,,6,,,78,127
40995,note_on,0,0,0,,2,,,62,127
41003,note_off,8,0,0,,4,,,64,127
41094,note_on,91,0,0,,1,,,61,127
41102,note_off,8,0,0,,2,,,62,127
41185,note_off,83,0,0,,6,,,78,127
41185,note_off,0,0,0,,2,,,74,127
41193,note_on,8,0,0,,6,,,78,127
41193,note_on,0,0,0,,2,,,74,127
41193,note_on,0,0,0,,12,,,59,127
41201,note_off,8,0,0,,1,,,61,127
41292,note_on,91,0,0,,10,,,57,127
41300,note_off,8,0,0,,12,,,59,127
41383,note_off,83,0,0,,2,,,74,127
41383,note_off,0,0,0,,6,,,78,127
41391,note_on,8,0,0,,2,,,74,127
41391,note_on,0,0,0,,6,,,78,127
41391,note_on,0,0,0,,8,,,56,127
41399,note_off,8,0,0,,10,,,57,127
41490,note_on,91,0,0,,6,,,54,127
41498,note_off,8,0,0,,8,,,56,127
41581,note_off,83,0,0,,6,,,78,127
41581,note_off,0,0,0,,2,,,74,127
41589,note_on,8,0,0,,2,,,74,127
41589,note_on,0,0,0,,8,,,80,127
41589,note_on,0,0,0,,4,,,52,127
41597,note_off,8,0,0,,6,,,54,127
41779,note_off,182,0,0,,4,,,52,127
41779,note_off,0,0,0,,8,,,80,127
41779,note_off,0,0,0,,2,,,74,127
41787,note_on,8,0,0,,10,,,81,127
41787,note_on,0,0,0,,2,,,74,127
41787,note_on,0,0,0,,4,,,52,127
41977,note_off,190,0,0,,4,,,52,127
41977,note_off,0,0,0,,2,,,74,127
41977,note_off,0,0,0,,10,,,81,127
41985,note_on,8,0,0,,2,,,74,127
41985,note_on,0,0,0,,12,,,83,127
41985,note_on,0,0,0,,4,,,52,127
42175,note_off,190,0,0,,4,,,52,127
42175,note_off,0,0,0,,12,,,83,127
42175,note_off,0,0,0,,2,,,74,127
42183,note_on,8,0,0,,1,,,85,127
42183,note_on,0,0,0,,2,,,74,127
42183,note_on,0,0,0,,12,,,83,127
42183,note_on,0,0,0,,4,,,52,127
42373,note_off,190,0,0,,4,,,52,127
42373,note_off,0,0,0,,12,,,83,127
42373,note_off,0,0,0,,2,,,74,127
42373,note_off,0,0,0,,1,,,85,127
42381,note_on,8,0,0,,1,,,73,127
42381,note_on,0,0,0,,10,,,81,127
42381,note_on,0,0,0,,4,,,52,127
42571,note_off,190,0,0,,4,,,52,127
42571,note_off,0,0,0,,10,,,81,127
42571,note_off,0,0,0,,1,,,73,127
42579,note_on,8,0,0,,8,,,80,127
42579,note_on,0,0,0,,12,,,71,127
42579,note_on,0,0,0,,4,,,52,127
42769,note_off,190,0,0,,4,,,52,127
42769,note_off,0,0,0,,12,,,71,127
42769,note_off,0,0,0,,8,,,80,127
42777,note_on,8,0,0,,1,,,73,127
42777,note_on,0,0,0,,10,,,81,127
42777,note_on,0,0,0,,10,,,57,127
42967,note_off,190,0,0,,10,,,57,127
42967,note_off,0,0,0,,10,,,81,127
42967,note_off,0,0,0,,1,,,73,127
42975,note_on,8,0,0,,1,,,73,127
42975,note_on,0,0,0,,10,,,81,127
42975,note_on,0,0,0,,10,,,69,127
43074,note_on,99,0,0,,8,,,68,127
43082,note_off,8,0,0,,10,,,69,127
43165,note_off,83,0,0,,10,,,81,127
43165,note_off,0,0,0,,1,,,73,127
43173,note_on,8,0,0,,10,,,81,127
43173,note_on,0,0,0,,1,,,73,127
43173,note_on,0,0,0,,6,,,66,127
43181,note_off,8,0,0,,8,,,68,127
43272,note_on,91,0,0,,4,,,64,127
43280,note_off,8,0,0,,6,,,66,127
43363,note_off,83,0,0,,1,,,73,127
43363,note_off,0,0,0,,10,,,81,127
43371,note_on,8,0,0,,1,,,73,127
43371,note_on,0,0,0,,10,,,81,127
43371,note_on,0,0,0,,2,,,62,127
43379,note_off,8,0,0,,4,,,64,127
43470,note_on,91,0,0,,1,,,61,127
43478,note_off,8,0,0,,2,,,62,127
43561,note_off,83,0,0,,10,,,81,127
43561,note_off,0,0,0,,1,,,73,127
43569,note_on,8,0,0,,10,,,81,127
43569,note_on,0,0,0,,1,,,73,127
43569,note_on,0,0,0,,12,,,59,127
43577,note_off,8,0,0,,1,,,61,127
43668,note_on,91,0,0,,10,,,57,127
43676,note_off,8,0,0,,12,,,59,127
43759,note_off,83,0,0,,1,,,73,127
43759,note_off,0,0,0,,10,,,81,127
43767,note_on,8,0,0,,10,,,81,127
43767,note_on,0,0,0,,1,,,73,127
43767,note_on,0,0,0,,8,,,56,127
43775,note_off,8,0,0,,10,,,57,127
43866,note_on,91,0,0,,6,,,54,127
43874,note_off,8,0,0,,8,,,56,127
43957,note_off,83,0,0,,1,,,73,127
43957,note_off,0,0,0,,10,,,81,127
43965,note_on,8,0,0,,1,,,73,127
43965,note_on,0,0,0,,10,,,81,127
43965,note_on,0,0,0,,5,,,53,127
43973,note_off,8,0,0,,6,,,54,127
44155,note_off,182,0,0,,5,,,53,127
44155,note_off,0,0,0,,10,,,81,127
44155,note_off,0,0,0,,1,,,73,127
44163,note_on,8,0,0,,12,,,71,127
44163,note_on,0,0,0,,8,,,80,127
44163,note_on,0,0,0,,1,,,49,127
44353,note_off,190,0,0,,1,,,49,127
44353,note_off,0,0,0,,8,,,80,127
44353,note_off,0,0,0,,12,,,71,127
44361,note_on,8,0,0,,6,,,78,127
44361,note_on,0,0,0,,10,,,69,127
44361,note_on,0,0,0,,1,,,49,127
44551,note_off,190,0,0,,1,,,49,127
44551,note_off,0,0,0,,10,,,69,127
44551,note_off,0,0,0,,6,,,78,127
44559,note_on,8,0,0,,10,,,81,127
44559,note_on,0,0,0,,8,,,80,127
44559,note_on,0,0,0,,12,,,71,127
44559,note_on,0,0,0,,1,,,49,127
44749,note_off,190,0,0,,1,,,49,127
44749,note_off,0,0,0,,12,,,71,127
44749,note_off,0,0,0,,8,,,80,127
44749,note_off,0,0,0,,10,,,81,127
44757,note_on,8,0,0,,6,,,78,127
44757,note_on,0,0,0,,10,,,69,127
44757,note_on,0,0,0,,1,,,49,127
44947,note_off,190,0,0,,1,,,49,127
44947,note_off,0,0,0,,10,,,69,127
44947,note_off,0,0,0,,6,,,78,127
44955,note_on,8,0,0,,5,,,77,127
44955,note_on,0,0,0,,8,,,68,127
44955,note_on,0,0,0,,1,,,49,127
45145,note_off,190,0,0,,1,,,49,127
45145,note_off,0,0,0,,8,,,68,127
45145,note_off,0,0,0,,5,,,77,127
45153,note_on,8,0,0,,10,,,69,127
45153,note_on,0,0,0,,6,,,78,127
45153,note_on,0,0,0,,6,,,54,127
45343,note_off,190,0,0,,6,,,54,127
45343,note_off,0,0,0,,6,,,78,127
45343,note_off,0,0,0,,10,,,69,127
45351,note_on,8,0,0,,10,,,69,127
45351,note_on,0,0,0,,1,,,73,127
45351,note_on,0,0,0,,6,,,66,127
45450,note_on,99,0,0,,4,,,64,127
45458,note_off,8,0,0,,6,,,66,127
45541,note_off,83,0,0,,1,,,73,127
45541,note_off,0,0,0,,10,,,69,127
45549,note_on,8,0,0,,1,,,73,127
45549,note_on,0,0,0,,10,,,69,127
45549,note_on,0,0,0,,2,,,62,127
45557,note_off,8,0,0,,4,,,64,127
45648,note_on,91,0,0,,1,,,61,127
45656,note_off,8,0,0,,2,,,62,127
45739,note_off,83,0,0,,10,,,69,127
45739,note_off,0,0,0,,1,,,73,127
45747,note_on,8,0,0,,1,,,73,127
45747,note_on,0,0,0,,10,,,69,127
45747,note_on,0,0,0,,12,,,59,127
45755,note_off,8,0,0,,1,,,61,127
45846,note_on,91,0,0,,10,,,57,127
45854,note_off,8,0,0,,12,,,59,127
45937,note_off,83,0,0,,10,,,69,127
45937,note_off,0,0,0,,1,,,73,127
45945,note_on,8,0,0,,10,,,69,127
45945,note_on,0,0,0,,1,,,73,127
45945,note_on,0,0,0,,7,,,55,127
45953,note_off,8,0,0,,10,,,57,127
46044,note_on,91,0,0,,6,,,54,127
46052,note_off,8,0,0,,7,,,55,127
46135,note_off,83,0,0,,1,,,73,127
46135,note_off,0,0,0,,10,,,69,127
46143,note_on,8,0,0,,2,,,74,127
46143,note_on,0,0,0,,12,,,71,127
46143,note_on,0,0,0,,4,,,52,127
46151,note_off,8,0,0,,6,,,54,127
46242,note_on,91,0,0,,2,,,50,127
46250,note_off,8,0,0,,4,,,52,127
46333,note_off,83,0,0,,12,,,71,127
46333,note_off,0,0,0,,2,,,74,127
46341,note_on,8,0,0,,1,,,73,127
46341,note_on,0,0,0,,4,,,76,127
46341,note_on,0,0,0,,1,,,49,127
46349,note_off,8,0,0,,2,,,50,127
46531,note_off,182,0,0,,1,,,49,127
46531,note_off,0,0,0,,4,,,76,127
46531,note_off,0,0,0,,1,,,73,127
46539,note_on,8,0,0,,1,,,73,127
46539,note_on,0,0,0,,11,,,70,127
46539,note_on,0,0,0,,4,,,64,127
46638,note_on,99,0,0,,2,,,62,127
46646,note_off,8,0,0,,4,,,64,127
46729,note_off,83,0,0,,11,,,70,127
46729,note_off,0,0,0,,1,,,73,127
46737,note_on,8,0,0,,1,,,73,127
46737,note_on,0,0,0,,11,,,70,127
46737,note_on,0,0,0,,1,,,61,127
46745,note_off,8,0,0,,2,,,62,127
46836,note_on,91,0,0,,12,,,59,127
46844,note_off,8,0,0,,1,,,61,127
46927,note_off,83,0,0,,11,,,70,127
46927,note_off,0,0,0,,1,,,73,127
46935,note_on,8,0,0,,11,,,70,127
46935,note_on,0,0,0,,1,,,73,127
46935,note_on,0,0,0,,11,,,58,127
46943,note_off,8,0,0,,12,,,59,127
47034,note_on,91,0,0,,7,,,55,127
47042,note_off,8,0,0,,11,,,58,127
47125,note_off,83,0,0,,1,,,73,127
47125,note_off,0,0,0,,11,,,70,127
47133,note_on,8,0,0,,12,,,71,127
47133,note_on,0,0,0,,2,,,74,127
47133,note_on,0,0,0,,6,,,54,127
47141,note_off,8,0,0,,7,,,55,127
47232,note_on,91,0,0,,4,,,52,127
47240,note_off,8,0,0,,6,,,54,127
47323,note_off,83,0,0,,2,,,74,127
47323,note_off,0,0,0,,12,,,71,127
47331,note_on,8,0,0,,1,,,73,127
47331,note_on,0,0,0,,4,,,76,127
47331,note_on,0,0,0,,2,,,50,127
47339,note_off,8,0,0,,4,,,52,127
47430,note_on,91,0,0,,1,,,49,127
47438,note_off,8,0,0,,2,,,50,127
47521,note_off,83,0,0,,4,,,76,127
47521,note_off,0,0,0,,1,,,73,127
47529,note_on,8,0,0,,12,,,71,127
47529,note_on,0,0,0,,2,,,74,127
47529,note_on,0,0,0,,12,,,47,127
47537,note_off,8,0,0,,1,,,49,127
47719,note_off,182,0,0,,12,,,47,127
47719,note_off,0,0,0,,2,,,74,127
47719,note_off,0,0,0,,12,,,71,127
47727,note_on,8,0,0,,6,,,78,127
47727,note_on,0,0,0,,2,,,74,127
47727,note_on,0,0,0,,12,,,59,127
47826,note_on,99,0,0,,10,,,57,127
47834,note_off,8,0,0,,12,,,59,127
47917,note_off,83,0,0,,2,,,74,127
47917,note_off,0,0,0,,6,,,78,127
47925,note_on,8,0,0,,2,,,74,127
47925,note_on,0,0,0,,6,,,78,127
47925,note_on,0,0,0,,7,,,55,127
47933,note_off,8,0,0,,10,,,57,127
48024,note_on,91,0,0,,6,,,54,127
48032,note_off,8,0,0,,7,,,55,127
48115,note_off,83,0,0,,6,,,78,127
48115,note_off,0,0,0,,2,,,74,127
48123,note_on,8,0,0,,2,,,74,127
48123,note_on,0,0,0,,6,,,78,127
48123,note_on,0,0,0,,4,,,52,127
48131,note_off,8,0,0,,6,,,54,127
48222,note_on,91,0,0,,2,,,50,127
48230,note_off,8,0,0,,4,,,52,127
48313,note_off,83,0,0,,6,,,78,127
48313,note_off,0,0,0,,2,,,74,127
48321,note_on,8,0,0,,6,,,78,127
48321,note_on,0,0,0,,2,,,74,127
48321,note_on,0,0,0,,1,,,49,127
48329,note_off,8,0,0,,2,,,50,127
48420,note_on,91,0,0,,12,,,47,127
48428,note_off,8,0,0,,1,,,49,127
48511,note_off,83,0,0,,2,,,74,127
48511,note_off,0,0,0,,6,,,78,127
48519,note_on,8,0,0,,4,,,76,127
48519,note_on,0,0,0,,7,,,79,127
48519,note_on,0,0,0,,10,,,45,127
48527,note_off,8,0,0,,12,,,47,127
48618,note_on,91,0,0,,7,,,43,127
48626,note_off,8,0,0,,10,,,45,127
48709,note_off,83,0,0,,7,,,79,127
48709,note_off,0,0,0,,4,,,76,127
48717,note_on,8,0,0,,10,,,81,127
48717,note_on,0,0,0,,6,,,78,127
48717,note_on,0,0,0,,6,,,42,127
48725,note_off,8,0,0,,7,,,43,127
48907,note_off,182,0,0,,6,,,42,127
48907,note_off,0,0,0,,6,,,78,127
48907,note_off,0,0,0,,10,,,81,127
48915,note_on,8,0,0,,10,,,81,127
48915,note_on,0,0,0,,10,,,69,127
48915,note_on,0,0,0,,6,,,78,127
48915,note_on,0,0,0,,10,,,57,127
49014,note_on,99,0,0,,7,,,55,127
49022,note_off,8,0,0,,10,,,57,127
49105,note_off,83,0,0,,6,,,78,127
49105,note_off,0,0,0,,10,,,69,127
49105,note_off,0,0,0,,10,,,81,127
49113,note_on,8,0,0,,10,,,81,127
49113,note_on,0,0,0,,10,,,69,127
49113,note_on,0,0,0,,6,,,78,127
49113,note_on,0,0,0,,6,,,54,127
49121,note_off,8,0,0,,7,,,55,127
49212,note_on,91,0,0,,4,,,52,127
49220,note_off,8,0,0,,6,,,54,127
49303,note_off,83,0,0,,6,,,78,127
49303,note_off,0,0,0,,10,,,69,127
49303,note_off,0,0,0,,10,,,81,127
49311,note_on,8,0,0,,6,,,78,127
49311,note_on,0,0,0,,10,,,81,127
49311,note_on,0,0,0,,10,,,69,127
49311,note_on,0,0,0,,2,,,50,127
49319,note_off,8,0,0,,4,,,52,127
49410,note_on,91,0,0,,1,,,49,127
49418,note_off,8,0,0,,2,,,50,127
49501,note_off,83,0,0,,10,,,69,127
49501,note_off,0,0,0,,10,,,81,127
49501,note_off,0,0,0,,6,,,78,127
49509,note_on,8,0,0,,10,,,69,127
49509,note_on,0,0,0,,6,,,78,127
49509,note_on,0,0,0,,10,,,81,127
49509,note_on,0,0,0,,12,,,47,127
49517,note_off,8,0,0,,1,,,49,127
49608,note_on,91,0,0,,10,,,45,127
49616,note_off,8,0,0,,12,,,47,127
49699,note_off,83,0,0,,10,,,81,127
49699,note_off,0,0,0,,6,,,78,127
49699,note_off,0,0,0,,10,,,69,127
49707,note_on,8,0,0,,12,,,71,127
49707,note_on,0,0,0,,7,,,79,127
49707,note_on,0,0,0,,12,,,83,127
49707,note_on,0,0,0,,7,,,43,127
49715,note_off,8,0,0,,10,,,45,127
49806,note_on,91,0,0,,6,,,42,127
49814,note_off,8,0,0,,7,,,43,127
49897,note_off,83,0,0,,12,,,83,127
49897,note_off,0,0,0,,7,,,79,127
49897,note_off,0,0,0,,12,,,71,127
49905,note_on,8,0,0,,1,,,85,127
49905,note_on,0,0,0,,1,,,73,127
49905,note_on,0,0,0,,4,,,40,127
49913,note_off,8,0,0,,6,,,42,127
50095,note_off,182,0,0,,4,,,40,127
50095,note_off,0,0,0,,1,,,73,127
50095,note_off,0,0,0,,1,,,85,127
50103,note_on,8,0,0,,1,,,85,127
50103,note_on,0,0,0,,1,,,73,127
50103,note_on,0,0,0,,7,,,55,127
50202,note_on,99,0,0,,6,,,54,127
50210,note_off,8,0,0,,7,,,55,127
50293,note_off,83,0,0,,1,,,73,127
50293,note_off,0,0,0,,1,,,85,127
50301,note_on,8,0,0,,1,,,85,127
50301,note_on,0,0,0,,1,,,73,127
50301,note_on,0,0,0,,4,,,52,127
50309,note_off,8,0,0,,6,,,54,127
50400,note_on,91,0,0,,2,,,50,127
50408,note_off,8,0,0,,4,,,52,127
50491,note_off,83,0,0,,1,,,73,127
50491,note_off,0,0,0,,1,,,85,127
50499,note_on,8,0,0,,1,,,85,127
50499,note_on,0,0,0,,1,,,73,127
50499,note_on,0,0,0,,1,,,49,127
50507,note_off,8,0,0,,2,,,50,127
50598,note_on,91,0,0,,12,,,47,127
50606,note_off,8,0,0,,1,,,49,127
50689,note_off,83,0,0,,1,,,73,127
50689,note_off,0,0,0,,1,,,85,127
50697,note_on,8,0,0,,2,,,74,127
50697,note_on,0,0,0,,2,,,86,127
50697,note_on,0,0,0,,10,,,45,127
50705,note_off,8,0,0,,12,,,47,127
50796,note_on,91,0,0,,7,,,43,127
50804,note_off,8,0,0,,10,,,45,127
50887,note_off,83,0,0,,2,,,86,127
50887,note_off,0,0,0,,2,,,74,127
50895,note_on,8,0,0,,1,,,73,127
50895,note_on,0,0,0,,1,,,85,127
50895,note_on,0,0,0,,6,,,42,127
50903,note_off,8,0,0,,7,,,43,127
50994,note_on,91,0,0,,4,,,40,127
51002,note_off,8,0,0,,6,,,42,127
51085,note_off,83,0,0,,1,,,85,127
51085,note_off,0,0,0,,1,,,73,127
51093,note_on,8,0,0,,2,,,86,127
51093,note_on,0,0,0,,2,,,38,127
51101,note_off,8,0,0,,4,,,40,127
51192,note_on,91,0,0,,1,,,85,127
51200,note_off,8,0,0,,2,,,86,127
51283,note_off,83,0,0,,2,,,38,127
51291,note_on,8,0,0,,12,,,83,127
51291,note_on,0,0,0,,2,,,38,127
51299,note_off,8,0,0,,1,,,85,127
51390,note_on,91,0,0,,10,,,81,127
51398,note_off,8,0,0,,12,,,83,127
51481,note_off,83,0,0,,2,,,38,127
51489,note_on,8,0,0,,7,,,79,127
51489,note_on,0,0,0,,2,,,38,127
51497,note_off,8,0,0,,10,,,81,127
51588,note_on,91,0,0,,6,,,78,127
51596,note_off,8,0,0,,7,,,79,127
51679,note_off,83,0,0,,2,,,38,127
51687,note_on,8,0,0,,4,,,76,127
51687,note_on,0,0,0,,7,,,43,127
51695,note_off,8,0,0,,6,,,78,127
51786,note_on,91,0,0,,6,,,78,127
51794,note_off,8,0,0,,4,,,76,127
51877,note_off,83,0,0,,7,,,43,127
51885,note_on,8,0,0,,4,,,76,127
51885,note_on,0,0,0,,7,,,43,127
51893,note_off,8,0,0,,6,,,78,127
51984,note_on,91,0,0,,2,,,74,127
51992,note_off,8,0,0,,4,,,76,127
52075,note_off,83,0,0,,7,,,43,127
52083,note_on,8,0,0,,1,,,73,127
52083,note_on,0,0,0,,7,,,43,127
52091,note_off,8,0,0,,2,,,74,127
52182,note_on,91,0,0,,12,,,71,127
52190,note_off,8,0,0,,1,,,73,127
52273,note_off,83,0,0,,7,,,43,127
52280,note_off,7,0,0,,12,,,71,127
52281,note_on,1,0,0,,10,,,69,127
52281,note_on,0,0,0,,10,,,45,127
52380,note_on,99,0,0,,8,,,80,127
52388,note_off,8,0,0,,10,,,69,127
52478,note_off,90,0,0,,8,,,80,127
52479,note_on,1,0,0,,10,,,81,127
52573,note_off,94,0,0,,10,,,45,127
52578,note_on,5,0,0,,8,,,68,127
52676,note_off,98,0,0,,8,,,68,127
52677,note_on,1,0,0,,10,,,69,127
52727,note_off,50,0,0,,10,,,81,127
52777,note_on,50,0,0,,8,,,68,127
52785,note_off,8,0,0,,10,,,69,127
52875,note_off,90,0,0,,8,,,68,127
52876,note_on,1,0,0,,10,,,69,127
52975,note_on,99,0,0,,8,,,56,127
53073,note_off,98,0,0,,8,,,56,127
53074,note_on,1,0,0,,10,,,57,127
53124,note_off,50,0,0,,10,,,69,127
53174,note_on,50,0,0,,8,,,56,127
53182,note_off,8,0,0,,10,,,57,127
53272,note_off,90,0,0,,8,,,56,127
53273,note_on,1,0,0,,10,,,57,127
53372,note_on,99,0,0,,8,,,44,127
53470,note_off,98,0,0,,8,,,44,127
53471,note_on,1,0,0,,10,,,45,127
53521,note_off,50,0,0,,10,,,57,127
53571,note_on,50,0,0,,8,,,56,127
53669,note_off,98,0,0,,8,,,56,127
53670,note_on,1,0,0,,10,,,57,127
53720,note_off,50,0,0,,10,,,45,127
53770,note_on,50,0,0,,8,,,56,127
53778,note_off,8,0,0,,10,,,57,127
53868,note_off,90,0,0,,8,,,56,127
53869,note_on,1,0,0,,10,,,57,127
53968,note_on,99,0,0,,8,,,68,127
54066,note_off,98,0,0,,8,,,68,127
54067,note_on,1,0,0,,10,,,69,127
54117,note_off,50,0,0,,10,,,57,127
54167,note_on,50,0,0,,8,,,68,127
54175,note_off,8,0,0,,10,,,69,127
54265,note_off,90,0,0,,8,,,68,127
54266,note_on,1,0,0,,10,,,69,127
54365,note_on,99,0,0,,8,,,80,127
54463,note_off,98,0,0,,8,,,80,127
54464,note_on,1,0,0,,10,,,81,127
54514,note_off,50,0,0,,10,,,69,127
54557,note_off,43,0,0,,10,,,81,127
54563,note_on,6,0,0,,5,,,65,127
54662,note_on,99,0,0,,7,,,67,127
54670,note_off,8,0,0,,5,,,65,127
54695,note_on,25,0,0,,6,,,66,127
54703,note_off,8,0,0,,7,,,67,127
54728,note_on,25,0,0,,7,,,67,127
54736,note_off,8,0,0,,6,,,66,127
54761,note_on,25,0,0,,6,,,66,127
54769,note_off,8,0,0,,7,,,67,127
55216,note_off,447,0,0,,6,,,66,127
55257,note_on,41,0,0,,6,,,78,127
55257,note_on,0,0,0,,2,,,86,127
55356,note_on,99,0,0,,2,,,50,127
55447,note_off,91,0,0,,2,,,86,127
55447,note_off,0,0,0,,6,,,78,127
55455,note_on,8,0,0,,6,,,78,127
55455,note_on,0,0,0,,2,,,86,127
55455,note_on,0,0,0,,6,,,54,127
55463,note_off,8,0,0,,2,,,50,127
55554,note_on,91,0,0,,10,,,57,127
55562,note_off,8,0,0,,6,,,54,127
55645,note_off,83,0,0,,2,,,86,127
55645,note_off,0,0,0,,6,,,78,127
55653,note_on,8,0,0,,6,,,78,127
55653,note_on,0,0,0,,2,,,86,127
55653,note_on,0,0,0,,2,,,62,127
55661,note_off,8,0,0,,10,,,57,127
55752,note_on,91,0,0,,6,,,66,127
55760,note_off,8,0,0,,2,,,62,127
55843,note_off,83,0,0,,2,,,86,127
55843,note_off,0,0,0,,6,,,78,127
55851,note_on,8,0,0,,12,,,71,127
55851,note_on,0,0,0,,10,,,69,127
55859,note_off,8,0,0,,6,,,66,127
55950,note_on,91,0,0,,1,,,73,127
55958,note_off,8,0,0,,12,,,71,127
56041,note_off,83,0,0,,10,,,69,127
56049,note_on,8,0,0,,2,,,74,127
56049,note_on,0,0,0,,7,,,67,127
56057,note_off,8,0,0,,1,,,73,127
56148,note_on,91,0,0,,4,,,76,127
56156,note_off,8,0,0,,2,,,74,127
56239,note_off,83,0,0,,7,,,67,127
56247,note_on,8,0,0,,6,,,78,127
56247,note_on,0,0,0,,6,,,66,127
56255,note_off,8,0,0,,4,,,76,127
56346,note_on,91,0,0,,7,,,79,127
56354,note_off,8,0,0,,6,,,78,127
56422,note_off,68,0,0,,6,,,66,127
56439,note_off,17,0,0,,7,,,79,127
56445,note_on,6,0,0,,6,,,78,127
56445,note_on,0,0,0,,2,,,86,127
56544,note_on,99,0,0,,2,,,50,127
56635,note_off,91,0,0,,2,,,86,127
56635,note_off,0,0,0,,6,,,78,127
56643,note_on,8,0,0,,2,,,86,127
56643,note_on,0,0,0,,6,,,78,127
56643,note_on,0,0,0,,6,,,54,127
56651,note_off,8,0,0,,2,,,50,127
56742,note_on,91,0,0,,10,,,57,127
56750,note_off,8,0,0,,6,,,54,127
56833,note_off,83,0,0,,6,,,78,127
56833,note_off,0,0,0,,2,,,86,127
56841,note_on,8,0,0,,6,,,78,127
56841,note_on,0,0,0,,2,,,86,127
56841,note_on,0,0,0,,2,,,62,127
56849,note_off,8,0,0,,10,,,57,127
56940,note_on,91,0,0,,6,,,66,127
56948,note_off,8,0,0,,2,,,62,127
57031,note_off,83,0,0,,2,,,86,127
57031,note_off,0,0,0,,6,,,78,127
57039,note_on,8,0,0,,12,,,71,127
57039,note_on,0,0,0,,7,,,67,127
57047,note_off,8,0,0,,6,,,66,127
57138,note_on,91,0,0,,1,,,73,127
57146,note_off,8,0,0,,12,,,71,127
57229,note_off,83,0,0,,7,,,67,127
57237,note_on,8,0,0,,2,,,74,127
57237,note_on,0,0,0,,6,,,66,127
57245,note_off,8,0,0,,1,,,73,127
57336,note_on,91,0,0,,4,,,76,127
57344,note_off,8,0,0,,2,,,74,127
57427,note_off,83,0,0,,6,,,66,127
57435,note_on,8,0,0,,6,,,78,127
57435,note_on,0,0,0,,4,,,64,127
57443,note_off,8,0,0,,4,,,76,127
57534,note_on,91,0,0,,7,,,79,127
57542,note_off,8,0,0,,6,,,78,127
57625,note_off,83,0,0,,4,,,64,127
57627,note_off,2,0,0,,7,,,79,127
57633,note_on,6,0,0,,2,,,86,127
57633,note_on,0,0,0,,2,,,62,127
57732,note_on,99,0,0,,6,,,78,127
57740,note_off,8,0,0,,2,,,86,127
57823,note_off,83,0,0,,2,,,62,127
57831,note_on,8,0,0,,7,,,79,127
57831,note_on,0,0,0,,4,,,64,127
57839,note_off,8,0,0,,6,,,78,127
57930,note_on,91,0,0,,4,,,76,127
57938,note_off,8,0,0,,7,,,79,127
58021,note_off,83,0,0,,4,,,64,127
58029,note_on,8,0,0,,10,,,81,127
58029,note_on,0,0,0,,6,,,66,127
58037,note_off,8,0,0,,4,,,76,127
58128,note_on,91,0,0,,6,,,78,127
58136,note_off,8,0,0,,10,,,81,127
58219,note_off,83,0,0,,6,,,66,127
58227,note_on,8,0,0,,12,,,83,127
58227,note_on,0,0,0,,7,,,67,127
58235,note_off,8,0,0,,6,,,78,127
58326,note_on,91,0,0,,7,,,79,127
58334,note_off,8,0,0,,12,,,83,127
58417,note_off,83,0,0,,7,,,67,127
58425,note_on,8,0,0,,6,,,78,127
58425,note_on,0,0,0,,10,,,69,127
58433,note_off,8,0,0,,7,,,79,127
58524,note_on,91,0,0,,4,,,76,127
58532,note_off,8,0,0,,6,,,78,127
58615,note_off,83,0,0,,10,,,69,127
58623,note_on,8,0,0,,2,,,74,127
58623,note_on,0,0,0,,10,,,57,127
58631,note_off,8,0,0,,4,,,76,127
58722,note_on,91,0,0,,1,,,73,127
58730,note_off,8,0,0,,2,,,74,127
58815,note_off,85,0,0,,1,,,73,127
58819,note_off,4,0,0,,10,,,57,127
58821,note_on,2,0,0,,2,,,86,127
58821,note_on,0,0,0,,6,,,78,127
58920,note_on,99,0,0,,2,,,50,127
59011,note_off,91,0,0,,6,,,78,127
59011,note_off,0,0,0,,2,,,86,127
59019,note_on,8,0,0,,2,,,86,127
59019,note_on,0,0,0,,6,,,78,127
59019,note_on,0,0,0,,6,,,54,127
59027,note_off,8,0,0,,2,,,50,127
59118,note_on,91,0,0,,10,,,57,127
59126,note_off,8,0,0,,6,,,54,127
59209,note_off,83,0,0,,6,,,78,127
59209,note_off,0,0,0,,2,,,86,127
59217,note_on,8,0,0,,6,,,78,127
59217,note_on,0,0,0,,2,,,86,127
59217,note_on,0,0,0,,2,,,62,127
59225,note_off,8,0,0,,10,,,57,127
59316,note_on,91,0,0,,6,,,66,127
59324,note_off,8,0,0,,2,,,62,127
59407,note_off,83,0,0,,2,,,86,127
59407,note_off,0,0,0,,6,,,78,127
59415,note_on,8,0,0,,12,,,71,127
59415,note_on,0,0,0,,7,,,67,127
59423,note_off,8,0,0,,6,,,66,127
59514,note_on,91,0,0,,1,,,73,127
59522,note_off,8,0,0,,12,,,71,127
59605,note_off,83,0,0,,7,,,67,127
59613,note_on,8,0,0,,2,,,74,127
59613,note_on,0,0,0,,6,,,66,127
59621,note_off,8,0,0,,1,,,73,127
59712,note_on,91,0,0,,4,,,76,127
59720,note_off,8,0,0,,2,,,74,127
59803,note_off,83,0,0,,6,,,66,127
59811,note_on,8,0,0,,6,,,78,127
59811,note_on,0,0,0,,4,,,64,127
59819,note_off,8,0,0,,4,,,76,127
59910,note_on,91,0,0,,7,,,79,127
59918,note_off,8,0,0,,6,,,78,127
59986,note_off,68,0,0,,4,,,64,127
60003,note_off,17,0,0,,7,,,79,127
60009,note_on,6,0,0,,6,,,78,127
60009,note_on,0,0,0,,2,,,86,127
60108,note_on,99,0,0,,2,,,50,127
60199,note_off,91,0,0,,2,,,86,127
60199,note_off,0,0,0,,6,,,78,127
60207,note_on,8,0,0,,2,,,86,127
60207,note_on,0,0,0,,6,,,78,127
60207,note_on,0,0,0,,6,,,54,127
60215,note_off,8,0,0,,2,,,50,127
60306,note_on,91,0,0,,10,,,57,127
60314,note_off,8,0,0,,6,,,54,127
60397,note_off,83,0,0,,6,,,78,127
60397,note_off,0,0,0,,2,,,86,127
60405,note_on,8,0,0,,6,,,78,127
60405,note_on,0,0,0,,2,,,86,127
60405,note_on,0,0,0,,2,,,62,127
60413,note_off,8,0,0,,10,,,57,127
60504,note_on,91,0,0,,6,,,66,127
60512,note_off,8,0,0,,2,,,62,127
60595,note_off,83,0,0,,2,,,86,127
60595,note_off,0,0,0,,6,,,78,127
60603,note_on,8,0,0,,12,,,71,127
60603,note_on,0,0,0,,7,,,67,127
60611,note_off,8,0,0,,6,,,66,127
60702,note_on,91,0,0,,1,,,73,127
60710,note_off,8,0,0,,12,,,71,127
60793,note_off,83,0,0,,7,,,67,127
60801,note_on,8,0,0,,2,,,74,127
60801,note_on,0,0,0,,6,,,66,127
60809,note_off,8,0,0,,1,,,73,127
60900,note_on,91,0,0,,4,,,76,127
60908,note_off,8,0,0,,2,,,74,127
60991,note_off,83,0,0,,6,,,66,127
60999,note_on,8,0,0,,6,,,78,127
60999,note_on,0,0,0,,4,,,64,127
61007,note_off,8,0,0,,4,,,76,127
61098,note_on,91,0,0,,7,,,79,127
61106,note_off,8,0,0,,6,,,78,127
61189,note_off,83,0,0,,4,,,64,127
61191,note_off,2,0,0,,7,,,79,127
61197,note_on,6,0,0,,2,,,86,127
61197,note_on,0,0,0,,2,,,62,127
61296,note_on,99,0,0,,6,,,78,127
61304,note_off,8,0,0,,2,,,86,127
61387,note_off,83,0,0,,2,,,62,127
61395,note_on,8,0,0,,7,,,79,127
61395,note_on,0,0,0,,4,,,64,127
61403,note_off,8,0,0,,6,,,78,127
61494,note_on,91,0,0,,4,,,76,127
61502,note_off,8,0,0,,7,,,79,127
61585,note_off,83,0,0,,4,,,64,127
61593,note_on,8,0,0,,10,,,81,127
61593,note_on,0,0,0,,6,,,66,127
61601,note_off,8,0,0,,4,,,76,127
61692,note_on,91,0,0,,6,,,78,127
61700,note_off,8,0,0,,10,,,81,127
61783,note_off,83,0,0,,6,,,66,127
61791,note_on,8,0,0,,12,,,83,127
61791,note_on,0,0,0,,7,,,67,127
61799,note_off,8,0,0,,6,,,78,127
61890,note_on,91,0,0,,7,,,79,127
61898,note_off,8,0,0,,12,,,83,127
61981,note_off,83,0,0,,7,,,67,127
61989,note_on,8,0,0,,6,,,78,127
61989,note_on,0,0,0,,10,,,69,127
61997,note_off,8,0,0,,7,,,79,127
62088,note_on,91,0,0,,4,,,76,127
62096,note_off,8,0,0,,6,,,78,127
62179,note_off,83,0,0,,10,,,69,127
62187,note_on,8,0,0,,2,,,74,127
62187,note_on,0,0,0,,10,,,57,127
62195,note_off,8,0,0,,4,,,76,127
62286,note_on,91,0,0,,1,,,73,127
62294,note_off,8,0,0,,2,,,74,127
62377,note_off,83,0,0,,10,,,57,127
62385,note_on,8,0,0,,2,,,74,127
62385,note_on,0,0,0,,2,,,62,127
62393,note_off,8,0,0,,1,,,73,127
62575,note_off,182,0,0,,2,,,62,127
62575,note_off,0,0,0,,2,,,74,127
62583,note_on,8,0,0,,6,,,78,127
62583,note_on,0,0,0,,2,,,74,127
62583,note_on,0,0,0,,2,,,62,127
62681,note_off,98,0,0,,2,,,74,127
62682,note_on,1,0,0,,2,,,74,127
62759,note_off,77,0,0,,2,,,62,127
62773,note_off,14,0,0,,6,,,78,127
62780,note_off,7,0,0,,2,,,74,127
62781,note_on,1,0,0,,2,,,74,127
62781,note_on,0,0,0,,6,,,78,127
62781,note_on,0,0,0,,1,,,61,127
62880,note_on,99,0,0,,1,,,73,127
62957,note_off,77,0,0,,1,,,61,127
62971,note_off,14,0,0,,6,,,78,127
62971,note_off,0,0,0,,2,,,74,127
62979,note_on,8,0,0,,2,,,74,127
62979,note_on,0,0,0,,6,,,78,127
62979,note_on,0,0,0,,12,,,59,127
63004,note_off,25,0,0,,1,,,73,127
63078,note_on,74,0,0,,12,,,71,127
63155,note_off,77,0,0,,12,,,59,127
63169,note_off,14,0,0,,6,,,78,127
63169,note_off,0,0,0,,2,,,74,127
63177,note_on,8,0,0,,2,,,74,127
63177,note_on,0,0,0,,6,,,78,127
63177,note_on,0,0,0,,10,,,57,127
63202,note_off,25,0,0,,12,,,71,127
63276,note_on,74,0,0,,10,,,69,127
63353,note_off,77,0,0,,10,,,57,127
63367,note_off,14,0,0,,6,,,78,127
63367,note_off,0,0,0,,2,,,74,127
63375,note_on,8,0,0,,2,,,74,127
63375,note_on,0,0,0,,6,,,78,127
63375,note_on,0,0,0,,7,,,55,127
63400,note_off,25,0,0,,10,,,69,127
63474,note_on,74,0,0,,7,,,67,127
63551,note_off,77,0,0,,7,,,55,127
63565,note_off,14,0,0,,6,,,78,127
63565,note_off,0,0,0,,2,,,74,127
63573,note_on,8,0,0,,6,,,78,127
63573,note_on,0,0,0,,2,,,74,127
63573,note_on,0,0,0,,6,,,54,127
63598,note_off,25,0,0,,7,,,67,127
63672,note_on,74,0,0,,6,,,66,127
63749,note_off,77,0,0,,6,,,54,127
63763,note_off,14,0,0,,2,,,74,127
63763,note_off,0,0,0,,6,,,78,127
63771,note_on,8,0,0,,7,,,79,127
63771,note_on,0,0,0,,4,,,76,127
63771,note_on,0,0,0,,4,,,52,127
63796,note_off,25,0,0,,6,,,66,127
63870,note_on,74,0,0,,4,,,64,127
63947,note_off,77,0,0,,4,,,52,127
63961,note_off,14,0,0,,4,,,76,127
63961,note_off,0,0,0,,7,,,79,127
63969,note_on,8,0,0,,10,,,81,127
63969,note_on,0,0,0,,6,,,78,127
63969,note_on,0,0,0,,2,,,50,127
63994,note_off,25,0,0,,4,,,64,127
64068,note_on,74,0,0,,2,,,62,127
64145,note_off,77,0,0,,2,,,50,127
64159,note_off,14,0,0,,6,,,78,127
64159,note_off,0,0,0,,10,,,81,127
64167,note_on,8,0,0,,10,,,81,127
64167,note_on,0,0,0,,7,,,79,127
64167,note_on,0,0,0,,4,,,76,127
64167,note_on,0,0,0,,7,,,55,127
64244,note_off,77,0,0,,2,,,62,127
64358,note_off,114,0,0,,7,,,55,127
64358,note_off,0,0,0,,4,,,76,127
64358,note_off,0,0,0,,7,,,79,127
64358,note_off,0,0,0,,10,,,81,127
64366,note_on,8,0,0,,2,,,74,127
64366,note_on,0,0,0,,6,,,78,127
64366,note_on,0,0,0,,10,,,57,127
64556,note_off,190,0,0,,6,,,78,127
64556,note_off,0,0,0,,2,,,74,127
64564,note_on,8,0,0,,1,,,73,127
64564,note_on,0,0,0,,4,,,76,127
64564,note_on,0,0,0,,10,,,45,127
64754,note_off,190,0,0,,10,,,45,127
64754,note_off,0,0,0,,4,,,76,127
64754,note_off,0,0,0,,1,,,73,127
64758,note_off,4,0,0,,10,,,57,127
64762,note_on,4,0,0,,2,,,74,127
64762,note_on,0,0,0,,2,,,50,127
64952,note_off,190,0,0,,2,,,50,127
64952,note_off,0,0,0,,2,,,74,127
64966,note_on,14,0,0,,2,,,74,127
64966,note_on,0,0,0,,6,,,66,127
64966,note_on,0,0,0,,2,,,50,127
65066,note_on,100,0,0,,2,,,62,127
65143,note_off,77,0,0,,2,,,50,127
65157,note_off,14,0,0,,6,,,66,127
65157,note_off,0,0,0,,2,,,74,127
65166,note_on,9,0,0,,2,,,74,127
65166,note_on,0,0,0,,6,,,66,127
65166,note_on,0,0,0,,1,,,49,127
65212,note_off,46,0,0,,2,,,62,127
65267,note_on,55,0,0,,1,,,61,127
65344,note_off,77,0,0,,1,,,49,127
65358,note_off,14,0,0,,6,,,66,127
65358,note_off,0,0,0,,2,,,74,127
65367,note_on,9,0,0,,2,,,74,127
65367,note_on,0,0,0,,6,,,66,127
65367,note_on,0,0,0,,12,,,47,127
65413,note_off,46,0,0,,1,,,61,127
65468,note_on,55,0,0,,12,,,59,127
65545,note_off,77,0,0,,12,,,47,127
65559,note_off,14,0,0,,6,,,66,127
65559,note_off,0,0,0,,2,,,74,127
65568,note_on,9,0,0,,2,,,74,127
65568,note_on,0,0,0,,6,,,66,127
65568,note_on,0,0,0,,10,,,45,127
65614,note_off,46,0,0,,12,,,59,127
65669,note_on,55,0,0,,10,,,57,127
65746,note_off,77,0,0,,10,,,45,127
65760,note_off,14,0,0,,6,,,66,127
65760,note_off,0,0,0,,2,,,74,127
65769,note_on,9,0,0,,6,,,66,127
65769,note_on,0,0,0,,2,,,74,127
65769,note_on,0,0,0,,7,,,43,127
65815,note_off,46,0,0,,10,,,57,127
65870,note_on,55,0,0,,7,,,55,127
65947,note_off,77,0,0,,7,,,43,127
65961,note_off,14,0,0,,2,,,74,127
65961,note_off,0,0,0,,6,,,66,127
65970,note_on,9,0,0,,2,,,74,127
65970,note_on,0,0,0,,6,,,66,127
65970,note_on,0,0,0,,6,,,42,127
66016,note_off,46,0,0,,7,,,55,127
66071,note_on,55,0,0,,6,,,54,127
66148,note_off,77,0,0,,6,,,42,127
66162,note_off,14,0,0,,6,,,66,127
66162,note_off,0,0,0,,2,,,74,127
66171,note_on,9,0,0,,7,,,67,127
66171,note_on,0,0,0,,4,,,76,127
66171,note_on,0,0,0,,4,,,40,127
66217,note_off,46,0,0,,6,,,54,127
66272,note_on,55,0,0,,4,,,52,127
66349,note_off,77,0,0,,4,,,40,127
66363,note_off,14,0,0,,4,,,76,127
66363,note_off,0,0,0,,7,,,67,127
66372,note_on,9,0,0,,6,,,78,127
66372,note_on,0,0,0,,10,,,69,127
66372,note_on,0,0,0,,2,,,38,127
66418,note_off,46,0,0,,4,,,52,127
66473,note_on,55,0,0,,2,,,50,127
66550,note_off,77,0,0,,2,,,38,127
66564,note_off,14,0,0,,10,,,69,127
66564,note_off,0,0,0,,6,,,78,127
66578,note_on,14,0,0,,7,,,43,127
66578,note_on,0,0,0,,7,,,67,127
66578,note_on,0,0,0,,6,,,78,127
66578,note_on,0,0,0,,4,,,76,127
66649,note_off,71,0,0,,2,,,50,127
66780,note_off,131,0,0,,4,,,76,127
66780,note_off,0,0,0,,6,,,78,127
66780,note_off,0,0,0,,7,,,67,127
66780,note_off,0,0,0,,7,,,43,127
66794,note_on,14,0,0,,10,,,45,127
66794,note_on,0,0,0,,6,,,66,127
66794,note_on,0,0,0,,2,,,74,127
66997,note_off,203,0,0,,2,,,74,127
66997,note_off,0,0,0,,6,,,66,127
67019,note_on,22,0,0,,10,,,33,127
67019,note_on,0,0,0,,4,,,64,127
67019,note_on,0,0,0,,1,,,73,127
67213,note_off,194,0,0,,10,,,45,127
67221,note_off,8,0,0,,4,,,64,127
67221,note_off,0,0,0,,10,,,33,127
67248,note_off,27,0,0,,1,,,73,127
67264,note_on,16,0,0,,2,,,74,127
67264,note_on,0,0,0,,2,,,62,127
67264,note_on,0,0,0,,2,,,50,127
67264,note_on,0,0,0,,2,,,38,127
69236,note_off,1972,0,0,,2,,,38,127
69236,note_off,0,0,0,,2,,,62,127
69236,note_off,0,0,0,,2,,,74,127
69250,note_off,14,0,0,,2,,,50,127
75264,end_of_track,6014,1,0,,,,,,
