tick,type,time,meta,track,program,channel,pitch,tempo,note,velocity
0,copyright,0,1,0,,,,,,
0,program_change,0,0,0,6,0,,,,
0,pitchwheel,0,0,0,,0,0,,,
0,program_change,0,0,0,6,1,,,,
0,pitchwheel,0,0,0,,1,-590,,,
0,program_change,0,0,0,6,2,,,,
0,pitchwheel,0,0,0,,2,-272,,,
0,program_change,0,0,0,6,3,,,,
0,pitchwheel,0,0,0,,3,-353,,,
0,program_change,0,0,0,6,4,,,,
0,pitchwheel,0,0,0,,4,-560,,,
0,program_change,0,0,0,6,5,,,,
0,pitchwheel,0,0,0,,5,-80,,,
0,program_change,0,0,0,6,6,,,,
0,pitchwheel,0,0,0,,6,-625,,,
0,program_change,0,0,0,6,7,,,,
0,pitchwheel,0,0,0,,7,-130,,,
0,program_change,0,0,0,6,8,,,,
0,pitchwheel,0,0,0,,8,-512,,,
0,program_change,0,0,0,6,10,,,,
0,pitchwheel,0,0,0,,10,-464,,,
0,program_change,0,0,0,6,11,,,,
0,pitchwheel,0,0,0,,11,-208,,,
0,program_change,0,0,0,6,12,,,,
0,pitchwheel,0,0,0,,12,-553,,,
0,set_tempo,0,1,0,,,,500000,,
165,note_on,165,0,0,,0,,,72,127
1151,note_off,986,0,0,,0,,,72,127
1153,note_on,2,0,0,,2,,,74,127
1316,note_off,163,0,0,,2,,,74,127
1318,note_on,2,0,0,,11,,,70,127
1481,note_off,163,0,0,,11,,,70,127
1483,note_on,2,0,0,,0,,,72,127
1646,note_off,163,0,0,,0,,,72,127
1648,note_on,2,0,0,,7,,,67,127
1811,note_off,163,0,0,,7,,,67,127
1813,note_on,2,0,0,,10,,,69,127
1976,note_off,163,0,0,,10,,,69,127
1978,note_on,2,0,0,,11,,,70,127
2141,note_off,163,0,0,,11,,,70,127
2143,note_on,2,0,0,,0,,,60,127
2143,note_on,0,0,0,,0,,,72,127
2306,note_off,163,0,0,,0,,,72,127
2308,note_on,2,0,0,,2,,,74,127
2471,note_off,163,0,0,,2,,,74,127
2473,note_on,2,0,0,,4,,,76,127
2636,note_off,163,0,0,,4,,,76,127
2638,note_on,2,0,0,,5,,,77,127
2801,note_off,163,0,0,,5,,,77,127
2803,note_on,2,0,0,,7,,,79,127
2966,note_off,163,0,0,,7,,,79,127
2968,note_on,2,0,0,,4,,,76,127
3131,note_off,163,0,0,,4,,,76,127
3131,note_off,0,0,0,,0,,,60,127
3133,note_on,2,0,0,,2,,,62,127
3133,note_on,0,0,0,,5,,,77,127
3296,note_off,163,0,0,,2,,,62,127
3298,note_on,2,0,0,,11,,,58,127
3461,note_off,163,0,0,,11,,,58,127
3463,note_on,2,0,0,,0,,,60,127
3626,note_off,163,0,0,,0,,,60,127
3626,note_off,0,0,0,,5,,,77,127
3628,note_on,2,0,0,,7,,,55,127
3628,note_on,0,0,0,,4,,,76,127
3791,note_off,163,0,0,,4,,,76,127
3791,note_off,0,0,0,,7,,,55,127
3793,note_on,2,0,0,,10,,,57,127
3793,note_on,0,0,0,,5,,,77,127
3956,note_off,163,0,0,,5,,,77,127
3956,note_off,0,0,0,,10,,,57,127
3958,note_on,2,0,0,,11,,,58,127
3958,note_on,0,0,0,,7,,,79,127
4121,note_off,163,0,0,,7,,,79,127
4121,note_off,0,0,0,,11,,,58,127
4123,note_on,2,0,0,,0,,,60,127
4123,note_on,0,0,0,,4,,,76,127
4286,note_off,163,0,0,,4,,,76,127
4286,note_off,0,0,0,,0,,,60,127
4288,note_on,2,0,0,,2,,,62,127
4288,note_on,0,0,0,,2,,,74,127
4451,note_off,163,0,0,,2,,,74,127
4451,note_off,0,0,0,,2,,,62,127
4453,note_on,2,0,0,,4,,,64,127
4453,note_on,0,0,0,,0,,,72,127
4616,note_off,163,0,0,,4,,,64,127
4618,note_on,2,0,0,,5,,,65,127
4781,note_off,163,0,0,,5,,,65,127
4783,note_on,2,0,0,,7,,,67,127
4946,note_off,163,0,0,,7,,,67,127
4946,note_off,0,0,0,,0,,,72,127
4948,note_on,2,0,0,,4,,,64,127
4948,note_on,0,0,0,,11,,,70,127
5111,note_off,163,0,0,,11,,,70,127
5111,note_off,0,0,0,,4,,,64,127
5113,note_on,2,0,0,,5,,,65,127
5113,note_on,0,0,0,,10,,,69,127
5276,note_off,163,0,0,,10,,,69,127
5278,note_on,2,0,0,,7,,,79,127
5441,note_off,163,0,0,,7,,,79,127
5443,note_on,2,0,0,,5,,,77,127
5606,note_off,163,0,0,,5,,,65,127
5608,note_on,2,0,0,,4,,,64,127
5771,note_off,163,0,0,,4,,,64,127
5773,note_on,2,0,0,,2,,,62,127
5924,note_off,151,0,0,,5,,,77,127
5936,note_off,12,0,0,,2,,,62,127
5938,note_on,2,0,0,,0,,,60,127
6101,note_off,163,0,0,,0,,,60,127
6103,note_on,2,0,0,,11,,,58,127
6103,note_on,0,0,0,,2,,,74,127
6103,note_on,0,0,0,,4,,,76,127
6266,note_off,163,0,0,,4,,,76,127
6266,note_off,0,0,0,,2,,,74,127
6268,note_on,2,0,0,,0,,,72,127
6431,note_off,163,0,0,,0,,,72,127
6431,note_off,0,0,0,,11,,,58,127
6433,note_on,2,0,0,,0,,,60,127
6433,note_on,0,0,0,,0,,,72,127
6596,note_off,163,0,0,,0,,,72,127
6598,note_on,2,0,0,,11,,,70,127
6761,note_off,163,0,0,,11,,,70,127
6761,note_off,0,0,0,,0,,,60,127
6763,note_on,2,0,0,,4,,,64,127
6763,note_on,0,0,0,,11,,,70,127
6926,note_off,163,0,0,,11,,,70,127
6928,note_on,2,0,0,,10,,,69,127
7091,note_off,163,0,0,,10,,,69,127
7091,note_off,0,0,0,,4,,,64,127
7093,note_on,2,0,0,,5,,,65,127
7093,note_on,0,0,0,,10,,,69,127
7256,note_off,163,0,0,,10,,,69,127
7258,note_on,2,0,0,,7,,,79,127
7421,note_off,163,0,0,,7,,,79,127
7423,note_on,2,0,0,,5,,,77,127
7586,note_off,163,0,0,,5,,,65,127
7588,note_on,2,0,0,,4,,,64,127
7751,note_off,163,0,0,,4,,,64,127
7753,note_on,2,0,0,,2,,,62,127
7916,note_off,163,0,0,,2,,,62,127
7918,note_on,2,0,0,,0,,,60,127
7939,note_off,21,0,0,,5,,,77,127
8081,note_off,142,0,0,,0,,,60,127
8083,note_on,2,0,0,,11,,,58,127
8083,note_on,0,0,0,,2,,,74,127
8083,note_on,0,0,0,,4,,,76,127
8246,note_off,163,0,0,,4,,,76,127
8246,note_off,0,0,0,,2,,,74,127
8248,note_on,2,0,0,,0,,,72,127
8411,note_off,163,0,0,,0,,,72,127
8411,note_off,0,0,0,,11,,,58,127
8413,note_on,2,0,0,,0,,,60,127
8413,note_on,0,0,0,,0,,,72,127
8576,note_off,163,0,0,,0,,,72,127
8578,note_on,2,0,0,,11,,,70,127
8741,note_off,163,0,0,,11,,,70,127
8741,note_off,0,0,0,,0,,,60,127
8743,note_on,2,0,0,,4,,,64,127
8743,note_on,0,0,0,,11,,,70,127
8906,note_off,163,0,0,,11,,,70,127
8908,note_on,2,0,0,,10,,,69,127
9071,note_off,163,0,0,,10,,,69,127
9071,note_off,0,0,0,,4,,,64,127
9073,note_on,2,0,0,,5,,,65,127
9073,note_on,0,0,0,,10,,,69,127
9236,note_off,163,0,0,,10,,,69,127
9238,note_on,2,0,0,,7,,,79,127
9401,note_off,163,0,0,,7,,,79,127
9403,note_on,2,0,0,,5,,,77,127
9566,note_off,163,0,0,,5,,,65,127
9568,note_on,2,0,0,,4,,,64,127
9731,note_off,163,0,0,,4,,,64,127
9733,note_on,2,0,0,,2,,,62,127
9896,note_off,163,0,0,,2,,,62,127
9898,note_on,2,0,0,,0,,,60,127
9953,note_off,55,0,0,,5,,,77,127
10061,note_off,108,0,0,,0,,,60,127
10063,note_on,2,0,0,,11,,,58,127
10063,note_on,0,0,0,,7,,,67,127
10063,note_on,0,0,0,,5,,,77,127
10063,note_on,0,0,0,,7,,,79,127
10226,note_off,163,0,0,,7,,,79,127
10226,note_off,0,0,0,,5,,,77,127
10228,note_on,2,0,0,,4,,,76,127
10391,note_off,163,0,0,,4,,,76,127
10391,note_off,0,0,0,,7,,,67,127
10391,note_off,0,0,0,,11,,,58,127
10393,note_on,2,0,0,,5,,,65,127
10393,note_on,0,0,0,,10,,,57,127
10393,note_on,0,0,0,,4,,,76,127
10556,note_off,163,0,0,,4,,,76,127
10558,note_on,2,0,0,,2,,,74,127
10721,note_off,163,0,0,,2,,,74,127
10721,note_off,0,0,0,,5,,,65,127
10723,note_on,2,0,0,,4,,,64,127
10723,note_on,0,0,0,,2,,,74,127
10886,note_off,163,0,0,,2,,,74,127
10888,note_on,2,0,0,,1,,,73,127
11046,note_off,158,0,0,,10,,,57,127
11051,note_off,5,0,0,,1,,,73,127
11051,note_off,0,0,0,,4,,,64,127
11053,note_on,2,0,0,,2,,,62,127
11053,note_on,0,0,0,,2,,,74,127
11216,note_off,163,0,0,,2,,,74,127
11218,note_on,2,0,0,,7,,,79,127
11381,note_off,163,0,0,,7,,,79,127
11383,note_on,2,0,0,,5,,,77,127
11546,note_off,163,0,0,,2,,,62,127
11548,note_on,2,0,0,,0,,,60,127
11711,note_off,163,0,0,,0,,,60,127
11713,note_on,2,0,0,,11,,,58,127
11876,note_off,163,0,0,,11,,,58,127
11878,note_on,2,0,0,,10,,,57,127
11967,note_off,89,0,0,,5,,,77,127
12041,note_off,74,0,0,,10,,,57,127
12043,note_on,2,0,0,,7,,,55,127
12043,note_on,0,0,0,,7,,,67,127
12043,note_on,0,0,0,,7,,,79,127
12043,note_on,0,0,0,,5,,,77,127
12206,note_off,163,0,0,,5,,,77,127
12206,note_off,0,0,0,,7,,,79,127
12208,note_on,2,0,0,,4,,,76,127
12371,note_off,163,0,0,,4,,,76,127
12371,note_off,0,0,0,,7,,,67,127
12371,note_off,0,0,0,,7,,,55,127
12373,note_on,2,0,0,,10,,,57,127
12373,note_on,0,0,0,,5,,,65,127
12373,note_on,0,0,0,,4,,,76,127
12536,note_off,163,0,0,,4,,,76,127
12538,note_on,2,0,0,,2,,,74,127
12701,note_off,163,0,0,,2,,,74,127
12701,note_off,0,0,0,,5,,,65,127
12703,note_on,2,0,0,,4,,,64,127
12703,note_on,0,0,0,,2,,,74,127
12866,note_off,163,0,0,,2,,,74,127
12868,note_on,2,0,0,,1,,,73,127
13026,note_off,158,0,0,,10,,,57,127
13031,note_off,5,0,0,,1,,,73,127
13031,note_off,0,0,0,,4,,,64,127
13033,note_on,2,0,0,,2,,,62,127
13033,note_on,0,0,0,,2,,,74,127
13196,note_off,163,0,0,,2,,,74,127
13198,note_on,2,0,0,,7,,,79,127
13361,note_off,163,0,0,,7,,,79,127
13363,note_on,2,0,0,,5,,,77,127
13526,note_off,163,0,0,,2,,,62,127
13528,note_on,2,0,0,,0,,,60,127
13691,note_off,163,0,0,,0,,,60,127
13693,note_on,2,0,0,,12,,,59,127
13856,note_off,163,0,0,,12,,,59,127
13858,note_on,2,0,0,,10,,,57,127
13981,note_off,123,0,0,,5,,,77,127
14020,note_off,39,0,0,,10,,,57,127
14022,note_on,2,0,0,,7,,,55,127
14022,note_on,0,0,0,,4,,,76,127
14022,note_on,0,0,0,,5,,,77,127
14185,note_off,163,0,0,,5,,,77,127
14185,note_off,0,0,0,,4,,,76,127
14187,note_on,2,0,0,,2,,,74,127
14350,note_off,163,0,0,,2,,,74,127
14352,note_on,2,0,0,,7,,,67,127
14352,note_on,0,0,0,,2,,,74,127
14400,note_off,48,0,0,,7,,,55,127
14515,note_off,115,0,0,,2,,,74,127
14517,note_on,2,0,0,,0,,,72,127
14680,note_off,163,0,0,,0,,,72,127
14680,note_off,0,0,0,,7,,,67,127
14682,note_on,2,0,0,,5,,,65,127
14682,note_on,0,0,0,,0,,,72,127
14845,note_off,163,0,0,,0,,,72,127
14847,note_on,2,0,0,,12,,,71,127
15010,note_off,163,0,0,,12,,,71,127
15010,note_off,0,0,0,,5,,,65,127
15012,note_on,2,0,0,,4,,,64,127
15012,note_on,0,0,0,,0,,,72,127
15175,note_off,163,0,0,,0,,,72,127
15177,note_on,2,0,0,,2,,,74,127
15340,note_off,163,0,0,,2,,,74,127
15342,note_on,2,0,0,,4,,,76,127
15505,note_off,163,0,0,,4,,,76,127
15505,note_off,0,0,0,,4,,,64,127
15507,note_on,2,0,0,,2,,,62,127
15507,note_on,0,0,0,,5,,,77,127
15670,note_off,163,0,0,,5,,,77,127
15670,note_off,0,0,0,,2,,,62,127
15672,note_on,2,0,0,,0,,,60,127
15672,note_on,0,0,0,,5,,,77,127
15835,note_off,163,0,0,,5,,,77,127
15835,note_off,0,0,0,,0,,,60,127
15837,note_on,2,0,0,,12,,,59,127
15837,note_on,0,0,0,,7,,,79,127
16000,note_off,163,0,0,,7,,,79,127
16000,note_off,0,0,0,,12,,,59,127
16002,note_on,2,0,0,,0,,,60,127
16002,note_on,0,0,0,,10,,,57,127
16002,note_on,0,0,0,,10,,,81,127
16002,note_on,0,0,0,,7,,,79,127
16165,note_off,163,0,0,,7,,,79,127
16165,note_off,0,0,0,,10,,,81,127
16167,note_on,2,0,0,,6,,,78,127
16330,note_off,163,0,0,,6,,,78,127
16332,note_on,2,0,0,,10,,,81,127
16495,note_off,163,0,0,,10,,,81,127
16497,note_on,2,0,0,,2,,,74,127
16660,note_off,163,0,0,,2,,,74,127
16662,note_on,2,0,0,,4,,,76,127
16825,note_off,163,0,0,,4,,,76,127
16825,note_off,0,0,0,,0,,,60,127
16827,note_on,2,0,0,,2,,,62,127
16827,note_on,0,0,0,,12,,,71,127
16990,note_off,163,0,0,,12,,,71,127
16990,note_off,0,0,0,,2,,,62,127
16990,note_off,0,0,0,,10,,,57,127
16992,note_on,2,0,0,,10,,,57,127
16992,note_on,0,0,0,,4,,,64,127
16992,note_on,0,0,0,,0,,,72,127
17155,note_off,163,0,0,,4,,,64,127
17157,note_on,2,0,0,,7,,,67,127
17320,note_off,163,0,0,,7,,,67,127
17322,note_on,2,0,0,,10,,,69,127
17485,note_off,163,0,0,,10,,,69,127
17487,note_on,2,0,0,,4,,,64,127
17650,note_off,163,0,0,,4,,,64,127
17652,note_on,2,0,0,,6,,,66,127
17652,note_on,0,0,0,,2,,,62,127
17815,note_off,163,0,0,,0,,,72,127
17817,note_on,2,0,0,,0,,,72,127
17980,note_off,163,0,0,,0,,,72,127
17980,note_off,0,0,0,,2,,,62,127
17980,note_off,0,0,0,,6,,,66,127
17980,note_off,0,0,0,,10,,,57,127
17982,note_on,2,0,0,,7,,,55,127
17982,note_on,0,0,0,,2,,,62,127
17982,note_on,0,0,0,,2,,,74,127
18063,note_off,81,0,0,,2,,,74,127
18065,note_on,2,0,0,,0,,,72,127
18146,note_off,81,0,0,,0,,,72,127
18148,note_on,2,0,0,,12,,,71,127
18229,note_off,81,0,0,,12,,,71,127
18231,note_on,2,0,0,,0,,,72,127
18312,note_off,81,0,0,,0,,,72,127
18314,note_on,2,0,0,,0,,,72,127
18641,note_off,327,0,0,,0,,,72,127
18643,note_on,2,0,0,,12,,,71,127
18883,note_off,240,0,0,,12,,,71,127
18970,note_off,87,0,0,,2,,,62,127
18970,note_off,0,0,0,,7,,,55,127
18972,note_on,2,0,0,,7,,,55,127
18972,note_on,0,0,0,,7,,,79,127
19137,note_on,165,0,0,,12,,,59,127
19300,note_off,163,0,0,,12,,,59,127
19302,note_on,2,0,0,,0,,,60,127
19465,note_off,163,0,0,,0,,,60,127
19467,note_on,2,0,0,,2,,,62,127
19467,note_on,0,0,0,,12,,,71,127
19630,note_off,163,0,0,,12,,,71,127
19630,note_off,0,0,0,,2,,,62,127
19632,note_on,2,0,0,,4,,,64,127
19632,note_on,0,0,0,,0,,,72,127
19795,note_off,163,0,0,,0,,,72,127
19795,note_off,0,0,0,,4,,,64,127
19797,note_on,2,0,0,,5,,,65,127
19797,note_on,0,0,0,,2,,,74,127
19960,note_off,163,0,0,,2,,,74,127
19960,note_off,0,0,0,,5,,,65,127
19960,note_off,0,0,0,,7,,,79,127
19960,note_off,0,0,0,,7,,,55,127
19962,note_on,2,0,0,,7,,,55,127
19962,note_on,0,0,0,,7,,,79,127
20127,note_on,165,0,0,,12,,,59,127
20290,note_off,163,0,0,,12,,,59,127
20292,note_on,2,0,0,,0,,,60,127
20455,note_off,163,0,0,,0,,,60,127
20457,note_on,2,0,0,,2,,,62,127
20457,note_on,0,0,0,,12,,,71,127
20620,note_off,163,0,0,,12,,,71,127
20620,note_off,0,0,0,,2,,,62,127
20622,note_on,2,0,0,,4,,,64,127
20622,note_on,0,0,0,,0,,,72,127
20785,note_off,163,0,0,,0,,,72,127
20785,note_off,0,0,0,,4,,,64,127
20787,note_on,2,0,0,,5,,,65,127
20787,note_on,0,0,0,,2,,,74,127
20950,note_off,163,0,0,,2,,,74,127
20950,note_off,0,0,0,,5,,,65,127
20950,note_off,0,0,0,,7,,,79,127
20950,note_off,0,0,0,,7,,,55,127
20952,note_on,2,0,0,,7,,,67,127
20952,note_on,0,0,0,,12,,,71,127
21115,note_off,163,0,0,,12,,,71,127
21117,note_on,2,0,0,,2,,,74,127
21280,note_off,163,0,0,,2,,,74,127
21280,note_off,0,0,0,,7,,,67,127
21282,note_on,2,0,0,,5,,,65,127
21282,note_on,0,0,0,,2,,,74,127
21282,note_on,0,0,0,,4,,,76,127
21445,note_off,163,0,0,,4,,,76,127
21445,note_off,0,0,0,,2,,,74,127
21447,note_on,2,0,0,,0,,,72,127
21610,note_off,163,0,0,,0,,,72,127
21610,note_off,0,0,0,,5,,,65,127
21612,note_on,2,0,0,,4,,,64,127
21612,note_on,0,0,0,,0,,,72,127
21775,note_off,163,0,0,,0,,,72,127
21777,note_on,2,0,0,,4,,,76,127
21940,note_off,163,0,0,,4,,,76,127
21940,note_off,0,0,0,,4,,,64,127
21942,note_on,2,0,0,,5,,,65,127
21942,note_on,0,0,0,,5,,,77,127
21942,note_on,0,0,0,,4,,,76,127
22105,note_off,163,0,0,,4,,,76,127
22105,note_off,0,0,0,,5,,,77,127
22107,note_on,2,0,0,,2,,,74,127
22270,note_off,163,0,0,,2,,,74,127
22270,note_off,0,0,0,,5,,,65,127
22272,note_on,2,0,0,,7,,,67,127
22272,note_on,0,0,0,,2,,,74,127
22435,note_off,163,0,0,,2,,,74,127
22437,note_on,2,0,0,,0,,,72,127
22600,note_off,163,0,0,,0,,,72,127
22600,note_off,0,0,0,,7,,,67,127
22602,note_on,2,0,0,,7,,,55,127
22602,note_on,0,0,0,,0,,,72,127
22765,note_off,163,0,0,,0,,,72,127
22767,note_on,2,0,0,,12,,,71,127
22887,note_off,120,0,0,,12,,,71,127
22930,note_off,43,0,0,,7,,,55,127
22932,note_on,2,0,0,,7,,,55,127
22932,note_on,0,0,0,,7,,,79,127
23097,note_on,165,0,0,,12,,,59,127
23260,note_off,163,0,0,,12,,,59,127
23262,note_on,2,0,0,,0,,,60,127
23425,note_off,163,0,0,,0,,,60,127
23427,note_on,2,0,0,,2,,,62,127
23427,note_on,0,0,0,,12,,,71,127
23590,note_off,163,0,0,,12,,,71,127
23590,note_off,0,0,0,,2,,,62,127
23592,note_on,2,0,0,,4,,,64,127
23592,note_on,0,0,0,,0,,,72,127
23755,note_off,163,0,0,,0,,,72,127
23755,note_off,0,0,0,,4,,,64,127
23757,note_on,2,0,0,,5,,,65,127
23757,note_on,0,0,0,,2,,,74,127
23920,note_off,163,0,0,,2,,,74,127
23920,note_off,0,0,0,,5,,,65,127
23920,note_off,0,0,0,,7,,,79,127
23920,note_off,0,0,0,,7,,,55,127
23922,note_on,2,0,0,,7,,,55,127
23922,note_on,0,0,0,,7,,,79,127
24087,note_on,165,0,0,,12,,,59,127
24250,note_off,163,0,0,,12,,,59,127
24252,note_on,2,0,0,,0,,,60,127
24415,note_off,163,0,0,,0,,,60,127
24417,note_on,2,0,0,,2,,,62,127
24417,note_on,0,0,0,,12,,,71,127
24580,note_off,163,0,0,,12,,,71,127
24580,note_off,0,0,0,,2,,,62,127
24582,note_on,2,0,0,,4,,,64,127
24582,note_on,0,0,0,,0,,,72,127
24745,note_off,163,0,0,,0,,,72,127
24745,note_off,0,0,0,,4,,,64,127
24747,note_on,2,0,0,,5,,,65,127
24747,note_on,0,0,0,,2,,,74,127
24910,note_off,163,0,0,,2,,,74,127
24910,note_off,0,0,0,,5,,,65,127
24910,note_off,0,0,0,,7,,,79,127
24910,note_off,0,0,0,,7,,,55,127
24912,note_on,2,0,0,,7,,,67,127
24912,note_on,0,0,0,,12,,,71,127
25075,note_off,163,0,0,,12,,,71,127
25077,note_on,2,0,0,,2,,,74,127
25240,note_off,163,0,0,,2,,,74,127
25240,note_off,0,0,0,,7,,,67,127
25242,note_on,2,0,0,,5,,,65,127
25242,note_on,0,0,0,,2,,,74,127
25242,note_on,0,0,0,,4,,,76,127
25405,note_off,163,0,0,,4,,,76,127
25405,note_off,0,0,0,,2,,,74,127
25407,note_on,2,0,0,,0,,,72,127
25570,note_off,163,0,0,,0,,,72,127
25570,note_off,0,0,0,,5,,,65,127
25572,note_on,2,0,0,,4,,,64,127
25572,note_on,0,0,0,,0,,,72,127
25735,note_off,163,0,0,,0,,,72,127
25737,note_on,2,0,0,,4,,,76,127
25900,note_off,163,0,0,,4,,,76,127
25900,note_off,0,0,0,,4,,,64,127
25902,note_on,2,0,0,,5,,,65,127
25902,note_on,0,0,0,,5,,,77,127
25902,note_on,0,0,0,,4,,,76,127
26065,note_off,163,0,0,,4,,,76,127
26065,note_off,0,0,0,,5,,,77,127
26067,note_on,2,0,0,,2,,,74,127
26230,note_off,163,0,0,,2,,,74,127
26230,note_off,0,0,0,,5,,,65,127
26232,note_on,2,0,0,,7,,,67,127
26232,note_on,0,0,0,,2,,,74,127
26395,note_off,163,0,0,,2,,,74,127
26397,note_on,2,0,0,,0,,,72,127
26560,note_off,163,0,0,,0,,,72,127
26560,note_off,0,0,0,,7,,,67,127
26562,note_on,2,0,0,,7,,,55,127
26562,note_on,0,0,0,,0,,,72,127
26725,note_off,163,0,0,,0,,,72,127
26727,note_on,2,0,0,,12,,,71,127
26890,note_off,163,0,0,,12,,,71,127
26890,note_off,0,0,0,,7,,,55,127
26892,note_on,2,0,0,,0,,,60,127
26892,note_on,0,0,0,,0,,,72,127
27055,note_off,163,0,0,,0,,,72,127
27057,note_on,2,0,0,,0,,,84,127
27220,note_off,163,0,0,,0,,,84,127
27220,note_off,0,0,0,,0,,,60,127
27222,note_on,2,0,0,,2,,,62,127
27222,note_on,0,0,0,,7,,,79,127
27385,note_off,163,0,0,,7,,,79,127
27387,note_on,2,0,0,,5,,,77,127
27550,note_off,163,0,0,,5,,,77,127
27550,note_off,0,0,0,,2,,,62,127
27552,note_on,2,0,0,,4,,,64,127
27552,note_on,0,0,0,,4,,,76,127
27715,note_off,163,0,0,,4,,,76,127
27717,note_on,2,0,0,,2,,,74,127
27880,note_off,163,0,0,,2,,,74,127
27880,note_off,0,0,0,,4,,,64,127
27882,note_on,2,0,0,,5,,,53,127
27882,note_on,0,0,0,,0,,,72,127
28045,note_off,163,0,0,,0,,,72,127
28047,note_on,2,0,0,,10,,,81,127
28210,note_off,163,0,0,,10,,,81,127
28210,note_off,0,0,0,,5,,,53,127
28212,note_on,2,0,0,,7,,,55,127
28212,note_on,0,0,0,,10,,,81,127
28212,note_on,0,0,0,,12,,,83,127
28375,note_off,163,0,0,,12,,,83,127
28375,note_off,0,0,0,,10,,,81,127
28377,note_on,2,0,0,,7,,,79,127
28540,note_off,163,0,0,,7,,,79,127
28540,note_off,0,0,0,,7,,,55,127
28542,note_on,2,0,0,,12,,,59,127
28542,note_on,0,0,0,,7,,,79,127
28705,note_off,163,0,0,,7,,,79,127
28707,note_on,2,0,0,,5,,,77,127
28870,note_off,163,0,0,,5,,,77,127
28870,note_off,0,0,0,,12,,,59,127
28872,note_on,2,0,0,,0,,,60,127
28872,note_on,0,0,0,,4,,,76,127
29037,note_on,165,0,0,,0,,,84,127
29051,note_off,14,0,0,,4,,,76,127
29200,note_off,149,0,0,,0,,,84,127
29202,note_on,2,0,0,,4,,,76,127
29365,note_off,163,0,0,,4,,,76,127
29365,note_off,0,0,0,,0,,,60,127
29367,note_on,2,0,0,,2,,,62,127
29367,note_on,0,0,0,,2,,,74,127
29530,note_off,163,0,0,,2,,,74,127
29530,note_off,0,0,0,,2,,,62,127
29532,note_on,2,0,0,,4,,,64,127
29532,note_on,0,0,0,,0,,,72,127
29695,note_off,163,0,0,,0,,,72,127
29697,note_on,2,0,0,,12,,,71,127
29860,note_off,163,0,0,,12,,,71,127
29860,note_off,0,0,0,,4,,,64,127
29862,note_on,2,0,0,,5,,,65,127
29862,note_on,0,0,0,,10,,,69,127
30027,note_on,165,0,0,,2,,,74,127
30041,note_off,14,0,0,,10,,,69,127
30188,note_off,147,0,0,,2,,,74,127
30190,note_off,2,0,0,,5,,,65,127
30192,note_on,2,0,0,,7,,,67,127
30192,note_on,0,0,0,,4,,,76,127
30192,note_on,0,0,0,,2,,,74,127
30355,note_off,163,0,0,,2,,,74,127
30355,note_off,0,0,0,,4,,,76,127
30357,note_on,2,0,0,,0,,,72,127
30520,note_off,163,0,0,,0,,,72,127
30520,note_off,0,0,0,,7,,,67,127
30522,note_on,2,0,0,,7,,,55,127
30522,note_on,0,0,0,,0,,,72,127
30685,note_off,163,0,0,,0,,,72,127
30687,note_on,2,0,0,,12,,,71,127
30850,note_off,163,0,0,,12,,,71,127
30850,note_off,0,0,0,,7,,,55,127
30852,note_on,2,0,0,,0,,,48,127
30852,note_on,0,0,0,,0,,,72,127
31017,note_on,165,0,0,,0,,,84,127
31044,note_off,27,0,0,,0,,,72,127
31179,note_off,135,0,0,,0,,,84,127
31181,note_on,2,0,0,,7,,,79,127
31344,note_off,163,0,0,,7,,,79,127
31344,note_off,0,0,0,,0,,,48,127
31346,note_on,2,0,0,,2,,,50,127
31346,note_on,0,0,0,,5,,,77,127
31509,note_off,163,0,0,,5,,,77,127
31509,note_off,0,0,0,,2,,,50,127
31511,note_on,2,0,0,,4,,,52,127
31511,note_on,0,0,0,,4,,,76,127
31674,note_off,163,0,0,,4,,,76,127
31676,note_on,2,0,0,,2,,,74,127
31839,note_off,163,0,0,,2,,,74,127
31839,note_off,0,0,0,,4,,,52,127
31841,note_on,2,0,0,,5,,,53,127
31841,note_on,0,0,0,,0,,,72,127
32004,note_off,163,0,0,,0,,,72,127
32006,note_on,2,0,0,,10,,,81,127
32006,note_on,0,0,0,,5,,,77,127
32167,note_off,161,0,0,,5,,,77,127
32167,note_off,0,0,0,,10,,,81,127
32169,note_off,2,0,0,,5,,,53,127
32171,note_on,2,0,0,,7,,,55,127
32171,note_on,0,0,0,,5,,,77,127
32171,note_on,0,0,0,,10,,,81,127
32334,note_off,163,0,0,,10,,,81,127
32334,note_off,0,0,0,,5,,,77,127
32336,note_on,2,0,0,,7,,,79,127
32336,note_on,0,0,0,,4,,,76,127
32497,note_off,161,0,0,,4,,,76,127
32497,note_off,0,0,0,,7,,,79,127
32499,note_off,2,0,0,,7,,,55,127
32501,note_on,2,0,0,,7,,,43,127
32501,note_on,0,0,0,,7,,,79,127
32501,note_on,0,0,0,,4,,,76,127
32664,note_off,163,0,0,,4,,,76,127
32664,note_off,0,0,0,,7,,,79,127
32666,note_on,2,0,0,,5,,,77,127
32666,note_on,0,0,0,,2,,,74,127
32829,note_off,163,0,0,,2,,,74,127
32829,note_off,0,0,0,,5,,,77,127
32829,note_off,0,0,0,,7,,,43,127
32831,note_on,2,0,0,,0,,,36,127
32831,note_on,0,0,0,,0,,,48,127
32831,note_on,0,0,0,,0,,,72,127
32831,note_on,0,0,0,,4,,,76,127
32994,note_off,163,0,0,,4,,,76,127
32996,note_on,2,0,0,,0,,,84,127
33157,note_off,161,0,0,,0,,,72,127
33159,note_off,2,0,0,,0,,,84,127
33161,note_on,2,0,0,,4,,,76,127
33324,note_off,163,0,0,,4,,,76,127
33324,note_off,0,0,0,,0,,,48,127
33324,note_off,0,0,0,,0,,,36,127
33326,note_on,2,0,0,,2,,,38,127
33326,note_on,0,0,0,,2,,,50,127
33326,note_on,0,0,0,,2,,,74,127
33489,note_off,163,0,0,,2,,,74,127
33489,note_off,0,0,0,,2,,,50,127
33489,note_off,0,0,0,,2,,,38,127
33491,note_on,2,0,0,,4,,,40,127
33491,note_on,0,0,0,,4,,,52,127
33491,note_on,0,0,0,,0,,,72,127
33654,note_off,163,0,0,,0,,,72,127
33656,note_on,2,0,0,,12,,,71,127
33819,note_off,163,0,0,,12,,,71,127
33819,note_off,0,0,0,,4,,,52,127
33819,note_off,0,0,0,,4,,,40,127
33821,note_on,2,0,0,,5,,,53,127
33821,note_on,0,0,0,,5,,,41,127
33821,note_on,0,0,0,,10,,,69,127
33984,note_off,163,0,0,,10,,,69,127
33986,note_on,2,0,0,,2,,,74,127
33986,note_on,0,0,0,,5,,,65,127
34149,note_off,163,0,0,,5,,,65,127
34149,note_off,0,0,0,,2,,,74,127
34149,note_off,0,0,0,,5,,,41,127
34149,note_off,0,0,0,,5,,,53,127
34151,note_on,2,0,0,,7,,,55,127
34151,note_on,0,0,0,,2,,,74,127
34151,note_on,0,0,0,,5,,,65,127
34314,note_off,163,0,0,,5,,,65,127
34314,note_off,0,0,0,,2,,,74,127
34316,note_on,2,0,0,,0,,,72,127
34316,note_on,0,0,0,,4,,,64,127
34479,note_off,163,0,0,,4,,,64,127
34479,note_off,0,0,0,,0,,,72,127
34481,note_on,2,0,0,,7,,,43,127
34481,note_on,0,0,0,,0,,,72,127
34481,note_on,0,0,0,,4,,,64,127
34644,note_off,163,0,0,,4,,,64,127
34644,note_off,0,0,0,,0,,,72,127
34646,note_off,2,0,0,,7,,,55,127
34646,note_on,0,0,0,,12,,,71,127
34646,note_on,0,0,0,,2,,,62,127
34809,note_off,163,0,0,,2,,,62,127
34809,note_off,0,0,0,,12,,,71,127
34809,note_off,0,0,0,,7,,,43,127
34811,note_on,2,0,0,,0,,,36,127
34811,note_on,0,0,0,,0,,,72,127
35462,note_off,651,0,0,,0,,,72,127
35796,note_off,334,0,0,,0,,,36,127
35798,note_on,2,0,0,,0,,,60,127
35963,note_on,165,0,0,,7,,,79,127
36126,note_off,163,0,0,,7,,,79,127
36128,note_on,2,0,0,,4,,,76,127
36291,note_off,163,0,0,,4,,,76,127
36293,note_on,2,0,0,,2,,,74,127
36456,note_off,163,0,0,,2,,,74,127
36458,note_on,2,0,0,,0,,,72,127
36621,note_off,163,0,0,,0,,,72,127
36623,note_on,2,0,0,,11,,,70,127
36786,note_off,163,0,0,,11,,,70,127
36786,note_off,0,0,0,,0,,,60,127
36788,note_on,2,0,0,,1,,,61,127
36788,note_on,0,0,0,,10,,,69,127
36953,note_on,165,0,0,,4,,,76,127
36980,note_off,27,0,0,,10,,,69,127
37115,note_off,135,0,0,,4,,,76,127
37117,note_on,2,0,0,,10,,,69,127
37280,note_off,163,0,0,,10,,,69,127
37282,note_on,2,0,0,,7,,,67,127
37445,note_off,163,0,0,,7,,,67,127
37447,note_on,2,0,0,,5,,,65,127
37610,note_off,163,0,0,,5,,,65,127
37612,note_on,2,0,0,,4,,,64,127
37775,note_off,163,0,0,,4,,,64,127
37775,note_off,0,0,0,,1,,,61,127
37777,note_on,2,0,0,,2,,,62,127
37777,note_on,0,0,0,,5,,,65,127
37940,note_off,163,0,0,,5,,,65,127
37942,note_on,2,0,0,,10,,,81,127
38105,note_off,163,0,0,,10,,,81,127
38107,note_on,2,0,0,,5,,,77,127
38107,note_on,0,0,0,,7,,,79,127
38270,note_off,163,0,0,,7,,,79,127
38270,note_off,0,0,0,,5,,,77,127
38272,note_on,2,0,0,,4,,,76,127
38435,note_off,163,0,0,,4,,,76,127
38437,note_on,2,0,0,,2,,,74,127
38600,note_off,163,0,0,,2,,,74,127
38602,note_on,2,0,0,,0,,,72,127
38765,note_off,163,0,0,,0,,,72,127
38765,note_off,0,0,0,,2,,,62,127
38767,note_on,2,0,0,,3,,,63,127
38767,note_on,0,0,0,,12,,,71,127
38932,note_on,165,0,0,,6,,,78,127
38959,note_off,27,0,0,,12,,,71,127
39094,note_off,135,0,0,,6,,,78,127
39096,note_on,2,0,0,,12,,,71,127
39259,note_off,163,0,0,,12,,,71,127
39261,note_on,2,0,0,,10,,,69,127
39419,note_off,158,0,0,,3,,,63,127
39424,note_off,5,0,0,,10,,,69,127
39426,note_on,2,0,0,,8,,,68,127
39589,note_off,163,0,0,,8,,,68,127
39591,note_on,2,0,0,,6,,,66,127
39737,note_off,146,0,0,,6,,,66,127
39756,note_on,19,0,0,,4,,,52,127
39756,note_on,0,0,0,,4,,,76,127
39921,note_on,165,0,0,,8,,,56,127
40084,note_off,163,0,0,,8,,,56,127
40086,note_on,2,0,0,,10,,,57,127
40249,note_off,163,0,0,,10,,,57,127
40251,note_on,2,0,0,,12,,,59,127
40251,note_on,0,0,0,,8,,,68,127
40414,note_off,163,0,0,,8,,,68,127
40414,note_off,0,0,0,,12,,,59,127
40416,note_on,2,0,0,,0,,,60,127
40416,note_on,0,0,0,,10,,,69,127
40579,note_off,163,0,0,,10,,,69,127
40579,note_off,0,0,0,,0,,,60,127
40581,note_on,2,0,0,,2,,,62,127
40581,note_on,0,0,0,,12,,,71,127
40744,note_off,163,0,0,,12,,,71,127
40744,note_off,0,0,0,,2,,,62,127
40744,note_off,0,0,0,,4,,,76,127
40744,note_off,0,0,0,,4,,,52,127
40746,note_on,2,0,0,,4,,,52,127
40746,note_on,0,0,0,,4,,,76,127
40911,note_on,165,0,0,,8,,,56,127
41074,note_off,163,0,0,,8,,,56,127
41076,note_on,2,0,0,,10,,,57,127
41239,note_off,163,0,0,,10,,,57,127
41241,note_on,2,0,0,,12,,,59,127
41241,note_on,0,0,0,,8,,,68,127
41404,note_off,163,0,0,,8,,,68,127
41404,note_off,0,0,0,,12,,,59,127
41406,note_on,2,0,0,,0,,,60,127
41406,note_on,0,0,0,,10,,,69,127
41569,note_off,163,0,0,,10,,,69,127
41569,note_off,0,0,0,,0,,,60,127
41571,note_on,2,0,0,,2,,,62,127
41571,note_on,0,0,0,,12,,,71,127
41734,note_off,163,0,0,,12,,,71,127
41734,note_off,0,0,0,,2,,,62,127
41734,note_off,0,0,0,,4,,,76,127
41734,note_off,0,0,0,,4,,,52,127
41736,note_on,2,0,0,,4,,,52,127
41736,note_on,0,0,0,,10,,,69,127
41791,note_on,55,0,0,,8,,,68,127
41817,note_off,26,0,0,,10,,,69,127
41846,note_on,29,0,0,,10,,,69,127
41872,note_off,26,0,0,,8,,,68,127
41899,note_off,27,0,0,,4,,,52,127
41901,note_on,2,0,0,,4,,,64,127
41901,note_on,0,0,0,,8,,,68,127
41927,note_off,26,0,0,,10,,,69,127
42064,note_off,137,0,0,,4,,,64,127
42066,note_on,2,0,0,,4,,,64,127
42229,note_off,163,0,0,,4,,,64,127
42231,note_on,2,0,0,,2,,,62,127
42382,note_off,151,0,0,,8,,,68,127
42394,note_off,12,0,0,,2,,,62,127
42396,note_on,2,0,0,,2,,,62,127
42559,note_off,163,0,0,,2,,,62,127
42561,note_on,2,0,0,,0,,,60,127
42724,note_off,163,0,0,,0,,,60,127
42726,note_on,2,0,0,,0,,,60,127
42891,note_on,165,0,0,,4,,,76,127
43054,note_off,163,0,0,,4,,,76,127
43056,note_on,2,0,0,,10,,,69,127
43056,note_on,0,0,0,,4,,,76,127
43219,note_off,163,0,0,,4,,,76,127
43221,note_on,2,0,0,,2,,,74,127
43379,note_off,158,0,0,,0,,,60,127
43384,note_off,5,0,0,,2,,,74,127
43384,note_off,0,0,0,,10,,,69,127
43386,note_on,2,0,0,,8,,,68,127
43386,note_on,0,0,0,,12,,,59,127
43386,note_on,0,0,0,,2,,,74,127
43549,note_off,163,0,0,,2,,,74,127
43551,note_on,2,0,0,,0,,,72,127
43714,note_off,163,0,0,,0,,,72,127
43714,note_off,0,0,0,,12,,,59,127
43714,note_off,0,0,0,,8,,,68,127
43716,note_on,2,0,0,,10,,,57,127
43716,note_on,0,0,0,,2,,,74,127
43771,note_on,55,0,0,,0,,,72,127
43797,note_off,26,0,0,,2,,,74,127
43826,note_on,29,0,0,,2,,,74,127
43852,note_off,26,0,0,,0,,,72,127
43879,note_off,27,0,0,,10,,,57,127
43881,note_on,2,0,0,,10,,,69,127
43881,note_on,0,0,0,,0,,,72,127
43907,note_off,26,0,0,,2,,,74,127
44044,note_off,137,0,0,,10,,,69,127
44046,note_on,2,0,0,,10,,,69,127
44209,note_off,163,0,0,,10,,,69,127
44211,note_on,2,0,0,,7,,,67,127
44374,note_off,163,0,0,,7,,,67,127
44376,note_on,2,0,0,,7,,,67,127
44534,note_off,158,0,0,,0,,,72,127
44539,note_off,5,0,0,,7,,,67,127
44541,note_on,2,0,0,,5,,,65,127
44704,note_off,163,0,0,,5,,,65,127
44706,note_on,2,0,0,,5,,,65,127
44871,note_on,165,0,0,,10,,,81,127
45034,note_off,163,0,0,,10,,,81,127
45036,note_on,2,0,0,,2,,,74,127
45036,note_on,0,0,0,,10,,,81,127
45199,note_off,163,0,0,,10,,,81,127
45201,note_on,2,0,0,,7,,,79,127
45359,note_off,158,0,0,,5,,,65,127
45364,note_off,5,0,0,,7,,,79,127
45364,note_off,0,0,0,,2,,,74,127
45366,note_on,2,0,0,,1,,,73,127
45366,note_on,0,0,0,,4,,,64,127
45366,note_on,0,0,0,,7,,,79,127
45529,note_off,163,0,0,,7,,,79,127
45531,note_on,2,0,0,,5,,,77,127
45694,note_off,163,0,0,,5,,,77,127
45694,note_off,0,0,0,,4,,,64,127
45694,note_off,0,0,0,,1,,,73,127
45696,note_on,2,0,0,,2,,,62,127
45696,note_on,0,0,0,,7,,,79,127
45751,note_on,55,0,0,,5,,,77,127
45777,note_off,26,0,0,,7,,,79,127
45806,note_on,29,0,0,,7,,,79,127
45832,note_off,26,0,0,,5,,,77,127
45859,note_off,27,0,0,,2,,,62,127
45861,note_on,2,0,0,,2,,,74,127
45861,note_on,0,0,0,,5,,,77,127
45887,note_off,26,0,0,,7,,,79,127
46024,note_off,137,0,0,,2,,,74,127
46026,note_on,2,0,0,,2,,,74,127
46189,note_off,163,0,0,,2,,,74,127
46191,note_on,2,0,0,,0,,,72,127
46354,note_off,163,0,0,,0,,,72,127
46356,note_on,2,0,0,,0,,,72,127
46519,note_off,163,0,0,,0,,,72,127
46521,note_on,2,0,0,,11,,,70,127
46684,note_off,163,0,0,,11,,,70,127
46686,note_on,2,0,0,,11,,,70,127
46698,note_off,12,0,0,,5,,,77,127
46851,note_on,153,0,0,,2,,,86,127
47014,note_off,163,0,0,,2,,,86,127
47014,note_off,0,0,0,,11,,,70,127
47016,note_on,2,0,0,,11,,,70,127
47016,note_on,0,0,0,,2,,,74,127
47016,note_on,0,0,0,,2,,,86,127
47179,note_off,163,0,0,,2,,,86,127
47181,note_on,2,0,0,,0,,,84,127
47344,note_off,163,0,0,,0,,,84,127
47344,note_off,0,0,0,,2,,,74,127
47344,note_off,0,0,0,,11,,,70,127
47346,note_on,2,0,0,,10,,,69,127
47346,note_on,0,0,0,,0,,,72,127
47346,note_on,0,0,0,,0,,,84,127
47509,note_off,163,0,0,,0,,,84,127
47511,note_on,2,0,0,,11,,,82,127
47674,note_off,163,0,0,,11,,,82,127
47674,note_off,0,0,0,,0,,,72,127
47674,note_off,0,0,0,,10,,,69,127
47676,note_on,2,0,0,,7,,,67,127
47676,note_on,0,0,0,,11,,,70,127
47676,note_on,0,0,0,,11,,,82,127
47841,note_on,165,0,0,,5,,,77,127
48004,note_off,163,0,0,,5,,,77,127
48004,note_off,0,0,0,,11,,,70,127
48004,note_off,0,0,0,,7,,,67,127
48006,note_on,2,0,0,,11,,,70,127
48006,note_on,0,0,0,,7,,,67,127
48006,note_on,0,0,0,,7,,,79,127
48169,note_off,163,0,0,,7,,,79,127
48171,note_on,2,0,0,,4,,,76,127
48334,note_off,163,0,0,,4,,,76,127
48334,note_off,0,0,0,,7,,,67,127
48334,note_off,0,0,0,,11,,,70,127
48336,note_on,2,0,0,,11,,,70,127
48336,note_on,0,0,0,,7,,,67,127
48336,note_on,0,0,0,,5,,,77,127
48499,note_off,163,0,0,,5,,,77,127
48501,note_on,2,0,0,,2,,,74,127
48664,note_off,163,0,0,,2,,,74,127
48664,note_off,0,0,0,,7,,,67,127
48664,note_off,0,0,0,,11,,,70,127
48664,note_off,0,0,0,,11,,,82,127
48666,note_on,2,0,0,,0,,,60,127
48666,note_on,0,0,0,,7,,,67,127
48666,note_on,0,0,0,,4,,,76,127
48831,note_on,165,0,0,,11,,,70,127
48994,note_off,163,0,0,,11,,,70,127
48994,note_off,0,0,0,,7,,,67,127
48994,note_off,0,0,0,,0,,,60,127
48996,note_on,2,0,0,,0,,,60,127
48996,note_on,0,0,0,,7,,,67,127
48996,note_on,0,0,0,,0,,,72,127
49159,note_off,163,0,0,,0,,,72,127
49161,note_on,2,0,0,,10,,,69,127
49324,note_off,163,0,0,,10,,,69,127
49324,note_off,0,0,0,,7,,,67,127
49324,note_off,0,0,0,,0,,,60,127
49326,note_on,2,0,0,,0,,,60,127
49326,note_on,0,0,0,,7,,,67,127
49326,note_on,0,0,0,,11,,,70,127
49487,note_off,161,0,0,,7,,,67,127
49489,note_off,2,0,0,,11,,,70,127
49491,note_on,2,0,0,,7,,,67,127
49654,note_off,163,0,0,,7,,,67,127
49654,note_off,0,0,0,,0,,,60,127
49656,note_on,2,0,0,,5,,,65,127
49656,note_on,0,0,0,,10,,,69,127
49817,note_off,161,0,0,,4,,,76,127
49819,note_off,2,0,0,,10,,,69,127
49821,note_on,2,0,0,,2,,,74,127
49984,note_off,163,0,0,,2,,,74,127
49984,note_off,0,0,0,,5,,,65,127
49986,note_on,2,0,0,,4,,,64,127
49986,note_on,0,0,0,,7,,,67,127
49986,note_on,0,0,0,,4,,,76,127
49986,note_on,0,0,0,,2,,,74,127
50149,note_off,163,0,0,,2,,,74,127
50149,note_off,0,0,0,,4,,,76,127
50151,note_on,2,0,0,,0,,,72,127
50314,note_off,163,0,0,,0,,,72,127
50314,note_off,0,0,0,,7,,,67,127
50314,note_off,0,0,0,,4,,,64,127
50316,note_on,2,0,0,,5,,,65,127
50316,note_on,0,0,0,,2,,,62,127
50316,note_on,0,0,0,,0,,,72,127
50479,note_off,163,0,0,,0,,,72,127
50481,note_on,2,0,0,,12,,,71,127
50630,note_off,149,0,0,,12,,,71,127
50644,note_off,14,0,0,,2,,,62,127
50644,note_off,0,0,0,,5,,,65,127
50646,note_on,2,0,0,,0,,,60,127
50646,note_on,0,0,0,,0,,,84,127
50811,note_on,165,0,0,,4,,,64,127
50974,note_off,163,0,0,,4,,,64,127
50976,note_on,2,0,0,,5,,,65,127
51139,note_off,163,0,0,,5,,,65,127
51141,note_on,2,0,0,,7,,,67,127
51141,note_on,0,0,0,,4,,,76,127
51304,note_off,163,0,0,,4,,,76,127
51304,note_off,0,0,0,,7,,,67,127
51306,note_on,2,0,0,,10,,,69,127
51306,note_on,0,0,0,,5,,,77,127
51469,note_off,163,0,0,,5,,,77,127
51469,note_off,0,0,0,,10,,,69,127
51471,note_on,2,0,0,,11,,,70,127
51471,note_on,0,0,0,,7,,,79,127
51634,note_off,163,0,0,,7,,,79,127
51634,note_off,0,0,0,,11,,,70,127
51634,note_off,0,0,0,,0,,,84,127
51634,note_off,0,0,0,,0,,,60,127
51636,note_on,2,0,0,,0,,,60,127
51636,note_on,0,0,0,,0,,,84,127
51801,note_on,165,0,0,,4,,,64,127
51964,note_off,163,0,0,,4,,,64,127
51966,note_on,2,0,0,,5,,,65,127
52129,note_off,163,0,0,,5,,,65,127
52131,note_on,2,0,0,,7,,,67,127
52131,note_on,0,0,0,,4,,,76,127
52294,note_off,163,0,0,,4,,,76,127
52294,note_off,0,0,0,,7,,,67,127
52296,note_on,2,0,0,,10,,,69,127
52296,note_on,0,0,0,,5,,,77,127
52459,note_off,163,0,0,,5,,,77,127
52459,note_off,0,0,0,,10,,,69,127
52461,note_on,2,0,0,,11,,,70,127
52461,note_on,0,0,0,,7,,,79,127
52624,note_off,163,0,0,,7,,,79,127
52624,note_off,0,0,0,,11,,,70,127
52624,note_off,0,0,0,,0,,,84,127
52624,note_off,0,0,0,,0,,,60,127
52626,note_on,2,0,0,,0,,,60,127
52626,note_on,0,0,0,,5,,,77,127
52626,note_on,0,0,0,,4,,,76,127
52789,note_off,163,0,0,,4,,,76,127
52789,note_off,0,0,0,,5,,,77,127
52791,note_on,2,0,0,,2,,,74,127
52954,note_off,163,0,0,,2,,,74,127
52954,note_off,0,0,0,,0,,,60,127
52956,note_on,2,0,0,,2,,,62,127
52956,note_on,0,0,0,,0,,,72,127
53119,note_off,163,0,0,,0,,,72,127
53121,note_on,2,0,0,,11,,,70,127
53284,note_off,163,0,0,,11,,,70,127
53284,note_off,0,0,0,,2,,,62,127
53286,note_on,2,0,0,,4,,,64,127
53286,note_on,0,0,0,,10,,,69,127
53449,note_off,163,0,0,,10,,,69,127
53451,note_on,2,0,0,,7,,,67,127
53614,note_off,163,0,0,,7,,,67,127
53614,note_off,0,0,0,,4,,,64,127
53616,note_on,2,0,0,,5,,,65,127
53616,note_on,0,0,0,,10,,,69,127
53779,note_off,163,0,0,,10,,,69,127
53781,note_on,2,0,0,,2,,,74,127
53944,note_off,163,0,0,,2,,,74,127
53944,note_off,0,0,0,,5,,,65,127
53946,note_on,2,0,0,,7,,,67,127
53946,note_on,0,0,0,,4,,,64,127
53946,note_on,0,0,0,,4,,,76,127
53946,note_on,0,0,0,,2,,,74,127
54109,note_off,163,0,0,,2,,,74,127
54109,note_off,0,0,0,,4,,,76,127
54111,note_on,2,0,0,,0,,,72,127
54274,note_off,163,0,0,,0,,,72,127
54274,note_off,0,0,0,,4,,,64,127
54274,note_off,0,0,0,,7,,,67,127
54276,note_on,2,0,0,,5,,,65,127
54276,note_on,0,0,0,,2,,,62,127
54276,note_on,0,0,0,,0,,,72,127
54439,note_off,163,0,0,,0,,,72,127
54441,note_on,2,0,0,,12,,,71,127
54595,note_off,154,0,0,,12,,,71,127
54604,note_off,9,0,0,,2,,,62,127
54604,note_off,0,0,0,,5,,,65,127
54606,note_on,2,0,0,,0,,,36,127
54606,note_on,0,0,0,,0,,,84,127
54771,note_on,165,0,0,,0,,,72,127
54934,note_off,163,0,0,,0,,,72,127
54936,note_on,2,0,0,,2,,,74,127
55099,note_off,163,0,0,,2,,,74,127
55101,note_off,2,0,0,,0,,,84,127
55101,note_on,0,0,0,,11,,,70,127
55101,note_on,0,0,0,,4,,,76,127
55264,note_off,163,0,0,,4,,,76,127
55264,note_off,0,0,0,,11,,,70,127
55266,note_on,2,0,0,,5,,,77,127
55266,note_on,0,0,0,,10,,,69,127
55429,note_off,163,0,0,,10,,,69,127
55429,note_off,0,0,0,,5,,,77,127
55431,note_on,2,0,0,,11,,,70,127
55431,note_on,0,0,0,,7,,,79,127
55594,note_off,163,0,0,,7,,,79,127
55594,note_off,0,0,0,,11,,,70,127
55594,note_off,0,0,0,,0,,,36,127
55596,note_on,2,0,0,,0,,,36,127
55596,note_on,0,0,0,,0,,,84,127
55761,note_on,165,0,0,,0,,,72,127
55924,note_off,163,0,0,,0,,,72,127
55926,note_on,2,0,0,,2,,,74,127
56089,note_off,163,0,0,,2,,,74,127
56091,note_off,2,0,0,,0,,,84,127
56091,note_on,0,0,0,,11,,,70,127
56091,note_on,0,0,0,,4,,,76,127
56254,note_off,163,0,0,,4,,,76,127
56254,note_off,0,0,0,,11,,,70,127
56256,note_on,2,0,0,,5,,,77,127
56256,note_on,0,0,0,,10,,,69,127
56419,note_off,163,0,0,,10,,,69,127
56419,note_off,0,0,0,,5,,,77,127
56421,note_on,2,0,0,,7,,,79,127
56421,note_on,0,0,0,,11,,,70,127
56584,note_off,163,0,0,,11,,,70,127
56584,note_off,0,0,0,,7,,,79,127
56584,note_off,0,0,0,,0,,,36,127
56586,note_on,2,0,0,,0,,,60,127
56586,note_on,0,0,0,,0,,,84,127
56751,note_on,165,0,0,,0,,,72,127
56909,note_off,158,0,0,,0,,,84,127
56914,note_off,5,0,0,,0,,,72,127
56916,note_on,2,0,0,,2,,,74,127
57079,note_off,163,0,0,,2,,,74,127
57079,note_off,0,0,0,,0,,,60,127
57081,note_on,2,0,0,,11,,,58,127
57081,note_on,0,0,0,,4,,,76,127
57244,note_off,163,0,0,,4,,,76,127
57244,note_off,0,0,0,,11,,,58,127
57246,note_on,2,0,0,,10,,,57,127
57246,note_on,0,0,0,,5,,,77,127
57409,note_off,163,0,0,,5,,,77,127
57411,note_on,2,0,0,,10,,,81,127
57411,note_on,0,0,0,,0,,,72,127
57574,note_off,163,0,0,,0,,,72,127
57574,note_off,0,0,0,,10,,,81,127
57574,note_off,0,0,0,,10,,,57,127
57576,note_on,2,0,0,,11,,,58,127
57576,note_on,0,0,0,,0,,,72,127
57576,note_on,0,0,0,,10,,,81,127
57739,note_off,163,0,0,,10,,,81,127
57739,note_off,0,0,0,,0,,,72,127
57741,note_on,2,0,0,,7,,,79,127
57741,note_on,0,0,0,,11,,,70,127
57904,note_off,163,0,0,,11,,,70,127
57904,note_off,0,0,0,,7,,,79,127
57904,note_off,0,0,0,,11,,,58,127
57906,note_on,2,0,0,,0,,,60,127
57906,note_on,0,0,0,,7,,,79,127
57906,note_on,0,0,0,,11,,,70,127
58069,note_off,163,0,0,,11,,,70,127
58069,note_off,0,0,0,,7,,,79,127
58071,note_on,2,0,0,,10,,,69,127
58071,note_on,0,0,0,,5,,,77,127
58234,note_off,163,0,0,,5,,,77,127
58234,note_off,0,0,0,,10,,,69,127
58234,note_off,0,0,0,,0,,,60,127
58236,note_on,2,0,0,,0,,,48,127
58236,note_on,0,0,0,,10,,,69,127
58236,note_on,0,0,0,,5,,,77,127
58399,note_off,163,0,0,,5,,,77,127
58399,note_off,0,0,0,,10,,,69,127
58401,note_on,2,0,0,,4,,,76,127
58401,note_on,0,0,0,,7,,,67,127
58555,note_off,154,0,0,,4,,,76,127
58564,note_off,9,0,0,,7,,,67,127
58564,note_off,0,0,0,,0,,,48,127
58566,note_on,2,0,0,,5,,,41,127
58566,note_on,0,0,0,,5,,,77,127
58731,note_on,165,0,0,,5,,,65,127
58894,note_off,163,0,0,,5,,,65,127
58896,note_on,2,0,0,,7,,,67,127
59059,note_off,163,0,0,,7,,,67,127
59061,note_off,2,0,0,,5,,,77,127
59061,note_on,0,0,0,,10,,,69,127
59061,note_on,0,0,0,,3,,,75,127
59224,note_off,163,0,0,,10,,,69,127
59226,note_on,2,0,0,,11,,,70,127
59387,note_off,161,0,0,,3,,,75,127
59390,note_on,3,0,0,,2,,,74,127
59544,note_off,154,0,0,,2,,,74,127
59551,note_off,7,0,0,,11,,,70,127
59553,note_off,2,0,0,,5,,,41,127
59555,note_on,2,0,0,,5,,,41,127
59555,note_on,0,0,0,,5,,,77,127
59720,note_on,165,0,0,,5,,,65,127
59883,note_off,163,0,0,,5,,,65,127
59885,note_on,2,0,0,,7,,,67,127
60048,note_off,163,0,0,,7,,,67,127
60050,note_off,2,0,0,,5,,,77,127
60050,note_on,0,0,0,,10,,,69,127
60050,note_on,0,0,0,,3,,,75,127
60213,note_off,163,0,0,,10,,,69,127
60213,note_off,0,0,0,,5,,,41,127
60215,note_on,2,0,0,,11,,,46,127
60215,note_on,0,0,0,,11,,,70,127
60376,note_off,161,0,0,,3,,,75,127
60379,note_on,3,0,0,,2,,,74,127
60533,note_off,154,0,0,,2,,,74,127
60540,note_off,7,0,0,,11,,,70,127
60542,note_off,2,0,0,,11,,,46,127
60544,note_on,2,0,0,,0,,,48,127
60544,note_on,0,0,0,,4,,,76,127
60544,note_on,0,0,0,,2,,,74,127
60707,note_off,163,0,0,,2,,,74,127
60709,note_on,2,0,0,,0,,,72,127
60870,note_off,161,0,0,,4,,,76,127
60872,note_off,2,0,0,,0,,,72,127
60872,note_off,0,0,0,,0,,,48,127
60874,note_on,2,0,0,,4,,,52,127
60874,note_on,0,0,0,,0,,,72,127
60874,note_on,0,0,0,,7,,,79,127
61037,note_off,163,0,0,,0,,,72,127
61039,note_on,2,0,0,,11,,,70,127
61202,note_off,163,0,0,,11,,,70,127
61202,note_off,0,0,0,,4,,,52,127
61204,note_on,2,0,0,,5,,,53,127
61204,note_on,0,0,0,,10,,,69,127
61367,note_off,163,0,0,,10,,,69,127
61369,note_off,2,0,0,,7,,,79,127
61369,note_on,0,0,0,,10,,,81,127
61369,note_on,0,0,0,,0,,,72,127
61530,note_off,161,0,0,,0,,,72,127
61530,note_off,0,0,0,,10,,,81,127
61532,note_off,2,0,0,,5,,,53,127
61534,note_on,2,0,0,,11,,,46,127
61534,note_on,0,0,0,,10,,,81,127
61534,note_on,0,0,0,,0,,,72,127
61697,note_off,163,0,0,,0,,,72,127
61697,note_off,0,0,0,,10,,,81,127
61699,note_on,2,0,0,,11,,,70,127
61699,note_on,0,0,0,,7,,,79,127
61860,note_off,161,0,0,,7,,,79,127
61860,note_off,0,0,0,,11,,,70,127
61862,note_off,2,0,0,,11,,,46,127
61864,note_on,2,0,0,,0,,,48,127
61864,note_on,0,0,0,,7,,,79,127
61864,note_on,0,0,0,,11,,,70,127
62027,note_off,163,0,0,,11,,,70,127
62027,note_off,0,0,0,,7,,,79,127
62029,note_on,2,0,0,,10,,,69,127
62029,note_on,0,0,0,,5,,,77,127
62190,note_off,161,0,0,,5,,,77,127
62190,note_off,0,0,0,,10,,,69,127
62192,note_off,2,0,0,,0,,,48,127
62194,note_on,2,0,0,,0,,,36,127
62194,note_on,0,0,0,,5,,,77,127
62194,note_on,0,0,0,,10,,,69,127
62357,note_off,163,0,0,,10,,,69,127
62357,note_off,0,0,0,,5,,,77,127
62359,note_on,2,0,0,,7,,,67,127
62359,note_on,0,0,0,,4,,,76,127
62513,note_off,154,0,0,,4,,,76,127
62522,note_off,9,0,0,,7,,,67,127
62522,note_off,0,0,0,,0,,,36,127
62524,note_on,2,0,0,,5,,,41,127
62524,note_on,0,0,0,,5,,,77,127
62689,note_on,165,0,0,,5,,,65,127
62852,note_off,163,0,0,,5,,,65,127
62854,note_on,2,0,0,,7,,,67,127
63017,note_off,163,0,0,,7,,,67,127
63019,note_off,2,0,0,,5,,,77,127
63019,note_on,0,0,0,,3,,,75,127
63019,note_on,0,0,0,,10,,,69,127
63182,note_off,163,0,0,,10,,,69,127
63184,note_on,2,0,0,,11,,,70,127
63345,note_off,161,0,0,,3,,,75,127
63348,note_on,3,0,0,,2,,,74,127
63509,note_off,161,0,0,,11,,,70,127
63511,note_off,2,0,0,,2,,,74,127
63511,note_off,0,0,0,,5,,,41,127
63513,note_on,2,0,0,,5,,,41,127
63513,note_on,0,0,0,,5,,,77,127
63678,note_on,165,0,0,,5,,,65,127
63841,note_off,163,0,0,,5,,,65,127
63843,note_on,2,0,0,,7,,,67,127
64006,note_off,163,0,0,,7,,,67,127
64008,note_off,2,0,0,,5,,,77,127
64008,note_on,0,0,0,,10,,,69,127
64008,note_on,0,0,0,,3,,,75,127
64171,note_off,163,0,0,,10,,,69,127
64171,note_off,0,0,0,,5,,,41,127
64173,note_on,2,0,0,,11,,,46,127
64173,note_on,0,0,0,,11,,,70,127
64334,note_off,161,0,0,,3,,,75,127
64337,note_on,3,0,0,,2,,,74,127
64498,note_off,161,0,0,,11,,,70,127
64500,note_off,2,0,0,,2,,,74,127
64500,note_off,0,0,0,,11,,,46,127
64502,note_on,2,0,0,,0,,,48,127
64502,note_on,0,0,0,,4,,,76,127
64502,note_on,0,0,0,,2,,,74,127
64665,note_off,163,0,0,,2,,,74,127
64667,note_on,2,0,0,,0,,,72,127
64828,note_off,161,0,0,,4,,,76,127
64830,note_off,2,0,0,,0,,,72,127
64830,note_off,0,0,0,,0,,,48,127
64832,note_on,2,0,0,,4,,,52,127
64832,note_on,0,0,0,,7,,,79,127
64832,note_on,0,0,0,,0,,,72,127
64995,note_off,163,0,0,,0,,,72,127
64997,note_on,2,0,0,,11,,,70,127
65160,note_off,163,0,0,,11,,,70,127
65160,note_off,0,0,0,,4,,,52,127
65162,note_on,2,0,0,,5,,,53,127
65162,note_on,0,0,0,,10,,,69,127
65325,note_off,163,0,0,,10,,,69,127
65327,note_off,2,0,0,,7,,,79,127
65327,note_on,0,0,0,,0,,,72,127
65327,note_on,0,0,0,,10,,,81,127
65490,note_off,163,0,0,,10,,,81,127
65490,note_off,0,0,0,,0,,,72,127
65490,note_off,0,0,0,,5,,,53,127
65492,note_on,2,0,0,,11,,,46,127
65492,note_on,0,0,0,,10,,,81,127
65492,note_on,0,0,0,,0,,,72,127
65655,note_off,163,0,0,,0,,,72,127
65655,note_off,0,0,0,,10,,,81,127
65657,note_on,2,0,0,,7,,,79,127
65657,note_on,0,0,0,,11,,,70,127
65820,note_off,163,0,0,,11,,,70,127
65820,note_off,0,0,0,,7,,,79,127
65820,note_off,0,0,0,,11,,,46,127
65822,note_on,2,0,0,,0,,,48,127
65822,note_on,0,0,0,,7,,,79,127
65822,note_on,0,0,0,,11,,,70,127
65985,note_off,163,0,0,,11,,,70,127
65985,note_off,0,0,0,,7,,,79,127
65987,note_on,2,0,0,,5,,,77,127
65987,note_on,0,0,0,,10,,,69,127
66150,note_off,163,0,0,,10,,,69,127
66150,note_off,0,0,0,,5,,,77,127
66152,note_on,2,0,0,,0,,,36,127
66152,note_on,0,0,0,,5,,,77,127
66152,note_on,0,0,0,,10,,,69,127
66315,note_off,163,0,0,,10,,,69,127
66315,note_off,0,0,0,,5,,,77,127
66317,note_on,2,0,0,,7,,,67,127
66317,note_on,0,0,0,,4,,,76,127
66475,note_off,158,0,0,,0,,,48,127
66480,note_off,5,0,0,,4,,,76,127
66480,note_off,0,0,0,,7,,,67,127
66480,note_off,0,0,0,,0,,,36,127
66482,note_on,2,0,0,,5,,,41,127
66482,note_on,0,0,0,,5,,,77,127
66645,note_off,163,0,0,,5,,,77,127
66647,note_on,2,0,0,,0,,,72,127
66647,note_on,0,0,0,,10,,,69,127
66810,note_off,163,0,0,,10,,,69,127
66810,note_off,0,0,0,,0,,,72,127
66810,note_off,0,0,0,,5,,,41,127
66812,note_on,2,0,0,,10,,,45,127
66812,note_on,0,0,0,,0,,,72,127
66812,note_on,0,0,0,,10,,,69,127
66975,note_off,163,0,0,,10,,,69,127
66975,note_off,0,0,0,,0,,,72,127
66977,note_on,2,0,0,,7,,,67,127
66977,note_on,0,0,0,,11,,,70,127
67140,note_off,163,0,0,,11,,,70,127
67140,note_off,0,0,0,,7,,,67,127
67140,note_off,0,0,0,,10,,,45,127
67142,note_on,2,0,0,,11,,,46,127
67142,note_on,0,0,0,,7,,,67,127
67142,note_on,0,0,0,,11,,,70,127
67305,note_off,163,0,0,,11,,,70,127
67305,note_off,0,0,0,,7,,,67,127
67307,note_on,2,0,0,,10,,,69,127
67307,note_on,0,0,0,,5,,,65,127
67470,note_off,163,0,0,,5,,,65,127
67470,note_off,0,0,0,,10,,,69,127
67470,note_off,0,0,0,,11,,,46,127
67472,note_on,2,0,0,,0,,,48,127
67472,note_on,0,0,0,,5,,,65,127
67472,note_on,0,0,0,,10,,,69,127
67635,note_off,163,0,0,,10,,,69,127
67635,note_off,0,0,0,,5,,,65,127
67637,note_on,2,0,0,,11,,,58,127
67637,note_on,0,0,0,,7,,,67,127
67800,note_off,163,0,0,,7,,,67,127
67800,note_off,0,0,0,,11,,,58,127
67802,note_on,2,0,0,,0,,,36,127
67802,note_on,0,0,0,,7,,,67,127
67802,note_on,0,0,0,,11,,,58,127
67965,note_off,163,0,0,,11,,,58,127
67965,note_off,0,0,0,,7,,,67,127
67967,note_on,2,0,0,,5,,,65,127
67967,note_on,0,0,0,,10,,,57,127
68130,note_off,163,0,0,,10,,,57,127
68130,note_off,0,0,0,,5,,,65,127
68132,note_on,2,0,0,,5,,,65,127
68132,note_on,0,0,0,,10,,,57,127
68295,note_off,163,0,0,,10,,,57,127
68295,note_off,0,0,0,,5,,,65,127
68297,note_on,2,0,0,,4,,,64,127
68297,note_on,0,0,0,,7,,,55,127
68460,note_off,163,0,0,,7,,,55,127
68460,note_off,0,0,0,,4,,,64,127
68460,note_off,0,0,0,,0,,,36,127
68460,note_off,0,0,0,,0,,,48,127
68474,note_on,14,0,0,,5,,,41,127
68474,note_on,0,0,0,,5,,,65,127
70601,note_off,2127,0,0,,5,,,65,127
70601,note_off,0,0,0,,5,,,41,127
72192,end_of_track,1591,1,0,,,,,,
