tick,type,time,meta,track,program,channel,pitch,tempo,note,velocity
0,copyright,0,1,0,,,,,,
0,program_change,0,0,0,6,0,,,,
0,pitchwheel,0,0,0,,0,0,,,
0,program_change,0,0,0,6,1,,,,
0,pitchwheel,0,0,0,,1,-590,,,
0,program_change,0,0,0,6,2,,,,
0,pitchwheel,0,0,0,,2,-272,,,
0,program_change,0,0,0,6,3,,,,
0,pitchwheel,0,0,0,,3,-353,,,
0,program_change,0,0,0,6,4,,,,
0,pitchwheel,0,0,0,,4,-560,,,
0,program_change,0,0,0,6,5,,,,
0,pitchwheel,0,0,0,,5,-80,,,
0,program_change,0,0,0,6,6,,,,
0,pitchwheel,0,0,0,,6,-625,,,
0,program_change,0,0,0,6,7,,,,
0,pitchwheel,0,0,0,,7,-130,,,
0,program_change,0,0,0,6,8,,,,
0,pitchwheel,0,0,0,,8,-512,,,
0,program_change,0,0,0,6,10,,,,
0,pitchwheel,0,0,0,,10,-464,,,
0,program_change,0,0,0,6,11,,,,
0,pitchwheel,0,0,0,,11,-208,,,
0,program_change,0,0,0,6,12,,,,
0,pitchwheel,0,0,0,,12,-553,,,
0,set_tempo,0,1,0,,,,500000,,
105,note_on,105,0,0,,0,,,72,127
313,note_off,208,0,0,,0,,,72,127
314,note_on,1,0,0,,5,,,77,127
314,note_on,0,0,0,,5,,,53,127
314,note_on,0,0,0,,5,,,65,127
522,note_off,208,0,0,,5,,,77,127
523,note_on,1,0,0,,4,,,76,127
627,note_off,104,0,0,,4,,,76,127
628,note_on,1,0,0,,5,,,77,127
732,note_off,104,0,0,,5,,,77,127
733,note_on,1,0,0,,10,,,81,127
838,note_off,105,0,0,,5,,,65,127
838,note_off,0,0,0,,5,,,53,127
942,note_off,104,0,0,,10,,,81,127
943,note_on,1,0,0,,7,,,79,127
943,note_on,0,0,0,,0,,,48,127
943,note_on,0,0,0,,0,,,60,127
1151,note_off,208,0,0,,0,,,60,127
1151,note_off,0,0,0,,0,,,48,127
1151,note_off,0,0,0,,7,,,79,127
1152,note_on,1,0,0,,5,,,77,127
1152,note_on,0,0,0,,10,,,45,127
1152,note_on,0,0,0,,10,,,57,127
1360,note_off,208,0,0,,10,,,57,127
1360,note_off,0,0,0,,10,,,45,127
1360,note_off,0,0,0,,5,,,77,127
1361,note_on,1,0,0,,4,,,76,127
1361,note_on,0,0,0,,5,,,53,127
1361,note_on,0,0,0,,5,,,41,127
1465,note_off,104,0,0,,4,,,76,127
1466,note_on,1,0,0,,5,,,77,127
1570,note_off,104,0,0,,5,,,77,127
1571,note_on,1,0,0,,10,,,81,127
1676,note_off,105,0,0,,5,,,41,127
1676,note_off,0,0,0,,5,,,53,127
1780,note_off,104,0,0,,10,,,81,127
1781,note_on,1,0,0,,7,,,79,127
1781,note_on,0,0,0,,0,,,48,127
1989,note_off,208,0,0,,0,,,48,127
1989,note_off,0,0,0,,7,,,79,127
1990,note_on,1,0,0,,5,,,77,127
1990,note_on,0,0,0,,10,,,45,127
2198,note_off,208,0,0,,10,,,45,127
2198,note_off,0,0,0,,5,,,77,127
2199,note_on,1,0,0,,4,,,76,127
2199,note_on,0,0,0,,5,,,41,127
2303,note_off,104,0,0,,4,,,76,127
2304,note_on,1,0,0,,2,,,74,127
2408,note_off,104,0,0,,2,,,74,127
2408,note_off,0,0,0,,5,,,41,127
2409,note_on,1,0,0,,0,,,72,127
2409,note_on,0,0,0,,0,,,48,127
2409,note_on,0,0,0,,0,,,36,127
2617,note_off,208,0,0,,0,,,72,127
2618,note_on,1,0,0,,11,,,70,127
2826,note_off,208,0,0,,11,,,70,127
2826,note_off,0,0,0,,0,,,36,127
2826,note_off,0,0,0,,0,,,48,127
2827,note_on,1,0,0,,0,,,72,127
2827,note_on,0,0,0,,5,,,41,127
2878,note_off,51,0,0,,0,,,72,127
2879,note_on,1,0,0,,11,,,70,127
2930,note_off,51,0,0,,11,,,70,127
2931,note_on,1,0,0,,10,,,69,127
2982,note_off,51,0,0,,10,,,69,127
2983,note_on,1,0,0,,11,,,70,127
3034,note_off,51,0,0,,11,,,70,127
3035,note_on,1,0,0,,10,,,69,127
3243,note_off,208,0,0,,5,,,41,127
3244,note_on,1,0,0,,5,,,53,127
3349,note_off,105,0,0,,10,,,69,127
3453,note_off,104,0,0,,5,,,53,127
3454,note_on,1,0,0,,0,,,60,127
3662,note_off,208,0,0,,0,,,60,127
3663,note_on,1,0,0,,5,,,65,127
3871,note_off,208,0,0,,5,,,65,127
3872,note_on,1,0,0,,0,,,84,127
3872,note_on,0,0,0,,4,,,64,127
3976,note_off,104,0,0,,4,,,64,127
3977,note_on,1,0,0,,5,,,65,127
4081,note_off,104,0,0,,5,,,65,127
4081,note_off,0,0,0,,0,,,84,127
4082,note_on,1,0,0,,0,,,72,127
4082,note_on,0,0,0,,10,,,69,127
4290,note_off,208,0,0,,10,,,69,127
4290,note_off,0,0,0,,0,,,72,127
4291,note_on,1,0,0,,11,,,82,127
4291,note_on,0,0,0,,7,,,67,127
4499,note_off,208,0,0,,7,,,67,127
4499,note_off,0,0,0,,11,,,82,127
4500,note_on,1,0,0,,10,,,81,127
4500,note_on,0,0,0,,5,,,65,127
4708,note_off,208,0,0,,5,,,65,127
4708,note_off,0,0,0,,10,,,81,127
4709,note_on,1,0,0,,0,,,84,127
4709,note_on,0,0,0,,4,,,64,127
4813,note_off,104,0,0,,4,,,64,127
4814,note_on,1,0,0,,5,,,65,127
4918,note_off,104,0,0,,5,,,65,127
4919,note_on,1,0,0,,10,,,69,127
5024,note_off,105,0,0,,0,,,84,127
5128,note_off,104,0,0,,10,,,69,127
5129,note_on,1,0,0,,11,,,82,127
5129,note_on,0,0,0,,7,,,67,127
5337,note_off,208,0,0,,7,,,67,127
5337,note_off,0,0,0,,11,,,82,127
5338,note_on,1,0,0,,10,,,81,127
5338,note_on,0,0,0,,5,,,65,127
5546,note_off,208,0,0,,5,,,65,127
5546,note_off,0,0,0,,10,,,81,127
5547,note_on,1,0,0,,7,,,79,127
5547,note_on,0,0,0,,4,,,64,127
5651,note_off,104,0,0,,4,,,64,127
5651,note_off,0,0,0,,7,,,79,127
5652,note_on,1,0,0,,5,,,77,127
5652,note_on,0,0,0,,2,,,62,127
5756,note_off,104,0,0,,2,,,62,127
5756,note_off,0,0,0,,5,,,77,127
5757,note_on,1,0,0,,7,,,79,127
5757,note_on,0,0,0,,0,,,60,127
5965,note_off,208,0,0,,0,,,60,127
5965,note_off,0,0,0,,7,,,79,127
5966,note_on,1,0,0,,4,,,76,127
5966,note_on,0,0,0,,11,,,58,127
6174,note_off,208,0,0,,11,,,58,127
6174,note_off,0,0,0,,4,,,76,127
6175,note_on,1,0,0,,4,,,76,127
6175,note_on,0,0,0,,10,,,57,127
6383,note_off,208,0,0,,10,,,57,127
6383,note_off,0,0,0,,4,,,76,127
6384,note_on,1,0,0,,5,,,77,127
6384,note_on,0,0,0,,0,,,60,127
6592,note_off,208,0,0,,0,,,60,127
6593,note_on,1,0,0,,5,,,65,127
6698,note_off,105,0,0,,5,,,77,127
6802,note_off,104,0,0,,5,,,65,127
6803,note_on,1,0,0,,5,,,77,127
6803,note_on,0,0,0,,10,,,57,127
7011,note_off,208,0,0,,10,,,57,127
7011,note_off,0,0,0,,5,,,77,127
7012,note_on,1,0,0,,5,,,77,127
7012,note_on,0,0,0,,11,,,58,127
7220,note_off,208,0,0,,11,,,58,127
7220,note_off,0,0,0,,5,,,77,127
7221,note_on,1,0,0,,2,,,74,127
7221,note_on,0,0,0,,2,,,62,127
7429,note_off,208,0,0,,2,,,62,127
7430,note_on,1,0,0,,5,,,65,127
7535,note_off,105,0,0,,2,,,74,127
7639,note_off,104,0,0,,5,,,65,127
7640,note_on,1,0,0,,5,,,77,127
7640,note_on,0,0,0,,11,,,58,127
7848,note_off,208,0,0,,11,,,58,127
7848,note_off,0,0,0,,5,,,77,127
7849,note_on,1,0,0,,5,,,77,127
7849,note_on,0,0,0,,10,,,57,127
8057,note_off,208,0,0,,10,,,57,127
8057,note_off,0,0,0,,5,,,77,127
8058,note_on,1,0,0,,0,,,72,127
8058,note_on,0,0,0,,0,,,60,127
8266,note_off,208,0,0,,0,,,60,127
8267,note_on,1,0,0,,5,,,65,127
8372,note_off,105,0,0,,0,,,72,127
8476,note_off,104,0,0,,5,,,65,127
8477,note_on,1,0,0,,5,,,77,127
8477,note_on,0,0,0,,10,,,57,127
8685,note_off,208,0,0,,10,,,57,127
8685,note_off,0,0,0,,5,,,77,127
8686,note_on,1,0,0,,5,,,77,127
8686,note_on,0,0,0,,7,,,55,127
8894,note_off,208,0,0,,7,,,55,127
8894,note_off,0,0,0,,5,,,77,127
8895,note_on,1,0,0,,2,,,74,127
8895,note_on,0,0,0,,11,,,58,127
9103,note_off,208,0,0,,11,,,58,127
9104,note_on,1,0,0,,5,,,65,127
9209,note_off,105,0,0,,2,,,74,127
9313,note_off,104,0,0,,5,,,65,127
9314,note_on,1,0,0,,5,,,77,127
9314,note_on,0,0,0,,7,,,55,127
9522,note_off,208,0,0,,7,,,55,127
9522,note_off,0,0,0,,5,,,77,127
9523,note_on,1,0,0,,5,,,77,127
9523,note_on,0,0,0,,5,,,53,127
9731,note_off,208,0,0,,5,,,53,127
9731,note_off,0,0,0,,5,,,77,127
9732,note_on,1,0,0,,0,,,72,127
9732,note_on,0,0,0,,0,,,60,127
9939,note_off,207,0,0,,0,,,72,127
9940,note_off,1,0,0,,0,,,60,127
9941,note_on,1,0,0,,5,,,65,127
10046,note_on,105,0,0,,0,,,72,127
10150,note_off,104,0,0,,0,,,72,127
10150,note_off,0,0,0,,5,,,65,127
10151,note_on,1,0,0,,11,,,70,127
10151,note_on,0,0,0,,5,,,53,127
10255,note_off,104,0,0,,11,,,70,127
10256,note_on,1,0,0,,10,,,69,127
10360,note_off,104,0,0,,10,,,69,127
10360,note_off,0,0,0,,5,,,53,127
10361,note_on,1,0,0,,7,,,67,127
10361,note_on,0,0,0,,4,,,64,127
10465,note_off,104,0,0,,7,,,67,127
10466,note_on,1,0,0,,11,,,70,127
10570,note_off,104,0,0,,11,,,70,127
10570,note_off,0,0,0,,4,,,64,127
10571,note_on,1,0,0,,10,,,69,127
10571,note_on,0,0,0,,0,,,60,127
10675,note_off,104,0,0,,10,,,69,127
10676,note_on,1,0,0,,7,,,67,127
10780,note_off,104,0,0,,7,,,67,127
10780,note_off,0,0,0,,0,,,60,127
10781,note_on,1,0,0,,10,,,69,127
10781,note_on,0,0,0,,5,,,65,127
10885,note_off,104,0,0,,10,,,69,127
10886,note_on,1,0,0,,0,,,72,127
10990,note_off,104,0,0,,0,,,72,127
10990,note_off,0,0,0,,5,,,65,127
10991,note_on,1,0,0,,11,,,70,127
10991,note_on,0,0,0,,7,,,67,127
11095,note_off,104,0,0,,11,,,70,127
11096,note_on,1,0,0,,2,,,74,127
11200,note_off,104,0,0,,2,,,74,127
11200,note_off,0,0,0,,7,,,67,127
11201,note_on,1,0,0,,0,,,72,127
11201,note_on,0,0,0,,10,,,69,127
11305,note_off,104,0,0,,0,,,72,127
11306,note_on,1,0,0,,4,,,76,127
11410,note_off,104,0,0,,4,,,76,127
11410,note_off,0,0,0,,10,,,69,127
11411,note_on,1,0,0,,2,,,74,127
11411,note_on,0,0,0,,11,,,70,127
11515,note_off,104,0,0,,2,,,74,127
11516,note_on,1,0,0,,5,,,77,127
11620,note_off,104,0,0,,5,,,77,127
11620,note_off,0,0,0,,11,,,70,127
11621,note_on,1,0,0,,4,,,76,127
11621,note_on,0,0,0,,0,,,72,127
11725,note_off,104,0,0,,4,,,76,127
11726,note_on,1,0,0,,7,,,79,127
11830,note_off,104,0,0,,7,,,79,127
11830,note_off,0,0,0,,0,,,72,127
11831,note_on,1,0,0,,5,,,77,127
11831,note_on,0,0,0,,2,,,74,127
11935,note_off,104,0,0,,5,,,77,127
11936,note_on,1,0,0,,10,,,81,127
12040,note_off,104,0,0,,10,,,81,127
12040,note_off,0,0,0,,2,,,74,127
12041,note_on,1,0,0,,7,,,79,127
12041,note_on,0,0,0,,4,,,76,127
12145,note_off,104,0,0,,7,,,79,127
12146,note_on,1,0,0,,11,,,82,127
12250,note_off,104,0,0,,11,,,82,127
12250,note_off,0,0,0,,4,,,76,127
12251,note_on,1,0,0,,10,,,81,127
12251,note_on,0,0,0,,0,,,72,127
12355,note_off,104,0,0,,10,,,81,127
12356,note_on,1,0,0,,7,,,79,127
12460,note_off,104,0,0,,7,,,79,127
12460,note_off,0,0,0,,0,,,72,127
12461,note_on,1,0,0,,10,,,81,127
12461,note_on,0,0,0,,5,,,77,127
12565,note_off,104,0,0,,10,,,81,127
12566,note_on,1,0,0,,0,,,84,127
12670,note_off,104,0,0,,0,,,84,127
12670,note_off,0,0,0,,5,,,77,127
12671,note_on,1,0,0,,11,,,82,127
12671,note_on,0,0,0,,5,,,65,127
12775,note_off,104,0,0,,11,,,82,127
12776,note_on,1,0,0,,10,,,81,127
12880,note_off,104,0,0,,10,,,81,127
12880,note_off,0,0,0,,5,,,65,127
12881,note_on,1,0,0,,7,,,79,127
12881,note_on,0,0,0,,0,,,60,127
12976,note_off,95,0,0,,7,,,79,127
12986,note_on,10,0,0,,7,,,79,127
13090,note_off,104,0,0,,7,,,79,127
13090,note_off,0,0,0,,0,,,60,127
13091,note_on,1,0,0,,10,,,81,127
13091,note_on,0,0,0,,0,,,72,127
13195,note_off,104,0,0,,10,,,81,127
13196,note_on,1,0,0,,7,,,79,127
13300,note_off,104,0,0,,7,,,79,127
13300,note_off,0,0,0,,0,,,72,127
13301,note_on,1,0,0,,7,,,79,127
13301,note_on,0,0,0,,12,,,71,127
13405,note_off,104,0,0,,7,,,79,127
13406,note_on,1,0,0,,5,,,77,127
13510,note_off,104,0,0,,5,,,77,127
13510,note_off,0,0,0,,12,,,71,127
13511,note_on,1,0,0,,4,,,76,127
13511,note_on,0,0,0,,12,,,59,127
13615,note_off,104,0,0,,4,,,76,127
13616,note_on,1,0,0,,2,,,74,127
13720,note_off,104,0,0,,2,,,74,127
13720,note_off,0,0,0,,12,,,59,127
13721,note_on,1,0,0,,0,,,72,127
13721,note_on,0,0,0,,10,,,57,127
13816,note_off,95,0,0,,0,,,72,127
13826,note_on,10,0,0,,4,,,76,127
13930,note_off,104,0,0,,4,,,76,127
13930,note_off,0,0,0,,10,,,57,127
13931,note_on,1,0,0,,5,,,77,127
13931,note_on,0,0,0,,10,,,69,127
14035,note_off,104,0,0,,5,,,77,127
14036,note_on,1,0,0,,4,,,76,127
14140,note_off,104,0,0,,4,,,76,127
14140,note_off,0,0,0,,10,,,69,127
14141,note_on,1,0,0,,4,,,76,127
14141,note_on,0,0,0,,7,,,67,127
14245,note_off,104,0,0,,4,,,76,127
14246,note_on,1,0,0,,2,,,74,127
14350,note_off,104,0,0,,2,,,74,127
14350,note_off,0,0,0,,7,,,67,127
14351,note_on,1,0,0,,0,,,72,127
14351,note_on,0,0,0,,7,,,55,127
14455,note_off,104,0,0,,0,,,72,127
14456,note_on,1,0,0,,12,,,71,127
14560,note_off,104,0,0,,12,,,71,127
14560,note_off,0,0,0,,7,,,55,127
14561,note_on,1,0,0,,10,,,69,127
14561,note_on,0,0,0,,5,,,53,127
14656,note_off,95,0,0,,10,,,69,127
14666,note_on,10,0,0,,0,,,72,127
14770,note_off,104,0,0,,0,,,72,127
14770,note_off,0,0,0,,5,,,53,127
14771,note_on,1,0,0,,2,,,74,127
14771,note_on,0,0,0,,5,,,65,127
14875,note_off,104,0,0,,2,,,74,127
14876,note_on,1,0,0,,0,,,72,127
14980,note_off,104,0,0,,0,,,72,127
14980,note_off,0,0,0,,5,,,65,127
14981,note_on,1,0,0,,0,,,72,127
14981,note_on,0,0,0,,4,,,64,127
15085,note_off,104,0,0,,0,,,72,127
15086,note_on,1,0,0,,12,,,71,127
15190,note_off,104,0,0,,12,,,71,127
15190,note_off,0,0,0,,4,,,64,127
15191,note_on,1,0,0,,10,,,69,127
15191,note_on,0,0,0,,4,,,52,127
15295,note_off,104,0,0,,10,,,69,127
15296,note_on,1,0,0,,7,,,67,127
15400,note_off,104,0,0,,7,,,67,127
15400,note_off,0,0,0,,4,,,52,127
15401,note_on,1,0,0,,5,,,65,127
15401,note_on,0,0,0,,2,,,50,127
15505,note_off,104,0,0,,5,,,65,127
15506,note_on,1,0,0,,7,,,67,127
15610,note_off,104,0,0,,7,,,67,127
15610,note_off,0,0,0,,2,,,50,127
15611,note_on,1,0,0,,10,,,69,127
15611,note_on,0,0,0,,2,,,62,127
15715,note_off,104,0,0,,10,,,69,127
15716,note_on,1,0,0,,12,,,71,127
15820,note_off,104,0,0,,12,,,71,127
15820,note_off,0,0,0,,2,,,62,127
15821,note_on,1,0,0,,0,,,72,127
15821,note_on,0,0,0,,4,,,64,127
15925,note_off,104,0,0,,0,,,72,127
15926,note_on,1,0,0,,2,,,74,127
16030,note_off,104,0,0,,2,,,74,127
16030,note_off,0,0,0,,4,,,64,127
16031,note_on,1,0,0,,4,,,76,127
16031,note_on,0,0,0,,0,,,60,127
16135,note_off,104,0,0,,4,,,76,127
16136,note_on,1,0,0,,0,,,72,127
16240,note_off,104,0,0,,0,,,72,127
16240,note_off,0,0,0,,0,,,60,127
16241,note_on,1,0,0,,4,,,76,127
16241,note_on,0,0,0,,7,,,55,127
16292,note_off,51,0,0,,4,,,76,127
16293,note_on,1,0,0,,2,,,74,127
16344,note_off,51,0,0,,2,,,74,127
16344,note_off,0,0,0,,7,,,55,127
16345,note_on,1,0,0,,4,,,76,127
16345,note_on,0,0,0,,7,,,67,127
16396,note_off,51,0,0,,4,,,76,127
16397,note_on,1,0,0,,2,,,74,127
16448,note_off,51,0,0,,7,,,67,127
16449,note_on,1,0,0,,10,,,69,127
16553,note_off,104,0,0,,10,,,69,127
16554,note_on,1,0,0,,7,,,67,127
16658,note_off,104,0,0,,7,,,67,127
16659,note_on,1,0,0,,7,,,67,127
16711,note_off,52,0,0,,2,,,74,127
16762,note_off,51,0,0,,7,,,67,127
16763,note_on,1,0,0,,5,,,65,127
16867,note_off,104,0,0,,5,,,65,127
16868,note_on,1,0,0,,7,,,79,127
16868,note_on,0,0,0,,4,,,64,127
16972,note_off,104,0,0,,4,,,64,127
16973,note_on,1,0,0,,2,,,62,127
17077,note_off,104,0,0,,2,,,62,127
17077,note_off,0,0,0,,7,,,79,127
17078,note_on,1,0,0,,0,,,84,127
17078,note_on,0,0,0,,0,,,60,127
17182,note_off,104,0,0,,0,,,60,127
17183,note_on,1,0,0,,4,,,64,127
17287,note_off,104,0,0,,4,,,64,127
17288,note_on,1,0,0,,0,,,72,127
17288,note_on,0,0,0,,5,,,65,127
17392,note_off,104,0,0,,5,,,65,127
17393,note_on,1,0,0,,4,,,64,127
17497,note_off,104,0,0,,4,,,64,127
17497,note_off,0,0,0,,0,,,72,127
17498,note_on,1,0,0,,0,,,72,127
17498,note_on,0,0,0,,4,,,64,127
17602,note_off,104,0,0,,4,,,64,127
17603,note_on,1,0,0,,2,,,62,127
17707,note_off,104,0,0,,2,,,62,127
17707,note_off,0,0,0,,0,,,72,127
17708,note_on,1,0,0,,0,,,72,127
17708,note_on,0,0,0,,0,,,60,127
17812,note_off,104,0,0,,0,,,60,127
17813,note_on,1,0,0,,12,,,59,127
17917,note_off,104,0,0,,12,,,59,127
17917,note_off,0,0,0,,0,,,72,127
17917,note_off,0,0,0,,0,,,84,127
17918,note_on,1,0,0,,0,,,84,127
17918,note_on,0,0,0,,10,,,57,127
18022,note_off,104,0,0,,10,,,57,127
18023,note_on,1,0,0,,0,,,60,127
18127,note_off,104,0,0,,0,,,60,127
18128,note_on,1,0,0,,0,,,72,127
18128,note_on,0,0,0,,2,,,62,127
18232,note_off,104,0,0,,2,,,62,127
18233,note_on,1,0,0,,0,,,60,127
18337,note_off,104,0,0,,0,,,60,127
18337,note_off,0,0,0,,0,,,72,127
18338,note_on,1,0,0,,0,,,72,127
18338,note_on,0,0,0,,0,,,60,127
18442,note_off,104,0,0,,0,,,60,127
18443,note_on,1,0,0,,12,,,59,127
18547,note_off,104,0,0,,12,,,59,127
18547,note_off,0,0,0,,0,,,72,127
18548,note_on,1,0,0,,0,,,72,127
18548,note_on,0,0,0,,10,,,57,127
18652,note_off,104,0,0,,10,,,57,127
18653,note_on,1,0,0,,7,,,55,127
18757,note_off,104,0,0,,7,,,55,127
18757,note_off,0,0,0,,0,,,72,127
18757,note_off,0,0,0,,0,,,84,127
18758,note_on,1,0,0,,10,,,81,127
18758,note_on,0,0,0,,5,,,53,127
18862,note_off,104,0,0,,5,,,53,127
18863,note_on,1,0,0,,10,,,57,127
18967,note_off,104,0,0,,10,,,57,127
18967,note_off,0,0,0,,10,,,81,127
18968,note_on,1,0,0,,7,,,79,127
18968,note_on,0,0,0,,7,,,55,127
19072,note_off,104,0,0,,7,,,55,127
19073,note_on,1,0,0,,12,,,59,127
19177,note_off,104,0,0,,12,,,59,127
19178,note_on,1,0,0,,10,,,57,127
19282,note_off,104,0,0,,10,,,57,127
19283,note_on,1,0,0,,0,,,60,127
19340,note_off,57,0,0,,7,,,79,127
19387,note_off,47,0,0,,0,,,60,127
19388,note_on,1,0,0,,5,,,77,127
19388,note_on,0,0,0,,12,,,59,127
19492,note_off,104,0,0,,12,,,59,127
19493,note_on,1,0,0,,2,,,62,127
19597,note_off,104,0,0,,2,,,62,127
19597,note_off,0,0,0,,5,,,77,127
19598,note_on,1,0,0,,4,,,76,127
19598,note_on,0,0,0,,0,,,60,127
19702,note_off,104,0,0,,0,,,60,127
19703,note_on,1,0,0,,4,,,64,127
19807,note_off,104,0,0,,4,,,64,127
19807,note_off,0,0,0,,4,,,76,127
19808,note_on,1,0,0,,2,,,74,127
19808,note_on,0,0,0,,2,,,62,127
19912,note_off,104,0,0,,2,,,62,127
19913,note_on,1,0,0,,5,,,65,127
20017,note_off,104,0,0,,5,,,65,127
20018,note_on,1,0,0,,4,,,64,127
20122,note_off,104,0,0,,4,,,64,127
20123,note_on,1,0,0,,7,,,67,127
20180,note_off,57,0,0,,2,,,74,127
20227,note_off,47,0,0,,7,,,67,127
20228,note_on,1,0,0,,0,,,72,127
20228,note_on,0,0,0,,5,,,65,127
20332,note_off,104,0,0,,5,,,65,127
20333,note_on,1,0,0,,10,,,69,127
20437,note_off,104,0,0,,10,,,69,127
20437,note_off,0,0,0,,0,,,72,127
20438,note_on,1,0,0,,12,,,71,127
20438,note_on,0,0,0,,7,,,67,127
20542,note_off,104,0,0,,12,,,71,127
20543,note_on,1,0,0,,7,,,79,127
20647,note_off,104,0,0,,7,,,79,127
20648,note_on,1,0,0,,10,,,81,127
20752,note_off,104,0,0,,10,,,81,127
20753,note_on,1,0,0,,7,,,79,127
20853,note_off,100,0,0,,7,,,67,127
20856,note_off,3,0,0,,7,,,79,127
20857,note_on,1,0,0,,7,,,79,127
20962,note_on,105,0,0,,7,,,67,127
21066,note_off,104,0,0,,7,,,67,127
21066,note_off,0,0,0,,7,,,79,127
21067,note_on,1,0,0,,7,,,79,127
21067,note_on,0,0,0,,4,,,64,127
21171,note_off,104,0,0,,4,,,64,127
21172,note_on,1,0,0,,0,,,60,127
21276,note_off,104,0,0,,0,,,60,127
21276,note_off,0,0,0,,7,,,79,127
21277,note_on,1,0,0,,0,,,84,127
21277,note_on,0,0,0,,10,,,45,127
21382,note_on,105,0,0,,0,,,72,127
21485,note_off,103,0,0,,0,,,84,127
21486,note_off,1,0,0,,0,,,72,127
21487,note_on,1,0,0,,2,,,74,127
21591,note_off,104,0,0,,2,,,74,127
21592,note_on,1,0,0,,0,,,72,127
21692,note_off,100,0,0,,10,,,45,127
21695,note_off,3,0,0,,0,,,72,127
21696,note_on,1,0,0,,0,,,72,127
21801,note_on,105,0,0,,4,,,64,127
21905,note_off,104,0,0,,4,,,64,127
21905,note_off,0,0,0,,0,,,72,127
21906,note_on,1,0,0,,0,,,72,127
21906,note_on,0,0,0,,0,,,60,127
22010,note_off,104,0,0,,0,,,60,127
22011,note_on,1,0,0,,10,,,57,127
22115,note_off,104,0,0,,10,,,57,127
22115,note_off,0,0,0,,0,,,72,127
22116,note_on,1,0,0,,10,,,81,127
22116,note_on,0,0,0,,5,,,41,127
22221,note_on,105,0,0,,10,,,69,127
22324,note_off,103,0,0,,10,,,81,127
22325,note_off,1,0,0,,10,,,69,127
22326,note_on,1,0,0,,12,,,71,127
22430,note_off,104,0,0,,12,,,71,127
22431,note_on,1,0,0,,10,,,69,127
22531,note_off,100,0,0,,5,,,41,127
22534,note_off,3,0,0,,10,,,69,127
22535,note_on,1,0,0,,10,,,69,127
22640,note_on,105,0,0,,0,,,60,127
22744,note_off,104,0,0,,0,,,60,127
22744,note_off,0,0,0,,10,,,69,127
22745,note_on,1,0,0,,10,,,69,127
22745,note_on,0,0,0,,10,,,57,127
22849,note_off,104,0,0,,10,,,57,127
22850,note_on,1,0,0,,5,,,53,127
22954,note_off,104,0,0,,5,,,53,127
22954,note_off,0,0,0,,10,,,69,127
22955,note_on,1,0,0,,5,,,77,127
22955,note_on,0,0,0,,2,,,38,127
23060,note_on,105,0,0,,5,,,65,127
23163,note_off,103,0,0,,5,,,77,127
23164,note_off,1,0,0,,5,,,65,127
23165,note_on,1,0,0,,7,,,67,127
23269,note_off,104,0,0,,7,,,67,127
23270,note_on,1,0,0,,5,,,65,127
23370,note_off,100,0,0,,2,,,38,127
23373,note_off,3,0,0,,5,,,65,127
23374,note_on,1,0,0,,5,,,65,127
23479,note_on,105,0,0,,2,,,62,127
23583,note_off,104,0,0,,2,,,62,127
23583,note_off,0,0,0,,5,,,65,127
23584,note_on,1,0,0,,5,,,65,127
23584,note_on,0,0,0,,12,,,59,127
23688,note_off,104,0,0,,12,,,59,127
23689,note_on,1,0,0,,7,,,55,127
23793,note_off,104,0,0,,7,,,55,127
23793,note_off,0,0,0,,5,,,65,127
23794,note_on,1,0,0,,2,,,74,127
23794,note_on,0,0,0,,7,,,31,127
23898,note_off,104,0,0,,2,,,74,127
23899,note_on,1,0,0,,12,,,71,127
24003,note_off,104,0,0,,12,,,71,127
24004,note_on,1,0,0,,0,,,72,127
24108,note_off,104,0,0,,0,,,72,127
24109,note_on,1,0,0,,10,,,69,127
24213,note_off,104,0,0,,10,,,69,127
24214,note_on,1,0,0,,12,,,71,127
24318,note_off,104,0,0,,12,,,71,127
24319,note_on,1,0,0,,7,,,67,127
24341,note_off,22,0,0,,7,,,31,127
24423,note_off,82,0,0,,7,,,67,127
24424,note_on,1,0,0,,5,,,77,127
24424,note_on,0,0,0,,7,,,43,127
24528,note_off,104,0,0,,5,,,77,127
24529,note_on,1,0,0,,2,,,74,127
24633,note_off,104,0,0,,2,,,74,127
24633,note_off,0,0,0,,7,,,43,127
24634,note_on,1,0,0,,4,,,76,127
24634,note_on,0,0,0,,0,,,48,127
24738,note_off,104,0,0,,4,,,76,127
24739,note_on,1,0,0,,0,,,72,127
24843,note_off,104,0,0,,0,,,72,127
24843,note_off,0,0,0,,0,,,48,127
24844,note_on,1,0,0,,2,,,74,127
24844,note_on,0,0,0,,5,,,53,127
24948,note_off,104,0,0,,2,,,74,127
24949,note_on,1,0,0,,5,,,77,127
25053,note_off,104,0,0,,5,,,77,127
25053,note_off,0,0,0,,5,,,53,127
25054,note_on,1,0,0,,4,,,76,127
25054,note_on,0,0,0,,7,,,55,127
25158,note_off,104,0,0,,4,,,76,127
25159,note_on,1,0,0,,2,,,74,127
25263,note_off,104,0,0,,2,,,74,127
25263,note_off,0,0,0,,7,,,55,127
25264,note_on,1,0,0,,0,,,72,127
25264,note_on,0,0,0,,7,,,43,127
25368,note_off,104,0,0,,0,,,72,127
25369,note_on,1,0,0,,12,,,71,127
25473,note_off,104,0,0,,12,,,71,127
25473,note_off,0,0,0,,7,,,43,127
25474,note_on,1,0,0,,0,,,72,127
25474,note_on,0,0,0,,0,,,48,127
25578,note_off,104,0,0,,0,,,72,127
25579,note_on,1,0,0,,7,,,79,127
25683,note_off,104,0,0,,7,,,79,127
25684,note_on,1,0,0,,10,,,81,127
25788,note_off,104,0,0,,10,,,81,127
25789,note_on,1,0,0,,7,,,79,127
25889,note_off,100,0,0,,0,,,48,127
25892,note_off,3,0,0,,7,,,79,127
25893,note_on,1,0,0,,7,,,79,127
25998,note_on,105,0,0,,7,,,67,127
26102,note_off,104,0,0,,7,,,67,127
26102,note_off,0,0,0,,7,,,79,127
26103,note_on,1,0,0,,7,,,79,127
26103,note_on,0,0,0,,4,,,64,127
26207,note_off,104,0,0,,4,,,64,127
26208,note_on,1,0,0,,0,,,60,127
26312,note_off,104,0,0,,0,,,60,127
26312,note_off,0,0,0,,7,,,79,127
26313,note_on,1,0,0,,0,,,84,127
26313,note_on,0,0,0,,10,,,45,127
26418,note_on,105,0,0,,0,,,72,127
26521,note_off,103,0,0,,0,,,84,127
26522,note_off,1,0,0,,0,,,72,127
26523,note_on,1,0,0,,2,,,74,127
26627,note_off,104,0,0,,2,,,74,127
26628,note_on,1,0,0,,0,,,72,127
26728,note_off,100,0,0,,10,,,45,127
26731,note_off,3,0,0,,0,,,72,127
26732,note_on,1,0,0,,0,,,72,127
26837,note_on,105,0,0,,4,,,64,127
26941,note_off,104,0,0,,4,,,64,127
26941,note_off,0,0,0,,0,,,72,127
26942,note_on,1,0,0,,0,,,72,127
26942,note_on,0,0,0,,0,,,60,127
27046,note_off,104,0,0,,0,,,60,127
27047,note_on,1,0,0,,10,,,57,127
27151,note_off,104,0,0,,10,,,57,127
27151,note_off,0,0,0,,0,,,72,127
27152,note_on,1,0,0,,10,,,81,127
27152,note_on,0,0,0,,5,,,41,127
27257,note_on,105,0,0,,10,,,69,127
27360,note_off,103,0,0,,10,,,81,127
27361,note_off,1,0,0,,10,,,69,127
27362,note_on,1,0,0,,12,,,71,127
27466,note_off,104,0,0,,12,,,71,127
27467,note_on,1,0,0,,10,,,69,127
27567,note_off,100,0,0,,5,,,41,127
27570,note_off,3,0,0,,10,,,69,127
27571,note_on,1,0,0,,10,,,69,127
27676,note_on,105,0,0,,0,,,60,127
27780,note_off,104,0,0,,0,,,60,127
27780,note_off,0,0,0,,10,,,69,127
27781,note_on,1,0,0,,10,,,69,127
27781,note_on,0,0,0,,10,,,57,127
27885,note_off,104,0,0,,10,,,57,127
27886,note_on,1,0,0,,5,,,53,127
27990,note_off,104,0,0,,5,,,53,127
27990,note_off,0,0,0,,10,,,69,127
27991,note_on,1,0,0,,5,,,77,127
27991,note_on,0,0,0,,2,,,38,127
28096,note_on,105,0,0,,5,,,65,127
28199,note_off,103,0,0,,5,,,77,127
28200,note_off,1,0,0,,5,,,65,127
28201,note_on,1,0,0,,7,,,67,127
28305,note_off,104,0,0,,7,,,67,127
28306,note_on,1,0,0,,5,,,65,127
28406,note_off,100,0,0,,2,,,38,127
28409,note_off,3,0,0,,5,,,65,127
28410,note_on,1,0,0,,5,,,65,127
28515,note_on,105,0,0,,2,,,62,127
28619,note_off,104,0,0,,2,,,62,127
28619,note_off,0,0,0,,5,,,65,127
28620,note_on,1,0,0,,5,,,65,127
28620,note_on,0,0,0,,12,,,59,127
28724,note_off,104,0,0,,12,,,59,127
28725,note_on,1,0,0,,7,,,55,127
28829,note_off,104,0,0,,7,,,55,127
28829,note_off,0,0,0,,5,,,65,127
28830,note_on,1,0,0,,2,,,74,127
28830,note_on,0,0,0,,7,,,31,127
28934,note_off,104,0,0,,2,,,74,127
28935,note_on,1,0,0,,12,,,71,127
29039,note_off,104,0,0,,12,,,71,127
29040,note_on,1,0,0,,0,,,72,127
29144,note_off,104,0,0,,0,,,72,127
29145,note_on,1,0,0,,10,,,69,127
29249,note_off,104,0,0,,10,,,69,127
29250,note_on,1,0,0,,12,,,71,127
29354,note_off,104,0,0,,12,,,71,127
29355,note_on,1,0,0,,7,,,67,127
29388,note_off,33,0,0,,7,,,31,127
29459,note_off,71,0,0,,7,,,67,127
29460,note_on,1,0,0,,5,,,77,127
29460,note_on,0,0,0,,7,,,43,127
29564,note_off,104,0,0,,5,,,77,127
29565,note_on,1,0,0,,2,,,74,127
29669,note_off,104,0,0,,2,,,74,127
29669,note_off,0,0,0,,7,,,43,127
29670,note_on,1,0,0,,4,,,76,127
29670,note_on,0,0,0,,0,,,48,127
29774,note_off,104,0,0,,4,,,76,127
29775,note_on,1,0,0,,0,,,72,127
29879,note_off,104,0,0,,0,,,72,127
29879,note_off,0,0,0,,0,,,48,127
29880,note_on,1,0,0,,2,,,74,127
29880,note_on,0,0,0,,5,,,53,127
29984,note_off,104,0,0,,2,,,74,127
29985,note_on,1,0,0,,5,,,77,127
30089,note_off,104,0,0,,5,,,77,127
30089,note_off,0,0,0,,5,,,53,127
30090,note_on,1,0,0,,4,,,76,127
30090,note_on,0,0,0,,7,,,55,127
30194,note_off,104,0,0,,4,,,76,127
30195,note_on,1,0,0,,2,,,74,127
30299,note_off,104,0,0,,2,,,74,127
30299,note_off,0,0,0,,7,,,55,127
30300,note_on,1,0,0,,0,,,72,127
30300,note_on,0,0,0,,7,,,43,127
30404,note_off,104,0,0,,0,,,72,127
30405,note_on,1,0,0,,12,,,71,127
30509,note_off,104,0,0,,12,,,71,127
30509,note_off,0,0,0,,7,,,43,127
30510,note_on,1,0,0,,0,,,72,127
30510,note_on,0,0,0,,0,,,48,127
30614,note_off,104,0,0,,0,,,72,127
30615,note_on,1,0,0,,7,,,79,127
30719,note_off,104,0,0,,7,,,79,127
30719,note_off,0,0,0,,0,,,48,127
30720,note_on,1,0,0,,10,,,81,127
30720,note_on,0,0,0,,0,,,60,127
30824,note_off,104,0,0,,10,,,81,127
30825,note_on,1,0,0,,7,,,79,127
30929,note_off,104,0,0,,7,,,79,127
30929,note_off,0,0,0,,0,,,60,127
30930,note_on,1,0,0,,7,,,79,127
30930,note_on,0,0,0,,12,,,59,127
31034,note_off,104,0,0,,7,,,79,127
31035,note_on,1,0,0,,5,,,77,127
31139,note_off,104,0,0,,5,,,77,127
31139,note_off,0,0,0,,12,,,59,127
31140,note_on,1,0,0,,4,,,76,127
31140,note_on,0,0,0,,7,,,55,127
31244,note_off,104,0,0,,4,,,76,127
31245,note_on,1,0,0,,2,,,74,127
31348,note_off,103,0,0,,7,,,55,127
31349,note_off,1,0,0,,2,,,74,127
31350,note_on,1,0,0,,4,,,76,127
31454,note_off,104,0,0,,4,,,76,127
31455,note_on,1,0,0,,7,,,79,127
31559,note_off,104,0,0,,7,,,79,127
31560,note_on,1,0,0,,10,,,81,127
31560,note_on,0,0,0,,0,,,72,127
31664,note_off,104,0,0,,10,,,81,127
31665,note_on,1,0,0,,7,,,79,127
31769,note_off,104,0,0,,7,,,79,127
31769,note_off,0,0,0,,0,,,72,127
31770,note_on,1,0,0,,7,,,79,127
31770,note_on,0,0,0,,12,,,71,127
31874,note_off,104,0,0,,7,,,79,127
31875,note_on,1,0,0,,5,,,77,127
31979,note_off,104,0,0,,5,,,77,127
31979,note_off,0,0,0,,12,,,71,127
31980,note_on,1,0,0,,4,,,76,127
31980,note_on,0,0,0,,7,,,67,127
32084,note_off,104,0,0,,4,,,76,127
32085,note_on,1,0,0,,2,,,74,127
32188,note_off,103,0,0,,7,,,67,127
32189,note_off,1,0,0,,2,,,74,127
32190,note_on,1,0,0,,4,,,76,127
32294,note_off,104,0,0,,4,,,76,127
32295,note_on,1,0,0,,7,,,79,127
32399,note_off,104,0,0,,7,,,79,127
32400,note_on,1,0,0,,10,,,81,127
32400,note_on,0,0,0,,0,,,36,127
32400,note_on,0,0,0,,0,,,48,127
32504,note_off,104,0,0,,10,,,81,127
32505,note_on,1,0,0,,7,,,79,127
32609,note_off,104,0,0,,7,,,79,127
32609,note_off,0,0,0,,0,,,48,127
32609,note_off,0,0,0,,0,,,36,127
32610,note_on,1,0,0,,7,,,79,127
32610,note_on,0,0,0,,12,,,35,127
32610,note_on,0,0,0,,12,,,47,127
32714,note_off,104,0,0,,7,,,79,127
32715,note_on,1,0,0,,5,,,77,127
32819,note_off,104,0,0,,5,,,77,127
32819,note_off,0,0,0,,12,,,47,127
32819,note_off,0,0,0,,12,,,35,127
32820,note_on,1,0,0,,4,,,76,127
32820,note_on,0,0,0,,7,,,31,127
32820,note_on,0,0,0,,7,,,43,127
32924,note_off,104,0,0,,4,,,76,127
32925,note_on,1,0,0,,2,,,74,127
33029,note_off,104,0,0,,2,,,74,127
33029,note_off,0,0,0,,7,,,43,127
33029,note_off,0,0,0,,7,,,31,127
33030,note_on,1,0,0,,4,,,76,127
33030,note_on,0,0,0,,0,,,36,127
33134,note_off,104,0,0,,4,,,76,127
33135,note_on,1,0,0,,7,,,79,127
33239,note_off,104,0,0,,7,,,79,127
33239,note_off,0,0,0,,0,,,36,127
33240,note_on,1,0,0,,5,,,77,127
33240,note_on,0,0,0,,5,,,53,127
33344,note_off,104,0,0,,5,,,77,127
33345,note_on,1,0,0,,10,,,81,127
33449,note_off,104,0,0,,10,,,81,127
33449,note_off,0,0,0,,5,,,53,127
33450,note_on,1,0,0,,7,,,79,127
33450,note_on,0,0,0,,7,,,55,127
33554,note_off,104,0,0,,7,,,79,127
33555,note_on,1,0,0,,5,,,77,127
33659,note_off,104,0,0,,5,,,77,127
33659,note_off,0,0,0,,7,,,55,127
33660,note_on,1,0,0,,4,,,76,127
33660,note_on,0,0,0,,7,,,43,127
33764,note_off,104,0,0,,4,,,76,127
33765,note_on,1,0,0,,2,,,74,127
33869,note_off,104,0,0,,2,,,74,127
33869,note_off,0,0,0,,7,,,43,127
33870,note_on,1,0,0,,0,,,72,127
33870,note_on,0,0,0,,0,,,48,127
33974,note_off,104,0,0,,0,,,48,127
33975,note_on,1,0,0,,0,,,60,127
34079,note_off,104,0,0,,0,,,60,127
34080,note_on,1,0,0,,2,,,62,127
34184,note_off,104,0,0,,2,,,62,127
34185,note_on,1,0,0,,0,,,60,127
34289,note_off,104,0,0,,0,,,60,127
34290,note_on,1,0,0,,0,,,60,127
34394,note_off,104,0,0,,0,,,60,127
34395,note_off,1,0,0,,0,,,72,127
34395,note_on,0,0,0,,12,,,59,127
34499,note_off,104,0,0,,12,,,59,127
34500,note_on,1,0,0,,7,,,79,127
34500,note_on,0,0,0,,10,,,57,127
34604,note_off,104,0,0,,10,,,57,127
34605,note_on,1,0,0,,7,,,55,127
34709,note_off,104,0,0,,7,,,55,127
34709,note_off,0,0,0,,7,,,79,127
34710,note_on,1,0,0,,10,,,81,127
34710,note_on,0,0,0,,5,,,53,127
34814,note_off,104,0,0,,5,,,53,127
34815,note_on,1,0,0,,0,,,60,127
34919,note_off,104,0,0,,0,,,60,127
34919,note_off,0,0,0,,10,,,81,127
34920,note_on,1,0,0,,0,,,72,127
34920,note_on,0,0,0,,2,,,62,127
35024,note_off,104,0,0,,2,,,62,127
35025,note_on,1,0,0,,0,,,60,127
35129,note_off,104,0,0,,0,,,60,127
35129,note_off,0,0,0,,0,,,72,127
35130,note_on,1,0,0,,0,,,72,127
35130,note_on,0,0,0,,0,,,60,127
35234,note_off,104,0,0,,0,,,60,127
35235,note_on,1,0,0,,10,,,57,127
35339,note_off,104,0,0,,10,,,57,127
35339,note_off,0,0,0,,0,,,72,127
35340,note_on,1,0,0,,10,,,81,127
35340,note_on,0,0,0,,7,,,55,127
35444,note_off,104,0,0,,7,,,55,127
35445,note_on,1,0,0,,5,,,53,127
35549,note_off,104,0,0,,5,,,53,127
35549,note_off,0,0,0,,10,,,81,127
35550,note_on,1,0,0,,7,,,79,127
35550,note_on,0,0,0,,4,,,52,127
35654,note_off,104,0,0,,4,,,52,127
35655,note_on,1,0,0,,0,,,60,127
35759,note_off,104,0,0,,0,,,60,127
35759,note_off,0,0,0,,7,,,79,127
35760,note_on,1,0,0,,0,,,72,127
35760,note_on,0,0,0,,2,,,62,127
35864,note_off,104,0,0,,2,,,62,127
35865,note_on,1,0,0,,0,,,60,127
35969,note_off,104,0,0,,0,,,60,127
35970,note_on,1,0,0,,0,,,60,127
36074,note_off,104,0,0,,0,,,60,127
36075,note_on,1,0,0,,12,,,59,127
36175,note_off,100,0,0,,0,,,72,127
36178,note_off,3,0,0,,12,,,59,127
36179,note_on,1,0,0,,7,,,79,127
36179,note_on,0,0,0,,10,,,57,127
36283,note_off,104,0,0,,10,,,57,127
36284,note_on,1,0,0,,7,,,55,127
36387,note_off,103,0,0,,7,,,79,127
36388,note_off,1,0,0,,7,,,55,127
36389,note_on,1,0,0,,5,,,41,127
36494,note_on,105,0,0,,10,,,81,127
36598,note_off,104,0,0,,10,,,81,127
36599,note_on,1,0,0,,7,,,79,127
36703,note_off,104,0,0,,7,,,79,127
36704,note_on,1,0,0,,5,,,77,127
36808,note_off,104,0,0,,5,,,77,127
36808,note_off,0,0,0,,5,,,41,127
36809,note_on,1,0,0,,4,,,76,127
36809,note_on,0,0,0,,7,,,43,127
36913,note_off,104,0,0,,4,,,76,127
36914,note_on,1,0,0,,2,,,74,127
37018,note_off,104,0,0,,2,,,74,127
37019,note_on,1,0,0,,0,,,72,127
37123,note_off,104,0,0,,0,,,72,127
37124,note_on,1,0,0,,12,,,71,127
37228,note_off,104,0,0,,12,,,71,127
37228,note_off,0,0,0,,7,,,43,127
37229,note_on,1,0,0,,0,,,72,127
37229,note_on,0,0,0,,0,,,48,127
37333,note_off,104,0,0,,0,,,48,127
37334,note_on,1,0,0,,0,,,60,127
37438,note_off,104,0,0,,0,,,60,127
37439,note_on,1,0,0,,2,,,62,127
37543,note_off,104,0,0,,2,,,62,127
37544,note_on,1,0,0,,0,,,60,127
37644,note_off,100,0,0,,0,,,72,127
37647,note_off,3,0,0,,0,,,60,127
37648,note_on,1,0,0,,0,,,60,127
37752,note_off,104,0,0,,0,,,60,127
37753,note_on,1,0,0,,12,,,59,127
37857,note_off,104,0,0,,12,,,59,127
37858,note_on,1,0,0,,7,,,79,127
37858,note_on,0,0,0,,10,,,57,127
37962,note_off,104,0,0,,10,,,57,127
37963,note_on,1,0,0,,7,,,55,127
38067,note_off,104,0,0,,7,,,55,127
38067,note_off,0,0,0,,7,,,79,127
38068,note_on,1,0,0,,10,,,81,127
38068,note_on,0,0,0,,5,,,53,127
38172,note_off,104,0,0,,5,,,53,127
38173,note_on,1,0,0,,0,,,60,127
38277,note_off,104,0,0,,0,,,60,127
38277,note_off,0,0,0,,10,,,81,127
38278,note_on,1,0,0,,0,,,72,127
38278,note_on,0,0,0,,2,,,62,127
38382,note_off,104,0,0,,2,,,62,127
38383,note_on,1,0,0,,0,,,60,127
38487,note_off,104,0,0,,0,,,60,127
38487,note_off,0,0,0,,0,,,72,127
38488,note_on,1,0,0,,10,,,81,127
38488,note_on,0,0,0,,0,,,60,127
38592,note_off,104,0,0,,0,,,60,127
38593,note_on,1,0,0,,10,,,57,127
38697,note_off,104,0,0,,10,,,57,127
38697,note_off,0,0,0,,10,,,81,127
38698,note_on,1,0,0,,12,,,83,127
38698,note_on,0,0,0,,7,,,55,127
38802,note_off,104,0,0,,7,,,55,127
38803,note_on,1,0,0,,5,,,53,127
38907,note_off,104,0,0,,5,,,53,127
38907,note_off,0,0,0,,12,,,83,127
38908,note_on,1,0,0,,0,,,84,127
38908,note_on,0,0,0,,4,,,52,127
39012,note_off,104,0,0,,4,,,52,127
39013,note_on,1,0,0,,0,,,60,127
39117,note_off,104,0,0,,0,,,60,127
39118,note_on,1,0,0,,0,,,72,127
39118,note_on,0,0,0,,2,,,62,127
39222,note_off,104,0,0,,2,,,62,127
39223,note_on,1,0,0,,0,,,60,127
39323,note_off,100,0,0,,0,,,84,127
39326,note_off,3,0,0,,0,,,60,127
39326,note_off,0,0,0,,0,,,72,127
39327,note_on,1,0,0,,0,,,72,127
39327,note_on,0,0,0,,0,,,60,127
39431,note_off,104,0,0,,0,,,60,127
39432,note_on,1,0,0,,12,,,59,127
39536,note_off,104,0,0,,12,,,59,127
39536,note_off,0,0,0,,0,,,72,127
39537,note_on,1,0,0,,7,,,79,127
39537,note_on,0,0,0,,10,,,57,127
39641,note_off,104,0,0,,10,,,57,127
39642,note_on,1,0,0,,7,,,55,127
39745,note_off,103,0,0,,7,,,79,127
39746,note_off,1,0,0,,7,,,55,127
39747,note_on,1,0,0,,5,,,41,127
39852,note_on,105,0,0,,10,,,81,127
39956,note_off,104,0,0,,10,,,81,127
39957,note_on,1,0,0,,7,,,79,127
40061,note_off,104,0,0,,7,,,79,127
40062,note_on,1,0,0,,5,,,77,127
40166,note_off,104,0,0,,5,,,77,127
40166,note_off,0,0,0,,5,,,41,127
40167,note_on,1,0,0,,4,,,76,127
40167,note_on,0,0,0,,7,,,43,127
40271,note_off,104,0,0,,4,,,76,127
40272,note_on,1,0,0,,2,,,74,127
40376,note_off,104,0,0,,2,,,74,127
40377,note_on,1,0,0,,0,,,72,127
40481,note_off,104,0,0,,0,,,72,127
40482,note_on,1,0,0,,12,,,71,127
40586,note_off,104,0,0,,12,,,71,127
40586,note_off,0,0,0,,7,,,43,127
40587,note_on,1,0,0,,0,,,72,127
40587,note_on,0,0,0,,0,,,48,127
40691,note_off,104,0,0,,0,,,72,127
40692,note_on,1,0,0,,4,,,76,127
40796,note_off,104,0,0,,4,,,76,127
40796,note_off,0,0,0,,0,,,48,127
40797,note_on,1,0,0,,2,,,74,127
40797,note_on,0,0,0,,5,,,53,127
40901,note_off,104,0,0,,2,,,74,127
40902,note_on,1,0,0,,5,,,77,127
41006,note_off,104,0,0,,5,,,77,127
41006,note_off,0,0,0,,5,,,53,127
41007,note_on,1,0,0,,4,,,76,127
41007,note_on,0,0,0,,7,,,55,127
41111,note_off,104,0,0,,4,,,76,127
41112,note_on,1,0,0,,7,,,79,127
41216,note_off,104,0,0,,7,,,79,127
41216,note_off,0,0,0,,7,,,55,127
41217,note_on,1,0,0,,12,,,71,127
41217,note_on,0,0,0,,5,,,53,127
41321,note_off,104,0,0,,12,,,71,127
41322,note_on,1,0,0,,2,,,74,127
41426,note_off,104,0,0,,2,,,74,127
41426,note_off,0,0,0,,5,,,53,127
41427,note_on,1,0,0,,0,,,72,127
41427,note_on,0,0,0,,4,,,52,127
41531,note_off,104,0,0,,0,,,72,127
41532,note_on,1,0,0,,4,,,76,127
41636,note_off,104,0,0,,4,,,76,127
41636,note_off,0,0,0,,4,,,52,127
41637,note_on,1,0,0,,2,,,74,127
41637,note_on,0,0,0,,5,,,53,127
41741,note_off,104,0,0,,2,,,74,127
41742,note_on,1,0,0,,5,,,77,127
41846,note_off,104,0,0,,5,,,77,127
41846,note_off,0,0,0,,5,,,53,127
41847,note_on,1,0,0,,4,,,76,127
41847,note_on,0,0,0,,7,,,55,127
41951,note_off,104,0,0,,4,,,76,127
41952,note_on,1,0,0,,7,,,79,127
42056,note_off,104,0,0,,7,,,79,127
42056,note_off,0,0,0,,7,,,55,127
42057,note_on,1,0,0,,12,,,71,127
42057,note_on,0,0,0,,5,,,53,127
42161,note_off,104,0,0,,12,,,71,127
42162,note_on,1,0,0,,2,,,74,127
42266,note_off,104,0,0,,2,,,74,127
42266,note_off,0,0,0,,5,,,53,127
42267,note_on,1,0,0,,0,,,72,127
42267,note_on,0,0,0,,4,,,52,127
42371,note_off,104,0,0,,0,,,72,127
42372,note_on,1,0,0,,7,,,67,127
42476,note_off,104,0,0,,7,,,67,127
42476,note_off,0,0,0,,4,,,52,127
42477,note_on,1,0,0,,10,,,69,127
42477,note_on,0,0,0,,5,,,53,127
42581,note_off,104,0,0,,10,,,69,127
42582,note_on,1,0,0,,5,,,65,127
42686,note_off,104,0,0,,5,,,65,127
42686,note_off,0,0,0,,5,,,53,127
42687,note_on,1,0,0,,4,,,64,127
42687,note_on,0,0,0,,7,,,55,127
42791,note_off,104,0,0,,4,,,64,127
42792,note_on,1,0,0,,0,,,72,127
42896,note_off,104,0,0,,0,,,72,127
42896,note_off,0,0,0,,7,,,55,127
42897,note_on,1,0,0,,2,,,62,127
42897,note_on,0,0,0,,7,,,43,127
43001,note_off,104,0,0,,2,,,62,127
43002,note_on,1,0,0,,12,,,71,127
43106,note_off,104,0,0,,12,,,71,127
43106,note_off,0,0,0,,7,,,43,127
43107,note_on,1,0,0,,0,,,72,127
43107,note_on,0,0,0,,0,,,36,127
43734,note_off,627,0,0,,0,,,72,127
43943,note_off,209,0,0,,0,,,36,127
43944,note_on,1,0,0,,0,,,48,127
44049,note_on,105,0,0,,7,,,67,127
44153,note_off,104,0,0,,7,,,67,127
44154,note_on,1,0,0,,10,,,69,127
44258,note_off,104,0,0,,10,,,69,127
44259,note_on,1,0,0,,7,,,67,127
44363,note_off,104,0,0,,7,,,67,127
44363,note_off,0,0,0,,0,,,48,127
44364,note_on,1,0,0,,7,,,67,127
44364,note_on,0,0,0,,4,,,64,127
44364,note_on,0,0,0,,0,,,60,127
44468,note_off,104,0,0,,7,,,67,127
44469,note_on,1,0,0,,7,,,67,127
44573,note_off,104,0,0,,7,,,67,127
44574,note_on,1,0,0,,10,,,69,127
44678,note_off,104,0,0,,10,,,69,127
44679,note_on,1,0,0,,7,,,67,127
44783,note_off,104,0,0,,7,,,67,127
44783,note_off,0,0,0,,0,,,60,127
44783,note_off,0,0,0,,4,,,64,127
44784,note_on,1,0,0,,7,,,67,127
44784,note_on,0,0,0,,2,,,62,127
44784,note_on,0,0,0,,11,,,58,127
44888,note_off,104,0,0,,7,,,67,127
44889,note_on,1,0,0,,7,,,67,127
44993,note_off,104,0,0,,7,,,67,127
44994,note_on,1,0,0,,10,,,69,127
45098,note_off,104,0,0,,10,,,69,127
45099,note_on,1,0,0,,7,,,67,127
45203,note_off,104,0,0,,7,,,67,127
45203,note_off,0,0,0,,11,,,58,127
45203,note_off,0,0,0,,2,,,62,127
45204,note_on,1,0,0,,7,,,67,127
45204,note_on,0,0,0,,2,,,62,127
45204,note_on,0,0,0,,11,,,58,127
45308,note_off,104,0,0,,7,,,67,127
45309,note_on,1,0,0,,7,,,67,127
45413,note_off,104,0,0,,7,,,67,127
45414,note_on,1,0,0,,10,,,69,127
45518,note_off,104,0,0,,10,,,69,127
45519,note_on,1,0,0,,7,,,67,127
45623,note_off,104,0,0,,7,,,67,127
45623,note_off,0,0,0,,11,,,58,127
45623,note_off,0,0,0,,2,,,62,127
45624,note_on,1,0,0,,7,,,67,127
45624,note_on,0,0,0,,1,,,61,127
45624,note_on,0,0,0,,10,,,57,127
45728,note_off,104,0,0,,7,,,67,127
45729,note_on,1,0,0,,7,,,67,127
45833,note_off,104,0,0,,7,,,67,127
45834,note_on,1,0,0,,10,,,69,127
45938,note_off,104,0,0,,10,,,69,127
45939,note_on,1,0,0,,7,,,67,127
46043,note_off,104,0,0,,7,,,67,127
46043,note_off,0,0,0,,10,,,57,127
46043,note_off,0,0,0,,1,,,61,127
46044,note_on,1,0,0,,7,,,67,127
46044,note_on,0,0,0,,10,,,57,127
46044,note_on,0,0,0,,1,,,61,127
46148,note_off,104,0,0,,7,,,67,127
46149,note_on,1,0,0,,7,,,67,127
46253,note_off,104,0,0,,7,,,67,127
46254,note_on,1,0,0,,10,,,69,127
46358,note_off,104,0,0,,10,,,69,127
46359,note_on,1,0,0,,7,,,67,127
46463,note_off,104,0,0,,7,,,67,127
46463,note_off,0,0,0,,1,,,61,127
46463,note_off,0,0,0,,10,,,57,127
46464,note_on,1,0,0,,8,,,68,127
46464,note_on,0,0,0,,2,,,62,127
46464,note_on,0,0,0,,12,,,59,127
46568,note_off,104,0,0,,8,,,68,127
46569,note_on,1,0,0,,8,,,68,127
46673,note_off,104,0,0,,8,,,68,127
46674,note_on,1,0,0,,10,,,69,127
46778,note_off,104,0,0,,10,,,69,127
46779,note_on,1,0,0,,8,,,68,127
46883,note_off,104,0,0,,8,,,68,127
46883,note_off,0,0,0,,12,,,59,127
46883,note_off,0,0,0,,2,,,62,127
46884,note_on,1,0,0,,8,,,68,127
46884,note_on,0,0,0,,2,,,62,127
46884,note_on,0,0,0,,12,,,59,127
46988,note_off,104,0,0,,8,,,68,127
46989,note_on,1,0,0,,8,,,68,127
47093,note_off,104,0,0,,8,,,68,127
47094,note_on,1,0,0,,10,,,69,127
47198,note_off,104,0,0,,10,,,69,127
47199,note_on,1,0,0,,8,,,68,127
47303,note_off,104,0,0,,8,,,68,127
47303,note_off,0,0,0,,12,,,59,127
47303,note_off,0,0,0,,2,,,62,127
47304,note_on,1,0,0,,10,,,69,127
47304,note_on,0,0,0,,0,,,60,127
47304,note_on,0,0,0,,4,,,64,127
47408,note_off,104,0,0,,10,,,69,127
47409,note_on,1,0,0,,10,,,69,127
47513,note_off,104,0,0,,10,,,69,127
47514,note_on,1,0,0,,12,,,71,127
47618,note_off,104,0,0,,12,,,71,127
47619,note_on,1,0,0,,10,,,69,127
47723,note_off,104,0,0,,10,,,69,127
47723,note_off,0,0,0,,4,,,64,127
47723,note_off,0,0,0,,0,,,60,127
47724,note_on,1,0,0,,12,,,71,127
47724,note_on,0,0,0,,4,,,64,127
47724,note_on,0,0,0,,2,,,62,127
47724,note_on,0,0,0,,8,,,56,127
47828,note_off,104,0,0,,12,,,71,127
47829,note_on,1,0,0,,12,,,71,127
47933,note_off,104,0,0,,12,,,71,127
47934,note_on,1,0,0,,0,,,72,127
48038,note_off,104,0,0,,0,,,72,127
48039,note_on,1,0,0,,12,,,71,127
48143,note_off,104,0,0,,12,,,71,127
48143,note_off,0,0,0,,8,,,56,127
48143,note_off,0,0,0,,2,,,62,127
48143,note_off,0,0,0,,4,,,64,127
48144,note_on,1,0,0,,0,,,72,127
48144,note_on,0,0,0,,4,,,64,127
48144,note_on,0,0,0,,10,,,57,127
48248,note_off,104,0,0,,0,,,72,127
48249,note_on,1,0,0,,0,,,72,127
48353,note_off,104,0,0,,0,,,72,127
48354,note_on,1,0,0,,2,,,74,127
48458,note_off,104,0,0,,2,,,74,127
48459,note_on,1,0,0,,0,,,72,127
48563,note_off,104,0,0,,0,,,72,127
48563,note_off,0,0,0,,10,,,57,127
48563,note_off,0,0,0,,4,,,64,127
48564,note_on,1,0,0,,0,,,72,127
48564,note_on,0,0,0,,10,,,57,127
48564,note_on,0,0,0,,4,,,64,127
48668,note_off,104,0,0,,0,,,72,127
48669,note_on,1,0,0,,0,,,72,127
48773,note_off,104,0,0,,0,,,72,127
48774,note_on,1,0,0,,2,,,74,127
48878,note_off,104,0,0,,2,,,74,127
48879,note_on,1,0,0,,0,,,72,127
48983,note_off,104,0,0,,0,,,72,127
48983,note_off,0,0,0,,4,,,64,127
48983,note_off,0,0,0,,10,,,57,127
48984,note_on,1,0,0,,1,,,73,127
48984,note_on,0,0,0,,4,,,64,127
48984,note_on,0,0,0,,7,,,55,127
49088,note_off,104,0,0,,1,,,73,127
49089,note_on,1,0,0,,1,,,73,127
49193,note_off,104,0,0,,1,,,73,127
49194,note_on,1,0,0,,2,,,74,127
49298,note_off,104,0,0,,2,,,74,127
49299,note_on,1,0,0,,1,,,73,127
49403,note_off,104,0,0,,1,,,73,127
49403,note_off,0,0,0,,7,,,55,127
49403,note_off,0,0,0,,4,,,64,127
49404,note_on,1,0,0,,1,,,73,127
49404,note_on,0,0,0,,4,,,64,127
49404,note_on,0,0,0,,7,,,55,127
49508,note_off,104,0,0,,1,,,73,127
49509,note_on,1,0,0,,1,,,73,127
49613,note_off,104,0,0,,1,,,73,127
49614,note_on,1,0,0,,2,,,74,127
49718,note_off,104,0,0,,2,,,74,127
49719,note_on,1,0,0,,1,,,73,127
49823,note_off,104,0,0,,1,,,73,127
49823,note_off,0,0,0,,7,,,55,127
49823,note_off,0,0,0,,4,,,64,127
49824,note_on,1,0,0,,2,,,74,127
49824,note_on,0,0,0,,2,,,62,127
49824,note_on,0,0,0,,5,,,53,127
49929,note_on,105,0,0,,10,,,69,127
49981,note_off,52,0,0,,2,,,74,127
50032,note_off,51,0,0,,10,,,69,127
50033,note_on,1,0,0,,11,,,70,127
50137,note_off,104,0,0,,11,,,70,127
50138,note_on,1,0,0,,10,,,69,127
50242,note_off,104,0,0,,10,,,69,127
50242,note_off,0,0,0,,5,,,53,127
50242,note_off,0,0,0,,2,,,62,127
50243,note_on,1,0,0,,10,,,69,127
50243,note_on,0,0,0,,2,,,62,127
50243,note_on,0,0,0,,5,,,53,127
50347,note_off,104,0,0,,10,,,69,127
50348,note_on,1,0,0,,10,,,69,127
50452,note_off,104,0,0,,10,,,69,127
50453,note_on,1,0,0,,11,,,70,127
50557,note_off,104,0,0,,11,,,70,127
50558,note_on,1,0,0,,10,,,69,127
50662,note_off,104,0,0,,10,,,69,127
50662,note_off,0,0,0,,5,,,53,127
50662,note_off,0,0,0,,2,,,62,127
50663,note_on,1,0,0,,4,,,76,127
50663,note_on,0,0,0,,10,,,57,127
50663,note_on,0,0,0,,7,,,55,127
50663,note_on,0,0,0,,1,,,49,127
50768,note_on,105,0,0,,10,,,69,127
50871,note_off,103,0,0,,4,,,76,127
50872,note_off,1,0,0,,10,,,69,127
50873,note_on,1,0,0,,11,,,70,127
50977,note_off,104,0,0,,11,,,70,127
50978,note_on,1,0,0,,10,,,69,127
51082,note_off,104,0,0,,10,,,69,127
51082,note_off,0,0,0,,1,,,49,127
51082,note_off,0,0,0,,7,,,55,127
51082,note_off,0,0,0,,10,,,57,127
51083,note_on,1,0,0,,10,,,69,127
51083,note_on,0,0,0,,7,,,55,127
51083,note_on,0,0,0,,10,,,57,127
51083,note_on,0,0,0,,1,,,49,127
51187,note_off,104,0,0,,10,,,69,127
51188,note_on,1,0,0,,10,,,69,127
51292,note_off,104,0,0,,10,,,69,127
51293,note_on,1,0,0,,11,,,70,127
51397,note_off,104,0,0,,11,,,70,127
51398,note_on,1,0,0,,10,,,69,127
51502,note_off,104,0,0,,10,,,69,127
51502,note_off,0,0,0,,1,,,49,127
51502,note_off,0,0,0,,10,,,57,127
51502,note_off,0,0,0,,7,,,55,127
51503,note_on,1,0,0,,5,,,77,127
51503,note_on,0,0,0,,10,,,57,127
51503,note_on,0,0,0,,2,,,50,127
51608,note_on,105,0,0,,10,,,69,127
51711,note_off,103,0,0,,5,,,77,127
51712,note_off,1,0,0,,10,,,69,127
51713,note_on,1,0,0,,11,,,70,127
51817,note_off,104,0,0,,11,,,70,127
51818,note_on,1,0,0,,10,,,69,127
51922,note_off,104,0,0,,10,,,69,127
51922,note_off,0,0,0,,2,,,50,127
51922,note_off,0,0,0,,10,,,57,127
51923,note_on,1,0,0,,10,,,69,127
51923,note_on,0,0,0,,2,,,62,127
51923,note_on,0,0,0,,2,,,50,127
52027,note_off,104,0,0,,10,,,69,127
52028,note_on,1,0,0,,10,,,69,127
52132,note_off,104,0,0,,10,,,69,127
52133,note_on,1,0,0,,11,,,70,127
52237,note_off,104,0,0,,11,,,70,127
52238,note_on,1,0,0,,10,,,69,127
52342,note_off,104,0,0,,10,,,69,127
52342,note_off,0,0,0,,2,,,50,127
52342,note_off,0,0,0,,2,,,62,127
52343,note_on,1,0,0,,7,,,79,127
52343,note_on,0,0,0,,4,,,52,127
52343,note_on,0,0,0,,2,,,62,127
52448,note_on,105,0,0,,10,,,69,127
52500,note_off,52,0,0,,7,,,79,127
52551,note_off,51,0,0,,10,,,69,127
52552,note_on,1,0,0,,11,,,70,127
52656,note_off,104,0,0,,11,,,70,127
52657,note_on,1,0,0,,10,,,69,127
52761,note_off,104,0,0,,10,,,69,127
52761,note_off,0,0,0,,2,,,62,127
52761,note_off,0,0,0,,4,,,52,127
52762,note_on,1,0,0,,10,,,69,127
52762,note_on,0,0,0,,1,,,61,127
52762,note_on,0,0,0,,4,,,52,127
52866,note_off,104,0,0,,10,,,69,127
52867,note_on,1,0,0,,10,,,69,127
52971,note_off,104,0,0,,10,,,69,127
52972,note_on,1,0,0,,11,,,70,127
53076,note_off,104,0,0,,11,,,70,127
53077,note_on,1,0,0,,10,,,69,127
53181,note_off,104,0,0,,10,,,69,127
53181,note_off,0,0,0,,4,,,52,127
53181,note_off,0,0,0,,1,,,61,127
53182,note_on,1,0,0,,10,,,81,127
53182,note_on,0,0,0,,2,,,62,127
53182,note_on,0,0,0,,5,,,53,127
53287,note_on,105,0,0,,10,,,69,127
53391,note_off,104,0,0,,10,,,69,127
53392,note_off,1,0,0,,10,,,81,127
53392,note_on,0,0,0,,11,,,70,127
53496,note_off,104,0,0,,11,,,70,127
53497,note_on,1,0,0,,10,,,69,127
53601,note_off,104,0,0,,10,,,69,127
53601,note_off,0,0,0,,5,,,53,127
53601,note_off,0,0,0,,2,,,62,127
53602,note_on,1,0,0,,10,,,69,127
53602,note_on,0,0,0,,2,,,62,127
53602,note_on,0,0,0,,5,,,53,127
53706,note_off,104,0,0,,10,,,69,127
53707,note_on,1,0,0,,10,,,69,127
53811,note_off,104,0,0,,10,,,69,127
53812,note_on,1,0,0,,11,,,70,127
53916,note_off,104,0,0,,11,,,70,127
53917,note_on,1,0,0,,10,,,69,127
54021,note_off,104,0,0,,10,,,69,127
54021,note_off,0,0,0,,5,,,53,127
54021,note_off,0,0,0,,2,,,62,127
54022,note_on,1,0,0,,11,,,82,127
54022,note_on,0,0,0,,2,,,62,127
54022,note_on,0,0,0,,7,,,55,127
54126,note_off,104,0,0,,11,,,82,127
54127,note_on,1,0,0,,10,,,81,127
54231,note_off,104,0,0,,10,,,81,127
54232,note_on,1,0,0,,7,,,79,127
54336,note_off,104,0,0,,7,,,79,127
54337,note_on,1,0,0,,5,,,77,127
54441,note_off,104,0,0,,5,,,77,127
54441,note_off,0,0,0,,2,,,62,127
54442,note_on,1,0,0,,4,,,76,127
54442,note_on,0,0,0,,7,,,43,127
54546,note_off,104,0,0,,4,,,76,127
54547,note_on,1,0,0,,2,,,74,127
54651,note_off,104,0,0,,2,,,74,127
54652,note_on,1,0,0,,1,,,73,127
54756,note_off,104,0,0,,1,,,73,127
54757,note_on,1,0,0,,2,,,74,127
54861,note_off,104,0,0,,2,,,74,127
54861,note_off,0,0,0,,7,,,43,127
54861,note_off,0,0,0,,7,,,55,127
54862,note_on,1,0,0,,10,,,69,127
54862,note_on,0,0,0,,10,,,45,127
54966,note_off,104,0,0,,10,,,69,127
54967,note_on,1,0,0,,4,,,76,127
55071,note_off,104,0,0,,4,,,76,127
55072,note_on,1,0,0,,5,,,77,127
55092,note_off,20,0,0,,10,,,45,127
55176,note_off,84,0,0,,5,,,77,127
55177,note_on,1,0,0,,4,,,76,127
55281,note_off,104,0,0,,4,,,76,127
55282,note_on,1,0,0,,4,,,76,127
55387,note_on,105,0,0,,4,,,64,127
55491,note_off,104,0,0,,4,,,64,127
55491,note_off,0,0,0,,4,,,76,127
55492,note_on,1,0,0,,4,,,76,127
55492,note_on,0,0,0,,1,,,61,127
55596,note_off,104,0,0,,1,,,61,127
55597,note_on,1,0,0,,10,,,57,127
55701,note_off,104,0,0,,10,,,57,127
55701,note_off,0,0,0,,4,,,76,127
55702,note_on,1,0,0,,5,,,77,127
55702,note_on,0,0,0,,2,,,38,127
55806,note_off,104,0,0,,5,,,77,127
55807,note_on,1,0,0,,2,,,74,127
55911,note_off,104,0,0,,2,,,74,127
55912,note_on,1,0,0,,4,,,76,127
56016,note_off,104,0,0,,4,,,76,127
56017,note_on,1,0,0,,2,,,74,127
56117,note_off,100,0,0,,2,,,38,127
56120,note_off,3,0,0,,2,,,74,127
56121,note_on,1,0,0,,2,,,74,127
56225,note_off,104,0,0,,2,,,74,127
56226,note_on,1,0,0,,2,,,74,127
56226,note_on,0,0,0,,2,,,62,127
56330,note_off,104,0,0,,2,,,62,127
56330,note_off,0,0,0,,2,,,74,127
56331,note_on,1,0,0,,4,,,76,127
56331,note_on,0,0,0,,11,,,58,127
56435,note_off,104,0,0,,11,,,58,127
56435,note_off,0,0,0,,4,,,76,127
56436,note_on,1,0,0,,2,,,74,127
56436,note_on,0,0,0,,7,,,55,127
56540,note_off,104,0,0,,7,,,55,127
56540,note_off,0,0,0,,2,,,74,127
56541,note_on,1,0,0,,4,,,76,127
56541,note_on,0,0,0,,10,,,33,127
56645,note_off,104,0,0,,4,,,76,127
56646,note_on,1,0,0,,4,,,76,127
56750,note_off,104,0,0,,4,,,76,127
56751,note_on,1,0,0,,5,,,77,127
56855,note_off,104,0,0,,5,,,77,127
56856,note_on,1,0,0,,4,,,76,127
56956,note_off,100,0,0,,10,,,33,127
56959,note_off,3,0,0,,4,,,76,127
56960,note_on,1,0,0,,4,,,76,127
57064,note_off,104,0,0,,4,,,76,127
57065,note_on,1,0,0,,4,,,76,127
57065,note_on,0,0,0,,4,,,64,127
57169,note_off,104,0,0,,4,,,64,127
57169,note_off,0,0,0,,4,,,76,127
57170,note_on,1,0,0,,5,,,77,127
57170,note_on,0,0,0,,1,,,61,127
57274,note_off,104,0,0,,1,,,61,127
57274,note_off,0,0,0,,5,,,77,127
57275,note_on,1,0,0,,4,,,76,127
57275,note_on,0,0,0,,10,,,57,127
57379,note_off,104,0,0,,10,,,57,127
57379,note_off,0,0,0,,4,,,76,127
57380,note_on,1,0,0,,5,,,77,127
57380,note_on,0,0,0,,2,,,38,127
57484,note_off,104,0,0,,5,,,77,127
57485,note_on,1,0,0,,2,,,74,127
57589,note_off,104,0,0,,2,,,74,127
57590,note_on,1,0,0,,4,,,76,127
57694,note_off,104,0,0,,4,,,76,127
57695,note_on,1,0,0,,2,,,74,127
57795,note_off,100,0,0,,2,,,38,127
57798,note_off,3,0,0,,2,,,74,127
57799,note_on,1,0,0,,2,,,74,127
57903,note_off,104,0,0,,2,,,74,127
57904,note_on,1,0,0,,2,,,74,127
57904,note_on,0,0,0,,2,,,62,127
58008,note_off,104,0,0,,2,,,62,127
58008,note_off,0,0,0,,2,,,74,127
58009,note_on,1,0,0,,4,,,76,127
58009,note_on,0,0,0,,11,,,58,127
58113,note_off,104,0,0,,11,,,58,127
58113,note_off,0,0,0,,4,,,76,127
58114,note_on,1,0,0,,2,,,74,127
58114,note_on,0,0,0,,7,,,55,127
58218,note_off,104,0,0,,7,,,55,127
58218,note_off,0,0,0,,2,,,74,127
58219,note_on,1,0,0,,4,,,76,127
58219,note_on,0,0,0,,10,,,33,127
58323,note_off,104,0,0,,4,,,76,127
58324,note_on,1,0,0,,4,,,76,127
58428,note_off,104,0,0,,4,,,76,127
58429,note_on,1,0,0,,5,,,77,127
58533,note_off,104,0,0,,5,,,77,127
58534,note_on,1,0,0,,4,,,76,127
58634,note_off,100,0,0,,10,,,33,127
58637,note_off,3,0,0,,4,,,76,127
58638,note_on,1,0,0,,4,,,76,127
58742,note_off,104,0,0,,4,,,76,127
58743,note_on,1,0,0,,4,,,76,127
58743,note_on,0,0,0,,4,,,64,127
58847,note_off,104,0,0,,4,,,64,127
58847,note_off,0,0,0,,4,,,76,127
58848,note_on,1,0,0,,5,,,77,127
58848,note_on,0,0,0,,1,,,61,127
58952,note_off,104,0,0,,1,,,61,127
58952,note_off,0,0,0,,5,,,77,127
58953,note_on,1,0,0,,4,,,76,127
58953,note_on,0,0,0,,10,,,57,127
59057,note_off,104,0,0,,10,,,57,127
59057,note_off,0,0,0,,4,,,76,127
59058,note_on,1,0,0,,5,,,77,127
59058,note_on,0,0,0,,2,,,62,127
59162,note_off,104,0,0,,5,,,77,127
59163,note_on,1,0,0,,5,,,77,127
59267,note_off,104,0,0,,5,,,77,127
59267,note_off,0,0,0,,2,,,62,127
59268,note_on,1,0,0,,7,,,79,127
59268,note_on,0,0,0,,0,,,60,127
59372,note_off,104,0,0,,7,,,79,127
59373,note_on,1,0,0,,5,,,77,127
59477,note_off,104,0,0,,5,,,77,127
59477,note_off,0,0,0,,0,,,60,127
59478,note_on,1,0,0,,5,,,77,127
59478,note_on,0,0,0,,11,,,58,127
59582,note_off,104,0,0,,5,,,77,127
59583,note_on,1,0,0,,5,,,77,127
59687,note_off,104,0,0,,5,,,77,127
59687,note_off,0,0,0,,11,,,58,127
59688,note_on,1,0,0,,7,,,79,127
59688,note_on,0,0,0,,10,,,57,127
59792,note_off,104,0,0,,7,,,79,127
59793,note_on,1,0,0,,5,,,77,127
59897,note_off,104,0,0,,5,,,77,127
59897,note_off,0,0,0,,10,,,57,127
59898,note_on,1,0,0,,11,,,82,127
59898,note_on,0,0,0,,7,,,55,127
60003,note_on,105,0,0,,2,,,74,127
60106,note_off,103,0,0,,11,,,82,127
60107,note_off,1,0,0,,2,,,74,127
60108,note_on,1,0,0,,4,,,76,127
60108,note_on,0,0,0,,7,,,43,127
60212,note_off,104,0,0,,4,,,76,127
60213,note_on,1,0,0,,2,,,74,127
60313,note_off,100,0,0,,7,,,55,127
60316,note_off,3,0,0,,2,,,74,127
60316,note_off,0,0,0,,7,,,43,127
60317,note_on,1,0,0,,2,,,74,127
60317,note_on,0,0,0,,7,,,67,127
60421,note_off,104,0,0,,2,,,74,127
60422,note_on,1,0,0,,2,,,74,127
60526,note_off,104,0,0,,2,,,74,127
60526,note_off,0,0,0,,7,,,67,127
60527,note_on,1,0,0,,4,,,76,127
60527,note_on,0,0,0,,5,,,65,127
60631,note_off,104,0,0,,4,,,76,127
60632,note_on,1,0,0,,2,,,74,127
60736,note_off,104,0,0,,2,,,74,127
60736,note_off,0,0,0,,5,,,65,127
60737,note_on,1,0,0,,7,,,79,127
60737,note_on,0,0,0,,4,,,64,127
60842,note_on,105,0,0,,0,,,72,127
60945,note_off,103,0,0,,7,,,79,127
60946,note_off,1,0,0,,0,,,72,127
60946,note_off,0,0,0,,4,,,64,127
60947,note_on,1,0,0,,2,,,74,127
60947,note_on,0,0,0,,2,,,62,127
61051,note_off,104,0,0,,2,,,74,127
61052,note_on,1,0,0,,0,,,72,127
61156,note_off,104,0,0,,0,,,72,127
61156,note_off,0,0,0,,2,,,62,127
61157,note_on,1,0,0,,0,,,72,127
61157,note_on,0,0,0,,4,,,64,127
61261,note_off,104,0,0,,0,,,72,127
61262,note_on,1,0,0,,0,,,72,127
61366,note_off,104,0,0,,0,,,72,127
61366,note_off,0,0,0,,4,,,64,127
61367,note_on,1,0,0,,2,,,74,127
61367,note_on,0,0,0,,0,,,60,127
61471,note_off,104,0,0,,2,,,74,127
61472,note_on,1,0,0,,0,,,72,127
61576,note_off,104,0,0,,0,,,72,127
61576,note_off,0,0,0,,0,,,60,127
61577,note_on,1,0,0,,10,,,81,127
61577,note_on,0,0,0,,5,,,65,127
61682,note_on,105,0,0,,0,,,72,127
61785,note_off,103,0,0,,10,,,81,127
61786,note_off,1,0,0,,0,,,72,127
61787,note_on,1,0,0,,2,,,74,127
61787,note_on,0,0,0,,5,,,53,127
61891,note_off,104,0,0,,2,,,74,127
61892,note_on,1,0,0,,0,,,72,127
61992,note_off,100,0,0,,5,,,65,127
61995,note_off,3,0,0,,0,,,72,127
61995,note_off,0,0,0,,5,,,53,127
61996,note_on,1,0,0,,0,,,72,127
61996,note_on,0,0,0,,5,,,65,127
62100,note_off,104,0,0,,0,,,72,127
62101,note_on,1,0,0,,0,,,72,127
62205,note_off,104,0,0,,0,,,72,127
62205,note_off,0,0,0,,5,,,65,127
62206,note_on,1,0,0,,2,,,74,127
62206,note_on,0,0,0,,4,,,64,127
62310,note_off,104,0,0,,2,,,74,127
62311,note_on,1,0,0,,0,,,72,127
62415,note_off,104,0,0,,0,,,72,127
62415,note_off,0,0,0,,4,,,64,127
62416,note_on,1,0,0,,5,,,77,127
62416,note_on,0,0,0,,2,,,62,127
62520,note_off,104,0,0,,5,,,77,127
62521,note_on,1,0,0,,7,,,79,127
62625,note_off,104,0,0,,7,,,79,127
62625,note_off,0,0,0,,2,,,62,127
62626,note_on,1,0,0,,5,,,77,127
62626,note_on,0,0,0,,0,,,60,127
62730,note_off,104,0,0,,5,,,77,127
62731,note_on,1,0,0,,4,,,76,127
62835,note_off,104,0,0,,4,,,76,127
62835,note_off,0,0,0,,0,,,60,127
62836,note_on,1,0,0,,2,,,74,127
62836,note_on,0,0,0,,11,,,58,127
62940,note_off,104,0,0,,2,,,74,127
62941,note_on,1,0,0,,0,,,72,127
63045,note_off,104,0,0,,0,,,72,127
63046,note_on,1,0,0,,11,,,70,127
63046,note_on,0,0,0,,11,,,46,127
63150,note_off,104,0,0,,11,,,70,127
63151,note_on,1,0,0,,10,,,69,127
63251,note_off,100,0,0,,11,,,58,127
63254,note_off,3,0,0,,10,,,69,127
63254,note_off,0,0,0,,11,,,46,127
63255,note_on,1,0,0,,7,,,67,127
63255,note_on,0,0,0,,0,,,48,127
63359,note_off,104,0,0,,7,,,67,127
63360,note_on,1,0,0,,5,,,65,127
63464,note_off,104,0,0,,5,,,65,127
63465,note_on,1,0,0,,4,,,64,127
63561,note_off,96,0,0,,0,,,48,127
63569,note_off,8,0,0,,4,,,64,127
63570,note_on,1,0,0,,2,,,62,127
63674,note_off,104,0,0,,2,,,62,127
63675,note_on,1,0,0,,0,,,60,127
63779,note_off,104,0,0,,0,,,60,127
63780,note_on,1,0,0,,11,,,58,127
63884,note_off,104,0,0,,11,,,58,127
63885,note_on,1,0,0,,10,,,57,127
63989,note_off,104,0,0,,10,,,57,127
63990,note_on,1,0,0,,7,,,55,127
64094,note_off,104,0,0,,7,,,55,127
64095,note_on,1,0,0,,5,,,53,127
64200,note_on,105,0,0,,5,,,77,127
64304,note_off,104,0,0,,5,,,77,127
64305,note_on,1,0,0,,7,,,79,127
64409,note_off,104,0,0,,7,,,79,127
64410,note_on,1,0,0,,5,,,77,127
64510,note_off,100,0,0,,5,,,53,127
64513,note_off,3,0,0,,5,,,77,127
64514,note_on,1,0,0,,5,,,77,127
64618,note_off,104,0,0,,5,,,77,127
64619,note_on,1,0,0,,5,,,77,127
64619,note_on,0,0,0,,0,,,72,127
64723,note_off,104,0,0,,0,,,72,127
64723,note_off,0,0,0,,5,,,77,127
64724,note_on,1,0,0,,7,,,79,127
64724,note_on,0,0,0,,10,,,69,127
64828,note_off,104,0,0,,10,,,69,127
64828,note_off,0,0,0,,7,,,79,127
64829,note_on,1,0,0,,5,,,77,127
64829,note_on,0,0,0,,5,,,65,127
64933,note_off,104,0,0,,5,,,65,127
64933,note_off,0,0,0,,5,,,77,127
64934,note_on,1,0,0,,2,,,86,127
64934,note_on,0,0,0,,2,,,50,127
65039,note_on,105,0,0,,5,,,77,127
65091,note_off,52,0,0,,2,,,86,127
65142,note_off,51,0,0,,5,,,77,127
65143,note_on,1,0,0,,7,,,79,127
65247,note_off,104,0,0,,7,,,79,127
65248,note_on,1,0,0,,5,,,77,127
65348,note_off,100,0,0,,2,,,50,127
65351,note_off,3,0,0,,5,,,77,127
65352,note_on,1,0,0,,5,,,77,127
65456,note_off,104,0,0,,5,,,77,127
65457,note_on,1,0,0,,5,,,77,127
65457,note_on,0,0,0,,10,,,69,127
65561,note_off,104,0,0,,10,,,69,127
65561,note_off,0,0,0,,5,,,77,127
65562,note_on,1,0,0,,7,,,79,127
65562,note_on,0,0,0,,5,,,65,127
65666,note_off,104,0,0,,5,,,65,127
65666,note_off,0,0,0,,7,,,79,127
65667,note_on,1,0,0,,5,,,77,127
65667,note_on,0,0,0,,2,,,62,127
65771,note_off,104,0,0,,2,,,62,127
65771,note_off,0,0,0,,5,,,77,127
65772,note_on,1,0,0,,2,,,86,127
65772,note_on,0,0,0,,11,,,46,127
65877,note_on,105,0,0,,5,,,77,127
65929,note_off,52,0,0,,2,,,86,127
65980,note_off,51,0,0,,5,,,77,127
65981,note_on,1,0,0,,7,,,79,127
66085,note_off,104,0,0,,7,,,79,127
66086,note_on,1,0,0,,5,,,77,127
66186,note_off,100,0,0,,11,,,46,127
66189,note_off,3,0,0,,5,,,77,127
66190,note_on,1,0,0,,5,,,77,127
66294,note_off,104,0,0,,5,,,77,127
66295,note_on,1,0,0,,5,,,77,127
66295,note_on,0,0,0,,5,,,65,127
66399,note_off,104,0,0,,5,,,65,127
66399,note_off,0,0,0,,5,,,77,127
66400,note_on,1,0,0,,7,,,79,127
66400,note_on,0,0,0,,2,,,62,127
66504,note_off,104,0,0,,2,,,62,127
66504,note_off,0,0,0,,7,,,79,127
66505,note_on,1,0,0,,5,,,77,127
66505,note_on,0,0,0,,11,,,58,127
66609,note_off,104,0,0,,11,,,58,127
66609,note_off,0,0,0,,5,,,77,127
66610,note_on,1,0,0,,11,,,82,127
66610,note_on,0,0,0,,7,,,43,127
66715,note_on,105,0,0,,2,,,74,127
66767,note_off,52,0,0,,11,,,82,127
66818,note_off,51,0,0,,2,,,74,127
66819,note_on,1,0,0,,4,,,76,127
66923,note_off,104,0,0,,4,,,76,127
66924,note_on,1,0,0,,2,,,74,127
67024,note_off,100,0,0,,7,,,43,127
67027,note_off,3,0,0,,2,,,74,127
67028,note_on,1,0,0,,2,,,74,127
67132,note_off,104,0,0,,2,,,74,127
67133,note_on,1,0,0,,2,,,74,127
67133,note_on,0,0,0,,2,,,62,127
67237,note_off,104,0,0,,2,,,62,127
67237,note_off,0,0,0,,2,,,74,127
67238,note_on,1,0,0,,4,,,76,127
67238,note_on,0,0,0,,11,,,58,127
67342,note_off,104,0,0,,11,,,58,127
67342,note_off,0,0,0,,4,,,76,127
67343,note_on,1,0,0,,2,,,74,127
67343,note_on,0,0,0,,7,,,55,127
67447,note_off,104,0,0,,7,,,55,127
67447,note_off,0,0,0,,2,,,74,127
67448,note_on,1,0,0,,7,,,79,127
67448,note_on,0,0,0,,0,,,36,127
67552,note_off,104,0,0,,7,,,79,127
67553,note_on,1,0,0,,4,,,76,127
67657,note_off,104,0,0,,4,,,76,127
67658,note_on,1,0,0,,5,,,77,127
67762,note_off,104,0,0,,5,,,77,127
67763,note_on,1,0,0,,2,,,74,127
67867,note_off,104,0,0,,2,,,74,127
67868,note_on,1,0,0,,4,,,76,127
67972,note_off,104,0,0,,4,,,76,127
67973,note_on,1,0,0,,0,,,72,127
68006,note_off,33,0,0,,0,,,36,127
68077,note_off,71,0,0,,0,,,72,127
68078,note_on,1,0,0,,2,,,74,127
68078,note_on,0,0,0,,4,,,52,127
68182,note_off,104,0,0,,2,,,74,127
68183,note_on,1,0,0,,11,,,70,127
68287,note_off,104,0,0,,11,,,70,127
68287,note_off,0,0,0,,4,,,52,127
68288,note_on,1,0,0,,10,,,69,127
68288,note_on,0,0,0,,5,,,53,127
68392,note_off,104,0,0,,10,,,69,127
68393,note_on,1,0,0,,0,,,72,127
68497,note_off,104,0,0,,0,,,72,127
68497,note_off,0,0,0,,5,,,53,127
68498,note_on,1,0,0,,11,,,70,127
68498,note_on,0,0,0,,11,,,46,127
68602,note_off,104,0,0,,11,,,70,127
68603,note_on,1,0,0,,2,,,74,127
68707,note_off,104,0,0,,2,,,74,127
68707,note_off,0,0,0,,11,,,46,127
68708,note_on,1,0,0,,0,,,72,127
68708,note_on,0,0,0,,0,,,48,127
68812,note_off,104,0,0,,0,,,72,127
68813,note_on,1,0,0,,11,,,70,127
68917,note_off,104,0,0,,11,,,70,127
68918,note_on,1,0,0,,10,,,69,127
68918,note_on,0,0,0,,0,,,36,127
68970,note_off,52,0,0,,0,,,48,127
69021,note_off,51,0,0,,10,,,69,127
69022,note_on,1,0,0,,7,,,67,127
69126,note_off,104,0,0,,7,,,67,127
69126,note_off,0,0,0,,0,,,36,127
69127,note_on,1,0,0,,5,,,65,127
69127,note_on,0,0,0,,5,,,53,127
69231,note_off,104,0,0,,5,,,65,127
69232,note_on,1,0,0,,5,,,77,127
69336,note_off,104,0,0,,5,,,77,127
69337,note_on,1,0,0,,7,,,79,127
69441,note_off,104,0,0,,7,,,79,127
69442,note_on,1,0,0,,5,,,77,127
69542,note_off,100,0,0,,5,,,53,127
69545,note_off,3,0,0,,5,,,77,127
69546,note_on,1,0,0,,5,,,77,127
69650,note_off,104,0,0,,5,,,77,127
69651,note_on,1,0,0,,5,,,77,127
69651,note_on,0,0,0,,0,,,72,127
69755,note_off,104,0,0,,0,,,72,127
69755,note_off,0,0,0,,5,,,77,127
69756,note_on,1,0,0,,7,,,79,127
69756,note_on,0,0,0,,10,,,69,127
69860,note_off,104,0,0,,10,,,69,127
69860,note_off,0,0,0,,7,,,79,127
69861,note_on,1,0,0,,5,,,77,127
69861,note_on,0,0,0,,5,,,65,127
69965,note_off,104,0,0,,5,,,65,127
69965,note_off,0,0,0,,5,,,77,127
69966,note_on,1,0,0,,2,,,86,127
69966,note_on,0,0,0,,2,,,50,127
70071,note_on,105,0,0,,5,,,77,127
70174,note_off,103,0,0,,2,,,86,127
70175,note_off,1,0,0,,5,,,77,127
70176,note_on,1,0,0,,7,,,79,127
70280,note_off,104,0,0,,7,,,79,127
70281,note_on,1,0,0,,5,,,77,127
70381,note_off,100,0,0,,2,,,50,127
70384,note_off,3,0,0,,5,,,77,127
70385,note_on,1,0,0,,5,,,77,127
70489,note_off,104,0,0,,5,,,77,127
70490,note_on,1,0,0,,5,,,77,127
70490,note_on,0,0,0,,10,,,69,127
70594,note_off,104,0,0,,10,,,69,127
70594,note_off,0,0,0,,5,,,77,127
70595,note_on,1,0,0,,7,,,79,127
70595,note_on,0,0,0,,5,,,65,127
70699,note_off,104,0,0,,5,,,65,127
70699,note_off,0,0,0,,7,,,79,127
70700,note_on,1,0,0,,5,,,77,127
70700,note_on,0,0,0,,2,,,62,127
70804,note_off,104,0,0,,2,,,62,127
70804,note_off,0,0,0,,5,,,77,127
70805,note_on,1,0,0,,2,,,86,127
70805,note_on,0,0,0,,11,,,46,127
70910,note_on,105,0,0,,5,,,77,127
71013,note_off,103,0,0,,2,,,86,127
71014,note_off,1,0,0,,5,,,77,127
71015,note_on,1,0,0,,7,,,79,127
71119,note_off,104,0,0,,7,,,79,127
71120,note_on,1,0,0,,5,,,77,127
71220,note_off,100,0,0,,11,,,46,127
71223,note_off,3,0,0,,5,,,77,127
71224,note_on,1,0,0,,5,,,77,127
71328,note_off,104,0,0,,5,,,77,127
71329,note_on,1,0,0,,5,,,77,127
71329,note_on,0,0,0,,5,,,65,127
71433,note_off,104,0,0,,5,,,65,127
71433,note_off,0,0,0,,5,,,77,127
71434,note_on,1,0,0,,7,,,79,127
71434,note_on,0,0,0,,2,,,62,127
71538,note_off,104,0,0,,2,,,62,127
71538,note_off,0,0,0,,7,,,79,127
71539,note_on,1,0,0,,5,,,77,127
71539,note_on,0,0,0,,11,,,58,127
71643,note_off,104,0,0,,11,,,58,127
71643,note_off,0,0,0,,5,,,77,127
71644,note_on,1,0,0,,11,,,82,127
71644,note_on,0,0,0,,7,,,43,127
71749,note_on,105,0,0,,2,,,74,127
71852,note_off,103,0,0,,11,,,82,127
71853,note_off,1,0,0,,2,,,74,127
71854,note_on,1,0,0,,4,,,76,127
71958,note_off,104,0,0,,4,,,76,127
71959,note_on,1,0,0,,2,,,74,127
72059,note_off,100,0,0,,7,,,43,127
72062,note_off,3,0,0,,2,,,74,127
72063,note_on,1,0,0,,2,,,74,127
72167,note_off,104,0,0,,2,,,74,127
72168,note_on,1,0,0,,2,,,74,127
72168,note_on,0,0,0,,2,,,62,127
72272,note_off,104,0,0,,2,,,62,127
72272,note_off,0,0,0,,2,,,74,127
72273,note_on,1,0,0,,4,,,76,127
72273,note_on,0,0,0,,11,,,58,127
72377,note_off,104,0,0,,11,,,58,127
72377,note_off,0,0,0,,4,,,76,127
72378,note_on,1,0,0,,2,,,74,127
72378,note_on,0,0,0,,7,,,55,127
72482,note_off,104,0,0,,7,,,55,127
72482,note_off,0,0,0,,2,,,74,127
72483,note_on,1,0,0,,7,,,79,127
72483,note_on,0,0,0,,0,,,36,127
72587,note_off,104,0,0,,7,,,79,127
72588,note_on,1,0,0,,4,,,76,127
72692,note_off,104,0,0,,4,,,76,127
72693,note_on,1,0,0,,5,,,77,127
72797,note_off,104,0,0,,5,,,77,127
72798,note_on,1,0,0,,2,,,74,127
72902,note_off,104,0,0,,2,,,74,127
72903,note_on,1,0,0,,4,,,76,127
73007,note_off,104,0,0,,4,,,76,127
73008,note_on,1,0,0,,0,,,72,127
73052,note_off,44,0,0,,0,,,36,127
73112,note_off,60,0,0,,0,,,72,127
73113,note_on,1,0,0,,2,,,74,127
73113,note_on,0,0,0,,4,,,52,127
73217,note_off,104,0,0,,2,,,74,127
73218,note_on,1,0,0,,11,,,70,127
73322,note_off,104,0,0,,11,,,70,127
73322,note_off,0,0,0,,4,,,52,127
73323,note_on,1,0,0,,10,,,69,127
73323,note_on,0,0,0,,5,,,53,127
73427,note_off,104,0,0,,10,,,69,127
73428,note_on,1,0,0,,0,,,72,127
73532,note_off,104,0,0,,0,,,72,127
73532,note_off,0,0,0,,5,,,53,127
73533,note_on,1,0,0,,11,,,70,127
73533,note_on,0,0,0,,11,,,46,127
73637,note_off,104,0,0,,11,,,70,127
73638,note_on,1,0,0,,2,,,74,127
73742,note_off,104,0,0,,2,,,74,127
73742,note_off,0,0,0,,11,,,46,127
73743,note_on,1,0,0,,0,,,72,127
73743,note_on,0,0,0,,0,,,48,127
73847,note_off,104,0,0,,0,,,72,127
73848,note_on,1,0,0,,11,,,70,127
73952,note_off,104,0,0,,11,,,70,127
73953,note_on,1,0,0,,10,,,69,127
73953,note_on,0,0,0,,0,,,36,127
74057,note_off,104,0,0,,10,,,69,127
74058,note_on,1,0,0,,7,,,67,127
74158,note_off,100,0,0,,0,,,48,127
74161,note_off,3,0,0,,7,,,67,127
74161,note_off,0,0,0,,0,,,36,127
74162,note_on,1,0,0,,5,,,65,127
74162,note_on,0,0,0,,5,,,41,127
74266,note_off,104,0,0,,5,,,65,127
74267,note_on,1,0,0,,0,,,84,127
74371,note_off,104,0,0,,0,,,84,127
74371,note_off,0,0,0,,5,,,41,127
74372,note_on,1,0,0,,2,,,86,127
74372,note_on,0,0,0,,5,,,65,127
74476,note_off,104,0,0,,2,,,86,127
74477,note_on,1,0,0,,0,,,84,127
74581,note_off,104,0,0,,0,,,84,127
74581,note_off,0,0,0,,5,,,65,127
74582,note_on,1,0,0,,0,,,84,127
74582,note_on,0,0,0,,4,,,64,127
74686,note_off,104,0,0,,0,,,84,127
74687,note_on,1,0,0,,11,,,82,127
74791,note_off,104,0,0,,11,,,82,127
74791,note_off,0,0,0,,4,,,64,127
74792,note_on,1,0,0,,10,,,81,127
74792,note_on,0,0,0,,0,,,60,127
74896,note_off,104,0,0,,10,,,81,127
74897,note_on,1,0,0,,7,,,79,127
75001,note_off,104,0,0,,7,,,79,127
75001,note_off,0,0,0,,0,,,60,127
75002,note_on,1,0,0,,10,,,81,127
75002,note_on,0,0,0,,5,,,53,127
75106,note_off,104,0,0,,10,,,81,127
75107,note_on,1,0,0,,0,,,84,127
75211,note_off,104,0,0,,0,,,84,127
75211,note_off,0,0,0,,5,,,53,127
75212,note_on,1,0,0,,2,,,86,127
75212,note_on,0,0,0,,5,,,65,127
75316,note_off,104,0,0,,2,,,86,127
75317,note_on,1,0,0,,0,,,84,127
75421,note_off,104,0,0,,0,,,84,127
75421,note_off,0,0,0,,5,,,65,127
75422,note_on,1,0,0,,0,,,84,127
75422,note_on,0,0,0,,4,,,64,127
75526,note_off,104,0,0,,0,,,84,127
75527,note_on,1,0,0,,11,,,82,127
75631,note_off,104,0,0,,11,,,82,127
75631,note_off,0,0,0,,4,,,64,127
75632,note_on,1,0,0,,10,,,81,127
75632,note_on,0,0,0,,0,,,60,127
75736,note_off,104,0,0,,10,,,81,127
75737,note_on,1,0,0,,7,,,79,127
75841,note_off,104,0,0,,7,,,79,127
75841,note_off,0,0,0,,0,,,60,127
75842,note_on,1,0,0,,10,,,81,127
75842,note_on,0,0,0,,5,,,53,127
75946,note_off,104,0,0,,10,,,81,127
75947,note_on,1,0,0,,0,,,84,127
76051,note_off,104,0,0,,0,,,84,127
76051,note_off,0,0,0,,5,,,53,127
76052,note_on,1,0,0,,2,,,86,127
76052,note_on,0,0,0,,5,,,65,127
76156,note_off,104,0,0,,2,,,86,127
76157,note_on,1,0,0,,0,,,84,127
76261,note_off,104,0,0,,0,,,84,127
76261,note_off,0,0,0,,5,,,65,127
76262,note_on,1,0,0,,0,,,84,127
76262,note_on,0,0,0,,4,,,64,127
76366,note_off,104,0,0,,0,,,84,127
76367,note_on,1,0,0,,11,,,82,127
76471,note_off,104,0,0,,11,,,82,127
76471,note_off,0,0,0,,4,,,64,127
76472,note_on,1,0,0,,10,,,81,127
76472,note_on,0,0,0,,0,,,60,127
76576,note_off,104,0,0,,10,,,81,127
76577,note_on,1,0,0,,7,,,79,127
76681,note_off,104,0,0,,7,,,79,127
76681,note_off,0,0,0,,0,,,60,127
76682,note_on,1,0,0,,5,,,77,127
76682,note_on,0,0,0,,2,,,62,127
76786,note_off,104,0,0,,5,,,77,127
76787,note_on,1,0,0,,10,,,81,127
76891,note_off,104,0,0,,10,,,81,127
76891,note_off,0,0,0,,2,,,62,127
76892,note_on,1,0,0,,7,,,79,127
76892,note_on,0,0,0,,11,,,58,127
76996,note_off,104,0,0,,7,,,79,127
76997,note_on,1,0,0,,11,,,82,127
77101,note_off,104,0,0,,11,,,82,127
77101,note_off,0,0,0,,11,,,58,127
77102,note_on,1,0,0,,10,,,81,127
77102,note_on,0,0,0,,0,,,60,127
77206,note_off,104,0,0,,10,,,81,127
77207,note_on,1,0,0,,7,,,79,127
77311,note_off,104,0,0,,7,,,79,127
77312,note_on,1,0,0,,5,,,77,127
77312,note_on,0,0,0,,0,,,48,127
77416,note_off,104,0,0,,5,,,77,127
77417,note_off,1,0,0,,0,,,60,127
77417,note_on,0,0,0,,4,,,76,127
77521,note_off,104,0,0,,4,,,76,127
77521,note_off,0,0,0,,0,,,48,127
77522,note_on,1,0,0,,5,,,77,127
77522,note_on,0,0,0,,5,,,41,127
77626,note_off,104,0,0,,5,,,41,127
77627,note_on,1,0,0,,5,,,65,127
77731,note_off,104,0,0,,5,,,65,127
77732,note_on,1,0,0,,7,,,67,127
77836,note_off,104,0,0,,7,,,67,127
77837,note_on,1,0,0,,5,,,65,127
77941,note_off,104,0,0,,5,,,65,127
77942,note_on,1,0,0,,5,,,65,127
78046,note_off,104,0,0,,5,,,65,127
78047,note_on,1,0,0,,4,,,64,127
78151,note_off,104,0,0,,4,,,64,127
78151,note_off,0,0,0,,5,,,77,127
78152,note_on,1,0,0,,5,,,77,127
78152,note_on,0,0,0,,2,,,62,127
78256,note_off,104,0,0,,2,,,62,127
78257,note_on,1,0,0,,0,,,60,127
78361,note_off,104,0,0,,0,,,60,127
78361,note_off,0,0,0,,5,,,77,127
78362,note_on,1,0,0,,2,,,86,127
78362,note_on,0,0,0,,11,,,58,127
78466,note_off,104,0,0,,11,,,58,127
78467,note_on,1,0,0,,5,,,65,127
78571,note_off,104,0,0,,5,,,65,127
78571,note_off,0,0,0,,2,,,86,127
78572,note_on,1,0,0,,5,,,77,127
78572,note_on,0,0,0,,7,,,67,127
78676,note_off,104,0,0,,7,,,67,127
78677,note_on,1,0,0,,5,,,65,127
78781,note_off,104,0,0,,5,,,65,127
78781,note_off,0,0,0,,5,,,77,127
78782,note_on,1,0,0,,5,,,77,127
78782,note_on,0,0,0,,5,,,65,127
78886,note_off,104,0,0,,5,,,65,127
78887,note_on,1,0,0,,2,,,62,127
78991,note_off,104,0,0,,2,,,62,127
78991,note_off,0,0,0,,5,,,77,127
78992,note_on,1,0,0,,2,,,86,127
78992,note_on,0,0,0,,0,,,60,127
79096,note_off,104,0,0,,0,,,60,127
79097,note_on,1,0,0,,11,,,58,127
79201,note_off,104,0,0,,11,,,58,127
79201,note_off,0,0,0,,2,,,86,127
79202,note_on,1,0,0,,0,,,84,127
79202,note_on,0,0,0,,10,,,57,127
79306,note_off,104,0,0,,10,,,57,127
79307,note_on,1,0,0,,5,,,65,127
79411,note_off,104,0,0,,5,,,65,127
79411,note_off,0,0,0,,0,,,84,127
79412,note_on,1,0,0,,5,,,77,127
79412,note_on,0,0,0,,7,,,67,127
79516,note_off,104,0,0,,7,,,67,127
79517,note_on,1,0,0,,5,,,65,127
79621,note_off,104,0,0,,5,,,65,127
79621,note_off,0,0,0,,5,,,77,127
79622,note_on,1,0,0,,5,,,77,127
79622,note_on,0,0,0,,5,,,65,127
79726,note_off,104,0,0,,5,,,65,127
79727,note_on,1,0,0,,4,,,64,127
79831,note_off,104,0,0,,4,,,64,127
79831,note_off,0,0,0,,5,,,77,127
79832,note_on,1,0,0,,0,,,84,127
79832,note_on,0,0,0,,2,,,62,127
79936,note_off,104,0,0,,2,,,62,127
79937,note_on,1,0,0,,0,,,60,127
80033,note_off,96,0,0,,0,,,60,127
80040,note_off,7,0,0,,0,,,84,127
80042,note_on,2,0,0,,11,,,46,127
80147,note_on,105,0,0,,2,,,86,127
80251,note_off,104,0,0,,2,,,86,127
80252,note_on,1,0,0,,0,,,84,127
80356,note_off,104,0,0,,0,,,84,127
80357,note_on,1,0,0,,11,,,82,127
80461,note_off,104,0,0,,11,,,82,127
80461,note_off,0,0,0,,11,,,46,127
80462,note_on,1,0,0,,10,,,81,127
80462,note_on,0,0,0,,0,,,48,127
80566,note_off,104,0,0,,10,,,81,127
80567,note_on,1,0,0,,7,,,79,127
80671,note_off,104,0,0,,7,,,79,127
80672,note_on,1,0,0,,5,,,77,127
80776,note_off,104,0,0,,5,,,77,127
80777,note_on,1,0,0,,4,,,76,127
80881,note_off,104,0,0,,4,,,76,127
80881,note_off,0,0,0,,0,,,48,127
80882,note_on,1,0,0,,5,,,77,127
80882,note_on,0,0,0,,5,,,41,127
80986,note_off,104,0,0,,5,,,41,127
80987,note_on,1,0,0,,5,,,65,127
81091,note_off,104,0,0,,5,,,65,127
81092,note_on,1,0,0,,7,,,67,127
81196,note_off,104,0,0,,7,,,67,127
81197,note_on,1,0,0,,5,,,65,127
81301,note_off,104,0,0,,5,,,65,127
81302,note_on,1,0,0,,5,,,65,127
81406,note_off,104,0,0,,5,,,65,127
81407,note_on,1,0,0,,4,,,64,127
81511,note_off,104,0,0,,4,,,64,127
81511,note_off,0,0,0,,5,,,77,127
81512,note_on,1,0,0,,5,,,77,127
81512,note_on,0,0,0,,2,,,62,127
81616,note_off,104,0,0,,2,,,62,127
81617,note_on,1,0,0,,0,,,60,127
81721,note_off,104,0,0,,0,,,60,127
81721,note_off,0,0,0,,5,,,77,127
81722,note_on,1,0,0,,2,,,86,127
81722,note_on,0,0,0,,11,,,58,127
81826,note_off,104,0,0,,11,,,58,127
81827,note_on,1,0,0,,5,,,65,127
81931,note_off,104,0,0,,5,,,65,127
81931,note_off,0,0,0,,2,,,86,127
81932,note_on,1,0,0,,5,,,77,127
81932,note_on,0,0,0,,7,,,67,127
82036,note_off,104,0,0,,7,,,67,127
82037,note_on,1,0,0,,5,,,65,127
82141,note_off,104,0,0,,5,,,65,127
82141,note_off,0,0,0,,5,,,77,127
82142,note_on,1,0,0,,2,,,86,127
82142,note_on,0,0,0,,5,,,65,127
82246,note_off,104,0,0,,5,,,65,127
82247,note_on,1,0,0,,2,,,62,127
82351,note_off,104,0,0,,2,,,62,127
82351,note_off,0,0,0,,2,,,86,127
82352,note_on,1,0,0,,4,,,88,127
82352,note_on,0,0,0,,0,,,60,127
82456,note_off,104,0,0,,0,,,60,127
82457,note_on,1,0,0,,11,,,58,127
82561,note_off,104,0,0,,11,,,58,127
82561,note_off,0,0,0,,4,,,88,127
82562,note_on,1,0,0,,5,,,89,127
82562,note_on,0,0,0,,10,,,57,127
82666,note_off,104,0,0,,10,,,57,127
82667,note_on,1,0,0,,5,,,65,127
82771,note_off,104,0,0,,5,,,65,127
82772,note_on,1,0,0,,5,,,77,127
82772,note_on,0,0,0,,7,,,67,127
82876,note_off,104,0,0,,7,,,67,127
82877,note_on,1,0,0,,5,,,65,127
82977,note_off,100,0,0,,5,,,89,127
82980,note_off,3,0,0,,5,,,65,127
82980,note_off,0,0,0,,5,,,77,127
82981,note_on,1,0,0,,5,,,77,127
82981,note_on,0,0,0,,5,,,65,127
83085,note_off,104,0,0,,5,,,65,127
83086,note_on,1,0,0,,4,,,64,127
83190,note_off,104,0,0,,4,,,64,127
83190,note_off,0,0,0,,5,,,77,127
83191,note_on,1,0,0,,0,,,84,127
83191,note_on,0,0,0,,2,,,62,127
83295,note_off,104,0,0,,2,,,62,127
83296,note_on,1,0,0,,0,,,60,127
83392,note_off,96,0,0,,0,,,60,127
83399,note_off,7,0,0,,0,,,84,127
83401,note_on,2,0,0,,11,,,34,127
83506,note_on,105,0,0,,2,,,86,127
83610,note_off,104,0,0,,2,,,86,127
83611,note_on,1,0,0,,0,,,84,127
83715,note_off,104,0,0,,0,,,84,127
83716,note_on,1,0,0,,11,,,82,127
83820,note_off,104,0,0,,11,,,82,127
83820,note_off,0,0,0,,11,,,34,127
83821,note_on,1,0,0,,10,,,81,127
83821,note_on,0,0,0,,0,,,36,127
83925,note_off,104,0,0,,10,,,81,127
83926,note_on,1,0,0,,7,,,79,127
84030,note_off,104,0,0,,7,,,79,127
84031,note_on,1,0,0,,5,,,77,127
84135,note_off,104,0,0,,5,,,77,127
84136,note_on,1,0,0,,4,,,76,127
84240,note_off,104,0,0,,4,,,76,127
84240,note_off,0,0,0,,0,,,36,127
84241,note_on,1,0,0,,5,,,77,127
84241,note_on,0,0,0,,5,,,41,127
84345,note_off,104,0,0,,5,,,77,127
84346,note_on,1,0,0,,10,,,81,127
84450,note_off,104,0,0,,10,,,81,127
84450,note_off,0,0,0,,5,,,41,127
84451,note_on,1,0,0,,7,,,79,127
84451,note_on,0,0,0,,4,,,52,127
84555,note_off,104,0,0,,7,,,79,127
84556,note_on,1,0,0,,11,,,82,127
84660,note_off,104,0,0,,11,,,82,127
84660,note_off,0,0,0,,4,,,52,127
84661,note_on,1,0,0,,10,,,81,127
84661,note_on,0,0,0,,5,,,53,127
84765,note_off,104,0,0,,10,,,81,127
84766,note_on,1,0,0,,0,,,84,127
84870,note_off,104,0,0,,0,,,84,127
84870,note_off,0,0,0,,5,,,53,127
84871,note_on,1,0,0,,4,,,76,127
84871,note_on,0,0,0,,7,,,55,127
84975,note_off,104,0,0,,4,,,76,127
84976,note_on,1,0,0,,7,,,79,127
85080,note_off,104,0,0,,7,,,79,127
85080,note_off,0,0,0,,7,,,55,127
85081,note_on,1,0,0,,5,,,77,127
85081,note_on,0,0,0,,10,,,57,127
85185,note_off,104,0,0,,5,,,77,127
85186,note_on,1,0,0,,0,,,72,127
85290,note_off,104,0,0,,0,,,72,127
85290,note_off,0,0,0,,10,,,57,127
85291,note_on,1,0,0,,2,,,74,127
85291,note_on,0,0,0,,11,,,58,127
85395,note_off,104,0,0,,2,,,74,127
85396,note_on,1,0,0,,11,,,70,127
85500,note_off,104,0,0,,11,,,70,127
85500,note_off,0,0,0,,11,,,58,127
85501,note_on,1,0,0,,0,,,72,127
85501,note_on,0,0,0,,0,,,60,127
85605,note_off,104,0,0,,0,,,72,127
85606,note_on,1,0,0,,10,,,69,127
85710,note_off,104,0,0,,10,,,69,127
85710,note_off,0,0,0,,0,,,60,127
85711,note_on,1,0,0,,11,,,70,127
85711,note_on,0,0,0,,0,,,48,127
85815,note_off,104,0,0,,11,,,70,127
85816,note_on,1,0,0,,7,,,67,127
85920,note_off,104,0,0,,7,,,67,127
85920,note_off,0,0,0,,0,,,48,127
85923,note_on,3,0,0,,5,,,53,127
85923,note_on,0,0,0,,10,,,69,127
86030,note_off,107,0,0,,10,,,69,127
86033,note_on,3,0,0,,0,,,72,127
86139,note_off,106,0,0,,5,,,53,127
86140,note_off,1,0,0,,0,,,72,127
86143,note_on,3,0,0,,11,,,46,127
86143,note_on,0,0,0,,7,,,67,127
86250,note_off,107,0,0,,7,,,67,127
86253,note_on,3,0,0,,11,,,70,127
86359,note_off,106,0,0,,11,,,46,127
86360,note_off,1,0,0,,11,,,70,127
86362,note_on,2,0,0,,0,,,48,127
86362,note_on,0,0,0,,10,,,69,127
86469,note_off,107,0,0,,10,,,69,127
86472,note_on,3,0,0,,0,,,72,127
86578,note_off,106,0,0,,0,,,48,127
86579,note_off,1,0,0,,0,,,72,127
86582,note_on,3,0,0,,0,,,36,127
86582,note_on,0,0,0,,4,,,64,127
86689,note_off,107,0,0,,4,,,64,127
86692,note_on,3,0,0,,7,,,67,127
86798,note_off,106,0,0,,0,,,36,127
86799,note_off,1,0,0,,7,,,67,127
86816,note_on,17,0,0,,5,,,41,127
86816,note_on,0,0,0,,5,,,65,127
88961,note_off,2145,0,0,,5,,,65,127
88961,note_off,0,0,0,,5,,,41,127
93696,end_of_track,4735,1,0,,,,,,
