tick,type,time,meta,track,program,channel,pitch,tempo,note,velocity
0,copyright,0,1,0,,,,,,
0,program_change,0,0,0,6,0,,,,
0,pitchwheel,0,0,0,,0,0,,,
0,program_change,0,0,0,6,1,,,,
0,pitchwheel,0,0,0,,1,-590,,,
0,program_change,0,0,0,6,2,,,,
0,pitchwheel,0,0,0,,2,-272,,,
0,program_change,0,0,0,6,3,,,,
0,pitchwheel,0,0,0,,3,-353,,,
0,program_change,0,0,0,6,4,,,,
0,pitchwheel,0,0,0,,4,-560,,,
0,program_change,0,0,0,6,5,,,,
0,pitchwheel,0,0,0,,5,-80,,,
0,program_change,0,0,0,6,6,,,,
0,pitchwheel,0,0,0,,6,-625,,,
0,program_change,0,0,0,6,7,,,,
0,pitchwheel,0,0,0,,7,-130,,,
0,program_change,0,0,0,6,8,,,,
0,pitchwheel,0,0,0,,8,-512,,,
0,program_change,0,0,0,6,10,,,,
0,pitchwheel,0,0,0,,10,-464,,,
0,program_change,0,0,0,6,11,,,,
0,pitchwheel,0,0,0,,11,-208,,,
0,program_change,0,0,0,6,12,,,,
0,pitchwheel,0,0,0,,12,-553,,,
0,set_tempo,0,1,0,,,,500000,,
96,note_on,96,0,0,,11,,,46,127
480,note_on,384,0,0,,11,,,58,127
607,note_off,127,0,0,,11,,,58,127
608,note_on,1,0,0,,10,,,57,127
735,note_off,127,0,0,,10,,,57,127
736,note_on,1,0,0,,11,,,58,127
863,note_off,127,0,0,,11,,,58,127
864,note_on,1,0,0,,5,,,65,127
1055,note_off,191,0,0,,5,,,65,127
1056,note_on,1,0,0,,2,,,62,127
1247,note_off,191,0,0,,2,,,62,127
1247,note_off,0,0,0,,11,,,46,127
1248,note_on,1,0,0,,0,,,60,127
1439,note_off,191,0,0,,0,,,60,127
1440,note_on,1,0,0,,11,,,58,127
1631,note_off,191,0,0,,11,,,58,127
1632,note_on,1,0,0,,10,,,57,127
1632,note_on,0,0,0,,5,,,65,127
1823,note_off,191,0,0,,5,,,65,127
1824,note_on,1,0,0,,3,,,63,127
2015,note_off,191,0,0,,3,,,63,127
2015,note_off,0,0,0,,10,,,57,127
2016,note_on,1,0,0,,3,,,63,127
2016,note_on,0,0,0,,7,,,55,127
2207,note_off,191,0,0,,3,,,63,127
2208,note_on,1,0,0,,2,,,62,127
2399,note_off,191,0,0,,2,,,62,127
2399,note_off,0,0,0,,7,,,55,127
2400,note_on,1,0,0,,5,,,53,127
2400,note_on,0,0,0,,2,,,62,127
2591,note_off,191,0,0,,2,,,62,127
2592,note_on,1,0,0,,0,,,60,127
2783,note_off,191,0,0,,0,,,60,127
2783,note_off,0,0,0,,5,,,53,127
2784,note_on,1,0,0,,3,,,51,127
2784,note_on,0,0,0,,0,,,60,127
2975,note_off,191,0,0,,0,,,60,127
2976,note_on,1,0,0,,11,,,58,127
3167,note_off,191,0,0,,11,,,58,127
3167,note_off,0,0,0,,3,,,51,127
3168,note_on,1,0,0,,2,,,50,127
3168,note_on,0,0,0,,11,,,58,127
3168,note_on,0,0,0,,11,,,82,127
3552,note_on,384,0,0,,11,,,70,127
3679,note_off,127,0,0,,11,,,70,127
3680,note_on,1,0,0,,10,,,69,127
3807,note_off,127,0,0,,10,,,69,127
3808,note_on,1,0,0,,11,,,70,127
3935,note_off,127,0,0,,11,,,70,127
3935,note_off,0,0,0,,11,,,82,127
3936,note_on,1,0,0,,5,,,77,127
4127,note_off,191,0,0,,5,,,77,127
4128,note_on,1,0,0,,2,,,74,127
4319,note_off,191,0,0,,2,,,74,127
4319,note_off,0,0,0,,11,,,58,127
4319,note_off,0,0,0,,2,,,50,127
4320,note_on,1,0,0,,3,,,51,127
4320,note_on,0,0,0,,0,,,72,127
4511,note_off,191,0,0,,0,,,72,127
4512,note_on,1,0,0,,11,,,70,127
4703,note_off,191,0,0,,11,,,70,127
4703,note_off,0,0,0,,3,,,51,127
4704,note_on,1,0,0,,5,,,53,127
4704,note_on,0,0,0,,5,,,77,127
4704,note_on,0,0,0,,10,,,69,127
4895,note_off,191,0,0,,5,,,77,127
4896,note_on,1,0,0,,3,,,75,127
5087,note_off,191,0,0,,3,,,75,127
5087,note_off,0,0,0,,10,,,69,127
5088,note_on,1,0,0,,3,,,75,127
5088,note_on,0,0,0,,7,,,67,127
5279,note_off,191,0,0,,3,,,75,127
5280,note_on,1,0,0,,2,,,74,127
5471,note_off,191,0,0,,2,,,74,127
5471,note_off,0,0,0,,7,,,67,127
5471,note_off,0,0,0,,5,,,53,127
5472,note_on,1,0,0,,5,,,41,127
5472,note_on,0,0,0,,5,,,65,127
5472,note_on,0,0,0,,2,,,74,127
5663,note_off,191,0,0,,2,,,74,127
5664,note_on,1,0,0,,0,,,72,127
5855,note_off,191,0,0,,0,,,72,127
5855,note_off,0,0,0,,5,,,65,127
5856,note_on,1,0,0,,0,,,72,127
5856,note_on,0,0,0,,10,,,69,127
5983,note_off,127,0,0,,0,,,72,127
5984,note_on,1,0,0,,2,,,74,127
6111,note_off,127,0,0,,2,,,74,127
6112,note_on,1,0,0,,3,,,75,127
6239,note_off,127,0,0,,3,,,75,127
6239,note_off,0,0,0,,10,,,69,127
6239,note_off,0,0,0,,5,,,41,127
6240,note_on,1,0,0,,11,,,46,127
6240,note_on,0,0,0,,11,,,70,127
6240,note_on,0,0,0,,3,,,75,127
6240,note_on,0,0,0,,2,,,74,127
6367,note_off,127,0,0,,2,,,74,127
6367,note_off,0,0,0,,3,,,75,127
6368,note_on,1,0,0,,0,,,72,127
6495,note_off,127,0,0,,0,,,72,127
6495,note_off,0,0,0,,11,,,70,127
6496,note_on,1,0,0,,11,,,70,127
6623,note_off,127,0,0,,11,,,70,127
6623,note_off,0,0,0,,11,,,46,127
6624,note_on,1,0,0,,2,,,62,127
6624,note_on,0,0,0,,11,,,70,127
6672,note_on,48,0,0,,0,,,60,127
6676,note_off,4,0,0,,2,,,62,127
6720,note_on,44,0,0,,11,,,58,127
6724,note_off,4,0,0,,0,,,60,127
7007,note_off,283,0,0,,11,,,58,127
7008,note_on,1,0,0,,10,,,57,127
7056,note_on,48,0,0,,7,,,55,127
7060,note_off,4,0,0,,10,,,57,127
7104,note_on,44,0,0,,5,,,53,127
7108,note_off,4,0,0,,7,,,55,127
7324,note_off,216,0,0,,11,,,70,127
7391,note_off,67,0,0,,5,,,53,127
7392,note_on,1,0,0,,3,,,51,127
7392,note_on,0,0,0,,0,,,72,127
7440,note_on,48,0,0,,2,,,50,127
7440,note_on,0,0,0,,2,,,74,127
7444,note_off,4,0,0,,0,,,72,127
7444,note_off,0,0,0,,3,,,51,127
7488,note_on,44,0,0,,0,,,48,127
7488,note_on,0,0,0,,3,,,75,127
7492,note_off,4,0,0,,2,,,74,127
7492,note_off,0,0,0,,2,,,50,127
7775,note_off,283,0,0,,3,,,75,127
7775,note_off,0,0,0,,0,,,48,127
7776,note_on,1,0,0,,11,,,46,127
7776,note_on,0,0,0,,3,,,75,127
7776,note_on,0,0,0,,2,,,74,127
7903,note_off,127,0,0,,2,,,74,127
7903,note_off,0,0,0,,3,,,75,127
7904,note_on,1,0,0,,0,,,72,127
8031,note_off,127,0,0,,0,,,72,127
8032,note_on,1,0,0,,11,,,70,127
8159,note_off,127,0,0,,11,,,70,127
8159,note_off,0,0,0,,11,,,46,127
8160,note_on,1,0,0,,2,,,62,127
8160,note_on,0,0,0,,11,,,70,127
8208,note_on,48,0,0,,0,,,60,127
8212,note_off,4,0,0,,2,,,62,127
8256,note_on,44,0,0,,11,,,58,127
8260,note_off,4,0,0,,0,,,60,127
8543,note_off,283,0,0,,11,,,58,127
8544,note_on,1,0,0,,10,,,57,127
8592,note_on,48,0,0,,7,,,55,127
8596,note_off,4,0,0,,10,,,57,127
8640,note_on,44,0,0,,5,,,53,127
8644,note_off,4,0,0,,7,,,55,127
8860,note_off,216,0,0,,11,,,70,127
8927,note_off,67,0,0,,5,,,53,127
8928,note_on,1,0,0,,3,,,51,127
8928,note_on,0,0,0,,0,,,72,127
8976,note_on,48,0,0,,2,,,50,127
8976,note_on,0,0,0,,2,,,74,127
8980,note_off,4,0,0,,0,,,72,127
8980,note_off,0,0,0,,3,,,51,127
9024,note_on,44,0,0,,0,,,48,127
9024,note_on,0,0,0,,3,,,75,127
9028,note_off,4,0,0,,2,,,74,127
9028,note_off,0,0,0,,2,,,50,127
9311,note_off,283,0,0,,3,,,75,127
9311,note_off,0,0,0,,0,,,48,127
9312,note_on,1,0,0,,11,,,46,127
9312,note_on,0,0,0,,3,,,75,127
9312,note_on,0,0,0,,2,,,74,127
9439,note_off,127,0,0,,2,,,74,127
9439,note_off,0,0,0,,3,,,75,127
9440,note_on,1,0,0,,0,,,72,127
9567,note_off,127,0,0,,0,,,72,127
9568,note_on,1,0,0,,11,,,70,127
9695,note_off,127,0,0,,11,,,70,127
9695,note_off,0,0,0,,11,,,46,127
9696,note_on,1,0,0,,2,,,62,127
9696,note_on,0,0,0,,11,,,58,127
9696,note_on,0,0,0,,11,,,82,127
9744,note_on,48,0,0,,10,,,81,127
9748,note_off,4,0,0,,11,,,82,127
9792,note_on,44,0,0,,7,,,79,127
9796,note_off,4,0,0,,10,,,81,127
10079,note_off,283,0,0,,7,,,79,127
10080,note_on,1,0,0,,5,,,77,127
10128,note_on,48,0,0,,3,,,75,127
10132,note_off,4,0,0,,5,,,77,127
10176,note_on,44,0,0,,2,,,74,127
10180,note_off,4,0,0,,3,,,75,127
10463,note_off,283,0,0,,2,,,74,127
10463,note_off,0,0,0,,11,,,58,127
10463,note_off,0,0,0,,2,,,62,127
10464,note_on,1,0,0,,0,,,60,127
10464,note_on,0,0,0,,3,,,63,127
10464,note_on,0,0,0,,0,,,72,127
10512,note_on,48,0,0,,11,,,70,127
10516,note_off,4,0,0,,0,,,72,127
10560,note_on,44,0,0,,10,,,69,127
10564,note_off,4,0,0,,11,,,70,127
10847,note_off,283,0,0,,10,,,69,127
10847,note_off,0,0,0,,3,,,63,127
10847,note_off,0,0,0,,0,,,60,127
10848,note_on,1,0,0,,11,,,46,127
10848,note_on,0,0,0,,0,,,72,127
10848,note_on,0,0,0,,11,,,70,127
10975,note_off,127,0,0,,11,,,70,127
10975,note_off,0,0,0,,0,,,72,127
10976,note_on,1,0,0,,10,,,69,127
11103,note_off,127,0,0,,10,,,69,127
11104,note_on,1,0,0,,11,,,70,127
11231,note_off,127,0,0,,11,,,70,127
11231,note_off,0,0,0,,11,,,46,127
11232,note_on,1,0,0,,11,,,58,127
11232,note_on,0,0,0,,2,,,62,127
11232,note_on,0,0,0,,11,,,82,127
11280,note_on,48,0,0,,10,,,81,127
11284,note_off,4,0,0,,11,,,82,127
11328,note_on,44,0,0,,7,,,79,127
11332,note_off,4,0,0,,10,,,81,127
11615,note_off,283,0,0,,7,,,79,127
11616,note_on,1,0,0,,5,,,77,127
11664,note_on,48,0,0,,3,,,75,127
11668,note_off,4,0,0,,5,,,77,127
11712,note_on,44,0,0,,2,,,74,127
11716,note_off,4,0,0,,3,,,75,127
11999,note_off,283,0,0,,2,,,74,127
11999,note_off,0,0,0,,2,,,62,127
11999,note_off,0,0,0,,11,,,58,127
12000,note_on,1,0,0,,3,,,63,127
12000,note_on,0,0,0,,0,,,60,127
12000,note_on,0,0,0,,0,,,72,127
12048,note_on,48,0,0,,11,,,70,127
12052,note_off,4,0,0,,0,,,72,127
12096,note_on,44,0,0,,10,,,69,127
12100,note_off,4,0,0,,11,,,70,127
12383,note_off,283,0,0,,10,,,69,127
12383,note_off,0,0,0,,0,,,60,127
12383,note_off,0,0,0,,3,,,63,127
12384,note_on,1,0,0,,2,,,62,127
12384,note_on,0,0,0,,11,,,70,127
12384,note_on,0,0,0,,5,,,65,127
12384,note_on,0,0,0,,11,,,82,127
12575,note_off,191,0,0,,11,,,82,127
12576,note_on,1,0,0,,10,,,81,127
12767,note_off,191,0,0,,10,,,81,127
12768,note_on,1,0,0,,10,,,81,127
12959,note_off,191,0,0,,10,,,81,127
12960,note_on,1,0,0,,7,,,79,127
13151,note_off,191,0,0,,7,,,79,127
13151,note_off,0,0,0,,5,,,65,127
13151,note_off,0,0,0,,11,,,70,127
13151,note_off,0,0,0,,2,,,62,127
13152,note_on,1,0,0,,5,,,65,127
13152,note_on,0,0,0,,2,,,62,127
13152,note_on,0,0,0,,12,,,71,127
13152,note_on,0,0,0,,7,,,67,127
13152,note_on,0,0,0,,7,,,79,127
13343,note_off,191,0,0,,7,,,79,127
13344,note_on,1,0,0,,5,,,77,127
13535,note_off,191,0,0,,5,,,77,127
13536,note_on,1,0,0,,7,,,79,127
13584,note_on,48,0,0,,5,,,77,127
13588,note_off,4,0,0,,7,,,79,127
13632,note_on,44,0,0,,7,,,79,127
13636,note_off,4,0,0,,5,,,77,127
13680,note_on,44,0,0,,5,,,77,127
13684,note_off,4,0,0,,7,,,79,127
13728,note_on,44,0,0,,4,,,76,127
13732,note_off,4,0,0,,5,,,77,127
13919,note_off,187,0,0,,4,,,76,127
13919,note_off,0,0,0,,7,,,67,127
13919,note_off,0,0,0,,12,,,71,127
13919,note_off,0,0,0,,2,,,62,127
13919,note_off,0,0,0,,5,,,65,127
13920,note_on,1,0,0,,0,,,60,127
13920,note_on,0,0,0,,4,,,64,127
13920,note_on,0,0,0,,4,,,76,127
14111,note_off,191,0,0,,4,,,76,127
14112,note_on,1,0,0,,2,,,74,127
14303,note_off,191,0,0,,2,,,74,127
14303,note_off,0,0,0,,4,,,64,127
14303,note_off,0,0,0,,0,,,60,127
14304,note_on,1,0,0,,2,,,62,127
14304,note_on,0,0,0,,5,,,65,127
14304,note_on,0,0,0,,2,,,74,127
14495,note_off,191,0,0,,2,,,74,127
14496,note_on,1,0,0,,0,,,72,127
14687,note_off,191,0,0,,0,,,72,127
14687,note_off,0,0,0,,5,,,65,127
14687,note_off,0,0,0,,2,,,62,127
14688,note_on,1,0,0,,4,,,64,127
14688,note_on,0,0,0,,7,,,67,127
14688,note_on,0,0,0,,0,,,72,127
14879,note_off,191,0,0,,0,,,72,127
14880,note_on,1,0,0,,11,,,70,127
15071,note_off,191,0,0,,11,,,70,127
15071,note_off,0,0,0,,4,,,64,127
15072,note_on,1,0,0,,0,,,60,127
15072,note_on,0,0,0,,0,,,72,127
15120,note_on,48,0,0,,11,,,70,127
15124,note_off,4,0,0,,0,,,72,127
15168,note_on,44,0,0,,0,,,72,127
15172,note_off,4,0,0,,11,,,70,127
15216,note_on,44,0,0,,11,,,70,127
15220,note_off,4,0,0,,0,,,72,127
15264,note_on,44,0,0,,10,,,69,127
15268,note_off,4,0,0,,11,,,70,127
15455,note_off,187,0,0,,10,,,69,127
15455,note_off,0,0,0,,0,,,60,127
15455,note_off,0,0,0,,7,,,67,127
15456,note_on,1,0,0,,5,,,53,127
15456,note_on,0,0,0,,5,,,65,127
15456,note_on,0,0,0,,10,,,69,127
15647,note_off,191,0,0,,5,,,65,127
15648,note_on,1,0,0,,3,,,63,127
15839,note_off,191,0,0,,3,,,63,127
15839,note_off,0,0,0,,10,,,69,127
15840,note_on,1,0,0,,3,,,63,127
15840,note_on,0,0,0,,5,,,77,127
16031,note_off,191,0,0,,3,,,63,127
16032,note_on,1,0,0,,2,,,62,127
16223,note_off,191,0,0,,2,,,62,127
16223,note_off,0,0,0,,5,,,53,127
16224,note_on,1,0,0,,8,,,56,127
16224,note_on,0,0,0,,2,,,62,127
16415,note_off,191,0,0,,2,,,62,127
16416,note_on,1,0,0,,0,,,60,127
16540,note_off,124,0,0,,5,,,77,127
16607,note_off,67,0,0,,0,,,60,127
16608,note_on,1,0,0,,0,,,60,127
16608,note_on,0,0,0,,6,,,78,127
16703,note_off,95,0,0,,6,,,78,127
16704,note_on,1,0,0,,7,,,79,127
16752,note_on,48,0,0,,6,,,78,127
16756,note_off,4,0,0,,7,,,79,127
16799,note_off,43,0,0,,0,,,60,127
16800,note_on,1,0,0,,12,,,59,127
16800,note_on,0,0,0,,7,,,79,127
16804,note_off,4,0,0,,6,,,78,127
16848,note_on,44,0,0,,6,,,78,127
16852,note_off,4,0,0,,7,,,79,127
16896,note_on,44,0,0,,4,,,76,127
16900,note_off,4,0,0,,6,,,78,127
16944,note_on,44,0,0,,6,,,78,127
16948,note_off,4,0,0,,4,,,76,127
16991,note_off,43,0,0,,12,,,59,127
16991,note_off,0,0,0,,8,,,56,127
16992,note_on,1,0,0,,12,,,59,127
16992,note_on,0,0,0,,7,,,55,127
16992,note_on,0,0,0,,7,,,79,127
16996,note_off,4,0,0,,6,,,78,127
17183,note_off,187,0,0,,7,,,79,127
17184,note_on,1,0,0,,5,,,77,127
17375,note_off,191,0,0,,5,,,77,127
17375,note_off,0,0,0,,12,,,59,127
17376,note_on,1,0,0,,2,,,62,127
17376,note_on,0,0,0,,5,,,77,127
17567,note_off,191,0,0,,5,,,77,127
17568,note_on,1,0,0,,3,,,75,127
17759,note_off,191,0,0,,3,,,75,127
17759,note_off,0,0,0,,2,,,62,127
17759,note_off,0,0,0,,7,,,55,127
17760,note_on,1,0,0,,3,,,63,127
17760,note_on,0,0,0,,7,,,55,127
17760,note_on,0,0,0,,3,,,75,127
17951,note_off,191,0,0,,3,,,75,127
17952,note_on,1,0,0,,2,,,74,127
18143,note_off,191,0,0,,2,,,74,127
18143,note_off,0,0,0,,3,,,63,127
18144,note_on,1,0,0,,6,,,66,127
18144,note_on,0,0,0,,2,,,74,127
18335,note_off,191,0,0,,2,,,74,127
18336,note_on,1,0,0,,0,,,72,127
18527,note_off,191,0,0,,0,,,72,127
18527,note_off,0,0,0,,6,,,66,127
18527,note_off,0,0,0,,7,,,55,127
18528,note_on,1,0,0,,7,,,55,127
18528,note_on,0,0,0,,7,,,67,127
18528,note_on,0,0,0,,12,,,71,127
18719,note_off,191,0,0,,7,,,67,127
18720,note_on,1,0,0,,5,,,65,127
18911,note_off,191,0,0,,5,,,65,127
18911,note_off,0,0,0,,12,,,71,127
18912,note_on,1,0,0,,5,,,65,127
18912,note_on,0,0,0,,7,,,79,127
19103,note_off,191,0,0,,5,,,65,127
19104,note_on,1,0,0,,4,,,64,127
19295,note_off,191,0,0,,4,,,64,127
19295,note_off,0,0,0,,7,,,55,127
19296,note_on,1,0,0,,11,,,58,127
19296,note_on,0,0,0,,4,,,64,127
19487,note_off,191,0,0,,4,,,64,127
19488,note_on,1,0,0,,2,,,62,127
19612,note_off,124,0,0,,7,,,79,127
19679,note_off,67,0,0,,2,,,62,127
19680,note_on,1,0,0,,2,,,62,127
19680,note_on,0,0,0,,8,,,80,127
19775,note_off,95,0,0,,8,,,80,127
19776,note_on,1,0,0,,10,,,81,127
19824,note_on,48,0,0,,8,,,80,127
19828,note_off,4,0,0,,10,,,81,127
19871,note_off,43,0,0,,2,,,62,127
19872,note_on,1,0,0,,1,,,61,127
19872,note_on,0,0,0,,10,,,81,127
19876,note_off,4,0,0,,8,,,80,127
19920,note_on,44,0,0,,8,,,80,127
19924,note_off,4,0,0,,10,,,81,127
19968,note_on,44,0,0,,6,,,78,127
19972,note_off,4,0,0,,8,,,80,127
20016,note_on,44,0,0,,8,,,80,127
20020,note_off,4,0,0,,6,,,78,127
20063,note_off,43,0,0,,1,,,61,127
20063,note_off,0,0,0,,11,,,58,127
20063,note_on,0,0,0,,10,,,81,127
20064,note_on,1,0,0,,1,,,61,127
20064,note_on,0,0,0,,10,,,57,127
20068,note_off,4,0,0,,8,,,80,127
20255,note_off,187,0,0,,10,,,81,127
20256,note_on,1,0,0,,7,,,79,127
20447,note_off,191,0,0,,7,,,79,127
20447,note_off,0,0,0,,1,,,61,127
20448,note_on,1,0,0,,4,,,64,127
20448,note_on,0,0,0,,7,,,79,127
20639,note_off,191,0,0,,7,,,79,127
20640,note_on,1,0,0,,5,,,77,127
20831,note_off,191,0,0,,5,,,77,127
20831,note_off,0,0,0,,4,,,64,127
20831,note_off,0,0,0,,10,,,57,127
20832,note_on,1,0,0,,10,,,57,127
20832,note_on,0,0,0,,5,,,65,127
20832,note_on,0,0,0,,5,,,77,127
21023,note_off,191,0,0,,5,,,77,127
21024,note_on,1,0,0,,4,,,76,127
21215,note_off,191,0,0,,4,,,76,127
21215,note_off,0,0,0,,5,,,65,127
21216,note_on,1,0,0,,8,,,68,127
21216,note_on,0,0,0,,4,,,76,127
21407,note_off,191,0,0,,4,,,76,127
21408,note_on,1,0,0,,2,,,74,127
21599,note_off,191,0,0,,2,,,74,127
21599,note_off,0,0,0,,8,,,68,127
21599,note_off,0,0,0,,10,,,57,127
21600,note_on,1,0,0,,10,,,57,127
21600,note_on,0,0,0,,10,,,69,127
21600,note_on,0,0,0,,1,,,73,127
21983,note_off,383,0,0,,1,,,73,127
21983,note_off,0,0,0,,10,,,69,127
21983,note_off,0,0,0,,10,,,57,127
21984,note_on,1,0,0,,5,,,53,127
21984,note_on,0,0,0,,2,,,62,127
21984,note_on,0,0,0,,10,,,69,127
22112,note_on,128,0,0,,1,,,73,127
22239,note_off,127,0,0,,1,,,73,127
22239,note_off,0,0,0,,10,,,69,127
22240,note_on,1,0,0,,2,,,74,127
22367,note_off,127,0,0,,2,,,74,127
22367,note_off,0,0,0,,2,,,62,127
22367,note_off,0,0,0,,5,,,53,127
22368,note_on,1,0,0,,7,,,55,127
22368,note_on,0,0,0,,4,,,64,127
22368,note_on,0,0,0,,12,,,71,127
22496,note_on,128,0,0,,2,,,74,127
22623,note_off,127,0,0,,2,,,74,127
22623,note_off,0,0,0,,12,,,71,127
22624,note_on,1,0,0,,4,,,76,127
22751,note_off,127,0,0,,4,,,76,127
22751,note_off,0,0,0,,4,,,64,127
22751,note_off,0,0,0,,7,,,55,127
22752,note_on,1,0,0,,10,,,57,127
22752,note_on,0,0,0,,5,,,65,127
22752,note_on,0,0,0,,1,,,73,127
22880,note_on,128,0,0,,4,,,76,127
23007,note_off,127,0,0,,4,,,76,127
23007,note_off,0,0,0,,1,,,73,127
23008,note_on,1,0,0,,5,,,77,127
23135,note_off,127,0,0,,5,,,77,127
23135,note_off,0,0,0,,5,,,65,127
23135,note_off,0,0,0,,10,,,57,127
23136,note_on,1,0,0,,12,,,59,127
23136,note_on,0,0,0,,7,,,67,127
23136,note_on,0,0,0,,2,,,74,127
23264,note_on,128,0,0,,5,,,77,127
23391,note_off,127,0,0,,5,,,77,127
23391,note_off,0,0,0,,2,,,74,127
23392,note_on,1,0,0,,7,,,79,127
23519,note_off,127,0,0,,7,,,79,127
23519,note_off,0,0,0,,7,,,67,127
23519,note_off,0,0,0,,12,,,59,127
23520,note_on,1,0,0,,1,,,61,127
23520,note_on,0,0,0,,10,,,69,127
23520,note_on,0,0,0,,4,,,76,127
23648,note_on,128,0,0,,7,,,79,127
23775,note_off,127,0,0,,7,,,79,127
23775,note_off,0,0,0,,4,,,76,127
23776,note_on,1,0,0,,10,,,81,127
23903,note_off,127,0,0,,10,,,81,127
23903,note_off,0,0,0,,10,,,69,127
23903,note_off,0,0,0,,1,,,61,127
23904,note_on,1,0,0,,2,,,62,127
23904,note_on,0,0,0,,10,,,69,127
23904,note_on,0,0,0,,5,,,77,127
23904,note_on,0,0,0,,7,,,79,127
24031,note_off,127,0,0,,7,,,79,127
24031,note_off,0,0,0,,5,,,77,127
24032,note_on,1,0,0,,4,,,76,127
24159,note_off,127,0,0,,4,,,76,127
24160,note_on,1,0,0,,2,,,74,127
24287,note_off,127,0,0,,10,,,69,127
24287,note_off,0,0,0,,2,,,62,127
24288,note_on,1,0,0,,5,,,41,127
24350,note_off,62,0,0,,2,,,74,127
24416,note_on,66,0,0,,1,,,49,127
24416,note_on,0,0,0,,4,,,76,127
24543,note_off,127,0,0,,4,,,76,127
24543,note_off,0,0,0,,1,,,49,127
24544,note_on,1,0,0,,2,,,50,127
24544,note_on,0,0,0,,2,,,74,127
24671,note_off,127,0,0,,2,,,50,127
24671,note_off,0,0,0,,5,,,41,127
24672,note_on,1,0,0,,7,,,43,127
24799,note_off,127,0,0,,2,,,74,127
24800,note_on,1,0,0,,2,,,50,127
24800,note_on,0,0,0,,5,,,77,127
24927,note_off,127,0,0,,5,,,77,127
24927,note_off,0,0,0,,2,,,50,127
24928,note_on,1,0,0,,4,,,52,127
24928,note_on,0,0,0,,4,,,76,127
25055,note_off,127,0,0,,4,,,52,127
25055,note_off,0,0,0,,7,,,43,127
25056,note_on,1,0,0,,10,,,45,127
25183,note_off,127,0,0,,4,,,76,127
25184,note_on,1,0,0,,4,,,52,127
25184,note_on,0,0,0,,7,,,79,127
25311,note_off,127,0,0,,7,,,79,127
25311,note_off,0,0,0,,4,,,52,127
25312,note_on,1,0,0,,5,,,53,127
25312,note_on,0,0,0,,5,,,77,127
25439,note_off,127,0,0,,5,,,53,127
25439,note_off,0,0,0,,10,,,45,127
25440,note_on,1,0,0,,12,,,47,127
25567,note_off,127,0,0,,5,,,77,127
25568,note_on,1,0,0,,5,,,53,127
25568,note_on,0,0,0,,10,,,81,127
25695,note_off,127,0,0,,10,,,81,127
25695,note_off,0,0,0,,5,,,53,127
25696,note_on,1,0,0,,7,,,55,127
25696,note_on,0,0,0,,7,,,79,127
25823,note_off,127,0,0,,7,,,55,127
25823,note_off,0,0,0,,12,,,47,127
25824,note_on,1,0,0,,1,,,49,127
25951,note_off,127,0,0,,7,,,79,127
25952,note_on,1,0,0,,7,,,55,127
25952,note_on,0,0,0,,11,,,82,127
26079,note_off,127,0,0,,11,,,82,127
26079,note_off,0,0,0,,7,,,55,127
26080,note_on,1,0,0,,10,,,57,127
26080,note_on,0,0,0,,10,,,81,127
26207,note_off,127,0,0,,10,,,57,127
26207,note_off,0,0,0,,1,,,49,127
26208,note_on,1,0,0,,2,,,50,127
26335,note_off,127,0,0,,10,,,81,127
26336,note_on,1,0,0,,10,,,57,127
26336,note_on,0,0,0,,0,,,84,127
26463,note_off,127,0,0,,0,,,84,127
26463,note_off,0,0,0,,10,,,57,127
26464,note_on,1,0,0,,11,,,58,127
26464,note_on,0,0,0,,11,,,82,127
26591,note_off,127,0,0,,11,,,58,127
26591,note_off,0,0,0,,2,,,50,127
26592,note_on,1,0,0,,4,,,52,127
26592,note_on,0,0,0,,7,,,55,127
26719,note_off,127,0,0,,11,,,82,127
26720,note_on,1,0,0,,2,,,86,127
26847,note_off,127,0,0,,2,,,86,127
26848,note_on,1,0,0,,1,,,85,127
26975,note_off,127,0,0,,7,,,55,127
26975,note_off,0,0,0,,4,,,52,127
26976,note_on,1,0,0,,5,,,53,127
26976,note_on,0,0,0,,2,,,62,127
26976,note_on,0,0,0,,10,,,57,127
27103,note_off,127,0,0,,1,,,85,127
27104,note_on,1,0,0,,2,,,86,127
27231,note_off,127,0,0,,2,,,86,127
27232,note_on,1,0,0,,10,,,81,127
27359,note_off,127,0,0,,10,,,81,127
27359,note_off,0,0,0,,10,,,57,127
27359,note_off,0,0,0,,2,,,62,127
27359,note_off,0,0,0,,5,,,53,127
27360,note_on,1,0,0,,7,,,55,127
27360,note_on,0,0,0,,4,,,64,127
27360,note_on,0,0,0,,0,,,84,127
27360,note_on,0,0,0,,11,,,82,127
27487,note_off,127,0,0,,11,,,82,127
27487,note_off,0,0,0,,0,,,84,127
27488,note_on,1,0,0,,10,,,81,127
27615,note_off,127,0,0,,10,,,81,127
27616,note_on,1,0,0,,7,,,79,127
27742,note_off,126,0,0,,7,,,79,127
27743,note_off,1,0,0,,4,,,64,127
27743,note_off,0,0,0,,7,,,55,127
27743,note_on,0,0,0,,5,,,77,127
27744,note_on,1,0,0,,5,,,65,127
27744,note_on,0,0,0,,10,,,57,127
27871,note_off,127,0,0,,5,,,77,127
27872,note_on,1,0,0,,4,,,76,127
27999,note_off,127,0,0,,4,,,76,127
28000,note_on,1,0,0,,5,,,77,127
28127,note_off,127,0,0,,5,,,77,127
28127,note_off,0,0,0,,10,,,57,127
28127,note_off,0,0,0,,5,,,65,127
28128,note_on,1,0,0,,10,,,57,127
28128,note_on,0,0,0,,7,,,67,127
28128,note_on,0,0,0,,4,,,64,127
28128,note_on,0,0,0,,7,,,79,127
28128,note_on,0,0,0,,10,,,81,127
28255,note_off,127,0,0,,10,,,81,127
28255,note_off,0,0,0,,7,,,79,127
28256,note_on,1,0,0,,5,,,77,127
28383,note_off,127,0,0,,5,,,77,127
28384,note_on,1,0,0,,4,,,76,127
28511,note_off,127,0,0,,4,,,76,127
28511,note_off,0,0,0,,4,,,64,127
28511,note_off,0,0,0,,7,,,67,127
28511,note_off,0,0,0,,10,,,57,127
28512,note_on,1,0,0,,2,,,50,127
28512,note_on,0,0,0,,2,,,74,127
28895,note_off,383,0,0,,2,,,74,127
28895,note_off,0,0,0,,2,,,50,127
28896,note_on,1,0,0,,7,,,79,127
28944,note_on,48,0,0,,5,,,77,127
28948,note_off,4,0,0,,7,,,79,127
28992,note_on,44,0,0,,7,,,79,127
28996,note_off,4,0,0,,5,,,77,127
29040,note_on,44,0,0,,5,,,77,127
29044,note_off,4,0,0,,7,,,79,127
29088,note_on,44,0,0,,7,,,79,127
29092,note_off,4,0,0,,5,,,77,127
29136,note_on,44,0,0,,5,,,77,127
29140,note_off,4,0,0,,7,,,79,127
29184,note_on,44,0,0,,4,,,76,127
29188,note_off,4,0,0,,5,,,77,127
29232,note_on,44,0,0,,2,,,74,127
29236,note_off,4,0,0,,4,,,76,127
29280,note_on,44,0,0,,10,,,81,127
29284,note_off,4,0,0,,2,,,74,127
29471,note_off,187,0,0,,10,,,81,127
29472,note_on,1,0,0,,5,,,77,127
29663,note_off,191,0,0,,5,,,77,127
29664,note_on,1,0,0,,5,,,65,127
29664,note_on,0,0,0,,2,,,62,127
29664,note_on,0,0,0,,4,,,76,127
29855,note_off,191,0,0,,4,,,76,127
29856,note_on,1,0,0,,2,,,74,127
30047,note_off,191,0,0,,2,,,74,127
30047,note_off,0,0,0,,2,,,62,127
30047,note_off,0,0,0,,5,,,65,127
30048,note_on,1,0,0,,4,,,64,127
30048,note_on,0,0,0,,1,,,61,127
30048,note_on,0,0,0,,10,,,69,127
30239,note_off,191,0,0,,10,,,69,127
30240,note_on,1,0,0,,10,,,69,127
30431,note_off,191,0,0,,10,,,69,127
30431,note_off,0,0,0,,1,,,61,127
30431,note_off,0,0,0,,4,,,64,127
30432,note_on,1,0,0,,5,,,65,127
30432,note_on,0,0,0,,2,,,62,127
30432,note_on,0,0,0,,7,,,79,127
30480,note_on,48,0,0,,5,,,77,127
30484,note_off,4,0,0,,7,,,79,127
30528,note_on,44,0,0,,7,,,79,127
30532,note_off,4,0,0,,5,,,77,127
30576,note_on,44,0,0,,5,,,77,127
30580,note_off,4,0,0,,7,,,79,127
30624,note_on,44,0,0,,7,,,79,127
30628,note_off,4,0,0,,5,,,77,127
30672,note_on,44,0,0,,5,,,77,127
30676,note_off,4,0,0,,7,,,79,127
30720,note_on,44,0,0,,4,,,76,127
30724,note_off,4,0,0,,5,,,77,127
30768,note_on,44,0,0,,2,,,74,127
30772,note_off,4,0,0,,4,,,76,127
30816,note_on,44,0,0,,10,,,81,127
30820,note_off,4,0,0,,2,,,74,127
31007,note_off,187,0,0,,10,,,81,127
31007,note_off,0,0,0,,2,,,62,127
31007,note_off,0,0,0,,5,,,65,127
31008,note_on,1,0,0,,5,,,77,127
31199,note_off,191,0,0,,5,,,77,127
31200,note_on,1,0,0,,5,,,65,127
31200,note_on,0,0,0,,2,,,62,127
31200,note_on,0,0,0,,4,,,76,127
31391,note_off,191,0,0,,4,,,76,127
31392,note_on,1,0,0,,2,,,74,127
31583,note_off,191,0,0,,2,,,74,127
31583,note_off,0,0,0,,2,,,62,127
31583,note_off,0,0,0,,5,,,65,127
31584,note_on,1,0,0,,4,,,64,127
31584,note_on,0,0,0,,1,,,61,127
31584,note_on,0,0,0,,10,,,69,127
31775,note_off,191,0,0,,10,,,69,127
31776,note_on,1,0,0,,10,,,69,127
31967,note_off,191,0,0,,10,,,69,127
31967,note_off,0,0,0,,1,,,61,127
31967,note_off,0,0,0,,4,,,64,127
31968,note_on,1,0,0,,5,,,65,127
31968,note_on,0,0,0,,2,,,62,127
31968,note_on,0,0,0,,7,,,79,127
32016,note_on,48,0,0,,5,,,77,127
32020,note_off,4,0,0,,7,,,79,127
32064,note_on,44,0,0,,7,,,79,127
32068,note_off,4,0,0,,5,,,77,127
32112,note_on,44,0,0,,5,,,77,127
32116,note_off,4,0,0,,7,,,79,127
32160,note_on,44,0,0,,7,,,79,127
32164,note_off,4,0,0,,5,,,77,127
32208,note_on,44,0,0,,5,,,77,127
32212,note_off,4,0,0,,7,,,79,127
32256,note_on,44,0,0,,4,,,76,127
32260,note_off,4,0,0,,5,,,77,127
32304,note_on,44,0,0,,2,,,74,127
32308,note_off,4,0,0,,4,,,76,127
32352,note_on,44,0,0,,2,,,86,127
32356,note_off,4,0,0,,2,,,74,127
32447,note_off,91,0,0,,2,,,86,127
32448,note_on,1,0,0,,10,,,81,127
32543,note_off,95,0,0,,10,,,81,127
32543,note_off,0,0,0,,2,,,62,127
32543,note_off,0,0,0,,5,,,65,127
32544,note_on,1,0,0,,5,,,77,127
32639,note_off,95,0,0,,5,,,77,127
32640,note_on,1,0,0,,2,,,74,127
32735,note_off,95,0,0,,2,,,74,127
32736,note_on,1,0,0,,5,,,41,127
32736,note_on,0,0,0,,5,,,53,127
32736,note_on,0,0,0,,10,,,69,127
32831,note_off,95,0,0,,10,,,69,127
32832,note_on,1,0,0,,5,,,65,127
32927,note_off,95,0,0,,5,,,65,127
32928,note_on,1,0,0,,2,,,62,127
33023,note_off,95,0,0,,2,,,62,127
33024,note_on,1,0,0,,10,,,69,127
33119,note_off,95,0,0,,10,,,69,127
33119,note_off,0,0,0,,5,,,53,127
33119,note_off,0,0,0,,5,,,41,127
33120,note_on,1,0,0,,7,,,43,127
33120,note_on,0,0,0,,7,,,55,127
33120,note_on,0,0,0,,11,,,70,127
33311,note_off,191,0,0,,11,,,70,127
33312,note_on,1,0,0,,7,,,79,127
33503,note_off,191,0,0,,7,,,55,127
33503,note_off,0,0,0,,7,,,43,127
33504,note_on,1,0,0,,7,,,43,127
33504,note_on,0,0,0,,7,,,55,127
33599,note_off,95,0,0,,7,,,79,127
33600,note_on,1,0,0,,5,,,77,127
33695,note_off,95,0,0,,5,,,77,127
33696,note_on,1,0,0,,4,,,76,127
33791,note_off,95,0,0,,4,,,76,127
33792,note_on,1,0,0,,2,,,74,127
33887,note_off,95,0,0,,7,,,55,127
33887,note_off,0,0,0,,7,,,43,127
33888,note_on,1,0,0,,10,,,45,127
33888,note_on,0,0,0,,10,,,57,127
33952,note_off,64,0,0,,2,,,74,127
33952,note_on,0,0,0,,4,,,76,127
34015,note_off,63,0,0,,4,,,76,127
34016,note_on,1,0,0,,2,,,74,127
34079,note_off,63,0,0,,2,,,74,127
34080,note_on,1,0,0,,1,,,73,127
34143,note_off,63,0,0,,1,,,73,127
34144,note_on,1,0,0,,2,,,74,127
34207,note_off,63,0,0,,2,,,74,127
34208,note_on,1,0,0,,4,,,76,127
34271,note_off,63,0,0,,4,,,76,127
34271,note_off,0,0,0,,10,,,57,127
34271,note_off,0,0,0,,10,,,45,127
34272,note_on,1,0,0,,10,,,45,127
34272,note_on,0,0,0,,10,,,57,127
34272,note_on,0,0,0,,5,,,77,127
34320,note_on,48,0,0,,4,,,76,127
34324,note_off,4,0,0,,5,,,77,127
34368,note_on,44,0,0,,5,,,77,127
34372,note_off,4,0,0,,4,,,76,127
34416,note_on,44,0,0,,4,,,76,127
34420,note_off,4,0,0,,5,,,77,127
34464,note_on,44,0,0,,5,,,77,127
34468,note_off,4,0,0,,4,,,76,127
34512,note_on,44,0,0,,4,,,76,127
34516,note_off,4,0,0,,5,,,77,127
34560,note_on,44,0,0,,2,,,74,127
34564,note_off,4,0,0,,4,,,76,127
34655,note_off,91,0,0,,2,,,74,127
34655,note_off,0,0,0,,10,,,57,127
34655,note_off,0,0,0,,10,,,45,127
34656,note_on,1,0,0,,2,,,38,127
34656,note_on,0,0,0,,2,,,50,127
34656,note_on,0,0,0,,2,,,74,127
35039,note_off,383,0,0,,2,,,74,127
35039,note_off,0,0,0,,2,,,50,127
35039,note_off,0,0,0,,2,,,38,127
35040,note_on,1,0,0,,7,,,67,127
35040,note_on,0,0,0,,10,,,81,127
35088,note_on,48,0,0,,5,,,65,127
35092,note_off,4,0,0,,7,,,67,127
35136,note_on,44,0,0,,7,,,67,127
35140,note_off,4,0,0,,5,,,65,127
35184,note_on,44,0,0,,5,,,65,127
35188,note_off,4,0,0,,7,,,67,127
35232,note_on,44,0,0,,7,,,67,127
35236,note_off,4,0,0,,5,,,65,127
35280,note_on,44,0,0,,5,,,65,127
35284,note_off,4,0,0,,7,,,67,127
35328,note_on,44,0,0,,4,,,64,127
35332,note_off,4,0,0,,5,,,65,127
35376,note_on,44,0,0,,2,,,62,127
35380,note_off,4,0,0,,4,,,64,127
35424,note_on,44,0,0,,10,,,69,127
35428,note_off,4,0,0,,2,,,62,127
35519,note_off,91,0,0,,10,,,69,127
35520,note_on,1,0,0,,5,,,65,127
35615,note_off,95,0,0,,5,,,65,127
35616,note_on,1,0,0,,2,,,62,127
35711,note_off,95,0,0,,2,,,62,127
35712,note_on,1,0,0,,10,,,57,127
35807,note_off,95,0,0,,10,,,57,127
35807,note_off,0,0,0,,10,,,81,127
35808,note_on,1,0,0,,5,,,53,127
35808,note_on,0,0,0,,5,,,77,127
35808,note_on,0,0,0,,2,,,74,127
35903,note_off,95,0,0,,5,,,53,127
35904,note_on,1,0,0,,2,,,50,127
35999,note_off,95,0,0,,2,,,50,127
36000,note_on,1,0,0,,10,,,45,127
36095,note_off,95,0,0,,10,,,45,127
36096,note_on,1,0,0,,5,,,41,127
36191,note_off,95,0,0,,5,,,41,127
36191,note_off,0,0,0,,2,,,74,127
36191,note_off,0,0,0,,5,,,77,127
36192,note_on,1,0,0,,10,,,33,127
36192,note_on,0,0,0,,1,,,73,127
36192,note_on,0,0,0,,4,,,76,127
36575,note_off,383,0,0,,4,,,76,127
36575,note_off,0,0,0,,1,,,73,127
36575,note_off,0,0,0,,10,,,33,127
36576,note_on,1,0,0,,7,,,67,127
36576,note_on,0,0,0,,10,,,81,127
36624,note_on,48,0,0,,5,,,65,127
36628,note_off,4,0,0,,7,,,67,127
36672,note_on,44,0,0,,7,,,67,127
36676,note_off,4,0,0,,5,,,65,127
36720,note_on,44,0,0,,5,,,65,127
36724,note_off,4,0,0,,7,,,67,127
36768,note_on,44,0,0,,7,,,67,127
36772,note_off,4,0,0,,5,,,65,127
36816,note_on,44,0,0,,5,,,65,127
36820,note_off,4,0,0,,7,,,67,127
36864,note_on,44,0,0,,4,,,64,127
36868,note_off,4,0,0,,5,,,65,127
36912,note_on,44,0,0,,2,,,62,127
36916,note_off,4,0,0,,4,,,64,127
36960,note_on,44,0,0,,10,,,69,127
36964,note_off,4,0,0,,2,,,62,127
37055,note_off,91,0,0,,10,,,69,127
37056,note_on,1,0,0,,5,,,65,127
37151,note_off,95,0,0,,5,,,65,127
37152,note_on,1,0,0,,2,,,62,127
37247,note_off,95,0,0,,2,,,62,127
37248,note_on,1,0,0,,10,,,57,127
37343,note_off,95,0,0,,10,,,57,127
37343,note_off,0,0,0,,10,,,81,127
37344,note_on,1,0,0,,5,,,53,127
37344,note_on,0,0,0,,5,,,77,127
37344,note_on,0,0,0,,2,,,74,127
37439,note_off,95,0,0,,5,,,53,127
37440,note_on,1,0,0,,2,,,50,127
37535,note_off,95,0,0,,2,,,50,127
37536,note_on,1,0,0,,10,,,45,127
37631,note_off,95,0,0,,10,,,45,127
37632,note_on,1,0,0,,5,,,41,127
37727,note_off,95,0,0,,5,,,41,127
37727,note_off,0,0,0,,2,,,74,127
37727,note_off,0,0,0,,5,,,77,127
37728,note_on,1,0,0,,10,,,33,127
37728,note_on,0,0,0,,1,,,73,127
37728,note_on,0,0,0,,4,,,76,127
38111,note_off,383,0,0,,4,,,76,127
38111,note_off,0,0,0,,1,,,73,127
38111,note_off,0,0,0,,10,,,33,127
38112,note_on,1,0,0,,7,,,67,127
38112,note_on,0,0,0,,10,,,81,127
38160,note_on,48,0,0,,5,,,65,127
38164,note_off,4,0,0,,7,,,67,127
38208,note_on,44,0,0,,7,,,67,127
38212,note_off,4,0,0,,5,,,65,127
38256,note_on,44,0,0,,5,,,65,127
38260,note_off,4,0,0,,7,,,67,127
38304,note_on,44,0,0,,7,,,67,127
38308,note_off,4,0,0,,5,,,65,127
38352,note_on,44,0,0,,5,,,65,127
38356,note_off,4,0,0,,7,,,67,127
38400,note_on,44,0,0,,4,,,64,127
38404,note_off,4,0,0,,5,,,65,127
38448,note_on,44,0,0,,2,,,62,127
38452,note_off,4,0,0,,4,,,64,127
38495,note_off,43,0,0,,10,,,81,127
38496,note_on,1,0,0,,7,,,67,127
38496,note_on,0,0,0,,11,,,82,127
38496,note_on,0,0,0,,2,,,74,127
38500,note_off,4,0,0,,2,,,62,127
38591,note_off,91,0,0,,7,,,67,127
38592,note_on,1,0,0,,2,,,62,127
38687,note_off,95,0,0,,2,,,62,127
38688,note_on,1,0,0,,11,,,58,127
38783,note_off,95,0,0,,11,,,58,127
38784,note_on,1,0,0,,7,,,55,127
38879,note_off,95,0,0,,7,,,55,127
38880,note_on,1,0,0,,2,,,50,127
38975,note_off,95,0,0,,2,,,50,127
38976,note_on,1,0,0,,11,,,46,127
39071,note_off,95,0,0,,11,,,46,127
39072,note_on,1,0,0,,7,,,43,127
39167,note_off,95,0,0,,7,,,43,127
39168,note_on,1,0,0,,2,,,38,127
39263,note_off,95,0,0,,2,,,38,127
39264,note_on,1,0,0,,7,,,31,127
39455,note_off,191,0,0,,2,,,74,127
39455,note_off,0,0,0,,11,,,82,127
39456,note_on,1,0,0,,10,,,81,127
39551,note_off,95,0,0,,10,,,81,127
39552,note_on,1,0,0,,7,,,79,127
39647,note_off,95,0,0,,7,,,79,127
39647,note_off,0,0,0,,7,,,31,127
39648,note_on,1,0,0,,7,,,43,127
39648,note_on,0,0,0,,5,,,77,127
39839,note_off,191,0,0,,5,,,77,127
39840,note_on,1,0,0,,4,,,76,127
39935,note_off,95,0,0,,4,,,76,127
39936,note_on,1,0,0,,2,,,74,127
40031,note_off,95,0,0,,2,,,74,127
40031,note_off,0,0,0,,7,,,43,127
40032,note_on,1,0,0,,10,,,45,127
40032,note_on,0,0,0,,10,,,69,127
40223,note_off,191,0,0,,10,,,69,127
40224,note_on,1,0,0,,7,,,79,127
40415,note_off,191,0,0,,7,,,79,127
40415,note_off,0,0,0,,10,,,45,127
40416,note_on,1,0,0,,10,,,45,127
40416,note_on,0,0,0,,5,,,77,127
40464,note_on,48,0,0,,4,,,76,127
40468,note_off,4,0,0,,5,,,77,127
40512,note_on,44,0,0,,5,,,77,127
40516,note_off,4,0,0,,4,,,76,127
40560,note_on,44,0,0,,4,,,76,127
40564,note_off,4,0,0,,5,,,77,127
40608,note_on,44,0,0,,5,,,77,127
40612,note_off,4,0,0,,4,,,76,127
40656,note_on,44,0,0,,4,,,76,127
40660,note_off,4,0,0,,5,,,77,127
40704,note_on,44,0,0,,2,,,74,127
40708,note_off,4,0,0,,4,,,76,127
40752,note_on,44,0,0,,4,,,76,127
40756,note_off,4,0,0,,2,,,74,127
40799,note_off,43,0,0,,10,,,45,127
40800,note_on,1,0,0,,2,,,38,127
40800,note_on,0,0,0,,2,,,74,127
40804,note_off,4,0,0,,4,,,76,127
41140,note_off,336,0,0,,2,,,38,127
41183,note_off,43,0,0,,2,,,74,127
41184,note_on,1,0,0,,7,,,55,127
41184,note_on,0,0,0,,2,,,62,127
41184,note_on,0,0,0,,7,,,79,127
41184,note_on,0,0,0,,11,,,70,127
41375,note_off,191,0,0,,7,,,79,127
41376,note_on,1,0,0,,5,,,77,127
41471,note_off,95,0,0,,5,,,77,127
41472,note_on,1,0,0,,4,,,76,127
41567,note_off,95,0,0,,4,,,76,127
41567,note_off,0,0,0,,11,,,70,127
41567,note_off,0,0,0,,2,,,62,127
41567,note_off,0,0,0,,7,,,55,127
41568,note_on,1,0,0,,7,,,55,127
41568,note_on,0,0,0,,2,,,62,127
41568,note_on,0,0,0,,7,,,79,127
41568,note_on,0,0,0,,11,,,70,127
41759,note_off,191,0,0,,7,,,79,127
41760,note_on,1,0,0,,5,,,77,127
41855,note_off,95,0,0,,5,,,77,127
41856,note_on,1,0,0,,4,,,76,127
41951,note_off,95,0,0,,4,,,76,127
41951,note_off,0,0,0,,11,,,70,127
41951,note_off,0,0,0,,2,,,62,127
41951,note_off,0,0,0,,7,,,55,127
41952,note_on,1,0,0,,1,,,61,127
41952,note_on,0,0,0,,10,,,57,127
41952,note_on,0,0,0,,10,,,69,127
41952,note_on,0,0,0,,7,,,79,127
42143,note_off,191,0,0,,7,,,79,127
42144,note_on,1,0,0,,5,,,77,127
42239,note_off,95,0,0,,5,,,77,127
42240,note_on,1,0,0,,4,,,76,127
42335,note_off,95,0,0,,4,,,76,127
42335,note_off,0,0,0,,10,,,69,127
42335,note_off,0,0,0,,10,,,57,127
42335,note_off,0,0,0,,1,,,61,127
42336,note_on,1,0,0,,11,,,58,127
42336,note_on,0,0,0,,2,,,62,127
42336,note_on,0,0,0,,7,,,79,127
42336,note_on,0,0,0,,7,,,67,127
42527,note_off,191,0,0,,7,,,79,127
42528,note_on,1,0,0,,5,,,77,127
42623,note_off,95,0,0,,5,,,77,127
42624,note_on,1,0,0,,4,,,76,127
42719,note_off,95,0,0,,4,,,76,127
42719,note_off,0,0,0,,7,,,67,127
42719,note_off,0,0,0,,2,,,62,127
42719,note_off,0,0,0,,11,,,58,127
42720,note_on,1,0,0,,7,,,55,127
42720,note_on,0,0,0,,2,,,74,127
42720,note_on,0,0,0,,11,,,82,127
42911,note_off,191,0,0,,11,,,82,127
42912,note_on,1,0,0,,10,,,81,127
43007,note_off,95,0,0,,10,,,81,127
43008,note_on,1,0,0,,7,,,79,127
43103,note_off,95,0,0,,7,,,79,127
43103,note_off,0,0,0,,7,,,55,127
43104,note_on,1,0,0,,10,,,57,127
43104,note_on,0,0,0,,5,,,77,127
43104,note_on,0,0,0,,7,,,79,127
43295,note_off,191,0,0,,7,,,79,127
43295,note_off,0,0,0,,5,,,77,127
43296,note_on,1,0,0,,4,,,76,127
43391,note_off,95,0,0,,4,,,76,127
43392,note_on,1,0,0,,5,,,77,127
43487,note_off,95,0,0,,5,,,77,127
43487,note_off,0,0,0,,10,,,57,127
43487,note_off,0,0,0,,2,,,74,127
43488,note_on,1,0,0,,10,,,45,127
43488,note_on,0,0,0,,7,,,79,127
43488,note_on,0,0,0,,1,,,73,127
43679,note_off,191,0,0,,7,,,79,127
43680,note_on,1,0,0,,5,,,77,127
43775,note_off,95,0,0,,5,,,77,127
43776,note_on,1,0,0,,4,,,76,127
43871,note_off,95,0,0,,4,,,76,127
43871,note_off,0,0,0,,1,,,73,127
43871,note_off,0,0,0,,10,,,45,127
43872,note_on,1,0,0,,2,,,50,127
43872,note_on,0,0,0,,2,,,74,127
44255,note_off,383,0,0,,2,,,74,127
44255,note_off,0,0,0,,2,,,50,127
44256,note_on,1,0,0,,7,,,55,127
44256,note_on,0,0,0,,2,,,62,127
44256,note_on,0,0,0,,11,,,70,127
44256,note_on,0,0,0,,7,,,79,127
44447,note_off,191,0,0,,7,,,79,127
44448,note_on,1,0,0,,5,,,77,127
44543,note_off,95,0,0,,5,,,77,127
44544,note_on,1,0,0,,4,,,76,127
44639,note_off,95,0,0,,4,,,76,127
44639,note_off,0,0,0,,11,,,70,127
44639,note_off,0,0,0,,2,,,62,127
44639,note_off,0,0,0,,7,,,55,127
44640,note_on,1,0,0,,7,,,55,127
44640,note_on,0,0,0,,2,,,62,127
44640,note_on,0,0,0,,7,,,79,127
44640,note_on,0,0,0,,11,,,70,127
44831,note_off,191,0,0,,7,,,79,127
44832,note_on,1,0,0,,5,,,77,127
44927,note_off,95,0,0,,5,,,77,127
44928,note_on,1,0,0,,4,,,76,127
45023,note_off,95,0,0,,4,,,76,127
45023,note_off,0,0,0,,11,,,70,127
45023,note_off,0,0,0,,2,,,62,127
45023,note_off,0,0,0,,7,,,55,127
45024,note_on,1,0,0,,1,,,61,127
45024,note_on,0,0,0,,10,,,57,127
45024,note_on,0,0,0,,7,,,79,127
45024,note_on,0,0,0,,10,,,69,127
45215,note_off,191,0,0,,7,,,79,127
45216,note_on,1,0,0,,5,,,77,127
45311,note_off,95,0,0,,5,,,77,127
45312,note_on,1,0,0,,4,,,76,127
45407,note_off,95,0,0,,4,,,76,127
45407,note_off,0,0,0,,10,,,69,127
45407,note_off,0,0,0,,10,,,57,127
45407,note_off,0,0,0,,1,,,61,127
45408,note_on,1,0,0,,2,,,62,127
45408,note_on,0,0,0,,11,,,58,127
45408,note_on,0,0,0,,7,,,67,127
45408,note_on,0,0,0,,7,,,79,127
45599,note_off,191,0,0,,7,,,79,127
45600,note_on,1,0,0,,5,,,77,127
45695,note_off,95,0,0,,5,,,77,127
45696,note_on,1,0,0,,4,,,76,127
45791,note_off,95,0,0,,4,,,76,127
45791,note_off,0,0,0,,7,,,67,127
45791,note_off,0,0,0,,11,,,58,127
45791,note_off,0,0,0,,2,,,62,127
45792,note_on,1,0,0,,7,,,55,127
45792,note_on,0,0,0,,2,,,74,127
45792,note_on,0,0,0,,11,,,82,127
45983,note_off,191,0,0,,11,,,82,127
45984,note_on,1,0,0,,10,,,81,127
46079,note_off,95,0,0,,10,,,81,127
46080,note_on,1,0,0,,7,,,79,127
46175,note_off,95,0,0,,7,,,55,127
46176,note_on,1,0,0,,10,,,57,127
46271,note_off,95,0,0,,7,,,79,127
46272,note_on,1,0,0,,5,,,77,127
46367,note_off,95,0,0,,5,,,77,127
46368,note_on,1,0,0,,4,,,76,127
46463,note_off,95,0,0,,4,,,76,127
46464,note_on,1,0,0,,5,,,77,127
46559,note_off,95,0,0,,5,,,77,127
46559,note_off,0,0,0,,10,,,57,127
46559,note_off,0,0,0,,2,,,74,127
46560,note_on,1,0,0,,10,,,45,127
46560,note_on,0,0,0,,1,,,73,127
46560,note_on,0,0,0,,7,,,79,127
46751,note_off,191,0,0,,7,,,79,127
46752,note_on,1,0,0,,5,,,77,127
46847,note_off,95,0,0,,5,,,77,127
46848,note_on,1,0,0,,4,,,76,127
46943,note_off,95,0,0,,4,,,76,127
46943,note_off,0,0,0,,1,,,73,127
46943,note_off,0,0,0,,10,,,45,127
46944,note_on,1,0,0,,2,,,50,127
46944,note_on,0,0,0,,2,,,74,127
47136,note_on,192,0,0,,10,,,69,127
47231,note_off,95,0,0,,10,,,69,127
47232,note_on,1,0,0,,0,,,72,127
47327,note_off,95,0,0,,0,,,72,127
47327,note_off,0,0,0,,2,,,74,127
47327,note_off,0,0,0,,2,,,50,127
47328,note_on,1,0,0,,7,,,43,127
47328,note_on,0,0,0,,7,,,55,127
47328,note_on,0,0,0,,2,,,62,127
47328,note_on,0,0,0,,0,,,72,127
47423,note_off,95,0,0,,0,,,72,127
47424,note_on,1,0,0,,11,,,70,127
47519,note_off,95,0,0,,11,,,70,127
47520,note_on,1,0,0,,10,,,69,127
47615,note_off,95,0,0,,10,,,69,127
47616,note_on,1,0,0,,7,,,67,127
47711,note_off,95,0,0,,7,,,67,127
47711,note_off,0,0,0,,7,,,55,127
47711,note_off,0,0,0,,7,,,43,127
47712,note_on,1,0,0,,10,,,45,127
47712,note_on,0,0,0,,10,,,57,127
47712,note_on,0,0,0,,5,,,65,127
47903,note_off,191,0,0,,5,,,65,127
47904,note_on,1,0,0,,4,,,64,127
47999,note_off,95,0,0,,4,,,64,127
48000,note_on,1,0,0,,5,,,65,127
48095,note_off,95,0,0,,5,,,65,127
48095,note_off,0,0,0,,10,,,57,127
48095,note_off,0,0,0,,10,,,45,127
48095,note_off,0,0,0,,2,,,62,127
48096,note_on,1,0,0,,10,,,45,127
48096,note_on,0,0,0,,7,,,67,127
48096,note_on,0,0,0,,1,,,61,127
48287,note_off,191,0,0,,7,,,67,127
48288,note_on,1,0,0,,5,,,65,127
48383,note_off,95,0,0,,5,,,65,127
48384,note_on,1,0,0,,4,,,64,127
48479,note_off,95,0,0,,4,,,64,127
48479,note_off,0,0,0,,1,,,61,127
48479,note_off,0,0,0,,10,,,45,127
48480,note_on,1,0,0,,2,,,38,127
48480,note_on,0,0,0,,2,,,62,127
48863,note_off,383,0,0,,2,,,62,127
48864,note_on,1,0,0,,7,,,67,127
48912,note_on,48,0,0,,5,,,65,127
48916,note_off,4,0,0,,7,,,67,127
48960,note_on,44,0,0,,7,,,67,127
48964,note_off,4,0,0,,5,,,65,127
49008,note_on,44,0,0,,5,,,65,127
49012,note_off,4,0,0,,7,,,67,127
49056,note_on,44,0,0,,7,,,67,127
49060,note_off,4,0,0,,5,,,65,127
49104,note_on,44,0,0,,5,,,65,127
49108,note_off,4,0,0,,7,,,67,127
49152,note_on,44,0,0,,4,,,64,127
49156,note_off,4,0,0,,5,,,65,127
49200,note_on,44,0,0,,5,,,65,127
49204,note_off,4,0,0,,4,,,64,127
49247,note_off,43,0,0,,2,,,38,127
49248,note_on,1,0,0,,5,,,77,127
49252,note_off,4,0,0,,5,,,65,127
49439,note_off,187,0,0,,5,,,77,127
49440,note_on,1,0,0,,3,,,75,127
49631,note_off,191,0,0,,3,,,75,127
49632,note_on,1,0,0,,7,,,55,127
49632,note_on,0,0,0,,3,,,75,127
49680,note_on,48,0,0,,5,,,53,127
49684,note_off,4,0,0,,7,,,55,127
49728,note_on,44,0,0,,7,,,55,127
49732,note_off,4,0,0,,5,,,53,127
49776,note_on,44,0,0,,5,,,53,127
49780,note_off,4,0,0,,7,,,55,127
49823,note_off,43,0,0,,3,,,75,127
49824,note_on,1,0,0,,7,,,55,127
49824,note_on,0,0,0,,2,,,74,127
49828,note_off,4,0,0,,5,,,53,127
49872,note_on,44,0,0,,5,,,53,127
49876,note_off,4,0,0,,7,,,55,127
49920,note_on,44,0,0,,4,,,52,127
49924,note_off,4,0,0,,5,,,53,127
49968,note_on,44,0,0,,5,,,53,127
49972,note_off,4,0,0,,4,,,52,127
50014,note_off,42,0,0,,5,,,53,127
50015,note_off,1,0,0,,2,,,74,127
50016,note_on,1,0,0,,5,,,53,127
50016,note_on,0,0,0,,5,,,65,127
50016,note_on,0,0,0,,2,,,74,127
50207,note_off,191,0,0,,2,,,74,127
50207,note_off,0,0,0,,5,,,65,127
50208,note_on,1,0,0,,3,,,63,127
50208,note_on,0,0,0,,0,,,72,127
50399,note_off,191,0,0,,0,,,72,127
50399,note_off,0,0,0,,3,,,63,127
50399,note_off,0,0,0,,5,,,53,127
50400,note_on,1,0,0,,3,,,63,127
50400,note_on,0,0,0,,5,,,53,127
50400,note_on,0,0,0,,0,,,72,127
50591,note_off,191,0,0,,0,,,72,127
50591,note_off,0,0,0,,3,,,63,127
50592,note_on,1,0,0,,2,,,62,127
50592,note_on,0,0,0,,12,,,71,127
50783,note_off,191,0,0,,12,,,71,127
50783,note_off,0,0,0,,2,,,62,127
50783,note_off,0,0,0,,5,,,53,127
50784,note_on,1,0,0,,7,,,55,127
50784,note_on,0,0,0,,2,,,62,127
50784,note_on,0,0,0,,12,,,71,127
51167,note_off,383,0,0,,12,,,71,127
51167,note_off,0,0,0,,2,,,62,127
51167,note_off,0,0,0,,7,,,55,127
51168,note_on,1,0,0,,0,,,60,127
51168,note_on,0,0,0,,8,,,56,127
51168,note_on,0,0,0,,0,,,72,127
51263,note_off,95,0,0,,0,,,72,127
51264,note_on,1,0,0,,2,,,74,127
51312,note_on,48,0,0,,0,,,72,127
51316,note_off,4,0,0,,2,,,74,127
51360,note_on,44,0,0,,2,,,74,127
51364,note_off,4,0,0,,0,,,72,127
51408,note_on,44,0,0,,0,,,72,127
51412,note_off,4,0,0,,2,,,74,127
51456,note_on,44,0,0,,12,,,71,127
51460,note_off,4,0,0,,0,,,72,127
51504,note_on,44,0,0,,0,,,72,127
51508,note_off,4,0,0,,12,,,71,127
51551,note_off,43,0,0,,8,,,56,127
51551,note_off,0,0,0,,0,,,60,127
51552,note_on,1,0,0,,7,,,55,127
51552,note_on,0,0,0,,2,,,62,127
51552,note_on,0,0,0,,2,,,74,127
51556,note_off,4,0,0,,0,,,72,127
51935,note_off,379,0,0,,2,,,74,127
51936,note_on,1,0,0,,8,,,68,127
51984,note_on,48,0,0,,7,,,67,127
51988,note_off,4,0,0,,8,,,68,127
52032,note_on,44,0,0,,8,,,68,127
52036,note_off,4,0,0,,7,,,67,127
52080,note_on,44,0,0,,7,,,67,127
52084,note_off,4,0,0,,8,,,68,127
52127,note_off,43,0,0,,2,,,62,127
52127,note_off,0,0,0,,7,,,55,127
52128,note_on,1,0,0,,8,,,68,127
52132,note_off,4,0,0,,7,,,67,127
52176,note_on,44,0,0,,7,,,67,127
52180,note_off,4,0,0,,8,,,68,127
52224,note_on,44,0,0,,6,,,66,127
52228,note_off,4,0,0,,7,,,67,127
52272,note_on,44,0,0,,7,,,67,127
52276,note_off,4,0,0,,6,,,66,127
52320,note_on,44,0,0,,7,,,79,127
52324,note_off,4,0,0,,7,,,67,127
52511,note_off,187,0,0,,7,,,79,127
52512,note_on,1,0,0,,5,,,77,127
52703,note_off,191,0,0,,5,,,77,127
52704,note_on,1,0,0,,8,,,56,127
52704,note_on,0,0,0,,5,,,77,127
52752,note_on,48,0,0,,7,,,55,127
52756,note_off,4,0,0,,8,,,56,127
52800,note_on,44,0,0,,8,,,56,127
52804,note_off,4,0,0,,7,,,55,127
52848,note_on,44,0,0,,7,,,55,127
52852,note_off,4,0,0,,8,,,56,127
52895,note_off,43,0,0,,5,,,77,127
52896,note_on,1,0,0,,8,,,56,127
52896,note_on,0,0,0,,3,,,75,127
52900,note_off,4,0,0,,7,,,55,127
52944,note_on,44,0,0,,7,,,55,127
52948,note_off,4,0,0,,8,,,56,127
52992,note_on,44,0,0,,6,,,54,127
52996,note_off,4,0,0,,7,,,55,127
53040,note_on,44,0,0,,7,,,55,127
53044,note_off,4,0,0,,6,,,54,127
53086,note_off,42,0,0,,7,,,55,127
53087,note_off,1,0,0,,3,,,75,127
53088,note_on,1,0,0,,7,,,55,127
53088,note_on,0,0,0,,7,,,67,127
53088,note_on,0,0,0,,3,,,75,127
53279,note_off,191,0,0,,3,,,75,127
53279,note_off,0,0,0,,7,,,67,127
53280,note_on,1,0,0,,5,,,65,127
53280,note_on,0,0,0,,2,,,74,127
53471,note_off,191,0,0,,2,,,74,127
53471,note_off,0,0,0,,5,,,65,127
53471,note_off,0,0,0,,7,,,55,127
53472,note_on,1,0,0,,5,,,65,127
53472,note_on,0,0,0,,7,,,55,127
53472,note_on,0,0,0,,2,,,74,127
53663,note_off,191,0,0,,2,,,74,127
53663,note_off,0,0,0,,5,,,65,127
53664,note_on,1,0,0,,3,,,63,127
53664,note_on,0,0,0,,0,,,72,127
53855,note_off,191,0,0,,0,,,72,127
53855,note_off,0,0,0,,3,,,63,127
53855,note_off,0,0,0,,7,,,55,127
53856,note_on,1,0,0,,3,,,63,127
53856,note_on,0,0,0,,8,,,56,127
53856,note_on,0,0,0,,0,,,72,127
54047,note_off,191,0,0,,0,,,72,127
54048,note_on,1,0,0,,8,,,80,127
54239,note_off,191,0,0,,8,,,56,127
54239,note_off,0,0,0,,3,,,63,127
54240,note_on,1,0,0,,5,,,53,127
54240,note_on,0,0,0,,5,,,65,127
54431,note_off,191,0,0,,8,,,80,127
54432,note_on,1,0,0,,7,,,79,127
54480,note_on,48,0,0,,5,,,77,127
54484,note_off,4,0,0,,7,,,79,127
54528,note_on,44,0,0,,3,,,75,127
54532,note_off,4,0,0,,5,,,77,127
54576,note_on,44,0,0,,2,,,74,127
54580,note_off,4,0,0,,3,,,75,127
54623,note_off,43,0,0,,5,,,65,127
54623,note_off,0,0,0,,5,,,53,127
54624,note_on,1,0,0,,7,,,55,127
54624,note_on,0,0,0,,3,,,63,127
54624,note_on,0,0,0,,0,,,72,127
54628,note_off,4,0,0,,2,,,74,127
54687,note_off,59,0,0,,0,,,72,127
54688,note_on,1,0,0,,2,,,74,127
54751,note_off,63,0,0,,2,,,74,127
54752,note_on,1,0,0,,0,,,72,127
54815,note_off,63,0,0,,0,,,72,127
54816,note_on,1,0,0,,12,,,71,127
54879,note_off,63,0,0,,12,,,71,127
54880,note_on,1,0,0,,0,,,72,127
54943,note_off,63,0,0,,0,,,72,127
54944,note_on,1,0,0,,2,,,74,127
55007,note_off,63,0,0,,2,,,74,127
55007,note_off,0,0,0,,3,,,63,127
55007,note_off,0,0,0,,7,,,55,127
55008,note_on,1,0,0,,2,,,62,127
55008,note_on,0,0,0,,7,,,55,127
55008,note_on,0,0,0,,5,,,65,127
55008,note_on,0,0,0,,3,,,75,127
55056,note_on,48,0,0,,2,,,74,127
55060,note_off,4,0,0,,3,,,75,127
55104,note_on,44,0,0,,3,,,75,127
55108,note_off,4,0,0,,2,,,74,127
55152,note_on,44,0,0,,2,,,74,127
55156,note_off,4,0,0,,3,,,75,127
55200,note_on,44,0,0,,3,,,75,127
55204,note_off,4,0,0,,2,,,74,127
55248,note_on,44,0,0,,2,,,74,127
55252,note_off,4,0,0,,3,,,75,127
55296,note_on,44,0,0,,0,,,72,127
55300,note_off,4,0,0,,2,,,74,127
55391,note_off,91,0,0,,0,,,72,127
55391,note_off,0,0,0,,5,,,65,127
55391,note_off,0,0,0,,7,,,55,127
55391,note_off,0,0,0,,2,,,62,127
55392,note_on,1,0,0,,0,,,48,127
55392,note_on,0,0,0,,0,,,72,127
55775,note_off,383,0,0,,0,,,72,127
55775,note_off,0,0,0,,0,,,48,127
55776,note_on,1,0,0,,0,,,72,127
55776,note_on,0,0,0,,0,,,84,127
55871,note_off,95,0,0,,0,,,72,127
55872,note_on,1,0,0,,7,,,67,127
55967,note_off,95,0,0,,7,,,67,127
55968,note_on,1,0,0,,3,,,63,127
56063,note_off,95,0,0,,3,,,63,127
56064,note_on,1,0,0,,0,,,60,127
56159,note_off,95,0,0,,0,,,60,127
56160,note_on,1,0,0,,7,,,55,127
56255,note_off,95,0,0,,7,,,55,127
56256,note_on,1,0,0,,3,,,51,127
56351,note_off,95,0,0,,3,,,51,127
56352,note_on,1,0,0,,0,,,48,127
56447,note_off,95,0,0,,0,,,48,127
56448,note_on,1,0,0,,7,,,43,127
56543,note_off,95,0,0,,7,,,43,127
56543,note_off,0,0,0,,0,,,84,127
56544,note_on,1,0,0,,0,,,36,127
56544,note_on,0,0,0,,5,,,77,127
56592,note_on,48,0,0,,3,,,75,127
56596,note_off,4,0,0,,5,,,77,127
56640,note_on,44,0,0,,5,,,77,127
56644,note_off,4,0,0,,3,,,75,127
56688,note_on,44,0,0,,3,,,75,127
56692,note_off,4,0,0,,5,,,77,127
56736,note_on,44,0,0,,5,,,77,127
56740,note_off,4,0,0,,3,,,75,127
56784,note_on,44,0,0,,3,,,75,127
56788,note_off,4,0,0,,5,,,77,127
56832,note_on,44,0,0,,2,,,74,127
56836,note_off,4,0,0,,3,,,75,127
56880,note_on,44,0,0,,0,,,72,127
56884,note_off,4,0,0,,2,,,74,127
56927,note_off,43,0,0,,0,,,36,127
56928,note_on,1,0,0,,7,,,31,127
56928,note_on,0,0,0,,2,,,74,127
56932,note_off,4,0,0,,0,,,72,127
57119,note_off,187,0,0,,2,,,74,127
57120,note_on,1,0,0,,2,,,74,127
57311,note_off,191,0,0,,2,,,74,127
57311,note_off,0,0,0,,7,,,31,127
57312,note_on,1,0,0,,0,,,72,127
57312,note_on,0,0,0,,0,,,84,127
57407,note_off,95,0,0,,0,,,72,127
57408,note_on,1,0,0,,7,,,67,127
57503,note_off,95,0,0,,7,,,67,127
57504,note_on,1,0,0,,3,,,63,127
57599,note_off,95,0,0,,3,,,63,127
57600,note_on,1,0,0,,0,,,60,127
57695,note_off,95,0,0,,0,,,60,127
57696,note_on,1,0,0,,7,,,55,127
57791,note_off,95,0,0,,7,,,55,127
57792,note_on,1,0,0,,3,,,51,127
57887,note_off,95,0,0,,3,,,51,127
57888,note_on,1,0,0,,0,,,48,127
57983,note_off,95,0,0,,0,,,48,127
57984,note_on,1,0,0,,7,,,43,127
58079,note_off,95,0,0,,7,,,43,127
58079,note_off,0,0,0,,0,,,84,127
58080,note_on,1,0,0,,0,,,36,127
58080,note_on,0,0,0,,5,,,77,127
58128,note_on,48,0,0,,3,,,75,127
58132,note_off,4,0,0,,5,,,77,127
58176,note_on,44,0,0,,5,,,77,127
58180,note_off,4,0,0,,3,,,75,127
58224,note_on,44,0,0,,3,,,75,127
58228,note_off,4,0,0,,5,,,77,127
58272,note_on,44,0,0,,5,,,77,127
58276,note_off,4,0,0,,3,,,75,127
58320,note_on,44,0,0,,3,,,75,127
58324,note_off,4,0,0,,5,,,77,127
58368,note_on,44,0,0,,2,,,74,127
58372,note_off,4,0,0,,3,,,75,127
58416,note_on,44,0,0,,0,,,72,127
58420,note_off,4,0,0,,2,,,74,127
58463,note_off,43,0,0,,0,,,36,127
58464,note_on,1,0,0,,7,,,43,127
58464,note_on,0,0,0,,2,,,74,127
58468,note_off,4,0,0,,0,,,72,127
58655,note_off,187,0,0,,2,,,74,127
58656,note_on,1,0,0,,2,,,74,127
58847,note_off,191,0,0,,2,,,74,127
58847,note_off,0,0,0,,7,,,43,127
58848,note_on,1,0,0,,7,,,43,127
58848,note_on,0,0,0,,7,,,55,127
58848,note_on,0,0,0,,11,,,82,127
58848,note_on,0,0,0,,2,,,74,127
59039,note_off,191,0,0,,2,,,74,127
59039,note_off,0,0,0,,11,,,82,127
59040,note_on,1,0,0,,10,,,81,127
59040,note_on,0,0,0,,0,,,72,127
59231,note_off,191,0,0,,0,,,72,127
59231,note_off,0,0,0,,10,,,81,127
59231,note_off,0,0,0,,7,,,55,127
59231,note_off,0,0,0,,7,,,43,127
59232,note_on,1,0,0,,6,,,54,127
59232,note_on,0,0,0,,10,,,45,127
59232,note_on,0,0,0,,0,,,72,127
59232,note_on,0,0,0,,10,,,81,127
59423,note_off,191,0,0,,10,,,81,127
59423,note_off,0,0,0,,0,,,72,127
59424,note_on,1,0,0,,7,,,79,127
59424,note_on,0,0,0,,11,,,70,127
59615,note_off,191,0,0,,11,,,70,127
59615,note_off,0,0,0,,7,,,79,127
59615,note_off,0,0,0,,10,,,45,127
59615,note_off,0,0,0,,6,,,54,127
59616,note_on,1,0,0,,11,,,46,127
59616,note_on,0,0,0,,7,,,55,127
59616,note_on,0,0,0,,11,,,70,127
59616,note_on,0,0,0,,7,,,79,127
59807,note_off,191,0,0,,7,,,79,127
59807,note_off,0,0,0,,11,,,70,127
59808,note_on,1,0,0,,5,,,77,127
59808,note_on,0,0,0,,10,,,69,127
59999,note_off,191,0,0,,10,,,69,127
59999,note_off,0,0,0,,5,,,77,127
59999,note_off,0,0,0,,7,,,55,127
59999,note_off,0,0,0,,11,,,46,127
60000,note_on,1,0,0,,0,,,48,127
60000,note_on,0,0,0,,10,,,57,127
60000,note_on,0,0,0,,5,,,77,127
60000,note_on,0,0,0,,10,,,69,127
60191,note_off,191,0,0,,10,,,69,127
60191,note_off,0,0,0,,5,,,77,127
60192,note_on,1,0,0,,3,,,75,127
60192,note_on,0,0,0,,7,,,67,127
60383,note_off,191,0,0,,7,,,67,127
60383,note_off,0,0,0,,3,,,75,127
60383,note_off,0,0,0,,10,,,57,127
60383,note_off,0,0,0,,0,,,48,127
60384,note_on,1,0,0,,2,,,50,127
60384,note_on,0,0,0,,11,,,58,127
60384,note_on,0,0,0,,7,,,67,127
60384,note_on,0,0,0,,3,,,75,127
60575,note_off,191,0,0,,3,,,75,127
60575,note_off,0,0,0,,7,,,67,127
60576,note_on,1,0,0,,2,,,74,127
60576,note_on,0,0,0,,6,,,66,127
60767,note_off,191,0,0,,6,,,66,127
60767,note_off,0,0,0,,2,,,74,127
60767,note_off,0,0,0,,11,,,58,127
60767,note_off,0,0,0,,2,,,50,127
60768,note_on,1,0,0,,3,,,51,127
60768,note_on,0,0,0,,0,,,60,127
60768,note_on,0,0,0,,2,,,74,127
60768,note_on,0,0,0,,6,,,66,127
60959,note_off,191,0,0,,2,,,74,127
60960,note_on,1,0,0,,0,,,72,127
61151,note_off,191,0,0,,0,,,72,127
61151,note_off,0,0,0,,6,,,66,127
61151,note_off,0,0,0,,0,,,60,127
61151,note_off,0,0,0,,3,,,51,127
61152,note_on,1,0,0,,3,,,51,127
61152,note_on,0,0,0,,0,,,60,127
61152,note_on,0,0,0,,0,,,72,127
61152,note_on,0,0,0,,7,,,67,127
61247,note_off,95,0,0,,0,,,72,127
61248,note_on,1,0,0,,11,,,70,127
61343,note_off,95,0,0,,11,,,70,127
61344,note_on,1,0,0,,10,,,69,127
61439,note_off,95,0,0,,10,,,69,127
61439,note_off,0,0,0,,7,,,67,127
61440,note_on,1,0,0,,7,,,67,127
61535,note_off,95,0,0,,7,,,67,127
61535,note_off,0,0,0,,0,,,60,127
61535,note_off,0,0,0,,3,,,51,127
61536,note_on,1,0,0,,2,,,50,127
61536,note_on,0,0,0,,2,,,62,127
61536,note_on,0,0,0,,10,,,69,127
61919,note_off,383,0,0,,10,,,69,127
61919,note_off,0,0,0,,2,,,62,127
61919,note_off,0,0,0,,2,,,50,127
61920,note_on,1,0,0,,2,,,74,127
61920,note_on,0,0,0,,2,,,86,127
62015,note_off,95,0,0,,2,,,74,127
62016,note_on,1,0,0,,10,,,69,127
62111,note_off,95,0,0,,10,,,69,127
62112,note_on,1,0,0,,6,,,66,127
62207,note_off,95,0,0,,6,,,66,127
62208,note_on,1,0,0,,2,,,62,127
62303,note_off,95,0,0,,2,,,62,127
62304,note_on,1,0,0,,10,,,57,127
62399,note_off,95,0,0,,10,,,57,127
62400,note_on,1,0,0,,6,,,54,127
62495,note_off,95,0,0,,6,,,54,127
62496,note_on,1,0,0,,2,,,50,127
62591,note_off,95,0,0,,2,,,50,127
62592,note_on,1,0,0,,10,,,45,127
62687,note_off,95,0,0,,10,,,45,127
62687,note_off,0,0,0,,2,,,86,127
62688,note_on,1,0,0,,2,,,38,127
62688,note_on,0,0,0,,10,,,81,127
62815,note_off,127,0,0,,10,,,81,127
62816,note_on,1,0,0,,11,,,82,127
62943,note_off,127,0,0,,11,,,82,127
62944,note_on,1,0,0,,0,,,84,127
63071,note_off,127,0,0,,0,,,84,127
63071,note_off,0,0,0,,2,,,38,127
63072,note_on,1,0,0,,2,,,38,127
63072,note_on,0,0,0,,11,,,82,127
63072,note_on,0,0,0,,0,,,84,127
63199,note_off,127,0,0,,0,,,84,127
63199,note_off,0,0,0,,11,,,82,127
63200,note_on,1,0,0,,10,,,81,127
63327,note_off,127,0,0,,10,,,81,127
63328,note_on,1,0,0,,7,,,79,127
63455,note_off,127,0,0,,7,,,79,127
63455,note_off,0,0,0,,2,,,38,127
63456,note_on,1,0,0,,2,,,74,127
63456,note_on,0,0,0,,2,,,86,127
63551,note_off,95,0,0,,2,,,74,127
63552,note_on,1,0,0,,10,,,69,127
63647,note_off,95,0,0,,10,,,69,127
63648,note_on,1,0,0,,6,,,66,127
63743,note_off,95,0,0,,6,,,66,127
63744,note_on,1,0,0,,2,,,62,127
63839,note_off,95,0,0,,2,,,62,127
63840,note_on,1,0,0,,10,,,57,127
63935,note_off,95,0,0,,10,,,57,127
63936,note_on,1,0,0,,6,,,54,127
64031,note_off,95,0,0,,6,,,54,127
64032,note_on,1,0,0,,2,,,50,127
64127,note_off,95,0,0,,2,,,50,127
64128,note_on,1,0,0,,10,,,45,127
64223,note_off,95,0,0,,10,,,45,127
64223,note_off,0,0,0,,2,,,86,127
64224,note_on,1,0,0,,2,,,38,127
64224,note_on,0,0,0,,10,,,81,127
64351,note_off,127,0,0,,10,,,81,127
64352,note_on,1,0,0,,11,,,82,127
64479,note_off,127,0,0,,11,,,82,127
64480,note_on,1,0,0,,0,,,84,127
64606,note_off,126,0,0,,0,,,84,127
64606,note_off,0,0,0,,2,,,38,127
64607,note_on,1,0,0,,2,,,38,127
64607,note_on,0,0,0,,11,,,82,127
64607,note_on,0,0,0,,0,,,84,127
64735,note_off,128,0,0,,0,,,84,127
64735,note_off,0,0,0,,11,,,82,127
64736,note_on,1,0,0,,10,,,81,127
64863,note_off,127,0,0,,10,,,81,127
64864,note_on,1,0,0,,7,,,79,127
64991,note_off,127,0,0,,7,,,79,127
64991,note_off,0,0,0,,2,,,38,127
64992,note_on,1,0,0,,11,,,46,127
64992,note_on,0,0,0,,7,,,55,127
64992,note_on,0,0,0,,2,,,62,127
65120,note_on,128,0,0,,6,,,66,127
65247,note_off,127,0,0,,6,,,66,127
65247,note_off,0,0,0,,2,,,62,127
65248,note_on,1,0,0,,7,,,67,127
65375,note_off,127,0,0,,7,,,67,127
65375,note_off,0,0,0,,7,,,55,127
65375,note_off,0,0,0,,11,,,46,127
65376,note_on,1,0,0,,0,,,48,127
65376,note_on,0,0,0,,10,,,57,127
65376,note_on,0,0,0,,3,,,63,127
65504,note_on,128,0,0,,7,,,67,127
65631,note_off,127,0,0,,7,,,67,127
65631,note_off,0,0,0,,3,,,63,127
65632,note_on,1,0,0,,10,,,69,127
65759,note_off,127,0,0,,10,,,69,127
65759,note_off,0,0,0,,10,,,57,127
65759,note_off,0,0,0,,0,,,48,127
65760,note_on,1,0,0,,11,,,58,127
65760,note_on,0,0,0,,2,,,50,127
65760,note_on,0,0,0,,6,,,66,127
65888,note_on,128,0,0,,10,,,69,127
66015,note_off,127,0,0,,10,,,69,127
66015,note_off,0,0,0,,6,,,66,127
66016,note_on,1,0,0,,11,,,70,127
66143,note_off,127,0,0,,11,,,70,127
66143,note_off,0,0,0,,2,,,50,127
66143,note_off,0,0,0,,11,,,58,127
66144,note_on,1,0,0,,3,,,51,127
66144,note_on,0,0,0,,0,,,60,127
66144,note_on,0,0,0,,7,,,67,127
66272,note_on,128,0,0,,11,,,70,127
66399,note_off,127,0,0,,11,,,70,127
66399,note_off,0,0,0,,7,,,67,127
66400,note_on,1,0,0,,0,,,72,127
66527,note_off,127,0,0,,0,,,72,127
66527,note_off,0,0,0,,0,,,60,127
66527,note_off,0,0,0,,3,,,51,127
66528,note_on,1,0,0,,6,,,54,127
66528,note_on,0,0,0,,2,,,62,127
66528,note_on,0,0,0,,10,,,69,127
66656,note_on,128,0,0,,0,,,72,127
66783,note_off,127,0,0,,0,,,72,127
66783,note_off,0,0,0,,10,,,69,127
66784,note_on,1,0,0,,2,,,74,127
66911,note_off,127,0,0,,2,,,74,127
66911,note_off,0,0,0,,2,,,62,127
66911,note_off,0,0,0,,6,,,54,127
66912,note_on,1,0,0,,7,,,55,127
66912,note_on,0,0,0,,2,,,62,127
66912,note_on,0,0,0,,0,,,72,127
66912,note_on,0,0,0,,11,,,70,127
67039,note_off,127,0,0,,11,,,70,127
67039,note_off,0,0,0,,0,,,72,127
67040,note_on,1,0,0,,10,,,69,127
67167,note_off,127,0,0,,10,,,69,127
67168,note_on,1,0,0,,7,,,67,127
67295,note_off,127,0,0,,2,,,62,127
67295,note_off,0,0,0,,7,,,55,127
67296,note_on,1,0,0,,11,,,46,127
67358,note_off,62,0,0,,7,,,67,127
67424,note_on,66,0,0,,6,,,54,127
67424,note_on,0,0,0,,10,,,69,127
67551,note_off,127,0,0,,10,,,69,127
67551,note_off,0,0,0,,6,,,54,127
67551,note_off,0,0,0,,11,,,46,127
67552,note_on,1,0,0,,7,,,55,127
67552,note_on,0,0,0,,7,,,67,127
67679,note_off,127,0,0,,7,,,55,127
67680,note_on,1,0,0,,0,,,48,127
67807,note_off,127,0,0,,7,,,67,127
67808,note_on,1,0,0,,7,,,55,127
67808,note_on,0,0,0,,11,,,70,127
67935,note_off,127,0,0,,11,,,70,127
67935,note_off,0,0,0,,7,,,55,127
67936,note_on,1,0,0,,10,,,57,127
67936,note_on,0,0,0,,10,,,69,127
67945,note_off,9,0,0,,0,,,48,127
68063,note_off,118,0,0,,10,,,57,127
68064,note_on,1,0,0,,2,,,50,127
68191,note_off,127,0,0,,10,,,69,127
68192,note_on,1,0,0,,10,,,57,127
68192,note_on,0,0,0,,0,,,72,127
68319,note_off,127,0,0,,0,,,72,127
68319,note_off,0,0,0,,10,,,57,127
68320,note_on,1,0,0,,11,,,58,127
68320,note_on,0,0,0,,11,,,70,127
68339,note_off,19,0,0,,2,,,50,127
68447,note_off,108,0,0,,11,,,58,127
68448,note_on,1,0,0,,4,,,52,127
68575,note_off,127,0,0,,11,,,70,127
68576,note_on,1,0,0,,11,,,58,127
68576,note_on,0,0,0,,2,,,74,127
68703,note_off,127,0,0,,2,,,74,127
68703,note_off,0,0,0,,11,,,58,127
68704,note_on,1,0,0,,0,,,60,127
68704,note_on,0,0,0,,0,,,72,127
68738,note_off,34,0,0,,4,,,52,127
68831,note_off,93,0,0,,0,,,60,127
68832,note_on,1,0,0,,6,,,54,127
68959,note_off,127,0,0,,0,,,72,127
68960,note_on,1,0,0,,0,,,60,127
68960,note_on,0,0,0,,3,,,75,127
69087,note_off,127,0,0,,3,,,75,127
69087,note_off,0,0,0,,0,,,60,127
69088,note_on,1,0,0,,2,,,62,127
69088,note_on,0,0,0,,2,,,74,127
69172,note_off,84,0,0,,6,,,54,127
69215,note_off,43,0,0,,2,,,62,127
69216,note_on,1,0,0,,7,,,55,127
69343,note_off,127,0,0,,2,,,74,127
69344,note_on,1,0,0,,2,,,62,127
69344,note_on,0,0,0,,5,,,77,127
69471,note_off,127,0,0,,5,,,77,127
69471,note_off,0,0,0,,2,,,62,127
69472,note_on,1,0,0,,3,,,63,127
69472,note_on,0,0,0,,3,,,75,127
69576,note_off,104,0,0,,7,,,55,127
69599,note_off,23,0,0,,3,,,63,127
69600,note_on,1,0,0,,0,,,60,127
69600,note_on,0,0,0,,10,,,57,127
69727,note_off,127,0,0,,3,,,75,127
69728,note_on,1,0,0,,7,,,79,127
69855,note_off,127,0,0,,7,,,79,127
69856,note_on,1,0,0,,6,,,78,127
69983,note_off,127,0,0,,6,,,78,127
69983,note_off,0,0,0,,10,,,57,127
69983,note_off,0,0,0,,0,,,60,127
69984,note_on,1,0,0,,10,,,57,127
69984,note_on,0,0,0,,6,,,66,127
69984,note_on,0,0,0,,0,,,60,127
69984,note_on,0,0,0,,3,,,75,127
70112,note_on,128,0,0,,7,,,79,127
70239,note_off,127,0,0,,7,,,79,127
70240,note_on,1,0,0,,6,,,78,127
70367,note_off,127,0,0,,6,,,78,127
70367,note_off,0,0,0,,3,,,75,127
70367,note_off,0,0,0,,0,,,60,127
70367,note_off,0,0,0,,6,,,66,127
70367,note_off,0,0,0,,10,,,57,127
70368,note_on,1,0,0,,10,,,57,127
70368,note_on,0,0,0,,6,,,66,127
70368,note_on,0,0,0,,0,,,60,127
70368,note_on,0,0,0,,3,,,75,127
70496,note_on,128,0,0,,7,,,79,127
70623,note_off,127,0,0,,7,,,79,127
70624,note_on,1,0,0,,6,,,78,127
70751,note_off,127,0,0,,6,,,78,127
70751,note_off,0,0,0,,3,,,75,127
70751,note_off,0,0,0,,0,,,60,127
70751,note_off,0,0,0,,6,,,66,127
70751,note_off,0,0,0,,10,,,57,127
70752,note_on,1,0,0,,10,,,57,127
70752,note_on,0,0,0,,6,,,66,127
70752,note_on,0,0,0,,0,,,60,127
70752,note_on,0,0,0,,3,,,75,127
70880,note_on,128,0,0,,7,,,79,127
71007,note_off,127,0,0,,7,,,79,127
71008,note_on,1,0,0,,6,,,78,127
71135,note_off,127,0,0,,6,,,78,127
71135,note_off,0,0,0,,3,,,75,127
71135,note_off,0,0,0,,0,,,60,127
71135,note_off,0,0,0,,6,,,66,127
71135,note_off,0,0,0,,10,,,57,127
71136,note_on,1,0,0,,0,,,60,127
71136,note_on,0,0,0,,10,,,57,127
71136,note_on,0,0,0,,6,,,66,127
71136,note_on,0,0,0,,3,,,75,127
71264,note_on,128,0,0,,7,,,79,127
71391,note_off,127,0,0,,7,,,79,127
71392,note_on,1,0,0,,6,,,78,127
71519,note_off,127,0,0,,6,,,78,127
71519,note_off,0,0,0,,3,,,75,127
71519,note_off,0,0,0,,6,,,66,127
71519,note_off,0,0,0,,10,,,57,127
71519,note_off,0,0,0,,0,,,60,127
71520,note_on,1,0,0,,11,,,58,127
71520,note_on,0,0,0,,3,,,63,127
71520,note_on,0,0,0,,6,,,66,127
71520,note_on,0,0,0,,3,,,75,127
71648,note_on,128,0,0,,8,,,80,127
71775,note_off,127,0,0,,8,,,80,127
71776,note_on,1,0,0,,6,,,78,127
71903,note_off,127,0,0,,6,,,78,127
71903,note_off,0,0,0,,3,,,75,127
71903,note_off,0,0,0,,6,,,66,127
71903,note_off,0,0,0,,3,,,63,127
71903,note_off,0,0,0,,11,,,58,127
71904,note_on,1,0,0,,6,,,66,127
71904,note_on,0,0,0,,11,,,58,127
71904,note_on,0,0,0,,3,,,63,127
71904,note_on,0,0,0,,3,,,75,127
72032,note_on,128,0,0,,8,,,80,127
72159,note_off,127,0,0,,8,,,80,127
72160,note_on,1,0,0,,6,,,78,127
72287,note_off,127,0,0,,6,,,78,127
72287,note_off,0,0,0,,3,,,75,127
72287,note_off,0,0,0,,3,,,63,127
72287,note_off,0,0,0,,11,,,58,127
72287,note_off,0,0,0,,6,,,66,127
72288,note_on,1,0,0,,11,,,58,127
72288,note_on,0,0,0,,6,,,66,127
72288,note_on,0,0,0,,3,,,63,127
72288,note_on,0,0,0,,3,,,75,127
72416,note_on,128,0,0,,8,,,80,127
72543,note_off,127,0,0,,8,,,80,127
72544,note_on,1,0,0,,6,,,78,127
72671,note_off,127,0,0,,6,,,78,127
72671,note_off,0,0,0,,3,,,75,127
72671,note_off,0,0,0,,3,,,63,127
72671,note_off,0,0,0,,6,,,66,127
72671,note_off,0,0,0,,11,,,58,127
72672,note_on,1,0,0,,11,,,58,127
72672,note_on,0,0,0,,6,,,66,127
72672,note_on,0,0,0,,3,,,63,127
72672,note_on,0,0,0,,3,,,75,127
72800,note_on,128,0,0,,8,,,80,127
72927,note_off,127,0,0,,8,,,80,127
72928,note_on,1,0,0,,6,,,78,127
73055,note_off,127,0,0,,6,,,78,127
73055,note_off,0,0,0,,3,,,75,127
73055,note_off,0,0,0,,3,,,63,127
73055,note_off,0,0,0,,6,,,66,127
73055,note_off,0,0,0,,11,,,58,127
73056,note_on,1,0,0,,10,,,57,127
73056,note_on,0,0,0,,3,,,63,127
73056,note_on,0,0,0,,6,,,66,127
73056,note_on,0,0,0,,3,,,75,127
73056,note_on,0,0,0,,0,,,72,127
73184,note_on,128,0,0,,8,,,80,127
73311,note_off,127,0,0,,8,,,80,127
73312,note_on,1,0,0,,6,,,78,127
73439,note_off,127,0,0,,6,,,78,127
73439,note_off,0,0,0,,0,,,72,127
73439,note_off,0,0,0,,3,,,75,127
73439,note_off,0,0,0,,6,,,66,127
73439,note_off,0,0,0,,3,,,63,127
73439,note_off,0,0,0,,10,,,57,127
73440,note_on,1,0,0,,10,,,57,127
73440,note_on,0,0,0,,6,,,66,127
73440,note_on,0,0,0,,3,,,63,127
73440,note_on,0,0,0,,3,,,75,127
73440,note_on,0,0,0,,0,,,72,127
73568,note_on,128,0,0,,8,,,80,127
73695,note_off,127,0,0,,8,,,80,127
73696,note_on,1,0,0,,6,,,78,127
73822,note_off,126,0,0,,6,,,78,127
73822,note_off,0,0,0,,3,,,63,127
73822,note_off,0,0,0,,6,,,66,127
73822,note_off,0,0,0,,10,,,57,127
73823,note_off,1,0,0,,0,,,72,127
73823,note_off,0,0,0,,3,,,75,127
73823,note_on,0,0,0,,3,,,75,127
73823,note_on,0,0,0,,0,,,72,127
73824,note_on,1,0,0,,6,,,66,127
73824,note_on,0,0,0,,3,,,63,127
73824,note_on,0,0,0,,8,,,56,127
73951,note_off,127,0,0,,3,,,75,127
73952,note_on,1,0,0,,8,,,80,127
74079,note_off,127,0,0,,8,,,80,127
74080,note_on,1,0,0,,6,,,78,127
74206,note_off,126,0,0,,0,,,72,127
74207,note_off,1,0,0,,6,,,78,127
74207,note_off,0,0,0,,8,,,56,127
74207,note_off,0,0,0,,3,,,63,127
74207,note_off,0,0,0,,6,,,66,127
74208,note_on,1,0,0,,8,,,56,127
74208,note_on,0,0,0,,3,,,63,127
74208,note_on,0,0,0,,6,,,66,127
74208,note_on,0,0,0,,3,,,75,127
74208,note_on,0,0,0,,0,,,72,127
74335,note_off,127,0,0,,3,,,75,127
74336,note_on,1,0,0,,8,,,80,127
74463,note_off,127,0,0,,8,,,80,127
74464,note_on,1,0,0,,6,,,78,127
74591,note_off,127,0,0,,6,,,78,127
74591,note_off,0,0,0,,0,,,72,127
74591,note_off,0,0,0,,6,,,66,127
74591,note_off,0,0,0,,3,,,63,127
74591,note_off,0,0,0,,8,,,56,127
74592,note_on,1,0,0,,6,,,66,127
74592,note_on,0,0,0,,3,,,63,127
74592,note_on,0,0,0,,6,,,54,127
74592,note_on,0,0,0,,3,,,75,127
74592,note_on,0,0,0,,0,,,72,127
74719,note_off,127,0,0,,3,,,75,127
74720,note_on,1,0,0,,11,,,82,127
74847,note_off,127,0,0,,11,,,82,127
74848,note_on,1,0,0,,10,,,81,127
74975,note_off,127,0,0,,10,,,81,127
74975,note_off,0,0,0,,0,,,72,127
74975,note_off,0,0,0,,6,,,54,127
74975,note_off,0,0,0,,3,,,63,127
74975,note_off,0,0,0,,6,,,66,127
74976,note_on,1,0,0,,6,,,66,127
74976,note_on,0,0,0,,3,,,63,127
74976,note_on,0,0,0,,6,,,54,127
74976,note_on,0,0,0,,3,,,75,127
74976,note_on,0,0,0,,0,,,72,127
75103,note_off,127,0,0,,3,,,75,127
75104,note_on,1,0,0,,11,,,82,127
75231,note_off,127,0,0,,11,,,82,127
75232,note_on,1,0,0,,10,,,81,127
75359,note_off,127,0,0,,10,,,81,127
75359,note_off,0,0,0,,0,,,72,127
75359,note_off,0,0,0,,6,,,54,127
75359,note_off,0,0,0,,3,,,63,127
75359,note_off,0,0,0,,6,,,66,127
75360,note_on,1,0,0,,6,,,66,127
75360,note_on,0,0,0,,3,,,63,127
75360,note_on,0,0,0,,6,,,54,127
75360,note_on,0,0,0,,3,,,75,127
75360,note_on,0,0,0,,0,,,72,127
75487,note_off,127,0,0,,3,,,75,127
75488,note_on,1,0,0,,11,,,82,127
75615,note_off,127,0,0,,11,,,82,127
75615,note_off,0,0,0,,0,,,72,127
75616,note_on,1,0,0,,10,,,81,127
75743,note_off,127,0,0,,6,,,54,127
75743,note_off,0,0,0,,3,,,63,127
75743,note_off,0,0,0,,6,,,66,127
75744,note_on,1,0,0,,3,,,63,127
75744,note_on,0,0,0,,6,,,54,127
75744,note_on,0,0,0,,6,,,66,127
75935,note_off,191,0,0,,10,,,81,127
75936,note_on,1,0,0,,0,,,84,127
75984,note_on,48,0,0,,11,,,82,127
75988,note_off,4,0,0,,0,,,84,127
76032,note_on,44,0,0,,10,,,81,127
76036,note_off,4,0,0,,11,,,82,127
76080,note_on,44,0,0,,11,,,82,127
76084,note_off,4,0,0,,10,,,81,127
76127,note_off,43,0,0,,6,,,66,127
76127,note_off,0,0,0,,6,,,54,127
76127,note_off,0,0,0,,3,,,63,127
76128,note_on,1,0,0,,5,,,53,127
76128,note_on,0,0,0,,0,,,60,127
76128,note_on,0,0,0,,5,,,65,127
76128,note_on,0,0,0,,0,,,84,127
76132,note_off,4,0,0,,11,,,82,127
76319,note_off,187,0,0,,0,,,84,127
76320,note_on,1,0,0,,11,,,82,127
76511,note_off,191,0,0,,11,,,82,127
76511,note_off,0,0,0,,5,,,65,127
76511,note_off,0,0,0,,0,,,60,127
76511,note_off,0,0,0,,5,,,53,127
76512,note_on,1,0,0,,5,,,53,127
76512,note_on,0,0,0,,0,,,60,127
76512,note_on,0,0,0,,5,,,65,127
76512,note_on,0,0,0,,10,,,81,127
76703,note_off,191,0,0,,10,,,81,127
76704,note_on,1,0,0,,7,,,79,127
76895,note_off,191,0,0,,7,,,79,127
76895,note_off,0,0,0,,5,,,65,127
76895,note_off,0,0,0,,0,,,60,127
76895,note_off,0,0,0,,5,,,53,127
76896,note_on,1,0,0,,0,,,60,127
76896,note_on,0,0,0,,5,,,53,127
76896,note_on,0,0,0,,5,,,65,127
76896,note_on,0,0,0,,5,,,77,127
77087,note_off,191,0,0,,5,,,77,127
77088,note_on,1,0,0,,3,,,75,127
77279,note_off,191,0,0,,3,,,75,127
77279,note_off,0,0,0,,5,,,65,127
77279,note_off,0,0,0,,5,,,53,127
77279,note_off,0,0,0,,0,,,60,127
77280,note_on,1,0,0,,5,,,53,127
77280,note_on,0,0,0,,0,,,60,127
77280,note_on,0,0,0,,5,,,65,127
77280,note_on,0,0,0,,5,,,77,127
77328,note_on,48,0,0,,3,,,75,127
77332,note_off,4,0,0,,5,,,77,127
77376,note_on,44,0,0,,5,,,77,127
77380,note_off,4,0,0,,3,,,75,127
77424,note_on,44,0,0,,3,,,75,127
77428,note_off,4,0,0,,5,,,77,127
77472,note_on,44,0,0,,5,,,77,127
77476,note_off,4,0,0,,3,,,75,127
77520,note_on,44,0,0,,3,,,75,127
77524,note_off,4,0,0,,5,,,77,127
77568,note_on,44,0,0,,2,,,74,127
77572,note_off,4,0,0,,3,,,75,127
77616,note_on,44,0,0,,0,,,72,127
77620,note_off,4,0,0,,2,,,74,127
77663,note_off,43,0,0,,5,,,65,127
77663,note_off,0,0,0,,0,,,60,127
77663,note_off,0,0,0,,5,,,53,127
77664,note_on,1,0,0,,11,,,58,127
77664,note_on,0,0,0,,5,,,65,127
77664,note_on,0,0,0,,2,,,74,127
77668,note_off,4,0,0,,0,,,72,127
77791,note_off,123,0,0,,2,,,74,127
77792,note_on,1,0,0,,0,,,72,127
77919,note_off,127,0,0,,0,,,72,127
77920,note_on,1,0,0,,11,,,70,127
78047,note_off,127,0,0,,11,,,70,127
78048,note_on,1,0,0,,3,,,75,127
78096,note_on,48,0,0,,2,,,74,127
78100,note_off,4,0,0,,3,,,75,127
78144,note_on,44,0,0,,3,,,75,127
78148,note_off,4,0,0,,2,,,74,127
78192,note_on,44,0,0,,2,,,74,127
78196,note_off,4,0,0,,3,,,75,127
78239,note_off,43,0,0,,5,,,65,127
78239,note_off,0,0,0,,11,,,58,127
78240,note_on,1,0,0,,3,,,75,127
78244,note_off,4,0,0,,2,,,74,127
78288,note_on,44,0,0,,2,,,74,127
78292,note_off,4,0,0,,3,,,75,127
78336,note_on,44,0,0,,0,,,72,127
78340,note_off,4,0,0,,2,,,74,127
78384,note_on,44,0,0,,11,,,70,127
78388,note_off,4,0,0,,0,,,72,127
78432,note_on,44,0,0,,5,,,77,127
78436,note_off,4,0,0,,11,,,70,127
78623,note_off,187,0,0,,5,,,77,127
78624,note_on,1,0,0,,2,,,74,127
78815,note_off,191,0,0,,2,,,74,127
78816,note_on,1,0,0,,2,,,62,127
78816,note_on,0,0,0,,11,,,58,127
78816,note_on,0,0,0,,0,,,72,127
79007,note_off,191,0,0,,0,,,72,127
79008,note_on,1,0,0,,11,,,70,127
79199,note_off,191,0,0,,11,,,70,127
79199,note_off,0,0,0,,11,,,58,127
79199,note_off,0,0,0,,2,,,62,127
79200,note_on,1,0,0,,0,,,60,127
79200,note_on,0,0,0,,10,,,57,127
79200,note_on,0,0,0,,5,,,65,127
79391,note_off,191,0,0,,5,,,65,127
79392,note_on,1,0,0,,5,,,65,127
79583,note_off,191,0,0,,5,,,65,127
79583,note_off,0,0,0,,10,,,57,127
79583,note_off,0,0,0,,0,,,60,127
79584,note_on,1,0,0,,11,,,58,127
79584,note_on,0,0,0,,2,,,62,127
79584,note_on,0,0,0,,3,,,75,127
79632,note_on,48,0,0,,2,,,74,127
79636,note_off,4,0,0,,3,,,75,127
79680,note_on,44,0,0,,3,,,75,127
79684,note_off,4,0,0,,2,,,74,127
79728,note_on,44,0,0,,2,,,74,127
79732,note_off,4,0,0,,3,,,75,127
79776,note_on,44,0,0,,3,,,75,127
79780,note_off,4,0,0,,2,,,74,127
79824,note_on,44,0,0,,2,,,74,127
79828,note_off,4,0,0,,3,,,75,127
79872,note_on,44,0,0,,0,,,72,127
79876,note_off,4,0,0,,2,,,74,127
79920,note_on,44,0,0,,11,,,70,127
79924,note_off,4,0,0,,0,,,72,127
79968,note_on,44,0,0,,5,,,77,127
79972,note_off,4,0,0,,11,,,70,127
80064,note_off,92,0,0,,2,,,62,127
80064,note_off,0,0,0,,11,,,58,127
80159,note_off,95,0,0,,5,,,77,127
80160,note_on,1,0,0,,2,,,74,127
80351,note_off,191,0,0,,2,,,74,127
80352,note_on,1,0,0,,11,,,58,127
80352,note_on,0,0,0,,2,,,62,127
80352,note_on,0,0,0,,0,,,72,127
80543,note_off,191,0,0,,0,,,72,127
80544,note_on,1,0,0,,11,,,70,127
80735,note_off,191,0,0,,11,,,70,127
80735,note_off,0,0,0,,2,,,62,127
80735,note_off,0,0,0,,11,,,58,127
80736,note_on,1,0,0,,0,,,60,127
80736,note_on,0,0,0,,10,,,57,127
80736,note_on,0,0,0,,5,,,65,127
80927,note_off,191,0,0,,5,,,65,127
80928,note_on,1,0,0,,5,,,65,127
81119,note_off,191,0,0,,5,,,65,127
81119,note_off,0,0,0,,10,,,57,127
81119,note_off,0,0,0,,0,,,60,127
81120,note_on,1,0,0,,11,,,58,127
81120,note_on,0,0,0,,2,,,62,127
81120,note_on,0,0,0,,3,,,75,127
81168,note_on,48,0,0,,2,,,74,127
81172,note_off,4,0,0,,3,,,75,127
81216,note_on,44,0,0,,3,,,75,127
81220,note_off,4,0,0,,2,,,74,127
81264,note_on,44,0,0,,2,,,74,127
81268,note_off,4,0,0,,3,,,75,127
81312,note_on,44,0,0,,3,,,75,127
81316,note_off,4,0,0,,2,,,74,127
81360,note_on,44,0,0,,2,,,74,127
81364,note_off,4,0,0,,3,,,75,127
81408,note_on,44,0,0,,0,,,72,127
81412,note_off,4,0,0,,2,,,74,127
81456,note_on,44,0,0,,11,,,70,127
81460,note_off,4,0,0,,0,,,72,127
81504,note_on,44,0,0,,2,,,86,127
81508,note_off,4,0,0,,11,,,70,127
81599,note_off,91,0,0,,2,,,86,127
81600,note_on,1,0,0,,11,,,82,127
81695,note_off,95,0,0,,11,,,82,127
81695,note_off,0,0,0,,2,,,62,127
81695,note_off,0,0,0,,11,,,58,127
81696,note_on,1,0,0,,5,,,77,127
81791,note_off,95,0,0,,5,,,77,127
81792,note_on,1,0,0,,2,,,74,127
81887,note_off,95,0,0,,2,,,74,127
81888,note_on,1,0,0,,2,,,50,127
81888,note_on,0,0,0,,11,,,58,127
81888,note_on,0,0,0,,11,,,70,127
81983,note_off,95,0,0,,11,,,70,127
81984,note_on,1,0,0,,5,,,65,127
82079,note_off,95,0,0,,5,,,65,127
82080,note_on,1,0,0,,2,,,62,127
82175,note_off,95,0,0,,2,,,62,127
82175,note_off,0,0,0,,11,,,58,127
82176,note_on,1,0,0,,11,,,58,127
82271,note_off,95,0,0,,11,,,58,127
82271,note_off,0,0,0,,2,,,50,127
82272,note_on,1,0,0,,3,,,51,127
82272,note_on,0,0,0,,7,,,67,127
82463,note_off,191,0,0,,7,,,67,127
82464,note_on,1,0,0,,7,,,79,127
82656,note_on,192,0,0,,3,,,39,127
82847,note_off,191,0,0,,7,,,79,127
82848,note_on,1,0,0,,5,,,77,127
82896,note_on,48,0,0,,3,,,75,127
82900,note_off,4,0,0,,5,,,77,127
82944,note_on,44,0,0,,2,,,74,127
82948,note_off,4,0,0,,3,,,75,127
82992,note_on,44,0,0,,0,,,72,127
82996,note_off,4,0,0,,2,,,74,127
83039,note_off,43,0,0,,3,,,39,127
83039,note_off,0,0,0,,3,,,51,127
83040,note_on,1,0,0,,5,,,41,127
83040,note_on,0,0,0,,11,,,70,127
83044,note_off,4,0,0,,0,,,72,127
83103,note_off,59,0,0,,11,,,70,127
83104,note_on,1,0,0,,0,,,72,127
83167,note_off,63,0,0,,0,,,72,127
83168,note_on,1,0,0,,11,,,70,127
83231,note_off,63,0,0,,11,,,70,127
83232,note_on,1,0,0,,10,,,69,127
83295,note_off,63,0,0,,10,,,69,127
83296,note_on,1,0,0,,11,,,70,127
83359,note_off,63,0,0,,11,,,70,127
83360,note_on,1,0,0,,0,,,72,127
83423,note_off,63,0,0,,0,,,72,127
83423,note_off,0,0,0,,5,,,41,127
83424,note_on,1,0,0,,5,,,41,127
83424,note_on,0,0,0,,2,,,74,127
83472,note_on,48,0,0,,0,,,72,127
83476,note_off,4,0,0,,2,,,74,127
83520,note_on,44,0,0,,2,,,74,127
83524,note_off,4,0,0,,0,,,72,127
83568,note_on,44,0,0,,0,,,72,127
83572,note_off,4,0,0,,2,,,74,127
83616,note_on,44,0,0,,2,,,74,127
83620,note_off,4,0,0,,0,,,72,127
83664,note_on,44,0,0,,0,,,72,127
83668,note_off,4,0,0,,2,,,74,127
83712,note_on,44,0,0,,11,,,70,127
83716,note_off,4,0,0,,0,,,72,127
83807,note_off,91,0,0,,11,,,70,127
83807,note_off,0,0,0,,5,,,41,127
83808,note_on,1,0,0,,11,,,46,127
83808,note_on,0,0,0,,11,,,70,127
84191,note_off,383,0,0,,11,,,70,127
84191,note_off,0,0,0,,11,,,46,127
84192,note_on,1,0,0,,3,,,63,127
84192,note_on,0,0,0,,5,,,77,127
84240,note_on,48,0,0,,2,,,62,127
84244,note_off,4,0,0,,3,,,63,127
84288,note_on,44,0,0,,3,,,63,127
84292,note_off,4,0,0,,2,,,62,127
84336,note_on,44,0,0,,2,,,62,127
84340,note_off,4,0,0,,3,,,63,127
84384,note_on,44,0,0,,3,,,63,127
84388,note_off,4,0,0,,2,,,62,127
84432,note_on,44,0,0,,2,,,62,127
84436,note_off,4,0,0,,3,,,63,127
84480,note_on,44,0,0,,0,,,60,127
84484,note_off,4,0,0,,2,,,62,127
84528,note_on,44,0,0,,11,,,58,127
84532,note_off,4,0,0,,0,,,60,127
84576,note_on,44,0,0,,5,,,65,127
84580,note_off,4,0,0,,11,,,58,127
84767,note_off,187,0,0,,5,,,65,127
84767,note_off,0,0,0,,5,,,77,127
84768,note_on,1,0,0,,2,,,62,127
84768,note_on,0,0,0,,11,,,70,127
84959,note_off,191,0,0,,11,,,70,127
84959,note_off,0,0,0,,2,,,62,127
84960,note_on,1,0,0,,0,,,60,127
84960,note_on,0,0,0,,10,,,69,127
85151,note_off,191,0,0,,10,,,69,127
85151,note_off,0,0,0,,0,,,60,127
85152,note_on,1,0,0,,11,,,58,127
85152,note_on,0,0,0,,11,,,70,127
85343,note_off,191,0,0,,11,,,70,127
85343,note_off,0,0,0,,11,,,58,127
85344,note_on,1,0,0,,5,,,41,127
85344,note_on,0,0,0,,0,,,72,127
85727,note_off,383,0,0,,0,,,72,127
85727,note_off,0,0,0,,5,,,41,127
85728,note_on,1,0,0,,3,,,63,127
85728,note_on,0,0,0,,5,,,77,127
85776,note_on,48,0,0,,2,,,62,127
85780,note_off,4,0,0,,3,,,63,127
85824,note_on,44,0,0,,3,,,63,127
85828,note_off,4,0,0,,2,,,62,127
85872,note_on,44,0,0,,2,,,62,127
85876,note_off,4,0,0,,3,,,63,127
85920,note_on,44,0,0,,3,,,63,127
85924,note_off,4,0,0,,2,,,62,127
85968,note_on,44,0,0,,2,,,62,127
85972,note_off,4,0,0,,3,,,63,127
86016,note_on,44,0,0,,0,,,60,127
86020,note_off,4,0,0,,2,,,62,127
86064,note_on,44,0,0,,11,,,58,127
86068,note_off,4,0,0,,0,,,60,127
86112,note_on,44,0,0,,5,,,65,127
86116,note_off,4,0,0,,11,,,58,127
86303,note_off,187,0,0,,5,,,65,127
86303,note_off,0,0,0,,5,,,77,127
86304,note_on,1,0,0,,2,,,62,127
86304,note_on,0,0,0,,11,,,70,127
86495,note_off,191,0,0,,11,,,70,127
86495,note_off,0,0,0,,2,,,62,127
86496,note_on,1,0,0,,0,,,60,127
86496,note_on,0,0,0,,10,,,69,127
86687,note_off,191,0,0,,10,,,69,127
86687,note_off,0,0,0,,0,,,60,127
86688,note_on,1,0,0,,11,,,58,127
86688,note_on,0,0,0,,11,,,70,127
86879,note_off,191,0,0,,11,,,70,127
86879,note_off,0,0,0,,11,,,58,127
86880,note_on,1,0,0,,5,,,41,127
86880,note_on,0,0,0,,0,,,72,127
87263,note_off,383,0,0,,0,,,72,127
87263,note_off,0,0,0,,5,,,41,127
87264,note_on,1,0,0,,3,,,63,127
87264,note_on,0,0,0,,5,,,77,127
87312,note_on,48,0,0,,2,,,62,127
87316,note_off,4,0,0,,3,,,63,127
87360,note_on,44,0,0,,3,,,63,127
87364,note_off,4,0,0,,2,,,62,127
87408,note_on,44,0,0,,2,,,62,127
87412,note_off,4,0,0,,3,,,63,127
87456,note_on,44,0,0,,3,,,63,127
87460,note_off,4,0,0,,2,,,62,127
87504,note_on,44,0,0,,2,,,62,127
87508,note_off,4,0,0,,3,,,63,127
87552,note_on,44,0,0,,0,,,60,127
87556,note_off,4,0,0,,2,,,62,127
87600,note_on,44,0,0,,11,,,58,127
87604,note_off,4,0,0,,0,,,60,127
87648,note_on,44,0,0,,11,,,70,127
87652,note_off,4,0,0,,11,,,58,127
87743,note_off,91,0,0,,11,,,70,127
87744,note_on,1,0,0,,5,,,65,127
87839,note_off,95,0,0,,5,,,65,127
87840,note_on,1,0,0,,2,,,62,127
87935,note_off,95,0,0,,2,,,62,127
87936,note_on,1,0,0,,11,,,58,127
88031,note_off,95,0,0,,11,,,58,127
88031,note_off,0,0,0,,5,,,77,127
88032,note_on,1,0,0,,5,,,53,127
88032,note_on,0,0,0,,11,,,82,127
88127,note_off,95,0,0,,5,,,53,127
88128,note_on,1,0,0,,2,,,50,127
88223,note_off,95,0,0,,2,,,50,127
88224,note_on,1,0,0,,11,,,46,127
88319,note_off,95,0,0,,11,,,46,127
88320,note_on,1,0,0,,5,,,41,127
88415,note_off,95,0,0,,5,,,41,127
88416,note_on,1,0,0,,11,,,34,127
88543,note_off,127,0,0,,11,,,82,127
88544,note_on,1,0,0,,5,,,77,127
88671,note_off,127,0,0,,5,,,77,127
88672,note_on,1,0,0,,8,,,80,127
88799,note_off,127,0,0,,8,,,80,127
88799,note_off,0,0,0,,11,,,34,127
88800,note_on,1,0,0,,3,,,39,127
88800,note_on,0,0,0,,7,,,79,127
88927,note_off,127,0,0,,7,,,79,127
88928,note_on,1,0,0,,5,,,77,127
89055,note_off,127,0,0,,5,,,77,127
89056,note_on,1,0,0,,3,,,75,127
89183,note_off,127,0,0,,3,,,75,127
89183,note_off,0,0,0,,3,,,39,127
89184,note_on,1,0,0,,5,,,41,127
89184,note_on,0,0,0,,2,,,74,127
89311,note_off,127,0,0,,2,,,74,127
89312,note_on,1,0,0,,0,,,72,127
89439,note_off,127,0,0,,0,,,72,127
89440,note_on,1,0,0,,2,,,74,127
89567,note_off,127,0,0,,2,,,74,127
89567,note_off,0,0,0,,5,,,41,127
89568,note_on,1,0,0,,5,,,41,127
89568,note_on,0,0,0,,5,,,77,127
89568,note_on,0,0,0,,3,,,75,127
89695,note_off,127,0,0,,3,,,75,127
89695,note_off,0,0,0,,5,,,77,127
89696,note_on,1,0,0,,2,,,74,127
89823,note_off,127,0,0,,2,,,74,127
89824,note_on,1,0,0,,0,,,72,127
89951,note_off,127,0,0,,0,,,72,127
89951,note_off,0,0,0,,5,,,41,127
89952,note_on,1,0,0,,11,,,34,127
89952,note_on,0,0,0,,11,,,70,127
90335,note_off,383,0,0,,11,,,70,127
90335,note_off,0,0,0,,11,,,34,127
90336,note_on,1,0,0,,11,,,70,127
90336,note_on,0,0,0,,0,,,84,127
90384,note_on,48,0,0,,11,,,82,127
90388,note_off,4,0,0,,0,,,84,127
90431,note_off,43,0,0,,11,,,70,127
90432,note_on,1,0,0,,5,,,65,127
90432,note_on,0,0,0,,0,,,84,127
90436,note_off,4,0,0,,11,,,82,127
90480,note_on,44,0,0,,11,,,82,127
90484,note_off,4,0,0,,0,,,84,127
90527,note_off,43,0,0,,5,,,65,127
90528,note_on,1,0,0,,2,,,62,127
90623,note_off,95,0,0,,2,,,62,127
90624,note_on,1,0,0,,11,,,58,127
90719,note_off,95,0,0,,11,,,58,127
90719,note_off,0,0,0,,11,,,82,127
90720,note_on,1,0,0,,5,,,53,127
90720,note_on,0,0,0,,11,,,82,127
90815,note_off,95,0,0,,5,,,53,127
90816,note_on,1,0,0,,2,,,50,127
90911,note_off,95,0,0,,2,,,50,127
90912,note_on,1,0,0,,11,,,46,127
91007,note_off,95,0,0,,11,,,46,127
91008,note_on,1,0,0,,5,,,41,127
91103,note_off,95,0,0,,5,,,41,127
91103,note_off,0,0,0,,11,,,82,127
91104,note_on,1,0,0,,11,,,34,127
91104,note_on,0,0,0,,11,,,82,127
91284,note_off,180,0,0,,11,,,34,127
91296,note_on,12,0,0,,11,,,34,127
91476,note_off,180,0,0,,11,,,34,127
91487,note_off,11,0,0,,11,,,82,127
91488,note_on,1,0,0,,11,,,34,127
91488,note_on,0,0,0,,11,,,82,127
91871,note_off,383,0,0,,11,,,82,127
91871,note_off,0,0,0,,11,,,34,127
91872,note_on,1,0,0,,11,,,70,127
91872,note_on,0,0,0,,0,,,84,127
91920,note_on,48,0,0,,11,,,82,127
91924,note_off,4,0,0,,0,,,84,127
91967,note_off,43,0,0,,11,,,70,127
91968,note_on,1,0,0,,5,,,65,127
91968,note_on,0,0,0,,0,,,84,127
91972,note_off,4,0,0,,11,,,82,127
92016,note_on,44,0,0,,11,,,82,127
92020,note_off,4,0,0,,0,,,84,127
92063,note_off,43,0,0,,5,,,65,127
92064,note_on,1,0,0,,2,,,62,127
92159,note_off,95,0,0,,2,,,62,127
92160,note_on,1,0,0,,11,,,58,127
92255,note_off,95,0,0,,11,,,58,127
92255,note_off,0,0,0,,11,,,82,127
92256,note_on,1,0,0,,5,,,53,127
92256,note_on,0,0,0,,11,,,82,127
92351,note_off,95,0,0,,5,,,53,127
92352,note_on,1,0,0,,2,,,50,127
92447,note_off,95,0,0,,2,,,50,127
92448,note_on,1,0,0,,11,,,46,127
92543,note_off,95,0,0,,11,,,46,127
92544,note_on,1,0,0,,5,,,41,127
92639,note_off,95,0,0,,5,,,41,127
92639,note_off,0,0,0,,11,,,82,127
92640,note_on,1,0,0,,11,,,34,127
92640,note_on,0,0,0,,11,,,82,127
92820,note_off,180,0,0,,11,,,34,127
92832,note_on,12,0,0,,11,,,34,127
93012,note_off,180,0,0,,11,,,34,127
93024,note_on,12,0,0,,11,,,34,127
93151,note_off,127,0,0,,11,,,82,127
93152,note_on,1,0,0,,5,,,77,127
93279,note_off,127,0,0,,5,,,77,127
93280,note_on,1,0,0,,8,,,80,127
93407,note_off,127,0,0,,8,,,80,127
93407,note_off,0,0,0,,11,,,34,127
93408,note_on,1,0,0,,3,,,39,127
93408,note_on,0,0,0,,7,,,79,127
93535,note_off,127,0,0,,7,,,79,127
93536,note_on,1,0,0,,5,,,77,127
93663,note_off,127,0,0,,5,,,77,127
93664,note_on,1,0,0,,3,,,75,127
93791,note_off,127,0,0,,3,,,75,127
93791,note_off,0,0,0,,3,,,39,127
93792,note_on,1,0,0,,5,,,41,127
93792,note_on,0,0,0,,2,,,74,127
93983,note_off,191,0,0,,2,,,74,127
93984,note_on,1,0,0,,0,,,72,127
94079,note_off,95,0,0,,0,,,72,127
94080,note_on,1,0,0,,2,,,74,127
94175,note_off,95,0,0,,2,,,74,127
94175,note_off,0,0,0,,5,,,41,127
94176,note_on,1,0,0,,5,,,41,127
94176,note_on,0,0,0,,5,,,77,127
94271,note_off,95,0,0,,5,,,77,127
94272,note_on,1,0,0,,3,,,75,127
94367,note_off,95,0,0,,3,,,75,127
94368,note_on,1,0,0,,2,,,74,127
94463,note_off,95,0,0,,2,,,74,127
94464,note_on,1,0,0,,0,,,72,127
94559,note_off,95,0,0,,0,,,72,127
94559,note_off,0,0,0,,5,,,41,127
94560,note_on,1,0,0,,11,,,34,127
94560,note_on,0,0,0,,11,,,70,127
94943,note_off,383,0,0,,11,,,70,127
94943,note_off,0,0,0,,11,,,34,127
94944,note_on,1,0,0,,2,,,50,127
94944,note_on,0,0,0,,5,,,77,127
94944,note_on,0,0,0,,5,,,65,127
95135,note_off,191,0,0,,5,,,77,127
95136,note_on,1,0,0,,3,,,75,127
95231,note_off,95,0,0,,3,,,75,127
95232,note_on,1,0,0,,2,,,74,127
95327,note_off,95,0,0,,2,,,74,127
95327,note_off,0,0,0,,5,,,65,127
95327,note_off,0,0,0,,2,,,50,127
95328,note_on,1,0,0,,3,,,51,127
95328,note_on,0,0,0,,7,,,67,127
95328,note_on,0,0,0,,7,,,79,127
95519,note_off,191,0,0,,7,,,79,127
95520,note_on,1,0,0,,5,,,77,127
95615,note_off,95,0,0,,5,,,77,127
95616,note_on,1,0,0,,3,,,75,127
95711,note_off,95,0,0,,3,,,75,127
95711,note_off,0,0,0,,7,,,67,127
95711,note_off,0,0,0,,3,,,51,127
95712,note_on,1,0,0,,5,,,53,127
95712,note_on,0,0,0,,10,,,69,127
95712,note_on,0,0,0,,5,,,77,127
95903,note_off,191,0,0,,5,,,77,127
95904,note_on,1,0,0,,3,,,75,127
95999,note_off,95,0,0,,3,,,75,127
96000,note_on,1,0,0,,2,,,74,127
96095,note_off,95,0,0,,2,,,74,127
96095,note_off,0,0,0,,10,,,69,127
96095,note_off,0,0,0,,5,,,53,127
96096,note_on,1,0,0,,7,,,55,127
96096,note_on,0,0,0,,11,,,70,127
96096,note_on,0,0,0,,5,,,77,127
96287,note_off,191,0,0,,5,,,77,127
96288,note_on,1,0,0,,3,,,75,127
96383,note_off,95,0,0,,3,,,75,127
96384,note_on,1,0,0,,2,,,74,127
96479,note_off,95,0,0,,2,,,74,127
96479,note_off,0,0,0,,11,,,70,127
96479,note_off,0,0,0,,7,,,55,127
96480,note_on,1,0,0,,3,,,51,127
96480,note_on,0,0,0,,7,,,79,127
96480,note_on,0,0,0,,11,,,70,127
96671,note_off,191,0,0,,7,,,79,127
96672,note_on,1,0,0,,5,,,77,127
96767,note_off,95,0,0,,5,,,77,127
96768,note_on,1,0,0,,3,,,75,127
96863,note_off,95,0,0,,3,,,75,127
96863,note_off,0,0,0,,3,,,51,127
96864,note_on,1,0,0,,5,,,53,127
96864,note_on,0,0,0,,2,,,74,127
97055,note_off,191,0,0,,2,,,74,127
97056,note_on,1,0,0,,0,,,72,127
97151,note_off,95,0,0,,0,,,72,127
97152,note_on,1,0,0,,2,,,74,127
97247,note_off,95,0,0,,2,,,74,127
97247,note_off,0,0,0,,11,,,70,127
97248,note_on,1,0,0,,5,,,41,127
97248,note_on,0,0,0,,3,,,75,127
97248,note_on,0,0,0,,10,,,69,127
97439,note_off,191,0,0,,3,,,75,127
97440,note_on,1,0,0,,2,,,74,127
97535,note_off,95,0,0,,2,,,74,127
97536,note_on,1,0,0,,0,,,72,127
97631,note_off,95,0,0,,0,,,72,127
97631,note_off,0,0,0,,10,,,69,127
97631,note_off,0,0,0,,5,,,41,127
97631,note_off,0,0,0,,5,,,53,127
97632,note_on,1,0,0,,11,,,34,127
97632,note_on,0,0,0,,11,,,70,127
97972,note_off,340,0,0,,11,,,34,127
98015,note_off,43,0,0,,11,,,70,127
98016,note_on,1,0,0,,2,,,50,127
98016,note_on,0,0,0,,5,,,77,127
98016,note_on,0,0,0,,5,,,65,127
98207,note_off,191,0,0,,5,,,77,127
98208,note_on,1,0,0,,3,,,75,127
98303,note_off,95,0,0,,3,,,75,127
98304,note_on,1,0,0,,2,,,74,127
98399,note_off,95,0,0,,2,,,74,127
98399,note_off,0,0,0,,5,,,65,127
98399,note_off,0,0,0,,2,,,50,127
98400,note_on,1,0,0,,3,,,51,127
98400,note_on,0,0,0,,5,,,77,127
98400,note_on,0,0,0,,7,,,67,127
98591,note_off,191,0,0,,5,,,77,127
98592,note_on,1,0,0,,3,,,75,127
98687,note_off,95,0,0,,3,,,75,127
98688,note_on,1,0,0,,2,,,74,127
98783,note_off,95,0,0,,2,,,74,127
98783,note_off,0,0,0,,7,,,67,127
98783,note_off,0,0,0,,3,,,51,127
98784,note_on,1,0,0,,5,,,53,127
98784,note_on,0,0,0,,5,,,77,127
98784,note_on,0,0,0,,10,,,69,127
98975,note_off,191,0,0,,5,,,77,127
98976,note_on,1,0,0,,3,,,75,127
99071,note_off,95,0,0,,3,,,75,127
99072,note_on,1,0,0,,2,,,74,127
99167,note_off,95,0,0,,2,,,74,127
99167,note_off,0,0,0,,10,,,69,127
99167,note_off,0,0,0,,5,,,53,127
99168,note_on,1,0,0,,7,,,55,127
99168,note_on,0,0,0,,5,,,77,127
99168,note_on,0,0,0,,11,,,70,127
99359,note_off,191,0,0,,5,,,77,127
99360,note_on,1,0,0,,3,,,75,127
99455,note_off,95,0,0,,3,,,75,127
99456,note_on,1,0,0,,2,,,74,127
99551,note_off,95,0,0,,2,,,74,127
99551,note_off,0,0,0,,11,,,70,127
99551,note_off,0,0,0,,7,,,55,127
99552,note_on,1,0,0,,3,,,51,127
99552,note_on,0,0,0,,7,,,79,127
99552,note_on,0,0,0,,11,,,70,127
99743,note_off,191,0,0,,7,,,79,127
99744,note_on,1,0,0,,5,,,77,127
99839,note_off,95,0,0,,5,,,77,127
99840,note_on,1,0,0,,3,,,75,127
99935,note_off,95,0,0,,3,,,75,127
99935,note_off,0,0,0,,3,,,51,127
99936,note_on,1,0,0,,5,,,53,127
99936,note_on,0,0,0,,2,,,74,127
100127,note_off,191,0,0,,2,,,74,127
100128,note_on,1,0,0,,0,,,72,127
100223,note_off,95,0,0,,0,,,72,127
100224,note_on,1,0,0,,2,,,74,127
100319,note_off,95,0,0,,2,,,74,127
100319,note_off,0,0,0,,11,,,70,127
100320,note_on,1,0,0,,5,,,41,127
100320,note_on,0,0,0,,3,,,75,127
100320,note_on,0,0,0,,10,,,69,127
100511,note_off,191,0,0,,3,,,75,127
100512,note_on,1,0,0,,2,,,74,127
100607,note_off,95,0,0,,2,,,74,127
100608,note_on,1,0,0,,0,,,72,127
100703,note_off,95,0,0,,10,,,69,127
100703,note_off,0,0,0,,5,,,41,127
100703,note_off,0,0,0,,5,,,53,127
100704,note_on,1,0,0,,11,,,46,127
100752,note_on,48,0,0,,11,,,70,127
100758,note_off,6,0,0,,0,,,72,127
100800,note_on,42,0,0,,0,,,72,127
100804,note_off,4,0,0,,11,,,70,127
100848,note_on,44,0,0,,11,,,70,127
100852,note_off,4,0,0,,0,,,72,127
100896,note_on,44,0,0,,7,,,67,127
100900,note_off,4,0,0,,11,,,70,127
100991,note_off,91,0,0,,7,,,67,127
100992,note_on,1,0,0,,11,,,70,127
101087,note_off,95,0,0,,11,,,70,127
101087,note_off,0,0,0,,11,,,46,127
101088,note_on,1,0,0,,3,,,51,127
101088,note_on,0,0,0,,0,,,72,127
101279,note_off,191,0,0,,0,,,72,127
101280,note_on,1,0,0,,7,,,67,127
101375,note_off,95,0,0,,7,,,67,127
101376,note_on,1,0,0,,0,,,72,127
101471,note_off,95,0,0,,0,,,72,127
101471,note_off,0,0,0,,3,,,51,127
101472,note_on,1,0,0,,5,,,53,127
101472,note_on,0,0,0,,11,,,70,127
101856,note_on,384,0,0,,5,,,41,127
101920,note_on,64,0,0,,10,,,69,127
101922,note_off,2,0,0,,11,,,70,127
101983,note_off,61,0,0,,10,,,69,127
101984,note_on,1,0,0,,11,,,70,127
102047,note_off,63,0,0,,11,,,70,127
102048,note_on,1,0,0,,10,,,69,127
102111,note_off,63,0,0,,10,,,69,127
102112,note_on,1,0,0,,7,,,67,127
102175,note_off,63,0,0,,7,,,67,127
102176,note_on,1,0,0,,10,,,69,127
102239,note_off,63,0,0,,10,,,69,127
102239,note_off,0,0,0,,5,,,41,127
102239,note_off,0,0,0,,5,,,53,127
102240,note_on,1,0,0,,11,,,34,127
102240,note_on,0,0,0,,11,,,70,127
104448,note_off,2208,0,0,,11,,,70,127
104448,note_off,0,0,0,,11,,,34,127
105984,end_of_track,1536,1,0,,,,,,
