tick,type,time,meta,track,program,channel,pitch,tempo,note,velocity
0,copyright,0,1,0,,,,,,
0,program_change,0,0,0,6,0,,,,
0,pitchwheel,0,0,0,,0,0,,,
0,program_change,0,0,0,6,1,,,,
0,pitchwheel,0,0,0,,1,-590,,,
0,program_change,0,0,0,6,2,,,,
0,pitchwheel,0,0,0,,2,-272,,,
0,program_change,0,0,0,6,3,,,,
0,pitchwheel,0,0,0,,3,-353,,,
0,program_change,0,0,0,6,4,,,,
0,pitchwheel,0,0,0,,4,-560,,,
0,program_change,0,0,0,6,5,,,,
0,pitchwheel,0,0,0,,5,-80,,,
0,program_change,0,0,0,6,6,,,,
0,pitchwheel,0,0,0,,6,-625,,,
0,program_change,0,0,0,6,7,,,,
0,pitchwheel,0,0,0,,7,-130,,,
0,program_change,0,0,0,6,8,,,,
0,pitchwheel,0,0,0,,8,-512,,,
0,program_change,0,0,0,6,10,,,,
0,pitchwheel,0,0,0,,10,-464,,,
0,program_change,0,0,0,6,11,,,,
0,pitchwheel,0,0,0,,11,-208,,,
0,program_change,0,0,0,6,12,,,,
0,pitchwheel,0,0,0,,12,-553,,,
0,set_tempo,0,1,0,,,,500000,,
152,note_on,152,0,0,,11,,,58,127
152,note_on,0,0,0,,11,,,82,127
302,note_off,150,0,0,,11,,,82,127
304,note_on,2,0,0,,5,,,77,127
446,note_off,142,0,0,,5,,,77,127
455,note_on,9,0,0,,5,,,77,127
757,note_off,302,0,0,,11,,,58,127
759,note_on,2,0,0,,2,,,62,127
1050,note_off,291,0,0,,5,,,77,127
1061,note_off,11,0,0,,2,,,62,127
1063,note_on,2,0,0,,3,,,63,127
1063,note_on,0,0,0,,6,,,78,127
1213,note_off,150,0,0,,6,,,78,127
1215,note_on,2,0,0,,7,,,79,127
1357,note_off,142,0,0,,7,,,79,127
1366,note_on,9,0,0,,7,,,79,127
1668,note_off,302,0,0,,3,,,63,127
1670,note_on,2,0,0,,2,,,62,127
1961,note_off,291,0,0,,7,,,79,127
1972,note_off,11,0,0,,2,,,62,127
1974,note_on,2,0,0,,0,,,60,127
1974,note_on,0,0,0,,3,,,75,127
2124,note_off,150,0,0,,3,,,75,127
2126,note_on,2,0,0,,10,,,69,127
2268,note_off,142,0,0,,10,,,69,127
2277,note_on,9,0,0,,10,,,69,127
2579,note_off,302,0,0,,0,,,60,127
2581,note_on,2,0,0,,0,,,60,127
2872,note_off,291,0,0,,10,,,69,127
2883,note_off,11,0,0,,0,,,60,127
2885,note_on,2,0,0,,2,,,62,127
2885,note_on,0,0,0,,4,,,76,127
3035,note_off,150,0,0,,4,,,76,127
3037,note_on,2,0,0,,5,,,77,127
3179,note_off,142,0,0,,5,,,77,127
3188,note_on,9,0,0,,5,,,77,127
3490,note_off,302,0,0,,2,,,62,127
3492,note_on,2,0,0,,11,,,58,127
3783,note_off,291,0,0,,5,,,77,127
3794,note_off,11,0,0,,11,,,58,127
3796,note_on,2,0,0,,10,,,57,127
3796,note_on,0,0,0,,0,,,72,127
3946,note_off,150,0,0,,0,,,72,127
3948,note_on,2,0,0,,5,,,65,127
4090,note_off,142,0,0,,5,,,65,127
4099,note_on,9,0,0,,5,,,65,127
4401,note_off,302,0,0,,10,,,57,127
4403,note_on,2,0,0,,10,,,57,127
4694,note_off,291,0,0,,5,,,65,127
4705,note_off,11,0,0,,10,,,57,127
4707,note_on,2,0,0,,11,,,58,127
4707,note_on,0,0,0,,2,,,74,127
4781,note_off,74,0,0,,2,,,74,127
4783,note_on,2,0,0,,11,,,70,127
5009,note_off,226,0,0,,11,,,70,127
5009,note_off,0,0,0,,11,,,58,127
5011,note_on,2,0,0,,0,,,60,127
5011,note_on,0,0,0,,3,,,75,127
5085,note_off,74,0,0,,3,,,75,127
5087,note_on,2,0,0,,0,,,72,127
5313,note_off,226,0,0,,0,,,72,127
5313,note_off,0,0,0,,0,,,60,127
5315,note_on,2,0,0,,2,,,62,127
5315,note_on,0,0,0,,5,,,77,127
5389,note_off,74,0,0,,5,,,77,127
5391,note_on,2,0,0,,2,,,74,127
5617,note_off,226,0,0,,2,,,74,127
5617,note_off,0,0,0,,2,,,62,127
5619,note_on,2,0,0,,3,,,63,127
5619,note_on,0,0,0,,7,,,79,127
5769,note_off,150,0,0,,7,,,79,127
5771,note_on,2,0,0,,2,,,74,127
5921,note_off,150,0,0,,2,,,74,127
5921,note_off,0,0,0,,3,,,63,127
5923,note_on,2,0,0,,10,,,57,127
5923,note_on,0,0,0,,3,,,75,127
6073,note_off,150,0,0,,3,,,75,127
6075,note_on,2,0,0,,0,,,72,127
6225,note_off,150,0,0,,0,,,72,127
6225,note_off,0,0,0,,10,,,57,127
6227,note_on,2,0,0,,11,,,58,127
6227,note_on,0,0,0,,2,,,74,127
6377,note_off,150,0,0,,2,,,74,127
6379,note_on,2,0,0,,11,,,70,127
6529,note_off,150,0,0,,11,,,70,127
6529,note_off,0,0,0,,11,,,58,127
6531,note_on,2,0,0,,5,,,53,127
6531,note_on,0,0,0,,2,,,74,127
6681,note_off,150,0,0,,2,,,74,127
6683,note_on,2,0,0,,0,,,72,127
6734,note_on,51,0,0,,2,,,74,127
6747,note_off,13,0,0,,0,,,72,127
6785,note_on,38,0,0,,0,,,72,127
6798,note_off,13,0,0,,2,,,74,127
6836,note_on,38,0,0,,2,,,74,127
6849,note_off,13,0,0,,0,,,72,127
6887,note_on,38,0,0,,0,,,72,127
6900,note_off,13,0,0,,2,,,74,127
6938,note_on,38,0,0,,2,,,74,127
6951,note_off,13,0,0,,0,,,72,127
6989,note_on,38,0,0,,0,,,72,127
7002,note_off,13,0,0,,2,,,74,127
7040,note_on,38,0,0,,2,,,74,127
7053,note_off,13,0,0,,0,,,72,127
7091,note_on,38,0,0,,0,,,72,127
7104,note_off,13,0,0,,2,,,74,127
7293,note_off,189,0,0,,5,,,53,127
7375,note_off,82,0,0,,0,,,72,127
7444,note_on,69,0,0,,11,,,58,127
7444,note_on,0,0,0,,11,,,82,127
7594,note_off,150,0,0,,11,,,82,127
7596,note_on,2,0,0,,5,,,77,127
7738,note_off,142,0,0,,5,,,77,127
7747,note_on,9,0,0,,5,,,77,127
8049,note_off,302,0,0,,11,,,58,127
8051,note_on,2,0,0,,2,,,62,127
8342,note_off,291,0,0,,5,,,77,127
8353,note_off,11,0,0,,2,,,62,127
8355,note_on,2,0,0,,3,,,63,127
8355,note_on,0,0,0,,6,,,78,127
8505,note_off,150,0,0,,6,,,78,127
8507,note_on,2,0,0,,7,,,79,127
8649,note_off,142,0,0,,7,,,79,127
8658,note_on,9,0,0,,7,,,79,127
8960,note_off,302,0,0,,3,,,63,127
8962,note_on,2,0,0,,2,,,62,127
9253,note_off,291,0,0,,7,,,79,127
9264,note_off,11,0,0,,2,,,62,127
9266,note_on,2,0,0,,0,,,60,127
9266,note_on,0,0,0,,3,,,75,127
9416,note_off,150,0,0,,3,,,75,127
9418,note_on,2,0,0,,10,,,69,127
9560,note_off,142,0,0,,10,,,69,127
9569,note_on,9,0,0,,10,,,69,127
9871,note_off,302,0,0,,0,,,60,127
9873,note_on,2,0,0,,0,,,60,127
10164,note_off,291,0,0,,10,,,69,127
10175,note_off,11,0,0,,0,,,60,127
10177,note_on,2,0,0,,2,,,62,127
10177,note_on,0,0,0,,4,,,76,127
10327,note_off,150,0,0,,4,,,76,127
10329,note_on,2,0,0,,5,,,77,127
10471,note_off,142,0,0,,5,,,77,127
10480,note_on,9,0,0,,5,,,77,127
10782,note_off,302,0,0,,2,,,62,127
10784,note_on,2,0,0,,11,,,58,127
11075,note_off,291,0,0,,5,,,77,127
11086,note_off,11,0,0,,11,,,58,127
11088,note_on,2,0,0,,10,,,57,127
11088,note_on,0,0,0,,0,,,72,127
11238,note_off,150,0,0,,0,,,72,127
11240,note_on,2,0,0,,5,,,65,127
11382,note_off,142,0,0,,5,,,65,127
11390,note_off,8,0,0,,10,,,57,127
11392,note_on,2,0,0,,5,,,53,127
11392,note_on,0,0,0,,5,,,65,127
11694,note_off,302,0,0,,5,,,53,127
11696,note_on,2,0,0,,10,,,57,127
11987,note_off,291,0,0,,5,,,65,127
11998,note_off,11,0,0,,10,,,57,127
12000,note_on,2,0,0,,11,,,58,127
12000,note_on,0,0,0,,2,,,74,127
12074,note_off,74,0,0,,2,,,74,127
12076,note_on,2,0,0,,11,,,70,127
12302,note_off,226,0,0,,11,,,70,127
12302,note_off,0,0,0,,11,,,58,127
12304,note_on,2,0,0,,0,,,60,127
12304,note_on,0,0,0,,3,,,75,127
12378,note_off,74,0,0,,3,,,75,127
12380,note_on,2,0,0,,0,,,72,127
12606,note_off,226,0,0,,0,,,72,127
12606,note_off,0,0,0,,0,,,60,127
12608,note_on,2,0,0,,2,,,50,127
12608,note_on,0,0,0,,5,,,77,127
12682,note_off,74,0,0,,5,,,77,127
12684,note_on,2,0,0,,2,,,74,127
12910,note_off,226,0,0,,2,,,74,127
12910,note_off,0,0,0,,2,,,50,127
12912,note_on,2,0,0,,3,,,51,127
12912,note_on,0,0,0,,7,,,79,127
13062,note_off,150,0,0,,7,,,79,127
13064,note_on,2,0,0,,3,,,75,127
13214,note_off,150,0,0,,3,,,75,127
13214,note_off,0,0,0,,3,,,51,127
13216,note_on,2,0,0,,5,,,53,127
13216,note_on,0,0,0,,2,,,74,127
13518,note_off,302,0,0,,2,,,74,127
13518,note_off,0,0,0,,5,,,53,127
13520,note_on,2,0,0,,5,,,41,127
13520,note_on,0,0,0,,0,,,72,127
13822,note_off,302,0,0,,0,,,72,127
13822,note_off,0,0,0,,5,,,41,127
13824,note_on,2,0,0,,11,,,46,127
13824,note_on,0,0,0,,0,,,72,127
13974,note_off,150,0,0,,0,,,72,127
13976,note_on,2,0,0,,11,,,70,127
14027,note_on,51,0,0,,0,,,72,127
14040,note_off,13,0,0,,11,,,70,127
14078,note_on,38,0,0,,11,,,70,127
14091,note_off,13,0,0,,0,,,72,127
14129,note_on,38,0,0,,0,,,72,127
14142,note_off,13,0,0,,11,,,70,127
14180,note_on,38,0,0,,11,,,70,127
14193,note_off,13,0,0,,0,,,72,127
14231,note_on,38,0,0,,0,,,72,127
14244,note_off,13,0,0,,11,,,70,127
14282,note_on,38,0,0,,11,,,70,127
14295,note_off,13,0,0,,0,,,72,127
14333,note_on,38,0,0,,0,,,72,127
14346,note_off,13,0,0,,11,,,70,127
14384,note_on,38,0,0,,11,,,70,127
14397,note_off,13,0,0,,0,,,72,127
14586,note_off,189,0,0,,11,,,46,127
14668,note_off,82,0,0,,11,,,70,127
14737,note_on,69,0,0,,11,,,70,127
14737,note_on,0,0,0,,5,,,65,127
14813,note_on,76,0,0,,3,,,75,127
14887,note_off,74,0,0,,3,,,75,127
14889,note_on,2,0,0,,2,,,74,127
14963,note_off,74,0,0,,2,,,74,127
14965,note_on,2,0,0,,0,,,72,127
15039,note_off,74,0,0,,0,,,72,127
15039,note_off,0,0,0,,5,,,65,127
15039,note_off,0,0,0,,11,,,70,127
15041,note_on,2,0,0,,5,,,65,127
15041,note_on,0,0,0,,11,,,70,127
15115,note_off,74,0,0,,11,,,70,127
15117,note_on,2,0,0,,10,,,69,127
15191,note_off,74,0,0,,10,,,69,127
15193,note_on,2,0,0,,11,,,70,127
15267,note_off,74,0,0,,11,,,70,127
15269,note_on,2,0,0,,0,,,72,127
15343,note_off,74,0,0,,0,,,72,127
15343,note_off,0,0,0,,5,,,65,127
15345,note_on,2,0,0,,5,,,65,127
15345,note_on,0,0,0,,11,,,70,127
15345,note_on,0,0,0,,2,,,74,127
15419,note_off,74,0,0,,2,,,74,127
15421,note_on,2,0,0,,3,,,75,127
15495,note_off,74,0,0,,3,,,75,127
15497,note_on,2,0,0,,5,,,77,127
15571,note_off,74,0,0,,5,,,77,127
15573,note_on,2,0,0,,7,,,79,127
15647,note_off,74,0,0,,7,,,79,127
15647,note_off,0,0,0,,11,,,70,127
15647,note_off,0,0,0,,5,,,65,127
15649,note_on,2,0,0,,0,,,72,127
15649,note_on,0,0,0,,10,,,69,127
15649,note_on,0,0,0,,10,,,81,127
15799,note_off,150,0,0,,10,,,81,127
15801,note_on,2,0,0,,11,,,82,127
15951,note_off,150,0,0,,10,,,69,127
15951,note_off,0,0,0,,0,,,72,127
15953,note_on,2,0,0,,11,,,70,127
15953,note_on,0,0,0,,7,,,67,127
16103,note_off,150,0,0,,11,,,82,127
16105,note_on,2,0,0,,12,,,83,127
16255,note_off,150,0,0,,7,,,67,127
16255,note_off,0,0,0,,11,,,70,127
16257,note_on,2,0,0,,10,,,69,127
16257,note_on,0,0,0,,5,,,65,127
16407,note_off,150,0,0,,12,,,83,127
16409,note_on,2,0,0,,0,,,84,127
16559,note_off,150,0,0,,5,,,65,127
16559,note_off,0,0,0,,10,,,69,127
16561,note_on,2,0,0,,4,,,64,127
16561,note_on,0,0,0,,7,,,67,127
16681,note_off,120,0,0,,0,,,84,127
16713,note_on,32,0,0,,7,,,79,127
16863,note_off,150,0,0,,7,,,67,127
16863,note_off,0,0,0,,4,,,64,127
16865,note_on,2,0,0,,0,,,60,127
17015,note_off,150,0,0,,7,,,79,127
17017,note_on,2,0,0,,4,,,76,127
17167,note_off,150,0,0,,0,,,60,127
17169,note_on,2,0,0,,4,,,64,127
17169,note_on,0,0,0,,7,,,67,127
17319,note_off,150,0,0,,4,,,76,127
17321,note_on,2,0,0,,11,,,70,127
17471,note_off,150,0,0,,11,,,70,127
17471,note_off,0,0,0,,7,,,67,127
17471,note_off,0,0,0,,4,,,64,127
17473,note_on,2,0,0,,5,,,65,127
17473,note_on,0,0,0,,0,,,72,127
17524,note_on,51,0,0,,11,,,70,127
17537,note_off,13,0,0,,0,,,72,127
17575,note_on,38,0,0,,0,,,72,127
17588,note_off,13,0,0,,11,,,70,127
17626,note_on,38,0,0,,11,,,70,127
17639,note_off,13,0,0,,0,,,72,127
17677,note_on,38,0,0,,0,,,72,127
17690,note_off,13,0,0,,11,,,70,127
17728,note_on,38,0,0,,11,,,70,127
17741,note_off,13,0,0,,0,,,72,127
17777,note_off,36,0,0,,5,,,65,127
17779,note_on,2,0,0,,5,,,53,127
17779,note_on,0,0,0,,0,,,72,127
17792,note_off,13,0,0,,11,,,70,127
17830,note_on,38,0,0,,11,,,70,127
17843,note_off,13,0,0,,0,,,72,127
17881,note_on,38,0,0,,0,,,72,127
17894,note_off,13,0,0,,11,,,70,127
17932,note_on,38,0,0,,11,,,70,127
17945,note_off,13,0,0,,0,,,72,127
17983,note_on,38,0,0,,10,,,69,127
17996,note_off,13,0,0,,11,,,70,127
18034,note_on,38,0,0,,11,,,70,127
18047,note_off,13,0,0,,10,,,69,127
18083,note_off,36,0,0,,5,,,53,127
18085,note_on,2,0,0,,5,,,41,127
18085,note_on,0,0,0,,10,,,69,127
18098,note_off,13,0,0,,11,,,70,127
18357,note_off,259,0,0,,10,,,69,127
18387,note_off,30,0,0,,5,,,41,127
18389,note_on,2,0,0,,5,,,65,127
18389,note_on,0,0,0,,11,,,70,127
18465,note_on,76,0,0,,3,,,75,127
18539,note_off,74,0,0,,3,,,75,127
18541,note_on,2,0,0,,2,,,74,127
18615,note_off,74,0,0,,2,,,74,127
18617,note_on,2,0,0,,0,,,72,127
18691,note_off,74,0,0,,0,,,72,127
18691,note_off,0,0,0,,11,,,70,127
18691,note_off,0,0,0,,5,,,65,127
18693,note_on,2,0,0,,5,,,65,127
18693,note_on,0,0,0,,11,,,70,127
18767,note_off,74,0,0,,11,,,70,127
18769,note_on,2,0,0,,10,,,69,127
18843,note_off,74,0,0,,10,,,69,127
18845,note_on,2,0,0,,11,,,70,127
18919,note_off,74,0,0,,11,,,70,127
18921,note_on,2,0,0,,0,,,72,127
18995,note_off,74,0,0,,0,,,72,127
18995,note_off,0,0,0,,5,,,65,127
18997,note_on,2,0,0,,11,,,70,127
18997,note_on,0,0,0,,5,,,65,127
18997,note_on,0,0,0,,2,,,74,127
19071,note_off,74,0,0,,2,,,74,127
19073,note_on,2,0,0,,3,,,75,127
19147,note_off,74,0,0,,3,,,75,127
19149,note_on,2,0,0,,5,,,77,127
19223,note_off,74,0,0,,5,,,77,127
19225,note_on,2,0,0,,7,,,79,127
19299,note_off,74,0,0,,7,,,79,127
19299,note_off,0,0,0,,5,,,65,127
19299,note_off,0,0,0,,11,,,70,127
19301,note_on,2,0,0,,0,,,72,127
19301,note_on,0,0,0,,10,,,69,127
19301,note_on,0,0,0,,10,,,81,127
19451,note_off,150,0,0,,10,,,81,127
19453,note_on,2,0,0,,11,,,82,127
19603,note_off,150,0,0,,10,,,69,127
19603,note_off,0,0,0,,0,,,72,127
19605,note_on,2,0,0,,7,,,67,127
19605,note_on,0,0,0,,11,,,70,127
19755,note_off,150,0,0,,11,,,82,127
19757,note_on,2,0,0,,12,,,83,127
19907,note_off,150,0,0,,11,,,70,127
19907,note_off,0,0,0,,7,,,67,127
19909,note_on,2,0,0,,5,,,65,127
19909,note_on,0,0,0,,10,,,69,127
20059,note_off,150,0,0,,12,,,83,127
20061,note_on,2,0,0,,0,,,84,127
20211,note_off,150,0,0,,10,,,69,127
20211,note_off,0,0,0,,5,,,65,127
20213,note_on,2,0,0,,7,,,67,127
20213,note_on,0,0,0,,4,,,64,127
20333,note_off,120,0,0,,0,,,84,127
20365,note_on,32,0,0,,7,,,79,127
20515,note_off,150,0,0,,4,,,64,127
20515,note_off,0,0,0,,7,,,67,127
20517,note_on,2,0,0,,0,,,60,127
20667,note_off,150,0,0,,7,,,79,127
20669,note_on,2,0,0,,4,,,76,127
20819,note_off,150,0,0,,0,,,60,127
20821,note_on,2,0,0,,4,,,64,127
20821,note_on,0,0,0,,7,,,67,127
20971,note_off,150,0,0,,4,,,76,127
20973,note_on,2,0,0,,11,,,70,127
21123,note_off,150,0,0,,11,,,70,127
21123,note_off,0,0,0,,7,,,67,127
21123,note_off,0,0,0,,4,,,64,127
21125,note_on,2,0,0,,5,,,65,127
21125,note_on,0,0,0,,0,,,72,127
21176,note_on,51,0,0,,11,,,70,127
21189,note_off,13,0,0,,0,,,72,127
21227,note_on,38,0,0,,0,,,72,127
21240,note_off,13,0,0,,11,,,70,127
21278,note_on,38,0,0,,11,,,70,127
21291,note_off,13,0,0,,0,,,72,127
21329,note_on,38,0,0,,0,,,72,127
21342,note_off,13,0,0,,11,,,70,127
21380,note_on,38,0,0,,11,,,70,127
21393,note_off,13,0,0,,0,,,72,127
21429,note_off,36,0,0,,5,,,65,127
21431,note_on,2,0,0,,5,,,53,127
21431,note_on,0,0,0,,0,,,72,127
21444,note_off,13,0,0,,11,,,70,127
21482,note_on,38,0,0,,11,,,70,127
21495,note_off,13,0,0,,0,,,72,127
21533,note_on,38,0,0,,0,,,72,127
21546,note_off,13,0,0,,11,,,70,127
21584,note_on,38,0,0,,11,,,70,127
21597,note_off,13,0,0,,0,,,72,127
21635,note_on,38,0,0,,10,,,69,127
21648,note_off,13,0,0,,11,,,70,127
21686,note_on,38,0,0,,11,,,70,127
21699,note_off,13,0,0,,10,,,69,127
21735,note_off,36,0,0,,5,,,53,127
21737,note_on,2,0,0,,5,,,41,127
21737,note_on,0,0,0,,10,,,69,127
21750,note_off,13,0,0,,11,,,70,127
22009,note_off,259,0,0,,10,,,69,127
22039,note_off,30,0,0,,5,,,41,127
22041,note_on,2,0,0,,10,,,57,127
22041,note_on,0,0,0,,0,,,60,127
22117,note_on,76,0,0,,0,,,72,127
22191,note_off,74,0,0,,0,,,72,127
22193,note_on,2,0,0,,11,,,70,127
22267,note_off,74,0,0,,11,,,70,127
22269,note_on,2,0,0,,10,,,69,127
22343,note_off,74,0,0,,10,,,69,127
22343,note_off,0,0,0,,0,,,60,127
22343,note_off,0,0,0,,10,,,57,127
22345,note_on,2,0,0,,0,,,60,127
22345,note_on,0,0,0,,10,,,57,127
22345,note_on,0,0,0,,7,,,67,127
22419,note_off,74,0,0,,7,,,67,127
22421,note_on,2,0,0,,5,,,65,127
22495,note_off,74,0,0,,5,,,65,127
22497,note_on,2,0,0,,7,,,67,127
22571,note_off,74,0,0,,7,,,67,127
22573,note_on,2,0,0,,10,,,69,127
22647,note_off,74,0,0,,10,,,69,127
22647,note_off,0,0,0,,10,,,57,127
22647,note_off,0,0,0,,0,,,60,127
22649,note_on,2,0,0,,10,,,57,127
22649,note_on,0,0,0,,0,,,60,127
22649,note_on,0,0,0,,11,,,70,127
22723,note_off,74,0,0,,11,,,70,127
22725,note_on,2,0,0,,12,,,71,127
22799,note_off,74,0,0,,12,,,71,127
22801,note_on,2,0,0,,0,,,72,127
22875,note_off,74,0,0,,0,,,72,127
22877,note_on,2,0,0,,1,,,73,127
22951,note_off,74,0,0,,1,,,73,127
22951,note_off,0,0,0,,0,,,60,127
22951,note_off,0,0,0,,10,,,57,127
22953,note_on,2,0,0,,5,,,65,127
22953,note_on,0,0,0,,11,,,58,127
22953,note_on,0,0,0,,2,,,74,127
23103,note_off,150,0,0,,2,,,74,127
23105,note_on,2,0,0,,4,,,76,127
23255,note_off,150,0,0,,4,,,76,127
23255,note_off,0,0,0,,11,,,58,127
23255,note_off,0,0,0,,5,,,65,127
23257,note_on,2,0,0,,5,,,65,127
23257,note_on,0,0,0,,11,,,58,127
23257,note_on,0,0,0,,5,,,77,127
23407,note_off,150,0,0,,5,,,77,127
23409,note_on,2,0,0,,7,,,79,127
23559,note_off,150,0,0,,7,,,79,127
23559,note_off,0,0,0,,11,,,58,127
23559,note_off,0,0,0,,5,,,65,127
23561,note_on,2,0,0,,11,,,58,127
23561,note_on,0,0,0,,5,,,65,127
23561,note_on,0,0,0,,10,,,81,127
23711,note_off,150,0,0,,10,,,81,127
23713,note_on,2,0,0,,11,,,82,127
23863,note_off,150,0,0,,11,,,82,127
23863,note_off,0,0,0,,5,,,65,127
23863,note_off,0,0,0,,11,,,58,127
23865,note_on,2,0,0,,5,,,65,127
23865,note_on,0,0,0,,10,,,69,127
23865,note_on,0,0,0,,0,,,60,127
23865,note_on,0,0,0,,12,,,83,127
24015,note_off,150,0,0,,12,,,83,127
24017,note_on,2,0,0,,0,,,84,127
24167,note_off,150,0,0,,0,,,84,127
24167,note_off,0,0,0,,0,,,60,127
24167,note_off,0,0,0,,10,,,69,127
24167,note_off,0,0,0,,5,,,65,127
24169,note_on,2,0,0,,10,,,69,127
24169,note_on,0,0,0,,5,,,65,127
24169,note_on,0,0,0,,0,,,60,127
24169,note_on,0,0,0,,5,,,77,127
24471,note_off,302,0,0,,0,,,60,127
24471,note_off,0,0,0,,5,,,65,127
24471,note_off,0,0,0,,10,,,69,127
24473,note_on,2,0,0,,7,,,67,127
24473,note_on,0,0,0,,0,,,60,127
24524,note_on,51,0,0,,4,,,76,127
24533,note_off,9,0,0,,5,,,77,127
24574,note_on,41,0,0,,5,,,77,127
24587,note_off,13,0,0,,4,,,76,127
24625,note_on,38,0,0,,4,,,76,127
24638,note_off,13,0,0,,5,,,77,127
24676,note_on,38,0,0,,5,,,77,127
24689,note_off,13,0,0,,4,,,76,127
24727,note_on,38,0,0,,4,,,76,127
24740,note_off,13,0,0,,5,,,77,127
24776,note_off,36,0,0,,0,,,60,127
24776,note_off,0,0,0,,7,,,67,127
24778,note_on,2,0,0,,5,,,53,127
24778,note_on,0,0,0,,7,,,79,127
24791,note_off,13,0,0,,4,,,76,127
24928,note_off,137,0,0,,7,,,79,127
24930,note_on,2,0,0,,5,,,77,127
24981,note_on,51,0,0,,7,,,79,127
24994,note_off,13,0,0,,5,,,77,127
25032,note_on,38,0,0,,5,,,77,127
25045,note_off,13,0,0,,7,,,79,127
25083,note_on,38,0,0,,7,,,79,127
25096,note_off,13,0,0,,5,,,77,127
25134,note_on,38,0,0,,5,,,77,127
25147,note_off,13,0,0,,7,,,79,127
25185,note_on,38,0,0,,7,,,79,127
25198,note_off,13,0,0,,5,,,77,127
25236,note_on,38,0,0,,5,,,77,127
25249,note_off,13,0,0,,7,,,79,127
25287,note_on,38,0,0,,7,,,79,127
25300,note_off,13,0,0,,5,,,77,127
25338,note_on,38,0,0,,5,,,77,127
25351,note_off,13,0,0,,7,,,79,127
25591,note_off,240,0,0,,5,,,77,127
25690,note_off,99,0,0,,5,,,53,127
25692,note_on,2,0,0,,0,,,60,127
25692,note_on,0,0,0,,10,,,57,127
25768,note_on,76,0,0,,0,,,72,127
25842,note_off,74,0,0,,0,,,72,127
25844,note_on,2,0,0,,11,,,70,127
25918,note_off,74,0,0,,11,,,70,127
25920,note_on,2,0,0,,10,,,69,127
25994,note_off,74,0,0,,10,,,69,127
25994,note_off,0,0,0,,10,,,57,127
25994,note_off,0,0,0,,0,,,60,127
25996,note_on,2,0,0,,10,,,57,127
25996,note_on,0,0,0,,0,,,60,127
25996,note_on,0,0,0,,7,,,67,127
26070,note_off,74,0,0,,7,,,67,127
26072,note_on,2,0,0,,5,,,65,127
26146,note_off,74,0,0,,5,,,65,127
26148,note_on,2,0,0,,7,,,67,127
26222,note_off,74,0,0,,7,,,67,127
26224,note_on,2,0,0,,10,,,69,127
26298,note_off,74,0,0,,10,,,69,127
26298,note_off,0,0,0,,0,,,60,127
26298,note_off,0,0,0,,10,,,57,127
26300,note_on,2,0,0,,10,,,57,127
26300,note_on,0,0,0,,0,,,60,127
26300,note_on,0,0,0,,11,,,70,127
26374,note_off,74,0,0,,11,,,70,127
26376,note_on,2,0,0,,12,,,71,127
26450,note_off,74,0,0,,12,,,71,127
26452,note_on,2,0,0,,0,,,72,127
26526,note_off,74,0,0,,0,,,72,127
26528,note_on,2,0,0,,1,,,73,127
26602,note_off,74,0,0,,1,,,73,127
26602,note_off,0,0,0,,0,,,60,127
26602,note_off,0,0,0,,10,,,57,127
26604,note_on,2,0,0,,11,,,58,127
26604,note_on,0,0,0,,5,,,65,127
26604,note_on,0,0,0,,2,,,74,127
26754,note_off,150,0,0,,2,,,74,127
26756,note_on,2,0,0,,4,,,76,127
26906,note_off,150,0,0,,4,,,76,127
26906,note_off,0,0,0,,5,,,65,127
26906,note_off,0,0,0,,11,,,58,127
26908,note_on,2,0,0,,5,,,65,127
26908,note_on,0,0,0,,11,,,58,127
26908,note_on,0,0,0,,5,,,77,127
27058,note_off,150,0,0,,5,,,77,127
27060,note_on,2,0,0,,7,,,79,127
27210,note_off,150,0,0,,7,,,79,127
27210,note_off,0,0,0,,11,,,58,127
27210,note_off,0,0,0,,5,,,65,127
27212,note_on,2,0,0,,5,,,65,127
27212,note_on,0,0,0,,11,,,58,127
27212,note_on,0,0,0,,10,,,81,127
27362,note_off,150,0,0,,10,,,81,127
27364,note_on,2,0,0,,11,,,82,127
27514,note_off,150,0,0,,11,,,82,127
27514,note_off,0,0,0,,11,,,58,127
27514,note_off,0,0,0,,5,,,65,127
27516,note_on,2,0,0,,5,,,65,127
27516,note_on,0,0,0,,0,,,60,127
27516,note_on,0,0,0,,10,,,69,127
27516,note_on,0,0,0,,12,,,83,127
27666,note_off,150,0,0,,12,,,83,127
27668,note_on,2,0,0,,0,,,84,127
27818,note_off,150,0,0,,0,,,84,127
27818,note_off,0,0,0,,10,,,69,127
27818,note_off,0,0,0,,0,,,60,127
27818,note_off,0,0,0,,5,,,65,127
27820,note_on,2,0,0,,10,,,69,127
27820,note_on,0,0,0,,5,,,65,127
27820,note_on,0,0,0,,0,,,60,127
27820,note_on,0,0,0,,5,,,77,127
28122,note_off,302,0,0,,0,,,60,127
28122,note_off,0,0,0,,5,,,65,127
28122,note_off,0,0,0,,10,,,69,127
28124,note_on,2,0,0,,0,,,60,127
28124,note_on,0,0,0,,7,,,67,127
28175,note_on,51,0,0,,4,,,76,127
28184,note_off,9,0,0,,5,,,77,127
28225,note_on,41,0,0,,5,,,77,127
28238,note_off,13,0,0,,4,,,76,127
28276,note_on,38,0,0,,4,,,76,127
28289,note_off,13,0,0,,5,,,77,127
28327,note_on,38,0,0,,5,,,77,127
28340,note_off,13,0,0,,4,,,76,127
28378,note_on,38,0,0,,4,,,76,127
28391,note_off,13,0,0,,5,,,77,127
28427,note_off,36,0,0,,7,,,67,127
28427,note_off,0,0,0,,0,,,60,127
28429,note_off,2,0,0,,4,,,76,127
28429,note_on,0,0,0,,5,,,53,127
28429,note_on,0,0,0,,7,,,79,127
28579,note_off,150,0,0,,7,,,79,127
28581,note_on,2,0,0,,5,,,77,127
28632,note_on,51,0,0,,7,,,79,127
28645,note_off,13,0,0,,5,,,77,127
28683,note_on,38,0,0,,5,,,77,127
28696,note_off,13,0,0,,7,,,79,127
28734,note_on,38,0,0,,7,,,79,127
28747,note_off,13,0,0,,5,,,77,127
28785,note_on,38,0,0,,5,,,77,127
28798,note_off,13,0,0,,7,,,79,127
28836,note_on,38,0,0,,7,,,79,127
28849,note_off,13,0,0,,5,,,77,127
28887,note_on,38,0,0,,5,,,77,127
28900,note_off,13,0,0,,7,,,79,127
28938,note_on,38,0,0,,7,,,79,127
28951,note_off,13,0,0,,5,,,77,127
28989,note_on,38,0,0,,5,,,77,127
29002,note_off,13,0,0,,7,,,79,127
29040,note_on,38,0,0,,7,,,79,127
29053,note_off,13,0,0,,5,,,77,127
29091,note_on,38,0,0,,5,,,77,127
29104,note_off,13,0,0,,7,,,79,127
29192,note_off,88,0,0,,5,,,53,127
29312,note_off,120,0,0,,5,,,77,127
29344,note_on,32,0,0,,11,,,58,127
29344,note_on,0,0,0,,11,,,82,127
29494,note_off,150,0,0,,11,,,82,127
29496,note_on,2,0,0,,5,,,77,127
29638,note_off,142,0,0,,5,,,77,127
29647,note_on,9,0,0,,5,,,77,127
29949,note_off,302,0,0,,11,,,58,127
29951,note_on,2,0,0,,2,,,62,127
30242,note_off,291,0,0,,5,,,77,127
30253,note_off,11,0,0,,2,,,62,127
30255,note_on,2,0,0,,3,,,63,127
30255,note_on,0,0,0,,6,,,78,127
30405,note_off,150,0,0,,6,,,78,127
30407,note_on,2,0,0,,7,,,79,127
30549,note_off,142,0,0,,7,,,79,127
30558,note_on,9,0,0,,7,,,79,127
30860,note_off,302,0,0,,3,,,63,127
30862,note_on,2,0,0,,2,,,62,127
31153,note_off,291,0,0,,7,,,79,127
31164,note_off,11,0,0,,2,,,62,127
31166,note_on,2,0,0,,0,,,60,127
31166,note_on,0,0,0,,3,,,75,127
31240,note_off,74,0,0,,3,,,75,127
31242,note_on,2,0,0,,2,,,74,127
31316,note_off,74,0,0,,2,,,74,127
31318,note_on,2,0,0,,0,,,72,127
31392,note_off,74,0,0,,0,,,72,127
31394,note_on,2,0,0,,11,,,70,127
31468,note_off,74,0,0,,11,,,70,127
31470,note_on,2,0,0,,10,,,69,127
31772,note_off,302,0,0,,0,,,60,127
31774,note_on,2,0,0,,0,,,60,127
31924,note_off,150,0,0,,10,,,69,127
31926,note_on,2,0,0,,3,,,75,127
32076,note_off,150,0,0,,3,,,75,127
32076,note_off,0,0,0,,0,,,60,127
32078,note_on,2,0,0,,2,,,62,127
32078,note_on,0,0,0,,4,,,76,127
32228,note_off,150,0,0,,4,,,76,127
32230,note_on,2,0,0,,5,,,77,127
32372,note_off,142,0,0,,5,,,77,127
32381,note_on,9,0,0,,5,,,77,127
32683,note_off,302,0,0,,2,,,62,127
32685,note_on,2,0,0,,11,,,58,127
32976,note_off,291,0,0,,5,,,77,127
32987,note_off,11,0,0,,11,,,58,127
32989,note_on,2,0,0,,10,,,57,127
32989,note_on,0,0,0,,0,,,72,127
33063,note_off,74,0,0,,0,,,72,127
33065,note_on,2,0,0,,11,,,70,127
33139,note_off,74,0,0,,11,,,70,127
33141,note_on,2,0,0,,10,,,69,127
33215,note_off,74,0,0,,10,,,69,127
33217,note_on,2,0,0,,7,,,67,127
33291,note_off,74,0,0,,7,,,67,127
33293,note_on,2,0,0,,5,,,65,127
33595,note_off,302,0,0,,10,,,57,127
33597,note_on,2,0,0,,5,,,53,127
33747,note_off,150,0,0,,5,,,65,127
33749,note_on,2,0,0,,0,,,72,127
33899,note_off,150,0,0,,0,,,72,127
33899,note_off,0,0,0,,5,,,53,127
33901,note_on,2,0,0,,11,,,58,127
33901,note_on,0,0,0,,1,,,73,127
34051,note_off,150,0,0,,1,,,73,127
34053,note_on,2,0,0,,2,,,74,127
34203,note_off,150,0,0,,2,,,74,127
34203,note_off,0,0,0,,11,,,58,127
34205,note_on,2,0,0,,0,,,60,127
34205,note_on,0,0,0,,3,,,75,127
34355,note_off,150,0,0,,3,,,75,127
34357,note_on,2,0,0,,4,,,76,127
34507,note_off,150,0,0,,4,,,76,127
34507,note_off,0,0,0,,0,,,60,127
34509,note_on,2,0,0,,2,,,62,127
34509,note_on,0,0,0,,5,,,77,127
34659,note_off,150,0,0,,5,,,77,127
34661,note_on,2,0,0,,6,,,78,127
34811,note_off,150,0,0,,6,,,78,127
34811,note_off,0,0,0,,2,,,62,127
34813,note_on,2,0,0,,3,,,63,127
34813,note_on,0,0,0,,7,,,79,127
34963,note_off,150,0,0,,7,,,79,127
34965,note_on,2,0,0,,10,,,81,127
35115,note_off,150,0,0,,10,,,81,127
35117,note_on,2,0,0,,11,,,82,127
35267,note_off,150,0,0,,11,,,82,127
35269,note_on,2,0,0,,2,,,74,127
35419,note_off,150,0,0,,2,,,74,127
35419,note_off,0,0,0,,3,,,63,127
35421,note_on,2,0,0,,11,,,58,127
35421,note_on,0,0,0,,0,,,72,127
35571,note_off,150,0,0,,0,,,72,127
35573,note_on,2,0,0,,11,,,70,127
35723,note_off,150,0,0,,11,,,70,127
35723,note_off,0,0,0,,11,,,58,127
35725,note_on,2,0,0,,5,,,53,127
35725,note_on,0,0,0,,2,,,74,127
35875,note_off,150,0,0,,2,,,74,127
35877,note_on,2,0,0,,0,,,72,127
35928,note_on,51,0,0,,2,,,74,127
35941,note_off,13,0,0,,0,,,72,127
35979,note_on,38,0,0,,0,,,72,127
35992,note_off,13,0,0,,2,,,74,127
36030,note_on,38,0,0,,2,,,74,127
36043,note_off,13,0,0,,0,,,72,127
36081,note_on,38,0,0,,0,,,72,127
36094,note_off,13,0,0,,2,,,74,127
36132,note_on,38,0,0,,2,,,74,127
36145,note_off,13,0,0,,0,,,72,127
36183,note_on,38,0,0,,0,,,72,127
36196,note_off,13,0,0,,2,,,74,127
36234,note_on,38,0,0,,2,,,74,127
36247,note_off,13,0,0,,0,,,72,127
36285,note_on,38,0,0,,0,,,72,127
36298,note_off,13,0,0,,2,,,74,127
36487,note_off,189,0,0,,5,,,53,127
36569,note_off,82,0,0,,0,,,72,127
36638,note_on,69,0,0,,3,,,63,127
36638,note_on,0,0,0,,11,,,58,127
36714,note_on,76,0,0,,10,,,69,127
36788,note_off,74,0,0,,10,,,69,127
36790,note_on,2,0,0,,7,,,67,127
36864,note_off,74,0,0,,7,,,67,127
36866,note_on,2,0,0,,5,,,65,127
36940,note_off,74,0,0,,5,,,65,127
36940,note_off,0,0,0,,11,,,58,127
36940,note_off,0,0,0,,3,,,63,127
36942,note_on,2,0,0,,11,,,58,127
36942,note_on,0,0,0,,3,,,63,127
37016,note_off,74,0,0,,3,,,63,127
37018,note_on,2,0,0,,2,,,62,127
37092,note_off,74,0,0,,2,,,62,127
37094,note_on,2,0,0,,3,,,63,127
37168,note_off,74,0,0,,3,,,63,127
37170,note_on,2,0,0,,5,,,65,127
37244,note_off,74,0,0,,5,,,65,127
37244,note_off,0,0,0,,11,,,58,127
37246,note_on,2,0,0,,11,,,58,127
37246,note_on,0,0,0,,3,,,63,127
37246,note_on,0,0,0,,7,,,67,127
37320,note_off,74,0,0,,7,,,67,127
37322,note_on,2,0,0,,10,,,69,127
37396,note_off,74,0,0,,10,,,69,127
37398,note_on,2,0,0,,11,,,70,127
37472,note_off,74,0,0,,11,,,70,127
37474,note_on,2,0,0,,0,,,72,127
37548,note_off,74,0,0,,0,,,72,127
37548,note_off,0,0,0,,3,,,63,127
37548,note_off,0,0,0,,11,,,58,127
37550,note_on,2,0,0,,2,,,62,127
37550,note_on,0,0,0,,5,,,65,127
37550,note_on,0,0,0,,2,,,74,127
37700,note_off,150,0,0,,2,,,74,127
37702,note_on,2,0,0,,3,,,75,127
37852,note_off,150,0,0,,5,,,65,127
37852,note_off,0,0,0,,2,,,62,127
37854,note_on,2,0,0,,3,,,63,127
37854,note_on,0,0,0,,0,,,60,127
38004,note_off,150,0,0,,3,,,75,127
38006,note_on,2,0,0,,4,,,76,127
38156,note_off,150,0,0,,0,,,60,127
38156,note_off,0,0,0,,3,,,63,127
38158,note_on,2,0,0,,11,,,58,127
38158,note_on,0,0,0,,2,,,62,127
38308,note_off,150,0,0,,4,,,76,127
38310,note_on,2,0,0,,5,,,77,127
38460,note_off,150,0,0,,2,,,62,127
38460,note_off,0,0,0,,11,,,58,127
38462,note_on,2,0,0,,10,,,57,127
38462,note_on,0,0,0,,0,,,60,127
38582,note_off,120,0,0,,5,,,77,127
38614,note_on,32,0,0,,0,,,72,127
38764,note_off,150,0,0,,0,,,60,127
38764,note_off,0,0,0,,10,,,57,127
38766,note_on,2,0,0,,5,,,53,127
38916,note_off,150,0,0,,0,,,72,127
38918,note_on,2,0,0,,10,,,69,127
39068,note_off,150,0,0,,5,,,53,127
39070,note_on,2,0,0,,10,,,57,127
39070,note_on,0,0,0,,0,,,60,127
39220,note_off,150,0,0,,10,,,69,127
39222,note_on,2,0,0,,3,,,63,127
39372,note_off,150,0,0,,3,,,63,127
39372,note_off,0,0,0,,0,,,60,127
39372,note_off,0,0,0,,10,,,57,127
39374,note_on,2,0,0,,11,,,58,127
39374,note_on,0,0,0,,5,,,65,127
39425,note_on,51,0,0,,3,,,63,127
39438,note_off,13,0,0,,5,,,65,127
39476,note_on,38,0,0,,5,,,65,127
39489,note_off,13,0,0,,3,,,63,127
39527,note_on,38,0,0,,3,,,63,127
39540,note_off,13,0,0,,5,,,65,127
39578,note_on,38,0,0,,5,,,65,127
39591,note_off,13,0,0,,3,,,63,127
39629,note_on,38,0,0,,3,,,63,127
39642,note_off,13,0,0,,5,,,65,127
39678,note_off,36,0,0,,11,,,58,127
39680,note_on,2,0,0,,11,,,46,127
39680,note_on,0,0,0,,5,,,65,127
39693,note_off,13,0,0,,3,,,63,127
39731,note_on,38,0,0,,3,,,63,127
39744,note_off,13,0,0,,5,,,65,127
39782,note_on,38,0,0,,5,,,65,127
39795,note_off,13,0,0,,3,,,63,127
39833,note_on,38,0,0,,3,,,63,127
39846,note_off,13,0,0,,5,,,65,127
39884,note_on,38,0,0,,2,,,62,127
39897,note_off,13,0,0,,3,,,63,127
39935,note_on,38,0,0,,3,,,63,127
39948,note_off,13,0,0,,2,,,62,127
39984,note_off,36,0,0,,11,,,46,127
39986,note_on,2,0,0,,11,,,34,127
39986,note_on,0,0,0,,2,,,62,127
39999,note_off,13,0,0,,3,,,63,127
40258,note_off,259,0,0,,2,,,62,127
40288,note_off,30,0,0,,11,,,34,127
40290,note_on,2,0,0,,11,,,58,127
40290,note_on,0,0,0,,3,,,63,127
40366,note_on,76,0,0,,10,,,69,127
40440,note_off,74,0,0,,10,,,69,127
40442,note_on,2,0,0,,7,,,67,127
40516,note_off,74,0,0,,7,,,67,127
40518,note_on,2,0,0,,5,,,65,127
40592,note_off,74,0,0,,5,,,65,127
40592,note_off,0,0,0,,3,,,63,127
40592,note_off,0,0,0,,11,,,58,127
40594,note_on,2,0,0,,11,,,58,127
40594,note_on,0,0,0,,3,,,63,127
40668,note_off,74,0,0,,3,,,63,127
40670,note_on,2,0,0,,2,,,62,127
40744,note_off,74,0,0,,2,,,62,127
40746,note_on,2,0,0,,3,,,63,127
40820,note_off,74,0,0,,3,,,63,127
40822,note_on,2,0,0,,5,,,65,127
40896,note_off,74,0,0,,5,,,65,127
40896,note_off,0,0,0,,11,,,58,127
40898,note_on,2,0,0,,11,,,58,127
40898,note_on,0,0,0,,3,,,63,127
40898,note_on,0,0,0,,7,,,67,127
40972,note_off,74,0,0,,7,,,67,127
40974,note_on,2,0,0,,10,,,69,127
41048,note_off,74,0,0,,10,,,69,127
41050,note_on,2,0,0,,11,,,70,127
41124,note_off,74,0,0,,11,,,70,127
41126,note_on,2,0,0,,0,,,72,127
41200,note_off,74,0,0,,0,,,72,127
41200,note_off,0,0,0,,3,,,63,127
41200,note_off,0,0,0,,11,,,58,127
41202,note_on,2,0,0,,5,,,65,127
41202,note_on,0,0,0,,2,,,62,127
41202,note_on,0,0,0,,2,,,74,127
41352,note_off,150,0,0,,2,,,74,127
41354,note_on,2,0,0,,3,,,75,127
41504,note_off,150,0,0,,2,,,62,127
41504,note_off,0,0,0,,5,,,65,127
41506,note_on,2,0,0,,0,,,60,127
41506,note_on,0,0,0,,3,,,63,127
41656,note_off,150,0,0,,3,,,75,127
41658,note_on,2,0,0,,4,,,76,127
41808,note_off,150,0,0,,3,,,63,127
41808,note_off,0,0,0,,0,,,60,127
41810,note_on,2,0,0,,11,,,58,127
41810,note_on,0,0,0,,2,,,62,127
41960,note_off,150,0,0,,4,,,76,127
41962,note_on,2,0,0,,5,,,77,127
42112,note_off,150,0,0,,2,,,62,127
42112,note_off,0,0,0,,11,,,58,127
42114,note_on,2,0,0,,10,,,57,127
42114,note_on,0,0,0,,0,,,60,127
42234,note_off,120,0,0,,5,,,77,127
42266,note_on,32,0,0,,0,,,72,127
42416,note_off,150,0,0,,0,,,60,127
42416,note_off,0,0,0,,10,,,57,127
42418,note_on,2,0,0,,5,,,53,127
42568,note_off,150,0,0,,0,,,72,127
42570,note_on,2,0,0,,10,,,69,127
42720,note_off,150,0,0,,5,,,53,127
42722,note_on,2,0,0,,10,,,57,127
42722,note_on,0,0,0,,0,,,60,127
42872,note_off,150,0,0,,10,,,69,127
42874,note_on,2,0,0,,3,,,63,127
43024,note_off,150,0,0,,3,,,63,127
43024,note_off,0,0,0,,0,,,60,127
43024,note_off,0,0,0,,10,,,57,127
43026,note_on,2,0,0,,11,,,58,127
43026,note_on,0,0,0,,5,,,65,127
43077,note_on,51,0,0,,3,,,63,127
43090,note_off,13,0,0,,5,,,65,127
43128,note_on,38,0,0,,5,,,65,127
43141,note_off,13,0,0,,3,,,63,127
43179,note_on,38,0,0,,3,,,63,127
43192,note_off,13,0,0,,5,,,65,127
43230,note_on,38,0,0,,5,,,65,127
43243,note_off,13,0,0,,3,,,63,127
43281,note_on,38,0,0,,3,,,63,127
43294,note_off,13,0,0,,5,,,65,127
43330,note_off,36,0,0,,11,,,58,127
43332,note_on,2,0,0,,11,,,46,127
43332,note_on,0,0,0,,5,,,65,127
43345,note_off,13,0,0,,3,,,63,127
43383,note_on,38,0,0,,3,,,63,127
43396,note_off,13,0,0,,5,,,65,127
43434,note_on,38,0,0,,5,,,65,127
43447,note_off,13,0,0,,3,,,63,127
43485,note_on,38,0,0,,3,,,63,127
43498,note_off,13,0,0,,5,,,65,127
43536,note_on,38,0,0,,2,,,62,127
43549,note_off,13,0,0,,3,,,63,127
43587,note_on,38,0,0,,3,,,63,127
43600,note_off,13,0,0,,2,,,62,127
43636,note_off,36,0,0,,11,,,46,127
43638,note_on,2,0,0,,11,,,34,127
43638,note_on,0,0,0,,2,,,62,127
43651,note_off,13,0,0,,3,,,63,127
43910,note_off,259,0,0,,2,,,62,127
43940,note_off,30,0,0,,11,,,34,127
43942,note_on,2,0,0,,2,,,50,127
43942,note_on,0,0,0,,5,,,53,127
44018,note_on,76,0,0,,5,,,65,127
44092,note_off,74,0,0,,5,,,65,127
44094,note_on,2,0,0,,3,,,63,127
44168,note_off,74,0,0,,3,,,63,127
44170,note_on,2,0,0,,2,,,62,127
44244,note_off,74,0,0,,2,,,62,127
44244,note_off,0,0,0,,5,,,53,127
44244,note_off,0,0,0,,2,,,50,127
44246,note_on,2,0,0,,2,,,50,127
44246,note_on,0,0,0,,5,,,53,127
44246,note_on,0,0,0,,0,,,60,127
44320,note_off,74,0,0,,0,,,60,127
44322,note_on,2,0,0,,11,,,58,127
44396,note_off,74,0,0,,11,,,58,127
44398,note_on,2,0,0,,0,,,60,127
44472,note_off,74,0,0,,0,,,60,127
44474,note_on,2,0,0,,2,,,62,127
44548,note_off,74,0,0,,2,,,62,127
44548,note_off,0,0,0,,5,,,53,127
44548,note_off,0,0,0,,2,,,50,127
44550,note_on,2,0,0,,2,,,50,127
44550,note_on,0,0,0,,5,,,53,127
44550,note_on,0,0,0,,3,,,63,127
44624,note_off,74,0,0,,3,,,63,127
44626,note_on,2,0,0,,4,,,64,127
44700,note_off,74,0,0,,4,,,64,127
44702,note_on,2,0,0,,5,,,65,127
44776,note_off,74,0,0,,5,,,65,127
44778,note_on,2,0,0,,6,,,66,127
44852,note_off,74,0,0,,6,,,66,127
44852,note_off,0,0,0,,5,,,53,127
44852,note_off,0,0,0,,2,,,50,127
44854,note_on,2,0,0,,7,,,55,127
44854,note_on,0,0,0,,3,,,51,127
44854,note_on,0,0,0,,7,,,67,127
45004,note_off,150,0,0,,7,,,67,127
45006,note_on,2,0,0,,10,,,69,127
45156,note_off,150,0,0,,10,,,69,127
45156,note_off,0,0,0,,3,,,51,127
45156,note_off,0,0,0,,7,,,55,127
45158,note_on,2,0,0,,7,,,55,127
45158,note_on,0,0,0,,3,,,51,127
45158,note_on,0,0,0,,11,,,70,127
45308,note_off,150,0,0,,11,,,70,127
45310,note_on,2,0,0,,0,,,72,127
45460,note_off,150,0,0,,0,,,72,127
45460,note_off,0,0,0,,3,,,51,127
45460,note_off,0,0,0,,7,,,55,127
45462,note_on,2,0,0,,7,,,55,127
45462,note_on,0,0,0,,3,,,51,127
45462,note_on,0,0,0,,2,,,74,127
45612,note_off,150,0,0,,2,,,74,127
45614,note_on,2,0,0,,3,,,75,127
45764,note_off,150,0,0,,3,,,75,127
45764,note_off,0,0,0,,3,,,51,127
45764,note_off,0,0,0,,7,,,55,127
45766,note_on,2,0,0,,5,,,53,127
45766,note_on,0,0,0,,4,,,76,127
45916,note_off,150,0,0,,4,,,76,127
45918,note_on,2,0,0,,5,,,77,127
46068,note_off,150,0,0,,5,,,77,127
46070,note_on,2,0,0,,11,,,70,127
46372,note_off,302,0,0,,5,,,53,127
46374,note_on,2,0,0,,5,,,41,127
46425,note_on,51,0,0,,10,,,69,127
46434,note_off,9,0,0,,11,,,70,127
46475,note_on,41,0,0,,11,,,70,127
46488,note_off,13,0,0,,10,,,69,127
46526,note_on,38,0,0,,10,,,69,127
46539,note_off,13,0,0,,11,,,70,127
46577,note_on,38,0,0,,7,,,67,127
46590,note_off,13,0,0,,10,,,69,127
46628,note_on,38,0,0,,10,,,69,127
46641,note_off,13,0,0,,7,,,67,127
46677,note_off,36,0,0,,5,,,41,127
46679,note_on,2,0,0,,11,,,46,127
46679,note_on,0,0,0,,11,,,70,127
46692,note_off,13,0,0,,10,,,69,127
47437,note_off,745,0,0,,11,,,70,127
47437,note_off,0,0,0,,11,,,46,127
47589,note_on,152,0,0,,2,,,62,127
47589,note_on,0,0,0,,5,,,65,127
47665,note_on,76,0,0,,5,,,77,127
47739,note_off,74,0,0,,5,,,77,127
47741,note_on,2,0,0,,3,,,75,127
47815,note_off,74,0,0,,3,,,75,127
47817,note_on,2,0,0,,2,,,74,127
47891,note_off,74,0,0,,2,,,74,127
47891,note_off,0,0,0,,5,,,65,127
47891,note_off,0,0,0,,2,,,62,127
47893,note_on,2,0,0,,2,,,62,127
47893,note_on,0,0,0,,5,,,65,127
47893,note_on,0,0,0,,0,,,72,127
47967,note_off,74,0,0,,0,,,72,127
47969,note_on,2,0,0,,11,,,70,127
48043,note_off,74,0,0,,11,,,70,127
48045,note_on,2,0,0,,0,,,72,127
48119,note_off,74,0,0,,0,,,72,127
48121,note_on,2,0,0,,2,,,74,127
48195,note_off,74,0,0,,2,,,74,127
48195,note_off,0,0,0,,5,,,65,127
48195,note_off,0,0,0,,2,,,62,127
48197,note_on,2,0,0,,2,,,62,127
48197,note_on,0,0,0,,5,,,65,127
48197,note_on,0,0,0,,3,,,75,127
48271,note_off,74,0,0,,3,,,75,127
48273,note_on,2,0,0,,4,,,76,127
48347,note_off,74,0,0,,4,,,76,127
48349,note_on,2,0,0,,5,,,77,127
48423,note_off,74,0,0,,5,,,77,127
48425,note_on,2,0,0,,6,,,78,127
48499,note_off,74,0,0,,6,,,78,127
48499,note_off,0,0,0,,5,,,65,127
48499,note_off,0,0,0,,2,,,62,127
48501,note_on,2,0,0,,3,,,63,127
48501,note_on,0,0,0,,7,,,67,127
48501,note_on,0,0,0,,7,,,79,127
48651,note_off,150,0,0,,7,,,79,127
48653,note_on,2,0,0,,10,,,81,127
48803,note_off,150,0,0,,10,,,81,127
48803,note_off,0,0,0,,7,,,67,127
48803,note_off,0,0,0,,3,,,63,127
48805,note_on,2,0,0,,7,,,67,127
48805,note_on,0,0,0,,3,,,63,127
48805,note_on,0,0,0,,11,,,82,127
48955,note_off,150,0,0,,11,,,82,127
48957,note_on,2,0,0,,0,,,84,127
49107,note_off,150,0,0,,0,,,84,127
49107,note_off,0,0,0,,3,,,63,127
49107,note_off,0,0,0,,7,,,67,127
49109,note_on,2,0,0,,3,,,63,127
49109,note_on,0,0,0,,7,,,67,127
49109,note_on,0,0,0,,2,,,86,127
49259,note_off,150,0,0,,2,,,86,127
49261,note_on,2,0,0,,3,,,87,127
49411,note_off,150,0,0,,3,,,87,127
49411,note_off,0,0,0,,7,,,67,127
49411,note_off,0,0,0,,3,,,63,127
49413,note_on,2,0,0,,5,,,65,127
49413,note_on,0,0,0,,4,,,88,127
49563,note_off,150,0,0,,4,,,88,127
49565,note_on,2,0,0,,5,,,89,127
49715,note_off,150,0,0,,5,,,89,127
49717,note_on,2,0,0,,11,,,82,127
50019,note_off,302,0,0,,5,,,65,127
50021,note_on,2,0,0,,5,,,53,127
50072,note_on,51,0,0,,10,,,81,127
50081,note_off,9,0,0,,11,,,82,127
50122,note_on,41,0,0,,11,,,82,127
50135,note_off,13,0,0,,10,,,81,127
50173,note_on,38,0,0,,10,,,81,127
50186,note_off,13,0,0,,11,,,82,127
50224,note_on,38,0,0,,7,,,79,127
50237,note_off,13,0,0,,10,,,81,127
50275,note_on,38,0,0,,10,,,81,127
50288,note_off,13,0,0,,7,,,79,127
50324,note_off,36,0,0,,5,,,53,127
50326,note_on,2,0,0,,11,,,46,127
50326,note_on,0,0,0,,11,,,82,127
50329,note_off,3,0,0,,10,,,81,127
50400,note_off,71,0,0,,11,,,82,127
50402,note_on,2,0,0,,2,,,86,127
50476,note_off,74,0,0,,2,,,86,127
50478,note_on,2,0,0,,11,,,82,127
50552,note_off,74,0,0,,11,,,82,127
50554,note_on,2,0,0,,5,,,77,127
50628,note_off,74,0,0,,5,,,77,127
50630,note_on,2,0,0,,2,,,74,127
50704,note_off,74,0,0,,2,,,74,127
50706,note_on,2,0,0,,11,,,70,127
50780,note_off,74,0,0,,11,,,70,127
50782,note_on,2,0,0,,5,,,65,127
50856,note_off,74,0,0,,5,,,65,127
50858,note_on,2,0,0,,2,,,62,127
50932,note_off,74,0,0,,2,,,62,127
50932,note_off,0,0,0,,11,,,46,127
50934,note_on,2,0,0,,11,,,58,127
51008,note_off,74,0,0,,11,,,58,127
51010,note_on,2,0,0,,5,,,53,127
51084,note_off,74,0,0,,5,,,53,127
51086,note_on,2,0,0,,2,,,50,127
51160,note_off,74,0,0,,2,,,50,127
51162,note_on,2,0,0,,11,,,46,127
51236,note_off,74,0,0,,11,,,46,127
51238,note_on,2,0,0,,11,,,34,127
51540,note_off,302,0,0,,11,,,34,127
51542,note_on,2,0,0,,5,,,41,127
51542,note_on,0,0,0,,11,,,70,127
51542,note_on,0,0,0,,2,,,74,127
51593,note_on,51,0,0,,0,,,72,127
51593,note_on,0,0,0,,10,,,69,127
51606,note_off,13,0,0,,2,,,74,127
51606,note_off,0,0,0,,11,,,70,127
51644,note_on,38,0,0,,2,,,74,127
51644,note_on,0,0,0,,11,,,70,127
51657,note_off,13,0,0,,10,,,69,127
51657,note_off,0,0,0,,0,,,72,127
51695,note_on,38,0,0,,0,,,72,127
51695,note_on,0,0,0,,10,,,69,127
51708,note_off,13,0,0,,11,,,70,127
51708,note_off,0,0,0,,2,,,74,127
51746,note_on,38,0,0,,2,,,74,127
51746,note_on,0,0,0,,11,,,70,127
51759,note_off,13,0,0,,10,,,69,127
51759,note_off,0,0,0,,0,,,72,127
51797,note_on,38,0,0,,0,,,72,127
51797,note_on,0,0,0,,10,,,69,127
51810,note_off,13,0,0,,11,,,70,127
51810,note_off,0,0,0,,2,,,74,127
51846,note_off,36,0,0,,5,,,41,127
51848,note_on,2,0,0,,5,,,41,127
51848,note_on,0,0,0,,2,,,74,127
51848,note_on,0,0,0,,11,,,70,127
51861,note_off,13,0,0,,10,,,69,127
51861,note_off,0,0,0,,0,,,72,127
51899,note_on,38,0,0,,0,,,72,127
51899,note_on,0,0,0,,10,,,69,127
51912,note_off,13,0,0,,11,,,70,127
51912,note_off,0,0,0,,2,,,74,127
51950,note_on,38,0,0,,2,,,74,127
51950,note_on,0,0,0,,11,,,70,127
51963,note_off,13,0,0,,10,,,69,127
51963,note_off,0,0,0,,0,,,72,127
52001,note_on,38,0,0,,0,,,72,127
52001,note_on,0,0,0,,10,,,69,127
52014,note_off,13,0,0,,11,,,70,127
52014,note_off,0,0,0,,2,,,74,127
52101,note_off,87,0,0,,10,,,69,127
52101,note_off,0,0,0,,0,,,72,127
52152,note_off,51,0,0,,5,,,41,127
52154,note_on,2,0,0,,11,,,46,127
52154,note_on,0,0,0,,11,,,82,127
52228,note_off,74,0,0,,11,,,82,127
52230,note_on,2,0,0,,2,,,86,127
52304,note_off,74,0,0,,2,,,86,127
52306,note_on,2,0,0,,11,,,82,127
52380,note_off,74,0,0,,11,,,82,127
52382,note_on,2,0,0,,5,,,77,127
52456,note_off,74,0,0,,5,,,77,127
52458,note_on,2,0,0,,2,,,74,127
52532,note_off,74,0,0,,2,,,74,127
52534,note_on,2,0,0,,11,,,70,127
52608,note_off,74,0,0,,11,,,70,127
52610,note_on,2,0,0,,5,,,65,127
52684,note_off,74,0,0,,5,,,65,127
52686,note_on,2,0,0,,2,,,62,127
52760,note_off,74,0,0,,2,,,62,127
52760,note_off,0,0,0,,11,,,46,127
52762,note_on,2,0,0,,11,,,58,127
52836,note_off,74,0,0,,11,,,58,127
52838,note_on,2,0,0,,5,,,53,127
52912,note_off,74,0,0,,5,,,53,127
52914,note_on,2,0,0,,2,,,50,127
52988,note_off,74,0,0,,2,,,50,127
52990,note_on,2,0,0,,11,,,46,127
53064,note_off,74,0,0,,11,,,46,127
53066,note_on,2,0,0,,11,,,34,127
53368,note_off,302,0,0,,11,,,34,127
53370,note_on,2,0,0,,5,,,41,127
53370,note_on,0,0,0,,2,,,74,127
53370,note_on,0,0,0,,11,,,70,127
53421,note_on,51,0,0,,0,,,72,127
53421,note_on,0,0,0,,10,,,69,127
53434,note_off,13,0,0,,11,,,70,127
53434,note_off,0,0,0,,2,,,74,127
53472,note_on,38,0,0,,2,,,74,127
53472,note_on,0,0,0,,11,,,70,127
53485,note_off,13,0,0,,10,,,69,127
53485,note_off,0,0,0,,0,,,72,127
53523,note_on,38,0,0,,0,,,72,127
53523,note_on,0,0,0,,10,,,69,127
53536,note_off,13,0,0,,11,,,70,127
53536,note_off,0,0,0,,2,,,74,127
53574,note_on,38,0,0,,2,,,74,127
53574,note_on,0,0,0,,11,,,70,127
53587,note_off,13,0,0,,10,,,69,127
53587,note_off,0,0,0,,0,,,72,127
53625,note_on,38,0,0,,0,,,72,127
53625,note_on,0,0,0,,10,,,69,127
53638,note_off,13,0,0,,11,,,70,127
53638,note_off,0,0,0,,2,,,74,127
53674,note_off,36,0,0,,5,,,41,127
53676,note_on,2,0,0,,5,,,41,127
53676,note_on,0,0,0,,2,,,74,127
53676,note_on,0,0,0,,11,,,70,127
53689,note_off,13,0,0,,10,,,69,127
53689,note_off,0,0,0,,0,,,72,127
53727,note_on,38,0,0,,0,,,72,127
53727,note_on,0,0,0,,10,,,69,127
53740,note_off,13,0,0,,11,,,70,127
53740,note_off,0,0,0,,2,,,74,127
53778,note_on,38,0,0,,2,,,74,127
53778,note_on,0,0,0,,11,,,70,127
53791,note_off,13,0,0,,10,,,69,127
53791,note_off,0,0,0,,0,,,72,127
53829,note_on,38,0,0,,0,,,72,127
53829,note_on,0,0,0,,10,,,69,127
53842,note_off,13,0,0,,11,,,70,127
53842,note_off,0,0,0,,2,,,74,127
53880,note_on,38,0,0,,11,,,70,127
53893,note_off,13,0,0,,10,,,69,127
53893,note_off,0,0,0,,0,,,72,127
53931,note_on,38,0,0,,0,,,72,127
53944,note_off,13,0,0,,11,,,70,127
53980,note_off,36,0,0,,5,,,41,127
53982,note_on,2,0,0,,11,,,34,127
53982,note_on,0,0,0,,11,,,70,127
53995,note_off,13,0,0,,0,,,72,127
55953,note_off,1958,0,0,,11,,,70,127
55953,note_off,0,0,0,,11,,,34,127
56832,end_of_track,879,1,0,,,,,,
