tick,type,time,meta,track,program,channel,pitch,tempo,note,velocity
0,copyright,0,1,0,,,,,,
0,program_change,0,0,0,6,0,,,,
0,pitchwheel,0,0,0,,0,0,,,
0,program_change,0,0,0,6,1,,,,
0,pitchwheel,0,0,0,,1,-590,,,
0,program_change,0,0,0,6,2,,,,
0,pitchwheel,0,0,0,,2,-272,,,
0,program_change,0,0,0,6,3,,,,
0,pitchwheel,0,0,0,,3,-353,,,
0,program_change,0,0,0,6,4,,,,
0,pitchwheel,0,0,0,,4,-560,,,
0,program_change,0,0,0,6,5,,,,
0,pitchwheel,0,0,0,,5,-80,,,
0,program_change,0,0,0,6,6,,,,
0,pitchwheel,0,0,0,,6,-625,,,
0,program_change,0,0,0,6,7,,,,
0,pitchwheel,0,0,0,,7,-130,,,
0,program_change,0,0,0,6,8,,,,
0,pitchwheel,0,0,0,,8,-512,,,
0,program_change,0,0,0,6,10,,,,
0,pitchwheel,0,0,0,,10,-464,,,
0,program_change,0,0,0,6,11,,,,
0,pitchwheel,0,0,0,,11,-208,,,
0,program_change,0,0,0,6,12,,,,
0,pitchwheel,0,0,0,,12,-553,,,
0,set_tempo,0,1,0,,,,500000,,
110,note_on,110,0,0,,11,,,46,127
329,note_on,219,0,0,,5,,,77,127
438,note_off,109,0,0,,5,,,77,127
439,note_on,1,0,0,,2,,,74,127
548,note_off,109,0,0,,2,,,74,127
549,note_on,1,0,0,,5,,,77,127
767,note_off,218,0,0,,5,,,77,127
767,note_off,0,0,0,,11,,,46,127
768,note_on,1,0,0,,11,,,58,127
768,note_on,0,0,0,,11,,,82,127
986,note_off,218,0,0,,11,,,82,127
986,note_off,0,0,0,,11,,,58,127
987,note_on,1,0,0,,11,,,46,127
987,note_on,0,0,0,,5,,,77,127
1205,note_off,218,0,0,,5,,,77,127
1206,note_on,1,0,0,,5,,,77,127
1315,note_off,109,0,0,,5,,,77,127
1316,note_on,1,0,0,,2,,,74,127
1425,note_off,109,0,0,,2,,,74,127
1426,note_on,1,0,0,,5,,,77,127
1644,note_off,218,0,0,,5,,,77,127
1644,note_off,0,0,0,,11,,,46,127
1645,note_on,1,0,0,,11,,,58,127
1645,note_on,0,0,0,,11,,,82,127
1863,note_off,218,0,0,,11,,,82,127
1863,note_off,0,0,0,,11,,,58,127
1864,note_on,1,0,0,,11,,,46,127
1864,note_on,0,0,0,,5,,,77,127
2082,note_off,218,0,0,,5,,,77,127
2083,note_on,1,0,0,,5,,,77,127
2192,note_off,109,0,0,,5,,,77,127
2193,note_on,1,0,0,,2,,,74,127
2302,note_off,109,0,0,,2,,,74,127
2303,note_on,1,0,0,,5,,,77,127
2521,note_off,218,0,0,,5,,,77,127
2521,note_off,0,0,0,,11,,,46,127
2522,note_on,1,0,0,,11,,,58,127
2522,note_on,0,0,0,,11,,,82,127
2740,note_off,218,0,0,,11,,,82,127
2740,note_off,0,0,0,,11,,,58,127
2741,note_on,1,0,0,,3,,,51,127
2741,note_on,0,0,0,,0,,,72,127
2959,note_off,218,0,0,,0,,,72,127
2960,note_on,1,0,0,,2,,,74,127
3069,note_off,109,0,0,,2,,,74,127
3070,note_on,1,0,0,,3,,,75,127
3179,note_off,109,0,0,,3,,,75,127
3179,note_off,0,0,0,,3,,,51,127
3180,note_on,1,0,0,,5,,,53,127
3180,note_on,0,0,0,,2,,,74,127
3289,note_off,109,0,0,,2,,,74,127
3290,note_on,1,0,0,,0,,,72,127
3399,note_off,109,0,0,,0,,,72,127
3400,note_on,1,0,0,,11,,,70,127
3509,note_off,109,0,0,,11,,,70,127
3510,note_on,1,0,0,,10,,,69,127
3619,note_off,109,0,0,,10,,,69,127
3619,note_off,0,0,0,,5,,,53,127
3620,note_on,1,0,0,,11,,,46,127
3620,note_on,0,0,0,,11,,,70,127
3838,note_off,218,0,0,,11,,,70,127
3839,note_on,1,0,0,,5,,,77,127
3948,note_off,109,0,0,,5,,,77,127
3949,note_on,1,0,0,,2,,,74,127
4058,note_off,109,0,0,,2,,,74,127
4059,note_on,1,0,0,,5,,,77,127
4277,note_off,218,0,0,,5,,,77,127
4277,note_off,0,0,0,,11,,,46,127
4278,note_on,1,0,0,,11,,,58,127
4278,note_on,0,0,0,,11,,,82,127
4496,note_off,218,0,0,,11,,,82,127
4496,note_off,0,0,0,,11,,,58,127
4497,note_on,1,0,0,,3,,,51,127
4497,note_on,0,0,0,,0,,,72,127
4715,note_off,218,0,0,,0,,,72,127
4716,note_on,1,0,0,,2,,,74,127
4825,note_off,109,0,0,,2,,,74,127
4826,note_on,1,0,0,,3,,,75,127
4935,note_off,109,0,0,,3,,,75,127
4935,note_off,0,0,0,,3,,,51,127
4936,note_on,1,0,0,,5,,,53,127
4936,note_on,0,0,0,,2,,,74,127
5045,note_off,109,0,0,,2,,,74,127
5046,note_on,1,0,0,,0,,,72,127
5155,note_off,109,0,0,,0,,,72,127
5156,note_on,1,0,0,,11,,,70,127
5265,note_off,109,0,0,,11,,,70,127
5266,note_on,1,0,0,,10,,,69,127
5375,note_off,109,0,0,,10,,,69,127
5375,note_off,0,0,0,,5,,,53,127
5376,note_on,1,0,0,,11,,,46,127
5376,note_on,0,0,0,,11,,,70,127
5594,note_off,218,0,0,,11,,,70,127
5594,note_off,0,0,0,,11,,,46,127
5595,note_on,1,0,0,,5,,,65,127
5595,note_on,0,0,0,,5,,,77,127
5704,note_off,109,0,0,,5,,,77,127
5705,note_on,1,0,0,,2,,,74,127
5814,note_off,109,0,0,,2,,,74,127
5814,note_off,0,0,0,,5,,,65,127
5815,note_on,1,0,0,,5,,,53,127
5815,note_on,0,0,0,,3,,,75,127
6033,note_off,218,0,0,,3,,,75,127
6033,note_off,0,0,0,,5,,,53,127
6034,note_on,1,0,0,,5,,,65,127
6034,note_on,0,0,0,,5,,,77,127
6143,note_off,109,0,0,,5,,,77,127
6144,note_on,1,0,0,,0,,,72,127
6253,note_off,109,0,0,,0,,,72,127
6253,note_off,0,0,0,,5,,,65,127
6254,note_on,1,0,0,,11,,,46,127
6254,note_on,0,0,0,,2,,,74,127
6472,note_off,218,0,0,,2,,,74,127
6472,note_off,0,0,0,,11,,,46,127
6473,note_on,1,0,0,,5,,,65,127
6473,note_on,0,0,0,,5,,,77,127
6582,note_off,109,0,0,,5,,,77,127
6583,note_on,1,0,0,,2,,,74,127
6692,note_off,109,0,0,,2,,,74,127
6692,note_off,0,0,0,,5,,,65,127
6693,note_on,1,0,0,,5,,,53,127
6693,note_on,0,0,0,,3,,,75,127
6911,note_off,218,0,0,,3,,,75,127
6911,note_off,0,0,0,,5,,,53,127
6912,note_on,1,0,0,,5,,,65,127
6912,note_on,0,0,0,,5,,,77,127
7021,note_off,109,0,0,,5,,,77,127
7022,note_on,1,0,0,,10,,,69,127
7131,note_off,109,0,0,,10,,,69,127
7131,note_off,0,0,0,,5,,,65,127
7132,note_on,1,0,0,,11,,,46,127
7132,note_on,0,0,0,,11,,,70,127
7350,note_off,218,0,0,,11,,,70,127
7350,note_off,0,0,0,,11,,,46,127
7351,note_on,1,0,0,,5,,,65,127
7351,note_on,0,0,0,,5,,,77,127
7460,note_off,109,0,0,,5,,,77,127
7461,note_on,1,0,0,,2,,,74,127
7570,note_off,109,0,0,,2,,,74,127
7570,note_off,0,0,0,,5,,,65,127
7571,note_on,1,0,0,,5,,,53,127
7571,note_on,0,0,0,,3,,,75,127
7789,note_off,218,0,0,,3,,,75,127
7789,note_off,0,0,0,,5,,,53,127
7790,note_on,1,0,0,,5,,,65,127
7790,note_on,0,0,0,,5,,,77,127
7899,note_off,109,0,0,,5,,,77,127
7900,note_on,1,0,0,,0,,,72,127
8009,note_off,109,0,0,,0,,,72,127
8009,note_off,0,0,0,,5,,,65,127
8010,note_on,1,0,0,,11,,,46,127
8010,note_on,0,0,0,,2,,,74,127
8228,note_off,218,0,0,,2,,,74,127
8228,note_off,0,0,0,,11,,,46,127
8229,note_on,1,0,0,,5,,,65,127
8229,note_on,0,0,0,,5,,,77,127
8338,note_off,109,0,0,,5,,,77,127
8339,note_on,1,0,0,,2,,,74,127
8448,note_off,109,0,0,,2,,,74,127
8448,note_off,0,0,0,,5,,,65,127
8449,note_on,1,0,0,,5,,,53,127
8449,note_on,0,0,0,,3,,,75,127
8667,note_off,218,0,0,,3,,,75,127
8667,note_off,0,0,0,,5,,,53,127
8668,note_on,1,0,0,,5,,,65,127
8668,note_on,0,0,0,,5,,,77,127
8777,note_off,109,0,0,,5,,,77,127
8778,note_on,1,0,0,,10,,,69,127
8887,note_off,109,0,0,,10,,,69,127
8887,note_off,0,0,0,,5,,,65,127
8888,note_on,1,0,0,,11,,,46,127
8888,note_on,0,0,0,,2,,,74,127
9106,note_off,218,0,0,,2,,,74,127
9106,note_off,0,0,0,,11,,,46,127
9107,note_on,1,0,0,,10,,,45,127
9107,note_on,0,0,0,,0,,,72,127
9325,note_off,218,0,0,,0,,,72,127
9325,note_off,0,0,0,,10,,,45,127
9326,note_on,1,0,0,,7,,,43,127
9326,note_on,0,0,0,,0,,,72,127
9398,note_off,72,0,0,,0,,,72,127
9399,note_on,1,0,0,,11,,,70,127
9471,note_off,72,0,0,,11,,,70,127
9472,note_on,1,0,0,,0,,,72,127
9544,note_off,72,0,0,,0,,,72,127
9544,note_off,0,0,0,,7,,,43,127
9545,note_on,1,0,0,,0,,,48,127
9545,note_on,0,0,0,,11,,,70,127
9617,note_off,72,0,0,,11,,,70,127
9618,note_on,1,0,0,,0,,,72,127
9690,note_off,72,0,0,,0,,,72,127
9691,note_on,1,0,0,,11,,,70,127
9763,note_off,72,0,0,,11,,,70,127
9763,note_off,0,0,0,,0,,,48,127
9764,note_on,1,0,0,,5,,,41,127
9764,note_on,0,0,0,,10,,,69,127
9982,note_off,218,0,0,,10,,,69,127
9982,note_off,0,0,0,,5,,,41,127
9983,note_on,1,0,0,,0,,,60,127
9983,note_on,0,0,0,,0,,,72,127
10092,note_off,109,0,0,,0,,,72,127
10093,note_on,1,0,0,,10,,,69,127
10202,note_off,109,0,0,,10,,,69,127
10202,note_off,0,0,0,,0,,,60,127
10203,note_on,1,0,0,,0,,,48,127
10203,note_on,0,0,0,,11,,,70,127
10421,note_off,218,0,0,,11,,,70,127
10421,note_off,0,0,0,,0,,,48,127
10422,note_on,1,0,0,,0,,,60,127
10422,note_on,0,0,0,,0,,,72,127
10531,note_off,109,0,0,,0,,,72,127
10532,note_on,1,0,0,,7,,,67,127
10641,note_off,109,0,0,,7,,,67,127
10641,note_off,0,0,0,,0,,,60,127
10642,note_on,1,0,0,,5,,,41,127
10642,note_on,0,0,0,,10,,,69,127
10860,note_off,218,0,0,,10,,,69,127
10860,note_off,0,0,0,,5,,,41,127
10861,note_on,1,0,0,,0,,,60,127
10861,note_on,0,0,0,,0,,,72,127
10970,note_off,109,0,0,,0,,,72,127
10971,note_on,1,0,0,,10,,,69,127
11080,note_off,109,0,0,,10,,,69,127
11080,note_off,0,0,0,,0,,,60,127
11081,note_on,1,0,0,,0,,,48,127
11081,note_on,0,0,0,,11,,,70,127
11299,note_off,218,0,0,,11,,,70,127
11299,note_off,0,0,0,,0,,,48,127
11300,note_on,1,0,0,,0,,,60,127
11300,note_on,0,0,0,,0,,,72,127
11409,note_off,109,0,0,,0,,,72,127
11410,note_on,1,0,0,,4,,,64,127
11519,note_off,109,0,0,,4,,,64,127
11519,note_off,0,0,0,,0,,,60,127
11520,note_on,1,0,0,,5,,,41,127
11520,note_on,0,0,0,,5,,,65,127
11738,note_off,218,0,0,,5,,,65,127
11738,note_off,0,0,0,,5,,,41,127
11739,note_on,1,0,0,,0,,,60,127
11739,note_on,0,0,0,,0,,,72,127
11848,note_off,109,0,0,,0,,,72,127
11849,note_on,1,0,0,,10,,,69,127
11958,note_off,109,0,0,,10,,,69,127
11958,note_off,0,0,0,,0,,,60,127
11959,note_on,1,0,0,,0,,,48,127
11959,note_on,0,0,0,,11,,,70,127
12177,note_off,218,0,0,,11,,,70,127
12177,note_off,0,0,0,,0,,,48,127
12178,note_on,1,0,0,,0,,,60,127
12178,note_on,0,0,0,,0,,,72,127
12287,note_off,109,0,0,,0,,,72,127
12288,note_on,1,0,0,,7,,,67,127
12397,note_off,109,0,0,,7,,,67,127
12397,note_off,0,0,0,,0,,,60,127
12398,note_on,1,0,0,,5,,,41,127
12398,note_on,0,0,0,,10,,,69,127
12616,note_off,218,0,0,,10,,,69,127
12616,note_off,0,0,0,,5,,,41,127
12617,note_on,1,0,0,,0,,,60,127
12617,note_on,0,0,0,,0,,,72,127
12726,note_off,109,0,0,,0,,,72,127
12727,note_on,1,0,0,,10,,,69,127
12836,note_off,109,0,0,,10,,,69,127
12836,note_off,0,0,0,,0,,,60,127
12837,note_on,1,0,0,,0,,,48,127
12837,note_on,0,0,0,,11,,,70,127
13055,note_off,218,0,0,,11,,,70,127
13055,note_off,0,0,0,,0,,,48,127
13056,note_on,1,0,0,,0,,,60,127
13056,note_on,0,0,0,,0,,,72,127
13165,note_off,109,0,0,,0,,,72,127
13166,note_on,1,0,0,,4,,,64,127
13275,note_off,109,0,0,,4,,,64,127
13275,note_off,0,0,0,,0,,,60,127
13276,note_on,1,0,0,,5,,,41,127
13276,note_on,0,0,0,,5,,,65,127
13494,note_off,218,0,0,,5,,,65,127
13494,note_off,0,0,0,,5,,,41,127
13495,note_on,1,0,0,,10,,,57,127
13495,note_on,0,0,0,,5,,,77,127
13604,note_off,109,0,0,,5,,,77,127
13605,note_on,1,0,0,,0,,,72,127
13714,note_off,109,0,0,,0,,,72,127
13714,note_off,0,0,0,,10,,,57,127
13715,note_on,1,0,0,,11,,,58,127
13715,note_on,0,0,0,,2,,,74,127
13933,note_off,218,0,0,,2,,,74,127
13933,note_off,0,0,0,,11,,,58,127
13934,note_on,1,0,0,,10,,,57,127
13934,note_on,0,0,0,,5,,,77,127
14043,note_off,109,0,0,,5,,,77,127
14044,note_on,1,0,0,,10,,,69,127
14153,note_off,109,0,0,,10,,,69,127
14153,note_off,0,0,0,,10,,,57,127
14154,note_on,1,0,0,,7,,,55,127
14154,note_on,0,0,0,,11,,,70,127
14372,note_off,218,0,0,,11,,,70,127
14372,note_off,0,0,0,,7,,,55,127
14373,note_on,1,0,0,,5,,,53,127
14373,note_on,0,0,0,,5,,,77,127
14482,note_off,109,0,0,,5,,,77,127
14483,note_on,1,0,0,,5,,,65,127
14592,note_off,109,0,0,,5,,,65,127
14592,note_off,0,0,0,,5,,,53,127
14593,note_on,1,0,0,,4,,,52,127
14593,note_on,0,0,0,,7,,,67,127
14811,note_off,218,0,0,,7,,,67,127
14811,note_off,0,0,0,,4,,,52,127
14812,note_on,1,0,0,,2,,,50,127
14812,note_on,0,0,0,,5,,,77,127
14921,note_off,109,0,0,,5,,,77,127
14922,note_on,1,0,0,,2,,,62,127
15031,note_off,109,0,0,,2,,,62,127
15031,note_off,0,0,0,,2,,,50,127
15032,note_on,1,0,0,,0,,,48,127
15032,note_on,0,0,0,,4,,,64,127
15226,note_off,194,0,0,,4,,,64,127
15250,note_off,24,0,0,,0,,,48,127
15251,note_on,1,0,0,,11,,,46,127
15251,note_on,0,0,0,,2,,,74,127
15469,note_off,218,0,0,,11,,,46,127
15470,note_on,1,0,0,,10,,,45,127
15688,note_off,218,0,0,,10,,,45,127
15688,note_off,0,0,0,,2,,,74,127
15689,note_on,1,0,0,,7,,,43,127
15689,note_on,0,0,0,,0,,,72,127
15798,note_off,109,0,0,,0,,,72,127
15799,note_on,1,0,0,,11,,,70,127
15900,note_off,101,0,0,,11,,,70,127
15908,note_off,8,0,0,,7,,,43,127
15909,note_on,1,0,0,,5,,,41,127
15909,note_on,0,0,0,,10,,,81,127
16018,note_off,109,0,0,,10,,,81,127
16019,note_on,1,0,0,,7,,,79,127
16128,note_off,109,0,0,,7,,,79,127
16129,note_on,1,0,0,,5,,,77,127
16238,note_off,109,0,0,,5,,,77,127
16239,note_on,1,0,0,,4,,,76,127
16348,note_off,109,0,0,,4,,,76,127
16348,note_off,0,0,0,,5,,,41,127
16349,note_on,1,0,0,,11,,,46,127
16349,note_on,0,0,0,,2,,,74,127
16458,note_off,109,0,0,,2,,,74,127
16459,note_on,1,0,0,,0,,,72,127
16568,note_off,109,0,0,,0,,,72,127
16569,note_on,1,0,0,,11,,,70,127
16678,note_off,109,0,0,,11,,,70,127
16679,note_on,1,0,0,,10,,,69,127
16788,note_off,109,0,0,,10,,,69,127
16788,note_off,0,0,0,,11,,,46,127
16789,note_on,1,0,0,,0,,,36,127
16789,note_on,0,0,0,,10,,,69,127
16843,note_off,54,0,0,,10,,,69,127
16844,note_on,1,0,0,,7,,,67,127
16898,note_off,54,0,0,,7,,,67,127
16899,note_on,1,0,0,,10,,,69,127
16953,note_off,54,0,0,,10,,,69,127
16954,note_on,1,0,0,,7,,,67,127
17452,note_off,498,0,0,,7,,,67,127
17666,note_off,214,0,0,,0,,,36,127
18106,note_on,440,0,0,,5,,,65,127
18324,note_off,218,0,0,,5,,,65,127
18325,note_on,1,0,0,,3,,,75,127
18325,note_on,0,0,0,,0,,,84,127
18434,note_off,109,0,0,,0,,,84,127
18435,note_on,1,0,0,,10,,,81,127
18544,note_off,109,0,0,,10,,,81,127
18545,note_on,1,0,0,,6,,,78,127
18763,note_off,218,0,0,,6,,,78,127
18763,note_off,0,0,0,,3,,,75,127
18764,note_on,1,0,0,,1,,,73,127
18764,note_on,0,0,0,,5,,,77,127
18873,note_off,109,0,0,,5,,,77,127
18873,note_off,0,0,0,,1,,,73,127
18874,note_on,1,0,0,,0,,,72,127
18874,note_on,0,0,0,,3,,,75,127
18983,note_off,109,0,0,,3,,,75,127
18983,note_off,0,0,0,,0,,,72,127
18984,note_on,1,0,0,,11,,,70,127
18984,note_on,0,0,0,,1,,,73,127
19202,note_off,218,0,0,,1,,,73,127
19202,note_off,0,0,0,,11,,,70,127
19203,note_on,1,0,0,,5,,,65,127
19203,note_on,0,0,0,,0,,,84,127
19312,note_off,109,0,0,,0,,,84,127
19313,note_on,1,0,0,,10,,,81,127
19422,note_off,109,0,0,,10,,,81,127
19422,note_off,0,0,0,,5,,,65,127
19423,note_on,1,0,0,,3,,,75,127
19423,note_on,0,0,0,,6,,,78,127
19641,note_off,218,0,0,,6,,,78,127
19641,note_off,0,0,0,,3,,,75,127
19642,note_on,1,0,0,,1,,,73,127
19642,note_on,0,0,0,,5,,,77,127
19751,note_off,109,0,0,,5,,,77,127
19751,note_off,0,0,0,,1,,,73,127
19752,note_on,1,0,0,,0,,,72,127
19752,note_on,0,0,0,,3,,,75,127
19861,note_off,109,0,0,,3,,,75,127
19861,note_off,0,0,0,,0,,,72,127
19862,note_on,1,0,0,,11,,,70,127
19862,note_on,0,0,0,,5,,,65,127
19862,note_on,0,0,0,,1,,,73,127
20080,note_off,218,0,0,,1,,,73,127
20080,note_off,0,0,0,,11,,,70,127
20081,note_on,1,0,0,,10,,,69,127
20081,note_on,0,0,0,,3,,,75,127
20190,note_off,109,0,0,,3,,,75,127
20191,note_on,1,0,0,,0,,,72,127
20296,note_off,105,0,0,,5,,,65,127
20299,note_off,3,0,0,,0,,,72,127
20299,note_off,0,0,0,,10,,,69,127
20300,note_on,1,0,0,,5,,,65,127
20300,note_on,0,0,0,,11,,,70,127
20300,note_on,0,0,0,,1,,,73,127
20518,note_off,218,0,0,,1,,,73,127
20518,note_off,0,0,0,,11,,,70,127
20519,note_on,1,0,0,,10,,,69,127
20519,note_on,0,0,0,,3,,,75,127
20628,note_off,109,0,0,,3,,,75,127
20629,note_on,1,0,0,,0,,,72,127
20734,note_off,105,0,0,,5,,,65,127
20737,note_off,3,0,0,,0,,,72,127
20737,note_off,0,0,0,,10,,,69,127
20738,note_on,1,0,0,,11,,,70,127
20738,note_on,0,0,0,,1,,,73,127
20932,note_off,194,0,0,,1,,,73,127
20956,note_off,24,0,0,,11,,,70,127
20957,note_on,1,0,0,,3,,,63,127
20957,note_on,0,0,0,,11,,,82,127
21066,note_off,109,0,0,,11,,,82,127
21067,note_on,1,0,0,,7,,,79,127
21176,note_off,109,0,0,,7,,,79,127
21177,note_on,1,0,0,,5,,,77,127
21395,note_off,218,0,0,,5,,,77,127
21395,note_off,0,0,0,,3,,,63,127
21396,note_on,1,0,0,,7,,,67,127
21396,note_on,0,0,0,,3,,,75,127
21505,note_off,109,0,0,,3,,,75,127
21506,note_on,1,0,0,,1,,,73,127
21615,note_off,109,0,0,,1,,,73,127
21615,note_off,0,0,0,,7,,,67,127
21616,note_on,1,0,0,,3,,,63,127
21616,note_on,0,0,0,,8,,,68,127
21616,note_on,0,0,0,,0,,,72,127
21834,note_off,218,0,0,,0,,,72,127
21834,note_off,0,0,0,,8,,,68,127
21835,note_on,1,0,0,,7,,,67,127
21835,note_on,0,0,0,,1,,,73,127
21944,note_off,109,0,0,,1,,,73,127
21945,note_on,1,0,0,,11,,,70,127
22050,note_off,105,0,0,,3,,,63,127
22053,note_off,3,0,0,,11,,,70,127
22053,note_off,0,0,0,,7,,,67,127
22054,note_on,1,0,0,,3,,,63,127
22054,note_on,0,0,0,,8,,,68,127
22054,note_on,0,0,0,,0,,,72,127
22272,note_off,218,0,0,,0,,,72,127
22272,note_off,0,0,0,,8,,,68,127
22273,note_on,1,0,0,,7,,,67,127
22273,note_on,0,0,0,,1,,,73,127
22382,note_off,109,0,0,,1,,,73,127
22383,note_on,1,0,0,,11,,,70,127
22488,note_off,105,0,0,,3,,,63,127
22491,note_off,3,0,0,,11,,,70,127
22491,note_off,0,0,0,,7,,,67,127
22492,note_on,1,0,0,,8,,,68,127
22492,note_on,0,0,0,,0,,,72,127
22675,note_off,183,0,0,,0,,,72,127
22710,note_off,35,0,0,,8,,,68,127
22711,note_on,1,0,0,,1,,,61,127
22711,note_on,0,0,0,,8,,,80,127
22820,note_off,109,0,0,,8,,,80,127
22821,note_on,1,0,0,,5,,,77,127
22930,note_off,109,0,0,,5,,,77,127
22931,note_on,1,0,0,,3,,,75,127
23149,note_off,218,0,0,,3,,,75,127
23149,note_off,0,0,0,,1,,,61,127
23150,note_on,1,0,0,,5,,,65,127
23150,note_on,0,0,0,,1,,,73,127
23259,note_off,109,0,0,,1,,,73,127
23260,note_on,1,0,0,,12,,,71,127
23369,note_off,109,0,0,,12,,,71,127
23369,note_off,0,0,0,,5,,,65,127
23370,note_on,1,0,0,,6,,,66,127
23370,note_on,0,0,0,,1,,,61,127
23370,note_on,0,0,0,,11,,,70,127
23588,note_off,218,0,0,,11,,,70,127
23588,note_off,0,0,0,,6,,,66,127
23589,note_on,1,0,0,,5,,,65,127
23589,note_on,0,0,0,,12,,,71,127
23698,note_off,109,0,0,,12,,,71,127
23699,note_on,1,0,0,,8,,,68,127
23804,note_off,105,0,0,,1,,,61,127
23807,note_off,3,0,0,,8,,,68,127
23807,note_off,0,0,0,,5,,,65,127
23808,note_on,1,0,0,,1,,,61,127
23808,note_on,0,0,0,,6,,,66,127
23808,note_on,0,0,0,,11,,,70,127
24026,note_off,218,0,0,,11,,,70,127
24026,note_off,0,0,0,,6,,,66,127
24027,note_on,1,0,0,,5,,,65,127
24027,note_on,0,0,0,,12,,,71,127
24136,note_off,109,0,0,,12,,,71,127
24137,note_on,1,0,0,,8,,,68,127
24242,note_off,105,0,0,,1,,,61,127
24245,note_off,3,0,0,,8,,,68,127
24245,note_off,0,0,0,,5,,,65,127
24246,note_on,1,0,0,,6,,,66,127
24246,note_on,0,0,0,,11,,,70,127
24464,note_off,218,0,0,,11,,,70,127
24464,note_off,0,0,0,,6,,,66,127
24465,note_on,1,0,0,,12,,,59,127
24465,note_on,0,0,0,,2,,,74,127
24683,note_off,218,0,0,,2,,,74,127
24684,note_on,1,0,0,,8,,,68,127
24684,note_on,0,0,0,,5,,,77,127
24902,note_off,218,0,0,,5,,,77,127
24903,note_on,1,0,0,,8,,,80,127
25121,note_off,218,0,0,,8,,,80,127
25121,note_off,0,0,0,,8,,,68,127
25121,note_off,0,0,0,,12,,,59,127
25122,note_on,1,0,0,,11,,,58,127
25122,note_on,0,0,0,,8,,,68,127
25122,note_on,0,0,0,,12,,,83,127
25340,note_off,218,0,0,,12,,,83,127
25341,note_on,1,0,0,,11,,,82,127
25450,note_off,109,0,0,,11,,,82,127
25451,note_on,1,0,0,,8,,,80,127
25560,note_off,109,0,0,,8,,,80,127
25560,note_off,0,0,0,,8,,,68,127
25560,note_off,0,0,0,,11,,,58,127
25561,note_on,1,0,0,,11,,,58,127
25561,note_on,0,0,0,,8,,,68,127
25561,note_on,0,0,0,,6,,,78,127
25670,note_off,109,0,0,,6,,,78,127
25671,note_on,1,0,0,,5,,,77,127
25780,note_off,109,0,0,,5,,,77,127
25781,note_on,1,0,0,,3,,,75,127
25890,note_off,109,0,0,,3,,,75,127
25891,note_on,1,0,0,,5,,,77,127
26000,note_off,109,0,0,,5,,,77,127
26000,note_off,0,0,0,,8,,,68,127
26000,note_off,0,0,0,,11,,,58,127
26001,note_on,1,0,0,,11,,,70,127
26001,note_on,0,0,0,,3,,,63,127
26001,note_on,0,0,0,,6,,,78,127
26219,note_off,218,0,0,,6,,,78,127
26220,note_on,1,0,0,,3,,,75,127
26438,note_off,218,0,0,,3,,,75,127
26438,note_off,0,0,0,,11,,,70,127
26439,note_on,1,0,0,,11,,,70,127
26439,note_on,0,0,0,,6,,,78,127
26657,note_off,218,0,0,,6,,,78,127
26657,note_off,0,0,0,,3,,,63,127
26658,note_on,1,0,0,,1,,,61,127
26658,note_on,0,0,0,,11,,,82,127
26873,note_off,215,0,0,,11,,,70,127
26876,note_off,3,0,0,,11,,,82,127
26876,note_off,0,0,0,,1,,,61,127
26877,note_on,1,0,0,,0,,,60,127
26877,note_on,0,0,0,,11,,,70,127
26877,note_on,0,0,0,,1,,,85,127
27095,note_off,218,0,0,,1,,,85,127
27096,note_on,1,0,0,,0,,,84,127
27205,note_off,109,0,0,,0,,,84,127
27206,note_on,1,0,0,,11,,,82,127
27315,note_off,109,0,0,,11,,,82,127
27315,note_off,0,0,0,,11,,,70,127
27315,note_off,0,0,0,,0,,,60,127
27316,note_on,1,0,0,,0,,,60,127
27316,note_on,0,0,0,,11,,,70,127
27316,note_on,0,0,0,,8,,,80,127
27425,note_off,109,0,0,,8,,,80,127
27426,note_on,1,0,0,,7,,,79,127
27535,note_off,109,0,0,,7,,,79,127
27536,note_on,1,0,0,,5,,,77,127
27645,note_off,109,0,0,,5,,,77,127
27646,note_on,1,0,0,,4,,,76,127
27755,note_off,109,0,0,,4,,,76,127
27755,note_off,0,0,0,,11,,,70,127
27755,note_off,0,0,0,,0,,,60,127
27756,note_on,1,0,0,,10,,,69,127
27756,note_on,0,0,0,,5,,,65,127
27756,note_on,0,0,0,,0,,,72,127
27756,note_on,0,0,0,,5,,,77,127
27974,note_off,218,0,0,,5,,,77,127
27975,note_on,1,0,0,,0,,,84,127
28084,note_off,109,0,0,,0,,,84,127
28085,note_on,1,0,0,,10,,,81,127
28194,note_off,109,0,0,,10,,,81,127
28195,note_on,1,0,0,,6,,,78,127
28413,note_off,218,0,0,,6,,,78,127
28413,note_off,0,0,0,,0,,,72,127
28413,note_off,0,0,0,,5,,,65,127
28413,note_off,0,0,0,,10,,,69,127
28414,note_on,1,0,0,,5,,,65,127
28414,note_on,0,0,0,,0,,,72,127
28414,note_on,0,0,0,,5,,,77,127
28523,note_off,109,0,0,,5,,,77,127
28524,note_on,1,0,0,,3,,,75,127
28633,note_off,109,0,0,,3,,,75,127
28633,note_off,0,0,0,,0,,,72,127
28633,note_off,0,0,0,,5,,,65,127
28634,note_on,1,0,0,,6,,,66,127
28634,note_on,0,0,0,,5,,,65,127
28634,note_on,0,0,0,,11,,,70,127
28634,note_on,0,0,0,,3,,,75,127
28688,note_off,54,0,0,,3,,,75,127
28689,note_on,1,0,0,,1,,,73,127
28743,note_off,54,0,0,,1,,,73,127
28744,note_on,1,0,0,,3,,,75,127
28798,note_off,54,0,0,,3,,,75,127
28799,note_on,1,0,0,,1,,,73,127
28853,note_off,54,0,0,,1,,,73,127
28854,note_on,1,0,0,,0,,,72,127
28963,note_off,109,0,0,,0,,,72,127
28964,note_on,1,0,0,,1,,,73,127
29073,note_off,109,0,0,,1,,,73,127
29073,note_off,0,0,0,,11,,,70,127
29073,note_off,0,0,0,,5,,,65,127
29073,note_off,0,0,0,,6,,,66,127
29074,note_on,1,0,0,,3,,,63,127
29074,note_on,0,0,0,,11,,,70,127
29074,note_on,0,0,0,,6,,,66,127
29074,note_on,0,0,0,,3,,,75,127
29183,note_off,109,0,0,,3,,,75,127
29184,note_on,1,0,0,,5,,,77,127
29293,note_off,109,0,0,,5,,,77,127
29294,note_on,1,0,0,,6,,,78,127
29401,note_off,107,0,0,,11,,,70,127
29402,note_off,1,0,0,,6,,,78,127
29403,note_on,1,0,0,,11,,,70,127
29512,note_off,109,0,0,,11,,,70,127
29512,note_off,0,0,0,,6,,,66,127
29512,note_off,0,0,0,,3,,,63,127
29513,note_on,1,0,0,,5,,,65,127
29513,note_on,0,0,0,,10,,,69,127
29731,note_off,218,0,0,,10,,,69,127
29732,note_on,1,0,0,,0,,,84,127
29841,note_off,109,0,0,,0,,,84,127
29842,note_on,1,0,0,,10,,,81,127
29951,note_off,109,0,0,,10,,,81,127
29952,note_on,1,0,0,,6,,,78,127
30170,note_off,218,0,0,,6,,,78,127
30170,note_off,0,0,0,,5,,,65,127
30171,note_on,1,0,0,,10,,,69,127
30171,note_on,0,0,0,,5,,,65,127
30171,note_on,0,0,0,,5,,,77,127
30280,note_off,109,0,0,,5,,,77,127
30281,note_on,1,0,0,,3,,,75,127
30390,note_off,109,0,0,,3,,,75,127
30390,note_off,0,0,0,,5,,,65,127
30390,note_off,0,0,0,,10,,,69,127
30391,note_on,1,0,0,,6,,,66,127
30391,note_on,0,0,0,,5,,,65,127
30391,note_on,0,0,0,,11,,,70,127
30391,note_on,0,0,0,,3,,,75,127
30445,note_off,54,0,0,,3,,,75,127
30446,note_on,1,0,0,,1,,,73,127
30500,note_off,54,0,0,,1,,,73,127
30501,note_on,1,0,0,,3,,,75,127
30555,note_off,54,0,0,,3,,,75,127
30556,note_on,1,0,0,,1,,,73,127
30610,note_off,54,0,0,,1,,,73,127
30611,note_on,1,0,0,,0,,,72,127
30720,note_off,109,0,0,,0,,,72,127
30721,note_on,1,0,0,,1,,,73,127
30830,note_off,109,0,0,,1,,,73,127
30830,note_off,0,0,0,,11,,,70,127
30830,note_off,0,0,0,,5,,,65,127
30830,note_off,0,0,0,,6,,,66,127
30831,note_on,1,0,0,,3,,,63,127
30831,note_on,0,0,0,,11,,,70,127
30831,note_on,0,0,0,,6,,,66,127
30831,note_on,0,0,0,,3,,,75,127
30940,note_off,109,0,0,,3,,,75,127
30941,note_on,1,0,0,,5,,,77,127
31050,note_off,109,0,0,,5,,,77,127
31051,note_on,1,0,0,,6,,,78,127
31158,note_off,107,0,0,,11,,,70,127
31159,note_off,1,0,0,,6,,,78,127
31160,note_on,1,0,0,,11,,,70,127
31269,note_off,109,0,0,,11,,,70,127
31269,note_off,0,0,0,,6,,,66,127
31269,note_off,0,0,0,,3,,,63,127
31270,note_on,1,0,0,,5,,,53,127
31270,note_on,0,0,0,,10,,,69,127
31488,note_off,218,0,0,,10,,,69,127
31488,note_off,0,0,0,,5,,,53,127
31489,note_on,1,0,0,,5,,,65,127
31489,note_on,0,0,0,,5,,,77,127
31598,note_off,109,0,0,,5,,,77,127
31599,note_on,1,0,0,,0,,,72,127
31708,note_off,109,0,0,,0,,,72,127
31708,note_off,0,0,0,,5,,,65,127
31709,note_on,1,0,0,,11,,,46,127
31709,note_on,0,0,0,,2,,,74,127
31927,note_off,218,0,0,,2,,,74,127
31927,note_off,0,0,0,,11,,,46,127
31928,note_on,1,0,0,,5,,,65,127
31928,note_on,0,0,0,,5,,,77,127
32037,note_off,109,0,0,,5,,,77,127
32038,note_on,1,0,0,,11,,,70,127
32147,note_off,109,0,0,,11,,,70,127
32147,note_off,0,0,0,,5,,,65,127
32148,note_on,1,0,0,,5,,,41,127
32148,note_on,0,0,0,,0,,,72,127
32366,note_off,218,0,0,,0,,,72,127
32366,note_off,0,0,0,,5,,,41,127
32367,note_on,1,0,0,,0,,,60,127
32367,note_on,0,0,0,,5,,,77,127
32476,note_off,109,0,0,,5,,,77,127
32477,note_on,1,0,0,,10,,,69,127
32586,note_off,109,0,0,,10,,,69,127
32586,note_off,0,0,0,,0,,,60,127
32587,note_on,1,0,0,,0,,,36,127
32587,note_on,0,0,0,,11,,,70,127
32805,note_off,218,0,0,,11,,,70,127
32805,note_off,0,0,0,,0,,,36,127
32806,note_on,1,0,0,,0,,,60,127
32806,note_on,0,0,0,,7,,,79,127
32915,note_off,109,0,0,,7,,,79,127
32916,note_on,1,0,0,,7,,,67,127
33025,note_off,109,0,0,,7,,,67,127
33025,note_off,0,0,0,,0,,,60,127
33026,note_on,1,0,0,,5,,,41,127
33026,note_on,0,0,0,,10,,,69,127
33244,note_off,218,0,0,,10,,,69,127
33244,note_off,0,0,0,,5,,,41,127
33245,note_on,1,0,0,,5,,,65,127
33245,note_on,0,0,0,,5,,,77,127
33354,note_off,109,0,0,,5,,,77,127
33355,note_on,1,0,0,,0,,,72,127
33464,note_off,109,0,0,,0,,,72,127
33464,note_off,0,0,0,,5,,,65,127
33465,note_on,1,0,0,,11,,,46,127
33465,note_on,0,0,0,,2,,,74,127
33683,note_off,218,0,0,,2,,,74,127
33683,note_off,0,0,0,,11,,,46,127
33684,note_on,1,0,0,,5,,,65,127
33684,note_on,0,0,0,,5,,,77,127
33793,note_off,109,0,0,,5,,,77,127
33794,note_on,1,0,0,,11,,,70,127
33903,note_off,109,0,0,,11,,,70,127
33903,note_off,0,0,0,,5,,,65,127
33904,note_on,1,0,0,,5,,,41,127
33904,note_on,0,0,0,,0,,,72,127
34122,note_off,218,0,0,,0,,,72,127
34122,note_off,0,0,0,,5,,,41,127
34123,note_on,1,0,0,,0,,,60,127
34123,note_on,0,0,0,,5,,,77,127
34232,note_off,109,0,0,,5,,,77,127
34233,note_on,1,0,0,,10,,,69,127
34342,note_off,109,0,0,,10,,,69,127
34342,note_off,0,0,0,,0,,,60,127
34343,note_on,1,0,0,,0,,,36,127
34343,note_on,0,0,0,,11,,,70,127
34561,note_off,218,0,0,,11,,,70,127
34561,note_off,0,0,0,,0,,,36,127
34562,note_on,1,0,0,,0,,,60,127
34562,note_on,0,0,0,,7,,,79,127
34671,note_off,109,0,0,,7,,,79,127
34672,note_on,1,0,0,,7,,,67,127
34781,note_off,109,0,0,,7,,,67,127
34781,note_off,0,0,0,,0,,,60,127
34782,note_on,1,0,0,,5,,,41,127
34782,note_on,0,0,0,,10,,,69,127
35000,note_off,218,0,0,,10,,,69,127
35000,note_off,0,0,0,,5,,,41,127
35001,note_on,1,0,0,,10,,,45,127
35001,note_on,0,0,0,,5,,,77,127
35110,note_off,109,0,0,,5,,,77,127
35111,note_on,1,0,0,,0,,,72,127
35220,note_off,109,0,0,,0,,,72,127
35220,note_off,0,0,0,,10,,,45,127
35221,note_on,1,0,0,,11,,,46,127
35221,note_on,0,0,0,,2,,,74,127
35330,note_off,109,0,0,,2,,,74,127
35331,note_on,1,0,0,,11,,,70,127
35440,note_off,109,0,0,,11,,,70,127
35440,note_off,0,0,0,,11,,,46,127
35441,note_on,1,0,0,,7,,,43,127
35441,note_on,0,0,0,,4,,,76,127
35550,note_off,109,0,0,,4,,,76,127
35551,note_on,1,0,0,,0,,,72,127
35660,note_off,109,0,0,,0,,,72,127
35660,note_off,0,0,0,,7,,,43,127
35661,note_on,1,0,0,,10,,,45,127
35661,note_on,0,0,0,,5,,,77,127
35770,note_off,109,0,0,,5,,,77,127
35771,note_on,1,0,0,,5,,,65,127
35880,note_off,109,0,0,,5,,,65,127
35880,note_off,0,0,0,,10,,,45,127
35881,note_on,1,0,0,,11,,,46,127
35881,note_on,0,0,0,,11,,,70,127
35990,note_off,109,0,0,,11,,,70,127
35991,note_on,1,0,0,,7,,,67,127
36100,note_off,109,0,0,,7,,,67,127
36100,note_off,0,0,0,,11,,,46,127
36101,note_on,1,0,0,,0,,,48,127
36101,note_on,0,0,0,,10,,,69,127
36319,note_off,218,0,0,,10,,,69,127
36319,note_off,0,0,0,,0,,,48,127
36320,note_on,1,0,0,,0,,,36,127
36320,note_on,0,0,0,,10,,,69,127
36374,note_off,54,0,0,,10,,,69,127
36375,note_on,1,0,0,,7,,,67,127
36429,note_off,54,0,0,,7,,,67,127
36430,note_on,1,0,0,,5,,,65,127
36484,note_off,54,0,0,,5,,,65,127
36485,note_on,1,0,0,,7,,,67,127
36539,note_off,54,0,0,,7,,,67,127
36539,note_off,0,0,0,,0,,,36,127
36540,note_on,1,0,0,,5,,,53,127
36540,note_on,0,0,0,,5,,,65,127
36758,note_off,218,0,0,,5,,,65,127
36758,note_off,0,0,0,,5,,,53,127
36759,note_on,1,0,0,,5,,,65,127
36759,note_on,0,0,0,,5,,,77,127
36868,note_off,109,0,0,,5,,,77,127
36869,note_on,1,0,0,,0,,,72,127
36978,note_off,109,0,0,,0,,,72,127
36978,note_off,0,0,0,,5,,,65,127
36979,note_on,1,0,0,,11,,,46,127
36979,note_on,0,0,0,,2,,,74,127
37197,note_off,218,0,0,,2,,,74,127
37197,note_off,0,0,0,,11,,,46,127
37198,note_on,1,0,0,,5,,,65,127
37198,note_on,0,0,0,,5,,,77,127
37307,note_off,109,0,0,,5,,,77,127
37308,note_on,1,0,0,,11,,,70,127
37417,note_off,109,0,0,,11,,,70,127
37417,note_off,0,0,0,,5,,,65,127
37418,note_on,1,0,0,,5,,,41,127
37418,note_on,0,0,0,,0,,,72,127
37636,note_off,218,0,0,,0,,,72,127
37636,note_off,0,0,0,,5,,,41,127
37637,note_on,1,0,0,,0,,,60,127
37637,note_on,0,0,0,,5,,,77,127
37746,note_off,109,0,0,,5,,,77,127
37747,note_on,1,0,0,,10,,,69,127
37856,note_off,109,0,0,,10,,,69,127
37856,note_off,0,0,0,,0,,,60,127
37857,note_on,1,0,0,,0,,,36,127
37857,note_on,0,0,0,,11,,,70,127
38075,note_off,218,0,0,,11,,,70,127
38075,note_off,0,0,0,,0,,,36,127
38076,note_on,1,0,0,,0,,,60,127
38076,note_on,0,0,0,,7,,,79,127
38185,note_off,109,0,0,,7,,,79,127
38186,note_on,1,0,0,,7,,,67,127
38295,note_off,109,0,0,,7,,,67,127
38295,note_off,0,0,0,,0,,,60,127
38296,note_on,1,0,0,,5,,,41,127
38296,note_on,0,0,0,,10,,,69,127
38514,note_off,218,0,0,,10,,,69,127
38514,note_off,0,0,0,,5,,,41,127
38515,note_on,1,0,0,,5,,,65,127
38515,note_on,0,0,0,,5,,,77,127
38624,note_off,109,0,0,,5,,,77,127
38625,note_on,1,0,0,,0,,,72,127
38734,note_off,109,0,0,,0,,,72,127
38734,note_off,0,0,0,,5,,,65,127
38735,note_on,1,0,0,,11,,,46,127
38735,note_on,0,0,0,,2,,,74,127
38953,note_off,218,0,0,,2,,,74,127
38953,note_off,0,0,0,,11,,,46,127
38954,note_on,1,0,0,,5,,,65,127
38954,note_on,0,0,0,,5,,,77,127
39063,note_off,109,0,0,,5,,,77,127
39064,note_on,1,0,0,,11,,,70,127
39173,note_off,109,0,0,,11,,,70,127
39173,note_off,0,0,0,,5,,,65,127
39174,note_on,1,0,0,,5,,,41,127
39174,note_on,0,0,0,,0,,,72,127
39392,note_off,218,0,0,,0,,,72,127
39392,note_off,0,0,0,,5,,,41,127
39393,note_on,1,0,0,,0,,,60,127
39393,note_on,0,0,0,,5,,,77,127
39502,note_off,109,0,0,,5,,,77,127
39503,note_on,1,0,0,,10,,,69,127
39612,note_off,109,0,0,,10,,,69,127
39612,note_off,0,0,0,,0,,,60,127
39613,note_on,1,0,0,,0,,,36,127
39613,note_on,0,0,0,,11,,,70,127
39831,note_off,218,0,0,,11,,,70,127
39831,note_off,0,0,0,,0,,,36,127
39832,note_on,1,0,0,,0,,,60,127
39832,note_on,0,0,0,,7,,,79,127
39941,note_off,109,0,0,,7,,,79,127
39942,note_on,1,0,0,,7,,,67,127
40051,note_off,109,0,0,,7,,,67,127
40051,note_off,0,0,0,,0,,,60,127
40052,note_on,1,0,0,,5,,,41,127
40052,note_on,0,0,0,,10,,,69,127
40270,note_off,218,0,0,,10,,,69,127
40270,note_off,0,0,0,,5,,,41,127
40271,note_on,1,0,0,,10,,,45,127
40271,note_on,0,0,0,,5,,,77,127
40381,note_off,110,0,0,,5,,,77,127
40381,note_on,0,0,0,,0,,,72,127
40490,note_off,109,0,0,,0,,,72,127
40490,note_off,0,0,0,,10,,,45,127
40491,note_on,1,0,0,,11,,,46,127
40491,note_on,0,0,0,,2,,,74,127
40600,note_off,109,0,0,,2,,,74,127
40601,note_on,1,0,0,,11,,,70,127
40710,note_off,109,0,0,,11,,,70,127
40710,note_off,0,0,0,,11,,,46,127
40711,note_on,1,0,0,,7,,,43,127
40711,note_on,0,0,0,,4,,,76,127
40820,note_off,109,0,0,,4,,,76,127
40821,note_on,1,0,0,,0,,,72,127
40930,note_off,109,0,0,,0,,,72,127
40930,note_off,0,0,0,,7,,,43,127
40931,note_on,1,0,0,,10,,,45,127
40931,note_on,0,0,0,,5,,,77,127
41040,note_off,109,0,0,,5,,,77,127
41041,note_on,1,0,0,,5,,,65,127
41150,note_off,109,0,0,,5,,,65,127
41150,note_off,0,0,0,,10,,,45,127
41151,note_on,1,0,0,,11,,,46,127
41151,note_on,0,0,0,,11,,,70,127
41260,note_off,109,0,0,,11,,,70,127
41261,note_on,1,0,0,,7,,,67,127
41370,note_off,109,0,0,,7,,,67,127
41370,note_off,0,0,0,,11,,,46,127
41371,note_on,1,0,0,,0,,,48,127
41371,note_on,0,0,0,,10,,,69,127
41589,note_off,218,0,0,,10,,,69,127
41590,note_on,1,0,0,,0,,,36,127
41590,note_on,0,0,0,,10,,,69,127
41644,note_off,54,0,0,,10,,,69,127
41645,note_on,1,0,0,,7,,,67,127
41699,note_off,54,0,0,,7,,,67,127
41700,note_on,1,0,0,,5,,,65,127
41754,note_off,54,0,0,,5,,,65,127
41755,note_on,1,0,0,,7,,,67,127
41805,note_off,50,0,0,,0,,,48,127
41808,note_off,3,0,0,,7,,,67,127
41808,note_off,0,0,0,,0,,,36,127
41809,note_on,1,0,0,,5,,,41,127
41809,note_on,0,0,0,,5,,,65,127
42027,note_off,218,0,0,,5,,,65,127
42028,note_on,1,0,0,,10,,,69,127
42028,note_on,0,0,0,,5,,,77,127
42137,note_off,109,0,0,,5,,,77,127
42137,note_off,0,0,0,,10,,,69,127
42138,note_on,1,0,0,,11,,,70,127
42138,note_on,0,0,0,,7,,,79,127
42247,note_off,109,0,0,,7,,,79,127
42247,note_off,0,0,0,,11,,,70,127
42247,note_off,0,0,0,,5,,,41,127
42248,note_on,1,0,0,,5,,,41,127
42248,note_on,0,0,0,,5,,,77,127
42248,note_on,0,0,0,,10,,,69,127
42466,note_off,218,0,0,,10,,,69,127
42466,note_off,0,0,0,,5,,,77,127
42467,note_on,1,0,0,,10,,,69,127
42467,note_on,0,0,0,,5,,,77,127
42576,note_off,109,0,0,,5,,,77,127
42576,note_off,0,0,0,,10,,,69,127
42577,note_on,1,0,0,,7,,,79,127
42577,note_on,0,0,0,,11,,,70,127
42686,note_off,109,0,0,,11,,,70,127
42686,note_off,0,0,0,,7,,,79,127
42686,note_off,0,0,0,,5,,,41,127
42687,note_on,1,0,0,,5,,,41,127
42687,note_on,0,0,0,,10,,,69,127
42687,note_on,0,0,0,,5,,,77,127
42905,note_off,218,0,0,,5,,,77,127
42905,note_off,0,0,0,,10,,,69,127
42906,note_on,1,0,0,,5,,,77,127
42906,note_on,0,0,0,,10,,,69,127
43015,note_off,109,0,0,,10,,,69,127
43015,note_off,0,0,0,,5,,,77,127
43016,note_on,1,0,0,,11,,,70,127
43016,note_on,0,0,0,,7,,,79,127
43125,note_off,109,0,0,,7,,,79,127
43125,note_off,0,0,0,,11,,,70,127
43125,note_off,0,0,0,,5,,,41,127
43126,note_on,1,0,0,,5,,,41,127
43126,note_on,0,0,0,,10,,,69,127
43126,note_on,0,0,0,,5,,,77,127
43235,note_off,109,0,0,,5,,,77,127
43235,note_off,0,0,0,,10,,,69,127
43236,note_on,1,0,0,,11,,,70,127
43236,note_on,0,0,0,,7,,,79,127
43345,note_off,109,0,0,,7,,,79,127
43345,note_off,0,0,0,,11,,,70,127
43346,note_on,1,0,0,,10,,,69,127
43346,note_on,0,0,0,,5,,,77,127
43455,note_off,109,0,0,,5,,,77,127
43455,note_off,0,0,0,,10,,,69,127
43456,note_on,1,0,0,,11,,,70,127
43456,note_on,0,0,0,,7,,,79,127
43565,note_off,109,0,0,,7,,,79,127
43565,note_off,0,0,0,,11,,,70,127
43565,note_off,0,0,0,,5,,,41,127
43566,note_on,1,0,0,,5,,,41,127
43566,note_on,0,0,0,,7,,,79,127
43566,note_on,0,0,0,,11,,,70,127
43620,note_off,54,0,0,,11,,,70,127
43620,note_off,0,0,0,,7,,,79,127
43621,note_on,1,0,0,,10,,,69,127
43621,note_on,0,0,0,,5,,,77,127
43675,note_off,54,0,0,,5,,,77,127
43675,note_off,0,0,0,,10,,,69,127
43676,note_on,1,0,0,,11,,,70,127
43676,note_on,0,0,0,,7,,,79,127
43730,note_off,54,0,0,,7,,,79,127
43730,note_off,0,0,0,,11,,,70,127
43731,note_on,1,0,0,,10,,,69,127
43731,note_on,0,0,0,,5,,,77,127
44229,note_off,498,0,0,,5,,,77,127
44229,note_off,0,0,0,,10,,,69,127
44443,note_off,214,0,0,,5,,,41,127
44444,note_on,1,0,0,,5,,,53,127
44663,note_on,219,0,0,,5,,,65,127
44663,note_on,0,0,0,,8,,,80,127
44663,note_on,0,0,0,,11,,,82,127
44772,note_off,109,0,0,,11,,,82,127
44772,note_off,0,0,0,,8,,,80,127
44773,note_on,1,0,0,,7,,,79,127
44882,note_off,109,0,0,,7,,,79,127
44883,note_on,1,0,0,,5,,,77,127
45101,note_off,218,0,0,,5,,,77,127
45101,note_off,0,0,0,,5,,,53,127
45102,note_on,1,0,0,,7,,,55,127
45102,note_on,0,0,0,,3,,,75,127
45211,note_off,109,0,0,,3,,,75,127
45212,note_on,1,0,0,,2,,,74,127
45321,note_off,109,0,0,,2,,,74,127
45321,note_off,0,0,0,,7,,,55,127
45322,note_on,1,0,0,,8,,,56,127
45322,note_on,0,0,0,,0,,,72,127
45540,note_off,218,0,0,,0,,,72,127
45540,note_off,0,0,0,,5,,,65,127
45541,note_on,1,0,0,,3,,,63,127
45541,note_on,0,0,0,,12,,,71,127
45650,note_off,109,0,0,,12,,,71,127
45651,note_on,1,0,0,,0,,,72,127
45756,note_off,105,0,0,,8,,,56,127
45759,note_off,3,0,0,,0,,,72,127
45759,note_off,0,0,0,,3,,,63,127
45760,note_on,1,0,0,,2,,,62,127
45760,note_on,0,0,0,,5,,,53,127
45760,note_on,0,0,0,,2,,,74,127
45978,note_off,218,0,0,,2,,,74,127
45978,note_off,0,0,0,,5,,,53,127
45978,note_off,0,0,0,,2,,,62,127
45979,note_on,1,0,0,,0,,,60,127
45979,note_on,0,0,0,,7,,,55,127
45979,note_on,0,0,0,,3,,,75,127
46088,note_off,109,0,0,,3,,,75,127
46088,note_off,0,0,0,,0,,,60,127
46089,note_on,1,0,0,,12,,,59,127
46089,note_on,0,0,0,,5,,,77,127
46196,note_off,107,0,0,,7,,,55,127
46197,note_off,1,0,0,,5,,,77,127
46197,note_off,0,0,0,,12,,,59,127
46198,note_on,1,0,0,,0,,,48,127
46198,note_on,0,0,0,,3,,,75,127
46416,note_off,218,0,0,,3,,,75,127
46416,note_off,0,0,0,,0,,,48,127
46417,note_on,1,0,0,,5,,,53,127
46417,note_on,0,0,0,,5,,,65,127
46417,note_on,0,0,0,,11,,,82,127
46417,note_on,0,0,0,,8,,,80,127
46526,note_off,109,0,0,,8,,,80,127
46526,note_off,0,0,0,,11,,,82,127
46527,note_on,1,0,0,,7,,,79,127
46636,note_off,109,0,0,,7,,,79,127
46637,note_on,1,0,0,,5,,,77,127
46855,note_off,218,0,0,,5,,,77,127
46855,note_off,0,0,0,,5,,,53,127
46856,note_on,1,0,0,,7,,,55,127
46856,note_on,0,0,0,,3,,,75,127
46965,note_off,109,0,0,,3,,,75,127
46966,note_on,1,0,0,,2,,,74,127
47075,note_off,109,0,0,,2,,,74,127
47075,note_off,0,0,0,,7,,,55,127
47076,note_on,1,0,0,,8,,,56,127
47076,note_on,0,0,0,,0,,,72,127
47294,note_off,218,0,0,,0,,,72,127
47294,note_off,0,0,0,,5,,,65,127
47295,note_on,1,0,0,,3,,,63,127
47295,note_on,0,0,0,,12,,,71,127
47404,note_off,109,0,0,,12,,,71,127
47405,note_on,1,0,0,,0,,,72,127
47510,note_off,105,0,0,,8,,,56,127
47513,note_off,3,0,0,,0,,,72,127
47513,note_off,0,0,0,,3,,,63,127
47514,note_on,1,0,0,,5,,,53,127
47514,note_on,0,0,0,,5,,,65,127
47514,note_on,0,0,0,,2,,,74,127
47732,note_off,218,0,0,,2,,,74,127
47732,note_off,0,0,0,,5,,,65,127
47732,note_off,0,0,0,,5,,,53,127
47733,note_on,1,0,0,,2,,,62,127
47733,note_on,0,0,0,,7,,,55,127
47733,note_on,0,0,0,,0,,,72,127
47842,note_off,109,0,0,,0,,,72,127
47843,note_on,1,0,0,,12,,,71,127
47952,note_off,109,0,0,,12,,,71,127
47952,note_off,0,0,0,,7,,,55,127
47952,note_off,0,0,0,,2,,,62,127
47953,note_on,1,0,0,,0,,,48,127
47953,note_on,0,0,0,,0,,,72,127
48136,note_off,183,0,0,,0,,,72,127
48173,note_on,37,0,0,,0,,,60,127
48173,note_on,0,0,0,,7,,,79,127
48173,note_on,0,0,0,,8,,,80,127
48282,note_off,109,0,0,,8,,,80,127
48282,note_off,0,0,0,,7,,,79,127
48283,note_on,1,0,0,,5,,,77,127
48392,note_off,109,0,0,,5,,,77,127
48393,note_on,1,0,0,,3,,,75,127
48611,note_off,218,0,0,,3,,,75,127
48611,note_off,0,0,0,,0,,,48,127
48612,note_on,1,0,0,,2,,,50,127
48612,note_on,0,0,0,,2,,,74,127
48721,note_off,109,0,0,,2,,,74,127
48722,note_on,1,0,0,,0,,,72,127
48831,note_off,109,0,0,,0,,,72,127
48831,note_off,0,0,0,,2,,,50,127
48832,note_on,1,0,0,,3,,,51,127
48832,note_on,0,0,0,,11,,,70,127
49050,note_off,218,0,0,,11,,,70,127
49050,note_off,0,0,0,,0,,,60,127
49051,note_on,1,0,0,,2,,,62,127
49051,note_on,0,0,0,,10,,,69,127
49160,note_off,109,0,0,,10,,,69,127
49161,note_on,1,0,0,,11,,,70,127
49266,note_off,105,0,0,,3,,,51,127
49269,note_off,3,0,0,,11,,,70,127
49269,note_off,0,0,0,,2,,,62,127
49270,note_on,1,0,0,,5,,,53,127
49270,note_on,0,0,0,,3,,,63,127
49270,note_on,0,0,0,,0,,,72,127
49488,note_off,218,0,0,,0,,,72,127
49488,note_off,0,0,0,,3,,,63,127
49489,note_on,1,0,0,,2,,,62,127
49489,note_on,0,0,0,,11,,,70,127
49598,note_off,109,0,0,,11,,,70,127
49598,note_off,0,0,0,,2,,,62,127
49599,note_on,1,0,0,,0,,,60,127
49599,note_on,0,0,0,,10,,,69,127
49704,note_off,105,0,0,,5,,,53,127
49707,note_off,3,0,0,,10,,,69,127
49707,note_off,0,0,0,,0,,,60,127
49708,note_on,1,0,0,,11,,,58,127
49708,note_on,0,0,0,,2,,,62,127
49708,note_on,0,0,0,,11,,,70,127
49891,note_off,183,0,0,,11,,,70,127
49926,note_off,35,0,0,,11,,,58,127
49927,note_on,1,0,0,,7,,,55,127
49927,note_on,0,0,0,,0,,,84,127
49927,note_on,0,0,0,,11,,,82,127
50036,note_off,109,0,0,,11,,,82,127
50036,note_off,0,0,0,,0,,,84,127
50037,note_on,1,0,0,,10,,,81,127
50142,note_off,105,0,0,,2,,,62,127
50145,note_off,3,0,0,,10,,,81,127
50146,note_on,1,0,0,,7,,,67,127
50146,note_on,0,0,0,,7,,,79,127
50361,note_off,215,0,0,,7,,,55,127
50364,note_off,3,0,0,,7,,,79,127
50365,note_on,1,0,0,,10,,,57,127
50365,note_on,0,0,0,,5,,,77,127
50474,note_off,109,0,0,,5,,,77,127
50475,note_on,1,0,0,,4,,,76,127
50584,note_off,109,0,0,,4,,,76,127
50584,note_off,0,0,0,,10,,,57,127
50585,note_on,1,0,0,,11,,,58,127
50585,note_on,0,0,0,,2,,,74,127
50803,note_off,218,0,0,,2,,,74,127
50803,note_off,0,0,0,,11,,,58,127
50804,note_on,1,0,0,,10,,,57,127
50804,note_on,0,0,0,,1,,,73,127
50913,note_off,109,0,0,,1,,,73,127
50914,note_on,1,0,0,,2,,,74,127
51023,note_off,109,0,0,,2,,,74,127
51023,note_off,0,0,0,,10,,,57,127
51024,note_on,1,0,0,,7,,,55,127
51024,note_on,0,0,0,,4,,,76,127
51242,note_off,218,0,0,,4,,,76,127
51242,note_off,0,0,0,,7,,,55,127
51243,note_off,1,0,0,,7,,,67,127
51243,note_on,0,0,0,,10,,,57,127
51243,note_on,0,0,0,,4,,,64,127
51243,note_on,0,0,0,,2,,,74,127
51352,note_off,109,0,0,,2,,,74,127
51353,note_on,1,0,0,,1,,,73,127
51462,note_off,109,0,0,,1,,,73,127
51462,note_off,0,0,0,,4,,,64,127
51462,note_off,0,0,0,,10,,,57,127
51463,note_on,1,0,0,,2,,,50,127
51463,note_on,0,0,0,,2,,,74,127
51681,note_off,218,0,0,,2,,,74,127
51681,note_off,0,0,0,,2,,,50,127
51682,note_on,1,0,0,,2,,,62,127
51682,note_on,0,0,0,,2,,,86,127
51791,note_off,109,0,0,,2,,,86,127
51792,note_on,1,0,0,,10,,,81,127
51901,note_off,109,0,0,,10,,,81,127
51901,note_off,0,0,0,,2,,,62,127
51902,note_on,1,0,0,,7,,,43,127
51902,note_on,0,0,0,,11,,,82,127
52120,note_off,218,0,0,,11,,,82,127
52120,note_off,0,0,0,,7,,,43,127
52121,note_on,1,0,0,,2,,,62,127
52121,note_on,0,0,0,,2,,,86,127
52230,note_off,109,0,0,,2,,,86,127
52231,note_on,1,0,0,,7,,,79,127
52340,note_off,109,0,0,,7,,,79,127
52340,note_off,0,0,0,,2,,,62,127
52341,note_on,1,0,0,,2,,,38,127
52341,note_on,0,0,0,,10,,,81,127
52559,note_off,218,0,0,,10,,,81,127
52559,note_off,0,0,0,,2,,,38,127
52560,note_on,1,0,0,,2,,,62,127
52560,note_on,0,0,0,,2,,,86,127
52669,note_off,109,0,0,,2,,,86,127
52670,note_on,1,0,0,,10,,,81,127
52779,note_off,109,0,0,,10,,,81,127
52779,note_off,0,0,0,,2,,,62,127
52780,note_on,1,0,0,,7,,,43,127
52780,note_on,0,0,0,,11,,,82,127
52998,note_off,218,0,0,,11,,,82,127
52998,note_off,0,0,0,,7,,,43,127
52999,note_on,1,0,0,,2,,,62,127
52999,note_on,0,0,0,,2,,,86,127
53108,note_off,109,0,0,,2,,,86,127
53109,note_on,1,0,0,,7,,,79,127
53218,note_off,109,0,0,,7,,,79,127
53218,note_off,0,0,0,,2,,,62,127
53219,note_on,1,0,0,,2,,,38,127
53219,note_on,0,0,0,,10,,,81,127
53437,note_off,218,0,0,,10,,,81,127
53437,note_off,0,0,0,,2,,,38,127
53438,note_on,1,0,0,,2,,,62,127
53438,note_on,0,0,0,,2,,,86,127
53547,note_off,109,0,0,,2,,,86,127
53548,note_on,1,0,0,,10,,,81,127
53657,note_off,109,0,0,,10,,,81,127
53657,note_off,0,0,0,,2,,,62,127
53658,note_on,1,0,0,,7,,,43,127
53658,note_on,0,0,0,,11,,,82,127
53876,note_off,218,0,0,,11,,,82,127
53876,note_off,0,0,0,,7,,,43,127
53877,note_on,1,0,0,,2,,,62,127
53877,note_on,0,0,0,,2,,,86,127
53986,note_off,109,0,0,,2,,,86,127
53987,note_on,1,0,0,,5,,,77,127
54096,note_off,109,0,0,,5,,,77,127
54096,note_off,0,0,0,,2,,,62,127
54097,note_on,1,0,0,,0,,,36,127
54097,note_on,0,0,0,,4,,,76,127
54303,note_off,206,0,0,,4,,,76,127
54316,note_off,13,0,0,,0,,,36,127
54317,note_on,1,0,0,,0,,,60,127
54317,note_on,0,0,0,,0,,,84,127
54426,note_off,109,0,0,,0,,,84,127
54427,note_on,1,0,0,,7,,,79,127
54536,note_off,109,0,0,,7,,,79,127
54536,note_off,0,0,0,,0,,,60,127
54537,note_on,1,0,0,,5,,,41,127
54537,note_on,0,0,0,,10,,,81,127
54755,note_off,218,0,0,,10,,,81,127
54755,note_off,0,0,0,,5,,,41,127
54756,note_on,1,0,0,,0,,,60,127
54756,note_on,0,0,0,,0,,,84,127
54865,note_off,109,0,0,,0,,,84,127
54866,note_on,1,0,0,,5,,,77,127
54975,note_off,109,0,0,,5,,,77,127
54975,note_off,0,0,0,,0,,,60,127
54976,note_on,1,0,0,,0,,,36,127
54976,note_on,0,0,0,,7,,,79,127
55194,note_off,218,0,0,,7,,,79,127
55194,note_off,0,0,0,,0,,,36,127
55195,note_on,1,0,0,,0,,,60,127
55195,note_on,0,0,0,,0,,,84,127
55304,note_off,109,0,0,,0,,,84,127
55305,note_on,1,0,0,,7,,,79,127
55414,note_off,109,0,0,,7,,,79,127
55414,note_off,0,0,0,,0,,,60,127
55415,note_on,1,0,0,,5,,,41,127
55415,note_on,0,0,0,,10,,,81,127
55633,note_off,218,0,0,,10,,,81,127
55633,note_off,0,0,0,,5,,,41,127
55634,note_on,1,0,0,,0,,,60,127
55634,note_on,0,0,0,,0,,,84,127
55743,note_off,109,0,0,,0,,,84,127
55744,note_on,1,0,0,,5,,,77,127
55853,note_off,109,0,0,,5,,,77,127
55853,note_off,0,0,0,,0,,,60,127
55854,note_on,1,0,0,,0,,,36,127
55854,note_on,0,0,0,,7,,,79,127
56072,note_off,218,0,0,,7,,,79,127
56072,note_off,0,0,0,,0,,,36,127
56073,note_on,1,0,0,,0,,,60,127
56073,note_on,0,0,0,,0,,,84,127
56182,note_off,109,0,0,,0,,,84,127
56183,note_on,1,0,0,,7,,,79,127
56292,note_off,109,0,0,,7,,,79,127
56292,note_off,0,0,0,,0,,,60,127
56293,note_on,1,0,0,,5,,,41,127
56293,note_on,0,0,0,,10,,,81,127
56511,note_off,218,0,0,,10,,,81,127
56511,note_off,0,0,0,,5,,,41,127
56512,note_on,1,0,0,,0,,,60,127
56512,note_on,0,0,0,,0,,,84,127
56621,note_off,109,0,0,,0,,,84,127
56622,note_on,1,0,0,,3,,,75,127
56731,note_off,109,0,0,,3,,,75,127
56731,note_off,0,0,0,,0,,,60,127
56732,note_on,1,0,0,,11,,,34,127
56732,note_on,0,0,0,,2,,,74,127
56938,note_off,206,0,0,,2,,,74,127
56951,note_off,13,0,0,,11,,,34,127
56952,note_on,1,0,0,,11,,,58,127
56952,note_on,0,0,0,,11,,,82,127
57061,note_off,109,0,0,,11,,,82,127
57062,note_on,1,0,0,,5,,,77,127
57171,note_off,109,0,0,,5,,,77,127
57171,note_off,0,0,0,,11,,,58,127
57172,note_on,1,0,0,,3,,,39,127
57172,note_on,0,0,0,,7,,,79,127
57390,note_off,218,0,0,,7,,,79,127
57390,note_off,0,0,0,,3,,,39,127
57391,note_on,1,0,0,,11,,,58,127
57391,note_on,0,0,0,,11,,,82,127
57500,note_off,109,0,0,,11,,,82,127
57501,note_on,1,0,0,,3,,,75,127
57610,note_off,109,0,0,,3,,,75,127
57610,note_off,0,0,0,,11,,,58,127
57611,note_on,1,0,0,,11,,,34,127
57611,note_on,0,0,0,,5,,,77,127
57829,note_off,218,0,0,,5,,,77,127
57829,note_off,0,0,0,,11,,,34,127
57830,note_on,1,0,0,,11,,,58,127
57830,note_on,0,0,0,,11,,,82,127
57939,note_off,109,0,0,,11,,,82,127
57940,note_on,1,0,0,,5,,,77,127
58049,note_off,109,0,0,,5,,,77,127
58049,note_off,0,0,0,,11,,,58,127
58050,note_on,1,0,0,,3,,,39,127
58050,note_on,0,0,0,,7,,,79,127
58268,note_off,218,0,0,,7,,,79,127
58268,note_off,0,0,0,,3,,,39,127
58269,note_on,1,0,0,,11,,,58,127
58269,note_on,0,0,0,,11,,,82,127
58378,note_off,109,0,0,,11,,,82,127
58379,note_on,1,0,0,,3,,,75,127
58488,note_off,109,0,0,,3,,,75,127
58488,note_off,0,0,0,,11,,,58,127
58489,note_on,1,0,0,,11,,,34,127
58489,note_on,0,0,0,,2,,,74,127
58707,note_off,218,0,0,,2,,,74,127
58707,note_off,0,0,0,,11,,,34,127
58708,note_on,1,0,0,,11,,,58,127
58708,note_on,0,0,0,,11,,,82,127
58817,note_off,109,0,0,,11,,,82,127
58818,note_on,1,0,0,,5,,,77,127
58927,note_off,109,0,0,,5,,,77,127
58927,note_off,0,0,0,,11,,,58,127
58928,note_on,1,0,0,,3,,,39,127
58928,note_on,0,0,0,,7,,,79,127
59146,note_off,218,0,0,,7,,,79,127
59146,note_off,0,0,0,,3,,,39,127
59147,note_on,1,0,0,,5,,,41,127
59147,note_on,0,0,0,,11,,,82,127
59256,note_off,109,0,0,,11,,,82,127
59257,note_on,1,0,0,,2,,,74,127
59366,note_off,109,0,0,,2,,,74,127
59366,note_off,0,0,0,,5,,,41,127
59367,note_on,1,0,0,,7,,,43,127
59367,note_on,0,0,0,,3,,,75,127
59585,note_off,218,0,0,,3,,,75,127
59585,note_off,0,0,0,,7,,,43,127
59586,note_on,1,0,0,,10,,,45,127
59586,note_on,0,0,0,,5,,,77,127
59695,note_off,109,0,0,,5,,,77,127
59696,note_on,1,0,0,,0,,,72,127
59805,note_off,109,0,0,,0,,,72,127
59805,note_off,0,0,0,,10,,,45,127
59806,note_on,1,0,0,,11,,,46,127
59806,note_on,0,0,0,,2,,,74,127
60024,note_off,218,0,0,,2,,,74,127
60024,note_off,0,0,0,,11,,,46,127
60025,note_on,1,0,0,,0,,,48,127
60025,note_on,0,0,0,,3,,,75,127
60134,note_off,109,0,0,,3,,,75,127
60135,note_on,1,0,0,,10,,,69,127
60244,note_off,109,0,0,,10,,,69,127
60244,note_off,0,0,0,,0,,,48,127
60245,note_on,1,0,0,,2,,,50,127
60245,note_on,0,0,0,,11,,,70,127
60463,note_off,218,0,0,,11,,,70,127
60463,note_off,0,0,0,,2,,,50,127
60464,note_on,1,0,0,,3,,,51,127
60464,note_on,0,0,0,,0,,,72,127
60573,note_off,109,0,0,,0,,,72,127
60574,note_on,1,0,0,,7,,,67,127
60683,note_off,109,0,0,,7,,,67,127
60683,note_off,0,0,0,,3,,,51,127
60684,note_on,1,0,0,,5,,,53,127
60684,note_on,0,0,0,,10,,,69,127
60902,note_off,218,0,0,,10,,,69,127
60902,note_off,0,0,0,,5,,,53,127
60903,note_on,1,0,0,,7,,,55,127
60903,note_on,0,0,0,,0,,,72,127
60957,note_off,54,0,0,,0,,,72,127
60958,note_on,1,0,0,,11,,,70,127
61012,note_off,54,0,0,,11,,,70,127
61013,note_on,1,0,0,,10,,,69,127
61067,note_off,54,0,0,,10,,,69,127
61068,note_on,1,0,0,,11,,,70,127
61122,note_off,54,0,0,,11,,,70,127
61122,note_off,0,0,0,,7,,,55,127
61123,note_on,1,0,0,,5,,,41,127
61123,note_on,0,0,0,,0,,,72,127
61288,note_off,165,0,0,,0,,,72,127
61343,note_on,55,0,0,,0,,,72,127
61452,note_off,109,0,0,,0,,,72,127
61453,note_on,1,0,0,,10,,,69,127
61558,note_off,105,0,0,,5,,,41,127
61561,note_off,3,0,0,,10,,,69,127
61562,note_on,1,0,0,,6,,,66,127
61780,note_off,218,0,0,,6,,,66,127
61781,note_on,1,0,0,,10,,,57,127
61781,note_on,0,0,0,,5,,,53,127
61781,note_on,0,0,0,,5,,,65,127
61890,note_off,109,0,0,,5,,,65,127
61891,note_on,1,0,0,,3,,,63,127
62000,note_off,109,0,0,,3,,,63,127
62000,note_off,0,0,0,,5,,,53,127
62000,note_off,0,0,0,,10,,,57,127
62001,note_on,1,0,0,,6,,,54,127
62001,note_on,0,0,0,,5,,,53,127
62001,note_on,0,0,0,,11,,,58,127
62001,note_on,0,0,0,,1,,,61,127
62219,note_off,218,0,0,,1,,,61,127
62220,note_on,1,0,0,,0,,,60,127
62329,note_off,109,0,0,,0,,,60,127
62330,note_on,1,0,0,,1,,,61,127
62439,note_off,109,0,0,,1,,,61,127
62439,note_off,0,0,0,,11,,,58,127
62439,note_off,0,0,0,,5,,,53,127
62439,note_off,0,0,0,,6,,,54,127
62440,note_on,1,0,0,,3,,,51,127
62440,note_on,0,0,0,,6,,,54,127
62440,note_on,0,0,0,,11,,,58,127
62440,note_on,0,0,0,,3,,,63,127
62549,note_off,109,0,0,,3,,,63,127
62550,note_on,1,0,0,,5,,,65,127
62659,note_off,109,0,0,,5,,,65,127
62660,note_on,1,0,0,,6,,,66,127
62767,note_off,107,0,0,,11,,,58,127
62768,note_off,1,0,0,,6,,,66,127
62769,note_on,1,0,0,,11,,,58,127
62878,note_off,109,0,0,,11,,,58,127
62878,note_off,0,0,0,,6,,,54,127
62878,note_off,0,0,0,,3,,,51,127
62879,note_on,1,0,0,,5,,,41,127
62879,note_on,0,0,0,,10,,,57,127
63097,note_off,218,0,0,,10,,,57,127
63098,note_on,1,0,0,,0,,,72,127
63207,note_off,109,0,0,,0,,,72,127
63208,note_on,1,0,0,,10,,,69,127
63313,note_off,105,0,0,,5,,,41,127
63316,note_off,3,0,0,,10,,,69,127
63317,note_on,1,0,0,,6,,,66,127
63535,note_off,218,0,0,,6,,,66,127
63536,note_on,1,0,0,,5,,,53,127
63536,note_on,0,0,0,,10,,,57,127
63536,note_on,0,0,0,,5,,,65,127
63645,note_off,109,0,0,,5,,,65,127
63646,note_on,1,0,0,,3,,,63,127
63755,note_off,109,0,0,,3,,,63,127
63755,note_off,0,0,0,,10,,,57,127
63755,note_off,0,0,0,,5,,,53,127
63756,note_on,1,0,0,,11,,,58,127
63756,note_on,0,0,0,,6,,,54,127
63756,note_on,0,0,0,,5,,,53,127
63756,note_on,0,0,0,,1,,,61,127
63974,note_off,218,0,0,,1,,,61,127
63975,note_on,1,0,0,,0,,,60,127
64084,note_off,109,0,0,,0,,,60,127
64085,note_on,1,0,0,,1,,,61,127
64194,note_off,109,0,0,,1,,,61,127
64194,note_off,0,0,0,,5,,,53,127
64194,note_off,0,0,0,,6,,,54,127
64194,note_off,0,0,0,,11,,,58,127
64195,note_on,1,0,0,,3,,,51,127
64195,note_on,0,0,0,,11,,,58,127
64195,note_on,0,0,0,,6,,,54,127
64195,note_on,0,0,0,,3,,,63,127
64304,note_off,109,0,0,,3,,,63,127
64305,note_on,1,0,0,,5,,,65,127
64414,note_off,109,0,0,,5,,,65,127
64415,note_on,1,0,0,,6,,,66,127
64522,note_off,107,0,0,,11,,,58,127
64523,note_off,1,0,0,,6,,,66,127
64524,note_on,1,0,0,,11,,,58,127
64633,note_off,109,0,0,,11,,,58,127
64633,note_off,0,0,0,,6,,,54,127
64633,note_off,0,0,0,,3,,,51,127
64634,note_on,1,0,0,,5,,,41,127
64634,note_on,0,0,0,,10,,,57,127
64851,note_off,217,0,0,,5,,,41,127
64852,note_off,1,0,0,,10,,,57,127
64853,note_on,1,0,0,,5,,,77,127
64962,note_off,109,0,0,,5,,,77,127
64963,note_on,1,0,0,,2,,,74,127
65072,note_off,109,0,0,,2,,,74,127
65073,note_on,1,0,0,,12,,,71,127
65291,note_off,218,0,0,,12,,,71,127
65292,note_on,1,0,0,,5,,,65,127
65292,note_on,0,0,0,,2,,,62,127
65292,note_on,0,0,0,,11,,,70,127
65401,note_off,109,0,0,,11,,,70,127
65402,note_on,1,0,0,,8,,,68,127
65511,note_off,109,0,0,,8,,,68,127
65511,note_off,0,0,0,,2,,,62,127
65511,note_off,0,0,0,,5,,,65,127
65512,note_on,1,0,0,,3,,,63,127
65512,note_on,0,0,0,,6,,,66,127
65730,note_off,218,0,0,,6,,,66,127
65730,note_off,0,0,0,,3,,,63,127
65731,note_on,1,0,0,,2,,,62,127
65731,note_on,0,0,0,,8,,,68,127
65840,note_off,109,0,0,,8,,,68,127
65841,note_on,1,0,0,,5,,,65,127
65950,note_off,109,0,0,,5,,,65,127
65950,note_off,0,0,0,,2,,,62,127
65951,note_on,1,0,0,,3,,,63,127
65951,note_on,0,0,0,,6,,,66,127
66169,note_off,218,0,0,,6,,,66,127
66169,note_off,0,0,0,,3,,,63,127
66170,note_on,1,0,0,,2,,,62,127
66170,note_on,0,0,0,,8,,,68,127
66279,note_off,109,0,0,,8,,,68,127
66280,note_on,1,0,0,,5,,,65,127
66389,note_off,109,0,0,,5,,,65,127
66389,note_off,0,0,0,,2,,,62,127
66390,note_on,1,0,0,,3,,,63,127
66390,note_on,0,0,0,,6,,,66,127
66608,note_off,218,0,0,,6,,,66,127
66609,note_on,1,0,0,,3,,,75,127
66718,note_off,109,0,0,,3,,,75,127
66719,note_on,1,0,0,,0,,,72,127
66824,note_off,105,0,0,,3,,,63,127
66827,note_off,3,0,0,,0,,,72,127
66828,note_on,1,0,0,,11,,,70,127
67046,note_off,218,0,0,,11,,,70,127
67047,note_on,1,0,0,,0,,,60,127
67047,note_on,0,0,0,,8,,,68,127
67156,note_off,109,0,0,,8,,,68,127
67157,note_on,1,0,0,,6,,,66,127
67266,note_off,109,0,0,,6,,,66,127
67266,note_off,0,0,0,,0,,,60,127
67267,note_on,1,0,0,,1,,,61,127
67267,note_on,0,0,0,,5,,,65,127
67485,note_off,218,0,0,,5,,,65,127
67485,note_off,0,0,0,,1,,,61,127
67486,note_on,1,0,0,,0,,,60,127
67486,note_on,0,0,0,,6,,,66,127
67595,note_off,109,0,0,,6,,,66,127
67596,note_on,1,0,0,,3,,,63,127
67705,note_off,109,0,0,,3,,,63,127
67705,note_off,0,0,0,,0,,,60,127
67706,note_on,1,0,0,,1,,,61,127
67706,note_on,0,0,0,,5,,,65,127
67924,note_off,218,0,0,,5,,,65,127
67924,note_off,0,0,0,,1,,,61,127
67925,note_on,1,0,0,,0,,,60,127
67925,note_on,0,0,0,,6,,,66,127
68034,note_off,109,0,0,,6,,,66,127
68035,note_on,1,0,0,,3,,,63,127
68144,note_off,109,0,0,,3,,,63,127
68144,note_off,0,0,0,,0,,,60,127
68145,note_on,1,0,0,,1,,,61,127
68145,note_on,0,0,0,,5,,,65,127
68363,note_off,218,0,0,,5,,,65,127
68363,note_off,0,0,0,,1,,,61,127
68364,note_on,1,0,0,,2,,,62,127
68364,note_on,0,0,0,,8,,,68,127
68473,note_off,109,0,0,,8,,,68,127
68474,note_on,1,0,0,,5,,,65,127
68583,note_off,109,0,0,,5,,,65,127
68583,note_off,0,0,0,,2,,,62,127
68584,note_on,1,0,0,,3,,,63,127
68584,note_on,0,0,0,,7,,,67,127
68802,note_off,218,0,0,,7,,,67,127
68802,note_off,0,0,0,,3,,,63,127
68803,note_on,1,0,0,,4,,,64,127
68803,note_on,0,0,0,,11,,,70,127
68912,note_off,109,0,0,,11,,,70,127
68913,note_on,1,0,0,,7,,,67,127
69022,note_off,109,0,0,,7,,,67,127
69022,note_off,0,0,0,,4,,,64,127
69023,note_on,1,0,0,,5,,,65,127
69023,note_on,0,0,0,,10,,,69,127
69241,note_off,218,0,0,,10,,,69,127
69241,note_off,0,0,0,,5,,,65,127
69242,note_on,1,0,0,,5,,,65,127
69242,note_on,0,0,0,,0,,,72,127
69351,note_off,109,0,0,,0,,,72,127
69352,note_on,1,0,0,,10,,,69,127
69461,note_off,109,0,0,,10,,,69,127
69461,note_off,0,0,0,,5,,,65,127
69462,note_on,1,0,0,,6,,,66,127
69462,note_on,0,0,0,,11,,,70,127
69680,note_off,218,0,0,,11,,,70,127
69680,note_off,0,0,0,,6,,,66,127
69681,note_on,1,0,0,,7,,,67,127
69681,note_on,0,0,0,,1,,,73,127
69790,note_off,109,0,0,,1,,,73,127
69791,note_on,1,0,0,,11,,,70,127
69900,note_off,109,0,0,,11,,,70,127
69900,note_off,0,0,0,,7,,,67,127
69901,note_on,1,0,0,,8,,,68,127
69901,note_on,0,0,0,,0,,,72,127
70119,note_off,218,0,0,,0,,,72,127
70119,note_off,0,0,0,,8,,,68,127
70120,note_on,1,0,0,,10,,,69,127
70120,note_on,0,0,0,,3,,,75,127
70229,note_off,109,0,0,,3,,,75,127
70230,note_on,1,0,0,,0,,,72,127
70339,note_off,109,0,0,,0,,,72,127
70339,note_off,0,0,0,,10,,,69,127
70340,note_on,1,0,0,,11,,,70,127
70340,note_on,0,0,0,,1,,,73,127
70558,note_off,218,0,0,,1,,,73,127
70558,note_off,0,0,0,,11,,,70,127
70559,note_on,1,0,0,,5,,,65,127
70559,note_on,0,0,0,,3,,,75,127
70668,note_off,109,0,0,,3,,,75,127
70669,note_on,1,0,0,,0,,,72,127
70778,note_off,109,0,0,,0,,,72,127
70778,note_off,0,0,0,,5,,,65,127
70779,note_on,1,0,0,,11,,,58,127
70779,note_on,0,0,0,,2,,,74,127
70962,note_off,183,0,0,,2,,,74,127
70997,note_off,35,0,0,,11,,,58,127
70998,note_on,1,0,0,,11,,,70,127
70998,note_on,0,0,0,,11,,,82,127
71107,note_off,109,0,0,,11,,,82,127
71108,note_on,1,0,0,,5,,,77,127
71217,note_off,109,0,0,,5,,,77,127
71217,note_off,0,0,0,,11,,,70,127
71218,note_on,1,0,0,,3,,,51,127
71218,note_on,0,0,0,,7,,,79,127
71436,note_off,218,0,0,,7,,,79,127
71436,note_off,0,0,0,,3,,,51,127
71437,note_on,1,0,0,,11,,,70,127
71437,note_on,0,0,0,,11,,,82,127
71546,note_off,109,0,0,,11,,,82,127
71547,note_on,1,0,0,,3,,,75,127
71656,note_off,109,0,0,,3,,,75,127
71656,note_off,0,0,0,,11,,,70,127
71657,note_on,1,0,0,,11,,,46,127
71657,note_on,0,0,0,,5,,,77,127
71875,note_off,218,0,0,,5,,,77,127
71875,note_off,0,0,0,,11,,,46,127
71876,note_on,1,0,0,,11,,,70,127
71876,note_on,0,0,0,,11,,,82,127
71985,note_off,109,0,0,,11,,,82,127
71986,note_on,1,0,0,,2,,,74,127
72095,note_off,109,0,0,,2,,,74,127
72095,note_off,0,0,0,,11,,,70,127
72096,note_on,1,0,0,,5,,,41,127
72096,note_on,0,0,0,,3,,,75,127
72314,note_off,218,0,0,,3,,,75,127
72314,note_off,0,0,0,,5,,,41,127
72315,note_on,1,0,0,,5,,,65,127
72315,note_on,0,0,0,,0,,,84,127
72424,note_off,109,0,0,,0,,,84,127
72425,note_on,1,0,0,,0,,,72,127
72534,note_off,109,0,0,,0,,,72,127
72534,note_off,0,0,0,,5,,,65,127
72535,note_on,1,0,0,,11,,,34,127
72535,note_on,0,0,0,,2,,,74,127
72753,note_off,218,0,0,,2,,,74,127
72753,note_off,0,0,0,,11,,,34,127
72754,note_on,1,0,0,,11,,,70,127
72754,note_on,0,0,0,,11,,,82,127
72863,note_off,109,0,0,,11,,,82,127
72864,note_on,1,0,0,,5,,,77,127
72973,note_off,109,0,0,,5,,,77,127
72973,note_off,0,0,0,,11,,,70,127
72974,note_on,1,0,0,,3,,,51,127
72974,note_on,0,0,0,,7,,,79,127
73192,note_off,218,0,0,,7,,,79,127
73192,note_off,0,0,0,,3,,,51,127
73193,note_on,1,0,0,,11,,,70,127
73193,note_on,0,0,0,,11,,,82,127
73302,note_off,109,0,0,,11,,,82,127
73303,note_on,1,0,0,,3,,,75,127
73412,note_off,109,0,0,,3,,,75,127
73412,note_off,0,0,0,,11,,,70,127
73413,note_on,1,0,0,,11,,,46,127
73413,note_on,0,0,0,,5,,,77,127
73631,note_off,218,0,0,,5,,,77,127
73631,note_off,0,0,0,,11,,,46,127
73632,note_on,1,0,0,,11,,,70,127
73632,note_on,0,0,0,,11,,,82,127
73741,note_off,109,0,0,,11,,,82,127
73742,note_on,1,0,0,,2,,,74,127
73851,note_off,109,0,0,,2,,,74,127
73851,note_off,0,0,0,,11,,,70,127
73852,note_on,1,0,0,,5,,,41,127
73852,note_on,0,0,0,,3,,,75,127
74070,note_off,218,0,0,,3,,,75,127
74070,note_off,0,0,0,,5,,,41,127
74071,note_on,1,0,0,,5,,,65,127
74071,note_on,0,0,0,,0,,,84,127
74180,note_off,109,0,0,,0,,,84,127
74181,note_on,1,0,0,,0,,,72,127
74290,note_off,109,0,0,,0,,,72,127
74290,note_off,0,0,0,,5,,,65,127
74291,note_on,1,0,0,,11,,,34,127
74291,note_on,0,0,0,,2,,,74,127
74509,note_off,218,0,0,,2,,,74,127
74509,note_off,0,0,0,,11,,,34,127
74510,note_on,1,0,0,,2,,,50,127
74510,note_on,0,0,0,,11,,,82,127
74619,note_off,109,0,0,,11,,,82,127
74620,note_on,1,0,0,,5,,,77,127
74729,note_off,109,0,0,,5,,,77,127
74729,note_off,0,0,0,,2,,,50,127
74730,note_on,1,0,0,,3,,,51,127
74730,note_on,0,0,0,,7,,,79,127
74839,note_off,109,0,0,,7,,,79,127
74840,note_on,1,0,0,,3,,,75,127
74949,note_off,109,0,0,,3,,,75,127
74949,note_off,0,0,0,,3,,,51,127
74950,note_on,1,0,0,,0,,,48,127
74950,note_on,0,0,0,,10,,,81,127
75059,note_off,109,0,0,,10,,,81,127
75060,note_on,1,0,0,,5,,,77,127
75169,note_off,109,0,0,,5,,,77,127
75169,note_off,0,0,0,,0,,,48,127
75170,note_on,1,0,0,,2,,,50,127
75170,note_on,0,0,0,,11,,,82,127
75279,note_off,109,0,0,,11,,,82,127
75280,note_on,1,0,0,,2,,,74,127
75389,note_off,109,0,0,,2,,,74,127
75389,note_off,0,0,0,,2,,,50,127
75390,note_on,1,0,0,,3,,,51,127
75390,note_on,0,0,0,,3,,,75,127
75499,note_off,109,0,0,,3,,,75,127
75500,note_on,1,0,0,,0,,,72,127
75609,note_off,109,0,0,,0,,,72,127
75609,note_off,0,0,0,,3,,,51,127
75610,note_on,1,0,0,,5,,,53,127
75610,note_on,0,0,0,,2,,,74,127
75828,note_off,218,0,0,,2,,,74,127
75828,note_off,0,0,0,,5,,,53,127
75829,note_on,1,0,0,,5,,,41,127
75829,note_on,0,0,0,,2,,,74,127
75883,note_off,54,0,0,,2,,,74,127
75884,note_on,1,0,0,,0,,,72,127
75938,note_off,54,0,0,,0,,,72,127
75939,note_on,1,0,0,,11,,,70,127
75993,note_off,54,0,0,,11,,,70,127
75994,note_on,1,0,0,,0,,,72,127
76048,note_off,54,0,0,,0,,,72,127
76048,note_off,0,0,0,,5,,,41,127
76049,note_on,1,0,0,,11,,,58,127
76049,note_on,0,0,0,,11,,,70,127
76267,note_off,218,0,0,,11,,,70,127
76267,note_off,0,0,0,,11,,,58,127
76268,note_on,1,0,0,,11,,,70,127
76268,note_on,0,0,0,,11,,,82,127
76377,note_off,109,0,0,,11,,,82,127
76378,note_on,1,0,0,,5,,,77,127
76487,note_off,109,0,0,,5,,,77,127
76487,note_off,0,0,0,,11,,,70,127
76488,note_on,1,0,0,,3,,,51,127
76488,note_on,0,0,0,,7,,,79,127
76706,note_off,218,0,0,,7,,,79,127
76706,note_off,0,0,0,,3,,,51,127
76707,note_on,1,0,0,,11,,,70,127
76707,note_on,0,0,0,,11,,,82,127
76816,note_off,109,0,0,,11,,,82,127
76817,note_on,1,0,0,,3,,,75,127
76926,note_off,109,0,0,,3,,,75,127
76926,note_off,0,0,0,,11,,,70,127
76927,note_on,1,0,0,,11,,,46,127
76927,note_on,0,0,0,,5,,,77,127
77145,note_off,218,0,0,,5,,,77,127
77145,note_off,0,0,0,,11,,,46,127
77146,note_on,1,0,0,,11,,,70,127
77146,note_on,0,0,0,,11,,,82,127
77255,note_off,109,0,0,,11,,,82,127
77256,note_on,1,0,0,,2,,,74,127
77365,note_off,109,0,0,,2,,,74,127
77365,note_off,0,0,0,,11,,,70,127
77366,note_on,1,0,0,,5,,,41,127
77366,note_on,0,0,0,,3,,,75,127
77584,note_off,218,0,0,,3,,,75,127
77584,note_off,0,0,0,,5,,,41,127
77585,note_on,1,0,0,,5,,,65,127
77585,note_on,0,0,0,,0,,,84,127
77694,note_off,109,0,0,,0,,,84,127
77695,note_on,1,0,0,,0,,,72,127
77804,note_off,109,0,0,,0,,,72,127
77804,note_off,0,0,0,,5,,,65,127
77805,note_on,1,0,0,,11,,,34,127
77805,note_on,0,0,0,,2,,,74,127
78023,note_off,218,0,0,,2,,,74,127
78023,note_off,0,0,0,,11,,,34,127
78024,note_on,1,0,0,,11,,,70,127
78024,note_on,0,0,0,,11,,,82,127
78133,note_off,109,0,0,,11,,,82,127
78134,note_on,1,0,0,,5,,,77,127
78243,note_off,109,0,0,,5,,,77,127
78243,note_off,0,0,0,,11,,,70,127
78244,note_on,1,0,0,,3,,,51,127
78244,note_on,0,0,0,,7,,,79,127
78462,note_off,218,0,0,,7,,,79,127
78462,note_off,0,0,0,,3,,,51,127
78463,note_on,1,0,0,,11,,,70,127
78463,note_on,0,0,0,,11,,,82,127
78572,note_off,109,0,0,,11,,,82,127
78573,note_on,1,0,0,,3,,,75,127
78682,note_off,109,0,0,,3,,,75,127
78682,note_off,0,0,0,,11,,,70,127
78683,note_on,1,0,0,,11,,,46,127
78683,note_on,0,0,0,,5,,,77,127
78901,note_off,218,0,0,,5,,,77,127
78901,note_off,0,0,0,,11,,,46,127
78902,note_on,1,0,0,,11,,,70,127
78902,note_on,0,0,0,,11,,,82,127
79011,note_off,109,0,0,,11,,,82,127
79012,note_on,1,0,0,,2,,,74,127
79121,note_off,109,0,0,,2,,,74,127
79121,note_off,0,0,0,,11,,,70,127
79122,note_on,1,0,0,,5,,,41,127
79122,note_on,0,0,0,,3,,,75,127
79340,note_off,218,0,0,,3,,,75,127
79340,note_off,0,0,0,,5,,,41,127
79341,note_on,1,0,0,,5,,,65,127
79341,note_on,0,0,0,,0,,,84,127
79450,note_off,109,0,0,,0,,,84,127
79451,note_on,1,0,0,,0,,,72,127
79560,note_off,109,0,0,,0,,,72,127
79560,note_off,0,0,0,,5,,,65,127
79561,note_on,1,0,0,,11,,,34,127
79561,note_on,0,0,0,,2,,,74,127
79779,note_off,218,0,0,,2,,,74,127
79779,note_off,0,0,0,,11,,,34,127
79780,note_on,1,0,0,,2,,,50,127
79780,note_on,0,0,0,,11,,,82,127
79889,note_off,109,0,0,,11,,,82,127
79890,note_on,1,0,0,,5,,,77,127
79999,note_off,109,0,0,,5,,,77,127
79999,note_off,0,0,0,,2,,,50,127
80000,note_on,1,0,0,,3,,,51,127
80000,note_on,0,0,0,,7,,,79,127
80109,note_off,109,0,0,,7,,,79,127
80110,note_on,1,0,0,,3,,,75,127
80219,note_off,109,0,0,,3,,,75,127
80219,note_off,0,0,0,,3,,,51,127
80220,note_on,1,0,0,,0,,,48,127
80220,note_on,0,0,0,,10,,,81,127
80329,note_off,109,0,0,,10,,,81,127
80330,note_on,1,0,0,,5,,,77,127
80439,note_off,109,0,0,,5,,,77,127
80439,note_off,0,0,0,,0,,,48,127
80440,note_on,1,0,0,,2,,,50,127
80440,note_on,0,0,0,,11,,,82,127
80549,note_off,109,0,0,,11,,,82,127
80550,note_on,1,0,0,,2,,,74,127
80659,note_off,109,0,0,,2,,,74,127
80659,note_off,0,0,0,,2,,,50,127
80660,note_on,1,0,0,,3,,,51,127
80660,note_on,0,0,0,,3,,,75,127
80769,note_off,109,0,0,,3,,,75,127
80770,note_on,1,0,0,,0,,,72,127
80879,note_off,109,0,0,,0,,,72,127
80879,note_off,0,0,0,,3,,,51,127
80880,note_on,1,0,0,,5,,,53,127
80880,note_on,0,0,0,,2,,,74,127
81098,note_off,218,0,0,,2,,,74,127
81099,note_on,1,0,0,,5,,,41,127
81099,note_on,0,0,0,,2,,,74,127
81153,note_off,54,0,0,,2,,,74,127
81154,note_on,1,0,0,,0,,,72,127
81208,note_off,54,0,0,,0,,,72,127
81209,note_on,1,0,0,,11,,,70,127
81263,note_off,54,0,0,,11,,,70,127
81264,note_on,1,0,0,,0,,,72,127
81314,note_off,50,0,0,,5,,,53,127
81317,note_off,3,0,0,,0,,,72,127
81317,note_off,0,0,0,,5,,,41,127
81318,note_on,1,0,0,,11,,,46,127
81318,note_on,0,0,0,,11,,,70,127
81536,note_off,218,0,0,,11,,,70,127
81537,note_on,1,0,0,,2,,,74,127
81537,note_on,0,0,0,,11,,,82,127
81646,note_off,109,0,0,,11,,,82,127
81646,note_off,0,0,0,,2,,,74,127
81647,note_on,1,0,0,,3,,,75,127
81647,note_on,0,0,0,,0,,,84,127
81756,note_off,109,0,0,,0,,,84,127
81756,note_off,0,0,0,,3,,,75,127
81756,note_off,0,0,0,,11,,,46,127
81757,note_on,1,0,0,,11,,,34,127
81757,note_on,0,0,0,,11,,,82,127
81757,note_on,0,0,0,,2,,,74,127
81975,note_off,218,0,0,,2,,,74,127
81975,note_off,0,0,0,,11,,,82,127
81976,note_on,1,0,0,,2,,,74,127
81976,note_on,0,0,0,,11,,,82,127
82085,note_off,109,0,0,,11,,,82,127
82085,note_off,0,0,0,,2,,,74,127
82086,note_on,1,0,0,,0,,,84,127
82086,note_on,0,0,0,,3,,,75,127
82195,note_off,109,0,0,,3,,,75,127
82195,note_off,0,0,0,,0,,,84,127
82195,note_off,0,0,0,,11,,,34,127
82196,note_on,1,0,0,,11,,,34,127
82196,note_on,0,0,0,,2,,,74,127
82196,note_on,0,0,0,,11,,,82,127
82414,note_off,218,0,0,,11,,,82,127
82414,note_off,0,0,0,,2,,,74,127
82415,note_on,1,0,0,,11,,,82,127
82415,note_on,0,0,0,,2,,,74,127
82524,note_off,109,0,0,,2,,,74,127
82524,note_off,0,0,0,,11,,,82,127
82525,note_on,1,0,0,,3,,,75,127
82525,note_on,0,0,0,,0,,,84,127
82634,note_off,109,0,0,,0,,,84,127
82634,note_off,0,0,0,,3,,,75,127
82634,note_off,0,0,0,,11,,,34,127
82635,note_on,1,0,0,,11,,,34,127
82635,note_on,0,0,0,,2,,,74,127
82635,note_on,0,0,0,,11,,,82,127
82744,note_off,109,0,0,,11,,,82,127
82744,note_off,0,0,0,,2,,,74,127
82745,note_on,1,0,0,,3,,,75,127
82745,note_on,0,0,0,,0,,,84,127
82854,note_off,109,0,0,,0,,,84,127
82854,note_off,0,0,0,,3,,,75,127
82855,note_on,1,0,0,,11,,,82,127
82855,note_on,0,0,0,,2,,,74,127
82964,note_off,109,0,0,,2,,,74,127
82964,note_off,0,0,0,,11,,,82,127
82965,note_on,1,0,0,,0,,,84,127
82965,note_on,0,0,0,,3,,,75,127
83074,note_off,109,0,0,,3,,,75,127
83074,note_off,0,0,0,,0,,,84,127
83074,note_off,0,0,0,,11,,,34,127
83075,note_on,1,0,0,,11,,,34,127
83075,note_on,0,0,0,,0,,,84,127
83075,note_on,0,0,0,,3,,,75,127
83129,note_off,54,0,0,,3,,,75,127
83129,note_off,0,0,0,,0,,,84,127
83130,note_on,1,0,0,,2,,,74,127
83130,note_on,0,0,0,,11,,,82,127
83184,note_off,54,0,0,,11,,,82,127
83184,note_off,0,0,0,,2,,,74,127
83185,note_on,1,0,0,,3,,,75,127
83185,note_on,0,0,0,,0,,,84,127
83239,note_off,54,0,0,,0,,,84,127
83239,note_off,0,0,0,,3,,,75,127
83240,note_on,1,0,0,,2,,,74,127
83240,note_on,0,0,0,,11,,,82,127
85050,note_off,1810,0,0,,11,,,34,127
85060,note_off,10,0,0,,11,,,82,127
85060,note_off,0,0,0,,2,,,74,127
86016,end_of_track,956,1,0,,,,,,
