tick,type,time,meta,track,program,channel,pitch,tempo,note,velocity
0,copyright,0,1,0,,,,,,
0,program_change,0,0,0,6,0,,,,
0,pitchwheel,0,0,0,,0,0,,,
0,program_change,0,0,0,6,1,,,,
0,pitchwheel,0,0,0,,1,-590,,,
0,program_change,0,0,0,6,2,,,,
0,pitchwheel,0,0,0,,2,-272,,,
0,program_change,0,0,0,6,3,,,,
0,pitchwheel,0,0,0,,3,-353,,,
0,program_change,0,0,0,6,4,,,,
0,pitchwheel,0,0,0,,4,-560,,,
0,program_change,0,0,0,6,5,,,,
0,pitchwheel,0,0,0,,5,-80,,,
0,program_change,0,0,0,6,6,,,,
0,pitchwheel,0,0,0,,6,-625,,,
0,program_change,0,0,0,6,7,,,,
0,pitchwheel,0,0,0,,7,-130,,,
0,program_change,0,0,0,6,8,,,,
0,pitchwheel,0,0,0,,8,-512,,,
0,program_change,0,0,0,6,10,,,,
0,pitchwheel,0,0,0,,10,-464,,,
0,program_change,0,0,0,6,11,,,,
0,pitchwheel,0,0,0,,11,-208,,,
0,program_change,0,0,0,6,12,,,,
0,pitchwheel,0,0,0,,12,-553,,,
0,set_tempo,0,1,0,,,,500000,,
110,note_on,110,0,0,,0,,,84,127
164,note_off,54,0,0,,0,,,84,127
165,note_on,1,0,0,,11,,,82,127
219,note_off,54,0,0,,11,,,82,127
220,note_on,1,0,0,,0,,,84,127
274,note_off,54,0,0,,0,,,84,127
275,note_on,1,0,0,,11,,,82,127
330,note_on,55,0,0,,11,,,70,127
330,note_on,0,0,0,,2,,,74,127
548,note_off,218,0,0,,2,,,74,127
548,note_off,0,0,0,,11,,,70,127
549,note_on,1,0,0,,10,,,69,127
549,note_on,0,0,0,,0,,,72,127
766,note_off,217,0,0,,0,,,72,127
766,note_off,0,0,0,,10,,,69,127
767,note_off,1,0,0,,11,,,82,127
768,note_on,1,0,0,,0,,,84,127
822,note_off,54,0,0,,0,,,84,127
823,note_on,1,0,0,,11,,,82,127
877,note_off,54,0,0,,11,,,82,127
878,note_on,1,0,0,,0,,,84,127
932,note_off,54,0,0,,0,,,84,127
933,note_on,1,0,0,,11,,,82,127
988,note_on,55,0,0,,7,,,67,127
988,note_on,0,0,0,,11,,,70,127
1206,note_off,218,0,0,,11,,,70,127
1206,note_off,0,0,0,,7,,,67,127
1207,note_on,1,0,0,,5,,,65,127
1207,note_on,0,0,0,,10,,,69,127
1424,note_off,217,0,0,,10,,,69,127
1424,note_off,0,0,0,,5,,,65,127
1425,note_off,1,0,0,,11,,,82,127
1426,note_on,1,0,0,,0,,,84,127
1480,note_off,54,0,0,,0,,,84,127
1481,note_on,1,0,0,,11,,,82,127
1535,note_off,54,0,0,,11,,,82,127
1536,note_on,1,0,0,,0,,,84,127
1590,note_off,54,0,0,,0,,,84,127
1591,note_on,1,0,0,,11,,,82,127
1646,note_on,55,0,0,,3,,,63,127
1646,note_on,0,0,0,,7,,,67,127
1864,note_off,218,0,0,,7,,,67,127
1864,note_off,0,0,0,,3,,,63,127
1865,note_on,1,0,0,,5,,,65,127
1865,note_on,0,0,0,,2,,,62,127
2083,note_off,218,0,0,,2,,,62,127
2083,note_off,0,0,0,,5,,,65,127
2083,note_off,0,0,0,,11,,,82,127
2084,note_on,1,0,0,,3,,,63,127
2084,note_on,0,0,0,,11,,,82,127
2193,note_off,109,0,0,,11,,,82,127
2194,note_on,1,0,0,,7,,,79,127
2303,note_off,109,0,0,,7,,,79,127
2303,note_off,0,0,0,,3,,,63,127
2304,note_on,1,0,0,,5,,,65,127
2304,note_on,0,0,0,,5,,,77,127
2413,note_off,109,0,0,,5,,,77,127
2414,note_on,1,0,0,,3,,,75,127
2523,note_off,109,0,0,,3,,,75,127
2523,note_off,0,0,0,,5,,,65,127
2524,note_on,1,0,0,,5,,,53,127
2524,note_on,0,0,0,,2,,,74,127
2633,note_off,109,0,0,,2,,,74,127
2634,note_on,1,0,0,,0,,,72,127
2741,note_off,107,0,0,,5,,,53,127
2742,note_off,1,0,0,,0,,,72,127
2743,note_on,1,0,0,,0,,,84,127
2743,note_on,0,0,0,,11,,,82,127
2852,note_off,109,0,0,,11,,,82,127
2852,note_off,0,0,0,,0,,,84,127
2853,note_on,1,0,0,,10,,,81,127
2962,note_off,109,0,0,,10,,,81,127
2963,note_on,1,0,0,,2,,,74,127
2963,note_on,0,0,0,,11,,,70,127
2963,note_on,0,0,0,,11,,,82,127
3181,note_off,218,0,0,,11,,,70,127
3181,note_off,0,0,0,,2,,,74,127
3182,note_on,1,0,0,,0,,,72,127
3182,note_on,0,0,0,,10,,,69,127
3399,note_off,217,0,0,,10,,,69,127
3399,note_off,0,0,0,,0,,,72,127
3400,note_off,1,0,0,,11,,,82,127
3401,note_on,1,0,0,,0,,,84,127
3401,note_on,0,0,0,,11,,,82,127
3510,note_off,109,0,0,,11,,,82,127
3510,note_off,0,0,0,,0,,,84,127
3511,note_on,1,0,0,,10,,,81,127
3620,note_off,109,0,0,,10,,,81,127
3621,note_on,1,0,0,,11,,,70,127
3621,note_on,0,0,0,,7,,,67,127
3621,note_on,0,0,0,,11,,,82,127
3839,note_off,218,0,0,,7,,,67,127
3839,note_off,0,0,0,,11,,,70,127
3840,note_on,1,0,0,,10,,,69,127
3840,note_on,0,0,0,,5,,,65,127
4057,note_off,217,0,0,,5,,,65,127
4057,note_off,0,0,0,,10,,,69,127
4058,note_off,1,0,0,,11,,,82,127
4059,note_on,1,0,0,,11,,,82,127
4059,note_on,0,0,0,,0,,,84,127
4168,note_off,109,0,0,,0,,,84,127
4168,note_off,0,0,0,,11,,,82,127
4169,note_on,1,0,0,,10,,,81,127
4278,note_off,109,0,0,,10,,,81,127
4279,note_on,1,0,0,,7,,,67,127
4279,note_on,0,0,0,,3,,,63,127
4279,note_on,0,0,0,,11,,,82,127
4497,note_off,218,0,0,,3,,,63,127
4497,note_off,0,0,0,,7,,,67,127
4498,note_on,1,0,0,,5,,,65,127
4498,note_on,0,0,0,,2,,,62,127
4716,note_off,218,0,0,,2,,,62,127
4716,note_off,0,0,0,,5,,,65,127
4716,note_off,0,0,0,,11,,,82,127
4717,note_on,1,0,0,,3,,,63,127
4717,note_on,0,0,0,,11,,,82,127
4826,note_off,109,0,0,,11,,,82,127
4827,note_on,1,0,0,,7,,,79,127
4936,note_off,109,0,0,,7,,,79,127
4936,note_off,0,0,0,,3,,,63,127
4937,note_on,1,0,0,,5,,,65,127
4937,note_on,0,0,0,,5,,,77,127
5046,note_off,109,0,0,,5,,,77,127
5047,note_on,1,0,0,,3,,,75,127
5156,note_off,109,0,0,,3,,,75,127
5156,note_off,0,0,0,,5,,,65,127
5157,note_on,1,0,0,,5,,,53,127
5157,note_on,0,0,0,,2,,,74,127
5266,note_off,109,0,0,,2,,,74,127
5267,note_on,1,0,0,,0,,,72,127
5376,note_off,109,0,0,,0,,,72,127
5376,note_off,0,0,0,,5,,,53,127
5377,note_on,1,0,0,,11,,,46,127
5377,note_on,0,0,0,,11,,,70,127
5486,note_off,109,0,0,,11,,,70,127
5487,note_on,1,0,0,,7,,,67,127
5596,note_off,109,0,0,,7,,,67,127
5597,note_on,1,0,0,,5,,,65,127
5706,note_off,109,0,0,,5,,,65,127
5707,note_on,1,0,0,,3,,,63,127
5816,note_off,109,0,0,,3,,,63,127
5817,note_on,1,0,0,,2,,,62,127
5926,note_off,109,0,0,,2,,,62,127
5927,note_on,1,0,0,,0,,,60,127
6036,note_off,109,0,0,,0,,,60,127
6037,note_on,1,0,0,,11,,,58,127
6144,note_off,107,0,0,,11,,,46,127
6146,note_on,2,0,0,,7,,,55,127
6255,note_off,109,0,0,,7,,,55,127
6256,note_on,1,0,0,,5,,,53,127
6365,note_off,109,0,0,,5,,,53,127
6366,note_on,1,0,0,,3,,,51,127
6475,note_off,109,0,0,,3,,,51,127
6476,note_on,1,0,0,,2,,,50,127
6585,note_off,109,0,0,,2,,,50,127
6586,note_on,1,0,0,,0,,,48,127
6695,note_off,109,0,0,,0,,,48,127
6696,note_on,1,0,0,,11,,,46,127
6803,note_off,107,0,0,,11,,,58,127
6805,note_on,2,0,0,,7,,,43,127
6914,note_off,109,0,0,,7,,,43,127
6915,note_on,1,0,0,,5,,,41,127
7024,note_off,109,0,0,,5,,,41,127
7025,note_on,1,0,0,,3,,,39,127
7134,note_off,109,0,0,,3,,,39,127
7135,note_on,1,0,0,,2,,,38,127
7244,note_off,109,0,0,,2,,,38,127
7245,note_on,1,0,0,,0,,,36,127
7354,note_off,109,0,0,,0,,,36,127
7354,note_off,0,0,0,,11,,,46,127
7355,note_on,1,0,0,,11,,,34,127
7684,note_on,329,0,0,,11,,,70,127
7684,note_on,0,0,0,,11,,,82,127
7793,note_off,109,0,0,,11,,,34,127
7904,note_on,111,0,0,,11,,,58,127
8122,note_off,218,0,0,,11,,,58,127
8122,note_off,0,0,0,,11,,,82,127
8122,note_off,0,0,0,,11,,,70,127
8123,note_on,1,0,0,,10,,,81,127
8123,note_on,0,0,0,,0,,,60,127
8232,note_off,109,0,0,,10,,,81,127
8233,note_on,1,0,0,,7,,,79,127
8342,note_off,109,0,0,,7,,,79,127
8343,note_on,1,0,0,,6,,,78,127
8452,note_off,109,0,0,,6,,,78,127
8453,note_on,1,0,0,,3,,,75,127
8562,note_off,109,0,0,,3,,,75,127
8562,note_off,0,0,0,,0,,,60,127
8563,note_on,1,0,0,,2,,,74,127
8563,note_on,0,0,0,,2,,,62,127
8672,note_off,109,0,0,,2,,,74,127
8673,note_on,1,0,0,,0,,,72,127
8782,note_off,109,0,0,,0,,,72,127
8782,note_off,0,0,0,,2,,,62,127
8783,note_on,1,0,0,,7,,,79,127
8783,note_on,0,0,0,,3,,,63,127
8892,note_off,109,0,0,,7,,,79,127
8893,note_on,1,0,0,,11,,,70,127
9002,note_off,109,0,0,,11,,,70,127
9003,note_on,1,0,0,,10,,,69,127
9112,note_off,109,0,0,,10,,,69,127
9113,note_on,1,0,0,,6,,,78,127
9222,note_off,109,0,0,,6,,,78,127
9222,note_off,0,0,0,,3,,,63,127
9223,note_on,1,0,0,,6,,,78,127
9223,note_on,0,0,0,,3,,,51,127
9332,note_off,109,0,0,,6,,,78,127
9333,note_on,1,0,0,,7,,,79,127
9442,note_off,109,0,0,,7,,,79,127
9442,note_off,0,0,0,,3,,,51,127
9443,note_on,1,0,0,,7,,,79,127
9443,note_on,0,0,0,,2,,,50,127
9661,note_off,218,0,0,,7,,,79,127
9662,note_on,1,0,0,,11,,,82,127
9716,note_off,54,0,0,,11,,,82,127
9717,note_on,1,0,0,,10,,,81,127
9771,note_off,54,0,0,,10,,,81,127
9771,note_off,0,0,0,,2,,,50,127
9772,note_on,1,0,0,,11,,,82,127
9772,note_on,0,0,0,,0,,,60,127
9826,note_off,54,0,0,,11,,,82,127
9827,note_on,1,0,0,,10,,,81,127
9881,note_off,54,0,0,,10,,,81,127
9881,note_off,0,0,0,,0,,,60,127
9882,note_on,1,0,0,,11,,,82,127
9882,note_on,0,0,0,,11,,,58,127
9936,note_off,54,0,0,,11,,,82,127
9937,note_on,1,0,0,,10,,,81,127
9991,note_off,54,0,0,,10,,,81,127
9991,note_off,0,0,0,,11,,,58,127
9992,note_on,1,0,0,,11,,,82,127
9992,note_on,0,0,0,,10,,,57,127
10046,note_off,54,0,0,,11,,,82,127
10047,note_on,1,0,0,,10,,,81,127
10101,note_off,54,0,0,,10,,,57,127
10102,note_on,1,0,0,,7,,,55,127
10156,note_off,54,0,0,,10,,,81,127
10322,note_on,166,0,0,,11,,,70,127
10322,note_on,0,0,0,,11,,,82,127
10431,note_off,109,0,0,,7,,,55,127
10432,note_on,1,0,0,,5,,,53,127
10541,note_off,109,0,0,,5,,,53,127
10542,note_on,1,0,0,,3,,,51,127
10651,note_off,109,0,0,,3,,,51,127
10652,note_on,1,0,0,,2,,,50,127
10761,note_off,109,0,0,,2,,,50,127
10761,note_off,0,0,0,,11,,,82,127
10761,note_off,0,0,0,,11,,,70,127
10762,note_on,1,0,0,,10,,,81,127
10762,note_on,0,0,0,,0,,,48,127
10871,note_off,109,0,0,,10,,,81,127
10872,note_on,1,0,0,,7,,,79,127
10981,note_off,109,0,0,,7,,,79,127
10981,note_off,0,0,0,,0,,,48,127
10982,note_on,1,0,0,,6,,,78,127
10982,note_on,0,0,0,,0,,,60,127
11091,note_off,109,0,0,,6,,,78,127
11092,note_on,1,0,0,,3,,,75,127
11201,note_off,109,0,0,,3,,,75,127
11201,note_off,0,0,0,,0,,,60,127
11202,note_on,1,0,0,,2,,,74,127
11202,note_on,0,0,0,,2,,,62,127
11311,note_off,109,0,0,,2,,,74,127
11312,note_on,1,0,0,,0,,,72,127
11421,note_off,109,0,0,,0,,,72,127
11421,note_off,0,0,0,,2,,,62,127
11422,note_on,1,0,0,,7,,,79,127
11422,note_on,0,0,0,,3,,,63,127
11531,note_off,109,0,0,,7,,,79,127
11532,note_on,1,0,0,,11,,,70,127
11641,note_off,109,0,0,,11,,,70,127
11642,note_on,1,0,0,,10,,,69,127
11751,note_off,109,0,0,,10,,,69,127
11752,note_on,1,0,0,,6,,,78,127
11861,note_off,109,0,0,,6,,,78,127
11861,note_off,0,0,0,,3,,,63,127
11862,note_on,1,0,0,,6,,,78,127
11862,note_on,0,0,0,,3,,,51,127
11971,note_off,109,0,0,,6,,,78,127
11972,note_on,1,0,0,,7,,,79,127
12081,note_off,109,0,0,,7,,,79,127
12081,note_off,0,0,0,,3,,,51,127
12082,note_on,1,0,0,,7,,,79,127
12082,note_on,0,0,0,,2,,,50,127
12300,note_off,218,0,0,,7,,,79,127
12301,note_on,1,0,0,,12,,,83,127
12355,note_off,54,0,0,,12,,,83,127
12356,note_on,1,0,0,,10,,,81,127
12410,note_off,54,0,0,,10,,,81,127
12410,note_off,0,0,0,,2,,,50,127
12411,note_on,1,0,0,,12,,,83,127
12411,note_on,0,0,0,,2,,,62,127
12465,note_off,54,0,0,,12,,,83,127
12466,note_on,1,0,0,,10,,,81,127
12520,note_off,54,0,0,,10,,,81,127
12520,note_off,0,0,0,,2,,,62,127
12521,note_on,1,0,0,,12,,,83,127
12521,note_on,0,0,0,,0,,,60,127
12575,note_off,54,0,0,,12,,,83,127
12576,note_on,1,0,0,,10,,,81,127
12630,note_off,54,0,0,,10,,,81,127
12630,note_off,0,0,0,,0,,,60,127
12631,note_on,1,0,0,,12,,,83,127
12631,note_on,0,0,0,,12,,,59,127
12685,note_off,54,0,0,,12,,,83,127
12686,note_on,1,0,0,,10,,,81,127
12740,note_off,54,0,0,,12,,,59,127
12741,note_off,1,0,0,,10,,,81,127
12741,note_on,0,0,0,,10,,,57,127
12960,note_on,219,0,0,,0,,,84,127
12960,note_on,0,0,0,,0,,,72,127
13069,note_off,109,0,0,,10,,,57,127
13070,note_on,1,0,0,,7,,,67,127
13179,note_off,109,0,0,,7,,,67,127
13180,note_on,1,0,0,,5,,,65,127
13289,note_off,109,0,0,,5,,,65,127
13290,note_on,1,0,0,,4,,,64,127
13399,note_off,109,0,0,,4,,,64,127
13399,note_off,0,0,0,,0,,,72,127
13399,note_off,0,0,0,,0,,,84,127
13400,note_on,1,0,0,,2,,,62,127
13400,note_on,0,0,0,,12,,,83,127
13509,note_off,109,0,0,,12,,,83,127
13510,note_on,1,0,0,,10,,,81,127
13619,note_off,109,0,0,,10,,,81,127
13620,note_on,1,0,0,,8,,,80,127
13729,note_off,109,0,0,,8,,,80,127
13730,note_on,1,0,0,,5,,,77,127
13839,note_off,109,0,0,,5,,,77,127
13839,note_off,0,0,0,,2,,,62,127
13840,note_on,1,0,0,,4,,,64,127
13840,note_on,0,0,0,,4,,,76,127
13949,note_off,109,0,0,,4,,,76,127
13950,note_on,1,0,0,,2,,,74,127
14059,note_off,109,0,0,,2,,,74,127
14059,note_off,0,0,0,,4,,,64,127
14060,note_on,1,0,0,,5,,,65,127
14060,note_on,0,0,0,,10,,,81,127
14169,note_off,109,0,0,,10,,,81,127
14170,note_on,1,0,0,,0,,,72,127
14279,note_off,109,0,0,,0,,,72,127
14280,note_on,1,0,0,,12,,,71,127
14389,note_off,109,0,0,,12,,,71,127
14390,note_on,1,0,0,,8,,,80,127
14499,note_off,109,0,0,,8,,,80,127
14499,note_off,0,0,0,,5,,,65,127
14500,note_on,1,0,0,,5,,,53,127
14500,note_on,0,0,0,,8,,,80,127
14609,note_off,109,0,0,,8,,,80,127
14610,note_on,1,0,0,,10,,,81,127
14719,note_off,109,0,0,,10,,,81,127
14719,note_off,0,0,0,,5,,,53,127
14720,note_on,1,0,0,,4,,,52,127
14720,note_on,0,0,0,,10,,,81,127
14938,note_off,218,0,0,,10,,,81,127
14939,note_on,1,0,0,,0,,,84,127
14993,note_off,54,0,0,,0,,,84,127
14994,note_on,1,0,0,,12,,,83,127
15048,note_off,54,0,0,,12,,,83,127
15048,note_off,0,0,0,,4,,,52,127
15049,note_on,1,0,0,,2,,,62,127
15049,note_on,0,0,0,,0,,,84,127
15103,note_off,54,0,0,,0,,,84,127
15104,note_on,1,0,0,,12,,,83,127
15158,note_off,54,0,0,,12,,,83,127
15158,note_off,0,0,0,,2,,,62,127
15159,note_on,1,0,0,,0,,,60,127
15159,note_on,0,0,0,,0,,,84,127
15213,note_off,54,0,0,,0,,,84,127
15214,note_on,1,0,0,,12,,,83,127
15268,note_off,54,0,0,,12,,,83,127
15268,note_off,0,0,0,,0,,,60,127
15269,note_on,1,0,0,,12,,,59,127
15269,note_on,0,0,0,,0,,,84,127
15323,note_off,54,0,0,,0,,,84,127
15324,note_on,1,0,0,,12,,,83,127
15378,note_off,54,0,0,,12,,,59,127
15379,note_on,1,0,0,,10,,,57,127
15433,note_off,54,0,0,,12,,,83,127
15599,note_on,166,0,0,,0,,,84,127
15599,note_on,0,0,0,,0,,,72,127
15708,note_off,109,0,0,,10,,,57,127
15709,note_on,1,0,0,,7,,,55,127
15818,note_off,109,0,0,,7,,,55,127
15819,note_on,1,0,0,,5,,,53,127
15928,note_off,109,0,0,,5,,,53,127
15929,note_on,1,0,0,,4,,,52,127
16038,note_off,109,0,0,,4,,,52,127
16038,note_off,0,0,0,,0,,,72,127
16038,note_off,0,0,0,,0,,,84,127
16039,note_on,1,0,0,,2,,,50,127
16039,note_on,0,0,0,,12,,,83,127
16148,note_off,109,0,0,,12,,,83,127
16149,note_on,1,0,0,,10,,,81,127
16258,note_off,109,0,0,,10,,,81,127
16258,note_off,0,0,0,,2,,,50,127
16259,note_on,1,0,0,,2,,,62,127
16259,note_on,0,0,0,,8,,,80,127
16368,note_off,109,0,0,,8,,,80,127
16369,note_on,1,0,0,,5,,,77,127
16478,note_off,109,0,0,,5,,,77,127
16478,note_off,0,0,0,,2,,,62,127
16479,note_on,1,0,0,,4,,,64,127
16479,note_on,0,0,0,,4,,,76,127
16588,note_off,109,0,0,,4,,,76,127
16589,note_on,1,0,0,,2,,,74,127
16698,note_off,109,0,0,,2,,,74,127
16698,note_off,0,0,0,,4,,,64,127
16699,note_on,1,0,0,,5,,,65,127
16699,note_on,0,0,0,,10,,,81,127
16808,note_off,109,0,0,,10,,,81,127
16809,note_on,1,0,0,,0,,,72,127
16918,note_off,109,0,0,,0,,,72,127
16919,note_on,1,0,0,,12,,,71,127
17028,note_off,109,0,0,,12,,,71,127
17029,note_on,1,0,0,,8,,,80,127
17138,note_off,109,0,0,,8,,,80,127
17138,note_off,0,0,0,,5,,,65,127
17139,note_on,1,0,0,,5,,,53,127
17139,note_on,0,0,0,,8,,,80,127
17248,note_off,109,0,0,,8,,,80,127
17249,note_on,1,0,0,,10,,,81,127
17358,note_off,109,0,0,,10,,,81,127
17358,note_off,0,0,0,,5,,,53,127
17359,note_on,1,0,0,,4,,,40,127
17359,note_on,0,0,0,,10,,,81,127
17577,note_off,218,0,0,,10,,,81,127
17578,note_on,1,0,0,,0,,,84,127
17632,note_off,54,0,0,,0,,,84,127
17633,note_on,1,0,0,,12,,,83,127
17687,note_off,54,0,0,,12,,,83,127
17688,note_on,1,0,0,,0,,,84,127
17742,note_off,54,0,0,,0,,,84,127
17743,note_on,1,0,0,,12,,,83,127
17797,note_off,54,0,0,,12,,,83,127
17798,note_on,1,0,0,,0,,,84,127
17852,note_off,54,0,0,,0,,,84,127
17853,note_on,1,0,0,,12,,,83,127
17907,note_off,54,0,0,,12,,,83,127
17908,note_on,1,0,0,,0,,,84,127
17962,note_off,54,0,0,,0,,,84,127
17963,note_on,1,0,0,,12,,,83,127
18017,note_off,54,0,0,,12,,,83,127
18017,note_off,0,0,0,,4,,,40,127
18018,note_on,1,0,0,,4,,,52,127
18018,note_on,0,0,0,,8,,,80,127
18127,note_off,109,0,0,,8,,,80,127
18128,note_on,1,0,0,,10,,,81,127
18237,note_off,109,0,0,,10,,,81,127
18238,note_on,1,0,0,,12,,,83,127
18347,note_off,109,0,0,,12,,,83,127
18348,note_on,1,0,0,,5,,,77,127
18457,note_off,109,0,0,,5,,,77,127
18457,note_off,0,0,0,,4,,,52,127
18458,note_on,1,0,0,,8,,,56,127
18458,note_on,0,0,0,,4,,,76,127
18567,note_off,109,0,0,,4,,,76,127
18568,note_on,1,0,0,,2,,,74,127
18677,note_off,109,0,0,,2,,,74,127
18677,note_off,0,0,0,,8,,,56,127
18678,note_on,1,0,0,,10,,,57,127
18678,note_on,0,0,0,,1,,,73,127
18787,note_off,109,0,0,,1,,,73,127
18788,note_on,1,0,0,,2,,,74,127
18897,note_off,109,0,0,,2,,,74,127
18898,note_on,1,0,0,,4,,,76,127
19007,note_off,109,0,0,,4,,,76,127
19008,note_on,1,0,0,,11,,,70,127
19117,note_off,109,0,0,,11,,,70,127
19117,note_off,0,0,0,,10,,,57,127
19118,note_on,1,0,0,,1,,,61,127
19118,note_on,0,0,0,,10,,,69,127
19227,note_off,109,0,0,,10,,,69,127
19228,note_on,1,0,0,,7,,,67,127
19337,note_off,109,0,0,,7,,,67,127
19337,note_off,0,0,0,,1,,,61,127
19338,note_on,1,0,0,,2,,,62,127
19338,note_on,0,0,0,,5,,,65,127
19447,note_off,109,0,0,,5,,,65,127
19448,note_on,1,0,0,,2,,,74,127
19557,note_off,109,0,0,,2,,,74,127
19557,note_off,0,0,0,,2,,,62,127
19558,note_on,1,0,0,,1,,,61,127
19558,note_on,0,0,0,,7,,,67,127
19667,note_off,109,0,0,,7,,,67,127
19668,note_on,1,0,0,,4,,,76,127
19777,note_off,109,0,0,,4,,,76,127
19777,note_off,0,0,0,,1,,,61,127
19778,note_on,1,0,0,,2,,,62,127
19778,note_on,0,0,0,,10,,,69,127
19887,note_off,109,0,0,,10,,,69,127
19888,note_on,1,0,0,,5,,,77,127
19997,note_off,109,0,0,,5,,,77,127
19997,note_off,0,0,0,,2,,,62,127
19998,note_on,1,0,0,,11,,,58,127
19998,note_on,0,0,0,,11,,,70,127
20107,note_off,109,0,0,,11,,,70,127
20108,note_on,1,0,0,,7,,,79,127
20217,note_off,109,0,0,,7,,,79,127
20217,note_off,0,0,0,,11,,,58,127
20218,note_on,1,0,0,,5,,,53,127
20218,note_on,0,0,0,,2,,,74,127
20327,note_off,109,0,0,,2,,,74,127
20328,note_on,1,0,0,,10,,,81,127
20437,note_off,109,0,0,,10,,,81,127
20437,note_off,0,0,0,,5,,,53,127
20438,note_on,1,0,0,,7,,,55,127
20438,note_on,0,0,0,,2,,,74,127
20547,note_off,109,0,0,,2,,,74,127
20548,note_on,1,0,0,,11,,,82,127
20657,note_off,109,0,0,,11,,,82,127
20657,note_off,0,0,0,,7,,,55,127
20658,note_on,1,0,0,,10,,,45,127
20658,note_on,0,0,0,,2,,,74,127
20712,note_off,54,0,0,,2,,,74,127
20713,note_on,1,0,0,,1,,,73,127
20767,note_off,54,0,0,,1,,,73,127
20768,note_on,1,0,0,,2,,,74,127
20822,note_off,54,0,0,,2,,,74,127
20823,note_on,1,0,0,,1,,,73,127
20877,note_off,54,0,0,,1,,,73,127
20878,note_on,1,0,0,,2,,,74,127
20932,note_off,54,0,0,,2,,,74,127
20933,note_on,1,0,0,,1,,,73,127
20987,note_off,54,0,0,,1,,,73,127
20988,note_on,1,0,0,,12,,,71,127
21097,note_off,109,0,0,,12,,,71,127
21098,note_on,1,0,0,,10,,,69,127
21208,note_off,110,0,0,,10,,,45,127
21317,note_off,109,0,0,,10,,,69,127
21318,note_on,1,0,0,,10,,,69,127
21318,note_on,0,0,0,,4,,,76,127
21427,note_off,109,0,0,,10,,,69,127
21428,note_on,1,0,0,,4,,,64,127
21537,note_off,109,0,0,,4,,,64,127
21538,note_on,1,0,0,,1,,,61,127
21647,note_off,109,0,0,,1,,,61,127
21647,note_off,0,0,0,,4,,,76,127
21648,note_on,1,0,0,,10,,,57,127
21648,note_on,0,0,0,,5,,,77,127
21757,note_off,109,0,0,,5,,,77,127
21757,note_off,0,0,0,,10,,,57,127
21758,note_on,1,0,0,,2,,,38,127
21758,note_on,0,0,0,,7,,,79,127
21867,note_off,109,0,0,,7,,,79,127
21868,note_on,1,0,0,,10,,,81,127
21977,note_off,109,0,0,,10,,,81,127
21977,note_off,0,0,0,,2,,,38,127
21978,note_on,1,0,0,,10,,,33,127
21978,note_on,0,0,0,,10,,,81,127
22087,note_off,109,0,0,,10,,,81,127
22088,note_on,1,0,0,,7,,,79,127
22197,note_off,109,0,0,,7,,,79,127
22198,note_on,1,0,0,,7,,,79,127
22307,note_off,109,0,0,,7,,,79,127
22308,note_on,1,0,0,,5,,,77,127
22417,note_off,109,0,0,,5,,,77,127
22418,note_on,1,0,0,,4,,,76,127
22527,note_off,109,0,0,,4,,,76,127
22528,note_on,1,0,0,,2,,,74,127
22637,note_off,109,0,0,,2,,,74,127
22637,note_off,0,0,0,,10,,,33,127
22638,note_on,1,0,0,,10,,,69,127
22638,note_on,0,0,0,,4,,,76,127
22747,note_off,109,0,0,,10,,,69,127
22748,note_on,1,0,0,,4,,,64,127
22857,note_off,109,0,0,,4,,,64,127
22858,note_on,1,0,0,,1,,,61,127
22967,note_off,109,0,0,,1,,,61,127
22967,note_off,0,0,0,,4,,,76,127
22968,note_on,1,0,0,,10,,,57,127
22968,note_on,0,0,0,,5,,,77,127
23077,note_off,109,0,0,,5,,,77,127
23077,note_off,0,0,0,,10,,,57,127
23078,note_on,1,0,0,,2,,,38,127
23078,note_on,0,0,0,,7,,,79,127
23187,note_off,109,0,0,,7,,,79,127
23188,note_on,1,0,0,,10,,,81,127
23297,note_off,109,0,0,,10,,,81,127
23297,note_off,0,0,0,,2,,,38,127
23298,note_on,1,0,0,,10,,,33,127
23298,note_on,0,0,0,,10,,,81,127
23407,note_off,109,0,0,,10,,,81,127
23408,note_on,1,0,0,,7,,,79,127
23517,note_off,109,0,0,,7,,,79,127
23518,note_on,1,0,0,,7,,,79,127
23627,note_off,109,0,0,,7,,,79,127
23628,note_on,1,0,0,,5,,,77,127
23737,note_off,109,0,0,,5,,,77,127
23738,note_on,1,0,0,,4,,,76,127
23847,note_off,109,0,0,,4,,,76,127
23848,note_on,1,0,0,,2,,,74,127
23957,note_off,109,0,0,,2,,,74,127
23957,note_off,0,0,0,,10,,,33,127
23958,note_on,1,0,0,,10,,,69,127
23958,note_on,0,0,0,,4,,,76,127
24067,note_off,109,0,0,,10,,,69,127
24068,note_on,1,0,0,,4,,,64,127
24177,note_off,109,0,0,,4,,,64,127
24178,note_on,1,0,0,,1,,,61,127
24287,note_off,109,0,0,,1,,,61,127
24287,note_off,0,0,0,,4,,,76,127
24288,note_on,1,0,0,,10,,,57,127
24288,note_on,0,0,0,,5,,,77,127
24397,note_off,109,0,0,,5,,,77,127
24397,note_off,0,0,0,,10,,,57,127
24398,note_on,1,0,0,,2,,,38,127
24398,note_on,0,0,0,,7,,,79,127
24507,note_off,109,0,0,,7,,,79,127
24508,note_on,1,0,0,,10,,,81,127
24617,note_off,109,0,0,,10,,,81,127
24617,note_off,0,0,0,,2,,,38,127
24618,note_on,1,0,0,,10,,,33,127
24618,note_on,0,0,0,,7,,,79,127
24727,note_off,109,0,0,,7,,,79,127
24728,note_on,1,0,0,,5,,,77,127
24837,note_off,109,0,0,,5,,,77,127
24838,note_on,1,0,0,,4,,,76,127
24947,note_off,109,0,0,,4,,,76,127
24948,note_on,1,0,0,,2,,,74,127
25057,note_off,109,0,0,,2,,,74,127
25057,note_off,0,0,0,,10,,,33,127
25058,note_on,1,0,0,,10,,,45,127
25058,note_on,0,0,0,,1,,,73,127
25167,note_off,109,0,0,,1,,,73,127
25168,note_on,1,0,0,,4,,,76,127
25277,note_off,109,0,0,,4,,,76,127
25277,note_off,0,0,0,,10,,,45,127
25278,note_on,1,0,0,,11,,,46,127
25278,note_on,0,0,0,,2,,,74,127
25387,note_off,109,0,0,,2,,,74,127
25388,note_on,1,0,0,,5,,,77,127
25497,note_off,109,0,0,,5,,,77,127
25497,note_off,0,0,0,,11,,,46,127
25498,note_on,1,0,0,,7,,,43,127
25498,note_on,0,0,0,,4,,,76,127
25607,note_off,109,0,0,,4,,,76,127
25608,note_on,1,0,0,,7,,,79,127
25717,note_off,109,0,0,,7,,,79,127
25717,note_off,0,0,0,,7,,,43,127
25718,note_on,1,0,0,,10,,,45,127
25718,note_on,0,0,0,,5,,,77,127
25827,note_off,109,0,0,,5,,,77,127
25828,note_on,1,0,0,,4,,,76,127
25937,note_off,109,0,0,,4,,,76,127
25937,note_off,0,0,0,,10,,,45,127
25938,note_on,1,0,0,,2,,,38,127
25938,note_on,0,0,0,,2,,,74,127
26047,note_off,109,0,0,,2,,,74,127
26048,note_on,1,0,0,,10,,,81,127
26157,note_off,109,0,0,,10,,,81,127
26158,note_on,1,0,0,,5,,,77,127
26267,note_off,109,0,0,,5,,,77,127
26268,note_on,1,0,0,,2,,,74,127
26377,note_off,109,0,0,,2,,,74,127
26378,note_on,1,0,0,,10,,,69,127
26487,note_off,109,0,0,,10,,,69,127
26488,note_off,1,0,0,,2,,,38,127
26488,note_on,0,0,0,,2,,,74,127
26597,note_off,109,0,0,,2,,,74,127
26598,note_on,1,0,0,,10,,,69,127
26598,note_on,0,0,0,,4,,,76,127
26707,note_off,109,0,0,,10,,,69,127
26708,note_on,1,0,0,,4,,,64,127
26817,note_off,109,0,0,,4,,,64,127
26818,note_on,1,0,0,,1,,,61,127
26927,note_off,109,0,0,,1,,,61,127
26927,note_off,0,0,0,,4,,,76,127
26928,note_on,1,0,0,,10,,,57,127
26928,note_on,0,0,0,,5,,,77,127
27037,note_off,109,0,0,,5,,,77,127
27037,note_off,0,0,0,,10,,,57,127
27038,note_on,1,0,0,,2,,,38,127
27038,note_on,0,0,0,,7,,,79,127
27147,note_off,109,0,0,,7,,,79,127
27148,note_on,1,0,0,,10,,,81,127
27257,note_off,109,0,0,,10,,,81,127
27257,note_off,0,0,0,,2,,,38,127
27258,note_on,1,0,0,,10,,,33,127
27258,note_on,0,0,0,,10,,,81,127
27367,note_off,109,0,0,,10,,,81,127
27368,note_on,1,0,0,,7,,,79,127
27477,note_off,109,0,0,,7,,,79,127
27478,note_on,1,0,0,,7,,,79,127
27587,note_off,109,0,0,,7,,,79,127
27588,note_on,1,0,0,,5,,,77,127
27697,note_off,109,0,0,,5,,,77,127
27698,note_on,1,0,0,,4,,,76,127
27807,note_off,109,0,0,,4,,,76,127
27808,note_on,1,0,0,,2,,,74,127
27917,note_off,109,0,0,,2,,,74,127
27917,note_off,0,0,0,,10,,,33,127
27918,note_on,1,0,0,,10,,,69,127
27918,note_on,0,0,0,,4,,,76,127
28027,note_off,109,0,0,,10,,,69,127
28028,note_on,1,0,0,,4,,,64,127
28137,note_off,109,0,0,,4,,,64,127
28138,note_on,1,0,0,,1,,,61,127
28247,note_off,109,0,0,,1,,,61,127
28247,note_off,0,0,0,,4,,,76,127
28248,note_on,1,0,0,,10,,,57,127
28248,note_on,0,0,0,,5,,,77,127
28357,note_off,109,0,0,,5,,,77,127
28357,note_off,0,0,0,,10,,,57,127
28358,note_on,1,0,0,,2,,,38,127
28358,note_on,0,0,0,,7,,,79,127
28467,note_off,109,0,0,,7,,,79,127
28468,note_on,1,0,0,,10,,,81,127
28577,note_off,109,0,0,,10,,,81,127
28577,note_off,0,0,0,,2,,,38,127
28578,note_on,1,0,0,,10,,,33,127
28578,note_on,0,0,0,,10,,,81,127
28687,note_off,109,0,0,,10,,,81,127
28688,note_on,1,0,0,,7,,,79,127
28797,note_off,109,0,0,,7,,,79,127
28798,note_on,1,0,0,,7,,,79,127
28907,note_off,109,0,0,,7,,,79,127
28908,note_on,1,0,0,,5,,,77,127
29017,note_off,109,0,0,,5,,,77,127
29018,note_on,1,0,0,,4,,,76,127
29127,note_off,109,0,0,,4,,,76,127
29128,note_on,1,0,0,,2,,,74,127
29237,note_off,109,0,0,,2,,,74,127
29237,note_off,0,0,0,,10,,,33,127
29238,note_on,1,0,0,,10,,,69,127
29238,note_on,0,0,0,,4,,,76,127
29347,note_off,109,0,0,,10,,,69,127
29348,note_on,1,0,0,,4,,,64,127
29457,note_off,109,0,0,,4,,,64,127
29458,note_on,1,0,0,,1,,,61,127
29567,note_off,109,0,0,,1,,,61,127
29567,note_off,0,0,0,,4,,,76,127
29568,note_on,1,0,0,,10,,,57,127
29568,note_on,0,0,0,,5,,,77,127
29677,note_off,109,0,0,,5,,,77,127
29677,note_off,0,0,0,,10,,,57,127
29678,note_on,1,0,0,,2,,,38,127
29678,note_on,0,0,0,,7,,,79,127
29787,note_off,109,0,0,,7,,,79,127
29788,note_on,1,0,0,,10,,,81,127
29897,note_off,109,0,0,,10,,,81,127
29897,note_off,0,0,0,,2,,,38,127
29898,note_on,1,0,0,,10,,,33,127
29898,note_on,0,0,0,,7,,,79,127
30007,note_off,109,0,0,,7,,,79,127
30008,note_on,1,0,0,,5,,,77,127
30117,note_off,109,0,0,,5,,,77,127
30118,note_on,1,0,0,,4,,,76,127
30227,note_off,109,0,0,,4,,,76,127
30228,note_on,1,0,0,,2,,,74,127
30337,note_off,109,0,0,,2,,,74,127
30337,note_off,0,0,0,,10,,,33,127
30338,note_on,1,0,0,,10,,,45,127
30338,note_on,0,0,0,,1,,,73,127
30447,note_off,109,0,0,,1,,,73,127
30448,note_on,1,0,0,,4,,,76,127
30557,note_off,109,0,0,,4,,,76,127
30557,note_off,0,0,0,,10,,,45,127
30558,note_on,1,0,0,,11,,,46,127
30558,note_on,0,0,0,,2,,,74,127
30667,note_off,109,0,0,,2,,,74,127
30668,note_on,1,0,0,,5,,,77,127
30777,note_off,109,0,0,,5,,,77,127
30777,note_off,0,0,0,,11,,,46,127
30778,note_on,1,0,0,,7,,,43,127
30778,note_on,0,0,0,,4,,,76,127
30887,note_off,109,0,0,,4,,,76,127
30888,note_on,1,0,0,,7,,,79,127
30997,note_off,109,0,0,,7,,,79,127
30997,note_off,0,0,0,,7,,,43,127
30998,note_on,1,0,0,,10,,,45,127
30998,note_on,0,0,0,,5,,,77,127
31107,note_off,109,0,0,,5,,,77,127
31108,note_on,1,0,0,,4,,,76,127
31217,note_off,109,0,0,,4,,,76,127
31217,note_off,0,0,0,,10,,,45,127
31218,note_on,1,0,0,,2,,,38,127
31218,note_on,0,0,0,,2,,,62,127
31327,note_off,109,0,0,,2,,,62,127
31328,note_on,1,0,0,,2,,,74,127
31437,note_off,109,0,0,,2,,,74,127
31437,note_off,0,0,0,,2,,,38,127
31438,note_on,1,0,0,,1,,,61,127
31438,note_on,0,0,0,,4,,,64,127
31547,note_off,109,0,0,,4,,,64,127
31548,note_on,1,0,0,,4,,,76,127
31657,note_off,109,0,0,,4,,,76,127
31657,note_off,0,0,0,,1,,,61,127
31658,note_on,1,0,0,,2,,,62,127
31658,note_on,0,0,0,,5,,,65,127
31767,note_off,109,0,0,,5,,,65,127
31768,note_on,1,0,0,,5,,,77,127
31877,note_off,109,0,0,,5,,,77,127
31877,note_off,0,0,0,,2,,,62,127
31878,note_on,1,0,0,,11,,,58,127
31878,note_on,0,0,0,,7,,,67,127
31987,note_off,109,0,0,,7,,,67,127
31988,note_on,1,0,0,,7,,,79,127
32097,note_off,109,0,0,,7,,,79,127
32097,note_off,0,0,0,,11,,,58,127
32098,note_on,1,0,0,,5,,,53,127
32098,note_on,0,0,0,,10,,,69,127
32207,note_off,109,0,0,,10,,,69,127
32208,note_on,1,0,0,,10,,,81,127
32317,note_off,109,0,0,,10,,,81,127
32317,note_off,0,0,0,,5,,,53,127
32318,note_on,1,0,0,,7,,,55,127
32318,note_on,0,0,0,,12,,,71,127
32427,note_off,109,0,0,,12,,,71,127
32428,note_on,1,0,0,,2,,,86,127
32537,note_off,109,0,0,,7,,,55,127
32538,note_on,1,0,0,,10,,,45,127
32756,note_off,218,0,0,,2,,,86,127
32757,note_on,1,0,0,,1,,,85,127
32866,note_off,109,0,0,,1,,,85,127
32867,note_on,1,0,0,,11,,,82,127
32976,note_off,109,0,0,,11,,,82,127
32976,note_off,0,0,0,,10,,,45,127
32977,note_on,1,0,0,,10,,,57,127
32977,note_on,0,0,0,,10,,,81,127
33086,note_off,109,0,0,,10,,,81,127
33087,note_on,1,0,0,,7,,,79,127
33196,note_off,109,0,0,,7,,,79,127
33196,note_off,0,0,0,,10,,,57,127
33197,note_on,1,0,0,,11,,,58,127
33197,note_on,0,0,0,,7,,,79,127
33306,note_off,109,0,0,,7,,,79,127
33307,note_on,1,0,0,,5,,,77,127
33416,note_off,109,0,0,,5,,,77,127
33416,note_off,0,0,0,,11,,,58,127
33417,note_on,1,0,0,,7,,,55,127
33417,note_on,0,0,0,,4,,,76,127
33526,note_off,109,0,0,,4,,,76,127
33527,note_on,1,0,0,,2,,,74,127
33636,note_off,109,0,0,,2,,,74,127
33636,note_off,0,0,0,,7,,,55,127
33637,note_on,1,0,0,,10,,,57,127
33637,note_on,0,0,0,,2,,,74,127
33746,note_off,109,0,0,,2,,,74,127
33747,note_on,1,0,0,,1,,,73,127
33856,note_off,109,0,0,,1,,,73,127
33856,note_off,0,0,0,,10,,,57,127
33857,note_on,1,0,0,,2,,,38,127
33857,note_on,0,0,0,,2,,,62,127
33966,note_off,109,0,0,,2,,,62,127
33967,note_on,1,0,0,,2,,,74,127
34076,note_off,109,0,0,,2,,,74,127
34076,note_off,0,0,0,,2,,,38,127
34077,note_on,1,0,0,,1,,,61,127
34077,note_on,0,0,0,,4,,,64,127
34186,note_off,109,0,0,,4,,,64,127
34187,note_on,1,0,0,,4,,,76,127
34296,note_off,109,0,0,,4,,,76,127
34296,note_off,0,0,0,,1,,,61,127
34297,note_on,1,0,0,,2,,,62,127
34297,note_on,0,0,0,,5,,,65,127
34406,note_off,109,0,0,,5,,,65,127
34407,note_on,1,0,0,,5,,,77,127
34516,note_off,109,0,0,,5,,,77,127
34516,note_off,0,0,0,,2,,,62,127
34517,note_on,1,0,0,,11,,,58,127
34517,note_on,0,0,0,,7,,,67,127
34626,note_off,109,0,0,,7,,,67,127
34627,note_on,1,0,0,,7,,,79,127
34736,note_off,109,0,0,,7,,,79,127
34736,note_off,0,0,0,,11,,,58,127
34737,note_on,1,0,0,,5,,,53,127
34737,note_on,0,0,0,,10,,,69,127
34846,note_off,109,0,0,,10,,,69,127
34847,note_on,1,0,0,,10,,,81,127
34956,note_off,109,0,0,,10,,,81,127
34956,note_off,0,0,0,,5,,,53,127
34957,note_on,1,0,0,,7,,,55,127
34957,note_on,0,0,0,,12,,,71,127
35066,note_off,109,0,0,,12,,,71,127
35067,note_on,1,0,0,,2,,,86,127
35176,note_off,109,0,0,,7,,,55,127
35177,note_on,1,0,0,,10,,,45,127
35395,note_off,218,0,0,,2,,,86,127
35396,note_on,1,0,0,,1,,,85,127
35505,note_off,109,0,0,,1,,,85,127
35506,note_on,1,0,0,,11,,,82,127
35615,note_off,109,0,0,,11,,,82,127
35615,note_off,0,0,0,,10,,,45,127
35616,note_on,1,0,0,,10,,,57,127
35616,note_on,0,0,0,,10,,,81,127
35725,note_off,109,0,0,,10,,,81,127
35726,note_on,1,0,0,,7,,,79,127
35835,note_off,109,0,0,,7,,,79,127
35835,note_off,0,0,0,,10,,,57,127
35836,note_on,1,0,0,,11,,,58,127
35836,note_on,0,0,0,,7,,,79,127
35945,note_off,109,0,0,,7,,,79,127
35946,note_on,1,0,0,,5,,,77,127
36055,note_off,109,0,0,,5,,,77,127
36055,note_off,0,0,0,,11,,,58,127
36056,note_on,1,0,0,,7,,,55,127
36056,note_on,0,0,0,,4,,,76,127
36165,note_off,109,0,0,,4,,,76,127
36166,note_on,1,0,0,,2,,,74,127
36275,note_off,109,0,0,,2,,,74,127
36275,note_off,0,0,0,,7,,,55,127
36276,note_on,1,0,0,,10,,,57,127
36276,note_on,0,0,0,,2,,,74,127
36385,note_off,109,0,0,,2,,,74,127
36386,note_on,1,0,0,,1,,,73,127
36495,note_off,109,0,0,,1,,,73,127
36495,note_off,0,0,0,,10,,,57,127
36496,note_on,1,0,0,,2,,,50,127
36496,note_on,0,0,0,,2,,,74,127
36605,note_off,109,0,0,,2,,,74,127
36606,note_on,1,0,0,,11,,,70,127
36715,note_off,109,0,0,,11,,,70,127
36715,note_off,0,0,0,,2,,,50,127
36716,note_on,1,0,0,,2,,,38,127
36716,note_on,0,0,0,,10,,,69,127
36825,note_off,109,0,0,,10,,,69,127
36826,note_on,1,0,0,,7,,,67,127
36935,note_off,109,0,0,,7,,,67,127
36935,note_off,0,0,0,,2,,,38,127
36936,note_on,1,0,0,,4,,,40,127
36936,note_on,0,0,0,,5,,,65,127
37045,note_off,109,0,0,,5,,,65,127
37046,note_on,1,0,0,,4,,,64,127
37155,note_off,109,0,0,,4,,,64,127
37155,note_off,0,0,0,,4,,,40,127
37156,note_on,1,0,0,,5,,,41,127
37156,note_on,0,0,0,,2,,,62,127
37265,note_off,109,0,0,,2,,,62,127
37266,note_on,1,0,0,,5,,,65,127
37375,note_off,109,0,0,,5,,,65,127
37375,note_off,0,0,0,,5,,,41,127
37376,note_on,1,0,0,,7,,,43,127
37376,note_on,0,0,0,,4,,,64,127
37485,note_off,109,0,0,,4,,,64,127
37486,note_on,1,0,0,,7,,,67,127
37595,note_off,109,0,0,,7,,,67,127
37595,note_off,0,0,0,,7,,,43,127
37596,note_on,1,0,0,,10,,,45,127
37596,note_on,0,0,0,,5,,,65,127
37705,note_off,109,0,0,,5,,,65,127
37706,note_on,1,0,0,,4,,,64,127
37815,note_off,109,0,0,,4,,,64,127
37815,note_off,0,0,0,,10,,,45,127
37816,note_on,1,0,0,,2,,,38,127
37816,note_on,0,0,0,,2,,,62,127
38296,note_off,480,0,0,,2,,,62,127
38473,note_off,177,0,0,,2,,,38,127
38474,note_on,1,0,0,,2,,,62,127
38474,note_on,0,0,0,,2,,,50,127
38474,note_on,0,0,0,,6,,,78,127
38583,note_off,109,0,0,,6,,,78,127
38584,note_on,1,0,0,,7,,,79,127
38693,note_off,109,0,0,,7,,,79,127
38694,note_on,1,0,0,,10,,,81,127
38803,note_off,109,0,0,,10,,,81,127
38804,note_on,1,0,0,,3,,,75,127
38913,note_off,109,0,0,,3,,,75,127
38913,note_off,0,0,0,,2,,,50,127
38914,note_on,1,0,0,,6,,,54,127
38914,note_on,0,0,0,,2,,,74,127
39023,note_off,109,0,0,,2,,,74,127
39024,note_on,1,0,0,,0,,,72,127
39133,note_off,109,0,0,,0,,,72,127
39133,note_off,0,0,0,,6,,,54,127
39133,note_off,0,0,0,,2,,,62,127
39134,note_on,1,0,0,,7,,,55,127
39134,note_on,0,0,0,,2,,,62,127
39134,note_on,0,0,0,,11,,,70,127
39243,note_off,109,0,0,,11,,,70,127
39244,note_on,1,0,0,,0,,,72,127
39353,note_off,109,0,0,,0,,,72,127
39353,note_off,0,0,0,,7,,,55,127
39354,note_on,1,0,0,,10,,,57,127
39354,note_on,0,0,0,,2,,,74,127
39463,note_off,109,0,0,,2,,,74,127
39464,note_on,1,0,0,,11,,,70,127
39573,note_off,109,0,0,,11,,,70,127
39573,note_off,0,0,0,,10,,,57,127
39574,note_on,1,0,0,,11,,,58,127
39574,note_on,0,0,0,,10,,,69,127
39683,note_off,109,0,0,,10,,,69,127
39684,note_on,1,0,0,,7,,,67,127
39793,note_off,109,0,0,,7,,,67,127
39793,note_off,0,0,0,,11,,,58,127
39793,note_off,0,0,0,,2,,,62,127
39794,note_on,1,0,0,,2,,,50,127
39794,note_on,0,0,0,,2,,,62,127
39794,note_on,0,0,0,,6,,,78,127
39903,note_off,109,0,0,,6,,,78,127
39904,note_on,1,0,0,,7,,,79,127
40013,note_off,109,0,0,,7,,,79,127
40014,note_on,1,0,0,,10,,,81,127
40123,note_off,109,0,0,,10,,,81,127
40124,note_on,1,0,0,,3,,,75,127
40233,note_off,109,0,0,,3,,,75,127
40233,note_off,0,0,0,,2,,,50,127
40234,note_on,1,0,0,,6,,,54,127
40234,note_on,0,0,0,,2,,,74,127
40343,note_off,109,0,0,,2,,,74,127
40344,note_on,1,0,0,,0,,,72,127
40453,note_off,109,0,0,,0,,,72,127
40453,note_off,0,0,0,,6,,,54,127
40453,note_off,0,0,0,,2,,,62,127
40454,note_on,1,0,0,,7,,,55,127
40454,note_on,0,0,0,,2,,,62,127
40454,note_on,0,0,0,,12,,,71,127
40563,note_off,109,0,0,,12,,,71,127
40564,note_on,1,0,0,,0,,,72,127
40673,note_off,109,0,0,,0,,,72,127
40674,note_on,1,0,0,,2,,,74,127
40783,note_off,109,0,0,,2,,,74,127
40784,note_on,1,0,0,,8,,,68,127
40893,note_off,109,0,0,,8,,,68,127
40893,note_off,0,0,0,,7,,,55,127
40894,note_on,1,0,0,,12,,,59,127
40894,note_on,0,0,0,,7,,,67,127
41003,note_off,109,0,0,,7,,,67,127
41004,note_off,1,0,0,,2,,,62,127
41004,note_on,0,0,0,,5,,,65,127
41105,note_off,101,0,0,,5,,,65,127
41113,note_off,8,0,0,,12,,,59,127
41114,note_on,1,0,0,,0,,,48,127
41114,note_on,0,0,0,,0,,,60,127
41114,note_on,0,0,0,,3,,,75,127
41223,note_off,109,0,0,,3,,,75,127
41224,note_on,1,0,0,,5,,,77,127
41333,note_off,109,0,0,,5,,,77,127
41333,note_off,0,0,0,,0,,,48,127
41334,note_on,1,0,0,,3,,,51,127
41334,note_on,0,0,0,,7,,,79,127
41443,note_off,109,0,0,,7,,,79,127
41444,note_on,1,0,0,,3,,,75,127
41553,note_off,109,0,0,,3,,,75,127
41553,note_off,0,0,0,,3,,,51,127
41554,note_on,1,0,0,,5,,,53,127
41554,note_on,0,0,0,,2,,,74,127
41663,note_off,109,0,0,,2,,,74,127
41664,note_on,1,0,0,,0,,,72,127
41773,note_off,109,0,0,,0,,,72,127
41773,note_off,0,0,0,,5,,,53,127
41773,note_off,0,0,0,,0,,,60,127
41774,note_on,1,0,0,,7,,,55,127
41774,note_on,0,0,0,,2,,,62,127
41774,note_on,0,0,0,,12,,,71,127
41883,note_off,109,0,0,,12,,,71,127
41884,note_on,1,0,0,,0,,,72,127
41993,note_off,109,0,0,,0,,,72,127
41994,note_on,1,0,0,,2,,,74,127
42103,note_off,109,0,0,,2,,,74,127
42104,note_on,1,0,0,,8,,,68,127
42213,note_off,109,0,0,,8,,,68,127
42213,note_off,0,0,0,,7,,,55,127
42214,note_on,1,0,0,,12,,,59,127
42214,note_on,0,0,0,,7,,,67,127
42323,note_off,109,0,0,,7,,,67,127
42324,note_on,1,0,0,,5,,,65,127
42425,note_off,101,0,0,,5,,,65,127
42433,note_off,8,0,0,,12,,,59,127
42433,note_off,0,0,0,,2,,,62,127
42434,note_on,1,0,0,,0,,,60,127
42434,note_on,0,0,0,,0,,,48,127
42434,note_on,0,0,0,,3,,,75,127
42543,note_off,109,0,0,,3,,,75,127
42544,note_on,1,0,0,,5,,,77,127
42653,note_off,109,0,0,,5,,,77,127
42653,note_off,0,0,0,,0,,,48,127
42654,note_on,1,0,0,,3,,,51,127
42654,note_on,0,0,0,,7,,,79,127
42763,note_off,109,0,0,,7,,,79,127
42764,note_on,1,0,0,,3,,,75,127
42873,note_off,109,0,0,,3,,,75,127
42873,note_off,0,0,0,,3,,,51,127
42874,note_on,1,0,0,,5,,,53,127
42874,note_on,0,0,0,,2,,,74,127
42983,note_off,109,0,0,,2,,,74,127
42984,note_on,1,0,0,,0,,,72,127
43093,note_off,109,0,0,,0,,,72,127
43093,note_off,0,0,0,,5,,,53,127
43093,note_off,0,0,0,,0,,,60,127
43094,note_on,1,0,0,,7,,,43,127
43094,note_on,0,0,0,,0,,,72,127
43148,note_off,54,0,0,,0,,,72,127
43149,note_on,1,0,0,,12,,,71,127
43203,note_off,54,0,0,,12,,,71,127
43204,note_on,1,0,0,,0,,,72,127
43258,note_off,54,0,0,,0,,,72,127
43259,note_on,1,0,0,,12,,,71,127
43313,note_off,54,0,0,,12,,,71,127
43314,note_on,1,0,0,,0,,,72,127
43368,note_off,54,0,0,,0,,,72,127
43369,note_on,1,0,0,,12,,,71,127
43423,note_off,54,0,0,,12,,,71,127
43424,note_on,1,0,0,,10,,,69,127
43533,note_off,109,0,0,,10,,,69,127
43534,note_on,1,0,0,,7,,,67,127
43752,note_off,218,0,0,,7,,,67,127
43752,note_off,0,0,0,,7,,,43,127
43753,note_on,1,0,0,,7,,,67,127
43753,note_on,0,0,0,,2,,,74,127
43862,note_off,109,0,0,,7,,,67,127
43863,note_on,1,0,0,,2,,,62,127
43972,note_off,109,0,0,,2,,,62,127
43973,note_on,1,0,0,,12,,,59,127
44082,note_off,109,0,0,,12,,,59,127
44082,note_off,0,0,0,,2,,,74,127
44083,note_on,1,0,0,,7,,,55,127
44083,note_on,0,0,0,,3,,,75,127
44192,note_off,109,0,0,,3,,,75,127
44192,note_off,0,0,0,,7,,,55,127
44193,note_on,1,0,0,,0,,,36,127
44193,note_on,0,0,0,,5,,,77,127
44302,note_off,109,0,0,,5,,,77,127
44303,note_on,1,0,0,,7,,,79,127
44412,note_off,109,0,0,,7,,,79,127
44412,note_off,0,0,0,,0,,,36,127
44413,note_on,1,0,0,,7,,,31,127
44413,note_on,0,0,0,,7,,,79,127
44522,note_off,109,0,0,,7,,,79,127
44523,note_on,1,0,0,,5,,,77,127
44632,note_off,109,0,0,,5,,,77,127
44633,note_on,1,0,0,,5,,,77,127
44742,note_off,109,0,0,,5,,,77,127
44743,note_on,1,0,0,,3,,,75,127
44852,note_off,109,0,0,,3,,,75,127
44853,note_on,1,0,0,,2,,,74,127
44962,note_off,109,0,0,,2,,,74,127
44963,note_on,1,0,0,,0,,,72,127
45072,note_off,109,0,0,,0,,,72,127
45072,note_off,0,0,0,,7,,,31,127
45073,note_on,1,0,0,,7,,,67,127
45073,note_on,0,0,0,,2,,,74,127
45182,note_off,109,0,0,,7,,,67,127
45183,note_on,1,0,0,,2,,,62,127
45292,note_off,109,0,0,,2,,,62,127
45293,note_on,1,0,0,,12,,,59,127
45402,note_off,109,0,0,,12,,,59,127
45402,note_off,0,0,0,,2,,,74,127
45403,note_on,1,0,0,,7,,,55,127
45403,note_on,0,0,0,,3,,,75,127
45512,note_off,109,0,0,,3,,,75,127
45512,note_off,0,0,0,,7,,,55,127
45513,note_on,1,0,0,,0,,,36,127
45513,note_on,0,0,0,,5,,,77,127
45622,note_off,109,0,0,,5,,,77,127
45623,note_on,1,0,0,,7,,,79,127
45732,note_off,109,0,0,,7,,,79,127
45732,note_off,0,0,0,,0,,,36,127
45733,note_on,1,0,0,,7,,,31,127
45733,note_on,0,0,0,,7,,,79,127
45842,note_off,109,0,0,,7,,,79,127
45843,note_on,1,0,0,,5,,,77,127
45952,note_off,109,0,0,,5,,,77,127
45953,note_on,1,0,0,,5,,,77,127
46062,note_off,109,0,0,,5,,,77,127
46063,note_on,1,0,0,,3,,,75,127
46172,note_off,109,0,0,,3,,,75,127
46173,note_on,1,0,0,,2,,,74,127
46282,note_off,109,0,0,,2,,,74,127
46283,note_on,1,0,0,,0,,,72,127
46392,note_off,109,0,0,,0,,,72,127
46392,note_off,0,0,0,,7,,,31,127
46393,note_on,1,0,0,,7,,,55,127
46393,note_on,0,0,0,,2,,,74,127
46502,note_off,109,0,0,,2,,,74,127
46503,note_on,1,0,0,,3,,,75,127
46612,note_off,109,0,0,,3,,,75,127
46612,note_off,0,0,0,,7,,,55,127
46613,note_on,1,0,0,,7,,,67,127
46613,note_on,0,0,0,,5,,,77,127
46722,note_off,109,0,0,,5,,,77,127
46723,note_on,1,0,0,,2,,,74,127
46832,note_off,109,0,0,,2,,,74,127
46832,note_off,0,0,0,,7,,,67,127
46833,note_on,1,0,0,,5,,,65,127
46833,note_on,0,0,0,,0,,,72,127
46942,note_off,109,0,0,,0,,,72,127
46943,note_on,1,0,0,,12,,,71,127
47052,note_off,109,0,0,,12,,,71,127
47052,note_off,0,0,0,,5,,,65,127
47053,note_on,1,0,0,,4,,,64,127
47053,note_on,0,0,0,,4,,,76,127
47162,note_off,109,0,0,,4,,,76,127
47163,note_on,1,0,0,,5,,,77,127
47272,note_off,109,0,0,,5,,,77,127
47272,note_off,0,0,0,,4,,,64,127
47273,note_on,1,0,0,,0,,,60,127
47273,note_on,0,0,0,,7,,,79,127
47382,note_off,109,0,0,,7,,,79,127
47383,note_on,1,0,0,,4,,,76,127
47492,note_off,109,0,0,,4,,,76,127
47492,note_off,0,0,0,,0,,,60,127
47493,note_on,1,0,0,,4,,,64,127
47493,note_on,0,0,0,,2,,,74,127
47602,note_off,109,0,0,,2,,,74,127
47603,note_on,1,0,0,,0,,,72,127
47712,note_off,109,0,0,,0,,,72,127
47712,note_off,0,0,0,,4,,,64,127
47713,note_on,1,0,0,,5,,,53,127
47713,note_on,0,0,0,,0,,,72,127
47822,note_off,109,0,0,,0,,,72,127
47823,note_on,1,0,0,,2,,,74,127
47932,note_off,109,0,0,,2,,,74,127
47932,note_off,0,0,0,,5,,,53,127
47933,note_on,1,0,0,,5,,,65,127
47933,note_on,0,0,0,,3,,,75,127
48042,note_off,109,0,0,,3,,,75,127
48043,note_on,1,0,0,,0,,,72,127
48152,note_off,109,0,0,,0,,,72,127
48152,note_off,0,0,0,,5,,,65,127
48153,note_on,1,0,0,,3,,,63,127
48153,note_on,0,0,0,,11,,,70,127
48262,note_off,109,0,0,,11,,,70,127
48263,note_on,1,0,0,,10,,,69,127
48372,note_off,109,0,0,,10,,,69,127
48372,note_off,0,0,0,,3,,,63,127
48373,note_on,1,0,0,,2,,,62,127
48373,note_on,0,0,0,,2,,,74,127
48482,note_off,109,0,0,,2,,,74,127
48483,note_on,1,0,0,,3,,,75,127
48592,note_off,109,0,0,,3,,,75,127
48592,note_off,0,0,0,,2,,,62,127
48593,note_on,1,0,0,,11,,,58,127
48593,note_on,0,0,0,,5,,,77,127
48702,note_off,109,0,0,,5,,,77,127
48703,note_on,1,0,0,,8,,,68,127
48812,note_off,109,0,0,,8,,,68,127
48812,note_off,0,0,0,,11,,,58,127
48813,note_on,1,0,0,,2,,,62,127
48813,note_on,0,0,0,,7,,,67,127
48922,note_off,109,0,0,,7,,,67,127
48923,note_on,1,0,0,,5,,,65,127
49032,note_off,109,0,0,,5,,,65,127
49032,note_off,0,0,0,,2,,,62,127
49033,note_on,1,0,0,,3,,,63,127
49033,note_on,0,0,0,,7,,,67,127
49142,note_off,109,0,0,,7,,,67,127
49143,note_on,1,0,0,,3,,,75,127
49252,note_off,109,0,0,,3,,,75,127
49252,note_off,0,0,0,,3,,,63,127
49253,note_on,1,0,0,,5,,,65,127
49253,note_on,0,0,0,,10,,,69,127
49362,note_off,109,0,0,,10,,,69,127
49363,note_on,1,0,0,,5,,,77,127
49472,note_off,109,0,0,,5,,,77,127
49472,note_off,0,0,0,,5,,,65,127
49473,note_on,1,0,0,,7,,,67,127
49473,note_on,0,0,0,,11,,,70,127
49582,note_off,109,0,0,,11,,,70,127
49583,note_on,1,0,0,,7,,,79,127
49692,note_off,109,0,0,,7,,,79,127
49692,note_off,0,0,0,,7,,,67,127
49693,note_on,1,0,0,,10,,,57,127
49693,note_on,0,0,0,,0,,,72,127
49802,note_off,109,0,0,,0,,,72,127
49803,note_on,1,0,0,,3,,,75,127
49912,note_off,109,0,0,,3,,,75,127
49912,note_off,0,0,0,,10,,,57,127
49913,note_on,1,0,0,,11,,,58,127
49913,note_on,0,0,0,,2,,,74,127
50022,note_off,109,0,0,,2,,,74,127
50023,note_on,1,0,0,,5,,,77,127
50132,note_off,109,0,0,,5,,,77,127
50132,note_off,0,0,0,,11,,,58,127
50133,note_on,1,0,0,,3,,,51,127
50133,note_on,0,0,0,,3,,,75,127
50242,note_off,109,0,0,,3,,,75,127
50243,note_on,1,0,0,,2,,,74,127
50352,note_off,109,0,0,,3,,,51,127
50353,note_on,1,0,0,,5,,,41,127
50571,note_off,218,0,0,,2,,,74,127
50572,note_on,1,0,0,,0,,,72,127
50572,note_on,0,0,0,,2,,,74,127
50681,note_off,109,0,0,,2,,,74,127
50681,note_off,0,0,0,,0,,,72,127
50682,note_on,1,0,0,,11,,,70,127
50791,note_off,109,0,0,,11,,,70,127
50792,note_on,1,0,0,,0,,,72,127
51010,note_off,218,0,0,,0,,,72,127
51010,note_off,0,0,0,,5,,,41,127
51011,note_on,1,0,0,,5,,,65,127
51011,note_on,0,0,0,,0,,,84,127
51120,note_off,109,0,0,,5,,,65,127
51121,note_on,1,0,0,,0,,,60,127
51121,note_on,0,0,0,,0,,,72,127
51230,note_off,109,0,0,,0,,,72,127
51230,note_off,0,0,0,,0,,,60,127
51231,note_on,1,0,0,,10,,,57,127
51231,note_on,0,0,0,,0,,,72,127
51340,note_off,109,0,0,,0,,,72,127
51340,note_off,0,0,0,,10,,,57,127
51341,note_on,1,0,0,,5,,,53,127
51341,note_on,0,0,0,,0,,,72,127
51450,note_off,109,0,0,,0,,,72,127
51450,note_off,0,0,0,,5,,,53,127
51451,note_on,1,0,0,,5,,,41,127
51451,note_on,0,0,0,,0,,,72,127
51560,note_off,109,0,0,,0,,,72,127
51561,note_on,1,0,0,,0,,,72,127
51670,note_off,109,0,0,,0,,,72,127
51670,note_off,0,0,0,,5,,,41,127
51670,note_off,0,0,0,,0,,,84,127
51671,note_on,1,0,0,,11,,,34,127
51671,note_on,0,0,0,,2,,,86,127
51780,note_off,109,0,0,,2,,,86,127
51781,note_on,1,0,0,,11,,,82,127
51890,note_off,109,0,0,,11,,,82,127
51891,note_on,1,0,0,,5,,,77,127
52000,note_off,109,0,0,,5,,,77,127
52001,note_on,1,0,0,,2,,,74,127
52110,note_off,109,0,0,,2,,,74,127
52111,note_on,1,0,0,,11,,,70,127
52220,note_off,109,0,0,,11,,,70,127
52221,note_on,1,0,0,,2,,,74,127
52330,note_off,109,0,0,,2,,,74,127
52330,note_off,0,0,0,,11,,,34,127
52331,note_on,1,0,0,,5,,,65,127
52331,note_on,0,0,0,,0,,,84,127
52440,note_off,109,0,0,,5,,,65,127
52441,note_on,1,0,0,,0,,,60,127
52441,note_on,0,0,0,,0,,,72,127
52550,note_off,109,0,0,,0,,,72,127
52550,note_off,0,0,0,,0,,,60,127
52551,note_on,1,0,0,,10,,,57,127
52551,note_on,0,0,0,,0,,,72,127
52660,note_off,109,0,0,,0,,,72,127
52660,note_off,0,0,0,,10,,,57,127
52661,note_on,1,0,0,,5,,,53,127
52661,note_on,0,0,0,,0,,,72,127
52770,note_off,109,0,0,,0,,,72,127
52770,note_off,0,0,0,,5,,,53,127
52771,note_on,1,0,0,,5,,,41,127
52771,note_on,0,0,0,,0,,,72,127
52880,note_off,109,0,0,,0,,,72,127
52881,note_on,1,0,0,,0,,,72,127
52990,note_off,109,0,0,,0,,,72,127
52990,note_off,0,0,0,,5,,,41,127
52990,note_off,0,0,0,,0,,,84,127
52991,note_on,1,0,0,,11,,,34,127
52991,note_on,0,0,0,,2,,,86,127
53100,note_off,109,0,0,,2,,,86,127
53101,note_on,1,0,0,,11,,,82,127
53210,note_off,109,0,0,,11,,,82,127
53211,note_on,1,0,0,,5,,,77,127
53320,note_off,109,0,0,,5,,,77,127
53321,note_on,1,0,0,,2,,,74,127
53430,note_off,109,0,0,,2,,,74,127
53431,note_on,1,0,0,,11,,,70,127
53540,note_off,109,0,0,,11,,,70,127
53541,note_on,1,0,0,,2,,,74,127
53650,note_off,109,0,0,,2,,,74,127
53650,note_off,0,0,0,,11,,,34,127
53651,note_on,1,0,0,,5,,,65,127
53651,note_on,0,0,0,,0,,,84,127
53760,note_off,109,0,0,,5,,,65,127
53761,note_on,1,0,0,,0,,,60,127
53761,note_on,0,0,0,,0,,,72,127
53870,note_off,109,0,0,,0,,,72,127
53870,note_off,0,0,0,,0,,,60,127
53871,note_on,1,0,0,,10,,,57,127
53871,note_on,0,0,0,,0,,,72,127
53980,note_off,109,0,0,,0,,,72,127
53980,note_off,0,0,0,,10,,,57,127
53981,note_on,1,0,0,,5,,,53,127
53981,note_on,0,0,0,,0,,,72,127
54090,note_off,109,0,0,,0,,,72,127
54090,note_off,0,0,0,,5,,,53,127
54091,note_on,1,0,0,,5,,,41,127
54091,note_on,0,0,0,,0,,,72,127
54200,note_off,109,0,0,,0,,,72,127
54201,note_on,1,0,0,,0,,,72,127
54310,note_off,109,0,0,,0,,,72,127
54310,note_off,0,0,0,,5,,,41,127
54310,note_off,0,0,0,,0,,,84,127
54311,note_on,1,0,0,,11,,,34,127
54311,note_on,0,0,0,,2,,,86,127
54420,note_off,109,0,0,,2,,,86,127
54421,note_on,1,0,0,,11,,,82,127
54530,note_off,109,0,0,,11,,,82,127
54530,note_off,0,0,0,,11,,,34,127
54531,note_on,1,0,0,,0,,,36,127
54531,note_on,0,0,0,,10,,,81,127
54640,note_off,109,0,0,,10,,,81,127
54641,note_on,1,0,0,,7,,,79,127
54750,note_off,109,0,0,,7,,,79,127
54750,note_off,0,0,0,,0,,,36,127
54751,note_on,1,0,0,,2,,,38,127
54751,note_on,0,0,0,,7,,,79,127
54860,note_off,109,0,0,,7,,,79,127
54861,note_on,1,0,0,,5,,,77,127
54970,note_off,109,0,0,,5,,,77,127
54970,note_off,0,0,0,,2,,,38,127
54971,note_on,1,0,0,,3,,,39,127
54971,note_on,0,0,0,,3,,,75,127
55080,note_off,109,0,0,,3,,,75,127
55081,note_on,1,0,0,,2,,,74,127
55190,note_off,109,0,0,,2,,,74,127
55190,note_off,0,0,0,,3,,,39,127
55191,note_on,1,0,0,,5,,,41,127
55191,note_on,0,0,0,,2,,,74,127
55300,note_off,109,0,0,,2,,,74,127
55301,note_on,1,0,0,,0,,,72,127
55410,note_off,109,0,0,,0,,,72,127
55410,note_off,0,0,0,,5,,,41,127
55411,note_on,1,0,0,,5,,,41,127
55411,note_on,0,0,0,,11,,,70,127
55520,note_off,109,0,0,,11,,,70,127
55521,note_on,1,0,0,,10,,,69,127
55630,note_off,109,0,0,,10,,,69,127
55630,note_off,0,0,0,,5,,,41,127
55631,note_on,1,0,0,,11,,,34,127
55631,note_on,0,0,0,,11,,,82,127
55740,note_off,109,0,0,,11,,,82,127
55741,note_on,1,0,0,,5,,,77,127
55850,note_off,109,0,0,,5,,,77,127
55851,note_on,1,0,0,,2,,,74,127
55960,note_off,109,0,0,,2,,,74,127
55961,note_on,1,0,0,,11,,,70,127
56070,note_off,109,0,0,,11,,,70,127
56071,note_on,1,0,0,,2,,,74,127
56180,note_off,109,0,0,,2,,,74,127
56181,note_off,1,0,0,,11,,,34,127
56181,note_on,0,0,0,,5,,,77,127
56290,note_off,109,0,0,,5,,,77,127
56291,note_on,1,0,0,,5,,,65,127
56291,note_on,0,0,0,,0,,,84,127
56400,note_off,109,0,0,,5,,,65,127
56401,note_on,1,0,0,,0,,,60,127
56401,note_on,0,0,0,,0,,,72,127
56510,note_off,109,0,0,,0,,,72,127
56510,note_off,0,0,0,,0,,,60,127
56511,note_on,1,0,0,,10,,,57,127
56511,note_on,0,0,0,,0,,,72,127
56620,note_off,109,0,0,,0,,,72,127
56620,note_off,0,0,0,,10,,,57,127
56621,note_on,1,0,0,,5,,,53,127
56621,note_on,0,0,0,,0,,,72,127
56730,note_off,109,0,0,,0,,,72,127
56730,note_off,0,0,0,,5,,,53,127
56731,note_on,1,0,0,,5,,,41,127
56731,note_on,0,0,0,,0,,,72,127
56840,note_off,109,0,0,,0,,,72,127
56841,note_on,1,0,0,,0,,,72,127
56950,note_off,109,0,0,,0,,,72,127
56950,note_off,0,0,0,,5,,,41,127
56950,note_off,0,0,0,,0,,,84,127
56951,note_on,1,0,0,,11,,,34,127
56951,note_on,0,0,0,,2,,,86,127
57060,note_off,109,0,0,,2,,,86,127
57061,note_on,1,0,0,,11,,,82,127
57170,note_off,109,0,0,,11,,,82,127
57171,note_on,1,0,0,,5,,,77,127
57280,note_off,109,0,0,,5,,,77,127
57281,note_on,1,0,0,,2,,,74,127
57390,note_off,109,0,0,,2,,,74,127
57391,note_on,1,0,0,,11,,,70,127
57500,note_off,109,0,0,,11,,,70,127
57501,note_on,1,0,0,,2,,,74,127
57610,note_off,109,0,0,,2,,,74,127
57610,note_off,0,0,0,,11,,,34,127
57611,note_on,1,0,0,,5,,,65,127
57611,note_on,0,0,0,,0,,,84,127
57720,note_off,109,0,0,,5,,,65,127
57721,note_on,1,0,0,,0,,,60,127
57721,note_on,0,0,0,,0,,,72,127
57830,note_off,109,0,0,,0,,,72,127
57830,note_off,0,0,0,,0,,,60,127
57831,note_on,1,0,0,,10,,,57,127
57831,note_on,0,0,0,,0,,,72,127
57940,note_off,109,0,0,,0,,,72,127
57940,note_off,0,0,0,,10,,,57,127
57941,note_on,1,0,0,,5,,,53,127
57941,note_on,0,0,0,,0,,,72,127
58050,note_off,109,0,0,,0,,,72,127
58050,note_off,0,0,0,,5,,,53,127
58051,note_on,1,0,0,,5,,,41,127
58051,note_on,0,0,0,,0,,,72,127
58160,note_off,109,0,0,,0,,,72,127
58161,note_on,1,0,0,,0,,,72,127
58270,note_off,109,0,0,,0,,,72,127
58270,note_off,0,0,0,,5,,,41,127
58270,note_off,0,0,0,,0,,,84,127
58271,note_on,1,0,0,,11,,,34,127
58271,note_on,0,0,0,,2,,,86,127
58380,note_off,109,0,0,,2,,,86,127
58381,note_on,1,0,0,,11,,,82,127
58490,note_off,109,0,0,,11,,,82,127
58491,note_on,1,0,0,,5,,,77,127
58600,note_off,109,0,0,,5,,,77,127
58601,note_on,1,0,0,,2,,,74,127
58710,note_off,109,0,0,,2,,,74,127
58711,note_on,1,0,0,,11,,,70,127
58820,note_off,109,0,0,,11,,,70,127
58821,note_on,1,0,0,,2,,,74,127
58930,note_off,109,0,0,,2,,,74,127
58930,note_off,0,0,0,,11,,,34,127
58931,note_on,1,0,0,,5,,,65,127
58931,note_on,0,0,0,,0,,,84,127
59040,note_off,109,0,0,,5,,,65,127
59041,note_on,1,0,0,,0,,,60,127
59041,note_on,0,0,0,,0,,,72,127
59150,note_off,109,0,0,,0,,,72,127
59150,note_off,0,0,0,,0,,,60,127
59151,note_on,1,0,0,,10,,,57,127
59151,note_on,0,0,0,,0,,,72,127
59260,note_off,109,0,0,,0,,,72,127
59260,note_off,0,0,0,,10,,,57,127
59261,note_on,1,0,0,,5,,,53,127
59261,note_on,0,0,0,,0,,,72,127
59370,note_off,109,0,0,,0,,,72,127
59370,note_off,0,0,0,,5,,,53,127
59371,note_on,1,0,0,,5,,,41,127
59371,note_on,0,0,0,,0,,,72,127
59480,note_off,109,0,0,,0,,,72,127
59481,note_on,1,0,0,,0,,,72,127
59590,note_off,109,0,0,,0,,,72,127
59590,note_off,0,0,0,,5,,,41,127
59590,note_off,0,0,0,,0,,,84,127
59591,note_on,1,0,0,,11,,,34,127
59591,note_on,0,0,0,,2,,,86,127
59700,note_off,109,0,0,,2,,,86,127
59701,note_on,1,0,0,,11,,,82,127
59810,note_off,109,0,0,,11,,,82,127
59810,note_off,0,0,0,,11,,,34,127
59811,note_on,1,0,0,,0,,,36,127
59811,note_on,0,0,0,,10,,,81,127
59920,note_off,109,0,0,,10,,,81,127
59921,note_on,1,0,0,,7,,,79,127
60030,note_off,109,0,0,,7,,,79,127
60030,note_off,0,0,0,,0,,,36,127
60031,note_on,1,0,0,,2,,,38,127
60031,note_on,0,0,0,,7,,,79,127
60140,note_off,109,0,0,,7,,,79,127
60141,note_on,1,0,0,,5,,,77,127
60250,note_off,109,0,0,,5,,,77,127
60250,note_off,0,0,0,,2,,,38,127
60251,note_on,1,0,0,,3,,,39,127
60251,note_on,0,0,0,,3,,,75,127
60360,note_off,109,0,0,,3,,,75,127
60361,note_on,1,0,0,,2,,,74,127
60470,note_off,109,0,0,,2,,,74,127
60470,note_off,0,0,0,,3,,,39,127
60471,note_on,1,0,0,,5,,,41,127
60471,note_on,0,0,0,,2,,,74,127
60580,note_off,109,0,0,,2,,,74,127
60581,note_on,1,0,0,,0,,,72,127
60690,note_off,109,0,0,,0,,,72,127
60690,note_off,0,0,0,,5,,,41,127
60691,note_on,1,0,0,,5,,,41,127
60691,note_on,0,0,0,,11,,,70,127
60800,note_off,109,0,0,,11,,,70,127
60801,note_on,1,0,0,,10,,,69,127
60910,note_off,109,0,0,,10,,,69,127
60910,note_off,0,0,0,,5,,,41,127
60911,note_on,1,0,0,,11,,,58,127
60911,note_on,0,0,0,,2,,,62,127
61020,note_off,109,0,0,,2,,,62,127
61021,note_on,1,0,0,,2,,,74,127
61130,note_off,109,0,0,,2,,,74,127
61130,note_off,0,0,0,,11,,,58,127
61131,note_on,1,0,0,,0,,,60,127
61131,note_on,0,0,0,,3,,,63,127
61240,note_off,109,0,0,,3,,,63,127
61241,note_on,1,0,0,,3,,,75,127
61350,note_off,109,0,0,,3,,,75,127
61350,note_off,0,0,0,,0,,,60,127
61351,note_on,1,0,0,,2,,,62,127
61351,note_on,0,0,0,,5,,,65,127
61460,note_off,109,0,0,,5,,,65,127
61461,note_on,1,0,0,,5,,,77,127
61570,note_off,109,0,0,,5,,,77,127
61570,note_off,0,0,0,,2,,,62,127
61571,note_on,1,0,0,,3,,,63,127
61571,note_on,0,0,0,,7,,,67,127
61680,note_off,109,0,0,,7,,,67,127
61681,note_on,1,0,0,,7,,,79,127
61790,note_off,109,0,0,,7,,,79,127
61790,note_off,0,0,0,,3,,,63,127
61791,note_on,1,0,0,,5,,,65,127
61791,note_on,0,0,0,,10,,,69,127
61900,note_off,109,0,0,,10,,,69,127
61901,note_on,1,0,0,,10,,,81,127
62010,note_off,109,0,0,,10,,,81,127
62010,note_off,0,0,0,,5,,,65,127
62011,note_on,1,0,0,,7,,,67,127
62011,note_on,0,0,0,,11,,,70,127
62120,note_off,109,0,0,,11,,,70,127
62121,note_on,1,0,0,,11,,,82,127
62230,note_off,109,0,0,,11,,,82,127
62230,note_off,0,0,0,,7,,,67,127
62231,note_on,1,0,0,,5,,,53,127
62231,note_on,0,0,0,,0,,,84,127
62340,note_off,109,0,0,,0,,,84,127
62341,note_on,1,0,0,,7,,,79,127
62450,note_off,109,0,0,,7,,,79,127
62450,note_off,0,0,0,,5,,,53,127
62451,note_on,1,0,0,,7,,,55,127
62451,note_on,0,0,0,,5,,,77,127
62560,note_off,109,0,0,,5,,,77,127
62561,note_on,1,0,0,,3,,,75,127
62670,note_off,109,0,0,,3,,,75,127
62670,note_off,0,0,0,,7,,,55,127
62671,note_on,1,0,0,,10,,,57,127
62671,note_on,0,0,0,,2,,,74,127
62780,note_off,109,0,0,,2,,,74,127
62781,note_on,1,0,0,,0,,,72,127
62890,note_off,109,0,0,,0,,,72,127
62890,note_off,0,0,0,,10,,,57,127
62891,note_on,1,0,0,,11,,,46,127
62891,note_on,0,0,0,,11,,,82,127
63000,note_off,109,0,0,,11,,,82,127
63001,note_on,1,0,0,,5,,,77,127
63110,note_off,109,0,0,,5,,,77,127
63110,note_off,0,0,0,,11,,,46,127
63111,note_on,1,0,0,,0,,,48,127
63111,note_on,0,0,0,,3,,,75,127
63220,note_off,109,0,0,,3,,,75,127
63221,note_on,1,0,0,,2,,,74,127
63330,note_off,109,0,0,,2,,,74,127
63330,note_off,0,0,0,,0,,,48,127
63331,note_on,1,0,0,,2,,,50,127
63331,note_on,0,0,0,,0,,,72,127
63440,note_off,109,0,0,,0,,,72,127
63441,note_on,1,0,0,,11,,,70,127
63550,note_off,109,0,0,,11,,,70,127
63550,note_off,0,0,0,,2,,,50,127
63551,note_on,1,0,0,,3,,,51,127
63551,note_on,0,0,0,,7,,,79,127
63660,note_off,109,0,0,,7,,,79,127
63661,note_on,1,0,0,,3,,,75,127
63770,note_off,109,0,0,,3,,,75,127
63770,note_off,0,0,0,,3,,,51,127
63771,note_on,1,0,0,,5,,,53,127
63771,note_on,0,0,0,,2,,,74,127
63880,note_off,109,0,0,,2,,,74,127
63881,note_on,1,0,0,,0,,,72,127
63990,note_off,109,0,0,,0,,,72,127
63990,note_off,0,0,0,,5,,,53,127
63991,note_on,1,0,0,,5,,,41,127
63991,note_on,0,0,0,,11,,,70,127
64100,note_off,109,0,0,,11,,,70,127
64101,note_on,1,0,0,,10,,,69,127
64210,note_off,109,0,0,,10,,,69,127
64210,note_off,0,0,0,,5,,,41,127
64211,note_on,1,0,0,,11,,,58,127
64211,note_on,0,0,0,,2,,,62,127
64320,note_off,109,0,0,,2,,,62,127
64321,note_on,1,0,0,,2,,,74,127
64430,note_off,109,0,0,,2,,,74,127
64430,note_off,0,0,0,,11,,,58,127
64431,note_on,1,0,0,,0,,,60,127
64431,note_on,0,0,0,,3,,,63,127
64540,note_off,109,0,0,,3,,,63,127
64541,note_on,1,0,0,,3,,,75,127
64650,note_off,109,0,0,,3,,,75,127
64650,note_off,0,0,0,,0,,,60,127
64651,note_on,1,0,0,,2,,,62,127
64651,note_on,0,0,0,,5,,,65,127
64760,note_off,109,0,0,,5,,,65,127
64761,note_on,1,0,0,,5,,,77,127
64870,note_off,109,0,0,,5,,,77,127
64870,note_off,0,0,0,,2,,,62,127
64871,note_on,1,0,0,,3,,,63,127
64871,note_on,0,0,0,,7,,,67,127
64980,note_off,109,0,0,,7,,,67,127
64981,note_on,1,0,0,,7,,,79,127
65090,note_off,109,0,0,,7,,,79,127
65090,note_off,0,0,0,,3,,,63,127
65091,note_on,1,0,0,,5,,,65,127
65091,note_on,0,0,0,,10,,,69,127
65200,note_off,109,0,0,,10,,,69,127
65201,note_on,1,0,0,,10,,,81,127
65310,note_off,109,0,0,,10,,,81,127
65310,note_off,0,0,0,,5,,,65,127
65311,note_on,1,0,0,,7,,,67,127
65311,note_on,0,0,0,,11,,,70,127
65420,note_off,109,0,0,,11,,,70,127
65421,note_on,1,0,0,,11,,,82,127
65530,note_off,109,0,0,,11,,,82,127
65530,note_off,0,0,0,,7,,,67,127
65531,note_on,1,0,0,,5,,,53,127
65531,note_on,0,0,0,,0,,,84,127
65640,note_off,109,0,0,,0,,,84,127
65641,note_on,1,0,0,,7,,,79,127
65750,note_off,109,0,0,,7,,,79,127
65750,note_off,0,0,0,,5,,,53,127
65751,note_on,1,0,0,,7,,,55,127
65751,note_on,0,0,0,,5,,,77,127
65860,note_off,109,0,0,,5,,,77,127
65861,note_on,1,0,0,,3,,,75,127
65970,note_off,109,0,0,,3,,,75,127
65970,note_off,0,0,0,,7,,,55,127
65971,note_on,1,0,0,,10,,,57,127
65971,note_on,0,0,0,,2,,,74,127
66080,note_off,109,0,0,,2,,,74,127
66081,note_on,1,0,0,,0,,,72,127
66190,note_off,109,0,0,,0,,,72,127
66190,note_off,0,0,0,,10,,,57,127
66191,note_on,1,0,0,,11,,,46,127
66191,note_on,0,0,0,,11,,,82,127
66300,note_off,109,0,0,,11,,,82,127
66301,note_on,1,0,0,,5,,,77,127
66410,note_off,109,0,0,,5,,,77,127
66410,note_off,0,0,0,,11,,,46,127
66411,note_on,1,0,0,,0,,,48,127
66411,note_on,0,0,0,,3,,,75,127
66520,note_off,109,0,0,,3,,,75,127
66521,note_on,1,0,0,,2,,,74,127
66630,note_off,109,0,0,,2,,,74,127
66630,note_off,0,0,0,,0,,,48,127
66631,note_on,1,0,0,,2,,,50,127
66631,note_on,0,0,0,,0,,,72,127
66740,note_off,109,0,0,,0,,,72,127
66741,note_on,1,0,0,,11,,,70,127
66850,note_off,109,0,0,,11,,,70,127
66850,note_off,0,0,0,,2,,,50,127
66851,note_on,1,0,0,,3,,,51,127
66851,note_on,0,0,0,,7,,,79,127
66960,note_off,109,0,0,,7,,,79,127
66961,note_on,1,0,0,,3,,,75,127
67070,note_off,109,0,0,,3,,,75,127
67070,note_off,0,0,0,,3,,,51,127
67071,note_on,1,0,0,,5,,,53,127
67071,note_on,0,0,0,,2,,,74,127
67180,note_off,109,0,0,,2,,,74,127
67181,note_on,1,0,0,,0,,,72,127
67290,note_off,109,0,0,,0,,,72,127
67290,note_off,0,0,0,,5,,,53,127
67291,note_on,1,0,0,,5,,,41,127
67291,note_on,0,0,0,,11,,,70,127
67400,note_off,109,0,0,,11,,,70,127
67401,note_on,1,0,0,,10,,,69,127
67510,note_off,109,0,0,,10,,,69,127
67510,note_off,0,0,0,,5,,,41,127
67511,note_on,1,0,0,,5,,,77,127
67511,note_on,0,0,0,,11,,,46,127
67623,note_off,112,0,0,,5,,,77,127
67625,note_on,2,0,0,,2,,,74,127
67737,note_off,112,0,0,,2,,,74,127
67737,note_off,0,0,0,,11,,,46,127
67740,note_on,3,0,0,,0,,,72,127
67740,note_on,0,0,0,,0,,,48,127
67852,note_off,112,0,0,,0,,,72,127
67855,note_on,3,0,0,,11,,,70,127
67966,note_off,111,0,0,,0,,,48,127
67967,note_off,1,0,0,,11,,,70,127
67970,note_on,3,0,0,,10,,,69,127
67970,note_on,0,0,0,,2,,,50,127
68082,note_off,112,0,0,,10,,,69,127
68085,note_on,3,0,0,,7,,,67,127
68196,note_off,111,0,0,,2,,,50,127
68197,note_off,1,0,0,,7,,,67,127
68199,note_on,2,0,0,,5,,,65,127
68199,note_on,0,0,0,,3,,,51,127
68311,note_off,112,0,0,,5,,,65,127
68314,note_on,3,0,0,,3,,,63,127
68425,note_off,111,0,0,,3,,,51,127
68426,note_off,1,0,0,,3,,,63,127
68429,note_on,3,0,0,,2,,,62,127
68429,note_on,0,0,0,,5,,,53,127
68541,note_off,112,0,0,,2,,,62,127
68544,note_on,3,0,0,,0,,,60,127
68655,note_off,111,0,0,,5,,,53,127
68656,note_off,1,0,0,,0,,,60,127
68659,note_on,3,0,0,,11,,,58,127
68659,note_on,0,0,0,,5,,,41,127
68771,note_off,112,0,0,,11,,,58,127
68773,note_on,2,0,0,,10,,,57,127
68885,note_off,112,0,0,,5,,,41,127
68893,note_off,8,0,0,,10,,,57,127
68903,note_on,10,0,0,,11,,,58,127
68903,note_on,0,0,0,,11,,,34,127
71237,note_off,2334,0,0,,11,,,34,127
71237,note_off,0,0,0,,11,,,58,127
75264,end_of_track,4027,1,0,,,,,,
