tick,type,time,meta,track,program,channel,pitch,tempo,note,velocity
0,copyright,0,1,0,,,,,,
0,program_change,0,0,0,6,0,,,,
0,pitchwheel,0,0,0,,0,0,,,
0,program_change,0,0,0,6,1,,,,
0,pitchwheel,0,0,0,,1,-590,,,
0,program_change,0,0,0,6,2,,,,
0,pitchwheel,0,0,0,,2,-272,,,
0,program_change,0,0,0,6,3,,,,
0,pitchwheel,0,0,0,,3,-353,,,
0,program_change,0,0,0,6,4,,,,
0,pitchwheel,0,0,0,,4,-560,,,
0,program_change,0,0,0,6,5,,,,
0,pitchwheel,0,0,0,,5,-80,,,
0,program_change,0,0,0,6,6,,,,
0,pitchwheel,0,0,0,,6,-625,,,
0,program_change,0,0,0,6,7,,,,
0,pitchwheel,0,0,0,,7,-130,,,
0,program_change,0,0,0,6,8,,,,
0,pitchwheel,0,0,0,,8,-512,,,
0,program_change,0,0,0,6,10,,,,
0,pitchwheel,0,0,0,,10,-464,,,
0,program_change,0,0,0,6,11,,,,
0,pitchwheel,0,0,0,,11,-208,,,
0,program_change,0,0,0,6,12,,,,
0,pitchwheel,0,0,0,,12,-553,,,
0,set_tempo,0,1,0,,,,500000,,
209,note_on,209,0,0,,10,,,81,127
313,note_off,104,0,0,,10,,,81,127
314,note_on,1,0,0,,10,,,81,127
418,note_off,104,0,0,,10,,,81,127
419,note_on,1,0,0,,10,,,81,127
627,note_off,208,0,0,,10,,,81,127
628,note_on,1,0,0,,10,,,81,127
836,note_off,208,0,0,,10,,,81,127
837,note_on,1,0,0,,12,,,83,127
941,note_off,104,0,0,,12,,,83,127
942,note_on,1,0,0,,10,,,81,127
1046,note_off,104,0,0,,10,,,81,127
1047,note_on,1,0,0,,7,,,79,127
1151,note_off,104,0,0,,7,,,79,127
1152,note_on,1,0,0,,6,,,78,127
1256,note_off,104,0,0,,6,,,78,127
1257,note_on,1,0,0,,7,,,79,127
1361,note_off,104,0,0,,7,,,79,127
1362,note_on,1,0,0,,6,,,78,127
1466,note_off,104,0,0,,6,,,78,127
1467,note_on,1,0,0,,4,,,76,127
1571,note_off,104,0,0,,4,,,76,127
1572,note_on,1,0,0,,2,,,74,127
1676,note_off,104,0,0,,2,,,74,127
1677,note_on,1,0,0,,4,,,76,127
1781,note_off,104,0,0,,4,,,76,127
1782,note_on,1,0,0,,2,,,74,127
1886,note_off,104,0,0,,2,,,74,127
1887,note_on,1,0,0,,1,,,73,127
1991,note_off,104,0,0,,1,,,73,127
1992,note_on,1,0,0,,12,,,71,127
2096,note_off,104,0,0,,12,,,71,127
2097,note_on,1,0,0,,1,,,73,127
2305,note_off,208,0,0,,1,,,73,127
2306,note_on,1,0,0,,2,,,74,127
2410,note_off,104,0,0,,2,,,74,127
2411,note_on,1,0,0,,4,,,76,127
2515,note_off,104,0,0,,4,,,76,127
2516,note_on,1,0,0,,4,,,76,127
2578,note_on,62,0,0,,2,,,74,127
2582,note_off,4,0,0,,4,,,76,127
2640,note_on,58,0,0,,4,,,76,127
2644,note_off,4,0,0,,2,,,74,127
2702,note_on,58,0,0,,2,,,74,127
2706,note_off,4,0,0,,4,,,76,127
2725,note_on,19,0,0,,6,,,66,127
2764,note_on,39,0,0,,4,,,76,127
2768,note_off,4,0,0,,2,,,74,127
2826,note_on,58,0,0,,2,,,74,127
2828,note_off,2,0,0,,6,,,66,127
2829,note_on,1,0,0,,6,,,66,127
2830,note_off,1,0,0,,4,,,76,127
2888,note_on,58,0,0,,4,,,76,127
2892,note_off,4,0,0,,2,,,74,127
2932,note_off,40,0,0,,6,,,66,127
2933,note_on,1,0,0,,6,,,66,127
2950,note_on,17,0,0,,2,,,74,127
2953,note_off,3,0,0,,4,,,76,127
3012,note_on,59,0,0,,4,,,76,127
3016,note_off,4,0,0,,2,,,74,127
3074,note_on,58,0,0,,2,,,74,127
3078,note_off,4,0,0,,4,,,76,127
3136,note_on,58,0,0,,4,,,76,127
3140,note_off,4,0,0,,2,,,74,127
3140,note_off,0,0,0,,6,,,66,127
3141,note_on,1,0,0,,6,,,66,127
3198,note_on,57,0,0,,2,,,74,127
3202,note_off,4,0,0,,4,,,76,127
3260,note_on,58,0,0,,4,,,76,127
3264,note_off,4,0,0,,2,,,74,127
3322,note_on,58,0,0,,2,,,74,127
3326,note_off,4,0,0,,4,,,76,127
3349,note_off,23,0,0,,6,,,66,127
3350,note_on,1,0,0,,7,,,67,127
3385,note_on,35,0,0,,4,,,76,127
3388,note_off,3,0,0,,2,,,74,127
3447,note_on,59,0,0,,2,,,74,127
3451,note_off,4,0,0,,4,,,76,127
3453,note_off,2,0,0,,7,,,67,127
3454,note_on,1,0,0,,6,,,66,127
3509,note_on,55,0,0,,4,,,76,127
3513,note_off,4,0,0,,2,,,74,127
3558,note_off,45,0,0,,6,,,66,127
3559,note_on,1,0,0,,4,,,64,127
3571,note_on,12,0,0,,2,,,74,127
3575,note_off,4,0,0,,4,,,76,127
3633,note_on,58,0,0,,4,,,76,127
3637,note_off,4,0,0,,2,,,74,127
3662,note_off,25,0,0,,4,,,64,127
3663,note_on,1,0,0,,2,,,62,127
3695,note_on,32,0,0,,2,,,74,127
3699,note_off,4,0,0,,4,,,76,127
3757,note_on,58,0,0,,4,,,76,127
3761,note_off,4,0,0,,2,,,74,127
3766,note_off,5,0,0,,2,,,62,127
3767,note_on,1,0,0,,4,,,64,127
3819,note_on,52,0,0,,2,,,74,127
3822,note_off,3,0,0,,4,,,76,127
3870,note_off,48,0,0,,4,,,64,127
3871,note_on,1,0,0,,2,,,62,127
3881,note_on,10,0,0,,4,,,76,127
3885,note_off,4,0,0,,2,,,74,127
3943,note_on,58,0,0,,2,,,74,127
3947,note_off,4,0,0,,4,,,76,127
3974,note_off,27,0,0,,2,,,62,127
3975,note_on,1,0,0,,1,,,61,127
4004,note_on,29,0,0,,4,,,76,127
4008,note_off,4,0,0,,2,,,74,127
4066,note_on,58,0,0,,2,,,74,127
4070,note_off,4,0,0,,4,,,76,127
4078,note_off,8,0,0,,1,,,61,127
4079,note_on,1,0,0,,12,,,59,127
4128,note_on,49,0,0,,4,,,76,127
4132,note_off,4,0,0,,2,,,74,127
4182,note_off,50,0,0,,12,,,59,127
4183,note_on,1,0,0,,1,,,61,127
4190,note_on,7,0,0,,2,,,74,127
4194,note_off,4,0,0,,4,,,76,127
4253,note_on,59,0,0,,4,,,76,127
4256,note_off,3,0,0,,2,,,74,127
4287,note_off,31,0,0,,1,,,61,127
4288,note_on,1,0,0,,12,,,59,127
4315,note_on,27,0,0,,2,,,74,127
4319,note_off,4,0,0,,4,,,76,127
4377,note_on,58,0,0,,4,,,76,127
4381,note_off,4,0,0,,2,,,74,127
4391,note_off,10,0,0,,12,,,59,127
4392,note_on,1,0,0,,10,,,57,127
4439,note_on,47,0,0,,2,,,74,127
4443,note_off,4,0,0,,4,,,76,127
4495,note_off,52,0,0,,10,,,57,127
4496,note_on,1,0,0,,7,,,55,127
4500,note_on,4,0,0,,4,,,76,127
4504,note_off,4,0,0,,2,,,74,127
4562,note_on,58,0,0,,2,,,74,127
4566,note_off,4,0,0,,4,,,76,127
4599,note_off,33,0,0,,7,,,55,127
4600,note_on,1,0,0,,10,,,57,127
4624,note_on,24,0,0,,4,,,76,127
4628,note_off,4,0,0,,2,,,74,127
4686,note_on,58,0,0,,2,,,74,127
4690,note_off,4,0,0,,4,,,76,127
4703,note_off,13,0,0,,10,,,57,127
4704,note_on,1,0,0,,7,,,55,127
4748,note_on,44,0,0,,4,,,76,127
4752,note_off,4,0,0,,2,,,74,127
4808,note_off,56,0,0,,7,,,55,127
4809,note_on,1,0,0,,2,,,74,127
4809,note_on,0,0,0,,6,,,54,127
4814,note_off,5,0,0,,4,,,76,127
4912,note_off,98,0,0,,6,,,54,127
4913,note_on,1,0,0,,4,,,52,127
5017,note_off,104,0,0,,4,,,52,127
5018,note_on,1,0,0,,2,,,50,127
5087,note_off,69,0,0,,2,,,74,127
5228,note_on,141,0,0,,6,,,66,127
5332,note_off,104,0,0,,6,,,66,127
5333,note_on,1,0,0,,10,,,69,127
5437,note_off,104,0,0,,10,,,69,127
5438,note_on,1,0,0,,2,,,74,127
5438,note_on,0,0,0,,2,,,62,127
5646,note_off,208,0,0,,2,,,74,127
5647,note_on,1,0,0,,6,,,78,127
5855,note_off,208,0,0,,2,,,50,127
5856,note_on,1,0,0,,7,,,67,127
5856,note_on,0,0,0,,4,,,52,127
6061,note_off,205,0,0,,6,,,78,127
6065,note_on,4,0,0,,7,,,79,127
6273,note_off,208,0,0,,7,,,79,127
6273,note_off,0,0,0,,2,,,62,127
6274,note_on,1,0,0,,4,,,76,127
6274,note_on,0,0,0,,1,,,61,127
6482,note_off,208,0,0,,4,,,76,127
6483,note_on,1,0,0,,1,,,73,127
6690,note_off,207,0,0,,1,,,73,127
6691,note_off,1,0,0,,1,,,61,127
6691,note_off,0,0,0,,4,,,52,127
6691,note_off,0,0,0,,7,,,67,127
6692,note_on,1,0,0,,6,,,54,127
6901,note_on,209,0,0,,10,,,69,127
7005,note_off,104,0,0,,10,,,69,127
7006,note_on,1,0,0,,2,,,74,127
7110,note_off,104,0,0,,2,,,74,127
7111,note_on,1,0,0,,6,,,78,127
7111,note_on,0,0,0,,2,,,62,127
7319,note_off,208,0,0,,6,,,78,127
7320,note_on,1,0,0,,10,,,81,127
7528,note_off,208,0,0,,6,,,54,127
7529,note_on,1,0,0,,12,,,71,127
7529,note_on,0,0,0,,7,,,55,127
7734,note_off,205,0,0,,10,,,81,127
7738,note_on,4,0,0,,12,,,83,127
7946,note_off,208,0,0,,12,,,83,127
7946,note_off,0,0,0,,2,,,62,127
7947,note_on,1,0,0,,7,,,79,127
7947,note_on,0,0,0,,4,,,64,127
8155,note_off,208,0,0,,7,,,79,127
8156,note_on,1,0,0,,4,,,76,127
8363,note_off,207,0,0,,4,,,76,127
8364,note_off,1,0,0,,4,,,64,127
8364,note_off,0,0,0,,7,,,55,127
8364,note_off,0,0,0,,12,,,71,127
8365,note_on,1,0,0,,10,,,57,127
8574,note_on,209,0,0,,1,,,73,127
8574,note_on,0,0,0,,4,,,64,127
8678,note_off,104,0,0,,4,,,64,127
8678,note_off,0,0,0,,1,,,73,127
8679,note_on,1,0,0,,4,,,76,127
8679,note_on,0,0,0,,7,,,67,127
8783,note_off,104,0,0,,7,,,67,127
8783,note_off,0,0,0,,4,,,76,127
8784,note_on,1,0,0,,2,,,74,127
8784,note_on,0,0,0,,6,,,66,127
8992,note_off,208,0,0,,6,,,66,127
8992,note_off,0,0,0,,2,,,74,127
8993,note_on,1,0,0,,12,,,71,127
8993,note_on,0,0,0,,7,,,67,127
9201,note_off,208,0,0,,7,,,67,127
9201,note_off,0,0,0,,12,,,71,127
9201,note_off,0,0,0,,10,,,57,127
9202,note_on,1,0,0,,10,,,81,127
9202,note_on,0,0,0,,10,,,57,127
9411,note_on,209,0,0,,1,,,73,127
9411,note_on,0,0,0,,4,,,64,127
9515,note_off,104,0,0,,4,,,64,127
9515,note_off,0,0,0,,1,,,73,127
9516,note_on,1,0,0,,4,,,76,127
9516,note_on,0,0,0,,7,,,67,127
9620,note_off,104,0,0,,7,,,67,127
9620,note_off,0,0,0,,4,,,76,127
9621,note_on,1,0,0,,2,,,74,127
9621,note_on,0,0,0,,6,,,66,127
9829,note_off,208,0,0,,6,,,66,127
9829,note_off,0,0,0,,2,,,74,127
9830,note_on,1,0,0,,12,,,71,127
9830,note_on,0,0,0,,7,,,67,127
10038,note_off,208,0,0,,7,,,67,127
10038,note_off,0,0,0,,12,,,71,127
10038,note_off,0,0,0,,10,,,57,127
10038,note_off,0,0,0,,10,,,81,127
10039,note_on,1,0,0,,10,,,81,127
10039,note_on,0,0,0,,10,,,57,127
10248,note_on,209,0,0,,1,,,73,127
10248,note_on,0,0,0,,4,,,64,127
10352,note_off,104,0,0,,4,,,64,127
10352,note_off,0,0,0,,1,,,73,127
10353,note_on,1,0,0,,4,,,76,127
10353,note_on,0,0,0,,7,,,67,127
10457,note_off,104,0,0,,7,,,67,127
10457,note_off,0,0,0,,4,,,76,127
10458,note_on,1,0,0,,2,,,74,127
10458,note_on,0,0,0,,6,,,66,127
10666,note_off,208,0,0,,6,,,66,127
10666,note_off,0,0,0,,2,,,74,127
10667,note_on,1,0,0,,12,,,71,127
10667,note_on,0,0,0,,7,,,67,127
10875,note_off,208,0,0,,7,,,67,127
10875,note_off,0,0,0,,12,,,71,127
10875,note_off,0,0,0,,10,,,57,127
10875,note_off,0,0,0,,10,,,81,127
10876,note_on,1,0,0,,12,,,83,127
10876,note_on,0,0,0,,7,,,55,127
11085,note_on,209,0,0,,1,,,73,127
11085,note_on,0,0,0,,4,,,64,127
11189,note_off,104,0,0,,4,,,64,127
11189,note_off,0,0,0,,1,,,73,127
11190,note_on,1,0,0,,4,,,76,127
11190,note_on,0,0,0,,7,,,67,127
11294,note_off,104,0,0,,7,,,67,127
11294,note_off,0,0,0,,4,,,76,127
11295,note_on,1,0,0,,2,,,74,127
11295,note_on,0,0,0,,6,,,66,127
11503,note_off,208,0,0,,6,,,66,127
11503,note_off,0,0,0,,2,,,74,127
11504,note_on,1,0,0,,12,,,71,127
11504,note_on,0,0,0,,2,,,62,127
11712,note_off,208,0,0,,2,,,62,127
11712,note_off,0,0,0,,12,,,71,127
11712,note_off,0,0,0,,7,,,55,127
11712,note_off,0,0,0,,12,,,83,127
11713,note_on,1,0,0,,12,,,83,127
11713,note_on,0,0,0,,7,,,55,127
11922,note_on,209,0,0,,1,,,73,127
11922,note_on,0,0,0,,4,,,64,127
12026,note_off,104,0,0,,4,,,64,127
12026,note_off,0,0,0,,1,,,73,127
12027,note_on,1,0,0,,4,,,76,127
12027,note_on,0,0,0,,7,,,67,127
12131,note_off,104,0,0,,7,,,67,127
12131,note_off,0,0,0,,4,,,76,127
12132,note_on,1,0,0,,2,,,74,127
12132,note_on,0,0,0,,6,,,66,127
12340,note_off,208,0,0,,6,,,66,127
12340,note_off,0,0,0,,2,,,74,127
12341,note_on,1,0,0,,12,,,71,127
12341,note_on,0,0,0,,2,,,62,127
12549,note_off,208,0,0,,2,,,62,127
12549,note_off,0,0,0,,12,,,71,127
12549,note_off,0,0,0,,7,,,55,127
12549,note_off,0,0,0,,12,,,83,127
12550,note_on,1,0,0,,7,,,79,127
12550,note_on,0,0,0,,4,,,64,127
12550,note_on,0,0,0,,7,,,55,127
12758,note_off,208,0,0,,4,,,64,127
12758,note_off,0,0,0,,7,,,79,127
12759,note_on,1,0,0,,11,,,70,127
12759,note_on,0,0,0,,1,,,61,127
12967,note_off,208,0,0,,1,,,61,127
12967,note_off,0,0,0,,11,,,70,127
12968,note_on,1,0,0,,12,,,71,127
12968,note_on,0,0,0,,2,,,62,127
13176,note_off,208,0,0,,2,,,62,127
13176,note_off,0,0,0,,12,,,71,127
13177,note_on,1,0,0,,1,,,73,127
13177,note_on,0,0,0,,4,,,64,127
13385,note_off,208,0,0,,4,,,64,127
13385,note_off,0,0,0,,1,,,73,127
13385,note_off,0,0,0,,7,,,55,127
13386,note_on,1,0,0,,6,,,78,127
13386,note_on,0,0,0,,6,,,54,127
13595,note_on,209,0,0,,11,,,70,127
13595,note_on,0,0,0,,1,,,61,127
13699,note_off,104,0,0,,1,,,61,127
13699,note_off,0,0,0,,11,,,70,127
13700,note_on,1,0,0,,1,,,73,127
13700,note_on,0,0,0,,4,,,64,127
13804,note_off,104,0,0,,4,,,64,127
13804,note_off,0,0,0,,1,,,73,127
13805,note_on,1,0,0,,12,,,71,127
13805,note_on,0,0,0,,2,,,62,127
14013,note_off,208,0,0,,2,,,62,127
14013,note_off,0,0,0,,12,,,71,127
14014,note_on,1,0,0,,1,,,73,127
14014,note_on,0,0,0,,4,,,64,127
14222,note_off,208,0,0,,4,,,64,127
14222,note_off,0,0,0,,1,,,73,127
14222,note_off,0,0,0,,6,,,54,127
14222,note_off,0,0,0,,6,,,78,127
14223,note_on,1,0,0,,6,,,78,127
14223,note_on,0,0,0,,6,,,54,127
14432,note_on,209,0,0,,11,,,70,127
14432,note_on,0,0,0,,1,,,61,127
14536,note_off,104,0,0,,1,,,61,127
14536,note_off,0,0,0,,11,,,70,127
14537,note_on,1,0,0,,1,,,73,127
14537,note_on,0,0,0,,4,,,64,127
14641,note_off,104,0,0,,4,,,64,127
14641,note_off,0,0,0,,1,,,73,127
14642,note_on,1,0,0,,12,,,71,127
14642,note_on,0,0,0,,2,,,62,127
14850,note_off,208,0,0,,2,,,62,127
14850,note_off,0,0,0,,12,,,71,127
14851,note_on,1,0,0,,1,,,73,127
14851,note_on,0,0,0,,4,,,64,127
15027,note_off,176,0,0,,1,,,73,127
15027,note_off,0,0,0,,6,,,78,127
15060,note_off,33,0,0,,4,,,64,127
15060,note_off,0,0,0,,6,,,54,127
15061,note_on,1,0,0,,10,,,81,127
15061,note_on,0,0,0,,4,,,64,127
15061,note_on,0,0,0,,6,,,54,127
15165,note_off,104,0,0,,10,,,81,127
15166,note_on,1,0,0,,0,,,72,127
15270,note_off,104,0,0,,0,,,72,127
15271,note_on,1,0,0,,12,,,71,127
15375,note_off,104,0,0,,12,,,71,127
15376,note_on,1,0,0,,7,,,79,127
15480,note_off,104,0,0,,7,,,79,127
15481,note_on,1,0,0,,6,,,78,127
15585,note_off,104,0,0,,6,,,78,127
15586,note_on,1,0,0,,10,,,69,127
15690,note_off,104,0,0,,10,,,69,127
15691,note_on,1,0,0,,7,,,67,127
15795,note_off,104,0,0,,7,,,67,127
15796,note_on,1,0,0,,4,,,76,127
15900,note_off,104,0,0,,4,,,76,127
15900,note_off,0,0,0,,6,,,54,127
15900,note_off,0,0,0,,4,,,64,127
15901,note_on,1,0,0,,12,,,83,127
15901,note_on,0,0,0,,12,,,59,127
16110,note_on,209,0,0,,3,,,75,127
16110,note_on,0,0,0,,6,,,66,127
16214,note_off,104,0,0,,6,,,66,127
16214,note_off,0,0,0,,3,,,75,127
16215,note_on,1,0,0,,6,,,78,127
16215,note_on,0,0,0,,10,,,69,127
16319,note_off,104,0,0,,10,,,69,127
16319,note_off,0,0,0,,6,,,78,127
16320,note_on,1,0,0,,4,,,76,127
16320,note_on,0,0,0,,7,,,67,127
16528,note_off,208,0,0,,7,,,67,127
16528,note_off,0,0,0,,4,,,76,127
16529,note_on,1,0,0,,6,,,78,127
16529,note_on,0,0,0,,10,,,69,127
16737,note_off,208,0,0,,10,,,69,127
16737,note_off,0,0,0,,6,,,78,127
16737,note_off,0,0,0,,12,,,59,127
16737,note_off,0,0,0,,12,,,83,127
16738,note_on,1,0,0,,12,,,83,127
16738,note_on,0,0,0,,12,,,59,127
16947,note_on,209,0,0,,3,,,75,127
16947,note_on,0,0,0,,6,,,66,127
17051,note_off,104,0,0,,6,,,66,127
17051,note_off,0,0,0,,3,,,75,127
17052,note_on,1,0,0,,6,,,78,127
17052,note_on,0,0,0,,10,,,69,127
17156,note_off,104,0,0,,10,,,69,127
17156,note_off,0,0,0,,6,,,78,127
17157,note_on,1,0,0,,4,,,76,127
17157,note_on,0,0,0,,7,,,67,127
17365,note_off,208,0,0,,7,,,67,127
17365,note_off,0,0,0,,4,,,76,127
17366,note_on,1,0,0,,6,,,78,127
17366,note_on,0,0,0,,10,,,69,127
17546,note_off,180,0,0,,6,,,78,127
17547,note_off,1,0,0,,12,,,83,127
17574,note_off,27,0,0,,10,,,69,127
17574,note_off,0,0,0,,12,,,59,127
17575,note_on,1,0,0,,2,,,86,127
17575,note_on,0,0,0,,10,,,69,127
17575,note_on,0,0,0,,12,,,59,127
17679,note_off,104,0,0,,2,,,86,127
17680,note_on,1,0,0,,5,,,77,127
17784,note_off,104,0,0,,5,,,77,127
17785,note_on,1,0,0,,4,,,76,127
17889,note_off,104,0,0,,4,,,76,127
17890,note_on,1,0,0,,0,,,84,127
17994,note_off,104,0,0,,0,,,84,127
17995,note_on,1,0,0,,12,,,83,127
18099,note_off,104,0,0,,12,,,83,127
18100,note_on,1,0,0,,2,,,74,127
18204,note_off,104,0,0,,2,,,74,127
18205,note_on,1,0,0,,0,,,72,127
18309,note_off,104,0,0,,0,,,72,127
18310,note_on,1,0,0,,10,,,81,127
18414,note_off,104,0,0,,10,,,81,127
18414,note_off,0,0,0,,12,,,59,127
18414,note_off,0,0,0,,10,,,69,127
18415,note_on,1,0,0,,8,,,80,127
18415,note_on,0,0,0,,2,,,62,127
18415,note_on,0,0,0,,4,,,52,127
18519,note_off,104,0,0,,8,,,80,127
18520,note_on,1,0,0,,12,,,71,127
18624,note_off,104,0,0,,12,,,71,127
18625,note_on,1,0,0,,10,,,69,127
18729,note_off,104,0,0,,10,,,69,127
18730,note_on,1,0,0,,5,,,77,127
18834,note_off,104,0,0,,5,,,77,127
18835,note_on,1,0,0,,4,,,76,127
18939,note_off,104,0,0,,4,,,76,127
18940,note_on,1,0,0,,10,,,69,127
19044,note_off,104,0,0,,10,,,69,127
19045,note_on,1,0,0,,2,,,74,127
19045,note_on,0,0,0,,8,,,68,127
19149,note_off,104,0,0,,8,,,68,127
19150,note_on,1,0,0,,12,,,71,127
19253,note_off,103,0,0,,2,,,74,127
19254,note_off,1,0,0,,12,,,71,127
19254,note_off,0,0,0,,4,,,52,127
19254,note_off,0,0,0,,2,,,62,127
19255,note_on,1,0,0,,0,,,72,127
19255,note_on,0,0,0,,10,,,69,127
19255,note_on,0,0,0,,3,,,63,127
19255,note_on,0,0,0,,4,,,52,127
19463,note_off,208,0,0,,0,,,72,127
19464,note_on,1,0,0,,12,,,71,127
19568,note_off,104,0,0,,12,,,71,127
19569,note_on,1,0,0,,0,,,72,127
19673,note_off,104,0,0,,0,,,72,127
19674,note_on,1,0,0,,4,,,76,127
19882,note_off,208,0,0,,4,,,76,127
19882,note_off,0,0,0,,10,,,69,127
19883,note_on,1,0,0,,10,,,69,127
19883,note_on,0,0,0,,0,,,72,127
20091,note_off,208,0,0,,4,,,52,127
20091,note_off,0,0,0,,3,,,63,127
20092,note_on,1,0,0,,4,,,64,127
20092,note_on,0,0,0,,4,,,52,127
20300,note_off,208,0,0,,0,,,72,127
20301,note_on,1,0,0,,12,,,71,127
20405,note_off,104,0,0,,12,,,71,127
20406,note_on,1,0,0,,0,,,72,127
20510,note_off,104,0,0,,0,,,72,127
20511,note_on,1,0,0,,4,,,76,127
20719,note_off,208,0,0,,4,,,76,127
20719,note_off,0,0,0,,10,,,69,127
20720,note_on,1,0,0,,0,,,72,127
20720,note_on,0,0,0,,10,,,69,127
20928,note_off,208,0,0,,4,,,52,127
20928,note_off,0,0,0,,4,,,64,127
20929,note_on,1,0,0,,3,,,63,127
20929,note_on,0,0,0,,4,,,52,127
21137,note_off,208,0,0,,0,,,72,127
21138,note_on,1,0,0,,12,,,71,127
21242,note_off,104,0,0,,12,,,71,127
21243,note_on,1,0,0,,0,,,72,127
21347,note_off,104,0,0,,0,,,72,127
21348,note_on,1,0,0,,4,,,76,127
21556,note_off,208,0,0,,4,,,76,127
21556,note_off,0,0,0,,10,,,69,127
21557,note_on,1,0,0,,0,,,72,127
21557,note_on,0,0,0,,10,,,69,127
21765,note_off,208,0,0,,4,,,52,127
21765,note_off,0,0,0,,3,,,63,127
21766,note_on,1,0,0,,4,,,64,127
21766,note_on,0,0,0,,4,,,52,127
21974,note_off,208,0,0,,10,,,69,127
21974,note_off,0,0,0,,0,,,72,127
21975,note_on,1,0,0,,12,,,71,127
22079,note_off,104,0,0,,12,,,71,127
22080,note_on,1,0,0,,10,,,69,127
22184,note_off,104,0,0,,10,,,69,127
22185,note_on,1,0,0,,0,,,72,127
22185,note_on,0,0,0,,8,,,68,127
22236,note_off,51,0,0,,0,,,72,127
22237,note_on,1,0,0,,12,,,71,127
22288,note_off,51,0,0,,12,,,71,127
22289,note_on,1,0,0,,0,,,72,127
22340,note_off,51,0,0,,0,,,72,127
22341,note_on,1,0,0,,12,,,71,127
22548,note_off,207,0,0,,12,,,71,127
22598,note_off,50,0,0,,8,,,68,127
22601,note_off,3,0,0,,4,,,52,127
22601,note_off,0,0,0,,4,,,64,127
22602,note_on,1,0,0,,10,,,45,127
22811,note_on,209,0,0,,10,,,57,127
22915,note_off,104,0,0,,10,,,57,127
22916,note_on,1,0,0,,0,,,60,127
23020,note_off,104,0,0,,0,,,60,127
23021,note_on,1,0,0,,4,,,64,127
23229,note_off,208,0,0,,4,,,64,127
23230,note_on,1,0,0,,3,,,63,127
23230,note_on,0,0,0,,10,,,69,127
23438,note_off,208,0,0,,3,,,63,127
23438,note_off,0,0,0,,10,,,45,127
23439,note_on,1,0,0,,4,,,64,127
23439,note_on,0,0,0,,4,,,40,127
23439,note_on,0,0,0,,4,,,52,127
23644,note_off,205,0,0,,10,,,69,127
23648,note_on,4,0,0,,12,,,71,127
23856,note_off,208,0,0,,12,,,71,127
23857,note_on,1,0,0,,7,,,67,127
24065,note_off,208,0,0,,7,,,67,127
24065,note_off,0,0,0,,4,,,64,127
24066,note_on,1,0,0,,4,,,64,127
24273,note_off,207,0,0,,4,,,64,127
24274,note_off,1,0,0,,4,,,52,127
24274,note_off,0,0,0,,4,,,40,127
24275,note_on,1,0,0,,2,,,38,127
24275,note_on,0,0,0,,2,,,50,127
24484,note_on,209,0,0,,5,,,65,127
24588,note_off,104,0,0,,5,,,65,127
24589,note_on,1,0,0,,10,,,69,127
24693,note_off,104,0,0,,10,,,69,127
24694,note_on,1,0,0,,2,,,74,127
24902,note_off,208,0,0,,2,,,74,127
24903,note_on,1,0,0,,8,,,68,127
24903,note_on,0,0,0,,5,,,77,127
25111,note_off,208,0,0,,8,,,68,127
25111,note_off,0,0,0,,2,,,50,127
25111,note_off,0,0,0,,2,,,38,127
25112,note_on,1,0,0,,10,,,69,127
25112,note_on,0,0,0,,0,,,48,127
25112,note_on,0,0,0,,0,,,36,127
25317,note_off,205,0,0,,5,,,77,127
25321,note_on,4,0,0,,4,,,76,127
25529,note_off,208,0,0,,4,,,76,127
25530,note_on,1,0,0,,0,,,72,127
25738,note_off,208,0,0,,0,,,72,127
25738,note_off,0,0,0,,10,,,69,127
25739,note_on,1,0,0,,10,,,69,127
25946,note_off,207,0,0,,10,,,69,127
25947,note_off,1,0,0,,0,,,36,127
25947,note_off,0,0,0,,0,,,48,127
25948,note_on,1,0,0,,5,,,53,127
25948,note_on,0,0,0,,5,,,41,127
26157,note_on,209,0,0,,10,,,69,127
26261,note_off,104,0,0,,10,,,69,127
26262,note_on,1,0,0,,2,,,74,127
26367,note_on,105,0,0,,5,,,77,127
26575,note_off,208,0,0,,5,,,77,127
26576,note_on,1,0,0,,10,,,81,127
26784,note_off,208,0,0,,10,,,81,127
26784,note_off,0,0,0,,5,,,41,127
26784,note_off,0,0,0,,5,,,53,127
26785,note_on,1,0,0,,8,,,80,127
26785,note_on,0,0,0,,4,,,52,127
26785,note_on,0,0,0,,4,,,40,127
26992,note_off,207,0,0,,2,,,74,127
26994,note_on,2,0,0,,12,,,71,127
27199,note_off,205,0,0,,8,,,80,127
27202,note_off,3,0,0,,12,,,71,127
27202,note_off,0,0,0,,4,,,40,127
27202,note_off,0,0,0,,4,,,52,127
27203,note_on,1,0,0,,0,,,72,127
27203,note_on,0,0,0,,10,,,81,127
27203,note_on,0,0,0,,10,,,57,127
27203,note_on,0,0,0,,10,,,45,127
27411,note_off,208,0,0,,0,,,72,127
27412,note_on,1,0,0,,4,,,76,127
27617,note_off,205,0,0,,10,,,81,127
27620,note_off,3,0,0,,4,,,76,127
27620,note_off,0,0,0,,10,,,45,127
27620,note_off,0,0,0,,10,,,57,127
27621,note_on,1,0,0,,12,,,71,127
27621,note_on,0,0,0,,2,,,50,127
27621,note_on,0,0,0,,2,,,38,127
27829,note_off,208,0,0,,12,,,71,127
27830,note_on,1,0,0,,0,,,72,127
27934,note_off,104,0,0,,0,,,72,127
27935,note_on,1,0,0,,2,,,74,127
28039,note_off,104,0,0,,2,,,74,127
28039,note_off,0,0,0,,2,,,38,127
28039,note_off,0,0,0,,2,,,50,127
28040,note_on,1,0,0,,0,,,72,127
28040,note_on,0,0,0,,10,,,69,127
28040,note_on,0,0,0,,4,,,52,127
28040,note_on,0,0,0,,4,,,40,127
28248,note_off,208,0,0,,10,,,69,127
28248,note_off,0,0,0,,0,,,72,127
28249,note_on,1,0,0,,12,,,71,127
28249,note_on,0,0,0,,8,,,68,127
28452,note_off,203,0,0,,8,,,68,127
28452,note_off,0,0,0,,12,,,71,127
28457,note_off,5,0,0,,4,,,40,127
28457,note_off,0,0,0,,4,,,52,127
28458,note_on,1,0,0,,10,,,45,127
28667,note_on,209,0,0,,10,,,57,127
28771,note_off,104,0,0,,10,,,57,127
28772,note_on,1,0,0,,0,,,60,127
28876,note_off,104,0,0,,0,,,60,127
28877,note_on,1,0,0,,4,,,64,127
29085,note_off,208,0,0,,4,,,64,127
29086,note_on,1,0,0,,10,,,69,127
29086,note_on,0,0,0,,3,,,63,127
29294,note_off,208,0,0,,3,,,63,127
29294,note_off,0,0,0,,10,,,69,127
29294,note_off,0,0,0,,10,,,45,127
29295,note_on,1,0,0,,4,,,64,127
29295,note_on,0,0,0,,0,,,72,127
29295,note_on,0,0,0,,4,,,40,127
29295,note_on,0,0,0,,4,,,52,127
29503,note_off,208,0,0,,0,,,72,127
29504,note_on,1,0,0,,12,,,71,127
29608,note_off,104,0,0,,12,,,71,127
29609,note_on,1,0,0,,10,,,69,127
29713,note_off,104,0,0,,10,,,69,127
29714,note_on,1,0,0,,10,,,69,127
29922,note_off,208,0,0,,10,,,69,127
29923,note_on,1,0,0,,8,,,68,127
30130,note_off,207,0,0,,8,,,68,127
30131,note_off,1,0,0,,4,,,52,127
30131,note_off,0,0,0,,4,,,40,127
30131,note_off,0,0,0,,4,,,64,127
30132,note_on,1,0,0,,2,,,50,127
30132,note_on,0,0,0,,2,,,38,127
30341,note_on,209,0,0,,5,,,65,127
30445,note_off,104,0,0,,5,,,65,127
30446,note_on,1,0,0,,10,,,69,127
30550,note_off,104,0,0,,10,,,69,127
30551,note_on,1,0,0,,2,,,74,127
30759,note_off,208,0,0,,2,,,74,127
30760,note_on,1,0,0,,5,,,77,127
30760,note_on,0,0,0,,8,,,68,127
30968,note_off,208,0,0,,8,,,68,127
30968,note_off,0,0,0,,2,,,38,127
30968,note_off,0,0,0,,2,,,50,127
30969,note_on,1,0,0,,10,,,69,127
30969,note_on,0,0,0,,0,,,36,127
30969,note_on,0,0,0,,0,,,48,127
31174,note_off,205,0,0,,5,,,77,127
31178,note_on,4,0,0,,4,,,76,127
31282,note_off,104,0,0,,4,,,76,127
31283,note_on,1,0,0,,2,,,74,127
31387,note_off,104,0,0,,2,,,74,127
31388,note_on,1,0,0,,2,,,74,127
31596,note_off,208,0,0,,2,,,74,127
31597,note_on,1,0,0,,0,,,72,127
31804,note_off,207,0,0,,0,,,72,127
31805,note_off,1,0,0,,0,,,48,127
31805,note_off,0,0,0,,0,,,36,127
31805,note_off,0,0,0,,10,,,69,127
31806,note_on,1,0,0,,5,,,53,127
31806,note_on,0,0,0,,5,,,41,127
32015,note_on,209,0,0,,10,,,69,127
32119,note_off,104,0,0,,10,,,69,127
32120,note_on,1,0,0,,2,,,74,127
32225,note_on,105,0,0,,5,,,77,127
32433,note_off,208,0,0,,5,,,77,127
32434,note_on,1,0,0,,10,,,81,127
32642,note_off,208,0,0,,10,,,81,127
32642,note_off,0,0,0,,5,,,41,127
32642,note_off,0,0,0,,5,,,53,127
32643,note_on,1,0,0,,8,,,80,127
32643,note_on,0,0,0,,4,,,52,127
32643,note_on,0,0,0,,4,,,40,127
32850,note_off,207,0,0,,2,,,74,127
32852,note_on,2,0,0,,12,,,71,127
33057,note_off,205,0,0,,8,,,80,127
33060,note_off,3,0,0,,12,,,71,127
33060,note_off,0,0,0,,4,,,40,127
33060,note_off,0,0,0,,4,,,52,127
33061,note_on,1,0,0,,0,,,72,127
33061,note_on,0,0,0,,10,,,81,127
33061,note_on,0,0,0,,10,,,57,127
33061,note_on,0,0,0,,10,,,45,127
33269,note_off,208,0,0,,0,,,72,127
33270,note_on,1,0,0,,4,,,76,127
33475,note_off,205,0,0,,10,,,81,127
33478,note_off,3,0,0,,4,,,76,127
33478,note_off,0,0,0,,10,,,45,127
33478,note_off,0,0,0,,10,,,57,127
33479,note_on,1,0,0,,12,,,71,127
33479,note_on,0,0,0,,2,,,50,127
33479,note_on,0,0,0,,2,,,38,127
33687,note_off,208,0,0,,12,,,71,127
33688,note_on,1,0,0,,0,,,72,127
33792,note_off,104,0,0,,0,,,72,127
33793,note_on,1,0,0,,2,,,74,127
33897,note_off,104,0,0,,2,,,74,127
33897,note_off,0,0,0,,2,,,38,127
33897,note_off,0,0,0,,2,,,50,127
33898,note_on,1,0,0,,0,,,72,127
33898,note_on,0,0,0,,10,,,69,127
33898,note_on,0,0,0,,4,,,52,127
33898,note_on,0,0,0,,4,,,40,127
34106,note_off,208,0,0,,10,,,69,127
34106,note_off,0,0,0,,0,,,72,127
34107,note_on,1,0,0,,12,,,71,127
34107,note_on,0,0,0,,8,,,68,127
34310,note_off,203,0,0,,8,,,68,127
34310,note_off,0,0,0,,12,,,71,127
34315,note_off,5,0,0,,4,,,40,127
34315,note_off,0,0,0,,4,,,52,127
34316,note_on,1,0,0,,10,,,81,127
34316,note_on,0,0,0,,10,,,45,127
34524,note_off,208,0,0,,10,,,45,127
34525,note_on,1,0,0,,1,,,73,127
34525,note_on,0,0,0,,4,,,64,127
34629,note_off,104,0,0,,4,,,64,127
34629,note_off,0,0,0,,1,,,73,127
34630,note_on,1,0,0,,10,,,69,127
34630,note_on,0,0,0,,1,,,61,127
34734,note_off,104,0,0,,1,,,61,127
34734,note_off,0,0,0,,10,,,69,127
34735,note_on,1,0,0,,12,,,71,127
34735,note_on,0,0,0,,2,,,62,127
34943,note_off,208,0,0,,2,,,62,127
34943,note_off,0,0,0,,12,,,71,127
34943,note_off,0,0,0,,10,,,81,127
34944,note_on,1,0,0,,2,,,74,127
34944,note_on,0,0,0,,8,,,80,127
34944,note_on,0,0,0,,4,,,64,127
35152,note_off,208,0,0,,4,,,64,127
35152,note_off,0,0,0,,8,,,80,127
35152,note_off,0,0,0,,2,,,74,127
35153,note_on,1,0,0,,10,,,81,127
35153,note_on,0,0,0,,10,,,45,127
35361,note_off,208,0,0,,10,,,45,127
35362,note_on,1,0,0,,1,,,73,127
35362,note_on,0,0,0,,4,,,64,127
35466,note_off,104,0,0,,4,,,64,127
35466,note_off,0,0,0,,1,,,73,127
35467,note_on,1,0,0,,10,,,69,127
35467,note_on,0,0,0,,1,,,61,127
35571,note_off,104,0,0,,1,,,61,127
35571,note_off,0,0,0,,10,,,69,127
35572,note_on,1,0,0,,12,,,71,127
35572,note_on,0,0,0,,2,,,62,127
35780,note_off,208,0,0,,2,,,62,127
35780,note_off,0,0,0,,12,,,71,127
35780,note_off,0,0,0,,10,,,81,127
35781,note_on,1,0,0,,8,,,80,127
35781,note_on,0,0,0,,2,,,74,127
35781,note_on,0,0,0,,4,,,64,127
35989,note_off,208,0,0,,4,,,64,127
35989,note_off,0,0,0,,2,,,74,127
35989,note_off,0,0,0,,8,,,80,127
35990,note_on,1,0,0,,2,,,86,127
35990,note_on,0,0,0,,4,,,52,127
35990,note_on,0,0,0,,10,,,57,127
35990,note_on,0,0,0,,10,,,45,127
36094,note_off,104,0,0,,2,,,86,127
36095,note_on,1,0,0,,1,,,85,127
36199,note_off,104,0,0,,1,,,85,127
36200,note_on,1,0,0,,12,,,83,127
36304,note_off,104,0,0,,12,,,83,127
36305,note_on,1,0,0,,10,,,81,127
36409,note_off,104,0,0,,10,,,81,127
36409,note_off,0,0,0,,10,,,45,127
36409,note_off,0,0,0,,10,,,57,127
36409,note_off,0,0,0,,4,,,52,127
36410,note_on,1,0,0,,12,,,83,127
36410,note_on,0,0,0,,10,,,57,127
36410,note_on,0,0,0,,1,,,49,127
36514,note_off,104,0,0,,12,,,83,127
36515,note_on,1,0,0,,10,,,81,127
36619,note_off,104,0,0,,10,,,81,127
36620,note_on,1,0,0,,8,,,80,127
36724,note_off,104,0,0,,8,,,80,127
36725,note_on,1,0,0,,6,,,78,127
36829,note_off,104,0,0,,6,,,78,127
36829,note_off,0,0,0,,1,,,49,127
36829,note_off,0,0,0,,10,,,57,127
36830,note_on,1,0,0,,8,,,80,127
36830,note_on,0,0,0,,2,,,50,127
36830,note_on,0,0,0,,10,,,57,127
36934,note_off,104,0,0,,8,,,80,127
36935,note_on,1,0,0,,6,,,78,127
37039,note_off,104,0,0,,6,,,78,127
37040,note_on,1,0,0,,4,,,76,127
37144,note_off,104,0,0,,4,,,76,127
37145,note_on,1,0,0,,2,,,74,127
37249,note_off,104,0,0,,2,,,74,127
37249,note_off,0,0,0,,10,,,57,127
37249,note_off,0,0,0,,2,,,50,127
37250,note_on,1,0,0,,4,,,76,127
37250,note_on,0,0,0,,4,,,52,127
37250,note_on,0,0,0,,4,,,40,127
37354,note_off,104,0,0,,4,,,76,127
37355,note_on,1,0,0,,2,,,74,127
37459,note_off,104,0,0,,2,,,74,127
37460,note_on,1,0,0,,1,,,73,127
37564,note_off,104,0,0,,1,,,73,127
37565,note_on,1,0,0,,12,,,71,127
37669,note_off,104,0,0,,12,,,71,127
37669,note_off,0,0,0,,4,,,40,127
37669,note_off,0,0,0,,4,,,52,127
37670,note_on,1,0,0,,10,,,81,127
37670,note_on,0,0,0,,10,,,45,127
37878,note_off,208,0,0,,10,,,45,127
37879,note_on,1,0,0,,1,,,73,127
37879,note_on,0,0,0,,4,,,64,127
37983,note_off,104,0,0,,4,,,64,127
37983,note_off,0,0,0,,1,,,73,127
37984,note_on,1,0,0,,10,,,69,127
37984,note_on,0,0,0,,1,,,61,127
38088,note_off,104,0,0,,1,,,61,127
38088,note_off,0,0,0,,10,,,69,127
38089,note_on,1,0,0,,12,,,71,127
38089,note_on,0,0,0,,2,,,62,127
38297,note_off,208,0,0,,2,,,62,127
38297,note_off,0,0,0,,12,,,71,127
38297,note_off,0,0,0,,10,,,81,127
38298,note_on,1,0,0,,2,,,74,127
38298,note_on,0,0,0,,8,,,80,127
38298,note_on,0,0,0,,4,,,64,127
38506,note_off,208,0,0,,4,,,64,127
38506,note_off,0,0,0,,8,,,80,127
38506,note_off,0,0,0,,2,,,74,127
38507,note_on,1,0,0,,10,,,81,127
38507,note_on,0,0,0,,10,,,45,127
38715,note_off,208,0,0,,10,,,45,127
38716,note_on,1,0,0,,1,,,73,127
38716,note_on,0,0,0,,4,,,64,127
38820,note_off,104,0,0,,4,,,64,127
38820,note_off,0,0,0,,1,,,73,127
38821,note_on,1,0,0,,10,,,69,127
38821,note_on,0,0,0,,1,,,61,127
38925,note_off,104,0,0,,1,,,61,127
38925,note_off,0,0,0,,10,,,69,127
38926,note_on,1,0,0,,12,,,71,127
38926,note_on,0,0,0,,2,,,62,127
39134,note_off,208,0,0,,2,,,62,127
39134,note_off,0,0,0,,12,,,71,127
39134,note_off,0,0,0,,10,,,81,127
39135,note_on,1,0,0,,8,,,80,127
39135,note_on,0,0,0,,2,,,74,127
39135,note_on,0,0,0,,4,,,64,127
39343,note_off,208,0,0,,4,,,64,127
39343,note_off,0,0,0,,2,,,74,127
39343,note_off,0,0,0,,8,,,80,127
39344,note_on,1,0,0,,10,,,81,127
39344,note_on,0,0,0,,4,,,52,127
39344,note_on,0,0,0,,10,,,57,127
39344,note_on,0,0,0,,10,,,45,127
39552,note_off,208,0,0,,10,,,81,127
39553,note_on,1,0,0,,4,,,76,127
39657,note_off,104,0,0,,4,,,76,127
39658,note_on,1,0,0,,8,,,80,127
39762,note_off,104,0,0,,8,,,80,127
39762,note_off,0,0,0,,10,,,45,127
39762,note_off,0,0,0,,10,,,57,127
39762,note_off,0,0,0,,4,,,52,127
39763,note_on,1,0,0,,6,,,78,127
39763,note_on,0,0,0,,10,,,57,127
39763,note_on,0,0,0,,2,,,50,127
39971,note_off,208,0,0,,6,,,78,127
39972,note_on,1,0,0,,12,,,71,127
40076,note_off,104,0,0,,12,,,71,127
40077,note_on,1,0,0,,2,,,74,127
40181,note_off,104,0,0,,2,,,74,127
40181,note_off,0,0,0,,2,,,50,127
40181,note_off,0,0,0,,10,,,57,127
40182,note_on,1,0,0,,1,,,73,127
40182,note_on,0,0,0,,4,,,52,127
40390,note_off,208,0,0,,1,,,73,127
40391,note_on,1,0,0,,4,,,76,127
40495,note_off,104,0,0,,4,,,76,127
40496,note_on,1,0,0,,10,,,69,127
40600,note_off,104,0,0,,10,,,69,127
40600,note_off,0,0,0,,4,,,52,127
40601,note_on,1,0,0,,1,,,73,127
40601,note_on,0,0,0,,4,,,40,127
40705,note_off,104,0,0,,1,,,73,127
40706,note_on,1,0,0,,12,,,71,127
40810,note_off,104,0,0,,12,,,71,127
40811,note_on,1,0,0,,10,,,69,127
40915,note_off,104,0,0,,10,,,69,127
40916,note_on,1,0,0,,8,,,68,127
41020,note_off,104,0,0,,8,,,68,127
41020,note_off,0,0,0,,4,,,40,127
41021,note_on,1,0,0,,2,,,86,127
41021,note_on,0,0,0,,10,,,57,127
41021,note_on,0,0,0,,4,,,52,127
41021,note_on,0,0,0,,10,,,45,127
41125,note_off,104,0,0,,2,,,86,127
41126,note_on,1,0,0,,1,,,85,127
41230,note_off,104,0,0,,1,,,85,127
41231,note_on,1,0,0,,12,,,83,127
41335,note_off,104,0,0,,12,,,83,127
41336,note_on,1,0,0,,10,,,81,127
41440,note_off,104,0,0,,10,,,81,127
41440,note_off,0,0,0,,10,,,45,127
41440,note_off,0,0,0,,4,,,52,127
41440,note_off,0,0,0,,10,,,57,127
41441,note_on,1,0,0,,12,,,83,127
41441,note_on,0,0,0,,10,,,57,127
41441,note_on,0,0,0,,1,,,49,127
41545,note_off,104,0,0,,12,,,83,127
41546,note_on,1,0,0,,10,,,81,127
41650,note_off,104,0,0,,10,,,81,127
41651,note_on,1,0,0,,8,,,80,127
41755,note_off,104,0,0,,8,,,80,127
41756,note_on,1,0,0,,6,,,78,127
41860,note_off,104,0,0,,6,,,78,127
41860,note_off,0,0,0,,1,,,49,127
41860,note_off,0,0,0,,10,,,57,127
41861,note_on,1,0,0,,8,,,80,127
41861,note_on,0,0,0,,2,,,50,127
41861,note_on,0,0,0,,10,,,57,127
41965,note_off,104,0,0,,8,,,80,127
41966,note_on,1,0,0,,6,,,78,127
42070,note_off,104,0,0,,6,,,78,127
42071,note_on,1,0,0,,4,,,76,127
42175,note_off,104,0,0,,4,,,76,127
42176,note_on,1,0,0,,2,,,74,127
42280,note_off,104,0,0,,2,,,74,127
42280,note_off,0,0,0,,10,,,57,127
42280,note_off,0,0,0,,2,,,50,127
42281,note_on,1,0,0,,4,,,76,127
42281,note_on,0,0,0,,4,,,52,127
42281,note_on,0,0,0,,4,,,40,127
42385,note_off,104,0,0,,4,,,76,127
42386,note_on,1,0,0,,2,,,74,127
42490,note_off,104,0,0,,2,,,74,127
42491,note_on,1,0,0,,1,,,73,127
42595,note_off,104,0,0,,1,,,73,127
42596,note_on,1,0,0,,12,,,71,127
42700,note_off,104,0,0,,12,,,71,127
42700,note_off,0,0,0,,4,,,40,127
42700,note_off,0,0,0,,4,,,52,127
42701,note_on,1,0,0,,2,,,74,127
42701,note_on,0,0,0,,4,,,52,127
42701,note_on,0,0,0,,10,,,57,127
42701,note_on,0,0,0,,10,,,45,127
42805,note_off,104,0,0,,2,,,74,127
42806,note_on,1,0,0,,1,,,73,127
42910,note_off,104,0,0,,1,,,73,127
42911,note_on,1,0,0,,12,,,71,127
43015,note_off,104,0,0,,12,,,71,127
43016,note_on,1,0,0,,10,,,69,127
43120,note_off,104,0,0,,10,,,69,127
43120,note_off,0,0,0,,10,,,45,127
43120,note_off,0,0,0,,10,,,57,127
43120,note_off,0,0,0,,4,,,52,127
43121,note_on,1,0,0,,12,,,71,127
43121,note_on,0,0,0,,10,,,57,127
43121,note_on,0,0,0,,1,,,49,127
43225,note_off,104,0,0,,12,,,71,127
43226,note_on,1,0,0,,10,,,69,127
43330,note_off,104,0,0,,10,,,69,127
43331,note_on,1,0,0,,8,,,68,127
43435,note_off,104,0,0,,8,,,68,127
43436,note_on,1,0,0,,6,,,66,127
43540,note_off,104,0,0,,6,,,66,127
43540,note_off,0,0,0,,1,,,49,127
43540,note_off,0,0,0,,10,,,57,127
43541,note_on,1,0,0,,8,,,68,127
43541,note_on,0,0,0,,2,,,50,127
43541,note_on,0,0,0,,10,,,57,127
43645,note_off,104,0,0,,8,,,68,127
43646,note_on,1,0,0,,6,,,66,127
43750,note_off,104,0,0,,6,,,66,127
43751,note_on,1,0,0,,4,,,64,127
43855,note_off,104,0,0,,4,,,64,127
43856,note_on,1,0,0,,2,,,62,127
43960,note_off,104,0,0,,2,,,62,127
43960,note_off,0,0,0,,10,,,57,127
43960,note_off,0,0,0,,2,,,50,127
43961,note_on,1,0,0,,4,,,64,127
43961,note_on,0,0,0,,4,,,40,127
43961,note_on,0,0,0,,4,,,52,127
44065,note_off,104,0,0,,4,,,64,127
44066,note_on,1,0,0,,2,,,62,127
44170,note_off,104,0,0,,2,,,62,127
44171,note_on,1,0,0,,1,,,61,127
44275,note_off,104,0,0,,1,,,61,127
44276,note_on,1,0,0,,12,,,59,127
44380,note_off,104,0,0,,12,,,59,127
44380,note_off,0,0,0,,4,,,52,127
44380,note_off,0,0,0,,4,,,40,127
44381,note_on,1,0,0,,10,,,57,127
44381,note_on,0,0,0,,10,,,33,127
44381,note_on,0,0,0,,10,,,45,127
45008,note_off,627,0,0,,10,,,57,127
45217,note_off,209,0,0,,10,,,45,127
45217,note_off,0,0,0,,10,,,33,127
45218,note_on,1,0,0,,4,,,64,127
45218,note_on,0,0,0,,1,,,61,127
45218,note_on,0,0,0,,10,,,57,127
45427,note_on,209,0,0,,4,,,76,127
45531,note_off,104,0,0,,4,,,76,127
45532,note_on,1,0,0,,4,,,76,127
45636,note_off,104,0,0,,4,,,76,127
45637,note_on,1,0,0,,4,,,76,127
45845,note_off,208,0,0,,4,,,76,127
45846,note_on,1,0,0,,4,,,76,127
46054,note_off,208,0,0,,4,,,76,127
46054,note_off,0,0,0,,10,,,57,127
46054,note_off,0,0,0,,1,,,61,127
46054,note_off,0,0,0,,4,,,64,127
46055,note_on,1,0,0,,4,,,76,127
46055,note_on,0,0,0,,4,,,64,127
46055,note_on,0,0,0,,2,,,62,127
46055,note_on,0,0,0,,8,,,56,127
46263,note_off,208,0,0,,4,,,76,127
46264,note_on,1,0,0,,4,,,76,127
46368,note_off,104,0,0,,4,,,76,127
46369,note_on,1,0,0,,4,,,76,127
46473,note_off,104,0,0,,4,,,76,127
46474,note_on,1,0,0,,4,,,76,127
46682,note_off,208,0,0,,4,,,76,127
46683,note_on,1,0,0,,4,,,76,127
46891,note_off,208,0,0,,4,,,76,127
46891,note_off,0,0,0,,8,,,56,127
46891,note_off,0,0,0,,2,,,62,127
46891,note_off,0,0,0,,4,,,64,127
46892,note_on,1,0,0,,4,,,76,127
46892,note_on,0,0,0,,10,,,57,127
46892,note_on,0,0,0,,1,,,61,127
46892,note_on,0,0,0,,4,,,64,127
47100,note_off,208,0,0,,4,,,76,127
47101,note_on,1,0,0,,4,,,76,127
47205,note_off,104,0,0,,4,,,76,127
47206,note_on,1,0,0,,4,,,76,127
47310,note_off,104,0,0,,4,,,76,127
47311,note_on,1,0,0,,4,,,76,127
47519,note_off,208,0,0,,4,,,76,127
47520,note_on,1,0,0,,4,,,76,127
47728,note_off,208,0,0,,4,,,76,127
47728,note_off,0,0,0,,4,,,64,127
47728,note_off,0,0,0,,1,,,61,127
47728,note_off,0,0,0,,10,,,57,127
47729,note_on,1,0,0,,4,,,76,127
47729,note_on,0,0,0,,4,,,64,127
47729,note_on,0,0,0,,1,,,61,127
47729,note_on,0,0,0,,8,,,56,127
47937,note_off,208,0,0,,4,,,76,127
47938,note_on,1,0,0,,4,,,76,127
48042,note_off,104,0,0,,4,,,76,127
48043,note_on,1,0,0,,4,,,76,127
48147,note_off,104,0,0,,4,,,76,127
48148,note_on,1,0,0,,4,,,76,127
48356,note_off,208,0,0,,4,,,76,127
48357,note_on,1,0,0,,4,,,76,127
48565,note_off,208,0,0,,4,,,76,127
48565,note_off,0,0,0,,8,,,56,127
48565,note_off,0,0,0,,1,,,61,127
48565,note_off,0,0,0,,4,,,64,127
48566,note_on,1,0,0,,3,,,75,127
48566,note_on,0,0,0,,4,,,76,127
48566,note_on,0,0,0,,3,,,63,127
48566,note_on,0,0,0,,1,,,61,127
48566,note_on,0,0,0,,6,,,54,127
48723,note_off,157,0,0,,4,,,76,127
48774,note_off,51,0,0,,3,,,75,127
48775,note_on,1,0,0,,1,,,73,127
48983,note_off,208,0,0,,1,,,73,127
48984,note_on,1,0,0,,3,,,75,127
49192,note_off,208,0,0,,3,,,75,127
49193,note_on,1,0,0,,6,,,78,127
49401,note_off,208,0,0,,6,,,78,127
49401,note_off,0,0,0,,6,,,54,127
49401,note_off,0,0,0,,1,,,61,127
49401,note_off,0,0,0,,3,,,63,127
49402,note_on,1,0,0,,10,,,81,127
49402,note_on,0,0,0,,0,,,60,127
49402,note_on,0,0,0,,6,,,54,127
49402,note_on,0,0,0,,3,,,63,127
49402,note_on,0,0,0,,8,,,56,127
49610,note_off,208,0,0,,10,,,81,127
49611,note_on,1,0,0,,8,,,80,127
49715,note_off,104,0,0,,8,,,80,127
49716,note_on,1,0,0,,6,,,78,127
49820,note_off,104,0,0,,6,,,78,127
49821,note_on,1,0,0,,4,,,76,127
49925,note_off,104,0,0,,4,,,76,127
49926,note_on,1,0,0,,3,,,75,127
50030,note_off,104,0,0,,3,,,75,127
50031,note_on,1,0,0,,1,,,73,127
50135,note_off,104,0,0,,1,,,73,127
50136,note_on,1,0,0,,0,,,72,127
50240,note_off,104,0,0,,0,,,72,127
50240,note_off,0,0,0,,8,,,56,127
50240,note_off,0,0,0,,3,,,63,127
50240,note_off,0,0,0,,6,,,54,127
50240,note_off,0,0,0,,0,,,60,127
50241,note_on,1,0,0,,1,,,73,127
50241,note_on,0,0,0,,8,,,56,127
50241,note_on,0,0,0,,1,,,61,127
50241,note_on,0,0,0,,4,,,52,127
50449,note_off,208,0,0,,1,,,73,127
50450,note_on,1,0,0,,4,,,76,127
50554,note_off,104,0,0,,4,,,76,127
50555,note_on,1,0,0,,4,,,76,127
50659,note_off,104,0,0,,4,,,76,127
50660,note_on,1,0,0,,4,,,76,127
50868,note_off,208,0,0,,4,,,76,127
50869,note_on,1,0,0,,4,,,76,127
51077,note_off,208,0,0,,4,,,76,127
51077,note_off,0,0,0,,4,,,52,127
51077,note_off,0,0,0,,1,,,61,127
51077,note_off,0,0,0,,8,,,56,127
51078,note_on,1,0,0,,4,,,76,127
51078,note_on,0,0,0,,4,,,64,127
51078,note_on,0,0,0,,4,,,52,127
51286,note_off,208,0,0,,4,,,64,127
51286,note_off,0,0,0,,4,,,76,127
51287,note_on,1,0,0,,4,,,76,127
51287,note_on,0,0,0,,2,,,62,127
51391,note_off,104,0,0,,4,,,76,127
51392,note_on,1,0,0,,4,,,76,127
51496,note_off,104,0,0,,4,,,76,127
51496,note_off,0,0,0,,2,,,62,127
51497,note_on,1,0,0,,4,,,76,127
51497,note_on,0,0,0,,1,,,61,127
51705,note_off,208,0,0,,1,,,61,127
51705,note_off,0,0,0,,4,,,76,127
51706,note_on,1,0,0,,4,,,76,127
51706,note_on,0,0,0,,12,,,59,127
51914,note_off,208,0,0,,12,,,59,127
51914,note_off,0,0,0,,4,,,76,127
51914,note_off,0,0,0,,4,,,52,127
51915,note_on,1,0,0,,4,,,76,127
51915,note_on,0,0,0,,1,,,61,127
51915,note_on,0,0,0,,11,,,58,127
51915,note_on,0,0,0,,4,,,52,127
51915,note_on,0,0,0,,6,,,54,127
52123,note_off,208,0,0,,4,,,76,127
52124,note_on,1,0,0,,11,,,70,127
52332,note_off,208,0,0,,11,,,70,127
52333,note_on,1,0,0,,1,,,73,127
52541,note_off,208,0,0,,1,,,73,127
52542,note_on,1,0,0,,4,,,76,127
52750,note_off,208,0,0,,4,,,76,127
52750,note_off,0,0,0,,6,,,54,127
52750,note_off,0,0,0,,4,,,52,127
52750,note_off,0,0,0,,11,,,58,127
52750,note_off,0,0,0,,1,,,61,127
52751,note_on,1,0,0,,7,,,79,127
52751,note_on,0,0,0,,6,,,54,127
52751,note_on,0,0,0,,11,,,58,127
52751,note_on,0,0,0,,1,,,61,127
52751,note_on,0,0,0,,4,,,52,127
52959,note_off,208,0,0,,7,,,79,127
52960,note_on,1,0,0,,6,,,78,127
53064,note_off,104,0,0,,6,,,78,127
53065,note_on,1,0,0,,4,,,76,127
53169,note_off,104,0,0,,4,,,76,127
53170,note_on,1,0,0,,2,,,74,127
53274,note_off,104,0,0,,2,,,74,127
53275,note_on,1,0,0,,1,,,73,127
53379,note_off,104,0,0,,1,,,73,127
53380,note_on,1,0,0,,12,,,71,127
53484,note_off,104,0,0,,12,,,71,127
53485,note_on,1,0,0,,11,,,70,127
53589,note_off,104,0,0,,11,,,70,127
53589,note_off,0,0,0,,4,,,52,127
53589,note_off,0,0,0,,1,,,61,127
53589,note_off,0,0,0,,11,,,58,127
53589,note_off,0,0,0,,6,,,54,127
53590,note_on,1,0,0,,12,,,71,127
53590,note_on,0,0,0,,2,,,50,127
53590,note_on,0,0,0,,12,,,59,127
53590,note_on,0,0,0,,6,,,54,127
53798,note_off,208,0,0,,12,,,71,127
53799,note_on,1,0,0,,2,,,74,127
53903,note_off,104,0,0,,2,,,74,127
53904,note_on,1,0,0,,2,,,74,127
54008,note_off,104,0,0,,2,,,74,127
54009,note_on,1,0,0,,2,,,74,127
54217,note_off,208,0,0,,2,,,74,127
54218,note_on,1,0,0,,2,,,74,127
54426,note_off,208,0,0,,2,,,74,127
54426,note_off,0,0,0,,6,,,54,127
54426,note_off,0,0,0,,12,,,59,127
54426,note_off,0,0,0,,2,,,50,127
54427,note_on,1,0,0,,2,,,74,127
54427,note_on,0,0,0,,2,,,50,127
54427,note_on,0,0,0,,2,,,62,127
54635,note_off,208,0,0,,2,,,62,127
54635,note_off,0,0,0,,2,,,74,127
54636,note_on,1,0,0,,2,,,74,127
54636,note_on,0,0,0,,1,,,61,127
54740,note_off,104,0,0,,2,,,74,127
54741,note_on,1,0,0,,2,,,74,127
54845,note_off,104,0,0,,2,,,74,127
54845,note_off,0,0,0,,1,,,61,127
54846,note_on,1,0,0,,2,,,74,127
54846,note_on,0,0,0,,12,,,59,127
55054,note_off,208,0,0,,12,,,59,127
55054,note_off,0,0,0,,2,,,74,127
55055,note_on,1,0,0,,2,,,74,127
55055,note_on,0,0,0,,10,,,57,127
55263,note_off,208,0,0,,10,,,57,127
55263,note_off,0,0,0,,2,,,74,127
55263,note_off,0,0,0,,2,,,50,127
55264,note_on,1,0,0,,2,,,74,127
55264,note_on,0,0,0,,8,,,56,127
55264,note_on,0,0,0,,12,,,59,127
55264,note_on,0,0,0,,2,,,50,127
55264,note_on,0,0,0,,4,,,52,127
55472,note_off,208,0,0,,2,,,74,127
55473,note_on,1,0,0,,8,,,68,127
55681,note_off,208,0,0,,8,,,68,127
55682,note_on,1,0,0,,12,,,71,127
55890,note_off,208,0,0,,12,,,71,127
55891,note_on,1,0,0,,2,,,74,127
56099,note_off,208,0,0,,2,,,74,127
56099,note_off,0,0,0,,4,,,52,127
56099,note_off,0,0,0,,2,,,50,127
56099,note_off,0,0,0,,12,,,59,127
56099,note_off,0,0,0,,8,,,56,127
56100,note_on,1,0,0,,6,,,78,127
56100,note_on,0,0,0,,4,,,52,127
56100,note_on,0,0,0,,8,,,56,127
56100,note_on,0,0,0,,12,,,59,127
56100,note_on,0,0,0,,2,,,50,127
56308,note_off,208,0,0,,6,,,78,127
56309,note_on,1,0,0,,4,,,76,127
56413,note_off,104,0,0,,4,,,76,127
56414,note_on,1,0,0,,2,,,74,127
56518,note_off,104,0,0,,2,,,74,127
56519,note_on,1,0,0,,1,,,73,127
56623,note_off,104,0,0,,1,,,73,127
56624,note_on,1,0,0,,12,,,71,127
56728,note_off,104,0,0,,12,,,71,127
56729,note_on,1,0,0,,10,,,69,127
56833,note_off,104,0,0,,10,,,69,127
56834,note_on,1,0,0,,8,,,68,127
56938,note_off,104,0,0,,8,,,68,127
56938,note_off,0,0,0,,2,,,50,127
56938,note_off,0,0,0,,12,,,59,127
56938,note_off,0,0,0,,8,,,56,127
56938,note_off,0,0,0,,4,,,52,127
56939,note_on,1,0,0,,10,,,69,127
56939,note_on,0,0,0,,10,,,57,127
56939,note_on,0,0,0,,1,,,49,127
56939,note_on,0,0,0,,4,,,52,127
57147,note_off,208,0,0,,10,,,69,127
57148,note_on,1,0,0,,10,,,81,127
57252,note_off,104,0,0,,10,,,81,127
57253,note_on,1,0,0,,10,,,81,127
57357,note_off,104,0,0,,10,,,81,127
57358,note_on,1,0,0,,10,,,81,127
57566,note_off,208,0,0,,10,,,81,127
57567,note_on,1,0,0,,10,,,81,127
57775,note_off,208,0,0,,10,,,81,127
57775,note_off,0,0,0,,4,,,52,127
57775,note_off,0,0,0,,1,,,49,127
57775,note_off,0,0,0,,10,,,57,127
57776,note_on,1,0,0,,10,,,81,127
57776,note_on,0,0,0,,12,,,59,127
57776,note_on,0,0,0,,10,,,57,127
57776,note_on,0,0,0,,2,,,50,127
57984,note_off,208,0,0,,10,,,81,127
57985,note_on,1,0,0,,8,,,80,127
58089,note_off,104,0,0,,8,,,80,127
58090,note_on,1,0,0,,6,,,78,127
58194,note_off,104,0,0,,6,,,78,127
58194,note_off,0,0,0,,2,,,50,127
58194,note_off,0,0,0,,10,,,57,127
58194,note_off,0,0,0,,12,,,59,127
58195,note_on,1,0,0,,6,,,78,127
58195,note_on,0,0,0,,8,,,56,127
58195,note_on,0,0,0,,12,,,59,127
58195,note_on,0,0,0,,4,,,52,127
58403,note_off,208,0,0,,6,,,78,127
58404,note_on,1,0,0,,4,,,76,127
58508,note_off,104,0,0,,4,,,76,127
58509,note_on,1,0,0,,2,,,74,127
58605,note_off,96,0,0,,2,,,74,127
58613,note_off,8,0,0,,4,,,52,127
58613,note_off,0,0,0,,12,,,59,127
58613,note_off,0,0,0,,8,,,56,127
58614,note_on,1,0,0,,2,,,86,127
58614,note_on,0,0,0,,10,,,57,127
58614,note_on,0,0,0,,4,,,52,127
58614,note_on,0,0,0,,10,,,45,127
58718,note_off,104,0,0,,2,,,86,127
58719,note_on,1,0,0,,1,,,85,127
58823,note_off,104,0,0,,1,,,85,127
58824,note_on,1,0,0,,12,,,83,127
58928,note_off,104,0,0,,12,,,83,127
58929,note_on,1,0,0,,10,,,81,127
59033,note_off,104,0,0,,10,,,81,127
59033,note_off,0,0,0,,10,,,45,127
59033,note_off,0,0,0,,4,,,52,127
59033,note_off,0,0,0,,10,,,57,127
59034,note_on,1,0,0,,12,,,83,127
59034,note_on,0,0,0,,10,,,57,127
59034,note_on,0,0,0,,1,,,49,127
59138,note_off,104,0,0,,12,,,83,127
59139,note_on,1,0,0,,10,,,81,127
59243,note_off,104,0,0,,10,,,81,127
59244,note_on,1,0,0,,8,,,80,127
59348,note_off,104,0,0,,8,,,80,127
59349,note_on,1,0,0,,6,,,78,127
59453,note_off,104,0,0,,6,,,78,127
59453,note_off,0,0,0,,1,,,49,127
59453,note_off,0,0,0,,10,,,57,127
59454,note_on,1,0,0,,8,,,80,127
59454,note_on,0,0,0,,10,,,57,127
59454,note_on,0,0,0,,2,,,50,127
59558,note_off,104,0,0,,8,,,80,127
59559,note_on,1,0,0,,6,,,78,127
59663,note_off,104,0,0,,6,,,78,127
59664,note_on,1,0,0,,4,,,76,127
59768,note_off,104,0,0,,4,,,76,127
59769,note_on,1,0,0,,2,,,74,127
59873,note_off,104,0,0,,2,,,74,127
59873,note_off,0,0,0,,2,,,50,127
59873,note_off,0,0,0,,10,,,57,127
59874,note_on,1,0,0,,4,,,76,127
59874,note_on,0,0,0,,4,,,52,127
59874,note_on,0,0,0,,4,,,40,127
59978,note_off,104,0,0,,4,,,76,127
59979,note_on,1,0,0,,2,,,74,127
60083,note_off,104,0,0,,2,,,74,127
60084,note_on,1,0,0,,1,,,73,127
60188,note_off,104,0,0,,1,,,73,127
60189,note_on,1,0,0,,12,,,71,127
60285,note_off,96,0,0,,12,,,71,127
60293,note_off,8,0,0,,4,,,40,127
60293,note_off,0,0,0,,4,,,52,127
60294,note_on,1,0,0,,10,,,81,127
60294,note_on,0,0,0,,10,,,45,127
60502,note_off,208,0,0,,10,,,45,127
60502,note_off,0,0,0,,10,,,81,127
60503,note_on,1,0,0,,1,,,73,127
60503,note_on,0,0,0,,4,,,64,127
60607,note_off,104,0,0,,4,,,64,127
60607,note_off,0,0,0,,1,,,73,127
60608,note_on,1,0,0,,4,,,76,127
60608,note_on,0,0,0,,7,,,67,127
60712,note_off,104,0,0,,7,,,67,127
60712,note_off,0,0,0,,4,,,76,127
60713,note_on,1,0,0,,2,,,74,127
60713,note_on,0,0,0,,6,,,66,127
60921,note_off,208,0,0,,6,,,66,127
60921,note_off,0,0,0,,2,,,74,127
60922,note_on,1,0,0,,12,,,71,127
60922,note_on,0,0,0,,8,,,68,127
61130,note_off,208,0,0,,8,,,68,127
61130,note_off,0,0,0,,12,,,71,127
61131,note_on,1,0,0,,10,,,81,127
61131,note_on,0,0,0,,10,,,45,127
61339,note_off,208,0,0,,10,,,45,127
61339,note_off,0,0,0,,10,,,81,127
61340,note_on,1,0,0,,1,,,73,127
61340,note_on,0,0,0,,4,,,64,127
61444,note_off,104,0,0,,4,,,64,127
61444,note_off,0,0,0,,1,,,73,127
61445,note_on,1,0,0,,4,,,76,127
61445,note_on,0,0,0,,7,,,67,127
61549,note_off,104,0,0,,7,,,67,127
61549,note_off,0,0,0,,4,,,76,127
61550,note_on,1,0,0,,2,,,74,127
61550,note_on,0,0,0,,6,,,66,127
61758,note_off,208,0,0,,6,,,66,127
61758,note_off,0,0,0,,2,,,74,127
61759,note_on,1,0,0,,12,,,71,127
61759,note_on,0,0,0,,8,,,68,127
61967,note_off,208,0,0,,8,,,68,127
61967,note_off,0,0,0,,12,,,71,127
61968,note_on,1,0,0,,10,,,81,127
61968,note_on,0,0,0,,10,,,45,127
62176,note_off,208,0,0,,10,,,45,127
62176,note_off,0,0,0,,10,,,81,127
62177,note_on,1,0,0,,1,,,73,127
62177,note_on,0,0,0,,4,,,64,127
62281,note_off,104,0,0,,4,,,64,127
62281,note_off,0,0,0,,1,,,73,127
62282,note_on,1,0,0,,4,,,76,127
62282,note_on,0,0,0,,7,,,67,127
62386,note_off,104,0,0,,7,,,67,127
62386,note_off,0,0,0,,4,,,76,127
62387,note_on,1,0,0,,2,,,74,127
62387,note_on,0,0,0,,6,,,66,127
62595,note_off,208,0,0,,6,,,66,127
62595,note_off,0,0,0,,2,,,74,127
62596,note_on,1,0,0,,12,,,71,127
62596,note_on,0,0,0,,7,,,67,127
62804,note_off,208,0,0,,7,,,67,127
62804,note_off,0,0,0,,12,,,71,127
62805,note_on,1,0,0,,12,,,83,127
62805,note_on,0,0,0,,7,,,55,127
62909,note_off,104,0,0,,7,,,55,127
62910,note_on,1,0,0,,4,,,64,127
63014,note_off,104,0,0,,4,,,64,127
63014,note_off,0,0,0,,12,,,83,127
63015,note_on,1,0,0,,10,,,81,127
63015,note_on,0,0,0,,6,,,54,127
63119,note_off,104,0,0,,6,,,54,127
63120,note_on,1,0,0,,2,,,62,127
63224,note_off,104,0,0,,2,,,62,127
63224,note_off,0,0,0,,10,,,81,127
63225,note_on,1,0,0,,7,,,79,127
63225,note_on,0,0,0,,4,,,52,127
63329,note_off,104,0,0,,4,,,52,127
63330,note_on,1,0,0,,1,,,61,127
63434,note_off,104,0,0,,1,,,61,127
63434,note_off,0,0,0,,7,,,79,127
63435,note_on,1,0,0,,6,,,78,127
63435,note_on,0,0,0,,2,,,50,127
63539,note_off,104,0,0,,2,,,50,127
63540,note_on,1,0,0,,12,,,59,127
63644,note_off,104,0,0,,12,,,59,127
63644,note_off,0,0,0,,6,,,78,127
63645,note_on,1,0,0,,4,,,76,127
63645,note_on,0,0,0,,1,,,49,127
63749,note_off,104,0,0,,1,,,49,127
63750,note_on,1,0,0,,10,,,57,127
63854,note_off,104,0,0,,10,,,57,127
63854,note_off,0,0,0,,4,,,76,127
63855,note_on,1,0,0,,2,,,74,127
63855,note_on,0,0,0,,12,,,47,127
63959,note_off,104,0,0,,12,,,47,127
63960,note_on,1,0,0,,7,,,55,127
64064,note_off,104,0,0,,7,,,55,127
64064,note_off,0,0,0,,2,,,74,127
64065,note_on,1,0,0,,1,,,73,127
64065,note_on,0,0,0,,10,,,45,127
64169,note_off,104,0,0,,10,,,45,127
64170,note_on,1,0,0,,6,,,54,127
64274,note_off,104,0,0,,6,,,54,127
64274,note_off,0,0,0,,1,,,73,127
64275,note_on,1,0,0,,12,,,71,127
64275,note_on,0,0,0,,7,,,43,127
64379,note_off,104,0,0,,7,,,43,127
64380,note_on,1,0,0,,4,,,52,127
64484,note_off,104,0,0,,4,,,52,127
64484,note_off,0,0,0,,12,,,71,127
64485,note_on,1,0,0,,10,,,69,127
64485,note_on,0,0,0,,6,,,42,127
64589,note_off,104,0,0,,6,,,42,127
64590,note_on,1,0,0,,2,,,50,127
64694,note_off,104,0,0,,2,,,50,127
64694,note_off,0,0,0,,10,,,69,127
64695,note_on,1,0,0,,7,,,67,127
64695,note_on,0,0,0,,4,,,40,127
64799,note_off,104,0,0,,4,,,40,127
64800,note_on,1,0,0,,1,,,49,127
64904,note_off,104,0,0,,1,,,49,127
64904,note_off,0,0,0,,7,,,67,127
64905,note_on,1,0,0,,7,,,67,127
64905,note_on,0,0,0,,2,,,38,127
65009,note_off,104,0,0,,7,,,67,127
65010,note_on,1,0,0,,6,,,66,127
65114,note_off,104,0,0,,6,,,66,127
65114,note_off,0,0,0,,2,,,38,127
65115,note_on,1,0,0,,4,,,64,127
65115,note_on,0,0,0,,2,,,50,127
65219,note_off,104,0,0,,4,,,64,127
65220,note_on,1,0,0,,2,,,62,127
65324,note_off,104,0,0,,2,,,62,127
65324,note_off,0,0,0,,2,,,50,127
65325,note_on,1,0,0,,4,,,64,127
65325,note_on,0,0,0,,10,,,57,127
65325,note_on,0,0,0,,10,,,45,127
65533,note_off,208,0,0,,4,,,64,127
65534,note_on,1,0,0,,1,,,61,127
65534,note_on,0,0,0,,4,,,64,127
65638,note_off,104,0,0,,4,,,64,127
65639,note_on,1,0,0,,7,,,67,127
65742,note_off,103,0,0,,1,,,61,127
65743,note_off,1,0,0,,7,,,67,127
65744,note_on,1,0,0,,6,,,66,127
65744,note_on,0,0,0,,2,,,62,127
65952,note_off,208,0,0,,10,,,45,127
65952,note_off,0,0,0,,10,,,57,127
65953,note_on,1,0,0,,8,,,56,127
65953,note_on,0,0,0,,10,,,45,127
66161,note_off,208,0,0,,10,,,45,127
66161,note_off,0,0,0,,8,,,56,127
66162,note_on,1,0,0,,10,,,57,127
66162,note_on,0,0,0,,10,,,45,127
66332,note_off,170,0,0,,2,,,62,127
66332,note_off,0,0,0,,6,,,66,127
66371,note_on,39,0,0,,1,,,61,127
66371,note_on,0,0,0,,4,,,64,127
66475,note_off,104,0,0,,4,,,64,127
66476,note_on,1,0,0,,7,,,67,127
66579,note_off,103,0,0,,1,,,61,127
66580,note_off,1,0,0,,7,,,67,127
66581,note_on,1,0,0,,2,,,62,127
66581,note_on,0,0,0,,6,,,66,127
66789,note_off,208,0,0,,10,,,45,127
66789,note_off,0,0,0,,10,,,57,127
66790,note_on,1,0,0,,8,,,56,127
66790,note_on,0,0,0,,10,,,45,127
66998,note_off,208,0,0,,10,,,45,127
66998,note_off,0,0,0,,8,,,56,127
66999,note_on,1,0,0,,10,,,57,127
66999,note_on,0,0,0,,10,,,45,127
67207,note_off,208,0,0,,6,,,66,127
67207,note_off,0,0,0,,2,,,62,127
67208,note_on,1,0,0,,4,,,64,127
67312,note_off,104,0,0,,4,,,64,127
67313,note_on,1,0,0,,2,,,62,127
67417,note_off,104,0,0,,2,,,62,127
67417,note_off,0,0,0,,10,,,45,127
67417,note_off,0,0,0,,10,,,57,127
67418,note_on,1,0,0,,1,,,61,127
67418,note_on,0,0,0,,6,,,66,127
67418,note_on,0,0,0,,10,,,33,127
67469,note_off,51,0,0,,6,,,66,127
67470,note_on,1,0,0,,4,,,64,127
67521,note_off,51,0,0,,4,,,64,127
67522,note_on,1,0,0,,6,,,66,127
67573,note_off,51,0,0,,6,,,66,127
67574,note_on,1,0,0,,4,,,64,127
67625,note_off,51,0,0,,4,,,64,127
67626,note_on,1,0,0,,6,,,66,127
67677,note_off,51,0,0,,6,,,66,127
67678,note_on,1,0,0,,4,,,64,127
67748,note_off,70,0,0,,4,,,64,127
67831,note_off,83,0,0,,1,,,61,127
67834,note_off,3,0,0,,10,,,33,127
67835,note_on,1,0,0,,2,,,50,127
67835,note_on,0,0,0,,2,,,38,127
68044,note_on,209,0,0,,2,,,62,127
68148,note_off,104,0,0,,2,,,62,127
68149,note_on,1,0,0,,5,,,65,127
68253,note_off,104,0,0,,5,,,65,127
68254,note_on,1,0,0,,10,,,69,127
68462,note_off,208,0,0,,10,,,69,127
68463,note_on,1,0,0,,8,,,68,127
68463,note_on,0,0,0,,2,,,74,127
68671,note_off,208,0,0,,8,,,68,127
68671,note_off,0,0,0,,2,,,38,127
68671,note_off,0,0,0,,2,,,50,127
68672,note_on,1,0,0,,10,,,69,127
68672,note_on,0,0,0,,10,,,57,127
68672,note_on,0,0,0,,10,,,45,127
68877,note_off,205,0,0,,2,,,74,127
68881,note_on,4,0,0,,4,,,76,127
69089,note_off,208,0,0,,4,,,76,127
69090,note_on,1,0,0,,0,,,72,127
69298,note_off,208,0,0,,0,,,72,127
69298,note_off,0,0,0,,10,,,69,127
69299,note_on,1,0,0,,10,,,69,127
69506,note_off,207,0,0,,10,,,69,127
69507,note_off,1,0,0,,10,,,45,127
69507,note_off,0,0,0,,10,,,57,127
69508,note_on,1,0,0,,7,,,55,127
69508,note_on,0,0,0,,7,,,43,127
69717,note_on,209,0,0,,11,,,70,127
69821,note_off,104,0,0,,11,,,70,127
69822,note_on,1,0,0,,2,,,74,127
69926,note_off,104,0,0,,2,,,74,127
69927,note_on,1,0,0,,7,,,79,127
70135,note_off,208,0,0,,7,,,79,127
70136,note_on,1,0,0,,1,,,73,127
70136,note_on,0,0,0,,11,,,82,127
70344,note_off,208,0,0,,1,,,73,127
70344,note_off,0,0,0,,7,,,43,127
70344,note_off,0,0,0,,7,,,55,127
70345,note_on,1,0,0,,2,,,74,127
70345,note_on,0,0,0,,5,,,53,127
70345,note_on,0,0,0,,5,,,41,127
70550,note_off,205,0,0,,11,,,82,127
70554,note_on,4,0,0,,10,,,81,127
70762,note_off,208,0,0,,10,,,81,127
70763,note_on,1,0,0,,5,,,77,127
70971,note_off,208,0,0,,5,,,77,127
70971,note_off,0,0,0,,2,,,74,127
70972,note_on,1,0,0,,2,,,74,127
71179,note_off,207,0,0,,2,,,74,127
71180,note_off,1,0,0,,5,,,41,127
71180,note_off,0,0,0,,5,,,53,127
71181,note_on,1,0,0,,11,,,34,127
71181,note_on,0,0,0,,11,,,46,127
71390,note_on,209,0,0,,2,,,74,127
71494,note_off,104,0,0,,2,,,74,127
71495,note_on,1,0,0,,7,,,79,127
71599,note_off,104,0,0,,7,,,79,127
71600,note_on,1,0,0,,11,,,82,127
71808,note_off,208,0,0,,11,,,82,127
71809,note_on,1,0,0,,2,,,86,127
72017,note_off,208,0,0,,2,,,86,127
72017,note_off,0,0,0,,11,,,46,127
72017,note_off,0,0,0,,11,,,34,127
72018,note_on,1,0,0,,7,,,79,127
72018,note_on,0,0,0,,1,,,85,127
72018,note_on,0,0,0,,10,,,33,127
72018,note_on,0,0,0,,10,,,45,127
72226,note_off,208,0,0,,7,,,79,127
72227,note_on,1,0,0,,4,,,76,127
72432,note_off,205,0,0,,1,,,85,127
72435,note_off,3,0,0,,4,,,76,127
72435,note_off,0,0,0,,10,,,45,127
72435,note_off,0,0,0,,10,,,33,127
72436,note_on,1,0,0,,2,,,86,127
72436,note_on,0,0,0,,5,,,77,127
72436,note_on,0,0,0,,2,,,50,127
72436,note_on,0,0,0,,2,,,38,127
72644,note_off,208,0,0,,5,,,77,127
72645,note_on,1,0,0,,10,,,81,127
72850,note_off,205,0,0,,2,,,86,127
72853,note_off,3,0,0,,10,,,81,127
72853,note_off,0,0,0,,2,,,38,127
72853,note_off,0,0,0,,2,,,50,127
72854,note_on,1,0,0,,4,,,76,127
72854,note_on,0,0,0,,7,,,55,127
72854,note_on,0,0,0,,7,,,43,127
73062,note_off,208,0,0,,4,,,76,127
73063,note_on,1,0,0,,5,,,77,127
73167,note_off,104,0,0,,5,,,77,127
73168,note_on,1,0,0,,7,,,79,127
73272,note_off,104,0,0,,7,,,79,127
73272,note_off,0,0,0,,7,,,43,127
73272,note_off,0,0,0,,7,,,55,127
73273,note_on,1,0,0,,2,,,74,127
73273,note_on,0,0,0,,5,,,77,127
73273,note_on,0,0,0,,10,,,45,127
73273,note_on,0,0,0,,10,,,57,127
73481,note_off,208,0,0,,5,,,77,127
73481,note_off,0,0,0,,2,,,74,127
73482,note_on,1,0,0,,1,,,73,127
73482,note_on,0,0,0,,4,,,76,127
73685,note_off,203,0,0,,4,,,76,127
73685,note_off,0,0,0,,1,,,73,127
73690,note_off,5,0,0,,10,,,57,127
73690,note_off,0,0,0,,10,,,45,127
73691,note_on,1,0,0,,2,,,50,127
73691,note_on,0,0,0,,2,,,38,127
73900,note_on,209,0,0,,2,,,62,127
74004,note_off,104,0,0,,2,,,62,127
74005,note_on,1,0,0,,5,,,65,127
74109,note_off,104,0,0,,5,,,65,127
74110,note_on,1,0,0,,10,,,69,127
74318,note_off,208,0,0,,10,,,69,127
74319,note_on,1,0,0,,2,,,74,127
74319,note_on,0,0,0,,8,,,68,127
74527,note_off,208,0,0,,8,,,68,127
74527,note_off,0,0,0,,2,,,74,127
74527,note_off,0,0,0,,2,,,38,127
74527,note_off,0,0,0,,2,,,50,127
74528,note_on,1,0,0,,5,,,77,127
74528,note_on,0,0,0,,10,,,69,127
74528,note_on,0,0,0,,10,,,57,127
74528,note_on,0,0,0,,10,,,45,127
74735,note_off,207,0,0,,5,,,77,127
74737,note_on,2,0,0,,4,,,76,127
74841,note_off,104,0,0,,4,,,76,127
74842,note_on,1,0,0,,2,,,74,127
74946,note_off,104,0,0,,2,,,74,127
74947,note_on,1,0,0,,2,,,74,127
75155,note_off,208,0,0,,2,,,74,127
75156,note_on,1,0,0,,0,,,72,127
75363,note_off,207,0,0,,0,,,72,127
75364,note_off,1,0,0,,10,,,45,127
75364,note_off,0,0,0,,10,,,57,127
75364,note_off,0,0,0,,10,,,69,127
75365,note_on,1,0,0,,7,,,43,127
75365,note_on,0,0,0,,7,,,55,127
75574,note_on,209,0,0,,11,,,70,127
75678,note_off,104,0,0,,11,,,70,127
75679,note_on,1,0,0,,2,,,74,127
75783,note_off,104,0,0,,2,,,74,127
75784,note_on,1,0,0,,7,,,79,127
75992,note_off,208,0,0,,7,,,79,127
75993,note_on,1,0,0,,1,,,73,127
75993,note_on,0,0,0,,11,,,82,127
76201,note_off,208,0,0,,1,,,73,127
76201,note_off,0,0,0,,7,,,55,127
76201,note_off,0,0,0,,7,,,43,127
76202,note_on,1,0,0,,2,,,74,127
76202,note_on,0,0,0,,5,,,53,127
76202,note_on,0,0,0,,5,,,41,127
76407,note_off,205,0,0,,11,,,82,127
76411,note_on,4,0,0,,10,,,81,127
76515,note_off,104,0,0,,10,,,81,127
76516,note_on,1,0,0,,7,,,79,127
76620,note_off,104,0,0,,7,,,79,127
76621,note_on,1,0,0,,7,,,79,127
76829,note_off,208,0,0,,7,,,79,127
76830,note_on,1,0,0,,5,,,77,127
77037,note_off,207,0,0,,5,,,77,127
77038,note_off,1,0,0,,5,,,41,127
77038,note_off,0,0,0,,5,,,53,127
77038,note_off,0,0,0,,2,,,74,127
77039,note_on,1,0,0,,11,,,34,127
77039,note_on,0,0,0,,11,,,46,127
77248,note_on,209,0,0,,2,,,74,127
77352,note_off,104,0,0,,2,,,74,127
77353,note_on,1,0,0,,7,,,79,127
77457,note_off,104,0,0,,7,,,79,127
77458,note_on,1,0,0,,11,,,82,127
77666,note_off,208,0,0,,11,,,82,127
77667,note_on,1,0,0,,2,,,86,127
77875,note_off,208,0,0,,2,,,86,127
77875,note_off,0,0,0,,11,,,46,127
77875,note_off,0,0,0,,11,,,34,127
77876,note_on,1,0,0,,1,,,85,127
77876,note_on,0,0,0,,7,,,79,127
77876,note_on,0,0,0,,10,,,33,127
77876,note_on,0,0,0,,10,,,45,127
78084,note_off,208,0,0,,7,,,79,127
78085,note_on,1,0,0,,4,,,76,127
78290,note_off,205,0,0,,1,,,85,127
78293,note_off,3,0,0,,4,,,76,127
78293,note_off,0,0,0,,10,,,45,127
78293,note_off,0,0,0,,10,,,33,127
78294,note_on,1,0,0,,2,,,86,127
78294,note_on,0,0,0,,5,,,77,127
78294,note_on,0,0,0,,2,,,38,127
78294,note_on,0,0,0,,2,,,50,127
78502,note_off,208,0,0,,5,,,77,127
78503,note_on,1,0,0,,10,,,81,127
78708,note_off,205,0,0,,2,,,86,127
78711,note_off,3,0,0,,10,,,81,127
78711,note_off,0,0,0,,2,,,50,127
78711,note_off,0,0,0,,2,,,38,127
78712,note_on,1,0,0,,4,,,76,127
78712,note_on,0,0,0,,7,,,55,127
78712,note_on,0,0,0,,7,,,43,127
78920,note_off,208,0,0,,4,,,76,127
78921,note_on,1,0,0,,5,,,77,127
79025,note_off,104,0,0,,5,,,77,127
79026,note_on,1,0,0,,7,,,79,127
79130,note_off,104,0,0,,7,,,79,127
79130,note_off,0,0,0,,7,,,43,127
79130,note_off,0,0,0,,7,,,55,127
79131,note_on,1,0,0,,2,,,74,127
79131,note_on,0,0,0,,5,,,77,127
79131,note_on,0,0,0,,10,,,45,127
79131,note_on,0,0,0,,10,,,57,127
79339,note_off,208,0,0,,5,,,77,127
79339,note_off,0,0,0,,2,,,74,127
79340,note_on,1,0,0,,1,,,73,127
79340,note_on,0,0,0,,4,,,76,127
79543,note_off,203,0,0,,4,,,76,127
79543,note_off,0,0,0,,1,,,73,127
79548,note_off,5,0,0,,10,,,57,127
79548,note_off,0,0,0,,10,,,45,127
79549,note_on,1,0,0,,2,,,86,127
79549,note_on,0,0,0,,2,,,50,127
79757,note_off,208,0,0,,2,,,50,127
79758,note_on,1,0,0,,6,,,78,127
79758,note_on,0,0,0,,10,,,69,127
79862,note_off,104,0,0,,10,,,69,127
79862,note_off,0,0,0,,6,,,78,127
79863,note_on,1,0,0,,2,,,74,127
79863,note_on,0,0,0,,6,,,66,127
79967,note_off,104,0,0,,6,,,66,127
79967,note_off,0,0,0,,2,,,74,127
79968,note_on,1,0,0,,4,,,76,127
79968,note_on,0,0,0,,7,,,67,127
80176,note_off,208,0,0,,7,,,67,127
80176,note_off,0,0,0,,4,,,76,127
80176,note_off,0,0,0,,2,,,86,127
80177,note_on,1,0,0,,1,,,85,127
80177,note_on,0,0,0,,7,,,79,127
80177,note_on,0,0,0,,10,,,69,127
80385,note_off,208,0,0,,10,,,69,127
80385,note_off,0,0,0,,7,,,79,127
80385,note_off,0,0,0,,1,,,85,127
80386,note_on,1,0,0,,2,,,86,127
80386,note_on,0,0,0,,2,,,50,127
80594,note_off,208,0,0,,2,,,50,127
80595,note_on,1,0,0,,6,,,78,127
80595,note_on,0,0,0,,10,,,69,127
80699,note_off,104,0,0,,10,,,69,127
80699,note_off,0,0,0,,6,,,78,127
80700,note_on,1,0,0,,2,,,74,127
80700,note_on,0,0,0,,6,,,66,127
80804,note_off,104,0,0,,6,,,66,127
80804,note_off,0,0,0,,2,,,74,127
80805,note_on,1,0,0,,4,,,76,127
80805,note_on,0,0,0,,7,,,67,127
81013,note_off,208,0,0,,7,,,67,127
81013,note_off,0,0,0,,4,,,76,127
81013,note_off,0,0,0,,2,,,86,127
81014,note_on,1,0,0,,7,,,79,127
81014,note_on,0,0,0,,1,,,85,127
81014,note_on,0,0,0,,10,,,69,127
81222,note_off,208,0,0,,10,,,69,127
81222,note_off,0,0,0,,1,,,85,127
81222,note_off,0,0,0,,7,,,79,127
81223,note_on,1,0,0,,2,,,86,127
81223,note_on,0,0,0,,2,,,50,127
81431,note_off,208,0,0,,2,,,86,127
81432,note_on,1,0,0,,10,,,81,127
81536,note_off,104,0,0,,10,,,81,127
81537,note_on,1,0,0,,1,,,85,127
81641,note_off,104,0,0,,1,,,85,127
81641,note_off,0,0,0,,2,,,50,127
81642,note_on,1,0,0,,12,,,83,127
81642,note_on,0,0,0,,7,,,55,127
81642,note_on,0,0,0,,7,,,43,127
81850,note_off,208,0,0,,12,,,83,127
81851,note_on,1,0,0,,4,,,76,127
81955,note_off,104,0,0,,4,,,76,127
81956,note_on,1,0,0,,7,,,79,127
82060,note_off,104,0,0,,7,,,79,127
82060,note_off,0,0,0,,7,,,43,127
82060,note_off,0,0,0,,7,,,55,127
82061,note_on,1,0,0,,6,,,78,127
82061,note_on,0,0,0,,10,,,45,127
82061,note_on,0,0,0,,10,,,57,127
82269,note_off,208,0,0,,6,,,78,127
82270,note_on,1,0,0,,10,,,81,127
82374,note_off,104,0,0,,10,,,81,127
82375,note_on,1,0,0,,2,,,74,127
82479,note_off,104,0,0,,2,,,74,127
82479,note_off,0,0,0,,10,,,57,127
82479,note_off,0,0,0,,10,,,45,127
82480,note_on,1,0,0,,6,,,78,127
82480,note_on,0,0,0,,10,,,33,127
82480,note_on,0,0,0,,10,,,45,127
82584,note_off,104,0,0,,6,,,78,127
82585,note_on,1,0,0,,4,,,76,127
82689,note_off,104,0,0,,4,,,76,127
82690,note_on,1,0,0,,2,,,74,127
82794,note_off,104,0,0,,2,,,74,127
82795,note_on,1,0,0,,1,,,73,127
82891,note_off,96,0,0,,1,,,73,127
82899,note_off,8,0,0,,10,,,45,127
82899,note_off,0,0,0,,10,,,33,127
82900,note_on,1,0,0,,2,,,86,127
82900,note_on,0,0,0,,2,,,50,127
83108,note_off,208,0,0,,2,,,50,127
83109,note_on,1,0,0,,6,,,78,127
83109,note_on,0,0,0,,10,,,69,127
83213,note_off,104,0,0,,10,,,69,127
83213,note_off,0,0,0,,6,,,78,127
83214,note_on,1,0,0,,2,,,74,127
83214,note_on,0,0,0,,6,,,66,127
83318,note_off,104,0,0,,6,,,66,127
83318,note_off,0,0,0,,2,,,74,127
83319,note_on,1,0,0,,4,,,76,127
83319,note_on,0,0,0,,7,,,67,127
83527,note_off,208,0,0,,7,,,67,127
83527,note_off,0,0,0,,4,,,76,127
83527,note_off,0,0,0,,2,,,86,127
83528,note_on,1,0,0,,1,,,85,127
83528,note_on,0,0,0,,7,,,79,127
83528,note_on,0,0,0,,10,,,69,127
83736,note_off,208,0,0,,10,,,69,127
83736,note_off,0,0,0,,7,,,79,127
83736,note_off,0,0,0,,1,,,85,127
83737,note_on,1,0,0,,2,,,86,127
83737,note_on,0,0,0,,2,,,50,127
83945,note_off,208,0,0,,2,,,50,127
83946,note_on,1,0,0,,6,,,78,127
83946,note_on,0,0,0,,10,,,69,127
84050,note_off,104,0,0,,10,,,69,127
84050,note_off,0,0,0,,6,,,78,127
84051,note_on,1,0,0,,2,,,74,127
84051,note_on,0,0,0,,6,,,66,127
84155,note_off,104,0,0,,6,,,66,127
84155,note_off,0,0,0,,2,,,74,127
84156,note_on,1,0,0,,4,,,76,127
84156,note_on,0,0,0,,7,,,67,127
84364,note_off,208,0,0,,7,,,67,127
84364,note_off,0,0,0,,4,,,76,127
84364,note_off,0,0,0,,2,,,86,127
84365,note_on,1,0,0,,7,,,79,127
84365,note_on,0,0,0,,1,,,85,127
84365,note_on,0,0,0,,10,,,69,127
84573,note_off,208,0,0,,10,,,69,127
84573,note_off,0,0,0,,1,,,85,127
84573,note_off,0,0,0,,7,,,79,127
84574,note_on,1,0,0,,2,,,86,127
84574,note_on,0,0,0,,2,,,50,127
84782,note_off,208,0,0,,2,,,86,127
84783,note_on,1,0,0,,10,,,81,127
84887,note_off,104,0,0,,10,,,81,127
84888,note_on,1,0,0,,1,,,85,127
84992,note_off,104,0,0,,1,,,85,127
84992,note_off,0,0,0,,2,,,50,127
84993,note_on,1,0,0,,12,,,83,127
84993,note_on,0,0,0,,7,,,55,127
84993,note_on,0,0,0,,7,,,43,127
85201,note_off,208,0,0,,12,,,83,127
85202,note_on,1,0,0,,4,,,76,127
85306,note_off,104,0,0,,4,,,76,127
85307,note_on,1,0,0,,7,,,79,127
85411,note_off,104,0,0,,7,,,79,127
85411,note_off,0,0,0,,7,,,43,127
85411,note_off,0,0,0,,7,,,55,127
85412,note_on,1,0,0,,6,,,78,127
85412,note_on,0,0,0,,10,,,45,127
85412,note_on,0,0,0,,10,,,57,127
85620,note_off,208,0,0,,6,,,78,127
85621,note_on,1,0,0,,10,,,81,127
85725,note_off,104,0,0,,10,,,81,127
85726,note_on,1,0,0,,2,,,74,127
85830,note_off,104,0,0,,2,,,74,127
85830,note_off,0,0,0,,10,,,57,127
85830,note_off,0,0,0,,10,,,45,127
85831,note_on,1,0,0,,6,,,78,127
85831,note_on,0,0,0,,10,,,33,127
85831,note_on,0,0,0,,10,,,45,127
85935,note_off,104,0,0,,6,,,78,127
85936,note_on,1,0,0,,4,,,76,127
86040,note_off,104,0,0,,4,,,76,127
86041,note_on,1,0,0,,2,,,74,127
86145,note_off,104,0,0,,2,,,74,127
86146,note_on,1,0,0,,1,,,73,127
86242,note_off,96,0,0,,1,,,73,127
86250,note_off,8,0,0,,10,,,45,127
86250,note_off,0,0,0,,10,,,33,127
86251,note_on,1,0,0,,7,,,91,127
86251,note_on,0,0,0,,2,,,50,127
86251,note_on,0,0,0,,2,,,38,127
86355,note_off,104,0,0,,7,,,91,127
86356,note_on,1,0,0,,6,,,90,127
86460,note_off,104,0,0,,6,,,90,127
86461,note_on,1,0,0,,4,,,88,127
86565,note_off,104,0,0,,4,,,88,127
86566,note_on,1,0,0,,2,,,86,127
86670,note_off,104,0,0,,2,,,86,127
86670,note_off,0,0,0,,2,,,38,127
86670,note_off,0,0,0,,2,,,50,127
86671,note_on,1,0,0,,4,,,88,127
86671,note_on,0,0,0,,6,,,54,127
86671,note_on,0,0,0,,6,,,42,127
86775,note_off,104,0,0,,4,,,88,127
86776,note_on,1,0,0,,2,,,86,127
86880,note_off,104,0,0,,2,,,86,127
86881,note_on,1,0,0,,1,,,85,127
86985,note_off,104,0,0,,1,,,85,127
86986,note_on,1,0,0,,12,,,83,127
87090,note_off,104,0,0,,12,,,83,127
87090,note_off,0,0,0,,6,,,42,127
87090,note_off,0,0,0,,6,,,54,127
87091,note_on,1,0,0,,1,,,85,127
87091,note_on,0,0,0,,7,,,43,127
87091,note_on,0,0,0,,7,,,55,127
87195,note_off,104,0,0,,1,,,85,127
87196,note_on,1,0,0,,12,,,83,127
87300,note_off,104,0,0,,12,,,83,127
87301,note_on,1,0,0,,10,,,81,127
87405,note_off,104,0,0,,10,,,81,127
87406,note_on,1,0,0,,7,,,79,127
87510,note_off,104,0,0,,7,,,79,127
87510,note_off,0,0,0,,7,,,55,127
87510,note_off,0,0,0,,7,,,43,127
87511,note_on,1,0,0,,10,,,81,127
87511,note_on,0,0,0,,10,,,45,127
87511,note_on,0,0,0,,10,,,57,127
87615,note_off,104,0,0,,10,,,81,127
87616,note_on,1,0,0,,7,,,79,127
87720,note_off,104,0,0,,7,,,79,127
87721,note_on,1,0,0,,6,,,78,127
87825,note_off,104,0,0,,6,,,78,127
87826,note_on,1,0,0,,4,,,76,127
87930,note_off,104,0,0,,4,,,76,127
87930,note_off,0,0,0,,10,,,57,127
87930,note_off,0,0,0,,10,,,45,127
87931,note_on,1,0,0,,7,,,79,127
87931,note_on,0,0,0,,2,,,50,127
87931,note_on,0,0,0,,2,,,38,127
88035,note_off,104,0,0,,7,,,79,127
88036,note_on,1,0,0,,6,,,78,127
88140,note_off,104,0,0,,6,,,78,127
88141,note_on,1,0,0,,4,,,76,127
88245,note_off,104,0,0,,4,,,76,127
88246,note_on,1,0,0,,2,,,74,127
88350,note_off,104,0,0,,2,,,74,127
88350,note_off,0,0,0,,2,,,38,127
88350,note_off,0,0,0,,2,,,50,127
88351,note_on,1,0,0,,4,,,76,127
88351,note_on,0,0,0,,6,,,42,127
88351,note_on,0,0,0,,6,,,54,127
88455,note_off,104,0,0,,4,,,76,127
88456,note_on,1,0,0,,2,,,74,127
88560,note_off,104,0,0,,2,,,74,127
88561,note_on,1,0,0,,1,,,73,127
88665,note_off,104,0,0,,1,,,73,127
88666,note_on,1,0,0,,12,,,71,127
88770,note_off,104,0,0,,12,,,71,127
88770,note_off,0,0,0,,6,,,54,127
88770,note_off,0,0,0,,6,,,42,127
88771,note_on,1,0,0,,1,,,73,127
88771,note_on,0,0,0,,7,,,55,127
88771,note_on,0,0,0,,7,,,43,127
88875,note_off,104,0,0,,1,,,73,127
88876,note_on,1,0,0,,12,,,71,127
88980,note_off,104,0,0,,12,,,71,127
88981,note_on,1,0,0,,10,,,69,127
89085,note_off,104,0,0,,10,,,69,127
89086,note_on,1,0,0,,7,,,67,127
89190,note_off,104,0,0,,7,,,67,127
89190,note_off,0,0,0,,7,,,43,127
89190,note_off,0,0,0,,7,,,55,127
89191,note_on,1,0,0,,10,,,69,127
89191,note_on,0,0,0,,10,,,45,127
89191,note_on,0,0,0,,10,,,57,127
89295,note_off,104,0,0,,10,,,69,127
89296,note_on,1,0,0,,7,,,67,127
89400,note_off,104,0,0,,7,,,67,127
89401,note_on,1,0,0,,6,,,66,127
89505,note_off,104,0,0,,6,,,66,127
89506,note_on,1,0,0,,4,,,64,127
89610,note_off,104,0,0,,4,,,64,127
89610,note_off,0,0,0,,10,,,57,127
89610,note_off,0,0,0,,10,,,45,127
89611,note_on,1,0,0,,2,,,62,127
89611,note_on,0,0,0,,2,,,50,127
89611,note_on,0,0,0,,2,,,38,127
91391,note_off,1780,0,0,,2,,,38,127
91391,note_off,0,0,0,,2,,,50,127
91391,note_off,0,0,0,,2,,,62,127
92160,end_of_track,769,1,0,,,,,,
