tick,type,time,meta,track,program,channel,pitch,tempo,note,velocity
0,copyright,0,1,0,,,,,,
0,program_change,0,0,0,6,0,,,,
0,pitchwheel,0,0,0,,0,0,,,
0,program_change,0,0,0,6,1,,,,
0,pitchwheel,0,0,0,,1,-590,,,
0,program_change,0,0,0,6,2,,,,
0,pitchwheel,0,0,0,,2,-272,,,
0,program_change,0,0,0,6,3,,,,
0,pitchwheel,0,0,0,,3,-353,,,
0,program_change,0,0,0,6,4,,,,
0,pitchwheel,0,0,0,,4,-560,,,
0,program_change,0,0,0,6,5,,,,
0,pitchwheel,0,0,0,,5,-80,,,
0,program_change,0,0,0,6,6,,,,
0,pitchwheel,0,0,0,,6,-625,,,
0,program_change,0,0,0,6,7,,,,
0,pitchwheel,0,0,0,,7,-130,,,
0,program_change,0,0,0,6,8,,,,
0,pitchwheel,0,0,0,,8,-512,,,
0,program_change,0,0,0,6,10,,,,
0,pitchwheel,0,0,0,,10,-464,,,
0,program_change,0,0,0,6,11,,,,
0,pitchwheel,0,0,0,,11,-208,,,
0,program_change,0,0,0,6,12,,,,
0,pitchwheel,0,0,0,,12,-553,,,
0,set_tempo,0,1,0,,,,500000,,
85,note_on,85,0,0,,2,,,62,127
85,note_on,0,0,0,,2,,,86,127
256,note_on,171,0,0,,10,,,69,127
256,note_on,0,0,0,,5,,,77,127
426,note_off,170,0,0,,5,,,77,127
426,note_off,0,0,0,,10,,,69,127
427,note_on,1,0,0,,11,,,70,127
427,note_on,0,0,0,,7,,,79,127
597,note_off,170,0,0,,7,,,79,127
597,note_off,0,0,0,,11,,,70,127
598,note_on,1,0,0,,10,,,69,127
598,note_on,0,0,0,,5,,,77,127
768,note_off,170,0,0,,5,,,77,127
768,note_off,0,0,0,,10,,,69,127
769,note_on,1,0,0,,5,,,65,127
769,note_on,0,0,0,,2,,,74,127
939,note_off,170,0,0,,2,,,74,127
939,note_off,0,0,0,,5,,,65,127
940,note_on,1,0,0,,4,,,64,127
940,note_on,0,0,0,,1,,,73,127
1109,note_off,169,0,0,,2,,,86,127
1109,note_off,0,0,0,,2,,,62,127
1110,note_off,1,0,0,,1,,,73,127
1110,note_off,0,0,0,,4,,,64,127
1111,note_on,1,0,0,,2,,,62,127
1111,note_on,0,0,0,,2,,,86,127
1282,note_on,171,0,0,,10,,,69,127
1282,note_on,0,0,0,,5,,,77,127
1452,note_off,170,0,0,,5,,,77,127
1452,note_off,0,0,0,,10,,,69,127
1453,note_on,1,0,0,,11,,,70,127
1453,note_on,0,0,0,,7,,,79,127
1623,note_off,170,0,0,,7,,,79,127
1623,note_off,0,0,0,,11,,,70,127
1624,note_on,1,0,0,,10,,,69,127
1624,note_on,0,0,0,,5,,,77,127
1794,note_off,170,0,0,,5,,,77,127
1794,note_off,0,0,0,,10,,,69,127
1795,note_on,1,0,0,,5,,,65,127
1795,note_on,0,0,0,,2,,,74,127
1965,note_off,170,0,0,,2,,,74,127
1965,note_off,0,0,0,,5,,,65,127
1966,note_on,1,0,0,,4,,,64,127
1966,note_on,0,0,0,,1,,,73,127
2135,note_off,169,0,0,,2,,,86,127
2135,note_off,0,0,0,,2,,,62,127
2136,note_off,1,0,0,,1,,,73,127
2136,note_off,0,0,0,,4,,,64,127
2137,note_on,1,0,0,,5,,,65,127
2137,note_on,0,0,0,,2,,,86,127
2307,note_off,170,0,0,,2,,,86,127
2307,note_off,0,0,0,,5,,,65,127
2308,note_on,1,0,0,,2,,,62,127
2308,note_on,0,0,0,,10,,,81,127
2478,note_off,170,0,0,,10,,,81,127
2478,note_off,0,0,0,,2,,,62,127
2479,note_on,1,0,0,,11,,,58,127
2479,note_on,0,0,0,,11,,,82,127
2649,note_off,170,0,0,,11,,,82,127
2649,note_off,0,0,0,,11,,,58,127
2650,note_on,1,0,0,,4,,,64,127
2650,note_on,0,0,0,,7,,,79,127
2820,note_off,170,0,0,,7,,,79,127
2820,note_off,0,0,0,,4,,,64,127
2821,note_on,1,0,0,,1,,,61,127
2821,note_on,0,0,0,,4,,,76,127
2991,note_off,170,0,0,,4,,,76,127
2991,note_off,0,0,0,,1,,,61,127
2992,note_on,1,0,0,,10,,,57,127
2992,note_on,0,0,0,,10,,,81,127
3162,note_off,170,0,0,,10,,,81,127
3162,note_off,0,0,0,,10,,,57,127
3163,note_on,1,0,0,,2,,,62,127
3163,note_on,0,0,0,,5,,,77,127
3333,note_off,170,0,0,,5,,,77,127
3334,note_on,1,0,0,,2,,,74,127
3504,note_off,170,0,0,,2,,,74,127
3504,note_off,0,0,0,,2,,,62,127
3505,note_on,1,0,0,,5,,,53,127
3505,note_on,0,0,0,,5,,,77,127
3505,note_on,0,0,0,,10,,,81,127
3675,note_off,170,0,0,,10,,,81,127
3675,note_off,0,0,0,,5,,,77,127
3675,note_off,0,0,0,,5,,,53,127
3676,note_on,1,0,0,,7,,,55,127
3676,note_on,0,0,0,,4,,,76,127
3676,note_on,0,0,0,,7,,,79,127
3846,note_off,170,0,0,,7,,,79,127
3846,note_off,0,0,0,,4,,,76,127
3847,note_on,1,0,0,,5,,,77,127
3847,note_on,0,0,0,,2,,,74,127
4017,note_off,170,0,0,,2,,,74,127
4017,note_off,0,0,0,,5,,,77,127
4017,note_off,0,0,0,,7,,,55,127
4018,note_on,1,0,0,,10,,,57,127
4018,note_on,0,0,0,,4,,,76,127
4018,note_on,0,0,0,,1,,,73,127
4188,note_off,170,0,0,,1,,,73,127
4188,note_off,0,0,0,,4,,,76,127
4188,note_off,0,0,0,,10,,,57,127
4189,note_on,1,0,0,,2,,,50,127
4189,note_on,0,0,0,,2,,,74,127
4871,note_off,682,0,0,,2,,,74,127
4871,note_off,0,0,0,,2,,,50,127
5213,note_on,342,0,0,,2,,,62,127
5213,note_on,0,0,0,,2,,,86,127
5384,note_on,171,0,0,,10,,,69,127
5384,note_on,0,0,0,,6,,,78,127
5554,note_off,170,0,0,,6,,,78,127
5554,note_off,0,0,0,,10,,,69,127
5555,note_on,1,0,0,,12,,,71,127
5555,note_on,0,0,0,,7,,,79,127
5725,note_off,170,0,0,,7,,,79,127
5725,note_off,0,0,0,,12,,,71,127
5726,note_on,1,0,0,,10,,,69,127
5726,note_on,0,0,0,,6,,,78,127
5896,note_off,170,0,0,,6,,,78,127
5896,note_off,0,0,0,,10,,,69,127
5897,note_on,1,0,0,,6,,,66,127
5897,note_on,0,0,0,,2,,,74,127
6067,note_off,170,0,0,,2,,,74,127
6067,note_off,0,0,0,,6,,,66,127
6068,note_on,1,0,0,,4,,,64,127
6068,note_on,0,0,0,,1,,,73,127
6237,note_off,169,0,0,,2,,,86,127
6237,note_off,0,0,0,,2,,,62,127
6238,note_off,1,0,0,,1,,,73,127
6238,note_off,0,0,0,,4,,,64,127
6239,note_on,1,0,0,,2,,,62,127
6239,note_on,0,0,0,,2,,,86,127
6410,note_on,171,0,0,,10,,,69,127
6410,note_on,0,0,0,,6,,,78,127
6580,note_off,170,0,0,,6,,,78,127
6580,note_off,0,0,0,,10,,,69,127
6581,note_on,1,0,0,,12,,,71,127
6581,note_on,0,0,0,,7,,,79,127
6751,note_off,170,0,0,,7,,,79,127
6751,note_off,0,0,0,,12,,,71,127
6752,note_on,1,0,0,,10,,,69,127
6752,note_on,0,0,0,,6,,,78,127
6922,note_off,170,0,0,,6,,,78,127
6922,note_off,0,0,0,,10,,,69,127
6923,note_on,1,0,0,,6,,,66,127
6923,note_on,0,0,0,,2,,,74,127
7093,note_off,170,0,0,,2,,,74,127
7093,note_off,0,0,0,,6,,,66,127
7094,note_on,1,0,0,,4,,,64,127
7094,note_on,0,0,0,,1,,,73,127
7263,note_off,169,0,0,,2,,,86,127
7263,note_off,0,0,0,,2,,,62,127
7264,note_off,1,0,0,,1,,,73,127
7264,note_off,0,0,0,,4,,,64,127
7265,note_on,1,0,0,,6,,,66,127
7265,note_on,0,0,0,,2,,,86,127
7435,note_off,170,0,0,,2,,,86,127
7435,note_off,0,0,0,,6,,,66,127
7436,note_on,1,0,0,,2,,,62,127
7436,note_on,0,0,0,,10,,,81,127
7606,note_off,170,0,0,,10,,,81,127
7606,note_off,0,0,0,,2,,,62,127
7607,note_on,1,0,0,,12,,,59,127
7607,note_on,0,0,0,,12,,,83,127
7777,note_off,170,0,0,,12,,,83,127
7777,note_off,0,0,0,,12,,,59,127
7778,note_on,1,0,0,,4,,,64,127
7778,note_on,0,0,0,,7,,,79,127
7948,note_off,170,0,0,,7,,,79,127
7948,note_off,0,0,0,,4,,,64,127
7949,note_on,1,0,0,,1,,,61,127
7949,note_on,0,0,0,,4,,,76,127
8119,note_off,170,0,0,,4,,,76,127
8119,note_off,0,0,0,,1,,,61,127
8120,note_on,1,0,0,,10,,,57,127
8120,note_on,0,0,0,,10,,,81,127
8290,note_off,170,0,0,,10,,,81,127
8290,note_off,0,0,0,,10,,,57,127
8291,note_on,1,0,0,,2,,,62,127
8291,note_on,0,0,0,,6,,,78,127
8461,note_off,170,0,0,,6,,,78,127
8462,note_on,1,0,0,,2,,,74,127
8632,note_off,170,0,0,,2,,,74,127
8632,note_off,0,0,0,,2,,,62,127
8633,note_on,1,0,0,,6,,,54,127
8633,note_on,0,0,0,,10,,,81,127
8633,note_on,0,0,0,,6,,,78,127
8803,note_off,170,0,0,,6,,,78,127
8803,note_off,0,0,0,,10,,,81,127
8803,note_off,0,0,0,,6,,,54,127
8804,note_on,1,0,0,,7,,,55,127
8804,note_on,0,0,0,,7,,,79,127
8804,note_on,0,0,0,,4,,,76,127
8974,note_off,170,0,0,,4,,,76,127
8974,note_off,0,0,0,,7,,,79,127
8975,note_on,1,0,0,,2,,,74,127
8975,note_on,0,0,0,,6,,,78,127
9145,note_off,170,0,0,,6,,,78,127
9145,note_off,0,0,0,,2,,,74,127
9145,note_off,0,0,0,,7,,,55,127
9146,note_on,1,0,0,,10,,,57,127
9146,note_on,0,0,0,,4,,,76,127
9146,note_on,0,0,0,,1,,,73,127
9316,note_off,170,0,0,,1,,,73,127
9316,note_off,0,0,0,,4,,,76,127
9316,note_off,0,0,0,,10,,,57,127
9317,note_on,1,0,0,,2,,,50,127
9317,note_on,0,0,0,,2,,,74,127
9655,note_off,338,0,0,,2,,,74,127
9828,note_off,173,0,0,,2,,,50,127
9829,note_on,1,0,0,,2,,,50,127
9829,note_on,0,0,0,,2,,,62,127
9829,note_on,0,0,0,,5,,,77,127
9829,note_on,0,0,0,,5,,,65,127
9999,note_off,170,0,0,,2,,,62,127
10000,note_on,1,0,0,,10,,,57,127
10170,note_off,170,0,0,,10,,,57,127
10171,note_on,1,0,0,,12,,,59,127
10341,note_off,170,0,0,,12,,,59,127
10341,note_off,0,0,0,,5,,,65,127
10341,note_off,0,0,0,,5,,,77,127
10341,note_off,0,0,0,,2,,,50,127
10342,note_on,1,0,0,,0,,,48,127
10342,note_on,0,0,0,,0,,,60,127
10342,note_on,0,0,0,,4,,,76,127
10342,note_on,0,0,0,,4,,,64,127
10512,note_off,170,0,0,,0,,,60,127
10513,note_on,1,0,0,,7,,,55,127
10683,note_off,170,0,0,,7,,,55,127
10684,note_on,1,0,0,,10,,,57,127
10854,note_off,170,0,0,,10,,,57,127
10854,note_off,0,0,0,,4,,,64,127
10854,note_off,0,0,0,,4,,,76,127
10854,note_off,0,0,0,,0,,,48,127
10855,note_on,1,0,0,,11,,,46,127
10855,note_on,0,0,0,,11,,,58,127
10855,note_on,0,0,0,,2,,,62,127
10855,note_on,0,0,0,,2,,,74,127
11025,note_off,170,0,0,,11,,,58,127
11026,note_on,1,0,0,,5,,,53,127
11196,note_off,170,0,0,,5,,,53,127
11197,note_on,1,0,0,,7,,,55,127
11367,note_off,170,0,0,,7,,,55,127
11367,note_off,0,0,0,,2,,,74,127
11367,note_off,0,0,0,,2,,,62,127
11367,note_off,0,0,0,,11,,,46,127
11368,note_on,1,0,0,,10,,,45,127
11368,note_on,0,0,0,,10,,,57,127
11368,note_on,0,0,0,,1,,,73,127
11538,note_off,170,0,0,,1,,,73,127
11539,note_on,1,0,0,,12,,,71,127
11709,note_off,170,0,0,,12,,,71,127
11710,note_on,1,0,0,,10,,,69,127
11795,note_off,85,0,0,,10,,,57,127
11795,note_off,0,0,0,,10,,,45,127
11879,note_off,84,0,0,,10,,,69,127
11880,note_on,1,0,0,,2,,,50,127
11880,note_on,0,0,0,,2,,,62,127
11880,note_on,0,0,0,,6,,,66,127
11880,note_on,0,0,0,,6,,,78,127
12050,note_off,170,0,0,,2,,,62,127
12051,note_on,1,0,0,,10,,,57,127
12221,note_off,170,0,0,,10,,,57,127
12222,note_on,1,0,0,,12,,,59,127
12392,note_off,170,0,0,,12,,,59,127
12392,note_off,0,0,0,,6,,,78,127
12392,note_off,0,0,0,,6,,,66,127
12392,note_off,0,0,0,,2,,,50,127
12393,note_on,1,0,0,,1,,,49,127
12393,note_on,0,0,0,,1,,,61,127
12393,note_on,0,0,0,,4,,,76,127
12393,note_on,0,0,0,,4,,,64,127
12563,note_off,170,0,0,,1,,,61,127
12564,note_on,1,0,0,,8,,,56,127
12734,note_off,170,0,0,,8,,,56,127
12735,note_on,1,0,0,,10,,,57,127
12905,note_off,170,0,0,,10,,,57,127
12905,note_off,0,0,0,,4,,,64,127
12905,note_off,0,0,0,,4,,,76,127
12905,note_off,0,0,0,,1,,,49,127
12906,note_on,1,0,0,,12,,,59,127
12906,note_on,0,0,0,,12,,,47,127
12906,note_on,0,0,0,,2,,,62,127
12906,note_on,0,0,0,,2,,,74,127
13076,note_off,170,0,0,,12,,,59,127
13077,note_on,1,0,0,,6,,,54,127
13247,note_off,170,0,0,,6,,,54,127
13248,note_on,1,0,0,,8,,,56,127
13418,note_off,170,0,0,,8,,,56,127
13418,note_off,0,0,0,,2,,,74,127
13418,note_off,0,0,0,,2,,,62,127
13418,note_off,0,0,0,,12,,,47,127
13419,note_on,1,0,0,,10,,,45,127
13419,note_on,0,0,0,,10,,,57,127
13419,note_on,0,0,0,,10,,,69,127
13419,note_on,0,0,0,,1,,,73,127
13589,note_off,170,0,0,,1,,,73,127
13589,note_off,0,0,0,,10,,,69,127
13590,note_on,1,0,0,,2,,,74,127
13590,note_on,0,0,0,,12,,,71,127
13760,note_off,170,0,0,,12,,,71,127
13760,note_off,0,0,0,,2,,,74,127
13761,note_on,1,0,0,,4,,,76,127
13761,note_on,0,0,0,,1,,,73,127
13931,note_off,170,0,0,,10,,,57,127
13931,note_off,0,0,0,,10,,,45,127
13932,note_on,1,0,0,,10,,,57,127
13932,note_on,0,0,0,,1,,,49,127
14102,note_off,170,0,0,,1,,,73,127
14102,note_off,0,0,0,,4,,,76,127
14103,note_on,1,0,0,,6,,,78,127
14103,note_on,0,0,0,,2,,,74,127
14273,note_off,170,0,0,,2,,,74,127
14273,note_off,0,0,0,,6,,,78,127
14274,note_on,1,0,0,,1,,,73,127
14274,note_on,0,0,0,,4,,,76,127
14444,note_off,170,0,0,,1,,,49,127
14444,note_off,0,0,0,,10,,,57,127
14445,note_on,1,0,0,,2,,,38,127
14445,note_on,0,0,0,,2,,,50,127
14615,note_off,170,0,0,,4,,,76,127
14615,note_off,0,0,0,,1,,,73,127
14616,note_on,1,0,0,,2,,,74,127
14616,note_on,0,0,0,,12,,,71,127
14786,note_off,170,0,0,,12,,,71,127
14786,note_off,0,0,0,,2,,,74,127
14787,note_on,1,0,0,,10,,,69,127
14787,note_on,0,0,0,,1,,,73,127
14957,note_off,170,0,0,,2,,,50,127
14957,note_off,0,0,0,,2,,,38,127
14958,note_on,1,0,0,,3,,,39,127
14958,note_on,0,0,0,,3,,,51,127
15128,note_off,170,0,0,,1,,,73,127
15128,note_off,0,0,0,,10,,,69,127
15129,note_on,1,0,0,,12,,,71,127
15129,note_on,0,0,0,,8,,,68,127
15299,note_off,170,0,0,,8,,,68,127
15299,note_off,0,0,0,,12,,,71,127
15300,note_on,1,0,0,,10,,,69,127
15300,note_on,0,0,0,,1,,,73,127
15470,note_off,170,0,0,,1,,,73,127
15470,note_off,0,0,0,,10,,,69,127
15470,note_off,0,0,0,,3,,,51,127
15470,note_off,0,0,0,,3,,,39,127
15471,note_on,1,0,0,,4,,,40,127
15471,note_on,0,0,0,,4,,,52,127
15471,note_on,0,0,0,,8,,,68,127
15471,note_on,0,0,0,,1,,,73,127
15527,note_off,56,0,0,,1,,,73,127
15528,note_on,1,0,0,,12,,,71,127
15584,note_off,56,0,0,,12,,,71,127
15585,note_on,1,0,0,,1,,,73,127
15641,note_off,56,0,0,,1,,,73,127
15642,note_on,1,0,0,,12,,,71,127
15898,note_off,256,0,0,,8,,,68,127
15980,note_off,82,0,0,,12,,,71,127
15983,note_off,3,0,0,,4,,,52,127
15983,note_off,0,0,0,,4,,,40,127
15984,note_on,1,0,0,,2,,,50,127
15984,note_on,0,0,0,,2,,,38,127
15984,note_on,0,0,0,,12,,,71,127
15984,note_on,0,0,0,,5,,,65,127
16154,note_off,170,0,0,,12,,,71,127
16155,note_on,1,0,0,,0,,,72,127
16325,note_off,170,0,0,,0,,,72,127
16325,note_off,0,0,0,,2,,,38,127
16325,note_off,0,0,0,,2,,,50,127
16326,note_on,1,0,0,,4,,,52,127
16326,note_on,0,0,0,,4,,,40,127
16326,note_on,0,0,0,,2,,,74,127
16496,note_off,170,0,0,,4,,,40,127
16496,note_off,0,0,0,,4,,,52,127
16496,note_off,0,0,0,,5,,,65,127
16497,note_on,1,0,0,,5,,,41,127
16497,note_on,0,0,0,,5,,,53,127
16497,note_on,0,0,0,,5,,,65,127
16664,note_off,167,0,0,,2,,,74,127
16668,note_on,4,0,0,,8,,,68,127
16838,note_off,170,0,0,,8,,,68,127
16838,note_off,0,0,0,,5,,,53,127
16838,note_off,0,0,0,,5,,,41,127
16839,note_on,1,0,0,,4,,,52,127
16839,note_on,0,0,0,,4,,,40,127
16839,note_on,0,0,0,,10,,,69,127
17009,note_off,170,0,0,,10,,,69,127
17009,note_off,0,0,0,,4,,,40,127
17009,note_off,0,0,0,,4,,,52,127
17009,note_off,0,0,0,,5,,,65,127
17010,note_on,1,0,0,,2,,,38,127
17010,note_on,0,0,0,,2,,,50,127
17010,note_on,0,0,0,,12,,,71,127
17010,note_on,0,0,0,,5,,,65,127
17180,note_off,170,0,0,,12,,,71,127
17181,note_on,1,0,0,,0,,,72,127
17351,note_off,170,0,0,,0,,,72,127
17351,note_off,0,0,0,,2,,,50,127
17351,note_off,0,0,0,,2,,,38,127
17352,note_on,1,0,0,,4,,,40,127
17352,note_on,0,0,0,,4,,,52,127
17352,note_on,0,0,0,,2,,,74,127
17522,note_off,170,0,0,,4,,,52,127
17522,note_off,0,0,0,,4,,,40,127
17522,note_off,0,0,0,,5,,,65,127
17523,note_on,1,0,0,,5,,,41,127
17523,note_on,0,0,0,,5,,,53,127
17693,note_off,170,0,0,,2,,,74,127
17694,note_on,1,0,0,,8,,,68,127
17864,note_off,170,0,0,,8,,,68,127
17864,note_off,0,0,0,,5,,,53,127
17864,note_off,0,0,0,,5,,,41,127
17865,note_on,1,0,0,,4,,,40,127
17865,note_on,0,0,0,,4,,,52,127
17865,note_on,0,0,0,,10,,,69,127
18035,note_off,170,0,0,,10,,,69,127
18035,note_off,0,0,0,,4,,,52,127
18035,note_off,0,0,0,,4,,,40,127
18036,note_on,1,0,0,,2,,,38,127
18036,note_on,0,0,0,,2,,,50,127
18036,note_on,0,0,0,,12,,,71,127
18036,note_on,0,0,0,,8,,,68,127
18206,note_off,170,0,0,,8,,,68,127
18206,note_off,0,0,0,,12,,,71,127
18206,note_off,0,0,0,,2,,,50,127
18206,note_off,0,0,0,,2,,,38,127
18207,note_on,1,0,0,,0,,,36,127
18207,note_on,0,0,0,,0,,,48,127
18207,note_on,0,0,0,,0,,,72,127
18207,note_on,0,0,0,,10,,,69,127
18377,note_off,170,0,0,,10,,,69,127
18377,note_off,0,0,0,,0,,,72,127
18377,note_off,0,0,0,,0,,,48,127
18377,note_off,0,0,0,,0,,,36,127
18378,note_on,1,0,0,,12,,,47,127
18378,note_on,0,0,0,,12,,,35,127
18378,note_on,0,0,0,,2,,,74,127
18378,note_on,0,0,0,,12,,,71,127
18548,note_off,170,0,0,,12,,,71,127
18548,note_off,0,0,0,,2,,,74,127
18548,note_off,0,0,0,,12,,,35,127
18548,note_off,0,0,0,,12,,,47,127
18549,note_on,1,0,0,,10,,,45,127
18549,note_on,0,0,0,,10,,,33,127
18549,note_on,0,0,0,,0,,,72,127
18549,note_on,0,0,0,,10,,,69,127
18719,note_off,170,0,0,,10,,,69,127
18719,note_off,0,0,0,,0,,,72,127
18720,note_on,1,0,0,,2,,,74,127
18720,note_on,0,0,0,,12,,,71,127
18890,note_off,170,0,0,,12,,,71,127
18890,note_off,0,0,0,,2,,,74,127
18890,note_off,0,0,0,,10,,,33,127
18890,note_off,0,0,0,,10,,,45,127
18891,note_on,1,0,0,,0,,,36,127
18891,note_on,0,0,0,,0,,,48,127
18891,note_on,0,0,0,,4,,,76,127
18891,note_on,0,0,0,,0,,,72,127
19061,note_off,170,0,0,,0,,,72,127
19061,note_off,0,0,0,,4,,,76,127
19061,note_off,0,0,0,,0,,,48,127
19061,note_off,0,0,0,,0,,,36,127
19062,note_on,1,0,0,,2,,,50,127
19062,note_on,0,0,0,,2,,,38,127
19062,note_on,0,0,0,,2,,,74,127
19062,note_on,0,0,0,,12,,,71,127
19232,note_off,170,0,0,,12,,,71,127
19232,note_off,0,0,0,,2,,,74,127
19233,note_on,1,0,0,,0,,,72,127
19233,note_on,0,0,0,,10,,,69,127
19403,note_off,170,0,0,,10,,,69,127
19403,note_off,0,0,0,,0,,,72,127
19403,note_off,0,0,0,,2,,,38,127
19403,note_off,0,0,0,,2,,,50,127
19404,note_on,1,0,0,,4,,,40,127
19404,note_on,0,0,0,,4,,,52,127
19404,note_on,0,0,0,,8,,,68,127
19404,note_on,0,0,0,,12,,,71,127
19574,note_off,170,0,0,,12,,,71,127
19574,note_off,0,0,0,,8,,,68,127
19574,note_off,0,0,0,,4,,,52,127
19574,note_off,0,0,0,,4,,,40,127
19575,note_on,1,0,0,,10,,,45,127
19575,note_on,0,0,0,,10,,,69,127
19745,note_off,170,0,0,,10,,,45,127
19746,note_on,1,0,0,,10,,,57,127
19916,note_off,170,0,0,,10,,,57,127
19917,note_on,1,0,0,,1,,,49,127
20002,note_off,85,0,0,,10,,,69,127
20086,note_off,84,0,0,,1,,,49,127
20087,note_on,1,0,0,,2,,,50,127
20087,note_on,0,0,0,,12,,,71,127
20087,note_on,0,0,0,,10,,,69,127
20258,note_on,171,0,0,,12,,,59,127
20425,note_off,167,0,0,,2,,,50,127
20428,note_off,3,0,0,,12,,,59,127
20429,note_on,1,0,0,,4,,,52,127
20429,note_on,0,0,0,,1,,,61,127
20599,note_off,170,0,0,,1,,,61,127
20599,note_off,0,0,0,,4,,,52,127
20599,note_off,0,0,0,,10,,,69,127
20599,note_off,0,0,0,,12,,,71,127
20600,note_on,1,0,0,,2,,,62,127
20600,note_on,0,0,0,,10,,,69,127
20600,note_on,0,0,0,,12,,,71,127
20771,note_on,171,0,0,,6,,,54,127
20938,note_off,167,0,0,,2,,,62,127
20941,note_off,3,0,0,,6,,,54,127
20942,note_on,1,0,0,,4,,,52,127
20942,note_on,0,0,0,,1,,,61,127
21112,note_off,170,0,0,,1,,,61,127
21112,note_off,0,0,0,,4,,,52,127
21112,note_off,0,0,0,,12,,,71,127
21112,note_off,0,0,0,,10,,,69,127
21113,note_on,1,0,0,,2,,,50,127
21113,note_on,0,0,0,,10,,,69,127
21113,note_on,0,0,0,,12,,,71,127
21284,note_on,171,0,0,,12,,,59,127
21451,note_off,167,0,0,,2,,,50,127
21454,note_off,3,0,0,,12,,,59,127
21455,note_on,1,0,0,,4,,,52,127
21455,note_on,0,0,0,,1,,,61,127
21625,note_off,170,0,0,,1,,,61,127
21625,note_off,0,0,0,,4,,,52,127
21625,note_off,0,0,0,,12,,,71,127
21625,note_off,0,0,0,,10,,,69,127
21626,note_on,1,0,0,,2,,,62,127
21626,note_on,0,0,0,,10,,,69,127
21626,note_on,0,0,0,,12,,,71,127
21797,note_on,171,0,0,,6,,,54,127
21964,note_off,167,0,0,,2,,,62,127
21967,note_off,3,0,0,,6,,,54,127
21968,note_on,1,0,0,,4,,,52,127
21968,note_on,0,0,0,,1,,,61,127
22138,note_off,170,0,0,,1,,,61,127
22138,note_off,0,0,0,,4,,,52,127
22138,note_off,0,0,0,,12,,,71,127
22138,note_off,0,0,0,,10,,,69,127
22139,note_on,1,0,0,,2,,,50,127
22139,note_on,0,0,0,,12,,,59,127
22139,note_on,0,0,0,,12,,,71,127
22139,note_on,0,0,0,,8,,,68,127
22309,note_off,170,0,0,,8,,,68,127
22309,note_off,0,0,0,,12,,,71,127
22309,note_off,0,0,0,,12,,,59,127
22309,note_off,0,0,0,,2,,,50,127
22310,note_on,1,0,0,,1,,,49,127
22310,note_on,0,0,0,,10,,,57,127
22310,note_on,0,0,0,,1,,,73,127
22310,note_on,0,0,0,,10,,,69,127
22480,note_off,170,0,0,,10,,,69,127
22480,note_off,0,0,0,,1,,,73,127
22480,note_off,0,0,0,,10,,,57,127
22480,note_off,0,0,0,,1,,,49,127
22481,note_on,1,0,0,,12,,,47,127
22481,note_on,0,0,0,,8,,,56,127
22481,note_on,0,0,0,,2,,,74,127
22481,note_on,0,0,0,,12,,,71,127
22651,note_off,170,0,0,,12,,,71,127
22651,note_off,0,0,0,,2,,,74,127
22651,note_off,0,0,0,,8,,,56,127
22651,note_off,0,0,0,,12,,,47,127
22652,note_on,1,0,0,,10,,,45,127
22652,note_on,0,0,0,,10,,,57,127
22652,note_on,0,0,0,,1,,,73,127
22652,note_on,0,0,0,,10,,,69,127
22822,note_off,170,0,0,,10,,,69,127
22822,note_off,0,0,0,,1,,,73,127
22823,note_on,1,0,0,,12,,,71,127
22823,note_on,0,0,0,,2,,,74,127
22993,note_off,170,0,0,,2,,,74,127
22993,note_off,0,0,0,,12,,,71,127
22993,note_off,0,0,0,,10,,,57,127
22993,note_off,0,0,0,,10,,,45,127
22994,note_on,1,0,0,,1,,,49,127
22994,note_on,0,0,0,,1,,,73,127
22994,note_on,0,0,0,,4,,,76,127
23164,note_off,170,0,0,,4,,,76,127
23164,note_off,0,0,0,,1,,,73,127
23164,note_off,0,0,0,,1,,,49,127
23165,note_on,1,0,0,,2,,,50,127
23165,note_on,0,0,0,,12,,,71,127
23165,note_on,0,0,0,,2,,,74,127
23335,note_off,170,0,0,,2,,,74,127
23335,note_off,0,0,0,,12,,,71,127
23336,note_on,1,0,0,,1,,,73,127
23336,note_on,0,0,0,,10,,,69,127
23506,note_off,170,0,0,,10,,,69,127
23506,note_off,0,0,0,,1,,,73,127
23506,note_off,0,0,0,,2,,,50,127
23507,note_on,1,0,0,,4,,,52,127
23507,note_on,0,0,0,,8,,,68,127
23507,note_on,0,0,0,,12,,,71,127
23677,note_off,170,0,0,,12,,,71,127
23677,note_off,0,0,0,,8,,,68,127
23677,note_off,0,0,0,,4,,,52,127
23678,note_on,1,0,0,,10,,,45,127
23678,note_on,0,0,0,,10,,,69,127
23848,note_off,170,0,0,,10,,,45,127
23849,note_on,1,0,0,,12,,,47,127
23934,note_off,85,0,0,,10,,,69,127
24018,note_off,84,0,0,,12,,,47,127
24019,note_on,1,0,0,,0,,,48,127
24019,note_on,0,0,0,,0,,,72,127
24189,note_off,170,0,0,,0,,,72,127
24189,note_off,0,0,0,,0,,,48,127
24190,note_on,1,0,0,,2,,,50,127
24190,note_on,0,0,0,,12,,,71,127
24190,note_on,0,0,0,,10,,,69,127
24361,note_on,171,0,0,,12,,,59,127
24361,note_on,0,0,0,,10,,,57,127
24528,note_off,167,0,0,,2,,,50,127
24532,note_on,4,0,0,,4,,,52,127
24702,note_off,170,0,0,,4,,,52,127
24703,note_on,1,0,0,,5,,,53,127
24873,note_off,170,0,0,,10,,,57,127
24873,note_off,0,0,0,,12,,,59,127
24874,note_on,1,0,0,,10,,,57,127
24874,note_on,0,0,0,,12,,,59,127
25041,note_off,167,0,0,,5,,,53,127
25044,note_off,3,0,0,,10,,,69,127
25044,note_off,0,0,0,,12,,,71,127
25045,note_on,1,0,0,,0,,,48,127
25045,note_on,0,0,0,,0,,,72,127
25045,note_on,0,0,0,,10,,,69,127
25215,note_off,170,0,0,,10,,,69,127
25215,note_off,0,0,0,,0,,,72,127
25215,note_off,0,0,0,,0,,,48,127
25216,note_on,1,0,0,,2,,,50,127
25216,note_on,0,0,0,,12,,,71,127
25386,note_off,170,0,0,,12,,,59,127
25386,note_off,0,0,0,,10,,,57,127
25387,note_on,1,0,0,,10,,,57,127
25387,note_on,0,0,0,,12,,,59,127
25554,note_off,167,0,0,,2,,,50,127
25558,note_on,4,0,0,,4,,,52,127
25728,note_off,170,0,0,,4,,,52,127
25729,note_on,1,0,0,,5,,,53,127
25899,note_off,170,0,0,,12,,,59,127
25899,note_off,0,0,0,,10,,,57,127
25900,note_on,1,0,0,,10,,,57,127
25900,note_on,0,0,0,,12,,,59,127
26067,note_off,167,0,0,,5,,,53,127
26070,note_off,3,0,0,,12,,,71,127
26071,note_on,1,0,0,,4,,,52,127
26071,note_on,0,0,0,,10,,,69,127
26071,note_on,0,0,0,,0,,,72,127
26238,note_off,167,0,0,,10,,,57,127
26241,note_off,3,0,0,,0,,,72,127
26241,note_off,0,0,0,,10,,,69,127
26241,note_off,0,0,0,,4,,,52,127
26242,note_on,1,0,0,,2,,,50,127
26242,note_on,0,0,0,,12,,,71,127
26242,note_on,0,0,0,,8,,,68,127
26412,note_off,170,0,0,,8,,,68,127
26412,note_off,0,0,0,,12,,,71,127
26412,note_off,0,0,0,,2,,,50,127
26412,note_off,0,0,0,,12,,,59,127
26413,note_on,1,0,0,,0,,,48,127
26413,note_on,0,0,0,,10,,,57,127
26413,note_on,0,0,0,,0,,,72,127
26413,note_on,0,0,0,,10,,,69,127
26583,note_off,170,0,0,,10,,,69,127
26583,note_off,0,0,0,,0,,,72,127
26583,note_off,0,0,0,,10,,,57,127
26583,note_off,0,0,0,,0,,,48,127
26584,note_on,1,0,0,,12,,,47,127
26584,note_on,0,0,0,,8,,,56,127
26584,note_on,0,0,0,,2,,,74,127
26584,note_on,0,0,0,,12,,,71,127
26754,note_off,170,0,0,,12,,,71,127
26754,note_off,0,0,0,,2,,,74,127
26754,note_off,0,0,0,,8,,,56,127
26754,note_off,0,0,0,,12,,,47,127
26755,note_on,1,0,0,,10,,,57,127
26755,note_on,0,0,0,,10,,,45,127
26755,note_on,0,0,0,,10,,,69,127
26755,note_on,0,0,0,,0,,,72,127
26925,note_off,170,0,0,,0,,,72,127
26925,note_off,0,0,0,,10,,,69,127
26926,note_on,1,0,0,,12,,,71,127
26926,note_on,0,0,0,,2,,,74,127
27096,note_off,170,0,0,,2,,,74,127
27096,note_off,0,0,0,,12,,,71,127
27097,note_on,1,0,0,,0,,,72,127
27097,note_on,0,0,0,,4,,,76,127
27267,note_off,170,0,0,,10,,,45,127
27267,note_off,0,0,0,,10,,,57,127
27268,note_on,1,0,0,,2,,,50,127
27438,note_off,170,0,0,,4,,,76,127
27438,note_off,0,0,0,,0,,,72,127
27439,note_on,1,0,0,,12,,,71,127
27439,note_on,0,0,0,,2,,,74,127
27609,note_off,170,0,0,,2,,,74,127
27609,note_off,0,0,0,,12,,,71,127
27610,note_on,1,0,0,,10,,,69,127
27610,note_on,0,0,0,,0,,,72,127
27780,note_off,170,0,0,,0,,,72,127
27780,note_off,0,0,0,,10,,,69,127
27780,note_off,0,0,0,,2,,,50,127
27781,note_on,1,0,0,,4,,,52,127
27781,note_on,0,0,0,,8,,,68,127
27781,note_on,0,0,0,,12,,,71,127
27952,note_on,171,0,0,,12,,,59,127
28119,note_off,167,0,0,,4,,,52,127
28122,note_off,3,0,0,,12,,,59,127
28123,note_on,1,0,0,,4,,,52,127
28123,note_on,0,0,0,,1,,,61,127
28293,note_off,170,0,0,,1,,,61,127
28293,note_off,0,0,0,,4,,,52,127
28294,note_on,1,0,0,,2,,,62,127
28465,note_on,171,0,0,,6,,,54,127
28632,note_off,167,0,0,,2,,,62,127
28635,note_off,3,0,0,,6,,,54,127
28635,note_off,0,0,0,,12,,,71,127
28635,note_off,0,0,0,,8,,,68,127
28636,note_on,1,0,0,,4,,,52,127
28636,note_on,0,0,0,,1,,,61,127
28636,note_on,0,0,0,,10,,,69,127
28636,note_on,0,0,0,,1,,,73,127
28806,note_off,170,0,0,,1,,,73,127
28806,note_off,0,0,0,,1,,,61,127
28806,note_off,0,0,0,,4,,,52,127
28807,note_on,1,0,0,,2,,,50,127
28807,note_on,0,0,0,,12,,,71,127
28978,note_on,171,0,0,,12,,,59,127
29145,note_off,167,0,0,,2,,,50,127
29148,note_off,3,0,0,,12,,,59,127
29149,note_on,1,0,0,,4,,,52,127
29149,note_on,0,0,0,,1,,,61,127
29319,note_off,170,0,0,,1,,,61,127
29319,note_off,0,0,0,,4,,,52,127
29320,note_on,1,0,0,,2,,,62,127
29491,note_on,171,0,0,,6,,,54,127
29658,note_off,167,0,0,,2,,,62,127
29660,note_off,2,0,0,,10,,,69,127
29661,note_off,1,0,0,,6,,,54,127
29661,note_off,0,0,0,,12,,,71,127
29662,note_on,1,0,0,,1,,,61,127
29662,note_on,0,0,0,,4,,,52,127
29662,note_on,0,0,0,,10,,,69,127
29662,note_on,0,0,0,,1,,,73,127
29832,note_off,170,0,0,,1,,,73,127
29832,note_off,0,0,0,,4,,,52,127
29832,note_off,0,0,0,,1,,,61,127
29833,note_on,1,0,0,,2,,,50,127
29833,note_on,0,0,0,,12,,,71,127
30004,note_on,171,0,0,,12,,,59,127
30171,note_off,167,0,0,,2,,,50,127
30174,note_off,3,0,0,,12,,,59,127
30175,note_on,1,0,0,,4,,,52,127
30175,note_on,0,0,0,,1,,,61,127
30345,note_off,170,0,0,,1,,,61,127
30345,note_off,0,0,0,,4,,,52,127
30346,note_on,1,0,0,,12,,,59,127
30346,note_on,0,0,0,,2,,,50,127
30516,note_off,170,0,0,,2,,,50,127
30516,note_off,0,0,0,,12,,,59,127
30516,note_off,0,0,0,,12,,,71,127
30517,note_on,1,0,0,,1,,,49,127
30517,note_on,0,0,0,,10,,,57,127
30517,note_on,0,0,0,,1,,,73,127
30686,note_off,169,0,0,,10,,,69,127
30687,note_off,1,0,0,,1,,,73,127
30687,note_off,0,0,0,,10,,,57,127
30687,note_off,0,0,0,,1,,,49,127
30688,note_on,1,0,0,,12,,,47,127
30688,note_on,0,0,0,,8,,,56,127
30688,note_on,0,0,0,,8,,,68,127
30688,note_on,0,0,0,,2,,,74,127
30858,note_off,170,0,0,,2,,,74,127
30858,note_off,0,0,0,,8,,,68,127
30858,note_off,0,0,0,,8,,,56,127
30858,note_off,0,0,0,,12,,,47,127
30859,note_on,1,0,0,,10,,,45,127
30859,note_on,0,0,0,,10,,,57,127
30859,note_on,0,0,0,,10,,,69,127
30859,note_on,0,0,0,,1,,,73,127
31029,note_off,170,0,0,,1,,,73,127
31029,note_off,0,0,0,,10,,,69,127
31030,note_on,1,0,0,,2,,,74,127
31030,note_on,0,0,0,,12,,,71,127
31200,note_off,170,0,0,,12,,,71,127
31200,note_off,0,0,0,,2,,,74,127
31200,note_off,0,0,0,,10,,,57,127
31200,note_off,0,0,0,,10,,,45,127
31201,note_on,1,0,0,,10,,,57,127
31201,note_on,0,0,0,,1,,,73,127
31201,note_on,0,0,0,,4,,,76,127
31371,note_off,170,0,0,,4,,,76,127
31371,note_off,0,0,0,,1,,,73,127
31371,note_off,0,0,0,,10,,,57,127
31372,note_on,1,0,0,,2,,,50,127
31372,note_on,0,0,0,,2,,,74,127
31372,note_on,0,0,0,,12,,,71,127
31542,note_off,170,0,0,,12,,,71,127
31542,note_off,0,0,0,,2,,,74,127
31543,note_on,1,0,0,,1,,,73,127
31543,note_on,0,0,0,,10,,,69,127
31713,note_off,170,0,0,,10,,,69,127
31713,note_off,0,0,0,,1,,,73,127
31713,note_off,0,0,0,,2,,,50,127
31714,note_on,1,0,0,,4,,,52,127
31714,note_on,0,0,0,,8,,,68,127
31714,note_on,0,0,0,,12,,,71,127
31884,note_off,170,0,0,,12,,,71,127
31884,note_off,0,0,0,,8,,,68,127
31884,note_off,0,0,0,,4,,,52,127
31885,note_on,1,0,0,,10,,,45,127
31885,note_on,0,0,0,,10,,,57,127
31885,note_on,0,0,0,,10,,,69,127
32055,note_off,170,0,0,,10,,,45,127
32056,note_on,1,0,0,,12,,,47,127
32226,note_off,170,0,0,,12,,,47,127
32227,note_on,1,0,0,,1,,,49,127
32397,note_off,170,0,0,,1,,,49,127
32398,note_on,1,0,0,,2,,,50,127
32568,note_off,170,0,0,,2,,,50,127
32569,note_on,1,0,0,,1,,,49,127
32569,note_on,0,0,0,,10,,,81,127
32739,note_off,170,0,0,,10,,,81,127
32739,note_off,0,0,0,,1,,,49,127
32740,note_on,1,0,0,,12,,,47,127
32740,note_on,0,0,0,,10,,,81,127
32909,note_off,169,0,0,,10,,,69,127
32909,note_off,0,0,0,,10,,,57,127
32910,note_off,1,0,0,,10,,,81,127
32910,note_off,0,0,0,,12,,,47,127
32911,note_on,1,0,0,,10,,,45,127
32911,note_on,0,0,0,,10,,,57,127
32911,note_on,0,0,0,,10,,,69,127
32911,note_on,0,0,0,,1,,,73,127
33081,note_off,170,0,0,,10,,,45,127
33082,note_on,1,0,0,,12,,,47,127
33252,note_off,170,0,0,,12,,,47,127
33253,note_on,1,0,0,,1,,,49,127
33423,note_off,170,0,0,,1,,,49,127
33424,note_on,1,0,0,,2,,,50,127
33594,note_off,170,0,0,,2,,,50,127
33594,note_off,0,0,0,,1,,,73,127
33595,note_on,1,0,0,,1,,,49,127
33595,note_on,0,0,0,,10,,,81,127
33765,note_off,170,0,0,,10,,,81,127
33765,note_off,0,0,0,,1,,,49,127
33766,note_on,1,0,0,,12,,,47,127
33766,note_on,0,0,0,,10,,,81,127
33935,note_off,169,0,0,,10,,,69,127
33935,note_off,0,0,0,,10,,,57,127
33936,note_off,1,0,0,,10,,,81,127
33936,note_off,0,0,0,,12,,,47,127
33937,note_on,1,0,0,,10,,,57,127
33937,note_on,0,0,0,,10,,,45,127
33937,note_on,0,0,0,,1,,,73,127
33937,note_on,0,0,0,,10,,,69,127
34107,note_off,170,0,0,,10,,,45,127
34108,note_on,1,0,0,,12,,,47,127
34278,note_off,170,0,0,,12,,,47,127
34279,note_on,1,0,0,,1,,,49,127
34449,note_off,170,0,0,,1,,,49,127
34450,note_on,1,0,0,,2,,,50,127
34620,note_off,170,0,0,,2,,,50,127
34620,note_off,0,0,0,,1,,,73,127
34621,note_on,1,0,0,,1,,,49,127
34621,note_on,0,0,0,,10,,,81,127
34791,note_off,170,0,0,,10,,,81,127
34791,note_off,0,0,0,,1,,,49,127
34792,note_on,1,0,0,,12,,,47,127
34792,note_on,0,0,0,,10,,,81,127
34961,note_off,169,0,0,,10,,,69,127
34961,note_off,0,0,0,,10,,,57,127
34962,note_off,1,0,0,,10,,,81,127
34962,note_off,0,0,0,,12,,,47,127
34963,note_on,1,0,0,,10,,,45,127
34963,note_on,0,0,0,,10,,,57,127
34963,note_on,0,0,0,,10,,,69,127
34963,note_on,0,0,0,,1,,,73,127
35133,note_off,170,0,0,,1,,,73,127
35133,note_off,0,0,0,,10,,,69,127
35134,note_on,1,0,0,,12,,,71,127
35134,note_on,0,0,0,,2,,,74,127
35304,note_off,170,0,0,,2,,,74,127
35304,note_off,0,0,0,,12,,,71,127
35304,note_off,0,0,0,,10,,,57,127
35304,note_off,0,0,0,,10,,,45,127
35305,note_on,1,0,0,,10,,,57,127
35305,note_on,0,0,0,,1,,,73,127
35305,note_on,0,0,0,,4,,,76,127
35475,note_off,170,0,0,,4,,,76,127
35475,note_off,0,0,0,,1,,,73,127
35475,note_off,0,0,0,,10,,,57,127
35476,note_on,1,0,0,,2,,,50,127
35476,note_on,0,0,0,,2,,,74,127
35476,note_on,0,0,0,,12,,,71,127
35646,note_off,170,0,0,,12,,,71,127
35646,note_off,0,0,0,,2,,,74,127
35647,note_on,1,0,0,,10,,,69,127
35647,note_on,0,0,0,,1,,,73,127
35817,note_off,170,0,0,,1,,,73,127
35817,note_off,0,0,0,,10,,,69,127
35817,note_off,0,0,0,,2,,,50,127
35818,note_on,1,0,0,,4,,,52,127
35818,note_on,0,0,0,,12,,,71,127
35818,note_on,0,0,0,,8,,,68,127
35988,note_off,170,0,0,,8,,,68,127
35988,note_off,0,0,0,,12,,,71,127
35988,note_off,0,0,0,,4,,,52,127
35989,note_on,1,0,0,,10,,,45,127
35989,note_on,0,0,0,,10,,,57,127
35989,note_on,0,0,0,,10,,,69,127
36159,note_off,170,0,0,,10,,,45,127
36160,note_on,1,0,0,,12,,,47,127
36330,note_off,170,0,0,,12,,,47,127
36331,note_on,1,0,0,,1,,,49,127
36501,note_off,170,0,0,,1,,,49,127
36502,note_on,1,0,0,,2,,,50,127
36672,note_off,170,0,0,,2,,,50,127
36673,note_on,1,0,0,,1,,,49,127
36673,note_on,0,0,0,,10,,,81,127
36843,note_off,170,0,0,,10,,,81,127
36843,note_off,0,0,0,,1,,,49,127
36844,note_on,1,0,0,,12,,,47,127
36844,note_on,0,0,0,,10,,,81,127
37013,note_off,169,0,0,,10,,,69,127
37013,note_off,0,0,0,,10,,,57,127
37014,note_off,1,0,0,,10,,,81,127
37014,note_off,0,0,0,,12,,,47,127
37015,note_on,1,0,0,,10,,,57,127
37015,note_on,0,0,0,,10,,,45,127
37015,note_on,0,0,0,,10,,,69,127
37015,note_on,0,0,0,,1,,,73,127
37185,note_off,170,0,0,,10,,,45,127
37186,note_on,1,0,0,,12,,,47,127
37356,note_off,170,0,0,,12,,,47,127
37357,note_on,1,0,0,,1,,,49,127
37527,note_off,170,0,0,,1,,,49,127
37528,note_on,1,0,0,,2,,,50,127
37698,note_off,170,0,0,,2,,,50,127
37698,note_off,0,0,0,,1,,,73,127
37699,note_on,1,0,0,,1,,,49,127
37699,note_on,0,0,0,,10,,,81,127
37869,note_off,170,0,0,,10,,,81,127
37869,note_off,0,0,0,,1,,,49,127
37870,note_on,1,0,0,,12,,,47,127
37870,note_on,0,0,0,,10,,,81,127
38039,note_off,169,0,0,,10,,,69,127
38039,note_off,0,0,0,,10,,,57,127
38040,note_off,1,0,0,,10,,,81,127
38040,note_off,0,0,0,,12,,,47,127
38041,note_on,1,0,0,,10,,,45,127
38041,note_on,0,0,0,,10,,,57,127
38041,note_on,0,0,0,,1,,,73,127
38041,note_on,0,0,0,,10,,,69,127
38211,note_off,170,0,0,,10,,,69,127
38211,note_off,0,0,0,,1,,,73,127
38212,note_on,1,0,0,,12,,,71,127
38212,note_on,0,0,0,,2,,,74,127
38382,note_off,170,0,0,,2,,,74,127
38382,note_off,0,0,0,,12,,,71,127
38382,note_off,0,0,0,,10,,,57,127
38382,note_off,0,0,0,,10,,,45,127
38383,note_on,1,0,0,,10,,,57,127
38383,note_on,0,0,0,,1,,,73,127
38383,note_on,0,0,0,,4,,,76,127
38553,note_off,170,0,0,,4,,,76,127
38553,note_off,0,0,0,,1,,,73,127
38553,note_off,0,0,0,,10,,,57,127
38554,note_on,1,0,0,,2,,,50,127
38554,note_on,0,0,0,,12,,,71,127
38554,note_on,0,0,0,,2,,,74,127
38724,note_off,170,0,0,,2,,,74,127
38724,note_off,0,0,0,,12,,,71,127
38725,note_on,1,0,0,,10,,,69,127
38725,note_on,0,0,0,,1,,,73,127
38895,note_off,170,0,0,,1,,,73,127
38895,note_off,0,0,0,,10,,,69,127
38895,note_off,0,0,0,,2,,,50,127
38896,note_on,1,0,0,,4,,,52,127
38896,note_on,0,0,0,,12,,,71,127
38896,note_on,0,0,0,,8,,,68,127
39066,note_off,170,0,0,,8,,,68,127
39066,note_off,0,0,0,,12,,,71,127
39066,note_off,0,0,0,,4,,,52,127
39067,note_on,1,0,0,,10,,,45,127
39067,note_on,0,0,0,,10,,,69,127
39237,note_off,170,0,0,,10,,,69,127
39238,note_on,1,0,0,,4,,,76,127
39408,note_off,170,0,0,,4,,,76,127
39408,note_off,0,0,0,,10,,,45,127
39409,note_on,1,0,0,,10,,,57,127
39409,note_on,0,0,0,,1,,,73,127
39579,note_off,170,0,0,,1,,,73,127
39579,note_off,0,0,0,,10,,,57,127
39580,note_on,1,0,0,,2,,,50,127
39580,note_on,0,0,0,,6,,,78,127
39750,note_off,170,0,0,,6,,,78,127
39751,note_on,1,0,0,,2,,,74,127
39751,note_on,0,0,0,,12,,,71,127
39921,note_off,170,0,0,,12,,,71,127
39921,note_off,0,0,0,,2,,,74,127
39921,note_off,0,0,0,,2,,,50,127
39922,note_on,1,0,0,,8,,,56,127
39922,note_on,0,0,0,,8,,,68,127
39922,note_on,0,0,0,,12,,,71,127
40092,note_off,170,0,0,,12,,,71,127
40092,note_off,0,0,0,,8,,,68,127
40092,note_off,0,0,0,,8,,,56,127
40093,note_on,1,0,0,,1,,,49,127
40093,note_on,0,0,0,,4,,,76,127
40263,note_off,170,0,0,,4,,,76,127
40264,note_on,1,0,0,,10,,,69,127
40264,note_on,0,0,0,,1,,,73,127
40434,note_off,170,0,0,,1,,,73,127
40434,note_off,0,0,0,,10,,,69,127
40434,note_off,0,0,0,,1,,,49,127
40435,note_on,1,0,0,,6,,,54,127
40435,note_on,0,0,0,,6,,,66,127
40435,note_on,0,0,0,,10,,,69,127
40605,note_off,170,0,0,,10,,,69,127
40605,note_off,0,0,0,,6,,,66,127
40605,note_off,0,0,0,,6,,,54,127
40606,note_on,1,0,0,,2,,,50,127
40606,note_on,0,0,0,,2,,,74,127
40606,note_on,0,0,0,,12,,,71,127
40776,note_off,170,0,0,,12,,,71,127
40776,note_off,0,0,0,,2,,,74,127
40776,note_off,0,0,0,,2,,,50,127
40777,note_on,1,0,0,,4,,,52,127
40777,note_on,0,0,0,,1,,,73,127
40777,note_on,0,0,0,,10,,,69,127
40947,note_off,170,0,0,,10,,,69,127
40947,note_off,0,0,0,,1,,,73,127
40947,note_off,0,0,0,,4,,,52,127
40948,note_on,1,0,0,,4,,,40,127
40948,note_on,0,0,0,,8,,,68,127
40948,note_on,0,0,0,,12,,,71,127
41118,note_off,170,0,0,,12,,,71,127
41118,note_off,0,0,0,,8,,,68,127
41118,note_off,0,0,0,,4,,,40,127
41119,note_on,1,0,0,,10,,,45,127
41119,note_on,0,0,0,,10,,,69,127
41289,note_off,170,0,0,,10,,,69,127
41290,note_on,1,0,0,,4,,,76,127
41460,note_off,170,0,0,,4,,,76,127
41460,note_off,0,0,0,,10,,,45,127
41461,note_on,1,0,0,,10,,,57,127
41461,note_on,0,0,0,,1,,,73,127
41631,note_off,170,0,0,,1,,,73,127
41631,note_off,0,0,0,,10,,,57,127
41632,note_on,1,0,0,,2,,,50,127
41632,note_on,0,0,0,,6,,,78,127
41802,note_off,170,0,0,,6,,,78,127
41803,note_on,1,0,0,,12,,,71,127
41803,note_on,0,0,0,,2,,,74,127
41973,note_off,170,0,0,,2,,,74,127
41973,note_off,0,0,0,,12,,,71,127
41973,note_off,0,0,0,,2,,,50,127
41974,note_on,1,0,0,,8,,,56,127
41974,note_on,0,0,0,,12,,,71,127
41974,note_on,0,0,0,,8,,,68,127
42144,note_off,170,0,0,,8,,,68,127
42144,note_off,0,0,0,,12,,,71,127
42144,note_off,0,0,0,,8,,,56,127
42145,note_on,1,0,0,,1,,,49,127
42145,note_on,0,0,0,,4,,,76,127
42315,note_off,170,0,0,,4,,,76,127
42316,note_on,1,0,0,,1,,,73,127
42316,note_on,0,0,0,,10,,,69,127
42486,note_off,170,0,0,,10,,,69,127
42486,note_off,0,0,0,,1,,,73,127
42486,note_off,0,0,0,,1,,,49,127
42487,note_on,1,0,0,,6,,,54,127
42487,note_on,0,0,0,,10,,,69,127
42487,note_on,0,0,0,,6,,,66,127
42657,note_off,170,0,0,,6,,,66,127
42657,note_off,0,0,0,,10,,,69,127
42657,note_off,0,0,0,,6,,,54,127
42658,note_on,1,0,0,,2,,,50,127
42658,note_on,0,0,0,,2,,,74,127
42658,note_on,0,0,0,,12,,,71,127
42828,note_off,170,0,0,,12,,,71,127
42828,note_off,0,0,0,,2,,,74,127
42828,note_off,0,0,0,,2,,,50,127
42829,note_on,1,0,0,,4,,,52,127
42829,note_on,0,0,0,,1,,,73,127
42829,note_on,0,0,0,,10,,,69,127
42999,note_off,170,0,0,,10,,,69,127
42999,note_off,0,0,0,,1,,,73,127
42999,note_off,0,0,0,,4,,,52,127
43000,note_on,1,0,0,,4,,,40,127
43000,note_on,0,0,0,,8,,,68,127
43000,note_on,0,0,0,,12,,,71,127
43170,note_off,170,0,0,,12,,,71,127
43170,note_off,0,0,0,,8,,,68,127
43170,note_off,0,0,0,,4,,,40,127
43171,note_on,1,0,0,,10,,,45,127
43171,note_on,0,0,0,,10,,,69,127
43682,note_off,511,0,0,,10,,,69,127
43682,note_off,0,0,0,,10,,,45,127
43683,note_on,1,0,0,,10,,,57,127
43683,note_on,0,0,0,,1,,,73,127
43853,note_off,170,0,0,,10,,,57,127
43854,note_on,1,0,0,,10,,,57,127
44024,note_off,170,0,0,,10,,,57,127
44025,note_on,1,0,0,,10,,,57,127
44195,note_off,170,0,0,,10,,,57,127
44195,note_off,0,0,0,,1,,,73,127
44196,note_on,1,0,0,,7,,,55,127
44196,note_on,0,0,0,,12,,,71,127
44196,note_on,0,0,0,,1,,,73,127
44366,note_off,170,0,0,,7,,,55,127
44367,note_on,1,0,0,,7,,,55,127
44537,note_off,170,0,0,,7,,,55,127
44538,note_on,1,0,0,,7,,,55,127
44708,note_off,170,0,0,,7,,,55,127
44708,note_off,0,0,0,,1,,,73,127
44708,note_off,0,0,0,,12,,,71,127
44709,note_on,1,0,0,,6,,,54,127
44709,note_on,0,0,0,,11,,,70,127
44709,note_on,0,0,0,,1,,,73,127
44879,note_off,170,0,0,,6,,,54,127
44880,note_on,1,0,0,,6,,,54,127
45050,note_off,170,0,0,,6,,,54,127
45051,note_on,1,0,0,,6,,,54,127
45221,note_off,170,0,0,,6,,,54,127
45221,note_off,0,0,0,,1,,,73,127
45221,note_off,0,0,0,,11,,,70,127
45222,note_on,1,0,0,,4,,,52,127
45222,note_on,0,0,0,,7,,,67,127
45222,note_on,0,0,0,,11,,,70,127
45222,note_on,0,0,0,,1,,,73,127
45392,note_off,170,0,0,,4,,,52,127
45393,note_on,1,0,0,,4,,,52,127
45563,note_off,170,0,0,,4,,,52,127
45564,note_on,1,0,0,,4,,,52,127
45734,note_off,170,0,0,,4,,,52,127
45734,note_off,0,0,0,,1,,,73,127
45734,note_off,0,0,0,,11,,,70,127
45734,note_off,0,0,0,,7,,,67,127
45735,note_on,1,0,0,,2,,,50,127
45735,note_on,0,0,0,,6,,,66,127
45735,note_on,0,0,0,,12,,,71,127
45905,note_off,170,0,0,,2,,,50,127
45906,note_on,1,0,0,,2,,,50,127
46076,note_off,170,0,0,,2,,,50,127
46077,note_on,1,0,0,,2,,,50,127
46247,note_off,170,0,0,,2,,,50,127
46247,note_off,0,0,0,,12,,,71,127
46247,note_off,0,0,0,,6,,,66,127
46248,note_on,1,0,0,,1,,,49,127
46248,note_on,0,0,0,,4,,,64,127
46248,note_on,0,0,0,,11,,,70,127
46248,note_on,0,0,0,,1,,,73,127
46418,note_off,170,0,0,,1,,,49,127
46419,note_on,1,0,0,,1,,,49,127
46589,note_off,170,0,0,,1,,,49,127
46590,note_on,1,0,0,,1,,,49,127
46760,note_off,170,0,0,,1,,,49,127
46760,note_off,0,0,0,,1,,,73,127
46760,note_off,0,0,0,,11,,,70,127
46760,note_off,0,0,0,,4,,,64,127
46761,note_on,1,0,0,,12,,,47,127
46761,note_on,0,0,0,,6,,,66,127
46761,note_on,0,0,0,,2,,,74,127
46931,note_off,170,0,0,,2,,,74,127
46931,note_off,0,0,0,,12,,,47,127
46932,note_on,1,0,0,,1,,,49,127
46932,note_on,0,0,0,,1,,,73,127
47102,note_off,170,0,0,,1,,,73,127
47102,note_off,0,0,0,,1,,,49,127
47103,note_on,1,0,0,,2,,,50,127
47103,note_on,0,0,0,,12,,,71,127
47273,note_off,170,0,0,,12,,,71,127
47273,note_off,0,0,0,,2,,,50,127
47273,note_off,0,0,0,,6,,,66,127
47274,note_on,1,0,0,,4,,,52,127
47274,note_on,0,0,0,,12,,,71,127
47274,note_on,0,0,0,,1,,,73,127
47445,note_on,171,0,0,,1,,,61,127
47612,note_off,167,0,0,,4,,,52,127
47615,note_off,3,0,0,,1,,,61,127
47616,note_on,1,0,0,,6,,,54,127
47616,note_on,0,0,0,,2,,,62,127
47786,note_off,170,0,0,,2,,,62,127
47786,note_off,0,0,0,,6,,,54,127
47786,note_off,0,0,0,,1,,,73,127
47786,note_off,0,0,0,,12,,,71,127
47787,note_on,1,0,0,,7,,,55,127
47787,note_on,0,0,0,,12,,,71,127
47787,note_on,0,0,0,,1,,,73,127
47958,note_on,171,0,0,,4,,,64,127
48125,note_off,167,0,0,,7,,,55,127
48128,note_off,3,0,0,,4,,,64,127
48129,note_on,1,0,0,,6,,,54,127
48129,note_on,0,0,0,,2,,,62,127
48299,note_off,170,0,0,,2,,,62,127
48299,note_off,0,0,0,,6,,,54,127
48299,note_off,0,0,0,,1,,,73,127
48299,note_off,0,0,0,,12,,,71,127
48300,note_on,1,0,0,,4,,,52,127
48300,note_on,0,0,0,,1,,,73,127
48300,note_on,0,0,0,,12,,,71,127
48471,note_on,171,0,0,,1,,,61,127
48638,note_off,167,0,0,,4,,,52,127
48641,note_off,3,0,0,,1,,,61,127
48642,note_on,1,0,0,,6,,,54,127
48642,note_on,0,0,0,,2,,,62,127
48812,note_off,170,0,0,,2,,,62,127
48812,note_off,0,0,0,,6,,,54,127
48812,note_off,0,0,0,,12,,,71,127
48812,note_off,0,0,0,,1,,,73,127
48813,note_on,1,0,0,,7,,,55,127
48813,note_on,0,0,0,,12,,,71,127
48813,note_on,0,0,0,,1,,,73,127
48984,note_on,171,0,0,,4,,,64,127
49151,note_off,167,0,0,,7,,,55,127
49154,note_off,3,0,0,,4,,,64,127
49155,note_on,1,0,0,,2,,,62,127
49155,note_on,0,0,0,,6,,,54,127
49325,note_off,170,0,0,,6,,,54,127
49325,note_off,0,0,0,,2,,,62,127
49325,note_off,0,0,0,,1,,,73,127
49325,note_off,0,0,0,,12,,,71,127
49326,note_on,1,0,0,,4,,,52,127
49326,note_on,0,0,0,,1,,,61,127
49326,note_on,0,0,0,,1,,,73,127
49326,note_on,0,0,0,,11,,,70,127
49496,note_off,170,0,0,,11,,,70,127
49496,note_off,0,0,0,,1,,,73,127
49496,note_off,0,0,0,,1,,,61,127
49496,note_off,0,0,0,,4,,,52,127
49497,note_on,1,0,0,,2,,,50,127
49497,note_on,0,0,0,,12,,,59,127
49497,note_on,0,0,0,,12,,,71,127
49497,note_on,0,0,0,,2,,,74,127
49667,note_off,170,0,0,,2,,,74,127
49667,note_off,0,0,0,,12,,,71,127
49667,note_off,0,0,0,,12,,,59,127
49667,note_off,0,0,0,,2,,,50,127
49668,note_on,1,0,0,,1,,,49,127
49668,note_on,0,0,0,,11,,,58,127
49668,note_on,0,0,0,,4,,,76,127
49668,note_on,0,0,0,,1,,,73,127
49838,note_off,170,0,0,,1,,,73,127
49838,note_off,0,0,0,,4,,,76,127
49838,note_off,0,0,0,,11,,,58,127
49838,note_off,0,0,0,,1,,,49,127
49839,note_on,1,0,0,,12,,,59,127
49839,note_on,0,0,0,,12,,,47,127
49839,note_on,0,0,0,,2,,,74,127
49839,note_on,0,0,0,,12,,,71,127
50009,note_off,170,0,0,,2,,,74,127
50010,note_on,1,0,0,,4,,,76,127
50095,note_off,85,0,0,,12,,,71,127
50179,note_off,84,0,0,,4,,,76,127
50179,note_off,0,0,0,,12,,,47,127
50179,note_off,0,0,0,,12,,,59,127
50180,note_on,1,0,0,,11,,,46,127
50180,note_on,0,0,0,,11,,,58,127
50180,note_on,0,0,0,,6,,,78,127
50350,note_off,170,0,0,,6,,,78,127
50350,note_off,0,0,0,,11,,,58,127
50350,note_off,0,0,0,,11,,,46,127
50351,note_on,1,0,0,,12,,,47,127
50351,note_on,0,0,0,,12,,,59,127
50351,note_on,0,0,0,,2,,,74,127
50521,note_off,170,0,0,,2,,,74,127
50521,note_off,0,0,0,,12,,,59,127
50521,note_off,0,0,0,,12,,,47,127
50522,note_on,1,0,0,,10,,,45,127
50522,note_on,0,0,0,,10,,,57,127
50522,note_on,0,0,0,,1,,,73,127
50692,note_off,170,0,0,,1,,,73,127
50692,note_off,0,0,0,,10,,,57,127
50692,note_off,0,0,0,,10,,,45,127
50693,note_on,1,0,0,,7,,,43,127
50693,note_on,0,0,0,,7,,,55,127
50693,note_on,0,0,0,,12,,,71,127
50863,note_off,170,0,0,,12,,,71,127
50863,note_off,0,0,0,,7,,,55,127
50863,note_off,0,0,0,,7,,,43,127
50864,note_on,1,0,0,,6,,,42,127
50864,note_on,0,0,0,,6,,,54,127
50864,note_on,0,0,0,,2,,,74,127
50921,note_on,57,0,0,,1,,,73,127
50949,note_off,28,0,0,,2,,,74,127
50978,note_on,29,0,0,,2,,,74,127
51006,note_off,28,0,0,,1,,,73,127
51035,note_on,29,0,0,,1,,,73,127
51063,note_off,28,0,0,,2,,,74,127
51092,note_on,29,0,0,,2,,,74,127
51120,note_off,28,0,0,,1,,,73,127
51149,note_on,29,0,0,,1,,,73,127
51177,note_off,28,0,0,,2,,,74,127
51206,note_on,29,0,0,,2,,,74,127
51234,note_off,28,0,0,,1,,,73,127
51263,note_on,29,0,0,,1,,,73,127
51291,note_off,28,0,0,,2,,,74,127
51376,note_off,85,0,0,,1,,,73,127
51376,note_off,0,0,0,,6,,,54,127
51376,note_off,0,0,0,,6,,,42,127
51377,note_on,1,0,0,,6,,,66,127
51377,note_on,0,0,0,,6,,,78,127
51377,note_on,0,0,0,,10,,,81,127
51377,note_on,0,0,0,,1,,,73,127
51547,note_off,170,0,0,,6,,,66,127
51548,note_on,1,0,0,,10,,,69,127
51718,note_off,170,0,0,,10,,,69,127
51719,note_on,1,0,0,,6,,,66,127
51889,note_off,170,0,0,,6,,,66,127
51889,note_off,0,0,0,,1,,,73,127
51889,note_off,0,0,0,,10,,,81,127
51889,note_off,0,0,0,,6,,,78,127
51890,note_on,1,0,0,,4,,,64,127
51890,note_on,0,0,0,,6,,,78,127
51890,note_on,0,0,0,,10,,,81,127
51890,note_on,0,0,0,,1,,,73,127
52060,note_off,170,0,0,,4,,,64,127
52061,note_on,1,0,0,,10,,,69,127
52231,note_off,170,0,0,,10,,,69,127
52232,note_on,1,0,0,,4,,,64,127
52402,note_off,170,0,0,,4,,,64,127
52402,note_off,0,0,0,,1,,,73,127
52402,note_off,0,0,0,,10,,,81,127
52402,note_off,0,0,0,,6,,,78,127
52403,note_on,1,0,0,,2,,,62,127
52403,note_on,0,0,0,,6,,,78,127
52403,note_on,0,0,0,,10,,,81,127
52403,note_on,0,0,0,,1,,,73,127
52573,note_off,170,0,0,,2,,,62,127
52574,note_on,1,0,0,,10,,,69,127
52744,note_off,170,0,0,,10,,,69,127
52745,note_on,1,0,0,,2,,,62,127
52915,note_off,170,0,0,,2,,,62,127
52915,note_off,0,0,0,,1,,,73,127
52915,note_off,0,0,0,,10,,,81,127
52915,note_off,0,0,0,,6,,,78,127
52916,note_on,1,0,0,,1,,,61,127
52916,note_on,0,0,0,,10,,,81,127
52916,note_on,0,0,0,,6,,,78,127
52916,note_on,0,0,0,,1,,,73,127
53086,note_off,170,0,0,,1,,,61,127
53087,note_on,1,0,0,,10,,,69,127
53257,note_off,170,0,0,,10,,,69,127
53258,note_on,1,0,0,,1,,,61,127
53428,note_off,170,0,0,,1,,,61,127
53428,note_off,0,0,0,,1,,,73,127
53428,note_off,0,0,0,,6,,,78,127
53428,note_off,0,0,0,,10,,,81,127
53429,note_on,1,0,0,,12,,,59,127
53429,note_on,0,0,0,,6,,,78,127
53429,note_on,0,0,0,,8,,,80,127
53600,note_on,171,0,0,,8,,,68,127
53767,note_off,167,0,0,,12,,,59,127
53770,note_off,3,0,0,,8,,,68,127
53771,note_on,1,0,0,,1,,,61,127
53771,note_on,0,0,0,,10,,,69,127
53941,note_off,170,0,0,,10,,,69,127
53941,note_off,0,0,0,,1,,,61,127
53941,note_off,0,0,0,,8,,,80,127
53941,note_off,0,0,0,,6,,,78,127
53942,note_on,1,0,0,,2,,,62,127
53942,note_on,0,0,0,,6,,,78,127
53942,note_on,0,0,0,,8,,,80,127
54113,note_on,171,0,0,,12,,,71,127
54280,note_off,167,0,0,,2,,,62,127
54283,note_off,3,0,0,,12,,,71,127
54284,note_on,1,0,0,,1,,,61,127
54284,note_on,0,0,0,,10,,,69,127
54454,note_off,170,0,0,,10,,,69,127
54454,note_off,0,0,0,,1,,,61,127
54454,note_off,0,0,0,,8,,,80,127
54454,note_off,0,0,0,,6,,,78,127
54455,note_on,1,0,0,,12,,,59,127
54455,note_on,0,0,0,,8,,,80,127
54455,note_on,0,0,0,,6,,,78,127
54626,note_on,171,0,0,,8,,,68,127
54793,note_off,167,0,0,,12,,,59,127
54796,note_off,3,0,0,,8,,,68,127
54797,note_on,1,0,0,,1,,,61,127
54797,note_on,0,0,0,,10,,,69,127
54967,note_off,170,0,0,,10,,,69,127
54967,note_off,0,0,0,,1,,,61,127
54967,note_off,0,0,0,,6,,,78,127
54967,note_off,0,0,0,,8,,,80,127
54968,note_on,1,0,0,,2,,,62,127
54968,note_on,0,0,0,,6,,,78,127
54968,note_on,0,0,0,,8,,,80,127
55139,note_on,171,0,0,,12,,,71,127
55306,note_off,167,0,0,,2,,,62,127
55309,note_off,3,0,0,,12,,,71,127
55310,note_on,1,0,0,,10,,,69,127
55310,note_on,0,0,0,,1,,,61,127
55480,note_off,170,0,0,,1,,,61,127
55480,note_off,0,0,0,,10,,,69,127
55480,note_off,0,0,0,,8,,,80,127
55480,note_off,0,0,0,,6,,,78,127
55481,note_on,1,0,0,,12,,,59,127
55481,note_on,0,0,0,,8,,,68,127
55481,note_on,0,0,0,,8,,,80,127
55481,note_on,0,0,0,,5,,,77,127
55650,note_off,169,0,0,,5,,,77,127
55651,note_off,1,0,0,,8,,,80,127
55651,note_off,0,0,0,,8,,,68,127
55651,note_off,0,0,0,,12,,,59,127
55652,note_on,1,0,0,,6,,,66,127
55652,note_on,0,0,0,,10,,,57,127
55652,note_on,0,0,0,,10,,,81,127
55822,note_off,170,0,0,,10,,,81,127
55822,note_off,0,0,0,,10,,,57,127
55822,note_off,0,0,0,,6,,,66,127
55823,note_on,1,0,0,,8,,,56,127
55823,note_on,0,0,0,,5,,,65,127
55823,note_on,0,0,0,,12,,,83,127
55993,note_off,170,0,0,,12,,,83,127
55993,note_off,0,0,0,,5,,,65,127
55993,note_off,0,0,0,,8,,,56,127
55994,note_on,1,0,0,,6,,,54,127
55994,note_on,0,0,0,,6,,,66,127
55994,note_on,0,0,0,,10,,,81,127
55994,note_on,0,0,0,,6,,,78,127
56164,note_off,170,0,0,,6,,,78,127
56164,note_off,0,0,0,,10,,,81,127
56165,note_on,1,0,0,,8,,,80,127
56335,note_off,170,0,0,,8,,,80,127
56336,note_on,1,0,0,,6,,,78,127
56478,note_off,142,0,0,,6,,,78,127
56506,note_off,28,0,0,,6,,,66,127
56506,note_off,0,0,0,,6,,,54,127
56507,note_on,1,0,0,,10,,,57,127
56507,note_on,0,0,0,,4,,,76,127
56507,note_on,0,0,0,,6,,,78,127
56678,note_on,171,0,0,,6,,,66,127
56845,note_off,167,0,0,,10,,,57,127
56848,note_off,3,0,0,,6,,,66,127
56849,note_on,1,0,0,,12,,,59,127
56849,note_on,0,0,0,,7,,,67,127
57019,note_off,170,0,0,,7,,,67,127
57019,note_off,0,0,0,,12,,,59,127
57019,note_off,0,0,0,,6,,,78,127
57019,note_off,0,0,0,,4,,,76,127
57020,note_on,1,0,0,,0,,,60,127
57020,note_on,0,0,0,,4,,,76,127
57020,note_on,0,0,0,,6,,,78,127
57191,note_on,171,0,0,,10,,,69,127
57358,note_off,167,0,0,,0,,,60,127
57361,note_off,3,0,0,,10,,,69,127
57362,note_on,1,0,0,,12,,,59,127
57362,note_on,0,0,0,,7,,,67,127
57532,note_off,170,0,0,,7,,,67,127
57532,note_off,0,0,0,,12,,,59,127
57532,note_off,0,0,0,,6,,,78,127
57532,note_off,0,0,0,,4,,,76,127
57533,note_on,1,0,0,,10,,,57,127
57533,note_on,0,0,0,,4,,,76,127
57533,note_on,0,0,0,,6,,,78,127
57704,note_on,171,0,0,,6,,,66,127
57871,note_off,167,0,0,,10,,,57,127
57874,note_off,3,0,0,,6,,,66,127
57875,note_on,1,0,0,,12,,,59,127
57875,note_on,0,0,0,,7,,,67,127
58045,note_off,170,0,0,,7,,,67,127
58045,note_off,0,0,0,,12,,,59,127
58045,note_off,0,0,0,,6,,,78,127
58045,note_off,0,0,0,,4,,,76,127
58046,note_on,1,0,0,,0,,,60,127
58046,note_on,0,0,0,,4,,,76,127
58046,note_on,0,0,0,,6,,,78,127
58217,note_on,171,0,0,,10,,,69,127
58384,note_off,167,0,0,,0,,,60,127
58387,note_off,3,0,0,,10,,,69,127
58388,note_on,1,0,0,,12,,,59,127
58388,note_on,0,0,0,,7,,,67,127
58558,note_off,170,0,0,,7,,,67,127
58558,note_off,0,0,0,,12,,,59,127
58558,note_off,0,0,0,,6,,,78,127
58558,note_off,0,0,0,,4,,,76,127
58559,note_on,1,0,0,,6,,,66,127
58559,note_on,0,0,0,,10,,,57,127
58559,note_on,0,0,0,,6,,,78,127
58559,note_on,0,0,0,,4,,,76,127
58729,note_off,170,0,0,,6,,,78,127
58729,note_off,0,0,0,,10,,,57,127
58729,note_off,0,0,0,,6,,,66,127
58730,note_on,1,0,0,,4,,,64,127
58730,note_on,0,0,0,,7,,,55,127
58730,note_on,0,0,0,,7,,,79,127
58897,note_off,167,0,0,,4,,,76,127
58900,note_off,3,0,0,,7,,,79,127
58900,note_off,0,0,0,,7,,,55,127
58900,note_off,0,0,0,,4,,,64,127
58901,note_on,1,0,0,,6,,,54,127
58901,note_on,0,0,0,,3,,,63,127
58901,note_on,0,0,0,,3,,,75,127
58901,note_on,0,0,0,,10,,,81,127
59071,note_off,170,0,0,,10,,,81,127
59071,note_off,0,0,0,,3,,,75,127
59071,note_off,0,0,0,,3,,,63,127
59071,note_off,0,0,0,,6,,,54,127
59072,note_on,1,0,0,,4,,,52,127
59072,note_on,0,0,0,,4,,,64,127
59072,note_on,0,0,0,,4,,,76,127
59072,note_on,0,0,0,,7,,,79,127
59242,note_off,170,0,0,,7,,,79,127
59242,note_off,0,0,0,,4,,,76,127
59243,note_on,1,0,0,,6,,,78,127
59413,note_off,170,0,0,,6,,,78,127
59414,note_on,1,0,0,,4,,,76,127
59556,note_off,142,0,0,,4,,,76,127
59584,note_off,28,0,0,,4,,,64,127
59584,note_off,0,0,0,,4,,,52,127
59585,note_on,1,0,0,,7,,,55,127
59585,note_on,0,0,0,,4,,,76,127
59585,note_on,0,0,0,,2,,,74,127
59756,note_on,171,0,0,,4,,,64,127
59923,note_off,167,0,0,,7,,,55,127
59926,note_off,3,0,0,,4,,,64,127
59927,note_on,1,0,0,,10,,,57,127
59927,note_on,0,0,0,,6,,,66,127
60097,note_off,170,0,0,,6,,,66,127
60097,note_off,0,0,0,,10,,,57,127
60097,note_off,0,0,0,,2,,,74,127
60097,note_off,0,0,0,,4,,,76,127
60098,note_on,1,0,0,,12,,,59,127
60098,note_on,0,0,0,,2,,,74,127
60098,note_on,0,0,0,,4,,,76,127
60269,note_on,171,0,0,,7,,,67,127
60436,note_off,167,0,0,,12,,,59,127
60439,note_off,3,0,0,,7,,,67,127
60440,note_on,1,0,0,,10,,,57,127
60440,note_on,0,0,0,,6,,,66,127
60610,note_off,170,0,0,,6,,,66,127
60610,note_off,0,0,0,,10,,,57,127
60610,note_off,0,0,0,,4,,,76,127
60610,note_off,0,0,0,,2,,,74,127
60611,note_on,1,0,0,,7,,,55,127
60611,note_on,0,0,0,,2,,,74,127
60611,note_on,0,0,0,,4,,,76,127
60782,note_on,171,0,0,,4,,,64,127
60949,note_off,167,0,0,,7,,,55,127
60952,note_off,3,0,0,,4,,,64,127
60953,note_on,1,0,0,,10,,,57,127
60953,note_on,0,0,0,,6,,,66,127
61123,note_off,170,0,0,,6,,,66,127
61123,note_off,0,0,0,,10,,,57,127
61123,note_off,0,0,0,,4,,,76,127
61123,note_off,0,0,0,,2,,,74,127
61124,note_on,1,0,0,,12,,,59,127
61124,note_on,0,0,0,,2,,,74,127
61124,note_on,0,0,0,,4,,,76,127
61295,note_on,171,0,0,,7,,,67,127
61462,note_off,167,0,0,,12,,,59,127
61465,note_off,3,0,0,,7,,,67,127
61466,note_on,1,0,0,,10,,,57,127
61466,note_on,0,0,0,,6,,,66,127
61636,note_off,170,0,0,,6,,,66,127
61636,note_off,0,0,0,,10,,,57,127
61636,note_off,0,0,0,,4,,,76,127
61636,note_off,0,0,0,,2,,,74,127
61637,note_on,1,0,0,,7,,,55,127
61637,note_on,0,0,0,,4,,,64,127
61637,note_on,0,0,0,,1,,,73,127
61637,note_on,0,0,0,,4,,,76,127
61807,note_off,170,0,0,,4,,,76,127
61807,note_off,0,0,0,,4,,,64,127
61807,note_off,0,0,0,,7,,,55,127
61808,note_on,1,0,0,,2,,,62,127
61808,note_on,0,0,0,,6,,,54,127
61808,note_on,0,0,0,,6,,,78,127
61978,note_off,170,0,0,,6,,,78,127
61978,note_off,0,0,0,,6,,,54,127
61978,note_off,0,0,0,,2,,,62,127
61979,note_on,1,0,0,,4,,,52,127
61979,note_on,0,0,0,,1,,,61,127
61979,note_on,0,0,0,,7,,,79,127
62149,note_off,170,0,0,,7,,,79,127
62149,note_off,0,0,0,,1,,,61,127
62149,note_off,0,0,0,,4,,,52,127
62149,note_off,0,0,0,,1,,,73,127
62150,note_on,1,0,0,,2,,,62,127
62150,note_on,0,0,0,,2,,,50,127
62150,note_on,0,0,0,,2,,,74,127
62150,note_on,0,0,0,,6,,,78,127
62320,note_off,170,0,0,,6,,,78,127
62320,note_off,0,0,0,,2,,,74,127
62321,note_on,1,0,0,,7,,,79,127
62321,note_on,0,0,0,,4,,,76,127
62491,note_off,170,0,0,,4,,,76,127
62491,note_off,0,0,0,,7,,,79,127
62492,note_on,1,0,0,,10,,,81,127
62492,note_on,0,0,0,,6,,,78,127
62662,note_off,170,0,0,,2,,,50,127
62662,note_off,0,0,0,,2,,,62,127
62663,note_on,1,0,0,,7,,,43,127
62663,note_on,0,0,0,,7,,,55,127
62833,note_off,170,0,0,,6,,,78,127
62833,note_off,0,0,0,,10,,,81,127
62834,note_on,1,0,0,,4,,,76,127
62834,note_on,0,0,0,,7,,,79,127
63004,note_off,170,0,0,,7,,,79,127
63004,note_off,0,0,0,,4,,,76,127
63005,note_on,1,0,0,,6,,,78,127
63005,note_on,0,0,0,,2,,,74,127
63175,note_off,170,0,0,,2,,,74,127
63175,note_off,0,0,0,,6,,,78,127
63175,note_off,0,0,0,,7,,,55,127
63175,note_off,0,0,0,,7,,,43,127
63176,note_on,1,0,0,,10,,,57,127
63176,note_on,0,0,0,,10,,,45,127
63176,note_on,0,0,0,,1,,,73,127
63176,note_on,0,0,0,,6,,,78,127
63233,note_on,57,0,0,,4,,,76,127
63257,note_off,24,0,0,,6,,,78,127
63290,note_on,33,0,0,,6,,,78,127
63313,note_off,23,0,0,,4,,,76,127
63347,note_on,34,0,0,,4,,,76,127
63370,note_off,23,0,0,,6,,,78,127
64158,note_off,788,0,0,,4,,,76,127
64199,note_off,41,0,0,,1,,,73,127
64199,note_off,0,0,0,,10,,,45,127
64199,note_off,0,0,0,,10,,,57,127
64713,note_on,514,0,0,,2,,,62,127
64713,note_on,0,0,0,,2,,,74,127
64713,note_on,0,0,0,,2,,,86,127
64884,note_on,171,0,0,,5,,,65,127
65054,note_off,170,0,0,,5,,,65,127
65055,note_on,1,0,0,,7,,,67,127
65225,note_off,170,0,0,,7,,,67,127
65225,note_off,0,0,0,,2,,,86,127
65225,note_off,0,0,0,,2,,,74,127
65225,note_off,0,0,0,,2,,,62,127
65226,note_on,1,0,0,,10,,,57,127
65226,note_on,0,0,0,,10,,,69,127
65226,note_on,0,0,0,,0,,,72,127
65226,note_on,0,0,0,,0,,,84,127
65396,note_off,170,0,0,,10,,,69,127
65397,note_on,1,0,0,,4,,,64,127
65567,note_off,170,0,0,,4,,,64,127
65568,note_on,1,0,0,,6,,,66,127
65738,note_off,170,0,0,,6,,,66,127
65738,note_off,0,0,0,,0,,,84,127
65738,note_off,0,0,0,,0,,,72,127
65738,note_off,0,0,0,,10,,,57,127
65739,note_on,1,0,0,,7,,,67,127
65739,note_on,0,0,0,,7,,,55,127
65739,note_on,0,0,0,,11,,,70,127
65739,note_on,0,0,0,,11,,,82,127
65909,note_off,170,0,0,,7,,,67,127
65910,note_on,1,0,0,,2,,,62,127
66080,note_off,170,0,0,,2,,,62,127
66081,note_on,1,0,0,,4,,,64,127
66251,note_off,170,0,0,,4,,,64,127
66251,note_off,0,0,0,,11,,,82,127
66251,note_off,0,0,0,,11,,,70,127
66251,note_off,0,0,0,,7,,,55,127
66252,note_on,1,0,0,,5,,,65,127
66252,note_on,0,0,0,,5,,,53,127
66252,note_on,0,0,0,,10,,,81,127
66252,note_on,0,0,0,,10,,,69,127
66422,note_off,170,0,0,,5,,,65,127
66423,note_on,1,0,0,,0,,,60,127
66593,note_off,170,0,0,,0,,,60,127
66594,note_on,1,0,0,,2,,,62,127
66764,note_off,170,0,0,,2,,,62,127
66764,note_off,0,0,0,,10,,,69,127
66764,note_off,0,0,0,,10,,,81,127
66764,note_off,0,0,0,,5,,,53,127
66765,note_on,1,0,0,,4,,,52,127
66765,note_on,0,0,0,,4,,,64,127
66765,note_on,0,0,0,,7,,,67,127
66765,note_on,0,0,0,,7,,,79,127
66935,note_off,170,0,0,,4,,,64,127
66936,note_on,1,0,0,,12,,,59,127
67106,note_off,170,0,0,,12,,,59,127
67107,note_on,1,0,0,,1,,,61,127
67277,note_off,170,0,0,,1,,,61,127
67277,note_off,0,0,0,,7,,,79,127
67277,note_off,0,0,0,,7,,,67,127
67277,note_off,0,0,0,,4,,,52,127
67278,note_on,1,0,0,,2,,,50,127
67278,note_on,0,0,0,,2,,,62,127
67278,note_on,0,0,0,,5,,,65,127
67278,note_on,0,0,0,,5,,,77,127
67448,note_off,170,0,0,,5,,,77,127
67449,note_on,1,0,0,,4,,,76,127
67619,note_off,170,0,0,,4,,,76,127
67620,note_on,1,0,0,,5,,,77,127
67790,note_off,170,0,0,,5,,,65,127
67790,note_off,0,0,0,,2,,,62,127
67790,note_off,0,0,0,,2,,,50,127
67791,note_on,1,0,0,,7,,,43,127
67791,note_on,0,0,0,,7,,,55,127
67791,note_on,0,0,0,,11,,,70,127
67958,note_off,167,0,0,,5,,,77,127
67962,note_on,4,0,0,,4,,,76,127
68132,note_off,170,0,0,,4,,,76,127
68133,note_on,1,0,0,,2,,,74,127
68303,note_off,170,0,0,,2,,,74,127
68303,note_off,0,0,0,,11,,,70,127
68303,note_off,0,0,0,,7,,,55,127
68303,note_off,0,0,0,,7,,,43,127
68304,note_on,1,0,0,,10,,,45,127
68304,note_on,0,0,0,,10,,,57,127
68304,note_on,0,0,0,,2,,,74,127
68361,note_on,57,0,0,,1,,,73,127
68389,note_off,28,0,0,,2,,,74,127
68418,note_on,29,0,0,,2,,,74,127
68446,note_off,28,0,0,,1,,,73,127
68475,note_on,29,0,0,,1,,,73,127
68503,note_off,28,0,0,,2,,,74,127
68532,note_on,29,0,0,,2,,,74,127
68560,note_off,28,0,0,,1,,,73,127
68589,note_on,29,0,0,,1,,,73,127
68617,note_off,28,0,0,,2,,,74,127
68646,note_on,29,0,0,,2,,,74,127
68674,note_off,28,0,0,,1,,,73,127
68703,note_on,29,0,0,,1,,,73,127
68731,note_off,28,0,0,,2,,,74,127
68732,note_off,1,0,0,,10,,,45,127
68816,note_off,84,0,0,,1,,,73,127
68816,note_off,0,0,0,,10,,,57,127
68817,note_on,1,0,0,,2,,,62,127
68817,note_on,0,0,0,,2,,,74,127
68817,note_on,0,0,0,,2,,,86,127
68987,note_off,170,0,0,,2,,,62,127
68988,note_on,1,0,0,,6,,,66,127
69158,note_off,170,0,0,,6,,,66,127
69159,note_on,1,0,0,,7,,,67,127
69329,note_off,170,0,0,,7,,,67,127
69329,note_off,0,0,0,,2,,,86,127
69329,note_off,0,0,0,,2,,,74,127
69330,note_on,1,0,0,,10,,,57,127
69330,note_on,0,0,0,,10,,,69,127
69330,note_on,0,0,0,,1,,,73,127
69330,note_on,0,0,0,,1,,,85,127
69499,note_off,169,0,0,,10,,,57,127
69500,note_off,1,0,0,,10,,,69,127
69501,note_on,1,0,0,,4,,,64,127
69671,note_off,170,0,0,,4,,,64,127
69672,note_on,1,0,0,,6,,,66,127
69842,note_off,170,0,0,,6,,,66,127
69842,note_off,0,0,0,,1,,,85,127
69842,note_off,0,0,0,,1,,,73,127
69843,note_on,1,0,0,,7,,,55,127
69843,note_on,0,0,0,,7,,,67,127
69843,note_on,0,0,0,,12,,,71,127
69843,note_on,0,0,0,,12,,,83,127
70012,note_off,169,0,0,,7,,,55,127
70013,note_off,1,0,0,,7,,,67,127
70014,note_on,1,0,0,,2,,,62,127
70184,note_off,170,0,0,,2,,,62,127
70185,note_on,1,0,0,,4,,,64,127
70355,note_off,170,0,0,,4,,,64,127
70355,note_off,0,0,0,,12,,,83,127
70355,note_off,0,0,0,,12,,,71,127
70356,note_on,1,0,0,,6,,,54,127
70356,note_on,0,0,0,,6,,,66,127
70356,note_on,0,0,0,,10,,,81,127
70356,note_on,0,0,0,,10,,,69,127
70525,note_off,169,0,0,,6,,,54,127
70526,note_off,1,0,0,,6,,,66,127
70527,note_on,1,0,0,,1,,,61,127
70697,note_off,170,0,0,,1,,,61,127
70698,note_on,1,0,0,,2,,,62,127
70868,note_off,170,0,0,,2,,,62,127
70868,note_off,0,0,0,,10,,,69,127
70868,note_off,0,0,0,,10,,,81,127
70869,note_on,1,0,0,,4,,,52,127
70869,note_on,0,0,0,,4,,,64,127
70869,note_on,0,0,0,,7,,,67,127
70869,note_on,0,0,0,,7,,,79,127
71038,note_off,169,0,0,,4,,,52,127
71039,note_off,1,0,0,,4,,,64,127
71040,note_on,1,0,0,,12,,,59,127
71210,note_off,170,0,0,,12,,,59,127
71211,note_on,1,0,0,,1,,,61,127
71381,note_off,170,0,0,,1,,,61,127
71381,note_off,0,0,0,,7,,,79,127
71381,note_off,0,0,0,,7,,,67,127
71382,note_on,1,0,0,,2,,,62,127
71382,note_on,0,0,0,,2,,,50,127
71382,note_on,0,0,0,,6,,,78,127
71382,note_on,0,0,0,,2,,,74,127
71552,note_off,170,0,0,,2,,,74,127
71552,note_off,0,0,0,,6,,,78,127
71553,note_on,1,0,0,,4,,,76,127
71553,note_on,0,0,0,,7,,,79,127
71723,note_off,170,0,0,,7,,,79,127
71723,note_off,0,0,0,,4,,,76,127
71723,note_off,0,0,0,,2,,,50,127
71723,note_off,0,0,0,,2,,,62,127
71724,note_on,1,0,0,,6,,,54,127
71724,note_on,0,0,0,,6,,,78,127
71724,note_on,0,0,0,,10,,,81,127
71894,note_off,170,0,0,,10,,,81,127
71894,note_off,0,0,0,,6,,,78,127
71894,note_off,0,0,0,,6,,,54,127
71895,note_on,1,0,0,,7,,,55,127
71895,note_on,0,0,0,,4,,,76,127
71895,note_on,0,0,0,,7,,,79,127
72065,note_off,170,0,0,,7,,,79,127
72065,note_off,0,0,0,,4,,,76,127
72066,note_on,1,0,0,,2,,,74,127
72066,note_on,0,0,0,,6,,,78,127
72236,note_off,170,0,0,,6,,,78,127
72236,note_off,0,0,0,,2,,,74,127
72236,note_off,0,0,0,,7,,,55,127
72237,note_on,1,0,0,,10,,,57,127
72237,note_on,0,0,0,,4,,,76,127
72237,note_on,0,0,0,,1,,,73,127
72407,note_off,170,0,0,,1,,,73,127
72407,note_off,0,0,0,,4,,,76,127
72407,note_off,0,0,0,,10,,,57,127
72408,note_on,1,0,0,,2,,,50,127
72408,note_on,0,0,0,,2,,,74,127
72578,note_off,170,0,0,,2,,,50,127
72579,note_on,1,0,0,,4,,,52,127
72746,note_off,167,0,0,,2,,,74,127
72749,note_off,3,0,0,,4,,,52,127
72750,note_on,1,0,0,,5,,,53,127
72920,note_off,170,0,0,,5,,,53,127
72921,note_on,1,0,0,,7,,,55,127
72921,note_on,0,0,0,,4,,,76,127
72921,note_on,0,0,0,,11,,,70,127
73091,note_off,170,0,0,,4,,,76,127
73092,note_on,1,0,0,,5,,,77,127
73262,note_off,170,0,0,,5,,,77,127
73262,note_off,0,0,0,,7,,,55,127
73263,note_on,1,0,0,,10,,,57,127
73263,note_on,0,0,0,,7,,,79,127
73433,note_off,170,0,0,,10,,,57,127
73433,note_off,0,0,0,,11,,,70,127
73434,note_on,1,0,0,,11,,,58,127
73434,note_on,0,0,0,,2,,,62,127
73434,note_on,0,0,0,,11,,,70,127
73601,note_off,167,0,0,,7,,,79,127
73605,note_on,4,0,0,,1,,,73,127
73775,note_off,170,0,0,,1,,,73,127
73775,note_off,0,0,0,,11,,,58,127
73776,note_on,1,0,0,,10,,,57,127
73776,note_on,0,0,0,,2,,,74,127
73946,note_off,170,0,0,,2,,,74,127
73946,note_off,0,0,0,,10,,,57,127
73946,note_off,0,0,0,,11,,,70,127
73947,note_on,1,0,0,,7,,,55,127
73947,note_on,0,0,0,,11,,,70,127
73947,note_on,0,0,0,,4,,,76,127
74117,note_off,170,0,0,,4,,,76,127
74118,note_on,1,0,0,,5,,,77,127
74288,note_off,170,0,0,,5,,,77,127
74288,note_off,0,0,0,,7,,,55,127
74289,note_on,1,0,0,,10,,,57,127
74289,note_on,0,0,0,,7,,,79,127
74458,note_off,169,0,0,,2,,,62,127
74459,note_off,1,0,0,,10,,,57,127
74459,note_off,0,0,0,,11,,,70,127
74460,note_on,1,0,0,,11,,,58,127
74460,note_on,0,0,0,,2,,,62,127
74460,note_on,0,0,0,,11,,,70,127
74627,note_off,167,0,0,,7,,,79,127
74631,note_on,4,0,0,,1,,,73,127
74801,note_off,170,0,0,,1,,,73,127
74801,note_off,0,0,0,,11,,,58,127
74802,note_on,1,0,0,,10,,,57,127
74802,note_on,0,0,0,,2,,,74,127
74972,note_off,170,0,0,,2,,,74,127
74972,note_off,0,0,0,,10,,,57,127
74972,note_off,0,0,0,,11,,,70,127
74973,note_on,1,0,0,,7,,,55,127
74973,note_on,0,0,0,,11,,,70,127
74973,note_on,0,0,0,,4,,,76,127
75143,note_off,170,0,0,,4,,,76,127
75143,note_off,0,0,0,,7,,,55,127
75144,note_on,1,0,0,,5,,,53,127
75144,note_on,0,0,0,,5,,,77,127
75314,note_off,170,0,0,,5,,,77,127
75314,note_off,0,0,0,,5,,,53,127
75315,note_on,1,0,0,,4,,,52,127
75315,note_on,0,0,0,,7,,,79,127
75484,note_off,169,0,0,,2,,,62,127
75485,note_off,1,0,0,,7,,,79,127
75485,note_off,0,0,0,,4,,,52,127
75485,note_off,0,0,0,,11,,,70,127
75486,note_on,1,0,0,,2,,,50,127
75486,note_on,0,0,0,,2,,,74,127
75486,note_on,0,0,0,,5,,,77,127
75656,note_off,170,0,0,,5,,,77,127
75656,note_off,0,0,0,,2,,,74,127
75657,note_on,1,0,0,,4,,,76,127
75657,note_on,0,0,0,,7,,,79,127
75827,note_off,170,0,0,,7,,,79,127
75827,note_off,0,0,0,,4,,,76,127
75827,note_off,0,0,0,,2,,,50,127
75828,note_on,1,0,0,,2,,,62,127
75828,note_on,0,0,0,,10,,,81,127
75828,note_on,0,0,0,,5,,,77,127
75998,note_off,170,0,0,,5,,,77,127
75998,note_off,0,0,0,,10,,,81,127
75998,note_off,0,0,0,,2,,,62,127
75999,note_on,1,0,0,,7,,,55,127
75999,note_on,0,0,0,,7,,,79,127
75999,note_on,0,0,0,,4,,,76,127
76169,note_off,170,0,0,,4,,,76,127
76169,note_off,0,0,0,,7,,,79,127
76170,note_on,1,0,0,,2,,,74,127
76170,note_on,0,0,0,,5,,,77,127
76340,note_off,170,0,0,,5,,,77,127
76340,note_off,0,0,0,,2,,,74,127
76340,note_off,0,0,0,,7,,,55,127
76341,note_on,1,0,0,,10,,,57,127
76341,note_on,0,0,0,,1,,,73,127
76341,note_on,0,0,0,,4,,,76,127
76511,note_off,170,0,0,,4,,,76,127
76511,note_off,0,0,0,,1,,,73,127
76511,note_off,0,0,0,,10,,,57,127
76512,note_on,1,0,0,,2,,,50,127
76512,note_on,0,0,0,,2,,,74,127
76682,note_off,170,0,0,,2,,,50,127
76683,note_on,1,0,0,,4,,,52,127
76850,note_off,167,0,0,,2,,,74,127
76853,note_off,3,0,0,,4,,,52,127
76854,note_on,1,0,0,,6,,,54,127
77024,note_off,170,0,0,,6,,,54,127
77025,note_on,1,0,0,,7,,,55,127
77025,note_on,0,0,0,,2,,,74,127
77025,note_on,0,0,0,,4,,,76,127
77196,note_on,171,0,0,,4,,,64,127
77363,note_off,167,0,0,,7,,,55,127
77366,note_off,3,0,0,,4,,,64,127
77367,note_on,1,0,0,,6,,,66,127
77367,note_on,0,0,0,,10,,,57,127
77537,note_off,170,0,0,,10,,,57,127
77537,note_off,0,0,0,,6,,,66,127
77537,note_off,0,0,0,,4,,,76,127
77537,note_off,0,0,0,,2,,,74,127
77538,note_on,1,0,0,,12,,,59,127
77538,note_on,0,0,0,,2,,,74,127
77538,note_on,0,0,0,,4,,,76,127
77709,note_on,171,0,0,,7,,,67,127
77876,note_off,167,0,0,,12,,,59,127
77879,note_off,3,0,0,,7,,,67,127
77880,note_on,1,0,0,,10,,,57,127
77880,note_on,0,0,0,,6,,,66,127
78050,note_off,170,0,0,,6,,,66,127
78050,note_off,0,0,0,,10,,,57,127
78050,note_off,0,0,0,,4,,,76,127
78050,note_off,0,0,0,,2,,,74,127
78051,note_on,1,0,0,,7,,,55,127
78051,note_on,0,0,0,,4,,,76,127
78051,note_on,0,0,0,,2,,,74,127
78222,note_on,171,0,0,,4,,,64,127
78389,note_off,167,0,0,,7,,,55,127
78392,note_off,3,0,0,,4,,,64,127
78393,note_on,1,0,0,,10,,,57,127
78393,note_on,0,0,0,,6,,,66,127
78563,note_off,170,0,0,,6,,,66,127
78563,note_off,0,0,0,,10,,,57,127
78563,note_off,0,0,0,,2,,,74,127
78563,note_off,0,0,0,,4,,,76,127
78564,note_on,1,0,0,,12,,,59,127
78564,note_on,0,0,0,,4,,,76,127
78564,note_on,0,0,0,,2,,,74,127
78735,note_on,171,0,0,,7,,,67,127
78902,note_off,167,0,0,,12,,,59,127
78905,note_off,3,0,0,,7,,,67,127
78906,note_on,1,0,0,,10,,,57,127
78906,note_on,0,0,0,,6,,,66,127
79076,note_off,170,0,0,,6,,,66,127
79076,note_off,0,0,0,,10,,,57,127
79076,note_off,0,0,0,,2,,,74,127
79076,note_off,0,0,0,,4,,,76,127
79077,note_on,1,0,0,,7,,,55,127
79077,note_on,0,0,0,,4,,,64,127
79077,note_on,0,0,0,,4,,,76,127
79077,note_on,0,0,0,,1,,,73,127
79247,note_off,170,0,0,,4,,,76,127
79247,note_off,0,0,0,,4,,,64,127
79247,note_off,0,0,0,,7,,,55,127
79248,note_on,1,0,0,,2,,,62,127
79248,note_on,0,0,0,,6,,,54,127
79248,note_on,0,0,0,,6,,,78,127
79418,note_off,170,0,0,,6,,,78,127
79418,note_off,0,0,0,,6,,,54,127
79418,note_off,0,0,0,,2,,,62,127
79419,note_on,1,0,0,,4,,,52,127
79419,note_on,0,0,0,,1,,,61,127
79419,note_on,0,0,0,,7,,,79,127
79589,note_off,170,0,0,,7,,,79,127
79589,note_off,0,0,0,,1,,,61,127
79589,note_off,0,0,0,,4,,,52,127
79589,note_off,0,0,0,,1,,,73,127
79590,note_on,1,0,0,,2,,,62,127
79590,note_on,0,0,0,,2,,,50,127
79590,note_on,0,0,0,,2,,,74,127
79590,note_on,0,0,0,,6,,,78,127
79760,note_off,170,0,0,,6,,,78,127
79760,note_off,0,0,0,,2,,,74,127
79761,note_on,1,0,0,,7,,,79,127
79761,note_on,0,0,0,,4,,,76,127
79931,note_off,170,0,0,,4,,,76,127
79931,note_off,0,0,0,,7,,,79,127
79931,note_off,0,0,0,,2,,,50,127
79931,note_off,0,0,0,,2,,,62,127
79932,note_on,1,0,0,,6,,,54,127
79932,note_on,0,0,0,,6,,,78,127
79932,note_on,0,0,0,,10,,,81,127
80102,note_off,170,0,0,,10,,,81,127
80102,note_off,0,0,0,,6,,,78,127
80102,note_off,0,0,0,,6,,,54,127
80103,note_on,1,0,0,,7,,,55,127
80103,note_on,0,0,0,,7,,,79,127
80103,note_on,0,0,0,,4,,,76,127
80273,note_off,170,0,0,,4,,,76,127
80273,note_off,0,0,0,,7,,,79,127
80274,note_on,1,0,0,,6,,,78,127
80274,note_on,0,0,0,,2,,,74,127
80444,note_off,170,0,0,,2,,,74,127
80444,note_off,0,0,0,,6,,,78,127
80444,note_off,0,0,0,,7,,,55,127
80445,note_on,1,0,0,,10,,,57,127
80445,note_on,0,0,0,,1,,,73,127
80445,note_on,0,0,0,,4,,,76,127
80615,note_off,170,0,0,,4,,,76,127
80615,note_off,0,0,0,,1,,,73,127
80615,note_off,0,0,0,,10,,,57,127
80616,note_on,1,0,0,,2,,,50,127
80616,note_on,0,0,0,,2,,,74,127
80786,note_off,170,0,0,,2,,,50,127
80787,note_on,1,0,0,,6,,,54,127
80957,note_off,170,0,0,,6,,,54,127
80958,note_on,1,0,0,,7,,,55,127
81043,note_off,85,0,0,,2,,,74,127
81127,note_off,84,0,0,,7,,,55,127
81128,note_on,1,0,0,,10,,,45,127
81128,note_on,0,0,0,,10,,,57,127
81128,note_on,0,0,0,,10,,,69,127
81298,note_off,170,0,0,,10,,,45,127
81299,note_on,1,0,0,,12,,,47,127
81299,note_on,0,0,0,,10,,,81,127
81469,note_off,170,0,0,,10,,,81,127
81469,note_off,0,0,0,,12,,,47,127
81470,note_on,1,0,0,,1,,,49,127
81470,note_on,0,0,0,,10,,,81,127
81640,note_off,170,0,0,,10,,,81,127
81640,note_off,0,0,0,,1,,,49,127
81640,note_off,0,0,0,,10,,,69,127
81641,note_on,1,0,0,,2,,,50,127
81641,note_on,0,0,0,,10,,,69,127
81641,note_on,0,0,0,,7,,,79,127
81811,note_off,170,0,0,,10,,,57,127
81812,note_on,1,0,0,,7,,,55,127
81982,note_off,170,0,0,,7,,,55,127
81982,note_off,0,0,0,,7,,,79,127
81983,note_on,1,0,0,,6,,,54,127
81983,note_on,0,0,0,,6,,,78,127
82153,note_off,170,0,0,,6,,,54,127
82153,note_off,0,0,0,,10,,,69,127
82153,note_off,0,0,0,,2,,,50,127
82154,note_on,1,0,0,,10,,,45,127
82154,note_on,0,0,0,,10,,,57,127
82154,note_on,0,0,0,,10,,,69,127
82324,note_off,170,0,0,,10,,,45,127
82324,note_off,0,0,0,,6,,,78,127
82325,note_on,1,0,0,,12,,,47,127
82325,note_on,0,0,0,,10,,,81,127
82495,note_off,170,0,0,,10,,,81,127
82495,note_off,0,0,0,,12,,,47,127
82496,note_on,1,0,0,,1,,,49,127
82496,note_on,0,0,0,,10,,,81,127
82666,note_off,170,0,0,,10,,,81,127
82666,note_off,0,0,0,,1,,,49,127
82666,note_off,0,0,0,,10,,,69,127
82667,note_on,1,0,0,,2,,,50,127
82667,note_on,0,0,0,,7,,,79,127
82667,note_on,0,0,0,,10,,,69,127
82837,note_off,170,0,0,,10,,,57,127
82838,note_on,1,0,0,,7,,,55,127
83008,note_off,170,0,0,,7,,,55,127
83008,note_off,0,0,0,,7,,,79,127
83009,note_on,1,0,0,,6,,,54,127
83009,note_on,0,0,0,,6,,,78,127
83179,note_off,170,0,0,,6,,,54,127
83179,note_off,0,0,0,,10,,,69,127
83179,note_off,0,0,0,,2,,,50,127
83180,note_on,1,0,0,,10,,,45,127
83180,note_on,0,0,0,,10,,,57,127
83180,note_on,0,0,0,,10,,,69,127
83350,note_off,170,0,0,,10,,,45,127
83350,note_off,0,0,0,,6,,,78,127
83351,note_on,1,0,0,,12,,,47,127
83351,note_on,0,0,0,,10,,,81,127
83521,note_off,170,0,0,,10,,,81,127
83521,note_off,0,0,0,,12,,,47,127
83522,note_on,1,0,0,,1,,,49,127
83522,note_on,0,0,0,,10,,,81,127
83692,note_off,170,0,0,,10,,,81,127
83692,note_off,0,0,0,,1,,,49,127
83692,note_off,0,0,0,,10,,,69,127
83692,note_off,0,0,0,,10,,,57,127
83693,note_on,1,0,0,,2,,,50,127
83693,note_on,0,0,0,,2,,,74,127
83693,note_on,0,0,0,,6,,,78,127
83863,note_off,170,0,0,,6,,,78,127
83863,note_off,0,0,0,,2,,,74,127
83864,note_on,1,0,0,,7,,,79,127
83864,note_on,0,0,0,,4,,,76,127
84034,note_off,170,0,0,,4,,,76,127
84034,note_off,0,0,0,,7,,,79,127
84034,note_off,0,0,0,,2,,,50,127
84035,note_on,1,0,0,,2,,,62,127
84035,note_on,0,0,0,,6,,,78,127
84035,note_on,0,0,0,,10,,,81,127
84205,note_off,170,0,0,,10,,,81,127
84205,note_off,0,0,0,,6,,,78,127
84205,note_off,0,0,0,,2,,,62,127
84206,note_on,1,0,0,,7,,,55,127
84206,note_on,0,0,0,,4,,,76,127
84206,note_on,0,0,0,,7,,,79,127
84376,note_off,170,0,0,,7,,,79,127
84376,note_off,0,0,0,,4,,,76,127
84377,note_on,1,0,0,,2,,,74,127
84377,note_on,0,0,0,,6,,,78,127
84547,note_off,170,0,0,,6,,,78,127
84547,note_off,0,0,0,,2,,,74,127
84547,note_off,0,0,0,,7,,,55,127
84548,note_on,1,0,0,,10,,,57,127
84548,note_on,0,0,0,,1,,,73,127
84548,note_on,0,0,0,,4,,,76,127
84718,note_off,170,0,0,,4,,,76,127
84718,note_off,0,0,0,,1,,,73,127
84719,note_on,1,0,0,,2,,,50,127
84719,note_on,0,0,0,,2,,,74,127
84886,note_off,167,0,0,,10,,,57,127
84890,note_on,4,0,0,,7,,,55,127
85060,note_off,170,0,0,,7,,,55,127
85061,note_on,1,0,0,,6,,,54,127
85231,note_off,170,0,0,,6,,,54,127
85231,note_off,0,0,0,,2,,,74,127
85231,note_off,0,0,0,,2,,,50,127
85232,note_on,1,0,0,,10,,,57,127
85232,note_on,0,0,0,,10,,,45,127
85232,note_on,0,0,0,,10,,,69,127
85402,note_off,170,0,0,,10,,,45,127
85403,note_on,1,0,0,,12,,,47,127
85403,note_on,0,0,0,,10,,,81,127
85573,note_off,170,0,0,,10,,,81,127
85573,note_off,0,0,0,,12,,,47,127
85574,note_on,1,0,0,,1,,,49,127
85574,note_on,0,0,0,,10,,,81,127
85744,note_off,170,0,0,,10,,,81,127
85744,note_off,0,0,0,,1,,,49,127
85744,note_off,0,0,0,,10,,,69,127
85745,note_on,1,0,0,,2,,,50,127
85745,note_on,0,0,0,,10,,,69,127
85745,note_on,0,0,0,,7,,,79,127
85915,note_off,170,0,0,,10,,,57,127
85916,note_on,1,0,0,,7,,,55,127
86086,note_off,170,0,0,,7,,,55,127
86086,note_off,0,0,0,,7,,,79,127
86087,note_on,1,0,0,,6,,,54,127
86087,note_on,0,0,0,,6,,,78,127
86257,note_off,170,0,0,,6,,,54,127
86257,note_off,0,0,0,,10,,,69,127
86257,note_off,0,0,0,,2,,,50,127
86258,note_on,1,0,0,,10,,,45,127
86258,note_on,0,0,0,,10,,,57,127
86258,note_on,0,0,0,,10,,,69,127
86428,note_off,170,0,0,,10,,,45,127
86428,note_off,0,0,0,,6,,,78,127
86429,note_on,1,0,0,,12,,,47,127
86429,note_on,0,0,0,,10,,,81,127
86599,note_off,170,0,0,,10,,,81,127
86599,note_off,0,0,0,,12,,,47,127
86600,note_on,1,0,0,,1,,,49,127
86600,note_on,0,0,0,,10,,,81,127
86770,note_off,170,0,0,,10,,,81,127
86770,note_off,0,0,0,,1,,,49,127
86770,note_off,0,0,0,,10,,,69,127
86770,note_off,0,0,0,,10,,,57,127
86771,note_on,1,0,0,,2,,,50,127
86771,note_on,0,0,0,,2,,,74,127
86771,note_on,0,0,0,,6,,,78,127
86941,note_off,170,0,0,,6,,,78,127
86941,note_off,0,0,0,,2,,,74,127
86942,note_on,1,0,0,,4,,,76,127
86942,note_on,0,0,0,,7,,,79,127
87112,note_off,170,0,0,,7,,,79,127
87112,note_off,0,0,0,,4,,,76,127
87112,note_off,0,0,0,,2,,,50,127
87113,note_on,1,0,0,,2,,,50,127
87113,note_on,0,0,0,,6,,,78,127
87113,note_on,0,0,0,,10,,,81,127
87283,note_off,170,0,0,,10,,,81,127
87283,note_off,0,0,0,,6,,,78,127
87283,note_off,0,0,0,,2,,,50,127
87284,note_on,1,0,0,,7,,,43,127
87284,note_on,0,0,0,,4,,,76,127
87284,note_on,0,0,0,,7,,,79,127
87454,note_off,170,0,0,,7,,,79,127
87454,note_off,0,0,0,,4,,,76,127
87455,note_on,1,0,0,,6,,,78,127
87455,note_on,0,0,0,,2,,,74,127
87625,note_off,170,0,0,,2,,,74,127
87625,note_off,0,0,0,,6,,,78,127
87625,note_off,0,0,0,,7,,,43,127
87626,note_on,1,0,0,,10,,,45,127
87626,note_on,0,0,0,,4,,,76,127
87626,note_on,0,0,0,,1,,,73,127
87796,note_off,170,0,0,,1,,,73,127
87796,note_off,0,0,0,,4,,,76,127
87796,note_off,0,0,0,,10,,,45,127
87797,note_on,1,0,0,,2,,,38,127
87797,note_on,0,0,0,,2,,,74,127
87967,note_off,170,0,0,,2,,,74,127
87968,note_on,1,0,0,,10,,,81,127
87968,note_on,0,0,0,,6,,,78,127
88138,note_off,170,0,0,,6,,,78,127
88138,note_off,0,0,0,,10,,,81,127
88138,note_off,0,0,0,,2,,,38,127
88139,note_on,1,0,0,,2,,,62,127
88139,note_on,0,0,0,,6,,,78,127
88139,note_on,0,0,0,,2,,,74,127
88309,note_off,170,0,0,,2,,,74,127
88309,note_off,0,0,0,,6,,,78,127
88309,note_off,0,0,0,,2,,,62,127
88310,note_on,1,0,0,,7,,,55,127
88310,note_on,0,0,0,,12,,,83,127
88480,note_off,170,0,0,,12,,,83,127
88481,note_on,1,0,0,,4,,,76,127
88481,note_on,0,0,0,,7,,,79,127
88651,note_off,170,0,0,,7,,,79,127
88651,note_off,0,0,0,,4,,,76,127
88651,note_off,0,0,0,,7,,,55,127
88652,note_on,1,0,0,,10,,,57,127
88652,note_on,0,0,0,,1,,,73,127
88652,note_on,0,0,0,,4,,,76,127
88822,note_off,170,0,0,,4,,,76,127
88822,note_off,0,0,0,,1,,,73,127
88822,note_off,0,0,0,,10,,,57,127
88823,note_on,1,0,0,,6,,,54,127
88823,note_on,0,0,0,,10,,,81,127
88993,note_off,170,0,0,,10,,,81,127
88994,note_on,1,0,0,,2,,,74,127
88994,note_on,0,0,0,,6,,,78,127
89164,note_off,170,0,0,,6,,,78,127
89164,note_off,0,0,0,,2,,,74,127
89164,note_off,0,0,0,,6,,,54,127
89165,note_on,1,0,0,,12,,,59,127
89165,note_on,0,0,0,,12,,,71,127
89165,note_on,0,0,0,,2,,,74,127
89335,note_off,170,0,0,,2,,,74,127
89335,note_off,0,0,0,,12,,,71,127
89335,note_off,0,0,0,,12,,,59,127
89336,note_on,1,0,0,,7,,,55,127
89336,note_on,0,0,0,,4,,,76,127
89336,note_on,0,0,0,,7,,,79,127
89506,note_off,170,0,0,,7,,,79,127
89506,note_off,0,0,0,,4,,,76,127
89506,note_off,0,0,0,,7,,,55,127
89507,note_on,1,0,0,,10,,,57,127
89507,note_on,0,0,0,,2,,,74,127
89507,note_on,0,0,0,,6,,,78,127
89677,note_off,170,0,0,,6,,,78,127
89677,note_off,0,0,0,,2,,,74,127
89677,note_off,0,0,0,,10,,,57,127
89678,note_on,1,0,0,,10,,,45,127
89678,note_on,0,0,0,,4,,,76,127
89678,note_on,0,0,0,,1,,,73,127
89848,note_off,170,0,0,,1,,,73,127
89848,note_off,0,0,0,,4,,,76,127
89848,note_off,0,0,0,,10,,,45,127
89849,note_on,1,0,0,,2,,,50,127
89849,note_on,0,0,0,,6,,,78,127
89849,note_on,0,0,0,,2,,,74,127
90019,note_off,170,0,0,,2,,,74,127
90019,note_off,0,0,0,,6,,,78,127
90020,note_on,1,0,0,,10,,,81,127
90020,note_on,0,0,0,,6,,,78,127
90190,note_off,170,0,0,,6,,,78,127
90190,note_off,0,0,0,,10,,,81,127
90190,note_off,0,0,0,,2,,,50,127
90191,note_on,1,0,0,,2,,,50,127
90191,note_on,0,0,0,,6,,,78,127
90191,note_on,0,0,0,,2,,,74,127
90361,note_off,170,0,0,,2,,,74,127
90361,note_off,0,0,0,,6,,,78,127
90361,note_off,0,0,0,,2,,,50,127
90362,note_on,1,0,0,,7,,,43,127
90362,note_on,0,0,0,,12,,,83,127
90532,note_off,170,0,0,,12,,,83,127
90533,note_on,1,0,0,,4,,,76,127
90533,note_on,0,0,0,,7,,,79,127
90703,note_off,170,0,0,,7,,,79,127
90703,note_off,0,0,0,,4,,,76,127
90703,note_off,0,0,0,,7,,,43,127
90704,note_on,1,0,0,,10,,,45,127
90704,note_on,0,0,0,,1,,,73,127
90704,note_on,0,0,0,,4,,,76,127
90874,note_off,170,0,0,,4,,,76,127
90874,note_off,0,0,0,,1,,,73,127
90874,note_off,0,0,0,,10,,,45,127
90875,note_on,1,0,0,,6,,,42,127
90875,note_on,0,0,0,,10,,,81,127
91045,note_off,170,0,0,,10,,,81,127
91046,note_on,1,0,0,,2,,,74,127
91046,note_on,0,0,0,,6,,,78,127
91216,note_off,170,0,0,,6,,,78,127
91216,note_off,0,0,0,,2,,,74,127
91216,note_off,0,0,0,,6,,,42,127
91217,note_on,1,0,0,,12,,,47,127
91217,note_on,0,0,0,,12,,,71,127
91217,note_on,0,0,0,,2,,,74,127
91387,note_off,170,0,0,,2,,,74,127
91387,note_off,0,0,0,,12,,,71,127
91387,note_off,0,0,0,,12,,,47,127
91394,note_on,7,0,0,,4,,,76,127
91394,note_on,0,0,0,,7,,,79,127
91394,note_on,0,0,0,,7,,,43,127
91574,note_off,180,0,0,,7,,,43,127
91574,note_off,0,0,0,,7,,,79,127
91574,note_off,0,0,0,,4,,,76,127
91579,note_on,5,0,0,,2,,,74,127
91579,note_on,0,0,0,,6,,,78,127
91579,note_on,0,0,0,,10,,,45,127
91759,note_off,180,0,0,,6,,,78,127
91759,note_off,0,0,0,,2,,,74,127
91763,note_on,4,0,0,,1,,,73,127
91763,note_on,0,0,0,,4,,,76,127
91763,note_on,0,0,0,,10,,,33,127
91936,note_off,173,0,0,,10,,,45,127
91942,note_off,6,0,0,,10,,,33,127
91967,note_off,25,0,0,,4,,,76,127
91967,note_off,0,0,0,,1,,,73,127
91995,note_on,28,0,0,,2,,,38,127
91995,note_on,0,0,0,,2,,,74,127
94203,note_off,2208,0,0,,2,,,74,127
94203,note_off,0,0,0,,2,,,38,127
99840,end_of_track,5637,1,0,,,,,,
