tick,type,time,meta,track,program,channel,pitch,tempo,note,velocity
0,copyright,0,1,0,,,,,,
0,program_change,0,0,0,6,0,,,,
0,pitchwheel,0,0,0,,0,0,,,
0,program_change,0,0,0,6,1,,,,
0,pitchwheel,0,0,0,,1,-590,,,
0,program_change,0,0,0,6,2,,,,
0,pitchwheel,0,0,0,,2,-272,,,
0,program_change,0,0,0,6,3,,,,
0,pitchwheel,0,0,0,,3,-353,,,
0,program_change,0,0,0,6,4,,,,
0,pitchwheel,0,0,0,,4,-560,,,
0,program_change,0,0,0,6,5,,,,
0,pitchwheel,0,0,0,,5,-80,,,
0,program_change,0,0,0,6,6,,,,
0,pitchwheel,0,0,0,,6,-625,,,
0,program_change,0,0,0,6,7,,,,
0,pitchwheel,0,0,0,,7,-130,,,
0,program_change,0,0,0,6,8,,,,
0,pitchwheel,0,0,0,,8,-512,,,
0,program_change,0,0,0,6,10,,,,
0,pitchwheel,0,0,0,,10,-464,,,
0,program_change,0,0,0,6,11,,,,
0,pitchwheel,0,0,0,,11,-208,,,
0,program_change,0,0,0,6,12,,,,
0,pitchwheel,0,0,0,,12,-553,,,
0,set_tempo,0,1,0,,,,500000,,
82,note_on,82,0,0,,5,,,65,127
162,note_off,80,0,0,,5,,,65,127
165,note_on,3,0,0,,10,,,69,127
245,note_off,80,0,0,,10,,,69,127
248,note_on,3,0,0,,7,,,67,127
328,note_off,80,0,0,,7,,,67,127
331,note_on,3,0,0,,11,,,70,127
411,note_off,80,0,0,,11,,,70,127
414,note_on,3,0,0,,10,,,69,127
494,note_off,80,0,0,,10,,,69,127
497,note_on,3,0,0,,0,,,72,127
577,note_off,80,0,0,,0,,,72,127
580,note_on,3,0,0,,11,,,70,127
660,note_off,80,0,0,,11,,,70,127
663,note_on,3,0,0,,2,,,74,127
743,note_off,80,0,0,,2,,,74,127
746,note_on,3,0,0,,0,,,72,127
826,note_off,80,0,0,,0,,,72,127
829,note_on,3,0,0,,5,,,77,127
909,note_off,80,0,0,,5,,,77,127
912,note_on,3,0,0,,4,,,76,127
992,note_off,80,0,0,,4,,,76,127
995,note_on,3,0,0,,7,,,79,127
1075,note_off,80,0,0,,7,,,79,127
1078,note_on,3,0,0,,5,,,77,127
1158,note_off,80,0,0,,5,,,77,127
1161,note_on,3,0,0,,10,,,81,127
1241,note_off,80,0,0,,10,,,81,127
1244,note_on,3,0,0,,7,,,79,127
1324,note_off,80,0,0,,7,,,79,127
1327,note_on,3,0,0,,11,,,82,127
1407,note_off,80,0,0,,11,,,82,127
1410,note_on,3,0,0,,10,,,81,127
1490,note_off,80,0,0,,10,,,81,127
1493,note_on,3,0,0,,2,,,86,127
1573,note_off,80,0,0,,2,,,86,127
1576,note_on,3,0,0,,0,,,84,127
1656,note_off,80,0,0,,0,,,84,127
1659,note_on,3,0,0,,11,,,82,127
1739,note_off,80,0,0,,11,,,82,127
1742,note_on,3,0,0,,10,,,81,127
1822,note_off,80,0,0,,10,,,81,127
1825,note_on,3,0,0,,7,,,79,127
1905,note_off,80,0,0,,7,,,79,127
1908,note_on,3,0,0,,5,,,77,127
1988,note_off,80,0,0,,5,,,77,127
1991,note_on,3,0,0,,4,,,76,127
2071,note_off,80,0,0,,4,,,76,127
2074,note_on,3,0,0,,5,,,53,127
2074,note_on,0,0,0,,5,,,77,127
2154,note_off,80,0,0,,5,,,53,127
2157,note_on,3,0,0,,10,,,57,127
2237,note_off,80,0,0,,10,,,57,127
2240,note_on,3,0,0,,7,,,55,127
2320,note_off,80,0,0,,7,,,55,127
2323,note_on,3,0,0,,11,,,58,127
2403,note_off,80,0,0,,11,,,58,127
2406,note_on,3,0,0,,10,,,57,127
2486,note_off,80,0,0,,10,,,57,127
2489,note_on,3,0,0,,0,,,60,127
2569,note_off,80,0,0,,0,,,60,127
2572,note_on,3,0,0,,11,,,58,127
2652,note_off,80,0,0,,11,,,58,127
2655,note_on,3,0,0,,2,,,62,127
2735,note_off,80,0,0,,2,,,62,127
2738,note_on,3,0,0,,0,,,60,127
2818,note_off,80,0,0,,0,,,60,127
2821,note_on,3,0,0,,5,,,65,127
2901,note_off,80,0,0,,5,,,65,127
2904,note_on,3,0,0,,4,,,64,127
2984,note_off,80,0,0,,4,,,64,127
2987,note_on,3,0,0,,7,,,67,127
3067,note_off,80,0,0,,7,,,67,127
3070,note_on,3,0,0,,5,,,65,127
3150,note_off,80,0,0,,5,,,65,127
3153,note_on,3,0,0,,10,,,69,127
3233,note_off,80,0,0,,10,,,69,127
3236,note_on,3,0,0,,7,,,67,127
3316,note_off,80,0,0,,7,,,67,127
3319,note_on,3,0,0,,11,,,70,127
3399,note_off,80,0,0,,11,,,70,127
3402,note_on,3,0,0,,10,,,69,127
3482,note_off,80,0,0,,10,,,69,127
3485,note_on,3,0,0,,2,,,74,127
3565,note_off,80,0,0,,2,,,74,127
3568,note_on,3,0,0,,0,,,72,127
3648,note_off,80,0,0,,0,,,72,127
3651,note_on,3,0,0,,11,,,70,127
3731,note_off,80,0,0,,11,,,70,127
3734,note_on,3,0,0,,10,,,69,127
3814,note_off,80,0,0,,10,,,69,127
3817,note_on,3,0,0,,7,,,67,127
3897,note_off,80,0,0,,7,,,67,127
3900,note_on,3,0,0,,5,,,65,127
3980,note_off,80,0,0,,5,,,65,127
3983,note_on,3,0,0,,4,,,64,127
4063,note_off,80,0,0,,4,,,64,127
4066,note_on,3,0,0,,5,,,65,127
4147,note_off,81,0,0,,5,,,77,127
4148,note_on,1,0,0,,5,,,77,127
4228,note_off,80,0,0,,5,,,77,127
4231,note_on,3,0,0,,4,,,76,127
4311,note_off,80,0,0,,4,,,76,127
4314,note_on,3,0,0,,5,,,77,127
4394,note_off,80,0,0,,5,,,77,127
4397,note_on,3,0,0,,10,,,81,127
4477,note_off,80,0,0,,10,,,81,127
4480,note_on,3,0,0,,5,,,77,127
4560,note_off,80,0,0,,5,,,77,127
4563,note_on,3,0,0,,4,,,76,127
4643,note_off,80,0,0,,4,,,76,127
4646,note_on,3,0,0,,5,,,77,127
4726,note_off,80,0,0,,5,,,77,127
4728,note_off,2,0,0,,5,,,65,127
4729,note_on,1,0,0,,11,,,70,127
4729,note_on,0,0,0,,5,,,65,127
4729,note_on,0,0,0,,2,,,74,127
4809,note_off,80,0,0,,2,,,74,127
4812,note_on,3,0,0,,5,,,77,127
4892,note_off,80,0,0,,5,,,77,127
4895,note_on,3,0,0,,4,,,76,127
4975,note_off,80,0,0,,4,,,76,127
4978,note_on,3,0,0,,5,,,77,127
5058,note_off,80,0,0,,5,,,77,127
5061,note_on,3,0,0,,10,,,81,127
5141,note_off,80,0,0,,10,,,81,127
5144,note_on,3,0,0,,5,,,77,127
5224,note_off,80,0,0,,5,,,77,127
5227,note_on,3,0,0,,4,,,76,127
5307,note_off,80,0,0,,4,,,76,127
5310,note_on,3,0,0,,5,,,77,127
5390,note_off,80,0,0,,5,,,77,127
5392,note_off,2,0,0,,5,,,65,127
5392,note_off,0,0,0,,11,,,70,127
5393,note_on,1,0,0,,5,,,65,127
5393,note_on,0,0,0,,10,,,69,127
5393,note_on,0,0,0,,0,,,72,127
5473,note_off,80,0,0,,0,,,72,127
5476,note_on,3,0,0,,5,,,77,127
5556,note_off,80,0,0,,5,,,77,127
5559,note_on,3,0,0,,4,,,76,127
5639,note_off,80,0,0,,4,,,76,127
5642,note_on,3,0,0,,5,,,77,127
5722,note_off,80,0,0,,5,,,77,127
5725,note_on,3,0,0,,10,,,81,127
5805,note_off,80,0,0,,10,,,81,127
5808,note_on,3,0,0,,5,,,77,127
5888,note_off,80,0,0,,5,,,77,127
5891,note_on,3,0,0,,4,,,76,127
5971,note_off,80,0,0,,4,,,76,127
5974,note_on,3,0,0,,5,,,77,127
6054,note_off,80,0,0,,5,,,77,127
6056,note_off,2,0,0,,10,,,69,127
6056,note_off,0,0,0,,5,,,65,127
6057,note_on,1,0,0,,7,,,67,127
6057,note_on,0,0,0,,0,,,60,127
6057,note_on,0,0,0,,11,,,70,127
6137,note_off,80,0,0,,11,,,70,127
6140,note_on,3,0,0,,5,,,77,127
6220,note_off,80,0,0,,5,,,77,127
6223,note_on,3,0,0,,4,,,76,127
6303,note_off,80,0,0,,4,,,76,127
6306,note_on,3,0,0,,5,,,77,127
6386,note_off,80,0,0,,5,,,77,127
6389,note_on,3,0,0,,10,,,81,127
6469,note_off,80,0,0,,10,,,81,127
6472,note_on,3,0,0,,5,,,77,127
6552,note_off,80,0,0,,5,,,77,127
6555,note_on,3,0,0,,4,,,76,127
6635,note_off,80,0,0,,4,,,76,127
6638,note_on,3,0,0,,5,,,77,127
6718,note_off,80,0,0,,5,,,77,127
6720,note_off,2,0,0,,0,,,60,127
6721,note_on,1,0,0,,10,,,69,127
6802,note_off,81,0,0,,7,,,67,127
6803,note_on,1,0,0,,5,,,65,127
6883,note_off,80,0,0,,5,,,65,127
6886,note_on,3,0,0,,4,,,64,127
6966,note_off,80,0,0,,4,,,64,127
6969,note_on,3,0,0,,5,,,65,127
7048,note_off,79,0,0,,10,,,69,127
7049,note_off,1,0,0,,5,,,65,127
7052,note_on,3,0,0,,10,,,69,127
7132,note_off,80,0,0,,10,,,69,127
7135,note_on,3,0,0,,5,,,65,127
7215,note_off,80,0,0,,5,,,65,127
7218,note_on,3,0,0,,4,,,64,127
7298,note_off,80,0,0,,4,,,64,127
7301,note_on,3,0,0,,5,,,65,127
7381,note_off,80,0,0,,5,,,65,127
7384,note_on,3,0,0,,2,,,62,127
7384,note_on,0,0,0,,7,,,79,127
7436,note_off,52,0,0,,7,,,79,127
7439,note_on,3,0,0,,5,,,77,127
7464,note_off,25,0,0,,2,,,62,127
7467,note_on,3,0,0,,5,,,65,127
7492,note_off,25,0,0,,5,,,77,127
7495,note_on,3,0,0,,7,,,79,127
7547,note_off,52,0,0,,7,,,79,127
7547,note_off,0,0,0,,5,,,65,127
7550,note_on,3,0,0,,4,,,64,127
7550,note_on,0,0,0,,5,,,77,127
7602,note_off,52,0,0,,5,,,77,127
7605,note_on,3,0,0,,7,,,79,127
7630,note_off,25,0,0,,4,,,64,127
7633,note_on,3,0,0,,5,,,65,127
7658,note_off,25,0,0,,7,,,79,127
7661,note_on,3,0,0,,5,,,77,127
7713,note_off,52,0,0,,5,,,77,127
7713,note_off,0,0,0,,5,,,65,127
7716,note_on,3,0,0,,7,,,67,127
7716,note_on,0,0,0,,7,,,79,127
7768,note_off,52,0,0,,7,,,79,127
7771,note_on,3,0,0,,5,,,77,127
7796,note_off,25,0,0,,7,,,67,127
7799,note_on,3,0,0,,5,,,65,127
7824,note_off,25,0,0,,5,,,77,127
7827,note_on,3,0,0,,7,,,79,127
7879,note_off,52,0,0,,7,,,79,127
7879,note_off,0,0,0,,5,,,65,127
7882,note_on,3,0,0,,4,,,64,127
7882,note_on,0,0,0,,5,,,77,127
7934,note_off,52,0,0,,5,,,77,127
7937,note_on,3,0,0,,7,,,79,127
7962,note_off,25,0,0,,4,,,64,127
7965,note_on,3,0,0,,5,,,65,127
7990,note_off,25,0,0,,7,,,79,127
7993,note_on,3,0,0,,5,,,77,127
8045,note_off,52,0,0,,5,,,77,127
8045,note_off,0,0,0,,5,,,65,127
8048,note_on,3,0,0,,0,,,60,127
8048,note_on,0,0,0,,7,,,79,127
8100,note_off,52,0,0,,7,,,79,127
8103,note_on,3,0,0,,5,,,77,127
8128,note_off,25,0,0,,0,,,60,127
8131,note_on,3,0,0,,5,,,65,127
8211,note_off,80,0,0,,5,,,65,127
8214,note_on,3,0,0,,4,,,64,127
8294,note_off,80,0,0,,4,,,64,127
8297,note_on,3,0,0,,5,,,65,127
8377,note_off,80,0,0,,5,,,65,127
8380,note_on,3,0,0,,10,,,69,127
8460,note_off,80,0,0,,10,,,69,127
8463,note_on,3,0,0,,5,,,65,127
8543,note_off,80,0,0,,5,,,65,127
8546,note_on,3,0,0,,4,,,64,127
8626,note_off,80,0,0,,4,,,64,127
8629,note_on,3,0,0,,5,,,65,127
8709,note_off,80,0,0,,5,,,65,127
8711,note_off,2,0,0,,5,,,77,127
8712,note_on,1,0,0,,11,,,58,127
8712,note_on,0,0,0,,7,,,79,127
8764,note_off,52,0,0,,7,,,79,127
8767,note_on,3,0,0,,5,,,77,127
8792,note_off,25,0,0,,11,,,58,127
8795,note_on,3,0,0,,5,,,65,127
8820,note_off,25,0,0,,5,,,77,127
8823,note_on,3,0,0,,7,,,79,127
8875,note_off,52,0,0,,7,,,79,127
8875,note_off,0,0,0,,5,,,65,127
8878,note_on,3,0,0,,4,,,64,127
8878,note_on,0,0,0,,5,,,77,127
8958,note_off,80,0,0,,4,,,64,127
8961,note_on,3,0,0,,5,,,65,127
9041,note_off,80,0,0,,5,,,65,127
9044,note_on,3,0,0,,10,,,69,127
9124,note_off,80,0,0,,10,,,69,127
9127,note_on,3,0,0,,5,,,65,127
9207,note_off,80,0,0,,5,,,65,127
9210,note_on,3,0,0,,4,,,64,127
9290,note_off,80,0,0,,4,,,64,127
9293,note_on,3,0,0,,5,,,65,127
9373,note_off,80,0,0,,5,,,65,127
9375,note_off,2,0,0,,5,,,77,127
9376,note_on,1,0,0,,10,,,57,127
9376,note_on,0,0,0,,7,,,79,127
9428,note_off,52,0,0,,7,,,79,127
9431,note_on,3,0,0,,5,,,77,127
9456,note_off,25,0,0,,10,,,57,127
9459,note_on,3,0,0,,5,,,65,127
9484,note_off,25,0,0,,5,,,77,127
9487,note_on,3,0,0,,7,,,79,127
9539,note_off,52,0,0,,7,,,79,127
9539,note_off,0,0,0,,5,,,65,127
9542,note_on,3,0,0,,4,,,64,127
9542,note_on,0,0,0,,5,,,77,127
9622,note_off,80,0,0,,4,,,64,127
9625,note_on,3,0,0,,5,,,65,127
9705,note_off,80,0,0,,5,,,65,127
9708,note_on,3,0,0,,10,,,69,127
9788,note_off,80,0,0,,10,,,69,127
9791,note_on,3,0,0,,5,,,65,127
9871,note_off,80,0,0,,5,,,65,127
9874,note_on,3,0,0,,4,,,64,127
9954,note_off,80,0,0,,4,,,64,127
9957,note_on,3,0,0,,5,,,65,127
10037,note_off,80,0,0,,5,,,65,127
10039,note_off,2,0,0,,5,,,77,127
10040,note_on,1,0,0,,7,,,55,127
10040,note_on,0,0,0,,7,,,79,127
10092,note_off,52,0,0,,7,,,79,127
10095,note_on,3,0,0,,5,,,77,127
10120,note_off,25,0,0,,7,,,55,127
10123,note_on,3,0,0,,5,,,65,127
10148,note_off,25,0,0,,5,,,77,127
10151,note_on,3,0,0,,7,,,79,127
10203,note_off,52,0,0,,7,,,79,127
10203,note_off,0,0,0,,5,,,65,127
10206,note_on,3,0,0,,4,,,64,127
10206,note_on,0,0,0,,5,,,77,127
10286,note_off,80,0,0,,4,,,64,127
10289,note_on,3,0,0,,5,,,65,127
10369,note_off,80,0,0,,5,,,65,127
10372,note_on,3,0,0,,10,,,69,127
10452,note_off,80,0,0,,10,,,69,127
10455,note_on,3,0,0,,5,,,65,127
10535,note_off,80,0,0,,5,,,65,127
10538,note_on,3,0,0,,4,,,64,127
10618,note_off,80,0,0,,4,,,64,127
10621,note_on,3,0,0,,5,,,65,127
10701,note_off,80,0,0,,5,,,65,127
10704,note_on,3,0,0,,5,,,53,127
10785,note_off,81,0,0,,5,,,77,127
10786,note_on,1,0,0,,10,,,81,127
10866,note_off,80,0,0,,10,,,81,127
10869,note_on,3,0,0,,7,,,79,127
10949,note_off,80,0,0,,7,,,79,127
10952,note_on,3,0,0,,10,,,81,127
11032,note_off,80,0,0,,10,,,81,127
11035,note_on,3,0,0,,5,,,77,127
11115,note_off,80,0,0,,5,,,77,127
11118,note_on,3,0,0,,7,,,79,127
11198,note_off,80,0,0,,7,,,79,127
11201,note_on,3,0,0,,4,,,76,127
11281,note_off,80,0,0,,4,,,76,127
11284,note_on,3,0,0,,5,,,77,127
11364,note_off,80,0,0,,5,,,77,127
11366,note_off,2,0,0,,5,,,53,127
11367,note_on,1,0,0,,5,,,65,127
11367,note_on,0,0,0,,2,,,74,127
11447,note_off,80,0,0,,2,,,74,127
11450,note_on,3,0,0,,4,,,76,127
11530,note_off,80,0,0,,4,,,76,127
11533,note_on,3,0,0,,0,,,72,127
11613,note_off,80,0,0,,0,,,72,127
11616,note_on,3,0,0,,2,,,74,127
11696,note_off,80,0,0,,2,,,74,127
11699,note_on,3,0,0,,12,,,71,127
11779,note_off,80,0,0,,12,,,71,127
11782,note_on,3,0,0,,0,,,72,127
11862,note_off,80,0,0,,0,,,72,127
11865,note_on,3,0,0,,10,,,69,127
11945,note_off,80,0,0,,10,,,69,127
11948,note_on,3,0,0,,12,,,71,127
12028,note_off,80,0,0,,12,,,71,127
12030,note_off,2,0,0,,5,,,65,127
12031,note_on,1,0,0,,7,,,55,127
12031,note_on,0,0,0,,7,,,67,127
12111,note_off,80,0,0,,7,,,67,127
12111,note_off,0,0,0,,7,,,55,127
12114,note_on,3,0,0,,7,,,67,127
12194,note_off,80,0,0,,7,,,67,127
12197,note_on,3,0,0,,5,,,65,127
12277,note_off,80,0,0,,5,,,65,127
12280,note_on,3,0,0,,7,,,67,127
12362,note_on,82,0,0,,4,,,64,127
12442,note_off,80,0,0,,4,,,64,127
12445,note_on,3,0,0,,5,,,65,127
12525,note_off,80,0,0,,5,,,65,127
12528,note_on,3,0,0,,2,,,62,127
12608,note_off,80,0,0,,2,,,62,127
12611,note_on,3,0,0,,4,,,64,127
12691,note_off,80,0,0,,4,,,64,127
12694,note_off,3,0,0,,7,,,67,127
12694,note_on,0,0,0,,0,,,60,127
12694,note_on,0,0,0,,7,,,79,127
12774,note_off,80,0,0,,0,,,60,127
12777,note_on,3,0,0,,2,,,62,127
12857,note_off,80,0,0,,2,,,62,127
12860,note_on,3,0,0,,12,,,59,127
12940,note_off,80,0,0,,12,,,59,127
12943,note_on,3,0,0,,0,,,60,127
13023,note_off,80,0,0,,0,,,60,127
13026,note_on,3,0,0,,10,,,57,127
13106,note_off,80,0,0,,10,,,57,127
13109,note_on,3,0,0,,12,,,59,127
13189,note_off,80,0,0,,12,,,59,127
13192,note_on,3,0,0,,7,,,55,127
13272,note_off,80,0,0,,7,,,55,127
13275,note_on,3,0,0,,10,,,57,127
13355,note_off,80,0,0,,10,,,57,127
13357,note_off,2,0,0,,7,,,79,127
13358,note_on,1,0,0,,5,,,53,127
13358,note_on,0,0,0,,10,,,81,127
13438,note_off,80,0,0,,5,,,53,127
13441,note_on,3,0,0,,7,,,55,127
13521,note_off,80,0,0,,7,,,55,127
13524,note_on,3,0,0,,4,,,52,127
13604,note_off,80,0,0,,4,,,52,127
13607,note_on,3,0,0,,5,,,53,127
13687,note_off,80,0,0,,5,,,53,127
13690,note_on,3,0,0,,2,,,50,127
13770,note_off,80,0,0,,2,,,50,127
13773,note_on,3,0,0,,4,,,52,127
13853,note_off,80,0,0,,4,,,52,127
13856,note_on,3,0,0,,0,,,48,127
13936,note_off,80,0,0,,0,,,48,127
13939,note_on,3,0,0,,2,,,50,127
14019,note_off,80,0,0,,2,,,50,127
14021,note_off,2,0,0,,10,,,81,127
14022,note_on,1,0,0,,12,,,47,127
14022,note_on,0,0,0,,0,,,84,127
14074,note_off,52,0,0,,0,,,84,127
14077,note_on,3,0,0,,12,,,83,127
14102,note_off,25,0,0,,12,,,47,127
14105,note_on,3,0,0,,0,,,48,127
14130,note_off,25,0,0,,12,,,83,127
14133,note_on,3,0,0,,0,,,84,127
14185,note_off,52,0,0,,0,,,84,127
14185,note_off,0,0,0,,0,,,48,127
14188,note_on,3,0,0,,10,,,45,127
14188,note_on,0,0,0,,12,,,83,127
14240,note_off,52,0,0,,12,,,83,127
14243,note_on,3,0,0,,0,,,84,127
14268,note_off,25,0,0,,10,,,45,127
14271,note_on,3,0,0,,12,,,47,127
14296,note_off,25,0,0,,0,,,84,127
14299,note_on,3,0,0,,12,,,83,127
14351,note_off,52,0,0,,12,,,83,127
14351,note_off,0,0,0,,12,,,47,127
14354,note_on,3,0,0,,7,,,43,127
14354,note_on,0,0,0,,0,,,84,127
14406,note_off,52,0,0,,0,,,84,127
14409,note_on,3,0,0,,12,,,83,127
14434,note_off,25,0,0,,7,,,43,127
14437,note_on,3,0,0,,10,,,45,127
14462,note_off,25,0,0,,12,,,83,127
14465,note_on,3,0,0,,0,,,84,127
14517,note_off,52,0,0,,0,,,84,127
14517,note_off,0,0,0,,10,,,45,127
14520,note_on,3,0,0,,5,,,41,127
14520,note_on,0,0,0,,12,,,83,127
14572,note_off,52,0,0,,12,,,83,127
14575,note_on,3,0,0,,10,,,81,127
14600,note_off,25,0,0,,5,,,41,127
14603,note_on,3,0,0,,7,,,43,127
14628,note_off,25,0,0,,10,,,81,127
14631,note_on,3,0,0,,12,,,83,127
14683,note_off,52,0,0,,12,,,83,127
14683,note_off,0,0,0,,7,,,43,127
14686,note_on,3,0,0,,4,,,40,127
14686,note_on,0,0,0,,0,,,84,127
14766,note_off,80,0,0,,0,,,84,127
14769,note_on,3,0,0,,7,,,79,127
14849,note_off,80,0,0,,7,,,79,127
14852,note_on,3,0,0,,5,,,77,127
14932,note_off,80,0,0,,5,,,77,127
14935,note_on,3,0,0,,7,,,79,127
15015,note_off,80,0,0,,7,,,79,127
15018,note_on,3,0,0,,4,,,76,127
15098,note_off,80,0,0,,4,,,76,127
15101,note_on,3,0,0,,5,,,77,127
15181,note_off,80,0,0,,5,,,77,127
15184,note_on,3,0,0,,2,,,74,127
15264,note_off,80,0,0,,2,,,74,127
15267,note_on,3,0,0,,4,,,76,127
15347,note_off,80,0,0,,4,,,76,127
15349,note_off,2,0,0,,4,,,40,127
15350,note_on,1,0,0,,4,,,52,127
15350,note_on,0,0,0,,0,,,72,127
15430,note_off,80,0,0,,0,,,72,127
15433,note_on,3,0,0,,2,,,74,127
15513,note_off,80,0,0,,2,,,74,127
15516,note_on,3,0,0,,12,,,71,127
15596,note_off,80,0,0,,12,,,71,127
15599,note_on,3,0,0,,0,,,72,127
15679,note_off,80,0,0,,0,,,72,127
15682,note_on,3,0,0,,10,,,69,127
15762,note_off,80,0,0,,10,,,69,127
15765,note_on,3,0,0,,12,,,71,127
15845,note_off,80,0,0,,12,,,71,127
15848,note_on,3,0,0,,7,,,67,127
15928,note_off,80,0,0,,7,,,67,127
15931,note_on,3,0,0,,12,,,71,127
16011,note_off,80,0,0,,12,,,71,127
16013,note_off,2,0,0,,4,,,52,127
16014,note_on,1,0,0,,5,,,41,127
16014,note_on,0,0,0,,10,,,69,127
16094,note_off,80,0,0,,10,,,69,127
16097,note_on,3,0,0,,12,,,71,127
16177,note_off,80,0,0,,12,,,71,127
16180,note_on,3,0,0,,7,,,67,127
16260,note_off,80,0,0,,7,,,67,127
16263,note_on,3,0,0,,10,,,69,127
16343,note_off,80,0,0,,10,,,69,127
16346,note_on,3,0,0,,5,,,65,127
16426,note_off,80,0,0,,5,,,65,127
16429,note_on,3,0,0,,7,,,67,127
16509,note_off,80,0,0,,7,,,67,127
16512,note_on,3,0,0,,4,,,64,127
16592,note_off,80,0,0,,4,,,64,127
16595,note_on,3,0,0,,5,,,65,127
16675,note_off,80,0,0,,5,,,65,127
16677,note_off,2,0,0,,5,,,41,127
16678,note_on,1,0,0,,5,,,53,127
16678,note_on,0,0,0,,2,,,62,127
16758,note_off,80,0,0,,2,,,62,127
16761,note_on,3,0,0,,4,,,64,127
16841,note_off,80,0,0,,4,,,64,127
16844,note_on,3,0,0,,0,,,60,127
16924,note_off,80,0,0,,0,,,60,127
16927,note_on,3,0,0,,2,,,62,127
17007,note_off,80,0,0,,2,,,62,127
17010,note_on,3,0,0,,12,,,59,127
17090,note_off,80,0,0,,12,,,59,127
17093,note_on,3,0,0,,0,,,60,127
17173,note_off,80,0,0,,0,,,60,127
17176,note_on,3,0,0,,10,,,57,127
17256,note_off,80,0,0,,10,,,57,127
17259,note_on,3,0,0,,12,,,59,127
17339,note_off,80,0,0,,12,,,59,127
17341,note_off,2,0,0,,5,,,53,127
17342,note_on,1,0,0,,7,,,43,127
17342,note_on,0,0,0,,7,,,55,127
18000,note_off,658,0,0,,7,,,55,127
18000,note_off,0,0,0,,7,,,43,127
18041,note_on,41,0,0,,12,,,71,127
18041,note_on,0,0,0,,2,,,62,127
18041,note_on,0,0,0,,7,,,55,127
18121,note_off,80,0,0,,12,,,71,127
18124,note_on,3,0,0,,7,,,79,127
18204,note_off,80,0,0,,7,,,79,127
18204,note_off,0,0,0,,2,,,62,127
18207,note_on,3,0,0,,0,,,72,127
18207,note_on,0,0,0,,4,,,64,127
18287,note_off,80,0,0,,0,,,72,127
18290,note_on,3,0,0,,4,,,76,127
18370,note_off,80,0,0,,4,,,76,127
18370,note_off,0,0,0,,4,,,64,127
18373,note_on,3,0,0,,2,,,74,127
18373,note_on,0,0,0,,5,,,65,127
18453,note_off,80,0,0,,5,,,65,127
18453,note_off,0,0,0,,2,,,74,127
18456,note_on,3,0,0,,0,,,72,127
18456,note_on,0,0,0,,4,,,64,127
18536,note_off,80,0,0,,4,,,64,127
18536,note_off,0,0,0,,0,,,72,127
18539,note_on,3,0,0,,12,,,71,127
18539,note_on,0,0,0,,2,,,62,127
18619,note_off,80,0,0,,2,,,62,127
18619,note_off,0,0,0,,12,,,71,127
18622,note_on,3,0,0,,10,,,69,127
18622,note_on,0,0,0,,0,,,60,127
18702,note_off,80,0,0,,0,,,60,127
18702,note_off,0,0,0,,10,,,69,127
18704,note_off,2,0,0,,7,,,55,127
18705,note_on,1,0,0,,12,,,71,127
18705,note_on,0,0,0,,2,,,62,127
18705,note_on,0,0,0,,7,,,55,127
18785,note_off,80,0,0,,12,,,71,127
18788,note_on,3,0,0,,7,,,79,127
18868,note_off,80,0,0,,7,,,79,127
18868,note_off,0,0,0,,2,,,62,127
18871,note_on,3,0,0,,0,,,72,127
18871,note_on,0,0,0,,4,,,64,127
18951,note_off,80,0,0,,0,,,72,127
18954,note_on,3,0,0,,4,,,76,127
19034,note_off,80,0,0,,4,,,76,127
19034,note_off,0,0,0,,4,,,64,127
19037,note_on,3,0,0,,2,,,74,127
19037,note_on,0,0,0,,5,,,65,127
19117,note_off,80,0,0,,5,,,65,127
19117,note_off,0,0,0,,2,,,74,127
19120,note_on,3,0,0,,0,,,72,127
19120,note_on,0,0,0,,4,,,64,127
19200,note_off,80,0,0,,4,,,64,127
19200,note_off,0,0,0,,0,,,72,127
19203,note_on,3,0,0,,12,,,71,127
19203,note_on,0,0,0,,2,,,62,127
19283,note_off,80,0,0,,2,,,62,127
19283,note_off,0,0,0,,12,,,71,127
19286,note_on,3,0,0,,10,,,69,127
19286,note_on,0,0,0,,0,,,60,127
19366,note_off,80,0,0,,0,,,60,127
19366,note_off,0,0,0,,10,,,69,127
19368,note_off,2,0,0,,7,,,55,127
19369,note_on,1,0,0,,12,,,71,127
19369,note_on,0,0,0,,2,,,62,127
19369,note_on,0,0,0,,7,,,55,127
19449,note_off,80,0,0,,12,,,71,127
19452,note_on,3,0,0,,7,,,79,127
19532,note_off,80,0,0,,7,,,79,127
19532,note_off,0,0,0,,2,,,62,127
19535,note_on,3,0,0,,0,,,72,127
19535,note_on,0,0,0,,4,,,64,127
19615,note_off,80,0,0,,0,,,72,127
19618,note_on,3,0,0,,4,,,76,127
19698,note_off,80,0,0,,4,,,76,127
19698,note_off,0,0,0,,4,,,64,127
19701,note_on,3,0,0,,2,,,74,127
19701,note_on,0,0,0,,5,,,65,127
19781,note_off,80,0,0,,5,,,65,127
19781,note_off,0,0,0,,2,,,74,127
19784,note_on,3,0,0,,0,,,72,127
19784,note_on,0,0,0,,4,,,64,127
19864,note_off,80,0,0,,4,,,64,127
19864,note_off,0,0,0,,0,,,72,127
19867,note_on,3,0,0,,12,,,71,127
19867,note_on,0,0,0,,2,,,62,127
19947,note_off,80,0,0,,2,,,62,127
19947,note_off,0,0,0,,12,,,71,127
19950,note_on,3,0,0,,10,,,69,127
19950,note_on,0,0,0,,0,,,60,127
20030,note_off,80,0,0,,0,,,60,127
20030,note_off,0,0,0,,10,,,69,127
20032,note_off,2,0,0,,7,,,55,127
20033,note_on,1,0,0,,12,,,71,127
20033,note_on,0,0,0,,7,,,55,127
20113,note_off,80,0,0,,12,,,71,127
20116,note_on,3,0,0,,7,,,67,127
20196,note_off,80,0,0,,7,,,67,127
20196,note_off,0,0,0,,7,,,55,127
20199,note_on,3,0,0,,10,,,69,127
20199,note_on,0,0,0,,5,,,53,127
20279,note_off,80,0,0,,10,,,69,127
20282,note_on,3,0,0,,12,,,71,127
20362,note_off,80,0,0,,12,,,71,127
20362,note_off,0,0,0,,5,,,53,127
20365,note_on,3,0,0,,0,,,72,127
20365,note_on,0,0,0,,4,,,52,127
20445,note_off,80,0,0,,0,,,72,127
20448,note_on,3,0,0,,2,,,74,127
20528,note_off,80,0,0,,2,,,74,127
20528,note_off,0,0,0,,4,,,52,127
20531,note_on,3,0,0,,4,,,76,127
20531,note_on,0,0,0,,2,,,50,127
20611,note_off,80,0,0,,4,,,76,127
20614,note_on,3,0,0,,5,,,77,127
20694,note_off,80,0,0,,5,,,77,127
20694,note_off,0,0,0,,2,,,50,127
20697,note_on,3,0,0,,7,,,79,127
20697,note_on,0,0,0,,0,,,48,127
20777,note_off,80,0,0,,7,,,79,127
20780,note_on,3,0,0,,4,,,76,127
20860,note_off,80,0,0,,4,,,76,127
20860,note_off,0,0,0,,0,,,48,127
20863,note_on,3,0,0,,5,,,77,127
20863,note_on,0,0,0,,5,,,53,127
20943,note_off,80,0,0,,5,,,77,127
20946,note_on,3,0,0,,2,,,74,127
21026,note_off,80,0,0,,2,,,74,127
21026,note_off,0,0,0,,5,,,53,127
21029,note_on,3,0,0,,4,,,76,127
21029,note_on,0,0,0,,7,,,55,127
21109,note_off,80,0,0,,4,,,76,127
21112,note_on,3,0,0,,0,,,72,127
21192,note_off,80,0,0,,0,,,72,127
21192,note_off,0,0,0,,7,,,55,127
21195,note_on,3,0,0,,2,,,74,127
21195,note_on,0,0,0,,7,,,43,127
21275,note_off,80,0,0,,2,,,74,127
21278,note_on,3,0,0,,12,,,71,127
21358,note_off,80,0,0,,12,,,71,127
21358,note_off,0,0,0,,7,,,43,127
21361,note_on,3,0,0,,0,,,72,127
21361,note_on,0,0,0,,0,,,36,127
21896,note_off,535,0,0,,0,,,36,127
22019,note_off,123,0,0,,0,,,72,127
22020,note_on,1,0,0,,12,,,71,127
22020,note_on,0,0,0,,2,,,62,127
22020,note_on,0,0,0,,7,,,55,127
22100,note_off,80,0,0,,12,,,71,127
22103,note_on,3,0,0,,7,,,79,127
22183,note_off,80,0,0,,7,,,79,127
22183,note_off,0,0,0,,2,,,62,127
22186,note_on,3,0,0,,0,,,72,127
22186,note_on,0,0,0,,4,,,64,127
22266,note_off,80,0,0,,0,,,72,127
22269,note_on,3,0,0,,4,,,76,127
22349,note_off,80,0,0,,4,,,76,127
22349,note_off,0,0,0,,4,,,64,127
22352,note_on,3,0,0,,2,,,74,127
22352,note_on,0,0,0,,5,,,65,127
22432,note_off,80,0,0,,5,,,65,127
22432,note_off,0,0,0,,2,,,74,127
22435,note_on,3,0,0,,0,,,72,127
22435,note_on,0,0,0,,4,,,64,127
22515,note_off,80,0,0,,4,,,64,127
22515,note_off,0,0,0,,0,,,72,127
22518,note_on,3,0,0,,12,,,71,127
22518,note_on,0,0,0,,2,,,62,127
22598,note_off,80,0,0,,2,,,62,127
22598,note_off,0,0,0,,12,,,71,127
22601,note_on,3,0,0,,10,,,69,127
22601,note_on,0,0,0,,0,,,60,127
22681,note_off,80,0,0,,0,,,60,127
22681,note_off,0,0,0,,10,,,69,127
22683,note_off,2,0,0,,7,,,55,127
22684,note_on,1,0,0,,12,,,71,127
22684,note_on,0,0,0,,2,,,62,127
22684,note_on,0,0,0,,7,,,55,127
22764,note_off,80,0,0,,12,,,71,127
22767,note_on,3,0,0,,7,,,79,127
22847,note_off,80,0,0,,7,,,79,127
22847,note_off,0,0,0,,2,,,62,127
22850,note_on,3,0,0,,0,,,72,127
22850,note_on,0,0,0,,4,,,64,127
22930,note_off,80,0,0,,0,,,72,127
22933,note_on,3,0,0,,4,,,76,127
23013,note_off,80,0,0,,4,,,76,127
23013,note_off,0,0,0,,4,,,64,127
23016,note_on,3,0,0,,2,,,74,127
23016,note_on,0,0,0,,5,,,65,127
23096,note_off,80,0,0,,5,,,65,127
23096,note_off,0,0,0,,2,,,74,127
23099,note_on,3,0,0,,0,,,72,127
23099,note_on,0,0,0,,4,,,64,127
23179,note_off,80,0,0,,4,,,64,127
23179,note_off,0,0,0,,0,,,72,127
23182,note_on,3,0,0,,12,,,71,127
23182,note_on,0,0,0,,2,,,62,127
23262,note_off,80,0,0,,2,,,62,127
23262,note_off,0,0,0,,12,,,71,127
23265,note_on,3,0,0,,10,,,69,127
23265,note_on,0,0,0,,0,,,60,127
23345,note_off,80,0,0,,0,,,60,127
23345,note_off,0,0,0,,10,,,69,127
23347,note_off,2,0,0,,7,,,55,127
23348,note_on,1,0,0,,12,,,71,127
23348,note_on,0,0,0,,7,,,55,127
23428,note_off,80,0,0,,12,,,71,127
23431,note_on,3,0,0,,7,,,67,127
23511,note_off,80,0,0,,7,,,67,127
23511,note_off,0,0,0,,7,,,55,127
23514,note_on,3,0,0,,10,,,69,127
23514,note_on,0,0,0,,5,,,53,127
23594,note_off,80,0,0,,10,,,69,127
23597,note_on,3,0,0,,12,,,71,127
23677,note_off,80,0,0,,12,,,71,127
23677,note_off,0,0,0,,5,,,53,127
23680,note_on,3,0,0,,0,,,72,127
23680,note_on,0,0,0,,4,,,52,127
23760,note_off,80,0,0,,0,,,72,127
23763,note_on,3,0,0,,2,,,74,127
23843,note_off,80,0,0,,2,,,74,127
23843,note_off,0,0,0,,4,,,52,127
23846,note_on,3,0,0,,4,,,76,127
23846,note_on,0,0,0,,2,,,50,127
23926,note_off,80,0,0,,4,,,76,127
23929,note_on,3,0,0,,5,,,77,127
24009,note_off,80,0,0,,5,,,77,127
24009,note_off,0,0,0,,2,,,50,127
24012,note_on,3,0,0,,7,,,79,127
24012,note_on,0,0,0,,0,,,48,127
24092,note_off,80,0,0,,7,,,79,127
24095,note_on,3,0,0,,4,,,76,127
24175,note_off,80,0,0,,4,,,76,127
24175,note_off,0,0,0,,0,,,48,127
24178,note_on,3,0,0,,5,,,77,127
24178,note_on,0,0,0,,5,,,53,127
24258,note_off,80,0,0,,5,,,77,127
24261,note_on,3,0,0,,2,,,74,127
24341,note_off,80,0,0,,2,,,74,127
24341,note_off,0,0,0,,5,,,53,127
24344,note_on,3,0,0,,4,,,76,127
24344,note_on,0,0,0,,7,,,55,127
24424,note_off,80,0,0,,4,,,76,127
24427,note_on,3,0,0,,0,,,72,127
24507,note_off,80,0,0,,0,,,72,127
24507,note_off,0,0,0,,7,,,55,127
24510,note_on,3,0,0,,2,,,74,127
24510,note_on,0,0,0,,7,,,43,127
24590,note_off,80,0,0,,2,,,74,127
24593,note_on,3,0,0,,12,,,71,127
24672,note_off,79,0,0,,12,,,71,127
24673,note_off,1,0,0,,7,,,43,127
24676,note_on,3,0,0,,0,,,36,127
24758,note_on,82,0,0,,0,,,72,127
24838,note_off,80,0,0,,0,,,72,127
24841,note_on,3,0,0,,12,,,71,127
24921,note_off,80,0,0,,12,,,71,127
24924,note_on,3,0,0,,0,,,72,127
25004,note_off,80,0,0,,0,,,72,127
25007,note_on,3,0,0,,4,,,76,127
25087,note_off,80,0,0,,4,,,76,127
25090,note_on,3,0,0,,0,,,72,127
25170,note_off,80,0,0,,0,,,72,127
25173,note_on,3,0,0,,12,,,71,127
25214,note_off,41,0,0,,0,,,36,127
25253,note_off,39,0,0,,12,,,71,127
25256,note_on,3,0,0,,0,,,72,127
25336,note_off,80,0,0,,0,,,72,127
25339,note_on,3,0,0,,10,,,69,127
25339,note_on,0,0,0,,5,,,41,127
25419,note_off,80,0,0,,10,,,69,127
25422,note_on,3,0,0,,0,,,72,127
25502,note_off,80,0,0,,0,,,72,127
25505,note_on,3,0,0,,12,,,71,127
25585,note_off,80,0,0,,12,,,71,127
25588,note_on,3,0,0,,0,,,72,127
25668,note_off,80,0,0,,0,,,72,127
25670,note_off,2,0,0,,5,,,41,127
25671,note_on,1,0,0,,5,,,77,127
25671,note_on,0,0,0,,7,,,43,127
25751,note_off,80,0,0,,5,,,77,127
25754,note_on,3,0,0,,2,,,74,127
25834,note_off,80,0,0,,2,,,74,127
25837,note_on,3,0,0,,0,,,72,127
25917,note_off,80,0,0,,0,,,72,127
25920,note_on,3,0,0,,12,,,71,127
25999,note_off,79,0,0,,12,,,71,127
26002,note_off,3,0,0,,7,,,43,127
26003,note_on,1,0,0,,0,,,36,127
26085,note_on,82,0,0,,0,,,72,127
26165,note_off,80,0,0,,0,,,72,127
26168,note_on,3,0,0,,12,,,71,127
26248,note_off,80,0,0,,12,,,71,127
26251,note_on,3,0,0,,0,,,72,127
26331,note_off,80,0,0,,0,,,72,127
26334,note_on,3,0,0,,4,,,76,127
26414,note_off,80,0,0,,4,,,76,127
26417,note_on,3,0,0,,0,,,72,127
26497,note_off,80,0,0,,0,,,72,127
26500,note_on,3,0,0,,12,,,71,127
26580,note_off,80,0,0,,12,,,71,127
26583,note_on,3,0,0,,0,,,72,127
26624,note_off,41,0,0,,0,,,36,127
26663,note_off,39,0,0,,0,,,72,127
26666,note_on,3,0,0,,10,,,69,127
26666,note_on,0,0,0,,5,,,41,127
26746,note_off,80,0,0,,10,,,69,127
26749,note_on,3,0,0,,0,,,72,127
26829,note_off,80,0,0,,0,,,72,127
26832,note_on,3,0,0,,12,,,71,127
26912,note_off,80,0,0,,12,,,71,127
26915,note_on,3,0,0,,0,,,72,127
26995,note_off,80,0,0,,0,,,72,127
26997,note_off,2,0,0,,5,,,41,127
26998,note_on,1,0,0,,5,,,77,127
26998,note_on,0,0,0,,7,,,43,127
27078,note_off,80,0,0,,5,,,77,127
27081,note_on,3,0,0,,2,,,74,127
27161,note_off,80,0,0,,2,,,74,127
27164,note_on,3,0,0,,0,,,72,127
27244,note_off,80,0,0,,0,,,72,127
27247,note_on,3,0,0,,12,,,71,127
27326,note_off,79,0,0,,12,,,71,127
27329,note_off,3,0,0,,7,,,43,127
27330,note_on,1,0,0,,0,,,36,127
27412,note_on,82,0,0,,0,,,72,127
27492,note_off,80,0,0,,0,,,72,127
27492,note_off,0,0,0,,0,,,36,127
27495,note_on,3,0,0,,11,,,82,127
27495,note_on,0,0,0,,0,,,48,127
27575,note_off,80,0,0,,11,,,82,127
27578,note_on,3,0,0,,7,,,79,127
27658,note_off,80,0,0,,7,,,79,127
27658,note_off,0,0,0,,0,,,48,127
27661,note_on,3,0,0,,10,,,81,127
27661,note_on,0,0,0,,5,,,53,127
27741,note_off,80,0,0,,10,,,81,127
27744,note_on,3,0,0,,5,,,77,127
27824,note_off,80,0,0,,5,,,77,127
27824,note_off,0,0,0,,5,,,53,127
27827,note_on,3,0,0,,7,,,79,127
27827,note_on,0,0,0,,4,,,52,127
27907,note_off,80,0,0,,7,,,79,127
27910,note_on,3,0,0,,4,,,76,127
27990,note_off,80,0,0,,4,,,76,127
27990,note_off,0,0,0,,4,,,52,127
27993,note_on,3,0,0,,5,,,77,127
27993,note_on,0,0,0,,2,,,50,127
28073,note_off,80,0,0,,5,,,77,127
28076,note_on,3,0,0,,2,,,74,127
28156,note_off,80,0,0,,2,,,74,127
28156,note_off,0,0,0,,2,,,50,127
28159,note_on,3,0,0,,4,,,76,127
28159,note_on,0,0,0,,0,,,48,127
28239,note_off,80,0,0,,4,,,76,127
28242,note_on,3,0,0,,0,,,72,127
28322,note_off,80,0,0,,0,,,72,127
28322,note_off,0,0,0,,0,,,48,127
28325,note_on,3,0,0,,2,,,74,127
28325,note_on,0,0,0,,5,,,53,127
28405,note_off,80,0,0,,2,,,74,127
28408,note_on,3,0,0,,10,,,69,127
28488,note_off,80,0,0,,10,,,69,127
28488,note_off,0,0,0,,5,,,53,127
28491,note_on,3,0,0,,12,,,71,127
28491,note_on,0,0,0,,7,,,55,127
28571,note_off,80,0,0,,12,,,71,127
28574,note_on,3,0,0,,2,,,74,127
28653,note_off,79,0,0,,2,,,74,127
28654,note_off,1,0,0,,7,,,55,127
28657,note_on,3,0,0,,0,,,36,127
28739,note_on,82,0,0,,0,,,72,127
28819,note_off,80,0,0,,0,,,72,127
28819,note_off,0,0,0,,0,,,36,127
28822,note_on,3,0,0,,11,,,82,127
28822,note_on,0,0,0,,0,,,48,127
28902,note_off,80,0,0,,11,,,82,127
28905,note_on,3,0,0,,7,,,79,127
28985,note_off,80,0,0,,7,,,79,127
28985,note_off,0,0,0,,0,,,48,127
28988,note_on,3,0,0,,10,,,81,127
28988,note_on,0,0,0,,5,,,53,127
29068,note_off,80,0,0,,10,,,81,127
29071,note_on,3,0,0,,5,,,77,127
29151,note_off,80,0,0,,5,,,77,127
29151,note_off,0,0,0,,5,,,53,127
29154,note_on,3,0,0,,7,,,79,127
29154,note_on,0,0,0,,4,,,52,127
29234,note_off,80,0,0,,7,,,79,127
29237,note_on,3,0,0,,4,,,76,127
29317,note_off,80,0,0,,4,,,76,127
29317,note_off,0,0,0,,4,,,52,127
29320,note_on,3,0,0,,5,,,77,127
29320,note_on,0,0,0,,2,,,50,127
29400,note_off,80,0,0,,5,,,77,127
29403,note_on,3,0,0,,2,,,74,127
29483,note_off,80,0,0,,2,,,74,127
29483,note_off,0,0,0,,2,,,50,127
29486,note_on,3,0,0,,4,,,76,127
29486,note_on,0,0,0,,0,,,48,127
29566,note_off,80,0,0,,4,,,76,127
29569,note_on,3,0,0,,0,,,72,127
29649,note_off,80,0,0,,0,,,72,127
29649,note_off,0,0,0,,0,,,48,127
29652,note_on,3,0,0,,2,,,74,127
29652,note_on,0,0,0,,5,,,53,127
29732,note_off,80,0,0,,2,,,74,127
29735,note_on,3,0,0,,10,,,69,127
29815,note_off,80,0,0,,10,,,69,127
29815,note_off,0,0,0,,5,,,53,127
29818,note_on,3,0,0,,12,,,71,127
29818,note_on,0,0,0,,7,,,55,127
29898,note_off,80,0,0,,12,,,71,127
29901,note_on,3,0,0,,2,,,74,127
29981,note_off,80,0,0,,2,,,74,127
29981,note_off,0,0,0,,7,,,55,127
29984,note_on,3,0,0,,0,,,72,127
29984,note_on,0,0,0,,0,,,48,127
30064,note_off,80,0,0,,0,,,72,127
30067,note_on,3,0,0,,7,,,67,127
30147,note_off,80,0,0,,7,,,67,127
30147,note_off,0,0,0,,0,,,48,127
30150,note_on,3,0,0,,4,,,64,127
30150,note_on,0,0,0,,4,,,52,127
30230,note_off,80,0,0,,4,,,64,127
30233,note_on,3,0,0,,0,,,60,127
30313,note_off,80,0,0,,0,,,60,127
30313,note_off,0,0,0,,4,,,52,127
30316,note_on,3,0,0,,2,,,62,127
30316,note_on,0,0,0,,5,,,53,127
30396,note_off,80,0,0,,2,,,62,127
30399,note_on,3,0,0,,0,,,72,127
30479,note_off,80,0,0,,0,,,72,127
30479,note_off,0,0,0,,5,,,53,127
30482,note_on,3,0,0,,5,,,65,127
30482,note_on,0,0,0,,7,,,55,127
30562,note_off,80,0,0,,5,,,65,127
30565,note_on,3,0,0,,12,,,71,127
30645,note_off,80,0,0,,12,,,71,127
30645,note_off,0,0,0,,7,,,55,127
30648,note_on,3,0,0,,0,,,72,127
30648,note_on,0,0,0,,0,,,48,127
30728,note_off,80,0,0,,0,,,72,127
30731,note_on,3,0,0,,7,,,67,127
30811,note_off,80,0,0,,7,,,67,127
30811,note_off,0,0,0,,0,,,48,127
30814,note_on,3,0,0,,4,,,64,127
30814,note_on,0,0,0,,4,,,40,127
30894,note_off,80,0,0,,4,,,64,127
30897,note_on,3,0,0,,0,,,60,127
30977,note_off,80,0,0,,0,,,60,127
30977,note_off,0,0,0,,4,,,40,127
30980,note_on,3,0,0,,2,,,62,127
30980,note_on,0,0,0,,5,,,41,127
31060,note_off,80,0,0,,2,,,62,127
31063,note_on,3,0,0,,0,,,72,127
31143,note_off,80,0,0,,0,,,72,127
31143,note_off,0,0,0,,5,,,41,127
31146,note_on,3,0,0,,5,,,65,127
31146,note_on,0,0,0,,7,,,43,127
31226,note_off,80,0,0,,5,,,65,127
31229,note_on,3,0,0,,12,,,71,127
31309,note_off,80,0,0,,12,,,71,127
31309,note_off,0,0,0,,7,,,43,127
31312,note_on,3,0,0,,0,,,72,127
31312,note_on,0,0,0,,0,,,36,127
31392,note_off,80,0,0,,0,,,72,127
31395,note_on,3,0,0,,4,,,64,127
31475,note_off,80,0,0,,4,,,64,127
31478,note_on,3,0,0,,2,,,62,127
31558,note_off,80,0,0,,2,,,62,127
31561,note_on,3,0,0,,12,,,71,127
31641,note_off,80,0,0,,12,,,71,127
31643,note_off,2,0,0,,0,,,36,127
31644,note_on,1,0,0,,0,,,72,127
31644,note_on,0,0,0,,0,,,36,127
31724,note_off,80,0,0,,0,,,72,127
31727,note_on,3,0,0,,4,,,64,127
31807,note_off,80,0,0,,4,,,64,127
31810,note_on,3,0,0,,2,,,62,127
31890,note_off,80,0,0,,2,,,62,127
31893,note_on,3,0,0,,12,,,71,127
31973,note_off,80,0,0,,12,,,71,127
31975,note_off,2,0,0,,0,,,36,127
31976,note_on,1,0,0,,0,,,72,127
31976,note_on,0,0,0,,0,,,36,127
32056,note_off,80,0,0,,0,,,72,127
32059,note_on,3,0,0,,4,,,64,127
32139,note_off,80,0,0,,4,,,64,127
32142,note_on,3,0,0,,2,,,62,127
32222,note_off,80,0,0,,2,,,62,127
32225,note_on,3,0,0,,12,,,71,127
32305,note_off,80,0,0,,12,,,71,127
32307,note_off,2,0,0,,0,,,36,127
32308,note_on,1,0,0,,0,,,72,127
32308,note_on,0,0,0,,0,,,36,127
32388,note_off,80,0,0,,0,,,72,127
32391,note_on,3,0,0,,4,,,64,127
32471,note_off,80,0,0,,4,,,64,127
32474,note_on,3,0,0,,2,,,62,127
32554,note_off,80,0,0,,2,,,62,127
32557,note_on,3,0,0,,12,,,71,127
32637,note_off,80,0,0,,12,,,71,127
32639,note_off,2,0,0,,0,,,36,127
32640,note_on,1,0,0,,2,,,74,127
32640,note_on,0,0,0,,0,,,36,127
32692,note_off,52,0,0,,2,,,74,127
32695,note_on,3,0,0,,0,,,72,127
32747,note_off,52,0,0,,0,,,72,127
32750,note_on,3,0,0,,2,,,74,127
32802,note_off,52,0,0,,2,,,74,127
32805,note_on,3,0,0,,0,,,72,127
33298,note_off,493,0,0,,0,,,72,127
33299,note_on,1,0,0,,7,,,79,127
33380,note_off,81,0,0,,0,,,36,127
33381,note_on,1,0,0,,7,,,67,127
33461,note_off,80,0,0,,7,,,67,127
33464,note_on,3,0,0,,5,,,65,127
33544,note_off,80,0,0,,5,,,65,127
33547,note_on,3,0,0,,7,,,67,127
33627,note_off,80,0,0,,7,,,67,127
33630,note_on,3,0,0,,4,,,64,127
33710,note_off,80,0,0,,4,,,64,127
33713,note_on,3,0,0,,5,,,65,127
33793,note_off,80,0,0,,5,,,65,127
33796,note_on,3,0,0,,2,,,62,127
33876,note_off,80,0,0,,2,,,62,127
33879,note_on,3,0,0,,4,,,64,127
33959,note_off,80,0,0,,4,,,64,127
33961,note_off,2,0,0,,7,,,79,127
33962,note_on,1,0,0,,10,,,81,127
33962,note_on,0,0,0,,0,,,60,127
34014,note_off,52,0,0,,10,,,81,127
34017,note_on,3,0,0,,7,,,79,127
34042,note_off,25,0,0,,0,,,60,127
34045,note_on,3,0,0,,2,,,62,127
34070,note_off,25,0,0,,7,,,79,127
34073,note_on,3,0,0,,10,,,81,127
34125,note_off,52,0,0,,10,,,81,127
34125,note_off,0,0,0,,2,,,62,127
34128,note_on,3,0,0,,7,,,79,127
34128,note_on,0,0,0,,11,,,58,127
34180,note_off,52,0,0,,7,,,79,127
34183,note_on,3,0,0,,10,,,81,127
34208,note_off,25,0,0,,11,,,58,127
34211,note_on,3,0,0,,0,,,60,127
34236,note_off,25,0,0,,10,,,81,127
34239,note_on,3,0,0,,7,,,79,127
34291,note_off,52,0,0,,7,,,79,127
34291,note_off,0,0,0,,0,,,60,127
34294,note_on,3,0,0,,10,,,81,127
34294,note_on,0,0,0,,10,,,57,127
34346,note_off,52,0,0,,10,,,81,127
34349,note_on,3,0,0,,7,,,79,127
34374,note_off,25,0,0,,10,,,57,127
34377,note_on,3,0,0,,11,,,58,127
34402,note_off,25,0,0,,7,,,79,127
34405,note_on,3,0,0,,10,,,81,127
34457,note_off,52,0,0,,10,,,81,127
34457,note_off,0,0,0,,11,,,58,127
34460,note_on,3,0,0,,7,,,79,127
34460,note_on,0,0,0,,7,,,55,127
34512,note_off,52,0,0,,7,,,79,127
34515,note_on,3,0,0,,5,,,77,127
34540,note_off,25,0,0,,7,,,55,127
34543,note_on,3,0,0,,10,,,57,127
34568,note_off,25,0,0,,5,,,77,127
34571,note_on,3,0,0,,7,,,79,127
34623,note_off,52,0,0,,7,,,79,127
34623,note_off,0,0,0,,10,,,57,127
34626,note_on,3,0,0,,10,,,81,127
34626,note_on,0,0,0,,5,,,53,127
34706,note_off,80,0,0,,5,,,53,127
34709,note_on,3,0,0,,7,,,55,127
34789,note_off,80,0,0,,7,,,55,127
34792,note_on,3,0,0,,4,,,52,127
34872,note_off,80,0,0,,4,,,52,127
34875,note_on,3,0,0,,5,,,53,127
34955,note_off,80,0,0,,5,,,53,127
34958,note_on,3,0,0,,2,,,50,127
35038,note_off,80,0,0,,2,,,50,127
35041,note_on,3,0,0,,4,,,52,127
35121,note_off,80,0,0,,4,,,52,127
35124,note_on,3,0,0,,0,,,48,127
35204,note_off,80,0,0,,0,,,48,127
35207,note_on,3,0,0,,2,,,50,127
35287,note_off,80,0,0,,2,,,50,127
35289,note_off,2,0,0,,10,,,81,127
35290,note_on,1,0,0,,2,,,74,127
35290,note_on,0,0,0,,11,,,46,127
35370,note_off,80,0,0,,11,,,46,127
35373,note_on,3,0,0,,2,,,50,127
35453,note_off,80,0,0,,2,,,50,127
35456,note_on,3,0,0,,0,,,48,127
35536,note_off,80,0,0,,0,,,48,127
35539,note_on,3,0,0,,11,,,46,127
35619,note_off,80,0,0,,11,,,46,127
35621,note_off,2,0,0,,2,,,74,127
35622,note_on,1,0,0,,4,,,76,127
35622,note_on,0,0,0,,10,,,45,127
35702,note_off,80,0,0,,10,,,45,127
35705,note_on,3,0,0,,7,,,43,127
35785,note_off,80,0,0,,7,,,43,127
35788,note_on,3,0,0,,5,,,41,127
35868,note_off,80,0,0,,5,,,41,127
35871,note_on,3,0,0,,4,,,40,127
35951,note_off,80,0,0,,4,,,40,127
35953,note_off,2,0,0,,4,,,76,127
35954,note_on,1,0,0,,5,,,77,127
35954,note_on,0,0,0,,2,,,38,127
36034,note_off,80,0,0,,5,,,77,127
36037,note_on,3,0,0,,4,,,76,127
36117,note_off,80,0,0,,4,,,76,127
36120,note_on,3,0,0,,2,,,74,127
36200,note_off,80,0,0,,2,,,74,127
36203,note_on,3,0,0,,1,,,73,127
36283,note_off,80,0,0,,1,,,73,127
36286,note_on,3,0,0,,2,,,74,127
36366,note_off,80,0,0,,2,,,74,127
36369,note_on,3,0,0,,4,,,76,127
36449,note_off,80,0,0,,4,,,76,127
36452,note_on,3,0,0,,5,,,77,127
36532,note_off,80,0,0,,5,,,77,127
36535,note_on,3,0,0,,7,,,79,127
36615,note_off,80,0,0,,7,,,79,127
36618,note_on,3,0,0,,10,,,81,127
36699,note_off,81,0,0,,2,,,38,127
36700,note_on,1,0,0,,10,,,69,127
36780,note_off,80,0,0,,10,,,69,127
36783,note_on,3,0,0,,7,,,67,127
36863,note_off,80,0,0,,7,,,67,127
36866,note_on,3,0,0,,10,,,69,127
36946,note_off,80,0,0,,10,,,69,127
36949,note_on,3,0,0,,5,,,65,127
37029,note_off,80,0,0,,5,,,65,127
37032,note_on,3,0,0,,7,,,67,127
37112,note_off,80,0,0,,7,,,67,127
37115,note_on,3,0,0,,4,,,64,127
37195,note_off,80,0,0,,4,,,64,127
37198,note_on,3,0,0,,5,,,65,127
37278,note_off,80,0,0,,5,,,65,127
37280,note_off,2,0,0,,10,,,81,127
37281,note_on,1,0,0,,10,,,81,127
37281,note_on,0,0,0,,2,,,62,127
37361,note_off,80,0,0,,2,,,62,127
37364,note_on,3,0,0,,4,,,64,127
37444,note_off,80,0,0,,4,,,64,127
37447,note_on,3,0,0,,0,,,60,127
37527,note_off,80,0,0,,0,,,60,127
37530,note_on,3,0,0,,2,,,62,127
37610,note_off,80,0,0,,2,,,62,127
37613,note_on,3,0,0,,12,,,59,127
37693,note_off,80,0,0,,12,,,59,127
37696,note_on,3,0,0,,0,,,60,127
37776,note_off,80,0,0,,0,,,60,127
37779,note_on,3,0,0,,10,,,57,127
37859,note_off,80,0,0,,10,,,57,127
37862,note_on,3,0,0,,12,,,59,127
37942,note_off,80,0,0,,12,,,59,127
37944,note_off,2,0,0,,10,,,81,127
37945,note_on,1,0,0,,0,,,84,127
37945,note_on,0,0,0,,8,,,56,127
37997,note_off,52,0,0,,0,,,84,127
38000,note_on,3,0,0,,12,,,83,127
38025,note_off,25,0,0,,8,,,56,127
38028,note_on,3,0,0,,10,,,57,127
38053,note_off,25,0,0,,12,,,83,127
38056,note_on,3,0,0,,0,,,84,127
38108,note_off,52,0,0,,0,,,84,127
38108,note_off,0,0,0,,10,,,57,127
38111,note_on,3,0,0,,12,,,83,127
38111,note_on,0,0,0,,6,,,54,127
38163,note_off,52,0,0,,12,,,83,127
38166,note_on,3,0,0,,0,,,84,127
38191,note_off,25,0,0,,6,,,54,127
38194,note_on,3,0,0,,8,,,56,127
38219,note_off,25,0,0,,0,,,84,127
38222,note_on,3,0,0,,12,,,83,127
38274,note_off,52,0,0,,12,,,83,127
38274,note_off,0,0,0,,8,,,56,127
38277,note_on,3,0,0,,0,,,84,127
38277,note_on,0,0,0,,4,,,52,127
38329,note_off,52,0,0,,0,,,84,127
38332,note_on,3,0,0,,12,,,83,127
38357,note_off,25,0,0,,4,,,52,127
38360,note_on,3,0,0,,5,,,53,127
38385,note_off,25,0,0,,12,,,83,127
38388,note_on,3,0,0,,0,,,84,127
38440,note_off,52,0,0,,0,,,84,127
38440,note_off,0,0,0,,5,,,53,127
38443,note_on,3,0,0,,12,,,83,127
38443,note_on,0,0,0,,2,,,50,127
38495,note_off,52,0,0,,12,,,83,127
38498,note_on,3,0,0,,10,,,81,127
38523,note_off,25,0,0,,2,,,50,127
38526,note_on,3,0,0,,4,,,52,127
38551,note_off,25,0,0,,10,,,81,127
38554,note_on,3,0,0,,12,,,83,127
38606,note_off,52,0,0,,12,,,83,127
38606,note_off,0,0,0,,4,,,52,127
38609,note_on,3,0,0,,0,,,84,127
38609,note_on,0,0,0,,0,,,48,127
38689,note_off,80,0,0,,0,,,48,127
38692,note_on,3,0,0,,2,,,50,127
38772,note_off,80,0,0,,2,,,50,127
38775,note_on,3,0,0,,12,,,47,127
38855,note_off,80,0,0,,12,,,47,127
38858,note_on,3,0,0,,0,,,48,127
38938,note_off,80,0,0,,0,,,48,127
38941,note_on,3,0,0,,10,,,45,127
39021,note_off,80,0,0,,10,,,45,127
39024,note_on,3,0,0,,12,,,47,127
39104,note_off,80,0,0,,12,,,47,127
39107,note_on,3,0,0,,7,,,43,127
39187,note_off,80,0,0,,7,,,43,127
39190,note_on,3,0,0,,10,,,45,127
39270,note_off,80,0,0,,10,,,45,127
39272,note_off,2,0,0,,0,,,84,127
39273,note_on,1,0,0,,10,,,81,127
39273,note_on,0,0,0,,5,,,41,127
39353,note_off,80,0,0,,5,,,41,127
39356,note_on,3,0,0,,10,,,45,127
39436,note_off,80,0,0,,10,,,45,127
39439,note_on,3,0,0,,7,,,43,127
39519,note_off,80,0,0,,7,,,43,127
39522,note_on,3,0,0,,5,,,41,127
39602,note_off,80,0,0,,5,,,41,127
39604,note_off,2,0,0,,10,,,81,127
39605,note_on,1,0,0,,12,,,83,127
39605,note_on,0,0,0,,4,,,40,127
39685,note_off,80,0,0,,4,,,40,127
39688,note_on,3,0,0,,2,,,38,127
39768,note_off,80,0,0,,2,,,38,127
39771,note_on,3,0,0,,0,,,36,127
39851,note_off,80,0,0,,0,,,36,127
39854,note_on,3,0,0,,12,,,35,127
39934,note_off,80,0,0,,12,,,35,127
39936,note_off,2,0,0,,12,,,83,127
39937,note_on,1,0,0,,0,,,84,127
39937,note_on,0,0,0,,10,,,33,127
40017,note_off,80,0,0,,0,,,84,127
40020,note_on,3,0,0,,12,,,83,127
40100,note_off,80,0,0,,12,,,83,127
40103,note_on,3,0,0,,10,,,81,127
40183,note_off,80,0,0,,10,,,81,127
40186,note_on,3,0,0,,8,,,80,127
40266,note_off,80,0,0,,8,,,80,127
40269,note_on,3,0,0,,10,,,81,127
40349,note_off,80,0,0,,10,,,81,127
40352,note_on,3,0,0,,7,,,79,127
40432,note_off,80,0,0,,7,,,79,127
40435,note_on,3,0,0,,5,,,77,127
40515,note_off,80,0,0,,5,,,77,127
40518,note_on,3,0,0,,4,,,76,127
40559,note_off,41,0,0,,10,,,33,127
40598,note_off,39,0,0,,4,,,76,127
40601,note_on,3,0,0,,5,,,77,127
40601,note_on,0,0,0,,2,,,38,127
40681,note_off,80,0,0,,5,,,77,127
40684,note_on,3,0,0,,4,,,76,127
40764,note_off,80,0,0,,4,,,76,127
40767,note_on,3,0,0,,2,,,74,127
40847,note_off,80,0,0,,2,,,74,127
40850,note_on,3,0,0,,0,,,72,127
40930,note_off,80,0,0,,0,,,72,127
40933,note_on,3,0,0,,2,,,74,127
41013,note_off,80,0,0,,2,,,74,127
41016,note_on,3,0,0,,0,,,72,127
41096,note_off,80,0,0,,0,,,72,127
41099,note_on,3,0,0,,12,,,71,127
41179,note_off,80,0,0,,12,,,71,127
41182,note_on,3,0,0,,10,,,69,127
41223,note_off,41,0,0,,2,,,38,127
41262,note_off,39,0,0,,10,,,69,127
41265,note_on,3,0,0,,12,,,71,127
41265,note_on,0,0,0,,4,,,40,127
41345,note_off,80,0,0,,12,,,71,127
41348,note_on,3,0,0,,10,,,69,127
41428,note_off,80,0,0,,10,,,69,127
41431,note_on,3,0,0,,8,,,68,127
41511,note_off,80,0,0,,8,,,68,127
41514,note_on,3,0,0,,6,,,66,127
41594,note_off,80,0,0,,6,,,66,127
41597,note_on,3,0,0,,4,,,64,127
41677,note_off,80,0,0,,4,,,64,127
41680,note_on,3,0,0,,2,,,62,127
41760,note_off,80,0,0,,2,,,62,127
41763,note_on,3,0,0,,0,,,60,127
41843,note_off,80,0,0,,0,,,60,127
41846,note_on,3,0,0,,12,,,59,127
41926,note_off,80,0,0,,12,,,59,127
41928,note_off,2,0,0,,4,,,40,127
41929,note_on,1,0,0,,10,,,57,127
41929,note_on,0,0,0,,10,,,45,127
42009,note_off,80,0,0,,10,,,45,127
42009,note_off,0,0,0,,10,,,57,127
42012,note_on,3,0,0,,10,,,57,127
42092,note_off,80,0,0,,10,,,57,127
42095,note_on,3,0,0,,8,,,56,127
42175,note_off,80,0,0,,8,,,56,127
42178,note_on,3,0,0,,10,,,57,127
42258,note_off,80,0,0,,10,,,57,127
42261,note_on,3,0,0,,0,,,60,127
42341,note_off,80,0,0,,0,,,60,127
42344,note_on,3,0,0,,10,,,57,127
42424,note_off,80,0,0,,10,,,57,127
42427,note_on,3,0,0,,8,,,56,127
42507,note_off,80,0,0,,8,,,56,127
42510,note_on,3,0,0,,10,,,57,127
42590,note_off,80,0,0,,10,,,57,127
42593,note_on,3,0,0,,0,,,72,127
42593,note_on,0,0,0,,10,,,81,127
42593,note_on,0,0,0,,5,,,53,127
42673,note_off,80,0,0,,5,,,53,127
42676,note_on,3,0,0,,10,,,57,127
42756,note_off,80,0,0,,10,,,57,127
42759,note_on,3,0,0,,8,,,56,127
42839,note_off,80,0,0,,8,,,56,127
42842,note_on,3,0,0,,10,,,57,127
42922,note_off,80,0,0,,10,,,57,127
42925,note_on,3,0,0,,0,,,60,127
43005,note_off,80,0,0,,0,,,60,127
43008,note_on,3,0,0,,10,,,57,127
43088,note_off,80,0,0,,10,,,57,127
43091,note_on,3,0,0,,8,,,56,127
43171,note_off,80,0,0,,8,,,56,127
43174,note_on,3,0,0,,10,,,57,127
43254,note_off,80,0,0,,10,,,57,127
43256,note_off,2,0,0,,10,,,81,127
43256,note_off,0,0,0,,0,,,72,127
43257,note_on,1,0,0,,10,,,81,127
43257,note_on,0,0,0,,0,,,72,127
43257,note_on,0,0,0,,4,,,52,127
43337,note_off,80,0,0,,4,,,52,127
43340,note_on,3,0,0,,10,,,57,127
43420,note_off,80,0,0,,10,,,57,127
43423,note_on,3,0,0,,8,,,56,127
43503,note_off,80,0,0,,8,,,56,127
43506,note_on,3,0,0,,10,,,57,127
43586,note_off,80,0,0,,10,,,57,127
43589,note_on,3,0,0,,0,,,60,127
43669,note_off,80,0,0,,0,,,60,127
43672,note_on,3,0,0,,10,,,57,127
43752,note_off,80,0,0,,10,,,57,127
43755,note_on,3,0,0,,8,,,56,127
43835,note_off,80,0,0,,8,,,56,127
43838,note_on,3,0,0,,10,,,57,127
43918,note_off,80,0,0,,10,,,57,127
43920,note_off,2,0,0,,0,,,72,127
43920,note_off,0,0,0,,10,,,81,127
43921,note_on,1,0,0,,10,,,81,127
43921,note_on,0,0,0,,0,,,72,127
43921,note_on,0,0,0,,2,,,50,127
44001,note_off,80,0,0,,2,,,50,127
44004,note_on,3,0,0,,10,,,57,127
44084,note_off,80,0,0,,10,,,57,127
44087,note_on,3,0,0,,8,,,56,127
44167,note_off,80,0,0,,8,,,56,127
44170,note_on,3,0,0,,10,,,57,127
44250,note_off,80,0,0,,10,,,57,127
44253,note_on,3,0,0,,0,,,60,127
44333,note_off,80,0,0,,0,,,60,127
44336,note_on,3,0,0,,10,,,57,127
44416,note_off,80,0,0,,10,,,57,127
44419,note_on,3,0,0,,8,,,56,127
44499,note_off,80,0,0,,8,,,56,127
44502,note_on,3,0,0,,10,,,57,127
44582,note_off,80,0,0,,10,,,57,127
44584,note_off,2,0,0,,10,,,81,127
44585,note_on,1,0,0,,0,,,48,127
44666,note_off,81,0,0,,0,,,72,127
44667,note_on,1,0,0,,0,,,72,127
44747,note_off,80,0,0,,0,,,72,127
44750,note_on,3,0,0,,12,,,71,127
44830,note_off,80,0,0,,12,,,71,127
44833,note_on,3,0,0,,0,,,72,127
44913,note_off,80,0,0,,0,,,72,127
44916,note_on,3,0,0,,4,,,76,127
44996,note_off,80,0,0,,4,,,76,127
44999,note_on,3,0,0,,0,,,72,127
45079,note_off,80,0,0,,0,,,72,127
45082,note_on,3,0,0,,12,,,71,127
45162,note_off,80,0,0,,12,,,71,127
45165,note_on,3,0,0,,0,,,72,127
45206,note_off,41,0,0,,0,,,48,127
45245,note_off,39,0,0,,0,,,72,127
45248,note_on,3,0,0,,6,,,78,127
45248,note_on,0,0,0,,2,,,50,127
45328,note_off,80,0,0,,6,,,78,127
45331,note_on,3,0,0,,0,,,72,127
45411,note_off,80,0,0,,0,,,72,127
45414,note_on,3,0,0,,12,,,71,127
45494,note_off,80,0,0,,12,,,71,127
45497,note_on,3,0,0,,0,,,72,127
45577,note_off,80,0,0,,0,,,72,127
45580,note_on,3,0,0,,10,,,81,127
45660,note_off,80,0,0,,10,,,81,127
45663,note_on,3,0,0,,0,,,72,127
45743,note_off,80,0,0,,0,,,72,127
45746,note_on,3,0,0,,11,,,70,127
45826,note_off,80,0,0,,11,,,70,127
45829,note_on,3,0,0,,10,,,69,127
45870,note_off,41,0,0,,2,,,50,127
45909,note_off,39,0,0,,10,,,69,127
45912,note_on,3,0,0,,11,,,70,127
45912,note_on,0,0,0,,7,,,43,127
45992,note_off,80,0,0,,7,,,43,127
45995,note_on,3,0,0,,7,,,55,127
46075,note_off,80,0,0,,7,,,55,127
46078,note_on,3,0,0,,6,,,54,127
46158,note_off,80,0,0,,6,,,54,127
46161,note_on,3,0,0,,7,,,55,127
46241,note_off,80,0,0,,7,,,55,127
46244,note_on,3,0,0,,11,,,58,127
46324,note_off,80,0,0,,11,,,58,127
46327,note_on,3,0,0,,7,,,55,127
46407,note_off,80,0,0,,7,,,55,127
46410,note_on,3,0,0,,6,,,54,127
46490,note_off,80,0,0,,6,,,54,127
46493,note_on,3,0,0,,7,,,55,127
46573,note_off,80,0,0,,7,,,55,127
46575,note_off,2,0,0,,11,,,70,127
46576,note_on,1,0,0,,7,,,79,127
46576,note_on,0,0,0,,11,,,70,127
46576,note_on,0,0,0,,3,,,51,127
46656,note_off,80,0,0,,3,,,51,127
46659,note_on,3,0,0,,7,,,55,127
46739,note_off,80,0,0,,7,,,55,127
46742,note_on,3,0,0,,6,,,54,127
46822,note_off,80,0,0,,6,,,54,127
46825,note_on,3,0,0,,7,,,55,127
46905,note_off,80,0,0,,7,,,55,127
46908,note_on,3,0,0,,11,,,58,127
46988,note_off,80,0,0,,11,,,58,127
46991,note_on,3,0,0,,7,,,55,127
47071,note_off,80,0,0,,7,,,55,127
47074,note_on,3,0,0,,6,,,54,127
47154,note_off,80,0,0,,6,,,54,127
47157,note_on,3,0,0,,7,,,55,127
47237,note_off,80,0,0,,7,,,55,127
47239,note_off,2,0,0,,11,,,70,127
47239,note_off,0,0,0,,7,,,79,127
47240,note_on,1,0,0,,7,,,79,127
47240,note_on,0,0,0,,11,,,70,127
47240,note_on,0,0,0,,2,,,50,127
47320,note_off,80,0,0,,2,,,50,127
47323,note_on,3,0,0,,7,,,55,127
47403,note_off,80,0,0,,7,,,55,127
47406,note_on,3,0,0,,6,,,54,127
47486,note_off,80,0,0,,6,,,54,127
47489,note_on,3,0,0,,7,,,55,127
47569,note_off,80,0,0,,7,,,55,127
47572,note_on,3,0,0,,11,,,58,127
47652,note_off,80,0,0,,11,,,58,127
47655,note_on,3,0,0,,7,,,55,127
47735,note_off,80,0,0,,7,,,55,127
47738,note_on,3,0,0,,6,,,54,127
47818,note_off,80,0,0,,6,,,54,127
47821,note_on,3,0,0,,7,,,55,127
47901,note_off,80,0,0,,7,,,55,127
47903,note_off,2,0,0,,11,,,70,127
47903,note_off,0,0,0,,7,,,79,127
47904,note_on,1,0,0,,7,,,79,127
47904,note_on,0,0,0,,11,,,70,127
47904,note_on,0,0,0,,0,,,48,127
47984,note_off,80,0,0,,0,,,48,127
47987,note_on,3,0,0,,7,,,55,127
48067,note_off,80,0,0,,7,,,55,127
48070,note_on,3,0,0,,6,,,54,127
48150,note_off,80,0,0,,6,,,54,127
48153,note_on,3,0,0,,7,,,55,127
48233,note_off,80,0,0,,7,,,55,127
48236,note_on,3,0,0,,11,,,58,127
48316,note_off,80,0,0,,11,,,58,127
48319,note_on,3,0,0,,7,,,55,127
48399,note_off,80,0,0,,7,,,55,127
48402,note_on,3,0,0,,6,,,54,127
48482,note_off,80,0,0,,6,,,54,127
48485,note_on,3,0,0,,7,,,55,127
48565,note_off,80,0,0,,7,,,55,127
48567,note_off,2,0,0,,7,,,79,127
48568,note_on,1,0,0,,11,,,46,127
48649,note_off,81,0,0,,11,,,70,127
48650,note_on,1,0,0,,11,,,70,127
48730,note_off,80,0,0,,11,,,70,127
48733,note_on,3,0,0,,10,,,69,127
48813,note_off,80,0,0,,10,,,69,127
48816,note_on,3,0,0,,11,,,70,127
48896,note_off,80,0,0,,11,,,70,127
48899,note_on,3,0,0,,2,,,74,127
48979,note_off,80,0,0,,2,,,74,127
48982,note_on,3,0,0,,11,,,70,127
49062,note_off,80,0,0,,11,,,70,127
49065,note_on,3,0,0,,10,,,69,127
49145,note_off,80,0,0,,10,,,69,127
49148,note_on,3,0,0,,11,,,70,127
49189,note_off,41,0,0,,11,,,46,127
49228,note_off,39,0,0,,11,,,70,127
49231,note_on,3,0,0,,4,,,76,127
49231,note_on,0,0,0,,0,,,48,127
49311,note_off,80,0,0,,4,,,76,127
49314,note_on,3,0,0,,11,,,70,127
49394,note_off,80,0,0,,11,,,70,127
49397,note_on,3,0,0,,10,,,69,127
49477,note_off,80,0,0,,10,,,69,127
49480,note_on,3,0,0,,11,,,70,127
49560,note_off,80,0,0,,11,,,70,127
49563,note_on,3,0,0,,7,,,79,127
49643,note_off,80,0,0,,7,,,79,127
49646,note_on,3,0,0,,11,,,70,127
49726,note_off,80,0,0,,11,,,70,127
49729,note_on,3,0,0,,10,,,69,127
49809,note_off,80,0,0,,10,,,69,127
49812,note_on,3,0,0,,7,,,67,127
49853,note_off,41,0,0,,0,,,48,127
49892,note_off,39,0,0,,7,,,67,127
49895,note_on,3,0,0,,10,,,69,127
49895,note_on,0,0,0,,5,,,53,127
49975,note_off,80,0,0,,5,,,53,127
49978,note_on,3,0,0,,5,,,65,127
50058,note_off,80,0,0,,5,,,65,127
50061,note_on,3,0,0,,4,,,64,127
50141,note_off,80,0,0,,4,,,64,127
50144,note_on,3,0,0,,5,,,65,127
50223,note_off,79,0,0,,10,,,69,127
50224,note_off,1,0,0,,5,,,65,127
50227,note_on,3,0,0,,10,,,69,127
50307,note_off,80,0,0,,10,,,69,127
50310,note_on,3,0,0,,5,,,65,127
50390,note_off,80,0,0,,5,,,65,127
50393,note_on,3,0,0,,4,,,64,127
50473,note_off,80,0,0,,4,,,64,127
50476,note_on,3,0,0,,5,,,65,127
50556,note_off,80,0,0,,5,,,65,127
50559,note_on,3,0,0,,11,,,46,127
50641,note_on,82,0,0,,2,,,74,127
50721,note_off,80,0,0,,2,,,74,127
50724,note_on,3,0,0,,2,,,86,127
50804,note_off,80,0,0,,2,,,86,127
50807,note_on,3,0,0,,0,,,84,127
50887,note_off,80,0,0,,0,,,84,127
50890,note_on,3,0,0,,11,,,82,127
50970,note_off,80,0,0,,11,,,82,127
50973,note_on,3,0,0,,10,,,81,127
51053,note_off,80,0,0,,10,,,81,127
51056,note_on,3,0,0,,7,,,79,127
51136,note_off,80,0,0,,7,,,79,127
51139,note_on,3,0,0,,5,,,77,127
51219,note_off,80,0,0,,5,,,77,127
51221,note_off,2,0,0,,11,,,46,127
51222,note_on,1,0,0,,10,,,81,127
51274,note_off,52,0,0,,10,,,81,127
51277,note_on,3,0,0,,7,,,79,127
51304,note_on,27,0,0,,4,,,64,127
51329,note_off,25,0,0,,7,,,79,127
51332,note_on,3,0,0,,10,,,81,127
51384,note_off,52,0,0,,10,,,81,127
51384,note_off,0,0,0,,4,,,64,127
51387,note_on,3,0,0,,7,,,79,127
51387,note_on,0,0,0,,2,,,62,127
51467,note_off,80,0,0,,2,,,62,127
51470,note_on,3,0,0,,4,,,64,127
51550,note_off,80,0,0,,4,,,64,127
51550,note_off,0,0,0,,7,,,79,127
51553,note_on,3,0,0,,10,,,81,127
51553,note_on,0,0,0,,7,,,67,127
51605,note_off,52,0,0,,10,,,81,127
51608,note_on,3,0,0,,7,,,79,127
51633,note_off,25,0,0,,7,,,67,127
51636,note_on,3,0,0,,4,,,64,127
51661,note_off,25,0,0,,7,,,79,127
51664,note_on,3,0,0,,10,,,81,127
51716,note_off,52,0,0,,10,,,81,127
51716,note_off,0,0,0,,4,,,64,127
51719,note_on,3,0,0,,7,,,79,127
51719,note_on,0,0,0,,2,,,62,127
51799,note_off,80,0,0,,2,,,62,127
51802,note_on,3,0,0,,4,,,64,127
51881,note_off,79,0,0,,7,,,79,127
51882,note_off,1,0,0,,4,,,64,127
51885,note_on,3,0,0,,10,,,45,127
51967,note_on,82,0,0,,0,,,72,127
52047,note_off,80,0,0,,0,,,72,127
52050,note_on,3,0,0,,0,,,84,127
52130,note_off,80,0,0,,0,,,84,127
52133,note_on,3,0,0,,11,,,82,127
52213,note_off,80,0,0,,11,,,82,127
52216,note_on,3,0,0,,10,,,81,127
52296,note_off,80,0,0,,10,,,81,127
52299,note_on,3,0,0,,7,,,79,127
52379,note_off,80,0,0,,7,,,79,127
52382,note_on,3,0,0,,5,,,77,127
52462,note_off,80,0,0,,5,,,77,127
52465,note_on,3,0,0,,4,,,76,127
52545,note_off,80,0,0,,4,,,76,127
52547,note_off,2,0,0,,10,,,45,127
52548,note_on,1,0,0,,7,,,79,127
52600,note_off,52,0,0,,7,,,79,127
52603,note_on,3,0,0,,5,,,77,127
52630,note_on,27,0,0,,2,,,62,127
52655,note_off,25,0,0,,5,,,77,127
52658,note_on,3,0,0,,7,,,79,127
52710,note_off,52,0,0,,7,,,79,127
52710,note_off,0,0,0,,2,,,62,127
52713,note_on,3,0,0,,5,,,77,127
52713,note_on,0,0,0,,0,,,60,127
52793,note_off,80,0,0,,0,,,60,127
52796,note_on,3,0,0,,2,,,62,127
52876,note_off,80,0,0,,2,,,62,127
52876,note_off,0,0,0,,5,,,77,127
52879,note_on,3,0,0,,7,,,79,127
52879,note_on,0,0,0,,5,,,65,127
52931,note_off,52,0,0,,7,,,79,127
52934,note_on,3,0,0,,5,,,77,127
52959,note_off,25,0,0,,5,,,65,127
52962,note_on,3,0,0,,2,,,62,127
52987,note_off,25,0,0,,5,,,77,127
52990,note_on,3,0,0,,7,,,79,127
53042,note_off,52,0,0,,7,,,79,127
53042,note_off,0,0,0,,2,,,62,127
53045,note_on,3,0,0,,5,,,77,127
53045,note_on,0,0,0,,0,,,60,127
53125,note_off,80,0,0,,0,,,60,127
53128,note_on,3,0,0,,2,,,62,127
53207,note_off,79,0,0,,5,,,77,127
53208,note_off,1,0,0,,2,,,62,127
53211,note_on,3,0,0,,7,,,43,127
53293,note_on,82,0,0,,11,,,70,127
53373,note_off,80,0,0,,11,,,70,127
53376,note_on,3,0,0,,11,,,82,127
53456,note_off,80,0,0,,11,,,82,127
53459,note_on,3,0,0,,10,,,81,127
53539,note_off,80,0,0,,10,,,81,127
53542,note_on,3,0,0,,7,,,79,127
53622,note_off,80,0,0,,7,,,79,127
53625,note_on,3,0,0,,5,,,77,127
53705,note_off,80,0,0,,5,,,77,127
53708,note_on,3,0,0,,4,,,76,127
53788,note_off,80,0,0,,4,,,76,127
53791,note_on,3,0,0,,2,,,74,127
53871,note_off,80,0,0,,2,,,74,127
53873,note_off,2,0,0,,7,,,43,127
53874,note_on,1,0,0,,5,,,77,127
53926,note_off,52,0,0,,5,,,77,127
53929,note_on,3,0,0,,4,,,76,127
53956,note_on,27,0,0,,0,,,60,127
53981,note_off,25,0,0,,4,,,76,127
53984,note_on,3,0,0,,5,,,77,127
54036,note_off,52,0,0,,5,,,77,127
54036,note_off,0,0,0,,0,,,60,127
54039,note_on,3,0,0,,4,,,76,127
54039,note_on,0,0,0,,11,,,58,127
54119,note_off,80,0,0,,11,,,58,127
54122,note_on,3,0,0,,0,,,60,127
54202,note_off,80,0,0,,0,,,60,127
54202,note_off,0,0,0,,4,,,76,127
54205,note_on,3,0,0,,5,,,77,127
54205,note_on,0,0,0,,4,,,64,127
54257,note_off,52,0,0,,5,,,77,127
54260,note_on,3,0,0,,4,,,76,127
54285,note_off,25,0,0,,4,,,64,127
54288,note_on,3,0,0,,0,,,60,127
54313,note_off,25,0,0,,4,,,76,127
54316,note_on,3,0,0,,5,,,77,127
54368,note_off,52,0,0,,5,,,77,127
54368,note_off,0,0,0,,0,,,60,127
54371,note_on,3,0,0,,4,,,76,127
54371,note_on,0,0,0,,11,,,58,127
54451,note_off,80,0,0,,11,,,58,127
54454,note_on,3,0,0,,0,,,60,127
54533,note_off,79,0,0,,4,,,76,127
54534,note_off,1,0,0,,0,,,60,127
54537,note_on,3,0,0,,5,,,41,127
54619,note_on,82,0,0,,10,,,69,127
54699,note_off,80,0,0,,10,,,69,127
54702,note_on,3,0,0,,10,,,81,127
54782,note_off,80,0,0,,10,,,81,127
54785,note_on,3,0,0,,7,,,79,127
54865,note_off,80,0,0,,7,,,79,127
54868,note_on,3,0,0,,5,,,77,127
54948,note_off,80,0,0,,5,,,77,127
54951,note_on,3,0,0,,4,,,76,127
55031,note_off,80,0,0,,4,,,76,127
55034,note_on,3,0,0,,2,,,74,127
55114,note_off,80,0,0,,2,,,74,127
55117,note_on,3,0,0,,0,,,72,127
55197,note_off,80,0,0,,0,,,72,127
55199,note_off,2,0,0,,5,,,41,127
55200,note_on,1,0,0,,2,,,74,127
55200,note_on,0,0,0,,11,,,46,127
55280,note_off,80,0,0,,2,,,74,127
55283,note_on,3,0,0,,0,,,72,127
55363,note_off,80,0,0,,0,,,72,127
55366,note_on,3,0,0,,11,,,70,127
55446,note_off,80,0,0,,11,,,70,127
55449,note_on,3,0,0,,10,,,69,127
55529,note_off,80,0,0,,10,,,69,127
55532,note_on,3,0,0,,7,,,67,127
55612,note_off,80,0,0,,7,,,67,127
55615,note_on,3,0,0,,5,,,65,127
55695,note_off,80,0,0,,5,,,65,127
55698,note_on,3,0,0,,4,,,64,127
55778,note_off,80,0,0,,4,,,64,127
55781,note_on,3,0,0,,2,,,62,127
55861,note_off,80,0,0,,2,,,62,127
55863,note_off,2,0,0,,11,,,46,127
55864,note_on,1,0,0,,0,,,60,127
55864,note_on,0,0,0,,0,,,36,127
56810,note_off,946,0,0,,0,,,36,127
56810,note_off,0,0,0,,0,,,60,127
56872,note_on,62,0,0,,0,,,60,127
56872,note_on,0,0,0,,7,,,67,127
56872,note_on,0,0,0,,4,,,76,127
56952,note_off,80,0,0,,4,,,76,127
56955,note_on,3,0,0,,0,,,84,127
57035,note_off,80,0,0,,0,,,84,127
57035,note_off,0,0,0,,7,,,67,127
57038,note_on,3,0,0,,10,,,69,127
57038,note_on,0,0,0,,5,,,77,127
57118,note_off,80,0,0,,5,,,77,127
57121,note_on,3,0,0,,10,,,81,127
57201,note_off,80,0,0,,10,,,81,127
57201,note_off,0,0,0,,10,,,69,127
57204,note_on,3,0,0,,11,,,70,127
57204,note_on,0,0,0,,7,,,79,127
57284,note_off,80,0,0,,7,,,79,127
57284,note_off,0,0,0,,11,,,70,127
57287,note_on,3,0,0,,10,,,69,127
57287,note_on,0,0,0,,5,,,77,127
57367,note_off,80,0,0,,5,,,77,127
57367,note_off,0,0,0,,10,,,69,127
57370,note_on,3,0,0,,7,,,67,127
57370,note_on,0,0,0,,4,,,76,127
57450,note_off,80,0,0,,4,,,76,127
57450,note_off,0,0,0,,7,,,67,127
57453,note_on,3,0,0,,5,,,65,127
57453,note_on,0,0,0,,2,,,74,127
57533,note_off,80,0,0,,2,,,74,127
57533,note_off,0,0,0,,5,,,65,127
57535,note_off,2,0,0,,0,,,60,127
57536,note_on,1,0,0,,0,,,60,127
57536,note_on,0,0,0,,7,,,67,127
57536,note_on,0,0,0,,4,,,76,127
57616,note_off,80,0,0,,4,,,76,127
57619,note_on,3,0,0,,0,,,84,127
57699,note_off,80,0,0,,0,,,84,127
57699,note_off,0,0,0,,7,,,67,127
57702,note_on,3,0,0,,10,,,69,127
57702,note_on,0,0,0,,5,,,77,127
57782,note_off,80,0,0,,5,,,77,127
57785,note_on,3,0,0,,10,,,81,127
57865,note_off,80,0,0,,10,,,81,127
57865,note_off,0,0,0,,10,,,69,127
57868,note_on,3,0,0,,11,,,70,127
57868,note_on,0,0,0,,7,,,79,127
57948,note_off,80,0,0,,7,,,79,127
57948,note_off,0,0,0,,11,,,70,127
57951,note_on,3,0,0,,10,,,69,127
57951,note_on,0,0,0,,5,,,77,127
58031,note_off,80,0,0,,5,,,77,127
58031,note_off,0,0,0,,10,,,69,127
58034,note_on,3,0,0,,7,,,67,127
58034,note_on,0,0,0,,4,,,76,127
58114,note_off,80,0,0,,4,,,76,127
58114,note_off,0,0,0,,7,,,67,127
58117,note_on,3,0,0,,5,,,65,127
58117,note_on,0,0,0,,2,,,74,127
58197,note_off,80,0,0,,2,,,74,127
58197,note_off,0,0,0,,5,,,65,127
58199,note_off,2,0,0,,0,,,60,127
58200,note_on,1,0,0,,7,,,67,127
58200,note_on,0,0,0,,0,,,60,127
58200,note_on,0,0,0,,4,,,76,127
58280,note_off,80,0,0,,4,,,76,127
58283,note_on,3,0,0,,0,,,84,127
58363,note_off,80,0,0,,0,,,84,127
58363,note_off,0,0,0,,7,,,67,127
58366,note_on,3,0,0,,10,,,69,127
58366,note_on,0,0,0,,5,,,77,127
58446,note_off,80,0,0,,5,,,77,127
58449,note_on,3,0,0,,10,,,81,127
58529,note_off,80,0,0,,10,,,81,127
58529,note_off,0,0,0,,10,,,69,127
58532,note_on,3,0,0,,11,,,70,127
58532,note_on,0,0,0,,7,,,79,127
58612,note_off,80,0,0,,7,,,79,127
58612,note_off,0,0,0,,11,,,70,127
58615,note_on,3,0,0,,10,,,69,127
58615,note_on,0,0,0,,5,,,77,127
58695,note_off,80,0,0,,5,,,77,127
58695,note_off,0,0,0,,10,,,69,127
58698,note_on,3,0,0,,7,,,67,127
58698,note_on,0,0,0,,4,,,76,127
58778,note_off,80,0,0,,4,,,76,127
58778,note_off,0,0,0,,7,,,67,127
58781,note_on,3,0,0,,5,,,65,127
58781,note_on,0,0,0,,2,,,74,127
58861,note_off,80,0,0,,2,,,74,127
58861,note_off,0,0,0,,5,,,65,127
58863,note_off,2,0,0,,0,,,60,127
58864,note_on,1,0,0,,0,,,60,127
58864,note_on,0,0,0,,4,,,76,127
58944,note_off,80,0,0,,4,,,76,127
58947,note_on,3,0,0,,0,,,72,127
59027,note_off,80,0,0,,0,,,72,127
59027,note_off,0,0,0,,0,,,60,127
59030,note_on,3,0,0,,11,,,58,127
59030,note_on,0,0,0,,2,,,74,127
59110,note_off,80,0,0,,2,,,74,127
59113,note_on,3,0,0,,4,,,76,127
59193,note_off,80,0,0,,4,,,76,127
59193,note_off,0,0,0,,11,,,58,127
59196,note_on,3,0,0,,10,,,57,127
59196,note_on,0,0,0,,5,,,77,127
59276,note_off,80,0,0,,5,,,77,127
59279,note_on,3,0,0,,7,,,79,127
59359,note_off,80,0,0,,7,,,79,127
59359,note_off,0,0,0,,10,,,57,127
59362,note_on,3,0,0,,7,,,55,127
59362,note_on,0,0,0,,10,,,81,127
59442,note_off,80,0,0,,10,,,81,127
59445,note_on,3,0,0,,11,,,82,127
59525,note_off,80,0,0,,11,,,82,127
59525,note_off,0,0,0,,7,,,55,127
59528,note_on,3,0,0,,5,,,53,127
59528,note_on,0,0,0,,0,,,84,127
59608,note_off,80,0,0,,0,,,84,127
59611,note_on,3,0,0,,10,,,81,127
59691,note_off,80,0,0,,10,,,81,127
59691,note_off,0,0,0,,5,,,53,127
59694,note_on,3,0,0,,11,,,46,127
59694,note_on,0,0,0,,11,,,82,127
59774,note_off,80,0,0,,11,,,82,127
59777,note_on,3,0,0,,7,,,79,127
59857,note_off,80,0,0,,7,,,79,127
59857,note_off,0,0,0,,11,,,46,127
59860,note_on,3,0,0,,0,,,48,127
59860,note_on,0,0,0,,10,,,81,127
59940,note_off,80,0,0,,10,,,81,127
59943,note_on,3,0,0,,5,,,77,127
60023,note_off,80,0,0,,5,,,77,127
60023,note_off,0,0,0,,0,,,48,127
60026,note_on,3,0,0,,0,,,36,127
60026,note_on,0,0,0,,7,,,79,127
60106,note_off,80,0,0,,7,,,79,127
60109,note_on,3,0,0,,4,,,76,127
60189,note_off,80,0,0,,4,,,76,127
60189,note_off,0,0,0,,0,,,36,127
60192,note_on,3,0,0,,5,,,41,127
60192,note_on,0,0,0,,7,,,79,127
60245,note_off,53,0,0,,7,,,79,127
60247,note_on,2,0,0,,5,,,77,127
60300,note_off,53,0,0,,5,,,77,127
60302,note_on,2,0,0,,7,,,79,127
60355,note_off,53,0,0,,7,,,79,127
60357,note_on,2,0,0,,5,,,77,127
60410,note_off,53,0,0,,5,,,77,127
60412,note_on,2,0,0,,7,,,79,127
60465,note_off,53,0,0,,7,,,79,127
60467,note_on,2,0,0,,5,,,77,127
60520,note_off,53,0,0,,5,,,77,127
60522,note_on,2,0,0,,7,,,79,127
60575,note_off,53,0,0,,7,,,79,127
60577,note_on,2,0,0,,5,,,77,127
60630,note_off,53,0,0,,5,,,77,127
60632,note_on,2,0,0,,7,,,79,127
60685,note_off,53,0,0,,7,,,79,127
60686,note_off,1,0,0,,5,,,41,127
60687,note_on,1,0,0,,5,,,77,127
60740,note_off,53,0,0,,5,,,77,127
60742,note_on,2,0,0,,7,,,79,127
60795,note_off,53,0,0,,7,,,79,127
60797,note_on,2,0,0,,5,,,77,127
60850,note_off,53,0,0,,5,,,77,127
60852,note_on,2,0,0,,0,,,60,127
60852,note_on,0,0,0,,7,,,67,127
60852,note_on,0,0,0,,4,,,76,127
60932,note_off,80,0,0,,4,,,76,127
60935,note_on,3,0,0,,0,,,84,127
61015,note_off,80,0,0,,0,,,84,127
61015,note_off,0,0,0,,7,,,67,127
61018,note_on,3,0,0,,10,,,69,127
61018,note_on,0,0,0,,5,,,77,127
61098,note_off,80,0,0,,5,,,77,127
61101,note_on,3,0,0,,10,,,81,127
61181,note_off,80,0,0,,10,,,81,127
61181,note_off,0,0,0,,10,,,69,127
61184,note_on,3,0,0,,11,,,70,127
61184,note_on,0,0,0,,7,,,79,127
61264,note_off,80,0,0,,7,,,79,127
61264,note_off,0,0,0,,11,,,70,127
61267,note_on,3,0,0,,10,,,69,127
61267,note_on,0,0,0,,5,,,77,127
61347,note_off,80,0,0,,5,,,77,127
61347,note_off,0,0,0,,10,,,69,127
61350,note_on,3,0,0,,7,,,67,127
61350,note_on,0,0,0,,4,,,76,127
61430,note_off,80,0,0,,4,,,76,127
61430,note_off,0,0,0,,7,,,67,127
61433,note_on,3,0,0,,5,,,65,127
61433,note_on,0,0,0,,2,,,74,127
61513,note_off,80,0,0,,2,,,74,127
61513,note_off,0,0,0,,5,,,65,127
61515,note_off,2,0,0,,0,,,60,127
61516,note_on,1,0,0,,0,,,60,127
61516,note_on,0,0,0,,7,,,67,127
61516,note_on,0,0,0,,4,,,76,127
61596,note_off,80,0,0,,4,,,76,127
61599,note_on,3,0,0,,0,,,84,127
61679,note_off,80,0,0,,0,,,84,127
61679,note_off,0,0,0,,7,,,67,127
61682,note_on,3,0,0,,10,,,69,127
61682,note_on,0,0,0,,5,,,77,127
61762,note_off,80,0,0,,5,,,77,127
61765,note_on,3,0,0,,10,,,81,127
61845,note_off,80,0,0,,10,,,81,127
61845,note_off,0,0,0,,10,,,69,127
61848,note_on,3,0,0,,11,,,70,127
61848,note_on,0,0,0,,7,,,79,127
61928,note_off,80,0,0,,7,,,79,127
61928,note_off,0,0,0,,11,,,70,127
61931,note_on,3,0,0,,10,,,69,127
61931,note_on,0,0,0,,5,,,77,127
62011,note_off,80,0,0,,5,,,77,127
62011,note_off,0,0,0,,10,,,69,127
62014,note_on,3,0,0,,7,,,67,127
62014,note_on,0,0,0,,4,,,76,127
62094,note_off,80,0,0,,4,,,76,127
62094,note_off,0,0,0,,7,,,67,127
62097,note_on,3,0,0,,5,,,65,127
62097,note_on,0,0,0,,2,,,74,127
62177,note_off,80,0,0,,2,,,74,127
62177,note_off,0,0,0,,5,,,65,127
62179,note_off,2,0,0,,0,,,60,127
62180,note_on,1,0,0,,0,,,60,127
62180,note_on,0,0,0,,4,,,76,127
62260,note_off,80,0,0,,4,,,76,127
62263,note_on,3,0,0,,0,,,72,127
62343,note_off,80,0,0,,0,,,72,127
62343,note_off,0,0,0,,0,,,60,127
62346,note_on,3,0,0,,11,,,58,127
62346,note_on,0,0,0,,2,,,74,127
62426,note_off,80,0,0,,2,,,74,127
62429,note_on,3,0,0,,4,,,76,127
62509,note_off,80,0,0,,4,,,76,127
62509,note_off,0,0,0,,11,,,58,127
62512,note_on,3,0,0,,10,,,57,127
62512,note_on,0,0,0,,5,,,77,127
62592,note_off,80,0,0,,5,,,77,127
62595,note_on,3,0,0,,7,,,79,127
62675,note_off,80,0,0,,7,,,79,127
62675,note_off,0,0,0,,10,,,57,127
62678,note_on,3,0,0,,7,,,55,127
62678,note_on,0,0,0,,10,,,81,127
62758,note_off,80,0,0,,10,,,81,127
62761,note_on,3,0,0,,11,,,82,127
62841,note_off,80,0,0,,11,,,82,127
62841,note_off,0,0,0,,7,,,55,127
62844,note_on,3,0,0,,5,,,53,127
62844,note_on,0,0,0,,0,,,84,127
62924,note_off,80,0,0,,0,,,84,127
62927,note_on,3,0,0,,10,,,81,127
63007,note_off,80,0,0,,10,,,81,127
63007,note_off,0,0,0,,5,,,53,127
63010,note_on,3,0,0,,11,,,46,127
63010,note_on,0,0,0,,11,,,82,127
63090,note_off,80,0,0,,11,,,82,127
63093,note_on,3,0,0,,7,,,79,127
63173,note_off,80,0,0,,7,,,79,127
63173,note_off,0,0,0,,11,,,46,127
63176,note_on,3,0,0,,0,,,48,127
63176,note_on,0,0,0,,10,,,81,127
63256,note_off,80,0,0,,10,,,81,127
63259,note_on,3,0,0,,5,,,77,127
63339,note_off,80,0,0,,5,,,77,127
63339,note_off,0,0,0,,0,,,48,127
63342,note_on,3,0,0,,0,,,36,127
63342,note_on,0,0,0,,7,,,79,127
63422,note_off,80,0,0,,7,,,79,127
63425,note_on,3,0,0,,4,,,76,127
63504,note_off,79,0,0,,4,,,76,127
63505,note_off,1,0,0,,0,,,36,127
63508,note_on,3,0,0,,5,,,41,127
63590,note_on,82,0,0,,5,,,77,127
63670,note_off,80,0,0,,5,,,77,127
63673,note_on,3,0,0,,4,,,76,127
63753,note_off,80,0,0,,4,,,76,127
63756,note_on,3,0,0,,5,,,77,127
63836,note_off,80,0,0,,5,,,77,127
63839,note_on,3,0,0,,10,,,81,127
63919,note_off,80,0,0,,10,,,81,127
63922,note_on,3,0,0,,5,,,77,127
64002,note_off,80,0,0,,5,,,77,127
64004,note_off,2,0,0,,5,,,41,127
64005,note_on,1,0,0,,4,,,76,127
64085,note_off,80,0,0,,4,,,76,127
64088,note_on,3,0,0,,5,,,77,127
64168,note_off,80,0,0,,5,,,77,127
64171,note_on,3,0,0,,11,,,46,127
64171,note_on,0,0,0,,2,,,74,127
64251,note_off,80,0,0,,2,,,74,127
64254,note_on,3,0,0,,5,,,77,127
64334,note_off,80,0,0,,5,,,77,127
64337,note_on,3,0,0,,4,,,76,127
64417,note_off,80,0,0,,4,,,76,127
64420,note_on,3,0,0,,5,,,77,127
64500,note_off,80,0,0,,5,,,77,127
64502,note_off,2,0,0,,11,,,46,127
64503,note_on,1,0,0,,0,,,48,127
64503,note_on,0,0,0,,11,,,82,127
64583,note_off,80,0,0,,11,,,82,127
64586,note_on,3,0,0,,7,,,79,127
64666,note_off,80,0,0,,7,,,79,127
64669,note_on,3,0,0,,5,,,77,127
64749,note_off,80,0,0,,5,,,77,127
64752,note_on,3,0,0,,4,,,76,127
64831,note_off,79,0,0,,4,,,76,127
64834,note_off,3,0,0,,0,,,48,127
64835,note_on,1,0,0,,5,,,41,127
64917,note_on,82,0,0,,5,,,77,127
64997,note_off,80,0,0,,5,,,77,127
65000,note_on,3,0,0,,4,,,76,127
65080,note_off,80,0,0,,4,,,76,127
65083,note_on,3,0,0,,5,,,77,127
65163,note_off,80,0,0,,5,,,77,127
65166,note_on,3,0,0,,10,,,81,127
65246,note_off,80,0,0,,10,,,81,127
65249,note_on,3,0,0,,5,,,77,127
65329,note_off,80,0,0,,5,,,77,127
65331,note_off,2,0,0,,5,,,41,127
65332,note_on,1,0,0,,4,,,76,127
65412,note_off,80,0,0,,4,,,76,127
65415,note_on,3,0,0,,5,,,77,127
65495,note_off,80,0,0,,5,,,77,127
65498,note_on,3,0,0,,11,,,46,127
65498,note_on,0,0,0,,2,,,74,127
65578,note_off,80,0,0,,2,,,74,127
65581,note_on,3,0,0,,5,,,77,127
65661,note_off,80,0,0,,5,,,77,127
65664,note_on,3,0,0,,4,,,76,127
65744,note_off,80,0,0,,4,,,76,127
65747,note_on,3,0,0,,5,,,77,127
65827,note_off,80,0,0,,5,,,77,127
65829,note_off,2,0,0,,11,,,46,127
65830,note_on,1,0,0,,0,,,48,127
65830,note_on,0,0,0,,11,,,82,127
65910,note_off,80,0,0,,11,,,82,127
65913,note_on,3,0,0,,7,,,79,127
65993,note_off,80,0,0,,7,,,79,127
65996,note_on,3,0,0,,5,,,77,127
66076,note_off,80,0,0,,5,,,77,127
66079,note_on,3,0,0,,4,,,76,127
66159,note_off,80,0,0,,4,,,76,127
66161,note_off,2,0,0,,0,,,48,127
66162,note_on,1,0,0,,5,,,41,127
66162,note_on,0,0,0,,5,,,77,127
66242,note_off,80,0,0,,5,,,77,127
66245,note_on,3,0,0,,2,,,74,127
66325,note_off,80,0,0,,2,,,74,127
66325,note_off,0,0,0,,5,,,41,127
66328,note_on,3,0,0,,5,,,53,127
66328,note_on,0,0,0,,3,,,75,127
66408,note_off,80,0,0,,3,,,75,127
66411,note_on,3,0,0,,0,,,72,127
66491,note_off,80,0,0,,0,,,72,127
66491,note_off,0,0,0,,5,,,53,127
66494,note_on,3,0,0,,11,,,58,127
66494,note_on,0,0,0,,2,,,74,127
66574,note_off,80,0,0,,2,,,74,127
66577,note_on,3,0,0,,11,,,70,127
66657,note_off,80,0,0,,11,,,70,127
66657,note_off,0,0,0,,11,,,58,127
66660,note_on,3,0,0,,10,,,57,127
66660,note_on,0,0,0,,0,,,72,127
66740,note_off,80,0,0,,0,,,72,127
66743,note_on,3,0,0,,10,,,69,127
66823,note_off,80,0,0,,10,,,69,127
66823,note_off,0,0,0,,10,,,57,127
66826,note_on,3,0,0,,7,,,55,127
66826,note_on,0,0,0,,11,,,70,127
66906,note_off,80,0,0,,11,,,70,127
66909,note_on,3,0,0,,7,,,67,127
66989,note_off,80,0,0,,7,,,67,127
66989,note_off,0,0,0,,7,,,55,127
66992,note_on,3,0,0,,5,,,53,127
66992,note_on,0,0,0,,10,,,69,127
67072,note_off,80,0,0,,10,,,69,127
67075,note_on,3,0,0,,5,,,65,127
67155,note_off,80,0,0,,5,,,65,127
67155,note_off,0,0,0,,5,,,53,127
67158,note_on,3,0,0,,11,,,46,127
67158,note_on,0,0,0,,7,,,67,127
67238,note_off,80,0,0,,7,,,67,127
67241,note_on,3,0,0,,2,,,62,127
67321,note_off,80,0,0,,2,,,62,127
67321,note_off,0,0,0,,11,,,46,127
67324,note_on,3,0,0,,0,,,48,127
67324,note_on,0,0,0,,4,,,64,127
67404,note_off,80,0,0,,4,,,64,127
67407,note_on,3,0,0,,7,,,67,127
67487,note_off,80,0,0,,7,,,67,127
67487,note_off,0,0,0,,0,,,48,127
67497,note_on,10,0,0,,5,,,77,127
67497,note_on,0,0,0,,5,,,41,127
67577,note_off,80,0,0,,5,,,77,127
67580,note_on,3,0,0,,2,,,74,127
67660,note_off,80,0,0,,2,,,74,127
67660,note_off,0,0,0,,5,,,41,127
67663,note_on,3,0,0,,3,,,75,127
67663,note_on,0,0,0,,5,,,53,127
67743,note_off,80,0,0,,3,,,75,127
67746,note_on,3,0,0,,0,,,72,127
67826,note_off,80,0,0,,0,,,72,127
67826,note_off,0,0,0,,5,,,53,127
67829,note_on,3,0,0,,2,,,74,127
67829,note_on,0,0,0,,11,,,58,127
67909,note_off,80,0,0,,2,,,74,127
67912,note_on,3,0,0,,11,,,70,127
67992,note_off,80,0,0,,11,,,70,127
67992,note_off,0,0,0,,11,,,58,127
67995,note_on,3,0,0,,0,,,72,127
67995,note_on,0,0,0,,10,,,57,127
68075,note_off,80,0,0,,0,,,72,127
68078,note_on,3,0,0,,10,,,69,127
68158,note_off,80,0,0,,10,,,69,127
68158,note_off,0,0,0,,10,,,57,127
68161,note_on,3,0,0,,11,,,70,127
68161,note_on,0,0,0,,7,,,55,127
68241,note_off,80,0,0,,11,,,70,127
68244,note_on,3,0,0,,7,,,67,127
68324,note_off,80,0,0,,7,,,67,127
68324,note_off,0,0,0,,7,,,55,127
68327,note_on,3,0,0,,10,,,69,127
68327,note_on,0,0,0,,5,,,53,127
68407,note_off,80,0,0,,10,,,69,127
68410,note_on,3,0,0,,5,,,65,127
68490,note_off,80,0,0,,5,,,65,127
68490,note_off,0,0,0,,5,,,53,127
68493,note_on,3,0,0,,7,,,67,127
68493,note_on,0,0,0,,11,,,46,127
68573,note_off,80,0,0,,7,,,67,127
68576,note_on,3,0,0,,2,,,62,127
68656,note_off,80,0,0,,2,,,62,127
68656,note_off,0,0,0,,11,,,46,127
68659,note_on,3,0,0,,4,,,64,127
68659,note_on,0,0,0,,0,,,48,127
68739,note_off,80,0,0,,4,,,64,127
68742,note_on,3,0,0,,7,,,67,127
68822,note_off,80,0,0,,7,,,67,127
68822,note_off,0,0,0,,0,,,48,127
68831,note_on,9,0,0,,5,,,41,127
68831,note_on,0,0,0,,5,,,77,127
68911,note_off,80,0,0,,5,,,77,127
68914,note_on,3,0,0,,0,,,72,127
68994,note_off,80,0,0,,0,,,72,127
68994,note_off,0,0,0,,5,,,41,127
68997,note_on,3,0,0,,10,,,45,127
68997,note_on,0,0,0,,10,,,69,127
69077,note_off,80,0,0,,10,,,69,127
69080,note_on,3,0,0,,5,,,65,127
69160,note_off,80,0,0,,5,,,65,127
69160,note_off,0,0,0,,10,,,45,127
69163,note_on,3,0,0,,11,,,46,127
69163,note_on,0,0,0,,7,,,67,127
69243,note_off,80,0,0,,7,,,67,127
69246,note_on,3,0,0,,5,,,77,127
69326,note_off,80,0,0,,5,,,77,127
69326,note_off,0,0,0,,11,,,46,127
69329,note_on,3,0,0,,0,,,48,127
69329,note_on,0,0,0,,11,,,70,127
69409,note_off,80,0,0,,11,,,70,127
69412,note_on,3,0,0,,4,,,76,127
69492,note_off,80,0,0,,4,,,76,127
69492,note_off,0,0,0,,0,,,48,127
69495,note_on,3,0,0,,5,,,41,127
69495,note_on,0,0,0,,5,,,77,127
69575,note_off,80,0,0,,5,,,77,127
69578,note_on,3,0,0,,0,,,72,127
69658,note_off,80,0,0,,0,,,72,127
69658,note_off,0,0,0,,5,,,41,127
69661,note_on,3,0,0,,10,,,45,127
69661,note_on,0,0,0,,10,,,69,127
69741,note_off,80,0,0,,10,,,69,127
69744,note_on,3,0,0,,5,,,65,127
69824,note_off,80,0,0,,5,,,65,127
69824,note_off,0,0,0,,10,,,45,127
69827,note_on,3,0,0,,11,,,46,127
69827,note_on,0,0,0,,7,,,67,127
69907,note_off,80,0,0,,7,,,67,127
69910,note_on,3,0,0,,5,,,77,127
69990,note_off,80,0,0,,5,,,77,127
69990,note_off,0,0,0,,11,,,46,127
69993,note_on,3,0,0,,0,,,48,127
69993,note_on,0,0,0,,11,,,70,127
70073,note_off,80,0,0,,11,,,70,127
70076,note_on,3,0,0,,4,,,76,127
70156,note_off,80,0,0,,4,,,76,127
70156,note_off,0,0,0,,0,,,48,127
70159,note_on,3,0,0,,5,,,41,127
70159,note_on,0,0,0,,5,,,77,127
70239,note_off,80,0,0,,5,,,77,127
70242,note_on,3,0,0,,10,,,69,127
70322,note_off,80,0,0,,10,,,69,127
70325,note_on,3,0,0,,7,,,67,127
70405,note_off,80,0,0,,7,,,67,127
70408,note_on,3,0,0,,4,,,76,127
70488,note_off,80,0,0,,4,,,76,127
70490,note_off,2,0,0,,5,,,41,127
70491,note_on,1,0,0,,5,,,41,127
70491,note_on,0,0,0,,5,,,77,127
70571,note_off,80,0,0,,5,,,77,127
70574,note_on,3,0,0,,10,,,69,127
70654,note_off,80,0,0,,10,,,69,127
70657,note_on,3,0,0,,7,,,67,127
70737,note_off,80,0,0,,7,,,67,127
70740,note_on,3,0,0,,4,,,76,127
70820,note_off,80,0,0,,4,,,76,127
70822,note_off,2,0,0,,5,,,41,127
70823,note_on,1,0,0,,5,,,41,127
70823,note_on,0,0,0,,5,,,77,127
70903,note_off,80,0,0,,5,,,77,127
70906,note_on,3,0,0,,10,,,69,127
70986,note_off,80,0,0,,10,,,69,127
70989,note_on,3,0,0,,7,,,67,127
71069,note_off,80,0,0,,7,,,67,127
71072,note_on,3,0,0,,4,,,76,127
71152,note_off,80,0,0,,4,,,76,127
71154,note_off,2,0,0,,5,,,41,127
71155,note_on,1,0,0,,5,,,41,127
71155,note_on,0,0,0,,5,,,77,127
71235,note_off,80,0,0,,5,,,77,127
71238,note_on,3,0,0,,10,,,69,127
71318,note_off,80,0,0,,10,,,69,127
71321,note_on,3,0,0,,7,,,67,127
71401,note_off,80,0,0,,7,,,67,127
71404,note_on,3,0,0,,4,,,76,127
71484,note_off,80,0,0,,4,,,76,127
71486,note_off,2,0,0,,5,,,41,127
71487,note_on,1,0,0,,5,,,41,127
71487,note_on,0,0,0,,7,,,79,127
71539,note_off,52,0,0,,7,,,79,127
71542,note_on,3,0,0,,5,,,77,127
71594,note_off,52,0,0,,5,,,77,127
71597,note_on,3,0,0,,7,,,79,127
71649,note_off,52,0,0,,7,,,79,127
71652,note_on,3,0,0,,5,,,77,127
73469,note_off,1817,0,0,,5,,,77,127
73469,note_off,0,0,0,,5,,,41,127
75264,end_of_track,1795,1,0,,,,,,
