tick,type,time,meta,track,program,channel,pitch,tempo,note,velocity
0,copyright,0,1,0,,,,,,
0,program_change,0,0,0,6,0,,,,
0,pitchwheel,0,0,0,,0,0,,,
0,program_change,0,0,0,6,1,,,,
0,pitchwheel,0,0,0,,1,-590,,,
0,program_change,0,0,0,6,2,,,,
0,pitchwheel,0,0,0,,2,-272,,,
0,program_change,0,0,0,6,3,,,,
0,pitchwheel,0,0,0,,3,-353,,,
0,program_change,0,0,0,6,4,,,,
0,pitchwheel,0,0,0,,4,-560,,,
0,program_change,0,0,0,6,5,,,,
0,pitchwheel,0,0,0,,5,-80,,,
0,program_change,0,0,0,6,6,,,,
0,pitchwheel,0,0,0,,6,-625,,,
0,program_change,0,0,0,6,7,,,,
0,pitchwheel,0,0,0,,7,-130,,,
0,program_change,0,0,0,6,8,,,,
0,pitchwheel,0,0,0,,8,-512,,,
0,program_change,0,0,0,6,10,,,,
0,pitchwheel,0,0,0,,10,-464,,,
0,program_change,0,0,0,6,11,,,,
0,pitchwheel,0,0,0,,11,-208,,,
0,program_change,0,0,0,6,12,,,,
0,pitchwheel,0,0,0,,12,-553,,,
0,set_tempo,0,1,0,,,,500000,,
200,note_on,200,0,0,,0,,,72,127
392,note_off,192,0,0,,0,,,72,127
400,note_on,8,0,0,,5,,,77,127
733,note_off,333,0,0,,5,,,77,127
734,note_on,1,0,0,,7,,,79,127
800,note_off,66,0,0,,7,,,79,127
801,note_on,1,0,0,,10,,,81,127
801,note_on,0,0,0,,5,,,65,127
1000,note_off,199,0,0,,5,,,65,127
1000,note_off,0,0,0,,10,,,81,127
1001,note_on,1,0,0,,11,,,82,127
1001,note_on,0,0,0,,4,,,64,127
1401,note_off,400,0,0,,4,,,64,127
1401,note_off,0,0,0,,11,,,82,127
1402,note_on,1,0,0,,10,,,81,127
1402,note_on,0,0,0,,5,,,65,127
1601,note_off,199,0,0,,5,,,65,127
1601,note_off,0,0,0,,10,,,81,127
1602,note_on,1,0,0,,2,,,86,127
1602,note_on,0,0,0,,11,,,70,127
2002,note_off,400,0,0,,11,,,70,127
2002,note_off,0,0,0,,2,,,86,127
2003,note_on,1,0,0,,0,,,84,127
2003,note_on,0,0,0,,10,,,69,127
2202,note_off,199,0,0,,10,,,69,127
2202,note_off,0,0,0,,0,,,84,127
2203,note_on,1,0,0,,4,,,76,127
2203,note_on,0,0,0,,7,,,67,127
2603,note_off,400,0,0,,7,,,67,127
2603,note_off,0,0,0,,4,,,76,127
2604,note_on,1,0,0,,5,,,77,127
2604,note_on,0,0,0,,5,,,65,127
2803,note_off,199,0,0,,5,,,65,127
2803,note_off,0,0,0,,5,,,77,127
2804,note_on,1,0,0,,11,,,70,127
2804,note_on,0,0,0,,4,,,64,127
3204,note_off,400,0,0,,4,,,64,127
3204,note_off,0,0,0,,11,,,70,127
3205,note_on,1,0,0,,10,,,69,127
3205,note_on,0,0,0,,5,,,65,127
3404,note_off,199,0,0,,5,,,65,127
3404,note_off,0,0,0,,10,,,69,127
3405,note_on,1,0,0,,7,,,67,127
3405,note_on,0,0,0,,11,,,58,127
3805,note_off,400,0,0,,11,,,58,127
3805,note_off,0,0,0,,7,,,67,127
3806,note_on,1,0,0,,5,,,65,127
3806,note_on,0,0,0,,2,,,62,127
4005,note_off,199,0,0,,2,,,62,127
4005,note_off,0,0,0,,5,,,65,127
4006,note_on,1,0,0,,7,,,67,127
4006,note_on,0,0,0,,0,,,60,127
4406,note_off,400,0,0,,0,,,60,127
4406,note_off,0,0,0,,7,,,67,127
4407,note_on,1,0,0,,7,,,67,127
4407,note_on,0,0,0,,0,,,48,127
4606,note_off,199,0,0,,0,,,48,127
4606,note_off,0,0,0,,7,,,67,127
4607,note_on,1,0,0,,7,,,67,127
4607,note_on,0,0,0,,0,,,36,127
5004,note_off,397,0,0,,0,,,36,127
5007,note_off,3,0,0,,7,,,67,127
5008,note_on,1,0,0,,0,,,60,127
5207,note_off,199,0,0,,0,,,60,127
5208,note_on,1,0,0,,5,,,65,127
5541,note_off,333,0,0,,5,,,65,127
5542,note_on,1,0,0,,7,,,67,127
5608,note_off,66,0,0,,7,,,67,127
5609,note_on,1,0,0,,10,,,69,127
5609,note_on,0,0,0,,5,,,53,127
5808,note_off,199,0,0,,5,,,53,127
5808,note_off,0,0,0,,10,,,69,127
5809,note_on,1,0,0,,11,,,70,127
5809,note_on,0,0,0,,4,,,52,127
6209,note_off,400,0,0,,4,,,52,127
6209,note_off,0,0,0,,11,,,70,127
6210,note_on,1,0,0,,10,,,69,127
6210,note_on,0,0,0,,5,,,53,127
6409,note_off,199,0,0,,5,,,53,127
6409,note_off,0,0,0,,10,,,69,127
6410,note_on,1,0,0,,4,,,76,127
6410,note_on,0,0,0,,11,,,58,127
6810,note_off,400,0,0,,11,,,58,127
6810,note_off,0,0,0,,4,,,76,127
6811,note_on,1,0,0,,5,,,77,127
6811,note_on,0,0,0,,10,,,57,127
7010,note_off,199,0,0,,10,,,57,127
7010,note_off,0,0,0,,5,,,77,127
7011,note_on,1,0,0,,11,,,82,127
7011,note_on,0,0,0,,7,,,55,127
7411,note_off,400,0,0,,7,,,55,127
7411,note_off,0,0,0,,11,,,82,127
7412,note_on,1,0,0,,10,,,81,127
7412,note_on,0,0,0,,5,,,53,127
7611,note_off,199,0,0,,5,,,53,127
7611,note_off,0,0,0,,10,,,81,127
7612,note_on,1,0,0,,7,,,79,127
7612,note_on,0,0,0,,11,,,46,127
8012,note_off,400,0,0,,11,,,46,127
8012,note_off,0,0,0,,7,,,79,127
8013,note_on,1,0,0,,2,,,74,127
8013,note_on,0,0,0,,11,,,58,127
8212,note_off,199,0,0,,11,,,58,127
8212,note_off,0,0,0,,2,,,74,127
8213,note_on,1,0,0,,5,,,77,127
8213,note_on,0,0,0,,0,,,60,127
8323,note_off,110,0,0,,5,,,77,127
8324,note_on,1,0,0,,4,,,76,127
8434,note_off,110,0,0,,4,,,76,127
8435,note_on,1,0,0,,2,,,74,127
8613,note_off,178,0,0,,2,,,74,127
8613,note_off,0,0,0,,0,,,60,127
8614,note_on,1,0,0,,4,,,76,127
8614,note_on,0,0,0,,0,,,48,127
8813,note_off,199,0,0,,0,,,48,127
8813,note_off,0,0,0,,4,,,76,127
8814,note_on,1,0,0,,5,,,77,127
8814,note_on,0,0,0,,5,,,53,127
9214,note_off,400,0,0,,5,,,53,127
9214,note_off,0,0,0,,5,,,77,127
9215,note_on,1,0,0,,5,,,77,127
9215,note_on,0,0,0,,5,,,41,127
9414,note_off,199,0,0,,5,,,41,127
9414,note_off,0,0,0,,5,,,77,127
9415,note_on,1,0,0,,5,,,77,127
9415,note_on,0,0,0,,5,,,41,127
9812,note_off,397,0,0,,5,,,41,127
9815,note_off,3,0,0,,5,,,77,127
9816,note_on,1,0,0,,8,,,80,127
10015,note_off,199,0,0,,8,,,80,127
10016,note_on,1,0,0,,10,,,81,127
10315,note_off,299,0,0,,10,,,81,127
10316,note_on,1,0,0,,5,,,77,127
10415,note_off,99,0,0,,5,,,77,127
10416,note_on,1,0,0,,1,,,73,127
10416,note_on,0,0,0,,5,,,65,127
10615,note_off,199,0,0,,5,,,65,127
10615,note_off,0,0,0,,1,,,73,127
10616,note_on,1,0,0,,2,,,74,127
10616,note_on,0,0,0,,5,,,65,127
11016,note_off,400,0,0,,5,,,65,127
11016,note_off,0,0,0,,2,,,74,127
11017,note_on,1,0,0,,4,,,76,127
11017,note_on,0,0,0,,4,,,64,127
11216,note_off,199,0,0,,4,,,64,127
11216,note_off,0,0,0,,4,,,76,127
11217,note_on,1,0,0,,5,,,77,127
11217,note_on,0,0,0,,2,,,62,127
11617,note_off,400,0,0,,2,,,62,127
11617,note_off,0,0,0,,5,,,77,127
11618,note_on,1,0,0,,5,,,77,127
11618,note_on,0,0,0,,2,,,50,127
11817,note_off,199,0,0,,2,,,50,127
11817,note_off,0,0,0,,5,,,77,127
11818,note_on,1,0,0,,5,,,77,127
11818,note_on,0,0,0,,2,,,38,127
12215,note_off,397,0,0,,2,,,38,127
12218,note_off,3,0,0,,5,,,77,127
12219,note_on,1,0,0,,10,,,81,127
12418,note_off,199,0,0,,10,,,81,127
12419,note_on,1,0,0,,7,,,79,127
12718,note_off,299,0,0,,7,,,79,127
12719,note_on,1,0,0,,4,,,76,127
12818,note_off,99,0,0,,4,,,76,127
12819,note_on,1,0,0,,12,,,71,127
12819,note_on,0,0,0,,4,,,64,127
13018,note_off,199,0,0,,4,,,64,127
13018,note_off,0,0,0,,12,,,71,127
13019,note_on,1,0,0,,0,,,72,127
13019,note_on,0,0,0,,4,,,64,127
13419,note_off,400,0,0,,4,,,64,127
13419,note_off,0,0,0,,0,,,72,127
13420,note_on,1,0,0,,2,,,74,127
13420,note_on,0,0,0,,2,,,62,127
13619,note_off,199,0,0,,2,,,62,127
13619,note_off,0,0,0,,2,,,74,127
13620,note_on,1,0,0,,4,,,76,127
13620,note_on,0,0,0,,0,,,60,127
14020,note_off,400,0,0,,0,,,60,127
14020,note_off,0,0,0,,4,,,76,127
14021,note_on,1,0,0,,4,,,76,127
14021,note_on,0,0,0,,0,,,48,127
14220,note_off,199,0,0,,0,,,48,127
14220,note_off,0,0,0,,4,,,76,127
14221,note_on,1,0,0,,4,,,76,127
14221,note_on,0,0,0,,0,,,36,127
14618,note_off,397,0,0,,0,,,36,127
14621,note_off,3,0,0,,4,,,76,127
14622,note_on,1,0,0,,7,,,79,127
14821,note_off,199,0,0,,7,,,79,127
14822,note_on,1,0,0,,5,,,77,127
15121,note_off,299,0,0,,5,,,77,127
15122,note_on,1,0,0,,2,,,74,127
15221,note_off,99,0,0,,2,,,74,127
15222,note_on,1,0,0,,10,,,69,127
15222,note_on,0,0,0,,2,,,62,127
15421,note_off,199,0,0,,2,,,62,127
15421,note_off,0,0,0,,10,,,69,127
15422,note_on,1,0,0,,12,,,71,127
15422,note_on,0,0,0,,2,,,62,127
15822,note_off,400,0,0,,2,,,62,127
15822,note_off,0,0,0,,12,,,71,127
15823,note_on,1,0,0,,0,,,72,127
15823,note_on,0,0,0,,0,,,60,127
16022,note_off,199,0,0,,0,,,60,127
16022,note_off,0,0,0,,0,,,72,127
16023,note_on,1,0,0,,2,,,74,127
16023,note_on,0,0,0,,12,,,59,127
16423,note_off,400,0,0,,12,,,59,127
16423,note_off,0,0,0,,2,,,74,127
16424,note_on,1,0,0,,4,,,76,127
16424,note_on,0,0,0,,10,,,57,127
16623,note_off,199,0,0,,10,,,57,127
16623,note_off,0,0,0,,4,,,76,127
16624,note_on,1,0,0,,5,,,77,127
16624,note_on,0,0,0,,7,,,55,127
17024,note_off,400,0,0,,7,,,55,127
17024,note_off,0,0,0,,5,,,77,127
17025,note_on,1,0,0,,4,,,76,127
17025,note_on,0,0,0,,0,,,60,127
17224,note_off,199,0,0,,0,,,60,127
17224,note_off,0,0,0,,4,,,76,127
17225,note_on,1,0,0,,10,,,81,127
17225,note_on,0,0,0,,5,,,53,127
17625,note_off,400,0,0,,5,,,53,127
17625,note_off,0,0,0,,10,,,81,127
17626,note_on,1,0,0,,2,,,74,127
17626,note_on,0,0,0,,7,,,55,127
17825,note_off,199,0,0,,7,,,55,127
17825,note_off,0,0,0,,2,,,74,127
17826,note_on,1,0,0,,2,,,74,127
17826,note_on,0,0,0,,10,,,57,127
17936,note_off,110,0,0,,2,,,74,127
17937,note_on,1,0,0,,0,,,72,127
18047,note_off,110,0,0,,0,,,72,127
18048,note_on,1,0,0,,12,,,71,127
18226,note_off,178,0,0,,12,,,71,127
18226,note_off,0,0,0,,10,,,57,127
18227,note_on,1,0,0,,0,,,72,127
18227,note_on,0,0,0,,10,,,45,127
18426,note_off,199,0,0,,10,,,45,127
18426,note_off,0,0,0,,0,,,72,127
18427,note_on,1,0,0,,2,,,74,127
18427,note_on,0,0,0,,7,,,43,127
18782,note_off,355,0,0,,2,,,74,127
18827,note_off,45,0,0,,7,,,43,127
18828,note_on,1,0,0,,7,,,79,127
18828,note_on,0,0,0,,7,,,67,127
18828,note_on,0,0,0,,4,,,52,127
19027,note_off,199,0,0,,4,,,52,127
19027,note_off,0,0,0,,7,,,67,127
19027,note_off,0,0,0,,7,,,79,127
19028,note_on,1,0,0,,7,,,79,127
19028,note_on,0,0,0,,10,,,69,127
19028,note_on,0,0,0,,5,,,53,127
19428,note_off,400,0,0,,5,,,53,127
19428,note_off,0,0,0,,10,,,69,127
19428,note_off,0,0,0,,7,,,79,127
19429,note_on,1,0,0,,12,,,71,127
19429,note_on,0,0,0,,7,,,79,127
19429,note_on,0,0,0,,7,,,55,127
19628,note_off,199,0,0,,7,,,55,127
19628,note_off,0,0,0,,7,,,79,127
19628,note_off,0,0,0,,12,,,71,127
19629,note_on,1,0,0,,7,,,79,127
19629,note_on,0,0,0,,0,,,72,127
19629,note_on,0,0,0,,10,,,57,127
20029,note_off,400,0,0,,10,,,57,127
20029,note_off,0,0,0,,0,,,72,127
20029,note_off,0,0,0,,7,,,79,127
20030,note_on,1,0,0,,5,,,77,127
20030,note_on,0,0,0,,2,,,74,127
20030,note_on,0,0,0,,12,,,59,127
20229,note_off,199,0,0,,12,,,59,127
20229,note_off,0,0,0,,2,,,74,127
20229,note_off,0,0,0,,5,,,77,127
20230,note_on,1,0,0,,2,,,74,127
20230,note_on,0,0,0,,5,,,77,127
20230,note_on,0,0,0,,0,,,60,127
20340,note_off,110,0,0,,5,,,77,127
20340,note_off,0,0,0,,2,,,74,127
20341,note_on,1,0,0,,4,,,76,127
20341,note_on,0,0,0,,0,,,72,127
20451,note_off,110,0,0,,0,,,72,127
20451,note_off,0,0,0,,4,,,76,127
20452,note_on,1,0,0,,12,,,71,127
20452,note_on,0,0,0,,2,,,74,127
20630,note_off,178,0,0,,2,,,74,127
20630,note_off,0,0,0,,12,,,71,127
20630,note_off,0,0,0,,0,,,60,127
20631,note_on,1,0,0,,0,,,72,127
20631,note_on,0,0,0,,0,,,48,127
20830,note_off,199,0,0,,0,,,48,127
20830,note_off,0,0,0,,0,,,72,127
20831,note_on,1,0,0,,2,,,74,127
20831,note_on,0,0,0,,7,,,43,127
21231,note_off,400,0,0,,7,,,43,127
21231,note_off,0,0,0,,2,,,74,127
21232,note_on,1,0,0,,7,,,67,127
21232,note_on,0,0,0,,7,,,79,127
21232,note_on,0,0,0,,4,,,52,127
21431,note_off,199,0,0,,4,,,52,127
21431,note_off,0,0,0,,7,,,79,127
21431,note_off,0,0,0,,7,,,67,127
21432,note_on,1,0,0,,7,,,79,127
21432,note_on,0,0,0,,10,,,69,127
21432,note_on,0,0,0,,5,,,53,127
21832,note_off,400,0,0,,5,,,53,127
21832,note_off,0,0,0,,10,,,69,127
21832,note_off,0,0,0,,7,,,79,127
21833,note_on,1,0,0,,12,,,71,127
21833,note_on,0,0,0,,7,,,79,127
21833,note_on,0,0,0,,7,,,55,127
22032,note_off,199,0,0,,7,,,55,127
22032,note_off,0,0,0,,7,,,79,127
22032,note_off,0,0,0,,12,,,71,127
22033,note_on,1,0,0,,7,,,79,127
22033,note_on,0,0,0,,0,,,72,127
22033,note_on,0,0,0,,10,,,57,127
22433,note_off,400,0,0,,10,,,57,127
22433,note_off,0,0,0,,0,,,72,127
22433,note_off,0,0,0,,7,,,79,127
22434,note_on,1,0,0,,5,,,77,127
22434,note_on,0,0,0,,2,,,74,127
22434,note_on,0,0,0,,12,,,59,127
22633,note_off,199,0,0,,12,,,59,127
22633,note_off,0,0,0,,2,,,74,127
22633,note_off,0,0,0,,5,,,77,127
22634,note_on,1,0,0,,5,,,77,127
22634,note_on,0,0,0,,0,,,72,127
22634,note_on,0,0,0,,0,,,60,127
22744,note_off,110,0,0,,5,,,77,127
22745,note_on,1,0,0,,4,,,76,127
22855,note_off,110,0,0,,4,,,76,127
22856,note_on,1,0,0,,2,,,74,127
22859,note_off,3,0,0,,0,,,72,127
23034,note_off,175,0,0,,2,,,74,127
23034,note_off,0,0,0,,0,,,60,127
23035,note_on,1,0,0,,0,,,72,127
23035,note_on,0,0,0,,0,,,48,127
23234,note_off,199,0,0,,0,,,48,127
23234,note_off,0,0,0,,0,,,72,127
23235,note_on,1,0,0,,2,,,74,127
23235,note_on,0,0,0,,7,,,55,127
23635,note_off,400,0,0,,7,,,55,127
23636,note_on,1,0,0,,7,,,67,127
23636,note_on,0,0,0,,7,,,55,127
23835,note_off,199,0,0,,7,,,55,127
23835,note_off,0,0,0,,7,,,67,127
23835,note_off,0,0,0,,2,,,74,127
23836,note_on,1,0,0,,5,,,65,127
23836,note_on,0,0,0,,7,,,55,127
24236,note_off,400,0,0,,7,,,55,127
24236,note_off,0,0,0,,5,,,65,127
24237,note_on,1,0,0,,7,,,79,127
24237,note_on,0,0,0,,4,,,64,127
24237,note_on,0,0,0,,7,,,55,127
24436,note_off,199,0,0,,7,,,55,127
24436,note_off,0,0,0,,4,,,64,127
24436,note_off,0,0,0,,7,,,79,127
24437,note_on,1,0,0,,5,,,77,127
24437,note_on,0,0,0,,7,,,55,127
24437,note_on,0,0,0,,2,,,62,127
24837,note_off,400,0,0,,2,,,62,127
24837,note_off,0,0,0,,7,,,55,127
24837,note_off,0,0,0,,5,,,77,127
24838,note_on,1,0,0,,4,,,76,127
24838,note_on,0,0,0,,0,,,60,127
24838,note_on,0,0,0,,7,,,55,127
25037,note_off,199,0,0,,7,,,55,127
25037,note_off,0,0,0,,0,,,60,127
25037,note_off,0,0,0,,4,,,76,127
25038,note_on,1,0,0,,7,,,79,127
25038,note_on,0,0,0,,0,,,72,127
25038,note_on,0,0,0,,0,,,60,127
25038,note_on,0,0,0,,7,,,55,127
25112,note_off,74,0,0,,7,,,79,127
25113,note_on,1,0,0,,6,,,78,127
25187,note_off,74,0,0,,6,,,78,127
25188,note_on,1,0,0,,7,,,79,127
25262,note_off,74,0,0,,7,,,79,127
25263,note_on,1,0,0,,6,,,78,127
25337,note_off,74,0,0,,6,,,78,127
25338,note_on,1,0,0,,7,,,79,127
25412,note_off,74,0,0,,7,,,79,127
25413,note_on,1,0,0,,6,,,78,127
25437,note_off,24,0,0,,7,,,55,127
25437,note_off,0,0,0,,0,,,60,127
25438,note_on,1,0,0,,0,,,60,127
25438,note_on,0,0,0,,7,,,55,127
25487,note_off,49,0,0,,6,,,78,127
25488,note_on,1,0,0,,4,,,76,127
25562,note_off,74,0,0,,4,,,76,127
25563,note_on,1,0,0,,6,,,78,127
25637,note_off,74,0,0,,6,,,78,127
25637,note_off,0,0,0,,7,,,55,127
25637,note_off,0,0,0,,0,,,60,127
25638,note_on,1,0,0,,7,,,79,127
25638,note_on,0,0,0,,2,,,62,127
25638,note_on,0,0,0,,7,,,55,127
25930,note_off,292,0,0,,0,,,72,127
25938,note_on,8,0,0,,12,,,71,127
26037,note_off,99,0,0,,12,,,71,127
26037,note_off,0,0,0,,7,,,55,127
26037,note_off,0,0,0,,2,,,62,127
26038,note_on,1,0,0,,0,,,72,127
26038,note_on,0,0,0,,7,,,67,127
26038,note_on,0,0,0,,7,,,55,127
26237,note_off,199,0,0,,7,,,55,127
26237,note_off,0,0,0,,7,,,67,127
26237,note_off,0,0,0,,0,,,72,127
26238,note_on,1,0,0,,2,,,74,127
26238,note_on,0,0,0,,5,,,65,127
26238,note_on,0,0,0,,7,,,55,127
26637,note_off,399,0,0,,7,,,79,127
26638,note_off,1,0,0,,7,,,55,127
26638,note_off,0,0,0,,5,,,65,127
26638,note_off,0,0,0,,2,,,74,127
26639,note_on,1,0,0,,7,,,79,127
26639,note_on,0,0,0,,7,,,55,127
26639,note_on,0,0,0,,4,,,64,127
26838,note_off,199,0,0,,4,,,64,127
26838,note_off,0,0,0,,7,,,55,127
26838,note_off,0,0,0,,7,,,79,127
26839,note_on,1,0,0,,5,,,77,127
26839,note_on,0,0,0,,2,,,62,127
26839,note_on,0,0,0,,7,,,55,127
27239,note_off,400,0,0,,7,,,55,127
27239,note_off,0,0,0,,2,,,62,127
27239,note_off,0,0,0,,5,,,77,127
27240,note_on,1,0,0,,4,,,76,127
27240,note_on,0,0,0,,7,,,55,127
27240,note_on,0,0,0,,0,,,60,127
27439,note_off,199,0,0,,0,,,60,127
27439,note_off,0,0,0,,7,,,55,127
27439,note_off,0,0,0,,4,,,76,127
27440,note_on,1,0,0,,7,,,79,127
27440,note_on,0,0,0,,0,,,72,127
27440,note_on,0,0,0,,7,,,55,127
27440,note_on,0,0,0,,0,,,60,127
27539,note_off,99,0,0,,7,,,79,127
27540,note_on,1,0,0,,6,,,78,127
27639,note_off,99,0,0,,6,,,78,127
27640,note_on,1,0,0,,7,,,79,127
27739,note_off,99,0,0,,7,,,79,127
27740,note_on,1,0,0,,6,,,78,127
27839,note_off,99,0,0,,6,,,78,127
27839,note_off,0,0,0,,0,,,60,127
27839,note_off,0,0,0,,7,,,55,127
27840,note_on,1,0,0,,4,,,76,127
27840,note_on,0,0,0,,0,,,60,127
27840,note_on,0,0,0,,7,,,55,127
27939,note_off,99,0,0,,4,,,76,127
27940,note_on,1,0,0,,6,,,78,127
28039,note_off,99,0,0,,6,,,78,127
28039,note_off,0,0,0,,7,,,55,127
28039,note_off,0,0,0,,0,,,60,127
28040,note_on,1,0,0,,7,,,79,127
28040,note_on,0,0,0,,7,,,55,127
28040,note_on,0,0,0,,2,,,62,127
28332,note_off,292,0,0,,0,,,72,127
28340,note_on,8,0,0,,12,,,71,127
28439,note_off,99,0,0,,12,,,71,127
28439,note_off,0,0,0,,2,,,62,127
28439,note_off,0,0,0,,7,,,55,127
28440,note_on,1,0,0,,0,,,72,127
28440,note_on,0,0,0,,7,,,67,127
28440,note_on,0,0,0,,7,,,55,127
28639,note_off,199,0,0,,7,,,55,127
28639,note_off,0,0,0,,7,,,67,127
28639,note_off,0,0,0,,0,,,72,127
28640,note_on,1,0,0,,2,,,74,127
28640,note_on,0,0,0,,7,,,67,127
28640,note_on,0,0,0,,7,,,55,127
29039,note_off,399,0,0,,7,,,79,127
29040,note_off,1,0,0,,7,,,55,127
29040,note_off,0,0,0,,7,,,67,127
29040,note_off,0,0,0,,2,,,74,127
29041,note_on,1,0,0,,12,,,71,127
29041,note_on,0,0,0,,10,,,81,127
29041,note_on,0,0,0,,5,,,53,127
29041,note_on,0,0,0,,5,,,65,127
29240,note_off,199,0,0,,5,,,65,127
29240,note_off,0,0,0,,5,,,53,127
29240,note_off,0,0,0,,12,,,71,127
29241,note_on,1,0,0,,0,,,72,127
29241,note_on,0,0,0,,4,,,64,127
29241,note_on,0,0,0,,4,,,52,127
29539,note_off,298,0,0,,10,,,81,127
29541,note_on,2,0,0,,7,,,79,127
29640,note_off,99,0,0,,7,,,79,127
29640,note_off,0,0,0,,4,,,52,127
29640,note_off,0,0,0,,4,,,64,127
29641,note_on,1,0,0,,5,,,77,127
29641,note_on,0,0,0,,5,,,53,127
29840,note_off,199,0,0,,5,,,53,127
29840,note_off,0,0,0,,5,,,77,127
29840,note_off,0,0,0,,0,,,72,127
29841,note_on,1,0,0,,0,,,72,127
29841,note_on,0,0,0,,4,,,76,127
29841,note_on,0,0,0,,7,,,55,127
30241,note_off,400,0,0,,7,,,55,127
30241,note_off,0,0,0,,4,,,76,127
30241,note_off,0,0,0,,0,,,72,127
30242,note_on,1,0,0,,2,,,74,127
30242,note_on,0,0,0,,12,,,71,127
30242,note_on,0,0,0,,7,,,43,127
30441,note_off,199,0,0,,7,,,43,127
30441,note_off,0,0,0,,12,,,71,127
30441,note_off,0,0,0,,2,,,74,127
30442,note_on,1,0,0,,0,,,72,127
30442,note_on,0,0,0,,0,,,48,127
30842,note_off,400,0,0,,0,,,48,127
30843,note_on,1,0,0,,0,,,60,127
31042,note_off,199,0,0,,0,,,60,127
31042,note_off,0,0,0,,0,,,72,127
31043,note_on,1,0,0,,2,,,62,127
31142,note_off,99,0,0,,2,,,62,127
31143,note_on,1,0,0,,0,,,60,127
31242,note_off,99,0,0,,0,,,60,127
31243,note_on,1,0,0,,12,,,59,127
31442,note_off,199,0,0,,12,,,59,127
31443,note_on,1,0,0,,7,,,79,127
31443,note_on,0,0,0,,0,,,60,127
31642,note_off,199,0,0,,0,,,60,127
31642,note_off,0,0,0,,7,,,79,127
31643,note_on,1,0,0,,10,,,81,127
31643,note_on,0,0,0,,5,,,41,127
32043,note_off,400,0,0,,5,,,41,127
32043,note_off,0,0,0,,10,,,81,127
32044,note_on,1,0,0,,5,,,77,127
32044,note_on,0,0,0,,0,,,60,127
32243,note_off,199,0,0,,0,,,60,127
32243,note_off,0,0,0,,5,,,77,127
32244,note_on,1,0,0,,0,,,72,127
32244,note_on,0,0,0,,2,,,62,127
32343,note_off,99,0,0,,2,,,62,127
32344,note_on,1,0,0,,0,,,60,127
32443,note_off,99,0,0,,0,,,60,127
32444,note_on,1,0,0,,12,,,59,127
32643,note_off,199,0,0,,12,,,59,127
32643,note_off,0,0,0,,0,,,72,127
32644,note_on,1,0,0,,10,,,81,127
32644,note_on,0,0,0,,0,,,60,127
32843,note_off,199,0,0,,0,,,60,127
32843,note_off,0,0,0,,10,,,81,127
32844,note_on,1,0,0,,7,,,79,127
32844,note_on,0,0,0,,0,,,36,127
33244,note_off,400,0,0,,0,,,36,127
33244,note_off,0,0,0,,7,,,79,127
33245,note_on,1,0,0,,4,,,76,127
33245,note_on,0,0,0,,0,,,60,127
33444,note_off,199,0,0,,0,,,60,127
33444,note_off,0,0,0,,4,,,76,127
33445,note_on,1,0,0,,0,,,72,127
33445,note_on,0,0,0,,2,,,62,127
33544,note_off,99,0,0,,2,,,62,127
33545,note_on,1,0,0,,0,,,60,127
33644,note_off,99,0,0,,0,,,60,127
33645,note_on,1,0,0,,12,,,59,127
33844,note_off,199,0,0,,12,,,59,127
33844,note_off,0,0,0,,0,,,72,127
33845,note_on,1,0,0,,7,,,79,127
33845,note_on,0,0,0,,7,,,67,127
33845,note_on,0,0,0,,0,,,60,127
34044,note_off,199,0,0,,0,,,60,127
34044,note_off,0,0,0,,7,,,67,127
34044,note_off,0,0,0,,7,,,79,127
34045,note_on,1,0,0,,5,,,77,127
34045,note_on,0,0,0,,10,,,69,127
34045,note_on,0,0,0,,5,,,41,127
34344,note_off,299,0,0,,10,,,69,127
34345,note_on,1,0,0,,12,,,71,127
34441,note_off,96,0,0,,5,,,77,127
34444,note_off,3,0,0,,12,,,71,127
34444,note_off,0,0,0,,5,,,41,127
34445,note_on,1,0,0,,4,,,76,127
34445,note_on,0,0,0,,0,,,72,127
34445,note_on,0,0,0,,5,,,53,127
34644,note_off,199,0,0,,5,,,53,127
34645,note_on,1,0,0,,7,,,55,127
35045,note_off,400,0,0,,7,,,55,127
35045,note_off,0,0,0,,0,,,72,127
35045,note_off,0,0,0,,4,,,76,127
35046,note_on,1,0,0,,12,,,71,127
35046,note_on,0,0,0,,2,,,74,127
35046,note_on,0,0,0,,7,,,43,127
35245,note_off,199,0,0,,7,,,43,127
35245,note_off,0,0,0,,2,,,74,127
35245,note_off,0,0,0,,12,,,71,127
35246,note_on,1,0,0,,0,,,72,127
35246,note_on,0,0,0,,0,,,36,127
35646,note_off,400,0,0,,0,,,36,127
35647,note_on,1,0,0,,0,,,60,127
35846,note_off,199,0,0,,0,,,60,127
35846,note_off,0,0,0,,0,,,72,127
35847,note_on,1,0,0,,2,,,62,127
35946,note_off,99,0,0,,2,,,62,127
35947,note_on,1,0,0,,0,,,60,127
36046,note_off,99,0,0,,0,,,60,127
36047,note_on,1,0,0,,12,,,59,127
36246,note_off,199,0,0,,12,,,59,127
36247,note_on,1,0,0,,7,,,79,127
36247,note_on,0,0,0,,0,,,60,127
36446,note_off,199,0,0,,0,,,60,127
36446,note_off,0,0,0,,7,,,79,127
36447,note_on,1,0,0,,10,,,81,127
36447,note_on,0,0,0,,5,,,41,127
36847,note_off,400,0,0,,5,,,41,127
36847,note_off,0,0,0,,10,,,81,127
36848,note_on,1,0,0,,0,,,72,127
36848,note_on,0,0,0,,0,,,60,127
37047,note_off,199,0,0,,0,,,60,127
37047,note_off,0,0,0,,0,,,72,127
37048,note_on,1,0,0,,10,,,81,127
37048,note_on,0,0,0,,0,,,72,127
37048,note_on,0,0,0,,2,,,62,127
37147,note_off,99,0,0,,2,,,62,127
37148,note_on,1,0,0,,0,,,60,127
37247,note_off,99,0,0,,0,,,60,127
37248,note_on,1,0,0,,12,,,59,127
37447,note_off,199,0,0,,12,,,59,127
37447,note_off,0,0,0,,0,,,72,127
37447,note_off,0,0,0,,10,,,81,127
37448,note_on,1,0,0,,2,,,74,127
37448,note_on,0,0,0,,12,,,83,127
37448,note_on,0,0,0,,0,,,60,127
37647,note_off,199,0,0,,0,,,60,127
37647,note_off,0,0,0,,12,,,83,127
37647,note_off,0,0,0,,2,,,74,127
37648,note_on,1,0,0,,4,,,76,127
37648,note_on,0,0,0,,0,,,84,127
37648,note_on,0,0,0,,0,,,36,127
38048,note_off,400,0,0,,0,,,36,127
38048,note_off,0,0,0,,0,,,84,127
38048,note_off,0,0,0,,4,,,76,127
38049,note_on,1,0,0,,7,,,79,127
38049,note_on,0,0,0,,0,,,60,127
38248,note_off,199,0,0,,0,,,60,127
38248,note_off,0,0,0,,7,,,79,127
38249,note_on,1,0,0,,4,,,76,127
38249,note_on,0,0,0,,2,,,62,127
38348,note_off,99,0,0,,2,,,62,127
38349,note_on,1,0,0,,0,,,60,127
38448,note_off,99,0,0,,0,,,60,127
38449,note_on,1,0,0,,12,,,59,127
38648,note_off,199,0,0,,12,,,59,127
38648,note_off,0,0,0,,4,,,76,127
38649,note_on,1,0,0,,7,,,67,127
38649,note_on,0,0,0,,7,,,79,127
38649,note_on,0,0,0,,0,,,60,127
38848,note_off,199,0,0,,0,,,60,127
38848,note_off,0,0,0,,7,,,79,127
38848,note_off,0,0,0,,7,,,67,127
38849,note_on,1,0,0,,5,,,77,127
38849,note_on,0,0,0,,10,,,69,127
38849,note_on,0,0,0,,5,,,41,127
39148,note_off,299,0,0,,10,,,69,127
39149,note_on,1,0,0,,12,,,71,127
39245,note_off,96,0,0,,5,,,77,127
39248,note_off,3,0,0,,12,,,71,127
39248,note_off,0,0,0,,5,,,41,127
39249,note_on,1,0,0,,4,,,76,127
39249,note_on,0,0,0,,0,,,72,127
39249,note_on,0,0,0,,5,,,53,127
39448,note_off,199,0,0,,5,,,53,127
39449,note_on,1,0,0,,7,,,55,127
39849,note_off,400,0,0,,7,,,55,127
39849,note_off,0,0,0,,0,,,72,127
39849,note_off,0,0,0,,4,,,76,127
39850,note_on,1,0,0,,2,,,74,127
39850,note_on,0,0,0,,12,,,71,127
39850,note_on,0,0,0,,7,,,43,127
40049,note_off,199,0,0,,7,,,43,127
40049,note_off,0,0,0,,12,,,71,127
40049,note_off,0,0,0,,2,,,74,127
40050,note_on,1,0,0,,0,,,72,127
40050,note_on,0,0,0,,0,,,48,127
40050,note_on,0,0,0,,0,,,36,127
40450,note_off,400,0,0,,0,,,72,127
40451,note_on,1,0,0,,10,,,69,127
40451,note_on,0,0,0,,5,,,77,127
40650,note_off,199,0,0,,5,,,77,127
40650,note_off,0,0,0,,10,,,69,127
40650,note_off,0,0,0,,0,,,36,127
40650,note_off,0,0,0,,0,,,48,127
40651,note_on,1,0,0,,4,,,76,127
40651,note_on,0,0,0,,7,,,67,127
41051,note_off,400,0,0,,7,,,67,127
41051,note_off,0,0,0,,4,,,76,127
41052,note_on,1,0,0,,5,,,65,127
41052,note_on,0,0,0,,2,,,74,127
41052,note_on,0,0,0,,2,,,50,127
41052,note_on,0,0,0,,2,,,38,127
41251,note_off,199,0,0,,2,,,38,127
41251,note_off,0,0,0,,2,,,50,127
41251,note_off,0,0,0,,2,,,74,127
41251,note_off,0,0,0,,5,,,65,127
41252,note_on,1,0,0,,4,,,64,127
41252,note_on,0,0,0,,0,,,72,127
41252,note_on,0,0,0,,4,,,52,127
41252,note_on,0,0,0,,4,,,40,127
41551,note_off,299,0,0,,0,,,72,127
41551,note_off,0,0,0,,4,,,64,127
41552,note_on,1,0,0,,12,,,71,127
41552,note_on,0,0,0,,2,,,62,127
41651,note_off,99,0,0,,2,,,62,127
41651,note_off,0,0,0,,12,,,71,127
41651,note_off,0,0,0,,4,,,40,127
41651,note_off,0,0,0,,4,,,52,127
41652,note_on,1,0,0,,0,,,60,127
41652,note_on,0,0,0,,10,,,69,127
41652,note_on,0,0,0,,5,,,53,127
41652,note_on,0,0,0,,5,,,41,127
41851,note_off,199,0,0,,5,,,41,127
41851,note_off,0,0,0,,5,,,53,127
41852,note_on,1,0,0,,7,,,55,127
41852,note_on,0,0,0,,7,,,43,127
42252,note_off,400,0,0,,7,,,43,127
42252,note_off,0,0,0,,7,,,55,127
42252,note_off,0,0,0,,10,,,69,127
42252,note_off,0,0,0,,0,,,60,127
42253,note_on,1,0,0,,2,,,62,127
42253,note_on,0,0,0,,12,,,71,127
42253,note_on,0,0,0,,7,,,55,127
42253,note_on,0,0,0,,7,,,43,127
42452,note_off,199,0,0,,7,,,43,127
42452,note_off,0,0,0,,7,,,55,127
42452,note_off,0,0,0,,12,,,71,127
42452,note_off,0,0,0,,2,,,62,127
42453,note_on,1,0,0,,4,,,64,127
42453,note_on,0,0,0,,0,,,72,127
42453,note_on,0,0,0,,0,,,48,127
42453,note_on,0,0,0,,0,,,36,127
42853,note_off,400,0,0,,0,,,72,127
42853,note_off,0,0,0,,4,,,64,127
42854,note_on,1,0,0,,10,,,69,127
42854,note_on,0,0,0,,5,,,77,127
43053,note_off,199,0,0,,5,,,77,127
43053,note_off,0,0,0,,10,,,69,127
43054,note_on,1,0,0,,4,,,76,127
43054,note_on,0,0,0,,7,,,67,127
43253,note_off,199,0,0,,0,,,36,127
43253,note_off,0,0,0,,0,,,48,127
43453,note_off,200,0,0,,7,,,67,127
43453,note_off,0,0,0,,4,,,76,127
43454,note_on,1,0,0,,2,,,74,127
43454,note_on,0,0,0,,5,,,65,127
43454,note_on,0,0,0,,2,,,50,127
43454,note_on,0,0,0,,2,,,38,127
43653,note_off,199,0,0,,2,,,38,127
43653,note_off,0,0,0,,2,,,50,127
43653,note_off,0,0,0,,5,,,65,127
43653,note_off,0,0,0,,2,,,74,127
43654,note_on,1,0,0,,0,,,72,127
43654,note_on,0,0,0,,4,,,64,127
43654,note_on,0,0,0,,4,,,52,127
43654,note_on,0,0,0,,4,,,40,127
43953,note_off,299,0,0,,4,,,64,127
43953,note_off,0,0,0,,0,,,72,127
43954,note_on,1,0,0,,2,,,62,127
43954,note_on,0,0,0,,12,,,71,127
44053,note_off,99,0,0,,12,,,71,127
44053,note_off,0,0,0,,2,,,62,127
44053,note_off,0,0,0,,4,,,40,127
44053,note_off,0,0,0,,4,,,52,127
44054,note_on,1,0,0,,0,,,60,127
44054,note_on,0,0,0,,10,,,69,127
44054,note_on,0,0,0,,5,,,53,127
44054,note_on,0,0,0,,5,,,41,127
44253,note_off,199,0,0,,5,,,41,127
44253,note_off,0,0,0,,5,,,53,127
44254,note_on,1,0,0,,7,,,43,127
44254,note_on,0,0,0,,7,,,55,127
44654,note_off,400,0,0,,7,,,55,127
44654,note_off,0,0,0,,7,,,43,127
44654,note_off,0,0,0,,10,,,69,127
44654,note_off,0,0,0,,0,,,60,127
44655,note_on,1,0,0,,12,,,71,127
44655,note_on,0,0,0,,2,,,62,127
44655,note_on,0,0,0,,7,,,55,127
44655,note_on,0,0,0,,7,,,43,127
44854,note_off,199,0,0,,7,,,43,127
44854,note_off,0,0,0,,7,,,55,127
44854,note_off,0,0,0,,2,,,62,127
44854,note_off,0,0,0,,12,,,71,127
44855,note_on,1,0,0,,0,,,72,127
44855,note_on,0,0,0,,0,,,60,127
44855,note_on,0,0,0,,0,,,36,127
44855,note_on,0,0,0,,0,,,48,127
45655,note_off,800,0,0,,0,,,48,127
45655,note_off,0,0,0,,0,,,36,127
45655,note_off,0,0,0,,0,,,60,127
45855,note_off,200,0,0,,0,,,72,127
45856,note_on,1,0,0,,0,,,84,127
46055,note_off,199,0,0,,0,,,84,127
46056,note_on,1,0,0,,11,,,82,127
46389,note_off,333,0,0,,11,,,82,127
46390,note_on,1,0,0,,8,,,80,127
46456,note_off,66,0,0,,8,,,80,127
46457,note_on,1,0,0,,7,,,79,127
46457,note_on,0,0,0,,11,,,70,127
46457,note_on,0,0,0,,0,,,60,127
46656,note_off,199,0,0,,0,,,60,127
46656,note_off,0,0,0,,11,,,70,127
46656,note_off,0,0,0,,7,,,79,127
46657,note_on,1,0,0,,5,,,77,127
46657,note_on,0,0,0,,8,,,68,127
46657,note_on,0,0,0,,0,,,60,127
47057,note_off,400,0,0,,0,,,60,127
47057,note_off,0,0,0,,8,,,68,127
47057,note_off,0,0,0,,5,,,77,127
47058,note_on,1,0,0,,7,,,79,127
47058,note_on,0,0,0,,7,,,67,127
47058,note_on,0,0,0,,0,,,60,127
47257,note_off,199,0,0,,0,,,60,127
47257,note_off,0,0,0,,7,,,67,127
47257,note_off,0,0,0,,7,,,79,127
47258,note_on,1,0,0,,11,,,82,127
47258,note_on,0,0,0,,5,,,65,127
47258,note_on,0,0,0,,0,,,60,127
47324,note_off,66,0,0,,11,,,82,127
47325,note_on,1,0,0,,8,,,80,127
47391,note_off,66,0,0,,8,,,80,127
47392,note_on,1,0,0,,11,,,82,127
47458,note_off,66,0,0,,11,,,82,127
47459,note_on,1,0,0,,8,,,80,127
47525,note_off,66,0,0,,8,,,80,127
47526,note_on,1,0,0,,11,,,82,127
47592,note_off,66,0,0,,11,,,82,127
47593,note_on,1,0,0,,8,,,80,127
47659,note_off,66,0,0,,8,,,80,127
47659,note_off,0,0,0,,0,,,60,127
47659,note_off,0,0,0,,5,,,65,127
47660,note_on,1,0,0,,7,,,79,127
47660,note_on,0,0,0,,0,,,48,127
47859,note_off,199,0,0,,0,,,48,127
47859,note_off,0,0,0,,7,,,79,127
47860,note_on,1,0,0,,7,,,79,127
47860,note_on,0,0,0,,0,,,36,127
48257,note_off,397,0,0,,0,,,36,127
48260,note_off,3,0,0,,7,,,79,127
48261,note_on,1,0,0,,11,,,82,127
48460,note_off,199,0,0,,11,,,82,127
48461,note_on,1,0,0,,8,,,80,127
48794,note_off,333,0,0,,8,,,80,127
48795,note_on,1,0,0,,7,,,79,127
48861,note_off,66,0,0,,7,,,79,127
48862,note_on,1,0,0,,5,,,77,127
48862,note_on,0,0,0,,0,,,60,127
48862,note_on,0,0,0,,8,,,68,127
49061,note_off,199,0,0,,8,,,68,127
49061,note_off,0,0,0,,0,,,60,127
49061,note_off,0,0,0,,5,,,77,127
49062,note_on,1,0,0,,4,,,76,127
49062,note_on,0,0,0,,7,,,67,127
49062,note_on,0,0,0,,0,,,60,127
49462,note_off,400,0,0,,0,,,60,127
49462,note_off,0,0,0,,7,,,67,127
49462,note_off,0,0,0,,4,,,76,127
49463,note_on,1,0,0,,5,,,77,127
49463,note_on,0,0,0,,5,,,65,127
49463,note_on,0,0,0,,0,,,60,127
49662,note_off,199,0,0,,0,,,60,127
49662,note_off,0,0,0,,5,,,65,127
49662,note_off,0,0,0,,5,,,77,127
49663,note_on,1,0,0,,7,,,79,127
49663,note_on,0,0,0,,0,,,60,127
49663,note_on,0,0,0,,4,,,64,127
50063,note_off,400,0,0,,4,,,64,127
50063,note_off,0,0,0,,0,,,60,127
50063,note_off,0,0,0,,7,,,79,127
50064,note_on,1,0,0,,7,,,79,127
50064,note_on,0,0,0,,0,,,48,127
50263,note_off,199,0,0,,0,,,48,127
50263,note_off,0,0,0,,7,,,79,127
50264,note_on,1,0,0,,7,,,79,127
50264,note_on,0,0,0,,0,,,36,127
50664,note_off,400,0,0,,7,,,79,127
50665,note_on,1,0,0,,0,,,84,127
50765,note_off,100,0,0,,0,,,36,127
50864,note_off,99,0,0,,0,,,84,127
50865,note_on,1,0,0,,11,,,82,127
51198,note_off,333,0,0,,11,,,82,127
51199,note_on,1,0,0,,8,,,80,127
51265,note_off,66,0,0,,8,,,80,127
51266,note_on,1,0,0,,7,,,79,127
51266,note_on,0,0,0,,11,,,70,127
51266,note_on,0,0,0,,0,,,60,127
51465,note_off,199,0,0,,0,,,60,127
51465,note_off,0,0,0,,11,,,70,127
51465,note_off,0,0,0,,7,,,79,127
51466,note_on,1,0,0,,5,,,77,127
51466,note_on,0,0,0,,0,,,60,127
51466,note_on,0,0,0,,8,,,68,127
51866,note_off,400,0,0,,8,,,68,127
51866,note_off,0,0,0,,0,,,60,127
51866,note_off,0,0,0,,5,,,77,127
51867,note_on,1,0,0,,7,,,79,127
51867,note_on,0,0,0,,7,,,67,127
51867,note_on,0,0,0,,0,,,60,127
52066,note_off,199,0,0,,0,,,60,127
52066,note_off,0,0,0,,7,,,67,127
52066,note_off,0,0,0,,7,,,79,127
52067,note_on,1,0,0,,11,,,82,127
52067,note_on,0,0,0,,0,,,60,127
52067,note_on,0,0,0,,5,,,65,127
52166,note_off,99,0,0,,11,,,82,127
52167,note_on,1,0,0,,8,,,80,127
52266,note_off,99,0,0,,8,,,80,127
52267,note_on,1,0,0,,11,,,82,127
52366,note_off,99,0,0,,11,,,82,127
52367,note_on,1,0,0,,8,,,80,127
52466,note_off,99,0,0,,8,,,80,127
52466,note_off,0,0,0,,5,,,65,127
52466,note_off,0,0,0,,0,,,60,127
52467,note_on,1,0,0,,7,,,79,127
52467,note_on,0,0,0,,0,,,48,127
52666,note_off,199,0,0,,0,,,48,127
52666,note_off,0,0,0,,7,,,79,127
52667,note_on,1,0,0,,7,,,79,127
52667,note_on,0,0,0,,0,,,36,127
53064,note_off,397,0,0,,0,,,36,127
53067,note_off,3,0,0,,7,,,79,127
53068,note_on,1,0,0,,11,,,82,127
53267,note_off,199,0,0,,11,,,82,127
53268,note_on,1,0,0,,8,,,80,127
53567,note_off,299,0,0,,8,,,80,127
53568,note_on,1,0,0,,7,,,79,127
53667,note_off,99,0,0,,7,,,79,127
53668,note_on,1,0,0,,5,,,77,127
53668,note_on,0,0,0,,8,,,68,127
53668,note_on,0,0,0,,0,,,60,127
53867,note_off,199,0,0,,0,,,60,127
53867,note_off,0,0,0,,8,,,68,127
53867,note_off,0,0,0,,5,,,77,127
53868,note_on,1,0,0,,4,,,76,127
53868,note_on,0,0,0,,7,,,67,127
53868,note_on,0,0,0,,0,,,60,127
54268,note_off,400,0,0,,0,,,60,127
54268,note_off,0,0,0,,7,,,67,127
54268,note_off,0,0,0,,4,,,76,127
54269,note_on,1,0,0,,5,,,77,127
54269,note_on,0,0,0,,0,,,60,127
54269,note_on,0,0,0,,5,,,65,127
54468,note_off,199,0,0,,5,,,65,127
54468,note_off,0,0,0,,0,,,60,127
54468,note_off,0,0,0,,5,,,77,127
54469,note_on,1,0,0,,7,,,79,127
54469,note_on,0,0,0,,0,,,60,127
54469,note_on,0,0,0,,4,,,64,127
54869,note_off,400,0,0,,4,,,64,127
54869,note_off,0,0,0,,0,,,60,127
54869,note_off,0,0,0,,7,,,79,127
54870,note_on,1,0,0,,7,,,79,127
54870,note_on,0,0,0,,0,,,48,127
55069,note_off,199,0,0,,0,,,48,127
55069,note_off,0,0,0,,7,,,79,127
55070,note_on,1,0,0,,7,,,79,127
55070,note_on,0,0,0,,0,,,36,127
55425,note_off,355,0,0,,7,,,79,127
55467,note_off,42,0,0,,0,,,36,127
55471,note_on,4,0,0,,6,,,78,127
55471,note_on,0,0,0,,11,,,82,127
55670,note_off,199,0,0,,11,,,82,127
55670,note_off,0,0,0,,6,,,78,127
55671,note_on,1,0,0,,10,,,81,127
55671,note_on,0,0,0,,5,,,77,127
56071,note_off,400,0,0,,5,,,77,127
56071,note_off,0,0,0,,10,,,81,127
56072,note_on,1,0,0,,1,,,73,127
56072,note_on,0,0,0,,11,,,82,127
56271,note_off,199,0,0,,11,,,82,127
56271,note_off,0,0,0,,1,,,73,127
56272,note_on,1,0,0,,10,,,81,127
56272,note_on,0,0,0,,0,,,72,127
56672,note_off,400,0,0,,0,,,72,127
56672,note_off,0,0,0,,10,,,81,127
56673,note_on,1,0,0,,6,,,78,127
56673,note_on,0,0,0,,11,,,70,127
56872,note_off,199,0,0,,11,,,70,127
56872,note_off,0,0,0,,6,,,78,127
56873,note_on,1,0,0,,5,,,77,127
56873,note_on,0,0,0,,10,,,69,127
57273,note_off,400,0,0,,10,,,69,127
57273,note_off,0,0,0,,5,,,77,127
57274,note_on,1,0,0,,3,,,75,127
57274,note_on,0,0,0,,0,,,72,127
57274,note_on,0,0,0,,6,,,66,127
57473,note_off,199,0,0,,6,,,66,127
57473,note_off,0,0,0,,0,,,72,127
57473,note_off,0,0,0,,3,,,75,127
57474,note_on,1,0,0,,1,,,73,127
57474,note_on,0,0,0,,11,,,70,127
57474,note_on,0,0,0,,5,,,65,127
57874,note_off,400,0,0,,5,,,65,127
57874,note_off,0,0,0,,11,,,70,127
57874,note_off,0,0,0,,1,,,73,127
57875,note_on,1,0,0,,0,,,72,127
57875,note_on,0,0,0,,10,,,69,127
57875,note_on,0,0,0,,3,,,63,127
58074,note_off,199,0,0,,3,,,63,127
58074,note_off,0,0,0,,10,,,69,127
58074,note_off,0,0,0,,0,,,72,127
58075,note_on,1,0,0,,11,,,70,127
58075,note_on,0,0,0,,5,,,65,127
58075,note_on,0,0,0,,1,,,61,127
58408,note_off,333,0,0,,11,,,70,127
58409,note_on,1,0,0,,0,,,72,127
58475,note_off,66,0,0,,0,,,72,127
58475,note_off,0,0,0,,1,,,61,127
58476,note_on,1,0,0,,1,,,73,127
58476,note_on,0,0,0,,11,,,58,127
58675,note_off,199,0,0,,11,,,58,127
58675,note_off,0,0,0,,1,,,73,127
58675,note_off,0,0,0,,5,,,65,127
58676,note_on,1,0,0,,0,,,72,127
58676,note_on,0,0,0,,0,,,60,127
58676,note_on,0,0,0,,10,,,57,127
59009,note_off,333,0,0,,0,,,72,127
59010,note_on,1,0,0,,1,,,73,127
59076,note_off,66,0,0,,1,,,73,127
59076,note_off,0,0,0,,10,,,57,127
59077,note_on,1,0,0,,3,,,75,127
59077,note_on,0,0,0,,5,,,53,127
59276,note_off,199,0,0,,5,,,53,127
59276,note_off,0,0,0,,3,,,75,127
59276,note_off,0,0,0,,0,,,60,127
59277,note_on,1,0,0,,1,,,73,127
59277,note_on,0,0,0,,11,,,58,127
59576,note_off,299,0,0,,1,,,73,127
59577,note_on,1,0,0,,0,,,72,127
59676,note_off,99,0,0,,0,,,72,127
59676,note_off,0,0,0,,11,,,58,127
59677,note_on,1,0,0,,11,,,70,127
59677,note_on,0,0,0,,11,,,46,127
59876,note_off,199,0,0,,11,,,46,127
59876,note_off,0,0,0,,11,,,70,127
59877,note_on,1,0,0,,11,,,70,127
59877,note_on,0,0,0,,11,,,46,127
60274,note_off,397,0,0,,11,,,46,127
60277,note_off,3,0,0,,11,,,70,127
60278,note_on,1,0,0,,5,,,77,127
60278,note_on,0,0,0,,8,,,80,127
60477,note_off,199,0,0,,8,,,80,127
60477,note_off,0,0,0,,5,,,77,127
60478,note_on,1,0,0,,3,,,75,127
60478,note_on,0,0,0,,7,,,79,127
60878,note_off,400,0,0,,7,,,79,127
60878,note_off,0,0,0,,3,,,75,127
60879,note_on,1,0,0,,0,,,72,127
60879,note_on,0,0,0,,8,,,80,127
61078,note_off,199,0,0,,8,,,80,127
61078,note_off,0,0,0,,0,,,72,127
61079,note_on,1,0,0,,7,,,79,127
61079,note_on,0,0,0,,11,,,70,127
61479,note_off,400,0,0,,11,,,70,127
61479,note_off,0,0,0,,7,,,79,127
61480,note_on,1,0,0,,8,,,68,127
61480,note_on,0,0,0,,5,,,77,127
61679,note_off,199,0,0,,5,,,77,127
61679,note_off,0,0,0,,8,,,68,127
61680,note_on,1,0,0,,3,,,75,127
61680,note_on,0,0,0,,7,,,67,127
62080,note_off,400,0,0,,7,,,67,127
62080,note_off,0,0,0,,3,,,75,127
62081,note_on,1,0,0,,1,,,73,127
62081,note_on,0,0,0,,11,,,70,127
62081,note_on,0,0,0,,5,,,65,127
62280,note_off,199,0,0,,5,,,65,127
62280,note_off,0,0,0,,11,,,70,127
62280,note_off,0,0,0,,1,,,73,127
62281,note_on,1,0,0,,8,,,68,127
62281,note_on,0,0,0,,0,,,72,127
62281,note_on,0,0,0,,3,,,63,127
62681,note_off,400,0,0,,3,,,63,127
62681,note_off,0,0,0,,0,,,72,127
62681,note_off,0,0,0,,8,,,68,127
62682,note_on,1,0,0,,7,,,67,127
62682,note_on,0,0,0,,11,,,70,127
62682,note_on,0,0,0,,1,,,61,127
62881,note_off,199,0,0,,1,,,61,127
62881,note_off,0,0,0,,11,,,70,127
62881,note_off,0,0,0,,7,,,67,127
62882,note_on,1,0,0,,8,,,68,127
62882,note_on,0,0,0,,0,,,60,127
63215,note_off,333,0,0,,8,,,68,127
63216,note_on,1,0,0,,11,,,70,127
63282,note_off,66,0,0,,11,,,70,127
63282,note_off,0,0,0,,0,,,60,127
63283,note_on,1,0,0,,0,,,72,127
63283,note_on,0,0,0,,8,,,56,127
63482,note_off,199,0,0,,8,,,56,127
63482,note_off,0,0,0,,0,,,72,127
63483,note_on,1,0,0,,11,,,70,127
63483,note_on,0,0,0,,7,,,55,127
63816,note_off,333,0,0,,11,,,70,127
63817,note_on,1,0,0,,0,,,72,127
63883,note_off,66,0,0,,0,,,72,127
63883,note_off,0,0,0,,7,,,55,127
63884,note_on,1,0,0,,1,,,73,127
63884,note_on,0,0,0,,3,,,51,127
64083,note_off,199,0,0,,3,,,51,127
64083,note_off,0,0,0,,1,,,73,127
64084,note_on,1,0,0,,0,,,72,127
64084,note_on,0,0,0,,8,,,44,127
64439,note_off,355,0,0,,0,,,72,127
64484,note_off,45,0,0,,8,,,44,127
64485,note_on,1,0,0,,0,,,72,127
64485,note_on,0,0,0,,0,,,84,127
64485,note_on,0,0,0,,8,,,56,127
64684,note_off,199,0,0,,8,,,56,127
64684,note_off,0,0,0,,0,,,84,127
64684,note_off,0,0,0,,0,,,72,127
64685,note_on,1,0,0,,0,,,84,127
64685,note_on,0,0,0,,2,,,74,127
64685,note_on,0,0,0,,11,,,58,127
65085,note_off,400,0,0,,11,,,58,127
65085,note_off,0,0,0,,2,,,74,127
65085,note_off,0,0,0,,0,,,84,127
65086,note_on,1,0,0,,0,,,84,127
65086,note_on,0,0,0,,4,,,76,127
65086,note_on,0,0,0,,0,,,60,127
65285,note_off,199,0,0,,0,,,60,127
65285,note_off,0,0,0,,4,,,76,127
65285,note_off,0,0,0,,0,,,84,127
65286,note_on,1,0,0,,0,,,84,127
65286,note_on,0,0,0,,5,,,77,127
65286,note_on,0,0,0,,2,,,62,127
65686,note_off,400,0,0,,2,,,62,127
65686,note_off,0,0,0,,5,,,77,127
65686,note_off,0,0,0,,0,,,84,127
65687,note_on,1,0,0,,7,,,79,127
65687,note_on,0,0,0,,11,,,82,127
65687,note_on,0,0,0,,4,,,64,127
65886,note_off,199,0,0,,4,,,64,127
65886,note_off,0,0,0,,11,,,82,127
65886,note_off,0,0,0,,7,,,79,127
65887,note_on,1,0,0,,11,,,82,127
65887,note_on,0,0,0,,5,,,65,127
65997,note_off,110,0,0,,11,,,82,127
65998,note_on,1,0,0,,8,,,80,127
66108,note_off,110,0,0,,8,,,80,127
66109,note_on,1,0,0,,7,,,79,127
66287,note_off,178,0,0,,7,,,79,127
66287,note_off,0,0,0,,5,,,65,127
66288,note_on,1,0,0,,5,,,77,127
66288,note_on,0,0,0,,5,,,53,127
66487,note_off,199,0,0,,5,,,53,127
66487,note_off,0,0,0,,5,,,77,127
66488,note_on,1,0,0,,7,,,79,127
66488,note_on,0,0,0,,0,,,60,127
66888,note_off,400,0,0,,0,,,60,127
66888,note_off,0,0,0,,7,,,79,127
66889,note_on,1,0,0,,0,,,84,127
66889,note_on,0,0,0,,0,,,72,127
66889,note_on,0,0,0,,8,,,56,127
67088,note_off,199,0,0,,8,,,56,127
67088,note_off,0,0,0,,0,,,72,127
67088,note_off,0,0,0,,0,,,84,127
67089,note_on,1,0,0,,0,,,84,127
67089,note_on,0,0,0,,2,,,74,127
67089,note_on,0,0,0,,11,,,58,127
67489,note_off,400,0,0,,11,,,58,127
67489,note_off,0,0,0,,2,,,74,127
67489,note_off,0,0,0,,0,,,84,127
67490,note_on,1,0,0,,0,,,84,127
67490,note_on,0,0,0,,4,,,76,127
67490,note_on,0,0,0,,0,,,60,127
67689,note_off,199,0,0,,0,,,60,127
67689,note_off,0,0,0,,4,,,76,127
67689,note_off,0,0,0,,0,,,84,127
67690,note_on,1,0,0,,0,,,84,127
67690,note_on,0,0,0,,5,,,77,127
67690,note_on,0,0,0,,2,,,62,127
68090,note_off,400,0,0,,2,,,62,127
68090,note_off,0,0,0,,5,,,77,127
68090,note_off,0,0,0,,0,,,84,127
68091,note_on,1,0,0,,7,,,79,127
68091,note_on,0,0,0,,11,,,82,127
68091,note_on,0,0,0,,4,,,64,127
68290,note_off,199,0,0,,4,,,64,127
68290,note_off,0,0,0,,11,,,82,127
68290,note_off,0,0,0,,7,,,79,127
68291,note_on,1,0,0,,11,,,82,127
68291,note_on,0,0,0,,5,,,65,127
68401,note_off,110,0,0,,11,,,82,127
68402,note_on,1,0,0,,8,,,80,127
68512,note_off,110,0,0,,8,,,80,127
68513,note_on,1,0,0,,7,,,79,127
68691,note_off,178,0,0,,7,,,79,127
68691,note_off,0,0,0,,5,,,65,127
68692,note_on,1,0,0,,5,,,77,127
68692,note_on,0,0,0,,5,,,53,127
68891,note_off,199,0,0,,5,,,53,127
68891,note_off,0,0,0,,5,,,77,127
68892,note_on,1,0,0,,7,,,79,127
68892,note_on,0,0,0,,0,,,60,127
69292,note_off,400,0,0,,0,,,60,127
69293,note_on,1,0,0,,0,,,60,127
69293,note_on,0,0,0,,0,,,72,127
69492,note_off,199,0,0,,0,,,72,127
69492,note_off,0,0,0,,0,,,60,127
69492,note_off,0,0,0,,7,,,79,127
69493,note_on,1,0,0,,11,,,70,127
69493,note_on,0,0,0,,0,,,60,127
69893,note_off,400,0,0,,0,,,60,127
69893,note_off,0,0,0,,11,,,70,127
69894,note_on,1,0,0,,0,,,84,127
69894,note_on,0,0,0,,0,,,60,127
69894,note_on,0,0,0,,10,,,69,127
70093,note_off,199,0,0,,10,,,69,127
70093,note_off,0,0,0,,0,,,60,127
70093,note_off,0,0,0,,0,,,84,127
70094,note_on,1,0,0,,11,,,82,127
70094,note_on,0,0,0,,0,,,60,127
70094,note_on,0,0,0,,7,,,67,127
70494,note_off,400,0,0,,7,,,67,127
70494,note_off,0,0,0,,0,,,60,127
70494,note_off,0,0,0,,11,,,82,127
70495,note_on,1,0,0,,10,,,81,127
70495,note_on,0,0,0,,5,,,65,127
70495,note_on,0,0,0,,0,,,60,127
70694,note_off,199,0,0,,0,,,60,127
70694,note_off,0,0,0,,5,,,65,127
70694,note_off,0,0,0,,10,,,81,127
70695,note_on,1,0,0,,0,,,84,127
70695,note_on,0,0,0,,5,,,77,127
70695,note_on,0,0,0,,5,,,65,127
70695,note_on,0,0,0,,0,,,60,127
70769,note_off,74,0,0,,0,,,84,127
70770,note_on,1,0,0,,12,,,83,127
70844,note_off,74,0,0,,12,,,83,127
70845,note_on,1,0,0,,0,,,84,127
70919,note_off,74,0,0,,0,,,84,127
70920,note_on,1,0,0,,12,,,83,127
70994,note_off,74,0,0,,12,,,83,127
70995,note_on,1,0,0,,0,,,84,127
71069,note_off,74,0,0,,0,,,84,127
71070,note_on,1,0,0,,12,,,83,127
71094,note_off,24,0,0,,0,,,60,127
71094,note_off,0,0,0,,5,,,65,127
71095,note_on,1,0,0,,0,,,60,127
71095,note_on,0,0,0,,5,,,65,127
71144,note_off,49,0,0,,12,,,83,127
71145,note_on,1,0,0,,10,,,81,127
71219,note_off,74,0,0,,10,,,81,127
71220,note_on,1,0,0,,12,,,83,127
71294,note_off,74,0,0,,12,,,83,127
71294,note_off,0,0,0,,5,,,65,127
71294,note_off,0,0,0,,0,,,60,127
71295,note_on,1,0,0,,0,,,84,127
71295,note_on,0,0,0,,0,,,60,127
71295,note_on,0,0,0,,7,,,67,127
71593,note_off,298,0,0,,5,,,77,127
71595,note_on,2,0,0,,4,,,76,127
71694,note_off,99,0,0,,4,,,76,127
71694,note_off,0,0,0,,7,,,67,127
71694,note_off,0,0,0,,0,,,60,127
71695,note_on,1,0,0,,5,,,77,127
71695,note_on,0,0,0,,0,,,60,127
71695,note_on,0,0,0,,0,,,72,127
71894,note_off,199,0,0,,0,,,72,127
71894,note_off,0,0,0,,0,,,60,127
71894,note_off,0,0,0,,5,,,77,127
71895,note_on,1,0,0,,7,,,79,127
71895,note_on,0,0,0,,0,,,60,127
71895,note_on,0,0,0,,11,,,70,127
72295,note_off,400,0,0,,11,,,70,127
72295,note_off,0,0,0,,0,,,60,127
72295,note_off,0,0,0,,7,,,79,127
72295,note_off,0,0,0,,0,,,84,127
72296,note_on,1,0,0,,0,,,84,127
72296,note_on,0,0,0,,10,,,69,127
72296,note_on,0,0,0,,0,,,60,127
72495,note_off,199,0,0,,0,,,60,127
72495,note_off,0,0,0,,10,,,69,127
72495,note_off,0,0,0,,0,,,84,127
72496,note_on,1,0,0,,11,,,82,127
72496,note_on,0,0,0,,0,,,60,127
72496,note_on,0,0,0,,7,,,67,127
72896,note_off,400,0,0,,7,,,67,127
72896,note_off,0,0,0,,0,,,60,127
72896,note_off,0,0,0,,11,,,82,127
72897,note_on,1,0,0,,10,,,81,127
72897,note_on,0,0,0,,5,,,65,127
72897,note_on,0,0,0,,0,,,60,127
73096,note_off,199,0,0,,0,,,60,127
73096,note_off,0,0,0,,5,,,65,127
73096,note_off,0,0,0,,10,,,81,127
73097,note_on,1,0,0,,0,,,84,127
73097,note_on,0,0,0,,5,,,77,127
73097,note_on,0,0,0,,0,,,60,127
73097,note_on,0,0,0,,5,,,65,127
73196,note_off,99,0,0,,0,,,84,127
73197,note_on,1,0,0,,12,,,83,127
73296,note_off,99,0,0,,12,,,83,127
73297,note_on,1,0,0,,0,,,84,127
73396,note_off,99,0,0,,0,,,84,127
73397,note_on,1,0,0,,12,,,83,127
73496,note_off,99,0,0,,12,,,83,127
73496,note_off,0,0,0,,5,,,65,127
73496,note_off,0,0,0,,0,,,60,127
73497,note_on,1,0,0,,10,,,81,127
73497,note_on,0,0,0,,5,,,65,127
73497,note_on,0,0,0,,0,,,60,127
73596,note_off,99,0,0,,10,,,81,127
73597,note_on,1,0,0,,12,,,83,127
73696,note_off,99,0,0,,12,,,83,127
73696,note_off,0,0,0,,0,,,60,127
73696,note_off,0,0,0,,5,,,65,127
73697,note_on,1,0,0,,0,,,84,127
73697,note_on,0,0,0,,7,,,67,127
73697,note_on,0,0,0,,0,,,60,127
73995,note_off,298,0,0,,5,,,77,127
73997,note_on,2,0,0,,4,,,76,127
74096,note_off,99,0,0,,4,,,76,127
74096,note_off,0,0,0,,0,,,60,127
74096,note_off,0,0,0,,7,,,67,127
74097,note_on,1,0,0,,5,,,77,127
74097,note_on,0,0,0,,0,,,48,127
74296,note_off,199,0,0,,0,,,48,127
74296,note_off,0,0,0,,5,,,77,127
74297,note_on,1,0,0,,7,,,79,127
74297,note_on,0,0,0,,0,,,48,127
74596,note_off,299,0,0,,7,,,79,127
74597,note_on,1,0,0,,10,,,81,127
74695,note_off,98,0,0,,0,,,84,127
74696,note_off,1,0,0,,10,,,81,127
74696,note_off,0,0,0,,0,,,48,127
74697,note_on,1,0,0,,11,,,82,127
74697,note_on,0,0,0,,11,,,46,127
74896,note_off,199,0,0,,11,,,46,127
74896,note_off,0,0,0,,11,,,82,127
74897,note_on,1,0,0,,0,,,84,127
74897,note_on,0,0,0,,10,,,81,127
74897,note_on,0,0,0,,10,,,45,127
75096,note_off,199,0,0,,10,,,81,127
75097,note_on,1,0,0,,0,,,72,127
75293,note_off,196,0,0,,0,,,84,127
75296,note_off,3,0,0,,0,,,72,127
75296,note_off,0,0,0,,10,,,45,127
75297,note_on,1,0,0,,11,,,82,127
75297,note_on,0,0,0,,7,,,79,127
75297,note_on,0,0,0,,11,,,46,127
75496,note_off,199,0,0,,11,,,46,127
75496,note_off,0,0,0,,7,,,79,127
75496,note_off,0,0,0,,11,,,82,127
75497,note_on,1,0,0,,5,,,77,127
75497,note_on,0,0,0,,10,,,81,127
75497,note_on,0,0,0,,0,,,48,127
75897,note_off,400,0,0,,0,,,48,127
75897,note_off,0,0,0,,10,,,81,127
75897,note_off,0,0,0,,5,,,77,127
75898,note_on,1,0,0,,7,,,79,127
75898,note_on,0,0,0,,4,,,76,127
75898,note_on,0,0,0,,0,,,36,127
76097,note_off,199,0,0,,0,,,36,127
76097,note_off,0,0,0,,4,,,76,127
76097,note_off,0,0,0,,7,,,79,127
76098,note_on,1,0,0,,5,,,77,127
76098,note_on,0,0,0,,5,,,41,127
76498,note_off,400,0,0,,5,,,41,127
76499,note_on,1,0,0,,5,,,65,127
76599,note_off,100,0,0,,5,,,77,127
76698,note_off,99,0,0,,5,,,65,127
76699,note_on,1,0,0,,7,,,67,127
76798,note_off,99,0,0,,7,,,67,127
76799,note_on,1,0,0,,5,,,65,127
76898,note_off,99,0,0,,5,,,65,127
76899,note_on,1,0,0,,4,,,64,127
77098,note_off,199,0,0,,4,,,64,127
77099,note_on,1,0,0,,0,,,84,127
77099,note_on,0,0,0,,5,,,65,127
77298,note_off,199,0,0,,5,,,65,127
77298,note_off,0,0,0,,0,,,84,127
77299,note_on,1,0,0,,2,,,86,127
77299,note_on,0,0,0,,11,,,46,127
77699,note_off,400,0,0,,11,,,46,127
77699,note_off,0,0,0,,2,,,86,127
77700,note_on,1,0,0,,11,,,82,127
77700,note_on,0,0,0,,5,,,65,127
77899,note_off,199,0,0,,5,,,65,127
77899,note_off,0,0,0,,11,,,82,127
77900,note_on,1,0,0,,5,,,77,127
77900,note_on,0,0,0,,7,,,67,127
77999,note_off,99,0,0,,7,,,67,127
78000,note_on,1,0,0,,5,,,65,127
78099,note_off,99,0,0,,5,,,65,127
78100,note_on,1,0,0,,4,,,64,127
78299,note_off,199,0,0,,4,,,64,127
78299,note_off,0,0,0,,5,,,77,127
78300,note_on,1,0,0,,2,,,86,127
78300,note_on,0,0,0,,5,,,65,127
78499,note_off,199,0,0,,5,,,65,127
78499,note_off,0,0,0,,2,,,86,127
78500,note_on,1,0,0,,0,,,84,127
78500,note_on,0,0,0,,5,,,41,127
78900,note_off,400,0,0,,5,,,41,127
78900,note_off,0,0,0,,0,,,84,127
78901,note_on,1,0,0,,10,,,81,127
78901,note_on,0,0,0,,5,,,65,127
79100,note_off,199,0,0,,5,,,65,127
79100,note_off,0,0,0,,10,,,81,127
79101,note_on,1,0,0,,5,,,77,127
79101,note_on,0,0,0,,7,,,67,127
79200,note_off,99,0,0,,7,,,67,127
79201,note_on,1,0,0,,5,,,65,127
79300,note_off,99,0,0,,5,,,65,127
79301,note_on,1,0,0,,4,,,64,127
79500,note_off,199,0,0,,4,,,64,127
79500,note_off,0,0,0,,5,,,77,127
79501,note_on,1,0,0,,0,,,72,127
79501,note_on,0,0,0,,0,,,84,127
79501,note_on,0,0,0,,5,,,65,127
79700,note_off,199,0,0,,5,,,65,127
79700,note_off,0,0,0,,0,,,84,127
79700,note_off,0,0,0,,0,,,72,127
79701,note_on,1,0,0,,11,,,82,127
79701,note_on,0,0,0,,2,,,74,127
79701,note_on,0,0,0,,11,,,46,127
80000,note_off,299,0,0,,2,,,74,127
80001,note_on,1,0,0,,4,,,76,127
80097,note_off,96,0,0,,11,,,82,127
80100,note_off,3,0,0,,4,,,76,127
80100,note_off,0,0,0,,11,,,46,127
80101,note_on,1,0,0,,10,,,81,127
80101,note_on,0,0,0,,5,,,77,127
80101,note_on,0,0,0,,11,,,58,127
80300,note_off,199,0,0,,11,,,58,127
80301,note_on,1,0,0,,0,,,60,127
80701,note_off,400,0,0,,0,,,60,127
80701,note_off,0,0,0,,5,,,77,127
80701,note_off,0,0,0,,10,,,81,127
80702,note_on,1,0,0,,4,,,76,127
80702,note_on,0,0,0,,7,,,79,127
80702,note_on,0,0,0,,0,,,48,127
80901,note_off,199,0,0,,0,,,48,127
80901,note_off,0,0,0,,7,,,79,127
80901,note_off,0,0,0,,4,,,76,127
80902,note_on,1,0,0,,5,,,77,127
80902,note_on,0,0,0,,5,,,41,127
81302,note_off,400,0,0,,5,,,41,127
81303,note_on,1,0,0,,5,,,65,127
81502,note_off,199,0,0,,5,,,65,127
81503,note_on,1,0,0,,7,,,67,127
81602,note_off,99,0,0,,7,,,67,127
81603,note_on,1,0,0,,5,,,65,127
81702,note_off,99,0,0,,5,,,65,127
81703,note_on,1,0,0,,4,,,64,127
81902,note_off,199,0,0,,4,,,64,127
81902,note_off,0,0,0,,5,,,77,127
81903,note_on,1,0,0,,0,,,84,127
81903,note_on,0,0,0,,5,,,65,127
82102,note_off,199,0,0,,5,,,65,127
82102,note_off,0,0,0,,0,,,84,127
82103,note_on,1,0,0,,2,,,86,127
82103,note_on,0,0,0,,11,,,46,127
82503,note_off,400,0,0,,11,,,46,127
82503,note_off,0,0,0,,2,,,86,127
82504,note_on,1,0,0,,11,,,82,127
82504,note_on,0,0,0,,5,,,65,127
82703,note_off,199,0,0,,5,,,65,127
82703,note_off,0,0,0,,11,,,82,127
82704,note_on,1,0,0,,5,,,77,127
82704,note_on,0,0,0,,7,,,67,127
82803,note_off,99,0,0,,7,,,67,127
82804,note_on,1,0,0,,5,,,65,127
82903,note_off,99,0,0,,5,,,65,127
82904,note_on,1,0,0,,4,,,64,127
83103,note_off,199,0,0,,4,,,64,127
83103,note_off,0,0,0,,5,,,77,127
83104,note_on,1,0,0,,7,,,79,127
83104,note_on,0,0,0,,4,,,88,127
83104,note_on,0,0,0,,5,,,65,127
83303,note_off,199,0,0,,5,,,65,127
83303,note_off,0,0,0,,4,,,88,127
83303,note_off,0,0,0,,7,,,79,127
83304,note_on,1,0,0,,10,,,81,127
83304,note_on,0,0,0,,5,,,89,127
83304,note_on,0,0,0,,5,,,41,127
83704,note_off,400,0,0,,5,,,41,127
83704,note_off,0,0,0,,5,,,89,127
83704,note_off,0,0,0,,10,,,81,127
83705,note_on,1,0,0,,5,,,77,127
83705,note_on,0,0,0,,5,,,65,127
83904,note_off,199,0,0,,5,,,65,127
83904,note_off,0,0,0,,5,,,77,127
83905,note_on,1,0,0,,0,,,72,127
83905,note_on,0,0,0,,7,,,67,127
84004,note_off,99,0,0,,7,,,67,127
84005,note_on,1,0,0,,5,,,65,127
84104,note_off,99,0,0,,5,,,65,127
84105,note_on,1,0,0,,4,,,64,127
84304,note_off,199,0,0,,4,,,64,127
84304,note_off,0,0,0,,0,,,72,127
84305,note_on,1,0,0,,0,,,84,127
84305,note_on,0,0,0,,0,,,72,127
84305,note_on,0,0,0,,5,,,65,127
84504,note_off,199,0,0,,5,,,65,127
84504,note_off,0,0,0,,0,,,72,127
84504,note_off,0,0,0,,0,,,84,127
84505,note_on,1,0,0,,2,,,74,127
84505,note_on,0,0,0,,11,,,82,127
84505,note_on,0,0,0,,11,,,46,127
84704,note_off,199,0,0,,2,,,74,127
84705,note_on,1,0,0,,4,,,76,127
84901,note_off,196,0,0,,11,,,82,127
84904,note_off,3,0,0,,4,,,76,127
84904,note_off,0,0,0,,11,,,46,127
84905,note_on,1,0,0,,10,,,81,127
84905,note_on,0,0,0,,5,,,77,127
84905,note_on,0,0,0,,11,,,58,127
85104,note_off,199,0,0,,11,,,58,127
85105,note_on,1,0,0,,0,,,60,127
85505,note_off,400,0,0,,0,,,60,127
85505,note_off,0,0,0,,5,,,77,127
85505,note_off,0,0,0,,10,,,81,127
85506,note_on,1,0,0,,7,,,79,127
85506,note_on,0,0,0,,4,,,76,127
85506,note_on,0,0,0,,0,,,48,127
85705,note_off,199,0,0,,0,,,48,127
85705,note_off,0,0,0,,4,,,76,127
85705,note_off,0,0,0,,7,,,79,127
85706,note_on,1,0,0,,5,,,77,127
85706,note_on,0,0,0,,5,,,53,127
86106,note_off,400,0,0,,5,,,77,127
86107,note_on,1,0,0,,2,,,74,127
86107,note_on,0,0,0,,11,,,82,127
86306,note_off,199,0,0,,11,,,82,127
86306,note_off,0,0,0,,2,,,74,127
86306,note_off,0,0,0,,5,,,53,127
86307,note_on,1,0,0,,0,,,72,127
86307,note_on,0,0,0,,10,,,81,127
86707,note_off,400,0,0,,10,,,81,127
86707,note_off,0,0,0,,0,,,72,127
86708,note_on,1,0,0,,7,,,79,127
86708,note_on,0,0,0,,11,,,70,127
86708,note_on,0,0,0,,7,,,55,127
86907,note_off,199,0,0,,7,,,55,127
86907,note_off,0,0,0,,11,,,70,127
86907,note_off,0,0,0,,7,,,79,127
86908,note_on,1,0,0,,10,,,69,127
86908,note_on,0,0,0,,5,,,77,127
86908,note_on,0,0,0,,10,,,57,127
87207,note_off,299,0,0,,5,,,77,127
87207,note_off,0,0,0,,10,,,69,127
87208,note_on,1,0,0,,4,,,76,127
87208,note_on,0,0,0,,7,,,67,127
87307,note_off,99,0,0,,7,,,67,127
87307,note_off,0,0,0,,4,,,76,127
87307,note_off,0,0,0,,10,,,57,127
87308,note_on,1,0,0,,5,,,65,127
87308,note_on,0,0,0,,2,,,74,127
87308,note_on,0,0,0,,11,,,58,127
87507,note_off,199,0,0,,11,,,58,127
87508,note_on,1,0,0,,0,,,60,127
87908,note_off,400,0,0,,0,,,60,127
87908,note_off,0,0,0,,2,,,74,127
87908,note_off,0,0,0,,5,,,65,127
87909,note_on,1,0,0,,7,,,67,127
87909,note_on,0,0,0,,4,,,76,127
87909,note_on,0,0,0,,0,,,48,127
88108,note_off,199,0,0,,0,,,48,127
88108,note_off,0,0,0,,4,,,76,127
88108,note_off,0,0,0,,7,,,67,127
88109,note_on,1,0,0,,10,,,69,127
88109,note_on,0,0,0,,5,,,77,127
88109,note_on,0,0,0,,5,,,53,127
88509,note_off,400,0,0,,5,,,53,127
88509,note_off,0,0,0,,5,,,77,127
88509,note_off,0,0,0,,10,,,69,127
88510,note_on,1,0,0,,11,,,82,127
88510,note_on,0,0,0,,2,,,74,127
88510,note_on,0,0,0,,5,,,41,127
88709,note_off,199,0,0,,2,,,74,127
88709,note_off,0,0,0,,11,,,82,127
88710,note_on,1,0,0,,10,,,81,127
88710,note_on,0,0,0,,0,,,72,127
89011,note_off,301,0,0,,5,,,41,127
89110,note_off,99,0,0,,0,,,72,127
89110,note_off,0,0,0,,10,,,81,127
89117,note_on,7,0,0,,7,,,43,127
89117,note_on,0,0,0,,7,,,79,127
89117,note_on,0,0,0,,11,,,70,127
89317,note_off,200,0,0,,11,,,70,127
89317,note_off,0,0,0,,7,,,79,127
89317,note_off,0,0,0,,7,,,43,127
89321,note_on,4,0,0,,10,,,45,127
89321,note_on,0,0,0,,5,,,77,127
89321,note_on,0,0,0,,10,,,69,127
89623,note_off,302,0,0,,10,,,69,127
89623,note_off,0,0,0,,5,,,77,127
89627,note_on,4,0,0,,4,,,76,127
89627,note_on,0,0,0,,7,,,67,127
89724,note_off,97,0,0,,10,,,45,127
89726,note_off,2,0,0,,7,,,67,127
89726,note_off,0,0,0,,4,,,76,127
89729,note_on,3,0,0,,11,,,46,127
89729,note_on,0,0,0,,2,,,74,127
89729,note_on,0,0,0,,5,,,65,127
89929,note_off,200,0,0,,11,,,46,127
89933,note_on,4,0,0,,0,,,48,127
90334,note_off,401,0,0,,5,,,65,127
90334,note_off,0,0,0,,2,,,74,127
90336,note_off,2,0,0,,0,,,48,127
90342,note_on,6,0,0,,0,,,36,127
90342,note_on,0,0,0,,7,,,67,127
90342,note_on,0,0,0,,4,,,76,127
90542,note_off,200,0,0,,4,,,76,127
90542,note_off,0,0,0,,7,,,67,127
90542,note_off,0,0,0,,0,,,36,127
90559,note_on,17,0,0,,5,,,41,127
90559,note_on,0,0,0,,5,,,77,127
90559,note_on,0,0,0,,5,,,65,127
92886,note_off,2327,0,0,,5,,,65,127
92886,note_off,0,0,0,,5,,,77,127
92886,note_off,0,0,0,,5,,,41,127
96768,end_of_track,3882,1,0,,,,,,
