tick,type,time,meta,track,program,channel,pitch,tempo,note,velocity
0,copyright,0,1,0,,,,,,
0,program_change,0,0,0,6,0,,,,
0,pitchwheel,0,0,0,,0,0,,,
0,program_change,0,0,0,6,1,,,,
0,pitchwheel,0,0,0,,1,-590,,,
0,program_change,0,0,0,6,2,,,,
0,pitchwheel,0,0,0,,2,-272,,,
0,program_change,0,0,0,6,3,,,,
0,pitchwheel,0,0,0,,3,-353,,,
0,program_change,0,0,0,6,4,,,,
0,pitchwheel,0,0,0,,4,-560,,,
0,program_change,0,0,0,6,5,,,,
0,pitchwheel,0,0,0,,5,-80,,,
0,program_change,0,0,0,6,6,,,,
0,pitchwheel,0,0,0,,6,-625,,,
0,program_change,0,0,0,6,7,,,,
0,pitchwheel,0,0,0,,7,-130,,,
0,program_change,0,0,0,6,8,,,,
0,pitchwheel,0,0,0,,8,-512,,,
0,program_change,0,0,0,6,10,,,,
0,pitchwheel,0,0,0,,10,-464,,,
0,program_change,0,0,0,6,11,,,,
0,pitchwheel,0,0,0,,11,-208,,,
0,program_change,0,0,0,6,12,,,,
0,pitchwheel,0,0,0,,12,-553,,,
0,set_tempo,0,1,0,,,,500000,,
105,note_on,105,0,0,,6,,,78,127
313,note_off,208,0,0,,6,,,78,127
314,note_on,1,0,0,,4,,,76,127
418,note_off,104,0,0,,4,,,76,127
419,note_on,1,0,0,,2,,,74,127
523,note_off,104,0,0,,2,,,74,127
524,note_on,1,0,0,,1,,,73,127
732,note_off,208,0,0,,1,,,73,127
733,note_on,1,0,0,,6,,,78,127
941,note_off,208,0,0,,6,,,78,127
942,note_on,1,0,0,,4,,,76,127
1150,note_off,208,0,0,,4,,,76,127
1151,note_on,1,0,0,,1,,,61,127
1151,note_on,0,0,0,,1,,,49,127
1151,note_on,0,0,0,,10,,,69,127
1359,note_off,208,0,0,,10,,,69,127
1360,note_on,1,0,0,,12,,,71,127
1568,note_off,208,0,0,,12,,,71,127
1568,note_off,0,0,0,,1,,,49,127
1568,note_off,0,0,0,,1,,,61,127
1569,note_on,1,0,0,,12,,,47,127
1569,note_on,0,0,0,,12,,,59,127
1569,note_on,0,0,0,,2,,,74,127
1777,note_off,208,0,0,,2,,,74,127
1778,note_on,1,0,0,,1,,,73,127
1986,note_off,208,0,0,,1,,,73,127
1986,note_off,0,0,0,,12,,,59,127
1986,note_off,0,0,0,,12,,,47,127
1987,note_on,1,0,0,,10,,,45,127
1987,note_on,0,0,0,,10,,,57,127
1987,note_on,0,0,0,,6,,,66,127
2195,note_off,208,0,0,,6,,,66,127
2196,note_on,1,0,0,,8,,,68,127
2404,note_off,208,0,0,,8,,,68,127
2404,note_off,0,0,0,,10,,,57,127
2404,note_off,0,0,0,,10,,,45,127
2405,note_on,1,0,0,,8,,,44,127
2405,note_on,0,0,0,,8,,,56,127
2405,note_on,0,0,0,,12,,,71,127
2613,note_off,208,0,0,,12,,,71,127
2613,note_off,0,0,0,,8,,,56,127
2613,note_off,0,0,0,,8,,,44,127
2614,note_on,1,0,0,,6,,,42,127
2614,note_on,0,0,0,,6,,,54,127
2614,note_on,0,0,0,,10,,,69,127
2822,note_off,208,0,0,,10,,,69,127
2822,note_off,0,0,0,,6,,,54,127
2822,note_off,0,0,0,,6,,,42,127
2823,note_on,1,0,0,,2,,,50,127
2823,note_on,0,0,0,,8,,,68,127
2927,note_off,104,0,0,,8,,,68,127
2928,note_on,1,0,0,,6,,,66,127
3032,note_off,104,0,0,,6,,,66,127
3032,note_off,0,0,0,,2,,,50,127
3033,note_on,1,0,0,,12,,,47,127
3033,note_on,0,0,0,,8,,,68,127
3241,note_off,208,0,0,,8,,,68,127
3241,note_off,0,0,0,,12,,,47,127
3242,note_on,1,0,0,,1,,,49,127
3242,note_on,0,0,0,,6,,,66,127
3346,note_off,104,0,0,,6,,,66,127
3347,note_on,1,0,0,,5,,,65,127
3450,note_off,103,0,0,,5,,,65,127
3451,note_off,1,0,0,,1,,,49,127
3452,note_on,1,0,0,,6,,,66,127
3660,note_off,208,0,0,,6,,,66,127
3661,note_on,1,0,0,,4,,,64,127
3765,note_off,104,0,0,,4,,,64,127
3766,note_on,1,0,0,,2,,,62,127
3870,note_off,104,0,0,,2,,,62,127
3871,note_on,1,0,0,,1,,,61,127
4079,note_off,208,0,0,,1,,,61,127
4080,note_on,1,0,0,,6,,,66,127
4080,note_on,0,0,0,,10,,,69,127
4080,note_on,0,0,0,,10,,,81,127
4288,note_off,208,0,0,,10,,,81,127
4288,note_off,0,0,0,,10,,,69,127
4288,note_off,0,0,0,,6,,,66,127
4289,note_on,1,0,0,,1,,,61,127
4289,note_on,0,0,0,,8,,,80,127
4289,note_on,0,0,0,,8,,,68,127
4497,note_off,208,0,0,,8,,,68,127
4497,note_off,0,0,0,,8,,,80,127
4497,note_off,0,0,0,,1,,,61,127
4498,note_on,1,0,0,,10,,,57,127
4498,note_on,0,0,0,,1,,,85,127
4498,note_on,0,0,0,,1,,,73,127
4706,note_off,208,0,0,,10,,,57,127
4707,note_on,1,0,0,,12,,,59,127
4915,note_off,208,0,0,,12,,,59,127
4915,note_off,0,0,0,,1,,,73,127
4915,note_off,0,0,0,,1,,,85,127
4916,note_on,1,0,0,,2,,,62,127
4916,note_on,0,0,0,,12,,,71,127
4916,note_on,0,0,0,,12,,,83,127
5124,note_off,208,0,0,,2,,,62,127
5125,note_on,1,0,0,,1,,,61,127
5333,note_off,208,0,0,,1,,,61,127
5333,note_off,0,0,0,,12,,,83,127
5333,note_off,0,0,0,,12,,,71,127
5334,note_on,1,0,0,,6,,,54,127
5334,note_on,0,0,0,,10,,,81,127
5334,note_on,0,0,0,,10,,,69,127
5542,note_off,208,0,0,,6,,,54,127
5543,note_on,1,0,0,,8,,,56,127
5751,note_off,208,0,0,,8,,,56,127
5751,note_off,0,0,0,,10,,,69,127
5751,note_off,0,0,0,,10,,,81,127
5752,note_on,1,0,0,,12,,,59,127
5752,note_on,0,0,0,,8,,,68,127
5752,note_on,0,0,0,,8,,,80,127
5960,note_off,208,0,0,,12,,,59,127
5961,note_on,1,0,0,,10,,,57,127
6169,note_off,208,0,0,,10,,,57,127
6169,note_off,0,0,0,,8,,,80,127
6169,note_off,0,0,0,,8,,,68,127
6170,note_on,1,0,0,,8,,,56,127
6170,note_on,0,0,0,,6,,,78,127
6170,note_on,0,0,0,,10,,,69,127
6274,note_off,104,0,0,,8,,,56,127
6275,note_on,1,0,0,,6,,,54,127
6379,note_off,104,0,0,,6,,,54,127
6380,note_on,1,0,0,,1,,,61,127
6588,note_off,208,0,0,,1,,,61,127
6588,note_off,0,0,0,,10,,,69,127
6588,note_off,0,0,0,,6,,,78,127
6589,note_on,1,0,0,,1,,,49,127
6589,note_on,0,0,0,,8,,,68,127
6589,note_on,0,0,0,,5,,,77,127
6797,note_off,208,0,0,,5,,,77,127
6797,note_off,0,0,0,,8,,,68,127
6797,note_off,0,0,0,,1,,,49,127
6798,note_on,1,0,0,,6,,,54,127
6798,note_on,0,0,0,,6,,,78,127
6798,note_on,0,0,0,,10,,,69,127
6955,note_off,157,0,0,,10,,,69,127
7006,note_off,51,0,0,,6,,,78,127
7007,note_on,1,0,0,,1,,,73,127
7007,note_on,0,0,0,,10,,,81,127
7212,note_off,205,0,0,,6,,,54,127
7215,note_off,3,0,0,,10,,,81,127
7215,note_off,0,0,0,,1,,,73,127
7216,note_on,1,0,0,,8,,,80,127
7216,note_on,0,0,0,,12,,,71,127
7424,note_off,208,0,0,,12,,,71,127
7424,note_off,0,0,0,,8,,,80,127
7425,note_on,1,0,0,,8,,,56,127
7425,note_on,0,0,0,,5,,,65,127
7425,note_on,0,0,0,,2,,,74,127
7633,note_off,208,0,0,,5,,,65,127
7633,note_off,0,0,0,,8,,,56,127
7634,note_on,1,0,0,,10,,,57,127
7634,note_on,0,0,0,,6,,,66,127
7839,note_off,205,0,0,,2,,,74,127
7842,note_off,3,0,0,,10,,,57,127
7843,note_on,1,0,0,,12,,,59,127
7843,note_on,0,0,0,,1,,,73,127
7947,note_off,104,0,0,,1,,,73,127
7948,note_on,1,0,0,,12,,,71,127
8052,note_off,104,0,0,,12,,,71,127
8052,note_off,0,0,0,,12,,,59,127
8053,note_on,1,0,0,,1,,,61,127
8053,note_on,0,0,0,,10,,,69,127
8261,note_off,208,0,0,,10,,,69,127
8261,note_off,0,0,0,,1,,,61,127
8261,note_off,0,0,0,,6,,,66,127
8262,note_on,1,0,0,,1,,,49,127
8262,note_on,0,0,0,,8,,,68,127
8262,note_on,0,0,0,,5,,,65,127
8470,note_off,208,0,0,,5,,,65,127
8470,note_off,0,0,0,,8,,,68,127
8470,note_off,0,0,0,,1,,,49,127
8471,note_on,1,0,0,,6,,,54,127
8471,note_on,0,0,0,,10,,,69,127
8471,note_on,0,0,0,,6,,,66,127
8628,note_off,157,0,0,,6,,,66,127
8679,note_off,51,0,0,,10,,,69,127
8680,note_on,1,0,0,,1,,,73,127
8680,note_on,0,0,0,,10,,,81,127
8888,note_off,208,0,0,,10,,,81,127
8888,note_off,0,0,0,,1,,,73,127
8889,note_on,1,0,0,,8,,,80,127
8889,note_on,0,0,0,,12,,,71,127
8994,note_off,105,0,0,,6,,,54,127
9098,note_off,104,0,0,,12,,,71,127
9098,note_off,0,0,0,,8,,,80,127
9099,note_on,1,0,0,,8,,,56,127
9099,note_on,0,0,0,,2,,,74,127
9099,note_on,0,0,0,,5,,,65,127
9307,note_off,208,0,0,,5,,,65,127
9307,note_off,0,0,0,,8,,,56,127
9308,note_on,1,0,0,,10,,,57,127
9308,note_on,0,0,0,,6,,,66,127
9513,note_off,205,0,0,,2,,,74,127
9516,note_off,3,0,0,,10,,,57,127
9517,note_on,1,0,0,,12,,,59,127
9517,note_on,0,0,0,,1,,,73,127
9621,note_off,104,0,0,,1,,,73,127
9622,note_on,1,0,0,,12,,,71,127
9726,note_off,104,0,0,,12,,,71,127
9726,note_off,0,0,0,,12,,,59,127
9727,note_on,1,0,0,,1,,,61,127
9727,note_on,0,0,0,,10,,,69,127
9935,note_off,208,0,0,,10,,,69,127
9935,note_off,0,0,0,,1,,,61,127
9935,note_off,0,0,0,,6,,,66,127
9936,note_on,1,0,0,,1,,,49,127
9936,note_on,0,0,0,,5,,,65,127
9936,note_on,0,0,0,,8,,,68,127
10144,note_off,208,0,0,,8,,,68,127
10144,note_off,0,0,0,,5,,,65,127
10144,note_off,0,0,0,,1,,,49,127
10145,note_on,1,0,0,,6,,,54,127
10145,note_on,0,0,0,,6,,,66,127
10145,note_on,0,0,0,,10,,,69,127
10353,note_off,208,0,0,,10,,,69,127
10353,note_off,0,0,0,,6,,,66,127
10354,note_on,1,0,0,,6,,,66,127
10354,note_on,0,0,0,,11,,,70,127
10559,note_off,205,0,0,,6,,,54,127
10562,note_off,3,0,0,,11,,,70,127
10563,note_on,1,0,0,,7,,,55,127
10563,note_on,0,0,0,,12,,,71,127
10768,note_off,205,0,0,,6,,,66,127
10771,note_off,3,0,0,,12,,,71,127
10772,note_on,1,0,0,,4,,,64,127
10772,note_on,0,0,0,,1,,,73,127
10977,note_off,205,0,0,,7,,,55,127
10980,note_off,3,0,0,,1,,,73,127
10981,note_on,1,0,0,,6,,,54,127
10981,note_on,0,0,0,,11,,,70,127
11186,note_off,205,0,0,,4,,,64,127
11189,note_off,3,0,0,,11,,,70,127
11190,note_on,1,0,0,,2,,,62,127
11190,note_on,0,0,0,,12,,,71,127
11294,note_off,104,0,0,,12,,,71,127
11294,note_off,0,0,0,,2,,,62,127
11295,note_on,1,0,0,,1,,,61,127
11295,note_on,0,0,0,,1,,,73,127
11399,note_off,104,0,0,,1,,,73,127
11399,note_off,0,0,0,,1,,,61,127
11400,note_on,1,0,0,,12,,,59,127
11400,note_on,0,0,0,,2,,,74,127
11400,note_on,0,0,0,,12,,,71,127
11608,note_off,208,0,0,,12,,,71,127
11608,note_off,0,0,0,,2,,,74,127
11608,note_off,0,0,0,,12,,,59,127
11609,note_on,1,0,0,,11,,,58,127
11609,note_on,0,0,0,,4,,,76,127
11609,note_on,0,0,0,,1,,,73,127
11817,note_off,208,0,0,,1,,,73,127
11817,note_off,0,0,0,,4,,,76,127
11817,note_off,0,0,0,,11,,,58,127
11817,note_off,0,0,0,,6,,,54,127
11818,note_on,1,0,0,,12,,,59,127
11818,note_on,0,0,0,,2,,,74,127
11818,note_on,0,0,0,,12,,,71,127
11975,note_off,157,0,0,,2,,,74,127
12026,note_off,51,0,0,,12,,,71,127
12026,note_off,0,0,0,,12,,,59,127
12027,note_on,1,0,0,,6,,,54,127
12027,note_on,0,0,0,,6,,,66,127
12027,note_on,0,0,0,,11,,,70,127
12235,note_off,208,0,0,,11,,,70,127
12235,note_off,0,0,0,,6,,,54,127
12236,note_on,1,0,0,,7,,,55,127
12236,note_on,0,0,0,,12,,,71,127
12441,note_off,205,0,0,,6,,,66,127
12444,note_off,3,0,0,,12,,,71,127
12445,note_on,1,0,0,,4,,,64,127
12445,note_on,0,0,0,,1,,,73,127
12650,note_off,205,0,0,,7,,,55,127
12653,note_off,3,0,0,,1,,,73,127
12654,note_on,1,0,0,,6,,,54,127
12654,note_on,0,0,0,,11,,,70,127
12859,note_off,205,0,0,,4,,,64,127
12862,note_off,3,0,0,,11,,,70,127
12863,note_on,1,0,0,,2,,,62,127
12863,note_on,0,0,0,,12,,,71,127
12967,note_off,104,0,0,,12,,,71,127
12967,note_off,0,0,0,,2,,,62,127
12968,note_on,1,0,0,,1,,,61,127
12968,note_on,0,0,0,,1,,,73,127
13072,note_off,104,0,0,,1,,,73,127
13072,note_off,0,0,0,,1,,,61,127
13073,note_on,1,0,0,,12,,,59,127
13073,note_on,0,0,0,,12,,,71,127
13073,note_on,0,0,0,,2,,,74,127
13281,note_off,208,0,0,,2,,,74,127
13281,note_off,0,0,0,,12,,,71,127
13281,note_off,0,0,0,,12,,,59,127
13282,note_on,1,0,0,,11,,,58,127
13282,note_on,0,0,0,,1,,,73,127
13282,note_on,0,0,0,,4,,,76,127
13490,note_off,208,0,0,,4,,,76,127
13490,note_off,0,0,0,,1,,,73,127
13490,note_off,0,0,0,,11,,,58,127
13490,note_off,0,0,0,,6,,,54,127
13491,note_on,1,0,0,,12,,,59,127
13491,note_on,0,0,0,,2,,,74,127
13491,note_on,0,0,0,,12,,,71,127
13648,note_off,157,0,0,,2,,,74,127
13699,note_off,51,0,0,,12,,,71,127
13699,note_off,0,0,0,,12,,,59,127
13700,note_on,1,0,0,,4,,,52,127
13700,note_on,0,0,0,,4,,,64,127
13700,note_on,0,0,0,,8,,,68,127
13908,note_off,208,0,0,,8,,,68,127
13908,note_off,0,0,0,,4,,,52,127
13909,note_on,1,0,0,,6,,,54,127
13909,note_on,0,0,0,,10,,,69,127
14114,note_off,205,0,0,,4,,,64,127
14117,note_off,3,0,0,,10,,,69,127
14118,note_on,1,0,0,,2,,,62,127
14118,note_on,0,0,0,,12,,,71,127
14323,note_off,205,0,0,,6,,,54,127
14326,note_off,3,0,0,,12,,,71,127
14327,note_on,1,0,0,,4,,,52,127
14327,note_on,0,0,0,,8,,,68,127
14532,note_off,205,0,0,,2,,,62,127
14535,note_off,3,0,0,,8,,,68,127
14536,note_on,1,0,0,,1,,,61,127
14536,note_on,0,0,0,,10,,,69,127
14640,note_off,104,0,0,,10,,,69,127
14640,note_off,0,0,0,,1,,,61,127
14641,note_on,1,0,0,,12,,,59,127
14641,note_on,0,0,0,,12,,,71,127
14745,note_off,104,0,0,,12,,,71,127
14745,note_off,0,0,0,,12,,,59,127
14746,note_on,1,0,0,,10,,,57,127
14746,note_on,0,0,0,,10,,,69,127
14746,note_on,0,0,0,,1,,,73,127
14954,note_off,208,0,0,,1,,,73,127
14954,note_off,0,0,0,,10,,,69,127
14954,note_off,0,0,0,,10,,,57,127
14955,note_on,1,0,0,,8,,,56,127
14955,note_on,0,0,0,,12,,,71,127
14955,note_on,0,0,0,,2,,,74,127
15163,note_off,208,0,0,,2,,,74,127
15163,note_off,0,0,0,,12,,,71,127
15163,note_off,0,0,0,,8,,,56,127
15163,note_off,0,0,0,,4,,,52,127
15164,note_on,1,0,0,,10,,,57,127
15164,note_on,0,0,0,,1,,,73,127
15164,note_on,0,0,0,,10,,,69,127
15321,note_off,157,0,0,,1,,,73,127
15372,note_off,51,0,0,,10,,,69,127
15372,note_off,0,0,0,,10,,,57,127
15373,note_on,1,0,0,,4,,,52,127
15373,note_on,0,0,0,,4,,,64,127
15373,note_on,0,0,0,,8,,,68,127
15581,note_off,208,0,0,,8,,,68,127
15581,note_off,0,0,0,,4,,,52,127
15582,note_on,1,0,0,,6,,,54,127
15582,note_on,0,0,0,,10,,,69,127
15787,note_off,205,0,0,,4,,,64,127
15790,note_off,3,0,0,,10,,,69,127
15791,note_on,1,0,0,,2,,,62,127
15791,note_on,0,0,0,,12,,,71,127
15996,note_off,205,0,0,,6,,,54,127
15999,note_off,3,0,0,,12,,,71,127
16000,note_on,1,0,0,,4,,,52,127
16000,note_on,0,0,0,,8,,,68,127
16205,note_off,205,0,0,,2,,,62,127
16208,note_off,3,0,0,,8,,,68,127
16209,note_on,1,0,0,,1,,,61,127
16209,note_on,0,0,0,,10,,,69,127
16313,note_off,104,0,0,,10,,,69,127
16313,note_off,0,0,0,,1,,,61,127
16314,note_on,1,0,0,,12,,,59,127
16314,note_on,0,0,0,,12,,,71,127
16418,note_off,104,0,0,,12,,,71,127
16418,note_off,0,0,0,,12,,,59,127
16419,note_on,1,0,0,,10,,,57,127
16419,note_on,0,0,0,,1,,,73,127
16419,note_on,0,0,0,,10,,,69,127
16627,note_off,208,0,0,,10,,,69,127
16627,note_off,0,0,0,,1,,,73,127
16627,note_off,0,0,0,,10,,,57,127
16628,note_on,1,0,0,,8,,,56,127
16628,note_on,0,0,0,,12,,,71,127
16628,note_on,0,0,0,,2,,,74,127
16836,note_off,208,0,0,,2,,,74,127
16836,note_off,0,0,0,,12,,,71,127
16836,note_off,0,0,0,,8,,,56,127
16836,note_off,0,0,0,,4,,,52,127
16837,note_on,1,0,0,,10,,,57,127
16837,note_on,0,0,0,,1,,,73,127
17046,note_on,209,0,0,,10,,,69,127
17251,note_off,205,0,0,,10,,,57,127
17254,note_off,3,0,0,,1,,,73,127
17255,note_on,1,0,0,,12,,,59,127
17255,note_on,0,0,0,,3,,,75,127
17460,note_off,205,0,0,,10,,,69,127
17463,note_off,3,0,0,,3,,,75,127
17464,note_on,1,0,0,,8,,,68,127
17464,note_on,0,0,0,,4,,,76,127
17568,note_off,104,0,0,,4,,,76,127
17568,note_off,0,0,0,,8,,,68,127
17569,note_on,1,0,0,,6,,,66,127
17569,note_on,0,0,0,,6,,,78,127
17669,note_off,100,0,0,,12,,,59,127
17672,note_off,3,0,0,,6,,,78,127
17672,note_off,0,0,0,,6,,,66,127
17673,note_on,1,0,0,,4,,,64,127
17673,note_on,0,0,0,,8,,,80,127
17881,note_off,208,0,0,,8,,,80,127
17881,note_off,0,0,0,,4,,,64,127
17882,note_on,1,0,0,,10,,,69,127
17882,note_on,0,0,0,,1,,,73,127
18090,note_off,208,0,0,,1,,,73,127
18090,note_off,0,0,0,,10,,,69,127
18091,note_on,1,0,0,,3,,,63,127
18091,note_on,0,0,0,,6,,,78,127
18091,note_on,0,0,0,,3,,,75,127
18299,note_off,208,0,0,,3,,,75,127
18299,note_off,0,0,0,,6,,,78,127
18299,note_off,0,0,0,,3,,,63,127
18300,note_on,1,0,0,,8,,,68,127
18300,note_on,0,0,0,,4,,,76,127
18300,note_on,0,0,0,,1,,,73,127
18404,note_off,104,0,0,,1,,,73,127
18404,note_off,0,0,0,,4,,,76,127
18405,note_on,1,0,0,,0,,,72,127
18405,note_on,0,0,0,,3,,,75,127
18509,note_off,104,0,0,,3,,,75,127
18509,note_off,0,0,0,,0,,,72,127
18509,note_off,0,0,0,,8,,,68,127
18510,note_on,1,0,0,,1,,,61,127
18510,note_on,0,0,0,,4,,,76,127
18718,note_off,208,0,0,,4,,,76,127
18718,note_off,0,0,0,,1,,,61,127
18719,note_on,1,0,0,,12,,,59,127
18719,note_on,0,0,0,,3,,,75,127
18927,note_off,208,0,0,,12,,,59,127
18928,note_on,1,0,0,,10,,,57,127
18980,note_on,52,0,0,,1,,,73,127
18988,note_off,8,0,0,,3,,,75,127
19032,note_off,44,0,0,,1,,,73,127
19033,note_on,1,0,0,,3,,,75,127
19084,note_off,51,0,0,,3,,,75,127
19085,note_on,1,0,0,,1,,,73,127
19136,note_off,51,0,0,,1,,,73,127
19136,note_off,0,0,0,,10,,,57,127
19137,note_on,1,0,0,,10,,,45,127
19137,note_on,0,0,0,,3,,,75,127
19188,note_off,51,0,0,,3,,,75,127
19189,note_on,1,0,0,,1,,,73,127
19240,note_off,51,0,0,,1,,,73,127
19241,note_on,1,0,0,,0,,,72,127
19292,note_off,51,0,0,,0,,,72,127
19293,note_on,1,0,0,,1,,,73,127
19344,note_off,51,0,0,,1,,,73,127
19344,note_off,0,0,0,,10,,,45,127
19345,note_on,1,0,0,,8,,,44,127
19345,note_on,0,0,0,,3,,,75,127
19553,note_off,208,0,0,,3,,,75,127
19553,note_off,0,0,0,,8,,,44,127
19554,note_on,1,0,0,,4,,,64,127
19554,note_on,0,0,0,,8,,,68,127
19658,note_off,104,0,0,,8,,,68,127
19658,note_off,0,0,0,,4,,,64,127
19659,note_on,1,0,0,,6,,,66,127
19659,note_on,0,0,0,,10,,,69,127
19763,note_off,104,0,0,,10,,,69,127
19763,note_off,0,0,0,,6,,,66,127
19764,note_on,1,0,0,,4,,,64,127
19764,note_on,0,0,0,,8,,,68,127
19868,note_off,104,0,0,,8,,,68,127
19868,note_off,0,0,0,,4,,,64,127
19869,note_on,1,0,0,,3,,,63,127
19869,note_on,0,0,0,,6,,,66,127
19973,note_off,104,0,0,,6,,,66,127
19973,note_off,0,0,0,,3,,,63,127
19974,note_on,1,0,0,,1,,,61,127
19974,note_on,0,0,0,,4,,,64,127
20078,note_off,104,0,0,,4,,,64,127
20078,note_off,0,0,0,,1,,,61,127
20079,note_on,1,0,0,,0,,,60,127
20079,note_on,0,0,0,,3,,,63,127
20183,note_off,104,0,0,,3,,,63,127
20183,note_off,0,0,0,,0,,,60,127
20184,note_on,1,0,0,,1,,,61,127
20184,note_on,0,0,0,,4,,,64,127
20392,note_off,208,0,0,,4,,,64,127
20392,note_off,0,0,0,,1,,,61,127
20393,note_on,1,0,0,,1,,,37,127
20393,note_on,0,0,0,,1,,,85,127
20601,note_off,208,0,0,,1,,,85,127
20601,note_off,0,0,0,,1,,,37,127
20602,note_on,1,0,0,,4,,,64,127
20602,note_on,0,0,0,,8,,,68,127
20706,note_off,104,0,0,,8,,,68,127
20706,note_off,0,0,0,,4,,,64,127
20707,note_on,1,0,0,,3,,,63,127
20707,note_on,0,0,0,,6,,,66,127
20811,note_off,104,0,0,,6,,,66,127
20811,note_off,0,0,0,,3,,,63,127
20812,note_on,1,0,0,,1,,,61,127
20812,note_on,0,0,0,,4,,,64,127
20916,note_off,104,0,0,,4,,,64,127
20916,note_off,0,0,0,,1,,,61,127
20917,note_on,1,0,0,,0,,,60,127
20917,note_on,0,0,0,,3,,,63,127
21021,note_off,104,0,0,,3,,,63,127
21021,note_off,0,0,0,,0,,,60,127
21022,note_on,1,0,0,,1,,,61,127
21022,note_on,0,0,0,,4,,,64,127
21230,note_off,208,0,0,,4,,,64,127
21230,note_off,0,0,0,,1,,,61,127
21231,note_on,1,0,0,,1,,,37,127
21231,note_on,0,0,0,,1,,,85,127
21439,note_off,208,0,0,,1,,,85,127
21439,note_off,0,0,0,,1,,,37,127
21440,note_on,1,0,0,,4,,,64,127
21440,note_on,0,0,0,,8,,,68,127
21544,note_off,104,0,0,,8,,,68,127
21544,note_off,0,0,0,,4,,,64,127
21545,note_on,1,0,0,,3,,,63,127
21545,note_on,0,0,0,,6,,,66,127
21649,note_off,104,0,0,,6,,,66,127
21649,note_off,0,0,0,,3,,,63,127
21650,note_on,1,0,0,,1,,,61,127
21650,note_on,0,0,0,,4,,,64,127
21754,note_off,104,0,0,,4,,,64,127
21754,note_off,0,0,0,,1,,,61,127
21755,note_on,1,0,0,,0,,,60,127
21755,note_on,0,0,0,,3,,,63,127
21859,note_off,104,0,0,,3,,,63,127
21859,note_off,0,0,0,,0,,,60,127
21860,note_on,1,0,0,,1,,,61,127
21860,note_on,0,0,0,,4,,,64,127
22068,note_off,208,0,0,,4,,,64,127
22068,note_off,0,0,0,,1,,,61,127
22069,note_on,1,0,0,,1,,,37,127
22069,note_on,0,0,0,,1,,,85,127
22277,note_off,208,0,0,,1,,,85,127
22277,note_off,0,0,0,,1,,,37,127
22278,note_on,1,0,0,,10,,,69,127
22278,note_on,0,0,0,,0,,,72,127
22382,note_off,104,0,0,,10,,,69,127
22383,note_on,1,0,0,,8,,,68,127
22487,note_off,104,0,0,,8,,,68,127
22488,note_on,1,0,0,,6,,,66,127
22592,note_off,104,0,0,,6,,,66,127
22593,note_on,1,0,0,,4,,,64,127
22697,note_off,104,0,0,,4,,,64,127
22698,note_on,1,0,0,,3,,,63,127
22802,note_off,104,0,0,,3,,,63,127
22803,note_on,1,0,0,,1,,,61,127
22907,note_off,104,0,0,,1,,,61,127
22907,note_off,0,0,0,,0,,,72,127
22908,note_on,1,0,0,,0,,,60,127
22908,note_on,0,0,0,,1,,,73,127
23012,note_off,104,0,0,,0,,,60,127
23013,note_on,1,0,0,,11,,,58,127
23117,note_off,104,0,0,,11,,,58,127
23117,note_off,0,0,0,,1,,,73,127
23118,note_on,1,0,0,,8,,,56,127
23118,note_on,0,0,0,,3,,,75,127
23222,note_off,104,0,0,,8,,,56,127
23223,note_on,1,0,0,,6,,,54,127
23327,note_off,104,0,0,,6,,,54,127
23327,note_off,0,0,0,,3,,,75,127
23328,note_on,1,0,0,,4,,,52,127
23328,note_on,0,0,0,,4,,,76,127
23432,note_off,104,0,0,,4,,,76,127
23432,note_off,0,0,0,,4,,,52,127
23433,note_on,1,0,0,,3,,,51,127
23433,note_on,0,0,0,,6,,,78,127
23537,note_off,104,0,0,,6,,,78,127
23537,note_off,0,0,0,,3,,,51,127
23538,note_on,1,0,0,,1,,,49,127
23538,note_on,0,0,0,,4,,,76,127
23538,note_on,0,0,0,,8,,,80,127
23642,note_off,104,0,0,,8,,,80,127
23643,note_on,1,0,0,,10,,,81,127
23747,note_off,104,0,0,,10,,,81,127
23747,note_off,0,0,0,,1,,,49,127
23748,note_on,1,0,0,,6,,,54,127
23748,note_on,0,0,0,,8,,,80,127
23844,note_off,96,0,0,,4,,,76,127
23852,note_off,8,0,0,,8,,,80,127
23853,note_on,1,0,0,,6,,,78,127
23957,note_off,104,0,0,,6,,,78,127
23957,note_off,0,0,0,,6,,,54,127
23958,note_on,1,0,0,,8,,,56,127
23958,note_on,0,0,0,,4,,,76,127
24062,note_off,104,0,0,,4,,,76,127
24063,note_on,1,0,0,,3,,,75,127
24167,note_off,104,0,0,,3,,,75,127
24167,note_off,0,0,0,,8,,,56,127
24168,note_on,1,0,0,,8,,,44,127
24168,note_on,0,0,0,,1,,,73,127
24272,note_off,104,0,0,,1,,,73,127
24273,note_on,1,0,0,,0,,,72,127
24377,note_off,104,0,0,,0,,,72,127
24377,note_off,0,0,0,,8,,,44,127
24378,note_on,1,0,0,,1,,,49,127
24378,note_on,0,0,0,,1,,,73,127
24586,note_off,208,0,0,,1,,,73,127
24586,note_off,0,0,0,,1,,,49,127
24587,note_on,1,0,0,,1,,,37,127
24587,note_on,0,0,0,,1,,,85,127
24795,note_off,208,0,0,,1,,,85,127
24795,note_off,0,0,0,,1,,,37,127
24796,note_on,1,0,0,,4,,,64,127
24796,note_on,0,0,0,,8,,,68,127
24900,note_off,104,0,0,,8,,,68,127
24900,note_off,0,0,0,,4,,,64,127
24901,note_on,1,0,0,,3,,,63,127
24901,note_on,0,0,0,,6,,,66,127
25005,note_off,104,0,0,,6,,,66,127
25005,note_off,0,0,0,,3,,,63,127
25006,note_on,1,0,0,,1,,,61,127
25006,note_on,0,0,0,,4,,,64,127
25110,note_off,104,0,0,,4,,,64,127
25110,note_off,0,0,0,,1,,,61,127
25111,note_on,1,0,0,,0,,,60,127
25111,note_on,0,0,0,,3,,,63,127
25215,note_off,104,0,0,,3,,,63,127
25215,note_off,0,0,0,,0,,,60,127
25216,note_on,1,0,0,,1,,,61,127
25216,note_on,0,0,0,,4,,,64,127
25424,note_off,208,0,0,,4,,,64,127
25424,note_off,0,0,0,,1,,,61,127
25425,note_on,1,0,0,,1,,,37,127
25425,note_on,0,0,0,,1,,,85,127
25633,note_off,208,0,0,,1,,,85,127
25633,note_off,0,0,0,,1,,,37,127
25634,note_on,1,0,0,,4,,,64,127
25634,note_on,0,0,0,,8,,,68,127
25738,note_off,104,0,0,,8,,,68,127
25738,note_off,0,0,0,,4,,,64,127
25739,note_on,1,0,0,,3,,,63,127
25739,note_on,0,0,0,,6,,,66,127
25843,note_off,104,0,0,,6,,,66,127
25843,note_off,0,0,0,,3,,,63,127
25844,note_on,1,0,0,,1,,,61,127
25844,note_on,0,0,0,,4,,,64,127
25948,note_off,104,0,0,,4,,,64,127
25948,note_off,0,0,0,,1,,,61,127
25949,note_on,1,0,0,,0,,,60,127
25949,note_on,0,0,0,,3,,,63,127
26053,note_off,104,0,0,,3,,,63,127
26053,note_off,0,0,0,,0,,,60,127
26054,note_on,1,0,0,,1,,,61,127
26054,note_on,0,0,0,,4,,,64,127
26262,note_off,208,0,0,,4,,,64,127
26262,note_off,0,0,0,,1,,,61,127
26263,note_on,1,0,0,,1,,,37,127
26263,note_on,0,0,0,,1,,,85,127
26471,note_off,208,0,0,,1,,,85,127
26471,note_off,0,0,0,,1,,,37,127
26472,note_on,1,0,0,,10,,,69,127
26472,note_on,0,0,0,,0,,,72,127
26576,note_off,104,0,0,,10,,,69,127
26577,note_on,1,0,0,,8,,,68,127
26681,note_off,104,0,0,,8,,,68,127
26682,note_on,1,0,0,,6,,,66,127
26786,note_off,104,0,0,,6,,,66,127
26787,note_on,1,0,0,,4,,,64,127
26891,note_off,104,0,0,,4,,,64,127
26892,note_on,1,0,0,,3,,,63,127
26996,note_off,104,0,0,,3,,,63,127
26997,note_on,1,0,0,,1,,,61,127
27101,note_off,104,0,0,,1,,,61,127
27101,note_off,0,0,0,,0,,,72,127
27102,note_on,1,0,0,,0,,,60,127
27102,note_on,0,0,0,,1,,,73,127
27206,note_off,104,0,0,,0,,,60,127
27207,note_on,1,0,0,,10,,,57,127
27311,note_off,104,0,0,,10,,,57,127
27311,note_off,0,0,0,,1,,,73,127
27312,note_on,1,0,0,,8,,,56,127
27312,note_on,0,0,0,,3,,,75,127
27416,note_off,104,0,0,,8,,,56,127
27417,note_on,1,0,0,,6,,,54,127
27521,note_off,104,0,0,,6,,,54,127
27521,note_off,0,0,0,,3,,,75,127
27522,note_on,1,0,0,,4,,,52,127
27522,note_on,0,0,0,,4,,,76,127
27626,note_off,104,0,0,,4,,,76,127
27626,note_off,0,0,0,,4,,,52,127
27627,note_on,1,0,0,,3,,,51,127
27627,note_on,0,0,0,,6,,,78,127
27731,note_off,104,0,0,,6,,,78,127
27731,note_off,0,0,0,,3,,,51,127
27732,note_on,1,0,0,,1,,,49,127
27732,note_on,0,0,0,,8,,,80,127
27732,note_on,0,0,0,,4,,,76,127
27836,note_off,104,0,0,,8,,,80,127
27837,note_on,1,0,0,,10,,,81,127
27941,note_off,104,0,0,,10,,,81,127
27941,note_off,0,0,0,,1,,,49,127
27942,note_on,1,0,0,,6,,,54,127
27942,note_on,0,0,0,,8,,,80,127
28038,note_off,96,0,0,,4,,,76,127
28046,note_off,8,0,0,,8,,,80,127
28047,note_on,1,0,0,,6,,,78,127
28151,note_off,104,0,0,,6,,,78,127
28151,note_off,0,0,0,,6,,,54,127
28152,note_on,1,0,0,,8,,,56,127
28152,note_on,0,0,0,,4,,,76,127
28256,note_off,104,0,0,,4,,,76,127
28257,note_on,1,0,0,,3,,,75,127
28361,note_off,104,0,0,,3,,,75,127
28361,note_off,0,0,0,,8,,,56,127
28362,note_on,1,0,0,,8,,,44,127
28362,note_on,0,0,0,,1,,,73,127
28466,note_off,104,0,0,,1,,,73,127
28467,note_on,1,0,0,,0,,,72,127
28571,note_off,104,0,0,,0,,,72,127
28571,note_off,0,0,0,,8,,,44,127
28572,note_on,1,0,0,,1,,,49,127
28572,note_on,0,0,0,,1,,,73,127
28780,note_off,208,0,0,,1,,,73,127
28780,note_off,0,0,0,,1,,,49,127
28781,note_on,1,0,0,,1,,,61,127
28781,note_on,0,0,0,,4,,,76,127
28781,note_on,0,0,0,,1,,,73,127
28885,note_off,104,0,0,,1,,,73,127
28885,note_off,0,0,0,,4,,,76,127
28886,note_on,1,0,0,,0,,,72,127
28886,note_on,0,0,0,,3,,,75,127
28990,note_off,104,0,0,,3,,,75,127
28990,note_off,0,0,0,,0,,,72,127
28991,note_on,1,0,0,,4,,,76,127
28991,note_on,0,0,0,,1,,,73,127
29095,note_off,104,0,0,,1,,,73,127
29095,note_off,0,0,0,,4,,,76,127
29096,note_on,1,0,0,,3,,,75,127
29096,note_on,0,0,0,,0,,,72,127
29200,note_off,104,0,0,,0,,,72,127
29200,note_off,0,0,0,,3,,,75,127
29200,note_off,0,0,0,,1,,,61,127
29201,note_on,1,0,0,,12,,,59,127
29201,note_on,0,0,0,,1,,,73,127
29201,note_on,0,0,0,,4,,,76,127
29305,note_off,104,0,0,,4,,,76,127
29305,note_off,0,0,0,,1,,,73,127
29306,note_on,1,0,0,,0,,,72,127
29306,note_on,0,0,0,,3,,,75,127
29410,note_off,104,0,0,,3,,,75,127
29410,note_off,0,0,0,,0,,,72,127
29410,note_off,0,0,0,,12,,,59,127
29411,note_on,1,0,0,,10,,,45,127
29411,note_on,0,0,0,,4,,,76,127
29411,note_on,0,0,0,,1,,,73,127
29568,note_off,157,0,0,,4,,,76,127
29619,note_off,51,0,0,,1,,,73,127
29619,note_off,0,0,0,,10,,,45,127
29620,note_on,1,0,0,,10,,,57,127
29620,note_on,0,0,0,,6,,,78,127
29620,note_on,0,0,0,,3,,,75,127
29724,note_off,104,0,0,,3,,,75,127
29724,note_off,0,0,0,,6,,,78,127
29725,note_on,1,0,0,,1,,,73,127
29725,note_on,0,0,0,,4,,,76,127
29829,note_off,104,0,0,,4,,,76,127
29829,note_off,0,0,0,,1,,,73,127
29830,note_on,1,0,0,,6,,,78,127
29830,note_on,0,0,0,,3,,,75,127
29934,note_off,104,0,0,,3,,,75,127
29934,note_off,0,0,0,,6,,,78,127
29935,note_on,1,0,0,,4,,,76,127
29935,note_on,0,0,0,,1,,,73,127
30039,note_off,104,0,0,,1,,,73,127
30039,note_off,0,0,0,,4,,,76,127
30039,note_off,0,0,0,,10,,,57,127
30040,note_on,1,0,0,,8,,,56,127
30040,note_on,0,0,0,,6,,,78,127
30040,note_on,0,0,0,,3,,,75,127
30144,note_off,104,0,0,,3,,,75,127
30144,note_off,0,0,0,,6,,,78,127
30145,note_on,1,0,0,,4,,,76,127
30145,note_on,0,0,0,,1,,,73,127
30249,note_off,104,0,0,,1,,,73,127
30249,note_off,0,0,0,,4,,,76,127
30249,note_off,0,0,0,,8,,,56,127
30250,note_on,1,0,0,,6,,,54,127
30250,note_on,0,0,0,,6,,,78,127
30250,note_on,0,0,0,,3,,,75,127
30407,note_off,157,0,0,,6,,,78,127
30458,note_off,51,0,0,,3,,,75,127
30458,note_off,0,0,0,,6,,,54,127
30459,note_on,1,0,0,,4,,,52,127
30459,note_on,0,0,0,,4,,,76,127
30459,note_on,0,0,0,,8,,,80,127
30563,note_off,104,0,0,,8,,,80,127
30563,note_off,0,0,0,,4,,,76,127
30564,note_on,1,0,0,,6,,,78,127
30564,note_on,0,0,0,,3,,,75,127
30668,note_off,104,0,0,,3,,,75,127
30668,note_off,0,0,0,,6,,,78,127
30669,note_on,1,0,0,,4,,,76,127
30669,note_on,0,0,0,,8,,,80,127
30773,note_off,104,0,0,,8,,,80,127
30773,note_off,0,0,0,,4,,,76,127
30774,note_on,1,0,0,,6,,,78,127
30774,note_on,0,0,0,,3,,,75,127
30878,note_off,104,0,0,,3,,,75,127
30878,note_off,0,0,0,,6,,,78,127
30878,note_off,0,0,0,,4,,,52,127
30879,note_on,1,0,0,,3,,,51,127
30879,note_on,0,0,0,,4,,,76,127
30879,note_on,0,0,0,,8,,,80,127
30983,note_off,104,0,0,,8,,,80,127
30983,note_off,0,0,0,,4,,,76,127
30984,note_on,1,0,0,,6,,,78,127
30984,note_on,0,0,0,,3,,,75,127
31088,note_off,104,0,0,,3,,,75,127
31088,note_off,0,0,0,,6,,,78,127
31088,note_off,0,0,0,,3,,,51,127
31089,note_on,1,0,0,,1,,,49,127
31089,note_on,0,0,0,,4,,,76,127
31089,note_on,0,0,0,,8,,,80,127
31193,note_off,104,0,0,,8,,,80,127
31194,note_on,1,0,0,,10,,,81,127
31297,note_off,103,0,0,,4,,,76,127
31298,note_off,1,0,0,,10,,,81,127
31298,note_off,0,0,0,,1,,,49,127
31299,note_on,1,0,0,,6,,,54,127
31299,note_on,0,0,0,,8,,,80,127
31403,note_off,104,0,0,,8,,,80,127
31404,note_on,1,0,0,,6,,,78,127
31508,note_off,104,0,0,,6,,,78,127
31508,note_off,0,0,0,,6,,,54,127
31509,note_on,1,0,0,,8,,,56,127
31509,note_on,0,0,0,,4,,,76,127
31613,note_off,104,0,0,,4,,,76,127
31614,note_on,1,0,0,,3,,,75,127
31718,note_off,104,0,0,,3,,,75,127
31718,note_off,0,0,0,,8,,,56,127
31719,note_on,1,0,0,,8,,,44,127
31719,note_on,0,0,0,,1,,,73,127
31823,note_off,104,0,0,,1,,,73,127
31824,note_on,1,0,0,,0,,,72,127
31928,note_off,104,0,0,,0,,,72,127
31928,note_off,0,0,0,,8,,,44,127
31929,note_on,1,0,0,,1,,,49,127
31929,note_on,0,0,0,,1,,,73,127
32137,note_off,208,0,0,,1,,,73,127
32137,note_off,0,0,0,,1,,,49,127
32138,note_on,1,0,0,,1,,,61,127
32138,note_on,0,0,0,,4,,,76,127
32138,note_on,0,0,0,,1,,,73,127
32242,note_off,104,0,0,,1,,,73,127
32242,note_off,0,0,0,,4,,,76,127
32243,note_on,1,0,0,,0,,,72,127
32243,note_on,0,0,0,,3,,,75,127
32347,note_off,104,0,0,,3,,,75,127
32347,note_off,0,0,0,,0,,,72,127
32348,note_on,1,0,0,,4,,,76,127
32348,note_on,0,0,0,,1,,,73,127
32452,note_off,104,0,0,,1,,,73,127
32452,note_off,0,0,0,,4,,,76,127
32453,note_on,1,0,0,,3,,,75,127
32453,note_on,0,0,0,,0,,,72,127
32557,note_off,104,0,0,,0,,,72,127
32557,note_off,0,0,0,,3,,,75,127
32557,note_off,0,0,0,,1,,,61,127
32558,note_on,1,0,0,,12,,,59,127
32558,note_on,0,0,0,,1,,,73,127
32558,note_on,0,0,0,,4,,,76,127
32662,note_off,104,0,0,,4,,,76,127
32662,note_off,0,0,0,,1,,,73,127
32663,note_on,1,0,0,,3,,,75,127
32663,note_on,0,0,0,,0,,,72,127
32767,note_off,104,0,0,,0,,,72,127
32767,note_off,0,0,0,,3,,,75,127
32767,note_off,0,0,0,,12,,,59,127
32768,note_on,1,0,0,,10,,,45,127
32768,note_on,0,0,0,,1,,,73,127
32768,note_on,0,0,0,,4,,,76,127
32925,note_off,157,0,0,,1,,,73,127
32976,note_off,51,0,0,,4,,,76,127
32976,note_off,0,0,0,,10,,,45,127
32977,note_on,1,0,0,,10,,,57,127
32977,note_on,0,0,0,,3,,,75,127
32977,note_on,0,0,0,,6,,,78,127
33081,note_off,104,0,0,,6,,,78,127
33081,note_off,0,0,0,,3,,,75,127
33082,note_on,1,0,0,,1,,,73,127
33082,note_on,0,0,0,,4,,,76,127
33186,note_off,104,0,0,,4,,,76,127
33186,note_off,0,0,0,,1,,,73,127
33187,note_on,1,0,0,,3,,,75,127
33187,note_on,0,0,0,,6,,,78,127
33291,note_off,104,0,0,,6,,,78,127
33291,note_off,0,0,0,,3,,,75,127
33292,note_on,1,0,0,,4,,,76,127
33292,note_on,0,0,0,,1,,,73,127
33396,note_off,104,0,0,,1,,,73,127
33396,note_off,0,0,0,,4,,,76,127
33396,note_off,0,0,0,,10,,,57,127
33397,note_on,1,0,0,,8,,,56,127
33397,note_on,0,0,0,,6,,,78,127
33397,note_on,0,0,0,,3,,,75,127
33501,note_off,104,0,0,,3,,,75,127
33501,note_off,0,0,0,,6,,,78,127
33502,note_on,1,0,0,,1,,,73,127
33502,note_on,0,0,0,,4,,,76,127
33606,note_off,104,0,0,,4,,,76,127
33606,note_off,0,0,0,,1,,,73,127
33606,note_off,0,0,0,,8,,,56,127
33607,note_on,1,0,0,,6,,,54,127
33607,note_on,0,0,0,,6,,,78,127
33607,note_on,0,0,0,,3,,,75,127
33764,note_off,157,0,0,,3,,,75,127
33815,note_off,51,0,0,,6,,,78,127
33815,note_off,0,0,0,,6,,,54,127
33816,note_on,1,0,0,,4,,,52,127
33816,note_on,0,0,0,,4,,,76,127
33816,note_on,0,0,0,,8,,,80,127
33920,note_off,104,0,0,,8,,,80,127
33920,note_off,0,0,0,,4,,,76,127
33921,note_on,1,0,0,,3,,,75,127
33921,note_on,0,0,0,,6,,,78,127
34025,note_off,104,0,0,,6,,,78,127
34025,note_off,0,0,0,,3,,,75,127
34026,note_on,1,0,0,,4,,,76,127
34026,note_on,0,0,0,,8,,,80,127
34130,note_off,104,0,0,,8,,,80,127
34130,note_off,0,0,0,,4,,,76,127
34131,note_on,1,0,0,,3,,,75,127
34131,note_on,0,0,0,,6,,,78,127
34235,note_off,104,0,0,,6,,,78,127
34235,note_off,0,0,0,,3,,,75,127
34235,note_off,0,0,0,,4,,,52,127
34236,note_on,1,0,0,,3,,,51,127
34236,note_on,0,0,0,,4,,,76,127
34236,note_on,0,0,0,,8,,,80,127
34340,note_off,104,0,0,,8,,,80,127
34340,note_off,0,0,0,,4,,,76,127
34341,note_on,1,0,0,,6,,,78,127
34341,note_on,0,0,0,,3,,,75,127
34445,note_off,104,0,0,,3,,,75,127
34445,note_off,0,0,0,,6,,,78,127
34445,note_off,0,0,0,,3,,,51,127
34446,note_on,1,0,0,,1,,,49,127
34446,note_on,0,0,0,,8,,,80,127
34446,note_on,0,0,0,,4,,,76,127
34550,note_off,104,0,0,,8,,,80,127
34551,note_on,1,0,0,,10,,,81,127
34655,note_off,104,0,0,,10,,,81,127
34655,note_off,0,0,0,,1,,,49,127
34656,note_on,1,0,0,,6,,,54,127
34656,note_on,0,0,0,,8,,,80,127
34760,note_off,104,0,0,,8,,,80,127
34761,note_off,1,0,0,,4,,,76,127
34761,note_on,0,0,0,,6,,,78,127
34865,note_off,104,0,0,,6,,,78,127
34865,note_off,0,0,0,,6,,,54,127
34866,note_on,1,0,0,,8,,,56,127
34866,note_on,0,0,0,,4,,,76,127
34970,note_off,104,0,0,,4,,,76,127
34971,note_on,1,0,0,,3,,,75,127
35075,note_off,104,0,0,,3,,,75,127
35075,note_off,0,0,0,,8,,,56,127
35076,note_on,1,0,0,,8,,,44,127
35076,note_on,0,0,0,,1,,,73,127
35180,note_off,104,0,0,,1,,,73,127
35181,note_on,1,0,0,,0,,,72,127
35285,note_off,104,0,0,,0,,,72,127
35285,note_off,0,0,0,,8,,,44,127
35286,note_on,1,0,0,,1,,,49,127
35286,note_on,0,0,0,,1,,,73,127
35390,note_off,104,0,0,,1,,,73,127
35391,note_on,1,0,0,,1,,,85,127
35495,note_off,104,0,0,,1,,,85,127
35496,note_on,1,0,0,,12,,,71,127
35600,note_off,104,0,0,,12,,,71,127
35601,note_off,1,0,0,,1,,,49,127
35601,note_on,0,0,0,,12,,,83,127
35705,note_off,104,0,0,,12,,,83,127
35706,note_on,1,0,0,,6,,,66,127
35706,note_on,0,0,0,,10,,,69,127
35810,note_off,104,0,0,,10,,,69,127
35811,note_on,1,0,0,,10,,,81,127
35915,note_off,104,0,0,,10,,,81,127
35915,note_off,0,0,0,,6,,,66,127
35916,note_on,1,0,0,,4,,,64,127
35916,note_on,0,0,0,,8,,,68,127
36020,note_off,104,0,0,,8,,,68,127
36021,note_on,1,0,0,,8,,,80,127
36125,note_off,104,0,0,,8,,,80,127
36125,note_off,0,0,0,,4,,,64,127
36126,note_on,1,0,0,,3,,,63,127
36126,note_on,0,0,0,,6,,,66,127
36230,note_off,104,0,0,,6,,,66,127
36231,note_on,1,0,0,,6,,,78,127
36335,note_off,104,0,0,,6,,,78,127
36335,note_off,0,0,0,,3,,,63,127
36336,note_on,1,0,0,,1,,,61,127
36336,note_on,0,0,0,,4,,,76,127
36440,note_off,104,0,0,,4,,,76,127
36441,note_on,1,0,0,,3,,,75,127
36545,note_off,104,0,0,,3,,,75,127
36545,note_off,0,0,0,,1,,,61,127
36546,note_on,1,0,0,,8,,,56,127
36546,note_on,0,0,0,,1,,,73,127
36650,note_off,104,0,0,,1,,,73,127
36651,note_on,1,0,0,,0,,,72,127
36755,note_off,104,0,0,,0,,,72,127
36755,note_off,0,0,0,,8,,,56,127
36756,note_on,1,0,0,,8,,,44,127
36756,note_on,0,0,0,,1,,,73,127
36860,note_off,104,0,0,,1,,,73,127
36861,note_on,1,0,0,,3,,,75,127
36965,note_off,104,0,0,,3,,,75,127
36965,note_off,0,0,0,,8,,,44,127
36966,note_on,1,0,0,,1,,,61,127
36966,note_on,0,0,0,,4,,,76,127
37070,note_off,104,0,0,,1,,,61,127
37071,note_on,1,0,0,,1,,,73,127
37175,note_off,104,0,0,,1,,,73,127
37175,note_off,0,0,0,,4,,,76,127
37176,note_on,1,0,0,,12,,,59,127
37176,note_on,0,0,0,,3,,,75,127
37280,note_off,104,0,0,,12,,,59,127
37281,note_on,1,0,0,,12,,,71,127
37385,note_off,104,0,0,,12,,,71,127
37385,note_off,0,0,0,,3,,,75,127
37386,note_on,1,0,0,,10,,,57,127
37386,note_on,0,0,0,,1,,,73,127
37490,note_off,104,0,0,,10,,,57,127
37491,note_on,1,0,0,,10,,,69,127
37595,note_off,104,0,0,,10,,,69,127
37595,note_off,0,0,0,,1,,,73,127
37596,note_on,1,0,0,,8,,,56,127
37596,note_on,0,0,0,,12,,,71,127
37700,note_off,104,0,0,,8,,,56,127
37701,note_on,1,0,0,,8,,,68,127
37805,note_off,104,0,0,,8,,,68,127
37805,note_off,0,0,0,,12,,,71,127
37806,note_on,1,0,0,,6,,,42,127
37806,note_on,0,0,0,,10,,,69,127
38014,note_off,208,0,0,,10,,,69,127
38014,note_off,0,0,0,,6,,,42,127
38015,note_on,1,0,0,,6,,,54,127
38015,note_on,0,0,0,,8,,,68,127
38119,note_off,104,0,0,,8,,,68,127
38120,note_on,1,0,0,,6,,,66,127
38224,note_off,104,0,0,,6,,,66,127
38224,note_off,0,0,0,,6,,,54,127
38225,note_on,1,0,0,,8,,,56,127
38225,note_on,0,0,0,,4,,,64,127
38329,note_off,104,0,0,,4,,,64,127
38330,note_on,1,0,0,,3,,,63,127
38434,note_off,104,0,0,,3,,,63,127
38434,note_off,0,0,0,,8,,,56,127
38435,note_on,1,0,0,,8,,,44,127
38435,note_on,0,0,0,,1,,,61,127
38539,note_off,104,0,0,,1,,,61,127
38540,note_on,1,0,0,,0,,,60,127
38644,note_off,104,0,0,,0,,,60,127
38644,note_off,0,0,0,,8,,,44,127
38645,note_on,1,0,0,,1,,,37,127
38645,note_on,0,0,0,,1,,,61,127
39272,note_off,627,0,0,,1,,,61,127
39481,note_off,209,0,0,,1,,,37,127
39482,note_on,1,0,0,,1,,,37,127
39482,note_on,0,0,0,,1,,,61,127
39691,note_on,209,0,0,,1,,,73,127
39896,note_off,205,0,0,,1,,,61,127
39900,note_on,4,0,0,,3,,,63,127
40105,note_off,205,0,0,,1,,,73,127
40109,note_on,4,0,0,,12,,,71,127
40213,note_off,104,0,0,,12,,,71,127
40214,note_on,1,0,0,,10,,,69,127
40314,note_off,100,0,0,,3,,,63,127
40317,note_off,3,0,0,,10,,,69,127
40317,note_off,0,0,0,,1,,,37,127
40318,note_on,1,0,0,,1,,,37,127
40318,note_on,0,0,0,,5,,,65,127
40423,note_on,105,0,0,,8,,,68,127
40526,note_off,103,0,0,,5,,,65,127
40527,note_off,1,0,0,,8,,,68,127
40528,note_on,1,0,0,,6,,,66,127
40633,note_on,105,0,0,,10,,,69,127
40685,note_off,52,0,0,,6,,,66,127
40736,note_off,51,0,0,,10,,,69,127
40737,note_on,1,0,0,,6,,,66,127
40737,note_on,0,0,0,,8,,,68,127
40945,note_off,208,0,0,,8,,,68,127
40945,note_off,0,0,0,,6,,,66,127
40946,note_on,1,0,0,,5,,,65,127
40946,note_on,0,0,0,,12,,,71,127
41154,note_off,208,0,0,,12,,,71,127
41154,note_off,0,0,0,,5,,,65,127
41154,note_off,0,0,0,,1,,,37,127
41155,note_on,1,0,0,,6,,,42,127
41155,note_on,0,0,0,,6,,,66,127
41155,note_on,0,0,0,,11,,,70,127
41363,note_off,208,0,0,,11,,,70,127
41363,note_off,0,0,0,,6,,,66,127
41364,note_on,1,0,0,,6,,,78,127
41364,note_on,0,0,0,,6,,,66,127
41572,note_off,208,0,0,,6,,,66,127
41573,note_on,1,0,0,,8,,,68,127
41778,note_off,205,0,0,,6,,,78,127
41782,note_on,4,0,0,,4,,,76,127
41886,note_off,104,0,0,,4,,,76,127
41887,note_on,1,0,0,,3,,,75,127
41987,note_off,100,0,0,,8,,,68,127
41990,note_off,3,0,0,,3,,,75,127
41990,note_off,0,0,0,,6,,,42,127
41991,note_on,1,0,0,,6,,,42,127
41991,note_on,0,0,0,,11,,,70,127
42096,note_on,105,0,0,,1,,,73,127
42199,note_off,103,0,0,,11,,,70,127
42200,note_off,1,0,0,,1,,,73,127
42201,note_on,1,0,0,,12,,,71,127
42306,note_on,105,0,0,,3,,,75,127
42376,note_off,70,0,0,,12,,,71,127
42410,note_off,34,0,0,,3,,,75,127
42411,note_on,1,0,0,,12,,,71,127
42411,note_on,0,0,0,,1,,,73,127
42619,note_off,208,0,0,,1,,,73,127
42619,note_off,0,0,0,,12,,,71,127
42620,note_on,1,0,0,,11,,,70,127
42620,note_on,0,0,0,,4,,,76,127
42828,note_off,208,0,0,,4,,,76,127
42828,note_off,0,0,0,,11,,,70,127
42828,note_off,0,0,0,,6,,,42,127
42829,note_on,1,0,0,,12,,,47,127
42829,note_on,0,0,0,,3,,,75,127
42829,note_on,0,0,0,,12,,,71,127
43037,note_off,208,0,0,,12,,,71,127
43037,note_off,0,0,0,,3,,,75,127
43038,note_on,1,0,0,,12,,,59,127
43038,note_on,0,0,0,,3,,,63,127
43038,note_on,0,0,0,,12,,,71,127
43246,note_off,208,0,0,,12,,,71,127
43246,note_off,0,0,0,,3,,,63,127
43247,note_on,1,0,0,,1,,,73,127
43247,note_on,0,0,0,,4,,,64,127
43455,note_off,208,0,0,,12,,,59,127
43456,note_on,1,0,0,,10,,,57,127
43560,note_off,104,0,0,,10,,,57,127
43561,note_on,1,0,0,,8,,,56,127
43665,note_off,104,0,0,,8,,,56,127
43665,note_off,0,0,0,,4,,,64,127
43665,note_off,0,0,0,,1,,,73,127
43665,note_off,0,0,0,,12,,,47,127
43666,note_on,1,0,0,,12,,,47,127
43666,note_on,0,0,0,,6,,,54,127
43666,note_on,0,0,0,,6,,,66,127
43666,note_on,0,0,0,,3,,,75,127
43770,note_off,104,0,0,,6,,,54,127
43771,note_on,1,0,0,,10,,,57,127
43875,note_off,104,0,0,,10,,,57,127
43875,note_off,0,0,0,,3,,,75,127
43875,note_off,0,0,0,,6,,,66,127
43876,note_on,1,0,0,,8,,,56,127
43876,note_on,0,0,0,,8,,,68,127
43876,note_on,0,0,0,,4,,,76,127
43980,note_off,104,0,0,,8,,,56,127
43981,note_on,1,0,0,,4,,,52,127
44085,note_off,104,0,0,,4,,,52,127
44085,note_off,0,0,0,,8,,,68,127
44086,note_on,1,0,0,,6,,,54,127
44086,note_on,0,0,0,,10,,,69,127
44291,note_off,205,0,0,,4,,,76,127
44294,note_off,3,0,0,,6,,,54,127
44295,note_on,1,0,0,,10,,,57,127
44295,note_on,0,0,0,,3,,,75,127
44503,note_off,208,0,0,,3,,,75,127
44503,note_off,0,0,0,,10,,,57,127
44503,note_off,0,0,0,,12,,,47,127
44504,note_on,1,0,0,,4,,,52,127
44504,note_on,0,0,0,,4,,,76,127
44712,note_off,208,0,0,,4,,,76,127
44712,note_off,0,0,0,,10,,,69,127
44713,note_on,1,0,0,,4,,,64,127
44713,note_on,0,0,0,,4,,,76,127
44713,note_on,0,0,0,,8,,,68,127
44921,note_off,208,0,0,,8,,,68,127
44921,note_off,0,0,0,,4,,,76,127
44922,note_on,1,0,0,,6,,,78,127
44922,note_on,0,0,0,,10,,,69,127
45130,note_off,208,0,0,,4,,,64,127
45131,note_on,1,0,0,,2,,,62,127
45235,note_off,104,0,0,,2,,,62,127
45236,note_on,1,0,0,,1,,,61,127
45340,note_off,104,0,0,,1,,,61,127
45340,note_off,0,0,0,,10,,,69,127
45340,note_off,0,0,0,,6,,,78,127
45340,note_off,0,0,0,,4,,,52,127
45341,note_on,1,0,0,,12,,,59,127
45341,note_on,0,0,0,,4,,,52,127
45341,note_on,0,0,0,,8,,,80,127
45341,note_on,0,0,0,,12,,,71,127
45445,note_off,104,0,0,,12,,,59,127
45446,note_on,1,0,0,,2,,,62,127
45550,note_off,104,0,0,,2,,,62,127
45550,note_off,0,0,0,,12,,,71,127
45550,note_off,0,0,0,,8,,,80,127
45551,note_on,1,0,0,,1,,,61,127
45551,note_on,0,0,0,,10,,,81,127
45551,note_on,0,0,0,,1,,,73,127
45655,note_off,104,0,0,,1,,,61,127
45656,note_on,1,0,0,,10,,,57,127
45760,note_off,104,0,0,,10,,,57,127
45760,note_off,0,0,0,,1,,,73,127
45761,note_on,1,0,0,,12,,,59,127
45761,note_on,0,0,0,,2,,,74,127
45966,note_off,205,0,0,,10,,,81,127
45969,note_off,3,0,0,,12,,,59,127
45970,note_on,1,0,0,,2,,,62,127
45970,note_on,0,0,0,,8,,,80,127
46175,note_off,205,0,0,,2,,,74,127
46178,note_off,3,0,0,,2,,,62,127
46178,note_off,0,0,0,,4,,,52,127
46179,note_on,1,0,0,,10,,,57,127
46179,note_on,0,0,0,,1,,,73,127
46384,note_off,205,0,0,,8,,,80,127
46387,note_off,3,0,0,,10,,,57,127
46388,note_on,1,0,0,,10,,,69,127
46388,note_on,0,0,0,,6,,,78,127
46593,note_off,205,0,0,,1,,,73,127
46596,note_off,3,0,0,,10,,,69,127
46597,note_on,1,0,0,,8,,,68,127
46597,note_on,0,0,0,,12,,,71,127
46802,note_off,205,0,0,,6,,,78,127
46805,note_off,3,0,0,,8,,,68,127
46806,note_on,1,0,0,,1,,,61,127
46806,note_on,0,0,0,,5,,,77,127
47011,note_off,205,0,0,,12,,,71,127
47014,note_off,3,0,0,,5,,,77,127
47014,note_off,0,0,0,,1,,,61,127
47015,note_on,1,0,0,,6,,,66,127
47015,note_on,0,0,0,,6,,,78,127
47015,note_on,0,0,0,,10,,,69,127
47119,note_off,104,0,0,,6,,,78,127
47120,note_on,1,0,0,,4,,,76,127
47223,note_off,103,0,0,,10,,,69,127
47224,note_off,1,0,0,,4,,,76,127
47224,note_off,0,0,0,,6,,,66,127
47225,note_on,1,0,0,,6,,,54,127
47225,note_on,0,0,0,,2,,,74,127
47329,note_off,104,0,0,,2,,,74,127
47330,note_on,1,0,0,,1,,,73,127
47434,note_off,104,0,0,,1,,,73,127
47434,note_off,0,0,0,,6,,,54,127
47435,note_on,1,0,0,,12,,,59,127
47435,note_on,0,0,0,,12,,,71,127
47539,note_off,104,0,0,,12,,,71,127
47540,note_on,1,0,0,,10,,,69,127
47644,note_off,104,0,0,,10,,,69,127
47644,note_off,0,0,0,,12,,,59,127
47645,note_on,1,0,0,,12,,,47,127
47645,note_on,0,0,0,,8,,,68,127
47749,note_off,104,0,0,,8,,,68,127
47750,note_on,1,0,0,,6,,,66,127
47854,note_off,104,0,0,,6,,,66,127
47854,note_off,0,0,0,,12,,,47,127
47855,note_on,1,0,0,,1,,,49,127
47855,note_on,0,0,0,,5,,,65,127
48012,note_off,157,0,0,,5,,,65,127
48063,note_off,51,0,0,,1,,,49,127
48064,note_on,1,0,0,,1,,,61,127
48064,note_on,0,0,0,,1,,,73,127
48168,note_off,104,0,0,,1,,,61,127
48169,note_on,1,0,0,,12,,,59,127
48273,note_off,104,0,0,,12,,,59,127
48274,note_on,1,0,0,,10,,,57,127
48378,note_off,104,0,0,,10,,,57,127
48378,note_off,0,0,0,,1,,,73,127
48379,note_on,1,0,0,,8,,,56,127
48379,note_on,0,0,0,,12,,,71,127
48483,note_off,104,0,0,,12,,,71,127
48483,note_off,0,0,0,,8,,,56,127
48484,note_on,1,0,0,,6,,,54,127
48484,note_on,0,0,0,,10,,,69,127
48588,note_off,104,0,0,,10,,,69,127
48588,note_off,0,0,0,,6,,,54,127
48589,note_on,1,0,0,,4,,,52,127
48589,note_on,0,0,0,,8,,,68,127
48693,note_off,104,0,0,,8,,,68,127
48693,note_off,0,0,0,,4,,,52,127
48694,note_on,1,0,0,,2,,,50,127
48694,note_on,0,0,0,,6,,,66,127
48798,note_off,104,0,0,,2,,,50,127
48799,note_on,1,0,0,,1,,,49,127
48903,note_off,104,0,0,,1,,,49,127
48903,note_off,0,0,0,,6,,,66,127
48904,note_on,1,0,0,,12,,,47,127
48904,note_on,0,0,0,,12,,,71,127
49008,note_off,104,0,0,,12,,,47,127
49009,note_on,1,0,0,,10,,,45,127
49113,note_off,104,0,0,,10,,,45,127
49114,note_on,1,0,0,,8,,,44,127
49218,note_off,104,0,0,,8,,,44,127
49218,note_off,0,0,0,,12,,,71,127
49219,note_on,1,0,0,,6,,,42,127
49219,note_on,0,0,0,,10,,,69,127
49323,note_off,104,0,0,,10,,,69,127
49323,note_off,0,0,0,,6,,,42,127
49324,note_on,1,0,0,,5,,,41,127
49324,note_on,0,0,0,,8,,,68,127
49428,note_off,104,0,0,,8,,,68,127
49428,note_off,0,0,0,,5,,,41,127
49429,note_on,1,0,0,,3,,,39,127
49429,note_on,0,0,0,,6,,,66,127
49533,note_off,104,0,0,,6,,,66,127
49533,note_off,0,0,0,,3,,,39,127
49534,note_on,1,0,0,,1,,,37,127
49534,note_on,0,0,0,,8,,,68,127
49742,note_off,208,0,0,,8,,,68,127
49742,note_off,0,0,0,,1,,,37,127
49743,note_on,1,0,0,,10,,,69,127
49743,note_on,0,0,0,,1,,,73,127
49847,note_off,104,0,0,,1,,,73,127
49847,note_off,0,0,0,,10,,,69,127
49848,note_on,1,0,0,,12,,,71,127
49848,note_on,0,0,0,,2,,,74,127
49952,note_off,104,0,0,,2,,,74,127
49952,note_off,0,0,0,,12,,,71,127
49953,note_on,1,0,0,,10,,,69,127
49953,note_on,0,0,0,,1,,,73,127
50057,note_off,104,0,0,,1,,,73,127
50057,note_off,0,0,0,,10,,,69,127
50058,note_on,1,0,0,,8,,,68,127
50058,note_on,0,0,0,,12,,,71,127
50162,note_off,104,0,0,,12,,,71,127
50162,note_off,0,0,0,,8,,,68,127
50163,note_on,1,0,0,,6,,,66,127
50163,note_on,0,0,0,,10,,,69,127
50267,note_off,104,0,0,,10,,,69,127
50267,note_off,0,0,0,,6,,,66,127
50268,note_on,1,0,0,,5,,,65,127
50268,note_on,0,0,0,,8,,,68,127
50372,note_off,104,0,0,,8,,,68,127
50372,note_off,0,0,0,,5,,,65,127
50373,note_on,1,0,0,,6,,,66,127
50373,note_on,0,0,0,,10,,,69,127
50581,note_off,208,0,0,,10,,,69,127
50581,note_off,0,0,0,,6,,,66,127
50582,note_on,1,0,0,,6,,,42,127
50582,note_on,0,0,0,,1,,,85,127
50790,note_off,208,0,0,,1,,,85,127
50790,note_off,0,0,0,,6,,,42,127
50791,note_on,1,0,0,,10,,,69,127
50791,note_on,0,0,0,,1,,,73,127
50895,note_off,104,0,0,,1,,,73,127
50895,note_off,0,0,0,,10,,,69,127
50896,note_on,1,0,0,,8,,,68,127
50896,note_on,0,0,0,,12,,,71,127
51000,note_off,104,0,0,,12,,,71,127
51000,note_off,0,0,0,,8,,,68,127
51001,note_on,1,0,0,,6,,,66,127
51001,note_on,0,0,0,,10,,,69,127
51105,note_off,104,0,0,,10,,,69,127
51105,note_off,0,0,0,,6,,,66,127
51106,note_on,1,0,0,,5,,,65,127
51106,note_on,0,0,0,,8,,,68,127
51210,note_off,104,0,0,,8,,,68,127
51210,note_off,0,0,0,,5,,,65,127
51211,note_on,1,0,0,,6,,,66,127
51211,note_on,0,0,0,,10,,,69,127
51419,note_off,208,0,0,,10,,,69,127
51419,note_off,0,0,0,,6,,,66,127
51420,note_on,1,0,0,,6,,,42,127
51420,note_on,0,0,0,,1,,,85,127
51628,note_off,208,0,0,,1,,,85,127
51628,note_off,0,0,0,,6,,,42,127
51629,note_on,1,0,0,,10,,,69,127
51629,note_on,0,0,0,,1,,,73,127
51733,note_off,104,0,0,,1,,,73,127
51733,note_off,0,0,0,,10,,,69,127
51734,note_on,1,0,0,,8,,,68,127
51734,note_on,0,0,0,,12,,,71,127
51838,note_off,104,0,0,,12,,,71,127
51838,note_off,0,0,0,,8,,,68,127
51839,note_on,1,0,0,,6,,,66,127
51839,note_on,0,0,0,,10,,,69,127
51943,note_off,104,0,0,,10,,,69,127
51943,note_off,0,0,0,,6,,,66,127
51944,note_on,1,0,0,,5,,,65,127
51944,note_on,0,0,0,,8,,,68,127
52048,note_off,104,0,0,,8,,,68,127
52048,note_off,0,0,0,,5,,,65,127
52049,note_on,1,0,0,,6,,,66,127
52049,note_on,0,0,0,,10,,,69,127
52257,note_off,208,0,0,,10,,,69,127
52257,note_off,0,0,0,,6,,,66,127
52258,note_on,1,0,0,,6,,,42,127
52258,note_on,0,0,0,,1,,,85,127
52466,note_off,208,0,0,,1,,,85,127
52466,note_off,0,0,0,,6,,,42,127
52467,note_on,1,0,0,,2,,,74,127
52467,note_on,0,0,0,,5,,,77,127
52571,note_off,104,0,0,,2,,,74,127
52572,note_on,1,0,0,,1,,,73,127
52676,note_off,104,0,0,,1,,,73,127
52677,note_on,1,0,0,,12,,,71,127
52781,note_off,104,0,0,,12,,,71,127
52782,note_on,1,0,0,,10,,,69,127
52886,note_off,104,0,0,,10,,,69,127
52887,note_on,1,0,0,,8,,,68,127
52991,note_off,104,0,0,,8,,,68,127
52992,note_on,1,0,0,,6,,,66,127
53096,note_off,104,0,0,,6,,,66,127
53096,note_off,0,0,0,,5,,,77,127
53097,note_on,1,0,0,,5,,,65,127
53097,note_on,0,0,0,,6,,,78,127
53201,note_off,104,0,0,,5,,,65,127
53202,note_on,1,0,0,,2,,,62,127
53306,note_off,104,0,0,,2,,,62,127
53306,note_off,0,0,0,,6,,,78,127
53307,note_on,1,0,0,,1,,,61,127
53307,note_on,0,0,0,,8,,,80,127
53411,note_off,104,0,0,,1,,,61,127
53412,note_on,1,0,0,,12,,,59,127
53516,note_off,104,0,0,,12,,,59,127
53516,note_off,0,0,0,,8,,,80,127
53517,note_on,1,0,0,,10,,,57,127
53517,note_on,0,0,0,,10,,,81,127
53621,note_off,104,0,0,,10,,,81,127
53621,note_off,0,0,0,,10,,,57,127
53622,note_on,1,0,0,,8,,,56,127
53622,note_on,0,0,0,,12,,,83,127
53726,note_off,104,0,0,,12,,,83,127
53726,note_off,0,0,0,,8,,,56,127
53727,note_on,1,0,0,,6,,,54,127
53727,note_on,0,0,0,,10,,,81,127
53832,note_on,105,0,0,,2,,,86,127
53936,note_off,104,0,0,,2,,,86,127
53936,note_off,0,0,0,,6,,,54,127
53937,note_on,1,0,0,,12,,,59,127
53937,note_on,0,0,0,,1,,,85,127
54041,note_off,104,0,0,,1,,,85,127
54042,note_off,1,0,0,,10,,,81,127
54042,note_on,0,0,0,,12,,,83,127
54146,note_off,104,0,0,,12,,,83,127
54146,note_off,0,0,0,,12,,,59,127
54147,note_on,1,0,0,,1,,,61,127
54147,note_on,0,0,0,,10,,,81,127
54251,note_off,104,0,0,,10,,,81,127
54252,note_on,1,0,0,,8,,,80,127
54356,note_off,104,0,0,,8,,,80,127
54356,note_off,0,0,0,,1,,,61,127
54357,note_on,1,0,0,,1,,,49,127
54357,note_on,0,0,0,,6,,,78,127
54461,note_off,104,0,0,,6,,,78,127
54462,note_on,1,0,0,,5,,,77,127
54566,note_off,104,0,0,,5,,,77,127
54566,note_off,0,0,0,,1,,,49,127
54567,note_on,1,0,0,,6,,,54,127
54567,note_on,0,0,0,,6,,,78,127
54775,note_off,208,0,0,,6,,,78,127
54775,note_off,0,0,0,,6,,,54,127
54776,note_on,1,0,0,,6,,,42,127
54776,note_on,0,0,0,,1,,,85,127
54984,note_off,208,0,0,,1,,,85,127
54984,note_off,0,0,0,,6,,,42,127
54985,note_on,1,0,0,,10,,,69,127
54985,note_on,0,0,0,,1,,,73,127
55089,note_off,104,0,0,,1,,,73,127
55089,note_off,0,0,0,,10,,,69,127
55090,note_on,1,0,0,,8,,,68,127
55090,note_on,0,0,0,,12,,,71,127
55194,note_off,104,0,0,,12,,,71,127
55194,note_off,0,0,0,,8,,,68,127
55195,note_on,1,0,0,,6,,,66,127
55195,note_on,0,0,0,,10,,,69,127
55299,note_off,104,0,0,,10,,,69,127
55299,note_off,0,0,0,,6,,,66,127
55300,note_on,1,0,0,,5,,,65,127
55300,note_on,0,0,0,,8,,,68,127
55404,note_off,104,0,0,,8,,,68,127
55404,note_off,0,0,0,,5,,,65,127
55405,note_on,1,0,0,,6,,,66,127
55405,note_on,0,0,0,,10,,,69,127
55613,note_off,208,0,0,,10,,,69,127
55613,note_off,0,0,0,,6,,,66,127
55614,note_on,1,0,0,,6,,,42,127
55614,note_on,0,0,0,,1,,,85,127
55822,note_off,208,0,0,,1,,,85,127
55822,note_off,0,0,0,,6,,,42,127
55823,note_on,1,0,0,,10,,,69,127
55823,note_on,0,0,0,,1,,,73,127
55927,note_off,104,0,0,,1,,,73,127
55927,note_off,0,0,0,,10,,,69,127
55928,note_on,1,0,0,,8,,,68,127
55928,note_on,0,0,0,,12,,,71,127
56032,note_off,104,0,0,,12,,,71,127
56032,note_off,0,0,0,,8,,,68,127
56033,note_on,1,0,0,,6,,,66,127
56033,note_on,0,0,0,,10,,,69,127
56137,note_off,104,0,0,,10,,,69,127
56137,note_off,0,0,0,,6,,,66,127
56138,note_on,1,0,0,,5,,,65,127
56138,note_on,0,0,0,,8,,,68,127
56242,note_off,104,0,0,,8,,,68,127
56242,note_off,0,0,0,,5,,,65,127
56243,note_on,1,0,0,,6,,,66,127
56243,note_on,0,0,0,,10,,,69,127
56451,note_off,208,0,0,,10,,,69,127
56451,note_off,0,0,0,,6,,,66,127
56452,note_on,1,0,0,,6,,,42,127
56452,note_on,0,0,0,,1,,,85,127
56660,note_off,208,0,0,,1,,,85,127
56660,note_off,0,0,0,,6,,,42,127
56661,note_on,1,0,0,,2,,,74,127
56661,note_on,0,0,0,,5,,,77,127
56765,note_off,104,0,0,,2,,,74,127
56766,note_on,1,0,0,,1,,,73,127
56870,note_off,104,0,0,,1,,,73,127
56871,note_on,1,0,0,,12,,,71,127
56975,note_off,104,0,0,,12,,,71,127
56976,note_on,1,0,0,,10,,,69,127
57080,note_off,104,0,0,,10,,,69,127
57081,note_on,1,0,0,,8,,,68,127
57185,note_off,104,0,0,,8,,,68,127
57186,note_on,1,0,0,,6,,,66,127
57290,note_off,104,0,0,,6,,,66,127
57290,note_off,0,0,0,,5,,,77,127
57291,note_on,1,0,0,,5,,,65,127
57291,note_on,0,0,0,,6,,,78,127
57395,note_off,104,0,0,,5,,,65,127
57396,note_on,1,0,0,,2,,,62,127
57500,note_off,104,0,0,,2,,,62,127
57500,note_off,0,0,0,,6,,,78,127
57501,note_on,1,0,0,,1,,,61,127
57501,note_on,0,0,0,,8,,,80,127
57605,note_off,104,0,0,,1,,,61,127
57606,note_on,1,0,0,,12,,,59,127
57710,note_off,104,0,0,,12,,,59,127
57710,note_off,0,0,0,,8,,,80,127
57711,note_on,1,0,0,,10,,,57,127
57711,note_on,0,0,0,,10,,,81,127
57815,note_off,104,0,0,,10,,,81,127
57815,note_off,0,0,0,,10,,,57,127
57816,note_on,1,0,0,,8,,,56,127
57816,note_on,0,0,0,,12,,,83,127
57920,note_off,104,0,0,,12,,,83,127
57920,note_off,0,0,0,,8,,,56,127
57921,note_on,1,0,0,,6,,,54,127
57921,note_on,0,0,0,,10,,,81,127
58026,note_on,105,0,0,,2,,,86,127
58130,note_off,104,0,0,,2,,,86,127
58130,note_off,0,0,0,,6,,,54,127
58131,note_on,1,0,0,,12,,,59,127
58131,note_on,0,0,0,,1,,,85,127
58235,note_off,104,0,0,,1,,,85,127
58236,note_off,1,0,0,,10,,,81,127
58236,note_on,0,0,0,,12,,,83,127
58340,note_off,104,0,0,,12,,,83,127
58340,note_off,0,0,0,,12,,,59,127
58341,note_on,1,0,0,,1,,,61,127
58341,note_on,0,0,0,,10,,,81,127
58445,note_off,104,0,0,,10,,,81,127
58446,note_on,1,0,0,,8,,,80,127
58550,note_off,104,0,0,,8,,,80,127
58550,note_off,0,0,0,,1,,,61,127
58551,note_on,1,0,0,,1,,,49,127
58551,note_on,0,0,0,,6,,,78,127
58655,note_off,104,0,0,,6,,,78,127
58656,note_on,1,0,0,,5,,,77,127
58760,note_off,104,0,0,,5,,,77,127
58760,note_off,0,0,0,,1,,,49,127
58761,note_on,1,0,0,,6,,,54,127
58761,note_on,0,0,0,,6,,,78,127
58969,note_off,208,0,0,,6,,,78,127
58969,note_off,0,0,0,,6,,,54,127
58970,note_on,1,0,0,,6,,,66,127
58970,note_on,0,0,0,,6,,,78,127
58970,note_on,0,0,0,,10,,,81,127
59074,note_off,104,0,0,,10,,,81,127
59074,note_off,0,0,0,,6,,,78,127
59075,note_on,1,0,0,,5,,,77,127
59075,note_on,0,0,0,,8,,,80,127
59179,note_off,104,0,0,,8,,,80,127
59179,note_off,0,0,0,,5,,,77,127
59180,note_on,1,0,0,,10,,,81,127
59180,note_on,0,0,0,,6,,,78,127
59284,note_off,104,0,0,,6,,,78,127
59284,note_off,0,0,0,,10,,,81,127
59285,note_on,1,0,0,,8,,,80,127
59285,note_on,0,0,0,,5,,,77,127
59389,note_off,104,0,0,,5,,,77,127
59389,note_off,0,0,0,,8,,,80,127
59389,note_off,0,0,0,,6,,,66,127
59390,note_on,1,0,0,,4,,,64,127
59390,note_on,0,0,0,,6,,,78,127
59390,note_on,0,0,0,,10,,,81,127
59494,note_off,104,0,0,,10,,,81,127
59494,note_off,0,0,0,,6,,,78,127
59495,note_on,1,0,0,,8,,,80,127
59495,note_on,0,0,0,,5,,,77,127
59599,note_off,104,0,0,,5,,,77,127
59599,note_off,0,0,0,,8,,,80,127
59599,note_off,0,0,0,,4,,,64,127
59600,note_on,1,0,0,,2,,,50,127
59600,note_on,0,0,0,,6,,,78,127
59600,note_on,0,0,0,,10,,,81,127
59757,note_off,157,0,0,,10,,,81,127
59808,note_off,51,0,0,,6,,,78,127
59808,note_off,0,0,0,,2,,,50,127
59809,note_on,1,0,0,,2,,,62,127
59809,note_on,0,0,0,,8,,,80,127
59809,note_on,0,0,0,,12,,,83,127
59913,note_off,104,0,0,,12,,,83,127
59913,note_off,0,0,0,,8,,,80,127
59914,note_on,1,0,0,,10,,,81,127
59914,note_on,0,0,0,,6,,,78,127
60018,note_off,104,0,0,,6,,,78,127
60018,note_off,0,0,0,,10,,,81,127
60019,note_on,1,0,0,,8,,,80,127
60019,note_on,0,0,0,,12,,,83,127
60123,note_off,104,0,0,,12,,,83,127
60123,note_off,0,0,0,,8,,,80,127
60124,note_on,1,0,0,,6,,,78,127
60124,note_on,0,0,0,,10,,,81,127
60228,note_off,104,0,0,,10,,,81,127
60228,note_off,0,0,0,,6,,,78,127
60228,note_off,0,0,0,,2,,,62,127
60229,note_on,1,0,0,,1,,,61,127
60229,note_on,0,0,0,,12,,,83,127
60229,note_on,0,0,0,,8,,,80,127
60333,note_off,104,0,0,,8,,,80,127
60333,note_off,0,0,0,,12,,,83,127
60334,note_on,1,0,0,,6,,,78,127
60334,note_on,0,0,0,,10,,,81,127
60438,note_off,104,0,0,,10,,,81,127
60438,note_off,0,0,0,,6,,,78,127
60438,note_off,0,0,0,,1,,,61,127
60439,note_on,1,0,0,,12,,,59,127
60439,note_on,0,0,0,,12,,,83,127
60439,note_on,0,0,0,,8,,,80,127
60596,note_off,157,0,0,,12,,,83,127
60647,note_off,51,0,0,,8,,,80,127
60647,note_off,0,0,0,,12,,,59,127
60648,note_on,1,0,0,,10,,,57,127
60648,note_on,0,0,0,,1,,,85,127
60648,note_on,0,0,0,,10,,,81,127
60752,note_off,104,0,0,,10,,,81,127
60752,note_off,0,0,0,,1,,,85,127
60753,note_on,1,0,0,,12,,,83,127
60753,note_on,0,0,0,,8,,,80,127
60857,note_off,104,0,0,,8,,,80,127
60857,note_off,0,0,0,,12,,,83,127
60858,note_on,1,0,0,,10,,,81,127
60858,note_on,0,0,0,,1,,,85,127
60962,note_off,104,0,0,,1,,,85,127
60962,note_off,0,0,0,,10,,,81,127
60963,note_on,1,0,0,,12,,,83,127
60963,note_on,0,0,0,,8,,,80,127
61067,note_off,104,0,0,,8,,,80,127
61067,note_off,0,0,0,,12,,,83,127
61067,note_off,0,0,0,,10,,,57,127
61068,note_on,1,0,0,,8,,,56,127
61068,note_on,0,0,0,,1,,,85,127
61068,note_on,0,0,0,,10,,,81,127
61172,note_off,104,0,0,,10,,,81,127
61172,note_off,0,0,0,,1,,,85,127
61173,note_on,1,0,0,,12,,,83,127
61173,note_on,0,0,0,,8,,,80,127
61277,note_off,104,0,0,,8,,,80,127
61277,note_off,0,0,0,,12,,,83,127
61277,note_off,0,0,0,,8,,,56,127
61278,note_on,1,0,0,,6,,,54,127
61278,note_on,0,0,0,,10,,,81,127
61278,note_on,0,0,0,,1,,,85,127
61382,note_off,104,0,0,,1,,,85,127
61383,note_on,1,0,0,,2,,,86,127
61487,note_off,104,0,0,,2,,,86,127
61487,note_off,0,0,0,,6,,,54,127
61488,note_on,1,0,0,,12,,,59,127
61488,note_on,0,0,0,,1,,,85,127
61592,note_off,104,0,0,,1,,,85,127
61593,note_off,1,0,0,,10,,,81,127
61593,note_on,0,0,0,,12,,,83,127
61697,note_off,104,0,0,,12,,,83,127
61697,note_off,0,0,0,,12,,,59,127
61698,note_on,1,0,0,,1,,,61,127
61698,note_on,0,0,0,,10,,,81,127
61802,note_off,104,0,0,,10,,,81,127
61803,note_on,1,0,0,,8,,,80,127
61907,note_off,104,0,0,,8,,,80,127
61907,note_off,0,0,0,,1,,,61,127
61908,note_on,1,0,0,,1,,,49,127
61908,note_on,0,0,0,,6,,,78,127
62012,note_off,104,0,0,,6,,,78,127
62013,note_on,1,0,0,,5,,,77,127
62117,note_off,104,0,0,,5,,,77,127
62117,note_off,0,0,0,,1,,,49,127
62118,note_on,1,0,0,,6,,,42,127
62118,note_on,0,0,0,,6,,,78,127
62326,note_off,208,0,0,,6,,,78,127
62326,note_off,0,0,0,,6,,,42,127
62327,note_on,1,0,0,,6,,,54,127
62327,note_on,0,0,0,,6,,,66,127
62327,note_on,0,0,0,,10,,,69,127
62431,note_off,104,0,0,,10,,,69,127
62431,note_off,0,0,0,,6,,,66,127
62432,note_on,1,0,0,,8,,,68,127
62432,note_on,0,0,0,,5,,,65,127
62536,note_off,104,0,0,,5,,,65,127
62536,note_off,0,0,0,,8,,,68,127
62537,note_on,1,0,0,,10,,,69,127
62537,note_on,0,0,0,,6,,,66,127
62641,note_off,104,0,0,,6,,,66,127
62641,note_off,0,0,0,,10,,,69,127
62642,note_on,1,0,0,,8,,,68,127
62642,note_on,0,0,0,,5,,,65,127
62746,note_off,104,0,0,,5,,,65,127
62746,note_off,0,0,0,,8,,,68,127
62746,note_off,0,0,0,,6,,,54,127
62747,note_on,1,0,0,,4,,,52,127
62747,note_on,0,0,0,,6,,,66,127
62747,note_on,0,0,0,,10,,,69,127
62851,note_off,104,0,0,,10,,,69,127
62851,note_off,0,0,0,,6,,,66,127
62852,note_on,1,0,0,,8,,,68,127
62852,note_on,0,0,0,,5,,,65,127
62956,note_off,104,0,0,,5,,,65,127
62956,note_off,0,0,0,,8,,,68,127
62956,note_off,0,0,0,,4,,,52,127
62957,note_on,1,0,0,,2,,,38,127
62957,note_on,0,0,0,,10,,,69,127
62957,note_on,0,0,0,,6,,,66,127
63114,note_off,157,0,0,,6,,,66,127
63165,note_off,51,0,0,,10,,,69,127
63165,note_off,0,0,0,,2,,,38,127
63166,note_on,1,0,0,,2,,,50,127
63166,note_on,0,0,0,,12,,,71,127
63166,note_on,0,0,0,,8,,,68,127
63270,note_off,104,0,0,,8,,,68,127
63270,note_off,0,0,0,,12,,,71,127
63271,note_on,1,0,0,,10,,,69,127
63271,note_on,0,0,0,,6,,,66,127
63375,note_off,104,0,0,,6,,,66,127
63375,note_off,0,0,0,,10,,,69,127
63376,note_on,1,0,0,,12,,,71,127
63376,note_on,0,0,0,,8,,,68,127
63480,note_off,104,0,0,,8,,,68,127
63480,note_off,0,0,0,,12,,,71,127
63481,note_on,1,0,0,,6,,,66,127
63481,note_on,0,0,0,,10,,,69,127
63585,note_off,104,0,0,,10,,,69,127
63585,note_off,0,0,0,,6,,,66,127
63585,note_off,0,0,0,,2,,,50,127
63586,note_on,1,0,0,,1,,,49,127
63586,note_on,0,0,0,,8,,,68,127
63586,note_on,0,0,0,,12,,,71,127
63690,note_off,104,0,0,,12,,,71,127
63690,note_off,0,0,0,,8,,,68,127
63691,note_on,1,0,0,,10,,,69,127
63691,note_on,0,0,0,,6,,,66,127
63795,note_off,104,0,0,,6,,,66,127
63795,note_off,0,0,0,,10,,,69,127
63795,note_off,0,0,0,,1,,,49,127
63796,note_on,1,0,0,,12,,,47,127
63796,note_on,0,0,0,,8,,,68,127
63796,note_on,0,0,0,,12,,,71,127
63953,note_off,157,0,0,,8,,,68,127
64004,note_off,51,0,0,,12,,,71,127
64004,note_off,0,0,0,,12,,,47,127
64005,note_on,1,0,0,,10,,,45,127
64005,note_on,0,0,0,,1,,,73,127
64005,note_on,0,0,0,,10,,,69,127
64109,note_off,104,0,0,,10,,,69,127
64109,note_off,0,0,0,,1,,,73,127
64110,note_on,1,0,0,,12,,,71,127
64110,note_on,0,0,0,,8,,,68,127
64214,note_off,104,0,0,,8,,,68,127
64214,note_off,0,0,0,,12,,,71,127
64215,note_on,1,0,0,,10,,,69,127
64215,note_on,0,0,0,,1,,,73,127
64319,note_off,104,0,0,,1,,,73,127
64319,note_off,0,0,0,,10,,,69,127
64320,note_on,1,0,0,,8,,,68,127
64320,note_on,0,0,0,,12,,,71,127
64424,note_off,104,0,0,,12,,,71,127
64424,note_off,0,0,0,,8,,,68,127
64424,note_off,0,0,0,,10,,,45,127
64425,note_on,1,0,0,,8,,,44,127
64425,note_on,0,0,0,,10,,,69,127
64425,note_on,0,0,0,,1,,,73,127
64529,note_off,104,0,0,,1,,,73,127
64529,note_off,0,0,0,,10,,,69,127
64530,note_on,1,0,0,,8,,,68,127
64530,note_on,0,0,0,,12,,,71,127
64634,note_off,104,0,0,,12,,,71,127
64634,note_off,0,0,0,,8,,,68,127
64634,note_off,0,0,0,,8,,,44,127
64635,note_on,1,0,0,,6,,,42,127
64635,note_on,0,0,0,,1,,,73,127
64635,note_on,0,0,0,,10,,,69,127
64739,note_off,104,0,0,,1,,,73,127
64740,note_on,1,0,0,,2,,,74,127
64844,note_off,104,0,0,,2,,,74,127
64844,note_off,0,0,0,,6,,,42,127
64845,note_on,1,0,0,,12,,,47,127
64845,note_on,0,0,0,,1,,,73,127
64949,note_off,104,0,0,,1,,,73,127
64950,note_off,1,0,0,,10,,,69,127
64950,note_on,0,0,0,,12,,,71,127
65054,note_off,104,0,0,,12,,,71,127
65054,note_off,0,0,0,,12,,,47,127
65055,note_on,1,0,0,,1,,,49,127
65055,note_on,0,0,0,,10,,,69,127
65159,note_off,104,0,0,,10,,,69,127
65160,note_on,1,0,0,,8,,,68,127
65264,note_off,104,0,0,,8,,,68,127
65264,note_off,0,0,0,,1,,,49,127
65265,note_on,1,0,0,,1,,,37,127
65265,note_on,0,0,0,,6,,,66,127
65369,note_off,104,0,0,,6,,,66,127
65370,note_on,1,0,0,,8,,,68,127
65474,note_off,104,0,0,,8,,,68,127
65474,note_off,0,0,0,,1,,,37,127
65475,note_on,1,0,0,,6,,,66,127
65475,note_on,0,0,0,,10,,,69,127
65579,note_off,104,0,0,,10,,,69,127
65580,note_on,1,0,0,,10,,,81,127
65684,note_off,104,0,0,,10,,,81,127
65684,note_off,0,0,0,,6,,,66,127
65685,note_on,1,0,0,,4,,,64,127
65685,note_on,0,0,0,,8,,,68,127
65789,note_off,104,0,0,,8,,,68,127
65790,note_on,1,0,0,,8,,,80,127
65894,note_off,104,0,0,,8,,,80,127
65894,note_off,0,0,0,,4,,,64,127
65895,note_on,1,0,0,,2,,,62,127
65895,note_on,0,0,0,,6,,,66,127
65999,note_off,104,0,0,,6,,,66,127
66000,note_on,1,0,0,,6,,,78,127
66104,note_off,104,0,0,,6,,,78,127
66104,note_off,0,0,0,,2,,,62,127
66105,note_on,1,0,0,,1,,,61,127
66105,note_on,0,0,0,,4,,,64,127
66209,note_off,104,0,0,,4,,,64,127
66210,note_on,1,0,0,,4,,,76,127
66314,note_off,104,0,0,,4,,,76,127
66314,note_off,0,0,0,,1,,,61,127
66315,note_on,1,0,0,,12,,,59,127
66315,note_on,0,0,0,,2,,,62,127
66419,note_off,104,0,0,,2,,,62,127
66420,note_on,1,0,0,,2,,,74,127
66524,note_off,104,0,0,,2,,,74,127
66524,note_off,0,0,0,,12,,,59,127
66525,note_on,1,0,0,,12,,,47,127
66525,note_on,0,0,0,,1,,,73,127
66629,note_off,104,0,0,,1,,,73,127
66630,note_on,1,0,0,,12,,,71,127
66734,note_off,104,0,0,,12,,,71,127
66734,note_off,0,0,0,,12,,,47,127
66735,note_on,1,0,0,,1,,,49,127
66735,note_on,0,0,0,,10,,,69,127
66839,note_off,104,0,0,,10,,,69,127
66840,note_on,1,0,0,,8,,,68,127
66944,note_off,104,0,0,,8,,,68,127
66944,note_off,0,0,0,,1,,,49,127
66945,note_on,1,0,0,,1,,,37,127
66945,note_on,0,0,0,,6,,,66,127
67049,note_off,104,0,0,,6,,,66,127
67050,note_on,1,0,0,,5,,,65,127
67154,note_off,104,0,0,,5,,,65,127
67154,note_off,0,0,0,,1,,,37,127
67155,note_on,1,0,0,,6,,,54,127
67155,note_on,0,0,0,,10,,,69,127
67259,note_off,104,0,0,,6,,,54,127
67260,note_on,1,0,0,,6,,,66,127
67364,note_off,104,0,0,,6,,,66,127
67364,note_off,0,0,0,,10,,,69,127
67365,note_on,1,0,0,,4,,,52,127
67365,note_on,0,0,0,,8,,,68,127
67469,note_off,104,0,0,,4,,,52,127
67470,note_on,1,0,0,,4,,,64,127
67574,note_off,104,0,0,,4,,,64,127
67574,note_off,0,0,0,,8,,,68,127
67575,note_on,1,0,0,,2,,,50,127
67575,note_on,0,0,0,,6,,,66,127
67679,note_off,104,0,0,,2,,,50,127
67680,note_on,1,0,0,,2,,,62,127
67784,note_off,104,0,0,,2,,,62,127
67784,note_off,0,0,0,,6,,,66,127
67785,note_on,1,0,0,,1,,,49,127
67785,note_on,0,0,0,,4,,,64,127
67889,note_off,104,0,0,,1,,,49,127
67890,note_on,1,0,0,,1,,,61,127
67994,note_off,104,0,0,,1,,,61,127
67994,note_off,0,0,0,,4,,,64,127
67995,note_on,1,0,0,,12,,,35,127
67995,note_on,0,0,0,,2,,,62,127
68100,note_on,105,0,0,,12,,,59,127
68204,note_off,104,0,0,,12,,,59,127
68204,note_off,0,0,0,,2,,,62,127
68204,note_off,0,0,0,,12,,,35,127
68205,note_on,1,0,0,,12,,,47,127
68205,note_on,0,0,0,,1,,,61,127
68309,note_off,104,0,0,,1,,,61,127
68310,note_on,1,0,0,,12,,,59,127
68414,note_off,104,0,0,,12,,,59,127
68414,note_off,0,0,0,,12,,,47,127
68415,note_on,1,0,0,,1,,,49,127
68415,note_on,0,0,0,,10,,,57,127
68519,note_off,104,0,0,,10,,,57,127
68520,note_on,1,0,0,,8,,,56,127
68624,note_off,104,0,0,,8,,,56,127
68624,note_off,0,0,0,,1,,,49,127
68625,note_on,1,0,0,,1,,,37,127
68625,note_on,0,0,0,,6,,,54,127
68729,note_off,104,0,0,,6,,,54,127
68730,note_on,1,0,0,,5,,,53,127
68834,note_off,104,0,0,,5,,,53,127
68834,note_off,0,0,0,,1,,,37,127
68835,note_on,1,0,0,,6,,,42,127
68835,note_on,0,0,0,,6,,,54,127
70615,note_off,1780,0,0,,6,,,54,127
70615,note_off,0,0,0,,6,,,42,127
72192,end_of_track,1577,1,0,,,,,,
