tick,type,time,meta,track,program,channel,pitch,tempo,note,velocity
0,copyright,0,1,0,,,,,,
0,program_change,0,0,0,6,0,,,,
0,pitchwheel,0,0,0,,0,0,,,
0,program_change,0,0,0,6,1,,,,
0,pitchwheel,0,0,0,,1,-590,,,
0,program_change,0,0,0,6,2,,,,
0,pitchwheel,0,0,0,,2,-272,,,
0,program_change,0,0,0,6,3,,,,
0,pitchwheel,0,0,0,,3,-353,,,
0,program_change,0,0,0,6,4,,,,
0,pitchwheel,0,0,0,,4,-560,,,
0,program_change,0,0,0,6,5,,,,
0,pitchwheel,0,0,0,,5,-80,,,
0,program_change,0,0,0,6,6,,,,
0,pitchwheel,0,0,0,,6,-625,,,
0,program_change,0,0,0,6,7,,,,
0,pitchwheel,0,0,0,,7,-130,,,
0,program_change,0,0,0,6,8,,,,
0,pitchwheel,0,0,0,,8,-512,,,
0,program_change,0,0,0,6,10,,,,
0,pitchwheel,0,0,0,,10,-464,,,
0,program_change,0,0,0,6,11,,,,
0,pitchwheel,0,0,0,,11,-208,,,
0,program_change,0,0,0,6,12,,,,
0,pitchwheel,0,0,0,,12,-553,,,
0,set_tempo,0,1,0,,,,500000,,
110,note_on,110,0,0,,6,,,78,127
767,note_off,657,0,0,,6,,,78,127
768,note_on,1,0,0,,5,,,77,127
877,note_off,109,0,0,,5,,,77,127
878,note_on,1,0,0,,8,,,80,127
987,note_off,109,0,0,,8,,,80,127
988,note_on,1,0,0,,12,,,71,127
1097,note_off,109,0,0,,12,,,71,127
1098,note_on,1,0,0,,2,,,74,127
1207,note_off,109,0,0,,2,,,74,127
1208,note_on,1,0,0,,8,,,68,127
1317,note_off,109,0,0,,8,,,68,127
1318,note_on,1,0,0,,12,,,71,127
1427,note_off,109,0,0,,12,,,71,127
1428,note_on,1,0,0,,5,,,65,127
1537,note_off,109,0,0,,5,,,65,127
1538,note_on,1,0,0,,8,,,68,127
1647,note_off,109,0,0,,8,,,68,127
1648,note_on,1,0,0,,1,,,61,127
1757,note_off,109,0,0,,1,,,61,127
1758,note_on,1,0,0,,2,,,74,127
1867,note_off,109,0,0,,2,,,74,127
1868,note_on,1,0,0,,1,,,73,127
1977,note_off,109,0,0,,1,,,73,127
1978,note_on,1,0,0,,12,,,71,127
2087,note_off,109,0,0,,12,,,71,127
2088,note_on,1,0,0,,6,,,66,127
2088,note_on,0,0,0,,10,,,69,127
2197,note_off,109,0,0,,10,,,69,127
2198,note_on,1,0,0,,8,,,68,127
2307,note_off,109,0,0,,8,,,68,127
2308,note_on,1,0,0,,10,,,69,127
2417,note_off,109,0,0,,10,,,69,127
2418,note_on,1,0,0,,12,,,71,127
2527,note_off,109,0,0,,12,,,71,127
2528,note_on,1,0,0,,1,,,73,127
2637,note_off,109,0,0,,1,,,73,127
2638,note_on,1,0,0,,2,,,74,127
2747,note_off,109,0,0,,2,,,74,127
2747,note_off,0,0,0,,6,,,66,127
2748,note_on,1,0,0,,5,,,65,127
2748,note_on,0,0,0,,1,,,73,127
2857,note_off,109,0,0,,5,,,65,127
2858,note_on,1,0,0,,8,,,68,127
2967,note_off,109,0,0,,8,,,68,127
2968,note_on,1,0,0,,12,,,59,127
3077,note_off,109,0,0,,12,,,59,127
3078,note_on,1,0,0,,2,,,62,127
3187,note_off,109,0,0,,2,,,62,127
3187,note_off,0,0,0,,1,,,73,127
3188,note_on,1,0,0,,8,,,56,127
3188,note_on,0,0,0,,12,,,71,127
3297,note_off,109,0,0,,8,,,56,127
3298,note_on,1,0,0,,12,,,59,127
3407,note_off,109,0,0,,12,,,59,127
3408,note_on,1,0,0,,5,,,53,127
3517,note_off,109,0,0,,5,,,53,127
3518,note_off,1,0,0,,12,,,71,127
3518,note_on,0,0,0,,8,,,56,127
3627,note_off,109,0,0,,8,,,56,127
3628,note_on,1,0,0,,1,,,49,127
3737,note_off,109,0,0,,1,,,49,127
3738,note_on,1,0,0,,2,,,62,127
3847,note_off,109,0,0,,2,,,62,127
3848,note_on,1,0,0,,1,,,61,127
3957,note_off,109,0,0,,1,,,61,127
3958,note_on,1,0,0,,12,,,59,127
4067,note_off,109,0,0,,12,,,59,127
4068,note_on,1,0,0,,10,,,57,127
4068,note_on,0,0,0,,1,,,73,127
4177,note_off,109,0,0,,1,,,73,127
4178,note_on,1,0,0,,12,,,71,127
4287,note_off,109,0,0,,12,,,71,127
4288,note_on,1,0,0,,10,,,69,127
4397,note_off,109,0,0,,10,,,69,127
4398,note_on,1,0,0,,8,,,68,127
4507,note_off,109,0,0,,8,,,68,127
4508,note_on,1,0,0,,6,,,66,127
4617,note_off,109,0,0,,6,,,66,127
4618,note_on,1,0,0,,4,,,64,127
4727,note_off,109,0,0,,4,,,64,127
4727,note_off,0,0,0,,10,,,57,127
4728,note_on,1,0,0,,12,,,59,127
4728,note_on,0,0,0,,2,,,74,127
4837,note_off,109,0,0,,2,,,74,127
4838,note_on,1,0,0,,1,,,73,127
4947,note_off,109,0,0,,1,,,73,127
4948,note_on,1,0,0,,12,,,71,127
5057,note_off,109,0,0,,12,,,71,127
5058,note_on,1,0,0,,10,,,69,127
5167,note_off,109,0,0,,10,,,69,127
5168,note_on,1,0,0,,8,,,68,127
5277,note_off,109,0,0,,8,,,68,127
5278,note_on,1,0,0,,6,,,66,127
5387,note_off,109,0,0,,6,,,66,127
5387,note_off,0,0,0,,12,,,59,127
5388,note_on,1,0,0,,1,,,61,127
5388,note_on,0,0,0,,5,,,65,127
5497,note_off,109,0,0,,1,,,61,127
5498,note_on,1,0,0,,12,,,59,127
5607,note_off,109,0,0,,12,,,59,127
5608,note_on,1,0,0,,10,,,57,127
5717,note_off,109,0,0,,10,,,57,127
5718,note_on,1,0,0,,8,,,56,127
5823,note_off,105,0,0,,5,,,65,127
5826,note_off,3,0,0,,8,,,56,127
5827,note_on,1,0,0,,6,,,54,127
5936,note_off,109,0,0,,6,,,54,127
5937,note_on,1,0,0,,5,,,53,127
6046,note_off,109,0,0,,5,,,53,127
6047,note_on,1,0,0,,6,,,54,127
6047,note_on,0,0,0,,10,,,69,127
6156,note_off,109,0,0,,6,,,54,127
6157,note_on,1,0,0,,8,,,56,127
6266,note_off,109,0,0,,8,,,56,127
6266,note_off,0,0,0,,10,,,69,127
6267,note_on,1,0,0,,10,,,57,127
6267,note_on,0,0,0,,6,,,66,127
6376,note_off,109,0,0,,10,,,57,127
6377,note_on,1,0,0,,12,,,59,127
6486,note_off,109,0,0,,12,,,59,127
6486,note_off,0,0,0,,6,,,66,127
6487,note_on,1,0,0,,1,,,61,127
6487,note_on,0,0,0,,10,,,69,127
6596,note_off,109,0,0,,1,,,61,127
6597,note_on,1,0,0,,3,,,63,127
6706,note_off,109,0,0,,3,,,63,127
6706,note_off,0,0,0,,10,,,69,127
6707,note_on,1,0,0,,5,,,65,127
6707,note_on,0,0,0,,8,,,68,127
6816,note_off,109,0,0,,8,,,68,127
6817,note_on,1,0,0,,10,,,69,127
6926,note_off,109,0,0,,10,,,69,127
6927,note_on,1,0,0,,12,,,71,127
7036,note_off,109,0,0,,5,,,65,127
7037,note_on,1,0,0,,1,,,61,127
7146,note_off,109,0,0,,1,,,61,127
7146,note_off,0,0,0,,12,,,71,127
7147,note_on,1,0,0,,6,,,66,127
7147,note_on,0,0,0,,10,,,69,127
7256,note_off,109,0,0,,6,,,66,127
7257,note_on,1,0,0,,3,,,63,127
7330,note_off,73,0,0,,10,,,69,127
7365,note_off,35,0,0,,3,,,63,127
7366,note_on,1,0,0,,5,,,65,127
7366,note_on,0,0,0,,8,,,68,127
7475,note_off,109,0,0,,8,,,68,127
7476,note_on,1,0,0,,10,,,69,127
7585,note_off,109,0,0,,10,,,69,127
7586,note_on,1,0,0,,12,,,71,127
7695,note_off,109,0,0,,5,,,65,127
7696,note_on,1,0,0,,1,,,61,127
7805,note_off,109,0,0,,1,,,61,127
7805,note_off,0,0,0,,12,,,71,127
7806,note_on,1,0,0,,6,,,66,127
7806,note_on,0,0,0,,10,,,69,127
7915,note_off,109,0,0,,6,,,66,127
7916,note_on,1,0,0,,2,,,62,127
7989,note_off,73,0,0,,10,,,69,127
8024,note_off,35,0,0,,2,,,62,127
8025,note_on,1,0,0,,8,,,68,127
8025,note_on,0,0,0,,12,,,71,127
8134,note_off,109,0,0,,12,,,71,127
8135,note_on,1,0,0,,1,,,73,127
8244,note_off,109,0,0,,1,,,73,127
8245,note_on,1,0,0,,2,,,74,127
8354,note_off,109,0,0,,8,,,68,127
8355,note_on,1,0,0,,4,,,64,127
8464,note_off,109,0,0,,4,,,64,127
8464,note_off,0,0,0,,2,,,74,127
8465,note_on,1,0,0,,10,,,69,127
8465,note_on,0,0,0,,1,,,73,127
8574,note_off,109,0,0,,10,,,69,127
8575,note_on,1,0,0,,6,,,66,127
8648,note_off,73,0,0,,1,,,73,127
8683,note_off,35,0,0,,6,,,66,127
8684,note_on,1,0,0,,8,,,68,127
8684,note_on,0,0,0,,12,,,71,127
8793,note_off,109,0,0,,12,,,71,127
8794,note_on,1,0,0,,1,,,73,127
8903,note_off,109,0,0,,1,,,73,127
8904,note_on,1,0,0,,2,,,74,127
9013,note_off,109,0,0,,8,,,68,127
9014,note_on,1,0,0,,4,,,64,127
9123,note_off,109,0,0,,4,,,64,127
9123,note_off,0,0,0,,2,,,74,127
9124,note_on,1,0,0,,10,,,69,127
9124,note_on,0,0,0,,1,,,73,127
9233,note_off,109,0,0,,10,,,69,127
9234,note_on,1,0,0,,6,,,66,127
9343,note_off,109,0,0,,6,,,66,127
9344,note_on,1,0,0,,8,,,68,127
9453,note_off,109,0,0,,1,,,73,127
9454,note_on,1,0,0,,12,,,71,127
9563,note_off,109,0,0,,8,,,68,127
9564,note_on,1,0,0,,6,,,66,127
9673,note_off,109,0,0,,12,,,71,127
9674,note_on,1,0,0,,10,,,69,127
9783,note_off,109,0,0,,6,,,66,127
9784,note_on,1,0,0,,12,,,59,127
9893,note_off,109,0,0,,10,,,69,127
9894,note_on,1,0,0,,3,,,75,127
10003,note_off,109,0,0,,3,,,75,127
10003,note_off,0,0,0,,12,,,59,127
10004,note_on,1,0,0,,4,,,64,127
10004,note_on,0,0,0,,4,,,76,127
10113,note_off,109,0,0,,4,,,76,127
10114,note_on,1,0,0,,12,,,71,127
10223,note_off,109,0,0,,12,,,71,127
10224,note_on,1,0,0,,1,,,73,127
10333,note_off,109,0,0,,1,,,73,127
10334,note_on,1,0,0,,8,,,68,127
10443,note_off,109,0,0,,8,,,68,127
10444,note_on,1,0,0,,10,,,69,127
10553,note_off,109,0,0,,10,,,69,127
10554,note_on,1,0,0,,6,,,66,127
10663,note_off,109,0,0,,6,,,66,127
10663,note_off,0,0,0,,4,,,64,127
10664,note_on,1,0,0,,4,,,52,127
10664,note_on,0,0,0,,8,,,68,127
10773,note_off,109,0,0,,8,,,68,127
10774,note_on,1,0,0,,4,,,64,127
10883,note_off,109,0,0,,4,,,64,127
10884,note_on,1,0,0,,6,,,66,127
10993,note_off,109,0,0,,6,,,66,127
10994,note_on,1,0,0,,3,,,63,127
11103,note_off,109,0,0,,3,,,63,127
11104,note_on,1,0,0,,4,,,64,127
11213,note_off,109,0,0,,4,,,64,127
11214,note_on,1,0,0,,12,,,59,127
11323,note_off,109,0,0,,12,,,59,127
11323,note_off,0,0,0,,4,,,52,127
11324,note_on,1,0,0,,4,,,40,127
11324,note_on,0,0,0,,1,,,61,127
11433,note_off,109,0,0,,1,,,61,127
11434,note_on,1,0,0,,10,,,57,127
11543,note_off,109,0,0,,10,,,57,127
11544,note_on,1,0,0,,12,,,59,127
11653,note_off,109,0,0,,12,,,59,127
11654,note_on,1,0,0,,6,,,54,127
11763,note_off,109,0,0,,6,,,54,127
11764,note_on,1,0,0,,8,,,56,127
11873,note_off,109,0,0,,8,,,56,127
11874,note_on,1,0,0,,3,,,51,127
11983,note_off,109,0,0,,3,,,51,127
11983,note_off,0,0,0,,4,,,40,127
11984,note_on,1,0,0,,4,,,52,127
12093,note_off,109,0,0,,4,,,52,127
12094,note_on,1,0,0,,4,,,64,127
12203,note_off,109,0,0,,4,,,64,127
12204,note_on,1,0,0,,2,,,62,127
12313,note_off,109,0,0,,2,,,62,127
12314,note_on,1,0,0,,1,,,61,127
12423,note_off,109,0,0,,1,,,61,127
12424,note_on,1,0,0,,12,,,59,127
12533,note_off,109,0,0,,12,,,59,127
12534,note_on,1,0,0,,10,,,57,127
12643,note_off,109,0,0,,10,,,57,127
12644,note_on,1,0,0,,8,,,56,127
12753,note_off,109,0,0,,8,,,56,127
12754,note_on,1,0,0,,6,,,54,127
12863,note_off,109,0,0,,6,,,54,127
12864,note_on,1,0,0,,4,,,52,127
12864,note_on,0,0,0,,12,,,83,127
12973,note_off,109,0,0,,4,,,52,127
12974,note_on,1,0,0,,2,,,50,127
13083,note_off,109,0,0,,2,,,50,127
13084,note_on,1,0,0,,1,,,49,127
13193,note_off,109,0,0,,1,,,49,127
13193,note_off,0,0,0,,12,,,83,127
13194,note_on,1,0,0,,12,,,47,127
13194,note_on,0,0,0,,2,,,74,127
13303,note_off,109,0,0,,2,,,74,127
13303,note_off,0,0,0,,12,,,47,127
13304,note_on,1,0,0,,10,,,45,127
13304,note_on,0,0,0,,2,,,74,127
13358,note_off,54,0,0,,2,,,74,127
13359,note_on,1,0,0,,1,,,73,127
13413,note_off,54,0,0,,1,,,73,127
13413,note_off,0,0,0,,10,,,45,127
13414,note_on,1,0,0,,4,,,64,127
13414,note_on,0,0,0,,2,,,74,127
13468,note_off,54,0,0,,2,,,74,127
13469,note_on,1,0,0,,1,,,73,127
13523,note_off,54,0,0,,1,,,73,127
13523,note_off,0,0,0,,4,,,64,127
13524,note_on,1,0,0,,2,,,62,127
13524,note_on,0,0,0,,2,,,74,127
13578,note_off,54,0,0,,2,,,74,127
13579,note_on,1,0,0,,1,,,73,127
13633,note_off,54,0,0,,1,,,73,127
13633,note_off,0,0,0,,2,,,62,127
13634,note_on,1,0,0,,1,,,61,127
13634,note_on,0,0,0,,2,,,74,127
13688,note_off,54,0,0,,2,,,74,127
13689,note_on,1,0,0,,1,,,73,127
13743,note_off,54,0,0,,1,,,73,127
13743,note_off,0,0,0,,1,,,61,127
13744,note_on,1,0,0,,12,,,59,127
13744,note_on,0,0,0,,2,,,74,127
13798,note_off,54,0,0,,2,,,74,127
13799,note_on,1,0,0,,1,,,73,127
13853,note_off,54,0,0,,1,,,73,127
13853,note_off,0,0,0,,12,,,59,127
13854,note_on,1,0,0,,10,,,57,127
13854,note_on,0,0,0,,2,,,74,127
13908,note_off,54,0,0,,2,,,74,127
13909,note_on,1,0,0,,1,,,73,127
13963,note_off,54,0,0,,10,,,57,127
13964,note_on,1,0,0,,8,,,56,127
14018,note_off,54,0,0,,1,,,73,127
14073,note_off,55,0,0,,8,,,56,127
14074,note_on,1,0,0,,6,,,54,127
14183,note_off,109,0,0,,6,,,54,127
14184,note_on,1,0,0,,4,,,52,127
14184,note_on,0,0,0,,12,,,83,127
14293,note_off,109,0,0,,4,,,52,127
14294,note_on,1,0,0,,2,,,50,127
14403,note_off,109,0,0,,2,,,50,127
14404,note_on,1,0,0,,1,,,49,127
14513,note_off,109,0,0,,1,,,49,127
14513,note_off,0,0,0,,12,,,83,127
14514,note_on,1,0,0,,12,,,47,127
14514,note_on,0,0,0,,2,,,74,127
14623,note_off,109,0,0,,2,,,74,127
14623,note_off,0,0,0,,12,,,47,127
14624,note_on,1,0,0,,10,,,45,127
14624,note_on,0,0,0,,1,,,73,127
14733,note_off,109,0,0,,1,,,73,127
14734,note_on,1,0,0,,12,,,83,127
14843,note_off,109,0,0,,12,,,83,127
14843,note_off,0,0,0,,10,,,45,127
14844,note_on,1,0,0,,12,,,47,127
14844,note_on,0,0,0,,10,,,81,127
14953,note_off,109,0,0,,10,,,81,127
14954,note_on,1,0,0,,8,,,80,127
15063,note_off,109,0,0,,8,,,80,127
15063,note_off,0,0,0,,12,,,47,127
15064,note_on,1,0,0,,1,,,49,127
15064,note_on,0,0,0,,10,,,81,127
15173,note_off,109,0,0,,10,,,81,127
15174,note_on,1,0,0,,4,,,76,127
15283,note_off,109,0,0,,4,,,76,127
15283,note_off,0,0,0,,1,,,49,127
15284,note_on,1,0,0,,2,,,50,127
15284,note_on,0,0,0,,6,,,78,127
15393,note_off,109,0,0,,6,,,78,127
15394,note_on,1,0,0,,2,,,74,127
15503,note_off,109,0,0,,2,,,74,127
15503,note_off,0,0,0,,2,,,50,127
15504,note_on,1,0,0,,4,,,52,127
15504,note_on,0,0,0,,1,,,73,127
15613,note_off,109,0,0,,1,,,73,127
15614,note_on,1,0,0,,12,,,71,127
15723,note_off,109,0,0,,12,,,71,127
15723,note_off,0,0,0,,4,,,52,127
15724,note_on,1,0,0,,4,,,40,127
15724,note_on,0,0,0,,10,,,69,127
15833,note_off,109,0,0,,10,,,69,127
15834,note_on,1,0,0,,8,,,68,127
15943,note_off,109,0,0,,8,,,68,127
15943,note_off,0,0,0,,4,,,40,127
15944,note_on,1,0,0,,10,,,45,127
15944,note_on,0,0,0,,10,,,69,127
16053,note_off,109,0,0,,10,,,45,127
16054,note_on,1,0,0,,5,,,65,127
16163,note_off,109,0,0,,5,,,65,127
16164,note_on,1,0,0,,4,,,64,127
16273,note_off,109,0,0,,4,,,64,127
16274,note_on,1,0,0,,2,,,62,127
16379,note_off,105,0,0,,10,,,69,127
16382,note_off,3,0,0,,2,,,62,127
16383,note_on,1,0,0,,0,,,60,127
16492,note_off,109,0,0,,0,,,60,127
16493,note_on,1,0,0,,12,,,59,127
16602,note_off,109,0,0,,12,,,59,127
16603,note_on,1,0,0,,10,,,57,127
16603,note_on,0,0,0,,4,,,76,127
16712,note_off,109,0,0,,10,,,57,127
16713,note_on,1,0,0,,7,,,55,127
16822,note_off,109,0,0,,7,,,55,127
16823,note_on,1,0,0,,5,,,53,127
16932,note_off,109,0,0,,5,,,53,127
16932,note_off,0,0,0,,4,,,76,127
16933,note_on,1,0,0,,4,,,52,127
16933,note_on,0,0,0,,2,,,74,127
17042,note_off,109,0,0,,2,,,74,127
17042,note_off,0,0,0,,4,,,52,127
17043,note_on,1,0,0,,2,,,50,127
17043,note_on,0,0,0,,0,,,72,127
17152,note_off,109,0,0,,0,,,72,127
17152,note_off,0,0,0,,2,,,50,127
17153,note_on,1,0,0,,5,,,53,127
17153,note_on,0,0,0,,12,,,71,127
17262,note_off,109,0,0,,12,,,71,127
17262,note_off,0,0,0,,5,,,53,127
17263,note_on,1,0,0,,4,,,52,127
17263,note_on,0,0,0,,10,,,69,127
17317,note_off,54,0,0,,10,,,69,127
17318,note_on,1,0,0,,8,,,68,127
17372,note_off,54,0,0,,8,,,68,127
17372,note_off,0,0,0,,4,,,52,127
17373,note_on,1,0,0,,5,,,65,127
17373,note_on,0,0,0,,10,,,69,127
17427,note_off,54,0,0,,10,,,69,127
17428,note_on,1,0,0,,8,,,68,127
17482,note_off,54,0,0,,8,,,68,127
17482,note_off,0,0,0,,5,,,65,127
17483,note_on,1,0,0,,4,,,64,127
17483,note_on,0,0,0,,10,,,69,127
17537,note_off,54,0,0,,10,,,69,127
17538,note_on,1,0,0,,8,,,68,127
17592,note_off,54,0,0,,8,,,68,127
17592,note_off,0,0,0,,4,,,64,127
17593,note_on,1,0,0,,2,,,62,127
17593,note_on,0,0,0,,10,,,69,127
17647,note_off,54,0,0,,10,,,69,127
17648,note_on,1,0,0,,8,,,68,127
17702,note_off,54,0,0,,8,,,68,127
17702,note_off,0,0,0,,2,,,62,127
17703,note_on,1,0,0,,0,,,60,127
17703,note_on,0,0,0,,10,,,69,127
17757,note_off,54,0,0,,10,,,69,127
17758,note_on,1,0,0,,8,,,68,127
17812,note_off,54,0,0,,8,,,68,127
17812,note_off,0,0,0,,0,,,60,127
17813,note_on,1,0,0,,12,,,59,127
17813,note_on,0,0,0,,10,,,69,127
17867,note_off,54,0,0,,10,,,69,127
17868,note_on,1,0,0,,8,,,68,127
17922,note_off,54,0,0,,8,,,68,127
17922,note_off,0,0,0,,12,,,59,127
17923,note_on,1,0,0,,10,,,57,127
17923,note_on,0,0,0,,4,,,76,127
18032,note_off,109,0,0,,10,,,57,127
18033,note_on,1,0,0,,7,,,55,127
18142,note_off,109,0,0,,7,,,55,127
18142,note_off,0,0,0,,4,,,76,127
18143,note_on,1,0,0,,5,,,53,127
18143,note_on,0,0,0,,2,,,74,127
18252,note_off,109,0,0,,2,,,74,127
18252,note_off,0,0,0,,5,,,53,127
18253,note_on,1,0,0,,4,,,52,127
18253,note_on,0,0,0,,0,,,72,127
18362,note_off,109,0,0,,0,,,72,127
18362,note_off,0,0,0,,4,,,52,127
18363,note_on,1,0,0,,2,,,50,127
18363,note_on,0,0,0,,12,,,71,127
18472,note_off,109,0,0,,12,,,71,127
18472,note_off,0,0,0,,2,,,50,127
18473,note_on,1,0,0,,5,,,53,127
18473,note_on,0,0,0,,10,,,69,127
18582,note_off,109,0,0,,10,,,69,127
18582,note_off,0,0,0,,5,,,53,127
18583,note_on,1,0,0,,4,,,52,127
18583,note_on,0,0,0,,8,,,68,127
18692,note_off,109,0,0,,8,,,68,127
18693,note_on,1,0,0,,4,,,76,127
18802,note_off,109,0,0,,4,,,76,127
18802,note_off,0,0,0,,4,,,52,127
18803,note_on,1,0,0,,4,,,52,127
18803,note_on,0,0,0,,4,,,64,127
18912,note_off,109,0,0,,4,,,64,127
18913,note_on,1,0,0,,4,,,76,127
19022,note_off,109,0,0,,4,,,76,127
19022,note_off,0,0,0,,4,,,52,127
19023,note_on,1,0,0,,10,,,57,127
19023,note_on,0,0,0,,2,,,62,127
19023,note_on,0,0,0,,5,,,65,127
19132,note_off,109,0,0,,5,,,65,127
19133,note_on,1,0,0,,2,,,74,127
19242,note_off,109,0,0,,2,,,74,127
19242,note_off,0,0,0,,2,,,62,127
19242,note_off,0,0,0,,10,,,57,127
19243,note_on,1,0,0,,2,,,62,127
19243,note_on,0,0,0,,8,,,56,127
19243,note_on,0,0,0,,4,,,64,127
19352,note_off,109,0,0,,4,,,64,127
19353,note_on,1,0,0,,2,,,74,127
19462,note_off,109,0,0,,2,,,74,127
19462,note_off,0,0,0,,8,,,56,127
19462,note_off,0,0,0,,2,,,62,127
19463,note_on,1,0,0,,8,,,56,127
19463,note_on,0,0,0,,2,,,62,127
19463,note_on,0,0,0,,4,,,64,127
19572,note_off,109,0,0,,4,,,64,127
19573,note_on,1,0,0,,2,,,74,127
19682,note_off,109,0,0,,2,,,74,127
19682,note_off,0,0,0,,2,,,62,127
19682,note_off,0,0,0,,8,,,56,127
19683,note_on,1,0,0,,10,,,57,127
19683,note_on,0,0,0,,2,,,62,127
19683,note_on,0,0,0,,5,,,65,127
19792,note_off,109,0,0,,5,,,65,127
19793,note_on,1,0,0,,2,,,74,127
19902,note_off,109,0,0,,2,,,74,127
19902,note_off,0,0,0,,2,,,62,127
19902,note_off,0,0,0,,10,,,57,127
19903,note_on,1,0,0,,8,,,56,127
19903,note_on,0,0,0,,2,,,62,127
19903,note_on,0,0,0,,4,,,64,127
20012,note_off,109,0,0,,4,,,64,127
20013,note_on,1,0,0,,2,,,74,127
20122,note_off,109,0,0,,2,,,74,127
20122,note_off,0,0,0,,2,,,62,127
20122,note_off,0,0,0,,8,,,56,127
20123,note_on,1,0,0,,8,,,56,127
20123,note_on,0,0,0,,2,,,62,127
20123,note_on,0,0,0,,4,,,64,127
20232,note_off,109,0,0,,4,,,64,127
20233,note_on,1,0,0,,2,,,74,127
20342,note_off,109,0,0,,2,,,74,127
20342,note_off,0,0,0,,2,,,62,127
20342,note_off,0,0,0,,8,,,56,127
20343,note_on,1,0,0,,7,,,55,127
20343,note_on,0,0,0,,2,,,62,127
20343,note_on,0,0,0,,4,,,64,127
20452,note_off,109,0,0,,4,,,64,127
20453,note_on,1,0,0,,1,,,73,127
20562,note_off,109,0,0,,1,,,73,127
20562,note_off,0,0,0,,2,,,62,127
20562,note_off,0,0,0,,7,,,55,127
20563,note_on,1,0,0,,5,,,53,127
20563,note_on,0,0,0,,2,,,62,127
20563,note_on,0,0,0,,5,,,65,127
20672,note_off,109,0,0,,5,,,65,127
20673,note_on,1,0,0,,2,,,74,127
20782,note_off,109,0,0,,2,,,74,127
20782,note_off,0,0,0,,2,,,62,127
20782,note_off,0,0,0,,5,,,53,127
20783,note_on,1,0,0,,5,,,53,127
20783,note_on,0,0,0,,2,,,62,127
20783,note_on,0,0,0,,5,,,65,127
20892,note_off,109,0,0,,5,,,65,127
20893,note_on,1,0,0,,2,,,74,127
21002,note_off,109,0,0,,2,,,74,127
21002,note_off,0,0,0,,2,,,62,127
21002,note_off,0,0,0,,5,,,53,127
21003,note_on,1,0,0,,7,,,55,127
21003,note_on,0,0,0,,2,,,62,127
21003,note_on,0,0,0,,7,,,67,127
21112,note_off,109,0,0,,7,,,67,127
21113,note_on,1,0,0,,4,,,76,127
21222,note_off,109,0,0,,4,,,76,127
21222,note_off,0,0,0,,2,,,62,127
21222,note_off,0,0,0,,7,,,55,127
21223,note_on,1,0,0,,5,,,53,127
21223,note_on,0,0,0,,2,,,62,127
21223,note_on,0,0,0,,10,,,69,127
21332,note_off,109,0,0,,10,,,69,127
21333,note_on,1,0,0,,5,,,77,127
21442,note_off,109,0,0,,5,,,77,127
21442,note_off,0,0,0,,2,,,62,127
21442,note_off,0,0,0,,5,,,53,127
21443,note_on,1,0,0,,2,,,62,127
21443,note_on,0,0,0,,5,,,53,127
21443,note_on,0,0,0,,10,,,69,127
21552,note_off,109,0,0,,10,,,69,127
21553,note_on,1,0,0,,5,,,77,127
21662,note_off,109,0,0,,5,,,77,127
21662,note_off,0,0,0,,5,,,53,127
21662,note_off,0,0,0,,2,,,62,127
21663,note_on,1,0,0,,2,,,62,127
21663,note_on,0,0,0,,7,,,55,127
21663,note_on,0,0,0,,11,,,70,127
21772,note_off,109,0,0,,11,,,70,127
21773,note_on,1,0,0,,7,,,79,127
21882,note_off,109,0,0,,7,,,79,127
21882,note_off,0,0,0,,7,,,55,127
21882,note_off,0,0,0,,2,,,62,127
21883,note_on,1,0,0,,2,,,62,127
21883,note_on,0,0,0,,5,,,53,127
21883,note_on,0,0,0,,10,,,69,127
21992,note_off,109,0,0,,10,,,69,127
21993,note_on,1,0,0,,10,,,81,127
22102,note_off,109,0,0,,10,,,81,127
22102,note_off,0,0,0,,5,,,53,127
22102,note_off,0,0,0,,2,,,62,127
22103,note_on,1,0,0,,5,,,53,127
22103,note_on,0,0,0,,2,,,62,127
22103,note_on,0,0,0,,10,,,69,127
22212,note_off,109,0,0,,10,,,69,127
22213,note_on,1,0,0,,10,,,81,127
22322,note_off,109,0,0,,10,,,81,127
22322,note_off,0,0,0,,2,,,62,127
22322,note_off,0,0,0,,5,,,53,127
22323,note_on,1,0,0,,2,,,62,127
22323,note_on,0,0,0,,5,,,53,127
22323,note_on,0,0,0,,12,,,71,127
22432,note_off,109,0,0,,12,,,71,127
22433,note_on,1,0,0,,10,,,81,127
22542,note_off,109,0,0,,10,,,81,127
22542,note_off,0,0,0,,5,,,53,127
22542,note_off,0,0,0,,2,,,62,127
22543,note_on,1,0,0,,4,,,64,127
22543,note_on,0,0,0,,4,,,52,127
22543,note_on,0,0,0,,0,,,72,127
22652,note_off,109,0,0,,0,,,72,127
22653,note_on,1,0,0,,10,,,81,127
22762,note_off,109,0,0,,10,,,81,127
22762,note_off,0,0,0,,4,,,52,127
22762,note_off,0,0,0,,4,,,64,127
22763,note_on,1,0,0,,4,,,64,127
22763,note_on,0,0,0,,4,,,52,127
22763,note_on,0,0,0,,0,,,72,127
22872,note_off,109,0,0,,0,,,72,127
22873,note_on,1,0,0,,10,,,81,127
22982,note_off,109,0,0,,10,,,81,127
22982,note_off,0,0,0,,4,,,52,127
22982,note_off,0,0,0,,4,,,64,127
22983,note_on,1,0,0,,4,,,64,127
22983,note_on,0,0,0,,4,,,52,127
22983,note_on,0,0,0,,0,,,72,127
23092,note_off,109,0,0,,0,,,72,127
23093,note_on,1,0,0,,10,,,81,127
23202,note_off,109,0,0,,10,,,81,127
23202,note_off,0,0,0,,4,,,52,127
23202,note_off,0,0,0,,4,,,64,127
23203,note_on,1,0,0,,3,,,63,127
23203,note_on,0,0,0,,4,,,52,127
23203,note_on,0,0,0,,0,,,72,127
23312,note_off,109,0,0,,0,,,72,127
23313,note_on,1,0,0,,10,,,81,127
23422,note_off,109,0,0,,10,,,81,127
23422,note_off,0,0,0,,4,,,52,127
23422,note_off,0,0,0,,3,,,63,127
23423,note_on,1,0,0,,4,,,64,127
23423,note_on,0,0,0,,4,,,52,127
23423,note_on,0,0,0,,12,,,71,127
23532,note_off,109,0,0,,12,,,71,127
23533,note_on,1,0,0,,10,,,81,127
23642,note_off,109,0,0,,10,,,81,127
23642,note_off,0,0,0,,4,,,52,127
23642,note_off,0,0,0,,4,,,64,127
23643,note_on,1,0,0,,3,,,63,127
23643,note_on,0,0,0,,4,,,52,127
23643,note_on,0,0,0,,0,,,72,127
23752,note_off,109,0,0,,0,,,72,127
23753,note_on,1,0,0,,10,,,81,127
23862,note_off,109,0,0,,10,,,81,127
23862,note_off,0,0,0,,4,,,52,127
23862,note_off,0,0,0,,3,,,63,127
23863,note_on,1,0,0,,4,,,52,127
23863,note_on,0,0,0,,4,,,64,127
23863,note_on,0,0,0,,12,,,71,127
23972,note_off,109,0,0,,12,,,71,127
23973,note_on,1,0,0,,10,,,81,127
24082,note_off,109,0,0,,10,,,81,127
24082,note_off,0,0,0,,4,,,64,127
24082,note_off,0,0,0,,4,,,52,127
24083,note_on,1,0,0,,4,,,52,127
24083,note_on,0,0,0,,3,,,63,127
24083,note_on,0,0,0,,0,,,72,127
24192,note_off,109,0,0,,0,,,72,127
24193,note_on,1,0,0,,10,,,81,127
24302,note_off,109,0,0,,10,,,81,127
24302,note_off,0,0,0,,3,,,63,127
24302,note_off,0,0,0,,4,,,52,127
24303,note_on,1,0,0,,4,,,52,127
24303,note_on,0,0,0,,4,,,64,127
24303,note_on,0,0,0,,12,,,71,127
24412,note_off,109,0,0,,12,,,71,127
24413,note_on,1,0,0,,10,,,81,127
24522,note_off,109,0,0,,10,,,81,127
24522,note_off,0,0,0,,4,,,64,127
24522,note_off,0,0,0,,4,,,52,127
24523,note_on,1,0,0,,4,,,52,127
24523,note_on,0,0,0,,3,,,63,127
24523,note_on,0,0,0,,0,,,72,127
24632,note_off,109,0,0,,0,,,72,127
24633,note_on,1,0,0,,10,,,81,127
24742,note_off,109,0,0,,10,,,81,127
24742,note_off,0,0,0,,3,,,63,127
24742,note_off,0,0,0,,4,,,52,127
24743,note_on,1,0,0,,4,,,64,127
24743,note_on,0,0,0,,4,,,52,127
24743,note_on,0,0,0,,12,,,71,127
24852,note_off,109,0,0,,12,,,71,127
24853,note_on,1,0,0,,10,,,81,127
24962,note_off,109,0,0,,10,,,81,127
24962,note_off,0,0,0,,4,,,52,127
24962,note_off,0,0,0,,4,,,64,127
24963,note_on,1,0,0,,4,,,52,127
24963,note_on,0,0,0,,3,,,63,127
24963,note_on,0,0,0,,0,,,72,127
25072,note_off,109,0,0,,0,,,72,127
25073,note_on,1,0,0,,10,,,81,127
25182,note_off,109,0,0,,10,,,81,127
25182,note_off,0,0,0,,3,,,63,127
25182,note_off,0,0,0,,4,,,52,127
25183,note_on,1,0,0,,4,,,52,127
25183,note_on,0,0,0,,4,,,64,127
25183,note_on,0,0,0,,12,,,71,127
25292,note_off,109,0,0,,12,,,71,127
25293,note_on,1,0,0,,10,,,81,127
25402,note_off,109,0,0,,10,,,81,127
25403,note_on,1,0,0,,8,,,80,127
25512,note_off,109,0,0,,8,,,80,127
25513,note_on,1,0,0,,4,,,76,127
25622,note_off,109,0,0,,4,,,76,127
25623,note_on,1,0,0,,6,,,78,127
25732,note_off,109,0,0,,6,,,78,127
25733,note_on,1,0,0,,3,,,75,127
25842,note_off,109,0,0,,3,,,75,127
25842,note_off,0,0,0,,4,,,64,127
25842,note_off,0,0,0,,4,,,52,127
25843,note_on,1,0,0,,4,,,40,127
25843,note_on,0,0,0,,4,,,76,127
25952,note_off,109,0,0,,4,,,76,127
25953,note_on,1,0,0,,12,,,71,127
26062,note_off,109,0,0,,12,,,71,127
26063,note_on,1,0,0,,0,,,72,127
26172,note_off,109,0,0,,0,,,72,127
26173,note_on,1,0,0,,10,,,69,127
26282,note_off,109,0,0,,10,,,69,127
26283,note_on,1,0,0,,12,,,71,127
26392,note_off,109,0,0,,12,,,71,127
26393,note_on,1,0,0,,6,,,66,127
26502,note_off,109,0,0,,6,,,66,127
26502,note_off,0,0,0,,4,,,40,127
26503,note_on,1,0,0,,4,,,40,127
26503,note_on,0,0,0,,8,,,68,127
26612,note_off,109,0,0,,8,,,68,127
26613,note_on,1,0,0,,3,,,63,127
26722,note_off,109,0,0,,3,,,63,127
26723,note_on,1,0,0,,4,,,64,127
26832,note_off,109,0,0,,4,,,64,127
26833,note_on,1,0,0,,12,,,59,127
26942,note_off,109,0,0,,12,,,59,127
26943,note_on,1,0,0,,0,,,60,127
27052,note_off,109,0,0,,0,,,60,127
27053,note_on,1,0,0,,10,,,57,127
27162,note_off,109,0,0,,10,,,57,127
27162,note_off,0,0,0,,4,,,40,127
27163,note_on,1,0,0,,4,,,40,127
27163,note_on,0,0,0,,12,,,59,127
27272,note_off,109,0,0,,12,,,59,127
27273,note_on,1,0,0,,6,,,54,127
27382,note_off,109,0,0,,6,,,54,127
27383,note_on,1,0,0,,8,,,56,127
27492,note_off,109,0,0,,8,,,56,127
27493,note_on,1,0,0,,4,,,52,127
27602,note_off,109,0,0,,4,,,52,127
27603,note_on,1,0,0,,6,,,54,127
27712,note_off,109,0,0,,6,,,54,127
27713,note_on,1,0,0,,3,,,51,127
27822,note_off,109,0,0,,3,,,51,127
27822,note_off,0,0,0,,4,,,40,127
27823,note_on,1,0,0,,4,,,52,127
27932,note_off,109,0,0,,4,,,52,127
27933,note_on,1,0,0,,4,,,64,127
28042,note_off,109,0,0,,4,,,64,127
28043,note_on,1,0,0,,2,,,62,127
28152,note_off,109,0,0,,2,,,62,127
28153,note_on,1,0,0,,1,,,61,127
28262,note_off,109,0,0,,1,,,61,127
28263,note_on,1,0,0,,12,,,59,127
28372,note_off,109,0,0,,12,,,59,127
28373,note_on,1,0,0,,10,,,57,127
28482,note_off,109,0,0,,10,,,57,127
28483,note_on,1,0,0,,8,,,56,127
28592,note_off,109,0,0,,8,,,56,127
28593,note_on,1,0,0,,6,,,54,127
28702,note_off,109,0,0,,6,,,54,127
28703,note_on,1,0,0,,4,,,52,127
28703,note_on,0,0,0,,12,,,83,127
28812,note_off,109,0,0,,4,,,52,127
28813,note_on,1,0,0,,2,,,50,127
28922,note_off,109,0,0,,2,,,50,127
28923,note_on,1,0,0,,1,,,49,127
29032,note_off,109,0,0,,1,,,49,127
29032,note_off,0,0,0,,12,,,83,127
29033,note_on,1,0,0,,12,,,47,127
29033,note_on,0,0,0,,2,,,74,127
29142,note_off,109,0,0,,2,,,74,127
29142,note_off,0,0,0,,12,,,47,127
29143,note_on,1,0,0,,10,,,45,127
29143,note_on,0,0,0,,2,,,74,127
29197,note_off,54,0,0,,2,,,74,127
29198,note_on,1,0,0,,1,,,73,127
29252,note_off,54,0,0,,1,,,73,127
29252,note_off,0,0,0,,10,,,45,127
29253,note_on,1,0,0,,4,,,64,127
29253,note_on,0,0,0,,2,,,74,127
29307,note_off,54,0,0,,2,,,74,127
29308,note_on,1,0,0,,1,,,73,127
29362,note_off,54,0,0,,1,,,73,127
29362,note_off,0,0,0,,4,,,64,127
29363,note_on,1,0,0,,2,,,62,127
29363,note_on,0,0,0,,2,,,74,127
29417,note_off,54,0,0,,2,,,74,127
29418,note_on,1,0,0,,1,,,73,127
29472,note_off,54,0,0,,1,,,73,127
29472,note_off,0,0,0,,2,,,62,127
29473,note_on,1,0,0,,1,,,61,127
29473,note_on,0,0,0,,2,,,74,127
29527,note_off,54,0,0,,2,,,74,127
29528,note_on,1,0,0,,1,,,73,127
29582,note_off,54,0,0,,1,,,73,127
29582,note_off,0,0,0,,1,,,61,127
29583,note_on,1,0,0,,12,,,59,127
29583,note_on,0,0,0,,2,,,74,127
29637,note_off,54,0,0,,2,,,74,127
29638,note_on,1,0,0,,1,,,73,127
29692,note_off,54,0,0,,1,,,73,127
29692,note_off,0,0,0,,12,,,59,127
29693,note_on,1,0,0,,10,,,57,127
29693,note_on,0,0,0,,2,,,74,127
29747,note_off,54,0,0,,2,,,74,127
29748,note_on,1,0,0,,1,,,73,127
29802,note_off,54,0,0,,10,,,57,127
29803,note_on,1,0,0,,8,,,56,127
29857,note_off,54,0,0,,1,,,73,127
29912,note_off,55,0,0,,8,,,56,127
29913,note_on,1,0,0,,6,,,54,127
30022,note_off,109,0,0,,6,,,54,127
30023,note_on,1,0,0,,4,,,52,127
30023,note_on,0,0,0,,12,,,83,127
30132,note_off,109,0,0,,4,,,52,127
30133,note_on,1,0,0,,2,,,50,127
30242,note_off,109,0,0,,2,,,50,127
30243,note_on,1,0,0,,1,,,49,127
30352,note_off,109,0,0,,1,,,49,127
30352,note_off,0,0,0,,12,,,83,127
30353,note_on,1,0,0,,12,,,47,127
30353,note_on,0,0,0,,2,,,74,127
30462,note_off,109,0,0,,2,,,74,127
30462,note_off,0,0,0,,12,,,47,127
30463,note_on,1,0,0,,10,,,45,127
30463,note_on,0,0,0,,1,,,73,127
30572,note_off,109,0,0,,1,,,73,127
30573,note_on,1,0,0,,12,,,83,127
30682,note_off,109,0,0,,12,,,83,127
30682,note_off,0,0,0,,10,,,45,127
30683,note_on,1,0,0,,12,,,47,127
30683,note_on,0,0,0,,10,,,81,127
30792,note_off,109,0,0,,10,,,81,127
30793,note_on,1,0,0,,8,,,80,127
30902,note_off,109,0,0,,8,,,80,127
30902,note_off,0,0,0,,12,,,47,127
30903,note_on,1,0,0,,1,,,49,127
30903,note_on,0,0,0,,10,,,81,127
31012,note_off,109,0,0,,10,,,81,127
31013,note_on,1,0,0,,4,,,76,127
31122,note_off,109,0,0,,4,,,76,127
31122,note_off,0,0,0,,1,,,49,127
31123,note_on,1,0,0,,2,,,50,127
31123,note_on,0,0,0,,6,,,78,127
31232,note_off,109,0,0,,6,,,78,127
31233,note_on,1,0,0,,2,,,74,127
31342,note_off,109,0,0,,2,,,74,127
31342,note_off,0,0,0,,2,,,50,127
31343,note_on,1,0,0,,4,,,52,127
31343,note_on,0,0,0,,1,,,73,127
31452,note_off,109,0,0,,1,,,73,127
31453,note_on,1,0,0,,12,,,71,127
31562,note_off,109,0,0,,12,,,71,127
31562,note_off,0,0,0,,4,,,52,127
31563,note_on,1,0,0,,4,,,40,127
31563,note_on,0,0,0,,10,,,69,127
31672,note_off,109,0,0,,10,,,69,127
31673,note_on,1,0,0,,8,,,68,127
31782,note_off,109,0,0,,8,,,68,127
31782,note_off,0,0,0,,4,,,40,127
31783,note_on,1,0,0,,10,,,45,127
31783,note_on,0,0,0,,10,,,69,127
31892,note_off,109,0,0,,10,,,69,127
31893,note_on,1,0,0,,10,,,81,127
32002,note_off,109,0,0,,10,,,81,127
32002,note_off,0,0,0,,10,,,45,127
32003,note_on,1,0,0,,12,,,47,127
32003,note_on,0,0,0,,4,,,76,127
32112,note_off,109,0,0,,4,,,76,127
32113,note_on,1,0,0,,1,,,73,127
32222,note_off,109,0,0,,1,,,73,127
32222,note_off,0,0,0,,12,,,47,127
32223,note_on,1,0,0,,1,,,49,127
32223,note_on,0,0,0,,10,,,69,127
32332,note_off,109,0,0,,10,,,69,127
32333,note_on,1,0,0,,1,,,73,127
32442,note_off,109,0,0,,1,,,73,127
32442,note_off,0,0,0,,1,,,49,127
32443,note_on,1,0,0,,2,,,50,127
32443,note_on,0,0,0,,12,,,71,127
32553,note_on,110,0,0,,4,,,64,127
32660,note_off,107,0,0,,12,,,71,127
32661,note_off,1,0,0,,4,,,64,127
32661,note_off,0,0,0,,2,,,50,127
32662,note_on,1,0,0,,4,,,52,127
32662,note_on,0,0,0,,12,,,71,127
32772,note_on,110,0,0,,4,,,64,127
32879,note_off,107,0,0,,12,,,71,127
32880,note_off,1,0,0,,4,,,64,127
32880,note_off,0,0,0,,4,,,52,127
32881,note_on,1,0,0,,4,,,40,127
32881,note_on,0,0,0,,12,,,71,127
32991,note_on,110,0,0,,2,,,74,127
33098,note_off,107,0,0,,12,,,71,127
33099,note_off,1,0,0,,2,,,74,127
33099,note_off,0,0,0,,4,,,40,127
33100,note_on,1,0,0,,10,,,45,127
33100,note_on,0,0,0,,1,,,73,127
33209,note_off,109,0,0,,1,,,73,127
33210,note_on,1,0,0,,10,,,81,127
33319,note_off,109,0,0,,10,,,81,127
33319,note_off,0,0,0,,10,,,45,127
33320,note_on,1,0,0,,12,,,47,127
33320,note_on,0,0,0,,4,,,76,127
33429,note_off,109,0,0,,4,,,76,127
33430,note_on,1,0,0,,1,,,73,127
33539,note_off,109,0,0,,1,,,73,127
33539,note_off,0,0,0,,12,,,47,127
33540,note_on,1,0,0,,1,,,49,127
33540,note_on,0,0,0,,10,,,69,127
33649,note_off,109,0,0,,10,,,69,127
33650,note_on,1,0,0,,1,,,73,127
33759,note_off,109,0,0,,1,,,73,127
33759,note_off,0,0,0,,1,,,49,127
33760,note_on,1,0,0,,2,,,50,127
33760,note_on,0,0,0,,12,,,71,127
33870,note_on,110,0,0,,4,,,64,127
33977,note_off,107,0,0,,12,,,71,127
33978,note_off,1,0,0,,4,,,64,127
33978,note_off,0,0,0,,2,,,50,127
33979,note_on,1,0,0,,4,,,52,127
33979,note_on,0,0,0,,12,,,71,127
34089,note_on,110,0,0,,4,,,64,127
34196,note_off,107,0,0,,12,,,71,127
34197,note_off,1,0,0,,4,,,64,127
34197,note_off,0,0,0,,4,,,52,127
34198,note_on,1,0,0,,4,,,40,127
34198,note_on,0,0,0,,12,,,71,127
34308,note_on,110,0,0,,2,,,74,127
34415,note_off,107,0,0,,12,,,71,127
34416,note_off,1,0,0,,2,,,74,127
34416,note_off,0,0,0,,4,,,40,127
34417,note_on,1,0,0,,10,,,45,127
34417,note_on,0,0,0,,1,,,73,127
34526,note_off,109,0,0,,1,,,73,127
34527,note_on,1,0,0,,10,,,81,127
34636,note_off,109,0,0,,10,,,81,127
34636,note_off,0,0,0,,10,,,45,127
34637,note_on,1,0,0,,12,,,47,127
34637,note_on,0,0,0,,4,,,76,127
34746,note_off,109,0,0,,4,,,76,127
34747,note_on,1,0,0,,1,,,73,127
34856,note_off,109,0,0,,1,,,73,127
34856,note_off,0,0,0,,12,,,47,127
34857,note_on,1,0,0,,1,,,49,127
34857,note_on,0,0,0,,10,,,69,127
34966,note_off,109,0,0,,10,,,69,127
34967,note_on,1,0,0,,1,,,73,127
35076,note_off,109,0,0,,1,,,73,127
35076,note_off,0,0,0,,1,,,49,127
35077,note_on,1,0,0,,2,,,50,127
35077,note_on,0,0,0,,12,,,71,127
35187,note_on,110,0,0,,4,,,64,127
35294,note_off,107,0,0,,12,,,71,127
35295,note_off,1,0,0,,4,,,64,127
35295,note_off,0,0,0,,2,,,50,127
35296,note_on,1,0,0,,4,,,52,127
35296,note_on,0,0,0,,12,,,71,127
35406,note_on,110,0,0,,2,,,74,127
35513,note_off,107,0,0,,12,,,71,127
35514,note_off,1,0,0,,2,,,74,127
35514,note_off,0,0,0,,4,,,52,127
35515,note_on,1,0,0,,4,,,40,127
35515,note_on,0,0,0,,12,,,71,127
35624,note_off,109,0,0,,12,,,71,127
35625,note_on,1,0,0,,8,,,68,127
35734,note_off,109,0,0,,8,,,68,127
35734,note_off,0,0,0,,4,,,40,127
35735,note_on,1,0,0,,10,,,45,127
35735,note_on,0,0,0,,10,,,69,127
36169,note_off,434,0,0,,10,,,69,127
36392,note_off,223,0,0,,10,,,45,127
36393,note_on,1,0,0,,10,,,45,127
36393,note_on,0,0,0,,10,,,57,127
36393,note_on,0,0,0,,10,,,69,127
36502,note_off,109,0,0,,10,,,69,127
36503,note_on,1,0,0,,4,,,64,127
36612,note_off,109,0,0,,4,,,64,127
36612,note_off,0,0,0,,10,,,57,127
36612,note_off,0,0,0,,10,,,45,127
36613,note_on,1,0,0,,10,,,45,127
36613,note_on,0,0,0,,10,,,57,127
36613,note_on,0,0,0,,1,,,73,127
36722,note_off,109,0,0,,1,,,73,127
36723,note_on,1,0,0,,4,,,64,127
36832,note_off,109,0,0,,4,,,64,127
36832,note_off,0,0,0,,10,,,57,127
36832,note_off,0,0,0,,10,,,45,127
36833,note_on,1,0,0,,10,,,45,127
36833,note_on,0,0,0,,10,,,57,127
36833,note_on,0,0,0,,10,,,69,127
36942,note_off,109,0,0,,10,,,69,127
36943,note_on,1,0,0,,4,,,64,127
37052,note_off,109,0,0,,4,,,64,127
37052,note_off,0,0,0,,10,,,57,127
37052,note_off,0,0,0,,10,,,45,127
37053,note_on,1,0,0,,10,,,45,127
37053,note_on,0,0,0,,10,,,57,127
37053,note_on,0,0,0,,4,,,76,127
37162,note_off,109,0,0,,4,,,76,127
37163,note_on,1,0,0,,4,,,64,127
37272,note_off,109,0,0,,4,,,64,127
37272,note_off,0,0,0,,10,,,57,127
37272,note_off,0,0,0,,10,,,45,127
37273,note_on,1,0,0,,10,,,57,127
37273,note_on,0,0,0,,10,,,45,127
37273,note_on,0,0,0,,1,,,73,127
37382,note_off,109,0,0,,1,,,73,127
37383,note_on,1,0,0,,4,,,64,127
37492,note_off,109,0,0,,4,,,64,127
37492,note_off,0,0,0,,10,,,45,127
37492,note_off,0,0,0,,10,,,57,127
37493,note_on,1,0,0,,10,,,57,127
37493,note_on,0,0,0,,10,,,45,127
37493,note_on,0,0,0,,10,,,69,127
37602,note_off,109,0,0,,10,,,69,127
37603,note_on,1,0,0,,4,,,64,127
37712,note_off,109,0,0,,4,,,64,127
37712,note_off,0,0,0,,10,,,45,127
37712,note_off,0,0,0,,10,,,57,127
37713,note_on,1,0,0,,10,,,45,127
37713,note_on,0,0,0,,7,,,55,127
37713,note_on,0,0,0,,4,,,52,127
37713,note_on,0,0,0,,7,,,67,127
37822,note_off,109,0,0,,7,,,67,127
37823,note_on,1,0,0,,4,,,64,127
37932,note_off,109,0,0,,4,,,64,127
37932,note_off,0,0,0,,4,,,52,127
37932,note_off,0,0,0,,7,,,55,127
37932,note_off,0,0,0,,10,,,45,127
37933,note_on,1,0,0,,4,,,52,127
37933,note_on,0,0,0,,10,,,45,127
37933,note_on,0,0,0,,7,,,55,127
37933,note_on,0,0,0,,4,,,76,127
38042,note_off,109,0,0,,4,,,76,127
38043,note_on,1,0,0,,4,,,64,127
38152,note_off,109,0,0,,4,,,64,127
38152,note_off,0,0,0,,7,,,55,127
38152,note_off,0,0,0,,10,,,45,127
38152,note_off,0,0,0,,4,,,52,127
38153,note_on,1,0,0,,10,,,45,127
38153,note_on,0,0,0,,7,,,55,127
38153,note_on,0,0,0,,4,,,52,127
38153,note_on,0,0,0,,1,,,73,127
38262,note_off,109,0,0,,1,,,73,127
38263,note_on,1,0,0,,4,,,64,127
38372,note_off,109,0,0,,4,,,64,127
38372,note_off,0,0,0,,4,,,52,127
38372,note_off,0,0,0,,7,,,55,127
38372,note_off,0,0,0,,10,,,45,127
38373,note_on,1,0,0,,10,,,45,127
38373,note_on,0,0,0,,7,,,55,127
38373,note_on,0,0,0,,4,,,52,127
38373,note_on,0,0,0,,7,,,67,127
38482,note_off,109,0,0,,7,,,67,127
38483,note_on,1,0,0,,4,,,64,127
38592,note_off,109,0,0,,4,,,64,127
38592,note_off,0,0,0,,4,,,52,127
38592,note_off,0,0,0,,7,,,55,127
38592,note_off,0,0,0,,10,,,45,127
38593,note_on,1,0,0,,4,,,52,127
38593,note_on,0,0,0,,7,,,55,127
38593,note_on,0,0,0,,10,,,45,127
38593,note_on,0,0,0,,4,,,76,127
38702,note_off,109,0,0,,4,,,76,127
38703,note_on,1,0,0,,4,,,64,127
38812,note_off,109,0,0,,4,,,64,127
38812,note_off,0,0,0,,10,,,45,127
38812,note_off,0,0,0,,7,,,55,127
38812,note_off,0,0,0,,4,,,52,127
38813,note_on,1,0,0,,4,,,52,127
38813,note_on,0,0,0,,10,,,45,127
38813,note_on,0,0,0,,7,,,55,127
38813,note_on,0,0,0,,1,,,73,127
38922,note_off,109,0,0,,1,,,73,127
38923,note_on,1,0,0,,4,,,64,127
39032,note_off,109,0,0,,4,,,64,127
39032,note_off,0,0,0,,7,,,55,127
39032,note_off,0,0,0,,10,,,45,127
39032,note_off,0,0,0,,4,,,52,127
39033,note_on,1,0,0,,10,,,45,127
39033,note_on,0,0,0,,2,,,50,127
39033,note_on,0,0,0,,6,,,54,127
39033,note_on,0,0,0,,2,,,74,127
39142,note_off,109,0,0,,2,,,74,127
39143,note_on,1,0,0,,2,,,62,127
39252,note_off,109,0,0,,2,,,62,127
39252,note_off,0,0,0,,6,,,54,127
39252,note_off,0,0,0,,2,,,50,127
39252,note_off,0,0,0,,10,,,45,127
39253,note_on,1,0,0,,10,,,45,127
39253,note_on,0,0,0,,2,,,50,127
39253,note_on,0,0,0,,6,,,54,127
39253,note_on,0,0,0,,6,,,66,127
39362,note_off,109,0,0,,6,,,66,127
39363,note_on,1,0,0,,2,,,62,127
39472,note_off,109,0,0,,2,,,62,127
39472,note_off,0,0,0,,6,,,54,127
39472,note_off,0,0,0,,2,,,50,127
39472,note_off,0,0,0,,10,,,45,127
39473,note_on,1,0,0,,10,,,45,127
39473,note_on,0,0,0,,2,,,50,127
39473,note_on,0,0,0,,6,,,54,127
39473,note_on,0,0,0,,10,,,69,127
39582,note_off,109,0,0,,10,,,69,127
39583,note_on,1,0,0,,2,,,62,127
39692,note_off,109,0,0,,2,,,62,127
39692,note_off,0,0,0,,6,,,54,127
39692,note_off,0,0,0,,2,,,50,127
39692,note_off,0,0,0,,10,,,45,127
39693,note_on,1,0,0,,10,,,45,127
39693,note_on,0,0,0,,6,,,54,127
39693,note_on,0,0,0,,2,,,50,127
39693,note_on,0,0,0,,2,,,74,127
39802,note_off,109,0,0,,2,,,74,127
39803,note_on,1,0,0,,2,,,62,127
39912,note_off,109,0,0,,2,,,62,127
39912,note_off,0,0,0,,2,,,50,127
39912,note_off,0,0,0,,6,,,54,127
39912,note_off,0,0,0,,10,,,45,127
39913,note_on,1,0,0,,10,,,45,127
39913,note_on,0,0,0,,6,,,54,127
39913,note_on,0,0,0,,2,,,50,127
39913,note_on,0,0,0,,6,,,66,127
40022,note_off,109,0,0,,6,,,66,127
40023,note_on,1,0,0,,2,,,62,127
40132,note_off,109,0,0,,2,,,62,127
40132,note_off,0,0,0,,2,,,50,127
40132,note_off,0,0,0,,6,,,54,127
40132,note_off,0,0,0,,10,,,45,127
40133,note_on,1,0,0,,10,,,45,127
40133,note_on,0,0,0,,2,,,50,127
40133,note_on,0,0,0,,6,,,54,127
40133,note_on,0,0,0,,10,,,69,127
40242,note_off,109,0,0,,10,,,69,127
40243,note_on,1,0,0,,2,,,62,127
40352,note_off,109,0,0,,2,,,62,127
40352,note_off,0,0,0,,6,,,54,127
40352,note_off,0,0,0,,2,,,50,127
40352,note_off,0,0,0,,10,,,45,127
40353,note_on,1,0,0,,8,,,56,127
40353,note_on,0,0,0,,10,,,45,127
40353,note_on,0,0,0,,2,,,74,127
40462,note_off,109,0,0,,2,,,74,127
40463,note_on,1,0,0,,2,,,62,127
40572,note_off,109,0,0,,2,,,62,127
40572,note_off,0,0,0,,10,,,45,127
40572,note_off,0,0,0,,8,,,56,127
40573,note_on,1,0,0,,10,,,45,127
40573,note_on,0,0,0,,8,,,56,127
40573,note_on,0,0,0,,12,,,71,127
40682,note_off,109,0,0,,12,,,71,127
40683,note_on,1,0,0,,2,,,62,127
40792,note_off,109,0,0,,2,,,62,127
40792,note_off,0,0,0,,8,,,56,127
40792,note_off,0,0,0,,10,,,45,127
40793,note_on,1,0,0,,8,,,56,127
40793,note_on,0,0,0,,10,,,45,127
40793,note_on,0,0,0,,8,,,68,127
40902,note_off,109,0,0,,8,,,68,127
40903,note_on,1,0,0,,2,,,62,127
41012,note_off,109,0,0,,2,,,62,127
41012,note_off,0,0,0,,10,,,45,127
41012,note_off,0,0,0,,8,,,56,127
41013,note_on,1,0,0,,8,,,56,127
41013,note_on,0,0,0,,10,,,45,127
41013,note_on,0,0,0,,5,,,65,127
41122,note_off,109,0,0,,5,,,65,127
41123,note_on,1,0,0,,2,,,62,127
41232,note_off,109,0,0,,2,,,62,127
41232,note_off,0,0,0,,10,,,45,127
41232,note_off,0,0,0,,8,,,56,127
41233,note_on,1,0,0,,8,,,56,127
41233,note_on,0,0,0,,10,,,45,127
41233,note_on,0,0,0,,8,,,68,127
41342,note_off,109,0,0,,8,,,68,127
41343,note_on,1,0,0,,2,,,62,127
41452,note_off,109,0,0,,2,,,62,127
41452,note_off,0,0,0,,10,,,45,127
41452,note_off,0,0,0,,8,,,56,127
41453,note_on,1,0,0,,8,,,56,127
41453,note_on,0,0,0,,10,,,45,127
41453,note_on,0,0,0,,12,,,71,127
41562,note_off,109,0,0,,12,,,71,127
41563,note_on,1,0,0,,2,,,62,127
41672,note_off,109,0,0,,2,,,62,127
41672,note_off,0,0,0,,10,,,45,127
41672,note_off,0,0,0,,8,,,56,127
41673,note_on,1,0,0,,8,,,56,127
41673,note_on,0,0,0,,10,,,45,127
41673,note_on,0,0,0,,2,,,74,127
41782,note_off,109,0,0,,2,,,74,127
41783,note_on,1,0,0,,2,,,62,127
41892,note_off,109,0,0,,2,,,62,127
41892,note_off,0,0,0,,10,,,45,127
41892,note_off,0,0,0,,8,,,56,127
41893,note_on,1,0,0,,8,,,56,127
41893,note_on,0,0,0,,10,,,45,127
41893,note_on,0,0,0,,5,,,65,127
42002,note_off,109,0,0,,5,,,65,127
42003,note_on,1,0,0,,2,,,62,127
42112,note_off,109,0,0,,2,,,62,127
42112,note_off,0,0,0,,10,,,45,127
42112,note_off,0,0,0,,8,,,56,127
42113,note_on,1,0,0,,8,,,56,127
42113,note_on,0,0,0,,10,,,45,127
42113,note_on,0,0,0,,12,,,71,127
42222,note_off,109,0,0,,12,,,71,127
42223,note_on,1,0,0,,2,,,62,127
42332,note_off,109,0,0,,2,,,62,127
42332,note_off,0,0,0,,10,,,45,127
42332,note_off,0,0,0,,8,,,56,127
42333,note_on,1,0,0,,8,,,56,127
42333,note_on,0,0,0,,10,,,45,127
42333,note_on,0,0,0,,2,,,74,127
42442,note_off,109,0,0,,2,,,74,127
42443,note_on,1,0,0,,2,,,62,127
42552,note_off,109,0,0,,2,,,62,127
42552,note_off,0,0,0,,10,,,45,127
42552,note_off,0,0,0,,8,,,56,127
42553,note_on,1,0,0,,10,,,45,127
42553,note_on,0,0,0,,8,,,56,127
42553,note_on,0,0,0,,0,,,72,127
42662,note_off,109,0,0,,0,,,72,127
42663,note_on,1,0,0,,2,,,62,127
42772,note_off,109,0,0,,2,,,62,127
42772,note_off,0,0,0,,8,,,56,127
42772,note_off,0,0,0,,10,,,45,127
42773,note_on,1,0,0,,8,,,56,127
42773,note_on,0,0,0,,10,,,45,127
42773,note_on,0,0,0,,12,,,71,127
42882,note_off,109,0,0,,12,,,71,127
42883,note_on,1,0,0,,2,,,62,127
42992,note_off,109,0,0,,2,,,62,127
42992,note_off,0,0,0,,10,,,45,127
42992,note_off,0,0,0,,8,,,56,127
42993,note_on,1,0,0,,10,,,45,127
42993,note_on,0,0,0,,10,,,57,127
42993,note_on,0,0,0,,0,,,72,127
43102,note_off,109,0,0,,0,,,72,127
43103,note_on,1,0,0,,0,,,60,127
43212,note_off,109,0,0,,0,,,60,127
43212,note_off,0,0,0,,10,,,57,127
43212,note_off,0,0,0,,10,,,45,127
43213,note_on,1,0,0,,10,,,45,127
43213,note_on,0,0,0,,10,,,57,127
43213,note_on,0,0,0,,4,,,64,127
43322,note_off,109,0,0,,4,,,64,127
43323,note_on,1,0,0,,0,,,60,127
43432,note_off,109,0,0,,0,,,60,127
43432,note_off,0,0,0,,10,,,57,127
43432,note_off,0,0,0,,10,,,45,127
43433,note_on,1,0,0,,10,,,45,127
43433,note_on,0,0,0,,10,,,57,127
43433,note_on,0,0,0,,10,,,69,127
43542,note_off,109,0,0,,10,,,69,127
43543,note_on,1,0,0,,0,,,60,127
43652,note_off,109,0,0,,0,,,60,127
43652,note_off,0,0,0,,10,,,57,127
43652,note_off,0,0,0,,10,,,45,127
43653,note_on,1,0,0,,10,,,45,127
43653,note_on,0,0,0,,10,,,57,127
43653,note_on,0,0,0,,0,,,72,127
43762,note_off,109,0,0,,0,,,72,127
43763,note_on,1,0,0,,0,,,60,127
43872,note_off,109,0,0,,0,,,60,127
43872,note_off,0,0,0,,10,,,57,127
43872,note_off,0,0,0,,10,,,45,127
43873,note_on,1,0,0,,10,,,57,127
43873,note_on,0,0,0,,10,,,45,127
43873,note_on,0,0,0,,10,,,69,127
43982,note_off,109,0,0,,10,,,69,127
43983,note_on,1,0,0,,0,,,60,127
44092,note_off,109,0,0,,0,,,60,127
44092,note_off,0,0,0,,10,,,45,127
44092,note_off,0,0,0,,10,,,57,127
44093,note_on,1,0,0,,10,,,57,127
44093,note_on,0,0,0,,10,,,45,127
44093,note_on,0,0,0,,6,,,66,127
44202,note_off,109,0,0,,6,,,66,127
44203,note_on,1,0,0,,0,,,60,127
44312,note_off,109,0,0,,0,,,60,127
44312,note_off,0,0,0,,10,,,45,127
44312,note_off,0,0,0,,10,,,57,127
44313,note_on,1,0,0,,12,,,47,127
44313,note_on,0,0,0,,10,,,57,127
44313,note_on,0,0,0,,3,,,63,127
44422,note_off,109,0,0,,3,,,63,127
44423,note_on,1,0,0,,0,,,60,127
44532,note_off,109,0,0,,0,,,60,127
44532,note_off,0,0,0,,10,,,57,127
44532,note_off,0,0,0,,12,,,47,127
44533,note_on,1,0,0,,12,,,47,127
44533,note_on,0,0,0,,10,,,57,127
44533,note_on,0,0,0,,6,,,66,127
44642,note_off,109,0,0,,6,,,66,127
44643,note_on,1,0,0,,0,,,60,127
44752,note_off,109,0,0,,0,,,60,127
44752,note_off,0,0,0,,10,,,57,127
44752,note_off,0,0,0,,12,,,47,127
44753,note_on,1,0,0,,12,,,47,127
44753,note_on,0,0,0,,10,,,57,127
44753,note_on,0,0,0,,10,,,69,127
44862,note_off,109,0,0,,10,,,69,127
44863,note_on,1,0,0,,0,,,60,127
44972,note_off,109,0,0,,0,,,60,127
44972,note_off,0,0,0,,10,,,57,127
44972,note_off,0,0,0,,12,,,47,127
44973,note_on,1,0,0,,10,,,57,127
44973,note_on,0,0,0,,12,,,47,127
44973,note_on,0,0,0,,0,,,72,127
45082,note_off,109,0,0,,0,,,72,127
45083,note_on,1,0,0,,3,,,63,127
45192,note_off,109,0,0,,3,,,63,127
45192,note_off,0,0,0,,12,,,47,127
45192,note_off,0,0,0,,10,,,57,127
45193,note_on,1,0,0,,10,,,57,127
45193,note_on,0,0,0,,12,,,47,127
45193,note_on,0,0,0,,12,,,71,127
45302,note_off,109,0,0,,12,,,71,127
45303,note_on,1,0,0,,3,,,63,127
45412,note_off,109,0,0,,3,,,63,127
45412,note_off,0,0,0,,12,,,47,127
45412,note_off,0,0,0,,10,,,57,127
45413,note_on,1,0,0,,10,,,57,127
45413,note_on,0,0,0,,12,,,47,127
45413,note_on,0,0,0,,6,,,66,127
45522,note_off,109,0,0,,6,,,66,127
45523,note_on,1,0,0,,3,,,63,127
45632,note_off,109,0,0,,3,,,63,127
45632,note_off,0,0,0,,12,,,47,127
45632,note_off,0,0,0,,10,,,57,127
45633,note_on,1,0,0,,12,,,47,127
45633,note_on,0,0,0,,11,,,58,127
45633,note_on,0,0,0,,7,,,67,127
45742,note_off,109,0,0,,7,,,67,127
45743,note_on,1,0,0,,4,,,64,127
45852,note_off,109,0,0,,4,,,64,127
45852,note_off,0,0,0,,11,,,58,127
45852,note_off,0,0,0,,12,,,47,127
45853,note_on,1,0,0,,11,,,58,127
45853,note_on,0,0,0,,12,,,47,127
45853,note_on,0,0,0,,11,,,70,127
45962,note_off,109,0,0,,11,,,70,127
45963,note_on,1,0,0,,7,,,67,127
46072,note_off,109,0,0,,7,,,67,127
46072,note_off,0,0,0,,12,,,47,127
46072,note_off,0,0,0,,11,,,58,127
46073,note_on,1,0,0,,12,,,47,127
46073,note_on,0,0,0,,11,,,58,127
46073,note_on,0,0,0,,1,,,73,127
46182,note_off,109,0,0,,1,,,73,127
46183,note_on,1,0,0,,7,,,67,127
46292,note_off,109,0,0,,7,,,67,127
46292,note_off,0,0,0,,11,,,58,127
46292,note_off,0,0,0,,12,,,47,127
46293,note_on,1,0,0,,11,,,58,127
46293,note_on,0,0,0,,12,,,47,127
46293,note_on,0,0,0,,4,,,76,127
46402,note_off,109,0,0,,4,,,76,127
46403,note_on,1,0,0,,7,,,67,127
46512,note_off,109,0,0,,7,,,67,127
46512,note_off,0,0,0,,12,,,47,127
46512,note_off,0,0,0,,11,,,58,127
46513,note_on,1,0,0,,11,,,58,127
46513,note_on,0,0,0,,12,,,47,127
46513,note_on,0,0,0,,1,,,73,127
46622,note_off,109,0,0,,1,,,73,127
46623,note_on,1,0,0,,7,,,67,127
46732,note_off,109,0,0,,7,,,67,127
46732,note_off,0,0,0,,12,,,47,127
46732,note_off,0,0,0,,11,,,58,127
46733,note_on,1,0,0,,11,,,58,127
46733,note_on,0,0,0,,12,,,47,127
46733,note_on,0,0,0,,11,,,70,127
46842,note_off,109,0,0,,11,,,70,127
46843,note_on,1,0,0,,7,,,67,127
46952,note_off,109,0,0,,7,,,67,127
46952,note_off,0,0,0,,12,,,47,127
46952,note_off,0,0,0,,11,,,58,127
46953,note_on,1,0,0,,12,,,47,127
46953,note_on,0,0,0,,11,,,58,127
46953,note_on,0,0,0,,4,,,76,127
47062,note_off,109,0,0,,4,,,76,127
47063,note_on,1,0,0,,7,,,67,127
47172,note_off,109,0,0,,7,,,67,127
47172,note_off,0,0,0,,11,,,58,127
47172,note_off,0,0,0,,12,,,47,127
47173,note_on,1,0,0,,12,,,47,127
47173,note_on,0,0,0,,12,,,59,127
47173,note_on,0,0,0,,2,,,74,127
47282,note_off,109,0,0,,2,,,74,127
47283,note_on,1,0,0,,6,,,66,127
47392,note_off,109,0,0,,6,,,66,127
47392,note_off,0,0,0,,12,,,59,127
47392,note_off,0,0,0,,12,,,47,127
47393,note_on,1,0,0,,11,,,58,127
47393,note_on,0,0,0,,12,,,47,127
47393,note_on,0,0,0,,1,,,73,127
47502,note_off,109,0,0,,1,,,73,127
47503,note_on,1,0,0,,4,,,64,127
47612,note_off,109,0,0,,4,,,64,127
47612,note_off,0,0,0,,12,,,47,127
47612,note_off,0,0,0,,11,,,58,127
47613,note_on,1,0,0,,12,,,47,127
47613,note_on,0,0,0,,12,,,59,127
47613,note_on,0,0,0,,2,,,74,127
47722,note_off,109,0,0,,2,,,74,127
47723,note_on,1,0,0,,12,,,71,127
47832,note_off,109,0,0,,12,,,71,127
47832,note_off,0,0,0,,12,,,59,127
47832,note_off,0,0,0,,12,,,47,127
47833,note_on,1,0,0,,12,,,59,127
47833,note_on,0,0,0,,12,,,47,127
47833,note_on,0,0,0,,6,,,66,127
47942,note_off,109,0,0,,6,,,66,127
47943,note_on,1,0,0,,2,,,62,127
48052,note_off,109,0,0,,2,,,62,127
48052,note_off,0,0,0,,12,,,47,127
48052,note_off,0,0,0,,12,,,59,127
48053,note_on,1,0,0,,12,,,47,127
48053,note_on,0,0,0,,12,,,59,127
48053,note_on,0,0,0,,6,,,66,127
48162,note_off,109,0,0,,6,,,66,127
48163,note_on,1,0,0,,12,,,71,127
48272,note_off,109,0,0,,12,,,71,127
48272,note_off,0,0,0,,12,,,59,127
48272,note_off,0,0,0,,12,,,47,127
48273,note_on,1,0,0,,1,,,49,127
48273,note_on,0,0,0,,12,,,59,127
48273,note_on,0,0,0,,12,,,71,127
48382,note_off,109,0,0,,12,,,71,127
48383,note_on,1,0,0,,11,,,70,127
48492,note_off,109,0,0,,11,,,70,127
48492,note_off,0,0,0,,12,,,59,127
48492,note_off,0,0,0,,1,,,49,127
48493,note_on,1,0,0,,1,,,49,127
48493,note_on,0,0,0,,12,,,59,127
48493,note_on,0,0,0,,7,,,67,127
48602,note_off,109,0,0,,7,,,67,127
48603,note_on,1,0,0,,4,,,64,127
48712,note_off,109,0,0,,4,,,64,127
48712,note_off,0,0,0,,12,,,59,127
48712,note_off,0,0,0,,1,,,49,127
48713,note_on,1,0,0,,1,,,49,127
48713,note_on,0,0,0,,12,,,59,127
48713,note_on,0,0,0,,11,,,70,127
48822,note_off,109,0,0,,11,,,70,127
48823,note_on,1,0,0,,1,,,73,127
48932,note_off,109,0,0,,1,,,73,127
48932,note_off,0,0,0,,12,,,59,127
48932,note_off,0,0,0,,1,,,49,127
48933,note_on,1,0,0,,2,,,50,127
48933,note_on,0,0,0,,12,,,59,127
48933,note_on,0,0,0,,1,,,73,127
49042,note_off,109,0,0,,1,,,73,127
49043,note_on,1,0,0,,12,,,71,127
49152,note_off,109,0,0,,12,,,71,127
49152,note_off,0,0,0,,12,,,59,127
49152,note_off,0,0,0,,2,,,50,127
49153,note_on,1,0,0,,12,,,59,127
49153,note_on,0,0,0,,2,,,50,127
49153,note_on,0,0,0,,6,,,66,127
49262,note_off,109,0,0,,6,,,66,127
49263,note_on,1,0,0,,2,,,62,127
49372,note_off,109,0,0,,2,,,62,127
49372,note_off,0,0,0,,2,,,50,127
49372,note_off,0,0,0,,12,,,59,127
49373,note_on,1,0,0,,2,,,50,127
49373,note_on,0,0,0,,12,,,59,127
49373,note_on,0,0,0,,6,,,66,127
49482,note_off,109,0,0,,6,,,66,127
49483,note_on,1,0,0,,2,,,74,127
49592,note_off,109,0,0,,2,,,74,127
49592,note_off,0,0,0,,12,,,59,127
49592,note_off,0,0,0,,2,,,50,127
49593,note_on,1,0,0,,4,,,52,127
49593,note_on,0,0,0,,12,,,59,127
49593,note_on,0,0,0,,2,,,74,127
49702,note_off,109,0,0,,2,,,74,127
49703,note_on,1,0,0,,1,,,73,127
49812,note_off,109,0,0,,1,,,73,127
49812,note_off,0,0,0,,12,,,59,127
49812,note_off,0,0,0,,4,,,52,127
49813,note_on,1,0,0,,4,,,52,127
49813,note_on,0,0,0,,12,,,59,127
49813,note_on,0,0,0,,4,,,76,127
49922,note_off,109,0,0,,4,,,76,127
49923,note_on,1,0,0,,7,,,79,127
50032,note_off,109,0,0,,7,,,79,127
50032,note_off,0,0,0,,12,,,59,127
50032,note_off,0,0,0,,4,,,52,127
50033,note_on,1,0,0,,4,,,52,127
50033,note_on,0,0,0,,4,,,64,127
50033,note_on,0,0,0,,4,,,76,127
50142,note_off,109,0,0,,4,,,76,127
50143,note_on,1,0,0,,1,,,73,127
50252,note_off,109,0,0,,1,,,73,127
50252,note_off,0,0,0,,4,,,64,127
50252,note_off,0,0,0,,4,,,52,127
50253,note_on,1,0,0,,6,,,54,127
50253,note_on,0,0,0,,4,,,64,127
50253,note_on,0,0,0,,11,,,70,127
50471,note_off,218,0,0,,11,,,70,127
50471,note_off,0,0,0,,4,,,64,127
50471,note_off,0,0,0,,6,,,54,127
50472,note_on,1,0,0,,4,,,64,127
50472,note_on,0,0,0,,7,,,55,127
50472,note_on,0,0,0,,1,,,73,127
50526,note_off,54,0,0,,1,,,73,127
50527,note_on,1,0,0,,12,,,71,127
50581,note_off,54,0,0,,12,,,71,127
50582,note_on,1,0,0,,1,,,73,127
50636,note_off,54,0,0,,1,,,73,127
50637,note_on,1,0,0,,12,,,71,127
50691,note_off,54,0,0,,12,,,71,127
50691,note_off,0,0,0,,7,,,55,127
50691,note_off,0,0,0,,4,,,64,127
50692,note_on,1,0,0,,4,,,64,127
50692,note_on,0,0,0,,7,,,55,127
50692,note_on,0,0,0,,1,,,73,127
50746,note_off,54,0,0,,1,,,73,127
50747,note_on,1,0,0,,12,,,71,127
50801,note_off,54,0,0,,12,,,71,127
50802,note_on,1,0,0,,11,,,70,127
50856,note_off,54,0,0,,11,,,70,127
50857,note_on,1,0,0,,12,,,71,127
50911,note_off,54,0,0,,12,,,71,127
50911,note_off,0,0,0,,7,,,55,127
50911,note_off,0,0,0,,4,,,64,127
50912,note_on,1,0,0,,6,,,54,127
50912,note_on,0,0,0,,12,,,71,127
51021,note_off,109,0,0,,12,,,71,127
51022,note_on,1,0,0,,1,,,73,127
51131,note_off,109,0,0,,1,,,73,127
51132,note_on,1,0,0,,6,,,66,127
51241,note_off,109,0,0,,6,,,54,127
51242,note_on,1,0,0,,4,,,52,127
51351,note_off,109,0,0,,4,,,52,127
51352,note_on,1,0,0,,2,,,50,127
51461,note_off,109,0,0,,2,,,50,127
51462,note_on,1,0,0,,1,,,49,127
51567,note_off,105,0,0,,6,,,66,127
51570,note_off,3,0,0,,1,,,49,127
51571,note_on,1,0,0,,12,,,47,127
51680,note_off,109,0,0,,12,,,47,127
51681,note_on,1,0,0,,1,,,49,127
51790,note_off,109,0,0,,1,,,49,127
51791,note_on,1,0,0,,2,,,50,127
51900,note_off,109,0,0,,2,,,50,127
51901,note_on,1,0,0,,4,,,52,127
52010,note_off,109,0,0,,4,,,52,127
52011,note_on,1,0,0,,6,,,54,127
52120,note_off,109,0,0,,6,,,54,127
52121,note_on,1,0,0,,7,,,55,127
52230,note_off,109,0,0,,7,,,55,127
52231,note_on,1,0,0,,11,,,58,127
52340,note_off,109,0,0,,11,,,58,127
52341,note_on,1,0,0,,12,,,59,127
52450,note_off,109,0,0,,12,,,59,127
52451,note_on,1,0,0,,1,,,61,127
52560,note_off,109,0,0,,1,,,61,127
52561,note_on,1,0,0,,2,,,62,127
52670,note_off,109,0,0,,2,,,62,127
52671,note_on,1,0,0,,4,,,64,127
52780,note_off,109,0,0,,4,,,64,127
52781,note_on,1,0,0,,6,,,66,127
52890,note_off,109,0,0,,6,,,66,127
52891,note_on,1,0,0,,7,,,67,127
53000,note_off,109,0,0,,7,,,67,127
53001,note_on,1,0,0,,4,,,64,127
53110,note_off,109,0,0,,4,,,64,127
53111,note_on,1,0,0,,6,,,66,127
53220,note_off,109,0,0,,6,,,66,127
53221,note_on,1,0,0,,2,,,62,127
53330,note_off,109,0,0,,2,,,62,127
53331,note_on,1,0,0,,4,,,64,127
53440,note_off,109,0,0,,4,,,64,127
53441,note_on,1,0,0,,1,,,61,127
53550,note_off,109,0,0,,1,,,61,127
53551,note_on,1,0,0,,2,,,62,127
53660,note_off,109,0,0,,2,,,62,127
53661,note_on,1,0,0,,7,,,67,127
53770,note_off,109,0,0,,7,,,67,127
53771,note_on,1,0,0,,6,,,66,127
53880,note_off,109,0,0,,6,,,66,127
53881,note_on,1,0,0,,4,,,64,127
53990,note_off,109,0,0,,4,,,64,127
53991,note_on,1,0,0,,2,,,62,127
54100,note_off,109,0,0,,2,,,62,127
54101,note_on,1,0,0,,1,,,61,127
54210,note_off,109,0,0,,1,,,61,127
54211,note_on,1,0,0,,12,,,59,127
54211,note_on,0,0,0,,6,,,78,127
54320,note_off,109,0,0,,12,,,59,127
54321,note_on,1,0,0,,10,,,57,127
54430,note_off,109,0,0,,10,,,57,127
54430,note_off,0,0,0,,6,,,78,127
54431,note_on,1,0,0,,7,,,55,127
54431,note_on,0,0,0,,4,,,76,127
54540,note_off,109,0,0,,4,,,76,127
54540,note_off,0,0,0,,7,,,55,127
54541,note_on,1,0,0,,6,,,54,127
54541,note_on,0,0,0,,2,,,74,127
54650,note_off,109,0,0,,2,,,74,127
54650,note_off,0,0,0,,6,,,54,127
54651,note_on,1,0,0,,4,,,52,127
54651,note_on,0,0,0,,1,,,73,127
54760,note_off,109,0,0,,1,,,73,127
54760,note_off,0,0,0,,4,,,52,127
54761,note_on,1,0,0,,7,,,55,127
54761,note_on,0,0,0,,12,,,71,127
54870,note_off,109,0,0,,12,,,71,127
54870,note_off,0,0,0,,7,,,55,127
54871,note_on,1,0,0,,6,,,54,127
54871,note_on,0,0,0,,12,,,71,127
54925,note_off,54,0,0,,12,,,71,127
54926,note_on,1,0,0,,11,,,70,127
54980,note_off,54,0,0,,11,,,70,127
54980,note_off,0,0,0,,6,,,54,127
54981,note_on,1,0,0,,7,,,67,127
54981,note_on,0,0,0,,12,,,71,127
55035,note_off,54,0,0,,12,,,71,127
55036,note_on,1,0,0,,11,,,70,127
55090,note_off,54,0,0,,11,,,70,127
55090,note_off,0,0,0,,7,,,67,127
55091,note_on,1,0,0,,6,,,66,127
55091,note_on,0,0,0,,12,,,71,127
55145,note_off,54,0,0,,12,,,71,127
55146,note_on,1,0,0,,11,,,70,127
55200,note_off,54,0,0,,11,,,70,127
55200,note_off,0,0,0,,6,,,66,127
55201,note_on,1,0,0,,4,,,64,127
55201,note_on,0,0,0,,12,,,71,127
55255,note_off,54,0,0,,12,,,71,127
55256,note_on,1,0,0,,11,,,70,127
55310,note_off,54,0,0,,11,,,70,127
55310,note_off,0,0,0,,4,,,64,127
55311,note_on,1,0,0,,2,,,62,127
55311,note_on,0,0,0,,12,,,71,127
55365,note_off,54,0,0,,12,,,71,127
55366,note_on,1,0,0,,11,,,70,127
55420,note_off,54,0,0,,11,,,70,127
55420,note_off,0,0,0,,2,,,62,127
55421,note_on,1,0,0,,1,,,61,127
55421,note_on,0,0,0,,12,,,71,127
55475,note_off,54,0,0,,12,,,71,127
55476,note_on,1,0,0,,11,,,70,127
55530,note_off,54,0,0,,11,,,70,127
55530,note_off,0,0,0,,1,,,61,127
55531,note_on,1,0,0,,12,,,59,127
55531,note_on,0,0,0,,6,,,78,127
55640,note_off,109,0,0,,12,,,59,127
55641,note_on,1,0,0,,10,,,57,127
55750,note_off,109,0,0,,10,,,57,127
55750,note_off,0,0,0,,6,,,78,127
55751,note_on,1,0,0,,7,,,55,127
55751,note_on,0,0,0,,4,,,76,127
55860,note_off,109,0,0,,4,,,76,127
55860,note_off,0,0,0,,7,,,55,127
55861,note_on,1,0,0,,6,,,54,127
55861,note_on,0,0,0,,2,,,74,127
55970,note_off,109,0,0,,2,,,74,127
55970,note_off,0,0,0,,6,,,54,127
55971,note_on,1,0,0,,4,,,52,127
55971,note_on,0,0,0,,1,,,73,127
56080,note_off,109,0,0,,1,,,73,127
56080,note_off,0,0,0,,4,,,52,127
56081,note_on,1,0,0,,7,,,55,127
56081,note_on,0,0,0,,12,,,71,127
56190,note_off,109,0,0,,12,,,71,127
56190,note_off,0,0,0,,7,,,55,127
56191,note_on,1,0,0,,6,,,54,127
56191,note_on,0,0,0,,12,,,71,127
56245,note_off,54,0,0,,12,,,71,127
56246,note_on,1,0,0,,11,,,70,127
56300,note_off,54,0,0,,11,,,70,127
56300,note_off,0,0,0,,6,,,54,127
56301,note_on,1,0,0,,7,,,67,127
56301,note_on,0,0,0,,12,,,71,127
56355,note_off,54,0,0,,12,,,71,127
56356,note_on,1,0,0,,11,,,70,127
56410,note_off,54,0,0,,11,,,70,127
56410,note_off,0,0,0,,7,,,67,127
56411,note_on,1,0,0,,6,,,66,127
56411,note_on,0,0,0,,12,,,71,127
56465,note_off,54,0,0,,12,,,71,127
56466,note_on,1,0,0,,11,,,70,127
56520,note_off,54,0,0,,11,,,70,127
56520,note_off,0,0,0,,6,,,66,127
56521,note_on,1,0,0,,4,,,64,127
56521,note_on,0,0,0,,12,,,71,127
56575,note_off,54,0,0,,12,,,71,127
56576,note_on,1,0,0,,11,,,70,127
56630,note_off,54,0,0,,4,,,64,127
56631,note_on,1,0,0,,2,,,62,127
56740,note_off,109,0,0,,2,,,62,127
56741,note_on,1,0,0,,1,,,61,127
56850,note_off,109,0,0,,1,,,61,127
56850,note_off,0,0,0,,11,,,70,127
56851,note_on,1,0,0,,12,,,59,127
56851,note_on,0,0,0,,6,,,78,127
56960,note_off,109,0,0,,12,,,59,127
56961,note_on,1,0,0,,10,,,57,127
57070,note_off,109,0,0,,10,,,57,127
57070,note_off,0,0,0,,6,,,78,127
57071,note_on,1,0,0,,7,,,55,127
57071,note_on,0,0,0,,4,,,76,127
57180,note_off,109,0,0,,4,,,76,127
57180,note_off,0,0,0,,7,,,55,127
57181,note_on,1,0,0,,6,,,54,127
57181,note_on,0,0,0,,2,,,74,127
57290,note_off,109,0,0,,2,,,74,127
57290,note_off,0,0,0,,6,,,54,127
57291,note_on,1,0,0,,4,,,52,127
57291,note_on,0,0,0,,1,,,73,127
57400,note_off,109,0,0,,1,,,73,127
57400,note_off,0,0,0,,4,,,52,127
57401,note_on,1,0,0,,7,,,55,127
57401,note_on,0,0,0,,12,,,71,127
57510,note_off,109,0,0,,12,,,71,127
57510,note_off,0,0,0,,7,,,55,127
57511,note_on,1,0,0,,6,,,54,127
57511,note_on,0,0,0,,10,,,69,127
57621,note_on,110,0,0,,10,,,81,127
57676,note_off,55,0,0,,10,,,69,127
57730,note_off,54,0,0,,10,,,81,127
57730,note_off,0,0,0,,6,,,54,127
57731,note_on,1,0,0,,6,,,66,127
57731,note_on,0,0,0,,10,,,69,127
57841,note_on,110,0,0,,10,,,81,127
57896,note_off,55,0,0,,10,,,69,127
57950,note_off,54,0,0,,10,,,81,127
57950,note_off,0,0,0,,6,,,66,127
57951,note_on,1,0,0,,4,,,64,127
57951,note_on,0,0,0,,12,,,71,127
58061,note_on,110,0,0,,10,,,81,127
58116,note_off,55,0,0,,12,,,71,127
58170,note_off,54,0,0,,10,,,81,127
58170,note_off,0,0,0,,4,,,64,127
58171,note_on,1,0,0,,3,,,63,127
58171,note_on,0,0,0,,0,,,72,127
58281,note_on,110,0,0,,10,,,81,127
58336,note_off,55,0,0,,0,,,72,127
58390,note_off,54,0,0,,10,,,81,127
58390,note_off,0,0,0,,3,,,63,127
58391,note_on,1,0,0,,6,,,66,127
58391,note_on,0,0,0,,10,,,69,127
58501,note_on,110,0,0,,10,,,81,127
58556,note_off,55,0,0,,10,,,69,127
58610,note_off,54,0,0,,10,,,81,127
58610,note_off,0,0,0,,6,,,66,127
58611,note_on,1,0,0,,4,,,64,127
58611,note_on,0,0,0,,12,,,71,127
58721,note_on,110,0,0,,10,,,81,127
58776,note_off,55,0,0,,12,,,71,127
58830,note_off,54,0,0,,10,,,81,127
58830,note_off,0,0,0,,4,,,64,127
58831,note_on,1,0,0,,3,,,63,127
58831,note_on,0,0,0,,0,,,72,127
58941,note_on,110,0,0,,10,,,81,127
59014,note_off,73,0,0,,0,,,72,127
59049,note_off,35,0,0,,10,,,81,127
59049,note_off,0,0,0,,3,,,63,127
59050,note_on,1,0,0,,6,,,66,127
59050,note_on,0,0,0,,10,,,69,127
59160,note_on,110,0,0,,10,,,81,127
59233,note_off,73,0,0,,10,,,69,127
59268,note_off,35,0,0,,10,,,81,127
59268,note_off,0,0,0,,6,,,66,127
59269,note_on,1,0,0,,4,,,64,127
59269,note_on,0,0,0,,12,,,71,127
59379,note_on,110,0,0,,10,,,81,127
59452,note_off,73,0,0,,12,,,71,127
59487,note_off,35,0,0,,10,,,81,127
59487,note_off,0,0,0,,4,,,64,127
59488,note_on,1,0,0,,3,,,63,127
59488,note_on,0,0,0,,0,,,72,127
59598,note_on,110,0,0,,10,,,81,127
59705,note_off,107,0,0,,0,,,72,127
59706,note_off,1,0,0,,10,,,81,127
59707,note_on,1,0,0,,6,,,66,127
59707,note_on,0,0,0,,0,,,72,127
59816,note_off,109,0,0,,0,,,72,127
59817,note_on,1,0,0,,10,,,81,127
59926,note_off,109,0,0,,10,,,81,127
59926,note_off,0,0,0,,6,,,66,127
59927,note_on,1,0,0,,8,,,68,127
59927,note_on,0,0,0,,0,,,72,127
60036,note_off,109,0,0,,0,,,72,127
60037,note_on,1,0,0,,10,,,81,127
60146,note_off,109,0,0,,10,,,81,127
60146,note_off,0,0,0,,8,,,68,127
60146,note_off,0,0,0,,3,,,63,127
60147,note_on,1,0,0,,1,,,61,127
60147,note_on,0,0,0,,10,,,69,127
60147,note_on,0,0,0,,6,,,66,127
60147,note_on,0,0,0,,1,,,73,127
60256,note_off,109,0,0,,1,,,73,127
60257,note_on,1,0,0,,10,,,81,127
60366,note_off,109,0,0,,10,,,81,127
60366,note_off,0,0,0,,6,,,66,127
60366,note_off,0,0,0,,10,,,69,127
60366,note_off,0,0,0,,1,,,61,127
60367,note_on,1,0,0,,1,,,61,127
60367,note_on,0,0,0,,6,,,66,127
60367,note_on,0,0,0,,10,,,69,127
60367,note_on,0,0,0,,1,,,73,127
60476,note_off,109,0,0,,1,,,73,127
60477,note_on,1,0,0,,10,,,81,127
60586,note_off,109,0,0,,10,,,81,127
60586,note_off,0,0,0,,10,,,69,127
60586,note_off,0,0,0,,6,,,66,127
60586,note_off,0,0,0,,1,,,61,127
60587,note_on,1,0,0,,1,,,61,127
60587,note_on,0,0,0,,6,,,66,127
60587,note_on,0,0,0,,10,,,69,127
60587,note_on,0,0,0,,1,,,73,127
60696,note_off,109,0,0,,1,,,73,127
60697,note_on,1,0,0,,10,,,81,127
60806,note_off,109,0,0,,10,,,81,127
60806,note_off,0,0,0,,10,,,69,127
60806,note_off,0,0,0,,6,,,66,127
60806,note_off,0,0,0,,1,,,61,127
60807,note_on,1,0,0,,6,,,66,127
60807,note_on,0,0,0,,0,,,60,127
60807,note_on,0,0,0,,8,,,68,127
60807,note_on,0,0,0,,3,,,75,127
60916,note_off,109,0,0,,3,,,75,127
60917,note_on,1,0,0,,10,,,81,127
61026,note_off,109,0,0,,10,,,81,127
61026,note_off,0,0,0,,8,,,68,127
61026,note_off,0,0,0,,0,,,60,127
61026,note_off,0,0,0,,6,,,66,127
61027,note_on,1,0,0,,0,,,60,127
61027,note_on,0,0,0,,6,,,66,127
61027,note_on,0,0,0,,8,,,68,127
61027,note_on,0,0,0,,3,,,75,127
61136,note_off,109,0,0,,3,,,75,127
61137,note_on,1,0,0,,8,,,80,127
61246,note_off,109,0,0,,8,,,80,127
61246,note_off,0,0,0,,8,,,68,127
61246,note_off,0,0,0,,6,,,66,127
61246,note_off,0,0,0,,0,,,60,127
61247,note_on,1,0,0,,6,,,66,127
61247,note_on,0,0,0,,0,,,60,127
61247,note_on,0,0,0,,8,,,68,127
61247,note_on,0,0,0,,3,,,75,127
61356,note_off,109,0,0,,3,,,75,127
61357,note_on,1,0,0,,6,,,78,127
61466,note_off,109,0,0,,6,,,78,127
61466,note_off,0,0,0,,8,,,68,127
61466,note_off,0,0,0,,0,,,60,127
61466,note_off,0,0,0,,6,,,66,127
61467,note_on,1,0,0,,12,,,59,127
61467,note_on,0,0,0,,8,,,68,127
61467,note_on,0,0,0,,2,,,74,127
61576,note_off,109,0,0,,2,,,74,127
61577,note_on,1,0,0,,5,,,77,127
61686,note_off,109,0,0,,5,,,77,127
61686,note_off,0,0,0,,8,,,68,127
61686,note_off,0,0,0,,12,,,59,127
61687,note_on,1,0,0,,6,,,66,127
61687,note_on,0,0,0,,10,,,57,127
61687,note_on,0,0,0,,1,,,73,127
61796,note_off,109,0,0,,1,,,73,127
61797,note_on,1,0,0,,6,,,78,127
61906,note_off,109,0,0,,6,,,78,127
61906,note_off,0,0,0,,10,,,57,127
61906,note_off,0,0,0,,6,,,66,127
61907,note_on,1,0,0,,5,,,65,127
61907,note_on,0,0,0,,8,,,56,127
61907,note_on,0,0,0,,12,,,71,127
62016,note_off,109,0,0,,12,,,71,127
62017,note_on,1,0,0,,8,,,80,127
62126,note_off,109,0,0,,8,,,80,127
62126,note_off,0,0,0,,8,,,56,127
62126,note_off,0,0,0,,5,,,65,127
62127,note_on,1,0,0,,6,,,54,127
62127,note_on,0,0,0,,10,,,81,127
62236,note_off,109,0,0,,10,,,81,127
62237,note_on,1,0,0,,8,,,80,127
62346,note_off,109,0,0,,8,,,80,127
62346,note_off,0,0,0,,6,,,54,127
62347,note_on,1,0,0,,8,,,56,127
62347,note_on,0,0,0,,6,,,78,127
62456,note_off,109,0,0,,6,,,78,127
62457,note_on,1,0,0,,4,,,76,127
62566,note_off,109,0,0,,4,,,76,127
62566,note_off,0,0,0,,8,,,56,127
62567,note_on,1,0,0,,10,,,57,127
62567,note_on,0,0,0,,2,,,74,127
62676,note_off,109,0,0,,2,,,74,127
62677,note_on,1,0,0,,1,,,73,127
62786,note_off,109,0,0,,1,,,73,127
62786,note_off,0,0,0,,10,,,57,127
62787,note_on,1,0,0,,12,,,47,127
62787,note_on,0,0,0,,12,,,59,127
62787,note_on,0,0,0,,2,,,74,127
62896,note_off,109,0,0,,2,,,74,127
62897,note_on,1,0,0,,1,,,73,127
63006,note_off,109,0,0,,1,,,73,127
63006,note_off,0,0,0,,12,,,59,127
63006,note_off,0,0,0,,12,,,47,127
63007,note_on,1,0,0,,12,,,47,127
63007,note_on,0,0,0,,12,,,59,127
63007,note_on,0,0,0,,12,,,71,127
63116,note_off,109,0,0,,12,,,71,127
63117,note_on,1,0,0,,10,,,69,127
63226,note_off,109,0,0,,10,,,69,127
63226,note_off,0,0,0,,12,,,59,127
63226,note_off,0,0,0,,12,,,47,127
63227,note_on,1,0,0,,12,,,59,127
63227,note_on,0,0,0,,1,,,49,127
63227,note_on,0,0,0,,8,,,68,127
63336,note_off,109,0,0,,8,,,68,127
63337,note_on,1,0,0,,6,,,66,127
63446,note_off,109,0,0,,6,,,66,127
63446,note_off,0,0,0,,1,,,49,127
63446,note_off,0,0,0,,12,,,59,127
63447,note_on,1,0,0,,2,,,50,127
63447,note_on,0,0,0,,12,,,59,127
63447,note_on,0,0,0,,5,,,65,127
63665,note_off,218,0,0,,5,,,65,127
63665,note_off,0,0,0,,12,,,59,127
63665,note_off,0,0,0,,2,,,50,127
63666,note_on,1,0,0,,2,,,50,127
63666,note_on,0,0,0,,8,,,68,127
63720,note_off,54,0,0,,8,,,68,127
63721,note_on,1,0,0,,6,,,66,127
63775,note_off,54,0,0,,6,,,66,127
63776,note_on,1,0,0,,8,,,68,127
63830,note_off,54,0,0,,8,,,68,127
63831,note_on,1,0,0,,6,,,66,127
63885,note_off,54,0,0,,6,,,66,127
63885,note_off,0,0,0,,2,,,50,127
63886,note_on,1,0,0,,2,,,50,127
63886,note_on,0,0,0,,8,,,68,127
63940,note_off,54,0,0,,8,,,68,127
63941,note_on,1,0,0,,6,,,66,127
63995,note_off,54,0,0,,6,,,66,127
63996,note_on,1,0,0,,5,,,65,127
64050,note_off,54,0,0,,5,,,65,127
64051,note_on,1,0,0,,6,,,66,127
64105,note_off,54,0,0,,6,,,66,127
64105,note_off,0,0,0,,2,,,50,127
64106,note_on,1,0,0,,1,,,49,127
64106,note_on,0,0,0,,6,,,66,127
64215,note_off,109,0,0,,1,,,49,127
64216,note_on,1,0,0,,1,,,61,127
64325,note_off,109,0,0,,1,,,61,127
64326,note_on,1,0,0,,12,,,59,127
64435,note_off,109,0,0,,12,,,59,127
64436,note_on,1,0,0,,10,,,57,127
64545,note_off,109,0,0,,10,,,57,127
64545,note_off,0,0,0,,6,,,66,127
64546,note_on,1,0,0,,8,,,56,127
64546,note_on,0,0,0,,8,,,68,127
64655,note_off,109,0,0,,8,,,56,127
64656,note_on,1,0,0,,6,,,54,127
64763,note_off,107,0,0,,8,,,68,127
64764,note_off,1,0,0,,6,,,54,127
64765,note_on,1,0,0,,5,,,53,127
64874,note_off,109,0,0,,5,,,53,127
64875,note_on,1,0,0,,2,,,50,127
64984,note_off,109,0,0,,2,,,50,127
64985,note_on,1,0,0,,1,,,49,127
64985,note_on,0,0,0,,8,,,80,127
65094,note_off,109,0,0,,1,,,49,127
65095,note_on,1,0,0,,12,,,47,127
65204,note_off,109,0,0,,12,,,47,127
65205,note_on,1,0,0,,10,,,45,127
65314,note_off,109,0,0,,10,,,45,127
65314,note_off,0,0,0,,8,,,80,127
65315,note_on,1,0,0,,8,,,44,127
65315,note_on,0,0,0,,12,,,71,127
65424,note_off,109,0,0,,12,,,71,127
65424,note_off,0,0,0,,8,,,44,127
65425,note_on,1,0,0,,6,,,42,127
65425,note_on,0,0,0,,12,,,71,127
65479,note_off,54,0,0,,12,,,71,127
65480,note_on,1,0,0,,10,,,69,127
65534,note_off,54,0,0,,10,,,69,127
65534,note_off,0,0,0,,6,,,42,127
65535,note_on,1,0,0,,1,,,61,127
65535,note_on,0,0,0,,12,,,71,127
65589,note_off,54,0,0,,12,,,71,127
65590,note_on,1,0,0,,10,,,69,127
65644,note_off,54,0,0,,10,,,69,127
65644,note_off,0,0,0,,1,,,61,127
65645,note_on,1,0,0,,12,,,59,127
65645,note_on,0,0,0,,12,,,71,127
65699,note_off,54,0,0,,12,,,71,127
65700,note_on,1,0,0,,10,,,69,127
65754,note_off,54,0,0,,10,,,69,127
65754,note_off,0,0,0,,12,,,59,127
65755,note_on,1,0,0,,10,,,57,127
65755,note_on,0,0,0,,12,,,71,127
65809,note_off,54,0,0,,12,,,71,127
65810,note_on,1,0,0,,10,,,69,127
65864,note_off,54,0,0,,10,,,69,127
65864,note_off,0,0,0,,10,,,57,127
65865,note_on,1,0,0,,8,,,56,127
65865,note_on,0,0,0,,12,,,71,127
65919,note_off,54,0,0,,12,,,71,127
65920,note_on,1,0,0,,10,,,69,127
65974,note_off,54,0,0,,10,,,69,127
65974,note_off,0,0,0,,8,,,56,127
65975,note_on,1,0,0,,6,,,54,127
65975,note_on,0,0,0,,12,,,71,127
66029,note_off,54,0,0,,12,,,71,127
66030,note_on,1,0,0,,10,,,69,127
66084,note_off,54,0,0,,6,,,54,127
66085,note_on,1,0,0,,5,,,53,127
66139,note_off,54,0,0,,10,,,69,127
66194,note_off,55,0,0,,5,,,53,127
66195,note_on,1,0,0,,2,,,50,127
66304,note_off,109,0,0,,2,,,50,127
66305,note_on,1,0,0,,1,,,49,127
66305,note_on,0,0,0,,8,,,80,127
66414,note_off,109,0,0,,1,,,49,127
66415,note_on,1,0,0,,12,,,47,127
66524,note_off,109,0,0,,12,,,47,127
66525,note_on,1,0,0,,10,,,45,127
66634,note_off,109,0,0,,10,,,45,127
66634,note_off,0,0,0,,8,,,80,127
66635,note_on,1,0,0,,8,,,44,127
66635,note_on,0,0,0,,12,,,71,127
66744,note_off,109,0,0,,12,,,71,127
66744,note_off,0,0,0,,8,,,44,127
66745,note_on,1,0,0,,6,,,42,127
66745,note_on,0,0,0,,10,,,69,127
66854,note_off,109,0,0,,10,,,69,127
66855,note_on,1,0,0,,8,,,80,127
66964,note_off,109,0,0,,8,,,80,127
66964,note_off,0,0,0,,6,,,42,127
66965,note_on,1,0,0,,8,,,44,127
66965,note_on,0,0,0,,6,,,78,127
67074,note_off,109,0,0,,6,,,78,127
67075,note_on,1,0,0,,5,,,77,127
67184,note_off,109,0,0,,5,,,77,127
67184,note_off,0,0,0,,8,,,44,127
67185,note_on,1,0,0,,10,,,45,127
67185,note_on,0,0,0,,6,,,78,127
67294,note_off,109,0,0,,6,,,78,127
67295,note_on,1,0,0,,1,,,73,127
67404,note_off,109,0,0,,1,,,73,127
67404,note_off,0,0,0,,10,,,45,127
67405,note_on,1,0,0,,12,,,47,127
67405,note_on,0,0,0,,2,,,74,127
67514,note_off,109,0,0,,2,,,74,127
67515,note_on,1,0,0,,12,,,71,127
67624,note_off,109,0,0,,12,,,71,127
67624,note_off,0,0,0,,12,,,47,127
67625,note_on,1,0,0,,1,,,49,127
67625,note_on,0,0,0,,10,,,69,127
67734,note_off,109,0,0,,10,,,69,127
67735,note_on,1,0,0,,8,,,68,127
67844,note_off,109,0,0,,8,,,68,127
67844,note_off,0,0,0,,1,,,49,127
67845,note_on,1,0,0,,1,,,37,127
67845,note_on,0,0,0,,6,,,66,127
67954,note_off,109,0,0,,6,,,66,127
67955,note_on,1,0,0,,5,,,65,127
68064,note_off,109,0,0,,5,,,65,127
68064,note_off,0,0,0,,1,,,37,127
68065,note_on,1,0,0,,6,,,42,127
68065,note_on,0,0,0,,6,,,66,127
68174,note_off,109,0,0,,6,,,42,127
68175,note_on,1,0,0,,1,,,61,127
68284,note_off,109,0,0,,1,,,61,127
68285,note_on,1,0,0,,12,,,59,127
68394,note_off,109,0,0,,12,,,59,127
68395,note_on,1,0,0,,10,,,57,127
68500,note_off,105,0,0,,6,,,66,127
68503,note_off,3,0,0,,10,,,57,127
68504,note_on,1,0,0,,8,,,56,127
68613,note_off,109,0,0,,8,,,56,127
68614,note_on,1,0,0,,6,,,54,127
68723,note_off,109,0,0,,6,,,54,127
68724,note_on,1,0,0,,5,,,53,127
68833,note_off,109,0,0,,5,,,53,127
68834,note_on,1,0,0,,2,,,50,127
68943,note_off,109,0,0,,2,,,50,127
68944,note_on,1,0,0,,1,,,49,127
68944,note_on,0,0,0,,8,,,80,127
69053,note_off,109,0,0,,1,,,49,127
69054,note_on,1,0,0,,12,,,47,127
69163,note_off,109,0,0,,12,,,47,127
69164,note_on,1,0,0,,10,,,45,127
69273,note_off,109,0,0,,10,,,45,127
69273,note_off,0,0,0,,8,,,80,127
69274,note_on,1,0,0,,8,,,44,127
69274,note_on,0,0,0,,12,,,71,127
69383,note_off,109,0,0,,12,,,71,127
69383,note_off,0,0,0,,8,,,44,127
69384,note_on,1,0,0,,6,,,42,127
69384,note_on,0,0,0,,12,,,71,127
69438,note_off,54,0,0,,12,,,71,127
69439,note_on,1,0,0,,10,,,69,127
69493,note_off,54,0,0,,10,,,69,127
69493,note_off,0,0,0,,6,,,42,127
69494,note_on,1,0,0,,1,,,61,127
69494,note_on,0,0,0,,12,,,71,127
69548,note_off,54,0,0,,12,,,71,127
69549,note_on,1,0,0,,10,,,69,127
69603,note_off,54,0,0,,10,,,69,127
69603,note_off,0,0,0,,1,,,61,127
69604,note_on,1,0,0,,12,,,59,127
69604,note_on,0,0,0,,12,,,71,127
69658,note_off,54,0,0,,12,,,71,127
69659,note_on,1,0,0,,10,,,69,127
69713,note_off,54,0,0,,10,,,69,127
69713,note_off,0,0,0,,12,,,59,127
69714,note_on,1,0,0,,10,,,57,127
69714,note_on,0,0,0,,12,,,71,127
69768,note_off,54,0,0,,12,,,71,127
69769,note_on,1,0,0,,10,,,69,127
69823,note_off,54,0,0,,10,,,69,127
69823,note_off,0,0,0,,10,,,57,127
69824,note_on,1,0,0,,8,,,56,127
69824,note_on,0,0,0,,12,,,71,127
69878,note_off,54,0,0,,12,,,71,127
69879,note_on,1,0,0,,10,,,69,127
69933,note_off,54,0,0,,10,,,69,127
69933,note_off,0,0,0,,8,,,56,127
69934,note_on,1,0,0,,6,,,54,127
69934,note_on,0,0,0,,12,,,71,127
69988,note_off,54,0,0,,12,,,71,127
69989,note_on,1,0,0,,10,,,69,127
70043,note_off,54,0,0,,6,,,54,127
70044,note_on,1,0,0,,5,,,53,127
70098,note_off,54,0,0,,10,,,69,127
70153,note_off,55,0,0,,5,,,53,127
70154,note_on,1,0,0,,2,,,50,127
70263,note_off,109,0,0,,2,,,50,127
70264,note_on,1,0,0,,1,,,49,127
70264,note_on,0,0,0,,8,,,80,127
70373,note_off,109,0,0,,1,,,49,127
70374,note_on,1,0,0,,12,,,47,127
70483,note_off,109,0,0,,12,,,47,127
70484,note_on,1,0,0,,10,,,45,127
70593,note_off,109,0,0,,10,,,45,127
70593,note_off,0,0,0,,8,,,80,127
70594,note_on,1,0,0,,8,,,44,127
70594,note_on,0,0,0,,12,,,71,127
70703,note_off,109,0,0,,12,,,71,127
70703,note_off,0,0,0,,8,,,44,127
70704,note_on,1,0,0,,6,,,42,127
70704,note_on,0,0,0,,10,,,69,127
70813,note_off,109,0,0,,10,,,69,127
70814,note_on,1,0,0,,8,,,80,127
70923,note_off,109,0,0,,8,,,80,127
70923,note_off,0,0,0,,6,,,42,127
70924,note_on,1,0,0,,8,,,44,127
70924,note_on,0,0,0,,6,,,78,127
71033,note_off,109,0,0,,6,,,78,127
71034,note_on,1,0,0,,5,,,77,127
71143,note_off,109,0,0,,5,,,77,127
71143,note_off,0,0,0,,8,,,44,127
71144,note_on,1,0,0,,10,,,45,127
71144,note_on,0,0,0,,6,,,78,127
71253,note_off,109,0,0,,6,,,78,127
71254,note_on,1,0,0,,1,,,73,127
71363,note_off,109,0,0,,1,,,73,127
71363,note_off,0,0,0,,10,,,45,127
71364,note_on,1,0,0,,12,,,47,127
71364,note_on,0,0,0,,2,,,74,127
71473,note_off,109,0,0,,2,,,74,127
71474,note_on,1,0,0,,12,,,71,127
71583,note_off,109,0,0,,12,,,71,127
71583,note_off,0,0,0,,12,,,47,127
71584,note_on,1,0,0,,1,,,49,127
71584,note_on,0,0,0,,10,,,69,127
71693,note_off,109,0,0,,10,,,69,127
71694,note_on,1,0,0,,8,,,68,127
71803,note_off,109,0,0,,8,,,68,127
71803,note_off,0,0,0,,1,,,49,127
71804,note_on,1,0,0,,1,,,37,127
71804,note_on,0,0,0,,6,,,66,127
71913,note_off,109,0,0,,6,,,66,127
71914,note_on,1,0,0,,5,,,65,127
72023,note_off,109,0,0,,5,,,65,127
72023,note_off,0,0,0,,1,,,37,127
72024,note_on,1,0,0,,6,,,42,127
72024,note_on,0,0,0,,6,,,66,127
72133,note_off,109,0,0,,6,,,66,127
72134,note_on,1,0,0,,6,,,78,127
72243,note_off,109,0,0,,6,,,78,127
72243,note_off,0,0,0,,6,,,42,127
72244,note_on,1,0,0,,8,,,44,127
72244,note_on,0,0,0,,1,,,73,127
72353,note_off,109,0,0,,1,,,73,127
72354,note_on,1,0,0,,10,,,69,127
72463,note_off,109,0,0,,10,,,69,127
72463,note_off,0,0,0,,8,,,44,127
72464,note_on,1,0,0,,10,,,45,127
72464,note_on,0,0,0,,6,,,66,127
72573,note_off,109,0,0,,6,,,66,127
72574,note_on,1,0,0,,10,,,69,127
72683,note_off,109,0,0,,10,,,69,127
72683,note_off,0,0,0,,10,,,45,127
72684,note_on,1,0,0,,12,,,47,127
72684,note_on,0,0,0,,8,,,68,127
72794,note_on,110,0,0,,1,,,61,127
72901,note_off,107,0,0,,8,,,68,127
72902,note_off,1,0,0,,1,,,61,127
72902,note_off,0,0,0,,12,,,47,127
72903,note_on,1,0,0,,1,,,49,127
72903,note_on,0,0,0,,8,,,68,127
73013,note_on,110,0,0,,1,,,61,127
73120,note_off,107,0,0,,8,,,68,127
73121,note_off,1,0,0,,1,,,61,127
73121,note_off,0,0,0,,1,,,49,127
73122,note_on,1,0,0,,1,,,37,127
73122,note_on,0,0,0,,8,,,68,127
73232,note_on,110,0,0,,12,,,71,127
73339,note_off,107,0,0,,8,,,68,127
73340,note_off,1,0,0,,12,,,71,127
73340,note_off,0,0,0,,1,,,37,127
73341,note_on,1,0,0,,6,,,42,127
73341,note_on,0,0,0,,10,,,69,127
73450,note_off,109,0,0,,10,,,69,127
73451,note_on,1,0,0,,6,,,78,127
73560,note_off,109,0,0,,6,,,78,127
73560,note_off,0,0,0,,6,,,42,127
73561,note_on,1,0,0,,8,,,44,127
73561,note_on,0,0,0,,1,,,73,127
73670,note_off,109,0,0,,1,,,73,127
73671,note_on,1,0,0,,10,,,69,127
73780,note_off,109,0,0,,10,,,69,127
73780,note_off,0,0,0,,8,,,44,127
73781,note_on,1,0,0,,10,,,45,127
73781,note_on,0,0,0,,6,,,66,127
73890,note_off,109,0,0,,6,,,66,127
73891,note_on,1,0,0,,10,,,69,127
74000,note_off,109,0,0,,10,,,69,127
74000,note_off,0,0,0,,10,,,45,127
74001,note_on,1,0,0,,12,,,47,127
74001,note_on,0,0,0,,8,,,68,127
74111,note_on,110,0,0,,1,,,61,127
74218,note_off,107,0,0,,8,,,68,127
74219,note_off,1,0,0,,1,,,61,127
74219,note_off,0,0,0,,12,,,47,127
74220,note_on,1,0,0,,1,,,49,127
74220,note_on,0,0,0,,8,,,68,127
74330,note_on,110,0,0,,1,,,61,127
74437,note_off,107,0,0,,8,,,68,127
74438,note_off,1,0,0,,1,,,61,127
74438,note_off,0,0,0,,1,,,49,127
74439,note_on,1,0,0,,1,,,37,127
74439,note_on,0,0,0,,8,,,68,127
74549,note_on,110,0,0,,12,,,71,127
74656,note_off,107,0,0,,8,,,68,127
74657,note_off,1,0,0,,12,,,71,127
74657,note_off,0,0,0,,1,,,37,127
74658,note_on,1,0,0,,10,,,69,127
74658,note_on,0,0,0,,6,,,42,127
74767,note_off,109,0,0,,10,,,69,127
74770,note_on,3,0,0,,6,,,78,127
74877,note_off,107,0,0,,6,,,42,127
74878,note_off,1,0,0,,6,,,78,127
74881,note_on,3,0,0,,1,,,73,127
74881,note_on,0,0,0,,8,,,44,127
74990,note_off,109,0,0,,1,,,73,127
74993,note_on,3,0,0,,10,,,69,127
75100,note_off,107,0,0,,8,,,44,127
75101,note_off,1,0,0,,10,,,69,127
75104,note_on,3,0,0,,6,,,66,127
75104,note_on,0,0,0,,10,,,45,127
75213,note_off,109,0,0,,6,,,66,127
75216,note_on,3,0,0,,10,,,69,127
75323,note_off,107,0,0,,10,,,45,127
75324,note_off,1,0,0,,10,,,69,127
75329,note_on,5,0,0,,12,,,47,127
75329,note_on,0,0,0,,8,,,68,127
75443,note_on,114,0,0,,1,,,61,127
75550,note_off,107,0,0,,8,,,68,127
75551,note_off,1,0,0,,12,,,47,127
75552,note_off,1,0,0,,1,,,61,127
75557,note_on,5,0,0,,1,,,49,127
75557,note_on,0,0,0,,8,,,68,127
75671,note_on,114,0,0,,12,,,71,127
75778,note_off,107,0,0,,8,,,68,127
75779,note_off,1,0,0,,1,,,49,127
75780,note_off,1,0,0,,12,,,71,127
75785,note_on,5,0,0,,1,,,37,127
75785,note_on,0,0,0,,8,,,68,127
75895,note_off,110,0,0,,8,,,68,127
75897,note_on,2,0,0,,5,,,65,127
76008,note_off,111,0,0,,1,,,37,127
76019,note_off,11,0,0,,5,,,65,127
76028,note_on,9,0,0,,6,,,42,127
76028,note_on,0,0,0,,6,,,66,127
78061,note_off,2033,0,0,,6,,,66,127
78061,note_off,0,0,0,,6,,,42,127
82944,end_of_track,4883,1,0,,,,,,
