tick,type,time,meta,track,program,channel,pitch,tempo,note,velocity
0,copyright,0,1,0,,,,,,
0,program_change,0,0,0,6,0,,,,
0,pitchwheel,0,0,0,,0,0,,,
0,program_change,0,0,0,6,1,,,,
0,pitchwheel,0,0,0,,1,-590,,,
0,program_change,0,0,0,6,2,,,,
0,pitchwheel,0,0,0,,2,-272,,,
0,program_change,0,0,0,6,3,,,,
0,pitchwheel,0,0,0,,3,-353,,,
0,program_change,0,0,0,6,4,,,,
0,pitchwheel,0,0,0,,4,-560,,,
0,program_change,0,0,0,6,5,,,,
0,pitchwheel,0,0,0,,5,-80,,,
0,program_change,0,0,0,6,6,,,,
0,pitchwheel,0,0,0,,6,-625,,,
0,program_change,0,0,0,6,7,,,,
0,pitchwheel,0,0,0,,7,-130,,,
0,program_change,0,0,0,6,8,,,,
0,pitchwheel,0,0,0,,8,-512,,,
0,program_change,0,0,0,6,10,,,,
0,pitchwheel,0,0,0,,10,-464,,,
0,program_change,0,0,0,6,11,,,,
0,pitchwheel,0,0,0,,11,-208,,,
0,program_change,0,0,0,6,12,,,,
0,pitchwheel,0,0,0,,12,-553,,,
0,set_tempo,0,1,0,,,,500000,,
209,note_on,209,0,0,,7,,,79,127
417,note_off,208,0,0,,7,,,79,127
418,note_on,1,0,0,,2,,,74,127
626,note_off,208,0,0,,2,,,74,127
627,note_on,1,0,0,,2,,,74,127
835,note_off,208,0,0,,2,,,74,127
836,note_on,1,0,0,,2,,,74,127
887,note_off,51,0,0,,2,,,74,127
888,note_on,1,0,0,,0,,,72,127
939,note_off,51,0,0,,0,,,72,127
940,note_on,1,0,0,,2,,,74,127
991,note_off,51,0,0,,2,,,74,127
992,note_on,1,0,0,,0,,,72,127
1043,note_off,51,0,0,,0,,,72,127
1044,note_on,1,0,0,,2,,,74,127
1095,note_off,51,0,0,,2,,,74,127
1096,note_on,1,0,0,,0,,,72,127
1147,note_off,51,0,0,,0,,,72,127
1148,note_on,1,0,0,,2,,,74,127
1199,note_off,51,0,0,,2,,,74,127
1200,note_on,1,0,0,,0,,,72,127
1251,note_off,51,0,0,,0,,,72,127
1252,note_on,1,0,0,,12,,,71,127
1460,note_off,208,0,0,,12,,,71,127
1461,note_on,1,0,0,,7,,,79,127
1669,note_off,208,0,0,,7,,,79,127
1670,note_on,1,0,0,,12,,,71,127
1670,note_on,0,0,0,,2,,,74,127
1878,note_off,208,0,0,,2,,,74,127
1878,note_off,0,0,0,,12,,,71,127
1879,note_on,1,0,0,,12,,,71,127
1879,note_on,0,0,0,,2,,,74,127
2087,note_off,208,0,0,,2,,,74,127
2087,note_off,0,0,0,,12,,,71,127
2088,note_on,1,0,0,,2,,,74,127
2088,note_on,0,0,0,,12,,,71,127
2139,note_off,51,0,0,,12,,,71,127
2139,note_off,0,0,0,,2,,,74,127
2140,note_on,1,0,0,,0,,,72,127
2140,note_on,0,0,0,,10,,,69,127
2191,note_off,51,0,0,,10,,,69,127
2191,note_off,0,0,0,,0,,,72,127
2192,note_on,1,0,0,,2,,,74,127
2192,note_on,0,0,0,,12,,,71,127
2243,note_off,51,0,0,,12,,,71,127
2243,note_off,0,0,0,,2,,,74,127
2244,note_on,1,0,0,,0,,,72,127
2244,note_on,0,0,0,,10,,,69,127
2295,note_off,51,0,0,,10,,,69,127
2295,note_off,0,0,0,,0,,,72,127
2296,note_on,1,0,0,,2,,,74,127
2296,note_on,0,0,0,,12,,,71,127
2347,note_off,51,0,0,,12,,,71,127
2347,note_off,0,0,0,,2,,,74,127
2348,note_on,1,0,0,,0,,,72,127
2348,note_on,0,0,0,,10,,,69,127
2399,note_off,51,0,0,,10,,,69,127
2399,note_off,0,0,0,,0,,,72,127
2400,note_on,1,0,0,,2,,,74,127
2400,note_on,0,0,0,,12,,,71,127
2451,note_off,51,0,0,,12,,,71,127
2451,note_off,0,0,0,,2,,,74,127
2452,note_on,1,0,0,,0,,,72,127
2452,note_on,0,0,0,,10,,,69,127
2503,note_off,51,0,0,,10,,,69,127
2503,note_off,0,0,0,,0,,,72,127
2504,note_on,1,0,0,,12,,,71,127
2713,note_on,209,0,0,,7,,,67,127
2921,note_off,208,0,0,,7,,,67,127
2922,note_on,1,0,0,,2,,,62,127
3130,note_off,208,0,0,,2,,,62,127
3130,note_off,0,0,0,,12,,,71,127
3131,note_on,1,0,0,,2,,,62,127
3339,note_off,208,0,0,,2,,,62,127
3340,note_on,1,0,0,,2,,,74,127
3340,note_on,0,0,0,,2,,,62,127
3391,note_off,51,0,0,,2,,,62,127
3391,note_off,0,0,0,,2,,,74,127
3392,note_on,1,0,0,,0,,,72,127
3392,note_on,0,0,0,,0,,,60,127
3443,note_off,51,0,0,,0,,,60,127
3443,note_off,0,0,0,,0,,,72,127
3444,note_on,1,0,0,,2,,,74,127
3444,note_on,0,0,0,,2,,,62,127
3495,note_off,51,0,0,,2,,,62,127
3495,note_off,0,0,0,,2,,,74,127
3496,note_on,1,0,0,,0,,,72,127
3496,note_on,0,0,0,,0,,,60,127
3547,note_off,51,0,0,,0,,,60,127
3547,note_off,0,0,0,,0,,,72,127
3548,note_on,1,0,0,,2,,,74,127
3548,note_on,0,0,0,,2,,,62,127
3599,note_off,51,0,0,,2,,,62,127
3599,note_off,0,0,0,,2,,,74,127
3600,note_on,1,0,0,,0,,,72,127
3600,note_on,0,0,0,,0,,,60,127
3651,note_off,51,0,0,,0,,,60,127
3651,note_off,0,0,0,,0,,,72,127
3652,note_on,1,0,0,,12,,,71,127
3652,note_on,0,0,0,,12,,,59,127
3703,note_off,51,0,0,,12,,,59,127
3703,note_off,0,0,0,,12,,,71,127
3704,note_on,1,0,0,,0,,,72,127
3704,note_on,0,0,0,,0,,,60,127
3755,note_off,51,0,0,,0,,,60,127
3755,note_off,0,0,0,,0,,,72,127
3756,note_on,1,0,0,,2,,,74,127
3756,note_on,0,0,0,,12,,,59,127
3965,note_on,209,0,0,,7,,,67,127
4170,note_off,205,0,0,,12,,,59,127
4173,note_off,3,0,0,,7,,,67,127
4174,note_on,1,0,0,,2,,,62,127
4174,note_on,0,0,0,,12,,,59,127
4382,note_off,208,0,0,,12,,,59,127
4382,note_off,0,0,0,,2,,,62,127
4382,note_off,0,0,0,,2,,,74,127
4383,note_on,1,0,0,,12,,,59,127
4383,note_on,0,0,0,,2,,,62,127
4591,note_off,208,0,0,,2,,,62,127
4591,note_off,0,0,0,,12,,,59,127
4592,note_on,1,0,0,,2,,,74,127
4592,note_on,0,0,0,,0,,,60,127
4592,note_on,0,0,0,,10,,,57,127
4643,note_off,51,0,0,,2,,,74,127
4644,note_on,1,0,0,,0,,,72,127
4695,note_off,51,0,0,,0,,,72,127
4696,note_on,1,0,0,,2,,,74,127
4747,note_off,51,0,0,,2,,,74,127
4748,note_on,1,0,0,,0,,,72,127
4799,note_off,51,0,0,,0,,,72,127
4800,note_on,1,0,0,,2,,,74,127
4851,note_off,51,0,0,,2,,,74,127
4852,note_on,1,0,0,,0,,,72,127
4903,note_off,51,0,0,,0,,,72,127
4904,note_on,1,0,0,,12,,,71,127
4955,note_off,51,0,0,,12,,,71,127
4956,note_on,1,0,0,,0,,,72,127
5007,note_off,51,0,0,,0,,,72,127
5007,note_off,0,0,0,,10,,,57,127
5007,note_off,0,0,0,,0,,,60,127
5008,note_on,1,0,0,,2,,,74,127
5008,note_on,0,0,0,,7,,,55,127
5008,note_on,0,0,0,,2,,,62,127
5216,note_off,208,0,0,,2,,,74,127
5217,note_on,1,0,0,,2,,,74,127
5217,note_on,0,0,0,,12,,,83,127
5422,note_off,205,0,0,,2,,,62,127
5425,note_off,3,0,0,,12,,,83,127
5425,note_off,0,0,0,,2,,,74,127
5426,note_on,1,0,0,,7,,,79,127
5426,note_on,0,0,0,,12,,,71,127
5633,note_off,207,0,0,,12,,,71,127
5633,note_off,0,0,0,,7,,,79,127
5634,note_off,1,0,0,,7,,,55,127
5635,note_on,1,0,0,,0,,,60,127
5844,note_on,209,0,0,,0,,,72,127
5844,note_on,0,0,0,,10,,,81,127
6052,note_off,208,0,0,,10,,,81,127
6052,note_off,0,0,0,,0,,,72,127
6052,note_off,0,0,0,,0,,,60,127
6053,note_on,1,0,0,,6,,,78,127
6053,note_on,0,0,0,,10,,,69,127
6053,note_on,0,0,0,,2,,,62,127
6260,note_off,207,0,0,,2,,,62,127
6261,note_off,1,0,0,,10,,,69,127
6261,note_off,0,0,0,,6,,,78,127
6262,note_on,1,0,0,,10,,,81,127
6313,note_off,51,0,0,,10,,,81,127
6314,note_on,1,0,0,,7,,,79,127
6365,note_off,51,0,0,,7,,,79,127
6366,note_on,1,0,0,,10,,,81,127
6417,note_off,51,0,0,,10,,,81,127
6418,note_on,1,0,0,,7,,,79,127
6469,note_off,51,0,0,,7,,,79,127
6470,note_on,1,0,0,,10,,,81,127
6470,note_on,0,0,0,,2,,,62,127
6470,note_on,0,0,0,,12,,,71,127
6521,note_off,51,0,0,,10,,,81,127
6522,note_on,1,0,0,,7,,,79,127
6573,note_off,51,0,0,,7,,,79,127
6574,note_on,1,0,0,,10,,,81,127
6625,note_off,51,0,0,,10,,,81,127
6626,note_on,1,0,0,,7,,,79,127
6677,note_off,51,0,0,,7,,,79,127
6677,note_off,0,0,0,,12,,,71,127
6677,note_off,0,0,0,,2,,,62,127
6678,note_on,1,0,0,,10,,,81,127
6678,note_on,0,0,0,,7,,,67,127
6678,note_on,0,0,0,,12,,,59,127
6729,note_off,51,0,0,,10,,,81,127
6730,note_on,1,0,0,,7,,,79,127
6781,note_off,51,0,0,,7,,,79,127
6782,note_on,1,0,0,,10,,,81,127
6833,note_off,51,0,0,,10,,,81,127
6834,note_on,1,0,0,,7,,,79,127
6884,note_off,50,0,0,,12,,,59,127
6884,note_off,0,0,0,,7,,,67,127
6885,note_off,1,0,0,,7,,,79,127
6886,note_on,1,0,0,,2,,,74,127
6937,note_off,51,0,0,,2,,,74,127
6938,note_on,1,0,0,,0,,,72,127
6989,note_off,51,0,0,,0,,,72,127
6990,note_on,1,0,0,,2,,,74,127
7041,note_off,51,0,0,,2,,,74,127
7042,note_on,1,0,0,,0,,,72,127
7093,note_off,51,0,0,,0,,,72,127
7094,note_on,1,0,0,,2,,,74,127
7094,note_on,0,0,0,,10,,,69,127
7094,note_on,0,0,0,,0,,,60,127
7145,note_off,51,0,0,,2,,,74,127
7146,note_on,1,0,0,,0,,,72,127
7197,note_off,51,0,0,,0,,,72,127
7198,note_on,1,0,0,,2,,,74,127
7249,note_off,51,0,0,,2,,,74,127
7250,note_on,1,0,0,,0,,,72,127
7301,note_off,51,0,0,,0,,,72,127
7301,note_off,0,0,0,,0,,,60,127
7301,note_off,0,0,0,,10,,,69,127
7302,note_on,1,0,0,,2,,,74,127
7302,note_on,0,0,0,,10,,,57,127
7302,note_on,0,0,0,,6,,,66,127
7353,note_off,51,0,0,,2,,,74,127
7354,note_on,1,0,0,,0,,,72,127
7405,note_off,51,0,0,,0,,,72,127
7406,note_on,1,0,0,,2,,,74,127
7457,note_off,51,0,0,,2,,,74,127
7458,note_on,1,0,0,,0,,,72,127
7509,note_off,51,0,0,,0,,,72,127
7509,note_off,0,0,0,,6,,,66,127
7509,note_off,0,0,0,,10,,,57,127
7510,note_on,1,0,0,,7,,,67,127
7510,note_on,0,0,0,,12,,,59,127
7719,note_on,209,0,0,,2,,,74,127
7927,note_off,208,0,0,,2,,,74,127
7927,note_off,0,0,0,,12,,,59,127
7927,note_off,0,0,0,,7,,,67,127
7928,note_on,1,0,0,,12,,,71,127
7928,note_on,0,0,0,,7,,,55,127
8136,note_off,208,0,0,,7,,,55,127
8136,note_off,0,0,0,,12,,,71,127
8137,note_on,1,0,0,,4,,,76,127
8137,note_on,0,0,0,,0,,,60,127
8345,note_off,208,0,0,,0,,,60,127
8345,note_off,0,0,0,,4,,,76,127
8346,note_on,1,0,0,,7,,,79,127
8346,note_on,0,0,0,,2,,,62,127
8397,note_off,51,0,0,,7,,,79,127
8398,note_on,1,0,0,,6,,,78,127
8449,note_off,51,0,0,,6,,,78,127
8450,note_on,1,0,0,,7,,,79,127
8501,note_off,51,0,0,,7,,,79,127
8502,note_on,1,0,0,,6,,,78,127
8553,note_off,51,0,0,,6,,,78,127
8553,note_off,0,0,0,,2,,,62,127
8554,note_on,1,0,0,,7,,,79,127
8554,note_on,0,0,0,,0,,,60,127
8605,note_off,51,0,0,,7,,,79,127
8606,note_on,1,0,0,,6,,,78,127
8657,note_off,51,0,0,,6,,,78,127
8658,note_on,1,0,0,,4,,,76,127
8709,note_off,51,0,0,,4,,,76,127
8710,note_on,1,0,0,,6,,,78,127
8760,note_off,50,0,0,,0,,,60,127
8761,note_off,1,0,0,,6,,,78,127
8762,note_on,1,0,0,,7,,,79,127
8971,note_on,209,0,0,,12,,,59,127
8971,note_on,0,0,0,,2,,,62,127
9179,note_off,208,0,0,,12,,,59,127
9180,note_on,1,0,0,,7,,,55,127
9385,note_off,205,0,0,,2,,,62,127
9388,note_off,3,0,0,,7,,,55,127
9388,note_off,0,0,0,,7,,,79,127
9389,note_on,1,0,0,,0,,,72,127
9389,note_on,0,0,0,,4,,,64,127
9597,note_off,208,0,0,,4,,,64,127
9597,note_off,0,0,0,,0,,,72,127
9598,note_on,1,0,0,,12,,,71,127
9598,note_on,0,0,0,,7,,,67,127
9649,note_off,51,0,0,,7,,,67,127
9649,note_off,0,0,0,,12,,,71,127
9650,note_on,1,0,0,,10,,,69,127
9650,note_on,0,0,0,,6,,,66,127
9701,note_off,51,0,0,,6,,,66,127
9701,note_off,0,0,0,,10,,,69,127
9702,note_on,1,0,0,,12,,,71,127
9702,note_on,0,0,0,,7,,,67,127
9753,note_off,51,0,0,,7,,,67,127
9753,note_off,0,0,0,,12,,,71,127
9754,note_on,1,0,0,,10,,,69,127
9754,note_on,0,0,0,,6,,,66,127
9805,note_off,51,0,0,,6,,,66,127
9805,note_off,0,0,0,,10,,,69,127
9806,note_on,1,0,0,,12,,,71,127
9806,note_on,0,0,0,,7,,,67,127
9857,note_off,51,0,0,,7,,,67,127
9857,note_off,0,0,0,,12,,,71,127
9858,note_on,1,0,0,,10,,,69,127
9858,note_on,0,0,0,,6,,,66,127
9909,note_off,51,0,0,,6,,,66,127
9909,note_off,0,0,0,,10,,,69,127
9910,note_on,1,0,0,,7,,,67,127
9910,note_on,0,0,0,,4,,,64,127
9961,note_off,51,0,0,,4,,,64,127
9961,note_off,0,0,0,,7,,,67,127
9962,note_on,1,0,0,,10,,,69,127
9962,note_on,0,0,0,,6,,,66,127
10013,note_off,51,0,0,,6,,,66,127
10013,note_off,0,0,0,,10,,,69,127
10014,note_on,1,0,0,,12,,,71,127
10014,note_on,0,0,0,,7,,,67,127
10222,note_off,208,0,0,,12,,,71,127
10223,note_on,1,0,0,,12,,,71,127
10327,note_off,104,0,0,,12,,,71,127
10328,note_on,1,0,0,,0,,,72,127
10428,note_off,100,0,0,,7,,,67,127
10431,note_off,3,0,0,,0,,,72,127
10432,note_on,1,0,0,,2,,,74,127
10536,note_off,104,0,0,,2,,,74,127
10537,note_on,1,0,0,,4,,,76,127
10641,note_off,104,0,0,,4,,,76,127
10642,note_on,1,0,0,,6,,,78,127
10642,note_on,0,0,0,,7,,,55,127
10746,note_off,104,0,0,,6,,,78,127
10747,note_on,1,0,0,,7,,,79,127
10851,note_off,104,0,0,,7,,,79,127
10851,note_off,0,0,0,,7,,,55,127
10852,note_on,1,0,0,,10,,,81,127
10852,note_on,0,0,0,,7,,,55,127
10956,note_off,104,0,0,,10,,,81,127
10957,note_on,1,0,0,,11,,,82,127
11061,note_off,104,0,0,,11,,,82,127
11061,note_off,0,0,0,,7,,,55,127
11062,note_on,1,0,0,,12,,,83,127
11062,note_on,0,0,0,,7,,,67,127
11166,note_off,104,0,0,,12,,,83,127
11167,note_on,1,0,0,,12,,,71,127
11271,note_off,104,0,0,,12,,,71,127
11271,note_off,0,0,0,,7,,,67,127
11272,note_on,1,0,0,,10,,,69,127
11272,note_on,0,0,0,,6,,,66,127
11480,note_off,208,0,0,,10,,,69,127
11481,note_on,1,0,0,,10,,,69,127
11585,note_off,104,0,0,,10,,,69,127
11586,note_on,1,0,0,,12,,,71,127
11690,note_off,104,0,0,,12,,,71,127
11691,note_on,1,0,0,,1,,,73,127
11795,note_off,104,0,0,,1,,,73,127
11796,note_off,1,0,0,,6,,,66,127
11796,note_on,0,0,0,,2,,,74,127
11900,note_off,104,0,0,,2,,,74,127
11901,note_on,1,0,0,,4,,,76,127
11901,note_on,0,0,0,,6,,,54,127
12005,note_off,104,0,0,,4,,,76,127
12006,note_on,1,0,0,,6,,,78,127
12110,note_off,104,0,0,,6,,,78,127
12110,note_off,0,0,0,,6,,,54,127
12111,note_on,1,0,0,,7,,,79,127
12111,note_on,0,0,0,,6,,,54,127
12215,note_off,104,0,0,,7,,,79,127
12216,note_on,1,0,0,,8,,,80,127
12320,note_off,104,0,0,,8,,,80,127
12320,note_off,0,0,0,,6,,,54,127
12321,note_on,1,0,0,,10,,,81,127
12321,note_on,0,0,0,,6,,,66,127
12425,note_off,104,0,0,,10,,,81,127
12426,note_on,1,0,0,,10,,,69,127
12530,note_off,104,0,0,,10,,,69,127
12530,note_off,0,0,0,,6,,,66,127
12531,note_on,1,0,0,,7,,,67,127
12531,note_on,0,0,0,,4,,,64,127
12635,note_off,104,0,0,,7,,,67,127
12636,note_on,1,0,0,,12,,,71,127
12740,note_off,104,0,0,,12,,,71,127
12741,note_on,1,0,0,,10,,,69,127
12845,note_off,104,0,0,,10,,,69,127
12846,note_on,1,0,0,,7,,,67,127
12950,note_off,104,0,0,,7,,,67,127
12951,note_on,1,0,0,,10,,,69,127
13055,note_off,104,0,0,,10,,,69,127
13056,note_off,1,0,0,,4,,,64,127
13056,note_on,0,0,0,,12,,,71,127
13160,note_off,104,0,0,,12,,,71,127
13161,note_on,1,0,0,,1,,,73,127
13161,note_on,0,0,0,,4,,,52,127
13265,note_off,104,0,0,,1,,,73,127
13266,note_on,1,0,0,,2,,,74,127
13370,note_off,104,0,0,,2,,,74,127
13370,note_off,0,0,0,,4,,,52,127
13371,note_on,1,0,0,,4,,,76,127
13371,note_on,0,0,0,,4,,,52,127
13475,note_off,104,0,0,,4,,,76,127
13476,note_on,1,0,0,,6,,,78,127
13580,note_off,104,0,0,,6,,,78,127
13580,note_off,0,0,0,,4,,,52,127
13581,note_on,1,0,0,,7,,,79,127
13581,note_on,0,0,0,,4,,,64,127
13685,note_off,104,0,0,,7,,,79,127
13686,note_on,1,0,0,,7,,,67,127
13790,note_off,104,0,0,,7,,,67,127
13790,note_off,0,0,0,,4,,,64,127
13791,note_on,1,0,0,,6,,,66,127
13791,note_on,0,0,0,,2,,,62,127
13999,note_off,208,0,0,,2,,,62,127
13999,note_off,0,0,0,,6,,,66,127
14000,note_on,1,0,0,,10,,,69,127
14000,note_on,0,0,0,,2,,,50,127
14104,note_off,104,0,0,,2,,,50,127
14105,note_on,1,0,0,,4,,,52,127
14209,note_off,104,0,0,,4,,,52,127
14209,note_off,0,0,0,,10,,,69,127
14210,note_on,1,0,0,,10,,,69,127
14210,note_on,0,0,0,,6,,,54,127
14314,note_off,104,0,0,,6,,,54,127
14315,note_on,1,0,0,,7,,,55,127
14419,note_off,104,0,0,,7,,,55,127
14419,note_off,0,0,0,,10,,,69,127
14420,note_on,1,0,0,,10,,,69,127
14420,note_on,0,0,0,,8,,,56,127
14524,note_off,104,0,0,,8,,,56,127
14525,note_on,1,0,0,,10,,,57,127
14629,note_off,104,0,0,,10,,,57,127
14629,note_off,0,0,0,,10,,,69,127
14630,note_on,1,0,0,,6,,,78,127
14630,note_on,0,0,0,,12,,,59,127
14734,note_off,104,0,0,,12,,,59,127
14735,note_on,1,0,0,,1,,,61,127
14839,note_off,104,0,0,,1,,,61,127
14839,note_off,0,0,0,,6,,,78,127
14840,note_on,1,0,0,,6,,,78,127
14840,note_on,0,0,0,,2,,,62,127
14944,note_off,104,0,0,,2,,,62,127
14945,note_on,1,0,0,,2,,,50,127
15049,note_off,104,0,0,,2,,,50,127
15049,note_off,0,0,0,,6,,,78,127
15050,note_on,1,0,0,,4,,,76,127
15050,note_on,0,0,0,,1,,,49,127
15258,note_off,208,0,0,,1,,,49,127
15258,note_off,0,0,0,,4,,,76,127
15259,note_on,1,0,0,,10,,,69,127
15259,note_on,0,0,0,,1,,,49,127
15363,note_off,104,0,0,,1,,,49,127
15364,note_on,1,0,0,,2,,,50,127
15468,note_off,104,0,0,,2,,,50,127
15468,note_off,0,0,0,,10,,,69,127
15469,note_on,1,0,0,,10,,,69,127
15469,note_on,0,0,0,,4,,,52,127
15573,note_off,104,0,0,,4,,,52,127
15574,note_on,1,0,0,,6,,,54,127
15678,note_off,104,0,0,,6,,,54,127
15678,note_off,0,0,0,,10,,,69,127
15679,note_on,1,0,0,,10,,,69,127
15679,note_on,0,0,0,,7,,,55,127
15783,note_off,104,0,0,,7,,,55,127
15784,note_on,1,0,0,,8,,,56,127
15888,note_off,104,0,0,,8,,,56,127
15888,note_off,0,0,0,,10,,,69,127
15889,note_on,1,0,0,,10,,,69,127
15889,note_on,0,0,0,,10,,,57,127
15993,note_off,104,0,0,,10,,,57,127
15994,note_on,1,0,0,,12,,,59,127
16098,note_off,104,0,0,,12,,,59,127
16098,note_off,0,0,0,,10,,,69,127
16099,note_on,1,0,0,,4,,,76,127
16099,note_on,0,0,0,,1,,,61,127
16203,note_off,104,0,0,,1,,,61,127
16204,note_on,1,0,0,,1,,,49,127
16308,note_off,104,0,0,,1,,,49,127
16308,note_off,0,0,0,,4,,,76,127
16309,note_on,1,0,0,,2,,,74,127
16309,note_on,0,0,0,,12,,,47,127
16517,note_off,208,0,0,,12,,,47,127
16517,note_off,0,0,0,,2,,,74,127
16518,note_on,1,0,0,,2,,,62,127
16518,note_on,0,0,0,,12,,,47,127
16622,note_off,104,0,0,,12,,,47,127
16623,note_on,1,0,0,,1,,,49,127
16727,note_off,104,0,0,,1,,,49,127
16727,note_off,0,0,0,,2,,,62,127
16728,note_on,1,0,0,,2,,,62,127
16728,note_on,0,0,0,,2,,,50,127
16832,note_off,104,0,0,,2,,,50,127
16833,note_on,1,0,0,,4,,,52,127
16937,note_off,104,0,0,,4,,,52,127
16937,note_off,0,0,0,,2,,,62,127
16938,note_on,1,0,0,,2,,,62,127
16938,note_on,0,0,0,,6,,,54,127
17042,note_off,104,0,0,,6,,,54,127
17043,note_on,1,0,0,,7,,,55,127
17147,note_off,104,0,0,,7,,,55,127
17147,note_off,0,0,0,,2,,,62,127
17148,note_on,1,0,0,,2,,,62,127
17148,note_on,0,0,0,,10,,,57,127
17252,note_off,104,0,0,,10,,,57,127
17253,note_on,1,0,0,,11,,,58,127
17357,note_off,104,0,0,,11,,,58,127
17357,note_off,0,0,0,,2,,,62,127
17358,note_on,1,0,0,,2,,,74,127
17358,note_on,0,0,0,,12,,,59,127
17462,note_off,104,0,0,,12,,,59,127
17463,note_on,1,0,0,,12,,,47,127
17567,note_off,104,0,0,,12,,,47,127
17567,note_off,0,0,0,,2,,,74,127
17568,note_on,1,0,0,,1,,,73,127
17568,note_on,0,0,0,,10,,,45,127
17776,note_off,208,0,0,,1,,,73,127
17777,note_on,1,0,0,,1,,,73,127
17881,note_off,104,0,0,,1,,,73,127
17882,note_on,1,0,0,,2,,,74,127
17986,note_off,104,0,0,,2,,,74,127
17987,note_on,1,0,0,,4,,,76,127
18091,note_off,104,0,0,,4,,,76,127
18092,note_on,1,0,0,,6,,,78,127
18196,note_off,104,0,0,,6,,,78,127
18196,note_off,0,0,0,,10,,,45,127
18197,note_on,1,0,0,,7,,,79,127
18197,note_on,0,0,0,,10,,,45,127
18301,note_off,104,0,0,,7,,,79,127
18302,note_on,1,0,0,,12,,,71,127
18406,note_off,104,0,0,,12,,,71,127
18407,note_on,1,0,0,,10,,,69,127
18511,note_off,104,0,0,,10,,,69,127
18512,note_on,1,0,0,,6,,,78,127
18616,note_off,104,0,0,,6,,,78,127
18617,note_on,1,0,0,,4,,,76,127
18721,note_off,104,0,0,,4,,,76,127
18722,note_on,1,0,0,,7,,,67,127
18826,note_off,104,0,0,,7,,,67,127
18826,note_off,0,0,0,,10,,,45,127
18827,note_on,1,0,0,,6,,,66,127
18827,note_on,0,0,0,,10,,,45,127
18931,note_off,104,0,0,,6,,,66,127
18932,note_on,1,0,0,,2,,,74,127
19036,note_off,104,0,0,,2,,,74,127
19037,note_on,1,0,0,,1,,,73,127
19141,note_off,104,0,0,,1,,,73,127
19142,note_on,1,0,0,,4,,,64,127
19246,note_off,104,0,0,,4,,,64,127
19247,note_on,1,0,0,,2,,,62,127
19351,note_off,104,0,0,,2,,,62,127
19352,note_on,1,0,0,,12,,,71,127
19456,note_off,104,0,0,,12,,,71,127
19456,note_off,0,0,0,,10,,,45,127
19457,note_on,1,0,0,,10,,,69,127
19457,note_on,0,0,0,,10,,,45,127
19561,note_off,104,0,0,,10,,,69,127
19562,note_on,1,0,0,,1,,,61,127
19666,note_off,104,0,0,,1,,,61,127
19667,note_on,1,0,0,,12,,,59,127
19771,note_off,104,0,0,,12,,,59,127
19772,note_on,1,0,0,,4,,,64,127
19876,note_off,104,0,0,,4,,,64,127
19877,note_on,1,0,0,,2,,,62,127
19981,note_off,104,0,0,,2,,,62,127
19982,note_on,1,0,0,,8,,,68,127
20086,note_off,104,0,0,,8,,,68,127
20086,note_off,0,0,0,,10,,,45,127
20087,note_on,1,0,0,,10,,,69,127
20087,note_on,0,0,0,,10,,,45,127
20295,note_off,208,0,0,,10,,,69,127
20296,note_on,1,0,0,,1,,,73,127
20400,note_off,104,0,0,,1,,,73,127
20401,note_on,1,0,0,,2,,,74,127
20505,note_off,104,0,0,,2,,,74,127
20506,note_on,1,0,0,,4,,,76,127
20610,note_off,104,0,0,,4,,,76,127
20611,note_on,1,0,0,,6,,,78,127
20715,note_off,104,0,0,,6,,,78,127
20715,note_off,0,0,0,,10,,,45,127
20716,note_on,1,0,0,,7,,,79,127
20716,note_on,0,0,0,,10,,,45,127
20820,note_off,104,0,0,,7,,,79,127
20821,note_on,1,0,0,,12,,,71,127
20925,note_off,104,0,0,,12,,,71,127
20926,note_on,1,0,0,,10,,,69,127
21030,note_off,104,0,0,,10,,,69,127
21031,note_on,1,0,0,,6,,,78,127
21135,note_off,104,0,0,,6,,,78,127
21136,note_on,1,0,0,,4,,,76,127
21240,note_off,104,0,0,,4,,,76,127
21241,note_on,1,0,0,,7,,,67,127
21345,note_off,104,0,0,,7,,,67,127
21345,note_off,0,0,0,,10,,,45,127
21346,note_on,1,0,0,,6,,,66,127
21346,note_on,0,0,0,,10,,,45,127
21450,note_off,104,0,0,,6,,,66,127
21451,note_on,1,0,0,,2,,,74,127
21555,note_off,104,0,0,,2,,,74,127
21556,note_on,1,0,0,,1,,,73,127
21660,note_off,104,0,0,,1,,,73,127
21661,note_on,1,0,0,,4,,,64,127
21765,note_off,104,0,0,,4,,,64,127
21766,note_on,1,0,0,,2,,,62,127
21870,note_off,104,0,0,,2,,,62,127
21871,note_on,1,0,0,,12,,,71,127
21975,note_off,104,0,0,,12,,,71,127
21975,note_off,0,0,0,,10,,,45,127
21976,note_on,1,0,0,,10,,,69,127
21976,note_on,0,0,0,,10,,,45,127
22080,note_off,104,0,0,,10,,,69,127
22081,note_on,1,0,0,,1,,,61,127
22185,note_off,104,0,0,,1,,,61,127
22186,note_on,1,0,0,,12,,,59,127
22290,note_off,104,0,0,,12,,,59,127
22291,note_on,1,0,0,,4,,,64,127
22395,note_off,104,0,0,,4,,,64,127
22396,note_on,1,0,0,,2,,,62,127
22500,note_off,104,0,0,,2,,,62,127
22501,note_on,1,0,0,,8,,,68,127
22605,note_off,104,0,0,,8,,,68,127
22605,note_off,0,0,0,,10,,,45,127
22606,note_on,1,0,0,,10,,,69,127
22606,note_on,0,0,0,,10,,,45,127
22814,note_off,208,0,0,,10,,,45,127
22815,note_on,1,0,0,,10,,,57,127
22919,note_off,104,0,0,,10,,,57,127
22920,note_on,1,0,0,,12,,,59,127
23024,note_off,104,0,0,,12,,,59,127
23025,note_on,1,0,0,,1,,,61,127
23129,note_off,104,0,0,,1,,,61,127
23130,note_on,1,0,0,,2,,,62,127
23234,note_off,104,0,0,,2,,,62,127
23234,note_off,0,0,0,,10,,,69,127
23235,note_on,1,0,0,,4,,,64,127
23339,note_off,104,0,0,,4,,,64,127
23340,note_on,1,0,0,,7,,,55,127
23444,note_off,104,0,0,,7,,,55,127
23445,note_on,1,0,0,,6,,,78,127
23445,note_on,0,0,0,,2,,,74,127
23445,note_on,0,0,0,,6,,,54,127
23549,note_off,104,0,0,,6,,,54,127
23550,note_on,1,0,0,,2,,,62,127
23654,note_off,104,0,0,,2,,,62,127
23654,note_off,0,0,0,,2,,,74,127
23654,note_off,0,0,0,,6,,,78,127
23655,note_on,1,0,0,,7,,,79,127
23655,note_on,0,0,0,,4,,,76,127
23655,note_on,0,0,0,,4,,,52,127
23759,note_off,104,0,0,,4,,,52,127
23760,note_on,1,0,0,,1,,,61,127
23864,note_off,104,0,0,,1,,,61,127
23864,note_off,0,0,0,,4,,,76,127
23864,note_off,0,0,0,,7,,,79,127
23865,note_on,1,0,0,,6,,,78,127
23865,note_on,0,0,0,,10,,,81,127
23865,note_on,0,0,0,,6,,,54,127
24072,note_off,207,0,0,,10,,,81,127
24072,note_off,0,0,0,,6,,,78,127
24073,note_off,1,0,0,,6,,,54,127
24074,note_on,1,0,0,,10,,,57,127
24178,note_off,104,0,0,,10,,,57,127
24179,note_on,1,0,0,,12,,,59,127
24283,note_off,104,0,0,,12,,,59,127
24284,note_on,1,0,0,,1,,,61,127
24388,note_off,104,0,0,,1,,,61,127
24389,note_on,1,0,0,,2,,,62,127
24493,note_off,104,0,0,,2,,,62,127
24494,note_on,1,0,0,,4,,,64,127
24598,note_off,104,0,0,,4,,,64,127
24599,note_on,1,0,0,,7,,,55,127
24703,note_off,104,0,0,,7,,,55,127
24704,note_on,1,0,0,,6,,,78,127
24704,note_on,0,0,0,,2,,,74,127
24704,note_on,0,0,0,,6,,,54,127
24808,note_off,104,0,0,,6,,,54,127
24809,note_on,1,0,0,,2,,,62,127
24913,note_off,104,0,0,,2,,,62,127
24913,note_off,0,0,0,,2,,,74,127
24913,note_off,0,0,0,,6,,,78,127
24914,note_on,1,0,0,,4,,,76,127
24914,note_on,0,0,0,,7,,,79,127
24914,note_on,0,0,0,,4,,,52,127
25018,note_off,104,0,0,,4,,,52,127
25019,note_on,1,0,0,,1,,,61,127
25123,note_off,104,0,0,,1,,,61,127
25123,note_off,0,0,0,,7,,,79,127
25123,note_off,0,0,0,,4,,,76,127
25124,note_on,1,0,0,,10,,,81,127
25124,note_on,0,0,0,,6,,,78,127
25124,note_on,0,0,0,,2,,,62,127
25124,note_on,0,0,0,,6,,,54,127
25332,note_off,208,0,0,,6,,,78,127
25332,note_off,0,0,0,,10,,,81,127
25333,note_on,1,0,0,,2,,,86,127
25437,note_off,104,0,0,,2,,,86,127
25438,note_on,1,0,0,,6,,,78,127
25542,note_off,104,0,0,,6,,,78,127
25543,note_on,1,0,0,,4,,,76,127
25647,note_off,104,0,0,,4,,,76,127
25648,note_on,1,0,0,,1,,,85,127
25752,note_off,104,0,0,,1,,,85,127
25752,note_off,0,0,0,,6,,,54,127
25752,note_off,0,0,0,,2,,,62,127
25753,note_on,1,0,0,,12,,,83,127
25753,note_on,0,0,0,,2,,,62,127
25753,note_on,0,0,0,,7,,,55,127
25857,note_off,104,0,0,,12,,,83,127
25858,note_on,1,0,0,,2,,,74,127
25962,note_off,104,0,0,,2,,,74,127
25963,note_on,1,0,0,,1,,,73,127
26067,note_off,104,0,0,,1,,,73,127
26068,note_on,1,0,0,,10,,,81,127
26172,note_off,104,0,0,,10,,,81,127
26173,note_on,1,0,0,,7,,,79,127
26277,note_off,104,0,0,,7,,,79,127
26278,note_on,1,0,0,,12,,,71,127
26382,note_off,104,0,0,,12,,,71,127
26382,note_off,0,0,0,,7,,,55,127
26382,note_off,0,0,0,,2,,,62,127
26383,note_on,1,0,0,,6,,,78,127
26383,note_on,0,0,0,,10,,,57,127
26487,note_off,104,0,0,,6,,,78,127
26488,note_on,1,0,0,,10,,,69,127
26592,note_off,104,0,0,,10,,,69,127
26593,note_on,1,0,0,,7,,,67,127
26697,note_off,104,0,0,,7,,,67,127
26698,note_on,1,0,0,,4,,,76,127
26802,note_off,104,0,0,,4,,,76,127
26803,note_on,1,0,0,,2,,,74,127
26907,note_off,104,0,0,,2,,,74,127
26908,note_on,1,0,0,,6,,,66,127
27012,note_off,104,0,0,,6,,,66,127
27012,note_off,0,0,0,,10,,,57,127
27013,note_on,1,0,0,,4,,,76,127
27013,note_on,0,0,0,,10,,,45,127
27117,note_off,104,0,0,,4,,,76,127
27118,note_on,1,0,0,,7,,,67,127
27222,note_off,104,0,0,,7,,,67,127
27223,note_on,1,0,0,,6,,,66,127
27327,note_off,104,0,0,,6,,,66,127
27328,note_on,1,0,0,,2,,,74,127
27432,note_off,104,0,0,,2,,,74,127
27433,note_on,1,0,0,,4,,,64,127
27537,note_off,104,0,0,,4,,,64,127
27538,note_on,1,0,0,,1,,,73,127
27642,note_off,104,0,0,,1,,,73,127
27642,note_off,0,0,0,,10,,,45,127
27643,note_on,1,0,0,,2,,,74,127
27748,note_on,105,0,0,,2,,,50,127
27852,note_off,104,0,0,,2,,,50,127
27853,note_on,1,0,0,,4,,,52,127
27957,note_off,104,0,0,,4,,,52,127
27958,note_on,1,0,0,,6,,,54,127
28062,note_off,104,0,0,,6,,,54,127
28063,note_on,1,0,0,,7,,,55,127
28167,note_off,104,0,0,,7,,,55,127
28168,note_on,1,0,0,,10,,,57,127
28272,note_off,104,0,0,,10,,,57,127
28272,note_off,0,0,0,,2,,,74,127
28273,note_on,1,0,0,,12,,,59,127
28377,note_off,104,0,0,,12,,,59,127
28378,note_on,1,0,0,,1,,,61,127
28482,note_off,104,0,0,,1,,,61,127
28483,note_on,1,0,0,,2,,,62,127
28587,note_off,104,0,0,,2,,,62,127
28588,note_on,1,0,0,,4,,,64,127
28692,note_off,104,0,0,,4,,,64,127
28693,note_on,1,0,0,,6,,,66,127
28797,note_off,104,0,0,,6,,,66,127
28798,note_on,1,0,0,,2,,,62,127
28902,note_off,104,0,0,,2,,,62,127
28903,note_on,1,0,0,,10,,,33,127
29008,note_on,105,0,0,,10,,,81,127
29112,note_off,104,0,0,,10,,,81,127
29113,note_on,1,0,0,,10,,,69,127
29217,note_off,104,0,0,,10,,,69,127
29218,note_on,1,0,0,,12,,,71,127
29322,note_off,104,0,0,,12,,,71,127
29323,note_on,1,0,0,,1,,,73,127
29427,note_off,104,0,0,,1,,,73,127
29428,note_on,1,0,0,,2,,,74,127
29532,note_off,104,0,0,,2,,,74,127
29532,note_off,0,0,0,,10,,,33,127
29533,note_on,1,0,0,,4,,,76,127
29637,note_off,104,0,0,,4,,,76,127
29638,note_on,1,0,0,,6,,,78,127
29742,note_off,104,0,0,,6,,,78,127
29743,note_on,1,0,0,,7,,,79,127
29847,note_off,104,0,0,,7,,,79,127
29848,note_on,1,0,0,,10,,,81,127
29952,note_off,104,0,0,,10,,,81,127
29953,note_on,1,0,0,,12,,,83,127
30057,note_off,104,0,0,,12,,,83,127
30058,note_on,1,0,0,,1,,,85,127
30162,note_off,104,0,0,,1,,,85,127
30163,note_on,1,0,0,,2,,,86,127
30268,note_on,105,0,0,,2,,,50,127
30372,note_off,104,0,0,,2,,,50,127
30373,note_on,1,0,0,,4,,,52,127
30477,note_off,104,0,0,,4,,,52,127
30478,note_on,1,0,0,,6,,,54,127
30582,note_off,104,0,0,,6,,,54,127
30583,note_on,1,0,0,,7,,,55,127
30687,note_off,104,0,0,,7,,,55,127
30688,note_on,1,0,0,,10,,,57,127
30792,note_off,104,0,0,,10,,,57,127
30792,note_off,0,0,0,,2,,,86,127
30793,note_on,1,0,0,,12,,,59,127
30897,note_off,104,0,0,,12,,,59,127
30898,note_on,1,0,0,,1,,,61,127
31002,note_off,104,0,0,,1,,,61,127
31003,note_on,1,0,0,,2,,,62,127
31107,note_off,104,0,0,,2,,,62,127
31108,note_on,1,0,0,,4,,,64,127
31212,note_off,104,0,0,,4,,,64,127
31213,note_on,1,0,0,,6,,,66,127
31317,note_off,104,0,0,,6,,,66,127
31318,note_on,1,0,0,,2,,,62,127
31422,note_off,104,0,0,,2,,,62,127
31423,note_on,1,0,0,,10,,,33,127
31528,note_on,105,0,0,,10,,,81,127
31632,note_off,104,0,0,,10,,,81,127
31633,note_on,1,0,0,,10,,,69,127
31737,note_off,104,0,0,,10,,,69,127
31738,note_on,1,0,0,,12,,,71,127
31842,note_off,104,0,0,,12,,,71,127
31843,note_on,1,0,0,,1,,,73,127
31947,note_off,104,0,0,,1,,,73,127
31948,note_on,1,0,0,,2,,,74,127
32052,note_off,104,0,0,,2,,,74,127
32052,note_off,0,0,0,,10,,,33,127
32053,note_on,1,0,0,,4,,,76,127
32157,note_off,104,0,0,,4,,,76,127
32158,note_on,1,0,0,,6,,,78,127
32262,note_off,104,0,0,,6,,,78,127
32263,note_on,1,0,0,,7,,,79,127
32367,note_off,104,0,0,,7,,,79,127
32368,note_on,1,0,0,,10,,,81,127
32472,note_off,104,0,0,,10,,,81,127
32473,note_on,1,0,0,,12,,,83,127
32577,note_off,104,0,0,,12,,,83,127
32578,note_on,1,0,0,,1,,,85,127
32682,note_off,104,0,0,,1,,,85,127
32683,note_on,1,0,0,,2,,,86,127
32683,note_on,0,0,0,,2,,,50,127
32891,note_off,208,0,0,,2,,,86,127
32892,note_on,1,0,0,,2,,,86,127
32996,note_off,104,0,0,,2,,,86,127
32997,note_on,1,0,0,,6,,,78,127
33101,note_off,104,0,0,,6,,,78,127
33102,note_on,1,0,0,,4,,,76,127
33206,note_off,104,0,0,,4,,,76,127
33207,note_on,1,0,0,,1,,,85,127
33311,note_off,104,0,0,,1,,,85,127
33311,note_off,0,0,0,,2,,,50,127
33312,note_on,1,0,0,,12,,,83,127
33312,note_on,0,0,0,,7,,,55,127
33416,note_off,104,0,0,,12,,,83,127
33417,note_on,1,0,0,,2,,,74,127
33521,note_off,104,0,0,,2,,,74,127
33522,note_on,1,0,0,,1,,,73,127
33626,note_off,104,0,0,,1,,,73,127
33627,note_on,1,0,0,,10,,,81,127
33731,note_off,104,0,0,,10,,,81,127
33732,note_on,1,0,0,,7,,,79,127
33836,note_off,104,0,0,,7,,,79,127
33837,note_on,1,0,0,,12,,,71,127
33941,note_off,104,0,0,,12,,,71,127
33941,note_off,0,0,0,,7,,,55,127
33942,note_on,1,0,0,,6,,,78,127
33942,note_on,0,0,0,,10,,,57,127
34046,note_off,104,0,0,,6,,,78,127
34047,note_on,1,0,0,,10,,,69,127
34151,note_off,104,0,0,,10,,,69,127
34152,note_on,1,0,0,,7,,,67,127
34256,note_off,104,0,0,,7,,,67,127
34257,note_on,1,0,0,,4,,,76,127
34361,note_off,104,0,0,,4,,,76,127
34362,note_on,1,0,0,,2,,,74,127
34466,note_off,104,0,0,,2,,,74,127
34467,note_on,1,0,0,,6,,,66,127
34571,note_off,104,0,0,,6,,,66,127
34571,note_off,0,0,0,,10,,,57,127
34572,note_on,1,0,0,,4,,,76,127
34572,note_on,0,0,0,,10,,,45,127
34676,note_off,104,0,0,,4,,,76,127
34677,note_on,1,0,0,,7,,,67,127
34781,note_off,104,0,0,,7,,,67,127
34782,note_on,1,0,0,,6,,,66,127
34886,note_off,104,0,0,,6,,,66,127
34887,note_on,1,0,0,,2,,,74,127
34991,note_off,104,0,0,,2,,,74,127
34992,note_on,1,0,0,,4,,,64,127
35096,note_off,104,0,0,,4,,,64,127
35097,note_on,1,0,0,,1,,,73,127
35201,note_off,104,0,0,,1,,,73,127
35201,note_off,0,0,0,,10,,,45,127
35202,note_on,1,0,0,,2,,,74,127
35202,note_on,0,0,0,,2,,,38,127
35410,note_off,208,0,0,,2,,,74,127
35411,note_on,1,0,0,,2,,,86,127
35515,note_off,104,0,0,,2,,,86,127
35516,note_on,1,0,0,,6,,,78,127
35620,note_off,104,0,0,,6,,,78,127
35621,note_on,1,0,0,,4,,,76,127
35725,note_off,104,0,0,,4,,,76,127
35726,note_on,1,0,0,,1,,,85,127
35830,note_off,104,0,0,,1,,,85,127
35830,note_off,0,0,0,,2,,,38,127
35831,note_on,1,0,0,,12,,,83,127
35831,note_on,0,0,0,,7,,,43,127
35935,note_off,104,0,0,,12,,,83,127
35936,note_on,1,0,0,,2,,,74,127
36040,note_off,104,0,0,,2,,,74,127
36041,note_on,1,0,0,,1,,,73,127
36145,note_off,104,0,0,,1,,,73,127
36146,note_on,1,0,0,,10,,,81,127
36250,note_off,104,0,0,,10,,,81,127
36251,note_on,1,0,0,,7,,,79,127
36355,note_off,104,0,0,,7,,,79,127
36356,note_on,1,0,0,,12,,,71,127
36460,note_off,104,0,0,,12,,,71,127
36460,note_off,0,0,0,,7,,,43,127
36461,note_on,1,0,0,,6,,,78,127
36461,note_on,0,0,0,,10,,,45,127
36565,note_off,104,0,0,,6,,,78,127
36566,note_on,1,0,0,,10,,,69,127
36670,note_off,104,0,0,,10,,,69,127
36671,note_on,1,0,0,,7,,,67,127
36775,note_off,104,0,0,,7,,,67,127
36776,note_on,1,0,0,,4,,,76,127
36880,note_off,104,0,0,,4,,,76,127
36881,note_on,1,0,0,,2,,,74,127
36985,note_off,104,0,0,,2,,,74,127
36986,note_on,1,0,0,,6,,,66,127
37090,note_off,104,0,0,,6,,,66,127
37090,note_off,0,0,0,,10,,,45,127
37091,note_on,1,0,0,,4,,,76,127
37091,note_on,0,0,0,,10,,,33,127
37195,note_off,104,0,0,,4,,,76,127
37196,note_on,1,0,0,,7,,,67,127
37300,note_off,104,0,0,,7,,,67,127
37301,note_on,1,0,0,,6,,,66,127
37405,note_off,104,0,0,,6,,,66,127
37406,note_on,1,0,0,,2,,,74,127
37510,note_off,104,0,0,,2,,,74,127
37511,note_on,1,0,0,,4,,,64,127
37615,note_off,104,0,0,,4,,,64,127
37616,note_on,1,0,0,,1,,,73,127
37720,note_off,104,0,0,,1,,,73,127
37720,note_off,0,0,0,,10,,,33,127
37721,note_on,1,0,0,,2,,,74,127
37721,note_on,0,0,0,,2,,,38,127
38245,note_off,524,0,0,,2,,,74,127
38349,note_off,104,0,0,,2,,,38,127
38350,note_on,1,0,0,,2,,,74,127
38350,note_on,0,0,0,,2,,,38,127
38558,note_off,208,0,0,,2,,,74,127
38559,note_on,1,0,0,,2,,,74,127
38663,note_off,104,0,0,,2,,,74,127
38664,note_on,1,0,0,,4,,,76,127
38768,note_off,104,0,0,,4,,,76,127
38769,note_on,1,0,0,,6,,,78,127
38873,note_off,104,0,0,,6,,,78,127
38874,note_on,1,0,0,,7,,,79,127
38978,note_off,104,0,0,,7,,,79,127
38978,note_off,0,0,0,,2,,,38,127
38979,note_on,1,0,0,,10,,,81,127
39083,note_off,104,0,0,,10,,,81,127
39084,note_on,1,0,0,,12,,,83,127
39188,note_off,104,0,0,,12,,,83,127
39189,note_on,1,0,0,,0,,,84,127
39293,note_off,104,0,0,,0,,,84,127
39294,note_on,1,0,0,,4,,,76,127
39398,note_off,104,0,0,,4,,,76,127
39399,note_on,1,0,0,,2,,,74,127
39503,note_off,104,0,0,,2,,,74,127
39504,note_on,1,0,0,,12,,,83,127
39608,note_off,104,0,0,,12,,,83,127
39609,note_on,1,0,0,,10,,,81,127
39713,note_off,104,0,0,,10,,,81,127
39714,note_on,1,0,0,,0,,,72,127
39818,note_off,104,0,0,,0,,,72,127
39819,note_on,1,0,0,,12,,,71,127
39923,note_off,104,0,0,,12,,,71,127
39924,note_on,1,0,0,,7,,,79,127
40028,note_off,104,0,0,,7,,,79,127
40029,note_on,1,0,0,,6,,,78,127
40133,note_off,104,0,0,,6,,,78,127
40134,note_on,1,0,0,,10,,,69,127
40238,note_off,104,0,0,,10,,,69,127
40239,note_on,1,0,0,,7,,,67,127
40343,note_off,104,0,0,,7,,,67,127
40344,note_on,1,0,0,,4,,,76,127
40448,note_off,104,0,0,,4,,,76,127
40449,note_on,1,0,0,,2,,,74,127
40553,note_off,104,0,0,,2,,,74,127
40554,note_on,1,0,0,,6,,,66,127
40658,note_off,104,0,0,,6,,,66,127
40659,note_on,1,0,0,,4,,,64,127
40763,note_off,104,0,0,,4,,,64,127
40764,note_on,1,0,0,,0,,,72,127
40868,note_off,104,0,0,,0,,,72,127
40869,note_on,1,0,0,,12,,,71,127
40973,note_off,104,0,0,,12,,,71,127
40974,note_on,1,0,0,,2,,,62,127
41078,note_off,104,0,0,,2,,,62,127
41079,note_on,1,0,0,,0,,,60,127
41183,note_off,104,0,0,,0,,,60,127
41184,note_on,1,0,0,,10,,,69,127
41288,note_off,104,0,0,,10,,,69,127
41289,note_on,1,0,0,,7,,,67,127
41393,note_off,104,0,0,,7,,,67,127
41394,note_on,1,0,0,,12,,,59,127
41498,note_off,104,0,0,,12,,,59,127
41499,note_on,1,0,0,,10,,,57,127
41603,note_off,104,0,0,,10,,,57,127
41604,note_on,1,0,0,,6,,,66,127
41708,note_off,104,0,0,,6,,,66,127
41709,note_on,1,0,0,,12,,,59,127
41813,note_off,104,0,0,,12,,,59,127
41814,note_on,1,0,0,,7,,,67,127
41918,note_off,104,0,0,,7,,,67,127
41919,note_on,1,0,0,,7,,,55,127
42023,note_off,104,0,0,,7,,,55,127
42024,note_on,1,0,0,,2,,,62,127
42128,note_off,104,0,0,,2,,,62,127
42129,note_on,1,0,0,,10,,,69,127
42338,note_on,209,0,0,,5,,,65,127
42338,note_on,0,0,0,,5,,,53,127
42546,note_off,208,0,0,,5,,,53,127
42546,note_off,0,0,0,,5,,,65,127
42547,note_on,1,0,0,,4,,,64,127
42547,note_on,0,0,0,,4,,,52,127
42755,note_off,208,0,0,,4,,,52,127
42755,note_off,0,0,0,,4,,,64,127
42755,note_off,0,0,0,,10,,,69,127
42756,note_on,1,0,0,,2,,,62,127
42756,note_on,0,0,0,,2,,,50,127
42964,note_off,208,0,0,,2,,,50,127
42964,note_off,0,0,0,,2,,,62,127
42965,note_on,1,0,0,,5,,,65,127
42965,note_on,0,0,0,,5,,,53,127
43173,note_off,208,0,0,,5,,,53,127
43173,note_off,0,0,0,,5,,,65,127
43174,note_on,1,0,0,,4,,,64,127
43174,note_on,0,0,0,,4,,,52,127
43382,note_off,208,0,0,,4,,,52,127
43382,note_off,0,0,0,,4,,,64,127
43383,note_on,1,0,0,,2,,,62,127
43383,note_on,0,0,0,,2,,,50,127
43591,note_off,208,0,0,,2,,,62,127
43592,note_on,1,0,0,,0,,,60,127
43797,note_off,205,0,0,,2,,,50,127
43800,note_off,3,0,0,,0,,,60,127
43801,note_on,1,0,0,,12,,,59,127
43801,note_on,0,0,0,,4,,,52,127
44009,note_off,208,0,0,,4,,,52,127
44009,note_off,0,0,0,,12,,,59,127
44010,note_on,1,0,0,,5,,,53,127
44010,note_on,0,0,0,,12,,,59,127
44061,note_off,51,0,0,,12,,,59,127
44062,note_on,1,0,0,,10,,,57,127
44113,note_off,51,0,0,,10,,,57,127
44114,note_on,1,0,0,,12,,,59,127
44165,note_off,51,0,0,,12,,,59,127
44166,note_on,1,0,0,,10,,,57,127
44217,note_off,51,0,0,,10,,,57,127
44218,note_on,1,0,0,,8,,,56,127
44423,note_off,205,0,0,,5,,,53,127
44426,note_off,3,0,0,,8,,,56,127
44427,note_on,1,0,0,,10,,,57,127
44427,note_on,0,0,0,,5,,,53,127
44635,note_off,208,0,0,,5,,,53,127
44635,note_off,0,0,0,,10,,,57,127
44636,note_on,1,0,0,,12,,,59,127
44636,note_on,0,0,0,,4,,,52,127
44845,note_on,209,0,0,,2,,,86,127
44949,note_off,104,0,0,,2,,,86,127
44950,note_on,1,0,0,,5,,,77,127
45054,note_off,104,0,0,,5,,,77,127
45055,note_on,1,0,0,,4,,,76,127
45159,note_off,104,0,0,,4,,,76,127
45160,note_on,1,0,0,,0,,,84,127
45264,note_off,104,0,0,,0,,,84,127
45264,note_off,0,0,0,,4,,,52,127
45264,note_off,0,0,0,,12,,,59,127
45265,note_on,1,0,0,,12,,,83,127
45265,note_on,0,0,0,,4,,,40,127
45369,note_off,104,0,0,,12,,,83,127
45370,note_on,1,0,0,,2,,,74,127
45474,note_off,104,0,0,,2,,,74,127
45475,note_on,1,0,0,,0,,,72,127
45579,note_off,104,0,0,,0,,,72,127
45580,note_on,1,0,0,,10,,,81,127
45684,note_off,104,0,0,,10,,,81,127
45685,note_on,1,0,0,,8,,,80,127
45789,note_off,104,0,0,,8,,,80,127
45790,note_on,1,0,0,,12,,,71,127
45894,note_off,104,0,0,,12,,,71,127
45894,note_off,0,0,0,,4,,,40,127
45895,note_on,1,0,0,,5,,,77,127
45895,note_on,0,0,0,,4,,,40,127
45999,note_off,104,0,0,,5,,,77,127
46000,note_on,1,0,0,,10,,,69,127
46104,note_off,104,0,0,,10,,,69,127
46105,note_on,1,0,0,,8,,,68,127
46209,note_off,104,0,0,,8,,,68,127
46210,note_on,1,0,0,,4,,,76,127
46314,note_off,104,0,0,,4,,,76,127
46315,note_on,1,0,0,,2,,,74,127
46419,note_off,104,0,0,,2,,,74,127
46420,note_on,1,0,0,,5,,,65,127
46524,note_off,104,0,0,,5,,,65,127
46524,note_off,0,0,0,,4,,,40,127
46525,note_on,1,0,0,,0,,,72,127
46525,note_on,0,0,0,,4,,,40,127
46629,note_off,104,0,0,,0,,,72,127
46630,note_on,1,0,0,,4,,,64,127
46734,note_off,104,0,0,,4,,,64,127
46735,note_on,1,0,0,,2,,,62,127
46839,note_off,104,0,0,,2,,,62,127
46840,note_on,1,0,0,,12,,,71,127
46944,note_off,104,0,0,,12,,,71,127
46945,note_on,1,0,0,,10,,,69,127
47049,note_off,104,0,0,,10,,,69,127
47050,note_on,1,0,0,,0,,,60,127
47154,note_off,104,0,0,,0,,,60,127
47154,note_off,0,0,0,,4,,,40,127
47155,note_on,1,0,0,,12,,,59,127
47155,note_on,0,0,0,,4,,,40,127
47259,note_off,104,0,0,,12,,,59,127
47260,note_on,1,0,0,,8,,,68,127
47364,note_off,104,0,0,,8,,,68,127
47365,note_on,1,0,0,,0,,,60,127
47469,note_off,104,0,0,,0,,,60,127
47470,note_on,1,0,0,,10,,,69,127
47574,note_off,104,0,0,,10,,,69,127
47575,note_on,1,0,0,,10,,,57,127
47679,note_off,104,0,0,,10,,,57,127
47680,note_on,1,0,0,,4,,,64,127
47784,note_off,104,0,0,,4,,,64,127
47784,note_off,0,0,0,,4,,,40,127
47785,note_on,1,0,0,,12,,,71,127
47994,note_on,209,0,0,,7,,,67,127
47994,note_on,0,0,0,,7,,,55,127
48202,note_off,208,0,0,,7,,,55,127
48202,note_off,0,0,0,,7,,,67,127
48203,note_on,1,0,0,,6,,,66,127
48203,note_on,0,0,0,,6,,,54,127
48411,note_off,208,0,0,,6,,,54,127
48411,note_off,0,0,0,,6,,,66,127
48411,note_off,0,0,0,,12,,,71,127
48412,note_on,1,0,0,,4,,,64,127
48412,note_on,0,0,0,,4,,,52,127
48620,note_off,208,0,0,,4,,,52,127
48620,note_off,0,0,0,,4,,,64,127
48621,note_on,1,0,0,,7,,,67,127
48621,note_on,0,0,0,,7,,,55,127
48829,note_off,208,0,0,,7,,,55,127
48829,note_off,0,0,0,,7,,,67,127
48830,note_on,1,0,0,,6,,,66,127
48830,note_on,0,0,0,,6,,,54,127
49038,note_off,208,0,0,,6,,,54,127
49038,note_off,0,0,0,,6,,,66,127
49039,note_on,1,0,0,,4,,,64,127
49039,note_on,0,0,0,,4,,,52,127
49247,note_off,208,0,0,,4,,,64,127
49248,note_on,1,0,0,,2,,,62,127
49453,note_off,205,0,0,,4,,,52,127
49456,note_off,3,0,0,,2,,,62,127
49457,note_on,1,0,0,,1,,,61,127
49457,note_on,0,0,0,,6,,,54,127
49665,note_off,208,0,0,,6,,,54,127
49665,note_off,0,0,0,,1,,,61,127
49666,note_on,1,0,0,,1,,,61,127
49666,note_on,0,0,0,,7,,,55,127
49717,note_off,51,0,0,,1,,,61,127
49718,note_on,1,0,0,,12,,,59,127
49769,note_off,51,0,0,,12,,,59,127
49770,note_on,1,0,0,,1,,,61,127
49821,note_off,51,0,0,,1,,,61,127
49822,note_on,1,0,0,,12,,,59,127
49873,note_off,51,0,0,,12,,,59,127
49874,note_on,1,0,0,,11,,,58,127
50079,note_off,205,0,0,,7,,,55,127
50082,note_off,3,0,0,,11,,,58,127
50083,note_on,1,0,0,,7,,,55,127
50083,note_on,0,0,0,,12,,,59,127
50291,note_off,208,0,0,,12,,,59,127
50291,note_off,0,0,0,,7,,,55,127
50292,note_on,1,0,0,,1,,,61,127
50292,note_on,0,0,0,,6,,,54,127
50501,note_on,209,0,0,,1,,,85,127
50605,note_off,104,0,0,,1,,,85,127
50606,note_on,1,0,0,,4,,,76,127
50710,note_off,104,0,0,,4,,,76,127
50711,note_on,1,0,0,,2,,,74,127
50815,note_off,104,0,0,,2,,,74,127
50816,note_on,1,0,0,,12,,,83,127
50920,note_off,104,0,0,,12,,,83,127
50920,note_off,0,0,0,,6,,,54,127
50920,note_off,0,0,0,,1,,,61,127
50921,note_on,1,0,0,,11,,,82,127
50921,note_on,0,0,0,,6,,,42,127
51025,note_off,104,0,0,,11,,,82,127
51026,note_on,1,0,0,,1,,,73,127
51130,note_off,104,0,0,,1,,,73,127
51131,note_on,1,0,0,,12,,,71,127
51235,note_off,104,0,0,,12,,,71,127
51236,note_on,1,0,0,,7,,,79,127
51340,note_off,104,0,0,,7,,,79,127
51341,note_on,1,0,0,,6,,,78,127
51445,note_off,104,0,0,,6,,,78,127
51446,note_on,1,0,0,,11,,,70,127
51550,note_off,104,0,0,,11,,,70,127
51550,note_off,0,0,0,,6,,,42,127
51551,note_on,1,0,0,,4,,,76,127
51551,note_on,0,0,0,,6,,,42,127
51655,note_off,104,0,0,,4,,,76,127
51656,note_on,1,0,0,,7,,,67,127
51760,note_off,104,0,0,,7,,,67,127
51761,note_on,1,0,0,,6,,,66,127
51865,note_off,104,0,0,,6,,,66,127
51866,note_on,1,0,0,,2,,,74,127
51970,note_off,104,0,0,,2,,,74,127
51971,note_on,1,0,0,,1,,,73,127
52075,note_off,104,0,0,,1,,,73,127
52076,note_on,1,0,0,,4,,,64,127
52180,note_off,104,0,0,,4,,,64,127
52180,note_off,0,0,0,,6,,,42,127
52181,note_on,1,0,0,,2,,,62,127
52181,note_on,0,0,0,,6,,,42,127
52285,note_off,104,0,0,,2,,,62,127
52286,note_on,1,0,0,,12,,,71,127
52390,note_off,104,0,0,,12,,,71,127
52391,note_on,1,0,0,,11,,,70,127
52495,note_off,104,0,0,,11,,,70,127
52496,note_on,1,0,0,,1,,,61,127
52600,note_off,104,0,0,,1,,,61,127
52601,note_on,1,0,0,,12,,,59,127
52705,note_off,104,0,0,,12,,,59,127
52706,note_on,1,0,0,,7,,,67,127
52810,note_off,104,0,0,,7,,,67,127
52810,note_off,0,0,0,,6,,,42,127
52811,note_on,1,0,0,,6,,,66,127
52811,note_on,0,0,0,,11,,,58,127
52811,note_on,0,0,0,,6,,,42,127
53019,note_off,208,0,0,,11,,,58,127
53019,note_off,0,0,0,,6,,,66,127
53020,note_on,1,0,0,,6,,,66,127
53124,note_off,104,0,0,,6,,,66,127
53125,note_on,1,0,0,,8,,,68,127
53229,note_off,104,0,0,,8,,,68,127
53230,note_on,1,0,0,,11,,,70,127
53334,note_off,104,0,0,,11,,,70,127
53335,note_on,1,0,0,,12,,,71,127
53439,note_off,104,0,0,,12,,,71,127
53439,note_off,0,0,0,,6,,,42,127
53440,note_on,1,0,0,,1,,,73,127
53440,note_on,0,0,0,,4,,,52,127
53544,note_off,104,0,0,,1,,,73,127
53545,note_on,1,0,0,,2,,,74,127
53649,note_off,104,0,0,,2,,,74,127
53650,note_on,1,0,0,,4,,,76,127
53754,note_off,104,0,0,,4,,,76,127
53755,note_on,1,0,0,,6,,,78,127
53859,note_off,104,0,0,,6,,,78,127
53860,note_on,1,0,0,,7,,,79,127
53964,note_off,104,0,0,,7,,,79,127
53965,note_on,1,0,0,,11,,,70,127
54069,note_off,104,0,0,,11,,,70,127
54069,note_off,0,0,0,,4,,,52,127
54070,note_on,1,0,0,,12,,,71,127
54070,note_on,0,0,0,,2,,,50,127
54278,note_off,208,0,0,,12,,,71,127
54279,note_on,1,0,0,,2,,,62,127
54383,note_off,104,0,0,,2,,,62,127
54384,note_on,1,0,0,,4,,,64,127
54488,note_off,104,0,0,,4,,,64,127
54489,note_on,1,0,0,,6,,,66,127
54593,note_off,104,0,0,,6,,,66,127
54594,note_on,1,0,0,,8,,,68,127
54698,note_off,104,0,0,,8,,,68,127
54698,note_off,0,0,0,,2,,,50,127
54699,note_on,1,0,0,,11,,,70,127
54699,note_on,0,0,0,,1,,,49,127
54803,note_off,104,0,0,,11,,,70,127
54804,note_on,1,0,0,,12,,,71,127
54908,note_off,104,0,0,,12,,,71,127
54909,note_on,1,0,0,,1,,,73,127
55013,note_off,104,0,0,,1,,,73,127
55014,note_on,1,0,0,,2,,,74,127
55118,note_off,104,0,0,,2,,,74,127
55119,note_on,1,0,0,,4,,,76,127
55223,note_off,104,0,0,,4,,,76,127
55224,note_on,1,0,0,,1,,,73,127
55328,note_off,104,0,0,,1,,,73,127
55328,note_off,0,0,0,,1,,,49,127
55329,note_on,1,0,0,,2,,,74,127
55329,note_on,0,0,0,,12,,,47,127
55537,note_off,208,0,0,,2,,,74,127
55538,note_on,1,0,0,,12,,,71,127
55642,note_off,104,0,0,,12,,,71,127
55643,note_on,1,0,0,,1,,,73,127
55747,note_off,104,0,0,,1,,,73,127
55748,note_on,1,0,0,,2,,,74,127
55852,note_off,104,0,0,,2,,,74,127
55853,note_on,1,0,0,,4,,,76,127
55957,note_off,104,0,0,,4,,,76,127
55957,note_off,0,0,0,,12,,,47,127
55958,note_on,1,0,0,,6,,,78,127
55958,note_on,0,0,0,,12,,,59,127
56062,note_off,104,0,0,,6,,,78,127
56063,note_on,1,0,0,,7,,,79,127
56167,note_off,104,0,0,,7,,,79,127
56167,note_off,0,0,0,,12,,,59,127
56168,note_on,1,0,0,,10,,,81,127
56168,note_on,0,0,0,,10,,,57,127
56272,note_off,104,0,0,,10,,,81,127
56273,note_on,1,0,0,,11,,,82,127
56377,note_off,104,0,0,,11,,,82,127
56377,note_off,0,0,0,,10,,,57,127
56378,note_on,1,0,0,,12,,,83,127
56378,note_on,0,0,0,,7,,,55,127
56482,note_off,104,0,0,,12,,,83,127
56483,note_on,1,0,0,,12,,,71,127
56587,note_off,104,0,0,,12,,,71,127
56587,note_off,0,0,0,,7,,,55,127
56588,note_on,1,0,0,,10,,,69,127
56588,note_on,0,0,0,,10,,,45,127
56796,note_off,208,0,0,,10,,,69,127
56797,note_on,1,0,0,,10,,,69,127
56901,note_off,104,0,0,,10,,,69,127
56902,note_on,1,0,0,,12,,,71,127
57006,note_off,104,0,0,,12,,,71,127
57007,note_on,1,0,0,,1,,,73,127
57111,note_off,104,0,0,,1,,,73,127
57112,note_on,1,0,0,,2,,,74,127
57216,note_off,104,0,0,,2,,,74,127
57216,note_off,0,0,0,,10,,,45,127
57217,note_on,1,0,0,,4,,,76,127
57217,note_on,0,0,0,,10,,,57,127
57321,note_off,104,0,0,,4,,,76,127
57322,note_on,1,0,0,,6,,,78,127
57426,note_off,104,0,0,,6,,,78,127
57426,note_off,0,0,0,,10,,,57,127
57427,note_on,1,0,0,,7,,,79,127
57427,note_on,0,0,0,,7,,,55,127
57531,note_off,104,0,0,,7,,,79,127
57532,note_on,1,0,0,,8,,,80,127
57636,note_off,104,0,0,,8,,,80,127
57636,note_off,0,0,0,,7,,,55,127
57637,note_on,1,0,0,,10,,,81,127
57637,note_on,0,0,0,,6,,,54,127
57741,note_off,104,0,0,,10,,,81,127
57742,note_on,1,0,0,,10,,,69,127
57846,note_off,104,0,0,,10,,,69,127
57846,note_off,0,0,0,,6,,,54,127
57847,note_on,1,0,0,,7,,,67,127
57847,note_on,0,0,0,,7,,,43,127
57951,note_off,104,0,0,,7,,,67,127
57952,note_on,1,0,0,,12,,,71,127
58056,note_off,104,0,0,,12,,,71,127
58057,note_on,1,0,0,,10,,,69,127
58161,note_off,104,0,0,,10,,,69,127
58162,note_on,1,0,0,,7,,,67,127
58266,note_off,104,0,0,,7,,,67,127
58267,note_on,1,0,0,,10,,,69,127
58371,note_off,104,0,0,,10,,,69,127
58372,note_on,1,0,0,,12,,,71,127
58476,note_off,104,0,0,,12,,,71,127
58476,note_off,0,0,0,,7,,,43,127
58477,note_on,1,0,0,,1,,,73,127
58477,note_on,0,0,0,,7,,,55,127
58581,note_off,104,0,0,,1,,,73,127
58582,note_on,1,0,0,,2,,,74,127
58686,note_off,104,0,0,,2,,,74,127
58686,note_off,0,0,0,,7,,,55,127
58687,note_on,1,0,0,,4,,,76,127
58687,note_on,0,0,0,,6,,,54,127
58791,note_off,104,0,0,,4,,,76,127
58792,note_on,1,0,0,,6,,,78,127
58896,note_off,104,0,0,,6,,,78,127
58896,note_off,0,0,0,,6,,,54,127
58897,note_on,1,0,0,,7,,,79,127
58897,note_on,0,0,0,,4,,,52,127
59001,note_off,104,0,0,,7,,,79,127
59002,note_on,1,0,0,,7,,,67,127
59106,note_off,104,0,0,,7,,,67,127
59106,note_off,0,0,0,,4,,,52,127
59107,note_on,1,0,0,,6,,,66,127
59107,note_on,0,0,0,,2,,,50,127
59315,note_off,208,0,0,,6,,,66,127
59316,note_on,1,0,0,,2,,,86,127
59420,note_off,104,0,0,,2,,,86,127
59421,note_on,1,0,0,,6,,,78,127
59525,note_off,104,0,0,,6,,,78,127
59525,note_off,0,0,0,,2,,,50,127
59526,note_on,1,0,0,,4,,,76,127
59526,note_on,0,0,0,,6,,,66,127
59630,note_off,104,0,0,,4,,,76,127
59631,note_on,1,0,0,,0,,,84,127
59735,note_off,104,0,0,,0,,,84,127
59735,note_off,0,0,0,,6,,,66,127
59736,note_on,1,0,0,,12,,,83,127
59736,note_on,0,0,0,,7,,,67,127
59840,note_off,104,0,0,,12,,,83,127
59841,note_on,1,0,0,,2,,,74,127
59945,note_off,104,0,0,,2,,,74,127
59946,note_on,1,0,0,,0,,,72,127
60050,note_off,104,0,0,,0,,,72,127
60051,note_on,1,0,0,,10,,,81,127
60155,note_off,104,0,0,,10,,,81,127
60155,note_off,0,0,0,,7,,,67,127
60156,note_on,1,0,0,,7,,,79,127
60156,note_on,0,0,0,,0,,,60,127
60260,note_off,104,0,0,,7,,,79,127
60261,note_on,1,0,0,,12,,,71,127
60365,note_off,104,0,0,,12,,,71,127
60365,note_off,0,0,0,,0,,,60,127
60366,note_on,1,0,0,,6,,,78,127
60366,note_on,0,0,0,,10,,,69,127
60366,note_on,0,0,0,,2,,,62,127
60574,note_off,208,0,0,,10,,,69,127
60574,note_off,0,0,0,,6,,,78,127
60575,note_on,1,0,0,,2,,,86,127
60679,note_off,104,0,0,,2,,,86,127
60680,note_on,1,0,0,,6,,,78,127
60784,note_off,104,0,0,,6,,,78,127
60784,note_off,0,0,0,,2,,,62,127
60785,note_on,1,0,0,,4,,,76,127
60785,note_on,0,0,0,,6,,,66,127
60889,note_off,104,0,0,,4,,,76,127
60890,note_on,1,0,0,,0,,,84,127
60994,note_off,104,0,0,,0,,,84,127
60994,note_off,0,0,0,,6,,,66,127
60995,note_on,1,0,0,,12,,,83,127
60995,note_on,0,0,0,,7,,,67,127
61099,note_off,104,0,0,,12,,,83,127
61100,note_on,1,0,0,,2,,,74,127
61204,note_off,104,0,0,,2,,,74,127
61205,note_on,1,0,0,,0,,,72,127
61309,note_off,104,0,0,,0,,,72,127
61310,note_on,1,0,0,,10,,,81,127
61414,note_off,104,0,0,,10,,,81,127
61414,note_off,0,0,0,,7,,,67,127
61415,note_on,1,0,0,,7,,,79,127
61415,note_on,0,0,0,,0,,,60,127
61519,note_off,104,0,0,,7,,,79,127
61520,note_on,1,0,0,,12,,,71,127
61624,note_off,104,0,0,,12,,,71,127
61624,note_off,0,0,0,,0,,,60,127
61625,note_on,1,0,0,,10,,,69,127
61625,note_on,0,0,0,,6,,,78,127
61625,note_on,0,0,0,,2,,,62,127
61833,note_off,208,0,0,,2,,,62,127
61834,note_on,1,0,0,,2,,,62,127
61938,note_off,104,0,0,,2,,,62,127
61939,note_on,1,0,0,,4,,,64,127
62043,note_off,104,0,0,,4,,,64,127
62044,note_on,1,0,0,,6,,,66,127
62148,note_off,104,0,0,,6,,,66,127
62149,note_off,1,0,0,,6,,,78,127
62149,note_off,0,0,0,,10,,,69,127
62149,note_on,0,0,0,,7,,,67,127
62253,note_off,104,0,0,,7,,,67,127
62254,note_on,1,0,0,,10,,,69,127
62358,note_off,104,0,0,,10,,,69,127
62359,note_on,1,0,0,,0,,,60,127
62463,note_off,104,0,0,,0,,,60,127
62464,note_on,1,0,0,,12,,,83,127
62464,note_on,0,0,0,,7,,,79,127
62464,note_on,0,0,0,,12,,,59,127
62568,note_off,104,0,0,,12,,,59,127
62569,note_on,1,0,0,,7,,,67,127
62673,note_off,104,0,0,,7,,,67,127
62673,note_off,0,0,0,,7,,,79,127
62673,note_off,0,0,0,,12,,,83,127
62674,note_on,1,0,0,,10,,,81,127
62674,note_on,0,0,0,,0,,,84,127
62674,note_on,0,0,0,,10,,,57,127
62778,note_off,104,0,0,,10,,,57,127
62779,note_on,1,0,0,,6,,,66,127
62883,note_off,104,0,0,,6,,,66,127
62883,note_off,0,0,0,,0,,,84,127
62883,note_off,0,0,0,,10,,,81,127
62884,note_on,1,0,0,,12,,,83,127
62884,note_on,0,0,0,,2,,,86,127
62884,note_on,0,0,0,,12,,,59,127
62884,note_on,0,0,0,,7,,,67,127
63092,note_off,208,0,0,,7,,,67,127
63092,note_off,0,0,0,,12,,,59,127
63093,note_on,1,0,0,,2,,,62,127
63197,note_off,104,0,0,,2,,,62,127
63198,note_on,1,0,0,,4,,,64,127
63302,note_off,104,0,0,,4,,,64,127
63303,note_on,1,0,0,,6,,,66,127
63407,note_off,104,0,0,,6,,,66,127
63408,note_off,1,0,0,,2,,,86,127
63408,note_off,0,0,0,,12,,,83,127
63408,note_on,0,0,0,,7,,,67,127
63512,note_off,104,0,0,,7,,,67,127
63513,note_on,1,0,0,,10,,,69,127
63617,note_off,104,0,0,,10,,,69,127
63618,note_on,1,0,0,,0,,,60,127
63722,note_off,104,0,0,,0,,,60,127
63723,note_on,1,0,0,,7,,,79,127
63723,note_on,0,0,0,,12,,,83,127
63723,note_on,0,0,0,,12,,,59,127
63827,note_off,104,0,0,,12,,,59,127
63828,note_on,1,0,0,,7,,,67,127
63932,note_off,104,0,0,,7,,,67,127
63932,note_off,0,0,0,,12,,,83,127
63932,note_off,0,0,0,,7,,,79,127
63933,note_on,1,0,0,,10,,,81,127
63933,note_on,0,0,0,,0,,,84,127
63933,note_on,0,0,0,,10,,,57,127
64037,note_off,104,0,0,,10,,,57,127
64038,note_on,1,0,0,,6,,,66,127
64142,note_off,104,0,0,,6,,,66,127
64142,note_off,0,0,0,,0,,,84,127
64142,note_off,0,0,0,,10,,,81,127
64143,note_on,1,0,0,,2,,,86,127
64143,note_on,0,0,0,,12,,,59,127
64143,note_on,0,0,0,,7,,,67,127
64247,note_off,104,0,0,,2,,,86,127
64248,note_on,1,0,0,,0,,,84,127
64352,note_off,104,0,0,,0,,,84,127
64353,note_on,1,0,0,,12,,,83,127
64457,note_off,104,0,0,,12,,,83,127
64458,note_on,1,0,0,,10,,,81,127
64562,note_off,104,0,0,,10,,,81,127
64563,note_on,1,0,0,,7,,,79,127
64667,note_off,104,0,0,,7,,,79,127
64668,note_on,1,0,0,,6,,,78,127
64772,note_off,104,0,0,,6,,,78,127
64772,note_off,0,0,0,,7,,,67,127
64772,note_off,0,0,0,,12,,,59,127
64773,note_on,1,0,0,,4,,,76,127
64773,note_on,0,0,0,,0,,,60,127
64877,note_off,104,0,0,,4,,,76,127
64878,note_on,1,0,0,,0,,,84,127
64982,note_off,104,0,0,,0,,,84,127
64983,note_on,1,0,0,,12,,,83,127
65087,note_off,104,0,0,,12,,,83,127
65088,note_on,1,0,0,,2,,,74,127
65192,note_off,104,0,0,,2,,,74,127
65193,note_on,1,0,0,,0,,,72,127
65297,note_off,104,0,0,,0,,,72,127
65298,note_on,1,0,0,,10,,,81,127
65402,note_off,104,0,0,,10,,,81,127
65402,note_off,0,0,0,,0,,,60,127
65403,note_on,1,0,0,,7,,,79,127
65403,note_on,0,0,0,,2,,,62,127
65507,note_off,104,0,0,,7,,,79,127
65508,note_on,1,0,0,,12,,,71,127
65612,note_off,104,0,0,,12,,,71,127
65613,note_on,1,0,0,,10,,,69,127
65717,note_off,104,0,0,,10,,,69,127
65718,note_on,1,0,0,,7,,,79,127
65822,note_off,104,0,0,,7,,,79,127
65823,note_on,1,0,0,,6,,,78,127
65927,note_off,104,0,0,,6,,,78,127
65928,note_on,1,0,0,,4,,,76,127
66032,note_off,104,0,0,,4,,,76,127
66032,note_off,0,0,0,,2,,,62,127
66033,note_on,1,0,0,,2,,,74,127
66033,note_on,0,0,0,,2,,,50,127
66137,note_off,104,0,0,,2,,,74,127
66138,note_on,1,0,0,,0,,,72,127
66242,note_off,104,0,0,,0,,,72,127
66243,note_on,1,0,0,,12,,,71,127
66347,note_off,104,0,0,,12,,,71,127
66348,note_on,1,0,0,,10,,,69,127
66452,note_off,104,0,0,,10,,,69,127
66453,note_on,1,0,0,,7,,,67,127
66557,note_off,104,0,0,,7,,,67,127
66558,note_on,1,0,0,,6,,,66,127
66662,note_off,104,0,0,,6,,,66,127
66662,note_off,0,0,0,,2,,,50,127
66663,note_on,1,0,0,,7,,,67,127
66768,note_on,105,0,0,,7,,,55,127
66872,note_off,104,0,0,,7,,,55,127
66873,note_on,1,0,0,,10,,,57,127
66977,note_off,104,0,0,,10,,,57,127
66978,note_on,1,0,0,,12,,,59,127
67082,note_off,104,0,0,,12,,,59,127
67083,note_on,1,0,0,,0,,,60,127
67187,note_off,104,0,0,,0,,,60,127
67188,note_on,1,0,0,,2,,,62,127
67292,note_off,104,0,0,,2,,,62,127
67292,note_off,0,0,0,,7,,,67,127
67293,note_on,1,0,0,,4,,,64,127
67397,note_off,104,0,0,,4,,,64,127
67398,note_on,1,0,0,,6,,,66,127
67502,note_off,104,0,0,,6,,,66,127
67503,note_on,1,0,0,,7,,,67,127
67607,note_off,104,0,0,,7,,,67,127
67608,note_on,1,0,0,,10,,,69,127
67712,note_off,104,0,0,,10,,,69,127
67713,note_on,1,0,0,,12,,,71,127
67817,note_off,104,0,0,,12,,,71,127
67818,note_on,1,0,0,,7,,,67,127
67922,note_off,104,0,0,,7,,,67,127
67923,note_on,1,0,0,,2,,,38,127
68028,note_on,105,0,0,,2,,,86,127
68132,note_off,104,0,0,,2,,,86,127
68133,note_on,1,0,0,,2,,,74,127
68237,note_off,104,0,0,,2,,,74,127
68238,note_on,1,0,0,,4,,,76,127
68342,note_off,104,0,0,,4,,,76,127
68343,note_on,1,0,0,,6,,,78,127
68447,note_off,104,0,0,,6,,,78,127
68448,note_on,1,0,0,,7,,,79,127
68552,note_off,104,0,0,,7,,,79,127
68552,note_off,0,0,0,,2,,,38,127
68553,note_on,1,0,0,,10,,,81,127
68657,note_off,104,0,0,,10,,,81,127
68658,note_on,1,0,0,,12,,,83,127
68762,note_off,104,0,0,,12,,,83,127
68763,note_on,1,0,0,,0,,,84,127
68867,note_off,104,0,0,,0,,,84,127
68868,note_on,1,0,0,,2,,,86,127
68972,note_off,104,0,0,,2,,,86,127
68973,note_on,1,0,0,,4,,,88,127
69077,note_off,104,0,0,,4,,,88,127
69078,note_on,1,0,0,,6,,,90,127
69182,note_off,104,0,0,,6,,,90,127
69183,note_on,1,0,0,,7,,,91,127
69288,note_on,105,0,0,,7,,,55,127
69392,note_off,104,0,0,,7,,,55,127
69393,note_on,1,0,0,,10,,,57,127
69497,note_off,104,0,0,,10,,,57,127
69498,note_on,1,0,0,,12,,,59,127
69602,note_off,104,0,0,,12,,,59,127
69603,note_on,1,0,0,,0,,,60,127
69707,note_off,104,0,0,,0,,,60,127
69708,note_on,1,0,0,,2,,,62,127
69812,note_off,104,0,0,,2,,,62,127
69812,note_off,0,0,0,,7,,,91,127
69813,note_on,1,0,0,,4,,,64,127
69917,note_off,104,0,0,,4,,,64,127
69918,note_on,1,0,0,,6,,,66,127
70022,note_off,104,0,0,,6,,,66,127
70023,note_on,1,0,0,,7,,,67,127
70127,note_off,104,0,0,,7,,,67,127
70128,note_on,1,0,0,,10,,,69,127
70232,note_off,104,0,0,,10,,,69,127
70233,note_on,1,0,0,,12,,,71,127
70337,note_off,104,0,0,,12,,,71,127
70338,note_on,1,0,0,,7,,,67,127
70442,note_off,104,0,0,,7,,,67,127
70443,note_on,1,0,0,,2,,,38,127
70548,note_on,105,0,0,,2,,,74,127
70652,note_off,104,0,0,,2,,,74,127
70653,note_on,1,0,0,,2,,,62,127
70757,note_off,104,0,0,,2,,,62,127
70758,note_on,1,0,0,,4,,,64,127
70862,note_off,104,0,0,,4,,,64,127
70863,note_on,1,0,0,,6,,,66,127
70967,note_off,104,0,0,,6,,,66,127
70968,note_on,1,0,0,,7,,,67,127
71072,note_off,104,0,0,,7,,,67,127
71072,note_off,0,0,0,,2,,,38,127
71073,note_on,1,0,0,,10,,,69,127
71177,note_off,104,0,0,,10,,,69,127
71178,note_on,1,0,0,,12,,,71,127
71282,note_off,104,0,0,,12,,,71,127
71283,note_on,1,0,0,,0,,,72,127
71387,note_off,104,0,0,,0,,,72,127
71388,note_on,1,0,0,,2,,,74,127
71492,note_off,104,0,0,,2,,,74,127
71493,note_on,1,0,0,,4,,,76,127
71597,note_off,104,0,0,,4,,,76,127
71598,note_on,1,0,0,,6,,,78,127
71702,note_off,104,0,0,,6,,,78,127
71703,note_on,1,0,0,,7,,,79,127
71703,note_on,0,0,0,,7,,,43,127
71911,note_off,208,0,0,,7,,,79,127
71912,note_on,1,0,0,,12,,,83,127
72016,note_off,104,0,0,,12,,,83,127
72017,note_on,1,0,0,,2,,,74,127
72121,note_off,104,0,0,,2,,,74,127
72122,note_on,1,0,0,,0,,,72,127
72226,note_off,104,0,0,,0,,,72,127
72227,note_on,1,0,0,,10,,,81,127
72331,note_off,104,0,0,,10,,,81,127
72331,note_off,0,0,0,,7,,,43,127
72332,note_on,1,0,0,,7,,,79,127
72332,note_on,0,0,0,,12,,,47,127
72436,note_off,104,0,0,,7,,,79,127
72437,note_on,1,0,0,,12,,,71,127
72541,note_off,104,0,0,,12,,,71,127
72542,note_on,1,0,0,,10,,,69,127
72646,note_off,104,0,0,,10,,,69,127
72647,note_on,1,0,0,,6,,,78,127
72751,note_off,104,0,0,,6,,,78,127
72752,note_on,1,0,0,,4,,,76,127
72856,note_off,104,0,0,,4,,,76,127
72857,note_on,1,0,0,,7,,,67,127
72961,note_off,104,0,0,,7,,,67,127
72961,note_off,0,0,0,,12,,,47,127
72962,note_on,1,0,0,,2,,,74,127
72962,note_on,0,0,0,,0,,,48,127
73066,note_off,104,0,0,,2,,,74,127
73067,note_on,1,0,0,,6,,,66,127
73171,note_off,104,0,0,,6,,,66,127
73172,note_on,1,0,0,,4,,,64,127
73276,note_off,104,0,0,,4,,,64,127
73277,note_on,1,0,0,,0,,,72,127
73381,note_off,104,0,0,,0,,,72,127
73382,note_on,1,0,0,,12,,,71,127
73486,note_off,104,0,0,,12,,,71,127
73487,note_on,1,0,0,,2,,,62,127
73591,note_off,104,0,0,,2,,,62,127
73591,note_off,0,0,0,,0,,,48,127
73592,note_on,1,0,0,,10,,,69,127
73592,note_on,0,0,0,,2,,,50,127
73696,note_off,104,0,0,,10,,,69,127
73697,note_on,1,0,0,,0,,,60,127
73801,note_off,104,0,0,,0,,,60,127
73802,note_on,1,0,0,,12,,,59,127
73906,note_off,104,0,0,,12,,,59,127
73907,note_on,1,0,0,,7,,,67,127
74011,note_off,104,0,0,,7,,,67,127
74012,note_on,1,0,0,,10,,,57,127
74116,note_off,104,0,0,,10,,,57,127
74117,note_on,1,0,0,,6,,,66,127
74221,note_off,104,0,0,,6,,,66,127
74221,note_off,0,0,0,,2,,,50,127
74222,note_on,1,0,0,,7,,,67,127
74222,note_on,0,0,0,,7,,,43,127
74430,note_off,208,0,0,,7,,,67,127
74431,note_on,1,0,0,,12,,,83,127
74535,note_off,104,0,0,,12,,,83,127
74536,note_on,1,0,0,,2,,,74,127
74640,note_off,104,0,0,,2,,,74,127
74641,note_on,1,0,0,,0,,,72,127
74745,note_off,104,0,0,,0,,,72,127
74746,note_on,1,0,0,,10,,,81,127
74850,note_off,104,0,0,,10,,,81,127
74850,note_off,0,0,0,,7,,,43,127
74851,note_on,1,0,0,,7,,,79,127
74851,note_on,0,0,0,,12,,,47,127
74955,note_off,104,0,0,,7,,,79,127
74956,note_on,1,0,0,,12,,,71,127
75060,note_off,104,0,0,,12,,,71,127
75061,note_on,1,0,0,,10,,,69,127
75165,note_off,104,0,0,,10,,,69,127
75166,note_on,1,0,0,,6,,,78,127
75270,note_off,104,0,0,,6,,,78,127
75271,note_on,1,0,0,,4,,,76,127
75375,note_off,104,0,0,,4,,,76,127
75376,note_on,1,0,0,,7,,,67,127
75480,note_off,104,0,0,,7,,,67,127
75480,note_off,0,0,0,,12,,,47,127
75481,note_on,1,0,0,,2,,,74,127
75481,note_on,0,0,0,,0,,,48,127
75585,note_off,104,0,0,,2,,,74,127
75586,note_on,1,0,0,,6,,,66,127
75690,note_off,104,0,0,,6,,,66,127
75691,note_on,1,0,0,,4,,,64,127
75795,note_off,104,0,0,,4,,,64,127
75796,note_on,1,0,0,,0,,,72,127
75900,note_off,104,0,0,,0,,,72,127
75901,note_on,1,0,0,,12,,,71,127
76005,note_off,104,0,0,,12,,,71,127
76006,note_on,1,0,0,,2,,,62,127
76110,note_off,104,0,0,,2,,,62,127
76110,note_off,0,0,0,,0,,,48,127
76111,note_on,1,0,0,,10,,,69,127
76111,note_on,0,0,0,,2,,,38,127
76215,note_off,104,0,0,,10,,,69,127
76216,note_on,1,0,0,,0,,,60,127
76320,note_off,104,0,0,,0,,,60,127
76321,note_on,1,0,0,,12,,,59,127
76425,note_off,104,0,0,,12,,,59,127
76426,note_on,1,0,0,,7,,,67,127
76530,note_off,104,0,0,,7,,,67,127
76531,note_on,1,0,0,,10,,,57,127
76635,note_off,104,0,0,,10,,,57,127
76636,note_on,1,0,0,,6,,,66,127
76740,note_off,104,0,0,,6,,,66,127
76740,note_off,0,0,0,,2,,,38,127
76750,note_on,10,0,0,,7,,,67,127
76750,note_on,0,0,0,,7,,,43,127
78740,note_off,1990,0,0,,7,,,43,127
78740,note_off,0,0,0,,7,,,67,127
79872,end_of_track,1132,1,0,,,,,,
