tick,type,time,meta,track,program,channel,pitch,tempo,note,velocity
0,copyright,0,1,0,,,,,,
0,program_change,0,0,0,6,0,,,,
0,pitchwheel,0,0,0,,0,0,,,
0,program_change,0,0,0,6,1,,,,
0,pitchwheel,0,0,0,,1,-590,,,
0,program_change,0,0,0,6,2,,,,
0,pitchwheel,0,0,0,,2,-272,,,
0,program_change,0,0,0,6,3,,,,
0,pitchwheel,0,0,0,,3,-353,,,
0,program_change,0,0,0,6,4,,,,
0,pitchwheel,0,0,0,,4,-560,,,
0,program_change,0,0,0,6,5,,,,
0,pitchwheel,0,0,0,,5,-80,,,
0,program_change,0,0,0,6,6,,,,
0,pitchwheel,0,0,0,,6,-625,,,
0,program_change,0,0,0,6,7,,,,
0,pitchwheel,0,0,0,,7,-130,,,
0,program_change,0,0,0,6,8,,,,
0,pitchwheel,0,0,0,,8,-512,,,
0,program_change,0,0,0,6,10,,,,
0,pitchwheel,0,0,0,,10,-464,,,
0,program_change,0,0,0,6,11,,,,
0,pitchwheel,0,0,0,,11,-208,,,
0,program_change,0,0,0,6,12,,,,
0,pitchwheel,0,0,0,,12,-553,,,
0,set_tempo,0,1,0,,,,500000,,
110,note_on,110,0,0,,7,,,67,127
110,note_on,0,0,0,,7,,,79,127
329,note_on,219,0,0,,11,,,70,127
329,note_on,0,0,0,,2,,,74,127
438,note_off,109,0,0,,2,,,74,127
439,note_on,1,0,0,,2,,,74,127
548,note_off,109,0,0,,2,,,74,127
548,note_off,0,0,0,,11,,,70,127
549,note_on,1,0,0,,11,,,70,127
549,note_on,0,0,0,,2,,,74,127
767,note_off,218,0,0,,2,,,74,127
767,note_off,0,0,0,,11,,,70,127
768,note_on,1,0,0,,11,,,70,127
768,note_on,0,0,0,,2,,,74,127
986,note_off,218,0,0,,2,,,74,127
986,note_off,0,0,0,,11,,,70,127
986,note_off,0,0,0,,7,,,79,127
986,note_off,0,0,0,,7,,,67,127
987,note_on,1,0,0,,0,,,72,127
987,note_on,0,0,0,,7,,,67,127
987,note_on,0,0,0,,3,,,75,127
987,note_on,0,0,0,,7,,,79,127
1205,note_off,218,0,0,,3,,,75,127
1205,note_off,0,0,0,,0,,,72,127
1206,note_on,1,0,0,,11,,,70,127
1206,note_on,0,0,0,,2,,,74,127
1315,note_off,109,0,0,,2,,,74,127
1316,note_on,1,0,0,,2,,,74,127
1425,note_off,109,0,0,,2,,,74,127
1425,note_off,0,0,0,,11,,,70,127
1426,note_on,1,0,0,,11,,,70,127
1426,note_on,0,0,0,,2,,,74,127
1644,note_off,218,0,0,,2,,,74,127
1644,note_off,0,0,0,,11,,,70,127
1645,note_on,1,0,0,,11,,,70,127
1645,note_on,0,0,0,,2,,,74,127
1863,note_off,218,0,0,,2,,,74,127
1863,note_off,0,0,0,,11,,,70,127
1863,note_off,0,0,0,,7,,,79,127
1863,note_off,0,0,0,,7,,,67,127
1864,note_on,1,0,0,,0,,,72,127
1864,note_on,0,0,0,,7,,,67,127
1864,note_on,0,0,0,,10,,,81,127
1864,note_on,0,0,0,,3,,,75,127
1973,note_off,109,0,0,,10,,,81,127
1974,note_on,1,0,0,,7,,,79,127
2083,note_off,109,0,0,,7,,,79,127
2083,note_off,0,0,0,,7,,,67,127
2083,note_off,0,0,0,,0,,,72,127
2084,note_on,1,0,0,,7,,,67,127
2084,note_on,0,0,0,,0,,,72,127
2084,note_on,0,0,0,,6,,,78,127
2193,note_off,109,0,0,,6,,,78,127
2194,note_on,1,0,0,,7,,,79,127
2299,note_off,105,0,0,,3,,,75,127
2302,note_off,3,0,0,,7,,,79,127
2302,note_off,0,0,0,,0,,,72,127
2302,note_off,0,0,0,,7,,,67,127
2303,note_on,1,0,0,,6,,,66,127
2303,note_on,0,0,0,,10,,,69,127
2303,note_on,0,0,0,,10,,,81,127
2521,note_off,218,0,0,,10,,,81,127
2521,note_off,0,0,0,,10,,,69,127
2521,note_off,0,0,0,,6,,,66,127
2522,note_on,1,0,0,,10,,,69,127
2522,note_on,0,0,0,,2,,,62,127
2522,note_on,0,0,0,,2,,,74,127
2631,note_off,109,0,0,,2,,,74,127
2632,note_on,1,0,0,,0,,,72,127
2741,note_off,109,0,0,,0,,,72,127
2741,note_off,0,0,0,,2,,,62,127
2741,note_off,0,0,0,,10,,,69,127
2742,note_on,1,0,0,,7,,,67,127
2742,note_on,0,0,0,,0,,,72,127
2851,note_off,109,0,0,,0,,,72,127
2852,note_on,1,0,0,,11,,,70,127
2961,note_off,109,0,0,,11,,,70,127
2961,note_off,0,0,0,,7,,,67,127
2962,note_on,1,0,0,,3,,,63,127
2962,note_on,0,0,0,,10,,,69,127
3071,note_off,109,0,0,,10,,,69,127
3072,note_on,1,0,0,,11,,,70,127
3181,note_off,109,0,0,,11,,,70,127
3181,note_off,0,0,0,,3,,,63,127
3182,note_on,1,0,0,,0,,,60,127
3182,note_on,0,0,0,,0,,,72,127
3182,note_on,0,0,0,,10,,,69,127
3400,note_off,218,0,0,,10,,,69,127
3400,note_off,0,0,0,,0,,,72,127
3400,note_off,0,0,0,,0,,,60,127
3401,note_on,1,0,0,,2,,,62,127
3401,note_on,0,0,0,,7,,,67,127
3401,note_on,0,0,0,,11,,,70,127
3510,note_off,109,0,0,,11,,,70,127
3510,note_off,0,0,0,,7,,,67,127
3511,note_on,1,0,0,,6,,,66,127
3511,note_on,0,0,0,,10,,,69,127
3566,note_off,55,0,0,,2,,,62,127
3620,note_off,54,0,0,,10,,,69,127
3620,note_off,0,0,0,,6,,,66,127
3621,note_on,1,0,0,,7,,,67,127
3621,note_on,0,0,0,,7,,,79,127
3840,note_on,219,0,0,,11,,,70,127
3840,note_on,0,0,0,,2,,,74,127
3949,note_off,109,0,0,,2,,,74,127
3950,note_on,1,0,0,,2,,,74,127
4059,note_off,109,0,0,,2,,,74,127
4059,note_off,0,0,0,,11,,,70,127
4060,note_on,1,0,0,,11,,,70,127
4060,note_on,0,0,0,,2,,,74,127
4278,note_off,218,0,0,,2,,,74,127
4278,note_off,0,0,0,,11,,,70,127
4279,note_on,1,0,0,,11,,,70,127
4279,note_on,0,0,0,,2,,,74,127
4497,note_off,218,0,0,,2,,,74,127
4497,note_off,0,0,0,,11,,,70,127
4497,note_off,0,0,0,,7,,,79,127
4497,note_off,0,0,0,,7,,,67,127
4498,note_on,1,0,0,,7,,,67,127
4498,note_on,0,0,0,,0,,,72,127
4498,note_on,0,0,0,,3,,,75,127
4498,note_on,0,0,0,,7,,,79,127
4716,note_off,218,0,0,,3,,,75,127
4716,note_off,0,0,0,,0,,,72,127
4717,note_on,1,0,0,,11,,,70,127
4717,note_on,0,0,0,,2,,,74,127
4826,note_off,109,0,0,,2,,,74,127
4827,note_on,1,0,0,,2,,,74,127
4936,note_off,109,0,0,,2,,,74,127
4936,note_off,0,0,0,,11,,,70,127
4937,note_on,1,0,0,,11,,,70,127
4937,note_on,0,0,0,,2,,,74,127
5155,note_off,218,0,0,,2,,,74,127
5155,note_off,0,0,0,,11,,,70,127
5156,note_on,1,0,0,,11,,,70,127
5156,note_on,0,0,0,,2,,,74,127
5374,note_off,218,0,0,,2,,,74,127
5374,note_off,0,0,0,,11,,,70,127
5374,note_off,0,0,0,,7,,,79,127
5374,note_off,0,0,0,,7,,,67,127
5375,note_on,1,0,0,,0,,,72,127
5375,note_on,0,0,0,,7,,,67,127
5375,note_on,0,0,0,,10,,,81,127
5375,note_on,0,0,0,,3,,,75,127
5484,note_off,109,0,0,,10,,,81,127
5485,note_on,1,0,0,,7,,,79,127
5594,note_off,109,0,0,,7,,,79,127
5594,note_off,0,0,0,,0,,,72,127
5595,note_on,1,0,0,,0,,,72,127
5595,note_on,0,0,0,,6,,,78,127
5704,note_off,109,0,0,,6,,,78,127
5705,note_on,1,0,0,,7,,,79,127
5810,note_off,105,0,0,,3,,,75,127
5810,note_off,0,0,0,,7,,,67,127
5813,note_off,3,0,0,,7,,,79,127
5813,note_off,0,0,0,,0,,,72,127
5814,note_on,1,0,0,,6,,,66,127
5814,note_on,0,0,0,,10,,,69,127
5814,note_on,0,0,0,,10,,,81,127
6032,note_off,218,0,0,,10,,,81,127
6032,note_off,0,0,0,,10,,,69,127
6032,note_off,0,0,0,,6,,,66,127
6033,note_on,1,0,0,,10,,,69,127
6033,note_on,0,0,0,,2,,,62,127
6033,note_on,0,0,0,,2,,,74,127
6142,note_off,109,0,0,,2,,,74,127
6143,note_on,1,0,0,,0,,,72,127
6252,note_off,109,0,0,,0,,,72,127
6252,note_off,0,0,0,,2,,,62,127
6252,note_off,0,0,0,,10,,,69,127
6253,note_on,1,0,0,,7,,,67,127
6253,note_on,0,0,0,,0,,,72,127
6362,note_off,109,0,0,,0,,,72,127
6363,note_on,1,0,0,,11,,,70,127
6472,note_off,109,0,0,,11,,,70,127
6472,note_off,0,0,0,,7,,,67,127
6473,note_on,1,0,0,,3,,,63,127
6473,note_on,0,0,0,,10,,,69,127
6582,note_off,109,0,0,,10,,,69,127
6583,note_on,1,0,0,,11,,,70,127
6692,note_off,109,0,0,,11,,,70,127
6692,note_off,0,0,0,,3,,,63,127
6693,note_on,1,0,0,,0,,,60,127
6693,note_on,0,0,0,,10,,,69,127
6693,note_on,0,0,0,,0,,,72,127
6911,note_off,218,0,0,,0,,,72,127
6911,note_off,0,0,0,,10,,,69,127
6911,note_off,0,0,0,,0,,,60,127
6912,note_on,1,0,0,,2,,,62,127
6912,note_on,0,0,0,,11,,,70,127
6912,note_on,0,0,0,,7,,,67,127
7021,note_off,109,0,0,,7,,,67,127
7021,note_off,0,0,0,,11,,,70,127
7022,note_on,1,0,0,,10,,,69,127
7022,note_on,0,0,0,,6,,,66,127
7131,note_off,109,0,0,,6,,,66,127
7131,note_off,0,0,0,,10,,,69,127
7131,note_off,0,0,0,,2,,,62,127
7132,note_on,1,0,0,,7,,,55,127
7132,note_on,0,0,0,,7,,,67,127
7350,note_off,218,0,0,,7,,,67,127
7350,note_off,0,0,0,,7,,,55,127
7351,note_on,1,0,0,,7,,,55,127
7351,note_on,0,0,0,,7,,,67,127
7351,note_on,0,0,0,,11,,,70,127
7351,note_on,0,0,0,,0,,,72,127
7460,note_off,109,0,0,,0,,,72,127
7460,note_off,0,0,0,,11,,,70,127
7461,note_on,1,0,0,,10,,,69,127
7570,note_off,109,0,0,,10,,,69,127
7570,note_off,0,0,0,,7,,,67,127
7570,note_off,0,0,0,,7,,,55,127
7571,note_on,1,0,0,,5,,,53,127
7571,note_on,0,0,0,,5,,,65,127
7571,note_on,0,0,0,,11,,,70,127
7789,note_off,218,0,0,,11,,,70,127
7789,note_off,0,0,0,,5,,,65,127
7789,note_off,0,0,0,,5,,,53,127
7790,note_on,1,0,0,,3,,,51,127
7790,note_on,0,0,0,,3,,,63,127
7790,note_on,0,0,0,,3,,,75,127
7790,note_on,0,0,0,,2,,,74,127
7899,note_off,109,0,0,,2,,,74,127
7899,note_off,0,0,0,,3,,,75,127
7900,note_on,1,0,0,,0,,,72,127
8009,note_off,109,0,0,,0,,,72,127
8009,note_off,0,0,0,,3,,,63,127
8009,note_off,0,0,0,,3,,,51,127
8010,note_on,1,0,0,,2,,,62,127
8010,note_on,0,0,0,,2,,,50,127
8010,note_on,0,0,0,,2,,,74,127
8228,note_off,218,0,0,,2,,,74,127
8228,note_off,0,0,0,,2,,,50,127
8228,note_off,0,0,0,,2,,,62,127
8229,note_on,1,0,0,,0,,,60,127
8229,note_on,0,0,0,,0,,,48,127
8229,note_on,0,0,0,,7,,,79,127
8229,note_on,0,0,0,,5,,,77,127
8338,note_off,109,0,0,,5,,,77,127
8338,note_off,0,0,0,,7,,,79,127
8339,note_on,1,0,0,,3,,,75,127
8448,note_off,109,0,0,,3,,,75,127
8448,note_off,0,0,0,,0,,,48,127
8448,note_off,0,0,0,,0,,,60,127
8449,note_on,1,0,0,,11,,,58,127
8449,note_on,0,0,0,,11,,,46,127
8449,note_on,0,0,0,,5,,,77,127
8667,note_off,218,0,0,,5,,,77,127
8667,note_off,0,0,0,,11,,,46,127
8667,note_off,0,0,0,,11,,,58,127
8668,note_on,1,0,0,,5,,,53,127
8668,note_on,0,0,0,,5,,,41,127
8668,note_on,0,0,0,,2,,,74,127
8668,note_on,0,0,0,,11,,,82,127
8777,note_off,109,0,0,,11,,,82,127
8777,note_off,0,0,0,,2,,,74,127
8778,note_on,1,0,0,,10,,,81,127
8778,note_on,0,0,0,,0,,,72,127
8887,note_off,109,0,0,,0,,,72,127
8887,note_off,0,0,0,,10,,,81,127
8887,note_off,0,0,0,,5,,,41,127
8887,note_off,0,0,0,,5,,,53,127
8888,note_on,1,0,0,,11,,,46,127
8888,note_on,0,0,0,,2,,,74,127
8888,note_on,0,0,0,,11,,,82,127
9106,note_off,218,0,0,,11,,,82,127
9106,note_off,0,0,0,,2,,,74,127
9106,note_off,0,0,0,,11,,,46,127
9107,note_on,1,0,0,,11,,,70,127
9107,note_on,0,0,0,,2,,,74,127
9107,note_on,0,0,0,,7,,,79,127
9107,note_on,0,0,0,,5,,,77,127
9216,note_off,109,0,0,,5,,,77,127
9216,note_off,0,0,0,,7,,,79,127
9217,note_on,1,0,0,,4,,,76,127
9326,note_off,109,0,0,,4,,,76,127
9326,note_off,0,0,0,,2,,,74,127
9326,note_off,0,0,0,,11,,,70,127
9327,note_on,1,0,0,,0,,,72,127
9327,note_on,0,0,0,,10,,,69,127
9327,note_on,0,0,0,,5,,,77,127
9545,note_off,218,0,0,,5,,,77,127
9545,note_off,0,0,0,,10,,,69,127
9545,note_off,0,0,0,,0,,,72,127
9546,note_on,1,0,0,,7,,,67,127
9546,note_on,0,0,0,,11,,,70,127
9546,note_on,0,0,0,,11,,,82,127
9546,note_on,0,0,0,,10,,,81,127
9655,note_off,109,0,0,,10,,,81,127
9655,note_off,0,0,0,,11,,,82,127
9656,note_on,1,0,0,,7,,,79,127
9765,note_off,109,0,0,,7,,,79,127
9765,note_off,0,0,0,,11,,,70,127
9765,note_off,0,0,0,,7,,,67,127
9766,note_on,1,0,0,,5,,,65,127
9766,note_on,0,0,0,,10,,,69,127
9766,note_on,0,0,0,,5,,,77,127
9766,note_on,0,0,0,,10,,,81,127
9984,note_off,218,0,0,,10,,,81,127
9984,note_off,0,0,0,,10,,,69,127
9984,note_off,0,0,0,,5,,,65,127
9985,note_on,1,0,0,,11,,,58,127
9985,note_on,0,0,0,,7,,,67,127
9985,note_on,0,0,0,,11,,,82,127
10094,note_off,109,0,0,,11,,,82,127
10095,note_on,1,0,0,,7,,,79,127
10200,note_off,105,0,0,,5,,,77,127
10203,note_off,3,0,0,,7,,,79,127
10203,note_off,0,0,0,,7,,,67,127
10203,note_off,0,0,0,,11,,,58,127
10204,note_on,1,0,0,,0,,,60,127
10204,note_on,0,0,0,,5,,,65,127
10204,note_on,0,0,0,,10,,,81,127
10204,note_on,0,0,0,,5,,,77,127
10422,note_off,218,0,0,,5,,,77,127
10422,note_off,0,0,0,,10,,,81,127
10422,note_off,0,0,0,,5,,,65,127
10422,note_off,0,0,0,,0,,,60,127
10423,note_on,1,0,0,,0,,,60,127
10423,note_on,0,0,0,,7,,,67,127
10423,note_on,0,0,0,,4,,,76,127
10423,note_on,0,0,0,,10,,,81,127
10477,note_off,54,0,0,,10,,,81,127
10478,note_on,1,0,0,,7,,,79,127
10532,note_off,54,0,0,,7,,,79,127
10533,note_on,1,0,0,,5,,,77,127
10587,note_off,54,0,0,,5,,,77,127
10588,note_on,1,0,0,,7,,,79,127
10642,note_off,54,0,0,,7,,,79,127
10642,note_off,0,0,0,,4,,,76,127
10642,note_off,0,0,0,,7,,,67,127
10642,note_off,0,0,0,,0,,,60,127
10643,note_on,1,0,0,,5,,,53,127
10643,note_on,0,0,0,,5,,,77,127
10861,note_off,218,0,0,,5,,,77,127
10861,note_off,0,0,0,,5,,,53,127
10862,note_on,1,0,0,,5,,,53,127
10862,note_on,0,0,0,,5,,,65,127
10862,note_on,0,0,0,,2,,,74,127
10862,note_on,0,0,0,,0,,,72,127
10971,note_off,109,0,0,,0,,,72,127
10971,note_off,0,0,0,,2,,,74,127
10972,note_on,1,0,0,,12,,,71,127
11081,note_off,109,0,0,,12,,,71,127
11081,note_off,0,0,0,,5,,,65,127
11081,note_off,0,0,0,,5,,,53,127
11082,note_on,1,0,0,,3,,,51,127
11082,note_on,0,0,0,,3,,,63,127
11082,note_on,0,0,0,,0,,,72,127
11300,note_off,218,0,0,,0,,,72,127
11300,note_off,0,0,0,,3,,,63,127
11300,note_off,0,0,0,,3,,,51,127
11301,note_on,1,0,0,,2,,,62,127
11301,note_on,0,0,0,,2,,,50,127
11301,note_on,0,0,0,,3,,,75,127
11301,note_on,0,0,0,,5,,,77,127
11410,note_off,109,0,0,,5,,,77,127
11410,note_off,0,0,0,,3,,,75,127
11411,note_on,1,0,0,,2,,,74,127
11520,note_off,109,0,0,,2,,,74,127
11520,note_off,0,0,0,,2,,,50,127
11520,note_off,0,0,0,,2,,,62,127
11521,note_on,1,0,0,,0,,,60,127
11521,note_on,0,0,0,,0,,,48,127
11521,note_on,0,0,0,,3,,,75,127
11739,note_off,218,0,0,,3,,,75,127
11739,note_off,0,0,0,,0,,,48,127
11739,note_off,0,0,0,,0,,,60,127
11740,note_on,1,0,0,,8,,,44,127
11740,note_on,0,0,0,,8,,,56,127
11740,note_on,0,0,0,,7,,,79,127
11740,note_on,0,0,0,,8,,,80,127
11849,note_off,109,0,0,,8,,,80,127
11849,note_off,0,0,0,,7,,,79,127
11850,note_on,1,0,0,,5,,,77,127
11959,note_off,109,0,0,,5,,,77,127
11959,note_off,0,0,0,,8,,,56,127
11959,note_off,0,0,0,,8,,,44,127
11960,note_on,1,0,0,,7,,,43,127
11960,note_on,0,0,0,,7,,,55,127
11960,note_on,0,0,0,,7,,,79,127
12178,note_off,218,0,0,,7,,,79,127
12178,note_off,0,0,0,,7,,,55,127
12178,note_off,0,0,0,,7,,,43,127
12179,note_on,1,0,0,,7,,,55,127
12179,note_on,0,0,0,,7,,,43,127
12179,note_on,0,0,0,,0,,,84,127
12179,note_on,0,0,0,,3,,,75,127
12288,note_off,109,0,0,,3,,,75,127
12288,note_off,0,0,0,,0,,,84,127
12289,note_on,1,0,0,,2,,,74,127
12289,note_on,0,0,0,,12,,,83,127
12398,note_off,109,0,0,,12,,,83,127
12398,note_off,0,0,0,,2,,,74,127
12398,note_off,0,0,0,,7,,,43,127
12398,note_off,0,0,0,,7,,,55,127
12399,note_on,1,0,0,,0,,,48,127
12399,note_on,0,0,0,,3,,,75,127
12399,note_on,0,0,0,,0,,,84,127
12617,note_off,218,0,0,,0,,,84,127
12617,note_off,0,0,0,,3,,,75,127
12617,note_off,0,0,0,,0,,,48,127
12618,note_on,1,0,0,,0,,,72,127
12618,note_on,0,0,0,,3,,,75,127
12618,note_on,0,0,0,,10,,,81,127
12618,note_on,0,0,0,,7,,,79,127
12727,note_off,109,0,0,,7,,,79,127
12727,note_off,0,0,0,,10,,,81,127
12728,note_on,1,0,0,,6,,,78,127
12837,note_off,109,0,0,,6,,,78,127
12837,note_off,0,0,0,,3,,,75,127
12837,note_off,0,0,0,,0,,,72,127
12838,note_on,1,0,0,,11,,,70,127
12838,note_on,0,0,0,,2,,,74,127
12838,note_on,0,0,0,,7,,,79,127
13056,note_off,218,0,0,,7,,,79,127
13056,note_off,0,0,0,,2,,,74,127
13056,note_off,0,0,0,,11,,,70,127
13057,note_on,1,0,0,,10,,,69,127
13057,note_on,0,0,0,,0,,,72,127
13057,note_on,0,0,0,,0,,,84,127
13057,note_on,0,0,0,,11,,,82,127
13166,note_off,109,0,0,,11,,,82,127
13166,note_off,0,0,0,,0,,,84,127
13167,note_on,1,0,0,,10,,,81,127
13276,note_off,109,0,0,,10,,,81,127
13276,note_off,0,0,0,,0,,,72,127
13276,note_off,0,0,0,,10,,,69,127
13277,note_on,1,0,0,,7,,,67,127
13277,note_on,0,0,0,,11,,,70,127
13277,note_on,0,0,0,,11,,,82,127
13277,note_on,0,0,0,,7,,,79,127
13495,note_off,218,0,0,,11,,,82,127
13495,note_off,0,0,0,,11,,,70,127
13495,note_off,0,0,0,,7,,,67,127
13496,note_on,1,0,0,,0,,,60,127
13496,note_on,0,0,0,,10,,,69,127
13496,note_on,0,0,0,,0,,,84,127
13605,note_off,109,0,0,,0,,,84,127
13606,note_on,1,0,0,,10,,,81,127
13711,note_off,105,0,0,,7,,,79,127
13714,note_off,3,0,0,,10,,,81,127
13714,note_off,0,0,0,,10,,,69,127
13714,note_off,0,0,0,,0,,,60,127
13715,note_on,1,0,0,,7,,,67,127
13715,note_on,0,0,0,,2,,,62,127
13715,note_on,0,0,0,,11,,,82,127
13715,note_on,0,0,0,,7,,,79,127
13933,note_off,218,0,0,,7,,,79,127
13933,note_off,0,0,0,,11,,,82,127
13933,note_off,0,0,0,,2,,,62,127
13933,note_off,0,0,0,,7,,,67,127
13934,note_on,1,0,0,,2,,,62,127
13934,note_on,0,0,0,,10,,,69,127
13934,note_on,0,0,0,,10,,,81,127
13934,note_on,0,0,0,,6,,,78,127
14006,note_off,72,0,0,,10,,,81,127
14007,note_on,1,0,0,,7,,,79,127
14079,note_off,72,0,0,,7,,,79,127
14080,note_on,1,0,0,,10,,,81,127
14152,note_off,72,0,0,,10,,,81,127
14152,note_off,0,0,0,,6,,,78,127
14152,note_off,0,0,0,,10,,,69,127
14152,note_off,0,0,0,,2,,,62,127
14153,note_on,1,0,0,,7,,,55,127
14153,note_on,0,0,0,,7,,,79,127
14371,note_off,218,0,0,,7,,,79,127
14371,note_off,0,0,0,,7,,,55,127
14372,note_on,1,0,0,,7,,,67,127
14372,note_on,0,0,0,,11,,,70,127
14372,note_on,0,0,0,,11,,,82,127
14372,note_on,0,0,0,,1,,,73,127
14590,note_off,218,0,0,,1,,,73,127
14590,note_off,0,0,0,,11,,,82,127
14590,note_off,0,0,0,,11,,,70,127
14590,note_off,0,0,0,,7,,,67,127
14591,note_on,1,0,0,,5,,,65,127
14591,note_on,0,0,0,,10,,,69,127
14591,note_on,0,0,0,,2,,,74,127
14809,note_off,218,0,0,,2,,,74,127
14809,note_off,0,0,0,,10,,,69,127
14809,note_off,0,0,0,,5,,,65,127
14810,note_on,1,0,0,,4,,,64,127
14810,note_on,0,0,0,,7,,,67,127
14810,note_on,0,0,0,,4,,,76,127
14810,note_on,0,0,0,,10,,,81,127
14919,note_off,109,0,0,,10,,,81,127
14919,note_off,0,0,0,,4,,,76,127
14920,note_on,1,0,0,,7,,,79,127
15029,note_off,109,0,0,,7,,,79,127
15029,note_off,0,0,0,,7,,,67,127
15029,note_off,0,0,0,,4,,,64,127
15030,note_on,1,0,0,,2,,,62,127
15030,note_on,0,0,0,,10,,,69,127
15030,note_on,0,0,0,,5,,,77,127
15248,note_off,218,0,0,,5,,,77,127
15248,note_off,0,0,0,,10,,,69,127
15248,note_off,0,0,0,,2,,,62,127
15249,note_on,1,0,0,,7,,,55,127
15249,note_on,0,0,0,,7,,,67,127
15249,note_on,0,0,0,,4,,,76,127
15358,note_off,109,0,0,,4,,,76,127
15359,note_on,1,0,0,,2,,,74,127
15468,note_off,109,0,0,,2,,,74,127
15468,note_off,0,0,0,,7,,,67,127
15468,note_off,0,0,0,,7,,,55,127
15469,note_on,1,0,0,,10,,,57,127
15469,note_on,0,0,0,,7,,,67,127
15469,note_on,0,0,0,,1,,,73,127
15687,note_off,218,0,0,,1,,,73,127
15687,note_off,0,0,0,,7,,,67,127
15687,note_off,0,0,0,,10,,,57,127
15688,note_on,1,0,0,,11,,,58,127
15688,note_on,0,0,0,,7,,,67,127
15688,note_on,0,0,0,,4,,,76,127
15742,note_off,54,0,0,,4,,,76,127
15743,note_on,1,0,0,,2,,,74,127
15797,note_off,54,0,0,,2,,,74,127
15798,note_on,1,0,0,,1,,,73,127
15852,note_off,54,0,0,,1,,,73,127
15853,note_on,1,0,0,,2,,,74,127
15907,note_off,54,0,0,,2,,,74,127
15907,note_off,0,0,0,,7,,,67,127
15907,note_off,0,0,0,,11,,,58,127
15908,note_on,1,0,0,,10,,,57,127
15908,note_on,0,0,0,,4,,,76,127
16017,note_off,109,0,0,,4,,,76,127
16127,note_off,110,0,0,,10,,,57,127
16128,note_on,1,0,0,,7,,,55,127
16128,note_on,0,0,0,,7,,,67,127
16128,note_on,0,0,0,,1,,,73,127
16128,note_on,0,0,0,,4,,,76,127
16237,note_off,109,0,0,,4,,,76,127
16237,note_off,0,0,0,,1,,,73,127
16238,note_on,1,0,0,,5,,,77,127
16238,note_on,0,0,0,,2,,,74,127
16347,note_off,109,0,0,,2,,,74,127
16347,note_off,0,0,0,,5,,,77,127
16347,note_off,0,0,0,,7,,,67,127
16347,note_off,0,0,0,,7,,,55,127
16348,note_on,1,0,0,,7,,,55,127
16348,note_on,0,0,0,,7,,,67,127
16348,note_on,0,0,0,,2,,,74,127
16348,note_on,0,0,0,,5,,,77,127
16383,note_off,35,0,0,,5,,,77,127
16383,note_off,0,0,0,,2,,,74,127
16384,note_on,1,0,0,,1,,,73,127
16384,note_on,0,0,0,,4,,,76,127
16419,note_off,35,0,0,,4,,,76,127
16419,note_off,0,0,0,,1,,,73,127
16420,note_on,1,0,0,,2,,,74,127
16420,note_on,0,0,0,,5,,,77,127
16455,note_off,35,0,0,,5,,,77,127
16455,note_off,0,0,0,,2,,,74,127
16456,note_on,1,0,0,,1,,,73,127
16456,note_on,0,0,0,,4,,,76,127
16565,note_off,109,0,0,,4,,,76,127
16565,note_off,0,0,0,,1,,,73,127
16565,note_off,0,0,0,,7,,,67,127
16565,note_off,0,0,0,,7,,,55,127
16566,note_on,1,0,0,,10,,,57,127
16566,note_on,0,0,0,,10,,,69,127
16566,note_on,0,0,0,,4,,,76,127
16566,note_on,0,0,0,,1,,,73,127
16675,note_off,109,0,0,,1,,,73,127
16675,note_off,0,0,0,,4,,,76,127
16676,note_on,1,0,0,,5,,,77,127
16676,note_on,0,0,0,,2,,,74,127
16785,note_off,109,0,0,,2,,,74,127
16785,note_off,0,0,0,,5,,,77,127
16785,note_off,0,0,0,,10,,,69,127
16785,note_off,0,0,0,,10,,,57,127
16786,note_on,1,0,0,,11,,,58,127
16786,note_on,0,0,0,,11,,,70,127
16786,note_on,0,0,0,,2,,,74,127
16786,note_on,0,0,0,,5,,,77,127
16821,note_off,35,0,0,,5,,,77,127
16821,note_off,0,0,0,,2,,,74,127
16822,note_on,1,0,0,,1,,,73,127
16822,note_on,0,0,0,,4,,,76,127
16857,note_off,35,0,0,,4,,,76,127
16857,note_off,0,0,0,,1,,,73,127
16858,note_on,1,0,0,,2,,,74,127
16858,note_on,0,0,0,,5,,,77,127
16893,note_off,35,0,0,,5,,,77,127
16893,note_off,0,0,0,,2,,,74,127
16894,note_on,1,0,0,,1,,,73,127
16894,note_on,0,0,0,,4,,,76,127
17003,note_off,109,0,0,,4,,,76,127
17003,note_off,0,0,0,,1,,,73,127
17003,note_off,0,0,0,,11,,,70,127
17003,note_off,0,0,0,,11,,,58,127
17004,note_on,1,0,0,,7,,,67,127
17004,note_on,0,0,0,,7,,,55,127
17004,note_on,0,0,0,,1,,,73,127
17004,note_on,0,0,0,,4,,,76,127
17113,note_off,109,0,0,,4,,,76,127
17113,note_off,0,0,0,,1,,,73,127
17114,note_on,1,0,0,,2,,,74,127
17114,note_on,0,0,0,,5,,,77,127
17223,note_off,109,0,0,,5,,,77,127
17223,note_off,0,0,0,,2,,,74,127
17223,note_off,0,0,0,,7,,,55,127
17223,note_off,0,0,0,,7,,,67,127
17224,note_on,1,0,0,,7,,,55,127
17224,note_on,0,0,0,,7,,,67,127
17224,note_on,0,0,0,,2,,,74,127
17224,note_on,0,0,0,,5,,,77,127
17259,note_off,35,0,0,,5,,,77,127
17259,note_off,0,0,0,,2,,,74,127
17260,note_on,1,0,0,,1,,,73,127
17260,note_on,0,0,0,,4,,,76,127
17295,note_off,35,0,0,,4,,,76,127
17295,note_off,0,0,0,,1,,,73,127
17296,note_on,1,0,0,,2,,,74,127
17296,note_on,0,0,0,,5,,,77,127
17331,note_off,35,0,0,,5,,,77,127
17331,note_off,0,0,0,,2,,,74,127
17332,note_on,1,0,0,,1,,,73,127
17332,note_on,0,0,0,,4,,,76,127
17441,note_off,109,0,0,,4,,,76,127
17441,note_off,0,0,0,,1,,,73,127
17441,note_off,0,0,0,,7,,,67,127
17441,note_off,0,0,0,,7,,,55,127
17442,note_on,1,0,0,,10,,,57,127
17442,note_on,0,0,0,,10,,,69,127
17442,note_on,0,0,0,,1,,,73,127
17442,note_on,0,0,0,,4,,,76,127
17551,note_off,109,0,0,,4,,,76,127
17551,note_off,0,0,0,,1,,,73,127
17552,note_on,1,0,0,,5,,,77,127
17552,note_on,0,0,0,,2,,,74,127
17661,note_off,109,0,0,,2,,,74,127
17661,note_off,0,0,0,,5,,,77,127
17661,note_off,0,0,0,,10,,,69,127
17661,note_off,0,0,0,,10,,,57,127
17662,note_on,1,0,0,,11,,,58,127
17662,note_on,0,0,0,,11,,,70,127
17662,note_on,0,0,0,,2,,,74,127
17662,note_on,0,0,0,,5,,,77,127
17697,note_off,35,0,0,,5,,,77,127
17697,note_off,0,0,0,,2,,,74,127
17698,note_on,1,0,0,,1,,,73,127
17698,note_on,0,0,0,,4,,,76,127
17733,note_off,35,0,0,,4,,,76,127
17733,note_off,0,0,0,,1,,,73,127
17734,note_on,1,0,0,,2,,,74,127
17734,note_on,0,0,0,,5,,,77,127
17769,note_off,35,0,0,,5,,,77,127
17769,note_off,0,0,0,,2,,,74,127
17770,note_on,1,0,0,,1,,,73,127
17770,note_on,0,0,0,,4,,,76,127
17879,note_off,109,0,0,,4,,,76,127
17879,note_off,0,0,0,,1,,,73,127
17879,note_off,0,0,0,,11,,,70,127
17879,note_off,0,0,0,,11,,,58,127
17880,note_on,1,0,0,,1,,,49,127
17880,note_on,0,0,0,,1,,,61,127
17880,note_on,0,0,0,,7,,,79,127
17880,note_on,0,0,0,,4,,,76,127
17989,note_off,109,0,0,,4,,,76,127
17989,note_off,0,0,0,,7,,,79,127
17990,note_on,1,0,0,,5,,,77,127
17990,note_on,0,0,0,,10,,,81,127
18099,note_off,109,0,0,,10,,,81,127
18099,note_off,0,0,0,,5,,,77,127
18099,note_off,0,0,0,,1,,,61,127
18099,note_off,0,0,0,,1,,,49,127
18100,note_on,1,0,0,,1,,,49,127
18100,note_on,0,0,0,,1,,,61,127
18100,note_on,0,0,0,,5,,,77,127
18100,note_on,0,0,0,,10,,,81,127
18135,note_off,35,0,0,,10,,,81,127
18135,note_off,0,0,0,,5,,,77,127
18136,note_on,1,0,0,,4,,,76,127
18136,note_on,0,0,0,,7,,,79,127
18171,note_off,35,0,0,,7,,,79,127
18171,note_off,0,0,0,,4,,,76,127
18172,note_on,1,0,0,,5,,,77,127
18172,note_on,0,0,0,,10,,,81,127
18207,note_off,35,0,0,,10,,,81,127
18207,note_off,0,0,0,,5,,,77,127
18208,note_on,1,0,0,,4,,,76,127
18208,note_on,0,0,0,,7,,,79,127
18317,note_off,109,0,0,,7,,,79,127
18317,note_off,0,0,0,,4,,,76,127
18317,note_off,0,0,0,,1,,,61,127
18317,note_off,0,0,0,,1,,,49,127
18318,note_on,1,0,0,,2,,,50,127
18318,note_on,0,0,0,,2,,,62,127
18318,note_on,0,0,0,,4,,,76,127
18318,note_on,0,0,0,,7,,,79,127
18427,note_off,109,0,0,,7,,,79,127
18427,note_off,0,0,0,,4,,,76,127
18428,note_on,1,0,0,,5,,,77,127
18428,note_on,0,0,0,,10,,,81,127
18537,note_off,109,0,0,,10,,,81,127
18537,note_off,0,0,0,,5,,,77,127
18537,note_off,0,0,0,,2,,,62,127
18537,note_off,0,0,0,,2,,,50,127
18538,note_on,1,0,0,,4,,,52,127
18538,note_on,0,0,0,,4,,,64,127
18538,note_on,0,0,0,,5,,,77,127
18538,note_on,0,0,0,,10,,,81,127
18573,note_off,35,0,0,,10,,,81,127
18573,note_off,0,0,0,,5,,,77,127
18574,note_on,1,0,0,,4,,,76,127
18574,note_on,0,0,0,,7,,,79,127
18609,note_off,35,0,0,,7,,,79,127
18609,note_off,0,0,0,,4,,,76,127
18610,note_on,1,0,0,,5,,,77,127
18610,note_on,0,0,0,,10,,,81,127
18645,note_off,35,0,0,,10,,,81,127
18645,note_off,0,0,0,,5,,,77,127
18646,note_on,1,0,0,,4,,,76,127
18646,note_on,0,0,0,,7,,,79,127
18755,note_off,109,0,0,,7,,,79,127
18755,note_off,0,0,0,,4,,,76,127
18755,note_off,0,0,0,,4,,,64,127
18755,note_off,0,0,0,,4,,,52,127
18756,note_on,1,0,0,,1,,,49,127
18756,note_on,0,0,0,,1,,,61,127
18756,note_on,0,0,0,,4,,,76,127
18756,note_on,0,0,0,,7,,,79,127
18865,note_off,109,0,0,,7,,,79,127
18865,note_off,0,0,0,,4,,,76,127
18866,note_on,1,0,0,,10,,,81,127
18866,note_on,0,0,0,,5,,,77,127
18975,note_off,109,0,0,,5,,,77,127
18975,note_off,0,0,0,,10,,,81,127
18975,note_off,0,0,0,,1,,,61,127
18975,note_off,0,0,0,,1,,,49,127
18976,note_on,1,0,0,,1,,,49,127
18976,note_on,0,0,0,,1,,,61,127
18976,note_on,0,0,0,,5,,,77,127
18976,note_on,0,0,0,,10,,,81,127
19011,note_off,35,0,0,,10,,,81,127
19011,note_off,0,0,0,,5,,,77,127
19012,note_on,1,0,0,,4,,,76,127
19012,note_on,0,0,0,,7,,,79,127
19047,note_off,35,0,0,,7,,,79,127
19047,note_off,0,0,0,,4,,,76,127
19048,note_on,1,0,0,,5,,,77,127
19048,note_on,0,0,0,,10,,,81,127
19083,note_off,35,0,0,,10,,,81,127
19083,note_off,0,0,0,,5,,,77,127
19084,note_on,1,0,0,,4,,,76,127
19084,note_on,0,0,0,,7,,,79,127
19193,note_off,109,0,0,,7,,,79,127
19193,note_off,0,0,0,,4,,,76,127
19193,note_off,0,0,0,,1,,,61,127
19193,note_off,0,0,0,,1,,,49,127
19194,note_on,1,0,0,,2,,,62,127
19194,note_on,0,0,0,,2,,,50,127
19194,note_on,0,0,0,,7,,,79,127
19194,note_on,0,0,0,,4,,,76,127
19303,note_off,109,0,0,,4,,,76,127
19303,note_off,0,0,0,,7,,,79,127
19304,note_on,1,0,0,,10,,,81,127
19304,note_on,0,0,0,,5,,,77,127
19413,note_off,109,0,0,,5,,,77,127
19413,note_off,0,0,0,,10,,,81,127
19413,note_off,0,0,0,,2,,,50,127
19413,note_off,0,0,0,,2,,,62,127
19414,note_on,1,0,0,,4,,,64,127
19414,note_on,0,0,0,,4,,,52,127
19414,note_on,0,0,0,,10,,,81,127
19449,note_off,35,0,0,,10,,,81,127
19450,note_on,1,0,0,,7,,,79,127
19485,note_off,35,0,0,,7,,,79,127
19486,note_on,1,0,0,,10,,,81,127
19521,note_off,35,0,0,,10,,,81,127
19522,note_on,1,0,0,,7,,,79,127
19631,note_off,109,0,0,,7,,,79,127
19631,note_off,0,0,0,,4,,,52,127
19631,note_off,0,0,0,,4,,,64,127
19632,note_on,1,0,0,,5,,,65,127
19632,note_on,0,0,0,,5,,,53,127
19632,note_on,0,0,0,,10,,,81,127
19632,note_on,0,0,0,,5,,,77,127
19741,note_off,109,0,0,,5,,,77,127
19742,note_on,1,0,0,,4,,,76,127
19849,note_off,107,0,0,,10,,,81,127
19850,note_off,1,0,0,,4,,,76,127
19850,note_off,0,0,0,,5,,,53,127
19850,note_off,0,0,0,,5,,,65,127
19851,note_on,1,0,0,,7,,,55,127
19851,note_on,0,0,0,,7,,,67,127
19851,note_on,0,0,0,,11,,,82,127
19851,note_on,0,0,0,,2,,,74,127
20069,note_off,218,0,0,,2,,,74,127
20069,note_off,0,0,0,,11,,,82,127
20069,note_off,0,0,0,,7,,,67,127
20069,note_off,0,0,0,,7,,,55,127
20070,note_on,1,0,0,,10,,,69,127
20070,note_on,0,0,0,,10,,,57,127
20070,note_on,0,0,0,,10,,,81,127
20070,note_on,0,0,0,,1,,,73,127
20179,note_off,109,0,0,,10,,,81,127
20180,note_on,1,0,0,,7,,,79,127
20287,note_off,107,0,0,,1,,,73,127
20288,note_off,1,0,0,,7,,,79,127
20288,note_off,0,0,0,,10,,,57,127
20288,note_off,0,0,0,,10,,,69,127
20289,note_on,1,0,0,,11,,,70,127
20289,note_on,0,0,0,,11,,,58,127
20289,note_on,0,0,0,,2,,,74,127
20289,note_on,0,0,0,,5,,,77,127
20507,note_off,218,0,0,,5,,,77,127
20507,note_off,0,0,0,,2,,,74,127
20507,note_off,0,0,0,,11,,,58,127
20507,note_off,0,0,0,,11,,,70,127
20508,note_on,1,0,0,,7,,,67,127
20508,note_on,0,0,0,,7,,,55,127
20508,note_on,0,0,0,,2,,,74,127
20508,note_on,0,0,0,,4,,,76,127
20617,note_off,109,0,0,,4,,,76,127
20618,note_on,1,0,0,,5,,,77,127
20727,note_off,109,0,0,,5,,,77,127
20727,note_off,0,0,0,,7,,,55,127
20727,note_off,0,0,0,,7,,,67,127
20728,note_on,1,0,0,,10,,,57,127
20728,note_on,0,0,0,,10,,,69,127
20728,note_on,0,0,0,,7,,,79,127
20943,note_off,215,0,0,,2,,,74,127
20946,note_off,3,0,0,,7,,,79,127
20946,note_off,0,0,0,,10,,,69,127
20946,note_off,0,0,0,,10,,,57,127
20947,note_on,1,0,0,,10,,,69,127
20947,note_on,0,0,0,,10,,,57,127
20947,note_on,0,0,0,,5,,,77,127
20947,note_on,0,0,0,,1,,,73,127
21056,note_off,109,0,0,,5,,,77,127
21057,note_on,1,0,0,,4,,,76,127
21164,note_off,107,0,0,,1,,,73,127
21165,note_off,1,0,0,,4,,,76,127
21165,note_off,0,0,0,,10,,,57,127
21165,note_off,0,0,0,,10,,,69,127
21166,note_on,1,0,0,,2,,,50,127
21166,note_on,0,0,0,,2,,,74,127
21384,note_off,218,0,0,,2,,,74,127
21384,note_off,0,0,0,,2,,,50,127
21385,note_on,1,0,0,,7,,,55,127
21385,note_on,0,0,0,,7,,,67,127
21385,note_on,0,0,0,,1,,,73,127
21385,note_on,0,0,0,,4,,,76,127
21494,note_off,109,0,0,,4,,,76,127
21494,note_off,0,0,0,,1,,,73,127
21495,note_on,1,0,0,,2,,,74,127
21495,note_on,0,0,0,,5,,,77,127
21604,note_off,109,0,0,,5,,,77,127
21604,note_off,0,0,0,,2,,,74,127
21604,note_off,0,0,0,,7,,,67,127
21604,note_off,0,0,0,,7,,,55,127
21605,note_on,1,0,0,,7,,,55,127
21605,note_on,0,0,0,,7,,,67,127
21605,note_on,0,0,0,,2,,,74,127
21605,note_on,0,0,0,,5,,,77,127
21640,note_off,35,0,0,,5,,,77,127
21640,note_off,0,0,0,,2,,,74,127
21641,note_on,1,0,0,,1,,,73,127
21641,note_on,0,0,0,,4,,,76,127
21676,note_off,35,0,0,,4,,,76,127
21676,note_off,0,0,0,,1,,,73,127
21677,note_on,1,0,0,,2,,,74,127
21677,note_on,0,0,0,,5,,,77,127
21712,note_off,35,0,0,,5,,,77,127
21712,note_off,0,0,0,,2,,,74,127
21713,note_on,1,0,0,,1,,,73,127
21713,note_on,0,0,0,,4,,,76,127
21822,note_off,109,0,0,,4,,,76,127
21822,note_off,0,0,0,,1,,,73,127
21822,note_off,0,0,0,,7,,,67,127
21822,note_off,0,0,0,,7,,,55,127
21823,note_on,1,0,0,,10,,,69,127
21823,note_on,0,0,0,,10,,,57,127
21823,note_on,0,0,0,,4,,,76,127
21823,note_on,0,0,0,,1,,,73,127
21932,note_off,109,0,0,,1,,,73,127
21932,note_off,0,0,0,,4,,,76,127
21933,note_on,1,0,0,,2,,,74,127
21933,note_on,0,0,0,,5,,,77,127
22042,note_off,109,0,0,,5,,,77,127
22042,note_off,0,0,0,,2,,,74,127
22042,note_off,0,0,0,,10,,,57,127
22042,note_off,0,0,0,,10,,,69,127
22043,note_on,1,0,0,,11,,,58,127
22043,note_on,0,0,0,,11,,,70,127
22043,note_on,0,0,0,,2,,,74,127
22043,note_on,0,0,0,,5,,,77,127
22078,note_off,35,0,0,,5,,,77,127
22078,note_off,0,0,0,,2,,,74,127
22079,note_on,1,0,0,,1,,,73,127
22079,note_on,0,0,0,,4,,,76,127
22114,note_off,35,0,0,,4,,,76,127
22114,note_off,0,0,0,,1,,,73,127
22115,note_on,1,0,0,,2,,,74,127
22115,note_on,0,0,0,,5,,,77,127
22150,note_off,35,0,0,,5,,,77,127
22150,note_off,0,0,0,,2,,,74,127
22151,note_on,1,0,0,,1,,,73,127
22151,note_on,0,0,0,,4,,,76,127
22260,note_off,109,0,0,,4,,,76,127
22260,note_off,0,0,0,,1,,,73,127
22260,note_off,0,0,0,,11,,,70,127
22260,note_off,0,0,0,,11,,,58,127
22261,note_on,1,0,0,,7,,,55,127
22261,note_on,0,0,0,,7,,,67,127
22261,note_on,0,0,0,,1,,,73,127
22261,note_on,0,0,0,,4,,,76,127
22370,note_off,109,0,0,,4,,,76,127
22370,note_off,0,0,0,,1,,,73,127
22371,note_on,1,0,0,,2,,,74,127
22371,note_on,0,0,0,,5,,,77,127
22480,note_off,109,0,0,,5,,,77,127
22480,note_off,0,0,0,,2,,,74,127
22480,note_off,0,0,0,,7,,,67,127
22480,note_off,0,0,0,,7,,,55,127
22481,note_on,1,0,0,,7,,,67,127
22481,note_on,0,0,0,,7,,,55,127
22481,note_on,0,0,0,,2,,,74,127
22481,note_on,0,0,0,,5,,,77,127
22516,note_off,35,0,0,,5,,,77,127
22516,note_off,0,0,0,,2,,,74,127
22517,note_on,1,0,0,,1,,,73,127
22517,note_on,0,0,0,,4,,,76,127
22552,note_off,35,0,0,,4,,,76,127
22552,note_off,0,0,0,,1,,,73,127
22553,note_on,1,0,0,,2,,,74,127
22553,note_on,0,0,0,,5,,,77,127
22588,note_off,35,0,0,,5,,,77,127
22588,note_off,0,0,0,,2,,,74,127
22589,note_on,1,0,0,,1,,,73,127
22589,note_on,0,0,0,,4,,,76,127
22698,note_off,109,0,0,,4,,,76,127
22698,note_off,0,0,0,,1,,,73,127
22698,note_off,0,0,0,,7,,,55,127
22698,note_off,0,0,0,,7,,,67,127
22699,note_on,1,0,0,,10,,,57,127
22699,note_on,0,0,0,,10,,,69,127
22699,note_on,0,0,0,,4,,,76,127
22699,note_on,0,0,0,,1,,,73,127
22808,note_off,109,0,0,,1,,,73,127
22808,note_off,0,0,0,,4,,,76,127
22809,note_on,1,0,0,,2,,,74,127
22809,note_on,0,0,0,,5,,,77,127
22918,note_off,109,0,0,,5,,,77,127
22918,note_off,0,0,0,,2,,,74,127
22918,note_off,0,0,0,,10,,,69,127
22918,note_off,0,0,0,,10,,,57,127
22919,note_on,1,0,0,,11,,,58,127
22919,note_on,0,0,0,,11,,,70,127
22919,note_on,0,0,0,,2,,,74,127
22919,note_on,0,0,0,,5,,,77,127
22954,note_off,35,0,0,,5,,,77,127
22954,note_off,0,0,0,,2,,,74,127
22955,note_on,1,0,0,,1,,,73,127
22955,note_on,0,0,0,,4,,,76,127
22990,note_off,35,0,0,,4,,,76,127
22990,note_off,0,0,0,,1,,,73,127
22991,note_on,1,0,0,,2,,,74,127
22991,note_on,0,0,0,,5,,,77,127
23026,note_off,35,0,0,,5,,,77,127
23026,note_off,0,0,0,,2,,,74,127
23027,note_on,1,0,0,,1,,,73,127
23027,note_on,0,0,0,,4,,,76,127
23136,note_off,109,0,0,,4,,,76,127
23136,note_off,0,0,0,,1,,,73,127
23136,note_off,0,0,0,,11,,,70,127
23136,note_off,0,0,0,,11,,,58,127
23137,note_on,1,0,0,,1,,,49,127
23137,note_on,0,0,0,,1,,,61,127
23137,note_on,0,0,0,,4,,,76,127
23137,note_on,0,0,0,,7,,,79,127
23246,note_off,109,0,0,,7,,,79,127
23246,note_off,0,0,0,,4,,,76,127
23247,note_on,1,0,0,,10,,,81,127
23247,note_on,0,0,0,,5,,,77,127
23356,note_off,109,0,0,,5,,,77,127
23356,note_off,0,0,0,,10,,,81,127
23356,note_off,0,0,0,,1,,,61,127
23356,note_off,0,0,0,,1,,,49,127
23357,note_on,1,0,0,,1,,,49,127
23357,note_on,0,0,0,,1,,,61,127
23357,note_on,0,0,0,,5,,,77,127
23357,note_on,0,0,0,,10,,,81,127
23392,note_off,35,0,0,,10,,,81,127
23392,note_off,0,0,0,,5,,,77,127
23393,note_on,1,0,0,,4,,,76,127
23393,note_on,0,0,0,,7,,,79,127
23428,note_off,35,0,0,,7,,,79,127
23428,note_off,0,0,0,,4,,,76,127
23429,note_on,1,0,0,,5,,,77,127
23429,note_on,0,0,0,,10,,,81,127
23464,note_off,35,0,0,,10,,,81,127
23464,note_off,0,0,0,,5,,,77,127
23465,note_on,1,0,0,,4,,,76,127
23465,note_on,0,0,0,,7,,,79,127
23574,note_off,109,0,0,,7,,,79,127
23574,note_off,0,0,0,,4,,,76,127
23574,note_off,0,0,0,,1,,,61,127
23574,note_off,0,0,0,,1,,,49,127
23575,note_on,1,0,0,,2,,,50,127
23575,note_on,0,0,0,,2,,,62,127
23575,note_on,0,0,0,,4,,,76,127
23575,note_on,0,0,0,,7,,,79,127
23684,note_off,109,0,0,,7,,,79,127
23684,note_off,0,0,0,,4,,,76,127
23685,note_on,1,0,0,,5,,,77,127
23685,note_on,0,0,0,,10,,,81,127
23794,note_off,109,0,0,,10,,,81,127
23794,note_off,0,0,0,,5,,,77,127
23794,note_off,0,0,0,,2,,,62,127
23794,note_off,0,0,0,,2,,,50,127
23795,note_on,1,0,0,,4,,,52,127
23795,note_on,0,0,0,,4,,,64,127
23795,note_on,0,0,0,,5,,,77,127
23795,note_on,0,0,0,,10,,,81,127
23830,note_off,35,0,0,,10,,,81,127
23830,note_off,0,0,0,,5,,,77,127
23831,note_on,1,0,0,,4,,,76,127
23831,note_on,0,0,0,,7,,,79,127
23866,note_off,35,0,0,,7,,,79,127
23866,note_off,0,0,0,,4,,,76,127
23867,note_on,1,0,0,,5,,,77,127
23867,note_on,0,0,0,,10,,,81,127
23902,note_off,35,0,0,,10,,,81,127
23902,note_off,0,0,0,,5,,,77,127
23903,note_on,1,0,0,,4,,,76,127
23903,note_on,0,0,0,,7,,,79,127
24012,note_off,109,0,0,,7,,,79,127
24012,note_off,0,0,0,,4,,,76,127
24012,note_off,0,0,0,,4,,,64,127
24012,note_off,0,0,0,,4,,,52,127
24013,note_on,1,0,0,,1,,,49,127
24013,note_on,0,0,0,,1,,,61,127
24013,note_on,0,0,0,,7,,,79,127
24013,note_on,0,0,0,,4,,,76,127
24122,note_off,109,0,0,,4,,,76,127
24122,note_off,0,0,0,,7,,,79,127
24123,note_on,1,0,0,,5,,,77,127
24123,note_on,0,0,0,,10,,,81,127
24232,note_off,109,0,0,,10,,,81,127
24232,note_off,0,0,0,,5,,,77,127
24232,note_off,0,0,0,,1,,,61,127
24232,note_off,0,0,0,,1,,,49,127
24233,note_on,1,0,0,,1,,,49,127
24233,note_on,0,0,0,,1,,,61,127
24233,note_on,0,0,0,,5,,,77,127
24233,note_on,0,0,0,,10,,,81,127
24268,note_off,35,0,0,,10,,,81,127
24268,note_off,0,0,0,,5,,,77,127
24269,note_on,1,0,0,,4,,,76,127
24269,note_on,0,0,0,,7,,,79,127
24304,note_off,35,0,0,,7,,,79,127
24304,note_off,0,0,0,,4,,,76,127
24305,note_on,1,0,0,,5,,,77,127
24305,note_on,0,0,0,,10,,,81,127
24340,note_off,35,0,0,,10,,,81,127
24340,note_off,0,0,0,,5,,,77,127
24341,note_on,1,0,0,,4,,,76,127
24341,note_on,0,0,0,,7,,,79,127
24450,note_off,109,0,0,,7,,,79,127
24450,note_off,0,0,0,,4,,,76,127
24450,note_off,0,0,0,,1,,,61,127
24450,note_off,0,0,0,,1,,,49,127
24451,note_on,1,0,0,,2,,,50,127
24451,note_on,0,0,0,,2,,,62,127
24451,note_on,0,0,0,,4,,,76,127
24451,note_on,0,0,0,,7,,,79,127
24560,note_off,109,0,0,,7,,,79,127
24560,note_off,0,0,0,,4,,,76,127
24561,note_on,1,0,0,,10,,,81,127
24561,note_on,0,0,0,,5,,,77,127
24670,note_off,109,0,0,,5,,,77,127
24670,note_off,0,0,0,,10,,,81,127
24670,note_off,0,0,0,,2,,,62,127
24670,note_off,0,0,0,,2,,,50,127
24671,note_on,1,0,0,,4,,,64,127
24671,note_on,0,0,0,,4,,,52,127
24671,note_on,0,0,0,,5,,,77,127
24671,note_on,0,0,0,,10,,,81,127
24706,note_off,35,0,0,,10,,,81,127
24706,note_off,0,0,0,,5,,,77,127
24707,note_on,1,0,0,,4,,,76,127
24707,note_on,0,0,0,,7,,,79,127
24742,note_off,35,0,0,,7,,,79,127
24742,note_off,0,0,0,,4,,,76,127
24743,note_on,1,0,0,,5,,,77,127
24743,note_on,0,0,0,,10,,,81,127
24778,note_off,35,0,0,,10,,,81,127
24778,note_off,0,0,0,,5,,,77,127
24779,note_on,1,0,0,,4,,,76,127
24779,note_on,0,0,0,,7,,,79,127
24888,note_off,109,0,0,,7,,,79,127
24888,note_off,0,0,0,,4,,,76,127
24888,note_off,0,0,0,,4,,,52,127
24888,note_off,0,0,0,,4,,,64,127
24889,note_on,1,0,0,,5,,,53,127
24889,note_on,0,0,0,,5,,,65,127
24889,note_on,0,0,0,,5,,,77,127
24889,note_on,0,0,0,,10,,,81,127
24998,note_off,109,0,0,,5,,,77,127
24999,note_on,1,0,0,,4,,,76,127
25106,note_off,107,0,0,,10,,,81,127
25107,note_off,1,0,0,,4,,,76,127
25107,note_off,0,0,0,,5,,,65,127
25107,note_off,0,0,0,,5,,,53,127
25108,note_on,1,0,0,,7,,,67,127
25108,note_on,0,0,0,,7,,,55,127
25108,note_on,0,0,0,,2,,,74,127
25108,note_on,0,0,0,,11,,,82,127
25326,note_off,218,0,0,,11,,,82,127
25326,note_off,0,0,0,,2,,,74,127
25326,note_off,0,0,0,,7,,,55,127
25326,note_off,0,0,0,,7,,,67,127
25327,note_on,1,0,0,,10,,,69,127
25327,note_on,0,0,0,,10,,,57,127
25327,note_on,0,0,0,,10,,,81,127
25327,note_on,0,0,0,,1,,,73,127
25436,note_off,109,0,0,,10,,,81,127
25437,note_on,1,0,0,,7,,,79,127
25544,note_off,107,0,0,,1,,,73,127
25545,note_off,1,0,0,,7,,,79,127
25545,note_off,0,0,0,,10,,,57,127
25545,note_off,0,0,0,,10,,,69,127
25546,note_on,1,0,0,,11,,,58,127
25546,note_on,0,0,0,,11,,,70,127
25546,note_on,0,0,0,,2,,,74,127
25546,note_on,0,0,0,,7,,,79,127
25655,note_off,109,0,0,,7,,,79,127
25656,note_on,1,0,0,,5,,,77,127
25765,note_off,109,0,0,,5,,,77,127
25765,note_off,0,0,0,,2,,,74,127
25765,note_off,0,0,0,,11,,,70,127
25765,note_off,0,0,0,,11,,,58,127
25766,note_on,1,0,0,,7,,,55,127
25766,note_on,0,0,0,,7,,,67,127
25766,note_on,0,0,0,,2,,,74,127
25766,note_on,0,0,0,,4,,,76,127
25875,note_off,109,0,0,,4,,,76,127
25876,note_on,1,0,0,,5,,,77,127
25985,note_off,109,0,0,,5,,,77,127
25985,note_off,0,0,0,,7,,,67,127
25985,note_off,0,0,0,,7,,,55,127
25986,note_on,1,0,0,,10,,,57,127
25986,note_on,0,0,0,,10,,,69,127
25986,note_on,0,0,0,,7,,,79,127
26201,note_off,215,0,0,,2,,,74,127
26204,note_off,3,0,0,,7,,,79,127
26204,note_off,0,0,0,,10,,,69,127
26204,note_off,0,0,0,,10,,,57,127
26205,note_on,1,0,0,,10,,,69,127
26205,note_on,0,0,0,,10,,,57,127
26205,note_on,0,0,0,,5,,,77,127
26205,note_on,0,0,0,,1,,,73,127
26314,note_off,109,0,0,,5,,,77,127
26315,note_on,1,0,0,,4,,,76,127
26422,note_off,107,0,0,,1,,,73,127
26423,note_off,1,0,0,,4,,,76,127
26423,note_off,0,0,0,,10,,,57,127
26423,note_off,0,0,0,,10,,,69,127
26424,note_on,1,0,0,,2,,,50,127
26424,note_on,0,0,0,,2,,,62,127
26424,note_on,0,0,0,,2,,,74,127
26642,note_off,218,0,0,,2,,,74,127
26642,note_off,0,0,0,,2,,,62,127
26642,note_off,0,0,0,,2,,,50,127
26643,note_on,1,0,0,,5,,,53,127
26643,note_on,0,0,0,,2,,,62,127
26643,note_on,0,0,0,,2,,,86,127
26752,note_off,109,0,0,,2,,,86,127
26753,note_on,1,0,0,,5,,,77,127
26862,note_off,109,0,0,,5,,,77,127
26862,note_off,0,0,0,,2,,,62,127
26862,note_off,0,0,0,,5,,,53,127
26863,note_on,1,0,0,,7,,,55,127
26863,note_on,0,0,0,,4,,,64,127
26863,note_on,0,0,0,,2,,,62,127
26863,note_on,0,0,0,,4,,,76,127
27081,note_off,218,0,0,,4,,,76,127
27081,note_off,0,0,0,,2,,,62,127
27081,note_off,0,0,0,,4,,,64,127
27081,note_off,0,0,0,,7,,,55,127
27082,note_on,1,0,0,,10,,,57,127
27082,note_on,0,0,0,,2,,,62,127
27082,note_on,0,0,0,,4,,,64,127
27082,note_on,0,0,0,,4,,,76,127
27300,note_off,218,0,0,,4,,,76,127
27300,note_off,0,0,0,,4,,,64,127
27300,note_off,0,0,0,,2,,,62,127
27300,note_off,0,0,0,,10,,,57,127
27301,note_on,1,0,0,,11,,,58,127
27301,note_on,0,0,0,,2,,,62,127
27301,note_on,0,0,0,,4,,,64,127
27301,note_on,0,0,0,,4,,,76,127
27519,note_off,218,0,0,,4,,,76,127
27519,note_off,0,0,0,,4,,,64,127
27519,note_off,0,0,0,,2,,,62,127
27519,note_off,0,0,0,,11,,,58,127
27520,note_on,1,0,0,,5,,,53,127
27520,note_on,0,0,0,,4,,,64,127
27520,note_on,0,0,0,,2,,,62,127
27520,note_on,0,0,0,,2,,,86,127
27629,note_off,109,0,0,,2,,,86,127
27630,note_on,1,0,0,,5,,,77,127
27739,note_off,109,0,0,,5,,,77,127
27739,note_off,0,0,0,,2,,,62,127
27739,note_off,0,0,0,,4,,,64,127
27739,note_off,0,0,0,,5,,,53,127
27740,note_on,1,0,0,,7,,,55,127
27740,note_on,0,0,0,,4,,,64,127
27740,note_on,0,0,0,,2,,,62,127
27740,note_on,0,0,0,,4,,,76,127
27958,note_off,218,0,0,,4,,,76,127
27958,note_off,0,0,0,,2,,,62,127
27958,note_off,0,0,0,,4,,,64,127
27958,note_off,0,0,0,,7,,,55,127
27959,note_on,1,0,0,,10,,,57,127
27959,note_on,0,0,0,,4,,,64,127
27959,note_on,0,0,0,,2,,,62,127
27959,note_on,0,0,0,,4,,,76,127
28177,note_off,218,0,0,,4,,,76,127
28177,note_off,0,0,0,,2,,,62,127
28177,note_off,0,0,0,,4,,,64,127
28177,note_off,0,0,0,,10,,,57,127
28178,note_on,1,0,0,,11,,,58,127
28178,note_on,0,0,0,,7,,,67,127
28178,note_on,0,0,0,,2,,,62,127
28178,note_on,0,0,0,,7,,,79,127
28396,note_off,218,0,0,,7,,,79,127
28396,note_off,0,0,0,,2,,,62,127
28396,note_off,0,0,0,,7,,,67,127
28396,note_off,0,0,0,,11,,,58,127
28397,note_on,1,0,0,,7,,,55,127
28397,note_on,0,0,0,,2,,,62,127
28397,note_on,0,0,0,,7,,,67,127
28397,note_on,0,0,0,,5,,,77,127
28506,note_off,109,0,0,,5,,,77,127
28507,note_on,1,0,0,,4,,,76,127
28616,note_off,109,0,0,,4,,,76,127
28616,note_off,0,0,0,,7,,,67,127
28616,note_off,0,0,0,,2,,,62,127
28616,note_off,0,0,0,,7,,,55,127
28617,note_on,1,0,0,,2,,,62,127
28617,note_on,0,0,0,,5,,,65,127
28617,note_on,0,0,0,,10,,,57,127
28617,note_on,0,0,0,,2,,,74,127
28835,note_off,218,0,0,,2,,,74,127
28835,note_off,0,0,0,,10,,,57,127
28835,note_off,0,0,0,,5,,,65,127
28835,note_off,0,0,0,,2,,,62,127
28836,note_on,1,0,0,,4,,,64,127
28836,note_on,0,0,0,,10,,,57,127
28836,note_on,0,0,0,,2,,,74,127
28890,note_off,54,0,0,,2,,,74,127
28891,note_on,1,0,0,,1,,,73,127
28945,note_off,54,0,0,,1,,,73,127
28946,note_on,1,0,0,,12,,,71,127
29000,note_off,54,0,0,,12,,,71,127
29001,note_on,1,0,0,,1,,,73,127
29055,note_off,54,0,0,,1,,,73,127
29055,note_off,0,0,0,,10,,,57,127
29055,note_off,0,0,0,,4,,,64,127
29056,note_on,1,0,0,,2,,,50,127
29056,note_on,0,0,0,,2,,,62,127
29056,note_on,0,0,0,,2,,,74,127
29274,note_off,218,0,0,,2,,,74,127
29274,note_off,0,0,0,,2,,,62,127
29274,note_off,0,0,0,,2,,,50,127
29275,note_on,1,0,0,,5,,,53,127
29275,note_on,0,0,0,,2,,,62,127
29275,note_on,0,0,0,,5,,,77,127
29384,note_off,109,0,0,,5,,,77,127
29385,note_on,1,0,0,,10,,,69,127
29494,note_off,109,0,0,,10,,,69,127
29494,note_off,0,0,0,,2,,,62,127
29494,note_off,0,0,0,,5,,,53,127
29495,note_on,1,0,0,,7,,,55,127
29495,note_on,0,0,0,,4,,,64,127
29495,note_on,0,0,0,,2,,,62,127
29495,note_on,0,0,0,,7,,,67,127
29713,note_off,218,0,0,,7,,,67,127
29713,note_off,0,0,0,,2,,,62,127
29713,note_off,0,0,0,,4,,,64,127
29713,note_off,0,0,0,,7,,,55,127
29714,note_on,1,0,0,,2,,,62,127
29714,note_on,0,0,0,,10,,,57,127
29714,note_on,0,0,0,,4,,,64,127
29714,note_on,0,0,0,,7,,,67,127
29932,note_off,218,0,0,,7,,,67,127
29932,note_off,0,0,0,,4,,,64,127
29932,note_off,0,0,0,,10,,,57,127
29932,note_off,0,0,0,,2,,,62,127
29933,note_on,1,0,0,,11,,,58,127
29933,note_on,0,0,0,,4,,,64,127
29933,note_on,0,0,0,,2,,,62,127
29933,note_on,0,0,0,,7,,,67,127
30151,note_off,218,0,0,,7,,,67,127
30151,note_off,0,0,0,,2,,,62,127
30151,note_off,0,0,0,,4,,,64,127
30151,note_off,0,0,0,,11,,,58,127
30152,note_on,1,0,0,,5,,,53,127
30152,note_on,0,0,0,,4,,,64,127
30152,note_on,0,0,0,,2,,,62,127
30152,note_on,0,0,0,,5,,,77,127
30261,note_off,109,0,0,,5,,,77,127
30262,note_on,1,0,0,,10,,,69,127
30371,note_off,109,0,0,,10,,,69,127
30371,note_off,0,0,0,,2,,,62,127
30371,note_off,0,0,0,,4,,,64,127
30371,note_off,0,0,0,,5,,,53,127
30372,note_on,1,0,0,,7,,,55,127
30372,note_on,0,0,0,,2,,,62,127
30372,note_on,0,0,0,,4,,,64,127
30372,note_on,0,0,0,,7,,,67,127
30590,note_off,218,0,0,,7,,,67,127
30590,note_off,0,0,0,,4,,,64,127
30590,note_off,0,0,0,,2,,,62,127
30590,note_off,0,0,0,,7,,,55,127
30591,note_on,1,0,0,,10,,,57,127
30591,note_on,0,0,0,,4,,,64,127
30591,note_on,0,0,0,,2,,,62,127
30591,note_on,0,0,0,,7,,,67,127
30809,note_off,218,0,0,,7,,,67,127
30809,note_off,0,0,0,,2,,,62,127
30809,note_off,0,0,0,,4,,,64,127
30809,note_off,0,0,0,,10,,,57,127
30810,note_on,1,0,0,,2,,,62,127
30810,note_on,0,0,0,,11,,,58,127
30810,note_on,0,0,0,,7,,,67,127
30810,note_on,0,0,0,,7,,,79,127
31028,note_off,218,0,0,,7,,,79,127
31028,note_off,0,0,0,,7,,,67,127
31028,note_off,0,0,0,,11,,,58,127
31028,note_off,0,0,0,,2,,,62,127
31029,note_on,1,0,0,,2,,,62,127
31029,note_on,0,0,0,,7,,,55,127
31029,note_on,0,0,0,,7,,,67,127
31029,note_on,0,0,0,,5,,,77,127
31138,note_off,109,0,0,,5,,,77,127
31139,note_on,1,0,0,,4,,,76,127
31248,note_off,109,0,0,,4,,,76,127
31248,note_off,0,0,0,,7,,,67,127
31248,note_off,0,0,0,,7,,,55,127
31248,note_off,0,0,0,,2,,,62,127
31249,note_on,1,0,0,,10,,,57,127
31249,note_on,0,0,0,,2,,,62,127
31249,note_on,0,0,0,,5,,,65,127
31249,note_on,0,0,0,,2,,,74,127
31467,note_off,218,0,0,,2,,,74,127
31467,note_off,0,0,0,,5,,,65,127
31467,note_off,0,0,0,,2,,,62,127
31467,note_off,0,0,0,,10,,,57,127
31468,note_on,1,0,0,,10,,,57,127
31468,note_on,0,0,0,,4,,,64,127
31468,note_on,0,0,0,,2,,,74,127
31522,note_off,54,0,0,,2,,,74,127
31523,note_on,1,0,0,,1,,,73,127
31577,note_off,54,0,0,,1,,,73,127
31578,note_on,1,0,0,,12,,,71,127
31632,note_off,54,0,0,,12,,,71,127
31633,note_on,1,0,0,,1,,,73,127
31687,note_off,54,0,0,,1,,,73,127
31687,note_off,0,0,0,,4,,,64,127
31687,note_off,0,0,0,,10,,,57,127
31688,note_on,1,0,0,,2,,,50,127
31688,note_on,0,0,0,,2,,,62,127
31688,note_on,0,0,0,,2,,,74,127
31906,note_off,218,0,0,,2,,,74,127
31906,note_off,0,0,0,,2,,,62,127
31906,note_off,0,0,0,,2,,,50,127
31907,note_on,1,0,0,,2,,,50,127
31907,note_on,0,0,0,,2,,,62,127
31907,note_on,0,0,0,,5,,,77,127
32016,note_off,109,0,0,,5,,,77,127
32017,note_on,1,0,0,,10,,,69,127
32126,note_off,109,0,0,,10,,,69,127
32126,note_off,0,0,0,,2,,,62,127
32126,note_off,0,0,0,,2,,,50,127
32127,note_on,1,0,0,,7,,,55,127
32127,note_on,0,0,0,,2,,,62,127
32127,note_on,0,0,0,,11,,,70,127
32345,note_off,218,0,0,,11,,,70,127
32345,note_off,0,0,0,,2,,,62,127
32345,note_off,0,0,0,,7,,,55,127
32346,note_on,1,0,0,,4,,,52,127
32346,note_on,0,0,0,,1,,,61,127
32346,note_on,0,0,0,,7,,,79,127
32455,note_off,109,0,0,,7,,,79,127
32456,note_on,1,0,0,,1,,,73,127
32565,note_off,109,0,0,,1,,,73,127
32565,note_off,0,0,0,,1,,,61,127
32565,note_off,0,0,0,,4,,,52,127
32566,note_on,1,0,0,,2,,,62,127
32566,note_on,0,0,0,,5,,,53,127
32566,note_on,0,0,0,,10,,,81,127
32784,note_off,218,0,0,,10,,,81,127
32784,note_off,0,0,0,,5,,,53,127
32784,note_off,0,0,0,,2,,,62,127
32785,note_on,1,0,0,,7,,,55,127
32785,note_on,0,0,0,,4,,,64,127
32785,note_on,0,0,0,,11,,,82,127
32894,note_off,109,0,0,,11,,,82,127
32895,note_on,1,0,0,,7,,,79,127
33004,note_off,109,0,0,,7,,,79,127
33004,note_off,0,0,0,,4,,,64,127
33004,note_off,0,0,0,,7,,,55,127
33005,note_on,1,0,0,,5,,,65,127
33005,note_on,0,0,0,,10,,,57,127
33005,note_on,0,0,0,,2,,,74,127
33223,note_off,218,0,0,,2,,,74,127
33223,note_off,0,0,0,,10,,,57,127
33223,note_off,0,0,0,,5,,,65,127
33224,note_on,1,0,0,,4,,,64,127
33224,note_on,0,0,0,,10,,,57,127
33224,note_on,0,0,0,,2,,,74,127
33278,note_off,54,0,0,,2,,,74,127
33279,note_on,1,0,0,,1,,,73,127
33333,note_off,54,0,0,,1,,,73,127
33334,note_on,1,0,0,,12,,,71,127
33388,note_off,54,0,0,,12,,,71,127
33389,note_on,1,0,0,,1,,,73,127
33443,note_off,54,0,0,,1,,,73,127
33443,note_off,0,0,0,,10,,,57,127
33443,note_off,0,0,0,,4,,,64,127
33444,note_on,1,0,0,,2,,,50,127
33444,note_on,0,0,0,,2,,,62,127
33444,note_on,0,0,0,,2,,,74,127
33662,note_off,218,0,0,,2,,,74,127
33662,note_off,0,0,0,,2,,,62,127
33662,note_off,0,0,0,,2,,,50,127
33663,note_on,1,0,0,,2,,,62,127
33663,note_on,0,0,0,,2,,,50,127
33663,note_on,0,0,0,,5,,,77,127
33772,note_off,109,0,0,,5,,,77,127
33773,note_on,1,0,0,,10,,,69,127
33882,note_off,109,0,0,,10,,,69,127
33882,note_off,0,0,0,,2,,,50,127
33882,note_off,0,0,0,,2,,,62,127
33883,note_on,1,0,0,,2,,,62,127
33883,note_on,0,0,0,,7,,,55,127
33883,note_on,0,0,0,,11,,,70,127
34101,note_off,218,0,0,,11,,,70,127
34101,note_off,0,0,0,,7,,,55,127
34101,note_off,0,0,0,,2,,,62,127
34102,note_on,1,0,0,,1,,,61,127
34102,note_on,0,0,0,,4,,,52,127
34102,note_on,0,0,0,,7,,,79,127
34211,note_off,109,0,0,,7,,,79,127
34212,note_on,1,0,0,,1,,,73,127
34321,note_off,109,0,0,,1,,,73,127
34321,note_off,0,0,0,,4,,,52,127
34321,note_off,0,0,0,,1,,,61,127
34322,note_on,1,0,0,,5,,,53,127
34322,note_on,0,0,0,,2,,,62,127
34322,note_on,0,0,0,,2,,,74,127
34540,note_off,218,0,0,,2,,,74,127
34540,note_off,0,0,0,,2,,,62,127
34540,note_off,0,0,0,,5,,,53,127
34541,note_on,1,0,0,,7,,,55,127
34541,note_on,0,0,0,,11,,,70,127
34650,note_off,109,0,0,,11,,,70,127
34651,note_on,1,0,0,,7,,,67,127
34760,note_off,109,0,0,,7,,,67,127
34760,note_off,0,0,0,,7,,,55,127
34761,note_on,1,0,0,,10,,,57,127
34761,note_on,0,0,0,,2,,,62,127
34761,note_on,0,0,0,,5,,,65,127
34979,note_off,218,0,0,,5,,,65,127
34979,note_off,0,0,0,,2,,,62,127
34979,note_off,0,0,0,,10,,,57,127
34980,note_on,1,0,0,,10,,,45,127
34980,note_on,0,0,0,,1,,,61,127
34980,note_on,0,0,0,,4,,,64,127
35198,note_off,218,0,0,,4,,,64,127
35198,note_off,0,0,0,,1,,,61,127
35198,note_off,0,0,0,,10,,,45,127
35199,note_on,1,0,0,,2,,,38,127
35199,note_on,0,0,0,,2,,,62,127
36076,note_off,877,0,0,,2,,,62,127
36076,note_off,0,0,0,,2,,,38,127
36077,note_on,1,0,0,,6,,,66,127
36077,note_on,0,0,0,,2,,,62,127
36077,note_on,0,0,0,,2,,,74,127
36295,note_off,218,0,0,,2,,,74,127
36295,note_off,0,0,0,,2,,,62,127
36295,note_off,0,0,0,,6,,,66,127
36296,note_on,1,0,0,,2,,,62,127
36296,note_on,0,0,0,,6,,,66,127
36296,note_on,0,0,0,,10,,,69,127
36405,note_off,109,0,0,,10,,,69,127
36406,note_on,1,0,0,,10,,,69,127
36515,note_off,109,0,0,,10,,,69,127
36515,note_off,0,0,0,,6,,,66,127
36515,note_off,0,0,0,,2,,,62,127
36516,note_on,1,0,0,,2,,,62,127
36516,note_on,0,0,0,,6,,,66,127
36516,note_on,0,0,0,,10,,,69,127
36734,note_off,218,0,0,,10,,,69,127
36734,note_off,0,0,0,,6,,,66,127
36734,note_off,0,0,0,,2,,,62,127
36735,note_on,1,0,0,,2,,,62,127
36735,note_on,0,0,0,,7,,,67,127
36735,note_on,0,0,0,,11,,,70,127
36953,note_off,218,0,0,,11,,,70,127
36953,note_off,0,0,0,,7,,,67,127
36953,note_off,0,0,0,,2,,,62,127
36954,note_on,1,0,0,,7,,,67,127
36954,note_on,0,0,0,,0,,,60,127
36954,note_on,0,0,0,,0,,,72,127
36954,note_on,0,0,0,,10,,,69,127
37172,note_off,218,0,0,,10,,,69,127
37172,note_off,0,0,0,,0,,,72,127
37172,note_off,0,0,0,,0,,,60,127
37172,note_off,0,0,0,,7,,,67,127
37173,note_on,1,0,0,,0,,,60,127
37173,note_on,0,0,0,,7,,,67,127
37173,note_on,0,0,0,,2,,,74,127
37173,note_on,0,0,0,,11,,,70,127
37391,note_off,218,0,0,,11,,,70,127
37391,note_off,0,0,0,,2,,,74,127
37391,note_off,0,0,0,,7,,,67,127
37391,note_off,0,0,0,,0,,,60,127
37392,note_on,1,0,0,,0,,,60,127
37392,note_on,0,0,0,,7,,,67,127
37392,note_on,0,0,0,,0,,,72,127
37392,note_on,0,0,0,,10,,,69,127
37610,note_off,218,0,0,,10,,,69,127
37610,note_off,0,0,0,,0,,,72,127
37610,note_off,0,0,0,,7,,,67,127
37610,note_off,0,0,0,,0,,,60,127
37611,note_on,1,0,0,,7,,,67,127
37611,note_on,0,0,0,,0,,,60,127
37611,note_on,0,0,0,,11,,,70,127
37829,note_off,218,0,0,,11,,,70,127
37829,note_off,0,0,0,,0,,,60,127
37829,note_off,0,0,0,,7,,,67,127
37830,note_on,1,0,0,,2,,,62,127
37830,note_on,0,0,0,,6,,,66,127
37830,note_on,0,0,0,,2,,,74,127
38048,note_off,218,0,0,,2,,,74,127
38048,note_off,0,0,0,,6,,,66,127
38048,note_off,0,0,0,,2,,,62,127
38049,note_on,1,0,0,,6,,,66,127
38049,note_on,0,0,0,,2,,,62,127
38049,note_on,0,0,0,,10,,,69,127
38158,note_off,109,0,0,,10,,,69,127
38159,note_on,1,0,0,,10,,,69,127
38268,note_off,109,0,0,,10,,,69,127
38268,note_off,0,0,0,,2,,,62,127
38268,note_off,0,0,0,,6,,,66,127
38269,note_on,1,0,0,,2,,,62,127
38269,note_on,0,0,0,,6,,,66,127
38269,note_on,0,0,0,,10,,,69,127
38487,note_off,218,0,0,,10,,,69,127
38487,note_off,0,0,0,,6,,,66,127
38487,note_off,0,0,0,,2,,,62,127
38488,note_on,1,0,0,,2,,,62,127
38488,note_on,0,0,0,,7,,,67,127
38488,note_on,0,0,0,,11,,,70,127
38706,note_off,218,0,0,,11,,,70,127
38706,note_off,0,0,0,,7,,,67,127
38706,note_off,0,0,0,,2,,,62,127
38707,note_on,1,0,0,,7,,,67,127
38707,note_on,0,0,0,,0,,,60,127
38707,note_on,0,0,0,,0,,,72,127
38707,note_on,0,0,0,,10,,,69,127
38925,note_off,218,0,0,,10,,,69,127
38925,note_off,0,0,0,,0,,,72,127
38925,note_off,0,0,0,,0,,,60,127
38925,note_off,0,0,0,,7,,,67,127
38926,note_on,1,0,0,,0,,,60,127
38926,note_on,0,0,0,,7,,,67,127
38926,note_on,0,0,0,,2,,,74,127
38926,note_on,0,0,0,,11,,,70,127
39144,note_off,218,0,0,,11,,,70,127
39144,note_off,0,0,0,,2,,,74,127
39144,note_off,0,0,0,,7,,,67,127
39144,note_off,0,0,0,,0,,,60,127
39145,note_on,1,0,0,,7,,,67,127
39145,note_on,0,0,0,,0,,,60,127
39145,note_on,0,0,0,,0,,,72,127
39145,note_on,0,0,0,,10,,,69,127
39363,note_off,218,0,0,,10,,,69,127
39363,note_off,0,0,0,,0,,,72,127
39363,note_off,0,0,0,,0,,,60,127
39363,note_off,0,0,0,,7,,,67,127
39364,note_on,1,0,0,,7,,,67,127
39364,note_on,0,0,0,,0,,,60,127
39364,note_on,0,0,0,,11,,,70,127
39582,note_off,218,0,0,,11,,,70,127
39582,note_off,0,0,0,,0,,,60,127
39582,note_off,0,0,0,,7,,,67,127
39583,note_on,1,0,0,,2,,,62,127
39583,note_on,0,0,0,,6,,,66,127
39583,note_on,0,0,0,,2,,,74,127
39801,note_off,218,0,0,,2,,,74,127
39801,note_off,0,0,0,,6,,,66,127
39801,note_off,0,0,0,,2,,,62,127
39802,note_on,1,0,0,,2,,,62,127
39802,note_on,0,0,0,,6,,,66,127
39802,note_on,0,0,0,,10,,,69,127
39911,note_off,109,0,0,,10,,,69,127
39912,note_on,1,0,0,,10,,,69,127
40021,note_off,109,0,0,,10,,,69,127
40021,note_off,0,0,0,,6,,,66,127
40021,note_off,0,0,0,,2,,,62,127
40022,note_on,1,0,0,,2,,,62,127
40022,note_on,0,0,0,,6,,,66,127
40022,note_on,0,0,0,,10,,,69,127
40240,note_off,218,0,0,,10,,,69,127
40240,note_off,0,0,0,,6,,,66,127
40240,note_off,0,0,0,,2,,,62,127
40241,note_on,1,0,0,,2,,,62,127
40241,note_on,0,0,0,,6,,,66,127
40241,note_on,0,0,0,,12,,,71,127
40459,note_off,218,0,0,,12,,,71,127
40459,note_off,0,0,0,,6,,,66,127
40459,note_off,0,0,0,,2,,,62,127
40460,note_on,1,0,0,,2,,,62,127
40460,note_on,0,0,0,,6,,,66,127
40460,note_on,0,0,0,,10,,,69,127
40460,note_on,0,0,0,,0,,,72,127
40678,note_off,218,0,0,,0,,,72,127
40678,note_off,0,0,0,,6,,,66,127
40678,note_off,0,0,0,,2,,,62,127
40679,note_on,1,0,0,,2,,,62,127
40679,note_on,0,0,0,,6,,,66,127
40679,note_on,0,0,0,,12,,,71,127
40788,note_off,109,0,0,,12,,,71,127
40789,note_on,1,0,0,,0,,,72,127
40894,note_off,105,0,0,,10,,,69,127
40897,note_off,3,0,0,,0,,,72,127
40897,note_off,0,0,0,,6,,,66,127
40897,note_off,0,0,0,,2,,,62,127
40898,note_on,1,0,0,,2,,,62,127
40898,note_on,0,0,0,,6,,,66,127
40898,note_on,0,0,0,,10,,,69,127
40898,note_on,0,0,0,,0,,,72,127
41116,note_off,218,0,0,,0,,,72,127
41116,note_off,0,0,0,,10,,,69,127
41116,note_off,0,0,0,,6,,,66,127
41116,note_off,0,0,0,,2,,,62,127
41117,note_on,1,0,0,,2,,,62,127
41117,note_on,0,0,0,,6,,,66,127
41117,note_on,0,0,0,,10,,,69,127
41117,note_on,0,0,0,,0,,,72,127
41335,note_off,218,0,0,,0,,,72,127
41335,note_off,0,0,0,,10,,,69,127
41335,note_off,0,0,0,,6,,,66,127
41335,note_off,0,0,0,,2,,,62,127
41336,note_on,1,0,0,,4,,,64,127
41336,note_on,0,0,0,,0,,,72,127
41336,note_on,0,0,0,,10,,,69,127
41554,note_off,218,0,0,,10,,,69,127
41554,note_off,0,0,0,,0,,,72,127
41554,note_off,0,0,0,,4,,,64,127
41555,note_on,1,0,0,,4,,,64,127
41555,note_on,0,0,0,,12,,,71,127
41555,note_on,0,0,0,,8,,,68,127
41664,note_off,109,0,0,,8,,,68,127
41664,note_off,0,0,0,,12,,,71,127
41665,note_on,1,0,0,,10,,,69,127
41665,note_on,0,0,0,,0,,,72,127
41774,note_off,109,0,0,,0,,,72,127
41774,note_off,0,0,0,,10,,,69,127
41774,note_off,0,0,0,,4,,,64,127
41775,note_on,1,0,0,,4,,,64,127
41775,note_on,0,0,0,,12,,,71,127
41775,note_on,0,0,0,,2,,,74,127
41993,note_off,218,0,0,,2,,,74,127
41993,note_off,0,0,0,,12,,,71,127
41993,note_off,0,0,0,,4,,,64,127
41994,note_on,1,0,0,,4,,,64,127
41994,note_on,0,0,0,,0,,,72,127
41994,note_on,0,0,0,,4,,,76,127
42212,note_off,218,0,0,,4,,,76,127
42212,note_off,0,0,0,,0,,,72,127
42212,note_off,0,0,0,,4,,,64,127
42213,note_on,1,0,0,,2,,,62,127
42213,note_on,0,0,0,,5,,,77,127
42213,note_on,0,0,0,,2,,,74,127
42431,note_off,218,0,0,,2,,,74,127
42431,note_off,0,0,0,,5,,,77,127
42431,note_off,0,0,0,,2,,,62,127
42432,note_on,1,0,0,,2,,,62,127
42432,note_on,0,0,0,,4,,,76,127
42432,note_on,0,0,0,,0,,,72,127
42541,note_off,109,0,0,,0,,,72,127
42541,note_off,0,0,0,,4,,,76,127
42542,note_on,1,0,0,,2,,,74,127
42542,note_on,0,0,0,,12,,,71,127
42651,note_off,109,0,0,,12,,,71,127
42651,note_off,0,0,0,,2,,,74,127
42651,note_off,0,0,0,,2,,,62,127
42652,note_on,1,0,0,,4,,,64,127
42652,note_on,0,0,0,,10,,,69,127
42652,note_on,0,0,0,,0,,,72,127
42870,note_off,218,0,0,,0,,,72,127
42870,note_off,0,0,0,,10,,,69,127
42870,note_off,0,0,0,,4,,,64,127
42871,note_on,1,0,0,,4,,,64,127
42871,note_on,0,0,0,,12,,,71,127
42871,note_on,0,0,0,,8,,,68,127
43089,note_off,218,0,0,,8,,,68,127
43089,note_off,0,0,0,,12,,,71,127
43089,note_off,0,0,0,,4,,,64,127
43090,note_on,1,0,0,,4,,,64,127
43090,note_on,0,0,0,,10,,,57,127
43090,note_on,0,0,0,,10,,,69,127
43090,note_on,0,0,0,,0,,,72,127
43308,note_off,218,0,0,,0,,,72,127
43308,note_off,0,0,0,,10,,,69,127
43308,note_off,0,0,0,,10,,,57,127
43308,note_off,0,0,0,,4,,,64,127
43309,note_on,1,0,0,,10,,,57,127
43309,note_on,0,0,0,,4,,,64,127
43309,note_on,0,0,0,,0,,,72,127
43418,note_off,109,0,0,,0,,,72,127
43419,note_on,1,0,0,,2,,,74,127
43528,note_off,109,0,0,,2,,,74,127
43528,note_off,0,0,0,,4,,,64,127
43528,note_off,0,0,0,,10,,,57,127
43529,note_on,1,0,0,,4,,,64,127
43529,note_on,0,0,0,,10,,,57,127
43529,note_on,0,0,0,,2,,,74,127
43564,note_off,35,0,0,,2,,,74,127
43565,note_on,1,0,0,,0,,,72,127
43600,note_off,35,0,0,,0,,,72,127
43601,note_on,1,0,0,,2,,,74,127
43636,note_off,35,0,0,,2,,,74,127
43637,note_on,1,0,0,,0,,,72,127
43746,note_off,109,0,0,,0,,,72,127
43746,note_off,0,0,0,,10,,,57,127
43746,note_off,0,0,0,,4,,,64,127
43747,note_on,1,0,0,,4,,,64,127
43747,note_on,0,0,0,,10,,,57,127
43747,note_on,0,0,0,,0,,,72,127
43856,note_off,109,0,0,,0,,,72,127
43857,note_on,1,0,0,,2,,,74,127
43966,note_off,109,0,0,,2,,,74,127
43966,note_off,0,0,0,,10,,,57,127
43966,note_off,0,0,0,,4,,,64,127
43967,note_on,1,0,0,,4,,,64,127
43967,note_on,0,0,0,,11,,,58,127
43967,note_on,0,0,0,,0,,,60,127
43967,note_on,0,0,0,,7,,,55,127
43967,note_on,0,0,0,,2,,,74,127
44002,note_off,35,0,0,,2,,,74,127
44003,note_on,1,0,0,,0,,,72,127
44038,note_off,35,0,0,,0,,,72,127
44039,note_on,1,0,0,,2,,,74,127
44074,note_off,35,0,0,,2,,,74,127
44075,note_on,1,0,0,,0,,,72,127
44184,note_off,109,0,0,,0,,,72,127
44184,note_off,0,0,0,,7,,,55,127
44184,note_off,0,0,0,,0,,,60,127
44184,note_off,0,0,0,,11,,,58,127
44184,note_off,0,0,0,,4,,,64,127
44185,note_on,1,0,0,,0,,,60,127
44185,note_on,0,0,0,,4,,,64,127
44185,note_on,0,0,0,,7,,,55,127
44185,note_on,0,0,0,,11,,,58,127
44185,note_on,0,0,0,,0,,,72,127
44294,note_off,109,0,0,,0,,,72,127
44295,note_on,1,0,0,,2,,,74,127
44404,note_off,109,0,0,,2,,,74,127
44404,note_off,0,0,0,,11,,,58,127
44404,note_off,0,0,0,,7,,,55,127
44404,note_off,0,0,0,,4,,,64,127
44404,note_off,0,0,0,,0,,,60,127
44405,note_on,1,0,0,,4,,,64,127
44405,note_on,0,0,0,,7,,,55,127
44405,note_on,0,0,0,,11,,,58,127
44405,note_on,0,0,0,,0,,,60,127
44405,note_on,0,0,0,,2,,,74,127
44440,note_off,35,0,0,,2,,,74,127
44441,note_on,1,0,0,,0,,,72,127
44476,note_off,35,0,0,,0,,,72,127
44477,note_on,1,0,0,,2,,,74,127
44512,note_off,35,0,0,,2,,,74,127
44513,note_on,1,0,0,,0,,,72,127
44622,note_off,109,0,0,,0,,,72,127
44622,note_off,0,0,0,,0,,,60,127
44622,note_off,0,0,0,,11,,,58,127
44622,note_off,0,0,0,,7,,,55,127
44622,note_off,0,0,0,,4,,,64,127
44623,note_on,1,0,0,,4,,,64,127
44623,note_on,0,0,0,,7,,,55,127
44623,note_on,0,0,0,,11,,,58,127
44623,note_on,0,0,0,,0,,,60,127
44623,note_on,0,0,0,,0,,,72,127
44732,note_off,109,0,0,,0,,,72,127
44733,note_on,1,0,0,,2,,,74,127
44842,note_off,109,0,0,,2,,,74,127
44842,note_off,0,0,0,,0,,,60,127
44842,note_off,0,0,0,,11,,,58,127
44842,note_off,0,0,0,,7,,,55,127
44842,note_off,0,0,0,,4,,,64,127
44843,note_on,1,0,0,,5,,,65,127
44843,note_on,0,0,0,,5,,,53,127
44843,note_on,0,0,0,,0,,,60,127
44843,note_on,0,0,0,,2,,,74,127
44878,note_off,35,0,0,,2,,,74,127
44879,note_on,1,0,0,,0,,,72,127
44914,note_off,35,0,0,,0,,,72,127
44915,note_on,1,0,0,,2,,,74,127
44950,note_off,35,0,0,,2,,,74,127
44951,note_on,1,0,0,,0,,,72,127
45060,note_off,109,0,0,,0,,,72,127
45060,note_off,0,0,0,,0,,,60,127
45060,note_off,0,0,0,,5,,,53,127
45060,note_off,0,0,0,,5,,,65,127
45061,note_on,1,0,0,,0,,,60,127
45061,note_on,0,0,0,,5,,,65,127
45061,note_on,0,0,0,,5,,,53,127
45061,note_on,0,0,0,,1,,,73,127
45279,note_off,218,0,0,,1,,,73,127
45279,note_off,0,0,0,,5,,,53,127
45279,note_off,0,0,0,,5,,,65,127
45279,note_off,0,0,0,,0,,,60,127
45280,note_on,1,0,0,,5,,,65,127
45280,note_on,0,0,0,,5,,,53,127
45280,note_on,0,0,0,,0,,,60,127
45280,note_on,0,0,0,,3,,,75,127
45280,note_on,0,0,0,,0,,,72,127
45498,note_off,218,0,0,,0,,,72,127
45498,note_off,0,0,0,,3,,,75,127
45498,note_off,0,0,0,,0,,,60,127
45498,note_off,0,0,0,,5,,,53,127
45498,note_off,0,0,0,,5,,,65,127
45499,note_on,1,0,0,,0,,,60,127
45499,note_on,0,0,0,,5,,,53,127
45499,note_on,0,0,0,,5,,,65,127
45499,note_on,0,0,0,,2,,,74,127
45499,note_on,0,0,0,,5,,,77,127
45717,note_off,218,0,0,,5,,,77,127
45717,note_off,0,0,0,,2,,,74,127
45717,note_off,0,0,0,,5,,,65,127
45717,note_off,0,0,0,,5,,,53,127
45717,note_off,0,0,0,,0,,,60,127
45718,note_on,1,0,0,,11,,,58,127
45718,note_on,0,0,0,,0,,,60,127
45718,note_on,0,0,0,,3,,,51,127
45718,note_on,0,0,0,,6,,,78,127
45718,note_on,0,0,0,,3,,,75,127
45936,note_off,218,0,0,,3,,,75,127
45936,note_off,0,0,0,,6,,,78,127
45936,note_off,0,0,0,,3,,,51,127
45936,note_off,0,0,0,,0,,,60,127
45936,note_off,0,0,0,,11,,,58,127
45937,note_on,1,0,0,,11,,,58,127
45937,note_on,0,0,0,,0,,,60,127
45937,note_on,0,0,0,,3,,,51,127
45937,note_on,0,0,0,,1,,,73,127
45937,note_on,0,0,0,,5,,,77,127
46046,note_off,109,0,0,,5,,,77,127
46046,note_off,0,0,0,,1,,,73,127
46047,note_on,1,0,0,,0,,,72,127
46047,note_on,0,0,0,,3,,,75,127
46156,note_off,109,0,0,,3,,,75,127
46156,note_off,0,0,0,,0,,,72,127
46156,note_off,0,0,0,,3,,,51,127
46156,note_off,0,0,0,,0,,,60,127
46156,note_off,0,0,0,,11,,,58,127
46157,note_on,1,0,0,,5,,,65,127
46157,note_on,0,0,0,,5,,,53,127
46157,note_on,0,0,0,,0,,,60,127
46157,note_on,0,0,0,,1,,,73,127
46157,note_on,0,0,0,,11,,,70,127
46375,note_off,218,0,0,,11,,,70,127
46375,note_off,0,0,0,,1,,,73,127
46375,note_off,0,0,0,,0,,,60,127
46375,note_off,0,0,0,,5,,,53,127
46375,note_off,0,0,0,,5,,,65,127
46376,note_on,1,0,0,,5,,,65,127
46376,note_on,0,0,0,,5,,,53,127
46376,note_on,0,0,0,,0,,,60,127
46376,note_on,0,0,0,,10,,,69,127
46376,note_on,0,0,0,,0,,,72,127
46594,note_off,218,0,0,,0,,,72,127
46594,note_off,0,0,0,,10,,,69,127
46594,note_off,0,0,0,,0,,,60,127
46594,note_off,0,0,0,,5,,,53,127
46594,note_off,0,0,0,,5,,,65,127
46595,note_on,1,0,0,,11,,,58,127
46595,note_on,0,0,0,,5,,,65,127
46595,note_on,0,0,0,,1,,,61,127
46595,note_on,0,0,0,,1,,,73,127
46595,note_on,0,0,0,,11,,,70,127
46813,note_off,218,0,0,,11,,,70,127
46813,note_off,0,0,0,,1,,,73,127
46813,note_off,0,0,0,,1,,,61,127
46813,note_off,0,0,0,,5,,,65,127
46813,note_off,0,0,0,,11,,,58,127
46814,note_on,1,0,0,,11,,,58,127
46814,note_on,0,0,0,,1,,,61,127
46814,note_on,0,0,0,,5,,,65,127
46814,note_on,0,0,0,,11,,,70,127
46923,note_off,109,0,0,,11,,,70,127
46924,note_on,1,0,0,,0,,,72,127
47033,note_off,109,0,0,,0,,,72,127
47033,note_off,0,0,0,,5,,,65,127
47033,note_off,0,0,0,,1,,,61,127
47033,note_off,0,0,0,,11,,,58,127
47034,note_on,1,0,0,,5,,,65,127
47034,note_on,0,0,0,,1,,,61,127
47034,note_on,0,0,0,,11,,,58,127
47034,note_on,0,0,0,,11,,,70,127
47034,note_on,0,0,0,,1,,,73,127
47252,note_off,218,0,0,,1,,,73,127
47252,note_off,0,0,0,,11,,,70,127
47252,note_off,0,0,0,,11,,,58,127
47252,note_off,0,0,0,,1,,,61,127
47252,note_off,0,0,0,,5,,,65,127
47253,note_on,1,0,0,,1,,,61,127
47253,note_on,0,0,0,,11,,,58,127
47253,note_on,0,0,0,,5,,,65,127
47253,note_on,0,0,0,,3,,,75,127
47253,note_on,0,0,0,,0,,,72,127
47471,note_off,218,0,0,,0,,,72,127
47471,note_off,0,0,0,,3,,,75,127
47471,note_off,0,0,0,,5,,,65,127
47471,note_off,0,0,0,,11,,,58,127
47471,note_off,0,0,0,,1,,,61,127
47472,note_on,1,0,0,,1,,,61,127
47472,note_on,0,0,0,,1,,,49,127
47472,note_on,0,0,0,,5,,,77,127
47472,note_on,0,0,0,,1,,,73,127
47690,note_off,218,0,0,,1,,,73,127
47690,note_off,0,0,0,,5,,,77,127
47690,note_off,0,0,0,,1,,,49,127
47690,note_off,0,0,0,,1,,,61,127
47691,note_on,1,0,0,,1,,,61,127
47691,note_on,0,0,0,,1,,,49,127
47691,note_on,0,0,0,,0,,,72,127
47691,note_on,0,0,0,,3,,,75,127
47800,note_off,109,0,0,,3,,,75,127
47800,note_off,0,0,0,,0,,,72,127
47801,note_on,1,0,0,,1,,,73,127
47801,note_on,0,0,0,,11,,,70,127
47910,note_off,109,0,0,,11,,,70,127
47910,note_off,0,0,0,,1,,,73,127
47910,note_off,0,0,0,,1,,,49,127
47910,note_off,0,0,0,,1,,,61,127
47911,note_on,1,0,0,,3,,,63,127
47911,note_on,0,0,0,,3,,,51,127
47911,note_on,0,0,0,,0,,,72,127
47911,note_on,0,0,0,,8,,,68,127
48129,note_off,218,0,0,,8,,,68,127
48129,note_off,0,0,0,,0,,,72,127
48129,note_off,0,0,0,,3,,,51,127
48129,note_off,0,0,0,,3,,,63,127
48130,note_on,1,0,0,,3,,,63,127
48130,note_on,0,0,0,,3,,,51,127
48130,note_on,0,0,0,,7,,,67,127
48130,note_on,0,0,0,,11,,,70,127
48348,note_off,218,0,0,,11,,,70,127
48348,note_off,0,0,0,,7,,,67,127
48348,note_off,0,0,0,,3,,,51,127
48348,note_off,0,0,0,,3,,,63,127
48349,note_on,1,0,0,,8,,,56,127
48349,note_on,0,0,0,,3,,,63,127
48349,note_on,0,0,0,,8,,,68,127
48349,note_on,0,0,0,,0,,,72,127
48567,note_off,218,0,0,,0,,,72,127
48567,note_off,0,0,0,,8,,,68,127
48567,note_off,0,0,0,,3,,,63,127
48567,note_off,0,0,0,,8,,,56,127
48568,note_on,1,0,0,,5,,,65,127
48568,note_on,0,0,0,,8,,,56,127
48568,note_on,0,0,0,,12,,,71,127
48568,note_on,0,0,0,,2,,,74,127
48786,note_off,218,0,0,,2,,,74,127
48786,note_off,0,0,0,,12,,,71,127
48786,note_off,0,0,0,,8,,,56,127
48786,note_off,0,0,0,,5,,,65,127
48787,note_on,1,0,0,,7,,,55,127
48787,note_on,0,0,0,,3,,,63,127
48787,note_on,0,0,0,,3,,,75,127
48787,note_on,0,0,0,,0,,,72,127
49005,note_off,218,0,0,,0,,,72,127
49005,note_off,0,0,0,,3,,,75,127
49005,note_off,0,0,0,,3,,,63,127
49005,note_off,0,0,0,,7,,,55,127
49006,note_on,1,0,0,,5,,,53,127
49006,note_on,0,0,0,,2,,,62,127
49006,note_on,0,0,0,,2,,,74,127
49006,note_on,0,0,0,,5,,,77,127
49224,note_off,218,0,0,,5,,,77,127
49224,note_off,0,0,0,,2,,,74,127
49224,note_off,0,0,0,,2,,,62,127
49224,note_off,0,0,0,,5,,,53,127
49225,note_on,1,0,0,,0,,,60,127
49225,note_on,0,0,0,,3,,,51,127
49225,note_on,0,0,0,,7,,,79,127
49225,note_on,0,0,0,,3,,,75,127
49443,note_off,218,0,0,,3,,,75,127
49443,note_off,0,0,0,,7,,,79,127
49443,note_off,0,0,0,,3,,,51,127
49443,note_off,0,0,0,,0,,,60,127
49444,note_on,1,0,0,,5,,,65,127
49444,note_on,0,0,0,,5,,,53,127
49444,note_on,0,0,0,,2,,,74,127
49444,note_on,0,0,0,,8,,,80,127
49553,note_off,109,0,0,,8,,,80,127
49554,note_on,1,0,0,,5,,,77,127
49661,note_off,107,0,0,,2,,,74,127
49662,note_off,1,0,0,,5,,,77,127
49662,note_off,0,0,0,,5,,,53,127
49662,note_off,0,0,0,,5,,,65,127
49663,note_on,1,0,0,,7,,,67,127
49663,note_on,0,0,0,,7,,,55,127
49663,note_on,0,0,0,,3,,,75,127
49663,note_on,0,0,0,,0,,,72,127
49881,note_off,218,0,0,,0,,,72,127
49881,note_off,0,0,0,,3,,,75,127
49881,note_off,0,0,0,,7,,,55,127
49881,note_off,0,0,0,,7,,,67,127
49882,note_on,1,0,0,,7,,,55,127
49882,note_on,0,0,0,,7,,,67,127
49882,note_on,0,0,0,,12,,,71,127
49882,note_on,0,0,0,,2,,,74,127
50100,note_off,218,0,0,,2,,,74,127
50100,note_off,0,0,0,,12,,,71,127
50100,note_off,0,0,0,,7,,,67,127
50100,note_off,0,0,0,,7,,,55,127
50101,note_on,1,0,0,,0,,,48,127
50101,note_on,0,0,0,,0,,,72,127
50101,note_on,0,0,0,,3,,,75,127
50319,note_off,218,0,0,,3,,,75,127
50319,note_off,0,0,0,,0,,,72,127
50319,note_off,0,0,0,,0,,,48,127
50320,note_on,1,0,0,,0,,,72,127
50320,note_on,0,0,0,,3,,,75,127
50320,note_on,0,0,0,,6,,,78,127
50538,note_off,218,0,0,,6,,,78,127
50538,note_off,0,0,0,,3,,,75,127
50538,note_off,0,0,0,,0,,,72,127
50539,note_on,1,0,0,,11,,,70,127
50539,note_on,0,0,0,,2,,,74,127
50539,note_on,0,0,0,,7,,,79,127
50757,note_off,218,0,0,,7,,,79,127
50757,note_off,0,0,0,,2,,,74,127
50757,note_off,0,0,0,,11,,,70,127
50758,note_on,1,0,0,,10,,,69,127
50758,note_on,0,0,0,,10,,,81,127
50758,note_on,0,0,0,,0,,,72,127
50976,note_off,218,0,0,,0,,,72,127
50976,note_off,0,0,0,,10,,,81,127
50976,note_off,0,0,0,,10,,,69,127
50977,note_on,1,0,0,,7,,,67,127
50977,note_on,0,0,0,,2,,,74,127
50977,note_on,0,0,0,,11,,,82,127
51195,note_off,218,0,0,,11,,,82,127
51195,note_off,0,0,0,,2,,,74,127
51195,note_off,0,0,0,,7,,,67,127
51196,note_on,1,0,0,,0,,,60,127
51196,note_on,0,0,0,,0,,,84,127
51196,note_on,0,0,0,,3,,,75,127
51305,note_off,109,0,0,,3,,,75,127
51305,note_off,0,0,0,,0,,,84,127
51306,note_on,1,0,0,,2,,,74,127
51306,note_on,0,0,0,,11,,,82,127
51415,note_off,109,0,0,,11,,,82,127
51415,note_off,0,0,0,,2,,,74,127
51415,note_off,0,0,0,,0,,,60,127
51416,note_on,1,0,0,,0,,,60,127
51416,note_on,0,0,0,,10,,,81,127
51416,note_on,0,0,0,,0,,,72,127
51634,note_off,218,0,0,,0,,,72,127
51634,note_off,0,0,0,,10,,,81,127
51634,note_off,0,0,0,,0,,,60,127
51635,note_on,1,0,0,,0,,,60,127
51635,note_on,0,0,0,,11,,,70,127
51635,note_on,0,0,0,,7,,,79,127
51853,note_off,218,0,0,,7,,,79,127
51853,note_off,0,0,0,,11,,,70,127
51853,note_off,0,0,0,,0,,,60,127
51854,note_on,1,0,0,,2,,,50,127
51854,note_on,0,0,0,,2,,,62,127
51854,note_on,0,0,0,,10,,,69,127
51854,note_on,0,0,0,,6,,,78,127
52072,note_off,218,0,0,,6,,,78,127
52072,note_off,0,0,0,,10,,,69,127
52072,note_off,0,0,0,,2,,,62,127
52072,note_off,0,0,0,,2,,,50,127
52073,note_on,1,0,0,,2,,,50,127
52073,note_on,0,0,0,,2,,,62,127
52073,note_on,0,0,0,,6,,,66,127
52073,note_on,0,0,0,,10,,,69,127
52182,note_off,109,0,0,,10,,,69,127
52182,note_off,0,0,0,,6,,,66,127
52183,note_on,1,0,0,,7,,,67,127
52183,note_on,0,0,0,,11,,,70,127
52292,note_off,109,0,0,,11,,,70,127
52292,note_off,0,0,0,,7,,,67,127
52292,note_off,0,0,0,,2,,,62,127
52292,note_off,0,0,0,,2,,,50,127
52293,note_on,1,0,0,,0,,,60,127
52293,note_on,0,0,0,,0,,,48,127
52293,note_on,0,0,0,,7,,,67,127
52293,note_on,0,0,0,,11,,,70,127
52328,note_off,35,0,0,,11,,,70,127
52328,note_off,0,0,0,,7,,,67,127
52329,note_on,1,0,0,,6,,,66,127
52329,note_on,0,0,0,,10,,,69,127
52364,note_off,35,0,0,,10,,,69,127
52364,note_off,0,0,0,,6,,,66,127
52365,note_on,1,0,0,,7,,,67,127
52365,note_on,0,0,0,,11,,,70,127
52400,note_off,35,0,0,,11,,,70,127
52400,note_off,0,0,0,,7,,,67,127
52401,note_on,1,0,0,,6,,,66,127
52401,note_on,0,0,0,,10,,,69,127
52510,note_off,109,0,0,,10,,,69,127
52510,note_off,0,0,0,,6,,,66,127
52510,note_off,0,0,0,,0,,,48,127
52510,note_off,0,0,0,,0,,,60,127
52511,note_on,1,0,0,,2,,,62,127
52511,note_on,0,0,0,,2,,,50,127
52511,note_on,0,0,0,,6,,,66,127
52511,note_on,0,0,0,,10,,,69,127
52620,note_off,109,0,0,,10,,,69,127
52620,note_off,0,0,0,,6,,,66,127
52621,note_on,1,0,0,,11,,,70,127
52621,note_on,0,0,0,,7,,,67,127
52730,note_off,109,0,0,,7,,,67,127
52730,note_off,0,0,0,,11,,,70,127
52730,note_off,0,0,0,,2,,,50,127
52730,note_off,0,0,0,,2,,,62,127
52731,note_on,1,0,0,,3,,,63,127
52731,note_on,0,0,0,,3,,,51,127
52731,note_on,0,0,0,,7,,,67,127
52731,note_on,0,0,0,,11,,,70,127
52766,note_off,35,0,0,,11,,,70,127
52766,note_off,0,0,0,,7,,,67,127
52767,note_on,1,0,0,,6,,,66,127
52767,note_on,0,0,0,,10,,,69,127
52802,note_off,35,0,0,,10,,,69,127
52802,note_off,0,0,0,,6,,,66,127
52803,note_on,1,0,0,,7,,,67,127
52803,note_on,0,0,0,,11,,,70,127
52838,note_off,35,0,0,,11,,,70,127
52838,note_off,0,0,0,,7,,,67,127
52839,note_on,1,0,0,,6,,,66,127
52839,note_on,0,0,0,,10,,,69,127
52948,note_off,109,0,0,,10,,,69,127
52948,note_off,0,0,0,,6,,,66,127
52948,note_off,0,0,0,,3,,,51,127
52948,note_off,0,0,0,,3,,,63,127
52949,note_on,1,0,0,,0,,,48,127
52949,note_on,0,0,0,,0,,,60,127
52949,note_on,0,0,0,,10,,,69,127
52949,note_on,0,0,0,,6,,,66,127
53058,note_off,109,0,0,,6,,,66,127
53058,note_off,0,0,0,,10,,,69,127
53059,note_on,1,0,0,,11,,,70,127
53059,note_on,0,0,0,,7,,,67,127
53168,note_off,109,0,0,,7,,,67,127
53168,note_off,0,0,0,,11,,,70,127
53168,note_off,0,0,0,,0,,,60,127
53168,note_off,0,0,0,,0,,,48,127
53169,note_on,1,0,0,,0,,,60,127
53169,note_on,0,0,0,,0,,,48,127
53169,note_on,0,0,0,,7,,,67,127
53169,note_on,0,0,0,,11,,,70,127
53204,note_off,35,0,0,,11,,,70,127
53204,note_off,0,0,0,,7,,,67,127
53205,note_on,1,0,0,,6,,,66,127
53205,note_on,0,0,0,,10,,,69,127
53240,note_off,35,0,0,,10,,,69,127
53240,note_off,0,0,0,,6,,,66,127
53241,note_on,1,0,0,,7,,,67,127
53241,note_on,0,0,0,,11,,,70,127
53276,note_off,35,0,0,,11,,,70,127
53276,note_off,0,0,0,,7,,,67,127
53277,note_on,1,0,0,,6,,,66,127
53277,note_on,0,0,0,,10,,,69,127
53386,note_off,109,0,0,,10,,,69,127
53386,note_off,0,0,0,,6,,,66,127
53386,note_off,0,0,0,,0,,,48,127
53386,note_off,0,0,0,,0,,,60,127
53387,note_on,1,0,0,,2,,,50,127
53387,note_on,0,0,0,,2,,,62,127
53387,note_on,0,0,0,,6,,,66,127
53387,note_on,0,0,0,,10,,,69,127
53496,note_off,109,0,0,,10,,,69,127
53496,note_off,0,0,0,,6,,,66,127
53497,note_on,1,0,0,,11,,,70,127
53497,note_on,0,0,0,,7,,,67,127
53606,note_off,109,0,0,,7,,,67,127
53606,note_off,0,0,0,,11,,,70,127
53606,note_off,0,0,0,,2,,,62,127
53606,note_off,0,0,0,,2,,,50,127
53607,note_on,1,0,0,,3,,,63,127
53607,note_on,0,0,0,,3,,,51,127
53607,note_on,0,0,0,,7,,,67,127
53607,note_on,0,0,0,,11,,,70,127
53642,note_off,35,0,0,,11,,,70,127
53642,note_off,0,0,0,,7,,,67,127
53643,note_on,1,0,0,,6,,,66,127
53643,note_on,0,0,0,,10,,,69,127
53678,note_off,35,0,0,,10,,,69,127
53678,note_off,0,0,0,,6,,,66,127
53679,note_on,1,0,0,,7,,,67,127
53679,note_on,0,0,0,,11,,,70,127
53714,note_off,35,0,0,,11,,,70,127
53714,note_off,0,0,0,,7,,,67,127
53715,note_on,1,0,0,,6,,,66,127
53715,note_on,0,0,0,,10,,,69,127
53824,note_off,109,0,0,,10,,,69,127
53824,note_off,0,0,0,,6,,,66,127
53824,note_off,0,0,0,,3,,,51,127
53824,note_off,0,0,0,,3,,,63,127
53825,note_on,1,0,0,,6,,,54,127
53825,note_on,0,0,0,,6,,,42,127
53825,note_on,0,0,0,,10,,,69,127
53825,note_on,0,0,0,,0,,,72,127
53934,note_off,109,0,0,,0,,,72,127
53934,note_off,0,0,0,,10,,,69,127
53935,note_on,1,0,0,,2,,,74,127
53935,note_on,0,0,0,,11,,,70,127
54044,note_off,109,0,0,,11,,,70,127
54044,note_off,0,0,0,,2,,,74,127
54044,note_off,0,0,0,,6,,,42,127
54044,note_off,0,0,0,,6,,,54,127
54045,note_on,1,0,0,,6,,,54,127
54045,note_on,0,0,0,,6,,,42,127
54045,note_on,0,0,0,,11,,,70,127
54045,note_on,0,0,0,,2,,,74,127
54080,note_off,35,0,0,,2,,,74,127
54080,note_off,0,0,0,,11,,,70,127
54081,note_on,1,0,0,,10,,,69,127
54081,note_on,0,0,0,,0,,,72,127
54116,note_off,35,0,0,,0,,,72,127
54116,note_off,0,0,0,,10,,,69,127
54117,note_on,1,0,0,,11,,,70,127
54117,note_on,0,0,0,,2,,,74,127
54152,note_off,35,0,0,,2,,,74,127
54152,note_off,0,0,0,,11,,,70,127
54153,note_on,1,0,0,,10,,,69,127
54153,note_on,0,0,0,,0,,,72,127
54262,note_off,109,0,0,,0,,,72,127
54262,note_off,0,0,0,,10,,,69,127
54262,note_off,0,0,0,,6,,,42,127
54262,note_off,0,0,0,,6,,,54,127
54263,note_on,1,0,0,,7,,,55,127
54263,note_on,0,0,0,,7,,,43,127
54263,note_on,0,0,0,,10,,,69,127
54263,note_on,0,0,0,,0,,,72,127
54372,note_off,109,0,0,,0,,,72,127
54372,note_off,0,0,0,,10,,,69,127
54373,note_on,1,0,0,,2,,,74,127
54373,note_on,0,0,0,,11,,,70,127
54482,note_off,109,0,0,,11,,,70,127
54482,note_off,0,0,0,,2,,,74,127
54482,note_off,0,0,0,,7,,,43,127
54482,note_off,0,0,0,,7,,,55,127
54483,note_on,1,0,0,,10,,,57,127
54483,note_on,0,0,0,,10,,,45,127
54483,note_on,0,0,0,,11,,,70,127
54483,note_on,0,0,0,,2,,,74,127
54518,note_off,35,0,0,,2,,,74,127
54518,note_off,0,0,0,,11,,,70,127
54519,note_on,1,0,0,,10,,,69,127
54519,note_on,0,0,0,,0,,,72,127
54554,note_off,35,0,0,,0,,,72,127
54554,note_off,0,0,0,,10,,,69,127
54555,note_on,1,0,0,,11,,,70,127
54555,note_on,0,0,0,,2,,,74,127
54590,note_off,35,0,0,,2,,,74,127
54590,note_off,0,0,0,,11,,,70,127
54591,note_on,1,0,0,,10,,,69,127
54591,note_on,0,0,0,,0,,,72,127
54700,note_off,109,0,0,,0,,,72,127
54700,note_off,0,0,0,,10,,,69,127
54700,note_off,0,0,0,,10,,,45,127
54700,note_off,0,0,0,,10,,,57,127
54701,note_on,1,0,0,,6,,,42,127
54701,note_on,0,0,0,,6,,,54,127
54701,note_on,0,0,0,,10,,,69,127
54701,note_on,0,0,0,,0,,,72,127
54701,note_on,0,0,0,,1,,,73,127
54701,note_on,0,0,0,,4,,,76,127
54810,note_off,109,0,0,,4,,,76,127
54810,note_off,0,0,0,,1,,,73,127
54810,note_off,0,0,0,,0,,,72,127
54810,note_off,0,0,0,,10,,,69,127
54811,note_on,1,0,0,,2,,,74,127
54811,note_on,0,0,0,,11,,,70,127
54920,note_off,109,0,0,,11,,,70,127
54920,note_off,0,0,0,,2,,,74,127
54920,note_off,0,0,0,,6,,,54,127
54920,note_off,0,0,0,,6,,,42,127
54921,note_on,1,0,0,,6,,,54,127
54921,note_on,0,0,0,,6,,,42,127
54921,note_on,0,0,0,,11,,,70,127
54921,note_on,0,0,0,,2,,,74,127
54956,note_off,35,0,0,,2,,,74,127
54956,note_off,0,0,0,,11,,,70,127
54957,note_on,1,0,0,,10,,,69,127
54957,note_on,0,0,0,,0,,,72,127
54992,note_off,35,0,0,,0,,,72,127
54992,note_off,0,0,0,,10,,,69,127
54993,note_on,1,0,0,,11,,,70,127
54993,note_on,0,0,0,,2,,,74,127
55028,note_off,35,0,0,,2,,,74,127
55028,note_off,0,0,0,,11,,,70,127
55029,note_on,1,0,0,,10,,,69,127
55029,note_on,0,0,0,,0,,,72,127
55138,note_off,109,0,0,,0,,,72,127
55138,note_off,0,0,0,,10,,,69,127
55138,note_off,0,0,0,,6,,,42,127
55138,note_off,0,0,0,,6,,,54,127
55139,note_on,1,0,0,,7,,,43,127
55139,note_on,0,0,0,,7,,,55,127
55139,note_on,0,0,0,,0,,,72,127
55139,note_on,0,0,0,,10,,,69,127
55248,note_off,109,0,0,,10,,,69,127
55248,note_off,0,0,0,,0,,,72,127
55249,note_on,1,0,0,,11,,,70,127
55249,note_on,0,0,0,,2,,,74,127
55358,note_off,109,0,0,,2,,,74,127
55358,note_off,0,0,0,,11,,,70,127
55358,note_off,0,0,0,,7,,,55,127
55358,note_off,0,0,0,,7,,,43,127
55359,note_on,1,0,0,,10,,,57,127
55359,note_on,0,0,0,,10,,,45,127
55359,note_on,0,0,0,,11,,,70,127
55359,note_on,0,0,0,,2,,,74,127
55394,note_off,35,0,0,,2,,,74,127
55394,note_off,0,0,0,,11,,,70,127
55395,note_on,1,0,0,,10,,,69,127
55395,note_on,0,0,0,,0,,,72,127
55430,note_off,35,0,0,,0,,,72,127
55430,note_off,0,0,0,,10,,,69,127
55431,note_on,1,0,0,,11,,,70,127
55431,note_on,0,0,0,,2,,,74,127
55466,note_off,35,0,0,,2,,,74,127
55466,note_off,0,0,0,,11,,,70,127
55467,note_on,1,0,0,,10,,,69,127
55467,note_on,0,0,0,,0,,,72,127
55576,note_off,109,0,0,,0,,,72,127
55576,note_off,0,0,0,,10,,,69,127
55576,note_off,0,0,0,,10,,,45,127
55576,note_off,0,0,0,,10,,,57,127
55577,note_on,1,0,0,,11,,,58,127
55577,note_on,0,0,0,,11,,,46,127
55577,note_on,0,0,0,,2,,,74,127
55577,note_on,0,0,0,,11,,,70,127
55686,note_off,109,0,0,,11,,,70,127
55687,note_on,1,0,0,,10,,,69,127
55794,note_off,107,0,0,,2,,,74,127
55795,note_off,1,0,0,,10,,,69,127
55795,note_off,0,0,0,,11,,,46,127
55795,note_off,0,0,0,,11,,,58,127
55796,note_on,1,0,0,,0,,,60,127
55796,note_on,0,0,0,,0,,,48,127
55796,note_on,0,0,0,,3,,,75,127
55796,note_on,0,0,0,,7,,,67,127
56014,note_off,218,0,0,,7,,,67,127
56014,note_off,0,0,0,,3,,,75,127
56014,note_off,0,0,0,,0,,,48,127
56014,note_off,0,0,0,,0,,,60,127
56015,note_on,1,0,0,,2,,,62,127
56015,note_on,0,0,0,,2,,,50,127
56015,note_on,0,0,0,,2,,,74,127
56015,note_on,0,0,0,,6,,,66,127
56124,note_off,109,0,0,,2,,,74,127
56125,note_on,1,0,0,,0,,,72,127
56232,note_off,107,0,0,,6,,,66,127
56233,note_off,1,0,0,,0,,,72,127
56233,note_off,0,0,0,,2,,,50,127
56233,note_off,0,0,0,,2,,,62,127
56234,note_on,1,0,0,,3,,,63,127
56234,note_on,0,0,0,,3,,,51,127
56234,note_on,0,0,0,,7,,,67,127
56234,note_on,0,0,0,,0,,,72,127
56343,note_off,109,0,0,,0,,,72,127
56344,note_on,1,0,0,,11,,,70,127
56453,note_off,109,0,0,,11,,,70,127
56453,note_off,0,0,0,,3,,,51,127
56453,note_off,0,0,0,,3,,,63,127
56454,note_on,1,0,0,,0,,,60,127
56454,note_on,0,0,0,,0,,,48,127
56454,note_on,0,0,0,,10,,,69,127
56563,note_off,109,0,0,,10,,,69,127
56564,note_on,1,0,0,,11,,,70,127
56669,note_off,105,0,0,,7,,,67,127
56672,note_off,3,0,0,,11,,,70,127
56672,note_off,0,0,0,,0,,,48,127
56672,note_off,0,0,0,,0,,,60,127
56673,note_on,1,0,0,,2,,,62,127
56673,note_on,0,0,0,,2,,,50,127
56673,note_on,0,0,0,,10,,,69,127
56673,note_on,0,0,0,,0,,,72,127
56891,note_off,218,0,0,,0,,,72,127
56891,note_off,0,0,0,,10,,,69,127
56891,note_off,0,0,0,,2,,,50,127
56891,note_off,0,0,0,,2,,,62,127
56892,note_on,1,0,0,,2,,,50,127
56892,note_on,0,0,0,,2,,,62,127
56892,note_on,0,0,0,,11,,,70,127
56892,note_on,0,0,0,,7,,,67,127
57001,note_off,109,0,0,,7,,,67,127
57001,note_off,0,0,0,,11,,,70,127
57002,note_on,1,0,0,,10,,,69,127
57002,note_on,0,0,0,,6,,,66,127
57111,note_off,109,0,0,,6,,,66,127
57111,note_off,0,0,0,,10,,,69,127
57111,note_off,0,0,0,,2,,,62,127
57111,note_off,0,0,0,,2,,,50,127
57112,note_on,1,0,0,,7,,,43,127
57112,note_on,0,0,0,,7,,,67,127
57330,note_off,218,0,0,,7,,,67,127
57330,note_off,0,0,0,,7,,,43,127
57331,note_on,1,0,0,,0,,,72,127
57331,note_on,0,0,0,,0,,,60,127
57331,note_on,0,0,0,,10,,,81,127
57331,note_on,0,0,0,,6,,,78,127
57440,note_off,109,0,0,,6,,,78,127
57440,note_off,0,0,0,,10,,,81,127
57441,note_on,1,0,0,,7,,,79,127
57441,note_on,0,0,0,,11,,,82,127
57550,note_off,109,0,0,,11,,,82,127
57550,note_off,0,0,0,,7,,,79,127
57550,note_off,0,0,0,,0,,,60,127
57550,note_off,0,0,0,,0,,,72,127
57551,note_on,1,0,0,,0,,,60,127
57551,note_on,0,0,0,,0,,,72,127
57551,note_on,0,0,0,,7,,,79,127
57551,note_on,0,0,0,,11,,,82,127
57586,note_off,35,0,0,,11,,,82,127
57586,note_off,0,0,0,,7,,,79,127
57587,note_on,1,0,0,,6,,,78,127
57587,note_on,0,0,0,,10,,,81,127
57622,note_off,35,0,0,,10,,,81,127
57622,note_off,0,0,0,,6,,,78,127
57623,note_on,1,0,0,,7,,,79,127
57623,note_on,0,0,0,,11,,,82,127
57658,note_off,35,0,0,,11,,,82,127
57658,note_off,0,0,0,,7,,,79,127
57659,note_on,1,0,0,,6,,,78,127
57659,note_on,0,0,0,,10,,,81,127
57768,note_off,109,0,0,,10,,,81,127
57768,note_off,0,0,0,,6,,,78,127
57768,note_off,0,0,0,,0,,,72,127
57768,note_off,0,0,0,,0,,,60,127
57769,note_on,1,0,0,,2,,,74,127
57769,note_on,0,0,0,,2,,,62,127
57769,note_on,0,0,0,,10,,,81,127
57769,note_on,0,0,0,,6,,,78,127
57878,note_off,109,0,0,,6,,,78,127
57878,note_off,0,0,0,,10,,,81,127
57879,note_on,1,0,0,,7,,,79,127
57879,note_on,0,0,0,,11,,,82,127
57988,note_off,109,0,0,,11,,,82,127
57988,note_off,0,0,0,,7,,,79,127
57988,note_off,0,0,0,,2,,,62,127
57988,note_off,0,0,0,,2,,,74,127
57989,note_on,1,0,0,,3,,,75,127
57989,note_on,0,0,0,,3,,,63,127
57989,note_on,0,0,0,,7,,,79,127
57989,note_on,0,0,0,,11,,,82,127
58024,note_off,35,0,0,,11,,,82,127
58024,note_off,0,0,0,,7,,,79,127
58025,note_on,1,0,0,,6,,,78,127
58025,note_on,0,0,0,,10,,,81,127
58060,note_off,35,0,0,,10,,,81,127
58060,note_off,0,0,0,,6,,,78,127
58061,note_on,1,0,0,,7,,,79,127
58061,note_on,0,0,0,,11,,,82,127
58096,note_off,35,0,0,,11,,,82,127
58096,note_off,0,0,0,,7,,,79,127
58097,note_on,1,0,0,,6,,,78,127
58097,note_on,0,0,0,,10,,,81,127
58206,note_off,109,0,0,,10,,,81,127
58206,note_off,0,0,0,,6,,,78,127
58206,note_off,0,0,0,,3,,,63,127
58206,note_off,0,0,0,,3,,,75,127
58207,note_on,1,0,0,,0,,,72,127
58207,note_on,0,0,0,,0,,,60,127
58207,note_on,0,0,0,,6,,,78,127
58207,note_on,0,0,0,,10,,,81,127
58316,note_off,109,0,0,,10,,,81,127
58316,note_off,0,0,0,,6,,,78,127
58317,note_on,1,0,0,,7,,,79,127
58317,note_on,0,0,0,,11,,,82,127
58426,note_off,109,0,0,,11,,,82,127
58426,note_off,0,0,0,,7,,,79,127
58426,note_off,0,0,0,,0,,,60,127
58426,note_off,0,0,0,,0,,,72,127
58427,note_on,1,0,0,,0,,,60,127
58427,note_on,0,0,0,,0,,,72,127
58427,note_on,0,0,0,,7,,,79,127
58427,note_on,0,0,0,,11,,,82,127
58462,note_off,35,0,0,,11,,,82,127
58462,note_off,0,0,0,,7,,,79,127
58463,note_on,1,0,0,,6,,,78,127
58463,note_on,0,0,0,,10,,,81,127
58498,note_off,35,0,0,,10,,,81,127
58498,note_off,0,0,0,,6,,,78,127
58499,note_on,1,0,0,,7,,,79,127
58499,note_on,0,0,0,,11,,,82,127
58534,note_off,35,0,0,,11,,,82,127
58534,note_off,0,0,0,,7,,,79,127
58535,note_on,1,0,0,,6,,,78,127
58535,note_on,0,0,0,,10,,,81,127
58644,note_off,109,0,0,,10,,,81,127
58644,note_off,0,0,0,,6,,,78,127
58644,note_off,0,0,0,,0,,,72,127
58644,note_off,0,0,0,,0,,,60,127
58645,note_on,1,0,0,,2,,,74,127
58645,note_on,0,0,0,,2,,,62,127
58645,note_on,0,0,0,,6,,,78,127
58645,note_on,0,0,0,,10,,,81,127
58754,note_off,109,0,0,,10,,,81,127
58754,note_off,0,0,0,,6,,,78,127
58755,note_on,1,0,0,,7,,,79,127
58755,note_on,0,0,0,,11,,,82,127
58864,note_off,109,0,0,,11,,,82,127
58864,note_off,0,0,0,,7,,,79,127
58864,note_off,0,0,0,,2,,,62,127
58864,note_off,0,0,0,,2,,,74,127
58865,note_on,1,0,0,,3,,,75,127
58865,note_on,0,0,0,,3,,,63,127
58865,note_on,0,0,0,,7,,,79,127
58865,note_on,0,0,0,,11,,,82,127
58900,note_off,35,0,0,,11,,,82,127
58900,note_off,0,0,0,,7,,,79,127
58901,note_on,1,0,0,,6,,,78,127
58901,note_on,0,0,0,,10,,,81,127
58936,note_off,35,0,0,,10,,,81,127
58936,note_off,0,0,0,,6,,,78,127
58937,note_on,1,0,0,,7,,,79,127
58937,note_on,0,0,0,,11,,,82,127
58972,note_off,35,0,0,,11,,,82,127
58972,note_off,0,0,0,,7,,,79,127
58973,note_on,1,0,0,,6,,,78,127
58973,note_on,0,0,0,,10,,,81,127
59082,note_off,109,0,0,,10,,,81,127
59082,note_off,0,0,0,,6,,,78,127
59082,note_off,0,0,0,,3,,,63,127
59082,note_off,0,0,0,,3,,,75,127
59083,note_on,1,0,0,,6,,,54,127
59083,note_on,0,0,0,,6,,,66,127
59083,note_on,0,0,0,,0,,,84,127
59083,note_on,0,0,0,,10,,,81,127
59192,note_off,109,0,0,,10,,,81,127
59192,note_off,0,0,0,,0,,,84,127
59193,note_on,1,0,0,,2,,,86,127
59193,note_on,0,0,0,,11,,,82,127
59302,note_off,109,0,0,,11,,,82,127
59302,note_off,0,0,0,,2,,,86,127
59302,note_off,0,0,0,,6,,,66,127
59302,note_off,0,0,0,,6,,,54,127
59303,note_on,1,0,0,,6,,,66,127
59303,note_on,0,0,0,,6,,,54,127
59303,note_on,0,0,0,,11,,,82,127
59303,note_on,0,0,0,,2,,,86,127
59338,note_off,35,0,0,,2,,,86,127
59338,note_off,0,0,0,,11,,,82,127
59339,note_on,1,0,0,,10,,,81,127
59339,note_on,0,0,0,,0,,,84,127
59374,note_off,35,0,0,,0,,,84,127
59374,note_off,0,0,0,,10,,,81,127
59375,note_on,1,0,0,,11,,,82,127
59375,note_on,0,0,0,,2,,,86,127
59410,note_off,35,0,0,,2,,,86,127
59410,note_off,0,0,0,,11,,,82,127
59411,note_on,1,0,0,,10,,,81,127
59411,note_on,0,0,0,,0,,,84,127
59520,note_off,109,0,0,,0,,,84,127
59520,note_off,0,0,0,,10,,,81,127
59520,note_off,0,0,0,,6,,,54,127
59520,note_off,0,0,0,,6,,,66,127
59521,note_on,1,0,0,,7,,,55,127
59521,note_on,0,0,0,,7,,,67,127
59521,note_on,0,0,0,,10,,,81,127
59521,note_on,0,0,0,,0,,,84,127
59630,note_off,109,0,0,,0,,,84,127
59630,note_off,0,0,0,,10,,,81,127
59631,note_on,1,0,0,,2,,,86,127
59631,note_on,0,0,0,,11,,,82,127
59740,note_off,109,0,0,,11,,,82,127
59740,note_off,0,0,0,,2,,,86,127
59740,note_off,0,0,0,,7,,,67,127
59740,note_off,0,0,0,,7,,,55,127
59741,note_on,1,0,0,,10,,,69,127
59741,note_on,0,0,0,,10,,,57,127
59741,note_on,0,0,0,,11,,,82,127
59741,note_on,0,0,0,,2,,,86,127
59776,note_off,35,0,0,,2,,,86,127
59776,note_off,0,0,0,,11,,,82,127
59777,note_on,1,0,0,,10,,,81,127
59777,note_on,0,0,0,,0,,,84,127
59812,note_off,35,0,0,,0,,,84,127
59812,note_off,0,0,0,,10,,,81,127
59813,note_on,1,0,0,,11,,,82,127
59813,note_on,0,0,0,,2,,,86,127
59848,note_off,35,0,0,,2,,,86,127
59848,note_off,0,0,0,,11,,,82,127
59849,note_on,1,0,0,,10,,,81,127
59849,note_on,0,0,0,,0,,,84,127
59958,note_off,109,0,0,,0,,,84,127
59958,note_off,0,0,0,,10,,,81,127
59958,note_off,0,0,0,,10,,,57,127
59958,note_off,0,0,0,,10,,,69,127
59959,note_on,1,0,0,,6,,,66,127
59959,note_on,0,0,0,,6,,,54,127
59959,note_on,0,0,0,,10,,,81,127
59959,note_on,0,0,0,,0,,,84,127
60068,note_off,109,0,0,,0,,,84,127
60068,note_off,0,0,0,,10,,,81,127
60069,note_on,1,0,0,,2,,,86,127
60069,note_on,0,0,0,,11,,,82,127
60178,note_off,109,0,0,,11,,,82,127
60178,note_off,0,0,0,,2,,,86,127
60178,note_off,0,0,0,,6,,,54,127
60178,note_off,0,0,0,,6,,,66,127
60179,note_on,1,0,0,,6,,,54,127
60179,note_on,0,0,0,,6,,,66,127
60179,note_on,0,0,0,,11,,,82,127
60179,note_on,0,0,0,,2,,,86,127
60214,note_off,35,0,0,,2,,,86,127
60214,note_off,0,0,0,,11,,,82,127
60215,note_on,1,0,0,,10,,,81,127
60215,note_on,0,0,0,,0,,,84,127
60250,note_off,35,0,0,,0,,,84,127
60250,note_off,0,0,0,,10,,,81,127
60251,note_on,1,0,0,,11,,,82,127
60251,note_on,0,0,0,,2,,,86,127
60286,note_off,35,0,0,,2,,,86,127
60286,note_off,0,0,0,,11,,,82,127
60287,note_on,1,0,0,,10,,,81,127
60287,note_on,0,0,0,,0,,,84,127
60396,note_off,109,0,0,,0,,,84,127
60396,note_off,0,0,0,,10,,,81,127
60396,note_off,0,0,0,,6,,,66,127
60396,note_off,0,0,0,,6,,,54,127
60397,note_on,1,0,0,,7,,,55,127
60397,note_on,0,0,0,,7,,,67,127
60397,note_on,0,0,0,,0,,,84,127
60397,note_on,0,0,0,,10,,,81,127
60506,note_off,109,0,0,,10,,,81,127
60506,note_off,0,0,0,,0,,,84,127
60507,note_on,1,0,0,,2,,,86,127
60507,note_on,0,0,0,,11,,,82,127
60616,note_off,109,0,0,,11,,,82,127
60616,note_off,0,0,0,,2,,,86,127
60616,note_off,0,0,0,,7,,,67,127
60616,note_off,0,0,0,,7,,,55,127
60617,note_on,1,0,0,,10,,,57,127
60617,note_on,0,0,0,,10,,,69,127
60617,note_on,0,0,0,,11,,,82,127
60617,note_on,0,0,0,,2,,,86,127
60652,note_off,35,0,0,,2,,,86,127
60652,note_off,0,0,0,,11,,,82,127
60653,note_on,1,0,0,,10,,,81,127
60653,note_on,0,0,0,,0,,,84,127
60688,note_off,35,0,0,,0,,,84,127
60688,note_off,0,0,0,,10,,,81,127
60689,note_on,1,0,0,,11,,,82,127
60689,note_on,0,0,0,,2,,,86,127
60724,note_off,35,0,0,,2,,,86,127
60724,note_off,0,0,0,,11,,,82,127
60725,note_on,1,0,0,,10,,,81,127
60725,note_on,0,0,0,,0,,,84,127
60834,note_off,109,0,0,,0,,,84,127
60834,note_off,0,0,0,,10,,,81,127
60834,note_off,0,0,0,,10,,,69,127
60834,note_off,0,0,0,,10,,,57,127
60835,note_on,1,0,0,,11,,,70,127
60835,note_on,0,0,0,,11,,,58,127
60835,note_on,0,0,0,,2,,,86,127
60835,note_on,0,0,0,,11,,,82,127
60944,note_off,109,0,0,,11,,,82,127
60945,note_on,1,0,0,,10,,,81,127
61052,note_off,107,0,0,,2,,,86,127
61053,note_off,1,0,0,,10,,,81,127
61053,note_off,0,0,0,,11,,,58,127
61053,note_off,0,0,0,,11,,,70,127
61054,note_on,1,0,0,,0,,,60,127
61054,note_on,0,0,0,,0,,,72,127
61054,note_on,0,0,0,,3,,,87,127
61054,note_on,0,0,0,,7,,,79,127
61272,note_off,218,0,0,,7,,,79,127
61272,note_off,0,0,0,,3,,,87,127
61272,note_off,0,0,0,,0,,,72,127
61272,note_off,0,0,0,,0,,,60,127
61273,note_on,1,0,0,,2,,,74,127
61273,note_on,0,0,0,,2,,,62,127
61273,note_on,0,0,0,,2,,,86,127
61273,note_on,0,0,0,,6,,,78,127
61382,note_off,109,0,0,,2,,,86,127
61383,note_on,1,0,0,,0,,,84,127
61490,note_off,107,0,0,,6,,,78,127
61491,note_off,1,0,0,,0,,,84,127
61491,note_off,0,0,0,,2,,,62,127
61491,note_off,0,0,0,,2,,,74,127
61492,note_on,1,0,0,,3,,,75,127
61492,note_on,0,0,0,,3,,,63,127
61492,note_on,0,0,0,,7,,,79,127
61492,note_on,0,0,0,,11,,,82,127
61709,note_off,217,0,0,,11,,,82,127
61710,note_off,1,0,0,,7,,,79,127
61710,note_off,0,0,0,,3,,,63,127
61710,note_off,0,0,0,,3,,,75,127
61711,note_on,1,0,0,,0,,,60,127
61711,note_on,0,0,0,,0,,,72,127
61711,note_on,0,0,0,,10,,,81,127
61711,note_on,0,0,0,,6,,,78,127
61820,note_off,109,0,0,,6,,,78,127
61820,note_off,0,0,0,,10,,,81,127
61821,note_on,1,0,0,,7,,,79,127
61821,note_on,0,0,0,,11,,,82,127
61930,note_off,109,0,0,,11,,,82,127
61930,note_off,0,0,0,,7,,,79,127
61930,note_off,0,0,0,,0,,,72,127
61930,note_off,0,0,0,,0,,,60,127
61931,note_on,1,0,0,,2,,,74,127
61931,note_on,0,0,0,,2,,,62,127
61931,note_on,0,0,0,,0,,,84,127
61931,note_on,0,0,0,,10,,,81,127
62149,note_off,218,0,0,,10,,,81,127
62149,note_off,0,0,0,,0,,,84,127
62149,note_off,0,0,0,,2,,,62,127
62149,note_off,0,0,0,,2,,,74,127
62150,note_on,1,0,0,,2,,,62,127
62150,note_on,0,0,0,,2,,,74,127
62150,note_on,0,0,0,,11,,,82,127
62150,note_on,0,0,0,,7,,,79,127
62259,note_off,109,0,0,,7,,,79,127
62259,note_off,0,0,0,,11,,,82,127
62260,note_on,1,0,0,,10,,,81,127
62260,note_on,0,0,0,,6,,,78,127
62369,note_off,109,0,0,,6,,,78,127
62369,note_off,0,0,0,,10,,,81,127
62369,note_off,0,0,0,,2,,,74,127
62369,note_off,0,0,0,,2,,,62,127
62370,note_on,1,0,0,,7,,,67,127
62370,note_on,0,0,0,,7,,,79,127
62588,note_off,218,0,0,,7,,,79,127
62588,note_off,0,0,0,,7,,,67,127
62589,note_on,1,0,0,,0,,,72,127
62589,note_on,0,0,0,,7,,,67,127
62589,note_on,0,0,0,,2,,,86,127
62699,note_on,110,0,0,,5,,,77,127
62808,note_off,109,0,0,,5,,,77,127
62808,note_off,0,0,0,,7,,,67,127
62808,note_off,0,0,0,,0,,,72,127
62809,note_on,1,0,0,,7,,,67,127
62809,note_on,0,0,0,,0,,,72,127
62809,note_on,0,0,0,,3,,,75,127
63024,note_off,215,0,0,,2,,,86,127
63027,note_off,3,0,0,,3,,,75,127
63027,note_off,0,0,0,,0,,,72,127
63027,note_off,0,0,0,,7,,,67,127
63028,note_on,1,0,0,,7,,,67,127
63028,note_on,0,0,0,,0,,,72,127
63028,note_on,0,0,0,,3,,,75,127
63028,note_on,0,0,0,,0,,,84,127
63246,note_off,218,0,0,,3,,,75,127
63246,note_off,0,0,0,,0,,,72,127
63246,note_off,0,0,0,,7,,,67,127
63247,note_on,1,0,0,,6,,,66,127
63247,note_on,0,0,0,,0,,,72,127
63247,note_on,0,0,0,,2,,,74,127
63462,note_off,215,0,0,,0,,,84,127
63465,note_off,3,0,0,,2,,,74,127
63465,note_off,0,0,0,,0,,,72,127
63465,note_off,0,0,0,,6,,,66,127
63466,note_on,1,0,0,,7,,,67,127
63466,note_on,0,0,0,,0,,,72,127
63466,note_on,0,0,0,,2,,,86,127
63576,note_on,110,0,0,,5,,,77,127
63685,note_off,109,0,0,,5,,,77,127
63685,note_off,0,0,0,,0,,,72,127
63685,note_off,0,0,0,,7,,,67,127
63686,note_on,1,0,0,,7,,,67,127
63686,note_on,0,0,0,,0,,,72,127
63686,note_on,0,0,0,,3,,,75,127
63901,note_off,215,0,0,,2,,,86,127
63904,note_off,3,0,0,,3,,,75,127
63904,note_off,0,0,0,,0,,,72,127
63904,note_off,0,0,0,,7,,,67,127
63905,note_on,1,0,0,,7,,,67,127
63905,note_on,0,0,0,,0,,,72,127
63905,note_on,0,0,0,,3,,,75,127
63905,note_on,0,0,0,,0,,,84,127
64123,note_off,218,0,0,,3,,,75,127
64123,note_off,0,0,0,,0,,,72,127
64123,note_off,0,0,0,,7,,,67,127
64124,note_on,1,0,0,,6,,,66,127
64124,note_on,0,0,0,,2,,,74,127
64339,note_off,215,0,0,,0,,,84,127
64342,note_off,3,0,0,,2,,,74,127
64342,note_off,0,0,0,,6,,,66,127
64343,note_on,1,0,0,,7,,,67,127
64343,note_on,0,0,0,,11,,,82,127
64452,note_off,109,0,0,,11,,,82,127
64453,note_on,1,0,0,,7,,,79,127
64562,note_off,109,0,0,,7,,,79,127
64562,note_off,0,0,0,,7,,,67,127
64563,note_on,1,0,0,,0,,,60,127
64563,note_on,0,0,0,,0,,,72,127
64563,note_on,0,0,0,,10,,,81,127
64781,note_off,218,0,0,,10,,,81,127
64781,note_off,0,0,0,,0,,,72,127
64781,note_off,0,0,0,,0,,,60,127
64782,note_on,1,0,0,,2,,,62,127
64782,note_on,0,0,0,,10,,,69,127
64782,note_on,0,0,0,,7,,,79,127
64836,note_off,54,0,0,,7,,,79,127
64837,note_on,1,0,0,,6,,,78,127
64891,note_off,54,0,0,,6,,,78,127
64892,note_on,1,0,0,,4,,,76,127
64946,note_off,54,0,0,,4,,,76,127
64947,note_on,1,0,0,,6,,,78,127
65001,note_off,54,0,0,,6,,,78,127
65001,note_off,0,0,0,,10,,,69,127
65001,note_off,0,0,0,,2,,,62,127
65002,note_on,1,0,0,,7,,,55,127
65002,note_on,0,0,0,,7,,,67,127
65002,note_on,0,0,0,,11,,,70,127
65002,note_on,0,0,0,,7,,,79,127
65220,note_off,218,0,0,,7,,,79,127
65220,note_off,0,0,0,,11,,,70,127
65220,note_off,0,0,0,,7,,,67,127
65220,note_off,0,0,0,,7,,,55,127
65221,note_on,1,0,0,,11,,,58,127
65221,note_on,0,0,0,,7,,,67,127
65221,note_on,0,0,0,,7,,,79,127
65330,note_off,109,0,0,,7,,,79,127
65331,note_on,1,0,0,,11,,,70,127
65440,note_off,109,0,0,,11,,,70,127
65440,note_off,0,0,0,,7,,,67,127
65440,note_off,0,0,0,,11,,,58,127
65441,note_on,1,0,0,,0,,,60,127
65441,note_on,0,0,0,,7,,,67,127
65441,note_on,0,0,0,,10,,,69,127
65659,note_off,218,0,0,,10,,,69,127
65659,note_off,0,0,0,,7,,,67,127
65659,note_off,0,0,0,,0,,,60,127
65660,note_on,1,0,0,,7,,,67,127
65660,note_on,0,0,0,,2,,,62,127
65660,note_on,0,0,0,,10,,,69,127
65878,note_off,218,0,0,,10,,,69,127
65878,note_off,0,0,0,,2,,,62,127
65878,note_off,0,0,0,,7,,,67,127
65879,note_on,1,0,0,,7,,,67,127
65879,note_on,0,0,0,,3,,,63,127
65879,note_on,0,0,0,,10,,,69,127
66097,note_off,218,0,0,,10,,,69,127
66097,note_off,0,0,0,,3,,,63,127
66097,note_off,0,0,0,,7,,,67,127
66098,note_on,1,0,0,,7,,,67,127
66098,note_on,0,0,0,,11,,,58,127
66098,note_on,0,0,0,,7,,,79,127
66207,note_off,109,0,0,,7,,,79,127
66208,note_on,1,0,0,,11,,,70,127
66317,note_off,109,0,0,,11,,,70,127
66317,note_off,0,0,0,,11,,,58,127
66317,note_off,0,0,0,,7,,,67,127
66318,note_on,1,0,0,,0,,,60,127
66318,note_on,0,0,0,,7,,,67,127
66318,note_on,0,0,0,,10,,,69,127
66536,note_off,218,0,0,,10,,,69,127
66536,note_off,0,0,0,,7,,,67,127
66536,note_off,0,0,0,,0,,,60,127
66537,note_on,1,0,0,,7,,,67,127
66537,note_on,0,0,0,,2,,,62,127
66537,note_on,0,0,0,,10,,,69,127
66755,note_off,218,0,0,,10,,,69,127
66755,note_off,0,0,0,,2,,,62,127
66755,note_off,0,0,0,,7,,,67,127
66756,note_on,1,0,0,,7,,,67,127
66756,note_on,0,0,0,,3,,,63,127
66756,note_on,0,0,0,,0,,,72,127
66974,note_off,218,0,0,,0,,,72,127
66974,note_off,0,0,0,,3,,,63,127
66974,note_off,0,0,0,,7,,,67,127
66975,note_on,1,0,0,,0,,,60,127
66975,note_on,0,0,0,,7,,,67,127
66975,note_on,0,0,0,,11,,,70,127
67084,note_off,109,0,0,,11,,,70,127
67085,note_on,1,0,0,,10,,,69,127
67194,note_off,109,0,0,,10,,,69,127
67194,note_off,0,0,0,,0,,,60,127
67195,note_on,1,0,0,,2,,,62,127
67195,note_on,0,0,0,,11,,,70,127
67410,note_off,215,0,0,,7,,,67,127
67413,note_off,3,0,0,,11,,,70,127
67413,note_off,0,0,0,,2,,,62,127
67414,note_on,1,0,0,,2,,,50,127
67414,note_on,0,0,0,,6,,,66,127
67414,note_on,0,0,0,,10,,,69,127
67632,note_off,218,0,0,,10,,,69,127
67632,note_off,0,0,0,,6,,,66,127
67632,note_off,0,0,0,,2,,,50,127
67633,note_on,1,0,0,,7,,,55,127
67633,note_on,0,0,0,,7,,,67,127
67851,note_off,218,0,0,,7,,,67,127
67851,note_off,0,0,0,,7,,,55,127
67852,note_on,1,0,0,,7,,,67,127
67852,note_on,0,0,0,,11,,,58,127
67852,note_on,0,0,0,,7,,,79,127
67961,note_off,109,0,0,,7,,,79,127
67962,note_on,1,0,0,,2,,,74,127
68071,note_off,109,0,0,,2,,,74,127
68071,note_off,0,0,0,,11,,,58,127
68071,note_off,0,0,0,,7,,,67,127
68072,note_on,1,0,0,,0,,,60,127
68072,note_on,0,0,0,,7,,,67,127
68072,note_on,0,0,0,,3,,,75,127
68290,note_off,218,0,0,,3,,,75,127
68290,note_off,0,0,0,,7,,,67,127
68290,note_off,0,0,0,,0,,,60,127
68291,note_on,1,0,0,,0,,,60,127
68291,note_on,0,0,0,,10,,,57,127
68291,note_on,0,0,0,,0,,,72,127
68401,note_on,110,0,0,,6,,,66,127
68508,note_off,107,0,0,,0,,,72,127
68509,note_off,1,0,0,,6,,,66,127
68509,note_off,0,0,0,,10,,,57,127
68509,note_off,0,0,0,,0,,,60,127
68510,note_on,1,0,0,,2,,,62,127
68510,note_on,0,0,0,,11,,,58,127
68510,note_on,0,0,0,,2,,,74,127
68510,note_on,0,0,0,,7,,,67,127
68728,note_off,218,0,0,,2,,,74,127
68728,note_off,0,0,0,,11,,,58,127
68728,note_off,0,0,0,,2,,,62,127
68729,note_on,1,0,0,,0,,,60,127
68729,note_on,0,0,0,,3,,,63,127
68729,note_on,0,0,0,,3,,,75,127
68838,note_off,109,0,0,,3,,,75,127
68839,note_on,1,0,0,,0,,,72,127
68944,note_off,105,0,0,,7,,,67,127
68947,note_off,3,0,0,,0,,,72,127
68947,note_off,0,0,0,,3,,,63,127
68947,note_off,0,0,0,,0,,,60,127
68948,note_on,1,0,0,,2,,,62,127
68948,note_on,0,0,0,,7,,,67,127
68948,note_on,0,0,0,,11,,,70,127
69166,note_off,218,0,0,,11,,,70,127
69166,note_off,0,0,0,,7,,,67,127
69166,note_off,0,0,0,,2,,,62,127
69167,note_on,1,0,0,,2,,,50,127
69167,note_on,0,0,0,,6,,,66,127
69167,note_on,0,0,0,,10,,,69,127
69385,note_off,218,0,0,,10,,,69,127
69385,note_off,0,0,0,,6,,,66,127
69385,note_off,0,0,0,,2,,,50,127
69386,note_on,1,0,0,,7,,,55,127
69386,note_on,0,0,0,,7,,,43,127
69386,note_on,0,0,0,,7,,,67,127
69604,note_off,218,0,0,,7,,,67,127
69604,note_off,0,0,0,,7,,,43,127
69604,note_off,0,0,0,,7,,,55,127
69606,note_on,2,0,0,,2,,,74,127
69606,note_on,0,0,0,,7,,,55,127
69606,note_on,0,0,0,,11,,,46,127
69715,note_off,109,0,0,,2,,,74,127
69718,note_on,3,0,0,,2,,,62,127
69825,note_off,107,0,0,,11,,,46,127
69825,note_off,0,0,0,,7,,,55,127
69826,note_off,1,0,0,,2,,,62,127
69829,note_on,3,0,0,,3,,,63,127
69829,note_on,0,0,0,,7,,,55,127
69829,note_on,0,0,0,,0,,,48,127
70048,note_off,219,0,0,,0,,,48,127
70048,note_off,0,0,0,,7,,,55,127
70048,note_off,0,0,0,,3,,,63,127
70053,note_on,5,0,0,,0,,,72,127
70053,note_on,0,0,0,,10,,,57,127
70053,note_on,0,0,0,,10,,,45,127
70162,note_off,109,0,0,,0,,,72,127
70165,note_on,3,0,0,,6,,,66,127
70272,note_off,107,0,0,,10,,,45,127
70272,note_off,0,0,0,,10,,,57,127
70273,note_off,1,0,0,,6,,,66,127
70276,note_on,3,0,0,,7,,,67,127
70276,note_on,0,0,0,,7,,,55,127
70276,note_on,0,0,0,,11,,,46,127
70495,note_off,219,0,0,,11,,,46,127
70500,note_on,5,0,0,,3,,,63,127
70500,note_on,0,0,0,,0,,,48,127
70609,note_off,109,0,0,,3,,,63,127
70612,note_on,3,0,0,,0,,,60,127
70714,note_off,102,0,0,,7,,,55,127
70720,note_off,6,0,0,,0,,,48,127
70721,note_off,1,0,0,,0,,,60,127
70724,note_on,3,0,0,,11,,,58,127
70724,note_on,0,0,0,,2,,,50,127
70939,note_off,215,0,0,,7,,,67,127
70944,note_off,5,0,0,,2,,,50,127
70944,note_off,0,0,0,,11,,,58,127
70978,note_on,34,0,0,,10,,,57,127
70978,note_on,0,0,0,,0,,,60,127
70978,note_on,0,0,0,,2,,,62,127
70978,note_on,0,0,0,,6,,,66,127
70978,note_on,0,0,0,,2,,,38,127
71243,note_off,265,0,0,,2,,,38,127
71243,note_off,0,0,0,,6,,,66,127
71243,note_off,0,0,0,,2,,,62,127
71243,note_off,0,0,0,,0,,,60,127
71243,note_off,0,0,0,,10,,,57,127
71322,note_on,79,0,0,,7,,,67,127
71322,note_on,0,0,0,,7,,,43,127
73733,note_off,2411,0,0,,7,,,43,127
73733,note_off,0,0,0,,7,,,67,127
79872,end_of_track,6139,1,0,,,,,,
