tick,type,time,meta,track,program,channel,pitch,tempo,note,velocity
0,copyright,0,1,0,,,,,,
0,program_change,0,0,0,6,0,,,,
0,pitchwheel,0,0,0,,0,0,,,
0,program_change,0,0,0,6,1,,,,
0,pitchwheel,0,0,0,,1,-590,,,
0,program_change,0,0,0,6,2,,,,
0,pitchwheel,0,0,0,,2,-272,,,
0,program_change,0,0,0,6,3,,,,
0,pitchwheel,0,0,0,,3,-353,,,
0,program_change,0,0,0,6,4,,,,
0,pitchwheel,0,0,0,,4,-560,,,
0,program_change,0,0,0,6,5,,,,
0,pitchwheel,0,0,0,,5,-80,,,
0,program_change,0,0,0,6,6,,,,
0,pitchwheel,0,0,0,,6,-625,,,
0,program_change,0,0,0,6,7,,,,
0,pitchwheel,0,0,0,,7,-130,,,
0,program_change,0,0,0,6,8,,,,
0,pitchwheel,0,0,0,,8,-512,,,
0,program_change,0,0,0,6,10,,,,
0,pitchwheel,0,0,0,,10,-464,,,
0,program_change,0,0,0,6,11,,,,
0,pitchwheel,0,0,0,,11,-208,,,
0,program_change,0,0,0,6,12,,,,
0,pitchwheel,0,0,0,,12,-553,,,
0,set_tempo,0,1,0,,,,500000,,
128,note_on,128,0,0,,10,,,45,127
384,note_on,256,0,0,,10,,,69,127
639,note_off,255,0,0,,10,,,69,127
640,note_on,1,0,0,,4,,,64,127
895,note_off,255,0,0,,4,,,64,127
895,note_off,0,0,0,,10,,,45,127
896,note_on,1,0,0,,10,,,69,127
1152,note_on,256,0,0,,10,,,57,127
1279,note_off,127,0,0,,10,,,69,127
1280,note_on,1,0,0,,0,,,72,127
1407,note_off,127,0,0,,0,,,72,127
1407,note_off,0,0,0,,10,,,57,127
1408,note_on,1,0,0,,4,,,52,127
1408,note_on,0,0,0,,12,,,71,127
1535,note_off,127,0,0,,12,,,71,127
1536,note_on,1,0,0,,4,,,76,127
1663,note_off,127,0,0,,4,,,76,127
1663,note_off,0,0,0,,4,,,52,127
1664,note_on,1,0,0,,0,,,48,127
1664,note_on,0,0,0,,10,,,69,127
1791,note_off,127,0,0,,0,,,48,127
1792,note_on,1,0,0,,10,,,45,127
1919,note_off,127,0,0,,10,,,45,127
1920,note_on,1,0,0,,0,,,48,127
2047,note_off,127,0,0,,0,,,48,127
2048,note_on,1,0,0,,4,,,52,127
2175,note_off,127,0,0,,4,,,52,127
2175,note_off,0,0,0,,10,,,69,127
2176,note_on,1,0,0,,10,,,57,127
2176,note_on,0,0,0,,4,,,76,127
2303,note_off,127,0,0,,10,,,57,127
2304,note_on,1,0,0,,0,,,60,127
2431,note_off,127,0,0,,0,,,60,127
2432,note_on,1,0,0,,2,,,62,127
2432,note_on,0,0,0,,5,,,65,127
2559,note_off,127,0,0,,2,,,62,127
2560,note_on,1,0,0,,10,,,57,127
2683,note_off,123,0,0,,4,,,76,127
2687,note_off,4,0,0,,10,,,57,127
2688,note_on,1,0,0,,5,,,53,127
2688,note_on,0,0,0,,2,,,74,127
2815,note_off,127,0,0,,5,,,53,127
2816,note_on,1,0,0,,2,,,50,127
2943,note_off,127,0,0,,2,,,50,127
2944,note_on,1,0,0,,12,,,47,127
3071,note_off,127,0,0,,12,,,47,127
3072,note_on,1,0,0,,8,,,44,127
3199,note_off,127,0,0,,8,,,44,127
3200,note_on,1,0,0,,4,,,40,127
3327,note_off,127,0,0,,4,,,40,127
3328,note_on,1,0,0,,8,,,44,127
3455,note_off,127,0,0,,8,,,44,127
3455,note_off,0,0,0,,5,,,65,127
3456,note_on,1,0,0,,12,,,47,127
3456,note_on,0,0,0,,4,,,64,127
3583,note_off,127,0,0,,12,,,47,127
3584,note_on,1,0,0,,4,,,52,127
3711,note_off,127,0,0,,4,,,52,127
3711,note_off,0,0,0,,4,,,64,127
3711,note_off,0,0,0,,2,,,74,127
3712,note_on,1,0,0,,8,,,56,127
3712,note_on,0,0,0,,2,,,74,127
3839,note_off,127,0,0,,8,,,56,127
3840,note_on,1,0,0,,12,,,59,127
3967,note_off,127,0,0,,12,,,59,127
3967,note_off,0,0,0,,2,,,74,127
3968,note_on,1,0,0,,10,,,57,127
3968,note_on,0,0,0,,0,,,72,127
4095,note_off,127,0,0,,0,,,72,127
4096,note_on,1,0,0,,10,,,81,127
4223,note_off,127,0,0,,10,,,81,127
4224,note_on,1,0,0,,10,,,45,127
4224,note_on,0,0,0,,4,,,76,127
4351,note_off,127,0,0,,4,,,76,127
4352,note_on,1,0,0,,0,,,72,127
4475,note_off,123,0,0,,10,,,57,127
4479,note_off,4,0,0,,0,,,72,127
4480,note_on,1,0,0,,10,,,69,127
4607,note_off,127,0,0,,10,,,69,127
4608,note_on,1,0,0,,4,,,64,127
4735,note_off,127,0,0,,4,,,64,127
4736,note_on,1,0,0,,0,,,60,127
4863,note_off,127,0,0,,0,,,60,127
4864,note_on,1,0,0,,10,,,57,127
4991,note_off,127,0,0,,10,,,57,127
4991,note_off,0,0,0,,10,,,45,127
4992,note_on,1,0,0,,4,,,52,127
5119,note_off,127,0,0,,4,,,52,127
5120,note_on,1,0,0,,0,,,48,127
5247,note_off,127,0,0,,0,,,48,127
5248,note_on,1,0,0,,10,,,45,127
5375,note_off,127,0,0,,10,,,45,127
5376,note_on,1,0,0,,4,,,40,127
5503,note_off,127,0,0,,4,,,40,127
5504,note_on,1,0,0,,10,,,33,127
5760,note_on,256,0,0,,10,,,69,127
6011,note_off,251,0,0,,10,,,33,127
6015,note_off,4,0,0,,10,,,69,127
6016,note_on,1,0,0,,4,,,64,127
6271,note_off,255,0,0,,4,,,64,127
6272,note_on,1,0,0,,10,,,69,127
6528,note_on,256,0,0,,10,,,57,127
6619,note_off,91,0,0,,10,,,69,127
6656,note_on,37,0,0,,0,,,72,127
6783,note_off,127,0,0,,0,,,72,127
6783,note_off,0,0,0,,10,,,57,127
6784,note_on,1,0,0,,4,,,52,127
6784,note_on,0,0,0,,12,,,71,127
6911,note_off,127,0,0,,12,,,71,127
6912,note_on,1,0,0,,4,,,76,127
7039,note_off,127,0,0,,4,,,76,127
7039,note_off,0,0,0,,4,,,52,127
7040,note_on,1,0,0,,0,,,48,127
7040,note_on,0,0,0,,10,,,69,127
7167,note_off,127,0,0,,0,,,48,127
7168,note_on,1,0,0,,10,,,45,127
7295,note_off,127,0,0,,10,,,45,127
7296,note_on,1,0,0,,0,,,48,127
7423,note_off,127,0,0,,0,,,48,127
7424,note_on,1,0,0,,4,,,52,127
7520,note_off,96,0,0,,10,,,69,127
7551,note_off,31,0,0,,4,,,52,127
7552,note_on,1,0,0,,10,,,57,127
7552,note_on,0,0,0,,4,,,76,127
7679,note_off,127,0,0,,10,,,57,127
7680,note_on,1,0,0,,0,,,60,127
7807,note_off,127,0,0,,0,,,60,127
7808,note_on,1,0,0,,2,,,62,127
7808,note_on,0,0,0,,5,,,65,127
7935,note_off,127,0,0,,2,,,62,127
7936,note_on,1,0,0,,10,,,57,127
8059,note_off,123,0,0,,4,,,76,127
8063,note_off,4,0,0,,10,,,57,127
8064,note_on,1,0,0,,5,,,53,127
8064,note_on,0,0,0,,2,,,74,127
8191,note_off,127,0,0,,5,,,53,127
8192,note_on,1,0,0,,2,,,50,127
8319,note_off,127,0,0,,2,,,50,127
8320,note_on,1,0,0,,12,,,47,127
8447,note_off,127,0,0,,12,,,47,127
8448,note_on,1,0,0,,8,,,44,127
8575,note_off,127,0,0,,8,,,44,127
8576,note_on,1,0,0,,4,,,40,127
8703,note_off,127,0,0,,4,,,40,127
8704,note_on,1,0,0,,8,,,44,127
8831,note_off,127,0,0,,8,,,44,127
8831,note_off,0,0,0,,2,,,74,127
8831,note_off,0,0,0,,5,,,65,127
8832,note_on,1,0,0,,12,,,47,127
8832,note_on,0,0,0,,4,,,64,127
8959,note_off,127,0,0,,12,,,47,127
8960,note_on,1,0,0,,4,,,52,127
9087,note_off,127,0,0,,4,,,52,127
9087,note_off,0,0,0,,4,,,64,127
9088,note_on,1,0,0,,8,,,56,127
9088,note_on,0,0,0,,2,,,74,127
9215,note_off,127,0,0,,8,,,56,127
9216,note_on,1,0,0,,12,,,59,127
9343,note_off,127,0,0,,12,,,59,127
9343,note_off,0,0,0,,2,,,74,127
9344,note_on,1,0,0,,10,,,57,127
9344,note_on,0,0,0,,0,,,72,127
9471,note_off,127,0,0,,0,,,72,127
9472,note_on,1,0,0,,10,,,81,127
9599,note_off,127,0,0,,10,,,81,127
9599,note_off,0,0,0,,10,,,57,127
9600,note_on,1,0,0,,10,,,45,127
9600,note_on,0,0,0,,4,,,76,127
9727,note_off,127,0,0,,4,,,76,127
9728,note_on,1,0,0,,0,,,72,127
9855,note_off,127,0,0,,0,,,72,127
9856,note_on,1,0,0,,10,,,69,127
9983,note_off,127,0,0,,10,,,69,127
9984,note_on,1,0,0,,4,,,64,127
10111,note_off,127,0,0,,4,,,64,127
10112,note_on,1,0,0,,0,,,60,127
10239,note_off,127,0,0,,0,,,60,127
10240,note_off,1,0,0,,10,,,45,127
10240,note_on,0,0,0,,10,,,57,127
10368,note_on,128,0,0,,4,,,52,127
10495,note_off,127,0,0,,4,,,52,127
10496,note_on,1,0,0,,0,,,48,127
10613,note_off,117,0,0,,10,,,57,127
10622,note_off,9,0,0,,0,,,48,127
10623,note_on,1,0,0,,10,,,45,127
10751,note_on,128,0,0,,4,,,40,127
10876,note_off,125,0,0,,10,,,45,127
10877,note_off,1,0,0,,4,,,40,127
10878,note_on,1,0,0,,10,,,33,127
11134,note_on,256,0,0,,2,,,74,127
11197,note_off,63,0,0,,2,,,74,127
11198,note_on,1,0,0,,0,,,72,127
11261,note_off,63,0,0,,0,,,72,127
11262,note_on,1,0,0,,2,,,74,127
11325,note_off,63,0,0,,2,,,74,127
11326,note_on,1,0,0,,0,,,72,127
11331,note_off,5,0,0,,10,,,33,127
11388,note_off,57,0,0,,0,,,72,127
11389,note_on,1,0,0,,10,,,69,127
11389,note_on,0,0,0,,2,,,74,127
11452,note_off,63,0,0,,2,,,74,127
11453,note_on,1,0,0,,0,,,72,127
11506,note_off,53,0,0,,0,,,72,127
11517,note_on,11,0,0,,0,,,72,127
11644,note_off,127,0,0,,0,,,72,127
11644,note_off,0,0,0,,10,,,69,127
11645,note_on,1,0,0,,7,,,67,127
11645,note_on,0,0,0,,12,,,71,127
11772,note_off,127,0,0,,12,,,71,127
11772,note_off,0,0,0,,7,,,67,127
11773,note_on,1,0,0,,4,,,64,127
11773,note_on,0,0,0,,4,,,76,127
11900,note_off,127,0,0,,4,,,76,127
11900,note_off,0,0,0,,4,,,64,127
11901,note_on,1,0,0,,5,,,65,127
11901,note_on,0,0,0,,10,,,69,127
12028,note_off,127,0,0,,10,,,69,127
12028,note_off,0,0,0,,5,,,65,127
12029,note_on,1,0,0,,2,,,62,127
12029,note_on,0,0,0,,5,,,77,127
12156,note_off,127,0,0,,5,,,77,127
12156,note_off,0,0,0,,2,,,62,127
12157,note_on,1,0,0,,4,,,64,127
12157,note_on,0,0,0,,12,,,71,127
12284,note_off,127,0,0,,12,,,71,127
12284,note_off,0,0,0,,4,,,64,127
12285,note_on,1,0,0,,8,,,68,127
12285,note_on,0,0,0,,12,,,83,127
12412,note_off,127,0,0,,12,,,83,127
12412,note_off,0,0,0,,8,,,68,127
12413,note_on,1,0,0,,10,,,69,127
12413,note_on,0,0,0,,0,,,84,127
12540,note_off,127,0,0,,10,,,69,127
12541,note_on,1,0,0,,4,,,64,127
12605,note_off,64,0,0,,0,,,84,127
12668,note_off,63,0,0,,4,,,64,127
12669,note_on,1,0,0,,0,,,60,127
12669,note_on,0,0,0,,2,,,74,127
12732,note_off,63,0,0,,2,,,74,127
12733,note_on,1,0,0,,0,,,72,127
12796,note_off,63,0,0,,0,,,72,127
12796,note_off,0,0,0,,0,,,60,127
12797,note_on,1,0,0,,10,,,57,127
12797,note_on,0,0,0,,2,,,74,127
12860,note_off,63,0,0,,2,,,74,127
12861,note_on,1,0,0,,0,,,72,127
12924,note_off,63,0,0,,0,,,72,127
12924,note_off,0,0,0,,10,,,57,127
12925,note_on,1,0,0,,10,,,69,127
12925,note_on,0,0,0,,2,,,74,127
12988,note_off,63,0,0,,2,,,74,127
12989,note_on,1,0,0,,0,,,72,127
13042,note_off,53,0,0,,0,,,72,127
13053,note_on,11,0,0,,0,,,72,127
13180,note_off,127,0,0,,0,,,72,127
13180,note_off,0,0,0,,10,,,69,127
13181,note_on,1,0,0,,7,,,67,127
13181,note_on,0,0,0,,12,,,71,127
13308,note_off,127,0,0,,12,,,71,127
13308,note_off,0,0,0,,7,,,67,127
13309,note_on,1,0,0,,4,,,64,127
13309,note_on,0,0,0,,4,,,76,127
13436,note_off,127,0,0,,4,,,76,127
13436,note_off,0,0,0,,4,,,64,127
13437,note_on,1,0,0,,5,,,65,127
13437,note_on,0,0,0,,10,,,69,127
13564,note_off,127,0,0,,10,,,69,127
13564,note_off,0,0,0,,5,,,65,127
13565,note_on,1,0,0,,2,,,62,127
13565,note_on,0,0,0,,5,,,77,127
13692,note_off,127,0,0,,5,,,77,127
13692,note_off,0,0,0,,2,,,62,127
13693,note_on,1,0,0,,7,,,67,127
13693,note_on,0,0,0,,12,,,71,127
13820,note_off,127,0,0,,12,,,71,127
13820,note_off,0,0,0,,7,,,67,127
13821,note_on,1,0,0,,7,,,55,127
13821,note_on,0,0,0,,12,,,83,127
13948,note_off,127,0,0,,12,,,83,127
13948,note_off,0,0,0,,7,,,55,127
13949,note_on,1,0,0,,0,,,60,127
13949,note_on,0,0,0,,0,,,84,127
14076,note_off,127,0,0,,0,,,60,127
14077,note_on,1,0,0,,7,,,55,127
14109,note_off,32,0,0,,0,,,84,127
14204,note_off,95,0,0,,7,,,55,127
14205,note_on,1,0,0,,4,,,52,127
14205,note_on,0,0,0,,2,,,74,127
14268,note_off,63,0,0,,2,,,74,127
14269,note_on,1,0,0,,0,,,72,127
14332,note_off,63,0,0,,0,,,72,127
14332,note_off,0,0,0,,4,,,52,127
14333,note_on,1,0,0,,0,,,48,127
14333,note_on,0,0,0,,2,,,74,127
14396,note_off,63,0,0,,2,,,74,127
14397,note_on,1,0,0,,0,,,72,127
14460,note_off,63,0,0,,0,,,72,127
14460,note_off,0,0,0,,0,,,48,127
14461,note_on,1,0,0,,6,,,66,127
14461,note_on,0,0,0,,2,,,74,127
14524,note_off,63,0,0,,2,,,74,127
14525,note_on,1,0,0,,0,,,72,127
14578,note_off,53,0,0,,0,,,72,127
14589,note_on,11,0,0,,0,,,72,127
14716,note_off,127,0,0,,0,,,72,127
14716,note_off,0,0,0,,6,,,66,127
14717,note_on,1,0,0,,7,,,67,127
14717,note_on,0,0,0,,12,,,71,127
14844,note_off,127,0,0,,12,,,71,127
14844,note_off,0,0,0,,7,,,67,127
14845,note_on,1,0,0,,4,,,64,127
14845,note_on,0,0,0,,4,,,76,127
14972,note_off,127,0,0,,4,,,64,127
14973,note_on,1,0,0,,6,,,66,127
14973,note_on,0,0,0,,10,,,69,127
15005,note_off,32,0,0,,4,,,76,127
15100,note_off,95,0,0,,10,,,69,127
15100,note_off,0,0,0,,6,,,66,127
15101,note_on,1,0,0,,4,,,64,127
15101,note_on,0,0,0,,6,,,78,127
15228,note_off,127,0,0,,4,,,64,127
15229,note_on,1,0,0,,3,,,63,127
15229,note_on,0,0,0,,12,,,71,127
15314,note_off,85,0,0,,6,,,78,127
15355,note_off,41,0,0,,12,,,71,127
15355,note_off,0,0,0,,3,,,63,127
15356,note_on,1,0,0,,12,,,59,127
15356,note_on,0,0,0,,10,,,81,127
15471,note_off,115,0,0,,10,,,81,127
15483,note_off,12,0,0,,12,,,59,127
15484,note_on,1,0,0,,4,,,64,127
15484,note_on,0,0,0,,4,,,52,127
15484,note_on,0,0,0,,7,,,79,127
15611,note_off,127,0,0,,7,,,79,127
15612,note_on,1,0,0,,12,,,83,127
15739,note_off,127,0,0,,12,,,83,127
15739,note_off,0,0,0,,4,,,52,127
15739,note_off,0,0,0,,4,,,64,127
15740,note_on,1,0,0,,6,,,54,127
15740,note_on,0,0,0,,10,,,81,127
15740,note_on,0,0,0,,7,,,79,127
15867,note_off,127,0,0,,7,,,79,127
15867,note_off,0,0,0,,10,,,81,127
15868,note_on,1,0,0,,6,,,78,127
15995,note_off,127,0,0,,6,,,78,127
15995,note_off,0,0,0,,6,,,54,127
15996,note_on,1,0,0,,7,,,55,127
15996,note_on,0,0,0,,4,,,76,127
16123,note_off,127,0,0,,4,,,76,127
16124,note_on,1,0,0,,2,,,74,127
16244,note_off,120,0,0,,2,,,74,127
16251,note_off,7,0,0,,7,,,55,127
16252,note_on,1,0,0,,10,,,57,127
16252,note_on,0,0,0,,0,,,72,127
16380,note_on,128,0,0,,0,,,84,127
16505,note_off,125,0,0,,0,,,72,127
16506,note_off,1,0,0,,0,,,84,127
16506,note_off,0,0,0,,10,,,57,127
16507,note_on,1,0,0,,12,,,59,127
16507,note_on,0,0,0,,10,,,81,127
16507,note_on,0,0,0,,12,,,83,127
16634,note_off,127,0,0,,12,,,83,127
16634,note_off,0,0,0,,10,,,81,127
16635,note_on,1,0,0,,7,,,79,127
16762,note_off,127,0,0,,7,,,79,127
16762,note_off,0,0,0,,12,,,59,127
16763,note_on,1,0,0,,0,,,60,127
16763,note_on,0,0,0,,6,,,78,127
16890,note_off,127,0,0,,6,,,78,127
16891,note_on,1,0,0,,4,,,76,127
17018,note_off,127,0,0,,4,,,76,127
17018,note_off,0,0,0,,0,,,60,127
17019,note_on,1,0,0,,10,,,69,127
17019,note_on,0,0,0,,12,,,59,127
17019,note_on,0,0,0,,3,,,75,127
17146,note_off,127,0,0,,10,,,69,127
17147,note_on,1,0,0,,6,,,66,127
17274,note_off,127,0,0,,6,,,66,127
17274,note_off,0,0,0,,3,,,75,127
17275,note_on,1,0,0,,7,,,67,127
17275,note_on,0,0,0,,12,,,83,127
17275,note_on,0,0,0,,12,,,71,127
17402,note_off,127,0,0,,7,,,67,127
17403,note_on,1,0,0,,4,,,64,127
17530,note_off,127,0,0,,4,,,64,127
17530,note_off,0,0,0,,12,,,71,127
17530,note_off,0,0,0,,12,,,83,127
17531,note_on,1,0,0,,6,,,66,127
17531,note_on,0,0,0,,12,,,71,127
17531,note_on,0,0,0,,12,,,83,127
17658,note_off,127,0,0,,6,,,66,127
17659,note_on,1,0,0,,3,,,63,127
17786,note_off,127,0,0,,3,,,63,127
17786,note_off,0,0,0,,12,,,59,127
17787,note_on,1,0,0,,10,,,69,127
17787,note_on,0,0,0,,12,,,59,127
17914,note_off,127,0,0,,10,,,69,127
17915,note_on,1,0,0,,6,,,66,127
18042,note_off,127,0,0,,6,,,66,127
18042,note_off,0,0,0,,12,,,83,127
18042,note_off,0,0,0,,12,,,71,127
18043,note_on,1,0,0,,7,,,67,127
18043,note_on,0,0,0,,12,,,71,127
18043,note_on,0,0,0,,12,,,83,127
18170,note_off,127,0,0,,7,,,67,127
18171,note_on,1,0,0,,4,,,64,127
18298,note_off,127,0,0,,4,,,64,127
18298,note_off,0,0,0,,12,,,83,127
18298,note_off,0,0,0,,12,,,71,127
18299,note_on,1,0,0,,6,,,66,127
18299,note_on,0,0,0,,12,,,71,127
18299,note_on,0,0,0,,12,,,83,127
18426,note_off,127,0,0,,6,,,66,127
18427,note_on,1,0,0,,3,,,63,127
18552,note_off,125,0,0,,12,,,83,127
18552,note_off,0,0,0,,12,,,71,127
18553,note_off,1,0,0,,3,,,63,127
18553,note_off,0,0,0,,12,,,59,127
18554,note_on,1,0,0,,12,,,35,127
18682,note_on,128,0,0,,10,,,81,127
18809,note_off,127,0,0,,10,,,81,127
18810,note_on,1,0,0,,12,,,71,127
18937,note_off,127,0,0,,12,,,71,127
18938,note_on,1,0,0,,6,,,78,127
19065,note_off,127,0,0,,6,,,78,127
19065,note_off,0,0,0,,12,,,35,127
19066,note_on,1,0,0,,4,,,40,127
19066,note_on,0,0,0,,7,,,79,127
19193,note_off,127,0,0,,7,,,79,127
19194,note_on,1,0,0,,4,,,76,127
19321,note_off,127,0,0,,4,,,76,127
19321,note_off,0,0,0,,4,,,40,127
19322,note_on,1,0,0,,10,,,45,127
19322,note_on,0,0,0,,6,,,78,127
19449,note_off,127,0,0,,6,,,78,127
19450,note_on,1,0,0,,10,,,81,127
19577,note_off,127,0,0,,10,,,81,127
19577,note_off,0,0,0,,10,,,45,127
19578,note_on,1,0,0,,12,,,47,127
19578,note_on,0,0,0,,7,,,79,127
19705,note_off,127,0,0,,7,,,79,127
19706,note_on,1,0,0,,6,,,78,127
19833,note_off,127,0,0,,6,,,78,127
19834,note_on,1,0,0,,12,,,35,127
19834,note_on,0,0,0,,4,,,76,127
19951,note_off,117,0,0,,12,,,47,127
19960,note_off,9,0,0,,4,,,76,127
19961,note_on,1,0,0,,3,,,75,127
20088,note_off,127,0,0,,3,,,75,127
20088,note_off,0,0,0,,12,,,35,127
20089,note_on,1,0,0,,4,,,52,127
20089,note_on,0,0,0,,4,,,76,127
20216,note_off,127,0,0,,4,,,76,127
20217,note_on,1,0,0,,12,,,83,127
20344,note_off,127,0,0,,12,,,83,127
20344,note_off,0,0,0,,4,,,52,127
20345,note_on,1,0,0,,6,,,54,127
20345,note_on,0,0,0,,7,,,79,127
20472,note_off,127,0,0,,7,,,79,127
20473,note_on,1,0,0,,6,,,78,127
20600,note_off,127,0,0,,6,,,78,127
20600,note_off,0,0,0,,6,,,54,127
20601,note_on,1,0,0,,7,,,55,127
20601,note_on,0,0,0,,4,,,76,127
20728,note_off,127,0,0,,4,,,76,127
20729,note_on,1,0,0,,2,,,74,127
20856,note_off,127,0,0,,2,,,74,127
20856,note_off,0,0,0,,7,,,55,127
20857,note_on,1,0,0,,10,,,57,127
20857,note_on,0,0,0,,0,,,72,127
20984,note_off,127,0,0,,0,,,72,127
20985,note_on,1,0,0,,0,,,84,127
21112,note_off,127,0,0,,0,,,84,127
21112,note_off,0,0,0,,10,,,57,127
21113,note_on,1,0,0,,12,,,59,127
21113,note_on,0,0,0,,10,,,81,127
21240,note_off,127,0,0,,10,,,81,127
21241,note_on,1,0,0,,7,,,79,127
21368,note_off,127,0,0,,7,,,79,127
21368,note_off,0,0,0,,12,,,59,127
21369,note_on,1,0,0,,0,,,60,127
21369,note_on,0,0,0,,6,,,78,127
21496,note_off,127,0,0,,6,,,78,127
21497,note_on,1,0,0,,4,,,76,127
21624,note_off,127,0,0,,4,,,76,127
21624,note_off,0,0,0,,0,,,60,127
21625,note_on,1,0,0,,10,,,69,127
21625,note_on,0,0,0,,12,,,59,127
21625,note_on,0,0,0,,3,,,75,127
21752,note_off,127,0,0,,10,,,69,127
21753,note_on,1,0,0,,6,,,66,127
21880,note_off,127,0,0,,6,,,66,127
21880,note_off,0,0,0,,3,,,75,127
21881,note_on,1,0,0,,7,,,67,127
21881,note_on,0,0,0,,12,,,71,127
21881,note_on,0,0,0,,12,,,83,127
22008,note_off,127,0,0,,7,,,67,127
22009,note_on,1,0,0,,4,,,64,127
22136,note_off,127,0,0,,4,,,64,127
22136,note_off,0,0,0,,12,,,83,127
22136,note_off,0,0,0,,12,,,71,127
22137,note_on,1,0,0,,6,,,66,127
22137,note_on,0,0,0,,12,,,71,127
22137,note_on,0,0,0,,12,,,83,127
22264,note_off,127,0,0,,6,,,66,127
22265,note_on,1,0,0,,3,,,63,127
22392,note_off,127,0,0,,3,,,63,127
22392,note_off,0,0,0,,12,,,59,127
22393,note_on,1,0,0,,10,,,69,127
22393,note_on,0,0,0,,12,,,59,127
22520,note_off,127,0,0,,10,,,69,127
22521,note_on,1,0,0,,6,,,66,127
22648,note_off,127,0,0,,6,,,66,127
22648,note_off,0,0,0,,12,,,83,127
22648,note_off,0,0,0,,12,,,71,127
22649,note_on,1,0,0,,7,,,67,127
22649,note_on,0,0,0,,12,,,71,127
22649,note_on,0,0,0,,12,,,83,127
22776,note_off,127,0,0,,7,,,67,127
22777,note_on,1,0,0,,4,,,64,127
22904,note_off,127,0,0,,4,,,64,127
22904,note_off,0,0,0,,12,,,83,127
22904,note_off,0,0,0,,12,,,71,127
22905,note_on,1,0,0,,6,,,66,127
22905,note_on,0,0,0,,12,,,83,127
22905,note_on,0,0,0,,12,,,71,127
23032,note_off,127,0,0,,6,,,66,127
23033,note_on,1,0,0,,3,,,63,127
23158,note_off,125,0,0,,12,,,71,127
23158,note_off,0,0,0,,12,,,83,127
23159,note_off,1,0,0,,3,,,63,127
23159,note_off,0,0,0,,12,,,59,127
23160,note_on,1,0,0,,12,,,35,127
23288,note_on,128,0,0,,10,,,81,127
23415,note_off,127,0,0,,10,,,81,127
23416,note_on,1,0,0,,12,,,71,127
23543,note_off,127,0,0,,12,,,71,127
23544,note_on,1,0,0,,6,,,78,127
23671,note_off,127,0,0,,6,,,78,127
23671,note_off,0,0,0,,12,,,35,127
23672,note_on,1,0,0,,4,,,40,127
23672,note_on,0,0,0,,7,,,79,127
23799,note_off,127,0,0,,7,,,79,127
23800,note_on,1,0,0,,4,,,76,127
23927,note_off,127,0,0,,4,,,76,127
23927,note_off,0,0,0,,4,,,40,127
23928,note_on,1,0,0,,10,,,45,127
23928,note_on,0,0,0,,6,,,78,127
24055,note_off,127,0,0,,6,,,78,127
24056,note_on,1,0,0,,10,,,81,127
24183,note_off,127,0,0,,10,,,81,127
24183,note_off,0,0,0,,10,,,45,127
24184,note_on,1,0,0,,12,,,47,127
24184,note_on,0,0,0,,7,,,79,127
24311,note_off,127,0,0,,7,,,79,127
24312,note_on,1,0,0,,6,,,78,127
24439,note_off,127,0,0,,6,,,78,127
24439,note_off,0,0,0,,12,,,47,127
24440,note_on,1,0,0,,12,,,35,127
24440,note_on,0,0,0,,4,,,76,127
24567,note_off,127,0,0,,4,,,76,127
24568,note_on,1,0,0,,3,,,75,127
24695,note_off,127,0,0,,3,,,75,127
24695,note_off,0,0,0,,12,,,35,127
24696,note_on,1,0,0,,4,,,40,127
24696,note_on,0,0,0,,4,,,76,127
24823,note_off,127,0,0,,4,,,76,127
24824,note_on,1,0,0,,12,,,83,127
24951,note_off,127,0,0,,12,,,83,127
24952,note_on,1,0,0,,8,,,80,127
25079,note_off,127,0,0,,8,,,80,127
25080,note_on,1,0,0,,5,,,77,127
25176,note_off,96,0,0,,4,,,40,127
25207,note_off,31,0,0,,5,,,77,127
25208,note_on,1,0,0,,4,,,52,127
25208,note_on,0,0,0,,2,,,74,127
25335,note_off,127,0,0,,2,,,74,127
25336,note_on,1,0,0,,12,,,71,127
25463,note_off,127,0,0,,12,,,71,127
25463,note_off,0,0,0,,4,,,52,127
25464,note_on,1,0,0,,10,,,45,127
25464,note_on,0,0,0,,0,,,72,127
25591,note_off,127,0,0,,0,,,72,127
25592,note_on,1,0,0,,4,,,76,127
25719,note_off,127,0,0,,4,,,76,127
25720,note_on,1,0,0,,3,,,75,127
25847,note_off,127,0,0,,3,,,75,127
25848,note_on,1,0,0,,0,,,72,127
25944,note_off,96,0,0,,10,,,45,127
25975,note_off,31,0,0,,0,,,72,127
25976,note_on,1,0,0,,12,,,47,127
25976,note_on,0,0,0,,10,,,69,127
26103,note_off,127,0,0,,10,,,69,127
26104,note_on,1,0,0,,6,,,66,127
26231,note_off,127,0,0,,6,,,66,127
26231,note_off,0,0,0,,12,,,47,127
26232,note_on,1,0,0,,4,,,40,127
26232,note_on,0,0,0,,7,,,67,127
26359,note_off,127,0,0,,7,,,67,127
26360,note_on,1,0,0,,12,,,71,127
26487,note_off,127,0,0,,12,,,71,127
26488,note_on,1,0,0,,7,,,67,127
26615,note_off,127,0,0,,7,,,67,127
26616,note_on,1,0,0,,4,,,64,127
26712,note_off,96,0,0,,4,,,40,127
26743,note_off,31,0,0,,4,,,64,127
26744,note_on,1,0,0,,7,,,43,127
26744,note_on,0,0,0,,12,,,59,127
26871,note_off,127,0,0,,12,,,59,127
26872,note_on,1,0,0,,2,,,62,127
26999,note_off,127,0,0,,2,,,62,127
26999,note_off,0,0,0,,7,,,43,127
27000,note_on,1,0,0,,10,,,45,127
27000,note_on,0,0,0,,0,,,60,127
27127,note_off,127,0,0,,0,,,60,127
27128,note_on,1,0,0,,10,,,69,127
27255,note_off,127,0,0,,10,,,69,127
27255,note_off,0,0,0,,10,,,45,127
27256,note_on,1,0,0,,12,,,47,127
27256,note_on,0,0,0,,7,,,67,127
27383,note_off,127,0,0,,7,,,67,127
27384,note_on,1,0,0,,4,,,64,127
27511,note_off,127,0,0,,4,,,64,127
27512,note_on,1,0,0,,12,,,35,127
27512,note_on,0,0,0,,6,,,66,127
27639,note_off,127,0,0,,6,,,66,127
27640,note_on,1,0,0,,3,,,63,127
27763,note_off,123,0,0,,12,,,47,127
27767,note_off,4,0,0,,3,,,63,127
27767,note_off,0,0,0,,12,,,35,127
27768,note_on,1,0,0,,4,,,40,127
27768,note_on,0,0,0,,4,,,64,127
27895,note_off,127,0,0,,4,,,64,127
27896,note_on,1,0,0,,10,,,69,127
28023,note_off,127,0,0,,10,,,69,127
28024,note_on,1,0,0,,8,,,68,127
28151,note_off,127,0,0,,8,,,68,127
28152,note_on,1,0,0,,0,,,72,127
28279,note_off,127,0,0,,0,,,72,127
28280,note_on,1,0,0,,12,,,71,127
28407,note_off,127,0,0,,12,,,71,127
28408,note_on,1,0,0,,4,,,76,127
28535,note_off,127,0,0,,4,,,76,127
28535,note_off,0,0,0,,4,,,40,127
28536,note_on,1,0,0,,4,,,40,127
28536,note_on,0,0,0,,2,,,74,127
28663,note_off,127,0,0,,4,,,40,127
28664,note_on,1,0,0,,8,,,44,127
28791,note_off,127,0,0,,8,,,44,127
28791,note_off,0,0,0,,2,,,74,127
28792,note_on,1,0,0,,12,,,47,127
28792,note_on,0,0,0,,2,,,74,127
28919,note_off,127,0,0,,12,,,47,127
28920,note_on,1,0,0,,4,,,52,127
29047,note_off,127,0,0,,4,,,52,127
29047,note_off,0,0,0,,2,,,74,127
29048,note_on,1,0,0,,8,,,56,127
29048,note_on,0,0,0,,2,,,74,127
29175,note_off,127,0,0,,8,,,56,127
29176,note_on,1,0,0,,12,,,59,127
29303,note_off,127,0,0,,12,,,59,127
29303,note_off,0,0,0,,2,,,74,127
29304,note_on,1,0,0,,10,,,45,127
29304,note_on,0,0,0,,7,,,67,127
29431,note_off,127,0,0,,7,,,67,127
29432,note_on,1,0,0,,2,,,74,127
29559,note_off,127,0,0,,2,,,74,127
29559,note_off,0,0,0,,10,,,45,127
29560,note_on,1,0,0,,10,,,45,127
29560,note_on,0,0,0,,1,,,73,127
29687,note_off,127,0,0,,1,,,73,127
29688,note_on,1,0,0,,5,,,77,127
29815,note_off,127,0,0,,5,,,77,127
29815,note_off,0,0,0,,10,,,45,127
29816,note_on,1,0,0,,10,,,45,127
29816,note_on,0,0,0,,4,,,76,127
29943,note_off,127,0,0,,4,,,76,127
29944,note_on,1,0,0,,10,,,81,127
30071,note_off,127,0,0,,10,,,81,127
30071,note_off,0,0,0,,10,,,45,127
30072,note_on,1,0,0,,10,,,45,127
30072,note_on,0,0,0,,7,,,79,127
30199,note_off,127,0,0,,10,,,45,127
30200,note_on,1,0,0,,1,,,49,127
30327,note_off,127,0,0,,1,,,49,127
30327,note_off,0,0,0,,7,,,79,127
30328,note_on,1,0,0,,4,,,52,127
30328,note_on,0,0,0,,7,,,79,127
30455,note_off,127,0,0,,4,,,52,127
30456,note_on,1,0,0,,10,,,57,127
30583,note_off,127,0,0,,10,,,57,127
30583,note_off,0,0,0,,7,,,79,127
30584,note_on,1,0,0,,1,,,61,127
30584,note_on,0,0,0,,7,,,79,127
30711,note_off,127,0,0,,1,,,61,127
30712,note_on,1,0,0,,4,,,64,127
30839,note_off,127,0,0,,4,,,64,127
30839,note_off,0,0,0,,7,,,79,127
30840,note_on,1,0,0,,2,,,62,127
30840,note_on,0,0,0,,5,,,77,127
30967,note_off,127,0,0,,5,,,77,127
30968,note_on,1,0,0,,2,,,86,127
31095,note_off,127,0,0,,2,,,86,127
31096,note_on,1,0,0,,2,,,50,127
31096,note_on,0,0,0,,10,,,81,127
31223,note_off,127,0,0,,10,,,81,127
31224,note_on,1,0,0,,5,,,77,127
31347,note_off,123,0,0,,2,,,62,127
31351,note_off,4,0,0,,5,,,77,127
31352,note_on,1,0,0,,2,,,74,127
31469,note_off,117,0,0,,2,,,50,127
31478,note_off,9,0,0,,2,,,74,127
31479,note_on,1,0,0,,10,,,69,127
31606,note_off,127,0,0,,10,,,69,127
31607,note_on,1,0,0,,7,,,55,127
31607,note_on,0,0,0,,5,,,65,127
31607,note_on,0,0,0,,12,,,71,127
31734,note_off,127,0,0,,5,,,65,127
31735,note_on,1,0,0,,2,,,62,127
31862,note_off,127,0,0,,2,,,62,127
31862,note_off,0,0,0,,12,,,71,127
31863,note_on,1,0,0,,4,,,64,127
31863,note_on,0,0,0,,7,,,79,127
31863,note_on,0,0,0,,7,,,67,127
31990,note_off,127,0,0,,4,,,64,127
31991,note_on,1,0,0,,0,,,60,127
32118,note_off,127,0,0,,0,,,60,127
32118,note_off,0,0,0,,7,,,67,127
32118,note_off,0,0,0,,7,,,79,127
32119,note_on,1,0,0,,2,,,62,127
32119,note_on,0,0,0,,7,,,67,127
32119,note_on,0,0,0,,7,,,79,127
32246,note_off,127,0,0,,2,,,62,127
32247,note_on,1,0,0,,12,,,59,127
32374,note_off,127,0,0,,12,,,59,127
32374,note_off,0,0,0,,7,,,55,127
32375,note_on,1,0,0,,7,,,55,127
32375,note_on,0,0,0,,5,,,65,127
32502,note_off,127,0,0,,5,,,65,127
32503,note_on,1,0,0,,2,,,62,127
32630,note_off,127,0,0,,2,,,62,127
32630,note_off,0,0,0,,7,,,79,127
32630,note_off,0,0,0,,7,,,67,127
32631,note_on,1,0,0,,4,,,64,127
32631,note_on,0,0,0,,7,,,79,127
32631,note_on,0,0,0,,7,,,67,127
32758,note_off,127,0,0,,4,,,64,127
32759,note_on,1,0,0,,0,,,60,127
32886,note_off,127,0,0,,0,,,60,127
32886,note_off,0,0,0,,7,,,67,127
32886,note_off,0,0,0,,7,,,79,127
32887,note_on,1,0,0,,2,,,62,127
32887,note_on,0,0,0,,7,,,79,127
32887,note_on,0,0,0,,7,,,67,127
33014,note_off,127,0,0,,2,,,62,127
33015,note_on,1,0,0,,12,,,59,127
33140,note_off,125,0,0,,7,,,67,127
33140,note_off,0,0,0,,7,,,79,127
33141,note_off,1,0,0,,12,,,59,127
33141,note_off,0,0,0,,7,,,55,127
33142,note_on,1,0,0,,7,,,31,127
33270,note_on,128,0,0,,7,,,67,127
33397,note_off,127,0,0,,7,,,67,127
33398,note_on,1,0,0,,7,,,79,127
33525,note_off,127,0,0,,7,,,79,127
33526,note_on,1,0,0,,5,,,77,127
33653,note_off,127,0,0,,5,,,77,127
33654,note_on,1,0,0,,4,,,76,127
33781,note_off,127,0,0,,4,,,76,127
33782,note_on,1,0,0,,2,,,74,127
33862,note_off,80,0,0,,7,,,31,127
33909,note_off,47,0,0,,2,,,74,127
33910,note_on,1,0,0,,0,,,36,127
33910,note_on,0,0,0,,4,,,76,127
33910,note_on,0,0,0,,0,,,72,127
34037,note_off,127,0,0,,0,,,72,127
34037,note_off,0,0,0,,4,,,76,127
34038,note_on,1,0,0,,5,,,77,127
34038,note_on,0,0,0,,2,,,74,127
34165,note_off,127,0,0,,2,,,74,127
34165,note_off,0,0,0,,5,,,77,127
34166,note_on,1,0,0,,7,,,79,127
34166,note_on,0,0,0,,4,,,76,127
34293,note_off,127,0,0,,4,,,76,127
34293,note_off,0,0,0,,7,,,79,127
34294,note_on,1,0,0,,10,,,81,127
34294,note_on,0,0,0,,5,,,77,127
34421,note_off,127,0,0,,5,,,77,127
34421,note_off,0,0,0,,10,,,81,127
34422,note_on,1,0,0,,7,,,79,127
34422,note_on,0,0,0,,11,,,82,127
34549,note_off,127,0,0,,11,,,82,127
34549,note_off,0,0,0,,7,,,79,127
34550,note_off,1,0,0,,0,,,36,127
34550,note_on,0,0,0,,10,,,81,127
34550,note_on,0,0,0,,5,,,77,127
34677,note_off,127,0,0,,5,,,77,127
34677,note_off,0,0,0,,10,,,81,127
34678,note_on,1,0,0,,7,,,43,127
34678,note_on,0,0,0,,7,,,79,127
34678,note_on,0,0,0,,11,,,82,127
34805,note_off,127,0,0,,11,,,82,127
34805,note_off,0,0,0,,7,,,79,127
34806,note_on,1,0,0,,10,,,81,127
34806,note_on,0,0,0,,5,,,77,127
34933,note_off,127,0,0,,5,,,77,127
34933,note_off,0,0,0,,10,,,81,127
34934,note_on,1,0,0,,4,,,76,127
34934,note_on,0,0,0,,7,,,79,127
35061,note_off,127,0,0,,7,,,79,127
35061,note_off,0,0,0,,4,,,76,127
35062,note_on,1,0,0,,5,,,77,127
35062,note_on,0,0,0,,2,,,74,127
35189,note_off,127,0,0,,2,,,74,127
35189,note_off,0,0,0,,5,,,77,127
35190,note_on,1,0,0,,4,,,76,127
35190,note_on,0,0,0,,1,,,73,127
35291,note_off,101,0,0,,7,,,43,127
35316,note_off,25,0,0,,1,,,73,127
35316,note_off,0,0,0,,4,,,76,127
35317,note_on,1,0,0,,5,,,77,127
35317,note_on,0,0,0,,2,,,74,127
35444,note_off,127,0,0,,2,,,74,127
35444,note_off,0,0,0,,5,,,77,127
35445,note_on,1,0,0,,10,,,57,127
35445,note_on,0,0,0,,7,,,67,127
35445,note_on,0,0,0,,1,,,73,127
35445,note_on,0,0,0,,4,,,76,127
35572,note_off,127,0,0,,7,,,67,127
35573,note_on,1,0,0,,4,,,64,127
35700,note_off,127,0,0,,4,,,64,127
35700,note_off,0,0,0,,4,,,76,127
35700,note_off,0,0,0,,1,,,73,127
35701,note_on,1,0,0,,5,,,65,127
35701,note_on,0,0,0,,10,,,69,127
35701,note_on,0,0,0,,10,,,81,127
35828,note_off,127,0,0,,5,,,65,127
35829,note_on,1,0,0,,2,,,62,127
35956,note_off,127,0,0,,2,,,62,127
35956,note_off,0,0,0,,10,,,81,127
35956,note_off,0,0,0,,10,,,69,127
35957,note_on,1,0,0,,4,,,64,127
35957,note_on,0,0,0,,10,,,81,127
35957,note_on,0,0,0,,10,,,69,127
36084,note_off,127,0,0,,4,,,64,127
36085,note_on,1,0,0,,1,,,61,127
36212,note_off,127,0,0,,1,,,61,127
36212,note_off,0,0,0,,10,,,57,127
36213,note_on,1,0,0,,7,,,67,127
36213,note_on,0,0,0,,10,,,57,127
36340,note_off,127,0,0,,7,,,67,127
36341,note_on,1,0,0,,4,,,64,127
36468,note_off,127,0,0,,4,,,64,127
36468,note_off,0,0,0,,10,,,69,127
36468,note_off,0,0,0,,10,,,81,127
36469,note_on,1,0,0,,5,,,65,127
36469,note_on,0,0,0,,10,,,81,127
36469,note_on,0,0,0,,10,,,69,127
36596,note_off,127,0,0,,5,,,65,127
36597,note_on,1,0,0,,2,,,62,127
36724,note_off,127,0,0,,2,,,62,127
36724,note_off,0,0,0,,10,,,69,127
36724,note_off,0,0,0,,10,,,81,127
36725,note_on,1,0,0,,4,,,64,127
36725,note_on,0,0,0,,10,,,81,127
36725,note_on,0,0,0,,10,,,69,127
36852,note_off,127,0,0,,4,,,64,127
36853,note_on,1,0,0,,1,,,61,127
36978,note_off,125,0,0,,10,,,69,127
36978,note_off,0,0,0,,10,,,81,127
36979,note_off,1,0,0,,1,,,61,127
36979,note_off,0,0,0,,10,,,57,127
36980,note_on,1,0,0,,10,,,33,127
37108,note_on,128,0,0,,10,,,69,127
37235,note_off,127,0,0,,10,,,69,127
37236,note_on,1,0,0,,10,,,81,127
37363,note_off,127,0,0,,10,,,81,127
37364,note_on,1,0,0,,7,,,79,127
37491,note_off,127,0,0,,7,,,79,127
37492,note_on,1,0,0,,5,,,77,127
37619,note_off,127,0,0,,5,,,77,127
37620,note_on,1,0,0,,4,,,76,127
37700,note_off,80,0,0,,10,,,33,127
37747,note_off,47,0,0,,4,,,76,127
37748,note_on,1,0,0,,2,,,38,127
37748,note_on,0,0,0,,5,,,77,127
37875,note_off,127,0,0,,5,,,77,127
37876,note_on,1,0,0,,2,,,74,127
38003,note_off,127,0,0,,2,,,74,127
38004,note_on,1,0,0,,5,,,77,127
38004,note_on,0,0,0,,2,,,86,127
38131,note_off,127,0,0,,2,,,86,127
38131,note_off,0,0,0,,5,,,77,127
38132,note_on,1,0,0,,0,,,84,127
38132,note_on,0,0,0,,4,,,76,127
38259,note_off,127,0,0,,4,,,76,127
38259,note_off,0,0,0,,0,,,84,127
38260,note_on,1,0,0,,12,,,83,127
38260,note_on,0,0,0,,2,,,74,127
38387,note_off,127,0,0,,2,,,74,127
38387,note_off,0,0,0,,12,,,83,127
38388,note_off,1,0,0,,2,,,38,127
38388,note_on,0,0,0,,10,,,81,127
38388,note_on,0,0,0,,0,,,72,127
38515,note_off,127,0,0,,0,,,72,127
38515,note_off,0,0,0,,10,,,81,127
38516,note_on,1,0,0,,4,,,40,127
38516,note_on,0,0,0,,12,,,71,127
38516,note_on,0,0,0,,8,,,80,127
38643,note_off,127,0,0,,8,,,80,127
38643,note_off,0,0,0,,12,,,71,127
38644,note_on,1,0,0,,5,,,77,127
38644,note_on,0,0,0,,10,,,69,127
38771,note_off,127,0,0,,10,,,69,127
38771,note_off,0,0,0,,5,,,77,127
38772,note_on,1,0,0,,4,,,76,127
38772,note_on,0,0,0,,8,,,68,127
38899,note_off,127,0,0,,8,,,68,127
38899,note_off,0,0,0,,4,,,76,127
38900,note_on,1,0,0,,5,,,65,127
38900,note_on,0,0,0,,2,,,74,127
39027,note_off,127,0,0,,2,,,74,127
39027,note_off,0,0,0,,5,,,65,127
39028,note_on,1,0,0,,4,,,64,127
39028,note_on,0,0,0,,0,,,72,127
39155,note_off,127,0,0,,0,,,72,127
39155,note_off,0,0,0,,4,,,64,127
39156,note_off,1,0,0,,4,,,40,127
39156,note_on,0,0,0,,12,,,71,127
39156,note_on,0,0,0,,2,,,62,127
39283,note_off,127,0,0,,2,,,62,127
39283,note_off,0,0,0,,12,,,71,127
39284,note_on,1,0,0,,5,,,41,127
39284,note_on,0,0,0,,10,,,69,127
39284,note_on,0,0,0,,0,,,60,127
39411,note_off,127,0,0,,0,,,60,127
39411,note_off,0,0,0,,10,,,69,127
39412,note_on,1,0,0,,8,,,68,127
39412,note_on,0,0,0,,12,,,59,127
39539,note_off,127,0,0,,12,,,59,127
39539,note_off,0,0,0,,8,,,68,127
39540,note_on,1,0,0,,10,,,69,127
39540,note_on,0,0,0,,0,,,60,127
39657,note_off,117,0,0,,5,,,41,127
39666,note_off,9,0,0,,0,,,60,127
39666,note_off,0,0,0,,10,,,69,127
39667,note_on,1,0,0,,12,,,71,127
39667,note_on,0,0,0,,2,,,62,127
39794,note_off,127,0,0,,2,,,62,127
39794,note_off,0,0,0,,12,,,71,127
39795,note_on,1,0,0,,0,,,72,127
39795,note_on,0,0,0,,4,,,64,127
39922,note_off,127,0,0,,4,,,64,127
39922,note_off,0,0,0,,0,,,72,127
39923,note_on,1,0,0,,2,,,74,127
39923,note_on,0,0,0,,5,,,65,127
40030,note_off,107,0,0,,5,,,65,127
40030,note_off,0,0,0,,2,,,74,127
40051,note_on,21,0,0,,2,,,62,127
40051,note_on,0,0,0,,4,,,52,127
40178,note_off,127,0,0,,2,,,62,127
40179,note_on,1,0,0,,12,,,59,127
40306,note_off,127,0,0,,12,,,59,127
40307,note_on,1,0,0,,0,,,60,127
40307,note_on,0,0,0,,4,,,76,127
40307,note_on,0,0,0,,4,,,64,127
40434,note_off,127,0,0,,0,,,60,127
40435,note_on,1,0,0,,10,,,57,127
40562,note_off,127,0,0,,10,,,57,127
40562,note_off,0,0,0,,4,,,64,127
40562,note_off,0,0,0,,4,,,76,127
40563,note_on,1,0,0,,12,,,59,127
40563,note_on,0,0,0,,4,,,76,127
40563,note_on,0,0,0,,4,,,64,127
40690,note_off,127,0,0,,12,,,59,127
40691,note_on,1,0,0,,8,,,56,127
40818,note_off,127,0,0,,8,,,56,127
40818,note_off,0,0,0,,4,,,52,127
40819,note_on,1,0,0,,2,,,62,127
40819,note_on,0,0,0,,4,,,52,127
40946,note_off,127,0,0,,2,,,62,127
40947,note_on,1,0,0,,12,,,59,127
41074,note_off,127,0,0,,12,,,59,127
41074,note_off,0,0,0,,4,,,64,127
41074,note_off,0,0,0,,4,,,76,127
41075,note_on,1,0,0,,0,,,60,127
41075,note_on,0,0,0,,4,,,76,127
41075,note_on,0,0,0,,4,,,64,127
41202,note_off,127,0,0,,0,,,60,127
41203,note_on,1,0,0,,10,,,57,127
41330,note_off,127,0,0,,10,,,57,127
41330,note_off,0,0,0,,4,,,64,127
41330,note_off,0,0,0,,4,,,76,127
41331,note_on,1,0,0,,12,,,59,127
41331,note_on,0,0,0,,4,,,76,127
41331,note_on,0,0,0,,4,,,64,127
41458,note_off,127,0,0,,12,,,59,127
41459,note_on,1,0,0,,8,,,56,127
41584,note_off,125,0,0,,4,,,64,127
41585,note_off,1,0,0,,8,,,56,127
41585,note_off,0,0,0,,4,,,52,127
41586,note_on,1,0,0,,4,,,40,127
41713,note_off,127,0,0,,4,,,76,127
41714,note_on,1,0,0,,4,,,76,127
41841,note_off,127,0,0,,4,,,76,127
41842,note_on,1,0,0,,2,,,74,127
41969,note_off,127,0,0,,2,,,74,127
41970,note_on,1,0,0,,12,,,71,127
42097,note_off,127,0,0,,12,,,71,127
42097,note_off,0,0,0,,4,,,40,127
42098,note_on,1,0,0,,10,,,45,127
42098,note_on,0,0,0,,0,,,72,127
42225,note_off,127,0,0,,0,,,72,127
42226,note_on,1,0,0,,10,,,69,127
42353,note_off,127,0,0,,10,,,69,127
42353,note_off,0,0,0,,10,,,45,127
42354,note_on,1,0,0,,2,,,38,127
42354,note_on,0,0,0,,5,,,77,127
42354,note_on,0,0,0,,10,,,69,127
42481,note_off,127,0,0,,10,,,69,127
42481,note_off,0,0,0,,5,,,77,127
42482,note_on,1,0,0,,4,,,76,127
42482,note_on,0,0,0,,7,,,67,127
42609,note_off,127,0,0,,7,,,67,127
42609,note_off,0,0,0,,4,,,76,127
42610,note_on,1,0,0,,2,,,74,127
42610,note_on,0,0,0,,5,,,65,127
42737,note_off,127,0,0,,5,,,65,127
42737,note_off,0,0,0,,2,,,74,127
42738,note_off,1,0,0,,2,,,38,127
42738,note_on,0,0,0,,0,,,72,127
42738,note_on,0,0,0,,4,,,64,127
42865,note_off,127,0,0,,4,,,64,127
42865,note_off,0,0,0,,0,,,72,127
42866,note_on,1,0,0,,2,,,62,127
42866,note_on,0,0,0,,12,,,71,127
42993,note_off,127,0,0,,12,,,71,127
42993,note_off,0,0,0,,2,,,62,127
42994,note_on,1,0,0,,10,,,69,127
42994,note_on,0,0,0,,0,,,60,127
43101,note_off,107,0,0,,0,,,60,127
43101,note_off,0,0,0,,10,,,69,127
43122,note_on,21,0,0,,2,,,62,127
43122,note_on,0,0,0,,4,,,52,127
43249,note_off,127,0,0,,2,,,62,127
43250,note_on,1,0,0,,12,,,59,127
43377,note_off,127,0,0,,12,,,59,127
43378,note_on,1,0,0,,0,,,60,127
43378,note_on,0,0,0,,4,,,76,127
43378,note_on,0,0,0,,4,,,64,127
43505,note_off,127,0,0,,0,,,60,127
43506,note_on,1,0,0,,10,,,57,127
43633,note_off,127,0,0,,10,,,57,127
43633,note_off,0,0,0,,4,,,64,127
43633,note_off,0,0,0,,4,,,76,127
43634,note_on,1,0,0,,12,,,59,127
43634,note_on,0,0,0,,4,,,76,127
43634,note_on,0,0,0,,4,,,64,127
43761,note_off,127,0,0,,12,,,59,127
43762,note_on,1,0,0,,8,,,56,127
43889,note_off,127,0,0,,8,,,56,127
43889,note_off,0,0,0,,4,,,52,127
43890,note_on,1,0,0,,2,,,62,127
43890,note_on,0,0,0,,4,,,52,127
44017,note_off,127,0,0,,2,,,62,127
44018,note_on,1,0,0,,12,,,59,127
44145,note_off,127,0,0,,12,,,59,127
44145,note_off,0,0,0,,4,,,64,127
44145,note_off,0,0,0,,4,,,76,127
44146,note_on,1,0,0,,0,,,60,127
44146,note_on,0,0,0,,4,,,76,127
44146,note_on,0,0,0,,4,,,64,127
44273,note_off,127,0,0,,0,,,60,127
44274,note_on,1,0,0,,10,,,57,127
44401,note_off,127,0,0,,10,,,57,127
44401,note_off,0,0,0,,4,,,64,127
44401,note_off,0,0,0,,4,,,76,127
44402,note_on,1,0,0,,12,,,59,127
44402,note_on,0,0,0,,4,,,76,127
44402,note_on,0,0,0,,4,,,64,127
44529,note_off,127,0,0,,12,,,59,127
44530,note_on,1,0,0,,8,,,56,127
44655,note_off,125,0,0,,4,,,64,127
44656,note_off,1,0,0,,8,,,56,127
44656,note_off,0,0,0,,4,,,52,127
44657,note_on,1,0,0,,4,,,40,127
44784,note_off,127,0,0,,4,,,76,127
44785,note_on,1,0,0,,4,,,76,127
44912,note_off,127,0,0,,4,,,76,127
44913,note_on,1,0,0,,2,,,74,127
45040,note_off,127,0,0,,2,,,74,127
45041,note_on,1,0,0,,12,,,71,127
45168,note_off,127,0,0,,12,,,71,127
45168,note_off,0,0,0,,4,,,40,127
45169,note_on,1,0,0,,10,,,45,127
45169,note_on,0,0,0,,0,,,72,127
45169,note_on,0,0,0,,10,,,81,127
45296,note_off,127,0,0,,10,,,81,127
45297,note_on,1,0,0,,7,,,79,127
45424,note_off,127,0,0,,7,,,79,127
45424,note_off,0,0,0,,10,,,45,127
45425,note_on,1,0,0,,2,,,50,127
45425,note_on,0,0,0,,5,,,77,127
45550,note_off,125,0,0,,0,,,72,127
45551,note_off,1,0,0,,5,,,77,127
45552,note_on,1,0,0,,2,,,74,127
45552,note_on,0,0,0,,12,,,71,127
45679,note_off,127,0,0,,2,,,74,127
45679,note_off,0,0,0,,2,,,50,127
45680,note_on,1,0,0,,4,,,52,127
45680,note_on,0,0,0,,4,,,76,127
45805,note_off,125,0,0,,12,,,71,127
45806,note_off,1,0,0,,4,,,76,127
45807,note_on,1,0,0,,10,,,69,127
45807,note_on,0,0,0,,0,,,72,127
45934,note_off,127,0,0,,0,,,72,127
45935,note_on,1,0,0,,4,,,40,127
45935,note_on,0,0,0,,2,,,74,127
46060,note_off,125,0,0,,10,,,69,127
46061,note_off,1,0,0,,2,,,74,127
46062,note_on,1,0,0,,12,,,71,127
46062,note_on,0,0,0,,8,,,68,127
46179,note_off,117,0,0,,8,,,68,127
46179,note_off,0,0,0,,12,,,71,127
46184,note_off,5,0,0,,4,,,52,127
46188,note_off,4,0,0,,4,,,40,127
46189,note_on,1,0,0,,10,,,45,127
46317,note_on,128,0,0,,0,,,84,127
46444,note_off,127,0,0,,0,,,84,127
46445,note_on,1,0,0,,5,,,77,127
46572,note_off,127,0,0,,5,,,77,127
46573,note_on,1,0,0,,4,,,76,127
46700,note_off,127,0,0,,4,,,76,127
46700,note_off,0,0,0,,10,,,45,127
46701,note_on,1,0,0,,10,,,57,127
46701,note_on,0,0,0,,3,,,75,127
46828,note_off,127,0,0,,3,,,75,127
46829,note_on,1,0,0,,4,,,76,127
46956,note_off,127,0,0,,4,,,76,127
46956,note_off,0,0,0,,10,,,57,127
46957,note_on,1,0,0,,12,,,59,127
46957,note_on,0,0,0,,2,,,74,127
47085,note_on,128,0,0,,12,,,83,127
47212,note_off,127,0,0,,12,,,83,127
47213,note_on,1,0,0,,10,,,81,127
47340,note_off,127,0,0,,10,,,81,127
47341,note_on,1,0,0,,8,,,80,127
47464,note_off,123,0,0,,2,,,74,127
47468,note_off,4,0,0,,8,,,80,127
47468,note_off,0,0,0,,12,,,59,127
47469,note_on,1,0,0,,0,,,60,127
47469,note_on,0,0,0,,10,,,81,127
47469,note_on,0,0,0,,0,,,72,127
47596,note_off,127,0,0,,10,,,81,127
47597,note_on,1,0,0,,4,,,76,127
47724,note_off,127,0,0,,4,,,76,127
47724,note_off,0,0,0,,0,,,60,127
47725,note_on,1,0,0,,2,,,62,127
47725,note_on,0,0,0,,5,,,77,127
47850,note_off,125,0,0,,0,,,72,127
47851,note_off,1,0,0,,5,,,77,127
47852,note_on,1,0,0,,2,,,74,127
47852,note_on,0,0,0,,12,,,71,127
47979,note_off,127,0,0,,2,,,74,127
47979,note_off,0,0,0,,2,,,62,127
47980,note_on,1,0,0,,4,,,64,127
47980,note_on,0,0,0,,4,,,76,127
48105,note_off,125,0,0,,12,,,71,127
48106,note_off,1,0,0,,4,,,76,127
48107,note_on,1,0,0,,0,,,72,127
48107,note_on,0,0,0,,10,,,69,127
48234,note_off,127,0,0,,0,,,72,127
48234,note_off,0,0,0,,4,,,64,127
48235,note_on,1,0,0,,4,,,52,127
48235,note_on,0,0,0,,2,,,74,127
48360,note_off,125,0,0,,10,,,69,127
48361,note_off,1,0,0,,2,,,74,127
48362,note_on,1,0,0,,12,,,71,127
48362,note_on,0,0,0,,8,,,68,127
48471,note_off,109,0,0,,4,,,52,127
48488,note_off,17,0,0,,8,,,68,127
48488,note_off,0,0,0,,12,,,71,127
48489,note_on,1,0,0,,10,,,45,127
48617,note_on,128,0,0,,0,,,72,127
48744,note_off,127,0,0,,0,,,72,127
48745,note_on,1,0,0,,5,,,65,127
48872,note_off,127,0,0,,5,,,65,127
48873,note_on,1,0,0,,4,,,64,127
49000,note_off,127,0,0,,4,,,64,127
49000,note_off,0,0,0,,10,,,45,127
49001,note_on,1,0,0,,12,,,47,127
49001,note_on,0,0,0,,3,,,63,127
49128,note_off,127,0,0,,3,,,63,127
49129,note_on,1,0,0,,4,,,64,127
49256,note_off,127,0,0,,4,,,64,127
49256,note_off,0,0,0,,12,,,47,127
49257,note_on,1,0,0,,8,,,44,127
49257,note_on,0,0,0,,2,,,62,127
49385,note_on,128,0,0,,2,,,74,127
49512,note_off,127,0,0,,2,,,74,127
49512,note_off,0,0,0,,8,,,44,127
49513,note_on,1,0,0,,4,,,40,127
49513,note_on,0,0,0,,12,,,71,127
49640,note_off,127,0,0,,12,,,71,127
49641,note_on,1,0,0,,8,,,68,127
49764,note_off,123,0,0,,2,,,62,127
49768,note_off,4,0,0,,8,,,68,127
49768,note_off,0,0,0,,4,,,40,127
49769,note_on,1,0,0,,10,,,45,127
49769,note_on,0,0,0,,10,,,69,127
49769,note_on,0,0,0,,0,,,60,127
49896,note_off,127,0,0,,10,,,69,127
49897,note_on,1,0,0,,4,,,64,127
50022,note_off,125,0,0,,0,,,60,127
50023,note_off,1,0,0,,4,,,64,127
50023,note_off,0,0,0,,10,,,45,127
50027,note_on,4,0,0,,5,,,65,127
50027,note_on,0,0,0,,2,,,38,127
50155,note_off,128,0,0,,5,,,65,127
50159,note_on,4,0,0,,12,,,59,127
50159,note_on,0,0,0,,2,,,62,127
50286,note_off,127,0,0,,2,,,38,127
50287,note_off,1,0,0,,2,,,62,127
50290,note_on,3,0,0,,4,,,64,127
50290,note_on,0,0,0,,4,,,40,127
50417,note_off,127,0,0,,12,,,59,127
50418,note_off,1,0,0,,4,,,64,127
50422,note_on,4,0,0,,10,,,57,127
50422,note_on,0,0,0,,0,,,60,127
50549,note_off,127,0,0,,4,,,40,127
50550,note_off,1,0,0,,0,,,60,127
50554,note_on,4,0,0,,2,,,62,127
50554,note_on,0,0,0,,4,,,40,127
50679,note_off,125,0,0,,10,,,57,127
50682,note_off,3,0,0,,2,,,62,127
50686,note_on,4,0,0,,8,,,56,127
50686,note_on,0,0,0,,12,,,59,127
50813,note_off,127,0,0,,4,,,40,127
50814,note_off,1,0,0,,12,,,59,127
50814,note_off,0,0,0,,8,,,56,127
50841,note_on,27,0,0,,10,,,57,127
50841,note_on,0,0,0,,10,,,33,127
52841,note_off,2000,0,0,,10,,,33,127
52841,note_off,0,0,0,,10,,,57,127
56832,end_of_track,3991,1,0,,,,,,
