tick,type,time,meta,track,program,channel,pitch,tempo,note,velocity
0,copyright,0,1,0,,,,,,
0,program_change,0,0,0,6,0,,,,
0,pitchwheel,0,0,0,,0,0,,,
0,program_change,0,0,0,6,1,,,,
0,pitchwheel,0,0,0,,1,-590,,,
0,program_change,0,0,0,6,2,,,,
0,pitchwheel,0,0,0,,2,-272,,,
0,program_change,0,0,0,6,3,,,,
0,pitchwheel,0,0,0,,3,-353,,,
0,program_change,0,0,0,6,4,,,,
0,pitchwheel,0,0,0,,4,-560,,,
0,program_change,0,0,0,6,5,,,,
0,pitchwheel,0,0,0,,5,-80,,,
0,program_change,0,0,0,6,6,,,,
0,pitchwheel,0,0,0,,6,-625,,,
0,program_change,0,0,0,6,7,,,,
0,pitchwheel,0,0,0,,7,-130,,,
0,program_change,0,0,0,6,8,,,,
0,pitchwheel,0,0,0,,8,-512,,,
0,program_change,0,0,0,6,10,,,,
0,pitchwheel,0,0,0,,10,-464,,,
0,program_change,0,0,0,6,11,,,,
0,pitchwheel,0,0,0,,11,-208,,,
0,program_change,0,0,0,6,12,,,,
0,pitchwheel,0,0,0,,12,-553,,,
0,set_tempo,0,1,0,,,,500000,,
48,note_on,48,0,0,,10,,,45,127
347,note_on,299,0,0,,10,,,81,127
495,note_off,148,0,0,,10,,,81,127
497,note_on,2,0,0,,6,,,78,127
645,note_off,148,0,0,,6,,,78,127
647,note_on,2,0,0,,4,,,76,127
797,note_off,150,0,0,,10,,,45,127
947,note_on,150,0,0,,10,,,69,127
1245,note_off,298,0,0,,10,,,69,127
1247,note_on,2,0,0,,8,,,68,127
1545,note_off,298,0,0,,8,,,68,127
1545,note_off,0,0,0,,4,,,76,127
1547,note_on,2,0,0,,8,,,68,127
1547,note_on,0,0,0,,6,,,78,127
1695,note_off,148,0,0,,6,,,78,127
1697,note_on,2,0,0,,2,,,74,127
1845,note_off,148,0,0,,2,,,74,127
1845,note_off,0,0,0,,8,,,68,127
1847,note_on,2,0,0,,4,,,64,127
1847,note_on,0,0,0,,1,,,73,127
2140,note_off,293,0,0,,1,,,73,127
2145,note_off,5,0,0,,4,,,64,127
2147,note_on,2,0,0,,4,,,64,127
2147,note_on,0,0,0,,12,,,71,127
2438,note_off,291,0,0,,12,,,71,127
2445,note_off,7,0,0,,4,,,64,127
2447,note_on,2,0,0,,10,,,69,127
2447,note_on,0,0,0,,1,,,73,127
2689,note_off,242,0,0,,1,,,73,127
2747,note_on,58,0,0,,10,,,81,127
2895,note_off,148,0,0,,10,,,81,127
2897,note_on,2,0,0,,2,,,74,127
3045,note_off,148,0,0,,2,,,74,127
3047,note_on,2,0,0,,1,,,73,127
3197,note_off,150,0,0,,10,,,69,127
3347,note_on,150,0,0,,6,,,66,127
3645,note_off,298,0,0,,6,,,66,127
3647,note_on,2,0,0,,2,,,62,127
3945,note_off,298,0,0,,2,,,62,127
3945,note_off,0,0,0,,1,,,73,127
3947,note_on,2,0,0,,2,,,62,127
3947,note_on,0,0,0,,2,,,74,127
4095,note_off,148,0,0,,2,,,74,127
4097,note_on,2,0,0,,12,,,71,127
4245,note_off,148,0,0,,12,,,71,127
4245,note_off,0,0,0,,2,,,62,127
4247,note_on,2,0,0,,4,,,64,127
4247,note_on,0,0,0,,10,,,69,127
4545,note_off,298,0,0,,10,,,69,127
4545,note_off,0,0,0,,4,,,64,127
4547,note_on,2,0,0,,4,,,64,127
4547,note_on,0,0,0,,8,,,68,127
4845,note_off,298,0,0,,8,,,68,127
4845,note_off,0,0,0,,4,,,64,127
4847,note_on,2,0,0,,10,,,57,127
4847,note_on,0,0,0,,10,,,69,127
5147,note_on,300,0,0,,10,,,81,127
5295,note_off,148,0,0,,10,,,81,127
5296,note_off,1,0,0,,10,,,57,127
5297,note_on,1,0,0,,5,,,77,127
5445,note_off,148,0,0,,5,,,77,127
5447,note_on,2,0,0,,4,,,76,127
5527,note_off,80,0,0,,10,,,69,127
5746,note_on,219,0,0,,10,,,69,127
6044,note_off,298,0,0,,10,,,69,127
6046,note_on,2,0,0,,8,,,68,127
6344,note_off,298,0,0,,8,,,68,127
6344,note_off,0,0,0,,4,,,76,127
6346,note_on,2,0,0,,8,,,68,127
6346,note_on,0,0,0,,5,,,77,127
6494,note_off,148,0,0,,5,,,77,127
6496,note_on,2,0,0,,2,,,74,127
6644,note_off,148,0,0,,2,,,74,127
6644,note_off,0,0,0,,8,,,68,127
6646,note_on,2,0,0,,4,,,64,127
6646,note_on,0,0,0,,0,,,72,127
6944,note_off,298,0,0,,0,,,72,127
6944,note_off,0,0,0,,4,,,64,127
6946,note_on,2,0,0,,4,,,64,127
6946,note_on,0,0,0,,12,,,71,127
7244,note_off,298,0,0,,12,,,71,127
7244,note_off,0,0,0,,4,,,64,127
7246,note_on,2,0,0,,10,,,69,127
7246,note_on,0,0,0,,0,,,72,127
7544,note_off,298,0,0,,0,,,72,127
7546,note_on,2,0,0,,10,,,81,127
7694,note_off,148,0,0,,10,,,81,127
7696,note_on,2,0,0,,2,,,74,127
7844,note_off,148,0,0,,2,,,74,127
7846,note_on,2,0,0,,0,,,72,127
7996,note_off,150,0,0,,10,,,69,127
8146,note_on,150,0,0,,5,,,65,127
8444,note_off,298,0,0,,5,,,65,127
8446,note_on,2,0,0,,2,,,62,127
8744,note_off,298,0,0,,2,,,62,127
8744,note_off,0,0,0,,0,,,72,127
8746,note_on,2,0,0,,2,,,62,127
8746,note_on,0,0,0,,2,,,74,127
8894,note_off,148,0,0,,2,,,74,127
8896,note_on,2,0,0,,12,,,71,127
9044,note_off,148,0,0,,12,,,71,127
9044,note_off,0,0,0,,2,,,62,127
9046,note_on,2,0,0,,4,,,64,127
9046,note_on,0,0,0,,10,,,69,127
9344,note_off,298,0,0,,10,,,69,127
9344,note_off,0,0,0,,4,,,64,127
9346,note_on,2,0,0,,4,,,64,127
9346,note_on,0,0,0,,8,,,68,127
9644,note_off,298,0,0,,8,,,68,127
9644,note_off,0,0,0,,4,,,64,127
9646,note_on,2,0,0,,10,,,57,127
9646,note_on,0,0,0,,10,,,69,127
9944,note_off,298,0,0,,10,,,69,127
9959,note_on,15,0,0,,1,,,73,127
10107,note_off,148,0,0,,1,,,73,127
10112,note_on,5,0,0,,10,,,69,127
10146,note_off,34,0,0,,10,,,57,127
10260,note_off,114,0,0,,10,,,69,127
10262,note_on,2,0,0,,4,,,76,127
10561,note_on,299,0,0,,10,,,57,127
10859,note_off,298,0,0,,10,,,57,127
10861,note_on,2,0,0,,8,,,56,127
11159,note_off,298,0,0,,8,,,56,127
11159,note_off,0,0,0,,4,,,76,127
11161,note_on,2,0,0,,6,,,78,127
11161,note_on,0,0,0,,8,,,56,127
11309,note_off,148,0,0,,6,,,78,127
11311,note_on,2,0,0,,2,,,74,127
11459,note_off,148,0,0,,2,,,74,127
11459,note_off,0,0,0,,8,,,56,127
11461,note_on,2,0,0,,1,,,73,127
11461,note_on,0,0,0,,4,,,52,127
11759,note_off,298,0,0,,4,,,52,127
11759,note_off,0,0,0,,1,,,73,127
11761,note_on,2,0,0,,12,,,71,127
11761,note_on,0,0,0,,4,,,52,127
12059,note_off,298,0,0,,4,,,52,127
12059,note_off,0,0,0,,12,,,71,127
12061,note_on,2,0,0,,1,,,73,127
12061,note_on,0,0,0,,10,,,57,127
12359,note_off,298,0,0,,1,,,73,127
12361,note_on,2,0,0,,4,,,76,127
12509,note_off,148,0,0,,4,,,76,127
12511,note_on,2,0,0,,1,,,73,127
12659,note_off,148,0,0,,1,,,73,127
12661,note_on,2,0,0,,4,,,64,127
12811,note_off,150,0,0,,10,,,57,127
12961,note_on,150,0,0,,1,,,49,127
13259,note_off,298,0,0,,1,,,49,127
13261,note_on,2,0,0,,2,,,50,127
13361,note_off,100,0,0,,4,,,64,127
13559,note_off,198,0,0,,2,,,50,127
13561,note_on,2,0,0,,6,,,66,127
13561,note_on,0,0,0,,2,,,50,127
13709,note_off,148,0,0,,6,,,66,127
13711,note_on,2,0,0,,2,,,62,127
13859,note_off,148,0,0,,2,,,62,127
13859,note_off,0,0,0,,2,,,50,127
13861,note_on,2,0,0,,1,,,61,127
13861,note_on,0,0,0,,4,,,52,127
14159,note_off,298,0,0,,4,,,52,127
14159,note_off,0,0,0,,1,,,61,127
14161,note_on,2,0,0,,12,,,59,127
14161,note_on,0,0,0,,4,,,52,127
14459,note_off,298,0,0,,4,,,52,127
14459,note_off,0,0,0,,12,,,59,127
14461,note_on,2,0,0,,1,,,61,127
14461,note_on,0,0,0,,10,,,45,127
14759,note_off,298,0,0,,1,,,61,127
14761,note_on,2,0,0,,10,,,69,127
14909,note_off,148,0,0,,10,,,69,127
14911,note_on,2,0,0,,1,,,61,127
15059,note_off,148,0,0,,1,,,61,127
15061,note_on,2,0,0,,1,,,61,127
15211,note_off,150,0,0,,10,,,45,127
15361,note_on,150,0,0,,10,,,57,127
15659,note_off,298,0,0,,10,,,57,127
15661,note_on,2,0,0,,12,,,59,127
15811,note_off,150,0,0,,1,,,61,127
15959,note_off,148,0,0,,12,,,59,127
15961,note_on,2,0,0,,10,,,69,127
15961,note_on,0,0,0,,12,,,59,127
16109,note_off,148,0,0,,10,,,69,127
16111,note_on,2,0,0,,2,,,62,127
16259,note_off,148,0,0,,2,,,62,127
16259,note_off,0,0,0,,12,,,59,127
16261,note_on,2,0,0,,2,,,62,127
16261,note_on,0,0,0,,12,,,59,127
16559,note_off,298,0,0,,12,,,59,127
16561,note_on,2,0,0,,12,,,59,127
16859,note_off,298,0,0,,12,,,59,127
16861,note_on,2,0,0,,1,,,61,127
17011,note_off,150,0,0,,2,,,62,127
17159,note_off,148,0,0,,1,,,61,127
17161,note_on,2,0,0,,10,,,69,127
17161,note_on,0,0,0,,1,,,61,127
17309,note_off,148,0,0,,10,,,69,127
17311,note_on,2,0,0,,4,,,64,127
17459,note_off,148,0,0,,4,,,64,127
17459,note_off,0,0,0,,1,,,61,127
17461,note_on,2,0,0,,4,,,64,127
17461,note_on,0,0,0,,1,,,61,127
17759,note_off,298,0,0,,1,,,61,127
17761,note_on,2,0,0,,1,,,61,127
18059,note_off,298,0,0,,1,,,61,127
18061,note_on,2,0,0,,3,,,63,127
18211,note_off,150,0,0,,4,,,64,127
18359,note_off,148,0,0,,3,,,63,127
18361,note_on,2,0,0,,10,,,69,127
18361,note_on,0,0,0,,3,,,63,127
18509,note_off,148,0,0,,10,,,69,127
18511,note_on,2,0,0,,6,,,66,127
18659,note_off,148,0,0,,6,,,66,127
18659,note_off,0,0,0,,3,,,63,127
18661,note_on,2,0,0,,6,,,66,127
18661,note_on,0,0,0,,3,,,63,127
18959,note_off,298,0,0,,3,,,63,127
18961,note_on,2,0,0,,3,,,63,127
19259,note_off,298,0,0,,3,,,63,127
19261,note_on,2,0,0,,4,,,64,127
19411,note_off,150,0,0,,6,,,66,127
19559,note_off,148,0,0,,4,,,64,127
19561,note_on,2,0,0,,12,,,71,127
19561,note_on,0,0,0,,4,,,64,127
19709,note_off,148,0,0,,12,,,71,127
19711,note_on,2,0,0,,8,,,68,127
19859,note_off,148,0,0,,8,,,68,127
19859,note_off,0,0,0,,4,,,64,127
19861,note_on,2,0,0,,8,,,68,127
19861,note_on,0,0,0,,4,,,64,127
20159,note_off,298,0,0,,4,,,64,127
20159,note_off,0,0,0,,8,,,68,127
20161,note_on,2,0,0,,4,,,76,127
20161,note_on,0,0,0,,4,,,64,127
20309,note_off,148,0,0,,4,,,76,127
20311,note_on,2,0,0,,12,,,71,127
20459,note_off,148,0,0,,12,,,71,127
20459,note_off,0,0,0,,4,,,64,127
20461,note_on,2,0,0,,1,,,73,127
20461,note_on,0,0,0,,10,,,69,127
20759,note_off,298,0,0,,10,,,69,127
20759,note_off,0,0,0,,1,,,73,127
20761,note_on,2,0,0,,10,,,81,127
20761,note_on,0,0,0,,8,,,68,127
21059,note_off,298,0,0,,8,,,68,127
21059,note_off,0,0,0,,10,,,81,127
21061,note_on,2,0,0,,3,,,75,127
21061,note_on,0,0,0,,6,,,66,127
21359,note_off,298,0,0,,6,,,66,127
21359,note_off,0,0,0,,3,,,75,127
21361,note_on,2,0,0,,4,,,76,127
21361,note_on,0,0,0,,4,,,64,127
21659,note_off,298,0,0,,4,,,64,127
21659,note_off,0,0,0,,4,,,76,127
21661,note_on,2,0,0,,10,,,69,127
21661,note_on,0,0,0,,3,,,63,127
21879,note_off,218,0,0,,10,,,69,127
21958,note_off,79,0,0,,3,,,63,127
21960,note_on,2,0,0,,1,,,73,127
21960,note_on,0,0,0,,3,,,63,127
22258,note_off,298,0,0,,3,,,63,127
22260,note_on,2,0,0,,3,,,63,127
22558,note_off,298,0,0,,3,,,63,127
22558,note_off,0,0,0,,1,,,73,127
22560,note_on,2,0,0,,12,,,71,127
22560,note_on,0,0,0,,3,,,63,127
22708,note_off,148,0,0,,12,,,71,127
22710,note_on,2,0,0,,10,,,69,127
22858,note_off,148,0,0,,10,,,69,127
22858,note_off,0,0,0,,3,,,63,127
22860,note_on,2,0,0,,8,,,80,127
22860,note_on,0,0,0,,4,,,64,127
23008,note_off,148,0,0,,8,,,80,127
23010,note_on,2,0,0,,6,,,78,127
23158,note_off,148,0,0,,6,,,78,127
23158,note_off,0,0,0,,4,,,64,127
23160,note_on,2,0,0,,4,,,76,127
23160,note_on,0,0,0,,4,,,64,127
23308,note_off,148,0,0,,4,,,76,127
23310,note_on,2,0,0,,3,,,75,127
23458,note_off,148,0,0,,3,,,75,127
23458,note_off,0,0,0,,4,,,64,127
23460,note_on,2,0,0,,1,,,73,127
23460,note_on,0,0,0,,10,,,57,127
23608,note_off,148,0,0,,1,,,73,127
23610,note_on,2,0,0,,12,,,71,127
23758,note_off,148,0,0,,12,,,71,127
23758,note_off,0,0,0,,10,,,57,127
23760,note_on,2,0,0,,10,,,69,127
23760,note_on,0,0,0,,10,,,57,127
23908,note_off,148,0,0,,10,,,69,127
23910,note_on,2,0,0,,8,,,68,127
24058,note_off,148,0,0,,8,,,68,127
24058,note_off,0,0,0,,10,,,57,127
24060,note_on,2,0,0,,6,,,66,127
24060,note_on,0,0,0,,12,,,59,127
24358,note_off,298,0,0,,6,,,66,127
24360,note_on,2,0,0,,11,,,70,127
24508,note_off,148,0,0,,11,,,70,127
24510,note_on,2,0,0,,12,,,71,127
24658,note_off,148,0,0,,12,,,71,127
24660,note_on,2,0,0,,12,,,71,127
24958,note_off,298,0,0,,12,,,59,127
24976,note_on,18,0,0,,1,,,61,127
25124,note_off,148,0,0,,1,,,61,127
25126,note_on,2,0,0,,3,,,63,127
25259,note_off,133,0,0,,12,,,71,127
25274,note_off,15,0,0,,3,,,63,127
25276,note_on,2,0,0,,4,,,64,127
25575,note_on,299,0,0,,8,,,80,127
25723,note_off,148,0,0,,8,,,80,127
25725,note_on,2,0,0,,4,,,76,127
25873,note_off,148,0,0,,4,,,76,127
25875,note_on,2,0,0,,12,,,71,127
26173,note_off,298,0,0,,12,,,71,127
26173,note_off,0,0,0,,4,,,64,127
26175,note_on,2,0,0,,6,,,66,127
26175,note_on,0,0,0,,12,,,83,127
26323,note_off,148,0,0,,6,,,66,127
26325,note_on,2,0,0,,8,,,68,127
26473,note_off,148,0,0,,8,,,68,127
26473,note_off,0,0,0,,12,,,83,127
26475,note_on,2,0,0,,10,,,69,127
26475,note_on,0,0,0,,1,,,73,127
26773,note_off,298,0,0,,1,,,73,127
26773,note_off,0,0,0,,10,,,69,127
26775,note_on,2,0,0,,8,,,68,127
26775,note_on,0,0,0,,1,,,85,127
27073,note_off,298,0,0,,1,,,85,127
27073,note_off,0,0,0,,8,,,68,127
27075,note_on,2,0,0,,6,,,66,127
27075,note_on,0,0,0,,3,,,75,127
27373,note_off,298,0,0,,3,,,75,127
27373,note_off,0,0,0,,6,,,66,127
27375,note_on,2,0,0,,4,,,64,127
27375,note_on,0,0,0,,4,,,76,127
27673,note_off,298,0,0,,4,,,76,127
27673,note_off,0,0,0,,4,,,64,127
27675,note_on,2,0,0,,3,,,63,127
27675,note_on,0,0,0,,12,,,71,127
27973,note_off,298,0,0,,12,,,71,127
27973,note_off,0,0,0,,3,,,63,127
27975,note_on,2,0,0,,4,,,64,127
27975,note_on,0,0,0,,8,,,80,127
28123,note_off,148,0,0,,8,,,80,127
28125,note_on,2,0,0,,4,,,76,127
28273,note_off,148,0,0,,4,,,76,127
28275,note_on,2,0,0,,12,,,71,127
28573,note_off,298,0,0,,12,,,71,127
28573,note_off,0,0,0,,4,,,64,127
28575,note_on,2,0,0,,6,,,66,127
28575,note_on,0,0,0,,12,,,83,127
28723,note_off,148,0,0,,6,,,66,127
28725,note_on,2,0,0,,8,,,68,127
28873,note_off,148,0,0,,8,,,68,127
28873,note_off,0,0,0,,12,,,83,127
28875,note_on,2,0,0,,10,,,69,127
28875,note_on,0,0,0,,1,,,73,127
29173,note_off,298,0,0,,1,,,73,127
29173,note_off,0,0,0,,10,,,69,127
29175,note_on,2,0,0,,8,,,68,127
29175,note_on,0,0,0,,1,,,85,127
29473,note_off,298,0,0,,1,,,85,127
29473,note_off,0,0,0,,8,,,68,127
29475,note_on,2,0,0,,6,,,66,127
29475,note_on,0,0,0,,3,,,75,127
29773,note_off,298,0,0,,3,,,75,127
29773,note_off,0,0,0,,6,,,66,127
29775,note_on,2,0,0,,4,,,64,127
29775,note_on,0,0,0,,4,,,76,127
30073,note_off,298,0,0,,4,,,76,127
30073,note_off,0,0,0,,4,,,64,127
30075,note_on,2,0,0,,3,,,63,127
30075,note_on,0,0,0,,10,,,69,127
30275,note_off,200,0,0,,10,,,69,127
30373,note_off,98,0,0,,3,,,63,127
30375,note_on,2,0,0,,1,,,61,127
30375,note_on,0,0,0,,10,,,81,127
30673,note_off,298,0,0,,1,,,61,127
30675,note_on,2,0,0,,12,,,59,127
30973,note_off,298,0,0,,12,,,59,127
30973,note_off,0,0,0,,10,,,81,127
30975,note_on,2,0,0,,10,,,57,127
30975,note_on,0,0,0,,6,,,78,127
31123,note_off,148,0,0,,6,,,78,127
31125,note_on,2,0,0,,3,,,75,127
31273,note_off,148,0,0,,3,,,75,127
31273,note_off,0,0,0,,10,,,57,127
31275,note_on,2,0,0,,8,,,56,127
31275,note_on,0,0,0,,12,,,83,127
31573,note_off,298,0,0,,12,,,83,127
31573,note_off,0,0,0,,8,,,56,127
31575,note_on,2,0,0,,10,,,57,127
31575,note_on,0,0,0,,1,,,85,127
31723,note_off,148,0,0,,1,,,85,127
31725,note_on,2,0,0,,10,,,81,127
31873,note_off,148,0,0,,10,,,81,127
31873,note_off,0,0,0,,10,,,57,127
31875,note_on,2,0,0,,12,,,59,127
31875,note_on,0,0,0,,8,,,80,127
32173,note_off,298,0,0,,8,,,80,127
32173,note_off,0,0,0,,12,,,59,127
32175,note_on,2,0,0,,12,,,47,127
32175,note_on,0,0,0,,6,,,78,127
32473,note_off,298,0,0,,6,,,78,127
32473,note_off,0,0,0,,12,,,47,127
32475,note_on,2,0,0,,4,,,40,127
32475,note_on,0,0,0,,4,,,76,127
32807,note_on,332,0,0,,7,,,79,127
32944,note_off,137,0,0,,4,,,76,127
32955,note_off,11,0,0,,7,,,79,127
32957,note_on,2,0,0,,4,,,76,127
33075,note_off,118,0,0,,4,,,40,127
33105,note_off,30,0,0,,4,,,76,127
33107,note_on,2,0,0,,12,,,71,127
33407,note_on,300,0,0,,4,,,64,127
33407,note_on,0,0,0,,12,,,83,127
33507,note_off,100,0,0,,12,,,71,127
33705,note_off,198,0,0,,12,,,83,127
33705,note_off,0,0,0,,4,,,64,127
33707,note_on,2,0,0,,10,,,69,127
33707,note_on,0,0,0,,0,,,72,127
34005,note_off,298,0,0,,10,,,69,127
34007,note_on,2,0,0,,7,,,67,127
34007,note_on,0,0,0,,0,,,84,127
34057,note_off,50,0,0,,0,,,72,127
34305,note_off,248,0,0,,0,,,84,127
34305,note_off,0,0,0,,7,,,67,127
34307,note_on,2,0,0,,6,,,66,127
34307,note_on,0,0,0,,3,,,75,127
34605,note_off,298,0,0,,3,,,75,127
34605,note_off,0,0,0,,6,,,66,127
34607,note_on,2,0,0,,4,,,64,127
34607,note_on,0,0,0,,4,,,76,127
34905,note_off,298,0,0,,4,,,76,127
34905,note_off,0,0,0,,4,,,64,127
34907,note_on,2,0,0,,3,,,63,127
34907,note_on,0,0,0,,12,,,71,127
35205,note_off,298,0,0,,3,,,63,127
35207,note_on,2,0,0,,4,,,64,127
35207,note_on,0,0,0,,7,,,79,127
35257,note_off,50,0,0,,12,,,71,127
35355,note_off,98,0,0,,7,,,79,127
35357,note_on,2,0,0,,4,,,76,127
35505,note_off,148,0,0,,4,,,76,127
35507,note_on,2,0,0,,12,,,71,127
35805,note_off,298,0,0,,12,,,71,127
35805,note_off,0,0,0,,4,,,64,127
35807,note_on,2,0,0,,6,,,66,127
35807,note_on,0,0,0,,12,,,83,127
35955,note_off,148,0,0,,6,,,66,127
35957,note_on,2,0,0,,7,,,67,127
36105,note_off,148,0,0,,7,,,67,127
36105,note_off,0,0,0,,12,,,83,127
36107,note_on,2,0,0,,10,,,69,127
36107,note_on,0,0,0,,0,,,72,127
36405,note_off,298,0,0,,10,,,69,127
36407,note_on,2,0,0,,7,,,67,127
36407,note_on,0,0,0,,0,,,84,127
36457,note_off,50,0,0,,0,,,72,127
36705,note_off,248,0,0,,0,,,84,127
36705,note_off,0,0,0,,7,,,67,127
36707,note_on,2,0,0,,6,,,66,127
36707,note_on,0,0,0,,3,,,75,127
37005,note_off,298,0,0,,3,,,75,127
37005,note_off,0,0,0,,6,,,66,127
37007,note_on,2,0,0,,4,,,64,127
37007,note_on,0,0,0,,4,,,76,127
37305,note_off,298,0,0,,4,,,76,127
37305,note_off,0,0,0,,4,,,64,127
37307,note_on,2,0,0,,3,,,63,127
37307,note_on,0,0,0,,10,,,69,127
37605,note_off,298,0,0,,10,,,69,127
37605,note_off,0,0,0,,3,,,63,127
37607,note_on,2,0,0,,12,,,59,127
37607,note_on,0,0,0,,10,,,81,127
37755,note_off,148,0,0,,10,,,81,127
37757,note_on,2,0,0,,6,,,78,127
37905,note_off,148,0,0,,6,,,78,127
37905,note_off,0,0,0,,12,,,59,127
37907,note_on,2,0,0,,0,,,60,127
37907,note_on,0,0,0,,10,,,69,127
38205,note_off,298,0,0,,0,,,60,127
38207,note_on,2,0,0,,0,,,60,127
38505,note_off,298,0,0,,0,,,60,127
38507,note_on,2,0,0,,12,,,59,127
38805,note_off,298,0,0,,12,,,59,127
38805,note_off,0,0,0,,10,,,69,127
38807,note_on,2,0,0,,12,,,59,127
38807,note_on,0,0,0,,10,,,81,127
38955,note_off,148,0,0,,10,,,81,127
38957,note_on,2,0,0,,6,,,78,127
39105,note_off,148,0,0,,6,,,78,127
39105,note_off,0,0,0,,12,,,59,127
39107,note_on,2,0,0,,0,,,60,127
39107,note_on,0,0,0,,10,,,69,127
39405,note_off,298,0,0,,0,,,60,127
39407,note_on,2,0,0,,0,,,60,127
39705,note_off,298,0,0,,0,,,60,127
39707,note_on,2,0,0,,12,,,59,127
40005,note_off,298,0,0,,12,,,59,127
40005,note_off,0,0,0,,10,,,69,127
40007,note_on,2,0,0,,7,,,55,127
40007,note_on,0,0,0,,0,,,84,127
40155,note_off,148,0,0,,0,,,84,127
40157,note_on,2,0,0,,12,,,83,127
40305,note_off,148,0,0,,12,,,83,127
40305,note_off,0,0,0,,7,,,55,127
40307,note_on,2,0,0,,10,,,57,127
40307,note_on,0,0,0,,10,,,81,127
40605,note_off,298,0,0,,10,,,81,127
40605,note_off,0,0,0,,10,,,57,127
40607,note_on,2,0,0,,12,,,59,127
40607,note_on,0,0,0,,7,,,79,127
40755,note_off,148,0,0,,7,,,79,127
40757,note_on,2,0,0,,6,,,78,127
40905,note_off,148,0,0,,6,,,78,127
40905,note_off,0,0,0,,12,,,59,127
40907,note_on,2,0,0,,0,,,60,127
40907,note_on,0,0,0,,4,,,76,127
41205,note_off,298,0,0,,0,,,60,127
41207,note_on,2,0,0,,10,,,69,127
41355,note_off,148,0,0,,10,,,69,127
41357,note_on,2,0,0,,7,,,67,127
41505,note_off,148,0,0,,7,,,67,127
41507,note_on,2,0,0,,6,,,66,127
41805,note_off,298,0,0,,6,,,66,127
41807,note_on,2,0,0,,4,,,64,127
41955,note_off,148,0,0,,4,,,64,127
41957,note_on,2,0,0,,3,,,63,127
42105,note_off,148,0,0,,3,,,63,127
42107,note_on,2,0,0,,4,,,64,127
42405,note_off,298,0,0,,4,,,64,127
42405,note_off,0,0,0,,4,,,76,127
42407,note_on,2,0,0,,7,,,55,127
42407,note_on,0,0,0,,0,,,84,127
42555,note_off,148,0,0,,0,,,84,127
42557,note_on,2,0,0,,12,,,83,127
42705,note_off,148,0,0,,12,,,83,127
42705,note_off,0,0,0,,7,,,55,127
42707,note_on,2,0,0,,10,,,57,127
42707,note_on,0,0,0,,12,,,83,127
42855,note_off,148,0,0,,12,,,83,127
42857,note_on,2,0,0,,10,,,81,127
43005,note_off,148,0,0,,10,,,81,127
43005,note_off,0,0,0,,10,,,57,127
43007,note_on,2,0,0,,12,,,59,127
43007,note_on,0,0,0,,7,,,79,127
43155,note_off,148,0,0,,7,,,79,127
43157,note_on,2,0,0,,6,,,78,127
43305,note_off,148,0,0,,6,,,78,127
43305,note_off,0,0,0,,12,,,59,127
43307,note_on,2,0,0,,0,,,60,127
43307,note_on,0,0,0,,4,,,76,127
43605,note_off,298,0,0,,0,,,60,127
43607,note_on,2,0,0,,10,,,69,127
43755,note_off,148,0,0,,10,,,69,127
43757,note_on,2,0,0,,7,,,67,127
43905,note_off,148,0,0,,7,,,67,127
43907,note_on,2,0,0,,6,,,66,127
44205,note_off,298,0,0,,6,,,66,127
44207,note_on,2,0,0,,4,,,64,127
44355,note_off,148,0,0,,4,,,64,127
44357,note_on,2,0,0,,3,,,63,127
44505,note_off,148,0,0,,3,,,63,127
44507,note_on,2,0,0,,4,,,64,127
44805,note_off,298,0,0,,4,,,64,127
44805,note_off,0,0,0,,4,,,76,127
44807,note_on,2,0,0,,7,,,55,127
44807,note_on,0,0,0,,10,,,81,127
44955,note_off,148,0,0,,10,,,81,127
44957,note_on,2,0,0,,7,,,79,127
45105,note_off,148,0,0,,7,,,79,127
45105,note_off,0,0,0,,7,,,55,127
45107,note_on,2,0,0,,10,,,57,127
45107,note_on,0,0,0,,6,,,78,127
45405,note_off,298,0,0,,6,,,78,127
45405,note_off,0,0,0,,10,,,57,127
45407,note_on,2,0,0,,12,,,59,127
45407,note_on,0,0,0,,4,,,76,127
45555,note_off,148,0,0,,4,,,76,127
45557,note_on,2,0,0,,3,,,75,127
45705,note_off,148,0,0,,3,,,75,127
45705,note_off,0,0,0,,12,,,59,127
45707,note_on,2,0,0,,0,,,60,127
45707,note_on,0,0,0,,4,,,76,127
45855,note_off,148,0,0,,4,,,76,127
45857,note_on,2,0,0,,12,,,71,127
46005,note_off,148,0,0,,12,,,71,127
46005,note_off,0,0,0,,0,,,60,127
46007,note_on,2,0,0,,10,,,57,127
46007,note_on,0,0,0,,0,,,72,127
46155,note_off,148,0,0,,0,,,72,127
46157,note_on,2,0,0,,10,,,69,127
46305,note_off,148,0,0,,10,,,69,127
46305,note_off,0,0,0,,10,,,57,127
46307,note_on,2,0,0,,12,,,59,127
46307,note_on,0,0,0,,7,,,67,127
46605,note_off,298,0,0,,7,,,67,127
46605,note_off,0,0,0,,12,,,59,127
46607,note_on,2,0,0,,12,,,47,127
46607,note_on,0,0,0,,6,,,66,127
46657,note_on,50,0,0,,7,,,67,127
46659,note_off,2,0,0,,6,,,66,127
46707,note_on,48,0,0,,6,,,66,127
46709,note_off,2,0,0,,7,,,67,127
46896,note_off,187,0,0,,6,,,66,127
46905,note_off,9,0,0,,12,,,47,127
46918,note_on,13,0,0,,4,,,64,127
46918,note_on,0,0,0,,4,,,52,127
47216,note_off,298,0,0,,4,,,52,127
47216,note_off,0,0,0,,4,,,64,127
47223,note_on,7,0,0,,8,,,80,127
47223,note_on,0,0,0,,4,,,64,127
47371,note_off,148,0,0,,8,,,80,127
47373,note_on,2,0,0,,12,,,71,127
47521,note_off,148,0,0,,12,,,71,127
47521,note_off,0,0,0,,4,,,64,127
47523,note_on,2,0,0,,10,,,69,127
47523,note_on,0,0,0,,6,,,66,127
47821,note_off,298,0,0,,6,,,66,127
47821,note_off,0,0,0,,10,,,69,127
47823,note_on,2,0,0,,6,,,78,127
47823,note_on,0,0,0,,3,,,63,127
47971,note_off,148,0,0,,6,,,78,127
47973,note_on,2,0,0,,10,,,69,127
48121,note_off,148,0,0,,10,,,69,127
48121,note_off,0,0,0,,3,,,63,127
48123,note_on,2,0,0,,8,,,68,127
48123,note_on,0,0,0,,4,,,64,127
48421,note_off,298,0,0,,4,,,64,127
48421,note_off,0,0,0,,8,,,68,127
48423,note_on,2,0,0,,8,,,80,127
48423,note_on,0,0,0,,4,,,64,127
48571,note_off,148,0,0,,8,,,80,127
48573,note_on,2,0,0,,12,,,71,127
48721,note_off,148,0,0,,12,,,71,127
48721,note_off,0,0,0,,4,,,64,127
48723,note_on,2,0,0,,10,,,69,127
48723,note_on,0,0,0,,6,,,66,127
49021,note_off,298,0,0,,6,,,66,127
49021,note_off,0,0,0,,10,,,69,127
49023,note_on,2,0,0,,6,,,78,127
49023,note_on,0,0,0,,3,,,63,127
49171,note_off,148,0,0,,6,,,78,127
49173,note_on,2,0,0,,10,,,69,127
49321,note_off,148,0,0,,10,,,69,127
49321,note_off,0,0,0,,3,,,63,127
49323,note_on,2,0,0,,8,,,68,127
49323,note_on,0,0,0,,4,,,64,127
49621,note_off,298,0,0,,4,,,64,127
49621,note_off,0,0,0,,8,,,68,127
49623,note_on,2,0,0,,4,,,76,127
49623,note_on,0,0,0,,8,,,56,127
49771,note_off,148,0,0,,4,,,76,127
49773,note_on,2,0,0,,12,,,71,127
49921,note_off,148,0,0,,12,,,71,127
49921,note_off,0,0,0,,8,,,56,127
49923,note_on,2,0,0,,1,,,73,127
49923,note_on,0,0,0,,10,,,57,127
50221,note_off,298,0,0,,10,,,57,127
50221,note_off,0,0,0,,1,,,73,127
50223,note_on,2,0,0,,10,,,81,127
50223,note_on,0,0,0,,6,,,54,127
50371,note_off,148,0,0,,10,,,81,127
50373,note_on,2,0,0,,6,,,78,127
50521,note_off,148,0,0,,6,,,78,127
50521,note_off,0,0,0,,6,,,54,127
50523,note_on,2,0,0,,12,,,83,127
50523,note_on,0,0,0,,8,,,56,127
50821,note_off,298,0,0,,8,,,56,127
50821,note_off,0,0,0,,12,,,83,127
50823,note_on,2,0,0,,1,,,85,127
50823,note_on,0,0,0,,10,,,57,127
50971,note_off,148,0,0,,1,,,85,127
50973,note_on,2,0,0,,10,,,81,127
51121,note_off,148,0,0,,10,,,81,127
51121,note_off,0,0,0,,10,,,57,127
51123,note_on,2,0,0,,8,,,80,127
51123,note_on,0,0,0,,12,,,59,127
51383,note_off,260,0,0,,8,,,80,127
51421,note_off,38,0,0,,12,,,59,127
51423,note_on,2,0,0,,6,,,78,127
51423,note_on,0,0,0,,12,,,47,127
51683,note_off,260,0,0,,6,,,78,127
51721,note_off,38,0,0,,12,,,47,127
51723,note_on,2,0,0,,4,,,76,127
51723,note_on,0,0,0,,4,,,52,127
52021,note_off,298,0,0,,4,,,52,127
52021,note_off,0,0,0,,4,,,76,127
52023,note_on,2,0,0,,12,,,71,127
52023,note_on,0,0,0,,4,,,52,127
52171,note_off,148,0,0,,12,,,71,127
52173,note_on,2,0,0,,8,,,68,127
52321,note_off,148,0,0,,8,,,68,127
52321,note_off,0,0,0,,4,,,52,127
52323,note_on,2,0,0,,1,,,73,127
52323,note_on,0,0,0,,10,,,57,127
52621,note_off,298,0,0,,10,,,57,127
52621,note_off,0,0,0,,1,,,73,127
52623,note_on,2,0,0,,6,,,78,127
52623,note_on,0,0,0,,6,,,54,127
52771,note_off,148,0,0,,6,,,78,127
52773,note_on,2,0,0,,3,,,75,127
52921,note_off,148,0,0,,3,,,75,127
52921,note_off,0,0,0,,6,,,54,127
52923,note_on,2,0,0,,4,,,76,127
52923,note_on,0,0,0,,8,,,56,127
53071,note_off,148,0,0,,4,,,76,127
53073,note_on,2,0,0,,12,,,71,127
53221,note_off,148,0,0,,12,,,71,127
53221,note_off,0,0,0,,8,,,56,127
53223,note_on,2,0,0,,1,,,73,127
53223,note_on,0,0,0,,10,,,57,127
53371,note_off,148,0,0,,1,,,73,127
53373,note_on,2,0,0,,10,,,69,127
53521,note_off,148,0,0,,10,,,69,127
53521,note_off,0,0,0,,10,,,57,127
53523,note_on,2,0,0,,8,,,68,127
53523,note_on,0,0,0,,12,,,59,127
53821,note_off,298,0,0,,12,,,59,127
53821,note_off,0,0,0,,8,,,68,127
53823,note_on,2,0,0,,6,,,66,127
53823,note_on,0,0,0,,12,,,47,127
53871,note_on,48,0,0,,8,,,68,127
53872,note_off,1,0,0,,6,,,66,127
53919,note_on,47,0,0,,6,,,66,127
53920,note_off,1,0,0,,8,,,68,127
54122,note_off,202,0,0,,12,,,47,127
54124,note_on,2,0,0,,4,,,64,127
54124,note_on,0,0,0,,4,,,40,127
54126,note_off,2,0,0,,6,,,66,127
55224,note_off,1098,0,0,,4,,,64,127
55319,note_off,95,0,0,,4,,,40,127
55321,note_on,2,0,0,,4,,,64,127
55321,note_on,0,0,0,,4,,,40,127
55619,note_off,298,0,0,,4,,,64,127
55621,note_on,2,0,0,,4,,,76,127
55769,note_off,148,0,0,,4,,,76,127
55771,note_on,2,0,0,,1,,,73,127
55919,note_off,148,0,0,,1,,,73,127
55920,note_off,1,0,0,,4,,,40,127
55921,note_on,1,0,0,,12,,,71,127
56220,note_on,299,0,0,,4,,,64,127
56518,note_off,298,0,0,,4,,,64,127
56520,note_on,2,0,0,,3,,,63,127
56818,note_off,298,0,0,,3,,,63,127
56818,note_off,0,0,0,,12,,,71,127
56820,note_on,2,0,0,,1,,,73,127
56820,note_on,0,0,0,,3,,,63,127
56968,note_off,148,0,0,,1,,,73,127
56970,note_on,2,0,0,,10,,,69,127
57118,note_off,148,0,0,,10,,,69,127
57118,note_off,0,0,0,,3,,,63,127
57120,note_on,2,0,0,,8,,,68,127
57120,note_on,0,0,0,,12,,,59,127
57418,note_off,298,0,0,,12,,,59,127
57418,note_off,0,0,0,,8,,,68,127
57420,note_on,2,0,0,,6,,,66,127
57420,note_on,0,0,0,,12,,,59,127
57718,note_off,298,0,0,,12,,,59,127
57718,note_off,0,0,0,,6,,,66,127
57720,note_on,2,0,0,,8,,,68,127
57720,note_on,0,0,0,,4,,,64,127
58018,note_off,298,0,0,,8,,,68,127
58020,note_on,2,0,0,,12,,,83,127
58168,note_off,148,0,0,,12,,,83,127
58170,note_on,2,0,0,,8,,,80,127
58318,note_off,148,0,0,,8,,,80,127
58319,note_off,1,0,0,,4,,,64,127
58320,note_on,1,0,0,,4,,,76,127
58619,note_on,299,0,0,,1,,,61,127
58917,note_off,298,0,0,,1,,,61,127
58919,note_on,2,0,0,,10,,,57,127
59217,note_off,298,0,0,,10,,,57,127
59217,note_off,0,0,0,,4,,,76,127
59219,note_on,2,0,0,,10,,,81,127
59219,note_on,0,0,0,,10,,,57,127
59367,note_off,148,0,0,,10,,,81,127
59369,note_on,2,0,0,,6,,,78,127
59517,note_off,148,0,0,,6,,,78,127
59517,note_off,0,0,0,,10,,,57,127
59519,note_on,2,0,0,,4,,,76,127
59519,note_on,0,0,0,,12,,,59,127
59817,note_off,298,0,0,,12,,,59,127
59817,note_off,0,0,0,,4,,,76,127
59819,note_on,2,0,0,,3,,,75,127
59819,note_on,0,0,0,,12,,,59,127
60069,note_off,250,0,0,,3,,,75,127
60099,note_off,30,0,0,,12,,,59,127
60119,note_on,20,0,0,,4,,,52,127
60417,note_off,298,0,0,,4,,,52,127
60419,note_on,2,0,0,,4,,,76,127
60419,note_on,0,0,0,,4,,,64,127
60567,note_off,148,0,0,,4,,,76,127
60569,note_on,2,0,0,,8,,,68,127
60717,note_off,148,0,0,,8,,,68,127
60717,note_off,0,0,0,,4,,,64,127
60719,note_on,2,0,0,,8,,,68,127
60719,note_on,0,0,0,,4,,,64,127
61017,note_off,298,0,0,,4,,,64,127
61019,note_on,2,0,0,,4,,,64,127
61317,note_off,298,0,0,,4,,,64,127
61319,note_on,2,0,0,,1,,,61,127
61617,note_off,298,0,0,,1,,,61,127
61617,note_off,0,0,0,,8,,,68,127
61619,note_on,2,0,0,,4,,,76,127
61619,note_on,0,0,0,,1,,,61,127
61767,note_off,148,0,0,,4,,,76,127
61769,note_on,2,0,0,,11,,,70,127
61917,note_off,148,0,0,,11,,,70,127
61917,note_off,0,0,0,,1,,,61,127
61919,note_on,2,0,0,,11,,,70,127
61919,note_on,0,0,0,,1,,,61,127
62217,note_off,298,0,0,,1,,,61,127
62219,note_on,2,0,0,,1,,,61,127
62517,note_off,298,0,0,,1,,,61,127
62518,note_off,1,0,0,,11,,,70,127
62519,note_on,1,0,0,,2,,,62,127
62817,note_off,298,0,0,,2,,,62,127
62819,note_on,2,0,0,,6,,,78,127
62819,note_on,0,0,0,,2,,,62,127
62967,note_off,148,0,0,,6,,,78,127
62969,note_on,2,0,0,,12,,,71,127
63117,note_off,148,0,0,,12,,,71,127
63117,note_off,0,0,0,,2,,,62,127
63119,note_on,2,0,0,,12,,,71,127
63119,note_on,0,0,0,,2,,,62,127
63417,note_off,298,0,0,,2,,,62,127
63419,note_on,2,0,0,,2,,,62,127
63717,note_off,298,0,0,,2,,,62,127
63719,note_on,2,0,0,,4,,,64,127
64017,note_off,298,0,0,,4,,,64,127
64017,note_off,0,0,0,,12,,,71,127
64019,note_on,2,0,0,,7,,,79,127
64019,note_on,0,0,0,,4,,,64,127
64167,note_off,148,0,0,,7,,,79,127
64169,note_on,2,0,0,,6,,,78,127
64317,note_off,148,0,0,,6,,,78,127
64317,note_off,0,0,0,,4,,,64,127
64319,note_on,2,0,0,,4,,,76,127
64319,note_on,0,0,0,,6,,,66,127
64617,note_off,298,0,0,,6,,,66,127
64617,note_off,0,0,0,,4,,,76,127
64619,note_on,2,0,0,,2,,,74,127
64619,note_on,0,0,0,,6,,,66,127
64767,note_off,148,0,0,,2,,,74,127
64769,note_on,2,0,0,,1,,,73,127
64917,note_off,148,0,0,,1,,,73,127
64917,note_off,0,0,0,,6,,,66,127
64919,note_on,2,0,0,,2,,,74,127
64919,note_on,0,0,0,,12,,,59,127
65217,note_off,298,0,0,,12,,,59,127
65217,note_off,0,0,0,,2,,,74,127
65219,note_on,2,0,0,,6,,,78,127
65219,note_on,0,0,0,,12,,,59,127
65367,note_off,148,0,0,,6,,,78,127
65369,note_on,2,0,0,,2,,,74,127
65517,note_off,148,0,0,,2,,,74,127
65517,note_off,0,0,0,,12,,,59,127
65519,note_on,2,0,0,,2,,,74,127
65519,note_on,0,0,0,,12,,,59,127
65817,note_off,298,0,0,,12,,,59,127
65819,note_on,2,0,0,,12,,,59,127
66117,note_off,298,0,0,,12,,,59,127
66119,note_on,2,0,0,,2,,,62,127
66119,note_on,0,0,0,,7,,,55,127
66417,note_off,298,0,0,,7,,,55,127
66417,note_off,0,0,0,,2,,,62,127
66417,note_off,0,0,0,,2,,,74,127
66419,note_on,2,0,0,,12,,,83,127
66419,note_on,0,0,0,,7,,,55,127
66419,note_on,0,0,0,,2,,,62,127
66567,note_off,148,0,0,,12,,,83,127
66569,note_on,2,0,0,,2,,,74,127
66717,note_off,148,0,0,,2,,,74,127
66717,note_off,0,0,0,,2,,,62,127
66717,note_off,0,0,0,,7,,,55,127
66719,note_on,2,0,0,,2,,,74,127
66719,note_on,0,0,0,,7,,,55,127
66719,note_on,0,0,0,,2,,,62,127
67017,note_off,298,0,0,,2,,,62,127
67017,note_off,0,0,0,,7,,,55,127
67019,note_on,2,0,0,,2,,,62,127
67019,note_on,0,0,0,,7,,,55,127
67317,note_off,298,0,0,,7,,,55,127
67317,note_off,0,0,0,,2,,,62,127
67319,note_on,2,0,0,,2,,,62,127
67319,note_on,0,0,0,,6,,,54,127
67617,note_off,298,0,0,,6,,,54,127
67617,note_off,0,0,0,,2,,,62,127
67617,note_off,0,0,0,,2,,,74,127
67619,note_on,2,0,0,,10,,,81,127
67619,note_on,0,0,0,,6,,,54,127
67619,note_on,0,0,0,,2,,,62,127
67767,note_off,148,0,0,,10,,,81,127
67769,note_on,2,0,0,,2,,,74,127
67917,note_off,148,0,0,,2,,,74,127
67917,note_off,0,0,0,,2,,,62,127
67917,note_off,0,0,0,,6,,,54,127
67919,note_on,2,0,0,,2,,,74,127
67919,note_on,0,0,0,,2,,,62,127
67919,note_on,0,0,0,,6,,,54,127
68217,note_off,298,0,0,,6,,,54,127
68217,note_off,0,0,0,,2,,,62,127
68219,note_on,2,0,0,,6,,,54,127
68219,note_on,0,0,0,,2,,,62,127
68517,note_off,298,0,0,,2,,,62,127
68517,note_off,0,0,0,,6,,,54,127
68519,note_on,2,0,0,,2,,,62,127
68519,note_on,0,0,0,,8,,,56,127
68817,note_off,298,0,0,,8,,,56,127
68817,note_off,0,0,0,,2,,,62,127
68817,note_off,0,0,0,,2,,,74,127
68819,note_on,2,0,0,,2,,,86,127
68819,note_on,0,0,0,,2,,,62,127
68819,note_on,0,0,0,,8,,,56,127
68969,note_on,150,0,0,,2,,,74,127
69099,note_off,130,0,0,,2,,,86,127
69117,note_off,18,0,0,,2,,,74,127
69117,note_off,0,0,0,,8,,,56,127
69117,note_off,0,0,0,,2,,,62,127
69119,note_on,2,0,0,,2,,,74,127
69119,note_on,0,0,0,,8,,,56,127
69119,note_on,0,0,0,,2,,,62,127
69417,note_off,298,0,0,,2,,,62,127
69417,note_off,0,0,0,,8,,,56,127
69419,note_on,2,0,0,,4,,,64,127
69419,note_on,0,0,0,,8,,,56,127
69717,note_off,298,0,0,,8,,,56,127
69717,note_off,0,0,0,,4,,,64,127
69719,note_on,2,0,0,,10,,,57,127
69719,note_on,0,0,0,,5,,,65,127
70017,note_off,298,0,0,,5,,,65,127
70017,note_off,0,0,0,,10,,,57,127
70017,note_off,0,0,0,,2,,,74,127
70019,note_on,2,0,0,,2,,,86,127
70019,note_on,0,0,0,,5,,,65,127
70019,note_on,0,0,0,,10,,,57,127
70169,note_on,150,0,0,,2,,,74,127
70299,note_off,130,0,0,,2,,,86,127
70317,note_off,18,0,0,,2,,,74,127
70317,note_off,0,0,0,,10,,,57,127
70317,note_off,0,0,0,,5,,,65,127
70319,note_on,2,0,0,,2,,,74,127
70319,note_on,0,0,0,,10,,,57,127
70319,note_on,0,0,0,,5,,,65,127
70617,note_off,298,0,0,,5,,,65,127
70617,note_off,0,0,0,,10,,,57,127
70619,note_on,2,0,0,,5,,,65,127
70619,note_on,0,0,0,,10,,,57,127
70917,note_off,298,0,0,,10,,,57,127
70917,note_off,0,0,0,,5,,,65,127
70919,note_on,2,0,0,,8,,,68,127
70919,note_on,0,0,0,,12,,,59,127
71217,note_off,298,0,0,,12,,,59,127
71217,note_off,0,0,0,,8,,,68,127
71217,note_off,0,0,0,,2,,,74,127
71219,note_on,2,0,0,,2,,,86,127
71219,note_on,0,0,0,,8,,,68,127
71219,note_on,0,0,0,,12,,,59,127
71367,note_off,148,0,0,,2,,,86,127
71369,note_on,2,0,0,,0,,,84,127
71517,note_off,148,0,0,,0,,,84,127
71517,note_off,0,0,0,,12,,,59,127
71517,note_off,0,0,0,,8,,,68,127
71519,note_on,2,0,0,,12,,,83,127
71519,note_on,0,0,0,,8,,,68,127
71519,note_on,0,0,0,,12,,,59,127
71817,note_off,298,0,0,,12,,,59,127
71817,note_off,0,0,0,,8,,,68,127
71817,note_off,0,0,0,,12,,,83,127
71819,note_on,2,0,0,,10,,,81,127
71819,note_on,0,0,0,,12,,,59,127
71819,note_on,0,0,0,,8,,,68,127
71967,note_off,148,0,0,,10,,,81,127
71969,note_on,2,0,0,,8,,,80,127
72117,note_off,148,0,0,,8,,,80,127
72117,note_off,0,0,0,,8,,,68,127
72117,note_off,0,0,0,,12,,,59,127
72119,note_on,2,0,0,,10,,,81,127
72119,note_on,0,0,0,,1,,,61,127
72119,note_on,0,0,0,,10,,,69,127
72417,note_off,298,0,0,,10,,,69,127
72417,note_off,0,0,0,,1,,,61,127
72417,note_off,0,0,0,,10,,,81,127
72419,note_on,2,0,0,,1,,,85,127
72419,note_on,0,0,0,,1,,,61,127
72419,note_on,0,0,0,,10,,,69,127
72567,note_off,148,0,0,,1,,,85,127
72569,note_on,2,0,0,,10,,,81,127
72717,note_off,148,0,0,,10,,,81,127
72717,note_off,0,0,0,,10,,,69,127
72717,note_off,0,0,0,,1,,,61,127
72719,note_on,2,0,0,,4,,,76,127
72719,note_on,0,0,0,,10,,,69,127
72719,note_on,0,0,0,,1,,,61,127
73017,note_off,298,0,0,,1,,,61,127
73017,note_off,0,0,0,,10,,,69,127
73017,note_off,0,0,0,,4,,,76,127
73019,note_on,2,0,0,,7,,,79,127
73019,note_on,0,0,0,,1,,,61,127
73019,note_on,0,0,0,,10,,,69,127
73167,note_off,148,0,0,,7,,,79,127
73169,note_on,2,0,0,,4,,,76,127
73317,note_off,148,0,0,,4,,,76,127
73317,note_off,0,0,0,,10,,,69,127
73317,note_off,0,0,0,,1,,,61,127
73319,note_on,2,0,0,,6,,,78,127
73319,note_on,0,0,0,,10,,,69,127
73319,note_on,0,0,0,,2,,,62,127
73617,note_off,298,0,0,,2,,,62,127
73617,note_off,0,0,0,,10,,,69,127
73617,note_off,0,0,0,,6,,,78,127
73619,note_on,2,0,0,,10,,,81,127
73619,note_on,0,0,0,,2,,,62,127
73619,note_on,0,0,0,,10,,,69,127
73767,note_off,148,0,0,,10,,,81,127
73769,note_on,2,0,0,,2,,,74,127
73917,note_off,148,0,0,,2,,,74,127
73917,note_off,0,0,0,,10,,,69,127
73917,note_off,0,0,0,,2,,,62,127
73919,note_on,2,0,0,,1,,,73,127
73919,note_on,0,0,0,,10,,,57,127
74217,note_off,298,0,0,,10,,,57,127
74217,note_off,0,0,0,,1,,,73,127
74219,note_on,2,0,0,,4,,,76,127
74219,note_on,0,0,0,,7,,,55,127
74367,note_off,148,0,0,,4,,,76,127
74369,note_on,2,0,0,,10,,,69,127
74517,note_off,148,0,0,,10,,,69,127
74517,note_off,0,0,0,,7,,,55,127
74519,note_on,2,0,0,,2,,,74,127
74519,note_on,0,0,0,,6,,,54,127
74667,note_off,148,0,0,,2,,,74,127
74669,note_on,2,0,0,,4,,,76,127
74817,note_off,148,0,0,,4,,,76,127
74817,note_off,0,0,0,,6,,,54,127
74819,note_on,2,0,0,,6,,,78,127
74819,note_on,0,0,0,,6,,,54,127
74967,note_off,148,0,0,,6,,,78,127
74969,note_on,2,0,0,,4,,,76,127
75117,note_off,148,0,0,,4,,,76,127
75117,note_off,0,0,0,,6,,,54,127
75119,note_on,2,0,0,,2,,,74,127
75119,note_on,0,0,0,,6,,,54,127
75267,note_off,148,0,0,,2,,,74,127
75269,note_on,2,0,0,,1,,,73,127
75417,note_off,148,0,0,,1,,,73,127
75417,note_off,0,0,0,,6,,,54,127
75419,note_on,2,0,0,,12,,,71,127
75419,note_on,0,0,0,,6,,,54,127
75567,note_off,148,0,0,,12,,,71,127
75569,note_on,2,0,0,,10,,,69,127
75717,note_off,148,0,0,,10,,,69,127
75717,note_off,0,0,0,,6,,,54,127
75719,note_on,2,0,0,,12,,,71,127
75719,note_on,0,0,0,,2,,,50,127
75867,note_off,148,0,0,,12,,,71,127
75869,note_on,2,0,0,,1,,,73,127
76017,note_off,148,0,0,,1,,,73,127
76017,note_off,0,0,0,,2,,,50,127
76019,note_on,2,0,0,,2,,,74,127
76019,note_on,0,0,0,,2,,,50,127
76167,note_off,148,0,0,,2,,,74,127
76169,note_on,2,0,0,,1,,,73,127
76317,note_off,148,0,0,,1,,,73,127
76317,note_off,0,0,0,,2,,,50,127
76319,note_on,2,0,0,,12,,,71,127
76319,note_on,0,0,0,,2,,,50,127
76467,note_off,148,0,0,,12,,,71,127
76469,note_on,2,0,0,,10,,,69,127
76617,note_off,148,0,0,,10,,,69,127
76617,note_off,0,0,0,,2,,,50,127
76619,note_on,2,0,0,,8,,,68,127
76619,note_on,0,0,0,,2,,,50,127
76767,note_off,148,0,0,,8,,,68,127
76769,note_on,2,0,0,,6,,,66,127
76889,note_off,120,0,0,,2,,,50,127
76917,note_off,28,0,0,,6,,,66,127
76919,note_on,2,0,0,,4,,,64,127
76919,note_on,0,0,0,,4,,,40,127
78111,note_off,1192,0,0,,4,,,64,127
78114,note_off,3,0,0,,4,,,40,127
78164,note_on,50,0,0,,0,,,60,127
78462,note_off,298,0,0,,0,,,60,127
78464,note_on,2,0,0,,0,,,60,127
78464,note_on,0,0,0,,0,,,72,127
78612,note_off,148,0,0,,0,,,72,127
78614,note_on,2,0,0,,7,,,67,127
78762,note_off,148,0,0,,7,,,67,127
78762,note_off,0,0,0,,0,,,60,127
78764,note_on,2,0,0,,0,,,60,127
78764,note_on,0,0,0,,4,,,76,127
79062,note_off,298,0,0,,0,,,60,127
79064,note_on,2,0,0,,0,,,60,127
79362,note_off,298,0,0,,0,,,60,127
79364,note_on,2,0,0,,5,,,53,127
79364,note_on,0,0,0,,2,,,62,127
79662,note_off,298,0,0,,2,,,62,127
79662,note_off,0,0,0,,5,,,53,127
79662,note_off,0,0,0,,4,,,76,127
79664,note_on,2,0,0,,5,,,53,127
79664,note_on,0,0,0,,2,,,62,127
79664,note_on,0,0,0,,2,,,74,127
79812,note_off,148,0,0,,2,,,74,127
79814,note_on,2,0,0,,10,,,69,127
79962,note_off,148,0,0,,10,,,69,127
79962,note_off,0,0,0,,2,,,62,127
79962,note_off,0,0,0,,5,,,53,127
79964,note_on,2,0,0,,2,,,62,127
79964,note_on,0,0,0,,5,,,53,127
79964,note_on,0,0,0,,10,,,81,127
80262,note_off,298,0,0,,5,,,53,127
80262,note_off,0,0,0,,2,,,62,127
80264,note_on,2,0,0,,5,,,53,127
80264,note_on,0,0,0,,2,,,62,127
80562,note_off,298,0,0,,2,,,62,127
80562,note_off,0,0,0,,5,,,53,127
80564,note_on,2,0,0,,4,,,52,127
80564,note_on,0,0,0,,2,,,62,127
80862,note_off,298,0,0,,2,,,62,127
80862,note_off,0,0,0,,4,,,52,127
80862,note_off,0,0,0,,10,,,81,127
80864,note_on,2,0,0,,4,,,52,127
80864,note_on,0,0,0,,2,,,62,127
80864,note_on,0,0,0,,8,,,80,127
81012,note_off,148,0,0,,8,,,80,127
81014,note_on,2,0,0,,2,,,74,127
81162,note_off,148,0,0,,2,,,74,127
81162,note_off,0,0,0,,2,,,62,127
81162,note_off,0,0,0,,4,,,52,127
81164,note_on,2,0,0,,5,,,53,127
81164,note_on,0,0,0,,2,,,62,127
81164,note_on,0,0,0,,2,,,86,127
81462,note_off,298,0,0,,2,,,62,127
81462,note_off,0,0,0,,5,,,53,127
81464,note_on,2,0,0,,5,,,53,127
81464,note_on,0,0,0,,2,,,62,127
81762,note_off,298,0,0,,2,,,62,127
81762,note_off,0,0,0,,5,,,53,127
81764,note_on,2,0,0,,4,,,52,127
81764,note_on,0,0,0,,2,,,62,127
82062,note_off,298,0,0,,2,,,62,127
82062,note_off,0,0,0,,4,,,52,127
82062,note_off,0,0,0,,2,,,86,127
82064,note_on,2,0,0,,4,,,52,127
82064,note_on,0,0,0,,2,,,62,127
82064,note_on,0,0,0,,8,,,80,127
82212,note_off,148,0,0,,8,,,80,127
82214,note_on,2,0,0,,2,,,74,127
82362,note_off,148,0,0,,2,,,74,127
82362,note_off,0,0,0,,2,,,62,127
82362,note_off,0,0,0,,4,,,52,127
82364,note_on,2,0,0,,2,,,62,127
82364,note_on,0,0,0,,5,,,53,127
82364,note_on,0,0,0,,2,,,86,127
82662,note_off,298,0,0,,5,,,53,127
82662,note_off,0,0,0,,2,,,62,127
82664,note_on,2,0,0,,5,,,53,127
82664,note_on,0,0,0,,2,,,62,127
82962,note_off,298,0,0,,2,,,62,127
82962,note_off,0,0,0,,5,,,53,127
82964,note_on,2,0,0,,4,,,52,127
82964,note_on,0,0,0,,2,,,62,127
83112,note_off,148,0,0,,2,,,86,127
83114,note_on,2,0,0,,0,,,84,127
83262,note_off,148,0,0,,0,,,84,127
83262,note_off,0,0,0,,2,,,62,127
83262,note_off,0,0,0,,4,,,52,127
83264,note_on,2,0,0,,4,,,52,127
83264,note_on,0,0,0,,2,,,62,127
83264,note_on,0,0,0,,12,,,83,127
83412,note_off,148,0,0,,12,,,83,127
83414,note_on,2,0,0,,10,,,81,127
83562,note_off,148,0,0,,10,,,81,127
83562,note_off,0,0,0,,2,,,62,127
83562,note_off,0,0,0,,4,,,52,127
83564,note_on,2,0,0,,2,,,62,127
83564,note_on,0,0,0,,4,,,52,127
83564,note_on,0,0,0,,8,,,80,127
83712,note_off,148,0,0,,8,,,80,127
83714,note_on,2,0,0,,5,,,77,127
83862,note_off,148,0,0,,5,,,77,127
83862,note_off,0,0,0,,4,,,52,127
83862,note_off,0,0,0,,2,,,62,127
83864,note_on,2,0,0,,2,,,62,127
83864,note_on,0,0,0,,4,,,52,127
83864,note_on,0,0,0,,4,,,76,127
84012,note_off,148,0,0,,4,,,76,127
84014,note_on,2,0,0,,2,,,74,127
84162,note_off,148,0,0,,2,,,74,127
84162,note_off,0,0,0,,4,,,52,127
84162,note_off,0,0,0,,2,,,62,127
84164,note_on,2,0,0,,10,,,57,127
84164,note_on,0,0,0,,0,,,60,127
84164,note_on,0,0,0,,0,,,72,127
84312,note_off,148,0,0,,0,,,72,127
84314,note_on,2,0,0,,12,,,71,127
84462,note_off,148,0,0,,12,,,71,127
84462,note_off,0,0,0,,0,,,60,127
84462,note_off,0,0,0,,10,,,57,127
84464,note_on,2,0,0,,10,,,57,127
84464,note_on,0,0,0,,0,,,60,127
84464,note_on,0,0,0,,10,,,69,127
84612,note_off,148,0,0,,10,,,69,127
84614,note_on,2,0,0,,7,,,67,127
84762,note_off,148,0,0,,7,,,67,127
84762,note_off,0,0,0,,0,,,60,127
84762,note_off,0,0,0,,10,,,57,127
84764,note_on,2,0,0,,2,,,50,127
84764,note_on,0,0,0,,5,,,65,127
85062,note_off,298,0,0,,2,,,50,127
85064,note_on,2,0,0,,2,,,50,127
85314,note_off,250,0,0,,5,,,65,127
85334,note_off,20,0,0,,2,,,50,127
85364,note_on,30,0,0,,4,,,40,127
85364,note_on,0,0,0,,4,,,64,127
86556,note_off,1192,0,0,,4,,,64,127
86559,note_off,3,0,0,,4,,,40,127
86577,note_on,18,0,0,,0,,,60,127
86875,note_off,298,0,0,,0,,,60,127
86877,note_on,2,0,0,,0,,,72,127
86877,note_on,0,0,0,,0,,,60,127
87025,note_off,148,0,0,,0,,,72,127
87027,note_on,2,0,0,,7,,,67,127
87175,note_off,148,0,0,,7,,,67,127
87175,note_off,0,0,0,,0,,,60,127
87177,note_on,2,0,0,,4,,,76,127
87177,note_on,0,0,0,,0,,,60,127
87475,note_off,298,0,0,,0,,,60,127
87477,note_on,2,0,0,,0,,,60,127
87775,note_off,298,0,0,,0,,,60,127
87777,note_on,2,0,0,,2,,,62,127
87777,note_on,0,0,0,,5,,,53,127
88075,note_off,298,0,0,,5,,,53,127
88075,note_off,0,0,0,,2,,,62,127
88075,note_off,0,0,0,,4,,,76,127
88077,note_on,2,0,0,,2,,,74,127
88077,note_on,0,0,0,,2,,,62,127
88077,note_on,0,0,0,,5,,,53,127
88225,note_off,148,0,0,,2,,,74,127
88227,note_on,2,0,0,,10,,,69,127
88375,note_off,148,0,0,,10,,,69,127
88375,note_off,0,0,0,,5,,,53,127
88375,note_off,0,0,0,,2,,,62,127
88377,note_on,2,0,0,,10,,,81,127
88377,note_on,0,0,0,,2,,,62,127
88377,note_on,0,0,0,,5,,,53,127
88675,note_off,298,0,0,,5,,,53,127
88675,note_off,0,0,0,,2,,,62,127
88677,note_on,2,0,0,,2,,,62,127
88677,note_on,0,0,0,,5,,,53,127
88975,note_off,298,0,0,,5,,,53,127
88975,note_off,0,0,0,,2,,,62,127
88977,note_on,2,0,0,,2,,,62,127
88977,note_on,0,0,0,,4,,,52,127
89275,note_off,298,0,0,,4,,,52,127
89275,note_off,0,0,0,,2,,,62,127
89275,note_off,0,0,0,,10,,,81,127
89277,note_on,2,0,0,,8,,,80,127
89277,note_on,0,0,0,,2,,,62,127
89277,note_on,0,0,0,,4,,,52,127
89425,note_off,148,0,0,,8,,,80,127
89427,note_on,2,0,0,,2,,,74,127
89575,note_off,148,0,0,,2,,,74,127
89575,note_off,0,0,0,,4,,,52,127
89575,note_off,0,0,0,,2,,,62,127
89577,note_on,2,0,0,,2,,,86,127
89577,note_on,0,0,0,,2,,,62,127
89577,note_on,0,0,0,,5,,,53,127
89875,note_off,298,0,0,,5,,,53,127
89875,note_off,0,0,0,,2,,,62,127
89877,note_on,2,0,0,,2,,,62,127
89877,note_on,0,0,0,,5,,,53,127
90175,note_off,298,0,0,,5,,,53,127
90175,note_off,0,0,0,,2,,,62,127
90177,note_on,2,0,0,,2,,,62,127
90177,note_on,0,0,0,,4,,,52,127
90475,note_off,298,0,0,,4,,,52,127
90475,note_off,0,0,0,,2,,,62,127
90475,note_off,0,0,0,,2,,,86,127
90477,note_on,2,0,0,,8,,,80,127
90477,note_on,0,0,0,,4,,,52,127
90477,note_on,0,0,0,,2,,,62,127
90625,note_off,148,0,0,,8,,,80,127
90627,note_on,2,0,0,,2,,,74,127
90775,note_off,148,0,0,,2,,,74,127
90775,note_off,0,0,0,,2,,,62,127
90775,note_off,0,0,0,,4,,,52,127
90777,note_on,2,0,0,,2,,,86,127
90777,note_on,0,0,0,,5,,,53,127
90777,note_on,0,0,0,,2,,,62,127
91075,note_off,298,0,0,,2,,,62,127
91075,note_off,0,0,0,,5,,,53,127
91077,note_on,2,0,0,,2,,,62,127
91077,note_on,0,0,0,,5,,,53,127
91375,note_off,298,0,0,,5,,,53,127
91375,note_off,0,0,0,,2,,,62,127
91377,note_on,2,0,0,,2,,,62,127
91377,note_on,0,0,0,,4,,,52,127
91525,note_off,148,0,0,,2,,,86,127
91527,note_on,2,0,0,,0,,,84,127
91675,note_off,148,0,0,,0,,,84,127
91677,note_on,2,0,0,,12,,,83,127
91825,note_off,148,0,0,,12,,,83,127
91827,note_on,2,0,0,,10,,,81,127
91975,note_off,148,0,0,,10,,,81,127
91976,note_off,1,0,0,,4,,,52,127
91976,note_off,0,0,0,,2,,,62,127
91977,note_on,1,0,0,,8,,,80,127
92125,note_off,148,0,0,,8,,,80,127
92127,note_on,2,0,0,,5,,,77,127
92275,note_off,148,0,0,,5,,,77,127
92277,note_on,2,0,0,,4,,,76,127
92416,note_on,139,0,0,,2,,,74,127
92425,note_off,9,0,0,,4,,,76,127
92481,note_on,56,0,0,,4,,,76,127
92487,note_off,6,0,0,,2,,,74,127
92546,note_on,59,0,0,,2,,,74,127
92552,note_off,6,0,0,,4,,,76,127
92606,note_off,54,0,0,,2,,,74,127
92625,note_on,19,0,0,,1,,,73,127
92773,note_off,148,0,0,,1,,,73,127
92775,note_on,2,0,0,,2,,,74,127
92923,note_off,148,0,0,,2,,,74,127
92925,note_on,2,0,0,,1,,,49,127
92925,note_on,0,0,0,,4,,,76,127
93073,note_off,148,0,0,,4,,,76,127
93075,note_on,2,0,0,,10,,,69,127
93223,note_off,148,0,0,,10,,,69,127
93223,note_off,0,0,0,,1,,,49,127
93225,note_on,2,0,0,,2,,,50,127
93225,note_on,0,0,0,,12,,,71,127
93523,note_off,298,0,0,,2,,,50,127
93525,note_on,2,0,0,,4,,,52,127
93823,note_off,298,0,0,,4,,,52,127
93823,note_off,0,0,0,,12,,,71,127
93825,note_on,2,0,0,,10,,,57,127
93825,note_on,0,0,0,,10,,,69,127
94123,note_off,298,0,0,,10,,,69,127
94123,note_off,0,0,0,,10,,,57,127
94125,note_on,2,0,0,,1,,,61,127
94125,note_on,0,0,0,,4,,,76,127
94273,note_off,148,0,0,,4,,,76,127
94275,note_on,2,0,0,,4,,,64,127
94423,note_off,148,0,0,,4,,,64,127
94423,note_off,0,0,0,,1,,,61,127
94425,note_on,2,0,0,,12,,,59,127
94425,note_on,0,0,0,,8,,,68,127
94723,note_off,298,0,0,,8,,,68,127
94723,note_off,0,0,0,,12,,,59,127
94725,note_on,2,0,0,,4,,,52,127
94725,note_on,0,0,0,,2,,,74,127
94873,note_off,148,0,0,,2,,,74,127
94875,note_on,2,0,0,,8,,,68,127
95023,note_off,148,0,0,,8,,,68,127
95023,note_off,0,0,0,,4,,,52,127
95025,note_on,2,0,0,,10,,,57,127
95025,note_on,0,0,0,,1,,,73,127
95323,note_off,298,0,0,,1,,,73,127
95323,note_off,0,0,0,,10,,,57,127
95325,note_on,2,0,0,,1,,,61,127
95325,note_on,0,0,0,,4,,,76,127
95473,note_off,148,0,0,,4,,,76,127
95475,note_on,2,0,0,,4,,,64,127
95623,note_off,148,0,0,,4,,,64,127
95623,note_off,0,0,0,,1,,,61,127
95625,note_on,2,0,0,,12,,,59,127
95625,note_on,0,0,0,,8,,,68,127
95923,note_off,298,0,0,,8,,,68,127
95923,note_off,0,0,0,,12,,,59,127
95925,note_on,2,0,0,,4,,,52,127
95925,note_on,0,0,0,,2,,,74,127
96073,note_off,148,0,0,,2,,,74,127
96075,note_on,2,0,0,,8,,,68,127
96223,note_off,148,0,0,,8,,,68,127
96223,note_off,0,0,0,,4,,,52,127
96225,note_on,2,0,0,,10,,,57,127
96225,note_on,0,0,0,,1,,,73,127
96523,note_off,298,0,0,,1,,,73,127
96523,note_off,0,0,0,,10,,,57,127
96525,note_on,2,0,0,,1,,,61,127
96525,note_on,0,0,0,,10,,,81,127
96673,note_off,148,0,0,,10,,,81,127
96675,note_on,2,0,0,,4,,,76,127
96823,note_off,148,0,0,,4,,,76,127
96823,note_off,0,0,0,,1,,,61,127
96825,note_on,2,0,0,,2,,,62,127
96825,note_on,0,0,0,,6,,,78,127
97123,note_off,298,0,0,,6,,,78,127
97123,note_off,0,0,0,,2,,,62,127
97125,note_on,2,0,0,,12,,,59,127
97125,note_on,0,0,0,,2,,,86,127
97273,note_off,148,0,0,,2,,,86,127
97275,note_on,2,0,0,,8,,,80,127
97423,note_off,148,0,0,,8,,,80,127
97423,note_off,0,0,0,,12,,,59,127
97425,note_on,2,0,0,,1,,,61,127
97425,note_on,0,0,0,,10,,,81,127
97573,note_off,148,0,0,,10,,,81,127
97575,note_on,2,0,0,,4,,,76,127
97723,note_off,148,0,0,,4,,,76,127
97723,note_off,0,0,0,,1,,,61,127
97725,note_on,2,0,0,,2,,,62,127
97725,note_on,0,0,0,,6,,,78,127
97873,note_off,148,0,0,,6,,,78,127
97875,note_on,2,0,0,,2,,,74,127
98023,note_off,148,0,0,,2,,,74,127
98023,note_off,0,0,0,,2,,,62,127
98025,note_on,2,0,0,,4,,,64,127
98025,note_on,0,0,0,,1,,,73,127
98323,note_off,298,0,0,,1,,,73,127
98323,note_off,0,0,0,,4,,,64,127
98325,note_on,2,0,0,,4,,,52,127
98325,note_on,0,0,0,,12,,,71,127
98387,note_off,62,0,0,,12,,,71,127
98387,note_on,0,0,0,,1,,,73,127
98449,note_off,62,0,0,,1,,,73,127
98449,note_on,0,0,0,,12,,,71,127
98620,note_off,171,0,0,,4,,,52,127
98623,note_on,3,0,0,,10,,,69,127
98628,note_off,5,0,0,,12,,,71,127
98771,note_off,143,0,0,,10,,,69,127
98773,note_on,2,0,0,,4,,,76,127
98921,note_off,148,0,0,,4,,,76,127
98923,note_on,2,0,0,,10,,,57,127
98923,note_on,0,0,0,,1,,,73,127
99071,note_off,148,0,0,,1,,,73,127
99073,note_on,2,0,0,,10,,,69,127
99221,note_off,148,0,0,,10,,,69,127
99221,note_off,0,0,0,,10,,,57,127
99223,note_on,2,0,0,,8,,,56,127
99223,note_on,0,0,0,,4,,,64,127
99371,note_off,148,0,0,,4,,,64,127
99373,note_on,2,0,0,,2,,,74,127
99521,note_off,148,0,0,,2,,,74,127
99521,note_off,0,0,0,,8,,,56,127
99523,note_on,2,0,0,,4,,,52,127
99523,note_on,0,0,0,,12,,,71,127
99671,note_off,148,0,0,,12,,,71,127
99673,note_on,2,0,0,,8,,,68,127
99819,note_off,146,0,0,,4,,,52,127
99821,note_off,2,0,0,,8,,,68,127
99823,note_on,2,0,0,,4,,,64,127
99971,note_off,148,0,0,,4,,,64,127
99973,note_on,2,0,0,,4,,,76,127
100121,note_off,148,0,0,,4,,,76,127
100123,note_on,2,0,0,,10,,,57,127
100123,note_on,0,0,0,,1,,,73,127
100271,note_off,148,0,0,,1,,,73,127
100273,note_on,2,0,0,,10,,,69,127
100421,note_off,148,0,0,,10,,,69,127
100421,note_off,0,0,0,,10,,,57,127
100423,note_on,2,0,0,,8,,,56,127
100423,note_on,0,0,0,,4,,,64,127
100571,note_off,148,0,0,,4,,,64,127
100573,note_on,2,0,0,,2,,,74,127
100721,note_off,148,0,0,,2,,,74,127
100721,note_off,0,0,0,,8,,,56,127
100723,note_on,2,0,0,,4,,,52,127
100723,note_on,0,0,0,,12,,,71,127
100871,note_off,148,0,0,,12,,,71,127
100873,note_on,2,0,0,,8,,,68,127
101019,note_off,146,0,0,,4,,,52,127
101021,note_off,2,0,0,,8,,,68,127
101023,note_on,2,0,0,,4,,,64,127
101171,note_off,148,0,0,,4,,,64,127
101173,note_on,2,0,0,,4,,,76,127
101321,note_off,148,0,0,,4,,,76,127
101323,note_on,2,0,0,,10,,,57,127
101323,note_on,0,0,0,,1,,,73,127
101471,note_off,148,0,0,,1,,,73,127
101473,note_on,2,0,0,,10,,,69,127
101621,note_off,148,0,0,,10,,,69,127
101621,note_off,0,0,0,,10,,,57,127
101623,note_on,2,0,0,,8,,,56,127
101623,note_on,0,0,0,,4,,,64,127
101771,note_off,148,0,0,,4,,,64,127
101773,note_on,2,0,0,,2,,,74,127
101921,note_off,148,0,0,,2,,,74,127
101921,note_off,0,0,0,,8,,,56,127
101923,note_on,2,0,0,,4,,,52,127
101923,note_on,0,0,0,,12,,,71,127
102071,note_off,148,0,0,,12,,,71,127
102073,note_on,2,0,0,,8,,,68,127
102221,note_off,148,0,0,,8,,,68,127
102221,note_off,0,0,0,,4,,,52,127
102223,note_on,2,0,0,,1,,,49,127
102223,note_on,0,0,0,,10,,,81,127
102371,note_off,148,0,0,,10,,,81,127
102373,note_on,2,0,0,,10,,,69,127
102521,note_off,148,0,0,,10,,,69,127
102521,note_off,0,0,0,,1,,,49,127
102523,note_on,2,0,0,,2,,,50,127
102523,note_on,0,0,0,,2,,,74,127
102671,note_off,148,0,0,,2,,,74,127
102673,note_on,2,0,0,,12,,,71,127
102821,note_off,148,0,0,,12,,,71,127
102821,note_off,0,0,0,,2,,,50,127
102823,note_on,2,0,0,,4,,,52,127
102823,note_on,0,0,0,,1,,,73,127
102823,note_on,0,0,0,,10,,,69,127
103121,note_off,298,0,0,,10,,,69,127
103121,note_off,0,0,0,,1,,,73,127
103121,note_off,0,0,0,,4,,,52,127
103123,note_on,2,0,0,,4,,,40,127
103123,note_on,0,0,0,,12,,,71,127
103123,note_on,0,0,0,,8,,,68,127
103419,note_off,296,0,0,,4,,,40,127
103421,note_off,2,0,0,,8,,,68,127
103421,note_off,0,0,0,,12,,,71,127
103439,note_on,18,0,0,,10,,,69,127
103587,note_off,148,0,0,,10,,,69,127
103589,note_on,2,0,0,,4,,,76,127
103737,note_off,148,0,0,,4,,,76,127
103739,note_on,2,0,0,,1,,,73,127
103739,note_on,0,0,0,,10,,,57,127
103887,note_off,148,0,0,,1,,,73,127
103889,note_on,2,0,0,,10,,,69,127
104037,note_off,148,0,0,,10,,,69,127
104037,note_off,0,0,0,,10,,,57,127
104039,note_on,2,0,0,,4,,,64,127
104039,note_on,0,0,0,,8,,,56,127
104187,note_off,148,0,0,,4,,,64,127
104189,note_on,2,0,0,,2,,,74,127
104337,note_off,148,0,0,,2,,,74,127
104337,note_off,0,0,0,,8,,,56,127
104339,note_on,2,0,0,,12,,,71,127
104339,note_on,0,0,0,,4,,,52,127
104487,note_off,148,0,0,,12,,,71,127
104489,note_on,2,0,0,,8,,,68,127
104635,note_off,146,0,0,,4,,,52,127
104637,note_off,2,0,0,,8,,,68,127
104639,note_on,2,0,0,,4,,,64,127
104787,note_off,148,0,0,,4,,,64,127
104789,note_on,2,0,0,,4,,,76,127
104937,note_off,148,0,0,,4,,,76,127
104939,note_on,2,0,0,,1,,,73,127
104939,note_on,0,0,0,,10,,,57,127
105087,note_off,148,0,0,,1,,,73,127
105089,note_on,2,0,0,,10,,,69,127
105237,note_off,148,0,0,,10,,,69,127
105237,note_off,0,0,0,,10,,,57,127
105239,note_on,2,0,0,,4,,,64,127
105239,note_on,0,0,0,,8,,,56,127
105387,note_off,148,0,0,,4,,,64,127
105389,note_on,2,0,0,,2,,,74,127
105537,note_off,148,0,0,,2,,,74,127
105537,note_off,0,0,0,,8,,,56,127
105539,note_on,2,0,0,,12,,,71,127
105539,note_on,0,0,0,,4,,,52,127
105687,note_off,148,0,0,,12,,,71,127
105689,note_on,2,0,0,,8,,,68,127
105835,note_off,146,0,0,,4,,,52,127
105837,note_off,2,0,0,,8,,,68,127
105839,note_on,2,0,0,,4,,,64,127
105987,note_off,148,0,0,,4,,,64,127
105989,note_on,2,0,0,,4,,,76,127
106137,note_off,148,0,0,,4,,,76,127
106139,note_on,2,0,0,,1,,,73,127
106139,note_on,0,0,0,,10,,,57,127
106287,note_off,148,0,0,,1,,,73,127
106289,note_on,2,0,0,,10,,,69,127
106437,note_off,148,0,0,,10,,,69,127
106437,note_off,0,0,0,,10,,,57,127
106439,note_on,2,0,0,,4,,,64,127
106439,note_on,0,0,0,,8,,,56,127
106587,note_off,148,0,0,,4,,,64,127
106589,note_on,2,0,0,,2,,,74,127
106737,note_off,148,0,0,,2,,,74,127
106737,note_off,0,0,0,,8,,,56,127
106739,note_on,2,0,0,,12,,,71,127
106739,note_on,0,0,0,,4,,,52,127
106887,note_off,148,0,0,,12,,,71,127
106889,note_on,2,0,0,,8,,,68,127
107037,note_off,148,0,0,,8,,,68,127
107037,note_off,0,0,0,,4,,,52,127
107051,note_on,14,0,0,,10,,,81,127
107055,note_on,4,0,0,,1,,,49,127
107205,note_on,150,0,0,,10,,,69,127
107331,note_off,126,0,0,,10,,,81,127
107353,note_off,22,0,0,,10,,,69,127
107353,note_off,0,0,0,,1,,,49,127
107355,note_on,2,0,0,,2,,,50,127
107355,note_on,0,0,0,,2,,,74,127
107503,note_off,148,0,0,,2,,,74,127
107505,note_on,2,0,0,,12,,,71,127
107653,note_off,148,0,0,,12,,,71,127
107653,note_off,0,0,0,,2,,,50,127
107655,note_on,2,0,0,,4,,,52,127
107655,note_on,0,0,0,,10,,,69,127
107655,note_on,0,0,0,,1,,,73,127
107953,note_off,298,0,0,,1,,,73,127
107953,note_off,0,0,0,,10,,,69,127
107953,note_off,0,0,0,,4,,,52,127
107971,note_on,18,0,0,,12,,,71,127
107971,note_on,0,0,0,,8,,,68,127
107971,note_on,0,0,0,,4,,,40,127
108269,note_off,298,0,0,,4,,,40,127
108269,note_off,0,0,0,,8,,,68,127
108269,note_off,0,0,0,,12,,,71,127
108303,note_on,34,0,0,,10,,,69,127
108303,note_on,0,0,0,,10,,,45,127
110103,note_off,1800,0,0,,10,,,45,127
110103,note_off,0,0,0,,10,,,69,127
110592,end_of_track,489,1,0,,,,,,
