tick,type,time,meta,track,program,channel,pitch,tempo,note,velocity
0,copyright,0,1,0,,,,,,
0,program_change,0,0,0,6,0,,,,
0,pitchwheel,0,0,0,,0,0,,,
0,program_change,0,0,0,6,1,,,,
0,pitchwheel,0,0,0,,1,-590,,,
0,program_change,0,0,0,6,2,,,,
0,pitchwheel,0,0,0,,2,-272,,,
0,program_change,0,0,0,6,3,,,,
0,pitchwheel,0,0,0,,3,-353,,,
0,program_change,0,0,0,6,4,,,,
0,pitchwheel,0,0,0,,4,-560,,,
0,program_change,0,0,0,6,5,,,,
0,pitchwheel,0,0,0,,5,-80,,,
0,program_change,0,0,0,6,6,,,,
0,pitchwheel,0,0,0,,6,-625,,,
0,program_change,0,0,0,6,7,,,,
0,pitchwheel,0,0,0,,7,-130,,,
0,program_change,0,0,0,6,8,,,,
0,pitchwheel,0,0,0,,8,-512,,,
0,program_change,0,0,0,6,10,,,,
0,pitchwheel,0,0,0,,10,-464,,,
0,program_change,0,0,0,6,11,,,,
0,pitchwheel,0,0,0,,11,-208,,,
0,program_change,0,0,0,6,12,,,,
0,pitchwheel,0,0,0,,12,-553,,,
0,set_tempo,0,1,0,,,,500000,,
48,note_on,48,0,0,,4,,,64,127
185,note_off,137,0,0,,4,,,64,127
187,note_on,2,0,0,,10,,,69,127
324,note_off,137,0,0,,10,,,69,127
326,note_on,2,0,0,,1,,,73,127
463,note_off,137,0,0,,1,,,73,127
465,note_on,2,0,0,,4,,,76,127
882,note_off,417,0,0,,4,,,76,127
884,note_on,2,0,0,,4,,,76,127
1301,note_off,417,0,0,,4,,,76,127
1303,note_on,2,0,0,,4,,,64,127
1303,note_on,0,0,0,,2,,,74,127
1440,note_off,137,0,0,,2,,,74,127
1442,note_on,2,0,0,,4,,,76,127
1579,note_off,137,0,0,,4,,,76,127
1581,note_on,2,0,0,,6,,,78,127
1718,note_off,137,0,0,,6,,,78,127
1718,note_off,0,0,0,,4,,,64,127
1720,note_on,2,0,0,,1,,,61,127
1720,note_on,0,0,0,,4,,,76,127
2137,note_off,417,0,0,,1,,,61,127
2139,note_on,2,0,0,,10,,,57,127
2556,note_off,417,0,0,,10,,,57,127
2556,note_off,0,0,0,,4,,,76,127
2558,note_on,2,0,0,,4,,,52,127
2558,note_on,0,0,0,,4,,,64,127
2695,note_off,137,0,0,,4,,,64,127
2697,note_on,2,0,0,,8,,,68,127
2834,note_off,137,0,0,,8,,,68,127
2836,note_on,2,0,0,,12,,,71,127
2973,note_off,137,0,0,,12,,,71,127
2975,note_on,2,0,0,,2,,,74,127
3392,note_off,417,0,0,,2,,,74,127
3394,note_on,2,0,0,,2,,,74,127
3658,note_off,264,0,0,,4,,,52,127
3811,note_off,153,0,0,,2,,,74,127
3813,note_on,2,0,0,,12,,,59,127
3813,note_on,0,0,0,,1,,,73,127
3950,note_off,137,0,0,,1,,,73,127
3952,note_on,2,0,0,,2,,,74,127
4089,note_off,137,0,0,,2,,,74,127
4091,note_on,2,0,0,,4,,,76,127
4228,note_off,137,0,0,,4,,,76,127
4228,note_off,0,0,0,,12,,,59,127
4230,note_on,2,0,0,,8,,,56,127
4230,note_on,0,0,0,,2,,,74,127
4647,note_off,417,0,0,,8,,,56,127
4649,note_on,2,0,0,,4,,,52,127
5066,note_off,417,0,0,,4,,,52,127
5066,note_off,0,0,0,,2,,,74,127
5068,note_on,2,0,0,,1,,,49,127
5068,note_on,0,0,0,,10,,,69,127
5205,note_off,137,0,0,,10,,,69,127
5207,note_on,2,0,0,,1,,,73,127
5344,note_off,137,0,0,,1,,,73,127
5346,note_on,2,0,0,,4,,,76,127
5483,note_off,137,0,0,,4,,,76,127
5485,note_on,2,0,0,,10,,,81,127
5902,note_off,417,0,0,,10,,,81,127
5904,note_on,2,0,0,,10,,,81,127
6321,note_off,417,0,0,,10,,,81,127
6321,note_off,0,0,0,,1,,,49,127
6323,note_on,2,0,0,,2,,,50,127
6323,note_on,0,0,0,,12,,,71,127
6740,note_off,417,0,0,,2,,,50,127
6742,note_on,2,0,0,,4,,,52,127
6879,note_off,137,0,0,,12,,,71,127
6881,note_on,2,0,0,,6,,,78,127
7018,note_off,137,0,0,,6,,,78,127
7020,note_on,2,0,0,,4,,,76,127
7157,note_off,137,0,0,,4,,,76,127
7157,note_off,0,0,0,,4,,,52,127
7159,note_on,2,0,0,,8,,,56,127
7159,note_on,0,0,0,,2,,,74,127
7296,note_off,137,0,0,,2,,,74,127
7298,note_on,2,0,0,,1,,,73,127
7435,note_off,137,0,0,,1,,,73,127
7437,note_on,2,0,0,,12,,,71,127
7574,note_off,137,0,0,,12,,,71,127
7574,note_off,0,0,0,,8,,,56,127
7576,note_on,2,0,0,,10,,,57,127
7576,note_on,0,0,0,,12,,,71,127
7853,note_off,277,0,0,,12,,,71,127
7855,note_on,2,0,0,,1,,,73,127
7992,note_off,137,0,0,,10,,,57,127
7994,note_on,2,0,0,,12,,,59,127
8131,note_off,137,0,0,,1,,,73,127
8133,note_on,2,0,0,,4,,,76,127
8270,note_off,137,0,0,,4,,,76,127
8272,note_on,2,0,0,,2,,,74,127
8409,note_off,137,0,0,,2,,,74,127
8409,note_off,0,0,0,,12,,,59,127
8411,note_on,2,0,0,,1,,,61,127
8411,note_on,0,0,0,,1,,,73,127
8548,note_off,137,0,0,,1,,,73,127
8550,note_on,2,0,0,,12,,,71,127
8687,note_off,137,0,0,,12,,,71,127
8689,note_on,2,0,0,,10,,,69,127
8826,note_off,137,0,0,,10,,,69,127
8826,note_off,0,0,0,,1,,,61,127
8828,note_on,2,0,0,,2,,,62,127
8828,note_on,0,0,0,,10,,,69,127
9105,note_off,277,0,0,,10,,,69,127
9107,note_on,2,0,0,,12,,,71,127
9244,note_off,137,0,0,,2,,,62,127
9246,note_on,2,0,0,,2,,,50,127
9383,note_off,137,0,0,,12,,,71,127
9385,note_on,2,0,0,,2,,,74,127
9522,note_off,137,0,0,,2,,,74,127
9524,note_on,2,0,0,,1,,,73,127
9661,note_off,137,0,0,,1,,,73,127
9663,note_on,2,0,0,,12,,,71,127
9800,note_off,137,0,0,,12,,,71,127
9802,note_on,2,0,0,,10,,,69,127
9846,note_off,44,0,0,,2,,,50,127
9939,note_off,93,0,0,,10,,,69,127
9941,note_on,2,0,0,,8,,,68,127
10069,note_off,128,0,0,,8,,,68,127
10080,note_on,11,0,0,,2,,,62,127
10080,note_on,0,0,0,,6,,,78,127
10217,note_off,137,0,0,,6,,,78,127
10219,note_on,2,0,0,,4,,,76,127
10356,note_off,137,0,0,,4,,,76,127
10358,note_on,2,0,0,,2,,,74,127
10495,note_off,137,0,0,,2,,,74,127
10495,note_off,0,0,0,,2,,,62,127
10497,note_on,2,0,0,,4,,,64,127
10497,note_on,0,0,0,,1,,,73,127
10914,note_off,417,0,0,,1,,,73,127
10914,note_off,0,0,0,,4,,,64,127
10916,note_on,2,0,0,,4,,,52,127
10916,note_on,0,0,0,,12,,,71,127
11046,note_on,130,0,0,,1,,,73,127
11053,note_off,7,0,0,,12,,,71,127
11176,note_on,123,0,0,,12,,,71,127
11183,note_off,7,0,0,,1,,,73,127
11313,note_off,130,0,0,,12,,,71,127
11333,note_off,20,0,0,,4,,,52,127
11335,note_on,2,0,0,,10,,,57,127
11335,note_on,0,0,0,,10,,,69,127
11754,note_on,419,0,0,,10,,,45,127
12135,note_off,381,0,0,,10,,,57,127
12590,note_off,455,0,0,,10,,,69,127
12591,note_off,1,0,0,,10,,,45,127
12592,note_on,1,0,0,,4,,,64,127
12729,note_off,137,0,0,,4,,,64,127
12731,note_on,2,0,0,,10,,,69,127
12868,note_off,137,0,0,,10,,,69,127
12870,note_on,2,0,0,,1,,,73,127
13007,note_off,137,0,0,,1,,,73,127
13009,note_on,2,0,0,,1,,,73,127
13426,note_off,417,0,0,,1,,,73,127
13428,note_on,2,0,0,,1,,,61,127
13428,note_on,0,0,0,,4,,,76,127
13845,note_off,417,0,0,,1,,,61,127
13847,note_on,2,0,0,,12,,,59,127
14264,note_off,417,0,0,,12,,,59,127
14264,note_off,0,0,0,,4,,,76,127
14266,note_on,2,0,0,,8,,,56,127
14266,note_on,0,0,0,,2,,,74,127
14683,note_off,417,0,0,,2,,,74,127
14683,note_off,0,0,0,,8,,,56,127
14685,note_on,2,0,0,,10,,,57,127
14685,note_on,0,0,0,,1,,,73,127
15102,note_off,417,0,0,,1,,,73,127
15102,note_off,0,0,0,,10,,,57,127
15104,note_on,2,0,0,,4,,,64,127
15241,note_off,137,0,0,,4,,,64,127
15243,note_on,2,0,0,,10,,,69,127
15380,note_off,137,0,0,,10,,,69,127
15382,note_on,2,0,0,,1,,,73,127
15519,note_off,137,0,0,,1,,,73,127
15521,note_on,2,0,0,,1,,,73,127
15938,note_off,417,0,0,,1,,,73,127
15940,note_on,2,0,0,,1,,,61,127
15940,note_on,0,0,0,,4,,,76,127
16357,note_off,417,0,0,,1,,,61,127
16359,note_on,2,0,0,,12,,,59,127
16776,note_off,417,0,0,,12,,,59,127
16776,note_off,0,0,0,,4,,,76,127
16778,note_on,2,0,0,,8,,,56,127
16778,note_on,0,0,0,,2,,,74,127
16915,note_off,137,0,0,,2,,,74,127
16917,note_on,2,0,0,,1,,,73,127
17054,note_off,137,0,0,,1,,,73,127
17056,note_on,2,0,0,,2,,,74,127
17193,note_off,137,0,0,,2,,,74,127
17193,note_off,0,0,0,,8,,,56,127
17195,note_on,2,0,0,,10,,,57,127
17195,note_on,0,0,0,,1,,,73,127
17612,note_off,417,0,0,,1,,,73,127
17612,note_off,0,0,0,,10,,,57,127
17614,note_on,2,0,0,,10,,,69,127
17751,note_off,137,0,0,,10,,,69,127
17753,note_on,2,0,0,,1,,,73,127
17890,note_off,137,0,0,,1,,,73,127
17892,note_on,2,0,0,,4,,,76,127
18029,note_off,137,0,0,,4,,,76,127
18031,note_on,2,0,0,,1,,,49,127
18031,note_on,0,0,0,,10,,,81,127
18448,note_off,417,0,0,,10,,,81,127
18448,note_off,0,0,0,,1,,,49,127
18450,note_on,2,0,0,,10,,,45,127
18450,note_on,0,0,0,,1,,,73,127
18867,note_off,417,0,0,,1,,,73,127
18867,note_off,0,0,0,,10,,,45,127
18869,note_on,2,0,0,,3,,,51,127
18869,note_on,0,0,0,,12,,,71,127
19006,note_off,137,0,0,,12,,,71,127
19008,note_on,2,0,0,,3,,,75,127
19145,note_off,137,0,0,,3,,,75,127
19147,note_on,2,0,0,,6,,,78,127
19284,note_off,137,0,0,,6,,,78,127
19284,note_off,0,0,0,,3,,,51,127
19286,note_on,2,0,0,,12,,,47,127
19286,note_on,0,0,0,,10,,,81,127
19703,note_off,417,0,0,,10,,,81,127
19703,note_off,0,0,0,,12,,,47,127
19705,note_on,2,0,0,,4,,,52,127
19705,note_on,0,0,0,,8,,,80,127
20122,note_off,417,0,0,,8,,,80,127
20122,note_off,0,0,0,,4,,,52,127
20124,note_on,2,0,0,,10,,,57,127
20124,note_on,0,0,0,,1,,,73,127
20541,note_off,417,0,0,,1,,,73,127
20543,note_on,2,0,0,,1,,,85,127
20960,note_off,417,0,0,,1,,,85,127
20960,note_off,0,0,0,,10,,,57,127
20962,note_on,2,0,0,,10,,,45,127
20962,note_on,0,0,0,,4,,,76,127
21371,note_off,409,0,0,,10,,,45,127
21381,note_on,10,0,0,,12,,,47,127
21812,note_off,431,0,0,,4,,,76,127
21939,note_on,127,0,0,,3,,,75,127
22076,note_off,137,0,0,,3,,,75,127
22078,note_on,2,0,0,,1,,,73,127
22215,note_off,137,0,0,,1,,,73,127
22217,note_on,2,0,0,,12,,,71,127
22634,note_off,417,0,0,,12,,,71,127
22636,note_on,2,0,0,,12,,,59,127
22638,note_off,2,0,0,,12,,,47,127
22773,note_off,135,0,0,,12,,,59,127
22775,note_on,2,0,0,,3,,,63,127
22912,note_off,137,0,0,,3,,,63,127
22914,note_on,2,0,0,,6,,,66,127
23051,note_off,137,0,0,,6,,,66,127
23053,note_on,2,0,0,,12,,,47,127
23053,note_on,0,0,0,,10,,,69,127
23190,note_off,137,0,0,,12,,,47,127
23192,note_on,2,0,0,,3,,,51,127
23329,note_off,137,0,0,,3,,,51,127
23331,note_on,2,0,0,,6,,,54,127
23468,note_off,137,0,0,,6,,,54,127
23470,note_on,2,0,0,,10,,,57,127
23862,note_off,392,0,0,,10,,,69,127
23888,note_off,26,0,0,,10,,,57,127
23889,note_on,1,0,0,,4,,,64,127
24026,note_off,137,0,0,,4,,,64,127
24028,note_on,2,0,0,,8,,,68,127
24165,note_off,137,0,0,,8,,,68,127
24167,note_on,2,0,0,,12,,,71,127
24304,note_off,137,0,0,,12,,,71,127
24306,note_on,2,0,0,,4,,,52,127
24306,note_on,0,0,0,,4,,,76,127
24443,note_off,137,0,0,,4,,,52,127
24445,note_on,2,0,0,,8,,,56,127
24582,note_off,137,0,0,,8,,,56,127
24584,note_on,2,0,0,,12,,,59,127
24721,note_off,137,0,0,,12,,,59,127
24723,note_on,2,0,0,,4,,,64,127
25140,note_off,417,0,0,,4,,,76,127
25141,note_off,1,0,0,,4,,,64,127
25142,note_on,1,0,0,,10,,,69,127
25279,note_off,137,0,0,,10,,,69,127
25281,note_on,2,0,0,,1,,,73,127
25418,note_off,137,0,0,,1,,,73,127
25420,note_on,2,0,0,,4,,,76,127
25557,note_off,137,0,0,,4,,,76,127
25559,note_on,2,0,0,,10,,,57,127
25559,note_on,0,0,0,,10,,,81,127
25696,note_off,137,0,0,,10,,,57,127
25698,note_on,2,0,0,,1,,,61,127
25835,note_off,137,0,0,,1,,,61,127
25837,note_on,2,0,0,,4,,,64,127
25974,note_off,137,0,0,,4,,,64,127
25976,note_on,2,0,0,,10,,,69,127
26393,note_off,417,0,0,,10,,,81,127
26394,note_off,1,0,0,,10,,,69,127
26395,note_on,1,0,0,,12,,,71,127
26532,note_off,137,0,0,,12,,,71,127
26534,note_on,2,0,0,,3,,,75,127
26671,note_off,137,0,0,,3,,,75,127
26673,note_on,2,0,0,,6,,,78,127
26810,note_off,137,0,0,,6,,,78,127
26812,note_on,2,0,0,,12,,,59,127
26812,note_on,0,0,0,,10,,,81,127
26949,note_off,137,0,0,,12,,,59,127
26951,note_on,2,0,0,,3,,,63,127
27088,note_off,137,0,0,,3,,,63,127
27090,note_on,2,0,0,,6,,,66,127
27227,note_off,137,0,0,,6,,,66,127
27229,note_on,2,0,0,,10,,,69,127
27589,note_off,360,0,0,,10,,,69,127
27646,note_off,57,0,0,,10,,,81,127
27648,note_on,2,0,0,,10,,,69,127
27785,note_off,137,0,0,,10,,,69,127
27787,note_on,2,0,0,,1,,,73,127
27924,note_off,137,0,0,,1,,,73,127
27926,note_on,2,0,0,,4,,,76,127
28063,note_off,137,0,0,,4,,,76,127
28065,note_on,2,0,0,,3,,,63,127
28065,note_on,0,0,0,,1,,,73,127
28065,note_on,0,0,0,,10,,,81,127
28482,note_off,417,0,0,,10,,,81,127
28482,note_off,0,0,0,,1,,,73,127
28482,note_off,0,0,0,,3,,,63,127
28484,note_on,2,0,0,,4,,,64,127
28484,note_on,0,0,0,,12,,,71,127
28484,note_on,0,0,0,,8,,,80,127
28901,note_off,417,0,0,,8,,,80,127
28902,note_off,1,0,0,,12,,,71,127
28902,note_off,0,0,0,,4,,,64,127
28903,note_on,1,0,0,,10,,,69,127
29040,note_off,137,0,0,,10,,,69,127
29042,note_on,2,0,0,,1,,,73,127
29179,note_off,137,0,0,,1,,,73,127
29181,note_on,2,0,0,,4,,,76,127
29318,note_off,137,0,0,,4,,,76,127
29320,note_on,2,0,0,,3,,,63,127
29320,note_on,0,0,0,,1,,,73,127
29320,note_on,0,0,0,,10,,,81,127
29737,note_off,417,0,0,,10,,,81,127
29737,note_off,0,0,0,,1,,,73,127
29737,note_off,0,0,0,,3,,,63,127
29739,note_on,2,0,0,,4,,,64,127
29739,note_on,0,0,0,,12,,,71,127
29739,note_on,0,0,0,,8,,,80,127
30156,note_off,417,0,0,,8,,,80,127
30156,note_off,0,0,0,,12,,,71,127
30156,note_off,0,0,0,,4,,,64,127
30158,note_on,2,0,0,,10,,,57,127
30158,note_on,0,0,0,,1,,,73,127
30295,note_off,137,0,0,,1,,,73,127
30297,note_on,2,0,0,,10,,,81,127
30434,note_off,137,0,0,,10,,,81,127
30436,note_on,2,0,0,,6,,,78,127
30573,note_off,137,0,0,,6,,,78,127
30573,note_off,0,0,0,,10,,,57,127
30575,note_on,2,0,0,,12,,,59,127
30575,note_on,0,0,0,,4,,,76,127
30992,note_off,417,0,0,,4,,,76,127
30992,note_off,0,0,0,,12,,,59,127
30994,note_on,2,0,0,,12,,,47,127
30994,note_on,0,0,0,,3,,,75,127
31411,note_off,417,0,0,,3,,,75,127
31411,note_off,0,0,0,,12,,,47,127
31413,note_on,2,0,0,,4,,,52,127
31413,note_on,0,0,0,,4,,,76,127
31832,note_on,419,0,0,,4,,,40,127
32013,note_off,181,0,0,,4,,,52,127
32632,note_off,619,0,0,,4,,,40,127
32668,note_off,36,0,0,,4,,,76,127
32670,note_on,2,0,0,,10,,,69,127
32810,note_on,140,0,0,,1,,,73,127
32947,note_off,137,0,0,,1,,,73,127
32949,note_on,2,0,0,,4,,,76,127
33086,note_off,137,0,0,,4,,,76,127
33088,note_on,2,0,0,,3,,,51,127
33088,note_on,0,0,0,,1,,,73,127
33505,note_off,417,0,0,,1,,,73,127
33505,note_off,0,0,0,,3,,,51,127
33506,note_off,1,0,0,,10,,,69,127
33507,note_on,1,0,0,,4,,,52,127
33507,note_on,0,0,0,,8,,,68,127
33507,note_on,0,0,0,,12,,,71,127
33924,note_off,417,0,0,,12,,,71,127
33924,note_off,0,0,0,,8,,,68,127
33925,note_off,1,0,0,,4,,,52,127
33926,note_on,1,0,0,,10,,,69,127
34066,note_on,140,0,0,,1,,,73,127
34203,note_off,137,0,0,,1,,,73,127
34205,note_on,2,0,0,,4,,,76,127
34342,note_off,137,0,0,,4,,,76,127
34344,note_on,2,0,0,,3,,,51,127
34344,note_on,0,0,0,,1,,,73,127
34761,note_off,417,0,0,,1,,,73,127
34761,note_off,0,0,0,,3,,,51,127
34762,note_off,1,0,0,,10,,,69,127
34763,note_on,1,0,0,,4,,,52,127
34763,note_on,0,0,0,,12,,,71,127
34763,note_on,0,0,0,,8,,,68,127
35180,note_off,417,0,0,,8,,,68,127
35180,note_off,0,0,0,,12,,,71,127
35180,note_off,0,0,0,,4,,,52,127
35182,note_on,2,0,0,,10,,,57,127
35182,note_on,0,0,0,,1,,,73,127
35319,note_off,137,0,0,,1,,,73,127
35321,note_on,2,0,0,,10,,,69,127
35458,note_off,137,0,0,,10,,,69,127
35460,note_on,2,0,0,,6,,,66,127
35597,note_off,137,0,0,,6,,,66,127
35597,note_off,0,0,0,,10,,,57,127
35599,note_on,2,0,0,,12,,,59,127
35599,note_on,0,0,0,,8,,,68,127
36016,note_off,417,0,0,,8,,,68,127
36016,note_off,0,0,0,,12,,,59,127
36018,note_on,2,0,0,,12,,,47,127
36018,note_on,0,0,0,,6,,,66,127
36435,note_off,417,0,0,,6,,,66,127
36435,note_off,0,0,0,,12,,,47,127
36445,note_on,10,0,0,,4,,,64,127
36445,note_on,0,0,0,,4,,,40,127
37595,note_off,1150,0,0,,4,,,64,127
37694,note_on,99,0,0,,4,,,64,127
37700,note_off,6,0,0,,4,,,40,127
37831,note_off,131,0,0,,4,,,64,127
37833,note_on,2,0,0,,8,,,68,127
37970,note_off,137,0,0,,8,,,68,127
37972,note_on,2,0,0,,12,,,71,127
38109,note_off,137,0,0,,12,,,71,127
38111,note_on,2,0,0,,4,,,76,127
38528,note_off,417,0,0,,4,,,76,127
38530,note_on,2,0,0,,4,,,76,127
38947,note_off,417,0,0,,4,,,76,127
38949,note_on,2,0,0,,4,,,64,127
38949,note_on,0,0,0,,3,,,75,127
39086,note_off,137,0,0,,3,,,75,127
39088,note_on,2,0,0,,4,,,76,127
39225,note_off,137,0,0,,4,,,76,127
39227,note_on,2,0,0,,6,,,78,127
39364,note_off,137,0,0,,6,,,78,127
39364,note_off,0,0,0,,4,,,64,127
39366,note_on,2,0,0,,12,,,59,127
39366,note_on,0,0,0,,4,,,76,127
39783,note_off,417,0,0,,12,,,59,127
39785,note_on,2,0,0,,8,,,56,127
40202,note_off,417,0,0,,8,,,56,127
40202,note_off,0,0,0,,4,,,76,127
40204,note_on,2,0,0,,4,,,52,127
40204,note_on,0,0,0,,4,,,64,127
40341,note_off,137,0,0,,4,,,64,127
40343,note_on,2,0,0,,8,,,68,127
40480,note_off,137,0,0,,8,,,68,127
40482,note_on,2,0,0,,12,,,71,127
40619,note_off,137,0,0,,12,,,71,127
40621,note_on,2,0,0,,2,,,74,127
41038,note_off,417,0,0,,2,,,74,127
41040,note_on,2,0,0,,2,,,74,127
41304,note_off,264,0,0,,4,,,52,127
41457,note_off,153,0,0,,2,,,74,127
41459,note_on,2,0,0,,2,,,62,127
41459,note_on,0,0,0,,1,,,73,127
41596,note_off,137,0,0,,1,,,73,127
41598,note_on,2,0,0,,2,,,74,127
41735,note_off,137,0,0,,2,,,74,127
41737,note_on,2,0,0,,4,,,76,127
41874,note_off,137,0,0,,4,,,76,127
41874,note_off,0,0,0,,2,,,62,127
41876,note_on,2,0,0,,12,,,59,127
41876,note_on,0,0,0,,2,,,74,127
42293,note_off,417,0,0,,12,,,59,127
42295,note_on,2,0,0,,8,,,56,127
42712,note_off,417,0,0,,8,,,56,127
42712,note_off,0,0,0,,2,,,74,127
42714,note_on,2,0,0,,4,,,52,127
42714,note_on,0,0,0,,4,,,64,127
42851,note_off,137,0,0,,4,,,64,127
42853,note_on,2,0,0,,4,,,76,127
42990,note_off,137,0,0,,4,,,76,127
42992,note_on,2,0,0,,2,,,74,127
43129,note_off,137,0,0,,2,,,74,127
43131,note_on,2,0,0,,1,,,73,127
43548,note_off,417,0,0,,1,,,73,127
43550,note_on,2,0,0,,12,,,71,127
43967,note_off,417,0,0,,12,,,71,127
43967,note_off,0,0,0,,4,,,52,127
43969,note_on,2,0,0,,4,,,52,127
43969,note_on,0,0,0,,7,,,67,127
44108,note_on,139,0,0,,4,,,76,127
44168,note_off,60,0,0,,7,,,67,127
44245,note_off,77,0,0,,4,,,76,127
44247,note_on,2,0,0,,2,,,74,127
44384,note_off,137,0,0,,2,,,74,127
44386,note_on,2,0,0,,1,,,73,127
44803,note_off,417,0,0,,1,,,73,127
44805,note_on,2,0,0,,12,,,71,127
45222,note_off,417,0,0,,12,,,71,127
45222,note_off,0,0,0,,4,,,52,127
45224,note_on,2,0,0,,4,,,52,127
45224,note_on,0,0,0,,7,,,67,127
45363,note_on,139,0,0,,4,,,76,127
45500,note_off,137,0,0,,4,,,76,127
45502,note_on,2,0,0,,2,,,74,127
45639,note_off,137,0,0,,2,,,74,127
45641,note_on,2,0,0,,1,,,73,127
45824,note_off,183,0,0,,7,,,67,127
46058,note_off,234,0,0,,1,,,73,127
46058,note_off,0,0,0,,4,,,52,127
46060,note_on,2,0,0,,4,,,52,127
46060,note_on,0,0,0,,12,,,71,127
46060,note_on,0,0,0,,7,,,79,127
46477,note_off,417,0,0,,7,,,79,127
46477,note_off,0,0,0,,12,,,71,127
46479,note_on,2,0,0,,11,,,70,127
46479,note_on,0,0,0,,6,,,78,127
46896,note_off,417,0,0,,11,,,70,127
46896,note_off,0,0,0,,4,,,52,127
46898,note_on,2,0,0,,2,,,50,127
46898,note_on,0,0,0,,12,,,71,127
47315,note_off,417,0,0,,12,,,71,127
47315,note_off,0,0,0,,2,,,50,127
47316,note_off,1,0,0,,6,,,78,127
47317,note_on,1,0,0,,1,,,49,127
47317,note_on,0,0,0,,1,,,73,127
47317,note_on,0,0,0,,4,,,76,127
47734,note_off,417,0,0,,4,,,76,127
47734,note_off,0,0,0,,1,,,73,127
47734,note_off,0,0,0,,1,,,49,127
47736,note_on,2,0,0,,12,,,47,127
47736,note_on,0,0,0,,2,,,74,127
47736,note_on,0,0,0,,12,,,71,127
48153,note_off,417,0,0,,12,,,71,127
48153,note_off,0,0,0,,2,,,74,127
48153,note_off,0,0,0,,12,,,47,127
48155,note_on,2,0,0,,11,,,46,127
48155,note_on,0,0,0,,1,,,73,127
48155,note_on,0,0,0,,4,,,76,127
48535,note_off,380,0,0,,4,,,76,127
48535,note_off,0,0,0,,1,,,73,127
48572,note_off,37,0,0,,11,,,46,127
48574,note_on,2,0,0,,12,,,47,127
48574,note_on,0,0,0,,12,,,71,127
48574,note_on,0,0,0,,2,,,74,127
48954,note_off,380,0,0,,2,,,74,127
48954,note_off,0,0,0,,12,,,71,127
48991,note_off,37,0,0,,12,,,47,127
48993,note_on,2,0,0,,6,,,42,127
48993,note_on,0,0,0,,1,,,73,127
50093,note_off,1100,0,0,,1,,,73,127
50241,note_off,148,0,0,,6,,,42,127
50250,note_on,9,0,0,,6,,,42,127
50250,note_on,0,0,0,,1,,,85,127
50387,note_off,137,0,0,,1,,,85,127
50389,note_on,2,0,0,,11,,,82,127
50526,note_off,137,0,0,,11,,,82,127
50528,note_on,2,0,0,,7,,,79,127
50665,note_off,137,0,0,,7,,,79,127
50667,note_on,2,0,0,,4,,,76,127
51084,note_off,417,0,0,,4,,,76,127
51086,note_on,2,0,0,,1,,,73,127
51503,note_off,417,0,0,,1,,,73,127
51503,note_off,0,0,0,,6,,,42,127
51505,note_on,2,0,0,,12,,,47,127
51505,note_on,0,0,0,,2,,,74,127
51922,note_off,417,0,0,,2,,,74,127
51924,note_on,2,0,0,,1,,,73,127
52057,note_on,133,0,0,,2,,,74,127
52061,note_off,4,0,0,,1,,,73,127
52190,note_on,129,0,0,,1,,,73,127
52194,note_off,4,0,0,,2,,,74,127
52327,note_off,133,0,0,,1,,,73,127
52343,note_on,16,0,0,,2,,,74,127
52760,note_off,417,0,0,,2,,,74,127
52760,note_off,0,0,0,,12,,,47,127
52762,note_on,2,0,0,,4,,,40,127
52762,note_on,0,0,0,,12,,,83,127
52899,note_off,137,0,0,,12,,,83,127
52901,note_on,2,0,0,,8,,,80,127
53038,note_off,137,0,0,,8,,,80,127
53040,note_on,2,0,0,,4,,,76,127
53177,note_off,137,0,0,,4,,,76,127
53179,note_on,2,0,0,,2,,,74,127
53596,note_off,417,0,0,,2,,,74,127
53598,note_on,2,0,0,,12,,,71,127
54015,note_off,417,0,0,,12,,,71,127
54015,note_off,0,0,0,,4,,,40,127
54017,note_on,2,0,0,,10,,,45,127
54017,note_on,0,0,0,,1,,,73,127
54434,note_off,417,0,0,,1,,,73,127
54436,note_on,2,0,0,,2,,,74,127
54573,note_off,137,0,0,,2,,,74,127
54573,note_on,0,0,0,,1,,,73,127
54710,note_off,137,0,0,,1,,,73,127
54710,note_on,0,0,0,,2,,,74,127
54847,note_off,137,0,0,,2,,,74,127
54855,note_on,8,0,0,,4,,,76,127
55272,note_off,417,0,0,,4,,,76,127
55272,note_off,0,0,0,,10,,,45,127
55274,note_on,2,0,0,,10,,,69,127
55411,note_off,137,0,0,,10,,,69,127
55413,note_on,2,0,0,,2,,,74,127
55550,note_off,137,0,0,,2,,,74,127
55552,note_on,2,0,0,,6,,,78,127
55689,note_off,137,0,0,,6,,,78,127
55691,note_on,2,0,0,,6,,,78,127
56108,note_off,417,0,0,,6,,,78,127
56110,note_on,2,0,0,,6,,,66,127
56110,note_on,0,0,0,,10,,,81,127
56527,note_off,417,0,0,,6,,,66,127
56529,note_on,2,0,0,,4,,,64,127
56946,note_off,417,0,0,,4,,,64,127
56946,note_off,0,0,0,,10,,,81,127
56948,note_on,2,0,0,,1,,,61,127
56948,note_on,0,0,0,,7,,,79,127
57365,note_off,417,0,0,,7,,,79,127
57365,note_off,0,0,0,,1,,,61,127
57367,note_on,2,0,0,,2,,,62,127
57367,note_on,0,0,0,,6,,,78,127
57784,note_off,417,0,0,,6,,,78,127
57785,note_off,1,0,0,,2,,,62,127
57786,note_on,1,0,0,,10,,,69,127
57923,note_off,137,0,0,,10,,,69,127
57925,note_on,2,0,0,,2,,,74,127
58062,note_off,137,0,0,,2,,,74,127
58064,note_on,2,0,0,,6,,,78,127
58201,note_off,137,0,0,,6,,,78,127
58203,note_on,2,0,0,,6,,,78,127
58620,note_off,417,0,0,,6,,,78,127
58622,note_on,2,0,0,,6,,,66,127
58622,note_on,0,0,0,,10,,,81,127
59039,note_off,417,0,0,,6,,,66,127
59041,note_on,2,0,0,,4,,,64,127
59458,note_off,417,0,0,,4,,,64,127
59458,note_off,0,0,0,,10,,,81,127
59460,note_on,2,0,0,,1,,,61,127
59460,note_on,0,0,0,,7,,,79,127
59588,note_off,128,0,0,,7,,,79,127
59590,note_on,2,0,0,,6,,,78,127
59718,note_off,128,0,0,,6,,,78,127
59720,note_on,2,0,0,,7,,,79,127
59848,note_off,128,0,0,,7,,,79,127
59877,note_off,29,0,0,,1,,,61,127
59879,note_on,2,0,0,,2,,,62,127
59879,note_on,0,0,0,,6,,,78,127
60296,note_off,417,0,0,,6,,,78,127
60297,note_off,1,0,0,,2,,,62,127
60298,note_on,1,0,0,,2,,,74,127
60435,note_off,137,0,0,,2,,,74,127
60437,note_on,2,0,0,,6,,,78,127
60574,note_off,137,0,0,,6,,,78,127
60576,note_on,2,0,0,,10,,,81,127
60713,note_off,137,0,0,,10,,,81,127
60715,note_on,2,0,0,,2,,,62,127
60715,note_on,0,0,0,,2,,,86,127
61132,note_off,417,0,0,,2,,,86,127
61132,note_off,0,0,0,,2,,,62,127
61134,note_on,2,0,0,,10,,,69,127
61134,note_on,0,0,0,,6,,,78,127
61551,note_off,417,0,0,,6,,,78,127
61551,note_off,0,0,0,,10,,,69,127
61553,note_on,2,0,0,,8,,,68,127
61553,note_on,0,0,0,,4,,,76,127
61970,note_off,417,0,0,,4,,,76,127
61970,note_off,0,0,0,,8,,,68,127
61972,note_on,2,0,0,,4,,,64,127
61972,note_on,0,0,0,,2,,,86,127
62389,note_off,417,0,0,,2,,,86,127
62389,note_off,0,0,0,,4,,,64,127
62391,note_on,2,0,0,,10,,,69,127
62391,note_on,0,0,0,,1,,,85,127
62808,note_off,417,0,0,,1,,,85,127
62808,note_off,0,0,0,,10,,,69,127
62810,note_on,2,0,0,,2,,,62,127
62810,note_on,0,0,0,,12,,,83,127
63227,note_off,417,0,0,,12,,,83,127
63227,note_off,0,0,0,,2,,,62,127
63229,note_on,2,0,0,,4,,,64,127
63229,note_on,0,0,0,,10,,,81,127
63506,note_off,277,0,0,,10,,,81,127
63508,note_on,2,0,0,,8,,,80,127
63645,note_off,137,0,0,,8,,,80,127
63645,note_off,0,0,0,,4,,,64,127
63647,note_on,2,0,0,,6,,,66,127
63647,note_on,0,0,0,,10,,,81,127
63924,note_off,277,0,0,,10,,,81,127
63926,note_on,2,0,0,,12,,,83,127
64063,note_off,137,0,0,,12,,,83,127
64063,note_off,0,0,0,,6,,,66,127
64065,note_on,2,0,0,,4,,,64,127
64065,note_on,0,0,0,,8,,,80,127
64482,note_off,417,0,0,,4,,,64,127
64484,note_on,2,0,0,,4,,,52,127
64761,note_off,277,0,0,,8,,,80,127
64763,note_on,2,0,0,,6,,,78,127
64900,note_off,137,0,0,,6,,,78,127
64902,note_on,2,0,0,,4,,,76,127
65319,note_off,417,0,0,,4,,,76,127
65320,note_off,1,0,0,,4,,,52,127
65321,note_on,1,0,0,,4,,,64,127
65458,note_off,137,0,0,,4,,,64,127
65460,note_on,2,0,0,,8,,,68,127
65597,note_off,137,0,0,,8,,,68,127
65599,note_on,2,0,0,,12,,,71,127
65736,note_off,137,0,0,,12,,,71,127
65738,note_on,2,0,0,,4,,,52,127
65738,note_on,0,0,0,,4,,,76,127
65875,note_off,137,0,0,,4,,,52,127
65877,note_on,2,0,0,,8,,,56,127
66014,note_off,137,0,0,,8,,,56,127
66016,note_on,2,0,0,,12,,,59,127
66153,note_off,137,0,0,,12,,,59,127
66155,note_on,2,0,0,,4,,,64,127
66572,note_off,417,0,0,,4,,,76,127
66573,note_off,1,0,0,,4,,,64,127
66574,note_on,1,0,0,,10,,,69,127
66711,note_off,137,0,0,,10,,,69,127
66713,note_on,2,0,0,,1,,,73,127
66850,note_off,137,0,0,,1,,,73,127
66852,note_on,2,0,0,,4,,,76,127
66989,note_off,137,0,0,,4,,,76,127
66991,note_on,2,0,0,,10,,,57,127
66991,note_on,0,0,0,,10,,,81,127
67128,note_off,137,0,0,,10,,,57,127
67130,note_on,2,0,0,,1,,,61,127
67267,note_off,137,0,0,,1,,,61,127
67269,note_on,2,0,0,,4,,,64,127
67406,note_off,137,0,0,,4,,,64,127
67408,note_on,2,0,0,,10,,,69,127
67825,note_off,417,0,0,,10,,,81,127
67826,note_off,1,0,0,,10,,,69,127
67827,note_on,1,0,0,,2,,,74,127
67964,note_off,137,0,0,,2,,,74,127
67966,note_on,2,0,0,,8,,,80,127
68103,note_off,137,0,0,,8,,,80,127
68105,note_on,2,0,0,,12,,,83,127
68242,note_off,137,0,0,,12,,,83,127
68244,note_on,2,0,0,,2,,,62,127
68244,note_on,0,0,0,,2,,,86,127
68381,note_off,137,0,0,,2,,,62,127
68383,note_on,2,0,0,,8,,,68,127
68520,note_off,137,0,0,,8,,,68,127
68522,note_on,2,0,0,,12,,,71,127
68659,note_off,137,0,0,,12,,,71,127
68661,note_on,2,0,0,,2,,,74,127
69078,note_off,417,0,0,,2,,,86,127
69080,note_on,2,0,0,,2,,,62,127
69217,note_off,137,0,0,,2,,,62,127
69219,note_on,2,0,0,,8,,,68,127
69356,note_off,137,0,0,,8,,,68,127
69358,note_on,2,0,0,,12,,,71,127
69461,note_off,103,0,0,,2,,,74,127
69495,note_off,34,0,0,,12,,,71,127
69497,note_on,2,0,0,,2,,,50,127
69497,note_on,0,0,0,,2,,,74,127
69634,note_off,137,0,0,,2,,,50,127
69636,note_on,2,0,0,,8,,,56,127
69773,note_off,137,0,0,,8,,,56,127
69775,note_on,2,0,0,,12,,,59,127
69912,note_off,137,0,0,,12,,,59,127
69914,note_on,2,0,0,,2,,,62,127
70097,note_off,183,0,0,,2,,,74,127
70285,note_off,188,0,0,,2,,,62,127
70333,note_on,48,0,0,,2,,,74,127
70470,note_off,137,0,0,,2,,,74,127
70472,note_on,2,0,0,,8,,,80,127
70609,note_off,137,0,0,,8,,,80,127
70611,note_on,2,0,0,,12,,,83,127
70751,note_on,140,0,0,,8,,,68,127
70751,note_on,0,0,0,,2,,,86,127
71168,note_off,417,0,0,,2,,,86,127
71168,note_off,0,0,0,,8,,,68,127
71169,note_off,1,0,0,,12,,,83,127
71170,note_on,1,0,0,,10,,,69,127
71170,note_on,0,0,0,,10,,,81,127
71170,note_on,0,0,0,,1,,,85,127
71587,note_off,417,0,0,,1,,,85,127
71587,note_off,0,0,0,,10,,,81,127
71588,note_off,1,0,0,,10,,,69,127
71589,note_on,1,0,0,,2,,,74,127
71726,note_off,137,0,0,,2,,,74,127
71728,note_on,2,0,0,,8,,,80,127
71865,note_off,137,0,0,,8,,,80,127
71867,note_on,2,0,0,,12,,,83,127
72007,note_on,140,0,0,,8,,,68,127
72007,note_on,0,0,0,,2,,,86,127
72424,note_off,417,0,0,,2,,,86,127
72424,note_off,0,0,0,,8,,,68,127
72425,note_off,1,0,0,,12,,,83,127
72426,note_on,1,0,0,,10,,,69,127
72426,note_on,0,0,0,,1,,,85,127
72426,note_on,0,0,0,,10,,,81,127
72843,note_off,417,0,0,,10,,,81,127
72843,note_off,0,0,0,,1,,,85,127
72843,note_off,0,0,0,,10,,,69,127
72845,note_on,2,0,0,,2,,,62,127
72845,note_on,0,0,0,,6,,,78,127
72982,note_off,137,0,0,,6,,,78,127
72984,note_on,2,0,0,,2,,,86,127
73121,note_off,137,0,0,,2,,,86,127
73123,note_on,2,0,0,,12,,,83,127
73260,note_off,137,0,0,,12,,,83,127
73260,note_off,0,0,0,,2,,,62,127
73262,note_on,2,0,0,,4,,,64,127
73262,note_on,0,0,0,,10,,,81,127
73679,note_off,417,0,0,,10,,,81,127
73679,note_off,0,0,0,,4,,,64,127
73681,note_on,2,0,0,,4,,,52,127
73681,note_on,0,0,0,,8,,,80,127
74098,note_off,417,0,0,,8,,,80,127
74098,note_off,0,0,0,,4,,,52,127
74100,note_on,2,0,0,,10,,,57,127
74100,note_on,0,0,0,,8,,,80,127
74517,note_off,417,0,0,,8,,,80,127
74519,note_on,2,0,0,,10,,,81,127
75355,note_off,836,0,0,,10,,,81,127
75355,note_off,0,0,0,,10,,,57,127
75357,note_on,2,0,0,,2,,,74,127
75494,note_off,137,0,0,,2,,,74,127
75496,note_on,2,0,0,,10,,,81,127
75633,note_off,137,0,0,,10,,,81,127
75635,note_on,2,0,0,,8,,,80,127
75772,note_off,137,0,0,,8,,,80,127
75774,note_on,2,0,0,,8,,,56,127
75774,note_on,0,0,0,,2,,,74,127
75774,note_on,0,0,0,,6,,,78,127
76191,note_off,417,0,0,,6,,,78,127
76191,note_off,0,0,0,,2,,,74,127
76191,note_off,0,0,0,,8,,,56,127
76193,note_on,2,0,0,,10,,,57,127
76193,note_on,0,0,0,,4,,,76,127
76193,note_on,0,0,0,,1,,,73,127
76610,note_off,417,0,0,,1,,,73,127
76610,note_off,0,0,0,,4,,,76,127
76611,note_off,1,0,0,,10,,,57,127
76612,note_on,1,0,0,,2,,,74,127
76749,note_off,137,0,0,,2,,,74,127
76751,note_on,2,0,0,,10,,,81,127
76888,note_off,137,0,0,,10,,,81,127
76890,note_on,2,0,0,,8,,,80,127
77027,note_off,137,0,0,,8,,,80,127
77029,note_on,2,0,0,,8,,,56,127
77029,note_on,0,0,0,,6,,,78,127
77029,note_on,0,0,0,,2,,,74,127
77446,note_off,417,0,0,,2,,,74,127
77446,note_off,0,0,0,,6,,,78,127
77446,note_off,0,0,0,,8,,,56,127
77448,note_on,2,0,0,,10,,,57,127
77448,note_on,0,0,0,,1,,,73,127
77448,note_on,0,0,0,,4,,,76,127
77865,note_off,417,0,0,,4,,,76,127
77865,note_off,0,0,0,,1,,,73,127
77865,note_off,0,0,0,,10,,,57,127
77867,note_on,2,0,0,,2,,,50,127
77867,note_on,0,0,0,,6,,,78,127
78004,note_off,137,0,0,,6,,,78,127
78006,note_on,2,0,0,,2,,,74,127
78143,note_off,137,0,0,,2,,,74,127
78145,note_on,2,0,0,,12,,,71,127
78282,note_off,137,0,0,,12,,,71,127
78282,note_off,0,0,0,,2,,,50,127
78284,note_on,2,0,0,,4,,,52,127
78284,note_on,0,0,0,,1,,,73,127
78284,note_on,0,0,0,,10,,,69,127
78701,note_off,417,0,0,,10,,,69,127
78701,note_off,0,0,0,,1,,,73,127
78701,note_off,0,0,0,,4,,,52,127
78719,note_on,18,0,0,,12,,,71,127
78719,note_on,0,0,0,,8,,,68,127
78719,note_on,0,0,0,,4,,,40,127
79149,note_off,430,0,0,,4,,,40,127
79149,note_off,0,0,0,,8,,,68,127
79149,note_off,0,0,0,,12,,,71,127
79178,note_on,29,0,0,,10,,,69,127
79178,note_on,0,0,0,,10,,,45,127
81412,note_off,2234,0,0,,10,,,45,127
81412,note_off,0,0,0,,10,,,69,127
87552,end_of_track,6140,1,0,,,,,,
