tick,type,time,meta,track,program,channel,pitch,tempo,note,velocity
0,copyright,0,1,0,,,,,,
0,program_change,0,0,0,6,0,,,,
0,pitchwheel,0,0,0,,0,0,,,
0,program_change,0,0,0,6,1,,,,
0,pitchwheel,0,0,0,,1,-590,,,
0,program_change,0,0,0,6,2,,,,
0,pitchwheel,0,0,0,,2,-272,,,
0,program_change,0,0,0,6,3,,,,
0,pitchwheel,0,0,0,,3,-353,,,
0,program_change,0,0,0,6,4,,,,
0,pitchwheel,0,0,0,,4,-560,,,
0,program_change,0,0,0,6,5,,,,
0,pitchwheel,0,0,0,,5,-80,,,
0,program_change,0,0,0,6,6,,,,
0,pitchwheel,0,0,0,,6,-625,,,
0,program_change,0,0,0,6,7,,,,
0,pitchwheel,0,0,0,,7,-130,,,
0,program_change,0,0,0,6,8,,,,
0,pitchwheel,0,0,0,,8,-512,,,
0,program_change,0,0,0,6,10,,,,
0,pitchwheel,0,0,0,,10,-464,,,
0,program_change,0,0,0,6,11,,,,
0,pitchwheel,0,0,0,,11,-208,,,
0,program_change,0,0,0,6,12,,,,
0,pitchwheel,0,0,0,,12,-553,,,
0,set_tempo,0,1,0,,,,500000,,
103,note_on,103,0,0,,7,,,55,127
103,note_on,0,0,0,,10,,,81,127
203,note_off,100,0,0,,10,,,81,127
206,note_on,3,0,0,,7,,,79,127
306,note_off,100,0,0,,7,,,79,127
309,note_on,3,0,0,,6,,,78,127
409,note_off,100,0,0,,6,,,78,127
412,note_on,3,0,0,,7,,,79,127
512,note_off,100,0,0,,7,,,79,127
515,note_on,3,0,0,,7,,,79,127
717,note_off,202,0,0,,7,,,55,127
720,note_on,3,0,0,,7,,,67,127
720,note_on,0,0,0,,12,,,71,127
922,note_off,202,0,0,,12,,,71,127
922,note_off,0,0,0,,7,,,67,127
925,note_on,3,0,0,,10,,,69,127
925,note_on,0,0,0,,0,,,72,127
1127,note_off,202,0,0,,0,,,72,127
1127,note_off,0,0,0,,10,,,69,127
1130,note_on,3,0,0,,12,,,71,127
1130,note_on,0,0,0,,2,,,74,127
1332,note_off,202,0,0,,2,,,74,127
1332,note_off,0,0,0,,12,,,71,127
1335,note_on,3,0,0,,0,,,72,127
1335,note_on,0,0,0,,0,,,60,127
1335,note_on,0,0,0,,4,,,76,127
1537,note_off,202,0,0,,4,,,76,127
1537,note_off,0,0,0,,0,,,72,127
1540,note_on,3,0,0,,12,,,71,127
1540,note_on,0,0,0,,2,,,74,127
1739,note_off,199,0,0,,0,,,60,127
1742,note_off,3,0,0,,2,,,74,127
1742,note_off,0,0,0,,12,,,71,127
1743,note_off,1,0,0,,7,,,79,127
1745,note_on,2,0,0,,2,,,62,127
1745,note_on,0,0,0,,10,,,69,127
1745,note_on,0,0,0,,0,,,72,127
1947,note_off,202,0,0,,0,,,72,127
1947,note_off,0,0,0,,10,,,69,127
1950,note_on,3,0,0,,7,,,67,127
1950,note_on,0,0,0,,12,,,71,127
2152,note_off,202,0,0,,12,,,71,127
2152,note_off,0,0,0,,7,,,67,127
2155,note_on,3,0,0,,12,,,71,127
2155,note_on,0,0,0,,2,,,74,127
2217,note_off,62,0,0,,2,,,74,127
2217,note_off,0,0,0,,12,,,71,127
2223,note_on,6,0,0,,10,,,69,127
2223,note_on,0,0,0,,0,,,72,127
2285,note_off,62,0,0,,0,,,72,127
2285,note_off,0,0,0,,10,,,69,127
2291,note_on,6,0,0,,12,,,71,127
2291,note_on,0,0,0,,2,,,74,127
2353,note_off,62,0,0,,2,,,74,127
2353,note_off,0,0,0,,12,,,71,127
2359,note_on,6,0,0,,10,,,69,127
2359,note_on,0,0,0,,0,,,72,127
2421,note_off,62,0,0,,0,,,72,127
2421,note_off,0,0,0,,10,,,69,127
2427,note_on,6,0,0,,7,,,67,127
2427,note_on,0,0,0,,12,,,71,127
2489,note_off,62,0,0,,12,,,71,127
2489,note_off,0,0,0,,7,,,67,127
2489,note_off,0,0,0,,2,,,62,127
2495,note_on,6,0,0,,10,,,69,127
2495,note_on,0,0,0,,0,,,72,127
2554,note_off,59,0,0,,0,,,72,127
2554,note_off,0,0,0,,10,,,69,127
2564,note_on,10,0,0,,7,,,43,127
2564,note_on,0,0,0,,12,,,71,127
2564,note_on,0,0,0,,10,,,81,127
2664,note_off,100,0,0,,10,,,81,127
2667,note_on,3,0,0,,7,,,79,127
2767,note_off,100,0,0,,7,,,79,127
2770,note_on,3,0,0,,6,,,78,127
2870,note_off,100,0,0,,6,,,78,127
2873,note_on,3,0,0,,7,,,79,127
2969,note_off,96,0,0,,12,,,71,127
2972,note_off,3,0,0,,7,,,79,127
2975,note_on,3,0,0,,7,,,79,127
3177,note_off,202,0,0,,7,,,43,127
3180,note_on,3,0,0,,7,,,67,127
3180,note_on,0,0,0,,12,,,71,127
3382,note_off,202,0,0,,12,,,71,127
3382,note_off,0,0,0,,7,,,67,127
3385,note_on,3,0,0,,10,,,69,127
3385,note_on,0,0,0,,0,,,72,127
3587,note_off,202,0,0,,0,,,72,127
3587,note_off,0,0,0,,10,,,69,127
3590,note_on,3,0,0,,12,,,71,127
3590,note_on,0,0,0,,2,,,74,127
3792,note_off,202,0,0,,2,,,74,127
3792,note_off,0,0,0,,12,,,71,127
3795,note_on,3,0,0,,0,,,60,127
3795,note_on,0,0,0,,0,,,72,127
3795,note_on,0,0,0,,4,,,76,127
3997,note_off,202,0,0,,4,,,76,127
3997,note_off,0,0,0,,0,,,72,127
4000,note_on,3,0,0,,12,,,71,127
4000,note_on,0,0,0,,2,,,74,127
4199,note_off,199,0,0,,0,,,60,127
4202,note_off,3,0,0,,2,,,74,127
4202,note_off,0,0,0,,12,,,71,127
4203,note_off,1,0,0,,7,,,79,127
4205,note_on,2,0,0,,10,,,69,127
4205,note_on,0,0,0,,2,,,62,127
4205,note_on,0,0,0,,0,,,72,127
4407,note_off,202,0,0,,0,,,72,127
4407,note_off,0,0,0,,10,,,69,127
4410,note_on,3,0,0,,7,,,67,127
4410,note_on,0,0,0,,12,,,71,127
4612,note_off,202,0,0,,12,,,71,127
4612,note_off,0,0,0,,7,,,67,127
4615,note_on,3,0,0,,7,,,67,127
4615,note_on,0,0,0,,12,,,71,127
4677,note_off,62,0,0,,12,,,71,127
4677,note_off,0,0,0,,7,,,67,127
4683,note_on,6,0,0,,6,,,66,127
4683,note_on,0,0,0,,10,,,69,127
4745,note_off,62,0,0,,10,,,69,127
4745,note_off,0,0,0,,6,,,66,127
4751,note_on,6,0,0,,7,,,67,127
4751,note_on,0,0,0,,12,,,71,127
4813,note_off,62,0,0,,12,,,71,127
4813,note_off,0,0,0,,7,,,67,127
4819,note_on,6,0,0,,6,,,66,127
4819,note_on,0,0,0,,10,,,69,127
4881,note_off,62,0,0,,10,,,69,127
4881,note_off,0,0,0,,6,,,66,127
4887,note_on,6,0,0,,4,,,64,127
4887,note_on,0,0,0,,7,,,67,127
4949,note_off,62,0,0,,7,,,67,127
4949,note_off,0,0,0,,4,,,64,127
4949,note_off,0,0,0,,2,,,62,127
4955,note_on,6,0,0,,6,,,66,127
4955,note_on,0,0,0,,10,,,69,127
5017,note_off,62,0,0,,10,,,69,127
5017,note_off,0,0,0,,6,,,66,127
5023,note_on,6,0,0,,7,,,55,127
5023,note_on,0,0,0,,12,,,71,127
5023,note_on,0,0,0,,10,,,81,127
5123,note_off,100,0,0,,10,,,81,127
5126,note_on,3,0,0,,7,,,79,127
5226,note_off,100,0,0,,7,,,79,127
5229,note_on,3,0,0,,6,,,78,127
5329,note_off,100,0,0,,6,,,78,127
5332,note_on,3,0,0,,7,,,79,127
5428,note_off,96,0,0,,12,,,71,127
5431,note_off,3,0,0,,7,,,79,127
5434,note_on,3,0,0,,7,,,79,127
5636,note_off,202,0,0,,7,,,55,127
5639,note_on,3,0,0,,7,,,67,127
5639,note_on,0,0,0,,12,,,71,127
5841,note_off,202,0,0,,12,,,71,127
5841,note_off,0,0,0,,7,,,67,127
5844,note_on,3,0,0,,10,,,69,127
5844,note_on,0,0,0,,0,,,72,127
6046,note_off,202,0,0,,0,,,72,127
6046,note_off,0,0,0,,10,,,69,127
6049,note_on,3,0,0,,12,,,71,127
6049,note_on,0,0,0,,2,,,74,127
6251,note_off,202,0,0,,2,,,74,127
6251,note_off,0,0,0,,12,,,71,127
6253,note_off,2,0,0,,7,,,79,127
6254,note_on,1,0,0,,0,,,60,127
6254,note_on,0,0,0,,4,,,76,127
6254,note_on,0,0,0,,0,,,72,127
6456,note_off,202,0,0,,0,,,72,127
6459,note_on,3,0,0,,7,,,67,127
6661,note_off,202,0,0,,7,,,67,127
6661,note_off,0,0,0,,0,,,60,127
6664,note_on,3,0,0,,0,,,48,127
6664,note_on,0,0,0,,7,,,67,127
6866,note_off,202,0,0,,7,,,67,127
6869,note_on,3,0,0,,7,,,67,127
7071,note_off,202,0,0,,7,,,67,127
7071,note_off,0,0,0,,0,,,48,127
7071,note_off,0,0,0,,4,,,76,127
7074,note_on,3,0,0,,0,,,60,127
7074,note_on,0,0,0,,4,,,76,127
7074,note_on,0,0,0,,0,,,72,127
7276,note_off,202,0,0,,4,,,76,127
7279,note_on,3,0,0,,6,,,78,127
7379,note_off,100,0,0,,6,,,78,127
7382,note_on,3,0,0,,7,,,79,127
7478,note_off,96,0,0,,0,,,72,127
7481,note_off,3,0,0,,7,,,79,127
7481,note_off,0,0,0,,0,,,60,127
7484,note_on,3,0,0,,7,,,55,127
7484,note_on,0,0,0,,7,,,79,127
7484,note_on,0,0,0,,7,,,67,127
7686,note_off,202,0,0,,7,,,79,127
7689,note_on,3,0,0,,2,,,74,127
7891,note_off,202,0,0,,2,,,74,127
7891,note_off,0,0,0,,7,,,55,127
7894,note_on,3,0,0,,7,,,43,127
7894,note_on,0,0,0,,2,,,74,127
8096,note_off,202,0,0,,2,,,74,127
8099,note_on,3,0,0,,12,,,71,127
8301,note_off,202,0,0,,12,,,71,127
8301,note_off,0,0,0,,7,,,43,127
8304,note_on,3,0,0,,7,,,55,127
8304,note_on,0,0,0,,12,,,71,127
8506,note_off,202,0,0,,12,,,71,127
8509,note_on,3,0,0,,0,,,72,127
8609,note_off,100,0,0,,0,,,72,127
8612,note_on,3,0,0,,2,,,74,127
8711,note_off,99,0,0,,7,,,67,127
8712,note_off,1,0,0,,2,,,74,127
8712,note_off,0,0,0,,7,,,55,127
8715,note_on,3,0,0,,2,,,50,127
8715,note_on,0,0,0,,2,,,62,127
8715,note_on,0,0,0,,2,,,74,127
8917,note_off,202,0,0,,2,,,74,127
8920,note_on,3,0,0,,10,,,69,127
9122,note_off,202,0,0,,10,,,69,127
9122,note_off,0,0,0,,2,,,50,127
9125,note_on,3,0,0,,2,,,38,127
9125,note_on,0,0,0,,10,,,69,127
9327,note_off,202,0,0,,10,,,69,127
9330,note_on,3,0,0,,10,,,69,127
9532,note_off,202,0,0,,10,,,69,127
9532,note_off,0,0,0,,2,,,38,127
9535,note_on,3,0,0,,2,,,50,127
9535,note_on,0,0,0,,10,,,69,127
9737,note_off,202,0,0,,10,,,69,127
9740,note_on,3,0,0,,12,,,71,127
9840,note_off,100,0,0,,12,,,71,127
9843,note_on,3,0,0,,0,,,72,127
9942,note_off,99,0,0,,2,,,62,127
9943,note_off,1,0,0,,0,,,72,127
9943,note_off,0,0,0,,2,,,50,127
9946,note_on,3,0,0,,7,,,55,127
9946,note_on,0,0,0,,2,,,62,127
9946,note_on,0,0,0,,0,,,72,127
10152,note_on,206,0,0,,6,,,66,127
10354,note_off,202,0,0,,6,,,66,127
10354,note_off,0,0,0,,7,,,55,127
10357,note_on,3,0,0,,7,,,43,127
10357,note_on,0,0,0,,7,,,67,127
10559,note_off,202,0,0,,7,,,67,127
10559,note_off,0,0,0,,0,,,72,127
10562,note_on,3,0,0,,12,,,71,127
10662,note_off,100,0,0,,12,,,71,127
10665,note_on,3,0,0,,10,,,69,127
10765,note_off,100,0,0,,10,,,69,127
10768,note_on,3,0,0,,10,,,69,127
10970,note_off,202,0,0,,10,,,69,127
10973,note_on,3,0,0,,12,,,71,127
11104,note_off,131,0,0,,7,,,43,127
11175,note_off,71,0,0,,2,,,62,127
11188,note_on,13,0,0,,0,,,60,127
11188,note_on,0,0,0,,0,,,72,127
11188,note_on,0,0,0,,4,,,76,127
11204,note_off,16,0,0,,12,,,71,127
11390,note_off,186,0,0,,0,,,72,127
11393,note_on,3,0,0,,7,,,67,127
11595,note_off,202,0,0,,7,,,67,127
11595,note_off,0,0,0,,0,,,60,127
11598,note_on,3,0,0,,0,,,48,127
11598,note_on,0,0,0,,7,,,67,127
11800,note_off,202,0,0,,7,,,67,127
11803,note_on,3,0,0,,7,,,67,127
12005,note_off,202,0,0,,7,,,67,127
12005,note_off,0,0,0,,0,,,48,127
12005,note_off,0,0,0,,4,,,76,127
12008,note_on,3,0,0,,0,,,60,127
12008,note_on,0,0,0,,4,,,76,127
12008,note_on,0,0,0,,0,,,72,127
12210,note_off,202,0,0,,4,,,76,127
12213,note_on,3,0,0,,6,,,78,127
12313,note_off,100,0,0,,6,,,78,127
12316,note_on,3,0,0,,7,,,79,127
12412,note_off,96,0,0,,0,,,72,127
12415,note_off,3,0,0,,7,,,79,127
12415,note_off,0,0,0,,0,,,60,127
12418,note_on,3,0,0,,7,,,55,127
12418,note_on,0,0,0,,7,,,67,127
12418,note_on,0,0,0,,7,,,79,127
12620,note_off,202,0,0,,7,,,79,127
12623,note_on,3,0,0,,2,,,74,127
12825,note_off,202,0,0,,2,,,74,127
12825,note_off,0,0,0,,7,,,55,127
12828,note_on,3,0,0,,7,,,43,127
12828,note_on,0,0,0,,2,,,74,127
13030,note_off,202,0,0,,2,,,74,127
13033,note_on,3,0,0,,12,,,71,127
13235,note_off,202,0,0,,12,,,71,127
13235,note_off,0,0,0,,7,,,43,127
13238,note_on,3,0,0,,7,,,55,127
13238,note_on,0,0,0,,12,,,71,127
13440,note_off,202,0,0,,12,,,71,127
13443,note_on,3,0,0,,0,,,72,127
13543,note_off,100,0,0,,0,,,72,127
13546,note_on,3,0,0,,2,,,74,127
13645,note_off,99,0,0,,7,,,67,127
13646,note_off,1,0,0,,2,,,74,127
13646,note_off,0,0,0,,7,,,55,127
13649,note_on,3,0,0,,2,,,50,127
13649,note_on,0,0,0,,2,,,62,127
13649,note_on,0,0,0,,2,,,74,127
13851,note_off,202,0,0,,2,,,74,127
13854,note_on,3,0,0,,10,,,69,127
14056,note_off,202,0,0,,10,,,69,127
14056,note_off,0,0,0,,2,,,50,127
14059,note_on,3,0,0,,2,,,38,127
14059,note_on,0,0,0,,10,,,69,127
14261,note_off,202,0,0,,10,,,69,127
14264,note_on,3,0,0,,10,,,69,127
14466,note_off,202,0,0,,10,,,69,127
14466,note_off,0,0,0,,2,,,38,127
14469,note_on,3,0,0,,2,,,50,127
14469,note_on,0,0,0,,10,,,69,127
14671,note_off,202,0,0,,10,,,69,127
14674,note_on,3,0,0,,12,,,71,127
14774,note_off,100,0,0,,12,,,71,127
14777,note_on,3,0,0,,0,,,72,127
14876,note_off,99,0,0,,2,,,62,127
14877,note_off,1,0,0,,0,,,72,127
14877,note_off,0,0,0,,2,,,50,127
14880,note_on,3,0,0,,7,,,55,127
14880,note_on,0,0,0,,0,,,72,127
14880,note_on,0,0,0,,2,,,62,127
15082,note_off,202,0,0,,2,,,62,127
15085,note_on,3,0,0,,6,,,66,127
15287,note_off,202,0,0,,6,,,66,127
15287,note_off,0,0,0,,7,,,55,127
15290,note_on,3,0,0,,7,,,43,127
15290,note_on,0,0,0,,7,,,67,127
15492,note_off,202,0,0,,0,,,72,127
15495,note_on,3,0,0,,12,,,71,127
15595,note_off,100,0,0,,12,,,71,127
15598,note_on,3,0,0,,10,,,69,127
15694,note_off,96,0,0,,7,,,67,127
15697,note_off,3,0,0,,10,,,69,127
15700,note_on,3,0,0,,10,,,69,127
15902,note_off,202,0,0,,10,,,69,127
15905,note_on,3,0,0,,12,,,71,127
15977,note_off,72,0,0,,7,,,43,127
16118,note_off,141,0,0,,12,,,71,127
16119,note_on,1,0,0,,12,,,47,127
16119,note_on,0,0,0,,3,,,75,127
16119,note_on,0,0,0,,12,,,71,127
16119,note_on,0,0,0,,12,,,83,127
16119,note_on,0,0,0,,6,,,78,127
16321,note_off,202,0,0,,6,,,78,127
16321,note_off,0,0,0,,12,,,83,127
16321,note_off,0,0,0,,3,,,75,127
16324,note_on,3,0,0,,6,,,78,127
16424,note_off,100,0,0,,6,,,78,127
16427,note_on,3,0,0,,6,,,78,127
16527,note_off,100,0,0,,6,,,78,127
16530,note_on,3,0,0,,6,,,78,127
16732,note_off,202,0,0,,6,,,78,127
16735,note_on,3,0,0,,6,,,78,127
16937,note_off,202,0,0,,6,,,78,127
16937,note_off,0,0,0,,12,,,71,127
16940,note_on,3,0,0,,8,,,80,127
16940,note_on,0,0,0,,2,,,74,127
17142,note_off,202,0,0,,8,,,80,127
17145,note_on,3,0,0,,10,,,81,127
17344,note_off,199,0,0,,2,,,74,127
17347,note_off,3,0,0,,10,,,81,127
17347,note_off,0,0,0,,12,,,47,127
17350,note_on,3,0,0,,4,,,40,127
17350,note_on,0,0,0,,4,,,52,127
17350,note_on,0,0,0,,2,,,74,127
17350,note_on,0,0,0,,8,,,80,127
17552,note_off,202,0,0,,8,,,80,127
17555,note_on,3,0,0,,8,,,80,127
17655,note_off,100,0,0,,8,,,80,127
17658,note_on,3,0,0,,8,,,80,127
17758,note_off,100,0,0,,8,,,80,127
17761,note_on,3,0,0,,8,,,80,127
17963,note_off,202,0,0,,8,,,80,127
17963,note_off,0,0,0,,2,,,74,127
17966,note_on,3,0,0,,2,,,74,127
17966,note_on,0,0,0,,12,,,83,127
18168,note_off,202,0,0,,12,,,83,127
18168,note_off,0,0,0,,2,,,74,127
18171,note_on,3,0,0,,1,,,73,127
18171,note_on,0,0,0,,10,,,81,127
18373,note_off,202,0,0,,10,,,81,127
18373,note_off,0,0,0,,1,,,73,127
18376,note_on,3,0,0,,12,,,71,127
18376,note_on,0,0,0,,8,,,80,127
18578,note_off,202,0,0,,8,,,80,127
18578,note_off,0,0,0,,12,,,71,127
18578,note_off,0,0,0,,4,,,52,127
18578,note_off,0,0,0,,4,,,40,127
18581,note_on,3,0,0,,10,,,45,127
18581,note_on,0,0,0,,4,,,76,127
18581,note_on,0,0,0,,1,,,73,127
18581,note_on,0,0,0,,10,,,81,127
18581,note_on,0,0,0,,10,,,69,127
18783,note_off,202,0,0,,10,,,81,127
18783,note_off,0,0,0,,1,,,73,127
18783,note_off,0,0,0,,4,,,76,127
18786,note_on,3,0,0,,4,,,76,127
18886,note_off,100,0,0,,4,,,76,127
18889,note_on,3,0,0,,4,,,76,127
18989,note_off,100,0,0,,4,,,76,127
18992,note_on,3,0,0,,4,,,76,127
19194,note_off,202,0,0,,4,,,76,127
19197,note_on,3,0,0,,4,,,76,127
19399,note_off,202,0,0,,4,,,76,127
19399,note_off,0,0,0,,10,,,69,127
19402,note_on,3,0,0,,0,,,72,127
19402,note_on,0,0,0,,6,,,78,127
19604,note_off,202,0,0,,6,,,78,127
19607,note_on,3,0,0,,7,,,79,127
19806,note_off,199,0,0,,0,,,72,127
19809,note_off,3,0,0,,7,,,79,127
19809,note_off,0,0,0,,10,,,45,127
19812,note_on,3,0,0,,2,,,50,127
19812,note_on,0,0,0,,2,,,38,127
19812,note_on,0,0,0,,6,,,78,127
19812,note_on,0,0,0,,0,,,72,127
20014,note_off,202,0,0,,6,,,78,127
20017,note_on,3,0,0,,6,,,78,127
20117,note_off,100,0,0,,6,,,78,127
20120,note_on,3,0,0,,6,,,78,127
20220,note_off,100,0,0,,6,,,78,127
20223,note_on,3,0,0,,6,,,78,127
20425,note_off,202,0,0,,6,,,78,127
20425,note_off,0,0,0,,0,,,72,127
20428,note_on,3,0,0,,0,,,72,127
20428,note_on,0,0,0,,10,,,81,127
20630,note_off,202,0,0,,10,,,81,127
20630,note_off,0,0,0,,0,,,72,127
20633,note_on,3,0,0,,7,,,79,127
20633,note_on,0,0,0,,12,,,71,127
20835,note_off,202,0,0,,12,,,71,127
20835,note_off,0,0,0,,7,,,79,127
20838,note_on,3,0,0,,10,,,69,127
20838,note_on,0,0,0,,6,,,78,127
21040,note_off,202,0,0,,6,,,78,127
21040,note_off,0,0,0,,10,,,69,127
21040,note_off,0,0,0,,2,,,38,127
21040,note_off,0,0,0,,2,,,50,127
21043,note_on,3,0,0,,7,,,43,127
21043,note_on,0,0,0,,7,,,55,127
21043,note_on,0,0,0,,7,,,79,127
21043,note_on,0,0,0,,12,,,71,127
21245,note_off,202,0,0,,7,,,79,127
21248,note_on,3,0,0,,12,,,83,127
21348,note_off,100,0,0,,12,,,83,127
21351,note_on,3,0,0,,10,,,81,127
21447,note_off,96,0,0,,12,,,71,127
21450,note_off,3,0,0,,10,,,81,127
21453,note_on,3,0,0,,7,,,79,127
21655,note_off,202,0,0,,7,,,79,127
21658,note_on,3,0,0,,6,,,78,127
21860,note_off,202,0,0,,6,,,78,127
21863,note_on,3,0,0,,2,,,86,127
21863,note_on,0,0,0,,4,,,76,127
22065,note_off,202,0,0,,4,,,76,127
22068,note_on,3,0,0,,2,,,74,127
22267,note_off,199,0,0,,2,,,86,127
22270,note_off,3,0,0,,2,,,74,127
22270,note_off,0,0,0,,7,,,55,127
22270,note_off,0,0,0,,7,,,43,127
22273,note_on,3,0,0,,10,,,45,127
22273,note_on,0,0,0,,10,,,57,127
22273,note_on,0,0,0,,1,,,85,127
22335,note_off,62,0,0,,1,,,85,127
22341,note_on,6,0,0,,12,,,83,127
22403,note_off,62,0,0,,12,,,83,127
22409,note_on,6,0,0,,10,,,81,127
22471,note_off,62,0,0,,10,,,81,127
22477,note_on,6,0,0,,7,,,79,127
22539,note_off,62,0,0,,7,,,79,127
22545,note_on,6,0,0,,6,,,78,127
22607,note_off,62,0,0,,6,,,78,127
22613,note_on,6,0,0,,4,,,76,127
22675,note_off,62,0,0,,4,,,76,127
22681,note_on,6,0,0,,2,,,74,127
22743,note_off,62,0,0,,2,,,74,127
22749,note_on,6,0,0,,1,,,73,127
22811,note_off,62,0,0,,1,,,73,127
22817,note_on,6,0,0,,12,,,71,127
22879,note_off,62,0,0,,12,,,71,127
22885,note_on,6,0,0,,10,,,69,127
22947,note_off,62,0,0,,10,,,69,127
22953,note_on,6,0,0,,7,,,67,127
23015,note_off,62,0,0,,7,,,67,127
23021,note_on,6,0,0,,6,,,66,127
23083,note_off,62,0,0,,6,,,66,127
23089,note_on,6,0,0,,4,,,64,127
23151,note_off,62,0,0,,4,,,64,127
23157,note_on,6,0,0,,2,,,62,127
23219,note_off,62,0,0,,2,,,62,127
23225,note_on,6,0,0,,1,,,61,127
23287,note_off,62,0,0,,1,,,61,127
23293,note_on,6,0,0,,12,,,59,127
23351,note_off,58,0,0,,10,,,57,127
23355,note_off,4,0,0,,12,,,59,127
23361,note_on,6,0,0,,10,,,57,127
23423,note_off,62,0,0,,10,,,57,127
23429,note_on,6,0,0,,7,,,55,127
23491,note_off,62,0,0,,7,,,55,127
23497,note_on,6,0,0,,6,,,54,127
23559,note_off,62,0,0,,6,,,54,127
23565,note_on,6,0,0,,4,,,52,127
23627,note_off,62,0,0,,4,,,52,127
23633,note_on,6,0,0,,2,,,50,127
23695,note_off,62,0,0,,2,,,50,127
23701,note_on,6,0,0,,1,,,49,127
23763,note_off,62,0,0,,1,,,49,127
23769,note_on,6,0,0,,12,,,47,127
23827,note_off,58,0,0,,10,,,45,127
23831,note_off,4,0,0,,12,,,47,127
23837,note_on,6,0,0,,10,,,45,127
23899,note_off,62,0,0,,10,,,45,127
23905,note_on,6,0,0,,7,,,43,127
23967,note_off,62,0,0,,7,,,43,127
23973,note_on,6,0,0,,6,,,42,127
24035,note_off,62,0,0,,6,,,42,127
24041,note_on,6,0,0,,4,,,40,127
24103,note_off,62,0,0,,4,,,40,127
24109,note_on,6,0,0,,2,,,38,127
24171,note_off,62,0,0,,2,,,38,127
24177,note_on,6,0,0,,1,,,37,127
24239,note_off,62,0,0,,1,,,37,127
24245,note_on,6,0,0,,12,,,35,127
24307,note_off,62,0,0,,12,,,35,127
24313,note_on,6,0,0,,10,,,33,127
24721,note_off,408,0,0,,10,,,33,127
24724,note_on,3,0,0,,2,,,38,127
24724,note_on,0,0,0,,6,,,66,127
24786,note_off,62,0,0,,6,,,66,127
24792,note_on,6,0,0,,2,,,62,127
24854,note_off,62,0,0,,2,,,62,127
24860,note_on,6,0,0,,6,,,66,127
24922,note_off,62,0,0,,6,,,66,127
24928,note_on,6,0,0,,10,,,69,127
24990,note_off,62,0,0,,10,,,69,127
24996,note_on,6,0,0,,6,,,66,127
25058,note_off,62,0,0,,6,,,66,127
25064,note_on,6,0,0,,10,,,69,127
25126,note_off,62,0,0,,10,,,69,127
25132,note_on,6,0,0,,2,,,74,127
25194,note_off,62,0,0,,2,,,74,127
25200,note_on,6,0,0,,10,,,69,127
25262,note_off,62,0,0,,10,,,69,127
25268,note_on,6,0,0,,2,,,74,127
25330,note_off,62,0,0,,2,,,74,127
25336,note_on,6,0,0,,6,,,78,127
25398,note_off,62,0,0,,6,,,78,127
25404,note_on,6,0,0,,2,,,74,127
25466,note_off,62,0,0,,2,,,74,127
25472,note_on,6,0,0,,6,,,78,127
25534,note_off,62,0,0,,6,,,78,127
25540,note_on,6,0,0,,10,,,81,127
25602,note_off,62,0,0,,10,,,81,127
25608,note_on,6,0,0,,6,,,78,127
25670,note_off,62,0,0,,6,,,78,127
25676,note_on,6,0,0,,10,,,81,127
25738,note_off,62,0,0,,10,,,81,127
25744,note_on,6,0,0,,2,,,86,127
25946,note_off,202,0,0,,2,,,86,127
25946,note_off,0,0,0,,2,,,38,127
25949,note_on,3,0,0,,2,,,38,127
25949,note_on,0,0,0,,7,,,67,127
26011,note_off,62,0,0,,7,,,67,127
26017,note_on,6,0,0,,2,,,62,127
26079,note_off,62,0,0,,2,,,62,127
26085,note_on,6,0,0,,7,,,67,127
26147,note_off,62,0,0,,7,,,67,127
26153,note_on,6,0,0,,12,,,71,127
26215,note_off,62,0,0,,12,,,71,127
26221,note_on,6,0,0,,7,,,67,127
26283,note_off,62,0,0,,7,,,67,127
26289,note_on,6,0,0,,12,,,71,127
26351,note_off,62,0,0,,12,,,71,127
26357,note_on,6,0,0,,2,,,74,127
26419,note_off,62,0,0,,2,,,74,127
26425,note_on,6,0,0,,12,,,71,127
26487,note_off,62,0,0,,12,,,71,127
26493,note_on,6,0,0,,2,,,74,127
26555,note_off,62,0,0,,2,,,74,127
26561,note_on,6,0,0,,7,,,79,127
26623,note_off,62,0,0,,7,,,79,127
26629,note_on,6,0,0,,2,,,74,127
26691,note_off,62,0,0,,2,,,74,127
26697,note_on,6,0,0,,7,,,79,127
26759,note_off,62,0,0,,7,,,79,127
26765,note_on,6,0,0,,12,,,83,127
26827,note_off,62,0,0,,12,,,83,127
26833,note_on,6,0,0,,7,,,79,127
26895,note_off,62,0,0,,7,,,79,127
26901,note_on,6,0,0,,12,,,83,127
26963,note_off,62,0,0,,12,,,83,127
26969,note_on,6,0,0,,2,,,86,127
27171,note_off,202,0,0,,2,,,86,127
27171,note_off,0,0,0,,2,,,38,127
27174,note_on,3,0,0,,2,,,38,127
27174,note_on,0,0,0,,6,,,66,127
27236,note_off,62,0,0,,6,,,66,127
27242,note_on,6,0,0,,2,,,62,127
27304,note_off,62,0,0,,2,,,62,127
27310,note_on,6,0,0,,6,,,66,127
27372,note_off,62,0,0,,6,,,66,127
27378,note_on,6,0,0,,10,,,69,127
27440,note_off,62,0,0,,10,,,69,127
27446,note_on,6,0,0,,6,,,66,127
27508,note_off,62,0,0,,6,,,66,127
27514,note_on,6,0,0,,10,,,69,127
27576,note_off,62,0,0,,10,,,69,127
27582,note_on,6,0,0,,2,,,74,127
27644,note_off,62,0,0,,2,,,74,127
27650,note_on,6,0,0,,10,,,69,127
27712,note_off,62,0,0,,10,,,69,127
27718,note_on,6,0,0,,2,,,74,127
27780,note_off,62,0,0,,2,,,74,127
27786,note_on,6,0,0,,6,,,78,127
27848,note_off,62,0,0,,6,,,78,127
27854,note_on,6,0,0,,2,,,74,127
27916,note_off,62,0,0,,2,,,74,127
27922,note_on,6,0,0,,6,,,78,127
27984,note_off,62,0,0,,6,,,78,127
27990,note_on,6,0,0,,10,,,81,127
28052,note_off,62,0,0,,10,,,81,127
28058,note_on,6,0,0,,6,,,78,127
28120,note_off,62,0,0,,6,,,78,127
28126,note_on,6,0,0,,10,,,81,127
28188,note_off,62,0,0,,10,,,81,127
28194,note_on,6,0,0,,2,,,86,127
28396,note_off,202,0,0,,2,,,38,127
28399,note_on,3,0,0,,7,,,43,127
28464,note_off,65,0,0,,2,,,86,127
28467,note_on,3,0,0,,2,,,86,127
28529,note_off,62,0,0,,2,,,86,127
28535,note_on,6,0,0,,1,,,85,127
28597,note_off,62,0,0,,1,,,85,127
28603,note_on,6,0,0,,12,,,83,127
28665,note_off,62,0,0,,12,,,83,127
28671,note_on,6,0,0,,10,,,81,127
28733,note_off,62,0,0,,10,,,81,127
28739,note_on,6,0,0,,7,,,79,127
28801,note_off,62,0,0,,7,,,79,127
28804,note_off,3,0,0,,7,,,43,127
28807,note_on,3,0,0,,10,,,45,127
28807,note_on,0,0,0,,6,,,78,127
28869,note_off,62,0,0,,6,,,78,127
28875,note_on,6,0,0,,4,,,76,127
28937,note_off,62,0,0,,4,,,76,127
28943,note_on,6,0,0,,2,,,74,127
29005,note_off,62,0,0,,2,,,74,127
29011,note_on,6,0,0,,1,,,73,127
29073,note_off,62,0,0,,1,,,73,127
29079,note_on,6,0,0,,12,,,71,127
29141,note_off,62,0,0,,12,,,71,127
29147,note_on,6,0,0,,10,,,69,127
29209,note_off,62,0,0,,10,,,69,127
29212,note_off,3,0,0,,10,,,45,127
29215,note_on,3,0,0,,10,,,45,127
29215,note_on,0,0,0,,6,,,78,127
29265,note_off,50,0,0,,6,,,78,127
29266,note_on,1,0,0,,4,,,76,127
29316,note_off,50,0,0,,4,,,76,127
29317,note_on,1,0,0,,6,,,78,127
29367,note_off,50,0,0,,6,,,78,127
29368,note_on,1,0,0,,4,,,76,127
29418,note_off,50,0,0,,4,,,76,127
29419,note_on,1,0,0,,6,,,78,127
29469,note_off,50,0,0,,6,,,78,127
29470,note_on,1,0,0,,4,,,76,127
29520,note_off,50,0,0,,4,,,76,127
29521,note_on,1,0,0,,2,,,74,127
29571,note_off,50,0,0,,2,,,74,127
29572,note_on,1,0,0,,4,,,76,127
29613,note_off,41,0,0,,10,,,45,127
29623,note_off,10,0,0,,4,,,76,127
29624,note_on,1,0,0,,6,,,66,127
29624,note_on,0,0,0,,2,,,74,127
29686,note_off,62,0,0,,6,,,66,127
29692,note_on,6,0,0,,10,,,69,127
29754,note_off,62,0,0,,10,,,69,127
29760,note_on,6,0,0,,6,,,66,127
29822,note_off,62,0,0,,6,,,66,127
29828,note_on,6,0,0,,2,,,62,127
29890,note_off,62,0,0,,2,,,62,127
29896,note_on,6,0,0,,6,,,66,127
29958,note_off,62,0,0,,6,,,66,127
29964,note_on,6,0,0,,2,,,62,127
30026,note_off,62,0,0,,2,,,62,127
30032,note_on,6,0,0,,10,,,57,127
30094,note_off,62,0,0,,10,,,57,127
30100,note_on,6,0,0,,2,,,62,127
30162,note_off,62,0,0,,2,,,62,127
30168,note_on,6,0,0,,10,,,57,127
30230,note_off,62,0,0,,10,,,57,127
30236,note_on,6,0,0,,6,,,54,127
30298,note_off,62,0,0,,6,,,54,127
30304,note_on,6,0,0,,10,,,57,127
30366,note_off,62,0,0,,10,,,57,127
30372,note_on,6,0,0,,6,,,54,127
30434,note_off,62,0,0,,6,,,54,127
30440,note_on,6,0,0,,2,,,50,127
30502,note_off,62,0,0,,2,,,50,127
30508,note_on,6,0,0,,6,,,54,127
30570,note_off,62,0,0,,6,,,54,127
30576,note_on,6,0,0,,2,,,50,127
30638,note_off,62,0,0,,2,,,50,127
30644,note_on,6,0,0,,10,,,45,127
30706,note_off,62,0,0,,10,,,45,127
30712,note_on,6,0,0,,2,,,50,127
30774,note_off,62,0,0,,2,,,50,127
30780,note_on,6,0,0,,10,,,45,127
30842,note_off,62,0,0,,10,,,45,127
30845,note_off,3,0,0,,2,,,74,127
30848,note_on,3,0,0,,2,,,38,127
30848,note_on,0,0,0,,2,,,62,127
30910,note_off,62,0,0,,2,,,62,127
30916,note_on,6,0,0,,10,,,57,127
30978,note_off,62,0,0,,10,,,57,127
30984,note_on,6,0,0,,2,,,62,127
31046,note_off,62,0,0,,2,,,62,127
31052,note_on,6,0,0,,6,,,66,127
31114,note_off,62,0,0,,6,,,66,127
31120,note_on,6,0,0,,2,,,62,127
31182,note_off,62,0,0,,2,,,62,127
31188,note_on,6,0,0,,6,,,66,127
31250,note_off,62,0,0,,6,,,66,127
31256,note_on,6,0,0,,10,,,69,127
31318,note_off,62,0,0,,10,,,69,127
31324,note_on,6,0,0,,6,,,66,127
31386,note_off,62,0,0,,6,,,66,127
31392,note_on,6,0,0,,10,,,69,127
31454,note_off,62,0,0,,10,,,69,127
31460,note_on,6,0,0,,2,,,74,127
31522,note_off,62,0,0,,2,,,74,127
31528,note_on,6,0,0,,10,,,69,127
31590,note_off,62,0,0,,10,,,69,127
31596,note_on,6,0,0,,2,,,74,127
31658,note_off,62,0,0,,2,,,74,127
31664,note_on,6,0,0,,6,,,78,127
31726,note_off,62,0,0,,6,,,78,127
31732,note_on,6,0,0,,2,,,74,127
31794,note_off,62,0,0,,2,,,74,127
31800,note_on,6,0,0,,6,,,78,127
31862,note_off,62,0,0,,6,,,78,127
31868,note_on,6,0,0,,10,,,81,127
31930,note_off,62,0,0,,10,,,81,127
31936,note_on,6,0,0,,6,,,78,127
31998,note_off,62,0,0,,6,,,78,127
32004,note_on,6,0,0,,10,,,81,127
32066,note_off,62,0,0,,10,,,81,127
32069,note_off,3,0,0,,2,,,38,127
32072,note_on,3,0,0,,6,,,66,127
32072,note_on,0,0,0,,2,,,86,127
32134,note_off,62,0,0,,6,,,66,127
32140,note_on,6,0,0,,10,,,69,127
32202,note_off,62,0,0,,10,,,69,127
32208,note_on,6,0,0,,6,,,66,127
32270,note_off,62,0,0,,6,,,66,127
32276,note_on,6,0,0,,2,,,62,127
32338,note_off,62,0,0,,2,,,62,127
32344,note_on,6,0,0,,6,,,66,127
32406,note_off,62,0,0,,6,,,66,127
32412,note_on,6,0,0,,2,,,62,127
32474,note_off,62,0,0,,2,,,62,127
32480,note_on,6,0,0,,10,,,57,127
32542,note_off,62,0,0,,10,,,57,127
32548,note_on,6,0,0,,2,,,62,127
32610,note_off,62,0,0,,2,,,62,127
32616,note_on,6,0,0,,10,,,57,127
32678,note_off,62,0,0,,10,,,57,127
32684,note_on,6,0,0,,6,,,54,127
32746,note_off,62,0,0,,6,,,54,127
32752,note_on,6,0,0,,10,,,57,127
32814,note_off,62,0,0,,10,,,57,127
32820,note_on,6,0,0,,6,,,54,127
32882,note_off,62,0,0,,6,,,54,127
32888,note_on,6,0,0,,2,,,50,127
32950,note_off,62,0,0,,2,,,50,127
32956,note_on,6,0,0,,6,,,54,127
33018,note_off,62,0,0,,6,,,54,127
33024,note_on,6,0,0,,2,,,50,127
33086,note_off,62,0,0,,2,,,50,127
33092,note_on,6,0,0,,10,,,45,127
33154,note_off,62,0,0,,10,,,45,127
33160,note_on,6,0,0,,2,,,50,127
33222,note_off,62,0,0,,2,,,50,127
33228,note_on,6,0,0,,10,,,45,127
33290,note_off,62,0,0,,10,,,45,127
33296,note_on,6,0,0,,2,,,38,127
33361,note_off,65,0,0,,2,,,86,127
33364,note_on,3,0,0,,2,,,86,127
33426,note_off,62,0,0,,2,,,86,127
33432,note_on,6,0,0,,1,,,85,127
33494,note_off,62,0,0,,1,,,85,127
33500,note_on,6,0,0,,12,,,83,127
33562,note_off,62,0,0,,12,,,83,127
33568,note_on,6,0,0,,10,,,81,127
33630,note_off,62,0,0,,10,,,81,127
33636,note_on,6,0,0,,7,,,79,127
33690,note_off,54,0,0,,2,,,38,127
33699,note_off,9,0,0,,7,,,79,127
33705,note_on,6,0,0,,10,,,45,127
33705,note_on,0,0,0,,6,,,78,127
33767,note_off,62,0,0,,6,,,78,127
33773,note_on,6,0,0,,4,,,76,127
33835,note_off,62,0,0,,4,,,76,127
33841,note_on,6,0,0,,2,,,74,127
33903,note_off,62,0,0,,2,,,74,127
33909,note_on,6,0,0,,1,,,73,127
33971,note_off,62,0,0,,1,,,73,127
33977,note_on,6,0,0,,12,,,71,127
34039,note_off,62,0,0,,12,,,71,127
34045,note_on,6,0,0,,10,,,69,127
34099,note_off,54,0,0,,10,,,45,127
34108,note_off,9,0,0,,10,,,69,127
34114,note_on,6,0,0,,10,,,33,127
34114,note_on,0,0,0,,6,,,78,127
34164,note_off,50,0,0,,6,,,78,127
34165,note_on,1,0,0,,4,,,76,127
34215,note_off,50,0,0,,4,,,76,127
34216,note_on,1,0,0,,6,,,78,127
34266,note_off,50,0,0,,6,,,78,127
34267,note_on,1,0,0,,4,,,76,127
34317,note_off,50,0,0,,4,,,76,127
34318,note_on,1,0,0,,6,,,78,127
34368,note_off,50,0,0,,6,,,78,127
34369,note_on,1,0,0,,4,,,76,127
34419,note_off,50,0,0,,4,,,76,127
34420,note_on,1,0,0,,2,,,74,127
34470,note_off,50,0,0,,2,,,74,127
34471,note_on,1,0,0,,4,,,76,127
34512,note_off,41,0,0,,10,,,33,127
34522,note_off,10,0,0,,4,,,76,127
34523,note_on,1,0,0,,10,,,81,127
34592,note_on,69,0,0,,6,,,42,127
34654,note_off,62,0,0,,6,,,42,127
34660,note_on,6,0,0,,7,,,43,127
34722,note_off,62,0,0,,7,,,43,127
34728,note_on,6,0,0,,10,,,45,127
34790,note_off,62,0,0,,10,,,45,127
34796,note_on,6,0,0,,12,,,47,127
34858,note_off,62,0,0,,12,,,47,127
34864,note_on,6,0,0,,1,,,49,127
34926,note_off,62,0,0,,1,,,49,127
34932,note_on,6,0,0,,2,,,50,127
34994,note_off,62,0,0,,2,,,50,127
35000,note_on,6,0,0,,4,,,52,127
35062,note_off,62,0,0,,4,,,52,127
35068,note_on,6,0,0,,6,,,54,127
35130,note_off,62,0,0,,6,,,54,127
35136,note_on,6,0,0,,7,,,55,127
35198,note_off,62,0,0,,7,,,55,127
35204,note_on,6,0,0,,10,,,57,127
35266,note_off,62,0,0,,10,,,57,127
35272,note_on,6,0,0,,12,,,59,127
35334,note_off,62,0,0,,12,,,59,127
35340,note_on,6,0,0,,1,,,61,127
35402,note_off,62,0,0,,1,,,61,127
35408,note_on,6,0,0,,2,,,62,127
35470,note_off,62,0,0,,2,,,62,127
35476,note_on,6,0,0,,4,,,64,127
35538,note_off,62,0,0,,4,,,64,127
35544,note_on,6,0,0,,6,,,66,127
35606,note_off,62,0,0,,6,,,66,127
35612,note_on,6,0,0,,7,,,67,127
35674,note_off,62,0,0,,7,,,67,127
35680,note_on,6,0,0,,10,,,69,127
35742,note_off,62,0,0,,10,,,69,127
35748,note_on,6,0,0,,7,,,43,127
35813,note_off,65,0,0,,10,,,81,127
35816,note_on,3,0,0,,7,,,79,127
35878,note_off,62,0,0,,7,,,79,127
35884,note_on,6,0,0,,6,,,78,127
35946,note_off,62,0,0,,6,,,78,127
35952,note_on,6,0,0,,4,,,76,127
36014,note_off,62,0,0,,4,,,76,127
36020,note_on,6,0,0,,6,,,78,127
36082,note_off,62,0,0,,6,,,78,127
36088,note_on,6,0,0,,2,,,74,127
36150,note_off,62,0,0,,2,,,74,127
36156,note_on,6,0,0,,1,,,73,127
36218,note_off,62,0,0,,1,,,73,127
36224,note_on,6,0,0,,2,,,74,127
36286,note_off,62,0,0,,2,,,74,127
36292,note_on,6,0,0,,12,,,71,127
36354,note_off,62,0,0,,12,,,71,127
36359,note_off,5,0,0,,7,,,43,127
36360,note_on,1,0,0,,10,,,69,127
36422,note_off,62,0,0,,10,,,69,127
36428,note_on,6,0,0,,12,,,71,127
36490,note_off,62,0,0,,12,,,71,127
36496,note_on,6,0,0,,7,,,67,127
36558,note_off,62,0,0,,7,,,67,127
36564,note_on,6,0,0,,6,,,66,127
36626,note_off,62,0,0,,6,,,66,127
36632,note_on,6,0,0,,7,,,67,127
36694,note_off,62,0,0,,7,,,67,127
36700,note_on,6,0,0,,4,,,64,127
36762,note_off,62,0,0,,4,,,64,127
36768,note_on,6,0,0,,2,,,62,127
36830,note_off,62,0,0,,2,,,62,127
36836,note_on,6,0,0,,4,,,64,127
36898,note_off,62,0,0,,4,,,64,127
36904,note_on,6,0,0,,1,,,61,127
36966,note_off,62,0,0,,1,,,61,127
36972,note_on,6,0,0,,10,,,81,127
37041,note_on,69,0,0,,6,,,42,127
37103,note_off,62,0,0,,6,,,42,127
37109,note_on,6,0,0,,7,,,43,127
37171,note_off,62,0,0,,7,,,43,127
37177,note_on,6,0,0,,10,,,45,127
37239,note_off,62,0,0,,10,,,45,127
37245,note_on,6,0,0,,12,,,47,127
37307,note_off,62,0,0,,12,,,47,127
37313,note_on,6,0,0,,1,,,49,127
37375,note_off,62,0,0,,1,,,49,127
37381,note_on,6,0,0,,2,,,50,127
37443,note_off,62,0,0,,2,,,50,127
37449,note_on,6,0,0,,4,,,52,127
37511,note_off,62,0,0,,4,,,52,127
37517,note_on,6,0,0,,6,,,54,127
37579,note_off,62,0,0,,6,,,54,127
37585,note_on,6,0,0,,7,,,55,127
37647,note_off,62,0,0,,7,,,55,127
37653,note_on,6,0,0,,10,,,57,127
37715,note_off,62,0,0,,10,,,57,127
37721,note_on,6,0,0,,12,,,59,127
37783,note_off,62,0,0,,12,,,59,127
37789,note_on,6,0,0,,1,,,61,127
37851,note_off,62,0,0,,1,,,61,127
37857,note_on,6,0,0,,2,,,62,127
37919,note_off,62,0,0,,2,,,62,127
37925,note_on,6,0,0,,4,,,64,127
37987,note_off,62,0,0,,4,,,64,127
37993,note_on,6,0,0,,6,,,66,127
38055,note_off,62,0,0,,6,,,66,127
38061,note_on,6,0,0,,7,,,67,127
38123,note_off,62,0,0,,7,,,67,127
38129,note_on,6,0,0,,10,,,69,127
38191,note_off,62,0,0,,10,,,69,127
38197,note_on,6,0,0,,7,,,43,127
38262,note_off,65,0,0,,10,,,81,127
38265,note_on,3,0,0,,7,,,79,127
38327,note_off,62,0,0,,7,,,79,127
38333,note_on,6,0,0,,6,,,78,127
38395,note_off,62,0,0,,6,,,78,127
38401,note_on,6,0,0,,4,,,76,127
38463,note_off,62,0,0,,4,,,76,127
38469,note_on,6,0,0,,6,,,78,127
38531,note_off,62,0,0,,6,,,78,127
38537,note_on,6,0,0,,2,,,74,127
38599,note_off,62,0,0,,2,,,74,127
38605,note_on,6,0,0,,1,,,73,127
38667,note_off,62,0,0,,1,,,73,127
38673,note_on,6,0,0,,2,,,74,127
38735,note_off,62,0,0,,2,,,74,127
38741,note_on,6,0,0,,12,,,71,127
38803,note_off,62,0,0,,12,,,71,127
38809,note_on,6,0,0,,10,,,69,127
38871,note_off,62,0,0,,10,,,69,127
38877,note_on,6,0,0,,12,,,71,127
38939,note_off,62,0,0,,12,,,71,127
38945,note_on,6,0,0,,7,,,67,127
39007,note_off,62,0,0,,7,,,67,127
39013,note_on,6,0,0,,6,,,66,127
39075,note_off,62,0,0,,6,,,66,127
39081,note_on,6,0,0,,7,,,67,127
39143,note_off,62,0,0,,7,,,67,127
39149,note_on,6,0,0,,4,,,64,127
39211,note_off,62,0,0,,4,,,64,127
39217,note_on,6,0,0,,2,,,62,127
39279,note_off,62,0,0,,2,,,62,127
39285,note_on,6,0,0,,4,,,64,127
39347,note_off,62,0,0,,4,,,64,127
39353,note_on,6,0,0,,1,,,61,127
39415,note_off,62,0,0,,1,,,61,127
39418,note_off,3,0,0,,7,,,43,127
39421,note_on,3,0,0,,6,,,42,127
39421,note_on,0,0,0,,2,,,62,127
39483,note_off,62,0,0,,2,,,62,127
39489,note_on,6,0,0,,10,,,81,127
39551,note_off,62,0,0,,10,,,81,127
39557,note_on,6,0,0,,7,,,79,127
39619,note_off,62,0,0,,7,,,79,127
39622,note_off,3,0,0,,6,,,42,127
39625,note_on,3,0,0,,7,,,43,127
39625,note_on,0,0,0,,6,,,78,127
39687,note_off,62,0,0,,6,,,78,127
39693,note_on,6,0,0,,4,,,76,127
39755,note_off,62,0,0,,4,,,76,127
39761,note_on,6,0,0,,2,,,74,127
39823,note_off,62,0,0,,2,,,74,127
39826,note_off,3,0,0,,7,,,43,127
39829,note_on,3,0,0,,10,,,45,127
39829,note_on,0,0,0,,1,,,73,127
39891,note_off,62,0,0,,1,,,73,127
39897,note_on,6,0,0,,12,,,71,127
39959,note_off,62,0,0,,12,,,71,127
39965,note_on,6,0,0,,10,,,69,127
40027,note_off,62,0,0,,10,,,69,127
40033,note_on,6,0,0,,7,,,67,127
40095,note_off,62,0,0,,7,,,67,127
40101,note_on,6,0,0,,6,,,66,127
40163,note_off,62,0,0,,6,,,66,127
40169,note_on,6,0,0,,4,,,64,127
40231,note_off,62,0,0,,4,,,64,127
40234,note_off,3,0,0,,10,,,45,127
40237,note_on,3,0,0,,10,,,45,127
40237,note_on,0,0,0,,6,,,78,127
40287,note_off,50,0,0,,6,,,78,127
40288,note_on,1,0,0,,4,,,76,127
40338,note_off,50,0,0,,4,,,76,127
40339,note_on,1,0,0,,6,,,78,127
40389,note_off,50,0,0,,6,,,78,127
40390,note_on,1,0,0,,4,,,76,127
40440,note_off,50,0,0,,4,,,76,127
40441,note_on,1,0,0,,6,,,78,127
40491,note_off,50,0,0,,6,,,78,127
40492,note_on,1,0,0,,4,,,76,127
40542,note_off,50,0,0,,4,,,76,127
40543,note_on,1,0,0,,2,,,74,127
40593,note_off,50,0,0,,2,,,74,127
40594,note_on,1,0,0,,4,,,76,127
40642,note_off,48,0,0,,10,,,45,127
40644,note_off,2,0,0,,4,,,76,127
40645,note_on,1,0,0,,2,,,50,127
40645,note_on,0,0,0,,2,,,74,127
40855,note_off,210,0,0,,2,,,74,127
40859,note_on,4,0,0,,1,,,73,127
40859,note_on,0,0,0,,2,,,74,127
41053,note_off,194,0,0,,2,,,50,127
41062,note_off,9,0,0,,2,,,74,127
41062,note_off,0,0,0,,1,,,73,127
41065,note_on,3,0,0,,2,,,50,127
41065,note_on,0,0,0,,2,,,62,127
41065,note_on,0,0,0,,2,,,74,127
41065,note_on,0,0,0,,12,,,71,127
41267,note_off,202,0,0,,12,,,71,127
41267,note_off,0,0,0,,2,,,74,127
41270,note_on,3,0,0,,10,,,69,127
41270,note_on,0,0,0,,2,,,74,127
41472,note_off,202,0,0,,2,,,74,127
41472,note_off,0,0,0,,10,,,69,127
41472,note_off,0,0,0,,2,,,62,127
41472,note_off,0,0,0,,2,,,50,127
41475,note_on,3,0,0,,4,,,64,127
41475,note_on,0,0,0,,2,,,50,127
41475,note_on,0,0,0,,7,,,67,127
41475,note_on,0,0,0,,1,,,73,127
41677,note_off,202,0,0,,1,,,73,127
41680,note_on,3,0,0,,2,,,74,127
41780,note_off,100,0,0,,2,,,74,127
41783,note_on,3,0,0,,4,,,76,127
41879,note_off,96,0,0,,7,,,67,127
41882,note_off,3,0,0,,4,,,76,127
41882,note_off,0,0,0,,2,,,50,127
41882,note_off,0,0,0,,4,,,64,127
41885,note_on,3,0,0,,2,,,50,127
41885,note_on,0,0,0,,2,,,62,127
41885,note_on,0,0,0,,2,,,74,127
42087,note_off,202,0,0,,2,,,74,127
42090,note_on,3,0,0,,2,,,74,127
42090,note_on,0,0,0,,1,,,73,127
42292,note_off,202,0,0,,1,,,73,127
42292,note_off,0,0,0,,2,,,74,127
42292,note_off,0,0,0,,2,,,62,127
42292,note_off,0,0,0,,2,,,50,127
42295,note_on,3,0,0,,2,,,62,127
42295,note_on,0,0,0,,2,,,50,127
42295,note_on,0,0,0,,7,,,79,127
42295,note_on,0,0,0,,2,,,74,127
42295,note_on,0,0,0,,12,,,71,127
42497,note_off,202,0,0,,12,,,71,127
42500,note_on,3,0,0,,10,,,69,127
42699,note_off,199,0,0,,2,,,74,127
42702,note_off,3,0,0,,10,,,69,127
42702,note_off,0,0,0,,2,,,50,127
42702,note_off,0,0,0,,2,,,62,127
42705,note_on,3,0,0,,4,,,64,127
42705,note_on,0,0,0,,4,,,52,127
42705,note_on,0,0,0,,7,,,67,127
42705,note_on,0,0,0,,1,,,73,127
42907,note_off,202,0,0,,1,,,73,127
42910,note_on,3,0,0,,2,,,74,127
43010,note_off,100,0,0,,2,,,74,127
43013,note_on,3,0,0,,4,,,76,127
43109,note_off,96,0,0,,7,,,67,127
43112,note_off,3,0,0,,4,,,76,127
43112,note_off,0,0,0,,4,,,52,127
43112,note_off,0,0,0,,4,,,64,127
43112,note_off,0,0,0,,7,,,79,127
43115,note_on,3,0,0,,6,,,54,127
43115,note_on,0,0,0,,10,,,81,127
43177,note_off,62,0,0,,10,,,81,127
43183,note_on,6,0,0,,7,,,79,127
43245,note_off,62,0,0,,7,,,79,127
43251,note_on,6,0,0,,10,,,81,127
43313,note_off,62,0,0,,10,,,81,127
43316,note_off,3,0,0,,6,,,54,127
43319,note_on,3,0,0,,7,,,55,127
43319,note_on,0,0,0,,12,,,83,127
43381,note_off,62,0,0,,12,,,83,127
43387,note_on,6,0,0,,10,,,81,127
43449,note_off,62,0,0,,10,,,81,127
43455,note_on,6,0,0,,7,,,79,127
43517,note_off,62,0,0,,7,,,79,127
43520,note_off,3,0,0,,7,,,55,127
43523,note_on,3,0,0,,10,,,57,127
43523,note_on,0,0,0,,6,,,78,127
43585,note_off,62,0,0,,6,,,78,127
43591,note_on,6,0,0,,4,,,76,127
43653,note_off,62,0,0,,4,,,76,127
43659,note_on,6,0,0,,2,,,74,127
43721,note_off,62,0,0,,2,,,74,127
43727,note_on,6,0,0,,1,,,73,127
43789,note_off,62,0,0,,1,,,73,127
43795,note_on,6,0,0,,12,,,71,127
43857,note_off,62,0,0,,12,,,71,127
43863,note_on,6,0,0,,10,,,69,127
43925,note_off,62,0,0,,10,,,69,127
43928,note_off,3,0,0,,10,,,57,127
43931,note_on,3,0,0,,10,,,45,127
43931,note_on,0,0,0,,6,,,78,127
43981,note_off,50,0,0,,6,,,78,127
43982,note_on,1,0,0,,4,,,76,127
44032,note_off,50,0,0,,4,,,76,127
44033,note_on,1,0,0,,6,,,78,127
44083,note_off,50,0,0,,6,,,78,127
44084,note_on,1,0,0,,4,,,76,127
44134,note_off,50,0,0,,4,,,76,127
44135,note_on,1,0,0,,6,,,78,127
44185,note_off,50,0,0,,6,,,78,127
44186,note_on,1,0,0,,4,,,76,127
44236,note_off,50,0,0,,4,,,76,127
44237,note_on,1,0,0,,2,,,74,127
44287,note_off,50,0,0,,2,,,74,127
44288,note_on,1,0,0,,4,,,76,127
44336,note_off,48,0,0,,10,,,45,127
44338,note_off,2,0,0,,4,,,76,127
44339,note_on,1,0,0,,2,,,50,127
44339,note_on,0,0,0,,2,,,62,127
44339,note_on,0,0,0,,2,,,74,127
44541,note_off,202,0,0,,2,,,74,127
44544,note_on,3,0,0,,1,,,73,127
44544,note_on,0,0,0,,2,,,74,127
44746,note_off,202,0,0,,2,,,74,127
44746,note_off,0,0,0,,1,,,73,127
44746,note_off,0,0,0,,2,,,62,127
44746,note_off,0,0,0,,2,,,50,127
44749,note_on,3,0,0,,2,,,62,127
44749,note_on,0,0,0,,2,,,50,127
44749,note_on,0,0,0,,2,,,74,127
44749,note_on,0,0,0,,12,,,71,127
44951,note_off,202,0,0,,12,,,71,127
44951,note_off,0,0,0,,2,,,74,127
44954,note_on,3,0,0,,10,,,69,127
44954,note_on,0,0,0,,2,,,74,127
45156,note_off,202,0,0,,2,,,74,127
45156,note_off,0,0,0,,10,,,69,127
45156,note_off,0,0,0,,2,,,50,127
45156,note_off,0,0,0,,2,,,62,127
45159,note_on,3,0,0,,4,,,64,127
45159,note_on,0,0,0,,2,,,50,127
45159,note_on,0,0,0,,1,,,73,127
45159,note_on,0,0,0,,7,,,67,127
45430,note_off,271,0,0,,1,,,73,127
45433,note_on,3,0,0,,2,,,74,127
45495,note_off,62,0,0,,2,,,74,127
45501,note_on,6,0,0,,4,,,76,127
45563,note_off,62,0,0,,4,,,76,127
45563,note_off,0,0,0,,7,,,67,127
45566,note_off,3,0,0,,2,,,50,127
45566,note_off,0,0,0,,4,,,64,127
45569,note_on,3,0,0,,2,,,62,127
45569,note_on,0,0,0,,2,,,50,127
45569,note_on,0,0,0,,2,,,74,127
45771,note_off,202,0,0,,2,,,74,127
45774,note_on,3,0,0,,2,,,74,127
45774,note_on,0,0,0,,1,,,73,127
45976,note_off,202,0,0,,1,,,73,127
45976,note_off,0,0,0,,2,,,74,127
45976,note_off,0,0,0,,2,,,50,127
45976,note_off,0,0,0,,2,,,62,127
45979,note_on,3,0,0,,2,,,50,127
45979,note_on,0,0,0,,7,,,79,127
45979,note_on,0,0,0,,12,,,71,127
45979,note_on,0,0,0,,2,,,74,127
46181,note_off,202,0,0,,12,,,71,127
46184,note_on,3,0,0,,10,,,69,127
46383,note_off,199,0,0,,2,,,74,127
46386,note_off,3,0,0,,10,,,69,127
46386,note_off,0,0,0,,2,,,50,127
46389,note_on,3,0,0,,4,,,52,127
46389,note_on,0,0,0,,4,,,64,127
46389,note_on,0,0,0,,1,,,73,127
46389,note_on,0,0,0,,7,,,67,127
46660,note_off,271,0,0,,1,,,73,127
46663,note_on,3,0,0,,2,,,74,127
46725,note_off,62,0,0,,2,,,74,127
46731,note_on,6,0,0,,4,,,76,127
46793,note_off,62,0,0,,4,,,76,127
46793,note_off,0,0,0,,7,,,67,127
46796,note_off,3,0,0,,4,,,64,127
46796,note_off,0,0,0,,4,,,52,127
46796,note_off,0,0,0,,7,,,79,127
46799,note_on,3,0,0,,6,,,54,127
46799,note_on,0,0,0,,10,,,81,127
46861,note_off,62,0,0,,10,,,81,127
46867,note_on,6,0,0,,7,,,79,127
46929,note_off,62,0,0,,7,,,79,127
46935,note_on,6,0,0,,10,,,81,127
46997,note_off,62,0,0,,10,,,81,127
47000,note_off,3,0,0,,6,,,54,127
47003,note_on,3,0,0,,7,,,55,127
47003,note_on,0,0,0,,12,,,83,127
47065,note_off,62,0,0,,12,,,83,127
47071,note_on,6,0,0,,10,,,81,127
47133,note_off,62,0,0,,10,,,81,127
47139,note_on,6,0,0,,7,,,79,127
47201,note_off,62,0,0,,7,,,79,127
47204,note_off,3,0,0,,7,,,55,127
47207,note_on,3,0,0,,10,,,57,127
47207,note_on,0,0,0,,6,,,78,127
47269,note_off,62,0,0,,6,,,78,127
47275,note_on,6,0,0,,4,,,76,127
47337,note_off,62,0,0,,4,,,76,127
47343,note_on,6,0,0,,2,,,74,127
47405,note_off,62,0,0,,2,,,74,127
47411,note_on,6,0,0,,1,,,73,127
47473,note_off,62,0,0,,1,,,73,127
47479,note_on,6,0,0,,12,,,71,127
47541,note_off,62,0,0,,12,,,71,127
47547,note_on,6,0,0,,10,,,69,127
47609,note_off,62,0,0,,10,,,69,127
47612,note_off,3,0,0,,10,,,57,127
47615,note_on,3,0,0,,10,,,45,127
47615,note_on,0,0,0,,6,,,78,127
47665,note_off,50,0,0,,6,,,78,127
47666,note_on,1,0,0,,4,,,76,127
47716,note_off,50,0,0,,4,,,76,127
47717,note_on,1,0,0,,6,,,78,127
47767,note_off,50,0,0,,6,,,78,127
47768,note_on,1,0,0,,4,,,76,127
47818,note_off,50,0,0,,4,,,76,127
47819,note_on,1,0,0,,6,,,78,127
47869,note_off,50,0,0,,6,,,78,127
47870,note_on,1,0,0,,4,,,76,127
47920,note_off,50,0,0,,4,,,76,127
47921,note_on,1,0,0,,2,,,74,127
47971,note_off,50,0,0,,2,,,74,127
47972,note_on,1,0,0,,4,,,76,127
48020,note_off,48,0,0,,10,,,45,127
48022,note_off,2,0,0,,4,,,76,127
48023,note_on,1,0,0,,2,,,38,127
48023,note_on,0,0,0,,2,,,74,127
48085,note_off,62,0,0,,2,,,74,127
48091,note_on,6,0,0,,10,,,81,127
48153,note_off,62,0,0,,10,,,81,127
48159,note_on,6,0,0,,6,,,78,127
48221,note_off,62,0,0,,6,,,78,127
48227,note_on,6,0,0,,2,,,74,127
48289,note_off,62,0,0,,2,,,74,127
48295,note_on,6,0,0,,6,,,78,127
48357,note_off,62,0,0,,6,,,78,127
48363,note_on,6,0,0,,2,,,74,127
48425,note_off,62,0,0,,2,,,74,127
48431,note_on,6,0,0,,10,,,69,127
48493,note_off,62,0,0,,10,,,69,127
48499,note_on,6,0,0,,2,,,74,127
48561,note_off,62,0,0,,2,,,74,127
48567,note_on,6,0,0,,10,,,69,127
48629,note_off,62,0,0,,10,,,69,127
48635,note_on,6,0,0,,6,,,66,127
48697,note_off,62,0,0,,6,,,66,127
48703,note_on,6,0,0,,10,,,69,127
48765,note_off,62,0,0,,10,,,69,127
48771,note_on,6,0,0,,6,,,66,127
48833,note_off,62,0,0,,6,,,66,127
48839,note_on,6,0,0,,2,,,62,127
48901,note_off,62,0,0,,2,,,62,127
48907,note_on,6,0,0,,10,,,57,127
48969,note_off,62,0,0,,10,,,57,127
48975,note_on,6,0,0,,6,,,54,127
49037,note_off,62,0,0,,6,,,54,127
49043,note_on,6,0,0,,2,,,50,127
49105,note_off,62,0,0,,2,,,50,127
49111,note_on,6,0,0,,10,,,45,127
49173,note_off,62,0,0,,10,,,45,127
49179,note_on,6,0,0,,6,,,42,127
49237,note_off,58,0,0,,2,,,38,127
49241,note_off,4,0,0,,6,,,42,127
49247,note_on,6,0,0,,2,,,38,127
50433,note_off,1186,0,0,,2,,,38,127
50481,note_on,48,0,0,,4,,,76,127
50481,note_on,0,0,0,,2,,,62,127
50481,note_on,0,0,0,,2,,,50,127
50481,note_on,0,0,0,,10,,,57,127
50543,note_off,62,0,0,,4,,,76,127
50549,note_on,6,0,0,,2,,,74,127
50611,note_off,62,0,0,,2,,,74,127
50617,note_on,6,0,0,,1,,,73,127
50679,note_off,62,0,0,,1,,,73,127
50685,note_on,6,0,0,,2,,,74,127
50747,note_off,62,0,0,,2,,,74,127
50753,note_on,6,0,0,,4,,,76,127
50815,note_off,62,0,0,,4,,,76,127
50821,note_on,6,0,0,,6,,,78,127
50883,note_off,62,0,0,,6,,,78,127
50886,note_off,3,0,0,,10,,,57,127
50886,note_off,0,0,0,,2,,,50,127
50886,note_off,0,0,0,,2,,,62,127
50889,note_on,3,0,0,,6,,,78,127
50889,note_on,0,0,0,,2,,,62,127
50889,note_on,0,0,0,,2,,,50,127
50889,note_on,0,0,0,,10,,,57,127
51095,note_on,206,0,0,,10,,,69,127
51196,note_off,101,0,0,,6,,,78,127
51298,note_off,102,0,0,,10,,,69,127
51298,note_off,0,0,0,,10,,,57,127
51298,note_off,0,0,0,,2,,,50,127
51298,note_off,0,0,0,,2,,,62,127
51301,note_on,3,0,0,,10,,,69,127
51301,note_on,0,0,0,,10,,,57,127
51301,note_on,0,0,0,,2,,,62,127
51301,note_on,0,0,0,,2,,,50,127
51503,note_off,202,0,0,,10,,,69,127
51506,note_on,3,0,0,,10,,,69,127
51660,note_off,154,0,0,,10,,,69,127
51708,note_off,48,0,0,,2,,,50,127
51708,note_off,0,0,0,,2,,,62,127
51708,note_off,0,0,0,,10,,,57,127
51711,note_on,3,0,0,,2,,,74,127
51711,note_on,0,0,0,,0,,,60,127
51711,note_on,0,0,0,,2,,,50,127
51711,note_on,0,0,0,,10,,,57,127
51773,note_off,62,0,0,,2,,,74,127
51779,note_on,6,0,0,,0,,,72,127
51841,note_off,62,0,0,,0,,,72,127
51847,note_on,6,0,0,,12,,,71,127
51909,note_off,62,0,0,,12,,,71,127
51915,note_on,6,0,0,,0,,,72,127
51977,note_off,62,0,0,,0,,,72,127
51983,note_on,6,0,0,,2,,,74,127
52045,note_off,62,0,0,,2,,,74,127
52051,note_on,6,0,0,,4,,,76,127
52113,note_off,62,0,0,,4,,,76,127
52116,note_off,3,0,0,,10,,,57,127
52116,note_off,0,0,0,,2,,,50,127
52116,note_off,0,0,0,,0,,,60,127
52119,note_on,3,0,0,,4,,,76,127
52119,note_on,0,0,0,,10,,,57,127
52119,note_on,0,0,0,,0,,,60,127
52119,note_on,0,0,0,,2,,,50,127
52325,note_on,206,0,0,,6,,,66,127
52426,note_off,101,0,0,,4,,,76,127
52528,note_off,102,0,0,,6,,,66,127
52528,note_off,0,0,0,,2,,,50,127
52528,note_off,0,0,0,,0,,,60,127
52528,note_off,0,0,0,,10,,,57,127
52531,note_on,3,0,0,,6,,,66,127
52531,note_on,0,0,0,,0,,,60,127
52531,note_on,0,0,0,,10,,,57,127
52531,note_on,0,0,0,,2,,,50,127
52733,note_off,202,0,0,,6,,,66,127
52736,note_on,3,0,0,,6,,,66,127
52890,note_off,154,0,0,,6,,,66,127
52938,note_off,48,0,0,,2,,,50,127
52938,note_off,0,0,0,,10,,,57,127
52938,note_off,0,0,0,,0,,,60,127
52941,note_on,3,0,0,,0,,,72,127
52941,note_on,0,0,0,,7,,,55,127
52941,note_on,0,0,0,,12,,,59,127
52941,note_on,0,0,0,,2,,,50,127
53003,note_off,62,0,0,,0,,,72,127
53009,note_on,6,0,0,,12,,,71,127
53071,note_off,62,0,0,,12,,,71,127
53077,note_on,6,0,0,,10,,,69,127
53139,note_off,62,0,0,,10,,,69,127
53145,note_on,6,0,0,,12,,,71,127
53207,note_off,62,0,0,,12,,,71,127
53213,note_on,6,0,0,,0,,,72,127
53275,note_off,62,0,0,,0,,,72,127
53281,note_on,6,0,0,,2,,,74,127
53343,note_off,62,0,0,,2,,,74,127
53346,note_off,3,0,0,,2,,,50,127
53346,note_off,0,0,0,,12,,,59,127
53346,note_off,0,0,0,,7,,,55,127
53349,note_on,3,0,0,,2,,,74,127
53349,note_on,0,0,0,,7,,,55,127
53349,note_on,0,0,0,,12,,,59,127
53349,note_on,0,0,0,,2,,,50,127
53555,note_on,206,0,0,,2,,,62,127
53754,note_off,199,0,0,,2,,,74,127
53757,note_off,3,0,0,,2,,,62,127
53757,note_off,0,0,0,,2,,,50,127
53757,note_off,0,0,0,,12,,,59,127
53757,note_off,0,0,0,,7,,,55,127
53760,note_on,3,0,0,,2,,,62,127
53760,note_on,0,0,0,,7,,,55,127
53760,note_on,0,0,0,,12,,,59,127
53760,note_on,0,0,0,,2,,,50,127
53962,note_off,202,0,0,,2,,,62,127
53965,note_on,3,0,0,,2,,,62,127
54119,note_off,154,0,0,,2,,,62,127
54143,note_off,24,0,0,,2,,,50,127
54143,note_off,0,0,0,,12,,,59,127
54143,note_off,0,0,0,,7,,,55,127
54171,note_on,28,0,0,,6,,,78,127
54171,note_on,0,0,0,,7,,,55,127
54171,note_on,0,0,0,,10,,,57,127
54171,note_on,0,0,0,,1,,,49,127
54233,note_off,62,0,0,,6,,,78,127
54239,note_on,6,0,0,,4,,,76,127
54301,note_off,62,0,0,,4,,,76,127
54307,note_on,6,0,0,,2,,,74,127
54369,note_off,62,0,0,,2,,,74,127
54375,note_on,6,0,0,,4,,,76,127
54437,note_off,62,0,0,,4,,,76,127
54443,note_on,6,0,0,,6,,,78,127
54505,note_off,62,0,0,,6,,,78,127
54511,note_on,6,0,0,,7,,,79,127
54573,note_off,62,0,0,,7,,,79,127
54576,note_off,3,0,0,,1,,,49,127
54576,note_off,0,0,0,,10,,,57,127
54576,note_off,0,0,0,,7,,,55,127
54579,note_on,3,0,0,,7,,,79,127
54579,note_on,0,0,0,,1,,,49,127
54579,note_on,0,0,0,,10,,,57,127
54579,note_on,0,0,0,,7,,,55,127
54781,note_off,202,0,0,,7,,,79,127
54784,note_on,3,0,0,,10,,,69,127
54986,note_off,202,0,0,,10,,,69,127
54986,note_off,0,0,0,,7,,,55,127
54986,note_off,0,0,0,,10,,,57,127
54986,note_off,0,0,0,,1,,,49,127
54989,note_on,3,0,0,,10,,,69,127
54989,note_on,0,0,0,,10,,,57,127
54989,note_on,0,0,0,,1,,,49,127
54989,note_on,0,0,0,,7,,,55,127
55191,note_off,202,0,0,,10,,,69,127
55194,note_on,3,0,0,,10,,,69,127
55348,note_off,154,0,0,,10,,,69,127
55372,note_off,24,0,0,,7,,,55,127
55372,note_off,0,0,0,,1,,,49,127
55372,note_off,0,0,0,,10,,,57,127
55400,note_on,28,0,0,,10,,,81,127
55400,note_on,0,0,0,,8,,,56,127
55400,note_on,0,0,0,,2,,,50,127
55400,note_on,0,0,0,,4,,,52,127
55400,note_on,0,0,0,,12,,,47,127
55462,note_off,62,0,0,,10,,,81,127
55468,note_on,6,0,0,,8,,,80,127
55530,note_off,62,0,0,,8,,,80,127
55536,note_on,6,0,0,,6,,,78,127
55598,note_off,62,0,0,,6,,,78,127
55604,note_on,6,0,0,,8,,,80,127
55666,note_off,62,0,0,,8,,,80,127
55672,note_on,6,0,0,,10,,,81,127
55734,note_off,62,0,0,,10,,,81,127
55740,note_on,6,0,0,,12,,,83,127
55802,note_off,62,0,0,,12,,,83,127
55805,note_off,3,0,0,,12,,,47,127
55805,note_off,0,0,0,,4,,,52,127
55805,note_off,0,0,0,,2,,,50,127
55805,note_off,0,0,0,,8,,,56,127
55808,note_on,3,0,0,,12,,,83,127
55808,note_on,0,0,0,,4,,,52,127
55808,note_on,0,0,0,,8,,,56,127
55808,note_on,0,0,0,,12,,,47,127
55808,note_on,0,0,0,,2,,,50,127
56014,note_on,206,0,0,,12,,,71,127
56213,note_off,199,0,0,,12,,,83,127
56216,note_off,3,0,0,,12,,,71,127
56216,note_off,0,0,0,,2,,,50,127
56216,note_off,0,0,0,,12,,,47,127
56216,note_off,0,0,0,,8,,,56,127
56216,note_off,0,0,0,,4,,,52,127
56219,note_on,3,0,0,,12,,,71,127
56219,note_on,0,0,0,,2,,,50,127
56219,note_on,0,0,0,,4,,,52,127
56219,note_on,0,0,0,,8,,,56,127
56219,note_on,0,0,0,,12,,,47,127
56421,note_off,202,0,0,,12,,,71,127
56424,note_on,3,0,0,,12,,,71,127
56578,note_off,154,0,0,,12,,,71,127
56626,note_off,48,0,0,,12,,,47,127
56626,note_off,0,0,0,,8,,,56,127
56626,note_off,0,0,0,,4,,,52,127
56626,note_off,0,0,0,,2,,,50,127
56629,note_on,3,0,0,,2,,,86,127
56629,note_on,0,0,0,,10,,,57,127
56629,note_on,0,0,0,,4,,,52,127
56629,note_on,0,0,0,,10,,,45,127
56691,note_off,62,0,0,,2,,,86,127
56697,note_on,6,0,0,,0,,,84,127
56759,note_off,62,0,0,,0,,,84,127
56765,note_on,6,0,0,,12,,,83,127
56827,note_off,62,0,0,,12,,,83,127
56833,note_on,6,0,0,,0,,,84,127
56895,note_off,62,0,0,,0,,,84,127
56901,note_on,6,0,0,,2,,,86,127
56963,note_off,62,0,0,,2,,,86,127
56969,note_on,6,0,0,,4,,,88,127
57031,note_off,62,0,0,,4,,,88,127
57034,note_off,3,0,0,,10,,,45,127
57034,note_off,0,0,0,,4,,,52,127
57034,note_off,0,0,0,,10,,,57,127
57037,note_on,3,0,0,,4,,,88,127
57037,note_on,0,0,0,,4,,,52,127
57037,note_on,0,0,0,,10,,,57,127
57037,note_on,0,0,0,,10,,,45,127
57243,note_on,206,0,0,,4,,,76,127
57442,note_off,199,0,0,,4,,,88,127
57445,note_off,3,0,0,,4,,,76,127
57445,note_off,0,0,0,,10,,,45,127
57445,note_off,0,0,0,,10,,,57,127
57445,note_off,0,0,0,,4,,,52,127
57448,note_on,3,0,0,,4,,,76,127
57448,note_on,0,0,0,,10,,,57,127
57448,note_on,0,0,0,,10,,,45,127
57448,note_on,0,0,0,,4,,,52,127
57650,note_off,202,0,0,,4,,,76,127
57653,note_on,3,0,0,,4,,,76,127
57855,note_off,202,0,0,,4,,,76,127
57855,note_off,0,0,0,,4,,,52,127
57855,note_off,0,0,0,,10,,,45,127
57855,note_off,0,0,0,,10,,,57,127
57858,note_on,3,0,0,,5,,,77,127
57858,note_on,0,0,0,,2,,,38,127
57908,note_off,50,0,0,,5,,,77,127
57909,note_on,1,0,0,,4,,,76,127
57959,note_off,50,0,0,,4,,,76,127
57960,note_on,1,0,0,,2,,,74,127
58010,note_off,50,0,0,,2,,,74,127
58011,note_on,1,0,0,,0,,,72,127
58061,note_off,50,0,0,,0,,,72,127
58062,note_on,1,0,0,,2,,,74,127
58264,note_off,202,0,0,,2,,,74,127
58264,note_off,0,0,0,,2,,,38,127
58267,note_on,3,0,0,,2,,,74,127
58267,note_on,0,0,0,,2,,,38,127
58317,note_off,50,0,0,,2,,,74,127
58318,note_on,1,0,0,,0,,,72,127
58368,note_off,50,0,0,,0,,,72,127
58369,note_on,1,0,0,,12,,,71,127
58419,note_off,50,0,0,,12,,,71,127
58420,note_on,1,0,0,,10,,,69,127
58470,note_off,50,0,0,,10,,,69,127
58471,note_on,1,0,0,,12,,,71,127
58673,note_off,202,0,0,,12,,,71,127
58673,note_off,0,0,0,,2,,,38,127
58676,note_on,3,0,0,,12,,,71,127
58676,note_on,0,0,0,,2,,,38,127
58726,note_off,50,0,0,,12,,,71,127
58727,note_on,1,0,0,,10,,,69,127
58777,note_off,50,0,0,,10,,,69,127
58778,note_on,1,0,0,,8,,,68,127
58828,note_off,50,0,0,,8,,,68,127
58829,note_on,1,0,0,,6,,,66,127
58879,note_off,50,0,0,,6,,,66,127
58880,note_on,1,0,0,,8,,,68,127
59082,note_off,202,0,0,,8,,,68,127
59082,note_off,0,0,0,,2,,,38,127
59085,note_on,3,0,0,,8,,,68,127
59085,note_on,0,0,0,,4,,,40,127
59147,note_off,62,0,0,,8,,,68,127
59153,note_on,6,0,0,,4,,,64,127
59215,note_off,62,0,0,,4,,,64,127
59221,note_on,6,0,0,,8,,,68,127
59283,note_off,62,0,0,,8,,,68,127
59289,note_on,6,0,0,,12,,,71,127
59351,note_off,62,0,0,,12,,,71,127
59357,note_on,6,0,0,,8,,,68,127
59419,note_off,62,0,0,,8,,,68,127
59425,note_on,6,0,0,,12,,,71,127
59487,note_off,62,0,0,,12,,,71,127
59490,note_off,3,0,0,,4,,,40,127
59493,note_on,3,0,0,,4,,,76,127
59493,note_on,0,0,0,,4,,,40,127
59555,note_off,62,0,0,,4,,,76,127
59561,note_on,6,0,0,,12,,,71,127
59623,note_off,62,0,0,,12,,,71,127
59629,note_on,6,0,0,,4,,,76,127
59691,note_off,62,0,0,,4,,,76,127
59697,note_on,6,0,0,,8,,,80,127
59759,note_off,62,0,0,,8,,,80,127
59765,note_on,6,0,0,,4,,,76,127
59827,note_off,62,0,0,,4,,,76,127
59833,note_on,6,0,0,,8,,,80,127
59895,note_off,62,0,0,,8,,,80,127
59898,note_off,3,0,0,,4,,,40,127
59901,note_on,3,0,0,,12,,,83,127
59901,note_on,0,0,0,,4,,,40,127
59963,note_off,62,0,0,,12,,,83,127
59969,note_on,6,0,0,,8,,,80,127
60031,note_off,62,0,0,,8,,,80,127
60037,note_on,6,0,0,,12,,,83,127
60099,note_off,62,0,0,,12,,,83,127
60105,note_on,6,0,0,,4,,,88,127
60307,note_off,202,0,0,,4,,,88,127
60307,note_off,0,0,0,,4,,,40,127
60310,note_on,3,0,0,,10,,,69,127
60310,note_on,0,0,0,,4,,,40,127
60372,note_off,62,0,0,,10,,,69,127
60378,note_on,6,0,0,,4,,,64,127
60440,note_off,62,0,0,,4,,,64,127
60446,note_on,6,0,0,,10,,,69,127
60508,note_off,62,0,0,,10,,,69,127
60514,note_on,6,0,0,,0,,,72,127
60576,note_off,62,0,0,,0,,,72,127
60582,note_on,6,0,0,,10,,,69,127
60644,note_off,62,0,0,,10,,,69,127
60650,note_on,6,0,0,,0,,,72,127
60712,note_off,62,0,0,,0,,,72,127
60715,note_off,3,0,0,,4,,,40,127
60718,note_on,3,0,0,,4,,,76,127
60718,note_on,0,0,0,,4,,,40,127
60780,note_off,62,0,0,,4,,,76,127
60786,note_on,6,0,0,,0,,,72,127
60848,note_off,62,0,0,,0,,,72,127
60854,note_on,6,0,0,,4,,,76,127
60916,note_off,62,0,0,,4,,,76,127
60922,note_on,6,0,0,,10,,,81,127
60984,note_off,62,0,0,,10,,,81,127
60990,note_on,6,0,0,,4,,,76,127
61052,note_off,62,0,0,,4,,,76,127
61058,note_on,6,0,0,,10,,,81,127
61120,note_off,62,0,0,,10,,,81,127
61123,note_off,3,0,0,,4,,,40,127
61126,note_on,3,0,0,,0,,,84,127
61126,note_on,0,0,0,,4,,,40,127
61188,note_off,62,0,0,,0,,,84,127
61194,note_on,6,0,0,,10,,,81,127
61256,note_off,62,0,0,,10,,,81,127
61262,note_on,6,0,0,,0,,,84,127
61324,note_off,62,0,0,,0,,,84,127
61330,note_on,6,0,0,,4,,,88,127
61532,note_off,202,0,0,,4,,,88,127
61532,note_off,0,0,0,,4,,,40,127
61535,note_on,3,0,0,,8,,,68,127
61535,note_on,0,0,0,,4,,,40,127
61597,note_off,62,0,0,,8,,,68,127
61603,note_on,6,0,0,,4,,,64,127
61665,note_off,62,0,0,,4,,,64,127
61671,note_on,6,0,0,,8,,,68,127
61733,note_off,62,0,0,,8,,,68,127
61739,note_on,6,0,0,,12,,,71,127
61801,note_off,62,0,0,,12,,,71,127
61807,note_on,6,0,0,,8,,,68,127
61869,note_off,62,0,0,,8,,,68,127
61875,note_on,6,0,0,,12,,,71,127
61937,note_off,62,0,0,,12,,,71,127
61940,note_off,3,0,0,,4,,,40,127
61943,note_on,3,0,0,,4,,,76,127
61943,note_on,0,0,0,,4,,,40,127
62005,note_off,62,0,0,,4,,,76,127
62011,note_on,6,0,0,,12,,,71,127
62073,note_off,62,0,0,,12,,,71,127
62079,note_on,6,0,0,,4,,,76,127
62141,note_off,62,0,0,,4,,,76,127
62147,note_on,6,0,0,,8,,,80,127
62209,note_off,62,0,0,,8,,,80,127
62215,note_on,6,0,0,,4,,,76,127
62277,note_off,62,0,0,,4,,,76,127
62283,note_on,6,0,0,,8,,,80,127
62345,note_off,62,0,0,,8,,,80,127
62348,note_off,3,0,0,,4,,,40,127
62351,note_on,3,0,0,,12,,,83,127
62351,note_on,0,0,0,,4,,,40,127
62413,note_off,62,0,0,,12,,,83,127
62419,note_on,6,0,0,,8,,,80,127
62481,note_off,62,0,0,,8,,,80,127
62487,note_on,6,0,0,,12,,,83,127
62549,note_off,62,0,0,,12,,,83,127
62555,note_on,6,0,0,,4,,,88,127
62750,note_off,195,0,0,,4,,,40,127
62757,note_off,7,0,0,,4,,,88,127
62760,note_on,3,0,0,,4,,,88,127
62760,note_on,0,0,0,,8,,,68,127
62822,note_off,62,0,0,,8,,,68,127
62828,note_on,6,0,0,,12,,,71,127
62890,note_off,62,0,0,,12,,,71,127
62896,note_on,6,0,0,,8,,,68,127
62958,note_off,62,0,0,,8,,,68,127
62964,note_on,6,0,0,,4,,,64,127
63026,note_off,62,0,0,,4,,,64,127
63032,note_on,6,0,0,,8,,,68,127
63094,note_off,62,0,0,,8,,,68,127
63100,note_on,6,0,0,,4,,,64,127
63162,note_off,62,0,0,,4,,,64,127
63168,note_on,6,0,0,,12,,,59,127
63230,note_off,62,0,0,,12,,,59,127
63236,note_on,6,0,0,,4,,,64,127
63298,note_off,62,0,0,,4,,,64,127
63304,note_on,6,0,0,,12,,,59,127
63366,note_off,62,0,0,,12,,,59,127
63372,note_on,6,0,0,,8,,,56,127
63434,note_off,62,0,0,,8,,,56,127
63440,note_on,6,0,0,,12,,,59,127
63502,note_off,62,0,0,,12,,,59,127
63508,note_on,6,0,0,,8,,,56,127
63570,note_off,62,0,0,,8,,,56,127
63576,note_on,6,0,0,,4,,,52,127
63638,note_off,62,0,0,,4,,,52,127
63644,note_on,6,0,0,,8,,,56,127
63706,note_off,62,0,0,,8,,,56,127
63712,note_on,6,0,0,,4,,,52,127
63774,note_off,62,0,0,,4,,,52,127
63780,note_on,6,0,0,,12,,,47,127
63842,note_off,62,0,0,,12,,,47,127
63848,note_on,6,0,0,,4,,,52,127
63910,note_off,62,0,0,,4,,,52,127
63916,note_on,6,0,0,,12,,,47,127
63978,note_off,62,0,0,,12,,,47,127
63984,note_on,6,0,0,,4,,,40,127
64049,note_off,65,0,0,,4,,,88,127
64052,note_on,3,0,0,,2,,,86,127
64114,note_off,62,0,0,,2,,,86,127
64120,note_on,6,0,0,,0,,,84,127
64182,note_off,62,0,0,,0,,,84,127
64188,note_on,6,0,0,,12,,,83,127
64250,note_off,62,0,0,,12,,,83,127
64256,note_on,6,0,0,,0,,,84,127
64318,note_off,62,0,0,,0,,,84,127
64324,note_on,6,0,0,,10,,,81,127
64386,note_off,62,0,0,,10,,,81,127
64389,note_off,3,0,0,,4,,,40,127
64392,note_on,3,0,0,,8,,,80,127
64392,note_on,0,0,0,,4,,,40,127
64454,note_off,62,0,0,,8,,,80,127
64460,note_on,6,0,0,,10,,,81,127
64522,note_off,62,0,0,,10,,,81,127
64528,note_on,6,0,0,,5,,,77,127
64590,note_off,62,0,0,,5,,,77,127
64596,note_on,6,0,0,,4,,,76,127
64658,note_off,62,0,0,,4,,,76,127
64664,note_on,6,0,0,,5,,,77,127
64726,note_off,62,0,0,,5,,,77,127
64732,note_on,6,0,0,,2,,,74,127
64794,note_off,62,0,0,,2,,,74,127
64797,note_off,3,0,0,,4,,,40,127
64800,note_on,3,0,0,,0,,,72,127
64800,note_on,0,0,0,,4,,,40,127
64862,note_off,62,0,0,,0,,,72,127
64868,note_on,6,0,0,,2,,,74,127
64930,note_off,62,0,0,,2,,,74,127
64936,note_on,6,0,0,,12,,,71,127
64998,note_off,62,0,0,,12,,,71,127
65004,note_on,6,0,0,,10,,,69,127
65066,note_off,62,0,0,,10,,,69,127
65072,note_on,6,0,0,,12,,,71,127
65134,note_off,62,0,0,,12,,,71,127
65140,note_on,6,0,0,,8,,,68,127
65198,note_off,58,0,0,,4,,,40,127
65202,note_off,4,0,0,,8,,,68,127
65208,note_on,6,0,0,,4,,,88,127
65208,note_on,0,0,0,,8,,,68,127
65270,note_off,62,0,0,,8,,,68,127
65276,note_on,6,0,0,,12,,,71,127
65338,note_off,62,0,0,,12,,,71,127
65344,note_on,6,0,0,,8,,,68,127
65406,note_off,62,0,0,,8,,,68,127
65412,note_on,6,0,0,,4,,,64,127
65474,note_off,62,0,0,,4,,,64,127
65480,note_on,6,0,0,,8,,,68,127
65542,note_off,62,0,0,,8,,,68,127
65548,note_on,6,0,0,,4,,,64,127
65610,note_off,62,0,0,,4,,,64,127
65613,note_off,3,0,0,,4,,,88,127
65616,note_on,3,0,0,,4,,,88,127
65616,note_on,0,0,0,,12,,,59,127
65678,note_off,62,0,0,,12,,,59,127
65684,note_on,6,0,0,,4,,,64,127
65746,note_off,62,0,0,,4,,,64,127
65752,note_on,6,0,0,,12,,,59,127
65814,note_off,62,0,0,,12,,,59,127
65820,note_on,6,0,0,,8,,,56,127
65882,note_off,62,0,0,,8,,,56,127
65888,note_on,6,0,0,,12,,,59,127
65950,note_off,62,0,0,,12,,,59,127
65956,note_on,6,0,0,,8,,,56,127
66018,note_off,62,0,0,,8,,,56,127
66021,note_off,3,0,0,,4,,,88,127
66024,note_on,3,0,0,,4,,,88,127
66024,note_on,0,0,0,,4,,,52,127
66086,note_off,62,0,0,,4,,,52,127
66092,note_on,6,0,0,,8,,,56,127
66154,note_off,62,0,0,,8,,,56,127
66160,note_on,6,0,0,,4,,,52,127
66222,note_off,62,0,0,,4,,,52,127
66228,note_on,6,0,0,,12,,,47,127
66290,note_off,62,0,0,,12,,,47,127
66296,note_on,6,0,0,,4,,,52,127
66358,note_off,62,0,0,,4,,,52,127
66364,note_on,6,0,0,,12,,,47,127
66426,note_off,62,0,0,,12,,,47,127
66432,note_on,6,0,0,,4,,,40,127
66497,note_off,65,0,0,,4,,,88,127
66500,note_on,3,0,0,,2,,,86,127
66562,note_off,62,0,0,,2,,,86,127
66568,note_on,6,0,0,,0,,,84,127
66630,note_off,62,0,0,,0,,,84,127
66636,note_on,6,0,0,,12,,,83,127
66698,note_off,62,0,0,,12,,,83,127
66704,note_on,6,0,0,,0,,,84,127
66766,note_off,62,0,0,,0,,,84,127
66772,note_on,6,0,0,,10,,,81,127
66834,note_off,62,0,0,,10,,,81,127
66837,note_off,3,0,0,,4,,,40,127
66840,note_on,3,0,0,,8,,,80,127
66840,note_on,0,0,0,,4,,,40,127
66902,note_off,62,0,0,,8,,,80,127
66908,note_on,6,0,0,,10,,,81,127
66970,note_off,62,0,0,,10,,,81,127
66976,note_on,6,0,0,,5,,,77,127
67038,note_off,62,0,0,,5,,,77,127
67044,note_on,6,0,0,,4,,,76,127
67106,note_off,62,0,0,,4,,,76,127
67112,note_on,6,0,0,,5,,,77,127
67174,note_off,62,0,0,,5,,,77,127
67180,note_on,6,0,0,,2,,,74,127
67242,note_off,62,0,0,,2,,,74,127
67245,note_off,3,0,0,,4,,,40,127
67248,note_on,3,0,0,,0,,,72,127
67248,note_on,0,0,0,,4,,,40,127
67310,note_off,62,0,0,,0,,,72,127
67316,note_on,6,0,0,,2,,,74,127
67378,note_off,62,0,0,,2,,,74,127
67384,note_on,6,0,0,,12,,,71,127
67446,note_off,62,0,0,,12,,,71,127
67452,note_on,6,0,0,,10,,,69,127
67514,note_off,62,0,0,,10,,,69,127
67520,note_on,6,0,0,,12,,,71,127
67582,note_off,62,0,0,,12,,,71,127
67588,note_on,6,0,0,,7,,,67,127
67650,note_off,62,0,0,,7,,,67,127
67653,note_off,3,0,0,,4,,,40,127
67656,note_on,3,0,0,,5,,,65,127
67656,note_on,0,0,0,,4,,,40,127
67718,note_off,62,0,0,,5,,,65,127
67724,note_on,6,0,0,,10,,,69,127
67786,note_off,62,0,0,,10,,,69,127
67792,note_on,6,0,0,,4,,,64,127
67854,note_off,62,0,0,,4,,,64,127
67860,note_on,6,0,0,,2,,,62,127
67922,note_off,62,0,0,,2,,,62,127
67928,note_on,6,0,0,,4,,,64,127
67990,note_off,62,0,0,,4,,,64,127
67996,note_on,6,0,0,,0,,,60,127
68058,note_off,62,0,0,,0,,,60,127
68061,note_off,3,0,0,,4,,,40,127
68064,note_on,3,0,0,,12,,,59,127
68064,note_on,0,0,0,,4,,,40,127
68126,note_off,62,0,0,,12,,,59,127
68132,note_on,6,0,0,,0,,,60,127
68194,note_off,62,0,0,,0,,,60,127
68200,note_on,6,0,0,,10,,,57,127
68262,note_off,62,0,0,,10,,,57,127
68268,note_on,6,0,0,,8,,,56,127
68330,note_off,62,0,0,,8,,,56,127
68336,note_on,6,0,0,,10,,,57,127
68398,note_off,62,0,0,,10,,,57,127
68404,note_on,6,0,0,,5,,,53,127
68466,note_off,62,0,0,,5,,,53,127
68469,note_off,3,0,0,,4,,,40,127
68472,note_on,3,0,0,,4,,,52,127
68472,note_on,0,0,0,,4,,,40,127
68534,note_off,62,0,0,,4,,,52,127
68540,note_on,6,0,0,,5,,,53,127
68602,note_off,62,0,0,,5,,,53,127
68608,note_on,6,0,0,,2,,,50,127
68670,note_off,62,0,0,,2,,,50,127
68676,note_on,6,0,0,,0,,,48,127
68738,note_off,62,0,0,,0,,,48,127
68744,note_on,6,0,0,,2,,,50,127
68806,note_off,62,0,0,,2,,,50,127
68812,note_on,6,0,0,,12,,,47,127
68874,note_off,62,0,0,,12,,,47,127
68877,note_off,3,0,0,,4,,,40,127
68880,note_on,3,0,0,,10,,,45,127
68949,note_on,69,0,0,,0,,,48,127
69011,note_off,62,0,0,,0,,,48,127
69017,note_on,6,0,0,,4,,,52,127
69079,note_off,62,0,0,,4,,,52,127
69085,note_on,6,0,0,,10,,,57,127
69147,note_off,62,0,0,,10,,,57,127
69153,note_on,6,0,0,,0,,,60,127
69215,note_off,62,0,0,,0,,,60,127
69221,note_on,6,0,0,,4,,,64,127
69283,note_off,62,0,0,,4,,,64,127
69289,note_on,6,0,0,,10,,,69,127
69697,note_off,408,0,0,,10,,,45,127
69784,note_on,87,0,0,,10,,,45,127
69856,note_on,72,0,0,,0,,,48,127
69858,note_off,2,0,0,,10,,,45,127
69925,note_off,67,0,0,,0,,,48,127
69927,note_on,2,0,0,,4,,,52,127
69997,note_off,70,0,0,,4,,,52,127
69999,note_on,2,0,0,,10,,,57,127
70069,note_off,70,0,0,,10,,,57,127
70071,note_on,2,0,0,,0,,,60,127
70108,note_off,37,0,0,,10,,,69,127
70140,note_off,32,0,0,,0,,,60,127
70142,note_on,2,0,0,,4,,,64,127
70212,note_off,70,0,0,,4,,,64,127
70214,note_on,2,0,0,,10,,,57,127
70214,note_on,0,0,0,,0,,,60,127
70214,note_on,0,0,0,,4,,,64,127
70214,note_on,0,0,0,,2,,,74,127
70214,note_on,0,0,0,,4,,,76,127
70276,note_off,62,0,0,,4,,,76,127
70276,note_off,0,0,0,,2,,,74,127
70282,note_on,6,0,0,,0,,,72,127
70344,note_off,62,0,0,,0,,,72,127
70350,note_on,6,0,0,,12,,,71,127
70412,note_off,62,0,0,,12,,,71,127
70418,note_on,6,0,0,,0,,,72,127
70480,note_off,62,0,0,,0,,,72,127
70486,note_on,6,0,0,,2,,,74,127
70548,note_off,62,0,0,,2,,,74,127
70554,note_on,6,0,0,,4,,,76,127
70616,note_off,62,0,0,,4,,,76,127
70619,note_off,3,0,0,,4,,,64,127
70619,note_off,0,0,0,,0,,,60,127
70619,note_off,0,0,0,,10,,,57,127
70622,note_on,3,0,0,,10,,,57,127
70622,note_on,0,0,0,,0,,,60,127
70622,note_on,0,0,0,,4,,,64,127
70622,note_on,0,0,0,,4,,,76,127
70824,note_off,202,0,0,,4,,,76,127
70827,note_on,3,0,0,,10,,,69,127
71029,note_off,202,0,0,,10,,,69,127
71029,note_off,0,0,0,,4,,,64,127
71029,note_off,0,0,0,,0,,,60,127
71029,note_off,0,0,0,,10,,,57,127
71032,note_on,3,0,0,,10,,,57,127
71032,note_on,0,0,0,,0,,,60,127
71032,note_on,0,0,0,,4,,,64,127
71032,note_on,0,0,0,,10,,,69,127
71234,note_off,202,0,0,,10,,,69,127
71237,note_on,3,0,0,,10,,,69,127
71391,note_off,154,0,0,,10,,,69,127
71439,note_off,48,0,0,,4,,,64,127
71439,note_off,0,0,0,,0,,,60,127
71439,note_off,0,0,0,,10,,,57,127
71442,note_on,3,0,0,,10,,,57,127
71442,note_on,0,0,0,,5,,,53,127
71442,note_on,0,0,0,,2,,,62,127
71442,note_on,0,0,0,,7,,,79,127
71442,note_on,0,0,0,,10,,,81,127
71504,note_off,62,0,0,,10,,,81,127
71504,note_off,0,0,0,,7,,,79,127
71510,note_on,6,0,0,,5,,,77,127
71572,note_off,62,0,0,,5,,,77,127
71578,note_on,6,0,0,,4,,,76,127
71640,note_off,62,0,0,,4,,,76,127
71646,note_on,6,0,0,,5,,,77,127
71708,note_off,62,0,0,,5,,,77,127
71714,note_on,6,0,0,,7,,,79,127
71776,note_off,62,0,0,,7,,,79,127
71782,note_on,6,0,0,,10,,,81,127
71844,note_off,62,0,0,,10,,,81,127
71847,note_off,3,0,0,,2,,,62,127
71847,note_off,0,0,0,,5,,,53,127
71847,note_off,0,0,0,,10,,,57,127
71850,note_on,3,0,0,,5,,,53,127
71850,note_on,0,0,0,,10,,,57,127
71850,note_on,0,0,0,,2,,,62,127
71850,note_on,0,0,0,,10,,,81,127
72052,note_off,202,0,0,,10,,,81,127
72055,note_on,3,0,0,,2,,,74,127
72257,note_off,202,0,0,,2,,,74,127
72257,note_off,0,0,0,,2,,,62,127
72257,note_off,0,0,0,,10,,,57,127
72257,note_off,0,0,0,,5,,,53,127
72260,note_on,3,0,0,,5,,,53,127
72260,note_on,0,0,0,,10,,,57,127
72260,note_on,0,0,0,,2,,,62,127
72260,note_on,0,0,0,,2,,,74,127
72462,note_off,202,0,0,,2,,,74,127
72465,note_on,3,0,0,,2,,,74,127
72619,note_off,154,0,0,,2,,,74,127
72667,note_off,48,0,0,,2,,,62,127
72667,note_off,0,0,0,,10,,,57,127
72667,note_off,0,0,0,,5,,,53,127
72670,note_on,3,0,0,,11,,,58,127
72670,note_on,0,0,0,,7,,,55,127
72670,note_on,0,0,0,,2,,,62,127
72670,note_on,0,0,0,,0,,,84,127
72670,note_on,0,0,0,,2,,,86,127
72732,note_off,62,0,0,,2,,,86,127
72732,note_off,0,0,0,,0,,,84,127
72738,note_on,6,0,0,,11,,,82,127
72800,note_off,62,0,0,,11,,,82,127
72806,note_on,6,0,0,,10,,,81,127
72868,note_off,62,0,0,,10,,,81,127
72874,note_on,6,0,0,,11,,,82,127
72936,note_off,62,0,0,,11,,,82,127
72942,note_on,6,0,0,,0,,,84,127
73004,note_off,62,0,0,,0,,,84,127
73010,note_on,6,0,0,,2,,,86,127
73072,note_off,62,0,0,,2,,,86,127
73075,note_off,3,0,0,,2,,,62,127
73075,note_off,0,0,0,,7,,,55,127
73075,note_off,0,0,0,,11,,,58,127
73078,note_on,3,0,0,,11,,,58,127
73078,note_on,0,0,0,,7,,,55,127
73078,note_on,0,0,0,,2,,,62,127
73078,note_on,0,0,0,,2,,,86,127
73280,note_off,202,0,0,,2,,,86,127
73283,note_on,3,0,0,,2,,,74,127
73485,note_off,202,0,0,,2,,,74,127
73485,note_off,0,0,0,,2,,,62,127
73485,note_off,0,0,0,,7,,,55,127
73485,note_off,0,0,0,,11,,,58,127
73488,note_on,3,0,0,,11,,,58,127
73488,note_on,0,0,0,,7,,,55,127
73488,note_on,0,0,0,,2,,,62,127
73488,note_on,0,0,0,,2,,,74,127
73690,note_off,202,0,0,,2,,,74,127
73693,note_on,3,0,0,,2,,,74,127
73847,note_off,154,0,0,,2,,,74,127
73895,note_off,48,0,0,,2,,,62,127
73895,note_off,0,0,0,,7,,,55,127
73895,note_off,0,0,0,,11,,,58,127
73898,note_on,3,0,0,,3,,,51,127
73898,note_on,0,0,0,,0,,,60,127
73898,note_on,0,0,0,,7,,,55,127
73898,note_on,0,0,0,,5,,,77,127
73898,note_on,0,0,0,,7,,,79,127
73960,note_off,62,0,0,,7,,,79,127
73960,note_off,0,0,0,,5,,,77,127
73966,note_on,6,0,0,,3,,,75,127
74028,note_off,62,0,0,,3,,,75,127
74034,note_on,6,0,0,,2,,,74,127
74096,note_off,62,0,0,,2,,,74,127
74102,note_on,6,0,0,,3,,,75,127
74164,note_off,62,0,0,,3,,,75,127
74170,note_on,6,0,0,,5,,,77,127
74232,note_off,62,0,0,,5,,,77,127
74238,note_on,6,0,0,,7,,,79,127
74300,note_off,62,0,0,,7,,,79,127
74303,note_off,3,0,0,,7,,,55,127
74303,note_off,0,0,0,,0,,,60,127
74303,note_off,0,0,0,,3,,,51,127
74306,note_on,3,0,0,,3,,,51,127
74306,note_on,0,0,0,,0,,,60,127
74306,note_on,0,0,0,,7,,,55,127
74306,note_on,0,0,0,,7,,,79,127
74508,note_off,202,0,0,,7,,,79,127
74511,note_on,3,0,0,,7,,,67,127
74713,note_off,202,0,0,,7,,,67,127
74713,note_off,0,0,0,,7,,,55,127
74713,note_off,0,0,0,,0,,,60,127
74713,note_off,0,0,0,,3,,,51,127
74716,note_on,3,0,0,,3,,,51,127
74716,note_on,0,0,0,,0,,,60,127
74716,note_on,0,0,0,,7,,,55,127
74716,note_on,0,0,0,,7,,,67,127
74918,note_off,202,0,0,,7,,,67,127
74921,note_on,3,0,0,,7,,,67,127
75123,note_off,202,0,0,,7,,,67,127
75123,note_off,0,0,0,,7,,,55,127
75123,note_off,0,0,0,,0,,,60,127
75123,note_off,0,0,0,,3,,,51,127
75126,note_on,3,0,0,,0,,,48,127
75126,note_on,0,0,0,,7,,,55,127
75126,note_on,0,0,0,,0,,,60,127
75126,note_on,0,0,0,,3,,,75,127
75176,note_off,50,0,0,,3,,,75,127
75177,note_on,1,0,0,,2,,,74,127
75227,note_off,50,0,0,,2,,,74,127
75228,note_on,1,0,0,,0,,,72,127
75278,note_off,50,0,0,,0,,,72,127
75279,note_on,1,0,0,,11,,,70,127
75329,note_off,50,0,0,,11,,,70,127
75330,note_on,1,0,0,,0,,,72,127
75532,note_off,202,0,0,,0,,,72,127
75532,note_off,0,0,0,,0,,,60,127
75532,note_off,0,0,0,,7,,,55,127
75532,note_off,0,0,0,,0,,,48,127
75535,note_on,3,0,0,,7,,,55,127
75535,note_on,0,0,0,,0,,,48,127
75535,note_on,0,0,0,,0,,,60,127
75535,note_on,0,0,0,,0,,,72,127
75585,note_off,50,0,0,,0,,,72,127
75586,note_on,1,0,0,,11,,,70,127
75636,note_off,50,0,0,,11,,,70,127
75637,note_on,1,0,0,,10,,,69,127
75687,note_off,50,0,0,,10,,,69,127
75688,note_on,1,0,0,,7,,,67,127
75738,note_off,50,0,0,,7,,,67,127
75739,note_on,1,0,0,,10,,,69,127
75941,note_off,202,0,0,,10,,,69,127
75941,note_off,0,0,0,,0,,,60,127
75941,note_off,0,0,0,,0,,,48,127
75941,note_off,0,0,0,,7,,,55,127
75944,note_on,3,0,0,,7,,,55,127
75944,note_on,0,0,0,,0,,,48,127
75944,note_on,0,0,0,,0,,,60,127
75944,note_on,0,0,0,,10,,,69,127
75994,note_off,50,0,0,,10,,,69,127
75995,note_on,1,0,0,,7,,,67,127
76045,note_off,50,0,0,,7,,,67,127
76046,note_on,1,0,0,,6,,,66,127
76096,note_off,50,0,0,,6,,,66,127
76097,note_on,1,0,0,,4,,,64,127
76147,note_off,50,0,0,,4,,,64,127
76148,note_on,1,0,0,,6,,,66,127
76350,note_off,202,0,0,,6,,,66,127
76350,note_off,0,0,0,,0,,,60,127
76350,note_off,0,0,0,,0,,,48,127
76350,note_off,0,0,0,,7,,,55,127
76353,note_on,3,0,0,,0,,,60,127
76353,note_on,0,0,0,,10,,,57,127
76353,note_on,0,0,0,,2,,,50,127
76353,note_on,0,0,0,,6,,,66,127
76415,note_off,62,0,0,,6,,,66,127
76421,note_on,6,0,0,,2,,,62,127
76483,note_off,62,0,0,,2,,,62,127
76489,note_on,6,0,0,,6,,,66,127
76551,note_off,62,0,0,,6,,,66,127
76557,note_on,6,0,0,,10,,,69,127
76619,note_off,62,0,0,,10,,,69,127
76625,note_on,6,0,0,,6,,,66,127
76687,note_off,62,0,0,,6,,,66,127
76693,note_on,6,0,0,,10,,,69,127
76755,note_off,62,0,0,,10,,,69,127
76758,note_off,3,0,0,,2,,,50,127
76758,note_off,0,0,0,,10,,,57,127
76758,note_off,0,0,0,,0,,,60,127
76761,note_on,3,0,0,,2,,,50,127
76761,note_on,0,0,0,,0,,,60,127
76761,note_on,0,0,0,,10,,,57,127
76761,note_on,0,0,0,,0,,,72,127
76823,note_off,62,0,0,,0,,,72,127
76829,note_on,6,0,0,,10,,,69,127
76891,note_off,62,0,0,,10,,,69,127
76897,note_on,6,0,0,,0,,,72,127
76959,note_off,62,0,0,,0,,,72,127
76965,note_on,6,0,0,,6,,,78,127
77027,note_off,62,0,0,,6,,,78,127
77033,note_on,6,0,0,,0,,,72,127
77095,note_off,62,0,0,,0,,,72,127
77101,note_on,6,0,0,,6,,,78,127
77163,note_off,62,0,0,,6,,,78,127
77166,note_off,3,0,0,,10,,,57,127
77166,note_off,0,0,0,,0,,,60,127
77166,note_off,0,0,0,,2,,,50,127
77169,note_on,3,0,0,,2,,,50,127
77169,note_on,0,0,0,,10,,,57,127
77169,note_on,0,0,0,,0,,,60,127
77169,note_on,0,0,0,,10,,,81,127
77231,note_off,62,0,0,,10,,,81,127
77237,note_on,6,0,0,,6,,,78,127
77299,note_off,62,0,0,,6,,,78,127
77305,note_on,6,0,0,,10,,,81,127
77367,note_off,62,0,0,,10,,,81,127
77373,note_on,6,0,0,,0,,,84,127
77575,note_off,202,0,0,,0,,,84,127
77575,note_off,0,0,0,,0,,,60,127
77575,note_off,0,0,0,,10,,,57,127
77575,note_off,0,0,0,,2,,,50,127
77578,note_on,3,0,0,,2,,,50,127
77578,note_on,0,0,0,,12,,,59,127
77578,note_on,0,0,0,,7,,,55,127
77578,note_on,0,0,0,,7,,,67,127
77640,note_off,62,0,0,,7,,,67,127
77646,note_on,6,0,0,,2,,,62,127
77708,note_off,62,0,0,,2,,,62,127
77714,note_on,6,0,0,,7,,,67,127
77776,note_off,62,0,0,,7,,,67,127
77782,note_on,6,0,0,,12,,,71,127
77844,note_off,62,0,0,,12,,,71,127
77850,note_on,6,0,0,,7,,,67,127
77912,note_off,62,0,0,,7,,,67,127
77918,note_on,6,0,0,,12,,,71,127
77980,note_off,62,0,0,,12,,,71,127
77983,note_off,3,0,0,,7,,,55,127
77983,note_off,0,0,0,,12,,,59,127
77983,note_off,0,0,0,,2,,,50,127
77986,note_on,3,0,0,,2,,,50,127
77986,note_on,0,0,0,,12,,,59,127
77986,note_on,0,0,0,,7,,,55,127
77986,note_on,0,0,0,,2,,,74,127
78048,note_off,62,0,0,,2,,,74,127
78054,note_on,6,0,0,,12,,,71,127
78116,note_off,62,0,0,,12,,,71,127
78122,note_on,6,0,0,,2,,,74,127
78184,note_off,62,0,0,,2,,,74,127
78190,note_on,6,0,0,,7,,,79,127
78252,note_off,62,0,0,,7,,,79,127
78258,note_on,6,0,0,,2,,,74,127
78320,note_off,62,0,0,,2,,,74,127
78326,note_on,6,0,0,,7,,,79,127
78388,note_off,62,0,0,,7,,,79,127
78391,note_off,3,0,0,,7,,,55,127
78391,note_off,0,0,0,,12,,,59,127
78391,note_off,0,0,0,,2,,,50,127
78394,note_on,3,0,0,,2,,,50,127
78394,note_on,0,0,0,,7,,,55,127
78394,note_on,0,0,0,,12,,,59,127
78394,note_on,0,0,0,,12,,,83,127
78456,note_off,62,0,0,,12,,,83,127
78462,note_on,6,0,0,,7,,,79,127
78524,note_off,62,0,0,,7,,,79,127
78530,note_on,6,0,0,,12,,,83,127
78592,note_off,62,0,0,,12,,,83,127
78598,note_on,6,0,0,,2,,,86,127
78800,note_off,202,0,0,,2,,,86,127
78800,note_off,0,0,0,,12,,,59,127
78800,note_off,0,0,0,,7,,,55,127
78800,note_off,0,0,0,,2,,,50,127
78803,note_on,3,0,0,,2,,,50,127
78803,note_on,0,0,0,,10,,,57,127
78803,note_on,0,0,0,,0,,,60,127
78803,note_on,0,0,0,,6,,,66,127
78865,note_off,62,0,0,,6,,,66,127
78871,note_on,6,0,0,,2,,,62,127
78933,note_off,62,0,0,,2,,,62,127
78939,note_on,6,0,0,,6,,,66,127
79001,note_off,62,0,0,,6,,,66,127
79007,note_on,6,0,0,,10,,,69,127
79069,note_off,62,0,0,,10,,,69,127
79075,note_on,6,0,0,,6,,,66,127
79137,note_off,62,0,0,,6,,,66,127
79143,note_on,6,0,0,,10,,,69,127
79205,note_off,62,0,0,,10,,,69,127
79208,note_off,3,0,0,,0,,,60,127
79208,note_off,0,0,0,,10,,,57,127
79208,note_off,0,0,0,,2,,,50,127
79211,note_on,3,0,0,,2,,,50,127
79211,note_on,0,0,0,,0,,,60,127
79211,note_on,0,0,0,,10,,,57,127
79211,note_on,0,0,0,,0,,,72,127
79273,note_off,62,0,0,,0,,,72,127
79279,note_on,6,0,0,,10,,,69,127
79341,note_off,62,0,0,,10,,,69,127
79347,note_on,6,0,0,,0,,,72,127
79409,note_off,62,0,0,,0,,,72,127
79415,note_on,6,0,0,,6,,,78,127
79477,note_off,62,0,0,,6,,,78,127
79483,note_on,6,0,0,,0,,,72,127
79545,note_off,62,0,0,,0,,,72,127
79551,note_on,6,0,0,,6,,,78,127
79613,note_off,62,0,0,,6,,,78,127
79616,note_off,3,0,0,,10,,,57,127
79616,note_off,0,0,0,,0,,,60,127
79616,note_off,0,0,0,,2,,,50,127
79619,note_on,3,0,0,,2,,,50,127
79619,note_on,0,0,0,,10,,,57,127
79619,note_on,0,0,0,,0,,,60,127
79619,note_on,0,0,0,,10,,,81,127
79681,note_off,62,0,0,,10,,,81,127
79687,note_on,6,0,0,,6,,,78,127
79749,note_off,62,0,0,,6,,,78,127
79755,note_on,6,0,0,,10,,,81,127
79817,note_off,62,0,0,,10,,,81,127
79823,note_on,6,0,0,,0,,,84,127
79885,note_off,62,0,0,,0,,,84,127
79891,note_on,6,0,0,,12,,,83,127
79953,note_off,62,0,0,,12,,,83,127
79959,note_on,6,0,0,,10,,,81,127
80017,note_off,58,0,0,,10,,,57,127
80017,note_off,0,0,0,,2,,,50,127
80021,note_off,4,0,0,,10,,,81,127
80024,note_off,3,0,0,,0,,,60,127
80027,note_on,3,0,0,,7,,,67,127
80027,note_on,0,0,0,,7,,,79,127
80027,note_on,0,0,0,,7,,,91,127
80089,note_off,62,0,0,,7,,,67,127
80095,note_on,6,0,0,,12,,,71,127
80157,note_off,62,0,0,,12,,,71,127
80163,note_on,6,0,0,,7,,,67,127
80225,note_off,62,0,0,,7,,,67,127
80231,note_on,6,0,0,,2,,,62,127
80293,note_off,62,0,0,,2,,,62,127
80299,note_on,6,0,0,,7,,,67,127
80361,note_off,62,0,0,,7,,,67,127
80367,note_on,6,0,0,,2,,,62,127
80429,note_off,62,0,0,,2,,,62,127
80435,note_on,6,0,0,,12,,,59,127
80497,note_off,62,0,0,,12,,,59,127
80503,note_on,6,0,0,,2,,,62,127
80565,note_off,62,0,0,,2,,,62,127
80571,note_on,6,0,0,,12,,,59,127
80633,note_off,62,0,0,,12,,,59,127
80639,note_on,6,0,0,,7,,,55,127
80701,note_off,62,0,0,,7,,,55,127
80707,note_on,6,0,0,,12,,,59,127
80769,note_off,62,0,0,,12,,,59,127
80775,note_on,6,0,0,,7,,,55,127
80837,note_off,62,0,0,,7,,,55,127
80843,note_on,6,0,0,,2,,,50,127
80905,note_off,62,0,0,,2,,,50,127
80911,note_on,6,0,0,,7,,,55,127
80973,note_off,62,0,0,,7,,,55,127
80979,note_on,6,0,0,,2,,,50,127
81041,note_off,62,0,0,,2,,,50,127
81047,note_on,6,0,0,,12,,,47,127
81109,note_off,62,0,0,,12,,,47,127
81115,note_on,6,0,0,,2,,,50,127
81177,note_off,62,0,0,,2,,,50,127
81183,note_on,6,0,0,,12,,,47,127
81245,note_off,62,0,0,,12,,,47,127
81251,note_on,6,0,0,,7,,,43,127
81316,note_off,65,0,0,,7,,,91,127
81316,note_off,0,0,0,,7,,,79,127
81319,note_on,3,0,0,,7,,,91,127
81381,note_off,62,0,0,,7,,,91,127
81387,note_on,6,0,0,,2,,,86,127
81449,note_off,62,0,0,,2,,,86,127
81455,note_on,6,0,0,,12,,,83,127
81517,note_off,62,0,0,,12,,,83,127
81523,note_on,6,0,0,,2,,,86,127
81585,note_off,62,0,0,,2,,,86,127
81591,note_on,6,0,0,,12,,,83,127
81653,note_off,62,0,0,,12,,,83,127
81656,note_off,3,0,0,,7,,,43,127
81659,note_on,3,0,0,,7,,,43,127
81659,note_on,0,0,0,,7,,,79,127
81721,note_off,62,0,0,,7,,,79,127
81727,note_on,6,0,0,,12,,,83,127
81789,note_off,62,0,0,,12,,,83,127
81795,note_on,6,0,0,,7,,,79,127
81857,note_off,62,0,0,,7,,,79,127
81863,note_on,6,0,0,,2,,,74,127
81925,note_off,62,0,0,,2,,,74,127
81931,note_on,6,0,0,,7,,,79,127
81993,note_off,62,0,0,,7,,,79,127
81999,note_on,6,0,0,,2,,,74,127
82061,note_off,62,0,0,,2,,,74,127
82064,note_off,3,0,0,,7,,,43,127
82067,note_on,3,0,0,,7,,,43,127
82067,note_on,0,0,0,,12,,,71,127
82129,note_off,62,0,0,,12,,,71,127
82135,note_on,6,0,0,,2,,,74,127
82197,note_off,62,0,0,,2,,,74,127
82203,note_on,6,0,0,,12,,,71,127
82265,note_off,62,0,0,,12,,,71,127
82271,note_on,6,0,0,,7,,,67,127
82333,note_off,62,0,0,,7,,,67,127
82339,note_on,6,0,0,,12,,,71,127
82401,note_off,62,0,0,,12,,,71,127
82407,note_on,6,0,0,,7,,,67,127
82465,note_off,58,0,0,,7,,,43,127
82469,note_off,4,0,0,,7,,,67,127
82475,note_on,6,0,0,,7,,,67,127
82475,note_on,0,0,0,,7,,,79,127
82475,note_on,0,0,0,,7,,,91,127
82537,note_off,62,0,0,,7,,,67,127
82543,note_on,6,0,0,,12,,,71,127
82605,note_off,62,0,0,,12,,,71,127
82611,note_on,6,0,0,,7,,,67,127
82673,note_off,62,0,0,,7,,,67,127
82679,note_on,6,0,0,,2,,,62,127
82741,note_off,62,0,0,,2,,,62,127
82747,note_on,6,0,0,,7,,,67,127
82809,note_off,62,0,0,,7,,,67,127
82815,note_on,6,0,0,,2,,,62,127
82877,note_off,62,0,0,,2,,,62,127
82883,note_on,6,0,0,,12,,,59,127
82945,note_off,62,0,0,,12,,,59,127
82951,note_on,6,0,0,,2,,,62,127
83013,note_off,62,0,0,,2,,,62,127
83019,note_on,6,0,0,,12,,,59,127
83081,note_off,62,0,0,,12,,,59,127
83087,note_on,6,0,0,,7,,,55,127
83149,note_off,62,0,0,,7,,,55,127
83155,note_on,6,0,0,,12,,,59,127
83217,note_off,62,0,0,,12,,,59,127
83223,note_on,6,0,0,,7,,,55,127
83285,note_off,62,0,0,,7,,,55,127
83291,note_on,6,0,0,,2,,,50,127
83353,note_off,62,0,0,,2,,,50,127
83359,note_on,6,0,0,,7,,,55,127
83421,note_off,62,0,0,,7,,,55,127
83427,note_on,6,0,0,,2,,,50,127
83489,note_off,62,0,0,,2,,,50,127
83495,note_on,6,0,0,,12,,,47,127
83557,note_off,62,0,0,,12,,,47,127
83563,note_on,6,0,0,,2,,,50,127
83625,note_off,62,0,0,,2,,,50,127
83631,note_on,6,0,0,,12,,,47,127
83693,note_off,62,0,0,,12,,,47,127
83699,note_on,6,0,0,,7,,,43,127
83764,note_off,65,0,0,,7,,,91,127
83764,note_off,0,0,0,,7,,,79,127
83767,note_on,3,0,0,,7,,,91,127
83829,note_off,62,0,0,,7,,,91,127
83835,note_on,6,0,0,,6,,,90,127
83897,note_off,62,0,0,,6,,,90,127
83903,note_on,6,0,0,,4,,,88,127
83965,note_off,62,0,0,,4,,,88,127
83971,note_on,6,0,0,,2,,,86,127
84033,note_off,62,0,0,,2,,,86,127
84039,note_on,6,0,0,,0,,,84,127
84101,note_off,62,0,0,,0,,,84,127
84104,note_off,3,0,0,,7,,,43,127
84107,note_on,3,0,0,,2,,,38,127
84107,note_on,0,0,0,,12,,,83,127
84169,note_off,62,0,0,,12,,,83,127
84175,note_on,6,0,0,,10,,,81,127
84237,note_off,62,0,0,,10,,,81,127
84243,note_on,6,0,0,,7,,,79,127
84305,note_off,62,0,0,,7,,,79,127
84311,note_on,6,0,0,,6,,,78,127
84373,note_off,62,0,0,,6,,,78,127
84379,note_on,6,0,0,,4,,,76,127
84441,note_off,62,0,0,,4,,,76,127
84447,note_on,6,0,0,,2,,,74,127
84509,note_off,62,0,0,,2,,,74,127
84512,note_off,3,0,0,,2,,,38,127
84515,note_on,3,0,0,,2,,,38,127
84515,note_on,0,0,0,,12,,,83,127
84565,note_off,50,0,0,,12,,,83,127
84566,note_on,1,0,0,,10,,,81,127
84616,note_off,50,0,0,,10,,,81,127
84617,note_on,1,0,0,,12,,,83,127
84667,note_off,50,0,0,,12,,,83,127
84668,note_on,1,0,0,,10,,,81,127
84718,note_off,50,0,0,,10,,,81,127
84719,note_on,1,0,0,,12,,,83,127
84769,note_off,50,0,0,,12,,,83,127
84770,note_on,1,0,0,,10,,,81,127
84820,note_off,50,0,0,,10,,,81,127
84821,note_on,1,0,0,,7,,,79,127
84871,note_off,50,0,0,,7,,,79,127
84872,note_on,1,0,0,,10,,,81,127
84913,note_off,41,0,0,,2,,,38,127
84923,note_off,10,0,0,,10,,,81,127
84924,note_on,1,0,0,,2,,,86,127
84993,note_on,69,0,0,,12,,,47,127
85055,note_off,62,0,0,,12,,,47,127
85061,note_on,6,0,0,,0,,,48,127
85123,note_off,62,0,0,,0,,,48,127
85129,note_on,6,0,0,,2,,,50,127
85191,note_off,62,0,0,,2,,,50,127
85197,note_on,6,0,0,,4,,,52,127
85259,note_off,62,0,0,,4,,,52,127
85265,note_on,6,0,0,,6,,,54,127
85327,note_off,62,0,0,,6,,,54,127
85330,note_off,3,0,0,,2,,,86,127
85333,note_on,3,0,0,,7,,,55,127
85333,note_on,0,0,0,,2,,,86,127
85395,note_off,62,0,0,,7,,,55,127
85401,note_on,6,0,0,,10,,,57,127
85463,note_off,62,0,0,,10,,,57,127
85469,note_on,6,0,0,,12,,,59,127
85531,note_off,62,0,0,,12,,,59,127
85537,note_on,6,0,0,,0,,,60,127
85599,note_off,62,0,0,,0,,,60,127
85605,note_on,6,0,0,,2,,,62,127
85667,note_off,62,0,0,,2,,,62,127
85673,note_on,6,0,0,,4,,,64,127
85735,note_off,62,0,0,,4,,,64,127
85738,note_off,3,0,0,,2,,,86,127
85741,note_on,3,0,0,,6,,,66,127
85741,note_on,0,0,0,,2,,,86,127
85803,note_off,62,0,0,,6,,,66,127
85809,note_on,6,0,0,,7,,,67,127
85871,note_off,62,0,0,,7,,,67,127
85877,note_on,6,0,0,,10,,,69,127
85939,note_off,62,0,0,,10,,,69,127
85945,note_on,6,0,0,,12,,,71,127
86007,note_off,62,0,0,,12,,,71,127
86013,note_on,6,0,0,,0,,,72,127
86075,note_off,62,0,0,,0,,,72,127
86081,note_on,6,0,0,,2,,,74,127
86143,note_off,62,0,0,,2,,,74,127
86149,note_on,6,0,0,,2,,,38,127
86214,note_off,65,0,0,,2,,,86,127
86217,note_on,3,0,0,,0,,,84,127
86279,note_off,62,0,0,,0,,,84,127
86285,note_on,6,0,0,,12,,,83,127
86347,note_off,62,0,0,,12,,,83,127
86353,note_on,6,0,0,,10,,,81,127
86415,note_off,62,0,0,,10,,,81,127
86421,note_on,6,0,0,,12,,,83,127
86483,note_off,62,0,0,,12,,,83,127
86489,note_on,6,0,0,,7,,,79,127
86551,note_off,62,0,0,,7,,,79,127
86554,note_off,3,0,0,,2,,,38,127
86557,note_on,3,0,0,,2,,,38,127
86557,note_on,0,0,0,,6,,,78,127
86619,note_off,62,0,0,,6,,,78,127
86625,note_on,6,0,0,,7,,,79,127
86687,note_off,62,0,0,,7,,,79,127
86693,note_on,6,0,0,,4,,,76,127
86755,note_off,62,0,0,,4,,,76,127
86761,note_on,6,0,0,,2,,,74,127
86823,note_off,62,0,0,,2,,,74,127
86829,note_on,6,0,0,,4,,,76,127
86891,note_off,62,0,0,,4,,,76,127
86897,note_on,6,0,0,,0,,,72,127
86959,note_off,62,0,0,,0,,,72,127
86962,note_off,3,0,0,,2,,,38,127
86965,note_on,3,0,0,,2,,,38,127
86965,note_on,0,0,0,,12,,,71,127
87027,note_off,62,0,0,,12,,,71,127
87033,note_on,6,0,0,,0,,,72,127
87095,note_off,62,0,0,,0,,,72,127
87101,note_on,6,0,0,,10,,,69,127
87163,note_off,62,0,0,,10,,,69,127
87169,note_on,6,0,0,,7,,,67,127
87231,note_off,62,0,0,,7,,,67,127
87237,note_on,6,0,0,,10,,,69,127
87299,note_off,62,0,0,,10,,,69,127
87305,note_on,6,0,0,,6,,,66,127
87363,note_off,58,0,0,,2,,,38,127
87367,note_off,4,0,0,,6,,,66,127
87373,note_on,6,0,0,,2,,,86,127
87442,note_on,69,0,0,,12,,,47,127
87504,note_off,62,0,0,,12,,,47,127
87510,note_on,6,0,0,,0,,,48,127
87572,note_off,62,0,0,,0,,,48,127
87578,note_on,6,0,0,,2,,,50,127
87640,note_off,62,0,0,,2,,,50,127
87646,note_on,6,0,0,,4,,,52,127
87708,note_off,62,0,0,,4,,,52,127
87714,note_on,6,0,0,,6,,,54,127
87776,note_off,62,0,0,,6,,,54,127
87779,note_off,3,0,0,,2,,,86,127
87782,note_on,3,0,0,,7,,,55,127
87782,note_on,0,0,0,,2,,,86,127
87844,note_off,62,0,0,,7,,,55,127
87850,note_on,6,0,0,,10,,,57,127
87912,note_off,62,0,0,,10,,,57,127
87918,note_on,6,0,0,,12,,,59,127
87980,note_off,62,0,0,,12,,,59,127
87986,note_on,6,0,0,,0,,,60,127
88048,note_off,62,0,0,,0,,,60,127
88054,note_on,6,0,0,,2,,,62,127
88116,note_off,62,0,0,,2,,,62,127
88122,note_on,6,0,0,,4,,,64,127
88184,note_off,62,0,0,,4,,,64,127
88187,note_off,3,0,0,,2,,,86,127
88190,note_on,3,0,0,,6,,,66,127
88190,note_on,0,0,0,,2,,,86,127
88252,note_off,62,0,0,,6,,,66,127
88258,note_on,6,0,0,,7,,,67,127
88320,note_off,62,0,0,,7,,,67,127
88326,note_on,6,0,0,,10,,,69,127
88388,note_off,62,0,0,,10,,,69,127
88394,note_on,6,0,0,,12,,,71,127
88456,note_off,62,0,0,,12,,,71,127
88462,note_on,6,0,0,,0,,,72,127
88524,note_off,62,0,0,,0,,,72,127
88530,note_on,6,0,0,,2,,,74,127
88592,note_off,62,0,0,,2,,,74,127
88598,note_on,6,0,0,,2,,,38,127
88663,note_off,65,0,0,,2,,,86,127
88666,note_on,3,0,0,,0,,,84,127
88728,note_off,62,0,0,,0,,,84,127
88734,note_on,6,0,0,,12,,,83,127
88796,note_off,62,0,0,,12,,,83,127
88802,note_on,6,0,0,,10,,,81,127
88864,note_off,62,0,0,,10,,,81,127
88870,note_on,6,0,0,,12,,,83,127
88932,note_off,62,0,0,,12,,,83,127
88938,note_on,6,0,0,,7,,,79,127
89000,note_off,62,0,0,,7,,,79,127
89003,note_off,3,0,0,,2,,,38,127
89006,note_on,3,0,0,,2,,,38,127
89006,note_on,0,0,0,,6,,,78,127
89068,note_off,62,0,0,,6,,,78,127
89074,note_on,6,0,0,,7,,,79,127
89136,note_off,62,0,0,,7,,,79,127
89142,note_on,6,0,0,,4,,,76,127
89204,note_off,62,0,0,,4,,,76,127
89210,note_on,6,0,0,,2,,,74,127
89272,note_off,62,0,0,,2,,,74,127
89278,note_on,6,0,0,,4,,,76,127
89340,note_off,62,0,0,,4,,,76,127
89346,note_on,6,0,0,,0,,,72,127
89408,note_off,62,0,0,,0,,,72,127
89411,note_off,3,0,0,,2,,,38,127
89414,note_on,3,0,0,,2,,,38,127
89414,note_on,0,0,0,,12,,,71,127
89476,note_off,62,0,0,,12,,,71,127
89482,note_on,6,0,0,,0,,,72,127
89544,note_off,62,0,0,,0,,,72,127
89550,note_on,6,0,0,,10,,,69,127
89612,note_off,62,0,0,,10,,,69,127
89618,note_on,6,0,0,,7,,,67,127
89680,note_off,62,0,0,,7,,,67,127
89686,note_on,6,0,0,,10,,,69,127
89748,note_off,62,0,0,,10,,,69,127
89754,note_on,6,0,0,,6,,,66,127
89816,note_off,62,0,0,,6,,,66,127
89819,note_off,3,0,0,,2,,,38,127
89822,note_on,3,0,0,,7,,,43,127
89822,note_on,0,0,0,,7,,,67,127
89884,note_off,62,0,0,,7,,,67,127
89890,note_on,6,0,0,,7,,,79,127
89952,note_off,62,0,0,,7,,,79,127
89958,note_on,6,0,0,,6,,,78,127
90020,note_off,62,0,0,,6,,,78,127
90026,note_on,6,0,0,,4,,,76,127
90088,note_off,62,0,0,,4,,,76,127
90094,note_on,6,0,0,,2,,,74,127
90156,note_off,62,0,0,,2,,,74,127
90162,note_on,6,0,0,,0,,,72,127
90224,note_off,62,0,0,,0,,,72,127
90227,note_off,3,0,0,,7,,,43,127
90230,note_on,3,0,0,,2,,,38,127
90230,note_on,0,0,0,,12,,,71,127
90292,note_off,62,0,0,,12,,,71,127
90298,note_on,6,0,0,,10,,,69,127
90360,note_off,62,0,0,,10,,,69,127
90366,note_on,6,0,0,,7,,,67,127
90428,note_off,62,0,0,,7,,,67,127
90434,note_on,6,0,0,,6,,,66,127
90496,note_off,62,0,0,,6,,,66,127
90502,note_on,6,0,0,,4,,,64,127
90564,note_off,62,0,0,,4,,,64,127
90570,note_on,6,0,0,,2,,,62,127
90632,note_off,62,0,0,,2,,,62,127
90635,note_off,3,0,0,,2,,,38,127
90638,note_on,3,0,0,,2,,,38,127
90638,note_on,0,0,0,,12,,,71,127
90688,note_off,50,0,0,,12,,,71,127
90689,note_on,1,0,0,,10,,,69,127
90739,note_off,50,0,0,,10,,,69,127
90740,note_on,1,0,0,,12,,,71,127
90790,note_off,50,0,0,,12,,,71,127
90791,note_on,1,0,0,,10,,,69,127
90841,note_off,50,0,0,,10,,,69,127
90842,note_on,1,0,0,,12,,,71,127
90892,note_off,50,0,0,,12,,,71,127
90893,note_on,1,0,0,,10,,,69,127
90943,note_off,50,0,0,,10,,,69,127
90944,note_on,1,0,0,,7,,,67,127
90994,note_off,50,0,0,,7,,,67,127
90995,note_on,1,0,0,,10,,,69,127
91043,note_off,48,0,0,,2,,,38,127
91045,note_off,2,0,0,,10,,,69,127
91046,note_on,1,0,0,,7,,,43,127
91046,note_on,0,0,0,,7,,,79,127
91248,note_off,202,0,0,,7,,,79,127
91268,note_on,20,0,0,,6,,,78,127
91268,note_on,0,0,0,,7,,,79,127
91453,note_off,185,0,0,,7,,,43,127
91470,note_off,17,0,0,,7,,,79,127
91470,note_off,0,0,0,,6,,,78,127
91473,note_on,3,0,0,,4,,,76,127
91473,note_on,0,0,0,,7,,,79,127
91473,note_on,0,0,0,,7,,,67,127
91473,note_on,0,0,0,,7,,,55,127
91675,note_off,202,0,0,,7,,,79,127
91675,note_off,0,0,0,,4,,,76,127
91678,note_on,3,0,0,,2,,,74,127
91678,note_on,0,0,0,,7,,,79,127
91880,note_off,202,0,0,,7,,,79,127
91880,note_off,0,0,0,,2,,,74,127
91880,note_off,0,0,0,,7,,,55,127
91880,note_off,0,0,0,,7,,,67,127
91883,note_on,3,0,0,,6,,,78,127
91883,note_on,0,0,0,,0,,,72,127
91883,note_on,0,0,0,,7,,,55,127
91883,note_on,0,0,0,,10,,,69,127
92154,note_off,271,0,0,,6,,,78,127
92157,note_on,3,0,0,,7,,,79,127
92219,note_off,62,0,0,,7,,,79,127
92225,note_on,6,0,0,,10,,,81,127
92287,note_off,62,0,0,,10,,,81,127
92287,note_off,0,0,0,,0,,,72,127
92290,note_off,3,0,0,,10,,,69,127
92290,note_off,0,0,0,,7,,,55,127
92293,note_on,3,0,0,,7,,,79,127
92293,note_on,0,0,0,,7,,,67,127
92293,note_on,0,0,0,,7,,,55,127
92495,note_off,202,0,0,,7,,,79,127
92498,note_on,3,0,0,,7,,,79,127
92498,note_on,0,0,0,,6,,,78,127
92700,note_off,202,0,0,,6,,,78,127
92700,note_off,0,0,0,,7,,,79,127
92700,note_off,0,0,0,,7,,,55,127
92700,note_off,0,0,0,,7,,,67,127
92703,note_on,3,0,0,,7,,,79,127
92703,note_on,0,0,0,,0,,,84,127
92703,note_on,0,0,0,,4,,,76,127
92703,note_on,0,0,0,,7,,,67,127
92703,note_on,0,0,0,,7,,,55,127
92905,note_off,202,0,0,,4,,,76,127
92908,note_on,3,0,0,,2,,,74,127
93107,note_off,199,0,0,,7,,,79,127
93110,note_off,3,0,0,,2,,,74,127
93110,note_off,0,0,0,,7,,,55,127
93110,note_off,0,0,0,,7,,,67,127
93113,note_on,3,0,0,,0,,,72,127
93113,note_on,0,0,0,,6,,,78,127
93113,note_on,0,0,0,,10,,,69,127
93113,note_on,0,0,0,,10,,,57,127
93384,note_off,271,0,0,,6,,,78,127
93387,note_on,3,0,0,,7,,,79,127
93449,note_off,62,0,0,,7,,,79,127
93455,note_on,6,0,0,,10,,,81,127
93517,note_off,62,0,0,,10,,,81,127
93517,note_off,0,0,0,,0,,,72,127
93520,note_off,3,0,0,,10,,,57,127
93520,note_off,0,0,0,,10,,,69,127
93520,note_off,0,0,0,,0,,,84,127
93523,note_on,3,0,0,,2,,,86,127
93523,note_on,0,0,0,,7,,,67,127
93523,note_on,0,0,0,,12,,,59,127
93585,note_off,62,0,0,,2,,,86,127
93591,note_on,6,0,0,,0,,,84,127
93653,note_off,62,0,0,,0,,,84,127
93659,note_on,6,0,0,,2,,,86,127
93721,note_off,62,0,0,,2,,,86,127
93724,note_off,3,0,0,,12,,,59,127
93724,note_off,0,0,0,,7,,,67,127
93727,note_on,3,0,0,,4,,,88,127
93727,note_on,0,0,0,,0,,,60,127
93789,note_off,62,0,0,,4,,,88,127
93795,note_on,6,0,0,,2,,,86,127
93857,note_off,62,0,0,,2,,,86,127
93863,note_on,6,0,0,,0,,,84,127
93925,note_off,62,0,0,,0,,,84,127
93928,note_off,3,0,0,,0,,,60,127
93931,note_on,3,0,0,,12,,,83,127
93931,note_on,0,0,0,,2,,,62,127
93993,note_off,62,0,0,,12,,,83,127
93999,note_on,6,0,0,,10,,,81,127
94061,note_off,62,0,0,,10,,,81,127
94067,note_on,6,0,0,,7,,,79,127
94129,note_off,62,0,0,,7,,,79,127
94135,note_on,6,0,0,,6,,,78,127
94197,note_off,62,0,0,,6,,,78,127
94203,note_on,6,0,0,,4,,,76,127
94265,note_off,62,0,0,,4,,,76,127
94271,note_on,6,0,0,,2,,,74,127
94333,note_off,62,0,0,,2,,,74,127
94336,note_off,3,0,0,,2,,,62,127
94339,note_on,3,0,0,,12,,,83,127
94339,note_on,0,0,0,,2,,,50,127
94389,note_off,50,0,0,,12,,,83,127
94390,note_on,1,0,0,,10,,,81,127
94440,note_off,50,0,0,,10,,,81,127
94441,note_on,1,0,0,,12,,,83,127
94491,note_off,50,0,0,,12,,,83,127
94492,note_on,1,0,0,,10,,,81,127
94542,note_off,50,0,0,,10,,,81,127
94543,note_on,1,0,0,,12,,,83,127
94593,note_off,50,0,0,,12,,,83,127
94594,note_on,1,0,0,,10,,,81,127
94644,note_off,50,0,0,,10,,,81,127
94645,note_on,1,0,0,,7,,,79,127
94695,note_off,50,0,0,,7,,,79,127
94696,note_on,1,0,0,,10,,,81,127
94744,note_off,48,0,0,,2,,,50,127
94746,note_off,2,0,0,,10,,,81,127
94747,note_on,1,0,0,,7,,,79,127
94747,note_on,0,0,0,,7,,,43,127
94949,note_off,202,0,0,,7,,,79,127
94952,note_on,3,0,0,,7,,,79,127
94952,note_on,0,0,0,,6,,,78,127
95154,note_off,202,0,0,,6,,,78,127
95154,note_off,0,0,0,,7,,,79,127
95154,note_off,0,0,0,,7,,,43,127
95157,note_on,3,0,0,,7,,,79,127
95157,note_on,0,0,0,,4,,,76,127
95157,note_on,0,0,0,,7,,,67,127
95157,note_on,0,0,0,,7,,,55,127
95359,note_off,202,0,0,,4,,,76,127
95359,note_off,0,0,0,,7,,,79,127
95362,note_on,3,0,0,,2,,,74,127
95362,note_on,0,0,0,,7,,,79,127
95564,note_off,202,0,0,,7,,,79,127
95564,note_off,0,0,0,,2,,,74,127
95564,note_off,0,0,0,,7,,,55,127
95564,note_off,0,0,0,,7,,,67,127
95567,note_on,3,0,0,,6,,,78,127
95567,note_on,0,0,0,,0,,,72,127
95567,note_on,0,0,0,,7,,,55,127
95567,note_on,0,0,0,,10,,,69,127
95838,note_off,271,0,0,,6,,,78,127
95841,note_on,3,0,0,,7,,,79,127
95903,note_off,62,0,0,,7,,,79,127
95909,note_on,6,0,0,,10,,,81,127
95971,note_off,62,0,0,,10,,,81,127
95971,note_off,0,0,0,,0,,,72,127
95974,note_off,3,0,0,,10,,,69,127
95974,note_off,0,0,0,,7,,,55,127
95977,note_on,3,0,0,,7,,,79,127
95977,note_on,0,0,0,,7,,,55,127
95977,note_on,0,0,0,,7,,,67,127
96179,note_off,202,0,0,,7,,,79,127
96182,note_on,3,0,0,,6,,,78,127
96182,note_on,0,0,0,,7,,,79,127
96384,note_off,202,0,0,,7,,,79,127
96384,note_off,0,0,0,,6,,,78,127
96384,note_off,0,0,0,,7,,,67,127
96384,note_off,0,0,0,,7,,,55,127
96387,note_on,3,0,0,,4,,,76,127
96387,note_on,0,0,0,,7,,,79,127
96387,note_on,0,0,0,,0,,,84,127
96387,note_on,0,0,0,,7,,,55,127
96387,note_on,0,0,0,,7,,,67,127
96589,note_off,202,0,0,,4,,,76,127
96592,note_on,3,0,0,,2,,,74,127
96791,note_off,199,0,0,,7,,,79,127
96794,note_off,3,0,0,,2,,,74,127
96794,note_off,0,0,0,,7,,,67,127
96794,note_off,0,0,0,,7,,,55,127
96797,note_on,3,0,0,,0,,,72,127
96797,note_on,0,0,0,,6,,,78,127
96797,note_on,0,0,0,,10,,,57,127
96797,note_on,0,0,0,,10,,,69,127
97068,note_off,271,0,0,,6,,,78,127
97071,note_on,3,0,0,,7,,,79,127
97133,note_off,62,0,0,,7,,,79,127
97139,note_on,6,0,0,,10,,,81,127
97201,note_off,62,0,0,,10,,,81,127
97201,note_off,0,0,0,,0,,,72,127
97204,note_off,3,0,0,,10,,,69,127
97204,note_off,0,0,0,,10,,,57,127
97204,note_off,0,0,0,,0,,,84,127
97207,note_on,3,0,0,,2,,,86,127
97207,note_on,0,0,0,,7,,,67,127
97207,note_on,0,0,0,,12,,,59,127
97269,note_off,62,0,0,,2,,,86,127
97275,note_on,6,0,0,,0,,,84,127
97337,note_off,62,0,0,,0,,,84,127
97343,note_on,6,0,0,,2,,,86,127
97405,note_off,62,0,0,,2,,,86,127
97408,note_off,3,0,0,,12,,,59,127
97411,note_on,3,0,0,,4,,,88,127
97411,note_on,0,0,0,,0,,,60,127
97473,note_off,62,0,0,,4,,,88,127
97479,note_on,6,0,0,,2,,,86,127
97541,note_off,62,0,0,,2,,,86,127
97547,note_on,6,0,0,,0,,,84,127
97609,note_off,62,0,0,,0,,,84,127
97609,note_off,0,0,0,,7,,,67,127
97612,note_off,3,0,0,,0,,,60,127
97615,note_on,3,0,0,,12,,,83,127
97615,note_on,0,0,0,,2,,,62,127
97677,note_off,62,0,0,,12,,,83,127
97683,note_on,6,0,0,,10,,,81,127
97745,note_off,62,0,0,,10,,,81,127
97751,note_on,6,0,0,,7,,,79,127
97813,note_off,62,0,0,,7,,,79,127
97819,note_on,6,0,0,,6,,,78,127
97881,note_off,62,0,0,,6,,,78,127
97887,note_on,6,0,0,,4,,,76,127
97949,note_off,62,0,0,,4,,,76,127
97955,note_on,6,0,0,,2,,,74,127
98017,note_off,62,0,0,,2,,,74,127
98020,note_off,3,0,0,,2,,,62,127
98023,note_on,3,0,0,,12,,,83,127
98023,note_on,0,0,0,,2,,,50,127
98073,note_off,50,0,0,,12,,,83,127
98074,note_on,1,0,0,,10,,,81,127
98124,note_off,50,0,0,,10,,,81,127
98125,note_on,1,0,0,,12,,,83,127
98175,note_off,50,0,0,,12,,,83,127
98176,note_on,1,0,0,,10,,,81,127
98226,note_off,50,0,0,,10,,,81,127
98227,note_on,1,0,0,,12,,,83,127
98277,note_off,50,0,0,,12,,,83,127
98278,note_on,1,0,0,,10,,,81,127
98328,note_off,50,0,0,,10,,,81,127
98329,note_on,1,0,0,,7,,,79,127
98379,note_off,50,0,0,,7,,,79,127
98380,note_on,1,0,0,,10,,,81,127
98428,note_off,48,0,0,,2,,,50,127
98430,note_off,2,0,0,,10,,,81,127
98431,note_on,1,0,0,,7,,,79,127
98431,note_on,0,0,0,,7,,,43,127
98493,note_off,62,0,0,,7,,,79,127
98499,note_on,6,0,0,,2,,,86,127
98561,note_off,62,0,0,,2,,,86,127
98567,note_on,6,0,0,,12,,,83,127
98629,note_off,62,0,0,,12,,,83,127
98635,note_on,6,0,0,,7,,,79,127
98697,note_off,62,0,0,,7,,,79,127
98703,note_on,6,0,0,,12,,,83,127
98765,note_off,62,0,0,,12,,,83,127
98771,note_on,6,0,0,,7,,,79,127
98833,note_off,62,0,0,,7,,,79,127
98839,note_on,6,0,0,,2,,,74,127
98901,note_off,62,0,0,,2,,,74,127
98907,note_on,6,0,0,,7,,,79,127
98969,note_off,62,0,0,,7,,,79,127
98975,note_on,6,0,0,,2,,,74,127
99037,note_off,62,0,0,,2,,,74,127
99043,note_on,6,0,0,,12,,,71,127
99105,note_off,62,0,0,,12,,,71,127
99111,note_on,6,0,0,,2,,,74,127
99173,note_off,62,0,0,,2,,,74,127
99179,note_on,6,0,0,,12,,,71,127
99241,note_off,62,0,0,,12,,,71,127
99247,note_on,6,0,0,,7,,,67,127
99309,note_off,62,0,0,,7,,,67,127
99315,note_on,6,0,0,,12,,,71,127
99377,note_off,62,0,0,,12,,,71,127
99383,note_on,6,0,0,,7,,,67,127
99445,note_off,62,0,0,,7,,,67,127
99451,note_on,6,0,0,,2,,,62,127
99513,note_off,62,0,0,,2,,,62,127
99519,note_on,6,0,0,,7,,,67,127
99581,note_off,62,0,0,,7,,,67,127
99587,note_on,6,0,0,,2,,,62,127
99649,note_off,62,0,0,,2,,,62,127
99655,note_on,6,0,0,,12,,,59,127
99717,note_off,62,0,0,,12,,,59,127
99723,note_on,6,0,0,,2,,,62,127
99785,note_off,62,0,0,,2,,,62,127
99791,note_on,6,0,0,,12,,,59,127
99853,note_off,62,0,0,,12,,,59,127
99859,note_on,6,0,0,,7,,,55,127
99921,note_off,62,0,0,,7,,,55,127
99927,note_on,6,0,0,,12,,,59,127
99989,note_off,62,0,0,,12,,,59,127
99995,note_on,6,0,0,,7,,,55,127
100057,note_off,62,0,0,,7,,,55,127
100063,note_on,6,0,0,,2,,,50,127
100125,note_off,62,0,0,,2,,,50,127
100131,note_on,6,0,0,,7,,,55,127
100193,note_off,62,0,0,,7,,,55,127
100199,note_on,6,0,0,,2,,,50,127
100261,note_off,62,0,0,,2,,,50,127
100267,note_on,6,0,0,,12,,,47,127
100329,note_off,62,0,0,,12,,,47,127
100335,note_on,6,0,0,,2,,,50,127
100397,note_off,62,0,0,,2,,,50,127
100403,note_on,6,0,0,,12,,,47,127
100461,note_off,58,0,0,,7,,,43,127
100465,note_off,4,0,0,,12,,,47,127
100471,note_on,6,0,0,,7,,,43,127
100533,note_off,62,0,0,,7,,,43,127
100539,note_on,6,0,0,,12,,,47,127
100601,note_off,62,0,0,,12,,,47,127
100607,note_on,6,0,0,,7,,,43,127
100669,note_off,62,0,0,,7,,,43,127
100675,note_on,6,0,0,,2,,,38,127
100737,note_off,62,0,0,,2,,,38,127
100743,note_on,6,0,0,,7,,,43,127
100805,note_off,62,0,0,,7,,,43,127
100811,note_on,6,0,0,,2,,,38,127
100873,note_off,62,0,0,,2,,,38,127
100879,note_on,6,0,0,,7,,,31,127
102790,note_off,1911,0,0,,7,,,31,127
104448,end_of_track,1658,1,0,,,,,,
