tick,type,time,meta,track,program,channel,pitch,tempo,note,velocity
0,copyright,0,1,0,,,,,,
0,program_change,0,0,0,6,0,,,,
0,pitchwheel,0,0,0,,0,0,,,
0,program_change,0,0,0,6,1,,,,
0,pitchwheel,0,0,0,,1,-590,,,
0,program_change,0,0,0,6,2,,,,
0,pitchwheel,0,0,0,,2,-272,,,
0,program_change,0,0,0,6,3,,,,
0,pitchwheel,0,0,0,,3,-353,,,
0,program_change,0,0,0,6,4,,,,
0,pitchwheel,0,0,0,,4,-560,,,
0,program_change,0,0,0,6,5,,,,
0,pitchwheel,0,0,0,,5,-80,,,
0,program_change,0,0,0,6,6,,,,
0,pitchwheel,0,0,0,,6,-625,,,
0,program_change,0,0,0,6,7,,,,
0,pitchwheel,0,0,0,,7,-130,,,
0,program_change,0,0,0,6,8,,,,
0,pitchwheel,0,0,0,,8,-512,,,
0,program_change,0,0,0,6,10,,,,
0,pitchwheel,0,0,0,,10,-464,,,
0,program_change,0,0,0,6,11,,,,
0,pitchwheel,0,0,0,,11,-208,,,
0,program_change,0,0,0,6,12,,,,
0,pitchwheel,0,0,0,,12,-553,,,
0,set_tempo,0,1,0,,,,500000,,
92,note_on,92,0,0,,7,,,67,127
92,note_on,0,0,0,,2,,,86,127
264,note_off,172,0,0,,7,,,67,127
276,note_on,12,0,0,,10,,,69,127
276,note_on,0,0,0,,2,,,74,127
420,note_off,144,0,0,,2,,,74,127
448,note_off,28,0,0,,10,,,69,127
460,note_on,12,0,0,,12,,,71,127
552,note_on,92,0,0,,2,,,74,127
560,note_off,8,0,0,,2,,,86,127
632,note_off,72,0,0,,12,,,71,127
641,note_off,9,0,0,,2,,,74,127
645,note_on,4,0,0,,0,,,72,127
645,note_on,0,0,0,,4,,,76,127
733,note_off,88,0,0,,4,,,76,127
733,note_off,0,0,0,,0,,,72,127
737,note_on,4,0,0,,0,,,72,127
825,note_off,88,0,0,,0,,,72,127
829,note_on,4,0,0,,7,,,67,127
829,note_on,0,0,0,,2,,,86,127
1001,note_off,172,0,0,,7,,,67,127
1013,note_on,12,0,0,,10,,,69,127
1013,note_on,0,0,0,,2,,,74,127
1157,note_off,144,0,0,,2,,,74,127
1185,note_off,28,0,0,,10,,,69,127
1197,note_on,12,0,0,,12,,,71,127
1289,note_on,92,0,0,,2,,,74,127
1297,note_off,8,0,0,,2,,,86,127
1369,note_off,72,0,0,,12,,,71,127
1378,note_off,9,0,0,,2,,,74,127
1382,note_on,4,0,0,,0,,,72,127
1382,note_on,0,0,0,,4,,,76,127
1470,note_off,88,0,0,,4,,,76,127
1470,note_off,0,0,0,,0,,,72,127
1474,note_on,4,0,0,,0,,,72,127
1562,note_off,88,0,0,,0,,,72,127
1566,note_on,4,0,0,,7,,,67,127
1566,note_on,0,0,0,,2,,,86,127
1738,note_off,172,0,0,,7,,,67,127
1750,note_on,12,0,0,,12,,,71,127
1750,note_on,0,0,0,,2,,,74,127
1812,note_off,62,0,0,,2,,,86,127
1838,note_off,26,0,0,,2,,,74,127
1842,note_on,4,0,0,,2,,,86,127
1922,note_off,80,0,0,,12,,,71,127
1931,note_off,9,0,0,,2,,,86,127
1935,note_on,4,0,0,,10,,,69,127
1935,note_on,0,0,0,,2,,,86,127
2023,note_off,88,0,0,,2,,,86,127
2027,note_on,4,0,0,,0,,,84,127
2107,note_off,80,0,0,,10,,,69,127
2119,note_on,12,0,0,,6,,,66,127
2119,note_on,0,0,0,,2,,,74,127
2162,note_off,43,0,0,,0,,,84,127
2207,note_off,45,0,0,,2,,,74,127
2211,note_on,4,0,0,,0,,,84,127
2291,note_off,80,0,0,,6,,,66,127
2300,note_off,9,0,0,,0,,,84,127
2304,note_on,4,0,0,,7,,,67,127
2304,note_on,0,0,0,,0,,,84,127
2392,note_off,88,0,0,,0,,,84,127
2396,note_on,4,0,0,,12,,,83,127
2488,note_on,92,0,0,,7,,,55,127
2488,note_on,0,0,0,,2,,,74,127
2530,note_off,42,0,0,,12,,,83,127
2576,note_off,46,0,0,,2,,,74,127
2580,note_on,4,0,0,,12,,,83,127
2660,note_off,80,0,0,,7,,,55,127
2660,note_off,0,0,0,,7,,,67,127
2669,note_off,9,0,0,,12,,,83,127
2673,note_on,4,0,0,,2,,,62,127
2673,note_on,0,0,0,,12,,,83,127
2761,note_off,88,0,0,,12,,,83,127
2765,note_on,4,0,0,,10,,,81,127
2857,note_on,92,0,0,,2,,,50,127
2857,note_on,0,0,0,,0,,,72,127
2899,note_off,42,0,0,,10,,,81,127
2945,note_off,46,0,0,,0,,,72,127
2949,note_on,4,0,0,,10,,,81,127
3029,note_off,80,0,0,,2,,,50,127
3029,note_off,0,0,0,,2,,,62,127
3038,note_off,9,0,0,,10,,,81,127
3042,note_on,4,0,0,,7,,,55,127
3042,note_on,0,0,0,,10,,,81,127
3130,note_off,88,0,0,,10,,,81,127
3134,note_on,4,0,0,,7,,,79,127
3226,note_on,92,0,0,,7,,,43,127
3226,note_on,0,0,0,,12,,,71,127
3267,note_off,41,0,0,,7,,,79,127
3314,note_off,47,0,0,,12,,,71,127
3318,note_on,4,0,0,,7,,,79,127
3398,note_off,80,0,0,,7,,,43,127
3398,note_off,0,0,0,,7,,,55,127
3407,note_off,9,0,0,,7,,,79,127
3411,note_on,4,0,0,,2,,,50,127
3411,note_on,0,0,0,,7,,,79,127
3499,note_off,88,0,0,,7,,,79,127
3503,note_on,4,0,0,,6,,,78,127
3595,note_on,92,0,0,,2,,,38,127
3595,note_on,0,0,0,,10,,,69,127
3632,note_off,37,0,0,,6,,,78,127
3683,note_off,51,0,0,,10,,,69,127
3687,note_on,4,0,0,,6,,,78,127
3767,note_off,80,0,0,,2,,,38,127
3767,note_off,0,0,0,,2,,,50,127
3776,note_off,9,0,0,,6,,,78,127
3780,note_on,4,0,0,,7,,,31,127
3780,note_on,0,0,0,,7,,,79,127
3872,note_on,92,0,0,,2,,,74,127
3960,note_off,88,0,0,,2,,,74,127
3964,note_on,4,0,0,,12,,,71,127
4052,note_off,88,0,0,,12,,,71,127
4056,note_on,4,0,0,,7,,,67,127
4144,note_off,88,0,0,,7,,,67,127
4144,note_off,0,0,0,,7,,,79,127
4148,note_on,4,0,0,,12,,,71,127
4236,note_off,88,0,0,,12,,,71,127
4240,note_on,4,0,0,,2,,,74,127
4328,note_off,88,0,0,,2,,,74,127
4331,note_off,3,0,0,,7,,,31,127
4332,note_on,1,0,0,,7,,,79,127
4420,note_off,88,0,0,,7,,,79,127
4424,note_on,4,0,0,,12,,,83,127
4512,note_off,88,0,0,,12,,,83,127
4516,note_on,4,0,0,,2,,,86,127
4614,note_on,98,0,0,,2,,,74,127
4702,note_off,88,0,0,,2,,,74,127
4706,note_on,4,0,0,,2,,,74,127
4706,note_on,0,0,0,,12,,,71,127
4753,note_off,47,0,0,,2,,,86,127
4794,note_off,41,0,0,,2,,,74,127
4798,note_on,4,0,0,,2,,,86,127
4878,note_off,80,0,0,,12,,,71,127
4887,note_off,9,0,0,,2,,,86,127
4891,note_on,4,0,0,,2,,,86,127
4891,note_on,0,0,0,,10,,,69,127
4979,note_off,88,0,0,,2,,,86,127
4983,note_on,4,0,0,,0,,,84,127
5063,note_off,80,0,0,,10,,,69,127
5075,note_on,12,0,0,,2,,,74,127
5075,note_on,0,0,0,,6,,,66,127
5118,note_off,43,0,0,,0,,,84,127
5163,note_off,45,0,0,,2,,,74,127
5167,note_on,4,0,0,,0,,,84,127
5247,note_off,80,0,0,,6,,,66,127
5256,note_off,9,0,0,,0,,,84,127
5260,note_on,4,0,0,,0,,,84,127
5260,note_on,0,0,0,,7,,,67,127
5348,note_off,88,0,0,,0,,,84,127
5352,note_on,4,0,0,,12,,,83,127
5444,note_on,92,0,0,,2,,,74,127
5444,note_on,0,0,0,,7,,,55,127
5486,note_off,42,0,0,,12,,,83,127
5532,note_off,46,0,0,,2,,,74,127
5536,note_on,4,0,0,,12,,,83,127
5616,note_off,80,0,0,,7,,,55,127
5616,note_off,0,0,0,,7,,,67,127
5625,note_off,9,0,0,,12,,,83,127
5629,note_on,4,0,0,,12,,,83,127
5629,note_on,0,0,0,,2,,,62,127
5717,note_off,88,0,0,,12,,,83,127
5721,note_on,4,0,0,,10,,,81,127
5813,note_on,92,0,0,,0,,,72,127
5813,note_on,0,0,0,,2,,,50,127
5855,note_off,42,0,0,,10,,,81,127
5901,note_off,46,0,0,,0,,,72,127
5905,note_on,4,0,0,,10,,,81,127
5985,note_off,80,0,0,,2,,,50,127
5985,note_off,0,0,0,,2,,,62,127
5994,note_off,9,0,0,,10,,,81,127
5998,note_on,4,0,0,,10,,,81,127
5998,note_on,0,0,0,,7,,,55,127
6086,note_off,88,0,0,,10,,,81,127
6090,note_on,4,0,0,,7,,,79,127
6182,note_on,92,0,0,,12,,,71,127
6182,note_on,0,0,0,,7,,,43,127
6223,note_off,41,0,0,,7,,,79,127
6270,note_off,47,0,0,,12,,,71,127
6274,note_on,4,0,0,,7,,,79,127
6354,note_off,80,0,0,,7,,,43,127
6354,note_off,0,0,0,,7,,,55,127
6363,note_off,9,0,0,,7,,,79,127
6367,note_on,4,0,0,,7,,,79,127
6367,note_on,0,0,0,,2,,,50,127
6455,note_off,88,0,0,,7,,,79,127
6459,note_on,4,0,0,,6,,,78,127
6551,note_on,92,0,0,,10,,,69,127
6551,note_on,0,0,0,,2,,,38,127
6588,note_off,37,0,0,,6,,,78,127
6639,note_off,51,0,0,,10,,,69,127
6643,note_on,4,0,0,,6,,,78,127
6723,note_off,80,0,0,,2,,,38,127
6723,note_off,0,0,0,,2,,,50,127
6732,note_off,9,0,0,,6,,,78,127
6736,note_on,4,0,0,,7,,,79,127
6736,note_on,0,0,0,,7,,,31,127
6828,note_on,92,0,0,,2,,,74,127
6916,note_off,88,0,0,,2,,,74,127
6920,note_on,4,0,0,,12,,,71,127
7008,note_off,88,0,0,,12,,,71,127
7012,note_on,4,0,0,,7,,,67,127
7089,note_off,77,0,0,,7,,,31,127
7104,note_on,15,0,0,,2,,,62,127
7191,note_off,87,0,0,,7,,,79,127
7192,note_off,1,0,0,,2,,,62,127
7196,note_on,4,0,0,,12,,,59,127
7269,note_off,73,0,0,,7,,,67,127
7276,note_off,7,0,0,,12,,,59,127
7288,note_on,12,0,0,,7,,,55,127
7361,note_off,73,0,0,,7,,,55,127
7380,note_on,19,0,0,,2,,,50,127
7453,note_off,73,0,0,,2,,,50,127
7472,note_on,19,0,0,,2,,,74,127
7472,note_on,0,0,0,,7,,,43,127
7563,note_off,91,0,0,,2,,,74,127
7572,note_on,9,0,0,,0,,,72,127
7660,note_off,88,0,0,,0,,,72,127
7664,note_on,4,0,0,,0,,,72,127
7752,note_off,88,0,0,,0,,,72,127
7756,note_on,4,0,0,,12,,,71,127
7828,note_off,72,0,0,,7,,,43,127
7844,note_off,16,0,0,,12,,,71,127
7848,note_on,4,0,0,,12,,,71,127
7848,note_on,0,0,0,,0,,,60,127
7936,note_off,88,0,0,,12,,,71,127
7940,note_on,4,0,0,,10,,,69,127
8028,note_off,88,0,0,,10,,,69,127
8032,note_on,4,0,0,,10,,,69,127
8120,note_off,88,0,0,,10,,,69,127
8124,note_on,4,0,0,,7,,,67,127
8204,note_off,80,0,0,,0,,,60,127
8213,note_off,9,0,0,,7,,,67,127
8217,note_on,4,0,0,,6,,,66,127
8217,note_on,0,0,0,,2,,,62,127
8305,note_off,88,0,0,,2,,,62,127
8309,note_on,4,0,0,,0,,,60,127
8389,note_off,80,0,0,,0,,,60,127
8400,note_off,11,0,0,,6,,,66,127
8402,note_on,2,0,0,,0,,,60,127
8482,note_off,80,0,0,,0,,,60,127
8494,note_on,12,0,0,,12,,,59,127
8574,note_off,80,0,0,,12,,,59,127
8586,note_on,12,0,0,,12,,,59,127
8666,note_off,80,0,0,,12,,,59,127
8678,note_on,12,0,0,,10,,,57,127
8758,note_off,80,0,0,,10,,,57,127
8770,note_on,12,0,0,,10,,,57,127
8850,note_off,80,0,0,,10,,,57,127
8862,note_on,12,0,0,,7,,,55,127
8942,note_off,80,0,0,,7,,,55,127
8957,note_on,15,0,0,,6,,,54,127
8957,note_on,0,0,0,,2,,,74,127
9045,note_off,88,0,0,,2,,,74,127
9052,note_on,7,0,0,,0,,,72,127
9140,note_off,88,0,0,,0,,,72,127
9146,note_on,6,0,0,,0,,,72,127
9234,note_off,88,0,0,,0,,,72,127
9241,note_on,7,0,0,,12,,,71,127
9313,note_off,72,0,0,,6,,,54,127
9329,note_off,16,0,0,,12,,,71,127
9336,note_on,7,0,0,,7,,,55,127
9336,note_on,0,0,0,,12,,,71,127
9424,note_off,88,0,0,,12,,,71,127
9431,note_on,7,0,0,,10,,,69,127
9519,note_off,88,0,0,,10,,,69,127
9526,note_on,7,0,0,,10,,,69,127
9609,note_on,83,0,0,,7,,,67,127
9615,note_off,6,0,0,,10,,,69,127
9693,note_off,78,0,0,,7,,,55,127
9708,note_on,15,0,0,,2,,,62,127
9708,note_on,0,0,0,,2,,,74,127
9708,note_on,0,0,0,,6,,,66,127
9709,note_off,1,0,0,,7,,,67,127
9814,note_off,105,0,0,,2,,,74,127
9817,note_on,3,0,0,,1,,,73,127
9880,note_off,63,0,0,,6,,,66,127
9880,note_off,0,0,0,,2,,,62,127
9905,note_off,25,0,0,,1,,,73,127
9909,note_on,4,0,0,,4,,,64,127
9909,note_on,0,0,0,,1,,,73,127
9997,note_off,88,0,0,,1,,,73,127
10001,note_on,4,0,0,,2,,,74,127
10081,note_off,80,0,0,,4,,,64,127
10090,note_off,9,0,0,,2,,,74,127
10094,note_on,4,0,0,,6,,,66,127
10094,note_on,0,0,0,,2,,,74,127
10186,note_on,92,0,0,,1,,,73,127
10199,note_off,13,0,0,,2,,,74,127
10265,note_off,66,0,0,,6,,,66,127
10274,note_off,9,0,0,,1,,,73,127
10278,note_on,4,0,0,,2,,,62,127
10278,note_on,0,0,0,,1,,,73,127
10366,note_off,88,0,0,,1,,,73,127
10370,note_on,4,0,0,,2,,,74,127
10450,note_off,80,0,0,,2,,,62,127
10459,note_off,9,0,0,,2,,,74,127
10463,note_on,4,0,0,,4,,,64,127
10463,note_on,0,0,0,,2,,,74,127
10463,note_on,0,0,0,,7,,,67,127
10555,note_on,92,0,0,,1,,,73,127
10568,note_off,13,0,0,,2,,,74,127
10634,note_off,66,0,0,,7,,,67,127
10634,note_off,0,0,0,,4,,,64,127
10643,note_off,9,0,0,,1,,,73,127
10647,note_on,4,0,0,,6,,,66,127
10647,note_on,0,0,0,,1,,,73,127
10735,note_off,88,0,0,,1,,,73,127
10739,note_on,4,0,0,,2,,,74,127
10819,note_off,80,0,0,,6,,,66,127
10828,note_off,9,0,0,,2,,,74,127
10832,note_on,4,0,0,,7,,,67,127
10832,note_on,0,0,0,,2,,,74,127
10924,note_on,92,0,0,,1,,,73,127
10937,note_off,13,0,0,,2,,,74,127
11003,note_off,66,0,0,,7,,,67,127
11012,note_off,9,0,0,,1,,,73,127
11016,note_on,4,0,0,,4,,,64,127
11016,note_on,0,0,0,,1,,,73,127
11104,note_off,88,0,0,,1,,,73,127
11108,note_on,4,0,0,,2,,,74,127
11188,note_off,80,0,0,,4,,,64,127
11197,note_off,9,0,0,,2,,,74,127
11201,note_on,4,0,0,,6,,,66,127
11201,note_on,0,0,0,,2,,,74,127
11201,note_on,0,0,0,,10,,,69,127
11293,note_on,92,0,0,,1,,,73,127
11306,note_off,13,0,0,,2,,,74,127
11372,note_off,66,0,0,,10,,,69,127
11372,note_off,0,0,0,,6,,,66,127
11381,note_off,9,0,0,,1,,,73,127
11385,note_on,4,0,0,,7,,,67,127
11385,note_on,0,0,0,,1,,,73,127
11473,note_off,88,0,0,,1,,,73,127
11477,note_on,4,0,0,,2,,,74,127
11557,note_off,80,0,0,,7,,,67,127
11566,note_off,9,0,0,,2,,,74,127
11570,note_on,4,0,0,,10,,,69,127
11570,note_on,0,0,0,,2,,,74,127
11662,note_on,92,0,0,,1,,,73,127
11675,note_off,13,0,0,,2,,,74,127
11741,note_off,66,0,0,,10,,,69,127
11750,note_off,9,0,0,,1,,,73,127
11754,note_on,4,0,0,,6,,,66,127
11754,note_on,0,0,0,,1,,,73,127
11842,note_off,88,0,0,,1,,,73,127
11846,note_on,4,0,0,,2,,,74,127
11926,note_off,80,0,0,,6,,,66,127
11935,note_off,9,0,0,,2,,,74,127
11939,note_on,4,0,0,,8,,,68,127
11939,note_on,0,0,0,,2,,,74,127
12027,note_off,88,0,0,,2,,,74,127
12031,note_on,4,0,0,,1,,,73,127
12111,note_off,80,0,0,,8,,,68,127
12120,note_off,9,0,0,,1,,,73,127
12124,note_on,4,0,0,,10,,,69,127
12124,note_on,0,0,0,,1,,,73,127
12212,note_off,88,0,0,,1,,,73,127
12216,note_on,4,0,0,,2,,,74,127
12296,note_off,80,0,0,,10,,,69,127
12305,note_off,9,0,0,,2,,,74,127
12309,note_on,4,0,0,,12,,,71,127
12309,note_on,0,0,0,,2,,,74,127
12397,note_off,88,0,0,,2,,,74,127
12401,note_on,4,0,0,,1,,,73,127
12481,note_off,80,0,0,,12,,,71,127
12490,note_off,9,0,0,,1,,,73,127
12494,note_on,4,0,0,,8,,,68,127
12494,note_on,0,0,0,,1,,,73,127
12582,note_off,88,0,0,,1,,,73,127
12586,note_on,4,0,0,,2,,,74,127
12666,note_off,80,0,0,,8,,,68,127
12675,note_off,9,0,0,,2,,,74,127
12679,note_on,4,0,0,,10,,,69,127
12679,note_on,0,0,0,,1,,,73,127
12767,note_off,88,0,0,,10,,,69,127
12771,note_on,4,0,0,,8,,,68,127
12859,note_off,88,0,0,,8,,,68,127
12863,note_on,4,0,0,,8,,,68,127
12898,note_off,35,0,0,,1,,,73,127
12952,note_off,54,0,0,,8,,,68,127
12956,note_on,4,0,0,,10,,,69,127
13044,note_off,88,0,0,,10,,,69,127
13048,note_on,4,0,0,,10,,,69,127
13136,note_off,88,0,0,,10,,,69,127
13140,note_on,4,0,0,,8,,,68,127
13228,note_off,88,0,0,,8,,,68,127
13236,note_on,8,0,0,,10,,,81,127
13236,note_on,0,0,0,,8,,,68,127
13324,note_off,88,0,0,,8,,,68,127
13328,note_on,4,0,0,,10,,,69,127
13415,note_off,87,0,0,,10,,,81,127
13416,note_off,1,0,0,,10,,,69,127
13420,note_on,4,0,0,,7,,,79,127
13420,note_on,0,0,0,,2,,,62,127
13469,note_off,49,0,0,,7,,,79,127
13475,note_on,6,0,0,,6,,,78,127
13509,note_off,34,0,0,,2,,,62,127
13513,note_on,4,0,0,,1,,,61,127
13522,note_off,9,0,0,,6,,,78,127
13532,note_on,10,0,0,,7,,,79,127
13581,note_off,49,0,0,,7,,,79,127
13587,note_on,6,0,0,,6,,,78,127
13594,note_off,7,0,0,,1,,,61,127
13606,note_on,12,0,0,,1,,,61,127
13633,note_off,27,0,0,,6,,,78,127
13643,note_on,10,0,0,,7,,,79,127
13686,note_off,43,0,0,,1,,,61,127
13693,note_off,7,0,0,,7,,,79,127
13699,note_on,6,0,0,,6,,,78,127
13699,note_on,0,0,0,,2,,,62,127
13744,note_off,45,0,0,,6,,,78,127
13754,note_on,10,0,0,,7,,,79,127
13788,note_off,34,0,0,,2,,,62,127
13792,note_on,4,0,0,,2,,,62,127
13804,note_off,12,0,0,,7,,,79,127
13810,note_on,6,0,0,,6,,,78,127
13855,note_off,45,0,0,,6,,,78,127
13865,note_on,10,0,0,,7,,,79,127
13880,note_off,15,0,0,,2,,,62,127
13884,note_on,4,0,0,,1,,,61,127
13915,note_off,31,0,0,,7,,,79,127
13921,note_on,6,0,0,,6,,,78,127
13964,note_off,43,0,0,,1,,,61,127
13967,note_off,3,0,0,,6,,,78,127
13977,note_on,10,0,0,,4,,,76,127
13977,note_on,0,0,0,,1,,,61,127
14057,note_off,80,0,0,,1,,,61,127
14066,note_off,9,0,0,,4,,,76,127
14070,note_on,4,0,0,,2,,,74,127
14070,note_on,0,0,0,,2,,,62,127
14158,note_off,88,0,0,,2,,,62,127
14158,note_off,0,0,0,,2,,,74,127
14162,note_on,4,0,0,,4,,,76,127
14162,note_on,0,0,0,,10,,,57,127
14242,note_off,80,0,0,,10,,,57,127
14254,note_on,12,0,0,,8,,,56,127
14334,note_off,80,0,0,,8,,,56,127
14346,note_on,12,0,0,,8,,,56,127
14383,note_off,37,0,0,,4,,,76,127
14425,note_off,42,0,0,,8,,,56,127
14437,note_on,12,0,0,,10,,,57,127
14517,note_off,80,0,0,,10,,,57,127
14529,note_on,12,0,0,,10,,,57,127
14609,note_off,80,0,0,,10,,,57,127
14621,note_on,12,0,0,,8,,,56,127
14701,note_off,80,0,0,,8,,,56,127
14713,note_on,12,0,0,,10,,,81,127
14713,note_on,0,0,0,,8,,,56,127
14793,note_off,80,0,0,,8,,,56,127
14805,note_on,12,0,0,,10,,,57,127
14885,note_off,80,0,0,,10,,,57,127
14893,note_off,8,0,0,,10,,,81,127
14898,note_on,5,0,0,,7,,,79,127
14898,note_on,0,0,0,,2,,,50,127
14947,note_off,49,0,0,,7,,,79,127
14953,note_on,6,0,0,,6,,,78,127
14978,note_off,25,0,0,,2,,,50,127
14990,note_on,12,0,0,,1,,,49,127
14999,note_off,9,0,0,,6,,,78,127
15009,note_on,10,0,0,,7,,,79,127
15058,note_off,49,0,0,,7,,,79,127
15064,note_on,6,0,0,,6,,,78,127
15071,note_off,7,0,0,,1,,,49,127
15083,note_on,12,0,0,,1,,,49,127
15110,note_off,27,0,0,,6,,,78,127
15120,note_on,10,0,0,,7,,,79,127
15163,note_off,43,0,0,,1,,,49,127
15170,note_off,7,0,0,,7,,,79,127
15176,note_on,6,0,0,,6,,,78,127
15176,note_on,0,0,0,,2,,,50,127
15221,note_off,45,0,0,,6,,,78,127
15231,note_on,10,0,0,,7,,,79,127
15256,note_off,25,0,0,,2,,,50,127
15268,note_on,12,0,0,,2,,,50,127
15280,note_off,12,0,0,,7,,,79,127
15286,note_on,6,0,0,,6,,,78,127
15331,note_off,45,0,0,,6,,,78,127
15341,note_on,10,0,0,,7,,,79,127
15348,note_off,7,0,0,,2,,,50,127
15360,note_on,12,0,0,,1,,,49,127
15391,note_off,31,0,0,,7,,,79,127
15397,note_on,6,0,0,,6,,,78,127
15440,note_off,43,0,0,,1,,,49,127
15443,note_off,3,0,0,,6,,,78,127
15453,note_on,10,0,0,,4,,,76,127
15453,note_on,0,0,0,,1,,,49,127
15533,note_off,80,0,0,,1,,,49,127
15542,note_off,9,0,0,,4,,,76,127
15546,note_on,4,0,0,,2,,,74,127
15546,note_on,0,0,0,,2,,,50,127
15626,note_off,80,0,0,,2,,,50,127
15635,note_off,9,0,0,,2,,,74,127
15639,note_on,4,0,0,,4,,,76,127
15639,note_on,0,0,0,,10,,,45,127
15719,note_off,80,0,0,,10,,,45,127
15731,note_on,12,0,0,,12,,,47,127
15762,note_off,31,0,0,,4,,,76,127
15811,note_off,49,0,0,,12,,,47,127
15823,note_on,12,0,0,,10,,,81,127
15823,note_on,0,0,0,,1,,,49,127
15903,note_off,80,0,0,,1,,,49,127
15915,note_on,12,0,0,,10,,,45,127
15995,note_off,80,0,0,,10,,,45,127
16003,note_off,8,0,0,,10,,,81,127
16008,note_on,5,0,0,,6,,,78,127
16008,note_on,0,0,0,,2,,,50,127
16088,note_off,80,0,0,,2,,,50,127
16100,note_on,12,0,0,,4,,,52,127
16180,note_off,80,0,0,,4,,,52,127
16183,note_off,3,0,0,,6,,,78,127
16193,note_on,10,0,0,,4,,,76,127
16193,note_on,0,0,0,,6,,,54,127
16273,note_off,80,0,0,,6,,,54,127
16282,note_off,9,0,0,,4,,,76,127
16286,note_on,4,0,0,,2,,,74,127
16286,note_on,0,0,0,,7,,,55,127
16366,note_off,80,0,0,,7,,,55,127
16375,note_off,9,0,0,,2,,,74,127
16379,note_on,4,0,0,,10,,,69,127
16379,note_on,0,0,0,,10,,,57,127
16459,note_off,80,0,0,,10,,,57,127
16471,note_on,12,0,0,,12,,,59,127
16551,note_off,80,0,0,,12,,,59,127
16563,note_on,12,0,0,,10,,,81,127
16563,note_on,0,0,0,,1,,,61,127
16643,note_off,80,0,0,,1,,,61,127
16655,note_on,12,0,0,,10,,,57,127
16735,note_off,80,0,0,,10,,,57,127
16737,note_off,2,0,0,,10,,,81,127
16744,note_off,7,0,0,,10,,,69,127
16748,note_on,4,0,0,,6,,,78,127
16748,note_on,0,0,0,,2,,,62,127
16836,note_off,88,0,0,,2,,,62,127
16840,note_on,4,0,0,,4,,,64,127
16923,note_off,83,0,0,,6,,,78,127
16929,note_off,6,0,0,,4,,,64,127
16933,note_on,4,0,0,,4,,,76,127
16933,note_on,0,0,0,,6,,,66,127
17021,note_off,88,0,0,,6,,,66,127
17021,note_off,0,0,0,,4,,,76,127
17025,note_on,4,0,0,,2,,,74,127
17025,note_on,0,0,0,,7,,,67,127
17113,note_off,88,0,0,,7,,,67,127
17113,note_off,0,0,0,,2,,,74,127
17117,note_on,4,0,0,,10,,,69,127
17203,note_off,86,0,0,,10,,,69,127
17209,note_on,6,0,0,,10,,,69,127
17295,note_off,86,0,0,,10,,,69,127
17301,note_on,6,0,0,,10,,,69,127
17301,note_on,0,0,0,,10,,,57,127
17387,note_off,86,0,0,,10,,,69,127
17393,note_on,6,0,0,,10,,,69,127
17473,note_off,80,0,0,,10,,,57,127
17480,note_off,7,0,0,,10,,,69,127
17486,note_on,6,0,0,,10,,,69,127
17486,note_on,0,0,0,,10,,,57,127
17572,note_off,86,0,0,,10,,,69,127
17578,note_on,6,0,0,,10,,,69,127
17658,note_off,80,0,0,,10,,,57,127
17665,note_off,7,0,0,,10,,,69,127
17671,note_on,6,0,0,,10,,,69,127
17671,note_on,0,0,0,,10,,,57,127
17757,note_off,86,0,0,,10,,,69,127
17763,note_on,6,0,0,,10,,,69,127
17847,note_off,84,0,0,,10,,,57,127
17854,note_off,7,0,0,,10,,,69,127
17861,note_on,7,0,0,,2,,,50,127
17861,note_on,0,0,0,,10,,,57,127
17861,note_on,0,0,0,,2,,,74,127
17964,note_on,103,0,0,,10,,,69,127
18033,note_off,69,0,0,,2,,,50,127
18055,note_off,22,0,0,,10,,,69,127
18056,note_on,1,0,0,,4,,,52,127
18056,note_on,0,0,0,,10,,,69,127
18147,note_off,91,0,0,,10,,,69,127
18148,note_on,1,0,0,,10,,,69,127
18216,note_off,68,0,0,,2,,,74,127
18228,note_off,12,0,0,,4,,,52,127
18240,note_off,12,0,0,,10,,,69,127
18241,note_on,1,0,0,,6,,,54,127
18241,note_on,0,0,0,,10,,,69,127
18332,note_off,91,0,0,,10,,,69,127
18333,note_on,1,0,0,,10,,,69,127
18413,note_off,80,0,0,,6,,,54,127
18425,note_off,12,0,0,,10,,,69,127
18426,note_on,1,0,0,,2,,,50,127
18426,note_on,0,0,0,,10,,,69,127
18517,note_off,91,0,0,,10,,,69,127
18518,note_on,1,0,0,,10,,,69,127
18587,note_off,69,0,0,,10,,,57,127
18598,note_off,11,0,0,,2,,,50,127
18610,note_on,12,0,0,,1,,,49,127
18610,note_on,0,0,0,,10,,,57,127
18610,note_on,0,0,0,,4,,,76,127
18701,note_off,91,0,0,,10,,,69,127
18702,note_on,1,0,0,,10,,,69,127
18782,note_off,80,0,0,,1,,,49,127
18794,note_off,12,0,0,,10,,,69,127
18795,note_on,1,0,0,,12,,,47,127
18795,note_on,0,0,0,,10,,,69,127
18886,note_off,91,0,0,,10,,,69,127
18887,note_on,1,0,0,,10,,,69,127
18967,note_off,80,0,0,,12,,,47,127
18967,note_off,0,0,0,,4,,,76,127
18979,note_off,12,0,0,,10,,,69,127
18980,note_on,1,0,0,,1,,,49,127
18980,note_on,0,0,0,,10,,,69,127
19071,note_off,91,0,0,,10,,,69,127
19072,note_on,1,0,0,,10,,,69,127
19152,note_off,80,0,0,,1,,,49,127
19164,note_off,12,0,0,,10,,,69,127
19165,note_on,1,0,0,,10,,,45,127
19165,note_on,0,0,0,,10,,,69,127
19256,note_off,91,0,0,,10,,,69,127
19257,note_on,1,0,0,,10,,,69,127
19337,note_off,80,0,0,,10,,,45,127
19337,note_off,0,0,0,,10,,,57,127
19349,note_on,12,0,0,,10,,,57,127
19349,note_on,0,0,0,,2,,,50,127
19349,note_on,0,0,0,,6,,,78,127
19440,note_off,91,0,0,,10,,,69,127
19441,note_on,1,0,0,,10,,,69,127
19521,note_off,80,0,0,,2,,,50,127
19533,note_off,12,0,0,,10,,,69,127
19534,note_on,1,0,0,,4,,,52,127
19534,note_on,0,0,0,,10,,,69,127
19618,note_off,84,0,0,,6,,,78,127
19626,note_off,8,0,0,,10,,,69,127
19627,note_on,1,0,0,,10,,,69,127
19707,note_off,80,0,0,,4,,,52,127
19719,note_off,12,0,0,,10,,,69,127
19720,note_on,1,0,0,,6,,,54,127
19720,note_on,0,0,0,,10,,,69,127
19811,note_off,91,0,0,,10,,,69,127
19812,note_on,1,0,0,,10,,,69,127
19892,note_off,80,0,0,,6,,,54,127
19904,note_off,12,0,0,,10,,,69,127
19905,note_on,1,0,0,,2,,,50,127
19905,note_on,0,0,0,,10,,,69,127
19996,note_off,91,0,0,,10,,,69,127
19997,note_on,1,0,0,,10,,,69,127
20077,note_off,80,0,0,,2,,,50,127
20077,note_off,0,0,0,,10,,,57,127
20089,note_on,12,0,0,,4,,,52,127
20089,note_on,0,0,0,,7,,,79,127
20180,note_off,91,0,0,,10,,,69,127
20181,note_on,1,0,0,,10,,,69,127
20261,note_off,80,0,0,,4,,,52,127
20273,note_off,12,0,0,,10,,,69,127
20274,note_on,1,0,0,,6,,,54,127
20274,note_on,0,0,0,,10,,,69,127
20361,note_off,87,0,0,,7,,,79,127
20365,note_off,4,0,0,,10,,,69,127
20366,note_on,1,0,0,,10,,,69,127
20446,note_off,80,0,0,,6,,,54,127
20458,note_off,12,0,0,,10,,,69,127
20459,note_on,1,0,0,,7,,,55,127
20459,note_on,0,0,0,,10,,,69,127
20550,note_off,91,0,0,,10,,,69,127
20551,note_on,1,0,0,,10,,,69,127
20631,note_off,80,0,0,,7,,,55,127
20643,note_off,12,0,0,,10,,,69,127
20644,note_on,1,0,0,,4,,,52,127
20644,note_on,0,0,0,,10,,,69,127
20735,note_off,91,0,0,,10,,,69,127
20736,note_on,1,0,0,,10,,,69,127
20816,note_off,80,0,0,,4,,,52,127
20828,note_on,12,0,0,,6,,,54,127
20828,note_on,0,0,0,,10,,,81,127
20919,note_off,91,0,0,,10,,,69,127
20920,note_on,1,0,0,,10,,,69,127
20962,note_off,42,0,0,,10,,,81,127
20999,note_off,37,0,0,,6,,,54,127
21011,note_off,12,0,0,,10,,,69,127
21012,note_on,1,0,0,,2,,,50,127
21012,note_on,0,0,0,,10,,,69,127
21103,note_off,91,0,0,,10,,,69,127
21104,note_on,1,0,0,,10,,,69,127
21184,note_off,80,0,0,,2,,,50,127
21196,note_off,12,0,0,,10,,,69,127
21197,note_on,1,0,0,,7,,,55,127
21197,note_on,0,0,0,,12,,,83,127
21289,note_on,92,0,0,,12,,,71,127
21331,note_off,42,0,0,,12,,,83,127
21380,note_off,49,0,0,,12,,,71,127
21381,note_on,1,0,0,,7,,,43,127
21381,note_on,0,0,0,,12,,,71,127
21472,note_off,91,0,0,,12,,,71,127
21473,note_on,1,0,0,,12,,,71,127
21553,note_off,80,0,0,,7,,,43,127
21553,note_off,0,0,0,,7,,,55,127
21565,note_off,12,0,0,,12,,,71,127
21566,note_on,1,0,0,,10,,,57,127
21566,note_on,0,0,0,,1,,,85,127
21658,note_on,92,0,0,,1,,,73,127
21701,note_off,43,0,0,,1,,,85,127
21737,note_off,36,0,0,,10,,,57,127
21749,note_off,12,0,0,,1,,,73,127
21750,note_on,1,0,0,,7,,,55,127
21750,note_on,0,0,0,,1,,,73,127
21841,note_off,91,0,0,,1,,,73,127
21842,note_on,1,0,0,,1,,,73,127
21922,note_off,80,0,0,,7,,,55,127
21934,note_off,12,0,0,,1,,,73,127
21935,note_on,1,0,0,,6,,,54,127
21935,note_on,0,0,0,,2,,,86,127
22027,note_on,92,0,0,,2,,,74,127
22070,note_off,43,0,0,,2,,,86,127
22106,note_off,36,0,0,,6,,,54,127
22118,note_off,12,0,0,,2,,,74,127
22119,note_on,1,0,0,,2,,,50,127
22119,note_on,0,0,0,,2,,,74,127
22210,note_off,91,0,0,,2,,,74,127
22211,note_on,1,0,0,,2,,,74,127
22291,note_off,80,0,0,,2,,,50,127
22303,note_off,12,0,0,,2,,,74,127
22304,note_on,1,0,0,,7,,,55,127
22304,note_on,0,0,0,,4,,,76,127
22392,note_off,88,0,0,,4,,,76,127
22396,note_on,4,0,0,,12,,,83,127
22476,note_off,80,0,0,,7,,,55,127
22485,note_off,9,0,0,,12,,,83,127
22489,note_on,4,0,0,,4,,,52,127
22489,note_on,0,0,0,,7,,,79,127
22577,note_off,88,0,0,,7,,,79,127
22581,note_on,4,0,0,,4,,,76,127
22661,note_off,80,0,0,,4,,,52,127
22670,note_off,9,0,0,,4,,,76,127
22674,note_on,4,0,0,,10,,,57,127
22674,note_on,0,0,0,,6,,,78,127
22762,note_off,88,0,0,,6,,,78,127
22766,note_on,4,0,0,,10,,,81,127
22854,note_off,88,0,0,,10,,,81,127
22858,note_on,4,0,0,,10,,,45,127
22858,note_on,0,0,0,,2,,,74,127
22946,note_off,88,0,0,,2,,,74,127
22949,note_on,3,0,0,,1,,,73,127
23030,note_off,81,0,0,,10,,,45,127
23030,note_off,0,0,0,,10,,,57,127
23035,note_off,5,0,0,,1,,,73,127
23040,note_on,5,0,0,,2,,,74,127
23040,note_on,0,0,0,,10,,,57,127
23040,note_on,0,0,0,,2,,,50,127
23130,note_on,90,0,0,,10,,,69,127
23206,note_off,76,0,0,,2,,,50,127
23218,note_off,12,0,0,,10,,,69,127
23220,note_on,2,0,0,,10,,,69,127
23220,note_on,0,0,0,,4,,,52,127
23308,note_off,88,0,0,,10,,,69,127
23310,note_on,2,0,0,,10,,,69,127
23386,note_off,76,0,0,,4,,,52,127
23398,note_off,12,0,0,,10,,,69,127
23400,note_on,2,0,0,,10,,,69,127
23400,note_on,0,0,0,,6,,,54,127
23488,note_off,88,0,0,,10,,,69,127
23490,note_on,2,0,0,,10,,,69,127
23566,note_off,76,0,0,,6,,,54,127
23578,note_off,12,0,0,,10,,,69,127
23580,note_on,2,0,0,,10,,,69,127
23580,note_on,0,0,0,,2,,,50,127
23668,note_off,88,0,0,,10,,,69,127
23670,note_on,2,0,0,,10,,,69,127
23742,note_off,72,0,0,,10,,,57,127
23743,note_off,1,0,0,,2,,,74,127
23746,note_off,3,0,0,,2,,,50,127
23761,note_on,15,0,0,,4,,,76,127
23761,note_on,0,0,0,,1,,,49,127
23761,note_on,0,0,0,,10,,,57,127
23846,note_off,85,0,0,,10,,,69,127
23851,note_on,5,0,0,,10,,,69,127
23927,note_off,76,0,0,,1,,,49,127
23939,note_off,12,0,0,,10,,,69,127
23941,note_on,2,0,0,,10,,,69,127
23941,note_on,0,0,0,,12,,,47,127
24029,note_off,88,0,0,,10,,,69,127
24031,note_on,2,0,0,,10,,,69,127
24107,note_off,76,0,0,,12,,,47,127
24119,note_off,12,0,0,,10,,,69,127
24121,note_on,2,0,0,,10,,,69,127
24121,note_on,0,0,0,,1,,,49,127
24209,note_off,88,0,0,,10,,,69,127
24211,note_on,2,0,0,,10,,,69,127
24287,note_off,76,0,0,,1,,,49,127
24299,note_off,12,0,0,,10,,,69,127
24301,note_on,2,0,0,,10,,,69,127
24301,note_on,0,0,0,,10,,,45,127
24389,note_off,88,0,0,,10,,,69,127
24391,note_on,2,0,0,,10,,,69,127
24463,note_off,72,0,0,,10,,,57,127
24465,note_off,2,0,0,,4,,,76,127
24467,note_off,2,0,0,,10,,,45,127
24482,note_on,15,0,0,,6,,,78,127
24482,note_on,0,0,0,,10,,,57,127
24482,note_on,0,0,0,,2,,,50,127
24567,note_off,85,0,0,,10,,,69,127
24572,note_on,5,0,0,,10,,,69,127
24648,note_off,76,0,0,,2,,,50,127
24660,note_off,12,0,0,,10,,,69,127
24662,note_on,2,0,0,,10,,,69,127
24662,note_on,0,0,0,,4,,,52,127
24750,note_off,88,0,0,,10,,,69,127
24752,note_on,2,0,0,,10,,,69,127
24828,note_off,76,0,0,,4,,,52,127
24840,note_off,12,0,0,,10,,,69,127
24842,note_on,2,0,0,,10,,,69,127
24842,note_on,0,0,0,,6,,,54,127
24930,note_off,88,0,0,,10,,,69,127
24932,note_on,2,0,0,,10,,,69,127
25008,note_off,76,0,0,,6,,,54,127
25020,note_off,12,0,0,,10,,,69,127
25022,note_on,2,0,0,,10,,,69,127
25022,note_on,0,0,0,,2,,,50,127
25110,note_off,88,0,0,,10,,,69,127
25112,note_on,2,0,0,,10,,,69,127
25184,note_off,72,0,0,,10,,,57,127
25186,note_off,2,0,0,,6,,,78,127
25188,note_off,2,0,0,,2,,,50,127
25202,note_on,14,0,0,,7,,,79,127
25202,note_on,0,0,0,,4,,,52,127
25288,note_off,86,0,0,,10,,,69,127
25293,note_on,5,0,0,,10,,,69,127
25368,note_off,75,0,0,,4,,,52,127
25381,note_off,13,0,0,,10,,,69,127
25383,note_on,2,0,0,,10,,,69,127
25383,note_on,0,0,0,,6,,,54,127
25471,note_off,88,0,0,,10,,,69,127
25473,note_on,2,0,0,,10,,,69,127
25549,note_off,76,0,0,,6,,,54,127
25561,note_off,12,0,0,,10,,,69,127
25563,note_on,2,0,0,,10,,,69,127
25563,note_on,0,0,0,,7,,,55,127
25651,note_off,88,0,0,,10,,,69,127
25653,note_on,2,0,0,,10,,,69,127
25729,note_off,76,0,0,,7,,,55,127
25732,note_off,3,0,0,,7,,,79,127
25742,note_off,10,0,0,,10,,,69,127
25744,note_on,2,0,0,,10,,,69,127
25744,note_on,0,0,0,,4,,,52,127
25832,note_off,88,0,0,,10,,,69,127
25834,note_on,2,0,0,,10,,,69,127
25910,note_off,76,0,0,,4,,,52,127
25922,note_off,12,0,0,,10,,,69,127
25924,note_on,2,0,0,,10,,,81,127
25924,note_on,0,0,0,,6,,,54,127
26015,note_on,91,0,0,,10,,,69,127
26053,note_off,38,0,0,,10,,,81,127
26089,note_off,36,0,0,,6,,,54,127
26102,note_off,13,0,0,,10,,,69,127
26104,note_on,2,0,0,,10,,,69,127
26104,note_on,0,0,0,,2,,,50,127
26192,note_off,88,0,0,,10,,,69,127
26194,note_on,2,0,0,,10,,,69,127
26270,note_off,76,0,0,,2,,,50,127
26282,note_off,12,0,0,,10,,,69,127
26284,note_on,2,0,0,,12,,,83,127
26284,note_on,0,0,0,,7,,,55,127
26374,note_on,90,0,0,,12,,,71,127
26413,note_off,39,0,0,,12,,,83,127
26462,note_off,49,0,0,,12,,,71,127
26464,note_on,2,0,0,,12,,,71,127
26464,note_on,0,0,0,,7,,,43,127
26552,note_off,88,0,0,,12,,,71,127
26554,note_on,2,0,0,,12,,,71,127
26629,note_off,75,0,0,,7,,,55,127
26630,note_off,1,0,0,,7,,,43,127
26642,note_off,12,0,0,,12,,,71,127
26644,note_on,2,0,0,,1,,,85,127
26644,note_on,0,0,0,,10,,,57,127
26734,note_on,90,0,0,,1,,,73,127
26774,note_off,40,0,0,,1,,,85,127
26810,note_off,36,0,0,,10,,,57,127
26822,note_off,12,0,0,,1,,,73,127
26825,note_on,3,0,0,,1,,,73,127
26825,note_on,0,0,0,,7,,,55,127
26913,note_off,88,0,0,,1,,,73,127
26915,note_on,2,0,0,,1,,,73,127
26991,note_off,76,0,0,,7,,,55,127
27003,note_off,12,0,0,,1,,,73,127
27005,note_on,2,0,0,,2,,,86,127
27005,note_on,0,0,0,,6,,,54,127
27095,note_on,90,0,0,,2,,,74,127
27135,note_off,40,0,0,,2,,,86,127
27171,note_off,36,0,0,,6,,,54,127
27183,note_off,12,0,0,,2,,,74,127
27185,note_on,2,0,0,,2,,,74,127
27185,note_on,0,0,0,,2,,,50,127
27273,note_off,88,0,0,,2,,,74,127
27275,note_on,2,0,0,,2,,,74,127
27351,note_off,76,0,0,,2,,,50,127
27363,note_off,12,0,0,,2,,,74,127
27365,note_on,2,0,0,,4,,,76,127
27365,note_on,0,0,0,,7,,,55,127
27446,note_off,81,0,0,,4,,,76,127
27456,note_on,10,0,0,,12,,,83,127
27532,note_off,76,0,0,,7,,,55,127
27537,note_off,5,0,0,,12,,,83,127
27548,note_on,11,0,0,,7,,,79,127
27548,note_on,0,0,0,,4,,,52,127
27629,note_off,81,0,0,,7,,,79,127
27639,note_on,10,0,0,,4,,,76,127
27715,note_off,76,0,0,,4,,,52,127
27720,note_off,5,0,0,,4,,,76,127
27730,note_on,10,0,0,,6,,,78,127
27730,note_on,0,0,0,,10,,,57,127
27811,note_off,81,0,0,,6,,,78,127
27821,note_on,10,0,0,,10,,,81,127
27902,note_off,81,0,0,,10,,,81,127
27912,note_on,10,0,0,,2,,,74,127
27912,note_on,0,0,0,,10,,,45,127
27993,note_off,81,0,0,,2,,,74,127
28003,note_on,10,0,0,,1,,,73,127
28078,note_off,75,0,0,,10,,,57,127
28079,note_off,1,0,0,,10,,,45,127
28084,note_off,5,0,0,,1,,,73,127
28103,note_on,19,0,0,,2,,,50,127
28103,note_on,0,0,0,,2,,,74,127
28203,note_on,100,0,0,,2,,,86,127
28275,note_off,72,0,0,,2,,,50,127
28291,note_off,16,0,0,,2,,,86,127
28295,note_on,4,0,0,,2,,,62,127
28295,note_on,0,0,0,,6,,,78,127
28362,note_off,67,0,0,,2,,,74,127
28383,note_off,21,0,0,,6,,,78,127
28387,note_on,4,0,0,,10,,,81,127
28467,note_off,80,0,0,,2,,,62,127
28476,note_off,9,0,0,,10,,,81,127
28480,note_on,4,0,0,,4,,,64,127
28480,note_on,0,0,0,,10,,,81,127
28568,note_off,88,0,0,,10,,,81,127
28572,note_on,4,0,0,,7,,,79,127
28652,note_off,80,0,0,,4,,,64,127
28661,note_off,9,0,0,,7,,,79,127
28665,note_on,4,0,0,,10,,,57,127
28665,note_on,0,0,0,,7,,,79,127
28753,note_off,88,0,0,,7,,,79,127
28757,note_on,4,0,0,,4,,,76,127
28837,note_off,80,0,0,,10,,,57,127
28846,note_off,9,0,0,,4,,,76,127
28850,note_on,4,0,0,,2,,,50,127
28850,note_on,0,0,0,,6,,,78,127
28942,note_on,92,0,0,,2,,,86,127
29022,note_off,80,0,0,,2,,,50,127
29031,note_off,9,0,0,,2,,,86,127
29033,note_off,2,0,0,,6,,,78,127
29035,note_on,2,0,0,,2,,,62,127
29035,note_on,0,0,0,,6,,,78,127
29123,note_off,88,0,0,,6,,,78,127
29127,note_on,4,0,0,,10,,,81,127
29207,note_off,80,0,0,,2,,,62,127
29216,note_off,9,0,0,,10,,,81,127
29220,note_on,4,0,0,,4,,,64,127
29220,note_on,0,0,0,,10,,,81,127
29308,note_off,88,0,0,,10,,,81,127
29312,note_on,4,0,0,,7,,,79,127
29392,note_off,80,0,0,,4,,,64,127
29401,note_off,9,0,0,,7,,,79,127
29405,note_on,4,0,0,,10,,,57,127
29405,note_on,0,0,0,,7,,,79,127
29493,note_off,88,0,0,,7,,,79,127
29497,note_on,4,0,0,,4,,,76,127
29577,note_off,80,0,0,,10,,,57,127
29586,note_off,9,0,0,,4,,,76,127
29590,note_on,4,0,0,,2,,,50,127
29590,note_on,0,0,0,,6,,,78,127
29682,note_on,92,0,0,,2,,,74,127
29705,note_off,23,0,0,,6,,,78,127
29762,note_off,57,0,0,,2,,,50,127
29771,note_off,9,0,0,,2,,,74,127
29775,note_on,4,0,0,,6,,,54,127
29775,note_on,0,0,0,,6,,,66,127
29863,note_off,88,0,0,,6,,,66,127
29867,note_on,4,0,0,,10,,,69,127
29947,note_off,80,0,0,,6,,,54,127
29956,note_off,9,0,0,,10,,,69,127
29960,note_on,4,0,0,,4,,,52,127
29960,note_on,0,0,0,,10,,,69,127
30048,note_off,88,0,0,,10,,,69,127
30052,note_on,4,0,0,,7,,,67,127
30132,note_off,80,0,0,,4,,,52,127
30141,note_off,9,0,0,,7,,,67,127
30145,note_on,4,0,0,,10,,,45,127
30145,note_on,0,0,0,,7,,,67,127
30233,note_off,88,0,0,,7,,,67,127
30237,note_on,4,0,0,,4,,,64,127
30317,note_off,80,0,0,,10,,,45,127
30326,note_off,9,0,0,,4,,,64,127
30330,note_on,4,0,0,,2,,,38,127
30330,note_on,0,0,0,,6,,,66,127
30422,note_on,92,0,0,,2,,,74,127
30493,note_off,71,0,0,,6,,,66,127
30502,note_off,9,0,0,,2,,,38,127
30511,note_off,9,0,0,,2,,,74,127
30515,note_on,4,0,0,,2,,,50,127
30515,note_on,0,0,0,,6,,,66,127
30603,note_off,88,0,0,,6,,,66,127
30607,note_on,4,0,0,,10,,,69,127
30687,note_off,80,0,0,,2,,,50,127
30696,note_off,9,0,0,,10,,,69,127
30700,note_on,4,0,0,,4,,,52,127
30700,note_on,0,0,0,,10,,,69,127
30788,note_off,88,0,0,,10,,,69,127
30792,note_on,4,0,0,,7,,,67,127
30872,note_off,80,0,0,,4,,,52,127
30881,note_off,9,0,0,,7,,,67,127
30885,note_on,4,0,0,,10,,,45,127
30885,note_on,0,0,0,,7,,,67,127
30973,note_off,88,0,0,,7,,,67,127
30977,note_on,4,0,0,,4,,,64,127
31057,note_off,80,0,0,,10,,,45,127
31066,note_off,9,0,0,,4,,,64,127
31070,note_on,4,0,0,,2,,,50,127
31070,note_on,0,0,0,,6,,,66,127
31162,note_on,92,0,0,,2,,,74,127
31208,note_off,46,0,0,,6,,,66,127
31242,note_off,34,0,0,,2,,,50,127
31251,note_off,9,0,0,,2,,,74,127
31255,note_on,4,0,0,,7,,,43,127
31255,note_on,0,0,0,,12,,,71,127
31343,note_off,88,0,0,,12,,,71,127
31347,note_on,4,0,0,,7,,,67,127
31427,note_off,80,0,0,,7,,,43,127
31436,note_off,9,0,0,,7,,,67,127
31440,note_on,4,0,0,,10,,,45,127
31440,note_on,0,0,0,,6,,,66,127
31528,note_off,88,0,0,,6,,,66,127
31532,note_on,4,0,0,,2,,,74,127
31612,note_off,80,0,0,,10,,,45,127
31621,note_off,9,0,0,,2,,,74,127
31625,note_on,4,0,0,,10,,,45,127
31625,note_on,0,0,0,,4,,,64,127
31713,note_off,88,0,0,,4,,,64,127
31717,note_on,4,0,0,,1,,,73,127
31797,note_off,80,0,0,,10,,,45,127
31806,note_off,9,0,0,,1,,,73,127
31810,note_on,4,0,0,,2,,,74,127
31810,note_on,0,0,0,,2,,,38,127
31898,note_off,88,0,0,,2,,,74,127
31907,note_on,9,0,0,,10,,,69,127
31995,note_off,88,0,0,,10,,,69,127
32003,note_on,8,0,0,,6,,,66,127
32091,note_off,88,0,0,,6,,,66,127
32100,note_on,9,0,0,,2,,,62,127
32188,note_off,88,0,0,,2,,,62,127
32197,note_on,9,0,0,,4,,,64,127
32271,note_off,74,0,0,,2,,,38,127
32285,note_off,14,0,0,,4,,,64,127
32294,note_on,9,0,0,,7,,,67,127
32382,note_off,88,0,0,,7,,,67,127
32391,note_on,9,0,0,,10,,,69,127
32479,note_off,88,0,0,,10,,,69,127
32487,note_on,8,0,0,,1,,,73,127
32575,note_off,88,0,0,,1,,,73,127
32584,note_on,9,0,0,,6,,,42,127
32584,note_on,0,0,0,,2,,,38,127
32584,note_on,0,0,0,,2,,,50,127
32584,note_on,0,0,0,,10,,,45,127
32584,note_on,0,0,0,,2,,,74,127
32672,note_off,88,0,0,,2,,,74,127
32682,note_on,10,0,0,,10,,,69,127
32770,note_off,88,0,0,,10,,,69,127
32780,note_on,10,0,0,,6,,,66,127
32868,note_off,88,0,0,,6,,,66,127
32878,note_on,10,0,0,,2,,,62,127
32966,note_off,88,0,0,,2,,,62,127
32975,note_on,9,0,0,,4,,,64,127
33063,note_off,88,0,0,,4,,,64,127
33073,note_on,10,0,0,,7,,,67,127
33161,note_off,88,0,0,,7,,,67,127
33171,note_on,10,0,0,,10,,,69,127
33259,note_off,88,0,0,,10,,,69,127
33278,note_on,19,0,0,,1,,,73,127
33300,note_off,22,0,0,,10,,,45,127
33300,note_off,0,0,0,,2,,,50,127
33300,note_off,0,0,0,,2,,,38,127
33300,note_off,0,0,0,,6,,,42,127
33366,note_off,66,0,0,,1,,,73,127
33366,note_on,0,0,0,,2,,,38,127
33366,note_on,0,0,0,,10,,,45,127
33366,note_on,0,0,0,,6,,,42,127
33366,note_on,0,0,0,,2,,,50,127
33366,note_on,0,0,0,,2,,,74,127
33417,note_on,51,0,0,,10,,,69,127
33422,note_off,5,0,0,,2,,,74,127
33470,note_on,48,0,0,,6,,,66,127
33471,note_off,1,0,0,,10,,,69,127
33521,note_on,50,0,0,,2,,,62,127
33524,note_off,3,0,0,,6,,,66,127
33573,note_on,49,0,0,,4,,,64,127
33575,note_off,2,0,0,,2,,,62,127
33661,note_off,86,0,0,,4,,,64,127
33691,note_on,30,0,0,,1,,,73,127
33754,note_off,63,0,0,,2,,,50,127
33754,note_off,0,0,0,,6,,,42,127
33754,note_off,0,0,0,,10,,,45,127
33754,note_off,0,0,0,,2,,,38,127
33779,note_off,25,0,0,,1,,,73,127
33780,note_on,1,0,0,,2,,,74,127
33780,note_on,0,0,0,,10,,,45,127
33780,note_on,0,0,0,,2,,,50,127
33780,note_on,0,0,0,,2,,,38,127
33780,note_on,0,0,0,,6,,,42,127
33834,note_on,54,0,0,,10,,,69,127
33838,note_off,4,0,0,,2,,,74,127
33890,note_off,52,0,0,,10,,,69,127
33890,note_on,0,0,0,,6,,,66,127
33944,note_on,54,0,0,,2,,,62,127
33946,note_off,2,0,0,,6,,,66,127
34000,note_off,54,0,0,,2,,,62,127
34009,note_on,9,0,0,,4,,,64,127
34112,note_off,103,0,0,,4,,,64,127
34123,note_on,11,0,0,,1,,,73,127
34189,note_off,66,0,0,,6,,,42,127
34189,note_off,0,0,0,,2,,,38,127
34189,note_off,0,0,0,,2,,,50,127
34189,note_off,0,0,0,,10,,,45,127
34206,note_off,17,0,0,,1,,,73,127
34220,note_on,14,0,0,,1,,,73,127
34220,note_on,0,0,0,,2,,,50,127
34220,note_on,0,0,0,,6,,,42,127
34220,note_on,0,0,0,,10,,,45,127
34220,note_on,0,0,0,,2,,,38,127
34711,note_off,491,0,0,,1,,,73,127
34724,note_on,13,0,0,,2,,,74,127
35050,note_off,326,0,0,,2,,,38,127
35050,note_off,0,0,0,,10,,,45,127
35050,note_off,0,0,0,,6,,,42,127
35050,note_off,0,0,0,,2,,,50,127
35267,note_on,217,0,0,,2,,,62,127
35267,note_on,0,0,0,,10,,,81,127
35271,note_off,4,0,0,,2,,,74,127
35439,note_off,168,0,0,,2,,,62,127
35457,note_on,18,0,0,,4,,,64,127
35457,note_on,0,0,0,,10,,,69,127
35629,note_off,172,0,0,,4,,,64,127
35631,note_off,2,0,0,,10,,,81,127
35642,note_on,11,0,0,,6,,,66,127
35686,note_off,44,0,0,,10,,,69,127
35734,note_on,48,0,0,,10,,,69,127
35814,note_off,80,0,0,,6,,,66,127
35823,note_off,9,0,0,,10,,,69,127
35827,note_on,4,0,0,,7,,,67,127
35827,note_on,0,0,0,,12,,,71,127
35915,note_off,88,0,0,,12,,,71,127
35915,note_off,0,0,0,,7,,,67,127
35919,note_on,4,0,0,,7,,,67,127
36007,note_off,88,0,0,,7,,,67,127
36011,note_on,4,0,0,,2,,,62,127
36011,note_on,0,0,0,,10,,,81,127
36183,note_off,172,0,0,,2,,,62,127
36195,note_on,12,0,0,,4,,,64,127
36195,note_on,0,0,0,,10,,,69,127
36367,note_off,172,0,0,,4,,,64,127
36375,note_off,8,0,0,,10,,,81,127
36380,note_on,5,0,0,,6,,,66,127
36424,note_off,44,0,0,,10,,,69,127
36472,note_on,48,0,0,,10,,,69,127
36552,note_off,80,0,0,,6,,,66,127
36561,note_off,9,0,0,,10,,,69,127
36565,note_on,4,0,0,,7,,,67,127
36565,note_on,0,0,0,,12,,,71,127
36653,note_off,88,0,0,,12,,,71,127
36653,note_off,0,0,0,,7,,,67,127
36657,note_on,4,0,0,,7,,,67,127
36745,note_off,88,0,0,,7,,,67,127
36749,note_on,4,0,0,,2,,,62,127
36749,note_on,0,0,0,,6,,,66,127
36749,note_on,0,0,0,,10,,,81,127
36841,note_on,92,0,0,,10,,,69,127
36921,note_off,80,0,0,,6,,,66,127
36930,note_off,9,0,0,,10,,,69,127
36934,note_on,4,0,0,,7,,,67,127
36934,note_on,0,0,0,,12,,,71,127
37022,note_off,88,0,0,,12,,,71,127
37022,note_off,0,0,0,,7,,,67,127
37026,note_on,4,0,0,,7,,,67,127
37106,note_off,80,0,0,,2,,,62,127
37111,note_off,5,0,0,,10,,,81,127
37115,note_off,4,0,0,,7,,,67,127
37119,note_on,4,0,0,,6,,,66,127
37119,note_on,0,0,0,,2,,,62,127
37119,note_on,0,0,0,,10,,,81,127
37211,note_on,92,0,0,,10,,,69,127
37291,note_off,80,0,0,,6,,,66,127
37300,note_off,9,0,0,,10,,,69,127
37304,note_on,4,0,0,,7,,,67,127
37304,note_on,0,0,0,,12,,,71,127
37392,note_off,88,0,0,,12,,,71,127
37392,note_off,0,0,0,,7,,,67,127
37396,note_on,4,0,0,,7,,,67,127
37476,note_off,80,0,0,,2,,,62,127
37481,note_off,5,0,0,,10,,,81,127
37485,note_off,4,0,0,,7,,,67,127
37489,note_on,4,0,0,,6,,,66,127
37489,note_on,0,0,0,,2,,,62,127
37489,note_on,0,0,0,,10,,,81,127
37577,note_off,88,0,0,,10,,,81,127
37581,note_on,4,0,0,,7,,,79,127
37669,note_off,88,0,0,,7,,,79,127
37673,note_on,4,0,0,,7,,,79,127
37761,note_off,88,0,0,,7,,,79,127
37765,note_on,4,0,0,,6,,,78,127
37845,note_off,80,0,0,,2,,,62,127
37845,note_off,0,0,0,,6,,,66,127
37854,note_off,9,0,0,,6,,,78,127
37858,note_on,4,0,0,,0,,,60,127
37858,note_on,0,0,0,,10,,,69,127
37858,note_on,0,0,0,,4,,,64,127
37858,note_on,0,0,0,,6,,,78,127
37946,note_off,88,0,0,,6,,,78,127
37950,note_on,4,0,0,,4,,,76,127
38038,note_off,88,0,0,,4,,,76,127
38042,note_on,4,0,0,,4,,,76,127
38131,note_off,89,0,0,,4,,,76,127
38134,note_on,3,0,0,,3,,,75,127
38232,note_off,98,0,0,,4,,,64,127
38232,note_off,0,0,0,,10,,,69,127
38232,note_off,0,0,0,,0,,,60,127
38256,note_off,24,0,0,,3,,,75,127
38259,note_on,3,0,0,,12,,,83,127
38259,note_on,0,0,0,,6,,,66,127
38259,note_on,0,0,0,,12,,,59,127
38431,note_off,172,0,0,,12,,,59,127
38446,note_on,15,0,0,,3,,,63,127
38446,note_on,0,0,0,,12,,,71,127
38615,note_off,169,0,0,,6,,,66,127
38618,note_off,3,0,0,,3,,,63,127
38623,note_off,5,0,0,,12,,,83,127
38635,note_on,12,0,0,,7,,,67,127
38635,note_on,0,0,0,,4,,,64,127
38675,note_off,40,0,0,,12,,,71,127
38729,note_on,54,0,0,,12,,,71,127
38817,note_off,88,0,0,,12,,,71,127
38823,note_on,6,0,0,,0,,,72,127
38911,note_off,88,0,0,,0,,,72,127
38917,note_on,6,0,0,,10,,,69,127
38991,note_off,74,0,0,,4,,,64,127
38991,note_off,0,0,0,,7,,,67,127
39005,note_off,14,0,0,,10,,,69,127
39011,note_on,6,0,0,,12,,,59,127
39011,note_on,0,0,0,,6,,,66,127
39011,note_on,0,0,0,,12,,,83,127
39183,note_off,172,0,0,,12,,,59,127
39199,note_on,16,0,0,,3,,,63,127
39199,note_on,0,0,0,,12,,,71,127
39367,note_off,168,0,0,,6,,,66,127
39371,note_off,4,0,0,,3,,,63,127
39375,note_off,4,0,0,,12,,,83,127
39387,note_on,12,0,0,,4,,,64,127
39387,note_on,0,0,0,,7,,,67,127
39428,note_off,41,0,0,,12,,,71,127
39481,note_on,53,0,0,,12,,,71,127
39569,note_off,88,0,0,,12,,,71,127
39575,note_on,6,0,0,,0,,,72,127
39663,note_off,88,0,0,,0,,,72,127
39669,note_on,6,0,0,,10,,,69,127
39743,note_off,74,0,0,,7,,,67,127
39743,note_off,0,0,0,,4,,,64,127
39757,note_off,14,0,0,,10,,,69,127
39763,note_on,6,0,0,,6,,,66,127
39763,note_on,0,0,0,,3,,,63,127
39763,note_on,0,0,0,,12,,,83,127
39857,note_on,94,0,0,,12,,,71,127
39935,note_off,78,0,0,,3,,,63,127
39935,note_off,0,0,0,,6,,,66,127
39946,note_off,11,0,0,,12,,,71,127
39952,note_on,6,0,0,,7,,,67,127
39952,note_on,0,0,0,,4,,,64,127
39952,note_on,0,0,0,,0,,,72,127
40029,note_off,77,0,0,,12,,,83,127
40041,note_off,12,0,0,,0,,,72,127
40047,note_on,6,0,0,,10,,,69,127
40125,note_off,78,0,0,,4,,,64,127
40125,note_off,0,0,0,,7,,,67,127
40136,note_off,11,0,0,,10,,,69,127
40142,note_on,6,0,0,,6,,,66,127
40142,note_on,0,0,0,,3,,,63,127
40142,note_on,0,0,0,,12,,,83,127
40240,note_on,98,0,0,,12,,,71,127
40314,note_off,74,0,0,,3,,,63,127
40314,note_off,0,0,0,,6,,,66,127
40328,note_off,14,0,0,,12,,,71,127
40332,note_on,4,0,0,,0,,,72,127
40332,note_on,0,0,0,,7,,,67,127
40332,note_on,0,0,0,,4,,,64,127
40407,note_off,75,0,0,,12,,,83,127
40420,note_off,13,0,0,,0,,,72,127
40424,note_on,4,0,0,,10,,,69,127
40504,note_off,80,0,0,,4,,,64,127
40504,note_off,0,0,0,,7,,,67,127
40513,note_off,9,0,0,,10,,,69,127
40517,note_on,4,0,0,,12,,,83,127
40517,note_on,0,0,0,,6,,,66,127
40517,note_on,0,0,0,,3,,,63,127
40605,note_off,88,0,0,,12,,,83,127
40609,note_on,4,0,0,,10,,,81,127
40689,note_off,80,0,0,,3,,,63,127
40689,note_off,0,0,0,,6,,,66,127
40698,note_off,9,0,0,,10,,,81,127
40702,note_on,4,0,0,,10,,,81,127
40702,note_on,0,0,0,,12,,,59,127
40702,note_on,0,0,0,,12,,,71,127
40790,note_off,88,0,0,,10,,,81,127
40794,note_on,4,0,0,,8,,,80,127
40874,note_off,80,0,0,,12,,,59,127
40883,note_off,9,0,0,,8,,,80,127
40887,note_on,4,0,0,,8,,,80,127
40887,note_on,0,0,0,,4,,,64,127
40975,note_off,88,0,0,,8,,,80,127
40979,note_on,4,0,0,,5,,,77,127
41059,note_off,80,0,0,,4,,,64,127
41068,note_off,9,0,0,,5,,,77,127
41072,note_on,4,0,0,,5,,,77,127
41072,note_on,0,0,0,,2,,,62,127
41160,note_off,88,0,0,,5,,,77,127
41164,note_on,4,0,0,,4,,,76,127
41244,note_off,80,0,0,,2,,,62,127
41253,note_off,9,0,0,,4,,,76,127
41257,note_on,4,0,0,,4,,,76,127
41257,note_on,0,0,0,,0,,,60,127
41345,note_off,88,0,0,,4,,,76,127
41349,note_on,4,0,0,,2,,,74,127
41429,note_off,80,0,0,,12,,,71,127
41438,note_off,9,0,0,,2,,,74,127
41442,note_on,4,0,0,,2,,,74,127
41442,note_on,0,0,0,,10,,,69,127
41530,note_off,88,0,0,,2,,,74,127
41534,note_on,4,0,0,,0,,,72,127
41622,note_off,88,0,0,,0,,,72,127
41626,note_on,4,0,0,,0,,,72,127
41714,note_off,88,0,0,,0,,,72,127
41718,note_on,4,0,0,,12,,,71,127
41798,note_off,80,0,0,,10,,,69,127
41798,note_off,0,0,0,,0,,,60,127
41807,note_off,9,0,0,,12,,,71,127
41811,note_on,4,0,0,,12,,,71,127
41811,note_on,0,0,0,,2,,,62,127
41899,note_off,88,0,0,,12,,,71,127
41903,note_on,4,0,0,,10,,,69,127
41983,note_off,80,0,0,,2,,,62,127
41992,note_off,9,0,0,,10,,,69,127
41996,note_on,4,0,0,,8,,,68,127
41996,note_on,0,0,0,,4,,,64,127
42084,note_off,88,0,0,,4,,,64,127
42101,note_on,17,0,0,,2,,,62,127
42178,note_off,77,0,0,,8,,,68,127
42190,note_off,12,0,0,,2,,,62,127
42194,note_on,4,0,0,,2,,,62,127
42282,note_off,88,0,0,,2,,,62,127
42286,note_on,4,0,0,,0,,,60,127
42366,note_off,80,0,0,,0,,,60,127
42378,note_on,12,0,0,,0,,,60,127
42458,note_off,80,0,0,,0,,,60,127
42470,note_on,12,0,0,,12,,,59,127
42550,note_off,80,0,0,,12,,,59,127
42562,note_on,12,0,0,,12,,,59,127
42642,note_off,80,0,0,,12,,,59,127
42654,note_on,12,0,0,,10,,,57,127
42734,note_off,80,0,0,,10,,,57,127
42746,note_on,12,0,0,,8,,,56,127
42746,note_on,0,0,0,,4,,,76,127
42834,note_off,88,0,0,,4,,,76,127
42838,note_on,4,0,0,,2,,,74,127
42926,note_off,88,0,0,,2,,,74,127
42930,note_on,4,0,0,,2,,,74,127
43018,note_off,88,0,0,,2,,,74,127
43022,note_on,4,0,0,,0,,,72,127
43102,note_off,80,0,0,,8,,,56,127
43111,note_off,9,0,0,,0,,,72,127
43115,note_on,4,0,0,,10,,,57,127
43115,note_on,0,0,0,,0,,,72,127
43203,note_off,88,0,0,,0,,,72,127
43207,note_on,4,0,0,,12,,,71,127
43295,note_off,88,0,0,,12,,,71,127
43299,note_on,4,0,0,,12,,,71,127
43387,note_off,88,0,0,,12,,,71,127
43391,note_on,4,0,0,,10,,,69,127
43471,note_off,80,0,0,,10,,,57,127
43480,note_off,9,0,0,,10,,,69,127
43484,note_on,4,0,0,,4,,,52,127
43484,note_on,0,0,0,,8,,,68,127
43575,note_off,91,0,0,,8,,,68,127
43584,note_on,9,0,0,,4,,,64,127
43675,note_off,91,0,0,,4,,,64,127
43676,note_on,1,0,0,,4,,,40,127
43676,note_on,0,0,0,,4,,,64,127
43767,note_off,91,0,0,,4,,,64,127
43768,note_on,1,0,0,,4,,,64,127
43840,note_off,72,0,0,,4,,,52,127
43848,note_off,8,0,0,,4,,,40,127
43860,note_off,12,0,0,,4,,,64,127
43861,note_on,1,0,0,,4,,,52,127
43861,note_on,0,0,0,,4,,,64,127
43952,note_off,91,0,0,,4,,,64,127
43953,note_on,1,0,0,,4,,,64,127
44033,note_off,80,0,0,,4,,,52,127
44045,note_off,12,0,0,,4,,,64,127
44046,note_on,1,0,0,,2,,,50,127
44046,note_on,0,0,0,,4,,,64,127
44137,note_off,91,0,0,,4,,,64,127
44144,note_on,7,0,0,,4,,,64,127
44218,note_off,74,0,0,,2,,,50,127
44230,note_on,12,0,0,,4,,,52,127
44230,note_on,0,0,0,,0,,,48,127
44230,note_on,0,0,0,,10,,,69,127
44233,note_off,3,0,0,,4,,,64,127
44334,note_on,101,0,0,,4,,,64,127
44402,note_off,68,0,0,,0,,,48,127
44425,note_off,23,0,0,,4,,,64,127
44426,note_on,1,0,0,,12,,,47,127
44426,note_on,0,0,0,,4,,,64,127
44495,note_off,69,0,0,,10,,,69,127
44517,note_off,22,0,0,,4,,,64,127
44518,note_on,1,0,0,,4,,,64,127
44598,note_off,80,0,0,,12,,,47,127
44610,note_off,12,0,0,,4,,,64,127
44611,note_on,1,0,0,,0,,,48,127
44611,note_on,0,0,0,,4,,,64,127
44702,note_off,91,0,0,,4,,,64,127
44703,note_on,1,0,0,,4,,,64,127
44783,note_off,80,0,0,,0,,,48,127
44795,note_off,12,0,0,,4,,,64,127
44796,note_on,1,0,0,,10,,,45,127
44796,note_on,0,0,0,,4,,,64,127
44887,note_off,91,0,0,,4,,,64,127
44888,note_on,1,0,0,,4,,,64,127
44956,note_off,68,0,0,,4,,,52,127
44968,note_off,12,0,0,,10,,,45,127
44980,note_on,12,0,0,,8,,,44,127
44980,note_on,0,0,0,,4,,,52,127
44980,note_on,0,0,0,,12,,,71,127
45070,note_off,90,0,0,,4,,,64,127
45072,note_on,2,0,0,,4,,,64,127
45152,note_off,80,0,0,,8,,,44,127
45164,note_off,12,0,0,,4,,,64,127
45165,note_on,1,0,0,,6,,,42,127
45165,note_on,0,0,0,,4,,,64,127
45246,note_off,81,0,0,,12,,,71,127
45257,note_off,11,0,0,,4,,,64,127
45258,note_on,1,0,0,,4,,,64,127
45338,note_off,80,0,0,,6,,,42,127
45350,note_off,12,0,0,,4,,,64,127
45351,note_on,1,0,0,,8,,,44,127
45351,note_on,0,0,0,,4,,,64,127
45442,note_off,91,0,0,,4,,,64,127
45443,note_on,1,0,0,,4,,,64,127
45523,note_off,80,0,0,,8,,,44,127
45535,note_off,12,0,0,,4,,,64,127
45536,note_on,1,0,0,,4,,,40,127
45536,note_on,0,0,0,,4,,,64,127
45627,note_off,91,0,0,,4,,,64,127
45628,note_on,1,0,0,,4,,,64,127
45708,note_off,80,0,0,,4,,,40,127
45708,note_off,0,0,0,,4,,,52,127
45720,note_on,12,0,0,,10,,,57,127
45720,note_on,0,0,0,,0,,,72,127
45810,note_off,90,0,0,,4,,,64,127
45812,note_on,2,0,0,,4,,,64,127
45903,note_off,91,0,0,,4,,,64,127
45904,note_on,1,0,0,,10,,,45,127
45904,note_on,0,0,0,,4,,,64,127
45985,note_off,81,0,0,,0,,,72,127
45996,note_off,11,0,0,,4,,,64,127
45997,note_on,1,0,0,,4,,,64,127
46077,note_off,80,0,0,,10,,,45,127
46077,note_off,0,0,0,,10,,,57,127
46089,note_off,12,0,0,,4,,,64,127
46090,note_on,1,0,0,,10,,,57,127
46090,note_on,0,0,0,,4,,,64,127
46181,note_off,91,0,0,,4,,,64,127
46182,note_on,1,0,0,,4,,,64,127
46262,note_off,80,0,0,,10,,,57,127
46274,note_off,12,0,0,,4,,,64,127
46275,note_on,1,0,0,,7,,,55,127
46275,note_on,0,0,0,,4,,,64,127
46366,note_off,91,0,0,,4,,,64,127
46367,note_on,1,0,0,,4,,,64,127
46434,note_off,67,0,0,,4,,,64,127
46446,note_off,12,0,0,,7,,,55,127
46458,note_on,12,0,0,,5,,,41,127
46458,note_on,0,0,0,,0,,,72,127
46550,note_on,92,0,0,,5,,,65,127
46630,note_off,80,0,0,,5,,,41,127
46642,note_off,12,0,0,,5,,,65,127
46643,note_on,1,0,0,,5,,,53,127
46643,note_on,0,0,0,,5,,,65,127
46724,note_off,81,0,0,,0,,,72,127
46735,note_off,11,0,0,,5,,,65,127
46736,note_on,1,0,0,,5,,,65,127
46816,note_off,80,0,0,,5,,,53,127
46828,note_off,12,0,0,,5,,,65,127
46829,note_on,1,0,0,,4,,,52,127
46829,note_on,0,0,0,,5,,,65,127
46920,note_off,91,0,0,,5,,,65,127
46921,note_on,1,0,0,,5,,,65,127
47001,note_off,80,0,0,,4,,,52,127
47013,note_off,12,0,0,,5,,,65,127
47014,note_on,1,0,0,,2,,,50,127
47014,note_on,0,0,0,,5,,,65,127
47105,note_off,91,0,0,,5,,,65,127
47106,note_on,1,0,0,,5,,,65,127
47173,note_off,67,0,0,,5,,,65,127
47185,note_off,12,0,0,,2,,,50,127
47197,note_on,12,0,0,,0,,,48,127
47197,note_on,0,0,0,,4,,,76,127
47289,note_on,92,0,0,,7,,,67,127
47369,note_off,80,0,0,,0,,,48,127
47381,note_off,12,0,0,,7,,,67,127
47382,note_on,1,0,0,,0,,,60,127
47382,note_on,0,0,0,,7,,,67,127
47466,note_off,84,0,0,,4,,,76,127
47474,note_off,8,0,0,,7,,,67,127
47475,note_on,1,0,0,,7,,,67,127
47555,note_off,80,0,0,,0,,,60,127
47567,note_off,12,0,0,,7,,,67,127
47568,note_on,1,0,0,,4,,,52,127
47568,note_on,0,0,0,,7,,,67,127
47659,note_off,91,0,0,,7,,,67,127
47660,note_on,1,0,0,,7,,,67,127
47740,note_off,80,0,0,,4,,,52,127
47752,note_off,12,0,0,,7,,,67,127
47753,note_on,1,0,0,,0,,,48,127
47753,note_on,0,0,0,,7,,,67,127
47844,note_off,91,0,0,,7,,,67,127
47845,note_on,1,0,0,,7,,,67,127
47912,note_off,67,0,0,,7,,,67,127
47924,note_off,12,0,0,,0,,,48,127
47936,note_on,12,0,0,,7,,,43,127
47936,note_on,0,0,0,,7,,,79,127
48028,note_on,92,0,0,,11,,,70,127
48108,note_off,80,0,0,,7,,,43,127
48120,note_off,12,0,0,,11,,,70,127
48121,note_on,1,0,0,,7,,,55,127
48121,note_on,0,0,0,,11,,,70,127
48208,note_off,87,0,0,,7,,,79,127
48212,note_off,4,0,0,,11,,,70,127
48213,note_on,1,0,0,,11,,,70,127
48293,note_off,80,0,0,,7,,,55,127
48305,note_off,12,0,0,,11,,,70,127
48306,note_on,1,0,0,,7,,,55,127
48306,note_on,0,0,0,,11,,,70,127
48397,note_off,91,0,0,,11,,,70,127
48398,note_on,1,0,0,,11,,,70,127
48478,note_off,80,0,0,,7,,,55,127
48490,note_off,12,0,0,,11,,,70,127
48491,note_on,1,0,0,,5,,,53,127
48491,note_on,0,0,0,,11,,,70,127
48582,note_off,91,0,0,,11,,,70,127
48583,note_on,1,0,0,,11,,,70,127
48663,note_off,80,0,0,,5,,,53,127
48675,note_on,12,0,0,,3,,,39,127
48675,note_on,0,0,0,,7,,,79,127
48765,note_off,90,0,0,,11,,,70,127
48767,note_on,2,0,0,,11,,,70,127
48847,note_off,80,0,0,,3,,,39,127
48859,note_off,12,0,0,,11,,,70,127
48860,note_on,1,0,0,,3,,,51,127
48860,note_on,0,0,0,,11,,,70,127
48947,note_off,87,0,0,,7,,,79,127
48951,note_off,4,0,0,,11,,,70,127
48952,note_on,1,0,0,,11,,,70,127
49032,note_off,80,0,0,,3,,,51,127
49044,note_off,12,0,0,,11,,,70,127
49045,note_on,1,0,0,,7,,,55,127
49045,note_on,0,0,0,,11,,,70,127
49136,note_off,91,0,0,,11,,,70,127
49137,note_on,1,0,0,,11,,,70,127
49217,note_off,80,0,0,,7,,,55,127
49229,note_off,12,0,0,,11,,,70,127
49230,note_on,1,0,0,,3,,,51,127
49230,note_on,0,0,0,,11,,,70,127
49321,note_off,91,0,0,,11,,,70,127
49322,note_on,1,0,0,,11,,,70,127
49389,note_off,67,0,0,,11,,,70,127
49401,note_off,12,0,0,,3,,,51,127
49413,note_on,12,0,0,,11,,,46,127
49413,note_on,0,0,0,,11,,,82,127
49505,note_on,92,0,0,,2,,,74,127
49585,note_off,80,0,0,,11,,,46,127
49597,note_off,12,0,0,,2,,,74,127
49598,note_on,1,0,0,,11,,,58,127
49598,note_on,0,0,0,,2,,,74,127
49686,note_off,88,0,0,,11,,,82,127
49689,note_off,3,0,0,,2,,,74,127
49690,note_on,1,0,0,,2,,,74,127
49770,note_off,80,0,0,,11,,,58,127
49782,note_off,12,0,0,,2,,,74,127
49783,note_on,1,0,0,,2,,,62,127
49783,note_on,0,0,0,,2,,,74,127
49874,note_off,91,0,0,,2,,,74,127
49875,note_on,1,0,0,,2,,,74,127
49955,note_off,80,0,0,,2,,,62,127
49967,note_off,12,0,0,,2,,,74,127
49968,note_on,1,0,0,,11,,,58,127
49968,note_on,0,0,0,,2,,,74,127
50059,note_off,91,0,0,,2,,,74,127
50060,note_on,1,0,0,,2,,,74,127
50140,note_off,80,0,0,,11,,,58,127
50152,note_on,12,0,0,,11,,,46,127
50152,note_on,0,0,0,,11,,,82,127
50242,note_off,90,0,0,,2,,,74,127
50244,note_on,2,0,0,,2,,,74,127
50324,note_off,80,0,0,,11,,,46,127
50336,note_off,12,0,0,,2,,,74,127
50337,note_on,1,0,0,,8,,,56,127
50337,note_on,0,0,0,,2,,,74,127
50425,note_off,88,0,0,,11,,,82,127
50428,note_off,3,0,0,,2,,,74,127
50429,note_on,1,0,0,,2,,,74,127
50509,note_off,80,0,0,,8,,,56,127
50521,note_off,12,0,0,,2,,,74,127
50522,note_on,1,0,0,,7,,,55,127
50522,note_on,0,0,0,,2,,,74,127
50613,note_off,91,0,0,,2,,,74,127
50614,note_on,1,0,0,,2,,,74,127
50694,note_off,80,0,0,,7,,,55,127
50706,note_off,12,0,0,,2,,,74,127
50707,note_on,1,0,0,,5,,,53,127
50707,note_on,0,0,0,,2,,,74,127
50798,note_off,91,0,0,,2,,,74,127
50799,note_on,1,0,0,,2,,,74,127
50866,note_off,67,0,0,,2,,,74,127
50878,note_off,12,0,0,,5,,,53,127
50890,note_on,12,0,0,,3,,,51,127
50890,note_on,0,0,0,,3,,,87,127
50982,note_on,92,0,0,,7,,,79,127
51073,note_off,91,0,0,,7,,,79,127
51074,note_on,1,0,0,,3,,,39,127
51074,note_on,0,0,0,,7,,,79,127
51163,note_off,89,0,0,,3,,,87,127
51165,note_off,2,0,0,,7,,,79,127
51166,note_on,1,0,0,,7,,,79,127
51246,note_off,80,0,0,,3,,,39,127
51246,note_off,0,0,0,,3,,,51,127
51258,note_off,12,0,0,,7,,,79,127
51259,note_on,1,0,0,,3,,,51,127
51259,note_on,0,0,0,,7,,,79,127
51350,note_off,91,0,0,,7,,,79,127
51351,note_on,1,0,0,,7,,,79,127
51431,note_off,80,0,0,,3,,,51,127
51443,note_off,12,0,0,,7,,,79,127
51444,note_on,1,0,0,,2,,,50,127
51444,note_on,0,0,0,,7,,,79,127
51535,note_off,91,0,0,,7,,,79,127
51536,note_on,1,0,0,,7,,,79,127
51616,note_off,80,0,0,,2,,,50,127
51628,note_on,12,0,0,,0,,,48,127
51628,note_on,0,0,0,,3,,,87,127
51718,note_off,90,0,0,,7,,,79,127
51720,note_on,2,0,0,,7,,,79,127
51800,note_off,80,0,0,,0,,,48,127
51812,note_off,12,0,0,,7,,,79,127
51813,note_on,1,0,0,,2,,,50,127
51813,note_on,0,0,0,,7,,,79,127
51902,note_off,89,0,0,,3,,,87,127
51904,note_off,2,0,0,,7,,,79,127
51905,note_on,1,0,0,,7,,,79,127
51985,note_off,80,0,0,,2,,,50,127
51997,note_off,12,0,0,,7,,,79,127
51998,note_on,1,0,0,,3,,,51,127
51998,note_on,0,0,0,,7,,,79,127
52089,note_off,91,0,0,,7,,,79,127
52090,note_on,1,0,0,,7,,,79,127
52170,note_off,80,0,0,,3,,,51,127
52182,note_off,12,0,0,,7,,,79,127
52183,note_on,1,0,0,,0,,,48,127
52183,note_on,0,0,0,,7,,,79,127
52274,note_off,91,0,0,,7,,,79,127
52275,note_on,1,0,0,,7,,,79,127
52352,note_off,77,0,0,,7,,,79,127
52355,note_off,3,0,0,,0,,,48,127
52367,note_on,12,0,0,,5,,,53,127
52367,note_on,0,0,0,,2,,,86,127
52459,note_on,92,0,0,,5,,,77,127
52502,note_off,43,0,0,,2,,,86,127
52538,note_off,36,0,0,,5,,,53,127
52550,note_off,12,0,0,,5,,,77,127
52551,note_on,1,0,0,,7,,,55,127
52551,note_on,0,0,0,,5,,,77,127
52642,note_off,91,0,0,,5,,,77,127
52643,note_on,1,0,0,,5,,,77,127
52723,note_off,80,0,0,,7,,,55,127
52735,note_on,12,0,0,,8,,,56,127
52735,note_on,0,0,0,,0,,,84,127
52825,note_off,90,0,0,,5,,,77,127
52827,note_on,2,0,0,,5,,,77,127
52870,note_off,43,0,0,,0,,,84,127
52906,note_off,36,0,0,,8,,,56,127
52918,note_off,12,0,0,,5,,,77,127
52919,note_on,1,0,0,,5,,,53,127
52919,note_on,0,0,0,,5,,,77,127
53010,note_off,91,0,0,,5,,,77,127
53011,note_on,1,0,0,,5,,,77,127
53091,note_off,80,0,0,,5,,,53,127
53103,note_off,12,0,0,,5,,,77,127
53104,note_on,1,0,0,,7,,,55,127
53104,note_on,0,0,0,,12,,,83,127
53192,note_off,88,0,0,,12,,,83,127
53196,note_on,4,0,0,,8,,,80,127
53284,note_off,88,0,0,,8,,,80,127
53288,note_on,4,0,0,,7,,,43,127
53288,note_on,0,0,0,,7,,,79,127
53376,note_off,88,0,0,,7,,,79,127
53380,note_on,4,0,0,,5,,,77,127
53468,note_off,88,0,0,,5,,,77,127
53472,note_on,4,0,0,,3,,,75,127
53560,note_off,88,0,0,,3,,,75,127
53564,note_on,4,0,0,,2,,,74,127
53644,note_off,80,0,0,,7,,,43,127
53644,note_off,0,0,0,,7,,,55,127
53653,note_off,9,0,0,,2,,,74,127
53657,note_on,4,0,0,,0,,,72,127
53745,note_off,88,0,0,,0,,,72,127
53749,note_on,4,0,0,,12,,,71,127
53829,note_off,80,0,0,,12,,,71,127
53841,note_on,12,0,0,,0,,,48,127
53841,note_on,0,0,0,,0,,,60,127
53841,note_on,0,0,0,,0,,,84,127
53933,note_on,92,0,0,,0,,,72,127
54013,note_off,80,0,0,,0,,,48,127
54025,note_off,12,0,0,,0,,,72,127
54026,note_on,1,0,0,,2,,,50,127
54026,note_on,0,0,0,,0,,,72,127
54117,note_off,91,0,0,,0,,,72,127
54118,note_on,1,0,0,,0,,,72,127
54180,note_off,62,0,0,,2,,,50,127
54209,note_off,29,0,0,,0,,,72,127
54210,note_on,1,0,0,,4,,,52,127
54210,note_on,0,0,0,,0,,,72,127
54301,note_off,91,0,0,,0,,,72,127
54302,note_on,1,0,0,,0,,,72,127
54364,note_off,62,0,0,,4,,,52,127
54390,note_off,26,0,0,,0,,,84,127
54393,note_off,3,0,0,,0,,,72,127
54394,note_on,1,0,0,,0,,,48,127
54394,note_on,0,0,0,,0,,,72,127
54485,note_off,91,0,0,,0,,,72,127
54486,note_on,1,0,0,,0,,,72,127
54548,note_off,62,0,0,,0,,,48,127
54565,note_off,17,0,0,,0,,,60,127
54577,note_on,12,0,0,,5,,,53,127
54577,note_on,0,0,0,,0,,,60,127
54577,note_on,0,0,0,,0,,,84,127
54667,note_off,90,0,0,,0,,,72,127
54669,note_on,2,0,0,,0,,,72,127
54731,note_off,62,0,0,,5,,,53,127
54760,note_off,29,0,0,,0,,,72,127
54761,note_on,1,0,0,,7,,,55,127
54761,note_on,0,0,0,,0,,,72,127
54852,note_off,91,0,0,,0,,,72,127
54853,note_on,1,0,0,,0,,,72,127
54915,note_off,62,0,0,,7,,,55,127
54944,note_off,29,0,0,,0,,,72,127
54945,note_on,1,0,0,,8,,,56,127
54945,note_on,0,0,0,,0,,,72,127
55036,note_off,91,0,0,,0,,,72,127
55037,note_on,1,0,0,,0,,,72,127
55099,note_off,62,0,0,,8,,,56,127
55125,note_off,26,0,0,,0,,,84,127
55128,note_off,3,0,0,,0,,,72,127
55129,note_on,1,0,0,,5,,,53,127
55129,note_on,0,0,0,,0,,,72,127
55220,note_off,91,0,0,,0,,,72,127
55221,note_on,1,0,0,,0,,,72,127
55283,note_off,62,0,0,,5,,,53,127
55300,note_off,17,0,0,,0,,,60,127
55312,note_on,12,0,0,,4,,,52,127
55312,note_on,0,0,0,,0,,,60,127
55312,note_on,0,0,0,,0,,,84,127
55402,note_off,90,0,0,,0,,,72,127
55404,note_on,2,0,0,,0,,,72,127
55466,note_off,62,0,0,,4,,,52,127
55495,note_off,29,0,0,,0,,,72,127
55496,note_on,1,0,0,,2,,,50,127
55496,note_on,0,0,0,,0,,,72,127
55587,note_off,91,0,0,,0,,,72,127
55588,note_on,1,0,0,,0,,,72,127
55650,note_off,62,0,0,,2,,,50,127
55679,note_off,29,0,0,,0,,,72,127
55680,note_on,1,0,0,,4,,,52,127
55680,note_on,0,0,0,,0,,,72,127
55771,note_off,91,0,0,,0,,,72,127
55772,note_on,1,0,0,,0,,,72,127
55834,note_off,62,0,0,,4,,,52,127
55860,note_off,26,0,0,,0,,,84,127
55863,note_off,3,0,0,,0,,,72,127
55864,note_on,1,0,0,,0,,,48,127
55864,note_on,0,0,0,,0,,,72,127
55955,note_off,91,0,0,,0,,,72,127
55956,note_on,1,0,0,,0,,,72,127
56018,note_off,62,0,0,,0,,,48,127
56035,note_off,17,0,0,,0,,,60,127
56047,note_on,12,0,0,,5,,,53,127
56047,note_on,0,0,0,,0,,,60,127
56047,note_on,0,0,0,,0,,,84,127
56137,note_off,90,0,0,,0,,,72,127
56139,note_on,2,0,0,,0,,,72,127
56201,note_off,62,0,0,,5,,,53,127
56230,note_off,29,0,0,,0,,,72,127
56231,note_on,1,0,0,,7,,,55,127
56231,note_on,0,0,0,,0,,,72,127
56322,note_off,91,0,0,,0,,,72,127
56323,note_on,1,0,0,,0,,,72,127
56385,note_off,62,0,0,,7,,,55,127
56414,note_off,29,0,0,,0,,,72,127
56415,note_on,1,0,0,,8,,,56,127
56415,note_on,0,0,0,,0,,,72,127
56506,note_off,91,0,0,,0,,,72,127
56507,note_on,1,0,0,,0,,,72,127
56569,note_off,62,0,0,,8,,,56,127
56595,note_off,26,0,0,,0,,,84,127
56598,note_off,3,0,0,,0,,,72,127
56599,note_on,1,0,0,,5,,,53,127
56599,note_on,0,0,0,,0,,,72,127
56690,note_off,91,0,0,,0,,,72,127
56691,note_on,1,0,0,,0,,,72,127
56753,note_off,62,0,0,,5,,,53,127
56770,note_off,17,0,0,,0,,,60,127
56782,note_on,12,0,0,,3,,,51,127
56782,note_on,0,0,0,,0,,,60,127
56782,note_on,0,0,0,,0,,,84,127
56872,note_off,90,0,0,,0,,,72,127
56874,note_on,2,0,0,,0,,,72,127
56936,note_off,62,0,0,,3,,,51,127
56965,note_off,29,0,0,,0,,,72,127
56966,note_on,1,0,0,,2,,,50,127
56966,note_on,0,0,0,,0,,,72,127
57057,note_off,91,0,0,,0,,,72,127
57058,note_on,1,0,0,,0,,,72,127
57120,note_off,62,0,0,,2,,,50,127
57149,note_off,29,0,0,,0,,,72,127
57150,note_on,1,0,0,,3,,,51,127
57150,note_on,0,0,0,,0,,,72,127
57241,note_off,91,0,0,,0,,,72,127
57242,note_on,1,0,0,,0,,,72,127
57304,note_off,62,0,0,,3,,,51,127
57330,note_off,26,0,0,,0,,,84,127
57333,note_off,3,0,0,,0,,,72,127
57334,note_on,1,0,0,,0,,,48,127
57334,note_on,0,0,0,,0,,,72,127
57425,note_off,91,0,0,,0,,,72,127
57426,note_on,1,0,0,,0,,,72,127
57488,note_off,62,0,0,,0,,,48,127
57505,note_off,17,0,0,,0,,,60,127
57517,note_on,12,0,0,,2,,,50,127
57517,note_on,0,0,0,,0,,,60,127
57517,note_on,0,0,0,,0,,,84,127
57607,note_off,90,0,0,,0,,,72,127
57609,note_on,2,0,0,,0,,,72,127
57671,note_off,62,0,0,,2,,,50,127
57700,note_off,29,0,0,,0,,,72,127
57701,note_on,1,0,0,,4,,,52,127
57701,note_on,0,0,0,,0,,,72,127
57792,note_off,91,0,0,,0,,,72,127
57793,note_on,1,0,0,,0,,,72,127
57855,note_off,62,0,0,,4,,,52,127
57884,note_off,29,0,0,,0,,,72,127
57885,note_on,1,0,0,,6,,,54,127
57885,note_on,0,0,0,,0,,,72,127
57976,note_off,91,0,0,,0,,,72,127
57977,note_on,1,0,0,,0,,,72,127
58039,note_off,62,0,0,,6,,,54,127
58065,note_off,26,0,0,,0,,,84,127
58068,note_off,3,0,0,,0,,,72,127
58069,note_on,1,0,0,,2,,,50,127
58069,note_on,0,0,0,,0,,,72,127
58160,note_off,91,0,0,,0,,,72,127
58161,note_on,1,0,0,,0,,,72,127
58223,note_off,62,0,0,,2,,,50,127
58240,note_off,17,0,0,,0,,,60,127
58252,note_on,12,0,0,,3,,,51,127
58252,note_on,0,0,0,,0,,,60,127
58252,note_on,0,0,0,,0,,,84,127
58342,note_off,90,0,0,,0,,,72,127
58344,note_on,2,0,0,,0,,,72,127
58406,note_off,62,0,0,,3,,,51,127
58435,note_off,29,0,0,,0,,,72,127
58436,note_on,1,0,0,,2,,,50,127
58436,note_on,0,0,0,,0,,,72,127
58525,note_off,89,0,0,,0,,,84,127
58527,note_off,2,0,0,,0,,,72,127
58528,note_on,1,0,0,,0,,,72,127
58590,note_off,62,0,0,,2,,,50,127
58620,note_on,30,0,0,,3,,,51,127
58620,note_on,0,0,0,,0,,,84,127
58710,note_off,90,0,0,,0,,,72,127
58712,note_on,2,0,0,,0,,,72,127
58774,note_off,62,0,0,,3,,,51,127
58803,note_off,29,0,0,,0,,,72,127
58804,note_on,1,0,0,,0,,,48,127
58804,note_on,0,0,0,,0,,,72,127
58893,note_off,89,0,0,,0,,,84,127
58895,note_off,2,0,0,,0,,,72,127
58896,note_on,1,0,0,,0,,,72,127
58958,note_off,62,0,0,,0,,,48,127
58975,note_off,17,0,0,,0,,,60,127
58987,note_on,12,0,0,,6,,,54,127
58987,note_on,0,0,0,,2,,,62,127
58987,note_on,0,0,0,,0,,,84,127
59077,note_off,90,0,0,,0,,,72,127
59079,note_on,2,0,0,,0,,,72,127
59141,note_off,62,0,0,,6,,,54,127
59167,note_off,26,0,0,,0,,,84,127
59170,note_off,3,0,0,,0,,,72,127
59171,note_on,1,0,0,,2,,,50,127
59171,note_on,0,0,0,,0,,,72,127
59262,note_off,91,0,0,,0,,,72,127
59263,note_on,1,0,0,,0,,,72,127
59325,note_off,62,0,0,,2,,,50,127
59330,note_off,5,0,0,,0,,,72,127
59355,note_on,25,0,0,,7,,,55,127
59355,note_on,0,0,0,,12,,,83,127
59447,note_on,92,0,0,,12,,,71,127
59509,note_off,62,0,0,,7,,,55,127
59534,note_off,25,0,0,,12,,,83,127
59538,note_off,4,0,0,,12,,,71,127
59539,note_on,1,0,0,,7,,,43,127
59539,note_on,0,0,0,,12,,,71,127
59630,note_off,91,0,0,,12,,,71,127
59631,note_on,1,0,0,,12,,,71,127
59693,note_off,62,0,0,,7,,,43,127
59698,note_off,5,0,0,,12,,,71,127
59710,note_off,12,0,0,,2,,,62,127
59722,note_on,12,0,0,,0,,,48,127
59722,note_on,0,0,0,,10,,,81,127
59814,note_on,92,0,0,,10,,,69,127
59876,note_off,62,0,0,,0,,,48,127
59901,note_off,25,0,0,,10,,,81,127
59905,note_off,4,0,0,,10,,,69,127
59906,note_on,1,0,0,,2,,,50,127
59906,note_on,0,0,0,,10,,,69,127
59997,note_off,91,0,0,,10,,,69,127
59998,note_on,1,0,0,,10,,,69,127
60060,note_off,62,0,0,,2,,,50,127
60065,note_off,5,0,0,,10,,,69,127
60090,note_on,25,0,0,,4,,,52,127
60090,note_on,0,0,0,,7,,,79,127
60182,note_on,92,0,0,,7,,,67,127
60244,note_off,62,0,0,,4,,,52,127
60268,note_off,24,0,0,,7,,,79,127
60273,note_off,5,0,0,,7,,,67,127
60274,note_on,1,0,0,,0,,,48,127
60274,note_on,0,0,0,,7,,,67,127
60365,note_off,91,0,0,,7,,,67,127
60366,note_on,1,0,0,,7,,,67,127
60428,note_off,62,0,0,,0,,,48,127
60433,note_off,5,0,0,,7,,,67,127
60458,note_on,25,0,0,,2,,,50,127
60458,note_on,0,0,0,,6,,,78,127
60546,note_off,88,0,0,,6,,,78,127
60550,note_on,4,0,0,,4,,,76,127
60612,note_off,62,0,0,,2,,,50,127
60638,note_off,26,0,0,,4,,,76,127
60642,note_on,4,0,0,,6,,,54,127
60642,note_on,0,0,0,,2,,,74,127
60730,note_off,88,0,0,,2,,,74,127
60734,note_on,4,0,0,,0,,,72,127
60796,note_off,62,0,0,,6,,,54,127
60822,note_off,26,0,0,,0,,,72,127
60826,note_on,4,0,0,,7,,,55,127
60826,note_on,0,0,0,,12,,,71,127
60914,note_off,88,0,0,,12,,,71,127
60918,note_on,4,0,0,,10,,,69,127
60980,note_off,62,0,0,,7,,,55,127
61006,note_off,26,0,0,,10,,,69,127
61010,note_on,4,0,0,,4,,,52,127
61010,note_on,0,0,0,,12,,,71,127
61098,note_off,88,0,0,,12,,,71,127
61102,note_on,4,0,0,,1,,,73,127
61164,note_off,62,0,0,,4,,,52,127
61190,note_off,26,0,0,,1,,,73,127
61194,note_on,4,0,0,,2,,,50,127
61194,note_on,0,0,0,,2,,,74,127
61285,note_off,91,0,0,,2,,,74,127
61286,note_on,1,0,0,,2,,,74,127
61377,note_off,91,0,0,,2,,,74,127
61378,note_on,1,0,0,,2,,,38,127
61378,note_on,0,0,0,,2,,,74,127
61469,note_off,91,0,0,,2,,,74,127
61470,note_on,1,0,0,,2,,,74,127
61532,note_off,62,0,0,,2,,,38,127
61549,note_off,17,0,0,,2,,,50,127
61561,note_off,12,0,0,,2,,,74,127
61562,note_on,1,0,0,,2,,,62,127
61562,note_on,0,0,0,,2,,,74,127
61653,note_off,91,0,0,,2,,,74,127
61654,note_on,1,0,0,,2,,,74,127
61734,note_off,80,0,0,,2,,,62,127
61746,note_off,12,0,0,,2,,,74,127
61747,note_on,1,0,0,,0,,,60,127
61747,note_on,0,0,0,,2,,,74,127
61838,note_off,91,0,0,,2,,,74,127
61838,note_on,0,0,0,,2,,,74,127
61919,note_off,81,0,0,,0,,,60,127
61930,note_on,11,0,0,,7,,,79,127
61930,note_on,0,0,0,,2,,,62,127
61930,note_on,0,0,0,,12,,,59,127
62017,note_off,87,0,0,,2,,,74,127
62021,note_on,4,0,0,,2,,,74,127
62081,note_off,60,0,0,,12,,,59,127
62111,note_off,30,0,0,,2,,,74,127
62113,note_on,2,0,0,,2,,,74,127
62113,note_on,0,0,0,,10,,,57,127
62197,note_off,84,0,0,,7,,,79,127
62203,note_off,6,0,0,,2,,,74,127
62205,note_on,2,0,0,,2,,,74,127
62282,note_off,77,0,0,,10,,,57,127
62294,note_off,12,0,0,,2,,,74,127
62296,note_on,2,0,0,,2,,,74,127
62296,note_on,0,0,0,,12,,,59,127
62385,note_off,89,0,0,,2,,,74,127
62387,note_on,2,0,0,,2,,,74,127
62464,note_off,77,0,0,,12,,,59,127
62476,note_off,12,0,0,,2,,,74,127
62478,note_on,2,0,0,,2,,,74,127
62478,note_on,0,0,0,,7,,,55,127
62567,note_off,89,0,0,,2,,,74,127
62569,note_on,2,0,0,,2,,,74,127
62641,note_off,72,0,0,,2,,,62,127
62646,note_off,5,0,0,,7,,,55,127
62660,note_on,14,0,0,,10,,,81,127
62660,note_on,0,0,0,,2,,,62,127
62660,note_on,0,0,0,,6,,,54,127
62747,note_off,87,0,0,,2,,,74,127
62751,note_on,4,0,0,,2,,,74,127
62828,note_off,77,0,0,,6,,,54,127
62840,note_off,12,0,0,,2,,,74,127
62842,note_on,2,0,0,,2,,,74,127
62842,note_on,0,0,0,,4,,,52,127
62926,note_off,84,0,0,,10,,,81,127
62931,note_off,5,0,0,,2,,,74,127
62933,note_on,2,0,0,,2,,,74,127
63010,note_off,77,0,0,,4,,,52,127
63022,note_off,12,0,0,,2,,,74,127
63024,note_on,2,0,0,,2,,,74,127
63024,note_on,0,0,0,,6,,,54,127
63113,note_off,89,0,0,,2,,,74,127
63115,note_on,2,0,0,,2,,,74,127
63192,note_off,77,0,0,,6,,,54,127
63204,note_off,12,0,0,,2,,,74,127
63206,note_on,2,0,0,,2,,,74,127
63206,note_on,0,0,0,,2,,,50,127
63295,note_off,89,0,0,,2,,,74,127
63297,note_on,2,0,0,,2,,,74,127
63369,note_off,72,0,0,,2,,,62,127
63374,note_off,5,0,0,,2,,,50,127
63388,note_on,14,0,0,,12,,,83,127
63388,note_on,0,0,0,,2,,,62,127
63388,note_on,0,0,0,,7,,,55,127
63475,note_off,87,0,0,,2,,,74,127
63480,note_on,5,0,0,,2,,,74,127
63556,note_off,76,0,0,,7,,,55,127
63569,note_off,13,0,0,,2,,,74,127
63571,note_on,2,0,0,,2,,,74,127
63571,note_on,0,0,0,,10,,,57,127
63655,note_off,84,0,0,,12,,,83,127
63661,note_off,6,0,0,,2,,,74,127
63663,note_on,2,0,0,,2,,,74,127
63740,note_off,77,0,0,,10,,,57,127
63752,note_off,12,0,0,,2,,,74,127
63754,note_on,2,0,0,,2,,,74,127
63754,note_on,0,0,0,,12,,,59,127
63843,note_off,89,0,0,,2,,,74,127
63845,note_on,2,0,0,,2,,,74,127
63922,note_off,77,0,0,,12,,,59,127
63934,note_off,12,0,0,,2,,,74,127
63936,note_on,2,0,0,,2,,,74,127
63936,note_on,0,0,0,,7,,,55,127
64025,note_off,89,0,0,,2,,,74,127
64027,note_on,2,0,0,,2,,,74,127
64098,note_off,71,0,0,,2,,,62,127
64104,note_off,6,0,0,,7,,,55,127
64118,note_on,14,0,0,,0,,,84,127
64118,note_on,0,0,0,,2,,,62,127
64118,note_on,0,0,0,,10,,,57,127
64205,note_off,87,0,0,,2,,,74,127
64209,note_on,4,0,0,,2,,,74,127
64286,note_off,77,0,0,,10,,,57,127
64298,note_off,12,0,0,,2,,,74,127
64300,note_on,2,0,0,,2,,,74,127
64300,note_on,0,0,0,,12,,,59,127
64385,note_off,85,0,0,,0,,,84,127
64389,note_off,4,0,0,,2,,,74,127
64391,note_on,2,0,0,,2,,,74,127
64468,note_off,77,0,0,,12,,,59,127
64480,note_off,12,0,0,,2,,,74,127
64482,note_on,2,0,0,,2,,,74,127
64482,note_on,0,0,0,,0,,,60,127
64571,note_off,89,0,0,,2,,,74,127
64573,note_on,2,0,0,,2,,,74,127
64650,note_off,77,0,0,,0,,,60,127
64662,note_off,12,0,0,,2,,,74,127
64664,note_on,2,0,0,,2,,,74,127
64664,note_on,0,0,0,,10,,,57,127
64753,note_off,89,0,0,,2,,,74,127
64755,note_on,2,0,0,,2,,,74,127
64827,note_off,72,0,0,,2,,,62,127
64832,note_off,5,0,0,,10,,,57,127
64846,note_on,14,0,0,,2,,,86,127
64846,note_on,0,0,0,,2,,,62,127
64846,note_on,0,0,0,,12,,,59,127
64933,note_off,87,0,0,,2,,,74,127
64937,note_on,4,0,0,,2,,,74,127
65014,note_off,77,0,0,,12,,,59,127
65026,note_off,12,0,0,,2,,,74,127
65028,note_on,2,0,0,,2,,,74,127
65028,note_on,0,0,0,,10,,,57,127
65117,note_off,89,0,0,,2,,,74,127
65119,note_on,2,0,0,,2,,,74,127
65196,note_off,77,0,0,,10,,,57,127
65200,note_off,4,0,0,,2,,,86,127
65209,note_off,9,0,0,,2,,,74,127
65211,note_on,2,0,0,,2,,,74,127
65211,note_on,0,0,0,,12,,,59,127
65300,note_off,89,0,0,,2,,,74,127
65303,note_on,3,0,0,,2,,,74,127
65379,note_off,76,0,0,,12,,,59,127
65392,note_off,13,0,0,,2,,,74,127
65394,note_on,2,0,0,,2,,,74,127
65394,note_on,0,0,0,,7,,,55,127
65483,note_off,89,0,0,,2,,,74,127
65485,note_on,2,0,0,,2,,,74,127
65550,note_off,65,0,0,,2,,,74,127
65556,note_off,6,0,0,,2,,,62,127
65562,note_off,6,0,0,,7,,,55,127
65576,note_on,14,0,0,,4,,,88,127
65576,note_on,0,0,0,,0,,,60,127
65667,note_on,91,0,0,,4,,,76,127
65744,note_off,77,0,0,,0,,,60,127
65756,note_off,12,0,0,,4,,,76,127
65758,note_on,2,0,0,,4,,,76,127
65758,note_on,0,0,0,,10,,,57,127
65847,note_off,89,0,0,,4,,,76,127
65849,note_on,2,0,0,,4,,,76,127
65914,note_off,65,0,0,,4,,,76,127
65926,note_off,12,0,0,,10,,,57,127
65930,note_off,4,0,0,,4,,,88,127
65941,note_on,11,0,0,,6,,,90,127
65941,note_on,0,0,0,,2,,,62,127
66032,note_on,91,0,0,,6,,,78,127
66109,note_off,77,0,0,,2,,,62,127
66121,note_off,12,0,0,,6,,,78,127
66123,note_on,2,0,0,,6,,,78,127
66123,note_on,0,0,0,,0,,,60,127
66212,note_off,89,0,0,,6,,,78,127
66214,note_on,2,0,0,,6,,,78,127
66279,note_off,65,0,0,,6,,,78,127
66291,note_off,12,0,0,,0,,,60,127
66295,note_off,4,0,0,,6,,,90,127
66306,note_on,11,0,0,,7,,,91,127
66306,note_on,0,0,0,,12,,,59,127
66397,note_on,91,0,0,,7,,,79,127
66474,note_off,77,0,0,,12,,,59,127
66486,note_off,12,0,0,,7,,,79,127
66488,note_on,2,0,0,,7,,,79,127
66488,note_on,0,0,0,,10,,,57,127
66577,note_off,89,0,0,,7,,,79,127
66579,note_on,2,0,0,,7,,,79,127
66656,note_off,77,0,0,,10,,,57,127
66660,note_off,4,0,0,,7,,,91,127
66671,note_on,11,0,0,,7,,,91,127
66671,note_on,0,0,0,,12,,,59,127
66757,note_off,86,0,0,,7,,,91,127
66758,note_off,1,0,0,,7,,,79,127
66762,note_on,4,0,0,,6,,,90,127
66839,note_off,77,0,0,,12,,,59,127
66849,note_off,10,0,0,,6,,,90,127
66854,note_on,5,0,0,,4,,,88,127
66854,note_on,0,0,0,,7,,,55,127
66940,note_off,86,0,0,,4,,,88,127
66945,note_on,5,0,0,,2,,,86,127
67022,note_off,77,0,0,,2,,,86,127
67022,note_off,0,0,0,,7,,,55,127
67036,note_on,14,0,0,,2,,,86,127
67036,note_on,0,0,0,,0,,,84,127
67036,note_on,0,0,0,,0,,,60,127
67122,note_off,86,0,0,,0,,,84,127
67122,note_off,0,0,0,,2,,,86,127
67127,note_on,5,0,0,,12,,,83,127
67213,note_off,86,0,0,,12,,,83,127
67219,note_on,6,0,0,,0,,,84,127
67219,note_on,0,0,0,,0,,,48,127
67305,note_off,86,0,0,,0,,,84,127
67310,note_on,5,0,0,,2,,,86,127
67384,note_off,74,0,0,,0,,,60,127
67387,note_off,3,0,0,,0,,,48,127
67397,note_off,10,0,0,,2,,,86,127
67402,note_on,5,0,0,,12,,,83,127
67402,note_on,0,0,0,,2,,,50,127
67488,note_off,86,0,0,,12,,,83,127
67493,note_on,5,0,0,,7,,,79,127
67579,note_off,86,0,0,,7,,,79,127
67584,note_on,5,0,0,,6,,,78,127
67584,note_on,0,0,0,,2,,,38,127
67670,note_off,86,0,0,,6,,,78,127
67675,note_on,5,0,0,,10,,,81,127
67750,note_off,75,0,0,,2,,,50,127
67752,note_off,2,0,0,,2,,,38,127
67762,note_off,10,0,0,,10,,,81,127
67767,note_on,5,0,0,,7,,,79,127
67767,note_on,0,0,0,,7,,,43,127
67840,note_off,73,0,0,,7,,,79,127
67876,note_on,36,0,0,,2,,,62,127
67936,note_off,60,0,0,,7,,,43,127
67968,note_off,32,0,0,,2,,,62,127
67969,note_on,1,0,0,,2,,,62,127
67969,note_on,0,0,0,,10,,,45,127
68060,note_off,91,0,0,,2,,,62,127
68061,note_on,1,0,0,,2,,,62,127
68119,note_off,58,0,0,,10,,,45,127
68153,note_off,34,0,0,,2,,,62,127
68154,note_on,1,0,0,,2,,,62,127
68154,note_on,0,0,0,,12,,,47,127
68245,note_off,91,0,0,,2,,,62,127
68246,note_on,1,0,0,,2,,,62,127
68304,note_off,58,0,0,,12,,,47,127
68338,note_off,34,0,0,,2,,,62,127
68339,note_on,1,0,0,,2,,,62,127
68339,note_on,0,0,0,,7,,,43,127
68430,note_off,91,0,0,,2,,,62,127
68431,note_on,1,0,0,,2,,,62,127
68489,note_off,58,0,0,,7,,,43,127
68524,note_on,35,0,0,,10,,,69,127
68524,note_on,0,0,0,,6,,,42,127
68613,note_off,89,0,0,,2,,,62,127
68616,note_on,3,0,0,,2,,,62,127
68696,note_off,80,0,0,,6,,,42,127
68708,note_off,12,0,0,,2,,,62,127
68709,note_on,1,0,0,,2,,,62,127
68709,note_on,0,0,0,,4,,,40,127
68800,note_off,91,0,0,,2,,,62,127
68801,note_on,1,0,0,,2,,,62,127
68859,note_off,58,0,0,,4,,,40,127
68893,note_off,34,0,0,,2,,,62,127
68894,note_on,1,0,0,,2,,,62,127
68894,note_on,0,0,0,,6,,,42,127
68975,note_off,81,0,0,,10,,,69,127
68986,note_off,11,0,0,,2,,,62,127
68987,note_on,1,0,0,,2,,,62,127
69045,note_off,58,0,0,,6,,,42,127
69079,note_off,34,0,0,,2,,,62,127
69080,note_on,1,0,0,,2,,,62,127
69080,note_on,0,0,0,,2,,,38,127
69171,note_off,91,0,0,,2,,,62,127
69172,note_on,1,0,0,,2,,,62,127
69230,note_off,58,0,0,,2,,,38,127
69265,note_on,35,0,0,,12,,,71,127
69265,note_on,0,0,0,,7,,,43,127
69354,note_off,89,0,0,,2,,,62,127
69357,note_on,3,0,0,,2,,,62,127
69437,note_off,80,0,0,,7,,,43,127
69449,note_off,12,0,0,,2,,,62,127
69450,note_on,1,0,0,,2,,,62,127
69450,note_on,0,0,0,,10,,,45,127
69541,note_off,91,0,0,,2,,,62,127
69542,note_on,1,0,0,,2,,,62,127
69600,note_off,58,0,0,,10,,,45,127
69634,note_off,34,0,0,,2,,,62,127
69635,note_on,1,0,0,,2,,,62,127
69635,note_on,0,0,0,,12,,,47,127
69726,note_off,91,0,0,,2,,,62,127
69727,note_on,1,0,0,,2,,,62,127
69785,note_off,58,0,0,,12,,,47,127
69807,note_off,22,0,0,,12,,,71,127
69819,note_off,12,0,0,,2,,,62,127
69820,note_on,1,0,0,,2,,,62,127
69820,note_on,0,0,0,,7,,,43,127
69911,note_off,91,0,0,,2,,,62,127
69912,note_on,1,0,0,,2,,,62,127
69970,note_off,58,0,0,,7,,,43,127
70005,note_on,35,0,0,,0,,,72,127
70005,note_on,0,0,0,,10,,,45,127
70094,note_off,89,0,0,,2,,,62,127
70097,note_on,3,0,0,,2,,,62,127
70177,note_off,80,0,0,,10,,,45,127
70189,note_off,12,0,0,,2,,,62,127
70190,note_on,1,0,0,,2,,,62,127
70190,note_on,0,0,0,,12,,,47,127
70281,note_off,91,0,0,,2,,,62,127
70282,note_on,1,0,0,,2,,,62,127
70340,note_off,58,0,0,,12,,,47,127
70374,note_off,34,0,0,,2,,,62,127
70375,note_on,1,0,0,,2,,,62,127
70375,note_on,0,0,0,,0,,,48,127
70456,note_off,81,0,0,,0,,,72,127
70467,note_off,11,0,0,,2,,,62,127
70468,note_on,1,0,0,,2,,,62,127
70526,note_off,58,0,0,,0,,,48,127
70560,note_off,34,0,0,,2,,,62,127
70561,note_on,1,0,0,,2,,,62,127
70561,note_on,0,0,0,,10,,,45,127
70652,note_off,91,0,0,,2,,,62,127
70653,note_on,1,0,0,,2,,,62,127
70711,note_off,58,0,0,,10,,,45,127
70746,note_on,35,0,0,,2,,,74,127
70746,note_on,0,0,0,,7,,,55,127
70746,note_on,0,0,0,,12,,,47,127
70835,note_off,89,0,0,,2,,,62,127
70838,note_on,3,0,0,,2,,,62,127
70918,note_off,80,0,0,,12,,,47,127
70930,note_off,12,0,0,,2,,,62,127
70931,note_on,1,0,0,,2,,,62,127
70931,note_on,0,0,0,,10,,,45,127
71022,note_off,91,0,0,,2,,,62,127
71023,note_on,1,0,0,,2,,,62,127
71081,note_off,58,0,0,,10,,,45,127
71115,note_off,34,0,0,,2,,,62,127
71116,note_on,1,0,0,,2,,,62,127
71116,note_on,0,0,0,,12,,,47,127
71207,note_off,91,0,0,,2,,,62,127
71208,note_on,1,0,0,,2,,,62,127
71266,note_off,58,0,0,,12,,,47,127
71290,note_off,24,0,0,,2,,,74,127
71300,note_off,10,0,0,,2,,,62,127
71301,note_on,1,0,0,,2,,,62,127
71301,note_on,0,0,0,,7,,,43,127
71392,note_off,91,0,0,,2,,,62,127
71393,note_on,1,0,0,,2,,,62,127
71451,note_off,58,0,0,,7,,,43,127
71461,note_off,10,0,0,,2,,,62,127
71473,note_off,12,0,0,,7,,,55,127
71485,note_on,12,0,0,,4,,,76,127
71485,note_on,0,0,0,,0,,,48,127
71577,note_on,92,0,0,,4,,,64,127
71657,note_off,80,0,0,,0,,,48,127
71669,note_off,12,0,0,,4,,,64,127
71670,note_on,1,0,0,,4,,,64,127
71670,note_on,0,0,0,,10,,,45,127
71746,note_off,76,0,0,,4,,,76,127
71761,note_off,15,0,0,,4,,,64,127
71762,note_on,1,0,0,,4,,,64,127
71820,note_off,58,0,0,,10,,,45,127
71830,note_off,10,0,0,,4,,,64,127
71855,note_on,25,0,0,,6,,,78,127
71855,note_on,0,0,0,,2,,,50,127
71947,note_on,92,0,0,,6,,,66,127
72005,note_off,58,0,0,,2,,,50,127
72039,note_off,34,0,0,,6,,,66,127
72040,note_on,1,0,0,,6,,,66,127
72040,note_on,0,0,0,,0,,,48,127
72116,note_off,76,0,0,,6,,,78,127
72131,note_off,15,0,0,,6,,,66,127
72132,note_on,1,0,0,,6,,,66,127
72190,note_off,58,0,0,,0,,,48,127
72200,note_off,10,0,0,,6,,,66,127
72225,note_on,25,0,0,,7,,,79,127
72225,note_on,0,0,0,,7,,,55,127
72225,note_on,0,0,0,,12,,,47,127
72317,note_on,92,0,0,,7,,,67,127
72397,note_off,80,0,0,,12,,,47,127
72409,note_off,12,0,0,,7,,,67,127
72410,note_on,1,0,0,,7,,,67,127
72410,note_on,0,0,0,,10,,,45,127
72501,note_off,91,0,0,,7,,,67,127
72502,note_on,1,0,0,,7,,,67,127
72560,note_off,58,0,0,,10,,,45,127
72586,note_off,26,0,0,,7,,,79,127
72595,note_on,9,0,0,,7,,,79,127
72595,note_on,0,0,0,,12,,,47,127
72656,note_off,61,0,0,,7,,,67,127
72683,note_off,27,0,0,,7,,,79,127
72687,note_on,4,0,0,,6,,,78,127
72745,note_off,58,0,0,,12,,,47,127
72776,note_off,31,0,0,,6,,,78,127
72780,note_on,4,0,0,,4,,,76,127
72780,note_on,0,0,0,,7,,,43,127
72868,note_off,88,0,0,,4,,,76,127
72872,note_on,4,0,0,,2,,,74,127
72930,note_off,58,0,0,,7,,,43,127
72949,note_off,19,0,0,,2,,,74,127
72952,note_off,3,0,0,,7,,,55,127
72964,note_on,12,0,0,,2,,,74,127
72964,note_on,0,0,0,,0,,,72,127
72964,note_on,0,0,0,,0,,,48,127
73052,note_off,88,0,0,,0,,,72,127
73052,note_off,0,0,0,,2,,,74,127
73056,note_on,4,0,0,,10,,,69,127
73136,note_off,80,0,0,,0,,,48,127
73145,note_off,9,0,0,,10,,,69,127
73149,note_on,4,0,0,,12,,,71,127
73149,note_on,0,0,0,,10,,,45,127
73237,note_off,88,0,0,,12,,,71,127
73241,note_on,4,0,0,,0,,,72,127
73299,note_off,58,0,0,,10,,,45,127
73330,note_off,31,0,0,,0,,,72,127
73334,note_on,4,0,0,,12,,,71,127
73334,note_on,0,0,0,,2,,,50,127
73422,note_off,88,0,0,,12,,,71,127
73426,note_on,4,0,0,,7,,,67,127
73514,note_off,88,0,0,,7,,,67,127
73518,note_on,4,0,0,,6,,,66,127
73518,note_on,0,0,0,,2,,,38,127
73606,note_off,88,0,0,,6,,,66,127
73610,note_on,4,0,0,,10,,,69,127
73668,note_off,58,0,0,,2,,,38,127
73690,note_off,22,0,0,,2,,,50,127
73699,note_off,9,0,0,,10,,,69,127
73703,note_on,4,0,0,,7,,,67,127
73703,note_on,0,0,0,,7,,,43,127
73818,note_on,115,0,0,,7,,,79,127
73875,note_off,57,0,0,,7,,,43,127
73875,note_off,0,0,0,,7,,,67,127
73907,note_off,32,0,0,,7,,,79,127
73911,note_on,4,0,0,,7,,,67,127
73911,note_on,0,0,0,,12,,,71,127
73999,note_off,88,0,0,,12,,,71,127
74003,note_on,4,0,0,,2,,,74,127
74083,note_off,80,0,0,,7,,,67,127
74092,note_off,9,0,0,,2,,,74,127
74096,note_on,4,0,0,,10,,,69,127
74096,note_on,0,0,0,,2,,,74,127
74184,note_off,88,0,0,,2,,,74,127
74188,note_on,4,0,0,,0,,,72,127
74268,note_off,80,0,0,,10,,,69,127
74277,note_off,9,0,0,,0,,,72,127
74281,note_on,4,0,0,,2,,,62,127
74281,note_on,0,0,0,,0,,,72,127
74369,note_off,88,0,0,,0,,,72,127
74373,note_on,4,0,0,,10,,,69,127
74453,note_off,80,0,0,,2,,,62,127
74462,note_off,9,0,0,,10,,,69,127
74466,note_on,4,0,0,,7,,,55,127
74466,note_on,0,0,0,,12,,,71,127
74558,note_on,92,0,0,,7,,,79,127
74638,note_off,80,0,0,,12,,,71,127
74638,note_off,0,0,0,,7,,,55,127
74647,note_off,9,0,0,,7,,,79,127
74651,note_on,4,0,0,,7,,,67,127
74651,note_on,0,0,0,,12,,,71,127
74739,note_off,88,0,0,,12,,,71,127
74743,note_on,4,0,0,,2,,,74,127
74823,note_off,80,0,0,,7,,,67,127
74832,note_off,9,0,0,,2,,,74,127
74836,note_on,4,0,0,,10,,,69,127
74836,note_on,0,0,0,,2,,,74,127
74924,note_off,88,0,0,,2,,,74,127
74928,note_on,4,0,0,,0,,,72,127
75008,note_off,80,0,0,,10,,,69,127
75017,note_off,9,0,0,,0,,,72,127
75021,note_on,4,0,0,,2,,,62,127
75021,note_on,0,0,0,,0,,,72,127
75109,note_off,88,0,0,,0,,,72,127
75113,note_on,4,0,0,,10,,,69,127
75193,note_off,80,0,0,,2,,,62,127
75202,note_off,9,0,0,,10,,,69,127
75206,note_on,4,0,0,,7,,,43,127
75206,note_on,0,0,0,,12,,,71,127
75294,note_off,88,0,0,,12,,,71,127
75298,note_on,4,0,0,,7,,,67,127
75385,note_off,87,0,0,,7,,,43,127
75386,note_off,1,0,0,,7,,,67,127
75390,note_on,4,0,0,,7,,,55,127
75390,note_on,0,0,0,,12,,,59,127
75470,note_off,80,0,0,,12,,,59,127
75482,note_on,12,0,0,,2,,,62,127
75562,note_off,80,0,0,,7,,,55,127
75571,note_off,9,0,0,,2,,,62,127
75575,note_on,4,0,0,,10,,,57,127
75575,note_on,0,0,0,,2,,,62,127
75663,note_off,88,0,0,,2,,,62,127
75667,note_on,4,0,0,,0,,,60,127
75747,note_off,80,0,0,,0,,,60,127
75747,note_off,0,0,0,,10,,,57,127
75759,note_on,12,0,0,,2,,,50,127
75759,note_on,0,0,0,,0,,,60,127
75839,note_off,80,0,0,,0,,,60,127
75851,note_on,12,0,0,,10,,,57,127
75931,note_off,80,0,0,,10,,,57,127
75931,note_off,0,0,0,,2,,,50,127
75943,note_on,12,0,0,,7,,,43,127
75943,note_on,0,0,0,,12,,,59,127
76035,note_on,92,0,0,,7,,,67,127
76115,note_off,80,0,0,,12,,,59,127
76115,note_off,0,0,0,,7,,,43,127
76124,note_off,9,0,0,,7,,,67,127
76128,note_on,4,0,0,,7,,,55,127
76128,note_on,0,0,0,,12,,,59,127
76208,note_off,80,0,0,,12,,,59,127
76220,note_on,12,0,0,,2,,,62,127
76300,note_off,80,0,0,,7,,,55,127
76309,note_off,9,0,0,,2,,,62,127
76313,note_on,4,0,0,,10,,,57,127
76313,note_on,0,0,0,,2,,,62,127
76401,note_off,88,0,0,,2,,,62,127
76405,note_on,4,0,0,,0,,,60,127
76485,note_off,80,0,0,,0,,,60,127
76485,note_off,0,0,0,,10,,,57,127
76497,note_on,12,0,0,,2,,,50,127
76497,note_on,0,0,0,,0,,,60,127
76577,note_off,80,0,0,,0,,,60,127
76589,note_on,12,0,0,,10,,,57,127
76669,note_off,80,0,0,,10,,,57,127
76669,note_off,0,0,0,,2,,,50,127
76681,note_on,12,0,0,,7,,,43,127
76681,note_on,0,0,0,,12,,,59,127
76789,note_on,108,0,0,,7,,,67,127
76853,note_off,64,0,0,,12,,,59,127
76853,note_off,0,0,0,,7,,,43,127
76877,note_off,24,0,0,,7,,,67,127
76881,note_on,4,0,0,,4,,,64,127
76881,note_on,0,0,0,,0,,,48,127
76969,note_off,88,0,0,,4,,,64,127
76973,note_on,4,0,0,,0,,,60,127
77053,note_off,80,0,0,,0,,,60,127
77053,note_off,0,0,0,,0,,,48,127
77065,note_on,12,0,0,,12,,,59,127
77065,note_on,0,0,0,,2,,,50,127
77145,note_off,80,0,0,,12,,,59,127
77157,note_on,12,0,0,,7,,,67,127
77245,note_off,88,0,0,,7,,,67,127
77249,note_on,4,0,0,,10,,,57,127
77249,note_on,0,0,0,,2,,,38,127
77329,note_off,80,0,0,,10,,,57,127
77341,note_on,12,0,0,,6,,,66,127
77421,note_off,80,0,0,,2,,,38,127
77421,note_off,0,0,0,,2,,,50,127
77430,note_off,9,0,0,,6,,,66,127
77434,note_on,4,0,0,,7,,,43,127
77434,note_on,0,0,0,,7,,,67,127
77522,note_off,88,0,0,,7,,,67,127
77534,note_on,12,0,0,,2,,,62,127
77622,note_off,88,0,0,,2,,,62,127
77634,note_on,12,0,0,,12,,,59,127
77720,note_off,86,0,0,,12,,,59,127
77733,note_on,13,0,0,,7,,,55,127
77819,note_off,86,0,0,,7,,,55,127
77833,note_on,14,0,0,,10,,,57,127
77919,note_off,86,0,0,,10,,,57,127
77932,note_on,13,0,0,,0,,,60,127
78018,note_off,86,0,0,,0,,,60,127
78032,note_on,14,0,0,,2,,,62,127
78120,note_off,88,0,0,,2,,,62,127
78137,note_on,17,0,0,,6,,,66,127
78211,note_off,74,0,0,,7,,,43,127
78225,note_off,14,0,0,,6,,,66,127
78229,note_on,4,0,0,,7,,,67,127
78229,note_on,0,0,0,,7,,,43,127
78313,note_off,84,0,0,,7,,,67,127
78325,note_on,12,0,0,,2,,,62,127
78409,note_off,84,0,0,,2,,,62,127
78421,note_on,12,0,0,,12,,,59,127
78504,note_off,83,0,0,,12,,,59,127
78517,note_on,13,0,0,,7,,,55,127
78600,note_off,83,0,0,,7,,,55,127
78614,note_on,14,0,0,,10,,,57,127
78697,note_off,83,0,0,,10,,,57,127
78710,note_on,13,0,0,,0,,,60,127
78793,note_off,83,0,0,,0,,,60,127
78806,note_on,13,0,0,,2,,,62,127
78890,note_off,84,0,0,,2,,,62,127
78917,note_on,27,0,0,,6,,,66,127
78978,note_off,61,0,0,,7,,,43,127
79000,note_on,22,0,0,,7,,,43,127
79000,note_on,0,0,0,,7,,,31,127
79000,note_on,0,0,0,,7,,,67,127
79001,note_off,1,0,0,,6,,,66,127
79059,note_on,58,0,0,,2,,,62,127
79062,note_off,3,0,0,,7,,,67,127
79117,note_on,55,0,0,,12,,,59,127
79121,note_off,4,0,0,,2,,,62,127
79175,note_on,54,0,0,,7,,,55,127
79179,note_off,4,0,0,,12,,,59,127
79234,note_on,55,0,0,,10,,,57,127
79237,note_off,3,0,0,,7,,,55,127
79332,note_off,95,0,0,,10,,,57,127
79364,note_on,32,0,0,,6,,,66,127
79442,note_off,78,0,0,,7,,,31,127
79442,note_off,0,0,0,,7,,,43,127
79462,note_off,20,0,0,,6,,,66,127
79466,note_on,4,0,0,,7,,,67,127
79466,note_on,0,0,0,,7,,,31,127
79466,note_on,0,0,0,,7,,,43,127
79531,note_on,65,0,0,,2,,,62,127
79534,note_off,3,0,0,,7,,,67,127
79597,note_on,63,0,0,,12,,,59,127
79599,note_off,2,0,0,,2,,,62,127
79661,note_on,62,0,0,,7,,,55,127
79665,note_off,4,0,0,,12,,,59,127
79725,note_on,60,0,0,,10,,,57,127
79729,note_off,4,0,0,,7,,,55,127
79836,note_off,107,0,0,,10,,,57,127
79870,note_on,34,0,0,,6,,,66,127
79959,note_off,89,0,0,,7,,,43,127
79959,note_off,0,0,0,,7,,,31,127
79965,note_off,6,0,0,,6,,,66,127
79976,note_on,11,0,0,,6,,,66,127
79976,note_on,0,0,0,,7,,,31,127
79976,note_on,0,0,0,,7,,,43,127
80660,note_on,684,0,0,,7,,,67,127
80663,note_off,3,0,0,,6,,,66,127
82273,note_off,1610,0,0,,7,,,67,127
82273,note_off,0,0,0,,7,,,43,127
82273,note_off,0,0,0,,7,,,31,127
87552,end_of_track,5279,1,0,,,,,,
