tick,type,time,meta,track,program,channel,pitch,tempo,note,velocity
0,copyright,0,1,0,,,,,,
0,program_change,0,0,0,6,0,,,,
0,pitchwheel,0,0,0,,0,0,,,
0,program_change,0,0,0,6,1,,,,
0,pitchwheel,0,0,0,,1,-590,,,
0,program_change,0,0,0,6,2,,,,
0,pitchwheel,0,0,0,,2,-272,,,
0,program_change,0,0,0,6,3,,,,
0,pitchwheel,0,0,0,,3,-353,,,
0,program_change,0,0,0,6,4,,,,
0,pitchwheel,0,0,0,,4,-560,,,
0,program_change,0,0,0,6,5,,,,
0,pitchwheel,0,0,0,,5,-80,,,
0,program_change,0,0,0,6,6,,,,
0,pitchwheel,0,0,0,,6,-625,,,
0,program_change,0,0,0,6,7,,,,
0,pitchwheel,0,0,0,,7,-130,,,
0,program_change,0,0,0,6,8,,,,
0,pitchwheel,0,0,0,,8,-512,,,
0,program_change,0,0,0,6,10,,,,
0,pitchwheel,0,0,0,,10,-464,,,
0,program_change,0,0,0,6,11,,,,
0,pitchwheel,0,0,0,,11,-208,,,
0,program_change,0,0,0,6,12,,,,
0,pitchwheel,0,0,0,,12,-553,,,
0,set_tempo,0,1,0,,,,500000,,
110,note_on,110,0,0,,10,,,45,127
329,note_on,219,0,0,,10,,,69,127
436,note_off,107,0,0,,10,,,69,127
438,note_on,2,0,0,,4,,,64,127
545,note_off,107,0,0,,4,,,64,127
547,note_on,2,0,0,,4,,,76,127
764,note_off,217,0,0,,4,,,76,127
766,note_on,2,0,0,,2,,,74,127
983,note_off,217,0,0,,2,,,74,127
984,note_off,1,0,0,,10,,,45,127
985,note_on,1,0,0,,1,,,73,127
1202,note_off,217,0,0,,1,,,73,127
1204,note_on,2,0,0,,10,,,69,127
1311,note_off,107,0,0,,10,,,69,127
1313,note_on,2,0,0,,4,,,64,127
1420,note_off,107,0,0,,4,,,64,127
1422,note_on,2,0,0,,4,,,76,127
1639,note_off,217,0,0,,4,,,76,127
1641,note_on,2,0,0,,2,,,74,127
1858,note_off,217,0,0,,2,,,74,127
1860,note_on,2,0,0,,1,,,73,127
2079,note_on,219,0,0,,1,,,61,127
2186,note_off,107,0,0,,1,,,61,127
2188,note_on,2,0,0,,4,,,64,127
2293,note_off,105,0,0,,1,,,73,127
2295,note_off,2,0,0,,4,,,64,127
2297,note_on,2,0,0,,2,,,62,127
2404,note_off,107,0,0,,2,,,62,127
2406,note_on,2,0,0,,12,,,59,127
2513,note_off,107,0,0,,12,,,59,127
2515,note_on,2,0,0,,4,,,52,127
2622,note_off,107,0,0,,4,,,52,127
2624,note_on,2,0,0,,2,,,62,127
2731,note_off,107,0,0,,2,,,62,127
2733,note_on,2,0,0,,1,,,61,127
2840,note_off,107,0,0,,1,,,61,127
2842,note_on,2,0,0,,8,,,56,127
2949,note_off,107,0,0,,8,,,56,127
2951,note_on,2,0,0,,10,,,57,127
2951,note_on,0,0,0,,1,,,73,127
3058,note_off,107,0,0,,1,,,73,127
3058,note_off,0,0,0,,10,,,57,127
3060,note_on,2,0,0,,1,,,49,127
3060,note_on,0,0,0,,4,,,76,127
3167,note_off,107,0,0,,4,,,76,127
3167,note_off,0,0,0,,1,,,49,127
3169,note_on,2,0,0,,2,,,50,127
3169,note_on,0,0,0,,2,,,74,127
3276,note_off,107,0,0,,2,,,74,127
3278,note_on,2,0,0,,12,,,71,127
3385,note_off,107,0,0,,12,,,71,127
3385,note_off,0,0,0,,2,,,50,127
3387,note_on,2,0,0,,4,,,52,127
3387,note_on,0,0,0,,4,,,64,127
3494,note_off,107,0,0,,4,,,64,127
3496,note_on,2,0,0,,2,,,74,127
3603,note_off,107,0,0,,2,,,74,127
3603,note_off,0,0,0,,4,,,52,127
3605,note_on,2,0,0,,10,,,45,127
3605,note_on,0,0,0,,1,,,73,127
3822,note_off,217,0,0,,10,,,45,127
3824,note_on,2,0,0,,1,,,61,127
3931,note_off,107,0,0,,1,,,61,127
3933,note_on,2,0,0,,4,,,64,127
3992,note_off,59,0,0,,1,,,73,127
4040,note_off,48,0,0,,4,,,64,127
4042,note_on,2,0,0,,2,,,62,127
4149,note_off,107,0,0,,2,,,62,127
4151,note_on,2,0,0,,12,,,59,127
4258,note_off,107,0,0,,12,,,59,127
4260,note_on,2,0,0,,4,,,52,127
4367,note_off,107,0,0,,4,,,52,127
4369,note_on,2,0,0,,2,,,62,127
4476,note_off,107,0,0,,2,,,62,127
4478,note_on,2,0,0,,1,,,61,127
4585,note_off,107,0,0,,1,,,61,127
4587,note_on,2,0,0,,8,,,56,127
4694,note_off,107,0,0,,8,,,56,127
4696,note_on,2,0,0,,10,,,57,127
4696,note_on,0,0,0,,1,,,73,127
4803,note_off,107,0,0,,1,,,73,127
4803,note_off,0,0,0,,10,,,57,127
4805,note_on,2,0,0,,1,,,49,127
4805,note_on,0,0,0,,4,,,76,127
4912,note_off,107,0,0,,4,,,76,127
4912,note_off,0,0,0,,1,,,49,127
4914,note_on,2,0,0,,2,,,50,127
4914,note_on,0,0,0,,2,,,74,127
5021,note_off,107,0,0,,2,,,74,127
5023,note_on,2,0,0,,12,,,71,127
5130,note_off,107,0,0,,12,,,71,127
5130,note_off,0,0,0,,2,,,50,127
5132,note_on,2,0,0,,4,,,52,127
5132,note_on,0,0,0,,4,,,64,127
5239,note_off,107,0,0,,4,,,64,127
5241,note_on,2,0,0,,2,,,74,127
5348,note_off,107,0,0,,2,,,74,127
5348,note_off,0,0,0,,4,,,52,127
5350,note_on,2,0,0,,10,,,45,127
5350,note_on,0,0,0,,1,,,73,127
5567,note_off,217,0,0,,1,,,73,127
5569,note_on,2,0,0,,1,,,61,127
5676,note_off,107,0,0,,1,,,61,127
5678,note_on,2,0,0,,10,,,57,127
5785,note_off,107,0,0,,10,,,57,127
5787,note_on,2,0,0,,1,,,61,127
5787,note_on,0,0,0,,10,,,69,127
5894,note_off,107,0,0,,10,,,45,127
5896,note_on,2,0,0,,4,,,52,127
6003,note_off,107,0,0,,4,,,52,127
6003,note_off,0,0,0,,10,,,69,127
6003,note_off,0,0,0,,1,,,61,127
6005,note_on,2,0,0,,1,,,49,127
6005,note_on,0,0,0,,1,,,61,127
6005,note_on,0,0,0,,10,,,69,127
6112,note_off,107,0,0,,1,,,49,127
6114,note_on,2,0,0,,10,,,45,127
6221,note_off,107,0,0,,10,,,45,127
6221,note_off,0,0,0,,10,,,69,127
6221,note_off,0,0,0,,1,,,61,127
6223,note_on,2,0,0,,4,,,40,127
6223,note_on,0,0,0,,12,,,59,127
6223,note_on,0,0,0,,10,,,69,127
6440,note_off,217,0,0,,10,,,69,127
6442,note_on,2,0,0,,8,,,68,127
6549,note_off,107,0,0,,8,,,68,127
6551,note_on,2,0,0,,4,,,64,127
6656,note_off,105,0,0,,12,,,59,127
6658,note_off,2,0,0,,4,,,64,127
6660,note_on,2,0,0,,2,,,62,127
6660,note_on,0,0,0,,12,,,71,127
6767,note_off,107,0,0,,4,,,40,127
6769,note_on,2,0,0,,12,,,59,127
6876,note_off,107,0,0,,12,,,59,127
6876,note_off,0,0,0,,12,,,71,127
6876,note_off,0,0,0,,2,,,62,127
6878,note_on,2,0,0,,8,,,56,127
6878,note_on,0,0,0,,2,,,62,127
6878,note_on,0,0,0,,12,,,71,127
6985,note_off,107,0,0,,8,,,56,127
6987,note_on,2,0,0,,4,,,52,127
7094,note_off,107,0,0,,4,,,52,127
7094,note_off,0,0,0,,12,,,71,127
7094,note_off,0,0,0,,2,,,62,127
7096,note_on,2,0,0,,10,,,45,127
7096,note_on,0,0,0,,12,,,71,127
7096,note_on,0,0,0,,1,,,61,127
7313,note_off,217,0,0,,12,,,71,127
7315,note_on,2,0,0,,10,,,69,127
7422,note_off,107,0,0,,10,,,69,127
7424,note_on,2,0,0,,4,,,64,127
7529,note_off,105,0,0,,1,,,61,127
7531,note_off,2,0,0,,4,,,64,127
7533,note_on,2,0,0,,1,,,73,127
7533,note_on,0,0,0,,10,,,69,127
7640,note_off,107,0,0,,10,,,45,127
7642,note_on,2,0,0,,4,,,64,127
7749,note_off,107,0,0,,4,,,64,127
7749,note_off,0,0,0,,10,,,69,127
7749,note_off,0,0,0,,1,,,73,127
7751,note_on,2,0,0,,1,,,61,127
7751,note_on,0,0,0,,1,,,73,127
7751,note_on,0,0,0,,10,,,69,127
7858,note_off,107,0,0,,1,,,61,127
7860,note_on,2,0,0,,10,,,57,127
7967,note_off,107,0,0,,10,,,57,127
7967,note_off,0,0,0,,10,,,69,127
7967,note_off,0,0,0,,1,,,73,127
7969,note_on,2,0,0,,4,,,40,127
7969,note_on,0,0,0,,1,,,73,127
7969,note_on,0,0,0,,10,,,69,127
8186,note_off,217,0,0,,10,,,69,127
8186,note_off,0,0,0,,1,,,73,127
8188,note_on,2,0,0,,8,,,68,127
8188,note_on,0,0,0,,12,,,71,127
8295,note_off,107,0,0,,8,,,68,127
8297,note_on,2,0,0,,4,,,64,127
8404,note_off,107,0,0,,4,,,64,127
8404,note_off,0,0,0,,12,,,71,127
8406,note_on,2,0,0,,12,,,71,127
8406,note_on,0,0,0,,2,,,74,127
8513,note_off,107,0,0,,4,,,40,127
8515,note_on,2,0,0,,2,,,62,127
8622,note_off,107,0,0,,2,,,62,127
8622,note_off,0,0,0,,2,,,74,127
8622,note_off,0,0,0,,12,,,71,127
8624,note_on,2,0,0,,12,,,59,127
8624,note_on,0,0,0,,12,,,71,127
8624,note_on,0,0,0,,2,,,74,127
8731,note_off,107,0,0,,12,,,59,127
8733,note_on,2,0,0,,8,,,56,127
8840,note_off,107,0,0,,8,,,56,127
8840,note_off,0,0,0,,2,,,74,127
8840,note_off,0,0,0,,12,,,71,127
8842,note_on,2,0,0,,10,,,33,127
8842,note_on,0,0,0,,12,,,71,127
8842,note_on,0,0,0,,2,,,74,127
9059,note_off,217,0,0,,2,,,74,127
9059,note_off,0,0,0,,12,,,71,127
9061,note_on,2,0,0,,1,,,73,127
9171,note_on,110,0,0,,10,,,69,127
9244,note_off,73,0,0,,1,,,73,127
9290,note_off,46,0,0,,10,,,69,127
9290,note_on,0,0,0,,4,,,76,127
9388,note_off,98,0,0,,10,,,33,127
9399,note_on,11,0,0,,4,,,64,127
9506,note_off,107,0,0,,4,,,64,127
9506,note_off,0,0,0,,4,,,76,127
9508,note_on,2,0,0,,1,,,61,127
9508,note_on,0,0,0,,4,,,76,127
9615,note_off,107,0,0,,1,,,61,127
9617,note_on,2,0,0,,10,,,57,127
9724,note_off,107,0,0,,10,,,57,127
9724,note_off,0,0,0,,4,,,76,127
9726,note_on,2,0,0,,8,,,56,127
9726,note_on,0,0,0,,4,,,76,127
9833,note_off,107,0,0,,8,,,56,127
9835,note_on,2,0,0,,4,,,64,127
9942,note_off,107,0,0,,4,,,64,127
9942,note_off,0,0,0,,4,,,76,127
9944,note_on,2,0,0,,12,,,59,127
9944,note_on,0,0,0,,12,,,71,127
10051,note_off,107,0,0,,12,,,71,127
10051,note_off,0,0,0,,12,,,59,127
10053,note_on,2,0,0,,8,,,56,127
10053,note_on,0,0,0,,4,,,76,127
10160,note_off,107,0,0,,4,,,76,127
10160,note_off,0,0,0,,8,,,56,127
10162,note_on,2,0,0,,10,,,57,127
10162,note_on,0,0,0,,4,,,76,127
10269,note_off,107,0,0,,10,,,57,127
10271,note_on,2,0,0,,4,,,64,127
10378,note_off,107,0,0,,4,,,64,127
10378,note_off,0,0,0,,4,,,76,127
10380,note_on,2,0,0,,1,,,61,127
10380,note_on,0,0,0,,1,,,73,127
10487,note_off,107,0,0,,1,,,73,127
10487,note_off,0,0,0,,1,,,61,127
10489,note_on,2,0,0,,10,,,57,127
10489,note_on,0,0,0,,4,,,76,127
10596,note_off,107,0,0,,4,,,76,127
10596,note_off,0,0,0,,10,,,57,127
10598,note_on,2,0,0,,8,,,56,127
10598,note_on,0,0,0,,4,,,76,127
10705,note_off,107,0,0,,8,,,56,127
10707,note_on,2,0,0,,4,,,64,127
10814,note_off,107,0,0,,4,,,64,127
10814,note_off,0,0,0,,4,,,76,127
10816,note_on,2,0,0,,12,,,59,127
10816,note_on,0,0,0,,12,,,71,127
10923,note_off,107,0,0,,12,,,71,127
10923,note_off,0,0,0,,12,,,59,127
10925,note_on,2,0,0,,8,,,56,127
10925,note_on,0,0,0,,4,,,76,127
11032,note_off,107,0,0,,4,,,76,127
11032,note_off,0,0,0,,8,,,56,127
11034,note_on,2,0,0,,6,,,54,127
11034,note_on,0,0,0,,4,,,76,127
11141,note_off,107,0,0,,6,,,54,127
11143,note_on,2,0,0,,4,,,64,127
11250,note_off,107,0,0,,4,,,64,127
11250,note_off,0,0,0,,4,,,76,127
11252,note_on,2,0,0,,10,,,57,127
11252,note_on,0,0,0,,10,,,69,127
11359,note_off,107,0,0,,10,,,69,127
11359,note_off,0,0,0,,10,,,57,127
11361,note_on,2,0,0,,6,,,54,127
11361,note_on,0,0,0,,4,,,76,127
11468,note_off,107,0,0,,4,,,76,127
11468,note_off,0,0,0,,6,,,54,127
11470,note_on,2,0,0,,4,,,52,127
11470,note_on,0,0,0,,4,,,76,127
11577,note_off,107,0,0,,4,,,52,127
11579,note_on,2,0,0,,4,,,64,127
11686,note_off,107,0,0,,4,,,64,127
11686,note_off,0,0,0,,4,,,76,127
11688,note_on,2,0,0,,12,,,59,127
11688,note_on,0,0,0,,8,,,68,127
11795,note_off,107,0,0,,8,,,68,127
11795,note_off,0,0,0,,12,,,59,127
11797,note_on,2,0,0,,8,,,56,127
11797,note_on,0,0,0,,4,,,76,127
11904,note_off,107,0,0,,4,,,76,127
11904,note_off,0,0,0,,8,,,56,127
11906,note_on,2,0,0,,10,,,57,127
11906,note_on,0,0,0,,4,,,76,127
12013,note_off,107,0,0,,4,,,76,127
12013,note_off,0,0,0,,10,,,57,127
12015,note_on,2,0,0,,4,,,64,127
12015,note_on,0,0,0,,1,,,73,127
12122,note_off,107,0,0,,1,,,73,127
12122,note_off,0,0,0,,4,,,64,127
12124,note_on,2,0,0,,1,,,61,127
12124,note_on,0,0,0,,4,,,76,127
12231,note_off,107,0,0,,4,,,76,127
12231,note_off,0,0,0,,1,,,61,127
12233,note_on,2,0,0,,10,,,57,127
12233,note_on,0,0,0,,8,,,80,127
12340,note_off,107,0,0,,8,,,80,127
12340,note_off,0,0,0,,10,,,57,127
12342,note_on,2,0,0,,8,,,56,127
12342,note_on,0,0,0,,4,,,76,127
12449,note_off,107,0,0,,4,,,76,127
12449,note_off,0,0,0,,8,,,56,127
12451,note_on,2,0,0,,4,,,64,127
12451,note_on,0,0,0,,12,,,71,127
12558,note_off,107,0,0,,12,,,71,127
12558,note_off,0,0,0,,4,,,64,127
12560,note_on,2,0,0,,12,,,59,127
12560,note_on,0,0,0,,4,,,76,127
12667,note_off,107,0,0,,4,,,76,127
12667,note_off,0,0,0,,12,,,59,127
12669,note_on,2,0,0,,8,,,56,127
12669,note_on,0,0,0,,8,,,80,127
12776,note_off,107,0,0,,8,,,80,127
12776,note_off,0,0,0,,8,,,56,127
12778,note_on,2,0,0,,6,,,54,127
12778,note_on,0,0,0,,4,,,76,127
12885,note_off,107,0,0,,4,,,76,127
12885,note_off,0,0,0,,6,,,54,127
12887,note_on,2,0,0,,4,,,64,127
12887,note_on,0,0,0,,10,,,69,127
12994,note_off,107,0,0,,10,,,69,127
12994,note_off,0,0,0,,4,,,64,127
12996,note_on,2,0,0,,10,,,57,127
12996,note_on,0,0,0,,4,,,76,127
13103,note_off,107,0,0,,4,,,76,127
13103,note_off,0,0,0,,10,,,57,127
13105,note_on,2,0,0,,6,,,54,127
13105,note_on,0,0,0,,8,,,80,127
13212,note_off,107,0,0,,6,,,54,127
13222,note_off,10,0,0,,8,,,80,127
13223,note_on,1,0,0,,4,,,52,127
13223,note_on,0,0,0,,8,,,68,127
13330,note_off,107,0,0,,8,,,68,127
13330,note_off,0,0,0,,4,,,52,127
13332,note_on,2,0,0,,4,,,64,127
13332,note_on,0,0,0,,12,,,71,127
13439,note_off,107,0,0,,12,,,71,127
13439,note_off,0,0,0,,4,,,64,127
13441,note_on,2,0,0,,12,,,59,127
13441,note_on,0,0,0,,4,,,76,127
13548,note_off,107,0,0,,4,,,76,127
13548,note_off,0,0,0,,12,,,59,127
13550,note_on,2,0,0,,8,,,56,127
13550,note_on,0,0,0,,8,,,80,127
13657,note_off,107,0,0,,8,,,80,127
13657,note_off,0,0,0,,8,,,56,127
13659,note_on,2,0,0,,4,,,52,127
13659,note_on,0,0,0,,12,,,83,127
13766,note_off,107,0,0,,12,,,83,127
13768,note_on,2,0,0,,8,,,80,127
13875,note_off,107,0,0,,8,,,80,127
13875,note_off,0,0,0,,4,,,52,127
13877,note_on,2,0,0,,8,,,56,127
13877,note_on,0,0,0,,4,,,76,127
13984,note_off,107,0,0,,4,,,76,127
13986,note_on,2,0,0,,12,,,71,127
14093,note_off,107,0,0,,12,,,71,127
14093,note_off,0,0,0,,8,,,56,127
14095,note_on,2,0,0,,10,,,57,127
14095,note_on,0,0,0,,1,,,73,127
14202,note_off,107,0,0,,1,,,73,127
14202,note_off,0,0,0,,10,,,57,127
14204,note_on,2,0,0,,10,,,45,127
14204,note_on,0,0,0,,1,,,85,127
14311,note_off,107,0,0,,1,,,85,127
14311,note_off,0,0,0,,10,,,45,127
14313,note_on,2,0,0,,1,,,49,127
14313,note_on,0,0,0,,10,,,81,127
14420,note_off,107,0,0,,10,,,81,127
14420,note_off,0,0,0,,1,,,49,127
14422,note_on,2,0,0,,4,,,52,127
14422,note_on,0,0,0,,4,,,76,127
14529,note_off,107,0,0,,4,,,76,127
14529,note_off,0,0,0,,4,,,52,127
14531,note_on,2,0,0,,10,,,57,127
14531,note_on,0,0,0,,1,,,73,127
14638,note_off,107,0,0,,1,,,73,127
14640,note_on,2,0,0,,10,,,69,127
14747,note_off,107,0,0,,10,,,69,127
14747,note_off,0,0,0,,10,,,57,127
14749,note_on,2,0,0,,10,,,45,127
14749,note_on,0,0,0,,1,,,73,127
14856,note_off,107,0,0,,1,,,73,127
14858,note_on,2,0,0,,10,,,81,127
14965,note_off,107,0,0,,10,,,45,127
14966,note_off,1,0,0,,10,,,81,127
14974,note_on,8,0,0,,12,,,71,127
15086,note_on,112,0,0,,8,,,68,127
15191,note_off,105,0,0,,12,,,71,127
15193,note_off,2,0,0,,8,,,68,127
15195,note_on,2,0,0,,6,,,66,127
15195,note_on,0,0,0,,8,,,80,127
15302,note_off,107,0,0,,8,,,80,127
15302,note_off,0,0,0,,6,,,66,127
15304,note_on,2,0,0,,4,,,64,127
15304,note_on,0,0,0,,4,,,76,127
15411,note_off,107,0,0,,4,,,76,127
15411,note_off,0,0,0,,4,,,64,127
15413,note_on,2,0,0,,3,,,63,127
15413,note_on,0,0,0,,12,,,83,127
15520,note_off,107,0,0,,3,,,63,127
15522,note_on,2,0,0,,1,,,61,127
15629,note_off,107,0,0,,1,,,61,127
15629,note_off,0,0,0,,12,,,83,127
15631,note_on,2,0,0,,12,,,59,127
15631,note_on,0,0,0,,12,,,83,127
15738,note_off,107,0,0,,12,,,59,127
15740,note_on,2,0,0,,10,,,57,127
15847,note_off,107,0,0,,10,,,57,127
15847,note_off,0,0,0,,12,,,83,127
15849,note_on,2,0,0,,8,,,56,127
15849,note_on,0,0,0,,12,,,83,127
15956,note_off,107,0,0,,8,,,56,127
15958,note_on,2,0,0,,4,,,64,127
16065,note_off,107,0,0,,4,,,64,127
16065,note_off,0,0,0,,12,,,83,127
16067,note_on,2,0,0,,3,,,63,127
16067,note_on,0,0,0,,4,,,76,127
16174,note_off,107,0,0,,4,,,76,127
16174,note_off,0,0,0,,3,,,63,127
16176,note_on,2,0,0,,1,,,61,127
16176,note_on,0,0,0,,12,,,71,127
16283,note_off,107,0,0,,12,,,71,127
16283,note_off,0,0,0,,1,,,61,127
16285,note_on,2,0,0,,12,,,59,127
16285,note_on,0,0,0,,6,,,78,127
16392,note_off,107,0,0,,12,,,59,127
16394,note_on,2,0,0,,10,,,57,127
16501,note_off,107,0,0,,10,,,57,127
16503,note_on,2,0,0,,8,,,56,127
16574,note_off,71,0,0,,6,,,78,127
16576,note_on,2,0,0,,8,,,80,127
16610,note_off,34,0,0,,8,,,56,127
16612,note_on,2,0,0,,6,,,54,127
16646,note_off,34,0,0,,8,,,80,127
16648,note_on,2,0,0,,10,,,81,127
16719,note_off,71,0,0,,10,,,81,127
16719,note_off,0,0,0,,6,,,54,127
16721,note_on,2,0,0,,4,,,52,127
16721,note_on,0,0,0,,8,,,80,127
16828,note_off,107,0,0,,4,,,52,127
16830,note_on,2,0,0,,8,,,68,127
16937,note_off,107,0,0,,8,,,68,127
16937,note_off,0,0,0,,8,,,80,127
16939,note_on,2,0,0,,6,,,66,127
16939,note_on,0,0,0,,4,,,76,127
17046,note_off,107,0,0,,4,,,76,127
17046,note_off,0,0,0,,6,,,66,127
17048,note_on,2,0,0,,4,,,64,127
17048,note_on,0,0,0,,12,,,71,127
17155,note_off,107,0,0,,12,,,71,127
17155,note_off,0,0,0,,4,,,64,127
17157,note_on,2,0,0,,3,,,63,127
17157,note_on,0,0,0,,12,,,83,127
17264,note_off,107,0,0,,3,,,63,127
17266,note_on,2,0,0,,1,,,61,127
17373,note_off,107,0,0,,1,,,61,127
17373,note_off,0,0,0,,12,,,83,127
17375,note_on,2,0,0,,12,,,59,127
17375,note_on,0,0,0,,12,,,83,127
17482,note_off,107,0,0,,12,,,59,127
17484,note_on,2,0,0,,10,,,57,127
17591,note_off,107,0,0,,10,,,57,127
17591,note_off,0,0,0,,12,,,83,127
17593,note_on,2,0,0,,8,,,56,127
17593,note_on,0,0,0,,12,,,83,127
17700,note_off,107,0,0,,8,,,56,127
17702,note_on,2,0,0,,4,,,64,127
17809,note_off,107,0,0,,4,,,64,127
17809,note_off,0,0,0,,12,,,83,127
17811,note_on,2,0,0,,3,,,63,127
17811,note_on,0,0,0,,4,,,76,127
17918,note_off,107,0,0,,4,,,76,127
17918,note_off,0,0,0,,3,,,63,127
17920,note_on,2,0,0,,1,,,61,127
17920,note_on,0,0,0,,12,,,71,127
18027,note_off,107,0,0,,12,,,71,127
18027,note_off,0,0,0,,1,,,61,127
18029,note_on,2,0,0,,12,,,59,127
18029,note_on,0,0,0,,6,,,78,127
18136,note_off,107,0,0,,12,,,59,127
18138,note_on,2,0,0,,10,,,57,127
18245,note_off,107,0,0,,10,,,57,127
18247,note_on,2,0,0,,8,,,56,127
18318,note_off,71,0,0,,6,,,78,127
18320,note_on,2,0,0,,8,,,80,127
18354,note_off,34,0,0,,8,,,56,127
18356,note_on,2,0,0,,6,,,54,127
18390,note_off,34,0,0,,8,,,80,127
18392,note_on,2,0,0,,10,,,81,127
18463,note_off,71,0,0,,10,,,81,127
18463,note_off,0,0,0,,6,,,54,127
18465,note_on,2,0,0,,4,,,52,127
18465,note_on,0,0,0,,8,,,80,127
18572,note_off,107,0,0,,8,,,80,127
18574,note_on,2,0,0,,12,,,83,127
18681,note_off,107,0,0,,12,,,83,127
18681,note_off,0,0,0,,4,,,52,127
18683,note_on,2,0,0,,10,,,57,127
18683,note_on,0,0,0,,1,,,73,127
18790,note_off,107,0,0,,1,,,73,127
18792,note_on,2,0,0,,1,,,85,127
18899,note_off,107,0,0,,1,,,85,127
18899,note_off,0,0,0,,10,,,57,127
18901,note_on,2,0,0,,12,,,59,127
18901,note_on,0,0,0,,12,,,83,127
19008,note_off,107,0,0,,12,,,83,127
19010,note_on,2,0,0,,4,,,76,127
19117,note_off,107,0,0,,4,,,76,127
19117,note_off,0,0,0,,12,,,59,127
19119,note_on,2,0,0,,12,,,47,127
19119,note_on,0,0,0,,3,,,75,127
19226,note_off,107,0,0,,3,,,75,127
19228,note_on,2,0,0,,6,,,78,127
19335,note_off,107,0,0,,6,,,78,127
19335,note_off,0,0,0,,12,,,47,127
19337,note_on,2,0,0,,4,,,76,127
19460,note_on,123,0,0,,7,,,67,127
19554,note_off,94,0,0,,4,,,76,127
19568,note_off,14,0,0,,7,,,67,127
19575,note_on,7,0,0,,7,,,79,127
19575,note_on,0,0,0,,6,,,66,127
19682,note_off,107,0,0,,6,,,66,127
19682,note_off,0,0,0,,7,,,79,127
19684,note_on,2,0,0,,4,,,76,127
19684,note_on,0,0,0,,4,,,64,127
19791,note_off,107,0,0,,4,,,64,127
19791,note_off,0,0,0,,4,,,76,127
19793,note_on,2,0,0,,12,,,83,127
19793,note_on,0,0,0,,3,,,63,127
19900,note_off,107,0,0,,3,,,63,127
19902,note_on,2,0,0,,0,,,60,127
20009,note_off,107,0,0,,0,,,60,127
20009,note_off,0,0,0,,12,,,83,127
20011,note_on,2,0,0,,12,,,83,127
20011,note_on,0,0,0,,12,,,59,127
20118,note_off,107,0,0,,12,,,59,127
20120,note_on,2,0,0,,10,,,57,127
20227,note_off,107,0,0,,10,,,57,127
20227,note_off,0,0,0,,12,,,83,127
20229,note_on,2,0,0,,12,,,83,127
20229,note_on,0,0,0,,7,,,55,127
20336,note_off,107,0,0,,7,,,55,127
20338,note_on,2,0,0,,4,,,64,127
20445,note_off,107,0,0,,4,,,64,127
20445,note_off,0,0,0,,12,,,83,127
20447,note_on,2,0,0,,4,,,76,127
20447,note_on,0,0,0,,2,,,62,127
20554,note_off,107,0,0,,2,,,62,127
20554,note_off,0,0,0,,4,,,76,127
20556,note_on,2,0,0,,12,,,71,127
20556,note_on,0,0,0,,0,,,60,127
20663,note_off,107,0,0,,0,,,60,127
20663,note_off,0,0,0,,12,,,71,127
20665,note_on,2,0,0,,6,,,78,127
20665,note_on,0,0,0,,12,,,59,127
20772,note_off,107,0,0,,12,,,59,127
20774,note_on,2,0,0,,10,,,57,127
20881,note_off,107,0,0,,10,,,57,127
20883,note_on,2,0,0,,7,,,55,127
20954,note_off,71,0,0,,6,,,78,127
20956,note_on,2,0,0,,7,,,79,127
20990,note_off,34,0,0,,7,,,55,127
20992,note_on,2,0,0,,6,,,54,127
21026,note_off,34,0,0,,7,,,79,127
21028,note_on,2,0,0,,10,,,81,127
21099,note_off,71,0,0,,10,,,81,127
21099,note_off,0,0,0,,6,,,54,127
21101,note_on,2,0,0,,7,,,79,127
21101,note_on,0,0,0,,4,,,52,127
21208,note_off,107,0,0,,4,,,52,127
21210,note_on,2,0,0,,7,,,67,127
21317,note_off,107,0,0,,7,,,67,127
21317,note_off,0,0,0,,7,,,79,127
21319,note_on,2,0,0,,4,,,76,127
21319,note_on,0,0,0,,6,,,66,127
21426,note_off,107,0,0,,6,,,66,127
21426,note_off,0,0,0,,4,,,76,127
21428,note_on,2,0,0,,12,,,71,127
21428,note_on,0,0,0,,4,,,64,127
21535,note_off,107,0,0,,4,,,64,127
21535,note_off,0,0,0,,12,,,71,127
21537,note_on,2,0,0,,12,,,83,127
21537,note_on,0,0,0,,3,,,63,127
21644,note_off,107,0,0,,3,,,63,127
21646,note_on,2,0,0,,0,,,60,127
21753,note_off,107,0,0,,0,,,60,127
21753,note_off,0,0,0,,12,,,83,127
21755,note_on,2,0,0,,12,,,83,127
21755,note_on,0,0,0,,12,,,59,127
21862,note_off,107,0,0,,12,,,59,127
21864,note_on,2,0,0,,10,,,57,127
21971,note_off,107,0,0,,10,,,57,127
21971,note_off,0,0,0,,12,,,83,127
21973,note_on,2,0,0,,12,,,83,127
21973,note_on,0,0,0,,7,,,55,127
22080,note_off,107,0,0,,7,,,55,127
22082,note_on,2,0,0,,4,,,64,127
22189,note_off,107,0,0,,4,,,64,127
22189,note_off,0,0,0,,12,,,83,127
22191,note_on,2,0,0,,4,,,76,127
22191,note_on,0,0,0,,2,,,62,127
22298,note_off,107,0,0,,2,,,62,127
22298,note_off,0,0,0,,4,,,76,127
22300,note_on,2,0,0,,12,,,71,127
22300,note_on,0,0,0,,0,,,60,127
22407,note_off,107,0,0,,0,,,60,127
22407,note_off,0,0,0,,12,,,71,127
22409,note_on,2,0,0,,6,,,78,127
22409,note_on,0,0,0,,12,,,59,127
22516,note_off,107,0,0,,12,,,59,127
22518,note_on,2,0,0,,10,,,57,127
22625,note_off,107,0,0,,10,,,57,127
22627,note_on,2,0,0,,7,,,55,127
22698,note_off,71,0,0,,6,,,78,127
22700,note_on,2,0,0,,7,,,79,127
22734,note_off,34,0,0,,7,,,55,127
22736,note_on,2,0,0,,6,,,54,127
22770,note_off,34,0,0,,7,,,79,127
22772,note_on,2,0,0,,10,,,81,127
22843,note_off,71,0,0,,10,,,81,127
22843,note_off,0,0,0,,6,,,54,127
22845,note_on,2,0,0,,7,,,79,127
22845,note_on,0,0,0,,4,,,52,127
22952,note_off,107,0,0,,7,,,79,127
22954,note_on,2,0,0,,12,,,83,127
23061,note_off,107,0,0,,12,,,83,127
23061,note_off,0,0,0,,4,,,52,127
23063,note_on,2,0,0,,4,,,76,127
23063,note_on,0,0,0,,10,,,57,127
23170,note_off,107,0,0,,4,,,76,127
23172,note_on,2,0,0,,0,,,84,127
23279,note_off,107,0,0,,0,,,84,127
23279,note_off,0,0,0,,10,,,57,127
23281,note_on,2,0,0,,12,,,83,127
23281,note_on,0,0,0,,12,,,59,127
23388,note_off,107,0,0,,12,,,83,127
23390,note_on,2,0,0,,4,,,76,127
23497,note_off,107,0,0,,4,,,76,127
23497,note_off,0,0,0,,12,,,59,127
23499,note_on,2,0,0,,3,,,75,127
23499,note_on,0,0,0,,12,,,47,127
23606,note_off,107,0,0,,3,,,75,127
23608,note_on,2,0,0,,6,,,78,127
23715,note_off,107,0,0,,6,,,78,127
23715,note_off,0,0,0,,12,,,47,127
23722,note_on,7,0,0,,4,,,52,127
23722,note_on,0,0,0,,4,,,76,127
23839,note_on,117,0,0,,12,,,59,127
23841,note_off,2,0,0,,4,,,52,127
23946,note_off,105,0,0,,12,,,59,127
23947,note_off,1,0,0,,4,,,76,127
23955,note_on,8,0,0,,8,,,56,127
23955,note_on,0,0,0,,4,,,76,127
23955,note_on,0,0,0,,8,,,68,127
24062,note_off,107,0,0,,8,,,68,127
24062,note_off,0,0,0,,8,,,56,127
24064,note_on,2,0,0,,4,,,52,127
24064,note_on,0,0,0,,4,,,64,127
24171,note_off,107,0,0,,4,,,64,127
24171,note_off,0,0,0,,4,,,52,127
24171,note_off,0,0,0,,4,,,76,127
24173,note_on,2,0,0,,3,,,51,127
24173,note_on,0,0,0,,6,,,78,127
24173,note_on,0,0,0,,12,,,71,127
24280,note_off,107,0,0,,3,,,51,127
24282,note_on,2,0,0,,6,,,54,127
24389,note_off,107,0,0,,6,,,54,127
24389,note_off,0,0,0,,12,,,71,127
24389,note_off,0,0,0,,6,,,78,127
24391,note_on,2,0,0,,12,,,47,127
24391,note_on,0,0,0,,10,,,81,127
24391,note_on,0,0,0,,3,,,75,127
24498,note_off,107,0,0,,12,,,47,127
24500,note_on,2,0,0,,12,,,59,127
24607,note_off,107,0,0,,12,,,59,127
24607,note_off,0,0,0,,3,,,75,127
24607,note_off,0,0,0,,10,,,81,127
24609,note_on,2,0,0,,4,,,52,127
24609,note_on,0,0,0,,8,,,80,127
24609,note_on,0,0,0,,4,,,76,127
24716,note_off,107,0,0,,4,,,52,127
24718,note_on,2,0,0,,12,,,59,127
24825,note_off,107,0,0,,12,,,59,127
24825,note_off,0,0,0,,4,,,76,127
24825,note_off,0,0,0,,8,,,80,127
24827,note_on,2,0,0,,8,,,56,127
24827,note_on,0,0,0,,4,,,76,127
24827,note_on,0,0,0,,8,,,68,127
24934,note_off,107,0,0,,8,,,68,127
24934,note_off,0,0,0,,8,,,56,127
24936,note_on,2,0,0,,4,,,52,127
24936,note_on,0,0,0,,4,,,64,127
25043,note_off,107,0,0,,4,,,64,127
25043,note_off,0,0,0,,4,,,52,127
25043,note_off,0,0,0,,4,,,76,127
25045,note_on,2,0,0,,3,,,51,127
25045,note_on,0,0,0,,6,,,78,127
25045,note_on,0,0,0,,12,,,71,127
25152,note_off,107,0,0,,3,,,51,127
25154,note_on,2,0,0,,6,,,54,127
25261,note_off,107,0,0,,6,,,54,127
25261,note_off,0,0,0,,12,,,71,127
25261,note_off,0,0,0,,6,,,78,127
25263,note_on,2,0,0,,12,,,47,127
25263,note_on,0,0,0,,10,,,81,127
25263,note_on,0,0,0,,3,,,75,127
25370,note_off,107,0,0,,12,,,47,127
25372,note_on,2,0,0,,12,,,59,127
25479,note_off,107,0,0,,12,,,59,127
25479,note_off,0,0,0,,3,,,75,127
25479,note_off,0,0,0,,10,,,81,127
25481,note_on,2,0,0,,4,,,52,127
25481,note_on,0,0,0,,8,,,80,127
25481,note_on,0,0,0,,4,,,76,127
25588,note_off,107,0,0,,8,,,80,127
25590,note_on,2,0,0,,12,,,83,127
25697,note_off,107,0,0,,12,,,83,127
25697,note_off,0,0,0,,4,,,76,127
25697,note_off,0,0,0,,4,,,52,127
25699,note_on,2,0,0,,10,,,57,127
25699,note_on,0,0,0,,1,,,73,127
25809,note_on,110,0,0,,10,,,81,127
25916,note_off,107,0,0,,10,,,81,127
25916,note_off,0,0,0,,1,,,73,127
25916,note_off,0,0,0,,10,,,57,127
25918,note_on,2,0,0,,12,,,59,127
25918,note_on,0,0,0,,8,,,80,127
25918,note_on,0,0,0,,12,,,71,127
26025,note_off,107,0,0,,8,,,80,127
26027,note_on,2,0,0,,4,,,76,127
26134,note_off,107,0,0,,4,,,76,127
26134,note_off,0,0,0,,12,,,71,127
26134,note_off,0,0,0,,12,,,59,127
26136,note_on,2,0,0,,12,,,47,127
26136,note_on,0,0,0,,10,,,69,127
26136,note_on,0,0,0,,6,,,78,127
26243,note_off,107,0,0,,6,,,78,127
26245,note_on,2,0,0,,3,,,75,127
26352,note_off,107,0,0,,3,,,75,127
26352,note_off,0,0,0,,10,,,69,127
26352,note_off,0,0,0,,12,,,47,127
26357,note_on,5,0,0,,4,,,76,127
26357,note_on,0,0,0,,8,,,68,127
26357,note_on,0,0,0,,4,,,52,127
26477,note_off,120,0,0,,4,,,52,127
26480,note_on,3,0,0,,12,,,59,127
26574,note_off,94,0,0,,8,,,68,127
26584,note_off,10,0,0,,4,,,76,127
26592,note_on,8,0,0,,4,,,76,127
26592,note_on,0,0,0,,8,,,80,127
26592,note_on,0,0,0,,8,,,56,127
26598,note_off,6,0,0,,12,,,59,127
26700,note_off,102,0,0,,8,,,56,127
26700,note_off,0,0,0,,4,,,76,127
26702,note_on,2,0,0,,12,,,71,127
26702,note_on,0,0,0,,4,,,52,127
26809,note_off,107,0,0,,4,,,52,127
26809,note_off,0,0,0,,12,,,71,127
26809,note_off,0,0,0,,8,,,80,127
26811,note_on,2,0,0,,6,,,78,127
26811,note_on,0,0,0,,10,,,69,127
26811,note_on,0,0,0,,3,,,51,127
26918,note_off,107,0,0,,3,,,51,127
26920,note_on,2,0,0,,6,,,54,127
27027,note_off,107,0,0,,6,,,54,127
27027,note_off,0,0,0,,10,,,69,127
27027,note_off,0,0,0,,6,,,78,127
27029,note_on,2,0,0,,3,,,75,127
27029,note_on,0,0,0,,6,,,66,127
27029,note_on,0,0,0,,12,,,47,127
27136,note_off,107,0,0,,12,,,47,127
27138,note_on,2,0,0,,12,,,59,127
27245,note_off,107,0,0,,12,,,59,127
27245,note_off,0,0,0,,6,,,66,127
27245,note_off,0,0,0,,3,,,75,127
27247,note_on,2,0,0,,8,,,68,127
27247,note_on,0,0,0,,4,,,76,127
27247,note_on,0,0,0,,4,,,52,127
27354,note_off,107,0,0,,4,,,52,127
27356,note_on,2,0,0,,12,,,59,127
27463,note_off,107,0,0,,12,,,59,127
27463,note_off,0,0,0,,4,,,76,127
27463,note_off,0,0,0,,8,,,68,127
27465,note_on,2,0,0,,8,,,80,127
27465,note_on,0,0,0,,4,,,76,127
27465,note_on,0,0,0,,8,,,56,127
27572,note_off,107,0,0,,8,,,56,127
27572,note_off,0,0,0,,4,,,76,127
27574,note_on,2,0,0,,12,,,71,127
27574,note_on,0,0,0,,4,,,52,127
27681,note_off,107,0,0,,4,,,52,127
27681,note_off,0,0,0,,12,,,71,127
27681,note_off,0,0,0,,8,,,80,127
27683,note_on,2,0,0,,6,,,78,127
27683,note_on,0,0,0,,10,,,69,127
27683,note_on,0,0,0,,3,,,51,127
27790,note_off,107,0,0,,3,,,51,127
27792,note_on,2,0,0,,6,,,54,127
27899,note_off,107,0,0,,6,,,54,127
27899,note_off,0,0,0,,10,,,69,127
27899,note_off,0,0,0,,6,,,78,127
27901,note_on,2,0,0,,3,,,75,127
27901,note_on,0,0,0,,6,,,66,127
27901,note_on,0,0,0,,12,,,47,127
28008,note_off,107,0,0,,12,,,47,127
28010,note_on,2,0,0,,12,,,59,127
28117,note_off,107,0,0,,12,,,59,127
28117,note_off,0,0,0,,6,,,66,127
28117,note_off,0,0,0,,3,,,75,127
28119,note_on,2,0,0,,4,,,76,127
28119,note_on,0,0,0,,8,,,68,127
28119,note_on,0,0,0,,4,,,52,127
28226,note_off,107,0,0,,4,,,76,127
28228,note_on,2,0,0,,12,,,71,127
28335,note_off,107,0,0,,12,,,71,127
28335,note_off,0,0,0,,4,,,52,127
28335,note_off,0,0,0,,8,,,68,127
28337,note_on,2,0,0,,1,,,73,127
28337,note_on,0,0,0,,10,,,57,127
28444,note_off,107,0,0,,1,,,73,127
28446,note_on,2,0,0,,10,,,69,127
28553,note_off,107,0,0,,10,,,69,127
28553,note_off,0,0,0,,10,,,57,127
28555,note_on,2,0,0,,8,,,68,127
28555,note_on,0,0,0,,12,,,59,127
28662,note_off,107,0,0,,8,,,68,127
28664,note_on,2,0,0,,4,,,64,127
28771,note_off,107,0,0,,4,,,64,127
28771,note_off,0,0,0,,12,,,59,127
28773,note_on,2,0,0,,3,,,63,127
28773,note_on,0,0,0,,12,,,47,127
28880,note_off,107,0,0,,3,,,63,127
28882,note_on,2,0,0,,6,,,66,127
28989,note_off,107,0,0,,6,,,66,127
28989,note_off,0,0,0,,12,,,47,127
28991,note_on,2,0,0,,4,,,64,127
28991,note_on,0,0,0,,4,,,52,127
29098,note_off,107,0,0,,4,,,64,127
29100,note_on,2,0,0,,12,,,59,127
29207,note_off,107,0,0,,12,,,59,127
29207,note_off,0,0,0,,4,,,52,127
29209,note_on,2,0,0,,1,,,61,127
29209,note_on,0,0,0,,10,,,45,127
29316,note_off,107,0,0,,1,,,61,127
29318,note_on,2,0,0,,10,,,57,127
29425,note_off,107,0,0,,10,,,57,127
29425,note_off,0,0,0,,10,,,45,127
29427,note_on,2,0,0,,8,,,56,127
29427,note_on,0,0,0,,12,,,47,127
29534,note_off,107,0,0,,8,,,56,127
29536,note_on,2,0,0,,4,,,64,127
29643,note_off,107,0,0,,4,,,64,127
29643,note_off,0,0,0,,12,,,47,127
29645,note_on,2,0,0,,6,,,54,127
29645,note_on,0,0,0,,12,,,35,127
29752,note_off,107,0,0,,6,,,54,127
29754,note_on,2,0,0,,3,,,63,127
29861,note_off,107,0,0,,3,,,63,127
29861,note_off,0,0,0,,12,,,35,127
29863,note_on,2,0,0,,4,,,40,127
29863,note_on,0,0,0,,4,,,64,127
29970,note_off,107,0,0,,4,,,40,127
29991,note_on,21,0,0,,12,,,59,127
30080,note_off,89,0,0,,4,,,64,127
30098,note_off,18,0,0,,12,,,59,127
30100,note_on,2,0,0,,8,,,68,127
30100,note_on,0,0,0,,8,,,56,127
30207,note_off,107,0,0,,8,,,56,127
30207,note_off,0,0,0,,8,,,68,127
30209,note_on,2,0,0,,4,,,64,127
30209,note_on,0,0,0,,6,,,54,127
30316,note_off,107,0,0,,6,,,54,127
30316,note_off,0,0,0,,4,,,64,127
30318,note_on,2,0,0,,12,,,71,127
30318,note_on,0,0,0,,4,,,52,127
30425,note_off,107,0,0,,4,,,52,127
30427,note_on,2,0,0,,12,,,59,127
30534,note_off,107,0,0,,12,,,59,127
30534,note_off,0,0,0,,12,,,71,127
30536,note_on,2,0,0,,12,,,71,127
30536,note_on,0,0,0,,8,,,56,127
30643,note_off,107,0,0,,8,,,56,127
30645,note_on,2,0,0,,6,,,54,127
30752,note_off,107,0,0,,6,,,54,127
30752,note_off,0,0,0,,12,,,71,127
30754,note_on,2,0,0,,12,,,71,127
30754,note_on,0,0,0,,4,,,52,127
30861,note_off,107,0,0,,4,,,52,127
30863,note_on,2,0,0,,12,,,59,127
30970,note_off,107,0,0,,12,,,59,127
30970,note_off,0,0,0,,12,,,71,127
30972,note_on,2,0,0,,8,,,68,127
30972,note_on,0,0,0,,8,,,56,127
31079,note_off,107,0,0,,8,,,56,127
31079,note_off,0,0,0,,8,,,68,127
31081,note_on,2,0,0,,4,,,64,127
31081,note_on,0,0,0,,6,,,54,127
31188,note_off,107,0,0,,6,,,54,127
31188,note_off,0,0,0,,4,,,64,127
31190,note_on,2,0,0,,12,,,71,127
31190,note_on,0,0,0,,4,,,52,127
31297,note_off,107,0,0,,4,,,52,127
31299,note_on,2,0,0,,12,,,59,127
31406,note_off,107,0,0,,12,,,59,127
31406,note_off,0,0,0,,12,,,71,127
31408,note_on,2,0,0,,12,,,71,127
31408,note_on,0,0,0,,8,,,56,127
31515,note_off,107,0,0,,8,,,56,127
31517,note_on,2,0,0,,6,,,54,127
31624,note_off,107,0,0,,6,,,54,127
31624,note_off,0,0,0,,12,,,71,127
31626,note_on,2,0,0,,12,,,71,127
31626,note_on,0,0,0,,4,,,52,127
31733,note_off,107,0,0,,4,,,52,127
31735,note_on,2,0,0,,2,,,62,127
31842,note_off,107,0,0,,2,,,62,127
31844,note_on,2,0,0,,1,,,61,127
31951,note_off,107,0,0,,1,,,61,127
31951,note_off,0,0,0,,12,,,71,127
31953,note_on,2,0,0,,2,,,74,127
31953,note_on,0,0,0,,12,,,59,127
32060,note_off,107,0,0,,12,,,59,127
32060,note_off,0,0,0,,2,,,74,127
32062,note_on,2,0,0,,1,,,73,127
32062,note_on,0,0,0,,10,,,57,127
32169,note_off,107,0,0,,10,,,57,127
32169,note_off,0,0,0,,1,,,73,127
32171,note_on,2,0,0,,12,,,71,127
32171,note_on,0,0,0,,8,,,56,127
32278,note_off,107,0,0,,8,,,56,127
32278,note_off,0,0,0,,12,,,71,127
32280,note_on,2,0,0,,10,,,69,127
32280,note_on,0,0,0,,6,,,54,127
32387,note_off,107,0,0,,6,,,54,127
32387,note_off,0,0,0,,10,,,69,127
32389,note_on,2,0,0,,8,,,68,127
32389,note_on,0,0,0,,5,,,53,127
32496,note_off,107,0,0,,5,,,53,127
32496,note_off,0,0,0,,8,,,68,127
32498,note_on,2,0,0,,10,,,69,127
32498,note_on,0,0,0,,6,,,54,127
32605,note_off,107,0,0,,6,,,54,127
32616,note_on,11,0,0,,1,,,61,127
32714,note_off,98,0,0,,10,,,69,127
32723,note_off,9,0,0,,1,,,61,127
32725,note_on,2,0,0,,10,,,69,127
32725,note_on,0,0,0,,10,,,57,127
32832,note_off,107,0,0,,10,,,57,127
32832,note_off,0,0,0,,10,,,69,127
32834,note_on,2,0,0,,6,,,66,127
32834,note_on,0,0,0,,8,,,56,127
32941,note_off,107,0,0,,8,,,56,127
32941,note_off,0,0,0,,6,,,66,127
32943,note_on,2,0,0,,1,,,73,127
32943,note_on,0,0,0,,6,,,54,127
33050,note_off,107,0,0,,6,,,54,127
33052,note_on,2,0,0,,1,,,61,127
33159,note_off,107,0,0,,1,,,61,127
33159,note_off,0,0,0,,1,,,73,127
33161,note_on,2,0,0,,1,,,73,127
33161,note_on,0,0,0,,10,,,57,127
33268,note_off,107,0,0,,10,,,57,127
33270,note_on,2,0,0,,8,,,56,127
33377,note_off,107,0,0,,8,,,56,127
33377,note_off,0,0,0,,1,,,73,127
33379,note_on,2,0,0,,1,,,73,127
33379,note_on,0,0,0,,6,,,54,127
33486,note_off,107,0,0,,6,,,54,127
33488,note_on,2,0,0,,1,,,61,127
33595,note_off,107,0,0,,1,,,61,127
33595,note_off,0,0,0,,1,,,73,127
33597,note_on,2,0,0,,10,,,69,127
33597,note_on,0,0,0,,10,,,57,127
33704,note_off,107,0,0,,10,,,57,127
33704,note_off,0,0,0,,10,,,69,127
33706,note_on,2,0,0,,6,,,66,127
33706,note_on,0,0,0,,8,,,56,127
33813,note_off,107,0,0,,8,,,56,127
33813,note_off,0,0,0,,6,,,66,127
33815,note_on,2,0,0,,1,,,73,127
33815,note_on,0,0,0,,6,,,54,127
33922,note_off,107,0,0,,6,,,54,127
33924,note_on,2,0,0,,1,,,61,127
34031,note_off,107,0,0,,1,,,61,127
34031,note_off,0,0,0,,1,,,73,127
34033,note_on,2,0,0,,1,,,73,127
34033,note_on,0,0,0,,10,,,57,127
34140,note_off,107,0,0,,10,,,57,127
34142,note_on,2,0,0,,8,,,56,127
34249,note_off,107,0,0,,8,,,56,127
34249,note_off,0,0,0,,1,,,73,127
34251,note_on,2,0,0,,1,,,73,127
34251,note_on,0,0,0,,6,,,54,127
34358,note_off,107,0,0,,6,,,54,127
34360,note_on,2,0,0,,4,,,64,127
34467,note_off,107,0,0,,4,,,64,127
34469,note_on,2,0,0,,3,,,63,127
34576,note_off,107,0,0,,3,,,63,127
34576,note_off,0,0,0,,1,,,73,127
34578,note_on,2,0,0,,4,,,76,127
34578,note_on,0,0,0,,1,,,61,127
34685,note_off,107,0,0,,1,,,61,127
34685,note_off,0,0,0,,4,,,76,127
34687,note_on,2,0,0,,3,,,75,127
34687,note_on,0,0,0,,12,,,59,127
34794,note_off,107,0,0,,12,,,59,127
34794,note_off,0,0,0,,3,,,75,127
34796,note_on,2,0,0,,1,,,73,127
34796,note_on,0,0,0,,11,,,58,127
34903,note_off,107,0,0,,11,,,58,127
34903,note_off,0,0,0,,1,,,73,127
34905,note_on,2,0,0,,12,,,71,127
34905,note_on,0,0,0,,8,,,56,127
35012,note_off,107,0,0,,8,,,56,127
35012,note_off,0,0,0,,12,,,71,127
35014,note_on,2,0,0,,11,,,70,127
35014,note_on,0,0,0,,7,,,55,127
35121,note_off,107,0,0,,7,,,55,127
35121,note_off,0,0,0,,11,,,70,127
35123,note_on,2,0,0,,12,,,71,127
35123,note_on,0,0,0,,8,,,56,127
35230,note_off,107,0,0,,8,,,56,127
35241,note_on,11,0,0,,3,,,63,127
35339,note_off,98,0,0,,12,,,71,127
35348,note_off,9,0,0,,3,,,63,127
35350,note_on,2,0,0,,12,,,71,127
35350,note_on,0,0,0,,12,,,59,127
35457,note_off,107,0,0,,12,,,59,127
35457,note_off,0,0,0,,12,,,71,127
35459,note_on,2,0,0,,8,,,68,127
35459,note_on,0,0,0,,11,,,58,127
35566,note_off,107,0,0,,11,,,58,127
35566,note_off,0,0,0,,8,,,68,127
35568,note_on,2,0,0,,3,,,75,127
35568,note_on,0,0,0,,8,,,56,127
35675,note_off,107,0,0,,8,,,56,127
35677,note_on,2,0,0,,3,,,63,127
35784,note_off,107,0,0,,3,,,63,127
35784,note_off,0,0,0,,3,,,75,127
35786,note_on,2,0,0,,3,,,75,127
35786,note_on,0,0,0,,12,,,59,127
35893,note_off,107,0,0,,12,,,59,127
35895,note_on,2,0,0,,11,,,58,127
36002,note_off,107,0,0,,11,,,58,127
36002,note_off,0,0,0,,3,,,75,127
36004,note_on,2,0,0,,3,,,75,127
36004,note_on,0,0,0,,8,,,56,127
36111,note_off,107,0,0,,8,,,56,127
36113,note_on,2,0,0,,3,,,63,127
36220,note_off,107,0,0,,3,,,63,127
36220,note_off,0,0,0,,3,,,75,127
36222,note_on,2,0,0,,12,,,71,127
36222,note_on,0,0,0,,12,,,59,127
36329,note_off,107,0,0,,12,,,59,127
36329,note_off,0,0,0,,12,,,71,127
36331,note_on,2,0,0,,8,,,68,127
36331,note_on,0,0,0,,11,,,58,127
36438,note_off,107,0,0,,11,,,58,127
36438,note_off,0,0,0,,8,,,68,127
36440,note_on,2,0,0,,3,,,75,127
36440,note_on,0,0,0,,8,,,56,127
36547,note_off,107,0,0,,8,,,56,127
36549,note_on,2,0,0,,3,,,63,127
36656,note_off,107,0,0,,3,,,63,127
36656,note_off,0,0,0,,3,,,75,127
36658,note_on,2,0,0,,3,,,75,127
36658,note_on,0,0,0,,12,,,59,127
36765,note_off,107,0,0,,12,,,59,127
36767,note_on,2,0,0,,11,,,58,127
36874,note_off,107,0,0,,11,,,58,127
36874,note_off,0,0,0,,3,,,75,127
36876,note_on,2,0,0,,3,,,75,127
36876,note_on,0,0,0,,8,,,56,127
36983,note_off,107,0,0,,8,,,56,127
36985,note_on,2,0,0,,3,,,63,127
37092,note_off,107,0,0,,3,,,63,127
37092,note_off,0,0,0,,3,,,75,127
37094,note_on,2,0,0,,11,,,70,127
37094,note_on,0,0,0,,11,,,58,127
37201,note_off,107,0,0,,11,,,58,127
37201,note_off,0,0,0,,11,,,70,127
37203,note_on,2,0,0,,6,,,66,127
37203,note_on,0,0,0,,8,,,56,127
37310,note_off,107,0,0,,8,,,56,127
37310,note_off,0,0,0,,6,,,66,127
37312,note_on,2,0,0,,3,,,75,127
37312,note_on,0,0,0,,6,,,54,127
37419,note_off,107,0,0,,6,,,54,127
37421,note_on,2,0,0,,3,,,63,127
37528,note_off,107,0,0,,3,,,63,127
37528,note_off,0,0,0,,3,,,75,127
37530,note_on,2,0,0,,3,,,75,127
37530,note_on,0,0,0,,11,,,58,127
37637,note_off,107,0,0,,11,,,58,127
37639,note_on,2,0,0,,8,,,56,127
37746,note_off,107,0,0,,8,,,56,127
37746,note_off,0,0,0,,3,,,75,127
37748,note_on,2,0,0,,3,,,75,127
37748,note_on,0,0,0,,6,,,54,127
37855,note_off,107,0,0,,6,,,54,127
37857,note_on,2,0,0,,3,,,63,127
37964,note_off,107,0,0,,3,,,63,127
37964,note_off,0,0,0,,3,,,75,127
37966,note_on,2,0,0,,11,,,70,127
37966,note_on,0,0,0,,11,,,58,127
38073,note_off,107,0,0,,11,,,58,127
38073,note_off,0,0,0,,11,,,70,127
38075,note_on,2,0,0,,6,,,66,127
38075,note_on,0,0,0,,8,,,56,127
38182,note_off,107,0,0,,8,,,56,127
38182,note_off,0,0,0,,6,,,66,127
38184,note_on,2,0,0,,3,,,75,127
38184,note_on,0,0,0,,6,,,54,127
38291,note_off,107,0,0,,6,,,54,127
38293,note_on,2,0,0,,3,,,63,127
38400,note_off,107,0,0,,3,,,63,127
38400,note_off,0,0,0,,3,,,75,127
38402,note_on,2,0,0,,3,,,75,127
38402,note_on,0,0,0,,11,,,58,127
38509,note_off,107,0,0,,11,,,58,127
38511,note_on,2,0,0,,8,,,56,127
38618,note_off,107,0,0,,8,,,56,127
38618,note_off,0,0,0,,3,,,75,127
38620,note_on,2,0,0,,3,,,75,127
38620,note_on,0,0,0,,4,,,52,127
38727,note_off,107,0,0,,4,,,52,127
38729,note_on,2,0,0,,1,,,61,127
38836,note_off,107,0,0,,1,,,61,127
38836,note_off,0,0,0,,3,,,75,127
38838,note_on,2,0,0,,1,,,73,127
38838,note_on,0,0,0,,8,,,56,127
38945,note_off,107,0,0,,8,,,56,127
38945,note_off,0,0,0,,1,,,73,127
38947,note_on,2,0,0,,8,,,68,127
38947,note_on,0,0,0,,6,,,54,127
39054,note_off,107,0,0,,6,,,54,127
39054,note_off,0,0,0,,8,,,68,127
39056,note_on,2,0,0,,1,,,73,127
39056,note_on,0,0,0,,4,,,52,127
39163,note_off,107,0,0,,4,,,52,127
39165,note_on,2,0,0,,1,,,61,127
39272,note_off,107,0,0,,1,,,61,127
39272,note_off,0,0,0,,1,,,73,127
39274,note_on,2,0,0,,1,,,73,127
39274,note_on,0,0,0,,8,,,56,127
39381,note_off,107,0,0,,8,,,56,127
39383,note_on,2,0,0,,6,,,54,127
39490,note_off,107,0,0,,6,,,54,127
39490,note_off,0,0,0,,1,,,73,127
39492,note_on,2,0,0,,1,,,73,127
39492,note_on,0,0,0,,4,,,52,127
39599,note_off,107,0,0,,4,,,52,127
39601,note_on,2,0,0,,1,,,61,127
39708,note_off,107,0,0,,1,,,61,127
39708,note_off,0,0,0,,1,,,73,127
39710,note_on,2,0,0,,8,,,68,127
39710,note_on,0,0,0,,8,,,56,127
39817,note_off,107,0,0,,8,,,56,127
39817,note_off,0,0,0,,8,,,68,127
39819,note_on,2,0,0,,4,,,64,127
39819,note_on,0,0,0,,6,,,54,127
39926,note_off,107,0,0,,6,,,54,127
39926,note_off,0,0,0,,4,,,64,127
39928,note_on,2,0,0,,1,,,73,127
39928,note_on,0,0,0,,4,,,52,127
40035,note_off,107,0,0,,4,,,52,127
40037,note_on,2,0,0,,1,,,61,127
40144,note_off,107,0,0,,1,,,61,127
40144,note_off,0,0,0,,1,,,73,127
40146,note_on,2,0,0,,1,,,73,127
40146,note_on,0,0,0,,8,,,56,127
40253,note_off,107,0,0,,8,,,56,127
40255,note_on,2,0,0,,6,,,54,127
40362,note_off,107,0,0,,1,,,73,127
40368,note_off,6,0,0,,6,,,54,127
40374,note_on,6,0,0,,1,,,73,127
40374,note_on,0,0,0,,4,,,52,127
40481,note_off,107,0,0,,4,,,52,127
40483,note_on,2,0,0,,2,,,62,127
40590,note_off,107,0,0,,2,,,62,127
40590,note_off,0,0,0,,1,,,73,127
40592,note_on,2,0,0,,2,,,74,127
40592,note_on,0,0,0,,12,,,59,127
40699,note_off,107,0,0,,12,,,59,127
40701,note_on,2,0,0,,11,,,58,127
40808,note_off,107,0,0,,11,,,58,127
40808,note_off,0,0,0,,2,,,74,127
40810,note_on,2,0,0,,7,,,67,127
40810,note_on,0,0,0,,12,,,59,127
40917,note_off,107,0,0,,12,,,59,127
40919,note_on,2,0,0,,10,,,57,127
41026,note_off,107,0,0,,10,,,57,127
41026,note_off,0,0,0,,7,,,67,127
41028,note_on,2,0,0,,4,,,76,127
41028,note_on,0,0,0,,7,,,55,127
41135,note_off,107,0,0,,7,,,55,127
41137,note_on,2,0,0,,6,,,54,127
41244,note_off,107,0,0,,6,,,54,127
41244,note_off,0,0,0,,4,,,76,127
41246,note_on,2,0,0,,7,,,67,127
41246,note_on,0,0,0,,4,,,52,127
41353,note_off,107,0,0,,4,,,52,127
41355,note_on,2,0,0,,12,,,59,127
41462,note_off,107,0,0,,12,,,59,127
41462,note_off,0,0,0,,7,,,67,127
41464,note_on,2,0,0,,11,,,70,127
41464,note_on,0,0,0,,7,,,55,127
41571,note_off,107,0,0,,7,,,55,127
41573,note_on,2,0,0,,6,,,54,127
41680,note_off,107,0,0,,6,,,54,127
41680,note_off,0,0,0,,11,,,70,127
41682,note_on,2,0,0,,1,,,73,127
41682,note_on,0,0,0,,4,,,52,127
41789,note_off,107,0,0,,4,,,52,127
41791,note_on,2,0,0,,12,,,59,127
41898,note_off,107,0,0,,12,,,59,127
41898,note_off,0,0,0,,1,,,73,127
41900,note_on,2,0,0,,4,,,76,127
41900,note_on,0,0,0,,7,,,55,127
42007,note_off,107,0,0,,7,,,55,127
42009,note_on,2,0,0,,6,,,54,127
42116,note_off,107,0,0,,6,,,54,127
42116,note_off,0,0,0,,4,,,76,127
42118,note_on,2,0,0,,7,,,67,127
42118,note_on,0,0,0,,4,,,52,127
42225,note_off,107,0,0,,4,,,52,127
42227,note_on,2,0,0,,12,,,59,127
42334,note_off,107,0,0,,12,,,59,127
42334,note_off,0,0,0,,7,,,67,127
42336,note_on,2,0,0,,4,,,76,127
42336,note_on,0,0,0,,7,,,55,127
42443,note_off,107,0,0,,7,,,55,127
42445,note_on,2,0,0,,6,,,54,127
42552,note_off,107,0,0,,6,,,54,127
42552,note_off,0,0,0,,4,,,76,127
42554,note_on,2,0,0,,1,,,73,127
42554,note_on,0,0,0,,4,,,52,127
42661,note_off,107,0,0,,4,,,52,127
42663,note_on,2,0,0,,12,,,59,127
42770,note_off,107,0,0,,12,,,59,127
42770,note_off,0,0,0,,1,,,73,127
42772,note_on,2,0,0,,11,,,70,127
42772,note_on,0,0,0,,7,,,55,127
42879,note_off,107,0,0,,7,,,55,127
42881,note_on,2,0,0,,6,,,54,127
42988,note_off,107,0,0,,6,,,54,127
42988,note_off,0,0,0,,11,,,70,127
42990,note_on,2,0,0,,6,,,78,127
42990,note_on,0,0,0,,3,,,51,127
43097,note_off,107,0,0,,3,,,51,127
43099,note_on,2,0,0,,10,,,57,127
43206,note_off,107,0,0,,10,,,57,127
43206,note_off,0,0,0,,6,,,78,127
43208,note_on,2,0,0,,3,,,75,127
43208,note_on,0,0,0,,6,,,54,127
43315,note_off,107,0,0,,6,,,54,127
43317,note_on,2,0,0,,4,,,52,127
43424,note_off,107,0,0,,4,,,52,127
43424,note_off,0,0,0,,3,,,75,127
43426,note_on,2,0,0,,10,,,69,127
43426,note_on,0,0,0,,3,,,51,127
43533,note_off,107,0,0,,3,,,51,127
43535,note_on,2,0,0,,0,,,60,127
43642,note_off,107,0,0,,0,,,60,127
43642,note_off,0,0,0,,10,,,69,127
43644,note_on,2,0,0,,0,,,72,127
43644,note_on,0,0,0,,10,,,57,127
43751,note_off,107,0,0,,10,,,57,127
43753,note_on,2,0,0,,6,,,54,127
43860,note_off,107,0,0,,6,,,54,127
43860,note_off,0,0,0,,0,,,72,127
43862,note_on,2,0,0,,6,,,78,127
43862,note_on,0,0,0,,3,,,51,127
43969,note_off,107,0,0,,3,,,51,127
43971,note_on,2,0,0,,0,,,60,127
44078,note_off,107,0,0,,0,,,60,127
44078,note_off,0,0,0,,6,,,78,127
44080,note_on,2,0,0,,10,,,69,127
44080,note_on,0,0,0,,10,,,57,127
44187,note_off,107,0,0,,10,,,57,127
44189,note_on,2,0,0,,6,,,54,127
44296,note_off,107,0,0,,6,,,54,127
44296,note_off,0,0,0,,10,,,69,127
44298,note_on,2,0,0,,0,,,72,127
44298,note_on,0,0,0,,3,,,51,127
44405,note_off,107,0,0,,3,,,51,127
44407,note_on,2,0,0,,0,,,60,127
44514,note_off,107,0,0,,0,,,60,127
44514,note_off,0,0,0,,0,,,72,127
44516,note_on,2,0,0,,10,,,81,127
44516,note_on,0,0,0,,10,,,57,127
44623,note_off,107,0,0,,10,,,57,127
44625,note_on,2,0,0,,6,,,54,127
44732,note_off,107,0,0,,6,,,54,127
44732,note_off,0,0,0,,10,,,81,127
44734,note_on,2,0,0,,0,,,72,127
44734,note_on,0,0,0,,2,,,50,127
44841,note_off,107,0,0,,2,,,50,127
44843,note_on,2,0,0,,0,,,60,127
44950,note_off,107,0,0,,0,,,60,127
44950,note_off,0,0,0,,0,,,72,127
44952,note_on,2,0,0,,10,,,81,127
44952,note_on,0,0,0,,10,,,57,127
45059,note_off,107,0,0,,10,,,57,127
45061,note_on,2,0,0,,6,,,54,127
45168,note_off,107,0,0,,6,,,54,127
45168,note_off,0,0,0,,10,,,81,127
45170,note_on,2,0,0,,6,,,78,127
45170,note_on,0,0,0,,2,,,50,127
45277,note_off,107,0,0,,2,,,50,127
45279,note_on,2,0,0,,0,,,60,127
45386,note_off,107,0,0,,0,,,60,127
45386,note_off,0,0,0,,6,,,78,127
45388,note_on,2,0,0,,0,,,72,127
45388,note_on,0,0,0,,10,,,57,127
45495,note_off,107,0,0,,10,,,57,127
45497,note_on,2,0,0,,6,,,54,127
45604,note_off,107,0,0,,6,,,54,127
45604,note_off,0,0,0,,0,,,72,127
45606,note_on,2,0,0,,6,,,78,127
45606,note_on,0,0,0,,2,,,50,127
45713,note_off,107,0,0,,2,,,50,127
45715,note_on,2,0,0,,0,,,60,127
45822,note_off,107,0,0,,0,,,60,127
45822,note_off,0,0,0,,6,,,78,127
45824,note_on,2,0,0,,10,,,81,127
45824,note_on,0,0,0,,10,,,57,127
45931,note_off,107,0,0,,10,,,57,127
45933,note_on,2,0,0,,6,,,54,127
46040,note_off,107,0,0,,6,,,54,127
46040,note_off,0,0,0,,10,,,81,127
46042,note_on,2,0,0,,6,,,78,127
46042,note_on,0,0,0,,2,,,50,127
46149,note_off,107,0,0,,2,,,50,127
46151,note_on,2,0,0,,0,,,60,127
46258,note_off,107,0,0,,0,,,60,127
46258,note_off,0,0,0,,6,,,78,127
46260,note_on,2,0,0,,0,,,72,127
46260,note_on,0,0,0,,10,,,57,127
46367,note_off,107,0,0,,10,,,57,127
46369,note_on,2,0,0,,6,,,54,127
46476,note_off,107,0,0,,6,,,54,127
46476,note_off,0,0,0,,0,,,72,127
46478,note_on,2,0,0,,10,,,81,127
46478,note_on,0,0,0,,0,,,48,127
46585,note_off,107,0,0,,0,,,48,127
46587,note_on,2,0,0,,10,,,57,127
46694,note_off,107,0,0,,10,,,57,127
46694,note_off,0,0,0,,10,,,81,127
46696,note_on,2,0,0,,6,,,78,127
46696,note_on,0,0,0,,6,,,54,127
46803,note_off,107,0,0,,6,,,54,127
46805,note_on,2,0,0,,4,,,52,127
46912,note_off,107,0,0,,4,,,52,127
46912,note_off,0,0,0,,6,,,78,127
46914,note_on,2,0,0,,3,,,75,127
46914,note_on,0,0,0,,0,,,48,127
47021,note_off,107,0,0,,0,,,48,127
47023,note_on,2,0,0,,10,,,57,127
47130,note_off,107,0,0,,10,,,57,127
47130,note_off,0,0,0,,3,,,75,127
47132,note_on,2,0,0,,10,,,69,127
47132,note_on,0,0,0,,6,,,54,127
47239,note_off,107,0,0,,6,,,54,127
47241,note_on,2,0,0,,4,,,52,127
47348,note_off,107,0,0,,4,,,52,127
47348,note_off,0,0,0,,10,,,69,127
47350,note_on,2,0,0,,10,,,81,127
47350,note_on,0,0,0,,0,,,48,127
47457,note_off,107,0,0,,0,,,48,127
47459,note_on,2,0,0,,10,,,57,127
47566,note_off,107,0,0,,10,,,57,127
47566,note_off,0,0,0,,10,,,81,127
47568,note_on,2,0,0,,6,,,78,127
47568,note_on,0,0,0,,6,,,54,127
47675,note_off,107,0,0,,6,,,54,127
47677,note_on,2,0,0,,4,,,52,127
47784,note_off,107,0,0,,4,,,52,127
47784,note_off,0,0,0,,6,,,78,127
47786,note_on,2,0,0,,3,,,75,127
47786,note_on,0,0,0,,0,,,48,127
47893,note_off,107,0,0,,0,,,48,127
47895,note_on,2,0,0,,10,,,57,127
48002,note_off,107,0,0,,10,,,57,127
48002,note_off,0,0,0,,3,,,75,127
48004,note_on,2,0,0,,10,,,69,127
48004,note_on,0,0,0,,6,,,54,127
48111,note_off,107,0,0,,6,,,54,127
48113,note_on,2,0,0,,4,,,52,127
48220,note_off,107,0,0,,4,,,52,127
48220,note_off,0,0,0,,10,,,69,127
48222,note_on,2,0,0,,8,,,80,127
48222,note_on,0,0,0,,12,,,47,127
48329,note_off,107,0,0,,12,,,47,127
48331,note_on,2,0,0,,8,,,56,127
48438,note_off,107,0,0,,8,,,56,127
48438,note_off,0,0,0,,8,,,80,127
48440,note_on,2,0,0,,12,,,71,127
48440,note_on,0,0,0,,4,,,52,127
48547,note_off,107,0,0,,4,,,52,127
48549,note_on,2,0,0,,2,,,50,127
48656,note_off,107,0,0,,2,,,50,127
48656,note_off,0,0,0,,12,,,71,127
48658,note_on,2,0,0,,8,,,80,127
48658,note_on,0,0,0,,12,,,47,127
48765,note_off,107,0,0,,12,,,47,127
48767,note_on,2,0,0,,8,,,56,127
48874,note_off,107,0,0,,8,,,56,127
48874,note_off,0,0,0,,8,,,80,127
48876,note_on,2,0,0,,12,,,83,127
48876,note_on,0,0,0,,4,,,52,127
48983,note_off,107,0,0,,4,,,52,127
48985,note_on,2,0,0,,2,,,50,127
49092,note_off,107,0,0,,2,,,50,127
49092,note_off,0,0,0,,12,,,83,127
49094,note_on,2,0,0,,2,,,86,127
49094,note_on,0,0,0,,12,,,47,127
49201,note_off,107,0,0,,12,,,47,127
49203,note_on,2,0,0,,8,,,56,127
49310,note_off,107,0,0,,8,,,56,127
49310,note_off,0,0,0,,2,,,86,127
49312,note_on,2,0,0,,12,,,83,127
49312,note_on,0,0,0,,4,,,52,127
49419,note_off,107,0,0,,4,,,52,127
49421,note_on,2,0,0,,2,,,50,127
49528,note_off,107,0,0,,2,,,50,127
49528,note_off,0,0,0,,12,,,83,127
49530,note_on,2,0,0,,8,,,80,127
49530,note_on,0,0,0,,12,,,47,127
49637,note_off,107,0,0,,12,,,47,127
49639,note_on,2,0,0,,8,,,56,127
49746,note_off,107,0,0,,8,,,56,127
49746,note_off,0,0,0,,8,,,80,127
49748,note_on,2,0,0,,2,,,74,127
49748,note_on,0,0,0,,4,,,52,127
49855,note_off,107,0,0,,4,,,52,127
49862,note_on,7,0,0,,2,,,50,127
49964,note_off,102,0,0,,2,,,74,127
49970,note_off,6,0,0,,2,,,50,127
49977,note_on,7,0,0,,1,,,85,127
49977,note_on,0,0,0,,10,,,45,127
50084,note_off,107,0,0,,1,,,85,127
50086,note_on,2,0,0,,10,,,81,127
50193,note_off,107,0,0,,10,,,81,127
50193,note_off,0,0,0,,10,,,45,127
50195,note_on,2,0,0,,4,,,76,127
50195,note_on,0,0,0,,1,,,49,127
50302,note_off,107,0,0,,4,,,76,127
50304,note_on,2,0,0,,1,,,73,127
50411,note_off,107,0,0,,1,,,73,127
50411,note_off,0,0,0,,1,,,49,127
50413,note_on,2,0,0,,6,,,78,127
50413,note_on,0,0,0,,2,,,50,127
50520,note_off,107,0,0,,6,,,78,127
50522,note_on,2,0,0,,2,,,74,127
50629,note_off,107,0,0,,2,,,74,127
50629,note_off,0,0,0,,2,,,50,127
50631,note_on,2,0,0,,12,,,71,127
50631,note_on,0,0,0,,4,,,52,127
50738,note_off,107,0,0,,12,,,71,127
50740,note_on,2,0,0,,4,,,76,127
50847,note_off,107,0,0,,4,,,76,127
50847,note_off,0,0,0,,4,,,52,127
50849,note_on,2,0,0,,1,,,73,127
50849,note_on,0,0,0,,10,,,45,127
50956,note_off,107,0,0,,10,,,45,127
50977,note_on,21,0,0,,1,,,61,127
50998,note_off,21,0,0,,1,,,73,127
51085,note_off,87,0,0,,1,,,61,127
51087,note_on,2,0,0,,12,,,59,127
51087,note_on,0,0,0,,1,,,73,127
51194,note_off,107,0,0,,1,,,73,127
51194,note_off,0,0,0,,12,,,59,127
51196,note_on,2,0,0,,10,,,57,127
51196,note_on,0,0,0,,10,,,69,127
51303,note_off,107,0,0,,10,,,69,127
51303,note_off,0,0,0,,10,,,57,127
51305,note_on,2,0,0,,8,,,56,127
51305,note_on,0,0,0,,4,,,76,127
51412,note_off,107,0,0,,8,,,56,127
51414,note_on,2,0,0,,6,,,54,127
51521,note_off,107,0,0,,6,,,54,127
51521,note_off,0,0,0,,4,,,76,127
51523,note_on,2,0,0,,4,,,52,127
51523,note_on,0,0,0,,4,,,76,127
51630,note_off,107,0,0,,4,,,52,127
51632,note_on,2,0,0,,2,,,50,127
51739,note_off,107,0,0,,2,,,50,127
51739,note_off,0,0,0,,4,,,76,127
51741,note_on,2,0,0,,1,,,49,127
51741,note_on,0,0,0,,4,,,76,127
51848,note_off,107,0,0,,1,,,49,127
51850,note_on,2,0,0,,10,,,57,127
51957,note_off,107,0,0,,10,,,57,127
51957,note_off,0,0,0,,4,,,76,127
51959,note_on,2,0,0,,8,,,56,127
51959,note_on,0,0,0,,10,,,69,127
52066,note_off,107,0,0,,10,,,69,127
52066,note_off,0,0,0,,8,,,56,127
52068,note_on,2,0,0,,6,,,54,127
52068,note_on,0,0,0,,4,,,64,127
52175,note_off,107,0,0,,4,,,64,127
52175,note_off,0,0,0,,6,,,54,127
52177,note_on,2,0,0,,4,,,52,127
52177,note_on,0,0,0,,12,,,71,127
52284,note_off,107,0,0,,4,,,52,127
52286,note_on,2,0,0,,2,,,50,127
52393,note_off,107,0,0,,2,,,50,127
52395,note_on,2,0,0,,1,,,49,127
52466,note_off,71,0,0,,12,,,71,127
52468,note_on,2,0,0,,1,,,73,127
52502,note_off,34,0,0,,1,,,49,127
52504,note_on,2,0,0,,12,,,47,127
52538,note_off,34,0,0,,1,,,73,127
52540,note_on,2,0,0,,2,,,74,127
52611,note_off,71,0,0,,2,,,74,127
52611,note_off,0,0,0,,12,,,47,127
52613,note_on,2,0,0,,10,,,45,127
52613,note_on,0,0,0,,1,,,73,127
52720,note_off,107,0,0,,10,,,45,127
52722,note_on,2,0,0,,1,,,61,127
52829,note_off,107,0,0,,1,,,61,127
52829,note_off,0,0,0,,1,,,73,127
52831,note_on,2,0,0,,12,,,59,127
52831,note_on,0,0,0,,10,,,69,127
52938,note_off,107,0,0,,10,,,69,127
52938,note_off,0,0,0,,12,,,59,127
52940,note_on,2,0,0,,10,,,57,127
52940,note_on,0,0,0,,4,,,64,127
53047,note_off,107,0,0,,4,,,64,127
53047,note_off,0,0,0,,10,,,57,127
53049,note_on,2,0,0,,8,,,56,127
53049,note_on,0,0,0,,4,,,76,127
53156,note_off,107,0,0,,8,,,56,127
53158,note_on,2,0,0,,6,,,54,127
53265,note_off,107,0,0,,6,,,54,127
53265,note_off,0,0,0,,4,,,76,127
53267,note_on,2,0,0,,4,,,52,127
53267,note_on,0,0,0,,4,,,76,127
53374,note_off,107,0,0,,4,,,52,127
53376,note_on,2,0,0,,2,,,50,127
53483,note_off,107,0,0,,2,,,50,127
53483,note_off,0,0,0,,4,,,76,127
53485,note_on,2,0,0,,1,,,49,127
53485,note_on,0,0,0,,4,,,76,127
53592,note_off,107,0,0,,1,,,49,127
53594,note_on,2,0,0,,10,,,57,127
53701,note_off,107,0,0,,10,,,57,127
53701,note_off,0,0,0,,4,,,76,127
53703,note_on,2,0,0,,8,,,56,127
53703,note_on,0,0,0,,10,,,69,127
53810,note_off,107,0,0,,10,,,69,127
53810,note_off,0,0,0,,8,,,56,127
53812,note_on,2,0,0,,6,,,54,127
53812,note_on,0,0,0,,4,,,64,127
53919,note_off,107,0,0,,4,,,64,127
53919,note_off,0,0,0,,6,,,54,127
53921,note_on,2,0,0,,4,,,52,127
53921,note_on,0,0,0,,12,,,71,127
54028,note_off,107,0,0,,4,,,52,127
54030,note_on,2,0,0,,2,,,50,127
54137,note_off,107,0,0,,2,,,50,127
54139,note_on,2,0,0,,1,,,49,127
54210,note_off,71,0,0,,12,,,71,127
54212,note_on,2,0,0,,1,,,73,127
54246,note_off,34,0,0,,1,,,49,127
54248,note_on,2,0,0,,12,,,47,127
54282,note_off,34,0,0,,1,,,73,127
54284,note_on,2,0,0,,2,,,74,127
54355,note_off,71,0,0,,2,,,74,127
54355,note_off,0,0,0,,12,,,47,127
54357,note_on,2,0,0,,10,,,45,127
54357,note_on,0,0,0,,1,,,73,127
54464,note_off,107,0,0,,1,,,73,127
54466,note_on,2,0,0,,10,,,81,127
54573,note_off,107,0,0,,10,,,81,127
54573,note_off,0,0,0,,10,,,45,127
54575,note_on,2,0,0,,2,,,50,127
54575,note_on,0,0,0,,6,,,78,127
54682,note_off,107,0,0,,6,,,78,127
54684,note_on,2,0,0,,2,,,74,127
54791,note_off,107,0,0,,2,,,74,127
54791,note_off,0,0,0,,2,,,50,127
54793,note_on,2,0,0,,4,,,52,127
54793,note_on,0,0,0,,1,,,73,127
54900,note_off,107,0,0,,1,,,73,127
54902,note_on,2,0,0,,10,,,69,127
55009,note_off,107,0,0,,10,,,69,127
55009,note_off,0,0,0,,4,,,52,127
55011,note_on,2,0,0,,4,,,40,127
55011,note_on,0,0,0,,8,,,68,127
55118,note_off,107,0,0,,8,,,68,127
55120,note_on,2,0,0,,12,,,71,127
55227,note_off,107,0,0,,12,,,71,127
55227,note_off,0,0,0,,4,,,40,127
55229,note_on,2,0,0,,10,,,45,127
55229,note_on,0,0,0,,10,,,69,127
55336,note_off,107,0,0,,10,,,45,127
55352,note_on,16,0,0,,0,,,60,127
55446,note_off,94,0,0,,10,,,69,127
55460,note_off,14,0,0,,0,,,60,127
55467,note_on,7,0,0,,0,,,72,127
55467,note_on,0,0,0,,12,,,59,127
55574,note_off,107,0,0,,12,,,59,127
55574,note_off,0,0,0,,0,,,72,127
55576,note_on,2,0,0,,10,,,69,127
55576,note_on,0,0,0,,10,,,57,127
55683,note_off,107,0,0,,10,,,57,127
55683,note_off,0,0,0,,10,,,69,127
55685,note_on,2,0,0,,4,,,76,127
55685,note_on,0,0,0,,8,,,56,127
55792,note_off,107,0,0,,8,,,56,127
55794,note_on,2,0,0,,5,,,53,127
55901,note_off,107,0,0,,5,,,53,127
55901,note_off,0,0,0,,4,,,76,127
55903,note_on,2,0,0,,4,,,76,127
55903,note_on,0,0,0,,4,,,52,127
56010,note_off,107,0,0,,4,,,52,127
56012,note_on,2,0,0,,2,,,50,127
56119,note_off,107,0,0,,2,,,50,127
56119,note_off,0,0,0,,4,,,76,127
56121,note_on,2,0,0,,4,,,76,127
56121,note_on,0,0,0,,0,,,48,127
56228,note_off,107,0,0,,0,,,48,127
56230,note_on,2,0,0,,10,,,57,127
56337,note_off,107,0,0,,10,,,57,127
56337,note_off,0,0,0,,4,,,76,127
56339,note_on,2,0,0,,10,,,69,127
56339,note_on,0,0,0,,7,,,55,127
56446,note_off,107,0,0,,7,,,55,127
56446,note_off,0,0,0,,10,,,69,127
56448,note_on,2,0,0,,4,,,64,127
56448,note_on,0,0,0,,5,,,53,127
56555,note_off,107,0,0,,5,,,53,127
56555,note_off,0,0,0,,4,,,64,127
56557,note_on,2,0,0,,12,,,71,127
56557,note_on,0,0,0,,4,,,52,127
56664,note_off,107,0,0,,4,,,52,127
56666,note_on,2,0,0,,2,,,50,127
56773,note_off,107,0,0,,2,,,50,127
56775,note_on,2,0,0,,0,,,48,127
56846,note_off,71,0,0,,12,,,71,127
56848,note_on,2,0,0,,0,,,72,127
56882,note_off,34,0,0,,0,,,48,127
56884,note_on,2,0,0,,12,,,47,127
56918,note_off,34,0,0,,0,,,72,127
56920,note_on,2,0,0,,2,,,74,127
56991,note_off,71,0,0,,2,,,74,127
56991,note_off,0,0,0,,12,,,47,127
56993,note_on,2,0,0,,0,,,72,127
56993,note_on,0,0,0,,10,,,45,127
57100,note_off,107,0,0,,10,,,45,127
57102,note_on,2,0,0,,0,,,60,127
57209,note_off,107,0,0,,0,,,60,127
57209,note_off,0,0,0,,0,,,72,127
57211,note_on,2,0,0,,10,,,69,127
57211,note_on,0,0,0,,12,,,59,127
57318,note_off,107,0,0,,12,,,59,127
57318,note_off,0,0,0,,10,,,69,127
57320,note_on,2,0,0,,4,,,64,127
57320,note_on,0,0,0,,10,,,57,127
57427,note_off,107,0,0,,10,,,57,127
57427,note_off,0,0,0,,4,,,64,127
57429,note_on,2,0,0,,4,,,76,127
57429,note_on,0,0,0,,8,,,56,127
57536,note_off,107,0,0,,8,,,56,127
57538,note_on,2,0,0,,5,,,53,127
57645,note_off,107,0,0,,5,,,53,127
57645,note_off,0,0,0,,4,,,76,127
57647,note_on,2,0,0,,4,,,76,127
57647,note_on,0,0,0,,4,,,52,127
57754,note_off,107,0,0,,4,,,52,127
57756,note_on,2,0,0,,2,,,50,127
57863,note_off,107,0,0,,2,,,50,127
57863,note_off,0,0,0,,4,,,76,127
57865,note_on,2,0,0,,4,,,76,127
57865,note_on,0,0,0,,0,,,48,127
57972,note_off,107,0,0,,0,,,48,127
57974,note_on,2,0,0,,10,,,57,127
58081,note_off,107,0,0,,10,,,57,127
58081,note_off,0,0,0,,4,,,76,127
58083,note_on,2,0,0,,10,,,69,127
58083,note_on,0,0,0,,7,,,55,127
58190,note_off,107,0,0,,7,,,55,127
58190,note_off,0,0,0,,10,,,69,127
58192,note_on,2,0,0,,4,,,64,127
58192,note_on,0,0,0,,5,,,53,127
58299,note_off,107,0,0,,5,,,53,127
58299,note_off,0,0,0,,4,,,64,127
58301,note_on,2,0,0,,12,,,71,127
58301,note_on,0,0,0,,4,,,52,127
58408,note_off,107,0,0,,4,,,52,127
58410,note_on,2,0,0,,2,,,50,127
58517,note_off,107,0,0,,2,,,50,127
58519,note_on,2,0,0,,0,,,48,127
58590,note_off,71,0,0,,12,,,71,127
58592,note_on,2,0,0,,0,,,72,127
58626,note_off,34,0,0,,0,,,48,127
58628,note_on,2,0,0,,12,,,47,127
58662,note_off,34,0,0,,0,,,72,127
58664,note_on,2,0,0,,2,,,74,127
58735,note_off,71,0,0,,2,,,74,127
58735,note_off,0,0,0,,12,,,47,127
58737,note_on,2,0,0,,0,,,72,127
58737,note_on,0,0,0,,10,,,45,127
58844,note_off,107,0,0,,0,,,72,127
58846,note_on,2,0,0,,10,,,81,127
58953,note_off,107,0,0,,10,,,81,127
58953,note_off,0,0,0,,10,,,45,127
58955,note_on,2,0,0,,5,,,77,127
58955,note_on,0,0,0,,2,,,50,127
59062,note_off,107,0,0,,5,,,77,127
59064,note_on,2,0,0,,2,,,74,127
59171,note_off,107,0,0,,2,,,74,127
59171,note_off,0,0,0,,2,,,50,127
59173,note_on,2,0,0,,0,,,72,127
59173,note_on,0,0,0,,4,,,52,127
59280,note_off,107,0,0,,0,,,72,127
59282,note_on,2,0,0,,10,,,69,127
59389,note_off,107,0,0,,10,,,69,127
59389,note_off,0,0,0,,4,,,52,127
59391,note_on,2,0,0,,8,,,68,127
59391,note_on,0,0,0,,4,,,40,127
59498,note_off,107,0,0,,8,,,68,127
59500,note_on,2,0,0,,12,,,71,127
59607,note_off,107,0,0,,12,,,71,127
59607,note_off,0,0,0,,4,,,40,127
59609,note_on,2,0,0,,10,,,69,127
59609,note_on,0,0,0,,10,,,45,127
59716,note_off,107,0,0,,10,,,45,127
59732,note_on,16,0,0,,4,,,64,127
59826,note_off,94,0,0,,10,,,69,127
59840,note_off,14,0,0,,4,,,64,127
59847,note_on,7,0,0,,1,,,61,127
59847,note_on,0,0,0,,1,,,73,127
59847,note_on,0,0,0,,10,,,81,127
59954,note_off,107,0,0,,1,,,73,127
59954,note_off,0,0,0,,1,,,61,127
59956,note_on,2,0,0,,10,,,57,127
59956,note_on,0,0,0,,10,,,69,127
60063,note_off,107,0,0,,10,,,69,127
60063,note_off,0,0,0,,10,,,57,127
60063,note_off,0,0,0,,10,,,81,127
60065,note_on,2,0,0,,8,,,56,127
60065,note_on,0,0,0,,12,,,83,127
60065,note_on,0,0,0,,4,,,76,127
60172,note_off,107,0,0,,8,,,56,127
60174,note_on,2,0,0,,4,,,64,127
60281,note_off,107,0,0,,4,,,64,127
60281,note_off,0,0,0,,4,,,76,127
60281,note_off,0,0,0,,12,,,83,127
60283,note_on,2,0,0,,4,,,52,127
60283,note_on,0,0,0,,2,,,86,127
60283,note_on,0,0,0,,8,,,80,127
60390,note_off,107,0,0,,4,,,52,127
60392,note_on,2,0,0,,4,,,64,127
60499,note_off,107,0,0,,4,,,64,127
60499,note_off,0,0,0,,8,,,80,127
60499,note_off,0,0,0,,2,,,86,127
60501,note_on,2,0,0,,10,,,45,127
60501,note_on,0,0,0,,10,,,81,127
60501,note_on,0,0,0,,1,,,85,127
60608,note_off,107,0,0,,10,,,45,127
60610,note_on,2,0,0,,4,,,64,127
60717,note_off,107,0,0,,4,,,64,127
60717,note_off,0,0,0,,1,,,85,127
60717,note_off,0,0,0,,10,,,81,127
60719,note_on,2,0,0,,1,,,61,127
60719,note_on,0,0,0,,10,,,81,127
60719,note_on,0,0,0,,1,,,73,127
60826,note_off,107,0,0,,1,,,73,127
60826,note_off,0,0,0,,1,,,61,127
60828,note_on,2,0,0,,10,,,57,127
60828,note_on,0,0,0,,10,,,69,127
60935,note_off,107,0,0,,10,,,69,127
60935,note_off,0,0,0,,10,,,57,127
60935,note_off,0,0,0,,10,,,81,127
60937,note_on,2,0,0,,8,,,56,127
60937,note_on,0,0,0,,12,,,83,127
60937,note_on,0,0,0,,4,,,76,127
61044,note_off,107,0,0,,8,,,56,127
61046,note_on,2,0,0,,4,,,64,127
61153,note_off,107,0,0,,4,,,64,127
61153,note_off,0,0,0,,4,,,76,127
61153,note_off,0,0,0,,12,,,83,127
61155,note_on,2,0,0,,4,,,52,127
61155,note_on,0,0,0,,8,,,80,127
61155,note_on,0,0,0,,2,,,86,127
61262,note_off,107,0,0,,4,,,52,127
61264,note_on,2,0,0,,4,,,64,127
61371,note_off,107,0,0,,4,,,64,127
61371,note_off,0,0,0,,2,,,86,127
61371,note_off,0,0,0,,8,,,80,127
61373,note_on,2,0,0,,10,,,45,127
61373,note_on,0,0,0,,1,,,85,127
61480,note_off,107,0,0,,1,,,85,127
61482,note_on,2,0,0,,10,,,81,127
61589,note_off,107,0,0,,10,,,81,127
61589,note_off,0,0,0,,10,,,45,127
61591,note_on,2,0,0,,2,,,50,127
61591,note_on,0,0,0,,6,,,78,127
61698,note_off,107,0,0,,6,,,78,127
61700,note_on,2,0,0,,2,,,74,127
61807,note_off,107,0,0,,2,,,74,127
61807,note_off,0,0,0,,2,,,50,127
61809,note_on,2,0,0,,4,,,52,127
61809,note_on,0,0,0,,1,,,73,127
61916,note_off,107,0,0,,1,,,73,127
61918,note_on,2,0,0,,10,,,81,127
62025,note_off,107,0,0,,10,,,81,127
62025,note_off,0,0,0,,4,,,52,127
62027,note_on,2,0,0,,4,,,40,127
62027,note_on,0,0,0,,12,,,71,127
62134,note_off,107,0,0,,12,,,71,127
62136,note_on,2,0,0,,8,,,80,127
62243,note_off,107,0,0,,8,,,80,127
62243,note_off,0,0,0,,4,,,40,127
62245,note_on,2,0,0,,10,,,45,127
62245,note_on,0,0,0,,10,,,81,127
62362,note_on,117,0,0,,1,,,49,127
62367,note_off,5,0,0,,10,,,45,127
62473,note_off,106,0,0,,10,,,81,127
62483,note_off,10,0,0,,1,,,49,127
62483,note_on,0,0,0,,1,,,85,127
62483,note_on,0,0,0,,10,,,81,127
62483,note_on,0,0,0,,4,,,52,127
62590,note_off,107,0,0,,4,,,52,127
62590,note_off,0,0,0,,10,,,81,127
62592,note_on,2,0,0,,4,,,76,127
62592,note_on,0,0,0,,10,,,57,127
62699,note_off,107,0,0,,10,,,57,127
62699,note_off,0,0,0,,4,,,76,127
62699,note_off,0,0,0,,1,,,85,127
62701,note_on,2,0,0,,2,,,74,127
62701,note_on,0,0,0,,12,,,83,127
62701,note_on,0,0,0,,8,,,56,127
62808,note_off,107,0,0,,8,,,56,127
62810,note_on,2,0,0,,12,,,59,127
62917,note_off,107,0,0,,12,,,59,127
62917,note_off,0,0,0,,12,,,83,127
62917,note_off,0,0,0,,2,,,74,127
62919,note_on,2,0,0,,2,,,74,127
62919,note_on,0,0,0,,8,,,68,127
62919,note_on,0,0,0,,8,,,56,127
63026,note_off,107,0,0,,8,,,56,127
63028,note_on,2,0,0,,4,,,52,127
63135,note_off,107,0,0,,4,,,52,127
63135,note_off,0,0,0,,8,,,68,127
63135,note_off,0,0,0,,2,,,74,127
63137,note_on,2,0,0,,10,,,69,127
63137,note_on,0,0,0,,1,,,73,127
63137,note_on,0,0,0,,10,,,45,127
63244,note_off,107,0,0,,10,,,45,127
63246,note_on,2,0,0,,1,,,49,127
63353,note_off,107,0,0,,1,,,49,127
63353,note_off,0,0,0,,1,,,73,127
63353,note_off,0,0,0,,10,,,69,127
63355,note_on,2,0,0,,10,,,81,127
63355,note_on,0,0,0,,1,,,85,127
63355,note_on,0,0,0,,4,,,52,127
63462,note_off,107,0,0,,4,,,52,127
63462,note_off,0,0,0,,10,,,81,127
63464,note_on,2,0,0,,4,,,76,127
63464,note_on,0,0,0,,10,,,57,127
63571,note_off,107,0,0,,10,,,57,127
63571,note_off,0,0,0,,4,,,76,127
63571,note_off,0,0,0,,1,,,85,127
63573,note_on,2,0,0,,12,,,83,127
63573,note_on,0,0,0,,2,,,74,127
63573,note_on,0,0,0,,8,,,56,127
63680,note_off,107,0,0,,8,,,56,127
63682,note_on,2,0,0,,12,,,59,127
63789,note_off,107,0,0,,12,,,59,127
63789,note_off,0,0,0,,2,,,74,127
63789,note_off,0,0,0,,12,,,83,127
63791,note_on,2,0,0,,2,,,74,127
63791,note_on,0,0,0,,8,,,68,127
63791,note_on,0,0,0,,8,,,56,127
63898,note_off,107,0,0,,8,,,56,127
63900,note_on,2,0,0,,4,,,52,127
64007,note_off,107,0,0,,4,,,52,127
64007,note_off,0,0,0,,8,,,68,127
64007,note_off,0,0,0,,2,,,74,127
64009,note_on,2,0,0,,10,,,69,127
64009,note_on,0,0,0,,1,,,73,127
64009,note_on,0,0,0,,10,,,45,127
64116,note_off,107,0,0,,1,,,73,127
64118,note_on,2,0,0,,4,,,76,127
64225,note_off,107,0,0,,4,,,76,127
64225,note_off,0,0,0,,10,,,45,127
64225,note_off,0,0,0,,10,,,69,127
64227,note_on,2,0,0,,6,,,78,127
64227,note_on,0,0,0,,2,,,50,127
64334,note_off,107,0,0,,6,,,78,127
64336,note_on,2,0,0,,12,,,71,127
64443,note_off,107,0,0,,12,,,71,127
64443,note_off,0,0,0,,2,,,50,127
64445,note_on,2,0,0,,4,,,76,127
64445,note_on,0,0,0,,4,,,52,127
64552,note_off,107,0,0,,4,,,76,127
64554,note_on,2,0,0,,10,,,69,127
64661,note_off,107,0,0,,10,,,69,127
64661,note_off,0,0,0,,4,,,52,127
64663,note_on,2,0,0,,2,,,74,127
64663,note_on,0,0,0,,4,,,40,127
64770,note_off,107,0,0,,2,,,74,127
64772,note_on,2,0,0,,8,,,68,127
64879,note_off,107,0,0,,8,,,68,127
64879,note_off,0,0,0,,4,,,40,127
64881,note_on,2,0,0,,10,,,69,127
64881,note_on,0,0,0,,10,,,45,127
64988,note_off,107,0,0,,10,,,69,127
64990,note_on,2,0,0,,4,,,64,127
65097,note_off,107,0,0,,4,,,64,127
65097,note_off,0,0,0,,10,,,45,127
65099,note_on,2,0,0,,6,,,66,127
65099,note_on,0,0,0,,2,,,50,127
65206,note_off,107,0,0,,6,,,66,127
65208,note_on,2,0,0,,2,,,62,127
65315,note_off,107,0,0,,2,,,62,127
65315,note_off,0,0,0,,2,,,50,127
65317,note_on,2,0,0,,1,,,61,127
65317,note_on,0,0,0,,4,,,52,127
65424,note_off,107,0,0,,1,,,61,127
65426,note_on,2,0,0,,10,,,69,127
65533,note_off,107,0,0,,10,,,69,127
65533,note_off,0,0,0,,4,,,52,127
65535,note_on,2,0,0,,12,,,59,127
65535,note_on,0,0,0,,4,,,40,127
65642,note_off,107,0,0,,12,,,59,127
65644,note_on,2,0,0,,8,,,68,127
65751,note_off,107,0,0,,8,,,68,127
65751,note_off,0,0,0,,4,,,40,127
65778,note_on,27,0,0,,10,,,69,127
65778,note_on,0,0,0,,10,,,33,127
67847,note_off,2069,0,0,,10,,,33,127
67847,note_off,0,0,0,,10,,,69,127
69120,end_of_track,1273,1,0,,,,,,
