tick,type,time,meta,track,program,channel,pitch,tempo,note,velocity
0,copyright,0,1,0,,,,,,
0,program_change,0,0,0,6,0,,,,
0,pitchwheel,0,0,0,,0,0,,,
0,program_change,0,0,0,6,1,,,,
0,pitchwheel,0,0,0,,1,-590,,,
0,program_change,0,0,0,6,2,,,,
0,pitchwheel,0,0,0,,2,-272,,,
0,program_change,0,0,0,6,3,,,,
0,pitchwheel,0,0,0,,3,-353,,,
0,program_change,0,0,0,6,4,,,,
0,pitchwheel,0,0,0,,4,-560,,,
0,program_change,0,0,0,6,5,,,,
0,pitchwheel,0,0,0,,5,-80,,,
0,program_change,0,0,0,6,6,,,,
0,pitchwheel,0,0,0,,6,-625,,,
0,program_change,0,0,0,6,7,,,,
0,pitchwheel,0,0,0,,7,-130,,,
0,program_change,0,0,0,6,8,,,,
0,pitchwheel,0,0,0,,8,-512,,,
0,program_change,0,0,0,6,10,,,,
0,pitchwheel,0,0,0,,10,-464,,,
0,program_change,0,0,0,6,11,,,,
0,pitchwheel,0,0,0,,11,-208,,,
0,program_change,0,0,0,6,12,,,,
0,pitchwheel,0,0,0,,12,-553,,,
0,set_tempo,0,1,0,,,,500000,,
177,note_on,177,0,0,,10,,,81,127
354,note_on,177,0,0,,1,,,73,127
389,note_off,35,0,0,,10,,,81,127
530,note_off,141,0,0,,1,,,73,127
531,note_on,1,0,0,,1,,,73,127
707,note_off,176,0,0,,1,,,73,127
708,note_on,1,0,0,,4,,,76,127
885,note_on,177,0,0,,4,,,64,127
920,note_off,35,0,0,,4,,,76,127
1061,note_off,141,0,0,,4,,,64,127
1062,note_on,1,0,0,,4,,,64,127
1238,note_off,176,0,0,,4,,,64,127
1239,note_on,1,0,0,,10,,,69,127
1416,note_on,177,0,0,,1,,,61,127
1451,note_off,35,0,0,,10,,,69,127
1592,note_off,141,0,0,,1,,,61,127
1593,note_on,1,0,0,,1,,,61,127
1769,note_off,176,0,0,,1,,,61,127
1770,note_on,1,0,0,,4,,,64,127
1947,note_on,177,0,0,,4,,,52,127
1982,note_off,35,0,0,,4,,,64,127
2123,note_off,141,0,0,,4,,,52,127
2124,note_on,1,0,0,,4,,,52,127
2300,note_off,176,0,0,,4,,,52,127
2301,note_on,1,0,0,,10,,,57,127
2478,note_on,177,0,0,,1,,,49,127
2513,note_off,35,0,0,,10,,,57,127
2654,note_off,141,0,0,,1,,,49,127
2655,note_on,1,0,0,,1,,,49,127
2831,note_off,176,0,0,,1,,,49,127
2832,note_on,1,0,0,,4,,,52,127
3009,note_on,177,0,0,,4,,,40,127
3044,note_off,35,0,0,,4,,,52,127
3185,note_off,141,0,0,,4,,,40,127
3186,note_on,1,0,0,,4,,,40,127
3362,note_off,176,0,0,,4,,,40,127
3363,note_on,1,0,0,,10,,,45,127
3570,note_on,207,0,0,,4,,,64,127
3717,note_off,147,0,0,,10,,,45,127
3747,note_off,30,0,0,,4,,,64,127
3748,note_on,1,0,0,,10,,,57,127
3748,note_on,0,0,0,,1,,,73,127
3924,note_off,176,0,0,,10,,,57,127
3925,note_on,1,0,0,,12,,,59,127
4101,note_off,176,0,0,,1,,,73,127
4102,note_on,1,0,0,,2,,,74,127
4278,note_off,176,0,0,,2,,,74,127
4278,note_off,0,0,0,,12,,,59,127
4279,note_on,1,0,0,,4,,,52,127
4279,note_on,0,0,0,,12,,,71,127
4454,note_off,175,0,0,,12,,,71,127
4455,note_off,1,0,0,,4,,,52,127
4456,note_on,1,0,0,,10,,,57,127
4648,note_on,192,0,0,,4,,,64,127
4810,note_off,162,0,0,,10,,,57,127
4825,note_off,15,0,0,,4,,,64,127
4826,note_on,1,0,0,,1,,,73,127
4826,note_on,0,0,0,,1,,,61,127
5002,note_off,176,0,0,,1,,,61,127
5003,note_on,1,0,0,,12,,,59,127
5179,note_off,176,0,0,,1,,,73,127
5180,note_on,1,0,0,,2,,,74,127
5356,note_off,176,0,0,,2,,,74,127
5356,note_off,0,0,0,,12,,,59,127
5357,note_on,1,0,0,,12,,,71,127
5357,note_on,0,0,0,,8,,,56,127
5532,note_off,175,0,0,,12,,,71,127
5533,note_off,1,0,0,,8,,,56,127
5534,note_on,1,0,0,,10,,,57,127
5726,note_on,192,0,0,,6,,,66,127
5902,note_off,176,0,0,,6,,,66,127
5903,note_on,1,0,0,,1,,,73,127
6065,note_off,162,0,0,,10,,,57,127
6081,note_on,16,0,0,,8,,,56,127
6081,note_on,0,0,0,,12,,,59,127
6081,note_on,0,0,0,,5,,,65,127
6257,note_off,176,0,0,,1,,,73,127
6258,note_on,1,0,0,,2,,,74,127
6434,note_off,176,0,0,,2,,,74,127
6435,note_on,1,0,0,,12,,,71,127
6610,note_off,175,0,0,,12,,,71,127
6611,note_off,1,0,0,,5,,,65,127
6611,note_off,0,0,0,,12,,,59,127
6611,note_off,0,0,0,,8,,,56,127
6612,note_on,1,0,0,,10,,,57,127
6804,note_on,192,0,0,,6,,,66,127
6966,note_off,162,0,0,,10,,,57,127
6981,note_off,15,0,0,,6,,,66,127
6982,note_on,1,0,0,,1,,,73,127
6982,note_on,0,0,0,,1,,,61,127
7158,note_off,176,0,0,,1,,,61,127
7159,note_on,1,0,0,,5,,,65,127
7159,note_on,0,0,0,,8,,,56,127
7335,note_off,176,0,0,,1,,,73,127
7336,note_on,1,0,0,,2,,,74,127
7512,note_off,176,0,0,,2,,,74,127
7512,note_off,0,0,0,,8,,,56,127
7513,note_on,1,0,0,,12,,,71,127
7513,note_on,0,0,0,,12,,,59,127
7688,note_off,175,0,0,,12,,,71,127
7689,note_off,1,0,0,,12,,,59,127
7689,note_off,0,0,0,,5,,,65,127
7690,note_on,1,0,0,,10,,,57,127
7882,note_on,192,0,0,,4,,,64,127
8058,note_off,176,0,0,,4,,,64,127
8059,note_on,1,0,0,,1,,,73,127
8221,note_off,162,0,0,,10,,,57,127
8237,note_on,16,0,0,,6,,,54,127
8237,note_on,0,0,0,,2,,,62,127
8413,note_off,176,0,0,,1,,,73,127
8414,note_on,1,0,0,,2,,,74,127
8590,note_off,176,0,0,,2,,,74,127
8590,note_off,0,0,0,,6,,,54,127
8591,note_on,1,0,0,,8,,,56,127
8591,note_on,0,0,0,,12,,,71,127
8766,note_off,175,0,0,,12,,,71,127
8767,note_off,1,0,0,,8,,,56,127
8767,note_off,0,0,0,,2,,,62,127
8768,note_on,1,0,0,,10,,,57,127
8960,note_on,192,0,0,,4,,,64,127
9136,note_off,176,0,0,,4,,,64,127
9137,note_on,1,0,0,,1,,,73,127
9137,note_on,0,0,0,,1,,,61,127
9299,note_off,162,0,0,,10,,,57,127
9314,note_off,15,0,0,,1,,,61,127
9315,note_on,1,0,0,,2,,,62,127
9315,note_on,0,0,0,,6,,,54,127
9491,note_off,176,0,0,,1,,,73,127
9492,note_on,1,0,0,,2,,,74,127
9668,note_off,176,0,0,,2,,,74,127
9668,note_off,0,0,0,,6,,,54,127
9669,note_on,1,0,0,,12,,,71,127
9669,note_on,0,0,0,,8,,,56,127
9844,note_off,175,0,0,,12,,,71,127
9845,note_off,1,0,0,,8,,,56,127
9845,note_off,0,0,0,,2,,,62,127
9846,note_on,1,0,0,,10,,,57,127
10038,note_on,192,0,0,,4,,,64,127
10214,note_off,176,0,0,,4,,,64,127
10215,note_on,1,0,0,,1,,,73,127
10377,note_off,162,0,0,,10,,,57,127
10393,note_on,16,0,0,,7,,,55,127
10393,note_on,0,0,0,,4,,,64,127
10569,note_off,176,0,0,,1,,,73,127
10570,note_on,1,0,0,,2,,,74,127
10746,note_off,176,0,0,,2,,,74,127
10747,note_on,1,0,0,,12,,,71,127
10923,note_off,176,0,0,,12,,,71,127
10923,note_off,0,0,0,,4,,,64,127
10923,note_off,0,0,0,,7,,,55,127
10924,note_on,1,0,0,,6,,,54,127
10924,note_on,0,0,0,,1,,,61,127
10924,note_on,0,0,0,,4,,,64,127
10924,note_on,0,0,0,,1,,,73,127
11012,note_off,88,0,0,,1,,,73,127
11013,note_on,1,0,0,,12,,,71,127
11101,note_off,88,0,0,,12,,,71,127
11102,note_on,1,0,0,,11,,,70,127
11278,note_off,176,0,0,,11,,,70,127
11279,note_on,1,0,0,,1,,,73,127
11455,note_off,176,0,0,,4,,,64,127
11455,note_off,0,0,0,,1,,,61,127
11455,note_off,0,0,0,,6,,,54,127
11456,note_on,1,0,0,,7,,,55,127
11456,note_on,0,0,0,,1,,,61,127
11456,note_on,0,0,0,,4,,,64,127
11632,note_off,176,0,0,,1,,,73,127
11633,note_on,1,0,0,,2,,,74,127
11809,note_off,176,0,0,,2,,,74,127
11810,note_on,1,0,0,,12,,,71,127
11986,note_off,176,0,0,,12,,,71,127
11986,note_off,0,0,0,,4,,,64,127
11986,note_off,0,0,0,,1,,,61,127
11986,note_off,0,0,0,,7,,,55,127
11987,note_on,1,0,0,,1,,,61,127
11987,note_on,0,0,0,,4,,,64,127
11987,note_on,0,0,0,,6,,,54,127
11987,note_on,0,0,0,,1,,,73,127
12075,note_off,88,0,0,,1,,,73,127
12076,note_on,1,0,0,,12,,,71,127
12164,note_off,88,0,0,,12,,,71,127
12165,note_on,1,0,0,,11,,,70,127
12341,note_off,176,0,0,,11,,,70,127
12342,note_on,1,0,0,,1,,,73,127
12518,note_off,176,0,0,,6,,,54,127
12518,note_off,0,0,0,,4,,,64,127
12518,note_off,0,0,0,,1,,,61,127
12519,note_on,1,0,0,,7,,,55,127
12519,note_on,0,0,0,,1,,,61,127
12519,note_on,0,0,0,,4,,,64,127
12695,note_off,176,0,0,,1,,,73,127
12696,note_on,1,0,0,,2,,,74,127
12872,note_off,176,0,0,,2,,,74,127
12873,note_on,1,0,0,,12,,,71,127
13049,note_off,176,0,0,,12,,,71,127
13049,note_off,0,0,0,,4,,,64,127
13049,note_off,0,0,0,,1,,,61,127
13049,note_off,0,0,0,,7,,,55,127
13050,note_on,1,0,0,,6,,,54,127
13050,note_on,0,0,0,,4,,,64,127
13050,note_on,0,0,0,,1,,,61,127
13050,note_on,0,0,0,,1,,,73,127
13138,note_off,88,0,0,,1,,,73,127
13139,note_on,1,0,0,,12,,,71,127
13227,note_off,88,0,0,,12,,,71,127
13228,note_on,1,0,0,,11,,,70,127
13404,note_off,176,0,0,,11,,,70,127
13405,note_on,1,0,0,,1,,,73,127
13581,note_off,176,0,0,,1,,,61,127
13581,note_off,0,0,0,,4,,,64,127
13581,note_off,0,0,0,,6,,,54,127
13597,note_on,16,0,0,,10,,,69,127
13597,note_on,0,0,0,,6,,,54,127
13597,note_on,0,0,0,,3,,,51,127
13756,note_off,159,0,0,,1,,,73,127
13774,note_on,18,0,0,,3,,,75,127
13950,note_off,176,0,0,,3,,,75,127
13951,note_on,1,0,0,,0,,,72,127
14127,note_off,176,0,0,,0,,,72,127
14127,note_off,0,0,0,,3,,,51,127
14127,note_off,0,0,0,,6,,,54,127
14127,note_off,0,0,0,,10,,,69,127
14128,note_on,1,0,0,,1,,,73,127
14128,note_on,0,0,0,,4,,,52,127
14128,note_on,0,0,0,,8,,,56,127
14304,note_off,176,0,0,,1,,,73,127
14305,note_on,1,0,0,,8,,,68,127
14481,note_off,176,0,0,,8,,,68,127
14482,note_on,1,0,0,,1,,,73,127
14658,note_off,176,0,0,,8,,,56,127
14658,note_off,0,0,0,,4,,,52,127
14659,note_on,1,0,0,,10,,,69,127
14659,note_on,0,0,0,,6,,,54,127
14659,note_on,0,0,0,,3,,,51,127
14833,note_off,174,0,0,,1,,,73,127
14837,note_on,4,0,0,,3,,,75,127
15013,note_off,176,0,0,,3,,,75,127
15014,note_on,1,0,0,,0,,,72,127
15190,note_off,176,0,0,,0,,,72,127
15190,note_off,0,0,0,,3,,,51,127
15190,note_off,0,0,0,,6,,,54,127
15190,note_off,0,0,0,,10,,,69,127
15191,note_on,1,0,0,,1,,,73,127
15191,note_on,0,0,0,,4,,,52,127
15367,note_off,176,0,0,,4,,,52,127
15367,note_off,0,0,0,,1,,,73,127
15368,note_on,1,0,0,,3,,,75,127
15368,note_on,0,0,0,,3,,,51,127
15544,note_off,176,0,0,,3,,,51,127
15544,note_off,0,0,0,,3,,,75,127
15545,note_on,1,0,0,,4,,,76,127
15545,note_on,0,0,0,,1,,,49,127
15721,note_off,176,0,0,,1,,,49,127
15722,note_on,1,0,0,,10,,,69,127
15722,note_on,0,0,0,,6,,,54,127
15896,note_off,174,0,0,,4,,,76,127
15899,note_off,3,0,0,,6,,,54,127
15900,note_on,1,0,0,,3,,,75,127
15900,note_on,0,0,0,,8,,,56,127
16076,note_off,176,0,0,,8,,,56,127
16076,note_off,0,0,0,,3,,,75,127
16077,note_on,1,0,0,,1,,,73,127
16077,note_on,0,0,0,,10,,,57,127
16253,note_off,176,0,0,,10,,,57,127
16253,note_off,0,0,0,,1,,,73,127
16253,note_off,0,0,0,,10,,,69,127
16254,note_on,1,0,0,,0,,,72,127
16254,note_on,0,0,0,,8,,,56,127
16342,note_off,88,0,0,,0,,,72,127
16343,note_on,1,0,0,,10,,,69,127
16431,note_off,88,0,0,,10,,,69,127
16431,note_off,0,0,0,,8,,,56,127
16432,note_on,1,0,0,,8,,,68,127
16432,note_on,0,0,0,,11,,,58,127
16520,note_off,88,0,0,,8,,,68,127
16521,note_on,1,0,0,,6,,,66,127
16609,note_off,88,0,0,,6,,,66,127
16609,note_off,0,0,0,,11,,,58,127
16610,note_on,1,0,0,,4,,,64,127
16610,note_on,0,0,0,,0,,,60,127
16698,note_off,88,0,0,,4,,,64,127
16699,note_on,1,0,0,,3,,,63,127
16787,note_off,88,0,0,,3,,,63,127
16787,note_off,0,0,0,,0,,,60,127
16788,note_on,1,0,0,,4,,,64,127
16788,note_on,0,0,0,,1,,,61,127
16964,note_off,176,0,0,,1,,,61,127
16964,note_off,0,0,0,,4,,,64,127
16965,note_on,1,0,0,,3,,,63,127
16965,note_on,0,0,0,,12,,,59,127
17141,note_off,176,0,0,,12,,,59,127
17141,note_off,0,0,0,,3,,,63,127
17146,note_on,5,0,0,,10,,,57,127
17146,note_on,0,0,0,,1,,,61,127
17330,note_off,184,0,0,,1,,,61,127
17330,note_off,0,0,0,,10,,,57,127
17335,note_on,5,0,0,,8,,,44,127
17335,note_on,0,0,0,,8,,,56,127
17335,note_on,0,0,0,,3,,,63,127
17511,note_off,176,0,0,,3,,,63,127
17512,note_on,1,0,0,,6,,,66,127
17688,note_off,176,0,0,,6,,,66,127
17689,note_on,1,0,0,,4,,,64,127
17865,note_off,176,0,0,,4,,,64,127
17865,note_off,0,0,0,,8,,,56,127
17865,note_off,0,0,0,,8,,,44,127
17866,note_on,1,0,0,,10,,,45,127
17866,note_on,0,0,0,,6,,,54,127
17866,note_on,0,0,0,,6,,,66,127
17954,note_off,88,0,0,,6,,,66,127
17955,note_on,1,0,0,,4,,,64,127
18043,note_off,88,0,0,,4,,,64,127
18044,note_on,1,0,0,,3,,,63,127
18220,note_off,176,0,0,,3,,,63,127
18221,note_on,1,0,0,,1,,,61,127
18397,note_off,176,0,0,,1,,,61,127
18397,note_off,0,0,0,,6,,,54,127
18397,note_off,0,0,0,,10,,,45,127
18398,note_on,1,0,0,,8,,,44,127
18398,note_on,0,0,0,,3,,,51,127
18398,note_on,0,0,0,,6,,,54,127
18398,note_on,0,0,0,,3,,,63,127
18574,note_off,176,0,0,,3,,,63,127
18575,note_on,1,0,0,,6,,,66,127
18751,note_off,176,0,0,,6,,,66,127
18752,note_on,1,0,0,,4,,,64,127
18928,note_off,176,0,0,,4,,,64,127
18928,note_off,0,0,0,,6,,,54,127
18928,note_off,0,0,0,,3,,,51,127
18928,note_off,0,0,0,,8,,,44,127
18929,note_on,1,0,0,,10,,,45,127
18929,note_on,0,0,0,,6,,,54,127
18929,note_on,0,0,0,,3,,,51,127
18929,note_on,0,0,0,,6,,,66,127
19017,note_off,88,0,0,,6,,,66,127
19018,note_on,1,0,0,,4,,,64,127
19106,note_off,88,0,0,,4,,,64,127
19107,note_on,1,0,0,,3,,,63,127
19283,note_off,176,0,0,,3,,,63,127
19284,note_on,1,0,0,,1,,,61,127
19460,note_off,176,0,0,,1,,,61,127
19460,note_off,0,0,0,,3,,,51,127
19460,note_off,0,0,0,,6,,,54,127
19460,note_off,0,0,0,,10,,,45,127
19461,note_on,1,0,0,,8,,,44,127
19461,note_on,0,0,0,,6,,,54,127
19461,note_on,0,0,0,,3,,,51,127
19461,note_on,0,0,0,,3,,,63,127
19637,note_off,176,0,0,,3,,,63,127
19638,note_on,1,0,0,,6,,,66,127
19814,note_off,176,0,0,,6,,,66,127
19815,note_on,1,0,0,,4,,,64,127
19991,note_off,176,0,0,,4,,,64,127
19991,note_off,0,0,0,,3,,,51,127
19991,note_off,0,0,0,,6,,,54,127
19991,note_off,0,0,0,,8,,,44,127
19992,note_on,1,0,0,,10,,,45,127
19992,note_on,0,0,0,,6,,,54,127
19992,note_on,0,0,0,,3,,,51,127
19992,note_on,0,0,0,,6,,,66,127
20080,note_off,88,0,0,,6,,,66,127
20081,note_on,1,0,0,,4,,,64,127
20169,note_off,88,0,0,,4,,,64,127
20170,note_on,1,0,0,,3,,,63,127
20346,note_off,176,0,0,,3,,,63,127
20347,note_on,1,0,0,,1,,,61,127
20523,note_off,176,0,0,,1,,,61,127
20523,note_off,0,0,0,,3,,,51,127
20523,note_off,0,0,0,,6,,,54,127
20523,note_off,0,0,0,,10,,,45,127
20524,note_on,1,0,0,,3,,,51,127
20524,note_on,0,0,0,,8,,,44,127
20524,note_on,0,0,0,,8,,,56,127
20524,note_on,0,0,0,,1,,,61,127
20878,note_off,354,0,0,,1,,,61,127
20879,note_on,1,0,0,,3,,,63,127
21233,note_off,354,0,0,,8,,,56,127
21233,note_off,0,0,0,,8,,,44,127
21233,note_off,0,0,0,,3,,,51,127
21410,note_off,177,0,0,,3,,,63,127
21898,note_on,488,0,0,,6,,,54,127
22075,note_on,177,0,0,,3,,,63,127
22251,note_off,176,0,0,,3,,,63,127
22251,note_off,0,0,0,,6,,,54,127
22252,note_on,1,0,0,,8,,,56,127
22252,note_on,0,0,0,,6,,,66,127
22428,note_off,176,0,0,,6,,,66,127
22428,note_off,0,0,0,,8,,,56,127
22429,note_on,1,0,0,,12,,,59,127
22429,note_on,0,0,0,,3,,,75,127
22517,note_off,88,0,0,,12,,,59,127
22518,note_on,1,0,0,,10,,,57,127
22606,note_off,88,0,0,,10,,,57,127
22606,note_off,0,0,0,,3,,,75,127
22607,note_on,1,0,0,,6,,,54,127
22607,note_on,0,0,0,,3,,,63,127
22783,note_off,176,0,0,,3,,,63,127
22783,note_off,0,0,0,,6,,,54,127
22784,note_on,1,0,0,,8,,,56,127
22784,note_on,0,0,0,,6,,,66,127
22960,note_off,176,0,0,,6,,,66,127
22960,note_off,0,0,0,,8,,,56,127
22961,note_on,1,0,0,,12,,,59,127
22961,note_on,0,0,0,,3,,,75,127
23049,note_off,88,0,0,,12,,,59,127
23050,note_on,1,0,0,,10,,,57,127
23138,note_off,88,0,0,,10,,,57,127
23138,note_off,0,0,0,,3,,,75,127
23139,note_on,1,0,0,,6,,,54,127
23139,note_on,0,0,0,,3,,,63,127
23315,note_off,176,0,0,,3,,,63,127
23315,note_off,0,0,0,,6,,,54,127
23316,note_on,1,0,0,,8,,,56,127
23316,note_on,0,0,0,,6,,,66,127
23492,note_off,176,0,0,,6,,,66,127
23492,note_off,0,0,0,,8,,,56,127
23493,note_on,1,0,0,,12,,,59,127
23493,note_on,0,0,0,,3,,,75,127
23581,note_off,88,0,0,,12,,,59,127
23582,note_on,1,0,0,,10,,,57,127
23670,note_off,88,0,0,,10,,,57,127
23670,note_off,0,0,0,,3,,,75,127
23671,note_on,1,0,0,,6,,,54,127
23671,note_on,0,0,0,,3,,,63,127
23847,note_off,176,0,0,,3,,,63,127
23847,note_off,0,0,0,,6,,,54,127
23848,note_on,1,0,0,,8,,,56,127
23848,note_on,0,0,0,,6,,,66,127
24024,note_off,176,0,0,,6,,,66,127
24024,note_off,0,0,0,,8,,,56,127
24025,note_on,1,0,0,,10,,,57,127
24025,note_on,0,0,0,,3,,,75,127
24201,note_off,176,0,0,,3,,,75,127
24201,note_off,0,0,0,,10,,,57,127
24202,note_on,1,0,0,,3,,,63,127
24202,note_on,0,0,0,,6,,,66,127
24378,note_off,176,0,0,,6,,,66,127
24378,note_off,0,0,0,,3,,,63,127
24379,note_on,1,0,0,,1,,,61,127
24379,note_on,0,0,0,,10,,,69,127
24555,note_off,176,0,0,,10,,,69,127
24555,note_off,0,0,0,,1,,,61,127
24556,note_on,1,0,0,,1,,,61,127
24556,note_on,0,0,0,,6,,,78,127
24644,note_off,88,0,0,,1,,,61,127
24645,note_on,1,0,0,,0,,,60,127
24733,note_off,88,0,0,,0,,,60,127
24733,note_off,0,0,0,,6,,,78,127
24734,note_on,1,0,0,,3,,,63,127
24734,note_on,0,0,0,,6,,,66,127
24910,note_off,176,0,0,,6,,,66,127
24910,note_off,0,0,0,,3,,,63,127
24911,note_on,1,0,0,,1,,,61,127
24911,note_on,0,0,0,,10,,,69,127
25087,note_off,176,0,0,,10,,,69,127
25087,note_off,0,0,0,,1,,,61,127
25088,note_on,1,0,0,,1,,,61,127
25088,note_on,0,0,0,,6,,,78,127
25176,note_off,88,0,0,,1,,,61,127
25177,note_on,1,0,0,,0,,,60,127
25265,note_off,88,0,0,,0,,,60,127
25265,note_off,0,0,0,,6,,,78,127
25266,note_on,1,0,0,,3,,,63,127
25266,note_on,0,0,0,,6,,,66,127
25442,note_off,176,0,0,,6,,,66,127
25442,note_off,0,0,0,,3,,,63,127
25443,note_on,1,0,0,,1,,,61,127
25443,note_on,0,0,0,,10,,,69,127
25619,note_off,176,0,0,,10,,,69,127
25619,note_off,0,0,0,,1,,,61,127
25620,note_on,1,0,0,,1,,,61,127
25620,note_on,0,0,0,,6,,,78,127
25708,note_off,88,0,0,,1,,,61,127
25709,note_on,1,0,0,,0,,,60,127
25797,note_off,88,0,0,,0,,,60,127
25797,note_off,0,0,0,,6,,,78,127
25798,note_on,1,0,0,,3,,,63,127
25798,note_on,0,0,0,,6,,,66,127
25974,note_off,176,0,0,,6,,,66,127
25974,note_off,0,0,0,,3,,,63,127
25975,note_on,1,0,0,,1,,,61,127
25975,note_on,0,0,0,,10,,,69,127
26151,note_off,176,0,0,,10,,,69,127
26151,note_off,0,0,0,,1,,,61,127
26152,note_on,1,0,0,,1,,,61,127
26152,note_on,0,0,0,,6,,,78,127
26240,note_off,88,0,0,,1,,,61,127
26241,note_on,1,0,0,,0,,,60,127
26329,note_off,88,0,0,,0,,,60,127
26329,note_off,0,0,0,,6,,,78,127
26330,note_on,1,0,0,,3,,,63,127
26330,note_on,0,0,0,,6,,,66,127
26506,note_off,176,0,0,,6,,,66,127
26506,note_off,0,0,0,,3,,,63,127
26511,note_on,5,0,0,,1,,,61,127
26511,note_on,0,0,0,,10,,,69,127
26695,note_off,184,0,0,,10,,,69,127
26695,note_off,0,0,0,,1,,,61,127
26700,note_on,5,0,0,,10,,,81,127
26700,note_on,0,0,0,,0,,,60,127
26876,note_off,176,0,0,,0,,,60,127
26876,note_off,0,0,0,,10,,,81,127
26877,note_on,1,0,0,,8,,,80,127
26877,note_on,0,0,0,,11,,,58,127
27053,note_off,176,0,0,,11,,,58,127
27053,note_off,0,0,0,,8,,,80,127
27054,note_on,1,0,0,,6,,,78,127
27054,note_on,0,0,0,,8,,,56,127
27230,note_off,176,0,0,,8,,,56,127
27230,note_off,0,0,0,,6,,,78,127
27246,note_on,16,0,0,,1,,,49,127
27246,note_on,0,0,0,,1,,,85,127
27246,note_on,0,0,0,,4,,,76,127
27422,note_off,176,0,0,,4,,,76,127
27422,note_off,0,0,0,,1,,,49,127
27423,note_on,1,0,0,,3,,,51,127
27423,note_on,0,0,0,,3,,,75,127
27599,note_off,176,0,0,,3,,,75,127
27599,note_off,0,0,0,,3,,,51,127
27600,note_on,1,0,0,,4,,,52,127
27600,note_on,0,0,0,,1,,,73,127
27776,note_off,176,0,0,,1,,,73,127
27776,note_off,0,0,0,,4,,,52,127
27776,note_off,0,0,0,,1,,,85,127
27777,note_on,1,0,0,,6,,,54,127
27777,note_on,0,0,0,,6,,,78,127
27777,note_on,0,0,0,,3,,,75,127
27953,note_off,176,0,0,,3,,,75,127
27953,note_off,0,0,0,,6,,,78,127
27953,note_off,0,0,0,,6,,,54,127
27954,note_on,1,0,0,,8,,,56,127
27954,note_on,0,0,0,,1,,,73,127
27954,note_on,0,0,0,,4,,,76,127
28130,note_off,176,0,0,,4,,,76,127
28130,note_off,0,0,0,,1,,,73,127
28130,note_off,0,0,0,,8,,,56,127
28131,note_on,1,0,0,,8,,,44,127
28131,note_on,0,0,0,,0,,,72,127
28131,note_on,0,0,0,,3,,,75,127
28307,note_off,176,0,0,,3,,,75,127
28307,note_off,0,0,0,,0,,,72,127
28307,note_off,0,0,0,,8,,,44,127
28308,note_on,1,0,0,,1,,,61,127
28308,note_on,0,0,0,,1,,,73,127
28484,note_off,176,0,0,,1,,,61,127
28490,note_on,6,0,0,,4,,,64,127
28662,note_off,172,0,0,,1,,,73,127
28672,note_on,10,0,0,,4,,,76,127
28672,note_on,0,0,0,,1,,,61,127
28674,note_off,2,0,0,,4,,,64,127
28848,note_off,174,0,0,,1,,,61,127
28848,note_off,0,0,0,,4,,,76,127
28854,note_on,6,0,0,,3,,,75,127
28854,note_on,0,0,0,,12,,,59,127
29030,note_off,176,0,0,,3,,,75,127
29031,note_on,1,0,0,,1,,,73,127
29031,note_on,0,0,0,,4,,,64,127
29057,note_off,26,0,0,,12,,,59,127
29207,note_off,150,0,0,,4,,,64,127
29207,note_off,0,0,0,,1,,,73,127
29208,note_on,1,0,0,,4,,,76,127
29208,note_on,0,0,0,,12,,,59,127
29384,note_off,176,0,0,,12,,,59,127
29384,note_off,0,0,0,,4,,,76,127
29385,note_on,1,0,0,,3,,,75,127
29385,note_on,0,0,0,,10,,,57,127
29561,note_off,176,0,0,,3,,,75,127
29562,note_on,1,0,0,,1,,,73,127
29562,note_on,0,0,0,,4,,,64,127
29588,note_off,26,0,0,,10,,,57,127
29738,note_off,150,0,0,,4,,,64,127
29738,note_off,0,0,0,,1,,,73,127
29739,note_on,1,0,0,,8,,,80,127
29739,note_on,0,0,0,,1,,,61,127
29915,note_off,176,0,0,,1,,,61,127
29915,note_off,0,0,0,,8,,,80,127
29916,note_on,1,0,0,,3,,,75,127
29916,note_on,0,0,0,,8,,,56,127
30092,note_off,176,0,0,,3,,,75,127
30093,note_on,1,0,0,,1,,,73,127
30093,note_on,0,0,0,,4,,,64,127
30119,note_off,26,0,0,,8,,,56,127
30269,note_off,150,0,0,,4,,,64,127
30269,note_off,0,0,0,,1,,,73,127
30270,note_on,1,0,0,,8,,,80,127
30270,note_on,0,0,0,,1,,,61,127
30446,note_off,176,0,0,,1,,,61,127
30446,note_off,0,0,0,,8,,,80,127
30447,note_on,1,0,0,,3,,,75,127
30447,note_on,0,0,0,,6,,,54,127
30623,note_off,176,0,0,,3,,,75,127
30624,note_on,1,0,0,,1,,,73,127
30624,note_on,0,0,0,,4,,,64,127
30650,note_off,26,0,0,,6,,,54,127
30800,note_off,150,0,0,,4,,,64,127
30800,note_off,0,0,0,,1,,,73,127
30801,note_on,1,0,0,,1,,,85,127
30801,note_on,0,0,0,,1,,,61,127
30977,note_off,176,0,0,,1,,,61,127
30977,note_off,0,0,0,,1,,,85,127
30978,note_on,1,0,0,,3,,,75,127
30978,note_on,0,0,0,,4,,,52,127
31154,note_off,176,0,0,,3,,,75,127
31155,note_on,1,0,0,,1,,,73,127
31155,note_on,0,0,0,,4,,,64,127
31181,note_off,26,0,0,,4,,,52,127
31331,note_off,150,0,0,,4,,,64,127
31331,note_off,0,0,0,,1,,,73,127
31332,note_on,1,0,0,,1,,,85,127
31332,note_on,0,0,0,,1,,,61,127
31508,note_off,176,0,0,,1,,,61,127
31509,note_on,1,0,0,,6,,,42,127
31597,note_off,88,0,0,,1,,,85,127
31598,note_on,1,0,0,,12,,,83,127
31686,note_off,88,0,0,,12,,,83,127
31687,note_on,1,0,0,,10,,,81,127
31775,note_off,88,0,0,,10,,,81,127
31776,note_on,1,0,0,,8,,,80,127
31864,note_off,88,0,0,,8,,,80,127
31865,note_on,1,0,0,,6,,,78,127
31953,note_off,88,0,0,,6,,,78,127
31954,note_on,1,0,0,,4,,,76,127
32042,note_off,88,0,0,,4,,,76,127
32042,note_off,0,0,0,,6,,,42,127
32043,note_on,1,0,0,,3,,,75,127
32043,note_on,0,0,0,,8,,,44,127
32219,note_off,176,0,0,,3,,,75,127
32220,note_on,1,0,0,,1,,,73,127
32396,note_off,176,0,0,,1,,,73,127
32397,note_on,1,0,0,,0,,,72,127
32573,note_off,176,0,0,,0,,,72,127
32573,note_off,0,0,0,,8,,,44,127
32574,note_on,1,0,0,,1,,,73,127
32574,note_on,0,0,0,,1,,,61,127
32750,note_off,176,0,0,,1,,,61,127
32751,note_on,1,0,0,,4,,,64,127
32927,note_off,176,0,0,,4,,,64,127
32927,note_off,0,0,0,,1,,,73,127
32928,note_on,1,0,0,,4,,,76,127
32928,note_on,0,0,0,,1,,,61,127
33104,note_off,176,0,0,,1,,,61,127
33104,note_off,0,0,0,,4,,,76,127
33105,note_on,1,0,0,,3,,,75,127
33105,note_on,0,0,0,,12,,,59,127
33281,note_off,176,0,0,,12,,,59,127
33281,note_off,0,0,0,,3,,,75,127
33282,note_on,1,0,0,,1,,,73,127
33282,note_on,0,0,0,,4,,,64,127
33458,note_off,176,0,0,,4,,,64,127
33459,note_on,1,0,0,,4,,,76,127
33459,note_on,0,0,0,,1,,,61,127
33503,note_off,44,0,0,,1,,,73,127
33635,note_off,132,0,0,,1,,,61,127
33635,note_off,0,0,0,,4,,,76,127
33636,note_on,1,0,0,,3,,,75,127
33636,note_on,0,0,0,,10,,,57,127
33812,note_off,176,0,0,,10,,,57,127
33812,note_off,0,0,0,,3,,,75,127
33813,note_on,1,0,0,,1,,,73,127
33813,note_on,0,0,0,,4,,,64,127
33989,note_off,176,0,0,,4,,,64,127
33990,note_on,1,0,0,,8,,,80,127
33990,note_on,0,0,0,,1,,,61,127
34034,note_off,44,0,0,,1,,,73,127
34166,note_off,132,0,0,,1,,,61,127
34166,note_off,0,0,0,,8,,,80,127
34167,note_on,1,0,0,,3,,,75,127
34167,note_on,0,0,0,,8,,,56,127
34343,note_off,176,0,0,,8,,,56,127
34343,note_off,0,0,0,,3,,,75,127
34344,note_on,1,0,0,,1,,,73,127
34344,note_on,0,0,0,,4,,,64,127
34520,note_off,176,0,0,,4,,,64,127
34521,note_on,1,0,0,,8,,,80,127
34521,note_on,0,0,0,,1,,,61,127
34565,note_off,44,0,0,,1,,,73,127
34697,note_off,132,0,0,,1,,,61,127
34697,note_off,0,0,0,,8,,,80,127
34698,note_on,1,0,0,,3,,,75,127
34698,note_on,0,0,0,,6,,,54,127
34874,note_off,176,0,0,,6,,,54,127
34874,note_off,0,0,0,,3,,,75,127
34875,note_on,1,0,0,,1,,,73,127
34875,note_on,0,0,0,,4,,,64,127
35051,note_off,176,0,0,,4,,,64,127
35052,note_on,1,0,0,,1,,,85,127
35052,note_on,0,0,0,,1,,,61,127
35096,note_off,44,0,0,,1,,,73,127
35228,note_off,132,0,0,,1,,,61,127
35228,note_off,0,0,0,,1,,,85,127
35229,note_on,1,0,0,,3,,,75,127
35229,note_on,0,0,0,,4,,,52,127
35405,note_off,176,0,0,,4,,,52,127
35405,note_off,0,0,0,,3,,,75,127
35406,note_on,1,0,0,,1,,,73,127
35406,note_on,0,0,0,,4,,,64,127
35582,note_off,176,0,0,,4,,,64,127
35583,note_on,1,0,0,,1,,,85,127
35583,note_on,0,0,0,,1,,,61,127
35627,note_off,44,0,0,,1,,,73,127
35759,note_off,132,0,0,,1,,,61,127
35760,note_on,1,0,0,,6,,,42,127
35848,note_off,88,0,0,,1,,,85,127
35849,note_on,1,0,0,,12,,,83,127
35937,note_off,88,0,0,,12,,,83,127
35938,note_on,1,0,0,,10,,,81,127
36026,note_off,88,0,0,,10,,,81,127
36027,note_on,1,0,0,,8,,,80,127
36115,note_off,88,0,0,,8,,,80,127
36116,note_on,1,0,0,,6,,,78,127
36204,note_off,88,0,0,,6,,,78,127
36205,note_on,1,0,0,,4,,,76,127
36293,note_off,88,0,0,,4,,,76,127
36293,note_off,0,0,0,,6,,,42,127
36294,note_on,1,0,0,,3,,,75,127
36294,note_on,0,0,0,,8,,,44,127
36382,note_off,88,0,0,,3,,,75,127
36383,note_on,1,0,0,,1,,,73,127
36471,note_off,88,0,0,,1,,,73,127
36472,note_on,1,0,0,,0,,,72,127
36560,note_off,88,0,0,,0,,,72,127
36561,note_on,1,0,0,,10,,,69,127
36649,note_off,88,0,0,,10,,,69,127
36650,note_on,1,0,0,,8,,,68,127
36738,note_off,88,0,0,,8,,,68,127
36739,note_on,1,0,0,,6,,,66,127
36827,note_off,88,0,0,,6,,,66,127
36827,note_off,0,0,0,,8,,,44,127
36828,note_on,1,0,0,,4,,,64,127
36828,note_on,0,0,0,,1,,,49,127
37004,note_off,176,0,0,,1,,,49,127
37004,note_off,0,0,0,,4,,,64,127
37005,note_on,1,0,0,,3,,,63,127
37005,note_on,0,0,0,,3,,,51,127
37181,note_off,176,0,0,,3,,,51,127
37181,note_off,0,0,0,,3,,,63,127
37182,note_on,1,0,0,,1,,,61,127
37182,note_on,0,0,0,,4,,,52,127
37358,note_off,176,0,0,,4,,,52,127
37358,note_off,0,0,0,,1,,,61,127
37359,note_on,1,0,0,,3,,,63,127
37359,note_on,0,0,0,,6,,,66,127
37359,note_on,0,0,0,,6,,,54,127
37535,note_off,176,0,0,,6,,,54,127
37535,note_off,0,0,0,,6,,,66,127
37535,note_off,0,0,0,,3,,,63,127
37536,note_on,1,0,0,,4,,,64,127
37536,note_on,0,0,0,,1,,,61,127
37536,note_on,0,0,0,,8,,,56,127
37712,note_off,176,0,0,,8,,,56,127
37712,note_off,0,0,0,,1,,,61,127
37712,note_off,0,0,0,,4,,,64,127
37713,note_on,1,0,0,,3,,,63,127
37713,note_on,0,0,0,,0,,,60,127
37713,note_on,0,0,0,,8,,,44,127
37889,note_off,176,0,0,,8,,,44,127
37889,note_off,0,0,0,,0,,,60,127
37889,note_off,0,0,0,,3,,,63,127
37890,note_on,1,0,0,,1,,,61,127
37890,note_on,0,0,0,,1,,,37,127
38333,note_off,443,0,0,,1,,,61,127
38421,note_off,88,0,0,,1,,,37,127
38437,note_on,16,0,0,,1,,,49,127
38614,note_on,177,0,0,,1,,,61,127
38790,note_off,176,0,0,,1,,,61,127
38791,note_on,1,0,0,,8,,,68,127
38967,note_off,176,0,0,,1,,,49,127
38968,note_on,1,0,0,,12,,,59,127
38968,note_on,0,0,0,,2,,,50,127
38968,note_on,0,0,0,,8,,,56,127
39144,note_off,176,0,0,,8,,,68,127
39145,note_on,1,0,0,,10,,,69,127
39321,note_off,176,0,0,,10,,,69,127
39322,note_on,1,0,0,,6,,,66,127
39498,note_off,176,0,0,,8,,,56,127
39498,note_off,0,0,0,,2,,,50,127
39498,note_off,0,0,0,,12,,,59,127
39499,note_on,1,0,0,,12,,,59,127
39499,note_on,0,0,0,,1,,,49,127
39499,note_on,0,0,0,,8,,,56,127
39636,note_off,137,0,0,,6,,,66,127
39677,note_on,41,0,0,,5,,,65,127
39853,note_off,176,0,0,,5,,,65,127
39854,note_on,1,0,0,,8,,,68,127
40030,note_off,176,0,0,,8,,,56,127
40030,note_off,0,0,0,,1,,,49,127
40030,note_off,0,0,0,,12,,,59,127
40031,note_on,1,0,0,,12,,,59,127
40031,note_on,0,0,0,,2,,,50,127
40031,note_on,0,0,0,,8,,,56,127
40207,note_off,176,0,0,,8,,,68,127
40208,note_on,1,0,0,,10,,,69,127
40384,note_off,176,0,0,,10,,,69,127
40385,note_on,1,0,0,,6,,,66,127
40561,note_off,176,0,0,,8,,,56,127
40561,note_off,0,0,0,,2,,,50,127
40561,note_off,0,0,0,,12,,,59,127
40562,note_on,1,0,0,,12,,,59,127
40562,note_on,0,0,0,,8,,,56,127
40562,note_on,0,0,0,,1,,,49,127
40699,note_off,137,0,0,,6,,,66,127
40740,note_on,41,0,0,,5,,,65,127
40916,note_off,176,0,0,,5,,,65,127
40917,note_on,1,0,0,,8,,,68,127
41093,note_off,176,0,0,,1,,,49,127
41093,note_off,0,0,0,,8,,,56,127
41093,note_off,0,0,0,,12,,,59,127
41094,note_on,1,0,0,,2,,,62,127
41094,note_on,0,0,0,,8,,,56,127
41094,note_on,0,0,0,,12,,,59,127
41094,note_on,0,0,0,,12,,,47,127
41268,note_off,174,0,0,,8,,,68,127
41272,note_on,4,0,0,,10,,,69,127
41448,note_off,176,0,0,,10,,,69,127
41449,note_on,1,0,0,,8,,,68,127
41625,note_off,176,0,0,,8,,,68,127
41625,note_off,0,0,0,,12,,,47,127
41625,note_off,0,0,0,,12,,,59,127
41625,note_off,0,0,0,,8,,,56,127
41626,note_on,1,0,0,,10,,,69,127
41626,note_on,0,0,0,,4,,,52,127
41626,note_on,0,0,0,,10,,,57,127
41626,note_on,0,0,0,,10,,,45,127
41802,note_off,176,0,0,,2,,,62,127
41803,note_on,1,0,0,,1,,,61,127
41979,note_off,176,0,0,,1,,,61,127
41980,note_on,1,0,0,,4,,,64,127
42156,note_off,176,0,0,,4,,,64,127
42156,note_off,0,0,0,,10,,,45,127
42156,note_off,0,0,0,,10,,,57,127
42156,note_off,0,0,0,,4,,,52,127
42157,note_on,1,0,0,,2,,,62,127
42157,note_on,0,0,0,,2,,,50,127
42157,note_on,0,0,0,,12,,,47,127
42157,note_on,0,0,0,,12,,,59,127
42299,note_off,142,0,0,,10,,,69,127
42334,note_on,35,0,0,,12,,,71,127
42510,note_off,176,0,0,,12,,,71,127
42511,note_on,1,0,0,,8,,,68,127
42687,note_off,176,0,0,,8,,,68,127
42687,note_off,0,0,0,,12,,,59,127
42687,note_off,0,0,0,,12,,,47,127
42687,note_off,0,0,0,,2,,,50,127
42688,note_on,1,0,0,,10,,,69,127
42688,note_on,0,0,0,,10,,,57,127
42688,note_on,0,0,0,,4,,,52,127
42688,note_on,0,0,0,,10,,,45,127
42864,note_off,176,0,0,,2,,,62,127
42865,note_on,1,0,0,,1,,,61,127
43041,note_off,176,0,0,,1,,,61,127
43047,note_on,6,0,0,,4,,,64,127
43218,note_off,171,0,0,,10,,,45,127
43218,note_off,0,0,0,,4,,,52,127
43224,note_off,6,0,0,,4,,,64,127
43230,note_off,6,0,0,,10,,,57,127
43234,note_on,4,0,0,,12,,,59,127
43234,note_on,0,0,0,,7,,,55,127
43234,note_on,0,0,0,,7,,,67,127
43396,note_off,162,0,0,,10,,,69,127
43412,note_on,16,0,0,,11,,,70,127
43588,note_off,176,0,0,,11,,,70,127
43589,note_on,1,0,0,,12,,,71,127
43765,note_off,176,0,0,,12,,,71,127
43765,note_off,0,0,0,,7,,,67,127
43765,note_off,0,0,0,,7,,,55,127
43765,note_off,0,0,0,,12,,,59,127
43766,note_on,1,0,0,,6,,,54,127
43766,note_on,0,0,0,,1,,,61,127
43766,note_on,0,0,0,,12,,,71,127
43766,note_on,0,0,0,,6,,,66,127
43942,note_off,176,0,0,,12,,,71,127
43943,note_on,1,0,0,,11,,,70,127
44117,note_off,174,0,0,,6,,,66,127
44120,note_off,3,0,0,,11,,,70,127
44121,note_on,1,0,0,,6,,,66,127
44297,note_off,176,0,0,,1,,,61,127
44297,note_off,0,0,0,,6,,,54,127
44298,note_on,1,0,0,,7,,,55,127
44298,note_on,0,0,0,,12,,,59,127
44298,note_on,0,0,0,,12,,,71,127
44472,note_off,174,0,0,,6,,,66,127
44476,note_on,4,0,0,,2,,,62,127
44652,note_off,176,0,0,,2,,,62,127
44653,note_on,1,0,0,,4,,,64,127
44829,note_off,176,0,0,,4,,,64,127
44829,note_off,0,0,0,,12,,,59,127
44829,note_off,0,0,0,,7,,,55,127
44830,note_on,1,0,0,,1,,,61,127
44830,note_on,0,0,0,,6,,,54,127
44830,note_on,0,0,0,,6,,,66,127
45006,note_off,176,0,0,,12,,,71,127
45009,note_on,3,0,0,,11,,,70,127
45185,note_off,176,0,0,,11,,,70,127
45191,note_on,6,0,0,,1,,,73,127
45361,note_off,170,0,0,,1,,,61,127
45367,note_off,6,0,0,,1,,,73,127
45371,note_off,4,0,0,,6,,,54,127
45377,note_on,6,0,0,,12,,,71,127
45377,note_on,0,0,0,,7,,,55,127
45377,note_on,0,0,0,,12,,,59,127
45539,note_off,162,0,0,,6,,,66,127
45555,note_on,16,0,0,,7,,,67,127
45731,note_off,176,0,0,,7,,,67,127
45732,note_on,1,0,0,,4,,,64,127
45908,note_off,176,0,0,,12,,,59,127
45908,note_off,0,0,0,,7,,,55,127
45908,note_off,0,0,0,,12,,,71,127
45909,note_on,1,0,0,,10,,,69,127
45909,note_on,0,0,0,,10,,,57,127
45909,note_on,0,0,0,,6,,,54,127
46083,note_off,174,0,0,,4,,,64,127
46087,note_on,4,0,0,,3,,,63,127
46263,note_off,176,0,0,,3,,,63,127
46264,note_on,1,0,0,,6,,,66,127
46440,note_off,176,0,0,,6,,,66,127
46440,note_off,0,0,0,,6,,,54,127
46440,note_off,0,0,0,,10,,,57,127
46441,note_on,1,0,0,,0,,,60,127
46441,note_on,0,0,0,,10,,,57,127
46441,note_on,0,0,0,,4,,,52,127
46617,note_off,176,0,0,,0,,,60,127
46617,note_off,0,0,0,,10,,,69,127
46618,note_on,1,0,0,,10,,,69,127
46795,note_on,177,0,0,,0,,,60,127
46971,note_off,176,0,0,,0,,,60,127
46971,note_off,0,0,0,,4,,,52,127
46971,note_off,0,0,0,,10,,,57,127
46972,note_on,1,0,0,,12,,,59,127
46972,note_on,0,0,0,,10,,,57,127
46972,note_on,0,0,0,,3,,,51,127
47148,note_off,176,0,0,,10,,,69,127
47149,note_on,1,0,0,,6,,,66,127
47325,note_off,176,0,0,,6,,,66,127
47326,note_on,1,0,0,,12,,,71,127
47502,note_off,176,0,0,,12,,,71,127
47502,note_off,0,0,0,,3,,,51,127
47502,note_off,0,0,0,,10,,,57,127
47502,note_off,0,0,0,,12,,,59,127
47503,note_on,1,0,0,,10,,,69,127
47503,note_on,0,0,0,,12,,,59,127
47503,note_on,0,0,0,,4,,,52,127
47591,note_off,88,0,0,,10,,,69,127
47592,note_on,1,0,0,,7,,,67,127
47680,note_off,88,0,0,,7,,,67,127
47680,note_off,0,0,0,,4,,,52,127
47681,note_on,1,0,0,,6,,,66,127
47681,note_on,0,0,0,,2,,,50,127
47857,note_off,176,0,0,,2,,,50,127
47857,note_off,0,0,0,,6,,,66,127
47858,note_on,1,0,0,,0,,,48,127
47860,note_on,2,0,0,,4,,,64,127
48034,note_off,174,0,0,,0,,,48,127
48034,note_off,0,0,0,,12,,,59,127
48036,note_off,2,0,0,,4,,,64,127
48050,note_on,14,0,0,,12,,,59,127
48050,note_on,0,0,0,,12,,,47,127
48050,note_on,0,0,0,,6,,,66,127
48050,note_on,0,0,0,,3,,,63,127
48226,note_off,176,0,0,,6,,,66,127
48227,note_on,1,0,0,,10,,,69,127
48403,note_off,176,0,0,,10,,,69,127
48404,note_on,1,0,0,,7,,,67,127
48580,note_off,176,0,0,,7,,,67,127
48580,note_off,0,0,0,,3,,,63,127
48580,note_off,0,0,0,,12,,,47,127
48580,note_off,0,0,0,,12,,,59,127
48581,note_on,1,0,0,,0,,,48,127
48581,note_on,0,0,0,,10,,,57,127
48581,note_on,0,0,0,,4,,,64,127
48581,note_on,0,0,0,,10,,,69,127
48669,note_off,88,0,0,,10,,,69,127
48670,note_on,1,0,0,,7,,,67,127
48758,note_off,88,0,0,,7,,,67,127
48759,note_on,1,0,0,,6,,,66,127
48933,note_off,174,0,0,,4,,,64,127
48936,note_off,3,0,0,,6,,,66,127
48937,note_on,1,0,0,,4,,,64,127
49113,note_off,176,0,0,,4,,,64,127
49113,note_off,0,0,0,,10,,,57,127
49113,note_off,0,0,0,,0,,,48,127
49114,note_on,1,0,0,,12,,,47,127
49114,note_on,0,0,0,,12,,,59,127
49114,note_on,0,0,0,,6,,,66,127
49114,note_on,0,0,0,,3,,,63,127
49290,note_off,176,0,0,,6,,,66,127
49291,note_on,1,0,0,,10,,,69,127
49467,note_off,176,0,0,,10,,,69,127
49468,note_on,1,0,0,,7,,,67,127
49644,note_off,176,0,0,,7,,,67,127
49644,note_off,0,0,0,,3,,,63,127
49644,note_off,0,0,0,,12,,,59,127
49644,note_off,0,0,0,,12,,,47,127
49645,note_on,1,0,0,,0,,,48,127
49645,note_on,0,0,0,,10,,,57,127
49645,note_on,0,0,0,,10,,,69,127
49645,note_on,0,0,0,,4,,,64,127
49733,note_off,88,0,0,,10,,,69,127
49734,note_on,1,0,0,,7,,,67,127
49822,note_off,88,0,0,,7,,,67,127
49823,note_on,1,0,0,,6,,,66,127
49997,note_off,174,0,0,,4,,,64,127
50000,note_off,3,0,0,,6,,,66,127
50001,note_on,1,0,0,,4,,,64,127
50177,note_off,176,0,0,,4,,,64,127
50177,note_off,0,0,0,,10,,,57,127
50177,note_off,0,0,0,,0,,,48,127
50178,note_on,1,0,0,,12,,,47,127
50178,note_on,0,0,0,,12,,,59,127
50178,note_on,0,0,0,,3,,,63,127
50178,note_on,0,0,0,,6,,,66,127
50354,note_off,176,0,0,,6,,,66,127
50355,note_on,1,0,0,,11,,,70,127
50531,note_off,176,0,0,,11,,,70,127
50532,note_on,1,0,0,,12,,,71,127
50708,note_off,176,0,0,,12,,,59,127
50709,note_on,1,0,0,,12,,,35,127
50800,note_off,91,0,0,,3,,,63,127
51178,note_off,378,0,0,,12,,,71,127
51239,note_off,61,0,0,,12,,,47,127
51632,note_off,393,0,0,,12,,,35,127
52171,note_on,539,0,0,,4,,,64,127
52348,note_on,177,0,0,,12,,,71,127
52524,note_off,176,0,0,,12,,,71,127
52524,note_off,0,0,0,,4,,,64,127
52525,note_on,1,0,0,,8,,,80,127
52525,note_on,0,0,0,,8,,,68,127
52701,note_off,176,0,0,,8,,,68,127
52702,note_on,1,0,0,,6,,,66,127
52878,note_off,176,0,0,,8,,,80,127
52879,note_on,1,0,0,,10,,,81,127
53055,note_off,176,0,0,,10,,,81,127
53055,note_off,0,0,0,,6,,,66,127
53056,note_on,1,0,0,,6,,,78,127
53056,note_on,0,0,0,,12,,,59,127
53231,note_off,175,0,0,,6,,,78,127
53232,note_off,1,0,0,,12,,,59,127
53233,note_on,1,0,0,,4,,,64,127
53410,note_on,177,0,0,,12,,,71,127
53586,note_off,176,0,0,,12,,,71,127
53586,note_off,0,0,0,,4,,,64,127
53587,note_on,1,0,0,,8,,,80,127
53587,note_on,0,0,0,,8,,,68,127
53763,note_off,176,0,0,,8,,,68,127
53764,note_on,1,0,0,,6,,,66,127
53940,note_off,176,0,0,,8,,,80,127
53941,note_on,1,0,0,,10,,,81,127
54117,note_off,176,0,0,,10,,,81,127
54117,note_off,0,0,0,,6,,,66,127
54118,note_on,1,0,0,,6,,,78,127
54118,note_on,0,0,0,,12,,,59,127
54293,note_off,175,0,0,,6,,,78,127
54294,note_off,1,0,0,,12,,,59,127
54295,note_on,1,0,0,,4,,,64,127
54472,note_on,177,0,0,,12,,,71,127
54648,note_off,176,0,0,,12,,,71,127
54648,note_off,0,0,0,,4,,,64,127
54649,note_on,1,0,0,,8,,,80,127
54649,note_on,0,0,0,,8,,,68,127
54825,note_off,176,0,0,,8,,,68,127
54826,note_on,1,0,0,,0,,,72,127
54826,note_on,0,0,0,,10,,,69,127
54826,note_on,0,0,0,,3,,,63,127
55000,note_off,174,0,0,,8,,,80,127
55004,note_on,4,0,0,,10,,,81,127
55180,note_off,176,0,0,,10,,,81,127
55180,note_off,0,0,0,,3,,,63,127
55181,note_on,1,0,0,,6,,,78,127
55181,note_on,0,0,0,,6,,,66,127
55356,note_off,175,0,0,,6,,,78,127
55357,note_off,1,0,0,,6,,,66,127
55357,note_off,0,0,0,,10,,,69,127
55357,note_off,0,0,0,,0,,,72,127
55358,note_on,1,0,0,,4,,,64,127
55535,note_on,177,0,0,,1,,,73,127
55711,note_off,176,0,0,,1,,,73,127
55711,note_off,0,0,0,,4,,,64,127
55712,note_on,1,0,0,,8,,,80,127
55712,note_on,0,0,0,,8,,,68,127
55888,note_off,176,0,0,,8,,,68,127
55889,note_on,1,0,0,,0,,,72,127
55889,note_on,0,0,0,,10,,,69,127
55889,note_on,0,0,0,,3,,,63,127
56063,note_off,174,0,0,,8,,,80,127
56067,note_on,4,0,0,,10,,,81,127
56243,note_off,176,0,0,,10,,,81,127
56243,note_off,0,0,0,,3,,,63,127
56244,note_on,1,0,0,,6,,,78,127
56244,note_on,0,0,0,,6,,,66,127
56419,note_off,175,0,0,,6,,,78,127
56420,note_off,1,0,0,,6,,,66,127
56420,note_off,0,0,0,,10,,,69,127
56420,note_off,0,0,0,,0,,,72,127
56421,note_on,1,0,0,,8,,,68,127
56421,note_on,0,0,0,,4,,,64,127
56598,note_on,177,0,0,,1,,,73,127
56774,note_off,176,0,0,,1,,,73,127
56775,note_on,1,0,0,,8,,,80,127
56951,note_off,176,0,0,,4,,,64,127
56951,note_off,0,0,0,,8,,,68,127
56952,note_on,1,0,0,,12,,,71,127
56952,note_on,0,0,0,,2,,,62,127
56952,note_on,0,0,0,,6,,,66,127
57128,note_off,176,0,0,,8,,,80,127
57129,note_on,1,0,0,,10,,,81,127
57305,note_off,176,0,0,,10,,,81,127
57306,note_on,1,0,0,,6,,,78,127
57482,note_off,176,0,0,,6,,,78,127
57482,note_off,0,0,0,,6,,,66,127
57482,note_off,0,0,0,,2,,,62,127
57482,note_off,0,0,0,,12,,,71,127
57483,note_on,1,0,0,,8,,,80,127
57483,note_on,0,0,0,,6,,,66,127
57483,note_on,0,0,0,,12,,,71,127
57483,note_on,0,0,0,,8,,,68,127
57483,note_on,0,0,0,,1,,,61,127
57571,note_off,88,0,0,,8,,,80,127
57572,note_on,1,0,0,,6,,,78,127
57660,note_off,88,0,0,,6,,,78,127
57661,note_on,1,0,0,,5,,,77,127
57837,note_off,176,0,0,,5,,,77,127
57838,note_on,1,0,0,,8,,,80,127
58014,note_off,176,0,0,,1,,,61,127
58014,note_off,0,0,0,,8,,,68,127
58014,note_off,0,0,0,,12,,,71,127
58014,note_off,0,0,0,,6,,,66,127
58015,note_on,1,0,0,,8,,,68,127
58015,note_on,0,0,0,,12,,,71,127
58015,note_on,0,0,0,,6,,,66,127
58015,note_on,0,0,0,,2,,,62,127
58191,note_off,176,0,0,,8,,,80,127
58192,note_on,1,0,0,,10,,,81,127
58368,note_off,176,0,0,,10,,,81,127
58369,note_on,1,0,0,,6,,,78,127
58545,note_off,176,0,0,,6,,,78,127
58545,note_off,0,0,0,,2,,,62,127
58545,note_off,0,0,0,,6,,,66,127
58545,note_off,0,0,0,,12,,,71,127
58545,note_off,0,0,0,,8,,,68,127
58546,note_on,1,0,0,,8,,,80,127
58546,note_on,0,0,0,,1,,,61,127
58546,note_on,0,0,0,,8,,,68,127
58634,note_off,88,0,0,,8,,,80,127
58635,note_on,1,0,0,,6,,,78,127
58723,note_off,88,0,0,,6,,,78,127
58724,note_on,1,0,0,,5,,,77,127
58900,note_off,176,0,0,,5,,,77,127
58901,note_on,1,0,0,,8,,,80,127
59077,note_off,176,0,0,,8,,,68,127
59077,note_off,0,0,0,,1,,,61,127
59078,note_on,1,0,0,,2,,,74,127
59078,note_on,0,0,0,,8,,,68,127
59078,note_on,0,0,0,,4,,,64,127
59078,note_on,0,0,0,,12,,,59,127
59078,note_on,0,0,0,,2,,,62,127
59252,note_off,174,0,0,,8,,,80,127
59256,note_on,4,0,0,,10,,,81,127
59432,note_off,176,0,0,,10,,,81,127
59433,note_on,1,0,0,,8,,,80,127
59609,note_off,176,0,0,,8,,,80,127
59609,note_off,0,0,0,,2,,,62,127
59609,note_off,0,0,0,,12,,,59,127
59609,note_off,0,0,0,,4,,,64,127
59609,note_off,0,0,0,,8,,,68,127
59609,note_off,0,0,0,,2,,,74,127
59610,note_on,1,0,0,,10,,,81,127
59610,note_on,0,0,0,,4,,,64,127
59610,note_on,0,0,0,,10,,,69,127
59610,note_on,0,0,0,,10,,,57,127
59787,note_on,177,0,0,,1,,,73,127
59963,note_off,176,0,0,,1,,,73,127
59964,note_on,1,0,0,,4,,,76,127
60140,note_off,176,0,0,,4,,,76,127
60140,note_off,0,0,0,,10,,,57,127
60140,note_off,0,0,0,,10,,,69,127
60140,note_off,0,0,0,,4,,,64,127
60141,note_on,1,0,0,,2,,,74,127
60141,note_on,0,0,0,,8,,,68,127
60141,note_on,0,0,0,,2,,,62,127
60141,note_on,0,0,0,,4,,,64,127
60141,note_on,0,0,0,,12,,,59,127
60317,note_off,176,0,0,,10,,,81,127
60318,note_on,1,0,0,,12,,,83,127
60494,note_off,176,0,0,,12,,,83,127
60495,note_on,1,0,0,,8,,,80,127
60671,note_off,176,0,0,,8,,,80,127
60671,note_off,0,0,0,,12,,,59,127
60671,note_off,0,0,0,,4,,,64,127
60671,note_off,0,0,0,,2,,,62,127
60671,note_off,0,0,0,,8,,,68,127
60671,note_off,0,0,0,,2,,,74,127
60672,note_on,1,0,0,,10,,,81,127
60672,note_on,0,0,0,,4,,,64,127
60672,note_on,0,0,0,,10,,,69,127
60672,note_on,0,0,0,,10,,,57,127
60760,note_off,88,0,0,,10,,,81,127
60761,note_on,1,0,0,,8,,,80,127
60849,note_off,88,0,0,,8,,,80,127
60850,note_on,1,0,0,,6,,,78,127
60938,note_off,88,0,0,,6,,,78,127
60939,note_on,1,0,0,,4,,,76,127
61027,note_off,88,0,0,,4,,,76,127
61028,note_on,1,0,0,,2,,,74,127
61116,note_off,88,0,0,,2,,,74,127
61117,note_on,1,0,0,,1,,,73,127
61205,note_off,88,0,0,,1,,,73,127
61205,note_off,0,0,0,,10,,,57,127
61205,note_off,0,0,0,,10,,,69,127
61205,note_off,0,0,0,,4,,,64,127
61206,note_on,1,0,0,,6,,,78,127
61206,note_on,0,0,0,,2,,,62,127
61206,note_on,0,0,0,,10,,,57,127
61206,note_on,0,0,0,,2,,,50,127
61294,note_off,88,0,0,,6,,,78,127
61295,note_on,1,0,0,,4,,,76,127
61383,note_off,88,0,0,,4,,,76,127
61384,note_on,1,0,0,,2,,,74,127
61472,note_off,88,0,0,,2,,,74,127
61473,note_on,1,0,0,,1,,,73,127
61561,note_off,88,0,0,,1,,,73,127
61562,note_on,1,0,0,,12,,,71,127
61650,note_off,88,0,0,,12,,,71,127
61651,note_on,1,0,0,,10,,,69,127
61739,note_off,88,0,0,,10,,,69,127
61739,note_off,0,0,0,,2,,,50,127
61739,note_off,0,0,0,,10,,,57,127
61739,note_off,0,0,0,,2,,,62,127
61740,note_on,1,0,0,,8,,,68,127
61740,note_on,0,0,0,,12,,,59,127
61740,note_on,0,0,0,,4,,,52,127
61828,note_off,88,0,0,,8,,,68,127
61829,note_on,1,0,0,,6,,,66,127
61917,note_off,88,0,0,,6,,,66,127
61918,note_on,1,0,0,,4,,,64,127
62006,note_off,88,0,0,,4,,,64,127
62007,note_on,1,0,0,,2,,,62,127
62092,note_off,85,0,0,,12,,,59,127
62095,note_off,3,0,0,,2,,,62,127
62096,note_on,1,0,0,,1,,,61,127
62184,note_off,88,0,0,,1,,,61,127
62185,note_on,1,0,0,,12,,,59,127
62273,note_off,88,0,0,,12,,,59,127
62273,note_off,0,0,0,,4,,,52,127
62274,note_on,1,0,0,,10,,,57,127
62274,note_on,0,0,0,,6,,,42,127
62450,note_off,176,0,0,,10,,,57,127
62451,note_on,1,0,0,,10,,,69,127
62628,note_on,177,0,0,,3,,,63,127
62804,note_off,176,0,0,,3,,,63,127
62804,note_off,0,0,0,,6,,,42,127
62805,note_on,1,0,0,,4,,,64,127
62805,note_on,0,0,0,,4,,,40,127
62981,note_off,176,0,0,,10,,,69,127
62982,note_on,1,0,0,,8,,,68,127
63070,note_off,88,0,0,,8,,,68,127
63071,note_on,1,0,0,,6,,,66,127
63156,note_off,85,0,0,,4,,,64,127
63159,note_off,3,0,0,,6,,,66,127
63160,note_on,1,0,0,,4,,,64,127
63603,note_off,443,0,0,,4,,,64,127
63867,note_off,264,0,0,,4,,,40,127
64312,note_on,445,0,0,,12,,,47,127
64489,note_on,177,0,0,,4,,,64,127
64665,note_off,176,0,0,,4,,,64,127
64665,note_off,0,0,0,,12,,,47,127
64666,note_on,1,0,0,,1,,,49,127
64666,note_on,0,0,0,,8,,,68,127
64842,note_off,176,0,0,,8,,,68,127
64842,note_off,0,0,0,,1,,,49,127
64843,note_on,1,0,0,,4,,,52,127
64843,note_on,0,0,0,,2,,,74,127
64931,note_off,88,0,0,,4,,,52,127
64932,note_on,1,0,0,,2,,,50,127
65020,note_off,88,0,0,,2,,,50,127
65020,note_off,0,0,0,,2,,,74,127
65021,note_on,1,0,0,,12,,,47,127
65021,note_on,0,0,0,,2,,,62,127
65197,note_off,176,0,0,,2,,,62,127
65197,note_off,0,0,0,,12,,,47,127
65198,note_on,1,0,0,,1,,,49,127
65198,note_on,0,0,0,,8,,,68,127
65374,note_off,176,0,0,,8,,,68,127
65374,note_off,0,0,0,,1,,,49,127
65375,note_on,1,0,0,,4,,,52,127
65375,note_on,0,0,0,,2,,,74,127
65463,note_off,88,0,0,,4,,,52,127
65464,note_on,1,0,0,,2,,,50,127
65552,note_off,88,0,0,,2,,,50,127
65552,note_off,0,0,0,,2,,,74,127
65553,note_on,1,0,0,,12,,,47,127
65553,note_on,0,0,0,,2,,,62,127
65729,note_off,176,0,0,,2,,,62,127
65729,note_off,0,0,0,,12,,,47,127
65730,note_on,1,0,0,,1,,,49,127
65730,note_on,0,0,0,,8,,,68,127
65906,note_off,176,0,0,,8,,,68,127
65906,note_off,0,0,0,,1,,,49,127
65907,note_on,1,0,0,,4,,,52,127
65907,note_on,0,0,0,,2,,,74,127
65995,note_off,88,0,0,,4,,,52,127
65996,note_on,1,0,0,,2,,,50,127
66084,note_off,88,0,0,,2,,,50,127
66084,note_off,0,0,0,,2,,,74,127
66085,note_on,1,0,0,,12,,,47,127
66085,note_on,0,0,0,,2,,,62,127
66261,note_off,176,0,0,,2,,,62,127
66261,note_off,0,0,0,,12,,,47,127
66262,note_on,1,0,0,,1,,,49,127
66262,note_on,0,0,0,,8,,,68,127
66438,note_off,176,0,0,,8,,,68,127
66438,note_off,0,0,0,,1,,,49,127
66439,note_on,1,0,0,,2,,,50,127
66439,note_on,0,0,0,,2,,,74,127
66615,note_off,176,0,0,,2,,,74,127
66615,note_off,0,0,0,,2,,,50,127
66616,note_on,1,0,0,,12,,,59,127
66616,note_on,0,0,0,,12,,,71,127
66792,note_off,176,0,0,,12,,,71,127
66792,note_off,0,0,0,,12,,,59,127
66793,note_on,1,0,0,,10,,,57,127
66793,note_on,0,0,0,,2,,,74,127
66969,note_off,176,0,0,,2,,,74,127
66969,note_off,0,0,0,,10,,,57,127
66970,note_on,1,0,0,,10,,,57,127
66970,note_on,0,0,0,,12,,,83,127
67058,note_off,88,0,0,,10,,,57,127
67059,note_on,1,0,0,,8,,,56,127
67147,note_off,88,0,0,,8,,,56,127
67147,note_off,0,0,0,,12,,,83,127
67148,note_on,1,0,0,,12,,,59,127
67148,note_on,0,0,0,,12,,,71,127
67324,note_off,176,0,0,,12,,,71,127
67324,note_off,0,0,0,,12,,,59,127
67325,note_on,1,0,0,,10,,,57,127
67325,note_on,0,0,0,,2,,,74,127
67501,note_off,176,0,0,,2,,,74,127
67501,note_off,0,0,0,,10,,,57,127
67502,note_on,1,0,0,,10,,,57,127
67502,note_on,0,0,0,,12,,,83,127
67590,note_off,88,0,0,,10,,,57,127
67591,note_on,1,0,0,,8,,,56,127
67679,note_off,88,0,0,,8,,,56,127
67679,note_off,0,0,0,,12,,,83,127
67680,note_on,1,0,0,,12,,,59,127
67680,note_on,0,0,0,,12,,,71,127
67856,note_off,176,0,0,,12,,,71,127
67856,note_off,0,0,0,,12,,,59,127
67857,note_on,1,0,0,,10,,,57,127
67857,note_on,0,0,0,,2,,,74,127
68033,note_off,176,0,0,,2,,,74,127
68033,note_off,0,0,0,,10,,,57,127
68034,note_on,1,0,0,,10,,,57,127
68034,note_on,0,0,0,,12,,,83,127
68122,note_off,88,0,0,,10,,,57,127
68123,note_on,1,0,0,,8,,,56,127
68211,note_off,88,0,0,,8,,,56,127
68211,note_off,0,0,0,,12,,,83,127
68212,note_on,1,0,0,,12,,,59,127
68212,note_on,0,0,0,,12,,,71,127
68388,note_off,176,0,0,,12,,,71,127
68388,note_off,0,0,0,,12,,,59,127
68389,note_on,1,0,0,,10,,,57,127
68389,note_on,0,0,0,,2,,,74,127
68565,note_off,176,0,0,,2,,,74,127
68565,note_off,0,0,0,,10,,,57,127
68566,note_on,1,0,0,,10,,,57,127
68566,note_on,0,0,0,,12,,,83,127
68654,note_off,88,0,0,,10,,,57,127
68655,note_on,1,0,0,,8,,,56,127
68743,note_off,88,0,0,,8,,,56,127
68743,note_off,0,0,0,,12,,,83,127
68744,note_on,1,0,0,,12,,,59,127
68744,note_on,0,0,0,,12,,,71,127
68920,note_off,176,0,0,,12,,,71,127
68920,note_off,0,0,0,,12,,,59,127
68921,note_on,1,0,0,,10,,,57,127
68921,note_on,0,0,0,,2,,,74,127
69097,note_off,176,0,0,,2,,,74,127
69097,note_off,0,0,0,,10,,,57,127
69098,note_on,1,0,0,,8,,,56,127
69098,note_on,0,0,0,,12,,,83,127
69274,note_off,176,0,0,,12,,,83,127
69274,note_off,0,0,0,,8,,,56,127
69275,note_on,1,0,0,,6,,,54,127
69275,note_on,0,0,0,,1,,,85,127
69451,note_off,176,0,0,,1,,,85,127
69451,note_off,0,0,0,,6,,,54,127
69452,note_on,1,0,0,,4,,,52,127
69452,note_on,0,0,0,,2,,,86,127
69628,note_off,176,0,0,,2,,,86,127
69628,note_off,0,0,0,,4,,,52,127
69629,note_on,1,0,0,,10,,,45,127
69629,note_on,0,0,0,,10,,,57,127
69629,note_on,0,0,0,,1,,,85,127
69717,note_off,88,0,0,,1,,,85,127
69718,note_on,1,0,0,,12,,,83,127
69806,note_off,88,0,0,,12,,,83,127
69806,note_off,0,0,0,,10,,,45,127
69807,note_on,1,0,0,,12,,,47,127
69807,note_on,0,0,0,,10,,,81,127
69895,note_off,88,0,0,,10,,,81,127
69896,note_on,1,0,0,,8,,,80,127
69984,note_off,88,0,0,,8,,,80,127
69984,note_off,0,0,0,,12,,,47,127
69985,note_on,1,0,0,,1,,,49,127
69985,note_on,0,0,0,,6,,,78,127
70073,note_off,88,0,0,,6,,,78,127
70074,note_on,1,0,0,,4,,,76,127
70162,note_off,88,0,0,,4,,,76,127
70162,note_off,0,0,0,,1,,,49,127
70162,note_off,0,0,0,,10,,,57,127
70163,note_on,1,0,0,,2,,,50,127
70163,note_on,0,0,0,,2,,,74,127
70163,note_on,0,0,0,,12,,,71,127
70339,note_off,176,0,0,,12,,,71,127
70339,note_off,0,0,0,,2,,,74,127
70339,note_off,0,0,0,,2,,,50,127
70340,note_on,1,0,0,,4,,,52,127
70340,note_on,0,0,0,,1,,,73,127
70340,note_on,0,0,0,,10,,,69,127
70516,note_off,176,0,0,,10,,,69,127
70516,note_off,0,0,0,,1,,,73,127
70516,note_off,0,0,0,,4,,,52,127
70519,note_on,3,0,0,,12,,,71,127
70519,note_on,0,0,0,,8,,,68,127
70519,note_on,0,0,0,,4,,,40,127
70695,note_off,176,0,0,,4,,,40,127
70695,note_off,0,0,0,,8,,,68,127
70695,note_off,0,0,0,,12,,,71,127
70698,note_on,3,0,0,,10,,,57,127
70702,note_on,4,0,0,,10,,,69,127
70886,note_off,184,0,0,,10,,,69,127
70887,note_on,1,0,0,,10,,,69,127
70887,note_on,0,0,0,,1,,,61,127
70902,note_off,15,0,0,,10,,,57,127
71064,note_off,162,0,0,,1,,,61,127
71064,note_off,0,0,0,,10,,,69,127
71065,note_on,1,0,0,,1,,,73,127
71065,note_on,0,0,0,,10,,,57,127
71241,note_off,176,0,0,,10,,,57,127
71241,note_off,0,0,0,,1,,,73,127
71242,note_on,1,0,0,,10,,,81,127
71242,note_on,0,0,0,,8,,,56,127
71418,note_off,176,0,0,,10,,,81,127
71419,note_on,1,0,0,,10,,,69,127
71419,note_on,0,0,0,,1,,,61,127
71445,note_off,26,0,0,,8,,,56,127
71595,note_off,150,0,0,,1,,,61,127
71595,note_off,0,0,0,,10,,,69,127
71596,note_on,1,0,0,,1,,,73,127
71596,note_on,0,0,0,,8,,,56,127
71772,note_off,176,0,0,,8,,,56,127
71772,note_off,0,0,0,,1,,,73,127
71773,note_on,1,0,0,,10,,,81,127
71773,note_on,0,0,0,,6,,,54,127
71949,note_off,176,0,0,,10,,,81,127
71950,note_on,1,0,0,,10,,,69,127
71950,note_on,0,0,0,,1,,,61,127
71976,note_off,26,0,0,,6,,,54,127
72126,note_off,150,0,0,,1,,,61,127
72126,note_off,0,0,0,,10,,,69,127
72127,note_on,1,0,0,,1,,,73,127
72127,note_on,0,0,0,,6,,,54,127
72303,note_off,176,0,0,,6,,,54,127
72303,note_off,0,0,0,,1,,,73,127
72304,note_on,1,0,0,,1,,,85,127
72304,note_on,0,0,0,,4,,,52,127
72480,note_off,176,0,0,,1,,,85,127
72481,note_on,1,0,0,,1,,,73,127
72481,note_on,0,0,0,,1,,,61,127
72507,note_off,26,0,0,,4,,,52,127
72657,note_off,150,0,0,,1,,,61,127
72657,note_off,0,0,0,,1,,,73,127
72658,note_on,1,0,0,,4,,,76,127
72658,note_on,0,0,0,,4,,,52,127
72834,note_off,176,0,0,,4,,,52,127
72834,note_off,0,0,0,,4,,,76,127
72835,note_on,1,0,0,,1,,,85,127
72835,note_on,0,0,0,,2,,,50,127
73011,note_off,176,0,0,,1,,,85,127
73012,note_on,1,0,0,,1,,,73,127
73012,note_on,0,0,0,,1,,,61,127
73038,note_off,26,0,0,,2,,,50,127
73188,note_off,150,0,0,,1,,,61,127
73188,note_off,0,0,0,,1,,,73,127
73189,note_on,1,0,0,,4,,,76,127
73189,note_on,0,0,0,,10,,,57,127
73365,note_off,176,0,0,,10,,,57,127
73365,note_off,0,0,0,,4,,,76,127
73366,note_on,1,0,0,,1,,,85,127
73366,note_on,0,0,0,,1,,,49,127
73542,note_off,176,0,0,,1,,,85,127
73543,note_on,1,0,0,,1,,,73,127
73543,note_on,0,0,0,,1,,,61,127
73569,note_off,26,0,0,,1,,,49,127
73719,note_off,150,0,0,,1,,,61,127
73719,note_off,0,0,0,,1,,,73,127
73724,note_on,5,0,0,,4,,,76,127
73724,note_on,0,0,0,,10,,,57,127
73908,note_off,184,0,0,,10,,,57,127
73908,note_off,0,0,0,,4,,,76,127
73913,note_on,5,0,0,,2,,,38,127
73913,note_on,0,0,0,,1,,,85,127
74001,note_off,88,0,0,,1,,,85,127
74002,note_on,1,0,0,,4,,,88,127
74090,note_off,88,0,0,,4,,,88,127
74091,note_on,1,0,0,,2,,,86,127
74179,note_off,88,0,0,,2,,,86,127
74180,note_on,1,0,0,,1,,,85,127
74268,note_off,88,0,0,,1,,,85,127
74269,note_on,1,0,0,,12,,,83,127
74357,note_off,88,0,0,,12,,,83,127
74358,note_on,1,0,0,,10,,,81,127
74446,note_off,88,0,0,,10,,,81,127
74446,note_off,0,0,0,,2,,,38,127
74447,note_on,1,0,0,,4,,,40,127
74447,note_on,0,0,0,,8,,,80,127
74535,note_off,88,0,0,,8,,,80,127
74536,note_on,1,0,0,,6,,,78,127
74624,note_off,88,0,0,,6,,,78,127
74625,note_on,1,0,0,,4,,,76,127
74713,note_off,88,0,0,,4,,,76,127
74714,note_on,1,0,0,,2,,,74,127
74802,note_off,88,0,0,,2,,,74,127
74803,note_on,1,0,0,,1,,,73,127
74891,note_off,88,0,0,,1,,,73,127
74892,note_on,1,0,0,,12,,,71,127
74980,note_off,88,0,0,,12,,,71,127
74980,note_off,0,0,0,,4,,,40,127
74981,note_on,1,0,0,,10,,,57,127
74981,note_on,0,0,0,,10,,,69,127
75157,note_off,176,0,0,,10,,,69,127
75157,note_off,0,0,0,,10,,,57,127
75158,note_on,1,0,0,,1,,,61,127
75158,note_on,0,0,0,,10,,,69,127
75334,note_off,176,0,0,,10,,,69,127
75334,note_off,0,0,0,,1,,,61,127
75335,note_on,1,0,0,,10,,,57,127
75335,note_on,0,0,0,,1,,,73,127
75511,note_off,176,0,0,,1,,,73,127
75511,note_off,0,0,0,,10,,,57,127
75512,note_on,1,0,0,,8,,,56,127
75512,note_on,0,0,0,,10,,,81,127
75688,note_off,176,0,0,,8,,,56,127
75689,note_on,1,0,0,,1,,,61,127
75689,note_on,0,0,0,,10,,,69,127
75865,note_off,176,0,0,,10,,,69,127
75865,note_off,0,0,0,,1,,,61,127
75866,note_on,1,0,0,,8,,,56,127
75866,note_on,0,0,0,,1,,,73,127
76042,note_off,176,0,0,,1,,,73,127
76042,note_off,0,0,0,,8,,,56,127
76042,note_off,0,0,0,,10,,,81,127
76043,note_on,1,0,0,,6,,,54,127
76043,note_on,0,0,0,,10,,,81,127
76219,note_off,176,0,0,,6,,,54,127
76220,note_on,1,0,0,,1,,,61,127
76220,note_on,0,0,0,,10,,,69,127
76396,note_off,176,0,0,,10,,,69,127
76396,note_off,0,0,0,,1,,,61,127
76397,note_on,1,0,0,,6,,,54,127
76397,note_on,0,0,0,,1,,,73,127
76541,note_off,144,0,0,,10,,,81,127
76573,note_off,32,0,0,,1,,,73,127
76573,note_off,0,0,0,,6,,,54,127
76574,note_on,1,0,0,,4,,,52,127
76574,note_on,0,0,0,,1,,,85,127
76750,note_off,176,0,0,,4,,,52,127
76751,note_on,1,0,0,,1,,,61,127
76751,note_on,0,0,0,,1,,,73,127
76927,note_off,176,0,0,,1,,,73,127
76927,note_off,0,0,0,,1,,,61,127
76928,note_on,1,0,0,,4,,,52,127
76928,note_on,0,0,0,,4,,,76,127
77104,note_off,176,0,0,,4,,,76,127
77104,note_off,0,0,0,,4,,,52,127
77104,note_off,0,0,0,,1,,,85,127
77105,note_on,1,0,0,,2,,,50,127
77105,note_on,0,0,0,,1,,,85,127
77281,note_off,176,0,0,,2,,,50,127
77282,note_on,1,0,0,,1,,,61,127
77282,note_on,0,0,0,,1,,,73,127
77458,note_off,176,0,0,,1,,,73,127
77458,note_off,0,0,0,,1,,,61,127
77459,note_on,1,0,0,,10,,,57,127
77459,note_on,0,0,0,,4,,,76,127
77635,note_off,176,0,0,,4,,,76,127
77635,note_off,0,0,0,,10,,,57,127
77635,note_off,0,0,0,,1,,,85,127
77636,note_on,1,0,0,,1,,,49,127
77636,note_on,0,0,0,,1,,,85,127
77812,note_off,176,0,0,,1,,,49,127
77813,note_on,1,0,0,,1,,,61,127
77813,note_on,0,0,0,,1,,,73,127
77987,note_off,174,0,0,,1,,,85,127
77990,note_off,3,0,0,,1,,,73,127
77990,note_off,0,0,0,,1,,,61,127
77991,note_on,1,0,0,,10,,,57,127
77991,note_on,0,0,0,,4,,,76,127
78167,note_off,176,0,0,,4,,,76,127
78167,note_off,0,0,0,,10,,,57,127
78168,note_on,1,0,0,,2,,,38,127
78168,note_on,0,0,0,,1,,,85,127
78256,note_off,88,0,0,,1,,,85,127
78257,note_on,1,0,0,,4,,,88,127
78345,note_off,88,0,0,,4,,,88,127
78346,note_on,1,0,0,,2,,,86,127
78434,note_off,88,0,0,,2,,,86,127
78435,note_on,1,0,0,,1,,,85,127
78523,note_off,88,0,0,,1,,,85,127
78524,note_on,1,0,0,,12,,,83,127
78612,note_off,88,0,0,,12,,,83,127
78613,note_on,1,0,0,,10,,,81,127
78701,note_off,88,0,0,,10,,,81,127
78701,note_off,0,0,0,,2,,,38,127
78702,note_on,1,0,0,,4,,,40,127
78702,note_on,0,0,0,,8,,,80,127
78790,note_off,88,0,0,,8,,,80,127
78791,note_on,1,0,0,,6,,,78,127
78879,note_off,88,0,0,,6,,,78,127
78880,note_on,1,0,0,,4,,,76,127
78968,note_off,88,0,0,,4,,,76,127
78969,note_on,1,0,0,,2,,,74,127
79057,note_off,88,0,0,,2,,,74,127
79058,note_on,1,0,0,,1,,,73,127
79146,note_off,88,0,0,,1,,,73,127
79152,note_on,6,0,0,,12,,,71,127
79220,note_off,68,0,0,,4,,,40,127
79243,note_off,23,0,0,,12,,,71,127
79249,note_on,6,0,0,,1,,,73,127
79249,note_on,0,0,0,,10,,,45,127
79337,note_off,88,0,0,,1,,,73,127
79338,note_on,1,0,0,,4,,,76,127
79426,note_off,88,0,0,,4,,,76,127
79427,note_on,1,0,0,,2,,,74,127
79515,note_off,88,0,0,,2,,,74,127
79516,note_on,1,0,0,,1,,,73,127
79604,note_off,88,0,0,,1,,,73,127
79604,note_off,0,0,0,,10,,,45,127
79605,note_on,1,0,0,,12,,,71,127
79605,note_on,0,0,0,,2,,,50,127
79693,note_off,88,0,0,,12,,,71,127
79694,note_on,1,0,0,,10,,,69,127
79782,note_off,88,0,0,,10,,,69,127
79782,note_off,0,0,0,,2,,,50,127
79783,note_on,1,0,0,,8,,,68,127
79783,note_on,0,0,0,,4,,,52,127
79871,note_off,88,0,0,,8,,,68,127
79872,note_on,1,0,0,,6,,,66,127
79960,note_off,88,0,0,,6,,,66,127
79961,note_on,1,0,0,,4,,,64,127
80049,note_off,88,0,0,,4,,,64,127
80050,note_on,1,0,0,,2,,,62,127
80138,note_off,88,0,0,,2,,,62,127
80138,note_off,0,0,0,,4,,,52,127
80139,note_on,1,0,0,,1,,,61,127
80139,note_on,0,0,0,,4,,,40,127
80227,note_off,88,0,0,,1,,,61,127
80228,note_on,1,0,0,,12,,,59,127
80316,note_off,88,0,0,,12,,,59,127
80316,note_off,0,0,0,,4,,,40,127
80317,note_on,1,0,0,,1,,,61,127
80317,note_on,0,0,0,,10,,,45,127
80405,note_off,88,0,0,,1,,,61,127
80406,note_on,1,0,0,,4,,,64,127
80494,note_off,88,0,0,,4,,,64,127
80495,note_on,1,0,0,,2,,,62,127
80583,note_off,88,0,0,,2,,,62,127
80584,note_on,1,0,0,,1,,,61,127
80672,note_off,88,0,0,,1,,,61,127
80672,note_off,0,0,0,,10,,,45,127
80673,note_on,1,0,0,,12,,,59,127
80673,note_on,0,0,0,,2,,,50,127
80761,note_off,88,0,0,,12,,,59,127
80762,note_on,1,0,0,,10,,,57,127
80850,note_off,88,0,0,,10,,,57,127
80850,note_off,0,0,0,,2,,,50,127
80851,note_on,1,0,0,,8,,,56,127
80851,note_on,0,0,0,,4,,,52,127
80939,note_off,88,0,0,,8,,,56,127
80940,note_on,1,0,0,,6,,,54,127
81021,note_off,81,0,0,,4,,,52,127
81027,note_off,6,0,0,,6,,,54,127
81028,note_on,1,0,0,,4,,,52,127
81116,note_off,88,0,0,,4,,,52,127
81117,note_on,1,0,0,,2,,,50,127
81205,note_off,88,0,0,,2,,,50,127
81206,note_on,1,0,0,,1,,,49,127
81206,note_on,0,0,0,,4,,,40,127
81294,note_off,88,0,0,,1,,,49,127
81295,note_on,1,0,0,,12,,,47,127
81383,note_off,88,0,0,,12,,,47,127
81383,note_off,0,0,0,,4,,,40,127
81404,note_on,21,0,0,,10,,,33,127
81404,note_on,0,0,0,,10,,,45,127
83215,note_off,1811,0,0,,10,,,45,127
83215,note_off,0,0,0,,10,,,33,127
87552,end_of_track,4337,1,0,,,,,,
