tick,type,time,meta,track,program,channel,pitch,tempo,note,velocity
0,copyright,0,1,0,,,,,,
0,program_change,0,0,0,6,0,,,,
0,pitchwheel,0,0,0,,0,0,,,
0,program_change,0,0,0,6,1,,,,
0,pitchwheel,0,0,0,,1,-590,,,
0,program_change,0,0,0,6,2,,,,
0,pitchwheel,0,0,0,,2,-272,,,
0,program_change,0,0,0,6,3,,,,
0,pitchwheel,0,0,0,,3,-353,,,
0,program_change,0,0,0,6,4,,,,
0,pitchwheel,0,0,0,,4,-560,,,
0,program_change,0,0,0,6,5,,,,
0,pitchwheel,0,0,0,,5,-80,,,
0,program_change,0,0,0,6,6,,,,
0,pitchwheel,0,0,0,,6,-625,,,
0,program_change,0,0,0,6,7,,,,
0,pitchwheel,0,0,0,,7,-130,,,
0,program_change,0,0,0,6,8,,,,
0,pitchwheel,0,0,0,,8,-512,,,
0,program_change,0,0,0,6,10,,,,
0,pitchwheel,0,0,0,,10,-464,,,
0,program_change,0,0,0,6,11,,,,
0,pitchwheel,0,0,0,,11,-208,,,
0,program_change,0,0,0,6,12,,,,
0,pitchwheel,0,0,0,,12,-553,,,
0,set_tempo,0,1,0,,,,480000,,
96,note_on,96,0,0,,10,,,81,127
1200,note_on,1104,0,0,,6,,,78,127
1247,note_off,47,0,0,,10,,,81,127
2304,note_on,1057,0,0,,2,,,74,127
2351,note_off,47,0,0,,6,,,78,127
2495,note_off,144,0,0,,2,,,74,127
2496,note_on,1,0,0,,10,,,69,127
2687,note_off,191,0,0,,10,,,69,127
2688,note_on,1,0,0,,6,,,66,127
2879,note_off,191,0,0,,6,,,66,127
2880,note_on,1,0,0,,2,,,62,127
3071,note_off,191,0,0,,2,,,62,127
3072,note_on,1,0,0,,2,,,50,127
3072,note_on,0,0,0,,2,,,62,127
3455,note_off,383,0,0,,2,,,50,127
3456,note_on,1,0,0,,7,,,67,127
3456,note_on,0,0,0,,4,,,76,127
3647,note_off,191,0,0,,2,,,62,127
3648,note_on,1,0,0,,4,,,64,127
3743,note_off,95,0,0,,4,,,64,127
3744,note_on,1,0,0,,6,,,66,127
3839,note_off,95,0,0,,6,,,66,127
3840,note_on,1,0,0,,4,,,64,127
4031,note_off,191,0,0,,4,,,64,127
4032,note_on,1,0,0,,2,,,62,127
4223,note_off,191,0,0,,2,,,62,127
4224,note_on,1,0,0,,1,,,61,127
4415,note_off,191,0,0,,1,,,61,127
4416,note_on,1,0,0,,12,,,59,127
4607,note_off,191,0,0,,12,,,59,127
4607,note_off,0,0,0,,4,,,76,127
4607,note_off,0,0,0,,7,,,67,127
4608,note_on,1,0,0,,10,,,69,127
4608,note_on,0,0,0,,10,,,57,127
4799,note_off,191,0,0,,10,,,57,127
4799,note_off,0,0,0,,10,,,69,127
4800,note_on,1,0,0,,12,,,71,127
4800,note_on,0,0,0,,7,,,55,127
4895,note_off,95,0,0,,12,,,71,127
4896,note_on,1,0,0,,1,,,73,127
4991,note_off,95,0,0,,1,,,73,127
4991,note_off,0,0,0,,7,,,55,127
4992,note_on,1,0,0,,2,,,74,127
4992,note_on,0,0,0,,6,,,54,127
5183,note_off,191,0,0,,6,,,54,127
5183,note_off,0,0,0,,2,,,74,127
5184,note_on,1,0,0,,4,,,76,127
5184,note_on,0,0,0,,4,,,52,127
5375,note_off,191,0,0,,4,,,52,127
5375,note_off,0,0,0,,4,,,76,127
5376,note_on,1,0,0,,6,,,78,127
5376,note_on,0,0,0,,2,,,50,127
5567,note_off,191,0,0,,2,,,50,127
5567,note_off,0,0,0,,6,,,78,127
5568,note_on,1,0,0,,7,,,79,127
5568,note_on,0,0,0,,1,,,49,127
5759,note_off,191,0,0,,1,,,49,127
5759,note_off,0,0,0,,7,,,79,127
5760,note_on,1,0,0,,6,,,78,127
5760,note_on,0,0,0,,2,,,50,127
5855,note_off,95,0,0,,6,,,78,127
5856,note_on,1,0,0,,10,,,81,127
5951,note_off,95,0,0,,10,,,81,127
5952,note_on,1,0,0,,6,,,78,127
6047,note_off,95,0,0,,6,,,78,127
6048,note_on,1,0,0,,2,,,74,127
6143,note_off,95,0,0,,2,,,74,127
6144,note_on,1,0,0,,10,,,69,127
6239,note_off,95,0,0,,10,,,69,127
6240,note_on,1,0,0,,6,,,66,127
6335,note_off,95,0,0,,6,,,66,127
6336,note_on,1,0,0,,2,,,62,127
6431,note_off,95,0,0,,2,,,62,127
6432,note_on,1,0,0,,10,,,57,127
6527,note_off,95,0,0,,10,,,57,127
6527,note_off,0,0,0,,2,,,50,127
6528,note_on,1,0,0,,2,,,50,127
6528,note_on,0,0,0,,2,,,62,127
6911,note_off,383,0,0,,2,,,50,127
6912,note_on,1,0,0,,7,,,67,127
6912,note_on,0,0,0,,4,,,76,127
7103,note_off,191,0,0,,2,,,62,127
7104,note_on,1,0,0,,4,,,64,127
7199,note_off,95,0,0,,4,,,64,127
7200,note_on,1,0,0,,6,,,66,127
7295,note_off,95,0,0,,6,,,66,127
7296,note_on,1,0,0,,4,,,64,127
7487,note_off,191,0,0,,4,,,64,127
7488,note_on,1,0,0,,2,,,62,127
7679,note_off,191,0,0,,2,,,62,127
7680,note_on,1,0,0,,1,,,61,127
7871,note_off,191,0,0,,1,,,61,127
7872,note_on,1,0,0,,12,,,59,127
8063,note_off,191,0,0,,12,,,59,127
8063,note_off,0,0,0,,4,,,76,127
8063,note_off,0,0,0,,7,,,67,127
8064,note_on,1,0,0,,10,,,69,127
8064,note_on,0,0,0,,10,,,57,127
8255,note_off,191,0,0,,10,,,57,127
8255,note_off,0,0,0,,10,,,69,127
8256,note_on,1,0,0,,12,,,71,127
8256,note_on,0,0,0,,7,,,55,127
8351,note_off,95,0,0,,12,,,71,127
8352,note_on,1,0,0,,1,,,73,127
8447,note_off,95,0,0,,1,,,73,127
8447,note_off,0,0,0,,7,,,55,127
8448,note_on,1,0,0,,2,,,74,127
8448,note_on,0,0,0,,6,,,54,127
8639,note_off,191,0,0,,6,,,54,127
8639,note_off,0,0,0,,2,,,74,127
8640,note_on,1,0,0,,4,,,76,127
8640,note_on,0,0,0,,4,,,52,127
8831,note_off,191,0,0,,4,,,52,127
8831,note_off,0,0,0,,4,,,76,127
8832,note_on,1,0,0,,6,,,78,127
8832,note_on,0,0,0,,2,,,50,127
9023,note_off,191,0,0,,2,,,50,127
9023,note_off,0,0,0,,6,,,78,127
9024,note_on,1,0,0,,7,,,79,127
9024,note_on,0,0,0,,1,,,49,127
9215,note_off,191,0,0,,1,,,49,127
9215,note_off,0,0,0,,7,,,79,127
9216,note_on,1,0,0,,6,,,78,127
9216,note_on,0,0,0,,2,,,50,127
9311,note_off,95,0,0,,6,,,78,127
9312,note_on,1,0,0,,10,,,81,127
9407,note_off,95,0,0,,10,,,81,127
9408,note_on,1,0,0,,6,,,78,127
9503,note_off,95,0,0,,6,,,78,127
9504,note_on,1,0,0,,2,,,74,127
9599,note_off,95,0,0,,2,,,74,127
9600,note_on,1,0,0,,10,,,69,127
9695,note_off,95,0,0,,10,,,69,127
9696,note_on,1,0,0,,6,,,66,127
9791,note_off,95,0,0,,6,,,66,127
9792,note_on,1,0,0,,2,,,62,127
9887,note_off,95,0,0,,2,,,62,127
9888,note_on,1,0,0,,10,,,57,127
9983,note_off,95,0,0,,10,,,57,127
9983,note_off,0,0,0,,2,,,50,127
9984,note_on,1,0,0,,6,,,54,127
10079,note_off,95,0,0,,6,,,54,127
10080,note_on,1,0,0,,2,,,50,127
10175,note_off,95,0,0,,2,,,50,127
10176,note_on,1,0,0,,10,,,45,127
10271,note_off,95,0,0,,10,,,45,127
10272,note_on,1,0,0,,6,,,42,127
10367,note_off,95,0,0,,6,,,42,127
10368,note_on,1,0,0,,2,,,38,127
10751,note_off,383,0,0,,2,,,38,127
10752,note_on,1,0,0,,10,,,69,127
10752,note_on,0,0,0,,6,,,66,127
10847,note_off,95,0,0,,6,,,66,127
10847,note_off,0,0,0,,10,,,69,127
10848,note_on,1,0,0,,7,,,67,127
10848,note_on,0,0,0,,4,,,64,127
10943,note_off,95,0,0,,4,,,64,127
10943,note_off,0,0,0,,7,,,67,127
10944,note_on,1,0,0,,10,,,69,127
10944,note_on,0,0,0,,6,,,66,127
11039,note_off,95,0,0,,6,,,66,127
11039,note_off,0,0,0,,10,,,69,127
11040,note_on,1,0,0,,2,,,74,127
11040,note_on,0,0,0,,2,,,62,127
11135,note_off,95,0,0,,2,,,62,127
11135,note_off,0,0,0,,2,,,74,127
11136,note_on,1,0,0,,12,,,71,127
11136,note_on,0,0,0,,7,,,67,127
11231,note_off,95,0,0,,7,,,67,127
11231,note_off,0,0,0,,12,,,71,127
11232,note_on,1,0,0,,10,,,69,127
11232,note_on,0,0,0,,6,,,66,127
11327,note_off,95,0,0,,6,,,66,127
11327,note_off,0,0,0,,10,,,69,127
11328,note_on,1,0,0,,12,,,71,127
11328,note_on,0,0,0,,7,,,67,127
11423,note_off,95,0,0,,7,,,67,127
11423,note_off,0,0,0,,12,,,71,127
11424,note_on,1,0,0,,2,,,74,127
11424,note_on,0,0,0,,4,,,64,127
11519,note_off,95,0,0,,4,,,64,127
11519,note_off,0,0,0,,2,,,74,127
11520,note_on,1,0,0,,10,,,33,127
11903,note_off,383,0,0,,10,,,33,127
11904,note_on,1,0,0,,1,,,73,127
11904,note_on,0,0,0,,4,,,76,127
11904,note_on,0,0,0,,10,,,33,127
12095,note_off,191,0,0,,4,,,76,127
12095,note_off,0,0,0,,1,,,73,127
12096,note_on,1,0,0,,6,,,78,127
12096,note_on,0,0,0,,2,,,74,127
12191,note_off,95,0,0,,2,,,74,127
12191,note_off,0,0,0,,6,,,78,127
12192,note_on,1,0,0,,7,,,79,127
12192,note_on,0,0,0,,4,,,76,127
12287,note_off,95,0,0,,4,,,76,127
12287,note_off,0,0,0,,7,,,79,127
12287,note_off,0,0,0,,10,,,33,127
12288,note_on,1,0,0,,2,,,74,127
12288,note_on,0,0,0,,6,,,78,127
12288,note_on,0,0,0,,10,,,33,127
12479,note_off,191,0,0,,6,,,78,127
12479,note_off,0,0,0,,2,,,74,127
12480,note_on,1,0,0,,1,,,73,127
12480,note_on,0,0,0,,4,,,76,127
12671,note_off,191,0,0,,4,,,76,127
12671,note_off,0,0,0,,1,,,73,127
12671,note_off,0,0,0,,10,,,33,127
12672,note_on,1,0,0,,1,,,73,127
12672,note_on,0,0,0,,4,,,76,127
12672,note_on,0,0,0,,2,,,38,127
12863,note_off,191,0,0,,4,,,76,127
12863,note_off,0,0,0,,1,,,73,127
12864,note_on,1,0,0,,2,,,74,127
12864,note_on,0,0,0,,6,,,78,127
13055,note_off,191,0,0,,6,,,78,127
13055,note_off,0,0,0,,2,,,74,127
13055,note_off,0,0,0,,2,,,38,127
13056,note_on,1,0,0,,10,,,69,127
13056,note_on,0,0,0,,6,,,66,127
13151,note_off,95,0,0,,6,,,66,127
13151,note_off,0,0,0,,10,,,69,127
13152,note_on,1,0,0,,7,,,67,127
13152,note_on,0,0,0,,4,,,64,127
13247,note_off,95,0,0,,4,,,64,127
13247,note_off,0,0,0,,7,,,67,127
13248,note_on,1,0,0,,10,,,69,127
13248,note_on,0,0,0,,6,,,66,127
13343,note_off,95,0,0,,6,,,66,127
13343,note_off,0,0,0,,10,,,69,127
13344,note_on,1,0,0,,2,,,74,127
13344,note_on,0,0,0,,2,,,62,127
13439,note_off,95,0,0,,2,,,62,127
13439,note_off,0,0,0,,2,,,74,127
13440,note_on,1,0,0,,12,,,71,127
13440,note_on,0,0,0,,7,,,67,127
13535,note_off,95,0,0,,7,,,67,127
13535,note_off,0,0,0,,12,,,71,127
13536,note_on,1,0,0,,10,,,69,127
13536,note_on,0,0,0,,6,,,66,127
13631,note_off,95,0,0,,6,,,66,127
13631,note_off,0,0,0,,10,,,69,127
13632,note_on,1,0,0,,12,,,71,127
13632,note_on,0,0,0,,7,,,67,127
13727,note_off,95,0,0,,7,,,67,127
13727,note_off,0,0,0,,12,,,71,127
13728,note_on,1,0,0,,2,,,74,127
13728,note_on,0,0,0,,4,,,64,127
13823,note_off,95,0,0,,4,,,64,127
13823,note_off,0,0,0,,2,,,74,127
13824,note_on,1,0,0,,10,,,33,127
14207,note_off,383,0,0,,10,,,33,127
14208,note_on,1,0,0,,1,,,73,127
14208,note_on,0,0,0,,4,,,76,127
14208,note_on,0,0,0,,10,,,33,127
14399,note_off,191,0,0,,4,,,76,127
14399,note_off,0,0,0,,1,,,73,127
14400,note_on,1,0,0,,6,,,78,127
14400,note_on,0,0,0,,2,,,74,127
14495,note_off,95,0,0,,2,,,74,127
14495,note_off,0,0,0,,6,,,78,127
14496,note_on,1,0,0,,4,,,76,127
14496,note_on,0,0,0,,7,,,79,127
14591,note_off,95,0,0,,7,,,79,127
14591,note_off,0,0,0,,4,,,76,127
14591,note_off,0,0,0,,10,,,33,127
14592,note_on,1,0,0,,2,,,74,127
14592,note_on,0,0,0,,6,,,78,127
14592,note_on,0,0,0,,10,,,33,127
14783,note_off,191,0,0,,6,,,78,127
14783,note_off,0,0,0,,2,,,74,127
14784,note_on,1,0,0,,1,,,73,127
14784,note_on,0,0,0,,4,,,76,127
14975,note_off,191,0,0,,4,,,76,127
14975,note_off,0,0,0,,1,,,73,127
14975,note_off,0,0,0,,10,,,33,127
14976,note_on,1,0,0,,2,,,74,127
14976,note_on,0,0,0,,2,,,38,127
15167,note_off,191,0,0,,2,,,38,127
15167,note_off,0,0,0,,2,,,74,127
15168,note_on,1,0,0,,2,,,74,127
15168,note_on,0,0,0,,1,,,73,127
15359,note_off,191,0,0,,1,,,73,127
15359,note_off,0,0,0,,2,,,74,127
15360,note_on,1,0,0,,2,,,74,127
15360,note_on,0,0,0,,12,,,71,127
15551,note_off,191,0,0,,12,,,71,127
15551,note_off,0,0,0,,2,,,74,127
15552,note_on,1,0,0,,2,,,74,127
15552,note_on,0,0,0,,10,,,69,127
15743,note_off,191,0,0,,10,,,69,127
15743,note_off,0,0,0,,2,,,74,127
15744,note_on,1,0,0,,2,,,74,127
15744,note_on,0,0,0,,8,,,68,127
15935,note_off,191,0,0,,8,,,68,127
15935,note_off,0,0,0,,2,,,74,127
15936,note_on,1,0,0,,2,,,74,127
15936,note_on,0,0,0,,6,,,66,127
16127,note_off,191,0,0,,6,,,66,127
16127,note_off,0,0,0,,2,,,74,127
16128,note_on,1,0,0,,2,,,74,127
16128,note_on,0,0,0,,4,,,64,127
16319,note_off,191,0,0,,4,,,64,127
16319,note_off,0,0,0,,2,,,74,127
16320,note_on,1,0,0,,3,,,75,127
16320,note_on,0,0,0,,2,,,62,127
16511,note_off,191,0,0,,2,,,62,127
16511,note_off,0,0,0,,3,,,75,127
16512,note_on,1,0,0,,4,,,76,127
16512,note_on,0,0,0,,1,,,61,127
16703,note_off,191,0,0,,1,,,61,127
16703,note_off,0,0,0,,4,,,76,127
16704,note_on,1,0,0,,4,,,76,127
16704,note_on,0,0,0,,12,,,59,127
16895,note_off,191,0,0,,12,,,59,127
16895,note_off,0,0,0,,4,,,76,127
16896,note_on,1,0,0,,4,,,76,127
16896,note_on,0,0,0,,10,,,57,127
17087,note_off,191,0,0,,10,,,57,127
17087,note_off,0,0,0,,4,,,76,127
17088,note_on,1,0,0,,4,,,76,127
17088,note_on,0,0,0,,8,,,56,127
17279,note_off,191,0,0,,8,,,56,127
17279,note_off,0,0,0,,4,,,76,127
17280,note_on,1,0,0,,4,,,76,127
17280,note_on,0,0,0,,6,,,54,127
17471,note_off,191,0,0,,6,,,54,127
17471,note_off,0,0,0,,4,,,76,127
17472,note_on,1,0,0,,5,,,77,127
17472,note_on,0,0,0,,4,,,52,127
17663,note_off,191,0,0,,4,,,52,127
17663,note_off,0,0,0,,5,,,77,127
17664,note_on,1,0,0,,6,,,78,127
17664,note_on,0,0,0,,2,,,50,127
17855,note_off,191,0,0,,2,,,50,127
17855,note_off,0,0,0,,6,,,78,127
17856,note_on,1,0,0,,6,,,78,127
17856,note_on,0,0,0,,1,,,49,127
18047,note_off,191,0,0,,1,,,49,127
18047,note_off,0,0,0,,6,,,78,127
18048,note_on,1,0,0,,6,,,78,127
18048,note_on,0,0,0,,12,,,47,127
18239,note_off,191,0,0,,12,,,47,127
18239,note_off,0,0,0,,6,,,78,127
18240,note_on,1,0,0,,6,,,78,127
18240,note_on,0,0,0,,10,,,45,127
18431,note_off,191,0,0,,10,,,45,127
18431,note_off,0,0,0,,6,,,78,127
18432,note_on,1,0,0,,6,,,78,127
18432,note_on,0,0,0,,8,,,44,127
18623,note_off,191,0,0,,8,,,44,127
18623,note_off,0,0,0,,6,,,78,127
18624,note_on,1,0,0,,8,,,80,127
18624,note_on,0,0,0,,6,,,42,127
18815,note_off,191,0,0,,6,,,42,127
18815,note_off,0,0,0,,8,,,80,127
18816,note_on,1,0,0,,8,,,80,127
18816,note_on,0,0,0,,4,,,40,127
19007,note_off,191,0,0,,8,,,80,127
19008,note_on,1,0,0,,10,,,81,127
19199,note_off,191,0,0,,10,,,81,127
19199,note_off,0,0,0,,4,,,40,127
19200,note_on,1,0,0,,10,,,81,127
19200,note_on,0,0,0,,3,,,39,127
19295,note_off,95,0,0,,10,,,81,127
19296,note_on,1,0,0,,8,,,80,127
19391,note_off,95,0,0,,8,,,80,127
19392,note_on,1,0,0,,10,,,81,127
19487,note_off,95,0,0,,10,,,81,127
19488,note_on,1,0,0,,12,,,83,127
19583,note_off,95,0,0,,12,,,83,127
19583,note_off,0,0,0,,3,,,39,127
19584,note_on,1,0,0,,8,,,80,127
19584,note_on,0,0,0,,4,,,40,127
19679,note_off,95,0,0,,8,,,80,127
19680,note_on,1,0,0,,12,,,83,127
19775,note_off,95,0,0,,12,,,83,127
19776,note_on,1,0,0,,8,,,80,127
19871,note_off,95,0,0,,8,,,80,127
19872,note_on,1,0,0,,4,,,76,127
19967,note_off,95,0,0,,4,,,76,127
19968,note_on,1,0,0,,12,,,71,127
20063,note_off,95,0,0,,12,,,71,127
20064,note_on,1,0,0,,8,,,68,127
20159,note_off,95,0,0,,8,,,68,127
20160,note_on,1,0,0,,4,,,64,127
20255,note_off,95,0,0,,4,,,64,127
20256,note_on,1,0,0,,12,,,59,127
20351,note_off,95,0,0,,12,,,59,127
20352,note_on,1,0,0,,8,,,56,127
20447,note_off,95,0,0,,8,,,56,127
20448,note_on,1,0,0,,4,,,52,127
20543,note_off,95,0,0,,4,,,52,127
20544,note_on,1,0,0,,12,,,47,127
20639,note_off,95,0,0,,12,,,47,127
20640,note_on,1,0,0,,8,,,44,127
20735,note_off,95,0,0,,8,,,44,127
20735,note_off,0,0,0,,4,,,40,127
20736,note_on,1,0,0,,8,,,68,127
20736,note_on,0,0,0,,4,,,40,127
20832,note_on,96,0,0,,4,,,64,127
20856,note_off,24,0,0,,8,,,68,127
20928,note_on,72,0,0,,12,,,71,127
20952,note_off,24,0,0,,4,,,64,127
21024,note_on,72,0,0,,8,,,68,127
21048,note_off,24,0,0,,12,,,71,127
21119,note_off,71,0,0,,4,,,40,127
21120,note_on,1,0,0,,2,,,74,127
21120,note_on,0,0,0,,4,,,40,127
21144,note_off,24,0,0,,8,,,68,127
21216,note_on,72,0,0,,12,,,71,127
21240,note_off,24,0,0,,2,,,74,127
21312,note_on,72,0,0,,6,,,78,127
21336,note_off,24,0,0,,12,,,71,127
21408,note_on,72,0,0,,2,,,74,127
21432,note_off,24,0,0,,6,,,78,127
21503,note_off,71,0,0,,4,,,40,127
21504,note_on,1,0,0,,12,,,83,127
21504,note_on,0,0,0,,4,,,40,127
21528,note_off,24,0,0,,2,,,74,127
21600,note_on,72,0,0,,2,,,74,127
21624,note_off,24,0,0,,12,,,83,127
21696,note_on,72,0,0,,1,,,73,127
21720,note_off,24,0,0,,2,,,74,127
21792,note_on,72,0,0,,12,,,71,127
21816,note_off,24,0,0,,1,,,73,127
21887,note_off,71,0,0,,4,,,40,127
21888,note_on,1,0,0,,10,,,69,127
21888,note_on,0,0,0,,4,,,40,127
21912,note_off,24,0,0,,12,,,71,127
21984,note_on,72,0,0,,4,,,64,127
22008,note_off,24,0,0,,10,,,69,127
22080,note_on,72,0,0,,1,,,73,127
22104,note_off,24,0,0,,4,,,64,127
22176,note_on,72,0,0,,10,,,69,127
22200,note_off,24,0,0,,1,,,73,127
22271,note_off,71,0,0,,4,,,40,127
22272,note_on,1,0,0,,4,,,76,127
22272,note_on,0,0,0,,4,,,40,127
22296,note_off,24,0,0,,10,,,69,127
22368,note_on,72,0,0,,1,,,73,127
22392,note_off,24,0,0,,4,,,76,127
22464,note_on,72,0,0,,10,,,81,127
22488,note_off,24,0,0,,1,,,73,127
22560,note_on,72,0,0,,4,,,76,127
22584,note_off,24,0,0,,10,,,81,127
22655,note_off,71,0,0,,4,,,40,127
22656,note_on,1,0,0,,1,,,85,127
22656,note_on,0,0,0,,4,,,40,127
22680,note_off,24,0,0,,4,,,76,127
22752,note_on,72,0,0,,4,,,76,127
22776,note_off,24,0,0,,1,,,85,127
22848,note_on,72,0,0,,2,,,74,127
22872,note_off,24,0,0,,4,,,76,127
22944,note_on,72,0,0,,1,,,73,127
22968,note_off,24,0,0,,2,,,74,127
23039,note_off,71,0,0,,4,,,40,127
23040,note_on,1,0,0,,8,,,68,127
23040,note_on,0,0,0,,4,,,40,127
23064,note_off,24,0,0,,1,,,73,127
23136,note_on,72,0,0,,4,,,64,127
23160,note_off,24,0,0,,8,,,68,127
23232,note_on,72,0,0,,12,,,71,127
23256,note_off,24,0,0,,4,,,64,127
23328,note_on,72,0,0,,8,,,68,127
23352,note_off,24,0,0,,12,,,71,127
23423,note_off,71,0,0,,4,,,40,127
23424,note_on,1,0,0,,2,,,74,127
23424,note_on,0,0,0,,4,,,40,127
23448,note_off,24,0,0,,8,,,68,127
23520,note_on,72,0,0,,12,,,71,127
23544,note_off,24,0,0,,2,,,74,127
23616,note_on,72,0,0,,8,,,80,127
23640,note_off,24,0,0,,12,,,71,127
23712,note_on,72,0,0,,2,,,74,127
23736,note_off,24,0,0,,8,,,80,127
23807,note_off,71,0,0,,4,,,40,127
23808,note_on,1,0,0,,12,,,83,127
23808,note_on,0,0,0,,4,,,40,127
23832,note_off,24,0,0,,2,,,74,127
23904,note_on,72,0,0,,2,,,74,127
23928,note_off,24,0,0,,12,,,83,127
23998,note_off,70,0,0,,2,,,74,127
24000,note_on,2,0,0,,2,,,74,127
24048,note_off,48,0,0,,2,,,74,127
24048,note_on,0,0,0,,1,,,73,127
24096,note_off,48,0,0,,1,,,73,127
24096,note_on,0,0,0,,12,,,71,127
24191,note_off,95,0,0,,4,,,40,127
24192,note_on,1,0,0,,10,,,69,127
24192,note_on,0,0,0,,4,,,40,127
24216,note_off,24,0,0,,12,,,71,127
24288,note_on,72,0,0,,4,,,64,127
24312,note_off,24,0,0,,10,,,69,127
24384,note_on,72,0,0,,1,,,73,127
24408,note_off,24,0,0,,4,,,64,127
24480,note_on,72,0,0,,10,,,69,127
24504,note_off,24,0,0,,1,,,73,127
24575,note_off,71,0,0,,4,,,40,127
24576,note_on,1,0,0,,4,,,76,127
24576,note_on,0,0,0,,4,,,40,127
24600,note_off,24,0,0,,10,,,69,127
24672,note_on,72,0,0,,1,,,73,127
24696,note_off,24,0,0,,4,,,76,127
24768,note_on,72,0,0,,10,,,81,127
24792,note_off,24,0,0,,1,,,73,127
24864,note_on,72,0,0,,4,,,76,127
24888,note_off,24,0,0,,10,,,81,127
24959,note_off,71,0,0,,4,,,40,127
24960,note_on,1,0,0,,1,,,85,127
24960,note_on,0,0,0,,4,,,40,127
24984,note_off,24,0,0,,4,,,76,127
25056,note_on,72,0,0,,4,,,76,127
25080,note_off,24,0,0,,1,,,85,127
25151,note_off,71,0,0,,4,,,76,127
25152,note_on,1,0,0,,4,,,76,127
25200,note_off,48,0,0,,4,,,76,127
25200,note_on,0,0,0,,2,,,74,127
25248,note_off,48,0,0,,2,,,74,127
25248,note_on,0,0,0,,1,,,73,127
25343,note_off,95,0,0,,1,,,73,127
25343,note_off,0,0,0,,4,,,40,127
25344,note_on,1,0,0,,12,,,71,127
25344,note_on,0,0,0,,8,,,44,127
25440,note_on,96,0,0,,4,,,40,127
25454,note_off,14,0,0,,8,,,44,127
25536,note_on,82,0,0,,12,,,47,127
25550,note_off,14,0,0,,4,,,40,127
25632,note_on,82,0,0,,8,,,44,127
25646,note_off,14,0,0,,12,,,47,127
25728,note_on,82,0,0,,2,,,50,127
25742,note_off,14,0,0,,8,,,44,127
25824,note_on,82,0,0,,12,,,47,127
25838,note_off,14,0,0,,2,,,50,127
25920,note_on,82,0,0,,8,,,56,127
25934,note_off,14,0,0,,12,,,47,127
26016,note_on,82,0,0,,4,,,52,127
26030,note_off,14,0,0,,8,,,56,127
26111,note_off,81,0,0,,12,,,71,127
26112,note_on,1,0,0,,4,,,76,127
26112,note_on,0,0,0,,2,,,62,127
26126,note_off,14,0,0,,4,,,52,127
26208,note_on,82,0,0,,12,,,59,127
26222,note_off,14,0,0,,2,,,62,127
26304,note_on,82,0,0,,10,,,57,127
26318,note_off,14,0,0,,12,,,59,127
26400,note_on,82,0,0,,8,,,56,127
26414,note_off,14,0,0,,10,,,57,127
26495,note_off,81,0,0,,4,,,76,127
26496,note_on,1,0,0,,4,,,76,127
26496,note_on,0,0,0,,10,,,45,127
26510,note_off,14,0,0,,8,,,56,127
26592,note_on,82,0,0,,4,,,40,127
26606,note_off,14,0,0,,10,,,45,127
26688,note_on,82,0,0,,1,,,49,127
26702,note_off,14,0,0,,4,,,40,127
26784,note_on,82,0,0,,10,,,45,127
26798,note_off,14,0,0,,1,,,49,127
26879,note_off,81,0,0,,4,,,76,127
26880,note_on,1,0,0,,4,,,76,127
26880,note_on,0,0,0,,4,,,52,127
26894,note_off,14,0,0,,10,,,45,127
26976,note_on,82,0,0,,1,,,49,127
26990,note_off,14,0,0,,4,,,52,127
27072,note_on,82,0,0,,10,,,57,127
27086,note_off,14,0,0,,1,,,49,127
27168,note_on,82,0,0,,4,,,52,127
27182,note_off,14,0,0,,10,,,57,127
27263,note_off,81,0,0,,4,,,76,127
27264,note_on,1,0,0,,4,,,76,127
27264,note_on,0,0,0,,4,,,64,127
27278,note_off,14,0,0,,4,,,52,127
27360,note_on,82,0,0,,1,,,61,127
27374,note_off,14,0,0,,4,,,64,127
27456,note_on,82,0,0,,12,,,59,127
27470,note_off,14,0,0,,1,,,61,127
27552,note_on,82,0,0,,10,,,57,127
27566,note_off,14,0,0,,12,,,59,127
27647,note_off,81,0,0,,4,,,76,127
27648,note_on,1,0,0,,4,,,76,127
27648,note_on,0,0,0,,8,,,44,127
27662,note_off,14,0,0,,10,,,57,127
27744,note_on,82,0,0,,4,,,40,127
27758,note_off,14,0,0,,8,,,44,127
27840,note_on,82,0,0,,12,,,47,127
27854,note_off,14,0,0,,4,,,40,127
27936,note_on,82,0,0,,8,,,44,127
27950,note_off,14,0,0,,12,,,47,127
28031,note_off,81,0,0,,4,,,76,127
28032,note_on,1,0,0,,4,,,76,127
28032,note_on,0,0,0,,2,,,50,127
28046,note_off,14,0,0,,8,,,44,127
28128,note_on,82,0,0,,12,,,47,127
28142,note_off,14,0,0,,2,,,50,127
28224,note_on,82,0,0,,8,,,56,127
28238,note_off,14,0,0,,12,,,47,127
28320,note_on,82,0,0,,4,,,52,127
28334,note_off,14,0,0,,8,,,56,127
28415,note_off,81,0,0,,4,,,76,127
28416,note_on,1,0,0,,4,,,76,127
28416,note_on,0,0,0,,2,,,62,127
28430,note_off,14,0,0,,4,,,52,127
28512,note_on,82,0,0,,12,,,59,127
28526,note_off,14,0,0,,2,,,62,127
28608,note_on,82,0,0,,10,,,57,127
28622,note_off,14,0,0,,12,,,59,127
28704,note_on,82,0,0,,8,,,56,127
28718,note_off,14,0,0,,10,,,57,127
28799,note_off,81,0,0,,4,,,76,127
28800,note_on,1,0,0,,4,,,76,127
28800,note_on,0,0,0,,10,,,45,127
28814,note_off,14,0,0,,8,,,56,127
28896,note_on,82,0,0,,4,,,40,127
28910,note_off,14,0,0,,10,,,45,127
28992,note_on,82,0,0,,1,,,49,127
29006,note_off,14,0,0,,4,,,40,127
29088,note_on,82,0,0,,10,,,45,127
29102,note_off,14,0,0,,1,,,49,127
29183,note_off,81,0,0,,4,,,76,127
29184,note_on,1,0,0,,4,,,76,127
29184,note_on,0,0,0,,4,,,52,127
29198,note_off,14,0,0,,10,,,45,127
29280,note_on,82,0,0,,1,,,49,127
29294,note_off,14,0,0,,4,,,52,127
29376,note_on,82,0,0,,10,,,57,127
29390,note_off,14,0,0,,1,,,49,127
29472,note_on,82,0,0,,4,,,52,127
29486,note_off,14,0,0,,10,,,57,127
29567,note_off,81,0,0,,4,,,76,127
29568,note_on,1,0,0,,4,,,76,127
29568,note_on,0,0,0,,4,,,64,127
29582,note_off,14,0,0,,4,,,52,127
29664,note_on,82,0,0,,1,,,61,127
29678,note_off,14,0,0,,4,,,64,127
29760,note_on,82,0,0,,12,,,59,127
29774,note_off,14,0,0,,1,,,61,127
29856,note_on,82,0,0,,10,,,57,127
29870,note_off,14,0,0,,12,,,59,127
29951,note_off,81,0,0,,10,,,57,127
29952,note_on,1,0,0,,4,,,40,127
30047,note_off,95,0,0,,4,,,76,127
30048,note_on,1,0,0,,4,,,76,127
30143,note_off,95,0,0,,4,,,76,127
30144,note_on,1,0,0,,2,,,74,127
30239,note_off,95,0,0,,2,,,74,127
30240,note_on,1,0,0,,1,,,73,127
30335,note_off,95,0,0,,1,,,73,127
30336,note_on,1,0,0,,12,,,71,127
30431,note_off,95,0,0,,12,,,71,127
30432,note_on,1,0,0,,10,,,69,127
30527,note_off,95,0,0,,10,,,69,127
30528,note_on,1,0,0,,8,,,68,127
30623,note_off,95,0,0,,8,,,68,127
30624,note_on,1,0,0,,6,,,66,127
30719,note_off,95,0,0,,6,,,66,127
30719,note_off,0,0,0,,4,,,40,127
30720,note_on,1,0,0,,4,,,64,127
30815,note_off,95,0,0,,4,,,64,127
30816,note_on,1,0,0,,4,,,64,127
30912,note_on,96,0,0,,2,,,62,127
31007,note_off,95,0,0,,2,,,62,127
31008,note_on,1,0,0,,1,,,61,127
31103,note_off,95,0,0,,1,,,61,127
31104,note_on,1,0,0,,12,,,59,127
31199,note_off,95,0,0,,12,,,59,127
31200,note_on,1,0,0,,10,,,57,127
31295,note_off,95,0,0,,10,,,57,127
31296,note_on,1,0,0,,8,,,56,127
31391,note_off,95,0,0,,8,,,56,127
31392,note_on,1,0,0,,6,,,54,127
31487,note_off,95,0,0,,6,,,54,127
31487,note_off,0,0,0,,4,,,64,127
31488,note_on,1,0,0,,4,,,52,127
31583,note_off,95,0,0,,4,,,52,127
31584,note_on,1,0,0,,4,,,52,127
31680,note_on,96,0,0,,2,,,50,127
31775,note_off,95,0,0,,2,,,50,127
31776,note_on,1,0,0,,1,,,49,127
31871,note_off,95,0,0,,1,,,49,127
31872,note_on,1,0,0,,12,,,47,127
31967,note_off,95,0,0,,12,,,47,127
31968,note_on,1,0,0,,10,,,45,127
32063,note_off,95,0,0,,10,,,45,127
32064,note_on,1,0,0,,8,,,44,127
32159,note_off,95,0,0,,8,,,44,127
32160,note_on,1,0,0,,6,,,42,127
32255,note_off,95,0,0,,6,,,42,127
32255,note_off,0,0,0,,4,,,52,127
32256,note_on,1,0,0,,4,,,40,127
33216,note_off,960,0,0,,4,,,40,127
33408,note_on,192,0,0,,5,,,77,127
33408,note_on,0,0,0,,12,,,71,127
33408,note_on,0,0,0,,2,,,62,127
33408,note_on,0,0,0,,8,,,68,127
33503,note_off,95,0,0,,5,,,77,127
33504,note_on,1,0,0,,4,,,76,127
33599,note_off,95,0,0,,4,,,76,127
33600,note_on,1,0,0,,2,,,74,127
33791,note_off,191,0,0,,8,,,68,127
33791,note_off,0,0,0,,2,,,62,127
33791,note_off,0,0,0,,12,,,71,127
33792,note_on,1,0,0,,12,,,71,127
33792,note_on,0,0,0,,2,,,62,127
33792,note_on,0,0,0,,8,,,68,127
33983,note_off,191,0,0,,2,,,74,127
33984,note_on,1,0,0,,0,,,72,127
34175,note_off,191,0,0,,0,,,72,127
34175,note_off,0,0,0,,8,,,68,127
34175,note_off,0,0,0,,2,,,62,127
34175,note_off,0,0,0,,12,,,71,127
34176,note_on,1,0,0,,2,,,74,127
34176,note_on,0,0,0,,2,,,62,127
34176,note_on,0,0,0,,8,,,68,127
34223,note_off,47,0,0,,2,,,74,127
34224,note_on,1,0,0,,0,,,72,127
34271,note_off,47,0,0,,0,,,72,127
34272,note_on,1,0,0,,2,,,74,127
34319,note_off,47,0,0,,2,,,74,127
34320,note_on,1,0,0,,0,,,72,127
34367,note_off,47,0,0,,0,,,72,127
34368,note_on,1,0,0,,12,,,71,127
34559,note_off,191,0,0,,12,,,71,127
34559,note_off,0,0,0,,8,,,68,127
34559,note_off,0,0,0,,2,,,62,127
34560,note_on,1,0,0,,4,,,76,127
34560,note_on,0,0,0,,0,,,60,127
34560,note_on,0,0,0,,4,,,64,127
34560,note_on,0,0,0,,10,,,69,127
34655,note_off,95,0,0,,4,,,76,127
34656,note_on,1,0,0,,2,,,74,127
34751,note_off,95,0,0,,2,,,74,127
34752,note_on,1,0,0,,0,,,72,127
34943,note_off,191,0,0,,10,,,69,127
34943,note_off,0,0,0,,4,,,64,127
34943,note_off,0,0,0,,0,,,60,127
34944,note_on,1,0,0,,10,,,69,127
34944,note_on,0,0,0,,0,,,60,127
34944,note_on,0,0,0,,4,,,64,127
35135,note_off,191,0,0,,0,,,72,127
35136,note_on,1,0,0,,12,,,71,127
35327,note_off,191,0,0,,4,,,64,127
35327,note_off,0,0,0,,0,,,60,127
35327,note_off,0,0,0,,10,,,69,127
35328,note_on,1,0,0,,0,,,60,127
35328,note_on,0,0,0,,4,,,64,127
35328,note_on,0,0,0,,10,,,69,127
35519,note_off,191,0,0,,12,,,71,127
35520,note_on,1,0,0,,0,,,72,127
35711,note_off,191,0,0,,0,,,72,127
35711,note_off,0,0,0,,10,,,69,127
35711,note_off,0,0,0,,4,,,64,127
35711,note_off,0,0,0,,0,,,60,127
35712,note_on,1,0,0,,2,,,86,127
35712,note_on,0,0,0,,5,,,65,127
35712,note_on,0,0,0,,10,,,69,127
35807,note_off,95,0,0,,2,,,86,127
35808,note_on,1,0,0,,0,,,84,127
35903,note_off,95,0,0,,0,,,84,127
35904,note_on,1,0,0,,12,,,83,127
36095,note_off,191,0,0,,10,,,69,127
36095,note_off,0,0,0,,5,,,65,127
36096,note_on,1,0,0,,10,,,69,127
36096,note_on,0,0,0,,5,,,65,127
36287,note_off,191,0,0,,12,,,83,127
36288,note_on,1,0,0,,10,,,81,127
36479,note_off,191,0,0,,10,,,81,127
36479,note_off,0,0,0,,5,,,65,127
36479,note_off,0,0,0,,10,,,69,127
36480,note_on,1,0,0,,8,,,80,127
36480,note_on,0,0,0,,10,,,69,127
36480,note_on,0,0,0,,5,,,65,127
36671,note_off,191,0,0,,8,,,80,127
36672,note_on,1,0,0,,10,,,81,127
36863,note_off,191,0,0,,10,,,81,127
36863,note_off,0,0,0,,5,,,65,127
36863,note_off,0,0,0,,10,,,69,127
36864,note_on,1,0,0,,10,,,81,127
36864,note_on,0,0,0,,12,,,71,127
36864,note_on,0,0,0,,4,,,64,127
37055,note_off,191,0,0,,10,,,81,127
37056,note_on,1,0,0,,0,,,84,127
37103,note_off,47,0,0,,0,,,84,127
37104,note_on,1,0,0,,12,,,83,127
37151,note_off,47,0,0,,12,,,83,127
37152,note_on,1,0,0,,0,,,84,127
37199,note_off,47,0,0,,0,,,84,127
37200,note_on,1,0,0,,12,,,83,127
37583,note_off,383,0,0,,12,,,83,127
37824,note_off,241,0,0,,4,,,64,127
37824,note_off,0,0,0,,12,,,71,127
38016,note_on,192,0,0,,5,,,77,127
38016,note_on,0,0,0,,12,,,71,127
38016,note_on,0,0,0,,2,,,62,127
38016,note_on,0,0,0,,8,,,68,127
38111,note_off,95,0,0,,5,,,77,127
38112,note_on,1,0,0,,4,,,76,127
38207,note_off,95,0,0,,4,,,76,127
38208,note_on,1,0,0,,5,,,77,127
38399,note_off,191,0,0,,8,,,68,127
38399,note_off,0,0,0,,2,,,62,127
38399,note_off,0,0,0,,12,,,71,127
38400,note_on,1,0,0,,12,,,71,127
38400,note_on,0,0,0,,2,,,62,127
38400,note_on,0,0,0,,8,,,68,127
38591,note_off,191,0,0,,5,,,77,127
38592,note_on,1,0,0,,8,,,80,127
38783,note_off,191,0,0,,8,,,80,127
38783,note_off,0,0,0,,8,,,68,127
38783,note_off,0,0,0,,2,,,62,127
38783,note_off,0,0,0,,12,,,71,127
38784,note_on,1,0,0,,10,,,81,127
38784,note_on,0,0,0,,12,,,83,127
38784,note_on,0,0,0,,12,,,71,127
38784,note_on,0,0,0,,2,,,62,127
38784,note_on,0,0,0,,8,,,68,127
38911,note_off,127,0,0,,12,,,83,127
38911,note_off,0,0,0,,10,,,81,127
38912,note_on,1,0,0,,8,,,80,127
39039,note_off,127,0,0,,8,,,80,127
39040,note_on,1,0,0,,5,,,77,127
39167,note_off,127,0,0,,5,,,77,127
39167,note_off,0,0,0,,8,,,68,127
39167,note_off,0,0,0,,2,,,62,127
39167,note_off,0,0,0,,12,,,71,127
39168,note_on,1,0,0,,3,,,75,127
39168,note_on,0,0,0,,4,,,64,127
39168,note_on,0,0,0,,10,,,69,127
39168,note_on,0,0,0,,0,,,60,127
39359,note_off,191,0,0,,3,,,75,127
39360,note_on,1,0,0,,4,,,76,127
39551,note_off,191,0,0,,0,,,60,127
39551,note_off,0,0,0,,10,,,69,127
39551,note_off,0,0,0,,4,,,64,127
39552,note_on,1,0,0,,10,,,69,127
39552,note_on,0,0,0,,0,,,60,127
39552,note_on,0,0,0,,4,,,64,127
39743,note_off,191,0,0,,4,,,76,127
39744,note_on,1,0,0,,0,,,84,127
39935,note_off,191,0,0,,0,,,84,127
39935,note_off,0,0,0,,4,,,64,127
39935,note_off,0,0,0,,0,,,60,127
39935,note_off,0,0,0,,10,,,69,127
39936,note_on,1,0,0,,12,,,83,127
39936,note_on,0,0,0,,10,,,69,127
39936,note_on,0,0,0,,0,,,60,127
39936,note_on,0,0,0,,4,,,64,127
40127,note_off,191,0,0,,12,,,83,127
40128,note_on,1,0,0,,0,,,84,127
40319,note_off,191,0,0,,0,,,84,127
40319,note_off,0,0,0,,4,,,64,127
40319,note_off,0,0,0,,0,,,60,127
40319,note_off,0,0,0,,10,,,69,127
40320,note_on,1,0,0,,2,,,86,127
40320,note_on,0,0,0,,2,,,74,127
40320,note_on,0,0,0,,10,,,69,127
40320,note_on,0,0,0,,5,,,65,127
40415,note_off,95,0,0,,2,,,86,127
40416,note_on,1,0,0,,0,,,84,127
40511,note_off,95,0,0,,0,,,84,127
40512,note_on,1,0,0,,12,,,83,127
40703,note_off,191,0,0,,5,,,65,127
40703,note_off,0,0,0,,10,,,69,127
40703,note_off,0,0,0,,2,,,74,127
40704,note_on,1,0,0,,2,,,74,127
40704,note_on,0,0,0,,5,,,65,127
40704,note_on,0,0,0,,10,,,69,127
40895,note_off,191,0,0,,12,,,83,127
40896,note_on,1,0,0,,10,,,81,127
41087,note_off,191,0,0,,10,,,81,127
41087,note_off,0,0,0,,10,,,69,127
41087,note_off,0,0,0,,5,,,65,127
41087,note_off,0,0,0,,2,,,74,127
41088,note_on,1,0,0,,8,,,80,127
41088,note_on,0,0,0,,5,,,65,127
41088,note_on,0,0,0,,10,,,69,127
41279,note_off,191,0,0,,8,,,80,127
41280,note_on,1,0,0,,10,,,81,127
41471,note_off,191,0,0,,10,,,69,127
41471,note_off,0,0,0,,5,,,65,127
41472,note_on,1,0,0,,8,,,68,127
41472,note_on,0,0,0,,12,,,71,127
41567,note_off,95,0,0,,10,,,81,127
41568,note_on,1,0,0,,12,,,83,127
41663,note_off,95,0,0,,12,,,83,127
41664,note_on,1,0,0,,2,,,74,127
41855,note_off,191,0,0,,12,,,71,127
41855,note_off,0,0,0,,8,,,68,127
41856,note_on,1,0,0,,8,,,68,127
41856,note_on,0,0,0,,12,,,71,127
42047,note_off,191,0,0,,2,,,74,127
42048,note_on,1,0,0,,0,,,72,127
42143,note_off,95,0,0,,0,,,72,127
42143,note_off,0,0,0,,12,,,71,127
42144,note_on,1,0,0,,12,,,71,127
42239,note_off,95,0,0,,12,,,71,127
42239,note_off,0,0,0,,8,,,68,127
42240,note_on,1,0,0,,0,,,72,127
42240,note_on,0,0,0,,10,,,69,127
42335,note_off,95,0,0,,0,,,72,127
42336,note_on,1,0,0,,8,,,80,127
42431,note_off,95,0,0,,8,,,80,127
42432,note_on,1,0,0,,10,,,81,127
42527,note_off,95,0,0,,10,,,81,127
42528,note_on,1,0,0,,4,,,76,127
42623,note_off,95,0,0,,4,,,76,127
42623,note_off,0,0,0,,10,,,69,127
42624,note_on,1,0,0,,5,,,77,127
42624,note_on,0,0,0,,2,,,62,127
42719,note_off,95,0,0,,5,,,77,127
42720,note_on,1,0,0,,0,,,72,127
42815,note_off,95,0,0,,0,,,72,127
42816,note_on,1,0,0,,2,,,74,127
42911,note_off,95,0,0,,2,,,74,127
42912,note_on,1,0,0,,12,,,71,127
43007,note_off,95,0,0,,12,,,71,127
43007,note_off,0,0,0,,2,,,62,127
43008,note_on,1,0,0,,10,,,69,127
43008,note_on,0,0,0,,4,,,64,127
43391,note_off,383,0,0,,4,,,64,127
43391,note_off,0,0,0,,10,,,69,127
43392,note_on,1,0,0,,10,,,69,127
43392,note_on,0,0,0,,4,,,52,127
43455,note_off,63,0,0,,10,,,69,127
43456,note_on,1,0,0,,8,,,68,127
43519,note_off,63,0,0,,8,,,68,127
43520,note_on,1,0,0,,10,,,69,127
43583,note_off,63,0,0,,10,,,69,127
43584,note_on,1,0,0,,8,,,68,127
43647,note_off,63,0,0,,8,,,68,127
43648,note_on,1,0,0,,6,,,66,127
43711,note_off,63,0,0,,6,,,66,127
43712,note_on,1,0,0,,8,,,68,127
43775,note_off,63,0,0,,8,,,68,127
43775,note_off,0,0,0,,4,,,52,127
43776,note_on,1,0,0,,10,,,69,127
43776,note_on,0,0,0,,10,,,45,127
43967,note_off,191,0,0,,10,,,45,127
43967,note_off,0,0,0,,10,,,69,127
43968,note_on,1,0,0,,10,,,69,127
43968,note_on,0,0,0,,8,,,68,127
44159,note_off,191,0,0,,8,,,68,127
44159,note_off,0,0,0,,10,,,69,127
44160,note_on,1,0,0,,10,,,69,127
44160,note_on,0,0,0,,6,,,66,127
44351,note_off,191,0,0,,6,,,66,127
44351,note_off,0,0,0,,10,,,69,127
44352,note_on,1,0,0,,10,,,69,127
44352,note_on,0,0,0,,4,,,64,127
44543,note_off,191,0,0,,4,,,64,127
44543,note_off,0,0,0,,10,,,69,127
44544,note_on,1,0,0,,10,,,69,127
44544,note_on,0,0,0,,2,,,62,127
44735,note_off,191,0,0,,2,,,62,127
44735,note_off,0,0,0,,10,,,69,127
44736,note_on,1,0,0,,10,,,69,127
44736,note_on,0,0,0,,1,,,61,127
44927,note_off,191,0,0,,1,,,61,127
44927,note_off,0,0,0,,10,,,69,127
44928,note_on,1,0,0,,10,,,69,127
44928,note_on,0,0,0,,12,,,59,127
45119,note_off,191,0,0,,12,,,59,127
45119,note_off,0,0,0,,10,,,69,127
45120,note_on,1,0,0,,11,,,70,127
45120,note_on,0,0,0,,10,,,57,127
45311,note_off,191,0,0,,10,,,57,127
45311,note_off,0,0,0,,11,,,70,127
45312,note_on,1,0,0,,12,,,71,127
45312,note_on,0,0,0,,8,,,56,127
45503,note_off,191,0,0,,8,,,56,127
45503,note_off,0,0,0,,12,,,71,127
45504,note_on,1,0,0,,12,,,71,127
45504,note_on,0,0,0,,6,,,54,127
45695,note_off,191,0,0,,6,,,54,127
45695,note_off,0,0,0,,12,,,71,127
45696,note_on,1,0,0,,12,,,71,127
45696,note_on,0,0,0,,4,,,52,127
45887,note_off,191,0,0,,4,,,52,127
45887,note_off,0,0,0,,12,,,71,127
45888,note_on,1,0,0,,12,,,71,127
45888,note_on,0,0,0,,2,,,50,127
46079,note_off,191,0,0,,2,,,50,127
46079,note_off,0,0,0,,12,,,71,127
46080,note_on,1,0,0,,12,,,71,127
46080,note_on,0,0,0,,1,,,49,127
46271,note_off,191,0,0,,1,,,49,127
46271,note_off,0,0,0,,12,,,71,127
46272,note_on,1,0,0,,0,,,72,127
46272,note_on,0,0,0,,12,,,47,127
46463,note_off,191,0,0,,12,,,47,127
46463,note_off,0,0,0,,0,,,72,127
46464,note_on,1,0,0,,1,,,73,127
46464,note_on,0,0,0,,10,,,45,127
46655,note_off,191,0,0,,10,,,45,127
46655,note_off,0,0,0,,1,,,73,127
46656,note_on,1,0,0,,1,,,73,127
46656,note_on,0,0,0,,8,,,44,127
46847,note_off,191,0,0,,8,,,44,127
46847,note_off,0,0,0,,1,,,73,127
46848,note_on,1,0,0,,2,,,74,127
46848,note_on,0,0,0,,6,,,42,127
46911,note_off,63,0,0,,2,,,74,127
46912,note_on,1,0,0,,1,,,73,127
46975,note_off,63,0,0,,1,,,73,127
46976,note_on,1,0,0,,12,,,71,127
47039,note_off,63,0,0,,12,,,71,127
47039,note_off,0,0,0,,6,,,42,127
47040,note_on,1,0,0,,1,,,73,127
47040,note_on,0,0,0,,4,,,40,127
47103,note_off,63,0,0,,1,,,73,127
47104,note_on,1,0,0,,2,,,74,127
47167,note_off,63,0,0,,2,,,74,127
47168,note_on,1,0,0,,4,,,76,127
47231,note_off,63,0,0,,4,,,76,127
47231,note_off,0,0,0,,4,,,40,127
47232,note_on,1,0,0,,8,,,80,127
47232,note_on,0,0,0,,2,,,38,127
47295,note_off,63,0,0,,8,,,80,127
47296,note_on,1,0,0,,6,,,78,127
47359,note_off,63,0,0,,6,,,78,127
47360,note_on,1,0,0,,4,,,76,127
47423,note_off,63,0,0,,4,,,76,127
47424,note_on,1,0,0,,6,,,78,127
47487,note_off,63,0,0,,6,,,78,127
47488,note_on,1,0,0,,8,,,80,127
47551,note_off,63,0,0,,8,,,80,127
47552,note_on,1,0,0,,10,,,81,127
47615,note_off,63,0,0,,10,,,81,127
47615,note_off,0,0,0,,2,,,38,127
47616,note_on,1,0,0,,1,,,73,127
47616,note_on,0,0,0,,4,,,40,127
47999,note_off,383,0,0,,4,,,40,127
47999,note_off,0,0,0,,1,,,73,127
48000,note_on,1,0,0,,12,,,71,127
48000,note_on,0,0,0,,4,,,40,127
48383,note_off,383,0,0,,4,,,40,127
48383,note_off,0,0,0,,12,,,71,127
48384,note_on,1,0,0,,10,,,69,127
48384,note_on,0,0,0,,10,,,45,127
48479,note_off,95,0,0,,10,,,69,127
48480,note_on,1,0,0,,8,,,68,127
48575,note_off,95,0,0,,8,,,68,127
48575,note_off,0,0,0,,10,,,45,127
48576,note_on,1,0,0,,10,,,69,127
48576,note_on,0,0,0,,8,,,68,127
48670,note_off,94,0,0,,8,,,68,127
48671,note_off,1,0,0,,10,,,69,127
48672,note_on,1,0,0,,8,,,68,127
48767,note_off,95,0,0,,8,,,68,127
48768,note_on,1,0,0,,10,,,69,127
48768,note_on,0,0,0,,6,,,66,127
48863,note_off,95,0,0,,10,,,69,127
48864,note_on,1,0,0,,8,,,68,127
48959,note_off,95,0,0,,8,,,68,127
48959,note_off,0,0,0,,6,,,66,127
48960,note_on,1,0,0,,10,,,69,127
48960,note_on,0,0,0,,4,,,64,127
49055,note_off,95,0,0,,10,,,69,127
49056,note_on,1,0,0,,8,,,68,127
49151,note_off,95,0,0,,8,,,68,127
49151,note_off,0,0,0,,4,,,64,127
49152,note_on,1,0,0,,10,,,69,127
49152,note_on,0,0,0,,2,,,62,127
49247,note_off,95,0,0,,10,,,69,127
49248,note_on,1,0,0,,8,,,68,127
49343,note_off,95,0,0,,8,,,68,127
49343,note_off,0,0,0,,2,,,62,127
49344,note_on,1,0,0,,10,,,69,127
49344,note_on,0,0,0,,1,,,61,127
49439,note_off,95,0,0,,10,,,69,127
49440,note_on,1,0,0,,8,,,68,127
49535,note_off,95,0,0,,8,,,68,127
49535,note_off,0,0,0,,1,,,61,127
49536,note_on,1,0,0,,10,,,69,127
49536,note_on,0,0,0,,12,,,59,127
49631,note_off,95,0,0,,10,,,69,127
49632,note_on,1,0,0,,11,,,70,127
49727,note_off,95,0,0,,11,,,70,127
49727,note_off,0,0,0,,12,,,59,127
49728,note_on,1,0,0,,12,,,71,127
49728,note_on,0,0,0,,10,,,57,127
49823,note_off,95,0,0,,12,,,71,127
49824,note_on,1,0,0,,11,,,70,127
49919,note_off,95,0,0,,11,,,70,127
49919,note_off,0,0,0,,10,,,57,127
49920,note_on,1,0,0,,12,,,71,127
49920,note_on,0,0,0,,8,,,56,127
50015,note_off,95,0,0,,12,,,71,127
50016,note_on,1,0,0,,11,,,70,127
50111,note_off,95,0,0,,11,,,70,127
50111,note_off,0,0,0,,8,,,56,127
50112,note_on,1,0,0,,12,,,71,127
50112,note_on,0,0,0,,6,,,54,127
50207,note_off,95,0,0,,12,,,71,127
50208,note_on,1,0,0,,11,,,70,127
50303,note_off,95,0,0,,11,,,70,127
50303,note_off,0,0,0,,6,,,54,127
50304,note_on,1,0,0,,12,,,71,127
50304,note_on,0,0,0,,4,,,52,127
50399,note_off,95,0,0,,12,,,71,127
50400,note_on,1,0,0,,11,,,70,127
50495,note_off,95,0,0,,11,,,70,127
50495,note_off,0,0,0,,4,,,52,127
50496,note_on,1,0,0,,12,,,71,127
50496,note_on,0,0,0,,2,,,50,127
50591,note_off,95,0,0,,12,,,71,127
50592,note_on,1,0,0,,11,,,70,127
50687,note_off,95,0,0,,11,,,70,127
50687,note_off,0,0,0,,2,,,50,127
50688,note_on,1,0,0,,12,,,71,127
50688,note_on,0,0,0,,1,,,49,127
50783,note_off,95,0,0,,12,,,71,127
50784,note_on,1,0,0,,0,,,72,127
50879,note_off,95,0,0,,0,,,72,127
50879,note_off,0,0,0,,1,,,49,127
50880,note_on,1,0,0,,1,,,73,127
50880,note_on,0,0,0,,12,,,47,127
50975,note_off,95,0,0,,1,,,73,127
50976,note_on,1,0,0,,0,,,72,127
51071,note_off,95,0,0,,0,,,72,127
51071,note_off,0,0,0,,12,,,47,127
51072,note_on,1,0,0,,1,,,73,127
51072,note_on,0,0,0,,10,,,45,127
51167,note_off,95,0,0,,1,,,73,127
51168,note_on,1,0,0,,0,,,72,127
51263,note_off,95,0,0,,0,,,72,127
51263,note_off,0,0,0,,10,,,45,127
51264,note_on,1,0,0,,1,,,73,127
51264,note_on,0,0,0,,8,,,44,127
51359,note_off,95,0,0,,1,,,73,127
51360,note_on,1,0,0,,0,,,72,127
51455,note_off,95,0,0,,0,,,72,127
51455,note_off,0,0,0,,8,,,44,127
51456,note_on,1,0,0,,2,,,74,127
51456,note_on,0,0,0,,6,,,42,127
51503,note_off,47,0,0,,2,,,74,127
51504,note_on,1,0,0,,1,,,73,127
51551,note_off,47,0,0,,1,,,73,127
51552,note_on,1,0,0,,2,,,74,127
51599,note_off,47,0,0,,2,,,74,127
51600,note_on,1,0,0,,1,,,73,127
51647,note_off,47,0,0,,1,,,73,127
51647,note_off,0,0,0,,6,,,42,127
51648,note_on,1,0,0,,12,,,71,127
51648,note_on,0,0,0,,4,,,40,127
51695,note_off,47,0,0,,12,,,71,127
51696,note_on,1,0,0,,1,,,73,127
51743,note_off,47,0,0,,1,,,73,127
51744,note_on,1,0,0,,2,,,74,127
51791,note_off,47,0,0,,2,,,74,127
51792,note_on,1,0,0,,4,,,76,127
51839,note_off,47,0,0,,4,,,76,127
51839,note_off,0,0,0,,4,,,40,127
51840,note_on,1,0,0,,8,,,80,127
51840,note_on,0,0,0,,2,,,38,127
51887,note_off,47,0,0,,8,,,80,127
51888,note_on,1,0,0,,6,,,78,127
51935,note_off,47,0,0,,6,,,78,127
51936,note_on,1,0,0,,8,,,80,127
51983,note_off,47,0,0,,8,,,80,127
51984,note_on,1,0,0,,6,,,78,127
52031,note_off,47,0,0,,6,,,78,127
52032,note_on,1,0,0,,4,,,76,127
52079,note_off,47,0,0,,4,,,76,127
52080,note_on,1,0,0,,6,,,78,127
52127,note_off,47,0,0,,6,,,78,127
52128,note_on,1,0,0,,8,,,80,127
52175,note_off,47,0,0,,8,,,80,127
52176,note_on,1,0,0,,10,,,81,127
52223,note_off,47,0,0,,10,,,81,127
52223,note_off,0,0,0,,2,,,38,127
52224,note_on,1,0,0,,10,,,69,127
52224,note_on,0,0,0,,1,,,73,127
52224,note_on,0,0,0,,4,,,40,127
52607,note_off,383,0,0,,4,,,40,127
52607,note_off,0,0,0,,1,,,73,127
52607,note_off,0,0,0,,10,,,69,127
52608,note_on,1,0,0,,8,,,68,127
52608,note_on,0,0,0,,12,,,71,127
52608,note_on,0,0,0,,4,,,40,127
52991,note_off,383,0,0,,4,,,40,127
52991,note_off,0,0,0,,12,,,71,127
52991,note_off,0,0,0,,8,,,68,127
52992,note_on,1,0,0,,10,,,69,127
52992,note_on,0,0,0,,10,,,45,127
53087,note_off,95,0,0,,10,,,69,127
53088,note_on,1,0,0,,10,,,81,127
53183,note_off,95,0,0,,10,,,81,127
53184,note_on,1,0,0,,4,,,76,127
53279,note_off,95,0,0,,4,,,76,127
53280,note_on,1,0,0,,1,,,73,127
53375,note_off,95,0,0,,1,,,73,127
53376,note_on,1,0,0,,10,,,69,127
53471,note_off,95,0,0,,10,,,69,127
53472,note_on,1,0,0,,4,,,64,127
53567,note_off,95,0,0,,4,,,64,127
53567,note_off,0,0,0,,10,,,45,127
53568,note_on,1,0,0,,1,,,61,127
53663,note_off,95,0,0,,1,,,61,127
53664,note_on,1,0,0,,10,,,57,127
53759,note_off,95,0,0,,10,,,57,127
53760,note_on,1,0,0,,4,,,52,127
53855,note_off,95,0,0,,4,,,52,127
53856,note_on,1,0,0,,1,,,49,127
53951,note_off,95,0,0,,1,,,49,127
53952,note_on,1,0,0,,10,,,45,127
54047,note_off,95,0,0,,10,,,45,127
54048,note_on,1,0,0,,4,,,40,127
54143,note_off,95,0,0,,4,,,40,127
54144,note_on,1,0,0,,10,,,33,127
54240,note_on,96,0,0,,10,,,81,127
54335,note_off,95,0,0,,10,,,81,127
54336,note_on,1,0,0,,4,,,76,127
54431,note_off,95,0,0,,4,,,76,127
54432,note_on,1,0,0,,1,,,73,127
54527,note_off,95,0,0,,1,,,73,127
54528,note_on,1,0,0,,10,,,69,127
54623,note_off,95,0,0,,10,,,69,127
54624,note_on,1,0,0,,4,,,64,127
54719,note_off,95,0,0,,4,,,64,127
54719,note_off,0,0,0,,10,,,33,127
54720,note_on,1,0,0,,1,,,61,127
54815,note_off,95,0,0,,1,,,61,127
54816,note_on,1,0,0,,10,,,57,127
54911,note_off,95,0,0,,10,,,57,127
54912,note_on,1,0,0,,4,,,52,127
55007,note_off,95,0,0,,4,,,52,127
55008,note_on,1,0,0,,1,,,49,127
55103,note_off,95,0,0,,1,,,49,127
55104,note_on,1,0,0,,10,,,45,127
55199,note_off,95,0,0,,10,,,45,127
55200,note_on,1,0,0,,4,,,40,127
55295,note_off,95,0,0,,4,,,40,127
55296,note_on,1,0,0,,10,,,33,127
55584,note_on,288,0,0,,10,,,81,127
55636,note_off,52,0,0,,10,,,33,127
55679,note_off,43,0,0,,10,,,81,127
55680,note_on,1,0,0,,10,,,69,127
55680,note_on,0,0,0,,1,,,73,127
55680,note_on,0,0,0,,4,,,40,127
56063,note_off,383,0,0,,4,,,40,127
56063,note_off,0,0,0,,1,,,73,127
56063,note_off,0,0,0,,10,,,69,127
56064,note_on,1,0,0,,8,,,68,127
56064,note_on,0,0,0,,12,,,71,127
56064,note_on,0,0,0,,4,,,40,127
56447,note_off,383,0,0,,4,,,40,127
56447,note_off,0,0,0,,12,,,71,127
56447,note_off,0,0,0,,8,,,68,127
56448,note_on,1,0,0,,12,,,71,127
56448,note_on,0,0,0,,10,,,33,127
56495,note_off,47,0,0,,12,,,71,127
56496,note_on,1,0,0,,10,,,69,127
56543,note_off,47,0,0,,10,,,69,127
56544,note_on,1,0,0,,12,,,71,127
56591,note_off,47,0,0,,12,,,71,127
56592,note_on,1,0,0,,10,,,69,127
57359,note_off,767,0,0,,10,,,69,127
57599,note_off,240,0,0,,10,,,33,127
57600,note_on,1,0,0,,10,,,69,127
57600,note_on,0,0,0,,10,,,33,127
57791,note_off,191,0,0,,10,,,33,127
57791,note_off,0,0,0,,10,,,69,127
57792,note_on,1,0,0,,10,,,69,127
57792,note_on,0,0,0,,7,,,67,127
57983,note_off,191,0,0,,7,,,67,127
57983,note_off,0,0,0,,10,,,69,127
57984,note_on,1,0,0,,10,,,69,127
57984,note_on,0,0,0,,5,,,65,127
58175,note_off,191,0,0,,5,,,65,127
58175,note_off,0,0,0,,10,,,69,127
58176,note_on,1,0,0,,10,,,69,127
58176,note_on,0,0,0,,4,,,64,127
58367,note_off,191,0,0,,4,,,64,127
58367,note_off,0,0,0,,10,,,69,127
58368,note_on,1,0,0,,10,,,69,127
58368,note_on,0,0,0,,2,,,62,127
58559,note_off,191,0,0,,2,,,62,127
58559,note_off,0,0,0,,10,,,69,127
58560,note_on,1,0,0,,10,,,69,127
58560,note_on,0,0,0,,0,,,60,127
58751,note_off,191,0,0,,0,,,60,127
58751,note_off,0,0,0,,10,,,69,127
58752,note_on,1,0,0,,2,,,74,127
58752,note_on,0,0,0,,11,,,58,127
58943,note_off,191,0,0,,11,,,58,127
58943,note_off,0,0,0,,2,,,74,127
58944,note_on,1,0,0,,2,,,74,127
58944,note_on,0,0,0,,10,,,57,127
59135,note_off,191,0,0,,10,,,57,127
59135,note_off,0,0,0,,2,,,74,127
59136,note_on,1,0,0,,2,,,74,127
59136,note_on,0,0,0,,7,,,55,127
59327,note_off,191,0,0,,7,,,55,127
59327,note_off,0,0,0,,2,,,74,127
59328,note_on,1,0,0,,2,,,74,127
59328,note_on,0,0,0,,5,,,53,127
59519,note_off,191,0,0,,5,,,53,127
59519,note_off,0,0,0,,2,,,74,127
59520,note_on,1,0,0,,2,,,74,127
59520,note_on,0,0,0,,4,,,52,127
59711,note_off,191,0,0,,4,,,52,127
59711,note_off,0,0,0,,2,,,74,127
59712,note_on,1,0,0,,2,,,74,127
59712,note_on,0,0,0,,2,,,50,127
59903,note_off,191,0,0,,2,,,50,127
59903,note_off,0,0,0,,2,,,74,127
59904,note_on,1,0,0,,4,,,76,127
59904,note_on,0,0,0,,0,,,48,127
60095,note_off,191,0,0,,0,,,48,127
60095,note_off,0,0,0,,4,,,76,127
60096,note_on,1,0,0,,2,,,74,127
60096,note_on,0,0,0,,4,,,76,127
60096,note_on,0,0,0,,11,,,46,127
60287,note_off,191,0,0,,11,,,46,127
60287,note_off,0,0,0,,4,,,76,127
60287,note_off,0,0,0,,2,,,74,127
60288,note_on,1,0,0,,4,,,76,127
60288,note_on,0,0,0,,1,,,73,127
60288,note_on,0,0,0,,10,,,45,127
60479,note_off,191,0,0,,10,,,45,127
60479,note_off,0,0,0,,1,,,73,127
60479,note_off,0,0,0,,4,,,76,127
60480,note_on,1,0,0,,1,,,73,127
60480,note_on,0,0,0,,4,,,76,127
60480,note_on,0,0,0,,7,,,43,127
60671,note_off,191,0,0,,7,,,43,127
60671,note_off,0,0,0,,4,,,76,127
60671,note_off,0,0,0,,1,,,73,127
60672,note_on,1,0,0,,4,,,76,127
60672,note_on,0,0,0,,1,,,73,127
60672,note_on,0,0,0,,5,,,41,127
60863,note_off,191,0,0,,5,,,41,127
60863,note_off,0,0,0,,1,,,73,127
60863,note_off,0,0,0,,4,,,76,127
60864,note_on,1,0,0,,1,,,73,127
60864,note_on,0,0,0,,4,,,76,127
60864,note_on,0,0,0,,4,,,40,127
61055,note_off,191,0,0,,4,,,40,127
61055,note_off,0,0,0,,4,,,76,127
61055,note_off,0,0,0,,1,,,73,127
61056,note_on,1,0,0,,5,,,77,127
61056,note_on,0,0,0,,2,,,74,127
61056,note_on,0,0,0,,2,,,38,127
61151,note_off,95,0,0,,2,,,74,127
61151,note_off,0,0,0,,5,,,77,127
61152,note_on,1,0,0,,10,,,81,127
61247,note_off,95,0,0,,10,,,81,127
61248,note_on,1,0,0,,5,,,77,127
61343,note_off,95,0,0,,5,,,77,127
61344,note_on,1,0,0,,2,,,74,127
61439,note_off,95,0,0,,2,,,74,127
61440,note_on,1,0,0,,10,,,69,127
61535,note_off,95,0,0,,10,,,69,127
61536,note_on,1,0,0,,5,,,65,127
61631,note_off,95,0,0,,5,,,65,127
61632,note_on,1,0,0,,2,,,62,127
61727,note_off,95,0,0,,2,,,62,127
61728,note_on,1,0,0,,10,,,57,127
61823,note_off,95,0,0,,10,,,57,127
61823,note_off,0,0,0,,2,,,38,127
61824,note_on,1,0,0,,5,,,53,127
61919,note_off,95,0,0,,5,,,53,127
61920,note_on,1,0,0,,2,,,50,127
62015,note_off,95,0,0,,2,,,50,127
62016,note_on,1,0,0,,10,,,45,127
62111,note_off,95,0,0,,10,,,45,127
62112,note_on,1,0,0,,5,,,41,127
62207,note_off,95,0,0,,5,,,41,127
62208,note_on,1,0,0,,2,,,38,127
62591,note_off,383,0,0,,2,,,38,127
62592,note_on,1,0,0,,10,,,69,127
62592,note_on,0,0,0,,5,,,65,127
62687,note_off,95,0,0,,5,,,65,127
62687,note_off,0,0,0,,10,,,69,127
62688,note_on,1,0,0,,7,,,67,127
62688,note_on,0,0,0,,4,,,64,127
62783,note_off,95,0,0,,4,,,64,127
62783,note_off,0,0,0,,7,,,67,127
62784,note_on,1,0,0,,10,,,69,127
62784,note_on,0,0,0,,5,,,65,127
62879,note_off,95,0,0,,5,,,65,127
62879,note_off,0,0,0,,10,,,69,127
62880,note_on,1,0,0,,2,,,74,127
62880,note_on,0,0,0,,2,,,62,127
62975,note_off,95,0,0,,2,,,62,127
62975,note_off,0,0,0,,2,,,74,127
62976,note_on,1,0,0,,11,,,70,127
62976,note_on,0,0,0,,7,,,67,127
63071,note_off,95,0,0,,7,,,67,127
63071,note_off,0,0,0,,11,,,70,127
63072,note_on,1,0,0,,10,,,69,127
63072,note_on,0,0,0,,5,,,65,127
63167,note_off,95,0,0,,5,,,65,127
63167,note_off,0,0,0,,10,,,69,127
63168,note_on,1,0,0,,11,,,70,127
63168,note_on,0,0,0,,7,,,67,127
63263,note_off,95,0,0,,7,,,67,127
63263,note_off,0,0,0,,11,,,70,127
63264,note_on,1,0,0,,7,,,79,127
63264,note_on,0,0,0,,4,,,64,127
63359,note_off,95,0,0,,4,,,64,127
63359,note_off,0,0,0,,7,,,79,127
63360,note_on,1,0,0,,0,,,36,127
63743,note_off,383,0,0,,0,,,36,127
63744,note_on,1,0,0,,7,,,67,127
63744,note_on,0,0,0,,4,,,64,127
63839,note_off,95,0,0,,4,,,64,127
63839,note_off,0,0,0,,7,,,67,127
63840,note_on,1,0,0,,5,,,65,127
63840,note_on,0,0,0,,2,,,62,127
63935,note_off,95,0,0,,2,,,62,127
63935,note_off,0,0,0,,5,,,65,127
63936,note_on,1,0,0,,7,,,67,127
63936,note_on,0,0,0,,4,,,64,127
64031,note_off,95,0,0,,4,,,64,127
64031,note_off,0,0,0,,7,,,67,127
64032,note_on,1,0,0,,4,,,76,127
64032,note_on,0,0,0,,0,,,60,127
64127,note_off,95,0,0,,0,,,60,127
64127,note_off,0,0,0,,4,,,76,127
64128,note_on,1,0,0,,10,,,69,127
64128,note_on,0,0,0,,5,,,65,127
64223,note_off,95,0,0,,5,,,65,127
64223,note_off,0,0,0,,10,,,69,127
64224,note_on,1,0,0,,7,,,67,127
64224,note_on,0,0,0,,4,,,64,127
64319,note_off,95,0,0,,4,,,64,127
64319,note_off,0,0,0,,7,,,67,127
64320,note_on,1,0,0,,10,,,69,127
64320,note_on,0,0,0,,5,,,65,127
64415,note_off,95,0,0,,5,,,65,127
64415,note_off,0,0,0,,10,,,69,127
64416,note_on,1,0,0,,5,,,77,127
64416,note_on,0,0,0,,2,,,62,127
64511,note_off,95,0,0,,2,,,62,127
64511,note_off,0,0,0,,5,,,77,127
64512,note_on,1,0,0,,11,,,34,127
64895,note_off,383,0,0,,11,,,34,127
64896,note_on,1,0,0,,5,,,65,127
64896,note_on,0,0,0,,2,,,62,127
64991,note_off,95,0,0,,2,,,62,127
64991,note_off,0,0,0,,5,,,65,127
64992,note_on,1,0,0,,4,,,64,127
64992,note_on,0,0,0,,0,,,60,127
65087,note_off,95,0,0,,0,,,60,127
65087,note_off,0,0,0,,4,,,64,127
65088,note_on,1,0,0,,5,,,65,127
65088,note_on,0,0,0,,2,,,62,127
65183,note_off,95,0,0,,2,,,62,127
65183,note_off,0,0,0,,5,,,65,127
65184,note_on,1,0,0,,2,,,74,127
65184,note_on,0,0,0,,11,,,58,127
65279,note_off,95,0,0,,11,,,58,127
65279,note_off,0,0,0,,2,,,74,127
65280,note_on,1,0,0,,7,,,67,127
65280,note_on,0,0,0,,4,,,64,127
65375,note_off,95,0,0,,4,,,64,127
65375,note_off,0,0,0,,7,,,67,127
65376,note_on,1,0,0,,5,,,65,127
65376,note_on,0,0,0,,2,,,62,127
65471,note_off,95,0,0,,2,,,62,127
65471,note_off,0,0,0,,5,,,65,127
65472,note_on,1,0,0,,7,,,67,127
65472,note_on,0,0,0,,4,,,64,127
65567,note_off,95,0,0,,4,,,64,127
65567,note_off,0,0,0,,7,,,67,127
65568,note_on,1,0,0,,4,,,76,127
65568,note_on,0,0,0,,1,,,61,127
65663,note_off,95,0,0,,1,,,61,127
65664,note_on,1,0,0,,10,,,33,127
65855,note_off,191,0,0,,4,,,76,127
65856,note_on,1,0,0,,2,,,74,127
66047,note_off,191,0,0,,2,,,74,127
66048,note_on,1,0,0,,1,,,73,127
66239,note_off,191,0,0,,1,,,73,127
66239,note_off,0,0,0,,10,,,33,127
66240,note_on,1,0,0,,11,,,70,127
66431,note_off,191,0,0,,11,,,70,127
66432,note_on,1,0,0,,10,,,69,127
66623,note_off,191,0,0,,10,,,69,127
66624,note_on,1,0,0,,1,,,73,127
66624,note_on,0,0,0,,7,,,67,127
66815,note_off,191,0,0,,7,,,67,127
66815,note_off,0,0,0,,1,,,73,127
66816,note_on,1,0,0,,2,,,74,127
66816,note_on,0,0,0,,5,,,65,127
67007,note_off,191,0,0,,5,,,65,127
67007,note_off,0,0,0,,2,,,74,127
67008,note_on,1,0,0,,4,,,76,127
67008,note_on,0,0,0,,4,,,64,127
67199,note_off,191,0,0,,4,,,64,127
67199,note_off,0,0,0,,4,,,76,127
67200,note_on,1,0,0,,5,,,77,127
67200,note_on,0,0,0,,2,,,62,127
67391,note_off,191,0,0,,2,,,62,127
67391,note_off,0,0,0,,5,,,77,127
67392,note_on,1,0,0,,6,,,78,127
67392,note_on,0,0,0,,0,,,60,127
67583,note_off,191,0,0,,0,,,60,127
67583,note_off,0,0,0,,6,,,78,127
67584,note_on,1,0,0,,7,,,79,127
67584,note_on,0,0,0,,11,,,58,127
67647,note_off,63,0,0,,7,,,79,127
67648,note_on,1,0,0,,6,,,78,127
67711,note_off,63,0,0,,6,,,78,127
67712,note_on,1,0,0,,7,,,79,127
67775,note_off,63,0,0,,7,,,79,127
67775,note_off,0,0,0,,11,,,58,127
67776,note_on,1,0,0,,6,,,78,127
67776,note_on,0,0,0,,10,,,57,127
67839,note_off,63,0,0,,6,,,78,127
67840,note_on,1,0,0,,4,,,76,127
67903,note_off,63,0,0,,4,,,76,127
67904,note_on,1,0,0,,6,,,78,127
67967,note_off,63,0,0,,6,,,78,127
67967,note_off,0,0,0,,10,,,57,127
67968,note_on,1,0,0,,7,,,79,127
67968,note_on,0,0,0,,7,,,55,127
68158,note_off,190,0,0,,7,,,79,127
68159,note_off,1,0,0,,7,,,55,127
68160,note_on,1,0,0,,7,,,79,127
68160,note_on,0,0,0,,5,,,53,127
68350,note_off,190,0,0,,7,,,79,127
68351,note_off,1,0,0,,5,,,53,127
68352,note_on,1,0,0,,7,,,79,127
68352,note_on,0,0,0,,4,,,52,127
68543,note_off,191,0,0,,4,,,52,127
68544,note_on,1,0,0,,2,,,50,127
68735,note_off,191,0,0,,2,,,50,127
68735,note_off,0,0,0,,7,,,79,127
68736,note_on,1,0,0,,10,,,81,127
68736,note_on,0,0,0,,1,,,49,127
68799,note_off,63,0,0,,10,,,81,127
68800,note_on,1,0,0,,8,,,80,127
68863,note_off,63,0,0,,8,,,80,127
68864,note_on,1,0,0,,10,,,81,127
68927,note_off,63,0,0,,10,,,81,127
68927,note_off,0,0,0,,1,,,49,127
68928,note_on,1,0,0,,8,,,80,127
68928,note_on,0,0,0,,12,,,47,127
68991,note_off,63,0,0,,8,,,80,127
68992,note_on,1,0,0,,6,,,78,127
69055,note_off,63,0,0,,6,,,78,127
69056,note_on,1,0,0,,8,,,80,127
69119,note_off,63,0,0,,8,,,80,127
69119,note_off,0,0,0,,12,,,47,127
69120,note_on,1,0,0,,10,,,81,127
69120,note_on,0,0,0,,10,,,45,127
69215,note_off,95,0,0,,10,,,81,127
69216,note_on,1,0,0,,4,,,76,127
69311,note_off,95,0,0,,4,,,76,127
69312,note_on,1,0,0,,1,,,73,127
69407,note_off,95,0,0,,1,,,73,127
69408,note_on,1,0,0,,10,,,69,127
69503,note_off,95,0,0,,10,,,69,127
69504,note_on,1,0,0,,4,,,64,127
69599,note_off,95,0,0,,4,,,64,127
69600,note_on,1,0,0,,1,,,61,127
69695,note_off,95,0,0,,1,,,61,127
69695,note_off,0,0,0,,10,,,45,127
69696,note_on,1,0,0,,10,,,57,127
69791,note_off,95,0,0,,10,,,57,127
69792,note_on,1,0,0,,4,,,52,127
69887,note_off,95,0,0,,4,,,52,127
69888,note_on,1,0,0,,1,,,49,127
69983,note_off,95,0,0,,1,,,49,127
69984,note_on,1,0,0,,10,,,45,127
70079,note_off,95,0,0,,10,,,45,127
70080,note_on,1,0,0,,4,,,40,127
70175,note_off,95,0,0,,4,,,40,127
70176,note_on,1,0,0,,1,,,37,127
70271,note_off,95,0,0,,1,,,37,127
70272,note_on,1,0,0,,1,,,61,127
70272,note_on,0,0,0,,10,,,33,127
70368,note_on,96,0,0,,10,,,57,127
70392,note_off,24,0,0,,1,,,61,127
70464,note_on,72,0,0,,4,,,64,127
70488,note_off,24,0,0,,10,,,57,127
70560,note_on,72,0,0,,1,,,61,127
70584,note_off,24,0,0,,4,,,64,127
70655,note_off,71,0,0,,10,,,33,127
70656,note_on,1,0,0,,7,,,67,127
70656,note_on,0,0,0,,10,,,33,127
70680,note_off,24,0,0,,1,,,61,127
70752,note_on,72,0,0,,4,,,64,127
70776,note_off,24,0,0,,7,,,67,127
70848,note_on,72,0,0,,1,,,73,127
70872,note_off,24,0,0,,4,,,64,127
70944,note_on,72,0,0,,7,,,67,127
70968,note_off,24,0,0,,1,,,73,127
71039,note_off,71,0,0,,10,,,33,127
71040,note_on,1,0,0,,4,,,76,127
71040,note_on,0,0,0,,10,,,33,127
71064,note_off,24,0,0,,7,,,67,127
71136,note_on,72,0,0,,11,,,70,127
71160,note_off,24,0,0,,4,,,76,127
71232,note_on,72,0,0,,10,,,69,127
71256,note_off,24,0,0,,11,,,70,127
71328,note_on,72,0,0,,7,,,67,127
71352,note_off,24,0,0,,10,,,69,127
71423,note_off,71,0,0,,10,,,33,127
71424,note_on,1,0,0,,2,,,62,127
71424,note_on,0,0,0,,10,,,33,127
71448,note_off,24,0,0,,7,,,67,127
71520,note_on,72,0,0,,10,,,57,127
71544,note_off,24,0,0,,2,,,62,127
71616,note_on,72,0,0,,5,,,65,127
71640,note_off,24,0,0,,10,,,57,127
71712,note_on,72,0,0,,2,,,62,127
71736,note_off,24,0,0,,5,,,65,127
71807,note_off,71,0,0,,10,,,33,127
71808,note_on,1,0,0,,10,,,69,127
71808,note_on,0,0,0,,10,,,33,127
71832,note_off,24,0,0,,2,,,62,127
71904,note_on,72,0,0,,5,,,65,127
71928,note_off,24,0,0,,10,,,69,127
72000,note_on,72,0,0,,2,,,74,127
72024,note_off,24,0,0,,5,,,65,127
72096,note_on,72,0,0,,10,,,69,127
72120,note_off,24,0,0,,2,,,74,127
72191,note_off,71,0,0,,10,,,33,127
72192,note_on,1,0,0,,5,,,77,127
72192,note_on,0,0,0,,10,,,33,127
72216,note_off,24,0,0,,10,,,69,127
72288,note_on,72,0,0,,10,,,69,127
72312,note_off,24,0,0,,5,,,77,127
72384,note_on,72,0,0,,7,,,67,127
72408,note_off,24,0,0,,10,,,69,127
72480,note_on,72,0,0,,5,,,65,127
72504,note_off,24,0,0,,7,,,67,127
72575,note_off,71,0,0,,10,,,33,127
72576,note_on,1,0,0,,1,,,61,127
72576,note_on,0,0,0,,10,,,33,127
72600,note_off,24,0,0,,5,,,65,127
72672,note_on,72,0,0,,10,,,57,127
72696,note_off,24,0,0,,1,,,61,127
72768,note_on,72,0,0,,4,,,64,127
72792,note_off,24,0,0,,10,,,57,127
72864,note_on,72,0,0,,1,,,61,127
72888,note_off,24,0,0,,4,,,64,127
72959,note_off,71,0,0,,10,,,33,127
72960,note_on,1,0,0,,7,,,67,127
72960,note_on,0,0,0,,10,,,33,127
72984,note_off,24,0,0,,1,,,61,127
73056,note_on,72,0,0,,4,,,64,127
73080,note_off,24,0,0,,7,,,67,127
73152,note_on,72,0,0,,1,,,73,127
73176,note_off,24,0,0,,4,,,64,127
73248,note_on,72,0,0,,7,,,67,127
73272,note_off,24,0,0,,1,,,73,127
73343,note_off,71,0,0,,10,,,33,127
73344,note_on,1,0,0,,4,,,76,127
73344,note_on,0,0,0,,10,,,33,127
73368,note_off,24,0,0,,7,,,67,127
73440,note_on,72,0,0,,11,,,70,127
73464,note_off,24,0,0,,4,,,76,127
73534,note_off,70,0,0,,11,,,70,127
73536,note_on,2,0,0,,11,,,70,127
73584,note_off,48,0,0,,11,,,70,127
73584,note_on,0,0,0,,10,,,69,127
73632,note_off,48,0,0,,10,,,69,127
73632,note_on,0,0,0,,7,,,67,127
73727,note_off,95,0,0,,10,,,33,127
73728,note_on,1,0,0,,2,,,62,127
73728,note_on,0,0,0,,10,,,33,127
73752,note_off,24,0,0,,7,,,67,127
73824,note_on,72,0,0,,10,,,57,127
73848,note_off,24,0,0,,2,,,62,127
73920,note_on,72,0,0,,5,,,65,127
73944,note_off,24,0,0,,10,,,57,127
74016,note_on,72,0,0,,2,,,62,127
74040,note_off,24,0,0,,5,,,65,127
74111,note_off,71,0,0,,10,,,33,127
74112,note_on,1,0,0,,10,,,69,127
74112,note_on,0,0,0,,10,,,33,127
74136,note_off,24,0,0,,2,,,62,127
74208,note_on,72,0,0,,5,,,65,127
74232,note_off,24,0,0,,10,,,69,127
74304,note_on,72,0,0,,2,,,74,127
74328,note_off,24,0,0,,5,,,65,127
74400,note_on,72,0,0,,10,,,69,127
74424,note_off,24,0,0,,2,,,74,127
74495,note_off,71,0,0,,10,,,33,127
74496,note_on,1,0,0,,5,,,77,127
74496,note_on,0,0,0,,10,,,33,127
74520,note_off,24,0,0,,10,,,69,127
74592,note_on,72,0,0,,10,,,69,127
74616,note_off,24,0,0,,5,,,77,127
74686,note_off,70,0,0,,10,,,69,127
74688,note_on,2,0,0,,10,,,69,127
74736,note_off,48,0,0,,10,,,69,127
74736,note_on,0,0,0,,7,,,67,127
74784,note_off,48,0,0,,7,,,67,127
74784,note_on,0,0,0,,5,,,65,127
74879,note_off,95,0,0,,5,,,65,127
74879,note_off,0,0,0,,10,,,33,127
74880,note_on,1,0,0,,4,,,64,127
74880,note_on,0,0,0,,1,,,49,127
74976,note_on,96,0,0,,10,,,45,127
74990,note_off,14,0,0,,1,,,49,127
75072,note_on,82,0,0,,4,,,52,127
75086,note_off,14,0,0,,10,,,45,127
75168,note_on,82,0,0,,1,,,49,127
75182,note_off,14,0,0,,4,,,52,127
75263,note_off,81,0,0,,4,,,64,127
75264,note_on,1,0,0,,10,,,81,127
75264,note_on,0,0,0,,7,,,55,127
75278,note_off,14,0,0,,1,,,49,127
75360,note_on,82,0,0,,4,,,52,127
75374,note_off,14,0,0,,7,,,55,127
75456,note_on,82,0,0,,1,,,61,127
75470,note_off,14,0,0,,4,,,52,127
75552,note_on,82,0,0,,10,,,57,127
75566,note_off,14,0,0,,1,,,61,127
75647,note_off,81,0,0,,10,,,81,127
75648,note_on,1,0,0,,10,,,81,127
75648,note_on,0,0,0,,7,,,67,127
75662,note_off,14,0,0,,10,,,57,127
75744,note_on,82,0,0,,4,,,64,127
75758,note_off,14,0,0,,7,,,67,127
75840,note_on,82,0,0,,2,,,62,127
75854,note_off,14,0,0,,4,,,64,127
75936,note_on,82,0,0,,1,,,61,127
75950,note_off,14,0,0,,2,,,62,127
76031,note_off,81,0,0,,10,,,81,127
76032,note_on,1,0,0,,10,,,81,127
76032,note_on,0,0,0,,2,,,50,127
76046,note_off,14,0,0,,1,,,61,127
76128,note_on,82,0,0,,10,,,45,127
76142,note_off,14,0,0,,2,,,50,127
76224,note_on,82,0,0,,5,,,53,127
76238,note_off,14,0,0,,10,,,45,127
76320,note_on,82,0,0,,2,,,50,127
76334,note_off,14,0,0,,5,,,53,127
76415,note_off,81,0,0,,10,,,81,127
76416,note_on,1,0,0,,10,,,81,127
76416,note_on,0,0,0,,10,,,57,127
76430,note_off,14,0,0,,2,,,50,127
76512,note_on,82,0,0,,5,,,53,127
76526,note_off,14,0,0,,10,,,57,127
76608,note_on,82,0,0,,2,,,62,127
76622,note_off,14,0,0,,5,,,53,127
76704,note_on,82,0,0,,10,,,57,127
76718,note_off,14,0,0,,2,,,62,127
76799,note_off,81,0,0,,10,,,81,127
76800,note_on,1,0,0,,10,,,81,127
76800,note_on,0,0,0,,10,,,69,127
76814,note_off,14,0,0,,10,,,57,127
76896,note_on,82,0,0,,5,,,65,127
76910,note_off,14,0,0,,10,,,69,127
76992,note_on,82,0,0,,4,,,64,127
77006,note_off,14,0,0,,5,,,65,127
77088,note_on,82,0,0,,2,,,62,127
77102,note_off,14,0,0,,4,,,64,127
77183,note_off,81,0,0,,10,,,81,127
77184,note_on,1,0,0,,10,,,81,127
77184,note_on,0,0,0,,1,,,49,127
77198,note_off,14,0,0,,2,,,62,127
77280,note_on,82,0,0,,10,,,45,127
77294,note_off,14,0,0,,1,,,49,127
77376,note_on,82,0,0,,4,,,52,127
77390,note_off,14,0,0,,10,,,45,127
77472,note_on,82,0,0,,1,,,49,127
77486,note_off,14,0,0,,4,,,52,127
77567,note_off,81,0,0,,10,,,81,127
77568,note_on,1,0,0,,10,,,81,127
77568,note_on,0,0,0,,7,,,55,127
77582,note_off,14,0,0,,1,,,49,127
77664,note_on,82,0,0,,4,,,52,127
77678,note_off,14,0,0,,7,,,55,127
77760,note_on,82,0,0,,1,,,61,127
77774,note_off,14,0,0,,4,,,52,127
77856,note_on,82,0,0,,7,,,55,127
77870,note_off,14,0,0,,1,,,61,127
77951,note_off,81,0,0,,10,,,81,127
77952,note_on,1,0,0,,10,,,81,127
77952,note_on,0,0,0,,7,,,67,127
77966,note_off,14,0,0,,7,,,55,127
78048,note_on,82,0,0,,4,,,64,127
78062,note_off,14,0,0,,7,,,67,127
78144,note_on,82,0,0,,2,,,62,127
78158,note_off,14,0,0,,4,,,64,127
78240,note_on,82,0,0,,1,,,61,127
78254,note_off,14,0,0,,2,,,62,127
78335,note_off,81,0,0,,10,,,81,127
78336,note_on,1,0,0,,10,,,81,127
78336,note_on,0,0,0,,2,,,50,127
78350,note_off,14,0,0,,1,,,61,127
78432,note_on,82,0,0,,10,,,45,127
78446,note_off,14,0,0,,2,,,50,127
78528,note_on,82,0,0,,5,,,53,127
78542,note_off,14,0,0,,10,,,45,127
78624,note_on,82,0,0,,2,,,50,127
78638,note_off,14,0,0,,5,,,53,127
78719,note_off,81,0,0,,10,,,81,127
78720,note_on,1,0,0,,10,,,81,127
78720,note_on,0,0,0,,10,,,57,127
78734,note_off,14,0,0,,2,,,50,127
78816,note_on,82,0,0,,5,,,53,127
78830,note_off,14,0,0,,10,,,57,127
78912,note_on,82,0,0,,2,,,62,127
78926,note_off,14,0,0,,5,,,53,127
79008,note_on,82,0,0,,10,,,57,127
79022,note_off,14,0,0,,2,,,62,127
79103,note_off,81,0,0,,10,,,81,127
79104,note_on,1,0,0,,10,,,81,127
79104,note_on,0,0,0,,10,,,69,127
79118,note_off,14,0,0,,10,,,57,127
79200,note_on,82,0,0,,5,,,65,127
79214,note_off,14,0,0,,10,,,69,127
79296,note_on,82,0,0,,4,,,64,127
79310,note_off,14,0,0,,5,,,65,127
79392,note_on,82,0,0,,2,,,62,127
79406,note_off,14,0,0,,4,,,64,127
79487,note_off,81,0,0,,2,,,62,127
79488,note_on,1,0,0,,10,,,45,127
79583,note_off,95,0,0,,10,,,81,127
79584,note_on,1,0,0,,10,,,81,127
79679,note_off,95,0,0,,10,,,81,127
79680,note_on,1,0,0,,7,,,79,127
79775,note_off,95,0,0,,7,,,79,127
79776,note_on,1,0,0,,5,,,77,127
79871,note_off,95,0,0,,5,,,77,127
79872,note_on,1,0,0,,4,,,76,127
79967,note_off,95,0,0,,4,,,76,127
79968,note_on,1,0,0,,2,,,74,127
80063,note_off,95,0,0,,2,,,74,127
80064,note_on,1,0,0,,1,,,73,127
80159,note_off,95,0,0,,1,,,73,127
80160,note_on,1,0,0,,12,,,71,127
80255,note_off,95,0,0,,12,,,71,127
80255,note_off,0,0,0,,10,,,45,127
80256,note_on,1,0,0,,10,,,69,127
80351,note_off,95,0,0,,10,,,69,127
80352,note_on,1,0,0,,10,,,69,127
80448,note_on,96,0,0,,7,,,67,127
80543,note_off,95,0,0,,7,,,67,127
80544,note_on,1,0,0,,5,,,65,127
80639,note_off,95,0,0,,5,,,65,127
80640,note_on,1,0,0,,4,,,64,127
80735,note_off,95,0,0,,4,,,64,127
80736,note_on,1,0,0,,2,,,62,127
80831,note_off,95,0,0,,2,,,62,127
80832,note_on,1,0,0,,1,,,61,127
80927,note_off,95,0,0,,1,,,61,127
80928,note_on,1,0,0,,12,,,59,127
81023,note_off,95,0,0,,12,,,59,127
81023,note_off,0,0,0,,10,,,69,127
81024,note_on,1,0,0,,10,,,57,127
81119,note_off,95,0,0,,10,,,57,127
81120,note_on,1,0,0,,10,,,57,127
81216,note_on,96,0,0,,7,,,55,127
81311,note_off,95,0,0,,7,,,55,127
81312,note_on,1,0,0,,5,,,53,127
81407,note_off,95,0,0,,5,,,53,127
81408,note_on,1,0,0,,4,,,52,127
81503,note_off,95,0,0,,4,,,52,127
81504,note_on,1,0,0,,2,,,50,127
81599,note_off,95,0,0,,2,,,50,127
81600,note_on,1,0,0,,1,,,49,127
81695,note_off,95,0,0,,1,,,49,127
81696,note_on,1,0,0,,12,,,47,127
81791,note_off,95,0,0,,12,,,47,127
81791,note_off,0,0,0,,10,,,57,127
81792,note_on,1,0,0,,10,,,45,127
82752,note_off,960,0,0,,10,,,45,127
82944,note_on,192,0,0,,2,,,74,127
82944,note_on,0,0,0,,6,,,78,127
82944,note_on,0,0,0,,0,,,72,127
82944,note_on,0,0,0,,10,,,69,127
82944,note_on,0,0,0,,2,,,62,127
83039,note_off,95,0,0,,0,,,72,127
83039,note_off,0,0,0,,2,,,74,127
83040,note_on,1,0,0,,11,,,70,127
83135,note_off,95,0,0,,11,,,70,127
83136,note_on,1,0,0,,0,,,72,127
83326,note_off,190,0,0,,0,,,72,127
83327,note_off,1,0,0,,2,,,62,127
83327,note_off,0,0,0,,10,,,69,127
83327,note_off,0,0,0,,6,,,78,127
83328,note_on,1,0,0,,2,,,74,127
83328,note_on,0,0,0,,6,,,78,127
83328,note_on,0,0,0,,0,,,72,127
83328,note_on,0,0,0,,10,,,69,127
83328,note_on,0,0,0,,2,,,62,127
83423,note_off,95,0,0,,0,,,72,127
83423,note_off,0,0,0,,2,,,74,127
83424,note_on,1,0,0,,11,,,70,127
83519,note_off,95,0,0,,11,,,70,127
83520,note_on,1,0,0,,0,,,72,127
83710,note_off,190,0,0,,0,,,72,127
83711,note_off,1,0,0,,2,,,62,127
83711,note_off,0,0,0,,10,,,69,127
83711,note_off,0,0,0,,6,,,78,127
83712,note_on,1,0,0,,2,,,74,127
83712,note_on,0,0,0,,6,,,78,127
83712,note_on,0,0,0,,0,,,72,127
83712,note_on,0,0,0,,10,,,69,127
83712,note_on,0,0,0,,2,,,62,127
83807,note_off,95,0,0,,0,,,72,127
83807,note_off,0,0,0,,2,,,74,127
83808,note_on,1,0,0,,11,,,70,127
83903,note_off,95,0,0,,11,,,70,127
83904,note_on,1,0,0,,0,,,72,127
84095,note_off,191,0,0,,0,,,72,127
84095,note_off,0,0,0,,2,,,62,127
84095,note_off,0,0,0,,10,,,69,127
84095,note_off,0,0,0,,6,,,78,127
84096,note_on,1,0,0,,2,,,74,127
84096,note_on,0,0,0,,10,,,81,127
84096,note_on,0,0,0,,7,,,79,127
84096,note_on,0,0,0,,2,,,62,127
84096,note_on,0,0,0,,11,,,70,127
84096,note_on,0,0,0,,7,,,67,127
84191,note_off,95,0,0,,7,,,79,127
84191,note_off,0,0,0,,10,,,81,127
84192,note_on,1,0,0,,6,,,78,127
84287,note_off,95,0,0,,6,,,78,127
84288,note_on,1,0,0,,7,,,79,127
84479,note_off,191,0,0,,7,,,79,127
84479,note_off,0,0,0,,7,,,67,127
84479,note_off,0,0,0,,11,,,70,127
84479,note_off,0,0,0,,2,,,62,127
84479,note_off,0,0,0,,2,,,74,127
84480,note_on,1,0,0,,10,,,81,127
84480,note_on,0,0,0,,2,,,74,127
84480,note_on,0,0,0,,7,,,79,127
84480,note_on,0,0,0,,7,,,67,127
84480,note_on,0,0,0,,2,,,62,127
84480,note_on,0,0,0,,11,,,70,127
84575,note_off,95,0,0,,7,,,79,127
84575,note_off,0,0,0,,10,,,81,127
84576,note_on,1,0,0,,6,,,78,127
84671,note_off,95,0,0,,6,,,78,127
84672,note_on,1,0,0,,7,,,79,127
84863,note_off,191,0,0,,7,,,79,127
84863,note_off,0,0,0,,11,,,70,127
84863,note_off,0,0,0,,2,,,62,127
84863,note_off,0,0,0,,7,,,67,127
84863,note_off,0,0,0,,2,,,74,127
84864,note_on,1,0,0,,2,,,74,127
84864,note_on,0,0,0,,10,,,81,127
84864,note_on,0,0,0,,7,,,79,127
84864,note_on,0,0,0,,2,,,62,127
84864,note_on,0,0,0,,11,,,70,127
84864,note_on,0,0,0,,7,,,67,127
84959,note_off,95,0,0,,7,,,79,127
84959,note_off,0,0,0,,10,,,81,127
84960,note_on,1,0,0,,6,,,78,127
85055,note_off,95,0,0,,6,,,78,127
85056,note_on,1,0,0,,7,,,79,127
85247,note_off,191,0,0,,7,,,79,127
85247,note_off,0,0,0,,7,,,67,127
85247,note_off,0,0,0,,11,,,70,127
85247,note_off,0,0,0,,2,,,62,127
85247,note_off,0,0,0,,2,,,74,127
85248,note_on,1,0,0,,4,,,76,127
85248,note_on,0,0,0,,10,,,81,127
85248,note_on,0,0,0,,7,,,79,127
85248,note_on,0,0,0,,7,,,67,127
85248,note_on,0,0,0,,2,,,62,127
85248,note_on,0,0,0,,1,,,73,127
85248,note_on,0,0,0,,10,,,69,127
85343,note_off,95,0,0,,7,,,79,127
85343,note_off,0,0,0,,10,,,81,127
85344,note_on,1,0,0,,6,,,78,127
85439,note_off,95,0,0,,6,,,78,127
85440,note_on,1,0,0,,7,,,79,127
85631,note_off,191,0,0,,7,,,79,127
85631,note_off,0,0,0,,10,,,69,127
85631,note_off,0,0,0,,1,,,73,127
85631,note_off,0,0,0,,2,,,62,127
85631,note_off,0,0,0,,7,,,67,127
85631,note_off,0,0,0,,4,,,76,127
85632,note_on,1,0,0,,4,,,76,127
85632,note_on,0,0,0,,10,,,81,127
85632,note_on,0,0,0,,7,,,79,127
85632,note_on,0,0,0,,7,,,67,127
85632,note_on,0,0,0,,2,,,62,127
85632,note_on,0,0,0,,1,,,73,127
85632,note_on,0,0,0,,10,,,69,127
85727,note_off,95,0,0,,7,,,79,127
85727,note_off,0,0,0,,10,,,81,127
85728,note_on,1,0,0,,6,,,78,127
85823,note_off,95,0,0,,6,,,78,127
85824,note_on,1,0,0,,7,,,79,127
86015,note_off,191,0,0,,7,,,79,127
86015,note_off,0,0,0,,10,,,69,127
86015,note_off,0,0,0,,1,,,73,127
86015,note_off,0,0,0,,2,,,62,127
86015,note_off,0,0,0,,7,,,67,127
86015,note_off,0,0,0,,4,,,76,127
86016,note_on,1,0,0,,4,,,76,127
86016,note_on,0,0,0,,11,,,82,127
86016,note_on,0,0,0,,7,,,67,127
86016,note_on,0,0,0,,2,,,62,127
86016,note_on,0,0,0,,1,,,73,127
86016,note_on,0,0,0,,10,,,69,127
86111,note_off,95,0,0,,11,,,82,127
86112,note_on,1,0,0,,10,,,81,127
86207,note_off,95,0,0,,10,,,81,127
86208,note_on,1,0,0,,7,,,79,127
86399,note_off,191,0,0,,10,,,69,127
86399,note_off,0,0,0,,1,,,73,127
86399,note_off,0,0,0,,2,,,62,127
86399,note_off,0,0,0,,7,,,67,127
86399,note_off,0,0,0,,4,,,76,127
86400,note_on,1,0,0,,2,,,74,127
86400,note_on,0,0,0,,2,,,62,127
86400,note_on,0,0,0,,10,,,69,127
86783,note_off,383,0,0,,2,,,74,127
86880,note_on,97,0,0,,5,,,77,127
86883,note_off,3,0,0,,7,,,79,127
86975,note_off,92,0,0,,5,,,77,127
86976,note_on,1,0,0,,4,,,76,127
87071,note_off,95,0,0,,4,,,76,127
87072,note_on,1,0,0,,2,,,74,127
87167,note_off,95,0,0,,2,,,74,127
87168,note_on,1,0,0,,2,,,74,127
87551,note_off,383,0,0,,2,,,74,127
87551,note_off,0,0,0,,10,,,69,127
87551,note_off,0,0,0,,2,,,62,127
87552,note_on,1,0,0,,0,,,84,127
87552,note_on,0,0,0,,10,,,69,127
87552,note_on,0,0,0,,2,,,62,127
87552,note_on,0,0,0,,0,,,72,127
87647,note_off,95,0,0,,0,,,84,127
87648,note_on,1,0,0,,11,,,82,127
87743,note_off,95,0,0,,11,,,82,127
87744,note_on,1,0,0,,10,,,81,127
87935,note_off,191,0,0,,0,,,72,127
87935,note_off,0,0,0,,2,,,62,127
87935,note_off,0,0,0,,10,,,69,127
87936,note_on,1,0,0,,10,,,69,127
87936,note_on,0,0,0,,2,,,62,127
87936,note_on,0,0,0,,0,,,72,127
88127,note_off,191,0,0,,10,,,81,127
88128,note_on,1,0,0,,7,,,79,127
88319,note_off,191,0,0,,0,,,72,127
88319,note_off,0,0,0,,2,,,62,127
88319,note_off,0,0,0,,10,,,69,127
88320,note_on,1,0,0,,2,,,62,127
88320,note_on,0,0,0,,10,,,69,127
88320,note_on,0,0,0,,0,,,72,127
88511,note_off,191,0,0,,7,,,79,127
88512,note_on,1,0,0,,6,,,78,127
88703,note_off,191,0,0,,6,,,78,127
88703,note_off,0,0,0,,0,,,72,127
88703,note_off,0,0,0,,10,,,69,127
88703,note_off,0,0,0,,2,,,62,127
88704,note_on,1,0,0,,2,,,86,127
88704,note_on,0,0,0,,7,,,67,127
88704,note_on,0,0,0,,2,,,62,127
88704,note_on,0,0,0,,2,,,74,127
88704,note_on,0,0,0,,11,,,70,127
88799,note_off,95,0,0,,2,,,86,127
88800,note_on,1,0,0,,0,,,84,127
88895,note_off,95,0,0,,0,,,84,127
88896,note_on,1,0,0,,11,,,82,127
89087,note_off,191,0,0,,11,,,70,127
89087,note_off,0,0,0,,2,,,74,127
89087,note_off,0,0,0,,2,,,62,127
89087,note_off,0,0,0,,7,,,67,127
89088,note_on,1,0,0,,11,,,70,127
89088,note_on,0,0,0,,7,,,67,127
89088,note_on,0,0,0,,2,,,62,127
89088,note_on,0,0,0,,2,,,74,127
89279,note_off,191,0,0,,11,,,82,127
89280,note_on,1,0,0,,10,,,81,127
89471,note_off,191,0,0,,2,,,74,127
89471,note_off,0,0,0,,2,,,62,127
89471,note_off,0,0,0,,7,,,67,127
89471,note_off,0,0,0,,11,,,70,127
89472,note_on,1,0,0,,11,,,70,127
89472,note_on,0,0,0,,2,,,62,127
89472,note_on,0,0,0,,2,,,74,127
89472,note_on,0,0,0,,7,,,67,127
89663,note_off,191,0,0,,10,,,81,127
89664,note_on,1,0,0,,7,,,79,127
89855,note_off,191,0,0,,7,,,79,127
89855,note_off,0,0,0,,7,,,67,127
89855,note_off,0,0,0,,2,,,74,127
89855,note_off,0,0,0,,2,,,62,127
89855,note_off,0,0,0,,11,,,70,127
89856,note_on,1,0,0,,4,,,88,127
89856,note_on,0,0,0,,10,,,69,127
89856,note_on,0,0,0,,1,,,73,127
89856,note_on,0,0,0,,7,,,67,127
89856,note_on,0,0,0,,2,,,62,127
89951,note_off,95,0,0,,4,,,88,127
89952,note_on,1,0,0,,2,,,86,127
90047,note_off,95,0,0,,2,,,86,127
90048,note_on,1,0,0,,1,,,85,127
90239,note_off,191,0,0,,2,,,62,127
90239,note_off,0,0,0,,7,,,67,127
90239,note_off,0,0,0,,1,,,73,127
90239,note_off,0,0,0,,10,,,69,127
90240,note_on,1,0,0,,7,,,67,127
90240,note_on,0,0,0,,2,,,62,127
90240,note_on,0,0,0,,1,,,73,127
90240,note_on,0,0,0,,10,,,69,127
90431,note_off,191,0,0,,1,,,85,127
90432,note_on,1,0,0,,11,,,82,127
90623,note_off,191,0,0,,10,,,69,127
90623,note_off,0,0,0,,1,,,73,127
90623,note_off,0,0,0,,2,,,62,127
90623,note_off,0,0,0,,7,,,67,127
90624,note_on,1,0,0,,7,,,67,127
90624,note_on,0,0,0,,2,,,62,127
90624,note_on,0,0,0,,10,,,69,127
90624,note_on,0,0,0,,1,,,73,127
90719,note_off,95,0,0,,11,,,82,127
90720,note_on,1,0,0,,7,,,79,127
90815,note_off,95,0,0,,7,,,79,127
90816,note_on,1,0,0,,5,,,77,127
90911,note_off,95,0,0,,5,,,77,127
90912,note_on,1,0,0,,4,,,76,127
91007,note_off,95,0,0,,4,,,76,127
91007,note_off,0,0,0,,1,,,73,127
91007,note_off,0,0,0,,10,,,69,127
91007,note_off,0,0,0,,2,,,62,127
91007,note_off,0,0,0,,7,,,67,127
91008,note_on,1,0,0,,5,,,77,127
91008,note_on,0,0,0,,2,,,62,127
91008,note_on,0,0,0,,10,,,69,127
91008,note_on,0,0,0,,2,,,74,127
91103,note_off,95,0,0,,5,,,77,127
91104,note_on,1,0,0,,10,,,81,127
91199,note_off,95,0,0,,10,,,81,127
91200,note_on,1,0,0,,8,,,80,127
91391,note_off,191,0,0,,2,,,74,127
91391,note_off,0,0,0,,10,,,69,127
91391,note_off,0,0,0,,2,,,62,127
91392,note_on,1,0,0,,2,,,62,127
91392,note_on,0,0,0,,10,,,69,127
91392,note_on,0,0,0,,2,,,74,127
91487,note_off,95,0,0,,8,,,80,127
91488,note_on,1,0,0,,11,,,82,127
91583,note_off,95,0,0,,11,,,82,127
91584,note_on,1,0,0,,10,,,81,127
91775,note_off,191,0,0,,2,,,74,127
91775,note_off,0,0,0,,10,,,69,127
91775,note_off,0,0,0,,2,,,62,127
91776,note_on,1,0,0,,10,,,69,127
91776,note_on,0,0,0,,5,,,65,127
91776,note_on,0,0,0,,2,,,74,127
91871,note_off,95,0,0,,10,,,81,127
91872,note_on,1,0,0,,1,,,85,127
91967,note_off,95,0,0,,1,,,85,127
91968,note_on,1,0,0,,2,,,86,127
92063,note_off,95,0,0,,2,,,86,127
92064,note_on,1,0,0,,10,,,81,127
92159,note_off,95,0,0,,10,,,81,127
92159,note_off,0,0,0,,2,,,74,127
92159,note_off,0,0,0,,5,,,65,127
92159,note_off,0,0,0,,10,,,69,127
92160,note_on,1,0,0,,11,,,82,127
92160,note_on,0,0,0,,2,,,74,127
92160,note_on,0,0,0,,7,,,67,127
92255,note_off,95,0,0,,11,,,82,127
92256,note_on,1,0,0,,7,,,79,127
92351,note_off,95,0,0,,7,,,79,127
92352,note_on,1,0,0,,5,,,77,127
92447,note_off,95,0,0,,5,,,77,127
92448,note_on,1,0,0,,4,,,76,127
92543,note_off,95,0,0,,4,,,76,127
92543,note_off,0,0,0,,7,,,67,127
92543,note_off,0,0,0,,2,,,74,127
92544,note_on,1,0,0,,2,,,74,127
92544,note_on,0,0,0,,5,,,65,127
92544,note_on,0,0,0,,10,,,57,127
92544,note_on,0,0,0,,10,,,69,127
92927,note_off,383,0,0,,10,,,69,127
92927,note_off,0,0,0,,10,,,57,127
92927,note_off,0,0,0,,5,,,65,127
92928,note_on,1,0,0,,4,,,64,127
92928,note_on,0,0,0,,10,,,57,127
92928,note_on,0,0,0,,7,,,67,127
92984,note_off,56,0,0,,2,,,74,127
92992,note_on,8,0,0,,1,,,73,127
93055,note_off,63,0,0,,1,,,73,127
93056,note_on,1,0,0,,2,,,74,127
93119,note_off,63,0,0,,2,,,74,127
93120,note_on,1,0,0,,1,,,73,127
93183,note_off,63,0,0,,1,,,73,127
93184,note_on,1,0,0,,12,,,71,127
93247,note_off,63,0,0,,12,,,71,127
93248,note_on,1,0,0,,1,,,73,127
93311,note_off,63,0,0,,1,,,73,127
93311,note_off,0,0,0,,7,,,67,127
93311,note_off,0,0,0,,10,,,57,127
93311,note_off,0,0,0,,4,,,64,127
93312,note_on,1,0,0,,2,,,74,127
93312,note_on,0,0,0,,2,,,50,127
93503,note_off,191,0,0,,2,,,50,127
93503,note_off,0,0,0,,2,,,74,127
93504,note_on,1,0,0,,2,,,74,127
93504,note_on,0,0,0,,0,,,72,127
93695,note_off,191,0,0,,0,,,72,127
93695,note_off,0,0,0,,2,,,74,127
93696,note_on,1,0,0,,2,,,74,127
93696,note_on,0,0,0,,11,,,70,127
93887,note_off,191,0,0,,11,,,70,127
93887,note_off,0,0,0,,2,,,74,127
93888,note_on,1,0,0,,2,,,74,127
93888,note_on,0,0,0,,10,,,69,127
94079,note_off,191,0,0,,10,,,69,127
94079,note_off,0,0,0,,2,,,74,127
94080,note_on,1,0,0,,2,,,74,127
94080,note_on,0,0,0,,7,,,67,127
94271,note_off,191,0,0,,7,,,67,127
94271,note_off,0,0,0,,2,,,74,127
94272,note_on,1,0,0,,2,,,74,127
94272,note_on,0,0,0,,6,,,66,127
94463,note_off,191,0,0,,6,,,66,127
94463,note_off,0,0,0,,2,,,74,127
94464,note_on,1,0,0,,2,,,74,127
94464,note_on,0,0,0,,4,,,64,127
94655,note_off,191,0,0,,4,,,64,127
94655,note_off,0,0,0,,2,,,74,127
94656,note_on,1,0,0,,3,,,75,127
94656,note_on,0,0,0,,2,,,62,127
94847,note_off,191,0,0,,2,,,62,127
94847,note_off,0,0,0,,3,,,75,127
94848,note_on,1,0,0,,4,,,76,127
94848,note_on,0,0,0,,1,,,61,127
95039,note_off,191,0,0,,1,,,61,127
95039,note_off,0,0,0,,4,,,76,127
95040,note_on,1,0,0,,4,,,76,127
95040,note_on,0,0,0,,12,,,59,127
95231,note_off,191,0,0,,12,,,59,127
95231,note_off,0,0,0,,4,,,76,127
95232,note_on,1,0,0,,4,,,76,127
95232,note_on,0,0,0,,10,,,57,127
95423,note_off,191,0,0,,10,,,57,127
95423,note_off,0,0,0,,4,,,76,127
95424,note_on,1,0,0,,4,,,76,127
95424,note_on,0,0,0,,7,,,55,127
95615,note_off,191,0,0,,7,,,55,127
95615,note_off,0,0,0,,4,,,76,127
95616,note_on,1,0,0,,4,,,76,127
95616,note_on,0,0,0,,6,,,54,127
95807,note_off,191,0,0,,6,,,54,127
95807,note_off,0,0,0,,4,,,76,127
95808,note_on,1,0,0,,5,,,77,127
95808,note_on,0,0,0,,4,,,52,127
95999,note_off,191,0,0,,4,,,52,127
95999,note_off,0,0,0,,5,,,77,127
96000,note_on,1,0,0,,7,,,79,127
96000,note_on,0,0,0,,2,,,50,127
96063,note_off,63,0,0,,7,,,79,127
96064,note_on,1,0,0,,6,,,78,127
96127,note_off,63,0,0,,6,,,78,127
96128,note_on,1,0,0,,4,,,76,127
96191,note_off,63,0,0,,4,,,76,127
96191,note_off,0,0,0,,2,,,50,127
96192,note_on,1,0,0,,6,,,78,127
96192,note_on,0,0,0,,1,,,49,127
96255,note_off,63,0,0,,6,,,78,127
96256,note_on,1,0,0,,7,,,79,127
96319,note_off,63,0,0,,7,,,79,127
96320,note_on,1,0,0,,10,,,81,127
96383,note_off,63,0,0,,10,,,81,127
96383,note_off,0,0,0,,1,,,49,127
96384,note_on,1,0,0,,12,,,83,127
96384,note_on,0,0,0,,12,,,47,127
96447,note_off,63,0,0,,12,,,83,127
96448,note_on,1,0,0,,10,,,81,127
96511,note_off,63,0,0,,10,,,81,127
96512,note_on,1,0,0,,7,,,79,127
96575,note_off,63,0,0,,7,,,79,127
96575,note_off,0,0,0,,12,,,47,127
96576,note_on,1,0,0,,10,,,81,127
96576,note_on,0,0,0,,10,,,45,127
96639,note_off,63,0,0,,10,,,81,127
96640,note_on,1,0,0,,12,,,83,127
96703,note_off,63,0,0,,12,,,83,127
96704,note_on,1,0,0,,1,,,85,127
96767,note_off,63,0,0,,1,,,85,127
96767,note_off,0,0,0,,10,,,45,127
96768,note_on,1,0,0,,2,,,86,127
96768,note_on,0,0,0,,7,,,43,127
96844,note_off,76,0,0,,2,,,86,127
96845,note_on,1,0,0,,1,,,85,127
96921,note_off,76,0,0,,1,,,85,127
96923,note_on,2,0,0,,12,,,83,127
96998,note_on,75,0,0,,1,,,85,127
96999,note_off,1,0,0,,12,,,83,127
97074,note_off,75,0,0,,1,,,85,127
97075,note_on,1,0,0,,2,,,86,127
97151,note_off,76,0,0,,2,,,86,127
97151,note_off,0,0,0,,7,,,43,127
97152,note_on,1,0,0,,2,,,74,127
97152,note_on,0,0,0,,6,,,78,127
97152,note_on,0,0,0,,10,,,45,127
97535,note_off,383,0,0,,10,,,45,127
97535,note_off,0,0,0,,6,,,78,127
97535,note_off,0,0,0,,2,,,74,127
97536,note_on,1,0,0,,1,,,73,127
97536,note_on,0,0,0,,4,,,76,127
97536,note_on,0,0,0,,10,,,33,127
97919,note_off,383,0,0,,10,,,33,127
97919,note_off,0,0,0,,4,,,76,127
97919,note_off,0,0,0,,1,,,73,127
97920,note_on,1,0,0,,2,,,74,127
97920,note_on,0,0,0,,2,,,50,127
98015,note_off,95,0,0,,2,,,74,127
98016,note_on,1,0,0,,1,,,73,127
98111,note_off,95,0,0,,1,,,73,127
98111,note_off,0,0,0,,2,,,50,127
98112,note_on,1,0,0,,2,,,74,127
98112,note_on,0,0,0,,1,,,73,127
98206,note_off,94,0,0,,1,,,73,127
98207,note_off,1,0,0,,2,,,74,127
98208,note_on,1,0,0,,1,,,73,127
98303,note_off,95,0,0,,1,,,73,127
98304,note_on,1,0,0,,2,,,74,127
98304,note_on,0,0,0,,12,,,71,127
98399,note_off,95,0,0,,2,,,74,127
98400,note_on,1,0,0,,1,,,73,127
98495,note_off,95,0,0,,1,,,73,127
98495,note_off,0,0,0,,12,,,71,127
98496,note_on,1,0,0,,2,,,74,127
98496,note_on,0,0,0,,10,,,69,127
98591,note_off,95,0,0,,2,,,74,127
98592,note_on,1,0,0,,1,,,73,127
98687,note_off,95,0,0,,1,,,73,127
98687,note_off,0,0,0,,10,,,69,127
98688,note_on,1,0,0,,2,,,74,127
98688,note_on,0,0,0,,7,,,67,127
98783,note_off,95,0,0,,2,,,74,127
98784,note_on,1,0,0,,1,,,73,127
98879,note_off,95,0,0,,1,,,73,127
98879,note_off,0,0,0,,7,,,67,127
98880,note_on,1,0,0,,2,,,74,127
98880,note_on,0,0,0,,6,,,66,127
98975,note_off,95,0,0,,2,,,74,127
98976,note_on,1,0,0,,1,,,73,127
99071,note_off,95,0,0,,1,,,73,127
99071,note_off,0,0,0,,6,,,66,127
99072,note_on,1,0,0,,2,,,74,127
99072,note_on,0,0,0,,4,,,64,127
99167,note_off,95,0,0,,2,,,74,127
99168,note_on,1,0,0,,3,,,75,127
99263,note_off,95,0,0,,3,,,75,127
99263,note_off,0,0,0,,4,,,64,127
99264,note_on,1,0,0,,4,,,76,127
99264,note_on,0,0,0,,2,,,62,127
99359,note_off,95,0,0,,4,,,76,127
99360,note_on,1,0,0,,3,,,75,127
99455,note_off,95,0,0,,3,,,75,127
99455,note_off,0,0,0,,2,,,62,127
99456,note_on,1,0,0,,4,,,76,127
99456,note_on,0,0,0,,1,,,61,127
99551,note_off,95,0,0,,4,,,76,127
99552,note_on,1,0,0,,3,,,75,127
99647,note_off,95,0,0,,3,,,75,127
99647,note_off,0,0,0,,1,,,61,127
99648,note_on,1,0,0,,4,,,76,127
99648,note_on,0,0,0,,12,,,59,127
99743,note_off,95,0,0,,4,,,76,127
99744,note_on,1,0,0,,3,,,75,127
99839,note_off,95,0,0,,3,,,75,127
99839,note_off,0,0,0,,12,,,59,127
99840,note_on,1,0,0,,4,,,76,127
99840,note_on,0,0,0,,10,,,57,127
99935,note_off,95,0,0,,4,,,76,127
99936,note_on,1,0,0,,3,,,75,127
100031,note_off,95,0,0,,3,,,75,127
100031,note_off,0,0,0,,10,,,57,127
100032,note_on,1,0,0,,4,,,76,127
100032,note_on,0,0,0,,7,,,55,127
100127,note_off,95,0,0,,4,,,76,127
100128,note_on,1,0,0,,3,,,75,127
100223,note_off,95,0,0,,3,,,75,127
100223,note_off,0,0,0,,7,,,55,127
100224,note_on,1,0,0,,4,,,76,127
100224,note_on,0,0,0,,6,,,54,127
100319,note_off,95,0,0,,4,,,76,127
100320,note_on,1,0,0,,5,,,77,127
100415,note_off,95,0,0,,5,,,77,127
100415,note_off,0,0,0,,6,,,54,127
100416,note_on,1,0,0,,6,,,78,127
100416,note_on,0,0,0,,4,,,52,127
100511,note_off,95,0,0,,6,,,78,127
100512,note_on,1,0,0,,5,,,77,127
100607,note_off,95,0,0,,5,,,77,127
100607,note_off,0,0,0,,4,,,52,127
100608,note_on,1,0,0,,6,,,78,127
100608,note_on,0,0,0,,2,,,50,127
100703,note_off,95,0,0,,6,,,78,127
100704,note_on,1,0,0,,5,,,77,127
100799,note_off,95,0,0,,5,,,77,127
100799,note_off,0,0,0,,2,,,50,127
100800,note_on,1,0,0,,6,,,78,127
100800,note_on,0,0,0,,1,,,49,127
100895,note_off,95,0,0,,6,,,78,127
100896,note_on,1,0,0,,5,,,77,127
100991,note_off,95,0,0,,5,,,77,127
100991,note_off,0,0,0,,1,,,49,127
100992,note_on,1,0,0,,7,,,79,127
100992,note_on,0,0,0,,12,,,47,127
101039,note_off,47,0,0,,7,,,79,127
101040,note_on,1,0,0,,6,,,78,127
101087,note_off,47,0,0,,6,,,78,127
101088,note_on,1,0,0,,7,,,79,127
101135,note_off,47,0,0,,7,,,79,127
101136,note_on,1,0,0,,6,,,78,127
101183,note_off,47,0,0,,6,,,78,127
101183,note_off,0,0,0,,12,,,47,127
101184,note_on,1,0,0,,4,,,76,127
101184,note_on,0,0,0,,10,,,45,127
101231,note_off,47,0,0,,4,,,76,127
101232,note_on,1,0,0,,6,,,78,127
101279,note_off,47,0,0,,6,,,78,127
101280,note_on,1,0,0,,7,,,79,127
101327,note_off,47,0,0,,7,,,79,127
101328,note_on,1,0,0,,10,,,81,127
101375,note_off,47,0,0,,10,,,81,127
101375,note_off,0,0,0,,10,,,45,127
101376,note_on,1,0,0,,12,,,83,127
101376,note_on,0,0,0,,7,,,43,127
101430,note_off,54,0,0,,12,,,83,127
101431,note_on,1,0,0,,10,,,81,127
101485,note_off,54,0,0,,10,,,81,127
101486,note_on,1,0,0,,7,,,79,127
101540,note_off,54,0,0,,7,,,79,127
101541,note_on,1,0,0,,10,,,81,127
101594,note_off,53,0,0,,10,,,81,127
101595,note_on,1,0,0,,12,,,83,127
101649,note_off,54,0,0,,12,,,83,127
101650,note_on,1,0,0,,1,,,85,127
101704,note_off,54,0,0,,1,,,85,127
101705,note_on,1,0,0,,2,,,86,127
101759,note_off,54,0,0,,2,,,86,127
101759,note_off,0,0,0,,7,,,43,127
101760,note_on,1,0,0,,6,,,78,127
101760,note_on,0,0,0,,2,,,74,127
101760,note_on,0,0,0,,10,,,45,127
102143,note_off,383,0,0,,10,,,45,127
102143,note_off,0,0,0,,2,,,74,127
102143,note_off,0,0,0,,6,,,78,127
102144,note_on,1,0,0,,1,,,73,127
102144,note_on,0,0,0,,4,,,76,127
102144,note_on,0,0,0,,10,,,45,127
102527,note_off,383,0,0,,10,,,45,127
102527,note_off,0,0,0,,4,,,76,127
102527,note_off,0,0,0,,1,,,73,127
102528,note_on,1,0,0,,2,,,74,127
102528,note_on,0,0,0,,2,,,38,127
102623,note_off,95,0,0,,2,,,74,127
102624,note_on,1,0,0,,2,,,86,127
102719,note_off,95,0,0,,2,,,86,127
102720,note_on,1,0,0,,10,,,81,127
102815,note_off,95,0,0,,10,,,81,127
102816,note_on,1,0,0,,6,,,78,127
102911,note_off,95,0,0,,6,,,78,127
102912,note_on,1,0,0,,2,,,74,127
103007,note_off,95,0,0,,2,,,74,127
103008,note_on,1,0,0,,10,,,69,127
103103,note_off,95,0,0,,10,,,69,127
103103,note_off,0,0,0,,2,,,38,127
103104,note_on,1,0,0,,6,,,66,127
103199,note_off,95,0,0,,6,,,66,127
103200,note_on,1,0,0,,2,,,62,127
103295,note_off,95,0,0,,2,,,62,127
103296,note_on,1,0,0,,10,,,57,127
103391,note_off,95,0,0,,10,,,57,127
103392,note_on,1,0,0,,6,,,54,127
103487,note_off,95,0,0,,6,,,54,127
103488,note_on,1,0,0,,2,,,50,127
103583,note_off,95,0,0,,2,,,50,127
103584,note_on,1,0,0,,10,,,45,127
103679,note_off,95,0,0,,10,,,45,127
103680,note_on,1,0,0,,2,,,38,127
103776,note_on,96,0,0,,2,,,86,127
103871,note_off,95,0,0,,2,,,86,127
103872,note_on,1,0,0,,10,,,81,127
103967,note_off,95,0,0,,10,,,81,127
103968,note_on,1,0,0,,6,,,78,127
104063,note_off,95,0,0,,6,,,78,127
104064,note_on,1,0,0,,2,,,74,127
104159,note_off,95,0,0,,2,,,74,127
104160,note_on,1,0,0,,10,,,69,127
104255,note_off,95,0,0,,10,,,69,127
104255,note_off,0,0,0,,2,,,38,127
104256,note_on,1,0,0,,6,,,66,127
104351,note_off,95,0,0,,6,,,66,127
104352,note_on,1,0,0,,2,,,62,127
104447,note_off,95,0,0,,2,,,62,127
104448,note_on,1,0,0,,10,,,57,127
104543,note_off,95,0,0,,10,,,57,127
104544,note_on,1,0,0,,6,,,54,127
104639,note_off,95,0,0,,6,,,54,127
104640,note_on,1,0,0,,2,,,50,127
104735,note_off,95,0,0,,2,,,50,127
104736,note_on,1,0,0,,10,,,45,127
104831,note_off,95,0,0,,10,,,45,127
104832,note_on,1,0,0,,2,,,38,127
105120,note_on,288,0,0,,2,,,86,127
105215,note_off,95,0,0,,2,,,86,127
105215,note_off,0,0,0,,2,,,38,127
105216,note_on,1,0,0,,2,,,74,127
105216,note_on,0,0,0,,6,,,78,127
105216,note_on,0,0,0,,10,,,33,127
105599,note_off,383,0,0,,10,,,33,127
105599,note_off,0,0,0,,6,,,78,127
105599,note_off,0,0,0,,2,,,74,127
105600,note_on,1,0,0,,1,,,73,127
105600,note_on,0,0,0,,4,,,76,127
105600,note_on,0,0,0,,10,,,33,127
105983,note_off,383,0,0,,10,,,33,127
105983,note_off,0,0,0,,4,,,76,127
105983,note_off,0,0,0,,1,,,73,127
105984,note_on,1,0,0,,4,,,76,127
105984,note_on,0,0,0,,2,,,38,127
106031,note_off,47,0,0,,4,,,76,127
106032,note_on,1,0,0,,2,,,74,127
106079,note_off,47,0,0,,2,,,74,127
106080,note_on,1,0,0,,4,,,76,127
106127,note_off,47,0,0,,4,,,76,127
106128,note_on,1,0,0,,2,,,74,127
109056,note_off,2928,0,0,,2,,,74,127
109056,note_off,0,0,0,,2,,,38,127
110592,end_of_track,1536,1,0,,,,,,
