tick,type,time,meta,track,program,channel,pitch,tempo,note,velocity
0,copyright,0,1,0,,,,,,
0,program_change,0,0,0,6,0,,,,
0,pitchwheel,0,0,0,,0,0,,,
0,program_change,0,0,0,6,1,,,,
0,pitchwheel,0,0,0,,1,-590,,,
0,program_change,0,0,0,6,2,,,,
0,pitchwheel,0,0,0,,2,-272,,,
0,program_change,0,0,0,6,3,,,,
0,pitchwheel,0,0,0,,3,-353,,,
0,program_change,0,0,0,6,4,,,,
0,pitchwheel,0,0,0,,4,-560,,,
0,program_change,0,0,0,6,5,,,,
0,pitchwheel,0,0,0,,5,-80,,,
0,program_change,0,0,0,6,6,,,,
0,pitchwheel,0,0,0,,6,-625,,,
0,program_change,0,0,0,6,7,,,,
0,pitchwheel,0,0,0,,7,-130,,,
0,program_change,0,0,0,6,8,,,,
0,pitchwheel,0,0,0,,8,-512,,,
0,program_change,0,0,0,6,10,,,,
0,pitchwheel,0,0,0,,10,-464,,,
0,program_change,0,0,0,6,11,,,,
0,pitchwheel,0,0,0,,11,-208,,,
0,program_change,0,0,0,6,12,,,,
0,pitchwheel,0,0,0,,12,-553,,,
0,set_tempo,0,1,0,,,,500000,,
240,note_on,240,0,0,,2,,,74,127
479,note_off,239,0,0,,2,,,74,127
480,note_on,1,0,0,,1,,,73,127
719,note_off,239,0,0,,1,,,73,127
720,note_on,1,0,0,,2,,,74,127
959,note_off,239,0,0,,2,,,74,127
960,note_on,1,0,0,,2,,,62,127
960,note_on,0,0,0,,10,,,69,127
1199,note_off,239,0,0,,2,,,62,127
1200,note_on,1,0,0,,1,,,61,127
1439,note_off,239,0,0,,1,,,61,127
1439,note_off,0,0,0,,10,,,69,127
1440,note_on,1,0,0,,2,,,62,127
1440,note_on,0,0,0,,5,,,77,127
1679,note_off,239,0,0,,5,,,77,127
1679,note_off,0,0,0,,2,,,62,127
1680,note_on,1,0,0,,7,,,67,127
1680,note_on,0,0,0,,5,,,77,127
1919,note_off,239,0,0,,5,,,77,127
1919,note_off,0,0,0,,7,,,67,127
1920,note_on,1,0,0,,10,,,69,127
1920,note_on,0,0,0,,4,,,76,127
2159,note_off,239,0,0,,4,,,76,127
2159,note_off,0,0,0,,10,,,69,127
2160,note_on,1,0,0,,11,,,70,127
2160,note_on,0,0,0,,2,,,74,127
2399,note_off,239,0,0,,2,,,74,127
2399,note_off,0,0,0,,11,,,70,127
2400,note_on,1,0,0,,10,,,69,127
2400,note_on,0,0,0,,2,,,74,127
2639,note_off,239,0,0,,2,,,74,127
2640,note_on,1,0,0,,4,,,76,127
2849,note_off,209,0,0,,4,,,76,127
2879,note_off,30,0,0,,10,,,69,127
2880,note_on,1,0,0,,7,,,67,127
2880,note_on,0,0,0,,11,,,82,127
3119,note_off,239,0,0,,11,,,82,127
3119,note_off,0,0,0,,7,,,67,127
3120,note_on,1,0,0,,10,,,69,127
3120,note_on,0,0,0,,1,,,73,127
3120,note_on,0,0,0,,11,,,82,127
3359,note_off,239,0,0,,11,,,82,127
3360,note_on,1,0,0,,10,,,81,127
3599,note_off,239,0,0,,10,,,81,127
3599,note_off,0,0,0,,1,,,73,127
3599,note_off,0,0,0,,10,,,69,127
3600,note_on,1,0,0,,11,,,70,127
3600,note_on,0,0,0,,2,,,74,127
3600,note_on,0,0,0,,7,,,79,127
3839,note_off,239,0,0,,7,,,79,127
3839,note_off,0,0,0,,2,,,74,127
3839,note_off,0,0,0,,11,,,70,127
3840,note_on,1,0,0,,1,,,73,127
3840,note_on,0,0,0,,10,,,69,127
3840,note_on,0,0,0,,7,,,79,127
4079,note_off,239,0,0,,7,,,79,127
4080,note_on,1,0,0,,10,,,81,127
4280,note_off,200,0,0,,10,,,81,127
4319,note_off,39,0,0,,10,,,69,127
4319,note_off,0,0,0,,1,,,73,127
4320,note_on,1,0,0,,2,,,74,127
4320,note_on,0,0,0,,7,,,67,127
4320,note_on,0,0,0,,11,,,82,127
4559,note_off,239,0,0,,11,,,82,127
4559,note_off,0,0,0,,7,,,67,127
4559,note_off,0,0,0,,2,,,74,127
4560,note_on,1,0,0,,10,,,69,127
4560,note_on,0,0,0,,1,,,73,127
4560,note_on,0,0,0,,11,,,82,127
4799,note_off,239,0,0,,11,,,82,127
4800,note_on,1,0,0,,10,,,81,127
5039,note_off,239,0,0,,10,,,81,127
5039,note_off,0,0,0,,1,,,73,127
5039,note_off,0,0,0,,10,,,69,127
5040,note_on,1,0,0,,11,,,70,127
5040,note_on,0,0,0,,2,,,74,127
5040,note_on,0,0,0,,7,,,79,127
5279,note_off,239,0,0,,7,,,79,127
5279,note_off,0,0,0,,2,,,74,127
5279,note_off,0,0,0,,11,,,70,127
5280,note_on,1,0,0,,1,,,73,127
5280,note_on,0,0,0,,10,,,69,127
5280,note_on,0,0,0,,7,,,79,127
5519,note_off,239,0,0,,7,,,79,127
5520,note_on,1,0,0,,10,,,81,127
5732,note_off,212,0,0,,10,,,81,127
5758,note_off,26,0,0,,10,,,69,127
5758,note_off,0,0,0,,1,,,73,127
5759,note_on,1,0,0,,2,,,62,127
5759,note_on,0,0,0,,11,,,70,127
5759,note_on,0,0,0,,7,,,79,127
5998,note_off,239,0,0,,7,,,79,127
5998,note_off,0,0,0,,11,,,70,127
5998,note_off,0,0,0,,2,,,62,127
5999,note_on,1,0,0,,1,,,61,127
5999,note_on,0,0,0,,11,,,70,127
5999,note_on,0,0,0,,7,,,79,127
6238,note_off,239,0,0,,11,,,70,127
6239,note_on,1,0,0,,10,,,69,127
6474,note_off,235,0,0,,1,,,61,127
6478,note_off,4,0,0,,10,,,69,127
6478,note_off,0,0,0,,7,,,79,127
6479,note_on,1,0,0,,2,,,62,127
6479,note_on,0,0,0,,11,,,70,127
6479,note_on,0,0,0,,7,,,79,127
6718,note_off,239,0,0,,7,,,79,127
6718,note_off,0,0,0,,11,,,70,127
6718,note_off,0,0,0,,2,,,62,127
6719,note_on,1,0,0,,1,,,61,127
6719,note_on,0,0,0,,11,,,70,127
6719,note_on,0,0,0,,7,,,79,127
6958,note_off,239,0,0,,11,,,70,127
6959,note_on,1,0,0,,10,,,69,127
7194,note_off,235,0,0,,1,,,61,127
7198,note_off,4,0,0,,10,,,69,127
7198,note_off,0,0,0,,7,,,79,127
7199,note_on,1,0,0,,2,,,62,127
7199,note_on,0,0,0,,11,,,70,127
7199,note_on,0,0,0,,7,,,79,127
7438,note_off,239,0,0,,7,,,79,127
7438,note_off,0,0,0,,11,,,70,127
7438,note_off,0,0,0,,2,,,62,127
7439,note_on,1,0,0,,1,,,61,127
7439,note_on,0,0,0,,11,,,70,127
7439,note_on,0,0,0,,7,,,79,127
7678,note_off,239,0,0,,11,,,70,127
7679,note_on,1,0,0,,10,,,69,127
7914,note_off,235,0,0,,1,,,61,127
7918,note_off,4,0,0,,10,,,69,127
7918,note_off,0,0,0,,7,,,79,127
7919,note_on,1,0,0,,11,,,70,127
7919,note_on,0,0,0,,1,,,61,127
7919,note_on,0,0,0,,7,,,79,127
8158,note_off,239,0,0,,7,,,79,127
8158,note_off,0,0,0,,1,,,61,127
8158,note_off,0,0,0,,11,,,70,127
8159,note_on,1,0,0,,2,,,62,127
8159,note_on,0,0,0,,10,,,69,127
8159,note_on,0,0,0,,5,,,77,127
8278,note_off,119,0,0,,5,,,77,127
8279,note_on,1,0,0,,4,,,76,127
8398,note_off,119,0,0,,4,,,76,127
8398,note_off,0,0,0,,2,,,62,127
8399,note_on,1,0,0,,4,,,64,127
8399,note_on,0,0,0,,5,,,77,127
8518,note_off,119,0,0,,5,,,77,127
8519,note_on,1,0,0,,7,,,79,127
8634,note_off,115,0,0,,10,,,69,127
8638,note_off,4,0,0,,7,,,79,127
8638,note_off,0,0,0,,4,,,64,127
8639,note_on,1,0,0,,5,,,65,127
8639,note_on,0,0,0,,2,,,74,127
8639,note_on,0,0,0,,10,,,81,127
8878,note_off,239,0,0,,10,,,81,127
8878,note_off,0,0,0,,2,,,74,127
8878,note_off,0,0,0,,5,,,65,127
8879,note_on,1,0,0,,7,,,67,127
8879,note_on,0,0,0,,11,,,82,127
9118,note_off,239,0,0,,11,,,82,127
9118,note_off,0,0,0,,7,,,67,127
9119,note_on,1,0,0,,10,,,69,127
9119,note_on,0,0,0,,2,,,74,127
9358,note_off,239,0,0,,2,,,74,127
9358,note_off,0,0,0,,10,,,69,127
9359,note_on,1,0,0,,10,,,57,127
9359,note_on,0,0,0,,1,,,73,127
9598,note_off,239,0,0,,1,,,73,127
9598,note_off,0,0,0,,10,,,57,127
9599,note_on,1,0,0,,2,,,62,127
9599,note_on,0,0,0,,1,,,73,127
9838,note_off,239,0,0,,1,,,73,127
9849,note_on,11,0,0,,2,,,74,127
10067,note_off,218,0,0,,2,,,62,127
10088,note_off,21,0,0,,2,,,74,127
10099,note_on,11,0,0,,7,,,79,127
10099,note_on,0,0,0,,11,,,70,127
10099,note_on,0,0,0,,2,,,62,127
10178,note_off,79,0,0,,11,,,70,127
10179,note_on,1,0,0,,0,,,72,127
10258,note_off,79,0,0,,0,,,72,127
10259,note_on,1,0,0,,2,,,74,127
10337,note_off,78,0,0,,7,,,79,127
10338,note_off,1,0,0,,2,,,74,127
10338,note_off,0,0,0,,2,,,62,127
10339,note_on,1,0,0,,7,,,79,127
10339,note_on,0,0,0,,11,,,70,127
10339,note_on,0,0,0,,1,,,61,127
10578,note_off,239,0,0,,11,,,70,127
10579,note_on,1,0,0,,10,,,69,127
10814,note_off,235,0,0,,7,,,79,127
10818,note_off,4,0,0,,10,,,69,127
10818,note_off,0,0,0,,1,,,61,127
10819,note_on,1,0,0,,7,,,79,127
10819,note_on,0,0,0,,11,,,70,127
10819,note_on,0,0,0,,2,,,62,127
10898,note_off,79,0,0,,11,,,70,127
10899,note_on,1,0,0,,0,,,72,127
10978,note_off,79,0,0,,0,,,72,127
10979,note_on,1,0,0,,2,,,74,127
11057,note_off,78,0,0,,7,,,79,127
11058,note_off,1,0,0,,2,,,74,127
11058,note_off,0,0,0,,2,,,62,127
11059,note_on,1,0,0,,11,,,70,127
11059,note_on,0,0,0,,7,,,79,127
11059,note_on,0,0,0,,1,,,61,127
11298,note_off,239,0,0,,11,,,70,127
11299,note_on,1,0,0,,10,,,69,127
11534,note_off,235,0,0,,7,,,79,127
11538,note_off,4,0,0,,10,,,69,127
11538,note_off,0,0,0,,1,,,61,127
11539,note_on,1,0,0,,11,,,70,127
11539,note_on,0,0,0,,7,,,79,127
11539,note_on,0,0,0,,2,,,62,127
11618,note_off,79,0,0,,11,,,70,127
11619,note_on,1,0,0,,0,,,72,127
11698,note_off,79,0,0,,0,,,72,127
11699,note_on,1,0,0,,2,,,74,127
11777,note_off,78,0,0,,7,,,79,127
11778,note_off,1,0,0,,2,,,74,127
11778,note_off,0,0,0,,2,,,62,127
11779,note_on,1,0,0,,7,,,79,127
11779,note_on,0,0,0,,11,,,70,127
11779,note_on,0,0,0,,1,,,61,127
12018,note_off,239,0,0,,11,,,70,127
12019,note_on,1,0,0,,10,,,69,127
12254,note_off,235,0,0,,7,,,79,127
12258,note_off,4,0,0,,10,,,69,127
12258,note_off,0,0,0,,1,,,61,127
12259,note_on,1,0,0,,11,,,70,127
12259,note_on,0,0,0,,7,,,79,127
12259,note_on,0,0,0,,1,,,61,127
12498,note_off,239,0,0,,1,,,61,127
12498,note_off,0,0,0,,7,,,79,127
12498,note_off,0,0,0,,11,,,70,127
12499,note_on,1,0,0,,10,,,69,127
12499,note_on,0,0,0,,7,,,79,127
12499,note_on,0,0,0,,2,,,62,127
12499,note_on,0,0,0,,5,,,77,127
12578,note_off,79,0,0,,5,,,77,127
12578,note_off,0,0,0,,7,,,79,127
12579,note_on,1,0,0,,4,,,76,127
12658,note_off,79,0,0,,4,,,76,127
12659,note_on,1,0,0,,5,,,77,127
12738,note_off,79,0,0,,5,,,77,127
12738,note_off,0,0,0,,2,,,62,127
12739,note_on,1,0,0,,7,,,79,127
12739,note_on,0,0,0,,4,,,64,127
12818,note_off,79,0,0,,7,,,79,127
12819,note_on,1,0,0,,5,,,77,127
12898,note_off,79,0,0,,5,,,77,127
12899,note_on,1,0,0,,7,,,79,127
12978,note_off,79,0,0,,7,,,79,127
12978,note_off,0,0,0,,4,,,64,127
12979,note_on,1,0,0,,10,,,81,127
12979,note_on,0,0,0,,5,,,65,127
13058,note_off,79,0,0,,10,,,81,127
13059,note_on,1,0,0,,7,,,79,127
13138,note_off,79,0,0,,7,,,79,127
13139,note_on,1,0,0,,10,,,81,127
13218,note_off,79,0,0,,10,,,81,127
13218,note_off,0,0,0,,5,,,65,127
13218,note_off,0,0,0,,10,,,69,127
13219,note_on,1,0,0,,11,,,82,127
13219,note_on,0,0,0,,7,,,67,127
13298,note_off,79,0,0,,11,,,82,127
13299,note_on,1,0,0,,10,,,81,127
13378,note_off,79,0,0,,10,,,81,127
13379,note_on,1,0,0,,11,,,82,127
13458,note_off,79,0,0,,11,,,82,127
13458,note_off,0,0,0,,7,,,67,127
13459,note_on,1,0,0,,2,,,74,127
13459,note_on,0,0,0,,10,,,69,127
13698,note_off,239,0,0,,10,,,69,127
13698,note_off,0,0,0,,2,,,74,127
13707,note_on,9,0,0,,1,,,73,127
13707,note_on,0,0,0,,10,,,57,127
13946,note_off,239,0,0,,10,,,57,127
13946,note_off,0,0,0,,1,,,73,127
13955,note_on,9,0,0,,2,,,74,127
13955,note_on,0,0,0,,2,,,62,127
14180,note_off,225,0,0,,2,,,62,127
14180,note_on,0,0,0,,6,,,78,127
14194,note_off,14,0,0,,2,,,74,127
14284,note_off,90,0,0,,6,,,78,127
14285,note_on,1,0,0,,2,,,74,127
14389,note_off,104,0,0,,2,,,74,127
14390,note_on,1,0,0,,10,,,81,127
14599,note_off,209,0,0,,10,,,81,127
14600,note_on,1,0,0,,10,,,81,127
14809,note_off,209,0,0,,10,,,81,127
14811,note_on,2,0,0,,10,,,81,127
15020,note_off,209,0,0,,10,,,81,127
15021,note_on,1,0,0,,6,,,66,127
15021,note_on,0,0,0,,2,,,86,127
15125,note_off,104,0,0,,6,,,66,127
15126,note_on,1,0,0,,2,,,62,127
15230,note_off,104,0,0,,2,,,62,127
15230,note_off,0,0,0,,2,,,86,127
15232,note_on,2,0,0,,10,,,69,127
15232,note_on,0,0,0,,1,,,85,127
15336,note_off,104,0,0,,1,,,85,127
15337,note_on,1,0,0,,12,,,83,127
15441,note_off,104,0,0,,12,,,83,127
15441,note_off,0,0,0,,10,,,69,127
15442,note_on,1,0,0,,10,,,57,127
15442,note_on,0,0,0,,10,,,81,127
15546,note_off,104,0,0,,10,,,81,127
15547,note_on,1,0,0,,7,,,79,127
15651,note_off,104,0,0,,7,,,79,127
15651,note_off,0,0,0,,10,,,57,127
15652,note_on,1,0,0,,2,,,62,127
15652,note_on,0,0,0,,6,,,78,127
15860,note_off,208,0,0,,2,,,62,127
15861,note_off,1,0,0,,6,,,78,127
15863,note_on,2,0,0,,6,,,78,127
15967,note_off,104,0,0,,6,,,78,127
15968,note_on,1,0,0,,2,,,74,127
16072,note_off,104,0,0,,2,,,74,127
16073,note_on,1,0,0,,10,,,81,127
16282,note_off,209,0,0,,10,,,81,127
16284,note_on,2,0,0,,10,,,81,127
16493,note_off,209,0,0,,10,,,81,127
16494,note_on,1,0,0,,10,,,81,127
16703,note_off,209,0,0,,10,,,81,127
16705,note_on,2,0,0,,6,,,66,127
16705,note_on,0,0,0,,2,,,86,127
16809,note_off,104,0,0,,6,,,66,127
16810,note_on,1,0,0,,2,,,62,127
16914,note_off,104,0,0,,2,,,62,127
16914,note_off,0,0,0,,2,,,86,127
16915,note_on,1,0,0,,10,,,69,127
16915,note_on,0,0,0,,1,,,85,127
17019,note_off,104,0,0,,1,,,85,127
17020,note_on,1,0,0,,12,,,83,127
17124,note_off,104,0,0,,12,,,83,127
17124,note_off,0,0,0,,10,,,69,127
17125,note_on,1,0,0,,10,,,57,127
17125,note_on,0,0,0,,10,,,81,127
17229,note_off,104,0,0,,10,,,81,127
17231,note_on,2,0,0,,7,,,79,127
17333,note_off,102,0,0,,10,,,57,127
17334,note_off,1,0,0,,7,,,79,127
17335,note_on,1,0,0,,2,,,74,127
17335,note_on,0,0,0,,6,,,78,127
17439,note_off,104,0,0,,6,,,78,127
17440,note_on,1,0,0,,7,,,79,127
17544,note_off,104,0,0,,7,,,79,127
17544,note_off,0,0,0,,2,,,74,127
17545,note_on,1,0,0,,1,,,73,127
17545,note_on,0,0,0,,10,,,81,127
17649,note_off,104,0,0,,10,,,81,127
17650,note_on,1,0,0,,4,,,76,127
17754,note_off,104,0,0,,4,,,76,127
17754,note_off,0,0,0,,1,,,73,127
17756,note_on,2,0,0,,12,,,71,127
17756,note_on,0,0,0,,2,,,74,127
17860,note_off,104,0,0,,2,,,74,127
17861,note_on,1,0,0,,4,,,76,127
17965,note_off,104,0,0,,4,,,76,127
17965,note_off,0,0,0,,12,,,71,127
17966,note_on,1,0,0,,10,,,69,127
17966,note_on,0,0,0,,6,,,78,127
18070,note_off,104,0,0,,6,,,78,127
18071,note_on,1,0,0,,1,,,73,127
18175,note_off,104,0,0,,1,,,73,127
18175,note_off,0,0,0,,10,,,69,127
18177,note_on,2,0,0,,7,,,67,127
18177,note_on,0,0,0,,12,,,71,127
18281,note_off,104,0,0,,12,,,71,127
18282,note_on,1,0,0,,1,,,73,127
18386,note_off,104,0,0,,1,,,73,127
18386,note_off,0,0,0,,7,,,67,127
18387,note_on,1,0,0,,6,,,66,127
18387,note_on,0,0,0,,2,,,74,127
18491,note_off,104,0,0,,2,,,74,127
18492,note_on,1,0,0,,10,,,69,127
18596,note_off,104,0,0,,10,,,69,127
18596,note_off,0,0,0,,6,,,66,127
18597,note_on,1,0,0,,4,,,64,127
18597,note_on,0,0,0,,7,,,67,127
18701,note_off,104,0,0,,7,,,67,127
18703,note_on,2,0,0,,10,,,69,127
18805,note_off,102,0,0,,4,,,64,127
18806,note_off,1,0,0,,10,,,69,127
18807,note_on,1,0,0,,2,,,62,127
18807,note_on,0,0,0,,12,,,71,127
18911,note_off,104,0,0,,12,,,71,127
18912,note_on,1,0,0,,6,,,66,127
19016,note_off,104,0,0,,6,,,66,127
19016,note_off,0,0,0,,2,,,62,127
19017,note_on,1,0,0,,10,,,57,127
19017,note_on,0,0,0,,4,,,64,127
19121,note_off,104,0,0,,4,,,64,127
19122,note_on,1,0,0,,2,,,62,127
19226,note_off,104,0,0,,2,,,62,127
19228,note_on,2,0,0,,6,,,66,127
19332,note_off,104,0,0,,6,,,66,127
19333,note_on,1,0,0,,4,,,64,127
19437,note_off,104,0,0,,4,,,64,127
19438,note_on,1,0,0,,7,,,67,127
19542,note_off,104,0,0,,7,,,67,127
19543,note_on,1,0,0,,6,,,66,127
19647,note_off,104,0,0,,6,,,66,127
19648,note_on,1,0,0,,8,,,68,127
19752,note_off,104,0,0,,8,,,68,127
19754,note_on,2,0,0,,6,,,66,127
19858,note_off,104,0,0,,6,,,66,127
19859,note_on,1,0,0,,10,,,69,127
19963,note_off,104,0,0,,10,,,69,127
19964,note_on,1,0,0,,8,,,68,127
20068,note_off,104,0,0,,8,,,68,127
20069,note_on,1,0,0,,12,,,71,127
20173,note_off,104,0,0,,12,,,71,127
20175,note_on,2,0,0,,10,,,69,127
20279,note_off,104,0,0,,10,,,69,127
20280,note_on,1,0,0,,1,,,73,127
20384,note_off,104,0,0,,1,,,73,127
20385,note_on,1,0,0,,12,,,71,127
20489,note_off,104,0,0,,12,,,71,127
20490,note_on,1,0,0,,2,,,74,127
20594,note_off,104,0,0,,2,,,74,127
20595,note_on,1,0,0,,1,,,73,127
20699,note_off,104,0,0,,1,,,73,127
20699,note_off,0,0,0,,10,,,57,127
20701,note_on,2,0,0,,10,,,57,127
20701,note_on,0,0,0,,4,,,76,127
20805,note_off,104,0,0,,10,,,57,127
20806,note_on,1,0,0,,8,,,56,127
20910,note_off,104,0,0,,8,,,56,127
20911,note_on,1,0,0,,12,,,59,127
21015,note_off,104,0,0,,12,,,59,127
21016,note_on,1,0,0,,10,,,57,127
21120,note_off,104,0,0,,10,,,57,127
21121,note_on,1,0,0,,1,,,61,127
21225,note_off,104,0,0,,1,,,61,127
21227,note_on,2,0,0,,12,,,59,127
21331,note_off,104,0,0,,12,,,59,127
21332,note_on,1,0,0,,2,,,62,127
21436,note_off,104,0,0,,2,,,62,127
21437,note_on,1,0,0,,1,,,61,127
21541,note_off,104,0,0,,1,,,61,127
21542,note_on,1,0,0,,4,,,64,127
21646,note_off,104,0,0,,4,,,64,127
21647,note_on,1,0,0,,2,,,62,127
21751,note_off,104,0,0,,2,,,62,127
21753,note_on,2,0,0,,6,,,66,127
21857,note_off,104,0,0,,6,,,66,127
21858,note_on,1,0,0,,4,,,64,127
21962,note_off,104,0,0,,4,,,64,127
21963,note_on,1,0,0,,8,,,68,127
22067,note_off,104,0,0,,8,,,68,127
22068,note_on,1,0,0,,6,,,66,127
22172,note_off,104,0,0,,6,,,66,127
22173,note_off,1,0,0,,4,,,76,127
22174,note_on,1,0,0,,10,,,69,127
22174,note_on,0,0,0,,1,,,73,127
22278,note_off,104,0,0,,10,,,69,127
22279,note_on,1,0,0,,10,,,57,127
22383,note_off,104,0,0,,10,,,57,127
22383,note_off,0,0,0,,1,,,73,127
22384,note_on,1,0,0,,4,,,52,127
22384,note_on,0,0,0,,12,,,71,127
22488,note_off,104,0,0,,12,,,71,127
22489,note_on,1,0,0,,10,,,69,127
22593,note_off,104,0,0,,10,,,69,127
22594,note_on,1,0,0,,8,,,68,127
22698,note_off,104,0,0,,8,,,68,127
22700,note_on,2,0,0,,6,,,66,127
22804,note_off,104,0,0,,6,,,66,127
22805,note_on,1,0,0,,4,,,64,127
22909,note_off,104,0,0,,4,,,64,127
22910,note_on,1,0,0,,2,,,62,127
23014,note_off,104,0,0,,2,,,62,127
23014,note_off,0,0,0,,4,,,52,127
23015,note_on,1,0,0,,1,,,61,127
23119,note_off,104,0,0,,1,,,61,127
23120,note_on,1,0,0,,12,,,59,127
23224,note_off,104,0,0,,12,,,59,127
23226,note_on,2,0,0,,10,,,57,127
23226,note_on,0,0,0,,1,,,61,127
23330,note_off,104,0,0,,10,,,57,127
23331,note_on,1,0,0,,8,,,56,127
23435,note_off,104,0,0,,8,,,56,127
23435,note_off,0,0,0,,1,,,61,127
23436,note_on,1,0,0,,12,,,59,127
23436,note_on,0,0,0,,2,,,62,127
23540,note_off,104,0,0,,12,,,59,127
23541,note_on,1,0,0,,10,,,57,127
23645,note_off,104,0,0,,10,,,57,127
23645,note_off,0,0,0,,2,,,62,127
23646,note_on,1,0,0,,1,,,61,127
23646,note_on,0,0,0,,4,,,64,127
23750,note_off,104,0,0,,1,,,61,127
23752,note_on,2,0,0,,12,,,59,127
23854,note_off,102,0,0,,4,,,64,127
23855,note_off,1,0,0,,12,,,59,127
23856,note_on,1,0,0,,2,,,62,127
23856,note_on,0,0,0,,6,,,66,127
23960,note_off,104,0,0,,2,,,62,127
23961,note_on,1,0,0,,1,,,61,127
24065,note_off,104,0,0,,1,,,61,127
24065,note_off,0,0,0,,6,,,66,127
24066,note_on,1,0,0,,4,,,64,127
24066,note_on,0,0,0,,8,,,68,127
24170,note_off,104,0,0,,4,,,64,127
24172,note_on,2,0,0,,2,,,62,127
24274,note_off,102,0,0,,8,,,68,127
24275,note_off,1,0,0,,2,,,62,127
24276,note_on,1,0,0,,6,,,66,127
24276,note_on,0,0,0,,10,,,69,127
24380,note_off,104,0,0,,6,,,66,127
24381,note_on,1,0,0,,4,,,64,127
24485,note_off,104,0,0,,4,,,64,127
24485,note_off,0,0,0,,10,,,69,127
24486,note_on,1,0,0,,8,,,68,127
24486,note_on,0,0,0,,12,,,71,127
24590,note_off,104,0,0,,8,,,68,127
24591,note_on,1,0,0,,4,,,64,127
24695,note_off,104,0,0,,4,,,64,127
24695,note_off,0,0,0,,12,,,71,127
24697,note_on,2,0,0,,10,,,69,127
24697,note_on,0,0,0,,1,,,73,127
24801,note_off,104,0,0,,10,,,69,127
24802,note_on,1,0,0,,10,,,57,127
24906,note_off,104,0,0,,10,,,57,127
24906,note_off,0,0,0,,1,,,73,127
24907,note_on,1,0,0,,4,,,52,127
24907,note_on,0,0,0,,12,,,71,127
25011,note_off,104,0,0,,12,,,71,127
25012,note_on,1,0,0,,10,,,69,127
25116,note_off,104,0,0,,10,,,69,127
25117,note_on,1,0,0,,8,,,68,127
25221,note_off,104,0,0,,8,,,68,127
25223,note_on,2,0,0,,6,,,66,127
25327,note_off,104,0,0,,6,,,66,127
25328,note_on,1,0,0,,4,,,64,127
25432,note_off,104,0,0,,4,,,64,127
25433,note_on,1,0,0,,2,,,62,127
25537,note_off,104,0,0,,2,,,62,127
25538,note_on,1,0,0,,1,,,61,127
25642,note_off,104,0,0,,1,,,61,127
25643,note_on,1,0,0,,12,,,59,127
25747,note_off,104,0,0,,12,,,59,127
25747,note_off,0,0,0,,4,,,52,127
25749,note_on,2,0,0,,10,,,45,127
25749,note_on,0,0,0,,1,,,61,127
25853,note_off,104,0,0,,10,,,45,127
25854,note_on,1,0,0,,10,,,57,127
25958,note_off,104,0,0,,10,,,57,127
25958,note_off,0,0,0,,1,,,61,127
25959,note_on,1,0,0,,8,,,56,127
25959,note_on,0,0,0,,10,,,81,127
26063,note_off,104,0,0,,8,,,56,127
26064,note_on,1,0,0,,10,,,57,127
26168,note_off,104,0,0,,10,,,57,127
26170,note_on,2,0,0,,1,,,61,127
26274,note_off,104,0,0,,1,,,61,127
26275,note_on,1,0,0,,10,,,57,127
26377,note_off,102,0,0,,10,,,81,127
26378,note_off,1,0,0,,10,,,57,127
26379,note_on,1,0,0,,2,,,62,127
26379,note_on,0,0,0,,6,,,78,127
26483,note_off,104,0,0,,2,,,62,127
26484,note_on,1,0,0,,10,,,57,127
26588,note_off,104,0,0,,10,,,57,127
26588,note_off,0,0,0,,6,,,78,127
26589,note_on,1,0,0,,10,,,45,127
26589,note_on,0,0,0,,4,,,76,127
26693,note_off,104,0,0,,10,,,45,127
26695,note_on,2,0,0,,10,,,57,127
26797,note_off,102,0,0,,4,,,76,127
26798,note_off,1,0,0,,10,,,57,127
26799,note_on,1,0,0,,8,,,56,127
26799,note_on,0,0,0,,10,,,81,127
26903,note_off,104,0,0,,8,,,56,127
26904,note_on,1,0,0,,10,,,57,127
27008,note_off,104,0,0,,10,,,57,127
27009,note_on,1,0,0,,1,,,61,127
27113,note_off,104,0,0,,1,,,61,127
27114,note_on,1,0,0,,10,,,57,127
27218,note_off,104,0,0,,10,,,57,127
27218,note_off,0,0,0,,10,,,81,127
27220,note_on,2,0,0,,4,,,64,127
27220,note_on,0,0,0,,4,,,76,127
27324,note_off,104,0,0,,4,,,64,127
27325,note_on,1,0,0,,1,,,61,127
27429,note_off,104,0,0,,1,,,61,127
27429,note_off,0,0,0,,4,,,76,127
27430,note_on,1,0,0,,10,,,45,127
27430,note_on,0,0,0,,1,,,73,127
27534,note_off,104,0,0,,10,,,45,127
27535,note_on,1,0,0,,10,,,57,127
27639,note_off,104,0,0,,10,,,57,127
27639,note_off,0,0,0,,1,,,73,127
27640,note_on,1,0,0,,8,,,56,127
27640,note_on,0,0,0,,10,,,81,127
27744,note_off,104,0,0,,8,,,56,127
27746,note_on,2,0,0,,10,,,57,127
27850,note_off,104,0,0,,10,,,57,127
27851,note_on,1,0,0,,1,,,61,127
27955,note_off,104,0,0,,1,,,61,127
27956,note_on,1,0,0,,10,,,57,127
28058,note_off,102,0,0,,10,,,81,127
28059,note_off,1,0,0,,10,,,57,127
28060,note_on,1,0,0,,6,,,66,127
28060,note_on,0,0,0,,6,,,78,127
28164,note_off,104,0,0,,6,,,66,127
28166,note_on,2,0,0,,2,,,62,127
28268,note_off,102,0,0,,6,,,78,127
28269,note_off,1,0,0,,2,,,62,127
28270,note_on,1,0,0,,10,,,33,127
28270,note_on,0,0,0,,4,,,76,127
28374,note_off,104,0,0,,4,,,76,127
28375,note_on,1,0,0,,2,,,74,127
28479,note_off,104,0,0,,2,,,74,127
28480,note_on,1,0,0,,1,,,73,127
28584,note_off,104,0,0,,1,,,73,127
28585,note_on,1,0,0,,12,,,71,127
28689,note_off,104,0,0,,12,,,71,127
28691,note_on,2,0,0,,10,,,69,127
28795,note_off,104,0,0,,10,,,69,127
28796,note_off,1,0,0,,10,,,33,127
28796,note_on,0,0,0,,8,,,68,127
28900,note_off,104,0,0,,8,,,68,127
28901,note_on,1,0,0,,1,,,61,127
28901,note_on,0,0,0,,6,,,66,127
29005,note_off,104,0,0,,6,,,66,127
29006,note_on,1,0,0,,4,,,64,127
29110,note_off,104,0,0,,4,,,64,127
29110,note_off,0,0,0,,1,,,61,127
29111,note_on,1,0,0,,2,,,62,127
29111,note_on,0,0,0,,6,,,66,127
29215,note_off,104,0,0,,6,,,66,127
29217,note_on,2,0,0,,2,,,74,127
29319,note_off,102,0,0,,2,,,62,127
29320,note_off,1,0,0,,2,,,74,127
29321,note_on,1,0,0,,2,,,50,127
29321,note_on,0,0,0,,1,,,73,127
29425,note_off,104,0,0,,1,,,73,127
29426,note_on,1,0,0,,12,,,71,127
29530,note_off,104,0,0,,12,,,71,127
29530,note_off,0,0,0,,2,,,50,127
29531,note_on,1,0,0,,4,,,52,127
29531,note_on,0,0,0,,1,,,73,127
29635,note_off,104,0,0,,1,,,73,127
29636,note_on,1,0,0,,10,,,69,127
29740,note_off,104,0,0,,10,,,69,127
29740,note_off,0,0,0,,4,,,52,127
29742,note_on,2,0,0,,4,,,40,127
29742,note_on,0,0,0,,12,,,71,127
29846,note_off,104,0,0,,12,,,71,127
29847,note_on,1,0,0,,8,,,68,127
29951,note_off,104,0,0,,8,,,68,127
29951,note_off,0,0,0,,4,,,40,127
29952,note_on,1,0,0,,10,,,45,127
29952,note_on,0,0,0,,10,,,69,127
30056,note_off,104,0,0,,10,,,45,127
30057,note_on,1,0,0,,10,,,57,127
30161,note_off,104,0,0,,10,,,57,127
30161,note_off,0,0,0,,10,,,69,127
30163,note_on,2,0,0,,8,,,56,127
30163,note_on,0,0,0,,10,,,81,127
30267,note_off,104,0,0,,8,,,56,127
30268,note_on,1,0,0,,10,,,57,127
30372,note_off,104,0,0,,10,,,57,127
30373,note_on,1,0,0,,1,,,61,127
30477,note_off,104,0,0,,1,,,61,127
30478,note_on,1,0,0,,10,,,57,127
30582,note_off,104,0,0,,10,,,57,127
30582,note_off,0,0,0,,10,,,81,127
30583,note_on,1,0,0,,2,,,62,127
30583,note_on,0,0,0,,6,,,78,127
30687,note_off,104,0,0,,2,,,62,127
30689,note_on,2,0,0,,10,,,57,127
30791,note_off,102,0,0,,6,,,78,127
30792,note_off,1,0,0,,10,,,57,127
30793,note_on,1,0,0,,10,,,45,127
30793,note_on,0,0,0,,4,,,76,127
30897,note_off,104,0,0,,10,,,45,127
30898,note_on,1,0,0,,10,,,57,127
31002,note_off,104,0,0,,10,,,57,127
31002,note_off,0,0,0,,4,,,76,127
31003,note_on,1,0,0,,8,,,56,127
31003,note_on,0,0,0,,10,,,81,127
31107,note_off,104,0,0,,8,,,56,127
31108,note_on,1,0,0,,10,,,57,127
31212,note_off,104,0,0,,10,,,57,127
31214,note_on,2,0,0,,1,,,61,127
31318,note_off,104,0,0,,1,,,61,127
31319,note_on,1,0,0,,10,,,57,127
31421,note_off,102,0,0,,10,,,81,127
31422,note_off,1,0,0,,10,,,57,127
31423,note_on,1,0,0,,4,,,64,127
31423,note_on,0,0,0,,4,,,76,127
31527,note_off,104,0,0,,4,,,64,127
31528,note_on,1,0,0,,1,,,61,127
31632,note_off,104,0,0,,1,,,61,127
31632,note_off,0,0,0,,4,,,76,127
31633,note_on,1,0,0,,10,,,45,127
31633,note_on,0,0,0,,1,,,73,127
31737,note_off,104,0,0,,10,,,45,127
31739,note_on,2,0,0,,10,,,57,127
31841,note_off,102,0,0,,1,,,73,127
31842,note_off,1,0,0,,10,,,57,127
31843,note_on,1,0,0,,8,,,56,127
31843,note_on,0,0,0,,10,,,81,127
31947,note_off,104,0,0,,8,,,56,127
31948,note_on,1,0,0,,10,,,57,127
32052,note_off,104,0,0,,10,,,57,127
32053,note_on,1,0,0,,1,,,61,127
32157,note_off,104,0,0,,1,,,61,127
32159,note_on,2,0,0,,10,,,57,127
32261,note_off,102,0,0,,10,,,81,127
32262,note_off,1,0,0,,10,,,57,127
32263,note_on,1,0,0,,6,,,66,127
32263,note_on,0,0,0,,6,,,78,127
32367,note_off,104,0,0,,6,,,66,127
32368,note_on,1,0,0,,2,,,62,127
32472,note_off,104,0,0,,2,,,62,127
32472,note_off,0,0,0,,6,,,78,127
32473,note_on,1,0,0,,10,,,33,127
32473,note_on,0,0,0,,4,,,76,127
32577,note_off,104,0,0,,4,,,76,127
32578,note_on,1,0,0,,2,,,74,127
32682,note_off,104,0,0,,2,,,74,127
32684,note_on,2,0,0,,1,,,73,127
32788,note_off,104,0,0,,1,,,73,127
32789,note_on,1,0,0,,12,,,71,127
32893,note_off,104,0,0,,12,,,71,127
32894,note_on,1,0,0,,10,,,69,127
32998,note_off,104,0,0,,10,,,69,127
32999,note_off,1,0,0,,10,,,33,127
32999,note_on,0,0,0,,8,,,68,127
33103,note_off,104,0,0,,8,,,68,127
33104,note_on,1,0,0,,1,,,61,127
33104,note_on,0,0,0,,6,,,66,127
33208,note_off,104,0,0,,6,,,66,127
33210,note_on,2,0,0,,4,,,64,127
33312,note_off,102,0,0,,1,,,61,127
33313,note_off,1,0,0,,4,,,64,127
33314,note_on,1,0,0,,2,,,62,127
33314,note_on,0,0,0,,6,,,66,127
33418,note_off,104,0,0,,6,,,66,127
33419,note_on,1,0,0,,2,,,74,127
33523,note_off,104,0,0,,2,,,74,127
33523,note_off,0,0,0,,2,,,62,127
33524,note_on,1,0,0,,2,,,50,127
33524,note_on,0,0,0,,1,,,73,127
33628,note_off,104,0,0,,1,,,73,127
33629,note_on,1,0,0,,12,,,71,127
33733,note_off,104,0,0,,12,,,71,127
33733,note_off,0,0,0,,2,,,50,127
33735,note_on,2,0,0,,4,,,52,127
33735,note_on,0,0,0,,1,,,73,127
33839,note_off,104,0,0,,1,,,73,127
33840,note_on,1,0,0,,10,,,69,127
33944,note_off,104,0,0,,10,,,69,127
33944,note_off,0,0,0,,4,,,52,127
33945,note_on,1,0,0,,4,,,40,127
33945,note_on,0,0,0,,12,,,71,127
34049,note_off,104,0,0,,12,,,71,127
34050,note_on,1,0,0,,8,,,68,127
34154,note_off,104,0,0,,8,,,68,127
34154,note_off,0,0,0,,4,,,40,127
34156,note_on,2,0,0,,10,,,57,127
34156,note_on,0,0,0,,10,,,69,127
34260,note_off,104,0,0,,10,,,69,127
34261,note_on,1,0,0,,8,,,68,127
34365,note_off,104,0,0,,8,,,68,127
34365,note_off,0,0,0,,10,,,57,127
34366,note_on,1,0,0,,8,,,56,127
34366,note_on,0,0,0,,10,,,69,127
34470,note_off,104,0,0,,10,,,69,127
34471,note_on,1,0,0,,8,,,68,127
34575,note_off,104,0,0,,8,,,68,127
34575,note_off,0,0,0,,8,,,56,127
34576,note_on,1,0,0,,6,,,54,127
34576,note_on,0,0,0,,12,,,71,127
34680,note_off,104,0,0,,12,,,71,127
34682,note_on,2,0,0,,10,,,69,127
34784,note_off,102,0,0,,6,,,54,127
34785,note_off,1,0,0,,10,,,69,127
34786,note_on,1,0,0,,4,,,52,127
34786,note_on,0,0,0,,1,,,73,127
34890,note_off,104,0,0,,1,,,73,127
34891,note_on,1,0,0,,12,,,71,127
34995,note_off,104,0,0,,12,,,71,127
34995,note_off,0,0,0,,4,,,52,127
34996,note_on,1,0,0,,2,,,50,127
34996,note_on,0,0,0,,2,,,74,127
35100,note_off,104,0,0,,2,,,74,127
35101,note_on,1,0,0,,2,,,74,127
35205,note_off,104,0,0,,2,,,74,127
35205,note_off,0,0,0,,2,,,50,127
35207,note_on,2,0,0,,2,,,50,127
35207,note_on,0,0,0,,1,,,73,127
35311,note_off,104,0,0,,1,,,73,127
35312,note_on,1,0,0,,12,,,71,127
35416,note_off,104,0,0,,12,,,71,127
35416,note_off,0,0,0,,2,,,50,127
35417,note_on,1,0,0,,4,,,52,127
35417,note_on,0,0,0,,10,,,69,127
35521,note_off,104,0,0,,10,,,69,127
35522,note_on,1,0,0,,12,,,71,127
35626,note_off,104,0,0,,12,,,71,127
35627,note_on,1,0,0,,4,,,40,127
35627,note_on,0,0,0,,10,,,69,127
35731,note_off,104,0,0,,10,,,69,127
35733,note_on,2,0,0,,8,,,68,127
35833,note_off,100,0,0,,4,,,52,127
35835,note_off,2,0,0,,4,,,40,127
35836,note_off,1,0,0,,8,,,68,127
35837,note_on,1,0,0,,10,,,57,127
35837,note_on,0,0,0,,10,,,69,127
35941,note_off,104,0,0,,10,,,69,127
35942,note_on,1,0,0,,8,,,68,127
36046,note_off,104,0,0,,8,,,68,127
36046,note_off,0,0,0,,10,,,57,127
36047,note_on,1,0,0,,8,,,56,127
36047,note_on,0,0,0,,12,,,71,127
36151,note_off,104,0,0,,12,,,71,127
36153,note_on,2,0,0,,10,,,69,127
36255,note_off,102,0,0,,8,,,56,127
36256,note_off,1,0,0,,10,,,69,127
36257,note_on,1,0,0,,6,,,54,127
36257,note_on,0,0,0,,1,,,73,127
36361,note_off,104,0,0,,1,,,73,127
36362,note_on,1,0,0,,12,,,71,127
36466,note_off,104,0,0,,12,,,71,127
36466,note_off,0,0,0,,6,,,54,127
36467,note_on,1,0,0,,4,,,52,127
36467,note_on,0,0,0,,2,,,74,127
36571,note_off,104,0,0,,2,,,74,127
36572,note_on,1,0,0,,1,,,73,127
36676,note_off,104,0,0,,1,,,73,127
36676,note_off,0,0,0,,4,,,52,127
36678,note_on,2,0,0,,2,,,50,127
36678,note_on,0,0,0,,6,,,78,127
36782,note_off,104,0,0,,6,,,78,127
36783,note_on,1,0,0,,6,,,78,127
36887,note_off,104,0,0,,6,,,78,127
36887,note_off,0,0,0,,2,,,50,127
36888,note_on,1,0,0,,2,,,50,127
36888,note_on,0,0,0,,4,,,76,127
36992,note_off,104,0,0,,4,,,76,127
36993,note_on,1,0,0,,2,,,74,127
37097,note_off,104,0,0,,2,,,74,127
37097,note_off,0,0,0,,2,,,50,127
37098,note_on,1,0,0,,4,,,52,127
37098,note_on,0,0,0,,1,,,73,127
37202,note_off,104,0,0,,1,,,73,127
37204,note_on,2,0,0,,12,,,71,127
37308,note_off,104,0,0,,12,,,71,127
37309,note_on,1,0,0,,4,,,40,127
37309,note_on,0,0,0,,10,,,69,127
37413,note_off,104,0,0,,10,,,69,127
37414,note_on,1,0,0,,8,,,68,127
37514,note_off,100,0,0,,4,,,52,127
37518,note_off,4,0,0,,8,,,68,127
37518,note_off,0,0,0,,4,,,40,127
37519,note_on,1,0,0,,10,,,57,127
37519,note_on,0,0,0,,10,,,69,127
37623,note_off,104,0,0,,10,,,69,127
37624,note_on,1,0,0,,8,,,68,127
37728,note_off,104,0,0,,8,,,68,127
37728,note_off,0,0,0,,10,,,57,127
37730,note_on,2,0,0,,8,,,56,127
37730,note_on,0,0,0,,12,,,71,127
37834,note_off,104,0,0,,12,,,71,127
37835,note_on,1,0,0,,10,,,69,127
37939,note_off,104,0,0,,10,,,69,127
37939,note_off,0,0,0,,8,,,56,127
37940,note_on,1,0,0,,6,,,54,127
37940,note_on,0,0,0,,1,,,73,127
38044,note_off,104,0,0,,1,,,73,127
38045,note_on,1,0,0,,12,,,71,127
38149,note_off,104,0,0,,12,,,71,127
38149,note_off,0,0,0,,6,,,54,127
38151,note_on,2,0,0,,4,,,52,127
38151,note_on,0,0,0,,2,,,74,127
38255,note_off,104,0,0,,2,,,74,127
38256,note_on,1,0,0,,1,,,73,127
38360,note_off,104,0,0,,1,,,73,127
38360,note_off,0,0,0,,4,,,52,127
38361,note_on,1,0,0,,2,,,50,127
38361,note_on,0,0,0,,10,,,81,127
38465,note_off,104,0,0,,10,,,81,127
38466,note_on,1,0,0,,6,,,78,127
38570,note_off,104,0,0,,6,,,78,127
38570,note_off,0,0,0,,2,,,50,127
38571,note_on,1,0,0,,2,,,50,127
38571,note_on,0,0,0,,4,,,76,127
38675,note_off,104,0,0,,4,,,76,127
38677,note_on,2,0,0,,2,,,74,127
38779,note_off,102,0,0,,2,,,50,127
38780,note_off,1,0,0,,2,,,74,127
38781,note_on,1,0,0,,4,,,52,127
38781,note_on,0,0,0,,1,,,73,127
38885,note_off,104,0,0,,1,,,73,127
38886,note_on,1,0,0,,12,,,71,127
38990,note_off,104,0,0,,12,,,71,127
38991,note_on,1,0,0,,4,,,40,127
38991,note_on,0,0,0,,10,,,69,127
39095,note_off,104,0,0,,10,,,69,127
39096,note_on,1,0,0,,8,,,68,127
39197,note_off,101,0,0,,4,,,52,127
39199,note_off,2,0,0,,8,,,68,127
39199,note_off,0,0,0,,4,,,40,127
39201,note_on,2,0,0,,10,,,45,127
39201,note_on,0,0,0,,10,,,69,127
39305,note_off,104,0,0,,10,,,69,127
39306,note_on,1,0,0,,10,,,81,127
39410,note_off,104,0,0,,10,,,81,127
39411,note_on,1,0,0,,1,,,73,127
39515,note_off,104,0,0,,1,,,73,127
39516,note_on,1,0,0,,4,,,76,127
39620,note_off,104,0,0,,4,,,76,127
39621,note_on,1,0,0,,10,,,69,127
39725,note_off,104,0,0,,10,,,69,127
39727,note_on,2,0,0,,1,,,73,127
39831,note_off,104,0,0,,1,,,73,127
39832,note_on,1,0,0,,4,,,64,127
39936,note_off,104,0,0,,4,,,64,127
39937,note_on,1,0,0,,10,,,69,127
40041,note_off,104,0,0,,10,,,69,127
40041,note_off,0,0,0,,10,,,45,127
40042,note_on,1,0,0,,1,,,61,127
40146,note_off,104,0,0,,1,,,61,127
40148,note_on,2,0,0,,4,,,64,127
40252,note_off,104,0,0,,4,,,64,127
40253,note_on,1,0,0,,10,,,57,127
40357,note_off,104,0,0,,10,,,57,127
40358,note_on,1,0,0,,1,,,61,127
40462,note_off,104,0,0,,1,,,61,127
40463,note_on,1,0,0,,4,,,52,127
40567,note_off,104,0,0,,4,,,52,127
40568,note_on,1,0,0,,10,,,57,127
40672,note_off,104,0,0,,10,,,57,127
40674,note_on,2,0,0,,1,,,49,127
40778,note_off,104,0,0,,1,,,49,127
40779,note_on,1,0,0,,4,,,52,127
40883,note_off,104,0,0,,4,,,52,127
40901,note_on,18,0,0,,10,,,45,127
42292,note_off,1391,0,0,,10,,,45,127
42364,note_on,72,0,0,,4,,,76,127
42624,note_off,260,0,0,,4,,,76,127
42628,note_on,4,0,0,,5,,,77,127
42888,note_off,260,0,0,,5,,,77,127
42890,note_on,2,0,0,,7,,,79,127
43150,note_off,260,0,0,,7,,,79,127
43154,note_on,4,0,0,,11,,,58,127
43154,note_on,0,0,0,,4,,,76,127
43154,note_on,0,0,0,,7,,,67,127
43414,note_off,260,0,0,,7,,,67,127
43414,note_off,0,0,0,,11,,,58,127
43416,note_on,2,0,0,,10,,,57,127
43416,note_on,0,0,0,,10,,,69,127
43674,note_off,258,0,0,,4,,,76,127
43676,note_off,2,0,0,,10,,,69,127
43676,note_off,0,0,0,,10,,,57,127
43680,note_on,4,0,0,,7,,,55,127
43680,note_on,0,0,0,,11,,,70,127
43680,note_on,0,0,0,,2,,,74,127
43940,note_off,260,0,0,,2,,,74,127
43940,note_off,0,0,0,,11,,,70,127
43940,note_off,0,0,0,,7,,,55,127
43942,note_on,2,0,0,,1,,,61,127
43942,note_on,0,0,0,,4,,,76,127
43942,note_on,0,0,0,,10,,,69,127
44202,note_off,260,0,0,,4,,,76,127
44206,note_on,4,0,0,,5,,,77,127
44466,note_off,260,0,0,,5,,,77,127
44466,note_off,0,0,0,,1,,,61,127
44468,note_on,2,0,0,,2,,,62,127
44468,note_on,0,0,0,,4,,,76,127
44728,note_off,260,0,0,,4,,,76,127
44728,note_off,0,0,0,,2,,,62,127
44728,note_off,0,0,0,,10,,,69,127
44732,note_on,4,0,0,,4,,,64,127
44732,note_on,0,0,0,,1,,,73,127
44732,note_on,0,0,0,,7,,,67,127
44992,note_off,260,0,0,,7,,,67,127
44992,note_off,0,0,0,,1,,,73,127
44992,note_off,0,0,0,,4,,,64,127
44994,note_on,2,0,0,,5,,,65,127
44994,note_on,0,0,0,,10,,,69,127
44994,note_on,0,0,0,,2,,,74,127
45254,note_off,260,0,0,,5,,,65,127
45258,note_on,4,0,0,,2,,,62,127
45518,note_off,260,0,0,,2,,,62,127
45518,note_off,0,0,0,,2,,,74,127
45518,note_off,0,0,0,,10,,,69,127
45520,note_on,2,0,0,,1,,,61,127
45520,note_on,0,0,0,,10,,,69,127
45520,note_on,0,0,0,,4,,,76,127
45780,note_off,260,0,0,,4,,,76,127
45780,note_off,0,0,0,,1,,,61,127
45784,note_on,4,0,0,,2,,,62,127
45784,note_on,0,0,0,,5,,,77,127
46044,note_off,260,0,0,,5,,,77,127
46044,note_off,0,0,0,,2,,,62,127
46046,note_on,2,0,0,,11,,,58,127
46046,note_on,0,0,0,,7,,,79,127
46306,note_off,260,0,0,,7,,,79,127
46306,note_off,0,0,0,,11,,,58,127
46306,note_off,0,0,0,,10,,,69,127
46310,note_on,4,0,0,,5,,,53,127
46310,note_on,0,0,0,,2,,,62,127
46310,note_on,0,0,0,,10,,,81,127
46570,note_off,260,0,0,,10,,,81,127
46572,note_on,2,0,0,,11,,,82,127
46832,note_off,260,0,0,,11,,,82,127
46833,note_off,1,0,0,,5,,,53,127
46835,note_on,2,0,0,,7,,,55,127
46835,note_on,0,0,0,,2,,,74,127
47095,note_off,260,0,0,,2,,,74,127
47095,note_off,0,0,0,,7,,,55,127
47095,note_off,0,0,0,,2,,,62,127
47097,note_on,2,0,0,,10,,,57,127
47097,note_on,0,0,0,,10,,,69,127
47097,note_on,0,0,0,,1,,,73,127
47357,note_off,260,0,0,,1,,,73,127
47361,note_on,4,0,0,,4,,,76,127
47446,note_off,85,0,0,,4,,,76,127
47448,note_on,2,0,0,,2,,,74,127
47533,note_off,85,0,0,,2,,,74,127
47535,note_on,2,0,0,,4,,,76,127
47620,note_off,85,0,0,,4,,,76,127
47620,note_off,0,0,0,,10,,,69,127
47620,note_off,0,0,0,,10,,,57,127
47624,note_on,4,0,0,,11,,,58,127
47624,note_on,0,0,0,,7,,,67,127
47624,note_on,0,0,0,,2,,,74,127
47709,note_off,85,0,0,,2,,,74,127
47711,note_on,2,0,0,,1,,,73,127
47796,note_off,85,0,0,,1,,,73,127
47798,note_on,2,0,0,,2,,,74,127
47883,note_off,85,0,0,,2,,,74,127
47883,note_off,0,0,0,,7,,,67,127
47883,note_off,0,0,0,,11,,,58,127
47885,note_on,2,0,0,,10,,,57,127
47885,note_on,0,0,0,,4,,,76,127
48149,note_on,264,0,0,,10,,,69,127
48409,note_off,260,0,0,,10,,,69,127
48411,note_on,2,0,0,,7,,,67,127
48671,note_off,260,0,0,,7,,,67,127
48671,note_off,0,0,0,,4,,,76,127
48671,note_off,0,0,0,,10,,,57,127
48675,note_on,4,0,0,,10,,,57,127
48675,note_on,0,0,0,,2,,,74,127
48675,note_on,0,0,0,,5,,,65,127
48935,note_off,260,0,0,,5,,,65,127
48935,note_off,0,0,0,,2,,,74,127
48940,note_on,5,0,0,,1,,,73,127
48940,note_on,0,0,0,,4,,,64,127
49199,note_off,259,0,0,,10,,,57,127
49203,note_off,4,0,0,,4,,,64,127
49203,note_off,0,0,0,,1,,,73,127
49207,note_on,4,0,0,,5,,,65,127
49207,note_on,0,0,0,,2,,,74,127
49207,note_on,0,0,0,,8,,,56,127
49469,note_off,262,0,0,,8,,,56,127
49469,note_off,0,0,0,,2,,,74,127
49469,note_off,0,0,0,,5,,,65,127
49471,note_on,2,0,0,,1,,,73,127
49471,note_on,0,0,0,,4,,,64,127
49471,note_on,0,0,0,,10,,,57,127
49733,note_off,262,0,0,,4,,,64,127
49733,note_off,0,0,0,,1,,,73,127
49737,note_on,4,0,0,,5,,,77,127
49737,note_on,0,0,0,,10,,,69,127
49999,note_off,262,0,0,,10,,,69,127
49999,note_off,0,0,0,,5,,,77,127
49999,note_off,0,0,0,,10,,,57,127
50001,note_on,2,0,0,,4,,,76,127
50001,note_on,0,0,0,,7,,,67,127
50001,note_on,0,0,0,,8,,,56,127
50263,note_off,262,0,0,,8,,,56,127
50263,note_off,0,0,0,,7,,,67,127
50263,note_off,0,0,0,,4,,,76,127
50267,note_on,4,0,0,,2,,,74,127
50267,note_on,0,0,0,,5,,,65,127
50267,note_on,0,0,0,,10,,,57,127
50529,note_off,262,0,0,,5,,,65,127
50529,note_off,0,0,0,,2,,,74,127
50531,note_on,2,0,0,,1,,,73,127
50531,note_on,0,0,0,,4,,,64,127
50793,note_off,262,0,0,,4,,,64,127
50793,note_off,0,0,0,,1,,,73,127
50794,note_off,1,0,0,,10,,,57,127
50796,note_on,2,0,0,,2,,,74,127
50796,note_on,0,0,0,,5,,,65,127
50796,note_on,0,0,0,,8,,,56,127
51058,note_off,262,0,0,,8,,,56,127
51058,note_off,0,0,0,,5,,,65,127
51058,note_off,0,0,0,,2,,,74,127
51060,note_on,2,0,0,,1,,,73,127
51060,note_on,0,0,0,,4,,,64,127
51060,note_on,0,0,0,,10,,,57,127
51322,note_off,262,0,0,,4,,,64,127
51322,note_off,0,0,0,,1,,,73,127
51326,note_on,4,0,0,,10,,,81,127
51588,note_off,262,0,0,,10,,,81,127
51588,note_off,0,0,0,,10,,,57,127
51600,note_on,12,0,0,,8,,,56,127
51600,note_on,0,0,0,,5,,,77,127
51872,note_off,272,0,0,,5,,,77,127
51872,note_off,0,0,0,,8,,,56,127
51877,note_on,5,0,0,,10,,,57,127
51877,note_on,0,0,0,,5,,,65,127
51877,note_on,0,0,0,,4,,,76,127
52012,note_off,135,0,0,,4,,,76,127
52014,note_on,2,0,0,,2,,,74,127
52148,note_off,134,0,0,,5,,,65,127
52149,note_off,1,0,0,,2,,,74,127
52151,note_on,2,0,0,,4,,,64,127
52151,note_on,0,0,0,,1,,,73,127
52425,note_off,274,0,0,,10,,,57,127
52439,note_off,14,0,0,,1,,,73,127
52439,note_off,0,0,0,,4,,,64,127
52440,note_on,1,0,0,,5,,,65,127
52440,note_on,0,0,0,,2,,,74,127
52440,note_on,0,0,0,,8,,,56,127
52740,note_off,300,0,0,,8,,,56,127
52740,note_off,0,0,0,,2,,,74,127
52740,note_off,0,0,0,,5,,,65,127
52764,note_on,24,0,0,,10,,,57,127
52764,note_on,0,0,0,,1,,,73,127
52764,note_on,0,0,0,,4,,,64,127
53064,note_off,300,0,0,,1,,,73,127
53088,note_on,24,0,0,,1,,,73,127
53089,note_off,1,0,0,,4,,,64,127
53089,note_off,0,0,0,,10,,,57,127
53191,note_off,102,0,0,,1,,,73,127
53191,note_on,0,0,0,,10,,,69,127
53295,note_off,104,0,0,,10,,,69,127
53297,note_on,2,0,0,,4,,,76,127
53505,note_off,208,0,0,,4,,,76,127
53507,note_on,2,0,0,,4,,,76,127
53715,note_off,208,0,0,,4,,,76,127
53717,note_on,2,0,0,,4,,,76,127
53928,note_on,211,0,0,,1,,,61,127
54032,note_off,104,0,0,,1,,,61,127
54033,note_on,1,0,0,,10,,,57,127
54137,note_off,104,0,0,,10,,,57,127
54139,note_on,2,0,0,,4,,,64,127
54347,note_off,208,0,0,,4,,,64,127
54349,note_on,2,0,0,,4,,,64,127
54557,note_off,208,0,0,,4,,,64,127
54559,note_on,2,0,0,,4,,,64,127
54661,note_off,102,0,0,,4,,,76,127
54665,note_on,4,0,0,,6,,,78,127
54766,note_off,101,0,0,,4,,,64,127
54768,note_off,2,0,0,,6,,,78,127
54769,note_on,1,0,0,,7,,,79,127
54769,note_on,0,0,0,,6,,,66,127
54873,note_off,104,0,0,,7,,,79,127
54874,note_on,1,0,0,,10,,,81,127
54976,note_off,102,0,0,,6,,,66,127
54977,note_off,1,0,0,,10,,,81,127
54978,note_on,1,0,0,,7,,,79,127
54978,note_on,0,0,0,,7,,,67,127
55082,note_off,104,0,0,,7,,,79,127
55083,note_on,1,0,0,,6,,,78,127
55185,note_off,102,0,0,,7,,,67,127
55186,note_off,1,0,0,,6,,,78,127
55188,note_on,2,0,0,,4,,,76,127
55188,note_on,0,0,0,,7,,,55,127
55292,note_off,104,0,0,,4,,,76,127
55293,note_on,1,0,0,,2,,,74,127
55395,note_off,102,0,0,,7,,,55,127
55396,note_off,1,0,0,,2,,,74,127
55397,note_on,1,0,0,,1,,,73,127
55397,note_on,0,0,0,,10,,,57,127
55501,note_off,104,0,0,,1,,,73,127
55502,note_on,1,0,0,,2,,,74,127
55604,note_off,102,0,0,,10,,,57,127
55605,note_off,1,0,0,,2,,,74,127
55606,note_on,1,0,0,,4,,,76,127
55606,note_on,0,0,0,,12,,,59,127
55710,note_off,104,0,0,,4,,,76,127
55712,note_on,2,0,0,,2,,,74,127
55813,note_off,101,0,0,,12,,,59,127
55815,note_off,2,0,0,,2,,,74,127
55816,note_on,1,0,0,,1,,,73,127
55816,note_on,0,0,0,,1,,,61,127
55920,note_off,104,0,0,,1,,,73,127
55921,note_on,1,0,0,,12,,,71,127
56023,note_off,102,0,0,,1,,,61,127
56024,note_off,1,0,0,,12,,,71,127
56025,note_on,1,0,0,,10,,,69,127
56025,note_on,0,0,0,,10,,,57,127
56129,note_off,104,0,0,,10,,,69,127
56130,note_on,1,0,0,,7,,,67,127
56232,note_off,102,0,0,,10,,,57,127
56233,note_off,1,0,0,,7,,,67,127
56235,note_on,2,0,0,,6,,,66,127
56235,note_on,0,0,0,,2,,,50,127
56339,note_off,104,0,0,,6,,,66,127
56340,note_on,1,0,0,,4,,,64,127
56442,note_off,102,0,0,,2,,,50,127
56443,note_off,1,0,0,,4,,,64,127
56444,note_on,1,0,0,,7,,,67,127
56444,note_on,0,0,0,,4,,,52,127
56548,note_off,104,0,0,,7,,,67,127
56549,note_on,1,0,0,,6,,,66,127
56651,note_off,102,0,0,,4,,,52,127
56652,note_off,1,0,0,,6,,,66,127
56653,note_on,1,0,0,,10,,,69,127
56653,note_on,0,0,0,,6,,,54,127
56757,note_off,104,0,0,,10,,,69,127
56759,note_on,2,0,0,,7,,,67,127
56860,note_off,101,0,0,,6,,,54,127
56862,note_off,2,0,0,,7,,,67,127
56863,note_on,1,0,0,,12,,,71,127
56863,note_on,0,0,0,,7,,,55,127
56967,note_off,104,0,0,,12,,,71,127
56968,note_on,1,0,0,,10,,,69,127
57070,note_off,102,0,0,,7,,,55,127
57071,note_off,1,0,0,,10,,,69,127
57072,note_on,1,0,0,,1,,,73,127
57072,note_on,0,0,0,,10,,,57,127
57176,note_off,104,0,0,,1,,,73,127
57177,note_on,1,0,0,,12,,,71,127
57279,note_off,102,0,0,,10,,,57,127
57280,note_off,1,0,0,,12,,,71,127
57282,note_on,2,0,0,,2,,,74,127
57282,note_on,0,0,0,,12,,,59,127
57386,note_off,104,0,0,,2,,,74,127
57387,note_on,1,0,0,,1,,,73,127
57489,note_off,102,0,0,,12,,,59,127
57490,note_off,1,0,0,,1,,,73,127
57491,note_on,1,0,0,,4,,,76,127
57491,note_on,0,0,0,,1,,,61,127
57595,note_off,104,0,0,,4,,,76,127
57596,note_on,1,0,0,,2,,,74,127
57698,note_off,102,0,0,,1,,,61,127
57699,note_off,1,0,0,,2,,,74,127
57700,note_on,1,0,0,,6,,,78,127
57700,note_on,0,0,0,,2,,,62,127
57804,note_off,104,0,0,,6,,,78,127
57808,note_on,4,0,0,,2,,,74,127
57908,note_off,100,0,0,,2,,,62,127
57912,note_off,4,0,0,,2,,,74,127
57912,note_on,0,0,0,,4,,,76,127
57912,note_on,0,0,0,,10,,,57,127
58016,note_off,104,0,0,,4,,,76,127
58017,note_on,1,0,0,,2,,,74,127
58121,note_off,104,0,0,,2,,,74,127
58122,note_on,1,0,0,,1,,,73,127
58226,note_off,104,0,0,,1,,,73,127
58227,note_on,1,0,0,,12,,,71,127
58331,note_off,104,0,0,,12,,,71,127
58335,note_on,4,0,0,,10,,,69,127
58439,note_off,104,0,0,,10,,,69,127
58439,note_on,0,0,0,,7,,,67,127
58543,note_off,104,0,0,,7,,,67,127
58543,note_off,0,0,0,,10,,,57,127
58544,note_on,1,0,0,,6,,,66,127
58648,note_off,104,0,0,,6,,,66,127
58649,note_on,1,0,0,,4,,,64,127
58753,note_off,104,0,0,,4,,,64,127
58755,note_on,2,0,0,,6,,,66,127
58755,note_on,0,0,0,,2,,,50,127
58859,note_off,104,0,0,,2,,,50,127
58861,note_on,2,0,0,,1,,,49,127
58962,note_off,101,0,0,,6,,,66,127
58964,note_off,2,0,0,,1,,,49,127
58964,note_on,0,0,0,,7,,,67,127
58964,note_on,0,0,0,,4,,,52,127
59068,note_off,104,0,0,,4,,,52,127
59069,note_on,1,0,0,,2,,,50,127
59171,note_off,102,0,0,,7,,,67,127
59172,note_off,1,0,0,,2,,,50,127
59173,note_on,1,0,0,,10,,,69,127
59173,note_on,0,0,0,,6,,,54,127
59277,note_off,104,0,0,,6,,,54,127
59279,note_on,2,0,0,,4,,,52,127
59380,note_off,101,0,0,,10,,,69,127
59382,note_off,2,0,0,,4,,,52,127
59384,note_on,2,0,0,,12,,,71,127
59384,note_on,0,0,0,,7,,,55,127
59488,note_off,104,0,0,,7,,,55,127
59488,note_on,0,0,0,,6,,,54,127
59592,note_off,104,0,0,,6,,,54,127
59592,note_off,0,0,0,,12,,,71,127
59593,note_on,1,0,0,,1,,,73,127
59593,note_on,0,0,0,,10,,,57,127
59697,note_off,104,0,0,,10,,,57,127
59698,note_on,1,0,0,,7,,,55,127
59800,note_off,102,0,0,,1,,,73,127
59801,note_off,1,0,0,,7,,,55,127
59803,note_on,2,0,0,,2,,,74,127
59803,note_on,0,0,0,,12,,,59,127
59907,note_off,104,0,0,,12,,,59,127
59909,note_on,2,0,0,,10,,,57,127
60010,note_off,101,0,0,,2,,,74,127
60012,note_off,2,0,0,,10,,,57,127
60012,note_on,0,0,0,,4,,,76,127
60012,note_on,0,0,0,,1,,,61,127
60116,note_off,104,0,0,,1,,,61,127
60117,note_on,1,0,0,,12,,,59,127
60219,note_off,102,0,0,,4,,,76,127
60220,note_off,1,0,0,,12,,,59,127
60221,note_on,1,0,0,,6,,,78,127
60221,note_on,0,0,0,,2,,,62,127
60325,note_off,104,0,0,,2,,,62,127
60327,note_on,2,0,0,,2,,,50,127
60428,note_off,101,0,0,,6,,,78,127
60430,note_off,2,0,0,,2,,,50,127
60432,note_on,2,0,0,,4,,,76,127
60432,note_on,0,0,0,,10,,,45,127
60536,note_off,104,0,0,,4,,,76,127
60536,note_on,0,0,0,,2,,,74,127
60640,note_off,104,0,0,,2,,,74,127
60641,note_on,1,0,0,,1,,,73,127
60745,note_off,104,0,0,,1,,,73,127
60747,note_on,2,0,0,,12,,,71,127
60851,note_off,104,0,0,,12,,,71,127
60852,note_on,1,0,0,,10,,,69,127
60956,note_off,104,0,0,,10,,,69,127
60958,note_on,2,0,0,,7,,,67,127
61062,note_off,104,0,0,,7,,,67,127
61062,note_on,0,0,0,,6,,,66,127
61166,note_off,104,0,0,,6,,,66,127
61167,note_on,1,0,0,,4,,,64,127
61271,note_off,104,0,0,,4,,,64,127
61271,note_off,0,0,0,,10,,,45,127
61273,note_on,2,0,0,,6,,,66,127
61273,note_on,0,0,0,,2,,,50,127
61377,note_off,104,0,0,,2,,,50,127
61378,note_on,1,0,0,,2,,,62,127
61480,note_off,102,0,0,,6,,,66,127
61481,note_off,1,0,0,,2,,,62,127
61483,note_on,2,0,0,,2,,,86,127
61483,note_on,0,0,0,,1,,,61,127
61587,note_off,104,0,0,,1,,,61,127
61587,note_on,0,0,0,,2,,,62,127
61691,note_off,104,0,0,,2,,,62,127
61692,note_on,1,0,0,,6,,,66,127
61796,note_off,104,0,0,,6,,,66,127
61798,note_on,2,0,0,,2,,,62,127
61902,note_off,104,0,0,,2,,,62,127
61902,note_off,0,0,0,,2,,,86,127
61903,note_on,1,0,0,,12,,,83,127
61903,note_on,0,0,0,,7,,,67,127
62007,note_off,104,0,0,,7,,,67,127
62009,note_on,2,0,0,,2,,,62,127
62110,note_off,101,0,0,,12,,,83,127
62112,note_off,2,0,0,,2,,,62,127
62112,note_on,0,0,0,,10,,,81,127
62112,note_on,0,0,0,,2,,,50,127
62216,note_off,104,0,0,,2,,,50,127
62217,note_on,1,0,0,,2,,,62,127
62319,note_off,102,0,0,,10,,,81,127
62320,note_off,1,0,0,,2,,,62,127
62322,note_on,2,0,0,,2,,,86,127
62322,note_on,0,0,0,,1,,,61,127
62426,note_off,104,0,0,,1,,,61,127
62427,note_on,1,0,0,,2,,,62,127
62531,note_off,104,0,0,,2,,,62,127
62533,note_on,2,0,0,,6,,,66,127
62637,note_off,104,0,0,,6,,,66,127
62637,note_on,0,0,0,,2,,,62,127
62741,note_off,104,0,0,,2,,,62,127
62741,note_off,0,0,0,,2,,,86,127
62743,note_on,2,0,0,,10,,,81,127
62743,note_on,0,0,0,,10,,,69,127
62847,note_off,104,0,0,,10,,,69,127
62848,note_on,1,0,0,,6,,,66,127
62950,note_off,102,0,0,,10,,,81,127
62951,note_off,1,0,0,,6,,,66,127
62952,note_on,1,0,0,,6,,,78,127
62952,note_on,0,0,0,,2,,,50,127
63056,note_off,104,0,0,,2,,,50,127
63058,note_on,2,0,0,,2,,,62,127
63159,note_off,101,0,0,,6,,,78,127
63161,note_off,2,0,0,,2,,,62,127
63161,note_on,0,0,0,,2,,,86,127
63161,note_on,0,0,0,,1,,,61,127
63265,note_off,104,0,0,,1,,,61,127
63267,note_on,2,0,0,,2,,,62,127
63371,note_off,104,0,0,,2,,,62,127
63372,note_on,1,0,0,,6,,,66,127
63476,note_off,104,0,0,,6,,,66,127
63477,note_on,1,0,0,,2,,,62,127
63579,note_off,102,0,0,,2,,,86,127
63580,note_off,1,0,0,,2,,,62,127
63582,note_on,2,0,0,,12,,,83,127
63582,note_on,0,0,0,,12,,,71,127
63686,note_off,104,0,0,,12,,,71,127
63686,note_on,0,0,0,,7,,,67,127
63790,note_off,104,0,0,,7,,,67,127
63790,note_off,0,0,0,,12,,,83,127
63792,note_on,2,0,0,,10,,,81,127
63792,note_on,0,0,0,,2,,,38,127
63896,note_off,104,0,0,,10,,,81,127
63897,note_on,1,0,0,,7,,,79,127
64001,note_off,104,0,0,,7,,,79,127
64002,note_on,1,0,0,,6,,,78,127
64106,note_off,104,0,0,,6,,,78,127
64108,note_on,2,0,0,,4,,,76,127
64212,note_off,104,0,0,,4,,,76,127
64212,note_on,0,0,0,,2,,,74,127
64316,note_off,104,0,0,,2,,,74,127
64318,note_off,2,0,0,,2,,,38,127
64318,note_on,0,0,0,,1,,,73,127
64422,note_off,104,0,0,,1,,,73,127
64423,note_on,1,0,0,,12,,,71,127
64423,note_on,0,0,0,,6,,,54,127
64527,note_off,104,0,0,,12,,,71,127
64528,note_on,1,0,0,,10,,,69,127
64630,note_off,102,0,0,,6,,,54,127
64631,note_off,1,0,0,,10,,,69,127
64633,note_on,2,0,0,,12,,,71,127
64633,note_on,0,0,0,,7,,,55,127
64737,note_off,104,0,0,,12,,,71,127
64738,note_on,1,0,0,,7,,,79,127
64840,note_off,102,0,0,,7,,,55,127
64841,note_off,1,0,0,,7,,,79,127
64842,note_on,1,0,0,,6,,,78,127
64842,note_on,0,0,0,,7,,,43,127
64946,note_off,104,0,0,,6,,,78,127
64947,note_on,1,0,0,,4,,,76,127
65049,note_off,102,0,0,,7,,,43,127
65050,note_off,1,0,0,,4,,,76,127
65051,note_on,1,0,0,,6,,,78,127
65051,note_on,0,0,0,,10,,,45,127
65155,note_off,104,0,0,,6,,,78,127
65157,note_on,2,0,0,,2,,,74,127
65258,note_off,101,0,0,,10,,,45,127
65260,note_off,2,0,0,,2,,,74,127
65261,note_on,1,0,0,,4,,,76,127
65261,note_on,0,0,0,,10,,,57,127
65365,note_off,104,0,0,,4,,,76,127
65366,note_on,1,0,0,,1,,,73,127
65468,note_off,102,0,0,,10,,,57,127
65469,note_off,1,0,0,,1,,,73,127
65470,note_on,1,0,0,,2,,,74,127
65470,note_on,0,0,0,,2,,,50,127
65574,note_off,104,0,0,,2,,,50,127
65575,note_on,1,0,0,,2,,,62,127
65677,note_off,102,0,0,,2,,,74,127
65678,note_off,1,0,0,,2,,,62,127
65680,note_on,2,0,0,,2,,,86,127
65680,note_on,0,0,0,,1,,,61,127
65784,note_off,104,0,0,,1,,,61,127
65785,note_on,1,0,0,,2,,,62,127
65889,note_off,104,0,0,,2,,,62,127
65890,note_on,1,0,0,,6,,,66,127
65994,note_off,104,0,0,,6,,,66,127
65995,note_on,1,0,0,,2,,,62,127
66099,note_off,104,0,0,,2,,,62,127
66099,note_off,0,0,0,,2,,,86,127
66100,note_on,1,0,0,,12,,,83,127
66100,note_on,0,0,0,,7,,,67,127
66204,note_off,104,0,0,,7,,,67,127
66206,note_on,2,0,0,,2,,,62,127
66307,note_off,101,0,0,,12,,,83,127
66309,note_off,2,0,0,,2,,,62,127
66310,note_on,1,0,0,,10,,,81,127
66310,note_on,0,0,0,,2,,,50,127
66414,note_off,104,0,0,,2,,,50,127
66415,note_on,1,0,0,,2,,,62,127
66517,note_off,102,0,0,,10,,,81,127
66518,note_off,1,0,0,,2,,,62,127
66519,note_on,1,0,0,,2,,,86,127
66519,note_on,0,0,0,,1,,,61,127
66623,note_off,104,0,0,,1,,,61,127
66624,note_on,1,0,0,,2,,,62,127
66728,note_off,104,0,0,,2,,,62,127
66730,note_on,2,0,0,,6,,,66,127
66834,note_off,104,0,0,,6,,,66,127
66835,note_on,1,0,0,,2,,,62,127
66937,note_off,102,0,0,,2,,,86,127
66938,note_off,1,0,0,,2,,,62,127
66939,note_on,1,0,0,,10,,,81,127
66939,note_on,0,0,0,,10,,,69,127
67043,note_off,104,0,0,,10,,,69,127
67044,note_on,1,0,0,,6,,,66,127
67146,note_off,102,0,0,,10,,,81,127
67147,note_off,1,0,0,,6,,,66,127
67148,note_on,1,0,0,,6,,,78,127
67148,note_on,0,0,0,,2,,,50,127
67252,note_off,104,0,0,,2,,,50,127
67254,note_on,2,0,0,,2,,,62,127
67355,note_off,101,0,0,,6,,,78,127
67357,note_off,2,0,0,,2,,,62,127
67358,note_on,1,0,0,,2,,,86,127
67358,note_on,0,0,0,,1,,,61,127
67462,note_off,104,0,0,,1,,,61,127
67463,note_on,1,0,0,,2,,,62,127
67567,note_off,104,0,0,,2,,,62,127
67568,note_on,1,0,0,,6,,,66,127
67672,note_off,104,0,0,,6,,,66,127
67673,note_on,1,0,0,,2,,,62,127
67777,note_off,104,0,0,,2,,,62,127
67777,note_off,0,0,0,,2,,,86,127
67781,note_on,4,0,0,,12,,,83,127
67781,note_on,0,0,0,,12,,,71,127
67885,note_off,104,0,0,,12,,,71,127
67885,note_on,0,0,0,,7,,,67,127
67989,note_off,104,0,0,,7,,,67,127
67989,note_off,0,0,0,,12,,,83,127
67990,note_on,1,0,0,,10,,,81,127
67990,note_on,0,0,0,,2,,,38,127
68094,note_off,104,0,0,,10,,,81,127
68095,note_on,1,0,0,,7,,,79,127
68199,note_off,104,0,0,,7,,,79,127
68200,note_on,1,0,0,,6,,,78,127
68304,note_off,104,0,0,,6,,,78,127
68308,note_on,4,0,0,,4,,,76,127
68412,note_off,104,0,0,,4,,,76,127
68412,note_on,0,0,0,,2,,,74,127
68516,note_off,104,0,0,,2,,,74,127
68517,note_off,1,0,0,,2,,,38,127
68517,note_on,0,0,0,,1,,,73,127
68621,note_off,104,0,0,,1,,,73,127
68622,note_on,1,0,0,,12,,,71,127
68622,note_on,0,0,0,,6,,,54,127
68726,note_off,104,0,0,,12,,,71,127
68728,note_on,2,0,0,,10,,,69,127
68829,note_off,101,0,0,,6,,,54,127
68831,note_off,2,0,0,,10,,,69,127
68833,note_on,2,0,0,,12,,,71,127
68833,note_on,0,0,0,,7,,,55,127
68937,note_off,104,0,0,,12,,,71,127
68937,note_on,0,0,0,,7,,,79,127
69041,note_off,104,0,0,,7,,,79,127
69041,note_off,0,0,0,,7,,,55,127
69042,note_on,1,0,0,,6,,,78,127
69042,note_on,0,0,0,,7,,,43,127
69146,note_off,104,0,0,,6,,,78,127
69147,note_on,1,0,0,,4,,,76,127
69249,note_off,102,0,0,,7,,,43,127
69250,note_off,1,0,0,,4,,,76,127
69252,note_on,2,0,0,,6,,,78,127
69252,note_on,0,0,0,,10,,,45,127
69356,note_off,104,0,0,,6,,,78,127
69358,note_on,2,0,0,,2,,,74,127
69459,note_off,101,0,0,,10,,,45,127
69461,note_off,2,0,0,,2,,,74,127
69461,note_on,0,0,0,,4,,,76,127
69461,note_on,0,0,0,,10,,,57,127
69565,note_off,104,0,0,,4,,,76,127
69566,note_on,1,0,0,,1,,,73,127
69668,note_off,102,0,0,,10,,,57,127
69669,note_off,1,0,0,,1,,,73,127
69670,note_on,1,0,0,,2,,,74,127
69670,note_on,0,0,0,,2,,,62,127
69774,note_off,104,0,0,,2,,,74,127
69776,note_on,2,0,0,,1,,,73,127
69877,note_off,101,0,0,,2,,,62,127
69879,note_off,2,0,0,,1,,,73,127
69881,note_on,2,0,0,,2,,,74,127
69881,note_on,0,0,0,,1,,,61,127
69985,note_off,104,0,0,,2,,,74,127
69985,note_on,0,0,0,,1,,,73,127
70089,note_off,104,0,0,,1,,,73,127
70089,note_off,0,0,0,,1,,,61,127
70090,note_on,1,0,0,,4,,,76,127
70090,note_on,0,0,0,,12,,,59,127
70194,note_off,104,0,0,,4,,,76,127
70195,note_on,1,0,0,,2,,,74,127
70297,note_off,102,0,0,,12,,,59,127
70298,note_off,1,0,0,,2,,,74,127
70300,note_on,2,0,0,,6,,,78,127
70300,note_on,0,0,0,,10,,,57,127
70404,note_off,104,0,0,,6,,,78,127
70406,note_on,2,0,0,,4,,,76,127
70507,note_off,101,0,0,,10,,,57,127
70509,note_off,2,0,0,,4,,,76,127
70509,note_on,0,0,0,,7,,,79,127
70509,note_on,0,0,0,,7,,,55,127
70613,note_off,104,0,0,,7,,,79,127
70614,note_on,1,0,0,,7,,,79,127
70716,note_off,102,0,0,,7,,,55,127
70717,note_off,1,0,0,,7,,,79,127
70719,note_on,2,0,0,,6,,,78,127
70719,note_on,0,0,0,,7,,,43,127
70823,note_off,104,0,0,,6,,,78,127
70824,note_on,1,0,0,,4,,,76,127
70926,note_off,102,0,0,,7,,,43,127
70927,note_off,1,0,0,,4,,,76,127
70929,note_on,2,0,0,,2,,,74,127
70929,note_on,0,0,0,,10,,,45,127
71033,note_off,104,0,0,,2,,,74,127
71033,note_on,0,0,0,,4,,,76,127
71137,note_off,104,0,0,,4,,,76,127
71137,note_off,0,0,0,,10,,,45,127
71138,note_on,1,0,0,,2,,,74,127
71138,note_on,0,0,0,,10,,,57,127
71242,note_off,104,0,0,,2,,,74,127
71244,note_on,2,0,0,,1,,,73,127
71345,note_off,101,0,0,,10,,,57,127
71347,note_off,2,0,0,,1,,,73,127
71348,note_on,1,0,0,,2,,,74,127
71348,note_on,0,0,0,,2,,,62,127
71452,note_off,104,0,0,,2,,,74,127
71454,note_on,2,0,0,,1,,,73,127
71555,note_off,101,0,0,,2,,,62,127
71557,note_off,2,0,0,,1,,,73,127
71557,note_on,0,0,0,,4,,,76,127
71557,note_on,0,0,0,,1,,,61,127
71661,note_off,104,0,0,,4,,,76,127
71662,note_on,1,0,0,,2,,,74,127
71764,note_off,102,0,0,,1,,,61,127
71765,note_off,1,0,0,,2,,,74,127
71767,note_on,2,0,0,,6,,,78,127
71767,note_on,0,0,0,,12,,,59,127
71871,note_off,104,0,0,,6,,,78,127
71872,note_on,1,0,0,,4,,,76,127
71974,note_off,102,0,0,,12,,,59,127
71975,note_off,1,0,0,,4,,,76,127
71977,note_on,2,0,0,,7,,,79,127
71977,note_on,0,0,0,,10,,,57,127
72081,note_off,104,0,0,,7,,,79,127
72081,note_on,0,0,0,,6,,,78,127
72185,note_off,104,0,0,,6,,,78,127
72185,note_off,0,0,0,,10,,,57,127
72186,note_on,1,0,0,,12,,,83,127
72186,note_on,0,0,0,,7,,,55,127
72290,note_off,104,0,0,,12,,,83,127
72292,note_on,2,0,0,,12,,,83,127
72393,note_off,101,0,0,,7,,,55,127
72395,note_off,2,0,0,,12,,,83,127
72396,note_on,1,0,0,,10,,,81,127
72396,note_on,0,0,0,,7,,,43,127
72500,note_off,104,0,0,,10,,,81,127
72502,note_on,2,0,0,,7,,,79,127
72603,note_off,101,0,0,,7,,,43,127
72605,note_off,2,0,0,,7,,,79,127
72605,note_on,0,0,0,,6,,,78,127
72605,note_on,0,0,0,,10,,,45,127
72709,note_off,104,0,0,,6,,,78,127
72711,note_on,2,0,0,,4,,,76,127
72812,note_off,101,0,0,,10,,,45,127
72814,note_off,2,0,0,,4,,,76,127
72815,note_on,1,0,0,,2,,,74,127
72815,note_on,0,0,0,,10,,,57,127
72919,note_off,104,0,0,,2,,,74,127
72920,note_on,1,0,0,,1,,,73,127
73022,note_off,102,0,0,,10,,,57,127
73023,note_off,1,0,0,,1,,,73,127
73025,note_on,2,0,0,,2,,,74,127
73025,note_on,0,0,0,,2,,,62,127
73129,note_off,104,0,0,,2,,,74,127
73129,note_on,0,0,0,,1,,,73,127
73233,note_off,104,0,0,,1,,,73,127
73233,note_off,0,0,0,,2,,,62,127
73235,note_on,2,0,0,,4,,,76,127
73235,note_on,0,0,0,,1,,,61,127
73339,note_off,104,0,0,,4,,,76,127
73340,note_on,1,0,0,,2,,,74,127
73442,note_off,102,0,0,,1,,,61,127
73443,note_off,1,0,0,,2,,,74,127
73444,note_on,1,0,0,,6,,,78,127
73444,note_on,0,0,0,,12,,,59,127
73548,note_off,104,0,0,,6,,,78,127
73550,note_on,2,0,0,,4,,,76,127
73651,note_off,101,0,0,,12,,,59,127
73653,note_off,2,0,0,,4,,,76,127
73653,note_on,0,0,0,,7,,,79,127
73653,note_on,0,0,0,,10,,,57,127
73757,note_off,104,0,0,,7,,,79,127
73759,note_on,2,0,0,,6,,,78,127
73860,note_off,101,0,0,,10,,,57,127
73862,note_off,2,0,0,,6,,,78,127
73863,note_on,1,0,0,,2,,,86,127
73863,note_on,0,0,0,,7,,,55,127
73967,note_off,104,0,0,,2,,,86,127
73968,note_on,1,0,0,,12,,,83,127
74070,note_off,102,0,0,,7,,,55,127
74071,note_off,1,0,0,,12,,,83,127
74073,note_on,2,0,0,,10,,,81,127
74073,note_on,0,0,0,,7,,,43,127
74177,note_off,104,0,0,,10,,,81,127
74177,note_on,0,0,0,,7,,,79,127
74281,note_off,104,0,0,,7,,,79,127
74281,note_off,0,0,0,,7,,,43,127
74283,note_on,2,0,0,,6,,,78,127
74283,note_on,0,0,0,,10,,,45,127
74387,note_off,104,0,0,,6,,,78,127
74388,note_on,1,0,0,,4,,,76,127
74490,note_off,102,0,0,,10,,,45,127
74491,note_off,1,0,0,,4,,,76,127
74492,note_on,1,0,0,,2,,,74,127
74492,note_on,0,0,0,,10,,,33,127
74596,note_off,104,0,0,,2,,,74,127
74598,note_on,2,0,0,,1,,,73,127
74699,note_off,101,0,0,,10,,,33,127
74701,note_off,2,0,0,,1,,,73,127
74702,note_on,1,0,0,,2,,,74,127
74702,note_on,0,0,0,,2,,,38,127
74806,note_off,104,0,0,,2,,,74,127
74807,note_on,1,0,0,,2,,,86,127
74911,note_off,104,0,0,,2,,,86,127
74912,note_on,1,0,0,,6,,,78,127
75016,note_off,104,0,0,,6,,,78,127
75017,note_on,1,0,0,,10,,,81,127
75121,note_off,104,0,0,,10,,,81,127
75123,note_on,2,0,0,,2,,,74,127
75227,note_off,104,0,0,,2,,,74,127
75228,note_on,1,0,0,,6,,,78,127
75332,note_off,104,0,0,,6,,,78,127
75333,note_on,1,0,0,,10,,,69,127
75437,note_off,104,0,0,,10,,,69,127
75438,note_on,1,0,0,,2,,,74,127
75540,note_off,102,0,0,,2,,,38,127
75541,note_off,1,0,0,,2,,,74,127
75542,note_on,1,0,0,,6,,,66,127
75542,note_on,0,0,0,,2,,,38,127
75646,note_off,104,0,0,,6,,,66,127
75648,note_on,2,0,0,,10,,,69,127
75752,note_off,104,0,0,,10,,,69,127
75753,note_on,1,0,0,,2,,,62,127
75857,note_off,104,0,0,,2,,,62,127
75858,note_on,1,0,0,,6,,,66,127
75962,note_off,104,0,0,,6,,,66,127
75963,note_on,1,0,0,,10,,,57,127
76067,note_off,104,0,0,,10,,,57,127
76068,note_on,1,0,0,,2,,,62,127
76172,note_off,104,0,0,,2,,,62,127
76174,note_on,2,0,0,,6,,,54,127
76278,note_off,104,0,0,,6,,,54,127
76279,note_on,1,0,0,,10,,,57,127
76380,note_off,101,0,0,,10,,,57,127
76380,note_off,0,0,0,,2,,,38,127
76414,note_on,34,0,0,,2,,,38,127
78544,note_off,2130,0,0,,2,,,38,127
84480,end_of_track,5936,1,0,,,,,,
