tick,type,time,meta,track,program,channel,pitch,tempo,note,velocity
0,copyright,0,1,0,,,,,,
0,program_change,0,0,0,6,0,,,,
0,pitchwheel,0,0,0,,0,0,,,
0,program_change,0,0,0,6,1,,,,
0,pitchwheel,0,0,0,,1,-590,,,
0,program_change,0,0,0,6,2,,,,
0,pitchwheel,0,0,0,,2,-272,,,
0,program_change,0,0,0,6,3,,,,
0,pitchwheel,0,0,0,,3,-353,,,
0,program_change,0,0,0,6,4,,,,
0,pitchwheel,0,0,0,,4,-560,,,
0,program_change,0,0,0,6,5,,,,
0,pitchwheel,0,0,0,,5,-80,,,
0,program_change,0,0,0,6,6,,,,
0,pitchwheel,0,0,0,,6,-625,,,
0,program_change,0,0,0,6,7,,,,
0,pitchwheel,0,0,0,,7,-130,,,
0,program_change,0,0,0,6,8,,,,
0,pitchwheel,0,0,0,,8,-512,,,
0,program_change,0,0,0,6,10,,,,
0,pitchwheel,0,0,0,,10,-464,,,
0,program_change,0,0,0,6,11,,,,
0,pitchwheel,0,0,0,,11,-208,,,
0,program_change,0,0,0,6,12,,,,
0,pitchwheel,0,0,0,,12,-553,,,
0,set_tempo,0,1,0,,,,500000,,
303,note_on,303,0,0,,0,,,72,127
606,note_on,303,0,0,,7,,,79,127
754,note_off,148,0,0,,7,,,79,127
754,note_off,0,0,0,,0,,,72,127
757,note_on,3,0,0,,0,,,72,127
905,note_off,148,0,0,,0,,,72,127
908,note_on,3,0,0,,12,,,71,127
1208,note_off,300,0,0,,12,,,71,127
1211,note_on,3,0,0,,0,,,72,127
1511,note_off,300,0,0,,0,,,72,127
1514,note_on,3,0,0,,2,,,74,127
1817,note_on,303,0,0,,7,,,79,127
1965,note_off,148,0,0,,7,,,79,127
1965,note_off,0,0,0,,2,,,74,127
1968,note_on,3,0,0,,12,,,71,127
2116,note_off,148,0,0,,12,,,71,127
2119,note_on,3,0,0,,0,,,72,127
2419,note_off,300,0,0,,0,,,72,127
2422,note_on,3,0,0,,2,,,74,127
2722,note_off,300,0,0,,2,,,74,127
2725,note_on,3,0,0,,4,,,76,127
3025,note_off,300,0,0,,4,,,76,127
3028,note_on,3,0,0,,2,,,74,127
3176,note_off,148,0,0,,2,,,74,127
3179,note_on,3,0,0,,4,,,76,127
3327,note_off,148,0,0,,4,,,76,127
3330,note_on,3,0,0,,5,,,77,127
3478,note_off,148,0,0,,5,,,77,127
3481,note_on,3,0,0,,4,,,76,127
3629,note_off,148,0,0,,4,,,76,127
3632,note_on,3,0,0,,2,,,74,127
3780,note_off,148,0,0,,2,,,74,127
3783,note_on,3,0,0,,0,,,72,127
3931,note_off,148,0,0,,0,,,72,127
3934,note_on,3,0,0,,2,,,74,127
4082,note_off,148,0,0,,2,,,74,127
4085,note_on,3,0,0,,0,,,72,127
4233,note_off,148,0,0,,0,,,72,127
4236,note_on,3,0,0,,12,,,71,127
4384,note_off,148,0,0,,12,,,71,127
4387,note_on,3,0,0,,10,,,69,127
4535,note_off,148,0,0,,10,,,69,127
4538,note_on,3,0,0,,7,,,67,127
4686,note_off,148,0,0,,7,,,67,127
4689,note_on,3,0,0,,5,,,65,127
4837,note_off,148,0,0,,5,,,65,127
4840,note_on,3,0,0,,4,,,64,127
4988,note_off,148,0,0,,4,,,64,127
4991,note_on,3,0,0,,2,,,62,127
5139,note_off,148,0,0,,2,,,62,127
5142,note_on,3,0,0,,0,,,60,127
5445,note_on,303,0,0,,7,,,67,127
5593,note_off,148,0,0,,7,,,67,127
5593,note_off,0,0,0,,0,,,60,127
5596,note_on,3,0,0,,0,,,60,127
5744,note_off,148,0,0,,0,,,60,127
5747,note_on,3,0,0,,10,,,81,127
5747,note_on,0,0,0,,12,,,59,127
5794,note_off,47,0,0,,10,,,81,127
5797,note_on,3,0,0,,7,,,79,127
5844,note_off,47,0,0,,7,,,79,127
5847,note_on,3,0,0,,10,,,81,127
5894,note_off,47,0,0,,10,,,81,127
5897,note_on,3,0,0,,7,,,79,127
6045,note_off,148,0,0,,12,,,59,127
6048,note_on,3,0,0,,0,,,60,127
6348,note_off,300,0,0,,0,,,60,127
6351,note_off,3,0,0,,7,,,79,127
6351,note_on,0,0,0,,2,,,62,127
6654,note_on,303,0,0,,7,,,67,127
6802,note_off,148,0,0,,7,,,67,127
6802,note_off,0,0,0,,2,,,62,127
6805,note_on,3,0,0,,12,,,59,127
6953,note_off,148,0,0,,12,,,59,127
6956,note_on,3,0,0,,10,,,81,127
6956,note_on,0,0,0,,0,,,60,127
7003,note_off,47,0,0,,10,,,81,127
7006,note_on,3,0,0,,7,,,79,127
7053,note_off,47,0,0,,7,,,79,127
7056,note_on,3,0,0,,10,,,81,127
7103,note_off,47,0,0,,10,,,81,127
7106,note_on,3,0,0,,7,,,79,127
7254,note_off,148,0,0,,0,,,60,127
7257,note_on,3,0,0,,2,,,62,127
7557,note_off,300,0,0,,2,,,62,127
7560,note_off,3,0,0,,7,,,79,127
7560,note_on,0,0,0,,4,,,64,127
7860,note_off,300,0,0,,4,,,64,127
7863,note_on,3,0,0,,2,,,62,127
8011,note_off,148,0,0,,2,,,62,127
8014,note_on,3,0,0,,4,,,64,127
8162,note_off,148,0,0,,4,,,64,127
8165,note_on,3,0,0,,10,,,81,127
8165,note_on,0,0,0,,5,,,65,127
8313,note_off,148,0,0,,5,,,65,127
8316,note_on,3,0,0,,2,,,62,127
8464,note_off,148,0,0,,2,,,62,127
8464,note_off,0,0,0,,10,,,81,127
8467,note_on,3,0,0,,7,,,79,127
8467,note_on,0,0,0,,4,,,64,127
8615,note_off,148,0,0,,4,,,64,127
8618,note_on,3,0,0,,0,,,60,127
8766,note_off,148,0,0,,0,,,60,127
8766,note_off,0,0,0,,7,,,79,127
8769,note_on,3,0,0,,5,,,77,127
8769,note_on,0,0,0,,2,,,62,127
8917,note_off,148,0,0,,2,,,62,127
8920,note_on,3,0,0,,12,,,59,127
9068,note_off,148,0,0,,12,,,59,127
9068,note_off,0,0,0,,5,,,77,127
9071,note_on,3,0,0,,4,,,76,127
9071,note_on,0,0,0,,0,,,60,127
9219,note_off,148,0,0,,0,,,60,127
9222,note_on,3,0,0,,10,,,57,127
9370,note_off,148,0,0,,10,,,57,127
9370,note_off,0,0,0,,4,,,76,127
9373,note_on,3,0,0,,2,,,74,127
9373,note_on,0,0,0,,12,,,59,127
9521,note_off,148,0,0,,12,,,59,127
9524,note_on,3,0,0,,7,,,55,127
9672,note_off,148,0,0,,7,,,55,127
9672,note_off,0,0,0,,2,,,74,127
9675,note_on,3,0,0,,0,,,72,127
9675,note_on,0,0,0,,10,,,57,127
9823,note_off,148,0,0,,10,,,57,127
9826,note_on,3,0,0,,6,,,54,127
9974,note_off,148,0,0,,6,,,54,127
9974,note_off,0,0,0,,0,,,72,127
9977,note_on,3,0,0,,12,,,71,127
9977,note_on,0,0,0,,7,,,55,127
10125,note_off,148,0,0,,7,,,55,127
10128,note_on,3,0,0,,4,,,52,127
10276,note_off,148,0,0,,4,,,52,127
10276,note_off,0,0,0,,12,,,71,127
10279,note_on,3,0,0,,10,,,69,127
10279,note_on,0,0,0,,5,,,53,127
10427,note_off,148,0,0,,5,,,53,127
10430,note_on,3,0,0,,2,,,50,127
10578,note_off,148,0,0,,2,,,50,127
10578,note_off,0,0,0,,10,,,69,127
10581,note_on,3,0,0,,7,,,67,127
10581,note_on,0,0,0,,4,,,52,127
10729,note_off,148,0,0,,4,,,52,127
10732,note_on,3,0,0,,0,,,48,127
10880,note_off,148,0,0,,0,,,48,127
10880,note_off,0,0,0,,7,,,67,127
10883,note_on,3,0,0,,5,,,65,127
10883,note_on,0,0,0,,2,,,50,127
11031,note_off,148,0,0,,2,,,50,127
11034,note_on,3,0,0,,12,,,47,127
11182,note_off,148,0,0,,12,,,47,127
11182,note_off,0,0,0,,5,,,65,127
11185,note_on,3,0,0,,4,,,64,127
11185,note_on,0,0,0,,0,,,48,127
11333,note_off,148,0,0,,0,,,48,127
11336,note_on,3,0,0,,10,,,45,127
11484,note_off,148,0,0,,10,,,45,127
11484,note_off,0,0,0,,4,,,64,127
11487,note_on,3,0,0,,2,,,62,127
11487,note_on,0,0,0,,12,,,47,127
11635,note_off,148,0,0,,12,,,47,127
11638,note_on,3,0,0,,7,,,43,127
11786,note_off,148,0,0,,7,,,43,127
11789,note_on,3,0,0,,10,,,45,127
11865,note_off,76,0,0,,2,,,62,127
11865,note_on,0,0,0,,0,,,60,127
11938,note_off,73,0,0,,0,,,60,127
11941,note_on,3,0,0,,2,,,62,127
12014,note_off,73,0,0,,2,,,62,127
12017,note_on,3,0,0,,0,,,60,127
12090,note_off,73,0,0,,0,,,60,127
12093,note_on,3,0,0,,2,,,62,127
12093,note_on,0,0,0,,6,,,54,127
12166,note_off,73,0,0,,2,,,62,127
12169,note_on,3,0,0,,0,,,60,127
12242,note_off,73,0,0,,0,,,60,127
12245,note_on,3,0,0,,12,,,59,127
12318,note_off,73,0,0,,12,,,59,127
12321,note_on,3,0,0,,0,,,60,127
12394,note_off,73,0,0,,0,,,60,127
12394,note_off,0,0,0,,6,,,54,127
12394,note_off,0,0,0,,10,,,45,127
12397,note_on,3,0,0,,2,,,62,127
12397,note_on,0,0,0,,7,,,43,127
12545,note_off,148,0,0,,2,,,62,127
12548,note_on,3,0,0,,6,,,66,127
12696,note_off,148,0,0,,6,,,66,127
12699,note_on,3,0,0,,7,,,67,127
12699,note_on,0,0,0,,7,,,55,127
12847,note_off,148,0,0,,7,,,67,127
12853,note_on,6,0,0,,4,,,64,127
12998,note_off,145,0,0,,7,,,55,127
12998,note_off,0,0,0,,7,,,43,127
13004,note_off,6,0,0,,4,,,64,127
13009,note_on,5,0,0,,2,,,62,127
13009,note_on,0,0,0,,10,,,45,127
13082,note_off,73,0,0,,2,,,62,127
13087,note_on,5,0,0,,0,,,60,127
13160,note_off,73,0,0,,0,,,60,127
13163,note_on,3,0,0,,2,,,62,127
13236,note_off,73,0,0,,2,,,62,127
13239,note_on,3,0,0,,0,,,60,127
13312,note_off,73,0,0,,0,,,60,127
13315,note_on,3,0,0,,6,,,54,127
13315,note_on,0,0,0,,2,,,62,127
13388,note_off,73,0,0,,2,,,62,127
13391,note_on,3,0,0,,0,,,60,127
13464,note_off,73,0,0,,0,,,60,127
13467,note_on,3,0,0,,12,,,59,127
13540,note_off,73,0,0,,12,,,59,127
13543,note_on,3,0,0,,0,,,60,127
13614,note_off,71,0,0,,10,,,45,127
13616,note_off,2,0,0,,0,,,60,127
13616,note_off,0,0,0,,6,,,54,127
13619,note_on,3,0,0,,7,,,43,127
13619,note_on,0,0,0,,2,,,62,127
13767,note_off,148,0,0,,2,,,62,127
13770,note_on,3,0,0,,6,,,66,127
13918,note_off,148,0,0,,6,,,66,127
13921,note_on,3,0,0,,7,,,55,127
13921,note_on,0,0,0,,7,,,67,127
14069,note_off,148,0,0,,7,,,67,127
14072,note_on,3,0,0,,4,,,64,127
14220,note_off,148,0,0,,4,,,64,127
14220,note_off,0,0,0,,7,,,55,127
14220,note_off,0,0,0,,7,,,43,127
14237,note_on,17,0,0,,2,,,62,127
14237,note_on,0,0,0,,10,,,45,127
14310,note_off,73,0,0,,2,,,62,127
14313,note_on,3,0,0,,0,,,60,127
14386,note_off,73,0,0,,0,,,60,127
14389,note_on,3,0,0,,2,,,62,127
14462,note_off,73,0,0,,2,,,62,127
14465,note_on,3,0,0,,0,,,60,127
14538,note_off,73,0,0,,0,,,60,127
14541,note_on,3,0,0,,2,,,62,127
14541,note_on,0,0,0,,6,,,54,127
14614,note_off,73,0,0,,2,,,62,127
14617,note_on,3,0,0,,0,,,60,127
14690,note_off,73,0,0,,0,,,60,127
14693,note_on,3,0,0,,12,,,59,127
14766,note_off,73,0,0,,12,,,59,127
14769,note_on,3,0,0,,0,,,60,127
14842,note_off,73,0,0,,0,,,60,127
14842,note_off,0,0,0,,6,,,54,127
14842,note_off,0,0,0,,10,,,45,127
14845,note_on,3,0,0,,0,,,60,127
14845,note_on,0,0,0,,7,,,43,127
15145,note_off,300,0,0,,0,,,60,127
15148,note_on,3,0,0,,2,,,62,127
15840,note_off,692,0,0,,7,,,43,127
16001,note_off,161,0,0,,2,,,62,127
16399,note_on,398,0,0,,0,,,72,127
16399,note_on,0,0,0,,0,,,60,127
16702,note_on,303,0,0,,7,,,79,127
16850,note_off,148,0,0,,7,,,79,127
16850,note_off,0,0,0,,0,,,72,127
16853,note_on,3,0,0,,0,,,72,127
17001,note_off,148,0,0,,0,,,72,127
17004,note_on,3,0,0,,12,,,71,127
17304,note_off,300,0,0,,12,,,71,127
17307,note_on,3,0,0,,0,,,72,127
17607,note_off,300,0,0,,0,,,72,127
17607,note_off,0,0,0,,0,,,60,127
17610,note_on,3,0,0,,7,,,79,127
17610,note_on,0,0,0,,8,,,68,127
17610,note_on,0,0,0,,2,,,62,127
17610,note_on,0,0,0,,5,,,65,127
17610,note_on,0,0,0,,0,,,60,127
17910,note_off,300,0,0,,7,,,79,127
17913,note_on,3,0,0,,5,,,77,127
18061,note_off,148,0,0,,5,,,77,127
18064,note_on,3,0,0,,3,,,75,127
18212,note_off,148,0,0,,3,,,75,127
18215,note_off,3,0,0,,8,,,68,127
18215,note_on,0,0,0,,2,,,74,127
18215,note_on,0,0,0,,8,,,80,127
18515,note_off,300,0,0,,2,,,74,127
18518,note_on,3,0,0,,0,,,72,127
18818,note_off,300,0,0,,0,,,72,127
18818,note_off,0,0,0,,0,,,60,127
18818,note_off,0,0,0,,2,,,62,127
18821,note_on,3,0,0,,2,,,74,127
18821,note_on,0,0,0,,12,,,59,127
19121,note_off,300,0,0,,2,,,74,127
19124,note_off,3,0,0,,8,,,80,127
19124,note_on,0,0,0,,7,,,79,127
19272,note_off,148,0,0,,7,,,79,127
19275,note_on,3,0,0,,5,,,77,127
19423,note_off,148,0,0,,5,,,77,127
19423,note_off,0,0,0,,12,,,59,127
19423,note_off,0,0,0,,5,,,65,127
19426,note_on,3,0,0,,3,,,75,127
19426,note_on,0,0,0,,2,,,86,127
19426,note_on,0,0,0,,7,,,55,127
19726,note_off,300,0,0,,3,,,75,127
19729,note_on,3,0,0,,2,,,74,127
20029,note_off,300,0,0,,2,,,74,127
20029,note_off,0,0,0,,7,,,55,127
20032,note_on,3,0,0,,3,,,75,127
20032,note_on,0,0,0,,0,,,60,127
20180,note_off,148,0,0,,2,,,86,127
20183,note_on,3,0,0,,2,,,86,127
20331,note_off,148,0,0,,2,,,86,127
20331,note_off,0,0,0,,3,,,75,127
20334,note_on,3,0,0,,0,,,84,127
20482,note_off,148,0,0,,0,,,84,127
20485,note_on,3,0,0,,12,,,83,127
20633,note_off,148,0,0,,12,,,83,127
20636,note_on,3,0,0,,12,,,83,127
20936,note_off,300,0,0,,12,,,83,127
20938,note_off,2,0,0,,0,,,60,127
20940,note_on,2,0,0,,0,,,84,127
21254,note_on,314,0,0,,0,,,60,127
21254,note_on,0,0,0,,3,,,63,127
21254,note_on,0,0,0,,0,,,72,127
21308,note_off,54,0,0,,0,,,84,127
21557,note_on,249,0,0,,7,,,79,127
21705,note_off,148,0,0,,7,,,79,127
21705,note_off,0,0,0,,0,,,72,127
21708,note_on,3,0,0,,0,,,72,127
21856,note_off,148,0,0,,0,,,72,127
21859,note_on,3,0,0,,12,,,71,127
22159,note_off,300,0,0,,12,,,71,127
22162,note_on,3,0,0,,0,,,72,127
22462,note_off,300,0,0,,0,,,72,127
22462,note_off,0,0,0,,3,,,63,127
22462,note_off,0,0,0,,0,,,60,127
22465,note_on,3,0,0,,2,,,62,127
22465,note_on,0,0,0,,0,,,60,127
22465,note_on,0,0,0,,5,,,65,127
22465,note_on,0,0,0,,7,,,79,127
22465,note_on,0,0,0,,8,,,68,127
22765,note_off,300,0,0,,7,,,79,127
22768,note_on,3,0,0,,5,,,77,127
22916,note_off,148,0,0,,5,,,77,127
22919,note_on,3,0,0,,3,,,75,127
23067,note_off,148,0,0,,3,,,75,127
23070,note_off,3,0,0,,8,,,68,127
23070,note_on,0,0,0,,2,,,74,127
23070,note_on,0,0,0,,8,,,80,127
23370,note_off,300,0,0,,2,,,74,127
23373,note_on,3,0,0,,0,,,72,127
23673,note_off,300,0,0,,0,,,72,127
23673,note_off,0,0,0,,0,,,60,127
23673,note_off,0,0,0,,2,,,62,127
23676,note_on,3,0,0,,7,,,55,127
23676,note_on,0,0,0,,11,,,70,127
23976,note_off,300,0,0,,11,,,70,127
23979,note_off,3,0,0,,8,,,80,127
23979,note_on,0,0,0,,11,,,82,127
24127,note_off,148,0,0,,11,,,82,127
24130,note_on,3,0,0,,8,,,80,127
24278,note_off,148,0,0,,8,,,80,127
24278,note_off,0,0,0,,7,,,55,127
24278,note_off,0,0,0,,5,,,65,127
24281,note_on,3,0,0,,11,,,58,127
24281,note_on,0,0,0,,7,,,79,127
24281,note_on,0,0,0,,1,,,85,127
24581,note_off,300,0,0,,7,,,79,127
24584,note_on,3,0,0,,5,,,77,127
24884,note_off,300,0,0,,5,,,77,127
24884,note_off,0,0,0,,11,,,58,127
24887,note_on,3,0,0,,0,,,60,127
24887,note_on,0,0,0,,4,,,76,127
25035,note_off,148,0,0,,1,,,85,127
25187,note_off,152,0,0,,4,,,76,127
25190,note_on,3,0,0,,0,,,84,127
25338,note_off,148,0,0,,0,,,84,127
25341,note_on,3,0,0,,11,,,82,127
25489,note_off,148,0,0,,11,,,82,127
25489,note_off,0,0,0,,0,,,60,127
25492,note_on,3,0,0,,4,,,64,127
25492,note_on,0,0,0,,8,,,80,127
25792,note_off,300,0,0,,8,,,80,127
25795,note_on,3,0,0,,7,,,79,127
26079,note_off,284,0,0,,4,,,64,127
26095,note_off,16,0,0,,7,,,79,127
26098,note_on,3,0,0,,5,,,65,127
26098,note_on,0,0,0,,11,,,82,127
26145,note_off,47,0,0,,11,,,82,127
26148,note_on,3,0,0,,8,,,80,127
26195,note_off,47,0,0,,8,,,80,127
26198,note_on,3,0,0,,11,,,82,127
26245,note_off,47,0,0,,11,,,82,127
26248,note_on,3,0,0,,8,,,80,127
26548,note_off,300,0,0,,8,,,80,127
26551,note_on,3,0,0,,7,,,79,127
26699,note_off,148,0,0,,7,,,79,127
26702,note_on,3,0,0,,5,,,77,127
26850,note_off,148,0,0,,5,,,77,127
26866,note_on,16,0,0,,1,,,85,127
27014,note_off,148,0,0,,1,,,85,127
27017,note_on,3,0,0,,0,,,84,127
27165,note_off,148,0,0,,0,,,84,127
27168,note_on,3,0,0,,11,,,82,127
27307,note_off,139,0,0,,5,,,65,127
27316,note_off,9,0,0,,11,,,82,127
27319,note_on,3,0,0,,8,,,80,127
27467,note_off,148,0,0,,8,,,80,127
27470,note_on,3,0,0,,0,,,84,127
27618,note_off,148,0,0,,0,,,84,127
27621,note_on,3,0,0,,5,,,77,127
27769,note_off,148,0,0,,5,,,77,127
27772,note_on,3,0,0,,8,,,80,127
27920,note_off,148,0,0,,8,,,80,127
27923,note_on,3,0,0,,2,,,74,127
28071,note_off,148,0,0,,2,,,74,127
28074,note_on,3,0,0,,5,,,77,127
28222,note_off,148,0,0,,5,,,77,127
28225,note_on,3,0,0,,12,,,71,127
28373,note_off,148,0,0,,12,,,71,127
28376,note_on,3,0,0,,2,,,74,127
28524,note_off,148,0,0,,2,,,74,127
28527,note_on,3,0,0,,8,,,68,127
28675,note_off,148,0,0,,8,,,68,127
28678,note_on,3,0,0,,0,,,72,127
28826,note_off,148,0,0,,0,,,72,127
28829,note_on,3,0,0,,5,,,65,127
28977,note_off,148,0,0,,5,,,65,127
28980,note_on,3,0,0,,8,,,68,127
29128,note_off,148,0,0,,8,,,68,127
29131,note_on,3,0,0,,2,,,62,127
29279,note_off,148,0,0,,2,,,62,127
29282,note_on,3,0,0,,5,,,65,127
29430,note_off,148,0,0,,5,,,65,127
29433,note_on,3,0,0,,12,,,59,127
29581,note_off,148,0,0,,12,,,59,127
29584,note_on,3,0,0,,2,,,62,127
29732,note_off,148,0,0,,2,,,62,127
29735,note_on,3,0,0,,8,,,56,127
29883,note_off,148,0,0,,8,,,56,127
29886,note_on,3,0,0,,0,,,60,127
30034,note_off,148,0,0,,0,,,60,127
30037,note_on,3,0,0,,5,,,53,127
30185,note_off,148,0,0,,5,,,53,127
30188,note_on,3,0,0,,8,,,56,127
30336,note_off,148,0,0,,8,,,56,127
30339,note_on,3,0,0,,2,,,50,127
30487,note_off,148,0,0,,2,,,50,127
30490,note_on,3,0,0,,5,,,53,127
30638,note_off,148,0,0,,5,,,53,127
30641,note_on,3,0,0,,12,,,47,127
30789,note_off,148,0,0,,12,,,47,127
30792,note_on,3,0,0,,2,,,50,127
30934,note_off,142,0,0,,2,,,50,127
30959,note_on,25,0,0,,4,,,40,127
31701,note_on,742,0,0,,12,,,71,127
31701,note_on,0,0,0,,2,,,74,127
31701,note_on,0,0,0,,4,,,64,127
31701,note_on,0,0,0,,8,,,68,127
32220,note_off,519,0,0,,4,,,40,127
32304,note_off,84,0,0,,8,,,68,127
32304,note_off,0,0,0,,4,,,64,127
32304,note_off,0,0,0,,2,,,74,127
32304,note_off,0,0,0,,12,,,71,127
32307,note_on,3,0,0,,0,,,72,127
32307,note_on,0,0,0,,10,,,69,127
32307,note_on,0,0,0,,10,,,45,127
32307,note_on,0,0,0,,4,,,52,127
32307,note_on,0,0,0,,4,,,40,127
32607,note_off,300,0,0,,0,,,72,127
32610,note_on,3,0,0,,12,,,71,127
32758,note_off,148,0,0,,12,,,71,127
32758,note_off,0,0,0,,10,,,69,127
32761,note_on,3,0,0,,10,,,69,127
32909,note_off,148,0,0,,10,,,69,127
32909,note_off,0,0,0,,4,,,40,127
32909,note_off,0,0,0,,4,,,52,127
32909,note_off,0,0,0,,10,,,45,127
32912,note_on,3,0,0,,4,,,76,127
32912,note_on,0,0,0,,4,,,64,127
32912,note_on,0,0,0,,8,,,68,127
32912,note_on,0,0,0,,12,,,71,127
32912,note_on,0,0,0,,4,,,52,127
32912,note_on,0,0,0,,12,,,47,127
32912,note_on,0,0,0,,4,,,40,127
33212,note_off,300,0,0,,4,,,76,127
33215,note_on,3,0,0,,2,,,74,127
33515,note_off,300,0,0,,2,,,74,127
33515,note_off,0,0,0,,4,,,40,127
33515,note_off,0,0,0,,12,,,47,127
33515,note_off,0,0,0,,4,,,52,127
33515,note_off,0,0,0,,12,,,71,127
33515,note_off,0,0,0,,8,,,68,127
33515,note_off,0,0,0,,4,,,64,127
33518,note_on,3,0,0,,4,,,64,127
33518,note_on,0,0,0,,2,,,74,127
33518,note_on,0,0,0,,10,,,69,127
33518,note_on,0,0,0,,4,,,52,127
33518,note_on,0,0,0,,4,,,40,127
33518,note_on,0,0,0,,10,,,45,127
33666,note_off,148,0,0,,2,,,74,127
33669,note_on,3,0,0,,0,,,72,127
33817,note_off,148,0,0,,0,,,72,127
33820,note_on,3,0,0,,12,,,71,127
33968,note_off,148,0,0,,12,,,71,127
33968,note_off,0,0,0,,10,,,69,127
33971,note_on,3,0,0,,10,,,69,127
34119,note_off,148,0,0,,10,,,69,127
34119,note_off,0,0,0,,10,,,45,127
34119,note_off,0,0,0,,4,,,40,127
34119,note_off,0,0,0,,4,,,52,127
34119,note_off,0,0,0,,4,,,64,127
34122,note_on,3,0,0,,12,,,71,127
34122,note_on,0,0,0,,4,,,76,127
34122,note_on,0,0,0,,4,,,64,127
34122,note_on,0,0,0,,8,,,68,127
34122,note_on,0,0,0,,12,,,47,127
34122,note_on,0,0,0,,4,,,52,127
34122,note_on,0,0,0,,4,,,40,127
34422,note_off,300,0,0,,4,,,76,127
34425,note_on,3,0,0,,2,,,74,127
34725,note_off,300,0,0,,2,,,74,127
34725,note_off,0,0,0,,4,,,40,127
34725,note_off,0,0,0,,4,,,52,127
34725,note_off,0,0,0,,12,,,47,127
34725,note_off,0,0,0,,8,,,68,127
34725,note_off,0,0,0,,4,,,64,127
34725,note_off,0,0,0,,12,,,71,127
34728,note_on,3,0,0,,10,,,69,127
34728,note_on,0,0,0,,2,,,74,127
34728,note_on,0,0,0,,4,,,64,127
34728,note_on,0,0,0,,10,,,45,127
34728,note_on,0,0,0,,4,,,52,127
34728,note_on,0,0,0,,4,,,40,127
34876,note_off,148,0,0,,2,,,74,127
34879,note_on,3,0,0,,0,,,72,127
35027,note_off,148,0,0,,0,,,72,127
35030,note_on,3,0,0,,12,,,71,127
35178,note_off,148,0,0,,12,,,71,127
35178,note_off,0,0,0,,10,,,69,127
35181,note_on,3,0,0,,10,,,69,127
35329,note_off,148,0,0,,10,,,69,127
35329,note_off,0,0,0,,4,,,40,127
35329,note_off,0,0,0,,4,,,52,127
35329,note_off,0,0,0,,10,,,45,127
35329,note_off,0,0,0,,4,,,64,127
35332,note_on,3,0,0,,4,,,64,127
35332,note_on,0,0,0,,12,,,71,127
35332,note_on,0,0,0,,4,,,76,127
35332,note_on,0,0,0,,8,,,68,127
35332,note_on,0,0,0,,4,,,52,127
35332,note_on,0,0,0,,12,,,47,127
35332,note_on,0,0,0,,4,,,40,127
35632,note_off,300,0,0,,4,,,76,127
35635,note_on,3,0,0,,2,,,74,127
35935,note_off,300,0,0,,2,,,74,127
35935,note_off,0,0,0,,4,,,40,127
35935,note_off,0,0,0,,12,,,47,127
35935,note_off,0,0,0,,4,,,52,127
35935,note_off,0,0,0,,8,,,68,127
35935,note_off,0,0,0,,12,,,71,127
35935,note_off,0,0,0,,4,,,64,127
35938,note_on,3,0,0,,2,,,74,127
35938,note_on,0,0,0,,10,,,69,127
35938,note_on,0,0,0,,1,,,73,127
35938,note_on,0,0,0,,10,,,45,127
36086,note_off,148,0,0,,1,,,73,127
36086,note_off,0,0,0,,10,,,69,127
36086,note_off,0,0,0,,2,,,74,127
36089,note_on,3,0,0,,12,,,71,127
36237,note_off,148,0,0,,12,,,71,127
36240,note_on,3,0,0,,10,,,69,127
37146,note_off,906,0,0,,10,,,45,127
37155,note_off,9,0,0,,10,,,69,127
37389,note_on,234,0,0,,2,,,74,127
37389,note_on,0,0,0,,2,,,62,127
37389,note_on,0,0,0,,2,,,50,127
37692,note_on,303,0,0,,10,,,81,127
37840,note_off,148,0,0,,10,,,81,127
37840,note_off,0,0,0,,2,,,74,127
37843,note_on,3,0,0,,2,,,74,127
37991,note_off,148,0,0,,2,,,74,127
37994,note_on,3,0,0,,1,,,73,127
38294,note_off,300,0,0,,1,,,73,127
38297,note_on,3,0,0,,2,,,74,127
38597,note_off,300,0,0,,2,,,74,127
38597,note_off,0,0,0,,2,,,50,127
38597,note_off,0,0,0,,2,,,62,127
38600,note_on,3,0,0,,4,,,76,127
38600,note_on,0,0,0,,10,,,57,127
38600,note_on,0,0,0,,10,,,45,127
38903,note_on,303,0,0,,10,,,81,127
39051,note_off,148,0,0,,10,,,81,127
39051,note_off,0,0,0,,4,,,76,127
39054,note_on,3,0,0,,1,,,73,127
39202,note_off,148,0,0,,1,,,73,127
39205,note_on,3,0,0,,2,,,74,127
39505,note_off,300,0,0,,2,,,74,127
39508,note_on,3,0,0,,4,,,76,127
39808,note_off,300,0,0,,4,,,76,127
39808,note_off,0,0,0,,10,,,45,127
39808,note_off,0,0,0,,10,,,57,127
39811,note_on,3,0,0,,6,,,78,127
39811,note_on,0,0,0,,2,,,50,127
39811,note_on,0,0,0,,2,,,38,127
40111,note_off,300,0,0,,6,,,78,127
40114,note_on,3,0,0,,4,,,76,127
40262,note_off,148,0,0,,4,,,76,127
40265,note_on,3,0,0,,6,,,78,127
40413,note_off,148,0,0,,6,,,78,127
40413,note_off,0,0,0,,2,,,38,127
40413,note_off,0,0,0,,2,,,50,127
40416,note_on,3,0,0,,7,,,79,127
40416,note_on,0,0,0,,7,,,55,127
40416,note_on,0,0,0,,7,,,43,127
40564,note_off,148,0,0,,7,,,79,127
40567,note_on,3,0,0,,6,,,78,127
40715,note_off,148,0,0,,6,,,78,127
40718,note_on,3,0,0,,4,,,76,127
40866,note_off,148,0,0,,4,,,76,127
40869,note_on,3,0,0,,2,,,74,127
41017,note_off,148,0,0,,2,,,74,127
41017,note_off,0,0,0,,7,,,43,127
41017,note_off,0,0,0,,7,,,55,127
41020,note_on,3,0,0,,4,,,76,127
41020,note_on,0,0,0,,10,,,57,127
41168,note_off,148,0,0,,4,,,76,127
41171,note_on,3,0,0,,2,,,74,127
41319,note_off,148,0,0,,2,,,74,127
41322,note_on,3,0,0,,1,,,73,127
41470,note_off,148,0,0,,1,,,73,127
41473,note_on,3,0,0,,12,,,71,127
41621,note_off,148,0,0,,12,,,71,127
41624,note_on,3,0,0,,10,,,69,127
41772,note_off,148,0,0,,10,,,69,127
41775,note_on,3,0,0,,7,,,67,127
41923,note_off,148,0,0,,7,,,67,127
41926,note_on,3,0,0,,6,,,66,127
42074,note_off,148,0,0,,6,,,66,127
42077,note_on,3,0,0,,4,,,64,127
42225,note_off,148,0,0,,4,,,64,127
42225,note_off,0,0,0,,10,,,57,127
42228,note_on,3,0,0,,6,,,66,127
42228,note_on,0,0,0,,2,,,62,127
42531,note_on,303,0,0,,10,,,69,127
42679,note_off,148,0,0,,10,,,69,127
42679,note_off,0,0,0,,2,,,62,127
42682,note_on,3,0,0,,2,,,62,127
42830,note_off,148,0,0,,2,,,62,127
42830,note_off,0,0,0,,6,,,66,127
42833,note_on,3,0,0,,12,,,83,127
42833,note_on,0,0,0,,1,,,61,127
42880,note_off,47,0,0,,12,,,83,127
42883,note_on,3,0,0,,10,,,81,127
42930,note_off,47,0,0,,10,,,81,127
42933,note_on,3,0,0,,12,,,83,127
42980,note_off,47,0,0,,12,,,83,127
42983,note_on,3,0,0,,10,,,81,127
43131,note_off,148,0,0,,1,,,61,127
43134,note_on,3,0,0,,2,,,62,127
43434,note_off,300,0,0,,2,,,62,127
43434,note_off,0,0,0,,10,,,81,127
43437,note_on,3,0,0,,4,,,64,127
43740,note_on,303,0,0,,10,,,69,127
43888,note_off,148,0,0,,10,,,69,127
43888,note_off,0,0,0,,4,,,64,127
43891,note_on,3,0,0,,1,,,61,127
44039,note_off,148,0,0,,1,,,61,127
44042,note_on,3,0,0,,12,,,83,127
44042,note_on,0,0,0,,2,,,62,127
44089,note_off,47,0,0,,12,,,83,127
44092,note_on,3,0,0,,10,,,81,127
44139,note_off,47,0,0,,10,,,81,127
44142,note_on,3,0,0,,12,,,83,127
44189,note_off,47,0,0,,12,,,83,127
44192,note_on,3,0,0,,10,,,81,127
44340,note_off,148,0,0,,2,,,62,127
44343,note_on,3,0,0,,4,,,64,127
44643,note_off,300,0,0,,4,,,64,127
44643,note_off,0,0,0,,10,,,81,127
44646,note_on,3,0,0,,6,,,66,127
44946,note_off,300,0,0,,6,,,66,127
44949,note_on,3,0,0,,4,,,64,127
45097,note_off,148,0,0,,4,,,64,127
45100,note_on,3,0,0,,6,,,66,127
45248,note_off,148,0,0,,6,,,66,127
45251,note_on,3,0,0,,12,,,83,127
45251,note_on,0,0,0,,7,,,67,127
45399,note_off,148,0,0,,7,,,67,127
45402,note_on,3,0,0,,4,,,64,127
45550,note_off,148,0,0,,4,,,64,127
45550,note_off,0,0,0,,12,,,83,127
45553,note_on,3,0,0,,10,,,81,127
45553,note_on,0,0,0,,6,,,66,127
45701,note_off,148,0,0,,6,,,66,127
45704,note_on,3,0,0,,2,,,62,127
45852,note_off,148,0,0,,2,,,62,127
45852,note_off,0,0,0,,10,,,81,127
45855,note_on,3,0,0,,7,,,79,127
45855,note_on,0,0,0,,4,,,64,127
46003,note_off,148,0,0,,4,,,64,127
46006,note_on,3,0,0,,1,,,61,127
46154,note_off,148,0,0,,1,,,61,127
46154,note_off,0,0,0,,7,,,79,127
46157,note_on,3,0,0,,6,,,78,127
46157,note_on,0,0,0,,2,,,62,127
46305,note_off,148,0,0,,2,,,62,127
46308,note_on,3,0,0,,12,,,59,127
46456,note_off,148,0,0,,12,,,59,127
46456,note_off,0,0,0,,6,,,78,127
46459,note_on,3,0,0,,4,,,76,127
46459,note_on,0,0,0,,1,,,61,127
46607,note_off,148,0,0,,1,,,61,127
46610,note_on,3,0,0,,10,,,57,127
46758,note_off,148,0,0,,10,,,57,127
46758,note_off,0,0,0,,4,,,76,127
46761,note_on,3,0,0,,2,,,74,127
46761,note_on,0,0,0,,12,,,59,127
46909,note_off,148,0,0,,12,,,59,127
46912,note_on,3,0,0,,8,,,56,127
47060,note_off,148,0,0,,8,,,56,127
47060,note_off,0,0,0,,2,,,74,127
47063,note_on,3,0,0,,1,,,73,127
47063,note_on,0,0,0,,10,,,57,127
47211,note_off,148,0,0,,10,,,57,127
47214,note_on,3,0,0,,6,,,54,127
47362,note_off,148,0,0,,6,,,54,127
47362,note_off,0,0,0,,1,,,73,127
47365,note_on,3,0,0,,12,,,71,127
47365,note_on,0,0,0,,7,,,55,127
47513,note_off,148,0,0,,7,,,55,127
47516,note_on,3,0,0,,4,,,52,127
47664,note_off,148,0,0,,4,,,52,127
47664,note_off,0,0,0,,12,,,71,127
47667,note_on,3,0,0,,10,,,69,127
47667,note_on,0,0,0,,6,,,54,127
47815,note_off,148,0,0,,6,,,54,127
47818,note_on,3,0,0,,2,,,50,127
47966,note_off,148,0,0,,2,,,50,127
47966,note_off,0,0,0,,10,,,69,127
47969,note_on,3,0,0,,7,,,67,127
47969,note_on,0,0,0,,4,,,52,127
48117,note_off,148,0,0,,4,,,52,127
48120,note_on,3,0,0,,1,,,49,127
48268,note_off,148,0,0,,1,,,49,127
48268,note_off,0,0,0,,7,,,67,127
48271,note_on,3,0,0,,6,,,66,127
48271,note_on,0,0,0,,2,,,50,127
48419,note_off,148,0,0,,2,,,50,127
48422,note_on,3,0,0,,12,,,47,127
48570,note_off,148,0,0,,12,,,47,127
48570,note_off,0,0,0,,6,,,66,127
48573,note_on,3,0,0,,4,,,64,127
48573,note_on,0,0,0,,1,,,49,127
48721,note_off,148,0,0,,1,,,49,127
48724,note_on,3,0,0,,10,,,45,127
48872,note_off,148,0,0,,10,,,45,127
48875,note_on,3,0,0,,12,,,47,127
48951,note_off,76,0,0,,4,,,64,127
48951,note_on,0,0,0,,2,,,62,127
49024,note_off,73,0,0,,2,,,62,127
49027,note_on,3,0,0,,4,,,64,127
49100,note_off,73,0,0,,4,,,64,127
49103,note_on,3,0,0,,2,,,62,127
49176,note_off,73,0,0,,2,,,62,127
49179,note_on,3,0,0,,4,,,64,127
49179,note_on,0,0,0,,8,,,56,127
49252,note_off,73,0,0,,4,,,64,127
49255,note_on,3,0,0,,2,,,62,127
49328,note_off,73,0,0,,2,,,62,127
49331,note_on,3,0,0,,1,,,61,127
49404,note_off,73,0,0,,1,,,61,127
49407,note_on,3,0,0,,2,,,62,127
49480,note_off,73,0,0,,2,,,62,127
49480,note_off,0,0,0,,8,,,56,127
49480,note_off,0,0,0,,12,,,47,127
49483,note_on,3,0,0,,4,,,64,127
49483,note_on,0,0,0,,10,,,45,127
49631,note_off,148,0,0,,4,,,64,127
49634,note_on,3,0,0,,8,,,68,127
49782,note_off,148,0,0,,8,,,68,127
49785,note_on,3,0,0,,10,,,69,127
49785,note_on,0,0,0,,10,,,57,127
49933,note_off,148,0,0,,10,,,69,127
49936,note_on,3,0,0,,4,,,64,127
50084,note_off,148,0,0,,10,,,57,127
50084,note_off,0,0,0,,10,,,45,127
50093,note_on,9,0,0,,12,,,47,127
50156,note_off,63,0,0,,4,,,64,127
50169,note_on,13,0,0,,2,,,62,127
50242,note_off,73,0,0,,2,,,62,127
50245,note_on,3,0,0,,4,,,64,127
50318,note_off,73,0,0,,4,,,64,127
50321,note_on,3,0,0,,2,,,62,127
50394,note_off,73,0,0,,2,,,62,127
50397,note_on,3,0,0,,8,,,56,127
50397,note_on,0,0,0,,4,,,64,127
50470,note_off,73,0,0,,4,,,64,127
50473,note_on,3,0,0,,2,,,62,127
50546,note_off,73,0,0,,2,,,62,127
50549,note_on,3,0,0,,1,,,61,127
50622,note_off,73,0,0,,1,,,61,127
50625,note_on,3,0,0,,2,,,62,127
50698,note_off,73,0,0,,2,,,62,127
50698,note_off,0,0,0,,8,,,56,127
50698,note_off,0,0,0,,12,,,47,127
50701,note_on,3,0,0,,10,,,45,127
50701,note_on,0,0,0,,4,,,64,127
50849,note_off,148,0,0,,4,,,64,127
50852,note_on,3,0,0,,8,,,68,127
51000,note_off,148,0,0,,8,,,68,127
51003,note_on,3,0,0,,10,,,57,127
51003,note_on,0,0,0,,10,,,69,127
51151,note_off,148,0,0,,10,,,69,127
51154,note_on,3,0,0,,4,,,64,127
51302,note_off,148,0,0,,10,,,57,127
51302,note_off,0,0,0,,10,,,45,127
51315,note_on,13,0,0,,12,,,47,127
51375,note_off,60,0,0,,4,,,64,127
51391,note_on,16,0,0,,2,,,62,127
51464,note_off,73,0,0,,2,,,62,127
51467,note_on,3,0,0,,4,,,64,127
51540,note_off,73,0,0,,4,,,64,127
51543,note_on,3,0,0,,2,,,62,127
51616,note_off,73,0,0,,2,,,62,127
51619,note_on,3,0,0,,4,,,64,127
51619,note_on,0,0,0,,8,,,56,127
51692,note_off,73,0,0,,4,,,64,127
51695,note_on,3,0,0,,2,,,62,127
51768,note_off,73,0,0,,2,,,62,127
51771,note_on,3,0,0,,1,,,61,127
51844,note_off,73,0,0,,1,,,61,127
51847,note_on,3,0,0,,2,,,62,127
51920,note_off,73,0,0,,2,,,62,127
51920,note_off,0,0,0,,8,,,56,127
51920,note_off,0,0,0,,12,,,47,127
51923,note_on,3,0,0,,2,,,62,127
51923,note_on,0,0,0,,10,,,45,127
52239,note_off,316,0,0,,2,,,62,127
52242,note_on,3,0,0,,4,,,64,127
52831,note_off,589,0,0,,10,,,45,127
53032,note_off,201,0,0,,4,,,64,127
53326,note_on,294,0,0,,4,,,64,127
53326,note_on,0,0,0,,12,,,59,127
53326,note_on,0,0,0,,7,,,55,127
53478,note_on,152,0,0,,12,,,71,127
53626,note_off,148,0,0,,12,,,71,127
53629,note_on,3,0,0,,11,,,70,127
53929,note_off,300,0,0,,7,,,55,127
53929,note_off,0,0,0,,12,,,59,127
53929,note_off,0,0,0,,4,,,64,127
53932,note_on,3,0,0,,12,,,59,127
53932,note_on,0,0,0,,4,,,64,127
53932,note_on,0,0,0,,7,,,55,127
54080,note_off,148,0,0,,11,,,70,127
54083,note_on,3,0,0,,12,,,71,127
54231,note_off,148,0,0,,12,,,71,127
54234,note_on,3,0,0,,1,,,73,127
54534,note_off,300,0,0,,7,,,55,127
54534,note_off,0,0,0,,4,,,64,127
54534,note_off,0,0,0,,12,,,59,127
54537,note_on,3,0,0,,12,,,59,127
54537,note_on,0,0,0,,4,,,64,127
54537,note_on,0,0,0,,7,,,55,127
54685,note_off,148,0,0,,1,,,73,127
54688,note_on,3,0,0,,2,,,74,127
54836,note_off,148,0,0,,2,,,74,127
54839,note_on,3,0,0,,4,,,76,127
55139,note_off,300,0,0,,7,,,55,127
55139,note_off,0,0,0,,4,,,64,127
55139,note_off,0,0,0,,12,,,59,127
55142,note_on,3,0,0,,4,,,64,127
55142,note_on,0,0,0,,7,,,55,127
55142,note_on,0,0,0,,12,,,59,127
55290,note_off,148,0,0,,4,,,76,127
55293,note_on,3,0,0,,6,,,78,127
55441,note_off,148,0,0,,6,,,78,127
55444,note_on,3,0,0,,7,,,79,127
55744,note_off,300,0,0,,12,,,59,127
55744,note_off,0,0,0,,7,,,55,127
55744,note_off,0,0,0,,4,,,64,127
55747,note_on,3,0,0,,4,,,64,127
55747,note_on,0,0,0,,6,,,54,127
55747,note_on,0,0,0,,1,,,61,127
55895,note_off,148,0,0,,7,,,79,127
55898,note_on,3,0,0,,12,,,83,127
56046,note_off,148,0,0,,12,,,83,127
56049,note_on,3,0,0,,11,,,82,127
56197,note_off,148,0,0,,11,,,82,127
56200,note_on,3,0,0,,7,,,79,127
56348,note_off,148,0,0,,7,,,79,127
56348,note_off,0,0,0,,1,,,61,127
56348,note_off,0,0,0,,6,,,54,127
56348,note_off,0,0,0,,4,,,64,127
56351,note_on,3,0,0,,6,,,78,127
56351,note_on,0,0,0,,4,,,64,127
56351,note_on,0,0,0,,6,,,54,127
56351,note_on,0,0,0,,1,,,61,127
56499,note_off,148,0,0,,6,,,78,127
56502,note_on,3,0,0,,4,,,76,127
56650,note_off,148,0,0,,4,,,76,127
56653,note_on,3,0,0,,2,,,74,127
56801,note_off,148,0,0,,2,,,74,127
56804,note_on,3,0,0,,1,,,73,127
56952,note_off,148,0,0,,1,,,73,127
56952,note_off,0,0,0,,1,,,61,127
56952,note_off,0,0,0,,6,,,54,127
56952,note_off,0,0,0,,4,,,64,127
56955,note_on,3,0,0,,12,,,71,127
56955,note_on,0,0,0,,12,,,59,127
56955,note_on,0,0,0,,2,,,62,127
56955,note_on,0,0,0,,6,,,54,127
57255,note_off,300,0,0,,2,,,62,127
57255,note_off,0,0,0,,12,,,59,127
57255,note_off,0,0,0,,12,,,71,127
57258,note_on,3,0,0,,11,,,70,127
57258,note_on,0,0,0,,1,,,61,127
57258,note_on,0,0,0,,4,,,64,127
57331,note_off,73,0,0,,11,,,70,127
57334,note_on,3,0,0,,12,,,71,127
57407,note_off,73,0,0,,12,,,71,127
57410,note_on,3,0,0,,1,,,73,127
57558,note_off,148,0,0,,1,,,73,127
57558,note_off,0,0,0,,4,,,64,127
57558,note_off,0,0,0,,1,,,61,127
57561,note_on,3,0,0,,2,,,74,127
57561,note_on,0,0,0,,12,,,59,127
57561,note_on,0,0,0,,2,,,62,127
57861,note_off,300,0,0,,2,,,62,127
57861,note_off,0,0,0,,12,,,59,127
57861,note_off,0,0,0,,2,,,74,127
57864,note_on,3,0,0,,1,,,73,127
57864,note_on,0,0,0,,4,,,64,127
57864,note_on,0,0,0,,1,,,61,127
57937,note_off,73,0,0,,1,,,73,127
57940,note_on,3,0,0,,2,,,74,127
58013,note_off,73,0,0,,2,,,74,127
58016,note_on,3,0,0,,4,,,76,127
58164,note_off,148,0,0,,4,,,76,127
58164,note_off,0,0,0,,1,,,61,127
58164,note_off,0,0,0,,4,,,64,127
58164,note_off,0,0,0,,6,,,54,127
58167,note_on,3,0,0,,12,,,71,127
58167,note_on,0,0,0,,2,,,62,127
58167,note_on,0,0,0,,12,,,59,127
58167,note_on,0,0,0,,6,,,54,127
58467,note_off,300,0,0,,12,,,59,127
58467,note_off,0,0,0,,2,,,62,127
58467,note_off,0,0,0,,12,,,71,127
58470,note_on,3,0,0,,11,,,70,127
58470,note_on,0,0,0,,1,,,61,127
58470,note_on,0,0,0,,4,,,64,127
58543,note_off,73,0,0,,11,,,70,127
58546,note_on,3,0,0,,12,,,71,127
58619,note_off,73,0,0,,12,,,71,127
58622,note_on,3,0,0,,1,,,73,127
58770,note_off,148,0,0,,1,,,73,127
58770,note_off,0,0,0,,4,,,64,127
58770,note_off,0,0,0,,1,,,61,127
58773,note_on,3,0,0,,2,,,74,127
58773,note_on,0,0,0,,12,,,59,127
58773,note_on,0,0,0,,2,,,62,127
59073,note_off,300,0,0,,2,,,62,127
59073,note_off,0,0,0,,12,,,59,127
59073,note_off,0,0,0,,2,,,74,127
59076,note_on,3,0,0,,1,,,73,127
59076,note_on,0,0,0,,4,,,64,127
59076,note_on,0,0,0,,1,,,61,127
59149,note_off,73,0,0,,1,,,73,127
59152,note_on,3,0,0,,2,,,74,127
59225,note_off,73,0,0,,2,,,74,127
59228,note_on,3,0,0,,4,,,76,127
59376,note_off,148,0,0,,4,,,76,127
59376,note_off,0,0,0,,1,,,61,127
59376,note_off,0,0,0,,4,,,64,127
59376,note_off,0,0,0,,6,,,54,127
59379,note_on,3,0,0,,4,,,76,127
59379,note_on,0,0,0,,6,,,54,127
59379,note_on,0,0,0,,12,,,59,127
59527,note_off,148,0,0,,4,,,76,127
59530,note_on,3,0,0,,2,,,74,127
59678,note_off,148,0,0,,2,,,74,127
59678,note_off,0,0,0,,12,,,59,127
59681,note_on,3,0,0,,1,,,73,127
59681,note_on,0,0,0,,1,,,61,127
60281,note_off,600,0,0,,1,,,61,127
60286,note_off,5,0,0,,6,,,54,127
60597,note_off,311,0,0,,1,,,73,127
60629,note_on,32,0,0,,8,,,56,127
60629,note_on,0,0,0,,6,,,66,127
60629,note_on,0,0,0,,3,,,63,127
60781,note_on,152,0,0,,1,,,73,127
60929,note_off,148,0,0,,1,,,73,127
60932,note_on,3,0,0,,0,,,72,127
61232,note_off,300,0,0,,3,,,63,127
61232,note_off,0,0,0,,6,,,66,127
61232,note_off,0,0,0,,8,,,56,127
61235,note_on,3,0,0,,8,,,56,127
61235,note_on,0,0,0,,6,,,66,127
61235,note_on,0,0,0,,3,,,63,127
61383,note_off,148,0,0,,0,,,72,127
61386,note_on,3,0,0,,1,,,73,127
61534,note_off,148,0,0,,1,,,73,127
61537,note_on,3,0,0,,3,,,75,127
61837,note_off,300,0,0,,3,,,63,127
61837,note_off,0,0,0,,6,,,66,127
61837,note_off,0,0,0,,8,,,56,127
61840,note_on,3,0,0,,8,,,56,127
61840,note_on,0,0,0,,3,,,63,127
61840,note_on,0,0,0,,6,,,66,127
61988,note_off,148,0,0,,3,,,75,127
61991,note_on,3,0,0,,4,,,76,127
62139,note_off,148,0,0,,4,,,76,127
62142,note_on,3,0,0,,6,,,78,127
62442,note_off,300,0,0,,6,,,66,127
62442,note_off,0,0,0,,3,,,63,127
62442,note_off,0,0,0,,8,,,56,127
62445,note_on,3,0,0,,8,,,56,127
62445,note_on,0,0,0,,6,,,66,127
62445,note_on,0,0,0,,3,,,63,127
62593,note_off,148,0,0,,6,,,78,127
62596,note_on,3,0,0,,8,,,80,127
62744,note_off,148,0,0,,8,,,80,127
62747,note_on,3,0,0,,10,,,81,127
63047,note_off,300,0,0,,3,,,63,127
63047,note_off,0,0,0,,6,,,66,127
63047,note_off,0,0,0,,8,,,56,127
63050,note_on,3,0,0,,6,,,66,127
63050,note_on,0,0,0,,3,,,63,127
63050,note_on,0,0,0,,8,,,56,127
63198,note_off,148,0,0,,10,,,81,127
63201,note_on,3,0,0,,1,,,85,127
63349,note_off,148,0,0,,1,,,85,127
63352,note_on,3,0,0,,0,,,84,127
63500,note_off,148,0,0,,0,,,84,127
63503,note_on,3,0,0,,10,,,81,127
63651,note_off,148,0,0,,10,,,81,127
63651,note_off,0,0,0,,8,,,56,127
63651,note_off,0,0,0,,3,,,63,127
63651,note_off,0,0,0,,6,,,66,127
63654,note_on,3,0,0,,8,,,56,127
63654,note_on,0,0,0,,3,,,63,127
63654,note_on,0,0,0,,6,,,66,127
63654,note_on,0,0,0,,8,,,80,127
63802,note_off,148,0,0,,8,,,80,127
63805,note_on,3,0,0,,6,,,78,127
63953,note_off,148,0,0,,6,,,78,127
63956,note_on,3,0,0,,4,,,76,127
64104,note_off,148,0,0,,4,,,76,127
64107,note_on,3,0,0,,3,,,75,127
64255,note_off,148,0,0,,3,,,75,127
64255,note_off,0,0,0,,6,,,66,127
64255,note_off,0,0,0,,3,,,63,127
64255,note_off,0,0,0,,8,,,56,127
64258,note_on,3,0,0,,1,,,61,127
64258,note_on,0,0,0,,8,,,56,127
64258,note_on,0,0,0,,4,,,64,127
64258,note_on,0,0,0,,1,,,73,127
64558,note_off,300,0,0,,1,,,73,127
64558,note_off,0,0,0,,4,,,64,127
64558,note_off,0,0,0,,1,,,61,127
64561,note_on,3,0,0,,3,,,63,127
64561,note_on,0,0,0,,6,,,66,127
64561,note_on,0,0,0,,0,,,72,127
64634,note_off,73,0,0,,0,,,72,127
64637,note_on,3,0,0,,1,,,73,127
64710,note_off,73,0,0,,1,,,73,127
64713,note_on,3,0,0,,3,,,75,127
64861,note_off,148,0,0,,3,,,75,127
64861,note_off,0,0,0,,6,,,66,127
64861,note_off,0,0,0,,3,,,63,127
64864,note_on,3,0,0,,4,,,64,127
64864,note_on,0,0,0,,1,,,61,127
64864,note_on,0,0,0,,4,,,76,127
65164,note_off,300,0,0,,4,,,76,127
65164,note_off,0,0,0,,1,,,61,127
65164,note_off,0,0,0,,4,,,64,127
65167,note_on,3,0,0,,6,,,66,127
65167,note_on,0,0,0,,3,,,63,127
65167,note_on,0,0,0,,3,,,75,127
65240,note_off,73,0,0,,3,,,75,127
65243,note_on,3,0,0,,4,,,76,127
65316,note_off,73,0,0,,4,,,76,127
65319,note_on,3,0,0,,6,,,78,127
65467,note_off,148,0,0,,6,,,78,127
65467,note_off,0,0,0,,3,,,63,127
65467,note_off,0,0,0,,6,,,66,127
65467,note_off,0,0,0,,8,,,56,127
65476,note_on,9,0,0,,1,,,73,127
65476,note_on,0,0,0,,1,,,61,127
65476,note_on,0,0,0,,4,,,64,127
65476,note_on,0,0,0,,8,,,56,127
65776,note_off,300,0,0,,4,,,64,127
65776,note_off,0,0,0,,1,,,61,127
65776,note_off,0,0,0,,1,,,73,127
65779,note_on,3,0,0,,0,,,72,127
65779,note_on,0,0,0,,3,,,63,127
65779,note_on,0,0,0,,6,,,66,127
65852,note_off,73,0,0,,0,,,72,127
65855,note_on,3,0,0,,1,,,73,127
65928,note_off,73,0,0,,1,,,73,127
65931,note_on,3,0,0,,3,,,75,127
66079,note_off,148,0,0,,3,,,75,127
66079,note_off,0,0,0,,6,,,66,127
66079,note_off,0,0,0,,3,,,63,127
66082,note_on,3,0,0,,4,,,76,127
66082,note_on,0,0,0,,1,,,61,127
66082,note_on,0,0,0,,4,,,64,127
66382,note_off,300,0,0,,4,,,64,127
66382,note_off,0,0,0,,1,,,61,127
66382,note_off,0,0,0,,4,,,76,127
66385,note_on,3,0,0,,3,,,75,127
66385,note_on,0,0,0,,3,,,63,127
66385,note_on,0,0,0,,6,,,66,127
66458,note_off,73,0,0,,3,,,75,127
66461,note_on,3,0,0,,4,,,76,127
66534,note_off,73,0,0,,4,,,76,127
66537,note_on,3,0,0,,6,,,78,127
66685,note_off,148,0,0,,6,,,78,127
66685,note_off,0,0,0,,6,,,66,127
66685,note_off,0,0,0,,3,,,63,127
66685,note_off,0,0,0,,8,,,56,127
66694,note_on,9,0,0,,8,,,56,127
66694,note_on,0,0,0,,1,,,61,127
66694,note_on,0,0,0,,6,,,78,127
66842,note_off,148,0,0,,6,,,78,127
66845,note_on,3,0,0,,4,,,76,127
66993,note_off,148,0,0,,4,,,76,127
66993,note_off,0,0,0,,1,,,61,127
66996,note_on,3,0,0,,3,,,63,127
66996,note_on,0,0,0,,3,,,75,127
67672,note_off,676,0,0,,8,,,56,127
67691,note_off,19,0,0,,3,,,63,127
67754,note_off,63,0,0,,3,,,75,127
68057,note_on,303,0,0,,8,,,56,127
68057,note_on,0,0,0,,12,,,59,127
68057,note_on,0,0,0,,4,,,64,127
68209,note_on,152,0,0,,8,,,80,127
68357,note_off,148,0,0,,8,,,80,127
68360,note_on,3,0,0,,12,,,83,127
68508,note_off,148,0,0,,12,,,83,127
68511,note_on,3,0,0,,10,,,81,127
68659,note_off,148,0,0,,10,,,81,127
68659,note_off,0,0,0,,4,,,64,127
68659,note_off,0,0,0,,12,,,59,127
68659,note_off,0,0,0,,8,,,56,127
68662,note_on,3,0,0,,8,,,56,127
68662,note_on,0,0,0,,12,,,59,127
68662,note_on,0,0,0,,4,,,64,127
68662,note_on,0,0,0,,8,,,80,127
68810,note_off,148,0,0,,8,,,80,127
68813,note_on,3,0,0,,8,,,80,127
68961,note_off,148,0,0,,8,,,80,127
68964,note_on,3,0,0,,6,,,78,127
69112,note_off,148,0,0,,6,,,78,127
69115,note_on,3,0,0,,4,,,76,127
69263,note_off,148,0,0,,4,,,76,127
69263,note_off,0,0,0,,4,,,64,127
69263,note_off,0,0,0,,12,,,59,127
69263,note_off,0,0,0,,8,,,56,127
69266,note_on,3,0,0,,6,,,54,127
69266,note_on,0,0,0,,10,,,57,127
69266,note_on,0,0,0,,4,,,64,127
69266,note_on,0,0,0,,4,,,76,127
69414,note_off,148,0,0,,4,,,76,127
69417,note_on,3,0,0,,3,,,75,127
69565,note_off,148,0,0,,3,,,75,127
69568,note_on,3,0,0,,6,,,78,127
69716,note_off,148,0,0,,6,,,78,127
69719,note_on,3,0,0,,4,,,76,127
69867,note_off,148,0,0,,4,,,76,127
69867,note_off,0,0,0,,4,,,64,127
69867,note_off,0,0,0,,10,,,57,127
69867,note_off,0,0,0,,6,,,54,127
69870,note_on,3,0,0,,10,,,57,127
69870,note_on,0,0,0,,6,,,54,127
69870,note_on,0,0,0,,4,,,64,127
69870,note_on,0,0,0,,3,,,75,127
70018,note_off,148,0,0,,3,,,75,127
70021,note_on,3,0,0,,3,,,75,127
70169,note_off,148,0,0,,3,,,75,127
70172,note_on,3,0,0,,1,,,73,127
70320,note_off,148,0,0,,1,,,73,127
70323,note_on,3,0,0,,12,,,71,127
70471,note_off,148,0,0,,12,,,71,127
70471,note_off,0,0,0,,4,,,64,127
70471,note_off,0,0,0,,6,,,54,127
70471,note_off,0,0,0,,10,,,57,127
70474,note_on,3,0,0,,12,,,59,127
70474,note_on,0,0,0,,4,,,64,127
70474,note_on,0,0,0,,12,,,71,127
70622,note_off,148,0,0,,12,,,71,127
70625,note_on,3,0,0,,10,,,69,127
70773,note_off,148,0,0,,10,,,69,127
70776,note_on,3,0,0,,1,,,73,127
70924,note_off,148,0,0,,1,,,73,127
70927,note_on,3,0,0,,12,,,71,127
71075,note_off,148,0,0,,12,,,71,127
71075,note_off,0,0,0,,4,,,64,127
71075,note_off,0,0,0,,12,,,59,127
71078,note_on,3,0,0,,12,,,59,127
71078,note_on,0,0,0,,3,,,63,127
71078,note_on,0,0,0,,10,,,69,127
71226,note_off,148,0,0,,10,,,69,127
71229,note_on,3,0,0,,10,,,69,127
71377,note_off,148,0,0,,10,,,69,127
71380,note_on,3,0,0,,8,,,68,127
71528,note_off,148,0,0,,8,,,68,127
71531,note_on,3,0,0,,10,,,69,127
71679,note_off,148,0,0,,10,,,69,127
71679,note_off,0,0,0,,3,,,63,127
71679,note_off,0,0,0,,12,,,59,127
71682,note_on,3,0,0,,4,,,52,127
71682,note_on,0,0,0,,4,,,64,127
71682,note_on,0,0,0,,10,,,69,127
71729,note_off,47,0,0,,10,,,69,127
71732,note_on,3,0,0,,8,,,68,127
71779,note_off,47,0,0,,8,,,68,127
71782,note_on,3,0,0,,10,,,69,127
71829,note_off,47,0,0,,10,,,69,127
71832,note_on,3,0,0,,8,,,68,127
72132,note_off,300,0,0,,8,,,68,127
72135,note_on,3,0,0,,6,,,66,127
72283,note_off,148,0,0,,6,,,66,127
72285,note_off,2,0,0,,4,,,64,127
72287,note_on,2,0,0,,4,,,64,127
72435,note_off,148,0,0,,4,,,52,127
72438,note_on,3,0,0,,2,,,50,127
72586,note_off,148,0,0,,2,,,50,127
72589,note_on,3,0,0,,0,,,48,127
72737,note_off,148,0,0,,0,,,48,127
72740,note_on,3,0,0,,12,,,47,127
72888,note_off,148,0,0,,12,,,47,127
72890,note_off,2,0,0,,4,,,64,127
72892,note_on,2,0,0,,10,,,57,127
72892,note_on,0,0,0,,10,,,45,127
73044,note_on,152,0,0,,4,,,76,127
73192,note_off,148,0,0,,4,,,76,127
73195,note_on,3,0,0,,0,,,84,127
73343,note_off,148,0,0,,0,,,84,127
73346,note_on,3,0,0,,12,,,83,127
73494,note_off,148,0,0,,12,,,83,127
73494,note_off,0,0,0,,10,,,45,127
73494,note_off,0,0,0,,10,,,57,127
73497,note_on,3,0,0,,0,,,48,127
73497,note_on,0,0,0,,10,,,57,127
73497,note_on,0,0,0,,10,,,81,127
73645,note_off,148,0,0,,10,,,81,127
73648,note_on,3,0,0,,10,,,81,127
73796,note_off,148,0,0,,10,,,81,127
73799,note_on,3,0,0,,7,,,79,127
73947,note_off,148,0,0,,7,,,79,127
73950,note_on,3,0,0,,5,,,77,127
74098,note_off,148,0,0,,5,,,77,127
74098,note_off,0,0,0,,10,,,57,127
74098,note_off,0,0,0,,0,,,48,127
74101,note_on,3,0,0,,2,,,50,127
74101,note_on,0,0,0,,10,,,57,127
74101,note_on,0,0,0,,5,,,77,127
74249,note_off,148,0,0,,5,,,77,127
74252,note_on,3,0,0,,5,,,77,127
74400,note_off,148,0,0,,5,,,77,127
74403,note_on,3,0,0,,4,,,76,127
74551,note_off,148,0,0,,4,,,76,127
74554,note_on,3,0,0,,2,,,74,127
74702,note_off,148,0,0,,2,,,74,127
74702,note_off,0,0,0,,10,,,57,127
74702,note_off,0,0,0,,2,,,50,127
74705,note_on,3,0,0,,2,,,50,127
74705,note_on,0,0,0,,2,,,62,127
74705,note_on,0,0,0,,2,,,74,127
74853,note_off,148,0,0,,2,,,74,127
74856,note_on,3,0,0,,2,,,74,127
75004,note_off,148,0,0,,2,,,74,127
75007,note_on,3,0,0,,0,,,72,127
75155,note_off,148,0,0,,0,,,72,127
75158,note_on,3,0,0,,12,,,71,127
75306,note_off,148,0,0,,12,,,71,127
75306,note_off,0,0,0,,2,,,62,127
75306,note_off,0,0,0,,2,,,50,127
75309,note_on,3,0,0,,4,,,52,127
75309,note_on,0,0,0,,2,,,62,127
75309,note_on,0,0,0,,12,,,71,127
75457,note_off,148,0,0,,12,,,71,127
75460,note_on,3,0,0,,12,,,71,127
75608,note_off,148,0,0,,12,,,71,127
75611,note_on,3,0,0,,10,,,69,127
75759,note_off,148,0,0,,10,,,69,127
75762,note_on,3,0,0,,8,,,68,127
75910,note_off,148,0,0,,8,,,68,127
75910,note_off,0,0,0,,2,,,62,127
75910,note_off,0,0,0,,4,,,52,127
75913,note_on,3,0,0,,4,,,52,127
75913,note_on,0,0,0,,12,,,59,127
75913,note_on,0,0,0,,2,,,62,127
75913,note_on,0,0,0,,5,,,77,127
76061,note_off,148,0,0,,5,,,77,127
76064,note_on,3,0,0,,2,,,74,127
76212,note_off,148,0,0,,2,,,74,127
76215,note_on,3,0,0,,0,,,72,127
76363,note_off,148,0,0,,0,,,72,127
76366,note_on,3,0,0,,12,,,71,127
76514,note_off,148,0,0,,12,,,71,127
76514,note_off,0,0,0,,2,,,62,127
76514,note_off,0,0,0,,12,,,59,127
76514,note_off,0,0,0,,4,,,52,127
76517,note_on,3,0,0,,10,,,45,127
76517,note_on,0,0,0,,10,,,57,127
76517,note_on,0,0,0,,2,,,74,127
76564,note_off,47,0,0,,2,,,74,127
76567,note_on,3,0,0,,0,,,72,127
76614,note_off,47,0,0,,0,,,72,127
76617,note_on,3,0,0,,2,,,74,127
76664,note_off,47,0,0,,2,,,74,127
76667,note_on,3,0,0,,0,,,72,127
76967,note_off,300,0,0,,0,,,72,127
76970,note_on,3,0,0,,12,,,71,127
77118,note_off,148,0,0,,12,,,71,127
77121,note_on,3,0,0,,10,,,69,127
77269,note_off,148,0,0,,10,,,69,127
77272,note_on,3,0,0,,12,,,71,127
77420,note_off,148,0,0,,12,,,71,127
77423,note_on,3,0,0,,0,,,72,127
77571,note_off,148,0,0,,0,,,72,127
77574,note_on,3,0,0,,2,,,74,127
77618,note_off,44,0,0,,10,,,45,127
77722,note_off,104,0,0,,2,,,74,127
77722,note_off,0,0,0,,10,,,57,127
77725,note_on,3,0,0,,0,,,72,127
77725,note_on,0,0,0,,4,,,76,127
77873,note_off,148,0,0,,0,,,72,127
77876,note_on,3,0,0,,10,,,69,127
78024,note_off,148,0,0,,10,,,69,127
78024,note_off,0,0,0,,4,,,76,127
78027,note_on,3,0,0,,12,,,71,127
78027,note_on,0,0,0,,2,,,74,127
78175,note_off,148,0,0,,12,,,71,127
78178,note_on,3,0,0,,8,,,68,127
78326,note_off,148,0,0,,8,,,68,127
78326,note_off,0,0,0,,2,,,74,127
78329,note_on,3,0,0,,10,,,69,127
78329,note_on,0,0,0,,0,,,72,127
78477,note_off,148,0,0,,10,,,69,127
78480,note_on,3,0,0,,10,,,57,127
78628,note_off,148,0,0,,10,,,57,127
78628,note_off,0,0,0,,0,,,72,127
78631,note_on,3,0,0,,4,,,64,127
78631,note_on,0,0,0,,12,,,71,127
78779,note_off,148,0,0,,4,,,64,127
78782,note_on,3,0,0,,4,,,52,127
78930,note_off,148,0,0,,4,,,52,127
78930,note_off,0,0,0,,12,,,71,127
78933,note_on,3,0,0,,10,,,45,127
78933,note_on,0,0,0,,10,,,57,127
78933,note_on,0,0,0,,2,,,74,127
78980,note_off,47,0,0,,2,,,74,127
78983,note_on,3,0,0,,0,,,72,127
79030,note_off,47,0,0,,0,,,72,127
79033,note_on,3,0,0,,2,,,74,127
79080,note_off,47,0,0,,2,,,74,127
79083,note_on,3,0,0,,0,,,72,127
79383,note_off,300,0,0,,0,,,72,127
79386,note_on,3,0,0,,12,,,71,127
79534,note_off,148,0,0,,12,,,71,127
79537,note_on,3,0,0,,10,,,69,127
79685,note_off,148,0,0,,10,,,69,127
79688,note_on,3,0,0,,12,,,71,127
79836,note_off,148,0,0,,12,,,71,127
79839,note_on,3,0,0,,0,,,72,127
79987,note_off,148,0,0,,0,,,72,127
79990,note_on,3,0,0,,2,,,74,127
80034,note_off,44,0,0,,10,,,45,127
80138,note_off,104,0,0,,2,,,74,127
80138,note_off,0,0,0,,10,,,57,127
80141,note_on,3,0,0,,0,,,72,127
80141,note_on,0,0,0,,4,,,76,127
80289,note_off,148,0,0,,0,,,72,127
80292,note_on,3,0,0,,10,,,69,127
80440,note_off,148,0,0,,10,,,69,127
80440,note_off,0,0,0,,4,,,76,127
80443,note_on,3,0,0,,12,,,71,127
80443,note_on,0,0,0,,2,,,74,127
80591,note_off,148,0,0,,12,,,71,127
80594,note_on,3,0,0,,8,,,68,127
80742,note_off,148,0,0,,8,,,68,127
80742,note_off,0,0,0,,2,,,74,127
80745,note_on,3,0,0,,10,,,69,127
80745,note_on,0,0,0,,0,,,72,127
80893,note_off,148,0,0,,10,,,69,127
80896,note_on,3,0,0,,10,,,57,127
81044,note_off,148,0,0,,10,,,57,127
81044,note_off,0,0,0,,0,,,72,127
81047,note_on,3,0,0,,4,,,64,127
81047,note_on,0,0,0,,12,,,71,127
81195,note_off,148,0,0,,4,,,64,127
81198,note_on,3,0,0,,4,,,52,127
81346,note_off,148,0,0,,4,,,52,127
81346,note_off,0,0,0,,12,,,71,127
81349,note_on,3,0,0,,10,,,45,127
81349,note_on,0,0,0,,10,,,57,127
81349,note_on,0,0,0,,2,,,74,127
81396,note_off,47,0,0,,2,,,74,127
81399,note_on,3,0,0,,0,,,72,127
81446,note_off,47,0,0,,0,,,72,127
81449,note_on,3,0,0,,2,,,74,127
81496,note_off,47,0,0,,2,,,74,127
81499,note_on,3,0,0,,0,,,72,127
81799,note_off,300,0,0,,0,,,72,127
81802,note_on,3,0,0,,12,,,71,127
81950,note_off,148,0,0,,12,,,71,127
81953,note_on,3,0,0,,10,,,69,127
82101,note_off,148,0,0,,10,,,69,127
82104,note_off,3,0,0,,10,,,57,127
82104,note_off,0,0,0,,10,,,45,127
82104,note_on,0,0,0,,4,,,76,127
82252,note_off,148,0,0,,4,,,76,127
82255,note_on,3,0,0,,2,,,74,127
82403,note_off,148,0,0,,2,,,74,127
82406,note_on,3,0,0,,0,,,72,127
82554,note_off,148,0,0,,0,,,72,127
82557,note_on,3,0,0,,12,,,71,127
82557,note_on,0,0,0,,2,,,74,127
82705,note_off,148,0,0,,12,,,71,127
82708,note_on,3,0,0,,7,,,67,127
82856,note_off,148,0,0,,7,,,67,127
82856,note_off,0,0,0,,2,,,74,127
82859,note_on,3,0,0,,10,,,69,127
82859,note_on,0,0,0,,0,,,72,127
83007,note_off,148,0,0,,10,,,69,127
83010,note_on,3,0,0,,6,,,66,127
83158,note_off,148,0,0,,6,,,66,127
83158,note_off,0,0,0,,0,,,72,127
83161,note_on,3,0,0,,7,,,67,127
83161,note_on,0,0,0,,12,,,71,127
83309,note_off,148,0,0,,7,,,67,127
83312,note_on,3,0,0,,7,,,55,127
83460,note_off,148,0,0,,7,,,55,127
83460,note_off,0,0,0,,12,,,71,127
83463,note_on,3,0,0,,2,,,62,127
83463,note_on,0,0,0,,10,,,69,127
83611,note_off,148,0,0,,2,,,62,127
83614,note_on,3,0,0,,2,,,50,127
83762,note_off,148,0,0,,2,,,50,127
83762,note_off,0,0,0,,10,,,69,127
83765,note_on,3,0,0,,7,,,43,127
83765,note_on,0,0,0,,7,,,55,127
83765,note_on,0,0,0,,0,,,72,127
83812,note_off,47,0,0,,0,,,72,127
83815,note_on,3,0,0,,12,,,71,127
83862,note_off,47,0,0,,12,,,71,127
83865,note_on,3,0,0,,0,,,72,127
83912,note_off,47,0,0,,0,,,72,127
83915,note_on,3,0,0,,12,,,71,127
84215,note_off,300,0,0,,12,,,71,127
84218,note_on,3,0,0,,10,,,69,127
84366,note_off,148,0,0,,10,,,69,127
84369,note_on,3,0,0,,7,,,67,127
84517,note_off,148,0,0,,7,,,67,127
84520,note_on,3,0,0,,4,,,76,127
84668,note_off,148,0,0,,4,,,76,127
84671,note_on,3,0,0,,2,,,74,127
84819,note_off,148,0,0,,2,,,74,127
84822,note_on,3,0,0,,0,,,72,127
84866,note_off,44,0,0,,7,,,43,127
84970,note_off,104,0,0,,0,,,72,127
84970,note_off,0,0,0,,7,,,55,127
84973,note_on,3,0,0,,12,,,71,127
84973,note_on,0,0,0,,2,,,74,127
85121,note_off,148,0,0,,12,,,71,127
85124,note_on,3,0,0,,7,,,67,127
85272,note_off,148,0,0,,7,,,67,127
85272,note_off,0,0,0,,2,,,74,127
85275,note_on,3,0,0,,10,,,69,127
85275,note_on,0,0,0,,0,,,72,127
85423,note_off,148,0,0,,10,,,69,127
85426,note_on,3,0,0,,6,,,66,127
85574,note_off,148,0,0,,6,,,66,127
85574,note_off,0,0,0,,0,,,72,127
85577,note_on,3,0,0,,7,,,67,127
85577,note_on,0,0,0,,12,,,71,127
85725,note_off,148,0,0,,7,,,67,127
85728,note_on,3,0,0,,7,,,55,127
85876,note_off,148,0,0,,7,,,55,127
85876,note_off,0,0,0,,12,,,71,127
85879,note_on,3,0,0,,2,,,62,127
85879,note_on,0,0,0,,10,,,69,127
86027,note_off,148,0,0,,2,,,62,127
86030,note_on,3,0,0,,2,,,50,127
86178,note_off,148,0,0,,2,,,50,127
86178,note_off,0,0,0,,10,,,69,127
86181,note_on,3,0,0,,7,,,55,127
86181,note_on,0,0,0,,7,,,43,127
86181,note_on,0,0,0,,0,,,72,127
86228,note_off,47,0,0,,0,,,72,127
86231,note_on,3,0,0,,12,,,71,127
86278,note_off,47,0,0,,12,,,71,127
86281,note_on,3,0,0,,0,,,72,127
86328,note_off,47,0,0,,0,,,72,127
86331,note_on,3,0,0,,12,,,71,127
86631,note_off,300,0,0,,12,,,71,127
86634,note_on,3,0,0,,10,,,69,127
86782,note_off,148,0,0,,10,,,69,127
86782,note_off,0,0,0,,7,,,43,127
86785,note_on,3,0,0,,12,,,47,127
86785,note_on,0,0,0,,7,,,67,127
86933,note_off,148,0,0,,7,,,67,127
86936,note_on,3,0,0,,10,,,81,127
87084,note_off,148,0,0,,10,,,81,127
87087,note_on,3,0,0,,7,,,79,127
87235,note_off,148,0,0,,7,,,79,127
87238,note_on,3,0,0,,6,,,78,127
87386,note_off,148,0,0,,6,,,78,127
87386,note_off,0,0,0,,12,,,47,127
87386,note_off,0,0,0,,7,,,55,127
87389,note_on,3,0,0,,0,,,48,127
87389,note_on,0,0,0,,4,,,76,127
87537,note_off,148,0,0,,4,,,76,127
87540,note_on,3,0,0,,2,,,74,127
87688,note_off,148,0,0,,2,,,74,127
87691,note_on,3,0,0,,0,,,72,127
87839,note_off,148,0,0,,0,,,72,127
87842,note_on,3,0,0,,12,,,71,127
87990,note_off,148,0,0,,12,,,71,127
87993,note_on,3,0,0,,0,,,60,127
87993,note_on,0,0,0,,10,,,69,127
88141,note_off,148,0,0,,10,,,69,127
88144,note_on,3,0,0,,7,,,67,127
88292,note_off,148,0,0,,7,,,67,127
88295,note_on,3,0,0,,6,,,66,127
88443,note_off,148,0,0,,6,,,66,127
88446,note_on,3,0,0,,7,,,67,127
88594,note_off,148,0,0,,7,,,67,127
88594,note_off,0,0,0,,0,,,60,127
88596,note_off,2,0,0,,0,,,48,127
88598,note_on,2,0,0,,2,,,50,127
88598,note_on,0,0,0,,7,,,67,127
88898,note_off,300,0,0,,7,,,67,127
88901,note_on,3,0,0,,6,,,66,127
89353,note_off,452,0,0,,6,,,66,127
89356,note_off,3,0,0,,2,,,50,127
89444,note_on,88,0,0,,10,,,81,127
89592,note_off,148,0,0,,10,,,81,127
89595,note_on,3,0,0,,12,,,83,127
89743,note_off,148,0,0,,12,,,83,127
89746,note_on,3,0,0,,0,,,84,127
89894,note_off,148,0,0,,0,,,84,127
89897,note_on,3,0,0,,7,,,79,127
89897,note_on,0,0,0,,12,,,83,127
90045,note_off,148,0,0,,7,,,79,127
90048,note_on,3,0,0,,7,,,67,127
90196,note_off,148,0,0,,7,,,67,127
90196,note_off,0,0,0,,12,,,83,127
90199,note_on,3,0,0,,2,,,74,127
90199,note_on,0,0,0,,10,,,81,127
90347,note_off,148,0,0,,2,,,74,127
90350,note_on,3,0,0,,2,,,62,127
90498,note_off,148,0,0,,2,,,62,127
90498,note_off,0,0,0,,10,,,81,127
90501,note_on,3,0,0,,7,,,67,127
90501,note_on,0,0,0,,7,,,79,127
90649,note_off,148,0,0,,7,,,67,127
90652,note_on,3,0,0,,7,,,55,127
90800,note_off,148,0,0,,7,,,55,127
90800,note_off,0,0,0,,7,,,79,127
90803,note_on,3,0,0,,2,,,62,127
90803,note_on,0,0,0,,10,,,81,127
90951,note_off,148,0,0,,2,,,62,127
90954,note_on,3,0,0,,2,,,50,127
91102,note_off,148,0,0,,2,,,50,127
91102,note_off,0,0,0,,10,,,81,127
91105,note_on,3,0,0,,7,,,43,127
91105,note_on,0,0,0,,7,,,55,127
91105,note_on,0,0,0,,0,,,84,127
91152,note_off,47,0,0,,0,,,84,127
91155,note_on,3,0,0,,12,,,83,127
91202,note_off,47,0,0,,12,,,83,127
91205,note_on,3,0,0,,0,,,84,127
91252,note_off,47,0,0,,0,,,84,127
91255,note_on,3,0,0,,12,,,83,127
91555,note_off,300,0,0,,12,,,83,127
91558,note_on,3,0,0,,10,,,81,127
91706,note_off,148,0,0,,10,,,81,127
91709,note_on,3,0,0,,7,,,79,127
91857,note_off,148,0,0,,7,,,79,127
91860,note_on,3,0,0,,10,,,81,127
92008,note_off,148,0,0,,10,,,81,127
92011,note_on,3,0,0,,12,,,83,127
92159,note_off,148,0,0,,12,,,83,127
92162,note_on,3,0,0,,0,,,84,127
92206,note_off,44,0,0,,7,,,43,127
92310,note_off,104,0,0,,0,,,84,127
92310,note_off,0,0,0,,7,,,55,127
92313,note_on,3,0,0,,7,,,79,127
92313,note_on,0,0,0,,12,,,83,127
92461,note_off,148,0,0,,7,,,79,127
92464,note_on,3,0,0,,7,,,67,127
92612,note_off,148,0,0,,7,,,67,127
92612,note_off,0,0,0,,12,,,83,127
92615,note_on,3,0,0,,2,,,74,127
92615,note_on,0,0,0,,10,,,81,127
92763,note_off,148,0,0,,2,,,74,127
92766,note_on,3,0,0,,2,,,62,127
92914,note_off,148,0,0,,2,,,62,127
92914,note_off,0,0,0,,10,,,81,127
92917,note_on,3,0,0,,7,,,67,127
92917,note_on,0,0,0,,7,,,79,127
93065,note_off,148,0,0,,7,,,67,127
93068,note_on,3,0,0,,7,,,55,127
93216,note_off,148,0,0,,7,,,55,127
93216,note_off,0,0,0,,7,,,79,127
93219,note_on,3,0,0,,2,,,62,127
93219,note_on,0,0,0,,10,,,81,127
93367,note_off,148,0,0,,2,,,62,127
93370,note_on,3,0,0,,2,,,50,127
93518,note_off,148,0,0,,2,,,50,127
93518,note_off,0,0,0,,10,,,81,127
93521,note_on,3,0,0,,7,,,55,127
93521,note_on,0,0,0,,7,,,43,127
93521,note_on,0,0,0,,0,,,84,127
93568,note_off,47,0,0,,0,,,84,127
93571,note_on,3,0,0,,12,,,83,127
93618,note_off,47,0,0,,12,,,83,127
93621,note_on,3,0,0,,0,,,84,127
93668,note_off,47,0,0,,0,,,84,127
93671,note_on,3,0,0,,12,,,83,127
93971,note_off,300,0,0,,12,,,83,127
93974,note_on,3,0,0,,10,,,81,127
94122,note_off,148,0,0,,10,,,81,127
94125,note_on,3,0,0,,7,,,79,127
94273,note_off,148,0,0,,7,,,79,127
94276,note_on,3,0,0,,6,,,78,127
94424,note_off,148,0,0,,6,,,78,127
94427,note_on,3,0,0,,4,,,76,127
94575,note_off,148,0,0,,4,,,76,127
94578,note_on,3,0,0,,2,,,74,127
94591,note_off,13,0,0,,7,,,43,127
94591,note_off,0,0,0,,7,,,55,127
94727,note_off,136,0,0,,2,,,74,127
94730,note_on,3,0,0,,0,,,48,127
94730,note_on,0,0,0,,4,,,76,127
94878,note_off,148,0,0,,4,,,76,127
94881,note_on,3,0,0,,7,,,79,127
95029,note_off,148,0,0,,7,,,79,127
95029,note_off,0,0,0,,0,,,48,127
95032,note_on,3,0,0,,0,,,60,127
95032,note_on,0,0,0,,6,,,78,127
95180,note_off,148,0,0,,6,,,78,127
95183,note_on,3,0,0,,4,,,76,127
95331,note_off,148,0,0,,4,,,76,127
95331,note_off,0,0,0,,0,,,60,127
95334,note_on,3,0,0,,2,,,62,127
95334,note_on,0,0,0,,2,,,74,127
95482,note_off,148,0,0,,2,,,74,127
95485,note_on,3,0,0,,0,,,72,127
95633,note_off,148,0,0,,0,,,72,127
95633,note_off,0,0,0,,2,,,62,127
95636,note_on,3,0,0,,2,,,50,127
95636,note_on,0,0,0,,12,,,71,127
95788,note_on,152,0,0,,10,,,69,127
95791,note_off,3,0,0,,12,,,71,127
95936,note_off,145,0,0,,10,,,69,127
95936,note_off,0,0,0,,2,,,50,127
95939,note_on,3,0,0,,7,,,55,127
95939,note_on,0,0,0,,7,,,67,127
96087,note_off,148,0,0,,7,,,67,127
96090,note_on,3,0,0,,2,,,62,127
96238,note_off,148,0,0,,2,,,62,127
96241,note_on,3,0,0,,4,,,64,127
96389,note_off,148,0,0,,4,,,64,127
96392,note_on,3,0,0,,6,,,66,127
96540,note_off,148,0,0,,6,,,66,127
96543,note_on,3,0,0,,7,,,67,127
96691,note_off,148,0,0,,7,,,67,127
96694,note_on,3,0,0,,10,,,69,127
96842,note_off,148,0,0,,10,,,69,127
96844,note_off,2,0,0,,7,,,55,127
96846,note_on,2,0,0,,12,,,71,127
96994,note_off,148,0,0,,12,,,71,127
96997,note_on,3,0,0,,0,,,72,127
97145,note_off,148,0,0,,0,,,72,127
97148,note_on,3,0,0,,7,,,67,127
97148,note_on,0,0,0,,12,,,71,127
97296,note_off,148,0,0,,7,,,67,127
97299,note_on,3,0,0,,7,,,55,127
97447,note_off,148,0,0,,7,,,55,127
97447,note_off,0,0,0,,12,,,71,127
97450,note_on,3,0,0,,2,,,62,127
97450,note_on,0,0,0,,10,,,69,127
97598,note_off,148,0,0,,2,,,62,127
97601,note_on,3,0,0,,2,,,50,127
97749,note_off,148,0,0,,2,,,50,127
97749,note_off,0,0,0,,10,,,69,127
97752,note_on,3,0,0,,7,,,55,127
97752,note_on,0,0,0,,7,,,67,127
97900,note_off,148,0,0,,7,,,55,127
97903,note_on,3,0,0,,7,,,43,127
98051,note_off,148,0,0,,7,,,43,127
98051,note_off,0,0,0,,7,,,67,127
98054,note_on,3,0,0,,2,,,50,127
98054,note_on,0,0,0,,10,,,69,127
98202,note_off,148,0,0,,2,,,50,127
98205,note_on,3,0,0,,2,,,38,127
98353,note_off,148,0,0,,2,,,38,127
98353,note_off,0,0,0,,10,,,69,127
98356,note_on,3,0,0,,7,,,43,127
98356,note_on,0,0,0,,7,,,31,127
98356,note_on,0,0,0,,0,,,72,127
98403,note_off,47,0,0,,0,,,72,127
98406,note_on,3,0,0,,12,,,71,127
98453,note_off,47,0,0,,12,,,71,127
98456,note_on,3,0,0,,0,,,72,127
98503,note_off,47,0,0,,0,,,72,127
98506,note_on,3,0,0,,12,,,71,127
98806,note_off,300,0,0,,12,,,71,127
98809,note_on,3,0,0,,10,,,69,127
98957,note_off,148,0,0,,10,,,69,127
98960,note_on,3,0,0,,7,,,67,127
99108,note_off,148,0,0,,7,,,67,127
99111,note_on,3,0,0,,10,,,69,127
99259,note_off,148,0,0,,10,,,69,127
99262,note_on,3,0,0,,12,,,71,127
99410,note_off,148,0,0,,12,,,71,127
99413,note_on,3,0,0,,0,,,72,127
99457,note_off,44,0,0,,7,,,31,127
99561,note_off,104,0,0,,0,,,72,127
99561,note_off,0,0,0,,7,,,43,127
99564,note_on,3,0,0,,7,,,67,127
99564,note_on,0,0,0,,12,,,71,127
99712,note_off,148,0,0,,7,,,67,127
99715,note_on,3,0,0,,7,,,55,127
99863,note_off,148,0,0,,7,,,55,127
99863,note_off,0,0,0,,12,,,71,127
99866,note_on,3,0,0,,2,,,62,127
99866,note_on,0,0,0,,10,,,69,127
100014,note_off,148,0,0,,2,,,62,127
100017,note_on,3,0,0,,2,,,50,127
100165,note_off,148,0,0,,2,,,50,127
100165,note_off,0,0,0,,10,,,69,127
100168,note_on,3,0,0,,7,,,55,127
100168,note_on,0,0,0,,7,,,67,127
100316,note_off,148,0,0,,7,,,55,127
100319,note_on,3,0,0,,7,,,43,127
100467,note_off,148,0,0,,7,,,43,127
100467,note_off,0,0,0,,7,,,67,127
100470,note_on,3,0,0,,2,,,50,127
100470,note_on,0,0,0,,10,,,69,127
100618,note_off,148,0,0,,2,,,50,127
100621,note_on,3,0,0,,2,,,38,127
100769,note_off,148,0,0,,2,,,38,127
100769,note_off,0,0,0,,10,,,69,127
100772,note_on,3,0,0,,7,,,43,127
100772,note_on,0,0,0,,7,,,31,127
100772,note_on,0,0,0,,0,,,72,127
100819,note_off,47,0,0,,0,,,72,127
100822,note_on,3,0,0,,12,,,71,127
100869,note_off,47,0,0,,12,,,71,127
100872,note_on,3,0,0,,0,,,72,127
100919,note_off,47,0,0,,0,,,72,127
100922,note_on,3,0,0,,12,,,71,127
101222,note_off,300,0,0,,12,,,71,127
101225,note_on,3,0,0,,10,,,69,127
101373,note_off,148,0,0,,10,,,69,127
101376,note_on,3,0,0,,7,,,67,127
101524,note_off,148,0,0,,7,,,67,127
101527,note_on,3,0,0,,6,,,66,127
101675,note_off,148,0,0,,6,,,66,127
101678,note_on,3,0,0,,4,,,64,127
101826,note_off,148,0,0,,4,,,64,127
101829,note_on,3,0,0,,2,,,62,127
101873,note_off,44,0,0,,7,,,31,127
101977,note_off,104,0,0,,2,,,62,127
101977,note_off,0,0,0,,7,,,43,127
101980,note_on,3,0,0,,0,,,48,127
101980,note_on,0,0,0,,4,,,64,127
102128,note_off,148,0,0,,4,,,64,127
102131,note_on,3,0,0,,4,,,76,127
102279,note_off,148,0,0,,4,,,76,127
102279,note_off,0,0,0,,0,,,48,127
102282,note_on,3,0,0,,0,,,60,127
102282,note_on,0,0,0,,2,,,74,127
102430,note_off,148,0,0,,2,,,74,127
102433,note_on,3,0,0,,0,,,72,127
102581,note_off,148,0,0,,0,,,72,127
102581,note_off,0,0,0,,0,,,60,127
102584,note_on,3,0,0,,2,,,62,127
102584,note_on,0,0,0,,12,,,71,127
102732,note_off,148,0,0,,12,,,71,127
102735,note_on,3,0,0,,10,,,69,127
102883,note_off,148,0,0,,10,,,69,127
102883,note_off,0,0,0,,2,,,62,127
102886,note_on,3,0,0,,2,,,50,127
102886,note_on,0,0,0,,7,,,67,127
103034,note_off,148,0,0,,7,,,67,127
103037,note_on,3,0,0,,6,,,66,127
103185,note_off,148,0,0,,6,,,66,127
103185,note_off,0,0,0,,2,,,50,127
103201,note_on,16,0,0,,7,,,43,127
103201,note_on,0,0,0,,7,,,67,127
103349,note_off,148,0,0,,7,,,67,127
103352,note_on,3,0,0,,2,,,86,127
103500,note_off,148,0,0,,2,,,86,127
103503,note_on,3,0,0,,2,,,74,127
103651,note_off,148,0,0,,2,,,74,127
103654,note_on,3,0,0,,12,,,83,127
103654,note_on,0,0,0,,7,,,79,127
103802,note_off,148,0,0,,7,,,79,127
103802,note_off,0,0,0,,12,,,83,127
103802,note_off,0,0,0,,7,,,43,127
103805,note_on,3,0,0,,2,,,38,127
103805,note_on,0,0,0,,7,,,79,127
103805,note_on,0,0,0,,12,,,83,127
103852,note_off,47,0,0,,12,,,83,127
103852,note_off,0,0,0,,7,,,79,127
103855,note_on,3,0,0,,6,,,78,127
103855,note_on,0,0,0,,10,,,81,127
103902,note_off,47,0,0,,10,,,81,127
103902,note_off,0,0,0,,6,,,78,127
103905,note_on,3,0,0,,7,,,79,127
103905,note_on,0,0,0,,12,,,83,127
103952,note_off,47,0,0,,12,,,83,127
103952,note_off,0,0,0,,7,,,79,127
103955,note_on,3,0,0,,6,,,78,127
103955,note_on,0,0,0,,10,,,81,127
104103,note_off,148,0,0,,2,,,38,127
104106,note_on,3,0,0,,2,,,50,127
104406,note_off,300,0,0,,2,,,50,127
104406,note_off,0,0,0,,10,,,81,127
104406,note_off,0,0,0,,6,,,78,127
104414,note_on,8,0,0,,7,,,67,127
104414,note_on,0,0,0,,7,,,43,127
104562,note_off,148,0,0,,7,,,67,127
104565,note_on,3,0,0,,2,,,86,127
104713,note_off,148,0,0,,2,,,86,127
104716,note_on,3,0,0,,2,,,74,127
104864,note_off,148,0,0,,2,,,74,127
104867,note_on,3,0,0,,12,,,83,127
104867,note_on,0,0,0,,7,,,79,127
105015,note_off,148,0,0,,7,,,79,127
105015,note_off,0,0,0,,12,,,83,127
105015,note_off,0,0,0,,7,,,43,127
105018,note_on,3,0,0,,12,,,83,127
105018,note_on,0,0,0,,7,,,79,127
105018,note_on,0,0,0,,2,,,38,127
105065,note_off,47,0,0,,7,,,79,127
105065,note_off,0,0,0,,12,,,83,127
105068,note_on,3,0,0,,10,,,81,127
105068,note_on,0,0,0,,6,,,78,127
105115,note_off,47,0,0,,6,,,78,127
105115,note_off,0,0,0,,10,,,81,127
105118,note_on,3,0,0,,12,,,83,127
105118,note_on,0,0,0,,7,,,79,127
105165,note_off,47,0,0,,7,,,79,127
105165,note_off,0,0,0,,12,,,83,127
105168,note_on,3,0,0,,10,,,81,127
105168,note_on,0,0,0,,6,,,78,127
105316,note_off,148,0,0,,2,,,38,127
105319,note_on,3,0,0,,2,,,50,127
105619,note_off,300,0,0,,2,,,50,127
105619,note_off,0,0,0,,6,,,78,127
105619,note_off,0,0,0,,10,,,81,127
105632,note_on,13,0,0,,0,,,48,127
105632,note_on,0,0,0,,4,,,76,127
105780,note_off,148,0,0,,4,,,76,127
105783,note_on,3,0,0,,10,,,81,127
105931,note_off,148,0,0,,10,,,81,127
105931,note_off,0,0,0,,0,,,48,127
105934,note_on,3,0,0,,0,,,36,127
105934,note_on,0,0,0,,12,,,83,127
106082,note_off,148,0,0,,12,,,83,127
106085,note_on,3,0,0,,0,,,84,127
106233,note_off,148,0,0,,0,,,84,127
106233,note_off,0,0,0,,0,,,36,127
106236,note_on,3,0,0,,2,,,38,127
106236,note_on,0,0,0,,12,,,83,127
106236,note_on,0,0,0,,2,,,74,127
106384,note_off,148,0,0,,12,,,83,127
106387,note_on,3,0,0,,7,,,79,127
106535,note_off,148,0,0,,7,,,79,127
106535,note_off,0,0,0,,2,,,74,127
106535,note_off,0,0,0,,2,,,38,127
106538,note_on,3,0,0,,2,,,50,127
106538,note_on,0,0,0,,10,,,81,127
106538,note_on,0,0,0,,0,,,72,127
106686,note_off,148,0,0,,10,,,81,127
106689,note_on,3,0,0,,6,,,78,127
106837,note_off,148,0,0,,6,,,78,127
106837,note_off,0,0,0,,0,,,72,127
106837,note_off,0,0,0,,2,,,50,127
106845,note_on,8,0,0,,7,,,79,127
106845,note_on,0,0,0,,7,,,55,127
106997,note_on,152,0,0,,2,,,74,127
107145,note_off,148,0,0,,2,,,74,127
107145,note_off,0,0,0,,7,,,55,127
107148,note_on,3,0,0,,12,,,71,127
107148,note_on,0,0,0,,7,,,43,127
107296,note_off,148,0,0,,12,,,71,127
107299,note_on,3,0,0,,2,,,74,127
107447,note_off,148,0,0,,2,,,74,127
107447,note_off,0,0,0,,7,,,43,127
107447,note_off,0,0,0,,7,,,79,127
107450,note_on,3,0,0,,2,,,74,127
107450,note_on,0,0,0,,6,,,78,127
107450,note_on,0,0,0,,2,,,50,127
107523,note_off,73,0,0,,2,,,74,127
107526,note_on,3,0,0,,0,,,72,127
107599,note_off,73,0,0,,0,,,72,127
107602,note_on,3,0,0,,2,,,74,127
107675,note_off,73,0,0,,2,,,74,127
107678,note_on,3,0,0,,0,,,72,127
107751,note_off,73,0,0,,0,,,72,127
107751,note_off,0,0,0,,2,,,50,127
107754,note_on,3,0,0,,2,,,74,127
107754,note_on,0,0,0,,2,,,38,127
107827,note_off,73,0,0,,2,,,74,127
107830,note_on,3,0,0,,0,,,72,127
107903,note_off,73,0,0,,0,,,72,127
107906,note_on,3,0,0,,12,,,71,127
107979,note_off,73,0,0,,12,,,71,127
107982,note_on,3,0,0,,0,,,72,127
108055,note_off,73,0,0,,0,,,72,127
108055,note_off,0,0,0,,2,,,38,127
108055,note_off,0,0,0,,6,,,78,127
108058,note_on,3,0,0,,7,,,79,127
108058,note_on,0,0,0,,7,,,55,127
108210,note_on,152,0,0,,2,,,74,127
108358,note_off,148,0,0,,2,,,74,127
108358,note_off,0,0,0,,7,,,55,127
108361,note_on,3,0,0,,12,,,71,127
108361,note_on,0,0,0,,7,,,43,127
108509,note_off,148,0,0,,12,,,71,127
108512,note_on,3,0,0,,2,,,74,127
108660,note_off,148,0,0,,2,,,74,127
108660,note_off,0,0,0,,7,,,43,127
108660,note_off,0,0,0,,7,,,79,127
108663,note_on,3,0,0,,2,,,74,127
108663,note_on,0,0,0,,10,,,81,127
108663,note_on,0,0,0,,2,,,50,127
108736,note_off,73,0,0,,2,,,74,127
108739,note_on,3,0,0,,0,,,72,127
108812,note_off,73,0,0,,0,,,72,127
108815,note_on,3,0,0,,2,,,74,127
108888,note_off,73,0,0,,2,,,74,127
108891,note_on,3,0,0,,0,,,72,127
108964,note_off,73,0,0,,0,,,72,127
108964,note_off,0,0,0,,2,,,50,127
108967,note_on,3,0,0,,2,,,74,127
108967,note_on,0,0,0,,2,,,38,127
109040,note_off,73,0,0,,2,,,74,127
109043,note_on,3,0,0,,0,,,72,127
109116,note_off,73,0,0,,0,,,72,127
109119,note_on,3,0,0,,12,,,71,127
109192,note_off,73,0,0,,12,,,71,127
109195,note_on,3,0,0,,0,,,72,127
109268,note_off,73,0,0,,0,,,72,127
109268,note_off,0,0,0,,2,,,38,127
109268,note_off,0,0,0,,10,,,81,127
109276,note_on,8,0,0,,7,,,55,127
109276,note_on,0,0,0,,7,,,79,127
109428,note_on,152,0,0,,2,,,74,127
109576,note_off,148,0,0,,2,,,74,127
109576,note_off,0,0,0,,7,,,55,127
109579,note_on,3,0,0,,7,,,43,127
109579,note_on,0,0,0,,12,,,71,127
109727,note_off,148,0,0,,12,,,71,127
109730,note_on,3,0,0,,2,,,74,127
109878,note_off,148,0,0,,2,,,74,127
109878,note_off,0,0,0,,7,,,43,127
109878,note_off,0,0,0,,7,,,79,127
109881,note_on,3,0,0,,2,,,50,127
109881,note_on,0,0,0,,6,,,78,127
109881,note_on,0,0,0,,2,,,74,127
109954,note_off,73,0,0,,2,,,74,127
109957,note_on,3,0,0,,0,,,72,127
110030,note_off,73,0,0,,0,,,72,127
110033,note_on,3,0,0,,2,,,74,127
110106,note_off,73,0,0,,2,,,74,127
110109,note_on,3,0,0,,0,,,72,127
110182,note_off,73,0,0,,0,,,72,127
110182,note_off,0,0,0,,2,,,50,127
110185,note_on,3,0,0,,2,,,38,127
110185,note_on,0,0,0,,2,,,74,127
110258,note_off,73,0,0,,2,,,74,127
110261,note_on,3,0,0,,0,,,72,127
110334,note_off,73,0,0,,0,,,72,127
110337,note_on,3,0,0,,12,,,71,127
110410,note_off,73,0,0,,12,,,71,127
110413,note_on,3,0,0,,0,,,72,127
110486,note_off,73,0,0,,0,,,72,127
110486,note_off,0,0,0,,2,,,38,127
110486,note_off,0,0,0,,6,,,78,127
110489,note_on,3,0,0,,7,,,55,127
110489,note_on,0,0,0,,7,,,79,127
110641,note_on,152,0,0,,2,,,74,127
110789,note_off,148,0,0,,2,,,74,127
110789,note_off,0,0,0,,7,,,55,127
110792,note_on,3,0,0,,7,,,43,127
110792,note_on,0,0,0,,12,,,71,127
110940,note_off,148,0,0,,12,,,71,127
110943,note_on,3,0,0,,2,,,74,127
111091,note_off,148,0,0,,2,,,74,127
111091,note_off,0,0,0,,7,,,43,127
111091,note_off,0,0,0,,7,,,79,127
111094,note_on,3,0,0,,2,,,50,127
111094,note_on,0,0,0,,10,,,81,127
111094,note_on,0,0,0,,2,,,74,127
111167,note_off,73,0,0,,2,,,74,127
111170,note_on,3,0,0,,0,,,72,127
111243,note_off,73,0,0,,0,,,72,127
111246,note_on,3,0,0,,2,,,74,127
111319,note_off,73,0,0,,2,,,74,127
111322,note_on,3,0,0,,0,,,72,127
111395,note_off,73,0,0,,0,,,72,127
111395,note_off,0,0,0,,2,,,50,127
111398,note_on,3,0,0,,2,,,38,127
111398,note_on,0,0,0,,2,,,74,127
111471,note_off,73,0,0,,2,,,74,127
111474,note_on,3,0,0,,0,,,72,127
111547,note_off,73,0,0,,0,,,72,127
111550,note_on,3,0,0,,12,,,71,127
111623,note_off,73,0,0,,12,,,71,127
111626,note_on,3,0,0,,0,,,72,127
111699,note_off,73,0,0,,2,,,38,127
111699,note_off,0,0,0,,10,,,81,127
111704,note_off,5,0,0,,0,,,72,127
111728,note_on,24,0,0,,7,,,55,127
111728,note_on,0,0,0,,7,,,79,127
111728,note_on,0,0,0,,12,,,71,127
111876,note_off,148,0,0,,12,,,71,127
111876,note_off,0,0,0,,7,,,79,127
111879,note_on,3,0,0,,2,,,74,127
112027,note_off,148,0,0,,2,,,74,127
112027,note_off,0,0,0,,7,,,55,127
112030,note_on,3,0,0,,0,,,48,127
112030,note_on,0,0,0,,4,,,76,127
112178,note_off,148,0,0,,4,,,76,127
112181,note_on,3,0,0,,10,,,69,127
112181,note_on,0,0,0,,0,,,72,127
112329,note_off,148,0,0,,0,,,72,127
112329,note_off,0,0,0,,0,,,48,127
112332,note_on,3,0,0,,2,,,50,127
112332,note_on,0,0,0,,2,,,74,127
112480,note_off,148,0,0,,2,,,74,127
112480,note_off,0,0,0,,10,,,69,127
112483,note_on,3,0,0,,7,,,67,127
112483,note_on,0,0,0,,12,,,71,127
112631,note_off,148,0,0,,12,,,71,127
112631,note_off,0,0,0,,2,,,50,127
112634,note_on,3,0,0,,2,,,38,127
112634,note_on,0,0,0,,0,,,72,127
112782,note_off,148,0,0,,0,,,72,127
112782,note_off,0,0,0,,7,,,67,127
112785,note_on,3,0,0,,10,,,69,127
112785,note_on,0,0,0,,6,,,66,127
112933,note_off,148,0,0,,6,,,66,127
112933,note_off,0,0,0,,10,,,69,127
112933,note_off,0,0,0,,2,,,38,127
112936,note_on,3,0,0,,7,,,43,127
112936,note_on,0,0,0,,12,,,71,127
113084,note_off,148,0,0,,12,,,71,127
113087,note_on,3,0,0,,7,,,67,127
113235,note_off,148,0,0,,7,,,67,127
113235,note_off,0,0,0,,7,,,43,127
113238,note_on,3,0,0,,0,,,48,127
113238,note_on,0,0,0,,4,,,64,127
113386,note_off,148,0,0,,4,,,64,127
113389,note_on,3,0,0,,10,,,69,127
113537,note_off,148,0,0,,10,,,69,127
113537,note_off,0,0,0,,0,,,48,127
113540,note_on,3,0,0,,2,,,50,127
113540,note_on,0,0,0,,2,,,62,127
113688,note_off,148,0,0,,2,,,62,127
113691,note_on,3,0,0,,7,,,67,127
113839,note_off,148,0,0,,7,,,67,127
113839,note_off,0,0,0,,2,,,50,127
113842,note_on,3,0,0,,2,,,38,127
113842,note_on,0,0,0,,0,,,60,127
113990,note_off,148,0,0,,0,,,60,127
113993,note_on,3,0,0,,6,,,66,127
114141,note_off,148,0,0,,6,,,66,127
114141,note_off,0,0,0,,2,,,38,127
114154,note_on,13,0,0,,7,,,31,127
114154,note_on,0,0,0,,7,,,67,127
114759,note_off,605,0,0,,7,,,67,127
114912,note_off,153,0,0,,7,,,31,127
115026,note_on,114,0,0,,4,,,76,127
115174,note_off,148,0,0,,4,,,76,127
115177,note_on,3,0,0,,2,,,74,127
115325,note_off,148,0,0,,2,,,74,127
115328,note_on,3,0,0,,0,,,72,127
115476,note_off,148,0,0,,0,,,72,127
115479,note_on,3,0,0,,7,,,67,127
115479,note_on,0,0,0,,12,,,71,127
115627,note_off,148,0,0,,7,,,67,127
115630,note_on,3,0,0,,7,,,55,127
115778,note_off,148,0,0,,7,,,55,127
115778,note_off,0,0,0,,12,,,71,127
115781,note_on,3,0,0,,2,,,62,127
115781,note_on,0,0,0,,10,,,69,127
115929,note_off,148,0,0,,2,,,62,127
115932,note_on,3,0,0,,2,,,50,127
116080,note_off,148,0,0,,2,,,50,127
116080,note_off,0,0,0,,10,,,69,127
116083,note_on,3,0,0,,7,,,55,127
116083,note_on,0,0,0,,7,,,67,127
116231,note_off,148,0,0,,7,,,55,127
116234,note_on,3,0,0,,7,,,43,127
116382,note_off,148,0,0,,7,,,43,127
116382,note_off,0,0,0,,7,,,67,127
116385,note_on,3,0,0,,2,,,50,127
116385,note_on,0,0,0,,10,,,69,127
116533,note_off,148,0,0,,2,,,50,127
116536,note_on,3,0,0,,2,,,38,127
116684,note_off,148,0,0,,2,,,38,127
116684,note_off,0,0,0,,10,,,69,127
116687,note_on,3,0,0,,7,,,31,127
116687,note_on,0,0,0,,7,,,43,127
116687,note_on,0,0,0,,0,,,72,127
116734,note_off,47,0,0,,0,,,72,127
116737,note_on,3,0,0,,12,,,71,127
116784,note_off,47,0,0,,12,,,71,127
116787,note_on,3,0,0,,0,,,72,127
116834,note_off,47,0,0,,0,,,72,127
116837,note_on,3,0,0,,12,,,71,127
117137,note_off,300,0,0,,12,,,71,127
117140,note_on,3,0,0,,10,,,69,127
117288,note_off,148,0,0,,10,,,69,127
117291,note_on,3,0,0,,7,,,67,127
117379,note_off,88,0,0,,7,,,31,127
117426,note_off,47,0,0,,7,,,43,127
117439,note_off,13,0,0,,7,,,67,127
117455,note_on,16,0,0,,5,,,77,127
117603,note_off,148,0,0,,5,,,77,127
117606,note_on,3,0,0,,4,,,76,127
117754,note_off,148,0,0,,4,,,76,127
117757,note_on,3,0,0,,2,,,74,127
117905,note_off,148,0,0,,2,,,74,127
117908,note_on,3,0,0,,10,,,69,127
117908,note_on,0,0,0,,0,,,72,127
118056,note_off,148,0,0,,10,,,69,127
118059,note_on,3,0,0,,10,,,57,127
118207,note_off,148,0,0,,10,,,57,127
118207,note_off,0,0,0,,0,,,72,127
118210,note_on,3,0,0,,4,,,64,127
118210,note_on,0,0,0,,12,,,71,127
118358,note_off,148,0,0,,4,,,64,127
118361,note_on,3,0,0,,4,,,52,127
118509,note_off,148,0,0,,4,,,52,127
118509,note_off,0,0,0,,12,,,71,127
118512,note_on,3,0,0,,10,,,57,127
118512,note_on,0,0,0,,10,,,69,127
118660,note_off,148,0,0,,10,,,57,127
118663,note_on,3,0,0,,10,,,45,127
118811,note_off,148,0,0,,10,,,45,127
118811,note_off,0,0,0,,10,,,69,127
118814,note_on,3,0,0,,4,,,52,127
118814,note_on,0,0,0,,12,,,71,127
118962,note_off,148,0,0,,4,,,52,127
118965,note_on,3,0,0,,4,,,40,127
119113,note_off,148,0,0,,4,,,40,127
119113,note_off,0,0,0,,12,,,71,127
119116,note_on,3,0,0,,10,,,33,127
119116,note_on,0,0,0,,10,,,45,127
119116,note_on,0,0,0,,2,,,74,127
119163,note_off,47,0,0,,2,,,74,127
119166,note_on,3,0,0,,0,,,72,127
119213,note_off,47,0,0,,0,,,72,127
119216,note_on,3,0,0,,2,,,74,127
119263,note_off,47,0,0,,2,,,74,127
119266,note_on,3,0,0,,0,,,72,127
119566,note_off,300,0,0,,0,,,72,127
119569,note_on,3,0,0,,12,,,71,127
119717,note_off,148,0,0,,12,,,71,127
119720,note_on,3,0,0,,10,,,69,127
119872,note_on,152,0,0,,7,,,67,127
119998,note_off,126,0,0,,10,,,33,127
120020,note_off,22,0,0,,7,,,67,127
120023,note_on,3,0,0,,5,,,65,127
120108,note_off,85,0,0,,10,,,45,127
120171,note_off,63,0,0,,5,,,65,127
120174,note_on,3,0,0,,4,,,64,127
120319,note_off,145,0,0,,10,,,69,127
120322,note_off,3,0,0,,4,,,64,127
120325,note_on,3,0,0,,2,,,62,127
120325,note_on,0,0,0,,10,,,57,127
120325,note_on,0,0,0,,5,,,65,127
120477,note_on,152,0,0,,10,,,69,127
120625,note_off,148,0,0,,10,,,69,127
120628,note_on,3,0,0,,8,,,68,127
120928,note_off,300,0,0,,10,,,57,127
120928,note_off,0,0,0,,2,,,62,127
120930,note_off,2,0,0,,5,,,65,127
120932,note_on,2,0,0,,5,,,65,127
120932,note_on,0,0,0,,10,,,57,127
120932,note_on,0,0,0,,2,,,62,127
121080,note_off,148,0,0,,8,,,68,127
121083,note_on,3,0,0,,10,,,69,127
121231,note_off,148,0,0,,10,,,69,127
121234,note_on,3,0,0,,12,,,71,127
121534,note_off,300,0,0,,2,,,62,127
121534,note_off,0,0,0,,10,,,57,127
121534,note_off,0,0,0,,5,,,65,127
121537,note_on,3,0,0,,2,,,62,127
121537,note_on,0,0,0,,5,,,65,127
121537,note_on,0,0,0,,10,,,57,127
121685,note_off,148,0,0,,12,,,71,127
121688,note_on,3,0,0,,0,,,72,127
121836,note_off,148,0,0,,0,,,72,127
121839,note_on,3,0,0,,2,,,74,127
122139,note_off,300,0,0,,10,,,57,127
122139,note_off,0,0,0,,5,,,65,127
122139,note_off,0,0,0,,2,,,62,127
122142,note_on,3,0,0,,2,,,62,127
122142,note_on,0,0,0,,5,,,65,127
122142,note_on,0,0,0,,10,,,57,127
122290,note_off,148,0,0,,2,,,74,127
122293,note_on,3,0,0,,4,,,76,127
122441,note_off,148,0,0,,4,,,76,127
122444,note_on,3,0,0,,5,,,77,127
122744,note_off,300,0,0,,10,,,57,127
122744,note_off,0,0,0,,5,,,65,127
122744,note_off,0,0,0,,2,,,62,127
122747,note_on,3,0,0,,2,,,62,127
122747,note_on,0,0,0,,4,,,64,127
122747,note_on,0,0,0,,10,,,57,127
122747,note_on,0,0,0,,12,,,59,127
122895,note_off,148,0,0,,5,,,77,127
122898,note_on,3,0,0,,10,,,81,127
123046,note_off,148,0,0,,10,,,81,127
123049,note_on,3,0,0,,8,,,80,127
123349,note_off,300,0,0,,12,,,59,127
123349,note_off,0,0,0,,10,,,57,127
123349,note_off,0,0,0,,4,,,64,127
123349,note_off,0,0,0,,2,,,62,127
123352,note_on,3,0,0,,2,,,62,127
123352,note_on,0,0,0,,4,,,64,127
123352,note_on,0,0,0,,10,,,57,127
123352,note_on,0,0,0,,12,,,59,127
123500,note_off,148,0,0,,8,,,80,127
123503,note_on,3,0,0,,10,,,81,127
123651,note_off,148,0,0,,10,,,81,127
123654,note_on,3,0,0,,12,,,83,127
123954,note_off,300,0,0,,12,,,59,127
123954,note_off,0,0,0,,10,,,57,127
123954,note_off,0,0,0,,4,,,64,127
123954,note_off,0,0,0,,2,,,62,127
123957,note_on,3,0,0,,2,,,62,127
123957,note_on,0,0,0,,4,,,64,127
123957,note_on,0,0,0,,8,,,56,127
124105,note_off,148,0,0,,12,,,83,127
124108,note_on,3,0,0,,10,,,81,127
124256,note_off,148,0,0,,10,,,81,127
124259,note_on,3,0,0,,8,,,80,127
124407,note_off,148,0,0,,8,,,80,127
124410,note_on,3,0,0,,5,,,77,127
124558,note_off,148,0,0,,5,,,77,127
124558,note_off,0,0,0,,8,,,56,127
124558,note_off,0,0,0,,4,,,64,127
124558,note_off,0,0,0,,2,,,62,127
124561,note_on,3,0,0,,2,,,62,127
124561,note_on,0,0,0,,4,,,64,127
124561,note_on,0,0,0,,8,,,56,127
124561,note_on,0,0,0,,4,,,76,127
124709,note_off,148,0,0,,4,,,76,127
124712,note_on,3,0,0,,2,,,74,127
124860,note_off,148,0,0,,2,,,74,127
124863,note_on,3,0,0,,0,,,72,127
125011,note_off,148,0,0,,0,,,72,127
125014,note_on,3,0,0,,12,,,71,127
125162,note_off,148,0,0,,12,,,71,127
125162,note_off,0,0,0,,8,,,56,127
125162,note_off,0,0,0,,4,,,64,127
125162,note_off,0,0,0,,2,,,62,127
125178,note_on,16,0,0,,4,,,64,127
125178,note_on,0,0,0,,10,,,57,127
125178,note_on,0,0,0,,2,,,74,127
125251,note_off,73,0,0,,2,,,74,127
125254,note_on,3,0,0,,0,,,72,127
125327,note_off,73,0,0,,0,,,72,127
125330,note_on,3,0,0,,2,,,74,127
125403,note_off,73,0,0,,2,,,74,127
125406,note_on,3,0,0,,0,,,72,127
125479,note_off,73,0,0,,0,,,72,127
125482,note_on,3,0,0,,12,,,71,127
125630,note_off,148,0,0,,12,,,71,127
125633,note_on,3,0,0,,10,,,69,127
125781,note_off,148,0,0,,10,,,69,127
125784,note_on,3,0,0,,8,,,68,127
125932,note_off,148,0,0,,8,,,68,127
125935,note_on,3,0,0,,10,,,69,127
126083,note_off,148,0,0,,10,,,69,127
126083,note_off,0,0,0,,10,,,57,127
126083,note_off,0,0,0,,4,,,64,127
126086,note_on,3,0,0,,12,,,59,127
126086,note_on,0,0,0,,2,,,62,127
126086,note_on,0,0,0,,10,,,57,127
126086,note_on,0,0,0,,12,,,71,127
126234,note_off,148,0,0,,12,,,71,127
126237,note_on,3,0,0,,2,,,74,127
126385,note_off,148,0,0,,2,,,74,127
126385,note_off,0,0,0,,10,,,57,127
126385,note_off,0,0,0,,2,,,62,127
126385,note_off,0,0,0,,12,,,59,127
126393,note_on,8,0,0,,2,,,74,127
126393,note_on,0,0,0,,10,,,57,127
126393,note_on,0,0,0,,4,,,64,127
126393,note_on,0,0,0,,0,,,60,127
126466,note_off,73,0,0,,2,,,74,127
126469,note_on,3,0,0,,0,,,72,127
126542,note_off,73,0,0,,0,,,72,127
126545,note_on,3,0,0,,2,,,74,127
126618,note_off,73,0,0,,2,,,74,127
126621,note_on,3,0,0,,0,,,72,127
126694,note_off,73,0,0,,0,,,72,127
126697,note_on,3,0,0,,12,,,71,127
126845,note_off,148,0,0,,12,,,71,127
126848,note_on,3,0,0,,10,,,69,127
126996,note_off,148,0,0,,10,,,69,127
126999,note_on,3,0,0,,8,,,68,127
127147,note_off,148,0,0,,8,,,68,127
127150,note_on,3,0,0,,10,,,69,127
127298,note_off,148,0,0,,10,,,69,127
127298,note_off,0,0,0,,0,,,60,127
127298,note_off,0,0,0,,4,,,64,127
127298,note_off,0,0,0,,10,,,57,127
127301,note_on,3,0,0,,12,,,71,127
127301,note_on,0,0,0,,12,,,59,127
127301,note_on,0,0,0,,10,,,57,127
127301,note_on,0,0,0,,2,,,62,127
127449,note_off,148,0,0,,12,,,71,127
127452,note_on,3,0,0,,2,,,74,127
127600,note_off,148,0,0,,2,,,74,127
127600,note_off,0,0,0,,2,,,62,127
127600,note_off,0,0,0,,10,,,57,127
127600,note_off,0,0,0,,12,,,59,127
127611,note_on,11,0,0,,0,,,60,127
127611,note_on,0,0,0,,4,,,64,127
127611,note_on,0,0,0,,10,,,57,127
127611,note_on,0,0,0,,2,,,74,127
127684,note_off,73,0,0,,2,,,74,127
127687,note_on,3,0,0,,0,,,72,127
127760,note_off,73,0,0,,0,,,72,127
127763,note_on,3,0,0,,2,,,74,127
127836,note_off,73,0,0,,2,,,74,127
127839,note_on,3,0,0,,0,,,72,127
127912,note_off,73,0,0,,0,,,72,127
127915,note_on,3,0,0,,12,,,71,127
128063,note_off,148,0,0,,12,,,71,127
128066,note_on,3,0,0,,10,,,69,127
128214,note_off,148,0,0,,10,,,69,127
128214,note_off,0,0,0,,10,,,57,127
128214,note_off,0,0,0,,4,,,64,127
128214,note_off,0,0,0,,0,,,60,127
128217,note_on,3,0,0,,4,,,64,127
128217,note_on,0,0,0,,10,,,57,127
128217,note_on,0,0,0,,12,,,59,127
128217,note_on,0,0,0,,8,,,68,127
128365,note_off,148,0,0,,8,,,68,127
128368,note_on,3,0,0,,10,,,69,127
128516,note_off,148,0,0,,10,,,69,127
128519,note_on,3,0,0,,12,,,71,127
128667,note_off,148,0,0,,12,,,71,127
128670,note_on,3,0,0,,2,,,74,127
128818,note_off,148,0,0,,2,,,74,127
128818,note_off,0,0,0,,12,,,59,127
128818,note_off,0,0,0,,10,,,57,127
128818,note_off,0,0,0,,4,,,64,127
128821,note_on,3,0,0,,10,,,45,127
128821,note_on,0,0,0,,2,,,74,127
128894,note_off,73,0,0,,2,,,74,127
128897,note_on,3,0,0,,0,,,72,127
128970,note_off,73,0,0,,0,,,72,127
128973,note_on,3,0,0,,2,,,74,127
129046,note_off,73,0,0,,2,,,74,127
129049,note_on,3,0,0,,0,,,72,127
129122,note_off,73,0,0,,0,,,72,127
129125,note_on,3,0,0,,12,,,71,127
129273,note_off,148,0,0,,12,,,71,127
129276,note_on,3,0,0,,10,,,69,127
129424,note_off,148,0,0,,10,,,69,127
129437,note_on,13,0,0,,10,,,69,127
129729,note_off,292,0,0,,10,,,45,127
130042,note_off,313,0,0,,10,,,69,127
130148,note_on,106,0,0,,4,,,64,127
130148,note_on,0,0,0,,7,,,67,127
130148,note_on,0,0,0,,12,,,59,127
130300,note_on,152,0,0,,12,,,71,127
130448,note_off,148,0,0,,12,,,71,127
130451,note_on,3,0,0,,11,,,70,127
130751,note_off,300,0,0,,12,,,59,127
130751,note_off,0,0,0,,7,,,67,127
130751,note_off,0,0,0,,4,,,64,127
130754,note_on,3,0,0,,7,,,67,127
130754,note_on,0,0,0,,4,,,64,127
130754,note_on,0,0,0,,12,,,59,127
130902,note_off,148,0,0,,11,,,70,127
130905,note_on,3,0,0,,12,,,71,127
131053,note_off,148,0,0,,12,,,71,127
131056,note_on,3,0,0,,1,,,73,127
131356,note_off,300,0,0,,12,,,59,127
131356,note_off,0,0,0,,4,,,64,127
131356,note_off,0,0,0,,7,,,67,127
131359,note_on,3,0,0,,12,,,59,127
131359,note_on,0,0,0,,4,,,64,127
131359,note_on,0,0,0,,7,,,67,127
131507,note_off,148,0,0,,1,,,73,127
131510,note_on,3,0,0,,2,,,74,127
131658,note_off,148,0,0,,2,,,74,127
131661,note_on,3,0,0,,4,,,76,127
131961,note_off,300,0,0,,7,,,67,127
131961,note_off,0,0,0,,4,,,64,127
131961,note_off,0,0,0,,12,,,59,127
131964,note_on,3,0,0,,7,,,67,127
131964,note_on,0,0,0,,12,,,59,127
131964,note_on,0,0,0,,4,,,64,127
132112,note_off,148,0,0,,4,,,76,127
132115,note_on,3,0,0,,6,,,78,127
132263,note_off,148,0,0,,6,,,78,127
132266,note_on,3,0,0,,7,,,79,127
132566,note_off,300,0,0,,4,,,64,127
132566,note_off,0,0,0,,12,,,59,127
132566,note_off,0,0,0,,7,,,67,127
132569,note_on,3,0,0,,7,,,67,127
132569,note_on,0,0,0,,12,,,59,127
132569,note_on,0,0,0,,1,,,61,127
132569,note_on,0,0,0,,4,,,64,127
132717,note_off,148,0,0,,7,,,79,127
132720,note_on,3,0,0,,12,,,83,127
132868,note_off,148,0,0,,12,,,83,127
132871,note_on,3,0,0,,11,,,82,127
133171,note_off,300,0,0,,4,,,64,127
133171,note_off,0,0,0,,1,,,61,127
133171,note_off,0,0,0,,12,,,59,127
133171,note_off,0,0,0,,7,,,67,127
133174,note_on,3,0,0,,4,,,64,127
133174,note_on,0,0,0,,7,,,67,127
133174,note_on,0,0,0,,12,,,59,127
133174,note_on,0,0,0,,1,,,61,127
133322,note_off,148,0,0,,11,,,82,127
133325,note_on,3,0,0,,12,,,83,127
133473,note_off,148,0,0,,12,,,83,127
133476,note_on,3,0,0,,1,,,85,127
133776,note_off,300,0,0,,1,,,61,127
133776,note_off,0,0,0,,12,,,59,127
133776,note_off,0,0,0,,7,,,67,127
133776,note_off,0,0,0,,4,,,64,127
133779,note_on,3,0,0,,6,,,66,127
133779,note_on,0,0,0,,11,,,58,127
133779,note_on,0,0,0,,4,,,64,127
133927,note_off,148,0,0,,1,,,85,127
133930,note_on,3,0,0,,12,,,83,127
134078,note_off,148,0,0,,12,,,83,127
134081,note_on,3,0,0,,11,,,82,127
134229,note_off,148,0,0,,11,,,82,127
134232,note_on,3,0,0,,7,,,79,127
134380,note_off,148,0,0,,7,,,79,127
134380,note_off,0,0,0,,4,,,64,127
134380,note_off,0,0,0,,11,,,58,127
134380,note_off,0,0,0,,6,,,66,127
134383,note_on,3,0,0,,6,,,66,127
134383,note_on,0,0,0,,4,,,64,127
134383,note_on,0,0,0,,11,,,58,127
134383,note_on,0,0,0,,6,,,78,127
134531,note_off,148,0,0,,6,,,78,127
134534,note_on,3,0,0,,4,,,76,127
134682,note_off,148,0,0,,4,,,76,127
134685,note_on,3,0,0,,2,,,74,127
134833,note_off,148,0,0,,2,,,74,127
134836,note_on,3,0,0,,1,,,73,127
134984,note_off,148,0,0,,1,,,73,127
134984,note_off,0,0,0,,11,,,58,127
134984,note_off,0,0,0,,4,,,64,127
134984,note_off,0,0,0,,6,,,66,127
134992,note_on,8,0,0,,4,,,76,127
134992,note_on,0,0,0,,12,,,59,127
134992,note_on,0,0,0,,6,,,66,127
134992,note_on,0,0,0,,2,,,62,127
135065,note_off,73,0,0,,4,,,76,127
135068,note_on,3,0,0,,2,,,74,127
135141,note_off,73,0,0,,2,,,74,127
135144,note_on,3,0,0,,4,,,76,127
135217,note_off,73,0,0,,4,,,76,127
135220,note_on,3,0,0,,2,,,74,127
135293,note_off,73,0,0,,2,,,74,127
135296,note_on,3,0,0,,1,,,73,127
135444,note_off,148,0,0,,1,,,73,127
135447,note_on,3,0,0,,12,,,71,127
135595,note_off,148,0,0,,12,,,71,127
135598,note_on,3,0,0,,11,,,70,127
135746,note_off,148,0,0,,11,,,70,127
135749,note_on,3,0,0,,12,,,71,127
135897,note_off,148,0,0,,12,,,71,127
135897,note_off,0,0,0,,2,,,62,127
135897,note_off,0,0,0,,6,,,66,127
135897,note_off,0,0,0,,12,,,59,127
135900,note_on,3,0,0,,1,,,73,127
135900,note_on,0,0,0,,1,,,61,127
135900,note_on,0,0,0,,12,,,59,127
135900,note_on,0,0,0,,4,,,64,127
135900,note_on,0,0,0,,7,,,67,127
136048,note_off,148,0,0,,1,,,73,127
136051,note_on,3,0,0,,4,,,76,127
136192,note_off,141,0,0,,7,,,67,127
136192,note_off,0,0,0,,4,,,64,127
136192,note_off,0,0,0,,12,,,59,127
136192,note_off,0,0,0,,1,,,61,127
136200,note_off,8,0,0,,4,,,76,127
136209,note_on,9,0,0,,6,,,66,127
136209,note_on,0,0,0,,12,,,59,127
136209,note_on,0,0,0,,2,,,62,127
136209,note_on,0,0,0,,4,,,76,127
136282,note_off,73,0,0,,4,,,76,127
136285,note_on,3,0,0,,2,,,74,127
136358,note_off,73,0,0,,2,,,74,127
136361,note_on,3,0,0,,4,,,76,127
136434,note_off,73,0,0,,4,,,76,127
136437,note_on,3,0,0,,2,,,74,127
136510,note_off,73,0,0,,2,,,74,127
136513,note_on,3,0,0,,1,,,73,127
136661,note_off,148,0,0,,1,,,73,127
136664,note_on,3,0,0,,12,,,71,127
136812,note_off,148,0,0,,12,,,71,127
136815,note_on,3,0,0,,11,,,70,127
136963,note_off,148,0,0,,11,,,70,127
136966,note_on,3,0,0,,12,,,71,127
137114,note_off,148,0,0,,12,,,71,127
137114,note_off,0,0,0,,2,,,62,127
137114,note_off,0,0,0,,12,,,59,127
137114,note_off,0,0,0,,6,,,66,127
137117,note_on,3,0,0,,4,,,64,127
137117,note_on,0,0,0,,7,,,67,127
137117,note_on,0,0,0,,1,,,61,127
137117,note_on,0,0,0,,12,,,59,127
137117,note_on,0,0,0,,1,,,73,127
137265,note_off,148,0,0,,1,,,73,127
137268,note_on,3,0,0,,4,,,76,127
137412,note_off,144,0,0,,12,,,59,127
137412,note_off,0,0,0,,1,,,61,127
137412,note_off,0,0,0,,7,,,67,127
137412,note_off,0,0,0,,4,,,64,127
137417,note_off,5,0,0,,4,,,76,127
137428,note_on,11,0,0,,4,,,76,127
137428,note_on,0,0,0,,12,,,59,127
137428,note_on,0,0,0,,6,,,66,127
137428,note_on,0,0,0,,2,,,62,127
137501,note_off,73,0,0,,4,,,76,127
137504,note_on,3,0,0,,2,,,74,127
137577,note_off,73,0,0,,2,,,74,127
137580,note_on,3,0,0,,4,,,76,127
137653,note_off,73,0,0,,4,,,76,127
137656,note_on,3,0,0,,2,,,74,127
137729,note_off,73,0,0,,2,,,74,127
137732,note_on,3,0,0,,1,,,73,127
137880,note_off,148,0,0,,1,,,73,127
137883,note_on,3,0,0,,12,,,71,127
138031,note_off,148,0,0,,12,,,71,127
138031,note_off,0,0,0,,2,,,62,127
138031,note_off,0,0,0,,6,,,66,127
138031,note_off,0,0,0,,12,,,59,127
138034,note_on,3,0,0,,11,,,70,127
138034,note_on,0,0,0,,12,,,59,127
138034,note_on,0,0,0,,1,,,61,127
138034,note_on,0,0,0,,4,,,64,127
138182,note_off,148,0,0,,11,,,70,127
138185,note_on,3,0,0,,12,,,71,127
138333,note_off,148,0,0,,12,,,71,127
138336,note_on,3,0,0,,1,,,73,127
138484,note_off,148,0,0,,1,,,73,127
138487,note_on,3,0,0,,4,,,76,127
138635,note_off,148,0,0,,4,,,76,127
138635,note_off,0,0,0,,4,,,64,127
138635,note_off,0,0,0,,1,,,61,127
138635,note_off,0,0,0,,12,,,59,127
138638,note_on,3,0,0,,4,,,76,127
138638,note_on,0,0,0,,12,,,47,127
138711,note_off,73,0,0,,4,,,76,127
138714,note_on,3,0,0,,2,,,74,127
138787,note_off,73,0,0,,2,,,74,127
138790,note_on,3,0,0,,4,,,76,127
138863,note_off,73,0,0,,4,,,76,127
138866,note_on,3,0,0,,2,,,74,127
138939,note_off,73,0,0,,2,,,74,127
138942,note_on,3,0,0,,1,,,73,127
139090,note_off,148,0,0,,1,,,73,127
139093,note_on,3,0,0,,12,,,71,127
139396,note_off,303,0,0,,12,,,47,127
139440,note_off,44,0,0,,12,,,71,127
139569,note_on,129,0,0,,0,,,84,127
139717,note_off,148,0,0,,0,,,84,127
139720,note_on,3,0,0,,12,,,83,127
139868,note_off,148,0,0,,12,,,83,127
139871,note_on,3,0,0,,10,,,81,127
140019,note_off,148,0,0,,10,,,81,127
140022,note_on,3,0,0,,7,,,79,127
140022,note_on,0,0,0,,4,,,76,127
140170,note_off,148,0,0,,4,,,76,127
140173,note_on,3,0,0,,4,,,64,127
140321,note_off,148,0,0,,4,,,64,127
140321,note_off,0,0,0,,7,,,79,127
140324,note_on,3,0,0,,6,,,78,127
140324,note_on,0,0,0,,12,,,71,127
140472,note_off,148,0,0,,12,,,71,127
140475,note_on,3,0,0,,12,,,59,127
140623,note_off,148,0,0,,12,,,59,127
140623,note_off,0,0,0,,6,,,78,127
140626,note_on,3,0,0,,4,,,76,127
140626,note_on,0,0,0,,4,,,64,127
140774,note_off,148,0,0,,4,,,64,127
140777,note_on,3,0,0,,4,,,52,127
140925,note_off,148,0,0,,4,,,52,127
140925,note_off,0,0,0,,4,,,76,127
140928,note_on,3,0,0,,6,,,78,127
140928,note_on,0,0,0,,12,,,59,127
141076,note_off,148,0,0,,12,,,59,127
141079,note_on,3,0,0,,12,,,47,127
141227,note_off,148,0,0,,12,,,47,127
141227,note_off,0,0,0,,6,,,78,127
141230,note_on,3,0,0,,10,,,81,127
141230,note_on,0,0,0,,4,,,52,127
141230,note_on,0,0,0,,4,,,40,127
141277,note_off,47,0,0,,10,,,81,127
141280,note_on,3,0,0,,7,,,79,127
141327,note_off,47,0,0,,7,,,79,127
141330,note_on,3,0,0,,10,,,81,127
141377,note_off,47,0,0,,10,,,81,127
141380,note_on,3,0,0,,7,,,79,127
141680,note_off,300,0,0,,7,,,79,127
141683,note_on,3,0,0,,6,,,78,127
141831,note_off,148,0,0,,6,,,78,127
141834,note_on,3,0,0,,4,,,76,127
141982,note_off,148,0,0,,4,,,76,127
141990,note_on,8,0,0,,0,,,84,127
142138,note_off,148,0,0,,0,,,84,127
142141,note_on,3,0,0,,12,,,83,127
142289,note_off,148,0,0,,12,,,83,127
142292,note_on,3,0,0,,10,,,81,127
142331,note_off,39,0,0,,4,,,40,127
142435,note_off,104,0,0,,4,,,52,127
142440,note_off,5,0,0,,10,,,81,127
142443,note_on,3,0,0,,4,,,76,127
142443,note_on,0,0,0,,7,,,79,127
142591,note_off,148,0,0,,4,,,76,127
142594,note_on,3,0,0,,4,,,64,127
142742,note_off,148,0,0,,4,,,64,127
142742,note_off,0,0,0,,7,,,79,127
142745,note_on,3,0,0,,12,,,71,127
142745,note_on,0,0,0,,6,,,78,127
142893,note_off,148,0,0,,12,,,71,127
142896,note_on,3,0,0,,12,,,59,127
143044,note_off,148,0,0,,12,,,59,127
143044,note_off,0,0,0,,6,,,78,127
143047,note_on,3,0,0,,4,,,64,127
143047,note_on,0,0,0,,4,,,76,127
143195,note_off,148,0,0,,4,,,64,127
143198,note_on,3,0,0,,4,,,52,127
143346,note_off,148,0,0,,4,,,52,127
143346,note_off,0,0,0,,4,,,76,127
143349,note_on,3,0,0,,12,,,59,127
143349,note_on,0,0,0,,6,,,78,127
143497,note_off,148,0,0,,12,,,59,127
143500,note_on,3,0,0,,12,,,47,127
143648,note_off,148,0,0,,12,,,47,127
143648,note_off,0,0,0,,6,,,78,127
143651,note_on,3,0,0,,4,,,52,127
143651,note_on,0,0,0,,4,,,40,127
143651,note_on,0,0,0,,10,,,81,127
143698,note_off,47,0,0,,10,,,81,127
143701,note_on,3,0,0,,7,,,79,127
143748,note_off,47,0,0,,7,,,79,127
143751,note_on,3,0,0,,10,,,81,127
143798,note_off,47,0,0,,10,,,81,127
143801,note_on,3,0,0,,7,,,79,127
144101,note_off,300,0,0,,7,,,79,127
144104,note_on,3,0,0,,6,,,78,127
144252,note_off,148,0,0,,6,,,78,127
144255,note_on,3,0,0,,4,,,76,127
144403,note_off,148,0,0,,4,,,76,127
144419,note_on,16,0,0,,12,,,83,127
144567,note_off,148,0,0,,12,,,83,127
144570,note_on,3,0,0,,10,,,81,127
144718,note_off,148,0,0,,10,,,81,127
144721,note_on,3,0,0,,7,,,79,127
144753,note_off,32,0,0,,4,,,40,127
144857,note_off,104,0,0,,4,,,52,127
144870,note_off,13,0,0,,7,,,79,127
144873,note_on,3,0,0,,10,,,57,127
144873,note_on,0,0,0,,10,,,45,127
144873,note_on,0,0,0,,6,,,78,127
145021,note_off,148,0,0,,6,,,78,127
145024,note_on,3,0,0,,10,,,81,127
145172,note_off,148,0,0,,10,,,81,127
145175,note_on,3,0,0,,3,,,75,127
145323,note_off,148,0,0,,3,,,75,127
145326,note_on,3,0,0,,6,,,78,127
145474,note_off,148,0,0,,6,,,78,127
145477,note_on,3,0,0,,0,,,72,127
145625,note_off,148,0,0,,0,,,72,127
145628,note_on,3,0,0,,4,,,76,127
145776,note_off,148,0,0,,4,,,76,127
145779,note_on,3,0,0,,10,,,69,127
145927,note_off,148,0,0,,10,,,69,127
145930,note_on,3,0,0,,0,,,72,127
146078,note_off,148,0,0,,0,,,72,127
146081,note_on,3,0,0,,6,,,66,127
146229,note_off,148,0,0,,6,,,66,127
146232,note_on,3,0,0,,10,,,69,127
146380,note_off,148,0,0,,10,,,69,127
146383,note_on,3,0,0,,3,,,63,127
146531,note_off,148,0,0,,3,,,63,127
146534,note_on,3,0,0,,6,,,66,127
146682,note_off,148,0,0,,6,,,66,127
146682,note_off,0,0,0,,10,,,45,127
146682,note_off,0,0,0,,10,,,57,127
146685,note_on,3,0,0,,0,,,60,127
146833,note_off,148,0,0,,0,,,60,127
146836,note_on,3,0,0,,4,,,64,127
146984,note_off,148,0,0,,4,,,64,127
146987,note_on,3,0,0,,10,,,57,127
147135,note_off,148,0,0,,10,,,57,127
147138,note_on,3,0,0,,0,,,60,127
147286,note_off,148,0,0,,0,,,60,127
147289,note_on,3,0,0,,6,,,54,127
147437,note_off,148,0,0,,6,,,54,127
147440,note_on,3,0,0,,10,,,57,127
147588,note_off,148,0,0,,10,,,57,127
147591,note_on,3,0,0,,3,,,51,127
147739,note_off,148,0,0,,3,,,51,127
147742,note_on,3,0,0,,6,,,54,127
147890,note_off,148,0,0,,6,,,54,127
147893,note_on,3,0,0,,0,,,48,127
148041,note_off,148,0,0,,0,,,48,127
148044,note_on,3,0,0,,4,,,52,127
148192,note_off,148,0,0,,4,,,52,127
148195,note_on,3,0,0,,10,,,45,127
148343,note_off,148,0,0,,10,,,45,127
148346,note_on,3,0,0,,0,,,48,127
148490,note_off,144,0,0,,0,,,48,127
148518,note_on,28,0,0,,2,,,38,127
149154,note_on,636,0,0,,2,,,50,127
149154,note_on,0,0,0,,6,,,66,127
149154,note_on,0,0,0,,2,,,62,127
149154,note_on,0,0,0,,10,,,69,127
149154,note_on,0,0,0,,0,,,72,127
149729,note_off,575,0,0,,2,,,38,127
149757,note_off,28,0,0,,0,,,72,127
149757,note_off,0,0,0,,10,,,69,127
149757,note_off,0,0,0,,2,,,62,127
149757,note_off,0,0,0,,6,,,66,127
149757,note_off,0,0,0,,2,,,50,127
149760,note_on,3,0,0,,7,,,55,127
149760,note_on,0,0,0,,2,,,50,127
149760,note_on,0,0,0,,7,,,43,127
149760,note_on,0,0,0,,12,,,71,127
149760,note_on,0,0,0,,7,,,67,127
149760,note_on,0,0,0,,2,,,62,127
150060,note_off,300,0,0,,7,,,67,127
150060,note_off,0,0,0,,12,,,71,127
150063,note_on,3,0,0,,10,,,69,127
150211,note_off,148,0,0,,10,,,69,127
150214,note_on,3,0,0,,7,,,67,127
150362,note_off,148,0,0,,7,,,67,127
150362,note_off,0,0,0,,7,,,43,127
150362,note_off,0,0,0,,2,,,50,127
150362,note_off,0,0,0,,7,,,55,127
150364,note_off,2,0,0,,2,,,62,127
150366,note_on,2,0,0,,2,,,50,127
150366,note_on,0,0,0,,2,,,38,127
150366,note_on,0,0,0,,2,,,74,127
150366,note_on,0,0,0,,6,,,66,127
150366,note_on,0,0,0,,10,,,69,127
150366,note_on,0,0,0,,2,,,62,127
150666,note_off,300,0,0,,2,,,74,127
150669,note_on,3,0,0,,0,,,72,127
150969,note_off,300,0,0,,0,,,72,127
150969,note_off,0,0,0,,2,,,38,127
150969,note_off,0,0,0,,2,,,50,127
150971,note_off,2,0,0,,2,,,62,127
150971,note_off,0,0,0,,10,,,69,127
150971,note_off,0,0,0,,6,,,66,127
150973,note_on,2,0,0,,7,,,55,127
150973,note_on,0,0,0,,2,,,50,127
150973,note_on,0,0,0,,7,,,43,127
150973,note_on,0,0,0,,7,,,67,127
150973,note_on,0,0,0,,2,,,62,127
150973,note_on,0,0,0,,0,,,72,127
151121,note_off,148,0,0,,0,,,72,127
151124,note_on,3,0,0,,12,,,71,127
151272,note_off,148,0,0,,12,,,71,127
151274,note_off,2,0,0,,7,,,67,127
151276,note_on,2,0,0,,10,,,69,127
151424,note_off,148,0,0,,10,,,69,127
151427,note_on,3,0,0,,7,,,67,127
151575,note_off,148,0,0,,7,,,67,127
151575,note_off,0,0,0,,7,,,43,127
151575,note_off,0,0,0,,2,,,50,127
151575,note_off,0,0,0,,7,,,55,127
151577,note_off,2,0,0,,2,,,62,127
151579,note_on,2,0,0,,2,,,50,127
151579,note_on,0,0,0,,2,,,38,127
151579,note_on,0,0,0,,6,,,66,127
151579,note_on,0,0,0,,10,,,69,127
151579,note_on,0,0,0,,2,,,74,127
151579,note_on,0,0,0,,2,,,62,127
151879,note_off,300,0,0,,2,,,74,127
151882,note_on,3,0,0,,0,,,72,127
152182,note_off,300,0,0,,0,,,72,127
152182,note_off,0,0,0,,2,,,38,127
152182,note_off,0,0,0,,2,,,50,127
152184,note_off,2,0,0,,2,,,62,127
152184,note_off,0,0,0,,10,,,69,127
152184,note_off,0,0,0,,6,,,66,127
152186,note_on,2,0,0,,7,,,55,127
152186,note_on,0,0,0,,2,,,50,127
152186,note_on,0,0,0,,7,,,43,127
152186,note_on,0,0,0,,2,,,62,127
152186,note_on,0,0,0,,7,,,67,127
152186,note_on,0,0,0,,0,,,72,127
152334,note_off,148,0,0,,0,,,72,127
152337,note_on,3,0,0,,12,,,71,127
152485,note_off,148,0,0,,12,,,71,127
152487,note_off,2,0,0,,7,,,67,127
152489,note_on,2,0,0,,10,,,69,127
152637,note_off,148,0,0,,10,,,69,127
152640,note_on,3,0,0,,7,,,67,127
152788,note_off,148,0,0,,7,,,67,127
152788,note_off,0,0,0,,7,,,43,127
152788,note_off,0,0,0,,2,,,50,127
152788,note_off,0,0,0,,7,,,55,127
152790,note_off,2,0,0,,2,,,62,127
152792,note_on,2,0,0,,2,,,50,127
152792,note_on,0,0,0,,2,,,38,127
152792,note_on,0,0,0,,2,,,74,127
152792,note_on,0,0,0,,10,,,69,127
152792,note_on,0,0,0,,6,,,66,127
152792,note_on,0,0,0,,2,,,62,127
153092,note_off,300,0,0,,2,,,74,127
153095,note_on,3,0,0,,0,,,72,127
153395,note_off,300,0,0,,0,,,72,127
153395,note_off,0,0,0,,2,,,38,127
153395,note_off,0,0,0,,2,,,50,127
153397,note_off,2,0,0,,2,,,62,127
153397,note_off,0,0,0,,6,,,66,127
153397,note_off,0,0,0,,10,,,69,127
153399,note_on,2,0,0,,7,,,55,127
153399,note_on,0,0,0,,7,,,43,127
153399,note_on,0,0,0,,7,,,67,127
153399,note_on,0,0,0,,0,,,72,127
153438,note_off,39,0,0,,0,,,72,127
153449,note_on,11,0,0,,12,,,71,127
153496,note_off,47,0,0,,12,,,71,127
153499,note_on,3,0,0,,0,,,72,127
153546,note_off,47,0,0,,0,,,72,127
153549,note_on,3,0,0,,12,,,71,127
153849,note_off,300,0,0,,12,,,71,127
153852,note_on,3,0,0,,10,,,69,127
154000,note_off,148,0,0,,10,,,69,127
154002,note_off,2,0,0,,7,,,67,127
154004,note_on,2,0,0,,7,,,67,127
154162,note_off,158,0,0,,7,,,67,127
154168,note_on,6,0,0,,4,,,76,127
154316,note_off,148,0,0,,4,,,76,127
154319,note_on,3,0,0,,2,,,74,127
154467,note_off,148,0,0,,2,,,74,127
154470,note_on,3,0,0,,0,,,72,127
154502,note_off,32,0,0,,7,,,43,127
154606,note_off,104,0,0,,7,,,55,127
154619,note_off,13,0,0,,0,,,72,127
154622,note_on,3,0,0,,7,,,67,127
154622,note_on,0,0,0,,12,,,71,127
154770,note_off,148,0,0,,7,,,67,127
154773,note_on,3,0,0,,4,,,64,127
154921,note_off,148,0,0,,4,,,64,127
154921,note_off,0,0,0,,12,,,71,127
154924,note_on,3,0,0,,5,,,65,127
154924,note_on,0,0,0,,10,,,69,127
155072,note_off,148,0,0,,5,,,65,127
155075,note_on,3,0,0,,2,,,62,127
155223,note_off,148,0,0,,2,,,62,127
155223,note_off,0,0,0,,10,,,69,127
155226,note_on,3,0,0,,4,,,64,127
155226,note_on,0,0,0,,7,,,67,127
155374,note_off,148,0,0,,4,,,64,127
155377,note_on,3,0,0,,0,,,60,127
155525,note_off,148,0,0,,0,,,60,127
155525,note_off,0,0,0,,7,,,67,127
155528,note_on,3,0,0,,2,,,62,127
155528,note_on,0,0,0,,5,,,65,127
155676,note_off,148,0,0,,2,,,62,127
155679,note_on,3,0,0,,12,,,59,127
155827,note_off,148,0,0,,12,,,59,127
155827,note_off,0,0,0,,5,,,65,127
155830,note_on,3,0,0,,0,,,36,127
155830,note_on,0,0,0,,5,,,65,127
155881,note_on,51,0,0,,4,,,64,127
155883,note_off,2,0,0,,5,,,65,127
155932,note_on,49,0,0,,5,,,65,127
155934,note_off,2,0,0,,4,,,64,127
155983,note_on,49,0,0,,4,,,64,127
155985,note_off,2,0,0,,5,,,65,127
156283,note_off,298,0,0,,4,,,64,127
156286,note_on,3,0,0,,2,,,62,127
156434,note_off,148,0,0,,2,,,62,127
156437,note_on,3,0,0,,0,,,60,127
156585,note_off,148,0,0,,0,,,60,127
156593,note_on,8,0,0,,10,,,81,127
156741,note_off,148,0,0,,10,,,81,127
156744,note_on,3,0,0,,7,,,79,127
156892,note_off,148,0,0,,7,,,79,127
156895,note_on,3,0,0,,5,,,77,127
156934,note_off,39,0,0,,0,,,36,127
157043,note_off,109,0,0,,5,,,77,127
157046,note_on,3,0,0,,4,,,76,127
157046,note_on,0,0,0,,0,,,72,127
157194,note_off,148,0,0,,0,,,72,127
157197,note_on,3,0,0,,10,,,69,127
157345,note_off,148,0,0,,10,,,69,127
157345,note_off,0,0,0,,4,,,76,127
157348,note_on,3,0,0,,2,,,74,127
157348,note_on,0,0,0,,11,,,70,127
157496,note_off,148,0,0,,11,,,70,127
157499,note_on,3,0,0,,7,,,67,127
157647,note_off,148,0,0,,7,,,67,127
157647,note_off,0,0,0,,2,,,74,127
157650,note_on,3,0,0,,0,,,72,127
157650,note_on,0,0,0,,10,,,69,127
157798,note_off,148,0,0,,10,,,69,127
157801,note_on,3,0,0,,5,,,65,127
157949,note_off,148,0,0,,5,,,65,127
157949,note_off,0,0,0,,0,,,72,127
157952,note_on,3,0,0,,11,,,70,127
157952,note_on,0,0,0,,7,,,67,127
158100,note_off,148,0,0,,7,,,67,127
158103,note_on,3,0,0,,4,,,64,127
158251,note_off,148,0,0,,4,,,64,127
158251,note_off,0,0,0,,11,,,70,127
158254,note_on,3,0,0,,11,,,70,127
158254,note_on,0,0,0,,5,,,41,127
158301,note_off,47,0,0,,11,,,70,127
158304,note_on,3,0,0,,10,,,69,127
158351,note_off,47,0,0,,10,,,69,127
158354,note_on,3,0,0,,11,,,70,127
158401,note_off,47,0,0,,11,,,70,127
158404,note_on,3,0,0,,10,,,69,127
158704,note_off,300,0,0,,10,,,69,127
158707,note_on,3,0,0,,7,,,67,127
158855,note_off,148,0,0,,7,,,67,127
158858,note_on,3,0,0,,5,,,65,127
159006,note_off,148,0,0,,5,,,65,127
159017,note_on,11,0,0,,11,,,82,127
159165,note_off,148,0,0,,11,,,82,127
159168,note_on,3,0,0,,10,,,81,127
159316,note_off,148,0,0,,10,,,81,127
159319,note_on,3,0,0,,7,,,79,127
159355,note_off,36,0,0,,5,,,41,127
159467,note_off,112,0,0,,7,,,79,127
159470,note_on,3,0,0,,2,,,74,127
159470,note_on,0,0,0,,5,,,77,127
159618,note_off,148,0,0,,2,,,74,127
159621,note_on,3,0,0,,12,,,71,127
159769,note_off,148,0,0,,12,,,71,127
159769,note_off,0,0,0,,5,,,77,127
159772,note_on,3,0,0,,0,,,72,127
159772,note_on,0,0,0,,4,,,76,127
159920,note_off,148,0,0,,0,,,72,127
159923,note_on,3,0,0,,10,,,69,127
160071,note_off,148,0,0,,10,,,69,127
160071,note_off,0,0,0,,4,,,76,127
160074,note_on,3,0,0,,12,,,71,127
160074,note_on,0,0,0,,2,,,74,127
160222,note_off,148,0,0,,12,,,71,127
160225,note_on,3,0,0,,7,,,67,127
160373,note_off,148,0,0,,7,,,67,127
160373,note_off,0,0,0,,2,,,74,127
160376,note_on,3,0,0,,10,,,69,127
160376,note_on,0,0,0,,0,,,72,127
160524,note_off,148,0,0,,10,,,69,127
160527,note_on,3,0,0,,6,,,66,127
160675,note_off,148,0,0,,6,,,66,127
160675,note_off,0,0,0,,0,,,72,127
160678,note_on,3,0,0,,7,,,67,127
160678,note_on,0,0,0,,12,,,71,127
160826,note_off,148,0,0,,7,,,67,127
160829,note_on,3,0,0,,4,,,64,127
160977,note_off,148,0,0,,4,,,64,127
160977,note_off,0,0,0,,12,,,71,127
160980,note_on,3,0,0,,5,,,65,127
160980,note_on,0,0,0,,10,,,69,127
161128,note_off,148,0,0,,5,,,65,127
161131,note_on,3,0,0,,2,,,62,127
161279,note_off,148,0,0,,2,,,62,127
161279,note_off,0,0,0,,10,,,69,127
161282,note_on,3,0,0,,4,,,64,127
161282,note_on,0,0,0,,7,,,67,127
161430,note_off,148,0,0,,4,,,64,127
161433,note_on,3,0,0,,0,,,60,127
161581,note_off,148,0,0,,0,,,60,127
161581,note_off,0,0,0,,7,,,67,127
161584,note_on,3,0,0,,2,,,62,127
161584,note_on,0,0,0,,5,,,65,127
161732,note_off,148,0,0,,2,,,62,127
161735,note_on,3,0,0,,12,,,59,127
161883,note_off,148,0,0,,12,,,59,127
161883,note_off,0,0,0,,5,,,65,127
161886,note_on,3,0,0,,0,,,60,127
161886,note_on,0,0,0,,4,,,64,127
162034,note_off,148,0,0,,0,,,60,127
162037,note_on,3,0,0,,10,,,57,127
162185,note_off,148,0,0,,10,,,57,127
162185,note_off,0,0,0,,4,,,64,127
162188,note_on,3,0,0,,12,,,59,127
162188,note_on,0,0,0,,2,,,62,127
162336,note_off,148,0,0,,12,,,59,127
162339,note_on,3,0,0,,7,,,55,127
162487,note_off,148,0,0,,7,,,55,127
162490,note_on,3,0,0,,10,,,57,127
162566,note_off,76,0,0,,2,,,62,127
162566,note_on,0,0,0,,0,,,60,127
162639,note_off,73,0,0,,0,,,60,127
162642,note_on,3,0,0,,2,,,62,127
162715,note_off,73,0,0,,2,,,62,127
162718,note_on,3,0,0,,0,,,60,127
162791,note_off,73,0,0,,0,,,60,127
162791,note_off,0,0,0,,10,,,57,127
162794,note_on,3,0,0,,10,,,45,127
162794,note_on,0,0,0,,2,,,62,127
162867,note_off,73,0,0,,2,,,62,127
162870,note_on,3,0,0,,0,,,60,127
162943,note_off,73,0,0,,0,,,60,127
162946,note_on,3,0,0,,12,,,59,127
163019,note_off,73,0,0,,12,,,59,127
163022,note_on,3,0,0,,0,,,60,127
163095,note_off,73,0,0,,0,,,60,127
163095,note_off,0,0,0,,10,,,45,127
163103,note_on,8,0,0,,2,,,62,127
163103,note_on,0,0,0,,7,,,43,127
163251,note_off,148,0,0,,2,,,62,127
163254,note_on,3,0,0,,6,,,66,127
163402,note_off,148,0,0,,6,,,66,127
163405,note_on,3,0,0,,7,,,67,127
163405,note_on,0,0,0,,7,,,55,127
163553,note_off,148,0,0,,7,,,67,127
163556,note_on,3,0,0,,4,,,64,127
163704,note_off,148,0,0,,4,,,64,127
163704,note_off,0,0,0,,7,,,55,127
163704,note_off,0,0,0,,7,,,43,127
163707,note_on,3,0,0,,2,,,62,127
163707,note_on,0,0,0,,10,,,45,127
163780,note_off,73,0,0,,2,,,62,127
163783,note_on,3,0,0,,0,,,60,127
163856,note_off,73,0,0,,0,,,60,127
163859,note_on,3,0,0,,2,,,62,127
163932,note_off,73,0,0,,2,,,62,127
163935,note_on,3,0,0,,0,,,60,127
164008,note_off,73,0,0,,0,,,60,127
164011,note_on,3,0,0,,2,,,62,127
164011,note_on,0,0,0,,6,,,54,127
164084,note_off,73,0,0,,2,,,62,127
164087,note_on,3,0,0,,0,,,60,127
164160,note_off,73,0,0,,0,,,60,127
164163,note_on,3,0,0,,12,,,59,127
164236,note_off,73,0,0,,12,,,59,127
164239,note_on,3,0,0,,0,,,60,127
164312,note_off,73,0,0,,0,,,60,127
164312,note_off,0,0,0,,6,,,54,127
164312,note_off,0,0,0,,10,,,45,127
164321,note_on,9,0,0,,7,,,43,127
164321,note_on,0,0,0,,2,,,62,127
164469,note_off,148,0,0,,2,,,62,127
164472,note_on,3,0,0,,6,,,66,127
164620,note_off,148,0,0,,6,,,66,127
164623,note_on,3,0,0,,7,,,55,127
164623,note_on,0,0,0,,7,,,67,127
164771,note_off,148,0,0,,7,,,67,127
164774,note_on,3,0,0,,4,,,64,127
164922,note_off,148,0,0,,4,,,64,127
164922,note_off,0,0,0,,7,,,55,127
164922,note_off,0,0,0,,7,,,43,127
164925,note_on,3,0,0,,10,,,45,127
164925,note_on,0,0,0,,2,,,62,127
164998,note_off,73,0,0,,2,,,62,127
165001,note_on,3,0,0,,0,,,60,127
165074,note_off,73,0,0,,0,,,60,127
165077,note_on,3,0,0,,2,,,62,127
165150,note_off,73,0,0,,2,,,62,127
165153,note_on,3,0,0,,0,,,60,127
165226,note_off,73,0,0,,0,,,60,127
165229,note_on,3,0,0,,6,,,54,127
165229,note_on,0,0,0,,2,,,62,127
165302,note_off,73,0,0,,2,,,62,127
165305,note_on,3,0,0,,0,,,60,127
165378,note_off,73,0,0,,0,,,60,127
165381,note_on,3,0,0,,12,,,59,127
165454,note_off,73,0,0,,12,,,59,127
165457,note_on,3,0,0,,0,,,60,127
165530,note_off,73,0,0,,0,,,60,127
165530,note_off,0,0,0,,6,,,54,127
165530,note_off,0,0,0,,10,,,45,127
165533,note_on,3,0,0,,7,,,43,127
165533,note_on,0,0,0,,0,,,60,127
165854,note_on,321,0,0,,2,,,62,127
165879,note_off,25,0,0,,0,,,60,127
166217,note_off,338,0,0,,2,,,62,127
166418,note_off,201,0,0,,7,,,43,127
166446,note_on,28,0,0,,2,,,74,127
166601,note_off,155,0,0,,2,,,74,127
166604,note_on,3,0,0,,4,,,76,127
166752,note_off,148,0,0,,4,,,76,127
166755,note_on,3,0,0,,5,,,77,127
166903,note_off,148,0,0,,5,,,77,127
166906,note_on,3,0,0,,0,,,72,127
166906,note_on,0,0,0,,4,,,76,127
167054,note_off,148,0,0,,0,,,72,127
167057,note_on,3,0,0,,0,,,60,127
167205,note_off,148,0,0,,0,,,60,127
167205,note_off,0,0,0,,4,,,76,127
167208,note_on,3,0,0,,7,,,67,127
167208,note_on,0,0,0,,2,,,74,127
167356,note_off,148,0,0,,7,,,67,127
167359,note_on,3,0,0,,7,,,55,127
167507,note_off,148,0,0,,7,,,55,127
167507,note_off,0,0,0,,2,,,74,127
167510,note_on,3,0,0,,0,,,60,127
167510,note_on,0,0,0,,0,,,72,127
167658,note_off,148,0,0,,0,,,60,127
167661,note_on,3,0,0,,0,,,48,127
167809,note_off,148,0,0,,0,,,48,127
167809,note_off,0,0,0,,0,,,72,127
167812,note_on,3,0,0,,7,,,55,127
167812,note_on,0,0,0,,2,,,74,127
167960,note_off,148,0,0,,7,,,55,127
167963,note_on,3,0,0,,7,,,43,127
168111,note_off,148,0,0,,7,,,43,127
168111,note_off,0,0,0,,2,,,74,127
168114,note_on,3,0,0,,0,,,48,127
168114,note_on,0,0,0,,0,,,36,127
168114,note_on,0,0,0,,5,,,77,127
168161,note_off,47,0,0,,5,,,77,127
168164,note_on,3,0,0,,4,,,76,127
168211,note_off,47,0,0,,4,,,76,127
168214,note_on,3,0,0,,5,,,77,127
168261,note_off,47,0,0,,5,,,77,127
168264,note_on,3,0,0,,4,,,76,127
168564,note_off,300,0,0,,4,,,76,127
168567,note_on,3,0,0,,2,,,74,127
168715,note_off,148,0,0,,2,,,74,127
168718,note_on,3,0,0,,0,,,72,127
168866,note_off,148,0,0,,0,,,72,127
168869,note_on,3,0,0,,2,,,74,127
169017,note_off,148,0,0,,2,,,74,127
169020,note_on,3,0,0,,4,,,76,127
169168,note_off,148,0,0,,4,,,76,127
169171,note_on,3,0,0,,5,,,77,127
169319,note_off,148,0,0,,5,,,77,127
169319,note_off,0,0,0,,0,,,36,127
169319,note_off,0,0,0,,0,,,48,127
169322,note_on,3,0,0,,0,,,72,127
169322,note_on,0,0,0,,4,,,76,127
169470,note_off,148,0,0,,0,,,72,127
169473,note_on,3,0,0,,0,,,60,127
169621,note_off,148,0,0,,0,,,60,127
169621,note_off,0,0,0,,4,,,76,127
169624,note_on,3,0,0,,7,,,67,127
169624,note_on,0,0,0,,2,,,74,127
169772,note_off,148,0,0,,7,,,67,127
169775,note_on,3,0,0,,7,,,55,127
169923,note_off,148,0,0,,7,,,55,127
169923,note_off,0,0,0,,2,,,74,127
169926,note_on,3,0,0,,0,,,60,127
169926,note_on,0,0,0,,0,,,72,127
170074,note_off,148,0,0,,0,,,60,127
170077,note_on,3,0,0,,0,,,48,127
170225,note_off,148,0,0,,0,,,48,127
170225,note_off,0,0,0,,0,,,72,127
170228,note_on,3,0,0,,7,,,55,127
170228,note_on,0,0,0,,2,,,74,127
170376,note_off,148,0,0,,7,,,55,127
170379,note_on,3,0,0,,7,,,43,127
170527,note_off,148,0,0,,7,,,43,127
170527,note_off,0,0,0,,2,,,74,127
170530,note_on,3,0,0,,0,,,36,127
170530,note_on,0,0,0,,0,,,48,127
170530,note_on,0,0,0,,4,,,76,127
170678,note_off,148,0,0,,4,,,76,127
170681,note_on,3,0,0,,5,,,77,127
170829,note_off,148,0,0,,5,,,77,127
170832,note_on,3,0,0,,7,,,79,127
170980,note_off,148,0,0,,7,,,79,127
170983,note_on,3,0,0,,5,,,77,127
171131,note_off,148,0,0,,5,,,77,127
171134,note_on,3,0,0,,4,,,76,127
171282,note_off,148,0,0,,4,,,76,127
171285,note_on,3,0,0,,2,,,74,127
171317,note_off,32,0,0,,0,,,36,127
171434,note_off,117,0,0,,2,,,74,127
171434,note_off,0,0,0,,0,,,48,127
171437,note_on,3,0,0,,4,,,52,127
171437,note_on,0,0,0,,0,,,72,127
171585,note_off,148,0,0,,0,,,72,127
171588,note_on,3,0,0,,12,,,71,127
171736,note_off,148,0,0,,12,,,71,127
171736,note_off,0,0,0,,4,,,52,127
171739,note_on,3,0,0,,5,,,53,127
171739,note_on,0,0,0,,10,,,69,127
171887,note_off,148,0,0,,10,,,69,127
171890,note_on,3,0,0,,10,,,81,127
172038,note_off,148,0,0,,10,,,81,127
172038,note_off,0,0,0,,5,,,53,127
172041,note_on,3,0,0,,5,,,41,127
172041,note_on,0,0,0,,7,,,79,127
172189,note_off,148,0,0,,7,,,79,127
172192,note_on,3,0,0,,5,,,77,127
172340,note_off,148,0,0,,5,,,77,127
172340,note_off,0,0,0,,5,,,41,127
172343,note_on,3,0,0,,7,,,43,127
172343,note_on,0,0,0,,4,,,76,127
172491,note_off,148,0,0,,4,,,76,127
172494,note_on,3,0,0,,2,,,74,127
172642,note_off,148,0,0,,2,,,74,127
172642,note_off,0,0,0,,7,,,43,127
172645,note_on,3,0,0,,7,,,55,127
172645,note_on,0,0,0,,0,,,72,127
172793,note_off,148,0,0,,0,,,72,127
172796,note_on,3,0,0,,12,,,71,127
172944,note_off,148,0,0,,12,,,71,127
172944,note_off,0,0,0,,7,,,55,127
172947,note_on,3,0,0,,0,,,48,127
172947,note_on,0,0,0,,0,,,72,127
173095,note_off,148,0,0,,0,,,72,127
173098,note_on,3,0,0,,7,,,67,127
173246,note_off,148,0,0,,7,,,67,127
173249,note_on,3,0,0,,10,,,69,127
173397,note_off,148,0,0,,10,,,69,127
173400,note_on,3,0,0,,12,,,71,127
173548,note_off,148,0,0,,12,,,71,127
173551,note_on,3,0,0,,0,,,72,127
173699,note_off,148,0,0,,0,,,72,127
173702,note_on,3,0,0,,2,,,74,127
173850,note_off,148,0,0,,2,,,74,127
173853,note_on,3,0,0,,4,,,76,127
174001,note_off,148,0,0,,4,,,76,127
174004,note_on,3,0,0,,5,,,77,127
174048,note_off,44,0,0,,0,,,48,127
174152,note_off,104,0,0,,5,,,77,127
174158,note_on,6,0,0,,4,,,76,127
174158,note_on,0,0,0,,0,,,72,127
174306,note_off,148,0,0,,0,,,72,127
174309,note_on,3,0,0,,0,,,60,127
174457,note_off,148,0,0,,0,,,60,127
174457,note_off,0,0,0,,4,,,76,127
174460,note_on,3,0,0,,2,,,74,127
174460,note_on,0,0,0,,7,,,67,127
174608,note_off,148,0,0,,7,,,67,127
174611,note_on,3,0,0,,7,,,55,127
174759,note_off,148,0,0,,7,,,55,127
174759,note_off,0,0,0,,2,,,74,127
174762,note_on,3,0,0,,0,,,72,127
174762,note_on,0,0,0,,0,,,60,127
174910,note_off,148,0,0,,0,,,60,127
174913,note_on,3,0,0,,0,,,48,127
175061,note_off,148,0,0,,0,,,48,127
175061,note_off,0,0,0,,0,,,72,127
175064,note_on,3,0,0,,2,,,74,127
175064,note_on,0,0,0,,7,,,55,127
175212,note_off,148,0,0,,7,,,55,127
175215,note_on,3,0,0,,7,,,43,127
175363,note_off,148,0,0,,7,,,43,127
175363,note_off,0,0,0,,2,,,74,127
175366,note_on,3,0,0,,5,,,77,127
175366,note_on,0,0,0,,0,,,36,127
175366,note_on,0,0,0,,0,,,48,127
175413,note_off,47,0,0,,5,,,77,127
175416,note_on,3,0,0,,4,,,76,127
175463,note_off,47,0,0,,4,,,76,127
175466,note_on,3,0,0,,5,,,77,127
175513,note_off,47,0,0,,5,,,77,127
175516,note_on,3,0,0,,4,,,76,127
175816,note_off,300,0,0,,4,,,76,127
175819,note_on,3,0,0,,2,,,74,127
175967,note_off,148,0,0,,2,,,74,127
175970,note_on,3,0,0,,0,,,72,127
176118,note_off,148,0,0,,0,,,72,127
176121,note_on,3,0,0,,2,,,74,127
176269,note_off,148,0,0,,2,,,74,127
176272,note_on,3,0,0,,4,,,76,127
176420,note_off,148,0,0,,4,,,76,127
176423,note_on,3,0,0,,5,,,77,127
176571,note_off,148,0,0,,5,,,77,127
176571,note_off,0,0,0,,0,,,48,127
176571,note_off,0,0,0,,0,,,36,127
176574,note_on,3,0,0,,4,,,76,127
176574,note_on,0,0,0,,0,,,72,127
176722,note_off,148,0,0,,0,,,72,127
176725,note_on,3,0,0,,0,,,60,127
176873,note_off,148,0,0,,0,,,60,127
176873,note_off,0,0,0,,4,,,76,127
176876,note_on,3,0,0,,2,,,74,127
176876,note_on,0,0,0,,7,,,67,127
177024,note_off,148,0,0,,7,,,67,127
177027,note_on,3,0,0,,7,,,55,127
177175,note_off,148,0,0,,7,,,55,127
177175,note_off,0,0,0,,2,,,74,127
177178,note_on,3,0,0,,0,,,72,127
177178,note_on,0,0,0,,0,,,60,127
177326,note_off,148,0,0,,0,,,60,127
177329,note_on,3,0,0,,0,,,48,127
177477,note_off,148,0,0,,0,,,48,127
177477,note_off,0,0,0,,0,,,72,127
177480,note_on,3,0,0,,2,,,74,127
177480,note_on,0,0,0,,7,,,55,127
177628,note_off,148,0,0,,7,,,55,127
177631,note_on,3,0,0,,7,,,43,127
177779,note_off,148,0,0,,7,,,43,127
177779,note_off,0,0,0,,2,,,74,127
177782,note_on,3,0,0,,4,,,76,127
177782,note_on,0,0,0,,0,,,48,127
177782,note_on,0,0,0,,0,,,36,127
177930,note_off,148,0,0,,4,,,76,127
177933,note_on,3,0,0,,5,,,77,127
178081,note_off,148,0,0,,5,,,77,127
178084,note_on,3,0,0,,7,,,79,127
178232,note_off,148,0,0,,7,,,79,127
178235,note_on,3,0,0,,5,,,77,127
178383,note_off,148,0,0,,5,,,77,127
178386,note_on,3,0,0,,4,,,76,127
178534,note_off,148,0,0,,4,,,76,127
178537,note_on,3,0,0,,2,,,74,127
178569,note_off,32,0,0,,0,,,36,127
178686,note_off,117,0,0,,2,,,74,127
178686,note_off,0,0,0,,0,,,48,127
178689,note_on,3,0,0,,0,,,72,127
178689,note_on,0,0,0,,4,,,52,127
178837,note_off,148,0,0,,0,,,72,127
178840,note_on,3,0,0,,12,,,71,127
178988,note_off,148,0,0,,12,,,71,127
178988,note_off,0,0,0,,4,,,52,127
178991,note_on,3,0,0,,10,,,69,127
178991,note_on,0,0,0,,5,,,53,127
179139,note_off,148,0,0,,10,,,69,127
179142,note_on,3,0,0,,10,,,81,127
179290,note_off,148,0,0,,10,,,81,127
179290,note_off,0,0,0,,5,,,53,127
179293,note_on,3,0,0,,7,,,79,127
179293,note_on,0,0,0,,5,,,41,127
179441,note_off,148,0,0,,7,,,79,127
179444,note_on,3,0,0,,5,,,77,127
179592,note_off,148,0,0,,5,,,77,127
179592,note_off,0,0,0,,5,,,41,127
179595,note_on,3,0,0,,4,,,76,127
179595,note_on,0,0,0,,7,,,43,127
179743,note_off,148,0,0,,4,,,76,127
179746,note_on,3,0,0,,2,,,74,127
179894,note_off,148,0,0,,2,,,74,127
179894,note_off,0,0,0,,7,,,43,127
179897,note_on,3,0,0,,0,,,72,127
179897,note_on,0,0,0,,7,,,55,127
180045,note_off,148,0,0,,0,,,72,127
180048,note_on,3,0,0,,12,,,71,127
180196,note_off,148,0,0,,12,,,71,127
180196,note_off,0,0,0,,7,,,55,127
180217,note_on,21,0,0,,4,,,52,127
180217,note_on,0,0,0,,0,,,72,127
180365,note_off,148,0,0,,0,,,72,127
180368,note_on,3,0,0,,7,,,79,127
180516,note_off,148,0,0,,7,,,79,127
180516,note_off,0,0,0,,4,,,52,127
180519,note_on,3,0,0,,0,,,48,127
180519,note_on,0,0,0,,7,,,67,127
180667,note_off,148,0,0,,7,,,67,127
180670,note_on,3,0,0,,4,,,76,127
180670,note_on,0,0,0,,0,,,72,127
180818,note_off,148,0,0,,0,,,72,127
180818,note_off,0,0,0,,4,,,76,127
180818,note_off,0,0,0,,0,,,48,127
180821,note_on,3,0,0,,7,,,43,127
180821,note_on,0,0,0,,0,,,72,127
180821,note_on,0,0,0,,4,,,76,127
180868,note_off,47,0,0,,4,,,76,127
180868,note_off,0,0,0,,0,,,72,127
180871,note_on,3,0,0,,12,,,71,127
180871,note_on,0,0,0,,2,,,74,127
180918,note_off,47,0,0,,2,,,74,127
180918,note_off,0,0,0,,12,,,71,127
180921,note_on,3,0,0,,0,,,72,127
180921,note_on,0,0,0,,4,,,76,127
180968,note_off,47,0,0,,4,,,76,127
180968,note_off,0,0,0,,0,,,72,127
180971,note_on,3,0,0,,12,,,71,127
180971,note_on,0,0,0,,2,,,74,127
181119,note_off,148,0,0,,7,,,43,127
181122,note_on,3,0,0,,7,,,55,127
181422,note_off,300,0,0,,7,,,55,127
181430,note_on,8,0,0,,4,,,52,127
181523,note_off,93,0,0,,2,,,74,127
181523,note_off,0,0,0,,12,,,71,127
181581,note_on,58,0,0,,7,,,79,127
181729,note_off,148,0,0,,7,,,79,127
181729,note_off,0,0,0,,4,,,52,127
181732,note_on,3,0,0,,7,,,67,127
181732,note_on,0,0,0,,0,,,48,127
181880,note_off,148,0,0,,7,,,67,127
181883,note_on,3,0,0,,0,,,72,127
181883,note_on,0,0,0,,4,,,76,127
182031,note_off,148,0,0,,4,,,76,127
182031,note_off,0,0,0,,0,,,72,127
182031,note_off,0,0,0,,0,,,48,127
182034,note_on,3,0,0,,4,,,76,127
182034,note_on,0,0,0,,0,,,72,127
182034,note_on,0,0,0,,7,,,43,127
182081,note_off,47,0,0,,0,,,72,127
182081,note_off,0,0,0,,4,,,76,127
182084,note_on,3,0,0,,2,,,74,127
182084,note_on,0,0,0,,12,,,71,127
182131,note_off,47,0,0,,12,,,71,127
182131,note_off,0,0,0,,2,,,74,127
182134,note_on,3,0,0,,4,,,76,127
182134,note_on,0,0,0,,0,,,72,127
182181,note_off,47,0,0,,0,,,72,127
182181,note_off,0,0,0,,4,,,76,127
182184,note_on,3,0,0,,2,,,74,127
182184,note_on,0,0,0,,12,,,71,127
182332,note_off,148,0,0,,7,,,43,127
182335,note_on,3,0,0,,7,,,55,127
182578,note_off,243,0,0,,12,,,71,127
182635,note_off,57,0,0,,7,,,55,127
182646,note_on,11,0,0,,5,,,53,127
182646,note_on,0,0,0,,10,,,69,127
182783,note_off,137,0,0,,2,,,74,127
182797,note_on,14,0,0,,2,,,74,127
182945,note_off,148,0,0,,2,,,74,127
182945,note_off,0,0,0,,5,,,53,127
182948,note_on,3,0,0,,5,,,41,127
182948,note_on,0,0,0,,4,,,76,127
183096,note_off,148,0,0,,4,,,76,127
183099,note_on,3,0,0,,5,,,77,127
183244,note_off,145,0,0,,10,,,69,127
183247,note_off,3,0,0,,5,,,77,127
183247,note_off,0,0,0,,5,,,41,127
183250,note_on,3,0,0,,7,,,43,127
183250,note_on,0,0,0,,4,,,76,127
183250,note_on,0,0,0,,7,,,67,127
183398,note_off,148,0,0,,4,,,76,127
183401,note_on,3,0,0,,0,,,72,127
183549,note_off,148,0,0,,0,,,72,127
183549,note_off,0,0,0,,7,,,67,127
183549,note_off,0,0,0,,7,,,43,127
183552,note_on,3,0,0,,7,,,55,127
183552,note_on,0,0,0,,2,,,74,127
183552,note_on,0,0,0,,5,,,65,127
183700,note_off,148,0,0,,2,,,74,127
183703,note_on,3,0,0,,12,,,71,127
183851,note_off,148,0,0,,12,,,71,127
183851,note_off,0,0,0,,5,,,65,127
183851,note_off,0,0,0,,7,,,55,127
183857,note_on,6,0,0,,0,,,72,127
183857,note_on,0,0,0,,0,,,36,127
184009,note_on,152,0,0,,7,,,67,127
184157,note_off,148,0,0,,7,,,67,127
184157,note_off,0,0,0,,0,,,36,127
184160,note_on,3,0,0,,4,,,64,127
184160,note_on,0,0,0,,0,,,48,127
184308,note_off,148,0,0,,4,,,64,127
184311,note_on,3,0,0,,7,,,67,127
184459,note_off,148,0,0,,0,,,48,127
184459,note_off,0,0,0,,0,,,72,127
184462,note_on,3,0,0,,12,,,71,127
184462,note_on,0,0,0,,7,,,43,127
184531,note_off,69,0,0,,7,,,67,127
184537,note_on,6,0,0,,5,,,65,127
184610,note_off,73,0,0,,5,,,65,127
184613,note_on,3,0,0,,7,,,67,127
184686,note_off,73,0,0,,7,,,67,127
184689,note_on,3,0,0,,5,,,65,127
184762,note_off,73,0,0,,5,,,65,127
184762,note_off,0,0,0,,7,,,43,127
184765,note_on,3,0,0,,7,,,67,127
184765,note_on,0,0,0,,7,,,55,127
184838,note_off,73,0,0,,7,,,67,127
184841,note_on,3,0,0,,5,,,65,127
184914,note_off,73,0,0,,5,,,65,127
184917,note_on,3,0,0,,4,,,64,127
184990,note_off,73,0,0,,4,,,64,127
184993,note_on,3,0,0,,5,,,65,127
185066,note_off,73,0,0,,5,,,65,127
185066,note_off,0,0,0,,7,,,55,127
185066,note_off,0,0,0,,12,,,71,127
185074,note_on,8,0,0,,0,,,36,127
185074,note_on,0,0,0,,0,,,72,127
185226,note_on,152,0,0,,7,,,67,127
185374,note_off,148,0,0,,7,,,67,127
185374,note_off,0,0,0,,0,,,36,127
185377,note_on,3,0,0,,0,,,48,127
185377,note_on,0,0,0,,4,,,64,127
185525,note_off,148,0,0,,4,,,64,127
185528,note_on,3,0,0,,7,,,67,127
185676,note_off,148,0,0,,0,,,48,127
185676,note_off,0,0,0,,0,,,72,127
185679,note_on,3,0,0,,7,,,43,127
185679,note_on,0,0,0,,2,,,74,127
185748,note_off,69,0,0,,7,,,67,127
185754,note_on,6,0,0,,5,,,65,127
185827,note_off,73,0,0,,5,,,65,127
185830,note_on,3,0,0,,7,,,67,127
185903,note_off,73,0,0,,7,,,67,127
185906,note_on,3,0,0,,5,,,65,127
185979,note_off,73,0,0,,5,,,65,127
185979,note_off,0,0,0,,7,,,43,127
185982,note_on,3,0,0,,7,,,55,127
185982,note_on,0,0,0,,7,,,67,127
186055,note_off,73,0,0,,7,,,67,127
186058,note_on,3,0,0,,5,,,65,127
186131,note_off,73,0,0,,5,,,65,127
186134,note_on,3,0,0,,4,,,64,127
186207,note_off,73,0,0,,4,,,64,127
186210,note_on,3,0,0,,5,,,65,127
186283,note_off,73,0,0,,5,,,65,127
186283,note_off,0,0,0,,7,,,55,127
186283,note_off,0,0,0,,2,,,74,127
186292,note_on,9,0,0,,0,,,72,127
186292,note_on,0,0,0,,0,,,36,127
186444,note_on,152,0,0,,7,,,67,127
186592,note_off,148,0,0,,7,,,67,127
186592,note_off,0,0,0,,0,,,36,127
186595,note_on,3,0,0,,4,,,64,127
186595,note_on,0,0,0,,0,,,48,127
186743,note_off,148,0,0,,4,,,64,127
186746,note_on,3,0,0,,7,,,67,127
186894,note_off,148,0,0,,0,,,48,127
186894,note_off,0,0,0,,0,,,72,127
186897,note_on,3,0,0,,12,,,71,127
186897,note_on,0,0,0,,7,,,43,127
186966,note_off,69,0,0,,7,,,67,127
186972,note_on,6,0,0,,5,,,65,127
187045,note_off,73,0,0,,5,,,65,127
187048,note_on,3,0,0,,7,,,67,127
187121,note_off,73,0,0,,7,,,67,127
187124,note_on,3,0,0,,5,,,65,127
187197,note_off,73,0,0,,5,,,65,127
187197,note_off,0,0,0,,7,,,43,127
187200,note_on,3,0,0,,7,,,67,127
187200,note_on,0,0,0,,7,,,55,127
187273,note_off,73,0,0,,7,,,67,127
187276,note_on,3,0,0,,5,,,65,127
187349,note_off,73,0,0,,5,,,65,127
187352,note_on,3,0,0,,4,,,64,127
187425,note_off,73,0,0,,4,,,64,127
187428,note_on,3,0,0,,5,,,65,127
187501,note_off,73,0,0,,5,,,65,127
187501,note_off,0,0,0,,7,,,55,127
187501,note_off,0,0,0,,12,,,71,127
187512,note_on,11,0,0,,0,,,36,127
187512,note_on,0,0,0,,0,,,72,127
187664,note_on,152,0,0,,7,,,67,127
187812,note_off,148,0,0,,7,,,67,127
187812,note_off,0,0,0,,0,,,36,127
187815,note_on,3,0,0,,0,,,48,127
187815,note_on,0,0,0,,4,,,64,127
187963,note_off,148,0,0,,4,,,64,127
187966,note_on,3,0,0,,7,,,67,127
188114,note_off,148,0,0,,0,,,48,127
188114,note_off,0,0,0,,0,,,72,127
188117,note_on,3,0,0,,7,,,43,127
188117,note_on,0,0,0,,2,,,74,127
188186,note_off,69,0,0,,7,,,67,127
188192,note_on,6,0,0,,5,,,65,127
188265,note_off,73,0,0,,5,,,65,127
188268,note_on,3,0,0,,7,,,67,127
188341,note_off,73,0,0,,7,,,67,127
188344,note_on,3,0,0,,5,,,65,127
188417,note_off,73,0,0,,5,,,65,127
188417,note_off,0,0,0,,7,,,43,127
188420,note_on,3,0,0,,7,,,55,127
188420,note_on,0,0,0,,7,,,67,127
188493,note_off,73,0,0,,7,,,67,127
188496,note_on,3,0,0,,5,,,65,127
188569,note_off,73,0,0,,5,,,65,127
188572,note_on,3,0,0,,4,,,64,127
188645,note_off,73,0,0,,4,,,64,127
188648,note_on,3,0,0,,5,,,65,127
188721,note_off,73,0,0,,5,,,65,127
188721,note_off,0,0,0,,7,,,55,127
188721,note_off,0,0,0,,2,,,74,127
188734,note_on,13,0,0,,0,,,48,127
188734,note_on,0,0,0,,4,,,64,127
188734,note_on,0,0,0,,0,,,72,127
188882,note_off,148,0,0,,0,,,72,127
188887,note_on,5,0,0,,7,,,67,127
189035,note_off,148,0,0,,7,,,67,127
189035,note_off,0,0,0,,0,,,48,127
189040,note_on,5,0,0,,5,,,53,127
189040,note_on,0,0,0,,10,,,69,127
189188,note_off,148,0,0,,10,,,69,127
189188,note_off,0,0,0,,4,,,64,127
189193,note_on,5,0,0,,2,,,62,127
189193,note_on,0,0,0,,5,,,65,127
189341,note_off,148,0,0,,5,,,65,127
189341,note_off,0,0,0,,5,,,53,127
189346,note_on,5,0,0,,7,,,55,127
189346,note_on,0,0,0,,7,,,67,127
189494,note_off,148,0,0,,7,,,67,127
189494,note_off,0,0,0,,2,,,62,127
189499,note_on,5,0,0,,0,,,60,127
189499,note_on,0,0,0,,4,,,64,127
189647,note_off,148,0,0,,4,,,64,127
189647,note_off,0,0,0,,7,,,55,127
189650,note_on,3,0,0,,7,,,43,127
189650,note_on,0,0,0,,5,,,65,127
189798,note_off,148,0,0,,5,,,65,127
189800,note_off,2,0,0,,0,,,60,127
189803,note_on,3,0,0,,2,,,62,127
189803,note_on,0,0,0,,12,,,59,127
189951,note_off,148,0,0,,12,,,59,127
189951,note_off,0,0,0,,2,,,62,127
189951,note_off,0,0,0,,7,,,43,127
189960,note_on,9,0,0,,0,,,48,127
189960,note_on,0,0,0,,4,,,64,127
190108,note_off,148,0,0,,4,,,64,127
190116,note_on,8,0,0,,0,,,60,127
190263,note_off,147,0,0,,0,,,48,127
190265,note_off,2,0,0,,0,,,60,127
190273,note_on,8,0,0,,5,,,41,127
190273,note_on,0,0,0,,10,,,57,127
190421,note_off,148,0,0,,10,,,57,127
190429,note_on,8,0,0,,5,,,65,127
190576,note_off,147,0,0,,5,,,41,127
190578,note_off,2,0,0,,5,,,65,127
190586,note_on,8,0,0,,7,,,43,127
190586,note_on,0,0,0,,0,,,60,127
190586,note_on,0,0,0,,4,,,64,127
190889,note_off,303,0,0,,4,,,64,127
190889,note_off,0,0,0,,0,,,60,127
190889,note_off,0,0,0,,7,,,43,127
190902,note_on,13,0,0,,7,,,31,127
190902,note_on,0,0,0,,2,,,62,127
190902,note_on,0,0,0,,12,,,59,127
191205,note_off,303,0,0,,12,,,59,127
191205,note_off,0,0,0,,2,,,62,127
191205,note_off,0,0,0,,7,,,31,127
191233,note_on,28,0,0,,0,,,60,127
191233,note_on,0,0,0,,0,,,36,127
193084,note_off,1851,0,0,,0,,,36,127
193084,note_off,0,0,0,,0,,,60,127
195072,end_of_track,1988,1,0,,,,,,
