tick,type,time,meta,track,program,channel,pitch,tempo,note,velocity
0,copyright,0,1,0,,,,,,
0,program_change,0,0,0,6,0,,,,
0,pitchwheel,0,0,0,,0,0,,,
0,program_change,0,0,0,6,1,,,,
0,pitchwheel,0,0,0,,1,-590,,,
0,program_change,0,0,0,6,2,,,,
0,pitchwheel,0,0,0,,2,-272,,,
0,program_change,0,0,0,6,3,,,,
0,pitchwheel,0,0,0,,3,-353,,,
0,program_change,0,0,0,6,4,,,,
0,pitchwheel,0,0,0,,4,-560,,,
0,program_change,0,0,0,6,5,,,,
0,pitchwheel,0,0,0,,5,-80,,,
0,program_change,0,0,0,6,6,,,,
0,pitchwheel,0,0,0,,6,-625,,,
0,program_change,0,0,0,6,7,,,,
0,pitchwheel,0,0,0,,7,-130,,,
0,program_change,0,0,0,6,8,,,,
0,pitchwheel,0,0,0,,8,-512,,,
0,program_change,0,0,0,6,10,,,,
0,pitchwheel,0,0,0,,10,-464,,,
0,program_change,0,0,0,6,11,,,,
0,pitchwheel,0,0,0,,11,-208,,,
0,program_change,0,0,0,6,12,,,,
0,pitchwheel,0,0,0,,12,-553,,,
0,set_tempo,0,1,0,,,,500000,,
111,note_on,111,0,0,,0,,,72,127
111,note_on,0,0,0,,4,,,76,127
222,note_off,111,0,0,,4,,,76,127
222,note_off,0,0,0,,0,,,72,127
333,note_on,111,0,0,,12,,,71,127
333,note_on,0,0,0,,2,,,74,127
444,note_off,111,0,0,,2,,,74,127
444,note_off,0,0,0,,12,,,71,127
555,note_on,111,0,0,,0,,,72,127
555,note_on,0,0,0,,4,,,76,127
666,note_off,111,0,0,,4,,,76,127
666,note_off,0,0,0,,0,,,72,127
777,note_on,111,0,0,,0,,,72,127
777,note_on,0,0,0,,4,,,76,127
832,note_on,55,0,0,,2,,,74,127
832,note_on,0,0,0,,12,,,71,127
837,note_off,5,0,0,,4,,,76,127
837,note_off,0,0,0,,0,,,72,127
888,note_on,51,0,0,,4,,,76,127
888,note_on,0,0,0,,0,,,72,127
893,note_off,5,0,0,,12,,,71,127
893,note_off,0,0,0,,2,,,74,127
944,note_on,51,0,0,,12,,,71,127
944,note_on,0,0,0,,2,,,74,127
949,note_off,5,0,0,,0,,,72,127
949,note_off,0,0,0,,4,,,76,127
1221,note_off,272,0,0,,2,,,74,127
1221,note_off,0,0,0,,12,,,71,127
1498,note_on,277,0,0,,4,,,64,127
1498,note_on,0,0,0,,0,,,60,127
1609,note_off,111,0,0,,0,,,60,127
1609,note_off,0,0,0,,4,,,64,127
1720,note_on,111,0,0,,12,,,59,127
1720,note_on,0,0,0,,2,,,62,127
1831,note_off,111,0,0,,2,,,62,127
1831,note_off,0,0,0,,12,,,59,127
1942,note_on,111,0,0,,4,,,64,127
1942,note_on,0,0,0,,0,,,60,127
2053,note_off,111,0,0,,0,,,60,127
2053,note_off,0,0,0,,4,,,64,127
2164,note_on,111,0,0,,4,,,64,127
2164,note_on,0,0,0,,0,,,60,127
2219,note_on,55,0,0,,12,,,59,127
2219,note_on,0,0,0,,2,,,62,127
2224,note_off,5,0,0,,0,,,60,127
2224,note_off,0,0,0,,4,,,64,127
2275,note_on,51,0,0,,4,,,64,127
2275,note_on,0,0,0,,0,,,60,127
2280,note_off,5,0,0,,2,,,62,127
2280,note_off,0,0,0,,12,,,59,127
2331,note_on,51,0,0,,12,,,59,127
2331,note_on,0,0,0,,2,,,62,127
2336,note_off,5,0,0,,0,,,60,127
2336,note_off,0,0,0,,4,,,64,127
2608,note_off,272,0,0,,2,,,62,127
2608,note_off,0,0,0,,12,,,59,127
2885,note_on,277,0,0,,0,,,60,127
2885,note_on,0,0,0,,4,,,52,127
3079,note_off,194,0,0,,4,,,52,127
3079,note_off,0,0,0,,0,,,60,127
3107,note_on,28,0,0,,5,,,53,127
3107,note_on,0,0,0,,2,,,62,127
3301,note_off,194,0,0,,2,,,62,127
3301,note_off,0,0,0,,5,,,53,127
3329,note_on,28,0,0,,7,,,55,127
3329,note_on,0,0,0,,4,,,64,127
3523,note_off,194,0,0,,4,,,64,127
3523,note_off,0,0,0,,7,,,55,127
3551,note_on,28,0,0,,5,,,65,127
3551,note_on,0,0,0,,10,,,57,127
3773,note_off,222,0,0,,10,,,57,127
3773,note_on,0,0,0,,12,,,59,127
3773,note_on,0,0,0,,2,,,86,127
3995,note_off,222,0,0,,2,,,86,127
3995,note_off,0,0,0,,12,,,59,127
3995,note_off,0,0,0,,5,,,65,127
3995,note_on,0,0,0,,0,,,84,127
3995,note_on,0,0,0,,4,,,64,127
3995,note_on,0,0,0,,0,,,60,127
4161,note_off,166,0,0,,0,,,60,127
4161,note_off,0,0,0,,4,,,64,127
4216,note_off,55,0,0,,0,,,84,127
4216,note_on,0,0,0,,4,,,52,127
4216,note_on,0,0,0,,0,,,60,127
4410,note_off,194,0,0,,0,,,60,127
4410,note_off,0,0,0,,4,,,52,127
4438,note_on,28,0,0,,2,,,62,127
4438,note_on,0,0,0,,5,,,53,127
4632,note_off,194,0,0,,5,,,53,127
4632,note_off,0,0,0,,2,,,62,127
4660,note_on,28,0,0,,4,,,64,127
4660,note_on,0,0,0,,7,,,55,127
4854,note_off,194,0,0,,7,,,55,127
4854,note_off,0,0,0,,4,,,64,127
4882,note_on,28,0,0,,10,,,57,127
4882,note_on,0,0,0,,5,,,65,127
5104,note_off,222,0,0,,10,,,57,127
5104,note_on,0,0,0,,12,,,59,127
5104,note_on,0,0,0,,2,,,86,127
5326,note_off,222,0,0,,2,,,86,127
5326,note_off,0,0,0,,12,,,59,127
5326,note_off,0,0,0,,5,,,65,127
5326,note_on,0,0,0,,0,,,84,127
5326,note_on,0,0,0,,0,,,60,127
5326,note_on,0,0,0,,4,,,64,127
5492,note_off,166,0,0,,4,,,64,127
5492,note_off,0,0,0,,0,,,60,127
5547,note_off,55,0,0,,0,,,84,127
5547,note_on,0,0,0,,7,,,67,127
5547,note_on,0,0,0,,5,,,65,127
5651,note_off,104,0,0,,5,,,65,127
5651,note_off,0,0,0,,7,,,67,127
5658,note_on,7,0,0,,4,,,64,127
5658,note_on,0,0,0,,10,,,69,127
5762,note_off,104,0,0,,10,,,69,127
5762,note_off,0,0,0,,4,,,64,127
5769,note_on,7,0,0,,12,,,71,127
5769,note_on,0,0,0,,2,,,62,127
5873,note_off,104,0,0,,2,,,62,127
5873,note_off,0,0,0,,12,,,71,127
5880,note_on,7,0,0,,0,,,60,127
5880,note_on,0,0,0,,0,,,72,127
5984,note_off,104,0,0,,0,,,72,127
5984,note_off,0,0,0,,0,,,60,127
5991,note_on,7,0,0,,12,,,59,127
5991,note_on,0,0,0,,2,,,74,127
6095,note_off,104,0,0,,2,,,74,127
6095,note_off,0,0,0,,12,,,59,127
6102,note_on,7,0,0,,4,,,76,127
6102,note_on,0,0,0,,10,,,57,127
6206,note_off,104,0,0,,10,,,57,127
6206,note_off,0,0,0,,4,,,76,127
6213,note_on,7,0,0,,7,,,79,127
6213,note_on,0,0,0,,5,,,77,127
6213,note_on,0,0,0,,7,,,55,127
6324,note_off,111,0,0,,7,,,79,127
6324,note_on,0,0,0,,7,,,43,127
6435,note_off,111,0,0,,7,,,43,127
6435,note_on,0,0,0,,12,,,47,127
6546,note_off,111,0,0,,12,,,47,127
6546,note_on,0,0,0,,2,,,50,127
6657,note_off,111,0,0,,2,,,50,127
6657,note_off,0,0,0,,7,,,55,127
6657,note_off,0,0,0,,5,,,77,127
6657,note_on,0,0,0,,4,,,76,127
6657,note_on,0,0,0,,0,,,48,127
6823,note_off,166,0,0,,0,,,48,127
6865,note_off,42,0,0,,4,,,76,127
6879,note_on,14,0,0,,7,,,67,127
6879,note_on,0,0,0,,5,,,65,127
6983,note_off,104,0,0,,5,,,65,127
6983,note_off,0,0,0,,7,,,67,127
6990,note_on,7,0,0,,10,,,69,127
6990,note_on,0,0,0,,4,,,64,127
7094,note_off,104,0,0,,4,,,64,127
7094,note_off,0,0,0,,10,,,69,127
7101,note_on,7,0,0,,12,,,71,127
7101,note_on,0,0,0,,2,,,62,127
7205,note_off,104,0,0,,2,,,62,127
7205,note_off,0,0,0,,12,,,71,127
7212,note_on,7,0,0,,0,,,72,127
7212,note_on,0,0,0,,0,,,60,127
7316,note_off,104,0,0,,0,,,60,127
7316,note_off,0,0,0,,0,,,72,127
7323,note_on,7,0,0,,12,,,59,127
7323,note_on,0,0,0,,2,,,74,127
7427,note_off,104,0,0,,2,,,74,127
7427,note_off,0,0,0,,12,,,59,127
7434,note_on,7,0,0,,10,,,57,127
7434,note_on,0,0,0,,4,,,76,127
7538,note_off,104,0,0,,4,,,76,127
7538,note_off,0,0,0,,10,,,57,127
7545,note_on,7,0,0,,7,,,55,127
7545,note_on,0,0,0,,7,,,79,127
7545,note_on,0,0,0,,5,,,77,127
7656,note_off,111,0,0,,7,,,79,127
7656,note_on,0,0,0,,7,,,43,127
7767,note_off,111,0,0,,7,,,43,127
7767,note_on,0,0,0,,12,,,47,127
7878,note_off,111,0,0,,12,,,47,127
7878,note_on,0,0,0,,2,,,50,127
7989,note_off,111,0,0,,2,,,50,127
7989,note_off,0,0,0,,5,,,77,127
7989,note_off,0,0,0,,7,,,55,127
7989,note_on,0,0,0,,0,,,48,127
7989,note_on,0,0,0,,4,,,76,127
8155,note_off,166,0,0,,0,,,48,127
8197,note_off,42,0,0,,4,,,76,127
8211,note_on,14,0,0,,4,,,64,127
8211,note_on,0,0,0,,2,,,62,127
8317,note_off,106,0,0,,2,,,62,127
8317,note_off,0,0,0,,4,,,64,127
8322,note_on,5,0,0,,6,,,66,127
8322,note_on,0,0,0,,0,,,60,127
8428,note_off,106,0,0,,0,,,60,127
8428,note_off,0,0,0,,6,,,66,127
8433,note_on,5,0,0,,8,,,68,127
8433,note_on,0,0,0,,12,,,59,127
8539,note_off,106,0,0,,12,,,59,127
8539,note_off,0,0,0,,8,,,68,127
8544,note_on,5,0,0,,10,,,69,127
8544,note_on,0,0,0,,10,,,57,127
8650,note_off,106,0,0,,10,,,57,127
8650,note_off,0,0,0,,10,,,69,127
8655,note_on,5,0,0,,12,,,71,127
8655,note_on,0,0,0,,8,,,56,127
8761,note_off,106,0,0,,8,,,56,127
8761,note_off,0,0,0,,12,,,71,127
8766,note_on,5,0,0,,0,,,72,127
8766,note_on,0,0,0,,6,,,54,127
8872,note_off,106,0,0,,6,,,54,127
8872,note_off,0,0,0,,0,,,72,127
8877,note_on,5,0,0,,4,,,76,127
8877,note_on,0,0,0,,2,,,74,127
8877,note_on,0,0,0,,4,,,52,127
8988,note_off,111,0,0,,4,,,76,127
8988,note_on,0,0,0,,4,,,40,127
9099,note_off,111,0,0,,4,,,40,127
9099,note_on,0,0,0,,8,,,44,127
9210,note_off,111,0,0,,8,,,44,127
9210,note_on,0,0,0,,12,,,47,127
9321,note_off,111,0,0,,12,,,47,127
9321,note_off,0,0,0,,4,,,52,127
9321,note_off,0,0,0,,2,,,74,127
9321,note_on,0,0,0,,0,,,72,127
9321,note_on,0,0,0,,10,,,45,127
9487,note_off,166,0,0,,10,,,45,127
9529,note_off,42,0,0,,0,,,72,127
9543,note_on,14,0,0,,4,,,64,127
9543,note_on,0,0,0,,2,,,62,127
9649,note_off,106,0,0,,2,,,62,127
9649,note_off,0,0,0,,4,,,64,127
9654,note_on,5,0,0,,6,,,66,127
9654,note_on,0,0,0,,0,,,60,127
9760,note_off,106,0,0,,0,,,60,127
9760,note_off,0,0,0,,6,,,66,127
9765,note_on,5,0,0,,12,,,59,127
9765,note_on,0,0,0,,8,,,68,127
9871,note_off,106,0,0,,8,,,68,127
9871,note_off,0,0,0,,12,,,59,127
9876,note_on,5,0,0,,10,,,57,127
9876,note_on,0,0,0,,10,,,69,127
9982,note_off,106,0,0,,10,,,69,127
9982,note_off,0,0,0,,10,,,57,127
9987,note_on,5,0,0,,8,,,56,127
9987,note_on,0,0,0,,12,,,71,127
10093,note_off,106,0,0,,12,,,71,127
10093,note_off,0,0,0,,8,,,56,127
10098,note_on,5,0,0,,6,,,54,127
10098,note_on,0,0,0,,0,,,72,127
10204,note_off,106,0,0,,0,,,72,127
10204,note_off,0,0,0,,6,,,54,127
10209,note_on,5,0,0,,4,,,52,127
10209,note_on,0,0,0,,4,,,76,127
10209,note_on,0,0,0,,2,,,74,127
10320,note_off,111,0,0,,4,,,76,127
10320,note_on,0,0,0,,4,,,40,127
10431,note_off,111,0,0,,4,,,40,127
10431,note_on,0,0,0,,8,,,44,127
10542,note_off,111,0,0,,8,,,44,127
10542,note_on,0,0,0,,12,,,47,127
10653,note_off,111,0,0,,12,,,47,127
10653,note_off,0,0,0,,2,,,74,127
10653,note_off,0,0,0,,4,,,52,127
10653,note_on,0,0,0,,10,,,45,127
10653,note_on,0,0,0,,0,,,72,127
10861,note_off,208,0,0,,0,,,72,127
10873,note_off,12,0,0,,10,,,45,127
10903,note_on,30,0,0,,10,,,81,127
10903,note_on,0,0,0,,0,,,84,127
11014,note_off,111,0,0,,0,,,84,127
11014,note_on,0,0,0,,2,,,86,127
11125,note_off,111,0,0,,2,,,86,127
11125,note_off,0,0,0,,10,,,81,127
11125,note_on,0,0,0,,7,,,79,127
11125,note_on,0,0,0,,4,,,88,127
11236,note_off,111,0,0,,4,,,88,127
11236,note_on,0,0,0,,12,,,83,127
11347,note_off,111,0,0,,12,,,83,127
11347,note_off,0,0,0,,7,,,79,127
11347,note_on,0,0,0,,10,,,81,127
11347,note_on,0,0,0,,6,,,78,127
11458,note_off,111,0,0,,10,,,81,127
11458,note_on,0,0,0,,12,,,83,127
11569,note_off,111,0,0,,12,,,83,127
11569,note_off,0,0,0,,6,,,78,127
11569,note_on,0,0,0,,4,,,76,127
11569,note_on,0,0,0,,0,,,84,127
11680,note_off,111,0,0,,0,,,84,127
11680,note_on,0,0,0,,7,,,79,127
11791,note_off,111,0,0,,7,,,79,127
11791,note_off,0,0,0,,4,,,76,127
11791,note_on,0,0,0,,3,,,75,127
11791,note_on,0,0,0,,6,,,78,127
11902,note_off,111,0,0,,6,,,78,127
11902,note_on,0,0,0,,7,,,79,127
12013,note_off,111,0,0,,7,,,79,127
12013,note_off,0,0,0,,3,,,75,127
12013,note_on,0,0,0,,10,,,81,127
12013,note_on,0,0,0,,0,,,72,127
12124,note_off,111,0,0,,10,,,81,127
12124,note_on,0,0,0,,4,,,76,127
12235,note_off,111,0,0,,4,,,76,127
12235,note_off,0,0,0,,0,,,72,127
12235,note_on,0,0,0,,12,,,71,127
12235,note_on,0,0,0,,3,,,75,127
12346,note_off,111,0,0,,3,,,75,127
12346,note_on,0,0,0,,4,,,76,127
12457,note_off,111,0,0,,4,,,76,127
12457,note_off,0,0,0,,12,,,71,127
12457,note_on,0,0,0,,6,,,78,127
12457,note_on,0,0,0,,10,,,69,127
12568,note_off,111,0,0,,6,,,78,127
12568,note_on,0,0,0,,0,,,72,127
12679,note_off,111,0,0,,0,,,72,127
12679,note_off,0,0,0,,10,,,69,127
12679,note_on,0,0,0,,8,,,68,127
12679,note_on,0,0,0,,12,,,71,127
12790,note_off,111,0,0,,12,,,71,127
12790,note_on,0,0,0,,0,,,72,127
12901,note_off,111,0,0,,0,,,72,127
12901,note_off,0,0,0,,8,,,68,127
12901,note_on,0,0,0,,5,,,65,127
12901,note_on,0,0,0,,2,,,74,127
13012,note_off,111,0,0,,2,,,74,127
13012,note_on,0,0,0,,10,,,69,127
13123,note_off,111,0,0,,10,,,69,127
13123,note_off,0,0,0,,5,,,65,127
13123,note_on,0,0,0,,4,,,64,127
13123,note_on,0,0,0,,8,,,68,127
13234,note_off,111,0,0,,8,,,68,127
13234,note_on,0,0,0,,10,,,69,127
13345,note_off,111,0,0,,10,,,69,127
13345,note_off,0,0,0,,4,,,64,127
13345,note_on,0,0,0,,2,,,62,127
13345,note_on,0,0,0,,12,,,71,127
13456,note_off,111,0,0,,12,,,71,127
13456,note_on,0,0,0,,5,,,65,127
13567,note_off,111,0,0,,5,,,65,127
13567,note_off,0,0,0,,2,,,62,127
13567,note_on,0,0,0,,1,,,61,127
13567,note_on,0,0,0,,4,,,64,127
13678,note_off,111,0,0,,4,,,64,127
13678,note_on,0,0,0,,5,,,65,127
13789,note_off,111,0,0,,5,,,65,127
13789,note_off,0,0,0,,1,,,61,127
13789,note_on,0,0,0,,7,,,67,127
13789,note_on,0,0,0,,11,,,58,127
13900,note_off,111,0,0,,7,,,67,127
13900,note_on,0,0,0,,2,,,62,127
14011,note_off,111,0,0,,2,,,62,127
14011,note_off,0,0,0,,11,,,58,127
14016,note_on,5,0,0,,4,,,76,127
14016,note_on,0,0,0,,10,,,57,127
14127,note_off,111,0,0,,4,,,76,127
14127,note_on,0,0,0,,5,,,77,127
14238,note_off,111,0,0,,5,,,77,127
14238,note_off,0,0,0,,10,,,57,127
14238,note_on,0,0,0,,7,,,79,127
14238,note_on,0,0,0,,11,,,70,127
14349,note_off,111,0,0,,7,,,79,127
14349,note_on,0,0,0,,2,,,74,127
14460,note_off,111,0,0,,2,,,74,127
14460,note_off,0,0,0,,11,,,70,127
14460,note_on,0,0,0,,10,,,69,127
14460,note_on,0,0,0,,1,,,73,127
14571,note_off,111,0,0,,1,,,73,127
14571,note_on,0,0,0,,2,,,74,127
14682,note_off,111,0,0,,2,,,74,127
14682,note_off,0,0,0,,10,,,69,127
14682,note_on,0,0,0,,7,,,67,127
14682,note_on,0,0,0,,4,,,76,127
14793,note_off,111,0,0,,4,,,76,127
14793,note_on,0,0,0,,11,,,70,127
14904,note_off,111,0,0,,11,,,70,127
14904,note_off,0,0,0,,7,,,67,127
14904,note_on,0,0,0,,10,,,69,127
14904,note_on,0,0,0,,5,,,65,127
15015,note_off,111,0,0,,10,,,69,127
15015,note_on,0,0,0,,11,,,70,127
15126,note_off,111,0,0,,11,,,70,127
15126,note_off,0,0,0,,5,,,65,127
15126,note_on,0,0,0,,0,,,72,127
15126,note_on,0,0,0,,3,,,63,127
15237,note_off,111,0,0,,0,,,72,127
15237,note_on,0,0,0,,7,,,67,127
15348,note_off,111,0,0,,7,,,67,127
15348,note_off,0,0,0,,3,,,63,127
15348,note_on,0,0,0,,6,,,66,127
15348,note_on,0,0,0,,2,,,62,127
15459,note_off,111,0,0,,6,,,66,127
15459,note_on,0,0,0,,7,,,67,127
15570,note_off,111,0,0,,7,,,67,127
15570,note_off,0,0,0,,2,,,62,127
15570,note_on,0,0,0,,10,,,69,127
15570,note_on,0,0,0,,0,,,60,127
15681,note_off,111,0,0,,10,,,69,127
15681,note_on,0,0,0,,3,,,63,127
15792,note_off,111,0,0,,3,,,63,127
15792,note_off,0,0,0,,0,,,60,127
15792,note_on,0,0,0,,11,,,58,127
15792,note_on,0,0,0,,2,,,62,127
15903,note_on,111,0,0,,7,,,67,127
16014,note_off,111,0,0,,7,,,67,127
16014,note_off,0,0,0,,2,,,62,127
16014,note_off,0,0,0,,11,,,58,127
16014,note_on,0,0,0,,0,,,60,127
16014,note_on,0,0,0,,10,,,57,127
16127,note_on,113,0,0,,6,,,66,127
16235,note_off,108,0,0,,0,,,60,127
16237,note_off,2,0,0,,6,,,66,127
16237,note_off,0,0,0,,10,,,57,127
16244,note_on,7,0,0,,11,,,58,127
16244,note_on,0,0,0,,7,,,55,127
16355,note_off,111,0,0,,11,,,58,127
16355,note_on,0,0,0,,0,,,60,127
16466,note_off,111,0,0,,0,,,60,127
16466,note_off,0,0,0,,7,,,55,127
16466,note_on,0,0,0,,2,,,62,127
16466,note_on,0,0,0,,5,,,53,127
16577,note_off,111,0,0,,2,,,62,127
16577,note_on,0,0,0,,10,,,57,127
16688,note_off,111,0,0,,10,,,57,127
16688,note_off,0,0,0,,5,,,53,127
16688,note_on,0,0,0,,3,,,51,127
16688,note_on,0,0,0,,7,,,55,127
16799,note_on,111,0,0,,7,,,67,127
16910,note_off,111,0,0,,7,,,55,127
16910,note_off,0,0,0,,3,,,51,127
16910,note_on,0,0,0,,2,,,50,127
17021,note_off,111,0,0,,7,,,67,127
17030,note_on,9,0,0,,10,,,69,127
17141,note_off,111,0,0,,10,,,69,127
17141,note_on,0,0,0,,6,,,66,127
17252,note_off,111,0,0,,6,,,66,127
17252,note_on,0,0,0,,2,,,62,127
17363,note_off,111,0,0,,2,,,62,127
17363,note_on,0,0,0,,1,,,61,127
17474,note_on,111,0,0,,7,,,67,127
17529,note_off,55,0,0,,1,,,61,127
17575,note_off,46,0,0,,2,,,50,127
17584,note_on,9,0,0,,2,,,38,127
17695,note_off,111,0,0,,7,,,67,127
17704,note_on,9,0,0,,10,,,69,127
17815,note_off,111,0,0,,10,,,69,127
17815,note_on,0,0,0,,6,,,66,127
17926,note_off,111,0,0,,6,,,66,127
17926,note_on,0,0,0,,2,,,62,127
18037,note_off,111,0,0,,2,,,62,127
18037,note_on,0,0,0,,1,,,73,127
18148,note_on,111,0,0,,7,,,79,127
18176,note_off,28,0,0,,1,,,73,127
18251,note_off,75,0,0,,2,,,38,127
18268,note_on,17,0,0,,2,,,38,127
18480,note_off,212,0,0,,7,,,79,127
18489,note_on,9,0,0,,6,,,78,127
18600,note_off,111,0,0,,6,,,78,127
18600,note_on,0,0,0,,4,,,76,127
18711,note_off,111,0,0,,4,,,76,127
18711,note_on,0,0,0,,2,,,74,127
18877,note_off,166,0,0,,2,,,74,127
18877,note_off,0,0,0,,2,,,38,127
18969,note_on,92,0,0,,6,,,66,127
18969,note_on,0,0,0,,2,,,62,127
19080,note_off,111,0,0,,2,,,62,127
19080,note_off,0,0,0,,6,,,66,127
19080,note_on,0,0,0,,7,,,67,127
19080,note_on,0,0,0,,0,,,60,127
19191,note_off,111,0,0,,0,,,60,127
19191,note_off,0,0,0,,7,,,67,127
19191,note_on,0,0,0,,12,,,59,127
19191,note_on,0,0,0,,10,,,69,127
19302,note_off,111,0,0,,10,,,69,127
19302,note_off,0,0,0,,12,,,59,127
19302,note_on,0,0,0,,10,,,57,127
19302,note_on,0,0,0,,12,,,71,127
19413,note_off,111,0,0,,12,,,71,127
19413,note_off,0,0,0,,10,,,57,127
19413,note_on,0,0,0,,7,,,55,127
19413,note_on,0,0,0,,0,,,72,127
19524,note_off,111,0,0,,0,,,72,127
19524,note_off,0,0,0,,7,,,55,127
19524,note_on,0,0,0,,6,,,54,127
19524,note_on,0,0,0,,2,,,74,127
19635,note_off,111,0,0,,2,,,74,127
19635,note_off,0,0,0,,6,,,54,127
19635,note_on,0,0,0,,7,,,55,127
19635,note_on,0,0,0,,12,,,71,127
19746,note_off,111,0,0,,12,,,71,127
19746,note_off,0,0,0,,7,,,55,127
19746,note_on,0,0,0,,0,,,72,127
19746,note_on,0,0,0,,6,,,54,127
19857,note_off,111,0,0,,6,,,54,127
19857,note_off,0,0,0,,0,,,72,127
19857,note_on,0,0,0,,2,,,74,127
19857,note_on,0,0,0,,4,,,52,127
19968,note_off,111,0,0,,4,,,52,127
19968,note_off,0,0,0,,2,,,74,127
19968,note_on,0,0,0,,4,,,76,127
19968,note_on,0,0,0,,2,,,50,127
20079,note_off,111,0,0,,2,,,50,127
20079,note_off,0,0,0,,4,,,76,127
20079,note_on,0,0,0,,6,,,78,127
20079,note_on,0,0,0,,0,,,48,127
20190,note_off,111,0,0,,0,,,48,127
20190,note_off,0,0,0,,6,,,78,127
20190,note_on,0,0,0,,7,,,79,127
20190,note_on,0,0,0,,12,,,47,127
20273,note_off,83,0,0,,12,,,47,127
20300,note_off,27,0,0,,7,,,79,127
20310,note_on,10,0,0,,6,,,66,127
20310,note_on,0,0,0,,2,,,62,127
20421,note_off,111,0,0,,2,,,62,127
20421,note_off,0,0,0,,6,,,66,127
20421,note_on,0,0,0,,7,,,67,127
20421,note_on,0,0,0,,0,,,60,127
20532,note_off,111,0,0,,0,,,60,127
20532,note_off,0,0,0,,7,,,67,127
20532,note_on,0,0,0,,12,,,59,127
20532,note_on,0,0,0,,10,,,69,127
20643,note_off,111,0,0,,10,,,69,127
20643,note_off,0,0,0,,12,,,59,127
20643,note_on,0,0,0,,10,,,57,127
20643,note_on,0,0,0,,12,,,71,127
20754,note_off,111,0,0,,12,,,71,127
20754,note_off,0,0,0,,10,,,57,127
20754,note_on,0,0,0,,7,,,55,127
20754,note_on,0,0,0,,0,,,72,127
20865,note_off,111,0,0,,0,,,72,127
20865,note_off,0,0,0,,7,,,55,127
20865,note_on,0,0,0,,6,,,54,127
20865,note_on,0,0,0,,2,,,74,127
20976,note_off,111,0,0,,2,,,74,127
20976,note_off,0,0,0,,6,,,54,127
20976,note_on,0,0,0,,7,,,55,127
20976,note_on,0,0,0,,12,,,71,127
21087,note_off,111,0,0,,12,,,71,127
21087,note_off,0,0,0,,7,,,55,127
21087,note_on,0,0,0,,6,,,54,127
21087,note_on,0,0,0,,0,,,72,127
21198,note_off,111,0,0,,0,,,72,127
21198,note_off,0,0,0,,6,,,54,127
21198,note_on,0,0,0,,4,,,52,127
21198,note_on,0,0,0,,2,,,74,127
21309,note_off,111,0,0,,2,,,74,127
21309,note_off,0,0,0,,4,,,52,127
21309,note_on,0,0,0,,2,,,50,127
21309,note_on,0,0,0,,4,,,76,127
21420,note_off,111,0,0,,4,,,76,127
21420,note_off,0,0,0,,2,,,50,127
21420,note_on,0,0,0,,0,,,48,127
21420,note_on,0,0,0,,6,,,78,127
21531,note_off,111,0,0,,6,,,78,127
21531,note_off,0,0,0,,0,,,48,127
21531,note_on,0,0,0,,12,,,47,127
21531,note_on,0,0,0,,7,,,79,127
21638,note_off,107,0,0,,7,,,79,127
21641,note_off,3,0,0,,12,,,47,127
21647,note_on,6,0,0,,0,,,48,127
21647,note_on,0,0,0,,4,,,76,127
21758,note_off,111,0,0,,4,,,76,127
21758,note_off,0,0,0,,0,,,48,127
21758,note_on,0,0,0,,12,,,47,127
21758,note_on,0,0,0,,6,,,78,127
21869,note_off,111,0,0,,6,,,78,127
21869,note_off,0,0,0,,12,,,47,127
21869,note_on,0,0,0,,10,,,45,127
21869,note_on,0,0,0,,7,,,79,127
21980,note_off,111,0,0,,7,,,79,127
21980,note_off,0,0,0,,10,,,45,127
21980,note_on,0,0,0,,7,,,43,127
21980,note_on,0,0,0,,10,,,81,127
22091,note_off,111,0,0,,10,,,81,127
22091,note_off,0,0,0,,7,,,43,127
22091,note_on,0,0,0,,6,,,42,127
22091,note_on,0,0,0,,12,,,83,127
22202,note_off,111,0,0,,12,,,83,127
22202,note_off,0,0,0,,6,,,42,127
22202,note_on,0,0,0,,4,,,40,127
22202,note_on,0,0,0,,0,,,84,127
22313,note_off,111,0,0,,0,,,84,127
22313,note_off,0,0,0,,4,,,40,127
22313,note_on,0,0,0,,2,,,38,127
22313,note_on,0,0,0,,2,,,74,127
22424,note_on,111,0,0,,0,,,84,127
22535,note_off,111,0,0,,0,,,84,127
22535,note_on,0,0,0,,12,,,83,127
22646,note_off,111,0,0,,12,,,83,127
22646,note_on,0,0,0,,10,,,81,127
22756,note_off,110,0,0,,2,,,74,127
22757,note_off,1,0,0,,10,,,81,127
22757,note_off,0,0,0,,2,,,38,127
22757,note_on,0,0,0,,12,,,83,127
22757,note_on,0,0,0,,7,,,43,127
22868,note_on,111,0,0,,7,,,79,127
22979,note_off,111,0,0,,7,,,79,127
22979,note_off,0,0,0,,7,,,43,127
22979,note_on,0,0,0,,4,,,76,127
22979,note_on,0,0,0,,0,,,72,127
22979,note_on,0,0,0,,0,,,48,127
23034,note_off,55,0,0,,12,,,83,127
23089,note_on,55,0,0,,10,,,81,127
23144,note_off,55,0,0,,0,,,72,127
23144,note_off,0,0,0,,4,,,76,127
23199,note_off,55,0,0,,0,,,48,127
23199,note_on,0,0,0,,2,,,50,127
23199,note_on,0,0,0,,2,,,74,127
23199,note_on,0,0,0,,12,,,71,127
23254,note_off,55,0,0,,10,,,81,127
23309,note_on,55,0,0,,7,,,79,127
23364,note_off,55,0,0,,12,,,71,127
23364,note_off,0,0,0,,2,,,74,127
23419,note_off,55,0,0,,2,,,50,127
23419,note_on,0,0,0,,0,,,72,127
23419,note_on,0,0,0,,2,,,38,127
23419,note_on,0,0,0,,10,,,69,127
23474,note_off,55,0,0,,7,,,79,127
23529,note_on,55,0,0,,6,,,78,127
23584,note_off,55,0,0,,10,,,69,127
23584,note_off,0,0,0,,0,,,72,127
23639,note_off,55,0,0,,6,,,78,127
23639,note_off,0,0,0,,2,,,38,127
23639,note_on,0,0,0,,7,,,43,127
23639,note_on,0,0,0,,7,,,79,127
23750,note_on,111,0,0,,2,,,74,127
23861,note_off,111,0,0,,2,,,74,127
23861,note_off,0,0,0,,7,,,79,127
23861,note_on,0,0,0,,12,,,71,127
23972,note_off,111,0,0,,12,,,71,127
23972,note_on,0,0,0,,2,,,74,127
24083,note_off,111,0,0,,2,,,74,127
24083,note_on,0,0,0,,7,,,67,127
24194,note_off,111,0,0,,7,,,67,127
24194,note_on,0,0,0,,4,,,76,127
24200,note_off,6,0,0,,7,,,43,127
24280,note_off,80,0,0,,4,,,76,127
24315,note_on,35,0,0,,2,,,62,127
24315,note_on,0,0,0,,6,,,66,127
24426,note_off,111,0,0,,6,,,66,127
24426,note_off,0,0,0,,2,,,62,127
24426,note_on,0,0,0,,0,,,60,127
24426,note_on,0,0,0,,7,,,67,127
24537,note_off,111,0,0,,7,,,67,127
24537,note_off,0,0,0,,0,,,60,127
24537,note_on,0,0,0,,10,,,69,127
24537,note_on,0,0,0,,12,,,59,127
24648,note_off,111,0,0,,12,,,59,127
24648,note_off,0,0,0,,10,,,69,127
24648,note_on,0,0,0,,12,,,71,127
24648,note_on,0,0,0,,10,,,57,127
24759,note_off,111,0,0,,10,,,57,127
24759,note_off,0,0,0,,12,,,71,127
24759,note_on,0,0,0,,0,,,72,127
24759,note_on,0,0,0,,7,,,55,127
24870,note_off,111,0,0,,7,,,55,127
24870,note_off,0,0,0,,0,,,72,127
24870,note_on,0,0,0,,2,,,74,127
24870,note_on,0,0,0,,6,,,54,127
24981,note_off,111,0,0,,6,,,54,127
24981,note_off,0,0,0,,2,,,74,127
24981,note_on,0,0,0,,12,,,71,127
24981,note_on,0,0,0,,7,,,55,127
25092,note_off,111,0,0,,7,,,55,127
25092,note_off,0,0,0,,12,,,71,127
25092,note_on,0,0,0,,0,,,72,127
25092,note_on,0,0,0,,6,,,54,127
25203,note_off,111,0,0,,6,,,54,127
25203,note_off,0,0,0,,0,,,72,127
25203,note_on,0,0,0,,2,,,74,127
25203,note_on,0,0,0,,4,,,52,127
25314,note_off,111,0,0,,4,,,52,127
25314,note_off,0,0,0,,2,,,74,127
25314,note_on,0,0,0,,4,,,76,127
25314,note_on,0,0,0,,2,,,50,127
25425,note_off,111,0,0,,2,,,50,127
25425,note_off,0,0,0,,4,,,76,127
25425,note_on,0,0,0,,6,,,78,127
25425,note_on,0,0,0,,0,,,48,127
25536,note_off,111,0,0,,0,,,48,127
25536,note_off,0,0,0,,6,,,78,127
25536,note_on,0,0,0,,7,,,79,127
25536,note_on,0,0,0,,12,,,47,127
25619,note_off,83,0,0,,12,,,47,127
25646,note_off,27,0,0,,7,,,79,127
25656,note_on,10,0,0,,2,,,62,127
25656,note_on,0,0,0,,6,,,66,127
25767,note_off,111,0,0,,6,,,66,127
25767,note_off,0,0,0,,2,,,62,127
25767,note_on,0,0,0,,0,,,60,127
25767,note_on,0,0,0,,7,,,67,127
25878,note_off,111,0,0,,7,,,67,127
25878,note_off,0,0,0,,0,,,60,127
25878,note_on,0,0,0,,10,,,69,127
25878,note_on,0,0,0,,12,,,59,127
25989,note_off,111,0,0,,12,,,59,127
25989,note_off,0,0,0,,10,,,69,127
25989,note_on,0,0,0,,12,,,71,127
25989,note_on,0,0,0,,10,,,57,127
26100,note_off,111,0,0,,10,,,57,127
26100,note_off,0,0,0,,12,,,71,127
26100,note_on,0,0,0,,0,,,72,127
26100,note_on,0,0,0,,7,,,55,127
26211,note_off,111,0,0,,7,,,55,127
26211,note_off,0,0,0,,0,,,72,127
26211,note_on,0,0,0,,2,,,74,127
26211,note_on,0,0,0,,6,,,54,127
26322,note_off,111,0,0,,6,,,54,127
26322,note_off,0,0,0,,2,,,74,127
26322,note_on,0,0,0,,12,,,71,127
26322,note_on,0,0,0,,7,,,55,127
26433,note_off,111,0,0,,7,,,55,127
26433,note_off,0,0,0,,12,,,71,127
26433,note_on,0,0,0,,0,,,72,127
26433,note_on,0,0,0,,6,,,54,127
26544,note_off,111,0,0,,6,,,54,127
26544,note_off,0,0,0,,0,,,72,127
26544,note_on,0,0,0,,2,,,74,127
26544,note_on,0,0,0,,4,,,52,127
26655,note_off,111,0,0,,4,,,52,127
26655,note_off,0,0,0,,2,,,74,127
26655,note_on,0,0,0,,4,,,76,127
26655,note_on,0,0,0,,2,,,50,127
26766,note_off,111,0,0,,2,,,50,127
26766,note_off,0,0,0,,4,,,76,127
26766,note_on,0,0,0,,6,,,78,127
26766,note_on,0,0,0,,0,,,48,127
26877,note_off,111,0,0,,0,,,48,127
26877,note_off,0,0,0,,6,,,78,127
26877,note_on,0,0,0,,7,,,79,127
26877,note_on,0,0,0,,12,,,47,127
26988,note_off,111,0,0,,12,,,47,127
26988,note_off,0,0,0,,7,,,79,127
26988,note_on,0,0,0,,4,,,76,127
26988,note_on,0,0,0,,0,,,48,127
27099,note_off,111,0,0,,0,,,48,127
27099,note_off,0,0,0,,4,,,76,127
27099,note_on,0,0,0,,6,,,78,127
27099,note_on,0,0,0,,12,,,47,127
27210,note_off,111,0,0,,12,,,47,127
27210,note_off,0,0,0,,6,,,78,127
27210,note_on,0,0,0,,7,,,79,127
27210,note_on,0,0,0,,10,,,45,127
27321,note_off,111,0,0,,10,,,45,127
27321,note_off,0,0,0,,7,,,79,127
27321,note_on,0,0,0,,10,,,81,127
27321,note_on,0,0,0,,7,,,43,127
27432,note_off,111,0,0,,7,,,43,127
27432,note_off,0,0,0,,10,,,81,127
27432,note_on,0,0,0,,12,,,83,127
27432,note_on,0,0,0,,6,,,42,127
27543,note_off,111,0,0,,6,,,42,127
27543,note_off,0,0,0,,12,,,83,127
27543,note_on,0,0,0,,0,,,84,127
27543,note_on,0,0,0,,4,,,40,127
27654,note_off,111,0,0,,4,,,40,127
27654,note_off,0,0,0,,0,,,84,127
27654,note_on,0,0,0,,2,,,74,127
27654,note_on,0,0,0,,2,,,38,127
27765,note_on,111,0,0,,0,,,84,127
27876,note_off,111,0,0,,0,,,84,127
27876,note_on,0,0,0,,12,,,83,127
27987,note_off,111,0,0,,12,,,83,127
27987,note_on,0,0,0,,10,,,81,127
28098,note_off,111,0,0,,10,,,81,127
28098,note_off,0,0,0,,2,,,38,127
28098,note_on,0,0,0,,12,,,83,127
28098,note_on,0,0,0,,7,,,43,127
28209,note_on,111,0,0,,7,,,79,127
28319,note_off,110,0,0,,2,,,74,127
28320,note_off,1,0,0,,7,,,79,127
28320,note_off,0,0,0,,7,,,43,127
28320,note_on,0,0,0,,0,,,72,127
28320,note_on,0,0,0,,4,,,76,127
28320,note_on,0,0,0,,0,,,48,127
28375,note_off,55,0,0,,12,,,83,127
28430,note_on,55,0,0,,10,,,81,127
28485,note_off,55,0,0,,4,,,76,127
28485,note_off,0,0,0,,0,,,72,127
28540,note_off,55,0,0,,0,,,48,127
28540,note_on,0,0,0,,12,,,71,127
28540,note_on,0,0,0,,2,,,74,127
28540,note_on,0,0,0,,2,,,50,127
28595,note_off,55,0,0,,10,,,81,127
28650,note_on,55,0,0,,7,,,79,127
28705,note_off,55,0,0,,2,,,74,127
28705,note_off,0,0,0,,12,,,71,127
28760,note_off,55,0,0,,2,,,50,127
28760,note_on,0,0,0,,10,,,69,127
28760,note_on,0,0,0,,0,,,72,127
28760,note_on,0,0,0,,2,,,38,127
28815,note_off,55,0,0,,7,,,79,127
28870,note_on,55,0,0,,6,,,78,127
28925,note_off,55,0,0,,0,,,72,127
28925,note_off,0,0,0,,10,,,69,127
28980,note_off,55,0,0,,6,,,78,127
28980,note_off,0,0,0,,2,,,38,127
28980,note_on,0,0,0,,7,,,79,127
28980,note_on,0,0,0,,7,,,43,127
28980,note_on,0,0,0,,12,,,71,127
29091,note_off,111,0,0,,7,,,43,127
29100,note_on,9,0,0,,6,,,66,127
29202,note_off,102,0,0,,12,,,71,127
29202,note_off,0,0,0,,7,,,79,127
29211,note_off,9,0,0,,6,,,66,127
29211,note_on,0,0,0,,7,,,67,127
29322,note_off,111,0,0,,7,,,67,127
29322,note_on,0,0,0,,2,,,62,127
29433,note_off,111,0,0,,2,,,62,127
29433,note_on,0,0,0,,4,,,64,127
29544,note_off,111,0,0,,4,,,64,127
29544,note_on,0,0,0,,12,,,59,127
29655,note_off,111,0,0,,12,,,59,127
29655,note_on,0,0,0,,0,,,60,127
29766,note_off,111,0,0,,0,,,60,127
29766,note_on,0,0,0,,4,,,64,127
29877,note_off,111,0,0,,4,,,64,127
29877,note_on,0,0,0,,10,,,81,127
29877,note_on,0,0,0,,7,,,79,127
29877,note_on,0,0,0,,2,,,62,127
29988,note_off,111,0,0,,2,,,62,127
29988,note_on,0,0,0,,0,,,60,127
30099,note_off,111,0,0,,0,,,60,127
30099,note_off,0,0,0,,7,,,79,127
30099,note_off,0,0,0,,10,,,81,127
30099,note_on,0,0,0,,12,,,59,127
30099,note_on,0,0,0,,6,,,78,127
30099,note_on,0,0,0,,0,,,84,127
30210,note_off,111,0,0,,12,,,59,127
30210,note_on,0,0,0,,10,,,57,127
30321,note_off,111,0,0,,10,,,57,127
30321,note_off,0,0,0,,0,,,84,127
30321,note_off,0,0,0,,6,,,78,127
30321,note_on,0,0,0,,7,,,55,127
30321,note_on,0,0,0,,12,,,83,127
30321,note_on,0,0,0,,7,,,79,127
30432,note_off,111,0,0,,7,,,55,127
30441,note_on,9,0,0,,6,,,66,127
30552,note_off,111,0,0,,6,,,66,127
30552,note_on,0,0,0,,7,,,67,127
30663,note_off,111,0,0,,7,,,67,127
30663,note_on,0,0,0,,2,,,62,127
30760,note_off,97,0,0,,7,,,79,127
30760,note_off,0,0,0,,12,,,83,127
30774,note_off,14,0,0,,2,,,62,127
30774,note_on,0,0,0,,4,,,64,127
30885,note_off,111,0,0,,4,,,64,127
30885,note_on,0,0,0,,12,,,59,127
30996,note_off,111,0,0,,12,,,59,127
30996,note_on,0,0,0,,0,,,60,127
31107,note_off,111,0,0,,0,,,60,127
31107,note_on,0,0,0,,4,,,64,127
31218,note_off,111,0,0,,4,,,64,127
31218,note_on,0,0,0,,7,,,79,127
31218,note_on,0,0,0,,10,,,81,127
31218,note_on,0,0,0,,2,,,62,127
31329,note_off,111,0,0,,2,,,62,127
31329,note_on,0,0,0,,0,,,60,127
31440,note_off,111,0,0,,0,,,60,127
31440,note_off,0,0,0,,10,,,81,127
31440,note_off,0,0,0,,7,,,79,127
31440,note_on,0,0,0,,12,,,59,127
31440,note_on,0,0,0,,0,,,84,127
31440,note_on,0,0,0,,6,,,78,127
31551,note_off,111,0,0,,12,,,59,127
31551,note_on,0,0,0,,10,,,57,127
31662,note_off,111,0,0,,10,,,57,127
31662,note_off,0,0,0,,6,,,78,127
31662,note_off,0,0,0,,0,,,84,127
31662,note_on,0,0,0,,7,,,55,127
31662,note_on,0,0,0,,12,,,83,127
31662,note_on,0,0,0,,7,,,79,127
31773,note_off,111,0,0,,7,,,55,127
31782,note_on,9,0,0,,6,,,66,127
31893,note_off,111,0,0,,6,,,66,127
31893,note_on,0,0,0,,7,,,67,127
32004,note_off,111,0,0,,7,,,67,127
32004,note_on,0,0,0,,2,,,62,127
32101,note_off,97,0,0,,7,,,79,127
32101,note_off,0,0,0,,12,,,83,127
32115,note_off,14,0,0,,2,,,62,127
32115,note_on,0,0,0,,4,,,64,127
32226,note_off,111,0,0,,4,,,64,127
32226,note_on,0,0,0,,12,,,59,127
32337,note_off,111,0,0,,12,,,59,127
32337,note_on,0,0,0,,0,,,60,127
32448,note_off,111,0,0,,0,,,60,127
32448,note_on,0,0,0,,4,,,64,127
32559,note_off,111,0,0,,4,,,64,127
32559,note_on,0,0,0,,2,,,62,127
32559,note_on,0,0,0,,10,,,81,127
32559,note_on,0,0,0,,7,,,79,127
32670,note_off,111,0,0,,2,,,62,127
32670,note_on,0,0,0,,0,,,60,127
32781,note_off,111,0,0,,0,,,60,127
32781,note_off,0,0,0,,7,,,79,127
32781,note_off,0,0,0,,10,,,81,127
32781,note_on,0,0,0,,12,,,59,127
32781,note_on,0,0,0,,6,,,78,127
32781,note_on,0,0,0,,0,,,84,127
32887,note_off,106,0,0,,12,,,59,127
32892,note_on,5,0,0,,10,,,57,127
33003,note_off,111,0,0,,10,,,57,127
33003,note_off,0,0,0,,0,,,84,127
33003,note_off,0,0,0,,6,,,78,127
33012,note_on,9,0,0,,7,,,55,127
33012,note_on,0,0,0,,12,,,83,127
33123,note_on,111,0,0,,6,,,78,127
33178,note_off,55,0,0,,12,,,83,127
33233,note_off,55,0,0,,6,,,78,127
33233,note_off,0,0,0,,7,,,55,127
33233,note_on,0,0,0,,12,,,59,127
33233,note_on,0,0,0,,7,,,79,127
33344,note_on,111,0,0,,2,,,74,127
33372,note_off,28,0,0,,7,,,79,127
33455,note_off,83,0,0,,2,,,74,127
33455,note_off,0,0,0,,12,,,59,127
33455,note_on,0,0,0,,4,,,76,127
33455,note_on,0,0,0,,0,,,60,127
33566,note_on,111,0,0,,12,,,71,127
33594,note_off,28,0,0,,4,,,76,127
33677,note_off,83,0,0,,12,,,71,127
33677,note_off,0,0,0,,0,,,60,127
33677,note_on,0,0,0,,0,,,48,127
33677,note_on,0,0,0,,0,,,72,127
33788,note_off,111,0,0,,0,,,72,127
33788,note_on,0,0,0,,4,,,76,127
33899,note_off,111,0,0,,4,,,76,127
33899,note_off,0,0,0,,0,,,48,127
33899,note_on,0,0,0,,2,,,50,127
33899,note_on,0,0,0,,2,,,74,127
34010,note_off,111,0,0,,2,,,74,127
34010,note_on,0,0,0,,0,,,72,127
34121,note_off,111,0,0,,0,,,72,127
34121,note_on,0,0,0,,2,,,38,127
34121,note_on,0,0,0,,12,,,71,127
34232,note_off,111,0,0,,12,,,71,127
34232,note_on,0,0,0,,10,,,69,127
34343,note_off,111,0,0,,10,,,69,127
34343,note_off,0,0,0,,2,,,38,127
34343,note_off,0,0,0,,2,,,50,127
34343,note_on,0,0,0,,7,,,43,127
34343,note_on,0,0,0,,7,,,67,127
34454,note_off,111,0,0,,7,,,67,127
34454,note_on,0,0,0,,6,,,66,127
34565,note_off,111,0,0,,6,,,66,127
34565,note_off,0,0,0,,7,,,43,127
34565,note_on,0,0,0,,12,,,47,127
34565,note_on,0,0,0,,7,,,67,127
34676,note_off,111,0,0,,7,,,67,127
34676,note_on,0,0,0,,2,,,62,127
34787,note_off,111,0,0,,2,,,62,127
34787,note_off,0,0,0,,12,,,47,127
34787,note_on,0,0,0,,4,,,64,127
34787,note_on,0,0,0,,0,,,48,127
34898,note_off,111,0,0,,4,,,64,127
34898,note_on,0,0,0,,12,,,59,127
35009,note_off,111,0,0,,12,,,59,127
35009,note_off,0,0,0,,0,,,48,127
35009,note_on,0,0,0,,0,,,36,127
35009,note_on,0,0,0,,0,,,60,127
35120,note_off,111,0,0,,0,,,60,127
35120,note_on,0,0,0,,4,,,64,127
35231,note_off,111,0,0,,4,,,64,127
35231,note_off,0,0,0,,0,,,36,127
35231,note_on,0,0,0,,2,,,38,127
35231,note_on,0,0,0,,2,,,62,127
35342,note_off,111,0,0,,2,,,62,127
35342,note_on,0,0,0,,0,,,60,127
35453,note_off,111,0,0,,0,,,60,127
35453,note_on,0,0,0,,12,,,59,127
35564,note_off,111,0,0,,12,,,59,127
35564,note_on,0,0,0,,10,,,57,127
35675,note_off,111,0,0,,10,,,57,127
35677,note_off,2,0,0,,2,,,38,127
35684,note_on,7,0,0,,7,,,55,127
35684,note_on,0,0,0,,7,,,31,127
36466,note_off,782,0,0,,7,,,55,127
36478,note_on,12,0,0,,7,,,55,127
36538,note_off,60,0,0,,7,,,31,127
36589,note_on,51,0,0,,2,,,62,127
36700,note_off,111,0,0,,7,,,55,127
36700,note_on,0,0,0,,11,,,58,127
36700,note_on,0,0,0,,2,,,74,127
36811,note_off,111,0,0,,2,,,62,127
36811,note_on,0,0,0,,2,,,62,127
36922,note_off,111,0,0,,2,,,74,127
36922,note_off,0,0,0,,11,,,58,127
36922,note_on,0,0,0,,2,,,74,127
36922,note_on,0,0,0,,7,,,55,127
37033,note_off,111,0,0,,2,,,62,127
37033,note_on,0,0,0,,2,,,62,127
37144,note_off,111,0,0,,7,,,55,127
37144,note_off,0,0,0,,2,,,74,127
37144,note_on,0,0,0,,2,,,74,127
37144,note_on,0,0,0,,6,,,54,127
37255,note_off,111,0,0,,2,,,62,127
37255,note_on,0,0,0,,2,,,62,127
37366,note_off,111,0,0,,6,,,54,127
37366,note_on,0,0,0,,0,,,72,127
37366,note_on,0,0,0,,10,,,57,127
37477,note_off,111,0,0,,2,,,62,127
37477,note_on,0,0,0,,2,,,62,127
37588,note_off,111,0,0,,10,,,57,127
37588,note_off,0,0,0,,0,,,72,127
37588,note_off,0,0,0,,2,,,74,127
37588,note_on,0,0,0,,0,,,72,127
37588,note_on,0,0,0,,2,,,74,127
37588,note_on,0,0,0,,6,,,54,127
37699,note_off,111,0,0,,2,,,62,127
37699,note_on,0,0,0,,2,,,62,127
37810,note_off,111,0,0,,6,,,54,127
37810,note_off,0,0,0,,2,,,74,127
37810,note_off,0,0,0,,0,,,72,127
37810,note_on,0,0,0,,0,,,72,127
37810,note_on,0,0,0,,2,,,74,127
37810,note_on,0,0,0,,7,,,55,127
37921,note_off,111,0,0,,2,,,62,127
37921,note_on,0,0,0,,2,,,62,127
38032,note_off,111,0,0,,7,,,55,127
38032,note_off,0,0,0,,0,,,72,127
38032,note_on,0,0,0,,11,,,70,127
38032,note_on,0,0,0,,11,,,58,127
38143,note_off,111,0,0,,2,,,62,127
38143,note_on,0,0,0,,2,,,62,127
38254,note_off,111,0,0,,11,,,58,127
38254,note_off,0,0,0,,11,,,70,127
38254,note_off,0,0,0,,2,,,74,127
38254,note_on,0,0,0,,11,,,70,127
38254,note_on,0,0,0,,2,,,74,127
38254,note_on,0,0,0,,7,,,55,127
38365,note_off,111,0,0,,2,,,62,127
38365,note_on,0,0,0,,2,,,62,127
38476,note_off,111,0,0,,7,,,55,127
38476,note_off,0,0,0,,2,,,74,127
38476,note_off,0,0,0,,11,,,70,127
38476,note_on,0,0,0,,2,,,74,127
38476,note_on,0,0,0,,11,,,70,127
38476,note_on,0,0,0,,2,,,50,127
38587,note_off,111,0,0,,2,,,62,127
38587,note_on,0,0,0,,2,,,62,127
38698,note_off,111,0,0,,2,,,50,127
38698,note_off,0,0,0,,11,,,70,127
38698,note_on,0,0,0,,10,,,57,127
38698,note_on,0,0,0,,10,,,69,127
38809,note_off,111,0,0,,2,,,62,127
38809,note_on,0,0,0,,2,,,62,127
38920,note_off,111,0,0,,10,,,69,127
38920,note_off,0,0,0,,10,,,57,127
38920,note_off,0,0,0,,2,,,74,127
38920,note_on,0,0,0,,10,,,69,127
38920,note_on,0,0,0,,2,,,74,127
38920,note_on,0,0,0,,2,,,50,127
39031,note_off,111,0,0,,2,,,62,127
39031,note_on,0,0,0,,2,,,62,127
39142,note_off,111,0,0,,2,,,62,127
39142,note_off,0,0,0,,2,,,50,127
39142,note_off,0,0,0,,2,,,74,127
39142,note_off,0,0,0,,10,,,69,127
39142,note_on,0,0,0,,2,,,74,127
39142,note_on,0,0,0,,10,,,69,127
39142,note_on,0,0,0,,3,,,51,127
39253,note_on,111,0,0,,7,,,55,127
39364,note_off,111,0,0,,7,,,55,127
39364,note_off,0,0,0,,3,,,51,127
39364,note_off,0,0,0,,10,,,69,127
39364,note_off,0,0,0,,2,,,74,127
39364,note_on,0,0,0,,7,,,67,127
39364,note_on,0,0,0,,0,,,72,127
39364,note_on,0,0,0,,0,,,60,127
39475,note_on,111,0,0,,7,,,55,127
39586,note_off,111,0,0,,7,,,55,127
39586,note_off,0,0,0,,0,,,60,127
39586,note_off,0,0,0,,0,,,72,127
39586,note_off,0,0,0,,7,,,67,127
39586,note_on,0,0,0,,7,,,67,127
39586,note_on,0,0,0,,0,,,72,127
39586,note_on,0,0,0,,3,,,51,127
39697,note_on,111,0,0,,0,,,60,127
39808,note_off,111,0,0,,3,,,51,127
39808,note_off,0,0,0,,0,,,72,127
39808,note_off,0,0,0,,7,,,67,127
39808,note_on,0,0,0,,7,,,67,127
39808,note_on,0,0,0,,11,,,70,127
39808,note_on,0,0,0,,2,,,50,127
39919,note_off,111,0,0,,0,,,60,127
39919,note_on,0,0,0,,2,,,62,127
40030,note_off,111,0,0,,2,,,50,127
40030,note_off,0,0,0,,11,,,70,127
40030,note_on,0,0,0,,10,,,69,127
40030,note_on,0,0,0,,10,,,57,127
40141,note_off,111,0,0,,2,,,62,127
40141,note_on,0,0,0,,2,,,62,127
40252,note_off,111,0,0,,10,,,69,127
40252,note_off,0,0,0,,7,,,67,127
40252,note_on,0,0,0,,6,,,66,127
40252,note_on,0,0,0,,10,,,69,127
40252,note_on,0,0,0,,2,,,50,127
40363,note_off,111,0,0,,2,,,62,127
40363,note_on,0,0,0,,2,,,62,127
40474,note_off,111,0,0,,10,,,69,127
40474,note_off,0,0,0,,6,,,66,127
40474,note_on,0,0,0,,7,,,67,127
40474,note_on,0,0,0,,11,,,70,127
40474,note_on,0,0,0,,7,,,55,127
40477,note_off,3,0,0,,10,,,57,127
40486,note_off,9,0,0,,2,,,50,127
40584,note_off,98,0,0,,2,,,62,127
40586,note_on,2,0,0,,2,,,62,127
40694,note_off,108,0,0,,7,,,55,127
40694,note_off,0,0,0,,11,,,70,127
40694,note_off,0,0,0,,7,,,67,127
40703,note_on,9,0,0,,11,,,58,127
40703,note_on,0,0,0,,2,,,74,127
40807,note_off,104,0,0,,2,,,62,127
40814,note_on,7,0,0,,2,,,62,127
40925,note_off,111,0,0,,2,,,74,127
40925,note_off,0,0,0,,11,,,58,127
40925,note_on,0,0,0,,7,,,55,127
40925,note_on,0,0,0,,2,,,74,127
41036,note_off,111,0,0,,2,,,62,127
41036,note_on,0,0,0,,2,,,62,127
41147,note_off,111,0,0,,2,,,74,127
41147,note_off,0,0,0,,7,,,55,127
41147,note_on,0,0,0,,6,,,54,127
41147,note_on,0,0,0,,2,,,74,127
41258,note_off,111,0,0,,2,,,62,127
41258,note_on,0,0,0,,2,,,62,127
41369,note_off,111,0,0,,6,,,54,127
41369,note_on,0,0,0,,10,,,57,127
41369,note_on,0,0,0,,0,,,72,127
41480,note_off,111,0,0,,2,,,62,127
41480,note_on,0,0,0,,2,,,62,127
41591,note_off,111,0,0,,0,,,72,127
41591,note_off,0,0,0,,10,,,57,127
41591,note_off,0,0,0,,2,,,74,127
41591,note_on,0,0,0,,6,,,54,127
41591,note_on,0,0,0,,2,,,74,127
41591,note_on,0,0,0,,0,,,72,127
41702,note_off,111,0,0,,2,,,62,127
41702,note_on,0,0,0,,2,,,62,127
41813,note_off,111,0,0,,0,,,72,127
41813,note_off,0,0,0,,2,,,74,127
41813,note_off,0,0,0,,6,,,54,127
41813,note_on,0,0,0,,7,,,55,127
41813,note_on,0,0,0,,2,,,74,127
41813,note_on,0,0,0,,0,,,72,127
41924,note_off,111,0,0,,2,,,62,127
41924,note_on,0,0,0,,2,,,62,127
42035,note_off,111,0,0,,0,,,72,127
42035,note_off,0,0,0,,7,,,55,127
42035,note_on,0,0,0,,11,,,58,127
42035,note_on,0,0,0,,11,,,70,127
42146,note_off,111,0,0,,2,,,62,127
42146,note_on,0,0,0,,2,,,62,127
42257,note_off,111,0,0,,11,,,70,127
42257,note_off,0,0,0,,11,,,58,127
42257,note_off,0,0,0,,2,,,74,127
42257,note_on,0,0,0,,7,,,55,127
42257,note_on,0,0,0,,2,,,74,127
42257,note_on,0,0,0,,11,,,70,127
42368,note_off,111,0,0,,2,,,62,127
42368,note_on,0,0,0,,2,,,62,127
42479,note_off,111,0,0,,11,,,70,127
42479,note_off,0,0,0,,2,,,74,127
42479,note_off,0,0,0,,7,,,55,127
42479,note_on,0,0,0,,11,,,70,127
42479,note_on,0,0,0,,2,,,74,127
42479,note_on,0,0,0,,2,,,50,127
42590,note_off,111,0,0,,2,,,62,127
42590,note_on,0,0,0,,2,,,62,127
42701,note_off,111,0,0,,2,,,50,127
42701,note_off,0,0,0,,2,,,74,127
42701,note_off,0,0,0,,11,,,70,127
42710,note_on,9,0,0,,8,,,68,127
42710,note_on,0,0,0,,5,,,77,127
42710,note_on,0,0,0,,11,,,58,127
42809,note_off,99,0,0,,2,,,62,127
42821,note_on,12,0,0,,2,,,62,127
42932,note_off,111,0,0,,11,,,58,127
42932,note_off,0,0,0,,5,,,77,127
42932,note_off,0,0,0,,8,,,68,127
42932,note_on,0,0,0,,8,,,68,127
42932,note_on,0,0,0,,5,,,77,127
42932,note_on,0,0,0,,2,,,50,127
43043,note_off,111,0,0,,2,,,62,127
43043,note_on,0,0,0,,2,,,62,127
43154,note_off,111,0,0,,2,,,62,127
43154,note_off,0,0,0,,2,,,50,127
43154,note_off,0,0,0,,5,,,77,127
43154,note_off,0,0,0,,8,,,68,127
43154,note_on,0,0,0,,8,,,68,127
43154,note_on,0,0,0,,5,,,77,127
43154,note_on,0,0,0,,3,,,51,127
43265,note_on,111,0,0,,3,,,63,127
43376,note_off,111,0,0,,3,,,51,127
43376,note_off,0,0,0,,5,,,77,127
43376,note_off,0,0,0,,8,,,68,127
43376,note_on,0,0,0,,7,,,67,127
43376,note_on,0,0,0,,3,,,75,127
43376,note_on,0,0,0,,7,,,55,127
43487,note_off,111,0,0,,3,,,63,127
43487,note_on,0,0,0,,3,,,63,127
43598,note_off,111,0,0,,7,,,55,127
43598,note_off,0,0,0,,3,,,75,127
43598,note_off,0,0,0,,7,,,67,127
43598,note_on,0,0,0,,3,,,75,127
43598,note_on,0,0,0,,7,,,67,127
43598,note_on,0,0,0,,3,,,51,127
43709,note_off,111,0,0,,3,,,63,127
43709,note_on,0,0,0,,3,,,63,127
43820,note_off,111,0,0,,3,,,63,127
43820,note_off,0,0,0,,3,,,51,127
43820,note_off,0,0,0,,7,,,67,127
43820,note_off,0,0,0,,3,,,75,127
43820,note_on,0,0,0,,3,,,75,127
43820,note_on,0,0,0,,7,,,67,127
43820,note_on,0,0,0,,11,,,46,127
43931,note_on,111,0,0,,11,,,58,127
44042,note_off,111,0,0,,11,,,58,127
44042,note_off,0,0,0,,11,,,46,127
44042,note_off,0,0,0,,7,,,67,127
44042,note_off,0,0,0,,3,,,75,127
44042,note_on,0,0,0,,5,,,65,127
44042,note_on,0,0,0,,2,,,74,127
44042,note_on,0,0,0,,5,,,53,127
44153,note_on,111,0,0,,11,,,58,127
44264,note_off,111,0,0,,11,,,58,127
44264,note_off,0,0,0,,5,,,53,127
44264,note_off,0,0,0,,2,,,74,127
44264,note_off,0,0,0,,5,,,65,127
44264,note_on,0,0,0,,5,,,65,127
44264,note_on,0,0,0,,2,,,74,127
44264,note_on,0,0,0,,11,,,46,127
44375,note_on,111,0,0,,11,,,58,127
44486,note_off,111,0,0,,11,,,46,127
44486,note_off,0,0,0,,2,,,74,127
44486,note_off,0,0,0,,5,,,65,127
44486,note_on,0,0,0,,2,,,74,127
44486,note_on,0,0,0,,5,,,65,127
44486,note_on,0,0,0,,0,,,48,127
44597,note_off,111,0,0,,11,,,58,127
44597,note_on,0,0,0,,0,,,60,127
44708,note_off,111,0,0,,0,,,48,127
44708,note_off,0,0,0,,5,,,65,127
44708,note_off,0,0,0,,2,,,74,127
44708,note_on,0,0,0,,3,,,63,127
44708,note_on,0,0,0,,0,,,72,127
44708,note_on,0,0,0,,7,,,55,127
44819,note_off,111,0,0,,0,,,60,127
44819,note_on,0,0,0,,0,,,60,127
44930,note_off,111,0,0,,7,,,55,127
44930,note_off,0,0,0,,0,,,72,127
44930,note_off,0,0,0,,3,,,63,127
44930,note_on,0,0,0,,0,,,72,127
44930,note_on,0,0,0,,3,,,63,127
44930,note_on,0,0,0,,0,,,48,127
45041,note_off,111,0,0,,0,,,60,127
45041,note_on,0,0,0,,0,,,60,127
45152,note_off,111,0,0,,0,,,60,127
45152,note_off,0,0,0,,0,,,48,127
45152,note_off,0,0,0,,3,,,63,127
45152,note_off,0,0,0,,0,,,72,127
45152,note_on,0,0,0,,3,,,63,127
45152,note_on,0,0,0,,0,,,72,127
45152,note_on,0,0,0,,7,,,43,127
45263,note_on,111,0,0,,7,,,55,127
45374,note_off,111,0,0,,7,,,43,127
45374,note_off,0,0,0,,0,,,72,127
45374,note_off,0,0,0,,3,,,63,127
45374,note_on,0,0,0,,2,,,62,127
45374,note_on,0,0,0,,12,,,71,127
45374,note_on,0,0,0,,2,,,50,127
45485,note_off,111,0,0,,7,,,55,127
45485,note_on,0,0,0,,7,,,55,127
45596,note_off,111,0,0,,2,,,50,127
45596,note_off,0,0,0,,12,,,71,127
45596,note_off,0,0,0,,2,,,62,127
45605,note_on,9,0,0,,7,,,67,127
45605,note_on,0,0,0,,2,,,62,127
45605,note_on,0,0,0,,7,,,43,127
45707,note_off,102,0,0,,7,,,55,127
45716,note_on,9,0,0,,7,,,55,127
45827,note_off,111,0,0,,7,,,43,127
45827,note_off,0,0,0,,2,,,62,127
45827,note_off,0,0,0,,7,,,67,127
45827,note_on,0,0,0,,2,,,62,127
45827,note_on,0,0,0,,7,,,67,127
45827,note_on,0,0,0,,8,,,44,127
45938,note_off,111,0,0,,7,,,55,127
45938,note_on,0,0,0,,8,,,56,127
46049,note_off,111,0,0,,8,,,44,127
46049,note_off,0,0,0,,7,,,67,127
46049,note_off,0,0,0,,2,,,62,127
46049,note_on,0,0,0,,0,,,60,127
46049,note_on,0,0,0,,5,,,65,127
46049,note_on,0,0,0,,0,,,48,127
46160,note_off,111,0,0,,8,,,56,127
46160,note_on,0,0,0,,8,,,56,127
46271,note_off,111,0,0,,0,,,48,127
46271,note_off,0,0,0,,5,,,65,127
46271,note_off,0,0,0,,0,,,60,127
46271,note_on,0,0,0,,0,,,60,127
46271,note_on,0,0,0,,2,,,62,127
46271,note_on,0,0,0,,8,,,44,127
46382,note_off,111,0,0,,8,,,56,127
46382,note_on,0,0,0,,8,,,56,127
46492,note_off,110,0,0,,8,,,56,127
46493,note_off,1,0,0,,8,,,44,127
46493,note_off,0,0,0,,2,,,62,127
46493,note_off,0,0,0,,0,,,60,127
46493,note_on,0,0,0,,0,,,60,127
46493,note_on,0,0,0,,3,,,63,127
46493,note_on,0,0,0,,7,,,43,127
46604,note_on,111,0,0,,7,,,55,127
46715,note_off,111,0,0,,7,,,43,127
46715,note_off,0,0,0,,3,,,63,127
46715,note_off,0,0,0,,0,,,60,127
46715,note_on,0,0,0,,12,,,59,127
46715,note_on,0,0,0,,2,,,62,127
46715,note_on,0,0,0,,2,,,50,127
46826,note_off,111,0,0,,7,,,55,127
46826,note_on,0,0,0,,7,,,55,127
46937,note_off,111,0,0,,2,,,50,127
46937,note_off,0,0,0,,2,,,62,127
46937,note_off,0,0,0,,12,,,59,127
46946,note_on,9,0,0,,7,,,67,127
46946,note_on,0,0,0,,12,,,59,127
46946,note_on,0,0,0,,7,,,43,127
47048,note_off,102,0,0,,7,,,55,127
47057,note_on,9,0,0,,7,,,55,127
47167,note_off,110,0,0,,7,,,55,127
47168,note_off,1,0,0,,7,,,43,127
47168,note_off,0,0,0,,12,,,59,127
47168,note_off,0,0,0,,7,,,67,127
47168,note_on,0,0,0,,0,,,60,127
47168,note_on,0,0,0,,7,,,67,127
47168,note_on,0,0,0,,8,,,44,127
47279,note_on,111,0,0,,5,,,53,127
47390,note_off,111,0,0,,8,,,44,127
47390,note_off,0,0,0,,7,,,67,127
47390,note_off,0,0,0,,0,,,60,127
47390,note_on,0,0,0,,0,,,60,127
47390,note_on,0,0,0,,5,,,65,127
47390,note_on,0,0,0,,0,,,48,127
47501,note_off,111,0,0,,5,,,53,127
47501,note_on,0,0,0,,5,,,53,127
47612,note_off,111,0,0,,0,,,48,127
47612,note_off,0,0,0,,5,,,65,127
47612,note_off,0,0,0,,0,,,60,127
47612,note_on,0,0,0,,2,,,62,127
47612,note_on,0,0,0,,0,,,72,127
47612,note_on,0,0,0,,8,,,44,127
47723,note_off,111,0,0,,5,,,53,127
47723,note_on,0,0,0,,5,,,53,127
47833,note_off,110,0,0,,5,,,53,127
47834,note_off,1,0,0,,8,,,44,127
47834,note_off,0,0,0,,0,,,72,127
47834,note_off,0,0,0,,2,,,62,127
47834,note_on,0,0,0,,3,,,63,127
47834,note_on,0,0,0,,7,,,43,127
47834,note_on,0,0,0,,0,,,72,127
47945,note_on,111,0,0,,7,,,55,127
48056,note_off,111,0,0,,0,,,72,127
48056,note_off,0,0,0,,7,,,43,127
48056,note_off,0,0,0,,3,,,63,127
48056,note_on,0,0,0,,7,,,67,127
48056,note_on,0,0,0,,12,,,71,127
48056,note_on,0,0,0,,2,,,50,127
48167,note_off,111,0,0,,12,,,71,127
48167,note_off,0,0,0,,7,,,55,127
48167,note_on,0,0,0,,0,,,72,127
48167,note_on,0,0,0,,7,,,55,127
48278,note_off,111,0,0,,0,,,72,127
48278,note_off,0,0,0,,2,,,50,127
48278,note_off,0,0,0,,7,,,67,127
48278,note_on,0,0,0,,5,,,65,127
48278,note_on,0,0,0,,2,,,74,127
48278,note_on,0,0,0,,7,,,43,127
48389,note_off,111,0,0,,7,,,55,127
48389,note_on,0,0,0,,7,,,55,127
48499,note_off,110,0,0,,7,,,55,127
48500,note_off,1,0,0,,7,,,43,127
48500,note_off,0,0,0,,5,,,65,127
48509,note_on,9,0,0,,3,,,63,127
48509,note_on,0,0,0,,8,,,44,127
48620,note_on,111,0,0,,5,,,53,127
48722,note_off,102,0,0,,2,,,74,127
48731,note_off,9,0,0,,8,,,44,127
48731,note_off,0,0,0,,3,,,63,127
48731,note_on,0,0,0,,0,,,72,127
48731,note_on,0,0,0,,3,,,63,127
48731,note_on,0,0,0,,0,,,48,127
48842,note_off,111,0,0,,5,,,53,127
48842,note_on,0,0,0,,5,,,53,127
48953,note_off,111,0,0,,0,,,48,127
48953,note_off,0,0,0,,3,,,63,127
48953,note_off,0,0,0,,0,,,72,127
48953,note_on,0,0,0,,5,,,65,127
48953,note_on,0,0,0,,0,,,72,127
48953,note_on,0,0,0,,8,,,44,127
49064,note_off,111,0,0,,5,,,53,127
49064,note_on,0,0,0,,5,,,53,127
49174,note_off,110,0,0,,5,,,53,127
49175,note_off,1,0,0,,8,,,44,127
49175,note_off,0,0,0,,5,,,65,127
49175,note_on,0,0,0,,3,,,63,127
49175,note_on,0,0,0,,7,,,43,127
49397,note_off,222,0,0,,3,,,63,127
49397,note_off,0,0,0,,0,,,72,127
49397,note_on,0,0,0,,12,,,71,127
49397,note_on,0,0,0,,2,,,62,127
49397,note_on,0,0,0,,7,,,55,127
49508,note_off,111,0,0,,12,,,71,127
49508,note_on,0,0,0,,0,,,72,127
49619,note_off,111,0,0,,0,,,72,127
49619,note_on,0,0,0,,2,,,74,127
49730,note_off,111,0,0,,7,,,43,127
49804,note_off,74,0,0,,2,,,74,127
49859,note_off,55,0,0,,7,,,55,127
49871,note_off,12,0,0,,2,,,62,127
49887,note_on,16,0,0,,0,,,60,127
49998,note_on,111,0,0,,7,,,67,127
50109,note_off,111,0,0,,7,,,67,127
50109,note_off,0,0,0,,0,,,60,127
50109,note_on,0,0,0,,3,,,63,127
50109,note_on,0,0,0,,7,,,79,127
50220,note_on,111,0,0,,7,,,67,127
50331,note_off,111,0,0,,7,,,67,127
50331,note_off,0,0,0,,7,,,79,127
50331,note_off,0,0,0,,3,,,63,127
50331,note_on,0,0,0,,7,,,79,127
50331,note_on,0,0,0,,0,,,60,127
50442,note_on,111,0,0,,7,,,67,127
50553,note_off,111,0,0,,0,,,60,127
50553,note_off,0,0,0,,7,,,79,127
50553,note_on,0,0,0,,7,,,79,127
50553,note_on,0,0,0,,12,,,59,127
50664,note_off,111,0,0,,7,,,67,127
50664,note_on,0,0,0,,7,,,67,127
50775,note_on,111,0,0,,5,,,77,127
50775,note_on,0,0,0,,2,,,62,127
50886,note_off,111,0,0,,7,,,67,127
50886,note_on,0,0,0,,7,,,67,127
50997,note_off,111,0,0,,2,,,62,127
50997,note_off,0,0,0,,5,,,77,127
50997,note_off,0,0,0,,12,,,59,127
50997,note_off,0,0,0,,7,,,79,127
50997,note_on,0,0,0,,5,,,77,127
50997,note_on,0,0,0,,7,,,79,127
50997,note_on,0,0,0,,12,,,59,127
51108,note_off,111,0,0,,7,,,67,127
51108,note_on,0,0,0,,7,,,67,127
51219,note_off,111,0,0,,12,,,59,127
51219,note_off,0,0,0,,7,,,79,127
51219,note_off,0,0,0,,5,,,77,127
51219,note_on,0,0,0,,7,,,79,127
51219,note_on,0,0,0,,5,,,77,127
51219,note_on,0,0,0,,0,,,60,127
51330,note_off,111,0,0,,7,,,67,127
51330,note_on,0,0,0,,7,,,67,127
51441,note_off,111,0,0,,5,,,77,127
51441,note_on,0,0,0,,3,,,75,127
51441,note_on,0,0,0,,3,,,63,127
51552,note_off,111,0,0,,7,,,67,127
51552,note_on,0,0,0,,7,,,67,127
51663,note_off,111,0,0,,3,,,63,127
51663,note_off,0,0,0,,3,,,75,127
51663,note_off,0,0,0,,0,,,60,127
51663,note_off,0,0,0,,7,,,79,127
51663,note_on,0,0,0,,3,,,75,127
51663,note_on,0,0,0,,7,,,79,127
51663,note_on,0,0,0,,0,,,60,127
51774,note_off,111,0,0,,7,,,67,127
51774,note_on,0,0,0,,7,,,67,127
51885,note_off,111,0,0,,0,,,60,127
51885,note_off,0,0,0,,7,,,79,127
51885,note_off,0,0,0,,3,,,75,127
51885,note_on,0,0,0,,3,,,75,127
51885,note_on,0,0,0,,7,,,79,127
51885,note_on,0,0,0,,7,,,55,127
51996,note_off,111,0,0,,7,,,67,127
51996,note_on,0,0,0,,7,,,67,127
52107,note_off,111,0,0,,3,,,75,127
52107,note_on,0,0,0,,2,,,74,127
52107,note_on,0,0,0,,2,,,62,127
52218,note_off,111,0,0,,7,,,67,127
52218,note_on,0,0,0,,7,,,67,127
52329,note_off,111,0,0,,2,,,62,127
52329,note_off,0,0,0,,2,,,74,127
52329,note_off,0,0,0,,7,,,55,127
52329,note_off,0,0,0,,7,,,79,127
52329,note_on,0,0,0,,2,,,74,127
52329,note_on,0,0,0,,7,,,79,127
52329,note_on,0,0,0,,7,,,55,127
52440,note_off,111,0,0,,7,,,67,127
52440,note_on,0,0,0,,7,,,67,127
52550,note_off,110,0,0,,7,,,67,127
52551,note_off,1,0,0,,7,,,55,127
52551,note_off,0,0,0,,7,,,79,127
52551,note_off,0,0,0,,2,,,74,127
52551,note_on,0,0,0,,2,,,74,127
52551,note_on,0,0,0,,7,,,79,127
52551,note_on,0,0,0,,8,,,56,127
52662,note_on,111,0,0,,5,,,65,127
52773,note_off,111,0,0,,7,,,79,127
52773,note_off,0,0,0,,2,,,74,127
52773,note_on,0,0,0,,0,,,72,127
52773,note_on,0,0,0,,5,,,77,127
52773,note_on,0,0,0,,0,,,60,127
52884,note_off,111,0,0,,5,,,65,127
52884,note_on,0,0,0,,5,,,65,127
52995,note_off,111,0,0,,0,,,60,127
52995,note_off,0,0,0,,5,,,77,127
52995,note_off,0,0,0,,0,,,72,127
52995,note_off,0,0,0,,8,,,56,127
52995,note_on,0,0,0,,0,,,72,127
52995,note_on,0,0,0,,5,,,77,127
52995,note_on,0,0,0,,8,,,56,127
53106,note_off,111,0,0,,5,,,65,127
53106,note_on,0,0,0,,5,,,65,127
53216,note_off,110,0,0,,5,,,65,127
53217,note_off,1,0,0,,8,,,56,127
53217,note_off,0,0,0,,5,,,77,127
53217,note_off,0,0,0,,0,,,72,127
53217,note_on,0,0,0,,3,,,75,127
53217,note_on,0,0,0,,0,,,72,127
53217,note_on,0,0,0,,7,,,55,127
53328,note_on,111,0,0,,7,,,67,127
53439,note_off,111,0,0,,3,,,75,127
53439,note_on,0,0,0,,2,,,74,127
53439,note_on,0,0,0,,2,,,62,127
53550,note_off,111,0,0,,7,,,67,127
53550,note_on,0,0,0,,7,,,67,127
53661,note_off,111,0,0,,2,,,62,127
53661,note_off,0,0,0,,2,,,74,127
53661,note_off,0,0,0,,7,,,55,127
53661,note_off,0,0,0,,0,,,72,127
53661,note_on,0,0,0,,12,,,71,127
53661,note_on,0,0,0,,2,,,74,127
53661,note_on,0,0,0,,7,,,55,127
53772,note_off,111,0,0,,7,,,67,127
53772,note_on,0,0,0,,7,,,67,127
53883,note_off,111,0,0,,7,,,55,127
53883,note_off,0,0,0,,2,,,74,127
53883,note_off,0,0,0,,12,,,71,127
53883,note_on,0,0,0,,0,,,72,127
53883,note_on,0,0,0,,3,,,75,127
53883,note_on,0,0,0,,0,,,60,127
53994,note_off,111,0,0,,7,,,67,127
53999,note_on,5,0,0,,7,,,67,127
54105,note_off,106,0,0,,3,,,75,127
54105,note_off,0,0,0,,0,,,72,127
54110,note_on,5,0,0,,3,,,63,127
54110,note_on,0,0,0,,7,,,79,127
54221,note_off,111,0,0,,7,,,67,127
54221,note_on,0,0,0,,7,,,67,127
54327,note_off,106,0,0,,0,,,60,127
54332,note_off,5,0,0,,7,,,79,127
54332,note_off,0,0,0,,3,,,63,127
54332,note_on,0,0,0,,0,,,60,127
54332,note_on,0,0,0,,7,,,79,127
54443,note_off,111,0,0,,7,,,67,127
54443,note_on,0,0,0,,7,,,67,127
54554,note_off,111,0,0,,7,,,79,127
54554,note_off,0,0,0,,0,,,60,127
54554,note_on,0,0,0,,12,,,59,127
54554,note_on,0,0,0,,7,,,79,127
54665,note_off,111,0,0,,7,,,67,127
54665,note_on,0,0,0,,7,,,67,127
54776,note_on,111,0,0,,5,,,77,127
54776,note_on,0,0,0,,2,,,62,127
54887,note_off,111,0,0,,7,,,67,127
54887,note_on,0,0,0,,7,,,67,127
54998,note_off,111,0,0,,2,,,62,127
54998,note_off,0,0,0,,5,,,77,127
54998,note_off,0,0,0,,7,,,79,127
54998,note_off,0,0,0,,12,,,59,127
54998,note_on,0,0,0,,7,,,79,127
54998,note_on,0,0,0,,5,,,77,127
54998,note_on,0,0,0,,12,,,59,127
55109,note_off,111,0,0,,7,,,67,127
55109,note_on,0,0,0,,7,,,67,127
55220,note_off,111,0,0,,12,,,59,127
55220,note_off,0,0,0,,5,,,77,127
55220,note_off,0,0,0,,7,,,79,127
55220,note_on,0,0,0,,7,,,79,127
55220,note_on,0,0,0,,5,,,77,127
55220,note_on,0,0,0,,0,,,60,127
55331,note_off,111,0,0,,7,,,67,127
55331,note_on,0,0,0,,7,,,67,127
55442,note_off,111,0,0,,5,,,77,127
55442,note_on,0,0,0,,3,,,75,127
55442,note_on,0,0,0,,3,,,63,127
55553,note_off,111,0,0,,7,,,67,127
55553,note_on,0,0,0,,7,,,67,127
55664,note_off,111,0,0,,3,,,63,127
55664,note_off,0,0,0,,3,,,75,127
55664,note_off,0,0,0,,0,,,60,127
55664,note_off,0,0,0,,7,,,79,127
55664,note_on,0,0,0,,0,,,60,127
55664,note_on,0,0,0,,3,,,75,127
55664,note_on,0,0,0,,7,,,79,127
55775,note_off,111,0,0,,7,,,67,127
55775,note_on,0,0,0,,7,,,67,127
55886,note_off,111,0,0,,7,,,79,127
55886,note_off,0,0,0,,3,,,75,127
55886,note_off,0,0,0,,0,,,60,127
55886,note_on,0,0,0,,7,,,55,127
55886,note_on,0,0,0,,7,,,79,127
55886,note_on,0,0,0,,3,,,75,127
55997,note_off,111,0,0,,7,,,67,127
55997,note_on,0,0,0,,7,,,67,127
56108,note_off,111,0,0,,3,,,75,127
56108,note_off,0,0,0,,7,,,79,127
56108,note_on,0,0,0,,3,,,63,127
56108,note_on,0,0,0,,11,,,82,127
56108,note_on,0,0,0,,1,,,73,127
56219,note_off,111,0,0,,7,,,67,127
56219,note_on,0,0,0,,7,,,67,127
56330,note_off,111,0,0,,1,,,73,127
56330,note_off,0,0,0,,11,,,82,127
56330,note_off,0,0,0,,3,,,63,127
56330,note_off,0,0,0,,7,,,55,127
56330,note_on,0,0,0,,7,,,55,127
56330,note_on,0,0,0,,11,,,82,127
56330,note_on,0,0,0,,1,,,73,127
56441,note_off,111,0,0,,7,,,67,127
56441,note_on,0,0,0,,7,,,67,127
56552,note_off,111,0,0,,1,,,73,127
56552,note_off,0,0,0,,11,,,82,127
56552,note_off,0,0,0,,7,,,55,127
56552,note_on,0,0,0,,11,,,82,127
56552,note_on,0,0,0,,1,,,73,127
56552,note_on,0,0,0,,8,,,56,127
56663,note_off,111,0,0,,7,,,67,127
56663,note_on,0,0,0,,3,,,63,127
56774,note_off,111,0,0,,1,,,73,127
56774,note_off,0,0,0,,11,,,82,127
56774,note_on,0,0,0,,0,,,60,127
56774,note_on,0,0,0,,8,,,80,127
56774,note_on,0,0,0,,0,,,72,127
56885,note_off,111,0,0,,3,,,63,127
56885,note_on,0,0,0,,3,,,63,127
56996,note_off,111,0,0,,0,,,72,127
56996,note_off,0,0,0,,8,,,80,127
56996,note_off,0,0,0,,0,,,60,127
56996,note_off,0,0,0,,8,,,56,127
56996,note_on,0,0,0,,8,,,56,127
56996,note_on,0,0,0,,0,,,72,127
56996,note_on,0,0,0,,8,,,80,127
57107,note_off,111,0,0,,3,,,63,127
57107,note_on,0,0,0,,3,,,63,127
57218,note_off,111,0,0,,8,,,80,127
57218,note_off,0,0,0,,0,,,72,127
57218,note_off,0,0,0,,8,,,56,127
57218,note_on,0,0,0,,3,,,51,127
57218,note_on,0,0,0,,8,,,80,127
57218,note_on,0,0,0,,0,,,72,127
57329,note_off,111,0,0,,3,,,63,127
57329,note_on,0,0,0,,3,,,63,127
57440,note_off,111,0,0,,0,,,72,127
57440,note_off,0,0,0,,8,,,80,127
57440,note_on,0,0,0,,11,,,70,127
57440,note_on,0,0,0,,11,,,58,127
57440,note_on,0,0,0,,7,,,79,127
57551,note_off,111,0,0,,3,,,63,127
57551,note_on,0,0,0,,3,,,63,127
57662,note_off,111,0,0,,3,,,63,127
57662,note_off,0,0,0,,7,,,79,127
57662,note_off,0,0,0,,11,,,58,127
57662,note_off,0,0,0,,11,,,70,127
57662,note_off,0,0,0,,3,,,51,127
57662,note_on,0,0,0,,4,,,52,127
57662,note_on,0,0,0,,11,,,70,127
57662,note_on,0,0,0,,7,,,79,127
57773,note_on,111,0,0,,0,,,60,127
57884,note_off,111,0,0,,7,,,79,127
57884,note_off,0,0,0,,11,,,70,127
57884,note_off,0,0,0,,4,,,52,127
57884,note_on,0,0,0,,5,,,53,127
57884,note_on,0,0,0,,7,,,79,127
57884,note_on,0,0,0,,11,,,70,127
57995,note_off,111,0,0,,0,,,60,127
57995,note_on,0,0,0,,5,,,65,127
58106,note_off,111,0,0,,11,,,70,127
58106,note_off,0,0,0,,7,,,79,127
58106,note_on,0,0,0,,0,,,60,127
58106,note_on,0,0,0,,5,,,77,127
58106,note_on,0,0,0,,8,,,68,127
58217,note_off,111,0,0,,5,,,65,127
58217,note_on,0,0,0,,5,,,65,127
58328,note_off,111,0,0,,8,,,68,127
58328,note_off,0,0,0,,5,,,77,127
58328,note_off,0,0,0,,0,,,60,127
58328,note_off,0,0,0,,5,,,53,127
58328,note_on,0,0,0,,5,,,53,127
58328,note_on,0,0,0,,8,,,68,127
58328,note_on,0,0,0,,5,,,77,127
58439,note_off,111,0,0,,5,,,65,127
58439,note_on,0,0,0,,5,,,65,127
58550,note_off,111,0,0,,5,,,77,127
58550,note_off,0,0,0,,8,,,68,127
58550,note_off,0,0,0,,5,,,53,127
58550,note_on,0,0,0,,0,,,48,127
58550,note_on,0,0,0,,5,,,77,127
58550,note_on,0,0,0,,8,,,68,127
58661,note_off,111,0,0,,5,,,65,127
58661,note_on,0,0,0,,0,,,60,127
58772,note_off,111,0,0,,8,,,68,127
58772,note_off,0,0,0,,5,,,77,127
58772,note_on,0,0,0,,7,,,55,127
58772,note_on,0,0,0,,4,,,76,127
58772,note_on,0,0,0,,7,,,67,127
58883,note_off,111,0,0,,0,,,60,127
58911,note_on,28,0,0,,0,,,60,127
59002,note_off,91,0,0,,7,,,55,127
59002,note_off,0,0,0,,0,,,48,127
59003,note_on,1,0,0,,0,,,48,127
59003,note_on,0,0,0,,0,,,72,127
59003,note_on,0,0,0,,4,,,64,127
59005,note_off,2,0,0,,7,,,67,127
59006,note_off,1,0,0,,4,,,76,127
59111,note_off,105,0,0,,0,,,60,127
59113,note_on,2,0,0,,0,,,60,127
59224,note_off,111,0,0,,4,,,64,127
59224,note_off,0,0,0,,0,,,48,127
59224,note_on,0,0,0,,1,,,49,127
59224,note_on,0,0,0,,5,,,65,127
59335,note_off,111,0,0,,0,,,60,127
59335,note_on,0,0,0,,11,,,58,127
59446,note_off,111,0,0,,5,,,65,127
59446,note_off,0,0,0,,0,,,72,127
59446,note_on,0,0,0,,5,,,53,127
59446,note_on,0,0,0,,11,,,70,127
59557,note_off,111,0,0,,11,,,58,127
59557,note_on,0,0,0,,11,,,58,127
59668,note_off,111,0,0,,11,,,70,127
59668,note_off,0,0,0,,5,,,53,127
59668,note_off,0,0,0,,1,,,49,127
59668,note_on,0,0,0,,1,,,49,127
59668,note_on,0,0,0,,7,,,67,127
59668,note_on,0,0,0,,5,,,77,127
59779,note_off,111,0,0,,11,,,58,127
59779,note_on,0,0,0,,11,,,58,127
59889,note_off,110,0,0,,11,,,58,127
59890,note_off,1,0,0,,5,,,77,127
59890,note_off,0,0,0,,7,,,67,127
59890,note_off,0,0,0,,1,,,49,127
59890,note_on,0,0,0,,0,,,48,127
59890,note_on,0,0,0,,8,,,68,127
59890,note_on,0,0,0,,5,,,77,127
60001,note_on,111,0,0,,0,,,60,127
60112,note_off,111,0,0,,5,,,77,127
60112,note_off,0,0,0,,8,,,68,127
60112,note_on,0,0,0,,7,,,55,127
60112,note_on,0,0,0,,7,,,67,127
60112,note_on,0,0,0,,4,,,76,127
60222,note_off,110,0,0,,0,,,60,127
60223,note_off,1,0,0,,4,,,76,127
60223,note_on,0,0,0,,0,,,60,127
60223,note_on,0,0,0,,5,,,77,127
60334,note_off,111,0,0,,5,,,77,127
60334,note_off,0,0,0,,7,,,67,127
60334,note_off,0,0,0,,7,,,55,127
60334,note_off,0,0,0,,0,,,48,127
60334,note_on,0,0,0,,0,,,48,127
60334,note_on,0,0,0,,0,,,72,127
60334,note_on,0,0,0,,7,,,79,127
60444,note_off,110,0,0,,0,,,60,127
60445,note_on,1,0,0,,0,,,60,127
60555,note_off,110,0,0,,0,,,60,127
60556,note_off,1,0,0,,0,,,72,127
60556,note_off,0,0,0,,0,,,48,127
60556,note_on,0,0,0,,1,,,49,127
60556,note_on,0,0,0,,0,,,72,127
60667,note_on,111,0,0,,11,,,58,127
60778,note_off,111,0,0,,0,,,72,127
60778,note_on,0,0,0,,11,,,70,127
60778,note_on,0,0,0,,5,,,53,127
60889,note_off,111,0,0,,11,,,58,127
60889,note_on,0,0,0,,11,,,58,127
61000,note_off,111,0,0,,5,,,53,127
61000,note_off,0,0,0,,11,,,70,127
61000,note_off,0,0,0,,1,,,49,127
61000,note_off,0,0,0,,7,,,79,127
61000,note_on,0,0,0,,1,,,49,127
61000,note_on,0,0,0,,7,,,67,127
61000,note_on,0,0,0,,5,,,77,127
61111,note_off,111,0,0,,11,,,58,127
61111,note_on,0,0,0,,11,,,58,127
61221,note_off,110,0,0,,11,,,58,127
61222,note_off,1,0,0,,5,,,77,127
61222,note_off,0,0,0,,7,,,67,127
61222,note_off,0,0,0,,1,,,49,127
61222,note_on,0,0,0,,0,,,48,127
61222,note_on,0,0,0,,8,,,68,127
61222,note_on,0,0,0,,5,,,77,127
61333,note_on,111,0,0,,0,,,60,127
61444,note_off,111,0,0,,5,,,77,127
61444,note_off,0,0,0,,8,,,68,127
61444,note_on,0,0,0,,7,,,55,127
61444,note_on,0,0,0,,4,,,76,127
61444,note_on,0,0,0,,0,,,72,127
61555,note_off,111,0,0,,4,,,76,127
61555,note_off,0,0,0,,0,,,60,127
61555,note_on,0,0,0,,0,,,60,127
61555,note_on,0,0,0,,5,,,77,127
61666,note_off,111,0,0,,5,,,77,127
61666,note_off,0,0,0,,0,,,72,127
61666,note_off,0,0,0,,7,,,55,127
61666,note_off,0,0,0,,0,,,48,127
61666,note_on,0,0,0,,0,,,48,127
61666,note_on,0,0,0,,11,,,70,127
61666,note_on,0,0,0,,7,,,79,127
61777,note_off,111,0,0,,0,,,60,127
61777,note_on,0,0,0,,0,,,60,127
61888,note_off,111,0,0,,11,,,70,127
61888,note_off,0,0,0,,0,,,48,127
61888,note_on,0,0,0,,1,,,49,127
61888,note_on,0,0,0,,8,,,68,127
61999,note_off,111,0,0,,0,,,60,127
61999,note_on,0,0,0,,11,,,58,127
62110,note_off,111,0,0,,8,,,68,127
62110,note_off,0,0,0,,7,,,79,127
62110,note_on,0,0,0,,5,,,53,127
62110,note_on,0,0,0,,5,,,77,127
62110,note_on,0,0,0,,8,,,68,127
62221,note_off,111,0,0,,11,,,58,127
62221,note_on,0,0,0,,11,,,58,127
62332,note_off,111,0,0,,8,,,68,127
62332,note_off,0,0,0,,5,,,77,127
62332,note_off,0,0,0,,5,,,53,127
62332,note_off,0,0,0,,1,,,49,127
62332,note_on,0,0,0,,5,,,77,127
62332,note_on,0,0,0,,1,,,49,127
62332,note_on,0,0,0,,11,,,70,127
62443,note_off,111,0,0,,11,,,58,127
62443,note_on,0,0,0,,11,,,58,127
62554,note_off,111,0,0,,11,,,58,127
62554,note_off,0,0,0,,11,,,70,127
62554,note_off,0,0,0,,1,,,49,127
62554,note_off,0,0,0,,5,,,77,127
62554,note_on,0,0,0,,5,,,77,127
62554,note_on,0,0,0,,8,,,68,127
62554,note_on,0,0,0,,0,,,36,127
62776,note_off,222,0,0,,8,,,68,127
62776,note_off,0,0,0,,5,,,77,127
62776,note_on,0,0,0,,4,,,76,127
62776,note_on,0,0,0,,7,,,67,127
62776,note_on,0,0,0,,0,,,48,127
62887,note_off,111,0,0,,4,,,76,127
62888,note_on,1,0,0,,5,,,77,127
62999,note_off,111,0,0,,5,,,77,127
63007,note_on,8,0,0,,7,,,79,127
63015,note_off,8,0,0,,7,,,67,127
63108,note_off,93,0,0,,0,,,48,127
63108,note_off,0,0,0,,0,,,36,127
63249,note_off,141,0,0,,7,,,79,127
63302,note_on,53,0,0,,11,,,82,127
63302,note_on,0,0,0,,7,,,79,127
63413,note_off,111,0,0,,11,,,82,127
63413,note_on,0,0,0,,0,,,84,127
63524,note_off,111,0,0,,0,,,84,127
63524,note_off,0,0,0,,7,,,79,127
63524,note_on,0,0,0,,5,,,77,127
63524,note_on,0,0,0,,1,,,85,127
63635,note_on,111,0,0,,8,,,80,127
63690,note_off,55,0,0,,1,,,85,127
63745,note_off,55,0,0,,8,,,80,127
63745,note_off,0,0,0,,5,,,77,127
63745,note_on,0,0,0,,4,,,76,127
63745,note_on,0,0,0,,7,,,79,127
63856,note_off,111,0,0,,7,,,79,127
63856,note_on,0,0,0,,8,,,80,127
63967,note_off,111,0,0,,8,,,80,127
63967,note_off,0,0,0,,4,,,76,127
63967,note_on,0,0,0,,1,,,73,127
63967,note_on,0,0,0,,11,,,82,127
64078,note_on,111,0,0,,5,,,77,127
64133,note_off,55,0,0,,11,,,82,127
64188,note_off,55,0,0,,5,,,77,127
64188,note_off,0,0,0,,1,,,73,127
64188,note_on,0,0,0,,0,,,72,127
64188,note_on,0,0,0,,4,,,76,127
64299,note_off,111,0,0,,4,,,76,127
64299,note_on,0,0,0,,5,,,77,127
64410,note_off,111,0,0,,5,,,77,127
64410,note_off,0,0,0,,0,,,72,127
64410,note_on,0,0,0,,11,,,70,127
64410,note_on,0,0,0,,7,,,79,127
64521,note_on,111,0,0,,1,,,73,127
64576,note_off,55,0,0,,7,,,79,127
64631,note_off,55,0,0,,1,,,73,127
64631,note_off,0,0,0,,11,,,70,127
64631,note_on,0,0,0,,8,,,68,127
64631,note_on,0,0,0,,0,,,72,127
64742,note_off,111,0,0,,0,,,72,127
64742,note_on,0,0,0,,2,,,74,127
64853,note_off,111,0,0,,2,,,74,127
64853,note_off,0,0,0,,8,,,68,127
64853,note_on,0,0,0,,7,,,67,127
64853,note_on,0,0,0,,4,,,76,127
64964,note_on,111,0,0,,11,,,70,127
65019,note_off,55,0,0,,4,,,76,127
65074,note_off,55,0,0,,11,,,70,127
65074,note_off,0,0,0,,7,,,67,127
65074,note_on,0,0,0,,8,,,68,127
65074,note_on,0,0,0,,5,,,65,127
65185,note_off,111,0,0,,8,,,68,127
65185,note_on,0,0,0,,12,,,71,127
65296,note_off,111,0,0,,12,,,71,127
65296,note_off,0,0,0,,5,,,65,127
65296,note_on,0,0,0,,7,,,67,127
65296,note_on,0,0,0,,3,,,63,127
65407,note_on,111,0,0,,0,,,72,127
65518,note_off,111,0,0,,0,,,72,127
65518,note_off,0,0,0,,3,,,63,127
65518,note_on,0,0,0,,12,,,71,127
65518,note_on,0,0,0,,2,,,62,127
65629,note_off,111,0,0,,12,,,71,127
65629,note_on,0,0,0,,0,,,72,127
65740,note_off,111,0,0,,0,,,72,127
65740,note_off,0,0,0,,2,,,62,127
65740,note_off,0,0,0,,7,,,67,127
65740,note_on,0,0,0,,2,,,74,127
65740,note_on,0,0,0,,0,,,60,127
65851,note_off,111,0,0,,2,,,74,127
65851,note_on,0,0,0,,3,,,75,127
65962,note_off,111,0,0,,3,,,75,127
65962,note_off,0,0,0,,0,,,60,127
65962,note_on,0,0,0,,5,,,65,127
65962,note_on,0,0,0,,2,,,62,127
66073,note_on,111,0,0,,5,,,77,127
66184,note_off,111,0,0,,5,,,77,127
66184,note_off,0,0,0,,2,,,62,127
66184,note_on,0,0,0,,3,,,75,127
66184,note_on,0,0,0,,0,,,60,127
66295,note_off,111,0,0,,3,,,75,127
66295,note_on,0,0,0,,2,,,74,127
66406,note_off,111,0,0,,2,,,74,127
66406,note_off,0,0,0,,0,,,60,127
66406,note_off,0,0,0,,5,,,65,127
66406,note_on,0,0,0,,12,,,59,127
66406,note_on,0,0,0,,7,,,79,127
66517,note_off,111,0,0,,7,,,79,127
66517,note_on,0,0,0,,5,,,77,127
66628,note_off,111,0,0,,5,,,77,127
66628,note_off,0,0,0,,12,,,59,127
66628,note_on,0,0,0,,0,,,48,127
66628,note_on,0,0,0,,0,,,60,127
66628,note_on,0,0,0,,3,,,75,127
66739,note_off,111,0,0,,3,,,75,127
66739,note_on,0,0,0,,2,,,74,127
66850,note_off,111,0,0,,2,,,74,127
66850,note_off,0,0,0,,0,,,48,127
66850,note_on,0,0,0,,2,,,50,127
66850,note_on,0,0,0,,0,,,72,127
66961,note_off,111,0,0,,0,,,72,127
66961,note_on,0,0,0,,11,,,70,127
67072,note_off,111,0,0,,11,,,70,127
67072,note_off,0,0,0,,2,,,50,127
67072,note_on,0,0,0,,3,,,51,127
67072,note_on,0,0,0,,8,,,68,127
67183,note_off,111,0,0,,8,,,68,127
67183,note_on,0,0,0,,7,,,67,127
67294,note_off,111,0,0,,7,,,67,127
67294,note_off,0,0,0,,3,,,51,127
67294,note_off,0,0,0,,0,,,60,127
67294,note_on,0,0,0,,5,,,53,127
67294,note_on,0,0,0,,8,,,68,127
67294,note_on,0,0,0,,0,,,72,127
67405,note_off,111,0,0,,8,,,68,127
67405,note_on,0,0,0,,7,,,67,127
67516,note_off,111,0,0,,7,,,67,127
67516,note_off,0,0,0,,5,,,53,127
67516,note_on,0,0,0,,7,,,55,127
67516,note_on,0,0,0,,5,,,65,127
67627,note_off,111,0,0,,5,,,65,127
67627,note_on,0,0,0,,3,,,63,127
67738,note_off,111,0,0,,3,,,63,127
67738,note_off,0,0,0,,7,,,55,127
67738,note_on,0,0,0,,8,,,56,127
67738,note_on,0,0,0,,2,,,62,127
67849,note_off,111,0,0,,2,,,62,127
67849,note_on,0,0,0,,0,,,60,127
67960,note_off,111,0,0,,0,,,60,127
67960,note_off,0,0,0,,8,,,56,127
67960,note_off,0,0,0,,0,,,72,127
67960,note_on,0,0,0,,7,,,43,127
67960,note_on,0,0,0,,7,,,55,127
67960,note_on,0,0,0,,7,,,67,127
67960,note_on,0,0,0,,12,,,71,127
68071,note_off,111,0,0,,7,,,67,127
68071,note_on,0,0,0,,8,,,68,127
68182,note_off,111,0,0,,8,,,68,127
68182,note_on,0,0,0,,7,,,67,127
68293,note_off,111,0,0,,7,,,67,127
68293,note_on,0,0,0,,5,,,65,127
68404,note_off,111,0,0,,5,,,65,127
68404,note_on,0,0,0,,3,,,63,127
68515,note_off,111,0,0,,3,,,63,127
68515,note_on,0,0,0,,2,,,62,127
68626,note_off,111,0,0,,2,,,62,127
68626,note_off,0,0,0,,12,,,71,127
68626,note_off,0,0,0,,7,,,55,127
68626,note_off,0,0,0,,7,,,43,127
68626,note_on,0,0,0,,5,,,53,127
68626,note_on,0,0,0,,8,,,44,127
68626,note_on,0,0,0,,0,,,72,127
68626,note_on,0,0,0,,0,,,60,127
68737,note_off,111,0,0,,0,,,60,127
68737,note_on,0,0,0,,2,,,62,127
68848,note_off,111,0,0,,2,,,62,127
68848,note_on,0,0,0,,3,,,63,127
68959,note_off,111,0,0,,3,,,63,127
68959,note_on,0,0,0,,5,,,65,127
69070,note_off,111,0,0,,5,,,65,127
69070,note_on,0,0,0,,7,,,67,127
69181,note_off,111,0,0,,7,,,67,127
69181,note_on,0,0,0,,8,,,68,127
69292,note_off,111,0,0,,8,,,68,127
69292,note_off,0,0,0,,0,,,72,127
69292,note_off,0,0,0,,8,,,44,127
69292,note_off,0,0,0,,5,,,53,127
69292,note_on,0,0,0,,7,,,43,127
69292,note_on,0,0,0,,7,,,55,127
69292,note_on,0,0,0,,7,,,67,127
69292,note_on,0,0,0,,12,,,71,127
69403,note_off,111,0,0,,7,,,67,127
69403,note_on,0,0,0,,8,,,68,127
69514,note_off,111,0,0,,8,,,68,127
69514,note_on,0,0,0,,7,,,67,127
69625,note_off,111,0,0,,7,,,67,127
69625,note_on,0,0,0,,5,,,65,127
69736,note_off,111,0,0,,5,,,65,127
69736,note_on,0,0,0,,3,,,63,127
69847,note_off,111,0,0,,3,,,63,127
69847,note_on,0,0,0,,2,,,62,127
69958,note_off,111,0,0,,2,,,62,127
69958,note_off,0,0,0,,12,,,71,127
69958,note_off,0,0,0,,7,,,55,127
69958,note_off,0,0,0,,7,,,43,127
69958,note_on,0,0,0,,5,,,53,127
69958,note_on,0,0,0,,8,,,44,127
69958,note_on,0,0,0,,0,,,60,127
69958,note_on,0,0,0,,0,,,72,127
70069,note_off,111,0,0,,0,,,60,127
70069,note_on,0,0,0,,2,,,62,127
70180,note_off,111,0,0,,2,,,62,127
70180,note_on,0,0,0,,3,,,63,127
70291,note_off,111,0,0,,3,,,63,127
70291,note_on,0,0,0,,5,,,65,127
70402,note_off,111,0,0,,5,,,65,127
70402,note_on,0,0,0,,7,,,67,127
70513,note_off,111,0,0,,7,,,67,127
70513,note_on,0,0,0,,6,,,66,127
70624,note_off,111,0,0,,6,,,66,127
70624,note_off,0,0,0,,8,,,44,127
70624,note_off,0,0,0,,5,,,53,127
70624,note_on,0,0,0,,7,,,55,127
70624,note_on,0,0,0,,7,,,43,127
70624,note_on,0,0,0,,7,,,67,127
70846,note_off,222,0,0,,0,,,72,127
70846,note_on,0,0,0,,12,,,71,127
70957,note_off,111,0,0,,12,,,71,127
70957,note_on,0,0,0,,0,,,72,127
71068,note_off,111,0,0,,0,,,72,127
71068,note_on,0,0,0,,2,,,74,127
71156,note_off,88,0,0,,7,,,43,127
71179,note_off,23,0,0,,7,,,67,127
71237,note_off,58,0,0,,7,,,55,127
71322,note_off,85,0,0,,2,,,74,127
71345,note_on,23,0,0,,7,,,67,127
71345,note_on,0,0,0,,12,,,71,127
71456,note_off,111,0,0,,12,,,71,127
71456,note_off,0,0,0,,7,,,67,127
71456,note_on,0,0,0,,0,,,72,127
71456,note_on,0,0,0,,5,,,65,127
71567,note_off,111,0,0,,5,,,65,127
71567,note_off,0,0,0,,0,,,72,127
71567,note_on,0,0,0,,4,,,64,127
71567,note_on,0,0,0,,2,,,74,127
71669,note_on,102,0,0,,4,,,76,127
71669,note_on,0,0,0,,2,,,62,127
71678,note_off,9,0,0,,2,,,74,127
71678,note_off,0,0,0,,4,,,64,127
71780,note_off,102,0,0,,2,,,62,127
71780,note_off,0,0,0,,4,,,76,127
71780,note_on,0,0,0,,5,,,77,127
71780,note_on,0,0,0,,0,,,60,127
71891,note_off,111,0,0,,0,,,60,127
71891,note_off,0,0,0,,5,,,77,127
71891,note_on,0,0,0,,7,,,79,127
71891,note_on,0,0,0,,12,,,59,127
72002,note_off,111,0,0,,12,,,59,127
72002,note_off,0,0,0,,7,,,79,127
72002,note_on,0,0,0,,4,,,76,127
72002,note_on,0,0,0,,0,,,60,127
72113,note_off,111,0,0,,0,,,60,127
72113,note_off,0,0,0,,4,,,76,127
72113,note_on,0,0,0,,5,,,77,127
72113,note_on,0,0,0,,12,,,59,127
72224,note_off,111,0,0,,12,,,59,127
72224,note_off,0,0,0,,5,,,77,127
72224,note_on,0,0,0,,7,,,79,127
72224,note_on,0,0,0,,10,,,57,127
72335,note_off,111,0,0,,10,,,57,127
72335,note_off,0,0,0,,7,,,79,127
72335,note_on,0,0,0,,10,,,81,127
72335,note_on,0,0,0,,7,,,55,127
72446,note_off,111,0,0,,7,,,55,127
72446,note_off,0,0,0,,10,,,81,127
72446,note_on,0,0,0,,12,,,83,127
72446,note_on,0,0,0,,5,,,53,127
72557,note_off,111,0,0,,5,,,53,127
72557,note_off,0,0,0,,12,,,83,127
72557,note_on,0,0,0,,0,,,84,127
72557,note_on,0,0,0,,4,,,52,127
72640,note_off,83,0,0,,4,,,52,127
72667,note_off,27,0,0,,0,,,84,127
72677,note_on,10,0,0,,7,,,67,127
72677,note_on,0,0,0,,12,,,71,127
72788,note_off,111,0,0,,12,,,71,127
72788,note_off,0,0,0,,7,,,67,127
72788,note_on,0,0,0,,5,,,65,127
72788,note_on,0,0,0,,0,,,72,127
72899,note_off,111,0,0,,0,,,72,127
72899,note_off,0,0,0,,5,,,65,127
72899,note_on,0,0,0,,4,,,64,127
72899,note_on,0,0,0,,2,,,74,127
73010,note_off,111,0,0,,2,,,74,127
73010,note_off,0,0,0,,4,,,64,127
73010,note_on,0,0,0,,2,,,62,127
73010,note_on,0,0,0,,4,,,76,127
73121,note_off,111,0,0,,4,,,76,127
73121,note_off,0,0,0,,2,,,62,127
73121,note_on,0,0,0,,0,,,60,127
73121,note_on,0,0,0,,5,,,77,127
73232,note_off,111,0,0,,5,,,77,127
73232,note_off,0,0,0,,0,,,60,127
73232,note_on,0,0,0,,12,,,59,127
73232,note_on,0,0,0,,7,,,79,127
73343,note_off,111,0,0,,7,,,79,127
73343,note_off,0,0,0,,12,,,59,127
73343,note_on,0,0,0,,0,,,60,127
73343,note_on,0,0,0,,4,,,76,127
73454,note_off,111,0,0,,4,,,76,127
73454,note_off,0,0,0,,0,,,60,127
73454,note_on,0,0,0,,12,,,59,127
73454,note_on,0,0,0,,5,,,77,127
73565,note_off,111,0,0,,5,,,77,127
73565,note_off,0,0,0,,12,,,59,127
73565,note_on,0,0,0,,10,,,57,127
73565,note_on,0,0,0,,7,,,79,127
73676,note_off,111,0,0,,7,,,79,127
73676,note_off,0,0,0,,10,,,57,127
73676,note_on,0,0,0,,7,,,55,127
73676,note_on,0,0,0,,10,,,81,127
73787,note_off,111,0,0,,10,,,81,127
73787,note_off,0,0,0,,7,,,55,127
73787,note_on,0,0,0,,5,,,53,127
73787,note_on,0,0,0,,12,,,83,127
73898,note_off,111,0,0,,12,,,83,127
73898,note_off,0,0,0,,5,,,53,127
73898,note_on,0,0,0,,4,,,52,127
73898,note_on,0,0,0,,0,,,84,127
74009,note_off,111,0,0,,0,,,84,127
74009,note_off,0,0,0,,4,,,52,127
74018,note_on,9,0,0,,10,,,81,127
74018,note_on,0,0,0,,5,,,53,127
74129,note_off,111,0,0,,5,,,53,127
74129,note_off,0,0,0,,10,,,81,127
74129,note_on,0,0,0,,12,,,83,127
74129,note_on,0,0,0,,4,,,52,127
74240,note_off,111,0,0,,4,,,52,127
74240,note_off,0,0,0,,12,,,83,127
74240,note_on,0,0,0,,0,,,84,127
74240,note_on,0,0,0,,2,,,50,127
74351,note_off,111,0,0,,2,,,50,127
74351,note_off,0,0,0,,0,,,84,127
74351,note_on,0,0,0,,0,,,48,127
74351,note_on,0,0,0,,2,,,86,127
74462,note_off,111,0,0,,2,,,86,127
74462,note_off,0,0,0,,0,,,48,127
74462,note_on,0,0,0,,4,,,88,127
74462,note_on,0,0,0,,12,,,47,127
74573,note_off,111,0,0,,12,,,47,127
74573,note_off,0,0,0,,4,,,88,127
74573,note_on,0,0,0,,5,,,89,127
74573,note_on,0,0,0,,10,,,45,127
74684,note_off,111,0,0,,10,,,45,127
74684,note_on,0,0,0,,7,,,79,127
74684,note_on,0,0,0,,7,,,43,127
74795,note_off,111,0,0,,5,,,89,127
74795,note_on,0,0,0,,5,,,89,127
74906,note_off,111,0,0,,5,,,89,127
74906,note_on,0,0,0,,4,,,88,127
75017,note_off,111,0,0,,4,,,88,127
75017,note_on,0,0,0,,2,,,86,127
75127,note_off,110,0,0,,7,,,79,127
75128,note_off,1,0,0,,2,,,86,127
75128,note_off,0,0,0,,7,,,43,127
75128,note_on,0,0,0,,0,,,48,127
75128,note_on,0,0,0,,4,,,88,127
75239,note_off,111,0,0,,4,,,88,127
75239,note_on,0,0,0,,0,,,84,127
75350,note_off,111,0,0,,0,,,84,127
75350,note_off,0,0,0,,0,,,48,127
75350,note_on,0,0,0,,5,,,77,127
75350,note_on,0,0,0,,5,,,53,127
75461,note_on,111,0,0,,2,,,86,127
75572,note_off,111,0,0,,5,,,53,127
75572,note_off,0,0,0,,5,,,77,127
75572,note_on,0,0,0,,4,,,76,127
75572,note_on,0,0,0,,7,,,55,127
75683,note_off,111,0,0,,2,,,86,127
75683,note_on,0,0,0,,0,,,84,127
75794,note_off,111,0,0,,7,,,55,127
75794,note_off,0,0,0,,4,,,76,127
75794,note_on,0,0,0,,2,,,74,127
75794,note_on,0,0,0,,7,,,43,127
75905,note_off,111,0,0,,0,,,84,127
75905,note_on,0,0,0,,12,,,83,127
76016,note_off,111,0,0,,12,,,83,127
76016,note_off,0,0,0,,7,,,43,127
76016,note_off,0,0,0,,2,,,74,127
76016,note_on,0,0,0,,0,,,84,127
76016,note_on,0,0,0,,0,,,36,127
76127,note_on,111,0,0,,7,,,79,127
76238,note_off,111,0,0,,7,,,79,127
76238,note_on,0,0,0,,4,,,76,127
76349,note_off,111,0,0,,4,,,76,127
76349,note_on,0,0,0,,7,,,79,127
76460,note_off,111,0,0,,7,,,79,127
76460,note_off,0,0,0,,0,,,36,127
76460,note_on,0,0,0,,0,,,72,127
76571,note_off,111,0,0,,0,,,72,127
76571,note_on,0,0,0,,10,,,81,127
76626,note_off,55,0,0,,0,,,84,127
76681,note_off,55,0,0,,10,,,81,127
76690,note_on,9,0,0,,7,,,67,127
76690,note_on,0,0,0,,12,,,71,127
76801,note_off,111,0,0,,12,,,71,127
76801,note_off,0,0,0,,7,,,67,127
76801,note_on,0,0,0,,5,,,65,127
76801,note_on,0,0,0,,0,,,72,127
76912,note_off,111,0,0,,0,,,72,127
76912,note_off,0,0,0,,5,,,65,127
76912,note_on,0,0,0,,4,,,64,127
76912,note_on,0,0,0,,2,,,74,127
77023,note_off,111,0,0,,2,,,74,127
77023,note_off,0,0,0,,4,,,64,127
77023,note_on,0,0,0,,2,,,62,127
77023,note_on,0,0,0,,4,,,76,127
77134,note_off,111,0,0,,4,,,76,127
77134,note_off,0,0,0,,2,,,62,127
77134,note_on,0,0,0,,0,,,60,127
77134,note_on,0,0,0,,5,,,77,127
77245,note_off,111,0,0,,5,,,77,127
77245,note_off,0,0,0,,0,,,60,127
77245,note_on,0,0,0,,12,,,59,127
77245,note_on,0,0,0,,7,,,79,127
77356,note_off,111,0,0,,7,,,79,127
77356,note_off,0,0,0,,12,,,59,127
77356,note_on,0,0,0,,0,,,60,127
77356,note_on,0,0,0,,4,,,76,127
77467,note_off,111,0,0,,4,,,76,127
77467,note_off,0,0,0,,0,,,60,127
77467,note_on,0,0,0,,12,,,59,127
77467,note_on,0,0,0,,5,,,77,127
77578,note_off,111,0,0,,5,,,77,127
77578,note_off,0,0,0,,12,,,59,127
77578,note_on,0,0,0,,10,,,57,127
77578,note_on,0,0,0,,7,,,79,127
77689,note_off,111,0,0,,7,,,79,127
77689,note_off,0,0,0,,10,,,57,127
77689,note_on,0,0,0,,7,,,55,127
77689,note_on,0,0,0,,10,,,81,127
77800,note_off,111,0,0,,10,,,81,127
77800,note_off,0,0,0,,7,,,55,127
77800,note_on,0,0,0,,5,,,53,127
77800,note_on,0,0,0,,12,,,83,127
77911,note_off,111,0,0,,12,,,83,127
77911,note_off,0,0,0,,5,,,53,127
77911,note_on,0,0,0,,4,,,52,127
77911,note_on,0,0,0,,0,,,84,127
77994,note_off,83,0,0,,4,,,52,127
78021,note_off,27,0,0,,0,,,84,127
78022,note_on,1,0,0,,7,,,67,127
78022,note_on,0,0,0,,12,,,71,127
78133,note_off,111,0,0,,12,,,71,127
78133,note_off,0,0,0,,7,,,67,127
78133,note_on,0,0,0,,5,,,65,127
78133,note_on,0,0,0,,0,,,72,127
78244,note_off,111,0,0,,0,,,72,127
78244,note_off,0,0,0,,5,,,65,127
78244,note_on,0,0,0,,4,,,64,127
78244,note_on,0,0,0,,2,,,74,127
78355,note_off,111,0,0,,2,,,74,127
78355,note_off,0,0,0,,4,,,64,127
78355,note_on,0,0,0,,2,,,62,127
78355,note_on,0,0,0,,4,,,76,127
78466,note_off,111,0,0,,4,,,76,127
78466,note_off,0,0,0,,2,,,62,127
78466,note_on,0,0,0,,0,,,60,127
78466,note_on,0,0,0,,5,,,77,127
78577,note_off,111,0,0,,5,,,77,127
78577,note_off,0,0,0,,0,,,60,127
78577,note_on,0,0,0,,12,,,59,127
78577,note_on,0,0,0,,7,,,79,127
78688,note_off,111,0,0,,7,,,79,127
78688,note_off,0,0,0,,12,,,59,127
78688,note_on,0,0,0,,0,,,60,127
78688,note_on,0,0,0,,4,,,76,127
78799,note_off,111,0,0,,4,,,76,127
78799,note_off,0,0,0,,0,,,60,127
78799,note_on,0,0,0,,12,,,59,127
78799,note_on,0,0,0,,5,,,77,127
78910,note_off,111,0,0,,5,,,77,127
78910,note_off,0,0,0,,12,,,59,127
78910,note_on,0,0,0,,10,,,57,127
78910,note_on,0,0,0,,7,,,79,127
79021,note_off,111,0,0,,7,,,79,127
79021,note_off,0,0,0,,10,,,57,127
79021,note_on,0,0,0,,7,,,55,127
79021,note_on,0,0,0,,10,,,81,127
79132,note_off,111,0,0,,10,,,81,127
79132,note_off,0,0,0,,7,,,55,127
79132,note_on,0,0,0,,5,,,53,127
79132,note_on,0,0,0,,12,,,83,127
79243,note_off,111,0,0,,12,,,83,127
79243,note_off,0,0,0,,5,,,53,127
79243,note_on,0,0,0,,4,,,52,127
79243,note_on,0,0,0,,0,,,84,127
79354,note_off,111,0,0,,0,,,84,127
79354,note_off,0,0,0,,4,,,52,127
79354,note_on,0,0,0,,5,,,53,127
79354,note_on,0,0,0,,10,,,81,127
79465,note_off,111,0,0,,10,,,81,127
79465,note_off,0,0,0,,5,,,53,127
79465,note_on,0,0,0,,12,,,83,127
79465,note_on,0,0,0,,4,,,52,127
79576,note_off,111,0,0,,4,,,52,127
79576,note_off,0,0,0,,12,,,83,127
79576,note_on,0,0,0,,0,,,84,127
79576,note_on,0,0,0,,2,,,50,127
79687,note_off,111,0,0,,2,,,50,127
79687,note_off,0,0,0,,0,,,84,127
79687,note_on,0,0,0,,0,,,48,127
79687,note_on,0,0,0,,2,,,86,127
79798,note_off,111,0,0,,2,,,86,127
79798,note_off,0,0,0,,0,,,48,127
79798,note_on,0,0,0,,12,,,47,127
79798,note_on,0,0,0,,4,,,88,127
79909,note_off,111,0,0,,4,,,88,127
79909,note_off,0,0,0,,12,,,47,127
79909,note_on,0,0,0,,10,,,45,127
79909,note_on,0,0,0,,5,,,89,127
80020,note_off,111,0,0,,10,,,45,127
80020,note_on,0,0,0,,7,,,79,127
80020,note_on,0,0,0,,7,,,43,127
80131,note_off,111,0,0,,5,,,89,127
80131,note_on,0,0,0,,5,,,89,127
80242,note_off,111,0,0,,5,,,89,127
80242,note_on,0,0,0,,4,,,88,127
80353,note_off,111,0,0,,4,,,88,127
80353,note_on,0,0,0,,2,,,86,127
80464,note_off,111,0,0,,2,,,86,127
80464,note_off,0,0,0,,7,,,43,127
80464,note_on,0,0,0,,0,,,48,127
80464,note_on,0,0,0,,4,,,88,127
80575,note_off,111,0,0,,4,,,88,127
80575,note_on,0,0,0,,0,,,84,127
80685,note_off,110,0,0,,7,,,79,127
80686,note_off,1,0,0,,0,,,48,127
80686,note_on,0,0,0,,5,,,53,127
80686,note_on,0,0,0,,5,,,77,127
80797,note_off,111,0,0,,0,,,84,127
80797,note_on,0,0,0,,2,,,86,127
80908,note_off,111,0,0,,5,,,77,127
80908,note_off,0,0,0,,5,,,53,127
80908,note_on,0,0,0,,7,,,55,127
80908,note_on,0,0,0,,4,,,76,127
81019,note_off,111,0,0,,2,,,86,127
81019,note_on,0,0,0,,0,,,84,127
81130,note_off,111,0,0,,4,,,76,127
81130,note_off,0,0,0,,7,,,55,127
81130,note_on,0,0,0,,7,,,43,127
81130,note_on,0,0,0,,2,,,74,127
81241,note_off,111,0,0,,0,,,84,127
81241,note_on,0,0,0,,12,,,83,127
81352,note_off,111,0,0,,12,,,83,127
81352,note_off,0,0,0,,2,,,74,127
81352,note_off,0,0,0,,7,,,43,127
81352,note_on,0,0,0,,0,,,48,127
81352,note_on,0,0,0,,4,,,76,127
81352,note_on,0,0,0,,0,,,84,127
81472,note_on,120,0,0,,12,,,71,127
81574,note_off,102,0,0,,0,,,48,127
81583,note_off,9,0,0,,12,,,71,127
81583,note_on,0,0,0,,0,,,72,127
81694,note_off,111,0,0,,0,,,72,127
81694,note_on,0,0,0,,7,,,67,127
81805,note_off,111,0,0,,7,,,67,127
81805,note_on,0,0,0,,10,,,69,127
81916,note_off,111,0,0,,10,,,69,127
81916,note_on,0,0,0,,4,,,64,127
82011,note_off,95,0,0,,0,,,84,127
82011,note_off,0,0,0,,4,,,76,127
82027,note_off,16,0,0,,4,,,64,127
82027,note_on,0,0,0,,5,,,65,127
82138,note_off,111,0,0,,5,,,65,127
82138,note_on,0,0,0,,10,,,69,127
82249,note_off,111,0,0,,10,,,69,127
82249,note_on,0,0,0,,2,,,86,127
82249,note_on,0,0,0,,0,,,84,127
82249,note_on,0,0,0,,7,,,67,127
82360,note_off,111,0,0,,7,,,67,127
82360,note_on,0,0,0,,5,,,65,127
82471,note_off,111,0,0,,5,,,65,127
82471,note_off,0,0,0,,0,,,84,127
82471,note_off,0,0,0,,2,,,86,127
82471,note_on,0,0,0,,12,,,83,127
82471,note_on,0,0,0,,5,,,89,127
82471,note_on,0,0,0,,4,,,64,127
82582,note_off,111,0,0,,4,,,64,127
82582,note_on,0,0,0,,2,,,62,127
82693,note_off,111,0,0,,2,,,62,127
82693,note_off,0,0,0,,5,,,89,127
82693,note_off,0,0,0,,12,,,83,127
82693,note_on,0,0,0,,0,,,60,127
82693,note_on,0,0,0,,0,,,84,127
82693,note_on,0,0,0,,4,,,88,127
82804,note_off,111,0,0,,0,,,60,127
82809,note_on,5,0,0,,12,,,71,127
82920,note_off,111,0,0,,12,,,71,127
82920,note_on,0,0,0,,0,,,72,127
83031,note_off,111,0,0,,0,,,72,127
83031,note_on,0,0,0,,7,,,67,127
83137,note_off,106,0,0,,4,,,88,127
83137,note_off,0,0,0,,0,,,84,127
83142,note_off,5,0,0,,7,,,67,127
83142,note_on,0,0,0,,10,,,69,127
83253,note_off,111,0,0,,10,,,69,127
83253,note_on,0,0,0,,4,,,64,127
83363,note_on,110,0,0,,5,,,65,127
83364,note_off,1,0,0,,4,,,64,127
83474,note_off,110,0,0,,5,,,65,127
83475,note_on,1,0,0,,10,,,69,127
83586,note_off,111,0,0,,10,,,69,127
83586,note_on,0,0,0,,7,,,67,127
83586,note_on,0,0,0,,2,,,86,127
83586,note_on,0,0,0,,0,,,84,127
83697,note_off,111,0,0,,7,,,67,127
83697,note_on,0,0,0,,5,,,65,127
83808,note_off,111,0,0,,5,,,65,127
83808,note_off,0,0,0,,0,,,84,127
83808,note_off,0,0,0,,2,,,86,127
83808,note_on,0,0,0,,12,,,83,127
83808,note_on,0,0,0,,5,,,89,127
83808,note_on,0,0,0,,4,,,64,127
83919,note_off,111,0,0,,4,,,64,127
83919,note_on,0,0,0,,2,,,62,127
84030,note_off,111,0,0,,2,,,62,127
84030,note_off,0,0,0,,5,,,89,127
84030,note_off,0,0,0,,12,,,83,127
84030,note_on,0,0,0,,4,,,88,127
84030,note_on,0,0,0,,0,,,84,127
84030,note_on,0,0,0,,0,,,60,127
84141,note_off,111,0,0,,0,,,60,127
84148,note_on,7,0,0,,12,,,71,127
84259,note_off,111,0,0,,12,,,71,127
84259,note_on,0,0,0,,0,,,72,127
84370,note_off,111,0,0,,0,,,72,127
84370,note_on,0,0,0,,7,,,67,127
84474,note_off,104,0,0,,0,,,84,127
84474,note_off,0,0,0,,4,,,88,127
84481,note_off,7,0,0,,7,,,67,127
84481,note_on,0,0,0,,10,,,69,127
84592,note_off,111,0,0,,10,,,69,127
84592,note_on,0,0,0,,4,,,64,127
84703,note_off,111,0,0,,4,,,64,127
84703,note_on,0,0,0,,5,,,65,127
84814,note_off,111,0,0,,5,,,65,127
84814,note_on,0,0,0,,10,,,69,127
84925,note_off,111,0,0,,10,,,69,127
84925,note_on,0,0,0,,0,,,84,127
84925,note_on,0,0,0,,2,,,86,127
84925,note_on,0,0,0,,7,,,67,127
85036,note_off,111,0,0,,7,,,67,127
85036,note_on,0,0,0,,5,,,65,127
85147,note_off,111,0,0,,5,,,65,127
85147,note_off,0,0,0,,2,,,86,127
85147,note_off,0,0,0,,0,,,84,127
85147,note_on,0,0,0,,4,,,64,127
85147,note_on,0,0,0,,12,,,83,127
85147,note_on,0,0,0,,5,,,89,127
85258,note_off,111,0,0,,4,,,64,127
85258,note_on,0,0,0,,2,,,62,127
85368,note_off,110,0,0,,2,,,62,127
85369,note_off,1,0,0,,5,,,89,127
85369,note_off,0,0,0,,12,,,83,127
85378,note_on,9,0,0,,0,,,48,127
85378,note_on,0,0,0,,4,,,88,127
85489,note_on,111,0,0,,12,,,83,127
85600,note_off,111,0,0,,12,,,83,127
85600,note_off,0,0,0,,4,,,88,127
85600,note_off,0,0,0,,0,,,48,127
85600,note_on,0,0,0,,4,,,52,127
85600,note_on,0,0,0,,0,,,84,127
85711,note_on,111,0,0,,7,,,79,127
85822,note_off,111,0,0,,7,,,79,127
85822,note_off,0,0,0,,0,,,84,127
85822,note_off,0,0,0,,4,,,52,127
85822,note_on,0,0,0,,5,,,53,127
85822,note_on,0,0,0,,10,,,81,127
85933,note_off,111,0,0,,10,,,81,127
85933,note_on,0,0,0,,4,,,76,127
86044,note_off,111,0,0,,4,,,76,127
86044,note_off,0,0,0,,5,,,53,127
86044,note_on,0,0,0,,5,,,77,127
86044,note_on,0,0,0,,5,,,53,127
86155,note_off,111,0,0,,5,,,77,127
86155,note_on,0,0,0,,10,,,81,127
86266,note_off,111,0,0,,10,,,81,127
86266,note_off,0,0,0,,5,,,53,127
86266,note_on,0,0,0,,7,,,79,127
86266,note_on,0,0,0,,7,,,55,127
86377,note_off,111,0,0,,7,,,79,127
86377,note_on,0,0,0,,5,,,77,127
86488,note_off,111,0,0,,5,,,77,127
86488,note_off,0,0,0,,7,,,55,127
86488,note_on,0,0,0,,4,,,76,127
86488,note_on,0,0,0,,7,,,43,127
86599,note_off,111,0,0,,4,,,76,127
86599,note_on,0,0,0,,2,,,74,127
86710,note_off,111,0,0,,2,,,74,127
86710,note_off,0,0,0,,7,,,43,127
86719,note_on,9,0,0,,0,,,48,127
86719,note_on,0,0,0,,0,,,72,127
86830,note_off,111,0,0,,0,,,72,127
86830,note_on,0,0,0,,12,,,71,127
86941,note_off,111,0,0,,12,,,71,127
86941,note_off,0,0,0,,0,,,48,127
86941,note_on,0,0,0,,4,,,52,127
86941,note_on,0,0,0,,0,,,72,127
87052,note_on,111,0,0,,7,,,67,127
87163,note_off,111,0,0,,7,,,67,127
87163,note_off,0,0,0,,0,,,72,127
87163,note_off,0,0,0,,4,,,52,127
87163,note_on,0,0,0,,5,,,53,127
87163,note_on,0,0,0,,10,,,69,127
87274,note_off,111,0,0,,10,,,69,127
87274,note_on,0,0,0,,4,,,64,127
87385,note_off,111,0,0,,4,,,64,127
87385,note_on,0,0,0,,5,,,41,127
87385,note_on,0,0,0,,5,,,65,127
87496,note_off,111,0,0,,5,,,65,127
87496,note_on,0,0,0,,10,,,69,127
87607,note_off,111,0,0,,10,,,69,127
87607,note_off,0,0,0,,5,,,41,127
87607,note_off,0,0,0,,5,,,53,127
87607,note_on,0,0,0,,7,,,43,127
87607,note_on,0,0,0,,7,,,67,127
87718,note_off,111,0,0,,7,,,67,127
87718,note_on,0,0,0,,5,,,65,127
87829,note_off,111,0,0,,5,,,65,127
87829,note_off,0,0,0,,7,,,43,127
87829,note_on,0,0,0,,7,,,43,127
87829,note_on,0,0,0,,4,,,64,127
87940,note_off,111,0,0,,4,,,64,127
87940,note_on,0,0,0,,2,,,62,127
88050,note_off,110,0,0,,2,,,62,127
88051,note_off,1,0,0,,7,,,43,127
88060,note_on,9,0,0,,0,,,60,127
88060,note_on,0,0,0,,0,,,36,127
88171,note_off,111,0,0,,0,,,60,127
88171,note_on,0,0,0,,12,,,59,127
88282,note_off,111,0,0,,12,,,59,127
88282,note_off,0,0,0,,0,,,36,127
88282,note_on,0,0,0,,0,,,60,127
88282,note_on,0,0,0,,4,,,40,127
88393,note_off,111,0,0,,0,,,60,127
88393,note_on,0,0,0,,7,,,55,127
88504,note_off,111,0,0,,7,,,55,127
88504,note_off,0,0,0,,4,,,40,127
88504,note_on,0,0,0,,5,,,41,127
88504,note_on,0,0,0,,10,,,57,127
88615,note_off,111,0,0,,10,,,57,127
88615,note_on,0,0,0,,4,,,52,127
88726,note_off,111,0,0,,4,,,52,127
88726,note_off,0,0,0,,5,,,41,127
88726,note_on,0,0,0,,5,,,41,127
88726,note_on,0,0,0,,5,,,53,127
88837,note_off,111,0,0,,5,,,53,127
88837,note_on,0,0,0,,10,,,57,127
88948,note_off,111,0,0,,10,,,57,127
88948,note_off,0,0,0,,5,,,41,127
88948,note_on,0,0,0,,7,,,43,127
88948,note_on,0,0,0,,7,,,55,127
89059,note_off,111,0,0,,7,,,55,127
89059,note_on,0,0,0,,5,,,53,127
89170,note_off,111,0,0,,5,,,53,127
89170,note_off,0,0,0,,7,,,43,127
89170,note_on,0,0,0,,7,,,31,127
89170,note_on,0,0,0,,4,,,52,127
89281,note_off,111,0,0,,4,,,52,127
89281,note_on,0,0,0,,2,,,50,127
89392,note_off,111,0,0,,2,,,50,127
89392,note_off,0,0,0,,7,,,31,127
89409,note_on,17,0,0,,0,,,36,127
89409,note_on,0,0,0,,0,,,48,127
91645,note_off,2236,0,0,,0,,,48,127
91645,note_off,0,0,0,,0,,,36,127
95232,end_of_track,3587,1,0,,,,,,
