tick,type,time,meta,track,program,channel,pitch,tempo,note,velocity
0,copyright,0,1,0,,,,,,
0,program_change,0,0,0,6,0,,,,
0,pitchwheel,0,0,0,,0,0,,,
0,program_change,0,0,0,6,1,,,,
0,pitchwheel,0,0,0,,1,-590,,,
0,program_change,0,0,0,6,2,,,,
0,pitchwheel,0,0,0,,2,-272,,,
0,program_change,0,0,0,6,3,,,,
0,pitchwheel,0,0,0,,3,-353,,,
0,program_change,0,0,0,6,4,,,,
0,pitchwheel,0,0,0,,4,-560,,,
0,program_change,0,0,0,6,5,,,,
0,pitchwheel,0,0,0,,5,-80,,,
0,program_change,0,0,0,6,6,,,,
0,pitchwheel,0,0,0,,6,-625,,,
0,program_change,0,0,0,6,7,,,,
0,pitchwheel,0,0,0,,7,-130,,,
0,program_change,0,0,0,6,8,,,,
0,pitchwheel,0,0,0,,8,-512,,,
0,program_change,0,0,0,6,10,,,,
0,pitchwheel,0,0,0,,10,-464,,,
0,program_change,0,0,0,6,11,,,,
0,pitchwheel,0,0,0,,11,-208,,,
0,program_change,0,0,0,6,12,,,,
0,pitchwheel,0,0,0,,12,-553,,,
0,set_tempo,0,1,0,,,,500000,,
206,note_on,206,0,0,,5,,,77,127
617,note_on,411,0,0,,5,,,53,127
1027,note_off,410,0,0,,5,,,53,127
1028,note_on,1,0,0,,8,,,56,127
1330,note_off,302,0,0,,5,,,77,127
1435,note_off,105,0,0,,8,,,56,127
1439,note_on,4,0,0,,4,,,76,127
1644,note_off,205,0,0,,4,,,76,127
1645,note_on,1,0,0,,5,,,77,127
1851,note_on,206,0,0,,11,,,58,127
2261,note_off,410,0,0,,11,,,58,127
2262,note_on,1,0,0,,1,,,61,127
2467,note_off,205,0,0,,5,,,77,127
2669,note_off,202,0,0,,1,,,61,127
2673,note_on,4,0,0,,8,,,80,127
2878,note_off,205,0,0,,8,,,80,127
2879,note_on,1,0,0,,4,,,64,127
2879,note_on,0,0,0,,7,,,79,127
3084,note_off,205,0,0,,4,,,64,127
3085,note_on,1,0,0,,7,,,67,127
3290,note_off,205,0,0,,7,,,67,127
3291,note_on,1,0,0,,1,,,61,127
3496,note_off,205,0,0,,1,,,61,127
3497,note_on,1,0,0,,11,,,58,127
3630,note_off,133,0,0,,7,,,79,127
3702,note_off,72,0,0,,11,,,58,127
3703,note_on,1,0,0,,7,,,55,127
3908,note_off,205,0,0,,7,,,55,127
3909,note_on,1,0,0,,8,,,56,127
3909,note_on,0,0,0,,5,,,65,127
4115,note_on,206,0,0,,0,,,84,127
4320,note_off,205,0,0,,0,,,84,127
4320,note_off,0,0,0,,5,,,65,127
4320,note_off,0,0,0,,8,,,56,127
4321,note_on,1,0,0,,8,,,56,127
4321,note_on,0,0,0,,5,,,65,127
4321,note_on,0,0,0,,8,,,80,127
4526,note_off,205,0,0,,8,,,80,127
4527,note_on,1,0,0,,5,,,77,127
4732,note_off,205,0,0,,5,,,77,127
4732,note_off,0,0,0,,5,,,65,127
4732,note_off,0,0,0,,8,,,56,127
4733,note_on,1,0,0,,8,,,56,127
4733,note_on,0,0,0,,5,,,65,127
4733,note_on,0,0,0,,0,,,72,127
4938,note_off,205,0,0,,0,,,72,127
4939,note_on,1,0,0,,8,,,68,127
5144,note_off,205,0,0,,8,,,68,127
5144,note_off,0,0,0,,5,,,65,127
5144,note_off,0,0,0,,8,,,56,127
5145,note_on,1,0,0,,11,,,58,127
5145,note_on,0,0,0,,5,,,65,127
5145,note_on,0,0,0,,1,,,73,127
5350,note_off,205,0,0,,1,,,73,127
5351,note_on,1,0,0,,5,,,77,127
5556,note_off,205,0,0,,5,,,77,127
5556,note_off,0,0,0,,5,,,65,127
5556,note_off,0,0,0,,11,,,58,127
5557,note_on,1,0,0,,0,,,60,127
5557,note_on,0,0,0,,4,,,76,127
5762,note_off,205,0,0,,4,,,76,127
5763,note_on,1,0,0,,7,,,79,127
5968,note_off,205,0,0,,7,,,79,127
5968,note_off,0,0,0,,0,,,60,127
5969,note_on,1,0,0,,4,,,64,127
5969,note_on,0,0,0,,11,,,70,127
6174,note_off,205,0,0,,11,,,70,127
6175,note_on,1,0,0,,7,,,67,127
6380,note_off,205,0,0,,7,,,67,127
6380,note_off,0,0,0,,4,,,64,127
6381,note_on,1,0,0,,5,,,65,127
6381,note_on,0,0,0,,8,,,68,127
6587,note_on,206,0,0,,0,,,84,127
6690,note_off,103,0,0,,8,,,68,127
6792,note_off,102,0,0,,0,,,84,127
6792,note_off,0,0,0,,5,,,65,127
6793,note_on,1,0,0,,5,,,53,127
6793,note_on,0,0,0,,8,,,80,127
6998,note_off,205,0,0,,8,,,80,127
6999,note_on,1,0,0,,5,,,77,127
7204,note_off,205,0,0,,5,,,77,127
7204,note_off,0,0,0,,5,,,53,127
7205,note_on,1,0,0,,8,,,56,127
7205,note_on,0,0,0,,0,,,72,127
7410,note_off,205,0,0,,0,,,72,127
7411,note_on,1,0,0,,8,,,68,127
7616,note_off,205,0,0,,8,,,68,127
7616,note_off,0,0,0,,8,,,56,127
7617,note_on,1,0,0,,11,,,58,127
7617,note_on,0,0,0,,1,,,73,127
7822,note_off,205,0,0,,1,,,73,127
7823,note_on,1,0,0,,5,,,77,127
8028,note_off,205,0,0,,5,,,77,127
8028,note_off,0,0,0,,11,,,58,127
8029,note_on,1,0,0,,0,,,60,127
8029,note_on,0,0,0,,4,,,76,127
8234,note_off,205,0,0,,4,,,76,127
8235,note_on,1,0,0,,7,,,79,127
8440,note_off,205,0,0,,7,,,79,127
8440,note_off,0,0,0,,0,,,60,127
8441,note_on,1,0,0,,4,,,52,127
8441,note_on,0,0,0,,11,,,70,127
8646,note_off,205,0,0,,11,,,70,127
8647,note_on,1,0,0,,7,,,67,127
8852,note_off,205,0,0,,7,,,67,127
8852,note_off,0,0,0,,4,,,52,127
8853,note_on,1,0,0,,5,,,53,127
8853,note_on,0,0,0,,8,,,68,127
9058,note_off,205,0,0,,8,,,68,127
9059,note_on,1,0,0,,5,,,77,127
9264,note_off,205,0,0,,5,,,77,127
9264,note_off,0,0,0,,5,,,53,127
9265,note_on,1,0,0,,7,,,55,127
9265,note_on,0,0,0,,0,,,72,127
9470,note_off,205,0,0,,0,,,72,127
9471,note_on,1,0,0,,8,,,68,127
9676,note_off,205,0,0,,8,,,68,127
9676,note_off,0,0,0,,7,,,55,127
9677,note_on,1,0,0,,8,,,56,127
9677,note_on,0,0,0,,5,,,65,127
9882,note_off,205,0,0,,5,,,65,127
9883,note_on,1,0,0,,0,,,60,127
10088,note_off,205,0,0,,0,,,60,127
10088,note_off,0,0,0,,8,,,56,127
10089,note_on,1,0,0,,11,,,46,127
10089,note_on,0,0,0,,1,,,61,127
10294,note_off,205,0,0,,1,,,61,127
10295,note_on,1,0,0,,11,,,58,127
10500,note_off,205,0,0,,11,,,58,127
10500,note_off,0,0,0,,11,,,46,127
10501,note_on,1,0,0,,0,,,48,127
10501,note_on,0,0,0,,8,,,56,127
10706,note_off,205,0,0,,8,,,56,127
10707,note_on,1,0,0,,5,,,65,127
10912,note_off,205,0,0,,5,,,65,127
10912,note_off,0,0,0,,0,,,48,127
10913,note_on,1,0,0,,0,,,36,127
10913,note_on,0,0,0,,7,,,55,127
11118,note_off,205,0,0,,7,,,55,127
11119,note_on,1,0,0,,4,,,64,127
11323,note_off,204,0,0,,4,,,64,127
11324,note_off,1,0,0,,0,,,36,127
11325,note_on,1,0,0,,5,,,41,127
11531,note_on,206,0,0,,5,,,65,127
11736,note_off,205,0,0,,5,,,65,127
11737,note_on,1,0,0,,0,,,60,127
11942,note_off,205,0,0,,0,,,60,127
11943,note_on,1,0,0,,8,,,56,127
12148,note_off,205,0,0,,8,,,56,127
12149,note_on,1,0,0,,5,,,53,127
12353,note_off,204,0,0,,5,,,53,127
12354,note_off,1,0,0,,5,,,41,127
12355,note_on,1,0,0,,4,,,64,127
12560,note_off,205,0,0,,4,,,64,127
12565,note_on,5,0,0,,5,,,65,127
12779,note_on,214,0,0,,5,,,53,127
12972,note_off,193,0,0,,5,,,65,127
12998,note_on,26,0,0,,8,,,80,127
13100,note_off,102,0,0,,8,,,80,127
13101,note_on,1,0,0,,7,,,79,127
13190,note_off,89,0,0,,5,,,53,127
13203,note_off,13,0,0,,7,,,79,127
13204,note_on,1,0,0,,7,,,55,127
13204,note_on,0,0,0,,5,,,77,127
13409,note_off,205,0,0,,5,,,77,127
13409,note_off,0,0,0,,7,,,55,127
13410,note_on,1,0,0,,8,,,56,127
13410,note_on,0,0,0,,0,,,84,127
13615,note_off,205,0,0,,8,,,56,127
13616,note_on,1,0,0,,12,,,59,127
13821,note_off,205,0,0,,12,,,59,127
13822,note_on,1,0,0,,0,,,60,127
14000,note_off,178,0,0,,0,,,84,127
14028,note_on,28,0,0,,11,,,82,127
14130,note_off,102,0,0,,11,,,82,127
14131,note_on,1,0,0,,8,,,80,127
14233,note_off,102,0,0,,8,,,80,127
14233,note_off,0,0,0,,0,,,60,127
14234,note_on,1,0,0,,0,,,48,127
14234,note_on,0,0,0,,7,,,79,127
14439,note_off,205,0,0,,7,,,79,127
14440,note_on,1,0,0,,5,,,77,127
14645,note_off,205,0,0,,0,,,48,127
14646,note_on,1,0,0,,0,,,60,127
14851,note_off,205,0,0,,5,,,77,127
14852,note_on,1,0,0,,4,,,76,127
15056,note_off,204,0,0,,4,,,76,127
15057,note_off,1,0,0,,0,,,60,127
15062,note_on,5,0,0,,1,,,61,127
15267,note_off,205,0,0,,1,,,61,127
15268,note_on,1,0,0,,1,,,49,127
15474,note_on,206,0,0,,5,,,77,127
15576,note_off,102,0,0,,5,,,77,127
15577,note_on,1,0,0,,3,,,75,127
15679,note_off,102,0,0,,3,,,75,127
15679,note_off,0,0,0,,1,,,49,127
15680,note_on,1,0,0,,1,,,73,127
15680,note_on,0,0,0,,3,,,51,127
15885,note_off,205,0,0,,3,,,51,127
15885,note_off,0,0,0,,1,,,73,127
15886,note_on,1,0,0,,8,,,80,127
15886,note_on,0,0,0,,5,,,53,127
16091,note_off,205,0,0,,5,,,53,127
16092,note_on,1,0,0,,7,,,55,127
16297,note_off,205,0,0,,7,,,55,127
16298,note_on,1,0,0,,8,,,56,127
16465,note_off,167,0,0,,8,,,80,127
16504,note_on,39,0,0,,7,,,79,127
16606,note_off,102,0,0,,7,,,79,127
16607,note_on,1,0,0,,5,,,77,127
16709,note_off,102,0,0,,5,,,77,127
16709,note_off,0,0,0,,8,,,56,127
16710,note_on,1,0,0,,3,,,75,127
16710,note_on,0,0,0,,8,,,44,127
16915,note_off,205,0,0,,3,,,75,127
16916,note_on,1,0,0,,1,,,73,127
17121,note_off,205,0,0,,8,,,44,127
17122,note_on,1,0,0,,8,,,56,127
17327,note_off,205,0,0,,1,,,73,127
17328,note_on,1,0,0,,0,,,72,127
17532,note_off,204,0,0,,0,,,72,127
17533,note_off,1,0,0,,8,,,56,127
17538,note_on,5,0,0,,11,,,58,127
17743,note_off,205,0,0,,11,,,58,127
17744,note_on,1,0,0,,11,,,46,127
17950,note_on,206,0,0,,1,,,73,127
18052,note_off,102,0,0,,1,,,73,127
18053,note_on,1,0,0,,0,,,72,127
18155,note_off,102,0,0,,0,,,72,127
18155,note_off,0,0,0,,11,,,46,127
18156,note_on,1,0,0,,0,,,48,127
18156,note_on,0,0,0,,11,,,70,127
18361,note_off,205,0,0,,11,,,70,127
18361,note_off,0,0,0,,0,,,48,127
18362,note_on,1,0,0,,1,,,49,127
18362,note_on,0,0,0,,1,,,73,127
18362,note_on,0,0,0,,11,,,82,127
18567,note_off,205,0,0,,1,,,49,127
18568,note_on,1,0,0,,4,,,52,127
18773,note_off,205,0,0,,4,,,52,127
18773,note_off,0,0,0,,1,,,73,127
18774,note_on,1,0,0,,5,,,53,127
18774,note_on,0,0,0,,0,,,72,127
18930,note_off,156,0,0,,11,,,82,127
18979,note_on,49,0,0,,11,,,82,127
19184,note_off,205,0,0,,11,,,82,127
19184,note_off,0,0,0,,5,,,53,127
19185,note_on,1,0,0,,5,,,65,127
19185,note_on,0,0,0,,8,,,80,127
19287,note_off,102,0,0,,8,,,80,127
19288,note_on,1,0,0,,7,,,79,127
19390,note_off,102,0,0,,7,,,79,127
19391,note_on,1,0,0,,5,,,77,127
19596,note_off,205,0,0,,5,,,77,127
19596,note_off,0,0,0,,5,,,65,127
19596,note_off,0,0,0,,0,,,72,127
19597,note_on,1,0,0,,7,,,55,127
19597,note_on,0,0,0,,12,,,71,127
19597,note_on,0,0,0,,5,,,77,127
19699,note_off,102,0,0,,5,,,77,127
19700,note_on,1,0,0,,3,,,75,127
19802,note_off,102,0,0,,3,,,75,127
19803,note_on,1,0,0,,2,,,74,127
20004,note_off,201,0,0,,12,,,71,127
20006,note_off,2,0,0,,2,,,74,127
20007,note_off,1,0,0,,7,,,55,127
20008,note_on,1,0,0,,0,,,60,127
20213,note_off,205,0,0,,0,,,60,127
20214,note_on,1,0,0,,0,,,48,127
20420,note_on,206,0,0,,3,,,75,127
20522,note_off,102,0,0,,3,,,75,127
20523,note_on,1,0,0,,2,,,74,127
20625,note_off,102,0,0,,2,,,74,127
20625,note_off,0,0,0,,0,,,48,127
20626,note_on,1,0,0,,2,,,50,127
20626,note_on,0,0,0,,0,,,72,127
20831,note_off,205,0,0,,0,,,72,127
20831,note_off,0,0,0,,2,,,50,127
20832,note_on,1,0,0,,3,,,51,127
20832,note_on,0,0,0,,0,,,84,127
20832,note_on,0,0,0,,3,,,75,127
21037,note_off,205,0,0,,3,,,51,127
21038,note_on,1,0,0,,6,,,54,127
21243,note_off,205,0,0,,6,,,54,127
21243,note_off,0,0,0,,3,,,75,127
21244,note_on,1,0,0,,7,,,55,127
21244,note_on,0,0,0,,2,,,74,127
21449,note_off,205,0,0,,0,,,84,127
21450,note_on,1,0,0,,0,,,84,127
21651,note_off,201,0,0,,2,,,74,127
21654,note_off,3,0,0,,0,,,84,127
21654,note_off,0,0,0,,7,,,55,127
21655,note_on,1,0,0,,7,,,67,127
21655,note_on,0,0,0,,7,,,55,127
21655,note_on,0,0,0,,12,,,83,127
21757,note_off,102,0,0,,12,,,83,127
21758,note_on,1,0,0,,8,,,80,127
21860,note_off,102,0,0,,8,,,80,127
21861,note_on,1,0,0,,7,,,79,127
22066,note_off,205,0,0,,7,,,79,127
22066,note_off,0,0,0,,7,,,55,127
22066,note_off,0,0,0,,7,,,67,127
22067,note_on,1,0,0,,7,,,55,127
22067,note_on,0,0,0,,7,,,67,127
22067,note_on,0,0,0,,5,,,77,127
22169,note_off,102,0,0,,5,,,77,127
22170,note_on,1,0,0,,3,,,75,127
22272,note_off,102,0,0,,3,,,75,127
22273,note_on,1,0,0,,2,,,74,127
22478,note_off,205,0,0,,2,,,74,127
22478,note_off,0,0,0,,7,,,67,127
22478,note_off,0,0,0,,7,,,55,127
22479,note_on,1,0,0,,5,,,65,127
22479,note_on,0,0,0,,8,,,56,127
22479,note_on,0,0,0,,2,,,74,127
22684,note_off,205,0,0,,2,,,74,127
22685,note_on,1,0,0,,3,,,75,127
22890,note_off,205,0,0,,3,,,75,127
22890,note_off,0,0,0,,8,,,56,127
22890,note_off,0,0,0,,5,,,65,127
22891,note_on,1,0,0,,8,,,56,127
22891,note_on,0,0,0,,5,,,65,127
22891,note_on,0,0,0,,5,,,77,127
22993,note_off,102,0,0,,5,,,77,127
22994,note_on,1,0,0,,3,,,75,127
23096,note_off,102,0,0,,3,,,75,127
23097,note_on,1,0,0,,2,,,74,127
23302,note_off,205,0,0,,2,,,74,127
23302,note_off,0,0,0,,5,,,65,127
23302,note_off,0,0,0,,8,,,56,127
23303,note_on,1,0,0,,8,,,56,127
23303,note_on,0,0,0,,5,,,65,127
23303,note_on,0,0,0,,2,,,74,127
23405,note_off,102,0,0,,2,,,74,127
23406,note_on,1,0,0,,0,,,72,127
23508,note_off,102,0,0,,0,,,72,127
23509,note_on,1,0,0,,12,,,71,127
23611,note_off,102,0,0,,12,,,71,127
23612,note_on,1,0,0,,0,,,72,127
23711,note_off,99,0,0,,5,,,65,127
23711,note_off,0,0,0,,8,,,56,127
23714,note_off,3,0,0,,0,,,72,127
23715,note_on,1,0,0,,0,,,72,127
23921,note_on,206,0,0,,7,,,67,127
24122,note_off,201,0,0,,0,,,72,127
24125,note_off,3,0,0,,7,,,67,127
24126,note_on,1,0,0,,2,,,62,127
24126,note_on,0,0,0,,2,,,74,127
24331,note_off,205,0,0,,2,,,62,127
24332,note_on,1,0,0,,12,,,59,127
24537,note_off,205,0,0,,12,,,59,127
24538,note_on,1,0,0,,7,,,55,127
24743,note_off,205,0,0,,7,,,55,127
24743,note_off,0,0,0,,2,,,74,127
24744,note_on,1,0,0,,2,,,50,127
24949,note_off,205,0,0,,2,,,50,127
24950,note_on,1,0,0,,7,,,43,127
26047,note_off,1097,0,0,,7,,,43,127
26164,note_on,117,0,0,,11,,,82,127
26335,note_off,171,0,0,,11,,,82,127
26355,note_on,20,0,0,,8,,,80,127
26560,note_off,205,0,0,,8,,,80,127
26561,note_on,1,0,0,,7,,,79,127
26766,note_off,205,0,0,,7,,,79,127
26767,note_on,1,0,0,,5,,,77,127
26972,note_off,205,0,0,,5,,,77,127
26973,note_on,1,0,0,,4,,,76,127
27178,note_off,205,0,0,,4,,,76,127
27179,note_on,1,0,0,,5,,,77,127
27385,note_on,206,0,0,,11,,,70,127
27590,note_off,205,0,0,,11,,,70,127
27590,note_off,0,0,0,,5,,,77,127
27591,note_on,1,0,0,,8,,,68,127
27591,note_on,0,0,0,,5,,,77,127
27796,note_off,205,0,0,,8,,,68,127
27797,note_on,1,0,0,,7,,,67,127
28002,note_off,205,0,0,,7,,,67,127
28002,note_off,0,0,0,,5,,,77,127
28003,note_on,1,0,0,,5,,,65,127
28003,note_on,0,0,0,,5,,,77,127
28208,note_off,205,0,0,,5,,,65,127
28209,note_on,1,0,0,,4,,,64,127
28410,note_off,201,0,0,,5,,,77,127
28413,note_off,3,0,0,,4,,,64,127
28414,note_on,1,0,0,,5,,,41,127
28620,note_on,206,0,0,,5,,,77,127
28620,note_on,0,0,0,,8,,,80,127
28825,note_off,205,0,0,,8,,,80,127
28825,note_off,0,0,0,,5,,,77,127
28825,note_off,0,0,0,,5,,,41,127
28826,note_on,1,0,0,,5,,,41,127
28826,note_on,0,0,0,,3,,,75,127
28826,note_on,0,0,0,,7,,,79,127
29031,note_off,205,0,0,,7,,,79,127
29031,note_off,0,0,0,,3,,,75,127
29032,note_on,1,0,0,,2,,,74,127
29032,note_on,0,0,0,,5,,,77,127
29237,note_off,205,0,0,,5,,,77,127
29237,note_off,0,0,0,,2,,,74,127
29237,note_off,0,0,0,,5,,,41,127
29238,note_on,1,0,0,,5,,,41,127
29238,note_on,0,0,0,,0,,,72,127
29238,note_on,0,0,0,,3,,,75,127
29443,note_off,205,0,0,,3,,,75,127
29443,note_off,0,0,0,,0,,,72,127
29444,note_on,1,0,0,,12,,,71,127
29444,note_on,0,0,0,,2,,,74,127
29645,note_off,201,0,0,,5,,,41,127
29648,note_off,3,0,0,,2,,,74,127
29648,note_off,0,0,0,,12,,,71,127
29649,note_on,1,0,0,,0,,,72,127
29855,note_on,206,0,0,,8,,,68,127
30060,note_off,205,0,0,,8,,,68,127
30060,note_off,0,0,0,,0,,,72,127
30061,note_on,1,0,0,,7,,,67,127
30061,note_on,0,0,0,,0,,,72,127
30266,note_off,205,0,0,,7,,,67,127
30267,note_on,1,0,0,,5,,,65,127
30472,note_off,205,0,0,,5,,,65,127
30472,note_off,0,0,0,,0,,,72,127
30473,note_on,1,0,0,,3,,,63,127
30473,note_on,0,0,0,,0,,,72,127
30678,note_off,205,0,0,,3,,,63,127
30679,note_on,1,0,0,,2,,,62,127
30880,note_off,201,0,0,,0,,,72,127
30883,note_off,3,0,0,,2,,,62,127
30884,note_on,1,0,0,,3,,,39,127
31090,note_on,206,0,0,,7,,,79,127
31295,note_off,205,0,0,,7,,,79,127
31295,note_off,0,0,0,,3,,,39,127
31296,note_on,1,0,0,,3,,,39,127
31296,note_on,0,0,0,,5,,,77,127
31501,note_off,205,0,0,,5,,,77,127
31502,note_on,1,0,0,,3,,,75,127
31707,note_off,205,0,0,,3,,,75,127
31707,note_off,0,0,0,,3,,,39,127
31708,note_on,1,0,0,,3,,,39,127
31708,note_on,0,0,0,,2,,,74,127
31913,note_off,205,0,0,,2,,,74,127
31914,note_on,1,0,0,,0,,,72,127
32119,note_off,205,0,0,,0,,,72,127
32119,note_off,0,0,0,,3,,,39,127
32120,note_on,1,0,0,,5,,,41,127
32120,note_on,0,0,0,,2,,,74,127
32325,note_off,205,0,0,,2,,,74,127
32326,note_on,1,0,0,,8,,,68,127
32326,note_on,0,0,0,,5,,,77,127
32531,note_off,205,0,0,,5,,,77,127
32531,note_off,0,0,0,,8,,,68,127
32531,note_off,0,0,0,,5,,,41,127
32532,note_on,1,0,0,,7,,,43,127
32532,note_on,0,0,0,,7,,,67,127
32532,note_on,0,0,0,,3,,,75,127
32737,note_off,205,0,0,,3,,,75,127
32737,note_off,0,0,0,,7,,,67,127
32738,note_on,1,0,0,,5,,,65,127
32738,note_on,0,0,0,,2,,,74,127
32943,note_off,205,0,0,,2,,,74,127
32943,note_off,0,0,0,,5,,,65,127
32943,note_off,0,0,0,,7,,,43,127
32944,note_on,1,0,0,,7,,,43,127
32944,note_on,0,0,0,,3,,,63,127
32944,note_on,0,0,0,,0,,,72,127
33149,note_off,205,0,0,,0,,,72,127
33149,note_off,0,0,0,,3,,,63,127
33150,note_on,1,0,0,,2,,,62,127
33150,note_on,0,0,0,,12,,,71,127
33355,note_off,205,0,0,,12,,,71,127
33355,note_off,0,0,0,,2,,,62,127
33355,note_off,0,0,0,,7,,,43,127
33356,note_on,1,0,0,,0,,,36,127
33356,note_on,0,0,0,,3,,,63,127
33356,note_on,0,0,0,,0,,,72,127
33561,note_off,205,0,0,,0,,,72,127
33561,note_off,0,0,0,,3,,,63,127
33562,note_on,1,0,0,,7,,,79,127
33629,note_off,67,0,0,,7,,,79,127
33630,note_on,1,0,0,,8,,,80,127
33664,note_off,34,0,0,,0,,,36,127
33697,note_off,33,0,0,,8,,,80,127
33698,note_on,1,0,0,,11,,,82,127
33765,note_off,67,0,0,,11,,,82,127
33766,note_on,1,0,0,,8,,,80,127
33971,note_off,205,0,0,,8,,,80,127
33972,note_on,1,0,0,,7,,,79,127
34177,note_off,205,0,0,,7,,,79,127
34178,note_on,1,0,0,,5,,,77,127
34383,note_off,205,0,0,,5,,,77,127
34384,note_on,1,0,0,,4,,,76,127
34589,note_off,205,0,0,,4,,,76,127
34590,note_on,1,0,0,,5,,,77,127
34796,note_on,206,0,0,,7,,,67,127
34863,note_off,67,0,0,,7,,,67,127
34864,note_on,1,0,0,,8,,,68,127
34931,note_off,67,0,0,,8,,,68,127
34932,note_on,1,0,0,,11,,,70,127
34999,note_off,67,0,0,,11,,,70,127
34999,note_off,0,0,0,,5,,,77,127
35000,note_on,1,0,0,,8,,,68,127
35000,note_on,0,0,0,,5,,,77,127
35205,note_off,205,0,0,,8,,,68,127
35206,note_on,1,0,0,,7,,,67,127
35411,note_off,205,0,0,,7,,,67,127
35411,note_off,0,0,0,,5,,,77,127
35412,note_on,1,0,0,,5,,,65,127
35412,note_on,0,0,0,,5,,,77,127
35617,note_off,205,0,0,,5,,,65,127
35618,note_on,1,0,0,,4,,,64,127
35819,note_off,201,0,0,,5,,,77,127
35822,note_off,3,0,0,,4,,,64,127
35823,note_on,1,0,0,,5,,,41,127
36029,note_on,206,0,0,,5,,,77,127
36096,note_off,67,0,0,,5,,,77,127
36097,note_on,1,0,0,,7,,,79,127
36164,note_off,67,0,0,,7,,,79,127
36165,note_on,1,0,0,,5,,,77,127
36165,note_on,0,0,0,,8,,,80,127
36232,note_off,67,0,0,,8,,,80,127
36232,note_off,0,0,0,,5,,,77,127
36232,note_off,0,0,0,,5,,,41,127
36233,note_on,1,0,0,,5,,,41,127
36233,note_on,0,0,0,,3,,,75,127
36233,note_on,0,0,0,,7,,,79,127
36438,note_off,205,0,0,,7,,,79,127
36438,note_off,0,0,0,,3,,,75,127
36439,note_on,1,0,0,,2,,,74,127
36439,note_on,0,0,0,,5,,,77,127
36644,note_off,205,0,0,,5,,,77,127
36644,note_off,0,0,0,,2,,,74,127
36644,note_off,0,0,0,,5,,,41,127
36645,note_on,1,0,0,,5,,,41,127
36645,note_on,0,0,0,,0,,,72,127
36645,note_on,0,0,0,,3,,,75,127
36850,note_off,205,0,0,,3,,,75,127
36850,note_off,0,0,0,,0,,,72,127
36851,note_on,1,0,0,,12,,,71,127
36851,note_on,0,0,0,,2,,,74,127
37052,note_off,201,0,0,,5,,,41,127
37055,note_off,3,0,0,,2,,,74,127
37055,note_off,0,0,0,,12,,,71,127
37056,note_on,1,0,0,,0,,,72,127
37262,note_on,206,0,0,,5,,,65,127
37329,note_off,67,0,0,,5,,,65,127
37330,note_on,1,0,0,,7,,,67,127
37397,note_off,67,0,0,,7,,,67,127
37398,note_on,1,0,0,,8,,,68,127
37465,note_off,67,0,0,,8,,,68,127
37465,note_off,0,0,0,,0,,,72,127
37466,note_on,1,0,0,,7,,,67,127
37466,note_on,0,0,0,,0,,,72,127
37671,note_off,205,0,0,,7,,,67,127
37672,note_on,1,0,0,,5,,,65,127
37877,note_off,205,0,0,,5,,,65,127
37877,note_off,0,0,0,,0,,,72,127
37878,note_on,1,0,0,,3,,,63,127
37878,note_on,0,0,0,,0,,,72,127
38083,note_off,205,0,0,,3,,,63,127
38084,note_on,1,0,0,,2,,,62,127
38285,note_off,201,0,0,,0,,,72,127
38288,note_off,3,0,0,,2,,,62,127
38289,note_on,1,0,0,,3,,,39,127
38495,note_on,206,0,0,,3,,,75,127
38562,note_off,67,0,0,,3,,,75,127
38563,note_on,1,0,0,,5,,,77,127
38630,note_off,67,0,0,,5,,,77,127
38631,note_on,1,0,0,,7,,,79,127
38698,note_off,67,0,0,,7,,,79,127
38698,note_off,0,0,0,,3,,,39,127
38699,note_on,1,0,0,,3,,,39,127
38699,note_on,0,0,0,,5,,,77,127
38904,note_off,205,0,0,,5,,,77,127
38905,note_on,1,0,0,,3,,,75,127
39110,note_off,205,0,0,,3,,,75,127
39110,note_off,0,0,0,,3,,,39,127
39111,note_on,1,0,0,,3,,,39,127
39111,note_on,0,0,0,,2,,,74,127
39316,note_off,205,0,0,,2,,,74,127
39317,note_on,1,0,0,,0,,,72,127
39522,note_off,205,0,0,,0,,,72,127
39522,note_off,0,0,0,,3,,,39,127
39523,note_on,1,0,0,,5,,,41,127
39523,note_on,0,0,0,,2,,,74,127
39728,note_off,205,0,0,,2,,,74,127
39729,note_on,1,0,0,,8,,,68,127
39729,note_on,0,0,0,,5,,,77,127
39934,note_off,205,0,0,,5,,,77,127
39934,note_off,0,0,0,,8,,,68,127
39934,note_off,0,0,0,,5,,,41,127
39935,note_on,1,0,0,,7,,,43,127
39935,note_on,0,0,0,,7,,,67,127
39935,note_on,0,0,0,,3,,,75,127
40140,note_off,205,0,0,,3,,,75,127
40140,note_off,0,0,0,,7,,,67,127
40141,note_on,1,0,0,,5,,,65,127
40141,note_on,0,0,0,,2,,,74,127
40346,note_off,205,0,0,,2,,,74,127
40346,note_off,0,0,0,,5,,,65,127
40346,note_off,0,0,0,,7,,,43,127
40347,note_on,1,0,0,,7,,,43,127
40347,note_on,0,0,0,,0,,,72,127
40347,note_on,0,0,0,,3,,,63,127
40552,note_off,205,0,0,,3,,,63,127
40552,note_off,0,0,0,,0,,,72,127
40553,note_on,1,0,0,,12,,,71,127
40553,note_on,0,0,0,,2,,,62,127
40758,note_off,205,0,0,,2,,,62,127
40758,note_off,0,0,0,,12,,,71,127
40758,note_off,0,0,0,,7,,,43,127
40759,note_on,1,0,0,,0,,,36,127
40759,note_on,0,0,0,,0,,,72,127
40759,note_on,0,0,0,,3,,,63,127
40964,note_off,205,0,0,,3,,,63,127
40964,note_off,0,0,0,,0,,,72,127
40964,note_off,0,0,0,,0,,,36,127
40965,note_on,1,0,0,,7,,,55,127
40965,note_on,0,0,0,,7,,,67,127
41170,note_off,205,0,0,,7,,,67,127
41170,note_off,0,0,0,,7,,,55,127
41171,note_on,1,0,0,,3,,,51,127
41171,note_on,0,0,0,,3,,,63,127
41376,note_off,205,0,0,,3,,,63,127
41376,note_off,0,0,0,,3,,,51,127
41377,note_on,1,0,0,,5,,,53,127
41377,note_on,0,0,0,,5,,,65,127
41582,note_off,205,0,0,,5,,,65,127
41582,note_off,0,0,0,,5,,,53,127
41583,note_on,1,0,0,,7,,,55,127
41583,note_on,0,0,0,,7,,,67,127
41788,note_off,205,0,0,,7,,,67,127
41788,note_off,0,0,0,,7,,,55,127
41789,note_on,1,0,0,,8,,,56,127
41789,note_on,0,0,0,,8,,,68,127
41994,note_off,205,0,0,,8,,,68,127
41994,note_off,0,0,0,,8,,,56,127
41995,note_on,1,0,0,,7,,,55,127
41995,note_on,0,0,0,,7,,,67,127
42200,note_off,205,0,0,,7,,,67,127
42201,note_on,1,0,0,,3,,,63,127
42201,note_on,0,0,0,,0,,,72,127
42406,note_off,205,0,0,,0,,,72,127
42406,note_off,0,0,0,,3,,,63,127
42406,note_off,0,0,0,,7,,,55,127
42407,note_on,1,0,0,,7,,,43,127
42407,note_on,0,0,0,,2,,,62,127
42407,note_on,0,0,0,,12,,,71,127
42612,note_off,205,0,0,,12,,,71,127
42612,note_off,0,0,0,,2,,,62,127
42613,note_on,1,0,0,,0,,,72,127
42613,note_on,0,0,0,,3,,,63,127
42818,note_off,205,0,0,,3,,,63,127
42818,note_off,0,0,0,,0,,,72,127
42818,note_off,0,0,0,,7,,,43,127
42819,note_on,1,0,0,,7,,,43,127
42819,note_on,0,0,0,,2,,,74,127
42819,note_on,0,0,0,,5,,,65,127
43024,note_off,205,0,0,,5,,,65,127
43024,note_off,0,0,0,,2,,,74,127
43025,note_on,1,0,0,,12,,,71,127
43025,note_on,0,0,0,,2,,,62,127
43230,note_off,205,0,0,,2,,,62,127
43230,note_off,0,0,0,,12,,,71,127
43230,note_off,0,0,0,,7,,,43,127
43231,note_on,1,0,0,,0,,,36,127
43231,note_on,0,0,0,,3,,,63,127
43231,note_on,0,0,0,,0,,,72,127
43436,note_off,205,0,0,,0,,,72,127
43436,note_off,0,0,0,,3,,,63,127
43436,note_off,0,0,0,,0,,,36,127
43437,note_on,1,0,0,,7,,,55,127
43437,note_on,0,0,0,,7,,,67,127
43642,note_off,205,0,0,,7,,,67,127
43642,note_off,0,0,0,,7,,,55,127
43643,note_on,1,0,0,,3,,,51,127
43643,note_on,0,0,0,,3,,,63,127
43848,note_off,205,0,0,,3,,,63,127
43848,note_off,0,0,0,,3,,,51,127
43849,note_on,1,0,0,,5,,,53,127
43849,note_on,0,0,0,,5,,,65,127
44054,note_off,205,0,0,,5,,,65,127
44054,note_off,0,0,0,,5,,,53,127
44055,note_on,1,0,0,,7,,,55,127
44055,note_on,0,0,0,,7,,,67,127
44260,note_off,205,0,0,,7,,,67,127
44260,note_off,0,0,0,,7,,,55,127
44261,note_on,1,0,0,,8,,,56,127
44261,note_on,0,0,0,,8,,,68,127
44466,note_off,205,0,0,,8,,,68,127
44466,note_off,0,0,0,,8,,,56,127
44467,note_on,1,0,0,,7,,,55,127
44467,note_on,0,0,0,,7,,,67,127
44672,note_off,205,0,0,,7,,,67,127
44673,note_on,1,0,0,,3,,,75,127
44673,note_on,0,0,0,,0,,,72,127
44878,note_off,205,0,0,,0,,,72,127
44878,note_off,0,0,0,,3,,,75,127
44878,note_off,0,0,0,,7,,,55,127
44879,note_on,1,0,0,,7,,,43,127
44879,note_on,0,0,0,,2,,,74,127
44879,note_on,0,0,0,,12,,,71,127
45084,note_off,205,0,0,,12,,,71,127
45084,note_off,0,0,0,,2,,,74,127
45085,note_on,1,0,0,,0,,,72,127
45085,note_on,0,0,0,,3,,,75,127
45290,note_off,205,0,0,,3,,,75,127
45290,note_off,0,0,0,,0,,,72,127
45290,note_off,0,0,0,,7,,,43,127
45291,note_on,1,0,0,,7,,,43,127
45291,note_on,0,0,0,,2,,,74,127
45291,note_on,0,0,0,,5,,,77,127
45496,note_off,205,0,0,,5,,,77,127
45496,note_off,0,0,0,,2,,,74,127
45497,note_on,1,0,0,,12,,,71,127
45497,note_on,0,0,0,,2,,,74,127
45702,note_off,205,0,0,,2,,,74,127
45702,note_off,0,0,0,,12,,,71,127
45702,note_off,0,0,0,,7,,,43,127
45703,note_on,1,0,0,,0,,,36,127
45703,note_on,0,0,0,,0,,,72,127
45703,note_on,0,0,0,,3,,,75,127
45908,note_off,205,0,0,,3,,,75,127
45908,note_off,0,0,0,,0,,,72,127
45908,note_off,0,0,0,,0,,,36,127
45909,note_on,1,0,0,,7,,,55,127
45909,note_on,0,0,0,,7,,,67,127
46114,note_off,205,0,0,,7,,,67,127
46114,note_off,0,0,0,,7,,,55,127
46115,note_on,1,0,0,,3,,,51,127
46115,note_on,0,0,0,,3,,,63,127
46320,note_off,205,0,0,,3,,,63,127
46320,note_off,0,0,0,,3,,,51,127
46321,note_on,1,0,0,,5,,,53,127
46321,note_on,0,0,0,,5,,,65,127
46526,note_off,205,0,0,,5,,,65,127
46526,note_off,0,0,0,,5,,,53,127
46527,note_on,1,0,0,,7,,,55,127
46527,note_on,0,0,0,,7,,,67,127
46732,note_off,205,0,0,,7,,,67,127
46732,note_off,0,0,0,,7,,,55,127
46733,note_on,1,0,0,,8,,,56,127
46733,note_on,0,0,0,,8,,,68,127
46938,note_off,205,0,0,,8,,,68,127
46938,note_off,0,0,0,,8,,,56,127
46939,note_on,1,0,0,,7,,,55,127
46939,note_on,0,0,0,,7,,,67,127
47144,note_off,205,0,0,,7,,,67,127
47145,note_on,1,0,0,,0,,,84,127
47145,note_on,0,0,0,,3,,,75,127
47350,note_off,205,0,0,,3,,,75,127
47350,note_off,0,0,0,,0,,,84,127
47350,note_off,0,0,0,,7,,,55,127
47351,note_on,1,0,0,,7,,,43,127
47351,note_on,0,0,0,,2,,,74,127
47351,note_on,0,0,0,,12,,,83,127
47556,note_off,205,0,0,,12,,,83,127
47556,note_off,0,0,0,,2,,,74,127
47557,note_on,1,0,0,,3,,,75,127
47557,note_on,0,0,0,,0,,,84,127
47762,note_off,205,0,0,,0,,,84,127
47762,note_off,0,0,0,,3,,,75,127
47762,note_off,0,0,0,,7,,,43,127
47763,note_on,1,0,0,,7,,,43,127
47763,note_on,0,0,0,,2,,,86,127
47763,note_on,0,0,0,,5,,,77,127
47968,note_off,205,0,0,,5,,,77,127
47968,note_off,0,0,0,,2,,,86,127
47969,note_on,1,0,0,,12,,,83,127
47969,note_on,0,0,0,,2,,,74,127
48174,note_off,205,0,0,,2,,,74,127
48174,note_off,0,0,0,,12,,,83,127
48174,note_off,0,0,0,,7,,,43,127
48175,note_on,1,0,0,,0,,,48,127
48175,note_on,0,0,0,,3,,,75,127
48175,note_on,0,0,0,,0,,,84,127
48380,note_off,205,0,0,,0,,,84,127
48380,note_off,0,0,0,,3,,,75,127
48381,note_on,1,0,0,,2,,,74,127
48381,note_on,0,0,0,,11,,,82,127
48586,note_off,205,0,0,,11,,,82,127
48586,note_off,0,0,0,,2,,,74,127
48586,note_off,0,0,0,,0,,,48,127
48587,note_on,1,0,0,,2,,,50,127
48587,note_on,0,0,0,,8,,,80,127
48587,note_on,0,0,0,,0,,,72,127
48792,note_off,205,0,0,,0,,,72,127
48792,note_off,0,0,0,,8,,,80,127
48793,note_on,1,0,0,,11,,,70,127
48793,note_on,0,0,0,,7,,,79,127
48998,note_off,205,0,0,,7,,,79,127
48998,note_off,0,0,0,,11,,,70,127
48998,note_off,0,0,0,,2,,,50,127
48999,note_on,1,0,0,,3,,,51,127
48999,note_on,0,0,0,,5,,,77,127
48999,note_on,0,0,0,,8,,,68,127
49204,note_off,205,0,0,,8,,,68,127
49204,note_off,0,0,0,,5,,,77,127
49205,note_on,1,0,0,,3,,,75,127
49205,note_on,0,0,0,,7,,,67,127
49410,note_off,205,0,0,,7,,,67,127
49410,note_off,0,0,0,,3,,,75,127
49410,note_off,0,0,0,,3,,,51,127
49411,note_on,1,0,0,,5,,,53,127
49411,note_on,0,0,0,,2,,,74,127
49411,note_on,0,0,0,,5,,,65,127
49547,note_off,136,0,0,,2,,,74,127
49548,note_on,1,0,0,,3,,,75,127
49684,note_off,136,0,0,,3,,,75,127
49685,note_on,1,0,0,,5,,,77,127
49818,note_off,133,0,0,,5,,,65,127
49821,note_off,3,0,0,,5,,,77,127
49821,note_off,0,0,0,,5,,,53,127
49822,note_on,1,0,0,,7,,,55,127
49822,note_on,0,0,0,,3,,,75,127
49822,note_on,0,0,0,,7,,,67,127
50027,note_off,205,0,0,,7,,,67,127
50027,note_off,0,0,0,,3,,,75,127
50028,note_on,1,0,0,,2,,,74,127
50028,note_on,0,0,0,,5,,,65,127
50233,note_off,205,0,0,,5,,,65,127
50233,note_off,0,0,0,,2,,,74,127
50233,note_off,0,0,0,,7,,,55,127
50234,note_on,1,0,0,,7,,,43,127
50234,note_on,0,0,0,,3,,,63,127
50234,note_on,0,0,0,,0,,,72,127
50439,note_off,205,0,0,,0,,,72,127
50439,note_off,0,0,0,,3,,,63,127
50440,note_on,1,0,0,,2,,,62,127
50440,note_on,0,0,0,,12,,,71,127
50645,note_off,205,0,0,,12,,,71,127
50645,note_off,0,0,0,,2,,,62,127
50645,note_off,0,0,0,,7,,,43,127
50646,note_on,1,0,0,,0,,,36,127
50646,note_on,0,0,0,,0,,,60,127
50646,note_on,0,0,0,,0,,,72,127
51468,note_off,822,0,0,,0,,,72,127
51468,note_off,0,0,0,,0,,,60,127
51879,note_off,411,0,0,,0,,,36,127
51880,note_on,1,0,0,,0,,,60,127
51880,note_on,0,0,0,,3,,,63,127
52086,note_on,206,0,0,,0,,,72,127
52153,note_off,67,0,0,,0,,,72,127
52154,note_on,1,0,0,,1,,,73,127
52221,note_off,67,0,0,,1,,,73,127
52222,note_on,1,0,0,,3,,,75,127
52289,note_off,67,0,0,,3,,,75,127
52289,note_off,0,0,0,,3,,,63,127
52289,note_off,0,0,0,,0,,,60,127
52290,note_on,1,0,0,,3,,,63,127
52290,note_on,0,0,0,,0,,,60,127
52290,note_on,0,0,0,,1,,,73,127
52495,note_off,205,0,0,,1,,,73,127
52496,note_on,1,0,0,,0,,,72,127
52701,note_off,205,0,0,,0,,,72,127
52701,note_off,0,0,0,,0,,,60,127
52701,note_off,0,0,0,,3,,,63,127
52702,note_on,1,0,0,,3,,,63,127
52702,note_on,0,0,0,,0,,,60,127
52702,note_on,0,0,0,,11,,,70,127
52907,note_off,205,0,0,,11,,,70,127
52908,note_on,1,0,0,,8,,,68,127
53113,note_off,205,0,0,,8,,,68,127
53113,note_off,0,0,0,,0,,,60,127
53113,note_off,0,0,0,,3,,,63,127
53114,note_on,1,0,0,,1,,,61,127
53114,note_on,0,0,0,,5,,,65,127
53114,note_on,0,0,0,,7,,,67,127
53319,note_off,205,0,0,,7,,,67,127
53320,note_on,1,0,0,,8,,,68,127
53525,note_off,205,0,0,,8,,,68,127
53525,note_off,0,0,0,,5,,,65,127
53525,note_off,0,0,0,,1,,,61,127
53526,note_on,1,0,0,,1,,,61,127
53526,note_on,0,0,0,,5,,,65,127
53526,note_on,0,0,0,,7,,,67,127
53731,note_off,205,0,0,,7,,,67,127
53732,note_on,1,0,0,,8,,,68,127
53937,note_off,205,0,0,,8,,,68,127
53937,note_off,0,0,0,,5,,,65,127
53937,note_off,0,0,0,,1,,,61,127
53938,note_on,1,0,0,,1,,,61,127
53938,note_on,0,0,0,,5,,,65,127
53938,note_on,0,0,0,,7,,,67,127
54143,note_off,205,0,0,,7,,,67,127
54144,note_on,1,0,0,,8,,,68,127
54348,note_off,204,0,0,,8,,,68,127
54349,note_off,1,0,0,,5,,,65,127
54349,note_off,0,0,0,,1,,,61,127
54350,note_on,1,0,0,,3,,,63,127
54350,note_on,0,0,0,,0,,,60,127
54556,note_on,206,0,0,,0,,,72,127
54623,note_off,67,0,0,,0,,,72,127
54624,note_on,1,0,0,,1,,,73,127
54691,note_off,67,0,0,,1,,,73,127
54692,note_on,1,0,0,,3,,,75,127
54759,note_off,67,0,0,,3,,,75,127
54759,note_off,0,0,0,,0,,,60,127
54759,note_off,0,0,0,,3,,,63,127
54760,note_on,1,0,0,,3,,,63,127
54760,note_on,0,0,0,,0,,,60,127
54760,note_on,0,0,0,,1,,,73,127
54965,note_off,205,0,0,,1,,,73,127
54966,note_on,1,0,0,,0,,,72,127
55171,note_off,205,0,0,,0,,,72,127
55171,note_off,0,0,0,,0,,,60,127
55171,note_off,0,0,0,,3,,,63,127
55172,note_on,1,0,0,,3,,,63,127
55172,note_on,0,0,0,,0,,,60,127
55172,note_on,0,0,0,,11,,,70,127
55377,note_off,205,0,0,,11,,,70,127
55378,note_on,1,0,0,,8,,,68,127
55583,note_off,205,0,0,,8,,,68,127
55583,note_off,0,0,0,,0,,,60,127
55583,note_off,0,0,0,,3,,,63,127
55584,note_on,1,0,0,,2,,,62,127
55584,note_on,0,0,0,,5,,,65,127
55584,note_on,0,0,0,,10,,,69,127
55789,note_off,205,0,0,,10,,,69,127
55790,note_on,1,0,0,,11,,,70,127
55995,note_off,205,0,0,,11,,,70,127
55995,note_off,0,0,0,,5,,,65,127
55995,note_off,0,0,0,,2,,,62,127
55996,note_on,1,0,0,,2,,,62,127
55996,note_on,0,0,0,,5,,,65,127
55996,note_on,0,0,0,,10,,,69,127
56201,note_off,205,0,0,,10,,,69,127
56202,note_on,1,0,0,,11,,,70,127
56407,note_off,205,0,0,,11,,,70,127
56407,note_off,0,0,0,,5,,,65,127
56407,note_off,0,0,0,,2,,,62,127
56408,note_on,1,0,0,,5,,,65,127
56408,note_on,0,0,0,,2,,,62,127
56408,note_on,0,0,0,,10,,,69,127
56613,note_off,205,0,0,,10,,,69,127
56614,note_on,1,0,0,,11,,,70,127
56818,note_off,204,0,0,,11,,,70,127
56819,note_off,1,0,0,,2,,,62,127
56819,note_off,0,0,0,,5,,,65,127
56820,note_on,1,0,0,,7,,,55,127
56820,note_on,0,0,0,,1,,,61,127
56820,note_on,0,0,0,,3,,,63,127
57026,note_on,206,0,0,,1,,,73,127
57093,note_off,67,0,0,,1,,,73,127
57094,note_on,1,0,0,,3,,,75,127
57161,note_off,67,0,0,,3,,,75,127
57162,note_on,1,0,0,,5,,,77,127
57229,note_off,67,0,0,,5,,,77,127
57229,note_off,0,0,0,,3,,,63,127
57229,note_off,0,0,0,,1,,,61,127
57229,note_off,0,0,0,,7,,,55,127
57230,note_on,1,0,0,,7,,,55,127
57230,note_on,0,0,0,,1,,,61,127
57230,note_on,0,0,0,,3,,,63,127
57230,note_on,0,0,0,,3,,,75,127
57435,note_off,205,0,0,,3,,,75,127
57436,note_on,1,0,0,,1,,,73,127
57641,note_off,205,0,0,,1,,,73,127
57641,note_off,0,0,0,,3,,,63,127
57641,note_off,0,0,0,,1,,,61,127
57641,note_off,0,0,0,,7,,,55,127
57642,note_on,1,0,0,,7,,,55,127
57642,note_on,0,0,0,,1,,,61,127
57642,note_on,0,0,0,,3,,,63,127
57642,note_on,0,0,0,,0,,,72,127
57847,note_off,205,0,0,,0,,,72,127
57848,note_on,1,0,0,,11,,,70,127
58053,note_off,205,0,0,,11,,,70,127
58053,note_off,0,0,0,,3,,,63,127
58053,note_off,0,0,0,,1,,,61,127
58053,note_off,0,0,0,,7,,,55,127
58054,note_on,1,0,0,,8,,,56,127
58054,note_on,0,0,0,,3,,,63,127
58054,note_on,0,0,0,,12,,,71,127
58259,note_off,205,0,0,,12,,,71,127
58260,note_on,1,0,0,,0,,,72,127
58465,note_off,205,0,0,,0,,,72,127
58465,note_off,0,0,0,,3,,,63,127
58465,note_off,0,0,0,,8,,,56,127
58466,note_on,1,0,0,,8,,,56,127
58466,note_on,0,0,0,,3,,,63,127
58466,note_on,0,0,0,,12,,,71,127
58671,note_off,205,0,0,,12,,,71,127
58672,note_on,1,0,0,,0,,,72,127
58877,note_off,205,0,0,,0,,,72,127
58877,note_off,0,0,0,,3,,,63,127
58877,note_off,0,0,0,,8,,,56,127
58878,note_on,1,0,0,,8,,,56,127
58878,note_on,0,0,0,,3,,,63,127
58878,note_on,0,0,0,,12,,,71,127
59083,note_off,205,0,0,,12,,,71,127
59084,note_on,1,0,0,,0,,,72,127
59288,note_off,204,0,0,,0,,,72,127
59289,note_off,1,0,0,,3,,,63,127
59289,note_off,0,0,0,,8,,,56,127
59290,note_on,1,0,0,,0,,,48,127
59290,note_on,0,0,0,,8,,,56,127
59496,note_on,206,0,0,,3,,,75,127
59701,note_off,205,0,0,,3,,,75,127
59701,note_off,0,0,0,,8,,,56,127
59701,note_off,0,0,0,,0,,,48,127
59702,note_on,1,0,0,,8,,,56,127
59702,note_on,0,0,0,,0,,,48,127
59702,note_on,0,0,0,,1,,,73,127
59907,note_off,205,0,0,,1,,,73,127
59908,note_on,1,0,0,,0,,,72,127
60113,note_off,205,0,0,,0,,,72,127
60113,note_off,0,0,0,,0,,,48,127
60113,note_off,0,0,0,,8,,,56,127
60114,note_on,1,0,0,,0,,,48,127
60114,note_on,0,0,0,,8,,,56,127
60114,note_on,0,0,0,,1,,,73,127
60319,note_off,205,0,0,,1,,,73,127
60320,note_on,1,0,0,,3,,,75,127
60525,note_off,205,0,0,,3,,,75,127
60525,note_off,0,0,0,,8,,,56,127
60525,note_off,0,0,0,,0,,,48,127
60526,note_on,1,0,0,,1,,,49,127
60526,note_on,0,0,0,,11,,,58,127
60526,note_on,0,0,0,,8,,,56,127
60526,note_on,0,0,0,,5,,,77,127
60731,note_off,205,0,0,,5,,,77,127
60732,note_on,1,0,0,,8,,,80,127
60937,note_off,205,0,0,,8,,,80,127
60937,note_off,0,0,0,,8,,,56,127
60937,note_off,0,0,0,,11,,,58,127
60937,note_off,0,0,0,,1,,,49,127
60938,note_on,1,0,0,,1,,,49,127
60938,note_on,0,0,0,,8,,,56,127
60938,note_on,0,0,0,,11,,,58,127
60938,note_on,0,0,0,,7,,,79,127
61143,note_off,205,0,0,,7,,,79,127
61144,note_on,1,0,0,,8,,,80,127
61349,note_off,205,0,0,,8,,,80,127
61349,note_off,0,0,0,,11,,,58,127
61349,note_off,0,0,0,,8,,,56,127
61349,note_off,0,0,0,,1,,,49,127
61350,note_on,1,0,0,,1,,,49,127
61350,note_on,0,0,0,,8,,,56,127
61350,note_on,0,0,0,,11,,,58,127
61350,note_on,0,0,0,,11,,,82,127
61555,note_off,205,0,0,,11,,,82,127
61556,note_on,1,0,0,,8,,,80,127
61761,note_off,205,0,0,,8,,,80,127
61761,note_off,0,0,0,,11,,,58,127
61761,note_off,0,0,0,,8,,,56,127
61761,note_off,0,0,0,,1,,,49,127
61762,note_on,1,0,0,,3,,,51,127
61762,note_on,0,0,0,,11,,,58,127
61762,note_on,0,0,0,,7,,,79,127
61967,note_off,205,0,0,,7,,,79,127
61968,note_on,1,0,0,,5,,,77,127
62173,note_off,205,0,0,,5,,,77,127
62173,note_off,0,0,0,,11,,,58,127
62173,note_off,0,0,0,,3,,,51,127
62174,note_on,1,0,0,,3,,,51,127
62174,note_on,0,0,0,,11,,,58,127
62174,note_on,0,0,0,,3,,,75,127
62379,note_off,205,0,0,,3,,,75,127
62380,note_on,1,0,0,,1,,,73,127
62585,note_off,205,0,0,,1,,,73,127
62585,note_off,0,0,0,,11,,,58,127
62585,note_off,0,0,0,,3,,,51,127
62586,note_on,1,0,0,,3,,,51,127
62586,note_on,0,0,0,,3,,,63,127
62586,note_on,0,0,0,,0,,,72,127
62791,note_off,205,0,0,,0,,,72,127
62792,note_on,1,0,0,,11,,,70,127
62997,note_off,205,0,0,,11,,,70,127
62997,note_off,0,0,0,,3,,,63,127
62997,note_off,0,0,0,,3,,,51,127
62998,note_on,1,0,0,,3,,,63,127
62998,note_on,0,0,0,,5,,,53,127
62998,note_on,0,0,0,,11,,,70,127
63100,note_off,102,0,0,,11,,,70,127
63101,note_on,1,0,0,,8,,,68,127
63203,note_off,102,0,0,,8,,,68,127
63204,note_on,1,0,0,,7,,,67,127
63409,note_off,205,0,0,,7,,,67,127
63409,note_off,0,0,0,,5,,,53,127
63409,note_off,0,0,0,,3,,,63,127
63410,note_on,1,0,0,,5,,,53,127
63410,note_on,0,0,0,,2,,,62,127
63410,note_on,0,0,0,,8,,,68,127
63615,note_off,205,0,0,,8,,,68,127
63616,note_on,1,0,0,,11,,,70,127
63821,note_off,205,0,0,,11,,,70,127
63821,note_off,0,0,0,,2,,,62,127
63821,note_off,0,0,0,,5,,,53,127
63822,note_on,1,0,0,,2,,,62,127
63822,note_on,0,0,0,,5,,,53,127
63822,note_on,0,0,0,,8,,,68,127
63822,note_on,0,0,0,,0,,,72,127
64027,note_off,205,0,0,,0,,,72,127
64028,note_on,1,0,0,,2,,,74,127
64229,note_off,201,0,0,,8,,,68,127
64229,note_off,0,0,0,,5,,,53,127
64229,note_off,0,0,0,,2,,,62,127
64232,note_off,3,0,0,,2,,,74,127
64233,note_on,1,0,0,,3,,,75,127
64233,note_on,0,0,0,,7,,,67,127
64439,note_on,206,0,0,,3,,,39,127
64439,note_on,0,0,0,,3,,,51,127
64644,note_off,205,0,0,,3,,,51,127
64644,note_off,0,0,0,,3,,,39,127
64645,note_on,1,0,0,,3,,,51,127
64645,note_on,0,0,0,,3,,,39,127
64850,note_off,205,0,0,,3,,,39,127
64850,note_off,0,0,0,,3,,,51,127
64850,note_off,0,0,0,,7,,,67,127
64850,note_off,0,0,0,,3,,,75,127
64851,note_on,1,0,0,,5,,,53,127
64851,note_on,0,0,0,,5,,,41,127
65056,note_off,205,0,0,,5,,,41,127
65056,note_off,0,0,0,,5,,,53,127
65057,note_on,1,0,0,,7,,,43,127
65057,note_on,0,0,0,,7,,,55,127
65262,note_off,205,0,0,,7,,,55,127
65262,note_off,0,0,0,,7,,,43,127
65263,note_on,1,0,0,,8,,,44,127
65263,note_on,0,0,0,,8,,,56,127
65468,note_off,205,0,0,,8,,,56,127
65468,note_off,0,0,0,,8,,,44,127
65469,note_on,1,0,0,,11,,,46,127
65469,note_on,0,0,0,,11,,,58,127
65674,note_off,205,0,0,,11,,,58,127
65674,note_off,0,0,0,,11,,,46,127
65675,note_on,1,0,0,,0,,,48,127
65675,note_on,0,0,0,,0,,,60,127
65880,note_off,205,0,0,,0,,,60,127
65880,note_off,0,0,0,,0,,,48,127
65881,note_on,1,0,0,,1,,,49,127
65881,note_on,0,0,0,,1,,,61,127
66086,note_off,205,0,0,,1,,,61,127
66086,note_off,0,0,0,,1,,,49,127
66087,note_on,1,0,0,,3,,,51,127
66087,note_on,0,0,0,,3,,,63,127
66292,note_off,205,0,0,,3,,,63,127
66292,note_off,0,0,0,,3,,,51,127
66293,note_on,1,0,0,,5,,,53,127
66293,note_on,0,0,0,,5,,,65,127
66498,note_off,205,0,0,,5,,,65,127
66498,note_off,0,0,0,,5,,,53,127
66499,note_on,1,0,0,,7,,,55,127
66499,note_on,0,0,0,,7,,,67,127
66704,note_off,205,0,0,,7,,,67,127
66704,note_off,0,0,0,,7,,,55,127
66705,note_on,1,0,0,,8,,,56,127
66705,note_on,0,0,0,,8,,,68,127
66911,note_on,206,0,0,,3,,,75,127
67116,note_off,205,0,0,,3,,,75,127
67116,note_off,0,0,0,,8,,,68,127
67116,note_off,0,0,0,,8,,,56,127
67117,note_on,1,0,0,,8,,,56,127
67117,note_on,0,0,0,,8,,,68,127
67117,note_on,0,0,0,,3,,,75,127
67219,note_off,102,0,0,,3,,,75,127
67220,note_on,1,0,0,,1,,,73,127
67322,note_off,102,0,0,,1,,,73,127
67323,note_on,1,0,0,,0,,,72,127
67528,note_off,205,0,0,,0,,,72,127
67528,note_off,0,0,0,,8,,,68,127
67528,note_off,0,0,0,,8,,,56,127
67529,note_on,1,0,0,,8,,,68,127
67529,note_on,0,0,0,,8,,,56,127
67529,note_on,0,0,0,,1,,,73,127
67734,note_off,205,0,0,,1,,,73,127
67735,note_on,1,0,0,,3,,,75,127
67940,note_off,205,0,0,,3,,,75,127
67940,note_off,0,0,0,,8,,,56,127
67940,note_off,0,0,0,,8,,,68,127
67941,note_on,1,0,0,,1,,,49,127
67941,note_on,0,0,0,,1,,,61,127
67941,note_on,0,0,0,,5,,,77,127
68146,note_off,205,0,0,,5,,,77,127
68147,note_on,1,0,0,,11,,,70,127
68147,note_on,0,0,0,,7,,,79,127
68352,note_off,205,0,0,,7,,,79,127
68352,note_off,0,0,0,,11,,,70,127
68352,note_off,0,0,0,,1,,,61,127
68352,note_off,0,0,0,,1,,,49,127
68353,note_on,1,0,0,,3,,,51,127
68353,note_on,0,0,0,,3,,,63,127
68353,note_on,0,0,0,,0,,,72,127
68353,note_on,0,0,0,,8,,,80,127
68558,note_off,205,0,0,,8,,,80,127
68558,note_off,0,0,0,,0,,,72,127
68559,note_on,1,0,0,,1,,,73,127
68559,note_on,0,0,0,,11,,,82,127
68764,note_off,205,0,0,,11,,,82,127
68764,note_off,0,0,0,,1,,,73,127
68764,note_off,0,0,0,,3,,,63,127
68764,note_off,0,0,0,,3,,,51,127
68765,note_on,1,0,0,,3,,,51,127
68765,note_on,0,0,0,,3,,,63,127
68765,note_on,0,0,0,,0,,,72,127
68765,note_on,0,0,0,,8,,,80,127
68970,note_off,205,0,0,,8,,,80,127
68970,note_off,0,0,0,,0,,,72,127
68971,note_on,1,0,0,,11,,,70,127
68971,note_on,0,0,0,,7,,,79,127
69176,note_off,205,0,0,,7,,,79,127
69176,note_off,0,0,0,,11,,,70,127
69176,note_off,0,0,0,,3,,,63,127
69176,note_off,0,0,0,,3,,,51,127
69177,note_on,1,0,0,,8,,,44,127
69177,note_on,0,0,0,,8,,,56,127
69177,note_on,0,0,0,,8,,,80,127
69177,note_on,0,0,0,,0,,,72,127
69382,note_off,205,0,0,,0,,,72,127
69382,note_off,0,0,0,,8,,,80,127
69383,note_on,1,0,0,,3,,,75,127
69588,note_off,205,0,0,,3,,,75,127
69588,note_off,0,0,0,,8,,,56,127
69588,note_off,0,0,0,,8,,,44,127
69589,note_on,1,0,0,,0,,,48,127
69589,note_on,0,0,0,,8,,,56,127
69589,note_on,0,0,0,,3,,,75,127
69691,note_off,102,0,0,,3,,,75,127
69692,note_on,1,0,0,,1,,,73,127
69794,note_off,102,0,0,,1,,,73,127
69795,note_on,1,0,0,,0,,,72,127
70000,note_off,205,0,0,,0,,,72,127
70000,note_off,0,0,0,,8,,,56,127
70000,note_off,0,0,0,,0,,,48,127
70001,note_on,1,0,0,,8,,,56,127
70001,note_on,0,0,0,,0,,,48,127
70001,note_on,0,0,0,,1,,,73,127
70206,note_off,205,0,0,,1,,,73,127
70207,note_on,1,0,0,,3,,,75,127
70412,note_off,205,0,0,,3,,,75,127
70412,note_off,0,0,0,,0,,,48,127
70412,note_off,0,0,0,,8,,,56,127
70413,note_on,1,0,0,,1,,,49,127
70413,note_on,0,0,0,,1,,,61,127
70413,note_on,0,0,0,,5,,,77,127
70618,note_off,205,0,0,,5,,,77,127
70619,note_on,1,0,0,,11,,,70,127
70619,note_on,0,0,0,,7,,,79,127
70824,note_off,205,0,0,,7,,,79,127
70824,note_off,0,0,0,,11,,,70,127
70824,note_off,0,0,0,,1,,,61,127
70824,note_off,0,0,0,,1,,,49,127
70825,note_on,1,0,0,,0,,,60,127
70825,note_on,0,0,0,,3,,,51,127
70825,note_on,0,0,0,,8,,,80,127
70825,note_on,0,0,0,,0,,,72,127
71030,note_off,205,0,0,,0,,,72,127
71030,note_off,0,0,0,,8,,,80,127
71031,note_on,1,0,0,,11,,,82,127
71031,note_on,0,0,0,,1,,,73,127
71236,note_off,205,0,0,,1,,,73,127
71236,note_off,0,0,0,,11,,,82,127
71236,note_off,0,0,0,,3,,,51,127
71236,note_off,0,0,0,,0,,,60,127
71237,note_on,1,0,0,,3,,,51,127
71237,note_on,0,0,0,,11,,,58,127
71237,note_on,0,0,0,,8,,,80,127
71237,note_on,0,0,0,,0,,,72,127
71442,note_off,205,0,0,,0,,,72,127
71442,note_off,0,0,0,,8,,,80,127
71443,note_on,1,0,0,,11,,,70,127
71443,note_on,0,0,0,,7,,,79,127
71614,note_off,171,0,0,,7,,,79,127
71614,note_off,0,0,0,,11,,,70,127
71647,note_off,33,0,0,,11,,,58,127
71647,note_off,0,0,0,,3,,,51,127
71654,note_on,7,0,0,,0,,,84,127
71654,note_on,0,0,0,,3,,,75,127
71654,note_on,0,0,0,,8,,,44,127
71654,note_on,0,0,0,,8,,,56,127
71859,note_off,205,0,0,,3,,,75,127
71859,note_off,0,0,0,,0,,,84,127
71860,note_on,1,0,0,,11,,,82,127
71860,note_on,0,0,0,,1,,,73,127
72065,note_off,205,0,0,,1,,,73,127
72065,note_off,0,0,0,,11,,,82,127
72065,note_off,0,0,0,,8,,,56,127
72065,note_off,0,0,0,,8,,,44,127
72066,note_on,1,0,0,,0,,,72,127
72066,note_on,0,0,0,,8,,,80,127
72066,note_on,0,0,0,,11,,,58,127
72066,note_on,0,0,0,,11,,,46,127
72271,note_off,205,0,0,,8,,,80,127
72271,note_off,0,0,0,,0,,,72,127
72272,note_on,1,0,0,,7,,,79,127
72272,note_on,0,0,0,,11,,,70,127
72477,note_off,205,0,0,,11,,,70,127
72477,note_off,0,0,0,,7,,,79,127
72477,note_off,0,0,0,,11,,,46,127
72477,note_off,0,0,0,,11,,,58,127
72478,note_on,1,0,0,,8,,,68,127
72478,note_on,0,0,0,,5,,,77,127
72478,note_on,0,0,0,,0,,,48,127
72478,note_on,0,0,0,,0,,,60,127
72683,note_off,205,0,0,,5,,,77,127
72683,note_off,0,0,0,,8,,,68,127
72684,note_on,1,0,0,,7,,,67,127
72684,note_on,0,0,0,,3,,,75,127
72889,note_off,205,0,0,,3,,,75,127
72889,note_off,0,0,0,,7,,,67,127
72889,note_off,0,0,0,,0,,,60,127
72889,note_off,0,0,0,,0,,,48,127
72890,note_on,1,0,0,,3,,,75,127
72890,note_on,0,0,0,,5,,,65,127
72890,note_on,0,0,0,,1,,,49,127
72890,note_on,0,0,0,,1,,,61,127
73095,note_off,205,0,0,,3,,,75,127
73096,note_on,1,0,0,,1,,,73,127
73297,note_off,201,0,0,,5,,,65,127
73300,note_off,3,0,0,,1,,,73,127
73300,note_off,0,0,0,,1,,,61,127
73300,note_off,0,0,0,,1,,,49,127
73301,note_on,1,0,0,,1,,,73,127
73301,note_on,0,0,0,,7,,,67,127
73301,note_on,0,0,0,,3,,,63,127
73301,note_on,0,0,0,,3,,,51,127
73506,note_off,205,0,0,,1,,,73,127
73507,note_on,1,0,0,,0,,,72,127
73708,note_off,201,0,0,,7,,,67,127
73711,note_off,3,0,0,,0,,,72,127
73711,note_off,0,0,0,,3,,,51,127
73711,note_off,0,0,0,,3,,,63,127
73712,note_on,1,0,0,,7,,,67,127
73712,note_on,0,0,0,,0,,,72,127
73712,note_on,0,0,0,,3,,,63,127
73712,note_on,0,0,0,,3,,,51,127
73917,note_off,205,0,0,,0,,,72,127
73918,note_on,1,0,0,,11,,,70,127
74119,note_off,201,0,0,,7,,,67,127
74122,note_off,3,0,0,,11,,,70,127
74122,note_off,0,0,0,,3,,,51,127
74122,note_off,0,0,0,,3,,,63,127
74123,note_on,1,0,0,,8,,,68,127
74123,note_on,0,0,0,,5,,,53,127
74123,note_on,0,0,0,,8,,,56,127
74329,note_on,206,0,0,,3,,,75,127
74534,note_off,205,0,0,,3,,,75,127
74534,note_off,0,0,0,,8,,,56,127
74534,note_off,0,0,0,,5,,,53,127
74535,note_on,1,0,0,,2,,,74,127
74535,note_on,0,0,0,,5,,,53,127
74535,note_on,0,0,0,,8,,,56,127
74740,note_off,205,0,0,,2,,,74,127
74741,note_on,1,0,0,,3,,,75,127
74946,note_off,205,0,0,,3,,,75,127
74946,note_off,0,0,0,,8,,,56,127
74946,note_off,0,0,0,,5,,,53,127
74947,note_on,1,0,0,,5,,,77,127
74947,note_on,0,0,0,,8,,,56,127
74947,note_on,0,0,0,,5,,,53,127
75152,note_off,205,0,0,,5,,,77,127
75153,note_on,1,0,0,,3,,,75,127
75358,note_off,205,0,0,,3,,,75,127
75358,note_off,0,0,0,,5,,,53,127
75358,note_off,0,0,0,,8,,,56,127
75359,note_on,1,0,0,,2,,,74,127
75359,note_on,0,0,0,,8,,,56,127
75359,note_on,0,0,0,,11,,,46,127
75560,note_off,201,0,0,,8,,,68,127
75564,note_on,4,0,0,,8,,,68,127
75769,note_off,205,0,0,,8,,,68,127
75769,note_off,0,0,0,,11,,,46,127
75769,note_off,0,0,0,,8,,,56,127
75770,note_on,1,0,0,,7,,,67,127
75770,note_on,0,0,0,,8,,,56,127
75770,note_on,0,0,0,,11,,,46,127
75975,note_off,205,0,0,,7,,,67,127
75976,note_on,1,0,0,,8,,,68,127
76181,note_off,205,0,0,,8,,,68,127
76181,note_off,0,0,0,,11,,,46,127
76181,note_off,0,0,0,,8,,,56,127
76182,note_on,1,0,0,,11,,,70,127
76182,note_on,0,0,0,,8,,,56,127
76182,note_on,0,0,0,,11,,,46,127
76387,note_off,205,0,0,,11,,,70,127
76388,note_on,1,0,0,,8,,,68,127
76592,note_off,204,0,0,,2,,,74,127
76593,note_off,1,0,0,,8,,,68,127
76593,note_off,0,0,0,,11,,,46,127
76593,note_off,0,0,0,,8,,,56,127
76594,note_on,1,0,0,,7,,,67,127
76594,note_on,0,0,0,,7,,,55,127
76594,note_on,0,0,0,,12,,,47,127
76800,note_on,206,0,0,,5,,,77,127
77005,note_off,205,0,0,,5,,,77,127
77005,note_off,0,0,0,,12,,,47,127
77005,note_off,0,0,0,,7,,,55,127
77006,note_on,1,0,0,,4,,,76,127
77006,note_on,0,0,0,,12,,,47,127
77006,note_on,0,0,0,,7,,,55,127
77211,note_off,205,0,0,,4,,,76,127
77212,note_on,1,0,0,,5,,,77,127
77417,note_off,205,0,0,,5,,,77,127
77417,note_off,0,0,0,,7,,,55,127
77417,note_off,0,0,0,,12,,,47,127
77418,note_on,1,0,0,,7,,,79,127
77418,note_on,0,0,0,,7,,,55,127
77418,note_on,0,0,0,,12,,,47,127
77623,note_off,205,0,0,,7,,,79,127
77624,note_on,1,0,0,,5,,,77,127
77829,note_off,205,0,0,,5,,,77,127
77829,note_off,0,0,0,,12,,,47,127
77829,note_off,0,0,0,,7,,,55,127
77830,note_on,1,0,0,,4,,,76,127
77830,note_on,0,0,0,,0,,,60,127
77830,note_on,0,0,0,,0,,,48,127
78031,note_off,201,0,0,,7,,,67,127
78035,note_on,4,0,0,,0,,,72,127
78240,note_off,205,0,0,,0,,,72,127
78240,note_off,0,0,0,,0,,,48,127
78240,note_off,0,0,0,,0,,,60,127
78241,note_on,1,0,0,,12,,,71,127
78241,note_on,0,0,0,,0,,,48,127
78241,note_on,0,0,0,,0,,,60,127
78446,note_off,205,0,0,,12,,,71,127
78447,note_on,1,0,0,,0,,,72,127
78652,note_off,205,0,0,,0,,,72,127
78652,note_off,0,0,0,,0,,,60,127
78652,note_off,0,0,0,,0,,,48,127
78653,note_on,1,0,0,,1,,,73,127
78653,note_on,0,0,0,,0,,,60,127
78653,note_on,0,0,0,,0,,,48,127
78858,note_off,205,0,0,,1,,,73,127
78859,note_on,1,0,0,,0,,,72,127
79063,note_off,204,0,0,,4,,,76,127
79064,note_off,1,0,0,,0,,,72,127
79064,note_off,0,0,0,,0,,,48,127
79064,note_off,0,0,0,,0,,,60,127
79065,note_on,1,0,0,,5,,,77,127
79065,note_on,0,0,0,,11,,,70,127
79065,note_on,0,0,0,,0,,,60,127
79065,note_on,0,0,0,,1,,,49,127
79270,note_off,205,0,0,,11,,,70,127
79271,note_on,1,0,0,,8,,,68,127
79476,note_off,205,0,0,,8,,,68,127
79476,note_off,0,0,0,,1,,,49,127
79476,note_off,0,0,0,,0,,,60,127
79477,note_on,1,0,0,,7,,,67,127
79477,note_on,0,0,0,,11,,,58,127
79477,note_on,0,0,0,,1,,,49,127
79682,note_off,205,0,0,,7,,,67,127
79683,note_on,1,0,0,,5,,,65,127
79888,note_off,205,0,0,,5,,,65,127
79888,note_off,0,0,0,,1,,,49,127
79888,note_off,0,0,0,,11,,,58,127
79888,note_off,0,0,0,,5,,,77,127
79889,note_on,1,0,0,,11,,,70,127
79889,note_on,0,0,0,,4,,,64,127
79889,note_on,0,0,0,,11,,,58,127
79889,note_on,0,0,0,,1,,,49,127
80094,note_off,205,0,0,,4,,,64,127
80095,note_on,1,0,0,,5,,,65,127
80296,note_off,201,0,0,,11,,,70,127
80299,note_off,3,0,0,,5,,,65,127
80299,note_off,0,0,0,,1,,,49,127
80299,note_off,0,0,0,,11,,,58,127
80300,note_on,1,0,0,,7,,,67,127
80300,note_on,0,0,0,,0,,,72,127
80300,note_on,0,0,0,,4,,,64,127
80300,note_on,0,0,0,,0,,,48,127
80505,note_off,205,0,0,,0,,,48,127
80506,note_on,1,0,0,,0,,,60,127
80707,note_off,201,0,0,,4,,,64,127
80707,note_off,0,0,0,,0,,,72,127
80707,note_off,0,0,0,,7,,,67,127
80710,note_off,3,0,0,,0,,,60,127
80711,note_on,1,0,0,,7,,,55,127
80916,note_off,205,0,0,,7,,,55,127
80917,note_on,1,0,0,,4,,,52,127
81122,note_off,205,0,0,,4,,,52,127
81123,note_on,1,0,0,,0,,,48,127
81328,note_off,205,0,0,,0,,,48,127
81329,note_on,1,0,0,,7,,,43,127
81534,note_off,205,0,0,,7,,,43,127
81535,note_on,1,0,0,,0,,,36,127
82660,note_off,1125,0,0,,0,,,36,127
82794,note_on,134,0,0,,3,,,75,127
82965,note_off,171,0,0,,3,,,75,127
82975,note_on,10,0,0,,1,,,73,127
83180,note_off,205,0,0,,1,,,73,127
83181,note_on,1,0,0,,0,,,72,127
83386,note_off,205,0,0,,0,,,72,127
83387,note_on,1,0,0,,11,,,70,127
83592,note_off,205,0,0,,11,,,70,127
83593,note_on,1,0,0,,10,,,69,127
83798,note_off,205,0,0,,10,,,69,127
83799,note_on,1,0,0,,11,,,70,127
84005,note_on,206,0,0,,3,,,63,127
84210,note_off,205,0,0,,3,,,63,127
84210,note_off,0,0,0,,11,,,70,127
84211,note_on,1,0,0,,1,,,61,127
84211,note_on,0,0,0,,11,,,70,127
84416,note_off,205,0,0,,1,,,61,127
84417,note_on,1,0,0,,0,,,60,127
84622,note_off,205,0,0,,0,,,60,127
84622,note_off,0,0,0,,11,,,70,127
84623,note_on,1,0,0,,11,,,58,127
84623,note_on,0,0,0,,11,,,70,127
84828,note_off,205,0,0,,11,,,58,127
84829,note_on,1,0,0,,10,,,57,127
85030,note_off,201,0,0,,11,,,70,127
85033,note_off,3,0,0,,10,,,57,127
85034,note_on,1,0,0,,11,,,34,127
85240,note_on,206,0,0,,11,,,70,127
85240,note_on,0,0,0,,1,,,73,127
85445,note_off,205,0,0,,1,,,73,127
85445,note_off,0,0,0,,11,,,70,127
85445,note_off,0,0,0,,11,,,34,127
85446,note_on,1,0,0,,11,,,34,127
85446,note_on,0,0,0,,8,,,68,127
85446,note_on,0,0,0,,0,,,72,127
85651,note_off,205,0,0,,0,,,72,127
85651,note_off,0,0,0,,8,,,68,127
85652,note_on,1,0,0,,7,,,67,127
85652,note_on,0,0,0,,11,,,70,127
85857,note_off,205,0,0,,11,,,70,127
85857,note_off,0,0,0,,7,,,67,127
85857,note_off,0,0,0,,11,,,34,127
85858,note_on,1,0,0,,11,,,34,127
85858,note_on,0,0,0,,5,,,65,127
85858,note_on,0,0,0,,8,,,68,127
86063,note_off,205,0,0,,8,,,68,127
86063,note_off,0,0,0,,5,,,65,127
86064,note_on,1,0,0,,4,,,64,127
86064,note_on,0,0,0,,7,,,67,127
86265,note_off,201,0,0,,11,,,34,127
86268,note_off,3,0,0,,7,,,67,127
86268,note_off,0,0,0,,4,,,64,127
86269,note_on,1,0,0,,5,,,65,127
86475,note_on,206,0,0,,1,,,61,127
86680,note_off,205,0,0,,1,,,61,127
86680,note_off,0,0,0,,5,,,65,127
86681,note_on,1,0,0,,0,,,60,127
86681,note_on,0,0,0,,5,,,65,127
86886,note_off,205,0,0,,0,,,60,127
86887,note_on,1,0,0,,11,,,58,127
87092,note_off,205,0,0,,11,,,58,127
87092,note_off,0,0,0,,5,,,65,127
87093,note_on,1,0,0,,8,,,56,127
87093,note_on,0,0,0,,5,,,65,127
87298,note_off,205,0,0,,8,,,56,127
87299,note_on,1,0,0,,7,,,55,127
87500,note_off,201,0,0,,5,,,65,127
87503,note_off,3,0,0,,7,,,55,127
87504,note_on,1,0,0,,8,,,32,127
87710,note_on,206,0,0,,0,,,72,127
87915,note_off,205,0,0,,0,,,72,127
87915,note_off,0,0,0,,8,,,32,127
87916,note_on,1,0,0,,8,,,32,127
87916,note_on,0,0,0,,11,,,70,127
88121,note_off,205,0,0,,11,,,70,127
88122,note_on,1,0,0,,8,,,68,127
88327,note_off,205,0,0,,8,,,68,127
88327,note_off,0,0,0,,8,,,32,127
88328,note_on,1,0,0,,8,,,32,127
88328,note_on,0,0,0,,7,,,67,127
88533,note_off,205,0,0,,7,,,67,127
88534,note_on,1,0,0,,5,,,65,127
88739,note_off,205,0,0,,5,,,65,127
88739,note_off,0,0,0,,8,,,32,127
88740,note_on,1,0,0,,11,,,34,127
88740,note_on,0,0,0,,5,,,77,127
88946,note_on,206,0,0,,1,,,73,127
89151,note_off,205,0,0,,1,,,73,127
89151,note_off,0,0,0,,11,,,34,127
89152,note_on,1,0,0,,0,,,36,127
89152,note_on,0,0,0,,0,,,72,127
89357,note_off,205,0,0,,0,,,72,127
89358,note_on,1,0,0,,11,,,70,127
89563,note_off,205,0,0,,11,,,70,127
89563,note_off,0,0,0,,0,,,36,127
89563,note_off,0,0,0,,5,,,77,127
89564,note_on,1,0,0,,0,,,36,127
89564,note_on,0,0,0,,4,,,76,127
89564,note_on,0,0,0,,8,,,68,127
89769,note_off,205,0,0,,8,,,68,127
89770,note_on,1,0,0,,7,,,67,127
89971,note_off,201,0,0,,4,,,76,127
89974,note_off,3,0,0,,7,,,67,127
89974,note_off,0,0,0,,0,,,36,127
89975,note_on,1,0,0,,5,,,41,127
89975,note_on,0,0,0,,5,,,77,127
90179,note_off,204,0,0,,5,,,41,127
90180,note_off,1,0,0,,5,,,77,127
90181,note_on,1,0,0,,0,,,72,127
90248,note_off,67,0,0,,0,,,72,127
90249,note_on,1,0,0,,1,,,73,127
90316,note_off,67,0,0,,1,,,73,127
90317,note_on,1,0,0,,3,,,75,127
90384,note_off,67,0,0,,3,,,75,127
90385,note_on,1,0,0,,1,,,73,127
90590,note_off,205,0,0,,1,,,73,127
90591,note_on,1,0,0,,0,,,72,127
90796,note_off,205,0,0,,0,,,72,127
90797,note_on,1,0,0,,11,,,70,127
91002,note_off,205,0,0,,11,,,70,127
91003,note_on,1,0,0,,10,,,69,127
91208,note_off,205,0,0,,10,,,69,127
91209,note_on,1,0,0,,11,,,70,127
91415,note_on,206,0,0,,0,,,60,127
91482,note_off,67,0,0,,0,,,60,127
91483,note_on,1,0,0,,1,,,61,127
91550,note_off,67,0,0,,1,,,61,127
91551,note_on,1,0,0,,3,,,63,127
91618,note_off,67,0,0,,3,,,63,127
91618,note_off,0,0,0,,11,,,70,127
91619,note_on,1,0,0,,1,,,61,127
91619,note_on,0,0,0,,11,,,70,127
91824,note_off,205,0,0,,1,,,61,127
91825,note_on,1,0,0,,0,,,60,127
92030,note_off,205,0,0,,0,,,60,127
92030,note_off,0,0,0,,11,,,70,127
92031,note_on,1,0,0,,11,,,58,127
92031,note_on,0,0,0,,11,,,70,127
92236,note_off,205,0,0,,11,,,58,127
92237,note_on,1,0,0,,10,,,57,127
92438,note_off,201,0,0,,11,,,70,127
92441,note_off,3,0,0,,10,,,57,127
92442,note_on,1,0,0,,11,,,34,127
92648,note_on,206,0,0,,1,,,73,127
92648,note_on,0,0,0,,11,,,70,127
92853,note_off,205,0,0,,11,,,70,127
92853,note_off,0,0,0,,1,,,73,127
92853,note_off,0,0,0,,11,,,34,127
92854,note_on,1,0,0,,11,,,34,127
92854,note_on,0,0,0,,0,,,72,127
92854,note_on,0,0,0,,8,,,68,127
93059,note_off,205,0,0,,8,,,68,127
93059,note_off,0,0,0,,0,,,72,127
93060,note_on,1,0,0,,11,,,70,127
93060,note_on,0,0,0,,7,,,67,127
93265,note_off,205,0,0,,7,,,67,127
93265,note_off,0,0,0,,11,,,70,127
93265,note_off,0,0,0,,11,,,34,127
93266,note_on,1,0,0,,11,,,34,127
93266,note_on,0,0,0,,5,,,65,127
93266,note_on,0,0,0,,8,,,68,127
93471,note_off,205,0,0,,8,,,68,127
93471,note_off,0,0,0,,5,,,65,127
93472,note_on,1,0,0,,4,,,64,127
93472,note_on,0,0,0,,7,,,67,127
93673,note_off,201,0,0,,11,,,34,127
93676,note_off,3,0,0,,7,,,67,127
93676,note_off,0,0,0,,4,,,64,127
93677,note_on,1,0,0,,5,,,65,127
93883,note_on,206,0,0,,11,,,58,127
93950,note_off,67,0,0,,11,,,58,127
93951,note_on,1,0,0,,0,,,60,127
94018,note_off,67,0,0,,0,,,60,127
94019,note_on,1,0,0,,1,,,61,127
94086,note_off,67,0,0,,1,,,61,127
94086,note_off,0,0,0,,5,,,65,127
94087,note_on,1,0,0,,0,,,60,127
94087,note_on,0,0,0,,5,,,65,127
94292,note_off,205,0,0,,0,,,60,127
94293,note_on,1,0,0,,11,,,58,127
94498,note_off,205,0,0,,11,,,58,127
94498,note_off,0,0,0,,5,,,65,127
94499,note_on,1,0,0,,8,,,56,127
94499,note_on,0,0,0,,5,,,65,127
94704,note_off,205,0,0,,8,,,56,127
94705,note_on,1,0,0,,7,,,55,127
94906,note_off,201,0,0,,5,,,65,127
94909,note_off,3,0,0,,7,,,55,127
94910,note_on,1,0,0,,8,,,32,127
95116,note_on,206,0,0,,8,,,68,127
95183,note_off,67,0,0,,8,,,68,127
95184,note_on,1,0,0,,11,,,70,127
95251,note_off,67,0,0,,11,,,70,127
95252,note_on,1,0,0,,0,,,72,127
95319,note_off,67,0,0,,0,,,72,127
95319,note_off,0,0,0,,8,,,32,127
95320,note_on,1,0,0,,8,,,32,127
95320,note_on,0,0,0,,11,,,70,127
95525,note_off,205,0,0,,11,,,70,127
95526,note_on,1,0,0,,8,,,68,127
95731,note_off,205,0,0,,8,,,68,127
95731,note_off,0,0,0,,8,,,32,127
95732,note_on,1,0,0,,8,,,32,127
95732,note_on,0,0,0,,7,,,67,127
95937,note_off,205,0,0,,7,,,67,127
95938,note_on,1,0,0,,5,,,65,127
96143,note_off,205,0,0,,5,,,65,127
96143,note_off,0,0,0,,8,,,32,127
96144,note_on,1,0,0,,11,,,34,127
96144,note_on,0,0,0,,5,,,77,127
96350,note_on,206,0,0,,1,,,73,127
96555,note_off,205,0,0,,1,,,73,127
96555,note_off,0,0,0,,11,,,34,127
96556,note_on,1,0,0,,0,,,36,127
96556,note_on,0,0,0,,0,,,72,127
96761,note_off,205,0,0,,0,,,72,127
96762,note_on,1,0,0,,11,,,70,127
96967,note_off,205,0,0,,11,,,70,127
96967,note_off,0,0,0,,0,,,36,127
96967,note_off,0,0,0,,5,,,77,127
96968,note_on,1,0,0,,0,,,36,127
96968,note_on,0,0,0,,8,,,68,127
96968,note_on,0,0,0,,4,,,76,127
97173,note_off,205,0,0,,8,,,68,127
97174,note_on,1,0,0,,7,,,67,127
97375,note_off,201,0,0,,4,,,76,127
97378,note_off,3,0,0,,7,,,67,127
97378,note_off,0,0,0,,0,,,36,127
97379,note_on,1,0,0,,5,,,41,127
97379,note_on,0,0,0,,5,,,77,127
97584,note_off,205,0,0,,5,,,77,127
97584,note_off,0,0,0,,5,,,41,127
97585,note_on,1,0,0,,0,,,60,127
97585,note_on,0,0,0,,0,,,72,127
97790,note_off,205,0,0,,0,,,72,127
97790,note_off,0,0,0,,0,,,60,127
97791,note_on,1,0,0,,8,,,56,127
97791,note_on,0,0,0,,8,,,68,127
97996,note_off,205,0,0,,8,,,68,127
97996,note_off,0,0,0,,8,,,56,127
97997,note_on,1,0,0,,11,,,58,127
97997,note_on,0,0,0,,11,,,70,127
98202,note_off,205,0,0,,11,,,70,127
98202,note_off,0,0,0,,11,,,58,127
98203,note_on,1,0,0,,0,,,60,127
98203,note_on,0,0,0,,0,,,72,127
98408,note_off,205,0,0,,0,,,72,127
98408,note_off,0,0,0,,0,,,60,127
98409,note_on,1,0,0,,1,,,61,127
98409,note_on,0,0,0,,1,,,73,127
98614,note_off,205,0,0,,1,,,73,127
98614,note_off,0,0,0,,1,,,61,127
98615,note_on,1,0,0,,0,,,60,127
98615,note_on,0,0,0,,0,,,72,127
98820,note_off,205,0,0,,0,,,72,127
98821,note_on,1,0,0,,5,,,77,127
98821,note_on,0,0,0,,8,,,68,127
99026,note_off,205,0,0,,8,,,68,127
99026,note_off,0,0,0,,5,,,77,127
99026,note_off,0,0,0,,0,,,60,127
99027,note_on,1,0,0,,0,,,36,127
99027,note_on,0,0,0,,7,,,67,127
99027,note_on,0,0,0,,4,,,76,127
99232,note_off,205,0,0,,4,,,76,127
99232,note_off,0,0,0,,7,,,67,127
99233,note_on,1,0,0,,8,,,68,127
99233,note_on,0,0,0,,5,,,77,127
99438,note_off,205,0,0,,5,,,77,127
99438,note_off,0,0,0,,8,,,68,127
99438,note_off,0,0,0,,0,,,36,127
99439,note_on,1,0,0,,0,,,36,127
99439,note_on,0,0,0,,7,,,79,127
99439,note_on,0,0,0,,11,,,70,127
99644,note_off,205,0,0,,11,,,70,127
99644,note_off,0,0,0,,7,,,79,127
99645,note_on,1,0,0,,7,,,67,127
99645,note_on,0,0,0,,4,,,76,127
99850,note_off,205,0,0,,4,,,76,127
99850,note_off,0,0,0,,7,,,67,127
99850,note_off,0,0,0,,0,,,36,127
99851,note_on,1,0,0,,5,,,41,127
99851,note_on,0,0,0,,8,,,68,127
99851,note_on,0,0,0,,5,,,77,127
100056,note_off,205,0,0,,5,,,77,127
100056,note_off,0,0,0,,8,,,68,127
100056,note_off,0,0,0,,5,,,41,127
100057,note_on,1,0,0,,0,,,60,127
100057,note_on,0,0,0,,0,,,72,127
100262,note_off,205,0,0,,0,,,72,127
100262,note_off,0,0,0,,0,,,60,127
100263,note_on,1,0,0,,8,,,56,127
100263,note_on,0,0,0,,8,,,68,127
100468,note_off,205,0,0,,8,,,68,127
100468,note_off,0,0,0,,8,,,56,127
100469,note_on,1,0,0,,11,,,58,127
100469,note_on,0,0,0,,11,,,70,127
100674,note_off,205,0,0,,11,,,70,127
100674,note_off,0,0,0,,11,,,58,127
100675,note_on,1,0,0,,0,,,60,127
100675,note_on,0,0,0,,0,,,72,127
100880,note_off,205,0,0,,0,,,72,127
100880,note_off,0,0,0,,0,,,60,127
100881,note_on,1,0,0,,1,,,61,127
100881,note_on,0,0,0,,1,,,73,127
101086,note_off,205,0,0,,1,,,73,127
101086,note_off,0,0,0,,1,,,61,127
101087,note_on,1,0,0,,0,,,60,127
101087,note_on,0,0,0,,0,,,72,127
101292,note_off,205,0,0,,0,,,72,127
101293,note_on,1,0,0,,8,,,80,127
101293,note_on,0,0,0,,5,,,77,127
101498,note_off,205,0,0,,5,,,77,127
101498,note_off,0,0,0,,8,,,80,127
101498,note_off,0,0,0,,0,,,60,127
101499,note_on,1,0,0,,0,,,36,127
101499,note_on,0,0,0,,4,,,76,127
101499,note_on,0,0,0,,7,,,79,127
101704,note_off,205,0,0,,7,,,79,127
101704,note_off,0,0,0,,4,,,76,127
101705,note_on,1,0,0,,8,,,80,127
101705,note_on,0,0,0,,5,,,77,127
101910,note_off,205,0,0,,5,,,77,127
101910,note_off,0,0,0,,8,,,80,127
101910,note_off,0,0,0,,0,,,36,127
101911,note_on,1,0,0,,0,,,36,127
101911,note_on,0,0,0,,7,,,79,127
101911,note_on,0,0,0,,11,,,82,127
102116,note_off,205,0,0,,11,,,82,127
102116,note_off,0,0,0,,7,,,79,127
102117,note_on,1,0,0,,4,,,76,127
102117,note_on,0,0,0,,7,,,79,127
102322,note_off,205,0,0,,7,,,79,127
102322,note_off,0,0,0,,4,,,76,127
102322,note_off,0,0,0,,0,,,36,127
102323,note_on,1,0,0,,5,,,41,127
102323,note_on,0,0,0,,8,,,80,127
102323,note_on,0,0,0,,5,,,77,127
102528,note_off,205,0,0,,5,,,77,127
102528,note_off,0,0,0,,8,,,80,127
102528,note_off,0,0,0,,5,,,41,127
102529,note_on,1,0,0,,0,,,60,127
102529,note_on,0,0,0,,0,,,72,127
102734,note_off,205,0,0,,0,,,72,127
102734,note_off,0,0,0,,0,,,60,127
102735,note_on,1,0,0,,8,,,56,127
102735,note_on,0,0,0,,8,,,68,127
102940,note_off,205,0,0,,8,,,68,127
102940,note_off,0,0,0,,8,,,56,127
102941,note_on,1,0,0,,11,,,58,127
102941,note_on,0,0,0,,11,,,70,127
103146,note_off,205,0,0,,11,,,70,127
103146,note_off,0,0,0,,11,,,58,127
103147,note_on,1,0,0,,0,,,60,127
103147,note_on,0,0,0,,0,,,72,127
103352,note_off,205,0,0,,0,,,72,127
103352,note_off,0,0,0,,0,,,60,127
103353,note_on,1,0,0,,1,,,61,127
103353,note_on,0,0,0,,1,,,73,127
103558,note_off,205,0,0,,1,,,73,127
103558,note_off,0,0,0,,1,,,61,127
103559,note_on,1,0,0,,0,,,60,127
103559,note_on,0,0,0,,0,,,72,127
103764,note_off,205,0,0,,0,,,72,127
103765,note_on,1,0,0,,8,,,80,127
103765,note_on,0,0,0,,5,,,89,127
103970,note_off,205,0,0,,5,,,89,127
103970,note_off,0,0,0,,8,,,80,127
103970,note_off,0,0,0,,0,,,60,127
103971,note_on,1,0,0,,0,,,36,127
103971,note_on,0,0,0,,4,,,88,127
103971,note_on,0,0,0,,7,,,79,127
104176,note_off,205,0,0,,7,,,79,127
104176,note_off,0,0,0,,4,,,88,127
104177,note_on,1,0,0,,5,,,77,127
104177,note_on,0,0,0,,1,,,85,127
104382,note_off,205,0,0,,1,,,85,127
104382,note_off,0,0,0,,5,,,77,127
104382,note_off,0,0,0,,0,,,36,127
104383,note_on,1,0,0,,0,,,36,127
104383,note_on,0,0,0,,4,,,76,127
104383,note_on,0,0,0,,0,,,84,127
104588,note_off,205,0,0,,0,,,84,127
104588,note_off,0,0,0,,4,,,76,127
104589,note_on,1,0,0,,1,,,73,127
104589,note_on,0,0,0,,11,,,82,127
104794,note_off,205,0,0,,11,,,82,127
104794,note_off,0,0,0,,1,,,73,127
104794,note_off,0,0,0,,0,,,36,127
104795,note_on,1,0,0,,5,,,41,127
104795,note_on,0,0,0,,0,,,72,127
104795,note_on,0,0,0,,8,,,80,127
105000,note_off,205,0,0,,8,,,80,127
105000,note_off,0,0,0,,0,,,72,127
105001,note_on,1,0,0,,11,,,70,127
105001,note_on,0,0,0,,7,,,79,127
105206,note_off,205,0,0,,7,,,79,127
105206,note_off,0,0,0,,11,,,70,127
105206,note_off,0,0,0,,5,,,41,127
105207,note_on,1,0,0,,7,,,43,127
105207,note_on,0,0,0,,8,,,68,127
105207,note_on,0,0,0,,5,,,77,127
105412,note_off,205,0,0,,5,,,77,127
105412,note_off,0,0,0,,8,,,68,127
105413,note_on,1,0,0,,7,,,67,127
105413,note_on,0,0,0,,4,,,76,127
105618,note_off,205,0,0,,4,,,76,127
105618,note_off,0,0,0,,7,,,67,127
105618,note_off,0,0,0,,7,,,43,127
105619,note_on,1,0,0,,8,,,44,127
105619,note_on,0,0,0,,5,,,65,127
105619,note_on,0,0,0,,5,,,77,127
105824,note_off,205,0,0,,5,,,77,127
105825,note_on,1,0,0,,0,,,72,127
106030,note_off,205,0,0,,0,,,72,127
106030,note_off,0,0,0,,8,,,44,127
106031,note_on,1,0,0,,11,,,46,127
106031,note_on,0,0,0,,1,,,73,127
106236,note_off,205,0,0,,1,,,73,127
106237,note_on,1,0,0,,11,,,70,127
106442,note_off,205,0,0,,11,,,70,127
106442,note_off,0,0,0,,11,,,46,127
106442,note_off,0,0,0,,5,,,65,127
106443,note_on,1,0,0,,0,,,48,127
106443,note_on,0,0,0,,8,,,68,127
106443,note_on,0,0,0,,0,,,72,127
106648,note_off,205,0,0,,8,,,68,127
106649,note_on,1,0,0,,5,,,65,127
106854,note_off,205,0,0,,5,,,65,127
106854,note_off,0,0,0,,0,,,48,127
106855,note_on,1,0,0,,0,,,36,127
106855,note_on,0,0,0,,7,,,67,127
107060,note_off,205,0,0,,7,,,67,127
107061,note_on,1,0,0,,4,,,64,127
107266,note_off,205,0,0,,4,,,64,127
107266,note_off,0,0,0,,0,,,36,127
107266,note_off,0,0,0,,0,,,72,127
107267,note_on,1,0,0,,5,,,41,127
107267,note_on,0,0,0,,5,,,65,127
109633,note_off,2366,0,0,,5,,,65,127
109633,note_off,0,0,0,,5,,,41,127
110592,end_of_track,959,1,0,,,,,,
