tick,type,time,meta,track,program,channel,pitch,tempo,note,velocity
0,copyright,0,1,0,,,,,,
0,program_change,0,0,0,6,0,,,,
0,pitchwheel,0,0,0,,0,0,,,
0,program_change,0,0,0,6,1,,,,
0,pitchwheel,0,0,0,,1,-590,,,
0,program_change,0,0,0,6,2,,,,
0,pitchwheel,0,0,0,,2,-272,,,
0,program_change,0,0,0,6,3,,,,
0,pitchwheel,0,0,0,,3,-353,,,
0,program_change,0,0,0,6,4,,,,
0,pitchwheel,0,0,0,,4,-560,,,
0,program_change,0,0,0,6,5,,,,
0,pitchwheel,0,0,0,,5,-80,,,
0,program_change,0,0,0,6,6,,,,
0,pitchwheel,0,0,0,,6,-625,,,
0,program_change,0,0,0,6,7,,,,
0,pitchwheel,0,0,0,,7,-130,,,
0,program_change,0,0,0,6,8,,,,
0,pitchwheel,0,0,0,,8,-512,,,
0,program_change,0,0,0,6,10,,,,
0,pitchwheel,0,0,0,,10,-464,,,
0,program_change,0,0,0,6,11,,,,
0,pitchwheel,0,0,0,,11,-208,,,
0,program_change,0,0,0,6,12,,,,
0,pitchwheel,0,0,0,,12,-553,,,
0,set_tempo,0,1,0,,,,500000,,
230,note_on,230,0,0,,7,,,79,127
286,note_off,56,0,0,,7,,,79,127
287,note_on,1,0,0,,5,,,77,127
343,note_off,56,0,0,,5,,,77,127
344,note_on,1,0,0,,7,,,79,127
400,note_off,56,0,0,,7,,,79,127
401,note_on,1,0,0,,5,,,77,127
457,note_off,56,0,0,,5,,,77,127
458,note_on,1,0,0,,7,,,79,127
514,note_off,56,0,0,,7,,,79,127
515,note_on,1,0,0,,5,,,77,127
571,note_off,56,0,0,,5,,,77,127
572,note_on,1,0,0,,4,,,76,127
628,note_off,56,0,0,,4,,,76,127
629,note_on,1,0,0,,5,,,77,127
685,note_off,56,0,0,,5,,,77,127
686,note_on,1,0,0,,8,,,80,127
742,note_off,56,0,0,,8,,,80,127
743,note_on,1,0,0,,7,,,79,127
799,note_off,56,0,0,,7,,,79,127
800,note_on,1,0,0,,8,,,80,127
856,note_off,56,0,0,,8,,,80,127
857,note_on,1,0,0,,7,,,79,127
913,note_off,56,0,0,,7,,,79,127
914,note_on,1,0,0,,8,,,80,127
970,note_off,56,0,0,,8,,,80,127
971,note_on,1,0,0,,7,,,79,127
1027,note_off,56,0,0,,7,,,79,127
1028,note_on,1,0,0,,5,,,77,127
1084,note_off,56,0,0,,5,,,77,127
1085,note_on,1,0,0,,7,,,79,127
1141,note_off,56,0,0,,7,,,79,127
1142,note_on,1,0,0,,11,,,82,127
1198,note_off,56,0,0,,11,,,82,127
1199,note_on,1,0,0,,8,,,80,127
1255,note_off,56,0,0,,8,,,80,127
1256,note_on,1,0,0,,11,,,82,127
1312,note_off,56,0,0,,11,,,82,127
1313,note_on,1,0,0,,8,,,80,127
1369,note_off,56,0,0,,8,,,80,127
1370,note_on,1,0,0,,11,,,82,127
1426,note_off,56,0,0,,11,,,82,127
1427,note_on,1,0,0,,8,,,80,127
1483,note_off,56,0,0,,8,,,80,127
1484,note_on,1,0,0,,7,,,79,127
1540,note_off,56,0,0,,7,,,79,127
1541,note_on,1,0,0,,8,,,80,127
1597,note_off,56,0,0,,8,,,80,127
1598,note_on,1,0,0,,0,,,84,127
1654,note_off,56,0,0,,0,,,84,127
1655,note_on,1,0,0,,11,,,82,127
1711,note_off,56,0,0,,11,,,82,127
1712,note_on,1,0,0,,0,,,84,127
1768,note_off,56,0,0,,0,,,84,127
1769,note_on,1,0,0,,11,,,82,127
1825,note_off,56,0,0,,11,,,82,127
1826,note_on,1,0,0,,0,,,84,127
1882,note_off,56,0,0,,0,,,84,127
1883,note_on,1,0,0,,11,,,82,127
1939,note_off,56,0,0,,11,,,82,127
1940,note_on,1,0,0,,8,,,80,127
1996,note_off,56,0,0,,8,,,80,127
1997,note_on,1,0,0,,11,,,82,127
2053,note_off,56,0,0,,11,,,82,127
2054,note_on,1,0,0,,2,,,62,127
2054,note_on,0,0,0,,0,,,84,127
2110,note_off,56,0,0,,2,,,62,127
2111,note_on,1,0,0,,0,,,60,127
2167,note_off,56,0,0,,0,,,60,127
2168,note_on,1,0,0,,2,,,62,127
2224,note_off,56,0,0,,2,,,62,127
2225,note_on,1,0,0,,0,,,60,127
2281,note_off,56,0,0,,0,,,60,127
2282,note_on,1,0,0,,2,,,62,127
2338,note_off,56,0,0,,2,,,62,127
2339,note_on,1,0,0,,0,,,60,127
2395,note_off,56,0,0,,0,,,60,127
2396,note_on,1,0,0,,12,,,59,127
2452,note_off,56,0,0,,12,,,59,127
2453,note_on,1,0,0,,0,,,60,127
2509,note_off,56,0,0,,0,,,60,127
2510,note_on,1,0,0,,4,,,64,127
2566,note_off,56,0,0,,4,,,64,127
2567,note_on,1,0,0,,2,,,62,127
2623,note_off,56,0,0,,2,,,62,127
2624,note_on,1,0,0,,4,,,64,127
2680,note_off,56,0,0,,4,,,64,127
2681,note_on,1,0,0,,2,,,62,127
2737,note_off,56,0,0,,2,,,62,127
2738,note_on,1,0,0,,4,,,64,127
2794,note_off,56,0,0,,4,,,64,127
2795,note_on,1,0,0,,2,,,62,127
2851,note_off,56,0,0,,2,,,62,127
2852,note_on,1,0,0,,0,,,60,127
2908,note_off,56,0,0,,0,,,60,127
2909,note_on,1,0,0,,2,,,62,127
2965,note_off,56,0,0,,2,,,62,127
2966,note_on,1,0,0,,5,,,65,127
3022,note_off,56,0,0,,5,,,65,127
3023,note_on,1,0,0,,4,,,64,127
3079,note_off,56,0,0,,4,,,64,127
3080,note_on,1,0,0,,5,,,65,127
3136,note_off,56,0,0,,5,,,65,127
3137,note_on,1,0,0,,4,,,64,127
3193,note_off,56,0,0,,4,,,64,127
3194,note_on,1,0,0,,5,,,65,127
3250,note_off,56,0,0,,5,,,65,127
3251,note_on,1,0,0,,4,,,64,127
3307,note_off,56,0,0,,4,,,64,127
3308,note_on,1,0,0,,2,,,62,127
3364,note_off,56,0,0,,2,,,62,127
3365,note_on,1,0,0,,4,,,64,127
3421,note_off,56,0,0,,4,,,64,127
3422,note_on,1,0,0,,7,,,67,127
3478,note_off,56,0,0,,7,,,67,127
3479,note_on,1,0,0,,5,,,65,127
3535,note_off,56,0,0,,5,,,65,127
3536,note_on,1,0,0,,7,,,67,127
3592,note_off,56,0,0,,7,,,67,127
3593,note_on,1,0,0,,5,,,65,127
3649,note_off,56,0,0,,5,,,65,127
3649,note_off,0,0,0,,0,,,84,127
3650,note_on,1,0,0,,7,,,67,127
3650,note_on,0,0,0,,11,,,82,127
3706,note_off,56,0,0,,7,,,67,127
3707,note_on,1,0,0,,5,,,65,127
3763,note_off,56,0,0,,5,,,65,127
3763,note_off,0,0,0,,11,,,82,127
3764,note_on,1,0,0,,7,,,67,127
3764,note_on,0,0,0,,8,,,80,127
3820,note_off,56,0,0,,7,,,67,127
3821,note_on,1,0,0,,8,,,68,127
3877,note_off,56,0,0,,8,,,68,127
3877,note_off,0,0,0,,8,,,80,127
3878,note_on,1,0,0,,11,,,70,127
3878,note_on,0,0,0,,7,,,79,127
3992,note_off,114,0,0,,7,,,79,127
3993,note_on,1,0,0,,11,,,82,127
4107,note_off,114,0,0,,11,,,82,127
4107,note_off,0,0,0,,11,,,70,127
4108,note_on,1,0,0,,1,,,73,127
4108,note_on,0,0,0,,8,,,80,127
4222,note_off,114,0,0,,8,,,80,127
4223,note_on,1,0,0,,7,,,79,127
4337,note_off,114,0,0,,7,,,79,127
4337,note_off,0,0,0,,1,,,73,127
4338,note_on,1,0,0,,0,,,72,127
4338,note_on,0,0,0,,8,,,80,127
4452,note_off,114,0,0,,8,,,80,127
4453,note_on,1,0,0,,5,,,77,127
4567,note_off,114,0,0,,5,,,77,127
4567,note_off,0,0,0,,0,,,72,127
4568,note_on,1,0,0,,0,,,60,127
4568,note_on,0,0,0,,7,,,79,127
4682,note_off,114,0,0,,7,,,79,127
4683,note_on,1,0,0,,4,,,76,127
4797,note_off,114,0,0,,4,,,76,127
4797,note_off,0,0,0,,0,,,60,127
4798,note_on,1,0,0,,5,,,53,127
4913,note_on,115,0,0,,5,,,77,127
5027,note_off,114,0,0,,5,,,77,127
5027,note_off,0,0,0,,5,,,53,127
5028,note_on,1,0,0,,5,,,65,127
5028,note_on,0,0,0,,0,,,72,127
5142,note_off,114,0,0,,0,,,72,127
5143,note_on,1,0,0,,8,,,68,127
5257,note_off,114,0,0,,8,,,68,127
5257,note_off,0,0,0,,5,,,65,127
5258,note_on,1,0,0,,1,,,61,127
5258,note_on,0,0,0,,5,,,65,127
5373,note_on,115,0,0,,5,,,77,127
5486,note_off,113,0,0,,5,,,65,127
5487,note_off,1,0,0,,5,,,77,127
5487,note_off,0,0,0,,1,,,61,127
5488,note_on,1,0,0,,11,,,58,127
5488,note_on,0,0,0,,1,,,73,127
5602,note_off,114,0,0,,1,,,73,127
5603,note_on,1,0,0,,11,,,70,127
5717,note_off,114,0,0,,11,,,70,127
5717,note_off,0,0,0,,11,,,58,127
5718,note_on,1,0,0,,5,,,53,127
5718,note_on,0,0,0,,5,,,65,127
5833,note_on,115,0,0,,5,,,77,127
5946,note_off,113,0,0,,5,,,65,127
5947,note_off,1,0,0,,5,,,77,127
5947,note_off,0,0,0,,5,,,53,127
5948,note_on,1,0,0,,5,,,65,127
5948,note_on,0,0,0,,0,,,72,127
6062,note_off,114,0,0,,0,,,72,127
6063,note_on,1,0,0,,8,,,68,127
6177,note_off,114,0,0,,8,,,68,127
6177,note_off,0,0,0,,5,,,65,127
6178,note_on,1,0,0,,1,,,61,127
6178,note_on,0,0,0,,5,,,65,127
6293,note_on,115,0,0,,5,,,77,127
6406,note_off,113,0,0,,5,,,65,127
6407,note_off,1,0,0,,5,,,77,127
6407,note_off,0,0,0,,1,,,61,127
6408,note_on,1,0,0,,11,,,58,127
6408,note_on,0,0,0,,1,,,73,127
6522,note_off,114,0,0,,1,,,73,127
6523,note_on,1,0,0,,11,,,70,127
6637,note_off,114,0,0,,11,,,70,127
6637,note_off,0,0,0,,11,,,58,127
6638,note_on,1,0,0,,5,,,53,127
6638,note_on,0,0,0,,5,,,65,127
6752,note_off,114,0,0,,5,,,65,127
6752,note_off,0,0,0,,5,,,53,127
6753,note_on,1,0,0,,5,,,65,127
6867,note_off,114,0,0,,5,,,65,127
6868,note_on,1,0,0,,0,,,60,127
6868,note_on,0,0,0,,5,,,77,127
6982,note_off,114,0,0,,0,,,60,127
6983,note_on,1,0,0,,5,,,53,127
7097,note_off,114,0,0,,5,,,53,127
7098,note_on,1,0,0,,0,,,48,127
7212,note_off,114,0,0,,0,,,48,127
7213,note_off,1,0,0,,5,,,77,127
7213,note_on,0,0,0,,0,,,60,127
7327,note_off,114,0,0,,0,,,60,127
7328,note_on,1,0,0,,7,,,55,127
7328,note_on,0,0,0,,7,,,79,127
7328,note_on,0,0,0,,4,,,76,127
7442,note_off,114,0,0,,7,,,55,127
7443,note_on,1,0,0,,0,,,48,127
7556,note_off,113,0,0,,4,,,76,127
7556,note_off,0,0,0,,7,,,79,127
7557,note_off,1,0,0,,0,,,48,127
7558,note_on,1,0,0,,5,,,41,127
7672,note_off,114,0,0,,5,,,41,127
7673,note_on,1,0,0,,5,,,53,127
7787,note_off,114,0,0,,5,,,53,127
7788,note_on,1,0,0,,0,,,48,127
7788,note_on,0,0,0,,5,,,77,127
7788,note_on,0,0,0,,8,,,80,127
7902,note_off,114,0,0,,0,,,48,127
7903,note_on,1,0,0,,5,,,41,127
8016,note_off,113,0,0,,8,,,80,127
8016,note_off,0,0,0,,5,,,77,127
8017,note_off,1,0,0,,5,,,41,127
8018,note_on,1,0,0,,0,,,36,127
8132,note_off,114,0,0,,0,,,36,127
8133,note_on,1,0,0,,0,,,48,127
8247,note_off,114,0,0,,0,,,48,127
8248,note_on,1,0,0,,7,,,43,127
8248,note_on,0,0,0,,11,,,82,127
8248,note_on,0,0,0,,7,,,79,127
8362,note_off,114,0,0,,7,,,43,127
8363,note_on,1,0,0,,0,,,36,127
8476,note_off,113,0,0,,7,,,79,127
8476,note_off,0,0,0,,11,,,82,127
8477,note_off,1,0,0,,0,,,36,127
8478,note_on,1,0,0,,5,,,41,127
8593,note_on,115,0,0,,0,,,84,127
8707,note_off,114,0,0,,0,,,84,127
8707,note_off,0,0,0,,5,,,41,127
8708,note_on,1,0,0,,5,,,53,127
8708,note_on,0,0,0,,5,,,77,127
8822,note_off,114,0,0,,5,,,77,127
8823,note_on,1,0,0,,0,,,72,127
8937,note_off,114,0,0,,0,,,72,127
8938,note_on,1,0,0,,1,,,73,127
9052,note_off,114,0,0,,1,,,73,127
9053,note_off,1,0,0,,5,,,53,127
9053,note_on,0,0,0,,5,,,77,127
9167,note_off,114,0,0,,5,,,77,127
9168,note_on,1,0,0,,7,,,55,127
9168,note_on,0,0,0,,1,,,73,127
9282,note_off,114,0,0,,1,,,73,127
9283,note_on,1,0,0,,11,,,70,127
9397,note_off,114,0,0,,11,,,70,127
9397,note_off,0,0,0,,7,,,55,127
9398,note_on,1,0,0,,8,,,56,127
9398,note_on,0,0,0,,0,,,72,127
9512,note_off,114,0,0,,0,,,72,127
9513,note_on,1,0,0,,3,,,75,127
9627,note_off,114,0,0,,3,,,75,127
9628,note_on,1,0,0,,0,,,60,127
9628,note_on,0,0,0,,0,,,72,127
9742,note_off,114,0,0,,0,,,72,127
9743,note_on,1,0,0,,8,,,68,127
9853,note_off,110,0,0,,8,,,56,127
9857,note_off,4,0,0,,8,,,68,127
9857,note_off,0,0,0,,0,,,60,127
9858,note_on,1,0,0,,7,,,55,127
9858,note_on,0,0,0,,11,,,58,127
9858,note_on,0,0,0,,3,,,63,127
9973,note_on,115,0,0,,3,,,75,127
10086,note_off,113,0,0,,3,,,63,127
10087,note_off,1,0,0,,3,,,75,127
10087,note_off,0,0,0,,7,,,55,127
10088,note_on,1,0,0,,3,,,51,127
10088,note_on,0,0,0,,11,,,70,127
10202,note_off,114,0,0,,11,,,70,127
10203,note_on,1,0,0,,7,,,67,127
10313,note_off,110,0,0,,11,,,58,127
10317,note_off,4,0,0,,7,,,67,127
10317,note_off,0,0,0,,3,,,51,127
10318,note_on,1,0,0,,8,,,56,127
10318,note_on,0,0,0,,3,,,63,127
10433,note_on,115,0,0,,3,,,75,127
10546,note_off,113,0,0,,3,,,63,127
10547,note_off,1,0,0,,3,,,75,127
10548,note_on,1,0,0,,0,,,60,127
10548,note_on,0,0,0,,0,,,72,127
10662,note_off,114,0,0,,0,,,72,127
10663,note_on,1,0,0,,8,,,68,127
10773,note_off,110,0,0,,8,,,56,127
10777,note_off,4,0,0,,8,,,68,127
10777,note_off,0,0,0,,0,,,60,127
10778,note_on,1,0,0,,7,,,55,127
10778,note_on,0,0,0,,11,,,58,127
10778,note_on,0,0,0,,3,,,63,127
10893,note_on,115,0,0,,3,,,75,127
11006,note_off,113,0,0,,3,,,63,127
11007,note_off,1,0,0,,3,,,75,127
11007,note_off,0,0,0,,7,,,55,127
11008,note_on,1,0,0,,3,,,51,127
11008,note_on,0,0,0,,11,,,70,127
11122,note_off,114,0,0,,11,,,70,127
11123,note_on,1,0,0,,7,,,67,127
11233,note_off,110,0,0,,11,,,58,127
11235,note_off,2,0,0,,3,,,51,127
11236,note_off,1,0,0,,7,,,67,127
11237,note_on,1,0,0,,3,,,63,127
11351,note_off,114,0,0,,3,,,63,127
11352,note_on,1,0,0,,3,,,63,127
11466,note_off,114,0,0,,3,,,63,127
11467,note_on,1,0,0,,11,,,58,127
11467,note_on,0,0,0,,3,,,75,127
11581,note_off,114,0,0,,11,,,58,127
11582,note_on,1,0,0,,7,,,55,127
11696,note_off,114,0,0,,7,,,55,127
11697,note_on,1,0,0,,3,,,51,127
11811,note_off,114,0,0,,3,,,51,127
11812,note_on,1,0,0,,3,,,63,127
11926,note_off,114,0,0,,3,,,63,127
11926,note_off,0,0,0,,3,,,75,127
11927,note_on,1,0,0,,0,,,60,127
11927,note_on,0,0,0,,8,,,68,127
11927,note_on,0,0,0,,0,,,72,127
12041,note_off,114,0,0,,0,,,60,127
12042,note_on,1,0,0,,8,,,56,127
12155,note_off,113,0,0,,0,,,72,127
12155,note_off,0,0,0,,8,,,68,127
12156,note_off,1,0,0,,8,,,56,127
12157,note_on,1,0,0,,3,,,51,127
12271,note_off,114,0,0,,3,,,51,127
12272,note_on,1,0,0,,3,,,63,127
12386,note_off,114,0,0,,3,,,63,127
12387,note_on,1,0,0,,11,,,58,127
12387,note_on,0,0,0,,11,,,70,127
12387,note_on,0,0,0,,1,,,73,127
12501,note_off,114,0,0,,11,,,58,127
12502,note_on,1,0,0,,7,,,55,127
12615,note_off,113,0,0,,1,,,73,127
12615,note_off,0,0,0,,11,,,70,127
12616,note_off,1,0,0,,7,,,55,127
12617,note_on,1,0,0,,3,,,51,127
12731,note_off,114,0,0,,3,,,51,127
12732,note_on,1,0,0,,3,,,63,127
12846,note_off,114,0,0,,3,,,63,127
12847,note_on,1,0,0,,0,,,60,127
12847,note_on,0,0,0,,8,,,68,127
12847,note_on,0,0,0,,0,,,72,127
12961,note_off,114,0,0,,0,,,60,127
12962,note_on,1,0,0,,8,,,56,127
13076,note_off,114,0,0,,8,,,56,127
13076,note_off,0,0,0,,0,,,72,127
13076,note_off,0,0,0,,8,,,68,127
13077,note_on,1,0,0,,3,,,51,127
13077,note_on,0,0,0,,7,,,67,127
13077,note_on,0,0,0,,11,,,70,127
13191,note_off,114,0,0,,3,,,51,127
13192,note_on,1,0,0,,3,,,63,127
13306,note_off,114,0,0,,3,,,63,127
13306,note_off,0,0,0,,11,,,70,127
13306,note_off,0,0,0,,7,,,67,127
13307,note_on,1,0,0,,11,,,58,127
13307,note_on,0,0,0,,11,,,70,127
13307,note_on,0,0,0,,7,,,67,127
13307,note_on,0,0,0,,3,,,75,127
13421,note_off,114,0,0,,11,,,58,127
13422,note_on,1,0,0,,7,,,55,127
13535,note_off,113,0,0,,3,,,75,127
13535,note_off,0,0,0,,7,,,67,127
13535,note_off,0,0,0,,11,,,70,127
13536,note_off,1,0,0,,7,,,55,127
13537,note_on,1,0,0,,2,,,50,127
13651,note_off,114,0,0,,2,,,50,127
13652,note_on,1,0,0,,2,,,62,127
13766,note_off,114,0,0,,2,,,62,127
13767,note_on,1,0,0,,11,,,58,127
13767,note_on,0,0,0,,8,,,68,127
13767,note_on,0,0,0,,5,,,65,127
13767,note_on,0,0,0,,5,,,77,127
13881,note_off,114,0,0,,11,,,58,127
13882,note_on,1,0,0,,2,,,50,127
13995,note_off,113,0,0,,5,,,77,127
13995,note_off,0,0,0,,5,,,65,127
13995,note_off,0,0,0,,8,,,68,127
13996,note_off,1,0,0,,2,,,50,127
13997,note_on,1,0,0,,3,,,51,127
14111,note_off,114,0,0,,3,,,51,127
14112,note_on,1,0,0,,3,,,63,127
14226,note_off,114,0,0,,3,,,63,127
14227,note_on,1,0,0,,11,,,58,127
14227,note_on,0,0,0,,3,,,75,127
14227,note_on,0,0,0,,7,,,67,127
14227,note_on,0,0,0,,7,,,79,127
14341,note_off,114,0,0,,11,,,58,127
14342,note_on,1,0,0,,3,,,51,127
14455,note_off,113,0,0,,7,,,79,127
14455,note_off,0,0,0,,7,,,67,127
14455,note_off,0,0,0,,3,,,75,127
14456,note_off,1,0,0,,3,,,51,127
14457,note_on,1,0,0,,5,,,53,127
14571,note_off,114,0,0,,5,,,53,127
14572,note_on,1,0,0,,5,,,65,127
14686,note_off,114,0,0,,5,,,65,127
14687,note_on,1,0,0,,0,,,60,127
14687,note_on,0,0,0,,8,,,80,127
14687,note_on,0,0,0,,5,,,77,127
14687,note_on,0,0,0,,0,,,72,127
14801,note_off,114,0,0,,0,,,60,127
14802,note_on,1,0,0,,5,,,53,127
14915,note_off,113,0,0,,0,,,72,127
14915,note_off,0,0,0,,5,,,77,127
14915,note_off,0,0,0,,8,,,80,127
14916,note_off,1,0,0,,5,,,53,127
14917,note_on,1,0,0,,7,,,55,127
15031,note_off,114,0,0,,7,,,55,127
15032,note_on,1,0,0,,7,,,67,127
15146,note_off,114,0,0,,7,,,67,127
15147,note_on,1,0,0,,2,,,62,127
15147,note_on,0,0,0,,5,,,77,127
15147,note_on,0,0,0,,7,,,79,127
15147,note_on,0,0,0,,2,,,74,127
15147,note_on,0,0,0,,12,,,71,127
15261,note_off,114,0,0,,2,,,62,127
15262,note_on,1,0,0,,12,,,59,127
15375,note_off,113,0,0,,12,,,71,127
15375,note_off,0,0,0,,2,,,74,127
15375,note_off,0,0,0,,7,,,79,127
15375,note_off,0,0,0,,5,,,77,127
15376,note_off,1,0,0,,12,,,59,127
15377,note_on,1,0,0,,7,,,55,127
15491,note_off,114,0,0,,7,,,55,127
15492,note_on,1,0,0,,7,,,67,127
15606,note_off,114,0,0,,7,,,67,127
15607,note_on,1,0,0,,3,,,63,127
15607,note_on,0,0,0,,3,,,75,127
15607,note_on,0,0,0,,0,,,72,127
15607,note_on,0,0,0,,7,,,79,127
15721,note_off,114,0,0,,3,,,63,127
15722,note_on,1,0,0,,0,,,60,127
15835,note_off,113,0,0,,7,,,79,127
15835,note_off,0,0,0,,0,,,72,127
15835,note_off,0,0,0,,3,,,75,127
15836,note_off,1,0,0,,0,,,60,127
15837,note_on,1,0,0,,7,,,55,127
15951,note_off,114,0,0,,7,,,55,127
15952,note_on,1,0,0,,7,,,67,127
16066,note_off,114,0,0,,7,,,67,127
16067,note_on,1,0,0,,2,,,62,127
16067,note_on,0,0,0,,2,,,74,127
16067,note_on,0,0,0,,12,,,71,127
16067,note_on,0,0,0,,7,,,79,127
16067,note_on,0,0,0,,5,,,77,127
16181,note_off,114,0,0,,2,,,62,127
16182,note_on,1,0,0,,12,,,59,127
16295,note_off,113,0,0,,5,,,77,127
16295,note_off,0,0,0,,7,,,79,127
16295,note_off,0,0,0,,12,,,71,127
16295,note_off,0,0,0,,2,,,74,127
16296,note_off,1,0,0,,12,,,59,127
16297,note_on,1,0,0,,7,,,55,127
16411,note_off,114,0,0,,7,,,55,127
16412,note_on,1,0,0,,7,,,67,127
16526,note_off,114,0,0,,7,,,67,127
16527,note_on,1,0,0,,3,,,63,127
16527,note_on,0,0,0,,3,,,75,127
16527,note_on,0,0,0,,0,,,72,127
16527,note_on,0,0,0,,7,,,79,127
16641,note_off,114,0,0,,3,,,63,127
16642,note_on,1,0,0,,0,,,60,127
16755,note_off,113,0,0,,7,,,79,127
16755,note_off,0,0,0,,0,,,72,127
16755,note_off,0,0,0,,3,,,75,127
16756,note_off,1,0,0,,0,,,60,127
16757,note_on,1,0,0,,7,,,43,127
16871,note_off,114,0,0,,7,,,43,127
16872,note_on,1,0,0,,7,,,55,127
16986,note_off,114,0,0,,7,,,55,127
16987,note_on,1,0,0,,2,,,50,127
16987,note_on,0,0,0,,2,,,74,127
16987,note_on,0,0,0,,12,,,83,127
16987,note_on,0,0,0,,7,,,79,127
16987,note_on,0,0,0,,5,,,77,127
17101,note_off,114,0,0,,2,,,50,127
17102,note_on,1,0,0,,12,,,47,127
17215,note_off,113,0,0,,5,,,77,127
17215,note_off,0,0,0,,7,,,79,127
17215,note_off,0,0,0,,12,,,83,127
17215,note_off,0,0,0,,2,,,74,127
17216,note_off,1,0,0,,12,,,47,127
17217,note_on,1,0,0,,7,,,43,127
17331,note_off,114,0,0,,7,,,43,127
17332,note_on,1,0,0,,7,,,55,127
17446,note_off,114,0,0,,7,,,55,127
17447,note_on,1,0,0,,3,,,51,127
17447,note_on,0,0,0,,3,,,75,127
17447,note_on,0,0,0,,0,,,72,127
17447,note_on,0,0,0,,0,,,84,127
17447,note_on,0,0,0,,7,,,79,127
17561,note_off,114,0,0,,3,,,51,127
17562,note_on,1,0,0,,0,,,48,127
17675,note_off,113,0,0,,7,,,79,127
17675,note_off,0,0,0,,0,,,84,127
17675,note_off,0,0,0,,0,,,72,127
17675,note_off,0,0,0,,3,,,75,127
17676,note_off,1,0,0,,0,,,48,127
17677,note_on,1,0,0,,7,,,43,127
17791,note_off,114,0,0,,7,,,43,127
17792,note_on,1,0,0,,7,,,55,127
17906,note_off,114,0,0,,7,,,55,127
17907,note_on,1,0,0,,2,,,50,127
17907,note_on,0,0,0,,7,,,79,127
17907,note_on,0,0,0,,5,,,77,127
17907,note_on,0,0,0,,2,,,74,127
17907,note_on,0,0,0,,2,,,86,127
18021,note_off,114,0,0,,2,,,50,127
18022,note_on,1,0,0,,12,,,47,127
18135,note_off,113,0,0,,2,,,86,127
18135,note_off,0,0,0,,2,,,74,127
18135,note_off,0,0,0,,5,,,77,127
18135,note_off,0,0,0,,7,,,79,127
18136,note_off,1,0,0,,12,,,47,127
18137,note_on,1,0,0,,7,,,43,127
18251,note_off,114,0,0,,7,,,43,127
18252,note_on,1,0,0,,7,,,55,127
18366,note_off,114,0,0,,7,,,55,127
18367,note_on,1,0,0,,3,,,51,127
18367,note_on,0,0,0,,3,,,75,127
18367,note_on,0,0,0,,7,,,79,127
18367,note_on,0,0,0,,0,,,84,127
18481,note_off,114,0,0,,3,,,51,127
18482,note_on,1,0,0,,0,,,48,127
18595,note_off,113,0,0,,0,,,84,127
18595,note_off,0,0,0,,7,,,79,127
18595,note_off,0,0,0,,3,,,75,127
18596,note_off,1,0,0,,0,,,48,127
18597,note_on,1,0,0,,7,,,43,127
18711,note_off,114,0,0,,7,,,43,127
18712,note_on,1,0,0,,7,,,55,127
18826,note_off,114,0,0,,7,,,55,127
18827,note_on,1,0,0,,2,,,50,127
18827,note_on,0,0,0,,5,,,77,127
18827,note_on,0,0,0,,2,,,74,127
18827,note_on,0,0,0,,2,,,86,127
18827,note_on,0,0,0,,7,,,79,127
18941,note_off,114,0,0,,2,,,50,127
18942,note_on,1,0,0,,7,,,43,127
19055,note_off,113,0,0,,7,,,79,127
19055,note_off,0,0,0,,2,,,86,127
19055,note_off,0,0,0,,2,,,74,127
19055,note_off,0,0,0,,5,,,77,127
19056,note_off,1,0,0,,7,,,43,127
19057,note_on,1,0,0,,3,,,39,127
19172,note_on,115,0,0,,12,,,83,127
19286,note_off,114,0,0,,12,,,83,127
19287,note_on,1,0,0,,0,,,84,127
19401,note_off,114,0,0,,0,,,84,127
19402,note_on,1,0,0,,7,,,79,127
19516,note_off,114,0,0,,7,,,79,127
19516,note_off,0,0,0,,3,,,39,127
19517,note_on,1,0,0,,5,,,41,127
19517,note_on,0,0,0,,0,,,84,127
19517,note_on,0,0,0,,8,,,80,127
19631,note_off,114,0,0,,8,,,80,127
19632,note_on,1,0,0,,5,,,77,127
19746,note_off,114,0,0,,5,,,77,127
19746,note_off,0,0,0,,5,,,41,127
19747,note_on,1,0,0,,5,,,53,127
19747,note_on,0,0,0,,7,,,79,127
19861,note_off,114,0,0,,7,,,79,127
19862,note_on,1,0,0,,2,,,74,127
19972,note_off,110,0,0,,0,,,84,127
19976,note_off,4,0,0,,2,,,74,127
19976,note_off,0,0,0,,5,,,53,127
19977,note_on,1,0,0,,7,,,55,127
19977,note_on,0,0,0,,3,,,75,127
19977,note_on,0,0,0,,7,,,79,127
20091,note_off,114,0,0,,3,,,75,127
20092,note_on,1,0,0,,0,,,72,127
20206,note_off,114,0,0,,0,,,72,127
20206,note_off,0,0,0,,7,,,55,127
20207,note_on,1,0,0,,7,,,43,127
20207,note_on,0,0,0,,2,,,74,127
20321,note_off,114,0,0,,2,,,74,127
20322,note_on,1,0,0,,12,,,71,127
20432,note_off,110,0,0,,7,,,79,127
20436,note_off,4,0,0,,12,,,71,127
20436,note_off,0,0,0,,7,,,43,127
20437,note_on,1,0,0,,0,,,48,127
20437,note_on,0,0,0,,0,,,72,127
20551,note_off,114,0,0,,0,,,72,127
20552,note_on,1,0,0,,7,,,79,127
20666,note_off,114,0,0,,7,,,79,127
20666,note_off,0,0,0,,0,,,48,127
20667,note_on,1,0,0,,0,,,60,127
20667,note_on,0,0,0,,0,,,72,127
20781,note_off,114,0,0,,0,,,72,127
20782,note_on,1,0,0,,7,,,67,127
20896,note_off,114,0,0,,7,,,67,127
20896,note_off,0,0,0,,0,,,60,127
20897,note_on,1,0,0,,5,,,53,127
20897,note_on,0,0,0,,8,,,68,127
21012,note_on,115,0,0,,8,,,80,127
21125,note_off,113,0,0,,8,,,68,127
21126,note_off,1,0,0,,8,,,80,127
21126,note_off,0,0,0,,5,,,53,127
21127,note_on,1,0,0,,5,,,65,127
21127,note_on,0,0,0,,5,,,77,127
21241,note_off,114,0,0,,5,,,77,127
21242,note_on,1,0,0,,10,,,69,127
21356,note_off,114,0,0,,10,,,69,127
21356,note_off,0,0,0,,5,,,65,127
21357,note_on,1,0,0,,7,,,55,127
21357,note_on,0,0,0,,12,,,71,127
21471,note_off,114,0,0,,7,,,55,127
21472,note_on,1,0,0,,7,,,67,127
21586,note_off,114,0,0,,7,,,67,127
21586,note_off,0,0,0,,12,,,71,127
21587,note_on,1,0,0,,2,,,62,127
21587,note_on,0,0,0,,7,,,79,127
21587,note_on,0,0,0,,12,,,71,127
21587,note_on,0,0,0,,5,,,77,127
21587,note_on,0,0,0,,2,,,74,127
21701,note_off,114,0,0,,2,,,62,127
21702,note_on,1,0,0,,12,,,59,127
21815,note_off,113,0,0,,2,,,74,127
21815,note_off,0,0,0,,5,,,77,127
21815,note_off,0,0,0,,12,,,71,127
21815,note_off,0,0,0,,7,,,79,127
21816,note_off,1,0,0,,12,,,59,127
21817,note_on,1,0,0,,7,,,55,127
21931,note_off,114,0,0,,7,,,55,127
21932,note_on,1,0,0,,7,,,67,127
22046,note_off,114,0,0,,7,,,67,127
22047,note_on,1,0,0,,3,,,63,127
22047,note_on,0,0,0,,0,,,72,127
22047,note_on,0,0,0,,7,,,79,127
22047,note_on,0,0,0,,3,,,75,127
22161,note_off,114,0,0,,3,,,63,127
22162,note_on,1,0,0,,0,,,60,127
22275,note_off,113,0,0,,3,,,75,127
22275,note_off,0,0,0,,7,,,79,127
22275,note_off,0,0,0,,0,,,72,127
22276,note_off,1,0,0,,0,,,60,127
22277,note_on,1,0,0,,7,,,55,127
22391,note_off,114,0,0,,7,,,55,127
22392,note_on,1,0,0,,7,,,67,127
22506,note_off,114,0,0,,7,,,67,127
22507,note_on,1,0,0,,2,,,62,127
22507,note_on,0,0,0,,12,,,71,127
22507,note_on,0,0,0,,2,,,74,127
22507,note_on,0,0,0,,7,,,79,127
22507,note_on,0,0,0,,5,,,77,127
22621,note_off,114,0,0,,2,,,62,127
22622,note_on,1,0,0,,12,,,59,127
22735,note_off,113,0,0,,5,,,77,127
22735,note_off,0,0,0,,7,,,79,127
22735,note_off,0,0,0,,2,,,74,127
22735,note_off,0,0,0,,12,,,71,127
22736,note_off,1,0,0,,12,,,59,127
22737,note_on,1,0,0,,7,,,55,127
22851,note_off,114,0,0,,7,,,55,127
22852,note_on,1,0,0,,7,,,67,127
22966,note_off,114,0,0,,7,,,67,127
22967,note_on,1,0,0,,3,,,63,127
22967,note_on,0,0,0,,3,,,75,127
22967,note_on,0,0,0,,0,,,72,127
22967,note_on,0,0,0,,7,,,79,127
23081,note_off,114,0,0,,3,,,63,127
23082,note_on,1,0,0,,0,,,60,127
23195,note_off,113,0,0,,7,,,79,127
23195,note_off,0,0,0,,0,,,72,127
23195,note_off,0,0,0,,3,,,75,127
23196,note_off,1,0,0,,0,,,60,127
23197,note_on,1,0,0,,7,,,43,127
23311,note_off,114,0,0,,7,,,43,127
23312,note_on,1,0,0,,7,,,55,127
23426,note_off,114,0,0,,7,,,55,127
23427,note_on,1,0,0,,2,,,50,127
23427,note_on,0,0,0,,2,,,74,127
23427,note_on,0,0,0,,12,,,83,127
23427,note_on,0,0,0,,7,,,79,127
23427,note_on,0,0,0,,5,,,77,127
23541,note_off,114,0,0,,2,,,50,127
23542,note_on,1,0,0,,12,,,47,127
23655,note_off,113,0,0,,5,,,77,127
23655,note_off,0,0,0,,7,,,79,127
23655,note_off,0,0,0,,12,,,83,127
23655,note_off,0,0,0,,2,,,74,127
23656,note_off,1,0,0,,12,,,47,127
23657,note_on,1,0,0,,7,,,43,127
23771,note_off,114,0,0,,7,,,43,127
23772,note_on,1,0,0,,7,,,55,127
23886,note_off,114,0,0,,7,,,55,127
23887,note_on,1,0,0,,3,,,51,127
23887,note_on,0,0,0,,0,,,72,127
23887,note_on,0,0,0,,7,,,79,127
23887,note_on,0,0,0,,3,,,75,127
23887,note_on,0,0,0,,0,,,84,127
24001,note_off,114,0,0,,3,,,51,127
24002,note_on,1,0,0,,0,,,48,127
24115,note_off,113,0,0,,0,,,84,127
24115,note_off,0,0,0,,3,,,75,127
24115,note_off,0,0,0,,7,,,79,127
24115,note_off,0,0,0,,0,,,72,127
24116,note_off,1,0,0,,0,,,48,127
24117,note_on,1,0,0,,7,,,43,127
24231,note_off,114,0,0,,7,,,43,127
24232,note_on,1,0,0,,7,,,55,127
24346,note_off,114,0,0,,7,,,55,127
24347,note_on,1,0,0,,2,,,50,127
24347,note_on,0,0,0,,5,,,77,127
24347,note_on,0,0,0,,2,,,74,127
24347,note_on,0,0,0,,2,,,86,127
24347,note_on,0,0,0,,7,,,79,127
24461,note_off,114,0,0,,2,,,50,127
24462,note_on,1,0,0,,12,,,47,127
24575,note_off,113,0,0,,7,,,79,127
24575,note_off,0,0,0,,2,,,86,127
24575,note_off,0,0,0,,2,,,74,127
24575,note_off,0,0,0,,5,,,77,127
24576,note_off,1,0,0,,12,,,47,127
24577,note_on,1,0,0,,7,,,43,127
24691,note_off,114,0,0,,7,,,43,127
24692,note_on,1,0,0,,7,,,55,127
24806,note_off,114,0,0,,7,,,55,127
24807,note_on,1,0,0,,3,,,51,127
24807,note_on,0,0,0,,3,,,75,127
24807,note_on,0,0,0,,0,,,84,127
24807,note_on,0,0,0,,7,,,79,127
24921,note_off,114,0,0,,3,,,51,127
24922,note_on,1,0,0,,0,,,48,127
25035,note_off,113,0,0,,7,,,79,127
25035,note_off,0,0,0,,0,,,84,127
25035,note_off,0,0,0,,3,,,75,127
25036,note_off,1,0,0,,0,,,48,127
25037,note_on,1,0,0,,7,,,43,127
25151,note_off,114,0,0,,7,,,43,127
25152,note_on,1,0,0,,7,,,55,127
25266,note_off,114,0,0,,7,,,55,127
25267,note_on,1,0,0,,2,,,50,127
25267,note_on,0,0,0,,2,,,74,127
25267,note_on,0,0,0,,7,,,79,127
25267,note_on,0,0,0,,5,,,77,127
25267,note_on,0,0,0,,2,,,86,127
25381,note_off,114,0,0,,2,,,50,127
25382,note_on,1,0,0,,7,,,43,127
25496,note_off,114,0,0,,7,,,43,127
25497,note_on,1,0,0,,3,,,39,127
25611,note_off,114,0,0,,2,,,86,127
25611,note_off,0,0,0,,5,,,77,127
25611,note_off,0,0,0,,7,,,79,127
25611,note_off,0,0,0,,2,,,74,127
25612,note_on,1,0,0,,12,,,83,127
25726,note_off,114,0,0,,12,,,83,127
25727,note_on,1,0,0,,0,,,84,127
25841,note_off,114,0,0,,0,,,84,127
25842,note_on,1,0,0,,7,,,79,127
25956,note_off,114,0,0,,7,,,79,127
25956,note_off,0,0,0,,3,,,39,127
25957,note_on,1,0,0,,5,,,41,127
25957,note_on,0,0,0,,8,,,80,127
25957,note_on,0,0,0,,0,,,84,127
26071,note_off,114,0,0,,8,,,80,127
26072,note_on,1,0,0,,5,,,77,127
26186,note_off,114,0,0,,5,,,77,127
26186,note_off,0,0,0,,5,,,41,127
26187,note_on,1,0,0,,5,,,53,127
26187,note_on,0,0,0,,7,,,79,127
26301,note_off,114,0,0,,7,,,79,127
26302,note_on,1,0,0,,2,,,74,127
26412,note_off,110,0,0,,0,,,84,127
26416,note_off,4,0,0,,2,,,74,127
26416,note_off,0,0,0,,5,,,53,127
26417,note_on,1,0,0,,7,,,55,127
26417,note_on,0,0,0,,7,,,79,127
26417,note_on,0,0,0,,3,,,75,127
26531,note_off,114,0,0,,3,,,75,127
26532,note_on,1,0,0,,0,,,72,127
26646,note_off,114,0,0,,0,,,72,127
26646,note_off,0,0,0,,7,,,55,127
26647,note_on,1,0,0,,7,,,43,127
26647,note_on,0,0,0,,2,,,74,127
26761,note_off,114,0,0,,2,,,74,127
26762,note_on,1,0,0,,12,,,71,127
26872,note_off,110,0,0,,7,,,79,127
26876,note_off,4,0,0,,12,,,71,127
26876,note_off,0,0,0,,7,,,43,127
26877,note_on,1,0,0,,0,,,48,127
26877,note_on,0,0,0,,0,,,72,127
26991,note_off,114,0,0,,0,,,72,127
26992,note_on,1,0,0,,7,,,79,127
27106,note_off,114,0,0,,7,,,79,127
27106,note_off,0,0,0,,0,,,48,127
27107,note_on,1,0,0,,3,,,51,127
27107,note_on,0,0,0,,0,,,72,127
27221,note_off,114,0,0,,0,,,72,127
27222,note_on,1,0,0,,7,,,67,127
27336,note_off,114,0,0,,7,,,67,127
27336,note_off,0,0,0,,3,,,51,127
27337,note_on,1,0,0,,5,,,53,127
27337,note_on,0,0,0,,8,,,68,127
27452,note_on,115,0,0,,8,,,80,127
27565,note_off,113,0,0,,8,,,68,127
27566,note_off,1,0,0,,8,,,80,127
27566,note_off,0,0,0,,5,,,53,127
27567,note_on,1,0,0,,2,,,50,127
27567,note_on,0,0,0,,5,,,77,127
27681,note_off,114,0,0,,5,,,77,127
27682,note_on,1,0,0,,12,,,71,127
27796,note_off,114,0,0,,12,,,71,127
27796,note_off,0,0,0,,2,,,50,127
27797,note_on,1,0,0,,3,,,51,127
27797,note_on,0,0,0,,0,,,72,127
27911,note_off,114,0,0,,0,,,72,127
27912,note_on,1,0,0,,7,,,79,127
28026,note_off,114,0,0,,7,,,79,127
28026,note_off,0,0,0,,3,,,51,127
28027,note_on,1,0,0,,3,,,39,127
28027,note_on,0,0,0,,0,,,72,127
28141,note_off,114,0,0,,0,,,72,127
28142,note_on,1,0,0,,7,,,67,127
28256,note_off,114,0,0,,7,,,67,127
28256,note_off,0,0,0,,3,,,39,127
28257,note_on,1,0,0,,5,,,41,127
28257,note_on,0,0,0,,8,,,68,127
28372,note_on,115,0,0,,8,,,80,127
28485,note_off,113,0,0,,8,,,68,127
28486,note_off,1,0,0,,8,,,80,127
28486,note_off,0,0,0,,5,,,41,127
28487,note_on,1,0,0,,2,,,38,127
28487,note_on,0,0,0,,5,,,77,127
28601,note_off,114,0,0,,5,,,77,127
28602,note_on,1,0,0,,12,,,71,127
28716,note_off,114,0,0,,12,,,71,127
28716,note_off,0,0,0,,2,,,38,127
28717,note_on,1,0,0,,3,,,39,127
28717,note_on,0,0,0,,0,,,72,127
28831,note_off,114,0,0,,0,,,72,127
28832,note_on,1,0,0,,7,,,67,127
28946,note_off,114,0,0,,7,,,67,127
28946,note_off,0,0,0,,3,,,39,127
28947,note_on,1,0,0,,5,,,41,127
28947,note_on,0,0,0,,8,,,68,127
29061,note_off,114,0,0,,8,,,68,127
29062,note_on,1,0,0,,5,,,65,127
29176,note_off,114,0,0,,5,,,65,127
29176,note_off,0,0,0,,5,,,41,127
29177,note_on,1,0,0,,7,,,43,127
29177,note_on,0,0,0,,3,,,63,127
29291,note_off,114,0,0,,3,,,63,127
29292,note_on,1,0,0,,0,,,72,127
29406,note_off,114,0,0,,0,,,72,127
29406,note_off,0,0,0,,7,,,43,127
29407,note_on,1,0,0,,7,,,31,127
29407,note_on,0,0,0,,2,,,62,127
29521,note_off,114,0,0,,2,,,62,127
29522,note_on,1,0,0,,12,,,71,127
29636,note_off,114,0,0,,12,,,71,127
29636,note_off,0,0,0,,7,,,31,127
29637,note_on,1,0,0,,0,,,36,127
29637,note_on,0,0,0,,0,,,72,127
30327,note_off,690,0,0,,0,,,72,127
30557,note_off,230,0,0,,0,,,36,127
30558,note_on,1,0,0,,0,,,36,127
30673,note_on,115,0,0,,0,,,60,127
30787,note_off,114,0,0,,0,,,60,127
30788,note_on,1,0,0,,4,,,64,127
30902,note_off,114,0,0,,4,,,64,127
30903,note_on,1,0,0,,7,,,67,127
31017,note_off,114,0,0,,7,,,67,127
31018,note_on,1,0,0,,0,,,72,127
31132,note_off,114,0,0,,0,,,72,127
31133,note_on,1,0,0,,4,,,76,127
31247,note_off,114,0,0,,4,,,76,127
31248,note_on,1,0,0,,7,,,79,127
31362,note_off,114,0,0,,7,,,79,127
31363,note_on,1,0,0,,12,,,83,127
31477,note_off,114,0,0,,12,,,83,127
31478,note_on,1,0,0,,0,,,84,127
31592,note_off,114,0,0,,0,,,36,127
31593,note_on,1,0,0,,0,,,48,127
31707,note_off,114,0,0,,0,,,48,127
31708,note_on,1,0,0,,4,,,52,127
31822,note_off,114,0,0,,4,,,52,127
31823,note_on,1,0,0,,7,,,55,127
31937,note_off,114,0,0,,7,,,55,127
31938,note_on,1,0,0,,0,,,60,127
32052,note_off,114,0,0,,0,,,60,127
32053,note_on,1,0,0,,4,,,64,127
32167,note_off,114,0,0,,4,,,64,127
32168,note_on,1,0,0,,7,,,67,127
32282,note_off,114,0,0,,7,,,67,127
32283,note_on,1,0,0,,11,,,70,127
32397,note_off,114,0,0,,11,,,70,127
32398,note_on,1,0,0,,1,,,73,127
32512,note_off,114,0,0,,0,,,84,127
32513,note_on,1,0,0,,0,,,84,127
32627,note_off,114,0,0,,0,,,84,127
32628,note_on,1,0,0,,11,,,82,127
32742,note_off,114,0,0,,11,,,82,127
32743,note_on,1,0,0,,10,,,81,127
32857,note_off,114,0,0,,10,,,81,127
32858,note_on,1,0,0,,11,,,82,127
32972,note_off,114,0,0,,11,,,82,127
32973,note_on,1,0,0,,10,,,81,127
33087,note_off,114,0,0,,10,,,81,127
33087,note_off,0,0,0,,1,,,73,127
33088,note_on,1,0,0,,0,,,72,127
33088,note_on,0,0,0,,11,,,82,127
33202,note_off,114,0,0,,11,,,82,127
33203,note_on,1,0,0,,0,,,84,127
33317,note_off,114,0,0,,0,,,84,127
33317,note_off,0,0,0,,0,,,72,127
33318,note_on,1,0,0,,11,,,70,127
33318,note_on,0,0,0,,1,,,85,127
33432,note_off,114,0,0,,1,,,85,127
33433,note_on,1,0,0,,0,,,84,127
33547,note_off,114,0,0,,0,,,84,127
33547,note_off,0,0,0,,11,,,70,127
33548,note_on,1,0,0,,1,,,61,127
33548,note_on,0,0,0,,11,,,82,127
33662,note_off,114,0,0,,11,,,82,127
33663,note_on,1,0,0,,8,,,80,127
33777,note_off,114,0,0,,8,,,80,127
33777,note_off,0,0,0,,1,,,61,127
33778,note_on,1,0,0,,3,,,63,127
33778,note_on,0,0,0,,7,,,79,127
33892,note_off,114,0,0,,7,,,79,127
33893,note_on,1,0,0,,5,,,77,127
34007,note_off,114,0,0,,5,,,77,127
34007,note_off,0,0,0,,3,,,63,127
34008,note_on,1,0,0,,7,,,67,127
34008,note_on,0,0,0,,3,,,75,127
34122,note_off,114,0,0,,3,,,75,127
34123,note_on,1,0,0,,1,,,73,127
34237,note_off,114,0,0,,1,,,73,127
34237,note_off,0,0,0,,7,,,67,127
34238,note_on,1,0,0,,8,,,68,127
34238,note_on,0,0,0,,0,,,72,127
34352,note_off,114,0,0,,0,,,72,127
34353,note_on,1,0,0,,8,,,80,127
34467,note_off,114,0,0,,8,,,80,127
34467,note_off,0,0,0,,8,,,68,127
34468,note_on,1,0,0,,8,,,56,127
34468,note_on,0,0,0,,3,,,75,127
34582,note_off,114,0,0,,3,,,75,127
34583,note_on,1,0,0,,0,,,72,127
34697,note_off,114,0,0,,0,,,72,127
34698,note_on,1,0,0,,8,,,68,127
34813,note_on,115,0,0,,8,,,80,127
34926,note_off,113,0,0,,8,,,68,127
34927,note_off,1,0,0,,8,,,80,127
34927,note_off,0,0,0,,8,,,56,127
34928,note_on,1,0,0,,5,,,65,127
34928,note_on,0,0,0,,1,,,61,127
34928,note_on,0,0,0,,5,,,77,127
35042,note_off,114,0,0,,5,,,77,127
35043,note_on,1,0,0,,1,,,73,127
35157,note_off,114,0,0,,1,,,73,127
35157,note_off,0,0,0,,1,,,61,127
35157,note_off,0,0,0,,5,,,65,127
35158,note_on,1,0,0,,0,,,60,127
35158,note_on,0,0,0,,3,,,63,127
35158,note_on,0,0,0,,8,,,68,127
35273,note_on,115,0,0,,8,,,80,127
35386,note_off,113,0,0,,8,,,68,127
35387,note_off,1,0,0,,8,,,80,127
35387,note_off,0,0,0,,0,,,60,127
35388,note_on,1,0,0,,8,,,56,127
35388,note_on,0,0,0,,3,,,75,127
35502,note_off,114,0,0,,3,,,75,127
35503,note_on,1,0,0,,0,,,72,127
35617,note_off,114,0,0,,0,,,72,127
35618,note_on,1,0,0,,8,,,68,127
35733,note_off,115,0,0,,3,,,63,127
35733,note_on,0,0,0,,8,,,80,127
35846,note_off,113,0,0,,8,,,68,127
35847,note_off,1,0,0,,8,,,80,127
35848,note_on,1,0,0,,1,,,61,127
35848,note_on,0,0,0,,5,,,65,127
35848,note_on,0,0,0,,5,,,77,127
35962,note_off,114,0,0,,5,,,77,127
35963,note_on,1,0,0,,1,,,73,127
36076,note_off,113,0,0,,5,,,65,127
36076,note_off,0,0,0,,1,,,61,127
36077,note_off,1,0,0,,1,,,73,127
36077,note_off,0,0,0,,8,,,56,127
36078,note_on,1,0,0,,8,,,68,127
36192,note_off,114,0,0,,8,,,68,127
36193,note_on,1,0,0,,8,,,68,127
36307,note_off,114,0,0,,8,,,68,127
36308,note_on,1,0,0,,3,,,63,127
36308,note_on,0,0,0,,3,,,75,127
36308,note_on,0,0,0,,0,,,72,127
36422,note_off,114,0,0,,3,,,63,127
36423,note_on,1,0,0,,0,,,60,127
36536,note_off,113,0,0,,0,,,72,127
36536,note_off,0,0,0,,3,,,75,127
36537,note_off,1,0,0,,0,,,60,127
36538,note_on,1,0,0,,8,,,56,127
36652,note_off,114,0,0,,8,,,56,127
36653,note_on,1,0,0,,8,,,68,127
36767,note_off,114,0,0,,8,,,68,127
36768,note_on,1,0,0,,5,,,65,127
36768,note_on,0,0,0,,5,,,77,127
36768,note_on,0,0,0,,1,,,73,127
36882,note_off,114,0,0,,5,,,65,127
36883,note_on,1,0,0,,1,,,61,127
36996,note_off,113,0,0,,1,,,73,127
36996,note_off,0,0,0,,5,,,77,127
36997,note_off,1,0,0,,1,,,61,127
36998,note_on,1,0,0,,8,,,56,127
37112,note_off,114,0,0,,8,,,56,127
37113,note_on,1,0,0,,8,,,68,127
37227,note_off,114,0,0,,8,,,68,127
37228,note_on,1,0,0,,3,,,63,127
37228,note_on,0,0,0,,6,,,78,127
37228,note_on,0,0,0,,3,,,75,127
37342,note_off,114,0,0,,3,,,63,127
37343,note_on,1,0,0,,0,,,60,127
37456,note_off,113,0,0,,3,,,75,127
37456,note_off,0,0,0,,6,,,78,127
37457,note_off,1,0,0,,0,,,60,127
37458,note_on,1,0,0,,8,,,56,127
37572,note_off,114,0,0,,8,,,56,127
37573,note_on,1,0,0,,8,,,68,127
37687,note_off,114,0,0,,8,,,68,127
37688,note_on,1,0,0,,5,,,65,127
37688,note_on,0,0,0,,5,,,77,127
37688,note_on,0,0,0,,1,,,73,127
37802,note_off,114,0,0,,5,,,65,127
37803,note_on,1,0,0,,1,,,61,127
37916,note_off,113,0,0,,1,,,73,127
37916,note_off,0,0,0,,5,,,77,127
37917,note_off,1,0,0,,1,,,61,127
37918,note_on,1,0,0,,8,,,56,127
38032,note_off,114,0,0,,8,,,56,127
38033,note_on,1,0,0,,8,,,68,127
38147,note_off,114,0,0,,8,,,68,127
38148,note_on,1,0,0,,3,,,63,127
38148,note_on,0,0,0,,0,,,72,127
38148,note_on,0,0,0,,3,,,75,127
38262,note_off,114,0,0,,3,,,63,127
38263,note_on,1,0,0,,8,,,56,127
38376,note_off,113,0,0,,3,,,75,127
38376,note_off,0,0,0,,0,,,72,127
38377,note_off,1,0,0,,8,,,56,127
38378,note_on,1,0,0,,6,,,54,127
38492,note_off,114,0,0,,6,,,54,127
38493,note_on,1,0,0,,6,,,66,127
38607,note_off,114,0,0,,6,,,66,127
38608,note_on,1,0,0,,3,,,63,127
38608,note_on,0,0,0,,3,,,75,127
38608,note_on,0,0,0,,0,,,72,127
38608,note_on,0,0,0,,11,,,82,127
38722,note_off,114,0,0,,3,,,63,127
38723,note_on,1,0,0,,6,,,54,127
38836,note_off,113,0,0,,11,,,82,127
38836,note_off,0,0,0,,0,,,72,127
38836,note_off,0,0,0,,3,,,75,127
38837,note_off,1,0,0,,6,,,54,127
38838,note_on,1,0,0,,5,,,53,127
38952,note_off,114,0,0,,5,,,53,127
38953,note_on,1,0,0,,5,,,65,127
39067,note_off,114,0,0,,5,,,65,127
39068,note_on,1,0,0,,0,,,60,127
39068,note_on,0,0,0,,5,,,77,127
39068,note_on,0,0,0,,3,,,75,127
39068,note_on,0,0,0,,0,,,72,127
39068,note_on,0,0,0,,10,,,81,127
39182,note_off,114,0,0,,0,,,60,127
39183,note_on,1,0,0,,10,,,57,127
39296,note_off,113,0,0,,10,,,81,127
39296,note_off,0,0,0,,0,,,72,127
39296,note_off,0,0,0,,3,,,75,127
39296,note_off,0,0,0,,5,,,77,127
39297,note_off,1,0,0,,10,,,57,127
39298,note_on,1,0,0,,5,,,53,127
39412,note_off,114,0,0,,5,,,53,127
39413,note_on,1,0,0,,5,,,65,127
39527,note_off,114,0,0,,5,,,65,127
39528,note_on,1,0,0,,1,,,61,127
39528,note_on,0,0,0,,1,,,73,127
39528,note_on,0,0,0,,11,,,82,127
39528,note_on,0,0,0,,5,,,77,127
39642,note_off,114,0,0,,1,,,61,127
39643,note_on,1,0,0,,11,,,58,127
39756,note_off,113,0,0,,5,,,77,127
39756,note_off,0,0,0,,11,,,82,127
39756,note_off,0,0,0,,1,,,73,127
39757,note_off,1,0,0,,11,,,58,127
39758,note_on,1,0,0,,5,,,53,127
39872,note_off,114,0,0,,5,,,53,127
39873,note_on,1,0,0,,5,,,65,127
39987,note_off,114,0,0,,5,,,65,127
39988,note_on,1,0,0,,0,,,60,127
39988,note_on,0,0,0,,0,,,84,127
39988,note_on,0,0,0,,3,,,75,127
39988,note_on,0,0,0,,0,,,72,127
40102,note_off,114,0,0,,0,,,60,127
40103,note_on,1,0,0,,10,,,57,127
40216,note_off,113,0,0,,0,,,72,127
40216,note_off,0,0,0,,3,,,75,127
40216,note_off,0,0,0,,0,,,84,127
40217,note_off,1,0,0,,10,,,57,127
40218,note_on,1,0,0,,5,,,53,127
40332,note_off,114,0,0,,5,,,53,127
40333,note_on,1,0,0,,5,,,65,127
40447,note_off,114,0,0,,5,,,65,127
40448,note_on,1,0,0,,1,,,61,127
40448,note_on,0,0,0,,1,,,73,127
40448,note_on,0,0,0,,11,,,82,127
40448,note_on,0,0,0,,5,,,77,127
40562,note_off,114,0,0,,1,,,61,127
40563,note_on,1,0,0,,11,,,58,127
40676,note_off,113,0,0,,5,,,77,127
40676,note_off,0,0,0,,11,,,82,127
40676,note_off,0,0,0,,1,,,73,127
40677,note_off,1,0,0,,11,,,58,127
40678,note_on,1,0,0,,5,,,53,127
40792,note_off,114,0,0,,5,,,53,127
40793,note_on,1,0,0,,5,,,65,127
40907,note_off,114,0,0,,5,,,65,127
40908,note_on,1,0,0,,0,,,60,127
40908,note_on,0,0,0,,5,,,77,127
40908,note_on,0,0,0,,10,,,81,127
40908,note_on,0,0,0,,0,,,72,127
40908,note_on,0,0,0,,3,,,75,127
41022,note_off,114,0,0,,0,,,60,127
41023,note_on,1,0,0,,10,,,57,127
41136,note_off,113,0,0,,3,,,75,127
41136,note_off,0,0,0,,0,,,72,127
41136,note_off,0,0,0,,10,,,81,127
41136,note_off,0,0,0,,5,,,77,127
41137,note_off,1,0,0,,10,,,57,127
41138,note_on,1,0,0,,5,,,53,127
41252,note_off,114,0,0,,5,,,53,127
41253,note_on,1,0,0,,5,,,65,127
41367,note_off,114,0,0,,5,,,65,127
41368,note_on,1,0,0,,1,,,61,127
41368,note_on,0,0,0,,5,,,77,127
41368,note_on,0,0,0,,1,,,73,127
41368,note_on,0,0,0,,11,,,82,127
41482,note_off,114,0,0,,1,,,61,127
41483,note_on,1,0,0,,11,,,58,127
41596,note_off,113,0,0,,11,,,82,127
41596,note_off,0,0,0,,1,,,73,127
41596,note_off,0,0,0,,5,,,77,127
41597,note_off,1,0,0,,11,,,58,127
41598,note_on,1,0,0,,4,,,52,127
41712,note_off,114,0,0,,4,,,52,127
41713,note_on,1,0,0,,4,,,64,127
41827,note_off,114,0,0,,4,,,64,127
41828,note_on,1,0,0,,0,,,60,127
41828,note_on,0,0,0,,11,,,82,127
41828,note_on,0,0,0,,7,,,79,127
41828,note_on,0,0,0,,4,,,76,127
41828,note_on,0,0,0,,0,,,72,127
41942,note_off,114,0,0,,0,,,60,127
41943,note_on,1,0,0,,4,,,52,127
42056,note_off,113,0,0,,0,,,72,127
42056,note_off,0,0,0,,4,,,76,127
42056,note_off,0,0,0,,7,,,79,127
42056,note_off,0,0,0,,11,,,82,127
42057,note_off,1,0,0,,4,,,52,127
42058,note_on,1,0,0,,5,,,53,127
42172,note_off,114,0,0,,5,,,53,127
42173,note_on,1,0,0,,5,,,65,127
42287,note_off,114,0,0,,5,,,65,127
42288,note_on,1,0,0,,0,,,60,127
42288,note_on,0,0,0,,0,,,72,127
42288,note_on,0,0,0,,8,,,80,127
42288,note_on,0,0,0,,5,,,77,127
42402,note_off,114,0,0,,0,,,60,127
42403,note_on,1,0,0,,5,,,53,127
42516,note_off,113,0,0,,5,,,77,127
42516,note_off,0,0,0,,8,,,80,127
42516,note_off,0,0,0,,0,,,72,127
42517,note_off,1,0,0,,5,,,53,127
42518,note_on,1,0,0,,1,,,49,127
42632,note_off,114,0,0,,1,,,49,127
42633,note_on,1,0,0,,0,,,60,127
42747,note_off,114,0,0,,0,,,60,127
42748,note_on,1,0,0,,8,,,56,127
42748,note_on,0,0,0,,8,,,80,127
42748,note_on,0,0,0,,5,,,77,127
42748,note_on,0,0,0,,0,,,72,127
42862,note_off,114,0,0,,8,,,56,127
42863,note_on,1,0,0,,1,,,49,127
42976,note_off,113,0,0,,0,,,72,127
42976,note_off,0,0,0,,5,,,77,127
42976,note_off,0,0,0,,8,,,80,127
42977,note_off,1,0,0,,1,,,49,127
42978,note_on,1,0,0,,11,,,46,127
43092,note_off,114,0,0,,11,,,46,127
43093,note_on,1,0,0,,11,,,58,127
43207,note_off,114,0,0,,11,,,58,127
43208,note_on,1,0,0,,1,,,49,127
43208,note_on,0,0,0,,5,,,77,127
43208,note_on,0,0,0,,11,,,82,127
43208,note_on,0,0,0,,7,,,79,127
43208,note_on,0,0,0,,1,,,73,127
43322,note_off,114,0,0,,1,,,49,127
43323,note_on,1,0,0,,11,,,46,127
43436,note_off,113,0,0,,1,,,73,127
43436,note_off,0,0,0,,7,,,79,127
43436,note_off,0,0,0,,11,,,82,127
43436,note_off,0,0,0,,5,,,77,127
43437,note_off,1,0,0,,11,,,46,127
43438,note_on,1,0,0,,0,,,36,127
43553,note_on,115,0,0,,7,,,79,127
43667,note_off,114,0,0,,7,,,79,127
43668,note_on,1,0,0,,4,,,76,127
43782,note_off,114,0,0,,4,,,76,127
43783,note_on,1,0,0,,0,,,72,127
43897,note_off,114,0,0,,0,,,72,127
43898,note_on,1,0,0,,1,,,73,127
44012,note_off,114,0,0,,1,,,73,127
44013,note_on,1,0,0,,5,,,77,127
44127,note_off,114,0,0,,5,,,77,127
44128,note_on,1,0,0,,11,,,70,127
44242,note_off,114,0,0,,11,,,70,127
44243,note_on,1,0,0,,4,,,76,127
44357,note_off,114,0,0,,4,,,76,127
44357,note_off,0,0,0,,0,,,36,127
44358,note_on,1,0,0,,0,,,36,127
44358,note_on,0,0,0,,5,,,77,127
44472,note_off,114,0,0,,5,,,77,127
44473,note_on,1,0,0,,1,,,73,127
44587,note_off,114,0,0,,1,,,73,127
44588,note_on,1,0,0,,11,,,70,127
44702,note_off,114,0,0,,11,,,70,127
44703,note_on,1,0,0,,7,,,67,127
44817,note_off,114,0,0,,7,,,67,127
44818,note_on,1,0,0,,8,,,68,127
44932,note_off,114,0,0,,8,,,68,127
44933,note_on,1,0,0,,5,,,77,127
45047,note_off,114,0,0,,5,,,77,127
45048,note_on,1,0,0,,5,,,65,127
45162,note_off,114,0,0,,5,,,65,127
45163,note_on,1,0,0,,12,,,71,127
45277,note_off,114,0,0,,12,,,71,127
45277,note_off,0,0,0,,0,,,36,127
45278,note_on,1,0,0,,0,,,48,127
45278,note_on,0,0,0,,0,,,72,127
45392,note_off,114,0,0,,0,,,48,127
45393,note_on,1,0,0,,0,,,60,127
45507,note_off,114,0,0,,0,,,60,127
45507,note_off,0,0,0,,0,,,72,127
45508,note_on,1,0,0,,7,,,55,127
45508,note_on,0,0,0,,0,,,72,127
45508,note_on,0,0,0,,4,,,64,127
45508,note_on,0,0,0,,11,,,70,127
45508,note_on,0,0,0,,7,,,67,127
45622,note_off,114,0,0,,7,,,55,127
45623,note_on,1,0,0,,4,,,52,127
45736,note_off,113,0,0,,7,,,67,127
45736,note_off,0,0,0,,11,,,70,127
45736,note_off,0,0,0,,4,,,64,127
45736,note_off,0,0,0,,0,,,72,127
45737,note_off,1,0,0,,4,,,52,127
45738,note_on,1,0,0,,0,,,48,127
45852,note_off,114,0,0,,0,,,48,127
45853,note_on,1,0,0,,0,,,60,127
45967,note_off,114,0,0,,0,,,60,127
45968,note_on,1,0,0,,8,,,56,127
45968,note_on,0,0,0,,8,,,68,127
45968,note_on,0,0,0,,5,,,65,127
45968,note_on,0,0,0,,0,,,72,127
46082,note_off,114,0,0,,8,,,56,127
46083,note_on,1,0,0,,5,,,53,127
46196,note_off,113,0,0,,0,,,72,127
46196,note_off,0,0,0,,5,,,65,127
46196,note_off,0,0,0,,8,,,68,127
46197,note_off,1,0,0,,5,,,53,127
46198,note_on,1,0,0,,0,,,48,127
46312,note_off,114,0,0,,0,,,48,127
46313,note_on,1,0,0,,0,,,60,127
46427,note_off,114,0,0,,0,,,60,127
46428,note_on,1,0,0,,7,,,55,127
46428,note_on,0,0,0,,4,,,64,127
46428,note_on,0,0,0,,0,,,72,127
46428,note_on,0,0,0,,11,,,70,127
46428,note_on,0,0,0,,7,,,67,127
46542,note_off,114,0,0,,7,,,55,127
46543,note_on,1,0,0,,4,,,52,127
46656,note_off,113,0,0,,7,,,67,127
46656,note_off,0,0,0,,11,,,70,127
46656,note_off,0,0,0,,0,,,72,127
46656,note_off,0,0,0,,4,,,64,127
46657,note_off,1,0,0,,4,,,52,127
46658,note_on,1,0,0,,0,,,48,127
46772,note_off,114,0,0,,0,,,48,127
46773,note_on,1,0,0,,0,,,60,127
46887,note_off,114,0,0,,0,,,60,127
46888,note_on,1,0,0,,8,,,56,127
46888,note_on,0,0,0,,0,,,72,127
46888,note_on,0,0,0,,8,,,68,127
46888,note_on,0,0,0,,5,,,65,127
47002,note_off,114,0,0,,8,,,56,127
47003,note_on,1,0,0,,5,,,53,127
47116,note_off,113,0,0,,5,,,65,127
47116,note_off,0,0,0,,8,,,68,127
47116,note_off,0,0,0,,0,,,72,127
47117,note_off,1,0,0,,5,,,53,127
47118,note_on,1,0,0,,0,,,36,127
47232,note_off,114,0,0,,0,,,36,127
47233,note_on,1,0,0,,0,,,48,127
47347,note_off,114,0,0,,0,,,48,127
47348,note_on,1,0,0,,7,,,43,127
47348,note_on,0,0,0,,4,,,76,127
47348,note_on,0,0,0,,0,,,72,127
47348,note_on,0,0,0,,11,,,70,127
47348,note_on,0,0,0,,7,,,67,127
47462,note_off,114,0,0,,7,,,43,127
47463,note_on,1,0,0,,4,,,40,127
47576,note_off,113,0,0,,7,,,67,127
47576,note_off,0,0,0,,11,,,70,127
47576,note_off,0,0,0,,0,,,72,127
47576,note_off,0,0,0,,4,,,76,127
47577,note_off,1,0,0,,4,,,40,127
47578,note_on,1,0,0,,0,,,36,127
47692,note_off,114,0,0,,0,,,36,127
47693,note_on,1,0,0,,0,,,48,127
47807,note_off,114,0,0,,0,,,48,127
47808,note_on,1,0,0,,8,,,44,127
47808,note_on,0,0,0,,8,,,68,127
47808,note_on,0,0,0,,5,,,65,127
47808,note_on,0,0,0,,5,,,77,127
47808,note_on,0,0,0,,0,,,72,127
47922,note_off,114,0,0,,8,,,44,127
47923,note_on,1,0,0,,5,,,41,127
48036,note_off,113,0,0,,0,,,72,127
48036,note_off,0,0,0,,5,,,77,127
48036,note_off,0,0,0,,5,,,65,127
48036,note_off,0,0,0,,8,,,68,127
48037,note_off,1,0,0,,5,,,41,127
48038,note_on,1,0,0,,0,,,36,127
48152,note_off,114,0,0,,0,,,36,127
48153,note_on,1,0,0,,0,,,48,127
48267,note_off,114,0,0,,0,,,48,127
48268,note_on,1,0,0,,7,,,43,127
48268,note_on,0,0,0,,7,,,79,127
48268,note_on,0,0,0,,11,,,70,127
48268,note_on,0,0,0,,0,,,72,127
48268,note_on,0,0,0,,4,,,76,127
48382,note_off,114,0,0,,7,,,43,127
48383,note_on,1,0,0,,4,,,40,127
48496,note_off,113,0,0,,4,,,76,127
48496,note_off,0,0,0,,0,,,72,127
48496,note_off,0,0,0,,11,,,70,127
48496,note_off,0,0,0,,7,,,79,127
48497,note_off,1,0,0,,4,,,40,127
48498,note_on,1,0,0,,0,,,36,127
48612,note_off,114,0,0,,0,,,36,127
48613,note_on,1,0,0,,0,,,48,127
48727,note_off,114,0,0,,0,,,48,127
48728,note_on,1,0,0,,8,,,44,127
48728,note_on,0,0,0,,0,,,72,127
48728,note_on,0,0,0,,8,,,80,127
48728,note_on,0,0,0,,5,,,77,127
48842,note_off,114,0,0,,8,,,44,127
48843,note_on,1,0,0,,5,,,41,127
48956,note_off,113,0,0,,5,,,77,127
48956,note_off,0,0,0,,8,,,80,127
48956,note_off,0,0,0,,0,,,72,127
48957,note_off,1,0,0,,5,,,41,127
48958,note_on,1,0,0,,0,,,36,127
49072,note_off,114,0,0,,0,,,36,127
49073,note_on,1,0,0,,0,,,48,127
49187,note_off,114,0,0,,0,,,48,127
49188,note_on,1,0,0,,7,,,43,127
49188,note_on,0,0,0,,0,,,72,127
49188,note_on,0,0,0,,11,,,82,127
49188,note_on,0,0,0,,7,,,79,127
49188,note_on,0,0,0,,4,,,76,127
49302,note_off,114,0,0,,7,,,43,127
49303,note_on,1,0,0,,0,,,36,127
49416,note_off,113,0,0,,4,,,76,127
49416,note_off,0,0,0,,7,,,79,127
49416,note_off,0,0,0,,11,,,82,127
49416,note_off,0,0,0,,0,,,72,127
49417,note_off,1,0,0,,0,,,36,127
49418,note_on,1,0,0,,8,,,44,127
49533,note_on,115,0,0,,0,,,84,127
49647,note_off,114,0,0,,0,,,84,127
49648,note_on,1,0,0,,5,,,77,127
49762,note_off,114,0,0,,5,,,77,127
49763,note_on,1,0,0,,0,,,72,127
49877,note_off,114,0,0,,0,,,72,127
49877,note_off,0,0,0,,8,,,44,127
49878,note_on,1,0,0,,11,,,46,127
49878,note_on,0,0,0,,1,,,73,127
49993,note_on,115,0,0,,1,,,85,127
50106,note_off,113,0,0,,1,,,73,127
50107,note_off,1,0,0,,1,,,85,127
50107,note_off,0,0,0,,11,,,46,127
50108,note_on,1,0,0,,11,,,46,127
50108,note_on,0,0,0,,11,,,82,127
50222,note_off,114,0,0,,11,,,82,127
50223,note_on,1,0,0,,7,,,79,127
50337,note_off,114,0,0,,7,,,79,127
50337,note_off,0,0,0,,11,,,46,127
50338,note_on,1,0,0,,0,,,48,127
50338,note_on,0,0,0,,8,,,80,127
50452,note_off,114,0,0,,8,,,80,127
50453,note_on,1,0,0,,5,,,77,127
50567,note_off,114,0,0,,5,,,77,127
50567,note_off,0,0,0,,0,,,48,127
50568,note_on,1,0,0,,0,,,36,127
50568,note_on,0,0,0,,7,,,79,127
50682,note_off,114,0,0,,7,,,79,127
50683,note_on,1,0,0,,4,,,76,127
50797,note_off,114,0,0,,4,,,76,127
50797,note_off,0,0,0,,0,,,36,127
50798,note_on,1,0,0,,5,,,41,127
50798,note_on,0,0,0,,5,,,77,127
50912,note_off,114,0,0,,5,,,77,127
50913,note_on,1,0,0,,8,,,80,127
51027,note_off,114,0,0,,8,,,80,127
51028,note_on,1,0,0,,5,,,77,127
51142,note_off,114,0,0,,5,,,77,127
51143,note_off,1,0,0,,5,,,41,127
51143,note_on,0,0,0,,0,,,72,127
51257,note_off,114,0,0,,0,,,72,127
51258,note_on,1,0,0,,7,,,43,127
51258,note_on,0,0,0,,1,,,73,127
51372,note_off,114,0,0,,1,,,73,127
51373,note_on,1,0,0,,5,,,77,127
51487,note_off,114,0,0,,5,,,77,127
51488,note_on,1,0,0,,1,,,73,127
51602,note_off,114,0,0,,1,,,73,127
51603,note_off,1,0,0,,7,,,43,127
51603,note_on,0,0,0,,5,,,65,127
51717,note_off,114,0,0,,5,,,65,127
51718,note_on,1,0,0,,0,,,48,127
51718,note_on,0,0,0,,7,,,67,127
51832,note_off,114,0,0,,0,,,48,127
51833,note_on,1,0,0,,0,,,60,127
51947,note_off,114,0,0,,0,,,60,127
51947,note_off,0,0,0,,7,,,67,127
51948,note_on,1,0,0,,7,,,55,127
51948,note_on,0,0,0,,0,,,72,127
51948,note_on,0,0,0,,11,,,70,127
51948,note_on,0,0,0,,7,,,67,127
51948,note_on,0,0,0,,4,,,64,127
52062,note_off,114,0,0,,7,,,55,127
52063,note_on,1,0,0,,4,,,52,127
52176,note_off,113,0,0,,4,,,64,127
52176,note_off,0,0,0,,7,,,67,127
52176,note_off,0,0,0,,11,,,70,127
52176,note_off,0,0,0,,0,,,72,127
52177,note_off,1,0,0,,4,,,52,127
52178,note_on,1,0,0,,0,,,48,127
52292,note_off,114,0,0,,0,,,48,127
52293,note_on,1,0,0,,0,,,60,127
52407,note_off,114,0,0,,0,,,60,127
52408,note_on,1,0,0,,8,,,56,127
52408,note_on,0,0,0,,5,,,65,127
52408,note_on,0,0,0,,0,,,72,127
52408,note_on,0,0,0,,8,,,68,127
52522,note_off,114,0,0,,8,,,56,127
52523,note_on,1,0,0,,5,,,53,127
52636,note_off,113,0,0,,8,,,68,127
52636,note_off,0,0,0,,0,,,72,127
52636,note_off,0,0,0,,5,,,65,127
52637,note_off,1,0,0,,5,,,53,127
52638,note_on,1,0,0,,0,,,48,127
52752,note_off,114,0,0,,0,,,48,127
52753,note_on,1,0,0,,0,,,60,127
52867,note_off,114,0,0,,0,,,60,127
52868,note_on,1,0,0,,7,,,55,127
52868,note_on,0,0,0,,7,,,67,127
52868,note_on,0,0,0,,4,,,64,127
52868,note_on,0,0,0,,0,,,72,127
52868,note_on,0,0,0,,11,,,70,127
52982,note_off,114,0,0,,7,,,55,127
52983,note_on,1,0,0,,4,,,52,127
53096,note_off,113,0,0,,11,,,70,127
53096,note_off,0,0,0,,0,,,72,127
53096,note_off,0,0,0,,4,,,64,127
53096,note_off,0,0,0,,7,,,67,127
53097,note_off,1,0,0,,4,,,52,127
53098,note_on,1,0,0,,0,,,48,127
53212,note_off,114,0,0,,0,,,48,127
53213,note_on,1,0,0,,0,,,60,127
53327,note_off,114,0,0,,0,,,60,127
53328,note_on,1,0,0,,8,,,56,127
53328,note_on,0,0,0,,8,,,68,127
53328,note_on,0,0,0,,5,,,65,127
53328,note_on,0,0,0,,0,,,72,127
53442,note_off,114,0,0,,8,,,56,127
53443,note_on,1,0,0,,5,,,53,127
53556,note_off,113,0,0,,0,,,72,127
53556,note_off,0,0,0,,5,,,65,127
53556,note_off,0,0,0,,8,,,68,127
53557,note_off,1,0,0,,5,,,53,127
53558,note_on,1,0,0,,0,,,36,127
53672,note_off,114,0,0,,0,,,36,127
53673,note_on,1,0,0,,0,,,48,127
53787,note_off,114,0,0,,0,,,48,127
53788,note_on,1,0,0,,7,,,43,127
53788,note_on,0,0,0,,7,,,67,127
53788,note_on,0,0,0,,4,,,76,127
53788,note_on,0,0,0,,0,,,72,127
53788,note_on,0,0,0,,11,,,70,127
53902,note_off,114,0,0,,7,,,43,127
53903,note_on,1,0,0,,4,,,40,127
54016,note_off,113,0,0,,11,,,70,127
54016,note_off,0,0,0,,0,,,72,127
54016,note_off,0,0,0,,4,,,76,127
54016,note_off,0,0,0,,7,,,67,127
54017,note_off,1,0,0,,4,,,40,127
54018,note_on,1,0,0,,0,,,36,127
54132,note_off,114,0,0,,0,,,36,127
54133,note_on,1,0,0,,0,,,48,127
54247,note_off,114,0,0,,0,,,48,127
54248,note_on,1,0,0,,8,,,44,127
54248,note_on,0,0,0,,5,,,65,127
54248,note_on,0,0,0,,5,,,77,127
54248,note_on,0,0,0,,0,,,72,127
54248,note_on,0,0,0,,8,,,68,127
54362,note_off,114,0,0,,8,,,44,127
54363,note_on,1,0,0,,5,,,41,127
54476,note_off,113,0,0,,8,,,68,127
54476,note_off,0,0,0,,0,,,72,127
54476,note_off,0,0,0,,5,,,77,127
54476,note_off,0,0,0,,5,,,65,127
54477,note_off,1,0,0,,5,,,41,127
54478,note_on,1,0,0,,0,,,36,127
54592,note_off,114,0,0,,0,,,36,127
54593,note_on,1,0,0,,0,,,48,127
54707,note_off,114,0,0,,0,,,48,127
54708,note_on,1,0,0,,7,,,43,127
54708,note_on,0,0,0,,4,,,76,127
54708,note_on,0,0,0,,0,,,72,127
54708,note_on,0,0,0,,11,,,70,127
54708,note_on,0,0,0,,7,,,79,127
54822,note_off,114,0,0,,7,,,43,127
54823,note_on,1,0,0,,4,,,40,127
54936,note_off,113,0,0,,7,,,79,127
54936,note_off,0,0,0,,11,,,70,127
54936,note_off,0,0,0,,0,,,72,127
54936,note_off,0,0,0,,4,,,76,127
54937,note_off,1,0,0,,4,,,40,127
54938,note_on,1,0,0,,0,,,36,127
55052,note_off,114,0,0,,0,,,36,127
55053,note_on,1,0,0,,0,,,48,127
55167,note_off,114,0,0,,0,,,48,127
55168,note_on,1,0,0,,8,,,44,127
55168,note_on,0,0,0,,0,,,72,127
55168,note_on,0,0,0,,8,,,80,127
55168,note_on,0,0,0,,5,,,77,127
55282,note_off,114,0,0,,8,,,44,127
55283,note_on,1,0,0,,5,,,41,127
55396,note_off,113,0,0,,5,,,77,127
55396,note_off,0,0,0,,8,,,80,127
55396,note_off,0,0,0,,0,,,72,127
55397,note_off,1,0,0,,5,,,41,127
55398,note_on,1,0,0,,0,,,36,127
55512,note_off,114,0,0,,0,,,36,127
55513,note_on,1,0,0,,0,,,48,127
55627,note_off,114,0,0,,0,,,48,127
55628,note_on,1,0,0,,7,,,43,127
55628,note_on,0,0,0,,4,,,76,127
55628,note_on,0,0,0,,0,,,72,127
55628,note_on,0,0,0,,11,,,82,127
55628,note_on,0,0,0,,7,,,79,127
55742,note_off,114,0,0,,7,,,43,127
55743,note_on,1,0,0,,0,,,36,127
55856,note_off,113,0,0,,7,,,79,127
55856,note_off,0,0,0,,11,,,82,127
55856,note_off,0,0,0,,0,,,72,127
55856,note_off,0,0,0,,4,,,76,127
55857,note_off,1,0,0,,0,,,36,127
55858,note_on,1,0,0,,8,,,44,127
55973,note_on,115,0,0,,0,,,84,127
56087,note_off,114,0,0,,0,,,84,127
56088,note_on,1,0,0,,5,,,77,127
56202,note_off,114,0,0,,5,,,77,127
56203,note_on,1,0,0,,0,,,72,127
56317,note_off,114,0,0,,0,,,72,127
56317,note_off,0,0,0,,8,,,44,127
56318,note_on,1,0,0,,11,,,46,127
56318,note_on,0,0,0,,1,,,73,127
56433,note_on,115,0,0,,1,,,85,127
56546,note_off,113,0,0,,1,,,73,127
56547,note_off,1,0,0,,1,,,85,127
56547,note_off,0,0,0,,11,,,46,127
56548,note_on,1,0,0,,11,,,46,127
56548,note_on,0,0,0,,11,,,82,127
56662,note_off,114,0,0,,11,,,82,127
56663,note_on,1,0,0,,7,,,79,127
56777,note_off,114,0,0,,7,,,79,127
56777,note_off,0,0,0,,11,,,46,127
56778,note_on,1,0,0,,0,,,48,127
56778,note_on,0,0,0,,8,,,80,127
56892,note_off,114,0,0,,8,,,80,127
56893,note_on,1,0,0,,5,,,77,127
57007,note_off,114,0,0,,5,,,77,127
57007,note_off,0,0,0,,0,,,48,127
57008,note_on,1,0,0,,0,,,36,127
57008,note_on,0,0,0,,7,,,79,127
57122,note_off,114,0,0,,7,,,79,127
57123,note_on,1,0,0,,4,,,76,127
57237,note_off,114,0,0,,4,,,76,127
57237,note_off,0,0,0,,0,,,36,127
57238,note_on,1,0,0,,5,,,41,127
57238,note_on,0,0,0,,5,,,77,127
57352,note_off,114,0,0,,5,,,77,127
57353,note_on,1,0,0,,0,,,84,127
57467,note_off,114,0,0,,0,,,84,127
57467,note_off,0,0,0,,5,,,41,127
57468,note_on,1,0,0,,8,,,56,127
57468,note_on,0,0,0,,5,,,77,127
57582,note_off,114,0,0,,5,,,77,127
57583,note_on,1,0,0,,0,,,72,127
57697,note_off,114,0,0,,0,,,72,127
57697,note_off,0,0,0,,8,,,56,127
57698,note_on,1,0,0,,11,,,58,127
57698,note_on,0,0,0,,1,,,73,127
57812,note_off,114,0,0,,1,,,73,127
57813,note_on,1,0,0,,11,,,82,127
57927,note_off,114,0,0,,11,,,82,127
57927,note_off,0,0,0,,11,,,58,127
57928,note_on,1,0,0,,7,,,55,127
57928,note_on,0,0,0,,7,,,79,127
58042,note_off,114,0,0,,7,,,79,127
58043,note_on,1,0,0,,4,,,76,127
58157,note_off,114,0,0,,4,,,76,127
58157,note_off,0,0,0,,7,,,55,127
58158,note_on,1,0,0,,8,,,56,127
58158,note_on,0,0,0,,5,,,77,127
58272,note_off,114,0,0,,5,,,77,127
58273,note_on,1,0,0,,0,,,84,127
58387,note_off,114,0,0,,0,,,84,127
58387,note_off,0,0,0,,8,,,56,127
58388,note_on,1,0,0,,8,,,44,127
58388,note_on,0,0,0,,5,,,77,127
58502,note_off,114,0,0,,5,,,77,127
58503,note_on,1,0,0,,0,,,72,127
58617,note_off,114,0,0,,0,,,72,127
58617,note_off,0,0,0,,8,,,44,127
58618,note_on,1,0,0,,11,,,46,127
58618,note_on,0,0,0,,1,,,73,127
58733,note_on,115,0,0,,1,,,85,127
58846,note_off,113,0,0,,1,,,73,127
58847,note_off,1,0,0,,1,,,85,127
58847,note_off,0,0,0,,11,,,46,127
58848,note_on,1,0,0,,7,,,43,127
58848,note_on,0,0,0,,11,,,82,127
58962,note_off,114,0,0,,11,,,82,127
58963,note_on,1,0,0,,4,,,76,127
59077,note_off,114,0,0,,4,,,76,127
59077,note_off,0,0,0,,7,,,43,127
59078,note_on,1,0,0,,8,,,44,127
59078,note_on,0,0,0,,5,,,77,127
59192,note_off,114,0,0,,5,,,77,127
59193,note_on,1,0,0,,0,,,72,127
59307,note_off,114,0,0,,0,,,72,127
59307,note_off,0,0,0,,8,,,44,127
59308,note_on,1,0,0,,11,,,46,127
59308,note_on,0,0,0,,1,,,73,127
59422,note_off,114,0,0,,1,,,73,127
59423,note_on,1,0,0,,7,,,67,127
59537,note_off,114,0,0,,7,,,67,127
59537,note_off,0,0,0,,11,,,46,127
59538,note_on,1,0,0,,0,,,48,127
59538,note_on,0,0,0,,8,,,68,127
59652,note_off,114,0,0,,8,,,68,127
59653,note_on,1,0,0,,0,,,72,127
59767,note_off,114,0,0,,0,,,72,127
59767,note_off,0,0,0,,0,,,48,127
59768,note_on,1,0,0,,0,,,48,127
59768,note_on,0,0,0,,7,,,67,127
59882,note_off,114,0,0,,7,,,67,127
59883,note_on,1,0,0,,4,,,64,127
59997,note_off,114,0,0,,4,,,64,127
59997,note_off,0,0,0,,0,,,48,127
60002,note_on,5,0,0,,5,,,65,127
60002,note_on,0,0,0,,1,,,49,127
60121,note_off,119,0,0,,5,,,65,127
60125,note_on,4,0,0,,0,,,60,127
60243,note_off,118,0,0,,1,,,49,127
60244,note_off,1,0,0,,0,,,60,127
60248,note_on,4,0,0,,1,,,61,127
60248,note_on,0,0,0,,11,,,46,127
60367,note_off,119,0,0,,1,,,61,127
60369,note_on,2,0,0,,11,,,70,127
60488,note_off,119,0,0,,11,,,70,127
60488,note_off,0,0,0,,11,,,46,127
60492,note_on,4,0,0,,8,,,68,127
60492,note_on,0,0,0,,0,,,48,127
60611,note_off,119,0,0,,8,,,68,127
60615,note_on,4,0,0,,5,,,65,127
60733,note_off,118,0,0,,0,,,48,127
60738,note_on,5,0,0,,0,,,36,127
60856,note_off,118,0,0,,5,,,65,127
60860,note_on,4,0,0,,4,,,64,127
60979,note_off,119,0,0,,4,,,64,127
60979,note_off,0,0,0,,0,,,36,127
60996,note_on,17,0,0,,5,,,65,127
60996,note_on,0,0,0,,5,,,41,127
62652,note_off,1656,0,0,,5,,,41,127
62652,note_off,0,0,0,,5,,,65,127
67584,end_of_track,4932,1,0,,,,,,
