tick,type,time,meta,track,program,channel,pitch,tempo,note,velocity
0,copyright,0,1,0,,,,,,
0,program_change,0,0,0,6,0,,,,
0,pitchwheel,0,0,0,,0,0,,,
0,program_change,0,0,0,6,1,,,,
0,pitchwheel,0,0,0,,1,-590,,,
0,program_change,0,0,0,6,2,,,,
0,pitchwheel,0,0,0,,2,-272,,,
0,program_change,0,0,0,6,3,,,,
0,pitchwheel,0,0,0,,3,-353,,,
0,program_change,0,0,0,6,4,,,,
0,pitchwheel,0,0,0,,4,-560,,,
0,program_change,0,0,0,6,5,,,,
0,pitchwheel,0,0,0,,5,-80,,,
0,program_change,0,0,0,6,6,,,,
0,pitchwheel,0,0,0,,6,-625,,,
0,program_change,0,0,0,6,7,,,,
0,pitchwheel,0,0,0,,7,-130,,,
0,program_change,0,0,0,6,8,,,,
0,pitchwheel,0,0,0,,8,-512,,,
0,program_change,0,0,0,6,10,,,,
0,pitchwheel,0,0,0,,10,-464,,,
0,program_change,0,0,0,6,11,,,,
0,pitchwheel,0,0,0,,11,-208,,,
0,program_change,0,0,0,6,12,,,,
0,pitchwheel,0,0,0,,12,-553,,,
0,set_tempo,0,1,0,,,,500000,,
200,note_on,200,0,0,,0,,,84,127
589,note_off,389,0,0,,0,,,84,127
600,note_on,11,0,0,,7,,,79,127
989,note_off,389,0,0,,7,,,79,127
1000,note_on,11,0,0,,0,,,60,127
1000,note_on,0,0,0,,0,,,72,127
1198,note_off,198,0,0,,0,,,72,127
1200,note_on,2,0,0,,0,,,72,127
1292,note_off,92,0,0,,0,,,60,127
1299,note_off,7,0,0,,0,,,72,127
1300,note_on,1,0,0,,12,,,71,127
1399,note_off,99,0,0,,12,,,71,127
1400,note_on,1,0,0,,10,,,69,127
1400,note_on,0,0,0,,0,,,84,127
1599,note_off,199,0,0,,10,,,69,127
1600,note_on,1,0,0,,7,,,67,127
1799,note_off,199,0,0,,7,,,67,127
1800,note_on,1,0,0,,5,,,65,127
1899,note_off,99,0,0,,0,,,84,127
1900,note_on,1,0,0,,12,,,83,127
1999,note_off,99,0,0,,12,,,83,127
1999,note_off,0,0,0,,5,,,65,127
2000,note_on,1,0,0,,4,,,64,127
2000,note_on,0,0,0,,10,,,81,127
2099,note_off,99,0,0,,10,,,81,127
2100,note_on,1,0,0,,7,,,79,127
2199,note_off,99,0,0,,7,,,79,127
2199,note_off,0,0,0,,4,,,64,127
2200,note_on,1,0,0,,2,,,62,127
2200,note_on,0,0,0,,7,,,79,127
2249,note_off,49,0,0,,7,,,79,127
2250,note_on,1,0,0,,5,,,77,127
2299,note_off,49,0,0,,5,,,77,127
2300,note_on,1,0,0,,7,,,79,127
2349,note_off,49,0,0,,7,,,79,127
2350,note_on,1,0,0,,5,,,77,127
2399,note_off,49,0,0,,5,,,77,127
2399,note_off,0,0,0,,2,,,62,127
2400,note_on,1,0,0,,7,,,67,127
2400,note_on,0,0,0,,7,,,79,127
2449,note_off,49,0,0,,7,,,79,127
2450,note_on,1,0,0,,5,,,77,127
2499,note_off,49,0,0,,5,,,77,127
2500,note_on,1,0,0,,4,,,76,127
2549,note_off,49,0,0,,4,,,76,127
2550,note_on,1,0,0,,5,,,77,127
2599,note_off,49,0,0,,5,,,77,127
2599,note_off,0,0,0,,7,,,67,127
2600,note_on,1,0,0,,0,,,60,127
2600,note_on,0,0,0,,4,,,76,127
2788,note_off,188,0,0,,4,,,76,127
2801,note_on,13,0,0,,7,,,79,127
2900,note_off,99,0,0,,7,,,79,127
2901,note_on,1,0,0,,5,,,77,127
2955,note_off,54,0,0,,0,,,60,127
3000,note_off,45,0,0,,5,,,77,127
3001,note_on,1,0,0,,4,,,76,127
3200,note_off,199,0,0,,4,,,76,127
3201,note_on,1,0,0,,2,,,62,127
3201,note_on,0,0,0,,2,,,74,127
3400,note_off,199,0,0,,2,,,74,127
3400,note_off,0,0,0,,2,,,62,127
3401,note_on,1,0,0,,4,,,64,127
3401,note_on,0,0,0,,0,,,72,127
3600,note_off,199,0,0,,0,,,72,127
3601,note_on,1,0,0,,12,,,71,127
3800,note_off,199,0,0,,12,,,71,127
3800,note_off,0,0,0,,4,,,64,127
3801,note_on,1,0,0,,5,,,65,127
3801,note_on,0,0,0,,12,,,71,127
3850,note_off,49,0,0,,12,,,71,127
3851,note_on,1,0,0,,10,,,69,127
3900,note_off,49,0,0,,10,,,69,127
3901,note_on,1,0,0,,12,,,71,127
3950,note_off,49,0,0,,12,,,71,127
3951,note_on,1,0,0,,10,,,69,127
4000,note_off,49,0,0,,10,,,69,127
4001,note_on,1,0,0,,12,,,71,127
4050,note_off,49,0,0,,12,,,71,127
4051,note_on,1,0,0,,10,,,69,127
4100,note_off,49,0,0,,10,,,69,127
4101,note_on,1,0,0,,7,,,67,127
4150,note_off,49,0,0,,7,,,67,127
4151,note_on,1,0,0,,10,,,69,127
4200,note_off,49,0,0,,10,,,69,127
4200,note_off,0,0,0,,5,,,65,127
4201,note_on,1,0,0,,7,,,55,127
4201,note_on,0,0,0,,12,,,71,127
4400,note_off,199,0,0,,7,,,55,127
4401,note_on,1,0,0,,7,,,67,127
4500,note_off,99,0,0,,7,,,67,127
4501,note_on,1,0,0,,5,,,65,127
4600,note_off,99,0,0,,5,,,65,127
4600,note_off,0,0,0,,12,,,71,127
4601,note_on,1,0,0,,4,,,64,127
4601,note_on,0,0,0,,0,,,72,127
4789,note_off,188,0,0,,0,,,72,127
4800,note_off,11,0,0,,4,,,64,127
4801,note_on,1,0,0,,2,,,62,127
4801,note_on,0,0,0,,2,,,74,127
5000,note_off,199,0,0,,2,,,74,127
5000,note_off,0,0,0,,2,,,62,127
5001,note_on,1,0,0,,0,,,60,127
5001,note_on,0,0,0,,4,,,76,127
5200,note_off,199,0,0,,4,,,76,127
5200,note_off,0,0,0,,0,,,60,127
5201,note_on,1,0,0,,12,,,59,127
5201,note_on,0,0,0,,5,,,77,127
5400,note_off,199,0,0,,5,,,77,127
5400,note_off,0,0,0,,12,,,59,127
5401,note_on,1,0,0,,0,,,60,127
5401,note_on,0,0,0,,5,,,77,127
5450,note_off,49,0,0,,5,,,77,127
5451,note_on,1,0,0,,4,,,76,127
5500,note_off,49,0,0,,4,,,76,127
5501,note_on,1,0,0,,5,,,77,127
5550,note_off,49,0,0,,5,,,77,127
5551,note_on,1,0,0,,4,,,76,127
5600,note_off,49,0,0,,4,,,76,127
5600,note_off,0,0,0,,0,,,60,127
5601,note_on,1,0,0,,0,,,48,127
5601,note_on,0,0,0,,5,,,77,127
5650,note_off,49,0,0,,5,,,77,127
5651,note_on,1,0,0,,4,,,76,127
5700,note_off,49,0,0,,4,,,76,127
5701,note_on,1,0,0,,2,,,74,127
5750,note_off,49,0,0,,2,,,74,127
5751,note_on,1,0,0,,4,,,76,127
5800,note_off,49,0,0,,4,,,76,127
5800,note_off,0,0,0,,0,,,48,127
5801,note_on,1,0,0,,7,,,55,127
5801,note_on,0,0,0,,2,,,74,127
6000,note_off,199,0,0,,2,,,74,127
6000,note_off,0,0,0,,7,,,55,127
6001,note_on,1,0,0,,7,,,67,127
6001,note_on,0,0,0,,12,,,71,127
6100,note_off,99,0,0,,7,,,67,127
6101,note_on,1,0,0,,5,,,65,127
6200,note_off,99,0,0,,5,,,65,127
6200,note_off,0,0,0,,12,,,71,127
6201,note_on,1,0,0,,4,,,64,127
6201,note_on,0,0,0,,0,,,72,127
6400,note_off,199,0,0,,0,,,72,127
6400,note_off,0,0,0,,4,,,64,127
6401,note_on,1,0,0,,2,,,62,127
6401,note_on,0,0,0,,2,,,74,127
6600,note_off,199,0,0,,2,,,74,127
6600,note_off,0,0,0,,2,,,62,127
6601,note_on,1,0,0,,0,,,60,127
6601,note_on,0,0,0,,4,,,76,127
6800,note_off,199,0,0,,4,,,76,127
6800,note_off,0,0,0,,0,,,60,127
6801,note_on,1,0,0,,12,,,59,127
6801,note_on,0,0,0,,5,,,77,127
7000,note_off,199,0,0,,5,,,77,127
7000,note_off,0,0,0,,12,,,59,127
7001,note_on,1,0,0,,0,,,60,127
7001,note_on,0,0,0,,5,,,77,127
7050,note_off,49,0,0,,5,,,77,127
7051,note_on,1,0,0,,4,,,76,127
7100,note_off,49,0,0,,4,,,76,127
7101,note_on,1,0,0,,5,,,77,127
7150,note_off,49,0,0,,5,,,77,127
7151,note_on,1,0,0,,4,,,76,127
7200,note_off,49,0,0,,4,,,76,127
7200,note_off,0,0,0,,0,,,60,127
7201,note_on,1,0,0,,0,,,48,127
7201,note_on,0,0,0,,5,,,77,127
7250,note_off,49,0,0,,5,,,77,127
7251,note_on,1,0,0,,4,,,76,127
7300,note_off,49,0,0,,4,,,76,127
7301,note_on,1,0,0,,2,,,74,127
7350,note_off,49,0,0,,2,,,74,127
7351,note_on,1,0,0,,4,,,76,127
7400,note_off,49,0,0,,4,,,76,127
7400,note_off,0,0,0,,0,,,48,127
7401,note_on,1,0,0,,7,,,55,127
7401,note_on,0,0,0,,2,,,74,127
7600,note_off,199,0,0,,2,,,74,127
7634,note_on,34,0,0,,7,,,79,127
7733,note_off,99,0,0,,7,,,79,127
7734,note_on,1,0,0,,4,,,76,127
7755,note_off,21,0,0,,7,,,55,127
7833,note_off,78,0,0,,4,,,76,127
7834,note_on,1,0,0,,2,,,74,127
8034,note_on,200,0,0,,7,,,67,127
8233,note_off,199,0,0,,7,,,67,127
8234,note_on,1,0,0,,6,,,66,127
8333,note_off,99,0,0,,2,,,74,127
8334,note_on,1,0,0,,4,,,76,127
8433,note_off,99,0,0,,4,,,76,127
8434,note_on,1,0,0,,4,,,76,127
8533,note_off,99,0,0,,4,,,76,127
8534,note_on,1,0,0,,2,,,74,127
8633,note_off,99,0,0,,2,,,74,127
8634,note_on,1,0,0,,2,,,74,127
8733,note_off,99,0,0,,2,,,74,127
8734,note_on,1,0,0,,0,,,72,127
8833,note_off,99,0,0,,0,,,72,127
8833,note_off,0,0,0,,6,,,66,127
8834,note_on,1,0,0,,2,,,62,127
8834,note_on,0,0,0,,0,,,72,127
8933,note_off,99,0,0,,0,,,72,127
8934,note_on,1,0,0,,12,,,71,127
9033,note_off,99,0,0,,12,,,71,127
9033,note_off,0,0,0,,2,,,62,127
9034,note_on,1,0,0,,7,,,67,127
9034,note_on,0,0,0,,12,,,71,127
9233,note_off,199,0,0,,12,,,71,127
9234,note_on,1,0,0,,7,,,79,127
9333,note_off,99,0,0,,7,,,79,127
9334,note_on,1,0,0,,0,,,72,127
9430,note_off,96,0,0,,7,,,67,127
9433,note_off,3,0,0,,0,,,72,127
9434,note_on,1,0,0,,12,,,71,127
9534,note_on,100,0,0,,6,,,66,127
9633,note_off,99,0,0,,6,,,66,127
9634,note_on,1,0,0,,4,,,64,127
9733,note_off,99,0,0,,4,,,64,127
9734,note_on,1,0,0,,2,,,62,127
9833,note_off,99,0,0,,2,,,62,127
9834,note_on,1,0,0,,0,,,60,127
9933,note_off,99,0,0,,12,,,71,127
9934,note_on,1,0,0,,0,,,72,127
10033,note_off,99,0,0,,0,,,72,127
10034,note_on,1,0,0,,0,,,72,127
10133,note_off,99,0,0,,0,,,72,127
10134,note_on,1,0,0,,12,,,71,127
10233,note_off,99,0,0,,12,,,71,127
10233,note_off,0,0,0,,0,,,60,127
10234,note_on,1,0,0,,2,,,62,127
10234,note_on,0,0,0,,12,,,71,127
10333,note_off,99,0,0,,12,,,71,127
10334,note_on,1,0,0,,10,,,69,127
10433,note_off,99,0,0,,10,,,69,127
10434,note_on,1,0,0,,7,,,67,127
10533,note_off,99,0,0,,7,,,67,127
10534,note_on,1,0,0,,6,,,66,127
10633,note_off,99,0,0,,6,,,66,127
10633,note_off,0,0,0,,2,,,62,127
10634,note_on,1,0,0,,7,,,55,127
10634,note_on,0,0,0,,7,,,67,127
10833,note_off,199,0,0,,7,,,67,127
10851,note_on,18,0,0,,7,,,79,127
10950,note_off,99,0,0,,7,,,79,127
10951,note_on,1,0,0,,4,,,76,127
11050,note_off,99,0,0,,4,,,76,127
11051,note_on,1,0,0,,2,,,74,127
11134,note_off,83,0,0,,7,,,55,127
11251,note_on,117,0,0,,7,,,67,127
11450,note_off,199,0,0,,7,,,67,127
11451,note_on,1,0,0,,6,,,66,127
11550,note_off,99,0,0,,2,,,74,127
11551,note_on,1,0,0,,4,,,76,127
11650,note_off,99,0,0,,4,,,76,127
11651,note_on,1,0,0,,4,,,76,127
11750,note_off,99,0,0,,4,,,76,127
11751,note_on,1,0,0,,2,,,74,127
11850,note_off,99,0,0,,2,,,74,127
11851,note_on,1,0,0,,2,,,74,127
11950,note_off,99,0,0,,2,,,74,127
11951,note_on,1,0,0,,0,,,72,127
12050,note_off,99,0,0,,0,,,72,127
12050,note_off,0,0,0,,6,,,66,127
12051,note_on,1,0,0,,0,,,72,127
12051,note_on,0,0,0,,2,,,62,127
12150,note_off,99,0,0,,0,,,72,127
12151,note_on,1,0,0,,12,,,71,127
12250,note_off,99,0,0,,12,,,71,127
12250,note_off,0,0,0,,2,,,62,127
12251,note_on,1,0,0,,12,,,71,127
12251,note_on,0,0,0,,7,,,67,127
12450,note_off,199,0,0,,12,,,71,127
12451,note_on,1,0,0,,7,,,79,127
12550,note_off,99,0,0,,7,,,79,127
12551,note_on,1,0,0,,0,,,72,127
12647,note_off,96,0,0,,7,,,67,127
12650,note_off,3,0,0,,0,,,72,127
12651,note_on,1,0,0,,12,,,71,127
12751,note_on,100,0,0,,6,,,66,127
12850,note_off,99,0,0,,6,,,66,127
12851,note_on,1,0,0,,4,,,64,127
12950,note_off,99,0,0,,4,,,64,127
12951,note_on,1,0,0,,2,,,62,127
13050,note_off,99,0,0,,2,,,62,127
13051,note_on,1,0,0,,0,,,60,127
13150,note_off,99,0,0,,12,,,71,127
13151,note_on,1,0,0,,4,,,76,127
13250,note_off,99,0,0,,4,,,76,127
13251,note_on,1,0,0,,4,,,76,127
13350,note_off,99,0,0,,4,,,76,127
13351,note_on,1,0,0,,0,,,72,127
13450,note_off,99,0,0,,0,,,72,127
13450,note_off,0,0,0,,0,,,60,127
13451,note_on,1,0,0,,0,,,72,127
13451,note_on,0,0,0,,0,,,48,127
13550,note_off,99,0,0,,0,,,72,127
13551,note_on,1,0,0,,10,,,69,127
13650,note_off,99,0,0,,10,,,69,127
13651,note_on,1,0,0,,10,,,69,127
13750,note_off,99,0,0,,10,,,69,127
13751,note_on,1,0,0,,7,,,67,127
13850,note_off,99,0,0,,7,,,67,127
13850,note_off,0,0,0,,0,,,48,127
13851,note_on,1,0,0,,6,,,66,127
13851,note_on,0,0,0,,2,,,50,127
13968,note_on,117,0,0,,2,,,62,127
14049,note_off,81,0,0,,2,,,50,127
14067,note_off,18,0,0,,2,,,62,127
14068,note_on,1,0,0,,2,,,62,127
14167,note_off,99,0,0,,2,,,62,127
14168,note_on,1,0,0,,0,,,60,127
14267,note_off,99,0,0,,0,,,60,127
14268,note_on,1,0,0,,0,,,60,127
14367,note_off,99,0,0,,0,,,60,127
14368,note_on,1,0,0,,12,,,59,127
14467,note_off,99,0,0,,12,,,59,127
14468,note_on,1,0,0,,12,,,59,127
14567,note_off,99,0,0,,12,,,59,127
14568,note_on,1,0,0,,0,,,60,127
14650,note_off,82,0,0,,6,,,66,127
14667,note_off,17,0,0,,0,,,60,127
14668,note_on,1,0,0,,2,,,50,127
14668,note_on,0,0,0,,4,,,76,127
14768,note_on,100,0,0,,0,,,60,127
14866,note_off,98,0,0,,2,,,50,127
14867,note_off,1,0,0,,0,,,60,127
14868,note_on,1,0,0,,0,,,60,127
14967,note_off,99,0,0,,0,,,60,127
14968,note_on,1,0,0,,12,,,59,127
15067,note_off,99,0,0,,12,,,59,127
15068,note_on,1,0,0,,12,,,59,127
15167,note_off,99,0,0,,12,,,59,127
15168,note_on,1,0,0,,10,,,57,127
15267,note_off,99,0,0,,10,,,57,127
15268,note_on,1,0,0,,10,,,57,127
15367,note_off,99,0,0,,10,,,57,127
15368,note_on,1,0,0,,12,,,59,127
15467,note_off,99,0,0,,12,,,59,127
15468,note_on,1,0,0,,2,,,50,127
15468,note_on,0,0,0,,12,,,59,127
15567,note_off,99,0,0,,4,,,76,127
15568,note_on,1,0,0,,2,,,74,127
15667,note_off,99,0,0,,2,,,74,127
15668,note_on,1,0,0,,2,,,74,127
15767,note_off,99,0,0,,2,,,74,127
15768,note_on,1,0,0,,0,,,72,127
15867,note_off,99,0,0,,0,,,72,127
15868,note_on,1,0,0,,0,,,72,127
15967,note_off,99,0,0,,0,,,72,127
15968,note_on,1,0,0,,12,,,71,127
16067,note_off,99,0,0,,12,,,71,127
16068,note_on,1,0,0,,12,,,71,127
16167,note_off,99,0,0,,12,,,71,127
16168,note_on,1,0,0,,10,,,69,127
16267,note_off,99,0,0,,10,,,69,127
16267,note_off,0,0,0,,12,,,59,127
16267,note_off,0,0,0,,2,,,50,127
16268,note_on,1,0,0,,7,,,55,127
16268,note_on,0,0,0,,2,,,50,127
16268,note_on,0,0,0,,1,,,61,127
16268,note_on,0,0,0,,10,,,57,127
16268,note_on,0,0,0,,10,,,69,127
16367,note_off,99,0,0,,10,,,69,127
16368,note_on,1,0,0,,7,,,67,127
16467,note_off,99,0,0,,7,,,67,127
16468,note_on,1,0,0,,7,,,67,127
16567,note_off,99,0,0,,7,,,67,127
16568,note_on,1,0,0,,6,,,66,127
16667,note_off,99,0,0,,6,,,66,127
16668,note_on,1,0,0,,6,,,66,127
16767,note_off,99,0,0,,6,,,66,127
16768,note_on,1,0,0,,7,,,67,127
16867,note_off,99,0,0,,7,,,67,127
16868,note_on,1,0,0,,7,,,67,127
16967,note_off,99,0,0,,7,,,67,127
16968,note_on,1,0,0,,6,,,66,127
17067,note_off,99,0,0,,6,,,66,127
17067,note_off,0,0,0,,10,,,57,127
17067,note_off,0,0,0,,1,,,61,127
17067,note_off,0,0,0,,2,,,50,127
17067,note_off,0,0,0,,7,,,55,127
17068,note_on,1,0,0,,2,,,50,127
17068,note_on,0,0,0,,10,,,57,127
17068,note_on,0,0,0,,2,,,62,127
17068,note_on,0,0,0,,6,,,66,127
17167,note_off,99,0,0,,6,,,66,127
17168,note_on,1,0,0,,2,,,74,127
17267,note_off,99,0,0,,2,,,74,127
17268,note_on,1,0,0,,2,,,74,127
17367,note_off,99,0,0,,2,,,74,127
17368,note_on,1,0,0,,0,,,72,127
17467,note_off,99,0,0,,0,,,72,127
17468,note_on,1,0,0,,0,,,72,127
17567,note_off,99,0,0,,0,,,72,127
17568,note_on,1,0,0,,12,,,71,127
17667,note_off,99,0,0,,12,,,71,127
17668,note_on,1,0,0,,12,,,71,127
17767,note_off,99,0,0,,12,,,71,127
17768,note_on,1,0,0,,10,,,69,127
17867,note_off,99,0,0,,10,,,69,127
17867,note_off,0,0,0,,2,,,62,127
17867,note_off,0,0,0,,10,,,57,127
17867,note_off,0,0,0,,2,,,50,127
17868,note_on,1,0,0,,1,,,61,127
17868,note_on,0,0,0,,10,,,57,127
17868,note_on,0,0,0,,4,,,52,127
17868,note_on,0,0,0,,4,,,64,127
17868,note_on,0,0,0,,7,,,55,127
17868,note_on,0,0,0,,10,,,69,127
17967,note_off,99,0,0,,10,,,69,127
17968,note_on,1,0,0,,7,,,67,127
18067,note_off,99,0,0,,7,,,67,127
18068,note_on,1,0,0,,7,,,67,127
18167,note_off,99,0,0,,7,,,67,127
18168,note_on,1,0,0,,6,,,66,127
18267,note_off,99,0,0,,6,,,66,127
18268,note_on,1,0,0,,6,,,66,127
18367,note_off,99,0,0,,6,,,66,127
18368,note_on,1,0,0,,7,,,67,127
18467,note_off,99,0,0,,7,,,67,127
18468,note_on,1,0,0,,7,,,67,127
18567,note_off,99,0,0,,7,,,67,127
18568,note_on,1,0,0,,10,,,69,127
18667,note_off,99,0,0,,10,,,69,127
18667,note_off,0,0,0,,7,,,55,127
18667,note_off,0,0,0,,4,,,64,127
18667,note_off,0,0,0,,4,,,52,127
18667,note_off,0,0,0,,10,,,57,127
18667,note_off,0,0,0,,1,,,61,127
18668,note_on,1,0,0,,2,,,50,127
18668,note_on,0,0,0,,10,,,69,127
18768,note_on,100,0,0,,2,,,62,127
18866,note_off,98,0,0,,2,,,50,127
18867,note_off,1,0,0,,2,,,62,127
18868,note_on,1,0,0,,2,,,62,127
18967,note_off,99,0,0,,2,,,62,127
18968,note_on,1,0,0,,0,,,60,127
19067,note_off,99,0,0,,0,,,60,127
19068,note_on,1,0,0,,0,,,60,127
19167,note_off,99,0,0,,0,,,60,127
19168,note_on,1,0,0,,12,,,59,127
19267,note_off,99,0,0,,12,,,59,127
19268,note_on,1,0,0,,12,,,59,127
19367,note_off,99,0,0,,12,,,59,127
19368,note_on,1,0,0,,0,,,60,127
19467,note_off,99,0,0,,0,,,60,127
19467,note_off,0,0,0,,10,,,69,127
19468,note_on,1,0,0,,0,,,48,127
19468,note_on,0,0,0,,4,,,76,127
19568,note_on,100,0,0,,0,,,60,127
19666,note_off,98,0,0,,0,,,48,127
19667,note_off,1,0,0,,0,,,60,127
19668,note_on,1,0,0,,0,,,60,127
19767,note_off,99,0,0,,0,,,60,127
19768,note_on,1,0,0,,12,,,59,127
19867,note_off,99,0,0,,12,,,59,127
19868,note_on,1,0,0,,12,,,59,127
19967,note_off,99,0,0,,12,,,59,127
19968,note_on,1,0,0,,10,,,57,127
20067,note_off,99,0,0,,10,,,57,127
20068,note_on,1,0,0,,10,,,57,127
20167,note_off,99,0,0,,10,,,57,127
20168,note_on,1,0,0,,12,,,59,127
20267,note_off,99,0,0,,12,,,59,127
20267,note_off,0,0,0,,4,,,76,127
20268,note_on,1,0,0,,12,,,47,127
20268,note_on,0,0,0,,2,,,74,127
20368,note_on,100,0,0,,12,,,59,127
20466,note_off,98,0,0,,12,,,47,127
20467,note_off,1,0,0,,12,,,59,127
20468,note_on,1,0,0,,12,,,59,127
20567,note_off,99,0,0,,12,,,59,127
20568,note_on,1,0,0,,10,,,57,127
20667,note_off,99,0,0,,10,,,57,127
20668,note_on,1,0,0,,10,,,57,127
20767,note_off,99,0,0,,10,,,57,127
20768,note_on,1,0,0,,7,,,55,127
20867,note_off,99,0,0,,7,,,55,127
20868,note_on,1,0,0,,7,,,55,127
20967,note_off,99,0,0,,7,,,55,127
20968,note_on,1,0,0,,10,,,57,127
21067,note_off,99,0,0,,10,,,57,127
21067,note_off,0,0,0,,2,,,74,127
21068,note_on,1,0,0,,10,,,45,127
21068,note_on,0,0,0,,0,,,72,127
21168,note_on,100,0,0,,10,,,57,127
21235,note_off,67,0,0,,10,,,45,127
21267,note_off,32,0,0,,10,,,57,127
21268,note_on,1,0,0,,10,,,57,127
21367,note_off,99,0,0,,10,,,57,127
21368,note_on,1,0,0,,7,,,55,127
21467,note_off,99,0,0,,7,,,55,127
21468,note_on,1,0,0,,7,,,55,127
21567,note_off,99,0,0,,7,,,55,127
21568,note_on,1,0,0,,6,,,54,127
21667,note_off,99,0,0,,6,,,54,127
21668,note_on,1,0,0,,6,,,54,127
21767,note_off,99,0,0,,6,,,54,127
21772,note_on,5,0,0,,7,,,55,127
21867,note_off,95,0,0,,0,,,72,127
21883,note_on,16,0,0,,7,,,43,127
21902,note_off,19,0,0,,7,,,55,127
21985,note_on,83,0,0,,12,,,71,127
22084,note_off,99,0,0,,12,,,71,127
22085,note_on,1,0,0,,7,,,79,127
22184,note_off,99,0,0,,7,,,79,127
22185,note_on,1,0,0,,6,,,78,127
22284,note_off,99,0,0,,6,,,78,127
22285,note_on,1,0,0,,6,,,78,127
22384,note_off,99,0,0,,6,,,78,127
22385,note_on,1,0,0,,4,,,76,127
22484,note_off,99,0,0,,4,,,76,127
22485,note_on,1,0,0,,4,,,76,127
22584,note_off,99,0,0,,4,,,76,127
22585,note_on,1,0,0,,2,,,74,127
22682,note_off,97,0,0,,7,,,43,127
22684,note_off,2,0,0,,2,,,74,127
22685,note_on,1,0,0,,7,,,55,127
22685,note_on,0,0,0,,0,,,60,127
22685,note_on,0,0,0,,0,,,48,127
22785,note_on,100,0,0,,6,,,66,127
22884,note_off,99,0,0,,6,,,66,127
22885,note_on,1,0,0,,4,,,76,127
22984,note_off,99,0,0,,4,,,76,127
22985,note_on,1,0,0,,2,,,74,127
23084,note_off,99,0,0,,2,,,74,127
23085,note_on,1,0,0,,2,,,74,127
23184,note_off,99,0,0,,2,,,74,127
23185,note_on,1,0,0,,0,,,72,127
23284,note_off,99,0,0,,0,,,72,127
23285,note_on,1,0,0,,0,,,72,127
23384,note_off,99,0,0,,0,,,72,127
23385,note_on,1,0,0,,12,,,71,127
23484,note_off,99,0,0,,12,,,71,127
23484,note_off,0,0,0,,0,,,48,127
23484,note_off,0,0,0,,0,,,60,127
23484,note_off,0,0,0,,7,,,55,127
23485,note_on,1,0,0,,7,,,55,127
23485,note_on,0,0,0,,0,,,60,127
23485,note_on,0,0,0,,0,,,48,127
23585,note_on,100,0,0,,4,,,64,127
23684,note_off,99,0,0,,4,,,64,127
23685,note_on,1,0,0,,0,,,72,127
23784,note_off,99,0,0,,0,,,72,127
23785,note_on,1,0,0,,12,,,71,127
23884,note_off,99,0,0,,12,,,71,127
23885,note_on,1,0,0,,12,,,71,127
23984,note_off,99,0,0,,12,,,71,127
23985,note_on,1,0,0,,10,,,69,127
24084,note_off,99,0,0,,10,,,69,127
24085,note_on,1,0,0,,10,,,69,127
24184,note_off,99,0,0,,10,,,69,127
24185,note_on,1,0,0,,7,,,67,127
24284,note_off,99,0,0,,7,,,67,127
24284,note_off,0,0,0,,0,,,48,127
24284,note_off,0,0,0,,0,,,60,127
24284,note_off,0,0,0,,7,,,55,127
24285,note_on,1,0,0,,2,,,74,127
24285,note_on,0,0,0,,7,,,55,127
24285,note_on,0,0,0,,12,,,59,127
24285,note_on,0,0,0,,2,,,50,127
24384,note_off,99,0,0,,2,,,74,127
24385,note_on,1,0,0,,12,,,71,127
24484,note_off,99,0,0,,12,,,71,127
24485,note_on,1,0,0,,12,,,71,127
24584,note_off,99,0,0,,12,,,71,127
24585,note_on,1,0,0,,7,,,67,127
24684,note_off,99,0,0,,7,,,67,127
24685,note_on,1,0,0,,2,,,74,127
24784,note_off,99,0,0,,2,,,74,127
24785,note_on,1,0,0,,12,,,71,127
24884,note_off,99,0,0,,12,,,71,127
24885,note_on,1,0,0,,12,,,71,127
24984,note_off,99,0,0,,12,,,71,127
24985,note_on,1,0,0,,7,,,67,127
25084,note_off,99,0,0,,7,,,67,127
25084,note_off,0,0,0,,2,,,50,127
25084,note_off,0,0,0,,12,,,59,127
25084,note_off,0,0,0,,7,,,55,127
25085,note_on,1,0,0,,2,,,74,127
25085,note_on,0,0,0,,2,,,38,127
25184,note_off,99,0,0,,2,,,74,127
25185,note_on,1,0,0,,12,,,71,127
25284,note_off,99,0,0,,12,,,71,127
25285,note_on,1,0,0,,12,,,71,127
25384,note_off,99,0,0,,12,,,71,127
25385,note_on,1,0,0,,10,,,69,127
25484,note_off,99,0,0,,10,,,69,127
25485,note_on,1,0,0,,10,,,69,127
25584,note_off,99,0,0,,10,,,69,127
25585,note_on,1,0,0,,7,,,67,127
25684,note_off,99,0,0,,7,,,67,127
25685,note_on,1,0,0,,7,,,67,127
25784,note_off,99,0,0,,7,,,67,127
25785,note_on,1,0,0,,6,,,66,127
25884,note_off,99,0,0,,6,,,66,127
25884,note_off,0,0,0,,2,,,38,127
25891,note_on,7,0,0,,7,,,43,127
25891,note_on,0,0,0,,7,,,67,127
25990,note_off,99,0,0,,7,,,67,127
26001,note_on,11,0,0,,4,,,76,127
26001,note_on,0,0,0,,0,,,72,127
26100,note_off,99,0,0,,0,,,72,127
26100,note_off,0,0,0,,4,,,76,127
26101,note_on,1,0,0,,12,,,71,127
26101,note_on,0,0,0,,2,,,74,127
26190,note_off,89,0,0,,7,,,43,127
26201,note_on,11,0,0,,2,,,62,127
26300,note_off,99,0,0,,2,,,62,127
26301,note_on,1,0,0,,4,,,64,127
26400,note_off,99,0,0,,4,,,64,127
26401,note_on,1,0,0,,6,,,66,127
26500,note_off,99,0,0,,6,,,66,127
26501,note_on,1,0,0,,7,,,67,127
26600,note_off,99,0,0,,2,,,74,127
26600,note_off,0,0,0,,12,,,71,127
26601,note_on,1,0,0,,10,,,69,127
26601,note_on,0,0,0,,0,,,72,127
26700,note_off,99,0,0,,0,,,72,127
26700,note_off,0,0,0,,10,,,69,127
26700,note_off,0,0,0,,7,,,67,127
26701,note_on,1,0,0,,7,,,55,127
26701,note_on,0,0,0,,12,,,71,127
26701,note_on,0,0,0,,2,,,74,127
26800,note_off,99,0,0,,2,,,74,127
26800,note_off,0,0,0,,12,,,71,127
26801,note_on,1,0,0,,10,,,69,127
26801,note_on,0,0,0,,0,,,72,127
26900,note_off,99,0,0,,0,,,72,127
26900,note_off,0,0,0,,10,,,69,127
26901,note_on,1,0,0,,12,,,71,127
26901,note_on,0,0,0,,2,,,74,127
27000,note_off,99,0,0,,7,,,55,127
27001,note_on,1,0,0,,2,,,62,127
27100,note_off,99,0,0,,2,,,62,127
27101,note_on,1,0,0,,4,,,64,127
27200,note_off,99,0,0,,4,,,64,127
27201,note_on,1,0,0,,6,,,66,127
27300,note_off,99,0,0,,6,,,66,127
27301,note_on,1,0,0,,7,,,67,127
27359,note_off,58,0,0,,2,,,74,127
27359,note_off,0,0,0,,12,,,71,127
27401,note_on,42,0,0,,0,,,72,127
27401,note_on,0,0,0,,4,,,76,127
27500,note_off,99,0,0,,4,,,76,127
27500,note_off,0,0,0,,0,,,72,127
27500,note_off,0,0,0,,7,,,67,127
27501,note_on,1,0,0,,7,,,55,127
27501,note_on,0,0,0,,2,,,74,127
27501,note_on,0,0,0,,12,,,71,127
27600,note_off,99,0,0,,12,,,71,127
27600,note_off,0,0,0,,2,,,74,127
27601,note_on,1,0,0,,0,,,72,127
27601,note_on,0,0,0,,10,,,69,127
27700,note_off,99,0,0,,10,,,69,127
27700,note_off,0,0,0,,0,,,72,127
27701,note_on,1,0,0,,2,,,74,127
27701,note_on,0,0,0,,12,,,71,127
27800,note_off,99,0,0,,7,,,55,127
27801,note_on,1,0,0,,2,,,62,127
27900,note_off,99,0,0,,2,,,62,127
27901,note_on,1,0,0,,4,,,64,127
28000,note_off,99,0,0,,4,,,64,127
28001,note_on,1,0,0,,6,,,66,127
28100,note_off,99,0,0,,6,,,66,127
28101,note_on,1,0,0,,7,,,67,127
28200,note_off,99,0,0,,12,,,71,127
28200,note_off,0,0,0,,2,,,74,127
28201,note_on,1,0,0,,10,,,69,127
28201,note_on,0,0,0,,0,,,72,127
28300,note_off,99,0,0,,0,,,72,127
28300,note_off,0,0,0,,10,,,69,127
28300,note_off,0,0,0,,7,,,67,127
28301,note_on,1,0,0,,7,,,55,127
28301,note_on,0,0,0,,2,,,74,127
28301,note_on,0,0,0,,12,,,71,127
28400,note_off,99,0,0,,12,,,71,127
28400,note_off,0,0,0,,2,,,74,127
28401,note_on,1,0,0,,0,,,72,127
28401,note_on,0,0,0,,4,,,76,127
28500,note_off,99,0,0,,4,,,76,127
28500,note_off,0,0,0,,0,,,72,127
28501,note_on,1,0,0,,12,,,71,127
28501,note_on,0,0,0,,2,,,74,127
28600,note_off,99,0,0,,7,,,55,127
28601,note_on,1,0,0,,2,,,62,127
28700,note_off,99,0,0,,2,,,62,127
28701,note_on,1,0,0,,4,,,64,127
28800,note_off,99,0,0,,4,,,64,127
28801,note_on,1,0,0,,6,,,66,127
28900,note_off,99,0,0,,6,,,66,127
28901,note_on,1,0,0,,7,,,67,127
28980,note_off,79,0,0,,2,,,74,127
28980,note_off,0,0,0,,12,,,71,127
29001,note_on,21,0,0,,6,,,78,127
29100,note_off,99,0,0,,6,,,78,127
29100,note_off,0,0,0,,7,,,67,127
29101,note_on,1,0,0,,7,,,43,127
29101,note_on,0,0,0,,7,,,79,127
29200,note_off,99,0,0,,7,,,79,127
29201,note_on,1,0,0,,4,,,76,127
29300,note_off,99,0,0,,4,,,76,127
29301,note_on,1,0,0,,2,,,74,127
29400,note_off,99,0,0,,2,,,74,127
29401,note_on,1,0,0,,6,,,78,127
29500,note_off,99,0,0,,6,,,78,127
29500,note_off,0,0,0,,7,,,43,127
29501,note_on,1,0,0,,0,,,36,127
29501,note_on,0,0,0,,4,,,76,127
29600,note_off,99,0,0,,4,,,76,127
29601,note_on,1,0,0,,12,,,71,127
29700,note_off,99,0,0,,12,,,71,127
29701,note_on,1,0,0,,10,,,69,127
29800,note_off,99,0,0,,10,,,69,127
29801,note_on,1,0,0,,4,,,76,127
29900,note_off,99,0,0,,4,,,76,127
29900,note_off,0,0,0,,0,,,36,127
29901,note_on,1,0,0,,2,,,38,127
29901,note_on,0,0,0,,2,,,74,127
30000,note_off,99,0,0,,2,,,74,127
30001,note_on,1,0,0,,12,,,71,127
30100,note_off,99,0,0,,12,,,71,127
30101,note_on,1,0,0,,12,,,71,127
30200,note_off,99,0,0,,12,,,71,127
30201,note_on,1,0,0,,7,,,67,127
30300,note_off,99,0,0,,7,,,67,127
30301,note_on,1,0,0,,2,,,74,127
30400,note_off,99,0,0,,2,,,74,127
30401,note_on,1,0,0,,12,,,71,127
30500,note_off,99,0,0,,12,,,71,127
30501,note_on,1,0,0,,12,,,71,127
30600,note_off,99,0,0,,12,,,71,127
30601,note_on,1,0,0,,7,,,67,127
30700,note_off,99,0,0,,7,,,67,127
30700,note_off,0,0,0,,2,,,38,127
30701,note_on,1,0,0,,2,,,38,127
30701,note_on,0,0,0,,2,,,62,127
30910,note_on,209,0,0,,4,,,64,127
30915,note_off,5,0,0,,2,,,62,127
30958,note_on,43,0,0,,6,,,66,127
30959,note_off,1,0,0,,4,,,64,127
31006,note_on,47,0,0,,7,,,67,127
31007,note_off,1,0,0,,6,,,66,127
31054,note_on,47,0,0,,10,,,69,127
31055,note_off,1,0,0,,7,,,67,127
31102,note_on,47,0,0,,12,,,71,127
31103,note_off,1,0,0,,10,,,69,127
31151,note_off,48,0,0,,12,,,71,127
31152,note_on,1,0,0,,10,,,69,127
31201,note_off,49,0,0,,10,,,69,127
31202,note_on,1,0,0,,12,,,71,127
31251,note_off,49,0,0,,12,,,71,127
31252,note_on,1,0,0,,10,,,69,127
31301,note_off,49,0,0,,10,,,69,127
31302,note_on,1,0,0,,12,,,71,127
31351,note_off,49,0,0,,12,,,71,127
31352,note_on,1,0,0,,10,,,69,127
31401,note_off,49,0,0,,10,,,69,127
31402,note_on,1,0,0,,7,,,67,127
31451,note_off,49,0,0,,7,,,67,127
31452,note_on,1,0,0,,10,,,69,127
31501,note_off,49,0,0,,10,,,69,127
31501,note_off,0,0,0,,2,,,38,127
31502,note_on,1,0,0,,7,,,43,127
31502,note_on,0,0,0,,7,,,67,127
32102,note_off,600,0,0,,7,,,67,127
32387,note_on,285,0,0,,7,,,55,127
32441,note_off,54,0,0,,7,,,43,127
32487,note_on,46,0,0,,7,,,67,127
32586,note_off,99,0,0,,7,,,67,127
32587,note_on,1,0,0,,7,,,67,127
32686,note_off,99,0,0,,7,,,67,127
32687,note_on,1,0,0,,11,,,70,127
32786,note_off,99,0,0,,11,,,70,127
32787,note_on,1,0,0,,11,,,70,127
32886,note_off,99,0,0,,11,,,70,127
32887,note_on,1,0,0,,2,,,74,127
32986,note_off,99,0,0,,2,,,74,127
32987,note_on,1,0,0,,2,,,74,127
33086,note_off,99,0,0,,2,,,74,127
33087,note_on,1,0,0,,3,,,75,127
33186,note_off,99,0,0,,3,,,75,127
33186,note_off,0,0,0,,7,,,55,127
33187,note_on,1,0,0,,3,,,75,127
33187,note_on,0,0,0,,7,,,67,127
33286,note_off,99,0,0,,3,,,75,127
33287,note_on,1,0,0,,6,,,78,127
33386,note_off,99,0,0,,6,,,78,127
33387,note_on,1,0,0,,6,,,78,127
33486,note_off,99,0,0,,6,,,78,127
33487,note_on,1,0,0,,0,,,84,127
33586,note_off,99,0,0,,0,,,84,127
33587,note_on,1,0,0,,0,,,84,127
33686,note_off,99,0,0,,0,,,84,127
33687,note_on,1,0,0,,10,,,81,127
33786,note_off,99,0,0,,10,,,81,127
33787,note_on,1,0,0,,10,,,81,127
33886,note_off,99,0,0,,10,,,81,127
33887,note_on,1,0,0,,6,,,78,127
33986,note_off,99,0,0,,6,,,78,127
33986,note_off,0,0,0,,7,,,67,127
34004,note_on,18,0,0,,7,,,55,127
34104,note_on,100,0,0,,7,,,67,127
34203,note_off,99,0,0,,7,,,67,127
34204,note_on,1,0,0,,7,,,67,127
34303,note_off,99,0,0,,7,,,67,127
34304,note_on,1,0,0,,11,,,70,127
34403,note_off,99,0,0,,11,,,70,127
34404,note_on,1,0,0,,11,,,70,127
34503,note_off,99,0,0,,11,,,70,127
34504,note_on,1,0,0,,2,,,74,127
34603,note_off,99,0,0,,2,,,74,127
34604,note_on,1,0,0,,2,,,74,127
34703,note_off,99,0,0,,2,,,74,127
34704,note_on,1,0,0,,3,,,75,127
34803,note_off,99,0,0,,3,,,75,127
34803,note_off,0,0,0,,7,,,55,127
34804,note_on,1,0,0,,7,,,67,127
34804,note_on,0,0,0,,3,,,75,127
34903,note_off,99,0,0,,3,,,75,127
34904,note_on,1,0,0,,6,,,78,127
35003,note_off,99,0,0,,6,,,78,127
35004,note_on,1,0,0,,6,,,78,127
35103,note_off,99,0,0,,6,,,78,127
35104,note_on,1,0,0,,0,,,84,127
35203,note_off,99,0,0,,0,,,84,127
35204,note_on,1,0,0,,0,,,84,127
35303,note_off,99,0,0,,0,,,84,127
35304,note_on,1,0,0,,10,,,81,127
35403,note_off,99,0,0,,10,,,81,127
35406,note_on,3,0,0,,10,,,81,127
35505,note_off,99,0,0,,10,,,81,127
35509,note_on,4,0,0,,6,,,78,127
35618,note_off,109,0,0,,6,,,78,127
35625,note_off,7,0,0,,7,,,67,127
35629,note_on,4,0,0,,7,,,67,127
35729,note_on,100,0,0,,11,,,82,127
35828,note_off,99,0,0,,11,,,82,127
35829,note_on,1,0,0,,11,,,82,127
35928,note_off,99,0,0,,11,,,82,127
35929,note_on,1,0,0,,10,,,81,127
36028,note_off,99,0,0,,10,,,81,127
36029,note_on,1,0,0,,10,,,81,127
36128,note_off,99,0,0,,10,,,81,127
36129,note_on,1,0,0,,7,,,79,127
36228,note_off,99,0,0,,7,,,79,127
36229,note_on,1,0,0,,7,,,79,127
36328,note_off,99,0,0,,7,,,79,127
36329,note_on,1,0,0,,5,,,77,127
36428,note_off,99,0,0,,5,,,77,127
36428,note_off,0,0,0,,7,,,67,127
36429,note_on,1,0,0,,7,,,67,127
36429,note_on,0,0,0,,5,,,77,127
36528,note_off,99,0,0,,5,,,77,127
36529,note_on,1,0,0,,4,,,76,127
36628,note_off,99,0,0,,4,,,76,127
36629,note_on,1,0,0,,4,,,76,127
36728,note_off,99,0,0,,4,,,76,127
36729,note_on,1,0,0,,2,,,74,127
36828,note_off,99,0,0,,2,,,74,127
36829,note_on,1,0,0,,2,,,74,127
36928,note_off,99,0,0,,2,,,74,127
36929,note_on,1,0,0,,1,,,73,127
37028,note_off,99,0,0,,1,,,73,127
37029,note_on,1,0,0,,1,,,73,127
37128,note_off,99,0,0,,1,,,73,127
37129,note_on,1,0,0,,2,,,74,127
37228,note_off,99,0,0,,2,,,74,127
37228,note_off,0,0,0,,7,,,67,127
37229,note_on,1,0,0,,10,,,57,127
37229,note_on,0,0,0,,1,,,73,127
37346,note_on,117,0,0,,10,,,69,127
37427,note_off,81,0,0,,10,,,57,127
37445,note_off,18,0,0,,10,,,69,127
37446,note_on,1,0,0,,10,,,69,127
37545,note_off,99,0,0,,10,,,69,127
37546,note_on,1,0,0,,7,,,67,127
37645,note_off,99,0,0,,7,,,67,127
37646,note_on,1,0,0,,7,,,67,127
37745,note_off,99,0,0,,7,,,67,127
37746,note_on,1,0,0,,5,,,65,127
37845,note_off,99,0,0,,5,,,65,127
37846,note_on,1,0,0,,5,,,65,127
37945,note_off,99,0,0,,5,,,65,127
37946,note_on,1,0,0,,7,,,67,127
38028,note_off,82,0,0,,1,,,73,127
38045,note_off,17,0,0,,7,,,67,127
38046,note_on,1,0,0,,4,,,76,127
38046,note_on,0,0,0,,10,,,57,127
38146,note_on,100,0,0,,7,,,67,127
38244,note_off,98,0,0,,10,,,57,127
38245,note_off,1,0,0,,7,,,67,127
38246,note_on,1,0,0,,7,,,67,127
38345,note_off,99,0,0,,7,,,67,127
38346,note_on,1,0,0,,5,,,65,127
38445,note_off,99,0,0,,5,,,65,127
38446,note_on,1,0,0,,5,,,65,127
38545,note_off,99,0,0,,5,,,65,127
38546,note_on,1,0,0,,4,,,64,127
38645,note_off,99,0,0,,4,,,64,127
38646,note_on,1,0,0,,4,,,64,127
38745,note_off,99,0,0,,4,,,64,127
38746,note_on,1,0,0,,5,,,65,127
38845,note_off,99,0,0,,5,,,65,127
38845,note_off,0,0,0,,4,,,76,127
38863,note_on,18,0,0,,5,,,65,127
38863,note_on,0,0,0,,10,,,69,127
38963,note_on,100,0,0,,10,,,81,127
39062,note_off,99,0,0,,10,,,81,127
39063,note_on,1,0,0,,10,,,81,127
39162,note_off,99,0,0,,10,,,81,127
39163,note_on,1,0,0,,8,,,80,127
39262,note_off,99,0,0,,8,,,80,127
39263,note_on,1,0,0,,8,,,80,127
39362,note_off,99,0,0,,8,,,80,127
39363,note_on,1,0,0,,10,,,81,127
39462,note_off,99,0,0,,10,,,81,127
39463,note_on,1,0,0,,10,,,81,127
39562,note_off,99,0,0,,10,,,81,127
39563,note_on,1,0,0,,2,,,74,127
39662,note_off,99,0,0,,2,,,74,127
39662,note_off,0,0,0,,10,,,69,127
39662,note_off,0,0,0,,5,,,65,127
39663,note_on,1,0,0,,10,,,69,127
39663,note_on,0,0,0,,4,,,64,127
39663,note_on,0,0,0,,0,,,72,127
39762,note_off,99,0,0,,0,,,72,127
39763,note_on,1,0,0,,10,,,81,127
39862,note_off,99,0,0,,10,,,81,127
39863,note_on,1,0,0,,10,,,81,127
39962,note_off,99,0,0,,10,,,81,127
39963,note_on,1,0,0,,8,,,80,127
40062,note_off,99,0,0,,8,,,80,127
40063,note_on,1,0,0,,8,,,80,127
40162,note_off,99,0,0,,8,,,80,127
40163,note_on,1,0,0,,10,,,81,127
40262,note_off,99,0,0,,10,,,81,127
40263,note_on,1,0,0,,10,,,81,127
40362,note_off,99,0,0,,10,,,81,127
40363,note_on,1,0,0,,0,,,72,127
40462,note_off,99,0,0,,0,,,72,127
40462,note_off,0,0,0,,4,,,64,127
40462,note_off,0,0,0,,10,,,69,127
40463,note_on,1,0,0,,10,,,69,127
40463,note_on,0,0,0,,2,,,62,127
40463,note_on,0,0,0,,12,,,71,127
40562,note_off,99,0,0,,12,,,71,127
40563,note_on,1,0,0,,10,,,81,127
40662,note_off,99,0,0,,10,,,81,127
40663,note_on,1,0,0,,10,,,81,127
40762,note_off,99,0,0,,10,,,81,127
40763,note_on,1,0,0,,8,,,80,127
40862,note_off,99,0,0,,8,,,80,127
40863,note_on,1,0,0,,8,,,80,127
40962,note_off,99,0,0,,8,,,80,127
40963,note_on,1,0,0,,10,,,81,127
41062,note_off,99,0,0,,10,,,81,127
41063,note_on,1,0,0,,10,,,81,127
41162,note_off,99,0,0,,10,,,81,127
41163,note_on,1,0,0,,12,,,71,127
41262,note_off,99,0,0,,12,,,71,127
41262,note_off,0,0,0,,2,,,62,127
41262,note_off,0,0,0,,10,,,69,127
41263,note_on,1,0,0,,4,,,64,127
41263,note_on,0,0,0,,0,,,60,127
41263,note_on,0,0,0,,10,,,69,127
41362,note_off,99,0,0,,10,,,69,127
41363,note_on,1,0,0,,4,,,76,127
41462,note_off,99,0,0,,4,,,76,127
41463,note_on,1,0,0,,4,,,76,127
41562,note_off,99,0,0,,4,,,76,127
41563,note_on,1,0,0,,3,,,75,127
41662,note_off,99,0,0,,3,,,75,127
41663,note_on,1,0,0,,3,,,75,127
41762,note_off,99,0,0,,3,,,75,127
41763,note_on,1,0,0,,4,,,76,127
41862,note_off,99,0,0,,4,,,76,127
41863,note_on,1,0,0,,4,,,76,127
41962,note_off,99,0,0,,4,,,76,127
41963,note_on,1,0,0,,10,,,69,127
42062,note_off,99,0,0,,10,,,69,127
42062,note_off,0,0,0,,0,,,60,127
42062,note_off,0,0,0,,4,,,64,127
42063,note_on,1,0,0,,4,,,64,127
42063,note_on,0,0,0,,12,,,59,127
42063,note_on,0,0,0,,7,,,67,127
42162,note_off,99,0,0,,7,,,67,127
42163,note_on,1,0,0,,4,,,76,127
42262,note_off,99,0,0,,4,,,76,127
42263,note_on,1,0,0,,4,,,76,127
42362,note_off,99,0,0,,4,,,76,127
42363,note_on,1,0,0,,3,,,75,127
42462,note_off,99,0,0,,3,,,75,127
42463,note_on,1,0,0,,3,,,75,127
42562,note_off,99,0,0,,3,,,75,127
42563,note_on,1,0,0,,4,,,76,127
42662,note_off,99,0,0,,4,,,76,127
42663,note_on,1,0,0,,4,,,76,127
42762,note_off,99,0,0,,4,,,76,127
42763,note_on,1,0,0,,7,,,67,127
42862,note_off,99,0,0,,7,,,67,127
42862,note_off,0,0,0,,12,,,59,127
42862,note_off,0,0,0,,4,,,64,127
42863,note_on,1,0,0,,4,,,64,127
42863,note_on,0,0,0,,10,,,57,127
42863,note_on,0,0,0,,5,,,65,127
42962,note_off,99,0,0,,5,,,65,127
42963,note_on,1,0,0,,2,,,74,127
43062,note_off,99,0,0,,2,,,74,127
43063,note_on,1,0,0,,2,,,74,127
43162,note_off,99,0,0,,2,,,74,127
43163,note_on,1,0,0,,1,,,73,127
43262,note_off,99,0,0,,1,,,73,127
43263,note_on,1,0,0,,1,,,73,127
43362,note_off,99,0,0,,1,,,73,127
43363,note_on,1,0,0,,2,,,74,127
43462,note_off,99,0,0,,2,,,74,127
43463,note_on,1,0,0,,2,,,74,127
43562,note_off,99,0,0,,2,,,74,127
43563,note_on,1,0,0,,5,,,65,127
43662,note_off,99,0,0,,5,,,65,127
43662,note_off,0,0,0,,10,,,57,127
43662,note_off,0,0,0,,4,,,64,127
43663,note_on,1,0,0,,2,,,62,127
43663,note_on,0,0,0,,10,,,57,127
43663,note_on,0,0,0,,5,,,65,127
43762,note_off,99,0,0,,5,,,65,127
43763,note_on,1,0,0,,2,,,74,127
43862,note_off,99,0,0,,2,,,74,127
43863,note_on,1,0,0,,2,,,74,127
43962,note_off,99,0,0,,2,,,74,127
43963,note_on,1,0,0,,1,,,73,127
44062,note_off,99,0,0,,1,,,73,127
44063,note_on,1,0,0,,1,,,73,127
44162,note_off,99,0,0,,1,,,73,127
44163,note_on,1,0,0,,2,,,74,127
44262,note_off,99,0,0,,2,,,74,127
44263,note_on,1,0,0,,2,,,74,127
44362,note_off,99,0,0,,2,,,74,127
44363,note_on,1,0,0,,5,,,65,127
44461,note_off,98,0,0,,5,,,65,127
44462,note_off,1,0,0,,10,,,57,127
44462,note_off,0,0,0,,2,,,62,127
44471,note_on,9,0,0,,7,,,55,127
44471,note_on,0,0,0,,5,,,65,127
44471,note_on,0,0,0,,2,,,62,127
44571,note_on,100,0,0,,5,,,77,127
44670,note_off,99,0,0,,5,,,77,127
44671,note_on,1,0,0,,5,,,77,127
44770,note_off,99,0,0,,5,,,77,127
44771,note_on,1,0,0,,4,,,76,127
44870,note_off,99,0,0,,4,,,76,127
44871,note_on,1,0,0,,4,,,76,127
44970,note_off,99,0,0,,4,,,76,127
44971,note_on,1,0,0,,2,,,74,127
45070,note_off,99,0,0,,2,,,74,127
45071,note_on,1,0,0,,2,,,74,127
45170,note_off,99,0,0,,2,,,74,127
45171,note_on,1,0,0,,0,,,72,127
45270,note_off,99,0,0,,0,,,72,127
45270,note_off,0,0,0,,2,,,62,127
45270,note_off,0,0,0,,5,,,65,127
45270,note_off,0,0,0,,7,,,55,127
45271,note_on,1,0,0,,7,,,55,127
45271,note_on,0,0,0,,5,,,65,127
45271,note_on,0,0,0,,2,,,62,127
45271,note_on,0,0,0,,0,,,72,127
45370,note_off,99,0,0,,0,,,72,127
45371,note_on,1,0,0,,12,,,71,127
45470,note_off,99,0,0,,12,,,71,127
45471,note_on,1,0,0,,12,,,71,127
45570,note_off,99,0,0,,12,,,71,127
45571,note_on,1,0,0,,10,,,69,127
45670,note_off,99,0,0,,10,,,69,127
45671,note_on,1,0,0,,10,,,69,127
45770,note_off,99,0,0,,10,,,69,127
45771,note_on,1,0,0,,7,,,67,127
45870,note_off,99,0,0,,7,,,67,127
45871,note_on,1,0,0,,7,,,67,127
45959,note_off,88,0,0,,5,,,65,127
45970,note_off,11,0,0,,7,,,67,127
45971,note_on,1,0,0,,5,,,65,127
46070,note_off,99,0,0,,5,,,65,127
46070,note_off,0,0,0,,2,,,62,127
46070,note_off,0,0,0,,7,,,55,127
46079,note_on,9,0,0,,7,,,55,127
46079,note_on,0,0,0,,4,,,64,127
46079,note_on,0,0,0,,0,,,60,127
46179,note_on,100,0,0,,7,,,79,127
46278,note_off,99,0,0,,7,,,79,127
46279,note_on,1,0,0,,7,,,79,127
46378,note_off,99,0,0,,7,,,79,127
46379,note_on,1,0,0,,5,,,77,127
46478,note_off,99,0,0,,5,,,77,127
46479,note_on,1,0,0,,5,,,77,127
46578,note_off,99,0,0,,5,,,77,127
46579,note_on,1,0,0,,4,,,76,127
46678,note_off,99,0,0,,4,,,76,127
46679,note_on,1,0,0,,4,,,76,127
46778,note_off,99,0,0,,4,,,76,127
46779,note_on,1,0,0,,2,,,74,127
46878,note_off,99,0,0,,2,,,74,127
46878,note_off,0,0,0,,0,,,60,127
46878,note_off,0,0,0,,4,,,64,127
46878,note_off,0,0,0,,7,,,55,127
46879,note_on,1,0,0,,0,,,60,127
46879,note_on,0,0,0,,7,,,55,127
46879,note_on,0,0,0,,6,,,66,127
46879,note_on,0,0,0,,2,,,62,127
46879,note_on,0,0,0,,2,,,74,127
46978,note_off,99,0,0,,2,,,74,127
46979,note_on,1,0,0,,0,,,72,127
47078,note_off,99,0,0,,0,,,72,127
47079,note_on,1,0,0,,0,,,72,127
47178,note_off,99,0,0,,0,,,72,127
47179,note_on,1,0,0,,12,,,71,127
47278,note_off,99,0,0,,12,,,71,127
47279,note_on,1,0,0,,12,,,71,127
47378,note_off,99,0,0,,12,,,71,127
47379,note_on,1,0,0,,0,,,72,127
47478,note_off,99,0,0,,0,,,72,127
47479,note_on,1,0,0,,0,,,72,127
47578,note_off,99,0,0,,0,,,72,127
47579,note_on,1,0,0,,12,,,71,127
47678,note_off,99,0,0,,12,,,71,127
47678,note_off,0,0,0,,2,,,62,127
47678,note_off,0,0,0,,6,,,66,127
47678,note_off,0,0,0,,7,,,55,127
47678,note_off,0,0,0,,0,,,60,127
47679,note_on,1,0,0,,7,,,55,127
47679,note_on,0,0,0,,2,,,62,127
47679,note_on,0,0,0,,7,,,67,127
47679,note_on,0,0,0,,12,,,71,127
47788,note_on,109,0,0,,7,,,79,127
47805,note_off,17,0,0,,12,,,71,127
47887,note_off,82,0,0,,7,,,79,127
47888,note_on,1,0,0,,7,,,79,127
47987,note_off,99,0,0,,7,,,79,127
47988,note_on,1,0,0,,6,,,78,127
48087,note_off,99,0,0,,6,,,78,127
48088,note_on,1,0,0,,6,,,78,127
48187,note_off,99,0,0,,6,,,78,127
48188,note_on,1,0,0,,4,,,76,127
48287,note_off,99,0,0,,4,,,76,127
48288,note_on,1,0,0,,4,,,76,127
48387,note_off,99,0,0,,4,,,76,127
48388,note_on,1,0,0,,2,,,74,127
48471,note_off,83,0,0,,7,,,67,127
48471,note_off,0,0,0,,2,,,62,127
48478,note_off,7,0,0,,7,,,55,127
48486,note_off,8,0,0,,2,,,74,127
48487,note_on,1,0,0,,2,,,62,127
48487,note_on,0,0,0,,0,,,60,127
48487,note_on,0,0,0,,10,,,57,127
48487,note_on,0,0,0,,6,,,66,127
48487,note_on,0,0,0,,10,,,69,127
48487,note_on,0,0,0,,2,,,74,127
48586,note_off,99,0,0,,2,,,74,127
48587,note_on,1,0,0,,0,,,72,127
48686,note_off,99,0,0,,0,,,72,127
48687,note_on,1,0,0,,0,,,72,127
48786,note_off,99,0,0,,0,,,72,127
48787,note_on,1,0,0,,12,,,71,127
48886,note_off,99,0,0,,12,,,71,127
48887,note_on,1,0,0,,12,,,71,127
48986,note_off,99,0,0,,12,,,71,127
48987,note_on,1,0,0,,0,,,72,127
49086,note_off,99,0,0,,0,,,72,127
49087,note_on,1,0,0,,0,,,72,127
49186,note_off,99,0,0,,0,,,72,127
49187,note_on,1,0,0,,2,,,74,127
49286,note_off,99,0,0,,2,,,74,127
49286,note_off,0,0,0,,10,,,69,127
49286,note_off,0,0,0,,6,,,66,127
49286,note_off,0,0,0,,10,,,57,127
49286,note_off,0,0,0,,0,,,60,127
49286,note_off,0,0,0,,2,,,62,127
49291,note_on,5,0,0,,2,,,74,127
49291,note_on,0,0,0,,7,,,55,127
49404,note_on,113,0,0,,7,,,67,127
49490,note_off,86,0,0,,7,,,55,127
49504,note_off,14,0,0,,7,,,67,127
49505,note_on,1,0,0,,7,,,67,127
49604,note_off,99,0,0,,7,,,67,127
49605,note_on,1,0,0,,5,,,65,127
49704,note_off,99,0,0,,5,,,65,127
49705,note_on,1,0,0,,5,,,65,127
49804,note_off,99,0,0,,5,,,65,127
49805,note_on,1,0,0,,4,,,64,127
49904,note_off,99,0,0,,4,,,64,127
49905,note_on,1,0,0,,4,,,64,127
50004,note_off,99,0,0,,4,,,64,127
50005,note_on,1,0,0,,5,,,65,127
50092,note_off,87,0,0,,2,,,74,127
50105,note_off,13,0,0,,5,,,65,127
50106,note_on,1,0,0,,10,,,81,127
50106,note_on,0,0,0,,5,,,53,127
50206,note_on,100,0,0,,5,,,65,127
50304,note_off,98,0,0,,5,,,53,127
50305,note_off,1,0,0,,5,,,65,127
50306,note_on,1,0,0,,5,,,65,127
50405,note_off,99,0,0,,5,,,65,127
50406,note_on,1,0,0,,4,,,64,127
50505,note_off,99,0,0,,4,,,64,127
50506,note_on,1,0,0,,4,,,64,127
50605,note_off,99,0,0,,4,,,64,127
50606,note_on,1,0,0,,2,,,62,127
50705,note_off,99,0,0,,2,,,62,127
50706,note_on,1,0,0,,2,,,62,127
50805,note_off,99,0,0,,2,,,62,127
50806,note_on,1,0,0,,4,,,64,127
50905,note_off,99,0,0,,4,,,64,127
50905,note_off,0,0,0,,10,,,81,127
50906,note_on,1,0,0,,7,,,79,127
50906,note_on,0,0,0,,4,,,52,127
51006,note_on,100,0,0,,4,,,64,127
51104,note_off,98,0,0,,4,,,52,127
51105,note_off,1,0,0,,4,,,64,127
51106,note_on,1,0,0,,4,,,64,127
51205,note_off,99,0,0,,4,,,64,127
51206,note_on,1,0,0,,2,,,62,127
51305,note_off,99,0,0,,2,,,62,127
51306,note_on,1,0,0,,2,,,62,127
51405,note_off,99,0,0,,2,,,62,127
51406,note_on,1,0,0,,0,,,60,127
51505,note_off,99,0,0,,0,,,60,127
51506,note_on,1,0,0,,0,,,60,127
51605,note_off,99,0,0,,0,,,60,127
51606,note_on,1,0,0,,2,,,62,127
51705,note_off,99,0,0,,2,,,62,127
51705,note_off,0,0,0,,7,,,79,127
51706,note_on,1,0,0,,5,,,77,127
51706,note_on,0,0,0,,2,,,50,127
51806,note_on,100,0,0,,2,,,62,127
51873,note_off,67,0,0,,2,,,50,127
51905,note_off,32,0,0,,2,,,62,127
51906,note_on,1,0,0,,2,,,62,127
52005,note_off,99,0,0,,2,,,62,127
52006,note_on,1,0,0,,0,,,60,127
52105,note_off,99,0,0,,0,,,60,127
52106,note_on,1,0,0,,0,,,60,127
52205,note_off,99,0,0,,0,,,60,127
52206,note_on,1,0,0,,12,,,59,127
52305,note_off,99,0,0,,12,,,59,127
52306,note_on,1,0,0,,12,,,59,127
52405,note_off,99,0,0,,12,,,59,127
52406,note_on,1,0,0,,0,,,60,127
52505,note_off,99,0,0,,0,,,60,127
52505,note_off,0,0,0,,5,,,77,127
52506,note_on,1,0,0,,0,,,48,127
52606,note_on,100,0,0,,4,,,76,127
52705,note_off,99,0,0,,4,,,76,127
52706,note_on,1,0,0,,0,,,84,127
52805,note_off,99,0,0,,0,,,84,127
52806,note_on,1,0,0,,12,,,83,127
52905,note_off,99,0,0,,12,,,83,127
52906,note_on,1,0,0,,12,,,83,127
53005,note_off,99,0,0,,12,,,83,127
53006,note_on,1,0,0,,10,,,81,127
53105,note_off,99,0,0,,10,,,81,127
53106,note_on,1,0,0,,10,,,81,127
53205,note_off,99,0,0,,10,,,81,127
53206,note_on,1,0,0,,7,,,79,127
53305,note_off,99,0,0,,7,,,79,127
53305,note_off,0,0,0,,0,,,48,127
53306,note_on,1,0,0,,0,,,60,127
53306,note_on,0,0,0,,5,,,65,127
53306,note_on,0,0,0,,5,,,53,127
53406,note_on,100,0,0,,12,,,71,127
53505,note_off,99,0,0,,12,,,71,127
53506,note_on,1,0,0,,10,,,81,127
53605,note_off,99,0,0,,10,,,81,127
53606,note_on,1,0,0,,7,,,79,127
53705,note_off,99,0,0,,7,,,79,127
53706,note_on,1,0,0,,7,,,79,127
53805,note_off,99,0,0,,7,,,79,127
53806,note_on,1,0,0,,5,,,77,127
53905,note_off,99,0,0,,5,,,77,127
53906,note_on,1,0,0,,5,,,77,127
54005,note_off,99,0,0,,5,,,77,127
54006,note_on,1,0,0,,4,,,76,127
54105,note_off,99,0,0,,4,,,76,127
54105,note_off,0,0,0,,5,,,53,127
54105,note_off,0,0,0,,5,,,65,127
54105,note_off,0,0,0,,0,,,60,127
54106,note_on,1,0,0,,5,,,53,127
54106,note_on,0,0,0,,0,,,60,127
54106,note_on,0,0,0,,5,,,65,127
54206,note_on,100,0,0,,10,,,69,127
54305,note_off,99,0,0,,10,,,69,127
54306,note_on,1,0,0,,5,,,77,127
54405,note_off,99,0,0,,5,,,77,127
54406,note_on,1,0,0,,4,,,76,127
54505,note_off,99,0,0,,4,,,76,127
54506,note_on,1,0,0,,4,,,76,127
54605,note_off,99,0,0,,4,,,76,127
54606,note_on,1,0,0,,2,,,74,127
54705,note_off,99,0,0,,2,,,74,127
54706,note_on,1,0,0,,2,,,74,127
54805,note_off,99,0,0,,2,,,74,127
54806,note_on,1,0,0,,0,,,72,127
54905,note_off,99,0,0,,0,,,72,127
54905,note_off,0,0,0,,5,,,65,127
54905,note_off,0,0,0,,0,,,60,127
54905,note_off,0,0,0,,5,,,53,127
54914,note_on,9,0,0,,7,,,79,127
54914,note_on,0,0,0,,0,,,60,127
54914,note_on,0,0,0,,4,,,64,127
54914,note_on,0,0,0,,7,,,55,127
55013,note_off,99,0,0,,7,,,79,127
55014,note_on,1,0,0,,4,,,76,127
55113,note_off,99,0,0,,4,,,76,127
55114,note_on,1,0,0,,4,,,76,127
55213,note_off,99,0,0,,4,,,76,127
55214,note_on,1,0,0,,0,,,72,127
55313,note_off,99,0,0,,0,,,72,127
55314,note_on,1,0,0,,7,,,79,127
55413,note_off,99,0,0,,7,,,79,127
55414,note_on,1,0,0,,4,,,76,127
55513,note_off,99,0,0,,4,,,76,127
55514,note_on,1,0,0,,4,,,76,127
55613,note_off,99,0,0,,4,,,76,127
55614,note_on,1,0,0,,0,,,72,127
55713,note_off,99,0,0,,0,,,72,127
55713,note_off,0,0,0,,7,,,55,127
55713,note_off,0,0,0,,4,,,64,127
55713,note_off,0,0,0,,0,,,60,127
55714,note_on,1,0,0,,7,,,79,127
55714,note_on,0,0,0,,7,,,43,127
55813,note_off,99,0,0,,7,,,79,127
55814,note_on,1,0,0,,4,,,76,127
55913,note_off,99,0,0,,4,,,76,127
55914,note_on,1,0,0,,4,,,76,127
56013,note_off,99,0,0,,4,,,76,127
56014,note_on,1,0,0,,2,,,74,127
56113,note_off,99,0,0,,2,,,74,127
56114,note_on,1,0,0,,2,,,74,127
56213,note_off,99,0,0,,2,,,74,127
56214,note_on,1,0,0,,0,,,72,127
56313,note_off,99,0,0,,0,,,72,127
56314,note_on,1,0,0,,0,,,72,127
56413,note_off,99,0,0,,0,,,72,127
56414,note_on,1,0,0,,12,,,71,127
56513,note_off,99,0,0,,12,,,71,127
56522,note_off,9,0,0,,7,,,43,127
56522,note_on,0,0,0,,0,,,72,127
56522,note_on,0,0,0,,0,,,48,127
56622,note_on,100,0,0,,10,,,81,127
56622,note_on,0,0,0,,5,,,77,127
56689,note_off,67,0,0,,0,,,72,127
56721,note_off,32,0,0,,5,,,77,127
56721,note_off,0,0,0,,10,,,81,127
56722,note_on,1,0,0,,7,,,79,127
56722,note_on,0,0,0,,4,,,76,127
56821,note_off,99,0,0,,0,,,48,127
56822,note_on,1,0,0,,7,,,67,127
56921,note_off,99,0,0,,7,,,67,127
56922,note_on,1,0,0,,10,,,69,127
57021,note_off,99,0,0,,10,,,69,127
57022,note_on,1,0,0,,12,,,71,127
57121,note_off,99,0,0,,12,,,71,127
57122,note_on,1,0,0,,0,,,72,127
57221,note_off,99,0,0,,4,,,76,127
57221,note_off,0,0,0,,7,,,79,127
57222,note_on,1,0,0,,2,,,74,127
57222,note_on,0,0,0,,5,,,77,127
57321,note_off,99,0,0,,5,,,77,127
57321,note_off,0,0,0,,2,,,74,127
57321,note_off,0,0,0,,0,,,72,127
57322,note_on,1,0,0,,7,,,79,127
57322,note_on,0,0,0,,4,,,76,127
57322,note_on,0,0,0,,0,,,60,127
57421,note_off,99,0,0,,4,,,76,127
57421,note_off,0,0,0,,7,,,79,127
57422,note_on,1,0,0,,2,,,74,127
57422,note_on,0,0,0,,5,,,77,127
57521,note_off,99,0,0,,5,,,77,127
57521,note_off,0,0,0,,2,,,74,127
57522,note_on,1,0,0,,7,,,79,127
57522,note_on,0,0,0,,4,,,76,127
57621,note_off,99,0,0,,0,,,60,127
57622,note_on,1,0,0,,7,,,67,127
57721,note_off,99,0,0,,7,,,67,127
57722,note_on,1,0,0,,10,,,69,127
57821,note_off,99,0,0,,10,,,69,127
57822,note_on,1,0,0,,12,,,71,127
57921,note_off,99,0,0,,12,,,71,127
57922,note_on,1,0,0,,0,,,72,127
58001,note_off,79,0,0,,4,,,76,127
58001,note_off,0,0,0,,7,,,79,127
58017,note_off,16,0,0,,0,,,72,127
58022,note_on,5,0,0,,2,,,74,127
58022,note_on,0,0,0,,5,,,77,127
58121,note_off,99,0,0,,5,,,77,127
58121,note_off,0,0,0,,2,,,74,127
58122,note_on,1,0,0,,0,,,60,127
58122,note_on,0,0,0,,0,,,72,127
58122,note_on,0,0,0,,4,,,76,127
58221,note_off,99,0,0,,4,,,76,127
58221,note_off,0,0,0,,0,,,72,127
58222,note_on,1,0,0,,5,,,77,127
58222,note_on,0,0,0,,2,,,74,127
58321,note_off,99,0,0,,2,,,74,127
58321,note_off,0,0,0,,5,,,77,127
58322,note_on,1,0,0,,4,,,76,127
58322,note_on,0,0,0,,7,,,79,127
58421,note_off,99,0,0,,0,,,60,127
58422,note_on,1,0,0,,7,,,67,127
58521,note_off,99,0,0,,7,,,67,127
58522,note_on,1,0,0,,10,,,69,127
58621,note_off,99,0,0,,10,,,69,127
58622,note_on,1,0,0,,12,,,71,127
58721,note_off,99,0,0,,12,,,71,127
58722,note_on,1,0,0,,0,,,72,127
58821,note_off,99,0,0,,7,,,79,127
58821,note_off,0,0,0,,4,,,76,127
58822,note_on,1,0,0,,10,,,81,127
58822,note_on,0,0,0,,5,,,77,127
58921,note_off,99,0,0,,5,,,77,127
58921,note_off,0,0,0,,10,,,81,127
58921,note_off,0,0,0,,0,,,72,127
58922,note_on,1,0,0,,0,,,60,127
58922,note_on,0,0,0,,7,,,79,127
58922,note_on,0,0,0,,4,,,76,127
59021,note_off,99,0,0,,4,,,76,127
59021,note_off,0,0,0,,7,,,79,127
59022,note_on,1,0,0,,2,,,74,127
59022,note_on,0,0,0,,5,,,77,127
59121,note_off,99,0,0,,5,,,77,127
59121,note_off,0,0,0,,2,,,74,127
59122,note_on,1,0,0,,7,,,79,127
59122,note_on,0,0,0,,4,,,76,127
59221,note_off,99,0,0,,0,,,60,127
59222,note_on,1,0,0,,7,,,67,127
59321,note_off,99,0,0,,7,,,67,127
59322,note_on,1,0,0,,10,,,69,127
59421,note_off,99,0,0,,10,,,69,127
59422,note_on,1,0,0,,12,,,71,127
59521,note_off,99,0,0,,12,,,71,127
59522,note_on,1,0,0,,0,,,72,127
59601,note_off,79,0,0,,4,,,76,127
59601,note_off,0,0,0,,7,,,79,127
59623,note_off,22,0,0,,0,,,72,127
59630,note_on,7,0,0,,12,,,83,127
59729,note_off,99,0,0,,12,,,83,127
59730,note_on,1,0,0,,0,,,48,127
59730,note_on,0,0,0,,0,,,84,127
59829,note_off,99,0,0,,0,,,84,127
59830,note_on,1,0,0,,10,,,81,127
59929,note_off,99,0,0,,10,,,81,127
59930,note_on,1,0,0,,7,,,79,127
60029,note_off,99,0,0,,7,,,79,127
60030,note_on,1,0,0,,12,,,83,127
60129,note_off,99,0,0,,12,,,83,127
60129,note_off,0,0,0,,0,,,48,127
60130,note_on,1,0,0,,5,,,41,127
60130,note_on,0,0,0,,10,,,81,127
60229,note_off,99,0,0,,10,,,81,127
60230,note_on,1,0,0,,4,,,76,127
60329,note_off,99,0,0,,4,,,76,127
60330,note_on,1,0,0,,2,,,74,127
60429,note_off,99,0,0,,2,,,74,127
60430,note_on,1,0,0,,10,,,81,127
60529,note_off,99,0,0,,10,,,81,127
60529,note_off,0,0,0,,5,,,41,127
60538,note_on,9,0,0,,7,,,43,127
60538,note_on,0,0,0,,7,,,79,127
60637,note_off,99,0,0,,7,,,79,127
60638,note_on,1,0,0,,4,,,76,127
60737,note_off,99,0,0,,4,,,76,127
60738,note_on,1,0,0,,4,,,76,127
60837,note_off,99,0,0,,4,,,76,127
60838,note_on,1,0,0,,0,,,72,127
60937,note_off,99,0,0,,0,,,72,127
60938,note_on,1,0,0,,7,,,79,127
61037,note_off,99,0,0,,7,,,79,127
61038,note_on,1,0,0,,4,,,76,127
61137,note_off,99,0,0,,4,,,76,127
61138,note_on,1,0,0,,4,,,76,127
61237,note_off,99,0,0,,4,,,76,127
61238,note_on,1,0,0,,0,,,72,127
61337,note_off,99,0,0,,7,,,43,127
61338,note_off,1,0,0,,0,,,72,127
61346,note_on,8,0,0,,7,,,31,127
61346,note_on,0,0,0,,7,,,67,127
61746,note_off,400,0,0,,7,,,67,127
61764,note_on,18,0,0,,4,,,76,127
61813,note_off,49,0,0,,4,,,76,127
61814,note_on,1,0,0,,2,,,74,127
61863,note_off,49,0,0,,2,,,74,127
61864,note_on,1,0,0,,4,,,76,127
61913,note_off,49,0,0,,4,,,76,127
61914,note_on,1,0,0,,2,,,74,127
61963,note_off,49,0,0,,2,,,74,127
61964,note_on,1,0,0,,4,,,76,127
62013,note_off,49,0,0,,4,,,76,127
62014,note_on,1,0,0,,2,,,74,127
62063,note_off,49,0,0,,2,,,74,127
62064,note_on,1,0,0,,0,,,72,127
62113,note_off,49,0,0,,0,,,72,127
62118,note_on,5,0,0,,2,,,74,127
62172,note_off,54,0,0,,2,,,74,127
62180,note_off,8,0,0,,7,,,31,127
62180,note_on,0,0,0,,0,,,36,127
62180,note_on,0,0,0,,0,,,72,127
64058,note_off,1878,0,0,,0,,,72,127
64058,note_off,0,0,0,,0,,,36,127
66048,end_of_track,1990,1,0,,,,,,
