tick,type,time,meta,track,program,channel,pitch,tempo,note,velocity
0,copyright,0,1,0,,,,,,
0,program_change,0,0,0,6,0,,,,
0,pitchwheel,0,0,0,,0,0,,,
0,program_change,0,0,0,6,1,,,,
0,pitchwheel,0,0,0,,1,-590,,,
0,program_change,0,0,0,6,2,,,,
0,pitchwheel,0,0,0,,2,-272,,,
0,program_change,0,0,0,6,3,,,,
0,pitchwheel,0,0,0,,3,-353,,,
0,program_change,0,0,0,6,4,,,,
0,pitchwheel,0,0,0,,4,-560,,,
0,program_change,0,0,0,6,5,,,,
0,pitchwheel,0,0,0,,5,-80,,,
0,program_change,0,0,0,6,6,,,,
0,pitchwheel,0,0,0,,6,-625,,,
0,program_change,0,0,0,6,7,,,,
0,pitchwheel,0,0,0,,7,-130,,,
0,program_change,0,0,0,6,8,,,,
0,pitchwheel,0,0,0,,8,-512,,,
0,program_change,0,0,0,6,10,,,,
0,pitchwheel,0,0,0,,10,-464,,,
0,program_change,0,0,0,6,11,,,,
0,pitchwheel,0,0,0,,11,-208,,,
0,program_change,0,0,0,6,12,,,,
0,pitchwheel,0,0,0,,12,-553,,,
0,set_tempo,0,1,0,,,,500000,,
188,note_on,188,0,0,,0,,,48,127
384,note_on,196,0,0,,0,,,60,127
408,note_off,24,0,0,,0,,,48,127
575,note_off,167,0,0,,0,,,60,127
576,note_on,1,0,0,,12,,,59,127
761,note_off,185,0,0,,12,,,59,127
768,note_on,7,0,0,,4,,,52,127
960,note_on,192,0,0,,4,,,64,127
968,note_off,8,0,0,,4,,,52,127
1151,note_off,183,0,0,,4,,,64,127
1152,note_on,1,0,0,,2,,,62,127
1337,note_off,185,0,0,,2,,,62,127
1344,note_on,7,0,0,,7,,,55,127
1536,note_on,192,0,0,,7,,,67,127
1554,note_off,18,0,0,,7,,,55,127
1727,note_off,173,0,0,,7,,,67,127
1728,note_on,1,0,0,,5,,,65,127
1908,note_off,180,0,0,,5,,,65,127
1920,note_on,12,0,0,,4,,,64,127
1920,note_on,0,0,0,,7,,,67,127
2111,note_off,191,0,0,,7,,,67,127
2111,note_off,0,0,0,,4,,,64,127
2112,note_on,1,0,0,,2,,,62,127
2112,note_on,0,0,0,,5,,,65,127
2303,note_off,191,0,0,,5,,,65,127
2303,note_off,0,0,0,,2,,,62,127
2304,note_on,1,0,0,,0,,,60,127
2304,note_on,0,0,0,,4,,,64,127
2495,note_off,191,0,0,,4,,,64,127
2495,note_off,0,0,0,,0,,,60,127
2496,note_on,1,0,0,,5,,,65,127
2496,note_on,0,0,0,,2,,,62,127
2687,note_off,191,0,0,,2,,,62,127
2688,note_on,1,0,0,,12,,,59,127
2876,note_off,188,0,0,,5,,,65,127
2879,note_off,3,0,0,,12,,,59,127
2880,note_on,1,0,0,,4,,,64,127
2880,note_on,0,0,0,,0,,,60,127
3071,note_off,191,0,0,,0,,,60,127
3071,note_off,0,0,0,,4,,,64,127
3072,note_on,1,0,0,,5,,,53,127
3072,note_on,0,0,0,,2,,,62,127
3263,note_off,191,0,0,,2,,,62,127
3264,note_on,1,0,0,,0,,,60,127
3452,note_off,188,0,0,,5,,,53,127
3455,note_off,3,0,0,,0,,,60,127
3460,note_on,5,0,0,,12,,,59,127
3460,note_on,0,0,0,,7,,,55,127
3658,note_off,198,0,0,,7,,,55,127
3658,note_off,0,0,0,,12,,,59,127
3664,note_on,6,0,0,,0,,,60,127
3664,note_on,0,0,0,,0,,,48,127
3855,note_off,191,0,0,,0,,,60,127
3856,note_on,1,0,0,,0,,,72,127
4047,note_off,191,0,0,,0,,,72,127
4047,note_off,0,0,0,,0,,,48,127
4048,note_on,1,0,0,,12,,,71,127
4048,note_on,0,0,0,,7,,,43,127
4239,note_off,191,0,0,,7,,,43,127
4239,note_off,0,0,0,,12,,,71,127
4240,note_on,1,0,0,,4,,,64,127
4240,note_on,0,0,0,,0,,,48,127
4431,note_off,191,0,0,,4,,,64,127
4432,note_on,1,0,0,,4,,,76,127
4623,note_off,191,0,0,,4,,,76,127
4623,note_off,0,0,0,,0,,,48,127
4624,note_on,1,0,0,,2,,,74,127
4624,note_on,0,0,0,,5,,,53,127
4815,note_off,191,0,0,,5,,,53,127
4815,note_off,0,0,0,,2,,,74,127
4816,note_on,1,0,0,,7,,,67,127
4816,note_on,0,0,0,,4,,,52,127
5007,note_off,191,0,0,,7,,,67,127
5008,note_on,1,0,0,,7,,,79,127
5199,note_off,191,0,0,,7,,,79,127
5199,note_off,0,0,0,,4,,,52,127
5200,note_on,1,0,0,,5,,,77,127
5200,note_on,0,0,0,,2,,,50,127
5391,note_off,191,0,0,,2,,,50,127
5391,note_off,0,0,0,,5,,,77,127
5392,note_on,1,0,0,,7,,,79,127
5392,note_on,0,0,0,,4,,,76,127
5392,note_on,0,0,0,,0,,,48,127
5583,note_off,191,0,0,,4,,,76,127
5583,note_off,0,0,0,,7,,,79,127
5584,note_on,1,0,0,,2,,,74,127
5584,note_on,0,0,0,,5,,,77,127
5775,note_off,191,0,0,,5,,,77,127
5775,note_off,0,0,0,,2,,,74,127
5775,note_off,0,0,0,,0,,,48,127
5776,note_on,1,0,0,,4,,,76,127
5776,note_on,0,0,0,,0,,,72,127
5776,note_on,0,0,0,,0,,,60,127
5967,note_off,191,0,0,,0,,,60,127
5967,note_off,0,0,0,,0,,,72,127
5967,note_off,0,0,0,,4,,,76,127
5968,note_on,1,0,0,,2,,,74,127
5968,note_on,0,0,0,,5,,,77,127
5968,note_on,0,0,0,,12,,,59,127
6159,note_off,191,0,0,,12,,,59,127
6159,note_off,0,0,0,,2,,,74,127
6160,note_on,1,0,0,,12,,,71,127
6160,note_on,0,0,0,,7,,,55,127
6348,note_off,188,0,0,,5,,,77,127
6351,note_off,3,0,0,,7,,,55,127
6351,note_off,0,0,0,,12,,,71,127
6352,note_on,1,0,0,,4,,,76,127
6352,note_on,0,0,0,,0,,,72,127
6352,note_on,0,0,0,,0,,,60,127
6543,note_off,191,0,0,,0,,,60,127
6543,note_off,0,0,0,,0,,,72,127
6543,note_off,0,0,0,,4,,,76,127
6544,note_on,1,0,0,,5,,,65,127
6544,note_on,0,0,0,,2,,,74,127
6544,note_on,0,0,0,,5,,,53,127
6735,note_off,191,0,0,,5,,,53,127
6735,note_off,0,0,0,,2,,,74,127
6735,note_off,0,0,0,,5,,,65,127
6736,note_on,1,0,0,,0,,,72,127
6736,note_on,0,0,0,,4,,,64,127
6736,note_on,0,0,0,,7,,,55,127
6927,note_off,191,0,0,,7,,,55,127
6927,note_off,0,0,0,,4,,,64,127
6927,note_off,0,0,0,,0,,,72,127
6928,note_on,1,0,0,,2,,,62,127
6928,note_on,0,0,0,,12,,,71,127
6928,note_on,0,0,0,,7,,,43,127
7119,note_off,191,0,0,,7,,,43,127
7119,note_off,0,0,0,,12,,,71,127
7119,note_off,0,0,0,,2,,,62,127
7136,note_on,17,0,0,,0,,,48,127
7136,note_on,0,0,0,,4,,,64,127
7136,note_on,0,0,0,,0,,,72,127
7231,note_off,95,0,0,,0,,,48,127
7232,note_on,1,0,0,,4,,,52,127
7327,note_off,95,0,0,,4,,,52,127
7327,note_off,0,0,0,,0,,,72,127
7327,note_off,0,0,0,,4,,,64,127
7328,note_on,1,0,0,,7,,,55,127
7328,note_on,0,0,0,,7,,,67,127
7423,note_off,95,0,0,,7,,,55,127
7424,note_on,1,0,0,,0,,,60,127
7519,note_off,95,0,0,,0,,,60,127
7519,note_off,0,0,0,,7,,,67,127
7520,note_on,1,0,0,,4,,,64,127
7520,note_on,0,0,0,,7,,,79,127
7615,note_off,95,0,0,,4,,,64,127
7616,note_on,1,0,0,,7,,,67,127
7711,note_off,95,0,0,,7,,,67,127
7711,note_off,0,0,0,,7,,,79,127
7712,note_on,1,0,0,,0,,,48,127
7712,note_on,0,0,0,,4,,,76,127
7712,note_on,0,0,0,,0,,,72,127
7903,note_off,191,0,0,,0,,,48,127
7904,note_on,1,0,0,,7,,,43,127
8095,note_off,191,0,0,,0,,,72,127
8095,note_off,0,0,0,,4,,,76,127
8096,note_on,1,0,0,,12,,,71,127
8096,note_on,0,0,0,,4,,,76,127
8143,note_off,47,0,0,,4,,,76,127
8144,note_on,1,0,0,,2,,,74,127
8191,note_off,47,0,0,,2,,,74,127
8192,note_on,1,0,0,,4,,,76,127
8234,note_off,42,0,0,,7,,,43,127
8239,note_off,5,0,0,,4,,,76,127
8240,note_on,1,0,0,,2,,,74,127
8286,note_off,46,0,0,,12,,,71,127
8287,note_off,1,0,0,,2,,,74,127
8304,note_on,17,0,0,,0,,,72,127
8304,note_on,0,0,0,,0,,,48,127
8399,note_off,95,0,0,,0,,,48,127
8400,note_on,1,0,0,,4,,,52,127
8495,note_off,95,0,0,,4,,,52,127
8495,note_off,0,0,0,,0,,,72,127
8496,note_on,1,0,0,,7,,,67,127
8496,note_on,0,0,0,,7,,,55,127
8591,note_off,95,0,0,,7,,,55,127
8592,note_on,1,0,0,,0,,,60,127
8687,note_off,95,0,0,,0,,,60,127
8687,note_off,0,0,0,,7,,,67,127
8688,note_on,1,0,0,,7,,,79,127
8688,note_on,0,0,0,,4,,,64,127
8783,note_off,95,0,0,,4,,,64,127
8784,note_on,1,0,0,,7,,,67,127
8879,note_off,95,0,0,,7,,,67,127
8879,note_off,0,0,0,,7,,,79,127
8880,note_on,1,0,0,,4,,,76,127
8880,note_on,0,0,0,,0,,,72,127
8880,note_on,0,0,0,,0,,,36,127
9071,note_off,191,0,0,,0,,,36,127
9072,note_on,1,0,0,,7,,,31,127
9263,note_off,191,0,0,,0,,,72,127
9263,note_off,0,0,0,,4,,,76,127
9264,note_on,1,0,0,,12,,,71,127
9264,note_on,0,0,0,,4,,,76,127
9311,note_off,47,0,0,,4,,,76,127
9312,note_on,1,0,0,,2,,,74,127
9359,note_off,47,0,0,,2,,,74,127
9360,note_on,1,0,0,,4,,,76,127
9402,note_off,42,0,0,,7,,,31,127
9407,note_off,5,0,0,,4,,,76,127
9408,note_on,1,0,0,,2,,,74,127
9454,note_off,46,0,0,,12,,,71,127
9455,note_off,1,0,0,,2,,,74,127
9472,note_on,17,0,0,,0,,,36,127
9472,note_on,0,0,0,,4,,,76,127
9567,note_off,95,0,0,,4,,,76,127
9568,note_on,1,0,0,,0,,,72,127
9663,note_off,95,0,0,,0,,,72,127
9664,note_on,1,0,0,,7,,,67,127
9759,note_off,95,0,0,,7,,,67,127
9760,note_on,1,0,0,,7,,,79,127
9855,note_off,95,0,0,,7,,,79,127
9855,note_off,0,0,0,,0,,,36,127
9856,note_on,1,0,0,,0,,,48,127
9856,note_on,0,0,0,,4,,,76,127
9951,note_off,95,0,0,,4,,,76,127
9952,note_on,1,0,0,,0,,,72,127
10047,note_off,95,0,0,,0,,,72,127
10047,note_off,0,0,0,,0,,,48,127
10048,note_on,1,0,0,,12,,,47,127
10048,note_on,0,0,0,,2,,,74,127
10143,note_off,95,0,0,,2,,,74,127
10144,note_on,1,0,0,,12,,,71,127
10239,note_off,95,0,0,,12,,,71,127
10240,note_on,1,0,0,,7,,,67,127
10335,note_off,95,0,0,,7,,,67,127
10336,note_on,1,0,0,,7,,,79,127
10431,note_off,95,0,0,,7,,,79,127
10431,note_off,0,0,0,,12,,,47,127
10434,note_on,3,0,0,,0,,,48,127
10434,note_on,0,0,0,,0,,,72,127
10529,note_off,95,0,0,,0,,,72,127
10536,note_on,7,0,0,,10,,,69,127
10625,note_off,89,0,0,,0,,,48,127
10635,note_off,10,0,0,,10,,,69,127
10636,note_on,1,0,0,,7,,,43,127
10636,note_on,0,0,0,,12,,,71,127
10731,note_off,95,0,0,,7,,,43,127
10732,note_on,1,0,0,,12,,,47,127
10827,note_off,95,0,0,,12,,,47,127
10827,note_off,0,0,0,,12,,,71,127
10828,note_on,1,0,0,,2,,,50,127
10828,note_on,0,0,0,,7,,,67,127
10923,note_off,95,0,0,,2,,,50,127
10924,note_on,1,0,0,,7,,,55,127
11019,note_off,95,0,0,,7,,,55,127
11019,note_off,0,0,0,,7,,,67,127
11020,note_on,1,0,0,,12,,,59,127
11020,note_on,0,0,0,,2,,,74,127
11115,note_off,95,0,0,,12,,,59,127
11116,note_on,1,0,0,,2,,,62,127
11211,note_off,95,0,0,,2,,,62,127
11211,note_off,0,0,0,,2,,,74,127
11212,note_on,1,0,0,,7,,,43,127
11212,note_on,0,0,0,,12,,,71,127
11212,note_on,0,0,0,,7,,,67,127
11403,note_off,191,0,0,,7,,,43,127
11404,note_on,1,0,0,,2,,,38,127
11595,note_off,191,0,0,,7,,,67,127
11595,note_off,0,0,0,,12,,,71,127
11596,note_on,1,0,0,,12,,,71,127
11596,note_on,0,0,0,,6,,,66,127
11643,note_off,47,0,0,,12,,,71,127
11645,note_on,2,0,0,,10,,,69,127
11692,note_off,47,0,0,,10,,,69,127
11694,note_on,2,0,0,,12,,,71,127
11734,note_off,40,0,0,,2,,,38,127
11741,note_off,7,0,0,,12,,,71,127
11743,note_on,2,0,0,,10,,,69,127
11786,note_off,43,0,0,,6,,,66,127
11790,note_off,4,0,0,,10,,,69,127
11804,note_on,14,0,0,,12,,,71,127
11804,note_on,0,0,0,,7,,,43,127
11899,note_off,95,0,0,,7,,,43,127
11900,note_on,1,0,0,,12,,,47,127
11995,note_off,95,0,0,,12,,,47,127
11995,note_off,0,0,0,,12,,,71,127
11996,note_on,1,0,0,,7,,,67,127
11996,note_on,0,0,0,,2,,,50,127
12091,note_off,95,0,0,,2,,,50,127
12092,note_on,1,0,0,,7,,,55,127
12187,note_off,95,0,0,,7,,,55,127
12187,note_off,0,0,0,,7,,,67,127
12188,note_on,1,0,0,,2,,,74,127
12188,note_on,0,0,0,,12,,,59,127
12283,note_off,95,0,0,,12,,,59,127
12284,note_on,1,0,0,,2,,,62,127
12379,note_off,95,0,0,,2,,,62,127
12379,note_off,0,0,0,,2,,,74,127
12380,note_on,1,0,0,,12,,,71,127
12380,note_on,0,0,0,,7,,,67,127
12380,note_on,0,0,0,,7,,,43,127
12571,note_off,191,0,0,,7,,,43,127
12572,note_on,1,0,0,,2,,,38,127
12763,note_off,191,0,0,,7,,,67,127
12763,note_off,0,0,0,,12,,,71,127
12764,note_on,1,0,0,,6,,,66,127
12764,note_on,0,0,0,,12,,,71,127
12811,note_off,47,0,0,,12,,,71,127
12811,note_on,0,0,0,,10,,,69,127
12858,note_off,47,0,0,,10,,,69,127
12858,note_on,0,0,0,,12,,,71,127
12902,note_off,44,0,0,,2,,,38,127
12905,note_off,3,0,0,,12,,,71,127
12905,note_on,0,0,0,,10,,,69,127
12952,note_off,47,0,0,,10,,,69,127
12954,note_off,2,0,0,,6,,,66,127
12972,note_on,18,0,0,,7,,,43,127
12972,note_on,0,0,0,,12,,,71,127
13067,note_off,95,0,0,,12,,,71,127
13068,note_on,1,0,0,,7,,,67,127
13163,note_off,95,0,0,,7,,,67,127
13164,note_on,1,0,0,,7,,,79,127
13259,note_off,95,0,0,,7,,,79,127
13260,note_on,1,0,0,,6,,,78,127
13355,note_off,95,0,0,,6,,,78,127
13356,note_on,1,0,0,,4,,,76,127
13451,note_off,95,0,0,,4,,,76,127
13452,note_on,1,0,0,,2,,,74,127
13547,note_off,95,0,0,,2,,,74,127
13547,note_off,0,0,0,,7,,,43,127
13548,note_on,1,0,0,,0,,,48,127
13548,note_on,0,0,0,,0,,,72,127
13643,note_off,95,0,0,,0,,,72,127
13644,note_on,1,0,0,,12,,,71,127
13739,note_off,95,0,0,,12,,,71,127
13740,note_on,1,0,0,,10,,,69,127
13835,note_off,95,0,0,,10,,,69,127
13836,note_on,1,0,0,,7,,,67,127
13931,note_off,95,0,0,,7,,,67,127
13932,note_on,1,0,0,,6,,,66,127
14018,note_off,86,0,0,,0,,,48,127
14027,note_off,9,0,0,,6,,,66,127
14028,note_on,1,0,0,,4,,,64,127
14123,note_off,95,0,0,,4,,,64,127
14124,note_on,1,0,0,,2,,,38,127
14124,note_on,0,0,0,,2,,,62,127
14219,note_off,95,0,0,,2,,,62,127
14220,note_on,1,0,0,,6,,,66,127
14315,note_off,95,0,0,,6,,,66,127
14316,note_on,1,0,0,,10,,,69,127
14411,note_off,95,0,0,,10,,,69,127
14412,note_on,1,0,0,,0,,,72,127
14507,note_off,95,0,0,,0,,,72,127
14508,note_on,1,0,0,,6,,,78,127
14603,note_off,95,0,0,,6,,,78,127
14604,note_on,1,0,0,,10,,,81,127
14699,note_off,95,0,0,,10,,,81,127
14699,note_off,0,0,0,,2,,,38,127
14700,note_on,1,0,0,,2,,,38,127
14700,note_on,0,0,0,,0,,,84,127
14795,note_off,95,0,0,,0,,,84,127
14796,note_on,1,0,0,,10,,,81,127
14891,note_off,95,0,0,,10,,,81,127
14892,note_on,1,0,0,,6,,,78,127
14987,note_off,95,0,0,,6,,,78,127
14988,note_on,1,0,0,,0,,,72,127
15083,note_off,95,0,0,,0,,,72,127
15084,note_on,1,0,0,,10,,,69,127
15179,note_off,95,0,0,,10,,,69,127
15180,note_on,1,0,0,,6,,,66,127
15275,note_off,95,0,0,,6,,,66,127
15275,note_off,0,0,0,,2,,,38,127
15276,note_on,1,0,0,,2,,,38,127
15276,note_on,0,0,0,,2,,,62,127
15371,note_off,95,0,0,,2,,,62,127
15372,note_on,1,0,0,,6,,,66,127
15467,note_off,95,0,0,,6,,,66,127
15468,note_on,1,0,0,,10,,,69,127
15563,note_off,95,0,0,,10,,,69,127
15564,note_on,1,0,0,,0,,,72,127
15659,note_off,95,0,0,,0,,,72,127
15660,note_on,1,0,0,,6,,,78,127
15755,note_off,95,0,0,,6,,,78,127
15756,note_on,1,0,0,,10,,,81,127
15851,note_off,95,0,0,,10,,,81,127
15851,note_off,0,0,0,,2,,,38,127
15852,note_on,1,0,0,,2,,,38,127
15852,note_on,0,0,0,,0,,,84,127
15947,note_off,95,0,0,,0,,,84,127
15948,note_on,1,0,0,,10,,,81,127
16043,note_off,95,0,0,,10,,,81,127
16044,note_on,1,0,0,,6,,,78,127
16139,note_off,95,0,0,,6,,,78,127
16140,note_on,1,0,0,,0,,,72,127
16235,note_off,95,0,0,,0,,,72,127
16236,note_on,1,0,0,,10,,,69,127
16331,note_off,95,0,0,,10,,,69,127
16332,note_on,1,0,0,,6,,,66,127
16427,note_off,95,0,0,,6,,,66,127
16427,note_off,0,0,0,,2,,,38,127
16428,note_on,1,0,0,,2,,,50,127
16428,note_on,0,0,0,,2,,,62,127
16523,note_off,95,0,0,,2,,,50,127
16524,note_on,1,0,0,,6,,,54,127
16619,note_off,95,0,0,,6,,,54,127
16620,note_on,1,0,0,,10,,,57,127
16708,note_off,88,0,0,,2,,,62,127
16715,note_off,7,0,0,,10,,,57,127
16716,note_on,1,0,0,,0,,,60,127
16811,note_off,95,0,0,,0,,,60,127
16812,note_on,1,0,0,,6,,,66,127
16907,note_off,95,0,0,,6,,,66,127
16908,note_on,1,0,0,,10,,,69,127
17003,note_off,95,0,0,,10,,,69,127
17004,note_on,1,0,0,,0,,,72,127
17099,note_off,95,0,0,,0,,,72,127
17100,note_on,1,0,0,,10,,,69,127
17195,note_off,95,0,0,,10,,,69,127
17196,note_on,1,0,0,,6,,,66,127
17291,note_off,95,0,0,,6,,,66,127
17292,note_on,1,0,0,,0,,,60,127
17387,note_off,95,0,0,,0,,,60,127
17388,note_on,1,0,0,,10,,,57,127
17483,note_off,95,0,0,,10,,,57,127
17484,note_on,1,0,0,,6,,,54,127
17579,note_off,95,0,0,,6,,,54,127
17580,note_on,1,0,0,,2,,,50,127
17675,note_off,95,0,0,,2,,,50,127
17676,note_on,1,0,0,,6,,,54,127
17771,note_off,95,0,0,,6,,,54,127
17772,note_on,1,0,0,,10,,,57,127
17867,note_off,95,0,0,,10,,,57,127
17868,note_on,1,0,0,,0,,,60,127
17963,note_off,95,0,0,,0,,,60,127
17964,note_on,1,0,0,,6,,,66,127
18059,note_off,95,0,0,,6,,,66,127
18060,note_on,1,0,0,,10,,,69,127
18155,note_off,95,0,0,,10,,,69,127
18156,note_on,1,0,0,,0,,,72,127
18251,note_off,95,0,0,,0,,,72,127
18252,note_on,1,0,0,,10,,,69,127
18347,note_off,95,0,0,,10,,,69,127
18348,note_on,1,0,0,,6,,,66,127
18443,note_off,95,0,0,,6,,,66,127
18444,note_on,1,0,0,,0,,,60,127
18539,note_off,95,0,0,,0,,,60,127
18540,note_on,1,0,0,,10,,,57,127
18635,note_off,95,0,0,,10,,,57,127
18636,note_on,1,0,0,,6,,,54,127
18731,note_off,95,0,0,,6,,,54,127
18734,note_on,3,0,0,,2,,,50,127
18829,note_off,95,0,0,,2,,,50,127
18832,note_on,3,0,0,,6,,,54,127
18927,note_off,95,0,0,,6,,,54,127
18930,note_on,3,0,0,,10,,,57,127
19025,note_off,95,0,0,,10,,,57,127
19028,note_on,3,0,0,,0,,,60,127
19123,note_off,95,0,0,,0,,,60,127
19132,note_on,9,0,0,,12,,,47,127
19227,note_off,95,0,0,,12,,,47,127
19228,note_on,1,0,0,,7,,,55,127
19323,note_off,95,0,0,,7,,,55,127
19324,note_on,1,0,0,,0,,,48,127
19419,note_off,95,0,0,,0,,,48,127
19420,note_on,1,0,0,,10,,,57,127
19515,note_off,95,0,0,,10,,,57,127
19516,note_on,1,0,0,,10,,,45,127
19611,note_off,95,0,0,,10,,,45,127
19612,note_on,1,0,0,,6,,,54,127
19707,note_off,95,0,0,,6,,,54,127
19708,note_on,1,0,0,,12,,,47,127
19803,note_off,95,0,0,,12,,,47,127
19804,note_on,1,0,0,,7,,,55,127
19899,note_off,95,0,0,,7,,,55,127
19900,note_on,1,0,0,,7,,,43,127
19995,note_off,95,0,0,,7,,,43,127
19996,note_on,1,0,0,,4,,,52,127
20091,note_off,95,0,0,,4,,,52,127
20092,note_on,1,0,0,,6,,,42,127
20187,note_off,95,0,0,,6,,,42,127
20188,note_on,1,0,0,,2,,,50,127
20283,note_off,95,0,0,,2,,,50,127
20284,note_on,1,0,0,,4,,,40,127
20379,note_off,95,0,0,,4,,,40,127
20380,note_on,1,0,0,,1,,,49,127
20475,note_off,95,0,0,,1,,,49,127
20492,note_on,17,0,0,,2,,,38,127
20492,note_on,0,0,0,,10,,,57,127
20683,note_off,191,0,0,,10,,,57,127
20684,note_on,1,0,0,,10,,,69,127
20684,note_on,0,0,0,,6,,,66,127
20875,note_off,191,0,0,,6,,,66,127
20875,note_off,0,0,0,,10,,,69,127
20876,note_on,1,0,0,,7,,,67,127
20876,note_on,0,0,0,,4,,,64,127
21067,note_off,191,0,0,,4,,,64,127
21067,note_off,0,0,0,,7,,,67,127
21067,note_off,0,0,0,,2,,,38,127
21068,note_on,1,0,0,,2,,,38,127
21068,note_on,0,0,0,,12,,,59,127
21259,note_off,191,0,0,,12,,,59,127
21260,note_on,1,0,0,,7,,,67,127
21260,note_on,0,0,0,,12,,,71,127
21451,note_off,191,0,0,,12,,,71,127
21451,note_off,0,0,0,,7,,,67,127
21452,note_on,1,0,0,,10,,,69,127
21452,note_on,0,0,0,,6,,,66,127
21643,note_off,191,0,0,,6,,,66,127
21643,note_off,0,0,0,,10,,,69,127
21643,note_off,0,0,0,,2,,,38,127
21644,note_on,1,0,0,,2,,,38,127
21644,note_on,0,0,0,,0,,,60,127
21835,note_off,191,0,0,,0,,,60,127
21836,note_on,1,0,0,,0,,,72,127
21836,note_on,0,0,0,,10,,,69,127
22027,note_off,191,0,0,,10,,,69,127
22027,note_off,0,0,0,,0,,,72,127
22028,note_on,1,0,0,,7,,,67,127
22028,note_on,0,0,0,,12,,,71,127
22219,note_off,191,0,0,,12,,,71,127
22219,note_off,0,0,0,,7,,,67,127
22219,note_off,0,0,0,,2,,,38,127
22220,note_on,1,0,0,,2,,,38,127
22220,note_on,0,0,0,,2,,,62,127
22411,note_off,191,0,0,,2,,,62,127
22412,note_on,1,0,0,,2,,,74,127
22412,note_on,0,0,0,,12,,,71,127
22603,note_off,191,0,0,,12,,,71,127
22603,note_off,0,0,0,,2,,,74,127
22608,note_on,5,0,0,,0,,,72,127
22608,note_on,0,0,0,,10,,,69,127
22805,note_off,197,0,0,,2,,,38,127
22806,note_off,1,0,0,,10,,,69,127
22806,note_off,0,0,0,,0,,,72,127
22812,note_on,6,0,0,,6,,,66,127
22812,note_on,0,0,0,,2,,,38,127
23003,note_off,191,0,0,,6,,,66,127
23004,note_on,1,0,0,,0,,,72,127
23004,note_on,0,0,0,,4,,,76,127
23195,note_off,191,0,0,,4,,,76,127
23195,note_off,0,0,0,,0,,,72,127
23196,note_on,1,0,0,,2,,,74,127
23196,note_on,0,0,0,,12,,,71,127
23312,note_off,116,0,0,,2,,,38,127
23388,note_on,76,0,0,,7,,,43,127
23579,note_off,191,0,0,,7,,,43,127
23579,note_off,0,0,0,,12,,,71,127
23579,note_off,0,0,0,,2,,,74,127
23580,note_on,1,0,0,,10,,,69,127
23580,note_on,0,0,0,,0,,,72,127
23580,note_on,0,0,0,,10,,,45,127
23771,note_off,191,0,0,,10,,,45,127
23771,note_off,0,0,0,,0,,,72,127
23771,note_off,0,0,0,,10,,,69,127
23772,note_on,1,0,0,,12,,,71,127
23772,note_on,0,0,0,,7,,,67,127
23772,note_on,0,0,0,,12,,,47,127
23963,note_off,191,0,0,,12,,,47,127
23963,note_off,0,0,0,,7,,,67,127
23963,note_off,0,0,0,,12,,,71,127
23964,note_on,1,0,0,,10,,,69,127
23964,note_on,0,0,0,,0,,,48,127
24155,note_off,191,0,0,,0,,,48,127
24155,note_off,0,0,0,,10,,,69,127
24156,note_on,1,0,0,,7,,,67,127
24156,note_on,0,0,0,,2,,,50,127
24347,note_off,191,0,0,,2,,,50,127
24347,note_off,0,0,0,,7,,,67,127
24348,note_on,1,0,0,,7,,,67,127
24348,note_on,0,0,0,,2,,,38,127
24395,note_off,47,0,0,,7,,,67,127
24396,note_on,1,0,0,,6,,,66,127
24443,note_off,47,0,0,,6,,,66,127
24444,note_on,1,0,0,,4,,,64,127
24491,note_off,47,0,0,,4,,,64,127
24492,note_on,1,0,0,,6,,,66,127
24539,note_off,47,0,0,,6,,,66,127
24539,note_off,0,0,0,,2,,,38,127
24540,note_on,1,0,0,,7,,,67,127
24540,note_on,0,0,0,,7,,,43,127
25040,note_off,500,0,0,,7,,,43,127
25115,note_off,75,0,0,,7,,,67,127
25148,note_on,33,0,0,,10,,,57,127
25148,note_on,0,0,0,,2,,,38,127
25339,note_off,191,0,0,,10,,,57,127
25340,note_on,1,0,0,,10,,,69,127
25340,note_on,0,0,0,,6,,,66,127
25531,note_off,191,0,0,,6,,,66,127
25531,note_off,0,0,0,,10,,,69,127
25532,note_on,1,0,0,,4,,,64,127
25532,note_on,0,0,0,,7,,,67,127
25723,note_off,191,0,0,,7,,,67,127
25723,note_off,0,0,0,,4,,,64,127
25723,note_off,0,0,0,,2,,,38,127
25724,note_on,1,0,0,,12,,,59,127
25724,note_on,0,0,0,,2,,,38,127
25915,note_off,191,0,0,,12,,,59,127
25916,note_on,1,0,0,,7,,,67,127
25916,note_on,0,0,0,,12,,,71,127
26107,note_off,191,0,0,,12,,,71,127
26107,note_off,0,0,0,,7,,,67,127
26108,note_on,1,0,0,,6,,,66,127
26108,note_on,0,0,0,,10,,,69,127
26299,note_off,191,0,0,,10,,,69,127
26299,note_off,0,0,0,,6,,,66,127
26299,note_off,0,0,0,,2,,,38,127
26300,note_on,1,0,0,,0,,,60,127
26300,note_on,0,0,0,,2,,,38,127
26491,note_off,191,0,0,,0,,,60,127
26492,note_on,1,0,0,,10,,,69,127
26492,note_on,0,0,0,,0,,,72,127
26683,note_off,191,0,0,,0,,,72,127
26683,note_off,0,0,0,,10,,,69,127
26684,note_on,1,0,0,,7,,,67,127
26684,note_on,0,0,0,,12,,,71,127
26875,note_off,191,0,0,,12,,,71,127
26875,note_off,0,0,0,,7,,,67,127
26875,note_off,0,0,0,,2,,,38,127
26876,note_on,1,0,0,,2,,,62,127
26876,note_on,0,0,0,,2,,,38,127
27067,note_off,191,0,0,,2,,,62,127
27068,note_on,1,0,0,,2,,,74,127
27068,note_on,0,0,0,,12,,,71,127
27259,note_off,191,0,0,,12,,,71,127
27259,note_off,0,0,0,,2,,,74,127
27260,note_on,1,0,0,,10,,,69,127
27260,note_on,0,0,0,,0,,,72,127
27451,note_off,191,0,0,,0,,,72,127
27451,note_off,0,0,0,,10,,,69,127
27451,note_off,0,0,0,,2,,,38,127
27468,note_on,17,0,0,,2,,,38,127
27468,note_on,0,0,0,,6,,,66,127
27659,note_off,191,0,0,,6,,,66,127
27660,note_on,1,0,0,,4,,,76,127
27660,note_on,0,0,0,,0,,,72,127
27851,note_off,191,0,0,,0,,,72,127
27851,note_off,0,0,0,,4,,,76,127
27852,note_on,1,0,0,,2,,,74,127
27852,note_on,0,0,0,,12,,,71,127
28038,note_off,186,0,0,,2,,,38,127
28044,note_on,6,0,0,,2,,,38,127
28235,note_off,191,0,0,,12,,,71,127
28235,note_off,0,0,0,,2,,,74,127
28236,note_on,1,0,0,,0,,,72,127
28236,note_on,0,0,0,,10,,,69,127
28427,note_off,191,0,0,,10,,,69,127
28427,note_off,0,0,0,,0,,,72,127
28428,note_on,1,0,0,,12,,,71,127
28428,note_on,0,0,0,,7,,,67,127
28524,note_off,96,0,0,,2,,,38,127
28619,note_off,95,0,0,,7,,,67,127
28619,note_off,0,0,0,,12,,,71,127
28620,note_on,1,0,0,,0,,,48,127
28620,note_on,0,0,0,,10,,,69,127
28811,note_off,191,0,0,,10,,,69,127
28811,note_off,0,0,0,,0,,,48,127
28812,note_on,1,0,0,,2,,,50,127
28812,note_on,0,0,0,,7,,,67,127
29003,note_off,191,0,0,,7,,,67,127
29003,note_off,0,0,0,,2,,,50,127
29004,note_on,1,0,0,,2,,,38,127
29004,note_on,0,0,0,,7,,,67,127
29051,note_off,47,0,0,,7,,,67,127
29052,note_on,1,0,0,,6,,,66,127
29099,note_off,47,0,0,,6,,,66,127
29100,note_on,1,0,0,,4,,,64,127
29147,note_off,47,0,0,,4,,,64,127
29148,note_on,1,0,0,,6,,,66,127
29194,note_off,46,0,0,,2,,,38,127
29212,note_on,18,0,0,,7,,,43,127
29243,note_off,31,0,0,,6,,,66,127
29403,note_off,160,0,0,,7,,,43,127
29404,note_on,1,0,0,,7,,,67,127
29404,note_on,0,0,0,,10,,,45,127
29451,note_off,47,0,0,,7,,,67,127
29452,note_on,1,0,0,,10,,,69,127
29499,note_off,47,0,0,,10,,,69,127
29500,note_on,1,0,0,,12,,,71,127
29547,note_off,47,0,0,,12,,,71,127
29548,note_on,1,0,0,,0,,,72,127
29595,note_off,47,0,0,,0,,,72,127
29595,note_off,0,0,0,,10,,,45,127
29596,note_on,1,0,0,,2,,,74,127
29596,note_on,0,0,0,,12,,,47,127
29787,note_off,191,0,0,,12,,,47,127
29787,note_off,0,0,0,,2,,,74,127
29788,note_on,1,0,0,,4,,,76,127
29788,note_on,0,0,0,,0,,,48,127
29979,note_off,191,0,0,,0,,,48,127
29980,note_on,1,0,0,,2,,,50,127
30171,note_off,191,0,0,,2,,,50,127
30171,note_off,0,0,0,,4,,,76,127
30172,note_on,1,0,0,,2,,,74,127
30172,note_on,0,0,0,,2,,,38,127
30352,note_off,180,0,0,,2,,,38,127
30362,note_off,10,0,0,,2,,,74,127
30364,note_on,2,0,0,,7,,,43,127
30555,note_off,191,0,0,,7,,,43,127
30556,note_on,1,0,0,,7,,,67,127
30556,note_on,0,0,0,,10,,,45,127
30603,note_off,47,0,0,,7,,,67,127
30604,note_on,1,0,0,,10,,,69,127
30651,note_off,47,0,0,,10,,,69,127
30652,note_on,1,0,0,,12,,,71,127
30699,note_off,47,0,0,,12,,,71,127
30700,note_on,1,0,0,,0,,,72,127
30747,note_off,47,0,0,,0,,,72,127
30747,note_off,0,0,0,,10,,,45,127
30748,note_on,1,0,0,,2,,,74,127
30748,note_on,0,0,0,,12,,,47,127
30939,note_off,191,0,0,,12,,,47,127
30939,note_off,0,0,0,,2,,,74,127
30940,note_on,1,0,0,,4,,,76,127
30940,note_on,0,0,0,,0,,,48,127
31131,note_off,191,0,0,,0,,,48,127
31132,note_on,1,0,0,,2,,,50,127
31323,note_off,191,0,0,,2,,,50,127
31323,note_off,0,0,0,,4,,,76,127
31324,note_on,1,0,0,,2,,,74,127
31324,note_on,0,0,0,,2,,,38,127
31504,note_off,180,0,0,,2,,,38,127
31514,note_off,10,0,0,,2,,,74,127
31516,note_on,2,0,0,,7,,,43,127
31707,note_off,191,0,0,,7,,,43,127
31708,note_on,1,0,0,,7,,,67,127
31708,note_on,0,0,0,,10,,,45,127
31755,note_off,47,0,0,,7,,,67,127
31756,note_on,1,0,0,,10,,,69,127
31803,note_off,47,0,0,,10,,,69,127
31804,note_on,1,0,0,,12,,,71,127
31851,note_off,47,0,0,,12,,,71,127
31852,note_on,1,0,0,,0,,,72,127
31899,note_off,47,0,0,,0,,,72,127
31899,note_off,0,0,0,,10,,,45,127
31900,note_on,1,0,0,,2,,,74,127
31900,note_on,0,0,0,,12,,,47,127
32091,note_off,191,0,0,,12,,,47,127
32091,note_off,0,0,0,,2,,,74,127
32092,note_on,1,0,0,,4,,,76,127
32092,note_on,0,0,0,,0,,,48,127
32283,note_off,191,0,0,,0,,,48,127
32283,note_off,0,0,0,,4,,,76,127
32288,note_on,5,0,0,,2,,,74,127
32288,note_on,0,0,0,,2,,,50,127
32487,note_off,199,0,0,,2,,,50,127
32487,note_off,0,0,0,,2,,,74,127
32492,note_on,5,0,0,,2,,,38,127
32492,note_on,0,0,0,,6,,,78,127
32492,note_on,0,0,0,,0,,,72,127
32683,note_off,191,0,0,,0,,,72,127
32683,note_off,0,0,0,,6,,,78,127
32683,note_off,0,0,0,,2,,,38,127
32684,note_on,1,0,0,,7,,,43,127
32684,note_on,0,0,0,,7,,,79,127
32684,note_on,0,0,0,,12,,,71,127
32875,note_off,191,0,0,,12,,,71,127
32875,note_off,0,0,0,,7,,,79,127
32875,note_off,0,0,0,,7,,,43,127
32876,note_on,1,0,0,,10,,,45,127
32876,note_on,0,0,0,,6,,,78,127
32876,note_on,0,0,0,,10,,,69,127
33067,note_off,191,0,0,,10,,,69,127
33067,note_off,0,0,0,,6,,,78,127
33067,note_off,0,0,0,,10,,,45,127
33068,note_on,1,0,0,,12,,,47,127
33068,note_on,0,0,0,,7,,,67,127
33068,note_on,0,0,0,,7,,,79,127
33259,note_off,191,0,0,,7,,,79,127
33259,note_off,0,0,0,,7,,,67,127
33259,note_off,0,0,0,,12,,,47,127
33260,note_on,1,0,0,,0,,,48,127
33260,note_on,0,0,0,,4,,,76,127
33323,note_off,63,0,0,,4,,,76,127
33324,note_on,1,0,0,,0,,,72,127
33387,note_off,63,0,0,,0,,,72,127
33388,note_on,1,0,0,,10,,,69,127
33451,note_off,63,0,0,,10,,,69,127
33451,note_off,0,0,0,,0,,,48,127
33452,note_on,1,0,0,,2,,,50,127
33452,note_on,0,0,0,,7,,,67,127
33452,note_on,0,0,0,,12,,,71,127
33643,note_off,191,0,0,,12,,,71,127
33643,note_off,0,0,0,,7,,,67,127
33643,note_off,0,0,0,,2,,,50,127
33644,note_on,1,0,0,,2,,,38,127
33644,note_on,0,0,0,,6,,,66,127
33644,note_on,0,0,0,,10,,,69,127
33835,note_off,191,0,0,,10,,,69,127
33835,note_off,0,0,0,,6,,,66,127
33835,note_off,0,0,0,,2,,,38,127
33836,note_on,1,0,0,,7,,,43,127
33836,note_on,0,0,0,,10,,,69,127
33883,note_off,47,0,0,,10,,,69,127
33884,note_on,1,0,0,,7,,,67,127
33931,note_off,47,0,0,,7,,,67,127
33932,note_on,1,0,0,,10,,,69,127
33979,note_off,47,0,0,,10,,,69,127
33980,note_on,1,0,0,,7,,,67,127
34316,note_off,336,0,0,,7,,,43,127
34411,note_off,95,0,0,,7,,,67,127
34476,note_on,65,0,0,,7,,,55,127
34476,note_on,0,0,0,,4,,,76,127
34523,note_off,47,0,0,,4,,,76,127
34524,note_on,1,0,0,,2,,,74,127
34571,note_off,47,0,0,,2,,,74,127
34572,note_on,1,0,0,,4,,,76,127
34619,note_off,47,0,0,,4,,,76,127
34620,note_on,1,0,0,,2,,,74,127
34667,note_off,47,0,0,,2,,,74,127
34668,note_on,1,0,0,,7,,,67,127
34668,note_on,0,0,0,,4,,,76,127
34715,note_off,47,0,0,,4,,,76,127
34716,note_on,1,0,0,,2,,,74,127
34763,note_off,47,0,0,,2,,,74,127
34764,note_on,1,0,0,,4,,,76,127
34811,note_off,47,0,0,,4,,,76,127
34812,note_on,1,0,0,,2,,,74,127
34859,note_off,47,0,0,,2,,,74,127
34859,note_off,0,0,0,,7,,,67,127
34860,note_on,1,0,0,,5,,,65,127
34860,note_on,0,0,0,,4,,,76,127
34907,note_off,47,0,0,,4,,,76,127
34908,note_on,1,0,0,,2,,,74,127
34955,note_off,47,0,0,,2,,,74,127
34956,note_on,1,0,0,,4,,,76,127
35003,note_off,47,0,0,,4,,,76,127
35004,note_on,1,0,0,,2,,,74,127
35051,note_off,47,0,0,,2,,,74,127
35051,note_off,0,0,0,,7,,,55,127
35052,note_on,1,0,0,,8,,,56,127
35052,note_on,0,0,0,,4,,,76,127
35099,note_off,47,0,0,,4,,,76,127
35100,note_on,1,0,0,,2,,,74,127
35147,note_off,47,0,0,,2,,,74,127
35148,note_on,1,0,0,,4,,,76,127
35195,note_off,47,0,0,,4,,,76,127
35196,note_on,1,0,0,,2,,,74,127
35240,note_off,44,0,0,,5,,,65,127
35243,note_off,3,0,0,,2,,,74,127
35244,note_on,1,0,0,,4,,,64,127
35244,note_on,0,0,0,,4,,,76,127
35291,note_off,47,0,0,,4,,,76,127
35292,note_on,1,0,0,,2,,,74,127
35339,note_off,47,0,0,,2,,,74,127
35340,note_on,1,0,0,,4,,,76,127
35387,note_off,47,0,0,,4,,,76,127
35388,note_on,1,0,0,,2,,,74,127
35435,note_off,47,0,0,,2,,,74,127
35435,note_off,0,0,0,,4,,,64,127
35436,note_on,1,0,0,,2,,,62,127
35436,note_on,0,0,0,,4,,,76,127
35483,note_off,47,0,0,,4,,,76,127
35484,note_on,1,0,0,,2,,,74,127
35531,note_off,47,0,0,,2,,,74,127
35532,note_on,1,0,0,,4,,,76,127
35579,note_off,47,0,0,,4,,,76,127
35580,note_on,1,0,0,,2,,,74,127
35627,note_off,47,0,0,,2,,,74,127
35627,note_off,0,0,0,,2,,,62,127
35627,note_off,0,0,0,,8,,,56,127
35628,note_on,1,0,0,,10,,,57,127
35628,note_on,0,0,0,,5,,,77,127
35675,note_off,47,0,0,,5,,,77,127
35676,note_on,1,0,0,,4,,,76,127
35723,note_off,47,0,0,,4,,,76,127
35724,note_on,1,0,0,,5,,,77,127
35771,note_off,47,0,0,,5,,,77,127
35772,note_on,1,0,0,,4,,,76,127
35819,note_off,47,0,0,,4,,,76,127
35820,note_on,1,0,0,,10,,,69,127
35820,note_on,0,0,0,,5,,,77,127
35867,note_off,47,0,0,,5,,,77,127
35868,note_on,1,0,0,,4,,,76,127
35915,note_off,47,0,0,,4,,,76,127
35916,note_on,1,0,0,,5,,,77,127
35963,note_off,47,0,0,,5,,,77,127
35964,note_on,1,0,0,,4,,,76,127
36011,note_off,47,0,0,,4,,,76,127
36011,note_off,0,0,0,,10,,,69,127
36012,note_on,1,0,0,,7,,,67,127
36012,note_on,0,0,0,,5,,,77,127
36059,note_off,47,0,0,,5,,,77,127
36060,note_on,1,0,0,,4,,,76,127
36107,note_off,47,0,0,,4,,,76,127
36108,note_on,1,0,0,,5,,,77,127
36155,note_off,47,0,0,,5,,,77,127
36156,note_on,1,0,0,,4,,,76,127
36203,note_off,47,0,0,,4,,,76,127
36203,note_off,0,0,0,,10,,,57,127
36204,note_on,1,0,0,,11,,,58,127
36204,note_on,0,0,0,,6,,,78,127
36251,note_off,47,0,0,,6,,,78,127
36252,note_on,1,0,0,,4,,,76,127
36299,note_off,47,0,0,,4,,,76,127
36300,note_on,1,0,0,,6,,,78,127
36347,note_off,47,0,0,,6,,,78,127
36348,note_on,1,0,0,,4,,,76,127
36392,note_off,44,0,0,,7,,,67,127
36395,note_off,3,0,0,,4,,,76,127
36396,note_on,1,0,0,,6,,,66,127
36396,note_on,0,0,0,,6,,,78,127
36443,note_off,47,0,0,,6,,,78,127
36444,note_on,1,0,0,,4,,,76,127
36491,note_off,47,0,0,,4,,,76,127
36492,note_on,1,0,0,,6,,,78,127
36539,note_off,47,0,0,,6,,,78,127
36540,note_on,1,0,0,,4,,,76,127
36587,note_off,47,0,0,,4,,,76,127
36587,note_off,0,0,0,,6,,,66,127
36588,note_on,1,0,0,,4,,,64,127
36588,note_on,0,0,0,,6,,,78,127
36635,note_off,47,0,0,,6,,,78,127
36636,note_on,1,0,0,,4,,,76,127
36683,note_off,47,0,0,,4,,,76,127
36684,note_on,1,0,0,,6,,,78,127
36731,note_off,47,0,0,,6,,,78,127
36732,note_on,1,0,0,,4,,,76,127
36779,note_off,47,0,0,,4,,,76,127
36779,note_off,0,0,0,,4,,,64,127
36779,note_off,0,0,0,,11,,,58,127
36780,note_on,1,0,0,,12,,,59,127
36780,note_on,0,0,0,,7,,,79,127
36827,note_off,47,0,0,,7,,,79,127
36828,note_on,1,0,0,,6,,,78,127
36875,note_off,47,0,0,,6,,,78,127
36876,note_on,1,0,0,,7,,,79,127
36923,note_off,47,0,0,,7,,,79,127
36924,note_on,1,0,0,,6,,,78,127
36971,note_off,47,0,0,,6,,,78,127
36972,note_on,1,0,0,,12,,,71,127
36972,note_on,0,0,0,,7,,,79,127
37019,note_off,47,0,0,,7,,,79,127
37020,note_on,1,0,0,,6,,,78,127
37067,note_off,47,0,0,,6,,,78,127
37068,note_on,1,0,0,,7,,,79,127
37115,note_off,47,0,0,,7,,,79,127
37116,note_on,1,0,0,,6,,,78,127
37163,note_off,47,0,0,,6,,,78,127
37163,note_off,0,0,0,,12,,,71,127
37164,note_on,1,0,0,,10,,,69,127
37164,note_on,0,0,0,,7,,,79,127
37211,note_off,47,0,0,,7,,,79,127
37212,note_on,1,0,0,,6,,,78,127
37259,note_off,47,0,0,,6,,,78,127
37260,note_on,1,0,0,,7,,,79,127
37307,note_off,47,0,0,,7,,,79,127
37308,note_on,1,0,0,,6,,,78,127
37355,note_off,47,0,0,,6,,,78,127
37355,note_off,0,0,0,,12,,,59,127
37356,note_on,1,0,0,,12,,,59,127
37356,note_on,0,0,0,,7,,,79,127
37403,note_off,47,0,0,,7,,,79,127
37404,note_on,1,0,0,,6,,,78,127
37451,note_off,47,0,0,,6,,,78,127
37452,note_on,1,0,0,,7,,,79,127
37499,note_off,47,0,0,,7,,,79,127
37500,note_on,1,0,0,,6,,,78,127
37544,note_off,44,0,0,,10,,,69,127
37547,note_off,3,0,0,,6,,,78,127
37548,note_on,1,0,0,,7,,,67,127
37548,note_on,0,0,0,,7,,,79,127
37595,note_off,47,0,0,,7,,,79,127
37596,note_on,1,0,0,,6,,,78,127
37643,note_off,47,0,0,,6,,,78,127
37644,note_on,1,0,0,,7,,,79,127
37691,note_off,47,0,0,,7,,,79,127
37692,note_on,1,0,0,,6,,,78,127
37739,note_off,47,0,0,,6,,,78,127
37739,note_off,0,0,0,,7,,,67,127
37740,note_on,1,0,0,,6,,,66,127
37740,note_on,0,0,0,,7,,,79,127
37787,note_off,47,0,0,,7,,,79,127
37788,note_on,1,0,0,,6,,,78,127
37835,note_off,47,0,0,,6,,,78,127
37836,note_on,1,0,0,,7,,,79,127
37883,note_off,47,0,0,,7,,,79,127
37884,note_on,1,0,0,,6,,,78,127
37931,note_off,47,0,0,,6,,,78,127
37931,note_off,0,0,0,,6,,,66,127
37931,note_off,0,0,0,,12,,,59,127
37932,note_on,1,0,0,,0,,,60,127
37932,note_on,0,0,0,,10,,,69,127
37932,note_on,0,0,0,,7,,,79,127
37979,note_off,47,0,0,,7,,,79,127
37980,note_on,1,0,0,,6,,,78,127
38027,note_off,47,0,0,,6,,,78,127
38028,note_on,1,0,0,,7,,,79,127
38075,note_off,47,0,0,,7,,,79,127
38076,note_on,1,0,0,,6,,,78,127
38123,note_off,47,0,0,,6,,,78,127
38123,note_off,0,0,0,,10,,,69,127
38124,note_on,1,0,0,,7,,,67,127
38124,note_on,0,0,0,,7,,,79,127
38171,note_off,47,0,0,,7,,,79,127
38172,note_on,1,0,0,,6,,,78,127
38219,note_off,47,0,0,,6,,,78,127
38220,note_on,1,0,0,,7,,,79,127
38267,note_off,47,0,0,,7,,,79,127
38268,note_on,1,0,0,,6,,,78,127
38315,note_off,47,0,0,,6,,,78,127
38315,note_off,0,0,0,,7,,,67,127
38316,note_on,1,0,0,,6,,,66,127
38316,note_on,0,0,0,,7,,,79,127
38363,note_off,47,0,0,,7,,,79,127
38364,note_on,1,0,0,,6,,,78,127
38411,note_off,47,0,0,,6,,,78,127
38412,note_on,1,0,0,,7,,,79,127
38459,note_off,47,0,0,,7,,,79,127
38460,note_on,1,0,0,,6,,,78,127
38507,note_off,47,0,0,,6,,,78,127
38507,note_off,0,0,0,,6,,,66,127
38507,note_off,0,0,0,,0,,,60,127
38508,note_on,1,0,0,,12,,,59,127
38508,note_on,0,0,0,,10,,,69,127
38508,note_on,0,0,0,,7,,,79,127
38555,note_off,47,0,0,,7,,,79,127
38556,note_on,1,0,0,,6,,,78,127
38603,note_off,47,0,0,,6,,,78,127
38604,note_on,1,0,0,,7,,,79,127
38651,note_off,47,0,0,,7,,,79,127
38652,note_on,1,0,0,,6,,,78,127
38699,note_off,47,0,0,,6,,,78,127
38699,note_off,0,0,0,,10,,,69,127
38700,note_on,1,0,0,,7,,,67,127
38700,note_on,0,0,0,,7,,,79,127
38747,note_off,47,0,0,,7,,,79,127
38748,note_on,1,0,0,,6,,,78,127
38795,note_off,47,0,0,,6,,,78,127
38796,note_on,1,0,0,,7,,,79,127
38843,note_off,47,0,0,,7,,,79,127
38844,note_on,1,0,0,,6,,,78,127
38891,note_off,47,0,0,,6,,,78,127
38891,note_off,0,0,0,,7,,,67,127
38892,note_on,1,0,0,,6,,,66,127
38892,note_on,0,0,0,,7,,,79,127
38939,note_off,47,0,0,,7,,,79,127
38940,note_on,1,0,0,,6,,,78,127
38987,note_off,47,0,0,,6,,,78,127
38988,note_on,1,0,0,,7,,,79,127
39035,note_off,47,0,0,,7,,,79,127
39036,note_on,1,0,0,,6,,,78,127
39083,note_off,47,0,0,,6,,,66,127
39083,note_off,0,0,0,,12,,,59,127
39100,note_on,17,0,0,,10,,,69,127
39100,note_on,0,0,0,,0,,,60,127
39275,note_off,175,0,0,,6,,,78,127
39291,note_off,16,0,0,,10,,,69,127
39292,note_on,1,0,0,,7,,,79,127
39292,note_on,0,0,0,,12,,,71,127
39483,note_off,191,0,0,,12,,,71,127
39483,note_off,0,0,0,,7,,,79,127
39484,note_on,1,0,0,,10,,,81,127
39484,note_on,0,0,0,,0,,,72,127
39675,note_off,191,0,0,,0,,,60,127
39676,note_on,1,0,0,,2,,,62,127
39864,note_off,188,0,0,,0,,,72,127
39867,note_off,3,0,0,,10,,,81,127
39868,note_on,1,0,0,,7,,,79,127
39868,note_on,0,0,0,,12,,,71,127
40059,note_off,191,0,0,,12,,,71,127
40059,note_off,0,0,0,,7,,,79,127
40060,note_on,1,0,0,,6,,,78,127
40060,note_on,0,0,0,,10,,,69,127
40251,note_off,191,0,0,,10,,,69,127
40251,note_off,0,0,0,,6,,,78,127
40251,note_off,0,0,0,,2,,,62,127
40252,note_on,1,0,0,,10,,,81,127
40252,note_on,0,0,0,,12,,,71,127
40252,note_on,0,0,0,,7,,,67,127
40299,note_off,47,0,0,,10,,,81,127
40300,note_on,1,0,0,,7,,,79,127
40347,note_off,47,0,0,,7,,,79,127
40348,note_on,1,0,0,,10,,,81,127
40395,note_off,47,0,0,,10,,,81,127
40396,note_on,1,0,0,,7,,,79,127
40443,note_off,47,0,0,,7,,,79,127
40443,note_off,0,0,0,,7,,,67,127
40443,note_off,0,0,0,,12,,,71,127
40444,note_on,1,0,0,,6,,,78,127
40444,note_on,0,0,0,,10,,,69,127
40635,note_off,191,0,0,,10,,,69,127
40635,note_off,0,0,0,,6,,,78,127
40638,note_on,3,0,0,,7,,,67,127
40638,note_on,0,0,0,,7,,,79,127
40848,note_off,210,0,0,,7,,,79,127
40848,note_off,0,0,0,,7,,,67,127
40876,note_on,28,0,0,,2,,,86,127
41067,note_off,191,0,0,,2,,,86,127
41068,note_on,1,0,0,,12,,,83,127
41259,note_off,191,0,0,,12,,,83,127
41260,note_on,1,0,0,,7,,,79,127
41451,note_off,191,0,0,,7,,,79,127
41452,note_on,1,0,0,,4,,,76,127
41643,note_off,191,0,0,,4,,,76,127
41644,note_on,1,0,0,,1,,,73,127
41835,note_off,191,0,0,,1,,,73,127
41836,note_on,1,0,0,,12,,,71,127
41836,note_on,0,0,0,,7,,,79,127
42027,note_off,191,0,0,,12,,,71,127
42028,note_on,1,0,0,,6,,,42,127
42028,note_on,0,0,0,,6,,,54,127
42028,note_on,0,0,0,,11,,,70,127
42216,note_off,188,0,0,,7,,,79,127
42220,note_on,4,0,0,,6,,,78,127
42411,note_off,191,0,0,,6,,,78,127
42412,note_on,1,0,0,,4,,,76,127
42603,note_off,191,0,0,,4,,,76,127
42603,note_off,0,0,0,,11,,,70,127
42603,note_off,0,0,0,,6,,,54,127
42603,note_off,0,0,0,,6,,,42,127
42604,note_on,1,0,0,,12,,,47,127
42604,note_on,0,0,0,,12,,,35,127
42604,note_on,0,0,0,,12,,,71,127
42604,note_on,0,0,0,,4,,,76,127
42651,note_off,47,0,0,,4,,,76,127
42652,note_on,1,0,0,,2,,,74,127
42699,note_off,47,0,0,,2,,,74,127
42700,note_on,1,0,0,,4,,,76,127
42747,note_off,47,0,0,,4,,,76,127
42748,note_on,1,0,0,,2,,,74,127
42794,note_off,46,0,0,,12,,,71,127
42795,note_off,1,0,0,,2,,,74,127
42796,note_on,1,0,0,,1,,,73,127
42987,note_off,191,0,0,,1,,,73,127
42988,note_on,1,0,0,,2,,,74,127
43179,note_off,191,0,0,,12,,,35,127
43179,note_off,0,0,0,,12,,,47,127
43196,note_on,17,0,0,,2,,,86,127
43268,note_off,72,0,0,,2,,,74,127
43387,note_off,119,0,0,,2,,,86,127
43388,note_on,1,0,0,,12,,,83,127
43579,note_off,191,0,0,,12,,,83,127
43580,note_on,1,0,0,,5,,,77,127
43771,note_off,191,0,0,,5,,,77,127
43772,note_on,1,0,0,,2,,,74,127
43963,note_off,191,0,0,,2,,,74,127
43964,note_on,1,0,0,,12,,,71,127
44155,note_off,191,0,0,,12,,,71,127
44156,note_on,1,0,0,,10,,,69,127
44156,note_on,0,0,0,,5,,,77,127
44347,note_off,191,0,0,,10,,,69,127
44348,note_on,1,0,0,,8,,,68,127
44348,note_on,0,0,0,,4,,,52,127
44348,note_on,0,0,0,,4,,,40,127
44536,note_off,188,0,0,,5,,,77,127
44540,note_on,4,0,0,,4,,,76,127
44731,note_off,191,0,0,,4,,,76,127
44732,note_on,1,0,0,,2,,,74,127
44923,note_off,191,0,0,,2,,,74,127
44923,note_off,0,0,0,,4,,,40,127
44923,note_off,0,0,0,,4,,,52,127
44923,note_off,0,0,0,,8,,,68,127
44924,note_on,1,0,0,,2,,,74,127
44924,note_on,0,0,0,,10,,,69,127
44924,note_on,0,0,0,,10,,,33,127
44924,note_on,0,0,0,,10,,,45,127
44971,note_off,47,0,0,,2,,,74,127
44972,note_on,1,0,0,,0,,,72,127
45019,note_off,47,0,0,,0,,,72,127
45020,note_on,1,0,0,,2,,,74,127
45067,note_off,47,0,0,,2,,,74,127
45068,note_on,1,0,0,,0,,,72,127
45114,note_off,46,0,0,,10,,,69,127
45115,note_off,1,0,0,,0,,,72,127
45116,note_on,1,0,0,,12,,,71,127
45307,note_off,191,0,0,,12,,,71,127
45308,note_on,1,0,0,,0,,,72,127
45499,note_off,191,0,0,,10,,,45,127
45499,note_off,0,0,0,,10,,,33,127
45516,note_on,17,0,0,,0,,,84,127
45588,note_off,72,0,0,,0,,,72,127
45707,note_off,119,0,0,,0,,,84,127
45708,note_on,1,0,0,,10,,,81,127
45899,note_off,191,0,0,,10,,,81,127
45900,note_on,1,0,0,,6,,,78,127
46091,note_off,191,0,0,,6,,,78,127
46092,note_on,1,0,0,,0,,,72,127
46283,note_off,191,0,0,,0,,,72,127
46284,note_on,1,0,0,,10,,,69,127
46475,note_off,191,0,0,,10,,,69,127
46476,note_on,1,0,0,,7,,,67,127
46476,note_on,0,0,0,,4,,,76,127
46667,note_off,191,0,0,,7,,,67,127
46668,note_on,1,0,0,,2,,,38,127
46668,note_on,0,0,0,,2,,,50,127
46668,note_on,0,0,0,,6,,,66,127
46856,note_off,188,0,0,,4,,,76,127
46860,note_on,4,0,0,,2,,,74,127
47051,note_off,191,0,0,,2,,,74,127
47052,note_on,1,0,0,,0,,,72,127
47243,note_off,191,0,0,,0,,,72,127
47243,note_off,0,0,0,,6,,,66,127
47243,note_off,0,0,0,,2,,,50,127
47243,note_off,0,0,0,,2,,,38,127
47260,note_on,17,0,0,,7,,,67,127
47260,note_on,0,0,0,,7,,,43,127
47355,note_off,95,0,0,,7,,,67,127
47356,note_on,1,0,0,,12,,,71,127
47451,note_off,95,0,0,,12,,,71,127
47452,note_on,1,0,0,,2,,,74,127
47547,note_off,95,0,0,,2,,,74,127
47548,note_on,1,0,0,,5,,,77,127
47643,note_off,95,0,0,,5,,,77,127
47644,note_on,1,0,0,,12,,,83,127
47739,note_off,95,0,0,,12,,,83,127
47740,note_on,1,0,0,,2,,,86,127
47835,note_off,95,0,0,,2,,,86,127
47835,note_off,0,0,0,,7,,,43,127
47836,note_on,1,0,0,,5,,,89,127
47836,note_on,0,0,0,,7,,,43,127
47931,note_off,95,0,0,,5,,,89,127
47932,note_on,1,0,0,,2,,,86,127
48027,note_off,95,0,0,,2,,,86,127
48028,note_on,1,0,0,,12,,,83,127
48123,note_off,95,0,0,,12,,,83,127
48124,note_on,1,0,0,,5,,,77,127
48219,note_off,95,0,0,,5,,,77,127
48220,note_on,1,0,0,,2,,,74,127
48315,note_off,95,0,0,,2,,,74,127
48316,note_on,1,0,0,,12,,,71,127
48411,note_off,95,0,0,,12,,,71,127
48411,note_off,0,0,0,,7,,,43,127
48412,note_on,1,0,0,,7,,,67,127
48412,note_on,0,0,0,,7,,,43,127
48507,note_off,95,0,0,,7,,,67,127
48508,note_on,1,0,0,,12,,,71,127
48603,note_off,95,0,0,,12,,,71,127
48604,note_on,1,0,0,,2,,,74,127
48699,note_off,95,0,0,,2,,,74,127
48700,note_on,1,0,0,,5,,,77,127
48795,note_off,95,0,0,,5,,,77,127
48796,note_on,1,0,0,,12,,,83,127
48891,note_off,95,0,0,,12,,,83,127
48892,note_on,1,0,0,,2,,,86,127
48987,note_off,95,0,0,,2,,,86,127
48987,note_off,0,0,0,,7,,,43,127
48988,note_on,1,0,0,,5,,,89,127
48988,note_on,0,0,0,,7,,,43,127
49083,note_off,95,0,0,,5,,,89,127
49084,note_on,1,0,0,,2,,,86,127
49179,note_off,95,0,0,,2,,,86,127
49180,note_on,1,0,0,,12,,,83,127
49275,note_off,95,0,0,,12,,,83,127
49276,note_on,1,0,0,,5,,,77,127
49371,note_off,95,0,0,,5,,,77,127
49372,note_on,1,0,0,,2,,,74,127
49467,note_off,95,0,0,,2,,,74,127
49468,note_on,1,0,0,,12,,,71,127
49563,note_off,95,0,0,,12,,,71,127
49563,note_off,0,0,0,,7,,,43,127
49564,note_on,1,0,0,,7,,,67,127
49564,note_on,0,0,0,,7,,,43,127
49659,note_off,95,0,0,,7,,,43,127
49660,note_on,1,0,0,,12,,,47,127
49755,note_off,95,0,0,,12,,,47,127
49756,note_on,1,0,0,,2,,,50,127
49851,note_off,95,0,0,,2,,,50,127
49852,note_on,1,0,0,,5,,,53,127
49947,note_off,95,0,0,,5,,,53,127
49948,note_on,1,0,0,,12,,,59,127
50043,note_off,95,0,0,,12,,,59,127
50044,note_on,1,0,0,,2,,,62,127
50139,note_off,95,0,0,,2,,,62,127
50139,note_off,0,0,0,,7,,,67,127
50140,note_on,1,0,0,,5,,,65,127
50235,note_off,95,0,0,,5,,,65,127
50236,note_on,1,0,0,,2,,,62,127
50331,note_off,95,0,0,,2,,,62,127
50332,note_on,1,0,0,,12,,,59,127
50427,note_off,95,0,0,,12,,,59,127
50428,note_on,1,0,0,,5,,,53,127
50523,note_off,95,0,0,,5,,,53,127
50524,note_on,1,0,0,,2,,,50,127
50619,note_off,95,0,0,,2,,,50,127
50620,note_on,1,0,0,,12,,,47,127
50715,note_off,95,0,0,,12,,,47,127
50716,note_on,1,0,0,,7,,,43,127
50811,note_off,95,0,0,,7,,,43,127
50812,note_on,1,0,0,,12,,,47,127
50907,note_off,95,0,0,,12,,,47,127
50908,note_on,1,0,0,,2,,,50,127
51003,note_off,95,0,0,,2,,,50,127
51004,note_on,1,0,0,,5,,,53,127
51099,note_off,95,0,0,,5,,,53,127
51100,note_on,1,0,0,,12,,,59,127
51195,note_off,95,0,0,,12,,,59,127
51196,note_on,1,0,0,,2,,,62,127
51291,note_off,95,0,0,,2,,,62,127
51292,note_on,1,0,0,,5,,,65,127
51387,note_off,95,0,0,,5,,,65,127
51388,note_on,1,0,0,,2,,,62,127
51483,note_off,95,0,0,,2,,,62,127
51484,note_on,1,0,0,,12,,,59,127
51579,note_off,95,0,0,,12,,,59,127
51580,note_on,1,0,0,,5,,,53,127
51675,note_off,95,0,0,,5,,,53,127
51676,note_on,1,0,0,,2,,,50,127
51771,note_off,95,0,0,,2,,,50,127
51772,note_on,1,0,0,,12,,,47,127
51867,note_off,95,0,0,,12,,,47,127
51870,note_on,3,0,0,,7,,,43,127
51965,note_off,95,0,0,,7,,,43,127
51968,note_on,3,0,0,,12,,,47,127
52063,note_off,95,0,0,,12,,,47,127
52065,note_on,2,0,0,,2,,,50,127
52160,note_off,95,0,0,,2,,,50,127
52161,note_on,1,0,0,,5,,,53,127
52251,note_off,90,0,0,,5,,,53,127
52268,note_on,17,0,0,,4,,,40,127
52363,note_off,95,0,0,,4,,,40,127
52364,note_on,1,0,0,,0,,,48,127
52459,note_off,95,0,0,,0,,,48,127
52460,note_on,1,0,0,,5,,,41,127
52555,note_off,95,0,0,,5,,,41,127
52556,note_on,1,0,0,,2,,,50,127
52651,note_off,95,0,0,,2,,,50,127
52652,note_on,1,0,0,,2,,,38,127
52747,note_off,95,0,0,,2,,,38,127
52748,note_on,1,0,0,,12,,,47,127
52843,note_off,95,0,0,,12,,,47,127
52844,note_on,1,0,0,,4,,,40,127
52939,note_off,95,0,0,,4,,,40,127
52940,note_on,1,0,0,,0,,,48,127
53035,note_off,95,0,0,,0,,,48,127
53036,note_on,1,0,0,,0,,,36,127
53131,note_off,95,0,0,,0,,,36,127
53132,note_on,1,0,0,,10,,,45,127
53227,note_off,95,0,0,,10,,,45,127
53228,note_on,1,0,0,,12,,,35,127
53323,note_off,95,0,0,,12,,,35,127
53324,note_on,1,0,0,,7,,,43,127
53419,note_off,95,0,0,,7,,,43,127
53420,note_on,1,0,0,,10,,,33,127
53514,note_on,94,0,0,,6,,,42,127
53515,note_off,1,0,0,,10,,,33,127
53604,note_off,89,0,0,,6,,,42,127
53628,note_on,24,0,0,,2,,,62,127
53628,note_on,0,0,0,,7,,,31,127
53819,note_off,191,0,0,,2,,,62,127
53820,note_on,1,0,0,,2,,,74,127
53820,note_on,0,0,0,,12,,,71,127
54011,note_off,191,0,0,,12,,,71,127
54011,note_off,0,0,0,,2,,,74,127
54012,note_on,1,0,0,,10,,,69,127
54012,note_on,0,0,0,,0,,,72,127
54203,note_off,191,0,0,,0,,,72,127
54203,note_off,0,0,0,,10,,,69,127
54203,note_off,0,0,0,,7,,,31,127
54204,note_on,1,0,0,,4,,,64,127
54204,note_on,0,0,0,,7,,,31,127
54395,note_off,191,0,0,,4,,,64,127
54396,note_on,1,0,0,,4,,,76,127
54396,note_on,0,0,0,,0,,,72,127
54587,note_off,191,0,0,,0,,,72,127
54587,note_off,0,0,0,,4,,,76,127
54588,note_on,1,0,0,,12,,,71,127
54588,note_on,0,0,0,,2,,,74,127
54779,note_off,191,0,0,,2,,,74,127
54779,note_off,0,0,0,,12,,,71,127
54779,note_off,0,0,0,,7,,,31,127
54780,note_on,1,0,0,,5,,,65,127
54780,note_on,0,0,0,,7,,,31,127
54971,note_off,191,0,0,,5,,,65,127
54972,note_on,1,0,0,,2,,,74,127
54972,note_on,0,0,0,,5,,,77,127
55163,note_off,191,0,0,,5,,,77,127
55163,note_off,0,0,0,,2,,,74,127
55164,note_on,1,0,0,,0,,,72,127
55164,note_on,0,0,0,,4,,,76,127
55355,note_off,191,0,0,,4,,,76,127
55355,note_off,0,0,0,,0,,,72,127
55355,note_off,0,0,0,,7,,,31,127
55356,note_on,1,0,0,,7,,,67,127
55356,note_on,0,0,0,,7,,,31,127
55547,note_off,191,0,0,,7,,,67,127
55548,note_on,1,0,0,,7,,,79,127
55548,note_on,0,0,0,,4,,,76,127
55739,note_off,191,0,0,,4,,,76,127
55739,note_off,0,0,0,,7,,,79,127
55740,note_on,1,0,0,,5,,,77,127
55740,note_on,0,0,0,,2,,,74,127
55931,note_off,191,0,0,,2,,,74,127
55931,note_off,0,0,0,,5,,,77,127
55931,note_off,0,0,0,,7,,,31,127
55932,note_on,1,0,0,,12,,,71,127
55932,note_on,0,0,0,,7,,,31,127
56123,note_off,191,0,0,,12,,,71,127
56124,note_on,1,0,0,,10,,,81,127
56124,note_on,0,0,0,,5,,,77,127
56315,note_off,191,0,0,,5,,,77,127
56315,note_off,0,0,0,,10,,,81,127
56316,note_on,1,0,0,,4,,,76,127
56316,note_on,0,0,0,,7,,,79,127
56412,note_off,96,0,0,,7,,,31,127
56508,note_on,96,0,0,,0,,,36,127
56699,note_off,191,0,0,,0,,,36,127
56699,note_off,0,0,0,,7,,,79,127
56699,note_off,0,0,0,,4,,,76,127
56700,note_on,1,0,0,,5,,,77,127
56700,note_on,0,0,0,,2,,,74,127
56700,note_on,0,0,0,,2,,,38,127
56891,note_off,191,0,0,,2,,,38,127
56891,note_off,0,0,0,,2,,,74,127
56891,note_off,0,0,0,,5,,,77,127
56892,note_on,1,0,0,,4,,,76,127
56892,note_on,0,0,0,,0,,,72,127
56892,note_on,0,0,0,,4,,,40,127
57083,note_off,191,0,0,,4,,,40,127
57083,note_off,0,0,0,,0,,,72,127
57083,note_off,0,0,0,,4,,,76,127
57084,note_on,1,0,0,,2,,,74,127
57084,note_on,0,0,0,,5,,,41,127
57275,note_off,191,0,0,,5,,,41,127
57275,note_off,0,0,0,,2,,,74,127
57276,note_on,1,0,0,,0,,,72,127
57276,note_on,0,0,0,,7,,,43,127
57467,note_off,191,0,0,,7,,,43,127
57467,note_off,0,0,0,,0,,,72,127
57468,note_on,1,0,0,,0,,,72,127
57468,note_on,0,0,0,,7,,,31,127
57515,note_off,47,0,0,,0,,,72,127
57516,note_on,1,0,0,,12,,,71,127
57563,note_off,47,0,0,,12,,,71,127
57564,note_on,1,0,0,,10,,,69,127
57611,note_off,47,0,0,,10,,,69,127
57612,note_on,1,0,0,,12,,,71,127
57659,note_off,47,0,0,,12,,,71,127
57659,note_off,0,0,0,,7,,,31,127
57660,note_on,1,0,0,,0,,,72,127
57660,note_on,0,0,0,,0,,,36,127
58160,note_off,500,0,0,,0,,,36,127
58235,note_off,75,0,0,,0,,,72,127
58252,note_on,17,0,0,,7,,,31,127
58252,note_on,0,0,0,,2,,,62,127
58443,note_off,191,0,0,,2,,,62,127
58444,note_on,1,0,0,,2,,,74,127
58444,note_on,0,0,0,,12,,,71,127
58635,note_off,191,0,0,,12,,,71,127
58635,note_off,0,0,0,,2,,,74,127
58636,note_on,1,0,0,,10,,,69,127
58636,note_on,0,0,0,,0,,,72,127
58827,note_off,191,0,0,,0,,,72,127
58827,note_off,0,0,0,,10,,,69,127
58827,note_off,0,0,0,,7,,,31,127
58836,note_on,9,0,0,,7,,,31,127
58836,note_on,0,0,0,,4,,,64,127
59027,note_off,191,0,0,,4,,,64,127
59028,note_on,1,0,0,,4,,,76,127
59028,note_on,0,0,0,,0,,,72,127
59219,note_off,191,0,0,,0,,,72,127
59219,note_off,0,0,0,,4,,,76,127
59220,note_on,1,0,0,,2,,,74,127
59220,note_on,0,0,0,,12,,,71,127
59411,note_off,191,0,0,,12,,,71,127
59411,note_off,0,0,0,,2,,,74,127
59411,note_off,0,0,0,,7,,,31,127
59420,note_on,9,0,0,,7,,,31,127
59420,note_on,0,0,0,,5,,,65,127
59611,note_off,191,0,0,,5,,,65,127
59612,note_on,1,0,0,,5,,,77,127
59612,note_on,0,0,0,,2,,,74,127
59803,note_off,191,0,0,,2,,,74,127
59803,note_off,0,0,0,,5,,,77,127
59804,note_on,1,0,0,,0,,,72,127
59804,note_on,0,0,0,,4,,,76,127
59995,note_off,191,0,0,,4,,,76,127
59995,note_off,0,0,0,,0,,,72,127
59995,note_off,0,0,0,,7,,,31,127
60004,note_on,9,0,0,,7,,,31,127
60004,note_on,0,0,0,,7,,,67,127
60195,note_off,191,0,0,,7,,,67,127
60196,note_on,1,0,0,,7,,,79,127
60196,note_on,0,0,0,,4,,,76,127
60387,note_off,191,0,0,,4,,,76,127
60387,note_off,0,0,0,,7,,,79,127
60388,note_on,1,0,0,,5,,,77,127
60388,note_on,0,0,0,,2,,,74,127
60579,note_off,191,0,0,,2,,,74,127
60579,note_off,0,0,0,,5,,,77,127
60579,note_off,0,0,0,,7,,,31,127
60596,note_on,17,0,0,,12,,,71,127
60596,note_on,0,0,0,,7,,,31,127
60787,note_off,191,0,0,,12,,,71,127
60788,note_on,1,0,0,,10,,,81,127
60788,note_on,0,0,0,,5,,,77,127
60979,note_off,191,0,0,,5,,,77,127
60979,note_off,0,0,0,,10,,,81,127
60980,note_on,1,0,0,,4,,,76,127
60980,note_on,0,0,0,,7,,,79,127
61076,note_off,96,0,0,,7,,,31,127
61172,note_on,96,0,0,,0,,,36,127
61363,note_off,191,0,0,,0,,,36,127
61363,note_off,0,0,0,,7,,,79,127
61363,note_off,0,0,0,,4,,,76,127
61364,note_on,1,0,0,,5,,,77,127
61364,note_on,0,0,0,,2,,,74,127
61364,note_on,0,0,0,,2,,,38,127
61555,note_off,191,0,0,,2,,,38,127
61555,note_off,0,0,0,,2,,,74,127
61555,note_off,0,0,0,,5,,,77,127
61556,note_on,1,0,0,,4,,,76,127
61556,note_on,0,0,0,,0,,,72,127
61556,note_on,0,0,0,,4,,,40,127
61747,note_off,191,0,0,,4,,,40,127
61747,note_off,0,0,0,,0,,,72,127
61747,note_off,0,0,0,,4,,,76,127
61748,note_on,1,0,0,,2,,,74,127
61748,note_on,0,0,0,,5,,,41,127
61939,note_off,191,0,0,,5,,,41,127
61939,note_off,0,0,0,,2,,,74,127
61940,note_on,1,0,0,,0,,,72,127
61940,note_on,0,0,0,,7,,,43,127
62131,note_off,191,0,0,,7,,,43,127
62131,note_off,0,0,0,,0,,,72,127
62132,note_on,1,0,0,,0,,,72,127
62132,note_on,0,0,0,,7,,,31,127
62179,note_off,47,0,0,,0,,,72,127
62180,note_on,1,0,0,,12,,,71,127
62227,note_off,47,0,0,,12,,,71,127
62228,note_on,1,0,0,,10,,,69,127
62275,note_off,47,0,0,,10,,,69,127
62278,note_on,3,0,0,,12,,,71,127
62323,note_off,45,0,0,,7,,,31,127
62340,note_on,17,0,0,,0,,,36,127
62366,note_off,26,0,0,,12,,,71,127
62531,note_off,165,0,0,,0,,,36,127
62532,note_on,1,0,0,,2,,,38,127
62532,note_on,0,0,0,,0,,,72,127
62579,note_off,47,0,0,,0,,,72,127
62580,note_on,1,0,0,,2,,,74,127
62627,note_off,47,0,0,,2,,,74,127
62628,note_on,1,0,0,,4,,,76,127
62675,note_off,47,0,0,,4,,,76,127
62676,note_on,1,0,0,,5,,,77,127
62723,note_off,47,0,0,,5,,,77,127
62723,note_off,0,0,0,,2,,,38,127
62724,note_on,1,0,0,,4,,,40,127
62724,note_on,0,0,0,,7,,,79,127
62915,note_off,191,0,0,,7,,,79,127
62915,note_off,0,0,0,,4,,,40,127
62916,note_on,1,0,0,,5,,,41,127
62916,note_on,0,0,0,,10,,,81,127
63107,note_off,191,0,0,,5,,,41,127
63108,note_on,1,0,0,,7,,,43,127
63299,note_off,191,0,0,,7,,,43,127
63299,note_off,0,0,0,,10,,,81,127
63300,note_on,1,0,0,,7,,,31,127
63300,note_on,0,0,0,,7,,,79,127
63490,note_off,190,0,0,,7,,,79,127
63491,note_off,1,0,0,,7,,,31,127
63508,note_on,17,0,0,,0,,,36,127
63699,note_off,191,0,0,,0,,,36,127
63700,note_on,1,0,0,,0,,,72,127
63700,note_on,0,0,0,,2,,,38,127
63747,note_off,47,0,0,,0,,,72,127
63748,note_on,1,0,0,,2,,,74,127
63795,note_off,47,0,0,,2,,,74,127
63796,note_on,1,0,0,,4,,,76,127
63843,note_off,47,0,0,,4,,,76,127
63844,note_on,1,0,0,,5,,,77,127
63891,note_off,47,0,0,,5,,,77,127
63891,note_off,0,0,0,,2,,,38,127
63892,note_on,1,0,0,,7,,,79,127
63892,note_on,0,0,0,,4,,,40,127
64083,note_off,191,0,0,,4,,,40,127
64083,note_off,0,0,0,,7,,,79,127
64084,note_on,1,0,0,,10,,,81,127
64084,note_on,0,0,0,,5,,,41,127
64275,note_off,191,0,0,,5,,,41,127
64276,note_on,1,0,0,,7,,,43,127
64467,note_off,191,0,0,,7,,,43,127
64467,note_off,0,0,0,,10,,,81,127
64468,note_on,1,0,0,,7,,,79,127
64468,note_on,0,0,0,,7,,,31,127
64658,note_off,190,0,0,,7,,,79,127
64659,note_off,1,0,0,,7,,,31,127
64676,note_on,17,0,0,,0,,,36,127
64867,note_off,191,0,0,,0,,,36,127
64868,note_on,1,0,0,,2,,,38,127
64868,note_on,0,0,0,,0,,,72,127
64915,note_off,47,0,0,,0,,,72,127
64916,note_on,1,0,0,,2,,,74,127
64963,note_off,47,0,0,,2,,,74,127
64964,note_on,1,0,0,,4,,,76,127
65011,note_off,47,0,0,,4,,,76,127
65012,note_on,1,0,0,,5,,,77,127
65059,note_off,47,0,0,,5,,,77,127
65059,note_off,0,0,0,,2,,,38,127
65060,note_on,1,0,0,,4,,,40,127
65060,note_on,0,0,0,,7,,,79,127
65251,note_off,191,0,0,,7,,,79,127
65251,note_off,0,0,0,,4,,,40,127
65252,note_on,1,0,0,,5,,,41,127
65252,note_on,0,0,0,,10,,,81,127
65443,note_off,191,0,0,,10,,,81,127
65443,note_off,0,0,0,,5,,,41,127
65450,note_on,7,0,0,,7,,,43,127
65450,note_on,0,0,0,,7,,,79,127
65641,note_off,191,0,0,,7,,,79,127
65641,note_off,0,0,0,,7,,,43,127
65658,note_on,17,0,0,,7,,,31,127
65658,note_on,0,0,0,,12,,,83,127
65658,note_on,0,0,0,,5,,,77,127
65849,note_off,191,0,0,,5,,,77,127
65849,note_off,0,0,0,,12,,,83,127
65849,note_off,0,0,0,,7,,,31,127
65863,note_on,14,0,0,,4,,,76,127
65863,note_on,0,0,0,,0,,,84,127
65863,note_on,0,0,0,,0,,,36,127
66057,note_off,194,0,0,,0,,,36,127
66057,note_off,0,0,0,,0,,,84,127
66057,note_off,0,0,0,,4,,,76,127
66059,note_on,2,0,0,,2,,,74,127
66059,note_on,0,0,0,,12,,,83,127
66059,note_on,0,0,0,,2,,,38,127
66253,note_off,194,0,0,,2,,,38,127
66253,note_off,0,0,0,,12,,,83,127
66253,note_off,0,0,0,,2,,,74,127
66255,note_on,2,0,0,,0,,,84,127
66255,note_on,0,0,0,,4,,,76,127
66255,note_on,0,0,0,,4,,,40,127
66449,note_off,194,0,0,,4,,,40,127
66449,note_off,0,0,0,,4,,,76,127
66449,note_off,0,0,0,,0,,,84,127
66467,note_on,18,0,0,,5,,,41,127
66467,note_on,0,0,0,,10,,,69,127
66531,note_off,64,0,0,,10,,,69,127
66532,note_on,1,0,0,,5,,,65,127
66596,note_off,64,0,0,,5,,,65,127
66597,note_on,1,0,0,,2,,,62,127
66661,note_off,64,0,0,,2,,,62,127
66661,note_off,0,0,0,,5,,,41,127
66663,note_on,2,0,0,,7,,,43,127
66663,note_on,0,0,0,,4,,,64,127
66663,note_on,0,0,0,,0,,,60,127
66873,note_off,210,0,0,,0,,,60,127
66873,note_off,0,0,0,,4,,,64,127
66873,note_off,0,0,0,,7,,,43,127
66897,note_on,24,0,0,,2,,,62,127
66897,note_on,0,0,0,,12,,,59,127
66897,note_on,0,0,0,,7,,,31,127
67117,note_off,220,0,0,,7,,,31,127
67117,note_off,0,0,0,,12,,,59,127
67117,note_off,0,0,0,,2,,,62,127
67156,note_on,39,0,0,,0,,,36,127
67156,note_on,0,0,0,,2,,,62,127
67210,note_off,54,0,0,,2,,,62,127
67215,note_on,5,0,0,,0,,,60,127
67269,note_off,54,0,0,,0,,,60,127
67275,note_on,6,0,0,,2,,,62,127
67329,note_off,54,0,0,,2,,,62,127
67334,note_on,5,0,0,,0,,,60,127
69408,note_off,2074,0,0,,0,,,60,127
69408,note_off,0,0,0,,0,,,36,127
73728,end_of_track,4320,1,0,,,,,,
