tick,type,time,meta,track,program,channel,pitch,tempo,note,velocity
0,copyright,0,1,0,,,,,,
0,program_change,0,0,0,6,0,,,,
0,pitchwheel,0,0,0,,0,0,,,
0,program_change,0,0,0,6,1,,,,
0,pitchwheel,0,0,0,,1,-590,,,
0,program_change,0,0,0,6,2,,,,
0,pitchwheel,0,0,0,,2,-272,,,
0,program_change,0,0,0,6,3,,,,
0,pitchwheel,0,0,0,,3,-353,,,
0,program_change,0,0,0,6,4,,,,
0,pitchwheel,0,0,0,,4,-560,,,
0,program_change,0,0,0,6,5,,,,
0,pitchwheel,0,0,0,,5,-80,,,
0,program_change,0,0,0,6,6,,,,
0,pitchwheel,0,0,0,,6,-625,,,
0,program_change,0,0,0,6,7,,,,
0,pitchwheel,0,0,0,,7,-130,,,
0,program_change,0,0,0,6,8,,,,
0,pitchwheel,0,0,0,,8,-512,,,
0,program_change,0,0,0,6,10,,,,
0,pitchwheel,0,0,0,,10,-464,,,
0,program_change,0,0,0,6,11,,,,
0,pitchwheel,0,0,0,,11,-208,,,
0,program_change,0,0,0,6,12,,,,
0,pitchwheel,0,0,0,,12,-553,,,
0,set_tempo,0,1,0,,,,500000,,
226,note_on,226,0,0,,5,,,53,127
452,note_on,226,0,0,,8,,,80,127
677,note_off,225,0,0,,8,,,80,127
678,note_on,1,0,0,,0,,,84,127
903,note_off,225,0,0,,0,,,84,127
904,note_on,1,0,0,,8,,,80,127
1129,note_off,225,0,0,,8,,,80,127
1129,note_off,0,0,0,,5,,,53,127
1130,note_on,1,0,0,,5,,,53,127
1130,note_on,0,0,0,,5,,,77,127
1355,note_off,225,0,0,,5,,,77,127
1356,note_on,1,0,0,,0,,,72,127
1581,note_off,225,0,0,,0,,,72,127
1582,note_on,1,0,0,,1,,,73,127
1807,note_off,225,0,0,,1,,,73,127
1808,note_on,1,0,0,,8,,,68,127
2033,note_off,225,0,0,,8,,,68,127
2033,note_off,0,0,0,,5,,,53,127
2034,note_on,1,0,0,,7,,,55,127
2034,note_on,0,0,0,,11,,,58,127
2034,note_on,0,0,0,,5,,,65,127
2034,note_on,0,0,0,,11,,,70,127
2259,note_off,225,0,0,,11,,,70,127
2260,note_on,1,0,0,,7,,,79,127
2485,note_off,225,0,0,,7,,,79,127
2486,note_on,1,0,0,,11,,,82,127
2711,note_off,225,0,0,,11,,,82,127
2712,note_on,1,0,0,,7,,,79,127
2937,note_off,225,0,0,,7,,,79,127
2937,note_off,0,0,0,,5,,,65,127
2937,note_off,0,0,0,,11,,,58,127
2937,note_off,0,0,0,,7,,,55,127
2938,note_on,1,0,0,,4,,,64,127
2938,note_on,0,0,0,,11,,,58,127
2938,note_on,0,0,0,,7,,,55,127
2938,note_on,0,0,0,,4,,,76,127
3163,note_off,225,0,0,,4,,,76,127
3164,note_on,1,0,0,,0,,,72,127
3389,note_off,225,0,0,,0,,,72,127
3390,note_on,1,0,0,,1,,,73,127
3615,note_off,225,0,0,,1,,,73,127
3616,note_on,1,0,0,,11,,,70,127
3841,note_off,225,0,0,,11,,,70,127
3841,note_off,0,0,0,,7,,,55,127
3841,note_off,0,0,0,,11,,,58,127
3841,note_off,0,0,0,,4,,,64,127
3842,note_on,1,0,0,,8,,,56,127
3842,note_on,0,0,0,,5,,,65,127
3842,note_on,0,0,0,,0,,,60,127
3842,note_on,0,0,0,,0,,,72,127
4067,note_off,225,0,0,,0,,,72,127
4068,note_on,1,0,0,,5,,,77,127
4293,note_off,225,0,0,,5,,,77,127
4294,note_on,1,0,0,,8,,,80,127
4519,note_off,225,0,0,,8,,,80,127
4520,note_on,1,0,0,,5,,,77,127
4745,note_off,225,0,0,,5,,,77,127
4745,note_off,0,0,0,,0,,,60,127
4745,note_off,0,0,0,,5,,,65,127
4745,note_off,0,0,0,,8,,,56,127
4746,note_on,1,0,0,,0,,,60,127
4746,note_on,0,0,0,,8,,,56,127
4746,note_on,0,0,0,,0,,,72,127
4971,note_off,225,0,0,,0,,,72,127
4972,note_on,1,0,0,,8,,,68,127
5197,note_off,225,0,0,,8,,,68,127
5198,note_on,1,0,0,,5,,,65,127
5423,note_off,225,0,0,,5,,,65,127
5423,note_off,0,0,0,,0,,,60,127
5424,note_on,1,0,0,,0,,,60,127
5649,note_off,225,0,0,,0,,,60,127
5649,note_off,0,0,0,,8,,,56,127
5650,note_on,1,0,0,,1,,,61,127
5650,note_on,0,0,0,,11,,,58,127
5650,note_on,0,0,0,,1,,,73,127
5876,note_on,226,0,0,,4,,,64,127
6101,note_off,225,0,0,,4,,,64,127
6101,note_off,0,0,0,,11,,,58,127
6101,note_off,0,0,0,,1,,,61,127
6102,note_on,1,0,0,,8,,,56,127
6102,note_on,0,0,0,,0,,,60,127
6102,note_on,0,0,0,,5,,,65,127
6327,note_off,225,0,0,,1,,,73,127
6328,note_on,1,0,0,,0,,,72,127
6553,note_off,225,0,0,,5,,,65,127
6553,note_off,0,0,0,,0,,,60,127
6553,note_off,0,0,0,,8,,,56,127
6554,note_on,1,0,0,,7,,,55,127
6554,note_on,0,0,0,,11,,,58,127
6554,note_on,0,0,0,,7,,,67,127
6779,note_off,225,0,0,,0,,,72,127
6780,note_on,1,0,0,,11,,,70,127
7005,note_off,225,0,0,,11,,,70,127
7005,note_off,0,0,0,,7,,,67,127
7005,note_off,0,0,0,,11,,,58,127
7005,note_off,0,0,0,,7,,,55,127
7006,note_on,1,0,0,,0,,,60,127
7006,note_on,0,0,0,,0,,,48,127
7006,note_on,0,0,0,,5,,,65,127
7006,note_on,0,0,0,,8,,,68,127
7231,note_off,225,0,0,,8,,,68,127
7231,note_off,0,0,0,,5,,,65,127
7232,note_on,1,0,0,,7,,,67,127
7232,note_on,0,0,0,,4,,,64,127
7457,note_off,225,0,0,,4,,,64,127
7457,note_off,0,0,0,,7,,,67,127
7457,note_off,0,0,0,,0,,,48,127
7457,note_off,0,0,0,,0,,,60,127
7458,note_on,1,0,0,,5,,,53,127
7458,note_on,0,0,0,,5,,,65,127
7458,note_on,0,0,0,,8,,,68,127
7683,note_off,225,0,0,,5,,,65,127
7683,note_off,0,0,0,,5,,,53,127
7684,note_on,1,0,0,,5,,,65,127
7909,note_off,225,0,0,,5,,,65,127
7909,note_off,0,0,0,,8,,,68,127
7910,note_on,1,0,0,,8,,,68,127
8135,note_off,225,0,0,,8,,,68,127
8136,note_on,1,0,0,,5,,,65,127
8361,note_off,225,0,0,,5,,,65,127
8362,note_on,1,0,0,,1,,,61,127
8587,note_off,225,0,0,,1,,,61,127
8588,note_on,1,0,0,,11,,,58,127
8813,note_off,225,0,0,,11,,,58,127
8814,note_on,1,0,0,,7,,,55,127
8814,note_on,0,0,0,,4,,,76,127
8963,note_off,149,0,0,,4,,,76,127
8964,note_on,1,0,0,,5,,,77,127
9039,note_on,75,0,0,,4,,,64,127
9113,note_off,74,0,0,,5,,,77,127
9114,note_on,1,0,0,,7,,,79,127
9263,note_off,149,0,0,,7,,,79,127
9263,note_off,0,0,0,,4,,,64,127
9263,note_off,0,0,0,,7,,,55,127
9264,note_on,1,0,0,,8,,,56,127
9264,note_on,0,0,0,,7,,,79,127
9264,note_on,0,0,0,,5,,,77,127
9413,note_off,149,0,0,,5,,,77,127
9413,note_off,0,0,0,,7,,,79,127
9414,note_on,1,0,0,,4,,,76,127
9489,note_on,75,0,0,,5,,,65,127
9563,note_off,74,0,0,,4,,,76,127
9564,note_on,1,0,0,,5,,,77,127
9713,note_off,149,0,0,,5,,,65,127
9713,note_off,0,0,0,,8,,,56,127
9714,note_on,1,0,0,,8,,,68,127
9902,note_off,188,0,0,,5,,,77,127
9938,note_off,36,0,0,,8,,,68,127
9939,note_on,1,0,0,,5,,,65,127
10164,note_off,225,0,0,,5,,,65,127
10165,note_on,1,0,0,,1,,,61,127
10390,note_off,225,0,0,,1,,,61,127
10391,note_on,1,0,0,,11,,,58,127
10616,note_off,225,0,0,,11,,,58,127
10617,note_on,1,0,0,,7,,,55,127
10617,note_on,0,0,0,,4,,,76,127
10766,note_off,149,0,0,,4,,,76,127
10767,note_on,1,0,0,,5,,,77,127
10842,note_on,75,0,0,,4,,,64,127
10916,note_off,74,0,0,,5,,,77,127
10917,note_on,1,0,0,,7,,,79,127
11066,note_off,149,0,0,,7,,,79,127
11066,note_off,0,0,0,,4,,,64,127
11066,note_off,0,0,0,,7,,,55,127
11067,note_on,1,0,0,,8,,,56,127
11067,note_on,0,0,0,,7,,,79,127
11067,note_on,0,0,0,,5,,,77,127
11216,note_off,149,0,0,,5,,,77,127
11216,note_off,0,0,0,,7,,,79,127
11217,note_on,1,0,0,,4,,,76,127
11292,note_on,75,0,0,,5,,,65,127
11366,note_off,74,0,0,,4,,,76,127
11367,note_on,1,0,0,,5,,,77,127
11516,note_off,149,0,0,,5,,,65,127
11516,note_off,0,0,0,,8,,,56,127
11517,note_on,1,0,0,,8,,,68,127
11705,note_off,188,0,0,,5,,,77,127
11741,note_off,36,0,0,,8,,,68,127
11742,note_on,1,0,0,,5,,,65,127
11967,note_off,225,0,0,,5,,,65,127
11968,note_on,1,0,0,,2,,,62,127
12193,note_off,225,0,0,,2,,,62,127
12194,note_on,1,0,0,,5,,,65,127
12419,note_off,225,0,0,,5,,,65,127
12420,note_on,1,0,0,,7,,,55,127
12420,note_on,0,0,0,,2,,,74,127
12569,note_off,149,0,0,,2,,,74,127
12570,note_on,1,0,0,,3,,,75,127
12645,note_on,75,0,0,,12,,,59,127
12719,note_off,74,0,0,,3,,,75,127
12720,note_on,1,0,0,,5,,,77,127
12869,note_off,149,0,0,,5,,,77,127
12869,note_off,0,0,0,,12,,,59,127
12869,note_off,0,0,0,,7,,,55,127
12870,note_on,1,0,0,,0,,,48,127
12870,note_on,0,0,0,,5,,,77,127
12870,note_on,0,0,0,,3,,,75,127
13019,note_off,149,0,0,,3,,,75,127
13019,note_off,0,0,0,,5,,,77,127
13020,note_on,1,0,0,,2,,,74,127
13095,note_on,75,0,0,,0,,,60,127
13169,note_off,74,0,0,,2,,,74,127
13170,note_on,1,0,0,,0,,,72,127
13208,note_off,38,0,0,,0,,,48,127
13320,note_off,112,0,0,,0,,,60,127
13321,note_on,1,0,0,,3,,,63,127
13509,note_off,188,0,0,,0,,,72,127
13545,note_off,36,0,0,,3,,,63,127
13546,note_on,1,0,0,,0,,,60,127
13771,note_off,225,0,0,,0,,,60,127
13772,note_on,1,0,0,,8,,,56,127
13997,note_off,225,0,0,,8,,,56,127
13998,note_on,1,0,0,,0,,,60,127
14223,note_off,225,0,0,,0,,,60,127
14224,note_on,1,0,0,,2,,,50,127
14224,note_on,0,0,0,,12,,,71,127
14373,note_off,149,0,0,,12,,,71,127
14374,note_on,1,0,0,,0,,,72,127
14449,note_on,75,0,0,,12,,,59,127
14523,note_off,74,0,0,,0,,,72,127
14524,note_on,1,0,0,,2,,,74,127
14673,note_off,149,0,0,,2,,,74,127
14673,note_off,0,0,0,,12,,,59,127
14673,note_off,0,0,0,,2,,,50,127
14674,note_on,1,0,0,,3,,,51,127
14674,note_on,0,0,0,,2,,,74,127
14674,note_on,0,0,0,,0,,,72,127
14823,note_off,149,0,0,,0,,,72,127
14823,note_off,0,0,0,,2,,,74,127
14824,note_on,1,0,0,,12,,,71,127
14899,note_on,75,0,0,,0,,,60,127
14973,note_off,74,0,0,,12,,,71,127
14974,note_on,1,0,0,,0,,,72,127
15123,note_off,149,0,0,,0,,,60,127
15123,note_off,0,0,0,,3,,,51,127
15124,note_on,1,0,0,,3,,,63,127
15312,note_off,188,0,0,,0,,,72,127
15348,note_off,36,0,0,,3,,,63,127
15349,note_on,1,0,0,,0,,,60,127
15574,note_off,225,0,0,,0,,,60,127
15575,note_on,1,0,0,,8,,,56,127
15800,note_off,225,0,0,,8,,,56,127
15801,note_on,1,0,0,,0,,,60,127
16026,note_off,225,0,0,,0,,,60,127
16027,note_on,1,0,0,,2,,,50,127
16027,note_on,0,0,0,,12,,,71,127
16176,note_off,149,0,0,,12,,,71,127
16177,note_on,1,0,0,,0,,,72,127
16252,note_on,75,0,0,,12,,,59,127
16326,note_off,74,0,0,,0,,,72,127
16327,note_on,1,0,0,,2,,,74,127
16476,note_off,149,0,0,,2,,,74,127
16476,note_off,0,0,0,,12,,,59,127
16476,note_off,0,0,0,,2,,,50,127
16477,note_on,1,0,0,,3,,,51,127
16477,note_on,0,0,0,,7,,,79,127
16702,note_off,225,0,0,,7,,,79,127
16703,note_on,1,0,0,,5,,,77,127
16928,note_off,225,0,0,,5,,,77,127
16929,note_on,1,0,0,,0,,,60,127
16929,note_on,0,0,0,,7,,,79,127
16929,note_on,0,0,0,,5,,,77,127
17154,note_off,225,0,0,,5,,,77,127
17154,note_off,0,0,0,,7,,,79,127
17155,note_on,1,0,0,,3,,,75,127
17380,note_off,225,0,0,,3,,,75,127
17380,note_off,0,0,0,,3,,,51,127
17381,note_on,1,0,0,,5,,,53,127
17381,note_on,0,0,0,,5,,,77,127
17381,note_on,0,0,0,,3,,,75,127
17606,note_off,225,0,0,,3,,,75,127
17606,note_off,0,0,0,,5,,,77,127
17607,note_on,1,0,0,,2,,,74,127
17832,note_off,225,0,0,,2,,,74,127
17832,note_off,0,0,0,,5,,,53,127
17832,note_off,0,0,0,,0,,,60,127
17833,note_on,1,0,0,,8,,,56,127
17833,note_on,0,0,0,,0,,,60,127
17833,note_on,0,0,0,,2,,,74,127
17833,note_on,0,0,0,,3,,,75,127
18058,note_off,225,0,0,,3,,,75,127
18058,note_off,0,0,0,,2,,,74,127
18059,note_on,1,0,0,,0,,,72,127
18284,note_off,225,0,0,,0,,,72,127
18284,note_off,0,0,0,,0,,,60,127
18284,note_off,0,0,0,,8,,,56,127
18285,note_on,1,0,0,,7,,,55,127
18285,note_on,0,0,0,,12,,,71,127
18510,note_off,225,0,0,,7,,,55,127
18511,note_on,1,0,0,,5,,,65,127
18736,note_off,225,0,0,,5,,,65,127
18737,note_on,1,0,0,,8,,,68,127
18962,note_off,225,0,0,,8,,,68,127
18963,note_on,1,0,0,,5,,,65,127
19188,note_off,225,0,0,,5,,,65,127
19189,note_on,1,0,0,,2,,,62,127
19414,note_off,225,0,0,,2,,,62,127
19415,note_off,1,0,0,,12,,,71,127
19415,note_on,0,0,0,,5,,,65,127
19640,note_off,225,0,0,,5,,,65,127
19641,note_on,1,0,0,,8,,,56,127
19641,note_on,0,0,0,,2,,,74,127
19641,note_on,0,0,0,,0,,,72,127
19790,note_off,149,0,0,,0,,,72,127
19790,note_off,0,0,0,,2,,,74,127
19791,note_on,1,0,0,,12,,,71,127
19866,note_on,75,0,0,,5,,,65,127
19940,note_off,74,0,0,,12,,,71,127
19941,note_on,1,0,0,,0,,,72,127
20090,note_off,149,0,0,,0,,,72,127
20090,note_off,0,0,0,,5,,,65,127
20090,note_off,0,0,0,,8,,,56,127
20091,note_on,1,0,0,,7,,,55,127
20091,note_on,0,0,0,,0,,,72,127
20317,note_on,226,0,0,,5,,,65,127
20542,note_off,225,0,0,,5,,,65,127
20542,note_off,0,0,0,,0,,,72,127
20542,note_off,0,0,0,,7,,,55,127
20543,note_on,1,0,0,,8,,,68,127
20543,note_on,0,0,0,,2,,,74,127
20768,note_off,225,0,0,,8,,,68,127
20769,note_on,1,0,0,,5,,,65,127
20994,note_off,225,0,0,,5,,,65,127
20995,note_on,1,0,0,,2,,,62,127
21220,note_off,225,0,0,,2,,,62,127
21220,note_off,0,0,0,,2,,,74,127
21221,note_on,1,0,0,,5,,,65,127
21446,note_off,225,0,0,,5,,,65,127
21447,note_on,1,0,0,,8,,,56,127
21447,note_on,0,0,0,,0,,,72,127
21447,note_on,0,0,0,,2,,,74,127
21596,note_off,149,0,0,,2,,,74,127
21596,note_off,0,0,0,,0,,,72,127
21597,note_on,1,0,0,,12,,,71,127
21672,note_on,75,0,0,,5,,,65,127
21746,note_off,74,0,0,,12,,,71,127
21747,note_on,1,0,0,,0,,,72,127
21896,note_off,149,0,0,,0,,,72,127
21896,note_off,0,0,0,,5,,,65,127
21896,note_off,0,0,0,,8,,,56,127
21897,note_on,1,0,0,,7,,,55,127
21897,note_on,0,0,0,,0,,,72,127
22123,note_on,226,0,0,,5,,,65,127
22348,note_off,225,0,0,,5,,,65,127
22348,note_off,0,0,0,,0,,,72,127
22348,note_off,0,0,0,,7,,,55,127
22349,note_on,1,0,0,,8,,,68,127
22349,note_on,0,0,0,,2,,,74,127
22574,note_off,225,0,0,,8,,,68,127
22575,note_on,1,0,0,,5,,,65,127
22800,note_off,225,0,0,,5,,,65,127
22801,note_on,1,0,0,,2,,,62,127
23026,note_off,225,0,0,,2,,,62,127
23026,note_off,0,0,0,,2,,,74,127
23027,note_on,1,0,0,,5,,,65,127
23252,note_off,225,0,0,,5,,,65,127
23253,note_on,1,0,0,,8,,,56,127
23253,note_on,0,0,0,,2,,,74,127
23402,note_off,149,0,0,,2,,,74,127
23403,note_on,1,0,0,,3,,,75,127
23478,note_on,75,0,0,,12,,,59,127
23552,note_off,74,0,0,,3,,,75,127
23553,note_on,1,0,0,,5,,,77,127
23702,note_off,149,0,0,,5,,,77,127
23702,note_off,0,0,0,,12,,,59,127
23702,note_off,0,0,0,,8,,,56,127
23703,note_on,1,0,0,,0,,,48,127
23703,note_on,0,0,0,,5,,,77,127
23703,note_on,0,0,0,,3,,,75,127
23852,note_off,149,0,0,,3,,,75,127
23852,note_off,0,0,0,,5,,,77,127
23853,note_on,1,0,0,,2,,,74,127
23928,note_on,75,0,0,,0,,,60,127
24002,note_off,74,0,0,,2,,,74,127
24003,note_on,1,0,0,,0,,,72,127
24041,note_off,38,0,0,,0,,,48,127
24153,note_off,112,0,0,,0,,,60,127
24154,note_on,1,0,0,,3,,,63,127
24342,note_off,188,0,0,,0,,,72,127
24378,note_off,36,0,0,,3,,,63,127
24379,note_on,1,0,0,,0,,,60,127
24604,note_off,225,0,0,,0,,,60,127
24605,note_on,1,0,0,,8,,,56,127
24830,note_off,225,0,0,,8,,,56,127
24831,note_on,1,0,0,,0,,,60,127
25056,note_off,225,0,0,,0,,,60,127
25057,note_on,1,0,0,,5,,,53,127
25057,note_on,0,0,0,,2,,,74,127
25206,note_off,149,0,0,,2,,,74,127
25207,note_on,1,0,0,,3,,,75,127
25282,note_on,75,0,0,,8,,,56,127
25356,note_off,74,0,0,,3,,,75,127
25357,note_on,1,0,0,,5,,,77,127
25495,note_off,138,0,0,,8,,,56,127
25495,note_off,0,0,0,,5,,,53,127
25507,note_off,12,0,0,,5,,,77,127
25508,note_on,1,0,0,,7,,,31,127
25508,note_on,0,0,0,,7,,,67,127
25733,note_off,225,0,0,,7,,,67,127
25734,note_on,1,0,0,,5,,,77,127
25959,note_off,225,0,0,,5,,,77,127
25960,note_on,1,0,0,,3,,,75,127
26185,note_off,225,0,0,,3,,,75,127
26186,note_on,1,0,0,,0,,,72,127
26411,note_off,225,0,0,,0,,,72,127
26411,note_off,0,0,0,,7,,,31,127
26412,note_on,1,0,0,,7,,,31,127
26412,note_on,0,0,0,,5,,,77,127
26637,note_off,225,0,0,,5,,,77,127
26638,note_on,1,0,0,,2,,,74,127
26863,note_off,225,0,0,,2,,,74,127
26864,note_on,1,0,0,,0,,,72,127
27089,note_off,225,0,0,,0,,,72,127
27090,note_on,1,0,0,,12,,,71,127
27315,note_off,225,0,0,,12,,,71,127
27315,note_off,0,0,0,,7,,,31,127
27316,note_on,1,0,0,,0,,,48,127
27316,note_on,0,0,0,,12,,,71,127
27542,note_on,226,0,0,,3,,,51,127
27767,note_off,225,0,0,,3,,,51,127
27767,note_off,0,0,0,,12,,,71,127
27768,note_on,1,0,0,,5,,,53,127
27768,note_on,0,0,0,,0,,,72,127
27993,note_off,225,0,0,,5,,,53,127
27994,note_on,1,0,0,,7,,,55,127
28219,note_off,225,0,0,,7,,,55,127
28220,note_on,1,0,0,,8,,,56,127
28445,note_off,225,0,0,,8,,,56,127
28445,note_off,0,0,0,,0,,,72,127
28446,note_on,1,0,0,,12,,,59,127
28671,note_off,225,0,0,,12,,,59,127
28672,note_on,1,0,0,,12,,,59,127
28672,note_on,0,0,0,,2,,,74,127
28897,note_off,225,0,0,,2,,,74,127
28897,note_off,0,0,0,,12,,,59,127
28898,note_on,1,0,0,,0,,,60,127
28898,note_on,0,0,0,,3,,,75,127
29118,note_off,220,0,0,,0,,,48,127
29123,note_off,5,0,0,,3,,,75,127
29123,note_off,0,0,0,,0,,,60,127
29124,note_on,1,0,0,,2,,,50,127
29124,note_on,0,0,0,,5,,,77,127
29273,note_off,149,0,0,,5,,,77,127
29274,note_on,1,0,0,,3,,,75,127
29349,note_on,75,0,0,,5,,,53,127
29423,note_off,74,0,0,,3,,,75,127
29424,note_on,1,0,0,,2,,,74,127
29573,note_off,149,0,0,,5,,,53,127
29574,note_on,1,0,0,,7,,,55,127
29762,note_off,188,0,0,,2,,,74,127
29798,note_off,36,0,0,,7,,,55,127
29799,note_on,1,0,0,,8,,,56,127
30024,note_off,225,0,0,,8,,,56,127
30025,note_on,1,0,0,,12,,,59,127
30250,note_off,225,0,0,,12,,,59,127
30251,note_on,1,0,0,,0,,,60,127
30476,note_off,225,0,0,,0,,,60,127
30477,note_on,1,0,0,,0,,,60,127
30477,note_on,0,0,0,,3,,,75,127
30702,note_off,225,0,0,,3,,,75,127
30702,note_off,0,0,0,,0,,,60,127
30703,note_on,1,0,0,,2,,,62,127
30703,note_on,0,0,0,,5,,,77,127
30923,note_off,220,0,0,,2,,,50,127
30928,note_off,5,0,0,,5,,,77,127
30928,note_off,0,0,0,,2,,,62,127
30929,note_on,1,0,0,,3,,,51,127
30929,note_on,0,0,0,,7,,,79,127
31078,note_off,149,0,0,,7,,,79,127
31079,note_on,1,0,0,,5,,,77,127
31154,note_on,75,0,0,,7,,,55,127
31228,note_off,74,0,0,,5,,,77,127
31229,note_on,1,0,0,,3,,,75,127
31378,note_off,149,0,0,,7,,,55,127
31379,note_on,1,0,0,,8,,,56,127
31567,note_off,188,0,0,,3,,,75,127
31603,note_off,36,0,0,,8,,,56,127
31604,note_on,1,0,0,,12,,,59,127
31829,note_off,225,0,0,,12,,,59,127
31830,note_on,1,0,0,,12,,,59,127
32055,note_off,225,0,0,,12,,,59,127
32056,note_on,1,0,0,,0,,,60,127
32281,note_off,225,0,0,,0,,,60,127
32282,note_on,1,0,0,,2,,,62,127
32282,note_on,0,0,0,,5,,,77,127
32507,note_off,225,0,0,,5,,,77,127
32507,note_off,0,0,0,,2,,,62,127
32508,note_on,1,0,0,,3,,,63,127
32508,note_on,0,0,0,,7,,,79,127
32728,note_off,220,0,0,,3,,,51,127
32733,note_off,5,0,0,,7,,,79,127
32733,note_off,0,0,0,,3,,,63,127
32734,note_on,1,0,0,,5,,,53,127
32734,note_on,0,0,0,,8,,,80,127
32812,note_off,78,0,0,,8,,,80,127
32813,note_on,1,0,0,,7,,,79,127
32891,note_off,78,0,0,,7,,,79,127
32892,note_on,1,0,0,,5,,,77,127
32960,note_on,68,0,0,,8,,,56,127
33185,note_off,225,0,0,,8,,,56,127
33186,note_on,1,0,0,,12,,,59,127
33411,note_off,225,0,0,,12,,,59,127
33412,note_on,1,0,0,,0,,,60,127
33637,note_off,225,0,0,,0,,,60,127
33638,note_on,1,0,0,,2,,,62,127
33863,note_off,225,0,0,,2,,,62,127
33863,note_off,0,0,0,,5,,,77,127
33864,note_on,1,0,0,,3,,,63,127
33864,note_on,0,0,0,,3,,,75,127
34089,note_off,225,0,0,,3,,,75,127
34089,note_off,0,0,0,,3,,,63,127
34090,note_on,1,0,0,,3,,,63,127
34090,note_on,0,0,0,,2,,,74,127
34315,note_off,225,0,0,,2,,,74,127
34315,note_off,0,0,0,,3,,,63,127
34316,note_on,1,0,0,,5,,,65,127
34316,note_on,0,0,0,,0,,,72,127
34536,note_off,220,0,0,,5,,,53,127
34541,note_off,5,0,0,,0,,,72,127
34541,note_off,0,0,0,,5,,,65,127
34542,note_on,1,0,0,,7,,,55,127
34542,note_on,0,0,0,,7,,,67,127
34542,note_on,0,0,0,,12,,,71,127
34767,note_off,225,0,0,,12,,,71,127
34768,note_on,1,0,0,,5,,,77,127
34993,note_off,225,0,0,,5,,,77,127
34994,note_on,1,0,0,,2,,,74,127
35219,note_off,225,0,0,,2,,,74,127
35220,note_on,1,0,0,,12,,,71,127
35445,note_off,225,0,0,,12,,,71,127
35445,note_off,0,0,0,,7,,,67,127
35445,note_off,0,0,0,,7,,,55,127
35446,note_on,1,0,0,,7,,,55,127
35446,note_on,0,0,0,,8,,,68,127
35446,note_on,0,0,0,,5,,,77,127
35671,note_off,225,0,0,,5,,,77,127
35672,note_on,1,0,0,,3,,,75,127
35897,note_off,225,0,0,,3,,,75,127
35898,note_on,1,0,0,,2,,,74,127
36123,note_off,225,0,0,,2,,,74,127
36124,note_on,1,0,0,,0,,,72,127
36349,note_off,225,0,0,,0,,,72,127
36349,note_off,0,0,0,,8,,,68,127
36349,note_off,0,0,0,,7,,,55,127
36350,note_on,1,0,0,,7,,,67,127
36350,note_on,0,0,0,,7,,,55,127
36350,note_on,0,0,0,,12,,,71,127
36575,note_off,225,0,0,,12,,,71,127
36576,note_on,1,0,0,,5,,,77,127
36801,note_off,225,0,0,,5,,,77,127
36802,note_on,1,0,0,,2,,,74,127
37027,note_off,225,0,0,,2,,,74,127
37028,note_on,1,0,0,,12,,,71,127
37253,note_off,225,0,0,,12,,,71,127
37253,note_off,0,0,0,,7,,,55,127
37253,note_off,0,0,0,,7,,,67,127
37254,note_on,1,0,0,,10,,,69,127
37254,note_on,0,0,0,,7,,,55,127
37254,note_on,0,0,0,,6,,,78,127
37479,note_off,225,0,0,,6,,,78,127
37480,note_on,1,0,0,,3,,,75,127
37705,note_off,225,0,0,,3,,,75,127
37706,note_on,1,0,0,,2,,,74,127
37931,note_off,225,0,0,,2,,,74,127
37932,note_on,1,0,0,,0,,,72,127
38157,note_off,225,0,0,,0,,,72,127
38157,note_off,0,0,0,,7,,,55,127
38157,note_off,0,0,0,,10,,,69,127
38158,note_on,1,0,0,,7,,,55,127
38158,note_on,0,0,0,,0,,,72,127
38383,note_off,225,0,0,,7,,,55,127
38384,note_on,1,0,0,,2,,,62,127
38609,note_off,225,0,0,,2,,,62,127
38609,note_off,0,0,0,,0,,,72,127
38610,note_on,1,0,0,,8,,,68,127
38610,note_on,0,0,0,,2,,,74,127
38835,note_off,225,0,0,,8,,,68,127
38836,note_on,1,0,0,,5,,,65,127
39061,note_off,225,0,0,,5,,,65,127
39062,note_on,1,0,0,,2,,,62,127
39287,note_off,225,0,0,,2,,,62,127
39287,note_off,0,0,0,,2,,,74,127
39288,note_on,1,0,0,,5,,,65,127
39513,note_off,225,0,0,,5,,,65,127
39514,note_on,1,0,0,,8,,,56,127
39514,note_on,0,0,0,,2,,,74,127
39663,note_off,149,0,0,,2,,,74,127
39664,note_on,1,0,0,,3,,,75,127
39739,note_on,75,0,0,,12,,,59,127
39813,note_off,74,0,0,,3,,,75,127
39814,note_on,1,0,0,,5,,,77,127
39963,note_off,149,0,0,,5,,,77,127
39963,note_off,0,0,0,,12,,,59,127
39963,note_off,0,0,0,,8,,,56,127
39964,note_on,1,0,0,,0,,,48,127
39964,note_on,0,0,0,,5,,,77,127
39964,note_on,0,0,0,,3,,,75,127
40113,note_off,149,0,0,,3,,,75,127
40113,note_off,0,0,0,,5,,,77,127
40114,note_on,1,0,0,,2,,,74,127
40189,note_on,75,0,0,,0,,,60,127
40263,note_off,74,0,0,,2,,,74,127
40264,note_on,1,0,0,,0,,,72,127
40302,note_off,38,0,0,,0,,,48,127
40414,note_off,112,0,0,,0,,,60,127
40415,note_on,1,0,0,,3,,,63,127
40603,note_off,188,0,0,,0,,,72,127
40639,note_off,36,0,0,,3,,,63,127
40640,note_on,1,0,0,,0,,,60,127
40865,note_off,225,0,0,,0,,,60,127
40866,note_on,1,0,0,,8,,,56,127
41091,note_off,225,0,0,,8,,,56,127
41092,note_on,1,0,0,,0,,,60,127
41317,note_off,225,0,0,,0,,,60,127
41318,note_on,1,0,0,,5,,,53,127
41318,note_on,0,0,0,,2,,,74,127
41467,note_off,149,0,0,,2,,,74,127
41468,note_on,1,0,0,,3,,,75,127
41543,note_on,75,0,0,,8,,,56,127
41617,note_off,74,0,0,,3,,,75,127
41618,note_on,1,0,0,,5,,,77,127
41756,note_off,138,0,0,,8,,,56,127
41756,note_off,0,0,0,,5,,,53,127
41768,note_off,12,0,0,,5,,,77,127
41769,note_on,1,0,0,,7,,,31,127
41769,note_on,0,0,0,,7,,,67,127
41994,note_off,225,0,0,,7,,,67,127
41995,note_on,1,0,0,,5,,,77,127
42220,note_off,225,0,0,,5,,,77,127
42221,note_on,1,0,0,,3,,,75,127
42446,note_off,225,0,0,,3,,,75,127
42447,note_on,1,0,0,,0,,,72,127
42672,note_off,225,0,0,,0,,,72,127
42672,note_off,0,0,0,,7,,,31,127
42673,note_on,1,0,0,,7,,,31,127
42673,note_on,0,0,0,,5,,,77,127
42898,note_off,225,0,0,,5,,,77,127
42899,note_on,1,0,0,,2,,,74,127
43124,note_off,225,0,0,,2,,,74,127
43125,note_on,1,0,0,,0,,,72,127
43350,note_off,225,0,0,,0,,,72,127
43351,note_on,1,0,0,,12,,,71,127
43576,note_off,225,0,0,,12,,,71,127
43576,note_off,0,0,0,,7,,,31,127
43577,note_on,1,0,0,,0,,,48,127
43577,note_on,0,0,0,,0,,,72,127
43802,note_off,225,0,0,,0,,,48,127
43803,note_on,1,0,0,,4,,,52,127
44028,note_off,225,0,0,,4,,,52,127
44029,note_on,1,0,0,,7,,,55,127
44254,note_off,225,0,0,,7,,,55,127
44255,note_on,1,0,0,,11,,,58,127
44480,note_off,225,0,0,,11,,,58,127
44481,note_on,1,0,0,,1,,,61,127
44706,note_off,225,0,0,,1,,,61,127
44707,note_off,1,0,0,,0,,,72,127
44707,note_on,0,0,0,,5,,,65,127
44932,note_off,225,0,0,,5,,,65,127
44933,note_on,1,0,0,,4,,,64,127
44933,note_on,0,0,0,,7,,,79,127
45082,note_off,149,0,0,,7,,,79,127
45083,note_on,1,0,0,,8,,,80,127
45157,note_off,74,0,0,,4,,,64,127
45158,note_on,1,0,0,,0,,,60,127
45232,note_off,74,0,0,,8,,,80,127
45233,note_on,1,0,0,,11,,,82,127
45382,note_off,149,0,0,,11,,,82,127
45382,note_off,0,0,0,,0,,,60,127
45383,note_on,1,0,0,,5,,,53,127
45383,note_on,0,0,0,,8,,,80,127
45383,note_on,0,0,0,,11,,,82,127
45532,note_off,149,0,0,,11,,,82,127
45532,note_off,0,0,0,,8,,,80,127
45533,note_on,1,0,0,,7,,,79,127
45607,note_off,74,0,0,,5,,,53,127
45608,note_on,1,0,0,,8,,,56,127
45682,note_off,74,0,0,,7,,,79,127
45683,note_on,1,0,0,,5,,,77,127
45832,note_off,149,0,0,,8,,,56,127
45833,note_on,1,0,0,,0,,,60,127
46021,note_off,188,0,0,,5,,,77,127
46057,note_off,36,0,0,,0,,,60,127
46058,note_on,1,0,0,,5,,,65,127
46283,note_off,225,0,0,,5,,,65,127
46284,note_on,1,0,0,,8,,,68,127
46509,note_off,225,0,0,,8,,,68,127
46510,note_on,1,0,0,,0,,,72,127
46735,note_off,225,0,0,,0,,,72,127
46736,note_on,1,0,0,,12,,,71,127
46736,note_on,0,0,0,,2,,,74,127
46885,note_off,149,0,0,,2,,,74,127
46886,note_on,1,0,0,,3,,,75,127
46960,note_off,74,0,0,,12,,,71,127
46961,note_on,1,0,0,,7,,,67,127
47035,note_off,74,0,0,,3,,,75,127
47036,note_on,1,0,0,,5,,,77,127
47185,note_off,149,0,0,,5,,,77,127
47185,note_off,0,0,0,,7,,,67,127
47186,note_on,1,0,0,,0,,,48,127
47186,note_on,0,0,0,,5,,,77,127
47186,note_on,0,0,0,,3,,,75,127
47335,note_off,149,0,0,,3,,,75,127
47335,note_off,0,0,0,,5,,,77,127
47336,note_on,1,0,0,,2,,,74,127
47485,note_off,149,0,0,,2,,,74,127
47486,note_on,1,0,0,,3,,,75,127
47635,note_off,149,0,0,,3,,,75,127
47635,note_off,0,0,0,,0,,,48,127
47636,note_on,1,0,0,,5,,,65,127
47636,note_on,0,0,0,,5,,,53,127
47636,note_on,0,0,0,,5,,,77,127
47636,note_on,0,0,0,,7,,,79,127
47785,note_off,149,0,0,,7,,,79,127
47785,note_off,0,0,0,,5,,,77,127
47786,note_on,1,0,0,,3,,,75,127
47935,note_off,149,0,0,,3,,,75,127
47936,note_on,1,0,0,,2,,,74,127
48085,note_off,149,0,0,,2,,,74,127
48085,note_off,0,0,0,,5,,,53,127
48085,note_off,0,0,0,,5,,,65,127
48086,note_on,1,0,0,,3,,,63,127
48086,note_on,0,0,0,,7,,,55,127
48086,note_on,0,0,0,,0,,,72,127
48537,note_off,451,0,0,,7,,,55,127
48537,note_off,0,0,0,,3,,,63,127
48538,note_on,1,0,0,,2,,,62,127
48538,note_on,0,0,0,,7,,,55,127
48604,note_off,66,0,0,,0,,,72,127
48613,note_on,9,0,0,,12,,,71,127
48687,note_off,74,0,0,,12,,,71,127
48688,note_on,1,0,0,,0,,,72,127
48762,note_off,74,0,0,,0,,,72,127
48763,note_on,1,0,0,,12,,,71,127
48837,note_off,74,0,0,,12,,,71,127
48838,note_on,1,0,0,,10,,,69,127
48912,note_off,74,0,0,,10,,,69,127
48913,note_on,1,0,0,,12,,,71,127
48987,note_off,74,0,0,,12,,,71,127
48987,note_off,0,0,0,,7,,,55,127
48987,note_off,0,0,0,,2,,,62,127
48988,note_on,1,0,0,,0,,,48,127
48988,note_on,0,0,0,,2,,,74,127
49213,note_off,225,0,0,,0,,,48,127
49214,note_on,1,0,0,,4,,,52,127
49439,note_off,225,0,0,,4,,,52,127
49439,note_off,0,0,0,,2,,,74,127
49440,note_on,1,0,0,,7,,,55,127
49440,note_on,0,0,0,,0,,,72,127
49665,note_off,225,0,0,,7,,,55,127
49666,note_on,1,0,0,,11,,,58,127
49891,note_off,225,0,0,,11,,,58,127
49892,note_on,1,0,0,,1,,,61,127
50117,note_off,225,0,0,,1,,,61,127
50117,note_off,0,0,0,,0,,,72,127
50118,note_on,1,0,0,,5,,,65,127
50343,note_off,225,0,0,,5,,,65,127
50344,note_on,1,0,0,,4,,,64,127
50344,note_on,0,0,0,,7,,,79,127
50493,note_off,149,0,0,,7,,,79,127
50494,note_on,1,0,0,,8,,,80,127
50568,note_off,74,0,0,,4,,,64,127
50569,note_on,1,0,0,,0,,,60,127
50643,note_off,74,0,0,,8,,,80,127
50644,note_on,1,0,0,,11,,,82,127
50793,note_off,149,0,0,,11,,,82,127
50793,note_off,0,0,0,,0,,,60,127
50794,note_on,1,0,0,,5,,,53,127
50794,note_on,0,0,0,,8,,,80,127
50794,note_on,0,0,0,,11,,,82,127
50943,note_off,149,0,0,,11,,,82,127
50943,note_off,0,0,0,,8,,,80,127
50944,note_on,1,0,0,,7,,,79,127
51018,note_off,74,0,0,,5,,,53,127
51019,note_on,1,0,0,,8,,,56,127
51093,note_off,74,0,0,,7,,,79,127
51094,note_on,1,0,0,,5,,,77,127
51243,note_off,149,0,0,,8,,,56,127
51244,note_on,1,0,0,,0,,,60,127
51432,note_off,188,0,0,,5,,,77,127
51468,note_off,36,0,0,,0,,,60,127
51469,note_on,1,0,0,,5,,,65,127
51694,note_off,225,0,0,,5,,,65,127
51695,note_on,1,0,0,,8,,,68,127
51920,note_off,225,0,0,,8,,,68,127
51921,note_on,1,0,0,,0,,,72,127
52146,note_off,225,0,0,,0,,,72,127
52147,note_on,1,0,0,,12,,,71,127
52147,note_on,0,0,0,,2,,,74,127
52296,note_off,149,0,0,,2,,,74,127
52297,note_on,1,0,0,,3,,,75,127
52371,note_off,74,0,0,,12,,,71,127
52372,note_on,1,0,0,,7,,,67,127
52446,note_off,74,0,0,,3,,,75,127
52447,note_on,1,0,0,,5,,,77,127
52596,note_off,149,0,0,,5,,,77,127
52596,note_off,0,0,0,,7,,,67,127
52597,note_on,1,0,0,,0,,,72,127
52597,note_on,0,0,0,,3,,,75,127
52597,note_on,0,0,0,,5,,,77,127
52746,note_off,149,0,0,,5,,,77,127
52746,note_off,0,0,0,,3,,,75,127
52747,note_on,1,0,0,,2,,,74,127
52896,note_off,149,0,0,,2,,,74,127
52897,note_on,1,0,0,,3,,,75,127
53046,note_off,149,0,0,,3,,,75,127
53046,note_off,0,0,0,,0,,,72,127
53047,note_on,1,0,0,,5,,,65,127
53047,note_on,0,0,0,,5,,,53,127
53047,note_on,0,0,0,,7,,,79,127
53047,note_on,0,0,0,,5,,,77,127
53196,note_off,149,0,0,,5,,,77,127
53196,note_off,0,0,0,,7,,,79,127
53197,note_on,1,0,0,,3,,,75,127
53346,note_off,149,0,0,,3,,,75,127
53347,note_on,1,0,0,,2,,,74,127
53496,note_off,149,0,0,,2,,,74,127
53496,note_off,0,0,0,,5,,,53,127
53496,note_off,0,0,0,,5,,,65,127
53497,note_on,1,0,0,,3,,,63,127
53497,note_on,0,0,0,,7,,,55,127
53497,note_on,0,0,0,,0,,,72,127
53948,note_off,451,0,0,,7,,,55,127
53948,note_off,0,0,0,,3,,,63,127
53949,note_on,1,0,0,,2,,,62,127
53949,note_on,0,0,0,,7,,,55,127
54015,note_off,66,0,0,,0,,,72,127
54024,note_on,9,0,0,,12,,,71,127
54098,note_off,74,0,0,,12,,,71,127
54099,note_on,1,0,0,,0,,,72,127
54173,note_off,74,0,0,,0,,,72,127
54174,note_on,1,0,0,,12,,,71,127
54248,note_off,74,0,0,,12,,,71,127
54249,note_on,1,0,0,,0,,,72,127
54323,note_off,74,0,0,,0,,,72,127
54324,note_on,1,0,0,,12,,,71,127
54398,note_off,74,0,0,,12,,,71,127
54398,note_off,0,0,0,,7,,,55,127
54398,note_off,0,0,0,,2,,,62,127
54399,note_on,1,0,0,,0,,,60,127
54399,note_on,0,0,0,,8,,,56,127
54399,note_on,0,0,0,,0,,,72,127
54399,note_on,0,0,0,,0,,,84,127
54850,note_off,451,0,0,,0,,,84,127
54850,note_off,0,0,0,,0,,,72,127
54850,note_off,0,0,0,,8,,,56,127
54850,note_off,0,0,0,,0,,,60,127
54851,note_on,1,0,0,,5,,,53,127
54851,note_on,0,0,0,,5,,,65,127
54851,note_on,0,0,0,,8,,,80,127
55000,note_off,149,0,0,,8,,,80,127
55001,note_on,1,0,0,,7,,,79,127
55150,note_off,149,0,0,,7,,,79,127
55151,note_on,1,0,0,,5,,,77,127
55300,note_off,149,0,0,,5,,,77,127
55300,note_off,0,0,0,,5,,,65,127
55300,note_off,0,0,0,,5,,,53,127
55301,note_on,1,0,0,,3,,,63,127
55301,note_on,0,0,0,,7,,,55,127
55301,note_on,0,0,0,,3,,,75,127
55450,note_off,149,0,0,,3,,,75,127
55451,note_on,1,0,0,,2,,,74,127
55600,note_off,149,0,0,,2,,,74,127
55601,note_on,1,0,0,,0,,,72,127
55750,note_off,149,0,0,,0,,,72,127
55750,note_off,0,0,0,,7,,,55,127
55750,note_off,0,0,0,,3,,,63,127
55751,note_on,1,0,0,,7,,,55,127
55751,note_on,0,0,0,,2,,,62,127
55751,note_on,0,0,0,,12,,,71,127
55900,note_off,149,0,0,,12,,,71,127
55901,note_on,1,0,0,,0,,,72,127
56050,note_off,149,0,0,,0,,,72,127
56051,note_on,1,0,0,,2,,,74,127
56200,note_off,149,0,0,,2,,,74,127
56200,note_off,0,0,0,,2,,,62,127
56200,note_off,0,0,0,,7,,,55,127
56201,note_on,1,0,0,,8,,,56,127
56201,note_on,0,0,0,,0,,,60,127
56201,note_on,0,0,0,,0,,,72,127
56201,note_on,0,0,0,,0,,,84,127
56652,note_off,451,0,0,,0,,,84,127
56652,note_off,0,0,0,,0,,,72,127
56652,note_off,0,0,0,,0,,,60,127
56652,note_off,0,0,0,,8,,,56,127
56653,note_on,1,0,0,,5,,,53,127
56653,note_on,0,0,0,,5,,,65,127
56653,note_on,0,0,0,,8,,,80,127
56802,note_off,149,0,0,,8,,,80,127
56803,note_on,1,0,0,,7,,,79,127
56952,note_off,149,0,0,,7,,,79,127
56953,note_on,1,0,0,,5,,,77,127
57102,note_off,149,0,0,,5,,,77,127
57102,note_off,0,0,0,,5,,,65,127
57102,note_off,0,0,0,,5,,,53,127
57103,note_on,1,0,0,,3,,,63,127
57103,note_on,0,0,0,,7,,,55,127
57103,note_on,0,0,0,,3,,,75,127
57252,note_off,149,0,0,,3,,,75,127
57253,note_on,1,0,0,,2,,,74,127
57402,note_off,149,0,0,,2,,,74,127
57403,note_on,1,0,0,,0,,,72,127
57552,note_off,149,0,0,,0,,,72,127
57552,note_off,0,0,0,,7,,,55,127
57552,note_off,0,0,0,,3,,,63,127
57553,note_on,1,0,0,,7,,,55,127
57553,note_on,0,0,0,,2,,,62,127
57553,note_on,0,0,0,,12,,,71,127
57702,note_off,149,0,0,,12,,,71,127
57703,note_on,1,0,0,,0,,,72,127
57852,note_off,149,0,0,,0,,,72,127
57853,note_on,1,0,0,,2,,,74,127
58002,note_off,149,0,0,,2,,,74,127
58002,note_off,0,0,0,,2,,,62,127
58002,note_off,0,0,0,,7,,,55,127
58003,note_on,1,0,0,,8,,,56,127
58003,note_on,0,0,0,,0,,,60,127
58003,note_on,0,0,0,,0,,,72,127
58003,note_on,0,0,0,,0,,,84,127
58454,note_off,451,0,0,,0,,,84,127
58454,note_off,0,0,0,,0,,,72,127
58454,note_off,0,0,0,,0,,,60,127
58454,note_off,0,0,0,,8,,,56,127
58455,note_on,1,0,0,,5,,,53,127
58455,note_on,0,0,0,,11,,,82,127
58455,note_on,0,0,0,,8,,,80,127
58604,note_off,149,0,0,,8,,,80,127
58604,note_off,0,0,0,,11,,,82,127
58605,note_on,1,0,0,,7,,,79,127
58754,note_off,149,0,0,,7,,,79,127
58755,note_on,1,0,0,,5,,,77,127
58904,note_off,149,0,0,,5,,,77,127
58904,note_off,0,0,0,,5,,,53,127
58905,note_on,1,0,0,,7,,,55,127
58905,note_on,0,0,0,,5,,,77,127
58905,note_on,0,0,0,,3,,,75,127
59054,note_off,149,0,0,,3,,,75,127
59054,note_off,0,0,0,,5,,,77,127
59055,note_on,1,0,0,,2,,,74,127
59204,note_off,149,0,0,,2,,,74,127
59205,note_on,1,0,0,,0,,,72,127
59354,note_off,149,0,0,,0,,,72,127
59354,note_off,0,0,0,,7,,,55,127
59355,note_on,1,0,0,,7,,,43,127
59355,note_on,0,0,0,,12,,,71,127
59504,note_off,149,0,0,,12,,,71,127
59505,note_on,1,0,0,,0,,,72,127
59654,note_off,149,0,0,,0,,,72,127
59655,note_on,1,0,0,,2,,,74,127
59804,note_off,149,0,0,,2,,,74,127
59804,note_off,0,0,0,,7,,,43,127
59805,note_on,1,0,0,,0,,,36,127
59805,note_on,0,0,0,,2,,,74,127
59860,note_off,55,0,0,,2,,,74,127
59861,note_on,1,0,0,,0,,,72,127
59916,note_off,55,0,0,,0,,,72,127
59917,note_on,1,0,0,,2,,,74,127
59972,note_off,55,0,0,,2,,,74,127
59973,note_on,1,0,0,,0,,,72,127
60706,note_off,733,0,0,,0,,,72,127
60706,note_off,0,0,0,,0,,,36,127
60707,note_on,1,0,0,,0,,,48,127
60932,note_off,225,0,0,,0,,,48,127
60933,note_on,1,0,0,,4,,,52,127
61158,note_off,225,0,0,,4,,,52,127
61159,note_on,1,0,0,,7,,,55,127
61384,note_off,225,0,0,,7,,,55,127
61385,note_on,1,0,0,,0,,,60,127
61610,note_off,225,0,0,,0,,,60,127
61611,note_on,1,0,0,,4,,,64,127
61836,note_off,225,0,0,,4,,,64,127
61837,note_on,1,0,0,,7,,,67,127
62062,note_off,225,0,0,,7,,,67,127
62063,note_on,1,0,0,,7,,,67,127
62212,note_off,149,0,0,,7,,,67,127
62213,note_on,1,0,0,,8,,,68,127
62362,note_off,149,0,0,,8,,,68,127
62363,note_on,1,0,0,,11,,,70,127
62512,note_off,149,0,0,,11,,,70,127
62513,note_on,1,0,0,,8,,,68,127
62662,note_off,149,0,0,,8,,,68,127
62663,note_on,1,0,0,,7,,,67,127
62812,note_off,149,0,0,,7,,,67,127
62813,note_on,1,0,0,,5,,,65,127
62962,note_off,149,0,0,,5,,,65,127
62963,note_on,1,0,0,,5,,,65,127
62963,note_on,0,0,0,,8,,,80,127
63188,note_off,225,0,0,,8,,,80,127
63189,note_on,1,0,0,,7,,,79,127
63414,note_off,225,0,0,,7,,,79,127
63414,note_off,0,0,0,,5,,,65,127
63415,note_on,1,0,0,,3,,,63,127
63415,note_on,0,0,0,,7,,,79,127
63415,note_on,0,0,0,,8,,,80,127
63640,note_off,225,0,0,,8,,,80,127
63640,note_off,0,0,0,,7,,,79,127
63641,note_on,1,0,0,,5,,,77,127
63866,note_off,225,0,0,,5,,,77,127
63866,note_off,0,0,0,,3,,,63,127
63867,note_on,1,0,0,,1,,,61,127
63867,note_on,0,0,0,,7,,,79,127
63941,note_off,74,0,0,,7,,,79,127
63942,note_on,1,0,0,,5,,,77,127
64016,note_off,74,0,0,,5,,,77,127
64017,note_on,1,0,0,,7,,,79,127
64091,note_off,74,0,0,,7,,,79,127
64092,note_on,1,0,0,,5,,,77,127
64166,note_off,74,0,0,,5,,,77,127
64167,note_on,1,0,0,,4,,,76,127
64241,note_off,74,0,0,,4,,,76,127
64242,note_on,1,0,0,,5,,,77,127
64316,note_off,74,0,0,,5,,,77,127
64316,note_off,0,0,0,,1,,,61,127
64317,note_on,1,0,0,,0,,,48,127
64317,note_on,0,0,0,,5,,,77,127
64542,note_off,225,0,0,,0,,,48,127
64543,note_on,1,0,0,,4,,,52,127
64768,note_off,225,0,0,,4,,,52,127
64768,note_off,0,0,0,,5,,,77,127
64769,note_on,1,0,0,,7,,,55,127
64769,note_on,0,0,0,,7,,,79,127
64994,note_off,225,0,0,,7,,,55,127
64995,note_on,1,0,0,,0,,,60,127
65220,note_off,225,0,0,,0,,,60,127
65221,note_on,1,0,0,,4,,,64,127
65446,note_off,225,0,0,,4,,,64,127
65447,note_on,1,0,0,,7,,,67,127
65672,note_off,225,0,0,,7,,,67,127
65672,note_off,0,0,0,,7,,,79,127
65673,note_on,1,0,0,,7,,,67,127
65822,note_off,149,0,0,,7,,,67,127
65823,note_on,1,0,0,,8,,,68,127
65972,note_off,149,0,0,,8,,,68,127
65973,note_on,1,0,0,,11,,,70,127
66122,note_off,149,0,0,,11,,,70,127
66123,note_on,1,0,0,,8,,,68,127
66272,note_off,149,0,0,,8,,,68,127
66273,note_on,1,0,0,,7,,,67,127
66422,note_off,149,0,0,,7,,,67,127
66423,note_on,1,0,0,,5,,,65,127
66572,note_off,149,0,0,,5,,,65,127
66573,note_on,1,0,0,,5,,,65,127
66573,note_on,0,0,0,,8,,,80,127
66798,note_off,225,0,0,,8,,,80,127
66799,note_on,1,0,0,,7,,,79,127
67024,note_off,225,0,0,,7,,,79,127
67024,note_off,0,0,0,,5,,,65,127
67025,note_on,1,0,0,,3,,,63,127
67025,note_on,0,0,0,,7,,,79,127
67025,note_on,0,0,0,,8,,,80,127
67250,note_off,225,0,0,,8,,,80,127
67250,note_off,0,0,0,,7,,,79,127
67251,note_on,1,0,0,,5,,,77,127
67476,note_off,225,0,0,,5,,,77,127
67476,note_off,0,0,0,,3,,,63,127
67477,note_on,1,0,0,,1,,,61,127
67477,note_on,0,0,0,,5,,,77,127
67702,note_off,225,0,0,,5,,,77,127
67703,note_on,1,0,0,,3,,,75,127
67928,note_off,225,0,0,,3,,,75,127
67928,note_off,0,0,0,,1,,,61,127
67929,note_on,1,0,0,,0,,,60,127
67929,note_on,0,0,0,,3,,,75,127
68154,note_off,225,0,0,,3,,,75,127
68155,note_on,1,0,0,,1,,,73,127
68380,note_off,225,0,0,,1,,,73,127
68380,note_off,0,0,0,,0,,,60,127
68381,note_on,1,0,0,,8,,,56,127
68381,note_on,0,0,0,,1,,,73,127
68606,note_off,225,0,0,,1,,,73,127
68607,note_on,1,0,0,,0,,,72,127
68832,note_off,225,0,0,,0,,,72,127
68832,note_off,0,0,0,,8,,,56,127
68833,note_on,1,0,0,,11,,,58,127
68833,note_on,0,0,0,,1,,,73,127
69058,note_off,225,0,0,,1,,,73,127
69059,note_on,1,0,0,,0,,,72,127
69284,note_off,225,0,0,,0,,,72,127
69284,note_off,0,0,0,,11,,,58,127
69285,note_on,1,0,0,,3,,,51,127
69285,note_on,0,0,0,,0,,,72,127
69510,note_off,225,0,0,,0,,,72,127
69511,note_on,1,0,0,,11,,,70,127
69736,note_off,225,0,0,,11,,,70,127
69736,note_off,0,0,0,,3,,,51,127
69737,note_on,1,0,0,,8,,,56,127
69737,note_on,0,0,0,,0,,,72,127
69886,note_off,149,0,0,,0,,,72,127
69887,note_on,1,0,0,,11,,,70,127
69962,note_on,75,0,0,,0,,,60,127
70036,note_off,74,0,0,,11,,,70,127
70037,note_on,1,0,0,,8,,,68,127
70186,note_off,149,0,0,,0,,,60,127
70187,note_on,1,0,0,,1,,,61,127
70375,note_off,188,0,0,,8,,,68,127
70411,note_off,36,0,0,,1,,,61,127
70412,note_on,1,0,0,,3,,,63,127
70637,note_off,225,0,0,,3,,,63,127
70638,note_on,1,0,0,,5,,,65,127
70863,note_off,225,0,0,,5,,,65,127
70864,note_on,1,0,0,,7,,,67,127
71089,note_off,225,0,0,,7,,,67,127
71090,note_on,1,0,0,,7,,,67,127
71090,note_on,0,0,0,,0,,,72,127
71239,note_off,149,0,0,,0,,,72,127
71240,note_on,1,0,0,,1,,,73,127
71314,note_off,74,0,0,,7,,,67,127
71315,note_on,1,0,0,,8,,,68,127
71389,note_off,74,0,0,,1,,,73,127
71390,note_on,1,0,0,,3,,,75,127
71535,note_off,145,0,0,,8,,,56,127
71540,note_off,5,0,0,,3,,,75,127
71540,note_off,0,0,0,,8,,,68,127
71541,note_on,1,0,0,,3,,,51,127
71541,note_on,0,0,0,,1,,,73,127
71541,note_on,0,0,0,,3,,,75,127
71690,note_off,149,0,0,,3,,,75,127
71690,note_off,0,0,0,,1,,,73,127
71691,note_on,1,0,0,,0,,,72,127
71766,note_on,75,0,0,,7,,,55,127
71840,note_off,74,0,0,,0,,,72,127
71841,note_on,1,0,0,,11,,,70,127
71990,note_off,149,0,0,,7,,,55,127
71991,note_on,1,0,0,,8,,,56,127
72179,note_off,188,0,0,,11,,,70,127
72215,note_off,36,0,0,,8,,,56,127
72216,note_on,1,0,0,,11,,,58,127
72441,note_off,225,0,0,,11,,,58,127
72442,note_on,1,0,0,,0,,,60,127
72667,note_off,225,0,0,,0,,,60,127
72668,note_on,1,0,0,,1,,,61,127
72893,note_off,225,0,0,,1,,,61,127
72894,note_on,1,0,0,,1,,,61,127
72894,note_on,0,0,0,,11,,,70,127
73043,note_off,149,0,0,,11,,,70,127
73044,note_on,1,0,0,,0,,,72,127
73118,note_off,74,0,0,,1,,,61,127
73119,note_on,1,0,0,,3,,,63,127
73193,note_off,74,0,0,,0,,,72,127
73194,note_on,1,0,0,,1,,,73,127
73339,note_off,145,0,0,,3,,,51,127
73344,note_off,5,0,0,,1,,,73,127
73344,note_off,0,0,0,,3,,,63,127
73345,note_on,1,0,0,,8,,,56,127
73345,note_on,0,0,0,,0,,,72,127
73345,note_on,0,0,0,,1,,,73,127
73494,note_off,149,0,0,,1,,,73,127
73494,note_off,0,0,0,,0,,,72,127
73495,note_on,1,0,0,,11,,,70,127
73570,note_on,75,0,0,,0,,,60,127
73644,note_off,74,0,0,,11,,,70,127
73645,note_on,1,0,0,,8,,,68,127
73794,note_off,149,0,0,,0,,,60,127
73795,note_on,1,0,0,,1,,,61,127
73983,note_off,188,0,0,,8,,,68,127
74019,note_off,36,0,0,,1,,,61,127
74020,note_on,1,0,0,,3,,,63,127
74245,note_off,225,0,0,,3,,,63,127
74246,note_on,1,0,0,,5,,,65,127
74471,note_off,225,0,0,,5,,,65,127
74472,note_on,1,0,0,,7,,,67,127
74697,note_off,225,0,0,,7,,,67,127
74698,note_on,1,0,0,,7,,,67,127
74698,note_on,0,0,0,,0,,,72,127
74847,note_off,149,0,0,,0,,,72,127
74848,note_on,1,0,0,,1,,,73,127
74922,note_off,74,0,0,,7,,,67,127
74923,note_on,1,0,0,,8,,,68,127
74997,note_off,74,0,0,,1,,,73,127
74998,note_on,1,0,0,,3,,,75,127
75143,note_off,145,0,0,,8,,,56,127
75148,note_off,5,0,0,,3,,,75,127
75148,note_off,0,0,0,,8,,,68,127
75149,note_on,1,0,0,,3,,,51,127
75149,note_on,0,0,0,,1,,,73,127
75149,note_on,0,0,0,,3,,,75,127
75298,note_off,149,0,0,,3,,,75,127
75298,note_off,0,0,0,,1,,,73,127
75299,note_on,1,0,0,,0,,,72,127
75374,note_on,75,0,0,,7,,,55,127
75448,note_off,74,0,0,,0,,,72,127
75449,note_on,1,0,0,,11,,,70,127
75598,note_off,149,0,0,,7,,,55,127
75599,note_on,1,0,0,,8,,,56,127
75787,note_off,188,0,0,,11,,,70,127
75823,note_off,36,0,0,,8,,,56,127
75824,note_on,1,0,0,,11,,,58,127
76049,note_off,225,0,0,,11,,,58,127
76050,note_on,1,0,0,,0,,,60,127
76275,note_off,225,0,0,,0,,,60,127
76276,note_on,1,0,0,,1,,,61,127
76501,note_off,225,0,0,,1,,,61,127
76502,note_on,1,0,0,,1,,,61,127
76502,note_on,0,0,0,,11,,,70,127
76651,note_off,149,0,0,,11,,,70,127
76652,note_on,1,0,0,,0,,,72,127
76726,note_off,74,0,0,,1,,,61,127
76727,note_on,1,0,0,,3,,,63,127
76801,note_off,74,0,0,,0,,,72,127
76802,note_on,1,0,0,,1,,,73,127
76947,note_off,145,0,0,,3,,,51,127
76952,note_off,5,0,0,,1,,,73,127
76952,note_off,0,0,0,,3,,,63,127
76953,note_on,1,0,0,,8,,,56,127
76953,note_on,0,0,0,,1,,,73,127
76953,note_on,0,0,0,,0,,,72,127
77102,note_off,149,0,0,,0,,,72,127
77102,note_off,0,0,0,,1,,,73,127
77103,note_on,1,0,0,,11,,,70,127
77252,note_off,149,0,0,,11,,,70,127
77253,note_on,1,0,0,,8,,,68,127
77402,note_off,149,0,0,,8,,,68,127
77402,note_off,0,0,0,,8,,,56,127
77403,note_on,1,0,0,,8,,,56,127
77403,note_on,0,0,0,,3,,,63,127
77403,note_on,0,0,0,,3,,,75,127
77628,note_off,225,0,0,,3,,,75,127
77629,note_on,1,0,0,,1,,,73,127
77854,note_off,225,0,0,,1,,,73,127
77854,note_off,0,0,0,,3,,,63,127
77854,note_off,0,0,0,,8,,,56,127
77855,note_on,1,0,0,,3,,,63,127
77855,note_on,0,0,0,,8,,,56,127
77855,note_on,0,0,0,,3,,,75,127
77855,note_on,0,0,0,,1,,,73,127
78080,note_off,225,0,0,,1,,,73,127
78081,note_on,1,0,0,,0,,,72,127
78306,note_off,225,0,0,,0,,,72,127
78306,note_off,0,0,0,,3,,,75,127
78306,note_off,0,0,0,,8,,,56,127
78306,note_off,0,0,0,,3,,,63,127
78307,note_on,1,0,0,,3,,,63,127
78307,note_on,0,0,0,,6,,,54,127
78307,note_on,0,0,0,,0,,,72,127
78307,note_on,0,0,0,,3,,,75,127
78532,note_off,225,0,0,,0,,,72,127
78533,note_on,1,0,0,,11,,,70,127
78758,note_off,225,0,0,,11,,,70,127
78758,note_off,0,0,0,,3,,,75,127
78758,note_off,0,0,0,,6,,,54,127
78758,note_off,0,0,0,,3,,,63,127
78759,note_on,1,0,0,,5,,,53,127
78759,note_on,0,0,0,,3,,,75,127
78759,note_on,0,0,0,,11,,,70,127
78984,note_off,225,0,0,,5,,,53,127
78985,note_on,1,0,0,,3,,,63,127
79210,note_off,225,0,0,,3,,,63,127
79210,note_off,0,0,0,,11,,,70,127
79211,note_on,1,0,0,,6,,,66,127
79211,note_on,0,0,0,,10,,,69,127
79436,note_off,225,0,0,,6,,,66,127
79437,note_on,1,0,0,,3,,,63,127
79662,note_off,225,0,0,,3,,,63,127
79662,note_off,0,0,0,,3,,,75,127
79663,note_on,1,0,0,,0,,,60,127
79888,note_off,225,0,0,,0,,,60,127
79888,note_off,0,0,0,,10,,,69,127
79889,note_on,1,0,0,,3,,,63,127
80114,note_off,225,0,0,,3,,,63,127
80115,note_on,1,0,0,,6,,,54,127
80115,note_on,0,0,0,,3,,,75,127
80115,note_on,0,0,0,,0,,,72,127
80189,note_off,74,0,0,,0,,,72,127
80190,note_on,1,0,0,,11,,,70,127
80264,note_off,74,0,0,,11,,,70,127
80265,note_on,1,0,0,,0,,,72,127
80339,note_off,74,0,0,,0,,,72,127
80339,note_off,0,0,0,,6,,,54,127
80340,note_on,1,0,0,,3,,,63,127
80340,note_on,0,0,0,,11,,,70,127
80414,note_off,74,0,0,,11,,,70,127
80415,note_on,1,0,0,,10,,,69,127
80489,note_off,74,0,0,,10,,,69,127
80490,note_on,1,0,0,,11,,,70,127
80564,note_off,74,0,0,,11,,,70,127
80564,note_off,0,0,0,,3,,,63,127
80564,note_off,0,0,0,,3,,,75,127
80565,note_on,1,0,0,,5,,,53,127
80565,note_on,0,0,0,,3,,,75,127
80565,note_on,0,0,0,,11,,,70,127
80790,note_off,225,0,0,,5,,,53,127
80791,note_on,1,0,0,,3,,,63,127
81016,note_off,225,0,0,,3,,,63,127
81016,note_off,0,0,0,,11,,,70,127
81017,note_on,1,0,0,,6,,,66,127
81017,note_on,0,0,0,,0,,,72,127
81242,note_off,225,0,0,,6,,,66,127
81243,note_on,1,0,0,,3,,,63,127
81468,note_off,225,0,0,,3,,,63,127
81468,note_off,0,0,0,,3,,,75,127
81469,note_on,1,0,0,,0,,,60,127
81694,note_off,225,0,0,,0,,,60,127
81694,note_off,0,0,0,,0,,,72,127
81695,note_on,1,0,0,,3,,,63,127
81920,note_off,225,0,0,,3,,,63,127
81921,note_on,1,0,0,,6,,,54,127
81921,note_on,0,0,0,,0,,,72,127
81921,note_on,0,0,0,,3,,,75,127
81995,note_off,74,0,0,,0,,,72,127
81996,note_on,1,0,0,,11,,,70,127
82070,note_off,74,0,0,,11,,,70,127
82071,note_on,1,0,0,,0,,,72,127
82145,note_off,74,0,0,,0,,,72,127
82145,note_off,0,0,0,,6,,,54,127
82146,note_on,1,0,0,,3,,,63,127
82146,note_on,0,0,0,,11,,,70,127
82220,note_off,74,0,0,,11,,,70,127
82221,note_on,1,0,0,,10,,,69,127
82295,note_off,74,0,0,,10,,,69,127
82296,note_on,1,0,0,,11,,,70,127
82370,note_off,74,0,0,,11,,,70,127
82370,note_off,0,0,0,,3,,,63,127
82370,note_off,0,0,0,,3,,,75,127
82371,note_on,1,0,0,,5,,,53,127
82371,note_on,0,0,0,,3,,,75,127
82371,note_on,0,0,0,,11,,,70,127
82596,note_off,225,0,0,,5,,,53,127
82597,note_on,1,0,0,,3,,,63,127
82822,note_off,225,0,0,,3,,,63,127
82822,note_off,0,0,0,,11,,,70,127
82823,note_on,1,0,0,,6,,,66,127
82823,note_on,0,0,0,,0,,,72,127
83048,note_off,225,0,0,,6,,,66,127
83049,note_on,1,0,0,,3,,,63,127
83274,note_off,225,0,0,,3,,,63,127
83274,note_off,0,0,0,,3,,,75,127
83275,note_on,1,0,0,,0,,,60,127
83500,note_off,225,0,0,,0,,,60,127
83500,note_off,0,0,0,,0,,,72,127
83501,note_on,1,0,0,,3,,,63,127
83726,note_off,225,0,0,,3,,,63,127
83727,note_on,1,0,0,,5,,,53,127
83727,note_on,0,0,0,,0,,,72,127
83876,note_off,149,0,0,,0,,,72,127
83877,note_on,1,0,0,,1,,,73,127
83951,note_off,74,0,0,,5,,,53,127
83952,note_on,1,0,0,,10,,,57,127
84026,note_off,74,0,0,,1,,,73,127
84027,note_on,1,0,0,,3,,,75,127
84176,note_off,149,0,0,,3,,,75,127
84176,note_off,0,0,0,,10,,,57,127
84177,note_on,1,0,0,,11,,,46,127
84177,note_on,0,0,0,,1,,,73,127
84177,note_on,0,0,0,,3,,,75,127
84326,note_off,149,0,0,,3,,,75,127
84326,note_off,0,0,0,,1,,,73,127
84327,note_on,1,0,0,,0,,,72,127
84476,note_off,149,0,0,,0,,,72,127
84477,note_on,1,0,0,,11,,,70,127
84626,note_off,149,0,0,,11,,,70,127
84626,note_off,0,0,0,,11,,,46,127
84627,note_on,1,0,0,,11,,,58,127
84627,note_on,0,0,0,,1,,,49,127
84627,note_on,0,0,0,,11,,,82,127
84852,note_off,225,0,0,,11,,,82,127
84853,note_on,1,0,0,,5,,,77,127
85078,note_off,225,0,0,,5,,,77,127
85078,note_off,0,0,0,,1,,,49,127
85078,note_off,0,0,0,,11,,,58,127
85079,note_on,1,0,0,,11,,,58,127
85079,note_on,0,0,0,,0,,,48,127
85079,note_on,0,0,0,,5,,,77,127
85304,note_off,225,0,0,,5,,,77,127
85305,note_on,1,0,0,,4,,,76,127
85530,note_off,225,0,0,,4,,,76,127
85530,note_off,0,0,0,,0,,,48,127
85530,note_off,0,0,0,,11,,,58,127
85531,note_on,1,0,0,,4,,,52,127
85531,note_on,0,0,0,,0,,,60,127
85531,note_on,0,0,0,,7,,,79,127
85756,note_off,225,0,0,,7,,,79,127
85757,note_on,1,0,0,,11,,,70,127
85982,note_off,225,0,0,,11,,,70,127
85982,note_off,0,0,0,,0,,,60,127
85982,note_off,0,0,0,,4,,,52,127
85983,note_on,1,0,0,,0,,,60,127
85983,note_on,0,0,0,,5,,,53,127
85983,note_on,0,0,0,,8,,,68,127
86132,note_off,149,0,0,,8,,,68,127
86133,note_on,1,0,0,,7,,,67,127
86282,note_off,149,0,0,,7,,,67,127
86283,note_on,1,0,0,,5,,,65,127
86432,note_off,149,0,0,,5,,,65,127
86432,note_off,0,0,0,,5,,,53,127
86432,note_off,0,0,0,,0,,,60,127
86433,note_on,1,0,0,,5,,,65,127
86433,note_on,0,0,0,,8,,,56,127
86433,note_on,0,0,0,,0,,,84,127
86658,note_off,225,0,0,,0,,,84,127
86659,note_on,1,0,0,,8,,,80,127
86884,note_off,225,0,0,,8,,,80,127
86884,note_off,0,0,0,,8,,,56,127
86884,note_off,0,0,0,,5,,,65,127
86885,note_on,1,0,0,,5,,,65,127
86885,note_on,0,0,0,,11,,,58,127
86885,note_on,0,0,0,,11,,,82,127
86885,note_on,0,0,0,,8,,,80,127
87110,note_off,225,0,0,,8,,,80,127
87110,note_off,0,0,0,,11,,,82,127
87111,note_on,1,0,0,,7,,,79,127
87336,note_off,225,0,0,,7,,,79,127
87336,note_off,0,0,0,,11,,,58,127
87336,note_off,0,0,0,,5,,,65,127
87337,note_on,1,0,0,,1,,,61,127
87337,note_on,0,0,0,,5,,,65,127
87337,note_on,0,0,0,,8,,,80,127
87337,note_on,0,0,0,,7,,,79,127
87562,note_off,225,0,0,,7,,,79,127
87562,note_off,0,0,0,,8,,,80,127
87563,note_on,1,0,0,,5,,,77,127
87788,note_off,225,0,0,,5,,,77,127
87788,note_off,0,0,0,,5,,,65,127
87788,note_off,0,0,0,,1,,,61,127
87789,note_on,1,0,0,,0,,,60,127
87789,note_on,0,0,0,,5,,,77,127
88014,note_off,225,0,0,,0,,,60,127
88015,note_on,1,0,0,,11,,,70,127
88240,note_off,225,0,0,,11,,,70,127
88240,note_off,0,0,0,,5,,,77,127
88241,note_on,1,0,0,,1,,,73,127
88241,note_on,0,0,0,,7,,,79,127
88466,note_off,225,0,0,,1,,,73,127
88467,note_on,1,0,0,,11,,,70,127
88692,note_off,225,0,0,,11,,,70,127
88693,note_on,1,0,0,,7,,,67,127
88918,note_off,225,0,0,,7,,,67,127
88918,note_off,0,0,0,,7,,,79,127
88919,note_on,1,0,0,,11,,,70,127
89144,note_off,225,0,0,,11,,,70,127
89145,note_on,1,0,0,,1,,,61,127
89145,note_on,0,0,0,,7,,,79,127
89145,note_on,0,0,0,,11,,,82,127
89219,note_off,74,0,0,,7,,,79,127
89220,note_on,1,0,0,,5,,,77,127
89294,note_off,74,0,0,,5,,,77,127
89295,note_on,1,0,0,,7,,,79,127
89369,note_off,74,0,0,,7,,,79,127
89369,note_off,0,0,0,,1,,,61,127
89370,note_on,1,0,0,,11,,,70,127
89370,note_on,0,0,0,,5,,,77,127
89444,note_off,74,0,0,,5,,,77,127
89445,note_on,1,0,0,,4,,,76,127
89519,note_off,74,0,0,,4,,,76,127
89520,note_on,1,0,0,,5,,,77,127
89594,note_off,74,0,0,,5,,,77,127
89594,note_off,0,0,0,,11,,,70,127
89594,note_off,0,0,0,,11,,,82,127
89595,note_on,1,0,0,,0,,,60,127
89595,note_on,0,0,0,,11,,,82,127
89595,note_on,0,0,0,,5,,,77,127
89820,note_off,225,0,0,,0,,,60,127
89821,note_on,1,0,0,,11,,,70,127
90046,note_off,225,0,0,,11,,,70,127
90046,note_off,0,0,0,,5,,,77,127
90047,note_on,1,0,0,,1,,,73,127
90047,note_on,0,0,0,,7,,,79,127
90272,note_off,225,0,0,,1,,,73,127
90273,note_on,1,0,0,,11,,,70,127
90498,note_off,225,0,0,,11,,,70,127
90498,note_off,0,0,0,,11,,,82,127
90499,note_on,1,0,0,,7,,,67,127
90724,note_off,225,0,0,,7,,,67,127
90724,note_off,0,0,0,,7,,,79,127
90725,note_on,1,0,0,,11,,,70,127
90950,note_off,225,0,0,,11,,,70,127
90951,note_on,1,0,0,,1,,,61,127
90951,note_on,0,0,0,,11,,,82,127
90951,note_on,0,0,0,,7,,,79,127
91025,note_off,74,0,0,,7,,,79,127
91026,note_on,1,0,0,,5,,,77,127
91100,note_off,74,0,0,,5,,,77,127
91101,note_on,1,0,0,,7,,,79,127
91175,note_off,74,0,0,,7,,,79,127
91175,note_off,0,0,0,,1,,,61,127
91176,note_on,1,0,0,,11,,,70,127
91176,note_on,0,0,0,,5,,,77,127
91250,note_off,74,0,0,,5,,,77,127
91251,note_on,1,0,0,,4,,,76,127
91325,note_off,74,0,0,,4,,,76,127
91326,note_on,1,0,0,,5,,,77,127
91400,note_off,74,0,0,,5,,,77,127
91400,note_off,0,0,0,,11,,,70,127
91400,note_off,0,0,0,,11,,,82,127
91401,note_on,1,0,0,,0,,,60,127
91401,note_on,0,0,0,,11,,,82,127
91401,note_on,0,0,0,,5,,,77,127
91626,note_off,225,0,0,,0,,,60,127
91627,note_on,1,0,0,,11,,,70,127
91852,note_off,225,0,0,,11,,,70,127
91852,note_off,0,0,0,,5,,,77,127
91853,note_on,1,0,0,,1,,,73,127
91853,note_on,0,0,0,,7,,,79,127
92078,note_off,225,0,0,,1,,,73,127
92079,note_on,1,0,0,,11,,,70,127
92304,note_off,225,0,0,,11,,,70,127
92304,note_off,0,0,0,,11,,,82,127
92305,note_on,1,0,0,,7,,,67,127
92530,note_off,225,0,0,,7,,,67,127
92530,note_off,0,0,0,,7,,,79,127
92531,note_on,1,0,0,,11,,,70,127
92756,note_off,225,0,0,,11,,,70,127
92757,note_on,1,0,0,,0,,,60,127
92757,note_on,0,0,0,,7,,,79,127
92906,note_off,149,0,0,,7,,,79,127
92907,note_on,1,0,0,,8,,,80,127
92982,note_on,75,0,0,,4,,,64,127
93056,note_off,74,0,0,,8,,,80,127
93057,note_on,1,0,0,,11,,,82,127
93206,note_off,149,0,0,,11,,,82,127
93206,note_off,0,0,0,,4,,,64,127
93206,note_off,0,0,0,,0,,,60,127
93207,note_on,1,0,0,,5,,,53,127
93207,note_on,0,0,0,,11,,,82,127
93207,note_on,0,0,0,,8,,,80,127
93356,note_off,149,0,0,,8,,,80,127
93356,note_off,0,0,0,,11,,,82,127
93357,note_on,1,0,0,,7,,,79,127
93432,note_on,75,0,0,,5,,,65,127
93506,note_off,74,0,0,,7,,,79,127
93507,note_on,1,0,0,,5,,,77,127
93545,note_off,38,0,0,,5,,,53,127
93657,note_off,112,0,0,,5,,,65,127
93658,note_on,1,0,0,,8,,,68,127
93846,note_off,188,0,0,,5,,,77,127
93882,note_off,36,0,0,,8,,,68,127
93883,note_on,1,0,0,,5,,,65,127
94108,note_off,225,0,0,,5,,,65,127
94109,note_on,1,0,0,,1,,,61,127
94334,note_off,225,0,0,,1,,,61,127
94335,note_on,1,0,0,,5,,,65,127
94560,note_off,225,0,0,,5,,,65,127
94561,note_on,1,0,0,,11,,,58,127
94561,note_on,0,0,0,,7,,,79,127
94710,note_off,149,0,0,,7,,,79,127
94711,note_on,1,0,0,,8,,,80,127
94786,note_on,75,0,0,,1,,,61,127
94860,note_off,74,0,0,,8,,,80,127
94861,note_on,1,0,0,,11,,,82,127
94999,note_off,138,0,0,,1,,,61,127
95007,note_off,8,0,0,,11,,,58,127
95011,note_off,4,0,0,,11,,,82,127
95012,note_on,1,0,0,,0,,,36,127
95012,note_on,0,0,0,,0,,,72,127
95237,note_off,225,0,0,,0,,,72,127
95238,note_on,1,0,0,,11,,,82,127
95463,note_off,225,0,0,,11,,,82,127
95464,note_on,1,0,0,,8,,,80,127
95689,note_off,225,0,0,,8,,,80,127
95690,note_on,1,0,0,,5,,,77,127
95915,note_off,225,0,0,,5,,,77,127
95915,note_off,0,0,0,,0,,,36,127
95916,note_on,1,0,0,,0,,,36,127
95916,note_on,0,0,0,,11,,,82,127
96141,note_off,225,0,0,,11,,,82,127
96142,note_on,1,0,0,,7,,,79,127
96367,note_off,225,0,0,,7,,,79,127
96368,note_on,1,0,0,,5,,,77,127
96593,note_off,225,0,0,,5,,,77,127
96594,note_on,1,0,0,,4,,,76,127
96819,note_off,225,0,0,,4,,,76,127
96819,note_off,0,0,0,,0,,,36,127
96820,note_on,1,0,0,,5,,,53,127
96820,note_on,0,0,0,,4,,,76,127
97046,note_on,226,0,0,,8,,,56,127
97271,note_off,225,0,0,,8,,,56,127
97271,note_off,0,0,0,,4,,,76,127
97272,note_on,1,0,0,,11,,,58,127
97272,note_on,0,0,0,,5,,,77,127
97497,note_off,225,0,0,,11,,,58,127
97498,note_on,1,0,0,,0,,,60,127
97723,note_off,225,0,0,,0,,,60,127
97724,note_on,1,0,0,,1,,,61,127
97949,note_off,225,0,0,,1,,,61,127
97949,note_off,0,0,0,,5,,,77,127
97950,note_on,1,0,0,,4,,,64,127
98175,note_off,225,0,0,,4,,,64,127
98176,note_on,1,0,0,,4,,,64,127
98176,note_on,0,0,0,,7,,,79,127
98401,note_off,225,0,0,,7,,,79,127
98401,note_off,0,0,0,,4,,,64,127
98402,note_on,1,0,0,,5,,,65,127
98402,note_on,0,0,0,,8,,,80,127
98622,note_off,220,0,0,,5,,,53,127
98627,note_off,5,0,0,,8,,,80,127
98627,note_off,0,0,0,,5,,,65,127
98628,note_on,1,0,0,,7,,,55,127
98628,note_on,0,0,0,,11,,,82,127
98777,note_off,149,0,0,,11,,,82,127
98778,note_on,1,0,0,,8,,,80,127
98853,note_on,75,0,0,,11,,,58,127
98927,note_off,74,0,0,,8,,,80,127
98928,note_on,1,0,0,,7,,,79,127
99077,note_off,149,0,0,,11,,,58,127
99078,note_on,1,0,0,,0,,,60,127
99266,note_off,188,0,0,,7,,,79,127
99302,note_off,36,0,0,,0,,,60,127
99303,note_on,1,0,0,,2,,,62,127
99528,note_off,225,0,0,,2,,,62,127
99529,note_on,1,0,0,,4,,,64,127
99754,note_off,225,0,0,,4,,,64,127
99755,note_on,1,0,0,,5,,,65,127
99980,note_off,225,0,0,,5,,,65,127
99981,note_on,1,0,0,,5,,,65,127
99981,note_on,0,0,0,,8,,,80,127
100206,note_off,225,0,0,,8,,,80,127
100206,note_off,0,0,0,,5,,,65,127
100207,note_on,1,0,0,,7,,,67,127
100207,note_on,0,0,0,,11,,,82,127
100427,note_off,220,0,0,,7,,,55,127
100432,note_off,5,0,0,,11,,,82,127
100432,note_off,0,0,0,,7,,,67,127
100433,note_on,1,0,0,,8,,,56,127
100433,note_on,0,0,0,,0,,,84,127
100582,note_off,149,0,0,,0,,,84,127
100583,note_on,1,0,0,,11,,,82,127
100658,note_on,75,0,0,,0,,,60,127
100732,note_off,74,0,0,,11,,,82,127
100733,note_on,1,0,0,,8,,,80,127
100882,note_off,149,0,0,,0,,,60,127
100883,note_on,1,0,0,,1,,,61,127
101071,note_off,188,0,0,,8,,,80,127
101107,note_off,36,0,0,,1,,,61,127
101108,note_on,1,0,0,,4,,,64,127
101333,note_off,225,0,0,,4,,,64,127
101334,note_on,1,0,0,,5,,,65,127
101559,note_off,225,0,0,,5,,,65,127
101560,note_on,1,0,0,,7,,,67,127
101785,note_off,225,0,0,,7,,,67,127
101786,note_on,1,0,0,,7,,,67,127
101786,note_on,0,0,0,,11,,,82,127
102011,note_off,225,0,0,,11,,,82,127
102011,note_off,0,0,0,,7,,,67,127
102012,note_on,1,0,0,,8,,,68,127
102012,note_on,0,0,0,,0,,,84,127
102232,note_off,220,0,0,,8,,,56,127
102237,note_off,5,0,0,,0,,,84,127
102237,note_off,0,0,0,,8,,,68,127
102238,note_on,1,0,0,,11,,,58,127
102238,note_on,0,0,0,,1,,,85,127
102312,note_off,74,0,0,,1,,,85,127
102313,note_on,1,0,0,,0,,,84,127
102387,note_off,74,0,0,,0,,,84,127
102388,note_on,1,0,0,,11,,,82,127
102463,note_on,75,0,0,,1,,,61,127
102688,note_off,225,0,0,,1,,,61,127
102689,note_on,1,0,0,,4,,,64,127
102914,note_off,225,0,0,,4,,,64,127
102915,note_on,1,0,0,,5,,,65,127
103140,note_off,225,0,0,,5,,,65,127
103141,note_on,1,0,0,,7,,,67,127
103366,note_off,225,0,0,,7,,,67,127
103366,note_off,0,0,0,,11,,,82,127
103367,note_on,1,0,0,,8,,,68,127
103367,note_on,0,0,0,,8,,,80,127
103592,note_off,225,0,0,,8,,,80,127
103592,note_off,0,0,0,,8,,,68,127
103593,note_on,1,0,0,,8,,,68,127
103593,note_on,0,0,0,,7,,,79,127
103818,note_off,225,0,0,,7,,,79,127
103818,note_off,0,0,0,,8,,,68,127
103819,note_on,1,0,0,,11,,,70,127
103819,note_on,0,0,0,,5,,,77,127
104039,note_off,220,0,0,,11,,,58,127
104044,note_off,5,0,0,,5,,,77,127
104044,note_off,0,0,0,,11,,,70,127
104045,note_on,1,0,0,,0,,,72,127
104045,note_on,0,0,0,,0,,,60,127
104045,note_on,0,0,0,,4,,,76,127
104270,note_off,225,0,0,,4,,,76,127
104271,note_on,1,0,0,,11,,,82,127
104496,note_off,225,0,0,,11,,,82,127
104497,note_on,1,0,0,,7,,,79,127
104722,note_off,225,0,0,,7,,,79,127
104723,note_on,1,0,0,,4,,,76,127
104948,note_off,225,0,0,,4,,,76,127
104948,note_off,0,0,0,,0,,,60,127
104948,note_off,0,0,0,,0,,,72,127
104949,note_on,1,0,0,,1,,,73,127
104949,note_on,0,0,0,,0,,,60,127
104949,note_on,0,0,0,,11,,,82,127
105174,note_off,225,0,0,,11,,,82,127
105175,note_on,1,0,0,,8,,,80,127
105400,note_off,225,0,0,,8,,,80,127
105401,note_on,1,0,0,,7,,,79,127
105626,note_off,225,0,0,,7,,,79,127
105627,note_on,1,0,0,,5,,,77,127
105852,note_off,225,0,0,,5,,,77,127
105852,note_off,0,0,0,,0,,,60,127
105852,note_off,0,0,0,,1,,,73,127
105853,note_on,1,0,0,,0,,,72,127
105853,note_on,0,0,0,,0,,,60,127
105853,note_on,0,0,0,,4,,,76,127
106078,note_off,225,0,0,,4,,,76,127
106079,note_on,1,0,0,,11,,,82,127
106304,note_off,225,0,0,,11,,,82,127
106305,note_on,1,0,0,,7,,,79,127
106530,note_off,225,0,0,,7,,,79,127
106531,note_on,1,0,0,,4,,,76,127
106756,note_off,225,0,0,,4,,,76,127
106756,note_off,0,0,0,,0,,,60,127
106756,note_off,0,0,0,,0,,,72,127
106757,note_on,1,0,0,,2,,,74,127
106757,note_on,0,0,0,,0,,,60,127
106757,note_on,0,0,0,,12,,,83,127
106982,note_off,225,0,0,,12,,,83,127
106983,note_on,1,0,0,,8,,,80,127
107208,note_off,225,0,0,,8,,,80,127
107209,note_on,1,0,0,,7,,,79,127
107434,note_off,225,0,0,,7,,,79,127
107435,note_on,1,0,0,,5,,,77,127
107660,note_off,225,0,0,,5,,,77,127
107660,note_off,0,0,0,,0,,,60,127
107660,note_off,0,0,0,,2,,,74,127
107661,note_on,1,0,0,,0,,,60,127
107661,note_on,0,0,0,,5,,,77,127
107886,note_off,225,0,0,,0,,,60,127
107887,note_on,1,0,0,,11,,,70,127
108112,note_off,225,0,0,,11,,,70,127
108112,note_off,0,0,0,,5,,,77,127
108113,note_on,1,0,0,,1,,,73,127
108113,note_on,0,0,0,,7,,,79,127
108338,note_off,225,0,0,,1,,,73,127
108339,note_on,1,0,0,,11,,,70,127
108564,note_off,225,0,0,,11,,,70,127
108565,note_on,1,0,0,,7,,,67,127
108790,note_off,225,0,0,,7,,,67,127
108790,note_off,0,0,0,,7,,,79,127
108791,note_on,1,0,0,,11,,,70,127
109016,note_off,225,0,0,,11,,,70,127
109017,note_on,1,0,0,,0,,,60,127
109017,note_on,0,0,0,,7,,,79,127
109166,note_off,149,0,0,,7,,,79,127
109167,note_on,1,0,0,,8,,,80,127
109242,note_on,75,0,0,,4,,,64,127
109316,note_off,74,0,0,,8,,,80,127
109317,note_on,1,0,0,,11,,,82,127
109466,note_off,149,0,0,,11,,,82,127
109466,note_off,0,0,0,,4,,,64,127
109466,note_off,0,0,0,,0,,,60,127
109467,note_on,1,0,0,,5,,,53,127
109467,note_on,0,0,0,,8,,,80,127
109467,note_on,0,0,0,,11,,,82,127
109616,note_off,149,0,0,,11,,,82,127
109616,note_off,0,0,0,,8,,,80,127
109617,note_on,1,0,0,,7,,,79,127
109692,note_on,75,0,0,,5,,,65,127
109766,note_off,74,0,0,,7,,,79,127
109767,note_on,1,0,0,,5,,,77,127
109805,note_off,38,0,0,,5,,,53,127
109917,note_off,112,0,0,,5,,,65,127
109918,note_on,1,0,0,,8,,,68,127
110106,note_off,188,0,0,,5,,,77,127
110142,note_off,36,0,0,,8,,,68,127
110143,note_on,1,0,0,,5,,,65,127
110368,note_off,225,0,0,,5,,,65,127
110369,note_on,1,0,0,,1,,,61,127
110594,note_off,225,0,0,,1,,,61,127
110595,note_on,1,0,0,,5,,,65,127
110820,note_off,225,0,0,,5,,,65,127
110821,note_on,1,0,0,,11,,,58,127
110821,note_on,0,0,0,,7,,,79,127
110970,note_off,149,0,0,,7,,,79,127
110971,note_on,1,0,0,,8,,,80,127
111046,note_on,75,0,0,,1,,,61,127
111120,note_off,74,0,0,,8,,,80,127
111121,note_on,1,0,0,,11,,,82,127
111259,note_off,138,0,0,,1,,,61,127
111263,note_off,4,0,0,,11,,,58,127
111271,note_off,8,0,0,,11,,,82,127
111272,note_on,1,0,0,,0,,,36,127
111272,note_on,0,0,0,,0,,,72,127
111497,note_off,225,0,0,,0,,,72,127
111498,note_on,1,0,0,,11,,,82,127
111723,note_off,225,0,0,,11,,,82,127
111724,note_on,1,0,0,,8,,,80,127
111949,note_off,225,0,0,,8,,,80,127
111950,note_on,1,0,0,,5,,,77,127
112175,note_off,225,0,0,,5,,,77,127
112175,note_off,0,0,0,,0,,,36,127
112176,note_on,1,0,0,,0,,,36,127
112176,note_on,0,0,0,,11,,,82,127
112401,note_off,225,0,0,,11,,,82,127
112402,note_on,1,0,0,,7,,,79,127
112627,note_off,225,0,0,,7,,,79,127
112628,note_on,1,0,0,,5,,,77,127
112853,note_off,225,0,0,,5,,,77,127
112854,note_on,1,0,0,,4,,,76,127
113079,note_off,225,0,0,,4,,,76,127
113079,note_off,0,0,0,,0,,,36,127
113080,note_on,1,0,0,,5,,,53,127
113080,note_on,0,0,0,,4,,,76,127
113305,note_off,225,0,0,,5,,,53,127
113306,note_on,1,0,0,,10,,,57,127
113531,note_off,225,0,0,,10,,,57,127
113531,note_off,0,0,0,,4,,,76,127
113532,note_on,1,0,0,,0,,,60,127
113532,note_on,0,0,0,,5,,,77,127
113757,note_off,225,0,0,,0,,,60,127
113758,note_on,1,0,0,,3,,,63,127
113983,note_off,225,0,0,,3,,,63,127
113984,note_on,1,0,0,,6,,,66,127
114209,note_off,225,0,0,,6,,,66,127
114209,note_off,0,0,0,,5,,,77,127
114210,note_on,1,0,0,,11,,,70,127
114435,note_off,225,0,0,,11,,,70,127
114436,note_on,1,0,0,,10,,,69,127
114436,note_on,0,0,0,,0,,,84,127
114585,note_off,149,0,0,,0,,,84,127
114586,note_on,1,0,0,,1,,,85,127
114660,note_off,74,0,0,,10,,,69,127
114661,note_on,1,0,0,,5,,,65,127
114735,note_off,74,0,0,,1,,,85,127
114736,note_on,1,0,0,,3,,,87,127
114885,note_off,149,0,0,,3,,,87,127
114885,note_off,0,0,0,,5,,,65,127
114886,note_on,1,0,0,,11,,,58,127
114886,note_on,0,0,0,,3,,,87,127
114886,note_on,0,0,0,,1,,,85,127
115035,note_off,149,0,0,,1,,,85,127
115035,note_off,0,0,0,,3,,,87,127
115036,note_on,1,0,0,,0,,,84,127
115110,note_off,74,0,0,,11,,,58,127
115111,note_on,1,0,0,,1,,,61,127
115185,note_off,74,0,0,,0,,,84,127
115186,note_on,1,0,0,,11,,,82,127
115335,note_off,149,0,0,,1,,,61,127
115336,note_on,1,0,0,,5,,,65,127
115524,note_off,188,0,0,,11,,,82,127
115560,note_off,36,0,0,,5,,,65,127
115561,note_on,1,0,0,,11,,,70,127
115786,note_off,225,0,0,,11,,,70,127
115787,note_on,1,0,0,,1,,,73,127
116012,note_off,225,0,0,,1,,,73,127
116013,note_on,1,0,0,,5,,,77,127
116238,note_off,225,0,0,,5,,,77,127
116239,note_on,1,0,0,,4,,,76,127
116239,note_on,0,0,0,,7,,,79,127
116388,note_off,149,0,0,,7,,,79,127
116389,note_on,1,0,0,,8,,,80,127
116463,note_off,74,0,0,,4,,,76,127
116464,note_on,1,0,0,,0,,,72,127
116538,note_off,74,0,0,,8,,,80,127
116539,note_on,1,0,0,,11,,,82,127
116688,note_off,149,0,0,,11,,,82,127
116688,note_off,0,0,0,,0,,,72,127
116689,note_on,1,0,0,,5,,,77,127
116689,note_on,0,0,0,,8,,,80,127
116689,note_on,0,0,0,,11,,,82,127
116838,note_off,149,0,0,,11,,,82,127
116838,note_off,0,0,0,,8,,,80,127
116839,note_on,1,0,0,,7,,,79,127
116988,note_off,149,0,0,,7,,,79,127
116989,note_on,1,0,0,,8,,,80,127
117138,note_off,149,0,0,,8,,,80,127
117138,note_off,0,0,0,,5,,,77,127
117139,note_on,1,0,0,,11,,,70,127
117139,note_on,0,0,0,,11,,,82,127
117139,note_on,0,0,0,,0,,,84,127
117288,note_off,149,0,0,,0,,,84,127
117288,note_off,0,0,0,,11,,,82,127
117289,note_on,1,0,0,,8,,,80,127
117438,note_off,149,0,0,,8,,,80,127
117439,note_on,1,0,0,,7,,,79,127
117588,note_off,149,0,0,,7,,,79,127
117588,note_off,0,0,0,,11,,,70,127
117589,note_on,1,0,0,,0,,,72,127
117589,note_on,0,0,0,,5,,,77,127
118040,note_off,451,0,0,,0,,,72,127
118041,note_on,1,0,0,,0,,,60,127
118107,note_off,66,0,0,,5,,,77,127
118116,note_on,9,0,0,,4,,,76,127
118190,note_off,74,0,0,,4,,,76,127
118191,note_on,1,0,0,,5,,,77,127
118265,note_off,74,0,0,,5,,,77,127
118266,note_on,1,0,0,,4,,,76,127
118340,note_off,74,0,0,,4,,,76,127
118341,note_on,1,0,0,,2,,,74,127
118415,note_off,74,0,0,,2,,,74,127
118416,note_on,1,0,0,,4,,,76,127
118490,note_off,74,0,0,,4,,,76,127
118490,note_off,0,0,0,,0,,,60,127
118491,note_on,1,0,0,,5,,,53,127
118491,note_on,0,0,0,,7,,,79,127
118716,note_off,225,0,0,,5,,,53,127
118717,note_on,1,0,0,,10,,,57,127
118942,note_off,225,0,0,,10,,,57,127
118942,note_off,0,0,0,,7,,,79,127
118943,note_on,1,0,0,,0,,,60,127
118943,note_on,0,0,0,,5,,,77,127
119168,note_off,225,0,0,,0,,,60,127
119169,note_on,1,0,0,,3,,,63,127
119394,note_off,225,0,0,,3,,,63,127
119395,note_on,1,0,0,,6,,,66,127
119620,note_off,225,0,0,,6,,,66,127
119620,note_off,0,0,0,,5,,,77,127
119621,note_on,1,0,0,,11,,,70,127
119846,note_off,225,0,0,,11,,,70,127
119847,note_on,1,0,0,,10,,,69,127
119847,note_on,0,0,0,,0,,,84,127
119996,note_off,149,0,0,,0,,,84,127
119997,note_on,1,0,0,,1,,,85,127
120071,note_off,74,0,0,,10,,,69,127
120072,note_on,1,0,0,,5,,,65,127
120146,note_off,74,0,0,,1,,,85,127
120147,note_on,1,0,0,,3,,,87,127
120296,note_off,149,0,0,,3,,,87,127
120296,note_off,0,0,0,,5,,,65,127
120297,note_on,1,0,0,,11,,,58,127
120297,note_on,0,0,0,,3,,,87,127
120297,note_on,0,0,0,,1,,,85,127
120446,note_off,149,0,0,,1,,,85,127
120446,note_off,0,0,0,,3,,,87,127
120447,note_on,1,0,0,,0,,,84,127
120521,note_off,74,0,0,,11,,,58,127
120522,note_on,1,0,0,,1,,,61,127
120596,note_off,74,0,0,,0,,,84,127
120597,note_on,1,0,0,,11,,,82,127
120746,note_off,149,0,0,,1,,,61,127
120747,note_on,1,0,0,,5,,,65,127
120935,note_off,188,0,0,,11,,,82,127
120971,note_off,36,0,0,,5,,,65,127
120972,note_on,1,0,0,,11,,,70,127
121197,note_off,225,0,0,,11,,,70,127
121198,note_on,1,0,0,,1,,,73,127
121423,note_off,225,0,0,,1,,,73,127
121424,note_on,1,0,0,,5,,,77,127
121649,note_off,225,0,0,,5,,,77,127
121650,note_on,1,0,0,,4,,,76,127
121650,note_on,0,0,0,,7,,,79,127
121799,note_off,149,0,0,,7,,,79,127
121800,note_on,1,0,0,,8,,,80,127
121874,note_off,74,0,0,,4,,,76,127
121875,note_on,1,0,0,,0,,,72,127
121949,note_off,74,0,0,,8,,,80,127
121950,note_on,1,0,0,,11,,,82,127
122099,note_off,149,0,0,,11,,,82,127
122099,note_off,0,0,0,,0,,,72,127
122100,note_on,1,0,0,,5,,,77,127
122100,note_on,0,0,0,,11,,,82,127
122100,note_on,0,0,0,,8,,,80,127
122249,note_off,149,0,0,,8,,,80,127
122249,note_off,0,0,0,,11,,,82,127
122250,note_on,1,0,0,,7,,,79,127
122399,note_off,149,0,0,,7,,,79,127
122400,note_on,1,0,0,,8,,,80,127
122549,note_off,149,0,0,,8,,,80,127
122549,note_off,0,0,0,,5,,,77,127
122550,note_on,1,0,0,,11,,,70,127
122550,note_on,0,0,0,,0,,,84,127
122550,note_on,0,0,0,,11,,,82,127
122699,note_off,149,0,0,,11,,,82,127
122699,note_off,0,0,0,,0,,,84,127
122700,note_on,1,0,0,,8,,,80,127
122849,note_off,149,0,0,,8,,,80,127
122850,note_on,1,0,0,,7,,,79,127
122999,note_off,149,0,0,,7,,,79,127
122999,note_off,0,0,0,,11,,,70,127
123000,note_on,1,0,0,,0,,,72,127
123000,note_on,0,0,0,,5,,,77,127
123451,note_off,451,0,0,,0,,,72,127
123452,note_on,1,0,0,,0,,,60,127
123518,note_off,66,0,0,,5,,,77,127
123527,note_on,9,0,0,,4,,,76,127
123601,note_off,74,0,0,,4,,,76,127
123602,note_on,1,0,0,,5,,,77,127
123676,note_off,74,0,0,,5,,,77,127
123677,note_on,1,0,0,,4,,,76,127
123751,note_off,74,0,0,,4,,,76,127
123752,note_on,1,0,0,,2,,,74,127
123826,note_off,74,0,0,,2,,,74,127
123827,note_on,1,0,0,,4,,,76,127
123901,note_off,74,0,0,,4,,,76,127
123901,note_off,0,0,0,,0,,,60,127
123902,note_on,1,0,0,,5,,,53,127
123902,note_on,0,0,0,,5,,,77,127
124127,note_off,225,0,0,,5,,,77,127
124128,note_on,1,0,0,,3,,,75,127
124353,note_off,225,0,0,,3,,,75,127
124353,note_off,0,0,0,,5,,,53,127
124354,note_on,1,0,0,,5,,,53,127
124354,note_on,0,0,0,,1,,,73,127
124579,note_off,225,0,0,,1,,,73,127
124580,note_on,1,0,0,,0,,,72,127
124805,note_off,225,0,0,,0,,,72,127
124806,note_on,1,0,0,,12,,,71,127
125031,note_off,225,0,0,,12,,,71,127
125031,note_off,0,0,0,,5,,,53,127
125032,note_on,1,0,0,,0,,,72,127
125257,note_off,225,0,0,,0,,,72,127
125258,note_on,1,0,0,,0,,,60,127
125258,note_on,0,0,0,,4,,,52,127
125258,note_on,0,0,0,,11,,,70,127
125407,note_off,149,0,0,,11,,,70,127
125408,note_on,1,0,0,,8,,,68,127
125557,note_off,149,0,0,,8,,,68,127
125558,note_on,1,0,0,,7,,,67,127
125707,note_off,149,0,0,,7,,,67,127
125707,note_off,0,0,0,,4,,,52,127
125707,note_off,0,0,0,,0,,,60,127
125708,note_on,1,0,0,,5,,,53,127
125708,note_on,0,0,0,,8,,,68,127
125933,note_off,225,0,0,,8,,,68,127
125934,note_on,1,0,0,,6,,,66,127
126159,note_off,225,0,0,,6,,,66,127
126159,note_off,0,0,0,,5,,,53,127
126160,note_on,1,0,0,,11,,,46,127
126160,note_on,0,0,0,,5,,,65,127
126385,note_off,225,0,0,,5,,,65,127
126386,note_on,1,0,0,,4,,,64,127
126611,note_off,225,0,0,,4,,,64,127
126611,note_off,0,0,0,,11,,,46,127
126612,note_on,1,0,0,,8,,,44,127
126612,note_on,0,0,0,,5,,,65,127
126838,note_on,226,0,0,,0,,,60,127
127063,note_off,225,0,0,,0,,,60,127
127063,note_off,0,0,0,,8,,,44,127
127064,note_on,1,0,0,,11,,,46,127
127064,note_on,0,0,0,,1,,,61,127
127289,note_off,225,0,0,,1,,,61,127
127290,note_on,1,0,0,,11,,,58,127
127498,note_off,208,0,0,,5,,,65,127
127514,note_off,16,0,0,,11,,,58,127
127514,note_off,0,0,0,,11,,,46,127
127515,note_on,1,0,0,,5,,,65,127
127515,note_on,0,0,0,,0,,,48,127
127664,note_off,149,0,0,,5,,,65,127
127665,note_on,1,0,0,,7,,,67,127
127814,note_off,149,0,0,,7,,,67,127
127815,note_on,1,0,0,,8,,,68,127
127964,note_off,149,0,0,,8,,,68,127
127965,note_on,1,0,0,,11,,,70,127
127965,note_on,0,0,0,,0,,,72,127
128114,note_off,149,0,0,,0,,,72,127
128114,note_off,0,0,0,,11,,,70,127
128115,note_on,1,0,0,,8,,,68,127
128264,note_off,149,0,0,,8,,,68,127
128265,note_on,1,0,0,,7,,,67,127
128414,note_off,149,0,0,,7,,,67,127
128414,note_off,0,0,0,,0,,,48,127
128415,note_on,1,0,0,,0,,,36,127
128415,note_on,0,0,0,,5,,,65,127
128866,note_off,451,0,0,,5,,,65,127
128867,note_on,1,0,0,,4,,,64,127
129239,note_off,372,0,0,,4,,,64,127
129312,note_off,73,0,0,,0,,,36,127
129319,note_on,7,0,0,,1,,,49,127
129319,note_on,0,0,0,,5,,,65,127
129319,note_on,0,0,0,,5,,,77,127
129770,note_off,451,0,0,,5,,,77,127
129770,note_off,0,0,0,,5,,,65,127
129770,note_off,0,0,0,,1,,,49,127
129771,note_on,1,0,0,,11,,,46,127
129771,note_on,0,0,0,,1,,,73,127
129771,note_on,0,0,0,,3,,,75,127
129920,note_off,149,0,0,,3,,,75,127
129920,note_off,0,0,0,,1,,,73,127
129921,note_on,1,0,0,,0,,,72,127
130070,note_off,149,0,0,,0,,,72,127
130071,note_on,1,0,0,,11,,,70,127
130220,note_off,149,0,0,,11,,,70,127
130220,note_off,0,0,0,,11,,,46,127
130221,note_on,1,0,0,,0,,,48,127
130221,note_on,0,0,0,,8,,,68,127
130221,note_on,0,0,0,,11,,,70,127
130370,note_off,149,0,0,,11,,,70,127
130370,note_off,0,0,0,,8,,,68,127
130371,note_on,1,0,0,,7,,,67,127
130520,note_off,149,0,0,,7,,,67,127
130521,note_on,1,0,0,,5,,,65,127
130670,note_off,149,0,0,,5,,,65,127
130671,note_on,1,0,0,,0,,,36,127
130671,note_on,0,0,0,,4,,,64,127
130820,note_off,149,0,0,,4,,,64,127
130821,note_on,1,0,0,,5,,,65,127
130970,note_off,149,0,0,,5,,,65,127
130971,note_on,1,0,0,,7,,,67,127
131120,note_off,149,0,0,,7,,,67,127
131120,note_off,0,0,0,,0,,,36,127
131120,note_off,0,0,0,,0,,,48,127
131121,note_on,1,0,0,,1,,,49,127
131121,note_on,0,0,0,,5,,,77,127
131121,note_on,0,0,0,,5,,,65,127
131572,note_off,451,0,0,,5,,,65,127
131572,note_off,0,0,0,,5,,,77,127
131572,note_off,0,0,0,,1,,,49,127
131573,note_on,1,0,0,,11,,,46,127
131573,note_on,0,0,0,,1,,,73,127
131573,note_on,0,0,0,,3,,,75,127
131722,note_off,149,0,0,,3,,,75,127
131722,note_off,0,0,0,,1,,,73,127
131723,note_on,1,0,0,,0,,,72,127
131872,note_off,149,0,0,,0,,,72,127
131873,note_on,1,0,0,,11,,,70,127
132022,note_off,149,0,0,,11,,,70,127
132022,note_off,0,0,0,,11,,,46,127
132023,note_on,1,0,0,,0,,,48,127
132023,note_on,0,0,0,,11,,,70,127
132023,note_on,0,0,0,,8,,,68,127
132172,note_off,149,0,0,,8,,,68,127
132172,note_off,0,0,0,,11,,,70,127
132173,note_on,1,0,0,,7,,,67,127
132322,note_off,149,0,0,,7,,,67,127
132323,note_on,1,0,0,,5,,,65,127
132472,note_off,149,0,0,,5,,,65,127
132473,note_on,1,0,0,,0,,,36,127
132473,note_on,0,0,0,,4,,,64,127
132622,note_off,149,0,0,,4,,,64,127
132623,note_on,1,0,0,,5,,,65,127
132772,note_off,149,0,0,,5,,,65,127
132773,note_on,1,0,0,,7,,,67,127
132922,note_off,149,0,0,,7,,,67,127
132922,note_off,0,0,0,,0,,,36,127
132922,note_off,0,0,0,,0,,,48,127
132923,note_on,1,0,0,,1,,,49,127
132923,note_on,0,0,0,,5,,,77,127
133072,note_off,149,0,0,,5,,,77,127
133073,note_on,1,0,0,,7,,,79,127
133222,note_off,149,0,0,,7,,,79,127
133223,note_on,1,0,0,,8,,,80,127
133372,note_off,149,0,0,,8,,,80,127
133372,note_off,0,0,0,,1,,,49,127
133373,note_on,1,0,0,,11,,,46,127
133373,note_on,0,0,0,,11,,,82,127
133373,note_on,0,0,0,,0,,,84,127
133522,note_off,149,0,0,,0,,,84,127
133522,note_off,0,0,0,,11,,,82,127
133523,note_on,1,0,0,,8,,,80,127
133672,note_off,149,0,0,,8,,,80,127
133673,note_on,1,0,0,,7,,,79,127
133822,note_off,149,0,0,,7,,,79,127
133822,note_off,0,0,0,,11,,,46,127
133823,note_on,1,0,0,,0,,,48,127
133823,note_on,0,0,0,,5,,,77,127
134275,note_on,452,0,0,,0,,,36,127
134341,note_off,66,0,0,,5,,,77,127
134350,note_on,9,0,0,,4,,,76,127
134424,note_off,74,0,0,,4,,,76,127
134425,note_on,1,0,0,,5,,,77,127
134499,note_off,74,0,0,,5,,,77,127
134500,note_on,1,0,0,,4,,,76,127
134574,note_off,74,0,0,,4,,,76,127
134575,note_on,1,0,0,,2,,,74,127
134649,note_off,74,0,0,,2,,,74,127
134650,note_on,1,0,0,,4,,,76,127
134724,note_off,74,0,0,,4,,,76,127
134724,note_off,0,0,0,,0,,,36,127
134724,note_off,0,0,0,,0,,,48,127
134725,note_on,1,0,0,,5,,,41,127
134725,note_on,0,0,0,,5,,,77,127
137210,note_off,2485,0,0,,5,,,77,127
137210,note_off,0,0,0,,5,,,41,127
138240,end_of_track,1030,1,0,,,,,,
