tick,type,time,meta,track,program,channel,pitch,tempo,note,velocity
0,copyright,0,1,0,,,,,,
0,program_change,0,0,0,6,0,,,,
0,pitchwheel,0,0,0,,0,0,,,
0,program_change,0,0,0,6,1,,,,
0,pitchwheel,0,0,0,,1,-590,,,
0,program_change,0,0,0,6,2,,,,
0,pitchwheel,0,0,0,,2,-272,,,
0,program_change,0,0,0,6,3,,,,
0,pitchwheel,0,0,0,,3,-353,,,
0,program_change,0,0,0,6,4,,,,
0,pitchwheel,0,0,0,,4,-560,,,
0,program_change,0,0,0,6,5,,,,
0,pitchwheel,0,0,0,,5,-80,,,
0,program_change,0,0,0,6,6,,,,
0,pitchwheel,0,0,0,,6,-625,,,
0,program_change,0,0,0,6,7,,,,
0,pitchwheel,0,0,0,,7,-130,,,
0,program_change,0,0,0,6,8,,,,
0,pitchwheel,0,0,0,,8,-512,,,
0,program_change,0,0,0,6,10,,,,
0,pitchwheel,0,0,0,,10,-464,,,
0,program_change,0,0,0,6,11,,,,
0,pitchwheel,0,0,0,,11,-208,,,
0,program_change,0,0,0,6,12,,,,
0,pitchwheel,0,0,0,,12,-553,,,
0,set_tempo,0,1,0,,,,500000,,
219,note_on,219,0,0,,8,,,80,127
329,note_on,110,0,0,,5,,,65,127
438,note_off,109,0,0,,5,,,65,127
439,note_on,1,0,0,,5,,,77,127
548,note_off,109,0,0,,5,,,77,127
549,note_on,1,0,0,,3,,,75,127
658,note_off,109,0,0,,3,,,75,127
659,note_on,1,0,0,,1,,,73,127
768,note_off,109,0,0,,1,,,73,127
769,note_on,1,0,0,,0,,,72,127
878,note_off,109,0,0,,0,,,72,127
878,note_off,0,0,0,,8,,,80,127
879,note_on,1,0,0,,11,,,70,127
879,note_on,0,0,0,,11,,,82,127
988,note_off,109,0,0,,11,,,70,127
989,note_on,1,0,0,,8,,,68,127
1098,note_off,109,0,0,,8,,,68,127
1099,note_on,1,0,0,,7,,,67,127
1208,note_off,109,0,0,,7,,,67,127
1209,note_on,1,0,0,,5,,,65,127
1318,note_off,109,0,0,,5,,,65,127
1319,note_on,1,0,0,,4,,,64,127
1428,note_off,109,0,0,,4,,,64,127
1429,note_on,1,0,0,,2,,,62,127
1538,note_off,109,0,0,,2,,,62,127
1538,note_off,0,0,0,,11,,,82,127
1539,note_on,1,0,0,,0,,,60,127
1758,note_on,219,0,0,,0,,,84,127
1976,note_off,218,0,0,,0,,,84,127
1977,note_on,1,0,0,,0,,,72,127
2195,note_off,218,0,0,,0,,,72,127
2195,note_off,0,0,0,,0,,,60,127
2196,note_on,1,0,0,,1,,,73,127
2306,note_on,110,0,0,,0,,,72,127
2415,note_off,109,0,0,,0,,,72,127
2415,note_off,0,0,0,,1,,,73,127
2416,note_on,1,0,0,,11,,,70,127
2416,note_on,0,0,0,,4,,,76,127
2525,note_off,109,0,0,,11,,,70,127
2526,note_on,1,0,0,,8,,,68,127
2635,note_off,109,0,0,,8,,,68,127
2635,note_off,0,0,0,,4,,,76,127
2636,note_on,1,0,0,,7,,,67,127
2636,note_on,0,0,0,,5,,,77,127
2745,note_off,109,0,0,,7,,,67,127
2746,note_on,1,0,0,,5,,,65,127
2855,note_off,109,0,0,,5,,,65,127
2855,note_off,0,0,0,,5,,,77,127
2856,note_on,1,0,0,,4,,,64,127
2856,note_on,0,0,0,,7,,,79,127
2965,note_off,109,0,0,,4,,,64,127
2966,note_on,1,0,0,,1,,,73,127
3075,note_off,109,0,0,,1,,,73,127
3075,note_off,0,0,0,,7,,,79,127
3076,note_on,1,0,0,,0,,,72,127
3076,note_on,0,0,0,,8,,,80,127
3185,note_off,109,0,0,,0,,,72,127
3186,note_on,1,0,0,,11,,,70,127
3295,note_off,109,0,0,,11,,,70,127
3295,note_off,0,0,0,,8,,,80,127
3296,note_on,1,0,0,,8,,,68,127
3296,note_on,0,0,0,,11,,,82,127
3405,note_off,109,0,0,,8,,,68,127
3406,note_on,1,0,0,,7,,,67,127
3515,note_off,109,0,0,,7,,,67,127
3515,note_off,0,0,0,,11,,,82,127
3516,note_on,1,0,0,,5,,,65,127
3516,note_on,0,0,0,,11,,,82,127
3570,note_off,54,0,0,,11,,,82,127
3571,note_on,1,0,0,,8,,,80,127
3625,note_off,54,0,0,,8,,,80,127
3626,note_on,1,0,0,,11,,,82,127
3680,note_off,54,0,0,,11,,,82,127
3681,note_on,1,0,0,,8,,,80,127
3735,note_off,54,0,0,,8,,,80,127
3735,note_off,0,0,0,,5,,,65,127
3736,note_on,1,0,0,,4,,,64,127
3736,note_on,0,0,0,,7,,,79,127
3954,note_off,218,0,0,,7,,,79,127
3954,note_off,0,0,0,,4,,,64,127
3955,note_on,1,0,0,,5,,,65,127
3955,note_on,0,0,0,,8,,,80,127
4173,note_off,218,0,0,,8,,,80,127
4173,note_off,0,0,0,,5,,,65,127
4174,note_on,1,0,0,,0,,,48,127
4174,note_on,0,0,0,,7,,,79,127
4392,note_off,218,0,0,,7,,,79,127
4393,note_on,1,0,0,,0,,,72,127
4611,note_off,218,0,0,,0,,,72,127
4612,note_on,1,0,0,,0,,,60,127
4830,note_off,218,0,0,,0,,,60,127
4830,note_off,0,0,0,,0,,,48,127
4831,note_on,1,0,0,,1,,,61,127
4941,note_on,110,0,0,,0,,,60,127
5050,note_off,109,0,0,,0,,,60,127
5050,note_off,0,0,0,,1,,,61,127
5051,note_on,1,0,0,,11,,,58,127
5051,note_on,0,0,0,,4,,,64,127
5160,note_off,109,0,0,,11,,,58,127
5161,note_on,1,0,0,,8,,,56,127
5270,note_off,109,0,0,,8,,,56,127
5270,note_off,0,0,0,,4,,,64,127
5271,note_on,1,0,0,,7,,,55,127
5271,note_on,0,0,0,,5,,,65,127
5380,note_off,109,0,0,,7,,,55,127
5381,note_on,1,0,0,,5,,,53,127
5490,note_off,109,0,0,,5,,,53,127
5490,note_off,0,0,0,,5,,,65,127
5491,note_on,1,0,0,,4,,,52,127
5491,note_on,0,0,0,,7,,,67,127
5600,note_off,109,0,0,,4,,,52,127
5601,note_on,1,0,0,,1,,,61,127
5710,note_off,109,0,0,,1,,,61,127
5710,note_off,0,0,0,,7,,,67,127
5711,note_on,1,0,0,,0,,,60,127
5711,note_on,0,0,0,,8,,,68,127
5820,note_off,109,0,0,,0,,,60,127
5821,note_on,1,0,0,,11,,,58,127
5930,note_off,109,0,0,,11,,,58,127
5930,note_off,0,0,0,,8,,,68,127
5931,note_on,1,0,0,,8,,,56,127
5931,note_on,0,0,0,,11,,,70,127
6040,note_off,109,0,0,,8,,,56,127
6041,note_on,1,0,0,,7,,,55,127
6150,note_off,109,0,0,,7,,,55,127
6150,note_off,0,0,0,,11,,,70,127
6151,note_on,1,0,0,,5,,,53,127
6151,note_on,0,0,0,,11,,,70,127
6205,note_off,54,0,0,,11,,,70,127
6206,note_on,1,0,0,,8,,,68,127
6260,note_off,54,0,0,,8,,,68,127
6261,note_on,1,0,0,,11,,,70,127
6315,note_off,54,0,0,,11,,,70,127
6316,note_on,1,0,0,,8,,,68,127
6370,note_off,54,0,0,,8,,,68,127
6370,note_off,0,0,0,,5,,,53,127
6371,note_on,1,0,0,,4,,,52,127
6371,note_on,0,0,0,,7,,,67,127
6589,note_off,218,0,0,,7,,,67,127
6589,note_off,0,0,0,,4,,,52,127
6590,note_on,1,0,0,,5,,,53,127
6590,note_on,0,0,0,,8,,,68,127
6808,note_off,218,0,0,,8,,,68,127
6808,note_off,0,0,0,,5,,,53,127
6809,note_on,1,0,0,,0,,,48,127
6809,note_on,0,0,0,,7,,,67,127
6918,note_off,109,0,0,,0,,,48,127
6919,note_on,1,0,0,,7,,,55,127
7028,note_off,109,0,0,,7,,,55,127
7028,note_off,0,0,0,,7,,,67,127
7029,note_on,1,0,0,,0,,,60,127
7029,note_on,0,0,0,,8,,,68,127
7083,note_off,54,0,0,,8,,,68,127
7084,note_on,1,0,0,,7,,,67,127
7138,note_off,54,0,0,,7,,,67,127
7138,note_off,0,0,0,,0,,,60,127
7139,note_on,1,0,0,,11,,,58,127
7139,note_on,0,0,0,,8,,,68,127
7193,note_off,54,0,0,,8,,,68,127
7194,note_on,1,0,0,,7,,,67,127
7248,note_off,54,0,0,,11,,,58,127
7249,note_on,1,0,0,,8,,,56,127
7358,note_off,109,0,0,,8,,,56,127
7359,note_on,1,0,0,,7,,,55,127
7412,note_off,53,0,0,,7,,,67,127
7468,note_off,56,0,0,,7,,,55,127
7469,note_on,1,0,0,,5,,,53,127
7469,note_on,0,0,0,,8,,,68,127
7578,note_off,109,0,0,,5,,,53,127
7579,note_on,1,0,0,,0,,,60,127
7688,note_off,109,0,0,,0,,,60,127
7688,note_off,0,0,0,,8,,,68,127
7689,note_on,1,0,0,,5,,,65,127
7689,note_on,0,0,0,,11,,,70,127
7743,note_off,54,0,0,,11,,,70,127
7744,note_on,1,0,0,,10,,,69,127
7798,note_off,54,0,0,,10,,,69,127
7798,note_off,0,0,0,,5,,,65,127
7799,note_on,1,0,0,,3,,,63,127
7799,note_on,0,0,0,,11,,,70,127
7853,note_off,54,0,0,,11,,,70,127
7854,note_on,1,0,0,,10,,,69,127
7908,note_off,54,0,0,,3,,,63,127
7909,note_on,1,0,0,,1,,,61,127
8018,note_off,109,0,0,,1,,,61,127
8019,note_on,1,0,0,,0,,,60,127
8072,note_off,53,0,0,,10,,,69,127
8128,note_off,56,0,0,,0,,,60,127
8129,note_on,1,0,0,,11,,,58,127
8129,note_on,0,0,0,,11,,,70,127
8238,note_off,109,0,0,,11,,,58,127
8239,note_on,1,0,0,,8,,,56,127
8348,note_off,109,0,0,,8,,,56,127
8348,note_off,0,0,0,,11,,,70,127
8349,note_on,1,0,0,,7,,,55,127
8349,note_on,0,0,0,,0,,,72,127
8403,note_off,54,0,0,,0,,,72,127
8404,note_on,1,0,0,,12,,,71,127
8458,note_off,54,0,0,,12,,,71,127
8458,note_off,0,0,0,,7,,,55,127
8459,note_on,1,0,0,,5,,,53,127
8459,note_on,0,0,0,,0,,,72,127
8513,note_off,54,0,0,,0,,,72,127
8514,note_on,1,0,0,,12,,,71,127
8568,note_off,54,0,0,,5,,,53,127
8569,note_on,1,0,0,,3,,,51,127
8678,note_off,109,0,0,,3,,,51,127
8679,note_on,1,0,0,,2,,,50,127
8743,note_off,64,0,0,,12,,,71,127
8788,note_off,45,0,0,,2,,,50,127
8789,note_on,1,0,0,,0,,,48,127
8789,note_on,0,0,0,,0,,,72,127
8898,note_off,109,0,0,,0,,,48,127
8899,note_on,1,0,0,,0,,,60,127
9008,note_off,109,0,0,,0,,,60,127
9008,note_off,0,0,0,,0,,,72,127
9009,note_on,1,0,0,,12,,,59,127
9009,note_on,0,0,0,,3,,,75,127
9063,note_off,54,0,0,,3,,,75,127
9064,note_on,1,0,0,,2,,,74,127
9118,note_off,54,0,0,,2,,,74,127
9118,note_off,0,0,0,,12,,,59,127
9119,note_on,1,0,0,,10,,,57,127
9119,note_on,0,0,0,,3,,,75,127
9173,note_off,54,0,0,,3,,,75,127
9174,note_on,1,0,0,,2,,,74,127
9228,note_off,54,0,0,,10,,,57,127
9229,note_on,1,0,0,,7,,,55,127
9338,note_off,109,0,0,,7,,,55,127
9339,note_on,1,0,0,,12,,,59,127
9414,note_off,75,0,0,,2,,,74,127
9447,note_off,33,0,0,,12,,,59,127
9448,note_on,1,0,0,,0,,,60,127
9448,note_on,0,0,0,,3,,,75,127
9557,note_off,109,0,0,,0,,,60,127
9558,note_on,1,0,0,,7,,,67,127
9667,note_off,109,0,0,,7,,,67,127
9667,note_off,0,0,0,,3,,,75,127
9668,note_on,1,0,0,,0,,,72,127
9668,note_on,0,0,0,,5,,,77,127
9722,note_off,54,0,0,,5,,,77,127
9723,note_on,1,0,0,,4,,,76,127
9777,note_off,54,0,0,,4,,,76,127
9777,note_off,0,0,0,,0,,,72,127
9778,note_on,1,0,0,,11,,,70,127
9778,note_on,0,0,0,,5,,,77,127
9832,note_off,54,0,0,,5,,,77,127
9833,note_on,1,0,0,,4,,,76,127
9887,note_off,54,0,0,,11,,,70,127
9888,note_on,1,0,0,,8,,,68,127
9997,note_off,109,0,0,,8,,,68,127
9998,note_on,1,0,0,,7,,,67,127
10085,note_off,87,0,0,,4,,,76,127
10107,note_off,22,0,0,,7,,,67,127
10108,note_on,1,0,0,,5,,,65,127
10108,note_on,0,0,0,,5,,,77,127
10217,note_off,109,0,0,,5,,,65,127
10218,note_on,1,0,0,,3,,,63,127
10327,note_off,109,0,0,,3,,,63,127
10327,note_off,0,0,0,,5,,,77,127
10328,note_on,1,0,0,,2,,,62,127
10328,note_on,0,0,0,,7,,,79,127
10382,note_off,54,0,0,,7,,,79,127
10383,note_on,1,0,0,,6,,,78,127
10437,note_off,54,0,0,,6,,,78,127
10437,note_off,0,0,0,,2,,,62,127
10438,note_on,1,0,0,,0,,,60,127
10438,note_on,0,0,0,,7,,,79,127
10492,note_off,54,0,0,,7,,,79,127
10493,note_on,1,0,0,,6,,,78,127
10547,note_off,54,0,0,,0,,,60,127
10548,note_on,1,0,0,,12,,,59,127
10657,note_off,109,0,0,,12,,,59,127
10658,note_on,1,0,0,,10,,,57,127
10767,note_off,109,0,0,,10,,,57,127
10767,note_off,0,0,0,,6,,,78,127
10768,note_on,1,0,0,,7,,,55,127
10768,note_on,0,0,0,,7,,,79,127
10877,note_off,109,0,0,,7,,,79,127
10878,note_on,1,0,0,,5,,,77,127
10987,note_off,109,0,0,,5,,,77,127
10988,note_on,1,0,0,,3,,,75,127
11097,note_off,109,0,0,,3,,,75,127
11098,note_on,1,0,0,,2,,,74,127
11207,note_off,109,0,0,,2,,,74,127
11208,note_on,1,0,0,,0,,,72,127
11317,note_off,109,0,0,,0,,,72,127
11318,note_on,1,0,0,,11,,,70,127
11427,note_off,109,0,0,,11,,,70,127
11427,note_off,0,0,0,,7,,,55,127
11428,note_on,1,0,0,,8,,,44,127
11428,note_on,0,0,0,,8,,,68,127
11537,note_off,109,0,0,,8,,,68,127
11538,note_on,1,0,0,,7,,,67,127
11647,note_off,109,0,0,,7,,,67,127
11648,note_on,1,0,0,,5,,,65,127
11757,note_off,109,0,0,,5,,,65,127
11758,note_on,1,0,0,,3,,,63,127
11867,note_off,109,0,0,,3,,,63,127
11868,note_on,1,0,0,,2,,,62,127
11977,note_off,109,0,0,,2,,,62,127
11978,note_on,1,0,0,,0,,,60,127
12087,note_off,109,0,0,,0,,,60,127
12087,note_off,0,0,0,,8,,,44,127
12088,note_on,1,0,0,,7,,,43,127
12088,note_on,0,0,0,,7,,,67,127
12197,note_off,109,0,0,,7,,,67,127
12198,note_on,1,0,0,,5,,,65,127
12307,note_off,109,0,0,,5,,,65,127
12308,note_on,1,0,0,,3,,,63,127
12417,note_off,109,0,0,,3,,,63,127
12418,note_on,1,0,0,,2,,,62,127
12527,note_off,109,0,0,,2,,,62,127
12528,note_on,1,0,0,,0,,,60,127
12637,note_off,109,0,0,,0,,,60,127
12638,note_off,1,0,0,,7,,,43,127
12638,note_on,0,0,0,,11,,,58,127
12747,note_off,109,0,0,,11,,,58,127
12748,note_on,1,0,0,,8,,,56,127
12748,note_on,0,0,0,,8,,,32,127
12857,note_off,109,0,0,,8,,,56,127
12858,note_on,1,0,0,,7,,,55,127
12967,note_off,109,0,0,,7,,,55,127
12968,note_on,1,0,0,,5,,,53,127
13077,note_off,109,0,0,,5,,,53,127
13078,note_on,1,0,0,,3,,,51,127
13187,note_off,109,0,0,,3,,,51,127
13188,note_on,1,0,0,,2,,,50,127
13297,note_off,109,0,0,,2,,,50,127
13298,note_on,1,0,0,,0,,,48,127
13407,note_off,109,0,0,,0,,,48,127
13407,note_off,0,0,0,,8,,,32,127
13408,note_on,1,0,0,,7,,,55,127
13408,note_on,0,0,0,,7,,,31,127
13957,note_off,549,0,0,,7,,,31,127
14066,note_off,109,0,0,,7,,,55,127
14067,note_on,1,0,0,,7,,,55,127
14177,note_on,110,0,0,,6,,,78,127
14286,note_off,109,0,0,,6,,,78,127
14287,note_on,1,0,0,,7,,,79,127
14396,note_off,109,0,0,,7,,,79,127
14397,note_on,1,0,0,,2,,,74,127
14506,note_off,109,0,0,,2,,,74,127
14507,note_on,1,0,0,,12,,,71,127
14616,note_off,109,0,0,,12,,,71,127
14617,note_on,1,0,0,,7,,,67,127
14726,note_off,109,0,0,,7,,,67,127
14726,note_off,0,0,0,,7,,,55,127
14727,note_on,1,0,0,,8,,,68,127
14837,note_on,110,0,0,,7,,,67,127
14946,note_off,109,0,0,,7,,,67,127
14946,note_off,0,0,0,,8,,,68,127
14947,note_on,1,0,0,,5,,,65,127
14947,note_on,0,0,0,,12,,,71,127
15056,note_off,109,0,0,,5,,,65,127
15057,note_on,1,0,0,,3,,,63,127
15166,note_off,109,0,0,,3,,,63,127
15166,note_off,0,0,0,,12,,,71,127
15167,note_on,1,0,0,,2,,,62,127
15167,note_on,0,0,0,,0,,,72,127
15276,note_off,109,0,0,,2,,,62,127
15277,note_on,1,0,0,,0,,,60,127
15386,note_off,109,0,0,,0,,,60,127
15386,note_off,0,0,0,,0,,,72,127
15387,note_on,1,0,0,,12,,,59,127
15387,note_on,0,0,0,,2,,,74,127
15496,note_off,109,0,0,,2,,,74,127
15496,note_off,0,0,0,,12,,,59,127
15497,note_on,1,0,0,,10,,,57,127
15497,note_on,0,0,0,,6,,,78,127
15606,note_off,109,0,0,,6,,,78,127
15606,note_off,0,0,0,,10,,,57,127
15607,note_on,1,0,0,,7,,,55,127
15607,note_on,0,0,0,,7,,,79,127
15716,note_off,109,0,0,,7,,,79,127
15717,note_on,1,0,0,,2,,,74,127
15826,note_off,109,0,0,,2,,,74,127
15827,note_on,1,0,0,,12,,,71,127
15936,note_off,109,0,0,,12,,,71,127
15937,note_on,1,0,0,,7,,,67,127
16042,note_off,105,0,0,,7,,,55,127
16045,note_off,3,0,0,,7,,,67,127
16046,note_on,1,0,0,,8,,,68,127
16156,note_on,110,0,0,,7,,,67,127
16265,note_off,109,0,0,,7,,,67,127
16265,note_off,0,0,0,,8,,,68,127
16266,note_on,1,0,0,,5,,,65,127
16266,note_on,0,0,0,,12,,,71,127
16375,note_off,109,0,0,,5,,,65,127
16376,note_on,1,0,0,,3,,,63,127
16485,note_off,109,0,0,,3,,,63,127
16485,note_off,0,0,0,,12,,,71,127
16486,note_on,1,0,0,,2,,,62,127
16486,note_on,0,0,0,,0,,,72,127
16595,note_off,109,0,0,,2,,,62,127
16596,note_on,1,0,0,,0,,,60,127
16705,note_off,109,0,0,,0,,,60,127
16705,note_off,0,0,0,,0,,,72,127
16706,note_on,1,0,0,,12,,,59,127
16706,note_on,0,0,0,,2,,,74,127
16815,note_off,109,0,0,,12,,,59,127
16816,note_on,1,0,0,,10,,,57,127
16925,note_off,109,0,0,,10,,,57,127
16925,note_off,0,0,0,,2,,,74,127
16926,note_on,1,0,0,,7,,,55,127
16926,note_on,0,0,0,,3,,,75,127
17035,note_off,109,0,0,,7,,,55,127
17036,note_on,1,0,0,,5,,,53,127
17145,note_off,109,0,0,,5,,,53,127
17145,note_off,0,0,0,,3,,,75,127
17146,note_on,1,0,0,,3,,,51,127
17146,note_on,0,0,0,,5,,,77,127
17255,note_off,109,0,0,,3,,,51,127
17256,note_on,1,0,0,,2,,,50,127
17365,note_off,109,0,0,,2,,,50,127
17365,note_off,0,0,0,,5,,,77,127
17366,note_on,1,0,0,,0,,,48,127
17366,note_on,0,0,0,,3,,,75,127
17584,note_off,218,0,0,,3,,,75,127
17584,note_off,0,0,0,,0,,,48,127
17585,note_on,1,0,0,,5,,,53,127
17585,note_on,0,0,0,,2,,,74,127
17694,note_off,109,0,0,,2,,,74,127
17695,note_on,1,0,0,,0,,,72,127
17804,note_off,109,0,0,,0,,,72,127
17804,note_off,0,0,0,,5,,,53,127
17805,note_on,1,0,0,,7,,,55,127
17805,note_on,0,0,0,,12,,,71,127
17914,note_off,109,0,0,,12,,,71,127
17915,note_on,1,0,0,,2,,,74,127
18024,note_off,109,0,0,,2,,,74,127
18024,note_off,0,0,0,,7,,,55,127
18025,note_on,1,0,0,,0,,,48,127
18025,note_on,0,0,0,,0,,,72,127
18134,note_off,109,0,0,,0,,,72,127
18135,note_on,1,0,0,,2,,,74,127
18244,note_off,109,0,0,,2,,,74,127
18244,note_off,0,0,0,,0,,,48,127
18245,note_on,1,0,0,,0,,,72,127
18245,note_on,0,0,0,,3,,,75,127
18354,note_off,109,0,0,,0,,,72,127
18355,note_on,1,0,0,,11,,,70,127
18464,note_off,109,0,0,,11,,,70,127
18464,note_off,0,0,0,,3,,,75,127
18465,note_on,1,0,0,,8,,,68,127
18465,note_on,0,0,0,,4,,,76,127
18574,note_off,109,0,0,,8,,,68,127
18575,note_on,1,0,0,,7,,,67,127
18684,note_off,109,0,0,,7,,,67,127
18684,note_off,0,0,0,,4,,,76,127
18685,note_on,1,0,0,,5,,,65,127
18685,note_on,0,0,0,,5,,,77,127
18794,note_off,109,0,0,,5,,,65,127
18795,note_on,1,0,0,,3,,,63,127
18904,note_off,109,0,0,,3,,,63,127
18904,note_off,0,0,0,,5,,,77,127
18905,note_on,1,0,0,,2,,,62,127
18905,note_on,0,0,0,,7,,,79,127
18959,note_off,54,0,0,,7,,,79,127
18960,note_on,1,0,0,,6,,,78,127
19014,note_off,54,0,0,,6,,,78,127
19014,note_off,0,0,0,,2,,,62,127
19015,note_on,1,0,0,,0,,,60,127
19015,note_on,0,0,0,,7,,,79,127
19069,note_off,54,0,0,,7,,,79,127
19070,note_on,1,0,0,,6,,,78,127
19124,note_off,54,0,0,,0,,,60,127
19125,note_on,1,0,0,,12,,,59,127
19234,note_off,109,0,0,,12,,,59,127
19235,note_on,1,0,0,,10,,,57,127
19344,note_off,109,0,0,,10,,,57,127
19344,note_off,0,0,0,,6,,,78,127
19345,note_on,1,0,0,,7,,,55,127
19345,note_on,0,0,0,,7,,,79,127
19454,note_off,109,0,0,,7,,,55,127
19455,note_on,1,0,0,,5,,,53,127
19564,note_off,109,0,0,,5,,,53,127
19565,note_on,1,0,0,,3,,,51,127
19674,note_off,109,0,0,,3,,,51,127
19675,note_on,1,0,0,,2,,,50,127
19780,note_off,105,0,0,,7,,,79,127
19783,note_off,3,0,0,,2,,,50,127
19784,note_on,1,0,0,,0,,,48,127
19893,note_off,109,0,0,,0,,,48,127
19894,note_on,1,0,0,,11,,,46,127
20003,note_off,109,0,0,,11,,,46,127
20004,note_on,1,0,0,,8,,,44,127
20114,note_on,110,0,0,,8,,,68,127
20223,note_off,109,0,0,,8,,,68,127
20224,note_on,1,0,0,,5,,,65,127
20333,note_off,109,0,0,,5,,,65,127
20334,note_on,1,0,0,,12,,,71,127
20443,note_off,109,0,0,,12,,,71,127
20444,note_on,1,0,0,,8,,,68,127
20553,note_off,109,0,0,,8,,,68,127
20554,note_on,1,0,0,,2,,,74,127
20663,note_off,109,0,0,,2,,,74,127
20663,note_off,0,0,0,,8,,,44,127
20664,note_on,1,0,0,,8,,,44,127
20664,note_on,0,0,0,,12,,,71,127
20773,note_off,109,0,0,,12,,,71,127
20774,note_on,1,0,0,,5,,,77,127
20883,note_off,109,0,0,,5,,,77,127
20884,note_on,1,0,0,,2,,,74,127
20993,note_off,109,0,0,,2,,,74,127
20994,note_on,1,0,0,,8,,,80,127
21103,note_off,109,0,0,,8,,,80,127
21104,note_on,1,0,0,,5,,,77,127
21213,note_off,109,0,0,,5,,,77,127
21214,note_on,1,0,0,,0,,,84,127
21323,note_off,109,0,0,,0,,,84,127
21323,note_off,0,0,0,,8,,,44,127
21324,note_on,1,0,0,,8,,,44,127
21324,note_on,0,0,0,,8,,,80,127
21433,note_off,109,0,0,,8,,,80,127
21434,note_on,1,0,0,,7,,,79,127
21543,note_off,109,0,0,,7,,,79,127
21544,note_on,1,0,0,,5,,,77,127
21653,note_off,109,0,0,,5,,,77,127
21654,note_on,1,0,0,,3,,,75,127
21763,note_off,109,0,0,,3,,,75,127
21764,note_on,1,0,0,,2,,,74,127
21873,note_off,109,0,0,,2,,,74,127
21874,note_on,1,0,0,,0,,,72,127
21983,note_off,109,0,0,,0,,,72,127
21983,note_off,0,0,0,,8,,,44,127
21984,note_on,1,0,0,,7,,,43,127
21984,note_on,0,0,0,,0,,,72,127
22038,note_off,54,0,0,,0,,,72,127
22039,note_on,1,0,0,,12,,,71,127
22093,note_off,54,0,0,,12,,,71,127
22094,note_on,1,0,0,,0,,,72,127
22148,note_off,54,0,0,,0,,,72,127
22149,note_on,1,0,0,,12,,,71,127
22203,note_off,54,0,0,,12,,,71,127
22204,note_on,1,0,0,,0,,,72,127
22258,note_off,54,0,0,,0,,,72,127
22259,note_on,1,0,0,,12,,,71,127
22313,note_off,54,0,0,,12,,,71,127
22314,note_on,1,0,0,,10,,,69,127
22423,note_off,109,0,0,,10,,,69,127
22424,note_on,1,0,0,,7,,,67,127
22641,note_off,217,0,0,,7,,,67,127
22642,note_off,1,0,0,,7,,,43,127
22643,note_on,1,0,0,,7,,,31,127
22753,note_on,110,0,0,,6,,,78,127
22862,note_off,109,0,0,,6,,,78,127
22863,note_on,1,0,0,,7,,,79,127
22972,note_off,109,0,0,,7,,,79,127
22973,note_on,1,0,0,,2,,,74,127
23082,note_off,109,0,0,,2,,,74,127
23083,note_on,1,0,0,,12,,,71,127
23192,note_off,109,0,0,,12,,,71,127
23193,note_on,1,0,0,,7,,,67,127
23302,note_off,109,0,0,,7,,,67,127
23302,note_off,0,0,0,,7,,,31,127
23303,note_on,1,0,0,,8,,,68,127
23413,note_on,110,0,0,,7,,,67,127
23522,note_off,109,0,0,,7,,,67,127
23522,note_off,0,0,0,,8,,,68,127
23523,note_on,1,0,0,,5,,,65,127
23523,note_on,0,0,0,,12,,,71,127
23632,note_off,109,0,0,,5,,,65,127
23633,note_on,1,0,0,,3,,,63,127
23742,note_off,109,0,0,,3,,,63,127
23742,note_off,0,0,0,,12,,,71,127
23743,note_on,1,0,0,,2,,,62,127
23743,note_on,0,0,0,,0,,,72,127
23852,note_off,109,0,0,,2,,,62,127
23853,note_on,1,0,0,,0,,,60,127
23962,note_off,109,0,0,,0,,,60,127
23962,note_off,0,0,0,,0,,,72,127
23963,note_on,1,0,0,,7,,,31,127
23963,note_on,0,0,0,,2,,,74,127
24072,note_off,109,0,0,,2,,,74,127
24073,note_on,1,0,0,,6,,,78,127
24182,note_off,109,0,0,,6,,,78,127
24183,note_on,1,0,0,,7,,,79,127
24292,note_off,109,0,0,,7,,,79,127
24293,note_on,1,0,0,,2,,,74,127
24402,note_off,109,0,0,,2,,,74,127
24403,note_on,1,0,0,,12,,,71,127
24512,note_off,109,0,0,,12,,,71,127
24513,note_on,1,0,0,,7,,,67,127
24622,note_off,109,0,0,,7,,,67,127
24622,note_off,0,0,0,,7,,,31,127
24623,note_on,1,0,0,,8,,,68,127
24733,note_on,110,0,0,,7,,,67,127
24842,note_off,109,0,0,,7,,,67,127
24842,note_off,0,0,0,,8,,,68,127
24843,note_on,1,0,0,,5,,,65,127
24843,note_on,0,0,0,,12,,,71,127
24952,note_off,109,0,0,,5,,,65,127
24953,note_on,1,0,0,,3,,,63,127
25062,note_off,109,0,0,,3,,,63,127
25062,note_off,0,0,0,,12,,,71,127
25063,note_on,1,0,0,,2,,,62,127
25063,note_on,0,0,0,,0,,,72,127
25172,note_off,109,0,0,,2,,,62,127
25173,note_on,1,0,0,,0,,,60,127
25282,note_off,109,0,0,,0,,,60,127
25282,note_off,0,0,0,,0,,,72,127
25283,note_on,1,0,0,,7,,,31,127
25283,note_on,0,0,0,,2,,,74,127
25392,note_off,109,0,0,,2,,,74,127
25393,note_on,1,0,0,,6,,,78,127
25502,note_off,109,0,0,,6,,,78,127
25503,note_on,1,0,0,,7,,,79,127
25612,note_off,109,0,0,,7,,,79,127
25613,note_on,1,0,0,,2,,,74,127
25722,note_off,109,0,0,,2,,,74,127
25723,note_on,1,0,0,,12,,,71,127
25832,note_off,109,0,0,,12,,,71,127
25833,note_on,1,0,0,,7,,,67,127
25942,note_off,109,0,0,,7,,,67,127
25942,note_off,0,0,0,,7,,,31,127
25943,note_on,1,0,0,,8,,,68,127
26053,note_on,110,0,0,,7,,,67,127
26162,note_off,109,0,0,,7,,,67,127
26162,note_off,0,0,0,,8,,,68,127
26163,note_on,1,0,0,,5,,,65,127
26163,note_on,0,0,0,,12,,,71,127
26272,note_off,109,0,0,,5,,,65,127
26273,note_on,1,0,0,,3,,,63,127
26382,note_off,109,0,0,,3,,,63,127
26382,note_off,0,0,0,,12,,,71,127
26383,note_on,1,0,0,,2,,,62,127
26383,note_on,0,0,0,,0,,,72,127
26492,note_off,109,0,0,,2,,,62,127
26493,note_on,1,0,0,,0,,,60,127
26602,note_off,109,0,0,,0,,,60,127
26602,note_off,0,0,0,,0,,,72,127
26603,note_on,1,0,0,,12,,,59,127
26603,note_on,0,0,0,,2,,,74,127
26712,note_off,109,0,0,,12,,,59,127
26713,note_on,1,0,0,,8,,,56,127
26822,note_off,109,0,0,,8,,,56,127
26822,note_off,0,0,0,,2,,,74,127
26823,note_on,1,0,0,,7,,,55,127
26823,note_on,0,0,0,,3,,,75,127
26932,note_off,109,0,0,,7,,,55,127
26933,note_on,1,0,0,,5,,,53,127
27042,note_off,109,0,0,,5,,,53,127
27042,note_off,0,0,0,,3,,,75,127
27043,note_on,1,0,0,,3,,,51,127
27043,note_on,0,0,0,,5,,,77,127
27152,note_off,109,0,0,,3,,,51,127
27153,note_on,1,0,0,,2,,,50,127
27262,note_off,109,0,0,,2,,,50,127
27262,note_off,0,0,0,,5,,,77,127
27263,note_on,1,0,0,,0,,,48,127
27263,note_on,0,0,0,,5,,,77,127
27372,note_off,109,0,0,,5,,,77,127
27373,note_on,1,0,0,,3,,,75,127
27482,note_off,109,0,0,,3,,,75,127
27482,note_off,0,0,0,,0,,,48,127
27483,note_on,1,0,0,,5,,,41,127
27483,note_on,0,0,0,,2,,,74,127
27592,note_off,109,0,0,,2,,,74,127
27593,note_on,1,0,0,,0,,,72,127
27702,note_off,109,0,0,,0,,,72,127
27702,note_off,0,0,0,,5,,,41,127
27703,note_on,1,0,0,,7,,,43,127
27703,note_on,0,0,0,,12,,,71,127
27812,note_off,109,0,0,,12,,,71,127
27813,note_on,1,0,0,,2,,,74,127
27922,note_off,109,0,0,,2,,,74,127
27922,note_off,0,0,0,,7,,,43,127
27923,note_on,1,0,0,,0,,,36,127
27923,note_on,0,0,0,,0,,,72,127
28032,note_off,109,0,0,,0,,,72,127
28033,note_on,1,0,0,,7,,,67,127
28142,note_off,109,0,0,,7,,,67,127
28143,note_on,1,0,0,,0,,,72,127
28252,note_off,109,0,0,,0,,,72,127
28253,note_on,1,0,0,,3,,,75,127
28312,note_off,59,0,0,,0,,,36,127
28361,note_off,49,0,0,,3,,,75,127
28362,note_on,1,0,0,,5,,,53,127
28362,note_on,0,0,0,,0,,,60,127
28362,note_on,0,0,0,,8,,,68,127
28362,note_on,0,0,0,,2,,,74,127
28416,note_off,54,0,0,,2,,,74,127
28417,note_on,1,0,0,,0,,,72,127
28471,note_off,54,0,0,,0,,,72,127
28471,note_off,0,0,0,,8,,,68,127
28472,note_on,1,0,0,,12,,,71,127
28581,note_off,109,0,0,,12,,,71,127
28581,note_off,0,0,0,,0,,,60,127
28581,note_off,0,0,0,,5,,,53,127
28582,note_on,1,0,0,,3,,,51,127
28582,note_on,0,0,0,,0,,,60,127
28582,note_on,0,0,0,,0,,,72,127
28691,note_off,109,0,0,,0,,,72,127
28692,note_on,1,0,0,,7,,,67,127
28801,note_off,109,0,0,,7,,,67,127
28802,note_on,1,0,0,,0,,,72,127
28911,note_off,109,0,0,,0,,,72,127
28912,note_on,1,0,0,,3,,,75,127
29021,note_off,109,0,0,,3,,,75,127
29021,note_off,0,0,0,,0,,,60,127
29021,note_off,0,0,0,,3,,,51,127
29022,note_on,1,0,0,,5,,,53,127
29022,note_on,0,0,0,,0,,,60,127
29022,note_on,0,0,0,,8,,,68,127
29022,note_on,0,0,0,,2,,,74,127
29076,note_off,54,0,0,,2,,,74,127
29077,note_on,1,0,0,,0,,,72,127
29131,note_off,54,0,0,,0,,,72,127
29131,note_off,0,0,0,,8,,,68,127
29132,note_on,1,0,0,,12,,,71,127
29241,note_off,109,0,0,,12,,,71,127
29241,note_off,0,0,0,,0,,,60,127
29241,note_off,0,0,0,,5,,,53,127
29242,note_on,1,0,0,,0,,,60,127
29242,note_on,0,0,0,,3,,,51,127
29242,note_on,0,0,0,,0,,,72,127
29351,note_off,109,0,0,,0,,,72,127
29352,note_on,1,0,0,,7,,,67,127
29461,note_off,109,0,0,,7,,,67,127
29462,note_on,1,0,0,,0,,,72,127
29571,note_off,109,0,0,,0,,,72,127
29572,note_on,1,0,0,,3,,,75,127
29681,note_off,109,0,0,,3,,,75,127
29681,note_off,0,0,0,,3,,,51,127
29681,note_off,0,0,0,,0,,,60,127
29682,note_on,1,0,0,,5,,,53,127
29682,note_on,0,0,0,,0,,,60,127
29682,note_on,0,0,0,,8,,,68,127
29682,note_on,0,0,0,,2,,,74,127
29736,note_off,54,0,0,,2,,,74,127
29737,note_on,1,0,0,,0,,,72,127
29791,note_off,54,0,0,,0,,,72,127
29791,note_off,0,0,0,,8,,,68,127
29792,note_on,1,0,0,,12,,,71,127
29901,note_off,109,0,0,,12,,,71,127
29901,note_off,0,0,0,,0,,,60,127
29901,note_off,0,0,0,,5,,,53,127
29902,note_on,1,0,0,,3,,,51,127
29902,note_on,0,0,0,,0,,,60,127
29902,note_on,0,0,0,,7,,,79,127
30011,note_off,109,0,0,,7,,,79,127
30012,note_on,1,0,0,,3,,,75,127
30121,note_off,109,0,0,,3,,,75,127
30121,note_off,0,0,0,,0,,,60,127
30121,note_off,0,0,0,,3,,,51,127
30122,note_on,1,0,0,,12,,,59,127
30122,note_on,0,0,0,,2,,,50,127
30122,note_on,0,0,0,,5,,,77,127
30231,note_off,109,0,0,,5,,,77,127
30232,note_on,1,0,0,,2,,,74,127
30341,note_off,109,0,0,,2,,,74,127
30341,note_off,0,0,0,,2,,,50,127
30341,note_off,0,0,0,,12,,,59,127
30342,note_on,1,0,0,,0,,,48,127
30342,note_on,0,0,0,,0,,,60,127
30342,note_on,0,0,0,,3,,,75,127
30451,note_off,109,0,0,,3,,,75,127
30452,note_on,1,0,0,,0,,,72,127
30561,note_off,109,0,0,,0,,,72,127
30561,note_off,0,0,0,,0,,,60,127
30561,note_off,0,0,0,,0,,,48,127
30562,note_on,1,0,0,,5,,,53,127
30562,note_on,0,0,0,,2,,,74,127
30634,note_off,72,0,0,,2,,,74,127
30635,note_on,1,0,0,,3,,,75,127
30707,note_off,72,0,0,,3,,,75,127
30708,note_on,1,0,0,,5,,,77,127
30780,note_off,72,0,0,,5,,,77,127
30780,note_off,0,0,0,,5,,,53,127
30781,note_on,1,0,0,,7,,,55,127
30781,note_on,0,0,0,,3,,,75,127
30890,note_off,109,0,0,,3,,,75,127
30891,note_on,1,0,0,,2,,,74,127
31000,note_off,109,0,0,,2,,,74,127
31000,note_off,0,0,0,,7,,,55,127
31001,note_on,1,0,0,,7,,,43,127
31001,note_on,0,0,0,,0,,,72,127
31110,note_off,109,0,0,,0,,,72,127
31111,note_on,1,0,0,,12,,,71,127
31220,note_off,109,0,0,,12,,,71,127
31220,note_off,0,0,0,,7,,,43,127
31221,note_on,1,0,0,,0,,,36,127
31221,note_on,0,0,0,,7,,,79,127
31221,note_on,0,0,0,,0,,,72,127
31330,note_off,109,0,0,,0,,,72,127
31331,note_on,1,0,0,,7,,,67,127
31440,note_off,109,0,0,,7,,,67,127
31441,note_on,1,0,0,,0,,,72,127
31550,note_off,109,0,0,,0,,,72,127
31551,note_on,1,0,0,,3,,,75,127
31610,note_off,59,0,0,,0,,,36,127
31656,note_off,46,0,0,,7,,,79,127
31659,note_off,3,0,0,,3,,,75,127
31660,note_on,1,0,0,,0,,,60,127
31660,note_on,0,0,0,,5,,,53,127
31660,note_on,0,0,0,,2,,,74,127
31660,note_on,0,0,0,,8,,,80,127
31714,note_off,54,0,0,,2,,,74,127
31715,note_on,1,0,0,,0,,,72,127
31769,note_off,54,0,0,,0,,,72,127
31770,note_on,1,0,0,,12,,,71,127
31877,note_off,107,0,0,,8,,,80,127
31878,note_off,1,0,0,,12,,,71,127
31878,note_off,0,0,0,,5,,,53,127
31878,note_off,0,0,0,,0,,,60,127
31879,note_on,1,0,0,,3,,,51,127
31879,note_on,0,0,0,,0,,,60,127
31879,note_on,0,0,0,,7,,,79,127
31879,note_on,0,0,0,,0,,,72,127
31988,note_off,109,0,0,,0,,,72,127
31989,note_on,1,0,0,,7,,,67,127
32098,note_off,109,0,0,,7,,,67,127
32099,note_on,1,0,0,,0,,,72,127
32208,note_off,109,0,0,,0,,,72,127
32209,note_on,1,0,0,,3,,,75,127
32314,note_off,105,0,0,,7,,,79,127
32317,note_off,3,0,0,,3,,,75,127
32317,note_off,0,0,0,,0,,,60,127
32317,note_off,0,0,0,,3,,,51,127
32318,note_on,1,0,0,,5,,,53,127
32318,note_on,0,0,0,,0,,,60,127
32318,note_on,0,0,0,,2,,,74,127
32318,note_on,0,0,0,,8,,,80,127
32372,note_off,54,0,0,,2,,,74,127
32373,note_on,1,0,0,,0,,,72,127
32427,note_off,54,0,0,,0,,,72,127
32428,note_on,1,0,0,,12,,,71,127
32535,note_off,107,0,0,,8,,,80,127
32536,note_off,1,0,0,,12,,,71,127
32536,note_off,0,0,0,,0,,,60,127
32536,note_off,0,0,0,,5,,,53,127
32537,note_on,1,0,0,,0,,,60,127
32537,note_on,0,0,0,,3,,,51,127
32537,note_on,0,0,0,,0,,,72,127
32537,note_on,0,0,0,,7,,,79,127
32646,note_off,109,0,0,,0,,,72,127
32647,note_on,1,0,0,,7,,,67,127
32756,note_off,109,0,0,,7,,,67,127
32757,note_on,1,0,0,,0,,,72,127
32866,note_off,109,0,0,,0,,,72,127
32867,note_on,1,0,0,,3,,,75,127
32972,note_off,105,0,0,,7,,,79,127
32975,note_off,3,0,0,,3,,,75,127
32975,note_off,0,0,0,,3,,,51,127
32975,note_off,0,0,0,,0,,,60,127
32976,note_on,1,0,0,,5,,,53,127
32976,note_on,0,0,0,,0,,,60,127
32976,note_on,0,0,0,,2,,,74,127
32976,note_on,0,0,0,,8,,,80,127
33030,note_off,54,0,0,,2,,,74,127
33031,note_on,1,0,0,,0,,,72,127
33085,note_off,54,0,0,,0,,,72,127
33086,note_on,1,0,0,,12,,,71,127
33193,note_off,107,0,0,,8,,,80,127
33194,note_off,1,0,0,,12,,,71,127
33194,note_off,0,0,0,,0,,,60,127
33194,note_off,0,0,0,,5,,,53,127
33195,note_on,1,0,0,,0,,,60,127
33195,note_on,0,0,0,,3,,,51,127
33195,note_on,0,0,0,,7,,,79,127
33195,note_on,0,0,0,,0,,,72,127
33304,note_off,109,0,0,,7,,,79,127
33305,note_on,1,0,0,,3,,,75,127
33412,note_off,107,0,0,,0,,,72,127
33413,note_off,1,0,0,,3,,,75,127
33413,note_off,0,0,0,,3,,,51,127
33413,note_off,0,0,0,,0,,,60,127
33414,note_on,1,0,0,,2,,,50,127
33414,note_on,0,0,0,,5,,,77,127
33523,note_off,109,0,0,,5,,,77,127
33524,note_on,1,0,0,,2,,,74,127
33633,note_off,109,0,0,,2,,,74,127
33633,note_off,0,0,0,,2,,,50,127
33634,note_on,1,0,0,,0,,,48,127
33634,note_on,0,0,0,,3,,,75,127
33743,note_off,109,0,0,,3,,,75,127
33744,note_on,1,0,0,,0,,,72,127
33853,note_off,109,0,0,,0,,,72,127
33853,note_off,0,0,0,,0,,,48,127
33854,note_on,1,0,0,,5,,,53,127
33854,note_on,0,0,0,,2,,,74,127
33926,note_off,72,0,0,,2,,,74,127
33927,note_on,1,0,0,,3,,,75,127
33999,note_off,72,0,0,,3,,,75,127
34000,note_on,1,0,0,,5,,,77,127
34072,note_off,72,0,0,,5,,,77,127
34072,note_off,0,0,0,,5,,,53,127
34073,note_on,1,0,0,,7,,,55,127
34073,note_on,0,0,0,,3,,,75,127
34182,note_off,109,0,0,,3,,,75,127
34183,note_on,1,0,0,,2,,,74,127
34292,note_off,109,0,0,,2,,,74,127
34292,note_off,0,0,0,,7,,,55,127
34293,note_on,1,0,0,,7,,,43,127
34293,note_on,0,0,0,,0,,,72,127
34402,note_off,109,0,0,,0,,,72,127
34403,note_on,1,0,0,,12,,,71,127
34512,note_off,109,0,0,,12,,,71,127
34512,note_off,0,0,0,,7,,,43,127
34513,note_on,1,0,0,,0,,,36,127
34513,note_on,0,0,0,,0,,,72,127
35062,note_off,549,0,0,,0,,,72,127
35171,note_off,109,0,0,,0,,,36,127
35172,note_on,1,0,0,,0,,,36,127
35282,note_on,110,0,0,,7,,,67,127
35391,note_off,109,0,0,,7,,,67,127
35392,note_on,1,0,0,,0,,,72,127
35501,note_off,109,0,0,,0,,,72,127
35502,note_on,1,0,0,,4,,,76,127
35611,note_off,109,0,0,,4,,,76,127
35611,note_off,0,0,0,,0,,,36,127
35612,note_on,1,0,0,,0,,,48,127
35612,note_on,0,0,0,,11,,,70,127
35666,note_off,54,0,0,,11,,,70,127
35667,note_on,1,0,0,,8,,,68,127
35721,note_off,54,0,0,,8,,,68,127
35722,note_on,1,0,0,,7,,,67,127
35831,note_off,109,0,0,,7,,,67,127
35831,note_off,0,0,0,,0,,,48,127
35832,note_on,1,0,0,,5,,,53,127
35832,note_on,0,0,0,,0,,,60,127
35832,note_on,0,0,0,,5,,,77,127
35832,note_on,0,0,0,,8,,,68,127
35941,note_off,109,0,0,,8,,,68,127
35942,note_on,1,0,0,,5,,,65,127
36051,note_off,109,0,0,,5,,,65,127
36052,note_on,1,0,0,,8,,,68,127
36161,note_off,109,0,0,,8,,,68,127
36162,note_on,1,0,0,,0,,,72,127
36267,note_off,105,0,0,,5,,,77,127
36270,note_off,3,0,0,,0,,,72,127
36270,note_off,0,0,0,,0,,,60,127
36270,note_off,0,0,0,,5,,,53,127
36271,note_on,1,0,0,,0,,,48,127
36271,note_on,0,0,0,,0,,,60,127
36271,note_on,0,0,0,,4,,,76,127
36271,note_on,0,0,0,,11,,,70,127
36325,note_off,54,0,0,,11,,,70,127
36326,note_on,1,0,0,,8,,,68,127
36380,note_off,54,0,0,,8,,,68,127
36381,note_on,1,0,0,,7,,,67,127
36488,note_off,107,0,0,,4,,,76,127
36489,note_off,1,0,0,,7,,,67,127
36489,note_off,0,0,0,,0,,,60,127
36489,note_off,0,0,0,,0,,,48,127
36490,note_on,1,0,0,,5,,,53,127
36490,note_on,0,0,0,,0,,,60,127
36490,note_on,0,0,0,,5,,,77,127
36490,note_on,0,0,0,,8,,,68,127
36599,note_off,109,0,0,,8,,,68,127
36600,note_on,1,0,0,,5,,,65,127
36709,note_off,109,0,0,,5,,,65,127
36710,note_on,1,0,0,,8,,,68,127
36819,note_off,109,0,0,,8,,,68,127
36820,note_on,1,0,0,,0,,,72,127
36925,note_off,105,0,0,,5,,,77,127
36928,note_off,3,0,0,,0,,,72,127
36928,note_off,0,0,0,,0,,,60,127
36928,note_off,0,0,0,,5,,,53,127
36929,note_on,1,0,0,,0,,,48,127
36929,note_on,0,0,0,,0,,,60,127
36929,note_on,0,0,0,,4,,,76,127
36929,note_on,0,0,0,,11,,,70,127
36983,note_off,54,0,0,,11,,,70,127
36984,note_on,1,0,0,,8,,,68,127
37038,note_off,54,0,0,,8,,,68,127
37039,note_on,1,0,0,,7,,,67,127
37146,note_off,107,0,0,,4,,,76,127
37147,note_off,1,0,0,,7,,,67,127
37147,note_off,0,0,0,,0,,,60,127
37147,note_off,0,0,0,,0,,,48,127
37148,note_on,1,0,0,,5,,,53,127
37148,note_on,0,0,0,,0,,,60,127
37148,note_on,0,0,0,,8,,,68,127
37148,note_on,0,0,0,,5,,,77,127
37257,note_off,109,0,0,,8,,,68,127
37258,note_on,1,0,0,,5,,,65,127
37367,note_off,109,0,0,,5,,,65,127
37368,note_on,1,0,0,,8,,,68,127
37475,note_off,107,0,0,,5,,,77,127
37477,note_on,2,0,0,,5,,,77,127
37586,note_off,109,0,0,,5,,,77,127
37586,note_off,0,0,0,,0,,,60,127
37586,note_off,0,0,0,,5,,,53,127
37587,note_on,1,0,0,,0,,,48,127
37587,note_on,0,0,0,,8,,,56,127
37587,note_on,0,0,0,,3,,,75,127
37641,note_off,54,0,0,,3,,,75,127
37642,note_on,1,0,0,,1,,,73,127
37696,note_off,54,0,0,,1,,,73,127
37697,note_on,1,0,0,,0,,,72,127
37802,note_off,105,0,0,,8,,,68,127
37805,note_off,3,0,0,,0,,,72,127
37805,note_off,0,0,0,,8,,,56,127
37805,note_off,0,0,0,,0,,,48,127
37806,note_on,1,0,0,,1,,,49,127
37806,note_on,0,0,0,,8,,,56,127
37806,note_on,0,0,0,,5,,,77,127
37915,note_off,109,0,0,,5,,,77,127
37916,note_on,1,0,0,,1,,,73,127
38025,note_off,109,0,0,,1,,,73,127
38026,note_on,1,0,0,,8,,,68,127
38135,note_off,109,0,0,,8,,,68,127
38136,note_on,1,0,0,,5,,,77,127
38245,note_off,109,0,0,,5,,,77,127
38245,note_off,0,0,0,,8,,,56,127
38245,note_off,0,0,0,,1,,,49,127
38246,note_on,1,0,0,,0,,,48,127
38246,note_on,0,0,0,,8,,,56,127
38246,note_on,0,0,0,,3,,,75,127
38300,note_off,54,0,0,,3,,,75,127
38301,note_on,1,0,0,,1,,,73,127
38355,note_off,54,0,0,,1,,,73,127
38356,note_on,1,0,0,,0,,,72,127
38465,note_off,109,0,0,,0,,,72,127
38465,note_off,0,0,0,,8,,,56,127
38465,note_off,0,0,0,,0,,,48,127
38466,note_on,1,0,0,,1,,,49,127
38466,note_on,0,0,0,,8,,,56,127
38466,note_on,0,0,0,,5,,,77,127
38575,note_off,109,0,0,,5,,,77,127
38576,note_on,1,0,0,,1,,,73,127
38685,note_off,109,0,0,,1,,,73,127
38686,note_on,1,0,0,,8,,,68,127
38795,note_off,109,0,0,,8,,,68,127
38796,note_on,1,0,0,,5,,,77,127
38905,note_off,109,0,0,,5,,,77,127
38905,note_off,0,0,0,,8,,,56,127
38905,note_off,0,0,0,,1,,,49,127
38906,note_on,1,0,0,,0,,,48,127
38906,note_on,0,0,0,,8,,,56,127
38906,note_on,0,0,0,,3,,,75,127
38960,note_off,54,0,0,,3,,,75,127
38961,note_on,1,0,0,,1,,,73,127
39015,note_off,54,0,0,,1,,,73,127
39016,note_on,1,0,0,,0,,,72,127
39125,note_off,109,0,0,,0,,,72,127
39125,note_off,0,0,0,,8,,,56,127
39125,note_off,0,0,0,,0,,,48,127
39126,note_on,1,0,0,,8,,,56,127
39126,note_on,0,0,0,,1,,,49,127
39126,note_on,0,0,0,,5,,,77,127
39235,note_off,109,0,0,,5,,,77,127
39236,note_on,1,0,0,,1,,,73,127
39345,note_off,109,0,0,,1,,,73,127
39346,note_on,1,0,0,,8,,,68,127
39455,note_off,109,0,0,,8,,,68,127
39456,note_on,1,0,0,,1,,,73,127
39565,note_off,109,0,0,,1,,,73,127
39565,note_off,0,0,0,,1,,,49,127
39565,note_off,0,0,0,,8,,,56,127
39566,note_on,1,0,0,,1,,,49,127
39566,note_on,0,0,0,,1,,,61,127
39566,note_on,0,0,0,,5,,,77,127
39620,note_off,54,0,0,,5,,,77,127
39621,note_on,1,0,0,,6,,,78,127
39675,note_off,54,0,0,,6,,,78,127
39676,note_on,1,0,0,,8,,,80,127
39785,note_off,109,0,0,,8,,,80,127
39785,note_off,0,0,0,,1,,,61,127
39785,note_off,0,0,0,,1,,,49,127
39786,note_on,1,0,0,,3,,,51,127
39786,note_on,0,0,0,,3,,,63,127
39786,note_on,0,0,0,,6,,,78,127
39895,note_off,109,0,0,,6,,,78,127
39896,note_on,1,0,0,,5,,,77,127
40005,note_off,109,0,0,,5,,,77,127
40006,note_on,1,0,0,,3,,,75,127
40115,note_off,109,0,0,,3,,,75,127
40116,note_on,1,0,0,,1,,,73,127
40225,note_off,109,0,0,,1,,,73,127
40225,note_off,0,0,0,,3,,,63,127
40225,note_off,0,0,0,,3,,,51,127
40226,note_on,1,0,0,,3,,,51,127
40226,note_on,0,0,0,,3,,,63,127
40226,note_on,0,0,0,,0,,,72,127
40335,note_off,109,0,0,,0,,,72,127
40336,note_on,1,0,0,,11,,,70,127
40445,note_off,109,0,0,,11,,,70,127
40445,note_off,0,0,0,,3,,,63,127
40445,note_off,0,0,0,,3,,,51,127
40446,note_on,1,0,0,,5,,,65,127
40446,note_on,0,0,0,,5,,,53,127
40446,note_on,0,0,0,,10,,,69,127
40555,note_off,109,0,0,,10,,,69,127
40556,note_on,1,0,0,,4,,,76,127
40665,note_off,109,0,0,,4,,,76,127
40666,note_on,1,0,0,,5,,,77,127
40775,note_off,109,0,0,,5,,,77,127
40776,note_on,1,0,0,,0,,,72,127
40885,note_off,109,0,0,,0,,,72,127
40886,note_on,1,0,0,,10,,,69,127
40995,note_off,109,0,0,,10,,,69,127
40996,note_off,1,0,0,,5,,,65,127
40996,note_on,0,0,0,,5,,,65,127
41105,note_off,109,0,0,,5,,,65,127
41105,note_off,0,0,0,,5,,,53,127
41106,note_on,1,0,0,,6,,,66,127
41216,note_on,110,0,0,,5,,,65,127
41325,note_off,109,0,0,,5,,,65,127
41325,note_off,0,0,0,,6,,,66,127
41326,note_on,1,0,0,,3,,,63,127
41326,note_on,0,0,0,,10,,,69,127
41435,note_off,109,0,0,,3,,,63,127
41436,note_on,1,0,0,,1,,,61,127
41545,note_off,109,0,0,,1,,,61,127
41545,note_off,0,0,0,,10,,,69,127
41546,note_on,1,0,0,,0,,,60,127
41546,note_on,0,0,0,,11,,,70,127
41655,note_off,109,0,0,,0,,,60,127
41656,note_on,1,0,0,,11,,,58,127
41765,note_off,109,0,0,,11,,,58,127
41765,note_off,0,0,0,,11,,,70,127
41766,note_on,1,0,0,,10,,,57,127
41766,note_on,0,0,0,,0,,,72,127
41875,note_off,109,0,0,,10,,,57,127
41876,note_on,1,0,0,,7,,,55,127
41985,note_off,109,0,0,,7,,,55,127
41985,note_off,0,0,0,,0,,,72,127
41986,note_on,1,0,0,,5,,,53,127
41986,note_on,0,0,0,,1,,,73,127
42095,note_off,109,0,0,,5,,,53,127
42096,note_on,1,0,0,,3,,,51,127
42205,note_off,109,0,0,,3,,,51,127
42205,note_off,0,0,0,,1,,,73,127
42206,note_on,1,0,0,,1,,,49,127
42206,note_on,0,0,0,,3,,,75,127
42315,note_off,109,0,0,,1,,,49,127
42316,note_on,1,0,0,,0,,,48,127
42425,note_off,109,0,0,,0,,,48,127
42425,note_off,0,0,0,,3,,,75,127
42426,note_on,1,0,0,,5,,,53,127
42426,note_on,0,0,0,,11,,,46,127
42426,note_on,0,0,0,,3,,,75,127
42480,note_off,54,0,0,,3,,,75,127
42481,note_on,1,0,0,,1,,,73,127
42535,note_off,54,0,0,,1,,,73,127
42536,note_on,1,0,0,,3,,,75,127
42590,note_off,54,0,0,,3,,,75,127
42591,note_on,1,0,0,,1,,,73,127
42645,note_off,54,0,0,,1,,,73,127
42645,note_off,0,0,0,,11,,,46,127
42646,note_on,1,0,0,,10,,,45,127
42646,note_on,0,0,0,,0,,,72,127
42864,note_off,218,0,0,,0,,,72,127
42864,note_off,0,0,0,,10,,,45,127
42865,note_on,1,0,0,,11,,,46,127
42865,note_on,0,0,0,,1,,,73,127
43083,note_off,218,0,0,,1,,,73,127
43083,note_off,0,0,0,,11,,,46,127
43083,note_off,0,0,0,,5,,,53,127
43084,note_on,1,0,0,,5,,,41,127
43084,note_on,0,0,0,,0,,,72,127
43193,note_off,109,0,0,,0,,,72,127
43194,note_on,1,0,0,,4,,,76,127
43303,note_off,109,0,0,,4,,,76,127
43304,note_on,1,0,0,,5,,,77,127
43413,note_off,109,0,0,,5,,,77,127
43414,note_on,1,0,0,,0,,,72,127
43523,note_off,109,0,0,,0,,,72,127
43524,note_on,1,0,0,,10,,,69,127
43633,note_off,109,0,0,,10,,,69,127
43634,note_on,1,0,0,,5,,,65,127
43743,note_off,109,0,0,,5,,,65,127
43743,note_off,0,0,0,,5,,,41,127
43744,note_on,1,0,0,,6,,,66,127
43854,note_on,110,0,0,,5,,,65,127
43963,note_off,109,0,0,,5,,,65,127
43963,note_off,0,0,0,,6,,,66,127
43964,note_on,1,0,0,,3,,,63,127
43964,note_on,0,0,0,,10,,,69,127
44073,note_off,109,0,0,,3,,,63,127
44074,note_on,1,0,0,,1,,,61,127
44183,note_off,109,0,0,,1,,,61,127
44183,note_off,0,0,0,,10,,,69,127
44184,note_on,1,0,0,,0,,,60,127
44184,note_on,0,0,0,,11,,,70,127
44293,note_off,109,0,0,,0,,,60,127
44294,note_on,1,0,0,,11,,,58,127
44403,note_off,109,0,0,,11,,,58,127
44403,note_off,0,0,0,,11,,,70,127
44404,note_on,1,0,0,,10,,,57,127
44404,note_on,0,0,0,,0,,,72,127
44513,note_off,109,0,0,,10,,,57,127
44514,note_on,1,0,0,,7,,,55,127
44623,note_off,109,0,0,,7,,,55,127
44623,note_off,0,0,0,,0,,,72,127
44624,note_on,1,0,0,,5,,,53,127
44624,note_on,0,0,0,,1,,,73,127
44733,note_off,109,0,0,,5,,,53,127
44734,note_on,1,0,0,,3,,,51,127
44843,note_off,109,0,0,,3,,,51,127
44843,note_off,0,0,0,,1,,,73,127
44844,note_on,1,0,0,,1,,,49,127
44844,note_on,0,0,0,,3,,,75,127
44953,note_off,109,0,0,,1,,,49,127
44954,note_on,1,0,0,,0,,,48,127
45063,note_off,109,0,0,,0,,,48,127
45063,note_off,0,0,0,,3,,,75,127
45064,note_on,1,0,0,,11,,,46,127
45064,note_on,0,0,0,,5,,,53,127
45064,note_on,0,0,0,,3,,,75,127
45118,note_off,54,0,0,,3,,,75,127
45119,note_on,1,0,0,,1,,,73,127
45173,note_off,54,0,0,,1,,,73,127
45174,note_on,1,0,0,,3,,,75,127
45228,note_off,54,0,0,,3,,,75,127
45229,note_on,1,0,0,,1,,,73,127
45283,note_off,54,0,0,,1,,,73,127
45283,note_off,0,0,0,,11,,,46,127
45284,note_on,1,0,0,,10,,,45,127
45284,note_on,0,0,0,,0,,,72,127
45502,note_off,218,0,0,,0,,,72,127
45502,note_off,0,0,0,,10,,,45,127
45503,note_on,1,0,0,,11,,,46,127
45503,note_on,0,0,0,,1,,,73,127
45721,note_off,218,0,0,,1,,,73,127
45721,note_off,0,0,0,,11,,,46,127
45721,note_off,0,0,0,,5,,,53,127
45722,note_on,1,0,0,,5,,,53,127
45722,note_on,0,0,0,,0,,,72,127
45831,note_off,109,0,0,,5,,,53,127
45832,note_on,1,0,0,,0,,,60,127
45941,note_off,109,0,0,,0,,,60,127
45941,note_off,0,0,0,,0,,,72,127
45942,note_on,1,0,0,,5,,,65,127
45942,note_on,0,0,0,,1,,,73,127
45996,note_off,54,0,0,,1,,,73,127
45997,note_on,1,0,0,,0,,,72,127
46051,note_off,54,0,0,,0,,,72,127
46051,note_off,0,0,0,,5,,,65,127
46052,note_on,1,0,0,,3,,,63,127
46052,note_on,0,0,0,,1,,,73,127
46106,note_off,54,0,0,,1,,,73,127
46107,note_on,1,0,0,,0,,,72,127
46161,note_off,54,0,0,,3,,,63,127
46162,note_on,1,0,0,,1,,,61,127
46271,note_off,109,0,0,,1,,,61,127
46272,note_on,1,0,0,,0,,,60,127
46325,note_off,53,0,0,,0,,,72,127
46381,note_off,56,0,0,,0,,,60,127
46382,note_on,1,0,0,,11,,,58,127
46382,note_on,0,0,0,,1,,,73,127
46491,note_off,109,0,0,,11,,,58,127
46492,note_on,1,0,0,,5,,,65,127
46601,note_off,109,0,0,,5,,,65,127
46601,note_off,0,0,0,,1,,,73,127
46602,note_on,1,0,0,,11,,,70,127
46602,note_on,0,0,0,,3,,,75,127
46656,note_off,54,0,0,,3,,,75,127
46657,note_on,1,0,0,,2,,,74,127
46711,note_off,54,0,0,,2,,,74,127
46711,note_off,0,0,0,,11,,,70,127
46712,note_on,1,0,0,,8,,,68,127
46712,note_on,0,0,0,,3,,,75,127
46766,note_off,54,0,0,,3,,,75,127
46767,note_on,1,0,0,,2,,,74,127
46821,note_off,54,0,0,,8,,,68,127
46822,note_on,1,0,0,,6,,,66,127
46931,note_off,109,0,0,,6,,,66,127
46932,note_on,1,0,0,,5,,,65,127
46985,note_off,53,0,0,,2,,,74,127
47041,note_off,56,0,0,,5,,,65,127
47042,note_on,1,0,0,,3,,,63,127
47042,note_on,0,0,0,,3,,,75,127
47151,note_off,109,0,0,,3,,,63,127
47152,note_on,1,0,0,,1,,,61,127
47261,note_off,109,0,0,,1,,,61,127
47261,note_off,0,0,0,,3,,,75,127
47262,note_on,1,0,0,,0,,,60,127
47262,note_on,0,0,0,,5,,,77,127
47316,note_off,54,0,0,,5,,,77,127
47317,note_on,1,0,0,,4,,,76,127
47371,note_off,54,0,0,,4,,,76,127
47371,note_off,0,0,0,,0,,,60,127
47372,note_on,1,0,0,,11,,,58,127
47372,note_on,0,0,0,,5,,,77,127
47426,note_off,54,0,0,,5,,,77,127
47427,note_on,1,0,0,,4,,,76,127
47481,note_off,54,0,0,,11,,,58,127
47482,note_on,1,0,0,,8,,,56,127
47591,note_off,109,0,0,,8,,,56,127
47592,note_on,1,0,0,,7,,,55,127
47656,note_off,64,0,0,,4,,,76,127
47701,note_off,45,0,0,,7,,,55,127
47702,note_on,1,0,0,,5,,,53,127
47702,note_on,0,0,0,,5,,,77,127
47811,note_off,109,0,0,,5,,,53,127
47812,note_on,1,0,0,,5,,,65,127
47921,note_off,109,0,0,,5,,,65,127
47921,note_off,0,0,0,,5,,,77,127
47922,note_on,1,0,0,,4,,,64,127
47922,note_on,0,0,0,,8,,,80,127
47976,note_off,54,0,0,,8,,,80,127
47977,note_on,1,0,0,,7,,,79,127
48031,note_off,54,0,0,,7,,,79,127
48031,note_off,0,0,0,,4,,,64,127
48032,note_on,1,0,0,,2,,,62,127
48032,note_on,0,0,0,,8,,,80,127
48086,note_off,54,0,0,,8,,,80,127
48087,note_on,1,0,0,,7,,,79,127
48141,note_off,54,0,0,,2,,,62,127
48142,note_on,1,0,0,,0,,,60,127
48251,note_off,109,0,0,,0,,,60,127
48252,note_on,1,0,0,,4,,,64,127
48327,note_off,75,0,0,,7,,,79,127
48360,note_off,33,0,0,,4,,,64,127
48361,note_on,1,0,0,,5,,,65,127
48361,note_on,0,0,0,,8,,,80,127
48470,note_off,109,0,0,,5,,,65,127
48471,note_on,1,0,0,,0,,,72,127
48580,note_off,109,0,0,,0,,,72,127
48580,note_off,0,0,0,,8,,,80,127
48581,note_on,1,0,0,,5,,,77,127
48581,note_on,0,0,0,,11,,,82,127
48635,note_off,54,0,0,,11,,,82,127
48636,note_on,1,0,0,,10,,,81,127
48690,note_off,54,0,0,,10,,,81,127
48690,note_off,0,0,0,,5,,,77,127
48691,note_on,1,0,0,,3,,,75,127
48691,note_on,0,0,0,,11,,,82,127
48745,note_off,54,0,0,,11,,,82,127
48746,note_on,1,0,0,,10,,,81,127
48800,note_off,54,0,0,,3,,,75,127
48801,note_on,1,0,0,,1,,,73,127
48910,note_off,109,0,0,,1,,,73,127
48911,note_on,1,0,0,,0,,,72,127
48998,note_off,87,0,0,,10,,,81,127
49020,note_off,22,0,0,,0,,,72,127
49021,note_on,1,0,0,,11,,,70,127
49021,note_on,0,0,0,,11,,,82,127
49130,note_off,109,0,0,,11,,,70,127
49131,note_on,1,0,0,,8,,,68,127
49240,note_off,109,0,0,,8,,,68,127
49240,note_off,0,0,0,,11,,,82,127
49241,note_on,1,0,0,,7,,,67,127
49241,note_on,0,0,0,,0,,,84,127
49295,note_off,54,0,0,,0,,,84,127
49296,note_on,1,0,0,,12,,,83,127
49350,note_off,54,0,0,,12,,,83,127
49350,note_off,0,0,0,,7,,,67,127
49351,note_on,1,0,0,,5,,,65,127
49351,note_on,0,0,0,,0,,,84,127
49405,note_off,54,0,0,,0,,,84,127
49406,note_on,1,0,0,,12,,,83,127
49460,note_off,54,0,0,,12,,,83,127
49460,note_off,0,0,0,,5,,,65,127
49461,note_on,1,0,0,,4,,,64,127
49461,note_on,0,0,0,,0,,,84,127
49515,note_off,54,0,0,,0,,,84,127
49516,note_on,1,0,0,,12,,,83,127
49570,note_off,54,0,0,,4,,,64,127
49571,note_on,1,0,0,,2,,,62,127
49680,note_off,109,0,0,,2,,,62,127
49680,note_off,0,0,0,,12,,,83,127
49681,note_on,1,0,0,,0,,,60,127
49681,note_on,0,0,0,,0,,,84,127
49790,note_off,109,0,0,,0,,,84,127
49791,note_on,1,0,0,,11,,,82,127
49900,note_off,109,0,0,,11,,,82,127
49901,note_on,1,0,0,,8,,,80,127
50010,note_off,109,0,0,,8,,,80,127
50011,note_on,1,0,0,,7,,,79,127
50120,note_off,109,0,0,,7,,,79,127
50121,note_on,1,0,0,,5,,,77,127
50230,note_off,109,0,0,,5,,,77,127
50231,note_on,1,0,0,,3,,,75,127
50340,note_off,109,0,0,,3,,,75,127
50340,note_off,0,0,0,,0,,,60,127
50341,note_on,1,0,0,,1,,,49,127
50341,note_on,0,0,0,,1,,,73,127
50450,note_off,109,0,0,,1,,,73,127
50451,note_on,1,0,0,,0,,,72,127
50560,note_off,109,0,0,,0,,,72,127
50561,note_on,1,0,0,,11,,,70,127
50670,note_off,109,0,0,,11,,,70,127
50671,note_on,1,0,0,,8,,,68,127
50780,note_off,109,0,0,,8,,,68,127
50781,note_on,1,0,0,,7,,,67,127
50890,note_off,109,0,0,,7,,,67,127
50891,note_on,1,0,0,,5,,,65,127
51000,note_off,109,0,0,,5,,,65,127
51000,note_off,0,0,0,,1,,,49,127
51001,note_on,1,0,0,,0,,,48,127
51001,note_on,0,0,0,,0,,,72,127
51110,note_off,109,0,0,,0,,,72,127
51111,note_on,1,0,0,,11,,,70,127
51220,note_off,109,0,0,,11,,,70,127
51221,note_on,1,0,0,,8,,,68,127
51330,note_off,109,0,0,,8,,,68,127
51331,note_on,1,0,0,,7,,,67,127
51440,note_off,109,0,0,,7,,,67,127
51441,note_on,1,0,0,,5,,,65,127
51550,note_off,109,0,0,,5,,,65,127
51551,note_off,1,0,0,,0,,,48,127
51551,note_on,0,0,0,,3,,,63,127
51660,note_off,109,0,0,,3,,,63,127
51661,note_on,1,0,0,,1,,,37,127
51661,note_on,0,0,0,,1,,,61,127
51770,note_off,109,0,0,,1,,,61,127
51771,note_on,1,0,0,,0,,,60,127
51880,note_off,109,0,0,,0,,,60,127
51881,note_on,1,0,0,,11,,,58,127
51990,note_off,109,0,0,,11,,,58,127
51991,note_on,1,0,0,,8,,,56,127
52100,note_off,109,0,0,,8,,,56,127
52101,note_on,1,0,0,,7,,,55,127
52210,note_off,109,0,0,,7,,,55,127
52211,note_on,1,0,0,,5,,,53,127
52320,note_off,109,0,0,,5,,,53,127
52320,note_off,0,0,0,,1,,,37,127
52321,note_on,1,0,0,,0,,,36,127
52321,note_on,0,0,0,,0,,,60,127
52870,note_off,549,0,0,,0,,,36,127
52979,note_off,109,0,0,,0,,,60,127
52980,note_on,1,0,0,,0,,,60,127
53090,note_on,110,0,0,,12,,,83,127
53199,note_off,109,0,0,,12,,,83,127
53200,note_on,1,0,0,,0,,,84,127
53309,note_off,109,0,0,,0,,,84,127
53310,note_on,1,0,0,,7,,,79,127
53419,note_off,109,0,0,,7,,,79,127
53420,note_on,1,0,0,,4,,,76,127
53529,note_off,109,0,0,,4,,,76,127
53530,note_on,1,0,0,,0,,,72,127
53639,note_off,109,0,0,,0,,,72,127
53639,note_off,0,0,0,,0,,,60,127
53640,note_on,1,0,0,,1,,,73,127
53750,note_on,110,0,0,,0,,,72,127
53859,note_off,109,0,0,,0,,,72,127
53859,note_off,0,0,0,,1,,,73,127
53860,note_on,1,0,0,,11,,,70,127
53860,note_on,0,0,0,,4,,,76,127
53969,note_off,109,0,0,,11,,,70,127
53970,note_on,1,0,0,,8,,,68,127
54079,note_off,109,0,0,,8,,,68,127
54079,note_off,0,0,0,,4,,,76,127
54080,note_on,1,0,0,,7,,,67,127
54080,note_on,0,0,0,,5,,,77,127
54189,note_off,109,0,0,,7,,,67,127
54190,note_on,1,0,0,,5,,,65,127
54299,note_off,109,0,0,,5,,,65,127
54299,note_off,0,0,0,,5,,,77,127
54300,note_on,1,0,0,,4,,,64,127
54300,note_on,0,0,0,,7,,,79,127
54409,note_off,109,0,0,,7,,,79,127
54409,note_off,0,0,0,,4,,,64,127
54410,note_on,1,0,0,,2,,,62,127
54410,note_on,0,0,0,,12,,,83,127
54519,note_off,109,0,0,,12,,,83,127
54519,note_off,0,0,0,,2,,,62,127
54520,note_on,1,0,0,,0,,,60,127
54520,note_on,0,0,0,,0,,,84,127
54629,note_off,109,0,0,,0,,,84,127
54630,note_on,1,0,0,,7,,,79,127
54739,note_off,109,0,0,,7,,,79,127
54740,note_on,1,0,0,,4,,,76,127
54849,note_off,109,0,0,,4,,,76,127
54850,note_on,1,0,0,,0,,,72,127
54955,note_off,105,0,0,,0,,,60,127
54958,note_off,3,0,0,,0,,,72,127
54959,note_on,1,0,0,,1,,,73,127
55069,note_on,110,0,0,,0,,,72,127
55178,note_off,109,0,0,,0,,,72,127
55178,note_off,0,0,0,,1,,,73,127
55179,note_on,1,0,0,,11,,,70,127
55179,note_on,0,0,0,,4,,,76,127
55288,note_off,109,0,0,,11,,,70,127
55289,note_on,1,0,0,,8,,,68,127
55398,note_off,109,0,0,,8,,,68,127
55398,note_off,0,0,0,,4,,,76,127
55399,note_on,1,0,0,,7,,,67,127
55399,note_on,0,0,0,,5,,,77,127
55508,note_off,109,0,0,,7,,,67,127
55509,note_on,1,0,0,,5,,,65,127
55618,note_off,109,0,0,,5,,,65,127
55618,note_off,0,0,0,,5,,,77,127
55619,note_on,1,0,0,,4,,,64,127
55619,note_on,0,0,0,,7,,,79,127
55728,note_off,109,0,0,,4,,,64,127
55729,note_on,1,0,0,,2,,,62,127
55838,note_off,109,0,0,,2,,,62,127
55838,note_off,0,0,0,,7,,,79,127
55839,note_on,1,0,0,,0,,,60,127
55839,note_on,0,0,0,,8,,,80,127
55948,note_off,109,0,0,,0,,,60,127
55949,note_on,1,0,0,,11,,,58,127
56058,note_off,109,0,0,,11,,,58,127
56058,note_off,0,0,0,,8,,,80,127
56059,note_on,1,0,0,,8,,,56,127
56059,note_on,0,0,0,,11,,,82,127
56168,note_off,109,0,0,,8,,,56,127
56169,note_on,1,0,0,,7,,,55,127
56278,note_off,109,0,0,,7,,,55,127
56278,note_off,0,0,0,,11,,,82,127
56279,note_on,1,0,0,,5,,,53,127
56279,note_on,0,0,0,,8,,,80,127
56497,note_off,218,0,0,,8,,,80,127
56497,note_off,0,0,0,,5,,,53,127
56498,note_on,1,0,0,,11,,,58,127
56498,note_on,0,0,0,,7,,,79,127
56607,note_off,109,0,0,,7,,,79,127
56608,note_on,1,0,0,,5,,,77,127
56717,note_off,109,0,0,,5,,,77,127
56717,note_off,0,0,0,,11,,,58,127
56718,note_on,1,0,0,,0,,,60,127
56718,note_on,0,0,0,,4,,,76,127
56827,note_off,109,0,0,,4,,,76,127
56828,note_on,1,0,0,,7,,,79,127
56937,note_off,109,0,0,,7,,,79,127
56937,note_off,0,0,0,,0,,,60,127
56938,note_on,1,0,0,,5,,,53,127
56938,note_on,0,0,0,,5,,,77,127
57047,note_off,109,0,0,,5,,,77,127
57048,note_on,1,0,0,,7,,,79,127
57157,note_off,109,0,0,,7,,,79,127
57157,note_off,0,0,0,,5,,,53,127
57158,note_on,1,0,0,,5,,,77,127
57158,note_on,0,0,0,,8,,,80,127
57267,note_off,109,0,0,,5,,,77,127
57268,note_on,1,0,0,,3,,,75,127
57377,note_off,109,0,0,,3,,,75,127
57377,note_off,0,0,0,,8,,,80,127
57378,note_on,1,0,0,,1,,,73,127
57378,note_on,0,0,0,,10,,,81,127
57487,note_off,109,0,0,,1,,,73,127
57488,note_on,1,0,0,,0,,,72,127
57597,note_off,109,0,0,,0,,,72,127
57597,note_off,0,0,0,,10,,,81,127
57598,note_on,1,0,0,,11,,,70,127
57598,note_on,0,0,0,,11,,,82,127
57707,note_off,109,0,0,,11,,,70,127
57708,note_on,1,0,0,,8,,,68,127
57817,note_off,109,0,0,,8,,,68,127
57817,note_off,0,0,0,,11,,,82,127
57818,note_on,1,0,0,,7,,,67,127
57818,note_on,0,0,0,,0,,,84,127
57872,note_off,54,0,0,,0,,,84,127
57873,note_on,1,0,0,,12,,,83,127
57927,note_off,54,0,0,,12,,,83,127
57927,note_off,0,0,0,,7,,,67,127
57928,note_on,1,0,0,,5,,,65,127
57928,note_on,0,0,0,,0,,,84,127
57982,note_off,54,0,0,,0,,,84,127
57983,note_on,1,0,0,,12,,,83,127
58037,note_off,54,0,0,,12,,,83,127
58037,note_off,0,0,0,,5,,,65,127
58038,note_on,1,0,0,,4,,,64,127
58038,note_on,0,0,0,,0,,,84,127
58092,note_off,54,0,0,,0,,,84,127
58093,note_on,1,0,0,,12,,,83,127
58147,note_off,54,0,0,,4,,,64,127
58148,note_on,1,0,0,,2,,,62,127
58257,note_off,109,0,0,,2,,,62,127
58257,note_off,0,0,0,,12,,,83,127
58258,note_on,1,0,0,,0,,,60,127
58258,note_on,0,0,0,,0,,,84,127
58367,note_off,109,0,0,,0,,,60,127
58368,note_on,1,0,0,,11,,,58,127
58477,note_off,109,0,0,,11,,,58,127
58478,note_on,1,0,0,,8,,,56,127
58587,note_off,109,0,0,,8,,,56,127
58588,note_on,1,0,0,,7,,,55,127
58693,note_off,105,0,0,,0,,,84,127
58696,note_off,3,0,0,,7,,,55,127
58697,note_on,1,0,0,,5,,,53,127
58806,note_off,109,0,0,,5,,,53,127
58807,note_on,1,0,0,,3,,,51,127
58916,note_off,109,0,0,,3,,,51,127
58917,note_on,1,0,0,,1,,,49,127
59027,note_on,110,0,0,,11,,,70,127
59136,note_off,109,0,0,,11,,,70,127
59137,note_on,1,0,0,,5,,,65,127
59246,note_off,109,0,0,,5,,,65,127
59247,note_on,1,0,0,,1,,,73,127
59356,note_off,109,0,0,,1,,,73,127
59357,note_on,1,0,0,,11,,,70,127
59466,note_off,109,0,0,,11,,,70,127
59467,note_on,1,0,0,,5,,,77,127
59576,note_off,109,0,0,,5,,,77,127
59576,note_off,0,0,0,,1,,,49,127
59577,note_on,1,0,0,,1,,,49,127
59577,note_on,0,0,0,,1,,,73,127
59686,note_off,109,0,0,,1,,,73,127
59687,note_on,1,0,0,,11,,,82,127
59796,note_off,109,0,0,,11,,,82,127
59797,note_on,1,0,0,,5,,,77,127
59906,note_off,109,0,0,,5,,,77,127
59907,note_on,1,0,0,,1,,,85,127
60016,note_off,109,0,0,,1,,,85,127
60017,note_on,1,0,0,,11,,,82,127
60126,note_off,109,0,0,,11,,,82,127
60127,note_on,1,0,0,,5,,,89,127
60236,note_off,109,0,0,,5,,,89,127
60236,note_off,0,0,0,,1,,,49,127
60237,note_on,1,0,0,,1,,,49,127
60237,note_on,0,0,0,,1,,,85,127
60346,note_off,109,0,0,,1,,,85,127
60347,note_on,1,0,0,,0,,,84,127
60456,note_off,109,0,0,,0,,,84,127
60457,note_on,1,0,0,,11,,,82,127
60566,note_off,109,0,0,,11,,,82,127
60567,note_on,1,0,0,,8,,,80,127
60676,note_off,109,0,0,,8,,,80,127
60677,note_on,1,0,0,,7,,,79,127
60786,note_off,109,0,0,,7,,,79,127
60787,note_on,1,0,0,,5,,,77,127
60896,note_off,109,0,0,,5,,,77,127
60896,note_off,0,0,0,,1,,,49,127
60897,note_on,1,0,0,,0,,,48,127
60897,note_on,0,0,0,,5,,,77,127
60951,note_off,54,0,0,,5,,,77,127
60952,note_on,1,0,0,,4,,,76,127
61006,note_off,54,0,0,,4,,,76,127
61007,note_on,1,0,0,,5,,,77,127
61061,note_off,54,0,0,,5,,,77,127
61062,note_on,1,0,0,,4,,,76,127
61116,note_off,54,0,0,,4,,,76,127
61117,note_on,1,0,0,,5,,,77,127
61171,note_off,54,0,0,,5,,,77,127
61172,note_on,1,0,0,,4,,,76,127
61226,note_off,54,0,0,,4,,,76,127
61227,note_on,1,0,0,,2,,,74,127
61336,note_off,109,0,0,,2,,,74,127
61337,note_on,1,0,0,,0,,,72,127
61554,note_off,217,0,0,,0,,,72,127
61555,note_off,1,0,0,,0,,,48,127
61556,note_on,1,0,0,,0,,,36,127
61666,note_on,110,0,0,,12,,,83,127
61775,note_off,109,0,0,,12,,,83,127
61776,note_on,1,0,0,,0,,,84,127
61885,note_off,109,0,0,,0,,,84,127
61886,note_on,1,0,0,,7,,,79,127
61995,note_off,109,0,0,,7,,,79,127
61996,note_on,1,0,0,,4,,,76,127
62105,note_off,109,0,0,,4,,,76,127
62106,note_on,1,0,0,,0,,,72,127
62215,note_off,109,0,0,,0,,,72,127
62215,note_off,0,0,0,,0,,,36,127
62216,note_on,1,0,0,,1,,,73,127
62326,note_on,110,0,0,,0,,,72,127
62435,note_off,109,0,0,,0,,,72,127
62435,note_off,0,0,0,,1,,,73,127
62436,note_on,1,0,0,,11,,,70,127
62436,note_on,0,0,0,,4,,,76,127
62545,note_off,109,0,0,,11,,,70,127
62546,note_on,1,0,0,,8,,,68,127
62655,note_off,109,0,0,,8,,,68,127
62655,note_off,0,0,0,,4,,,76,127
62656,note_on,1,0,0,,7,,,67,127
62656,note_on,0,0,0,,5,,,77,127
62765,note_off,109,0,0,,7,,,67,127
62766,note_on,1,0,0,,5,,,65,127
62875,note_off,109,0,0,,5,,,65,127
62875,note_off,0,0,0,,5,,,77,127
62876,note_on,1,0,0,,0,,,36,127
62876,note_on,0,0,0,,7,,,79,127
62985,note_off,109,0,0,,7,,,79,127
62986,note_on,1,0,0,,12,,,83,127
63095,note_off,109,0,0,,12,,,83,127
63096,note_on,1,0,0,,0,,,84,127
63205,note_off,109,0,0,,0,,,84,127
63206,note_on,1,0,0,,7,,,79,127
63315,note_off,109,0,0,,7,,,79,127
63316,note_on,1,0,0,,4,,,76,127
63425,note_off,109,0,0,,4,,,76,127
63426,note_on,1,0,0,,0,,,72,127
63535,note_off,109,0,0,,0,,,72,127
63535,note_off,0,0,0,,0,,,36,127
63536,note_on,1,0,0,,1,,,73,127
63646,note_on,110,0,0,,0,,,72,127
63755,note_off,109,0,0,,0,,,72,127
63755,note_off,0,0,0,,1,,,73,127
63756,note_on,1,0,0,,11,,,70,127
63756,note_on,0,0,0,,4,,,76,127
63865,note_off,109,0,0,,11,,,70,127
63866,note_on,1,0,0,,8,,,68,127
63975,note_off,109,0,0,,8,,,68,127
63975,note_off,0,0,0,,4,,,76,127
63976,note_on,1,0,0,,7,,,67,127
63976,note_on,0,0,0,,5,,,77,127
64085,note_off,109,0,0,,7,,,67,127
64086,note_on,1,0,0,,5,,,65,127
64195,note_off,109,0,0,,5,,,65,127
64195,note_off,0,0,0,,5,,,77,127
64196,note_on,1,0,0,,0,,,36,127
64196,note_on,0,0,0,,7,,,79,127
64305,note_off,109,0,0,,7,,,79,127
64306,note_on,1,0,0,,12,,,83,127
64415,note_off,109,0,0,,12,,,83,127
64416,note_on,1,0,0,,0,,,84,127
64525,note_off,109,0,0,,0,,,84,127
64526,note_on,1,0,0,,7,,,79,127
64635,note_off,109,0,0,,7,,,79,127
64636,note_on,1,0,0,,4,,,76,127
64745,note_off,109,0,0,,4,,,76,127
64746,note_on,1,0,0,,0,,,72,127
64855,note_off,109,0,0,,0,,,72,127
64855,note_off,0,0,0,,0,,,36,127
64856,note_on,1,0,0,,1,,,73,127
64966,note_on,110,0,0,,0,,,72,127
65075,note_off,109,0,0,,0,,,72,127
65075,note_off,0,0,0,,1,,,73,127
65076,note_on,1,0,0,,11,,,70,127
65076,note_on,0,0,0,,4,,,76,127
65185,note_off,109,0,0,,11,,,70,127
65186,note_on,1,0,0,,8,,,68,127
65295,note_off,109,0,0,,8,,,68,127
65295,note_off,0,0,0,,4,,,76,127
65296,note_on,1,0,0,,7,,,67,127
65296,note_on,0,0,0,,5,,,77,127
65405,note_off,109,0,0,,7,,,67,127
65406,note_on,1,0,0,,5,,,65,127
65515,note_off,109,0,0,,5,,,65,127
65515,note_off,0,0,0,,5,,,77,127
65516,note_on,1,0,0,,4,,,64,127
65516,note_on,0,0,0,,7,,,79,127
65625,note_off,109,0,0,,4,,,64,127
65626,note_on,1,0,0,,2,,,62,127
65735,note_off,109,0,0,,2,,,62,127
65735,note_off,0,0,0,,7,,,79,127
65736,note_on,1,0,0,,0,,,60,127
65736,note_on,0,0,0,,8,,,80,127
65845,note_off,109,0,0,,0,,,60,127
65846,note_on,1,0,0,,11,,,58,127
65955,note_off,109,0,0,,11,,,58,127
65955,note_off,0,0,0,,8,,,80,127
65956,note_on,1,0,0,,8,,,56,127
65956,note_on,0,0,0,,11,,,82,127
66065,note_off,109,0,0,,8,,,56,127
66066,note_on,1,0,0,,7,,,55,127
66175,note_off,109,0,0,,7,,,55,127
66175,note_off,0,0,0,,11,,,82,127
66176,note_on,1,0,0,,5,,,53,127
66176,note_on,0,0,0,,8,,,80,127
66394,note_off,218,0,0,,8,,,80,127
66394,note_off,0,0,0,,5,,,53,127
66395,note_on,1,0,0,,11,,,46,127
66395,note_on,0,0,0,,7,,,79,127
66504,note_off,109,0,0,,7,,,79,127
66505,note_on,1,0,0,,5,,,77,127
66614,note_off,109,0,0,,5,,,77,127
66614,note_off,0,0,0,,11,,,46,127
66615,note_on,1,0,0,,0,,,48,127
66615,note_on,0,0,0,,4,,,76,127
66724,note_off,109,0,0,,4,,,76,127
66725,note_on,1,0,0,,7,,,79,127
66834,note_off,109,0,0,,7,,,79,127
66834,note_off,0,0,0,,0,,,48,127
66835,note_on,1,0,0,,5,,,41,127
66835,note_on,0,0,0,,5,,,77,127
66944,note_off,109,0,0,,5,,,77,127
66945,note_on,1,0,0,,0,,,72,127
67054,note_off,109,0,0,,0,,,72,127
67055,note_on,1,0,0,,5,,,77,127
67164,note_off,109,0,0,,5,,,77,127
67165,note_on,1,0,0,,8,,,80,127
67224,note_off,59,0,0,,5,,,41,127
67273,note_off,49,0,0,,8,,,80,127
67274,note_on,1,0,0,,11,,,58,127
67274,note_on,0,0,0,,5,,,65,127
67274,note_on,0,0,0,,1,,,73,127
67274,note_on,0,0,0,,7,,,79,127
67328,note_off,54,0,0,,7,,,79,127
67329,note_on,1,0,0,,5,,,77,127
67383,note_off,54,0,0,,5,,,77,127
67383,note_off,0,0,0,,1,,,73,127
67384,note_on,1,0,0,,4,,,76,127
67493,note_off,109,0,0,,4,,,76,127
67493,note_off,0,0,0,,5,,,65,127
67493,note_off,0,0,0,,11,,,58,127
67494,note_on,1,0,0,,8,,,56,127
67494,note_on,0,0,0,,5,,,65,127
67494,note_on,0,0,0,,5,,,77,127
67603,note_off,109,0,0,,5,,,77,127
67604,note_on,1,0,0,,0,,,72,127
67713,note_off,109,0,0,,0,,,72,127
67714,note_on,1,0,0,,5,,,77,127
67823,note_off,109,0,0,,5,,,77,127
67824,note_on,1,0,0,,8,,,80,127
67933,note_off,109,0,0,,8,,,80,127
67933,note_off,0,0,0,,5,,,65,127
67933,note_off,0,0,0,,8,,,56,127
67934,note_on,1,0,0,,11,,,58,127
67934,note_on,0,0,0,,5,,,65,127
67934,note_on,0,0,0,,1,,,73,127
67934,note_on,0,0,0,,7,,,79,127
67988,note_off,54,0,0,,7,,,79,127
67989,note_on,1,0,0,,5,,,77,127
68043,note_off,54,0,0,,5,,,77,127
68043,note_off,0,0,0,,1,,,73,127
68044,note_on,1,0,0,,4,,,76,127
68153,note_off,109,0,0,,4,,,76,127
68153,note_off,0,0,0,,5,,,65,127
68153,note_off,0,0,0,,11,,,58,127
68154,note_on,1,0,0,,8,,,56,127
68154,note_on,0,0,0,,5,,,65,127
68154,note_on,0,0,0,,5,,,77,127
68263,note_off,109,0,0,,5,,,77,127
68264,note_on,1,0,0,,0,,,72,127
68373,note_off,109,0,0,,0,,,72,127
68374,note_on,1,0,0,,5,,,77,127
68483,note_off,109,0,0,,5,,,77,127
68484,note_on,1,0,0,,8,,,80,127
68593,note_off,109,0,0,,8,,,80,127
68593,note_off,0,0,0,,5,,,65,127
68593,note_off,0,0,0,,8,,,56,127
68594,note_on,1,0,0,,5,,,65,127
68594,note_on,0,0,0,,11,,,58,127
68594,note_on,0,0,0,,7,,,79,127
68594,note_on,0,0,0,,1,,,73,127
68648,note_off,54,0,0,,7,,,79,127
68649,note_on,1,0,0,,5,,,77,127
68703,note_off,54,0,0,,5,,,77,127
68703,note_off,0,0,0,,1,,,73,127
68704,note_on,1,0,0,,4,,,76,127
68813,note_off,109,0,0,,4,,,76,127
68813,note_off,0,0,0,,11,,,58,127
68813,note_off,0,0,0,,5,,,65,127
68814,note_on,1,0,0,,5,,,65,127
68814,note_on,0,0,0,,8,,,56,127
68814,note_on,0,0,0,,0,,,84,127
68923,note_off,109,0,0,,0,,,84,127
68924,note_on,1,0,0,,8,,,80,127
69033,note_off,109,0,0,,8,,,80,127
69033,note_off,0,0,0,,8,,,56,127
69033,note_off,0,0,0,,5,,,65,127
69034,note_on,1,0,0,,7,,,55,127
69034,note_on,0,0,0,,4,,,64,127
69034,note_on,0,0,0,,11,,,82,127
69143,note_off,109,0,0,,11,,,82,127
69144,note_on,1,0,0,,7,,,79,127
69253,note_off,109,0,0,,7,,,79,127
69253,note_off,0,0,0,,4,,,64,127
69253,note_off,0,0,0,,7,,,55,127
69254,note_on,1,0,0,,5,,,53,127
69254,note_on,0,0,0,,5,,,65,127
69254,note_on,0,0,0,,8,,,80,127
69363,note_off,109,0,0,,8,,,80,127
69364,note_on,1,0,0,,5,,,77,127
69473,note_off,109,0,0,,5,,,77,127
69473,note_off,0,0,0,,5,,,65,127
69473,note_off,0,0,0,,5,,,53,127
69474,note_on,1,0,0,,11,,,58,127
69474,note_on,0,0,0,,7,,,79,127
69528,note_off,54,0,0,,7,,,79,127
69529,note_on,1,0,0,,8,,,80,127
69583,note_off,54,0,0,,8,,,80,127
69584,note_on,1,0,0,,11,,,82,127
69693,note_off,109,0,0,,11,,,82,127
69693,note_off,0,0,0,,11,,,58,127
69694,note_on,1,0,0,,0,,,60,127
69694,note_on,0,0,0,,8,,,80,127
69803,note_off,109,0,0,,8,,,80,127
69804,note_on,1,0,0,,7,,,79,127
69913,note_off,109,0,0,,7,,,79,127
69913,note_off,0,0,0,,0,,,60,127
69914,note_on,1,0,0,,0,,,48,127
69914,note_on,0,0,0,,5,,,77,127
70023,note_off,109,0,0,,5,,,77,127
70024,note_on,1,0,0,,4,,,76,127
70133,note_off,109,0,0,,4,,,76,127
70133,note_off,0,0,0,,0,,,48,127
70134,note_on,1,0,0,,5,,,41,127
70134,note_on,0,0,0,,0,,,84,127
70134,note_on,0,0,0,,5,,,77,127
70243,note_off,109,0,0,,5,,,77,127
70244,note_on,1,0,0,,0,,,72,127
70353,note_off,109,0,0,,0,,,72,127
70354,note_on,1,0,0,,5,,,77,127
70463,note_off,109,0,0,,5,,,77,127
70464,note_on,1,0,0,,8,,,80,127
70523,note_off,59,0,0,,5,,,41,127
70569,note_off,46,0,0,,0,,,84,127
70572,note_off,3,0,0,,8,,,80,127
70573,note_on,1,0,0,,11,,,58,127
70573,note_on,0,0,0,,5,,,65,127
70573,note_on,0,0,0,,7,,,79,127
70573,note_on,0,0,0,,1,,,85,127
70627,note_off,54,0,0,,7,,,79,127
70628,note_on,1,0,0,,5,,,77,127
70682,note_off,54,0,0,,5,,,77,127
70683,note_on,1,0,0,,4,,,76,127
70790,note_off,107,0,0,,1,,,85,127
70791,note_off,1,0,0,,4,,,76,127
70791,note_off,0,0,0,,5,,,65,127
70791,note_off,0,0,0,,11,,,58,127
70792,note_on,1,0,0,,5,,,65,127
70792,note_on,0,0,0,,8,,,56,127
70792,note_on,0,0,0,,5,,,77,127
70792,note_on,0,0,0,,0,,,84,127
70901,note_off,109,0,0,,5,,,77,127
70902,note_on,1,0,0,,0,,,72,127
71011,note_off,109,0,0,,0,,,72,127
71012,note_on,1,0,0,,5,,,77,127
71121,note_off,109,0,0,,5,,,77,127
71122,note_on,1,0,0,,8,,,80,127
71227,note_off,105,0,0,,0,,,84,127
71230,note_off,3,0,0,,8,,,80,127
71230,note_off,0,0,0,,8,,,56,127
71230,note_off,0,0,0,,5,,,65,127
71231,note_on,1,0,0,,11,,,58,127
71231,note_on,0,0,0,,5,,,65,127
71231,note_on,0,0,0,,7,,,79,127
71231,note_on,0,0,0,,1,,,85,127
71285,note_off,54,0,0,,7,,,79,127
71286,note_on,1,0,0,,5,,,77,127
71340,note_off,54,0,0,,5,,,77,127
71341,note_on,1,0,0,,4,,,76,127
71448,note_off,107,0,0,,1,,,85,127
71449,note_off,1,0,0,,4,,,76,127
71449,note_off,0,0,0,,5,,,65,127
71449,note_off,0,0,0,,11,,,58,127
71450,note_on,1,0,0,,5,,,65,127
71450,note_on,0,0,0,,8,,,56,127
71450,note_on,0,0,0,,0,,,84,127
71450,note_on,0,0,0,,5,,,77,127
71559,note_off,109,0,0,,5,,,77,127
71560,note_on,1,0,0,,0,,,72,127
71669,note_off,109,0,0,,0,,,72,127
71670,note_on,1,0,0,,5,,,77,127
71779,note_off,109,0,0,,5,,,77,127
71780,note_on,1,0,0,,8,,,80,127
71885,note_off,105,0,0,,0,,,84,127
71888,note_off,3,0,0,,8,,,80,127
71888,note_off,0,0,0,,8,,,56,127
71888,note_off,0,0,0,,5,,,65,127
71889,note_on,1,0,0,,11,,,58,127
71889,note_on,0,0,0,,5,,,65,127
71889,note_on,0,0,0,,1,,,85,127
71889,note_on,0,0,0,,7,,,79,127
71943,note_off,54,0,0,,7,,,79,127
71944,note_on,1,0,0,,5,,,77,127
71998,note_off,54,0,0,,5,,,77,127
71999,note_on,1,0,0,,4,,,76,127
72106,note_off,107,0,0,,1,,,85,127
72107,note_off,1,0,0,,4,,,76,127
72107,note_off,0,0,0,,5,,,65,127
72107,note_off,0,0,0,,11,,,58,127
72108,note_on,1,0,0,,5,,,65,127
72108,note_on,0,0,0,,8,,,56,127
72108,note_on,0,0,0,,0,,,84,127
72217,note_off,109,0,0,,0,,,84,127
72218,note_on,1,0,0,,8,,,80,127
72327,note_off,109,0,0,,8,,,80,127
72327,note_off,0,0,0,,8,,,56,127
72327,note_off,0,0,0,,5,,,65,127
72328,note_on,1,0,0,,7,,,55,127
72328,note_on,0,0,0,,11,,,82,127
72437,note_off,109,0,0,,11,,,82,127
72438,note_on,1,0,0,,7,,,79,127
72547,note_off,109,0,0,,7,,,79,127
72547,note_off,0,0,0,,7,,,55,127
72548,note_on,1,0,0,,5,,,53,127
72548,note_on,0,0,0,,8,,,80,127
72657,note_off,109,0,0,,8,,,80,127
72658,note_on,1,0,0,,5,,,77,127
72767,note_off,109,0,0,,5,,,77,127
72767,note_off,0,0,0,,5,,,53,127
72768,note_on,1,0,0,,11,,,58,127
72768,note_on,0,0,0,,7,,,79,127
72822,note_off,54,0,0,,7,,,79,127
72823,note_on,1,0,0,,8,,,80,127
72877,note_off,54,0,0,,8,,,80,127
72878,note_on,1,0,0,,11,,,82,127
72987,note_off,109,0,0,,11,,,82,127
72987,note_off,0,0,0,,11,,,58,127
72988,note_on,1,0,0,,0,,,60,127
72988,note_on,0,0,0,,8,,,80,127
73097,note_off,109,0,0,,8,,,80,127
73098,note_on,1,0,0,,7,,,79,127
73207,note_off,109,0,0,,7,,,79,127
73207,note_off,0,0,0,,0,,,60,127
73208,note_on,1,0,0,,0,,,48,127
73208,note_on,0,0,0,,5,,,77,127
73317,note_off,109,0,0,,5,,,77,127
73318,note_on,1,0,0,,4,,,76,127
73427,note_off,109,0,0,,4,,,76,127
73427,note_off,0,0,0,,0,,,48,127
73428,note_on,1,0,0,,5,,,77,127
73428,note_on,0,0,0,,5,,,41,127
73538,note_off,110,0,0,,5,,,77,127
73539,note_on,1,0,0,,0,,,72,127
73649,note_off,110,0,0,,0,,,72,127
73650,note_off,1,0,0,,5,,,41,127
73651,note_on,1,0,0,,1,,,73,127
73651,note_on,0,0,0,,7,,,43,127
73761,note_off,110,0,0,,1,,,73,127
73763,note_on,2,0,0,,11,,,70,127
73873,note_off,110,0,0,,11,,,70,127
73873,note_off,0,0,0,,7,,,43,127
73875,note_on,2,0,0,,8,,,68,127
73875,note_on,0,0,0,,8,,,44,127
73985,note_off,110,0,0,,8,,,68,127
73987,note_on,2,0,0,,7,,,67,127
74097,note_off,110,0,0,,7,,,67,127
74097,note_off,0,0,0,,8,,,44,127
74099,note_on,2,0,0,,8,,,68,127
74099,note_on,0,0,0,,11,,,46,127
74153,note_off,54,0,0,,8,,,68,127
74155,note_on,2,0,0,,11,,,70,127
74209,note_off,54,0,0,,11,,,70,127
74211,note_on,2,0,0,,0,,,72,127
74321,note_off,110,0,0,,0,,,72,127
74321,note_off,0,0,0,,11,,,46,127
74323,note_on,2,0,0,,8,,,68,127
74323,note_on,0,0,0,,11,,,70,127
74323,note_on,0,0,0,,0,,,48,127
74433,note_off,110,0,0,,11,,,70,127
74433,note_off,0,0,0,,8,,,68,127
74435,note_on,2,0,0,,7,,,67,127
74545,note_off,110,0,0,,7,,,67,127
74545,note_off,0,0,0,,0,,,48,127
74547,note_on,2,0,0,,5,,,65,127
74547,note_on,0,0,0,,0,,,36,127
74657,note_off,110,0,0,,5,,,65,127
74659,note_on,2,0,0,,4,,,64,127
74769,note_off,110,0,0,,0,,,36,127
74778,note_off,9,0,0,,4,,,64,127
74788,note_on,10,0,0,,5,,,65,127
74788,note_on,0,0,0,,5,,,41,127
76835,note_off,2047,0,0,,5,,,41,127
76835,note_off,0,0,0,,5,,,65,127
78336,end_of_track,1501,1,0,,,,,,
