tick,type,time,meta,track,program,channel,pitch,tempo,note,velocity
0,copyright,0,1,0,,,,,,
0,program_change,0,0,0,6,0,,,,
0,pitchwheel,0,0,0,,0,0,,,
0,program_change,0,0,0,6,1,,,,
0,pitchwheel,0,0,0,,1,-590,,,
0,program_change,0,0,0,6,2,,,,
0,pitchwheel,0,0,0,,2,-272,,,
0,program_change,0,0,0,6,3,,,,
0,pitchwheel,0,0,0,,3,-353,,,
0,program_change,0,0,0,6,4,,,,
0,pitchwheel,0,0,0,,4,-560,,,
0,program_change,0,0,0,6,5,,,,
0,pitchwheel,0,0,0,,5,-80,,,
0,program_change,0,0,0,6,6,,,,
0,pitchwheel,0,0,0,,6,-625,,,
0,program_change,0,0,0,6,7,,,,
0,pitchwheel,0,0,0,,7,-130,,,
0,program_change,0,0,0,6,8,,,,
0,pitchwheel,0,0,0,,8,-512,,,
0,program_change,0,0,0,6,10,,,,
0,pitchwheel,0,0,0,,10,-464,,,
0,program_change,0,0,0,6,11,,,,
0,pitchwheel,0,0,0,,11,-208,,,
0,program_change,0,0,0,6,12,,,,
0,pitchwheel,0,0,0,,12,-553,,,
0,set_tempo,0,1,0,,,,545450,,
192,note_on,192,0,0,,5,,,41,127
384,note_on,192,0,0,,5,,,77,127
575,note_off,191,0,0,,5,,,77,127
576,note_on,1,0,0,,0,,,84,127
767,note_off,191,0,0,,0,,,84,127
768,note_on,1,0,0,,11,,,82,127
959,note_off,191,0,0,,11,,,82,127
959,note_off,0,0,0,,5,,,41,127
960,note_on,1,0,0,,10,,,81,127
1151,note_off,191,0,0,,10,,,81,127
1152,note_on,1,0,0,,7,,,79,127
1247,note_off,95,0,0,,7,,,79,127
1248,note_on,1,0,0,,5,,,77,127
1343,note_off,95,0,0,,5,,,77,127
1344,note_on,1,0,0,,4,,,76,127
1535,note_off,191,0,0,,4,,,76,127
1536,note_on,1,0,0,,2,,,74,127
1631,note_off,95,0,0,,2,,,74,127
1632,note_on,1,0,0,,0,,,72,127
1727,note_off,95,0,0,,0,,,72,127
1728,note_on,1,0,0,,11,,,70,127
1919,note_off,191,0,0,,11,,,70,127
1920,note_on,1,0,0,,10,,,69,127
2015,note_off,95,0,0,,10,,,69,127
2016,note_on,1,0,0,,7,,,67,127
2111,note_off,95,0,0,,7,,,67,127
2112,note_on,1,0,0,,5,,,65,127
2303,note_off,191,0,0,,5,,,65,127
2304,note_on,1,0,0,,4,,,64,127
2399,note_off,95,0,0,,4,,,64,127
2400,note_on,1,0,0,,2,,,62,127
2495,note_off,95,0,0,,2,,,62,127
2496,note_on,1,0,0,,0,,,60,127
2688,note_on,192,0,0,,0,,,48,127
2879,note_off,191,0,0,,0,,,48,127
2880,note_on,1,0,0,,0,,,72,127
3071,note_off,191,0,0,,0,,,72,127
3072,note_on,1,0,0,,11,,,70,127
3263,note_off,191,0,0,,11,,,70,127
3264,note_on,1,0,0,,10,,,69,127
3455,note_off,191,0,0,,10,,,69,127
3456,note_on,1,0,0,,7,,,67,127
3551,note_off,95,0,0,,7,,,67,127
3552,note_on,1,0,0,,5,,,65,127
3647,note_off,95,0,0,,5,,,65,127
3648,note_off,1,0,0,,0,,,60,127
3648,note_on,0,0,0,,4,,,64,127
3839,note_off,191,0,0,,4,,,64,127
3840,note_on,1,0,0,,2,,,62,127
3935,note_off,95,0,0,,2,,,62,127
3936,note_on,1,0,0,,0,,,60,127
4031,note_off,95,0,0,,0,,,60,127
4032,note_on,1,0,0,,11,,,58,127
4223,note_off,191,0,0,,11,,,58,127
4224,note_on,1,0,0,,10,,,57,127
4319,note_off,95,0,0,,10,,,57,127
4320,note_on,1,0,0,,7,,,55,127
4415,note_off,95,0,0,,7,,,55,127
4416,note_on,1,0,0,,5,,,53,127
4607,note_off,191,0,0,,5,,,53,127
4608,note_on,1,0,0,,4,,,52,127
4703,note_off,95,0,0,,4,,,52,127
4704,note_on,1,0,0,,2,,,50,127
4799,note_off,95,0,0,,2,,,50,127
4800,note_on,1,0,0,,0,,,48,127
4992,note_on,192,0,0,,2,,,74,127
5087,note_off,95,0,0,,2,,,74,127
5088,note_on,1,0,0,,0,,,72,127
5180,note_off,92,0,0,,0,,,48,127
5183,note_off,3,0,0,,0,,,72,127
5184,note_on,1,0,0,,11,,,70,127
5375,note_off,191,0,0,,11,,,70,127
5376,note_on,1,0,0,,7,,,67,127
5376,note_on,0,0,0,,7,,,79,127
5471,note_off,95,0,0,,7,,,67,127
5472,note_on,1,0,0,,5,,,65,127
5567,note_off,95,0,0,,5,,,65,127
5568,note_on,1,0,0,,4,,,64,127
5759,note_off,191,0,0,,4,,,64,127
5759,note_off,0,0,0,,7,,,79,127
5760,note_on,1,0,0,,5,,,65,127
5760,note_on,0,0,0,,10,,,81,127
5951,note_off,191,0,0,,5,,,65,127
5952,note_on,1,0,0,,0,,,48,127
6048,note_off,96,0,0,,10,,,81,127
6144,note_on,96,0,0,,2,,,74,127
6239,note_off,95,0,0,,2,,,74,127
6240,note_on,1,0,0,,0,,,72,127
6335,note_off,95,0,0,,0,,,72,127
6336,note_on,1,0,0,,11,,,70,127
6432,note_off,96,0,0,,0,,,48,127
6527,note_off,95,0,0,,11,,,70,127
6528,note_on,1,0,0,,7,,,67,127
6528,note_on,0,0,0,,7,,,79,127
6623,note_off,95,0,0,,7,,,67,127
6624,note_on,1,0,0,,5,,,65,127
6719,note_off,95,0,0,,5,,,65,127
6720,note_on,1,0,0,,4,,,64,127
6911,note_off,191,0,0,,4,,,64,127
6911,note_off,0,0,0,,7,,,79,127
6912,note_on,1,0,0,,5,,,65,127
6912,note_on,0,0,0,,10,,,81,127
7103,note_off,191,0,0,,5,,,65,127
7104,note_on,1,0,0,,11,,,46,127
7200,note_off,96,0,0,,10,,,81,127
7296,note_on,96,0,0,,2,,,86,127
7391,note_off,95,0,0,,2,,,86,127
7392,note_on,1,0,0,,0,,,84,127
7487,note_off,95,0,0,,0,,,84,127
7488,note_on,1,0,0,,11,,,82,127
7679,note_off,191,0,0,,11,,,82,127
7680,note_on,1,0,0,,7,,,79,127
7775,note_off,95,0,0,,7,,,79,127
7776,note_on,1,0,0,,5,,,77,127
7871,note_off,95,0,0,,5,,,77,127
7871,note_off,0,0,0,,11,,,46,127
7872,note_on,1,0,0,,0,,,48,127
7872,note_on,0,0,0,,4,,,76,127
8063,note_off,191,0,0,,4,,,76,127
8064,note_on,1,0,0,,0,,,72,127
8159,note_off,95,0,0,,0,,,72,127
8160,note_on,1,0,0,,11,,,70,127
8255,note_off,95,0,0,,11,,,70,127
8255,note_off,0,0,0,,0,,,48,127
8256,note_on,1,0,0,,5,,,53,127
8256,note_on,0,0,0,,10,,,69,127
8447,note_off,191,0,0,,10,,,69,127
8448,note_on,1,0,0,,5,,,65,127
8543,note_off,95,0,0,,5,,,65,127
8544,note_on,1,0,0,,4,,,64,127
8639,note_off,95,0,0,,4,,,64,127
8639,note_off,0,0,0,,5,,,53,127
8640,note_on,1,0,0,,11,,,46,127
8640,note_on,0,0,0,,2,,,62,127
8831,note_off,191,0,0,,2,,,62,127
8832,note_on,1,0,0,,0,,,60,127
8927,note_off,95,0,0,,0,,,60,127
8928,note_on,1,0,0,,11,,,58,127
9023,note_off,95,0,0,,11,,,58,127
9023,note_off,0,0,0,,11,,,46,127
9024,note_on,1,0,0,,0,,,48,127
9024,note_on,0,0,0,,10,,,57,127
9215,note_off,191,0,0,,10,,,57,127
9216,note_on,1,0,0,,7,,,55,127
9407,note_off,191,0,0,,7,,,55,127
9407,note_off,0,0,0,,0,,,48,127
9408,note_on,1,0,0,,5,,,41,127
9408,note_on,0,0,0,,7,,,55,127
9455,note_off,47,0,0,,7,,,55,127
9456,note_on,1,0,0,,5,,,53,127
9503,note_off,47,0,0,,5,,,53,127
9504,note_on,1,0,0,,7,,,55,127
9551,note_off,47,0,0,,7,,,55,127
9552,note_on,1,0,0,,5,,,53,127
10458,note_off,906,0,0,,5,,,41,127
10560,note_off,102,0,0,,5,,,53,127
10560,note_on,0,0,0,,5,,,65,127
10752,note_on,192,0,0,,5,,,77,127
10943,note_off,191,0,0,,5,,,77,127
10944,note_on,1,0,0,,0,,,84,127
11135,note_off,191,0,0,,0,,,84,127
11136,note_on,1,0,0,,11,,,82,127
11327,note_off,191,0,0,,11,,,82,127
11327,note_off,0,0,0,,5,,,65,127
11328,note_on,1,0,0,,5,,,65,127
11328,note_on,0,0,0,,11,,,82,127
11423,note_off,95,0,0,,11,,,82,127
11424,note_on,1,0,0,,8,,,80,127
11519,note_off,95,0,0,,8,,,80,127
11520,note_on,1,0,0,,7,,,79,127
11615,note_off,95,0,0,,7,,,79,127
11616,note_on,1,0,0,,5,,,77,127
11711,note_off,95,0,0,,5,,,77,127
11711,note_off,0,0,0,,5,,,65,127
11712,note_on,1,0,0,,7,,,67,127
11712,note_on,0,0,0,,11,,,70,127
11712,note_on,0,0,0,,1,,,73,127
11712,note_on,0,0,0,,3,,,75,127
11903,note_off,191,0,0,,3,,,75,127
11904,note_on,1,0,0,,11,,,82,127
12095,note_off,191,0,0,,11,,,82,127
12096,note_on,1,0,0,,1,,,85,127
12287,note_off,191,0,0,,1,,,85,127
12288,note_on,1,0,0,,0,,,84,127
12479,note_off,191,0,0,,0,,,84,127
12479,note_off,0,0,0,,1,,,73,127
12479,note_off,0,0,0,,11,,,70,127
12479,note_off,0,0,0,,7,,,67,127
12480,note_on,1,0,0,,0,,,72,127
12480,note_on,0,0,0,,11,,,70,127
12480,note_on,0,0,0,,7,,,67,127
12480,note_on,0,0,0,,0,,,84,127
12575,note_off,95,0,0,,0,,,84,127
12576,note_on,1,0,0,,11,,,82,127
12671,note_off,95,0,0,,11,,,82,127
12672,note_on,1,0,0,,8,,,80,127
12767,note_off,95,0,0,,8,,,80,127
12768,note_on,1,0,0,,7,,,79,127
12863,note_off,95,0,0,,7,,,79,127
12863,note_off,0,0,0,,7,,,67,127
12863,note_off,0,0,0,,11,,,70,127
12863,note_off,0,0,0,,0,,,72,127
12864,note_on,1,0,0,,8,,,68,127
12864,note_on,0,0,0,,5,,,65,127
12864,note_on,0,0,0,,0,,,72,127
12864,note_on,0,0,0,,8,,,80,127
13055,note_off,191,0,0,,8,,,80,127
13056,note_on,1,0,0,,5,,,77,127
13247,note_off,191,0,0,,5,,,77,127
13248,note_on,1,0,0,,0,,,84,127
13439,note_off,191,0,0,,0,,,84,127
13440,note_on,1,0,0,,11,,,82,127
13631,note_off,191,0,0,,11,,,82,127
13631,note_off,0,0,0,,0,,,72,127
13631,note_off,0,0,0,,5,,,65,127
13631,note_off,0,0,0,,8,,,68,127
13632,note_on,1,0,0,,5,,,65,127
13632,note_on,0,0,0,,8,,,68,127
13632,note_on,0,0,0,,0,,,72,127
13632,note_on,0,0,0,,11,,,82,127
13727,note_off,95,0,0,,11,,,82,127
13728,note_on,1,0,0,,8,,,80,127
13823,note_off,95,0,0,,8,,,80,127
13824,note_on,1,0,0,,7,,,79,127
13919,note_off,95,0,0,,7,,,79,127
13920,note_on,1,0,0,,5,,,77,127
14015,note_off,95,0,0,,5,,,77,127
14015,note_off,0,0,0,,0,,,72,127
14015,note_off,0,0,0,,8,,,68,127
14015,note_off,0,0,0,,5,,,65,127
14016,note_on,1,0,0,,7,,,67,127
14016,note_on,0,0,0,,11,,,70,127
14208,note_on,192,0,0,,3,,,75,127
14399,note_off,191,0,0,,3,,,75,127
14400,note_on,1,0,0,,11,,,82,127
14591,note_off,191,0,0,,11,,,82,127
14592,note_on,1,0,0,,3,,,75,127
14783,note_off,191,0,0,,3,,,75,127
14783,note_off,0,0,0,,11,,,70,127
14783,note_off,0,0,0,,7,,,67,127
14784,note_on,1,0,0,,3,,,63,127
14784,note_on,0,0,0,,7,,,67,127
14784,note_on,0,0,0,,3,,,75,127
14879,note_off,95,0,0,,3,,,75,127
14880,note_on,1,0,0,,1,,,73,127
14975,note_off,95,0,0,,1,,,73,127
14976,note_on,1,0,0,,0,,,72,127
15071,note_off,95,0,0,,0,,,72,127
15072,note_on,1,0,0,,11,,,70,127
15167,note_off,95,0,0,,11,,,70,127
15167,note_off,0,0,0,,7,,,67,127
15167,note_off,0,0,0,,3,,,63,127
15168,note_on,1,0,0,,8,,,68,127
15168,note_on,0,0,0,,8,,,56,127
15168,note_on,0,0,0,,0,,,72,127
15359,note_off,191,0,0,,0,,,72,127
15360,note_on,1,0,0,,3,,,75,127
15551,note_off,191,0,0,,3,,,75,127
15552,note_on,1,0,0,,8,,,80,127
15743,note_off,191,0,0,,8,,,80,127
15744,note_on,1,0,0,,7,,,79,127
15839,note_off,95,0,0,,7,,,79,127
15840,note_on,1,0,0,,5,,,77,127
15935,note_off,95,0,0,,5,,,77,127
15935,note_off,0,0,0,,8,,,56,127
15935,note_off,0,0,0,,8,,,68,127
15936,note_on,1,0,0,,0,,,60,127
15936,note_on,0,0,0,,8,,,68,127
15936,note_on,0,0,0,,3,,,75,127
16127,note_off,191,0,0,,3,,,75,127
16128,note_on,1,0,0,,1,,,73,127
16223,note_off,95,0,0,,1,,,73,127
16224,note_on,1,0,0,,0,,,72,127
16319,note_off,95,0,0,,0,,,72,127
16319,note_off,0,0,0,,8,,,68,127
16319,note_off,0,0,0,,0,,,60,127
16320,note_on,1,0,0,,1,,,49,127
16320,note_on,0,0,0,,4,,,76,127
16511,note_off,191,0,0,,4,,,76,127
16512,note_on,1,0,0,,5,,,77,127
16703,note_off,191,0,0,,5,,,77,127
16703,note_off,0,0,0,,1,,,49,127
16704,note_on,1,0,0,,1,,,61,127
16704,note_on,0,0,0,,3,,,75,127
16799,note_off,95,0,0,,3,,,75,127
16800,note_on,1,0,0,,1,,,73,127
16895,note_off,95,0,0,,1,,,73,127
16896,note_on,1,0,0,,0,,,72,127
16991,note_off,95,0,0,,0,,,72,127
16992,note_on,1,0,0,,11,,,70,127
17087,note_off,95,0,0,,11,,,70,127
17087,note_off,0,0,0,,1,,,61,127
17088,note_on,1,0,0,,1,,,49,127
17088,note_on,0,0,0,,11,,,70,127
17183,note_off,95,0,0,,11,,,70,127
17184,note_on,1,0,0,,8,,,68,127
17279,note_off,95,0,0,,8,,,68,127
17280,note_on,1,0,0,,7,,,67,127
17375,note_off,95,0,0,,7,,,67,127
17376,note_on,1,0,0,,8,,,68,127
17471,note_off,95,0,0,,8,,,68,127
17471,note_off,0,0,0,,1,,,49,127
17472,note_on,1,0,0,,7,,,67,127
17664,note_on,192,0,0,,3,,,51,127
17852,note_off,188,0,0,,7,,,67,127
17855,note_off,3,0,0,,3,,,51,127
17856,note_on,1,0,0,,3,,,63,127
18047,note_off,191,0,0,,3,,,63,127
18048,note_on,1,0,0,,1,,,61,127
18048,note_on,0,0,0,,3,,,75,127
18239,note_off,191,0,0,,3,,,75,127
18239,note_off,0,0,0,,1,,,61,127
18240,note_on,1,0,0,,0,,,60,127
18240,note_on,0,0,0,,11,,,70,127
18335,note_off,95,0,0,,11,,,70,127
18336,note_on,1,0,0,,8,,,68,127
18431,note_off,95,0,0,,8,,,68,127
18431,note_off,0,0,0,,0,,,60,127
18432,note_on,1,0,0,,11,,,58,127
18432,note_on,0,0,0,,7,,,67,127
18527,note_off,95,0,0,,7,,,67,127
18527,note_off,0,0,0,,11,,,58,127
18528,note_on,1,0,0,,8,,,56,127
18528,note_on,0,0,0,,8,,,68,127
18623,note_off,95,0,0,,8,,,68,127
18623,note_off,0,0,0,,8,,,56,127
18624,note_on,1,0,0,,7,,,55,127
18624,note_on,0,0,0,,8,,,68,127
18815,note_off,191,0,0,,8,,,68,127
18815,note_off,0,0,0,,7,,,55,127
18816,note_on,1,0,0,,5,,,53,127
18816,note_on,0,0,0,,11,,,70,127
18911,note_off,95,0,0,,5,,,53,127
18912,note_on,1,0,0,,3,,,51,127
19007,note_off,95,0,0,,3,,,51,127
19008,note_on,1,0,0,,1,,,49,127
19156,note_off,148,0,0,,11,,,70,127
19199,note_off,43,0,0,,1,,,49,127
19200,note_on,1,0,0,,0,,,48,127
19200,note_on,0,0,0,,0,,,72,127
19295,note_off,95,0,0,,0,,,48,127
19296,note_on,1,0,0,,11,,,46,127
19391,note_off,95,0,0,,11,,,46,127
19392,note_on,1,0,0,,8,,,44,127
19540,note_off,148,0,0,,0,,,72,127
19583,note_off,43,0,0,,8,,,44,127
19584,note_on,1,0,0,,7,,,43,127
19584,note_on,0,0,0,,2,,,74,127
19679,note_off,95,0,0,,7,,,43,127
19680,note_on,1,0,0,,5,,,41,127
19775,note_off,95,0,0,,5,,,41,127
19776,note_on,1,0,0,,3,,,39,127
19964,note_off,188,0,0,,2,,,74,127
19967,note_off,3,0,0,,3,,,39,127
19968,note_on,1,0,0,,3,,,51,127
19968,note_on,0,0,0,,3,,,75,127
20159,note_off,191,0,0,,3,,,51,127
20160,note_on,1,0,0,,3,,,63,127
20351,note_off,191,0,0,,3,,,63,127
20351,note_off,0,0,0,,3,,,75,127
20352,note_on,1,0,0,,1,,,61,127
20352,note_on,0,0,0,,3,,,75,127
20543,note_off,191,0,0,,3,,,75,127
20543,note_off,0,0,0,,1,,,61,127
20544,note_on,1,0,0,,0,,,60,127
20544,note_on,0,0,0,,11,,,70,127
20639,note_off,95,0,0,,11,,,70,127
20640,note_on,1,0,0,,8,,,68,127
20735,note_off,95,0,0,,8,,,68,127
20735,note_off,0,0,0,,0,,,60,127
20736,note_on,1,0,0,,11,,,58,127
20736,note_on,0,0,0,,7,,,67,127
20831,note_off,95,0,0,,7,,,67,127
20831,note_off,0,0,0,,11,,,58,127
20832,note_on,1,0,0,,8,,,56,127
20832,note_on,0,0,0,,8,,,68,127
20927,note_off,95,0,0,,8,,,68,127
20927,note_off,0,0,0,,8,,,56,127
20928,note_on,1,0,0,,7,,,55,127
20928,note_on,0,0,0,,8,,,68,127
21119,note_off,191,0,0,,8,,,68,127
21119,note_off,0,0,0,,7,,,55,127
21120,note_on,1,0,0,,5,,,53,127
21120,note_on,0,0,0,,11,,,70,127
21215,note_off,95,0,0,,5,,,53,127
21216,note_on,1,0,0,,3,,,51,127
21311,note_off,95,0,0,,3,,,51,127
21312,note_on,1,0,0,,1,,,49,127
21503,note_off,191,0,0,,1,,,49,127
21503,note_off,0,0,0,,11,,,70,127
21504,note_on,1,0,0,,0,,,48,127
21504,note_on,0,0,0,,0,,,72,127
21599,note_off,95,0,0,,0,,,48,127
21600,note_on,1,0,0,,11,,,46,127
21695,note_off,95,0,0,,11,,,46,127
21696,note_on,1,0,0,,8,,,44,127
21887,note_off,191,0,0,,8,,,44,127
21887,note_off,0,0,0,,0,,,72,127
21888,note_on,1,0,0,,7,,,43,127
21888,note_on,0,0,0,,2,,,74,127
21983,note_off,95,0,0,,7,,,43,127
21984,note_on,1,0,0,,5,,,41,127
22079,note_off,95,0,0,,5,,,41,127
22080,note_on,1,0,0,,3,,,39,127
22271,note_off,191,0,0,,2,,,74,127
22272,note_on,1,0,0,,3,,,75,127
22463,note_off,191,0,0,,3,,,39,127
22464,note_on,1,0,0,,3,,,51,127
22560,note_off,96,0,0,,3,,,75,127
22656,note_on,96,0,0,,11,,,70,127
22847,note_off,191,0,0,,11,,,70,127
22848,note_on,1,0,0,,6,,,78,127
23039,note_off,191,0,0,,6,,,78,127
23039,note_off,0,0,0,,3,,,51,127
23040,note_on,1,0,0,,5,,,77,127
23231,note_off,191,0,0,,5,,,77,127
23232,note_on,1,0,0,,3,,,39,127
23232,note_on,0,0,0,,0,,,72,127
23423,note_off,191,0,0,,0,,,72,127
23424,note_on,1,0,0,,1,,,73,127
23615,note_off,191,0,0,,1,,,73,127
23616,note_on,1,0,0,,10,,,69,127
23807,note_off,191,0,0,,10,,,69,127
23808,note_on,1,0,0,,11,,,70,127
23999,note_off,191,0,0,,11,,,70,127
24000,note_on,1,0,0,,5,,,65,127
24191,note_off,191,0,0,,5,,,65,127
24192,note_on,1,0,0,,6,,,66,127
24383,note_off,191,0,0,,6,,,66,127
24383,note_off,0,0,0,,3,,,39,127
24384,note_on,1,0,0,,3,,,39,127
24384,note_on,0,0,0,,2,,,62,127
24575,note_off,191,0,0,,2,,,62,127
24576,note_on,1,0,0,,3,,,63,127
24767,note_off,191,0,0,,3,,,63,127
24768,note_on,1,0,0,,10,,,57,127
24959,note_off,191,0,0,,10,,,57,127
24960,note_on,1,0,0,,11,,,58,127
25151,note_off,191,0,0,,11,,,58,127
25151,note_off,0,0,0,,3,,,39,127
25152,note_on,1,0,0,,3,,,39,127
25152,note_on,0,0,0,,6,,,54,127
25343,note_off,191,0,0,,6,,,54,127
25344,note_on,1,0,0,,3,,,63,127
25535,note_off,191,0,0,,3,,,63,127
25535,note_off,0,0,0,,3,,,39,127
25536,note_on,1,0,0,,5,,,41,127
25536,note_on,0,0,0,,3,,,63,127
25631,note_off,95,0,0,,3,,,63,127
25632,note_on,1,0,0,,1,,,61,127
25727,note_off,95,0,0,,1,,,61,127
25728,note_on,1,0,0,,0,,,60,127
25823,note_off,95,0,0,,0,,,60,127
25824,note_on,1,0,0,,11,,,58,127
25919,note_off,95,0,0,,11,,,58,127
25919,note_off,0,0,0,,5,,,41,127
25920,note_on,1,0,0,,5,,,41,127
25920,note_on,0,0,0,,1,,,61,127
25920,note_on,0,0,0,,5,,,65,127
26111,note_off,191,0,0,,5,,,65,127
26111,note_off,0,0,0,,1,,,61,127
26112,note_on,1,0,0,,0,,,60,127
26112,note_on,0,0,0,,3,,,63,127
26303,note_off,191,0,0,,3,,,63,127
26303,note_off,0,0,0,,0,,,60,127
26303,note_off,0,0,0,,5,,,41,127
26304,note_on,1,0,0,,5,,,41,127
26304,note_on,0,0,0,,1,,,61,127
26304,note_on,0,0,0,,11,,,58,127
26495,note_off,191,0,0,,11,,,58,127
26495,note_off,0,0,0,,1,,,61,127
26496,note_on,1,0,0,,0,,,60,127
26496,note_on,0,0,0,,10,,,57,127
26687,note_off,191,0,0,,10,,,57,127
26687,note_off,0,0,0,,0,,,60,127
26687,note_off,0,0,0,,5,,,41,127
26688,note_on,1,0,0,,11,,,46,127
26688,note_on,0,0,0,,11,,,58,127
27263,note_off,575,0,0,,11,,,58,127
27264,note_on,1,0,0,,5,,,77,127
27455,note_off,191,0,0,,5,,,77,127
27455,note_off,0,0,0,,11,,,46,127
27456,note_on,1,0,0,,8,,,80,127
27647,note_off,191,0,0,,8,,,80,127
27648,note_on,1,0,0,,7,,,79,127
27839,note_off,191,0,0,,7,,,79,127
27840,note_on,1,0,0,,5,,,41,127
27840,note_on,0,0,0,,5,,,77,127
28031,note_off,191,0,0,,5,,,77,127
28032,note_on,1,0,0,,3,,,75,127
28223,note_off,191,0,0,,3,,,75,127
28224,note_on,1,0,0,,12,,,71,127
28415,note_off,191,0,0,,12,,,71,127
28416,note_on,1,0,0,,0,,,72,127
28607,note_off,191,0,0,,0,,,72,127
28608,note_on,1,0,0,,7,,,67,127
28799,note_off,191,0,0,,7,,,67,127
28800,note_on,1,0,0,,8,,,68,127
28991,note_off,191,0,0,,8,,,68,127
28991,note_off,0,0,0,,5,,,41,127
28992,note_on,1,0,0,,5,,,41,127
28992,note_on,0,0,0,,4,,,64,127
29183,note_off,191,0,0,,4,,,64,127
29184,note_on,1,0,0,,5,,,65,127
29375,note_off,191,0,0,,5,,,65,127
29376,note_on,1,0,0,,12,,,59,127
29567,note_off,191,0,0,,12,,,59,127
29568,note_on,1,0,0,,0,,,60,127
29759,note_off,191,0,0,,0,,,60,127
29759,note_off,0,0,0,,5,,,41,127
29760,note_on,1,0,0,,5,,,41,127
29760,note_on,0,0,0,,8,,,56,127
29951,note_off,191,0,0,,8,,,56,127
29952,note_on,1,0,0,,5,,,65,127
30143,note_off,191,0,0,,5,,,65,127
30143,note_off,0,0,0,,5,,,41,127
30144,note_on,1,0,0,,7,,,43,127
30144,note_on,0,0,0,,5,,,65,127
30239,note_off,95,0,0,,5,,,65,127
30240,note_on,1,0,0,,3,,,63,127
30335,note_off,95,0,0,,3,,,63,127
30336,note_on,1,0,0,,2,,,62,127
30431,note_off,95,0,0,,2,,,62,127
30432,note_on,1,0,0,,0,,,60,127
30527,note_off,95,0,0,,0,,,60,127
30527,note_off,0,0,0,,7,,,43,127
30528,note_on,1,0,0,,7,,,43,127
30528,note_on,0,0,0,,3,,,63,127
30528,note_on,0,0,0,,7,,,67,127
30719,note_off,191,0,0,,7,,,67,127
30719,note_off,0,0,0,,3,,,63,127
30720,note_on,1,0,0,,2,,,62,127
30720,note_on,0,0,0,,5,,,65,127
30911,note_off,191,0,0,,5,,,65,127
30911,note_off,0,0,0,,2,,,62,127
30911,note_off,0,0,0,,7,,,43,127
30912,note_on,1,0,0,,7,,,43,127
30912,note_on,0,0,0,,3,,,63,127
30912,note_on,0,0,0,,0,,,60,127
31103,note_off,191,0,0,,0,,,60,127
31103,note_off,0,0,0,,3,,,63,127
31104,note_on,1,0,0,,12,,,59,127
31104,note_on,0,0,0,,2,,,62,127
31295,note_off,191,0,0,,2,,,62,127
31295,note_off,0,0,0,,12,,,59,127
31295,note_off,0,0,0,,7,,,43,127
31296,note_on,1,0,0,,0,,,36,127
31296,note_on,0,0,0,,0,,,60,127
31871,note_off,575,0,0,,0,,,60,127
31871,note_off,0,0,0,,0,,,36,127
31872,note_on,1,0,0,,7,,,79,127
32063,note_off,191,0,0,,7,,,79,127
32064,note_on,1,0,0,,11,,,82,127
32255,note_off,191,0,0,,11,,,82,127
32256,note_on,1,0,0,,10,,,81,127
32447,note_off,191,0,0,,10,,,81,127
32448,note_on,1,0,0,,7,,,43,127
32448,note_on,0,0,0,,4,,,76,127
32639,note_off,191,0,0,,4,,,76,127
32640,note_on,1,0,0,,5,,,77,127
32831,note_off,191,0,0,,5,,,77,127
32832,note_on,1,0,0,,1,,,73,127
33023,note_off,191,0,0,,1,,,73,127
33024,note_on,1,0,0,,2,,,74,127
33215,note_off,191,0,0,,2,,,74,127
33216,note_on,1,0,0,,10,,,69,127
33407,note_off,191,0,0,,10,,,69,127
33408,note_on,1,0,0,,11,,,70,127
33599,note_off,191,0,0,,11,,,70,127
33599,note_off,0,0,0,,7,,,43,127
33600,note_on,1,0,0,,7,,,43,127
33600,note_on,0,0,0,,6,,,66,127
33791,note_off,191,0,0,,6,,,66,127
33792,note_on,1,0,0,,7,,,67,127
33983,note_off,191,0,0,,7,,,67,127
33984,note_on,1,0,0,,1,,,61,127
34175,note_off,191,0,0,,1,,,61,127
34176,note_on,1,0,0,,2,,,62,127
34367,note_off,191,0,0,,2,,,62,127
34367,note_off,0,0,0,,7,,,43,127
34368,note_on,1,0,0,,7,,,43,127
34368,note_on,0,0,0,,11,,,58,127
34559,note_off,191,0,0,,11,,,58,127
34560,note_on,1,0,0,,7,,,67,127
34751,note_off,191,0,0,,7,,,67,127
34751,note_off,0,0,0,,7,,,43,127
34752,note_on,1,0,0,,10,,,45,127
34752,note_on,0,0,0,,7,,,67,127
34847,note_off,95,0,0,,7,,,67,127
34848,note_on,1,0,0,,5,,,65,127
34943,note_off,95,0,0,,5,,,65,127
34944,note_on,1,0,0,,4,,,64,127
35039,note_off,95,0,0,,4,,,64,127
35040,note_on,1,0,0,,2,,,62,127
35135,note_off,95,0,0,,2,,,62,127
35135,note_off,0,0,0,,10,,,45,127
35136,note_on,1,0,0,,10,,,45,127
35136,note_on,0,0,0,,10,,,69,127
35136,note_on,0,0,0,,5,,,65,127
35327,note_off,191,0,0,,5,,,65,127
35327,note_off,0,0,0,,10,,,69,127
35328,note_on,1,0,0,,7,,,67,127
35328,note_on,0,0,0,,4,,,64,127
35519,note_off,191,0,0,,4,,,64,127
35519,note_off,0,0,0,,7,,,67,127
35519,note_off,0,0,0,,10,,,45,127
35520,note_on,1,0,0,,10,,,45,127
35520,note_on,0,0,0,,2,,,62,127
35520,note_on,0,0,0,,5,,,65,127
35711,note_off,191,0,0,,5,,,65,127
35711,note_off,0,0,0,,2,,,62,127
35712,note_on,1,0,0,,4,,,64,127
35712,note_on,0,0,0,,1,,,61,127
35903,note_off,191,0,0,,1,,,61,127
35903,note_off,0,0,0,,4,,,64,127
35903,note_off,0,0,0,,10,,,45,127
35904,note_on,1,0,0,,2,,,38,127
35904,note_on,0,0,0,,2,,,62,127
36095,note_off,191,0,0,,2,,,62,127
36096,note_on,1,0,0,,2,,,74,127
36287,note_off,191,0,0,,2,,,74,127
36287,note_off,0,0,0,,2,,,38,127
36288,note_on,1,0,0,,6,,,66,127
36288,note_on,0,0,0,,2,,,86,127
36479,note_off,191,0,0,,2,,,86,127
36480,note_on,1,0,0,,0,,,84,127
36671,note_off,191,0,0,,0,,,84,127
36671,note_off,0,0,0,,6,,,66,127
36672,note_on,1,0,0,,7,,,67,127
36672,note_on,0,0,0,,0,,,84,127
36767,note_off,95,0,0,,0,,,84,127
36768,note_on,1,0,0,,11,,,82,127
36863,note_off,95,0,0,,11,,,82,127
36864,note_on,1,0,0,,10,,,81,127
36959,note_off,95,0,0,,10,,,81,127
36960,note_on,1,0,0,,7,,,79,127
37055,note_off,95,0,0,,7,,,79,127
37055,note_off,0,0,0,,7,,,67,127
37056,note_on,1,0,0,,2,,,38,127
37056,note_on,0,0,0,,10,,,81,127
37056,note_on,0,0,0,,6,,,78,127
37247,note_off,191,0,0,,6,,,78,127
37247,note_off,0,0,0,,10,,,81,127
37248,note_on,1,0,0,,2,,,62,127
37439,note_off,191,0,0,,2,,,62,127
37439,note_off,0,0,0,,2,,,38,127
37440,note_on,1,0,0,,6,,,54,127
37440,note_on,0,0,0,,2,,,74,127
37631,note_off,191,0,0,,2,,,74,127
37632,note_on,1,0,0,,0,,,72,127
37823,note_off,191,0,0,,0,,,72,127
37823,note_off,0,0,0,,6,,,54,127
37824,note_on,1,0,0,,7,,,55,127
37824,note_on,0,0,0,,0,,,72,127
37919,note_off,95,0,0,,0,,,72,127
37920,note_on,1,0,0,,11,,,70,127
38015,note_off,95,0,0,,11,,,70,127
38016,note_on,1,0,0,,10,,,69,127
38111,note_off,95,0,0,,10,,,69,127
38112,note_on,1,0,0,,7,,,67,127
38207,note_off,95,0,0,,7,,,67,127
38207,note_off,0,0,0,,7,,,55,127
38208,note_on,1,0,0,,7,,,67,127
38399,note_off,191,0,0,,7,,,67,127
38400,note_on,1,0,0,,2,,,50,127
38400,note_on,0,0,0,,10,,,69,127
38591,note_off,191,0,0,,2,,,50,127
38592,note_on,1,0,0,,2,,,62,127
38783,note_off,191,0,0,,2,,,62,127
38783,note_off,0,0,0,,10,,,69,127
38784,note_on,1,0,0,,0,,,60,127
38784,note_on,0,0,0,,2,,,74,127
38975,note_off,191,0,0,,2,,,74,127
38975,note_off,0,0,0,,0,,,60,127
38976,note_on,1,0,0,,11,,,58,127
38976,note_on,0,0,0,,10,,,69,127
39071,note_off,95,0,0,,10,,,69,127
39072,note_on,1,0,0,,7,,,67,127
39167,note_off,95,0,0,,7,,,67,127
39167,note_off,0,0,0,,11,,,58,127
39168,note_on,1,0,0,,10,,,57,127
39168,note_on,0,0,0,,6,,,66,127
39263,note_off,95,0,0,,6,,,66,127
39263,note_off,0,0,0,,10,,,57,127
39264,note_on,1,0,0,,7,,,55,127
39264,note_on,0,0,0,,7,,,67,127
39359,note_off,95,0,0,,7,,,67,127
39359,note_off,0,0,0,,7,,,55,127
39360,note_on,1,0,0,,6,,,54,127
39360,note_on,0,0,0,,7,,,67,127
39551,note_off,191,0,0,,7,,,67,127
39551,note_off,0,0,0,,6,,,54,127
39552,note_on,1,0,0,,3,,,51,127
39552,note_on,0,0,0,,10,,,69,127
39647,note_off,95,0,0,,3,,,51,127
39648,note_on,1,0,0,,2,,,50,127
39743,note_off,95,0,0,,2,,,50,127
39744,note_on,1,0,0,,0,,,48,127
39892,note_off,148,0,0,,10,,,69,127
39935,note_off,43,0,0,,0,,,48,127
39936,note_on,1,0,0,,11,,,46,127
39936,note_on,0,0,0,,11,,,70,127
40031,note_off,95,0,0,,11,,,46,127
40032,note_on,1,0,0,,10,,,45,127
40127,note_off,95,0,0,,10,,,45,127
40128,note_on,1,0,0,,7,,,43,127
40276,note_off,148,0,0,,11,,,70,127
40319,note_off,43,0,0,,7,,,43,127
40320,note_on,1,0,0,,5,,,41,127
40320,note_on,0,0,0,,0,,,72,127
40415,note_off,95,0,0,,5,,,41,127
40416,note_on,1,0,0,,3,,,39,127
40511,note_off,95,0,0,,3,,,39,127
40512,note_on,1,0,0,,2,,,38,127
40703,note_off,191,0,0,,2,,,38,127
40703,note_off,0,0,0,,0,,,72,127
40704,note_on,1,0,0,,2,,,50,127
40704,note_on,0,0,0,,2,,,74,127
40895,note_off,191,0,0,,2,,,50,127
40896,note_on,1,0,0,,2,,,62,127
40992,note_off,96,0,0,,2,,,74,127
41087,note_off,95,0,0,,2,,,62,127
41088,note_on,1,0,0,,0,,,60,127
41088,note_on,0,0,0,,2,,,74,127
41279,note_off,191,0,0,,2,,,74,127
41279,note_off,0,0,0,,0,,,60,127
41280,note_on,1,0,0,,11,,,58,127
41280,note_on,0,0,0,,10,,,69,127
41375,note_off,95,0,0,,10,,,69,127
41376,note_on,1,0,0,,7,,,67,127
41471,note_off,95,0,0,,7,,,67,127
41471,note_off,0,0,0,,11,,,58,127
41472,note_on,1,0,0,,10,,,57,127
41472,note_on,0,0,0,,6,,,66,127
41567,note_off,95,0,0,,6,,,66,127
41567,note_off,0,0,0,,10,,,57,127
41568,note_on,1,0,0,,7,,,55,127
41568,note_on,0,0,0,,7,,,67,127
41663,note_off,95,0,0,,7,,,67,127
41663,note_off,0,0,0,,7,,,55,127
41664,note_on,1,0,0,,6,,,54,127
41664,note_on,0,0,0,,7,,,67,127
41855,note_off,191,0,0,,7,,,67,127
41855,note_off,0,0,0,,6,,,54,127
41856,note_on,1,0,0,,3,,,51,127
41856,note_on,0,0,0,,10,,,69,127
41951,note_off,95,0,0,,3,,,51,127
41952,note_on,1,0,0,,2,,,50,127
42047,note_off,95,0,0,,2,,,50,127
42048,note_on,1,0,0,,0,,,48,127
42239,note_off,191,0,0,,0,,,48,127
42239,note_off,0,0,0,,10,,,69,127
42240,note_on,1,0,0,,11,,,46,127
42240,note_on,0,0,0,,11,,,70,127
42335,note_off,95,0,0,,11,,,46,127
42336,note_on,1,0,0,,10,,,45,127
42431,note_off,95,0,0,,10,,,45,127
42432,note_on,1,0,0,,7,,,43,127
42623,note_off,191,0,0,,7,,,43,127
42623,note_off,0,0,0,,11,,,70,127
42624,note_on,1,0,0,,5,,,41,127
42624,note_on,0,0,0,,0,,,72,127
42719,note_off,95,0,0,,5,,,41,127
42720,note_on,1,0,0,,3,,,39,127
42815,note_off,95,0,0,,3,,,39,127
42816,note_on,1,0,0,,2,,,38,127
43007,note_off,191,0,0,,0,,,72,127
43008,note_on,1,0,0,,2,,,74,127
43296,note_off,288,0,0,,2,,,74,127
43392,note_on,96,0,0,,2,,,74,127
43583,note_off,191,0,0,,2,,,74,127
43583,note_off,0,0,0,,2,,,38,127
43584,note_on,1,0,0,,5,,,77,127
43775,note_off,191,0,0,,5,,,77,127
43776,note_on,1,0,0,,3,,,75,127
43967,note_off,191,0,0,,3,,,75,127
43968,note_on,1,0,0,,3,,,75,127
44063,note_off,95,0,0,,3,,,75,127
44064,note_on,1,0,0,,2,,,74,127
44159,note_off,95,0,0,,2,,,74,127
44160,note_on,1,0,0,,11,,,46,127
44160,note_on,0,0,0,,0,,,72,127
44255,note_off,95,0,0,,0,,,72,127
44256,note_on,1,0,0,,11,,,70,127
44351,note_off,95,0,0,,11,,,70,127
44351,note_off,0,0,0,,11,,,46,127
44352,note_on,1,0,0,,0,,,48,127
44352,note_on,0,0,0,,8,,,68,127
44543,note_off,191,0,0,,8,,,68,127
44543,note_off,0,0,0,,0,,,48,127
44544,note_on,1,0,0,,2,,,50,127
44544,note_on,0,0,0,,7,,,67,127
44639,note_off,95,0,0,,7,,,67,127
44640,note_on,1,0,0,,5,,,65,127
44735,note_off,95,0,0,,5,,,65,127
44735,note_off,0,0,0,,2,,,50,127
44736,note_on,1,0,0,,3,,,51,127
44736,note_on,0,0,0,,3,,,63,127
44927,note_off,191,0,0,,3,,,63,127
44927,note_off,0,0,0,,3,,,51,127
44928,note_on,1,0,0,,5,,,53,127
44928,note_on,0,0,0,,2,,,62,127
45023,note_off,95,0,0,,2,,,62,127
45024,note_on,1,0,0,,0,,,60,127
45119,note_off,95,0,0,,5,,,53,127
45120,note_on,1,0,0,,7,,,55,127
45215,note_off,95,0,0,,0,,,60,127
45216,note_on,1,0,0,,11,,,58,127
45311,note_off,95,0,0,,7,,,55,127
45312,note_on,1,0,0,,8,,,56,127
45407,note_off,95,0,0,,11,,,58,127
45408,note_on,1,0,0,,0,,,60,127
45503,note_off,95,0,0,,8,,,56,127
45504,note_on,1,0,0,,11,,,58,127
45599,note_off,95,0,0,,0,,,60,127
45600,note_on,1,0,0,,2,,,62,127
45695,note_off,95,0,0,,11,,,58,127
45696,note_on,1,0,0,,0,,,60,127
45791,note_off,95,0,0,,2,,,62,127
45792,note_on,1,0,0,,3,,,63,127
45887,note_off,95,0,0,,0,,,60,127
45888,note_on,1,0,0,,2,,,62,127
45983,note_off,95,0,0,,3,,,63,127
45984,note_on,1,0,0,,5,,,65,127
46079,note_off,95,0,0,,2,,,62,127
46080,note_on,1,0,0,,3,,,63,127
46175,note_off,95,0,0,,5,,,65,127
46176,note_on,1,0,0,,7,,,67,127
46271,note_off,95,0,0,,7,,,67,127
46271,note_off,0,0,0,,3,,,63,127
46272,note_on,1,0,0,,5,,,65,127
46272,note_on,0,0,0,,11,,,70,127
46367,note_off,95,0,0,,11,,,70,127
46368,note_on,1,0,0,,8,,,68,127
46463,note_off,95,0,0,,8,,,68,127
46463,note_off,0,0,0,,5,,,65,127
46464,note_on,1,0,0,,3,,,63,127
46464,note_on,0,0,0,,7,,,67,127
46559,note_off,95,0,0,,7,,,67,127
46559,note_off,0,0,0,,3,,,63,127
46560,note_on,1,0,0,,2,,,62,127
46560,note_on,0,0,0,,5,,,65,127
46655,note_off,95,0,0,,5,,,65,127
46655,note_off,0,0,0,,2,,,62,127
46656,note_on,1,0,0,,3,,,63,127
46656,note_on,0,0,0,,7,,,67,127
46847,note_off,191,0,0,,7,,,67,127
46848,note_on,1,0,0,,3,,,75,127
47039,note_off,191,0,0,,3,,,75,127
47040,note_on,1,0,0,,7,,,79,127
47231,note_off,191,0,0,,7,,,79,127
47231,note_off,0,0,0,,3,,,63,127
47232,note_on,1,0,0,,5,,,77,127
47423,note_off,191,0,0,,5,,,77,127
47424,note_on,1,0,0,,5,,,77,127
47519,note_off,95,0,0,,5,,,77,127
47520,note_on,1,0,0,,4,,,76,127
47615,note_off,95,0,0,,4,,,76,127
47616,note_on,1,0,0,,0,,,48,127
47616,note_on,0,0,0,,2,,,74,127
47711,note_off,95,0,0,,2,,,74,127
47712,note_on,1,0,0,,0,,,72,127
47807,note_off,95,0,0,,0,,,72,127
47807,note_off,0,0,0,,0,,,48,127
47808,note_on,1,0,0,,2,,,50,127
47808,note_on,0,0,0,,11,,,70,127
47999,note_off,191,0,0,,11,,,70,127
47999,note_off,0,0,0,,2,,,50,127
48000,note_on,1,0,0,,4,,,52,127
48000,note_on,0,0,0,,10,,,69,127
48095,note_off,95,0,0,,10,,,69,127
48096,note_on,1,0,0,,7,,,67,127
48191,note_off,95,0,0,,7,,,67,127
48191,note_off,0,0,0,,4,,,52,127
48192,note_on,1,0,0,,5,,,53,127
48192,note_on,0,0,0,,5,,,65,127
48383,note_off,191,0,0,,5,,,65,127
48383,note_off,0,0,0,,5,,,53,127
48384,note_on,1,0,0,,7,,,55,127
48384,note_on,0,0,0,,4,,,64,127
48479,note_off,95,0,0,,4,,,64,127
48480,note_on,1,0,0,,2,,,62,127
48575,note_off,95,0,0,,7,,,55,127
48576,note_on,1,0,0,,10,,,57,127
48600,note_off,24,0,0,,2,,,62,127
48672,note_on,72,0,0,,0,,,60,127
48767,note_off,95,0,0,,10,,,57,127
48768,note_on,1,0,0,,12,,,59,127
48863,note_off,95,0,0,,0,,,60,127
48864,note_on,1,0,0,,2,,,62,127
48959,note_off,95,0,0,,12,,,59,127
48960,note_on,1,0,0,,0,,,60,127
49055,note_off,95,0,0,,2,,,62,127
49056,note_on,1,0,0,,4,,,64,127
49151,note_off,95,0,0,,0,,,60,127
49152,note_on,1,0,0,,2,,,62,127
49247,note_off,95,0,0,,4,,,64,127
49248,note_on,1,0,0,,5,,,65,127
49343,note_off,95,0,0,,2,,,62,127
49344,note_on,1,0,0,,4,,,64,127
49439,note_off,95,0,0,,5,,,65,127
49440,note_on,1,0,0,,7,,,67,127
49535,note_off,95,0,0,,4,,,64,127
49536,note_on,1,0,0,,5,,,65,127
49631,note_off,95,0,0,,7,,,67,127
49632,note_on,1,0,0,,10,,,69,127
49727,note_off,95,0,0,,10,,,69,127
49727,note_off,0,0,0,,5,,,65,127
49728,note_on,1,0,0,,7,,,67,127
49728,note_on,0,0,0,,0,,,72,127
49823,note_off,95,0,0,,0,,,72,127
49824,note_on,1,0,0,,11,,,70,127
49919,note_off,95,0,0,,11,,,70,127
49919,note_off,0,0,0,,7,,,67,127
49920,note_on,1,0,0,,5,,,65,127
49920,note_on,0,0,0,,10,,,69,127
50015,note_off,95,0,0,,10,,,69,127
50015,note_off,0,0,0,,5,,,65,127
50016,note_on,1,0,0,,4,,,64,127
50016,note_on,0,0,0,,7,,,67,127
50111,note_off,95,0,0,,7,,,67,127
50111,note_off,0,0,0,,4,,,64,127
50112,note_on,1,0,0,,5,,,65,127
50112,note_on,0,0,0,,10,,,69,127
50303,note_off,191,0,0,,10,,,69,127
50304,note_on,1,0,0,,10,,,69,127
50495,note_off,191,0,0,,10,,,69,127
50496,note_on,1,0,0,,10,,,81,127
50687,note_off,191,0,0,,10,,,81,127
50687,note_off,0,0,0,,5,,,65,127
50688,note_on,1,0,0,,7,,,79,127
50879,note_off,191,0,0,,7,,,79,127
50880,note_on,1,0,0,,7,,,79,127
50975,note_off,95,0,0,,7,,,79,127
50976,note_on,1,0,0,,6,,,78,127
51071,note_off,95,0,0,,6,,,78,127
51072,note_on,1,0,0,,2,,,50,127
51072,note_on,0,0,0,,4,,,76,127
51167,note_off,95,0,0,,4,,,76,127
51168,note_on,1,0,0,,2,,,74,127
51263,note_off,95,0,0,,2,,,74,127
51263,note_off,0,0,0,,2,,,50,127
51264,note_on,1,0,0,,4,,,52,127
51264,note_on,0,0,0,,0,,,72,127
51455,note_off,191,0,0,,0,,,72,127
51455,note_off,0,0,0,,4,,,52,127
51456,note_on,1,0,0,,6,,,54,127
51456,note_on,0,0,0,,12,,,71,127
51551,note_off,95,0,0,,12,,,71,127
51552,note_on,1,0,0,,10,,,69,127
51647,note_off,95,0,0,,10,,,69,127
51647,note_off,0,0,0,,6,,,54,127
51648,note_on,1,0,0,,7,,,55,127
51648,note_on,0,0,0,,7,,,67,127
51839,note_off,191,0,0,,7,,,67,127
51839,note_off,0,0,0,,7,,,55,127
51840,note_on,1,0,0,,10,,,57,127
51840,note_on,0,0,0,,6,,,66,127
51935,note_off,95,0,0,,6,,,66,127
51936,note_on,1,0,0,,4,,,64,127
52031,note_off,95,0,0,,10,,,57,127
52032,note_on,1,0,0,,12,,,59,127
52076,note_off,44,0,0,,4,,,64,127
52128,note_on,52,0,0,,2,,,62,127
52223,note_off,95,0,0,,12,,,59,127
52224,note_on,1,0,0,,0,,,60,127
52319,note_off,95,0,0,,2,,,62,127
52320,note_on,1,0,0,,4,,,64,127
52415,note_off,95,0,0,,0,,,60,127
52416,note_on,1,0,0,,2,,,62,127
52511,note_off,95,0,0,,4,,,64,127
52512,note_on,1,0,0,,6,,,66,127
52607,note_off,95,0,0,,2,,,62,127
52608,note_on,1,0,0,,4,,,64,127
52703,note_off,95,0,0,,6,,,66,127
52704,note_on,1,0,0,,7,,,67,127
52799,note_off,95,0,0,,4,,,64,127
52800,note_on,1,0,0,,6,,,66,127
52895,note_off,95,0,0,,7,,,67,127
52896,note_on,1,0,0,,10,,,69,127
52991,note_off,95,0,0,,6,,,66,127
52992,note_on,1,0,0,,7,,,67,127
53087,note_off,95,0,0,,10,,,69,127
53088,note_on,1,0,0,,12,,,71,127
53183,note_off,95,0,0,,12,,,71,127
53183,note_off,0,0,0,,7,,,67,127
53184,note_on,1,0,0,,10,,,69,127
53184,note_on,0,0,0,,2,,,74,127
53279,note_off,95,0,0,,2,,,74,127
53280,note_on,1,0,0,,0,,,72,127
53375,note_off,95,0,0,,0,,,72,127
53375,note_off,0,0,0,,10,,,69,127
53376,note_on,1,0,0,,7,,,67,127
53376,note_on,0,0,0,,12,,,71,127
53471,note_off,95,0,0,,12,,,71,127
53471,note_off,0,0,0,,7,,,67,127
53472,note_on,1,0,0,,6,,,66,127
53472,note_on,0,0,0,,10,,,69,127
53567,note_off,95,0,0,,10,,,69,127
53567,note_off,0,0,0,,6,,,66,127
53568,note_on,1,0,0,,7,,,55,127
53568,note_on,0,0,0,,12,,,71,127
53759,note_off,191,0,0,,7,,,55,127
53760,note_on,1,0,0,,12,,,59,127
53951,note_off,191,0,0,,12,,,59,127
53952,note_on,1,0,0,,2,,,62,127
54143,note_off,191,0,0,,2,,,62,127
54143,note_off,0,0,0,,12,,,71,127
54144,note_on,1,0,0,,7,,,67,127
54335,note_off,191,0,0,,7,,,67,127
54336,note_on,1,0,0,,10,,,57,127
54336,note_on,0,0,0,,12,,,71,127
54527,note_off,191,0,0,,12,,,71,127
54527,note_off,0,0,0,,10,,,57,127
54528,note_on,1,0,0,,0,,,60,127
54528,note_on,0,0,0,,0,,,72,127
54719,note_off,191,0,0,,0,,,60,127
54720,note_on,1,0,0,,2,,,62,127
54911,note_off,191,0,0,,2,,,62,127
54912,note_on,1,0,0,,7,,,67,127
55103,note_off,191,0,0,,7,,,67,127
55104,note_on,1,0,0,,6,,,66,127
55295,note_off,191,0,0,,6,,,66,127
55296,note_on,1,0,0,,10,,,57,127
55487,note_off,191,0,0,,10,,,57,127
55487,note_off,0,0,0,,0,,,72,127
55488,note_on,1,0,0,,7,,,55,127
55488,note_on,0,0,0,,12,,,71,127
55679,note_off,191,0,0,,12,,,71,127
55679,note_off,0,0,0,,7,,,55,127
55680,note_on,1,0,0,,0,,,60,127
55680,note_on,0,0,0,,0,,,72,127
55871,note_off,191,0,0,,0,,,72,127
55871,note_off,0,0,0,,0,,,60,127
55872,note_on,1,0,0,,2,,,62,127
55872,note_on,0,0,0,,1,,,73,127
56063,note_off,191,0,0,,1,,,73,127
56063,note_off,0,0,0,,2,,,62,127
56064,note_on,1,0,0,,6,,,66,127
56064,note_on,0,0,0,,2,,,74,127
56255,note_off,191,0,0,,6,,,66,127
56256,note_on,1,0,0,,7,,,67,127
56447,note_off,191,0,0,,7,,,67,127
56448,note_on,1,0,0,,7,,,55,127
56544,note_off,96,0,0,,2,,,74,127
56639,note_off,95,0,0,,7,,,55,127
56640,note_on,1,0,0,,10,,,57,127
56640,note_on,0,0,0,,12,,,71,127
56831,note_off,191,0,0,,12,,,71,127
56831,note_off,0,0,0,,10,,,57,127
56832,note_on,1,0,0,,0,,,60,127
56832,note_on,0,0,0,,0,,,72,127
57023,note_off,191,0,0,,0,,,60,127
57024,note_on,1,0,0,,2,,,62,127
57215,note_off,191,0,0,,2,,,62,127
57216,note_on,1,0,0,,7,,,67,127
57407,note_off,191,0,0,,7,,,67,127
57408,note_on,1,0,0,,6,,,66,127
57599,note_off,191,0,0,,6,,,66,127
57599,note_off,0,0,0,,0,,,72,127
57600,note_on,1,0,0,,10,,,57,127
57600,note_on,0,0,0,,2,,,74,127
57791,note_off,191,0,0,,2,,,74,127
57791,note_off,0,0,0,,10,,,57,127
57792,note_on,1,0,0,,7,,,55,127
57792,note_on,0,0,0,,12,,,71,127
57983,note_off,191,0,0,,12,,,71,127
57983,note_off,0,0,0,,7,,,55,127
57984,note_on,1,0,0,,7,,,67,127
57984,note_on,0,0,0,,0,,,72,127
58175,note_off,191,0,0,,0,,,72,127
58176,note_on,1,0,0,,1,,,73,127
58367,note_off,191,0,0,,1,,,73,127
58367,note_off,0,0,0,,7,,,67,127
58368,note_on,1,0,0,,5,,,65,127
58368,note_on,0,0,0,,2,,,74,127
58559,note_off,191,0,0,,2,,,74,127
58559,note_off,0,0,0,,5,,,65,127
58560,note_on,1,0,0,,4,,,64,127
58560,note_on,0,0,0,,4,,,76,127
58751,note_off,191,0,0,,4,,,76,127
58751,note_off,0,0,0,,4,,,64,127
58752,note_on,1,0,0,,2,,,62,127
58752,note_on,0,0,0,,5,,,77,127
58943,note_off,191,0,0,,5,,,77,127
58943,note_off,0,0,0,,2,,,62,127
58944,note_on,1,0,0,,0,,,60,127
58944,note_on,0,0,0,,7,,,79,127
59135,note_off,191,0,0,,7,,,79,127
59135,note_off,0,0,0,,0,,,60,127
59136,note_on,1,0,0,,5,,,53,127
59136,note_on,0,0,0,,10,,,81,127
59231,note_off,95,0,0,,10,,,81,127
59232,note_on,1,0,0,,5,,,77,127
59327,note_off,95,0,0,,5,,,77,127
59327,note_off,0,0,0,,5,,,53,127
59328,note_on,1,0,0,,7,,,55,127
59328,note_on,0,0,0,,4,,,76,127
59519,note_off,191,0,0,,4,,,76,127
59520,note_on,1,0,0,,2,,,74,127
59711,note_off,191,0,0,,2,,,74,127
59712,note_on,1,0,0,,7,,,43,127
59712,note_on,0,0,0,,0,,,72,127
59903,note_off,191,0,0,,0,,,72,127
59904,note_on,1,0,0,,12,,,71,127
60052,note_off,148,0,0,,7,,,43,127
60095,note_off,43,0,0,,12,,,71,127
60095,note_off,0,0,0,,7,,,55,127
60096,note_on,1,0,0,,10,,,57,127
60096,note_on,0,0,0,,12,,,71,127
60287,note_off,191,0,0,,12,,,71,127
60287,note_off,0,0,0,,10,,,57,127
60288,note_on,1,0,0,,0,,,60,127
60288,note_on,0,0,0,,0,,,72,127
60479,note_off,191,0,0,,0,,,60,127
60480,note_on,1,0,0,,2,,,62,127
60671,note_off,191,0,0,,2,,,62,127
60672,note_on,1,0,0,,7,,,67,127
60863,note_off,191,0,0,,7,,,67,127
60864,note_on,1,0,0,,6,,,66,127
61055,note_off,191,0,0,,6,,,66,127
61055,note_off,0,0,0,,0,,,72,127
61056,note_on,1,0,0,,10,,,57,127
61056,note_on,0,0,0,,2,,,74,127
61247,note_off,191,0,0,,2,,,74,127
61247,note_off,0,0,0,,10,,,57,127
61248,note_on,1,0,0,,7,,,55,127
61248,note_on,0,0,0,,12,,,71,127
61439,note_off,191,0,0,,12,,,71,127
61439,note_off,0,0,0,,7,,,55,127
61440,note_on,1,0,0,,0,,,60,127
61440,note_on,0,0,0,,0,,,72,127
61631,note_off,191,0,0,,0,,,72,127
61631,note_off,0,0,0,,0,,,60,127
61632,note_on,1,0,0,,2,,,62,127
61632,note_on,0,0,0,,1,,,73,127
61823,note_off,191,0,0,,1,,,73,127
61823,note_off,0,0,0,,2,,,62,127
61824,note_on,1,0,0,,6,,,66,127
61824,note_on,0,0,0,,2,,,74,127
62015,note_off,191,0,0,,6,,,66,127
62016,note_on,1,0,0,,7,,,67,127
62207,note_off,191,0,0,,7,,,67,127
62207,note_off,0,0,0,,2,,,74,127
62208,note_on,1,0,0,,7,,,55,127
62208,note_on,0,0,0,,4,,,76,127
62399,note_off,191,0,0,,4,,,76,127
62399,note_off,0,0,0,,7,,,55,127
62400,note_on,1,0,0,,10,,,57,127
62400,note_on,0,0,0,,12,,,71,127
62591,note_off,191,0,0,,12,,,71,127
62591,note_off,0,0,0,,10,,,57,127
62592,note_on,1,0,0,,0,,,60,127
62592,note_on,0,0,0,,0,,,72,127
62783,note_off,191,0,0,,0,,,60,127
62784,note_on,1,0,0,,2,,,62,127
62975,note_off,191,0,0,,2,,,62,127
62976,note_on,1,0,0,,7,,,67,127
63167,note_off,191,0,0,,7,,,67,127
63168,note_on,1,0,0,,6,,,66,127
63359,note_off,191,0,0,,6,,,66,127
63359,note_off,0,0,0,,0,,,72,127
63360,note_on,1,0,0,,10,,,57,127
63360,note_on,0,0,0,,10,,,81,127
63551,note_off,191,0,0,,10,,,81,127
63551,note_off,0,0,0,,10,,,57,127
63552,note_on,1,0,0,,7,,,55,127
63552,note_on,0,0,0,,12,,,71,127
63743,note_off,191,0,0,,12,,,71,127
63743,note_off,0,0,0,,7,,,55,127
63744,note_on,1,0,0,,7,,,67,127
63744,note_on,0,0,0,,0,,,72,127
63935,note_off,191,0,0,,0,,,72,127
63936,note_on,1,0,0,,1,,,73,127
64127,note_off,191,0,0,,1,,,73,127
64127,note_off,0,0,0,,7,,,67,127
64128,note_on,1,0,0,,5,,,65,127
64128,note_on,0,0,0,,2,,,74,127
64319,note_off,191,0,0,,2,,,74,127
64319,note_off,0,0,0,,5,,,65,127
64320,note_on,1,0,0,,4,,,64,127
64320,note_on,0,0,0,,4,,,76,127
64511,note_off,191,0,0,,4,,,76,127
64511,note_off,0,0,0,,4,,,64,127
64512,note_on,1,0,0,,2,,,62,127
64512,note_on,0,0,0,,5,,,77,127
64703,note_off,191,0,0,,5,,,77,127
64703,note_off,0,0,0,,2,,,62,127
64704,note_on,1,0,0,,0,,,60,127
64704,note_on,0,0,0,,7,,,79,127
64895,note_off,191,0,0,,7,,,79,127
64895,note_off,0,0,0,,0,,,60,127
64896,note_on,1,0,0,,5,,,53,127
64896,note_on,0,0,0,,10,,,81,127
64991,note_off,95,0,0,,10,,,81,127
64992,note_on,1,0,0,,5,,,77,127
65087,note_off,95,0,0,,5,,,77,127
65087,note_off,0,0,0,,5,,,53,127
65088,note_on,1,0,0,,7,,,55,127
65088,note_on,0,0,0,,4,,,76,127
65279,note_off,191,0,0,,4,,,76,127
65280,note_on,1,0,0,,2,,,74,127
65471,note_off,191,0,0,,2,,,74,127
65472,note_on,1,0,0,,7,,,43,127
65472,note_on,0,0,0,,0,,,72,127
65663,note_off,191,0,0,,0,,,72,127
65664,note_on,1,0,0,,12,,,71,127
65844,note_off,180,0,0,,12,,,71,127
65855,note_off,11,0,0,,7,,,43,127
65855,note_off,0,0,0,,7,,,55,127
65856,note_on,1,0,0,,0,,,60,127
65856,note_on,0,0,0,,0,,,72,127
65952,note_on,96,0,0,,4,,,76,127
66047,note_off,95,0,0,,0,,,72,127
66047,note_off,0,0,0,,0,,,60,127
66048,note_on,1,0,0,,12,,,59,127
66048,note_on,0,0,0,,12,,,71,127
66143,note_off,95,0,0,,4,,,76,127
66144,note_on,1,0,0,,2,,,74,127
66239,note_off,95,0,0,,12,,,71,127
66239,note_off,0,0,0,,12,,,59,127
66240,note_on,1,0,0,,10,,,57,127
66240,note_on,0,0,0,,10,,,69,127
66335,note_off,95,0,0,,2,,,74,127
66336,note_on,1,0,0,,0,,,72,127
66431,note_off,95,0,0,,10,,,69,127
66431,note_off,0,0,0,,10,,,57,127
66432,note_on,1,0,0,,7,,,55,127
66432,note_on,0,0,0,,7,,,67,127
66527,note_off,95,0,0,,0,,,72,127
66528,note_on,1,0,0,,12,,,71,127
66623,note_off,95,0,0,,7,,,67,127
66623,note_off,0,0,0,,7,,,55,127
66624,note_on,1,0,0,,5,,,65,127
66624,note_on,0,0,0,,5,,,53,127
66719,note_off,95,0,0,,12,,,71,127
66720,note_on,1,0,0,,10,,,69,127
66815,note_off,95,0,0,,5,,,53,127
66815,note_off,0,0,0,,5,,,65,127
66816,note_on,1,0,0,,4,,,52,127
66816,note_on,0,0,0,,4,,,64,127
66911,note_off,95,0,0,,10,,,69,127
66912,note_on,1,0,0,,7,,,67,127
67007,note_off,95,0,0,,4,,,64,127
67007,note_off,0,0,0,,4,,,52,127
67008,note_on,1,0,0,,2,,,50,127
67008,note_on,0,0,0,,2,,,62,127
67103,note_off,95,0,0,,7,,,67,127
67104,note_on,1,0,0,,5,,,65,127
67199,note_off,95,0,0,,2,,,62,127
67199,note_off,0,0,0,,2,,,50,127
67200,note_on,1,0,0,,0,,,48,127
67200,note_on,0,0,0,,0,,,60,127
67295,note_off,95,0,0,,5,,,65,127
67296,note_on,1,0,0,,4,,,64,127
67391,note_off,95,0,0,,0,,,60,127
67391,note_off,0,0,0,,0,,,48,127
67392,note_on,1,0,0,,12,,,47,127
67392,note_on,0,0,0,,12,,,59,127
67487,note_off,95,0,0,,4,,,64,127
67488,note_on,1,0,0,,2,,,62,127
67583,note_off,95,0,0,,12,,,59,127
67583,note_off,0,0,0,,12,,,47,127
67584,note_on,1,0,0,,10,,,57,127
67584,note_on,0,0,0,,10,,,45,127
67679,note_off,95,0,0,,2,,,62,127
67680,note_on,1,0,0,,0,,,60,127
67775,note_off,95,0,0,,10,,,45,127
67775,note_off,0,0,0,,10,,,57,127
67776,note_on,1,0,0,,7,,,43,127
67776,note_on,0,0,0,,7,,,55,127
67871,note_off,95,0,0,,0,,,60,127
67872,note_on,1,0,0,,12,,,59,127
67967,note_off,95,0,0,,7,,,55,127
67967,note_off,0,0,0,,7,,,43,127
67968,note_on,1,0,0,,5,,,53,127
67968,note_on,0,0,0,,5,,,41,127
68063,note_off,95,0,0,,12,,,59,127
68064,note_on,1,0,0,,10,,,57,127
68159,note_off,95,0,0,,10,,,57,127
68159,note_off,0,0,0,,5,,,41,127
68159,note_off,0,0,0,,5,,,53,127
68160,note_on,1,0,0,,4,,,52,127
68160,note_on,0,0,0,,4,,,40,127
68160,note_on,0,0,0,,7,,,55,127
68255,note_off,95,0,0,,7,,,55,127
68256,note_on,1,0,0,,0,,,60,127
68351,note_off,95,0,0,,0,,,60,127
68352,note_on,1,0,0,,4,,,64,127
68447,note_off,95,0,0,,4,,,64,127
68448,note_on,1,0,0,,7,,,67,127
68735,note_off,287,0,0,,4,,,40,127
68735,note_off,0,0,0,,4,,,52,127
68736,note_off,1,0,0,,7,,,67,127
69312,note_on,576,0,0,,0,,,60,127
69407,note_off,95,0,0,,0,,,60,127
69408,note_on,1,0,0,,12,,,59,127
69503,note_off,95,0,0,,12,,,59,127
69504,note_on,1,0,0,,10,,,57,127
69504,note_on,0,0,0,,7,,,67,127
69504,note_on,0,0,0,,4,,,76,127
69599,note_off,95,0,0,,10,,,57,127
69600,note_on,1,0,0,,7,,,55,127
69695,note_off,95,0,0,,7,,,55,127
69695,note_off,0,0,0,,4,,,76,127
69695,note_off,0,0,0,,7,,,67,127
69696,note_on,1,0,0,,5,,,53,127
69696,note_on,0,0,0,,5,,,77,127
69696,note_on,0,0,0,,10,,,69,127
69791,note_off,95,0,0,,5,,,53,127
69792,note_on,1,0,0,,4,,,52,127
69887,note_off,95,0,0,,4,,,52,127
69887,note_off,0,0,0,,10,,,69,127
69887,note_off,0,0,0,,5,,,77,127
69888,note_on,1,0,0,,2,,,50,127
69888,note_on,0,0,0,,7,,,79,127
69888,note_on,0,0,0,,12,,,71,127
69983,note_off,95,0,0,,2,,,50,127
69984,note_on,1,0,0,,0,,,48,127
70079,note_off,95,0,0,,0,,,48,127
70079,note_off,0,0,0,,12,,,71,127
70079,note_off,0,0,0,,7,,,79,127
70080,note_on,1,0,0,,12,,,47,127
70080,note_on,0,0,0,,0,,,72,127
70080,note_on,0,0,0,,10,,,81,127
70175,note_off,95,0,0,,12,,,47,127
70176,note_on,1,0,0,,10,,,45,127
70271,note_off,95,0,0,,10,,,45,127
70271,note_off,0,0,0,,10,,,81,127
70271,note_off,0,0,0,,0,,,72,127
70272,note_on,1,0,0,,7,,,43,127
70272,note_on,0,0,0,,2,,,74,127
70272,note_on,0,0,0,,12,,,83,127
70367,note_off,95,0,0,,7,,,43,127
70368,note_on,1,0,0,,5,,,41,127
70463,note_off,95,0,0,,5,,,41,127
70463,note_off,0,0,0,,12,,,83,127
70463,note_off,0,0,0,,2,,,74,127
70464,note_on,1,0,0,,4,,,40,127
70464,note_on,0,0,0,,0,,,84,127
70464,note_on,0,0,0,,4,,,76,127
70655,note_off,191,0,0,,0,,,84,127
70656,note_on,1,0,0,,7,,,79,127
70847,note_off,191,0,0,,7,,,79,127
70847,note_off,0,0,0,,4,,,76,127
70847,note_off,0,0,0,,4,,,40,127
70848,note_on,1,0,0,,5,,,41,127
70848,note_on,0,0,0,,10,,,81,127
70848,note_on,0,0,0,,5,,,77,127
71039,note_off,191,0,0,,5,,,77,127
71039,note_off,0,0,0,,10,,,81,127
71040,note_on,1,0,0,,4,,,76,127
71040,note_on,0,0,0,,7,,,79,127
71135,note_off,95,0,0,,7,,,79,127
71135,note_off,0,0,0,,4,,,76,127
71136,note_on,1,0,0,,2,,,74,127
71136,note_on,0,0,0,,5,,,77,127
71231,note_off,95,0,0,,5,,,77,127
71231,note_off,0,0,0,,2,,,74,127
71231,note_off,0,0,0,,5,,,41,127
71232,note_on,1,0,0,,7,,,43,127
71232,note_on,0,0,0,,4,,,76,127
71232,note_on,0,0,0,,0,,,72,127
71423,note_off,191,0,0,,0,,,72,127
71423,note_off,0,0,0,,4,,,76,127
71424,note_on,1,0,0,,2,,,74,127
71424,note_on,0,0,0,,7,,,67,127
71615,note_off,191,0,0,,7,,,67,127
71615,note_off,0,0,0,,2,,,74,127
71615,note_off,0,0,0,,7,,,43,127
71616,note_on,1,0,0,,0,,,60,127
71616,note_on,0,0,0,,0,,,72,127
71616,note_on,0,0,0,,4,,,64,127
71711,note_off,95,0,0,,0,,,60,127
71712,note_on,1,0,0,,12,,,59,127
71807,note_off,95,0,0,,12,,,59,127
71807,note_off,0,0,0,,4,,,64,127
71807,note_off,0,0,0,,0,,,72,127
71808,note_on,1,0,0,,10,,,57,127
71808,note_on,0,0,0,,4,,,76,127
71808,note_on,0,0,0,,7,,,67,127
71903,note_off,95,0,0,,10,,,57,127
71904,note_on,1,0,0,,7,,,55,127
71999,note_off,95,0,0,,7,,,55,127
71999,note_off,0,0,0,,7,,,67,127
71999,note_off,0,0,0,,4,,,76,127
72000,note_on,1,0,0,,5,,,53,127
72000,note_on,0,0,0,,5,,,77,127
72000,note_on,0,0,0,,10,,,69,127
72095,note_off,95,0,0,,5,,,53,127
72096,note_on,1,0,0,,4,,,52,127
72191,note_off,95,0,0,,4,,,52,127
72191,note_off,0,0,0,,10,,,69,127
72191,note_off,0,0,0,,5,,,77,127
72192,note_on,1,0,0,,2,,,50,127
72192,note_on,0,0,0,,12,,,71,127
72192,note_on,0,0,0,,7,,,79,127
72287,note_off,95,0,0,,2,,,50,127
72288,note_on,1,0,0,,0,,,48,127
72383,note_off,95,0,0,,0,,,48,127
72383,note_off,0,0,0,,7,,,79,127
72383,note_off,0,0,0,,12,,,71,127
72384,note_on,1,0,0,,12,,,47,127
72384,note_on,0,0,0,,0,,,72,127
72384,note_on,0,0,0,,10,,,81,127
72479,note_off,95,0,0,,12,,,47,127
72480,note_on,1,0,0,,10,,,45,127
72575,note_off,95,0,0,,10,,,45,127
72575,note_off,0,0,0,,10,,,81,127
72575,note_off,0,0,0,,0,,,72,127
72576,note_on,1,0,0,,7,,,43,127
72576,note_on,0,0,0,,12,,,83,127
72576,note_on,0,0,0,,2,,,74,127
72671,note_off,95,0,0,,7,,,43,127
72672,note_on,1,0,0,,5,,,41,127
72767,note_off,95,0,0,,5,,,41,127
72767,note_off,0,0,0,,2,,,74,127
72767,note_off,0,0,0,,12,,,83,127
72768,note_on,1,0,0,,4,,,40,127
72768,note_on,0,0,0,,4,,,76,127
72768,note_on,0,0,0,,0,,,84,127
72959,note_off,191,0,0,,0,,,84,127
72960,note_on,1,0,0,,7,,,79,127
73151,note_off,191,0,0,,7,,,79,127
73151,note_off,0,0,0,,4,,,76,127
73151,note_off,0,0,0,,4,,,40,127
73152,note_on,1,0,0,,5,,,41,127
73152,note_on,0,0,0,,10,,,81,127
73152,note_on,0,0,0,,5,,,77,127
73343,note_off,191,0,0,,5,,,77,127
73343,note_off,0,0,0,,10,,,81,127
73344,note_on,1,0,0,,7,,,79,127
73344,note_on,0,0,0,,4,,,76,127
73439,note_off,95,0,0,,4,,,76,127
73439,note_off,0,0,0,,7,,,79,127
73440,note_on,1,0,0,,5,,,77,127
73440,note_on,0,0,0,,2,,,74,127
73535,note_off,95,0,0,,2,,,74,127
73535,note_off,0,0,0,,5,,,77,127
73535,note_off,0,0,0,,5,,,41,127
73536,note_on,1,0,0,,7,,,43,127
73536,note_on,0,0,0,,4,,,76,127
73536,note_on,0,0,0,,0,,,72,127
73727,note_off,191,0,0,,0,,,72,127
73727,note_off,0,0,0,,4,,,76,127
73728,note_on,1,0,0,,7,,,67,127
73728,note_on,0,0,0,,2,,,74,127
73919,note_off,191,0,0,,2,,,74,127
73919,note_off,0,0,0,,7,,,67,127
73919,note_off,0,0,0,,7,,,43,127
73920,note_on,1,0,0,,0,,,36,127
73920,note_on,0,0,0,,0,,,72,127
74015,note_off,95,0,0,,0,,,72,127
74016,note_on,1,0,0,,7,,,67,127
74111,note_off,95,0,0,,7,,,67,127
74112,note_on,1,0,0,,4,,,76,127
74207,note_off,95,0,0,,4,,,76,127
74208,note_on,1,0,0,,7,,,67,127
74303,note_off,95,0,0,,7,,,67,127
74303,note_off,0,0,0,,0,,,36,127
74304,note_on,1,0,0,,0,,,36,127
74304,note_on,0,0,0,,0,,,72,127
74399,note_off,95,0,0,,0,,,72,127
74400,note_on,1,0,0,,7,,,67,127
74495,note_off,95,0,0,,7,,,67,127
74496,note_on,1,0,0,,4,,,76,127
74591,note_off,95,0,0,,4,,,76,127
74592,note_on,1,0,0,,7,,,67,127
74687,note_off,95,0,0,,7,,,67,127
74687,note_off,0,0,0,,0,,,36,127
74688,note_on,1,0,0,,0,,,36,127
74688,note_on,0,0,0,,0,,,72,127
74783,note_off,95,0,0,,0,,,72,127
74784,note_on,1,0,0,,7,,,67,127
74879,note_off,95,0,0,,7,,,67,127
74880,note_on,1,0,0,,4,,,76,127
74975,note_off,95,0,0,,4,,,76,127
74976,note_on,1,0,0,,7,,,67,127
75071,note_off,95,0,0,,7,,,67,127
75071,note_off,0,0,0,,0,,,36,127
75072,note_on,1,0,0,,0,,,36,127
75072,note_on,0,0,0,,2,,,74,127
75119,note_off,47,0,0,,2,,,74,127
75120,note_on,1,0,0,,0,,,72,127
75167,note_off,47,0,0,,0,,,72,127
75168,note_on,1,0,0,,2,,,74,127
75215,note_off,47,0,0,,2,,,74,127
75216,note_on,1,0,0,,0,,,72,127
76224,note_off,1008,0,0,,0,,,72,127
76224,note_off,0,0,0,,0,,,36,127
76416,note_on,192,0,0,,0,,,72,127
76607,note_off,191,0,0,,0,,,72,127
76608,note_on,1,0,0,,0,,,60,127
76608,note_on,0,0,0,,7,,,79,127
76799,note_off,191,0,0,,7,,,79,127
76800,note_on,1,0,0,,5,,,77,127
76991,note_off,191,0,0,,5,,,77,127
76991,note_off,0,0,0,,0,,,60,127
76992,note_on,1,0,0,,0,,,60,127
76992,note_on,0,0,0,,5,,,77,127
77087,note_off,95,0,0,,5,,,77,127
77088,note_on,1,0,0,,4,,,76,127
77183,note_off,95,0,0,,4,,,76,127
77184,note_on,1,0,0,,2,,,74,127
77279,note_off,95,0,0,,2,,,74,127
77280,note_on,1,0,0,,0,,,72,127
77375,note_off,95,0,0,,0,,,72,127
77375,note_off,0,0,0,,0,,,60,127
77376,note_on,1,0,0,,2,,,62,127
77376,note_on,0,0,0,,11,,,70,127
77567,note_off,191,0,0,,11,,,70,127
77568,note_on,1,0,0,,2,,,74,127
77759,note_off,191,0,0,,2,,,74,127
77759,note_off,0,0,0,,2,,,62,127
77760,note_on,1,0,0,,2,,,62,127
77760,note_on,0,0,0,,5,,,77,127
77951,note_off,191,0,0,,5,,,77,127
77952,note_on,1,0,0,,4,,,76,127
78143,note_off,191,0,0,,4,,,76,127
78143,note_off,0,0,0,,2,,,62,127
78144,note_on,1,0,0,,2,,,62,127
78144,note_on,0,0,0,,4,,,76,127
78239,note_off,95,0,0,,4,,,76,127
78240,note_on,1,0,0,,2,,,74,127
78335,note_off,95,0,0,,2,,,74,127
78336,note_on,1,0,0,,0,,,72,127
78431,note_off,95,0,0,,0,,,72,127
78432,note_on,1,0,0,,11,,,70,127
78527,note_off,95,0,0,,11,,,70,127
78527,note_off,0,0,0,,2,,,62,127
78528,note_on,1,0,0,,4,,,64,127
78528,note_on,0,0,0,,0,,,60,127
78528,note_on,0,0,0,,10,,,69,127
78719,note_off,191,0,0,,10,,,69,127
78720,note_on,1,0,0,,0,,,72,127
78911,note_off,191,0,0,,0,,,72,127
78911,note_off,0,0,0,,0,,,60,127
78911,note_off,0,0,0,,4,,,64,127
78912,note_on,1,0,0,,0,,,60,127
78912,note_on,0,0,0,,4,,,64,127
78912,note_on,0,0,0,,4,,,76,127
79103,note_off,191,0,0,,4,,,76,127
79104,note_on,1,0,0,,2,,,74,127
79295,note_off,191,0,0,,2,,,74,127
79295,note_off,0,0,0,,4,,,64,127
79295,note_off,0,0,0,,0,,,60,127
79296,note_on,1,0,0,,0,,,60,127
79296,note_on,0,0,0,,4,,,64,127
79296,note_on,0,0,0,,2,,,74,127
79391,note_off,95,0,0,,2,,,74,127
79392,note_on,1,0,0,,0,,,72,127
79487,note_off,95,0,0,,0,,,72,127
79488,note_on,1,0,0,,12,,,71,127
79583,note_off,95,0,0,,12,,,71,127
79584,note_on,1,0,0,,10,,,69,127
79679,note_off,95,0,0,,10,,,69,127
79679,note_off,0,0,0,,4,,,64,127
79679,note_off,0,0,0,,0,,,60,127
79680,note_on,1,0,0,,2,,,62,127
79680,note_on,0,0,0,,12,,,59,127
79680,note_on,0,0,0,,8,,,68,127
79871,note_off,191,0,0,,8,,,68,127
79872,note_on,1,0,0,,5,,,65,127
80063,note_off,191,0,0,,5,,,65,127
80063,note_off,0,0,0,,12,,,59,127
80064,note_on,1,0,0,,8,,,56,127
80064,note_on,0,0,0,,4,,,64,127
80255,note_off,191,0,0,,4,,,64,127
80256,note_on,1,0,0,,8,,,68,127
80447,note_off,191,0,0,,8,,,68,127
80447,note_off,0,0,0,,8,,,56,127
80447,note_off,0,0,0,,2,,,62,127
80448,note_on,1,0,0,,4,,,52,127
80448,note_on,0,0,0,,4,,,64,127
80448,note_on,0,0,0,,12,,,71,127
80639,note_off,191,0,0,,12,,,71,127
80640,note_on,1,0,0,,2,,,74,127
80831,note_off,191,0,0,,2,,,74,127
80831,note_off,0,0,0,,4,,,64,127
80831,note_off,0,0,0,,4,,,52,127
80832,note_on,1,0,0,,0,,,60,127
80832,note_on,0,0,0,,10,,,57,127
80832,note_on,0,0,0,,2,,,74,127
80927,note_off,95,0,0,,2,,,74,127
80928,note_on,1,0,0,,0,,,72,127
81023,note_off,95,0,0,,0,,,72,127
81024,note_on,1,0,0,,12,,,71,127
81119,note_off,95,0,0,,12,,,71,127
81120,note_on,1,0,0,,0,,,72,127
81215,note_off,95,0,0,,0,,,72,127
81215,note_off,0,0,0,,10,,,57,127
81215,note_off,0,0,0,,0,,,60,127
81216,note_on,1,0,0,,5,,,53,127
81216,note_on,0,0,0,,2,,,62,127
81216,note_on,0,0,0,,2,,,74,127
81407,note_off,191,0,0,,2,,,74,127
81408,note_on,1,0,0,,0,,,72,127
81599,note_off,191,0,0,,0,,,72,127
81599,note_off,0,0,0,,2,,,62,127
81599,note_off,0,0,0,,5,,,53,127
81600,note_on,1,0,0,,2,,,50,127
81600,note_on,0,0,0,,2,,,62,127
81600,note_on,0,0,0,,12,,,71,127
81791,note_off,191,0,0,,12,,,71,127
81792,note_on,1,0,0,,10,,,69,127
81980,note_off,188,0,0,,2,,,50,127
81983,note_off,3,0,0,,10,,,69,127
81983,note_off,0,0,0,,2,,,62,127
81984,note_on,1,0,0,,10,,,69,127
82175,note_off,191,0,0,,10,,,69,127
82176,note_on,1,0,0,,4,,,52,127
82176,note_on,0,0,0,,12,,,71,127
82367,note_off,191,0,0,,4,,,52,127
82368,note_on,1,0,0,,4,,,64,127
82559,note_off,191,0,0,,4,,,64,127
82559,note_off,0,0,0,,12,,,71,127
82560,note_on,1,0,0,,2,,,62,127
82560,note_on,0,0,0,,4,,,76,127
82751,note_off,191,0,0,,4,,,76,127
82751,note_off,0,0,0,,2,,,62,127
82752,note_on,1,0,0,,0,,,60,127
82752,note_on,0,0,0,,12,,,71,127
82847,note_off,95,0,0,,12,,,71,127
82848,note_on,1,0,0,,10,,,69,127
82943,note_off,95,0,0,,10,,,69,127
82943,note_off,0,0,0,,0,,,60,127
82944,note_on,1,0,0,,12,,,59,127
82944,note_on,0,0,0,,8,,,68,127
83039,note_off,95,0,0,,8,,,68,127
83039,note_off,0,0,0,,12,,,59,127
83040,note_on,1,0,0,,10,,,57,127
83040,note_on,0,0,0,,10,,,69,127
83135,note_off,95,0,0,,10,,,69,127
83135,note_off,0,0,0,,10,,,57,127
83136,note_on,1,0,0,,8,,,56,127
83136,note_on,0,0,0,,10,,,69,127
83327,note_off,191,0,0,,10,,,69,127
83327,note_off,0,0,0,,8,,,56,127
83328,note_on,1,0,0,,5,,,53,127
83328,note_on,0,0,0,,12,,,71,127
83423,note_off,95,0,0,,5,,,53,127
83424,note_on,1,0,0,,4,,,52,127
83519,note_off,95,0,0,,4,,,52,127
83520,note_on,1,0,0,,2,,,50,127
83668,note_off,148,0,0,,12,,,71,127
83711,note_off,43,0,0,,2,,,50,127
83712,note_on,1,0,0,,0,,,48,127
83712,note_on,0,0,0,,0,,,72,127
83807,note_off,95,0,0,,0,,,48,127
83808,note_on,1,0,0,,12,,,47,127
83903,note_off,95,0,0,,12,,,47,127
83904,note_on,1,0,0,,10,,,45,127
84052,note_off,148,0,0,,0,,,72,127
84095,note_off,43,0,0,,10,,,45,127
84096,note_on,1,0,0,,7,,,43,127
84096,note_on,0,0,0,,2,,,74,127
84191,note_off,95,0,0,,7,,,43,127
84192,note_on,1,0,0,,5,,,41,127
84287,note_off,95,0,0,,5,,,41,127
84288,note_on,1,0,0,,4,,,40,127
84479,note_off,191,0,0,,4,,,40,127
84479,note_off,0,0,0,,2,,,74,127
84480,note_on,1,0,0,,4,,,52,127
84480,note_on,0,0,0,,4,,,76,127
84671,note_off,191,0,0,,4,,,52,127
84672,note_on,1,0,0,,4,,,64,127
84768,note_off,96,0,0,,4,,,76,127
84863,note_off,95,0,0,,4,,,64,127
84864,note_on,1,0,0,,2,,,62,127
84864,note_on,0,0,0,,4,,,76,127
85055,note_off,191,0,0,,4,,,76,127
85055,note_off,0,0,0,,2,,,62,127
85056,note_on,1,0,0,,0,,,60,127
85056,note_on,0,0,0,,12,,,71,127
85151,note_off,95,0,0,,12,,,71,127
85152,note_on,1,0,0,,10,,,69,127
85247,note_off,95,0,0,,10,,,69,127
85247,note_off,0,0,0,,0,,,60,127
85248,note_on,1,0,0,,12,,,59,127
85248,note_on,0,0,0,,8,,,68,127
85343,note_off,95,0,0,,8,,,68,127
85343,note_off,0,0,0,,12,,,59,127
85344,note_on,1,0,0,,10,,,57,127
85344,note_on,0,0,0,,10,,,69,127
85439,note_off,95,0,0,,10,,,69,127
85439,note_off,0,0,0,,10,,,57,127
85440,note_on,1,0,0,,8,,,56,127
85440,note_on,0,0,0,,10,,,69,127
85631,note_off,191,0,0,,10,,,69,127
85631,note_off,0,0,0,,8,,,56,127
85632,note_on,1,0,0,,5,,,53,127
85632,note_on,0,0,0,,12,,,71,127
85727,note_off,95,0,0,,5,,,53,127
85728,note_on,1,0,0,,4,,,52,127
85823,note_off,95,0,0,,4,,,52,127
85824,note_on,1,0,0,,2,,,50,127
86015,note_off,191,0,0,,2,,,50,127
86015,note_off,0,0,0,,12,,,71,127
86016,note_on,1,0,0,,0,,,48,127
86016,note_on,0,0,0,,0,,,72,127
86111,note_off,95,0,0,,0,,,48,127
86112,note_on,1,0,0,,12,,,47,127
86207,note_off,95,0,0,,12,,,47,127
86208,note_on,1,0,0,,10,,,45,127
86399,note_off,191,0,0,,10,,,45,127
86399,note_off,0,0,0,,0,,,72,127
86400,note_on,1,0,0,,7,,,43,127
86400,note_on,0,0,0,,2,,,74,127
86495,note_off,95,0,0,,7,,,43,127
86496,note_on,1,0,0,,5,,,41,127
86591,note_off,95,0,0,,5,,,41,127
86592,note_on,1,0,0,,4,,,40,127
86783,note_off,191,0,0,,2,,,74,127
86784,note_on,1,0,0,,4,,,76,127
87072,note_off,288,0,0,,4,,,76,127
87167,note_off,95,0,0,,4,,,40,127
87168,note_on,1,0,0,,7,,,79,127
87359,note_off,191,0,0,,7,,,79,127
87360,note_on,1,0,0,,7,,,79,127
87408,note_off,48,0,0,,7,,,79,127
87408,note_on,0,0,0,,10,,,81,127
87456,note_off,48,0,0,,10,,,81,127
87456,note_on,0,0,0,,11,,,82,127
87551,note_off,95,0,0,,11,,,82,127
87552,note_on,1,0,0,,10,,,81,127
87742,note_off,190,0,0,,10,,,81,127
87744,note_on,2,0,0,,7,,,79,127
87935,note_off,191,0,0,,7,,,79,127
87936,note_on,1,0,0,,5,,,77,127
88127,note_off,191,0,0,,5,,,77,127
88128,note_on,1,0,0,,1,,,73,127
88319,note_off,191,0,0,,1,,,73,127
88320,note_on,1,0,0,,2,,,74,127
88511,note_off,191,0,0,,2,,,74,127
88512,note_on,1,0,0,,10,,,69,127
88703,note_off,191,0,0,,10,,,69,127
88704,note_on,1,0,0,,11,,,70,127
88895,note_off,191,0,0,,11,,,70,127
88896,note_on,1,0,0,,7,,,43,127
88896,note_on,0,0,0,,6,,,66,127
89087,note_off,191,0,0,,6,,,66,127
89088,note_on,1,0,0,,7,,,67,127
89279,note_off,191,0,0,,7,,,67,127
89280,note_on,1,0,0,,1,,,61,127
89471,note_off,191,0,0,,1,,,61,127
89472,note_on,1,0,0,,2,,,62,127
89663,note_off,191,0,0,,2,,,62,127
89663,note_off,0,0,0,,7,,,43,127
89664,note_on,1,0,0,,7,,,43,127
89664,note_on,0,0,0,,11,,,58,127
89855,note_off,191,0,0,,11,,,58,127
89856,note_on,1,0,0,,7,,,67,127
90047,note_off,191,0,0,,7,,,67,127
90047,note_off,0,0,0,,7,,,43,127
90048,note_on,1,0,0,,10,,,45,127
90048,note_on,0,0,0,,7,,,67,127
90143,note_off,95,0,0,,7,,,67,127
90144,note_on,1,0,0,,5,,,65,127
90239,note_off,95,0,0,,5,,,65,127
90240,note_on,1,0,0,,4,,,64,127
90335,note_off,95,0,0,,4,,,64,127
90336,note_on,1,0,0,,2,,,62,127
90431,note_off,95,0,0,,2,,,62,127
90431,note_off,0,0,0,,10,,,45,127
90432,note_on,1,0,0,,10,,,45,127
90432,note_on,0,0,0,,10,,,69,127
90432,note_on,0,0,0,,5,,,65,127
90623,note_off,191,0,0,,5,,,65,127
90623,note_off,0,0,0,,10,,,69,127
90624,note_on,1,0,0,,7,,,67,127
90624,note_on,0,0,0,,4,,,64,127
90815,note_off,191,0,0,,4,,,64,127
90815,note_off,0,0,0,,7,,,67,127
90815,note_off,0,0,0,,10,,,45,127
90816,note_on,1,0,0,,10,,,45,127
90816,note_on,0,0,0,,5,,,65,127
90816,note_on,0,0,0,,2,,,62,127
91007,note_off,191,0,0,,2,,,62,127
91007,note_off,0,0,0,,5,,,65,127
91008,note_on,1,0,0,,4,,,64,127
91008,note_on,0,0,0,,1,,,61,127
91199,note_off,191,0,0,,1,,,61,127
91199,note_off,0,0,0,,4,,,64,127
91199,note_off,0,0,0,,10,,,45,127
91200,note_on,1,0,0,,2,,,38,127
91200,note_on,0,0,0,,2,,,62,127
91775,note_off,575,0,0,,2,,,62,127
91775,note_off,0,0,0,,2,,,38,127
91776,note_on,1,0,0,,5,,,77,127
91967,note_off,191,0,0,,5,,,77,127
91968,note_on,1,0,0,,11,,,82,127
92159,note_off,191,0,0,,11,,,82,127
92160,note_on,1,0,0,,10,,,81,127
92351,note_off,191,0,0,,10,,,81,127
92352,note_on,1,0,0,,7,,,79,127
92543,note_off,191,0,0,,7,,,79,127
92544,note_on,1,0,0,,10,,,81,127
92735,note_off,191,0,0,,10,,,81,127
92736,note_on,1,0,0,,12,,,71,127
92927,note_off,191,0,0,,12,,,71,127
92928,note_on,1,0,0,,0,,,72,127
93119,note_off,191,0,0,,0,,,72,127
93120,note_on,1,0,0,,7,,,67,127
93311,note_off,191,0,0,,7,,,67,127
93312,note_on,1,0,0,,10,,,69,127
93503,note_off,191,0,0,,10,,,69,127
93504,note_on,1,0,0,,5,,,41,127
93504,note_on,0,0,0,,4,,,64,127
93695,note_off,191,0,0,,4,,,64,127
93696,note_on,1,0,0,,5,,,65,127
93887,note_off,191,0,0,,5,,,65,127
93888,note_on,1,0,0,,12,,,59,127
94079,note_off,191,0,0,,12,,,59,127
94080,note_on,1,0,0,,0,,,60,127
94271,note_off,191,0,0,,0,,,60,127
94271,note_off,0,0,0,,5,,,41,127
94272,note_on,1,0,0,,5,,,41,127
94272,note_on,0,0,0,,10,,,57,127
94463,note_off,191,0,0,,10,,,57,127
94464,note_on,1,0,0,,5,,,65,127
94655,note_off,191,0,0,,5,,,65,127
94655,note_off,0,0,0,,5,,,41,127
94656,note_on,1,0,0,,7,,,43,127
94656,note_on,0,0,0,,5,,,65,127
94751,note_off,95,0,0,,5,,,65,127
94752,note_on,1,0,0,,4,,,64,127
94847,note_off,95,0,0,,4,,,64,127
94848,note_on,1,0,0,,2,,,62,127
94943,note_off,95,0,0,,2,,,62,127
94944,note_on,1,0,0,,0,,,60,127
95039,note_off,95,0,0,,0,,,60,127
95039,note_off,0,0,0,,7,,,43,127
95040,note_on,1,0,0,,7,,,43,127
95040,note_on,0,0,0,,7,,,67,127
95040,note_on,0,0,0,,4,,,64,127
95231,note_off,191,0,0,,4,,,64,127
95231,note_off,0,0,0,,7,,,67,127
95232,note_on,1,0,0,,5,,,65,127
95232,note_on,0,0,0,,2,,,62,127
95423,note_off,191,0,0,,2,,,62,127
95423,note_off,0,0,0,,5,,,65,127
95423,note_off,0,0,0,,7,,,43,127
95424,note_on,1,0,0,,7,,,43,127
95424,note_on,0,0,0,,0,,,60,127
95424,note_on,0,0,0,,4,,,64,127
95615,note_off,191,0,0,,4,,,64,127
95615,note_off,0,0,0,,0,,,60,127
95616,note_on,1,0,0,,2,,,62,127
95616,note_on,0,0,0,,12,,,59,127
95807,note_off,191,0,0,,12,,,59,127
95807,note_off,0,0,0,,2,,,62,127
95807,note_off,0,0,0,,7,,,43,127
95808,note_on,1,0,0,,0,,,48,127
95867,note_on,59,0,0,,0,,,60,127
95925,note_off,58,0,0,,0,,,60,127
95926,note_on,1,0,0,,2,,,62,127
95984,note_off,58,0,0,,2,,,62,127
95985,note_on,1,0,0,,4,,,64,127
95999,note_off,14,0,0,,0,,,48,127
96000,note_on,1,0,0,,0,,,60,127
96044,note_off,44,0,0,,4,,,64,127
96045,note_on,1,0,0,,5,,,65,127
96103,note_off,58,0,0,,5,,,65,127
96104,note_on,1,0,0,,7,,,67,127
96162,note_off,58,0,0,,7,,,67,127
96163,note_on,1,0,0,,10,,,69,127
96221,note_off,58,0,0,,10,,,69,127
96222,note_on,1,0,0,,11,,,70,127
96281,note_off,59,0,0,,11,,,70,127
96282,note_on,1,0,0,,0,,,72,127
96340,note_off,58,0,0,,0,,,72,127
96341,note_on,1,0,0,,2,,,74,127
96383,note_off,42,0,0,,0,,,60,127
96384,note_on,1,0,0,,11,,,58,127
96399,note_off,15,0,0,,2,,,74,127
96400,note_on,1,0,0,,4,,,76,127
96458,note_off,58,0,0,,4,,,76,127
96459,note_on,1,0,0,,5,,,77,127
96518,note_off,59,0,0,,5,,,77,127
96519,note_on,1,0,0,,7,,,79,127
96575,note_off,56,0,0,,11,,,58,127
96576,note_on,1,0,0,,10,,,57,127
96577,note_off,1,0,0,,7,,,79,127
96578,note_on,1,0,0,,10,,,81,127
96767,note_off,189,0,0,,10,,,57,127
96768,note_on,1,0,0,,5,,,53,127
96959,note_off,191,0,0,,5,,,53,127
96960,note_on,1,0,0,,11,,,46,127
96961,note_off,1,0,0,,10,,,81,127
97019,note_on,58,0,0,,11,,,58,127
97077,note_off,58,0,0,,11,,,58,127
97078,note_on,1,0,0,,0,,,60,127
97136,note_off,58,0,0,,0,,,60,127
97137,note_on,1,0,0,,2,,,62,127
97151,note_off,14,0,0,,11,,,46,127
97152,note_on,1,0,0,,11,,,58,127
97196,note_off,44,0,0,,2,,,62,127
97197,note_on,1,0,0,,4,,,64,127
97255,note_off,58,0,0,,4,,,64,127
97256,note_on,1,0,0,,5,,,65,127
97314,note_off,58,0,0,,5,,,65,127
97315,note_on,1,0,0,,7,,,67,127
97373,note_off,58,0,0,,7,,,67,127
97374,note_on,1,0,0,,10,,,69,127
97433,note_off,59,0,0,,10,,,69,127
97434,note_on,1,0,0,,11,,,70,127
97492,note_off,58,0,0,,11,,,70,127
97493,note_on,1,0,0,,0,,,72,127
97535,note_off,42,0,0,,11,,,58,127
97536,note_on,1,0,0,,10,,,57,127
97551,note_off,15,0,0,,0,,,72,127
97552,note_on,1,0,0,,2,,,74,127
97610,note_off,58,0,0,,2,,,74,127
97611,note_on,1,0,0,,4,,,76,127
97670,note_off,59,0,0,,4,,,76,127
97671,note_on,1,0,0,,5,,,77,127
97727,note_off,56,0,0,,10,,,57,127
97728,note_on,1,0,0,,7,,,55,127
97729,note_off,1,0,0,,5,,,77,127
97730,note_on,1,0,0,,7,,,79,127
97919,note_off,189,0,0,,7,,,55,127
97920,note_on,1,0,0,,4,,,52,127
98111,note_off,191,0,0,,4,,,52,127
98112,note_on,1,0,0,,10,,,45,127
98113,note_off,1,0,0,,7,,,79,127
98171,note_on,58,0,0,,10,,,57,127
98229,note_off,58,0,0,,10,,,57,127
98230,note_on,1,0,0,,11,,,58,127
98288,note_off,58,0,0,,11,,,58,127
98289,note_on,1,0,0,,0,,,60,127
98303,note_off,14,0,0,,10,,,45,127
98304,note_on,1,0,0,,10,,,57,127
98348,note_off,44,0,0,,0,,,60,127
98349,note_on,1,0,0,,2,,,62,127
98407,note_off,58,0,0,,2,,,62,127
98408,note_on,1,0,0,,4,,,64,127
98466,note_off,58,0,0,,4,,,64,127
98467,note_on,1,0,0,,5,,,65,127
98525,note_off,58,0,0,,5,,,65,127
98526,note_on,1,0,0,,7,,,67,127
98585,note_off,59,0,0,,7,,,67,127
98586,note_on,1,0,0,,10,,,69,127
98644,note_off,58,0,0,,10,,,69,127
98645,note_on,1,0,0,,11,,,70,127
98687,note_off,42,0,0,,10,,,57,127
98688,note_on,1,0,0,,7,,,55,127
98703,note_off,15,0,0,,11,,,70,127
98704,note_on,1,0,0,,0,,,72,127
98762,note_off,58,0,0,,0,,,72,127
98763,note_on,1,0,0,,2,,,74,127
98822,note_off,59,0,0,,2,,,74,127
98823,note_on,1,0,0,,4,,,76,127
98879,note_off,56,0,0,,7,,,55,127
98880,note_on,1,0,0,,5,,,53,127
98881,note_off,1,0,0,,4,,,76,127
98882,note_on,1,0,0,,5,,,77,127
99071,note_off,189,0,0,,5,,,53,127
99072,note_on,1,0,0,,2,,,50,127
99263,note_off,191,0,0,,2,,,50,127
99264,note_on,1,0,0,,7,,,43,127
99265,note_off,1,0,0,,5,,,77,127
99323,note_on,58,0,0,,11,,,58,127
99381,note_off,58,0,0,,11,,,58,127
99382,note_on,1,0,0,,0,,,60,127
99440,note_off,58,0,0,,0,,,60,127
99441,note_on,1,0,0,,2,,,62,127
99455,note_off,14,0,0,,7,,,43,127
99456,note_on,1,0,0,,7,,,55,127
99500,note_off,44,0,0,,2,,,62,127
99501,note_on,1,0,0,,4,,,64,127
99559,note_off,58,0,0,,4,,,64,127
99560,note_on,1,0,0,,5,,,65,127
99618,note_off,58,0,0,,5,,,65,127
99619,note_on,1,0,0,,7,,,67,127
99677,note_off,58,0,0,,7,,,67,127
99678,note_on,1,0,0,,10,,,69,127
99737,note_off,59,0,0,,10,,,69,127
99738,note_on,1,0,0,,11,,,70,127
99796,note_off,58,0,0,,11,,,70,127
99797,note_on,1,0,0,,0,,,72,127
99839,note_off,42,0,0,,7,,,55,127
99840,note_on,1,0,0,,5,,,53,127
99855,note_off,15,0,0,,0,,,72,127
99856,note_on,1,0,0,,2,,,74,127
99914,note_off,58,0,0,,2,,,74,127
99915,note_on,1,0,0,,4,,,76,127
99974,note_off,59,0,0,,4,,,76,127
99975,note_on,1,0,0,,5,,,77,127
100031,note_off,56,0,0,,5,,,53,127
100032,note_on,1,0,0,,4,,,52,127
100033,note_off,1,0,0,,5,,,77,127
100034,note_on,1,0,0,,7,,,79,127
100223,note_off,189,0,0,,4,,,52,127
100224,note_on,1,0,0,,0,,,48,127
100415,note_off,191,0,0,,0,,,48,127
100415,note_off,0,0,0,,7,,,79,127
100416,note_on,1,0,0,,5,,,41,127
100416,note_on,0,0,0,,10,,,81,127
100511,note_off,95,0,0,,10,,,81,127
100512,note_on,1,0,0,,7,,,79,127
100607,note_off,95,0,0,,7,,,79,127
100608,note_on,1,0,0,,5,,,77,127
100703,note_off,95,0,0,,5,,,77,127
100704,note_on,1,0,0,,4,,,76,127
100799,note_off,95,0,0,,4,,,76,127
100799,note_off,0,0,0,,5,,,41,127
100800,note_on,1,0,0,,7,,,43,127
100800,note_on,0,0,0,,2,,,74,127
100895,note_off,95,0,0,,2,,,74,127
100896,note_on,1,0,0,,0,,,72,127
100991,note_off,95,0,0,,0,,,72,127
100992,note_on,1,0,0,,11,,,70,127
101087,note_off,95,0,0,,11,,,70,127
101088,note_on,1,0,0,,10,,,69,127
101183,note_off,95,0,0,,10,,,69,127
101183,note_off,0,0,0,,7,,,43,127
101184,note_on,1,0,0,,10,,,45,127
101184,note_on,0,0,0,,7,,,67,127
101279,note_off,95,0,0,,7,,,67,127
101280,note_on,1,0,0,,5,,,65,127
101375,note_off,95,0,0,,5,,,65,127
101375,note_off,0,0,0,,10,,,45,127
101376,note_on,1,0,0,,11,,,46,127
101376,note_on,0,0,0,,4,,,64,127
101471,note_off,95,0,0,,4,,,64,127
101472,note_on,1,0,0,,2,,,62,127
101567,note_off,95,0,0,,2,,,62,127
101567,note_off,0,0,0,,11,,,46,127
101568,note_on,1,0,0,,0,,,48,127
101568,note_on,0,0,0,,0,,,60,127
101759,note_off,191,0,0,,0,,,48,127
101760,note_on,1,0,0,,4,,,52,127
101951,note_off,191,0,0,,4,,,52,127
101952,note_on,1,0,0,,7,,,55,127
102143,note_off,191,0,0,,7,,,55,127
102144,note_on,1,0,0,,12,,,59,127
102335,note_off,191,0,0,,12,,,59,127
102335,note_off,0,0,0,,0,,,60,127
102336,note_on,1,0,0,,0,,,60,127
102528,note_on,192,0,0,,0,,,48,127
102716,note_off,188,0,0,,0,,,60,127
102719,note_off,3,0,0,,0,,,48,127
102720,note_on,1,0,0,,2,,,50,127
102720,note_on,0,0,0,,4,,,64,127
102911,note_off,191,0,0,,4,,,64,127
102911,note_off,0,0,0,,2,,,50,127
102912,note_on,1,0,0,,5,,,53,127
102912,note_on,0,0,0,,5,,,65,127
103103,note_off,191,0,0,,5,,,53,127
103104,note_on,1,0,0,,7,,,55,127
103295,note_off,191,0,0,,7,,,55,127
103296,note_on,1,0,0,,0,,,60,127
103487,note_off,191,0,0,,0,,,60,127
103488,note_on,1,0,0,,12,,,59,127
103679,note_off,191,0,0,,12,,,59,127
103680,note_on,1,0,0,,2,,,50,127
103871,note_off,191,0,0,,2,,,50,127
103871,note_off,0,0,0,,5,,,65,127
103872,note_on,1,0,0,,0,,,48,127
103872,note_on,0,0,0,,4,,,64,127
104063,note_off,191,0,0,,4,,,64,127
104063,note_off,0,0,0,,0,,,48,127
104064,note_on,1,0,0,,5,,,53,127
104064,note_on,0,0,0,,5,,,65,127
104255,note_off,191,0,0,,5,,,65,127
104255,note_off,0,0,0,,5,,,53,127
104256,note_on,1,0,0,,7,,,55,127
104256,note_on,0,0,0,,6,,,66,127
104447,note_off,191,0,0,,6,,,66,127
104447,note_off,0,0,0,,7,,,55,127
104448,note_on,1,0,0,,12,,,59,127
104448,note_on,0,0,0,,7,,,67,127
104639,note_off,191,0,0,,12,,,59,127
104640,note_on,1,0,0,,0,,,60,127
104831,note_off,191,0,0,,0,,,60,127
104832,note_on,1,0,0,,0,,,48,127
104928,note_off,96,0,0,,7,,,67,127
105023,note_off,95,0,0,,0,,,48,127
105024,note_on,1,0,0,,2,,,50,127
105024,note_on,0,0,0,,4,,,64,127
105215,note_off,191,0,0,,4,,,64,127
105215,note_off,0,0,0,,2,,,50,127
105216,note_on,1,0,0,,5,,,53,127
105216,note_on,0,0,0,,5,,,65,127
105407,note_off,191,0,0,,5,,,53,127
105408,note_on,1,0,0,,7,,,55,127
105599,note_off,191,0,0,,7,,,55,127
105600,note_on,1,0,0,,0,,,60,127
105791,note_off,191,0,0,,0,,,60,127
105792,note_on,1,0,0,,12,,,59,127
105983,note_off,191,0,0,,12,,,59,127
105983,note_off,0,0,0,,5,,,65,127
105984,note_on,1,0,0,,2,,,50,127
105984,note_on,0,0,0,,7,,,67,127
106175,note_off,191,0,0,,7,,,67,127
106175,note_off,0,0,0,,2,,,50,127
106176,note_on,1,0,0,,0,,,48,127
106176,note_on,0,0,0,,4,,,64,127
106367,note_off,191,0,0,,4,,,64,127
106367,note_off,0,0,0,,0,,,48,127
106368,note_on,1,0,0,,0,,,60,127
106368,note_on,0,0,0,,5,,,65,127
106559,note_off,191,0,0,,5,,,65,127
106560,note_on,1,0,0,,6,,,66,127
106751,note_off,191,0,0,,6,,,66,127
106751,note_off,0,0,0,,0,,,60,127
106752,note_on,1,0,0,,11,,,58,127
106752,note_on,0,0,0,,7,,,67,127
106943,note_off,191,0,0,,7,,,67,127
106943,note_off,0,0,0,,11,,,58,127
106944,note_on,1,0,0,,10,,,57,127
106944,note_on,0,0,0,,10,,,69,127
107135,note_off,191,0,0,,10,,,69,127
107135,note_off,0,0,0,,10,,,57,127
107136,note_on,1,0,0,,7,,,55,127
107136,note_on,0,0,0,,11,,,70,127
107327,note_off,191,0,0,,11,,,70,127
107327,note_off,0,0,0,,7,,,55,127
107328,note_on,1,0,0,,5,,,53,127
107328,note_on,0,0,0,,0,,,72,127
107519,note_off,191,0,0,,0,,,72,127
107519,note_off,0,0,0,,5,,,53,127
107520,note_on,1,0,0,,11,,,58,127
107520,note_on,0,0,0,,2,,,74,127
107615,note_off,95,0,0,,2,,,74,127
107616,note_on,1,0,0,,11,,,70,127
107711,note_off,95,0,0,,11,,,70,127
107711,note_off,0,0,0,,11,,,58,127
107712,note_on,1,0,0,,0,,,60,127
107712,note_on,0,0,0,,10,,,69,127
107903,note_off,191,0,0,,10,,,69,127
107904,note_on,1,0,0,,7,,,67,127
108095,note_off,191,0,0,,7,,,67,127
108096,note_on,1,0,0,,0,,,48,127
108096,note_on,0,0,0,,5,,,65,127
108287,note_off,191,0,0,,5,,,65,127
108288,note_on,1,0,0,,4,,,64,127
108382,note_off,94,0,0,,0,,,60,127
108479,note_off,97,0,0,,0,,,48,127
108480,note_on,1,0,0,,2,,,50,127
108480,note_on,0,0,0,,4,,,76,127
108576,note_off,96,0,0,,4,,,64,127
108671,note_off,95,0,0,,4,,,76,127
108671,note_off,0,0,0,,2,,,50,127
108672,note_on,1,0,0,,5,,,53,127
108672,note_on,0,0,0,,5,,,77,127
108863,note_off,191,0,0,,5,,,53,127
108864,note_on,1,0,0,,7,,,55,127
109055,note_off,191,0,0,,7,,,55,127
109056,note_on,1,0,0,,0,,,60,127
109247,note_off,191,0,0,,0,,,60,127
109248,note_on,1,0,0,,12,,,59,127
109439,note_off,191,0,0,,12,,,59,127
109439,note_off,0,0,0,,5,,,77,127
109440,note_on,1,0,0,,2,,,50,127
109440,note_on,0,0,0,,7,,,79,127
109631,note_off,191,0,0,,7,,,79,127
109631,note_off,0,0,0,,2,,,50,127
109632,note_on,1,0,0,,0,,,48,127
109632,note_on,0,0,0,,4,,,76,127
109823,note_off,191,0,0,,4,,,76,127
109823,note_off,0,0,0,,0,,,48,127
109824,note_on,1,0,0,,5,,,53,127
109824,note_on,0,0,0,,5,,,77,127
110015,note_off,191,0,0,,5,,,77,127
110015,note_off,0,0,0,,5,,,53,127
110016,note_on,1,0,0,,7,,,55,127
110016,note_on,0,0,0,,6,,,78,127
110207,note_off,191,0,0,,6,,,78,127
110207,note_off,0,0,0,,7,,,55,127
110208,note_on,1,0,0,,12,,,59,127
110208,note_on,0,0,0,,7,,,79,127
110399,note_off,191,0,0,,12,,,59,127
110400,note_on,1,0,0,,0,,,60,127
110591,note_off,191,0,0,,0,,,60,127
110591,note_off,0,0,0,,7,,,79,127
110592,note_on,1,0,0,,0,,,48,127
110592,note_on,0,0,0,,0,,,84,127
110783,note_off,191,0,0,,0,,,84,127
110783,note_off,0,0,0,,0,,,48,127
110784,note_on,1,0,0,,2,,,50,127
110784,note_on,0,0,0,,4,,,76,127
110975,note_off,191,0,0,,4,,,76,127
110975,note_off,0,0,0,,2,,,50,127
110976,note_on,1,0,0,,5,,,53,127
110976,note_on,0,0,0,,5,,,77,127
111167,note_off,191,0,0,,5,,,53,127
111168,note_on,1,0,0,,7,,,55,127
111359,note_off,191,0,0,,7,,,55,127
111360,note_on,1,0,0,,0,,,60,127
111551,note_off,191,0,0,,0,,,60,127
111552,note_on,1,0,0,,12,,,59,127
111676,note_off,124,0,0,,5,,,77,127
111743,note_off,67,0,0,,12,,,59,127
111744,note_on,1,0,0,,2,,,50,127
111744,note_on,0,0,0,,2,,,86,127
111935,note_off,191,0,0,,2,,,86,127
111935,note_off,0,0,0,,2,,,50,127
111936,note_on,1,0,0,,0,,,48,127
111936,note_on,0,0,0,,4,,,76,127
112127,note_off,191,0,0,,4,,,76,127
112127,note_off,0,0,0,,0,,,48,127
112128,note_on,1,0,0,,0,,,60,127
112128,note_on,0,0,0,,5,,,77,127
112319,note_off,191,0,0,,5,,,77,127
112320,note_on,1,0,0,,6,,,78,127
112511,note_off,191,0,0,,6,,,78,127
112511,note_off,0,0,0,,0,,,60,127
112512,note_on,1,0,0,,11,,,58,127
112512,note_on,0,0,0,,7,,,79,127
112703,note_off,191,0,0,,7,,,79,127
112703,note_off,0,0,0,,11,,,58,127
112704,note_on,1,0,0,,10,,,57,127
112704,note_on,0,0,0,,10,,,81,127
112895,note_off,191,0,0,,10,,,81,127
112895,note_off,0,0,0,,10,,,57,127
112896,note_on,1,0,0,,7,,,55,127
112896,note_on,0,0,0,,11,,,82,127
113087,note_off,191,0,0,,11,,,82,127
113087,note_off,0,0,0,,7,,,55,127
113088,note_on,1,0,0,,5,,,53,127
113088,note_on,0,0,0,,0,,,84,127
113279,note_off,191,0,0,,0,,,84,127
113279,note_off,0,0,0,,5,,,53,127
113280,note_on,1,0,0,,11,,,58,127
113280,note_on,0,0,0,,2,,,86,127
113375,note_off,95,0,0,,2,,,86,127
113376,note_on,1,0,0,,11,,,82,127
113471,note_off,95,0,0,,11,,,82,127
113471,note_off,0,0,0,,11,,,58,127
113472,note_on,1,0,0,,0,,,60,127
113472,note_on,0,0,0,,10,,,81,127
113663,note_off,191,0,0,,10,,,81,127
113664,note_on,1,0,0,,7,,,79,127
113855,note_off,191,0,0,,7,,,79,127
113856,note_on,1,0,0,,0,,,48,127
113856,note_on,0,0,0,,5,,,77,127
114047,note_off,191,0,0,,5,,,77,127
114048,note_on,1,0,0,,4,,,76,127
114228,note_off,180,0,0,,4,,,76,127
114239,note_off,11,0,0,,0,,,48,127
114239,note_off,0,0,0,,0,,,60,127
114240,note_on,1,0,0,,5,,,77,127
114240,note_on,0,0,0,,5,,,65,127
114336,note_on,96,0,0,,10,,,81,127
114431,note_off,95,0,0,,5,,,65,127
114431,note_off,0,0,0,,5,,,77,127
114432,note_on,1,0,0,,4,,,64,127
114432,note_on,0,0,0,,4,,,76,127
114527,note_off,95,0,0,,10,,,81,127
114528,note_on,1,0,0,,7,,,79,127
114623,note_off,95,0,0,,4,,,76,127
114623,note_off,0,0,0,,4,,,64,127
114624,note_on,1,0,0,,2,,,62,127
114624,note_on,0,0,0,,2,,,74,127
114719,note_off,95,0,0,,7,,,79,127
114720,note_on,1,0,0,,5,,,77,127
114815,note_off,95,0,0,,2,,,74,127
114815,note_off,0,0,0,,2,,,62,127
114816,note_on,1,0,0,,0,,,72,127
114816,note_on,0,0,0,,0,,,60,127
114911,note_off,95,0,0,,5,,,77,127
114912,note_on,1,0,0,,4,,,76,127
115007,note_off,95,0,0,,0,,,60,127
115007,note_off,0,0,0,,0,,,72,127
115008,note_on,1,0,0,,11,,,70,127
115008,note_on,0,0,0,,11,,,58,127
115103,note_off,95,0,0,,4,,,76,127
115104,note_on,1,0,0,,2,,,74,127
115199,note_off,95,0,0,,11,,,58,127
115199,note_off,0,0,0,,11,,,70,127
115200,note_on,1,0,0,,10,,,57,127
115200,note_on,0,0,0,,10,,,69,127
115295,note_off,95,0,0,,2,,,74,127
115296,note_on,1,0,0,,0,,,72,127
115391,note_off,95,0,0,,10,,,69,127
115391,note_off,0,0,0,,10,,,57,127
115392,note_on,1,0,0,,7,,,67,127
115392,note_on,0,0,0,,7,,,55,127
115487,note_off,95,0,0,,0,,,72,127
115488,note_on,1,0,0,,11,,,70,127
115583,note_off,95,0,0,,7,,,55,127
115583,note_off,0,0,0,,7,,,67,127
115584,note_on,1,0,0,,5,,,65,127
115584,note_on,0,0,0,,5,,,53,127
115679,note_off,95,0,0,,11,,,70,127
115680,note_on,1,0,0,,10,,,69,127
115775,note_off,95,0,0,,5,,,53,127
115775,note_off,0,0,0,,5,,,65,127
115776,note_on,1,0,0,,4,,,64,127
115776,note_on,0,0,0,,4,,,52,127
115871,note_off,95,0,0,,10,,,69,127
115872,note_on,1,0,0,,7,,,67,127
115967,note_off,95,0,0,,4,,,52,127
115967,note_off,0,0,0,,4,,,64,127
115968,note_on,1,0,0,,2,,,62,127
115968,note_on,0,0,0,,2,,,50,127
116063,note_off,95,0,0,,7,,,67,127
116064,note_on,1,0,0,,5,,,65,127
116159,note_off,95,0,0,,2,,,50,127
116159,note_off,0,0,0,,2,,,62,127
116160,note_on,1,0,0,,0,,,60,127
116160,note_on,0,0,0,,0,,,48,127
116255,note_off,95,0,0,,5,,,65,127
116256,note_on,1,0,0,,4,,,64,127
116351,note_off,95,0,0,,0,,,48,127
116351,note_off,0,0,0,,0,,,60,127
116352,note_on,1,0,0,,11,,,46,127
116352,note_on,0,0,0,,11,,,58,127
116447,note_off,95,0,0,,4,,,64,127
116448,note_on,1,0,0,,2,,,62,127
116543,note_off,95,0,0,,2,,,62,127
116543,note_off,0,0,0,,11,,,58,127
116543,note_off,0,0,0,,11,,,46,127
116544,note_on,1,0,0,,10,,,57,127
116544,note_on,0,0,0,,10,,,45,127
116544,note_on,0,0,0,,0,,,60,127
116639,note_off,95,0,0,,0,,,60,127
116640,note_on,1,0,0,,5,,,65,127
116735,note_off,95,0,0,,5,,,65,127
116736,note_on,1,0,0,,10,,,69,127
116831,note_off,95,0,0,,10,,,69,127
116832,note_on,1,0,0,,0,,,72,127
117119,note_off,287,0,0,,10,,,45,127
117119,note_off,0,0,0,,10,,,57,127
117120,note_off,1,0,0,,0,,,72,127
117696,note_on,576,0,0,,5,,,65,127
117791,note_off,95,0,0,,5,,,65,127
117792,note_on,1,0,0,,4,,,64,127
117887,note_off,95,0,0,,4,,,64,127
117888,note_on,1,0,0,,2,,,62,127
117888,note_on,0,0,0,,10,,,81,127
117888,note_on,0,0,0,,0,,,72,127
117983,note_off,95,0,0,,2,,,62,127
117984,note_on,1,0,0,,0,,,60,127
118079,note_off,95,0,0,,0,,,60,127
118079,note_off,0,0,0,,0,,,72,127
118079,note_off,0,0,0,,10,,,81,127
118080,note_on,1,0,0,,11,,,58,127
118080,note_on,0,0,0,,2,,,74,127
118080,note_on,0,0,0,,11,,,82,127
118175,note_off,95,0,0,,11,,,58,127
118176,note_on,1,0,0,,10,,,57,127
118271,note_off,95,0,0,,10,,,57,127
118271,note_off,0,0,0,,11,,,82,127
118271,note_off,0,0,0,,2,,,74,127
118272,note_on,1,0,0,,7,,,55,127
118272,note_on,0,0,0,,0,,,84,127
118272,note_on,0,0,0,,4,,,76,127
118367,note_off,95,0,0,,7,,,55,127
118368,note_on,1,0,0,,5,,,53,127
118463,note_off,95,0,0,,5,,,53,127
118463,note_off,0,0,0,,4,,,76,127
118463,note_off,0,0,0,,0,,,84,127
118464,note_on,1,0,0,,4,,,52,127
118464,note_on,0,0,0,,5,,,77,127
118464,note_on,0,0,0,,2,,,86,127
118559,note_off,95,0,0,,4,,,52,127
118560,note_on,1,0,0,,2,,,50,127
118655,note_off,95,0,0,,2,,,50,127
118655,note_off,0,0,0,,2,,,86,127
118655,note_off,0,0,0,,5,,,77,127
118656,note_on,1,0,0,,0,,,48,127
118656,note_on,0,0,0,,4,,,88,127
118656,note_on,0,0,0,,7,,,79,127
118751,note_off,95,0,0,,0,,,48,127
118752,note_on,1,0,0,,11,,,46,127
118847,note_off,95,0,0,,11,,,46,127
118847,note_off,0,0,0,,7,,,79,127
118847,note_off,0,0,0,,4,,,88,127
118848,note_on,1,0,0,,10,,,45,127
118848,note_on,0,0,0,,10,,,81,127
118848,note_on,0,0,0,,5,,,89,127
119039,note_off,191,0,0,,5,,,89,127
119040,note_on,1,0,0,,0,,,84,127
119231,note_off,191,0,0,,0,,,84,127
119231,note_off,0,0,0,,10,,,81,127
119231,note_off,0,0,0,,10,,,45,127
119232,note_on,1,0,0,,11,,,46,127
119232,note_on,0,0,0,,11,,,82,127
119232,note_on,0,0,0,,2,,,86,127
119423,note_off,191,0,0,,2,,,86,127
119423,note_off,0,0,0,,11,,,82,127
119424,note_on,1,0,0,,10,,,81,127
119424,note_on,0,0,0,,0,,,84,127
119519,note_off,95,0,0,,0,,,84,127
119519,note_off,0,0,0,,10,,,81,127
119520,note_on,1,0,0,,11,,,82,127
119520,note_on,0,0,0,,7,,,79,127
119615,note_off,95,0,0,,7,,,79,127
119615,note_off,0,0,0,,11,,,82,127
119615,note_off,0,0,0,,11,,,46,127
119616,note_on,1,0,0,,0,,,48,127
119616,note_on,0,0,0,,10,,,81,127
119616,note_on,0,0,0,,5,,,77,127
119807,note_off,191,0,0,,5,,,77,127
119807,note_off,0,0,0,,10,,,81,127
119808,note_on,1,0,0,,7,,,79,127
119808,note_on,0,0,0,,0,,,72,127
119999,note_off,191,0,0,,0,,,72,127
119999,note_off,0,0,0,,7,,,79,127
119999,note_off,0,0,0,,0,,,48,127
120000,note_on,1,0,0,,5,,,53,127
120000,note_on,0,0,0,,10,,,81,127
120000,note_on,0,0,0,,0,,,72,127
120095,note_off,95,0,0,,5,,,53,127
120096,note_on,1,0,0,,4,,,52,127
120191,note_off,95,0,0,,4,,,52,127
120191,note_off,0,0,0,,0,,,72,127
120191,note_off,0,0,0,,10,,,81,127
120192,note_on,1,0,0,,2,,,50,127
120192,note_on,0,0,0,,0,,,60,127
120192,note_on,0,0,0,,10,,,69,127
120287,note_off,95,0,0,,2,,,50,127
120288,note_on,1,0,0,,0,,,48,127
120383,note_off,95,0,0,,0,,,48,127
120383,note_off,0,0,0,,10,,,69,127
120383,note_off,0,0,0,,0,,,60,127
120384,note_on,1,0,0,,11,,,46,127
120384,note_on,0,0,0,,2,,,62,127
120384,note_on,0,0,0,,11,,,70,127
120479,note_off,95,0,0,,11,,,46,127
120480,note_on,1,0,0,,10,,,45,127
120575,note_off,95,0,0,,10,,,45,127
120575,note_off,0,0,0,,11,,,70,127
120575,note_off,0,0,0,,2,,,62,127
120576,note_on,1,0,0,,7,,,43,127
120576,note_on,0,0,0,,4,,,64,127
120576,note_on,0,0,0,,0,,,72,127
120671,note_off,95,0,0,,7,,,43,127
120672,note_on,1,0,0,,5,,,41,127
120767,note_off,95,0,0,,5,,,41,127
120767,note_off,0,0,0,,0,,,72,127
120767,note_off,0,0,0,,4,,,64,127
120768,note_on,1,0,0,,4,,,40,127
120768,note_on,0,0,0,,5,,,65,127
120768,note_on,0,0,0,,2,,,74,127
120863,note_off,95,0,0,,4,,,40,127
120864,note_on,1,0,0,,2,,,38,127
120959,note_off,95,0,0,,2,,,38,127
120959,note_off,0,0,0,,2,,,74,127
120959,note_off,0,0,0,,5,,,65,127
120960,note_on,1,0,0,,0,,,36,127
120960,note_on,0,0,0,,7,,,67,127
120960,note_on,0,0,0,,4,,,76,127
121055,note_off,95,0,0,,0,,,36,127
121056,note_on,1,0,0,,11,,,34,127
121151,note_off,95,0,0,,11,,,34,127
121151,note_off,0,0,0,,4,,,76,127
121151,note_off,0,0,0,,7,,,67,127
121152,note_on,1,0,0,,10,,,33,127
121152,note_on,0,0,0,,10,,,69,127
121152,note_on,0,0,0,,5,,,77,127
121343,note_off,191,0,0,,5,,,77,127
121344,note_on,1,0,0,,0,,,72,127
121535,note_off,191,0,0,,0,,,72,127
121535,note_off,0,0,0,,10,,,69,127
121535,note_off,0,0,0,,10,,,33,127
121536,note_on,1,0,0,,11,,,34,127
121536,note_on,0,0,0,,11,,,70,127
121536,note_on,0,0,0,,2,,,74,127
121727,note_off,191,0,0,,2,,,74,127
121727,note_off,0,0,0,,11,,,70,127
121728,note_on,1,0,0,,10,,,69,127
121728,note_on,0,0,0,,0,,,72,127
121823,note_off,95,0,0,,0,,,72,127
121823,note_off,0,0,0,,10,,,69,127
121824,note_on,1,0,0,,11,,,70,127
121824,note_on,0,0,0,,7,,,67,127
121919,note_off,95,0,0,,7,,,67,127
121919,note_off,0,0,0,,11,,,70,127
121919,note_off,0,0,0,,11,,,34,127
121920,note_on,1,0,0,,0,,,36,127
121920,note_on,0,0,0,,5,,,65,127
121920,note_on,0,0,0,,10,,,69,127
122111,note_off,191,0,0,,10,,,69,127
122111,note_off,0,0,0,,5,,,65,127
122112,note_on,1,0,0,,7,,,67,127
122112,note_on,0,0,0,,0,,,60,127
122303,note_off,191,0,0,,0,,,60,127
122303,note_off,0,0,0,,7,,,67,127
122303,note_off,0,0,0,,0,,,36,127
122304,note_on,1,0,0,,5,,,29,127
122304,note_on,0,0,0,,5,,,65,127
122399,note_off,95,0,0,,5,,,65,127
122400,note_on,1,0,0,,10,,,57,127
122495,note_off,95,0,0,,10,,,57,127
122496,note_on,1,0,0,,10,,,69,127
122591,note_off,95,0,0,,10,,,69,127
122592,note_on,1,0,0,,0,,,60,127
122687,note_off,95,0,0,,0,,,60,127
122687,note_off,0,0,0,,5,,,29,127
122688,note_on,1,0,0,,5,,,29,127
122688,note_on,0,0,0,,5,,,65,127
122783,note_off,95,0,0,,5,,,65,127
122784,note_on,1,0,0,,10,,,57,127
122879,note_off,95,0,0,,10,,,57,127
122880,note_on,1,0,0,,10,,,69,127
122975,note_off,95,0,0,,10,,,69,127
122976,note_on,1,0,0,,0,,,60,127
123071,note_off,95,0,0,,0,,,60,127
123071,note_off,0,0,0,,5,,,29,127
123072,note_on,1,0,0,,5,,,29,127
123072,note_on,0,0,0,,5,,,65,127
123167,note_off,95,0,0,,5,,,65,127
123168,note_on,1,0,0,,10,,,57,127
123263,note_off,95,0,0,,10,,,57,127
123264,note_on,1,0,0,,10,,,69,127
123359,note_off,95,0,0,,10,,,69,127
123360,note_on,1,0,0,,0,,,60,127
123455,note_off,95,0,0,,0,,,60,127
123455,note_off,0,0,0,,5,,,29,127
123456,note_on,1,0,0,,5,,,29,127
123456,note_on,0,0,0,,7,,,67,127
123503,note_off,47,0,0,,7,,,67,127
123504,note_on,1,0,0,,5,,,65,127
123551,note_off,47,0,0,,5,,,65,127
123552,note_on,1,0,0,,7,,,67,127
123599,note_off,47,0,0,,7,,,67,127
123600,note_on,1,0,0,,5,,,65,127
125568,note_off,1968,0,0,,5,,,65,127
125568,note_off,0,0,0,,5,,,29,127
125952,end_of_track,384,1,0,,,,,,
