tick,type,time,meta,track,program,channel,pitch,tempo,note,velocity
0,copyright,0,1,0,,,,,,
0,program_change,0,0,0,6,0,,,,
0,pitchwheel,0,0,0,,0,0,,,
0,program_change,0,0,0,6,1,,,,
0,pitchwheel,0,0,0,,1,-590,,,
0,program_change,0,0,0,6,2,,,,
0,pitchwheel,0,0,0,,2,-272,,,
0,program_change,0,0,0,6,3,,,,
0,pitchwheel,0,0,0,,3,-353,,,
0,program_change,0,0,0,6,4,,,,
0,pitchwheel,0,0,0,,4,-560,,,
0,program_change,0,0,0,6,5,,,,
0,pitchwheel,0,0,0,,5,-80,,,
0,program_change,0,0,0,6,6,,,,
0,pitchwheel,0,0,0,,6,-625,,,
0,program_change,0,0,0,6,7,,,,
0,pitchwheel,0,0,0,,7,-130,,,
0,program_change,0,0,0,6,8,,,,
0,pitchwheel,0,0,0,,8,-512,,,
0,program_change,0,0,0,6,10,,,,
0,pitchwheel,0,0,0,,10,-464,,,
0,program_change,0,0,0,6,11,,,,
0,pitchwheel,0,0,0,,11,-208,,,
0,program_change,0,0,0,6,12,,,,
0,pitchwheel,0,0,0,,12,-553,,,
0,set_tempo,0,1,0,,,,500000,,
105,note_on,105,0,0,,5,,,65,127
209,note_off,104,0,0,,5,,,65,127
210,note_on,1,0,0,,0,,,72,127
314,note_off,104,0,0,,0,,,72,127
315,note_on,1,0,0,,10,,,69,127
419,note_off,104,0,0,,10,,,69,127
420,note_on,1,0,0,,5,,,65,127
524,note_off,104,0,0,,5,,,65,127
525,note_on,1,0,0,,2,,,74,127
629,note_off,104,0,0,,2,,,74,127
630,note_on,1,0,0,,5,,,77,127
734,note_off,104,0,0,,5,,,77,127
735,note_on,1,0,0,,2,,,74,127
839,note_off,104,0,0,,2,,,74,127
840,note_on,1,0,0,,11,,,70,127
944,note_off,104,0,0,,11,,,70,127
945,note_on,1,0,0,,4,,,76,127
1049,note_off,104,0,0,,4,,,76,127
1050,note_on,1,0,0,,7,,,79,127
1154,note_off,104,0,0,,7,,,79,127
1155,note_on,1,0,0,,4,,,76,127
1259,note_off,104,0,0,,4,,,76,127
1260,note_on,1,0,0,,0,,,72,127
1364,note_off,104,0,0,,0,,,72,127
1365,note_on,1,0,0,,0,,,84,127
1469,note_off,104,0,0,,0,,,84,127
1470,note_on,1,0,0,,7,,,79,127
1574,note_off,104,0,0,,7,,,79,127
1575,note_on,1,0,0,,0,,,72,127
1679,note_off,104,0,0,,0,,,72,127
1680,note_on,1,0,0,,11,,,82,127
1784,note_off,104,0,0,,11,,,82,127
1785,note_on,1,0,0,,5,,,53,127
1785,note_on,0,0,0,,10,,,81,127
1889,note_off,104,0,0,,5,,,53,127
1890,note_on,1,0,0,,0,,,60,127
1994,note_off,104,0,0,,0,,,60,127
1995,note_on,1,0,0,,10,,,57,127
2099,note_off,104,0,0,,10,,,57,127
2100,note_on,1,0,0,,5,,,53,127
2200,note_off,100,0,0,,10,,,81,127
2203,note_off,3,0,0,,5,,,53,127
2204,note_on,1,0,0,,2,,,62,127
2308,note_off,104,0,0,,2,,,62,127
2309,note_on,1,0,0,,5,,,65,127
2413,note_off,104,0,0,,5,,,65,127
2414,note_on,1,0,0,,2,,,62,127
2518,note_off,104,0,0,,2,,,62,127
2519,note_on,1,0,0,,11,,,58,127
2623,note_off,104,0,0,,11,,,58,127
2624,note_on,1,0,0,,4,,,64,127
2728,note_off,104,0,0,,4,,,64,127
2729,note_on,1,0,0,,7,,,67,127
2833,note_off,104,0,0,,7,,,67,127
2834,note_on,1,0,0,,4,,,64,127
2938,note_off,104,0,0,,4,,,64,127
2939,note_on,1,0,0,,0,,,60,127
3043,note_off,104,0,0,,0,,,60,127
3044,note_on,1,0,0,,0,,,72,127
3148,note_off,104,0,0,,0,,,72,127
3149,note_on,1,0,0,,7,,,67,127
3253,note_off,104,0,0,,7,,,67,127
3254,note_on,1,0,0,,0,,,60,127
3358,note_off,104,0,0,,0,,,60,127
3359,note_on,1,0,0,,11,,,70,127
3463,note_off,104,0,0,,11,,,70,127
3464,note_on,1,0,0,,10,,,69,127
3569,note_on,105,0,0,,5,,,77,127
3672,note_off,103,0,0,,10,,,69,127
3673,note_off,1,0,0,,5,,,77,127
3674,note_on,1,0,0,,10,,,81,127
3779,note_on,105,0,0,,5,,,65,127
3882,note_off,103,0,0,,10,,,81,127
3883,note_off,1,0,0,,5,,,65,127
3884,note_on,1,0,0,,10,,,69,127
3989,note_on,105,0,0,,10,,,81,127
4092,note_off,103,0,0,,10,,,69,127
4093,note_off,1,0,0,,10,,,81,127
4094,note_on,1,0,0,,0,,,84,127
4199,note_on,105,0,0,,10,,,69,127
4302,note_off,103,0,0,,0,,,84,127
4303,note_off,1,0,0,,10,,,69,127
4304,note_on,1,0,0,,0,,,60,127
4409,note_on,105,0,0,,0,,,72,127
4513,note_off,104,0,0,,0,,,72,127
4513,note_off,0,0,0,,0,,,60,127
4514,note_on,1,0,0,,11,,,70,127
4514,note_on,0,0,0,,4,,,76,127
4618,note_off,104,0,0,,4,,,76,127
4619,note_on,1,0,0,,7,,,79,127
4723,note_off,104,0,0,,7,,,79,127
4723,note_off,0,0,0,,11,,,70,127
4724,note_on,1,0,0,,10,,,69,127
4724,note_on,0,0,0,,5,,,77,127
4828,note_off,104,0,0,,5,,,77,127
4829,note_on,1,0,0,,10,,,81,127
4933,note_off,104,0,0,,10,,,81,127
4933,note_off,0,0,0,,10,,,69,127
4934,note_on,1,0,0,,7,,,67,127
4934,note_on,0,0,0,,7,,,79,127
5038,note_off,104,0,0,,7,,,79,127
5039,note_on,1,0,0,,11,,,82,127
5142,note_off,103,0,0,,7,,,67,127
5143,note_off,1,0,0,,11,,,82,127
5144,note_on,1,0,0,,10,,,81,127
5249,note_on,105,0,0,,0,,,60,127
5353,note_off,104,0,0,,0,,,60,127
5353,note_off,0,0,0,,10,,,81,127
5354,note_on,1,0,0,,4,,,64,127
5354,note_on,0,0,0,,7,,,79,127
5458,note_off,104,0,0,,4,,,64,127
5459,note_on,1,0,0,,7,,,67,127
5563,note_off,104,0,0,,7,,,67,127
5563,note_off,0,0,0,,7,,,79,127
5564,note_on,1,0,0,,5,,,65,127
5564,note_on,0,0,0,,5,,,77,127
5668,note_off,104,0,0,,5,,,65,127
5669,note_on,1,0,0,,10,,,69,127
5773,note_off,104,0,0,,10,,,69,127
5773,note_off,0,0,0,,5,,,77,127
5774,note_on,1,0,0,,7,,,67,127
5774,note_on,0,0,0,,4,,,76,127
5878,note_off,104,0,0,,7,,,67,127
5879,note_on,1,0,0,,11,,,70,127
5931,note_off,52,0,0,,4,,,76,127
5982,note_off,51,0,0,,11,,,70,127
5983,note_on,1,0,0,,10,,,69,127
6088,note_on,105,0,0,,0,,,84,127
6192,note_off,104,0,0,,0,,,84,127
6192,note_off,0,0,0,,10,,,69,127
6193,note_on,1,0,0,,5,,,65,127
6193,note_on,0,0,0,,10,,,81,127
6297,note_off,104,0,0,,10,,,81,127
6298,note_on,1,0,0,,5,,,77,127
6401,note_off,103,0,0,,5,,,65,127
6402,note_off,1,0,0,,5,,,77,127
6403,note_on,1,0,0,,2,,,74,127
6507,note_off,104,0,0,,2,,,74,127
6508,note_on,1,0,0,,11,,,82,127
6612,note_off,104,0,0,,11,,,82,127
6613,note_on,1,0,0,,11,,,70,127
6613,note_on,0,0,0,,7,,,79,127
6717,note_off,104,0,0,,7,,,79,127
6718,note_on,1,0,0,,4,,,76,127
6822,note_off,104,0,0,,4,,,76,127
6823,note_on,1,0,0,,0,,,72,127
6927,note_off,104,0,0,,0,,,72,127
6928,note_on,1,0,0,,10,,,81,127
7032,note_off,104,0,0,,10,,,81,127
7032,note_off,0,0,0,,11,,,70,127
7033,note_on,1,0,0,,10,,,69,127
7033,note_on,0,0,0,,5,,,77,127
7137,note_off,104,0,0,,5,,,77,127
7138,note_on,1,0,0,,2,,,74,127
7242,note_off,104,0,0,,2,,,74,127
7243,note_on,1,0,0,,11,,,70,127
7347,note_off,104,0,0,,11,,,70,127
7348,note_on,1,0,0,,7,,,79,127
7452,note_off,104,0,0,,7,,,79,127
7452,note_off,0,0,0,,10,,,69,127
7453,note_on,1,0,0,,7,,,67,127
7453,note_on,0,0,0,,4,,,76,127
7557,note_off,104,0,0,,4,,,76,127
7558,note_on,1,0,0,,0,,,72,127
7662,note_off,104,0,0,,0,,,72,127
7662,note_off,0,0,0,,7,,,67,127
7663,note_on,1,0,0,,5,,,65,127
7663,note_on,0,0,0,,10,,,69,127
7767,note_off,104,0,0,,5,,,65,127
7768,note_on,1,0,0,,0,,,72,127
7872,note_off,104,0,0,,0,,,72,127
7872,note_off,0,0,0,,10,,,69,127
7873,note_on,1,0,0,,10,,,69,127
7873,note_on,0,0,0,,0,,,84,127
7977,note_off,104,0,0,,10,,,69,127
7978,note_on,1,0,0,,5,,,65,127
8082,note_off,104,0,0,,5,,,65,127
8083,note_on,1,0,0,,2,,,62,127
8187,note_off,104,0,0,,2,,,62,127
8188,note_on,1,0,0,,11,,,70,127
8292,note_off,104,0,0,,11,,,70,127
8292,note_off,0,0,0,,0,,,84,127
8293,note_on,1,0,0,,7,,,67,127
8293,note_on,0,0,0,,11,,,82,127
8397,note_off,104,0,0,,7,,,67,127
8398,note_on,1,0,0,,4,,,64,127
8502,note_off,104,0,0,,4,,,64,127
8503,note_on,1,0,0,,0,,,60,127
8607,note_off,104,0,0,,0,,,60,127
8608,note_on,1,0,0,,10,,,69,127
8712,note_off,104,0,0,,10,,,69,127
8712,note_off,0,0,0,,11,,,82,127
8713,note_on,1,0,0,,5,,,65,127
8713,note_on,0,0,0,,10,,,81,127
8817,note_off,104,0,0,,5,,,65,127
8818,note_on,1,0,0,,2,,,62,127
8922,note_off,104,0,0,,2,,,62,127
8923,note_on,1,0,0,,11,,,58,127
9027,note_off,104,0,0,,11,,,58,127
9028,note_on,1,0,0,,7,,,67,127
9132,note_off,104,0,0,,7,,,67,127
9132,note_off,0,0,0,,10,,,81,127
9133,note_on,1,0,0,,4,,,64,127
9133,note_on,0,0,0,,7,,,79,127
9237,note_off,104,0,0,,4,,,64,127
9238,note_on,1,0,0,,0,,,60,127
9342,note_off,104,0,0,,0,,,60,127
9343,note_on,1,0,0,,10,,,57,127
9447,note_off,104,0,0,,7,,,79,127
9448,note_on,1,0,0,,4,,,76,127
9552,note_off,104,0,0,,4,,,76,127
9552,note_off,0,0,0,,10,,,57,127
9553,note_on,1,0,0,,10,,,69,127
9553,note_on,0,0,0,,5,,,77,127
9657,note_off,104,0,0,,5,,,77,127
9658,note_on,1,0,0,,7,,,79,127
9762,note_off,104,0,0,,7,,,79,127
9762,note_off,0,0,0,,10,,,69,127
9763,note_on,1,0,0,,7,,,67,127
9763,note_on,0,0,0,,4,,,76,127
9971,note_off,208,0,0,,4,,,76,127
9971,note_off,0,0,0,,7,,,67,127
9972,note_on,1,0,0,,5,,,65,127
9972,note_on,0,0,0,,7,,,79,127
10023,note_off,51,0,0,,7,,,79,127
10024,note_on,1,0,0,,5,,,77,127
10075,note_off,51,0,0,,5,,,77,127
10076,note_on,1,0,0,,4,,,76,127
10127,note_off,51,0,0,,4,,,76,127
10128,note_on,1,0,0,,5,,,77,127
10179,note_off,51,0,0,,5,,,77,127
10179,note_off,0,0,0,,5,,,65,127
10180,note_on,1,0,0,,0,,,60,127
10180,note_on,0,0,0,,7,,,79,127
10284,note_off,104,0,0,,0,,,60,127
10285,note_on,1,0,0,,2,,,62,127
10389,note_off,104,0,0,,2,,,62,127
10390,note_on,1,0,0,,4,,,64,127
10494,note_off,104,0,0,,4,,,64,127
10494,note_off,0,0,0,,7,,,79,127
10495,note_on,1,0,0,,0,,,60,127
10495,note_on,0,0,0,,7,,,67,127
10599,note_off,104,0,0,,7,,,67,127
10599,note_off,0,0,0,,0,,,60,127
10600,note_on,1,0,0,,5,,,65,127
10600,note_on,0,0,0,,10,,,69,127
10704,note_off,104,0,0,,5,,,65,127
10705,note_on,1,0,0,,0,,,60,127
10809,note_off,104,0,0,,0,,,60,127
10809,note_off,0,0,0,,10,,,69,127
10810,note_on,1,0,0,,7,,,67,127
10810,note_on,0,0,0,,11,,,70,127
10914,note_off,104,0,0,,7,,,67,127
10915,note_on,1,0,0,,0,,,60,127
11019,note_off,104,0,0,,0,,,60,127
11019,note_off,0,0,0,,11,,,70,127
11020,note_on,1,0,0,,10,,,69,127
11020,note_on,0,0,0,,0,,,72,127
11124,note_off,104,0,0,,10,,,69,127
11125,note_on,1,0,0,,0,,,60,127
11229,note_off,104,0,0,,0,,,60,127
11230,note_on,1,0,0,,10,,,69,127
11334,note_off,104,0,0,,10,,,69,127
11334,note_off,0,0,0,,0,,,72,127
11335,note_on,1,0,0,,0,,,60,127
11335,note_on,0,0,0,,10,,,81,127
11439,note_off,104,0,0,,10,,,81,127
11439,note_off,0,0,0,,0,,,60,127
11440,note_on,1,0,0,,7,,,67,127
11440,note_on,0,0,0,,11,,,70,127
11544,note_off,104,0,0,,7,,,67,127
11545,note_on,1,0,0,,0,,,60,127
11649,note_off,104,0,0,,0,,,60,127
11649,note_off,0,0,0,,11,,,70,127
11650,note_on,1,0,0,,5,,,65,127
11650,note_on,0,0,0,,10,,,69,127
11754,note_off,104,0,0,,5,,,65,127
11755,note_on,1,0,0,,0,,,60,127
11859,note_off,104,0,0,,0,,,60,127
11859,note_off,0,0,0,,10,,,69,127
11860,note_on,1,0,0,,4,,,64,127
11860,note_on,0,0,0,,10,,,69,127
11911,note_off,51,0,0,,10,,,69,127
11912,note_on,1,0,0,,7,,,67,127
11963,note_off,51,0,0,,7,,,67,127
11963,note_off,0,0,0,,4,,,64,127
11964,note_on,1,0,0,,0,,,60,127
11964,note_on,0,0,0,,10,,,69,127
12015,note_off,51,0,0,,10,,,69,127
12016,note_on,1,0,0,,7,,,67,127
12067,note_off,51,0,0,,0,,,60,127
12068,note_on,1,0,0,,4,,,64,127
12147,note_off,79,0,0,,7,,,67,127
12172,note_off,25,0,0,,4,,,64,127
12173,note_on,1,0,0,,0,,,60,127
12173,note_on,0,0,0,,7,,,67,127
12277,note_off,104,0,0,,7,,,67,127
12277,note_off,0,0,0,,0,,,60,127
12278,note_on,1,0,0,,5,,,65,127
12278,note_on,0,0,0,,10,,,69,127
12382,note_off,104,0,0,,5,,,65,127
12383,note_on,1,0,0,,0,,,60,127
12487,note_off,104,0,0,,0,,,60,127
12487,note_off,0,0,0,,10,,,69,127
12488,note_on,1,0,0,,7,,,67,127
12488,note_on,0,0,0,,11,,,70,127
12592,note_off,104,0,0,,7,,,67,127
12593,note_on,1,0,0,,0,,,60,127
12697,note_off,104,0,0,,0,,,60,127
12697,note_off,0,0,0,,11,,,70,127
12698,note_on,1,0,0,,10,,,69,127
12698,note_on,0,0,0,,0,,,72,127
12802,note_off,104,0,0,,10,,,69,127
12803,note_on,1,0,0,,0,,,60,127
12907,note_off,104,0,0,,0,,,60,127
12908,note_on,1,0,0,,10,,,69,127
13012,note_off,104,0,0,,10,,,69,127
13012,note_off,0,0,0,,0,,,72,127
13013,note_on,1,0,0,,0,,,60,127
13013,note_on,0,0,0,,10,,,81,127
13117,note_off,104,0,0,,10,,,81,127
13117,note_off,0,0,0,,0,,,60,127
13118,note_on,1,0,0,,7,,,67,127
13118,note_on,0,0,0,,11,,,70,127
13222,note_off,104,0,0,,7,,,67,127
13223,note_on,1,0,0,,0,,,60,127
13327,note_off,104,0,0,,0,,,60,127
13327,note_off,0,0,0,,11,,,70,127
13328,note_on,1,0,0,,5,,,65,127
13328,note_on,0,0,0,,10,,,69,127
13432,note_off,104,0,0,,5,,,65,127
13433,note_on,1,0,0,,0,,,60,127
13537,note_off,104,0,0,,0,,,60,127
13537,note_off,0,0,0,,10,,,69,127
13538,note_on,1,0,0,,12,,,59,127
13538,note_on,0,0,0,,7,,,67,127
13642,note_off,104,0,0,,12,,,59,127
13643,note_on,1,0,0,,5,,,65,127
13747,note_off,104,0,0,,5,,,65,127
13748,note_on,1,0,0,,12,,,59,127
13852,note_off,104,0,0,,12,,,59,127
13852,note_off,0,0,0,,7,,,67,127
13853,note_on,1,0,0,,5,,,65,127
13853,note_on,0,0,0,,10,,,69,127
13957,note_off,104,0,0,,10,,,69,127
13957,note_off,0,0,0,,5,,,65,127
13958,note_on,1,0,0,,0,,,60,127
13958,note_on,0,0,0,,7,,,67,127
14062,note_off,104,0,0,,0,,,60,127
14063,note_on,1,0,0,,4,,,64,127
14167,note_off,104,0,0,,4,,,64,127
14168,note_on,1,0,0,,0,,,60,127
14272,note_off,104,0,0,,0,,,60,127
14272,note_off,0,0,0,,7,,,67,127
14273,note_on,1,0,0,,4,,,64,127
14273,note_on,0,0,0,,10,,,69,127
14377,note_off,104,0,0,,10,,,69,127
14377,note_off,0,0,0,,4,,,64,127
14378,note_on,1,0,0,,12,,,59,127
14378,note_on,0,0,0,,7,,,67,127
14482,note_off,104,0,0,,12,,,59,127
14483,note_on,1,0,0,,5,,,65,127
14587,note_off,104,0,0,,5,,,65,127
14588,note_on,1,0,0,,12,,,59,127
14692,note_off,104,0,0,,12,,,59,127
14692,note_off,0,0,0,,7,,,67,127
14693,note_on,1,0,0,,5,,,65,127
14693,note_on,0,0,0,,10,,,69,127
14797,note_off,104,0,0,,10,,,69,127
14797,note_off,0,0,0,,5,,,65,127
14798,note_on,1,0,0,,0,,,60,127
14798,note_on,0,0,0,,7,,,67,127
14902,note_off,104,0,0,,0,,,60,127
14903,note_on,1,0,0,,4,,,64,127
15006,note_off,103,0,0,,7,,,67,127
15007,note_off,1,0,0,,4,,,64,127
15008,note_on,1,0,0,,0,,,60,127
15112,note_off,104,0,0,,0,,,60,127
15113,note_on,1,0,0,,4,,,64,127
15113,note_on,0,0,0,,7,,,67,127
15217,note_off,104,0,0,,7,,,67,127
15217,note_off,0,0,0,,4,,,64,127
15218,note_on,1,0,0,,5,,,65,127
15218,note_on,0,0,0,,10,,,69,127
15322,note_off,104,0,0,,10,,,69,127
15323,note_on,1,0,0,,12,,,71,127
15427,note_off,104,0,0,,12,,,71,127
15427,note_off,0,0,0,,5,,,65,127
15428,note_on,1,0,0,,2,,,62,127
15428,note_on,0,0,0,,12,,,71,127
15532,note_off,104,0,0,,12,,,71,127
15533,note_on,1,0,0,,0,,,72,127
15637,note_off,104,0,0,,0,,,72,127
15637,note_off,0,0,0,,2,,,62,127
15638,note_on,1,0,0,,4,,,64,127
15638,note_on,0,0,0,,0,,,72,127
15742,note_off,104,0,0,,0,,,72,127
15743,note_on,1,0,0,,2,,,74,127
15847,note_off,104,0,0,,2,,,74,127
15847,note_off,0,0,0,,4,,,64,127
15848,note_on,1,0,0,,12,,,59,127
15848,note_on,0,0,0,,2,,,74,127
15952,note_off,104,0,0,,2,,,74,127
15953,note_on,1,0,0,,4,,,76,127
16057,note_off,104,0,0,,4,,,76,127
16057,note_off,0,0,0,,12,,,59,127
16058,note_on,1,0,0,,0,,,60,127
16058,note_on,0,0,0,,4,,,76,127
16162,note_off,104,0,0,,4,,,76,127
16163,note_on,1,0,0,,7,,,79,127
16267,note_off,104,0,0,,7,,,79,127
16267,note_off,0,0,0,,0,,,60,127
16268,note_on,1,0,0,,4,,,52,127
16268,note_on,0,0,0,,5,,,77,127
16372,note_off,104,0,0,,5,,,77,127
16373,note_on,1,0,0,,4,,,76,127
16477,note_off,104,0,0,,4,,,76,127
16477,note_off,0,0,0,,4,,,52,127
16478,note_on,1,0,0,,5,,,53,127
16478,note_on,0,0,0,,2,,,74,127
16582,note_off,104,0,0,,2,,,74,127
16583,note_on,1,0,0,,0,,,72,127
16687,note_off,104,0,0,,0,,,72,127
16687,note_off,0,0,0,,5,,,53,127
16688,note_on,1,0,0,,10,,,57,127
16688,note_on,0,0,0,,12,,,71,127
16792,note_off,104,0,0,,12,,,71,127
16793,note_on,1,0,0,,0,,,72,127
16897,note_off,104,0,0,,0,,,72,127
16897,note_off,0,0,0,,10,,,57,127
16898,note_on,1,0,0,,7,,,55,127
16898,note_on,0,0,0,,2,,,74,127
17002,note_off,104,0,0,,2,,,74,127
17003,note_on,1,0,0,,7,,,67,127
17107,note_off,104,0,0,,7,,,67,127
17108,note_on,1,0,0,,7,,,79,127
17212,note_off,104,0,0,,7,,,79,127
17213,note_on,1,0,0,,7,,,67,127
17317,note_off,104,0,0,,7,,,67,127
17318,note_on,1,0,0,,5,,,77,127
17422,note_off,104,0,0,,5,,,77,127
17423,note_off,1,0,0,,7,,,55,127
17423,note_on,0,0,0,,7,,,67,127
17527,note_off,104,0,0,,7,,,67,127
17528,note_on,1,0,0,,5,,,65,127
17528,note_on,0,0,0,,7,,,55,127
17528,note_on,0,0,0,,12,,,71,127
17632,note_off,104,0,0,,12,,,71,127
17633,note_on,1,0,0,,7,,,67,127
17737,note_off,104,0,0,,7,,,67,127
17737,note_off,0,0,0,,7,,,55,127
17737,note_off,0,0,0,,5,,,65,127
17738,note_on,1,0,0,,4,,,64,127
17738,note_on,0,0,0,,7,,,55,127
17738,note_on,0,0,0,,0,,,72,127
17842,note_off,104,0,0,,0,,,72,127
17843,note_on,1,0,0,,7,,,67,127
17947,note_off,104,0,0,,7,,,67,127
17947,note_off,0,0,0,,7,,,55,127
17947,note_off,0,0,0,,4,,,64,127
17948,note_on,1,0,0,,7,,,55,127
17948,note_on,0,0,0,,0,,,60,127
17948,note_on,0,0,0,,7,,,79,127
18052,note_off,104,0,0,,7,,,79,127
18053,note_on,1,0,0,,7,,,67,127
18156,note_off,103,0,0,,0,,,60,127
18156,note_off,0,0,0,,7,,,55,127
18157,note_off,1,0,0,,7,,,67,127
18158,note_on,1,0,0,,5,,,77,127
18262,note_off,104,0,0,,5,,,77,127
18263,note_on,1,0,0,,7,,,67,127
18367,note_off,104,0,0,,7,,,67,127
18368,note_on,1,0,0,,5,,,65,127
18368,note_on,0,0,0,,7,,,55,127
18368,note_on,0,0,0,,12,,,71,127
18472,note_off,104,0,0,,12,,,71,127
18473,note_on,1,0,0,,7,,,67,127
18577,note_off,104,0,0,,7,,,67,127
18577,note_off,0,0,0,,7,,,55,127
18577,note_off,0,0,0,,5,,,65,127
18578,note_on,1,0,0,,4,,,64,127
18578,note_on,0,0,0,,7,,,55,127
18578,note_on,0,0,0,,0,,,72,127
18682,note_off,104,0,0,,0,,,72,127
18683,note_on,1,0,0,,7,,,67,127
18787,note_off,104,0,0,,7,,,67,127
18787,note_off,0,0,0,,7,,,55,127
18787,note_off,0,0,0,,4,,,64,127
18788,note_on,1,0,0,,7,,,55,127
18788,note_on,0,0,0,,0,,,60,127
18788,note_on,0,0,0,,7,,,79,127
18892,note_off,104,0,0,,7,,,79,127
18893,note_on,1,0,0,,7,,,67,127
18996,note_off,103,0,0,,0,,,60,127
18996,note_off,0,0,0,,7,,,55,127
18997,note_off,1,0,0,,7,,,67,127
18998,note_on,1,0,0,,5,,,77,127
19102,note_off,104,0,0,,5,,,77,127
19103,note_on,1,0,0,,7,,,67,127
19207,note_off,104,0,0,,7,,,67,127
19208,note_on,1,0,0,,7,,,55,127
19208,note_on,0,0,0,,5,,,65,127
19208,note_on,0,0,0,,12,,,71,127
19312,note_off,104,0,0,,12,,,71,127
19313,note_on,1,0,0,,7,,,67,127
19417,note_off,104,0,0,,7,,,67,127
19417,note_off,0,0,0,,5,,,65,127
19417,note_off,0,0,0,,7,,,55,127
19418,note_on,1,0,0,,4,,,64,127
19418,note_on,0,0,0,,0,,,72,127
19522,note_off,104,0,0,,0,,,72,127
19523,note_on,1,0,0,,7,,,67,127
19627,note_off,104,0,0,,7,,,67,127
19627,note_off,0,0,0,,4,,,64,127
19628,note_on,1,0,0,,0,,,60,127
19628,note_on,0,0,0,,7,,,79,127
19732,note_off,104,0,0,,7,,,79,127
19733,note_on,1,0,0,,7,,,67,127
19837,note_off,104,0,0,,7,,,67,127
19837,note_off,0,0,0,,0,,,60,127
19838,note_on,1,0,0,,5,,,65,127
19838,note_on,0,0,0,,10,,,81,127
19942,note_off,104,0,0,,10,,,81,127
19943,note_on,1,0,0,,10,,,69,127
20047,note_off,104,0,0,,10,,,69,127
20047,note_off,0,0,0,,5,,,65,127
20048,note_on,1,0,0,,2,,,62,127
20048,note_on,0,0,0,,12,,,83,127
20152,note_off,104,0,0,,12,,,83,127
20153,note_on,1,0,0,,12,,,71,127
20257,note_off,104,0,0,,12,,,71,127
20257,note_off,0,0,0,,2,,,62,127
20258,note_on,1,0,0,,4,,,64,127
20258,note_on,0,0,0,,0,,,84,127
20362,note_off,104,0,0,,0,,,84,127
20363,note_on,1,0,0,,0,,,72,127
20467,note_off,104,0,0,,0,,,72,127
20467,note_off,0,0,0,,4,,,64,127
20468,note_on,1,0,0,,5,,,65,127
20468,note_on,0,0,0,,5,,,77,127
20572,note_off,104,0,0,,5,,,77,127
20573,note_on,1,0,0,,10,,,81,127
20677,note_off,104,0,0,,10,,,81,127
20677,note_off,0,0,0,,5,,,65,127
20678,note_on,1,0,0,,7,,,67,127
20678,note_on,0,0,0,,7,,,79,127
20782,note_off,104,0,0,,7,,,79,127
20783,note_on,1,0,0,,5,,,77,127
20887,note_off,104,0,0,,5,,,77,127
20887,note_off,0,0,0,,7,,,67,127
20888,note_on,1,0,0,,7,,,55,127
20888,note_on,0,0,0,,4,,,76,127
20992,note_off,104,0,0,,4,,,76,127
20993,note_on,1,0,0,,2,,,74,127
21097,note_off,104,0,0,,2,,,74,127
21097,note_off,0,0,0,,7,,,55,127
21098,note_on,1,0,0,,0,,,60,127
21098,note_on,0,0,0,,0,,,72,127
21202,note_off,104,0,0,,0,,,60,127
21203,note_on,1,0,0,,7,,,55,127
21307,note_off,104,0,0,,7,,,55,127
21307,note_off,0,0,0,,0,,,72,127
21308,note_on,1,0,0,,7,,,67,127
21308,note_on,0,0,0,,0,,,72,127
21412,note_off,104,0,0,,7,,,67,127
21413,note_on,1,0,0,,7,,,55,127
21517,note_off,104,0,0,,7,,,55,127
21517,note_off,0,0,0,,0,,,72,127
21518,note_on,1,0,0,,5,,,65,127
21518,note_on,0,0,0,,2,,,74,127
21622,note_off,104,0,0,,5,,,65,127
21623,note_on,1,0,0,,7,,,55,127
21727,note_off,104,0,0,,7,,,55,127
21727,note_off,0,0,0,,2,,,74,127
21728,note_on,1,0,0,,12,,,59,127
21728,note_on,0,0,0,,5,,,77,127
21832,note_off,104,0,0,,12,,,59,127
21833,note_on,1,0,0,,7,,,55,127
21937,note_off,104,0,0,,7,,,55,127
21937,note_off,0,0,0,,5,,,77,127
21938,note_on,1,0,0,,0,,,60,127
21938,note_on,0,0,0,,4,,,76,127
22042,note_off,104,0,0,,0,,,60,127
22043,note_on,1,0,0,,7,,,55,127
22147,note_off,104,0,0,,7,,,55,127
22147,note_off,0,0,0,,4,,,76,127
22148,note_on,1,0,0,,7,,,67,127
22148,note_on,0,0,0,,0,,,72,127
22252,note_off,104,0,0,,7,,,67,127
22253,note_on,1,0,0,,7,,,55,127
22357,note_off,104,0,0,,7,,,55,127
22357,note_off,0,0,0,,0,,,72,127
22358,note_on,1,0,0,,5,,,65,127
22358,note_on,0,0,0,,2,,,74,127
22462,note_off,104,0,0,,5,,,65,127
22463,note_on,1,0,0,,7,,,55,127
22567,note_off,104,0,0,,7,,,55,127
22567,note_off,0,0,0,,2,,,74,127
22568,note_on,1,0,0,,12,,,59,127
22568,note_on,0,0,0,,5,,,77,127
22672,note_off,104,0,0,,12,,,59,127
22673,note_on,1,0,0,,7,,,55,127
22777,note_off,104,0,0,,7,,,55,127
22777,note_off,0,0,0,,5,,,77,127
22778,note_on,1,0,0,,0,,,60,127
22778,note_on,0,0,0,,4,,,76,127
22882,note_off,104,0,0,,0,,,60,127
22883,note_on,1,0,0,,7,,,55,127
22987,note_off,104,0,0,,7,,,55,127
22987,note_off,0,0,0,,4,,,76,127
22988,note_on,1,0,0,,7,,,67,127
22988,note_on,0,0,0,,0,,,72,127
23092,note_off,104,0,0,,7,,,67,127
23093,note_on,1,0,0,,7,,,55,127
23197,note_off,104,0,0,,7,,,55,127
23197,note_off,0,0,0,,0,,,72,127
23198,note_on,1,0,0,,5,,,65,127
23198,note_on,0,0,0,,2,,,74,127
23302,note_off,104,0,0,,5,,,65,127
23303,note_on,1,0,0,,7,,,55,127
23407,note_off,104,0,0,,7,,,55,127
23407,note_off,0,0,0,,2,,,74,127
23408,note_on,1,0,0,,12,,,59,127
23408,note_on,0,0,0,,5,,,77,127
23512,note_off,104,0,0,,12,,,59,127
23513,note_on,1,0,0,,7,,,55,127
23617,note_off,104,0,0,,7,,,55,127
23617,note_off,0,0,0,,5,,,77,127
23618,note_on,1,0,0,,0,,,60,127
23618,note_on,0,0,0,,4,,,76,127
23722,note_off,104,0,0,,0,,,60,127
23723,note_on,1,0,0,,4,,,64,127
23827,note_off,104,0,0,,4,,,64,127
23827,note_off,0,0,0,,4,,,76,127
23828,note_on,1,0,0,,10,,,57,127
23828,note_on,0,0,0,,0,,,72,127
23932,note_off,104,0,0,,10,,,57,127
23933,note_on,1,0,0,,0,,,60,127
24037,note_off,104,0,0,,0,,,60,127
24038,note_on,1,0,0,,5,,,53,127
24142,note_off,104,0,0,,5,,,53,127
24143,note_on,1,0,0,,10,,,57,127
24178,note_off,35,0,0,,0,,,72,127
24247,note_off,69,0,0,,10,,,57,127
24248,note_on,1,0,0,,2,,,50,127
24248,note_on,0,0,0,,10,,,81,127
24352,note_off,104,0,0,,2,,,50,127
24353,note_on,1,0,0,,5,,,53,127
24457,note_off,104,0,0,,5,,,53,127
24457,note_off,0,0,0,,10,,,81,127
24458,note_on,1,0,0,,7,,,31,127
24458,note_on,0,0,0,,12,,,83,127
24562,note_off,104,0,0,,12,,,83,127
24563,note_on,1,0,0,,7,,,79,127
24667,note_off,104,0,0,,7,,,79,127
24668,note_on,1,0,0,,0,,,84,127
24772,note_off,104,0,0,,0,,,84,127
24773,note_on,1,0,0,,4,,,76,127
24877,note_off,104,0,0,,4,,,76,127
24877,note_off,0,0,0,,7,,,31,127
24878,note_on,1,0,0,,7,,,31,127
24878,note_on,0,0,0,,2,,,74,127
24982,note_off,104,0,0,,2,,,74,127
24983,note_on,1,0,0,,2,,,86,127
25087,note_off,104,0,0,,2,,,86,127
25088,note_on,1,0,0,,12,,,83,127
25192,note_off,104,0,0,,12,,,83,127
25193,note_on,1,0,0,,5,,,77,127
25297,note_off,104,0,0,,5,,,77,127
25297,note_off,0,0,0,,7,,,31,127
25298,note_on,1,0,0,,4,,,64,127
25298,note_on,0,0,0,,0,,,84,127
25402,note_off,104,0,0,,4,,,64,127
25403,note_on,1,0,0,,7,,,67,127
25507,note_off,104,0,0,,7,,,67,127
25507,note_off,0,0,0,,0,,,84,127
25508,note_on,1,0,0,,0,,,60,127
25508,note_on,0,0,0,,0,,,72,127
25612,note_off,104,0,0,,0,,,60,127
25613,note_on,1,0,0,,4,,,64,127
25717,note_off,104,0,0,,4,,,64,127
25718,note_on,1,0,0,,10,,,57,127
25822,note_off,104,0,0,,10,,,57,127
25823,note_on,1,0,0,,0,,,60,127
25880,note_off,57,0,0,,0,,,72,127
25927,note_off,47,0,0,,0,,,60,127
25928,note_on,1,0,0,,5,,,53,127
25928,note_on,0,0,0,,10,,,81,127
26032,note_off,104,0,0,,5,,,53,127
26033,note_on,1,0,0,,10,,,57,127
26137,note_off,104,0,0,,10,,,57,127
26137,note_off,0,0,0,,10,,,81,127
26138,note_on,1,0,0,,7,,,31,127
26138,note_on,0,0,0,,12,,,83,127
26242,note_off,104,0,0,,12,,,83,127
26243,note_on,1,0,0,,7,,,79,127
26347,note_off,104,0,0,,7,,,79,127
26348,note_on,1,0,0,,0,,,84,127
26452,note_off,104,0,0,,0,,,84,127
26453,note_on,1,0,0,,4,,,76,127
26557,note_off,104,0,0,,4,,,76,127
26557,note_off,0,0,0,,7,,,31,127
26558,note_on,1,0,0,,7,,,31,127
26558,note_on,0,0,0,,2,,,74,127
26662,note_off,104,0,0,,2,,,74,127
26663,note_on,1,0,0,,2,,,86,127
26767,note_off,104,0,0,,2,,,86,127
26768,note_on,1,0,0,,12,,,83,127
26872,note_off,104,0,0,,12,,,83,127
26873,note_on,1,0,0,,5,,,77,127
26977,note_off,104,0,0,,5,,,77,127
26977,note_off,0,0,0,,7,,,31,127
26978,note_on,1,0,0,,0,,,36,127
26978,note_on,0,0,0,,0,,,84,127
27082,note_off,104,0,0,,0,,,84,127
27083,note_on,1,0,0,,0,,,72,127
27187,note_off,104,0,0,,0,,,72,127
27187,note_off,0,0,0,,0,,,36,127
27188,note_on,1,0,0,,4,,,40,127
27188,note_on,0,0,0,,4,,,52,127
27188,note_on,0,0,0,,7,,,79,127
27292,note_off,104,0,0,,7,,,79,127
27293,note_on,1,0,0,,7,,,67,127
27397,note_off,104,0,0,,7,,,67,127
27397,note_off,0,0,0,,4,,,52,127
27397,note_off,0,0,0,,4,,,40,127
27398,note_on,1,0,0,,5,,,41,127
27398,note_on,0,0,0,,5,,,53,127
27398,note_on,0,0,0,,10,,,81,127
27502,note_off,104,0,0,,10,,,81,127
27503,note_on,1,0,0,,10,,,69,127
27607,note_off,104,0,0,,10,,,69,127
27607,note_off,0,0,0,,5,,,53,127
27607,note_off,0,0,0,,5,,,41,127
27608,note_on,1,0,0,,2,,,50,127
27608,note_on,0,0,0,,2,,,38,127
27608,note_on,0,0,0,,12,,,83,127
27712,note_off,104,0,0,,12,,,83,127
27713,note_on,1,0,0,,12,,,71,127
27817,note_off,104,0,0,,12,,,71,127
27817,note_off,0,0,0,,2,,,38,127
27817,note_off,0,0,0,,2,,,50,127
27818,note_on,1,0,0,,0,,,36,127
27818,note_on,0,0,0,,0,,,48,127
27818,note_on,0,0,0,,0,,,84,127
27922,note_off,104,0,0,,0,,,84,127
27923,note_on,1,0,0,,0,,,72,127
28027,note_off,104,0,0,,0,,,72,127
28027,note_off,0,0,0,,0,,,48,127
28027,note_off,0,0,0,,0,,,36,127
28028,note_on,1,0,0,,4,,,40,127
28028,note_on,0,0,0,,4,,,52,127
28028,note_on,0,0,0,,7,,,79,127
28132,note_off,104,0,0,,7,,,79,127
28133,note_on,1,0,0,,7,,,67,127
28237,note_off,104,0,0,,7,,,67,127
28237,note_off,0,0,0,,4,,,52,127
28237,note_off,0,0,0,,4,,,40,127
28238,note_on,1,0,0,,5,,,53,127
28238,note_on,0,0,0,,5,,,41,127
28238,note_on,0,0,0,,10,,,81,127
28342,note_off,104,0,0,,10,,,81,127
28343,note_on,1,0,0,,10,,,69,127
28447,note_off,104,0,0,,10,,,69,127
28447,note_off,0,0,0,,5,,,41,127
28447,note_off,0,0,0,,5,,,53,127
28448,note_on,1,0,0,,2,,,50,127
28448,note_on,0,0,0,,2,,,38,127
28448,note_on,0,0,0,,12,,,83,127
28552,note_off,104,0,0,,12,,,83,127
28553,note_on,1,0,0,,12,,,71,127
28657,note_off,104,0,0,,12,,,71,127
28657,note_off,0,0,0,,2,,,38,127
28657,note_off,0,0,0,,2,,,50,127
28658,note_on,1,0,0,,0,,,48,127
28658,note_on,0,0,0,,0,,,36,127
28658,note_on,0,0,0,,0,,,84,127
28762,note_off,104,0,0,,0,,,84,127
28763,note_on,1,0,0,,0,,,72,127
28867,note_off,104,0,0,,0,,,72,127
28867,note_off,0,0,0,,0,,,36,127
28867,note_off,0,0,0,,0,,,48,127
28868,note_on,1,0,0,,4,,,40,127
28868,note_on,0,0,0,,4,,,52,127
28868,note_on,0,0,0,,7,,,79,127
28972,note_off,104,0,0,,7,,,79,127
28973,note_on,1,0,0,,7,,,67,127
29077,note_off,104,0,0,,7,,,67,127
29077,note_off,0,0,0,,4,,,52,127
29077,note_off,0,0,0,,4,,,40,127
29078,note_on,1,0,0,,5,,,53,127
29078,note_on,0,0,0,,5,,,41,127
29078,note_on,0,0,0,,10,,,81,127
29182,note_off,104,0,0,,10,,,81,127
29183,note_on,1,0,0,,10,,,69,127
29287,note_off,104,0,0,,10,,,69,127
29287,note_off,0,0,0,,5,,,41,127
29287,note_off,0,0,0,,5,,,53,127
29288,note_on,1,0,0,,2,,,50,127
29288,note_on,0,0,0,,2,,,38,127
29288,note_on,0,0,0,,12,,,83,127
29392,note_off,104,0,0,,12,,,83,127
29393,note_on,1,0,0,,12,,,71,127
29497,note_off,104,0,0,,12,,,71,127
29497,note_off,0,0,0,,2,,,38,127
29497,note_off,0,0,0,,2,,,50,127
29498,note_on,1,0,0,,4,,,52,127
29498,note_on,0,0,0,,4,,,40,127
29498,note_on,0,0,0,,0,,,84,127
29602,note_off,104,0,0,,0,,,84,127
29603,note_on,1,0,0,,7,,,79,127
29707,note_off,104,0,0,,7,,,79,127
29707,note_off,0,0,0,,4,,,40,127
29707,note_off,0,0,0,,4,,,52,127
29708,note_on,1,0,0,,5,,,53,127
29708,note_on,0,0,0,,5,,,41,127
29708,note_on,0,0,0,,10,,,81,127
29812,note_off,104,0,0,,10,,,81,127
29813,note_on,1,0,0,,5,,,77,127
29917,note_off,104,0,0,,5,,,77,127
29917,note_off,0,0,0,,5,,,41,127
29917,note_off,0,0,0,,5,,,53,127
29918,note_on,1,0,0,,7,,,43,127
29918,note_on,0,0,0,,7,,,55,127
29918,note_on,0,0,0,,4,,,76,127
30022,note_off,104,0,0,,4,,,76,127
30023,note_on,1,0,0,,2,,,74,127
30127,note_off,104,0,0,,2,,,74,127
30127,note_off,0,0,0,,7,,,55,127
30127,note_off,0,0,0,,7,,,43,127
30128,note_on,1,0,0,,7,,,43,127
30128,note_on,0,0,0,,0,,,72,127
30232,note_off,104,0,0,,0,,,72,127
30233,note_on,1,0,0,,12,,,71,127
30337,note_off,104,0,0,,12,,,71,127
30337,note_off,0,0,0,,7,,,43,127
30338,note_on,1,0,0,,0,,,48,127
30338,note_on,0,0,0,,0,,,72,127
30442,note_off,104,0,0,,0,,,72,127
30443,note_on,1,0,0,,7,,,67,127
30547,note_off,104,0,0,,7,,,67,127
30547,note_off,0,0,0,,0,,,48,127
30548,note_on,1,0,0,,5,,,41,127
30548,note_on,0,0,0,,10,,,69,127
30652,note_off,104,0,0,,10,,,69,127
30653,note_on,1,0,0,,5,,,65,127
30757,note_off,104,0,0,,5,,,65,127
30757,note_off,0,0,0,,5,,,41,127
30758,note_on,1,0,0,,7,,,43,127
30758,note_on,0,0,0,,4,,,64,127
30862,note_off,104,0,0,,4,,,64,127
30863,note_on,1,0,0,,2,,,62,127
30967,note_off,104,0,0,,2,,,62,127
30967,note_off,0,0,0,,7,,,43,127
30968,note_on,1,0,0,,7,,,31,127
30968,note_on,0,0,0,,0,,,60,127
31072,note_off,104,0,0,,0,,,60,127
31073,note_on,1,0,0,,12,,,59,127
31177,note_off,104,0,0,,12,,,59,127
31177,note_off,0,0,0,,7,,,31,127
31178,note_on,1,0,0,,0,,,36,127
31178,note_on,0,0,0,,0,,,60,127
31805,note_off,627,0,0,,0,,,60,127
32014,note_off,209,0,0,,0,,,36,127
32015,note_on,1,0,0,,0,,,60,127
32120,note_on,105,0,0,,0,,,72,127
32224,note_off,104,0,0,,0,,,72,127
32225,note_on,1,0,0,,2,,,74,127
32329,note_off,104,0,0,,2,,,74,127
32330,note_on,1,0,0,,0,,,72,127
32434,note_off,104,0,0,,0,,,72,127
32435,note_on,1,0,0,,3,,,75,127
32539,note_off,104,0,0,,3,,,75,127
32540,note_on,1,0,0,,0,,,72,127
32644,note_off,104,0,0,,0,,,72,127
32644,note_off,0,0,0,,0,,,60,127
32645,note_on,1,0,0,,11,,,58,127
32645,note_on,0,0,0,,2,,,74,127
32749,note_off,104,0,0,,2,,,74,127
32750,note_on,1,0,0,,0,,,72,127
32854,note_off,104,0,0,,0,,,72,127
32854,note_off,0,0,0,,11,,,58,127
32855,note_on,1,0,0,,0,,,60,127
32855,note_on,0,0,0,,8,,,56,127
32855,note_on,0,0,0,,3,,,75,127
32959,note_off,104,0,0,,3,,,75,127
32960,note_on,1,0,0,,0,,,72,127
33064,note_off,104,0,0,,0,,,72,127
33065,note_on,1,0,0,,2,,,74,127
33169,note_off,104,0,0,,2,,,74,127
33170,note_on,1,0,0,,0,,,72,127
33274,note_off,104,0,0,,0,,,72,127
33274,note_off,0,0,0,,8,,,56,127
33274,note_off,0,0,0,,0,,,60,127
33275,note_on,1,0,0,,7,,,55,127
33275,note_on,0,0,0,,0,,,60,127
33275,note_on,0,0,0,,3,,,75,127
33379,note_off,104,0,0,,3,,,75,127
33380,note_on,1,0,0,,0,,,72,127
33484,note_off,104,0,0,,0,,,72,127
33485,note_on,1,0,0,,3,,,75,127
33589,note_off,104,0,0,,3,,,75,127
33590,note_on,1,0,0,,0,,,72,127
33694,note_off,104,0,0,,0,,,72,127
33694,note_off,0,0,0,,0,,,60,127
33694,note_off,0,0,0,,7,,,55,127
33695,note_on,1,0,0,,5,,,53,127
33695,note_on,0,0,0,,2,,,62,127
33695,note_on,0,0,0,,0,,,60,127
33695,note_on,0,0,0,,2,,,74,127
33799,note_off,104,0,0,,2,,,74,127
33800,note_on,1,0,0,,0,,,72,127
33904,note_off,104,0,0,,0,,,72,127
33905,note_on,1,0,0,,2,,,74,127
34009,note_off,104,0,0,,2,,,74,127
34010,note_on,1,0,0,,0,,,72,127
34114,note_off,104,0,0,,0,,,72,127
34114,note_off,0,0,0,,0,,,60,127
34114,note_off,0,0,0,,2,,,62,127
34114,note_off,0,0,0,,5,,,53,127
34115,note_on,1,0,0,,0,,,60,127
34115,note_on,0,0,0,,5,,,53,127
34115,note_on,0,0,0,,2,,,62,127
34115,note_on,0,0,0,,5,,,77,127
34219,note_off,104,0,0,,5,,,77,127
34220,note_on,1,0,0,,0,,,72,127
34324,note_off,104,0,0,,0,,,72,127
34325,note_on,1,0,0,,2,,,74,127
34429,note_off,104,0,0,,2,,,74,127
34430,note_on,1,0,0,,0,,,72,127
34534,note_off,104,0,0,,0,,,72,127
34534,note_off,0,0,0,,2,,,62,127
34534,note_off,0,0,0,,5,,,53,127
34534,note_off,0,0,0,,0,,,60,127
34535,note_on,1,0,0,,7,,,55,127
34535,note_on,0,0,0,,0,,,60,127
34535,note_on,0,0,0,,2,,,62,127
34535,note_on,0,0,0,,3,,,75,127
34639,note_off,104,0,0,,3,,,75,127
34640,note_on,1,0,0,,0,,,72,127
34744,note_off,104,0,0,,0,,,72,127
34745,note_on,1,0,0,,2,,,74,127
34849,note_off,104,0,0,,2,,,74,127
34850,note_on,1,0,0,,0,,,72,127
34954,note_off,104,0,0,,0,,,72,127
34954,note_off,0,0,0,,2,,,62,127
34954,note_off,0,0,0,,0,,,60,127
34954,note_off,0,0,0,,7,,,55,127
34955,note_on,1,0,0,,12,,,59,127
34955,note_on,0,0,0,,7,,,55,127
34955,note_on,0,0,0,,2,,,62,127
34955,note_on,0,0,0,,2,,,74,127
35059,note_off,104,0,0,,2,,,74,127
35060,note_on,1,0,0,,12,,,71,127
35164,note_off,104,0,0,,12,,,71,127
35165,note_on,1,0,0,,2,,,74,127
35269,note_off,104,0,0,,2,,,74,127
35270,note_on,1,0,0,,12,,,71,127
35374,note_off,104,0,0,,12,,,71,127
35374,note_off,0,0,0,,2,,,62,127
35374,note_off,0,0,0,,7,,,55,127
35374,note_off,0,0,0,,12,,,59,127
35375,note_on,1,0,0,,0,,,60,127
35375,note_on,0,0,0,,3,,,75,127
35479,note_off,104,0,0,,3,,,75,127
35480,note_on,1,0,0,,0,,,72,127
35584,note_off,104,0,0,,0,,,72,127
35585,note_on,1,0,0,,2,,,74,127
35689,note_off,104,0,0,,2,,,74,127
35690,note_on,1,0,0,,0,,,72,127
35794,note_off,104,0,0,,0,,,72,127
35795,note_on,1,0,0,,3,,,75,127
35899,note_off,104,0,0,,3,,,75,127
35900,note_on,1,0,0,,0,,,72,127
36004,note_off,104,0,0,,0,,,72,127
36004,note_off,0,0,0,,0,,,60,127
36005,note_on,1,0,0,,11,,,58,127
36005,note_on,0,0,0,,2,,,74,127
36109,note_off,104,0,0,,2,,,74,127
36110,note_on,1,0,0,,0,,,72,127
36214,note_off,104,0,0,,0,,,72,127
36214,note_off,0,0,0,,11,,,58,127
36215,note_on,1,0,0,,0,,,60,127
36215,note_on,0,0,0,,8,,,56,127
36215,note_on,0,0,0,,3,,,75,127
36319,note_off,104,0,0,,3,,,75,127
36320,note_on,1,0,0,,0,,,72,127
36424,note_off,104,0,0,,0,,,72,127
36425,note_on,1,0,0,,1,,,73,127
36529,note_off,104,0,0,,1,,,73,127
36530,note_on,1,0,0,,0,,,72,127
36634,note_off,104,0,0,,0,,,72,127
36634,note_off,0,0,0,,8,,,56,127
36634,note_off,0,0,0,,0,,,60,127
36635,note_on,1,0,0,,0,,,48,127
36635,note_on,0,0,0,,8,,,56,127
36635,note_on,0,0,0,,3,,,75,127
36739,note_off,104,0,0,,3,,,75,127
36740,note_on,1,0,0,,0,,,72,127
36844,note_off,104,0,0,,0,,,72,127
36845,note_on,1,0,0,,1,,,73,127
36949,note_off,104,0,0,,1,,,73,127
36950,note_on,1,0,0,,0,,,72,127
37054,note_off,104,0,0,,0,,,72,127
37054,note_off,0,0,0,,8,,,56,127
37054,note_off,0,0,0,,0,,,48,127
37055,note_on,1,0,0,,1,,,49,127
37055,note_on,0,0,0,,1,,,61,127
37055,note_on,0,0,0,,8,,,56,127
37055,note_on,0,0,0,,5,,,77,127
37159,note_off,104,0,0,,5,,,77,127
37160,note_on,1,0,0,,0,,,72,127
37264,note_off,104,0,0,,0,,,72,127
37265,note_on,1,0,0,,1,,,73,127
37369,note_off,104,0,0,,1,,,73,127
37370,note_on,1,0,0,,0,,,72,127
37474,note_off,104,0,0,,0,,,72,127
37474,note_off,0,0,0,,8,,,56,127
37474,note_off,0,0,0,,1,,,61,127
37474,note_off,0,0,0,,1,,,49,127
37475,note_on,1,0,0,,1,,,49,127
37475,note_on,0,0,0,,8,,,56,127
37475,note_on,0,0,0,,1,,,61,127
37475,note_on,0,0,0,,5,,,77,127
37579,note_off,104,0,0,,5,,,77,127
37580,note_on,1,0,0,,0,,,72,127
37684,note_off,104,0,0,,0,,,72,127
37685,note_on,1,0,0,,1,,,73,127
37789,note_off,104,0,0,,1,,,73,127
37790,note_on,1,0,0,,0,,,72,127
37894,note_off,104,0,0,,0,,,72,127
37894,note_off,0,0,0,,1,,,61,127
37894,note_off,0,0,0,,8,,,56,127
37894,note_off,0,0,0,,1,,,49,127
37895,note_on,1,0,0,,3,,,51,127
37895,note_on,0,0,0,,0,,,60,127
37895,note_on,0,0,0,,8,,,56,127
37895,note_on,0,0,0,,3,,,75,127
37999,note_off,104,0,0,,3,,,75,127
38000,note_on,1,0,0,,0,,,72,127
38104,note_off,104,0,0,,0,,,72,127
38105,note_on,1,0,0,,1,,,73,127
38209,note_off,104,0,0,,1,,,73,127
38210,note_on,1,0,0,,0,,,72,127
38314,note_off,104,0,0,,0,,,72,127
38314,note_off,0,0,0,,8,,,56,127
38314,note_off,0,0,0,,0,,,60,127
38314,note_off,0,0,0,,3,,,51,127
38315,note_on,1,0,0,,3,,,51,127
38315,note_on,0,0,0,,1,,,61,127
38315,note_on,0,0,0,,11,,,58,127
38315,note_on,0,0,0,,1,,,73,127
38419,note_off,104,0,0,,1,,,73,127
38420,note_on,1,0,0,,11,,,70,127
38524,note_off,104,0,0,,11,,,70,127
38525,note_on,1,0,0,,1,,,73,127
38629,note_off,104,0,0,,1,,,73,127
38630,note_on,1,0,0,,11,,,70,127
38734,note_off,104,0,0,,11,,,70,127
38734,note_off,0,0,0,,11,,,58,127
38734,note_off,0,0,0,,1,,,61,127
38734,note_off,0,0,0,,3,,,51,127
38735,note_on,1,0,0,,0,,,60,127
38735,note_on,0,0,0,,8,,,56,127
38735,note_on,0,0,0,,0,,,72,127
38839,note_off,104,0,0,,0,,,72,127
38840,note_on,1,0,0,,0,,,72,127
38944,note_off,104,0,0,,0,,,72,127
38945,note_on,1,0,0,,1,,,73,127
39049,note_off,104,0,0,,1,,,73,127
39050,note_on,1,0,0,,0,,,72,127
39154,note_off,104,0,0,,0,,,72,127
39154,note_off,0,0,0,,8,,,56,127
39154,note_off,0,0,0,,0,,,60,127
39155,note_on,1,0,0,,8,,,56,127
39155,note_on,0,0,0,,0,,,60,127
39155,note_on,0,0,0,,3,,,75,127
39259,note_off,104,0,0,,3,,,75,127
39260,note_on,1,0,0,,0,,,72,127
39364,note_off,104,0,0,,0,,,72,127
39365,note_on,1,0,0,,2,,,74,127
39469,note_off,104,0,0,,2,,,74,127
39470,note_on,1,0,0,,0,,,72,127
39574,note_off,104,0,0,,0,,,72,127
39574,note_off,0,0,0,,0,,,60,127
39574,note_off,0,0,0,,8,,,56,127
39575,note_on,1,0,0,,3,,,63,127
39575,note_on,0,0,0,,0,,,60,127
39575,note_on,0,0,0,,7,,,55,127
39575,note_on,0,0,0,,3,,,75,127
39679,note_off,104,0,0,,3,,,75,127
39680,note_on,1,0,0,,0,,,72,127
39784,note_off,104,0,0,,0,,,72,127
39785,note_on,1,0,0,,2,,,74,127
39889,note_off,104,0,0,,2,,,74,127
39890,note_on,1,0,0,,0,,,72,127
39994,note_off,104,0,0,,0,,,72,127
39994,note_off,0,0,0,,7,,,55,127
39994,note_off,0,0,0,,0,,,60,127
39994,note_off,0,0,0,,3,,,63,127
39995,note_on,1,0,0,,7,,,55,127
39995,note_on,0,0,0,,3,,,63,127
39995,note_on,0,0,0,,0,,,60,127
39995,note_on,0,0,0,,3,,,75,127
40099,note_off,104,0,0,,3,,,75,127
40100,note_on,1,0,0,,0,,,72,127
40204,note_off,104,0,0,,0,,,72,127
40205,note_on,1,0,0,,2,,,74,127
40309,note_off,104,0,0,,2,,,74,127
40310,note_on,1,0,0,,0,,,72,127
40414,note_off,104,0,0,,0,,,72,127
40414,note_off,0,0,0,,0,,,60,127
40414,note_off,0,0,0,,3,,,63,127
40414,note_off,0,0,0,,7,,,55,127
40415,note_on,1,0,0,,6,,,54,127
40415,note_on,0,0,0,,0,,,60,127
40415,note_on,0,0,0,,2,,,62,127
40415,note_on,0,0,0,,10,,,81,127
40519,note_off,104,0,0,,10,,,81,127
40520,note_on,1,0,0,,0,,,72,127
40624,note_off,104,0,0,,0,,,72,127
40625,note_on,1,0,0,,2,,,74,127
40729,note_off,104,0,0,,2,,,74,127
40730,note_on,1,0,0,,0,,,72,127
40834,note_off,104,0,0,,0,,,72,127
40834,note_off,0,0,0,,2,,,62,127
40834,note_off,0,0,0,,0,,,60,127
40834,note_off,0,0,0,,6,,,54,127
40835,note_on,1,0,0,,6,,,54,127
40835,note_on,0,0,0,,0,,,60,127
40835,note_on,0,0,0,,2,,,62,127
40835,note_on,0,0,0,,10,,,81,127
40939,note_off,104,0,0,,10,,,81,127
40940,note_on,1,0,0,,0,,,72,127
41044,note_off,104,0,0,,0,,,72,127
41045,note_on,1,0,0,,2,,,74,127
41149,note_off,104,0,0,,2,,,74,127
41150,note_on,1,0,0,,0,,,72,127
41254,note_off,104,0,0,,0,,,72,127
41254,note_off,0,0,0,,2,,,62,127
41254,note_off,0,0,0,,0,,,60,127
41254,note_off,0,0,0,,6,,,54,127
41255,note_on,1,0,0,,2,,,62,127
41255,note_on,0,0,0,,7,,,55,127
41255,note_on,0,0,0,,10,,,81,127
41359,note_off,104,0,0,,10,,,81,127
41360,note_on,1,0,0,,11,,,70,127
41464,note_off,104,0,0,,11,,,70,127
41465,note_on,1,0,0,,6,,,78,127
41569,note_off,104,0,0,,6,,,78,127
41570,note_on,1,0,0,,11,,,70,127
41674,note_off,104,0,0,,11,,,70,127
41674,note_off,0,0,0,,7,,,55,127
41674,note_off,0,0,0,,2,,,62,127
41675,note_on,1,0,0,,2,,,62,127
41675,note_on,0,0,0,,7,,,55,127
41675,note_on,0,0,0,,7,,,79,127
41779,note_off,104,0,0,,7,,,79,127
41780,note_on,1,0,0,,11,,,70,127
41884,note_off,104,0,0,,11,,,70,127
41885,note_on,1,0,0,,2,,,74,127
41989,note_off,104,0,0,,2,,,74,127
41990,note_on,1,0,0,,11,,,70,127
42094,note_off,104,0,0,,11,,,70,127
42094,note_off,0,0,0,,7,,,55,127
42094,note_off,0,0,0,,2,,,62,127
42095,note_on,1,0,0,,0,,,48,127
42095,note_on,0,0,0,,0,,,60,127
42095,note_on,0,0,0,,3,,,75,127
42199,note_off,104,0,0,,3,,,75,127
42200,note_on,1,0,0,,10,,,69,127
42304,note_off,104,0,0,,10,,,69,127
42305,note_on,1,0,0,,0,,,72,127
42409,note_off,104,0,0,,0,,,72,127
42410,note_on,1,0,0,,10,,,69,127
42514,note_off,104,0,0,,10,,,69,127
42514,note_off,0,0,0,,0,,,60,127
42514,note_off,0,0,0,,0,,,48,127
42515,note_on,1,0,0,,0,,,48,127
42515,note_on,0,0,0,,0,,,60,127
42515,note_on,0,0,0,,3,,,75,127
42619,note_off,104,0,0,,3,,,75,127
42620,note_on,1,0,0,,10,,,69,127
42724,note_off,104,0,0,,10,,,69,127
42725,note_on,1,0,0,,0,,,72,127
42829,note_off,104,0,0,,0,,,72,127
42830,note_on,1,0,0,,10,,,69,127
42934,note_off,104,0,0,,10,,,69,127
42934,note_off,0,0,0,,0,,,60,127
42934,note_off,0,0,0,,0,,,48,127
42935,note_on,1,0,0,,2,,,50,127
42935,note_on,0,0,0,,2,,,62,127
42935,note_on,0,0,0,,2,,,74,127
43039,note_off,104,0,0,,2,,,74,127
43040,note_on,1,0,0,,7,,,67,127
43144,note_off,104,0,0,,7,,,67,127
43145,note_on,1,0,0,,11,,,70,127
43249,note_off,104,0,0,,11,,,70,127
43250,note_on,1,0,0,,7,,,67,127
43354,note_off,104,0,0,,7,,,67,127
43354,note_off,0,0,0,,2,,,62,127
43354,note_off,0,0,0,,2,,,50,127
43355,note_on,1,0,0,,2,,,62,127
43355,note_on,0,0,0,,2,,,50,127
43355,note_on,0,0,0,,0,,,72,127
43459,note_off,104,0,0,,0,,,72,127
43460,note_on,1,0,0,,7,,,67,127
43564,note_off,104,0,0,,7,,,67,127
43565,note_on,1,0,0,,10,,,69,127
43669,note_off,104,0,0,,10,,,69,127
43670,note_on,1,0,0,,6,,,66,127
43774,note_off,104,0,0,,6,,,66,127
43774,note_off,0,0,0,,2,,,50,127
43774,note_off,0,0,0,,2,,,62,127
43775,note_on,1,0,0,,7,,,55,127
43775,note_on,0,0,0,,7,,,67,127
43879,note_off,104,0,0,,7,,,67,127
43880,note_on,1,0,0,,7,,,67,127
43984,note_off,104,0,0,,7,,,67,127
43984,note_off,0,0,0,,7,,,55,127
43985,note_on,1,0,0,,5,,,65,127
43985,note_on,0,0,0,,12,,,71,127
44089,note_off,104,0,0,,12,,,71,127
44090,note_on,1,0,0,,7,,,67,127
44194,note_off,104,0,0,,7,,,67,127
44194,note_off,0,0,0,,5,,,65,127
44195,note_on,1,0,0,,3,,,63,127
44195,note_on,0,0,0,,0,,,72,127
44299,note_off,104,0,0,,0,,,72,127
44300,note_on,1,0,0,,7,,,67,127
44404,note_off,104,0,0,,7,,,67,127
44404,note_off,0,0,0,,3,,,63,127
44405,note_on,1,0,0,,2,,,62,127
44405,note_on,0,0,0,,2,,,74,127
44509,note_off,104,0,0,,2,,,74,127
44510,note_on,1,0,0,,7,,,67,127
44614,note_off,104,0,0,,7,,,67,127
44614,note_off,0,0,0,,2,,,62,127
44615,note_on,1,0,0,,0,,,60,127
44615,note_on,0,0,0,,3,,,75,127
44719,note_off,104,0,0,,3,,,75,127
44720,note_on,1,0,0,,0,,,72,127
44824,note_off,104,0,0,,0,,,72,127
44825,note_on,1,0,0,,2,,,74,127
44929,note_off,104,0,0,,2,,,74,127
44930,note_on,1,0,0,,0,,,72,127
45034,note_off,104,0,0,,0,,,72,127
45035,note_on,1,0,0,,3,,,75,127
45139,note_off,104,0,0,,3,,,75,127
45140,note_on,1,0,0,,0,,,72,127
45244,note_off,104,0,0,,0,,,72,127
45244,note_off,0,0,0,,0,,,60,127
45245,note_on,1,0,0,,11,,,58,127
45245,note_on,0,0,0,,2,,,74,127
45349,note_off,104,0,0,,2,,,74,127
45350,note_on,1,0,0,,0,,,72,127
45454,note_off,104,0,0,,0,,,72,127
45454,note_off,0,0,0,,11,,,58,127
45455,note_on,1,0,0,,10,,,57,127
45455,note_on,0,0,0,,0,,,60,127
45455,note_on,0,0,0,,3,,,75,127
45559,note_off,104,0,0,,3,,,75,127
45560,note_on,1,0,0,,0,,,72,127
45664,note_off,104,0,0,,0,,,72,127
45665,note_on,1,0,0,,3,,,75,127
45769,note_off,104,0,0,,3,,,75,127
45770,note_on,1,0,0,,0,,,72,127
45874,note_off,104,0,0,,0,,,72,127
45874,note_off,0,0,0,,0,,,60,127
45874,note_off,0,0,0,,10,,,57,127
45875,note_on,1,0,0,,7,,,55,127
45875,note_on,0,0,0,,3,,,63,127
45875,note_on,0,0,0,,11,,,58,127
45875,note_on,0,0,0,,3,,,75,127
45979,note_off,104,0,0,,3,,,75,127
45980,note_on,1,0,0,,2,,,74,127
46084,note_off,104,0,0,,2,,,74,127
46085,note_on,1,0,0,,3,,,75,127
46189,note_off,104,0,0,,3,,,75,127
46190,note_on,1,0,0,,2,,,74,127
46294,note_off,104,0,0,,2,,,74,127
46294,note_off,0,0,0,,11,,,58,127
46294,note_off,0,0,0,,3,,,63,127
46294,note_off,0,0,0,,7,,,55,127
46295,note_on,1,0,0,,3,,,63,127
46295,note_on,0,0,0,,5,,,53,127
46295,note_on,0,0,0,,10,,,81,127
46399,note_off,104,0,0,,10,,,81,127
46400,note_on,1,0,0,,0,,,72,127
46504,note_off,104,0,0,,0,,,72,127
46505,note_on,1,0,0,,3,,,75,127
46609,note_off,104,0,0,,3,,,75,127
46610,note_on,1,0,0,,0,,,72,127
46714,note_off,104,0,0,,0,,,72,127
46714,note_off,0,0,0,,5,,,53,127
46714,note_off,0,0,0,,3,,,63,127
46715,note_on,1,0,0,,3,,,63,127
46715,note_on,0,0,0,,3,,,51,127
46715,note_on,0,0,0,,10,,,81,127
46819,note_off,104,0,0,,10,,,81,127
46820,note_on,1,0,0,,0,,,72,127
46924,note_off,104,0,0,,0,,,72,127
46925,note_on,1,0,0,,3,,,75,127
47029,note_off,104,0,0,,3,,,75,127
47030,note_on,1,0,0,,0,,,72,127
47134,note_off,104,0,0,,3,,,51,127
47134,note_off,0,0,0,,3,,,63,127
47135,note_on,1,0,0,,2,,,62,127
47135,note_on,0,0,0,,2,,,50,127
47135,note_on,0,0,0,,11,,,82,127
47137,note_off,2,0,0,,0,,,72,127
47238,note_off,101,0,0,,11,,,82,127
47239,note_on,1,0,0,,2,,,74,127
47343,note_off,104,0,0,,2,,,74,127
47344,note_on,1,0,0,,5,,,77,127
47448,note_off,104,0,0,,5,,,77,127
47449,note_on,1,0,0,,2,,,74,127
47553,note_off,104,0,0,,2,,,74,127
47553,note_off,0,0,0,,2,,,50,127
47553,note_off,0,0,0,,2,,,62,127
47554,note_on,1,0,0,,2,,,62,127
47554,note_on,0,0,0,,2,,,50,127
47554,note_on,0,0,0,,5,,,77,127
47658,note_off,104,0,0,,5,,,77,127
47659,note_on,1,0,0,,11,,,70,127
47763,note_off,104,0,0,,11,,,70,127
47764,note_on,1,0,0,,2,,,74,127
47868,note_off,104,0,0,,2,,,74,127
47869,note_on,1,0,0,,11,,,70,127
47973,note_off,104,0,0,,11,,,70,127
47973,note_off,0,0,0,,2,,,50,127
47973,note_off,0,0,0,,2,,,62,127
47974,note_on,1,0,0,,3,,,51,127
47974,note_on,0,0,0,,3,,,63,127
47974,note_on,0,0,0,,3,,,75,127
48078,note_off,104,0,0,,3,,,75,127
48079,note_on,1,0,0,,11,,,70,127
48183,note_off,104,0,0,,11,,,70,127
48184,note_on,1,0,0,,0,,,72,127
48288,note_off,104,0,0,,0,,,72,127
48289,note_on,1,0,0,,11,,,70,127
48393,note_off,104,0,0,,11,,,70,127
48393,note_off,0,0,0,,3,,,63,127
48393,note_off,0,0,0,,3,,,51,127
48394,note_on,1,0,0,,3,,,51,127
48394,note_on,0,0,0,,3,,,63,127
48394,note_on,0,0,0,,7,,,79,127
48498,note_off,104,0,0,,7,,,79,127
48499,note_on,1,0,0,,11,,,70,127
48603,note_off,104,0,0,,11,,,70,127
48604,note_on,1,0,0,,7,,,79,127
48708,note_off,104,0,0,,7,,,79,127
48709,note_on,1,0,0,,11,,,70,127
48813,note_off,104,0,0,,11,,,70,127
48813,note_off,0,0,0,,3,,,63,127
48813,note_off,0,0,0,,3,,,51,127
48814,note_on,1,0,0,,2,,,62,127
48814,note_on,0,0,0,,11,,,58,127
48814,note_on,0,0,0,,5,,,53,127
48814,note_on,0,0,0,,5,,,77,127
48918,note_off,104,0,0,,5,,,77,127
48919,note_on,1,0,0,,11,,,70,127
49023,note_off,104,0,0,,11,,,70,127
49024,note_on,1,0,0,,2,,,74,127
49128,note_off,104,0,0,,2,,,74,127
49129,note_on,1,0,0,,11,,,70,127
49233,note_off,104,0,0,,11,,,70,127
49233,note_off,0,0,0,,5,,,53,127
49233,note_off,0,0,0,,11,,,58,127
49233,note_off,0,0,0,,2,,,62,127
49234,note_on,1,0,0,,0,,,60,127
49234,note_on,0,0,0,,5,,,53,127
49234,note_on,0,0,0,,3,,,75,127
49338,note_off,104,0,0,,3,,,75,127
49339,note_on,1,0,0,,11,,,70,127
49443,note_off,104,0,0,,11,,,70,127
49444,note_on,1,0,0,,0,,,72,127
49548,note_off,104,0,0,,0,,,72,127
49549,note_on,1,0,0,,10,,,69,127
49653,note_off,104,0,0,,10,,,69,127
49653,note_off,0,0,0,,5,,,53,127
49653,note_off,0,0,0,,0,,,60,127
49654,note_on,1,0,0,,11,,,58,127
49654,note_on,0,0,0,,11,,,70,127
49758,note_off,104,0,0,,11,,,70,127
49759,note_on,1,0,0,,5,,,65,127
49863,note_off,104,0,0,,5,,,65,127
49863,note_off,0,0,0,,11,,,58,127
49864,note_on,1,0,0,,2,,,62,127
49864,note_on,0,0,0,,5,,,77,127
49968,note_off,104,0,0,,5,,,77,127
49969,note_on,1,0,0,,5,,,65,127
50073,note_off,104,0,0,,5,,,65,127
50073,note_off,0,0,0,,2,,,62,127
50074,note_on,1,0,0,,0,,,60,127
50074,note_on,0,0,0,,3,,,75,127
50178,note_off,104,0,0,,3,,,75,127
50179,note_on,1,0,0,,5,,,65,127
50283,note_off,104,0,0,,5,,,65,127
50283,note_off,0,0,0,,0,,,60,127
50284,note_on,1,0,0,,5,,,53,127
50284,note_on,0,0,0,,10,,,69,127
50388,note_off,104,0,0,,10,,,69,127
50389,note_on,1,0,0,,5,,,65,127
50493,note_off,104,0,0,,5,,,65,127
50493,note_off,0,0,0,,5,,,53,127
50494,note_on,1,0,0,,11,,,58,127
50494,note_on,0,0,0,,2,,,74,127
50598,note_off,104,0,0,,2,,,74,127
50599,note_on,1,0,0,,5,,,65,127
50703,note_off,104,0,0,,5,,,65,127
50703,note_off,0,0,0,,11,,,58,127
50704,note_on,1,0,0,,2,,,62,127
50704,note_on,0,0,0,,5,,,77,127
50808,note_off,104,0,0,,5,,,77,127
50809,note_on,1,0,0,,5,,,65,127
50913,note_off,104,0,0,,5,,,65,127
50913,note_off,0,0,0,,2,,,62,127
50914,note_on,1,0,0,,0,,,60,127
50914,note_on,0,0,0,,3,,,75,127
51018,note_off,104,0,0,,3,,,75,127
51019,note_on,1,0,0,,5,,,65,127
51123,note_off,104,0,0,,5,,,65,127
51123,note_off,0,0,0,,0,,,60,127
51124,note_on,1,0,0,,5,,,53,127
51124,note_on,0,0,0,,10,,,69,127
51228,note_off,104,0,0,,10,,,69,127
51229,note_on,1,0,0,,5,,,65,127
51333,note_off,104,0,0,,5,,,65,127
51333,note_off,0,0,0,,5,,,53,127
51334,note_on,1,0,0,,11,,,58,127
51334,note_on,0,0,0,,2,,,74,127
51438,note_off,104,0,0,,2,,,74,127
51439,note_on,1,0,0,,7,,,67,127
51543,note_off,104,0,0,,7,,,67,127
51544,note_on,1,0,0,,7,,,79,127
51648,note_off,104,0,0,,7,,,79,127
51649,note_on,1,0,0,,7,,,67,127
51753,note_off,104,0,0,,7,,,67,127
51754,note_on,1,0,0,,5,,,77,127
51858,note_off,104,0,0,,5,,,77,127
51859,note_off,1,0,0,,11,,,58,127
51859,note_on,0,0,0,,7,,,67,127
51963,note_off,104,0,0,,7,,,67,127
51964,note_on,1,0,0,,12,,,59,127
51964,note_on,0,0,0,,2,,,74,127
52068,note_off,104,0,0,,2,,,74,127
52069,note_on,1,0,0,,7,,,67,127
52173,note_off,104,0,0,,7,,,67,127
52173,note_off,0,0,0,,12,,,59,127
52174,note_on,1,0,0,,0,,,60,127
52174,note_on,0,0,0,,4,,,76,127
52278,note_off,104,0,0,,4,,,76,127
52279,note_on,1,0,0,,10,,,69,127
52383,note_off,104,0,0,,10,,,69,127
52384,note_on,1,0,0,,10,,,81,127
52488,note_off,104,0,0,,10,,,81,127
52489,note_on,1,0,0,,10,,,69,127
52593,note_off,104,0,0,,10,,,69,127
52594,note_on,1,0,0,,7,,,79,127
52698,note_off,104,0,0,,7,,,79,127
52699,note_on,1,0,0,,10,,,69,127
52721,note_off,22,0,0,,0,,,60,127
52803,note_off,82,0,0,,10,,,69,127
52804,note_on,1,0,0,,1,,,61,127
52804,note_on,0,0,0,,4,,,76,127
52908,note_off,104,0,0,,4,,,76,127
52909,note_on,1,0,0,,10,,,69,127
53013,note_off,104,0,0,,10,,,69,127
53013,note_off,0,0,0,,1,,,61,127
53014,note_on,1,0,0,,2,,,62,127
53014,note_on,0,0,0,,5,,,77,127
53118,note_off,104,0,0,,5,,,77,127
53119,note_on,1,0,0,,11,,,70,127
53223,note_off,104,0,0,,11,,,70,127
53224,note_on,1,0,0,,11,,,82,127
53328,note_off,104,0,0,,11,,,82,127
53329,note_on,1,0,0,,11,,,70,127
53433,note_off,104,0,0,,11,,,70,127
53434,note_on,1,0,0,,10,,,81,127
53538,note_off,104,0,0,,10,,,81,127
53539,note_on,1,0,0,,11,,,70,127
53583,note_off,44,0,0,,2,,,62,127
53643,note_off,60,0,0,,11,,,70,127
53644,note_on,1,0,0,,2,,,62,127
53644,note_on,0,0,0,,5,,,77,127
53748,note_off,104,0,0,,5,,,77,127
53749,note_on,1,0,0,,11,,,70,127
53853,note_off,104,0,0,,11,,,70,127
53853,note_off,0,0,0,,2,,,62,127
53854,note_on,1,0,0,,4,,,64,127
53854,note_on,0,0,0,,7,,,79,127
53958,note_off,104,0,0,,7,,,79,127
53959,note_on,1,0,0,,0,,,72,127
54063,note_off,104,0,0,,0,,,72,127
54064,note_on,1,0,0,,0,,,84,127
54168,note_off,104,0,0,,0,,,84,127
54169,note_on,1,0,0,,0,,,72,127
54273,note_off,104,0,0,,0,,,72,127
54274,note_on,1,0,0,,11,,,82,127
54378,note_off,104,0,0,,11,,,82,127
54379,note_on,1,0,0,,0,,,72,127
54444,note_off,65,0,0,,4,,,64,127
54482,note_off,38,0,0,,0,,,72,127
54483,note_on,1,0,0,,4,,,64,127
54483,note_on,0,0,0,,7,,,79,127
54587,note_off,104,0,0,,7,,,79,127
54588,note_on,1,0,0,,0,,,72,127
54692,note_off,104,0,0,,0,,,72,127
54692,note_off,0,0,0,,4,,,64,127
54693,note_on,1,0,0,,5,,,65,127
54693,note_on,0,0,0,,10,,,81,127
54797,note_off,104,0,0,,10,,,81,127
54798,note_on,1,0,0,,7,,,79,127
54902,note_off,104,0,0,,7,,,79,127
54902,note_off,0,0,0,,5,,,65,127
54903,note_on,1,0,0,,10,,,57,127
54903,note_on,0,0,0,,5,,,77,127
55007,note_off,104,0,0,,5,,,77,127
55008,note_on,1,0,0,,4,,,76,127
55112,note_off,104,0,0,,4,,,76,127
55112,note_off,0,0,0,,10,,,57,127
55113,note_on,1,0,0,,11,,,58,127
55113,note_on,0,0,0,,2,,,74,127
55217,note_off,104,0,0,,2,,,74,127
55218,note_on,1,0,0,,0,,,72,127
55322,note_off,104,0,0,,0,,,72,127
55322,note_off,0,0,0,,11,,,58,127
55323,note_on,1,0,0,,11,,,46,127
55323,note_on,0,0,0,,11,,,70,127
55427,note_off,104,0,0,,11,,,70,127
55428,note_on,1,0,0,,10,,,69,127
55532,note_off,104,0,0,,10,,,69,127
55532,note_off,0,0,0,,11,,,46,127
55533,note_on,1,0,0,,0,,,48,127
55533,note_on,0,0,0,,7,,,67,127
55637,note_off,104,0,0,,7,,,67,127
55638,note_on,1,0,0,,0,,,60,127
55742,note_off,104,0,0,,0,,,60,127
55743,note_on,1,0,0,,0,,,72,127
55847,note_off,104,0,0,,0,,,72,127
55848,note_on,1,0,0,,0,,,60,127
55948,note_off,100,0,0,,0,,,48,127
55951,note_off,3,0,0,,0,,,60,127
55952,note_on,1,0,0,,11,,,70,127
56056,note_off,104,0,0,,11,,,70,127
56057,note_on,1,0,0,,0,,,60,127
56161,note_off,104,0,0,,0,,,60,127
56162,note_on,1,0,0,,0,,,48,127
56162,note_on,0,0,0,,11,,,58,127
56162,note_on,0,0,0,,4,,,64,127
56266,note_off,104,0,0,,4,,,64,127
56267,note_on,1,0,0,,0,,,60,127
56371,note_off,104,0,0,,0,,,60,127
56371,note_off,0,0,0,,11,,,58,127
56371,note_off,0,0,0,,0,,,48,127
56372,note_on,1,0,0,,10,,,57,127
56372,note_on,0,0,0,,0,,,48,127
56372,note_on,0,0,0,,5,,,65,127
56476,note_off,104,0,0,,5,,,65,127
56477,note_on,1,0,0,,0,,,60,127
56581,note_off,104,0,0,,0,,,60,127
56581,note_off,0,0,0,,0,,,48,127
56581,note_off,0,0,0,,10,,,57,127
56582,note_on,1,0,0,,5,,,53,127
56582,note_on,0,0,0,,0,,,48,127
56582,note_on,0,0,0,,0,,,72,127
56686,note_off,104,0,0,,0,,,72,127
56687,note_on,1,0,0,,0,,,60,127
56790,note_off,103,0,0,,0,,,48,127
56790,note_off,0,0,0,,5,,,53,127
56791,note_off,1,0,0,,0,,,60,127
56792,note_on,1,0,0,,11,,,70,127
56896,note_off,104,0,0,,11,,,70,127
56897,note_on,1,0,0,,0,,,60,127
57001,note_off,104,0,0,,0,,,60,127
57002,note_on,1,0,0,,11,,,58,127
57002,note_on,0,0,0,,0,,,48,127
57002,note_on,0,0,0,,4,,,64,127
57106,note_off,104,0,0,,4,,,64,127
57107,note_on,1,0,0,,0,,,60,127
57211,note_off,104,0,0,,0,,,60,127
57211,note_off,0,0,0,,0,,,48,127
57211,note_off,0,0,0,,11,,,58,127
57212,note_on,1,0,0,,0,,,48,127
57212,note_on,0,0,0,,10,,,57,127
57212,note_on,0,0,0,,5,,,65,127
57316,note_off,104,0,0,,5,,,65,127
57317,note_on,1,0,0,,0,,,60,127
57421,note_off,104,0,0,,0,,,60,127
57421,note_off,0,0,0,,10,,,57,127
57421,note_off,0,0,0,,0,,,48,127
57422,note_on,1,0,0,,5,,,53,127
57422,note_on,0,0,0,,0,,,48,127
57422,note_on,0,0,0,,0,,,72,127
57526,note_off,104,0,0,,0,,,72,127
57527,note_on,1,0,0,,0,,,60,127
57630,note_off,103,0,0,,0,,,48,127
57630,note_off,0,0,0,,5,,,53,127
57631,note_off,1,0,0,,0,,,60,127
57632,note_on,1,0,0,,11,,,70,127
57736,note_off,104,0,0,,11,,,70,127
57737,note_on,1,0,0,,0,,,60,127
57841,note_off,104,0,0,,0,,,60,127
57842,note_on,1,0,0,,0,,,48,127
57842,note_on,0,0,0,,11,,,58,127
57842,note_on,0,0,0,,4,,,64,127
57946,note_off,104,0,0,,4,,,64,127
57947,note_on,1,0,0,,0,,,60,127
58051,note_off,104,0,0,,0,,,60,127
58051,note_off,0,0,0,,11,,,58,127
58051,note_off,0,0,0,,0,,,48,127
58052,note_on,1,0,0,,10,,,57,127
58052,note_on,0,0,0,,5,,,65,127
58156,note_off,104,0,0,,5,,,65,127
58157,note_on,1,0,0,,0,,,60,127
58261,note_off,104,0,0,,0,,,60,127
58261,note_off,0,0,0,,10,,,57,127
58262,note_on,1,0,0,,5,,,53,127
58262,note_on,0,0,0,,0,,,72,127
58366,note_off,104,0,0,,0,,,72,127
58367,note_on,1,0,0,,0,,,60,127
58471,note_off,104,0,0,,0,,,60,127
58471,note_off,0,0,0,,5,,,53,127
58472,note_on,1,0,0,,11,,,58,127
58472,note_on,0,0,0,,2,,,74,127
58576,note_off,104,0,0,,2,,,74,127
58577,note_on,1,0,0,,2,,,62,127
58681,note_off,104,0,0,,2,,,62,127
58681,note_off,0,0,0,,11,,,58,127
58682,note_on,1,0,0,,7,,,55,127
58682,note_on,0,0,0,,4,,,76,127
58786,note_off,104,0,0,,4,,,76,127
58787,note_on,1,0,0,,4,,,64,127
58891,note_off,104,0,0,,4,,,64,127
58891,note_off,0,0,0,,7,,,55,127
58892,note_on,1,0,0,,10,,,57,127
58892,note_on,0,0,0,,5,,,77,127
58996,note_off,104,0,0,,5,,,77,127
58997,note_on,1,0,0,,5,,,65,127
59101,note_off,104,0,0,,5,,,65,127
59101,note_off,0,0,0,,10,,,57,127
59102,note_on,1,0,0,,11,,,58,127
59102,note_on,0,0,0,,11,,,70,127
59206,note_off,104,0,0,,11,,,70,127
59207,note_on,1,0,0,,2,,,74,127
59311,note_off,104,0,0,,2,,,74,127
59311,note_off,0,0,0,,11,,,58,127
59312,note_on,1,0,0,,0,,,60,127
59312,note_on,0,0,0,,0,,,72,127
59416,note_off,104,0,0,,0,,,72,127
59417,note_on,1,0,0,,11,,,70,127
59521,note_off,104,0,0,,11,,,70,127
59521,note_off,0,0,0,,0,,,60,127
59522,note_on,1,0,0,,0,,,48,127
59522,note_on,0,0,0,,10,,,69,127
59626,note_off,104,0,0,,10,,,69,127
59627,note_on,1,0,0,,7,,,67,127
59731,note_off,104,0,0,,7,,,67,127
59731,note_off,0,0,0,,0,,,48,127
59732,note_on,1,0,0,,5,,,53,127
59732,note_on,0,0,0,,5,,,65,127
59836,note_off,104,0,0,,5,,,53,127
59837,note_on,1,0,0,,0,,,48,127
59941,note_off,104,0,0,,0,,,48,127
59941,note_off,0,0,0,,5,,,65,127
59942,note_on,1,0,0,,0,,,60,127
59942,note_on,0,0,0,,5,,,65,127
60046,note_off,104,0,0,,0,,,60,127
60047,note_on,1,0,0,,0,,,48,127
60151,note_off,104,0,0,,0,,,48,127
60151,note_off,0,0,0,,5,,,65,127
60152,note_on,1,0,0,,11,,,58,127
60152,note_on,0,0,0,,7,,,67,127
60256,note_off,104,0,0,,11,,,58,127
60257,note_on,1,0,0,,0,,,48,127
60361,note_off,104,0,0,,0,,,48,127
60361,note_off,0,0,0,,7,,,67,127
60362,note_on,1,0,0,,4,,,52,127
60362,note_on,0,0,0,,11,,,70,127
60466,note_off,104,0,0,,4,,,52,127
60467,note_on,1,0,0,,0,,,48,127
60571,note_off,104,0,0,,0,,,48,127
60571,note_off,0,0,0,,11,,,70,127
60572,note_on,1,0,0,,5,,,53,127
60572,note_on,0,0,0,,10,,,69,127
60676,note_off,104,0,0,,5,,,53,127
60677,note_on,1,0,0,,0,,,48,127
60781,note_off,104,0,0,,0,,,48,127
60781,note_off,0,0,0,,10,,,69,127
60782,note_on,1,0,0,,0,,,60,127
60782,note_on,0,0,0,,5,,,65,127
60886,note_off,104,0,0,,0,,,60,127
60887,note_on,1,0,0,,0,,,48,127
60991,note_off,104,0,0,,0,,,48,127
60991,note_off,0,0,0,,5,,,65,127
60992,note_on,1,0,0,,11,,,58,127
60992,note_on,0,0,0,,7,,,67,127
61096,note_off,104,0,0,,11,,,58,127
61097,note_on,1,0,0,,0,,,48,127
61201,note_off,104,0,0,,0,,,48,127
61201,note_off,0,0,0,,7,,,67,127
61202,note_on,1,0,0,,4,,,52,127
61202,note_on,0,0,0,,11,,,70,127
61306,note_off,104,0,0,,4,,,52,127
61307,note_on,1,0,0,,0,,,48,127
61411,note_off,104,0,0,,0,,,48,127
61411,note_off,0,0,0,,11,,,70,127
61412,note_on,1,0,0,,5,,,53,127
61412,note_on,0,0,0,,10,,,69,127
61516,note_off,104,0,0,,5,,,53,127
61517,note_on,1,0,0,,0,,,48,127
61621,note_off,104,0,0,,0,,,48,127
61621,note_off,0,0,0,,10,,,69,127
61622,note_on,1,0,0,,0,,,60,127
61622,note_on,0,0,0,,5,,,65,127
61726,note_off,104,0,0,,0,,,60,127
61727,note_on,1,0,0,,0,,,48,127
61831,note_off,104,0,0,,0,,,48,127
61831,note_off,0,0,0,,5,,,65,127
61832,note_on,1,0,0,,11,,,58,127
61832,note_on,0,0,0,,7,,,67,127
61936,note_off,104,0,0,,11,,,58,127
61937,note_on,1,0,0,,0,,,48,127
62041,note_off,104,0,0,,0,,,48,127
62041,note_off,0,0,0,,7,,,67,127
62042,note_on,1,0,0,,4,,,52,127
62042,note_on,0,0,0,,11,,,70,127
62146,note_off,104,0,0,,4,,,52,127
62147,note_on,1,0,0,,0,,,48,127
62251,note_off,104,0,0,,0,,,48,127
62251,note_off,0,0,0,,11,,,70,127
62252,note_on,1,0,0,,5,,,53,127
62252,note_on,0,0,0,,10,,,69,127
62356,note_off,104,0,0,,5,,,53,127
62357,note_on,1,0,0,,10,,,57,127
62461,note_off,104,0,0,,10,,,57,127
62461,note_off,0,0,0,,10,,,69,127
62462,note_on,1,0,0,,2,,,50,127
62462,note_on,0,0,0,,5,,,65,127
62566,note_off,104,0,0,,2,,,50,127
62567,note_on,1,0,0,,5,,,53,127
62671,note_off,104,0,0,,5,,,53,127
62672,note_on,1,0,0,,11,,,46,127
62776,note_off,104,0,0,,11,,,46,127
62777,note_on,1,0,0,,2,,,50,127
62812,note_off,35,0,0,,5,,,65,127
62881,note_off,69,0,0,,2,,,50,127
62882,note_on,1,0,0,,7,,,43,127
62882,note_on,0,0,0,,2,,,74,127
62986,note_off,104,0,0,,7,,,43,127
62987,note_on,1,0,0,,11,,,46,127
63091,note_off,104,0,0,,11,,,46,127
63091,note_off,0,0,0,,2,,,74,127
63092,note_on,1,0,0,,0,,,36,127
63092,note_on,0,0,0,,4,,,76,127
63196,note_off,104,0,0,,4,,,76,127
63197,note_on,1,0,0,,0,,,72,127
63301,note_off,104,0,0,,0,,,72,127
63302,note_on,1,0,0,,5,,,77,127
63406,note_off,104,0,0,,5,,,77,127
63407,note_on,1,0,0,,10,,,69,127
63511,note_off,104,0,0,,10,,,69,127
63511,note_off,0,0,0,,0,,,36,127
63512,note_on,1,0,0,,0,,,36,127
63512,note_on,0,0,0,,7,,,67,127
63616,note_off,104,0,0,,7,,,67,127
63617,note_on,1,0,0,,7,,,79,127
63721,note_off,104,0,0,,7,,,79,127
63722,note_on,1,0,0,,4,,,76,127
63826,note_off,104,0,0,,4,,,76,127
63827,note_on,1,0,0,,11,,,70,127
63931,note_off,104,0,0,,11,,,70,127
63931,note_off,0,0,0,,0,,,36,127
63932,note_on,1,0,0,,10,,,57,127
63932,note_on,0,0,0,,5,,,77,127
64036,note_off,104,0,0,,10,,,57,127
64037,note_on,1,0,0,,0,,,60,127
64141,note_off,104,0,0,,0,,,60,127
64141,note_off,0,0,0,,5,,,77,127
64142,note_on,1,0,0,,5,,,53,127
64142,note_on,0,0,0,,5,,,65,127
64246,note_off,104,0,0,,5,,,53,127
64247,note_on,1,0,0,,10,,,57,127
64351,note_off,104,0,0,,10,,,57,127
64352,note_on,1,0,0,,2,,,50,127
64456,note_off,104,0,0,,2,,,50,127
64457,note_on,1,0,0,,5,,,53,127
64514,note_off,57,0,0,,5,,,65,127
64561,note_off,47,0,0,,5,,,53,127
64562,note_on,1,0,0,,11,,,46,127
64562,note_on,0,0,0,,2,,,74,127
64666,note_off,104,0,0,,11,,,46,127
64667,note_on,1,0,0,,2,,,50,127
64771,note_off,104,0,0,,2,,,50,127
64771,note_off,0,0,0,,2,,,74,127
64772,note_on,1,0,0,,0,,,36,127
64772,note_on,0,0,0,,4,,,76,127
64876,note_off,104,0,0,,4,,,76,127
64877,note_on,1,0,0,,0,,,72,127
64981,note_off,104,0,0,,0,,,72,127
64982,note_on,1,0,0,,5,,,77,127
65086,note_off,104,0,0,,5,,,77,127
65087,note_on,1,0,0,,10,,,69,127
65191,note_off,104,0,0,,10,,,69,127
65191,note_off,0,0,0,,0,,,36,127
65192,note_on,1,0,0,,0,,,36,127
65192,note_on,0,0,0,,7,,,67,127
65296,note_off,104,0,0,,7,,,67,127
65297,note_on,1,0,0,,7,,,79,127
65401,note_off,104,0,0,,7,,,79,127
65402,note_on,1,0,0,,4,,,76,127
65506,note_off,104,0,0,,4,,,76,127
65507,note_on,1,0,0,,11,,,70,127
65611,note_off,104,0,0,,11,,,70,127
65611,note_off,0,0,0,,0,,,36,127
65612,note_on,1,0,0,,5,,,41,127
65612,note_on,0,0,0,,5,,,77,127
65716,note_off,104,0,0,,5,,,77,127
65717,note_on,1,0,0,,5,,,65,127
65821,note_off,104,0,0,,5,,,65,127
65821,note_off,0,0,0,,5,,,41,127
65822,note_on,1,0,0,,10,,,57,127
65822,note_on,0,0,0,,0,,,84,127
65926,note_off,104,0,0,,0,,,84,127
65927,note_on,1,0,0,,0,,,72,127
66031,note_off,104,0,0,,0,,,72,127
66031,note_off,0,0,0,,10,,,57,127
66032,note_on,1,0,0,,7,,,55,127
66032,note_on,0,0,0,,11,,,82,127
66136,note_off,104,0,0,,11,,,82,127
66137,note_on,1,0,0,,11,,,70,127
66241,note_off,104,0,0,,11,,,70,127
66241,note_off,0,0,0,,7,,,55,127
66242,note_on,1,0,0,,0,,,48,127
66242,note_on,0,0,0,,7,,,79,127
66346,note_off,104,0,0,,7,,,79,127
66347,note_on,1,0,0,,7,,,67,127
66451,note_off,104,0,0,,7,,,67,127
66451,note_off,0,0,0,,0,,,48,127
66452,note_on,1,0,0,,5,,,41,127
66452,note_on,0,0,0,,10,,,81,127
66556,note_off,104,0,0,,10,,,81,127
66557,note_on,1,0,0,,10,,,69,127
66661,note_off,104,0,0,,10,,,69,127
66661,note_off,0,0,0,,5,,,41,127
66662,note_on,1,0,0,,10,,,57,127
66662,note_on,0,0,0,,0,,,84,127
66766,note_off,104,0,0,,0,,,84,127
66767,note_on,1,0,0,,0,,,72,127
66871,note_off,104,0,0,,0,,,72,127
66871,note_off,0,0,0,,10,,,57,127
66872,note_on,1,0,0,,7,,,55,127
66872,note_on,0,0,0,,11,,,82,127
66976,note_off,104,0,0,,11,,,82,127
66977,note_on,1,0,0,,11,,,70,127
67081,note_off,104,0,0,,11,,,70,127
67081,note_off,0,0,0,,7,,,55,127
67082,note_on,1,0,0,,0,,,48,127
67082,note_on,0,0,0,,7,,,79,127
67186,note_off,104,0,0,,7,,,79,127
67187,note_on,1,0,0,,7,,,67,127
67291,note_off,104,0,0,,7,,,67,127
67291,note_off,0,0,0,,0,,,48,127
67292,note_on,1,0,0,,5,,,41,127
67292,note_on,0,0,0,,10,,,81,127
67396,note_off,104,0,0,,10,,,81,127
67397,note_on,1,0,0,,10,,,69,127
67501,note_off,104,0,0,,10,,,69,127
67501,note_off,0,0,0,,5,,,41,127
67502,note_on,1,0,0,,10,,,57,127
67502,note_on,0,0,0,,0,,,84,127
67606,note_off,104,0,0,,0,,,84,127
67607,note_on,1,0,0,,0,,,72,127
67711,note_off,104,0,0,,0,,,72,127
67711,note_off,0,0,0,,10,,,57,127
67712,note_on,1,0,0,,11,,,58,127
67712,note_on,0,0,0,,2,,,86,127
67816,note_off,104,0,0,,2,,,86,127
67817,note_on,1,0,0,,2,,,74,127
67921,note_off,104,0,0,,2,,,74,127
67921,note_off,0,0,0,,11,,,58,127
67922,note_on,1,0,0,,7,,,55,127
67922,note_on,0,0,0,,4,,,88,127
68026,note_off,104,0,0,,4,,,88,127
68027,note_on,1,0,0,,4,,,76,127
68131,note_off,104,0,0,,4,,,76,127
68131,note_off,0,0,0,,7,,,55,127
68132,note_on,1,0,0,,10,,,57,127
68132,note_on,0,0,0,,5,,,89,127
68236,note_off,104,0,0,,5,,,89,127
68237,note_on,1,0,0,,0,,,84,127
68341,note_off,104,0,0,,0,,,84,127
68341,note_off,0,0,0,,10,,,57,127
68342,note_on,1,0,0,,11,,,58,127
68342,note_on,0,0,0,,2,,,86,127
68446,note_off,104,0,0,,2,,,86,127
68447,note_on,1,0,0,,11,,,82,127
68551,note_off,104,0,0,,11,,,82,127
68551,note_off,0,0,0,,11,,,58,127
68552,note_on,1,0,0,,0,,,60,127
68552,note_on,0,0,0,,10,,,81,127
68656,note_off,104,0,0,,10,,,81,127
68657,note_on,1,0,0,,7,,,79,127
68761,note_off,104,0,0,,7,,,79,127
68761,note_off,0,0,0,,0,,,60,127
68762,note_on,1,0,0,,0,,,48,127
68762,note_on,0,0,0,,5,,,77,127
68866,note_off,104,0,0,,5,,,77,127
68867,note_on,1,0,0,,4,,,76,127
68971,note_off,104,0,0,,4,,,76,127
68971,note_off,0,0,0,,0,,,48,127
68972,note_on,1,0,0,,10,,,57,127
68972,note_on,0,0,0,,5,,,77,127
69078,note_off,106,0,0,,5,,,77,127
69081,note_on,3,0,0,,0,,,72,127
69187,note_off,106,0,0,,0,,,72,127
69187,note_off,0,0,0,,10,,,57,127
69190,note_on,3,0,0,,11,,,58,127
69190,note_on,0,0,0,,2,,,74,127
69296,note_off,106,0,0,,2,,,74,127
69299,note_on,3,0,0,,11,,,70,127
69405,note_off,106,0,0,,11,,,70,127
69405,note_off,0,0,0,,11,,,58,127
69408,note_on,3,0,0,,0,,,60,127
69408,note_on,0,0,0,,10,,,69,127
69514,note_off,106,0,0,,10,,,69,127
69517,note_on,3,0,0,,7,,,67,127
69623,note_off,106,0,0,,7,,,67,127
69623,note_off,0,0,0,,0,,,60,127
69626,note_on,3,0,0,,0,,,48,127
69626,note_on,0,0,0,,5,,,65,127
69732,note_off,106,0,0,,5,,,65,127
69734,note_on,2,0,0,,4,,,64,127
69840,note_off,106,0,0,,4,,,64,127
69841,note_off,1,0,0,,0,,,48,127
69845,note_on,4,0,0,,5,,,65,127
69845,note_on,0,0,0,,2,,,50,127
69951,note_off,106,0,0,,5,,,65,127
69959,note_on,8,0,0,,0,,,60,127
70060,note_off,101,0,0,,2,,,50,127
70064,note_off,4,0,0,,0,,,60,127
70073,note_on,9,0,0,,2,,,62,127
70073,note_on,0,0,0,,11,,,46,127
70179,note_off,106,0,0,,2,,,62,127
70188,note_on,9,0,0,,11,,,58,127
70288,note_off,100,0,0,,11,,,46,127
70293,note_off,5,0,0,,11,,,58,127
70302,note_on,9,0,0,,10,,,57,127
70302,note_on,0,0,0,,0,,,48,127
70408,note_off,106,0,0,,10,,,57,127
70417,note_on,9,0,0,,7,,,55,127
70517,note_off,100,0,0,,0,,,48,127
70522,note_off,5,0,0,,7,,,55,127
70530,note_on,8,0,0,,5,,,53,127
70530,note_on,0,0,0,,0,,,36,127
70636,note_off,106,0,0,,5,,,53,127
70645,note_on,9,0,0,,4,,,52,127
70745,note_off,100,0,0,,0,,,36,127
70759,note_off,14,0,0,,4,,,52,127
70773,note_on,14,0,0,,5,,,53,127
70773,note_on,0,0,0,,5,,,41,127
72842,note_off,2069,0,0,,5,,,41,127
72842,note_off,0,0,0,,5,,,53,127
76800,end_of_track,3958,1,0,,,,,,
