tick,type,time,meta,track,program,channel,pitch,tempo,note,velocity
0,copyright,0,1,0,,,,,,
0,program_change,0,0,0,6,0,,,,
0,pitchwheel,0,0,0,,0,0,,,
0,program_change,0,0,0,6,1,,,,
0,pitchwheel,0,0,0,,1,-590,,,
0,program_change,0,0,0,6,2,,,,
0,pitchwheel,0,0,0,,2,-272,,,
0,program_change,0,0,0,6,3,,,,
0,pitchwheel,0,0,0,,3,-353,,,
0,program_change,0,0,0,6,4,,,,
0,pitchwheel,0,0,0,,4,-560,,,
0,program_change,0,0,0,6,5,,,,
0,pitchwheel,0,0,0,,5,-80,,,
0,program_change,0,0,0,6,6,,,,
0,pitchwheel,0,0,0,,6,-625,,,
0,program_change,0,0,0,6,7,,,,
0,pitchwheel,0,0,0,,7,-130,,,
0,program_change,0,0,0,6,8,,,,
0,pitchwheel,0,0,0,,8,-512,,,
0,program_change,0,0,0,6,10,,,,
0,pitchwheel,0,0,0,,10,-464,,,
0,program_change,0,0,0,6,11,,,,
0,pitchwheel,0,0,0,,11,-208,,,
0,program_change,0,0,0,6,12,,,,
0,pitchwheel,0,0,0,,12,-553,,,
0,set_tempo,0,1,0,,,,500000,,
262,note_on,262,0,0,,7,,,79,127
522,note_off,260,0,0,,7,,,79,127
523,note_on,1,0,0,,7,,,43,127
523,note_on,0,0,0,,7,,,55,127
523,note_on,0,0,0,,7,,,79,127
783,note_off,260,0,0,,7,,,79,127
784,note_on,1,0,0,,2,,,74,127
1044,note_off,260,0,0,,2,,,74,127
1044,note_off,0,0,0,,7,,,55,127
1044,note_off,0,0,0,,7,,,43,127
1045,note_on,1,0,0,,0,,,60,127
1045,note_on,0,0,0,,4,,,64,127
1045,note_on,0,0,0,,2,,,74,127
1305,note_off,260,0,0,,2,,,74,127
1306,note_on,1,0,0,,4,,,76,127
1566,note_off,260,0,0,,4,,,76,127
1566,note_off,0,0,0,,4,,,64,127
1566,note_off,0,0,0,,0,,,60,127
1567,note_on,1,0,0,,0,,,60,127
1567,note_on,0,0,0,,6,,,54,127
1567,note_on,0,0,0,,2,,,62,127
1567,note_on,0,0,0,,6,,,78,127
1567,note_on,0,0,0,,4,,,76,127
1827,note_off,260,0,0,,4,,,76,127
1827,note_off,0,0,0,,6,,,78,127
1828,note_on,1,0,0,,2,,,74,127
2088,note_off,260,0,0,,2,,,74,127
2088,note_off,0,0,0,,2,,,62,127
2088,note_off,0,0,0,,6,,,54,127
2088,note_off,0,0,0,,0,,,60,127
2089,note_on,1,0,0,,6,,,54,127
2089,note_on,0,0,0,,0,,,60,127
2089,note_on,0,0,0,,2,,,62,127
2089,note_on,0,0,0,,2,,,74,127
2089,note_on,0,0,0,,4,,,76,127
2349,note_off,260,0,0,,4,,,76,127
2349,note_off,0,0,0,,2,,,74,127
2350,note_on,1,0,0,,0,,,72,127
2610,note_off,260,0,0,,0,,,72,127
2610,note_off,0,0,0,,2,,,62,127
2610,note_off,0,0,0,,0,,,60,127
2610,note_off,0,0,0,,6,,,54,127
2611,note_on,1,0,0,,7,,,55,127
2611,note_on,0,0,0,,2,,,62,127
2611,note_on,0,0,0,,12,,,71,127
2611,note_on,0,0,0,,0,,,72,127
2871,note_off,260,0,0,,0,,,72,127
2871,note_off,0,0,0,,12,,,71,127
2872,note_on,1,0,0,,10,,,69,127
3132,note_off,260,0,0,,10,,,69,127
3132,note_off,0,0,0,,2,,,62,127
3132,note_off,0,0,0,,7,,,55,127
3133,note_on,1,0,0,,1,,,61,127
3133,note_on,0,0,0,,4,,,52,127
3133,note_on,0,0,0,,10,,,69,127
3263,note_off,130,0,0,,10,,,69,127
3264,note_on,1,0,0,,7,,,67,127
3394,note_off,130,0,0,,7,,,67,127
3395,note_on,1,0,0,,6,,,66,127
3525,note_off,130,0,0,,6,,,66,127
3526,note_on,1,0,0,,7,,,67,127
3656,note_off,130,0,0,,7,,,67,127
3656,note_off,0,0,0,,4,,,52,127
3656,note_off,0,0,0,,1,,,61,127
3657,note_on,1,0,0,,2,,,50,127
3657,note_on,0,0,0,,7,,,67,127
3917,note_off,260,0,0,,7,,,67,127
3917,note_off,0,0,0,,2,,,50,127
3918,note_on,1,0,0,,2,,,50,127
3918,note_on,0,0,0,,2,,,62,127
3918,note_on,0,0,0,,10,,,69,127
4178,note_off,260,0,0,,2,,,62,127
4178,note_off,0,0,0,,2,,,50,127
4179,note_on,1,0,0,,0,,,48,127
4179,note_on,0,0,0,,0,,,60,127
4439,note_off,260,0,0,,0,,,60,127
4439,note_off,0,0,0,,0,,,48,127
4439,note_off,0,0,0,,10,,,69,127
4440,note_on,1,0,0,,12,,,47,127
4440,note_on,0,0,0,,12,,,59,127
4440,note_on,0,0,0,,2,,,74,127
4700,note_off,260,0,0,,2,,,74,127
4700,note_off,0,0,0,,12,,,59,127
4700,note_off,0,0,0,,12,,,47,127
4701,note_on,1,0,0,,10,,,57,127
4701,note_on,0,0,0,,10,,,45,127
4701,note_on,0,0,0,,2,,,74,127
4961,note_off,260,0,0,,2,,,74,127
4961,note_off,0,0,0,,10,,,45,127
4961,note_off,0,0,0,,10,,,57,127
4962,note_on,1,0,0,,7,,,43,127
4962,note_on,0,0,0,,7,,,55,127
4962,note_on,0,0,0,,6,,,66,127
5222,note_off,260,0,0,,6,,,66,127
5222,note_off,0,0,0,,7,,,55,127
5222,note_off,0,0,0,,7,,,43,127
5223,note_on,1,0,0,,6,,,42,127
5223,note_on,0,0,0,,6,,,54,127
5223,note_on,0,0,0,,6,,,66,127
5483,note_off,260,0,0,,6,,,66,127
5483,note_off,0,0,0,,6,,,54,127
5483,note_off,0,0,0,,6,,,42,127
5484,note_on,1,0,0,,4,,,40,127
5484,note_on,0,0,0,,4,,,52,127
5484,note_on,0,0,0,,7,,,67,127
5744,note_off,260,0,0,,7,,,67,127
5744,note_off,0,0,0,,4,,,52,127
5744,note_off,0,0,0,,4,,,40,127
5745,note_on,1,0,0,,2,,,38,127
5745,note_on,0,0,0,,2,,,50,127
5745,note_on,0,0,0,,7,,,67,127
6005,note_off,260,0,0,,7,,,67,127
6005,note_off,0,0,0,,2,,,50,127
6005,note_off,0,0,0,,2,,,38,127
6006,note_on,1,0,0,,0,,,36,127
6006,note_on,0,0,0,,0,,,48,127
6006,note_on,0,0,0,,6,,,66,127
6006,note_on,0,0,0,,10,,,69,127
6266,note_off,260,0,0,,10,,,69,127
6266,note_off,0,0,0,,6,,,66,127
6266,note_off,0,0,0,,0,,,48,127
6266,note_off,0,0,0,,0,,,36,127
6267,note_on,1,0,0,,12,,,47,127
6267,note_on,0,0,0,,12,,,35,127
6267,note_on,0,0,0,,12,,,71,127
6267,note_on,0,0,0,,7,,,67,127
6527,note_off,260,0,0,,7,,,67,127
6527,note_off,0,0,0,,12,,,71,127
6527,note_off,0,0,0,,12,,,35,127
6527,note_off,0,0,0,,12,,,47,127
6528,note_on,1,0,0,,10,,,45,127
6528,note_on,0,0,0,,10,,,33,127
6528,note_on,0,0,0,,10,,,69,127
6528,note_on,0,0,0,,0,,,72,127
6788,note_off,260,0,0,,0,,,72,127
6788,note_off,0,0,0,,10,,,69,127
6788,note_off,0,0,0,,10,,,33,127
6788,note_off,0,0,0,,10,,,45,127
6789,note_on,1,0,0,,7,,,43,127
6789,note_on,0,0,0,,7,,,31,127
6789,note_on,0,0,0,,12,,,71,127
6789,note_on,0,0,0,,2,,,74,127
7049,note_off,260,0,0,,2,,,74,127
7049,note_off,0,0,0,,12,,,71,127
7049,note_off,0,0,0,,7,,,31,127
7049,note_off,0,0,0,,7,,,43,127
7050,note_on,1,0,0,,0,,,48,127
7050,note_on,0,0,0,,4,,,76,127
7180,note_off,130,0,0,,4,,,76,127
7181,note_on,1,0,0,,0,,,72,127
7311,note_off,130,0,0,,0,,,72,127
7311,note_off,0,0,0,,0,,,48,127
7312,note_on,1,0,0,,2,,,50,127
7312,note_on,0,0,0,,12,,,71,127
7312,note_on,0,0,0,,7,,,67,127
7572,note_off,260,0,0,,7,,,67,127
7572,note_off,0,0,0,,12,,,71,127
7573,note_on,1,0,0,,2,,,38,127
7573,note_on,0,0,0,,6,,,66,127
7573,note_on,0,0,0,,10,,,69,127
7704,note_off,131,0,0,,2,,,50,127
7834,note_off,130,0,0,,10,,,69,127
7834,note_off,0,0,0,,6,,,66,127
7834,note_off,0,0,0,,2,,,38,127
7835,note_on,1,0,0,,7,,,31,127
7835,note_on,0,0,0,,10,,,69,127
7877,note_off,42,0,0,,10,,,69,127
7878,note_on,1,0,0,,7,,,67,127
7920,note_off,42,0,0,,7,,,67,127
7921,note_on,1,0,0,,10,,,69,127
7963,note_off,42,0,0,,10,,,69,127
7964,note_on,1,0,0,,7,,,67,127
8488,note_off,524,0,0,,7,,,67,127
8619,note_on,131,0,0,,7,,,79,127
8879,note_off,260,0,0,,7,,,79,127
8879,note_off,0,0,0,,7,,,31,127
8880,note_on,1,0,0,,7,,,55,127
8880,note_on,0,0,0,,7,,,43,127
8880,note_on,0,0,0,,7,,,79,127
9140,note_off,260,0,0,,7,,,79,127
9141,note_on,1,0,0,,2,,,74,127
9401,note_off,260,0,0,,2,,,74,127
9401,note_off,0,0,0,,7,,,43,127
9401,note_off,0,0,0,,7,,,55,127
9402,note_on,1,0,0,,3,,,63,127
9402,note_on,0,0,0,,0,,,60,127
9402,note_on,0,0,0,,2,,,74,127
9662,note_off,260,0,0,,2,,,74,127
9663,note_on,1,0,0,,3,,,75,127
9923,note_off,260,0,0,,3,,,75,127
9923,note_off,0,0,0,,0,,,60,127
9923,note_off,0,0,0,,3,,,63,127
9924,note_on,1,0,0,,0,,,60,127
9924,note_on,0,0,0,,6,,,54,127
9924,note_on,0,0,0,,2,,,62,127
9924,note_on,0,0,0,,3,,,75,127
9924,note_on,0,0,0,,5,,,77,127
10184,note_off,260,0,0,,5,,,77,127
10184,note_off,0,0,0,,3,,,75,127
10185,note_on,1,0,0,,2,,,74,127
10445,note_off,260,0,0,,2,,,74,127
10445,note_off,0,0,0,,2,,,62,127
10445,note_off,0,0,0,,6,,,54,127
10445,note_off,0,0,0,,0,,,60,127
10446,note_on,1,0,0,,0,,,60,127
10446,note_on,0,0,0,,6,,,54,127
10446,note_on,0,0,0,,2,,,62,127
10446,note_on,0,0,0,,2,,,74,127
10446,note_on,0,0,0,,3,,,75,127
10706,note_off,260,0,0,,3,,,75,127
10706,note_off,0,0,0,,2,,,74,127
10707,note_on,1,0,0,,0,,,72,127
10967,note_off,260,0,0,,0,,,72,127
10967,note_off,0,0,0,,2,,,62,127
10967,note_off,0,0,0,,6,,,54,127
10967,note_off,0,0,0,,0,,,60,127
10968,note_on,1,0,0,,2,,,62,127
10968,note_on,0,0,0,,7,,,55,127
10968,note_on,0,0,0,,0,,,72,127
10968,note_on,0,0,0,,11,,,70,127
11228,note_off,260,0,0,,11,,,70,127
11228,note_off,0,0,0,,0,,,72,127
11229,note_on,1,0,0,,10,,,69,127
11489,note_off,260,0,0,,10,,,69,127
11489,note_off,0,0,0,,7,,,55,127
11489,note_off,0,0,0,,2,,,62,127
11490,note_on,1,0,0,,0,,,60,127
11490,note_on,0,0,0,,3,,,51,127
11490,note_on,0,0,0,,10,,,69,127
11620,note_off,130,0,0,,10,,,69,127
11621,note_on,1,0,0,,7,,,67,127
11751,note_off,130,0,0,,7,,,67,127
11752,note_on,1,0,0,,6,,,66,127
11882,note_off,130,0,0,,6,,,66,127
11883,note_on,1,0,0,,7,,,67,127
12013,note_off,130,0,0,,7,,,67,127
12013,note_off,0,0,0,,3,,,51,127
12013,note_off,0,0,0,,0,,,60,127
12014,note_on,1,0,0,,2,,,50,127
12014,note_on,0,0,0,,7,,,67,127
12274,note_off,260,0,0,,7,,,67,127
12274,note_off,0,0,0,,2,,,50,127
12275,note_on,1,0,0,,2,,,50,127
12275,note_on,0,0,0,,2,,,62,127
12275,note_on,0,0,0,,10,,,69,127
12535,note_off,260,0,0,,2,,,62,127
12535,note_off,0,0,0,,2,,,50,127
12536,note_on,1,0,0,,0,,,48,127
12536,note_on,0,0,0,,0,,,60,127
12796,note_off,260,0,0,,0,,,60,127
12796,note_off,0,0,0,,0,,,48,127
12796,note_off,0,0,0,,10,,,69,127
12797,note_on,1,0,0,,11,,,58,127
12797,note_on,0,0,0,,11,,,46,127
12797,note_on,0,0,0,,2,,,74,127
13057,note_off,260,0,0,,2,,,74,127
13057,note_off,0,0,0,,11,,,46,127
13057,note_off,0,0,0,,11,,,58,127
13058,note_on,1,0,0,,10,,,57,127
13058,note_on,0,0,0,,10,,,45,127
13058,note_on,0,0,0,,2,,,74,127
13318,note_off,260,0,0,,2,,,74,127
13318,note_off,0,0,0,,10,,,45,127
13318,note_off,0,0,0,,10,,,57,127
13319,note_on,1,0,0,,7,,,55,127
13319,note_on,0,0,0,,7,,,43,127
13319,note_on,0,0,0,,6,,,66,127
13579,note_off,260,0,0,,6,,,66,127
13579,note_off,0,0,0,,7,,,43,127
13579,note_off,0,0,0,,7,,,55,127
13580,note_on,1,0,0,,6,,,54,127
13580,note_on,0,0,0,,6,,,42,127
13580,note_on,0,0,0,,6,,,66,127
13840,note_off,260,0,0,,6,,,66,127
13840,note_off,0,0,0,,6,,,42,127
13840,note_off,0,0,0,,6,,,54,127
13841,note_on,1,0,0,,3,,,51,127
13841,note_on,0,0,0,,3,,,39,127
13841,note_on,0,0,0,,7,,,67,127
14101,note_off,260,0,0,,7,,,67,127
14101,note_off,0,0,0,,3,,,39,127
14101,note_off,0,0,0,,3,,,51,127
14102,note_on,1,0,0,,2,,,50,127
14102,note_on,0,0,0,,2,,,38,127
14102,note_on,0,0,0,,10,,,69,127
14362,note_off,260,0,0,,10,,,69,127
14362,note_off,0,0,0,,2,,,38,127
14362,note_off,0,0,0,,2,,,50,127
14363,note_on,1,0,0,,0,,,36,127
14363,note_on,0,0,0,,0,,,48,127
14363,note_on,0,0,0,,10,,,69,127
14623,note_off,260,0,0,,10,,,69,127
14623,note_off,0,0,0,,0,,,48,127
14623,note_off,0,0,0,,0,,,36,127
14624,note_on,1,0,0,,11,,,46,127
14624,note_on,0,0,0,,11,,,34,127
14624,note_on,0,0,0,,7,,,67,127
14624,note_on,0,0,0,,11,,,70,127
14884,note_off,260,0,0,,11,,,70,127
14884,note_off,0,0,0,,7,,,67,127
14884,note_off,0,0,0,,11,,,34,127
14884,note_off,0,0,0,,11,,,46,127
14885,note_on,1,0,0,,10,,,45,127
14885,note_on,0,0,0,,10,,,33,127
14885,note_on,0,0,0,,0,,,72,127
14885,note_on,0,0,0,,10,,,69,127
15145,note_off,260,0,0,,10,,,69,127
15145,note_off,0,0,0,,0,,,72,127
15145,note_off,0,0,0,,10,,,33,127
15145,note_off,0,0,0,,10,,,45,127
15146,note_on,1,0,0,,7,,,43,127
15146,note_on,0,0,0,,7,,,31,127
15146,note_on,0,0,0,,2,,,74,127
15146,note_on,0,0,0,,11,,,70,127
15406,note_off,260,0,0,,11,,,70,127
15406,note_off,0,0,0,,2,,,74,127
15406,note_off,0,0,0,,7,,,31,127
15406,note_off,0,0,0,,7,,,43,127
15407,note_on,1,0,0,,0,,,48,127
15407,note_on,0,0,0,,3,,,75,127
15537,note_off,130,0,0,,3,,,75,127
15538,note_on,1,0,0,,0,,,72,127
15668,note_off,130,0,0,,0,,,72,127
15668,note_off,0,0,0,,0,,,48,127
15669,note_on,1,0,0,,2,,,50,127
15669,note_on,0,0,0,,7,,,67,127
15669,note_on,0,0,0,,11,,,70,127
15929,note_off,260,0,0,,11,,,70,127
15929,note_off,0,0,0,,7,,,67,127
15930,note_on,1,0,0,,2,,,38,127
15930,note_on,0,0,0,,6,,,66,127
15930,note_on,0,0,0,,10,,,69,127
16190,note_off,260,0,0,,10,,,69,127
16190,note_off,0,0,0,,6,,,66,127
16190,note_off,0,0,0,,2,,,38,127
16190,note_off,0,0,0,,2,,,50,127
16191,note_on,1,0,0,,7,,,43,127
16191,note_on,0,0,0,,10,,,69,127
16233,note_off,42,0,0,,10,,,69,127
16234,note_on,1,0,0,,7,,,67,127
16276,note_off,42,0,0,,7,,,67,127
16277,note_on,1,0,0,,10,,,69,127
16319,note_off,42,0,0,,10,,,69,127
16320,note_on,1,0,0,,7,,,67,127
16844,note_off,524,0,0,,7,,,67,127
16975,note_on,131,0,0,,7,,,79,127
17235,note_off,260,0,0,,7,,,79,127
17235,note_off,0,0,0,,7,,,43,127
17236,note_on,1,0,0,,7,,,67,127
17236,note_on,0,0,0,,7,,,55,127
17236,note_on,0,0,0,,7,,,79,127
17496,note_off,260,0,0,,7,,,79,127
17497,note_on,1,0,0,,12,,,71,127
17757,note_off,260,0,0,,12,,,71,127
17757,note_off,0,0,0,,7,,,55,127
17757,note_off,0,0,0,,7,,,67,127
17758,note_on,1,0,0,,7,,,55,127
17758,note_on,0,0,0,,7,,,67,127
17758,note_on,0,0,0,,5,,,65,127
17758,note_on,0,0,0,,12,,,71,127
18018,note_off,260,0,0,,12,,,71,127
18019,note_on,1,0,0,,10,,,81,127
18279,note_off,260,0,0,,10,,,81,127
18279,note_off,0,0,0,,5,,,65,127
18279,note_off,0,0,0,,7,,,67,127
18279,note_off,0,0,0,,7,,,55,127
18280,note_on,1,0,0,,4,,,64,127
18280,note_on,0,0,0,,7,,,55,127
18280,note_on,0,0,0,,0,,,72,127
18280,note_on,0,0,0,,10,,,81,127
18540,note_off,260,0,0,,10,,,81,127
18541,note_on,1,0,0,,7,,,79,127
18801,note_off,260,0,0,,7,,,79,127
18801,note_off,0,0,0,,0,,,72,127
18801,note_off,0,0,0,,7,,,55,127
18801,note_off,0,0,0,,4,,,64,127
18802,note_on,1,0,0,,7,,,55,127
18802,note_on,0,0,0,,2,,,62,127
18802,note_on,0,0,0,,2,,,74,127
18802,note_on,0,0,0,,7,,,79,127
19062,note_off,260,0,0,,7,,,79,127
19063,note_on,1,0,0,,5,,,77,127
19323,note_off,260,0,0,,5,,,77,127
19323,note_off,0,0,0,,2,,,74,127
19323,note_off,0,0,0,,2,,,62,127
19323,note_off,0,0,0,,7,,,55,127
19324,note_on,1,0,0,,7,,,55,127
19324,note_on,0,0,0,,0,,,60,127
19324,note_on,0,0,0,,7,,,67,127
19324,note_on,0,0,0,,5,,,77,127
19366,note_off,42,0,0,,5,,,77,127
19367,note_on,1,0,0,,4,,,76,127
19409,note_off,42,0,0,,4,,,76,127
19410,note_on,1,0,0,,5,,,77,127
19452,note_off,42,0,0,,5,,,77,127
19453,note_on,1,0,0,,4,,,76,127
19583,note_off,130,0,0,,4,,,76,127
19583,note_off,0,0,0,,0,,,60,127
19584,note_on,1,0,0,,12,,,59,127
19584,note_on,0,0,0,,2,,,74,127
19844,note_off,260,0,0,,2,,,74,127
19844,note_off,0,0,0,,12,,,59,127
19844,note_off,0,0,0,,7,,,67,127
19844,note_off,0,0,0,,7,,,55,127
19845,note_on,1,0,0,,7,,,55,127
19845,note_on,0,0,0,,0,,,60,127
19845,note_on,0,0,0,,7,,,67,127
19845,note_on,0,0,0,,5,,,77,127
19975,note_off,130,0,0,,5,,,77,127
19976,note_on,1,0,0,,4,,,76,127
20106,note_off,130,0,0,,4,,,76,127
20107,note_on,1,0,0,,2,,,74,127
20237,note_off,130,0,0,,2,,,74,127
20238,note_on,1,0,0,,4,,,76,127
20368,note_off,130,0,0,,4,,,76,127
20368,note_off,0,0,0,,7,,,67,127
20368,note_off,0,0,0,,0,,,60,127
20369,note_on,1,0,0,,7,,,43,127
20369,note_on,0,0,0,,4,,,76,127
20629,note_off,260,0,0,,4,,,76,127
20630,note_on,1,0,0,,2,,,74,127
20890,note_off,260,0,0,,7,,,55,127
21022,note_off,132,0,0,,2,,,74,127
21153,note_on,131,0,0,,7,,,79,127
21413,note_off,260,0,0,,7,,,79,127
21413,note_off,0,0,0,,7,,,43,127
21414,note_on,1,0,0,,7,,,67,127
21414,note_on,0,0,0,,7,,,55,127
21414,note_on,0,0,0,,7,,,79,127
21674,note_off,260,0,0,,7,,,79,127
21675,note_on,1,0,0,,12,,,71,127
21935,note_off,260,0,0,,12,,,71,127
21935,note_off,0,0,0,,7,,,55,127
21935,note_off,0,0,0,,7,,,67,127
21936,note_on,1,0,0,,7,,,55,127
21936,note_on,0,0,0,,7,,,67,127
21936,note_on,0,0,0,,5,,,65,127
21936,note_on,0,0,0,,12,,,71,127
22196,note_off,260,0,0,,12,,,71,127
22197,note_on,1,0,0,,8,,,80,127
22457,note_off,260,0,0,,8,,,80,127
22457,note_off,0,0,0,,5,,,65,127
22457,note_off,0,0,0,,7,,,67,127
22457,note_off,0,0,0,,7,,,55,127
22458,note_on,1,0,0,,3,,,63,127
22458,note_on,0,0,0,,7,,,55,127
22458,note_on,0,0,0,,8,,,80,127
22458,note_on,0,0,0,,0,,,72,127
22718,note_off,260,0,0,,8,,,80,127
22719,note_on,1,0,0,,7,,,79,127
22979,note_off,260,0,0,,7,,,79,127
22979,note_off,0,0,0,,0,,,72,127
22979,note_off,0,0,0,,7,,,55,127
22979,note_off,0,0,0,,3,,,63,127
22980,note_on,1,0,0,,7,,,55,127
22980,note_on,0,0,0,,2,,,62,127
22980,note_on,0,0,0,,2,,,74,127
22980,note_on,0,0,0,,7,,,79,127
23240,note_off,260,0,0,,7,,,79,127
23241,note_on,1,0,0,,5,,,77,127
23501,note_off,260,0,0,,5,,,77,127
23501,note_off,0,0,0,,2,,,74,127
23501,note_off,0,0,0,,2,,,62,127
23501,note_off,0,0,0,,7,,,55,127
23502,note_on,1,0,0,,7,,,55,127
23502,note_on,0,0,0,,0,,,60,127
23502,note_on,0,0,0,,7,,,67,127
23502,note_on,0,0,0,,5,,,77,127
23544,note_off,42,0,0,,5,,,77,127
23545,note_on,1,0,0,,3,,,75,127
23587,note_off,42,0,0,,3,,,75,127
23588,note_on,1,0,0,,5,,,77,127
23630,note_off,42,0,0,,5,,,77,127
23631,note_on,1,0,0,,3,,,75,127
23761,note_off,130,0,0,,3,,,75,127
23761,note_off,0,0,0,,0,,,60,127
23762,note_on,1,0,0,,12,,,59,127
23762,note_on,0,0,0,,2,,,74,127
24022,note_off,260,0,0,,2,,,74,127
24022,note_off,0,0,0,,12,,,59,127
24022,note_off,0,0,0,,7,,,67,127
24022,note_off,0,0,0,,7,,,55,127
24023,note_on,1,0,0,,7,,,55,127
24023,note_on,0,0,0,,0,,,60,127
24023,note_on,0,0,0,,5,,,77,127
24023,note_on,0,0,0,,0,,,72,127
24153,note_off,130,0,0,,5,,,77,127
24154,note_on,1,0,0,,3,,,75,127
24284,note_off,130,0,0,,3,,,75,127
24285,note_on,1,0,0,,2,,,74,127
24415,note_off,130,0,0,,2,,,74,127
24416,note_on,1,0,0,,3,,,75,127
24546,note_off,130,0,0,,3,,,75,127
24546,note_off,0,0,0,,0,,,72,127
24546,note_off,0,0,0,,0,,,60,127
24546,note_off,0,0,0,,7,,,55,127
24547,note_on,1,0,0,,6,,,54,127
24547,note_on,0,0,0,,0,,,60,127
24547,note_on,0,0,0,,2,,,62,127
24547,note_on,0,0,0,,2,,,74,127
24547,note_on,0,0,0,,0,,,72,127
24807,note_off,260,0,0,,0,,,72,127
24808,note_on,1,0,0,,11,,,70,127
24938,note_off,130,0,0,,11,,,70,127
24939,note_on,1,0,0,,10,,,69,127
25069,note_off,130,0,0,,10,,,69,127
25069,note_off,0,0,0,,2,,,62,127
25069,note_off,0,0,0,,0,,,60,127
25069,note_off,0,0,0,,6,,,54,127
25070,note_on,1,0,0,,7,,,55,127
25070,note_on,0,0,0,,2,,,62,127
25070,note_on,0,0,0,,0,,,72,127
25112,note_off,42,0,0,,0,,,72,127
25113,note_on,1,0,0,,11,,,70,127
25155,note_off,42,0,0,,11,,,70,127
25156,note_on,1,0,0,,0,,,72,127
25198,note_off,42,0,0,,0,,,72,127
25199,note_on,1,0,0,,11,,,70,127
25241,note_off,42,0,0,,11,,,70,127
25242,note_on,1,0,0,,0,,,72,127
25284,note_off,42,0,0,,0,,,72,127
25285,note_on,1,0,0,,11,,,70,127
25327,note_off,42,0,0,,11,,,70,127
25328,note_on,1,0,0,,10,,,69,127
25458,note_off,130,0,0,,10,,,69,127
25459,note_on,1,0,0,,11,,,70,127
25589,note_off,130,0,0,,11,,,70,127
25589,note_off,0,0,0,,2,,,62,127
25589,note_off,0,0,0,,7,,,55,127
25589,note_off,0,0,0,,2,,,74,127
25590,note_on,1,0,0,,6,,,54,127
25590,note_on,0,0,0,,2,,,62,127
25590,note_on,0,0,0,,0,,,60,127
25590,note_on,0,0,0,,2,,,74,127
25590,note_on,0,0,0,,0,,,72,127
25850,note_off,260,0,0,,0,,,72,127
25851,note_on,1,0,0,,11,,,70,127
25981,note_off,130,0,0,,11,,,70,127
25982,note_on,1,0,0,,10,,,69,127
26112,note_off,130,0,0,,10,,,69,127
26112,note_off,0,0,0,,0,,,60,127
26112,note_off,0,0,0,,2,,,62,127
26112,note_off,0,0,0,,6,,,54,127
26113,note_on,1,0,0,,2,,,62,127
26113,note_on,0,0,0,,7,,,55,127
26113,note_on,0,0,0,,0,,,72,127
26155,note_off,42,0,0,,0,,,72,127
26156,note_on,1,0,0,,11,,,70,127
26198,note_off,42,0,0,,11,,,70,127
26199,note_on,1,0,0,,0,,,72,127
26241,note_off,42,0,0,,0,,,72,127
26242,note_on,1,0,0,,11,,,70,127
26284,note_off,42,0,0,,11,,,70,127
26285,note_on,1,0,0,,0,,,72,127
26327,note_off,42,0,0,,0,,,72,127
26328,note_on,1,0,0,,11,,,70,127
26370,note_off,42,0,0,,11,,,70,127
26371,note_on,1,0,0,,10,,,69,127
26501,note_off,130,0,0,,10,,,69,127
26502,note_on,1,0,0,,11,,,70,127
26632,note_off,130,0,0,,11,,,70,127
26632,note_off,0,0,0,,7,,,55,127
26632,note_off,0,0,0,,2,,,62,127
26632,note_off,0,0,0,,2,,,74,127
26633,note_on,1,0,0,,6,,,54,127
26633,note_on,0,0,0,,2,,,62,127
26633,note_on,0,0,0,,0,,,60,127
26633,note_on,0,0,0,,0,,,72,127
26633,note_on,0,0,0,,2,,,74,127
26893,note_off,260,0,0,,0,,,72,127
26894,note_on,1,0,0,,11,,,70,127
27024,note_off,130,0,0,,11,,,70,127
27025,note_on,1,0,0,,10,,,69,127
27155,note_off,130,0,0,,10,,,69,127
27155,note_off,0,0,0,,0,,,60,127
27155,note_off,0,0,0,,2,,,62,127
27155,note_off,0,0,0,,6,,,54,127
27156,note_on,1,0,0,,7,,,55,127
27156,note_on,0,0,0,,2,,,62,127
27156,note_on,0,0,0,,0,,,72,127
27198,note_off,42,0,0,,0,,,72,127
27199,note_on,1,0,0,,11,,,70,127
27241,note_off,42,0,0,,11,,,70,127
27242,note_on,1,0,0,,0,,,72,127
27284,note_off,42,0,0,,0,,,72,127
27285,note_on,1,0,0,,11,,,70,127
27327,note_off,42,0,0,,11,,,70,127
27328,note_on,1,0,0,,0,,,72,127
27370,note_off,42,0,0,,0,,,72,127
27371,note_on,1,0,0,,11,,,70,127
27413,note_off,42,0,0,,11,,,70,127
27414,note_on,1,0,0,,10,,,69,127
27544,note_off,130,0,0,,10,,,69,127
27545,note_on,1,0,0,,7,,,67,127
27675,note_off,130,0,0,,7,,,67,127
27675,note_off,0,0,0,,2,,,62,127
27675,note_off,0,0,0,,7,,,55,127
27675,note_off,0,0,0,,2,,,74,127
27676,note_on,1,0,0,,2,,,50,127
27676,note_on,0,0,0,,7,,,67,127
27676,note_on,0,0,0,,2,,,74,127
27936,note_off,260,0,0,,7,,,67,127
27937,note_on,1,0,0,,10,,,69,127
28199,note_off,262,0,0,,10,,,69,127
28330,note_off,131,0,0,,2,,,74,127
28460,note_off,130,0,0,,2,,,50,127
28723,note_on,263,0,0,,2,,,38,127
28723,note_on,0,0,0,,10,,,45,127
28723,note_on,0,0,0,,2,,,50,127
28723,note_on,0,0,0,,6,,,78,127
28723,note_on,0,0,0,,2,,,74,127
28723,note_on,0,0,0,,10,,,69,127
28983,note_off,260,0,0,,10,,,69,127
28984,note_on,1,0,0,,10,,,69,127
29114,note_off,130,0,0,,10,,,69,127
29115,note_on,1,0,0,,6,,,66,127
29245,note_off,130,0,0,,6,,,66,127
29246,note_on,1,0,0,,10,,,69,127
29506,note_off,260,0,0,,2,,,74,127
29506,note_off,0,0,0,,6,,,78,127
29507,note_on,1,0,0,,6,,,78,127
29507,note_on,0,0,0,,2,,,74,127
29767,note_off,260,0,0,,2,,,74,127
29767,note_off,0,0,0,,6,,,78,127
29767,note_off,0,0,0,,10,,,69,127
29767,note_off,0,0,0,,2,,,50,127
29767,note_off,0,0,0,,10,,,45,127
29767,note_off,0,0,0,,2,,,38,127
29768,note_on,1,0,0,,4,,,40,127
29768,note_on,0,0,0,,10,,,45,127
29768,note_on,0,0,0,,10,,,33,127
29768,note_on,0,0,0,,10,,,69,127
29768,note_on,0,0,0,,6,,,78,127
29768,note_on,0,0,0,,2,,,74,127
30028,note_off,260,0,0,,2,,,74,127
30028,note_off,0,0,0,,6,,,78,127
30028,note_off,0,0,0,,10,,,69,127
30029,note_on,1,0,0,,12,,,71,127
30029,note_on,0,0,0,,4,,,76,127
30159,note_off,130,0,0,,4,,,76,127
30160,note_on,1,0,0,,2,,,74,127
30290,note_off,130,0,0,,2,,,74,127
30290,note_off,0,0,0,,12,,,71,127
30291,note_on,1,0,0,,4,,,76,127
30291,note_on,0,0,0,,1,,,73,127
30551,note_off,260,0,0,,1,,,73,127
30551,note_off,0,0,0,,4,,,76,127
30552,note_on,1,0,0,,6,,,78,127
30552,note_on,0,0,0,,2,,,74,127
30812,note_off,260,0,0,,2,,,74,127
30812,note_off,0,0,0,,6,,,78,127
30812,note_off,0,0,0,,10,,,33,127
30812,note_off,0,0,0,,10,,,45,127
30812,note_off,0,0,0,,4,,,40,127
30813,note_on,1,0,0,,10,,,45,127
30813,note_on,0,0,0,,4,,,40,127
30813,note_on,0,0,0,,10,,,33,127
30813,note_on,0,0,0,,1,,,73,127
30813,note_on,0,0,0,,7,,,79,127
30813,note_on,0,0,0,,4,,,76,127
31073,note_off,260,0,0,,1,,,73,127
31074,note_on,1,0,0,,1,,,73,127
31204,note_off,130,0,0,,1,,,73,127
31205,note_on,1,0,0,,10,,,69,127
31335,note_off,130,0,0,,10,,,69,127
31336,note_on,1,0,0,,7,,,67,127
31596,note_off,260,0,0,,4,,,76,127
31596,note_off,0,0,0,,7,,,79,127
31597,note_on,1,0,0,,1,,,73,127
31597,note_on,0,0,0,,4,,,76,127
31597,note_on,0,0,0,,7,,,79,127
31857,note_off,260,0,0,,7,,,79,127
31857,note_off,0,0,0,,4,,,76,127
31857,note_off,0,0,0,,1,,,73,127
31857,note_off,0,0,0,,7,,,67,127
31857,note_off,0,0,0,,10,,,33,127
31857,note_off,0,0,0,,4,,,40,127
31857,note_off,0,0,0,,10,,,45,127
31858,note_on,1,0,0,,2,,,38,127
31858,note_on,0,0,0,,2,,,50,127
31858,note_on,0,0,0,,10,,,45,127
31858,note_on,0,0,0,,10,,,69,127
31858,note_on,0,0,0,,4,,,76,127
31858,note_on,0,0,0,,7,,,79,127
32118,note_off,260,0,0,,7,,,79,127
32118,note_off,0,0,0,,4,,,76,127
32118,note_off,0,0,0,,10,,,69,127
32119,note_on,1,0,0,,6,,,78,127
32119,note_on,0,0,0,,2,,,74,127
32249,note_off,130,0,0,,2,,,74,127
32249,note_off,0,0,0,,6,,,78,127
32250,note_on,1,0,0,,1,,,73,127
32250,note_on,0,0,0,,4,,,76,127
32380,note_off,130,0,0,,4,,,76,127
32380,note_off,0,0,0,,1,,,73,127
32381,note_on,1,0,0,,2,,,74,127
32381,note_on,0,0,0,,6,,,78,127
32641,note_off,260,0,0,,6,,,78,127
32642,note_on,1,0,0,,10,,,81,127
32902,note_off,260,0,0,,10,,,81,127
32902,note_off,0,0,0,,2,,,74,127
32902,note_off,0,0,0,,10,,,45,127
32902,note_off,0,0,0,,2,,,50,127
32902,note_off,0,0,0,,2,,,38,127
32903,note_on,1,0,0,,2,,,38,127
32903,note_on,0,0,0,,10,,,45,127
32903,note_on,0,0,0,,2,,,50,127
32903,note_on,0,0,0,,6,,,78,127
32903,note_on,0,0,0,,2,,,74,127
32903,note_on,0,0,0,,10,,,69,127
33163,note_off,260,0,0,,10,,,69,127
33164,note_on,1,0,0,,10,,,69,127
33294,note_off,130,0,0,,10,,,69,127
33295,note_on,1,0,0,,6,,,66,127
33425,note_off,130,0,0,,6,,,66,127
33426,note_on,1,0,0,,10,,,69,127
33686,note_off,260,0,0,,2,,,74,127
33686,note_off,0,0,0,,6,,,78,127
33687,note_on,1,0,0,,6,,,78,127
33687,note_on,0,0,0,,2,,,74,127
33947,note_off,260,0,0,,2,,,74,127
33947,note_off,0,0,0,,6,,,78,127
33947,note_off,0,0,0,,10,,,69,127
33947,note_off,0,0,0,,2,,,50,127
33947,note_off,0,0,0,,10,,,45,127
33947,note_off,0,0,0,,2,,,38,127
33948,note_on,1,0,0,,10,,,45,127
33948,note_on,0,0,0,,4,,,40,127
33948,note_on,0,0,0,,10,,,33,127
33948,note_on,0,0,0,,10,,,69,127
33948,note_on,0,0,0,,6,,,78,127
33948,note_on,0,0,0,,2,,,74,127
34208,note_off,260,0,0,,2,,,74,127
34208,note_off,0,0,0,,6,,,78,127
34208,note_off,0,0,0,,10,,,69,127
34209,note_on,1,0,0,,12,,,71,127
34209,note_on,0,0,0,,4,,,76,127
34339,note_off,130,0,0,,4,,,76,127
34340,note_on,1,0,0,,2,,,74,127
34470,note_off,130,0,0,,2,,,74,127
34470,note_off,0,0,0,,12,,,71,127
34471,note_on,1,0,0,,1,,,73,127
34471,note_on,0,0,0,,4,,,76,127
34731,note_off,260,0,0,,4,,,76,127
34731,note_off,0,0,0,,1,,,73,127
34732,note_on,1,0,0,,6,,,78,127
34732,note_on,0,0,0,,2,,,74,127
34992,note_off,260,0,0,,2,,,74,127
34992,note_off,0,0,0,,6,,,78,127
34992,note_off,0,0,0,,10,,,33,127
34992,note_off,0,0,0,,4,,,40,127
34992,note_off,0,0,0,,10,,,45,127
34993,note_on,1,0,0,,4,,,40,127
34993,note_on,0,0,0,,10,,,45,127
34993,note_on,0,0,0,,10,,,33,127
34993,note_on,0,0,0,,4,,,76,127
34993,note_on,0,0,0,,1,,,73,127
34993,note_on,0,0,0,,7,,,79,127
35253,note_off,260,0,0,,1,,,73,127
35254,note_on,1,0,0,,1,,,73,127
35384,note_off,130,0,0,,1,,,73,127
35385,note_on,1,0,0,,10,,,69,127
35515,note_off,130,0,0,,10,,,69,127
35516,note_on,1,0,0,,7,,,67,127
35776,note_off,260,0,0,,7,,,79,127
35776,note_off,0,0,0,,4,,,76,127
35777,note_on,1,0,0,,1,,,73,127
35777,note_on,0,0,0,,4,,,76,127
35777,note_on,0,0,0,,7,,,79,127
36037,note_off,260,0,0,,7,,,79,127
36037,note_off,0,0,0,,4,,,76,127
36037,note_off,0,0,0,,1,,,73,127
36037,note_off,0,0,0,,7,,,67,127
36037,note_off,0,0,0,,10,,,33,127
36037,note_off,0,0,0,,10,,,45,127
36037,note_off,0,0,0,,4,,,40,127
36038,note_on,1,0,0,,10,,,45,127
36038,note_on,0,0,0,,2,,,38,127
36038,note_on,0,0,0,,2,,,50,127
36038,note_on,0,0,0,,4,,,76,127
36038,note_on,0,0,0,,10,,,69,127
36038,note_on,0,0,0,,7,,,79,127
36298,note_off,260,0,0,,7,,,79,127
36298,note_off,0,0,0,,4,,,76,127
36299,note_on,1,0,0,,2,,,74,127
36299,note_on,0,0,0,,6,,,78,127
36429,note_off,130,0,0,,6,,,78,127
36429,note_off,0,0,0,,2,,,74,127
36430,note_on,1,0,0,,1,,,73,127
36430,note_on,0,0,0,,4,,,76,127
36560,note_off,130,0,0,,4,,,76,127
36560,note_off,0,0,0,,1,,,73,127
36560,note_off,0,0,0,,10,,,69,127
36561,note_on,1,0,0,,2,,,74,127
37083,note_off,522,0,0,,2,,,50,127
37083,note_off,0,0,0,,2,,,38,127
37083,note_off,0,0,0,,10,,,45,127
37607,note_off,524,0,0,,2,,,74,127
37608,note_on,1,0,0,,5,,,77,127
37608,note_on,0,0,0,,2,,,86,127
37608,note_on,0,0,0,,2,,,74,127
37738,note_off,130,0,0,,5,,,77,127
37739,note_on,1,0,0,,4,,,76,127
37869,note_off,130,0,0,,4,,,76,127
37870,note_on,1,0,0,,5,,,77,127
38000,note_off,130,0,0,,5,,,77,127
38001,note_on,1,0,0,,7,,,79,127
38131,note_off,130,0,0,,7,,,79,127
38132,note_on,1,0,0,,10,,,81,127
38262,note_off,130,0,0,,10,,,81,127
38263,note_on,1,0,0,,7,,,79,127
38393,note_off,130,0,0,,7,,,79,127
38394,note_on,1,0,0,,5,,,77,127
38438,note_on,44,0,0,,7,,,79,127
38452,note_off,14,0,0,,5,,,77,127
38482,note_on,30,0,0,,5,,,77,127
38496,note_off,14,0,0,,7,,,79,127
38526,note_on,30,0,0,,4,,,76,127
38540,note_off,14,0,0,,5,,,77,127
38656,note_off,116,0,0,,4,,,76,127
38656,note_off,0,0,0,,2,,,74,127
38656,note_off,0,0,0,,2,,,86,127
38657,note_on,1,0,0,,5,,,77,127
38657,note_on,0,0,0,,2,,,86,127
38657,note_on,0,0,0,,0,,,72,127
38787,note_off,130,0,0,,5,,,77,127
38788,note_on,1,0,0,,4,,,76,127
38918,note_off,130,0,0,,4,,,76,127
38919,note_on,1,0,0,,5,,,77,127
39049,note_off,130,0,0,,5,,,77,127
39050,note_on,1,0,0,,7,,,79,127
39180,note_off,130,0,0,,7,,,79,127
39181,note_on,1,0,0,,10,,,81,127
39311,note_off,130,0,0,,10,,,81,127
39312,note_on,1,0,0,,7,,,79,127
39442,note_off,130,0,0,,7,,,79,127
39443,note_on,1,0,0,,5,,,77,127
39487,note_on,44,0,0,,7,,,79,127
39501,note_off,14,0,0,,5,,,77,127
39531,note_on,30,0,0,,5,,,77,127
39545,note_off,14,0,0,,7,,,79,127
39575,note_on,30,0,0,,4,,,76,127
39582,note_off,7,0,0,,5,,,77,127
39705,note_off,123,0,0,,4,,,76,127
39705,note_off,0,0,0,,0,,,72,127
39705,note_off,0,0,0,,2,,,86,127
39706,note_on,1,0,0,,2,,,86,127
39706,note_on,0,0,0,,5,,,77,127
39706,note_on,0,0,0,,11,,,70,127
39706,note_on,0,0,0,,2,,,74,127
39836,note_off,130,0,0,,5,,,77,127
39837,note_on,1,0,0,,4,,,76,127
39967,note_off,130,0,0,,4,,,76,127
39968,note_on,1,0,0,,5,,,77,127
40098,note_off,130,0,0,,5,,,77,127
40099,note_on,1,0,0,,7,,,79,127
40229,note_off,130,0,0,,7,,,79,127
40230,note_on,1,0,0,,10,,,81,127
40360,note_off,130,0,0,,10,,,81,127
40361,note_on,1,0,0,,7,,,79,127
40491,note_off,130,0,0,,7,,,79,127
40492,note_on,1,0,0,,5,,,77,127
40536,note_on,44,0,0,,7,,,79,127
40550,note_off,14,0,0,,5,,,77,127
40580,note_on,30,0,0,,5,,,77,127
40594,note_off,14,0,0,,7,,,79,127
40624,note_on,30,0,0,,4,,,76,127
40631,note_off,7,0,0,,5,,,77,127
40754,note_off,123,0,0,,4,,,76,127
40754,note_off,0,0,0,,2,,,74,127
40754,note_off,0,0,0,,11,,,70,127
40754,note_off,0,0,0,,2,,,86,127
40755,note_on,1,0,0,,5,,,77,127
40755,note_on,0,0,0,,2,,,86,127
40755,note_on,0,0,0,,2,,,74,127
40755,note_on,0,0,0,,10,,,69,127
40885,note_off,130,0,0,,5,,,77,127
40886,note_on,1,0,0,,4,,,76,127
41016,note_off,130,0,0,,4,,,76,127
41017,note_on,1,0,0,,5,,,77,127
41147,note_off,130,0,0,,5,,,77,127
41148,note_on,1,0,0,,7,,,79,127
41278,note_off,130,0,0,,7,,,79,127
41279,note_on,1,0,0,,10,,,81,127
41409,note_off,130,0,0,,10,,,81,127
41410,note_on,1,0,0,,7,,,79,127
41540,note_off,130,0,0,,7,,,79,127
41541,note_on,1,0,0,,10,,,81,127
41671,note_off,130,0,0,,10,,,81,127
41672,note_on,1,0,0,,5,,,77,127
41802,note_off,130,0,0,,5,,,77,127
41802,note_off,0,0,0,,10,,,69,127
41802,note_off,0,0,0,,2,,,74,127
41802,note_off,0,0,0,,2,,,86,127
41803,note_on,1,0,0,,1,,,85,127
41803,note_on,0,0,0,,4,,,76,127
41803,note_on,0,0,0,,11,,,70,127
41803,note_on,0,0,0,,7,,,67,127
41933,note_off,130,0,0,,4,,,76,127
41934,note_on,1,0,0,,2,,,74,127
42064,note_off,130,0,0,,2,,,74,127
42065,note_on,1,0,0,,4,,,76,127
42195,note_off,130,0,0,,4,,,76,127
42196,note_on,1,0,0,,5,,,77,127
42326,note_off,130,0,0,,5,,,77,127
42327,note_on,1,0,0,,7,,,79,127
42457,note_off,130,0,0,,7,,,79,127
42458,note_on,1,0,0,,5,,,77,127
42588,note_off,130,0,0,,5,,,77,127
42589,note_on,1,0,0,,4,,,76,127
42633,note_on,44,0,0,,5,,,77,127
42647,note_off,14,0,0,,4,,,76,127
42677,note_on,30,0,0,,4,,,76,127
42691,note_off,14,0,0,,5,,,77,127
42721,note_on,30,0,0,,2,,,74,127
42728,note_off,7,0,0,,4,,,76,127
42851,note_off,123,0,0,,2,,,74,127
42851,note_off,0,0,0,,7,,,67,127
42851,note_off,0,0,0,,11,,,70,127
42851,note_off,0,0,0,,1,,,85,127
42852,note_on,1,0,0,,4,,,76,127
42852,note_on,0,0,0,,1,,,85,127
42852,note_on,0,0,0,,10,,,69,127
42852,note_on,0,0,0,,1,,,73,127
42982,note_off,130,0,0,,4,,,76,127
42983,note_on,1,0,0,,2,,,74,127
43113,note_off,130,0,0,,2,,,74,127
43114,note_on,1,0,0,,4,,,76,127
43244,note_off,130,0,0,,4,,,76,127
43245,note_on,1,0,0,,5,,,77,127
43375,note_off,130,0,0,,5,,,77,127
43376,note_on,1,0,0,,7,,,79,127
43506,note_off,130,0,0,,7,,,79,127
43507,note_on,1,0,0,,5,,,77,127
43637,note_off,130,0,0,,5,,,77,127
43638,note_on,1,0,0,,4,,,76,127
43682,note_on,44,0,0,,5,,,77,127
43696,note_off,14,0,0,,4,,,76,127
43726,note_on,30,0,0,,4,,,76,127
43740,note_off,14,0,0,,5,,,77,127
43770,note_on,30,0,0,,2,,,74,127
43777,note_off,7,0,0,,4,,,76,127
43900,note_off,123,0,0,,2,,,74,127
43900,note_off,0,0,0,,1,,,73,127
43900,note_off,0,0,0,,10,,,69,127
43900,note_off,0,0,0,,1,,,85,127
43901,note_on,1,0,0,,4,,,76,127
43901,note_on,0,0,0,,1,,,85,127
43901,note_on,0,0,0,,11,,,70,127
44031,note_off,130,0,0,,4,,,76,127
44032,note_on,1,0,0,,2,,,74,127
44162,note_off,130,0,0,,2,,,74,127
44163,note_on,1,0,0,,4,,,76,127
44293,note_off,130,0,0,,4,,,76,127
44294,note_on,1,0,0,,5,,,77,127
44424,note_off,130,0,0,,5,,,77,127
44425,note_on,1,0,0,,7,,,79,127
44555,note_off,130,0,0,,7,,,79,127
44556,note_on,1,0,0,,5,,,77,127
44686,note_off,130,0,0,,5,,,77,127
44687,note_on,1,0,0,,4,,,76,127
44731,note_on,44,0,0,,5,,,77,127
44745,note_off,14,0,0,,4,,,76,127
44775,note_on,30,0,0,,4,,,76,127
44789,note_off,14,0,0,,5,,,77,127
44819,note_on,30,0,0,,2,,,74,127
44826,note_off,7,0,0,,4,,,76,127
44949,note_off,123,0,0,,2,,,74,127
44949,note_off,0,0,0,,11,,,70,127
44949,note_off,0,0,0,,1,,,85,127
44950,note_on,1,0,0,,1,,,85,127
44950,note_on,0,0,0,,4,,,76,127
44950,note_on,0,0,0,,7,,,67,127
44950,note_on,0,0,0,,11,,,70,127
45080,note_off,130,0,0,,4,,,76,127
45081,note_on,1,0,0,,2,,,74,127
45211,note_off,130,0,0,,2,,,74,127
45212,note_on,1,0,0,,4,,,76,127
45342,note_off,130,0,0,,4,,,76,127
45343,note_on,1,0,0,,5,,,77,127
45473,note_off,130,0,0,,5,,,77,127
45474,note_on,1,0,0,,7,,,79,127
45604,note_off,130,0,0,,7,,,79,127
45605,note_on,1,0,0,,5,,,77,127
45735,note_off,130,0,0,,5,,,77,127
45736,note_on,1,0,0,,4,,,76,127
45780,note_on,44,0,0,,5,,,77,127
45794,note_off,14,0,0,,4,,,76,127
45824,note_on,30,0,0,,4,,,76,127
45838,note_off,14,0,0,,5,,,77,127
45868,note_on,30,0,0,,2,,,74,127
45875,note_off,7,0,0,,4,,,76,127
45998,note_off,123,0,0,,2,,,74,127
45998,note_off,0,0,0,,11,,,70,127
45998,note_off,0,0,0,,7,,,67,127
45998,note_off,0,0,0,,1,,,85,127
45999,note_on,1,0,0,,4,,,76,127
45999,note_on,0,0,0,,10,,,69,127
46129,note_off,130,0,0,,4,,,76,127
46130,note_on,1,0,0,,2,,,74,127
46260,note_off,130,0,0,,2,,,74,127
46261,note_on,1,0,0,,1,,,73,127
46391,note_off,130,0,0,,1,,,73,127
46392,note_on,1,0,0,,12,,,71,127
46522,note_off,130,0,0,,12,,,71,127
46522,note_off,0,0,0,,10,,,69,127
46523,note_on,1,0,0,,10,,,69,127
46654,note_on,131,0,0,,7,,,67,127
46784,note_off,130,0,0,,7,,,67,127
46785,note_on,1,0,0,,6,,,66,127
46915,note_off,130,0,0,,6,,,66,127
46916,note_on,1,0,0,,4,,,64,127
47046,note_off,130,0,0,,4,,,64,127
47046,note_off,0,0,0,,10,,,69,127
47047,note_on,1,0,0,,7,,,79,127
47047,note_on,0,0,0,,6,,,78,127
47047,note_on,0,0,0,,4,,,64,127
47047,note_on,0,0,0,,2,,,62,127
47177,note_off,130,0,0,,2,,,62,127
47177,note_off,0,0,0,,4,,,64,127
47177,note_off,0,0,0,,6,,,78,127
47177,note_off,0,0,0,,7,,,79,127
47178,note_on,1,0,0,,4,,,76,127
47178,note_on,0,0,0,,1,,,61,127
47308,note_off,130,0,0,,1,,,61,127
47308,note_off,0,0,0,,4,,,76,127
47309,note_on,1,0,0,,6,,,78,127
47309,note_on,0,0,0,,2,,,62,127
47439,note_off,130,0,0,,6,,,78,127
47440,note_on,1,0,0,,7,,,79,127
47440,note_on,0,0,0,,4,,,64,127
47570,note_off,130,0,0,,4,,,64,127
47570,note_off,0,0,0,,7,,,79,127
47571,note_on,1,0,0,,10,,,81,127
47571,note_on,0,0,0,,6,,,66,127
47701,note_off,130,0,0,,6,,,66,127
47702,note_on,1,0,0,,4,,,64,127
47832,note_off,130,0,0,,4,,,64,127
47832,note_off,0,0,0,,2,,,62,127
47833,note_on,1,0,0,,2,,,62,127
47963,note_off,130,0,0,,2,,,62,127
47964,note_on,1,0,0,,1,,,61,127
48094,note_off,130,0,0,,1,,,61,127
48094,note_off,0,0,0,,10,,,81,127
48095,note_on,1,0,0,,7,,,79,127
48095,note_on,0,0,0,,6,,,78,127
48095,note_on,0,0,0,,4,,,64,127
48095,note_on,0,0,0,,2,,,62,127
48095,note_on,0,0,0,,12,,,59,127
48225,note_off,130,0,0,,2,,,62,127
48225,note_off,0,0,0,,4,,,64,127
48225,note_off,0,0,0,,6,,,78,127
48225,note_off,0,0,0,,7,,,79,127
48226,note_on,1,0,0,,4,,,76,127
48226,note_on,0,0,0,,1,,,61,127
48356,note_off,130,0,0,,1,,,61,127
48356,note_off,0,0,0,,4,,,76,127
48357,note_on,1,0,0,,6,,,78,127
48357,note_on,0,0,0,,2,,,62,127
48487,note_off,130,0,0,,2,,,62,127
48487,note_off,0,0,0,,6,,,78,127
48488,note_on,1,0,0,,7,,,79,127
48488,note_on,0,0,0,,4,,,64,127
48618,note_off,130,0,0,,4,,,64,127
48618,note_off,0,0,0,,7,,,79,127
48619,note_on,1,0,0,,10,,,81,127
48619,note_on,0,0,0,,6,,,66,127
48749,note_off,130,0,0,,6,,,66,127
48750,note_on,1,0,0,,4,,,64,127
48880,note_off,130,0,0,,4,,,64,127
48881,note_on,1,0,0,,2,,,62,127
49011,note_off,130,0,0,,2,,,62,127
49012,note_on,1,0,0,,1,,,61,127
49142,note_off,130,0,0,,1,,,61,127
49142,note_off,0,0,0,,10,,,81,127
49142,note_off,0,0,0,,12,,,59,127
49143,note_on,1,0,0,,7,,,79,127
49143,note_on,0,0,0,,6,,,78,127
49143,note_on,0,0,0,,4,,,64,127
49143,note_on,0,0,0,,10,,,57,127
49143,note_on,0,0,0,,2,,,62,127
49273,note_off,130,0,0,,2,,,62,127
49273,note_off,0,0,0,,4,,,64,127
49273,note_off,0,0,0,,6,,,78,127
49273,note_off,0,0,0,,7,,,79,127
49274,note_on,1,0,0,,4,,,76,127
49274,note_on,0,0,0,,1,,,61,127
49404,note_off,130,0,0,,1,,,61,127
49404,note_off,0,0,0,,4,,,76,127
49405,note_on,1,0,0,,6,,,78,127
49405,note_on,0,0,0,,2,,,62,127
49535,note_off,130,0,0,,2,,,62,127
49535,note_off,0,0,0,,6,,,78,127
49536,note_on,1,0,0,,7,,,79,127
49536,note_on,0,0,0,,4,,,64,127
49666,note_off,130,0,0,,4,,,64,127
49666,note_off,0,0,0,,7,,,79,127
49667,note_on,1,0,0,,10,,,81,127
49667,note_on,0,0,0,,6,,,66,127
49797,note_off,130,0,0,,6,,,66,127
49798,note_on,1,0,0,,4,,,64,127
49928,note_off,130,0,0,,4,,,64,127
49929,note_on,1,0,0,,2,,,62,127
50059,note_off,130,0,0,,2,,,62,127
50060,note_on,1,0,0,,1,,,61,127
50190,note_off,130,0,0,,1,,,61,127
50190,note_off,0,0,0,,10,,,81,127
50190,note_off,0,0,0,,10,,,57,127
50191,note_on,1,0,0,,6,,,78,127
50191,note_on,0,0,0,,7,,,79,127
50191,note_on,0,0,0,,4,,,64,127
50191,note_on,0,0,0,,2,,,62,127
50191,note_on,0,0,0,,7,,,55,127
50321,note_off,130,0,0,,2,,,62,127
50321,note_off,0,0,0,,4,,,64,127
50321,note_off,0,0,0,,7,,,79,127
50321,note_off,0,0,0,,6,,,78,127
50322,note_on,1,0,0,,4,,,76,127
50322,note_on,0,0,0,,1,,,61,127
50452,note_off,130,0,0,,1,,,61,127
50452,note_off,0,0,0,,4,,,76,127
50453,note_on,1,0,0,,6,,,78,127
50453,note_on,0,0,0,,2,,,62,127
50583,note_off,130,0,0,,2,,,62,127
50583,note_off,0,0,0,,6,,,78,127
50584,note_on,1,0,0,,7,,,79,127
50584,note_on,0,0,0,,4,,,64,127
50714,note_off,130,0,0,,4,,,64,127
50714,note_off,0,0,0,,7,,,79,127
50715,note_on,1,0,0,,10,,,81,127
50715,note_on,0,0,0,,6,,,66,127
50845,note_off,130,0,0,,6,,,66,127
50846,note_on,1,0,0,,4,,,64,127
50976,note_off,130,0,0,,4,,,64,127
50977,note_on,1,0,0,,2,,,62,127
51107,note_off,130,0,0,,2,,,62,127
51108,note_on,1,0,0,,1,,,61,127
51238,note_off,130,0,0,,1,,,61,127
51238,note_off,0,0,0,,10,,,81,127
51238,note_off,0,0,0,,7,,,55,127
51239,note_on,1,0,0,,6,,,78,127
51239,note_on,0,0,0,,7,,,79,127
51239,note_on,0,0,0,,4,,,64,127
51239,note_on,0,0,0,,2,,,62,127
51239,note_on,0,0,0,,6,,,54,127
51369,note_off,130,0,0,,2,,,62,127
51369,note_off,0,0,0,,4,,,64,127
51369,note_off,0,0,0,,7,,,79,127
51369,note_off,0,0,0,,6,,,78,127
51370,note_on,1,0,0,,4,,,76,127
51370,note_on,0,0,0,,1,,,61,127
51500,note_off,130,0,0,,1,,,61,127
51500,note_off,0,0,0,,4,,,76,127
51501,note_on,1,0,0,,6,,,78,127
51501,note_on,0,0,0,,2,,,62,127
51631,note_off,130,0,0,,2,,,62,127
51631,note_off,0,0,0,,6,,,78,127
51632,note_on,1,0,0,,7,,,79,127
51632,note_on,0,0,0,,4,,,64,127
51762,note_off,130,0,0,,4,,,64,127
51762,note_off,0,0,0,,7,,,79,127
51763,note_on,1,0,0,,10,,,81,127
51763,note_on,0,0,0,,6,,,66,127
51893,note_off,130,0,0,,6,,,66,127
51894,note_on,1,0,0,,4,,,64,127
52024,note_off,130,0,0,,4,,,64,127
52024,note_off,0,0,0,,6,,,54,127
52025,note_on,1,0,0,,2,,,62,127
52155,note_off,130,0,0,,2,,,62,127
52156,note_on,1,0,0,,1,,,61,127
52286,note_off,130,0,0,,1,,,61,127
52286,note_off,0,0,0,,10,,,81,127
52287,note_on,1,0,0,,2,,,74,127
52287,note_on,0,0,0,,12,,,59,127
52417,note_off,130,0,0,,12,,,59,127
52418,note_on,1,0,0,,10,,,57,127
52548,note_off,130,0,0,,10,,,57,127
52548,note_off,0,0,0,,2,,,74,127
52549,note_on,1,0,0,,12,,,83,127
52549,note_on,0,0,0,,7,,,55,127
52679,note_off,130,0,0,,7,,,55,127
52680,note_on,1,0,0,,6,,,54,127
52810,note_off,130,0,0,,6,,,54,127
52811,note_on,1,0,0,,4,,,52,127
52941,note_off,130,0,0,,4,,,52,127
52942,note_on,1,0,0,,2,,,50,127
53072,note_off,130,0,0,,2,,,50,127
53072,note_off,0,0,0,,12,,,83,127
53073,note_on,1,0,0,,7,,,79,127
53073,note_on,0,0,0,,1,,,49,127
53203,note_off,130,0,0,,1,,,49,127
53204,note_on,1,0,0,,12,,,47,127
53334,note_off,130,0,0,,12,,,47,127
53335,note_on,1,0,0,,10,,,33,127
53465,note_off,130,0,0,,7,,,79,127
53466,note_on,1,0,0,,6,,,78,127
53596,note_off,130,0,0,,6,,,78,127
53597,note_on,1,0,0,,4,,,76,127
53727,note_off,130,0,0,,4,,,76,127
53728,note_on,1,0,0,,2,,,74,127
53858,note_off,130,0,0,,2,,,74,127
53859,note_on,1,0,0,,1,,,73,127
53989,note_off,130,0,0,,1,,,73,127
53990,note_on,1,0,0,,12,,,71,127
54120,note_off,130,0,0,,12,,,71,127
54121,note_on,1,0,0,,10,,,69,127
54251,note_off,130,0,0,,10,,,69,127
54252,note_on,1,0,0,,7,,,67,127
54382,note_off,130,0,0,,7,,,67,127
54382,note_off,0,0,0,,10,,,33,127
54383,note_on,1,0,0,,6,,,66,127
54383,note_on,0,0,0,,2,,,38,127
54513,note_off,130,0,0,,6,,,66,127
54514,note_on,1,0,0,,7,,,67,127
54644,note_off,130,0,0,,7,,,67,127
54644,note_off,0,0,0,,2,,,38,127
54645,note_on,1,0,0,,10,,,69,127
54645,note_on,0,0,0,,7,,,43,127
54775,note_off,130,0,0,,10,,,69,127
54776,note_on,1,0,0,,7,,,67,127
54906,note_off,130,0,0,,7,,,67,127
54906,note_off,0,0,0,,7,,,43,127
54907,note_on,1,0,0,,6,,,66,127
54907,note_on,0,0,0,,10,,,45,127
55037,note_off,130,0,0,,6,,,66,127
55038,note_on,1,0,0,,4,,,64,127
55168,note_off,130,0,0,,4,,,64,127
55168,note_off,0,0,0,,10,,,45,127
55169,note_on,1,0,0,,2,,,62,127
55169,note_on,0,0,0,,10,,,33,127
55299,note_off,130,0,0,,2,,,62,127
55300,note_on,1,0,0,,1,,,61,127
55430,note_off,130,0,0,,1,,,61,127
55430,note_off,0,0,0,,10,,,33,127
55431,note_on,1,0,0,,7,,,79,127
55431,note_on,0,0,0,,6,,,78,127
55431,note_on,0,0,0,,4,,,64,127
55431,note_on,0,0,0,,2,,,62,127
55561,note_off,130,0,0,,2,,,62,127
55561,note_off,0,0,0,,4,,,64,127
55561,note_off,0,0,0,,6,,,78,127
55561,note_off,0,0,0,,7,,,79,127
55562,note_on,1,0,0,,4,,,76,127
55562,note_on,0,0,0,,1,,,61,127
55692,note_off,130,0,0,,1,,,61,127
55692,note_off,0,0,0,,4,,,76,127
55693,note_on,1,0,0,,6,,,78,127
55693,note_on,0,0,0,,2,,,62,127
55823,note_off,130,0,0,,6,,,78,127
55824,note_on,1,0,0,,7,,,79,127
55824,note_on,0,0,0,,4,,,64,127
55954,note_off,130,0,0,,4,,,64,127
55954,note_off,0,0,0,,7,,,79,127
55955,note_on,1,0,0,,10,,,81,127
55955,note_on,0,0,0,,6,,,66,127
56085,note_off,130,0,0,,6,,,66,127
56086,note_on,1,0,0,,4,,,64,127
56216,note_off,130,0,0,,4,,,64,127
56216,note_off,0,0,0,,2,,,62,127
56217,note_on,1,0,0,,2,,,62,127
56347,note_off,130,0,0,,2,,,62,127
56348,note_on,1,0,0,,1,,,61,127
56478,note_off,130,0,0,,1,,,61,127
56478,note_off,0,0,0,,10,,,81,127
56479,note_on,1,0,0,,6,,,78,127
56479,note_on,0,0,0,,7,,,79,127
56479,note_on,0,0,0,,4,,,64,127
56479,note_on,0,0,0,,12,,,59,127
56479,note_on,0,0,0,,2,,,62,127
56609,note_off,130,0,0,,2,,,62,127
56609,note_off,0,0,0,,4,,,64,127
56609,note_off,0,0,0,,7,,,79,127
56609,note_off,0,0,0,,6,,,78,127
56610,note_on,1,0,0,,4,,,76,127
56610,note_on,0,0,0,,1,,,61,127
56740,note_off,130,0,0,,1,,,61,127
56740,note_off,0,0,0,,4,,,76,127
56741,note_on,1,0,0,,6,,,78,127
56741,note_on,0,0,0,,2,,,62,127
56871,note_off,130,0,0,,2,,,62,127
56871,note_off,0,0,0,,6,,,78,127
56872,note_on,1,0,0,,7,,,79,127
56872,note_on,0,0,0,,4,,,64,127
57002,note_off,130,0,0,,4,,,64,127
57002,note_off,0,0,0,,7,,,79,127
57002,note_off,0,0,0,,12,,,59,127
57003,note_on,1,0,0,,10,,,81,127
57003,note_on,0,0,0,,6,,,66,127
57133,note_off,130,0,0,,6,,,66,127
57134,note_on,1,0,0,,4,,,64,127
57264,note_off,130,0,0,,4,,,64,127
57265,note_on,1,0,0,,2,,,62,127
57395,note_off,130,0,0,,2,,,62,127
57396,note_on,1,0,0,,1,,,61,127
57526,note_off,130,0,0,,1,,,61,127
57526,note_off,0,0,0,,10,,,81,127
57527,note_on,1,0,0,,7,,,79,127
57527,note_on,0,0,0,,6,,,78,127
57527,note_on,0,0,0,,4,,,64,127
57527,note_on,0,0,0,,2,,,62,127
57527,note_on,0,0,0,,10,,,57,127
57657,note_off,130,0,0,,2,,,62,127
57657,note_off,0,0,0,,4,,,64,127
57657,note_off,0,0,0,,6,,,78,127
57657,note_off,0,0,0,,7,,,79,127
57658,note_on,1,0,0,,4,,,76,127
57658,note_on,0,0,0,,1,,,61,127
57788,note_off,130,0,0,,1,,,61,127
57788,note_off,0,0,0,,4,,,76,127
57789,note_on,1,0,0,,6,,,78,127
57789,note_on,0,0,0,,2,,,62,127
57919,note_off,130,0,0,,2,,,62,127
57919,note_off,0,0,0,,6,,,78,127
57920,note_on,1,0,0,,7,,,79,127
57920,note_on,0,0,0,,4,,,64,127
58050,note_off,130,0,0,,4,,,64,127
58050,note_off,0,0,0,,7,,,79,127
58050,note_off,0,0,0,,10,,,57,127
58051,note_on,1,0,0,,10,,,81,127
58051,note_on,0,0,0,,6,,,66,127
58181,note_off,130,0,0,,6,,,66,127
58182,note_on,1,0,0,,4,,,64,127
58312,note_off,130,0,0,,4,,,64,127
58313,note_on,1,0,0,,2,,,62,127
58443,note_off,130,0,0,,2,,,62,127
58444,note_on,1,0,0,,1,,,61,127
58574,note_off,130,0,0,,1,,,61,127
58574,note_off,0,0,0,,10,,,81,127
58575,note_on,1,0,0,,6,,,78,127
58575,note_on,0,0,0,,7,,,79,127
58575,note_on,0,0,0,,4,,,64,127
58575,note_on,0,0,0,,7,,,55,127
58575,note_on,0,0,0,,2,,,62,127
58705,note_off,130,0,0,,2,,,62,127
58705,note_off,0,0,0,,4,,,64,127
58705,note_off,0,0,0,,7,,,79,127
58705,note_off,0,0,0,,6,,,78,127
58706,note_on,1,0,0,,4,,,76,127
58706,note_on,0,0,0,,1,,,61,127
58836,note_off,130,0,0,,1,,,61,127
58836,note_off,0,0,0,,4,,,76,127
58837,note_on,1,0,0,,6,,,78,127
58837,note_on,0,0,0,,2,,,62,127
58967,note_off,130,0,0,,2,,,62,127
58967,note_off,0,0,0,,6,,,78,127
58968,note_on,1,0,0,,7,,,79,127
58968,note_on,0,0,0,,4,,,64,127
59098,note_off,130,0,0,,4,,,64,127
59098,note_off,0,0,0,,7,,,79,127
59098,note_off,0,0,0,,7,,,55,127
59099,note_on,1,0,0,,10,,,81,127
59099,note_on,0,0,0,,6,,,66,127
59229,note_off,130,0,0,,6,,,66,127
59230,note_on,1,0,0,,4,,,64,127
59360,note_off,130,0,0,,4,,,64,127
59361,note_on,1,0,0,,2,,,62,127
59491,note_off,130,0,0,,2,,,62,127
59492,note_on,1,0,0,,1,,,61,127
59622,note_off,130,0,0,,1,,,61,127
59622,note_off,0,0,0,,10,,,81,127
59623,note_on,1,0,0,,7,,,79,127
59623,note_on,0,0,0,,6,,,78,127
59623,note_on,0,0,0,,4,,,64,127
59623,note_on,0,0,0,,2,,,62,127
59623,note_on,0,0,0,,6,,,54,127
59753,note_off,130,0,0,,2,,,62,127
59753,note_off,0,0,0,,4,,,64,127
59753,note_off,0,0,0,,6,,,78,127
59753,note_off,0,0,0,,7,,,79,127
59754,note_on,1,0,0,,4,,,76,127
59754,note_on,0,0,0,,1,,,61,127
59884,note_off,130,0,0,,1,,,61,127
59884,note_off,0,0,0,,4,,,76,127
59885,note_on,1,0,0,,6,,,78,127
59885,note_on,0,0,0,,2,,,62,127
60015,note_off,130,0,0,,2,,,62,127
60015,note_off,0,0,0,,6,,,78,127
60016,note_on,1,0,0,,7,,,79,127
60016,note_on,0,0,0,,4,,,64,127
60146,note_off,130,0,0,,4,,,64,127
60146,note_off,0,0,0,,7,,,79,127
60146,note_off,0,0,0,,6,,,54,127
60147,note_on,1,0,0,,10,,,81,127
60147,note_on,0,0,0,,6,,,66,127
60277,note_off,130,0,0,,6,,,66,127
60278,note_on,1,0,0,,4,,,64,127
60408,note_off,130,0,0,,4,,,64,127
60409,note_on,1,0,0,,2,,,62,127
60539,note_off,130,0,0,,2,,,62,127
60540,note_on,1,0,0,,1,,,61,127
60670,note_off,130,0,0,,1,,,61,127
60670,note_off,0,0,0,,10,,,81,127
60671,note_on,1,0,0,,2,,,74,127
60671,note_on,0,0,0,,12,,,59,127
60801,note_off,130,0,0,,12,,,59,127
60802,note_on,1,0,0,,10,,,57,127
60932,note_off,130,0,0,,10,,,57,127
60932,note_off,0,0,0,,2,,,74,127
60933,note_on,1,0,0,,12,,,83,127
60933,note_on,0,0,0,,7,,,55,127
61063,note_off,130,0,0,,7,,,55,127
61064,note_on,1,0,0,,6,,,54,127
61194,note_off,130,0,0,,6,,,54,127
61195,note_on,1,0,0,,4,,,52,127
61325,note_off,130,0,0,,4,,,52,127
61326,note_on,1,0,0,,2,,,50,127
61456,note_off,130,0,0,,2,,,50,127
61456,note_off,0,0,0,,12,,,83,127
61457,note_on,1,0,0,,7,,,79,127
61457,note_on,0,0,0,,1,,,49,127
61587,note_off,130,0,0,,1,,,49,127
61588,note_on,1,0,0,,12,,,47,127
61718,note_off,130,0,0,,12,,,47,127
61719,note_on,1,0,0,,10,,,33,127
61849,note_off,130,0,0,,7,,,79,127
61850,note_on,1,0,0,,6,,,78,127
61980,note_off,130,0,0,,6,,,78,127
61981,note_on,1,0,0,,4,,,76,127
62111,note_off,130,0,0,,4,,,76,127
62112,note_on,1,0,0,,2,,,74,127
62242,note_off,130,0,0,,2,,,74,127
62243,note_on,1,0,0,,1,,,73,127
62373,note_off,130,0,0,,1,,,73,127
62374,note_on,1,0,0,,12,,,71,127
62504,note_off,130,0,0,,12,,,71,127
62505,note_on,1,0,0,,10,,,69,127
62635,note_off,130,0,0,,10,,,69,127
62636,note_on,1,0,0,,7,,,67,127
62674,note_off,38,0,0,,10,,,33,127
62765,note_off,91,0,0,,7,,,67,127
62766,note_on,1,0,0,,6,,,66,127
62766,note_on,0,0,0,,2,,,38,127
62896,note_off,130,0,0,,6,,,66,127
62897,note_on,1,0,0,,7,,,67,127
63027,note_off,130,0,0,,7,,,67,127
63027,note_off,0,0,0,,2,,,38,127
63028,note_on,1,0,0,,10,,,69,127
63028,note_on,0,0,0,,7,,,43,127
63158,note_off,130,0,0,,10,,,69,127
63159,note_on,1,0,0,,7,,,67,127
63289,note_off,130,0,0,,7,,,67,127
63289,note_off,0,0,0,,7,,,43,127
63290,note_on,1,0,0,,6,,,66,127
63290,note_on,0,0,0,,10,,,45,127
63420,note_off,130,0,0,,6,,,66,127
63421,note_on,1,0,0,,4,,,64,127
63551,note_off,130,0,0,,4,,,64,127
63552,note_on,1,0,0,,2,,,62,127
63552,note_on,0,0,0,,10,,,33,127
63682,note_off,130,0,0,,2,,,62,127
63683,note_on,1,0,0,,1,,,61,127
63813,note_off,130,0,0,,1,,,61,127
63813,note_off,0,0,0,,10,,,33,127
63813,note_off,0,0,0,,10,,,45,127
63814,note_on,1,0,0,,2,,,62,127
63814,note_on,0,0,0,,2,,,38,127
63944,note_off,130,0,0,,2,,,62,127
63945,note_on,1,0,0,,6,,,66,127
64075,note_off,130,0,0,,6,,,66,127
64076,note_on,1,0,0,,7,,,67,127
64206,note_off,130,0,0,,7,,,67,127
64207,note_on,1,0,0,,4,,,64,127
64337,note_off,130,0,0,,4,,,64,127
64338,note_on,1,0,0,,6,,,66,127
64468,note_off,130,0,0,,6,,,66,127
64469,note_on,1,0,0,,2,,,74,127
64599,note_off,130,0,0,,2,,,74,127
64600,note_on,1,0,0,,4,,,76,127
64730,note_off,130,0,0,,4,,,76,127
64731,note_on,1,0,0,,1,,,73,127
64861,note_off,130,0,0,,1,,,73,127
64861,note_off,0,0,0,,2,,,38,127
64862,note_on,1,0,0,,2,,,74,127
64862,note_on,0,0,0,,2,,,38,127
64992,note_off,130,0,0,,2,,,74,127
64993,note_on,1,0,0,,6,,,78,127
65123,note_off,130,0,0,,6,,,78,127
65124,note_on,1,0,0,,7,,,79,127
65254,note_off,130,0,0,,7,,,79,127
65255,note_on,1,0,0,,4,,,76,127
65385,note_off,130,0,0,,4,,,76,127
65386,note_on,1,0,0,,6,,,78,127
65516,note_off,130,0,0,,6,,,78,127
65517,note_on,1,0,0,,1,,,85,127
65647,note_off,130,0,0,,1,,,85,127
65648,note_on,1,0,0,,2,,,86,127
65778,note_off,130,0,0,,2,,,86,127
65779,note_on,1,0,0,,10,,,81,127
65909,note_off,130,0,0,,10,,,81,127
65909,note_off,0,0,0,,2,,,38,127
65910,note_on,1,0,0,,12,,,83,127
65910,note_on,0,0,0,,7,,,43,127
66040,note_off,130,0,0,,12,,,83,127
66041,note_on,1,0,0,,4,,,76,127
66171,note_off,130,0,0,,4,,,76,127
66172,note_on,1,0,0,,6,,,78,127
66302,note_off,130,0,0,,6,,,78,127
66303,note_on,1,0,0,,7,,,79,127
66433,note_off,130,0,0,,7,,,79,127
66433,note_off,0,0,0,,7,,,43,127
66434,note_on,1,0,0,,6,,,78,127
66434,note_on,0,0,0,,10,,,45,127
66564,note_off,130,0,0,,6,,,78,127
66565,note_on,1,0,0,,4,,,76,127
66695,note_off,130,0,0,,4,,,76,127
66696,note_on,1,0,0,,2,,,74,127
66826,note_off,130,0,0,,2,,,74,127
66827,note_on,1,0,0,,1,,,73,127
66952,note_off,125,0,0,,10,,,45,127
66956,note_off,4,0,0,,1,,,73,127
66957,note_on,1,0,0,,2,,,74,127
67088,note_on,131,0,0,,6,,,66,127
67218,note_off,130,0,0,,6,,,66,127
67219,note_on,1,0,0,,7,,,67,127
67349,note_off,130,0,0,,7,,,67,127
67350,note_on,1,0,0,,4,,,64,127
67480,note_off,130,0,0,,4,,,64,127
67481,note_on,1,0,0,,6,,,66,127
67611,note_off,130,0,0,,6,,,66,127
67612,note_on,1,0,0,,2,,,62,127
67742,note_off,130,0,0,,2,,,62,127
67743,note_on,1,0,0,,4,,,64,127
67873,note_off,130,0,0,,4,,,64,127
67874,note_on,1,0,0,,1,,,61,127
68004,note_off,130,0,0,,1,,,61,127
68004,note_off,0,0,0,,2,,,74,127
68005,note_on,1,0,0,,4,,,76,127
68005,note_on,0,0,0,,2,,,62,127
68047,note_off,42,0,0,,4,,,76,127
68048,note_on,1,0,0,,2,,,74,127
68090,note_off,42,0,0,,2,,,74,127
68091,note_on,1,0,0,,4,,,76,127
68133,note_off,42,0,0,,4,,,76,127
68133,note_off,0,0,0,,2,,,62,127
68134,note_on,1,0,0,,2,,,74,127
68134,note_on,0,0,0,,10,,,57,127
68264,note_off,130,0,0,,10,,,57,127
68265,note_on,1,0,0,,12,,,59,127
68395,note_off,130,0,0,,12,,,59,127
68396,note_on,1,0,0,,7,,,55,127
68526,note_off,130,0,0,,7,,,55,127
68527,note_on,1,0,0,,10,,,57,127
68657,note_off,130,0,0,,10,,,57,127
68658,note_on,1,0,0,,6,,,54,127
68788,note_off,130,0,0,,6,,,54,127
68789,note_on,1,0,0,,7,,,55,127
68919,note_off,130,0,0,,7,,,55,127
68920,note_on,1,0,0,,4,,,52,127
69050,note_off,130,0,0,,4,,,52,127
69050,note_off,0,0,0,,2,,,74,127
69051,note_on,1,0,0,,4,,,76,127
69051,note_on,0,0,0,,6,,,54,127
69093,note_off,42,0,0,,4,,,76,127
69094,note_on,1,0,0,,2,,,74,127
69136,note_off,42,0,0,,2,,,74,127
69137,note_on,1,0,0,,4,,,76,127
69179,note_off,42,0,0,,4,,,76,127
69179,note_off,0,0,0,,6,,,54,127
69180,note_on,1,0,0,,2,,,74,127
69180,note_on,0,0,0,,2,,,50,127
69310,note_off,130,0,0,,2,,,50,127
69311,note_on,1,0,0,,4,,,52,127
69441,note_off,130,0,0,,4,,,52,127
69442,note_on,1,0,0,,1,,,49,127
69572,note_off,130,0,0,,1,,,49,127
69573,note_on,1,0,0,,2,,,50,127
69703,note_off,130,0,0,,2,,,50,127
69704,note_on,1,0,0,,10,,,45,127
69834,note_off,130,0,0,,10,,,45,127
69835,note_on,1,0,0,,12,,,47,127
69965,note_off,130,0,0,,12,,,47,127
69966,note_on,1,0,0,,7,,,43,127
70096,note_off,130,0,0,,7,,,43,127
70096,note_off,0,0,0,,2,,,74,127
70097,note_on,1,0,0,,4,,,76,127
70097,note_on,0,0,0,,10,,,45,127
70139,note_off,42,0,0,,4,,,76,127
70140,note_on,1,0,0,,2,,,74,127
70182,note_off,42,0,0,,2,,,74,127
70183,note_on,1,0,0,,4,,,76,127
70225,note_off,42,0,0,,4,,,76,127
70225,note_off,0,0,0,,10,,,45,127
70226,note_on,1,0,0,,2,,,74,127
70226,note_on,0,0,0,,6,,,42,127
70356,note_off,130,0,0,,6,,,42,127
70357,note_on,1,0,0,,7,,,43,127
70487,note_off,130,0,0,,7,,,43,127
70488,note_on,1,0,0,,4,,,40,127
70618,note_off,130,0,0,,4,,,40,127
70619,note_on,1,0,0,,6,,,42,127
70749,note_off,130,0,0,,6,,,42,127
70750,note_on,1,0,0,,2,,,38,127
70880,note_off,130,0,0,,2,,,38,127
70881,note_on,1,0,0,,4,,,40,127
71011,note_off,130,0,0,,4,,,40,127
71012,note_on,1,0,0,,1,,,37,127
71142,note_off,130,0,0,,1,,,37,127
71143,note_on,1,0,0,,2,,,38,127
71273,note_off,130,0,0,,2,,,74,127
71274,note_on,1,0,0,,2,,,62,127
71404,note_off,130,0,0,,2,,,62,127
71405,note_on,1,0,0,,6,,,66,127
71535,note_off,130,0,0,,6,,,66,127
71536,note_on,1,0,0,,10,,,69,127
71666,note_off,130,0,0,,10,,,69,127
71667,note_on,1,0,0,,2,,,74,127
71797,note_off,130,0,0,,2,,,74,127
71798,note_on,1,0,0,,2,,,74,127
71928,note_off,130,0,0,,2,,,74,127
71929,note_on,1,0,0,,6,,,78,127
72059,note_off,130,0,0,,6,,,78,127
72060,note_on,1,0,0,,10,,,81,127
72190,note_off,130,0,0,,10,,,81,127
72190,note_off,0,0,0,,2,,,38,127
72191,note_on,1,0,0,,2,,,86,127
72191,note_on,0,0,0,,2,,,50,127
72451,note_off,260,0,0,,2,,,86,127
72452,note_on,1,0,0,,2,,,74,127
72712,note_off,260,0,0,,2,,,74,127
72712,note_off,0,0,0,,2,,,50,127
72713,note_on,1,0,0,,6,,,78,127
72713,note_on,0,0,0,,2,,,74,127
72713,note_on,0,0,0,,10,,,45,127
72766,note_off,53,0,0,,2,,,74,127
72766,note_off,0,0,0,,6,,,78,127
72767,note_on,1,0,0,,1,,,73,127
72767,note_on,0,0,0,,4,,,76,127
72820,note_off,53,0,0,,4,,,76,127
72820,note_off,0,0,0,,1,,,73,127
72821,note_on,1,0,0,,6,,,78,127
72821,note_on,0,0,0,,2,,,74,127
72874,note_off,53,0,0,,2,,,74,127
72874,note_off,0,0,0,,6,,,78,127
72875,note_on,1,0,0,,4,,,76,127
72875,note_on,0,0,0,,1,,,73,127
73234,note_off,359,0,0,,1,,,73,127
73234,note_off,0,0,0,,4,,,76,127
73234,note_off,0,0,0,,10,,,45,127
73235,note_on,1,0,0,,2,,,74,127
73235,note_on,0,0,0,,2,,,38,127
73365,note_off,130,0,0,,2,,,74,127
73366,note_on,1,0,0,,2,,,62,127
73496,note_off,130,0,0,,2,,,62,127
73497,note_on,1,0,0,,6,,,66,127
73627,note_off,130,0,0,,6,,,66,127
73628,note_on,1,0,0,,10,,,69,127
73758,note_off,130,0,0,,10,,,69,127
73759,note_on,1,0,0,,2,,,74,127
73889,note_off,130,0,0,,2,,,74,127
73890,note_on,1,0,0,,2,,,74,127
74020,note_off,130,0,0,,2,,,74,127
74021,note_on,1,0,0,,6,,,78,127
74151,note_off,130,0,0,,6,,,78,127
74152,note_on,1,0,0,,10,,,81,127
74282,note_off,130,0,0,,10,,,81,127
74282,note_off,0,0,0,,2,,,38,127
74283,note_on,1,0,0,,2,,,86,127
74283,note_on,0,0,0,,2,,,50,127
74543,note_off,260,0,0,,2,,,86,127
74544,note_on,1,0,0,,2,,,62,127
74804,note_off,260,0,0,,2,,,62,127
74804,note_off,0,0,0,,2,,,50,127
74805,note_on,1,0,0,,6,,,66,127
74805,note_on,0,0,0,,2,,,62,127
74805,note_on,0,0,0,,10,,,45,127
74858,note_off,53,0,0,,2,,,62,127
74858,note_off,0,0,0,,6,,,66,127
74859,note_on,1,0,0,,4,,,64,127
74859,note_on,0,0,0,,1,,,61,127
74912,note_off,53,0,0,,1,,,61,127
74912,note_off,0,0,0,,4,,,64,127
74913,note_on,1,0,0,,6,,,66,127
74913,note_on,0,0,0,,2,,,62,127
74966,note_off,53,0,0,,2,,,62,127
74966,note_off,0,0,0,,6,,,66,127
74967,note_on,1,0,0,,4,,,64,127
74967,note_on,0,0,0,,1,,,61,127
75326,note_off,359,0,0,,1,,,61,127
75326,note_off,0,0,0,,4,,,64,127
75326,note_off,0,0,0,,10,,,45,127
75327,note_on,1,0,0,,2,,,62,127
75327,note_on,0,0,0,,2,,,38,127
76111,note_off,784,0,0,,2,,,62,127
76112,note_on,1,0,0,,2,,,86,127
76372,note_off,260,0,0,,2,,,86,127
76372,note_off,0,0,0,,2,,,38,127
76373,note_on,1,0,0,,2,,,86,127
76373,note_on,0,0,0,,2,,,62,127
76373,note_on,0,0,0,,10,,,69,127
76373,note_on,0,0,0,,6,,,66,127
76633,note_off,260,0,0,,2,,,86,127
76634,note_on,1,0,0,,10,,,81,127
76894,note_off,260,0,0,,10,,,81,127
76894,note_off,0,0,0,,6,,,66,127
76894,note_off,0,0,0,,10,,,69,127
76894,note_off,0,0,0,,2,,,62,127
76895,note_on,1,0,0,,10,,,81,127
76895,note_on,0,0,0,,12,,,71,127
76895,note_on,0,0,0,,2,,,62,127
76895,note_on,0,0,0,,7,,,67,127
77155,note_off,260,0,0,,10,,,81,127
77156,note_on,1,0,0,,12,,,83,127
77416,note_off,260,0,0,,12,,,83,127
77416,note_off,0,0,0,,7,,,67,127
77416,note_off,0,0,0,,2,,,62,127
77416,note_off,0,0,0,,12,,,71,127
77417,note_on,1,0,0,,12,,,83,127
77417,note_on,0,0,0,,1,,,85,127
77417,note_on,0,0,0,,10,,,69,127
77417,note_on,0,0,0,,7,,,67,127
77417,note_on,0,0,0,,1,,,61,127
77677,note_off,260,0,0,,1,,,85,127
77677,note_off,0,0,0,,12,,,83,127
77678,note_on,1,0,0,,10,,,81,127
77938,note_off,260,0,0,,10,,,81,127
77938,note_off,0,0,0,,1,,,61,127
77938,note_off,0,0,0,,7,,,67,127
77938,note_off,0,0,0,,10,,,69,127
77939,note_on,1,0,0,,12,,,83,127
77939,note_on,0,0,0,,10,,,81,127
77939,note_on,0,0,0,,7,,,67,127
77939,note_on,0,0,0,,10,,,69,127
77939,note_on,0,0,0,,1,,,61,127
78199,note_off,260,0,0,,10,,,81,127
78199,note_off,0,0,0,,12,,,83,127
78200,note_on,1,0,0,,7,,,79,127
78460,note_off,260,0,0,,7,,,79,127
78460,note_off,0,0,0,,1,,,61,127
78460,note_off,0,0,0,,10,,,69,127
78460,note_off,0,0,0,,7,,,67,127
78461,note_on,1,0,0,,6,,,78,127
78461,note_on,0,0,0,,7,,,79,127
78461,note_on,0,0,0,,10,,,69,127
78461,note_on,0,0,0,,2,,,62,127
78721,note_off,260,0,0,,7,,,79,127
78721,note_off,0,0,0,,6,,,78,127
78722,note_on,1,0,0,,4,,,76,127
78982,note_off,260,0,0,,4,,,76,127
78982,note_off,0,0,0,,2,,,62,127
78982,note_off,0,0,0,,10,,,69,127
78983,note_on,1,0,0,,4,,,76,127
78983,note_on,0,0,0,,12,,,59,127
79113,note_off,130,0,0,,4,,,76,127
79114,note_on,1,0,0,,2,,,74,127
79244,note_off,130,0,0,,2,,,74,127
79245,note_on,1,0,0,,1,,,73,127
79245,note_on,0,0,0,,8,,,68,127
79375,note_off,130,0,0,,1,,,73,127
79376,note_on,1,0,0,,2,,,74,127
79506,note_off,130,0,0,,2,,,74,127
79506,note_off,0,0,0,,8,,,68,127
79506,note_off,0,0,0,,12,,,59,127
79507,note_on,1,0,0,,2,,,74,127
79507,note_on,0,0,0,,10,,,57,127
79767,note_off,260,0,0,,10,,,57,127
79767,note_off,0,0,0,,2,,,74,127
79768,note_on,1,0,0,,4,,,76,127
79768,note_on,0,0,0,,10,,,57,127
79768,note_on,0,0,0,,10,,,69,127
80028,note_off,260,0,0,,10,,,69,127
80028,note_off,0,0,0,,10,,,57,127
80029,note_on,1,0,0,,7,,,55,127
80029,note_on,0,0,0,,7,,,67,127
80289,note_off,260,0,0,,7,,,67,127
80289,note_off,0,0,0,,7,,,55,127
80289,note_off,0,0,0,,4,,,76,127
80290,note_on,1,0,0,,10,,,81,127
80290,note_on,0,0,0,,6,,,66,127
80290,note_on,0,0,0,,6,,,54,127
80550,note_off,260,0,0,,6,,,54,127
80550,note_off,0,0,0,,6,,,66,127
80550,note_off,0,0,0,,10,,,81,127
80551,note_on,1,0,0,,10,,,81,127
80551,note_on,0,0,0,,4,,,52,127
80551,note_on,0,0,0,,4,,,64,127
80811,note_off,260,0,0,,4,,,64,127
80811,note_off,0,0,0,,4,,,52,127
80811,note_off,0,0,0,,10,,,81,127
80812,note_on,1,0,0,,1,,,73,127
80812,note_on,0,0,0,,2,,,62,127
80812,note_on,0,0,0,,2,,,50,127
81072,note_off,260,0,0,,2,,,50,127
81072,note_off,0,0,0,,2,,,62,127
81072,note_off,0,0,0,,1,,,73,127
81073,note_on,1,0,0,,1,,,73,127
81073,note_on,0,0,0,,1,,,49,127
81073,note_on,0,0,0,,1,,,61,127
81333,note_off,260,0,0,,1,,,61,127
81333,note_off,0,0,0,,1,,,49,127
81333,note_off,0,0,0,,1,,,73,127
81334,note_on,1,0,0,,2,,,74,127
81334,note_on,0,0,0,,12,,,59,127
81334,note_on,0,0,0,,12,,,47,127
81594,note_off,260,0,0,,12,,,47,127
81594,note_off,0,0,0,,12,,,59,127
81594,note_off,0,0,0,,2,,,74,127
81595,note_on,1,0,0,,2,,,74,127
81595,note_on,0,0,0,,10,,,45,127
81595,note_on,0,0,0,,10,,,57,127
81855,note_off,260,0,0,,10,,,57,127
81855,note_off,0,0,0,,10,,,45,127
81855,note_off,0,0,0,,2,,,74,127
81856,note_on,1,0,0,,4,,,76,127
81856,note_on,0,0,0,,1,,,73,127
81856,note_on,0,0,0,,7,,,43,127
81856,note_on,0,0,0,,7,,,55,127
82116,note_off,260,0,0,,7,,,55,127
82116,note_off,0,0,0,,7,,,43,127
82116,note_off,0,0,0,,1,,,73,127
82116,note_off,0,0,0,,4,,,76,127
82117,note_on,1,0,0,,2,,,74,127
82117,note_on,0,0,0,,6,,,78,127
82117,note_on,0,0,0,,6,,,54,127
82117,note_on,0,0,0,,6,,,42,127
82377,note_off,260,0,0,,6,,,42,127
82377,note_off,0,0,0,,6,,,54,127
82377,note_off,0,0,0,,6,,,78,127
82377,note_off,0,0,0,,2,,,74,127
82378,note_on,1,0,0,,4,,,76,127
82378,note_on,0,0,0,,7,,,79,127
82378,note_on,0,0,0,,4,,,52,127
82378,note_on,0,0,0,,4,,,40,127
82638,note_off,260,0,0,,4,,,40,127
82638,note_off,0,0,0,,4,,,52,127
82638,note_off,0,0,0,,7,,,79,127
82638,note_off,0,0,0,,4,,,76,127
82639,note_on,1,0,0,,10,,,81,127
82639,note_on,0,0,0,,6,,,78,127
82639,note_on,0,0,0,,2,,,38,127
82639,note_on,0,0,0,,2,,,50,127
82899,note_off,260,0,0,,2,,,50,127
82899,note_off,0,0,0,,2,,,38,127
82899,note_off,0,0,0,,6,,,78,127
82899,note_off,0,0,0,,10,,,81,127
82900,note_on,1,0,0,,12,,,83,127
82900,note_on,0,0,0,,7,,,55,127
83030,note_off,130,0,0,,12,,,83,127
83031,note_on,1,0,0,,7,,,79,127
83161,note_off,130,0,0,,7,,,79,127
83161,note_off,0,0,0,,7,,,55,127
83162,note_on,1,0,0,,6,,,78,127
83162,note_on,0,0,0,,2,,,74,127
83162,note_on,0,0,0,,10,,,57,127
83422,note_off,260,0,0,,2,,,74,127
83422,note_off,0,0,0,,6,,,78,127
83423,note_on,1,0,0,,1,,,73,127
83423,note_on,0,0,0,,4,,,76,127
83423,note_on,0,0,0,,10,,,45,127
83554,note_off,131,0,0,,10,,,57,127
83684,note_off,130,0,0,,10,,,45,127
83684,note_off,0,0,0,,4,,,76,127
83684,note_off,0,0,0,,1,,,73,127
83685,note_on,1,0,0,,4,,,76,127
83685,note_on,0,0,0,,2,,,38,127
83727,note_off,42,0,0,,4,,,76,127
83728,note_on,1,0,0,,2,,,74,127
83770,note_off,42,0,0,,2,,,74,127
83771,note_on,1,0,0,,4,,,76,127
83813,note_off,42,0,0,,4,,,76,127
83814,note_on,1,0,0,,2,,,74,127
84467,note_off,653,0,0,,2,,,74,127
84468,note_on,1,0,0,,2,,,86,127
84728,note_off,260,0,0,,2,,,86,127
84728,note_off,0,0,0,,2,,,38,127
84729,note_on,1,0,0,,2,,,86,127
84729,note_on,0,0,0,,10,,,69,127
84729,note_on,0,0,0,,2,,,62,127
84989,note_off,260,0,0,,2,,,86,127
84990,note_on,1,0,0,,10,,,81,127
85250,note_off,260,0,0,,10,,,81,127
85250,note_off,0,0,0,,2,,,62,127
85250,note_off,0,0,0,,10,,,69,127
85251,note_on,1,0,0,,10,,,81,127
85251,note_on,0,0,0,,11,,,70,127
85251,note_on,0,0,0,,2,,,62,127
85251,note_on,0,0,0,,7,,,67,127
85511,note_off,260,0,0,,10,,,81,127
85512,note_on,1,0,0,,11,,,82,127
85772,note_off,260,0,0,,11,,,82,127
85772,note_off,0,0,0,,7,,,67,127
85772,note_off,0,0,0,,2,,,62,127
85772,note_off,0,0,0,,11,,,70,127
85773,note_on,1,0,0,,11,,,82,127
85773,note_on,0,0,0,,0,,,84,127
85773,note_on,0,0,0,,10,,,69,127
85773,note_on,0,0,0,,7,,,67,127
85773,note_on,0,0,0,,1,,,61,127
86033,note_off,260,0,0,,0,,,84,127
86033,note_off,0,0,0,,11,,,82,127
86034,note_on,1,0,0,,10,,,81,127
86294,note_off,260,0,0,,10,,,81,127
86294,note_off,0,0,0,,1,,,61,127
86294,note_off,0,0,0,,7,,,67,127
86294,note_off,0,0,0,,10,,,69,127
86295,note_on,1,0,0,,10,,,81,127
86295,note_on,0,0,0,,11,,,82,127
86295,note_on,0,0,0,,7,,,67,127
86295,note_on,0,0,0,,10,,,69,127
86295,note_on,0,0,0,,1,,,61,127
86555,note_off,260,0,0,,11,,,82,127
86555,note_off,0,0,0,,10,,,81,127
86556,note_on,1,0,0,,7,,,79,127
86816,note_off,260,0,0,,7,,,79,127
86816,note_off,0,0,0,,1,,,61,127
86816,note_off,0,0,0,,10,,,69,127
86816,note_off,0,0,0,,7,,,67,127
86817,note_on,1,0,0,,7,,,79,127
86817,note_on,0,0,0,,5,,,77,127
86817,note_on,0,0,0,,10,,,69,127
86817,note_on,0,0,0,,2,,,62,127
87077,note_off,260,0,0,,5,,,77,127
87077,note_off,0,0,0,,7,,,79,127
87078,note_on,1,0,0,,4,,,76,127
87338,note_off,260,0,0,,4,,,76,127
87338,note_off,0,0,0,,2,,,62,127
87339,note_on,1,0,0,,4,,,76,127
87339,note_on,0,0,0,,11,,,58,127
87469,note_off,130,0,0,,4,,,76,127
87470,note_on,1,0,0,,2,,,74,127
87600,note_off,130,0,0,,2,,,74,127
87600,note_off,0,0,0,,10,,,69,127
87601,note_on,1,0,0,,1,,,73,127
87601,note_on,0,0,0,,7,,,67,127
87731,note_off,130,0,0,,1,,,73,127
87732,note_on,1,0,0,,2,,,74,127
87862,note_off,130,0,0,,2,,,74,127
87862,note_off,0,0,0,,7,,,67,127
87862,note_off,0,0,0,,11,,,58,127
87863,note_on,1,0,0,,2,,,74,127
87863,note_on,0,0,0,,10,,,69,127
87863,note_on,0,0,0,,10,,,57,127
88123,note_off,260,0,0,,2,,,74,127
88124,note_on,1,0,0,,4,,,76,127
88646,note_off,522,0,0,,4,,,76,127
88646,note_off,0,0,0,,10,,,69,127
88647,note_on,1,0,0,,4,,,76,127
88907,note_off,260,0,0,,4,,,76,127
88907,note_off,0,0,0,,10,,,57,127
88908,note_on,1,0,0,,4,,,76,127
88908,note_on,0,0,0,,0,,,84,127
88908,note_on,0,0,0,,0,,,72,127
88908,note_on,0,0,0,,10,,,69,127
89168,note_off,260,0,0,,0,,,84,127
89168,note_off,0,0,0,,4,,,76,127
89169,note_on,1,0,0,,0,,,84,127
89169,note_on,0,0,0,,4,,,76,127
89429,note_off,260,0,0,,4,,,76,127
89429,note_off,0,0,0,,0,,,84,127
89429,note_off,0,0,0,,10,,,69,127
89429,note_off,0,0,0,,0,,,72,127
89430,note_on,1,0,0,,4,,,76,127
89430,note_on,0,0,0,,0,,,84,127
89430,note_on,0,0,0,,7,,,67,127
89430,note_on,0,0,0,,12,,,71,127
89690,note_off,260,0,0,,0,,,84,127
89690,note_off,0,0,0,,4,,,76,127
89691,note_on,1,0,0,,4,,,76,127
89691,note_on,0,0,0,,0,,,84,127
89951,note_off,260,0,0,,0,,,84,127
89951,note_off,0,0,0,,4,,,76,127
89951,note_off,0,0,0,,12,,,71,127
89951,note_off,0,0,0,,7,,,67,127
89952,note_on,1,0,0,,0,,,84,127
89952,note_on,0,0,0,,4,,,76,127
89952,note_on,0,0,0,,10,,,69,127
89952,note_on,0,0,0,,5,,,65,127
90212,note_off,260,0,0,,4,,,76,127
90212,note_off,0,0,0,,0,,,84,127
90213,note_on,1,0,0,,2,,,74,127
90213,note_on,0,0,0,,12,,,83,127
90473,note_off,260,0,0,,12,,,83,127
90473,note_off,0,0,0,,2,,,74,127
90473,note_off,0,0,0,,5,,,65,127
90473,note_off,0,0,0,,10,,,69,127
90474,note_on,1,0,0,,8,,,80,127
90474,note_on,0,0,0,,12,,,71,127
90474,note_on,0,0,0,,10,,,81,127
90474,note_on,0,0,0,,10,,,69,127
90474,note_on,0,0,0,,5,,,65,127
90996,note_off,522,0,0,,5,,,65,127
90996,note_off,0,0,0,,10,,,69,127
90997,note_on,1,0,0,,5,,,65,127
90997,note_on,0,0,0,,10,,,69,127
91257,note_off,260,0,0,,10,,,81,127
91257,note_off,0,0,0,,12,,,71,127
91257,note_off,0,0,0,,8,,,80,127
91258,note_on,1,0,0,,12,,,83,127
91258,note_on,0,0,0,,2,,,74,127
91518,note_off,260,0,0,,2,,,74,127
91518,note_off,0,0,0,,12,,,83,127
91518,note_off,0,0,0,,10,,,69,127
91518,note_off,0,0,0,,5,,,65,127
91519,note_on,1,0,0,,10,,,81,127
91519,note_on,0,0,0,,8,,,80,127
91519,note_on,0,0,0,,12,,,71,127
91519,note_on,0,0,0,,5,,,65,127
91519,note_on,0,0,0,,10,,,69,127
92041,note_off,522,0,0,,10,,,69,127
92041,note_off,0,0,0,,5,,,65,127
92042,note_on,1,0,0,,10,,,69,127
92042,note_on,0,0,0,,5,,,65,127
92302,note_off,260,0,0,,12,,,71,127
92302,note_off,0,0,0,,8,,,80,127
92302,note_off,0,0,0,,10,,,81,127
92303,note_on,1,0,0,,12,,,83,127
92303,note_on,0,0,0,,2,,,74,127
92563,note_off,260,0,0,,2,,,74,127
92563,note_off,0,0,0,,12,,,83,127
92563,note_off,0,0,0,,5,,,65,127
92563,note_off,0,0,0,,10,,,69,127
92564,note_on,1,0,0,,10,,,81,127
92564,note_on,0,0,0,,8,,,80,127
92564,note_on,0,0,0,,12,,,71,127
92564,note_on,0,0,0,,10,,,69,127
92564,note_on,0,0,0,,5,,,65,127
93086,note_off,522,0,0,,5,,,65,127
93086,note_off,0,0,0,,10,,,69,127
93087,note_on,1,0,0,,10,,,69,127
93087,note_on,0,0,0,,5,,,65,127
93347,note_off,260,0,0,,12,,,71,127
93347,note_off,0,0,0,,8,,,80,127
93347,note_off,0,0,0,,10,,,81,127
93348,note_on,1,0,0,,0,,,72,127
93348,note_on,0,0,0,,10,,,81,127
93608,note_off,260,0,0,,0,,,72,127
93608,note_off,0,0,0,,5,,,65,127
93608,note_off,0,0,0,,10,,,69,127
93609,note_on,1,0,0,,4,,,76,127
93609,note_on,0,0,0,,10,,,69,127
93609,note_on,0,0,0,,5,,,65,127
93739,note_off,130,0,0,,4,,,76,127
93740,note_on,1,0,0,,2,,,74,127
93870,note_off,130,0,0,,2,,,74,127
93871,note_on,1,0,0,,0,,,72,127
94001,note_off,130,0,0,,0,,,72,127
94002,note_on,1,0,0,,2,,,74,127
94132,note_off,130,0,0,,2,,,74,127
94132,note_off,0,0,0,,5,,,65,127
94132,note_off,0,0,0,,10,,,69,127
94133,note_on,1,0,0,,4,,,76,127
94133,note_on,0,0,0,,4,,,64,127
94133,note_on,0,0,0,,12,,,71,127
94393,note_off,260,0,0,,4,,,76,127
94393,note_off,0,0,0,,10,,,81,127
94394,note_on,1,0,0,,12,,,83,127
95049,note_off,655,0,0,,12,,,83,127
95087,note_off,38,0,0,,12,,,71,127
95087,note_off,0,0,0,,4,,,64,127
95180,note_on,93,0,0,,4,,,76,127
95180,note_on,0,0,0,,8,,,80,127
95180,note_on,0,0,0,,12,,,71,127
95180,note_on,0,0,0,,4,,,52,127
95180,note_on,0,0,0,,12,,,47,127
95180,note_on,0,0,0,,4,,,40,127
95440,note_off,260,0,0,,12,,,71,127
95441,note_on,1,0,0,,12,,,71,127
95571,note_off,130,0,0,,12,,,71,127
95572,note_on,1,0,0,,8,,,68,127
95702,note_off,130,0,0,,8,,,68,127
95703,note_on,1,0,0,,12,,,71,127
95963,note_off,260,0,0,,8,,,80,127
95963,note_off,0,0,0,,4,,,76,127
95964,note_on,1,0,0,,8,,,80,127
95964,note_on,0,0,0,,4,,,76,127
96224,note_off,260,0,0,,4,,,76,127
96224,note_off,0,0,0,,8,,,80,127
96224,note_off,0,0,0,,12,,,71,127
96224,note_off,0,0,0,,4,,,40,127
96224,note_off,0,0,0,,12,,,47,127
96224,note_off,0,0,0,,4,,,52,127
96225,note_on,1,0,0,,4,,,76,127
96225,note_on,0,0,0,,8,,,80,127
96225,note_on,0,0,0,,12,,,71,127
96225,note_on,0,0,0,,12,,,47,127
96225,note_on,0,0,0,,12,,,35,127
96485,note_off,260,0,0,,12,,,71,127
96485,note_off,0,0,0,,8,,,80,127
96485,note_off,0,0,0,,4,,,76,127
96486,note_on,1,0,0,,6,,,78,127
96486,note_on,0,0,0,,1,,,73,127
96616,note_off,130,0,0,,6,,,78,127
96617,note_on,1,0,0,,4,,,76,127
96747,note_off,130,0,0,,4,,,76,127
96748,note_off,1,0,0,,1,,,73,127
96748,note_on,0,0,0,,6,,,78,127
96748,note_on,0,0,0,,3,,,75,127
97008,note_off,260,0,0,,3,,,75,127
97008,note_off,0,0,0,,6,,,78,127
97009,note_on,1,0,0,,4,,,76,127
97009,note_on,0,0,0,,8,,,80,127
97269,note_off,260,0,0,,8,,,80,127
97269,note_off,0,0,0,,4,,,76,127
97269,note_off,0,0,0,,12,,,35,127
97269,note_off,0,0,0,,12,,,47,127
97270,note_on,1,0,0,,10,,,81,127
97270,note_on,0,0,0,,3,,,75,127
97270,note_on,0,0,0,,6,,,78,127
97270,note_on,0,0,0,,12,,,71,127
97270,note_on,0,0,0,,12,,,47,127
97270,note_on,0,0,0,,12,,,35,127
97530,note_off,260,0,0,,6,,,78,127
97530,note_off,0,0,0,,3,,,75,127
97531,note_on,1,0,0,,6,,,78,127
97661,note_off,130,0,0,,6,,,78,127
97662,note_on,1,0,0,,3,,,75,127
97792,note_off,130,0,0,,3,,,75,127
97792,note_off,0,0,0,,12,,,71,127
97793,note_on,1,0,0,,12,,,71,127
98053,note_off,260,0,0,,10,,,81,127
98054,note_on,1,0,0,,10,,,81,127
98054,note_on,0,0,0,,3,,,75,127
98054,note_on,0,0,0,,6,,,78,127
98314,note_off,260,0,0,,6,,,78,127
98314,note_off,0,0,0,,3,,,75,127
98314,note_off,0,0,0,,10,,,81,127
98314,note_off,0,0,0,,12,,,71,127
98314,note_off,0,0,0,,12,,,35,127
98314,note_off,0,0,0,,12,,,47,127
98315,note_on,1,0,0,,12,,,71,127
98315,note_on,0,0,0,,10,,,81,127
98315,note_on,0,0,0,,4,,,76,127
98315,note_on,0,0,0,,12,,,47,127
98315,note_on,0,0,0,,4,,,52,127
98315,note_on,0,0,0,,4,,,40,127
98575,note_off,260,0,0,,4,,,76,127
98575,note_off,0,0,0,,10,,,81,127
98576,note_on,1,0,0,,8,,,80,127
98706,note_off,130,0,0,,8,,,80,127
98707,note_on,1,0,0,,6,,,78,127
98837,note_off,130,0,0,,6,,,78,127
98837,note_off,0,0,0,,12,,,71,127
98838,note_on,1,0,0,,4,,,76,127
98968,note_off,130,0,0,,4,,,76,127
98969,note_on,1,0,0,,12,,,71,127
99099,note_off,130,0,0,,12,,,71,127
99100,note_on,1,0,0,,4,,,76,127
99230,note_off,130,0,0,,4,,,76,127
99231,note_on,1,0,0,,8,,,80,127
99361,note_off,130,0,0,,8,,,80,127
99361,note_off,0,0,0,,4,,,40,127
99361,note_off,0,0,0,,4,,,52,127
99361,note_off,0,0,0,,12,,,47,127
99362,note_on,1,0,0,,4,,,64,127
99362,note_on,0,0,0,,12,,,59,127
99362,note_on,0,0,0,,8,,,68,127
99362,note_on,0,0,0,,4,,,52,127
99362,note_on,0,0,0,,4,,,40,127
99362,note_on,0,0,0,,12,,,47,127
99622,note_off,260,0,0,,12,,,59,127
99623,note_on,1,0,0,,12,,,59,127
99753,note_off,130,0,0,,12,,,59,127
99754,note_on,1,0,0,,8,,,56,127
99884,note_off,130,0,0,,8,,,56,127
99885,note_on,1,0,0,,12,,,59,127
100145,note_off,260,0,0,,12,,,59,127
100145,note_off,0,0,0,,8,,,68,127
100145,note_off,0,0,0,,4,,,64,127
100146,note_on,1,0,0,,4,,,64,127
100146,note_on,0,0,0,,8,,,68,127
100146,note_on,0,0,0,,12,,,59,127
100406,note_off,260,0,0,,12,,,59,127
100406,note_off,0,0,0,,8,,,68,127
100406,note_off,0,0,0,,4,,,64,127
100406,note_off,0,0,0,,12,,,47,127
100406,note_off,0,0,0,,4,,,40,127
100406,note_off,0,0,0,,4,,,52,127
100407,note_on,1,0,0,,12,,,59,127
100407,note_on,0,0,0,,8,,,68,127
100407,note_on,0,0,0,,4,,,64,127
100407,note_on,0,0,0,,12,,,35,127
100407,note_on,0,0,0,,12,,,47,127
100667,note_off,260,0,0,,4,,,64,127
100667,note_off,0,0,0,,8,,,68,127
100667,note_off,0,0,0,,12,,,59,127
100668,note_on,1,0,0,,1,,,61,127
100668,note_on,0,0,0,,6,,,66,127
100798,note_off,130,0,0,,6,,,66,127
100799,note_on,1,0,0,,4,,,64,127
100929,note_off,130,0,0,,4,,,64,127
100929,note_off,0,0,0,,1,,,61,127
100930,note_on,1,0,0,,6,,,66,127
100930,note_on,0,0,0,,3,,,63,127
101190,note_off,260,0,0,,3,,,63,127
101190,note_off,0,0,0,,6,,,66,127
101191,note_on,1,0,0,,8,,,68,127
101191,note_on,0,0,0,,4,,,64,127
101451,note_off,260,0,0,,4,,,64,127
101451,note_off,0,0,0,,8,,,68,127
101451,note_off,0,0,0,,12,,,47,127
101451,note_off,0,0,0,,12,,,35,127
101452,note_on,1,0,0,,6,,,66,127
101452,note_on,0,0,0,,10,,,69,127
101452,note_on,0,0,0,,12,,,59,127
101452,note_on,0,0,0,,3,,,63,127
101452,note_on,0,0,0,,12,,,35,127
101452,note_on,0,0,0,,12,,,47,127
101712,note_off,260,0,0,,3,,,63,127
101712,note_off,0,0,0,,6,,,66,127
101713,note_on,1,0,0,,6,,,66,127
101843,note_off,130,0,0,,6,,,66,127
101844,note_on,1,0,0,,3,,,63,127
101974,note_off,130,0,0,,3,,,63,127
101974,note_off,0,0,0,,12,,,59,127
101975,note_on,1,0,0,,12,,,59,127
102235,note_off,260,0,0,,10,,,69,127
102236,note_on,1,0,0,,3,,,63,127
102236,note_on,0,0,0,,10,,,69,127
102236,note_on,0,0,0,,6,,,66,127
102496,note_off,260,0,0,,6,,,66,127
102496,note_off,0,0,0,,10,,,69,127
102496,note_off,0,0,0,,3,,,63,127
102496,note_off,0,0,0,,12,,,59,127
102496,note_off,0,0,0,,12,,,47,127
102496,note_off,0,0,0,,12,,,35,127
102497,note_on,1,0,0,,10,,,69,127
102497,note_on,0,0,0,,12,,,59,127
102497,note_on,0,0,0,,4,,,64,127
102497,note_on,0,0,0,,12,,,47,127
102497,note_on,0,0,0,,4,,,52,127
102497,note_on,0,0,0,,4,,,40,127
102757,note_off,260,0,0,,10,,,69,127
102758,note_on,1,0,0,,8,,,68,127
102888,note_off,130,0,0,,8,,,68,127
102889,note_on,1,0,0,,6,,,66,127
103019,note_off,130,0,0,,6,,,66,127
103019,note_off,0,0,0,,4,,,64,127
103019,note_off,0,0,0,,12,,,59,127
103020,note_on,1,0,0,,4,,,64,127
103280,note_off,260,0,0,,4,,,64,127
103280,note_off,0,0,0,,4,,,40,127
103280,note_off,0,0,0,,12,,,47,127
103281,note_on,1,0,0,,4,,,76,127
103314,note_off,33,0,0,,4,,,52,127
103542,note_off,228,0,0,,4,,,76,127
103543,note_on,1,0,0,,0,,,84,127
103543,note_on,0,0,0,,4,,,76,127
103543,note_on,0,0,0,,10,,,69,127
103803,note_off,260,0,0,,0,,,84,127
103804,note_on,1,0,0,,0,,,84,127
104064,note_off,260,0,0,,0,,,84,127
104064,note_off,0,0,0,,10,,,69,127
104064,note_off,0,0,0,,4,,,76,127
104065,note_on,1,0,0,,0,,,84,127
104065,note_on,0,0,0,,4,,,76,127
104065,note_on,0,0,0,,7,,,67,127
104325,note_off,260,0,0,,0,,,84,127
104326,note_on,1,0,0,,0,,,84,127
104586,note_off,260,0,0,,0,,,84,127
104586,note_off,0,0,0,,7,,,67,127
104586,note_off,0,0,0,,4,,,76,127
104587,note_on,1,0,0,,0,,,84,127
104587,note_on,0,0,0,,2,,,74,127
104587,note_on,0,0,0,,6,,,66,127
104847,note_off,260,0,0,,0,,,84,127
104848,note_on,1,0,0,,0,,,84,127
105108,note_off,260,0,0,,0,,,84,127
105108,note_off,0,0,0,,6,,,66,127
105108,note_off,0,0,0,,2,,,74,127
105109,note_on,1,0,0,,0,,,84,127
105109,note_on,0,0,0,,7,,,67,127
105109,note_on,0,0,0,,2,,,74,127
105369,note_off,260,0,0,,0,,,84,127
105370,note_on,1,0,0,,12,,,83,127
105630,note_off,260,0,0,,12,,,83,127
105630,note_off,0,0,0,,2,,,74,127
105630,note_off,0,0,0,,7,,,67,127
105631,note_on,1,0,0,,12,,,83,127
105631,note_on,0,0,0,,4,,,64,127
105631,note_on,0,0,0,,7,,,67,127
105631,note_on,0,0,0,,1,,,73,127
105891,note_off,260,0,0,,12,,,83,127
105892,note_on,1,0,0,,10,,,81,127
106152,note_off,260,0,0,,10,,,81,127
106152,note_off,0,0,0,,1,,,73,127
106152,note_off,0,0,0,,7,,,67,127
106152,note_off,0,0,0,,4,,,64,127
106153,note_on,1,0,0,,10,,,81,127
106153,note_on,0,0,0,,1,,,73,127
106153,note_on,0,0,0,,7,,,67,127
106153,note_on,0,0,0,,4,,,64,127
106283,note_off,130,0,0,,10,,,81,127
106284,note_on,1,0,0,,7,,,79,127
106414,note_off,130,0,0,,7,,,79,127
106415,note_on,1,0,0,,6,,,78,127
106545,note_off,130,0,0,,6,,,78,127
106546,note_on,1,0,0,,7,,,79,127
106676,note_off,130,0,0,,7,,,79,127
106676,note_off,0,0,0,,4,,,64,127
106676,note_off,0,0,0,,7,,,67,127
106676,note_off,0,0,0,,1,,,73,127
106677,note_on,1,0,0,,7,,,79,127
106677,note_on,0,0,0,,10,,,69,127
106677,note_on,0,0,0,,2,,,74,127
106677,note_on,0,0,0,,2,,,62,127
106937,note_off,260,0,0,,7,,,79,127
106938,note_on,1,0,0,,10,,,81,127
107460,note_off,522,0,0,,10,,,81,127
107630,note_off,170,0,0,,2,,,62,127
107630,note_off,0,0,0,,2,,,74,127
107630,note_off,0,0,0,,10,,,69,127
107723,note_on,93,0,0,,2,,,62,127
107723,note_on,0,0,0,,7,,,67,127
107723,note_on,0,0,0,,12,,,59,127
107723,note_on,0,0,0,,2,,,50,127
107723,note_on,0,0,0,,7,,,43,127
107983,note_off,260,0,0,,12,,,59,127
107984,note_on,1,0,0,,12,,,59,127
108114,note_off,130,0,0,,12,,,59,127
108115,note_on,1,0,0,,7,,,55,127
108245,note_off,130,0,0,,7,,,55,127
108246,note_on,1,0,0,,12,,,59,127
108506,note_off,260,0,0,,12,,,59,127
108506,note_off,0,0,0,,7,,,67,127
108506,note_off,0,0,0,,2,,,62,127
108507,note_on,1,0,0,,7,,,67,127
108507,note_on,0,0,0,,12,,,59,127
108507,note_on,0,0,0,,2,,,62,127
108767,note_off,260,0,0,,2,,,62,127
108767,note_off,0,0,0,,12,,,59,127
108767,note_off,0,0,0,,7,,,67,127
108767,note_off,0,0,0,,7,,,43,127
108767,note_off,0,0,0,,2,,,50,127
108768,note_on,1,0,0,,2,,,62,127
108768,note_on,0,0,0,,7,,,67,127
108768,note_on,0,0,0,,12,,,59,127
108768,note_on,0,0,0,,10,,,45,127
108768,note_on,0,0,0,,2,,,50,127
108768,note_on,0,0,0,,2,,,38,127
109028,note_off,260,0,0,,12,,,59,127
109028,note_off,0,0,0,,7,,,67,127
109028,note_off,0,0,0,,2,,,62,127
109029,note_on,1,0,0,,10,,,57,127
109029,note_on,0,0,0,,6,,,66,127
109159,note_off,130,0,0,,6,,,66,127
109159,note_off,0,0,0,,10,,,57,127
109160,note_on,1,0,0,,7,,,55,127
109160,note_on,0,0,0,,4,,,64,127
109290,note_off,130,0,0,,4,,,64,127
109290,note_off,0,0,0,,7,,,55,127
109291,note_on,1,0,0,,10,,,57,127
109291,note_on,0,0,0,,6,,,66,127
109551,note_off,260,0,0,,6,,,66,127
109551,note_off,0,0,0,,10,,,57,127
109552,note_on,1,0,0,,12,,,59,127
109552,note_on,0,0,0,,7,,,67,127
109812,note_off,260,0,0,,7,,,67,127
109812,note_off,0,0,0,,12,,,59,127
109812,note_off,0,0,0,,2,,,38,127
109812,note_off,0,0,0,,2,,,50,127
109812,note_off,0,0,0,,10,,,45,127
109813,note_on,1,0,0,,10,,,69,127
109813,note_on,0,0,0,,0,,,60,127
109813,note_on,0,0,0,,6,,,66,127
109813,note_on,0,0,0,,2,,,38,127
109813,note_on,0,0,0,,10,,,45,127
109813,note_on,0,0,0,,2,,,50,127
110073,note_off,260,0,0,,0,,,60,127
110074,note_on,1,0,0,,0,,,60,127
110204,note_off,130,0,0,,0,,,60,127
110205,note_on,1,0,0,,10,,,57,127
110335,note_off,130,0,0,,10,,,57,127
110336,note_on,1,0,0,,0,,,60,127
110596,note_off,260,0,0,,0,,,60,127
110596,note_off,0,0,0,,6,,,66,127
110596,note_off,0,0,0,,10,,,69,127
110597,note_on,1,0,0,,10,,,69,127
110597,note_on,0,0,0,,0,,,60,127
110597,note_on,0,0,0,,6,,,66,127
110857,note_off,260,0,0,,6,,,66,127
110857,note_off,0,0,0,,0,,,60,127
110857,note_off,0,0,0,,10,,,69,127
110857,note_off,0,0,0,,2,,,50,127
110857,note_off,0,0,0,,10,,,45,127
110857,note_off,0,0,0,,2,,,38,127
110858,note_on,1,0,0,,10,,,69,127
110858,note_on,0,0,0,,0,,,60,127
110858,note_on,0,0,0,,6,,,66,127
110858,note_on,0,0,0,,7,,,31,127
110858,note_on,0,0,0,,7,,,43,127
110858,note_on,0,0,0,,2,,,38,127
111118,note_off,260,0,0,,6,,,66,127
111118,note_off,0,0,0,,0,,,60,127
111118,note_off,0,0,0,,10,,,69,127
111119,note_on,1,0,0,,12,,,59,127
111119,note_on,0,0,0,,7,,,67,127
111249,note_off,130,0,0,,7,,,67,127
111249,note_off,0,0,0,,12,,,59,127
111250,note_on,1,0,0,,6,,,66,127
111250,note_on,0,0,0,,10,,,57,127
111380,note_off,130,0,0,,10,,,57,127
111380,note_off,0,0,0,,6,,,66,127
111381,note_on,1,0,0,,7,,,67,127
111381,note_on,0,0,0,,12,,,59,127
111641,note_off,260,0,0,,12,,,59,127
111641,note_off,0,0,0,,7,,,67,127
111642,note_on,1,0,0,,0,,,60,127
111642,note_on,0,0,0,,10,,,69,127
111902,note_off,260,0,0,,10,,,69,127
111902,note_off,0,0,0,,0,,,60,127
111902,note_off,0,0,0,,2,,,38,127
111902,note_off,0,0,0,,7,,,43,127
111902,note_off,0,0,0,,7,,,31,127
111903,note_on,1,0,0,,7,,,67,127
111903,note_on,0,0,0,,12,,,71,127
111903,note_on,0,0,0,,2,,,62,127
111903,note_on,0,0,0,,7,,,31,127
111903,note_on,0,0,0,,2,,,38,127
111903,note_on,0,0,0,,7,,,43,127
112163,note_off,260,0,0,,2,,,62,127
112164,note_on,1,0,0,,2,,,62,127
112294,note_off,130,0,0,,2,,,62,127
112295,note_on,1,0,0,,12,,,59,127
112425,note_off,130,0,0,,12,,,59,127
112426,note_on,1,0,0,,2,,,62,127
112686,note_off,260,0,0,,2,,,62,127
112686,note_off,0,0,0,,12,,,71,127
112686,note_off,0,0,0,,7,,,67,127
112687,note_on,1,0,0,,7,,,67,127
112687,note_on,0,0,0,,12,,,71,127
112687,note_on,0,0,0,,2,,,62,127
112947,note_off,260,0,0,,2,,,62,127
112947,note_off,0,0,0,,12,,,71,127
112947,note_off,0,0,0,,7,,,67,127
112947,note_off,0,0,0,,7,,,43,127
112947,note_off,0,0,0,,2,,,38,127
112947,note_off,0,0,0,,7,,,31,127
112948,note_on,1,0,0,,12,,,71,127
112948,note_on,0,0,0,,2,,,62,127
112948,note_on,0,0,0,,7,,,67,127
112948,note_on,0,0,0,,2,,,50,127
112948,note_on,0,0,0,,10,,,45,127
112948,note_on,0,0,0,,2,,,38,127
113208,note_off,260,0,0,,7,,,67,127
113208,note_off,0,0,0,,2,,,62,127
113208,note_off,0,0,0,,12,,,71,127
113209,note_on,1,0,0,,10,,,69,127
113209,note_on,0,0,0,,4,,,64,127
113339,note_off,130,0,0,,10,,,69,127
113340,note_on,1,0,0,,7,,,67,127
113470,note_off,130,0,0,,7,,,67,127
113470,note_off,0,0,0,,4,,,64,127
113471,note_on,1,0,0,,6,,,66,127
113471,note_on,0,0,0,,10,,,69,127
113731,note_off,260,0,0,,10,,,69,127
113731,note_off,0,0,0,,6,,,66,127
113732,note_on,1,0,0,,12,,,71,127
113732,note_on,0,0,0,,7,,,67,127
113992,note_off,260,0,0,,7,,,67,127
113992,note_off,0,0,0,,12,,,71,127
113992,note_off,0,0,0,,2,,,38,127
113992,note_off,0,0,0,,10,,,45,127
113992,note_off,0,0,0,,2,,,50,127
113993,note_on,1,0,0,,10,,,69,127
113993,note_on,0,0,0,,0,,,72,127
113993,note_on,0,0,0,,2,,,62,127
113993,note_on,0,0,0,,6,,,66,127
113993,note_on,0,0,0,,2,,,50,127
113993,note_on,0,0,0,,2,,,38,127
113993,note_on,0,0,0,,10,,,45,127
114253,note_off,260,0,0,,6,,,66,127
114253,note_off,0,0,0,,10,,,69,127
114254,note_on,1,0,0,,10,,,69,127
114384,note_off,130,0,0,,10,,,69,127
114385,note_on,1,0,0,,6,,,66,127
114515,note_off,130,0,0,,6,,,66,127
114515,note_off,0,0,0,,2,,,62,127
114516,note_on,1,0,0,,2,,,62,127
114776,note_off,260,0,0,,0,,,72,127
114777,note_on,1,0,0,,10,,,69,127
114777,note_on,0,0,0,,0,,,72,127
114777,note_on,0,0,0,,6,,,66,127
115037,note_off,260,0,0,,6,,,66,127
115037,note_off,0,0,0,,0,,,72,127
115037,note_off,0,0,0,,10,,,69,127
115037,note_off,0,0,0,,2,,,62,127
115037,note_off,0,0,0,,10,,,45,127
115037,note_off,0,0,0,,2,,,38,127
115037,note_off,0,0,0,,2,,,50,127
115038,note_on,1,0,0,,0,,,72,127
115038,note_on,0,0,0,,2,,,62,127
115038,note_on,0,0,0,,7,,,67,127
115038,note_on,0,0,0,,7,,,31,127
115038,note_on,0,0,0,,2,,,38,127
115038,note_on,0,0,0,,7,,,43,127
115298,note_off,260,0,0,,0,,,72,127
115299,note_on,1,0,0,,12,,,71,127
115429,note_off,130,0,0,,12,,,71,127
115430,note_on,1,0,0,,10,,,69,127
115560,note_off,130,0,0,,10,,,69,127
115560,note_off,0,0,0,,7,,,67,127
115560,note_off,0,0,0,,2,,,62,127
115561,note_on,1,0,0,,7,,,67,127
116083,note_off,522,0,0,,7,,,67,127
116083,note_off,0,0,0,,7,,,43,127
116083,note_off,0,0,0,,2,,,38,127
116083,note_off,0,0,0,,7,,,31,127
116084,note_on,1,0,0,,7,,,91,127
116084,note_on,0,0,0,,11,,,82,127
116084,note_on,0,0,0,,7,,,79,127
116214,note_off,130,0,0,,11,,,82,127
116215,note_on,1,0,0,,10,,,81,127
116345,note_off,130,0,0,,10,,,81,127
116346,note_on,1,0,0,,11,,,82,127
116476,note_off,130,0,0,,11,,,82,127
116477,note_on,1,0,0,,0,,,84,127
116607,note_off,130,0,0,,0,,,84,127
116608,note_on,1,0,0,,2,,,86,127
116738,note_off,130,0,0,,2,,,86,127
116739,note_on,1,0,0,,0,,,84,127
116869,note_off,130,0,0,,0,,,84,127
116870,note_on,1,0,0,,11,,,82,127
116912,note_off,42,0,0,,11,,,82,127
116913,note_on,1,0,0,,0,,,84,127
116955,note_off,42,0,0,,0,,,84,127
116956,note_on,1,0,0,,11,,,82,127
116998,note_off,42,0,0,,11,,,82,127
116999,note_on,1,0,0,,10,,,81,127
117129,note_off,130,0,0,,10,,,81,127
117129,note_off,0,0,0,,7,,,79,127
117129,note_off,0,0,0,,7,,,91,127
117130,note_on,1,0,0,,11,,,82,127
117130,note_on,0,0,0,,7,,,91,127
117130,note_on,0,0,0,,5,,,77,127
117260,note_off,130,0,0,,11,,,82,127
117261,note_on,1,0,0,,10,,,81,127
117391,note_off,130,0,0,,10,,,81,127
117392,note_on,1,0,0,,11,,,82,127
117522,note_off,130,0,0,,11,,,82,127
117523,note_on,1,0,0,,0,,,84,127
117653,note_off,130,0,0,,0,,,84,127
117654,note_on,1,0,0,,2,,,86,127
117784,note_off,130,0,0,,2,,,86,127
117785,note_on,1,0,0,,0,,,84,127
117915,note_off,130,0,0,,0,,,84,127
117916,note_on,1,0,0,,11,,,82,127
117960,note_on,44,0,0,,0,,,84,127
117968,note_off,8,0,0,,11,,,82,127
118002,note_off,34,0,0,,0,,,84,127
118003,note_on,1,0,0,,11,,,82,127
118045,note_off,42,0,0,,11,,,82,127
118046,note_on,1,0,0,,10,,,81,127
118176,note_off,130,0,0,,10,,,81,127
118176,note_off,0,0,0,,5,,,77,127
118176,note_off,0,0,0,,7,,,91,127
118177,note_on,1,0,0,,11,,,82,127
118177,note_on,0,0,0,,7,,,91,127
118177,note_on,0,0,0,,3,,,75,127
118177,note_on,0,0,0,,7,,,79,127
118307,note_off,130,0,0,,11,,,82,127
118308,note_on,1,0,0,,10,,,81,127
118438,note_off,130,0,0,,10,,,81,127
118439,note_on,1,0,0,,11,,,82,127
118569,note_off,130,0,0,,11,,,82,127
118570,note_on,1,0,0,,0,,,84,127
118700,note_off,130,0,0,,0,,,84,127
118701,note_on,1,0,0,,2,,,86,127
118831,note_off,130,0,0,,2,,,86,127
118832,note_on,1,0,0,,0,,,84,127
118962,note_off,130,0,0,,0,,,84,127
118963,note_on,1,0,0,,11,,,82,127
119005,note_off,42,0,0,,11,,,82,127
119006,note_on,1,0,0,,0,,,84,127
119048,note_off,42,0,0,,0,,,84,127
119049,note_on,1,0,0,,11,,,82,127
119091,note_off,42,0,0,,11,,,82,127
119092,note_on,1,0,0,,10,,,81,127
119222,note_off,130,0,0,,10,,,81,127
119222,note_off,0,0,0,,7,,,79,127
119222,note_off,0,0,0,,3,,,75,127
119222,note_off,0,0,0,,7,,,91,127
119223,note_on,1,0,0,,11,,,82,127
119223,note_on,0,0,0,,7,,,91,127
119223,note_on,0,0,0,,7,,,79,127
119223,note_on,0,0,0,,2,,,74,127
119353,note_off,130,0,0,,11,,,82,127
119354,note_on,1,0,0,,10,,,81,127
119484,note_off,130,0,0,,10,,,81,127
119485,note_on,1,0,0,,11,,,82,127
119615,note_off,130,0,0,,11,,,82,127
119616,note_on,1,0,0,,0,,,84,127
119746,note_off,130,0,0,,0,,,84,127
119747,note_on,1,0,0,,2,,,86,127
119877,note_off,130,0,0,,2,,,86,127
119878,note_on,1,0,0,,0,,,84,127
120008,note_off,130,0,0,,0,,,84,127
120009,note_on,1,0,0,,2,,,86,127
120139,note_off,130,0,0,,2,,,86,127
120140,note_on,1,0,0,,11,,,82,127
120270,note_off,130,0,0,,11,,,82,127
120270,note_off,0,0,0,,2,,,74,127
120270,note_off,0,0,0,,7,,,79,127
120270,note_off,0,0,0,,7,,,91,127
120271,note_on,1,0,0,,3,,,87,127
120271,note_on,0,0,0,,10,,,81,127
120271,note_on,0,0,0,,0,,,72,127
120271,note_on,0,0,0,,6,,,78,127
120401,note_off,130,0,0,,10,,,81,127
120402,note_on,1,0,0,,7,,,79,127
120532,note_off,130,0,0,,7,,,79,127
120533,note_on,1,0,0,,10,,,81,127
120663,note_off,130,0,0,,10,,,81,127
120664,note_on,1,0,0,,11,,,82,127
120794,note_off,130,0,0,,11,,,82,127
120795,note_on,1,0,0,,0,,,84,127
120925,note_off,130,0,0,,0,,,84,127
120926,note_on,1,0,0,,11,,,82,127
121056,note_off,130,0,0,,11,,,82,127
121057,note_on,1,0,0,,10,,,81,127
121101,note_on,44,0,0,,11,,,82,127
121112,note_off,11,0,0,,10,,,81,127
121143,note_off,31,0,0,,11,,,82,127
121144,note_on,1,0,0,,10,,,81,127
121186,note_off,42,0,0,,10,,,81,127
121187,note_on,1,0,0,,7,,,79,127
121317,note_off,130,0,0,,7,,,79,127
121317,note_off,0,0,0,,6,,,78,127
121317,note_off,0,0,0,,0,,,72,127
121317,note_off,0,0,0,,3,,,87,127
121318,note_on,1,0,0,,3,,,87,127
121318,note_on,0,0,0,,10,,,81,127
121318,note_on,0,0,0,,2,,,74,127
121318,note_on,0,0,0,,6,,,78,127
121448,note_off,130,0,0,,10,,,81,127
121449,note_on,1,0,0,,7,,,79,127
121579,note_off,130,0,0,,7,,,79,127
121580,note_on,1,0,0,,10,,,81,127
121710,note_off,130,0,0,,10,,,81,127
121711,note_on,1,0,0,,11,,,82,127
121841,note_off,130,0,0,,11,,,82,127
121842,note_on,1,0,0,,0,,,84,127
121972,note_off,130,0,0,,0,,,84,127
121973,note_on,1,0,0,,11,,,82,127
122103,note_off,130,0,0,,11,,,82,127
122104,note_on,1,0,0,,10,,,81,127
122148,note_on,44,0,0,,11,,,82,127
122159,note_off,11,0,0,,10,,,81,127
122190,note_off,31,0,0,,11,,,82,127
122191,note_on,1,0,0,,10,,,81,127
122233,note_off,42,0,0,,10,,,81,127
122234,note_on,1,0,0,,7,,,79,127
122364,note_off,130,0,0,,7,,,79,127
122364,note_off,0,0,0,,6,,,78,127
122364,note_off,0,0,0,,2,,,74,127
122364,note_off,0,0,0,,3,,,87,127
122365,note_on,1,0,0,,10,,,81,127
122365,note_on,0,0,0,,3,,,87,127
122365,note_on,0,0,0,,3,,,75,127
122495,note_off,130,0,0,,10,,,81,127
122496,note_on,1,0,0,,7,,,79,127
122626,note_off,130,0,0,,7,,,79,127
122627,note_on,1,0,0,,10,,,81,127
122757,note_off,130,0,0,,10,,,81,127
122758,note_on,1,0,0,,11,,,82,127
122888,note_off,130,0,0,,11,,,82,127
122889,note_on,1,0,0,,0,,,84,127
123019,note_off,130,0,0,,0,,,84,127
123020,note_on,1,0,0,,11,,,82,127
123150,note_off,130,0,0,,11,,,82,127
123151,note_on,1,0,0,,10,,,81,127
123195,note_off,44,0,0,,10,,,81,127
123195,note_on,0,0,0,,11,,,82,127
123237,note_off,42,0,0,,11,,,82,127
123238,note_on,1,0,0,,10,,,81,127
123280,note_off,42,0,0,,10,,,81,127
123281,note_on,1,0,0,,7,,,79,127
123411,note_off,130,0,0,,7,,,79,127
123411,note_off,0,0,0,,3,,,75,127
123411,note_off,0,0,0,,3,,,87,127
123412,note_on,1,0,0,,10,,,81,127
123412,note_on,0,0,0,,3,,,87,127
123412,note_on,0,0,0,,3,,,75,127
123412,note_on,0,0,0,,0,,,72,127
123542,note_off,130,0,0,,10,,,81,127
123543,note_on,1,0,0,,7,,,79,127
123673,note_off,130,0,0,,7,,,79,127
123674,note_on,1,0,0,,10,,,81,127
123804,note_off,130,0,0,,10,,,81,127
123805,note_on,1,0,0,,11,,,82,127
123935,note_off,130,0,0,,11,,,82,127
123936,note_on,1,0,0,,0,,,84,127
124066,note_off,130,0,0,,0,,,84,127
124067,note_on,1,0,0,,11,,,82,127
124197,note_off,130,0,0,,11,,,82,127
124198,note_on,1,0,0,,10,,,81,127
124242,note_on,44,0,0,,11,,,82,127
124252,note_off,10,0,0,,10,,,81,127
124285,note_off,33,0,0,,11,,,82,127
124286,note_on,1,0,0,,10,,,81,127
124328,note_off,42,0,0,,10,,,81,127
124329,note_on,1,0,0,,7,,,79,127
124459,note_off,130,0,0,,7,,,79,127
124459,note_off,0,0,0,,0,,,72,127
124459,note_off,0,0,0,,3,,,75,127
124459,note_off,0,0,0,,3,,,87,127
124460,note_on,1,0,0,,10,,,81,127
124460,note_on,0,0,0,,2,,,74,127
124590,note_off,130,0,0,,10,,,81,127
124591,note_on,1,0,0,,7,,,79,127
124721,note_off,130,0,0,,7,,,79,127
124722,note_on,1,0,0,,6,,,78,127
124852,note_off,130,0,0,,6,,,78,127
124853,note_on,1,0,0,,4,,,76,127
124983,note_off,130,0,0,,4,,,76,127
124983,note_off,0,0,0,,2,,,74,127
124984,note_on,1,0,0,,2,,,74,127
125115,note_on,131,0,0,,0,,,72,127
125245,note_off,130,0,0,,0,,,72,127
125246,note_on,1,0,0,,12,,,71,127
125376,note_off,130,0,0,,12,,,71,127
125377,note_on,1,0,0,,10,,,69,127
125507,note_off,130,0,0,,10,,,69,127
125507,note_off,0,0,0,,2,,,74,127
125508,note_on,1,0,0,,0,,,84,127
125508,note_on,0,0,0,,12,,,83,127
125508,note_on,0,0,0,,10,,,69,127
125508,note_on,0,0,0,,7,,,67,127
125638,note_off,130,0,0,,7,,,67,127
125638,note_off,0,0,0,,10,,,69,127
125638,note_off,0,0,0,,12,,,83,127
125638,note_off,0,0,0,,0,,,84,127
125639,note_on,1,0,0,,10,,,81,127
125639,note_on,0,0,0,,6,,,66,127
125769,note_off,130,0,0,,6,,,66,127
125769,note_off,0,0,0,,10,,,81,127
125770,note_on,1,0,0,,12,,,83,127
125770,note_on,0,0,0,,7,,,67,127
125900,note_off,130,0,0,,12,,,83,127
125901,note_on,1,0,0,,0,,,84,127
125901,note_on,0,0,0,,10,,,69,127
126031,note_off,130,0,0,,10,,,69,127
126031,note_off,0,0,0,,0,,,84,127
126032,note_off,1,0,0,,7,,,67,127
126032,note_on,0,0,0,,2,,,86,127
126032,note_on,0,0,0,,12,,,71,127
126162,note_off,130,0,0,,12,,,71,127
126163,note_on,1,0,0,,10,,,69,127
126293,note_off,130,0,0,,10,,,69,127
126294,note_on,1,0,0,,7,,,67,127
126424,note_off,130,0,0,,7,,,67,127
126425,note_on,1,0,0,,6,,,66,127
126555,note_off,130,0,0,,6,,,66,127
126555,note_off,0,0,0,,2,,,86,127
126556,note_on,1,0,0,,12,,,83,127
126556,note_on,0,0,0,,0,,,84,127
126556,note_on,0,0,0,,10,,,69,127
126556,note_on,0,0,0,,7,,,67,127
126556,note_on,0,0,0,,4,,,64,127
126686,note_off,130,0,0,,7,,,67,127
126686,note_off,0,0,0,,10,,,69,127
126686,note_off,0,0,0,,0,,,84,127
126686,note_off,0,0,0,,12,,,83,127
126687,note_on,1,0,0,,10,,,81,127
126687,note_on,0,0,0,,6,,,66,127
126817,note_off,130,0,0,,6,,,66,127
126817,note_off,0,0,0,,10,,,81,127
126818,note_on,1,0,0,,12,,,83,127
126818,note_on,0,0,0,,7,,,67,127
126948,note_off,130,0,0,,7,,,67,127
126948,note_off,0,0,0,,12,,,83,127
126949,note_on,1,0,0,,0,,,84,127
126949,note_on,0,0,0,,10,,,69,127
127079,note_off,130,0,0,,10,,,69,127
127079,note_off,0,0,0,,0,,,84,127
127080,note_on,1,0,0,,2,,,86,127
127080,note_on,0,0,0,,12,,,71,127
127210,note_off,130,0,0,,12,,,71,127
127211,note_on,1,0,0,,10,,,69,127
127341,note_off,130,0,0,,10,,,69,127
127342,note_on,1,0,0,,7,,,67,127
127472,note_off,130,0,0,,7,,,67,127
127473,note_on,1,0,0,,6,,,66,127
127603,note_off,130,0,0,,6,,,66,127
127603,note_off,0,0,0,,2,,,86,127
127603,note_off,0,0,0,,4,,,64,127
127604,note_on,1,0,0,,0,,,84,127
127604,note_on,0,0,0,,12,,,83,127
127604,note_on,0,0,0,,10,,,69,127
127604,note_on,0,0,0,,7,,,67,127
127604,note_on,0,0,0,,2,,,62,127
127734,note_off,130,0,0,,7,,,67,127
127734,note_off,0,0,0,,10,,,69,127
127734,note_off,0,0,0,,12,,,83,127
127734,note_off,0,0,0,,0,,,84,127
127735,note_on,1,0,0,,10,,,81,127
127735,note_on,0,0,0,,6,,,66,127
127865,note_off,130,0,0,,6,,,66,127
127865,note_off,0,0,0,,10,,,81,127
127866,note_on,1,0,0,,12,,,83,127
127866,note_on,0,0,0,,7,,,67,127
127996,note_off,130,0,0,,7,,,67,127
127996,note_off,0,0,0,,12,,,83,127
127997,note_on,1,0,0,,0,,,84,127
127997,note_on,0,0,0,,10,,,69,127
128127,note_off,130,0,0,,10,,,69,127
128127,note_off,0,0,0,,0,,,84,127
128128,note_on,1,0,0,,2,,,86,127
128128,note_on,0,0,0,,12,,,71,127
128258,note_off,130,0,0,,12,,,71,127
128259,note_on,1,0,0,,10,,,69,127
128389,note_off,130,0,0,,10,,,69,127
128390,note_on,1,0,0,,7,,,67,127
128520,note_off,130,0,0,,7,,,67,127
128521,note_on,1,0,0,,6,,,66,127
128651,note_off,130,0,0,,6,,,66,127
128651,note_off,0,0,0,,2,,,86,127
128651,note_off,0,0,0,,2,,,62,127
128652,note_on,1,0,0,,12,,,83,127
128652,note_on,0,0,0,,0,,,84,127
128652,note_on,0,0,0,,10,,,69,127
128652,note_on,0,0,0,,0,,,60,127
128652,note_on,0,0,0,,7,,,67,127
128782,note_off,130,0,0,,7,,,67,127
128782,note_off,0,0,0,,10,,,69,127
128782,note_off,0,0,0,,0,,,84,127
128782,note_off,0,0,0,,12,,,83,127
128783,note_on,1,0,0,,10,,,81,127
128783,note_on,0,0,0,,6,,,66,127
128913,note_off,130,0,0,,6,,,66,127
128913,note_off,0,0,0,,10,,,81,127
128914,note_on,1,0,0,,12,,,83,127
128914,note_on,0,0,0,,7,,,67,127
129044,note_off,130,0,0,,7,,,67,127
129044,note_off,0,0,0,,12,,,83,127
129045,note_on,1,0,0,,0,,,84,127
129045,note_on,0,0,0,,10,,,69,127
129175,note_off,130,0,0,,10,,,69,127
129175,note_off,0,0,0,,0,,,84,127
129176,note_on,1,0,0,,2,,,86,127
129176,note_on,0,0,0,,12,,,71,127
129306,note_off,130,0,0,,12,,,71,127
129307,note_on,1,0,0,,10,,,69,127
129437,note_off,130,0,0,,10,,,69,127
129438,note_on,1,0,0,,7,,,67,127
129568,note_off,130,0,0,,7,,,67,127
129569,note_on,1,0,0,,6,,,66,127
129699,note_off,130,0,0,,6,,,66,127
129699,note_off,0,0,0,,2,,,86,127
129699,note_off,0,0,0,,0,,,60,127
129700,note_on,1,0,0,,12,,,83,127
129700,note_on,0,0,0,,0,,,84,127
129700,note_on,0,0,0,,10,,,69,127
129700,note_on,0,0,0,,7,,,67,127
129700,note_on,0,0,0,,12,,,59,127
129830,note_off,130,0,0,,7,,,67,127
129830,note_off,0,0,0,,10,,,69,127
129830,note_off,0,0,0,,0,,,84,127
129830,note_off,0,0,0,,12,,,83,127
129831,note_on,1,0,0,,10,,,81,127
129831,note_on,0,0,0,,6,,,66,127
129961,note_off,130,0,0,,6,,,66,127
129961,note_off,0,0,0,,10,,,81,127
129962,note_on,1,0,0,,12,,,83,127
129962,note_on,0,0,0,,7,,,67,127
130092,note_off,130,0,0,,7,,,67,127
130092,note_off,0,0,0,,12,,,83,127
130093,note_on,1,0,0,,0,,,84,127
130093,note_on,0,0,0,,10,,,69,127
130223,note_off,130,0,0,,10,,,69,127
130223,note_off,0,0,0,,0,,,84,127
130224,note_on,1,0,0,,2,,,86,127
130224,note_on,0,0,0,,12,,,71,127
130354,note_off,130,0,0,,12,,,71,127
130355,note_on,1,0,0,,10,,,69,127
130485,note_off,130,0,0,,10,,,69,127
130485,note_off,0,0,0,,12,,,59,127
130486,note_on,1,0,0,,7,,,67,127
130616,note_off,130,0,0,,7,,,67,127
130617,note_on,1,0,0,,6,,,66,127
130747,note_off,130,0,0,,6,,,66,127
130748,note_on,1,0,0,,4,,,64,127
130878,note_off,130,0,0,,4,,,64,127
130879,note_on,1,0,0,,2,,,62,127
131009,note_off,130,0,0,,2,,,62,127
131009,note_off,0,0,0,,2,,,86,127
131010,note_on,1,0,0,,4,,,88,127
131010,note_on,0,0,0,,0,,,60,127
131140,note_off,130,0,0,,0,,,60,127
131141,note_on,1,0,0,,12,,,59,127
131271,note_off,130,0,0,,12,,,59,127
131272,note_on,1,0,0,,10,,,57,127
131402,note_off,130,0,0,,10,,,57,127
131403,note_on,1,0,0,,7,,,55,127
131533,note_off,130,0,0,,7,,,55,127
131533,note_off,0,0,0,,4,,,88,127
131534,note_on,1,0,0,,0,,,84,127
131534,note_on,0,0,0,,6,,,54,127
131664,note_off,130,0,0,,6,,,54,127
131665,note_on,1,0,0,,4,,,52,127
131795,note_off,130,0,0,,4,,,52,127
131796,note_on,1,0,0,,2,,,38,127
131926,note_off,130,0,0,,0,,,84,127
131927,note_on,1,0,0,,12,,,83,127
132057,note_off,130,0,0,,12,,,83,127
132058,note_on,1,0,0,,10,,,81,127
132188,note_off,130,0,0,,10,,,81,127
132189,note_on,1,0,0,,7,,,79,127
132319,note_off,130,0,0,,7,,,79,127
132320,note_on,1,0,0,,6,,,78,127
132450,note_off,130,0,0,,6,,,78,127
132451,note_on,1,0,0,,4,,,76,127
132581,note_off,130,0,0,,4,,,76,127
132582,note_on,1,0,0,,2,,,74,127
132712,note_off,130,0,0,,2,,,74,127
132713,note_on,1,0,0,,0,,,72,127
132843,note_off,130,0,0,,0,,,72,127
132843,note_off,0,0,0,,2,,,38,127
132844,note_on,1,0,0,,12,,,71,127
132844,note_on,0,0,0,,7,,,43,127
132974,note_off,130,0,0,,12,,,71,127
132975,note_on,1,0,0,,0,,,72,127
133105,note_off,130,0,0,,0,,,72,127
133105,note_off,0,0,0,,7,,,43,127
133106,note_on,1,0,0,,2,,,74,127
133106,note_on,0,0,0,,0,,,48,127
133236,note_off,130,0,0,,2,,,74,127
133237,note_on,1,0,0,,0,,,72,127
133367,note_off,130,0,0,,0,,,72,127
133367,note_off,0,0,0,,0,,,48,127
133368,note_on,1,0,0,,12,,,71,127
133368,note_on,0,0,0,,2,,,50,127
133498,note_off,130,0,0,,12,,,71,127
133499,note_on,1,0,0,,10,,,69,127
133629,note_off,130,0,0,,10,,,69,127
133630,note_on,1,0,0,,7,,,67,127
133630,note_on,0,0,0,,2,,,38,127
133760,note_off,130,0,0,,7,,,67,127
133761,note_on,1,0,0,,6,,,66,127
133891,note_off,130,0,0,,6,,,66,127
133891,note_off,0,0,0,,2,,,38,127
133891,note_off,0,0,0,,2,,,50,127
133892,note_on,1,0,0,,12,,,83,127
133892,note_on,0,0,0,,0,,,84,127
133892,note_on,0,0,0,,10,,,69,127
133892,note_on,0,0,0,,7,,,67,127
134022,note_off,130,0,0,,7,,,67,127
134022,note_off,0,0,0,,10,,,69,127
134022,note_off,0,0,0,,0,,,84,127
134022,note_off,0,0,0,,12,,,83,127
134023,note_on,1,0,0,,10,,,81,127
134023,note_on,0,0,0,,6,,,66,127
134153,note_off,130,0,0,,6,,,66,127
134153,note_off,0,0,0,,10,,,81,127
134154,note_on,1,0,0,,12,,,83,127
134154,note_on,0,0,0,,7,,,67,127
134284,note_off,130,0,0,,12,,,83,127
134285,note_on,1,0,0,,0,,,84,127
134285,note_on,0,0,0,,10,,,69,127
134415,note_off,130,0,0,,10,,,69,127
134415,note_off,0,0,0,,0,,,84,127
134416,note_off,1,0,0,,7,,,67,127
134416,note_on,0,0,0,,2,,,86,127
134416,note_on,0,0,0,,12,,,71,127
134546,note_off,130,0,0,,12,,,71,127
134547,note_on,1,0,0,,10,,,69,127
134677,note_off,130,0,0,,10,,,69,127
134678,note_on,1,0,0,,7,,,67,127
134808,note_off,130,0,0,,7,,,67,127
134809,note_on,1,0,0,,6,,,66,127
134939,note_off,130,0,0,,6,,,66,127
134939,note_off,0,0,0,,2,,,86,127
134940,note_on,1,0,0,,12,,,83,127
134940,note_on,0,0,0,,0,,,84,127
134940,note_on,0,0,0,,10,,,69,127
134940,note_on,0,0,0,,7,,,67,127
134940,note_on,0,0,0,,4,,,64,127
135070,note_off,130,0,0,,7,,,67,127
135070,note_off,0,0,0,,10,,,69,127
135070,note_off,0,0,0,,0,,,84,127
135070,note_off,0,0,0,,12,,,83,127
135071,note_on,1,0,0,,10,,,81,127
135071,note_on,0,0,0,,6,,,66,127
135201,note_off,130,0,0,,6,,,66,127
135201,note_off,0,0,0,,10,,,81,127
135202,note_on,1,0,0,,12,,,83,127
135202,note_on,0,0,0,,7,,,67,127
135332,note_off,130,0,0,,7,,,67,127
135332,note_off,0,0,0,,12,,,83,127
135333,note_on,1,0,0,,0,,,84,127
135333,note_on,0,0,0,,10,,,69,127
135463,note_off,130,0,0,,10,,,69,127
135463,note_off,0,0,0,,0,,,84,127
135463,note_off,0,0,0,,4,,,64,127
135464,note_on,1,0,0,,2,,,86,127
135464,note_on,0,0,0,,12,,,71,127
135594,note_off,130,0,0,,12,,,71,127
135595,note_on,1,0,0,,10,,,69,127
135725,note_off,130,0,0,,10,,,69,127
135726,note_on,1,0,0,,7,,,67,127
135856,note_off,130,0,0,,7,,,67,127
135857,note_on,1,0,0,,6,,,66,127
135987,note_off,130,0,0,,6,,,66,127
135987,note_off,0,0,0,,2,,,86,127
135988,note_on,1,0,0,,0,,,84,127
135988,note_on,0,0,0,,12,,,83,127
135988,note_on,0,0,0,,10,,,69,127
135988,note_on,0,0,0,,7,,,67,127
135988,note_on,0,0,0,,2,,,62,127
136118,note_off,130,0,0,,7,,,67,127
136118,note_off,0,0,0,,10,,,69,127
136118,note_off,0,0,0,,12,,,83,127
136118,note_off,0,0,0,,0,,,84,127
136119,note_on,1,0,0,,10,,,81,127
136119,note_on,0,0,0,,6,,,66,127
136249,note_off,130,0,0,,6,,,66,127
136249,note_off,0,0,0,,10,,,81,127
136250,note_on,1,0,0,,12,,,83,127
136250,note_on,0,0,0,,7,,,67,127
136380,note_off,130,0,0,,7,,,67,127
136380,note_off,0,0,0,,12,,,83,127
136381,note_on,1,0,0,,0,,,84,127
136381,note_on,0,0,0,,10,,,69,127
136511,note_off,130,0,0,,10,,,69,127
136511,note_off,0,0,0,,0,,,84,127
136511,note_off,0,0,0,,2,,,62,127
136512,note_on,1,0,0,,2,,,86,127
136512,note_on,0,0,0,,12,,,71,127
136642,note_off,130,0,0,,12,,,71,127
136643,note_on,1,0,0,,10,,,69,127
136773,note_off,130,0,0,,10,,,69,127
136774,note_on,1,0,0,,7,,,67,127
136904,note_off,130,0,0,,7,,,67,127
136905,note_on,1,0,0,,6,,,66,127
137035,note_off,130,0,0,,6,,,66,127
137035,note_off,0,0,0,,2,,,86,127
137036,note_on,1,0,0,,0,,,84,127
137036,note_on,0,0,0,,12,,,83,127
137036,note_on,0,0,0,,10,,,69,127
137036,note_on,0,0,0,,0,,,60,127
137036,note_on,0,0,0,,7,,,67,127
137166,note_off,130,0,0,,7,,,67,127
137166,note_off,0,0,0,,10,,,69,127
137166,note_off,0,0,0,,12,,,83,127
137166,note_off,0,0,0,,0,,,84,127
137167,note_on,1,0,0,,10,,,81,127
137167,note_on,0,0,0,,6,,,66,127
137297,note_off,130,0,0,,6,,,66,127
137297,note_off,0,0,0,,10,,,81,127
137298,note_on,1,0,0,,12,,,83,127
137298,note_on,0,0,0,,7,,,67,127
137428,note_off,130,0,0,,7,,,67,127
137428,note_off,0,0,0,,12,,,83,127
137429,note_on,1,0,0,,0,,,84,127
137429,note_on,0,0,0,,10,,,69,127
137559,note_off,130,0,0,,10,,,69,127
137559,note_off,0,0,0,,0,,,84,127
137559,note_off,0,0,0,,0,,,60,127
137560,note_on,1,0,0,,2,,,86,127
137560,note_on,0,0,0,,12,,,71,127
137690,note_off,130,0,0,,12,,,71,127
137691,note_on,1,0,0,,10,,,69,127
137821,note_off,130,0,0,,10,,,69,127
137822,note_on,1,0,0,,7,,,67,127
137952,note_off,130,0,0,,7,,,67,127
137953,note_on,1,0,0,,6,,,66,127
138083,note_off,130,0,0,,6,,,66,127
138083,note_off,0,0,0,,2,,,86,127
138084,note_on,1,0,0,,0,,,84,127
138084,note_on,0,0,0,,12,,,83,127
138084,note_on,0,0,0,,10,,,69,127
138084,note_on,0,0,0,,7,,,67,127
138084,note_on,0,0,0,,12,,,59,127
138214,note_off,130,0,0,,7,,,67,127
138214,note_off,0,0,0,,10,,,69,127
138214,note_off,0,0,0,,12,,,83,127
138214,note_off,0,0,0,,0,,,84,127
138215,note_on,1,0,0,,10,,,81,127
138215,note_on,0,0,0,,6,,,66,127
138345,note_off,130,0,0,,6,,,66,127
138345,note_off,0,0,0,,10,,,81,127
138346,note_on,1,0,0,,12,,,83,127
138346,note_on,0,0,0,,7,,,67,127
138476,note_off,130,0,0,,7,,,67,127
138476,note_off,0,0,0,,12,,,83,127
138477,note_on,1,0,0,,0,,,84,127
138477,note_on,0,0,0,,10,,,69,127
138607,note_off,130,0,0,,10,,,69,127
138607,note_off,0,0,0,,0,,,84,127
138607,note_off,0,0,0,,12,,,59,127
138608,note_on,1,0,0,,2,,,86,127
138608,note_on,0,0,0,,12,,,71,127
138738,note_off,130,0,0,,12,,,71,127
138739,note_on,1,0,0,,10,,,69,127
138869,note_off,130,0,0,,10,,,69,127
138870,note_on,1,0,0,,7,,,67,127
139000,note_off,130,0,0,,7,,,67,127
139001,note_on,1,0,0,,6,,,66,127
139131,note_off,130,0,0,,6,,,66,127
139132,note_on,1,0,0,,4,,,64,127
139262,note_off,130,0,0,,4,,,64,127
139263,note_on,1,0,0,,2,,,62,127
139393,note_off,130,0,0,,2,,,62,127
139393,note_off,0,0,0,,2,,,86,127
139394,note_on,1,0,0,,4,,,88,127
139394,note_on,0,0,0,,0,,,60,127
139524,note_off,130,0,0,,0,,,60,127
139525,note_on,1,0,0,,12,,,59,127
139655,note_off,130,0,0,,12,,,59,127
139656,note_on,1,0,0,,10,,,57,127
139786,note_off,130,0,0,,10,,,57,127
139787,note_on,1,0,0,,7,,,55,127
139917,note_off,130,0,0,,7,,,55,127
139917,note_off,0,0,0,,4,,,88,127
139918,note_on,1,0,0,,0,,,84,127
139918,note_on,0,0,0,,6,,,54,127
140048,note_off,130,0,0,,6,,,54,127
140049,note_on,1,0,0,,4,,,52,127
140179,note_off,130,0,0,,4,,,52,127
140180,note_on,1,0,0,,2,,,38,127
140310,note_off,130,0,0,,0,,,84,127
140311,note_on,1,0,0,,12,,,83,127
140441,note_off,130,0,0,,12,,,83,127
140442,note_on,1,0,0,,10,,,81,127
140572,note_off,130,0,0,,10,,,81,127
140573,note_on,1,0,0,,7,,,79,127
140703,note_off,130,0,0,,7,,,79,127
140704,note_on,1,0,0,,6,,,78,127
140834,note_off,130,0,0,,6,,,78,127
140835,note_on,1,0,0,,4,,,76,127
140965,note_off,130,0,0,,4,,,76,127
140966,note_on,1,0,0,,2,,,74,127
141096,note_off,130,0,0,,2,,,74,127
141097,note_on,1,0,0,,0,,,72,127
141135,note_off,38,0,0,,2,,,38,127
141226,note_off,91,0,0,,0,,,72,127
141227,note_on,1,0,0,,12,,,71,127
141227,note_on,0,0,0,,7,,,43,127
141357,note_off,130,0,0,,12,,,71,127
141358,note_on,1,0,0,,0,,,72,127
141488,note_off,130,0,0,,0,,,72,127
141488,note_off,0,0,0,,7,,,43,127
141489,note_on,1,0,0,,2,,,74,127
141489,note_on,0,0,0,,0,,,48,127
141619,note_off,130,0,0,,2,,,74,127
141620,note_on,1,0,0,,0,,,72,127
141750,note_off,130,0,0,,0,,,72,127
141750,note_off,0,0,0,,0,,,48,127
141751,note_on,1,0,0,,12,,,71,127
141751,note_on,0,0,0,,2,,,50,127
141881,note_off,130,0,0,,12,,,71,127
141882,note_on,1,0,0,,10,,,69,127
142012,note_off,130,0,0,,10,,,69,127
142013,note_on,1,0,0,,7,,,67,127
142013,note_on,0,0,0,,2,,,38,127
142143,note_off,130,0,0,,7,,,67,127
142144,note_on,1,0,0,,6,,,66,127
142274,note_off,130,0,0,,6,,,66,127
142274,note_off,0,0,0,,2,,,38,127
142274,note_off,0,0,0,,2,,,50,127
142275,note_on,1,0,0,,7,,,67,127
142275,note_on,0,0,0,,7,,,43,127
142405,note_off,130,0,0,,7,,,67,127
142406,note_on,1,0,0,,12,,,71,127
142536,note_off,130,0,0,,12,,,71,127
142537,note_on,1,0,0,,0,,,72,127
142667,note_off,130,0,0,,0,,,72,127
142668,note_on,1,0,0,,10,,,69,127
142798,note_off,130,0,0,,10,,,69,127
142799,note_on,1,0,0,,12,,,71,127
142929,note_off,130,0,0,,12,,,71,127
142930,note_on,1,0,0,,2,,,74,127
143060,note_off,130,0,0,,2,,,74,127
143061,note_on,1,0,0,,4,,,76,127
143191,note_off,130,0,0,,4,,,76,127
143192,note_on,1,0,0,,0,,,72,127
143322,note_off,130,0,0,,0,,,72,127
143322,note_off,0,0,0,,7,,,43,127
143323,note_on,1,0,0,,2,,,74,127
143323,note_on,0,0,0,,7,,,43,127
143453,note_off,130,0,0,,2,,,74,127
143454,note_on,1,0,0,,7,,,79,127
143584,note_off,130,0,0,,7,,,79,127
143585,note_on,1,0,0,,10,,,81,127
143715,note_off,130,0,0,,10,,,81,127
143716,note_on,1,0,0,,6,,,78,127
143846,note_off,130,0,0,,6,,,78,127
143847,note_on,1,0,0,,7,,,79,127
143977,note_off,130,0,0,,7,,,79,127
143978,note_on,1,0,0,,2,,,74,127
144108,note_off,130,0,0,,2,,,74,127
144109,note_on,1,0,0,,4,,,76,127
144239,note_off,130,0,0,,4,,,76,127
144240,note_on,1,0,0,,6,,,78,127
144370,note_off,130,0,0,,6,,,78,127
144370,note_off,0,0,0,,7,,,43,127
144371,note_on,1,0,0,,4,,,76,127
144371,note_on,0,0,0,,0,,,36,127
144501,note_off,130,0,0,,4,,,76,127
144502,note_on,1,0,0,,12,,,71,127
144632,note_off,130,0,0,,12,,,71,127
144632,note_off,0,0,0,,0,,,36,127
144633,note_on,1,0,0,,0,,,72,127
144633,note_on,0,0,0,,0,,,48,127
144763,note_off,130,0,0,,0,,,72,127
144764,note_on,1,0,0,,2,,,74,127
144894,note_off,130,0,0,,2,,,74,127
144894,note_off,0,0,0,,0,,,48,127
144895,note_on,1,0,0,,12,,,71,127
144895,note_on,0,0,0,,2,,,50,127
145025,note_off,130,0,0,,12,,,71,127
145026,note_on,1,0,0,,7,,,67,127
145156,note_off,130,0,0,,7,,,67,127
145157,note_on,1,0,0,,10,,,69,127
145157,note_on,0,0,0,,2,,,38,127
145287,note_off,130,0,0,,10,,,69,127
145288,note_on,1,0,0,,6,,,66,127
145418,note_off,130,0,0,,6,,,66,127
145418,note_off,0,0,0,,2,,,38,127
145418,note_off,0,0,0,,2,,,50,127
145419,note_on,1,0,0,,7,,,67,127
145419,note_on,0,0,0,,7,,,43,127
145549,note_off,130,0,0,,7,,,67,127
145550,note_on,1,0,0,,12,,,71,127
145680,note_off,130,0,0,,12,,,71,127
145681,note_on,1,0,0,,0,,,72,127
145811,note_off,130,0,0,,0,,,72,127
145812,note_on,1,0,0,,10,,,69,127
145942,note_off,130,0,0,,10,,,69,127
145942,note_off,0,0,0,,7,,,43,127
145943,note_on,1,0,0,,12,,,71,127
146073,note_off,130,0,0,,12,,,71,127
146074,note_on,1,0,0,,7,,,67,127
146204,note_off,130,0,0,,7,,,67,127
146205,note_on,1,0,0,,10,,,69,127
146335,note_off,130,0,0,,10,,,69,127
146336,note_on,1,0,0,,6,,,66,127
146466,note_off,130,0,0,,6,,,66,127
146467,note_on,1,0,0,,10,,,81,127
146467,note_on,0,0,0,,7,,,67,127
146509,note_off,42,0,0,,10,,,81,127
146510,note_on,1,0,0,,7,,,79,127
146552,note_off,42,0,0,,7,,,79,127
146553,note_on,1,0,0,,10,,,81,127
146595,note_off,42,0,0,,10,,,81,127
146595,note_off,0,0,0,,7,,,67,127
146596,note_on,1,0,0,,7,,,79,127
146596,note_on,0,0,0,,2,,,62,127
146726,note_off,130,0,0,,2,,,62,127
146727,note_on,1,0,0,,4,,,64,127
146857,note_off,130,0,0,,4,,,64,127
146858,note_on,1,0,0,,0,,,60,127
146988,note_off,130,0,0,,0,,,60,127
146989,note_on,1,0,0,,2,,,62,127
147119,note_off,130,0,0,,2,,,62,127
147120,note_on,1,0,0,,12,,,59,127
147250,note_off,130,0,0,,12,,,59,127
147251,note_on,1,0,0,,0,,,60,127
147381,note_off,130,0,0,,0,,,60,127
147382,note_on,1,0,0,,10,,,57,127
147512,note_off,130,0,0,,10,,,57,127
147512,note_off,0,0,0,,7,,,79,127
147513,note_on,1,0,0,,10,,,81,127
147513,note_on,0,0,0,,12,,,59,127
147555,note_off,42,0,0,,10,,,81,127
147556,note_on,1,0,0,,7,,,79,127
147598,note_off,42,0,0,,7,,,79,127
147599,note_on,1,0,0,,10,,,81,127
147641,note_off,42,0,0,,10,,,81,127
147641,note_off,0,0,0,,12,,,59,127
147642,note_on,1,0,0,,7,,,79,127
147642,note_on,0,0,0,,7,,,55,127
147772,note_off,130,0,0,,7,,,55,127
147773,note_on,1,0,0,,10,,,57,127
147903,note_off,130,0,0,,10,,,57,127
147904,note_on,1,0,0,,6,,,54,127
148034,note_off,130,0,0,,6,,,54,127
148035,note_on,1,0,0,,7,,,55,127
148165,note_off,130,0,0,,7,,,55,127
148166,note_on,1,0,0,,2,,,50,127
148296,note_off,130,0,0,,2,,,50,127
148297,note_on,1,0,0,,4,,,52,127
148427,note_off,130,0,0,,4,,,52,127
148428,note_on,1,0,0,,0,,,48,127
148558,note_off,130,0,0,,0,,,48,127
148558,note_off,0,0,0,,7,,,79,127
148559,note_on,1,0,0,,10,,,81,127
148559,note_on,0,0,0,,2,,,50,127
148601,note_off,42,0,0,,10,,,81,127
148602,note_on,1,0,0,,7,,,79,127
148644,note_off,42,0,0,,7,,,79,127
148645,note_on,1,0,0,,10,,,81,127
148687,note_off,42,0,0,,10,,,81,127
148687,note_off,0,0,0,,2,,,50,127
148688,note_on,1,0,0,,7,,,79,127
148688,note_on,0,0,0,,12,,,47,127
148818,note_off,130,0,0,,12,,,47,127
148819,note_on,1,0,0,,0,,,48,127
148949,note_off,130,0,0,,0,,,48,127
148950,note_on,1,0,0,,10,,,45,127
149080,note_off,130,0,0,,10,,,45,127
149081,note_on,1,0,0,,12,,,47,127
149211,note_off,130,0,0,,12,,,47,127
149212,note_on,1,0,0,,7,,,43,127
149342,note_off,130,0,0,,7,,,43,127
149343,note_on,1,0,0,,10,,,45,127
149473,note_off,130,0,0,,10,,,45,127
149474,note_on,1,0,0,,6,,,42,127
149604,note_off,130,0,0,,6,,,42,127
149605,note_on,1,0,0,,7,,,43,127
149735,note_off,130,0,0,,7,,,79,127
149736,note_on,1,0,0,,7,,,67,127
149866,note_off,130,0,0,,7,,,67,127
149867,note_on,1,0,0,,12,,,71,127
149997,note_off,130,0,0,,12,,,71,127
149998,note_on,1,0,0,,2,,,74,127
150128,note_off,130,0,0,,2,,,74,127
150129,note_on,1,0,0,,7,,,79,127
150259,note_off,130,0,0,,7,,,79,127
150260,note_on,1,0,0,,7,,,79,127
150390,note_off,130,0,0,,7,,,79,127
150391,note_on,1,0,0,,12,,,83,127
150521,note_off,130,0,0,,12,,,83,127
150522,note_on,1,0,0,,2,,,86,127
150652,note_off,130,0,0,,2,,,86,127
150652,note_off,0,0,0,,7,,,43,127
150653,note_on,1,0,0,,7,,,91,127
150653,note_on,0,0,0,,7,,,43,127
150913,note_off,260,0,0,,7,,,91,127
150914,note_on,1,0,0,,7,,,79,127
151174,note_off,260,0,0,,7,,,79,127
151174,note_off,0,0,0,,7,,,43,127
151175,note_on,1,0,0,,12,,,83,127
151175,note_on,0,0,0,,7,,,79,127
151175,note_on,0,0,0,,2,,,38,127
151228,note_off,53,0,0,,7,,,79,127
151228,note_off,0,0,0,,12,,,83,127
151229,note_on,1,0,0,,6,,,78,127
151229,note_on,0,0,0,,10,,,81,127
151282,note_off,53,0,0,,10,,,81,127
151282,note_off,0,0,0,,6,,,78,127
151283,note_on,1,0,0,,7,,,79,127
151283,note_on,0,0,0,,12,,,83,127
151336,note_off,53,0,0,,12,,,83,127
151336,note_off,0,0,0,,7,,,79,127
151337,note_on,1,0,0,,10,,,81,127
151337,note_on,0,0,0,,6,,,78,127
151696,note_off,359,0,0,,6,,,78,127
151696,note_off,0,0,0,,10,,,81,127
151696,note_off,0,0,0,,2,,,38,127
151697,note_on,1,0,0,,7,,,79,127
151697,note_on,0,0,0,,7,,,31,127
151827,note_off,130,0,0,,7,,,79,127
151828,note_on,1,0,0,,7,,,67,127
151958,note_off,130,0,0,,7,,,67,127
151959,note_on,1,0,0,,12,,,71,127
152089,note_off,130,0,0,,12,,,71,127
152090,note_on,1,0,0,,2,,,74,127
152220,note_off,130,0,0,,2,,,74,127
152221,note_on,1,0,0,,7,,,79,127
152351,note_off,130,0,0,,7,,,79,127
152352,note_on,1,0,0,,7,,,79,127
152482,note_off,130,0,0,,7,,,79,127
152483,note_on,1,0,0,,12,,,83,127
152613,note_off,130,0,0,,12,,,83,127
152614,note_on,1,0,0,,2,,,86,127
152744,note_off,130,0,0,,2,,,86,127
152744,note_off,0,0,0,,7,,,31,127
152745,note_on,1,0,0,,7,,,91,127
152745,note_on,0,0,0,,7,,,43,127
153005,note_off,260,0,0,,7,,,91,127
153006,note_on,1,0,0,,7,,,55,127
153266,note_off,260,0,0,,7,,,55,127
153266,note_off,0,0,0,,7,,,43,127
153267,note_on,1,0,0,,12,,,59,127
153267,note_on,0,0,0,,7,,,55,127
153267,note_on,0,0,0,,2,,,38,127
153320,note_off,53,0,0,,7,,,55,127
153320,note_off,0,0,0,,12,,,59,127
153321,note_on,1,0,0,,10,,,57,127
153321,note_on,0,0,0,,6,,,54,127
153374,note_off,53,0,0,,6,,,54,127
153374,note_off,0,0,0,,10,,,57,127
153375,note_on,1,0,0,,12,,,59,127
153375,note_on,0,0,0,,7,,,55,127
153428,note_off,53,0,0,,7,,,55,127
153428,note_off,0,0,0,,12,,,59,127
153429,note_on,1,0,0,,10,,,57,127
153429,note_on,0,0,0,,6,,,54,127
153788,note_off,359,0,0,,6,,,54,127
153788,note_off,0,0,0,,10,,,57,127
153788,note_off,0,0,0,,2,,,38,127
153789,note_on,1,0,0,,7,,,55,127
153789,note_on,0,0,0,,7,,,31,127
155882,note_off,2093,0,0,,7,,,31,127
155882,note_off,0,0,0,,7,,,55,127
156672,end_of_track,790,1,0,,,,,,
