tick,type,time,meta,track,program,channel,pitch,tempo,note,velocity
0,copyright,0,1,0,,,,,,
0,program_change,0,0,0,6,0,,,,
0,pitchwheel,0,0,0,,0,0,,,
0,program_change,0,0,0,6,1,,,,
0,pitchwheel,0,0,0,,1,-590,,,
0,program_change,0,0,0,6,2,,,,
0,pitchwheel,0,0,0,,2,-272,,,
0,program_change,0,0,0,6,3,,,,
0,pitchwheel,0,0,0,,3,-353,,,
0,program_change,0,0,0,6,4,,,,
0,pitchwheel,0,0,0,,4,-560,,,
0,program_change,0,0,0,6,5,,,,
0,pitchwheel,0,0,0,,5,-80,,,
0,program_change,0,0,0,6,6,,,,
0,pitchwheel,0,0,0,,6,-625,,,
0,program_change,0,0,0,6,7,,,,
0,pitchwheel,0,0,0,,7,-130,,,
0,program_change,0,0,0,6,8,,,,
0,pitchwheel,0,0,0,,8,-512,,,
0,program_change,0,0,0,6,10,,,,
0,pitchwheel,0,0,0,,10,-464,,,
0,program_change,0,0,0,6,11,,,,
0,pitchwheel,0,0,0,,11,-208,,,
0,program_change,0,0,0,6,12,,,,
0,pitchwheel,0,0,0,,12,-553,,,
0,set_tempo,0,1,0,,,,500000,,
271,note_on,271,0,0,,7,,,67,127
271,note_on,0,0,0,,7,,,79,127
541,note_off,270,0,0,,7,,,67,127
542,note_on,1,0,0,,10,,,69,127
812,note_off,270,0,0,,10,,,69,127
812,note_off,0,0,0,,7,,,79,127
813,note_on,1,0,0,,6,,,78,127
813,note_on,0,0,0,,12,,,71,127
1083,note_off,270,0,0,,12,,,71,127
1083,note_off,0,0,0,,6,,,78,127
1084,note_on,1,0,0,,4,,,76,127
1084,note_on,0,0,0,,0,,,72,127
1354,note_off,270,0,0,,0,,,72,127
1354,note_off,0,0,0,,4,,,76,127
1355,note_on,1,0,0,,2,,,74,127
1355,note_on,0,0,0,,12,,,71,127
1625,note_off,270,0,0,,12,,,71,127
1625,note_off,0,0,0,,2,,,74,127
1626,note_on,1,0,0,,0,,,72,127
1626,note_on,0,0,0,,10,,,69,127
1896,note_off,270,0,0,,10,,,69,127
1896,note_off,0,0,0,,0,,,72,127
1897,note_on,1,0,0,,12,,,71,127
1897,note_on,0,0,0,,7,,,67,127
2167,note_off,270,0,0,,7,,,67,127
2167,note_off,0,0,0,,12,,,71,127
2168,note_on,1,0,0,,6,,,66,127
2168,note_on,0,0,0,,10,,,69,127
2438,note_off,270,0,0,,10,,,69,127
2438,note_off,0,0,0,,6,,,66,127
2439,note_on,1,0,0,,12,,,71,127
2439,note_on,0,0,0,,7,,,67,127
2709,note_off,270,0,0,,7,,,67,127
2709,note_off,0,0,0,,12,,,71,127
2710,note_on,1,0,0,,2,,,62,127
2710,note_on,0,0,0,,12,,,71,127
2755,note_on,45,0,0,,10,,,69,127
2756,note_off,1,0,0,,12,,,71,127
2800,note_on,44,0,0,,12,,,71,127
2801,note_off,1,0,0,,10,,,69,127
2845,note_on,44,0,0,,10,,,69,127
2846,note_off,1,0,0,,12,,,71,127
3250,note_off,404,0,0,,10,,,69,127
3250,note_off,0,0,0,,2,,,62,127
3251,note_on,1,0,0,,12,,,71,127
3251,note_on,0,0,0,,7,,,67,127
3521,note_off,270,0,0,,7,,,67,127
3521,note_off,0,0,0,,12,,,71,127
3522,note_on,1,0,0,,10,,,69,127
3522,note_on,0,0,0,,0,,,72,127
3792,note_off,270,0,0,,10,,,69,127
3793,note_on,1,0,0,,6,,,66,127
4063,note_off,270,0,0,,6,,,66,127
4063,note_off,0,0,0,,0,,,72,127
4064,note_on,1,0,0,,7,,,67,127
4064,note_on,0,0,0,,12,,,71,127
4334,note_off,270,0,0,,12,,,71,127
4334,note_off,0,0,0,,7,,,67,127
4335,note_on,1,0,0,,2,,,62,127
4335,note_on,0,0,0,,12,,,71,127
4379,note_off,44,0,0,,12,,,71,127
4380,note_on,1,0,0,,10,,,69,127
4425,note_on,45,0,0,,12,,,71,127
4426,note_off,1,0,0,,10,,,69,127
4470,note_on,44,0,0,,10,,,69,127
4471,note_off,1,0,0,,12,,,71,127
4739,note_off,268,0,0,,10,,,69,127
4740,note_on,1,0,0,,7,,,67,127
4874,note_off,134,0,0,,7,,,67,127
4874,note_off,0,0,0,,2,,,62,127
4875,note_on,1,0,0,,10,,,69,127
5009,note_off,134,0,0,,10,,,69,127
5010,note_on,1,0,0,,12,,,71,127
5144,note_off,134,0,0,,12,,,71,127
5145,note_on,1,0,0,,0,,,72,127
5145,note_on,0,0,0,,10,,,69,127
5415,note_off,270,0,0,,10,,,69,127
5416,note_on,1,0,0,,6,,,66,127
5686,note_off,270,0,0,,6,,,66,127
5686,note_off,0,0,0,,0,,,72,127
5687,note_on,1,0,0,,12,,,71,127
5687,note_on,0,0,0,,7,,,67,127
5957,note_off,270,0,0,,7,,,67,127
5957,note_off,0,0,0,,12,,,71,127
5958,note_on,1,0,0,,2,,,62,127
5958,note_on,0,0,0,,12,,,71,127
6002,note_off,44,0,0,,12,,,71,127
6003,note_on,1,0,0,,10,,,69,127
6048,note_on,45,0,0,,12,,,71,127
6049,note_off,1,0,0,,10,,,69,127
6093,note_on,44,0,0,,10,,,69,127
6094,note_off,1,0,0,,12,,,71,127
6769,note_off,675,0,0,,10,,,69,127
6769,note_off,0,0,0,,2,,,62,127
6770,note_on,1,0,0,,7,,,79,127
6770,note_on,0,0,0,,7,,,55,127
6770,note_on,0,0,0,,7,,,67,127
7040,note_off,270,0,0,,7,,,55,127
7041,note_on,1,0,0,,10,,,57,127
7311,note_off,270,0,0,,10,,,57,127
7311,note_off,0,0,0,,7,,,67,127
7312,note_on,1,0,0,,12,,,59,127
7312,note_on,0,0,0,,6,,,66,127
7582,note_off,270,0,0,,6,,,66,127
7582,note_off,0,0,0,,12,,,59,127
7582,note_off,0,0,0,,7,,,79,127
7583,note_on,1,0,0,,7,,,79,127
7583,note_on,0,0,0,,4,,,64,127
7583,note_on,0,0,0,,0,,,60,127
7853,note_off,270,0,0,,0,,,60,127
7853,note_off,0,0,0,,4,,,64,127
7854,note_on,1,0,0,,12,,,59,127
7854,note_on,0,0,0,,2,,,62,127
8124,note_off,270,0,0,,2,,,62,127
8124,note_off,0,0,0,,12,,,59,127
8125,note_on,1,0,0,,10,,,57,127
8125,note_on,0,0,0,,0,,,60,127
8395,note_off,270,0,0,,0,,,60,127
8395,note_off,0,0,0,,10,,,57,127
8395,note_off,0,0,0,,7,,,79,127
8396,note_on,1,0,0,,4,,,76,127
8396,note_on,0,0,0,,12,,,59,127
8396,note_on,0,0,0,,7,,,55,127
8440,note_off,44,0,0,,4,,,76,127
8441,note_on,1,0,0,,2,,,74,127
8486,note_on,45,0,0,,4,,,76,127
8487,note_off,1,0,0,,2,,,74,127
8531,note_on,44,0,0,,2,,,74,127
8532,note_off,1,0,0,,4,,,76,127
8665,note_off,133,0,0,,7,,,55,127
8665,note_off,0,0,0,,12,,,59,127
8666,note_on,1,0,0,,6,,,54,127
8666,note_on,0,0,0,,10,,,57,127
8936,note_off,270,0,0,,10,,,57,127
8936,note_off,0,0,0,,6,,,54,127
8937,note_on,1,0,0,,7,,,55,127
8937,note_on,0,0,0,,12,,,59,127
9207,note_off,270,0,0,,12,,,59,127
9207,note_off,0,0,0,,7,,,55,127
9207,note_off,0,0,0,,2,,,74,127
9208,note_on,1,0,0,,2,,,74,127
9208,note_on,0,0,0,,2,,,50,127
9208,note_on,0,0,0,,12,,,59,127
9252,note_off,44,0,0,,12,,,59,127
9253,note_on,1,0,0,,10,,,57,127
9298,note_on,45,0,0,,12,,,59,127
9299,note_off,1,0,0,,10,,,57,127
9343,note_on,44,0,0,,10,,,57,127
9344,note_off,1,0,0,,12,,,59,127
9748,note_off,404,0,0,,10,,,57,127
9748,note_off,0,0,0,,2,,,50,127
9749,note_on,1,0,0,,7,,,55,127
9749,note_on,0,0,0,,12,,,59,127
10019,note_off,270,0,0,,12,,,59,127
10019,note_off,0,0,0,,7,,,55,127
10019,note_off,0,0,0,,2,,,74,127
10020,note_on,1,0,0,,4,,,76,127
10020,note_on,0,0,0,,10,,,57,127
10020,note_on,0,0,0,,0,,,60,127
10064,note_off,44,0,0,,4,,,76,127
10065,note_on,1,0,0,,2,,,74,127
10110,note_on,45,0,0,,4,,,76,127
10111,note_off,1,0,0,,2,,,74,127
10155,note_on,44,0,0,,2,,,74,127
10156,note_off,1,0,0,,4,,,76,127
10289,note_off,133,0,0,,10,,,57,127
10290,note_on,1,0,0,,6,,,54,127
10560,note_off,270,0,0,,6,,,54,127
10560,note_off,0,0,0,,0,,,60,127
10561,note_on,1,0,0,,7,,,55,127
10561,note_on,0,0,0,,12,,,59,127
10831,note_off,270,0,0,,12,,,59,127
10831,note_off,0,0,0,,7,,,55,127
10831,note_off,0,0,0,,2,,,74,127
10832,note_on,1,0,0,,2,,,74,127
10832,note_on,0,0,0,,2,,,50,127
10832,note_on,0,0,0,,12,,,59,127
10876,note_off,44,0,0,,12,,,59,127
10877,note_on,1,0,0,,10,,,57,127
10922,note_on,45,0,0,,12,,,59,127
10923,note_off,1,0,0,,10,,,57,127
10967,note_on,44,0,0,,10,,,57,127
10968,note_off,1,0,0,,12,,,59,127
11236,note_off,268,0,0,,10,,,57,127
11237,note_on,1,0,0,,7,,,55,127
11371,note_off,134,0,0,,7,,,55,127
11371,note_off,0,0,0,,2,,,50,127
11372,note_on,1,0,0,,10,,,57,127
11506,note_off,134,0,0,,10,,,57,127
11507,note_on,1,0,0,,12,,,59,127
11641,note_off,134,0,0,,12,,,59,127
11641,note_off,0,0,0,,2,,,74,127
11642,note_on,1,0,0,,4,,,76,127
11642,note_on,0,0,0,,10,,,57,127
11642,note_on,0,0,0,,0,,,60,127
11686,note_off,44,0,0,,4,,,76,127
11687,note_on,1,0,0,,2,,,74,127
11732,note_on,45,0,0,,4,,,76,127
11733,note_off,1,0,0,,2,,,74,127
11777,note_on,44,0,0,,2,,,74,127
11778,note_off,1,0,0,,4,,,76,127
11911,note_off,133,0,0,,10,,,57,127
11912,note_on,1,0,0,,6,,,54,127
12182,note_off,270,0,0,,6,,,54,127
12182,note_off,0,0,0,,0,,,60,127
12183,note_on,1,0,0,,7,,,55,127
12183,note_on,0,0,0,,12,,,59,127
12453,note_off,270,0,0,,12,,,59,127
12453,note_off,0,0,0,,7,,,55,127
12453,note_off,0,0,0,,2,,,74,127
12454,note_on,1,0,0,,2,,,74,127
12454,note_on,0,0,0,,2,,,50,127
12454,note_on,0,0,0,,12,,,59,127
12498,note_off,44,0,0,,12,,,59,127
12499,note_on,1,0,0,,10,,,57,127
12544,note_on,45,0,0,,12,,,59,127
12545,note_off,1,0,0,,10,,,57,127
12589,note_on,44,0,0,,10,,,57,127
12590,note_off,1,0,0,,12,,,59,127
13265,note_off,675,0,0,,10,,,57,127
13265,note_off,0,0,0,,2,,,50,127
13265,note_off,0,0,0,,2,,,74,127
13266,note_on,1,0,0,,6,,,66,127
13266,note_on,0,0,0,,2,,,62,127
13355,note_off,89,0,0,,2,,,62,127
13356,note_on,1,0,0,,2,,,62,127
13445,note_off,89,0,0,,6,,,66,127
13446,note_on,1,0,0,,6,,,66,127
13535,note_off,89,0,0,,6,,,66,127
13535,note_off,0,0,0,,2,,,62,127
13536,note_on,1,0,0,,7,,,67,127
13536,note_on,0,0,0,,4,,,64,127
13625,note_off,89,0,0,,4,,,64,127
13626,note_on,1,0,0,,4,,,64,127
13715,note_off,89,0,0,,7,,,67,127
13716,note_on,1,0,0,,7,,,67,127
13805,note_off,89,0,0,,7,,,67,127
13805,note_off,0,0,0,,4,,,64,127
13806,note_on,1,0,0,,10,,,69,127
13806,note_on,0,0,0,,6,,,66,127
13895,note_off,89,0,0,,6,,,66,127
13896,note_on,1,0,0,,6,,,66,127
13985,note_off,89,0,0,,10,,,69,127
13986,note_on,1,0,0,,10,,,69,127
14075,note_off,89,0,0,,10,,,69,127
14075,note_off,0,0,0,,6,,,66,127
14076,note_on,1,0,0,,12,,,71,127
14076,note_on,0,0,0,,7,,,67,127
14165,note_off,89,0,0,,7,,,67,127
14166,note_on,1,0,0,,7,,,67,127
14255,note_off,89,0,0,,12,,,71,127
14256,note_on,1,0,0,,12,,,71,127
14345,note_off,89,0,0,,12,,,71,127
14345,note_off,0,0,0,,7,,,67,127
14346,note_on,1,0,0,,1,,,73,127
14346,note_on,0,0,0,,4,,,64,127
14436,note_on,90,0,0,,10,,,69,127
14525,note_off,89,0,0,,1,,,73,127
14526,note_on,1,0,0,,1,,,73,127
14615,note_off,89,0,0,,1,,,73,127
14615,note_off,0,0,0,,10,,,69,127
14615,note_off,0,0,0,,4,,,64,127
14616,note_on,1,0,0,,2,,,74,127
14616,note_on,0,0,0,,6,,,66,127
14706,note_on,90,0,0,,10,,,69,127
14795,note_off,89,0,0,,2,,,74,127
14796,note_on,1,0,0,,2,,,74,127
14885,note_off,89,0,0,,2,,,74,127
14885,note_off,0,0,0,,10,,,69,127
14885,note_off,0,0,0,,6,,,66,127
14886,note_on,1,0,0,,4,,,76,127
14886,note_on,0,0,0,,1,,,61,127
14976,note_on,90,0,0,,10,,,69,127
15065,note_off,89,0,0,,4,,,76,127
15066,note_on,1,0,0,,4,,,76,127
15155,note_off,89,0,0,,4,,,76,127
15155,note_off,0,0,0,,10,,,69,127
15155,note_off,0,0,0,,1,,,61,127
15156,note_on,1,0,0,,6,,,78,127
15156,note_on,0,0,0,,2,,,74,127
15156,note_on,0,0,0,,2,,,62,127
15426,note_off,270,0,0,,2,,,62,127
15426,note_off,0,0,0,,2,,,74,127
15426,note_off,0,0,0,,6,,,78,127
15427,note_on,1,0,0,,4,,,76,127
15427,note_on,0,0,0,,7,,,79,127
15427,note_on,0,0,0,,7,,,55,127
15697,note_off,270,0,0,,7,,,55,127
15697,note_off,0,0,0,,7,,,79,127
15697,note_off,0,0,0,,4,,,76,127
15698,note_on,1,0,0,,2,,,74,127
15698,note_on,0,0,0,,6,,,78,127
15698,note_on,0,0,0,,10,,,57,127
15968,note_off,270,0,0,,10,,,57,127
15968,note_off,0,0,0,,6,,,78,127
15968,note_off,0,0,0,,2,,,74,127
15969,note_on,1,0,0,,1,,,73,127
15969,note_on,0,0,0,,4,,,76,127
15969,note_on,0,0,0,,10,,,45,127
16103,note_off,134,0,0,,4,,,76,127
16103,note_off,0,0,0,,1,,,73,127
16104,note_on,1,0,0,,12,,,71,127
16104,note_on,0,0,0,,2,,,74,127
16238,note_off,134,0,0,,2,,,74,127
16238,note_off,0,0,0,,12,,,71,127
16239,note_on,1,0,0,,4,,,76,127
16239,note_on,0,0,0,,10,,,69,127
16509,note_off,270,0,0,,10,,,69,127
16509,note_off,0,0,0,,4,,,76,127
16509,note_off,0,0,0,,10,,,45,127
16510,note_on,1,0,0,,6,,,78,127
16599,note_off,89,0,0,,6,,,78,127
16600,note_on,1,0,0,,7,,,79,127
16689,note_off,89,0,0,,7,,,79,127
16690,note_on,1,0,0,,10,,,81,127
16780,note_on,90,0,0,,6,,,66,127
16869,note_off,89,0,0,,6,,,66,127
16870,note_on,1,0,0,,7,,,67,127
16959,note_off,89,0,0,,7,,,67,127
16960,note_off,1,0,0,,10,,,81,127
16960,note_on,0,0,0,,10,,,69,127
17050,note_on,90,0,0,,10,,,57,127
17231,note_off,181,0,0,,10,,,69,127
17320,note_off,89,0,0,,10,,,57,127
17321,note_on,1,0,0,,1,,,73,127
17321,note_on,0,0,0,,10,,,69,127
17321,note_on,0,0,0,,7,,,79,127
17321,note_on,0,0,0,,4,,,76,127
17321,note_on,0,0,0,,10,,,33,127
17321,note_on,0,0,0,,10,,,45,127
17591,note_off,270,0,0,,7,,,79,127
17592,note_on,1,0,0,,6,,,78,127
17862,note_off,270,0,0,,6,,,78,127
17862,note_off,0,0,0,,4,,,76,127
17862,note_off,0,0,0,,10,,,69,127
17862,note_off,0,0,0,,1,,,73,127
17863,note_on,1,0,0,,4,,,76,127
18133,note_off,270,0,0,,4,,,76,127
18133,note_off,0,0,0,,10,,,45,127
18133,note_off,0,0,0,,10,,,33,127
18134,note_on,1,0,0,,6,,,78,127
18223,note_off,89,0,0,,6,,,78,127
18224,note_on,1,0,0,,7,,,79,127
18313,note_off,89,0,0,,7,,,79,127
18314,note_on,1,0,0,,10,,,81,127
18404,note_on,90,0,0,,6,,,66,127
18493,note_off,89,0,0,,6,,,66,127
18494,note_on,1,0,0,,7,,,67,127
18583,note_off,89,0,0,,7,,,67,127
18584,note_off,1,0,0,,10,,,81,127
18584,note_on,0,0,0,,10,,,69,127
18674,note_on,90,0,0,,10,,,57,127
18855,note_off,181,0,0,,10,,,69,127
18944,note_off,89,0,0,,10,,,57,127
18945,note_on,1,0,0,,1,,,73,127
18945,note_on,0,0,0,,4,,,76,127
18945,note_on,0,0,0,,7,,,79,127
18945,note_on,0,0,0,,10,,,69,127
18945,note_on,0,0,0,,10,,,45,127
18945,note_on,0,0,0,,10,,,33,127
19215,note_off,270,0,0,,7,,,79,127
19216,note_on,1,0,0,,6,,,78,127
19486,note_off,270,0,0,,6,,,78,127
19486,note_off,0,0,0,,10,,,69,127
19486,note_off,0,0,0,,4,,,76,127
19486,note_off,0,0,0,,1,,,73,127
19487,note_on,1,0,0,,4,,,76,127
19757,note_off,270,0,0,,4,,,76,127
19757,note_off,0,0,0,,10,,,33,127
19757,note_off,0,0,0,,10,,,45,127
19758,note_on,1,0,0,,6,,,78,127
19847,note_off,89,0,0,,6,,,78,127
19848,note_on,1,0,0,,7,,,79,127
19937,note_off,89,0,0,,7,,,79,127
19938,note_on,1,0,0,,10,,,81,127
20028,note_on,90,0,0,,6,,,66,127
20117,note_off,89,0,0,,6,,,66,127
20118,note_on,1,0,0,,7,,,67,127
20207,note_off,89,0,0,,7,,,67,127
20208,note_off,1,0,0,,10,,,81,127
20208,note_on,0,0,0,,10,,,69,127
20298,note_on,90,0,0,,2,,,50,127
20479,note_off,181,0,0,,10,,,69,127
20568,note_off,89,0,0,,2,,,50,127
20569,note_on,1,0,0,,2,,,86,127
20569,note_on,0,0,0,,7,,,43,127
20569,note_on,0,0,0,,7,,,31,127
20839,note_off,270,0,0,,2,,,86,127
20840,note_on,1,0,0,,12,,,83,127
21110,note_off,270,0,0,,12,,,83,127
21111,note_on,1,0,0,,7,,,79,127
21381,note_off,270,0,0,,7,,,79,127
21381,note_off,0,0,0,,7,,,31,127
21381,note_off,0,0,0,,7,,,43,127
21382,note_on,1,0,0,,6,,,78,127
21382,note_on,0,0,0,,10,,,45,127
21382,note_on,0,0,0,,10,,,33,127
21471,note_off,89,0,0,,6,,,78,127
21472,note_on,1,0,0,,7,,,79,127
21561,note_off,89,0,0,,7,,,79,127
21562,note_on,1,0,0,,10,,,81,127
21651,note_off,89,0,0,,10,,,81,127
21652,note_on,1,0,0,,2,,,74,127
21922,note_off,270,0,0,,2,,,74,127
21923,note_on,1,0,0,,1,,,73,127
21967,note_off,44,0,0,,1,,,73,127
21968,note_on,1,0,0,,2,,,74,127
22012,note_off,44,0,0,,2,,,74,127
22013,note_on,1,0,0,,1,,,73,127
22192,note_off,179,0,0,,1,,,73,127
22192,note_off,0,0,0,,10,,,33,127
22192,note_off,0,0,0,,10,,,45,127
22193,note_on,1,0,0,,2,,,74,127
22193,note_on,0,0,0,,2,,,38,127
22729,note_off,536,0,0,,2,,,74,127
23004,note_off,275,0,0,,2,,,38,127
23005,note_on,1,0,0,,6,,,78,127
23094,note_off,89,0,0,,6,,,78,127
23095,note_on,1,0,0,,7,,,79,127
23184,note_off,89,0,0,,7,,,79,127
23185,note_on,1,0,0,,10,,,81,127
23275,note_on,90,0,0,,6,,,66,127
23364,note_off,89,0,0,,6,,,66,127
23365,note_off,1,0,0,,10,,,81,127
23365,note_on,0,0,0,,7,,,67,127
23454,note_off,89,0,0,,7,,,67,127
23455,note_on,1,0,0,,10,,,69,127
23545,note_on,90,0,0,,10,,,57,127
23635,note_off,90,0,0,,10,,,69,127
23814,note_off,179,0,0,,10,,,57,127
23815,note_on,1,0,0,,7,,,79,127
23815,note_on,0,0,0,,1,,,73,127
23815,note_on,0,0,0,,4,,,76,127
23815,note_on,0,0,0,,10,,,69,127
23815,note_on,0,0,0,,10,,,45,127
23815,note_on,0,0,0,,10,,,33,127
24085,note_off,270,0,0,,10,,,69,127
24085,note_off,0,0,0,,4,,,76,127
24085,note_off,0,0,0,,1,,,73,127
24085,note_off,0,0,0,,7,,,79,127
24086,note_on,1,0,0,,6,,,78,127
24356,note_off,270,0,0,,6,,,78,127
24357,note_on,1,0,0,,4,,,76,127
24627,note_off,270,0,0,,4,,,76,127
24627,note_off,0,0,0,,10,,,33,127
24627,note_off,0,0,0,,10,,,45,127
24628,note_on,1,0,0,,6,,,78,127
24717,note_off,89,0,0,,6,,,78,127
24718,note_on,1,0,0,,7,,,79,127
24807,note_off,89,0,0,,7,,,79,127
24808,note_on,1,0,0,,10,,,81,127
24898,note_on,90,0,0,,6,,,66,127
24987,note_off,89,0,0,,6,,,66,127
24988,note_off,1,0,0,,10,,,81,127
24988,note_on,0,0,0,,7,,,67,127
25077,note_off,89,0,0,,7,,,67,127
25078,note_on,1,0,0,,10,,,69,127
25168,note_on,90,0,0,,10,,,57,127
25258,note_off,90,0,0,,10,,,69,127
25437,note_off,179,0,0,,10,,,57,127
25438,note_on,1,0,0,,1,,,73,127
25438,note_on,0,0,0,,7,,,79,127
25438,note_on,0,0,0,,4,,,76,127
25438,note_on,0,0,0,,10,,,69,127
25438,note_on,0,0,0,,10,,,45,127
25438,note_on,0,0,0,,10,,,33,127
25708,note_off,270,0,0,,10,,,69,127
25708,note_off,0,0,0,,4,,,76,127
25708,note_off,0,0,0,,7,,,79,127
25708,note_off,0,0,0,,1,,,73,127
25709,note_on,1,0,0,,6,,,78,127
25979,note_off,270,0,0,,6,,,78,127
25980,note_on,1,0,0,,4,,,76,127
26250,note_off,270,0,0,,4,,,76,127
26250,note_off,0,0,0,,10,,,33,127
26250,note_off,0,0,0,,10,,,45,127
26251,note_on,1,0,0,,6,,,78,127
26340,note_off,89,0,0,,6,,,78,127
26341,note_on,1,0,0,,7,,,79,127
26430,note_off,89,0,0,,7,,,79,127
26431,note_on,1,0,0,,10,,,81,127
26521,note_on,90,0,0,,6,,,66,127
26610,note_off,89,0,0,,6,,,66,127
26611,note_off,1,0,0,,10,,,81,127
26611,note_on,0,0,0,,7,,,67,127
26700,note_off,89,0,0,,7,,,67,127
26701,note_on,1,0,0,,10,,,69,127
26791,note_on,90,0,0,,2,,,50,127
26881,note_off,90,0,0,,10,,,69,127
27060,note_off,179,0,0,,2,,,50,127
27061,note_on,1,0,0,,2,,,86,127
27061,note_on,0,0,0,,7,,,43,127
27061,note_on,0,0,0,,7,,,31,127
27331,note_off,270,0,0,,2,,,86,127
27332,note_on,1,0,0,,12,,,83,127
27602,note_off,270,0,0,,12,,,83,127
27603,note_on,1,0,0,,7,,,79,127
27873,note_off,270,0,0,,7,,,79,127
27873,note_off,0,0,0,,7,,,31,127
27873,note_off,0,0,0,,7,,,43,127
27874,note_on,1,0,0,,6,,,78,127
27874,note_on,0,0,0,,10,,,45,127
27874,note_on,0,0,0,,10,,,33,127
27963,note_off,89,0,0,,6,,,78,127
27964,note_on,1,0,0,,7,,,79,127
28053,note_off,89,0,0,,7,,,79,127
28054,note_on,1,0,0,,10,,,81,127
28143,note_off,89,0,0,,10,,,81,127
28144,note_on,1,0,0,,2,,,74,127
28414,note_off,270,0,0,,2,,,74,127
28415,note_on,1,0,0,,1,,,73,127
28459,note_off,44,0,0,,1,,,73,127
28460,note_on,1,0,0,,2,,,74,127
28504,note_off,44,0,0,,2,,,74,127
28505,note_on,1,0,0,,1,,,73,127
28684,note_off,179,0,0,,1,,,73,127
28684,note_off,0,0,0,,10,,,33,127
28684,note_off,0,0,0,,10,,,45,127
28685,note_on,1,0,0,,2,,,74,127
28685,note_on,0,0,0,,2,,,38,127
28955,note_off,270,0,0,,2,,,74,127
28956,note_on,1,0,0,,10,,,81,127
29165,note_off,209,0,0,,2,,,38,127
29226,note_off,61,0,0,,10,,,81,127
29227,note_on,1,0,0,,10,,,81,127
29227,note_on,0,0,0,,10,,,69,127
29227,note_on,0,0,0,,6,,,54,127
29497,note_off,270,0,0,,6,,,54,127
29497,note_off,0,0,0,,10,,,69,127
29497,note_off,0,0,0,,10,,,81,127
29498,note_on,1,0,0,,10,,,81,127
29498,note_on,0,0,0,,12,,,71,127
29498,note_on,0,0,0,,7,,,55,127
29768,note_off,270,0,0,,7,,,55,127
29768,note_off,0,0,0,,12,,,71,127
29768,note_off,0,0,0,,10,,,81,127
29769,note_on,1,0,0,,12,,,83,127
29769,note_on,0,0,0,,1,,,73,127
29769,note_on,0,0,0,,10,,,57,127
30039,note_off,270,0,0,,10,,,57,127
30039,note_off,0,0,0,,12,,,83,127
30040,note_on,1,0,0,,10,,,81,127
30040,note_on,0,0,0,,10,,,45,127
30310,note_off,270,0,0,,10,,,45,127
30310,note_off,0,0,0,,10,,,81,127
30310,note_off,0,0,0,,1,,,73,127
30311,note_on,1,0,0,,2,,,74,127
30311,note_on,0,0,0,,6,,,78,127
30311,note_on,0,0,0,,2,,,50,127
30400,note_off,89,0,0,,6,,,78,127
30400,note_off,0,0,0,,2,,,74,127
30401,note_on,1,0,0,,4,,,76,127
30490,note_off,89,0,0,,4,,,76,127
30491,note_on,1,0,0,,2,,,74,127
30580,note_off,89,0,0,,2,,,74,127
30580,note_off,0,0,0,,2,,,50,127
30581,note_on,1,0,0,,10,,,81,127
30581,note_on,0,0,0,,4,,,52,127
30851,note_off,270,0,0,,4,,,52,127
30851,note_off,0,0,0,,10,,,81,127
30852,note_on,1,0,0,,10,,,81,127
30852,note_on,0,0,0,,10,,,69,127
30852,note_on,0,0,0,,6,,,54,127
31122,note_off,270,0,0,,6,,,54,127
31122,note_off,0,0,0,,10,,,69,127
31122,note_off,0,0,0,,10,,,81,127
31123,note_on,1,0,0,,10,,,81,127
31123,note_on,0,0,0,,12,,,71,127
31123,note_on,0,0,0,,7,,,55,127
31393,note_off,270,0,0,,7,,,55,127
31393,note_off,0,0,0,,12,,,71,127
31393,note_off,0,0,0,,10,,,81,127
31394,note_on,1,0,0,,1,,,73,127
31394,note_on,0,0,0,,12,,,83,127
31394,note_on,0,0,0,,10,,,57,127
31664,note_off,270,0,0,,12,,,83,127
31665,note_on,1,0,0,,10,,,81,127
31665,note_on,0,0,0,,10,,,45,127
31935,note_off,270,0,0,,10,,,45,127
31935,note_off,0,0,0,,10,,,81,127
31935,note_off,0,0,0,,10,,,57,127
31935,note_off,0,0,0,,1,,,73,127
31936,note_on,1,0,0,,6,,,78,127
31936,note_on,0,0,0,,2,,,74,127
31936,note_on,0,0,0,,2,,,50,127
32025,note_off,89,0,0,,6,,,78,127
32026,note_on,1,0,0,,4,,,76,127
32115,note_off,89,0,0,,4,,,76,127
32116,note_on,1,0,0,,6,,,78,127
32205,note_off,89,0,0,,6,,,78,127
32205,note_off,0,0,0,,2,,,50,127
32206,note_on,1,0,0,,7,,,79,127
32206,note_on,0,0,0,,4,,,52,127
32476,note_off,270,0,0,,4,,,52,127
32476,note_off,0,0,0,,7,,,79,127
32477,note_on,1,0,0,,10,,,81,127
32477,note_on,0,0,0,,6,,,54,127
32747,note_off,270,0,0,,6,,,54,127
32747,note_off,0,0,0,,10,,,81,127
32747,note_off,0,0,0,,2,,,74,127
32748,note_on,1,0,0,,4,,,76,127
32748,note_on,0,0,0,,2,,,74,127
32748,note_on,0,0,0,,7,,,55,127
32837,note_off,89,0,0,,4,,,76,127
32838,note_on,1,0,0,,6,,,78,127
32927,note_off,89,0,0,,6,,,78,127
32928,note_on,1,0,0,,7,,,79,127
33017,note_off,89,0,0,,7,,,79,127
33017,note_off,0,0,0,,7,,,55,127
33018,note_on,1,0,0,,6,,,78,127
33018,note_on,0,0,0,,10,,,57,127
33288,note_off,270,0,0,,6,,,78,127
33288,note_off,0,0,0,,2,,,74,127
33289,note_on,1,0,0,,1,,,73,127
33289,note_on,0,0,0,,4,,,76,127
33289,note_on,0,0,0,,10,,,45,127
33425,note_off,136,0,0,,10,,,57,127
33559,note_off,134,0,0,,10,,,45,127
33559,note_off,0,0,0,,4,,,76,127
33559,note_off,0,0,0,,1,,,73,127
33560,note_on,1,0,0,,4,,,76,127
33560,note_on,0,0,0,,2,,,38,127
33592,note_off,32,0,0,,4,,,76,127
33593,note_on,1,0,0,,2,,,74,127
33625,note_off,32,0,0,,2,,,74,127
33626,note_on,1,0,0,,4,,,76,127
33658,note_off,32,0,0,,4,,,76,127
33659,note_on,1,0,0,,2,,,74,127
33691,note_off,32,0,0,,2,,,74,127
33692,note_on,1,0,0,,4,,,76,127
33724,note_off,32,0,0,,4,,,76,127
33725,note_on,1,0,0,,2,,,74,127
34367,note_off,642,0,0,,2,,,74,127
34367,note_off,0,0,0,,2,,,38,127
34368,note_on,1,0,0,,10,,,69,127
34368,note_on,0,0,0,,2,,,50,127
34638,note_off,270,0,0,,10,,,69,127
34639,note_on,1,0,0,,5,,,77,127
34639,note_on,0,0,0,,2,,,62,127
34909,note_off,270,0,0,,2,,,62,127
34909,note_off,0,0,0,,5,,,77,127
34909,note_off,0,0,0,,2,,,50,127
34910,note_on,1,0,0,,4,,,76,127
34910,note_on,0,0,0,,0,,,60,127
35180,note_off,270,0,0,,0,,,60,127
35180,note_off,0,0,0,,4,,,76,127
35181,note_on,1,0,0,,2,,,74,127
35181,note_on,0,0,0,,12,,,59,127
35451,note_off,270,0,0,,2,,,74,127
35452,note_on,1,0,0,,12,,,71,127
35452,note_on,0,0,0,,2,,,62,127
35722,note_off,270,0,0,,12,,,71,127
35722,note_off,0,0,0,,12,,,59,127
35723,note_on,1,0,0,,5,,,65,127
35723,note_on,0,0,0,,10,,,57,127
35993,note_off,270,0,0,,10,,,57,127
35993,note_off,0,0,0,,5,,,65,127
35993,note_off,0,0,0,,2,,,62,127
35994,note_on,1,0,0,,4,,,64,127
35994,note_on,0,0,0,,8,,,56,127
36264,note_off,270,0,0,,8,,,56,127
36265,note_on,1,0,0,,4,,,76,127
36265,note_on,0,0,0,,6,,,54,127
36535,note_off,270,0,0,,6,,,54,127
36535,note_off,0,0,0,,4,,,76,127
36535,note_off,0,0,0,,4,,,64,127
36536,note_on,1,0,0,,2,,,74,127
36536,note_on,0,0,0,,4,,,52,127
36806,note_off,270,0,0,,4,,,52,127
36806,note_off,0,0,0,,2,,,74,127
36807,note_on,1,0,0,,0,,,72,127
36807,note_on,0,0,0,,10,,,45,127
36807,note_on,0,0,0,,10,,,57,127
36851,note_off,44,0,0,,0,,,72,127
36852,note_on,1,0,0,,2,,,74,127
36896,note_off,44,0,0,,2,,,74,127
36897,note_on,1,0,0,,0,,,72,127
37076,note_off,179,0,0,,0,,,72,127
37077,note_on,1,0,0,,12,,,71,127
37347,note_off,270,0,0,,12,,,71,127
37348,note_on,1,0,0,,10,,,69,127
37618,note_off,270,0,0,,10,,,69,127
37618,note_off,0,0,0,,10,,,57,127
37618,note_off,0,0,0,,10,,,45,127
37619,note_on,1,0,0,,0,,,72,127
37708,note_off,89,0,0,,0,,,72,127
37709,note_on,1,0,0,,2,,,74,127
37798,note_off,89,0,0,,2,,,74,127
37799,note_on,1,0,0,,4,,,76,127
37889,note_on,90,0,0,,0,,,60,127
37978,note_off,89,0,0,,0,,,60,127
37979,note_on,1,0,0,,2,,,62,127
38068,note_off,89,0,0,,2,,,62,127
38069,note_off,1,0,0,,4,,,76,127
38069,note_on,0,0,0,,4,,,64,127
38159,note_on,90,0,0,,4,,,52,127
38340,note_off,181,0,0,,4,,,64,127
38429,note_off,89,0,0,,4,,,52,127
38430,note_on,1,0,0,,8,,,68,127
38430,note_on,0,0,0,,2,,,74,127
38430,note_on,0,0,0,,12,,,71,127
38430,note_on,0,0,0,,4,,,64,127
38430,note_on,0,0,0,,4,,,40,127
38700,note_off,270,0,0,,2,,,74,127
38701,note_on,1,0,0,,0,,,72,127
38971,note_off,270,0,0,,0,,,72,127
38971,note_off,0,0,0,,4,,,64,127
38971,note_off,0,0,0,,12,,,71,127
38971,note_off,0,0,0,,8,,,68,127
38972,note_on,1,0,0,,12,,,71,127
39242,note_off,270,0,0,,12,,,71,127
39242,note_off,0,0,0,,4,,,40,127
39243,note_on,1,0,0,,0,,,72,127
39332,note_off,89,0,0,,0,,,72,127
39333,note_on,1,0,0,,2,,,74,127
39422,note_off,89,0,0,,2,,,74,127
39423,note_on,1,0,0,,4,,,76,127
39513,note_on,90,0,0,,0,,,60,127
39602,note_off,89,0,0,,0,,,60,127
39603,note_on,1,0,0,,2,,,62,127
39692,note_off,89,0,0,,2,,,62,127
39693,note_off,1,0,0,,4,,,76,127
39693,note_on,0,0,0,,4,,,64,127
39783,note_on,90,0,0,,4,,,52,127
39964,note_off,181,0,0,,4,,,64,127
40053,note_off,89,0,0,,4,,,52,127
40054,note_on,1,0,0,,8,,,68,127
40054,note_on,0,0,0,,2,,,74,127
40054,note_on,0,0,0,,12,,,71,127
40054,note_on,0,0,0,,4,,,64,127
40054,note_on,0,0,0,,4,,,40,127
40324,note_off,270,0,0,,2,,,74,127
40325,note_on,1,0,0,,0,,,72,127
40595,note_off,270,0,0,,0,,,72,127
40595,note_off,0,0,0,,4,,,64,127
40595,note_off,0,0,0,,12,,,71,127
40595,note_off,0,0,0,,8,,,68,127
40596,note_on,1,0,0,,12,,,71,127
40866,note_off,270,0,0,,12,,,71,127
40866,note_off,0,0,0,,4,,,40,127
40867,note_on,1,0,0,,0,,,72,127
40867,note_on,0,0,0,,10,,,45,127
41137,note_off,270,0,0,,10,,,45,127
41137,note_off,0,0,0,,0,,,72,127
41138,note_on,1,0,0,,10,,,81,127
41138,note_on,0,0,0,,10,,,69,127
41408,note_off,270,0,0,,10,,,69,127
41409,note_on,1,0,0,,7,,,67,127
41679,note_off,270,0,0,,7,,,67,127
41680,note_on,1,0,0,,6,,,66,127
41950,note_off,270,0,0,,6,,,66,127
41950,note_off,0,0,0,,10,,,81,127
41951,note_on,1,0,0,,6,,,78,127
41951,note_on,0,0,0,,4,,,64,127
42221,note_off,270,0,0,,4,,,64,127
42221,note_off,0,0,0,,6,,,78,127
42222,note_on,1,0,0,,0,,,72,127
42222,note_on,0,0,0,,2,,,62,127
42492,note_off,270,0,0,,2,,,62,127
42492,note_off,0,0,0,,0,,,72,127
42493,note_on,1,0,0,,7,,,67,127
42493,note_on,0,0,0,,12,,,71,127
42493,note_on,0,0,0,,7,,,55,127
42763,note_off,270,0,0,,7,,,55,127
42763,note_off,0,0,0,,12,,,71,127
42763,note_off,0,0,0,,7,,,67,127
42764,note_on,1,0,0,,2,,,62,127
42764,note_on,0,0,0,,10,,,69,127
42764,note_on,0,0,0,,6,,,54,127
43034,note_off,270,0,0,,6,,,54,127
43034,note_off,0,0,0,,10,,,69,127
43034,note_off,0,0,0,,2,,,62,127
43035,note_on,1,0,0,,7,,,67,127
43035,note_on,0,0,0,,12,,,71,127
43035,note_on,0,0,0,,7,,,55,127
43305,note_off,270,0,0,,7,,,55,127
43305,note_off,0,0,0,,12,,,71,127
43305,note_off,0,0,0,,7,,,67,127
43306,note_on,1,0,0,,10,,,69,127
43306,note_on,0,0,0,,2,,,50,127
43577,note_on,271,0,0,,6,,,66,127
43711,note_off,134,0,0,,6,,,66,127
43712,note_on,1,0,0,,4,,,64,127
43846,note_off,134,0,0,,4,,,64,127
43847,note_on,1,0,0,,6,,,66,127
43983,note_off,136,0,0,,2,,,50,127
44117,note_off,134,0,0,,6,,,66,127
44117,note_off,0,0,0,,10,,,69,127
44118,note_on,1,0,0,,6,,,66,127
44118,note_on,0,0,0,,2,,,62,127
44207,note_off,89,0,0,,2,,,62,127
44208,note_on,1,0,0,,2,,,62,127
44297,note_off,89,0,0,,6,,,66,127
44298,note_on,1,0,0,,6,,,66,127
44387,note_off,89,0,0,,6,,,66,127
44388,note_on,1,0,0,,7,,,67,127
44388,note_on,0,0,0,,12,,,59,127
44477,note_off,89,0,0,,2,,,62,127
44478,note_on,1,0,0,,2,,,62,127
44567,note_off,89,0,0,,7,,,67,127
44568,note_on,1,0,0,,7,,,67,127
44657,note_off,89,0,0,,7,,,67,127
44657,note_off,0,0,0,,12,,,59,127
44658,note_on,1,0,0,,10,,,69,127
44658,note_on,0,0,0,,6,,,54,127
44747,note_off,89,0,0,,2,,,62,127
44748,note_on,1,0,0,,2,,,62,127
44837,note_off,89,0,0,,10,,,69,127
44838,note_on,1,0,0,,10,,,69,127
44927,note_off,89,0,0,,10,,,69,127
44927,note_off,0,0,0,,6,,,54,127
44928,note_on,1,0,0,,12,,,71,127
44928,note_on,0,0,0,,7,,,55,127
45017,note_off,89,0,0,,2,,,62,127
45018,note_on,1,0,0,,2,,,62,127
45107,note_off,89,0,0,,12,,,71,127
45108,note_on,1,0,0,,12,,,71,127
45197,note_off,89,0,0,,12,,,71,127
45197,note_off,0,0,0,,7,,,55,127
45198,note_on,1,0,0,,0,,,72,127
45198,note_on,0,0,0,,10,,,57,127
45287,note_off,89,0,0,,2,,,62,127
45288,note_on,1,0,0,,2,,,62,127
45377,note_off,89,0,0,,0,,,72,127
45378,note_on,1,0,0,,0,,,72,127
45467,note_off,89,0,0,,0,,,72,127
45467,note_off,0,0,0,,10,,,57,127
45468,note_on,1,0,0,,2,,,74,127
45468,note_on,0,0,0,,12,,,59,127
45736,note_off,268,0,0,,2,,,62,127
45737,note_off,1,0,0,,12,,,59,127
45738,note_on,1,0,0,,4,,,64,127
45738,note_on,0,0,0,,0,,,48,127
46008,note_off,270,0,0,,4,,,64,127
46008,note_off,0,0,0,,2,,,74,127
46009,note_on,1,0,0,,6,,,66,127
46009,note_on,0,0,0,,0,,,72,127
46279,note_off,270,0,0,,0,,,72,127
46279,note_off,0,0,0,,6,,,66,127
46279,note_off,0,0,0,,0,,,48,127
46280,note_on,1,0,0,,7,,,67,127
46280,note_on,0,0,0,,12,,,71,127
46280,note_on,0,0,0,,1,,,49,127
46550,note_off,270,0,0,,1,,,49,127
46551,note_on,1,0,0,,2,,,50,127
46821,note_off,270,0,0,,12,,,71,127
46821,note_off,0,0,0,,7,,,67,127
46822,note_on,1,0,0,,6,,,66,127
46822,note_on,0,0,0,,10,,,69,127
46956,note_off,134,0,0,,10,,,69,127
46956,note_off,0,0,0,,6,,,66,127
46957,note_on,1,0,0,,4,,,64,127
46957,note_on,0,0,0,,7,,,67,127
47091,note_off,134,0,0,,7,,,67,127
47091,note_off,0,0,0,,4,,,64,127
47092,note_on,1,0,0,,6,,,66,127
47092,note_on,0,0,0,,10,,,69,127
47346,note_off,254,0,0,,10,,,69,127
47346,note_off,0,0,0,,6,,,66,127
47362,note_off,16,0,0,,2,,,50,127
47363,note_on,1,0,0,,12,,,83,127
47452,note_off,89,0,0,,12,,,83,127
47453,note_on,1,0,0,,0,,,84,127
47542,note_off,89,0,0,,0,,,84,127
47543,note_on,1,0,0,,2,,,86,127
47633,note_on,90,0,0,,12,,,71,127
47722,note_off,89,0,0,,12,,,71,127
47723,note_off,1,0,0,,2,,,86,127
47723,note_on,0,0,0,,0,,,72,127
47812,note_off,89,0,0,,0,,,72,127
47813,note_on,1,0,0,,2,,,74,127
47903,note_on,90,0,0,,2,,,50,127
47993,note_off,90,0,0,,2,,,74,127
48172,note_off,179,0,0,,2,,,50,127
48173,note_on,1,0,0,,2,,,74,127
48173,note_on,0,0,0,,10,,,81,127
48173,note_on,0,0,0,,6,,,78,127
48173,note_on,0,0,0,,0,,,84,127
48173,note_on,0,0,0,,2,,,38,127
48443,note_off,270,0,0,,0,,,84,127
48443,note_off,0,0,0,,6,,,78,127
48443,note_off,0,0,0,,10,,,81,127
48443,note_off,0,0,0,,2,,,74,127
48444,note_on,1,0,0,,12,,,83,127
48714,note_off,270,0,0,,12,,,83,127
48715,note_on,1,0,0,,10,,,81,127
48985,note_off,270,0,0,,10,,,81,127
48985,note_off,0,0,0,,2,,,38,127
48986,note_on,1,0,0,,12,,,83,127
49075,note_off,89,0,0,,12,,,83,127
49076,note_on,1,0,0,,0,,,84,127
49165,note_off,89,0,0,,0,,,84,127
49166,note_on,1,0,0,,2,,,86,127
49256,note_on,90,0,0,,12,,,71,127
49345,note_off,89,0,0,,12,,,71,127
49346,note_off,1,0,0,,2,,,86,127
49346,note_on,0,0,0,,0,,,72,127
49435,note_off,89,0,0,,0,,,72,127
49436,note_on,1,0,0,,2,,,74,127
49526,note_on,90,0,0,,2,,,50,127
49616,note_off,90,0,0,,2,,,74,127
49795,note_off,179,0,0,,2,,,50,127
49796,note_on,1,0,0,,2,,,74,127
49796,note_on,0,0,0,,0,,,84,127
49796,note_on,0,0,0,,6,,,78,127
49796,note_on,0,0,0,,10,,,81,127
49796,note_on,0,0,0,,2,,,38,127
50066,note_off,270,0,0,,10,,,81,127
50066,note_off,0,0,0,,6,,,78,127
50066,note_off,0,0,0,,0,,,84,127
50066,note_off,0,0,0,,2,,,74,127
50067,note_on,1,0,0,,12,,,83,127
50337,note_off,270,0,0,,12,,,83,127
50338,note_on,1,0,0,,10,,,81,127
50608,note_off,270,0,0,,10,,,81,127
50608,note_off,0,0,0,,2,,,38,127
50609,note_on,1,0,0,,12,,,83,127
50698,note_off,89,0,0,,12,,,83,127
50699,note_on,1,0,0,,0,,,84,127
50788,note_off,89,0,0,,0,,,84,127
50789,note_on,1,0,0,,2,,,86,127
50879,note_on,90,0,0,,12,,,71,127
50968,note_off,89,0,0,,12,,,71,127
50969,note_off,1,0,0,,2,,,86,127
50969,note_on,0,0,0,,0,,,72,127
51058,note_off,89,0,0,,0,,,72,127
51059,note_on,1,0,0,,2,,,74,127
51149,note_on,90,0,0,,7,,,43,127
51239,note_off,90,0,0,,2,,,74,127
51418,note_off,179,0,0,,7,,,43,127
51419,note_on,1,0,0,,7,,,91,127
51419,note_on,0,0,0,,0,,,36,127
51689,note_off,270,0,0,,7,,,91,127
51690,note_on,1,0,0,,4,,,88,127
51960,note_off,270,0,0,,4,,,88,127
51960,note_off,0,0,0,,0,,,36,127
51961,note_on,1,0,0,,0,,,84,127
51961,note_on,0,0,0,,0,,,48,127
52231,note_off,270,0,0,,0,,,48,127
52231,note_off,0,0,0,,0,,,84,127
52232,note_on,1,0,0,,12,,,83,127
52232,note_on,0,0,0,,2,,,50,127
52321,note_off,89,0,0,,12,,,83,127
52322,note_on,1,0,0,,0,,,84,127
52411,note_off,89,0,0,,0,,,84,127
52412,note_on,1,0,0,,2,,,86,127
52501,note_off,89,0,0,,2,,,86,127
52502,note_on,1,0,0,,7,,,79,127
52772,note_off,270,0,0,,7,,,79,127
52772,note_off,0,0,0,,2,,,50,127
52773,note_on,1,0,0,,6,,,78,127
52773,note_on,0,0,0,,2,,,38,127
52817,note_off,44,0,0,,6,,,78,127
52818,note_on,1,0,0,,7,,,79,127
52862,note_off,44,0,0,,7,,,79,127
52863,note_on,1,0,0,,6,,,78,127
53042,note_off,179,0,0,,6,,,78,127
53042,note_off,0,0,0,,2,,,38,127
53043,note_on,1,0,0,,7,,,79,127
53043,note_on,0,0,0,,7,,,31,127
53721,note_off,678,0,0,,7,,,31,127
53855,note_off,134,0,0,,7,,,79,127
53856,note_on,1,0,0,,12,,,83,127
53945,note_off,89,0,0,,12,,,83,127
53946,note_on,1,0,0,,0,,,84,127
54035,note_off,89,0,0,,0,,,84,127
54036,note_on,1,0,0,,2,,,86,127
54126,note_on,90,0,0,,12,,,71,127
54215,note_off,89,0,0,,12,,,71,127
54216,note_on,1,0,0,,0,,,72,127
54305,note_off,89,0,0,,0,,,72,127
54306,note_off,1,0,0,,2,,,86,127
54306,note_on,0,0,0,,2,,,74,127
54396,note_on,90,0,0,,2,,,50,127
54577,note_off,181,0,0,,2,,,74,127
54666,note_off,89,0,0,,2,,,50,127
54667,note_on,1,0,0,,2,,,74,127
54667,note_on,0,0,0,,0,,,84,127
54667,note_on,0,0,0,,10,,,81,127
54667,note_on,0,0,0,,6,,,78,127
54667,note_on,0,0,0,,2,,,38,127
54937,note_off,270,0,0,,0,,,84,127
54938,note_on,1,0,0,,12,,,83,127
55074,note_off,136,0,0,,6,,,78,127
55074,note_off,0,0,0,,10,,,81,127
55074,note_off,0,0,0,,2,,,74,127
55208,note_off,134,0,0,,12,,,83,127
55209,note_on,1,0,0,,10,,,81,127
55345,note_off,136,0,0,,2,,,38,127
55479,note_off,134,0,0,,10,,,81,127
55480,note_on,1,0,0,,12,,,83,127
55569,note_off,89,0,0,,12,,,83,127
55570,note_on,1,0,0,,0,,,84,127
55659,note_off,89,0,0,,0,,,84,127
55660,note_on,1,0,0,,2,,,86,127
55750,note_on,90,0,0,,12,,,71,127
55839,note_off,89,0,0,,12,,,71,127
55840,note_on,1,0,0,,0,,,72,127
55929,note_off,89,0,0,,0,,,72,127
55930,note_off,1,0,0,,2,,,86,127
55930,note_on,0,0,0,,2,,,74,127
56020,note_on,90,0,0,,2,,,50,127
56201,note_off,181,0,0,,2,,,74,127
56290,note_off,89,0,0,,2,,,50,127
56291,note_on,1,0,0,,0,,,84,127
56291,note_on,0,0,0,,6,,,78,127
56291,note_on,0,0,0,,2,,,74,127
56291,note_on,0,0,0,,10,,,81,127
56291,note_on,0,0,0,,2,,,38,127
56561,note_off,270,0,0,,0,,,84,127
56562,note_on,1,0,0,,12,,,83,127
56698,note_off,136,0,0,,10,,,81,127
56698,note_off,0,0,0,,2,,,74,127
56698,note_off,0,0,0,,6,,,78,127
56832,note_off,134,0,0,,12,,,83,127
56833,note_on,1,0,0,,10,,,81,127
56969,note_off,136,0,0,,2,,,38,127
57103,note_off,134,0,0,,10,,,81,127
57104,note_on,1,0,0,,12,,,83,127
57193,note_off,89,0,0,,12,,,83,127
57194,note_on,1,0,0,,0,,,84,127
57283,note_off,89,0,0,,0,,,84,127
57284,note_on,1,0,0,,2,,,86,127
57374,note_on,90,0,0,,12,,,71,127
57463,note_off,89,0,0,,12,,,71,127
57464,note_on,1,0,0,,0,,,72,127
57553,note_off,89,0,0,,0,,,72,127
57554,note_off,1,0,0,,2,,,86,127
57554,note_on,0,0,0,,2,,,74,127
57644,note_on,90,0,0,,7,,,55,127
57825,note_off,181,0,0,,2,,,74,127
57914,note_off,89,0,0,,7,,,55,127
57915,note_on,1,0,0,,7,,,91,127
57915,note_on,0,0,0,,0,,,36,127
58185,note_off,270,0,0,,7,,,91,127
58186,note_on,1,0,0,,4,,,88,127
58456,note_off,270,0,0,,4,,,88,127
58456,note_off,0,0,0,,0,,,36,127
58457,note_on,1,0,0,,0,,,84,127
58457,note_on,0,0,0,,0,,,48,127
58727,note_off,270,0,0,,0,,,48,127
58727,note_off,0,0,0,,0,,,84,127
58728,note_on,1,0,0,,12,,,83,127
58728,note_on,0,0,0,,2,,,50,127
58817,note_off,89,0,0,,12,,,83,127
58818,note_on,1,0,0,,0,,,84,127
58907,note_off,89,0,0,,0,,,84,127
58908,note_on,1,0,0,,2,,,86,127
58997,note_off,89,0,0,,2,,,86,127
58998,note_on,1,0,0,,7,,,79,127
59268,note_off,270,0,0,,7,,,79,127
59268,note_off,0,0,0,,2,,,50,127
59269,note_on,1,0,0,,6,,,78,127
59269,note_on,0,0,0,,2,,,38,127
59313,note_off,44,0,0,,6,,,78,127
59314,note_on,1,0,0,,7,,,79,127
59358,note_off,44,0,0,,7,,,79,127
59359,note_on,1,0,0,,6,,,78,127
59538,note_off,179,0,0,,6,,,78,127
59538,note_off,0,0,0,,2,,,38,127
59539,note_on,1,0,0,,7,,,79,127
59539,note_on,0,0,0,,7,,,55,127
59809,note_off,270,0,0,,7,,,55,127
59810,note_on,1,0,0,,2,,,86,127
59810,note_on,0,0,0,,10,,,57,127
60080,note_off,270,0,0,,10,,,57,127
60080,note_off,0,0,0,,2,,,86,127
60080,note_off,0,0,0,,7,,,79,127
60081,note_on,1,0,0,,2,,,86,127
60081,note_on,0,0,0,,2,,,74,127
60081,note_on,0,0,0,,12,,,59,127
60351,note_off,270,0,0,,12,,,59,127
60351,note_off,0,0,0,,2,,,74,127
60352,note_on,1,0,0,,4,,,76,127
60352,note_on,0,0,0,,0,,,60,127
60622,note_off,270,0,0,,0,,,60,127
60622,note_off,0,0,0,,4,,,76,127
60622,note_off,0,0,0,,2,,,86,127
60623,note_on,1,0,0,,6,,,78,127
60623,note_on,0,0,0,,4,,,88,127
60623,note_on,0,0,0,,2,,,62,127
60893,note_off,270,0,0,,2,,,62,127
60893,note_off,0,0,0,,4,,,88,127
60894,note_on,1,0,0,,2,,,86,127
60894,note_on,0,0,0,,2,,,50,127
61164,note_off,270,0,0,,2,,,50,127
61164,note_off,0,0,0,,2,,,86,127
61164,note_off,0,0,0,,6,,,78,127
61165,note_on,1,0,0,,12,,,83,127
61165,note_on,0,0,0,,7,,,79,127
61165,note_on,0,0,0,,7,,,55,127
61254,note_off,89,0,0,,7,,,79,127
61254,note_off,0,0,0,,12,,,83,127
61255,note_on,1,0,0,,10,,,81,127
61344,note_off,89,0,0,,10,,,81,127
61345,note_on,1,0,0,,7,,,79,127
61434,note_off,89,0,0,,7,,,79,127
61434,note_off,0,0,0,,7,,,55,127
61435,note_on,1,0,0,,2,,,74,127
61435,note_on,0,0,0,,10,,,57,127
61705,note_off,270,0,0,,10,,,57,127
61705,note_off,0,0,0,,2,,,74,127
61706,note_on,1,0,0,,2,,,62,127
61706,note_on,0,0,0,,2,,,74,127
61706,note_on,0,0,0,,12,,,59,127
61976,note_off,270,0,0,,12,,,59,127
61976,note_off,0,0,0,,2,,,62,127
61977,note_on,1,0,0,,4,,,64,127
61977,note_on,0,0,0,,0,,,60,127
62247,note_off,270,0,0,,0,,,60,127
62247,note_off,0,0,0,,4,,,64,127
62247,note_off,0,0,0,,2,,,74,127
62248,note_on,1,0,0,,4,,,76,127
62248,note_on,0,0,0,,6,,,66,127
62248,note_on,0,0,0,,2,,,62,127
62518,note_off,270,0,0,,2,,,62,127
62518,note_off,0,0,0,,4,,,76,127
62519,note_on,1,0,0,,2,,,74,127
62519,note_on,0,0,0,,2,,,50,127
62789,note_off,270,0,0,,2,,,50,127
62789,note_off,0,0,0,,2,,,74,127
62789,note_off,0,0,0,,6,,,66,127
62790,note_on,1,0,0,,7,,,55,127
62790,note_on,0,0,0,,7,,,43,127
62790,note_on,0,0,0,,12,,,71,127
62790,note_on,0,0,0,,7,,,67,127
62880,note_off,90,0,0,,7,,,67,127
62880,note_off,0,0,0,,12,,,71,127
62883,note_on,3,0,0,,10,,,69,127
62973,note_off,90,0,0,,10,,,69,127
62974,note_on,1,0,0,,7,,,67,127
63063,note_off,89,0,0,,7,,,43,127
63063,note_off,0,0,0,,7,,,55,127
63064,note_off,1,0,0,,7,,,67,127
63065,note_on,1,0,0,,10,,,57,127
63065,note_on,0,0,0,,10,,,45,127
63065,note_on,0,0,0,,6,,,78,127
63155,note_off,90,0,0,,6,,,78,127
63156,note_on,1,0,0,,4,,,76,127
63246,note_off,90,0,0,,4,,,76,127
63249,note_on,3,0,0,,2,,,74,127
63338,note_off,89,0,0,,10,,,45,127
63338,note_off,0,0,0,,10,,,57,127
63339,note_off,1,0,0,,2,,,74,127
63340,note_on,1,0,0,,12,,,47,127
63340,note_on,0,0,0,,12,,,59,127
63340,note_on,0,0,0,,7,,,79,127
63614,note_off,274,0,0,,7,,,79,127
63614,note_off,0,0,0,,12,,,59,127
63614,note_off,0,0,0,,12,,,47,127
63646,note_on,32,0,0,,4,,,76,127
63646,note_on,0,0,0,,4,,,64,127
63646,note_on,0,0,0,,0,,,48,127
63927,note_off,281,0,0,,0,,,48,127
63927,note_off,0,0,0,,4,,,64,127
63927,note_off,0,0,0,,4,,,76,127
63951,note_on,24,0,0,,7,,,67,127
63951,note_on,0,0,0,,12,,,71,127
63951,note_on,0,0,0,,2,,,50,127
63995,note_off,44,0,0,,12,,,71,127
63995,note_off,0,0,0,,7,,,67,127
64002,note_on,7,0,0,,6,,,66,127
64002,note_on,0,0,0,,10,,,69,127
64046,note_off,44,0,0,,10,,,69,127
64046,note_off,0,0,0,,6,,,66,127
64053,note_on,7,0,0,,7,,,67,127
64053,note_on,0,0,0,,12,,,71,127
64097,note_off,44,0,0,,12,,,71,127
64097,note_off,0,0,0,,7,,,67,127
64104,note_on,7,0,0,,6,,,66,127
64104,note_on,0,0,0,,10,,,69,127
64232,note_off,128,0,0,,2,,,50,127
64256,note_on,24,0,0,,2,,,38,127
64527,note_off,271,0,0,,10,,,69,127
64527,note_off,0,0,0,,6,,,66,127
64537,note_off,10,0,0,,2,,,38,127
64577,note_on,40,0,0,,7,,,67,127
64577,note_on,0,0,0,,7,,,31,127
66599,note_off,2022,0,0,,7,,,31,127
66599,note_off,0,0,0,,7,,,67,127
70656,end_of_track,4057,1,0,,,,,,
