tick,type,time,meta,track,program,channel,pitch,tempo,note,velocity
0,copyright,0,1,0,,,,,,
0,program_change,0,0,0,6,0,,,,
0,pitchwheel,0,0,0,,0,0,,,
0,program_change,0,0,0,6,1,,,,
0,pitchwheel,0,0,0,,1,-590,,,
0,program_change,0,0,0,6,2,,,,
0,pitchwheel,0,0,0,,2,-272,,,
0,program_change,0,0,0,6,3,,,,
0,pitchwheel,0,0,0,,3,-353,,,
0,program_change,0,0,0,6,4,,,,
0,pitchwheel,0,0,0,,4,-560,,,
0,program_change,0,0,0,6,5,,,,
0,pitchwheel,0,0,0,,5,-80,,,
0,program_change,0,0,0,6,6,,,,
0,pitchwheel,0,0,0,,6,-625,,,
0,program_change,0,0,0,6,7,,,,
0,pitchwheel,0,0,0,,7,-130,,,
0,program_change,0,0,0,6,8,,,,
0,pitchwheel,0,0,0,,8,-512,,,
0,program_change,0,0,0,6,10,,,,
0,pitchwheel,0,0,0,,10,-464,,,
0,program_change,0,0,0,6,11,,,,
0,pitchwheel,0,0,0,,11,-208,,,
0,program_change,0,0,0,6,12,,,,
0,pitchwheel,0,0,0,,12,-553,,,
0,set_tempo,0,1,0,,,,500000,,
271,note_on,271,0,0,,11,,,82,127
541,note_off,270,0,0,,11,,,82,127
542,note_on,1,0,0,,5,,,77,127
812,note_off,270,0,0,,5,,,77,127
813,note_on,1,0,0,,2,,,74,127
1083,note_off,270,0,0,,2,,,74,127
1084,note_on,1,0,0,,11,,,70,127
1354,note_off,270,0,0,,11,,,70,127
1355,note_on,1,0,0,,5,,,65,127
1625,note_off,270,0,0,,5,,,65,127
1626,note_on,1,0,0,,11,,,70,127
1762,note_on,136,0,0,,2,,,62,127
1896,note_off,134,0,0,,2,,,62,127
1897,note_on,1,0,0,,0,,,60,127
2031,note_off,134,0,0,,0,,,60,127
2032,note_on,1,0,0,,2,,,62,127
2166,note_off,134,0,0,,2,,,62,127
2167,note_on,1,0,0,,3,,,63,127
2301,note_off,134,0,0,,3,,,63,127
2302,note_on,1,0,0,,2,,,62,127
2436,note_off,134,0,0,,2,,,62,127
2436,note_off,0,0,0,,11,,,70,127
2437,note_on,1,0,0,,0,,,60,127
2571,note_off,134,0,0,,0,,,60,127
2572,note_on,1,0,0,,11,,,58,127
2706,note_off,134,0,0,,11,,,58,127
2707,note_on,1,0,0,,10,,,57,127
2841,note_off,134,0,0,,10,,,57,127
2842,note_on,1,0,0,,7,,,55,127
2976,note_off,134,0,0,,7,,,55,127
2977,note_on,1,0,0,,5,,,53,127
3111,note_off,134,0,0,,5,,,53,127
3112,note_on,1,0,0,,3,,,51,127
3246,note_off,134,0,0,,3,,,51,127
3247,note_on,1,0,0,,2,,,50,127
3383,note_on,136,0,0,,5,,,77,127
3517,note_off,134,0,0,,5,,,77,127
3518,note_on,1,0,0,,3,,,75,127
3652,note_off,134,0,0,,3,,,75,127
3653,note_on,1,0,0,,5,,,77,127
3787,note_off,134,0,0,,5,,,77,127
3787,note_off,0,0,0,,2,,,50,127
3788,note_on,1,0,0,,7,,,79,127
3788,note_on,0,0,0,,2,,,50,127
3922,note_off,134,0,0,,7,,,79,127
3923,note_on,1,0,0,,5,,,77,127
4057,note_off,134,0,0,,5,,,77,127
4057,note_off,0,0,0,,2,,,50,127
4058,note_on,1,0,0,,3,,,75,127
4058,note_on,0,0,0,,3,,,51,127
4192,note_off,134,0,0,,3,,,75,127
4193,note_on,1,0,0,,2,,,74,127
4327,note_off,134,0,0,,2,,,74,127
4327,note_off,0,0,0,,3,,,51,127
4328,note_on,1,0,0,,0,,,72,127
4328,note_on,0,0,0,,5,,,53,127
4462,note_off,134,0,0,,0,,,72,127
4463,note_on,1,0,0,,11,,,70,127
4597,note_off,134,0,0,,11,,,70,127
4598,note_on,1,0,0,,10,,,69,127
4598,note_on,0,0,0,,5,,,41,127
4732,note_off,134,0,0,,10,,,69,127
4733,note_on,1,0,0,,10,,,81,127
4867,note_off,134,0,0,,10,,,81,127
4867,note_off,0,0,0,,5,,,41,127
4867,note_off,0,0,0,,5,,,53,127
4868,note_on,1,0,0,,11,,,82,127
4868,note_on,0,0,0,,11,,,58,127
5002,note_off,134,0,0,,11,,,58,127
5003,note_on,1,0,0,,7,,,67,127
5137,note_off,134,0,0,,7,,,67,127
5138,note_on,1,0,0,,11,,,70,127
5138,note_on,0,0,0,,5,,,65,127
5272,note_off,134,0,0,,5,,,65,127
5273,note_on,1,0,0,,3,,,63,127
5407,note_off,134,0,0,,3,,,63,127
5407,note_off,0,0,0,,11,,,70,127
5407,note_off,0,0,0,,11,,,82,127
5408,note_on,1,0,0,,11,,,70,127
5408,note_on,0,0,0,,2,,,62,127
5542,note_off,134,0,0,,2,,,62,127
5543,note_on,1,0,0,,0,,,60,127
5677,note_off,134,0,0,,0,,,60,127
5677,note_off,0,0,0,,11,,,70,127
5678,note_on,1,0,0,,11,,,82,127
5678,note_on,0,0,0,,11,,,58,127
5812,note_off,134,0,0,,11,,,58,127
5813,note_on,1,0,0,,7,,,67,127
5947,note_off,134,0,0,,7,,,67,127
5948,note_on,1,0,0,,11,,,70,127
5948,note_on,0,0,0,,5,,,65,127
6082,note_off,134,0,0,,5,,,65,127
6083,note_on,1,0,0,,3,,,63,127
6217,note_off,134,0,0,,3,,,63,127
6217,note_off,0,0,0,,11,,,70,127
6217,note_off,0,0,0,,11,,,82,127
6218,note_on,1,0,0,,11,,,70,127
6218,note_on,0,0,0,,2,,,62,127
6352,note_off,134,0,0,,2,,,62,127
6353,note_on,1,0,0,,0,,,60,127
6487,note_off,134,0,0,,0,,,60,127
6487,note_off,0,0,0,,11,,,70,127
6488,note_on,1,0,0,,11,,,82,127
6488,note_on,0,0,0,,11,,,58,127
6622,note_off,134,0,0,,11,,,82,127
6623,note_on,1,0,0,,10,,,81,127
6757,note_off,134,0,0,,10,,,81,127
6757,note_off,0,0,0,,11,,,58,127
6758,note_on,1,0,0,,7,,,79,127
6758,note_on,0,0,0,,0,,,60,127
6892,note_off,134,0,0,,7,,,79,127
6893,note_on,1,0,0,,5,,,77,127
7027,note_off,134,0,0,,5,,,77,127
7027,note_off,0,0,0,,0,,,60,127
7028,note_on,1,0,0,,4,,,76,127
7028,note_on,0,0,0,,2,,,62,127
7162,note_off,134,0,0,,4,,,76,127
7163,note_on,1,0,0,,2,,,74,127
7297,note_off,134,0,0,,2,,,74,127
7297,note_off,0,0,0,,2,,,62,127
7298,note_on,1,0,0,,0,,,84,127
7298,note_on,0,0,0,,0,,,60,127
7432,note_off,134,0,0,,0,,,60,127
7433,note_on,1,0,0,,10,,,69,127
7567,note_off,134,0,0,,10,,,69,127
7568,note_on,1,0,0,,0,,,72,127
7568,note_on,0,0,0,,7,,,67,127
7702,note_off,134,0,0,,7,,,67,127
7703,note_on,1,0,0,,5,,,65,127
7837,note_off,134,0,0,,5,,,65,127
7837,note_off,0,0,0,,0,,,72,127
7837,note_off,0,0,0,,0,,,84,127
7838,note_on,1,0,0,,0,,,72,127
7838,note_on,0,0,0,,4,,,64,127
7972,note_off,134,0,0,,4,,,64,127
7973,note_on,1,0,0,,2,,,62,127
8107,note_off,134,0,0,,2,,,62,127
8107,note_off,0,0,0,,0,,,72,127
8108,note_on,1,0,0,,0,,,84,127
8108,note_on,0,0,0,,0,,,60,127
8242,note_off,134,0,0,,0,,,60,127
8243,note_on,1,0,0,,10,,,69,127
8377,note_off,134,0,0,,10,,,69,127
8378,note_on,1,0,0,,0,,,72,127
8378,note_on,0,0,0,,7,,,67,127
8512,note_off,134,0,0,,7,,,67,127
8513,note_on,1,0,0,,5,,,65,127
8647,note_off,134,0,0,,5,,,65,127
8647,note_off,0,0,0,,0,,,72,127
8647,note_off,0,0,0,,0,,,84,127
8648,note_on,1,0,0,,0,,,72,127
8648,note_on,0,0,0,,4,,,64,127
8782,note_off,134,0,0,,4,,,64,127
8783,note_on,1,0,0,,2,,,62,127
8917,note_off,134,0,0,,2,,,62,127
8917,note_off,0,0,0,,0,,,72,127
8918,note_on,1,0,0,,0,,,84,127
8918,note_on,0,0,0,,0,,,60,127
9052,note_off,134,0,0,,0,,,84,127
9053,note_on,1,0,0,,11,,,82,127
9187,note_off,134,0,0,,11,,,82,127
9187,note_off,0,0,0,,0,,,60,127
9188,note_on,1,0,0,,10,,,81,127
9188,note_on,0,0,0,,0,,,60,127
9322,note_off,134,0,0,,10,,,81,127
9323,note_on,1,0,0,,7,,,79,127
9457,note_off,134,0,0,,7,,,79,127
9457,note_off,0,0,0,,0,,,60,127
9458,note_on,1,0,0,,5,,,77,127
9458,note_on,0,0,0,,11,,,58,127
9592,note_off,134,0,0,,5,,,77,127
9593,note_on,1,0,0,,4,,,76,127
9727,note_off,134,0,0,,4,,,76,127
9727,note_off,0,0,0,,11,,,58,127
9728,note_on,1,0,0,,5,,,77,127
9728,note_on,0,0,0,,10,,,57,127
9862,note_off,134,0,0,,5,,,77,127
9863,note_on,1,0,0,,7,,,79,127
9997,note_off,134,0,0,,7,,,79,127
9997,note_off,0,0,0,,10,,,57,127
9998,note_on,1,0,0,,5,,,77,127
9998,note_on,0,0,0,,5,,,53,127
10132,note_off,134,0,0,,5,,,77,127
10133,note_on,1,0,0,,4,,,76,127
10267,note_off,134,0,0,,4,,,76,127
10267,note_off,0,0,0,,5,,,53,127
10268,note_on,1,0,0,,2,,,74,127
10268,note_on,0,0,0,,10,,,57,127
10402,note_off,134,0,0,,2,,,74,127
10403,note_on,1,0,0,,0,,,72,127
10537,note_off,134,0,0,,0,,,72,127
10537,note_off,0,0,0,,10,,,57,127
10538,note_on,1,0,0,,2,,,74,127
10538,note_on,0,0,0,,11,,,58,127
10672,note_off,134,0,0,,2,,,74,127
10673,note_on,1,0,0,,0,,,72,127
10807,note_off,134,0,0,,0,,,72,127
10807,note_off,0,0,0,,11,,,58,127
10808,note_on,1,0,0,,11,,,70,127
10808,note_on,0,0,0,,11,,,58,127
10942,note_off,134,0,0,,11,,,70,127
10943,note_on,1,0,0,,10,,,69,127
11077,note_off,134,0,0,,10,,,69,127
11077,note_off,0,0,0,,11,,,58,127
11078,note_on,1,0,0,,7,,,67,127
11078,note_on,0,0,0,,12,,,59,127
11212,note_off,134,0,0,,7,,,67,127
11213,note_on,1,0,0,,5,,,65,127
11347,note_off,134,0,0,,5,,,65,127
11347,note_off,0,0,0,,12,,,59,127
11348,note_on,1,0,0,,4,,,64,127
11348,note_on,0,0,0,,0,,,60,127
11482,note_off,134,0,0,,4,,,64,127
11483,note_on,1,0,0,,7,,,67,127
11617,note_off,134,0,0,,7,,,67,127
11618,note_on,1,0,0,,11,,,70,127
11752,note_off,134,0,0,,0,,,60,127
11753,note_on,1,0,0,,4,,,64,127
11887,note_off,134,0,0,,4,,,64,127
11888,note_on,1,0,0,,5,,,65,127
12022,note_off,134,0,0,,11,,,70,127
12023,note_on,1,0,0,,10,,,69,127
12157,note_off,134,0,0,,5,,,65,127
12158,note_on,1,0,0,,0,,,60,127
12265,note_off,107,0,0,,10,,,69,127
12293,note_on,28,0,0,,4,,,76,127
12427,note_off,134,0,0,,4,,,76,127
12428,note_on,1,0,0,,7,,,79,127
12562,note_off,134,0,0,,0,,,60,127
12563,note_on,1,0,0,,7,,,67,127
12697,note_off,134,0,0,,7,,,67,127
12698,note_on,1,0,0,,10,,,69,127
12832,note_off,134,0,0,,7,,,79,127
12833,note_on,1,0,0,,5,,,77,127
12967,note_off,134,0,0,,10,,,69,127
12968,note_on,1,0,0,,0,,,60,127
13075,note_off,107,0,0,,5,,,77,127
13103,note_on,28,0,0,,7,,,67,127
13237,note_off,134,0,0,,7,,,67,127
13238,note_on,1,0,0,,11,,,70,127
13372,note_off,134,0,0,,0,,,60,127
13373,note_on,1,0,0,,4,,,64,127
13507,note_off,134,0,0,,4,,,64,127
13508,note_on,1,0,0,,5,,,65,127
13642,note_off,134,0,0,,11,,,70,127
13643,note_on,1,0,0,,10,,,69,127
13777,note_off,134,0,0,,5,,,65,127
13778,note_on,1,0,0,,0,,,60,127
13885,note_off,107,0,0,,10,,,69,127
13913,note_on,28,0,0,,12,,,71,127
14047,note_off,134,0,0,,12,,,71,127
14048,note_on,1,0,0,,2,,,74,127
14182,note_off,134,0,0,,0,,,60,127
14183,note_on,1,0,0,,5,,,65,127
14317,note_off,134,0,0,,5,,,65,127
14318,note_on,1,0,0,,4,,,64,127
14452,note_off,134,0,0,,2,,,74,127
14453,note_on,1,0,0,,0,,,72,127
14587,note_off,134,0,0,,4,,,64,127
14588,note_on,1,0,0,,11,,,58,127
14695,note_off,107,0,0,,0,,,72,127
14723,note_on,28,0,0,,4,,,76,127
14857,note_off,134,0,0,,4,,,76,127
14858,note_on,1,0,0,,7,,,79,127
14992,note_off,134,0,0,,11,,,58,127
14993,note_on,1,0,0,,7,,,55,127
15127,note_off,134,0,0,,7,,,55,127
15128,note_on,1,0,0,,10,,,57,127
15262,note_off,134,0,0,,7,,,79,127
15263,note_on,1,0,0,,5,,,77,127
15397,note_off,134,0,0,,10,,,57,127
15398,note_on,1,0,0,,7,,,55,127
15398,note_on,0,0,0,,4,,,64,127
15505,note_off,107,0,0,,5,,,77,127
15533,note_on,28,0,0,,7,,,79,127
15667,note_off,134,0,0,,7,,,79,127
15668,note_on,1,0,0,,11,,,82,127
15802,note_off,134,0,0,,4,,,64,127
15803,note_on,1,0,0,,0,,,60,127
15937,note_off,134,0,0,,0,,,60,127
15937,note_off,0,0,0,,7,,,55,127
15938,note_on,1,0,0,,5,,,53,127
15938,note_on,0,0,0,,5,,,65,127
16072,note_off,134,0,0,,11,,,82,127
16073,note_on,1,0,0,,10,,,81,127
16207,note_off,134,0,0,,5,,,65,127
16207,note_off,0,0,0,,5,,,53,127
16208,note_on,1,0,0,,11,,,58,127
16315,note_off,107,0,0,,10,,,81,127
16343,note_on,28,0,0,,2,,,86,127
16477,note_off,134,0,0,,2,,,86,127
16477,note_off,0,0,0,,11,,,58,127
16478,note_on,1,0,0,,0,,,84,127
16478,note_on,0,0,0,,0,,,60,127
16612,note_off,134,0,0,,0,,,84,127
16613,note_on,1,0,0,,11,,,82,127
16747,note_off,134,0,0,,11,,,82,127
16748,note_on,1,0,0,,10,,,81,127
16748,note_on,0,0,0,,0,,,48,127
16882,note_off,134,0,0,,10,,,81,127
16883,note_on,1,0,0,,7,,,79,127
17017,note_off,134,0,0,,7,,,79,127
17017,note_off,0,0,0,,0,,,48,127
17017,note_off,0,0,0,,0,,,60,127
17018,note_on,1,0,0,,5,,,77,127
17018,note_on,0,0,0,,5,,,53,127
17152,note_off,134,0,0,,5,,,77,127
17153,note_on,1,0,0,,4,,,76,127
17287,note_off,134,0,0,,4,,,76,127
17287,note_off,0,0,0,,5,,,53,127
17288,note_on,1,0,0,,2,,,74,127
17288,note_on,0,0,0,,10,,,57,127
17422,note_off,134,0,0,,2,,,74,127
17423,note_on,1,0,0,,0,,,72,127
17557,note_off,134,0,0,,0,,,72,127
17557,note_off,0,0,0,,10,,,57,127
17558,note_on,1,0,0,,11,,,70,127
17558,note_on,0,0,0,,11,,,58,127
17692,note_off,134,0,0,,11,,,70,127
17693,note_on,1,0,0,,10,,,69,127
17827,note_off,134,0,0,,10,,,69,127
17827,note_off,0,0,0,,11,,,58,127
17828,note_on,1,0,0,,4,,,64,127
17828,note_on,0,0,0,,0,,,60,127
17962,note_off,134,0,0,,4,,,64,127
17963,note_on,1,0,0,,7,,,67,127
18097,note_off,134,0,0,,7,,,67,127
18098,note_on,1,0,0,,11,,,70,127
18232,note_off,134,0,0,,0,,,60,127
18233,note_on,1,0,0,,4,,,64,127
18367,note_off,134,0,0,,4,,,64,127
18368,note_on,1,0,0,,5,,,65,127
18502,note_off,134,0,0,,11,,,70,127
18503,note_on,1,0,0,,10,,,69,127
18637,note_off,134,0,0,,5,,,65,127
18638,note_on,1,0,0,,0,,,60,127
18745,note_off,107,0,0,,10,,,69,127
18773,note_on,28,0,0,,4,,,76,127
18907,note_off,134,0,0,,4,,,76,127
18908,note_on,1,0,0,,7,,,79,127
19042,note_off,134,0,0,,0,,,60,127
19043,note_on,1,0,0,,7,,,67,127
19177,note_off,134,0,0,,7,,,67,127
19178,note_on,1,0,0,,10,,,69,127
19312,note_off,134,0,0,,7,,,79,127
19313,note_on,1,0,0,,5,,,77,127
19447,note_off,134,0,0,,10,,,69,127
19448,note_on,1,0,0,,0,,,60,127
19555,note_off,107,0,0,,5,,,77,127
19583,note_on,28,0,0,,7,,,67,127
19717,note_off,134,0,0,,7,,,67,127
19718,note_on,1,0,0,,11,,,70,127
19852,note_off,134,0,0,,0,,,60,127
19853,note_on,1,0,0,,4,,,64,127
19987,note_off,134,0,0,,4,,,64,127
19988,note_on,1,0,0,,5,,,65,127
20122,note_off,134,0,0,,11,,,70,127
20123,note_on,1,0,0,,10,,,69,127
20257,note_off,134,0,0,,5,,,65,127
20258,note_on,1,0,0,,0,,,60,127
20365,note_off,107,0,0,,10,,,69,127
20393,note_on,28,0,0,,12,,,71,127
20527,note_off,134,0,0,,12,,,71,127
20528,note_on,1,0,0,,2,,,74,127
20662,note_off,134,0,0,,0,,,60,127
20663,note_on,1,0,0,,5,,,65,127
20797,note_off,134,0,0,,5,,,65,127
20798,note_on,1,0,0,,4,,,64,127
20932,note_off,134,0,0,,2,,,74,127
20933,note_on,1,0,0,,0,,,72,127
21067,note_off,134,0,0,,4,,,64,127
21068,note_on,1,0,0,,11,,,58,127
21175,note_off,107,0,0,,0,,,72,127
21203,note_on,28,0,0,,4,,,76,127
21337,note_off,134,0,0,,4,,,76,127
21338,note_on,1,0,0,,7,,,79,127
21472,note_off,134,0,0,,11,,,58,127
21473,note_on,1,0,0,,7,,,55,127
21607,note_off,134,0,0,,7,,,55,127
21608,note_on,1,0,0,,10,,,57,127
21742,note_off,134,0,0,,7,,,79,127
21743,note_on,1,0,0,,5,,,77,127
21877,note_off,134,0,0,,10,,,57,127
21878,note_on,1,0,0,,7,,,55,127
21878,note_on,0,0,0,,4,,,64,127
21985,note_off,107,0,0,,5,,,77,127
22013,note_on,28,0,0,,7,,,79,127
22147,note_off,134,0,0,,7,,,79,127
22148,note_on,1,0,0,,11,,,82,127
22282,note_off,134,0,0,,4,,,64,127
22283,note_on,1,0,0,,0,,,60,127
22417,note_off,134,0,0,,0,,,60,127
22417,note_off,0,0,0,,7,,,55,127
22418,note_on,1,0,0,,5,,,65,127
22418,note_on,0,0,0,,5,,,53,127
22552,note_off,134,0,0,,11,,,82,127
22553,note_on,1,0,0,,10,,,81,127
22687,note_off,134,0,0,,5,,,53,127
22687,note_off,0,0,0,,5,,,65,127
22688,note_on,1,0,0,,11,,,58,127
22795,note_off,107,0,0,,10,,,81,127
22823,note_on,28,0,0,,2,,,86,127
22957,note_off,134,0,0,,2,,,86,127
22957,note_off,0,0,0,,11,,,58,127
22958,note_on,1,0,0,,0,,,84,127
22958,note_on,0,0,0,,0,,,60,127
23092,note_off,134,0,0,,0,,,84,127
23093,note_on,1,0,0,,11,,,82,127
23227,note_off,134,0,0,,11,,,82,127
23228,note_on,1,0,0,,10,,,81,127
23228,note_on,0,0,0,,0,,,48,127
23362,note_off,134,0,0,,10,,,81,127
23363,note_on,1,0,0,,7,,,79,127
23497,note_off,134,0,0,,7,,,79,127
23497,note_off,0,0,0,,0,,,48,127
23497,note_off,0,0,0,,0,,,60,127
23498,note_on,1,0,0,,5,,,77,127
23498,note_on,0,0,0,,5,,,53,127
23632,note_off,134,0,0,,5,,,53,127
23633,note_on,1,0,0,,0,,,60,127
23767,note_off,134,0,0,,0,,,60,127
23768,note_on,1,0,0,,5,,,65,127
23875,note_off,107,0,0,,5,,,77,127
23902,note_off,27,0,0,,5,,,65,127
23903,note_on,1,0,0,,7,,,79,127
23903,note_on,0,0,0,,10,,,57,127
24037,note_off,134,0,0,,10,,,57,127
24038,note_on,1,0,0,,11,,,58,127
24172,note_off,134,0,0,,11,,,58,127
24172,note_off,0,0,0,,7,,,79,127
24173,note_on,1,0,0,,5,,,77,127
24173,note_on,0,0,0,,5,,,65,127
24307,note_off,134,0,0,,5,,,65,127
24308,note_on,1,0,0,,10,,,57,127
24442,note_off,134,0,0,,10,,,57,127
24442,note_off,0,0,0,,5,,,77,127
24443,note_on,1,0,0,,0,,,60,127
24577,note_off,134,0,0,,0,,,60,127
24578,note_on,1,0,0,,5,,,65,127
24712,note_off,134,0,0,,5,,,65,127
24713,note_on,1,0,0,,7,,,79,127
24713,note_on,0,0,0,,10,,,57,127
24847,note_off,134,0,0,,10,,,57,127
24848,note_on,1,0,0,,11,,,58,127
24982,note_off,134,0,0,,11,,,58,127
24982,note_off,0,0,0,,7,,,79,127
24983,note_on,1,0,0,,5,,,77,127
24983,note_on,0,0,0,,5,,,65,127
25117,note_off,134,0,0,,5,,,65,127
25118,note_on,1,0,0,,10,,,57,127
25252,note_off,134,0,0,,10,,,57,127
25252,note_off,0,0,0,,5,,,77,127
25253,note_on,1,0,0,,0,,,60,127
25387,note_off,134,0,0,,0,,,60,127
25388,note_on,1,0,0,,5,,,65,127
25522,note_off,134,0,0,,5,,,65,127
25523,note_on,1,0,0,,7,,,79,127
25523,note_on,0,0,0,,10,,,57,127
25657,note_off,134,0,0,,10,,,57,127
25658,note_on,1,0,0,,11,,,58,127
25792,note_off,134,0,0,,11,,,58,127
25792,note_off,0,0,0,,7,,,79,127
25793,note_on,1,0,0,,5,,,77,127
25793,note_on,0,0,0,,5,,,65,127
25929,note_on,136,0,0,,10,,,57,127
26063,note_off,134,0,0,,5,,,77,127
26064,note_on,1,0,0,,2,,,74,127
26198,note_off,134,0,0,,2,,,74,127
26198,note_off,0,0,0,,10,,,57,127
26199,note_on,1,0,0,,0,,,72,127
26199,note_on,0,0,0,,11,,,58,127
26333,note_off,134,0,0,,0,,,72,127
26334,note_on,1,0,0,,11,,,70,127
26468,note_off,134,0,0,,11,,,70,127
26468,note_off,0,0,0,,11,,,58,127
26468,note_off,0,0,0,,5,,,65,127
26469,note_on,1,0,0,,10,,,69,127
26469,note_on,0,0,0,,0,,,60,127
26469,note_on,0,0,0,,4,,,64,127
26603,note_off,134,0,0,,10,,,69,127
26604,note_on,1,0,0,,7,,,67,127
26738,note_off,134,0,0,,7,,,67,127
26738,note_off,0,0,0,,4,,,64,127
26738,note_off,0,0,0,,0,,,60,127
26739,note_on,1,0,0,,5,,,65,127
26739,note_on,0,0,0,,5,,,53,127
26873,note_off,134,0,0,,5,,,53,127
26874,note_on,1,0,0,,0,,,60,127
27008,note_off,134,0,0,,0,,,60,127
27009,note_on,1,0,0,,10,,,57,127
27116,note_off,107,0,0,,5,,,65,127
27143,note_off,27,0,0,,10,,,57,127
27144,note_on,1,0,0,,2,,,74,127
27144,note_on,0,0,0,,5,,,53,127
27278,note_off,134,0,0,,5,,,53,127
27279,note_on,1,0,0,,4,,,52,127
27413,note_off,134,0,0,,4,,,52,127
27413,note_off,0,0,0,,2,,,74,127
27414,note_on,1,0,0,,0,,,72,127
27414,note_on,0,0,0,,11,,,58,127
27548,note_off,134,0,0,,11,,,58,127
27549,note_on,1,0,0,,5,,,53,127
27683,note_off,134,0,0,,5,,,53,127
27683,note_off,0,0,0,,0,,,72,127
27684,note_on,1,0,0,,0,,,60,127
27818,note_off,134,0,0,,0,,,60,127
27819,note_on,1,0,0,,10,,,57,127
27953,note_off,134,0,0,,10,,,57,127
27954,note_on,1,0,0,,2,,,74,127
27954,note_on,0,0,0,,5,,,53,127
28088,note_off,134,0,0,,5,,,53,127
28089,note_on,1,0,0,,4,,,52,127
28223,note_off,134,0,0,,4,,,52,127
28223,note_off,0,0,0,,2,,,74,127
28224,note_on,1,0,0,,0,,,72,127
28224,note_on,0,0,0,,11,,,58,127
28358,note_off,134,0,0,,11,,,58,127
28359,note_on,1,0,0,,5,,,53,127
28493,note_off,134,0,0,,5,,,53,127
28493,note_off,0,0,0,,0,,,72,127
28494,note_on,1,0,0,,0,,,60,127
28628,note_off,134,0,0,,0,,,60,127
28629,note_on,1,0,0,,10,,,57,127
28763,note_off,134,0,0,,10,,,57,127
28764,note_on,1,0,0,,2,,,74,127
28764,note_on,0,0,0,,5,,,53,127
28898,note_off,134,0,0,,5,,,53,127
28899,note_on,1,0,0,,4,,,52,127
29033,note_off,134,0,0,,4,,,52,127
29033,note_off,0,0,0,,2,,,74,127
29034,note_on,1,0,0,,0,,,72,127
29034,note_on,0,0,0,,11,,,58,127
29168,note_off,134,0,0,,11,,,58,127
29169,note_on,1,0,0,,5,,,53,127
29303,note_off,134,0,0,,0,,,72,127
29304,note_on,1,0,0,,11,,,70,127
29438,note_off,134,0,0,,11,,,70,127
29438,note_off,0,0,0,,5,,,53,127
29439,note_on,1,0,0,,10,,,69,127
29439,note_on,0,0,0,,11,,,46,127
29573,note_off,134,0,0,,10,,,69,127
29574,note_on,1,0,0,,7,,,67,127
29708,note_off,134,0,0,,7,,,67,127
29708,note_off,0,0,0,,11,,,46,127
29709,note_on,1,0,0,,5,,,65,127
29709,note_on,0,0,0,,0,,,48,127
29843,note_off,134,0,0,,5,,,65,127
29844,note_on,1,0,0,,4,,,64,127
29978,note_off,134,0,0,,4,,,64,127
29978,note_off,0,0,0,,0,,,48,127
29979,note_on,1,0,0,,7,,,67,127
29979,note_on,0,0,0,,5,,,41,127
30024,note_on,45,0,0,,5,,,65,127
30047,note_off,23,0,0,,7,,,67,127
30070,note_on,23,0,0,,7,,,67,127
30093,note_off,23,0,0,,5,,,65,127
30116,note_on,23,0,0,,5,,,65,127
30139,note_off,23,0,0,,7,,,67,127
30793,note_off,654,0,0,,5,,,65,127
30793,note_off,0,0,0,,5,,,41,127
30794,note_on,1,0,0,,5,,,41,127
31064,note_off,270,0,0,,5,,,41,127
31065,note_on,1,0,0,,5,,,65,127
31335,note_off,270,0,0,,5,,,65,127
31336,note_on,1,0,0,,0,,,60,127
31606,note_off,270,0,0,,0,,,60,127
31607,note_on,1,0,0,,10,,,57,127
31743,note_on,136,0,0,,5,,,77,127
31877,note_off,134,0,0,,5,,,77,127
31877,note_off,0,0,0,,10,,,57,127
31878,note_on,1,0,0,,4,,,76,127
31878,note_on,0,0,0,,5,,,53,127
32012,note_off,134,0,0,,4,,,76,127
32013,note_on,1,0,0,,2,,,74,127
32147,note_off,134,0,0,,2,,,74,127
32147,note_off,0,0,0,,5,,,53,127
32148,note_on,1,0,0,,0,,,72,127
32148,note_on,0,0,0,,5,,,65,127
32282,note_off,134,0,0,,0,,,72,127
32283,note_on,1,0,0,,12,,,71,127
32417,note_off,134,0,0,,12,,,71,127
32417,note_off,0,0,0,,5,,,65,127
32418,note_on,1,0,0,,0,,,72,127
32418,note_on,0,0,0,,4,,,64,127
32552,note_off,134,0,0,,4,,,64,127
32553,note_on,1,0,0,,10,,,69,127
32687,note_off,134,0,0,,10,,,69,127
32688,note_on,1,0,0,,7,,,67,127
32822,note_off,134,0,0,,7,,,67,127
32823,note_off,1,0,0,,0,,,72,127
32823,note_on,0,0,0,,5,,,65,127
32957,note_off,134,0,0,,5,,,65,127
32958,note_on,1,0,0,,4,,,64,127
33092,note_off,134,0,0,,4,,,64,127
33093,note_on,1,0,0,,2,,,62,127
33227,note_off,134,0,0,,2,,,62,127
33228,note_on,1,0,0,,1,,,61,127
33364,note_on,136,0,0,,7,,,79,127
33498,note_off,134,0,0,,7,,,79,127
33498,note_off,0,0,0,,1,,,61,127
33499,note_on,1,0,0,,5,,,77,127
33499,note_on,0,0,0,,10,,,57,127
33633,note_off,134,0,0,,5,,,77,127
33634,note_on,1,0,0,,4,,,76,127
33768,note_off,134,0,0,,4,,,76,127
33768,note_off,0,0,0,,10,,,57,127
33769,note_on,1,0,0,,2,,,74,127
33769,note_on,0,0,0,,7,,,67,127
33903,note_off,134,0,0,,2,,,74,127
33904,note_on,1,0,0,,1,,,73,127
34038,note_off,134,0,0,,1,,,73,127
34038,note_off,0,0,0,,7,,,67,127
34039,note_on,1,0,0,,2,,,74,127
34039,note_on,0,0,0,,5,,,65,127
34173,note_off,134,0,0,,5,,,65,127
34174,note_on,1,0,0,,4,,,64,127
34308,note_off,134,0,0,,4,,,64,127
34309,note_on,1,0,0,,2,,,62,127
34443,note_off,134,0,0,,2,,,62,127
34444,note_on,1,0,0,,0,,,60,127
34578,note_off,134,0,0,,0,,,60,127
34578,note_off,0,0,0,,2,,,74,127
34579,note_on,1,0,0,,10,,,81,127
34579,note_on,0,0,0,,11,,,58,127
34713,note_off,134,0,0,,11,,,58,127
34714,note_on,1,0,0,,10,,,57,127
34848,note_off,134,0,0,,10,,,57,127
34849,note_on,1,0,0,,7,,,55,127
34983,note_off,134,0,0,,10,,,81,127
34984,note_on,1,0,0,,11,,,82,127
35118,note_off,134,0,0,,11,,,82,127
35118,note_off,0,0,0,,7,,,55,127
35119,note_on,1,0,0,,7,,,79,127
35119,note_on,0,0,0,,7,,,67,127
35253,note_off,134,0,0,,7,,,79,127
35254,note_on,1,0,0,,5,,,77,127
35388,note_off,134,0,0,,5,,,77,127
35388,note_off,0,0,0,,7,,,67,127
35389,note_on,1,0,0,,4,,,76,127
35389,note_on,0,0,0,,11,,,58,127
35523,note_off,134,0,0,,4,,,76,127
35524,note_on,1,0,0,,2,,,74,127
35658,note_off,134,0,0,,2,,,74,127
35658,note_off,0,0,0,,11,,,58,127
35659,note_on,1,0,0,,1,,,73,127
35659,note_on,0,0,0,,10,,,57,127
35793,note_off,134,0,0,,1,,,73,127
35794,note_on,1,0,0,,4,,,64,127
35928,note_off,134,0,0,,4,,,64,127
35929,note_on,1,0,0,,7,,,67,127
36063,note_off,134,0,0,,10,,,57,127
36064,note_on,1,0,0,,1,,,61,127
36198,note_off,134,0,0,,1,,,61,127
36199,note_on,1,0,0,,2,,,62,127
36333,note_off,134,0,0,,7,,,67,127
36334,note_on,1,0,0,,5,,,65,127
36468,note_off,134,0,0,,2,,,62,127
36469,note_on,1,0,0,,10,,,57,127
36576,note_off,107,0,0,,5,,,65,127
36604,note_on,28,0,0,,7,,,67,127
36738,note_off,134,0,0,,7,,,67,127
36739,note_on,1,0,0,,11,,,70,127
36873,note_off,134,0,0,,10,,,57,127
36874,note_on,1,0,0,,4,,,64,127
37008,note_off,134,0,0,,4,,,64,127
37009,note_on,1,0,0,,5,,,65,127
37143,note_off,134,0,0,,11,,,70,127
37144,note_on,1,0,0,,10,,,69,127
37278,note_off,134,0,0,,5,,,65,127
37279,note_on,1,0,0,,10,,,57,127
37386,note_off,107,0,0,,10,,,69,127
37414,note_on,28,0,0,,1,,,73,127
37548,note_off,134,0,0,,1,,,73,127
37549,note_on,1,0,0,,4,,,76,127
37683,note_off,134,0,0,,10,,,57,127
37684,note_on,1,0,0,,4,,,64,127
37818,note_off,134,0,0,,4,,,64,127
37819,note_on,1,0,0,,5,,,65,127
37953,note_off,134,0,0,,4,,,76,127
37954,note_on,1,0,0,,2,,,74,127
38088,note_off,134,0,0,,5,,,65,127
38089,note_on,1,0,0,,4,,,64,127
38089,note_on,0,0,0,,8,,,68,127
38196,note_off,107,0,0,,2,,,74,127
38224,note_on,28,0,0,,2,,,74,127
38358,note_off,134,0,0,,8,,,68,127
38358,note_off,0,0,0,,4,,,64,127
38359,note_on,1,0,0,,5,,,65,127
38359,note_on,0,0,0,,10,,,69,127
38493,note_off,134,0,0,,2,,,74,127
38494,note_on,1,0,0,,2,,,74,127
38628,note_off,134,0,0,,10,,,69,127
38628,note_off,0,0,0,,5,,,65,127
38629,note_on,1,0,0,,4,,,64,127
38629,note_on,0,0,0,,8,,,68,127
38763,note_off,134,0,0,,2,,,74,127
38764,note_on,1,0,0,,2,,,74,127
38898,note_off,134,0,0,,8,,,68,127
38898,note_off,0,0,0,,4,,,64,127
38899,note_on,1,0,0,,5,,,65,127
38899,note_on,0,0,0,,10,,,69,127
39033,note_off,134,0,0,,2,,,74,127
39034,note_on,1,0,0,,2,,,74,127
39168,note_off,134,0,0,,10,,,69,127
39168,note_off,0,0,0,,5,,,65,127
39169,note_on,1,0,0,,8,,,68,127
39169,note_on,0,0,0,,4,,,64,127
39303,note_off,134,0,0,,2,,,74,127
39304,note_on,1,0,0,,2,,,74,127
39438,note_off,134,0,0,,4,,,64,127
39438,note_off,0,0,0,,8,,,68,127
39439,note_on,1,0,0,,5,,,65,127
39439,note_on,0,0,0,,10,,,69,127
39573,note_off,134,0,0,,2,,,74,127
39574,note_on,1,0,0,,2,,,74,127
39708,note_off,134,0,0,,10,,,69,127
39708,note_off,0,0,0,,5,,,65,127
39709,note_on,1,0,0,,6,,,66,127
39709,note_on,0,0,0,,10,,,69,127
39843,note_off,134,0,0,,2,,,74,127
39844,note_on,1,0,0,,2,,,74,127
39978,note_off,134,0,0,,10,,,69,127
39978,note_off,0,0,0,,6,,,66,127
39979,note_on,1,0,0,,7,,,67,127
39979,note_on,0,0,0,,11,,,70,127
40113,note_off,134,0,0,,2,,,74,127
40114,note_on,1,0,0,,2,,,74,127
40248,note_off,134,0,0,,11,,,70,127
40248,note_off,0,0,0,,7,,,67,127
40249,note_on,1,0,0,,6,,,66,127
40249,note_on,0,0,0,,10,,,69,127
40383,note_off,134,0,0,,2,,,74,127
40384,note_on,1,0,0,,2,,,74,127
40518,note_off,134,0,0,,10,,,69,127
40518,note_off,0,0,0,,6,,,66,127
40519,note_on,1,0,0,,11,,,70,127
40519,note_on,0,0,0,,7,,,67,127
40653,note_off,134,0,0,,2,,,74,127
40654,note_on,1,0,0,,2,,,74,127
40788,note_off,134,0,0,,7,,,67,127
40788,note_off,0,0,0,,11,,,70,127
40789,note_on,1,0,0,,10,,,69,127
40789,note_on,0,0,0,,6,,,66,127
40923,note_off,134,0,0,,2,,,74,127
40924,note_on,1,0,0,,2,,,74,127
41058,note_off,134,0,0,,6,,,66,127
41058,note_off,0,0,0,,10,,,69,127
41059,note_on,1,0,0,,11,,,70,127
41059,note_on,0,0,0,,7,,,67,127
41193,note_off,134,0,0,,2,,,74,127
41194,note_on,1,0,0,,2,,,74,127
41328,note_off,134,0,0,,7,,,67,127
41328,note_off,0,0,0,,11,,,70,127
41329,note_on,1,0,0,,5,,,65,127
41329,note_on,0,0,0,,12,,,71,127
41329,note_on,0,0,0,,7,,,67,127
41436,note_off,107,0,0,,2,,,74,127
41464,note_on,28,0,0,,8,,,80,127
41598,note_off,134,0,0,,7,,,67,127
41598,note_off,0,0,0,,12,,,71,127
41598,note_off,0,0,0,,5,,,65,127
41599,note_on,1,0,0,,7,,,67,127
41599,note_on,0,0,0,,5,,,65,127
41599,note_on,0,0,0,,12,,,71,127
41733,note_off,134,0,0,,8,,,80,127
41734,note_on,1,0,0,,7,,,79,127
41868,note_off,134,0,0,,7,,,79,127
41868,note_off,0,0,0,,12,,,71,127
41868,note_off,0,0,0,,5,,,65,127
41868,note_off,0,0,0,,7,,,67,127
41869,note_on,1,0,0,,5,,,77,127
41869,note_on,0,0,0,,7,,,67,127
41869,note_on,0,0,0,,5,,,65,127
41869,note_on,0,0,0,,12,,,71,127
42003,note_off,134,0,0,,5,,,77,127
42004,note_on,1,0,0,,3,,,75,127
42138,note_off,134,0,0,,3,,,75,127
42138,note_off,0,0,0,,12,,,71,127
42138,note_off,0,0,0,,5,,,65,127
42138,note_off,0,0,0,,7,,,67,127
42139,note_on,1,0,0,,2,,,74,127
42139,note_on,0,0,0,,7,,,67,127
42139,note_on,0,0,0,,5,,,65,127
42273,note_off,134,0,0,,2,,,74,127
42274,note_on,1,0,0,,0,,,72,127
42408,note_off,134,0,0,,0,,,72,127
42408,note_off,0,0,0,,5,,,65,127
42408,note_off,0,0,0,,7,,,67,127
42409,note_on,1,0,0,,12,,,71,127
42409,note_on,0,0,0,,7,,,67,127
42409,note_on,0,0,0,,5,,,65,127
42543,note_off,134,0,0,,12,,,71,127
42544,note_on,1,0,0,,8,,,80,127
42678,note_off,134,0,0,,8,,,80,127
42678,note_off,0,0,0,,5,,,65,127
42678,note_off,0,0,0,,7,,,67,127
42679,note_on,1,0,0,,7,,,79,127
42679,note_on,0,0,0,,5,,,65,127
42679,note_on,0,0,0,,7,,,67,127
42813,note_off,134,0,0,,7,,,79,127
42814,note_on,1,0,0,,12,,,71,127
42948,note_off,134,0,0,,12,,,71,127
42948,note_off,0,0,0,,7,,,67,127
42948,note_off,0,0,0,,5,,,65,127
42949,note_on,1,0,0,,0,,,72,127
42949,note_on,0,0,0,,3,,,63,127
42949,note_on,0,0,0,,7,,,67,127
43083,note_off,134,0,0,,0,,,72,127
43084,note_on,1,0,0,,7,,,79,127
43218,note_off,134,0,0,,7,,,67,127
43218,note_off,0,0,0,,3,,,63,127
43219,note_on,1,0,0,,3,,,63,127
43219,note_on,0,0,0,,7,,,67,127
43353,note_off,134,0,0,,7,,,79,127
43354,note_on,1,0,0,,5,,,77,127
43488,note_off,134,0,0,,5,,,77,127
43488,note_off,0,0,0,,7,,,67,127
43488,note_off,0,0,0,,3,,,63,127
43489,note_on,1,0,0,,3,,,75,127
43489,note_on,0,0,0,,7,,,67,127
43489,note_on,0,0,0,,3,,,63,127
43623,note_off,134,0,0,,3,,,75,127
43624,note_on,1,0,0,,2,,,74,127
43758,note_off,134,0,0,,2,,,74,127
43758,note_off,0,0,0,,3,,,63,127
43758,note_off,0,0,0,,7,,,67,127
43759,note_on,1,0,0,,0,,,72,127
43759,note_on,0,0,0,,3,,,63,127
43759,note_on,0,0,0,,5,,,65,127
43893,note_off,134,0,0,,0,,,72,127
43894,note_on,1,0,0,,11,,,70,127
44028,note_off,134,0,0,,11,,,70,127
44028,note_off,0,0,0,,5,,,65,127
44028,note_off,0,0,0,,3,,,63,127
44029,note_on,1,0,0,,10,,,69,127
44029,note_on,0,0,0,,3,,,63,127
44029,note_on,0,0,0,,5,,,65,127
44163,note_off,134,0,0,,10,,,69,127
44164,note_on,1,0,0,,7,,,79,127
44298,note_off,134,0,0,,7,,,79,127
44298,note_off,0,0,0,,5,,,65,127
44298,note_off,0,0,0,,3,,,63,127
44299,note_on,1,0,0,,5,,,77,127
44299,note_on,0,0,0,,3,,,63,127
44299,note_on,0,0,0,,5,,,65,127
44433,note_off,134,0,0,,5,,,77,127
44434,note_on,1,0,0,,10,,,69,127
44568,note_off,134,0,0,,10,,,69,127
44568,note_off,0,0,0,,5,,,65,127
44568,note_off,0,0,0,,3,,,63,127
44569,note_on,1,0,0,,11,,,70,127
44569,note_on,0,0,0,,2,,,62,127
44569,note_on,0,0,0,,5,,,65,127
44703,note_off,134,0,0,,11,,,70,127
44704,note_on,1,0,0,,11,,,82,127
44838,note_off,134,0,0,,5,,,65,127
44838,note_off,0,0,0,,2,,,62,127
44839,note_on,1,0,0,,2,,,62,127
44839,note_on,0,0,0,,5,,,65,127
44973,note_off,134,0,0,,11,,,82,127
44974,note_on,1,0,0,,10,,,81,127
45108,note_off,134,0,0,,10,,,81,127
45108,note_off,0,0,0,,5,,,65,127
45108,note_off,0,0,0,,2,,,62,127
45109,note_on,1,0,0,,7,,,79,127
45109,note_on,0,0,0,,5,,,65,127
45109,note_on,0,0,0,,2,,,62,127
45243,note_off,134,0,0,,7,,,79,127
45244,note_on,1,0,0,,5,,,77,127
45378,note_off,134,0,0,,5,,,77,127
45378,note_off,0,0,0,,2,,,62,127
45378,note_off,0,0,0,,5,,,65,127
45379,note_on,1,0,0,,3,,,75,127
45379,note_on,0,0,0,,7,,,67,127
45379,note_on,0,0,0,,3,,,63,127
45513,note_off,134,0,0,,3,,,75,127
45514,note_on,1,0,0,,2,,,74,127
45648,note_off,134,0,0,,2,,,74,127
45648,note_off,0,0,0,,3,,,63,127
45648,note_off,0,0,0,,7,,,67,127
45649,note_on,1,0,0,,0,,,72,127
45649,note_on,0,0,0,,3,,,63,127
45649,note_on,0,0,0,,7,,,67,127
45783,note_off,134,0,0,,0,,,72,127
45784,note_on,1,0,0,,11,,,70,127
45918,note_off,134,0,0,,11,,,70,127
45918,note_off,0,0,0,,7,,,67,127
45918,note_off,0,0,0,,3,,,63,127
45919,note_on,1,0,0,,10,,,69,127
45919,note_on,0,0,0,,3,,,63,127
45919,note_on,0,0,0,,7,,,67,127
46053,note_off,134,0,0,,10,,,69,127
46054,note_on,1,0,0,,11,,,70,127
46188,note_off,134,0,0,,7,,,67,127
46188,note_off,0,0,0,,3,,,63,127
46189,note_on,1,0,0,,5,,,65,127
46296,note_off,107,0,0,,11,,,70,127
46324,note_on,28,0,0,,0,,,72,127
46458,note_off,134,0,0,,0,,,72,127
46459,note_on,1,0,0,,3,,,75,127
46593,note_off,134,0,0,,5,,,65,127
46594,note_on,1,0,0,,10,,,69,127
46728,note_off,134,0,0,,10,,,69,127
46729,note_on,1,0,0,,11,,,70,127
46863,note_off,134,0,0,,3,,,75,127
46864,note_on,1,0,0,,2,,,74,127
46998,note_off,134,0,0,,11,,,70,127
46999,note_on,1,0,0,,5,,,65,127
47106,note_off,107,0,0,,2,,,74,127
47134,note_on,28,0,0,,10,,,81,127
47268,note_off,134,0,0,,10,,,81,127
47269,note_on,1,0,0,,0,,,84,127
47403,note_off,134,0,0,,5,,,65,127
47404,note_on,1,0,0,,0,,,72,127
47538,note_off,134,0,0,,0,,,72,127
47539,note_on,1,0,0,,2,,,74,127
47673,note_off,134,0,0,,0,,,84,127
47674,note_on,1,0,0,,11,,,82,127
47808,note_off,134,0,0,,2,,,74,127
47809,note_on,1,0,0,,5,,,65,127
47916,note_off,107,0,0,,11,,,82,127
47944,note_on,28,0,0,,0,,,72,127
48078,note_off,134,0,0,,0,,,72,127
48079,note_on,1,0,0,,3,,,75,127
48213,note_off,134,0,0,,5,,,65,127
48214,note_on,1,0,0,,10,,,69,127
48348,note_off,134,0,0,,10,,,69,127
48349,note_on,1,0,0,,11,,,70,127
48483,note_off,134,0,0,,3,,,75,127
48484,note_on,1,0,0,,2,,,74,127
48618,note_off,134,0,0,,11,,,70,127
48619,note_on,1,0,0,,7,,,67,127
48726,note_off,107,0,0,,2,,,74,127
48754,note_on,28,0,0,,4,,,76,127
48888,note_off,134,0,0,,4,,,76,127
48889,note_on,1,0,0,,7,,,79,127
49023,note_off,134,0,0,,7,,,67,127
49024,note_on,1,0,0,,11,,,70,127
49158,note_off,134,0,0,,11,,,70,127
49159,note_on,1,0,0,,10,,,69,127
49293,note_off,134,0,0,,7,,,79,127
49294,note_on,1,0,0,,5,,,77,127
49428,note_off,134,0,0,,10,,,69,127
49429,note_on,1,0,0,,3,,,63,127
49536,note_off,107,0,0,,5,,,77,127
49564,note_on,28,0,0,,10,,,81,127
49698,note_off,134,0,0,,10,,,81,127
49699,note_on,1,0,0,,0,,,84,127
49833,note_off,134,0,0,,3,,,63,127
49834,note_on,1,0,0,,0,,,60,127
49968,note_off,134,0,0,,0,,,60,127
49969,note_on,1,0,0,,2,,,62,127
50103,note_off,134,0,0,,0,,,84,127
50104,note_on,1,0,0,,11,,,82,127
50238,note_off,134,0,0,,2,,,62,127
50239,note_on,1,0,0,,3,,,63,127
50373,note_off,134,0,0,,11,,,82,127
50374,note_on,1,0,0,,7,,,79,127
50508,note_off,134,0,0,,7,,,79,127
50508,note_off,0,0,0,,3,,,63,127
50509,note_on,1,0,0,,5,,,77,127
50509,note_on,0,0,0,,5,,,65,127
50643,note_off,134,0,0,,5,,,77,127
50644,note_on,1,0,0,,3,,,75,127
50778,note_off,134,0,0,,3,,,75,127
50778,note_off,0,0,0,,5,,,65,127
50779,note_on,1,0,0,,2,,,74,127
50779,note_on,0,0,0,,5,,,53,127
50913,note_off,134,0,0,,2,,,74,127
50914,note_on,1,0,0,,0,,,72,127
51048,note_off,134,0,0,,0,,,72,127
51048,note_off,0,0,0,,5,,,53,127
51049,note_on,1,0,0,,11,,,70,127
51049,note_on,0,0,0,,11,,,58,127
51183,note_off,134,0,0,,11,,,70,127
51184,note_on,1,0,0,,10,,,69,127
51318,note_off,134,0,0,,10,,,69,127
51318,note_off,0,0,0,,11,,,58,127
51319,note_on,1,0,0,,7,,,67,127
51319,note_on,0,0,0,,3,,,63,127
51453,note_off,134,0,0,,7,,,67,127
51454,note_on,1,0,0,,5,,,65,127
51588,note_off,134,0,0,,5,,,65,127
51588,note_off,0,0,0,,3,,,63,127
51589,note_on,1,0,0,,3,,,63,127
51589,note_on,0,0,0,,3,,,51,127
51723,note_off,134,0,0,,3,,,63,127
51724,note_on,1,0,0,,2,,,62,127
51858,note_off,134,0,0,,3,,,51,127
51859,note_on,1,0,0,,5,,,53,127
51966,note_off,107,0,0,,2,,,62,127
51994,note_on,28,0,0,,0,,,60,127
52128,note_off,134,0,0,,0,,,60,127
52129,note_on,1,0,0,,3,,,63,127
52263,note_off,134,0,0,,5,,,53,127
52264,note_on,1,0,0,,10,,,57,127
52398,note_off,134,0,0,,10,,,57,127
52399,note_on,1,0,0,,11,,,58,127
52533,note_off,134,0,0,,3,,,63,127
52534,note_on,1,0,0,,2,,,62,127
52668,note_off,134,0,0,,11,,,58,127
52669,note_on,1,0,0,,5,,,53,127
52731,note_off,62,0,0,,2,,,62,127
52804,note_on,73,0,0,,10,,,69,127
52938,note_off,134,0,0,,10,,,69,127
52939,note_on,1,0,0,,0,,,72,127
53073,note_off,134,0,0,,5,,,53,127
53074,note_on,1,0,0,,3,,,63,127
53208,note_off,134,0,0,,3,,,63,127
53209,note_on,1,0,0,,2,,,62,127
53343,note_off,134,0,0,,0,,,72,127
53344,note_on,1,0,0,,11,,,70,127
53478,note_off,134,0,0,,2,,,62,127
53479,note_on,1,0,0,,5,,,53,127
53586,note_off,107,0,0,,11,,,70,127
53614,note_on,28,0,0,,0,,,72,127
53748,note_off,134,0,0,,0,,,72,127
53749,note_on,1,0,0,,3,,,75,127
53883,note_off,134,0,0,,5,,,53,127
53884,note_on,1,0,0,,10,,,57,127
54018,note_off,134,0,0,,10,,,57,127
54019,note_on,1,0,0,,11,,,58,127
54153,note_off,134,0,0,,3,,,75,127
54154,note_on,1,0,0,,2,,,74,127
54288,note_off,134,0,0,,11,,,58,127
54289,note_on,1,0,0,,5,,,53,127
54396,note_off,107,0,0,,2,,,74,127
54424,note_on,28,0,0,,10,,,81,127
54558,note_off,134,0,0,,10,,,81,127
54559,note_on,1,0,0,,0,,,84,127
54693,note_off,134,0,0,,5,,,53,127
54694,note_on,1,0,0,,3,,,63,127
54828,note_off,134,0,0,,3,,,63,127
54829,note_on,1,0,0,,2,,,62,127
54963,note_off,134,0,0,,0,,,84,127
54964,note_on,1,0,0,,11,,,82,127
55098,note_off,134,0,0,,2,,,62,127
55099,note_on,1,0,0,,3,,,63,127
55233,note_off,134,0,0,,11,,,82,127
55234,note_on,1,0,0,,7,,,79,127
55368,note_off,134,0,0,,7,,,79,127
55368,note_off,0,0,0,,3,,,63,127
55369,note_on,1,0,0,,5,,,77,127
55369,note_on,0,0,0,,5,,,65,127
55503,note_off,134,0,0,,5,,,77,127
55504,note_on,1,0,0,,3,,,75,127
55638,note_off,134,0,0,,3,,,75,127
55638,note_off,0,0,0,,5,,,65,127
55639,note_on,1,0,0,,2,,,74,127
55639,note_on,0,0,0,,5,,,53,127
55773,note_off,134,0,0,,2,,,74,127
55774,note_on,1,0,0,,0,,,72,127
55908,note_off,134,0,0,,0,,,72,127
55908,note_off,0,0,0,,5,,,53,127
55909,note_on,1,0,0,,11,,,70,127
55909,note_on,0,0,0,,11,,,58,127
56043,note_off,134,0,0,,11,,,58,127
56044,note_on,1,0,0,,5,,,65,127
56178,note_off,134,0,0,,5,,,65,127
56179,note_on,1,0,0,,2,,,62,127
56313,note_off,134,0,0,,2,,,62,127
56313,note_off,0,0,0,,11,,,70,127
56314,note_on,1,0,0,,7,,,79,127
56314,note_on,0,0,0,,11,,,58,127
56448,note_off,134,0,0,,11,,,58,127
56449,note_on,1,0,0,,10,,,57,127
56583,note_off,134,0,0,,10,,,57,127
56583,note_off,0,0,0,,7,,,79,127
56584,note_on,1,0,0,,5,,,77,127
56584,note_on,0,0,0,,5,,,65,127
56718,note_off,134,0,0,,5,,,65,127
56719,note_on,1,0,0,,11,,,58,127
56853,note_off,134,0,0,,11,,,58,127
56853,note_off,0,0,0,,5,,,77,127
56854,note_on,1,0,0,,5,,,65,127
56988,note_off,134,0,0,,5,,,65,127
56989,note_on,1,0,0,,2,,,62,127
57123,note_off,134,0,0,,2,,,62,127
57124,note_on,1,0,0,,7,,,79,127
57124,note_on,0,0,0,,11,,,58,127
57258,note_off,134,0,0,,11,,,58,127
57259,note_on,1,0,0,,10,,,57,127
57393,note_off,134,0,0,,10,,,57,127
57393,note_off,0,0,0,,7,,,79,127
57394,note_on,1,0,0,,5,,,77,127
57394,note_on,0,0,0,,5,,,65,127
57528,note_off,134,0,0,,5,,,65,127
57529,note_on,1,0,0,,11,,,58,127
57663,note_off,134,0,0,,11,,,58,127
57663,note_off,0,0,0,,5,,,77,127
57664,note_on,1,0,0,,5,,,65,127
57798,note_off,134,0,0,,5,,,65,127
57799,note_on,1,0,0,,2,,,62,127
57933,note_off,134,0,0,,2,,,62,127
57934,note_on,1,0,0,,7,,,79,127
57934,note_on,0,0,0,,11,,,58,127
58068,note_off,134,0,0,,11,,,58,127
58069,note_on,1,0,0,,10,,,57,127
58203,note_off,134,0,0,,10,,,57,127
58203,note_off,0,0,0,,7,,,79,127
58204,note_on,1,0,0,,5,,,77,127
58204,note_on,0,0,0,,5,,,65,127
58338,note_off,134,0,0,,5,,,65,127
58339,note_on,1,0,0,,11,,,58,127
58473,note_off,134,0,0,,5,,,77,127
58474,note_on,1,0,0,,3,,,75,127
58608,note_off,134,0,0,,3,,,75,127
58608,note_off,0,0,0,,11,,,58,127
58609,note_on,1,0,0,,2,,,74,127
58609,note_on,0,0,0,,3,,,51,127
58743,note_off,134,0,0,,2,,,74,127
58744,note_on,1,0,0,,0,,,72,127
58878,note_off,134,0,0,,0,,,72,127
58878,note_off,0,0,0,,3,,,51,127
58879,note_on,1,0,0,,11,,,70,127
58879,note_on,0,0,0,,5,,,53,127
59013,note_off,134,0,0,,11,,,70,127
59014,note_on,1,0,0,,10,,,69,127
59148,note_off,134,0,0,,10,,,69,127
59148,note_off,0,0,0,,5,,,53,127
59149,note_on,1,0,0,,11,,,70,127
59149,note_on,0,0,0,,11,,,46,127
59283,note_off,134,0,0,,11,,,46,127
59284,note_on,1,0,0,,5,,,53,127
59418,note_off,134,0,0,,5,,,53,127
59419,note_on,1,0,0,,2,,,50,127
59526,note_off,107,0,0,,11,,,70,127
59553,note_off,27,0,0,,2,,,50,127
59554,note_on,1,0,0,,2,,,74,127
59554,note_on,0,0,0,,11,,,46,127
59688,note_off,134,0,0,,11,,,46,127
59689,note_on,1,0,0,,10,,,45,127
59823,note_off,134,0,0,,10,,,45,127
59823,note_off,0,0,0,,2,,,74,127
59824,note_on,1,0,0,,0,,,72,127
59824,note_on,0,0,0,,5,,,53,127
59958,note_off,134,0,0,,5,,,53,127
59959,note_on,1,0,0,,11,,,46,127
60093,note_off,134,0,0,,11,,,46,127
60093,note_off,0,0,0,,0,,,72,127
60094,note_on,1,0,0,,5,,,53,127
60228,note_off,134,0,0,,5,,,53,127
60229,note_on,1,0,0,,2,,,50,127
60363,note_off,134,0,0,,2,,,50,127
60364,note_on,1,0,0,,2,,,74,127
60364,note_on,0,0,0,,11,,,46,127
60498,note_off,134,0,0,,11,,,46,127
60499,note_on,1,0,0,,10,,,45,127
60633,note_off,134,0,0,,10,,,45,127
60633,note_off,0,0,0,,2,,,74,127
60634,note_on,1,0,0,,0,,,72,127
60634,note_on,0,0,0,,5,,,53,127
60768,note_off,134,0,0,,5,,,53,127
60769,note_on,1,0,0,,11,,,46,127
60903,note_off,134,0,0,,11,,,46,127
60903,note_off,0,0,0,,0,,,72,127
60904,note_on,1,0,0,,5,,,53,127
61038,note_off,134,0,0,,5,,,53,127
61039,note_on,1,0,0,,2,,,50,127
61173,note_off,134,0,0,,2,,,50,127
61174,note_on,1,0,0,,2,,,74,127
61174,note_on,0,0,0,,11,,,46,127
61308,note_off,134,0,0,,11,,,46,127
61309,note_on,1,0,0,,10,,,45,127
61443,note_off,134,0,0,,10,,,45,127
61443,note_off,0,0,0,,2,,,74,127
61444,note_on,1,0,0,,0,,,72,127
61444,note_on,0,0,0,,5,,,53,127
61578,note_off,134,0,0,,5,,,53,127
61578,note_off,0,0,0,,0,,,72,127
61579,note_on,1,0,0,,2,,,74,127
61579,note_on,0,0,0,,11,,,46,127
61713,note_off,134,0,0,,2,,,74,127
61714,note_on,1,0,0,,11,,,70,127
61848,note_off,134,0,0,,11,,,70,127
61848,note_off,0,0,0,,11,,,46,127
61849,note_on,1,0,0,,7,,,67,127
61849,note_on,0,0,0,,3,,,51,127
61983,note_off,134,0,0,,7,,,67,127
61984,note_on,1,0,0,,3,,,75,127
62118,note_off,134,0,0,,3,,,75,127
62118,note_off,0,0,0,,3,,,51,127
62119,note_on,1,0,0,,2,,,74,127
62119,note_on,0,0,0,,5,,,53,127
62253,note_off,134,0,0,,2,,,74,127
62254,note_on,1,0,0,,0,,,72,127
62388,note_off,134,0,0,,0,,,72,127
62388,note_off,0,0,0,,5,,,53,127
62389,note_on,1,0,0,,2,,,74,127
62389,note_on,0,0,0,,11,,,46,127
62523,note_off,134,0,0,,2,,,74,127
62524,note_on,1,0,0,,7,,,79,127
62658,note_off,134,0,0,,7,,,79,127
62658,note_off,0,0,0,,11,,,46,127
62659,note_on,1,0,0,,5,,,77,127
62659,note_on,0,0,0,,3,,,39,127
62793,note_off,134,0,0,,5,,,77,127
62794,note_on,1,0,0,,3,,,75,127
62928,note_off,134,0,0,,3,,,75,127
62928,note_off,0,0,0,,3,,,39,127
62929,note_on,1,0,0,,2,,,74,127
62929,note_on,0,0,0,,5,,,41,127
63063,note_off,134,0,0,,2,,,74,127
63064,note_on,1,0,0,,0,,,72,127
63198,note_off,134,0,0,,0,,,72,127
63198,note_off,0,0,0,,5,,,41,127
63199,note_on,1,0,0,,0,,,72,127
63199,note_on,0,0,0,,11,,,34,127
63244,note_on,45,0,0,,11,,,70,127
63267,note_off,23,0,0,,0,,,72,127
63290,note_on,23,0,0,,0,,,72,127
63313,note_off,23,0,0,,11,,,70,127
63336,note_on,23,0,0,,11,,,70,127
63359,note_off,23,0,0,,0,,,72,127
65369,note_off,2010,0,0,,11,,,70,127
65369,note_off,0,0,0,,11,,,34,127
66048,end_of_track,679,1,0,,,,,,
