tick,type,time,meta,track,program,channel,pitch,tempo,note,velocity
0,copyright,0,1,0,,,,,,
0,program_change,0,0,0,6,0,,,,
0,pitchwheel,0,0,0,,0,0,,,
0,program_change,0,0,0,6,1,,,,
0,pitchwheel,0,0,0,,1,-590,,,
0,program_change,0,0,0,6,2,,,,
0,pitchwheel,0,0,0,,2,-272,,,
0,program_change,0,0,0,6,3,,,,
0,pitchwheel,0,0,0,,3,-353,,,
0,program_change,0,0,0,6,4,,,,
0,pitchwheel,0,0,0,,4,-560,,,
0,program_change,0,0,0,6,5,,,,
0,pitchwheel,0,0,0,,5,-80,,,
0,program_change,0,0,0,6,6,,,,
0,pitchwheel,0,0,0,,6,-625,,,
0,program_change,0,0,0,6,7,,,,
0,pitchwheel,0,0,0,,7,-130,,,
0,program_change,0,0,0,6,8,,,,
0,pitchwheel,0,0,0,,8,-512,,,
0,program_change,0,0,0,6,10,,,,
0,pitchwheel,0,0,0,,10,-464,,,
0,program_change,0,0,0,6,11,,,,
0,pitchwheel,0,0,0,,11,-208,,,
0,program_change,0,0,0,6,12,,,,
0,pitchwheel,0,0,0,,12,-553,,,
0,set_tempo,0,1,0,,,,500000,,
230,note_on,230,0,0,,11,,,46,127
460,note_on,230,0,0,,2,,,74,127
689,note_off,229,0,0,,2,,,74,127
690,note_on,1,0,0,,2,,,74,127
919,note_off,229,0,0,,2,,,74,127
920,note_on,1,0,0,,2,,,74,127
1149,note_off,229,0,0,,2,,,74,127
1149,note_off,0,0,0,,11,,,46,127
1150,note_on,1,0,0,,11,,,58,127
1150,note_on,0,0,0,,2,,,74,127
1226,note_off,76,0,0,,2,,,74,127
1227,note_on,1,0,0,,3,,,75,127
1303,note_off,76,0,0,,3,,,75,127
1304,note_on,1,0,0,,5,,,77,127
1380,note_off,76,0,0,,5,,,77,127
1381,note_on,1,0,0,,3,,,75,127
1495,note_off,114,0,0,,3,,,75,127
1496,note_on,1,0,0,,2,,,74,127
1610,note_off,114,0,0,,2,,,74,127
1611,note_on,1,0,0,,2,,,74,127
1840,note_off,229,0,0,,2,,,74,127
1841,note_on,1,0,0,,2,,,74,127
2070,note_off,229,0,0,,2,,,74,127
2070,note_off,0,0,0,,11,,,58,127
2071,note_on,1,0,0,,11,,,46,127
2071,note_on,0,0,0,,2,,,74,127
2147,note_off,76,0,0,,2,,,74,127
2148,note_on,1,0,0,,3,,,75,127
2224,note_off,76,0,0,,3,,,75,127
2225,note_on,1,0,0,,5,,,77,127
2301,note_off,76,0,0,,5,,,77,127
2302,note_on,1,0,0,,3,,,75,127
2416,note_off,114,0,0,,3,,,75,127
2417,note_on,1,0,0,,2,,,74,127
2531,note_off,114,0,0,,2,,,74,127
2532,note_on,1,0,0,,2,,,74,127
2761,note_off,229,0,0,,2,,,74,127
2761,note_off,0,0,0,,11,,,46,127
2762,note_on,1,0,0,,11,,,58,127
2762,note_on,0,0,0,,2,,,74,127
2991,note_off,229,0,0,,2,,,74,127
2991,note_off,0,0,0,,11,,,58,127
2992,note_on,1,0,0,,3,,,63,127
2992,note_on,0,0,0,,7,,,67,127
3221,note_off,229,0,0,,7,,,67,127
3221,note_off,0,0,0,,3,,,63,127
3222,note_on,1,0,0,,0,,,60,127
3222,note_on,0,0,0,,3,,,75,127
3336,note_off,114,0,0,,3,,,75,127
3337,note_on,1,0,0,,0,,,72,127
3451,note_off,114,0,0,,0,,,72,127
3451,note_off,0,0,0,,0,,,60,127
3452,note_on,1,0,0,,5,,,65,127
3452,note_on,0,0,0,,11,,,70,127
3681,note_off,229,0,0,,11,,,70,127
3681,note_off,0,0,0,,5,,,65,127
3682,note_on,1,0,0,,3,,,63,127
3682,note_on,0,0,0,,11,,,70,127
3738,note_off,56,0,0,,11,,,70,127
3739,note_on,1,0,0,,10,,,69,127
3795,note_off,56,0,0,,10,,,69,127
3796,note_on,1,0,0,,7,,,67,127
3852,note_off,56,0,0,,7,,,67,127
3853,note_on,1,0,0,,10,,,69,127
3909,note_off,56,0,0,,10,,,69,127
3909,note_off,0,0,0,,3,,,63,127
3910,note_on,1,0,0,,2,,,62,127
3910,note_on,0,0,0,,10,,,69,127
4139,note_off,229,0,0,,10,,,69,127
4139,note_off,0,0,0,,2,,,62,127
4140,note_on,1,0,0,,0,,,60,127
4140,note_on,0,0,0,,11,,,70,127
4369,note_off,229,0,0,,0,,,60,127
4370,note_on,1,0,0,,2,,,62,127
4485,note_off,115,0,0,,11,,,70,127
4599,note_off,114,0,0,,2,,,62,127
4600,note_on,1,0,0,,11,,,58,127
4600,note_on,0,0,0,,11,,,82,127
4714,note_off,114,0,0,,11,,,82,127
4715,note_on,1,0,0,,5,,,77,127
4829,note_off,114,0,0,,5,,,77,127
4829,note_off,0,0,0,,11,,,58,127
4830,note_on,1,0,0,,3,,,63,127
4830,note_on,0,0,0,,7,,,79,127
5059,note_off,229,0,0,,7,,,79,127
5059,note_off,0,0,0,,3,,,63,127
5060,note_on,1,0,0,,0,,,60,127
5060,note_on,0,0,0,,3,,,75,127
5174,note_off,114,0,0,,3,,,75,127
5175,note_on,1,0,0,,0,,,72,127
5289,note_off,114,0,0,,0,,,72,127
5289,note_off,0,0,0,,0,,,60,127
5290,note_on,1,0,0,,5,,,65,127
5290,note_on,0,0,0,,11,,,70,127
5519,note_off,229,0,0,,11,,,70,127
5519,note_off,0,0,0,,5,,,65,127
5520,note_on,1,0,0,,3,,,63,127
5520,note_on,0,0,0,,11,,,70,127
5576,note_off,56,0,0,,11,,,70,127
5577,note_on,1,0,0,,10,,,69,127
5633,note_off,56,0,0,,10,,,69,127
5634,note_on,1,0,0,,7,,,67,127
5690,note_off,56,0,0,,7,,,67,127
5691,note_on,1,0,0,,10,,,69,127
5747,note_off,56,0,0,,10,,,69,127
5747,note_off,0,0,0,,3,,,63,127
5748,note_on,1,0,0,,2,,,62,127
5748,note_on,0,0,0,,10,,,69,127
5977,note_off,229,0,0,,10,,,69,127
5977,note_off,0,0,0,,2,,,62,127
5978,note_on,1,0,0,,0,,,60,127
5978,note_on,0,0,0,,11,,,70,127
6206,note_off,228,0,0,,11,,,70,127
6207,note_off,1,0,0,,0,,,60,127
6208,note_on,1,0,0,,2,,,62,127
6323,note_on,115,0,0,,10,,,81,127
6437,note_off,114,0,0,,10,,,81,127
6437,note_off,0,0,0,,2,,,62,127
6438,note_on,1,0,0,,11,,,58,127
6438,note_on,0,0,0,,11,,,82,127
6552,note_off,114,0,0,,11,,,82,127
6553,note_on,1,0,0,,5,,,77,127
6667,note_off,114,0,0,,5,,,77,127
6667,note_off,0,0,0,,11,,,58,127
6668,note_on,1,0,0,,3,,,51,127
6668,note_on,0,0,0,,7,,,79,127
6782,note_off,114,0,0,,7,,,79,127
6783,note_on,1,0,0,,2,,,74,127
6897,note_off,114,0,0,,2,,,74,127
6897,note_off,0,0,0,,3,,,51,127
6898,note_on,1,0,0,,7,,,55,127
6898,note_on,0,0,0,,3,,,75,127
7012,note_off,114,0,0,,3,,,75,127
7013,note_on,1,0,0,,0,,,72,127
7127,note_off,114,0,0,,0,,,72,127
7127,note_off,0,0,0,,7,,,55,127
7128,note_on,1,0,0,,5,,,53,127
7128,note_on,0,0,0,,11,,,70,127
7357,note_off,229,0,0,,11,,,70,127
7357,note_off,0,0,0,,5,,,53,127
7358,note_on,1,0,0,,5,,,41,127
7358,note_on,0,0,0,,11,,,70,127
7414,note_off,56,0,0,,11,,,70,127
7415,note_on,1,0,0,,10,,,69,127
7471,note_off,56,0,0,,10,,,69,127
7472,note_on,1,0,0,,7,,,67,127
7528,note_off,56,0,0,,7,,,67,127
7529,note_on,1,0,0,,10,,,69,127
7585,note_off,56,0,0,,10,,,69,127
7585,note_off,0,0,0,,5,,,41,127
7586,note_on,1,0,0,,11,,,58,127
7586,note_on,0,0,0,,11,,,70,127
7815,note_off,229,0,0,,11,,,58,127
7816,note_on,1,0,0,,0,,,60,127
8042,note_off,226,0,0,,11,,,70,127
8046,note_off,4,0,0,,0,,,60,127
8047,note_on,1,0,0,,2,,,62,127
8276,note_off,229,0,0,,2,,,62,127
8277,note_on,1,0,0,,11,,,58,127
8277,note_on,0,0,0,,5,,,65,127
8391,note_off,114,0,0,,5,,,65,127
8392,note_on,1,0,0,,11,,,70,127
8506,note_off,114,0,0,,11,,,70,127
8506,note_off,0,0,0,,11,,,58,127
8507,note_on,1,0,0,,0,,,60,127
8507,note_on,0,0,0,,11,,,70,127
8736,note_off,229,0,0,,11,,,70,127
8736,note_off,0,0,0,,0,,,60,127
8737,note_on,1,0,0,,3,,,63,127
8737,note_on,0,0,0,,10,,,69,127
8965,note_off,228,0,0,,10,,,69,127
8966,note_off,1,0,0,,3,,,63,127
8967,note_on,1,0,0,,2,,,62,127
9196,note_off,229,0,0,,2,,,62,127
9197,note_on,1,0,0,,11,,,58,127
9197,note_on,0,0,0,,11,,,70,127
9311,note_off,114,0,0,,11,,,70,127
9312,note_on,1,0,0,,2,,,74,127
9426,note_off,114,0,0,,2,,,74,127
9426,note_off,0,0,0,,11,,,58,127
9427,note_on,1,0,0,,5,,,53,127
9427,note_on,0,0,0,,2,,,74,127
9656,note_off,229,0,0,,2,,,74,127
9656,note_off,0,0,0,,5,,,53,127
9657,note_on,1,0,0,,3,,,63,127
9657,note_on,0,0,0,,0,,,72,127
9885,note_off,228,0,0,,0,,,72,127
9886,note_off,1,0,0,,3,,,63,127
9887,note_on,1,0,0,,2,,,62,127
10116,note_off,229,0,0,,2,,,62,127
10117,note_on,1,0,0,,11,,,58,127
10117,note_on,0,0,0,,5,,,77,127
10231,note_off,114,0,0,,5,,,77,127
10232,note_on,1,0,0,,11,,,70,127
10346,note_off,114,0,0,,11,,,70,127
10346,note_off,0,0,0,,11,,,58,127
10347,note_on,1,0,0,,0,,,60,127
10347,note_on,0,0,0,,11,,,70,127
10576,note_off,229,0,0,,11,,,70,127
10576,note_off,0,0,0,,0,,,60,127
10577,note_on,1,0,0,,3,,,63,127
10577,note_on,0,0,0,,10,,,69,127
10691,note_off,114,0,0,,10,,,69,127
10692,note_on,1,0,0,,0,,,72,127
10806,note_off,114,0,0,,0,,,72,127
10806,note_off,0,0,0,,3,,,63,127
10807,note_on,1,0,0,,2,,,62,127
10807,note_on,0,0,0,,0,,,72,127
11036,note_off,229,0,0,,0,,,72,127
11036,note_off,0,0,0,,2,,,62,127
11037,note_on,1,0,0,,11,,,58,127
11037,note_on,0,0,0,,11,,,70,127
11151,note_off,114,0,0,,11,,,70,127
11152,note_on,1,0,0,,2,,,74,127
11266,note_off,114,0,0,,2,,,74,127
11266,note_off,0,0,0,,11,,,58,127
11267,note_on,1,0,0,,4,,,52,127
11267,note_on,0,0,0,,2,,,74,127
11496,note_off,229,0,0,,2,,,74,127
11496,note_off,0,0,0,,4,,,52,127
11497,note_on,1,0,0,,4,,,52,127
11497,note_on,0,0,0,,0,,,72,127
11726,note_off,229,0,0,,4,,,52,127
11727,note_on,1,0,0,,0,,,60,127
11842,note_off,115,0,0,,0,,,72,127
11956,note_off,114,0,0,,0,,,60,127
11957,note_on,1,0,0,,4,,,52,127
11957,note_on,0,0,0,,7,,,79,127
12071,note_off,114,0,0,,7,,,79,127
12072,note_on,1,0,0,,11,,,70,127
12186,note_off,114,0,0,,11,,,70,127
12186,note_off,0,0,0,,4,,,52,127
12187,note_on,1,0,0,,5,,,53,127
12187,note_on,0,0,0,,11,,,70,127
12416,note_off,229,0,0,,11,,,70,127
12416,note_off,0,0,0,,5,,,53,127
12417,note_on,1,0,0,,10,,,57,127
12417,note_on,0,0,0,,10,,,69,127
12645,note_off,228,0,0,,10,,,69,127
12646,note_off,1,0,0,,10,,,57,127
12647,note_on,1,0,0,,11,,,58,127
12876,note_off,229,0,0,,11,,,58,127
12877,note_on,1,0,0,,2,,,62,127
12877,note_on,0,0,0,,2,,,74,127
12991,note_off,114,0,0,,2,,,74,127
12992,note_on,1,0,0,,5,,,65,127
13106,note_off,114,0,0,,5,,,65,127
13106,note_off,0,0,0,,2,,,62,127
13107,note_on,1,0,0,,0,,,60,127
13107,note_on,0,0,0,,5,,,65,127
13336,note_off,229,0,0,,5,,,65,127
13336,note_off,0,0,0,,0,,,60,127
13337,note_on,1,0,0,,11,,,58,127
13337,note_on,0,0,0,,4,,,64,127
13565,note_off,228,0,0,,4,,,64,127
13566,note_off,1,0,0,,11,,,58,127
13567,note_on,1,0,0,,10,,,57,127
13796,note_off,229,0,0,,10,,,57,127
13797,note_on,1,0,0,,5,,,53,127
13797,note_on,0,0,0,,5,,,65,127
13911,note_off,114,0,0,,5,,,65,127
13912,note_on,1,0,0,,10,,,69,127
14026,note_off,114,0,0,,10,,,69,127
14026,note_off,0,0,0,,5,,,53,127
14027,note_on,1,0,0,,4,,,52,127
14027,note_on,0,0,0,,10,,,69,127
14256,note_off,229,0,0,,10,,,69,127
14256,note_off,0,0,0,,4,,,52,127
14257,note_on,1,0,0,,0,,,48,127
14257,note_on,0,0,0,,7,,,67,127
14371,note_off,114,0,0,,7,,,67,127
14372,note_on,1,0,0,,11,,,70,127
14486,note_off,114,0,0,,11,,,70,127
14486,note_off,0,0,0,,0,,,48,127
14487,note_on,1,0,0,,5,,,53,127
14487,note_on,0,0,0,,11,,,70,127
14716,note_off,229,0,0,,11,,,70,127
14716,note_off,0,0,0,,5,,,53,127
14717,note_on,1,0,0,,5,,,41,127
14717,note_on,0,0,0,,10,,,69,127
14831,note_off,114,0,0,,10,,,69,127
14832,note_on,1,0,0,,0,,,72,127
14946,note_off,114,0,0,,0,,,72,127
14946,note_off,0,0,0,,5,,,41,127
14947,note_on,1,0,0,,0,,,48,127
14947,note_on,0,0,0,,10,,,69,127
15176,note_off,229,0,0,,10,,,69,127
15176,note_off,0,0,0,,0,,,48,127
15177,note_on,1,0,0,,0,,,60,127
15177,note_on,0,0,0,,7,,,67,127
15405,note_off,228,0,0,,7,,,67,127
15406,note_off,1,0,0,,0,,,60,127
15407,note_on,1,0,0,,10,,,57,127
15636,note_off,229,0,0,,10,,,57,127
15637,note_on,1,0,0,,5,,,53,127
15637,note_on,0,0,0,,0,,,72,127
15751,note_off,114,0,0,,0,,,72,127
15752,note_on,1,0,0,,5,,,65,127
15866,note_off,114,0,0,,5,,,65,127
15866,note_off,0,0,0,,5,,,53,127
15867,note_on,1,0,0,,7,,,55,127
15867,note_on,0,0,0,,5,,,65,127
16096,note_off,229,0,0,,5,,,65,127
16096,note_off,0,0,0,,7,,,55,127
16097,note_on,1,0,0,,11,,,58,127
16097,note_on,0,0,0,,4,,,64,127
16211,note_off,114,0,0,,4,,,64,127
16212,note_on,1,0,0,,7,,,67,127
16326,note_off,114,0,0,,7,,,67,127
16326,note_off,0,0,0,,11,,,58,127
16327,note_on,1,0,0,,10,,,57,127
16327,note_on,0,0,0,,7,,,67,127
16556,note_off,229,0,0,,7,,,67,127
16556,note_off,0,0,0,,10,,,57,127
16557,note_on,1,0,0,,5,,,53,127
16557,note_on,0,0,0,,5,,,65,127
16671,note_off,114,0,0,,5,,,65,127
16672,note_on,1,0,0,,10,,,69,127
16786,note_off,114,0,0,,10,,,69,127
16786,note_off,0,0,0,,5,,,53,127
16787,note_on,1,0,0,,4,,,52,127
16787,note_on,0,0,0,,10,,,69,127
17016,note_off,229,0,0,,10,,,69,127
17016,note_off,0,0,0,,4,,,52,127
17017,note_on,1,0,0,,0,,,48,127
17017,note_on,0,0,0,,7,,,67,127
17131,note_off,114,0,0,,7,,,67,127
17132,note_on,1,0,0,,11,,,70,127
17246,note_off,114,0,0,,11,,,70,127
17246,note_off,0,0,0,,0,,,48,127
17247,note_on,1,0,0,,5,,,53,127
17247,note_on,0,0,0,,11,,,70,127
17476,note_off,229,0,0,,11,,,70,127
17476,note_off,0,0,0,,5,,,53,127
17477,note_on,1,0,0,,3,,,63,127
17477,note_on,0,0,0,,10,,,69,127
17591,note_off,114,0,0,,10,,,69,127
17592,note_on,1,0,0,,0,,,72,127
17706,note_off,114,0,0,,0,,,72,127
17706,note_off,0,0,0,,3,,,63,127
17707,note_on,1,0,0,,2,,,62,127
17707,note_on,0,0,0,,0,,,72,127
17936,note_off,229,0,0,,0,,,72,127
17936,note_off,0,0,0,,2,,,62,127
17937,note_on,1,0,0,,11,,,58,127
17937,note_on,0,0,0,,11,,,70,127
18051,note_off,114,0,0,,11,,,70,127
18052,note_on,1,0,0,,5,,,77,127
18166,note_off,114,0,0,,5,,,77,127
18166,note_off,0,0,0,,11,,,58,127
18167,note_on,1,0,0,,0,,,60,127
18167,note_on,0,0,0,,5,,,77,127
18396,note_off,229,0,0,,5,,,77,127
18396,note_off,0,0,0,,0,,,60,127
18397,note_on,1,0,0,,11,,,58,127
18397,note_on,0,0,0,,4,,,76,127
18511,note_off,114,0,0,,4,,,76,127
18512,note_on,1,0,0,,7,,,79,127
18626,note_off,114,0,0,,7,,,79,127
18626,note_off,0,0,0,,11,,,58,127
18627,note_on,1,0,0,,10,,,57,127
18627,note_on,0,0,0,,7,,,79,127
18856,note_off,229,0,0,,7,,,79,127
18856,note_off,0,0,0,,10,,,57,127
18857,note_on,1,0,0,,5,,,53,127
18857,note_on,0,0,0,,5,,,77,127
18971,note_off,114,0,0,,5,,,77,127
18972,note_on,1,0,0,,10,,,81,127
19086,note_off,114,0,0,,10,,,81,127
19086,note_off,0,0,0,,5,,,53,127
19087,note_on,1,0,0,,4,,,52,127
19087,note_on,0,0,0,,10,,,81,127
19316,note_off,229,0,0,,10,,,81,127
19316,note_off,0,0,0,,4,,,52,127
19317,note_on,1,0,0,,0,,,48,127
19317,note_on,0,0,0,,7,,,79,127
19431,note_off,114,0,0,,7,,,79,127
19432,note_on,1,0,0,,11,,,82,127
19546,note_off,114,0,0,,11,,,82,127
19546,note_off,0,0,0,,0,,,48,127
19547,note_on,1,0,0,,5,,,53,127
19547,note_on,0,0,0,,10,,,81,127
19661,note_off,114,0,0,,10,,,81,127
19662,note_on,1,0,0,,7,,,79,127
19776,note_off,114,0,0,,7,,,79,127
19776,note_off,0,0,0,,5,,,53,127
19777,note_on,1,0,0,,10,,,57,127
19777,note_on,0,0,0,,5,,,77,127
19891,note_off,114,0,0,,5,,,77,127
19892,note_on,1,0,0,,4,,,76,127
20006,note_off,114,0,0,,4,,,76,127
20006,note_off,0,0,0,,10,,,57,127
20007,note_on,1,0,0,,11,,,58,127
20007,note_on,0,0,0,,2,,,74,127
20121,note_off,114,0,0,,2,,,74,127
20122,note_on,1,0,0,,0,,,72,127
20236,note_off,114,0,0,,0,,,72,127
20237,note_on,1,0,0,,11,,,46,127
20237,note_on,0,0,0,,11,,,70,127
20351,note_off,114,0,0,,11,,,70,127
20352,note_on,1,0,0,,10,,,69,127
20462,note_off,110,0,0,,11,,,58,127
20466,note_off,4,0,0,,10,,,69,127
20466,note_off,0,0,0,,11,,,46,127
20467,note_on,1,0,0,,0,,,48,127
20467,note_on,0,0,0,,7,,,67,127
20582,note_on,115,0,0,,5,,,65,127
20696,note_off,114,0,0,,5,,,65,127
20697,note_on,1,0,0,,4,,,64,127
20811,note_off,114,0,0,,4,,,64,127
20812,note_off,1,0,0,,7,,,67,127
20812,note_on,0,0,0,,12,,,71,127
20812,note_on,0,0,0,,2,,,62,127
20926,note_off,114,0,0,,2,,,62,127
20926,note_off,0,0,0,,12,,,71,127
20927,note_on,1,0,0,,0,,,60,127
20927,note_on,0,0,0,,0,,,72,127
21617,note_off,690,0,0,,0,,,48,127
22078,note_off,461,0,0,,0,,,72,127
22078,note_off,0,0,0,,0,,,60,127
22079,note_on,1,0,0,,0,,,48,127
22308,note_off,229,0,0,,0,,,48,127
22309,note_on,1,0,0,,5,,,53,127
22538,note_off,229,0,0,,5,,,53,127
22539,note_on,1,0,0,,8,,,56,127
22539,note_on,0,0,0,,0,,,72,127
22653,note_off,114,0,0,,0,,,72,127
22654,note_on,1,0,0,,5,,,65,127
22768,note_off,114,0,0,,5,,,65,127
22768,note_off,0,0,0,,8,,,56,127
22769,note_on,1,0,0,,7,,,55,127
22769,note_on,0,0,0,,5,,,65,127
22998,note_off,229,0,0,,5,,,65,127
22998,note_off,0,0,0,,7,,,55,127
22999,note_on,1,0,0,,11,,,58,127
22999,note_on,0,0,0,,4,,,64,127
23113,note_off,114,0,0,,4,,,64,127
23114,note_on,1,0,0,,7,,,67,127
23228,note_off,114,0,0,,7,,,67,127
23228,note_off,0,0,0,,11,,,58,127
23229,note_on,1,0,0,,8,,,56,127
23229,note_on,0,0,0,,7,,,67,127
23458,note_off,229,0,0,,7,,,67,127
23458,note_off,0,0,0,,8,,,56,127
23459,note_on,1,0,0,,1,,,61,127
23459,note_on,0,0,0,,5,,,65,127
23573,note_off,114,0,0,,5,,,65,127
23574,note_on,1,0,0,,8,,,68,127
23688,note_off,114,0,0,,8,,,68,127
23688,note_off,0,0,0,,1,,,61,127
23689,note_on,1,0,0,,0,,,60,127
23689,note_on,0,0,0,,8,,,68,127
23689,note_on,0,0,0,,5,,,65,127
23918,note_off,229,0,0,,5,,,65,127
23918,note_off,0,0,0,,8,,,68,127
23918,note_off,0,0,0,,0,,,60,127
23919,note_on,1,0,0,,0,,,48,127
23919,note_on,0,0,0,,4,,,64,127
23919,note_on,0,0,0,,7,,,67,127
24147,note_off,228,0,0,,7,,,67,127
24147,note_off,0,0,0,,4,,,64,127
24148,note_off,1,0,0,,0,,,48,127
24149,note_on,1,0,0,,5,,,53,127
24378,note_off,229,0,0,,5,,,53,127
24379,note_on,1,0,0,,8,,,56,127
24379,note_on,0,0,0,,0,,,72,127
24493,note_off,114,0,0,,0,,,72,127
24494,note_on,1,0,0,,5,,,65,127
24608,note_off,114,0,0,,5,,,65,127
24608,note_off,0,0,0,,8,,,56,127
24609,note_on,1,0,0,,7,,,55,127
24609,note_on,0,0,0,,5,,,65,127
24838,note_off,229,0,0,,5,,,65,127
24838,note_off,0,0,0,,7,,,55,127
24839,note_on,1,0,0,,11,,,58,127
24839,note_on,0,0,0,,4,,,64,127
24953,note_off,114,0,0,,4,,,64,127
24954,note_on,1,0,0,,7,,,67,127
25068,note_off,114,0,0,,7,,,67,127
25068,note_off,0,0,0,,11,,,58,127
25069,note_on,1,0,0,,8,,,56,127
25069,note_on,0,0,0,,7,,,67,127
25298,note_off,229,0,0,,7,,,67,127
25298,note_off,0,0,0,,8,,,56,127
25299,note_on,1,0,0,,1,,,61,127
25299,note_on,0,0,0,,5,,,65,127
25413,note_off,114,0,0,,5,,,65,127
25414,note_on,1,0,0,,8,,,68,127
25528,note_off,114,0,0,,8,,,68,127
25528,note_off,0,0,0,,1,,,61,127
25529,note_on,1,0,0,,0,,,60,127
25529,note_on,0,0,0,,8,,,68,127
25529,note_on,0,0,0,,5,,,65,127
25758,note_off,229,0,0,,5,,,65,127
25758,note_off,0,0,0,,8,,,68,127
25758,note_off,0,0,0,,0,,,60,127
25759,note_on,1,0,0,,0,,,48,127
25759,note_on,0,0,0,,7,,,67,127
25759,note_on,0,0,0,,4,,,64,127
25987,note_off,228,0,0,,4,,,64,127
25987,note_off,0,0,0,,7,,,67,127
25988,note_off,1,0,0,,0,,,48,127
25989,note_on,1,0,0,,0,,,48,127
26218,note_off,229,0,0,,0,,,48,127
26219,note_on,1,0,0,,0,,,60,127
26219,note_on,0,0,0,,7,,,67,127
26333,note_off,114,0,0,,7,,,67,127
26334,note_on,1,0,0,,0,,,72,127
26448,note_off,114,0,0,,0,,,72,127
26448,note_off,0,0,0,,0,,,60,127
26449,note_on,1,0,0,,2,,,62,127
26449,note_on,0,0,0,,5,,,65,127
26449,note_on,0,0,0,,0,,,72,127
26678,note_off,229,0,0,,0,,,72,127
26678,note_off,0,0,0,,2,,,62,127
26679,note_on,1,0,0,,2,,,62,127
26679,note_on,0,0,0,,12,,,71,127
26905,note_off,226,0,0,,5,,,65,127
26909,note_off,4,0,0,,2,,,62,127
26910,note_on,1,0,0,,2,,,62,127
26910,note_on,0,0,0,,5,,,65,127
27136,note_off,226,0,0,,12,,,71,127
27140,note_off,4,0,0,,2,,,62,127
27141,note_on,1,0,0,,2,,,62,127
27141,note_on,0,0,0,,2,,,74,127
27255,note_off,114,0,0,,2,,,74,127
27256,note_on,1,0,0,,12,,,71,127
27366,note_off,110,0,0,,5,,,65,127
27370,note_off,4,0,0,,12,,,71,127
27370,note_off,0,0,0,,2,,,62,127
27371,note_on,1,0,0,,0,,,60,127
27371,note_on,0,0,0,,5,,,65,127
27371,note_on,0,0,0,,12,,,71,127
27600,note_off,229,0,0,,12,,,71,127
27600,note_off,0,0,0,,0,,,60,127
27601,note_on,1,0,0,,0,,,48,127
27601,note_on,0,0,0,,0,,,72,127
27827,note_off,226,0,0,,5,,,65,127
27831,note_off,4,0,0,,0,,,48,127
27832,note_on,1,0,0,,0,,,36,127
27832,note_on,0,0,0,,4,,,64,127
27947,note_off,115,0,0,,0,,,72,127
28061,note_off,114,0,0,,0,,,36,127
28062,note_on,1,0,0,,0,,,60,127
28062,note_on,0,0,0,,7,,,67,127
28176,note_off,114,0,0,,7,,,67,127
28177,note_on,1,0,0,,0,,,72,127
28287,note_off,110,0,0,,4,,,64,127
28291,note_off,4,0,0,,0,,,72,127
28291,note_off,0,0,0,,0,,,60,127
28292,note_on,1,0,0,,2,,,62,127
28292,note_on,0,0,0,,5,,,65,127
28292,note_on,0,0,0,,0,,,72,127
28521,note_off,229,0,0,,0,,,72,127
28521,note_off,0,0,0,,2,,,62,127
28522,note_on,1,0,0,,2,,,62,127
28522,note_on,0,0,0,,12,,,71,127
28748,note_off,226,0,0,,5,,,65,127
28752,note_off,4,0,0,,2,,,62,127
28753,note_on,1,0,0,,2,,,62,127
28753,note_on,0,0,0,,5,,,65,127
28979,note_off,226,0,0,,12,,,71,127
28983,note_off,4,0,0,,2,,,62,127
28984,note_on,1,0,0,,2,,,62,127
28984,note_on,0,0,0,,2,,,74,127
29098,note_off,114,0,0,,2,,,74,127
29099,note_on,1,0,0,,12,,,71,127
29209,note_off,110,0,0,,5,,,65,127
29213,note_off,4,0,0,,12,,,71,127
29213,note_off,0,0,0,,2,,,62,127
29214,note_on,1,0,0,,0,,,60,127
29214,note_on,0,0,0,,5,,,65,127
29214,note_on,0,0,0,,12,,,71,127
29443,note_off,229,0,0,,12,,,71,127
29443,note_off,0,0,0,,0,,,60,127
29444,note_on,1,0,0,,0,,,48,127
29444,note_on,0,0,0,,0,,,72,127
29670,note_off,226,0,0,,5,,,65,127
29674,note_off,4,0,0,,0,,,48,127
29675,note_on,1,0,0,,0,,,36,127
29675,note_on,0,0,0,,4,,,64,127
29904,note_off,229,0,0,,4,,,64,127
29904,note_off,0,0,0,,0,,,36,127
29905,note_on,1,0,0,,2,,,62,127
29905,note_on,0,0,0,,10,,,69,127
30019,note_off,114,0,0,,10,,,69,127
30020,note_on,1,0,0,,6,,,66,127
30134,note_off,114,0,0,,6,,,66,127
30134,note_off,0,0,0,,2,,,62,127
30134,note_off,0,0,0,,0,,,72,127
30135,note_on,1,0,0,,3,,,63,127
30135,note_on,0,0,0,,0,,,72,127
30135,note_on,0,0,0,,7,,,67,127
30364,note_off,229,0,0,,7,,,67,127
30364,note_off,0,0,0,,3,,,63,127
30365,note_on,1,0,0,,2,,,62,127
30365,note_on,0,0,0,,10,,,69,127
30479,note_off,114,0,0,,10,,,69,127
30480,note_on,1,0,0,,6,,,66,127
30590,note_off,110,0,0,,0,,,72,127
30594,note_off,4,0,0,,6,,,66,127
30594,note_off,0,0,0,,2,,,62,127
30595,note_on,1,0,0,,3,,,63,127
30595,note_on,0,0,0,,0,,,72,127
30595,note_on,0,0,0,,7,,,67,127
30824,note_off,229,0,0,,7,,,67,127
30824,note_off,0,0,0,,3,,,63,127
30825,note_on,1,0,0,,2,,,62,127
30825,note_on,0,0,0,,10,,,69,127
30939,note_off,114,0,0,,10,,,69,127
30940,note_on,1,0,0,,6,,,66,127
31050,note_off,110,0,0,,0,,,72,127
31054,note_off,4,0,0,,6,,,66,127
31054,note_off,0,0,0,,2,,,62,127
31055,note_on,1,0,0,,3,,,63,127
31055,note_on,0,0,0,,7,,,67,127
31055,note_on,0,0,0,,0,,,72,127
31284,note_off,229,0,0,,7,,,67,127
31284,note_off,0,0,0,,3,,,63,127
31285,note_on,1,0,0,,2,,,62,127
31285,note_on,0,0,0,,10,,,69,127
31399,note_off,114,0,0,,10,,,69,127
31400,note_on,1,0,0,,6,,,66,127
31514,note_off,114,0,0,,6,,,66,127
31514,note_off,0,0,0,,2,,,62,127
31515,note_on,1,0,0,,3,,,63,127
31515,note_on,0,0,0,,7,,,67,127
31744,note_off,229,0,0,,7,,,67,127
31744,note_off,0,0,0,,3,,,63,127
31744,note_off,0,0,0,,0,,,72,127
31745,note_on,1,0,0,,4,,,64,127
31745,note_on,0,0,0,,0,,,72,127
31745,note_on,0,0,0,,11,,,70,127
31859,note_off,114,0,0,,11,,,70,127
31860,note_on,1,0,0,,7,,,67,127
31973,note_off,113,0,0,,0,,,72,127
31974,note_off,1,0,0,,7,,,67,127
31974,note_off,0,0,0,,4,,,64,127
31975,note_on,1,0,0,,5,,,65,127
31975,note_on,0,0,0,,10,,,69,127
31975,note_on,0,0,0,,0,,,72,127
32204,note_off,229,0,0,,0,,,72,127
32204,note_off,0,0,0,,10,,,69,127
32204,note_off,0,0,0,,5,,,65,127
32205,note_on,1,0,0,,4,,,64,127
32205,note_on,0,0,0,,0,,,72,127
32205,note_on,0,0,0,,11,,,70,127
32319,note_off,114,0,0,,11,,,70,127
32320,note_on,1,0,0,,7,,,67,127
32433,note_off,113,0,0,,0,,,72,127
32434,note_off,1,0,0,,7,,,67,127
32434,note_off,0,0,0,,4,,,64,127
32435,note_on,1,0,0,,5,,,65,127
32435,note_on,0,0,0,,0,,,72,127
32435,note_on,0,0,0,,10,,,69,127
32664,note_off,229,0,0,,10,,,69,127
32664,note_off,0,0,0,,0,,,72,127
32664,note_off,0,0,0,,5,,,65,127
32665,note_on,1,0,0,,4,,,64,127
32665,note_on,0,0,0,,11,,,70,127
32665,note_on,0,0,0,,0,,,72,127
32779,note_off,114,0,0,,11,,,70,127
32780,note_on,1,0,0,,7,,,67,127
32893,note_off,113,0,0,,0,,,72,127
32894,note_off,1,0,0,,7,,,67,127
32894,note_off,0,0,0,,4,,,64,127
32895,note_on,1,0,0,,5,,,65,127
32895,note_on,0,0,0,,10,,,69,127
32895,note_on,0,0,0,,0,,,72,127
33124,note_off,229,0,0,,0,,,72,127
33124,note_off,0,0,0,,10,,,69,127
33124,note_off,0,0,0,,5,,,65,127
33125,note_on,1,0,0,,4,,,64,127
33125,note_on,0,0,0,,0,,,72,127
33125,note_on,0,0,0,,11,,,70,127
33239,note_off,114,0,0,,11,,,70,127
33240,note_on,1,0,0,,7,,,67,127
33353,note_off,113,0,0,,0,,,72,127
33354,note_off,1,0,0,,7,,,67,127
33354,note_off,0,0,0,,4,,,64,127
33355,note_on,1,0,0,,5,,,65,127
33355,note_on,0,0,0,,0,,,72,127
33355,note_on,0,0,0,,10,,,69,127
33584,note_off,229,0,0,,10,,,69,127
33584,note_off,0,0,0,,0,,,72,127
33584,note_off,0,0,0,,5,,,65,127
33585,note_on,1,0,0,,10,,,57,127
33585,note_on,0,0,0,,5,,,77,127
33699,note_off,114,0,0,,5,,,77,127
33700,note_on,1,0,0,,0,,,72,127
33814,note_off,114,0,0,,0,,,72,127
33814,note_off,0,0,0,,10,,,57,127
33815,note_on,1,0,0,,11,,,58,127
33815,note_on,0,0,0,,2,,,74,127
33929,note_off,114,0,0,,2,,,74,127
33930,note_on,1,0,0,,10,,,69,127
34044,note_off,114,0,0,,10,,,69,127
34044,note_off,0,0,0,,11,,,58,127
34045,note_on,1,0,0,,2,,,62,127
34045,note_on,0,0,0,,11,,,70,127
34159,note_off,114,0,0,,11,,,70,127
34160,note_on,1,0,0,,7,,,67,127
34274,note_off,114,0,0,,7,,,67,127
34274,note_off,0,0,0,,2,,,62,127
34275,note_on,1,0,0,,0,,,60,127
34275,note_on,0,0,0,,5,,,65,127
34504,note_off,229,0,0,,5,,,65,127
34504,note_off,0,0,0,,0,,,60,127
34505,note_on,1,0,0,,0,,,48,127
34505,note_on,0,0,0,,5,,,65,127
34561,note_off,56,0,0,,5,,,65,127
34562,note_on,1,0,0,,4,,,64,127
34618,note_off,56,0,0,,4,,,64,127
34619,note_on,1,0,0,,2,,,62,127
34675,note_off,56,0,0,,2,,,62,127
34676,note_on,1,0,0,,4,,,64,127
34732,note_off,56,0,0,,4,,,64,127
34732,note_off,0,0,0,,0,,,48,127
34733,note_on,1,0,0,,5,,,41,127
34733,note_on,0,0,0,,5,,,65,127
35189,note_off,456,0,0,,5,,,65,127
35423,note_off,234,0,0,,5,,,41,127
35424,note_on,1,0,0,,0,,,60,127
35424,note_on,0,0,0,,0,,,72,127
35539,note_on,115,0,0,,4,,,64,127
35652,note_off,113,0,0,,0,,,72,127
35653,note_off,1,0,0,,4,,,64,127
35653,note_off,0,0,0,,0,,,60,127
35654,note_on,1,0,0,,2,,,62,127
35654,note_on,0,0,0,,0,,,72,127
35654,note_on,0,0,0,,5,,,65,127
35883,note_off,229,0,0,,0,,,72,127
35883,note_off,0,0,0,,2,,,62,127
35884,note_on,1,0,0,,2,,,62,127
35884,note_on,0,0,0,,12,,,71,127
36110,note_off,226,0,0,,5,,,65,127
36114,note_off,4,0,0,,2,,,62,127
36115,note_on,1,0,0,,2,,,62,127
36115,note_on,0,0,0,,5,,,65,127
36341,note_off,226,0,0,,12,,,71,127
36345,note_off,4,0,0,,2,,,62,127
36346,note_on,1,0,0,,2,,,62,127
36346,note_on,0,0,0,,2,,,74,127
36460,note_off,114,0,0,,2,,,74,127
36461,note_on,1,0,0,,12,,,71,127
36571,note_off,110,0,0,,5,,,65,127
36575,note_off,4,0,0,,12,,,71,127
36575,note_off,0,0,0,,2,,,62,127
36576,note_on,1,0,0,,0,,,60,127
36576,note_on,0,0,0,,12,,,71,127
36576,note_on,0,0,0,,5,,,65,127
36805,note_off,229,0,0,,12,,,71,127
36805,note_off,0,0,0,,0,,,60,127
36806,note_on,1,0,0,,0,,,48,127
36806,note_on,0,0,0,,0,,,72,127
37032,note_off,226,0,0,,5,,,65,127
37036,note_off,4,0,0,,0,,,48,127
37037,note_on,1,0,0,,0,,,36,127
37037,note_on,0,0,0,,4,,,64,127
37152,note_off,115,0,0,,0,,,72,127
37266,note_off,114,0,0,,0,,,36,127
37267,note_on,1,0,0,,0,,,60,127
37267,note_on,0,0,0,,7,,,67,127
37381,note_off,114,0,0,,7,,,67,127
37382,note_on,1,0,0,,0,,,72,127
37492,note_off,110,0,0,,4,,,64,127
37496,note_off,4,0,0,,0,,,72,127
37496,note_off,0,0,0,,0,,,60,127
37497,note_on,1,0,0,,2,,,62,127
37497,note_on,0,0,0,,5,,,65,127
37497,note_on,0,0,0,,0,,,72,127
37726,note_off,229,0,0,,0,,,72,127
37726,note_off,0,0,0,,2,,,62,127
37727,note_on,1,0,0,,2,,,62,127
37727,note_on,0,0,0,,12,,,71,127
37953,note_off,226,0,0,,5,,,65,127
37957,note_off,4,0,0,,2,,,62,127
37958,note_on,1,0,0,,2,,,62,127
37958,note_on,0,0,0,,5,,,65,127
38184,note_off,226,0,0,,12,,,71,127
38188,note_off,4,0,0,,2,,,62,127
38189,note_on,1,0,0,,2,,,62,127
38189,note_on,0,0,0,,2,,,74,127
38303,note_off,114,0,0,,2,,,74,127
38304,note_on,1,0,0,,12,,,71,127
38414,note_off,110,0,0,,5,,,65,127
38418,note_off,4,0,0,,12,,,71,127
38418,note_off,0,0,0,,2,,,62,127
38419,note_on,1,0,0,,0,,,60,127
38419,note_on,0,0,0,,12,,,71,127
38419,note_on,0,0,0,,5,,,65,127
38648,note_off,229,0,0,,12,,,71,127
38648,note_off,0,0,0,,0,,,60,127
38649,note_on,1,0,0,,0,,,48,127
38649,note_on,0,0,0,,0,,,72,127
38875,note_off,226,0,0,,5,,,65,127
38879,note_off,4,0,0,,0,,,48,127
38880,note_on,1,0,0,,0,,,36,127
38880,note_on,0,0,0,,4,,,64,127
39109,note_off,229,0,0,,4,,,64,127
39109,note_off,0,0,0,,0,,,36,127
39110,note_on,1,0,0,,2,,,62,127
39110,note_on,0,0,0,,10,,,69,127
39224,note_off,114,0,0,,10,,,69,127
39225,note_on,1,0,0,,6,,,66,127
39339,note_off,114,0,0,,6,,,66,127
39339,note_off,0,0,0,,2,,,62,127
39339,note_off,0,0,0,,0,,,72,127
39340,note_on,1,0,0,,3,,,63,127
39340,note_on,0,0,0,,7,,,67,127
39340,note_on,0,0,0,,0,,,72,127
39569,note_off,229,0,0,,7,,,67,127
39569,note_off,0,0,0,,3,,,63,127
39570,note_on,1,0,0,,2,,,62,127
39570,note_on,0,0,0,,10,,,69,127
39684,note_off,114,0,0,,10,,,69,127
39685,note_on,1,0,0,,6,,,66,127
39795,note_off,110,0,0,,0,,,72,127
39799,note_off,4,0,0,,6,,,66,127
39799,note_off,0,0,0,,2,,,62,127
39800,note_on,1,0,0,,3,,,63,127
39800,note_on,0,0,0,,0,,,72,127
39800,note_on,0,0,0,,7,,,67,127
40029,note_off,229,0,0,,7,,,67,127
40029,note_off,0,0,0,,3,,,63,127
40030,note_on,1,0,0,,2,,,62,127
40030,note_on,0,0,0,,10,,,69,127
40144,note_off,114,0,0,,10,,,69,127
40145,note_on,1,0,0,,6,,,66,127
40255,note_off,110,0,0,,0,,,72,127
40259,note_off,4,0,0,,6,,,66,127
40259,note_off,0,0,0,,2,,,62,127
40260,note_on,1,0,0,,3,,,63,127
40260,note_on,0,0,0,,7,,,67,127
40260,note_on,0,0,0,,0,,,72,127
40489,note_off,229,0,0,,7,,,67,127
40489,note_off,0,0,0,,3,,,63,127
40490,note_on,1,0,0,,2,,,62,127
40490,note_on,0,0,0,,10,,,69,127
40604,note_off,114,0,0,,10,,,69,127
40605,note_on,1,0,0,,6,,,66,127
40719,note_off,114,0,0,,6,,,66,127
40719,note_off,0,0,0,,2,,,62,127
40720,note_on,1,0,0,,3,,,63,127
40720,note_on,0,0,0,,7,,,67,127
40949,note_off,229,0,0,,7,,,67,127
40949,note_off,0,0,0,,3,,,63,127
40949,note_off,0,0,0,,0,,,72,127
40950,note_on,1,0,0,,4,,,64,127
40950,note_on,0,0,0,,11,,,70,127
40950,note_on,0,0,0,,0,,,72,127
41064,note_off,114,0,0,,11,,,70,127
41065,note_on,1,0,0,,7,,,67,127
41178,note_off,113,0,0,,0,,,72,127
41179,note_off,1,0,0,,7,,,67,127
41179,note_off,0,0,0,,4,,,64,127
41180,note_on,1,0,0,,5,,,65,127
41180,note_on,0,0,0,,0,,,72,127
41180,note_on,0,0,0,,10,,,69,127
41409,note_off,229,0,0,,10,,,69,127
41409,note_off,0,0,0,,0,,,72,127
41409,note_off,0,0,0,,5,,,65,127
41410,note_on,1,0,0,,4,,,64,127
41410,note_on,0,0,0,,11,,,70,127
41410,note_on,0,0,0,,0,,,72,127
41524,note_off,114,0,0,,11,,,70,127
41525,note_on,1,0,0,,7,,,67,127
41638,note_off,113,0,0,,0,,,72,127
41639,note_off,1,0,0,,7,,,67,127
41639,note_off,0,0,0,,4,,,64,127
41640,note_on,1,0,0,,5,,,65,127
41640,note_on,0,0,0,,0,,,72,127
41640,note_on,0,0,0,,10,,,69,127
41869,note_off,229,0,0,,10,,,69,127
41869,note_off,0,0,0,,0,,,72,127
41869,note_off,0,0,0,,5,,,65,127
41870,note_on,1,0,0,,4,,,64,127
41870,note_on,0,0,0,,0,,,72,127
41870,note_on,0,0,0,,11,,,70,127
41984,note_off,114,0,0,,11,,,70,127
41985,note_on,1,0,0,,7,,,67,127
42098,note_off,113,0,0,,0,,,72,127
42099,note_off,1,0,0,,7,,,67,127
42099,note_off,0,0,0,,4,,,64,127
42100,note_on,1,0,0,,5,,,65,127
42100,note_on,0,0,0,,10,,,69,127
42100,note_on,0,0,0,,0,,,72,127
42329,note_off,229,0,0,,0,,,72,127
42329,note_off,0,0,0,,10,,,69,127
42329,note_off,0,0,0,,5,,,65,127
42330,note_on,1,0,0,,4,,,64,127
42330,note_on,0,0,0,,11,,,70,127
42330,note_on,0,0,0,,0,,,72,127
42444,note_off,114,0,0,,11,,,70,127
42445,note_on,1,0,0,,7,,,67,127
42558,note_off,113,0,0,,0,,,72,127
42559,note_off,1,0,0,,7,,,67,127
42559,note_off,0,0,0,,4,,,64,127
42560,note_on,1,0,0,,5,,,65,127
42560,note_on,0,0,0,,0,,,72,127
42560,note_on,0,0,0,,10,,,69,127
42789,note_off,229,0,0,,10,,,69,127
42789,note_off,0,0,0,,0,,,72,127
42789,note_off,0,0,0,,5,,,65,127
42790,note_on,1,0,0,,10,,,57,127
42790,note_on,0,0,0,,5,,,77,127
42904,note_off,114,0,0,,5,,,77,127
42905,note_on,1,0,0,,0,,,72,127
43019,note_off,114,0,0,,0,,,72,127
43019,note_off,0,0,0,,10,,,57,127
43020,note_on,1,0,0,,11,,,58,127
43020,note_on,0,0,0,,2,,,74,127
43134,note_off,114,0,0,,2,,,74,127
43135,note_on,1,0,0,,10,,,69,127
43249,note_off,114,0,0,,10,,,69,127
43249,note_off,0,0,0,,11,,,58,127
43250,note_on,1,0,0,,2,,,62,127
43250,note_on,0,0,0,,11,,,70,127
43364,note_off,114,0,0,,11,,,70,127
43365,note_on,1,0,0,,7,,,67,127
43479,note_off,114,0,0,,7,,,67,127
43479,note_off,0,0,0,,2,,,62,127
43480,note_on,1,0,0,,0,,,60,127
43480,note_on,0,0,0,,5,,,65,127
43480,note_on,0,0,0,,10,,,69,127
43709,note_off,229,0,0,,10,,,69,127
43709,note_off,0,0,0,,5,,,65,127
43709,note_off,0,0,0,,0,,,60,127
43710,note_on,1,0,0,,0,,,48,127
43710,note_on,0,0,0,,4,,,64,127
43710,note_on,0,0,0,,10,,,69,127
43766,note_off,56,0,0,,10,,,69,127
43767,note_on,1,0,0,,7,,,67,127
43823,note_off,56,0,0,,7,,,67,127
43824,note_on,1,0,0,,5,,,65,127
43880,note_off,56,0,0,,5,,,65,127
43881,note_on,1,0,0,,7,,,67,127
43936,note_off,55,0,0,,4,,,64,127
43937,note_off,1,0,0,,7,,,67,127
43937,note_off,0,0,0,,0,,,48,127
43938,note_on,1,0,0,,5,,,41,127
43938,note_on,0,0,0,,5,,,65,127
44167,note_off,229,0,0,,5,,,65,127
44168,note_on,1,0,0,,10,,,81,127
44282,note_off,114,0,0,,10,,,81,127
44283,note_on,1,0,0,,7,,,79,127
44312,note_on,29,0,0,,5,,,77,127
44331,note_off,19,0,0,,7,,,79,127
44341,note_on,10,0,0,,4,,,76,127
44360,note_off,19,0,0,,5,,,77,127
44370,note_on,10,0,0,,2,,,74,127
44389,note_off,19,0,0,,4,,,76,127
44394,note_off,5,0,0,,5,,,41,127
44399,note_on,5,0,0,,0,,,72,127
44418,note_off,19,0,0,,2,,,74,127
44628,note_off,210,0,0,,0,,,72,127
44629,note_on,1,0,0,,0,,,60,127
44629,note_on,0,0,0,,0,,,48,127
44629,note_on,0,0,0,,0,,,72,127
44858,note_off,229,0,0,,0,,,48,127
44858,note_off,0,0,0,,0,,,60,127
44859,note_on,1,0,0,,5,,,65,127
44859,note_on,0,0,0,,5,,,53,127
44974,note_off,115,0,0,,0,,,72,127
45088,note_off,114,0,0,,5,,,53,127
45088,note_off,0,0,0,,5,,,65,127
45089,note_on,1,0,0,,5,,,65,127
45089,note_on,0,0,0,,5,,,53,127
45089,note_on,0,0,0,,10,,,81,127
45203,note_off,114,0,0,,10,,,81,127
45204,note_on,1,0,0,,7,,,79,127
45233,note_on,29,0,0,,5,,,77,127
45252,note_off,19,0,0,,7,,,79,127
45262,note_on,10,0,0,,4,,,76,127
45281,note_off,19,0,0,,5,,,77,127
45291,note_on,10,0,0,,2,,,74,127
45310,note_off,19,0,0,,4,,,76,127
45320,note_on,10,0,0,,0,,,72,127
45339,note_off,19,0,0,,2,,,74,127
45549,note_off,210,0,0,,0,,,72,127
45549,note_off,0,0,0,,5,,,53,127
45549,note_off,0,0,0,,5,,,65,127
45550,note_on,1,0,0,,0,,,48,127
45550,note_on,0,0,0,,0,,,60,127
45550,note_on,0,0,0,,0,,,72,127
45779,note_off,229,0,0,,0,,,60,127
45779,note_off,0,0,0,,0,,,48,127
45780,note_on,1,0,0,,5,,,65,127
45780,note_on,0,0,0,,5,,,53,127
45836,note_off,56,0,0,,0,,,72,127
45837,note_on,1,0,0,,10,,,69,127
45893,note_off,56,0,0,,10,,,69,127
45894,note_on,1,0,0,,11,,,70,127
45950,note_off,56,0,0,,11,,,70,127
45951,note_on,1,0,0,,0,,,72,127
46007,note_off,56,0,0,,0,,,72,127
46007,note_off,0,0,0,,5,,,53,127
46007,note_off,0,0,0,,5,,,65,127
46008,note_on,1,0,0,,11,,,58,127
46008,note_on,0,0,0,,11,,,70,127
46122,note_off,114,0,0,,11,,,70,127
46123,note_on,1,0,0,,0,,,72,127
46179,note_off,56,0,0,,0,,,72,127
46180,note_on,1,0,0,,2,,,74,127
46236,note_off,56,0,0,,2,,,74,127
46236,note_off,0,0,0,,11,,,58,127
46237,note_on,1,0,0,,0,,,60,127
46237,note_on,0,0,0,,10,,,69,127
46237,note_on,0,0,0,,5,,,65,127
46466,note_off,229,0,0,,5,,,65,127
46466,note_off,0,0,0,,10,,,69,127
46466,note_off,0,0,0,,0,,,60,127
46467,note_on,1,0,0,,0,,,48,127
46467,note_on,0,0,0,,10,,,69,127
46467,note_on,0,0,0,,4,,,64,127
46523,note_off,56,0,0,,10,,,69,127
46524,note_on,1,0,0,,7,,,67,127
46580,note_off,56,0,0,,7,,,67,127
46581,note_on,1,0,0,,5,,,65,127
46637,note_off,56,0,0,,5,,,65,127
46638,note_on,1,0,0,,7,,,67,127
46693,note_off,55,0,0,,4,,,64,127
46694,note_off,1,0,0,,7,,,67,127
46694,note_off,0,0,0,,0,,,48,127
46695,note_on,1,0,0,,5,,,41,127
46695,note_on,0,0,0,,5,,,65,127
46924,note_off,229,0,0,,5,,,65,127
46925,note_on,1,0,0,,10,,,69,127
47039,note_off,114,0,0,,10,,,69,127
47040,note_on,1,0,0,,7,,,67,127
47069,note_on,29,0,0,,5,,,65,127
47088,note_off,19,0,0,,7,,,67,127
47098,note_on,10,0,0,,4,,,64,127
47117,note_off,19,0,0,,5,,,65,127
47127,note_on,10,0,0,,2,,,62,127
47146,note_off,19,0,0,,4,,,64,127
47151,note_off,5,0,0,,5,,,41,127
47156,note_on,5,0,0,,0,,,60,127
47175,note_off,19,0,0,,2,,,62,127
47385,note_off,210,0,0,,0,,,60,127
47386,note_on,1,0,0,,0,,,48,127
47386,note_on,0,0,0,,0,,,36,127
47386,note_on,0,0,0,,0,,,60,127
47615,note_off,229,0,0,,0,,,36,127
47615,note_off,0,0,0,,0,,,48,127
47616,note_on,1,0,0,,5,,,41,127
47616,note_on,0,0,0,,5,,,53,127
47672,note_off,56,0,0,,0,,,60,127
47673,note_on,1,0,0,,10,,,57,127
47729,note_off,56,0,0,,10,,,57,127
47730,note_on,1,0,0,,11,,,58,127
47786,note_off,56,0,0,,11,,,58,127
47787,note_on,1,0,0,,0,,,60,127
47843,note_off,56,0,0,,0,,,60,127
47843,note_off,0,0,0,,5,,,53,127
47843,note_off,0,0,0,,5,,,41,127
47844,note_on,1,0,0,,11,,,46,127
47844,note_on,0,0,0,,11,,,58,127
47958,note_off,114,0,0,,11,,,58,127
47959,note_on,1,0,0,,0,,,60,127
48015,note_off,56,0,0,,0,,,60,127
48016,note_on,1,0,0,,2,,,62,127
48072,note_off,56,0,0,,2,,,62,127
48072,note_off,0,0,0,,11,,,46,127
48073,note_on,1,0,0,,0,,,48,127
48073,note_on,0,0,0,,5,,,53,127
48073,note_on,0,0,0,,10,,,57,127
48302,note_off,229,0,0,,10,,,57,127
48302,note_off,0,0,0,,5,,,53,127
48302,note_off,0,0,0,,0,,,48,127
48303,note_on,1,0,0,,0,,,36,127
48303,note_on,0,0,0,,4,,,52,127
48303,note_on,0,0,0,,10,,,57,127
48359,note_off,56,0,0,,10,,,57,127
48360,note_on,1,0,0,,7,,,55,127
48416,note_off,56,0,0,,7,,,55,127
48417,note_on,1,0,0,,5,,,53,127
48473,note_off,56,0,0,,5,,,53,127
48474,note_on,1,0,0,,7,,,55,127
48529,note_off,55,0,0,,4,,,52,127
48530,note_off,1,0,0,,7,,,55,127
48530,note_off,0,0,0,,0,,,36,127
48531,note_on,1,0,0,,5,,,41,127
48531,note_on,0,0,0,,5,,,53,127
49221,note_off,690,0,0,,5,,,53,127
49451,note_off,230,0,0,,5,,,41,127
49452,note_on,1,0,0,,5,,,65,127
49681,note_off,229,0,0,,5,,,65,127
49682,note_on,1,0,0,,5,,,65,127
49796,note_off,114,0,0,,5,,,65,127
49797,note_on,1,0,0,,5,,,65,127
49911,note_off,114,0,0,,5,,,65,127
49912,note_on,1,0,0,,5,,,65,127
50141,note_off,229,0,0,,5,,,65,127
50142,note_on,1,0,0,,5,,,65,127
50371,note_off,229,0,0,,5,,,65,127
50372,note_on,1,0,0,,5,,,65,127
50372,note_on,0,0,0,,5,,,77,127
50601,note_off,229,0,0,,5,,,77,127
50601,note_off,0,0,0,,5,,,65,127
50602,note_on,1,0,0,,3,,,63,127
50602,note_on,0,0,0,,5,,,77,127
50716,note_off,114,0,0,,5,,,77,127
50717,note_on,1,0,0,,5,,,77,127
50831,note_off,114,0,0,,5,,,77,127
50831,note_off,0,0,0,,3,,,63,127
50832,note_on,1,0,0,,1,,,61,127
50832,note_on,0,0,0,,5,,,77,127
51061,note_off,229,0,0,,1,,,61,127
51062,note_on,1,0,0,,0,,,60,127
51062,note_on,0,0,0,,0,,,72,127
51288,note_off,226,0,0,,5,,,77,127
51292,note_off,4,0,0,,0,,,72,127
51292,note_off,0,0,0,,0,,,60,127
51293,note_on,1,0,0,,11,,,58,127
51293,note_on,0,0,0,,5,,,77,127
51522,note_off,229,0,0,,11,,,58,127
51523,note_on,1,0,0,,11,,,58,127
51523,note_on,0,0,0,,1,,,73,127
51752,note_off,229,0,0,,1,,,73,127
51752,note_off,0,0,0,,11,,,58,127
51753,note_on,1,0,0,,8,,,56,127
51753,note_on,0,0,0,,0,,,72,127
51982,note_off,229,0,0,,0,,,72,127
51982,note_off,0,0,0,,8,,,56,127
51982,note_off,0,0,0,,5,,,77,127
51983,note_on,1,0,0,,7,,,55,127
51983,note_on,0,0,0,,4,,,76,127
51983,note_on,0,0,0,,11,,,70,127
52212,note_off,229,0,0,,11,,,70,127
52212,note_off,0,0,0,,4,,,76,127
52212,note_off,0,0,0,,7,,,55,127
52213,note_on,1,0,0,,5,,,53,127
52213,note_on,0,0,0,,5,,,77,127
52213,note_on,0,0,0,,8,,,68,127
52442,note_off,229,0,0,,5,,,53,127
52443,note_on,1,0,0,,5,,,65,127
52557,note_off,114,0,0,,5,,,65,127
52558,note_on,1,0,0,,5,,,65,127
52668,note_off,110,0,0,,8,,,68,127
52668,note_off,0,0,0,,5,,,77,127
52672,note_off,4,0,0,,5,,,65,127
52673,note_on,1,0,0,,5,,,65,127
52902,note_off,229,0,0,,5,,,65,127
52903,note_on,1,0,0,,0,,,60,127
53132,note_off,229,0,0,,0,,,60,127
53133,note_on,1,0,0,,5,,,65,127
53133,note_on,0,0,0,,0,,,72,127
53362,note_off,229,0,0,,0,,,72,127
53362,note_off,0,0,0,,5,,,65,127
53363,note_on,1,0,0,,5,,,65,127
53363,note_on,0,0,0,,0,,,72,127
53477,note_off,114,0,0,,0,,,72,127
53478,note_on,1,0,0,,0,,,72,127
53592,note_off,114,0,0,,0,,,72,127
53592,note_off,0,0,0,,5,,,65,127
53593,note_on,1,0,0,,3,,,63,127
53593,note_on,0,0,0,,0,,,72,127
53822,note_off,229,0,0,,3,,,63,127
53823,note_on,1,0,0,,2,,,62,127
53823,note_on,0,0,0,,7,,,67,127
53938,note_off,115,0,0,,0,,,72,127
54052,note_off,114,0,0,,7,,,67,127
54052,note_off,0,0,0,,2,,,62,127
54053,note_on,1,0,0,,0,,,60,127
54053,note_on,0,0,0,,0,,,72,127
54282,note_off,229,0,0,,0,,,60,127
54283,note_on,1,0,0,,11,,,58,127
54283,note_on,0,0,0,,2,,,74,127
54512,note_off,229,0,0,,2,,,74,127
54512,note_off,0,0,0,,11,,,58,127
54513,note_on,1,0,0,,8,,,56,127
54513,note_on,0,0,0,,3,,,75,127
54742,note_off,229,0,0,,3,,,75,127
54742,note_off,0,0,0,,8,,,56,127
54742,note_off,0,0,0,,0,,,72,127
54743,note_on,1,0,0,,7,,,55,127
54743,note_on,0,0,0,,7,,,67,127
54743,note_on,0,0,0,,3,,,75,127
54972,note_off,229,0,0,,3,,,75,127
54972,note_off,0,0,0,,7,,,67,127
54972,note_off,0,0,0,,7,,,55,127
54973,note_on,1,0,0,,5,,,53,127
54973,note_on,0,0,0,,8,,,68,127
54973,note_on,0,0,0,,3,,,75,127
55202,note_off,229,0,0,,3,,,75,127
55202,note_off,0,0,0,,5,,,53,127
55203,note_on,1,0,0,,5,,,53,127
55203,note_on,0,0,0,,2,,,74,127
55432,note_off,229,0,0,,2,,,74,127
55432,note_off,0,0,0,,5,,,53,127
55433,note_on,1,0,0,,5,,,53,127
55433,note_on,0,0,0,,0,,,72,127
55662,note_off,229,0,0,,0,,,72,127
55662,note_off,0,0,0,,5,,,53,127
55663,note_on,1,0,0,,5,,,53,127
55663,note_on,0,0,0,,12,,,71,127
55777,note_off,114,0,0,,12,,,71,127
55778,note_on,1,0,0,,0,,,72,127
55892,note_off,114,0,0,,0,,,72,127
55892,note_off,0,0,0,,5,,,53,127
55892,note_off,0,0,0,,8,,,68,127
55893,note_on,1,0,0,,7,,,55,127
55893,note_on,0,0,0,,7,,,67,127
55893,note_on,0,0,0,,12,,,71,127
56122,note_off,229,0,0,,12,,,71,127
56123,note_on,1,0,0,,2,,,74,127
56236,note_off,113,0,0,,7,,,67,127
56237,note_off,1,0,0,,2,,,74,127
56238,note_on,1,0,0,,7,,,67,127
56348,note_off,110,0,0,,7,,,55,127
56352,note_off,4,0,0,,7,,,67,127
56353,note_on,1,0,0,,8,,,68,127
56582,note_off,229,0,0,,8,,,68,127
56583,note_on,1,0,0,,5,,,65,127
56583,note_on,0,0,0,,0,,,60,127
56583,note_on,0,0,0,,0,,,72,127
56583,note_on,0,0,0,,8,,,68,127
56812,note_off,229,0,0,,0,,,72,127
56812,note_off,0,0,0,,0,,,60,127
56812,note_off,0,0,0,,5,,,65,127
56813,note_on,1,0,0,,5,,,65,127
56813,note_on,0,0,0,,12,,,59,127
56813,note_on,0,0,0,,2,,,74,127
57039,note_off,226,0,0,,8,,,68,127
57043,note_off,4,0,0,,12,,,59,127
57043,note_off,0,0,0,,5,,,65,127
57044,note_on,1,0,0,,12,,,59,127
57044,note_on,0,0,0,,5,,,65,127
57044,note_on,0,0,0,,8,,,68,127
57158,note_off,114,0,0,,8,,,68,127
57158,note_off,0,0,0,,5,,,65,127
57159,note_on,1,0,0,,5,,,65,127
57273,note_off,114,0,0,,5,,,65,127
57273,note_off,0,0,0,,12,,,59,127
57274,note_on,1,0,0,,5,,,65,127
57274,note_on,0,0,0,,12,,,59,127
57274,note_on,0,0,0,,7,,,67,127
57503,note_off,229,0,0,,7,,,67,127
57503,note_off,0,0,0,,12,,,59,127
57503,note_off,0,0,0,,5,,,65,127
57503,note_off,0,0,0,,2,,,74,127
57504,note_on,1,0,0,,5,,,65,127
57504,note_on,0,0,0,,0,,,60,127
57504,note_on,0,0,0,,8,,,68,127
57504,note_on,0,0,0,,0,,,72,127
57733,note_off,229,0,0,,0,,,72,127
57733,note_off,0,0,0,,0,,,60,127
57733,note_off,0,0,0,,5,,,65,127
57734,note_on,1,0,0,,5,,,65,127
57734,note_on,0,0,0,,12,,,59,127
57734,note_on,0,0,0,,2,,,74,127
57960,note_off,226,0,0,,8,,,68,127
57964,note_off,4,0,0,,12,,,59,127
57964,note_off,0,0,0,,5,,,65,127
57965,note_on,1,0,0,,12,,,59,127
57965,note_on,0,0,0,,5,,,65,127
57965,note_on,0,0,0,,8,,,68,127
58079,note_off,114,0,0,,8,,,68,127
58079,note_off,0,0,0,,5,,,65,127
58080,note_on,1,0,0,,5,,,65,127
58194,note_off,114,0,0,,5,,,65,127
58194,note_off,0,0,0,,12,,,59,127
58195,note_on,1,0,0,,12,,,59,127
58195,note_on,0,0,0,,5,,,65,127
58195,note_on,0,0,0,,7,,,67,127
58424,note_off,229,0,0,,7,,,67,127
58424,note_off,0,0,0,,5,,,65,127
58424,note_off,0,0,0,,12,,,59,127
58424,note_off,0,0,0,,2,,,74,127
58425,note_on,1,0,0,,5,,,65,127
58425,note_on,0,0,0,,0,,,60,127
58425,note_on,0,0,0,,0,,,72,127
58425,note_on,0,0,0,,8,,,68,127
58654,note_off,229,0,0,,0,,,72,127
58654,note_off,0,0,0,,0,,,60,127
58654,note_off,0,0,0,,5,,,65,127
58655,note_on,1,0,0,,5,,,65,127
58655,note_on,0,0,0,,12,,,59,127
58655,note_on,0,0,0,,2,,,74,127
58884,note_off,229,0,0,,12,,,59,127
58884,note_off,0,0,0,,5,,,65,127
58885,note_on,1,0,0,,5,,,65,127
58885,note_on,0,0,0,,12,,,59,127
59114,note_off,229,0,0,,12,,,59,127
59114,note_off,0,0,0,,5,,,65,127
59114,note_off,0,0,0,,2,,,74,127
59114,note_off,0,0,0,,8,,,68,127
59115,note_on,1,0,0,,5,,,65,127
59115,note_on,0,0,0,,12,,,59,127
59115,note_on,0,0,0,,8,,,68,127
59115,note_on,0,0,0,,2,,,74,127
59344,note_off,229,0,0,,12,,,59,127
59344,note_off,0,0,0,,5,,,65,127
59345,note_on,1,0,0,,12,,,59,127
59345,note_on,0,0,0,,4,,,64,127
59571,note_off,226,0,0,,8,,,68,127
59575,note_off,4,0,0,,4,,,64,127
59575,note_off,0,0,0,,12,,,59,127
59576,note_on,1,0,0,,2,,,62,127
59576,note_on,0,0,0,,4,,,64,127
59576,note_on,0,0,0,,11,,,58,127
59576,note_on,0,0,0,,8,,,68,127
59805,note_off,229,0,0,,11,,,58,127
59805,note_off,0,0,0,,4,,,64,127
59805,note_off,0,0,0,,2,,,62,127
59805,note_off,0,0,0,,2,,,74,127
59806,note_on,1,0,0,,4,,,64,127
59806,note_on,0,0,0,,2,,,62,127
59806,note_on,0,0,0,,11,,,58,127
59806,note_on,0,0,0,,2,,,74,127
60032,note_off,226,0,0,,8,,,68,127
60036,note_off,4,0,0,,2,,,74,127
60036,note_off,0,0,0,,11,,,58,127
60036,note_off,0,0,0,,2,,,62,127
60036,note_off,0,0,0,,4,,,64,127
60037,note_on,1,0,0,,2,,,62,127
60037,note_on,0,0,0,,4,,,64,127
60037,note_on,0,0,0,,11,,,58,127
60037,note_on,0,0,0,,7,,,79,127
60037,note_on,0,0,0,,8,,,68,127
60151,note_off,114,0,0,,7,,,79,127
60152,note_on,1,0,0,,5,,,77,127
60266,note_off,114,0,0,,5,,,77,127
60266,note_off,0,0,0,,11,,,58,127
60266,note_off,0,0,0,,4,,,64,127
60266,note_off,0,0,0,,2,,,62,127
60267,note_on,1,0,0,,4,,,64,127
60267,note_on,0,0,0,,2,,,62,127
60267,note_on,0,0,0,,11,,,58,127
60267,note_on,0,0,0,,4,,,76,127
60381,note_off,114,0,0,,4,,,76,127
60382,note_on,1,0,0,,2,,,74,127
60492,note_off,110,0,0,,8,,,68,127
60496,note_off,4,0,0,,2,,,74,127
60496,note_off,0,0,0,,11,,,58,127
60496,note_off,0,0,0,,2,,,62,127
60496,note_off,0,0,0,,4,,,64,127
60497,note_on,1,0,0,,10,,,57,127
60497,note_on,0,0,0,,4,,,64,127
60497,note_on,0,0,0,,2,,,74,127
60497,note_on,0,0,0,,10,,,69,127
60726,note_off,229,0,0,,2,,,74,127
60726,note_off,0,0,0,,4,,,64,127
60726,note_off,0,0,0,,10,,,57,127
60727,note_on,1,0,0,,10,,,57,127
60727,note_on,0,0,0,,4,,,64,127
60727,note_on,0,0,0,,0,,,72,127
60841,note_off,114,0,0,,0,,,72,127
60842,note_on,1,0,0,,12,,,71,127
60956,note_off,114,0,0,,12,,,71,127
60956,note_off,0,0,0,,4,,,64,127
60956,note_off,0,0,0,,10,,,57,127
60957,note_on,1,0,0,,10,,,57,127
60957,note_on,0,0,0,,4,,,64,127
60957,note_on,0,0,0,,0,,,72,127
61186,note_off,229,0,0,,0,,,72,127
61186,note_off,0,0,0,,4,,,64,127
61186,note_off,0,0,0,,10,,,57,127
61186,note_off,0,0,0,,10,,,69,127
61187,note_on,1,0,0,,4,,,64,127
61187,note_on,0,0,0,,10,,,57,127
61187,note_on,0,0,0,,7,,,67,127
61187,note_on,0,0,0,,0,,,72,127
61416,note_off,229,0,0,,0,,,72,127
61416,note_off,0,0,0,,7,,,67,127
61416,note_off,0,0,0,,10,,,57,127
61416,note_off,0,0,0,,4,,,64,127
61417,note_on,1,0,0,,10,,,57,127
61417,note_on,0,0,0,,0,,,60,127
61417,note_on,0,0,0,,2,,,62,127
61417,note_on,0,0,0,,6,,,66,127
61646,note_off,229,0,0,,2,,,62,127
61646,note_off,0,0,0,,0,,,60,127
61646,note_off,0,0,0,,10,,,57,127
61647,note_on,1,0,0,,2,,,62,127
61647,note_on,0,0,0,,10,,,57,127
61647,note_on,0,0,0,,0,,,60,127
61647,note_on,0,0,0,,0,,,72,127
61876,note_off,229,0,0,,0,,,72,127
61876,note_off,0,0,0,,0,,,60,127
61876,note_off,0,0,0,,10,,,57,127
61876,note_off,0,0,0,,2,,,62,127
61877,note_on,1,0,0,,0,,,60,127
61877,note_on,0,0,0,,2,,,62,127
61877,note_on,0,0,0,,10,,,57,127
61877,note_on,0,0,0,,5,,,77,127
61991,note_off,114,0,0,,5,,,77,127
61992,note_on,1,0,0,,3,,,75,127
62106,note_off,114,0,0,,3,,,75,127
62106,note_off,0,0,0,,10,,,57,127
62106,note_off,0,0,0,,2,,,62,127
62106,note_off,0,0,0,,0,,,60,127
62107,note_on,1,0,0,,2,,,62,127
62107,note_on,0,0,0,,10,,,57,127
62107,note_on,0,0,0,,0,,,60,127
62107,note_on,0,0,0,,2,,,74,127
62221,note_off,114,0,0,,2,,,74,127
62222,note_on,1,0,0,,0,,,72,127
62336,note_off,114,0,0,,0,,,72,127
62336,note_off,0,0,0,,0,,,60,127
62336,note_off,0,0,0,,10,,,57,127
62336,note_off,0,0,0,,2,,,62,127
62336,note_off,0,0,0,,6,,,66,127
62337,note_on,1,0,0,,7,,,55,127
62337,note_on,0,0,0,,2,,,62,127
62337,note_on,0,0,0,,0,,,72,127
62337,note_on,0,0,0,,7,,,67,127
62566,note_off,229,0,0,,0,,,72,127
62566,note_off,0,0,0,,2,,,62,127
62566,note_off,0,0,0,,7,,,55,127
62567,note_on,1,0,0,,2,,,62,127
62567,note_on,0,0,0,,7,,,55,127
62567,note_on,0,0,0,,11,,,70,127
62681,note_off,114,0,0,,11,,,70,127
62682,note_on,1,0,0,,10,,,69,127
62796,note_off,114,0,0,,10,,,69,127
62796,note_off,0,0,0,,7,,,55,127
62796,note_off,0,0,0,,2,,,62,127
62797,note_on,1,0,0,,7,,,55,127
62797,note_on,0,0,0,,2,,,62,127
62797,note_on,0,0,0,,11,,,70,127
63026,note_off,229,0,0,,11,,,70,127
63026,note_off,0,0,0,,2,,,62,127
63026,note_off,0,0,0,,7,,,55,127
63026,note_off,0,0,0,,7,,,67,127
63027,note_on,1,0,0,,2,,,62,127
63027,note_on,0,0,0,,7,,,55,127
63027,note_on,0,0,0,,5,,,65,127
63027,note_on,0,0,0,,11,,,70,127
63256,note_off,229,0,0,,5,,,65,127
63256,note_off,0,0,0,,7,,,55,127
63256,note_off,0,0,0,,2,,,62,127
63257,note_on,1,0,0,,7,,,55,127
63257,note_on,0,0,0,,11,,,58,127
63257,note_on,0,0,0,,0,,,60,127
63257,note_on,0,0,0,,4,,,64,127
63483,note_off,226,0,0,,11,,,70,127
63487,note_off,4,0,0,,0,,,60,127
63487,note_off,0,0,0,,11,,,58,127
63487,note_off,0,0,0,,7,,,55,127
63488,note_on,1,0,0,,0,,,60,127
63488,note_on,0,0,0,,7,,,55,127
63488,note_on,0,0,0,,11,,,58,127
63488,note_on,0,0,0,,11,,,70,127
63717,note_off,229,0,0,,11,,,70,127
63717,note_off,0,0,0,,11,,,58,127
63717,note_off,0,0,0,,7,,,55,127
63717,note_off,0,0,0,,0,,,60,127
63718,note_on,1,0,0,,0,,,60,127
63718,note_on,0,0,0,,7,,,55,127
63718,note_on,0,0,0,,11,,,58,127
63718,note_on,0,0,0,,4,,,76,127
63832,note_off,114,0,0,,4,,,76,127
63833,note_on,1,0,0,,2,,,74,127
63947,note_off,114,0,0,,2,,,74,127
63947,note_off,0,0,0,,11,,,58,127
63947,note_off,0,0,0,,7,,,55,127
63947,note_off,0,0,0,,0,,,60,127
63948,note_on,1,0,0,,11,,,58,127
63948,note_on,0,0,0,,0,,,60,127
63948,note_on,0,0,0,,7,,,55,127
63948,note_on,0,0,0,,0,,,72,127
64062,note_off,114,0,0,,0,,,72,127
64063,note_on,1,0,0,,11,,,70,127
64177,note_off,114,0,0,,11,,,70,127
64177,note_off,0,0,0,,7,,,55,127
64177,note_off,0,0,0,,0,,,60,127
64177,note_off,0,0,0,,11,,,58,127
64177,note_off,0,0,0,,4,,,64,127
64178,note_on,1,0,0,,5,,,53,127
64178,note_on,0,0,0,,0,,,72,127
64234,note_off,56,0,0,,0,,,72,127
64235,note_on,1,0,0,,11,,,70,127
64291,note_off,56,0,0,,11,,,70,127
64292,note_on,1,0,0,,0,,,72,127
64348,note_off,56,0,0,,0,,,72,127
64349,note_on,1,0,0,,11,,,70,127
64405,note_off,56,0,0,,11,,,70,127
64405,note_off,0,0,0,,5,,,53,127
64406,note_on,1,0,0,,5,,,65,127
64406,note_on,0,0,0,,10,,,69,127
64634,note_off,228,0,0,,10,,,69,127
64635,note_off,1,0,0,,5,,,65,127
64636,note_on,1,0,0,,3,,,63,127
64865,note_off,229,0,0,,3,,,63,127
64866,note_on,1,0,0,,2,,,62,127
64866,note_on,0,0,0,,5,,,77,127
64980,note_off,114,0,0,,5,,,77,127
64981,note_on,1,0,0,,11,,,70,127
65095,note_off,114,0,0,,11,,,70,127
65095,note_off,0,0,0,,2,,,62,127
65096,note_on,1,0,0,,0,,,60,127
65096,note_on,0,0,0,,3,,,63,127
65096,note_on,0,0,0,,11,,,70,127
65325,note_off,229,0,0,,11,,,70,127
65325,note_off,0,0,0,,3,,,63,127
65325,note_off,0,0,0,,0,,,60,127
65326,note_on,1,0,0,,0,,,60,127
65326,note_on,0,0,0,,3,,,63,127
65326,note_on,0,0,0,,10,,,69,127
65440,note_off,114,0,0,,10,,,69,127
65441,note_on,1,0,0,,0,,,72,127
65555,note_off,114,0,0,,0,,,72,127
65555,note_off,0,0,0,,3,,,63,127
65555,note_off,0,0,0,,0,,,60,127
65556,note_on,1,0,0,,2,,,62,127
65556,note_on,0,0,0,,5,,,65,127
65556,note_on,0,0,0,,0,,,72,127
65785,note_off,229,0,0,,0,,,72,127
65785,note_off,0,0,0,,5,,,65,127
65785,note_off,0,0,0,,2,,,62,127
65786,note_on,1,0,0,,11,,,58,127
65786,note_on,0,0,0,,2,,,62,127
65786,note_on,0,0,0,,11,,,70,127
65900,note_off,114,0,0,,11,,,70,127
65901,note_on,1,0,0,,2,,,74,127
66015,note_off,114,0,0,,2,,,74,127
66015,note_off,0,0,0,,2,,,62,127
66015,note_off,0,0,0,,11,,,58,127
66016,note_on,1,0,0,,5,,,53,127
66016,note_on,0,0,0,,2,,,74,127
66016,note_on,0,0,0,,11,,,70,127
66245,note_off,229,0,0,,11,,,70,127
66245,note_off,0,0,0,,2,,,74,127
66245,note_off,0,0,0,,5,,,53,127
66246,note_on,1,0,0,,5,,,65,127
66246,note_on,0,0,0,,10,,,69,127
66246,note_on,0,0,0,,0,,,72,127
66474,note_off,228,0,0,,0,,,72,127
66474,note_off,0,0,0,,10,,,69,127
66475,note_off,1,0,0,,5,,,65,127
66476,note_on,1,0,0,,2,,,62,127
66705,note_off,229,0,0,,2,,,62,127
66706,note_on,1,0,0,,11,,,58,127
66706,note_on,0,0,0,,5,,,77,127
66820,note_off,114,0,0,,5,,,77,127
66821,note_on,1,0,0,,8,,,68,127
66935,note_off,114,0,0,,8,,,68,127
66935,note_off,0,0,0,,11,,,58,127
66936,note_on,1,0,0,,3,,,63,127
66936,note_on,0,0,0,,8,,,68,127
67165,note_off,229,0,0,,8,,,68,127
67165,note_off,0,0,0,,3,,,63,127
67166,note_on,1,0,0,,3,,,63,127
67166,note_on,0,0,0,,7,,,67,127
67280,note_off,114,0,0,,7,,,67,127
67281,note_on,1,0,0,,11,,,70,127
67395,note_off,114,0,0,,11,,,70,127
67395,note_off,0,0,0,,3,,,63,127
67396,note_on,1,0,0,,3,,,63,127
67396,note_on,0,0,0,,0,,,60,127
67396,note_on,0,0,0,,11,,,70,127
67625,note_off,229,0,0,,11,,,70,127
67625,note_off,0,0,0,,0,,,60,127
67625,note_off,0,0,0,,3,,,63,127
67626,note_on,1,0,0,,3,,,63,127
67626,note_on,0,0,0,,0,,,60,127
67626,note_on,0,0,0,,10,,,69,127
67740,note_off,114,0,0,,10,,,69,127
67741,note_on,1,0,0,,0,,,72,127
67855,note_off,114,0,0,,0,,,72,127
67855,note_off,0,0,0,,0,,,60,127
67855,note_off,0,0,0,,3,,,63,127
67856,note_on,1,0,0,,5,,,65,127
67856,note_on,0,0,0,,2,,,62,127
67856,note_on,0,0,0,,0,,,72,127
68085,note_off,229,0,0,,0,,,72,127
68085,note_off,0,0,0,,2,,,62,127
68085,note_off,0,0,0,,5,,,65,127
68086,note_on,1,0,0,,5,,,65,127
68086,note_on,0,0,0,,2,,,62,127
68086,note_on,0,0,0,,11,,,70,127
68200,note_off,114,0,0,,11,,,70,127
68201,note_on,1,0,0,,7,,,79,127
68315,note_off,114,0,0,,7,,,79,127
68315,note_off,0,0,0,,2,,,62,127
68315,note_off,0,0,0,,5,,,65,127
68316,note_on,1,0,0,,10,,,57,127
68316,note_on,0,0,0,,5,,,65,127
68316,note_on,0,0,0,,7,,,79,127
68545,note_off,229,0,0,,7,,,79,127
68545,note_off,0,0,0,,5,,,65,127
68545,note_off,0,0,0,,10,,,57,127
68546,note_on,1,0,0,,10,,,57,127
68546,note_on,0,0,0,,5,,,65,127
68546,note_on,0,0,0,,5,,,77,127
68660,note_off,114,0,0,,5,,,77,127
68661,note_on,1,0,0,,3,,,75,127
68775,note_off,114,0,0,,3,,,75,127
68775,note_off,0,0,0,,5,,,65,127
68775,note_off,0,0,0,,10,,,57,127
68776,note_on,1,0,0,,11,,,58,127
68776,note_on,0,0,0,,2,,,74,127
68890,note_off,114,0,0,,2,,,74,127
68891,note_on,1,0,0,,5,,,77,127
69005,note_off,114,0,0,,5,,,77,127
69005,note_off,0,0,0,,11,,,58,127
69006,note_on,1,0,0,,3,,,51,127
69006,note_on,0,0,0,,3,,,75,127
69120,note_off,114,0,0,,3,,,75,127
69121,note_on,1,0,0,,0,,,72,127
69235,note_off,114,0,0,,0,,,72,127
69235,note_off,0,0,0,,3,,,51,127
69236,note_on,1,0,0,,5,,,53,127
69236,note_on,0,0,0,,11,,,70,127
69465,note_off,229,0,0,,11,,,70,127
69465,note_off,0,0,0,,5,,,53,127
69466,note_on,1,0,0,,5,,,41,127
69466,note_on,0,0,0,,11,,,70,127
69522,note_off,56,0,0,,11,,,70,127
69523,note_on,1,0,0,,10,,,69,127
69579,note_off,56,0,0,,10,,,69,127
69580,note_on,1,0,0,,7,,,67,127
69636,note_off,56,0,0,,7,,,67,127
69637,note_on,1,0,0,,10,,,69,127
69693,note_off,56,0,0,,10,,,69,127
69693,note_off,0,0,0,,5,,,41,127
69694,note_on,1,0,0,,11,,,46,127
69694,note_on,0,0,0,,11,,,70,127
70384,note_off,690,0,0,,11,,,70,127
70614,note_off,230,0,0,,11,,,46,127
70846,note_on,232,0,0,,5,,,53,127
71075,note_off,229,0,0,,5,,,53,127
71076,note_on,1,0,0,,11,,,58,127
71305,note_off,229,0,0,,11,,,58,127
71306,note_on,1,0,0,,1,,,61,127
71306,note_on,0,0,0,,5,,,77,127
71420,note_off,114,0,0,,5,,,77,127
71421,note_on,1,0,0,,11,,,70,127
71535,note_off,114,0,0,,11,,,70,127
71535,note_off,0,0,0,,1,,,61,127
71536,note_on,1,0,0,,0,,,60,127
71536,note_on,0,0,0,,11,,,70,127
71765,note_off,229,0,0,,11,,,70,127
71765,note_off,0,0,0,,0,,,60,127
71766,note_on,1,0,0,,3,,,63,127
71766,note_on,0,0,0,,10,,,69,127
71880,note_off,114,0,0,,10,,,69,127
71881,note_on,1,0,0,,0,,,72,127
71995,note_off,114,0,0,,0,,,72,127
71995,note_off,0,0,0,,3,,,63,127
71996,note_on,1,0,0,,1,,,61,127
71996,note_on,0,0,0,,0,,,72,127
72225,note_off,229,0,0,,0,,,72,127
72225,note_off,0,0,0,,1,,,61,127
72226,note_on,1,0,0,,6,,,66,127
72226,note_on,0,0,0,,11,,,70,127
72340,note_off,114,0,0,,11,,,70,127
72341,note_on,1,0,0,,1,,,73,127
72455,note_off,114,0,0,,1,,,73,127
72455,note_off,0,0,0,,6,,,66,127
72456,note_on,1,0,0,,5,,,65,127
72456,note_on,0,0,0,,11,,,70,127
72456,note_on,0,0,0,,1,,,73,127
72685,note_off,229,0,0,,1,,,73,127
72685,note_off,0,0,0,,11,,,70,127
72685,note_off,0,0,0,,5,,,65,127
72686,note_on,1,0,0,,5,,,53,127
72686,note_on,0,0,0,,10,,,69,127
72686,note_on,0,0,0,,0,,,72,127
72914,note_off,228,0,0,,0,,,72,127
72914,note_off,0,0,0,,10,,,69,127
72915,note_off,1,0,0,,5,,,53,127
72916,note_on,1,0,0,,11,,,58,127
73145,note_off,229,0,0,,11,,,58,127
73146,note_on,1,0,0,,1,,,61,127
73146,note_on,0,0,0,,5,,,77,127
73260,note_off,114,0,0,,5,,,77,127
73261,note_on,1,0,0,,11,,,70,127
73375,note_off,114,0,0,,11,,,70,127
73375,note_off,0,0,0,,1,,,61,127
73376,note_on,1,0,0,,0,,,60,127
73376,note_on,0,0,0,,11,,,70,127
73605,note_off,229,0,0,,11,,,70,127
73605,note_off,0,0,0,,0,,,60,127
73606,note_on,1,0,0,,3,,,63,127
73606,note_on,0,0,0,,10,,,69,127
73720,note_off,114,0,0,,10,,,69,127
73721,note_on,1,0,0,,0,,,72,127
73835,note_off,114,0,0,,0,,,72,127
73835,note_off,0,0,0,,3,,,63,127
73836,note_on,1,0,0,,1,,,61,127
73836,note_on,0,0,0,,0,,,72,127
74065,note_off,229,0,0,,0,,,72,127
74065,note_off,0,0,0,,1,,,61,127
74066,note_on,1,0,0,,6,,,66,127
74066,note_on,0,0,0,,11,,,70,127
74180,note_off,114,0,0,,11,,,70,127
74181,note_on,1,0,0,,1,,,73,127
74295,note_off,114,0,0,,1,,,73,127
74295,note_off,0,0,0,,6,,,66,127
74296,note_on,1,0,0,,5,,,65,127
74296,note_on,0,0,0,,11,,,70,127
74296,note_on,0,0,0,,1,,,73,127
74525,note_off,229,0,0,,1,,,73,127
74525,note_off,0,0,0,,11,,,70,127
74525,note_off,0,0,0,,5,,,65,127
74526,note_on,1,0,0,,5,,,53,127
74526,note_on,0,0,0,,0,,,72,127
74526,note_on,0,0,0,,10,,,69,127
74754,note_off,228,0,0,,10,,,69,127
74754,note_off,0,0,0,,0,,,72,127
74755,note_off,1,0,0,,5,,,53,127
74756,note_on,1,0,0,,5,,,53,127
74985,note_off,229,0,0,,5,,,53,127
74986,note_on,1,0,0,,5,,,65,127
74986,note_on,0,0,0,,10,,,69,127
74986,note_on,0,0,0,,0,,,72,127
75100,note_off,114,0,0,,0,,,72,127
75101,note_on,1,0,0,,5,,,77,127
75214,note_off,113,0,0,,10,,,69,127
75215,note_off,1,0,0,,5,,,77,127
75215,note_off,0,0,0,,5,,,65,127
75216,note_on,1,0,0,,7,,,67,127
75216,note_on,0,0,0,,11,,,70,127
75216,note_on,0,0,0,,5,,,77,127
75445,note_off,229,0,0,,5,,,77,127
75445,note_off,0,0,0,,7,,,67,127
75446,note_on,1,0,0,,7,,,67,127
75446,note_on,0,0,0,,4,,,76,127
75672,note_off,226,0,0,,11,,,70,127
75676,note_off,4,0,0,,7,,,67,127
75677,note_on,1,0,0,,7,,,67,127
75677,note_on,0,0,0,,11,,,70,127
75903,note_off,226,0,0,,4,,,76,127
75907,note_off,4,0,0,,7,,,67,127
75908,note_on,1,0,0,,7,,,67,127
75908,note_on,0,0,0,,7,,,79,127
76022,note_off,114,0,0,,7,,,79,127
76023,note_on,1,0,0,,4,,,76,127
76133,note_off,110,0,0,,11,,,70,127
76137,note_off,4,0,0,,4,,,76,127
76137,note_off,0,0,0,,7,,,67,127
76138,note_on,1,0,0,,5,,,65,127
76138,note_on,0,0,0,,4,,,76,127
76138,note_on,0,0,0,,11,,,70,127
76367,note_off,229,0,0,,4,,,76,127
76367,note_off,0,0,0,,5,,,65,127
76368,note_on,1,0,0,,5,,,53,127
76368,note_on,0,0,0,,5,,,77,127
76594,note_off,226,0,0,,11,,,70,127
76598,note_off,4,0,0,,5,,,53,127
76599,note_on,1,0,0,,5,,,41,127
76599,note_on,0,0,0,,10,,,69,127
76714,note_off,115,0,0,,5,,,77,127
76828,note_off,114,0,0,,5,,,41,127
76829,note_on,1,0,0,,5,,,65,127
76829,note_on,0,0,0,,0,,,72,127
76943,note_off,114,0,0,,0,,,72,127
76944,note_on,1,0,0,,5,,,77,127
77054,note_off,110,0,0,,10,,,69,127
77058,note_off,4,0,0,,5,,,77,127
77058,note_off,0,0,0,,5,,,65,127
77059,note_on,1,0,0,,7,,,67,127
77059,note_on,0,0,0,,5,,,77,127
77059,note_on,0,0,0,,11,,,70,127
77288,note_off,229,0,0,,5,,,77,127
77288,note_off,0,0,0,,7,,,67,127
77289,note_on,1,0,0,,7,,,67,127
77289,note_on,0,0,0,,4,,,76,127
77515,note_off,226,0,0,,11,,,70,127
77519,note_off,4,0,0,,7,,,67,127
77520,note_on,1,0,0,,7,,,67,127
77520,note_on,0,0,0,,11,,,70,127
77746,note_off,226,0,0,,4,,,76,127
77750,note_off,4,0,0,,7,,,67,127
77751,note_on,1,0,0,,7,,,67,127
77751,note_on,0,0,0,,7,,,79,127
77865,note_off,114,0,0,,7,,,79,127
77866,note_on,1,0,0,,4,,,76,127
77976,note_off,110,0,0,,11,,,70,127
77980,note_off,4,0,0,,4,,,76,127
77980,note_off,0,0,0,,7,,,67,127
77981,note_on,1,0,0,,5,,,65,127
77981,note_on,0,0,0,,4,,,76,127
77981,note_on,0,0,0,,11,,,70,127
78210,note_off,229,0,0,,4,,,76,127
78210,note_off,0,0,0,,5,,,65,127
78211,note_on,1,0,0,,5,,,53,127
78211,note_on,0,0,0,,5,,,77,127
78437,note_off,226,0,0,,11,,,70,127
78441,note_off,4,0,0,,5,,,53,127
78442,note_on,1,0,0,,5,,,41,127
78442,note_on,0,0,0,,10,,,69,127
78668,note_off,226,0,0,,5,,,77,127
78672,note_off,4,0,0,,10,,,69,127
78672,note_off,0,0,0,,5,,,41,127
78673,note_on,1,0,0,,7,,,67,127
78673,note_on,0,0,0,,2,,,74,127
78787,note_off,114,0,0,,2,,,74,127
78788,note_on,1,0,0,,12,,,71,127
78902,note_off,114,0,0,,12,,,71,127
78902,note_off,0,0,0,,7,,,67,127
78903,note_on,1,0,0,,8,,,68,127
78903,note_on,0,0,0,,0,,,72,127
78903,note_on,0,0,0,,5,,,77,127
79132,note_off,229,0,0,,0,,,72,127
79132,note_off,0,0,0,,8,,,68,127
79133,note_on,1,0,0,,7,,,67,127
79133,note_on,0,0,0,,2,,,74,127
79247,note_off,114,0,0,,2,,,74,127
79248,note_on,1,0,0,,12,,,71,127
79358,note_off,110,0,0,,5,,,77,127
79362,note_off,4,0,0,,12,,,71,127
79362,note_off,0,0,0,,7,,,67,127
79363,note_on,1,0,0,,8,,,68,127
79363,note_on,0,0,0,,0,,,72,127
79363,note_on,0,0,0,,5,,,77,127
79592,note_off,229,0,0,,0,,,72,127
79592,note_off,0,0,0,,8,,,68,127
79593,note_on,1,0,0,,7,,,67,127
79593,note_on,0,0,0,,2,,,74,127
79707,note_off,114,0,0,,2,,,74,127
79708,note_on,1,0,0,,12,,,71,127
79818,note_off,110,0,0,,5,,,77,127
79822,note_off,4,0,0,,12,,,71,127
79822,note_off,0,0,0,,7,,,67,127
79823,note_on,1,0,0,,8,,,68,127
79823,note_on,0,0,0,,0,,,72,127
79823,note_on,0,0,0,,5,,,77,127
80052,note_off,229,0,0,,0,,,72,127
80052,note_off,0,0,0,,8,,,68,127
80053,note_on,1,0,0,,7,,,67,127
80053,note_on,0,0,0,,2,,,74,127
80167,note_off,114,0,0,,2,,,74,127
80168,note_on,1,0,0,,12,,,71,127
80282,note_off,114,0,0,,12,,,71,127
80282,note_off,0,0,0,,7,,,67,127
80283,note_on,1,0,0,,8,,,68,127
80283,note_on,0,0,0,,0,,,72,127
80512,note_off,229,0,0,,0,,,72,127
80512,note_off,0,0,0,,8,,,68,127
80512,note_off,0,0,0,,5,,,77,127
80513,note_on,1,0,0,,10,,,69,127
80513,note_on,0,0,0,,5,,,77,127
80513,note_on,0,0,0,,3,,,75,127
80627,note_off,114,0,0,,3,,,75,127
80628,note_on,1,0,0,,0,,,72,127
80741,note_off,113,0,0,,5,,,77,127
80742,note_off,1,0,0,,0,,,72,127
80742,note_off,0,0,0,,10,,,69,127
80743,note_on,1,0,0,,11,,,70,127
80743,note_on,0,0,0,,2,,,74,127
80743,note_on,0,0,0,,5,,,77,127
80972,note_off,229,0,0,,5,,,77,127
80972,note_off,0,0,0,,2,,,74,127
80972,note_off,0,0,0,,11,,,70,127
80973,note_on,1,0,0,,10,,,69,127
80973,note_on,0,0,0,,5,,,77,127
80973,note_on,0,0,0,,3,,,75,127
81087,note_off,114,0,0,,3,,,75,127
81088,note_on,1,0,0,,0,,,72,127
81201,note_off,113,0,0,,5,,,77,127
81202,note_off,1,0,0,,0,,,72,127
81202,note_off,0,0,0,,10,,,69,127
81203,note_on,1,0,0,,11,,,70,127
81203,note_on,0,0,0,,2,,,74,127
81203,note_on,0,0,0,,5,,,77,127
81432,note_off,229,0,0,,5,,,77,127
81432,note_off,0,0,0,,2,,,74,127
81432,note_off,0,0,0,,11,,,70,127
81433,note_on,1,0,0,,10,,,69,127
81433,note_on,0,0,0,,5,,,77,127
81433,note_on,0,0,0,,3,,,75,127
81547,note_off,114,0,0,,3,,,75,127
81548,note_on,1,0,0,,0,,,72,127
81661,note_off,113,0,0,,5,,,77,127
81662,note_off,1,0,0,,0,,,72,127
81662,note_off,0,0,0,,10,,,69,127
81663,note_on,1,0,0,,11,,,70,127
81663,note_on,0,0,0,,2,,,74,127
81663,note_on,0,0,0,,5,,,77,127
81892,note_off,229,0,0,,5,,,77,127
81892,note_off,0,0,0,,2,,,74,127
81892,note_off,0,0,0,,11,,,70,127
81893,note_on,1,0,0,,10,,,69,127
81893,note_on,0,0,0,,5,,,77,127
81893,note_on,0,0,0,,3,,,75,127
82007,note_off,114,0,0,,3,,,75,127
82008,note_on,1,0,0,,0,,,72,127
82121,note_off,113,0,0,,5,,,77,127
82122,note_off,1,0,0,,0,,,72,127
82122,note_off,0,0,0,,10,,,69,127
82123,note_on,1,0,0,,11,,,70,127
82123,note_on,0,0,0,,5,,,77,127
82123,note_on,0,0,0,,2,,,74,127
82352,note_off,229,0,0,,2,,,74,127
82352,note_off,0,0,0,,5,,,77,127
82352,note_off,0,0,0,,11,,,70,127
82353,note_on,1,0,0,,2,,,62,127
82353,note_on,0,0,0,,11,,,82,127
82467,note_off,114,0,0,,11,,,82,127
82468,note_on,1,0,0,,5,,,77,127
82582,note_off,114,0,0,,5,,,77,127
82582,note_off,0,0,0,,2,,,62,127
82583,note_on,1,0,0,,3,,,63,127
82583,note_on,0,0,0,,7,,,79,127
82697,note_off,114,0,0,,7,,,79,127
82698,note_on,1,0,0,,2,,,74,127
82812,note_off,114,0,0,,2,,,74,127
82812,note_off,0,0,0,,3,,,63,127
82813,note_on,1,0,0,,7,,,67,127
82813,note_on,0,0,0,,3,,,75,127
82927,note_off,114,0,0,,3,,,75,127
82928,note_on,1,0,0,,0,,,72,127
83042,note_off,114,0,0,,0,,,72,127
83042,note_off,0,0,0,,7,,,67,127
83043,note_on,1,0,0,,5,,,65,127
83043,note_on,0,0,0,,11,,,70,127
83272,note_off,229,0,0,,11,,,70,127
83272,note_off,0,0,0,,5,,,65,127
83273,note_on,1,0,0,,5,,,53,127
83273,note_on,0,0,0,,11,,,70,127
83329,note_off,56,0,0,,11,,,70,127
83330,note_on,1,0,0,,10,,,69,127
83386,note_off,56,0,0,,10,,,69,127
83387,note_on,1,0,0,,7,,,67,127
83443,note_off,56,0,0,,7,,,67,127
83444,note_on,1,0,0,,10,,,69,127
83500,note_off,56,0,0,,10,,,69,127
83500,note_off,0,0,0,,5,,,53,127
83501,note_on,1,0,0,,11,,,46,127
83501,note_on,0,0,0,,11,,,70,127
83957,note_off,456,0,0,,11,,,70,127
84191,note_off,234,0,0,,11,,,46,127
84192,note_on,1,0,0,,5,,,65,127
84192,note_on,0,0,0,,0,,,72,127
84192,note_on,0,0,0,,10,,,69,127
84306,note_off,114,0,0,,0,,,72,127
84307,note_on,1,0,0,,5,,,77,127
84420,note_off,113,0,0,,10,,,69,127
84421,note_off,1,0,0,,5,,,77,127
84421,note_off,0,0,0,,5,,,65,127
84422,note_on,1,0,0,,7,,,67,127
84422,note_on,0,0,0,,11,,,70,127
84422,note_on,0,0,0,,5,,,77,127
84651,note_off,229,0,0,,5,,,77,127
84651,note_off,0,0,0,,7,,,67,127
84652,note_on,1,0,0,,7,,,67,127
84652,note_on,0,0,0,,4,,,76,127
84878,note_off,226,0,0,,11,,,70,127
84882,note_off,4,0,0,,7,,,67,127
84883,note_on,1,0,0,,7,,,67,127
84883,note_on,0,0,0,,11,,,70,127
85109,note_off,226,0,0,,4,,,76,127
85113,note_off,4,0,0,,7,,,67,127
85114,note_on,1,0,0,,7,,,67,127
85114,note_on,0,0,0,,7,,,79,127
85228,note_off,114,0,0,,7,,,79,127
85229,note_on,1,0,0,,4,,,76,127
85339,note_off,110,0,0,,11,,,70,127
85343,note_off,4,0,0,,4,,,76,127
85343,note_off,0,0,0,,7,,,67,127
85344,note_on,1,0,0,,5,,,65,127
85344,note_on,0,0,0,,4,,,76,127
85344,note_on,0,0,0,,11,,,70,127
85573,note_off,229,0,0,,4,,,76,127
85573,note_off,0,0,0,,5,,,65,127
85574,note_on,1,0,0,,5,,,53,127
85574,note_on,0,0,0,,5,,,77,127
85800,note_off,226,0,0,,11,,,70,127
85804,note_off,4,0,0,,5,,,53,127
85805,note_on,1,0,0,,5,,,41,127
85805,note_on,0,0,0,,10,,,69,127
85920,note_off,115,0,0,,5,,,77,127
86034,note_off,114,0,0,,5,,,41,127
86035,note_on,1,0,0,,5,,,65,127
86035,note_on,0,0,0,,0,,,72,127
86149,note_off,114,0,0,,0,,,72,127
86150,note_on,1,0,0,,5,,,77,127
86260,note_off,110,0,0,,10,,,69,127
86264,note_off,4,0,0,,5,,,77,127
86264,note_off,0,0,0,,5,,,65,127
86265,note_on,1,0,0,,7,,,67,127
86265,note_on,0,0,0,,5,,,77,127
86265,note_on,0,0,0,,11,,,70,127
86494,note_off,229,0,0,,5,,,77,127
86494,note_off,0,0,0,,7,,,67,127
86495,note_on,1,0,0,,7,,,67,127
86495,note_on,0,0,0,,4,,,76,127
86721,note_off,226,0,0,,11,,,70,127
86725,note_off,4,0,0,,7,,,67,127
86726,note_on,1,0,0,,7,,,67,127
86726,note_on,0,0,0,,11,,,70,127
86952,note_off,226,0,0,,4,,,76,127
86956,note_off,4,0,0,,7,,,67,127
86957,note_on,1,0,0,,7,,,67,127
86957,note_on,0,0,0,,7,,,79,127
87071,note_off,114,0,0,,7,,,79,127
87072,note_on,1,0,0,,4,,,76,127
87182,note_off,110,0,0,,11,,,70,127
87186,note_off,4,0,0,,4,,,76,127
87186,note_off,0,0,0,,7,,,67,127
87187,note_on,1,0,0,,5,,,65,127
87187,note_on,0,0,0,,11,,,70,127
87187,note_on,0,0,0,,4,,,76,127
87416,note_off,229,0,0,,4,,,76,127
87416,note_off,0,0,0,,5,,,65,127
87417,note_on,1,0,0,,5,,,53,127
87417,note_on,0,0,0,,5,,,77,127
87643,note_off,226,0,0,,11,,,70,127
87647,note_off,4,0,0,,5,,,53,127
87648,note_on,1,0,0,,5,,,41,127
87648,note_on,0,0,0,,10,,,69,127
87877,note_off,229,0,0,,10,,,69,127
87877,note_off,0,0,0,,5,,,41,127
87878,note_on,1,0,0,,7,,,67,127
87878,note_on,0,0,0,,2,,,74,127
87992,note_off,114,0,0,,2,,,74,127
87993,note_on,1,0,0,,12,,,71,127
88107,note_off,114,0,0,,12,,,71,127
88107,note_off,0,0,0,,7,,,67,127
88107,note_off,0,0,0,,5,,,77,127
88108,note_on,1,0,0,,8,,,68,127
88108,note_on,0,0,0,,0,,,72,127
88108,note_on,0,0,0,,5,,,77,127
88337,note_off,229,0,0,,0,,,72,127
88337,note_off,0,0,0,,8,,,68,127
88338,note_on,1,0,0,,7,,,67,127
88338,note_on,0,0,0,,2,,,74,127
88452,note_off,114,0,0,,2,,,74,127
88453,note_on,1,0,0,,12,,,71,127
88563,note_off,110,0,0,,5,,,77,127
88567,note_off,4,0,0,,12,,,71,127
88567,note_off,0,0,0,,7,,,67,127
88568,note_on,1,0,0,,8,,,68,127
88568,note_on,0,0,0,,0,,,72,127
88568,note_on,0,0,0,,5,,,77,127
88797,note_off,229,0,0,,0,,,72,127
88797,note_off,0,0,0,,8,,,68,127
88798,note_on,1,0,0,,7,,,67,127
88798,note_on,0,0,0,,2,,,74,127
88912,note_off,114,0,0,,2,,,74,127
88913,note_on,1,0,0,,12,,,71,127
89023,note_off,110,0,0,,5,,,77,127
89027,note_off,4,0,0,,12,,,71,127
89027,note_off,0,0,0,,7,,,67,127
89028,note_on,1,0,0,,8,,,68,127
89028,note_on,0,0,0,,0,,,72,127
89028,note_on,0,0,0,,5,,,77,127
89257,note_off,229,0,0,,0,,,72,127
89257,note_off,0,0,0,,8,,,68,127
89258,note_on,1,0,0,,7,,,67,127
89258,note_on,0,0,0,,2,,,74,127
89372,note_off,114,0,0,,2,,,74,127
89373,note_on,1,0,0,,12,,,71,127
89487,note_off,114,0,0,,12,,,71,127
89487,note_off,0,0,0,,7,,,67,127
89488,note_on,1,0,0,,8,,,68,127
89488,note_on,0,0,0,,0,,,72,127
89717,note_off,229,0,0,,0,,,72,127
89717,note_off,0,0,0,,8,,,68,127
89717,note_off,0,0,0,,5,,,77,127
89718,note_on,1,0,0,,10,,,69,127
89718,note_on,0,0,0,,3,,,75,127
89718,note_on,0,0,0,,5,,,77,127
89832,note_off,114,0,0,,3,,,75,127
89833,note_on,1,0,0,,0,,,72,127
89946,note_off,113,0,0,,5,,,77,127
89947,note_off,1,0,0,,0,,,72,127
89947,note_off,0,0,0,,10,,,69,127
89948,note_on,1,0,0,,11,,,70,127
89948,note_on,0,0,0,,2,,,74,127
89948,note_on,0,0,0,,5,,,77,127
90177,note_off,229,0,0,,5,,,77,127
90177,note_off,0,0,0,,2,,,74,127
90177,note_off,0,0,0,,11,,,70,127
90178,note_on,1,0,0,,10,,,69,127
90178,note_on,0,0,0,,3,,,75,127
90178,note_on,0,0,0,,5,,,77,127
90292,note_off,114,0,0,,3,,,75,127
90293,note_on,1,0,0,,0,,,72,127
90406,note_off,113,0,0,,5,,,77,127
90407,note_off,1,0,0,,0,,,72,127
90407,note_off,0,0,0,,10,,,69,127
90408,note_on,1,0,0,,11,,,70,127
90408,note_on,0,0,0,,2,,,74,127
90408,note_on,0,0,0,,5,,,77,127
90637,note_off,229,0,0,,5,,,77,127
90637,note_off,0,0,0,,2,,,74,127
90637,note_off,0,0,0,,11,,,70,127
90638,note_on,1,0,0,,10,,,69,127
90638,note_on,0,0,0,,5,,,77,127
90638,note_on,0,0,0,,3,,,75,127
90752,note_off,114,0,0,,3,,,75,127
90753,note_on,1,0,0,,0,,,72,127
90866,note_off,113,0,0,,5,,,77,127
90867,note_off,1,0,0,,0,,,72,127
90867,note_off,0,0,0,,10,,,69,127
90868,note_on,1,0,0,,11,,,70,127
90868,note_on,0,0,0,,2,,,74,127
90868,note_on,0,0,0,,5,,,77,127
91097,note_off,229,0,0,,5,,,77,127
91097,note_off,0,0,0,,2,,,74,127
91097,note_off,0,0,0,,11,,,70,127
91098,note_on,1,0,0,,10,,,69,127
91098,note_on,0,0,0,,5,,,77,127
91098,note_on,0,0,0,,3,,,75,127
91212,note_off,114,0,0,,3,,,75,127
91213,note_on,1,0,0,,0,,,72,127
91326,note_off,113,0,0,,5,,,77,127
91327,note_off,1,0,0,,0,,,72,127
91327,note_off,0,0,0,,10,,,69,127
91328,note_on,1,0,0,,11,,,70,127
91328,note_on,0,0,0,,2,,,74,127
91328,note_on,0,0,0,,5,,,77,127
91520,note_off,192,0,0,,5,,,77,127
91557,note_off,37,0,0,,2,,,74,127
91557,note_off,0,0,0,,11,,,70,127
91558,note_on,1,0,0,,2,,,62,127
91558,note_on,0,0,0,,11,,,82,127
91672,note_off,114,0,0,,11,,,82,127
91673,note_on,1,0,0,,5,,,77,127
91787,note_off,114,0,0,,5,,,77,127
91787,note_off,0,0,0,,2,,,62,127
91788,note_on,1,0,0,,3,,,63,127
91788,note_on,0,0,0,,7,,,79,127
91902,note_off,114,0,0,,7,,,79,127
91903,note_on,1,0,0,,2,,,74,127
92017,note_off,114,0,0,,2,,,74,127
92017,note_off,0,0,0,,3,,,63,127
92018,note_on,1,0,0,,7,,,67,127
92018,note_on,0,0,0,,3,,,75,127
92132,note_off,114,0,0,,3,,,75,127
92133,note_on,1,0,0,,0,,,72,127
92247,note_off,114,0,0,,0,,,72,127
92247,note_off,0,0,0,,7,,,67,127
92248,note_on,1,0,0,,5,,,65,127
92248,note_on,0,0,0,,11,,,70,127
92248,note_on,0,0,0,,2,,,74,127
92477,note_off,229,0,0,,2,,,74,127
92477,note_off,0,0,0,,11,,,70,127
92477,note_off,0,0,0,,5,,,65,127
92478,note_on,1,0,0,,5,,,53,127
92478,note_on,0,0,0,,10,,,69,127
92478,note_on,0,0,0,,2,,,74,127
92534,note_off,56,0,0,,2,,,74,127
92535,note_on,1,0,0,,0,,,72,127
92591,note_off,56,0,0,,0,,,72,127
92592,note_on,1,0,0,,11,,,70,127
92648,note_off,56,0,0,,11,,,70,127
92649,note_on,1,0,0,,0,,,72,127
92704,note_off,55,0,0,,10,,,69,127
92705,note_off,1,0,0,,0,,,72,127
92705,note_off,0,0,0,,5,,,53,127
92706,note_on,1,0,0,,11,,,46,127
92706,note_on,0,0,0,,11,,,70,127
92935,note_off,229,0,0,,11,,,70,127
92936,note_on,1,0,0,,2,,,86,127
93050,note_off,114,0,0,,2,,,86,127
93051,note_on,1,0,0,,0,,,84,127
93080,note_on,29,0,0,,11,,,82,127
93099,note_off,19,0,0,,0,,,84,127
93109,note_on,10,0,0,,10,,,81,127
93128,note_off,19,0,0,,11,,,82,127
93138,note_on,10,0,0,,7,,,79,127
93157,note_off,19,0,0,,10,,,81,127
93162,note_off,5,0,0,,11,,,46,127
93167,note_on,5,0,0,,5,,,77,127
93186,note_off,19,0,0,,7,,,79,127
93396,note_off,210,0,0,,5,,,77,127
93397,note_on,1,0,0,,5,,,65,127
93397,note_on,0,0,0,,5,,,53,127
93397,note_on,0,0,0,,5,,,77,127
93626,note_off,229,0,0,,5,,,53,127
93626,note_off,0,0,0,,5,,,65,127
93627,note_on,1,0,0,,11,,,70,127
93627,note_on,0,0,0,,11,,,58,127
93856,note_off,229,0,0,,11,,,58,127
93856,note_off,0,0,0,,11,,,70,127
93856,note_off,0,0,0,,5,,,77,127
93857,note_on,1,0,0,,11,,,70,127
93857,note_on,0,0,0,,11,,,58,127
93857,note_on,0,0,0,,2,,,86,127
93971,note_off,114,0,0,,2,,,86,127
93972,note_on,1,0,0,,0,,,84,127
94001,note_on,29,0,0,,11,,,82,127
94020,note_off,19,0,0,,0,,,84,127
94030,note_on,10,0,0,,10,,,81,127
94049,note_off,19,0,0,,11,,,82,127
94059,note_on,10,0,0,,7,,,79,127
94078,note_off,19,0,0,,10,,,81,127
94088,note_on,10,0,0,,5,,,77,127
94107,note_off,19,0,0,,7,,,79,127
94203,note_off,96,0,0,,11,,,58,127
94203,note_off,0,0,0,,11,,,70,127
94317,note_off,114,0,0,,5,,,77,127
94318,note_on,1,0,0,,5,,,65,127
94318,note_on,0,0,0,,5,,,53,127
94318,note_on,0,0,0,,5,,,77,127
94547,note_off,229,0,0,,5,,,53,127
94547,note_off,0,0,0,,5,,,65,127
94548,note_on,1,0,0,,11,,,70,127
94548,note_on,0,0,0,,11,,,58,127
94604,note_off,56,0,0,,5,,,77,127
94605,note_on,1,0,0,,2,,,74,127
94661,note_off,56,0,0,,2,,,74,127
94662,note_on,1,0,0,,3,,,75,127
94718,note_off,56,0,0,,3,,,75,127
94719,note_on,1,0,0,,5,,,77,127
94775,note_off,56,0,0,,5,,,77,127
94775,note_off,0,0,0,,11,,,58,127
94775,note_off,0,0,0,,11,,,70,127
94776,note_on,1,0,0,,3,,,63,127
94776,note_on,0,0,0,,3,,,51,127
94776,note_on,0,0,0,,3,,,75,127
94890,note_off,114,0,0,,3,,,75,127
94891,note_on,1,0,0,,5,,,77,127
94947,note_off,56,0,0,,5,,,77,127
94948,note_on,1,0,0,,7,,,79,127
95004,note_off,56,0,0,,7,,,79,127
95004,note_off,0,0,0,,3,,,51,127
95004,note_off,0,0,0,,3,,,63,127
95005,note_on,1,0,0,,5,,,53,127
95005,note_on,0,0,0,,5,,,65,127
95005,note_on,0,0,0,,11,,,70,127
95005,note_on,0,0,0,,2,,,74,127
95234,note_off,229,0,0,,2,,,74,127
95234,note_off,0,0,0,,11,,,70,127
95234,note_off,0,0,0,,5,,,65,127
95234,note_off,0,0,0,,5,,,53,127
95235,note_on,1,0,0,,5,,,53,127
95235,note_on,0,0,0,,5,,,65,127
95235,note_on,0,0,0,,2,,,74,127
95235,note_on,0,0,0,,10,,,69,127
95291,note_off,56,0,0,,2,,,74,127
95292,note_on,1,0,0,,0,,,72,127
95348,note_off,56,0,0,,0,,,72,127
95349,note_on,1,0,0,,11,,,70,127
95405,note_off,56,0,0,,11,,,70,127
95406,note_on,1,0,0,,0,,,72,127
95461,note_off,55,0,0,,10,,,69,127
95462,note_off,1,0,0,,0,,,72,127
95462,note_off,0,0,0,,5,,,65,127
95462,note_off,0,0,0,,5,,,53,127
95463,note_on,1,0,0,,11,,,46,127
95463,note_on,0,0,0,,11,,,58,127
95463,note_on,0,0,0,,11,,,70,127
95692,note_off,229,0,0,,11,,,70,127
95693,note_on,1,0,0,,2,,,74,127
95807,note_off,114,0,0,,2,,,74,127
95808,note_on,1,0,0,,0,,,72,127
95837,note_on,29,0,0,,11,,,70,127
95856,note_off,19,0,0,,0,,,72,127
95866,note_on,10,0,0,,10,,,69,127
95885,note_off,19,0,0,,11,,,70,127
95895,note_on,10,0,0,,7,,,67,127
95914,note_off,19,0,0,,10,,,69,127
95919,note_off,5,0,0,,11,,,58,127
95919,note_off,0,0,0,,11,,,46,127
95924,note_on,5,0,0,,5,,,65,127
95943,note_off,19,0,0,,7,,,67,127
96153,note_off,210,0,0,,5,,,65,127
96154,note_on,1,0,0,,5,,,53,127
96154,note_on,0,0,0,,5,,,41,127
96154,note_on,0,0,0,,5,,,65,127
96383,note_off,229,0,0,,5,,,41,127
96383,note_off,0,0,0,,5,,,53,127
96384,note_on,1,0,0,,11,,,46,127
96384,note_on,0,0,0,,11,,,58,127
96613,note_off,229,0,0,,11,,,58,127
96613,note_off,0,0,0,,11,,,46,127
96613,note_off,0,0,0,,5,,,65,127
96614,note_on,1,0,0,,11,,,58,127
96614,note_on,0,0,0,,11,,,46,127
96614,note_on,0,0,0,,2,,,74,127
96728,note_off,114,0,0,,2,,,74,127
96729,note_on,1,0,0,,0,,,72,127
96758,note_on,29,0,0,,11,,,70,127
96777,note_off,19,0,0,,0,,,72,127
96787,note_on,10,0,0,,10,,,69,127
96806,note_off,19,0,0,,11,,,70,127
96816,note_on,10,0,0,,7,,,67,127
96835,note_off,19,0,0,,10,,,69,127
96845,note_on,10,0,0,,5,,,65,127
96864,note_off,19,0,0,,7,,,67,127
96960,note_off,96,0,0,,11,,,46,127
96960,note_off,0,0,0,,11,,,58,127
97074,note_off,114,0,0,,5,,,65,127
97075,note_on,1,0,0,,5,,,53,127
97075,note_on,0,0,0,,5,,,41,127
97075,note_on,0,0,0,,5,,,65,127
97304,note_off,229,0,0,,5,,,41,127
97304,note_off,0,0,0,,5,,,53,127
97305,note_on,1,0,0,,11,,,46,127
97305,note_on,0,0,0,,11,,,58,127
97361,note_off,56,0,0,,5,,,65,127
97363,note_on,2,0,0,,2,,,62,127
97421,note_off,58,0,0,,2,,,62,127
97423,note_on,2,0,0,,3,,,63,127
97481,note_off,58,0,0,,3,,,63,127
97482,note_on,1,0,0,,5,,,65,127
97540,note_off,58,0,0,,5,,,65,127
97540,note_off,0,0,0,,11,,,58,127
97540,note_off,0,0,0,,11,,,46,127
97541,note_on,1,0,0,,3,,,63,127
97541,note_on,0,0,0,,3,,,51,127
97541,note_on,0,0,0,,3,,,39,127
97657,note_off,116,0,0,,3,,,63,127
97659,note_on,2,0,0,,5,,,65,127
97717,note_off,58,0,0,,5,,,65,127
97719,note_on,2,0,0,,7,,,67,127
97775,note_off,56,0,0,,3,,,39,127
97775,note_off,0,0,0,,3,,,51,127
97776,note_off,1,0,0,,7,,,67,127
97778,note_on,2,0,0,,5,,,53,127
97778,note_on,0,0,0,,5,,,41,127
97778,note_on,0,0,0,,2,,,62,127
97778,note_on,0,0,0,,11,,,58,127
98036,note_off,258,0,0,,11,,,58,127
98036,note_off,0,0,0,,2,,,62,127
98036,note_off,0,0,0,,5,,,41,127
98036,note_off,0,0,0,,5,,,53,127
98044,note_on,8,0,0,,5,,,41,127
98044,note_on,0,0,0,,5,,,53,127
98044,note_on,0,0,0,,2,,,62,127
98044,note_on,0,0,0,,10,,,57,127
98106,note_off,62,0,0,,2,,,62,127
98108,note_on,2,0,0,,0,,,60,127
98170,note_off,62,0,0,,0,,,60,127
98175,note_on,5,0,0,,11,,,58,127
98237,note_off,62,0,0,,11,,,58,127
98241,note_on,4,0,0,,0,,,60,127
98300,note_off,59,0,0,,10,,,57,127
98301,note_off,1,0,0,,5,,,53,127
98301,note_off,0,0,0,,5,,,41,127
98303,note_off,2,0,0,,0,,,60,127
98316,note_on,13,0,0,,11,,,34,127
98316,note_on,0,0,0,,11,,,46,127
98316,note_on,0,0,0,,11,,,58,127
100304,note_off,1988,0,0,,11,,,58,127
100304,note_off,0,0,0,,11,,,46,127
100304,note_off,0,0,0,,11,,,34,127
104448,end_of_track,4144,1,0,,,,,,
