tick,type,time,meta,track,program,channel,pitch,tempo,note,velocity
0,copyright,0,1,0,,,,,,
0,program_change,0,0,0,6,0,,,,
0,pitchwheel,0,0,0,,0,0,,,
0,program_change,0,0,0,6,1,,,,
0,pitchwheel,0,0,0,,1,-590,,,
0,program_change,0,0,0,6,2,,,,
0,pitchwheel,0,0,0,,2,-272,,,
0,program_change,0,0,0,6,3,,,,
0,pitchwheel,0,0,0,,3,-353,,,
0,program_change,0,0,0,6,4,,,,
0,pitchwheel,0,0,0,,4,-560,,,
0,program_change,0,0,0,6,5,,,,
0,pitchwheel,0,0,0,,5,-80,,,
0,program_change,0,0,0,6,6,,,,
0,pitchwheel,0,0,0,,6,-625,,,
0,program_change,0,0,0,6,7,,,,
0,pitchwheel,0,0,0,,7,-130,,,
0,program_change,0,0,0,6,8,,,,
0,pitchwheel,0,0,0,,8,-512,,,
0,program_change,0,0,0,6,10,,,,
0,pitchwheel,0,0,0,,10,-464,,,
0,program_change,0,0,0,6,11,,,,
0,pitchwheel,0,0,0,,11,-208,,,
0,program_change,0,0,0,6,12,,,,
0,pitchwheel,0,0,0,,12,-553,,,
0,set_tempo,0,1,0,,,,500000,,
137,note_on,137,0,0,,5,,,77,127
204,note_off,67,0,0,,5,,,77,127
205,note_on,1,0,0,,3,,,75,127
272,note_off,67,0,0,,3,,,75,127
273,note_on,1,0,0,,5,,,77,127
340,note_off,67,0,0,,5,,,77,127
341,note_on,1,0,0,,3,,,75,127
408,note_off,67,0,0,,3,,,75,127
409,note_on,1,0,0,,5,,,77,127
476,note_off,67,0,0,,5,,,77,127
477,note_on,1,0,0,,3,,,75,127
544,note_off,67,0,0,,3,,,75,127
545,note_on,1,0,0,,2,,,74,127
612,note_off,67,0,0,,2,,,74,127
613,note_on,1,0,0,,0,,,72,127
680,note_off,67,0,0,,0,,,72,127
681,note_on,1,0,0,,5,,,65,127
681,note_on,0,0,0,,11,,,70,127
748,note_off,67,0,0,,5,,,65,127
749,note_on,1,0,0,,3,,,63,127
816,note_off,67,0,0,,3,,,63,127
817,note_on,1,0,0,,5,,,65,127
884,note_off,67,0,0,,5,,,65,127
885,note_on,1,0,0,,3,,,63,127
952,note_off,67,0,0,,3,,,63,127
953,note_on,1,0,0,,5,,,65,127
1020,note_off,67,0,0,,5,,,65,127
1021,note_on,1,0,0,,3,,,63,127
1088,note_off,67,0,0,,3,,,63,127
1089,note_on,1,0,0,,2,,,62,127
1156,note_off,67,0,0,,2,,,62,127
1157,note_on,1,0,0,,0,,,60,127
1224,note_off,67,0,0,,0,,,60,127
1225,note_on,1,0,0,,11,,,58,127
1499,note_on,274,0,0,,2,,,62,127
1769,note_off,270,0,0,,11,,,70,127
1772,note_off,3,0,0,,2,,,62,127
1772,note_off,0,0,0,,11,,,58,127
1773,note_on,1,0,0,,11,,,58,127
1773,note_on,0,0,0,,8,,,56,127
1773,note_on,0,0,0,,2,,,74,127
2046,note_off,273,0,0,,2,,,74,127
2047,note_on,1,0,0,,3,,,75,127
2320,note_off,273,0,0,,8,,,56,127
2320,note_off,0,0,0,,11,,,58,127
2321,note_on,1,0,0,,11,,,58,127
2321,note_on,0,0,0,,7,,,55,127
2595,note_on,274,0,0,,3,,,63,127
2868,note_off,273,0,0,,3,,,63,127
2868,note_off,0,0,0,,7,,,55,127
2868,note_off,0,0,0,,11,,,58,127
2868,note_off,0,0,0,,3,,,75,127
2869,note_on,1,0,0,,5,,,53,127
2869,note_on,0,0,0,,8,,,56,127
2869,note_on,0,0,0,,5,,,77,127
3142,note_off,273,0,0,,5,,,77,127
3143,note_on,1,0,0,,7,,,79,127
3416,note_off,273,0,0,,8,,,56,127
3416,note_off,0,0,0,,5,,,53,127
3417,note_on,1,0,0,,3,,,51,127
3417,note_on,0,0,0,,7,,,55,127
3691,note_on,274,0,0,,7,,,67,127
3964,note_off,273,0,0,,7,,,67,127
3964,note_off,0,0,0,,7,,,55,127
3964,note_off,0,0,0,,3,,,51,127
3964,note_off,0,0,0,,7,,,79,127
3965,note_on,1,0,0,,5,,,53,127
3965,note_on,0,0,0,,2,,,50,127
3965,note_on,0,0,0,,8,,,80,127
4238,note_off,273,0,0,,8,,,80,127
4239,note_on,1,0,0,,11,,,82,127
4512,note_off,273,0,0,,2,,,50,127
4512,note_off,0,0,0,,5,,,53,127
4513,note_on,1,0,0,,3,,,51,127
4513,note_on,0,0,0,,0,,,48,127
4786,note_off,273,0,0,,11,,,82,127
4787,note_on,1,0,0,,0,,,84,127
4923,note_off,136,0,0,,0,,,84,127
4924,note_on,1,0,0,,3,,,75,127
5060,note_off,136,0,0,,3,,,75,127
5060,note_off,0,0,0,,0,,,48,127
5060,note_off,0,0,0,,3,,,51,127
5061,note_on,1,0,0,,11,,,46,127
5061,note_on,0,0,0,,5,,,53,127
5061,note_on,0,0,0,,5,,,77,127
5061,note_on,0,0,0,,3,,,75,127
5197,note_off,136,0,0,,3,,,75,127
5197,note_off,0,0,0,,5,,,77,127
5198,note_on,1,0,0,,2,,,74,127
5334,note_off,136,0,0,,2,,,74,127
5335,note_on,1,0,0,,5,,,77,127
5471,note_off,136,0,0,,5,,,77,127
5472,note_on,1,0,0,,8,,,68,127
5608,note_off,136,0,0,,8,,,68,127
5608,note_off,0,0,0,,5,,,53,127
5608,note_off,0,0,0,,11,,,46,127
5609,note_on,1,0,0,,3,,,39,127
5609,note_on,0,0,0,,3,,,51,127
5609,note_on,0,0,0,,8,,,68,127
5609,note_on,0,0,0,,11,,,70,127
5745,note_off,136,0,0,,11,,,70,127
5745,note_off,0,0,0,,8,,,68,127
5746,note_on,1,0,0,,7,,,67,127
5882,note_off,136,0,0,,7,,,67,127
5883,note_on,1,0,0,,11,,,70,127
6019,note_off,136,0,0,,11,,,70,127
6020,note_on,1,0,0,,1,,,61,127
6156,note_off,136,0,0,,1,,,61,127
6156,note_off,0,0,0,,3,,,51,127
6156,note_off,0,0,0,,3,,,39,127
6157,note_on,1,0,0,,8,,,44,127
6157,note_on,0,0,0,,8,,,56,127
6157,note_on,0,0,0,,3,,,63,127
6157,note_on,0,0,0,,1,,,61,127
6293,note_off,136,0,0,,1,,,61,127
6293,note_off,0,0,0,,3,,,63,127
6294,note_on,1,0,0,,0,,,60,127
6430,note_off,136,0,0,,0,,,60,127
6431,note_on,1,0,0,,12,,,71,127
6567,note_off,136,0,0,,12,,,71,127
6568,note_on,1,0,0,,0,,,72,127
6704,note_off,136,0,0,,8,,,56,127
6704,note_off,0,0,0,,8,,,44,127
6705,note_on,1,0,0,,8,,,44,127
6705,note_on,0,0,0,,8,,,56,127
6841,note_off,136,0,0,,0,,,72,127
6980,note_on,139,0,0,,0,,,60,127
7071,note_off,91,0,0,,0,,,60,127
7071,note_on,0,0,0,,2,,,62,127
7162,note_off,91,0,0,,2,,,62,127
7162,note_on,0,0,0,,3,,,63,127
7252,note_off,90,0,0,,8,,,56,127
7252,note_off,0,0,0,,8,,,44,127
7253,note_off,1,0,0,,3,,,63,127
7253,note_on,0,0,0,,8,,,44,127
7253,note_on,0,0,0,,8,,,56,127
7253,note_on,0,0,0,,5,,,65,127
7389,note_off,136,0,0,,5,,,65,127
7390,note_on,1,0,0,,7,,,67,127
7526,note_off,136,0,0,,7,,,67,127
7527,note_on,1,0,0,,8,,,68,127
7663,note_off,136,0,0,,8,,,68,127
7664,note_on,1,0,0,,10,,,69,127
7800,note_off,136,0,0,,10,,,69,127
7800,note_off,0,0,0,,8,,,56,127
7800,note_off,0,0,0,,8,,,44,127
7801,note_on,1,0,0,,8,,,44,127
7801,note_on,0,0,0,,8,,,56,127
7801,note_on,0,0,0,,11,,,70,127
7937,note_off,136,0,0,,11,,,70,127
7938,note_on,1,0,0,,12,,,71,127
8074,note_off,136,0,0,,12,,,71,127
8075,note_on,1,0,0,,0,,,72,127
8211,note_off,136,0,0,,0,,,72,127
8212,note_on,1,0,0,,2,,,74,127
8348,note_off,136,0,0,,2,,,74,127
8348,note_off,0,0,0,,8,,,56,127
8348,note_off,0,0,0,,8,,,44,127
8349,note_on,1,0,0,,7,,,55,127
8349,note_on,0,0,0,,7,,,43,127
8349,note_on,0,0,0,,3,,,75,127
8485,note_off,136,0,0,,3,,,75,127
8486,note_on,1,0,0,,7,,,79,127
8622,note_off,136,0,0,,7,,,79,127
8623,note_on,1,0,0,,3,,,75,127
8759,note_off,136,0,0,,3,,,75,127
8760,note_on,1,0,0,,11,,,70,127
8896,note_off,136,0,0,,11,,,70,127
8896,note_off,0,0,0,,7,,,43,127
8896,note_off,0,0,0,,7,,,55,127
8897,note_on,1,0,0,,8,,,44,127
8897,note_on,0,0,0,,8,,,56,127
8897,note_on,0,0,0,,0,,,72,127
9034,note_on,137,0,0,,3,,,75,127
9103,note_off,69,0,0,,0,,,72,127
9170,note_off,67,0,0,,3,,,75,127
9171,note_on,1,0,0,,8,,,68,127
9307,note_off,136,0,0,,8,,,68,127
9308,note_on,1,0,0,,5,,,65,127
9444,note_off,136,0,0,,8,,,56,127
9444,note_off,0,0,0,,8,,,44,127
9445,note_on,1,0,0,,11,,,46,127
9445,note_on,0,0,0,,11,,,58,127
9514,note_off,69,0,0,,5,,,65,127
9583,note_on,69,0,0,,5,,,65,127
9719,note_off,136,0,0,,5,,,65,127
9720,note_on,1,0,0,,3,,,63,127
9856,note_off,136,0,0,,3,,,63,127
9857,note_on,1,0,0,,2,,,62,127
9993,note_off,136,0,0,,11,,,58,127
9993,note_off,0,0,0,,11,,,46,127
9994,note_on,1,0,0,,3,,,39,127
9994,note_on,0,0,0,,3,,,51,127
10268,note_off,274,0,0,,2,,,62,127
10268,note_on,0,0,0,,5,,,65,127
10335,note_off,67,0,0,,5,,,65,127
10336,note_on,1,0,0,,3,,,63,127
10403,note_off,67,0,0,,3,,,63,127
10404,note_on,1,0,0,,2,,,62,127
10540,note_off,136,0,0,,2,,,62,127
10541,note_on,1,0,0,,2,,,62,127
11088,note_off,547,0,0,,2,,,62,127
11089,note_on,1,0,0,,3,,,63,127
11500,note_off,411,0,0,,3,,,63,127
11636,note_off,136,0,0,,3,,,51,127
11636,note_off,0,0,0,,3,,,39,127
11637,note_on,1,0,0,,3,,,63,127
11637,note_on,0,0,0,,11,,,70,127
11637,note_on,0,0,0,,7,,,67,127
11773,note_off,136,0,0,,7,,,67,127
11773,note_off,0,0,0,,11,,,70,127
11774,note_on,1,0,0,,8,,,68,127
11774,note_on,0,0,0,,0,,,72,127
11910,note_off,136,0,0,,0,,,72,127
11910,note_off,0,0,0,,8,,,68,127
11911,note_on,1,0,0,,7,,,67,127
11911,note_on,0,0,0,,11,,,70,127
12184,note_off,273,0,0,,3,,,63,127
12185,note_on,1,0,0,,3,,,63,127
12321,note_off,136,0,0,,11,,,70,127
12321,note_off,0,0,0,,7,,,67,127
12322,note_on,1,0,0,,3,,,75,127
12458,note_off,136,0,0,,3,,,75,127
12459,note_on,1,0,0,,11,,,70,127
12595,note_off,136,0,0,,11,,,70,127
12596,note_on,1,0,0,,7,,,79,127
12732,note_off,136,0,0,,7,,,79,127
12732,note_off,0,0,0,,3,,,63,127
12733,note_on,1,0,0,,11,,,58,127
12733,note_on,0,0,0,,5,,,65,127
12733,note_on,0,0,0,,5,,,77,127
12870,note_on,137,0,0,,7,,,67,127
13004,note_off,134,0,0,,5,,,77,127
13005,note_off,1,0,0,,7,,,67,127
13006,note_on,1,0,0,,8,,,68,127
13142,note_off,136,0,0,,8,,,68,127
13142,note_off,0,0,0,,5,,,65,127
13143,note_on,1,0,0,,5,,,65,127
13279,note_off,136,0,0,,5,,,65,127
13279,note_off,0,0,0,,11,,,58,127
13280,note_on,1,0,0,,3,,,63,127
13280,note_on,0,0,0,,11,,,70,127
13280,note_on,0,0,0,,7,,,67,127
13416,note_off,136,0,0,,7,,,67,127
13416,note_off,0,0,0,,11,,,70,127
13417,note_on,1,0,0,,8,,,68,127
13417,note_on,0,0,0,,0,,,72,127
13553,note_off,136,0,0,,0,,,72,127
13553,note_off,0,0,0,,8,,,68,127
13554,note_on,1,0,0,,11,,,70,127
13554,note_on,0,0,0,,7,,,67,127
13827,note_off,273,0,0,,3,,,63,127
13828,note_on,1,0,0,,3,,,63,127
13964,note_off,136,0,0,,7,,,67,127
13964,note_off,0,0,0,,11,,,70,127
13965,note_on,1,0,0,,3,,,75,127
14101,note_off,136,0,0,,3,,,75,127
14102,note_on,1,0,0,,11,,,70,127
14238,note_off,136,0,0,,11,,,70,127
14239,note_on,1,0,0,,7,,,79,127
14375,note_off,136,0,0,,7,,,79,127
14375,note_off,0,0,0,,3,,,63,127
14376,note_on,1,0,0,,11,,,58,127
14376,note_on,0,0,0,,5,,,65,127
14376,note_on,0,0,0,,5,,,77,127
14513,note_on,137,0,0,,7,,,67,127
14649,note_off,136,0,0,,7,,,67,127
14650,note_on,1,0,0,,8,,,68,127
14786,note_off,136,0,0,,8,,,68,127
14786,note_off,0,0,0,,5,,,65,127
14787,note_off,1,0,0,,5,,,77,127
14787,note_on,0,0,0,,5,,,65,127
14923,note_off,136,0,0,,5,,,65,127
14923,note_off,0,0,0,,11,,,58,127
14924,note_on,1,0,0,,3,,,63,127
14924,note_on,0,0,0,,7,,,67,127
14924,note_on,0,0,0,,11,,,70,127
15060,note_off,136,0,0,,11,,,70,127
15061,note_on,1,0,0,,0,,,72,127
15197,note_off,136,0,0,,0,,,72,127
15198,note_on,1,0,0,,11,,,70,127
15471,note_off,273,0,0,,7,,,67,127
15471,note_off,0,0,0,,3,,,63,127
15472,note_on,1,0,0,,3,,,63,127
15472,note_on,0,0,0,,7,,,67,127
15608,note_off,136,0,0,,11,,,70,127
15609,note_on,1,0,0,,3,,,75,127
15745,note_off,136,0,0,,3,,,75,127
15746,note_on,1,0,0,,11,,,70,127
15882,note_off,136,0,0,,11,,,70,127
15882,note_off,0,0,0,,7,,,67,127
15883,note_on,1,0,0,,7,,,67,127
16019,note_off,136,0,0,,7,,,67,127
16019,note_off,0,0,0,,3,,,63,127
16020,note_on,1,0,0,,3,,,63,127
16020,note_on,0,0,0,,0,,,60,127
16020,note_on,0,0,0,,10,,,69,127
16157,note_on,137,0,0,,10,,,81,127
16293,note_off,136,0,0,,10,,,81,127
16293,note_off,0,0,0,,10,,,69,127
16294,note_on,1,0,0,,3,,,75,127
16430,note_off,136,0,0,,3,,,75,127
16431,note_on,1,0,0,,0,,,72,127
16567,note_off,136,0,0,,0,,,72,127
16567,note_off,0,0,0,,0,,,60,127
16567,note_off,0,0,0,,3,,,63,127
16568,note_on,1,0,0,,2,,,62,127
16568,note_on,0,0,0,,5,,,65,127
16568,note_on,0,0,0,,4,,,76,127
16704,note_off,136,0,0,,4,,,76,127
16705,note_on,1,0,0,,5,,,77,127
16841,note_off,136,0,0,,5,,,77,127
16842,note_on,1,0,0,,3,,,75,127
16978,note_off,136,0,0,,3,,,75,127
16979,note_on,1,0,0,,2,,,74,127
17115,note_off,136,0,0,,2,,,74,127
17115,note_off,0,0,0,,5,,,65,127
17115,note_off,0,0,0,,2,,,62,127
17116,note_on,1,0,0,,3,,,63,127
17116,note_on,0,0,0,,7,,,67,127
17116,note_on,0,0,0,,6,,,78,127
17252,note_off,136,0,0,,6,,,78,127
17253,note_on,1,0,0,,7,,,79,127
17389,note_off,136,0,0,,7,,,79,127
17390,note_on,1,0,0,,10,,,69,127
17526,note_off,136,0,0,,10,,,69,127
17527,note_on,1,0,0,,11,,,70,127
17663,note_off,136,0,0,,11,,,70,127
17663,note_off,0,0,0,,7,,,67,127
17663,note_off,0,0,0,,3,,,63,127
17664,note_on,1,0,0,,4,,,64,127
17664,note_on,0,0,0,,7,,,67,127
17664,note_on,0,0,0,,10,,,81,127
17800,note_off,136,0,0,,10,,,81,127
17801,note_on,1,0,0,,11,,,82,127
17937,note_off,136,0,0,,11,,,82,127
17938,note_on,1,0,0,,10,,,69,127
18074,note_off,136,0,0,,10,,,69,127
18075,note_on,1,0,0,,11,,,70,127
18211,note_off,136,0,0,,11,,,70,127
18211,note_off,0,0,0,,7,,,67,127
18211,note_off,0,0,0,,4,,,64,127
18212,note_on,1,0,0,,5,,,65,127
18212,note_on,0,0,0,,0,,,72,127
18279,note_off,67,0,0,,0,,,72,127
18280,note_on,1,0,0,,11,,,70,127
18347,note_off,67,0,0,,11,,,70,127
18348,note_on,1,0,0,,0,,,72,127
18415,note_off,67,0,0,,0,,,72,127
18416,note_on,1,0,0,,11,,,70,127
18483,note_off,67,0,0,,11,,,70,127
18484,note_on,1,0,0,,0,,,72,127
18551,note_off,67,0,0,,0,,,72,127
18552,note_on,1,0,0,,11,,,70,127
18619,note_off,67,0,0,,11,,,70,127
18620,note_on,1,0,0,,10,,,69,127
18687,note_off,67,0,0,,10,,,69,127
18688,note_on,1,0,0,,11,,,70,127
18755,note_off,67,0,0,,11,,,70,127
18755,note_off,0,0,0,,5,,,65,127
18756,note_on,1,0,0,,5,,,53,127
18756,note_on,0,0,0,,11,,,70,127
19305,note_on,549,0,0,,5,,,41,127
19371,note_off,66,0,0,,11,,,70,127
19374,note_on,3,0,0,,10,,,69,127
19441,note_off,67,0,0,,10,,,69,127
19442,note_on,1,0,0,,11,,,70,127
19509,note_off,67,0,0,,11,,,70,127
19510,note_on,1,0,0,,10,,,69,127
19577,note_off,67,0,0,,10,,,69,127
19578,note_on,1,0,0,,11,,,70,127
19645,note_off,67,0,0,,11,,,70,127
19646,note_on,1,0,0,,10,,,69,127
19782,note_off,136,0,0,,10,,,69,127
19851,note_off,69,0,0,,5,,,41,127
19851,note_off,0,0,0,,5,,,53,127
19852,note_on,1,0,0,,5,,,65,127
19852,note_on,0,0,0,,0,,,72,127
19896,note_off,44,0,0,,0,,,72,127
19897,note_on,1,0,0,,11,,,70,127
19941,note_off,44,0,0,,11,,,70,127
19942,note_on,1,0,0,,10,,,69,127
20125,note_on,183,0,0,,5,,,53,127
20261,note_off,136,0,0,,10,,,69,127
20262,note_on,1,0,0,,11,,,70,127
20398,note_off,136,0,0,,11,,,70,127
20398,note_off,0,0,0,,5,,,65,127
20399,note_on,1,0,0,,5,,,65,127
20399,note_on,0,0,0,,0,,,72,127
20443,note_off,44,0,0,,0,,,72,127
20444,note_on,1,0,0,,11,,,70,127
20488,note_off,44,0,0,,11,,,70,127
20489,note_on,1,0,0,,10,,,69,127
20535,note_off,46,0,0,,5,,,53,127
20672,note_on,137,0,0,,5,,,53,127
20808,note_off,136,0,0,,10,,,69,127
20809,note_on,1,0,0,,11,,,70,127
20945,note_off,136,0,0,,11,,,70,127
20945,note_off,0,0,0,,5,,,65,127
20946,note_on,1,0,0,,5,,,65,127
20946,note_on,0,0,0,,0,,,72,127
20946,note_on,0,0,0,,10,,,69,127
21082,note_off,136,0,0,,10,,,69,127
21082,note_off,0,0,0,,0,,,72,127
21083,note_off,1,0,0,,5,,,53,127
21083,note_on,0,0,0,,1,,,73,127
21083,note_on,0,0,0,,11,,,70,127
21219,note_off,136,0,0,,11,,,70,127
21219,note_off,0,0,0,,1,,,73,127
21220,note_on,1,0,0,,5,,,53,127
21220,note_on,0,0,0,,0,,,72,127
21220,note_on,0,0,0,,3,,,75,127
21356,note_off,136,0,0,,3,,,75,127
21356,note_off,0,0,0,,0,,,72,127
21357,note_on,1,0,0,,1,,,73,127
21357,note_on,0,0,0,,11,,,70,127
21493,note_off,136,0,0,,11,,,70,127
21493,note_off,0,0,0,,1,,,73,127
21493,note_off,0,0,0,,5,,,53,127
21493,note_off,0,0,0,,5,,,65,127
21494,note_on,1,0,0,,6,,,66,127
21494,note_on,0,0,0,,3,,,63,127
21494,note_on,0,0,0,,0,,,72,127
21538,note_off,44,0,0,,0,,,72,127
21539,note_on,1,0,0,,11,,,70,127
21583,note_off,44,0,0,,11,,,70,127
21584,note_on,1,0,0,,10,,,69,127
21765,note_off,181,0,0,,6,,,66,127
21766,note_on,1,0,0,,3,,,51,127
21902,note_off,136,0,0,,10,,,69,127
21903,note_on,1,0,0,,11,,,70,127
22039,note_off,136,0,0,,11,,,70,127
22039,note_off,0,0,0,,3,,,63,127
22040,note_on,1,0,0,,6,,,66,127
22040,note_on,0,0,0,,3,,,63,127
22040,note_on,0,0,0,,0,,,72,127
22084,note_off,44,0,0,,0,,,72,127
22085,note_on,1,0,0,,11,,,70,127
22129,note_off,44,0,0,,11,,,70,127
22130,note_on,1,0,0,,10,,,69,127
22176,note_off,46,0,0,,3,,,51,127
22312,note_off,136,0,0,,6,,,66,127
22313,note_on,1,0,0,,3,,,51,127
22449,note_off,136,0,0,,10,,,69,127
22450,note_on,1,0,0,,11,,,70,127
22586,note_off,136,0,0,,11,,,70,127
22586,note_off,0,0,0,,3,,,63,127
22587,note_on,1,0,0,,6,,,66,127
22587,note_on,0,0,0,,3,,,63,127
22587,note_on,0,0,0,,0,,,72,127
22587,note_on,0,0,0,,10,,,69,127
22723,note_off,136,0,0,,10,,,69,127
22723,note_off,0,0,0,,0,,,72,127
22724,note_off,1,0,0,,3,,,51,127
22724,note_on,0,0,0,,11,,,70,127
22724,note_on,0,0,0,,1,,,73,127
22860,note_off,136,0,0,,1,,,73,127
22860,note_off,0,0,0,,11,,,70,127
22860,note_off,0,0,0,,6,,,66,127
22861,note_on,1,0,0,,3,,,51,127
22861,note_on,0,0,0,,3,,,75,127
22861,note_on,0,0,0,,0,,,72,127
22997,note_off,136,0,0,,0,,,72,127
22997,note_off,0,0,0,,3,,,75,127
22998,note_on,1,0,0,,1,,,73,127
22998,note_on,0,0,0,,11,,,70,127
23134,note_off,136,0,0,,11,,,70,127
23134,note_off,0,0,0,,1,,,73,127
23134,note_off,0,0,0,,3,,,51,127
23134,note_off,0,0,0,,3,,,63,127
23135,note_on,1,0,0,,5,,,65,127
23135,note_on,0,0,0,,0,,,72,127
23202,note_off,67,0,0,,0,,,72,127
23203,note_on,1,0,0,,11,,,70,127
23270,note_off,67,0,0,,11,,,70,127
23271,note_on,1,0,0,,10,,,69,127
23408,note_on,137,0,0,,5,,,53,127
23544,note_off,136,0,0,,10,,,69,127
23545,note_on,1,0,0,,11,,,70,127
23681,note_off,136,0,0,,11,,,70,127
23681,note_off,0,0,0,,5,,,65,127
23682,note_on,1,0,0,,5,,,65,127
23682,note_on,0,0,0,,0,,,72,127
23818,note_off,136,0,0,,0,,,72,127
23819,note_off,1,0,0,,5,,,53,127
23819,note_on,0,0,0,,11,,,70,127
23886,note_off,67,0,0,,11,,,70,127
23887,note_on,1,0,0,,10,,,69,127
23954,note_off,67,0,0,,10,,,69,127
23954,note_off,0,0,0,,5,,,65,127
23955,note_on,1,0,0,,3,,,63,127
23955,note_on,0,0,0,,11,,,70,127
24091,note_off,136,0,0,,11,,,70,127
24092,note_on,1,0,0,,0,,,72,127
24228,note_off,136,0,0,,0,,,72,127
24228,note_off,0,0,0,,3,,,63,127
24229,note_on,1,0,0,,1,,,61,127
24229,note_on,0,0,0,,1,,,73,127
24365,note_off,136,0,0,,1,,,73,127
24366,note_on,1,0,0,,2,,,74,127
24502,note_off,136,0,0,,2,,,74,127
24502,note_off,0,0,0,,1,,,61,127
24503,note_on,1,0,0,,0,,,60,127
24503,note_on,0,0,0,,3,,,75,127
24639,note_off,136,0,0,,3,,,75,127
24640,note_on,1,0,0,,4,,,76,127
24776,note_off,136,0,0,,4,,,76,127
24776,note_off,0,0,0,,0,,,60,127
24777,note_on,1,0,0,,1,,,61,127
24777,note_on,0,0,0,,5,,,77,127
24913,note_off,136,0,0,,5,,,77,127
24914,note_on,1,0,0,,6,,,78,127
25050,note_off,136,0,0,,6,,,78,127
25050,note_off,0,0,0,,1,,,61,127
25051,note_on,1,0,0,,3,,,63,127
25051,note_on,0,0,0,,10,,,81,127
25187,note_off,136,0,0,,10,,,81,127
25188,note_on,1,0,0,,11,,,82,127
25324,note_off,136,0,0,,3,,,63,127
25325,note_on,1,0,0,,5,,,65,127
25394,note_off,69,0,0,,11,,,82,127
25463,note_on,69,0,0,,0,,,72,127
25599,note_off,136,0,0,,0,,,72,127
25600,note_on,1,0,0,,1,,,73,127
25736,note_off,136,0,0,,1,,,73,127
25737,note_on,1,0,0,,4,,,76,127
25873,note_off,136,0,0,,5,,,65,127
25874,note_on,1,0,0,,5,,,53,127
26010,note_off,136,0,0,,4,,,76,127
26011,note_on,1,0,0,,5,,,77,127
26147,note_off,136,0,0,,5,,,77,127
26148,note_on,1,0,0,,11,,,70,127
26284,note_off,136,0,0,,11,,,70,127
26285,note_on,1,0,0,,10,,,69,127
26421,note_off,136,0,0,,10,,,69,127
26421,note_off,0,0,0,,5,,,53,127
26422,note_on,1,0,0,,11,,,46,127
26422,note_on,0,0,0,,11,,,70,127
26559,note_on,137,0,0,,5,,,77,127
26695,note_off,136,0,0,,5,,,77,127
26695,note_off,0,0,0,,11,,,70,127
26696,note_on,1,0,0,,1,,,73,127
26832,note_off,136,0,0,,1,,,73,127
26833,note_on,1,0,0,,11,,,70,127
26969,note_off,136,0,0,,11,,,70,127
26970,note_on,1,0,0,,5,,,65,127
27106,note_off,136,0,0,,5,,,65,127
27107,note_on,1,0,0,,1,,,61,127
27243,note_off,136,0,0,,1,,,61,127
27244,note_on,1,0,0,,11,,,58,127
27380,note_off,136,0,0,,11,,,58,127
27380,note_off,0,0,0,,11,,,46,127
27381,note_on,1,0,0,,7,,,55,127
27517,note_off,136,0,0,,7,,,55,127
27518,note_on,1,0,0,,4,,,52,127
27654,note_off,136,0,0,,4,,,52,127
27655,note_on,1,0,0,,0,,,48,127
27791,note_off,136,0,0,,0,,,48,127
27792,note_on,1,0,0,,11,,,46,127
27928,note_off,136,0,0,,11,,,46,127
27929,note_on,1,0,0,,7,,,43,127
28065,note_off,136,0,0,,7,,,43,127
28066,note_on,1,0,0,,5,,,41,127
28066,note_on,0,0,0,,0,,,72,127
28110,note_off,44,0,0,,0,,,72,127
28111,note_on,1,0,0,,11,,,70,127
28155,note_off,44,0,0,,11,,,70,127
28156,note_on,1,0,0,,10,,,69,127
28337,note_off,181,0,0,,5,,,41,127
28338,note_on,1,0,0,,5,,,41,127
28474,note_off,136,0,0,,10,,,69,127
28475,note_on,1,0,0,,11,,,70,127
28611,note_off,136,0,0,,11,,,70,127
28611,note_off,0,0,0,,5,,,41,127
28612,note_on,1,0,0,,5,,,65,127
28612,note_on,0,0,0,,0,,,72,127
28656,note_off,44,0,0,,0,,,72,127
28657,note_on,1,0,0,,11,,,70,127
28701,note_off,44,0,0,,11,,,70,127
28702,note_on,1,0,0,,10,,,69,127
28885,note_on,183,0,0,,5,,,53,127
29021,note_off,136,0,0,,10,,,69,127
29022,note_on,1,0,0,,11,,,70,127
29158,note_off,136,0,0,,11,,,70,127
29158,note_off,0,0,0,,5,,,65,127
29159,note_on,1,0,0,,5,,,65,127
29159,note_on,0,0,0,,0,,,72,127
29159,note_on,0,0,0,,10,,,69,127
29295,note_off,136,0,0,,10,,,69,127
29295,note_off,0,0,0,,0,,,72,127
29296,note_off,1,0,0,,5,,,53,127
29296,note_on,0,0,0,,11,,,70,127
29296,note_on,0,0,0,,1,,,73,127
29432,note_off,136,0,0,,1,,,73,127
29432,note_off,0,0,0,,11,,,70,127
29433,note_on,1,0,0,,5,,,53,127
29433,note_on,0,0,0,,3,,,75,127
29433,note_on,0,0,0,,0,,,72,127
29569,note_off,136,0,0,,0,,,72,127
29569,note_off,0,0,0,,3,,,75,127
29570,note_on,1,0,0,,1,,,73,127
29570,note_on,0,0,0,,11,,,70,127
29706,note_off,136,0,0,,11,,,70,127
29706,note_off,0,0,0,,1,,,73,127
29706,note_off,0,0,0,,5,,,53,127
29706,note_off,0,0,0,,5,,,65,127
29707,note_on,1,0,0,,6,,,66,127
29707,note_on,0,0,0,,3,,,63,127
29707,note_on,0,0,0,,0,,,72,127
29751,note_off,44,0,0,,0,,,72,127
29752,note_on,1,0,0,,11,,,70,127
29796,note_off,44,0,0,,11,,,70,127
29797,note_on,1,0,0,,10,,,69,127
29978,note_off,181,0,0,,6,,,66,127
29979,note_on,1,0,0,,3,,,51,127
30115,note_off,136,0,0,,10,,,69,127
30116,note_on,1,0,0,,11,,,70,127
30252,note_off,136,0,0,,11,,,70,127
30252,note_off,0,0,0,,3,,,63,127
30253,note_on,1,0,0,,3,,,63,127
30253,note_on,0,0,0,,6,,,66,127
30253,note_on,0,0,0,,0,,,72,127
30297,note_off,44,0,0,,0,,,72,127
30298,note_on,1,0,0,,11,,,70,127
30342,note_off,44,0,0,,11,,,70,127
30343,note_on,1,0,0,,10,,,69,127
30389,note_off,46,0,0,,3,,,51,127
30525,note_off,136,0,0,,6,,,66,127
30526,note_on,1,0,0,,3,,,51,127
30662,note_off,136,0,0,,10,,,69,127
30663,note_on,1,0,0,,11,,,70,127
30799,note_off,136,0,0,,11,,,70,127
30799,note_off,0,0,0,,3,,,63,127
30800,note_on,1,0,0,,6,,,66,127
30800,note_on,0,0,0,,3,,,63,127
30800,note_on,0,0,0,,10,,,69,127
30800,note_on,0,0,0,,0,,,72,127
30936,note_off,136,0,0,,0,,,72,127
30936,note_off,0,0,0,,10,,,69,127
30937,note_off,1,0,0,,3,,,51,127
30937,note_on,0,0,0,,1,,,73,127
30937,note_on,0,0,0,,11,,,70,127
31073,note_off,136,0,0,,11,,,70,127
31073,note_off,0,0,0,,1,,,73,127
31073,note_off,0,0,0,,6,,,66,127
31074,note_on,1,0,0,,3,,,51,127
31074,note_on,0,0,0,,3,,,75,127
31074,note_on,0,0,0,,0,,,72,127
31210,note_off,136,0,0,,0,,,72,127
31210,note_off,0,0,0,,3,,,75,127
31211,note_on,1,0,0,,11,,,70,127
31211,note_on,0,0,0,,1,,,73,127
31347,note_off,136,0,0,,1,,,73,127
31347,note_off,0,0,0,,11,,,70,127
31347,note_off,0,0,0,,3,,,51,127
31347,note_off,0,0,0,,3,,,63,127
31348,note_on,1,0,0,,5,,,65,127
31348,note_on,0,0,0,,0,,,72,127
31415,note_off,67,0,0,,0,,,72,127
31416,note_on,1,0,0,,11,,,70,127
31483,note_off,67,0,0,,11,,,70,127
31484,note_on,1,0,0,,10,,,69,127
31621,note_on,137,0,0,,5,,,53,127
31757,note_off,136,0,0,,10,,,69,127
31758,note_on,1,0,0,,11,,,70,127
31894,note_off,136,0,0,,11,,,70,127
31894,note_off,0,0,0,,5,,,65,127
31895,note_on,1,0,0,,5,,,65,127
31895,note_on,0,0,0,,0,,,72,127
32031,note_off,136,0,0,,0,,,72,127
32032,note_off,1,0,0,,5,,,53,127
32032,note_on,0,0,0,,11,,,70,127
32099,note_off,67,0,0,,11,,,70,127
32100,note_on,1,0,0,,10,,,69,127
32167,note_off,67,0,0,,10,,,69,127
32167,note_off,0,0,0,,5,,,65,127
32168,note_on,1,0,0,,3,,,63,127
32168,note_on,0,0,0,,11,,,70,127
32304,note_off,136,0,0,,11,,,70,127
32305,note_on,1,0,0,,0,,,72,127
32441,note_off,136,0,0,,0,,,72,127
32441,note_off,0,0,0,,3,,,63,127
32442,note_on,1,0,0,,1,,,61,127
32442,note_on,0,0,0,,1,,,73,127
32578,note_off,136,0,0,,1,,,73,127
32579,note_on,1,0,0,,2,,,74,127
32715,note_off,136,0,0,,2,,,74,127
32715,note_off,0,0,0,,1,,,61,127
32716,note_on,1,0,0,,0,,,60,127
32716,note_on,0,0,0,,3,,,75,127
32852,note_off,136,0,0,,3,,,75,127
32853,note_on,1,0,0,,4,,,76,127
32989,note_off,136,0,0,,4,,,76,127
32989,note_off,0,0,0,,0,,,60,127
32990,note_on,1,0,0,,1,,,61,127
32990,note_on,0,0,0,,5,,,77,127
33126,note_off,136,0,0,,5,,,77,127
33127,note_on,1,0,0,,6,,,78,127
33263,note_off,136,0,0,,6,,,78,127
33263,note_off,0,0,0,,1,,,61,127
33264,note_on,1,0,0,,3,,,63,127
33264,note_on,0,0,0,,10,,,81,127
33400,note_off,136,0,0,,10,,,81,127
33401,note_on,1,0,0,,11,,,82,127
33537,note_off,136,0,0,,3,,,63,127
33538,note_on,1,0,0,,5,,,65,127
33607,note_off,69,0,0,,11,,,82,127
33676,note_on,69,0,0,,0,,,72,127
33812,note_off,136,0,0,,0,,,72,127
33813,note_on,1,0,0,,1,,,73,127
33949,note_off,136,0,0,,1,,,73,127
33950,note_on,1,0,0,,4,,,76,127
34087,note_on,137,0,0,,5,,,53,127
34221,note_off,134,0,0,,4,,,76,127
34224,note_on,3,0,0,,5,,,77,127
34360,note_off,136,0,0,,5,,,77,127
34361,note_on,1,0,0,,11,,,70,127
34497,note_off,136,0,0,,11,,,70,127
34498,note_on,1,0,0,,10,,,69,127
34601,note_off,103,0,0,,10,,,69,127
34634,note_off,33,0,0,,5,,,53,127
34634,note_off,0,0,0,,5,,,65,127
34635,note_on,1,0,0,,11,,,46,127
34635,note_on,0,0,0,,11,,,58,127
34772,note_on,137,0,0,,11,,,70,127
34906,note_off,134,0,0,,11,,,58,127
34909,note_on,3,0,0,,0,,,60,127
35043,note_off,134,0,0,,11,,,70,127
35046,note_on,3,0,0,,10,,,69,127
35180,note_off,134,0,0,,0,,,60,127
35183,note_on,3,0,0,,2,,,62,127
35317,note_off,134,0,0,,10,,,69,127
35320,note_on,3,0,0,,11,,,70,127
35454,note_off,134,0,0,,2,,,62,127
35457,note_on,3,0,0,,3,,,63,127
35591,note_off,134,0,0,,11,,,70,127
35594,note_on,3,0,0,,0,,,72,127
35728,note_off,134,0,0,,3,,,63,127
35731,note_on,3,0,0,,5,,,65,127
35865,note_off,134,0,0,,0,,,72,127
35868,note_on,3,0,0,,2,,,74,127
36004,note_off,136,0,0,,2,,,74,127
36005,note_on,1,0,0,,3,,,75,127
36139,note_off,134,0,0,,5,,,65,127
36142,note_on,3,0,0,,7,,,67,127
36209,note_off,67,0,0,,7,,,67,127
36210,note_on,1,0,0,,10,,,69,127
36276,note_off,66,0,0,,3,,,75,127
36277,note_off,1,0,0,,10,,,69,127
36277,note_off,0,0,0,,11,,,46,127
36278,note_on,1,0,0,,11,,,46,127
36278,note_on,0,0,0,,2,,,74,127
36278,note_on,0,0,0,,11,,,70,127
36414,note_off,136,0,0,,11,,,70,127
36415,note_on,1,0,0,,2,,,62,127
36551,note_off,136,0,0,,2,,,62,127
36552,note_on,1,0,0,,3,,,63,127
36686,note_off,134,0,0,,2,,,74,127
36689,note_on,3,0,0,,0,,,72,127
36823,note_off,134,0,0,,3,,,63,127
36826,note_on,3,0,0,,5,,,65,127
36960,note_off,134,0,0,,0,,,72,127
36963,note_on,3,0,0,,2,,,74,127
37097,note_off,134,0,0,,5,,,65,127
37100,note_on,3,0,0,,7,,,67,127
37234,note_off,134,0,0,,2,,,74,127
37237,note_on,3,0,0,,3,,,75,127
37371,note_off,134,0,0,,7,,,67,127
37374,note_on,3,0,0,,10,,,69,127
37508,note_off,134,0,0,,3,,,75,127
37511,note_on,3,0,0,,7,,,79,127
37645,note_off,134,0,0,,10,,,69,127
37648,note_on,3,0,0,,11,,,70,127
37782,note_off,134,0,0,,7,,,79,127
37785,note_on,3,0,0,,5,,,77,127
37852,note_off,67,0,0,,5,,,77,127
37853,note_off,1,0,0,,11,,,70,127
37853,note_on,0,0,0,,3,,,75,127
37920,note_off,67,0,0,,3,,,75,127
37920,note_off,0,0,0,,11,,,46,127
37921,note_on,1,0,0,,11,,,58,127
37921,note_on,0,0,0,,2,,,74,127
38057,note_off,136,0,0,,2,,,74,127
38058,note_on,1,0,0,,3,,,75,127
38125,note_off,67,0,0,,3,,,75,127
38126,note_on,1,0,0,,5,,,77,127
38193,note_off,67,0,0,,5,,,77,127
38193,note_off,0,0,0,,11,,,58,127
38194,note_on,1,0,0,,3,,,63,127
38194,note_on,0,0,0,,3,,,75,127
38330,note_off,136,0,0,,3,,,75,127
38331,note_on,1,0,0,,2,,,74,127
38398,note_off,67,0,0,,2,,,74,127
38399,note_on,1,0,0,,0,,,72,127
38466,note_off,67,0,0,,0,,,72,127
38466,note_off,0,0,0,,3,,,63,127
38467,note_on,1,0,0,,5,,,65,127
38467,note_on,0,0,0,,11,,,70,127
38671,note_off,204,0,0,,11,,,70,127
38672,note_on,1,0,0,,0,,,72,127
38739,note_off,67,0,0,,0,,,72,127
38740,note_on,1,0,0,,11,,,70,127
38807,note_off,67,0,0,,11,,,70,127
38808,note_on,1,0,0,,10,,,69,127
38875,note_off,67,0,0,,10,,,69,127
38876,note_on,1,0,0,,11,,,70,127
38943,note_off,67,0,0,,11,,,70,127
38944,note_on,1,0,0,,0,,,72,127
39011,note_off,67,0,0,,0,,,72,127
39011,note_off,0,0,0,,5,,,65,127
39012,note_on,1,0,0,,5,,,53,127
39012,note_on,0,0,0,,2,,,74,127
39079,note_off,67,0,0,,2,,,74,127
39080,note_on,1,0,0,,0,,,72,127
39147,note_off,67,0,0,,0,,,72,127
39148,note_on,1,0,0,,2,,,74,127
39215,note_off,67,0,0,,2,,,74,127
39216,note_on,1,0,0,,0,,,72,127
39283,note_off,67,0,0,,0,,,72,127
39284,note_on,1,0,0,,2,,,74,127
39351,note_off,67,0,0,,2,,,74,127
39352,note_on,1,0,0,,0,,,72,127
39419,note_off,67,0,0,,0,,,72,127
39420,note_on,1,0,0,,11,,,70,127
39487,note_off,67,0,0,,11,,,70,127
39488,note_on,1,0,0,,0,,,72,127
39555,note_off,67,0,0,,0,,,72,127
39555,note_off,0,0,0,,5,,,53,127
39556,note_on,1,0,0,,11,,,46,127
39556,note_on,0,0,0,,11,,,58,127
39693,note_on,137,0,0,,11,,,70,127
39827,note_off,134,0,0,,11,,,58,127
39830,note_on,3,0,0,,0,,,60,127
39964,note_off,134,0,0,,11,,,70,127
39967,note_on,3,0,0,,10,,,69,127
40101,note_off,134,0,0,,0,,,60,127
40104,note_on,3,0,0,,2,,,62,127
40238,note_off,134,0,0,,10,,,69,127
40241,note_on,3,0,0,,11,,,70,127
40375,note_off,134,0,0,,2,,,62,127
40378,note_on,3,0,0,,3,,,63,127
40512,note_off,134,0,0,,11,,,70,127
40515,note_on,3,0,0,,0,,,72,127
40649,note_off,134,0,0,,3,,,63,127
40652,note_on,3,0,0,,5,,,65,127
40786,note_off,134,0,0,,0,,,72,127
40789,note_on,3,0,0,,2,,,74,127
40925,note_off,136,0,0,,2,,,74,127
40926,note_on,1,0,0,,3,,,75,127
41060,note_off,134,0,0,,5,,,65,127
41063,note_on,3,0,0,,7,,,67,127
41130,note_off,67,0,0,,7,,,67,127
41131,note_on,1,0,0,,10,,,69,127
41197,note_off,66,0,0,,3,,,75,127
41198,note_off,1,0,0,,10,,,69,127
41198,note_off,0,0,0,,11,,,46,127
41199,note_on,1,0,0,,11,,,46,127
41199,note_on,0,0,0,,2,,,74,127
41199,note_on,0,0,0,,11,,,70,127
41335,note_off,136,0,0,,11,,,70,127
41336,note_on,1,0,0,,2,,,62,127
41472,note_off,136,0,0,,2,,,62,127
41473,note_on,1,0,0,,3,,,63,127
41607,note_off,134,0,0,,2,,,74,127
41610,note_on,3,0,0,,0,,,72,127
41744,note_off,134,0,0,,3,,,63,127
41747,note_on,3,0,0,,5,,,65,127
41881,note_off,134,0,0,,0,,,72,127
41884,note_on,3,0,0,,2,,,74,127
42018,note_off,134,0,0,,5,,,65,127
42021,note_on,3,0,0,,7,,,67,127
42155,note_off,134,0,0,,2,,,74,127
42158,note_on,3,0,0,,3,,,75,127
42292,note_off,134,0,0,,7,,,67,127
42295,note_on,3,0,0,,10,,,69,127
42429,note_off,134,0,0,,3,,,75,127
42432,note_on,3,0,0,,7,,,79,127
42566,note_off,134,0,0,,10,,,69,127
42569,note_on,3,0,0,,11,,,70,127
42703,note_off,134,0,0,,7,,,79,127
42706,note_on,3,0,0,,5,,,77,127
42773,note_off,67,0,0,,5,,,77,127
42774,note_off,1,0,0,,11,,,70,127
42774,note_on,0,0,0,,3,,,75,127
42841,note_off,67,0,0,,3,,,75,127
42841,note_off,0,0,0,,11,,,46,127
42842,note_on,1,0,0,,11,,,46,127
42842,note_on,0,0,0,,2,,,74,127
42979,note_on,137,0,0,,11,,,82,127
43013,note_off,34,0,0,,2,,,74,127
43114,note_off,101,0,0,,11,,,82,127
43114,note_off,0,0,0,,11,,,46,127
43115,note_on,1,0,0,,3,,,51,127
43115,note_on,0,0,0,,7,,,79,127
43251,note_off,136,0,0,,7,,,79,127
43252,note_on,1,0,0,,3,,,75,127
43388,note_off,136,0,0,,3,,,75,127
43388,note_off,0,0,0,,3,,,51,127
43389,note_on,1,0,0,,5,,,53,127
43389,note_on,0,0,0,,2,,,74,127
43526,note_on,137,0,0,,5,,,77,127
43560,note_off,34,0,0,,2,,,74,127
43661,note_off,101,0,0,,5,,,77,127
43662,note_on,1,0,0,,2,,,74,127
43798,note_off,136,0,0,,2,,,74,127
43799,note_on,1,0,0,,11,,,70,127
43935,note_off,136,0,0,,11,,,70,127
43936,note_on,1,0,0,,5,,,41,127
43936,note_on,0,0,0,,5,,,65,127
44073,note_on,137,0,0,,0,,,72,127
44107,note_off,34,0,0,,5,,,65,127
44210,note_on,103,0,0,,3,,,63,127
44244,note_off,34,0,0,,0,,,72,127
44347,note_on,103,0,0,,10,,,69,127
44381,note_off,34,0,0,,3,,,63,127
44482,note_off,101,0,0,,10,,,69,127
44482,note_off,0,0,0,,5,,,41,127
44482,note_off,0,0,0,,5,,,53,127
44483,note_on,1,0,0,,11,,,46,127
44483,note_on,0,0,0,,11,,,70,127
45304,note_off,821,0,0,,11,,,70,127
45578,note_off,274,0,0,,11,,,46,127
45579,note_on,1,0,0,,11,,,46,127
45579,note_on,0,0,0,,2,,,62,127
45716,note_on,137,0,0,,11,,,70,127
45836,note_off,120,0,0,,2,,,62,127
45853,note_on,17,0,0,,3,,,63,127
45973,note_off,120,0,0,,11,,,70,127
45990,note_on,17,0,0,,0,,,72,127
46110,note_off,120,0,0,,3,,,63,127
46126,note_off,16,0,0,,11,,,46,127
46127,note_on,1,0,0,,11,,,58,127
46127,note_on,0,0,0,,5,,,65,127
46247,note_off,120,0,0,,0,,,72,127
46264,note_on,17,0,0,,2,,,74,127
46384,note_off,120,0,0,,5,,,65,127
46401,note_on,17,0,0,,7,,,67,127
46521,note_off,120,0,0,,2,,,74,127
46538,note_on,17,0,0,,3,,,75,127
46658,note_off,120,0,0,,7,,,67,127
46674,note_off,16,0,0,,11,,,58,127
46675,note_on,1,0,0,,8,,,56,127
46675,note_on,0,0,0,,8,,,68,127
46795,note_off,120,0,0,,3,,,75,127
46812,note_on,17,0,0,,5,,,77,127
46932,note_off,120,0,0,,8,,,68,127
46948,note_off,16,0,0,,8,,,56,127
46949,note_on,1,0,0,,7,,,55,127
46949,note_on,0,0,0,,12,,,71,127
47069,note_off,120,0,0,,5,,,77,127
47086,note_on,17,0,0,,7,,,79,127
47206,note_off,120,0,0,,12,,,71,127
47222,note_off,16,0,0,,7,,,55,127
47223,note_on,1,0,0,,5,,,53,127
47223,note_on,0,0,0,,0,,,60,127
47223,note_on,0,0,0,,0,,,72,127
47343,note_off,120,0,0,,7,,,79,127
47360,note_on,17,0,0,,8,,,80,127
47480,note_off,120,0,0,,0,,,72,127
47497,note_on,17,0,0,,2,,,74,127
47617,note_off,120,0,0,,8,,,80,127
47634,note_on,17,0,0,,12,,,83,127
47754,note_off,120,0,0,,2,,,74,127
47770,note_off,16,0,0,,0,,,60,127
47770,note_off,0,0,0,,5,,,53,127
47771,note_on,1,0,0,,3,,,51,127
47771,note_on,0,0,0,,0,,,60,127
47771,note_on,0,0,0,,3,,,75,127
47891,note_off,120,0,0,,12,,,83,127
47908,note_on,17,0,0,,0,,,84,127
48028,note_off,120,0,0,,3,,,75,127
48044,note_off,16,0,0,,0,,,60,127
48044,note_off,0,0,0,,3,,,51,127
48045,note_on,1,0,0,,2,,,50,127
48045,note_on,0,0,0,,12,,,59,127
48045,note_on,0,0,0,,5,,,77,127
48165,note_off,120,0,0,,0,,,84,127
48182,note_on,17,0,0,,2,,,86,127
48302,note_off,120,0,0,,5,,,77,127
48318,note_off,16,0,0,,2,,,86,127
48318,note_off,0,0,0,,12,,,59,127
48318,note_off,0,0,0,,2,,,50,127
48319,note_on,1,0,0,,0,,,48,127
48319,note_on,0,0,0,,0,,,60,127
48319,note_on,0,0,0,,3,,,87,127
48455,note_off,136,0,0,,3,,,87,127
48456,note_on,1,0,0,,12,,,83,127
48592,note_off,136,0,0,,12,,,83,127
48593,note_on,1,0,0,,0,,,84,127
48729,note_off,136,0,0,,0,,,84,127
48730,note_on,1,0,0,,7,,,79,127
48866,note_off,136,0,0,,7,,,79,127
48866,note_off,0,0,0,,0,,,60,127
48866,note_off,0,0,0,,0,,,48,127
48867,note_on,1,0,0,,5,,,53,127
48867,note_on,0,0,0,,8,,,80,127
49003,note_off,136,0,0,,8,,,80,127
49004,note_on,1,0,0,,4,,,76,127
49140,note_off,136,0,0,,4,,,76,127
49141,note_on,1,0,0,,5,,,77,127
49277,note_off,136,0,0,,5,,,77,127
49278,note_on,1,0,0,,2,,,74,127
49414,note_off,136,0,0,,2,,,74,127
49415,note_on,1,0,0,,5,,,41,127
49415,note_on,0,0,0,,3,,,75,127
49551,note_off,136,0,0,,3,,,75,127
49552,note_on,1,0,0,,12,,,71,127
49688,note_off,136,0,0,,12,,,71,127
49689,note_on,1,0,0,,0,,,72,127
49825,note_off,136,0,0,,0,,,72,127
49826,note_on,1,0,0,,7,,,67,127
49962,note_off,136,0,0,,7,,,67,127
49962,note_off,0,0,0,,5,,,41,127
49962,note_off,0,0,0,,5,,,53,127
49963,note_on,1,0,0,,5,,,53,127
49963,note_on,0,0,0,,8,,,68,127
50099,note_off,136,0,0,,8,,,68,127
50100,note_on,1,0,0,,11,,,70,127
50236,note_off,136,0,0,,11,,,70,127
50237,note_on,1,0,0,,0,,,72,127
50373,note_off,136,0,0,,0,,,72,127
50374,note_on,1,0,0,,5,,,65,127
50510,note_off,136,0,0,,5,,,65,127
50510,note_off,0,0,0,,5,,,53,127
50511,note_on,1,0,0,,7,,,55,127
50511,note_on,0,0,0,,5,,,65,127
50578,note_off,67,0,0,,5,,,65,127
50579,note_on,1,0,0,,3,,,63,127
50646,note_off,67,0,0,,3,,,63,127
50647,note_on,1,0,0,,5,,,65,127
50714,note_off,67,0,0,,5,,,65,127
50715,note_on,1,0,0,,3,,,63,127
50782,note_off,67,0,0,,3,,,63,127
50783,note_on,1,0,0,,5,,,65,127
50850,note_off,67,0,0,,5,,,65,127
50851,note_on,1,0,0,,3,,,63,127
50918,note_off,67,0,0,,3,,,63,127
50919,note_on,1,0,0,,2,,,62,127
50986,note_off,67,0,0,,2,,,62,127
50987,note_on,1,0,0,,0,,,60,127
51054,note_off,67,0,0,,0,,,60,127
51054,note_off,0,0,0,,7,,,55,127
51055,note_on,1,0,0,,7,,,43,127
51055,note_on,0,0,0,,0,,,60,127
51602,note_off,547,0,0,,0,,,60,127
51603,note_on,1,0,0,,2,,,62,127
52089,note_off,486,0,0,,2,,,62,127
52150,note_off,61,0,0,,7,,,43,127
52151,note_on,1,0,0,,7,,,67,127
52151,note_on,0,0,0,,2,,,74,127
52195,note_off,44,0,0,,2,,,74,127
52196,note_on,1,0,0,,0,,,72,127
52240,note_off,44,0,0,,0,,,72,127
52241,note_on,1,0,0,,12,,,71,127
52424,note_on,183,0,0,,7,,,55,127
52560,note_off,136,0,0,,12,,,71,127
52561,note_on,1,0,0,,0,,,72,127
52697,note_off,136,0,0,,0,,,72,127
52697,note_off,0,0,0,,7,,,67,127
52698,note_on,1,0,0,,7,,,67,127
52698,note_on,0,0,0,,2,,,74,127
52742,note_off,44,0,0,,2,,,74,127
52743,note_on,1,0,0,,0,,,72,127
52787,note_off,44,0,0,,0,,,72,127
52788,note_on,1,0,0,,12,,,71,127
52834,note_off,46,0,0,,7,,,55,127
52971,note_on,137,0,0,,7,,,55,127
53107,note_off,136,0,0,,12,,,71,127
53108,note_on,1,0,0,,0,,,72,127
53244,note_off,136,0,0,,0,,,72,127
53244,note_off,0,0,0,,7,,,67,127
53245,note_on,1,0,0,,7,,,67,127
53245,note_on,0,0,0,,12,,,71,127
53245,note_on,0,0,0,,2,,,74,127
53381,note_off,136,0,0,,2,,,74,127
53381,note_off,0,0,0,,12,,,71,127
53382,note_off,1,0,0,,7,,,55,127
53382,note_on,0,0,0,,3,,,75,127
53382,note_on,0,0,0,,0,,,72,127
53518,note_off,136,0,0,,0,,,72,127
53518,note_off,0,0,0,,3,,,75,127
53519,note_on,1,0,0,,7,,,55,127
53519,note_on,0,0,0,,5,,,77,127
53519,note_on,0,0,0,,2,,,74,127
53655,note_off,136,0,0,,2,,,74,127
53655,note_off,0,0,0,,5,,,77,127
53656,note_on,1,0,0,,3,,,75,127
53656,note_on,0,0,0,,0,,,72,127
53792,note_off,136,0,0,,0,,,72,127
53792,note_off,0,0,0,,3,,,75,127
53792,note_off,0,0,0,,7,,,55,127
53792,note_off,0,0,0,,7,,,67,127
53793,note_on,1,0,0,,5,,,65,127
53793,note_on,0,0,0,,8,,,68,127
53793,note_on,0,0,0,,2,,,74,127
53837,note_off,44,0,0,,2,,,74,127
53838,note_on,1,0,0,,0,,,72,127
53882,note_off,44,0,0,,0,,,72,127
53883,note_on,1,0,0,,12,,,71,127
54064,note_off,181,0,0,,8,,,68,127
54065,note_on,1,0,0,,5,,,53,127
54201,note_off,136,0,0,,12,,,71,127
54202,note_on,1,0,0,,0,,,72,127
54338,note_off,136,0,0,,0,,,72,127
54338,note_off,0,0,0,,5,,,65,127
54339,note_on,1,0,0,,5,,,65,127
54339,note_on,0,0,0,,8,,,68,127
54339,note_on,0,0,0,,2,,,74,127
54383,note_off,44,0,0,,2,,,74,127
54384,note_on,1,0,0,,0,,,72,127
54428,note_off,44,0,0,,0,,,72,127
54429,note_on,1,0,0,,12,,,71,127
54475,note_off,46,0,0,,5,,,53,127
54611,note_off,136,0,0,,8,,,68,127
54612,note_on,1,0,0,,5,,,53,127
54748,note_off,136,0,0,,12,,,71,127
54749,note_on,1,0,0,,0,,,72,127
54885,note_off,136,0,0,,0,,,72,127
54885,note_off,0,0,0,,5,,,65,127
54886,note_on,1,0,0,,5,,,65,127
54886,note_on,0,0,0,,8,,,68,127
54886,note_on,0,0,0,,2,,,74,127
54886,note_on,0,0,0,,12,,,71,127
55022,note_off,136,0,0,,12,,,71,127
55022,note_off,0,0,0,,2,,,74,127
55023,note_off,1,0,0,,5,,,53,127
55023,note_on,0,0,0,,0,,,72,127
55023,note_on,0,0,0,,3,,,75,127
55159,note_off,136,0,0,,3,,,75,127
55159,note_off,0,0,0,,0,,,72,127
55159,note_off,0,0,0,,8,,,68,127
55160,note_on,1,0,0,,5,,,53,127
55160,note_on,0,0,0,,2,,,74,127
55160,note_on,0,0,0,,5,,,77,127
55296,note_off,136,0,0,,5,,,77,127
55296,note_off,0,0,0,,2,,,74,127
55297,note_on,1,0,0,,3,,,75,127
55297,note_on,0,0,0,,0,,,72,127
55433,note_off,136,0,0,,0,,,72,127
55433,note_off,0,0,0,,3,,,75,127
55433,note_off,0,0,0,,5,,,53,127
55433,note_off,0,0,0,,5,,,65,127
55434,note_on,1,0,0,,7,,,67,127
55434,note_on,0,0,0,,2,,,74,127
55501,note_off,67,0,0,,2,,,74,127
55502,note_on,1,0,0,,0,,,72,127
55569,note_off,67,0,0,,0,,,72,127
55570,note_on,1,0,0,,12,,,71,127
55707,note_on,137,0,0,,7,,,55,127
55843,note_off,136,0,0,,12,,,71,127
55844,note_on,1,0,0,,0,,,72,127
55980,note_off,136,0,0,,0,,,72,127
55980,note_off,0,0,0,,7,,,67,127
55981,note_on,1,0,0,,7,,,67,127
55981,note_on,0,0,0,,2,,,74,127
56117,note_off,136,0,0,,2,,,74,127
56118,note_off,1,0,0,,7,,,55,127
56118,note_on,0,0,0,,0,,,72,127
56185,note_off,67,0,0,,0,,,72,127
56186,note_on,1,0,0,,12,,,71,127
56253,note_off,67,0,0,,12,,,71,127
56253,note_off,0,0,0,,7,,,67,127
56254,note_on,1,0,0,,5,,,65,127
56254,note_on,0,0,0,,0,,,72,127
56390,note_off,136,0,0,,0,,,72,127
56391,note_on,1,0,0,,2,,,74,127
56527,note_off,136,0,0,,2,,,74,127
56527,note_off,0,0,0,,5,,,65,127
56528,note_on,1,0,0,,3,,,63,127
56528,note_on,0,0,0,,3,,,75,127
56664,note_off,136,0,0,,3,,,75,127
56665,note_on,1,0,0,,4,,,76,127
56801,note_off,136,0,0,,4,,,76,127
56801,note_off,0,0,0,,3,,,63,127
56802,note_on,1,0,0,,2,,,62,127
56802,note_on,0,0,0,,5,,,77,127
56938,note_off,136,0,0,,5,,,77,127
56939,note_on,1,0,0,,6,,,78,127
57075,note_off,136,0,0,,6,,,78,127
57075,note_off,0,0,0,,2,,,62,127
57076,note_on,1,0,0,,3,,,63,127
57076,note_on,0,0,0,,0,,,72,127
57076,note_on,0,0,0,,7,,,79,127
57122,note_off,46,0,0,,0,,,72,127
57122,note_on,0,0,0,,11,,,70,127
57166,note_off,44,0,0,,11,,,70,127
57167,note_on,1,0,0,,10,,,69,127
57350,note_on,183,0,0,,3,,,51,127
57486,note_off,136,0,0,,10,,,69,127
57487,note_on,1,0,0,,11,,,70,127
57623,note_off,136,0,0,,11,,,70,127
57623,note_off,0,0,0,,7,,,79,127
57623,note_off,0,0,0,,3,,,63,127
57624,note_on,1,0,0,,3,,,63,127
57624,note_on,0,0,0,,0,,,72,127
57624,note_on,0,0,0,,7,,,79,127
57668,note_off,44,0,0,,0,,,72,127
57669,note_on,1,0,0,,11,,,70,127
57713,note_off,44,0,0,,11,,,70,127
57714,note_on,1,0,0,,10,,,69,127
57760,note_off,46,0,0,,3,,,51,127
57897,note_on,137,0,0,,3,,,51,127
58033,note_off,136,0,0,,10,,,69,127
58034,note_on,1,0,0,,11,,,70,127
58170,note_off,136,0,0,,11,,,70,127
58170,note_off,0,0,0,,7,,,79,127
58170,note_off,0,0,0,,3,,,63,127
58171,note_on,1,0,0,,3,,,63,127
58171,note_on,0,0,0,,0,,,72,127
58171,note_on,0,0,0,,7,,,79,127
58307,note_off,136,0,0,,0,,,72,127
58308,note_off,1,0,0,,3,,,51,127
58308,note_on,0,0,0,,2,,,74,127
58444,note_off,136,0,0,,2,,,74,127
58445,note_on,1,0,0,,3,,,51,127
58445,note_on,0,0,0,,3,,,75,127
58581,note_off,136,0,0,,3,,,75,127
58582,note_on,1,0,0,,0,,,72,127
58718,note_off,136,0,0,,0,,,72,127
58718,note_off,0,0,0,,3,,,51,127
58718,note_off,0,0,0,,7,,,79,127
58718,note_off,0,0,0,,3,,,63,127
58719,note_on,1,0,0,,2,,,62,127
58719,note_on,0,0,0,,11,,,70,127
58719,note_on,0,0,0,,7,,,79,127
58763,note_off,44,0,0,,11,,,70,127
58764,note_on,1,0,0,,10,,,69,127
58808,note_off,44,0,0,,10,,,69,127
58809,note_on,1,0,0,,7,,,67,127
58992,note_on,183,0,0,,2,,,50,127
59128,note_off,136,0,0,,7,,,67,127
59129,note_on,1,0,0,,10,,,69,127
59265,note_off,136,0,0,,10,,,69,127
59265,note_off,0,0,0,,7,,,79,127
59265,note_off,0,0,0,,2,,,62,127
59266,note_on,1,0,0,,2,,,62,127
59266,note_on,0,0,0,,11,,,70,127
59266,note_on,0,0,0,,7,,,79,127
59310,note_off,44,0,0,,11,,,70,127
59311,note_on,1,0,0,,10,,,69,127
59355,note_off,44,0,0,,10,,,69,127
59356,note_on,1,0,0,,7,,,67,127
59402,note_off,46,0,0,,2,,,50,127
59539,note_on,137,0,0,,2,,,50,127
59675,note_off,136,0,0,,7,,,67,127
59676,note_on,1,0,0,,10,,,69,127
59812,note_off,136,0,0,,10,,,69,127
59812,note_off,0,0,0,,7,,,79,127
59812,note_off,0,0,0,,2,,,62,127
59813,note_on,1,0,0,,2,,,62,127
59813,note_on,0,0,0,,7,,,79,127
59813,note_on,0,0,0,,11,,,70,127
59949,note_off,136,0,0,,11,,,70,127
59950,note_off,1,0,0,,2,,,50,127
59950,note_on,0,0,0,,0,,,72,127
60086,note_off,136,0,0,,0,,,72,127
60087,note_on,1,0,0,,2,,,50,127
60087,note_on,0,0,0,,2,,,74,127
60223,note_off,136,0,0,,2,,,74,127
60224,note_on,1,0,0,,11,,,70,127
60360,note_off,136,0,0,,11,,,70,127
60360,note_off,0,0,0,,2,,,50,127
60360,note_off,0,0,0,,7,,,79,127
60360,note_off,0,0,0,,2,,,62,127
60361,note_on,1,0,0,,0,,,60,127
60361,note_on,0,0,0,,3,,,75,127
60361,note_on,0,0,0,,10,,,69,127
60405,note_off,44,0,0,,10,,,69,127
60406,note_on,1,0,0,,7,,,67,127
60450,note_off,44,0,0,,7,,,67,127
60451,note_on,1,0,0,,6,,,66,127
60634,note_on,183,0,0,,0,,,48,127
60770,note_off,136,0,0,,6,,,66,127
60771,note_on,1,0,0,,7,,,67,127
60907,note_off,136,0,0,,7,,,67,127
60907,note_off,0,0,0,,3,,,75,127
60907,note_off,0,0,0,,0,,,60,127
60908,note_on,1,0,0,,0,,,60,127
60908,note_on,0,0,0,,10,,,69,127
60908,note_on,0,0,0,,3,,,75,127
60952,note_off,44,0,0,,10,,,69,127
60953,note_on,1,0,0,,7,,,67,127
60997,note_off,44,0,0,,7,,,67,127
60998,note_on,1,0,0,,6,,,66,127
61044,note_off,46,0,0,,0,,,48,127
61181,note_on,137,0,0,,0,,,48,127
61317,note_off,136,0,0,,6,,,66,127
61318,note_on,1,0,0,,7,,,67,127
61454,note_off,136,0,0,,7,,,67,127
61454,note_off,0,0,0,,3,,,75,127
61454,note_off,0,0,0,,0,,,60,127
61455,note_on,1,0,0,,0,,,60,127
61455,note_on,0,0,0,,10,,,69,127
61455,note_on,0,0,0,,3,,,75,127
61591,note_off,136,0,0,,10,,,69,127
61592,note_off,1,0,0,,0,,,48,127
61592,note_on,0,0,0,,11,,,70,127
61728,note_off,136,0,0,,11,,,70,127
61729,note_on,1,0,0,,0,,,48,127
61729,note_on,0,0,0,,0,,,72,127
61865,note_off,136,0,0,,0,,,72,127
61866,note_on,1,0,0,,10,,,69,127
62002,note_off,136,0,0,,10,,,69,127
62002,note_off,0,0,0,,0,,,48,127
62002,note_off,0,0,0,,3,,,75,127
62002,note_off,0,0,0,,0,,,60,127
62003,note_on,1,0,0,,11,,,58,127
62003,note_on,0,0,0,,8,,,68,127
62003,note_on,0,0,0,,5,,,77,127
62047,note_off,44,0,0,,8,,,68,127
62048,note_on,1,0,0,,7,,,67,127
62092,note_off,44,0,0,,7,,,67,127
62093,note_on,1,0,0,,5,,,65,127
62276,note_on,183,0,0,,11,,,46,127
62412,note_off,136,0,0,,5,,,65,127
62413,note_off,1,0,0,,5,,,77,127
62413,note_on,0,0,0,,7,,,67,127
62549,note_off,136,0,0,,7,,,67,127
62549,note_off,0,0,0,,11,,,58,127
62550,note_on,1,0,0,,11,,,58,127
62550,note_on,0,0,0,,5,,,77,127
62550,note_on,0,0,0,,8,,,68,127
62594,note_off,44,0,0,,8,,,68,127
62595,note_on,1,0,0,,7,,,67,127
62639,note_off,44,0,0,,7,,,67,127
62640,note_on,1,0,0,,5,,,65,127
62686,note_off,46,0,0,,11,,,46,127
62823,note_on,137,0,0,,11,,,46,127
62959,note_off,136,0,0,,5,,,65,127
62960,note_off,1,0,0,,5,,,77,127
62960,note_on,0,0,0,,7,,,67,127
63096,note_off,136,0,0,,7,,,67,127
63096,note_off,0,0,0,,11,,,58,127
63097,note_on,1,0,0,,11,,,58,127
63097,note_on,0,0,0,,8,,,68,127
63097,note_on,0,0,0,,5,,,77,127
63233,note_off,136,0,0,,8,,,68,127
63234,note_off,1,0,0,,11,,,46,127
63234,note_on,0,0,0,,11,,,70,127
63370,note_off,136,0,0,,11,,,70,127
63370,note_off,0,0,0,,5,,,77,127
63371,note_on,1,0,0,,11,,,46,127
63371,note_on,0,0,0,,0,,,72,127
63507,note_off,136,0,0,,0,,,72,127
63508,note_on,1,0,0,,8,,,68,127
63644,note_off,136,0,0,,8,,,68,127
63644,note_off,0,0,0,,11,,,46,127
63644,note_off,0,0,0,,11,,,58,127
63645,note_on,1,0,0,,3,,,51,127
63645,note_on,0,0,0,,7,,,79,127
63782,note_on,137,0,0,,2,,,74,127
63851,note_off,69,0,0,,7,,,79,127
63918,note_off,67,0,0,,2,,,74,127
63919,note_on,1,0,0,,3,,,75,127
64056,note_on,137,0,0,,12,,,71,127
64125,note_off,69,0,0,,3,,,75,127
64192,note_off,67,0,0,,12,,,71,127
64192,note_off,0,0,0,,3,,,51,127
64193,note_on,1,0,0,,8,,,44,127
64193,note_on,0,0,0,,0,,,72,127
64330,note_on,137,0,0,,7,,,67,127
64399,note_off,69,0,0,,0,,,72,127
64466,note_off,67,0,0,,7,,,67,127
64467,note_on,1,0,0,,8,,,68,127
64604,note_on,137,0,0,,4,,,64,127
64673,note_off,69,0,0,,8,,,68,127
64740,note_off,67,0,0,,4,,,64,127
64740,note_off,0,0,0,,8,,,44,127
64741,note_on,1,0,0,,8,,,56,127
64741,note_on,0,0,0,,5,,,65,127
64877,note_off,136,0,0,,5,,,65,127
64878,note_on,1,0,0,,8,,,68,127
65014,note_off,136,0,0,,8,,,68,127
65015,note_on,1,0,0,,0,,,72,127
65151,note_off,136,0,0,,0,,,72,127
65152,note_on,1,0,0,,3,,,63,127
65288,note_off,136,0,0,,3,,,63,127
65288,note_off,0,0,0,,8,,,56,127
65289,note_on,1,0,0,,11,,,58,127
65289,note_on,0,0,0,,5,,,65,127
65356,note_off,67,0,0,,5,,,65,127
65357,note_on,1,0,0,,3,,,63,127
65424,note_off,67,0,0,,3,,,63,127
65425,note_on,1,0,0,,5,,,65,127
65492,note_off,67,0,0,,5,,,65,127
65493,note_on,1,0,0,,3,,,63,127
65560,note_off,67,0,0,,3,,,63,127
65561,note_on,1,0,0,,5,,,65,127
65628,note_off,67,0,0,,5,,,65,127
65629,note_on,1,0,0,,3,,,63,127
65696,note_off,67,0,0,,3,,,63,127
65697,note_on,1,0,0,,2,,,62,127
65764,note_off,67,0,0,,2,,,62,127
65765,note_on,1,0,0,,3,,,63,127
65832,note_off,67,0,0,,3,,,63,127
65833,note_on,1,0,0,,11,,,46,127
65833,note_on,0,0,0,,3,,,63,127
66380,note_off,547,0,0,,3,,,63,127
66380,note_off,0,0,0,,11,,,58,127
66381,note_on,1,0,0,,2,,,62,127
66867,note_off,486,0,0,,2,,,62,127
66928,note_off,61,0,0,,11,,,46,127
66929,note_on,1,0,0,,11,,,70,127
66929,note_on,0,0,0,,5,,,77,127
66973,note_off,44,0,0,,5,,,77,127
66974,note_on,1,0,0,,3,,,75,127
67018,note_off,44,0,0,,3,,,75,127
67019,note_on,1,0,0,,2,,,74,127
67202,note_on,183,0,0,,11,,,58,127
67338,note_off,136,0,0,,2,,,74,127
67339,note_on,1,0,0,,3,,,75,127
67475,note_off,136,0,0,,3,,,75,127
67475,note_off,0,0,0,,11,,,70,127
67476,note_on,1,0,0,,11,,,70,127
67476,note_on,0,0,0,,5,,,77,127
67520,note_off,44,0,0,,5,,,77,127
67521,note_on,1,0,0,,3,,,75,127
67565,note_off,44,0,0,,3,,,75,127
67566,note_on,1,0,0,,2,,,74,127
67612,note_off,46,0,0,,11,,,58,127
67749,note_on,137,0,0,,11,,,58,127
67885,note_off,136,0,0,,2,,,74,127
67886,note_on,1,0,0,,3,,,75,127
68022,note_off,136,0,0,,3,,,75,127
68022,note_off,0,0,0,,11,,,70,127
68023,note_on,1,0,0,,11,,,70,127
68023,note_on,0,0,0,,2,,,74,127
68023,note_on,0,0,0,,5,,,77,127
68159,note_off,136,0,0,,5,,,77,127
68159,note_off,0,0,0,,2,,,74,127
68160,note_off,1,0,0,,11,,,58,127
68160,note_on,0,0,0,,6,,,78,127
68160,note_on,0,0,0,,3,,,75,127
68296,note_off,136,0,0,,3,,,75,127
68296,note_off,0,0,0,,6,,,78,127
68297,note_on,1,0,0,,11,,,58,127
68297,note_on,0,0,0,,8,,,80,127
68297,note_on,0,0,0,,5,,,77,127
68433,note_off,136,0,0,,5,,,77,127
68433,note_off,0,0,0,,8,,,80,127
68434,note_on,1,0,0,,6,,,78,127
68434,note_on,0,0,0,,3,,,75,127
68570,note_off,136,0,0,,3,,,75,127
68570,note_off,0,0,0,,6,,,78,127
68570,note_off,0,0,0,,11,,,58,127
68570,note_off,0,0,0,,11,,,70,127
68571,note_on,1,0,0,,8,,,68,127
68571,note_on,0,0,0,,12,,,71,127
68571,note_on,0,0,0,,5,,,77,127
68615,note_off,44,0,0,,5,,,77,127
68616,note_on,1,0,0,,3,,,75,127
68660,note_off,44,0,0,,3,,,75,127
68661,note_on,1,0,0,,2,,,74,127
68842,note_off,181,0,0,,12,,,71,127
68843,note_on,1,0,0,,8,,,56,127
68979,note_off,136,0,0,,2,,,74,127
68980,note_on,1,0,0,,3,,,75,127
69116,note_off,136,0,0,,3,,,75,127
69116,note_off,0,0,0,,8,,,68,127
69117,note_on,1,0,0,,8,,,68,127
69117,note_on,0,0,0,,12,,,71,127
69117,note_on,0,0,0,,5,,,77,127
69161,note_off,44,0,0,,5,,,77,127
69162,note_on,1,0,0,,3,,,75,127
69206,note_off,44,0,0,,3,,,75,127
69207,note_on,1,0,0,,2,,,74,127
69253,note_off,46,0,0,,8,,,56,127
69389,note_off,136,0,0,,12,,,71,127
69390,note_on,1,0,0,,8,,,56,127
69526,note_off,136,0,0,,2,,,74,127
69527,note_on,1,0,0,,3,,,75,127
69663,note_off,136,0,0,,3,,,75,127
69663,note_off,0,0,0,,8,,,68,127
69664,note_on,1,0,0,,8,,,68,127
69664,note_on,0,0,0,,12,,,71,127
69664,note_on,0,0,0,,2,,,74,127
69664,note_on,0,0,0,,5,,,77,127
69800,note_off,136,0,0,,5,,,77,127
69800,note_off,0,0,0,,2,,,74,127
69801,note_off,1,0,0,,8,,,56,127
69801,note_on,0,0,0,,6,,,78,127
69801,note_on,0,0,0,,3,,,75,127
69937,note_off,136,0,0,,3,,,75,127
69937,note_off,0,0,0,,6,,,78,127
69937,note_off,0,0,0,,12,,,71,127
69938,note_on,1,0,0,,8,,,56,127
69938,note_on,0,0,0,,8,,,80,127
69938,note_on,0,0,0,,5,,,77,127
70074,note_off,136,0,0,,5,,,77,127
70074,note_off,0,0,0,,8,,,80,127
70075,note_on,1,0,0,,6,,,78,127
70075,note_on,0,0,0,,3,,,75,127
70211,note_off,136,0,0,,3,,,75,127
70211,note_off,0,0,0,,6,,,78,127
70211,note_off,0,0,0,,8,,,56,127
70211,note_off,0,0,0,,8,,,68,127
70212,note_on,1,0,0,,11,,,70,127
70212,note_on,0,0,0,,5,,,77,127
70279,note_off,67,0,0,,5,,,77,127
70280,note_on,1,0,0,,3,,,75,127
70347,note_off,67,0,0,,3,,,75,127
70348,note_on,1,0,0,,2,,,74,127
70485,note_on,137,0,0,,11,,,58,127
70621,note_off,136,0,0,,2,,,74,127
70622,note_on,1,0,0,,3,,,75,127
70758,note_off,136,0,0,,3,,,75,127
70758,note_off,0,0,0,,11,,,70,127
70759,note_on,1,0,0,,11,,,70,127
70759,note_on,0,0,0,,5,,,77,127
70895,note_off,136,0,0,,5,,,77,127
70896,note_off,1,0,0,,11,,,58,127
70896,note_on,0,0,0,,3,,,75,127
70963,note_off,67,0,0,,3,,,75,127
70964,note_on,1,0,0,,2,,,74,127
71031,note_off,67,0,0,,2,,,74,127
71031,note_off,0,0,0,,11,,,70,127
71032,note_on,1,0,0,,8,,,68,127
71032,note_on,0,0,0,,3,,,75,127
71168,note_off,136,0,0,,3,,,75,127
71169,note_on,1,0,0,,5,,,77,127
71305,note_off,136,0,0,,5,,,77,127
71305,note_off,0,0,0,,8,,,68,127
71306,note_on,1,0,0,,6,,,66,127
71306,note_on,0,0,0,,6,,,78,127
71442,note_off,136,0,0,,6,,,78,127
71443,note_on,1,0,0,,7,,,79,127
71579,note_off,136,0,0,,7,,,79,127
71579,note_off,0,0,0,,6,,,66,127
71580,note_on,1,0,0,,5,,,65,127
71580,note_on,0,0,0,,8,,,80,127
71716,note_off,136,0,0,,8,,,80,127
71717,note_on,1,0,0,,10,,,81,127
71853,note_off,136,0,0,,10,,,81,127
71853,note_off,0,0,0,,5,,,65,127
71854,note_on,1,0,0,,6,,,66,127
71854,note_on,0,0,0,,11,,,82,127
71990,note_off,136,0,0,,11,,,82,127
71991,note_on,1,0,0,,12,,,83,127
72127,note_off,136,0,0,,6,,,66,127
72128,note_on,1,0,0,,8,,,68,127
72195,note_off,67,0,0,,12,,,83,127
72196,note_on,1,0,0,,11,,,82,127
72263,note_off,67,0,0,,11,,,82,127
72264,note_on,1,0,0,,8,,,80,127
72331,note_off,67,0,0,,8,,,80,127
72332,note_on,1,0,0,,6,,,78,127
72399,note_off,67,0,0,,6,,,78,127
72399,note_off,0,0,0,,8,,,68,127
72400,note_on,1,0,0,,11,,,70,127
72400,note_on,0,0,0,,5,,,77,127
72467,note_off,67,0,0,,5,,,77,127
72468,note_on,1,0,0,,3,,,75,127
72535,note_off,67,0,0,,3,,,75,127
72536,note_on,1,0,0,,3,,,75,127
72740,note_off,204,0,0,,3,,,75,127
72741,note_on,1,0,0,,5,,,77,127
72808,note_off,67,0,0,,5,,,77,127
72809,note_on,1,0,0,,3,,,75,127
72876,note_off,67,0,0,,3,,,75,127
72877,note_on,1,0,0,,2,,,74,127
72944,note_off,67,0,0,,2,,,74,127
72944,note_off,0,0,0,,11,,,70,127
72945,note_on,1,0,0,,11,,,58,127
72945,note_on,0,0,0,,5,,,77,127
73012,note_off,67,0,0,,5,,,77,127
73013,note_on,1,0,0,,3,,,75,127
73080,note_off,67,0,0,,3,,,75,127
73081,note_on,1,0,0,,5,,,77,127
73148,note_off,67,0,0,,5,,,77,127
73149,note_on,1,0,0,,3,,,75,127
73216,note_off,67,0,0,,3,,,75,127
73217,note_on,1,0,0,,5,,,77,127
73284,note_off,67,0,0,,5,,,77,127
73285,note_on,1,0,0,,3,,,75,127
73352,note_off,67,0,0,,3,,,75,127
73353,note_on,1,0,0,,2,,,74,127
73489,note_off,136,0,0,,2,,,74,127
73489,note_off,0,0,0,,11,,,58,127
73490,note_on,1,0,0,,3,,,51,127
73490,note_on,0,0,0,,3,,,75,127
73626,note_off,136,0,0,,3,,,75,127
73627,note_on,1,0,0,,11,,,82,127
73763,note_off,136,0,0,,11,,,82,127
73764,note_on,1,0,0,,6,,,78,127
73900,note_off,136,0,0,,6,,,78,127
73901,note_on,1,0,0,,3,,,75,127
74037,note_off,136,0,0,,3,,,75,127
74038,note_on,1,0,0,,0,,,72,127
74174,note_off,136,0,0,,0,,,72,127
74175,note_on,1,0,0,,10,,,69,127
74311,note_off,136,0,0,,10,,,69,127
74311,note_off,0,0,0,,3,,,51,127
74312,note_on,1,0,0,,6,,,66,127
74448,note_off,136,0,0,,6,,,66,127
74449,note_on,1,0,0,,3,,,63,127
74585,note_off,136,0,0,,3,,,63,127
74586,note_on,1,0,0,,0,,,60,127
74722,note_off,136,0,0,,0,,,60,127
74723,note_on,1,0,0,,10,,,57,127
74859,note_off,136,0,0,,10,,,57,127
74860,note_on,1,0,0,,3,,,51,127
74951,note_off,91,0,0,,3,,,51,127
74951,note_on,0,0,0,,2,,,50,127
75042,note_off,91,0,0,,2,,,50,127
75042,note_on,0,0,0,,0,,,48,127
75133,note_off,91,0,0,,0,,,48,127
75133,note_on,0,0,0,,11,,,46,127
75133,note_on,0,0,0,,5,,,77,127
75177,note_off,44,0,0,,5,,,77,127
75178,note_on,1,0,0,,3,,,75,127
75222,note_off,44,0,0,,3,,,75,127
75223,note_on,1,0,0,,2,,,74,127
75404,note_off,181,0,0,,11,,,46,127
75405,note_on,1,0,0,,11,,,46,127
75541,note_off,136,0,0,,2,,,74,127
75542,note_on,1,0,0,,3,,,75,127
75678,note_off,136,0,0,,3,,,75,127
75678,note_off,0,0,0,,11,,,46,127
75679,note_on,1,0,0,,11,,,70,127
75679,note_on,0,0,0,,5,,,77,127
75723,note_off,44,0,0,,5,,,77,127
75724,note_on,1,0,0,,3,,,75,127
75768,note_off,44,0,0,,3,,,75,127
75769,note_on,1,0,0,,2,,,74,127
75952,note_on,183,0,0,,11,,,58,127
76088,note_off,136,0,0,,2,,,74,127
76089,note_on,1,0,0,,3,,,75,127
76225,note_off,136,0,0,,3,,,75,127
76225,note_off,0,0,0,,11,,,70,127
76226,note_on,1,0,0,,11,,,70,127
76226,note_on,0,0,0,,5,,,77,127
76226,note_on,0,0,0,,2,,,74,127
76362,note_off,136,0,0,,2,,,74,127
76362,note_off,0,0,0,,5,,,77,127
76363,note_off,1,0,0,,11,,,58,127
76363,note_on,0,0,0,,6,,,78,127
76363,note_on,0,0,0,,3,,,75,127
76499,note_off,136,0,0,,3,,,75,127
76499,note_off,0,0,0,,6,,,78,127
76500,note_on,1,0,0,,11,,,58,127
76500,note_on,0,0,0,,8,,,80,127
76500,note_on,0,0,0,,5,,,77,127
76636,note_off,136,0,0,,5,,,77,127
76636,note_off,0,0,0,,8,,,80,127
76637,note_on,1,0,0,,3,,,75,127
76637,note_on,0,0,0,,6,,,78,127
76773,note_off,136,0,0,,6,,,78,127
76773,note_off,0,0,0,,3,,,75,127
76773,note_off,0,0,0,,11,,,58,127
76773,note_off,0,0,0,,11,,,70,127
76774,note_on,1,0,0,,8,,,68,127
76774,note_on,0,0,0,,12,,,71,127
76774,note_on,0,0,0,,5,,,77,127
76818,note_off,44,0,0,,5,,,77,127
76819,note_on,1,0,0,,3,,,75,127
76863,note_off,44,0,0,,3,,,75,127
76864,note_on,1,0,0,,2,,,74,127
77045,note_off,181,0,0,,12,,,71,127
77046,note_on,1,0,0,,8,,,56,127
77182,note_off,136,0,0,,2,,,74,127
77183,note_on,1,0,0,,3,,,75,127
77319,note_off,136,0,0,,3,,,75,127
77319,note_off,0,0,0,,8,,,68,127
77320,note_on,1,0,0,,8,,,68,127
77320,note_on,0,0,0,,12,,,71,127
77320,note_on,0,0,0,,5,,,77,127
77364,note_off,44,0,0,,5,,,77,127
77365,note_on,1,0,0,,3,,,75,127
77409,note_off,44,0,0,,3,,,75,127
77410,note_on,1,0,0,,2,,,74,127
77456,note_off,46,0,0,,8,,,56,127
77592,note_off,136,0,0,,12,,,71,127
77593,note_on,1,0,0,,8,,,56,127
77729,note_off,136,0,0,,2,,,74,127
77730,note_on,1,0,0,,3,,,75,127
77866,note_off,136,0,0,,3,,,75,127
77866,note_off,0,0,0,,8,,,68,127
77867,note_on,1,0,0,,12,,,71,127
77867,note_on,0,0,0,,8,,,68,127
77867,note_on,0,0,0,,2,,,74,127
77867,note_on,0,0,0,,5,,,77,127
78003,note_off,136,0,0,,5,,,77,127
78003,note_off,0,0,0,,2,,,74,127
78004,note_off,1,0,0,,8,,,56,127
78004,note_on,0,0,0,,3,,,75,127
78004,note_on,0,0,0,,6,,,78,127
78140,note_off,136,0,0,,6,,,78,127
78140,note_off,0,0,0,,3,,,75,127
78140,note_off,0,0,0,,12,,,71,127
78141,note_on,1,0,0,,8,,,56,127
78141,note_on,0,0,0,,5,,,77,127
78141,note_on,0,0,0,,8,,,80,127
78277,note_off,136,0,0,,8,,,80,127
78277,note_off,0,0,0,,5,,,77,127
78278,note_on,1,0,0,,6,,,78,127
78278,note_on,0,0,0,,3,,,75,127
78414,note_off,136,0,0,,3,,,75,127
78414,note_off,0,0,0,,6,,,78,127
78414,note_off,0,0,0,,8,,,56,127
78414,note_off,0,0,0,,8,,,68,127
78415,note_on,1,0,0,,11,,,70,127
78415,note_on,0,0,0,,5,,,77,127
78482,note_off,67,0,0,,5,,,77,127
78483,note_on,1,0,0,,3,,,75,127
78550,note_off,67,0,0,,3,,,75,127
78551,note_on,1,0,0,,2,,,74,127
78688,note_on,137,0,0,,11,,,58,127
78824,note_off,136,0,0,,2,,,74,127
78825,note_on,1,0,0,,3,,,75,127
78961,note_off,136,0,0,,3,,,75,127
78961,note_off,0,0,0,,11,,,70,127
78962,note_on,1,0,0,,11,,,70,127
78962,note_on,0,0,0,,5,,,77,127
79098,note_off,136,0,0,,5,,,77,127
79099,note_off,1,0,0,,11,,,58,127
79099,note_on,0,0,0,,3,,,75,127
79166,note_off,67,0,0,,3,,,75,127
79167,note_on,1,0,0,,2,,,74,127
79234,note_off,67,0,0,,2,,,74,127
79234,note_off,0,0,0,,11,,,70,127
79235,note_on,1,0,0,,8,,,68,127
79235,note_on,0,0,0,,3,,,75,127
79371,note_off,136,0,0,,3,,,75,127
79372,note_on,1,0,0,,5,,,77,127
79508,note_off,136,0,0,,5,,,77,127
79508,note_off,0,0,0,,8,,,68,127
79509,note_on,1,0,0,,6,,,66,127
79509,note_on,0,0,0,,6,,,78,127
79645,note_off,136,0,0,,6,,,78,127
79646,note_on,1,0,0,,7,,,79,127
79782,note_off,136,0,0,,7,,,79,127
79782,note_off,0,0,0,,6,,,66,127
79783,note_on,1,0,0,,5,,,65,127
79783,note_on,0,0,0,,8,,,80,127
79919,note_off,136,0,0,,8,,,80,127
79920,note_on,1,0,0,,10,,,81,127
80056,note_off,136,0,0,,10,,,81,127
80056,note_off,0,0,0,,5,,,65,127
80057,note_on,1,0,0,,6,,,66,127
80057,note_on,0,0,0,,11,,,82,127
80193,note_off,136,0,0,,11,,,82,127
80194,note_on,1,0,0,,12,,,83,127
80330,note_off,136,0,0,,12,,,83,127
80330,note_off,0,0,0,,6,,,66,127
80331,note_on,1,0,0,,8,,,68,127
80331,note_on,0,0,0,,2,,,86,127
80467,note_off,136,0,0,,2,,,86,127
80468,note_on,1,0,0,,3,,,87,127
80604,note_off,136,0,0,,8,,,68,127
80605,note_on,1,0,0,,11,,,70,127
80879,note_on,274,0,0,,3,,,75,127
81152,note_off,273,0,0,,3,,,75,127
81153,note_off,1,0,0,,3,,,87,127
81153,note_on,0,0,0,,11,,,58,127
81153,note_on,0,0,0,,5,,,77,127
81220,note_off,67,0,0,,5,,,77,127
81221,note_on,1,0,0,,3,,,75,127
81288,note_off,67,0,0,,3,,,75,127
81289,note_on,1,0,0,,5,,,77,127
81356,note_off,67,0,0,,5,,,77,127
81357,note_on,1,0,0,,3,,,75,127
81424,note_off,67,0,0,,3,,,75,127
81424,note_off,0,0,0,,11,,,70,127
81425,note_on,1,0,0,,5,,,77,127
81492,note_off,67,0,0,,5,,,77,127
81493,note_on,1,0,0,,3,,,75,127
81560,note_off,67,0,0,,3,,,75,127
81561,note_on,1,0,0,,2,,,74,127
81697,note_off,136,0,0,,2,,,74,127
81697,note_off,0,0,0,,11,,,58,127
81698,note_on,1,0,0,,3,,,51,127
81698,note_on,0,0,0,,3,,,63,127
81835,note_on,137,0,0,,3,,,75,127
81969,note_off,134,0,0,,3,,,63,127
81972,note_on,3,0,0,,5,,,65,127
82106,note_off,134,0,0,,3,,,75,127
82109,note_on,3,0,0,,2,,,74,127
82243,note_off,134,0,0,,5,,,65,127
82246,note_on,3,0,0,,7,,,67,127
82380,note_off,134,0,0,,2,,,74,127
82383,note_on,3,0,0,,3,,,75,127
82517,note_off,134,0,0,,7,,,67,127
82520,note_on,3,0,0,,8,,,68,127
82654,note_off,134,0,0,,3,,,75,127
82657,note_on,3,0,0,,5,,,77,127
82791,note_off,134,0,0,,8,,,68,127
82794,note_on,3,0,0,,11,,,70,127
82928,note_off,134,0,0,,5,,,77,127
82931,note_on,3,0,0,,7,,,79,127
83067,note_off,136,0,0,,7,,,79,127
83068,note_on,1,0,0,,8,,,80,127
83202,note_off,134,0,0,,11,,,70,127
83205,note_on,3,0,0,,0,,,72,127
83272,note_off,67,0,0,,0,,,72,127
83273,note_on,1,0,0,,2,,,74,127
83339,note_off,66,0,0,,8,,,80,127
83340,note_off,1,0,0,,2,,,74,127
83341,note_on,1,0,0,,3,,,39,127
83341,note_on,0,0,0,,3,,,75,127
83341,note_on,0,0,0,,7,,,79,127
83477,note_off,136,0,0,,3,,,75,127
83478,note_on,1,0,0,,7,,,67,127
83614,note_off,136,0,0,,7,,,67,127
83615,note_on,1,0,0,,8,,,68,127
83749,note_off,134,0,0,,7,,,79,127
83752,note_on,3,0,0,,5,,,77,127
83886,note_off,134,0,0,,8,,,68,127
83889,note_on,3,0,0,,11,,,70,127
84023,note_off,134,0,0,,5,,,77,127
84026,note_on,3,0,0,,7,,,79,127
84160,note_off,134,0,0,,11,,,70,127
84163,note_on,3,0,0,,0,,,72,127
84297,note_off,134,0,0,,7,,,79,127
84300,note_on,3,0,0,,8,,,80,127
84434,note_off,134,0,0,,0,,,72,127
84437,note_on,3,0,0,,2,,,74,127
84571,note_off,134,0,0,,8,,,80,127
84574,note_on,3,0,0,,0,,,84,127
84847,note_off,273,0,0,,0,,,84,127
84848,note_off,1,0,0,,2,,,74,127
84848,note_on,0,0,0,,11,,,82,127
84915,note_off,67,0,0,,11,,,82,127
84916,note_on,1,0,0,,8,,,80,127
84983,note_off,67,0,0,,8,,,80,127
84983,note_off,0,0,0,,3,,,39,127
84983,note_off,0,0,0,,3,,,51,127
84984,note_on,1,0,0,,3,,,51,127
84984,note_on,0,0,0,,7,,,79,127
85120,note_off,136,0,0,,7,,,79,127
85121,note_on,1,0,0,,8,,,80,127
85188,note_off,67,0,0,,8,,,80,127
85189,note_on,1,0,0,,11,,,82,127
85256,note_off,67,0,0,,11,,,82,127
85256,note_off,0,0,0,,3,,,51,127
85257,note_on,1,0,0,,8,,,56,127
85257,note_on,0,0,0,,8,,,80,127
85393,note_off,136,0,0,,8,,,80,127
85394,note_on,1,0,0,,7,,,79,127
85461,note_off,67,0,0,,7,,,79,127
85462,note_on,1,0,0,,5,,,77,127
85529,note_off,67,0,0,,5,,,77,127
85529,note_off,0,0,0,,8,,,56,127
85530,note_on,1,0,0,,11,,,58,127
85530,note_on,0,0,0,,3,,,75,127
85734,note_off,204,0,0,,3,,,75,127
85735,note_on,1,0,0,,5,,,77,127
85802,note_off,67,0,0,,5,,,77,127
85803,note_on,1,0,0,,3,,,75,127
85870,note_off,67,0,0,,3,,,75,127
85871,note_on,1,0,0,,2,,,74,127
85938,note_off,67,0,0,,2,,,74,127
85939,note_on,1,0,0,,3,,,75,127
86006,note_off,67,0,0,,3,,,75,127
86007,note_on,1,0,0,,5,,,77,127
86074,note_off,67,0,0,,5,,,77,127
86075,note_on,1,0,0,,11,,,46,127
86075,note_on,0,0,0,,7,,,79,127
86142,note_off,67,0,0,,7,,,79,127
86143,note_on,1,0,0,,5,,,77,127
86210,note_off,67,0,0,,5,,,77,127
86211,note_on,1,0,0,,7,,,79,127
86278,note_off,67,0,0,,7,,,79,127
86279,note_on,1,0,0,,5,,,77,127
86346,note_off,67,0,0,,5,,,77,127
86346,note_off,0,0,0,,11,,,58,127
86347,note_on,1,0,0,,7,,,79,127
86414,note_off,67,0,0,,7,,,79,127
86415,note_on,1,0,0,,5,,,77,127
86482,note_off,67,0,0,,5,,,77,127
86483,note_on,1,0,0,,3,,,75,127
86550,note_off,67,0,0,,3,,,75,127
86551,note_on,1,0,0,,5,,,77,127
86618,note_off,67,0,0,,5,,,77,127
86618,note_off,0,0,0,,11,,,46,127
86619,note_on,1,0,0,,3,,,39,127
86619,note_on,0,0,0,,3,,,75,127
86755,note_off,136,0,0,,3,,,75,127
86756,note_on,1,0,0,,11,,,70,127
86892,note_off,136,0,0,,11,,,70,127
86893,note_on,1,0,0,,7,,,67,127
87029,note_off,136,0,0,,7,,,67,127
87030,note_on,1,0,0,,3,,,63,127
87166,note_off,136,0,0,,3,,,63,127
87167,note_on,1,0,0,,11,,,58,127
87303,note_off,136,0,0,,11,,,58,127
87304,note_on,1,0,0,,7,,,55,127
87440,note_off,136,0,0,,7,,,55,127
87440,note_off,0,0,0,,3,,,39,127
87441,note_on,1,0,0,,3,,,51,127
87578,note_on,137,0,0,,11,,,46,127
87729,note_off,151,0,0,,11,,,46,127
87746,note_on,17,0,0,,3,,,39,127
89497,note_off,1751,0,0,,3,,,39,127
89497,note_off,0,0,0,,3,,,51,127
90624,end_of_track,1127,1,0,,,,,,
