tick,type,time,meta,track,program,channel,pitch,tempo,note,velocity
0,copyright,0,1,0,,,,,,
0,program_change,0,0,0,6,0,,,,
0,pitchwheel,0,0,0,,0,0,,,
0,program_change,0,0,0,6,1,,,,
0,pitchwheel,0,0,0,,1,-590,,,
0,program_change,0,0,0,6,2,,,,
0,pitchwheel,0,0,0,,2,-272,,,
0,program_change,0,0,0,6,3,,,,
0,pitchwheel,0,0,0,,3,-353,,,
0,program_change,0,0,0,6,4,,,,
0,pitchwheel,0,0,0,,4,-560,,,
0,program_change,0,0,0,6,5,,,,
0,pitchwheel,0,0,0,,5,-80,,,
0,program_change,0,0,0,6,6,,,,
0,pitchwheel,0,0,0,,6,-625,,,
0,program_change,0,0,0,6,7,,,,
0,pitchwheel,0,0,0,,7,-130,,,
0,program_change,0,0,0,6,8,,,,
0,pitchwheel,0,0,0,,8,-512,,,
0,program_change,0,0,0,6,10,,,,
0,pitchwheel,0,0,0,,10,-464,,,
0,program_change,0,0,0,6,11,,,,
0,pitchwheel,0,0,0,,11,-208,,,
0,program_change,0,0,0,6,12,,,,
0,pitchwheel,0,0,0,,12,-553,,,
0,set_tempo,0,1,0,,,,500000,,
128,note_on,128,0,0,,3,,,51,127
128,note_on,0,0,0,,3,,,75,127
128,note_on,0,0,0,,7,,,79,127
383,note_off,255,0,0,,7,,,79,127
383,note_off,0,0,0,,3,,,75,127
384,note_on,1,0,0,,3,,,75,127
384,note_on,0,0,0,,7,,,79,127
511,note_off,127,0,0,,7,,,79,127
511,note_off,0,0,0,,3,,,75,127
512,note_on,1,0,0,,3,,,75,127
512,note_on,0,0,0,,7,,,79,127
639,note_off,127,0,0,,7,,,79,127
639,note_off,0,0,0,,3,,,75,127
640,note_on,1,0,0,,3,,,75,127
640,note_on,0,0,0,,7,,,79,127
767,note_off,127,0,0,,7,,,79,127
767,note_off,0,0,0,,3,,,75,127
768,note_on,1,0,0,,8,,,80,127
895,note_off,127,0,0,,8,,,80,127
896,note_on,1,0,0,,7,,,79,127
1023,note_off,127,0,0,,7,,,79,127
1024,note_on,1,0,0,,5,,,77,127
1151,note_off,127,0,0,,5,,,77,127
1151,note_off,0,0,0,,3,,,51,127
1152,note_on,1,0,0,,3,,,75,127
1279,note_off,127,0,0,,3,,,75,127
1280,note_on,1,0,0,,8,,,68,127
1280,note_on,0,0,0,,2,,,74,127
1407,note_off,127,0,0,,2,,,74,127
1407,note_off,0,0,0,,8,,,68,127
1408,note_on,1,0,0,,7,,,67,127
1408,note_on,0,0,0,,3,,,75,127
1535,note_off,127,0,0,,3,,,75,127
1535,note_off,0,0,0,,7,,,67,127
1536,note_on,1,0,0,,5,,,65,127
1536,note_on,0,0,0,,5,,,77,127
1663,note_off,127,0,0,,5,,,77,127
1663,note_off,0,0,0,,5,,,65,127
1664,note_on,1,0,0,,3,,,63,127
1664,note_on,0,0,0,,7,,,79,127
1791,note_off,127,0,0,,7,,,79,127
1792,note_on,1,0,0,,8,,,80,127
1919,note_off,127,0,0,,8,,,80,127
1919,note_off,0,0,0,,3,,,63,127
1920,note_on,1,0,0,,11,,,58,127
1920,note_on,0,0,0,,11,,,82,127
1920,note_on,0,0,0,,7,,,79,127
2047,note_off,127,0,0,,7,,,79,127
2047,note_off,0,0,0,,11,,,82,127
2048,note_on,1,0,0,,5,,,77,127
2048,note_on,0,0,0,,8,,,80,127
2175,note_off,127,0,0,,8,,,80,127
2175,note_off,0,0,0,,5,,,77,127
2175,note_off,0,0,0,,11,,,58,127
2176,note_on,1,0,0,,3,,,51,127
2176,note_on,0,0,0,,7,,,79,127
2176,note_on,0,0,0,,3,,,75,127
2431,note_off,255,0,0,,3,,,75,127
2431,note_off,0,0,0,,7,,,79,127
2432,note_on,1,0,0,,3,,,75,127
2432,note_on,0,0,0,,7,,,79,127
2559,note_off,127,0,0,,7,,,79,127
2559,note_off,0,0,0,,3,,,75,127
2560,note_on,1,0,0,,3,,,75,127
2560,note_on,0,0,0,,7,,,79,127
2687,note_off,127,0,0,,7,,,79,127
2687,note_off,0,0,0,,3,,,75,127
2688,note_on,1,0,0,,7,,,79,127
2688,note_on,0,0,0,,3,,,75,127
2815,note_off,127,0,0,,7,,,79,127
2816,note_on,1,0,0,,8,,,80,127
2880,note_off,64,0,0,,3,,,75,127
2943,note_off,63,0,0,,8,,,80,127
2944,note_on,1,0,0,,7,,,79,127
3071,note_off,127,0,0,,7,,,79,127
3072,note_on,1,0,0,,5,,,77,127
3199,note_off,127,0,0,,5,,,77,127
3199,note_off,0,0,0,,3,,,51,127
3200,note_on,1,0,0,,3,,,75,127
3327,note_off,127,0,0,,3,,,75,127
3328,note_on,1,0,0,,8,,,68,127
3328,note_on,0,0,0,,2,,,74,127
3455,note_off,127,0,0,,2,,,74,127
3455,note_off,0,0,0,,8,,,68,127
3456,note_on,1,0,0,,7,,,67,127
3456,note_on,0,0,0,,3,,,75,127
3583,note_off,127,0,0,,3,,,75,127
3583,note_off,0,0,0,,7,,,67,127
3584,note_on,1,0,0,,5,,,65,127
3584,note_on,0,0,0,,5,,,77,127
3711,note_off,127,0,0,,5,,,77,127
3711,note_off,0,0,0,,5,,,65,127
3712,note_on,1,0,0,,3,,,63,127
3712,note_on,0,0,0,,7,,,79,127
3839,note_off,127,0,0,,7,,,79,127
3840,note_on,1,0,0,,8,,,80,127
3967,note_off,127,0,0,,8,,,80,127
3967,note_off,0,0,0,,3,,,63,127
3968,note_on,1,0,0,,11,,,58,127
3968,note_on,0,0,0,,11,,,82,127
3968,note_on,0,0,0,,7,,,79,127
4095,note_off,127,0,0,,7,,,79,127
4095,note_off,0,0,0,,11,,,82,127
4096,note_on,1,0,0,,5,,,77,127
4096,note_on,0,0,0,,8,,,80,127
4223,note_off,127,0,0,,8,,,80,127
4223,note_off,0,0,0,,5,,,77,127
4223,note_off,0,0,0,,11,,,58,127
4224,note_on,1,0,0,,3,,,51,127
4224,note_on,0,0,0,,7,,,79,127
4352,note_on,128,0,0,,3,,,75,127
4479,note_off,127,0,0,,3,,,75,127
4480,note_on,1,0,0,,2,,,74,127
4607,note_off,127,0,0,,2,,,74,127
4608,note_off,1,0,0,,7,,,79,127
4608,note_on,0,0,0,,0,,,72,127
4735,note_off,127,0,0,,0,,,72,127
4735,note_off,0,0,0,,3,,,51,127
4736,note_on,1,0,0,,11,,,70,127
4864,note_on,128,0,0,,7,,,67,127
4991,note_off,127,0,0,,7,,,67,127
4992,note_on,1,0,0,,5,,,65,127
5119,note_off,127,0,0,,5,,,65,127
5120,note_on,1,0,0,,3,,,63,127
5247,note_off,127,0,0,,3,,,63,127
5248,note_on,1,0,0,,2,,,62,127
5375,note_off,127,0,0,,2,,,62,127
5376,note_off,1,0,0,,11,,,70,127
5376,note_on,0,0,0,,0,,,60,127
5503,note_off,127,0,0,,0,,,60,127
5504,note_on,1,0,0,,11,,,58,127
5504,note_on,0,0,0,,0,,,72,127
5631,note_off,127,0,0,,0,,,72,127
5631,note_off,0,0,0,,11,,,58,127
5632,note_on,1,0,0,,8,,,56,127
5632,note_on,0,0,0,,2,,,74,127
5759,note_off,127,0,0,,2,,,74,127
5759,note_off,0,0,0,,8,,,56,127
5760,note_on,1,0,0,,7,,,55,127
5760,note_on,0,0,0,,3,,,75,127
5887,note_off,127,0,0,,3,,,75,127
5887,note_off,0,0,0,,7,,,55,127
5888,note_on,1,0,0,,5,,,53,127
5888,note_on,0,0,0,,5,,,77,127
6015,note_off,127,0,0,,5,,,77,127
6015,note_off,0,0,0,,5,,,53,127
6016,note_on,1,0,0,,3,,,51,127
6016,note_on,0,0,0,,7,,,79,127
6143,note_off,127,0,0,,7,,,79,127
6143,note_off,0,0,0,,3,,,51,127
6144,note_on,1,0,0,,2,,,50,127
6144,note_on,0,0,0,,8,,,80,127
6271,note_off,127,0,0,,8,,,80,127
6271,note_off,0,0,0,,2,,,50,127
6272,note_on,1,0,0,,3,,,51,127
6272,note_on,0,0,0,,7,,,79,127
6400,note_on,128,0,0,,3,,,75,127
6527,note_off,127,0,0,,3,,,75,127
6528,note_on,1,0,0,,2,,,74,127
6655,note_off,127,0,0,,2,,,74,127
6656,note_off,1,0,0,,7,,,79,127
6656,note_on,0,0,0,,0,,,72,127
6783,note_off,127,0,0,,0,,,72,127
6783,note_off,0,0,0,,3,,,51,127
6784,note_on,1,0,0,,11,,,70,127
6912,note_on,128,0,0,,7,,,67,127
7039,note_off,127,0,0,,7,,,67,127
7040,note_on,1,0,0,,5,,,65,127
7167,note_off,127,0,0,,5,,,65,127
7168,note_on,1,0,0,,3,,,63,127
7295,note_off,127,0,0,,3,,,63,127
7296,note_on,1,0,0,,2,,,62,127
7423,note_off,127,0,0,,2,,,62,127
7424,note_on,1,0,0,,0,,,60,127
7551,note_off,127,0,0,,0,,,60,127
7551,note_off,0,0,0,,11,,,70,127
7552,note_on,1,0,0,,11,,,58,127
7552,note_on,0,0,0,,0,,,72,127
7679,note_off,127,0,0,,0,,,72,127
7679,note_off,0,0,0,,11,,,58,127
7680,note_on,1,0,0,,8,,,56,127
7680,note_on,0,0,0,,2,,,74,127
7807,note_off,127,0,0,,2,,,74,127
7807,note_off,0,0,0,,8,,,56,127
7808,note_on,1,0,0,,7,,,55,127
7808,note_on,0,0,0,,3,,,75,127
7935,note_off,127,0,0,,3,,,75,127
7935,note_off,0,0,0,,7,,,55,127
7936,note_on,1,0,0,,5,,,53,127
7936,note_on,0,0,0,,5,,,77,127
8063,note_off,127,0,0,,5,,,77,127
8063,note_off,0,0,0,,5,,,53,127
8064,note_on,1,0,0,,3,,,51,127
8064,note_on,0,0,0,,7,,,79,127
8191,note_off,127,0,0,,7,,,79,127
8191,note_off,0,0,0,,3,,,51,127
8192,note_on,1,0,0,,2,,,50,127
8192,note_on,0,0,0,,8,,,80,127
8319,note_off,127,0,0,,8,,,80,127
8319,note_off,0,0,0,,2,,,50,127
8320,note_on,1,0,0,,3,,,51,127
8320,note_on,0,0,0,,7,,,79,127
8447,note_off,127,0,0,,7,,,79,127
8448,note_on,1,0,0,,11,,,82,127
8547,note_off,99,0,0,,3,,,51,127
8575,note_off,28,0,0,,11,,,82,127
8576,note_on,1,0,0,,7,,,67,127
8576,note_on,0,0,0,,7,,,79,127
8703,note_off,127,0,0,,7,,,79,127
8704,note_on,1,0,0,,3,,,75,127
8831,note_off,127,0,0,,3,,,75,127
8831,note_off,0,0,0,,7,,,67,127
8832,note_on,1,0,0,,8,,,68,127
8832,note_on,0,0,0,,5,,,77,127
8959,note_off,127,0,0,,5,,,77,127
8960,note_on,1,0,0,,8,,,80,127
9087,note_off,127,0,0,,8,,,80,127
9087,note_off,0,0,0,,8,,,68,127
9088,note_on,1,0,0,,11,,,70,127
9088,note_on,0,0,0,,5,,,77,127
9215,note_off,127,0,0,,5,,,77,127
9216,note_on,1,0,0,,2,,,74,127
9343,note_off,127,0,0,,2,,,74,127
9343,note_off,0,0,0,,11,,,70,127
9344,note_on,1,0,0,,7,,,67,127
9344,note_on,0,0,0,,7,,,79,127
9471,note_off,127,0,0,,7,,,79,127
9472,note_on,1,0,0,,11,,,82,127
9599,note_off,127,0,0,,11,,,82,127
9599,note_off,0,0,0,,7,,,67,127
9600,note_on,1,0,0,,7,,,67,127
9600,note_on,0,0,0,,7,,,79,127
9727,note_off,127,0,0,,7,,,79,127
9728,note_on,1,0,0,,3,,,75,127
9855,note_off,127,0,0,,3,,,75,127
9855,note_off,0,0,0,,7,,,67,127
9856,note_on,1,0,0,,8,,,68,127
9856,note_on,0,0,0,,5,,,77,127
9983,note_off,127,0,0,,5,,,77,127
9984,note_on,1,0,0,,8,,,80,127
10111,note_off,127,0,0,,8,,,80,127
10111,note_off,0,0,0,,8,,,68,127
10112,note_on,1,0,0,,11,,,70,127
10112,note_on,0,0,0,,5,,,77,127
10239,note_off,127,0,0,,5,,,77,127
10240,note_on,1,0,0,,2,,,74,127
10367,note_off,127,0,0,,2,,,74,127
10368,note_on,1,0,0,,3,,,75,127
10431,note_off,63,0,0,,3,,,75,127
10432,note_off,1,0,0,,11,,,70,127
10432,note_on,0,0,0,,2,,,74,127
10495,note_off,63,0,0,,2,,,74,127
10496,note_on,1,0,0,,3,,,75,127
10623,note_off,127,0,0,,3,,,75,127
10624,note_on,1,0,0,,7,,,67,127
10624,note_on,0,0,0,,4,,,76,127
10687,note_off,63,0,0,,4,,,76,127
10688,note_on,1,0,0,,2,,,74,127
10751,note_off,63,0,0,,2,,,74,127
10752,note_on,1,0,0,,4,,,76,127
10879,note_off,127,0,0,,4,,,76,127
10879,note_off,0,0,0,,7,,,67,127
10880,note_on,1,0,0,,8,,,68,127
10880,note_on,0,0,0,,5,,,77,127
10943,note_off,63,0,0,,5,,,77,127
10944,note_on,1,0,0,,4,,,76,127
11007,note_off,63,0,0,,4,,,76,127
11008,note_on,1,0,0,,5,,,77,127
11135,note_off,127,0,0,,5,,,77,127
11135,note_off,0,0,0,,8,,,68,127
11136,note_on,1,0,0,,4,,,64,127
11136,note_on,0,0,0,,7,,,79,127
11199,note_off,63,0,0,,7,,,79,127
11200,note_on,1,0,0,,5,,,77,127
11263,note_off,63,0,0,,5,,,77,127
11264,note_on,1,0,0,,7,,,79,127
11391,note_off,127,0,0,,7,,,79,127
11391,note_off,0,0,0,,4,,,64,127
11392,note_on,1,0,0,,5,,,65,127
11392,note_on,0,0,0,,8,,,80,127
11519,note_off,127,0,0,,8,,,80,127
11520,note_on,1,0,0,,0,,,84,127
11647,note_off,127,0,0,,0,,,84,127
11647,note_off,0,0,0,,5,,,65,127
11648,note_on,1,0,0,,8,,,68,127
11648,note_on,0,0,0,,8,,,80,127
11775,note_off,127,0,0,,8,,,80,127
11776,note_on,1,0,0,,5,,,77,127
11903,note_off,127,0,0,,5,,,77,127
11903,note_off,0,0,0,,8,,,68,127
11904,note_on,1,0,0,,11,,,70,127
11904,note_on,0,0,0,,7,,,79,127
12031,note_off,127,0,0,,7,,,79,127
12032,note_on,1,0,0,,11,,,82,127
12159,note_off,127,0,0,,11,,,82,127
12159,note_off,0,0,0,,11,,,70,127
12160,note_on,1,0,0,,0,,,72,127
12160,note_on,0,0,0,,7,,,79,127
12287,note_off,127,0,0,,7,,,79,127
12288,note_on,1,0,0,,4,,,76,127
12415,note_off,127,0,0,,4,,,76,127
12416,note_on,1,0,0,,5,,,77,127
12543,note_off,127,0,0,,5,,,77,127
12544,note_off,1,0,0,,0,,,72,127
12544,note_on,0,0,0,,0,,,84,127
12671,note_off,127,0,0,,0,,,84,127
12672,note_on,1,0,0,,8,,,68,127
12672,note_on,0,0,0,,8,,,80,127
12799,note_off,127,0,0,,8,,,80,127
12800,note_on,1,0,0,,5,,,77,127
12927,note_off,127,0,0,,5,,,77,127
12927,note_off,0,0,0,,8,,,68,127
12928,note_on,1,0,0,,11,,,70,127
12928,note_on,0,0,0,,7,,,79,127
13055,note_off,127,0,0,,7,,,79,127
13056,note_on,1,0,0,,11,,,82,127
13183,note_off,127,0,0,,11,,,82,127
13183,note_off,0,0,0,,11,,,70,127
13184,note_on,1,0,0,,0,,,72,127
13184,note_on,0,0,0,,7,,,79,127
13311,note_off,127,0,0,,7,,,79,127
13312,note_on,1,0,0,,4,,,76,127
13439,note_off,127,0,0,,4,,,76,127
13440,note_on,1,0,0,,5,,,77,127
13477,note_off,37,0,0,,0,,,72,127
13502,note_off,25,0,0,,5,,,77,127
13503,note_on,1,0,0,,4,,,76,127
13566,note_off,63,0,0,,4,,,76,127
13567,note_on,1,0,0,,5,,,77,127
13694,note_off,127,0,0,,5,,,77,127
13695,note_on,1,0,0,,10,,,69,127
13695,note_on,0,0,0,,6,,,78,127
13758,note_off,63,0,0,,6,,,78,127
13759,note_on,1,0,0,,4,,,76,127
13822,note_off,63,0,0,,4,,,76,127
13823,note_on,1,0,0,,6,,,78,127
13950,note_off,127,0,0,,6,,,78,127
13950,note_off,0,0,0,,10,,,69,127
13951,note_on,1,0,0,,11,,,70,127
13951,note_on,0,0,0,,7,,,79,127
14014,note_off,63,0,0,,7,,,79,127
14015,note_on,1,0,0,,6,,,78,127
14078,note_off,63,0,0,,6,,,78,127
14079,note_on,1,0,0,,7,,,79,127
14206,note_off,127,0,0,,7,,,79,127
14206,note_off,0,0,0,,11,,,70,127
14207,note_on,1,0,0,,6,,,66,127
14207,note_on,0,0,0,,10,,,81,127
14270,note_off,63,0,0,,10,,,81,127
14271,note_on,1,0,0,,7,,,79,127
14334,note_off,63,0,0,,7,,,79,127
14335,note_on,1,0,0,,10,,,81,127
14462,note_off,127,0,0,,10,,,81,127
14462,note_off,0,0,0,,6,,,66,127
14463,note_on,1,0,0,,7,,,67,127
14463,note_on,0,0,0,,11,,,82,127
14590,note_off,127,0,0,,11,,,82,127
14591,note_on,1,0,0,,2,,,86,127
14718,note_off,127,0,0,,2,,,86,127
14718,note_off,0,0,0,,7,,,67,127
14719,note_on,1,0,0,,11,,,70,127
14719,note_on,0,0,0,,11,,,82,127
14846,note_off,127,0,0,,11,,,82,127
14847,note_on,1,0,0,,7,,,79,127
14974,note_off,127,0,0,,7,,,79,127
14974,note_off,0,0,0,,11,,,70,127
14975,note_on,1,0,0,,0,,,72,127
14975,note_on,0,0,0,,10,,,81,127
15102,note_off,127,0,0,,10,,,81,127
15103,note_on,1,0,0,,0,,,84,127
15230,note_off,127,0,0,,0,,,84,127
15230,note_off,0,0,0,,0,,,72,127
15231,note_on,1,0,0,,2,,,74,127
15231,note_on,0,0,0,,10,,,81,127
15358,note_off,127,0,0,,10,,,81,127
15359,note_on,1,0,0,,6,,,78,127
15486,note_off,127,0,0,,6,,,78,127
15487,note_on,1,0,0,,11,,,82,127
15614,note_off,127,0,0,,11,,,82,127
15615,note_off,1,0,0,,2,,,74,127
15615,note_on,0,0,0,,2,,,86,127
15742,note_off,127,0,0,,2,,,86,127
15743,note_on,1,0,0,,11,,,70,127
15743,note_on,0,0,0,,11,,,82,127
15870,note_off,127,0,0,,11,,,82,127
15871,note_on,1,0,0,,7,,,79,127
15998,note_off,127,0,0,,7,,,79,127
15998,note_off,0,0,0,,11,,,70,127
15999,note_on,1,0,0,,0,,,72,127
15999,note_on,0,0,0,,10,,,81,127
16126,note_off,127,0,0,,10,,,81,127
16127,note_on,1,0,0,,0,,,84,127
16254,note_off,127,0,0,,0,,,84,127
16254,note_off,0,0,0,,0,,,72,127
16255,note_on,1,0,0,,2,,,74,127
16255,note_on,0,0,0,,10,,,81,127
16382,note_off,127,0,0,,10,,,81,127
16383,note_on,1,0,0,,6,,,78,127
16510,note_off,127,0,0,,6,,,78,127
16510,note_off,0,0,0,,2,,,74,127
16511,note_on,1,0,0,,7,,,67,127
16511,note_on,0,0,0,,7,,,79,127
16638,note_off,127,0,0,,7,,,79,127
16639,note_on,1,0,0,,2,,,86,127
16766,note_off,127,0,0,,2,,,86,127
16766,note_off,0,0,0,,7,,,67,127
16767,note_on,1,0,0,,2,,,74,127
16767,note_on,0,0,0,,6,,,78,127
16894,note_off,127,0,0,,6,,,78,127
16895,note_on,1,0,0,,10,,,81,127
17022,note_off,127,0,0,,10,,,81,127
17022,note_off,0,0,0,,2,,,74,127
17023,note_on,1,0,0,,3,,,75,127
17023,note_on,0,0,0,,7,,,79,127
17150,note_off,127,0,0,,7,,,79,127
17151,note_on,1,0,0,,11,,,82,127
17278,note_off,127,0,0,,11,,,82,127
17278,note_off,0,0,0,,3,,,75,127
17279,note_on,1,0,0,,11,,,70,127
17279,note_on,0,0,0,,2,,,74,127
17406,note_off,127,0,0,,2,,,74,127
17407,note_on,1,0,0,,5,,,77,127
17534,note_off,127,0,0,,5,,,77,127
17534,note_off,0,0,0,,11,,,70,127
17535,note_on,1,0,0,,0,,,72,127
17535,note_on,0,0,0,,3,,,75,127
17662,note_off,127,0,0,,3,,,75,127
17663,note_on,1,0,0,,7,,,79,127
17790,note_off,127,0,0,,7,,,79,127
17790,note_off,0,0,0,,0,,,72,127
17791,note_on,1,0,0,,7,,,67,127
17791,note_on,0,0,0,,11,,,70,127
17918,note_off,127,0,0,,11,,,70,127
17919,note_on,1,0,0,,2,,,74,127
18046,note_off,127,0,0,,2,,,74,127
18046,note_off,0,0,0,,7,,,67,127
18047,note_on,1,0,0,,10,,,69,127
18047,note_on,0,0,0,,0,,,72,127
18174,note_off,127,0,0,,0,,,72,127
18175,note_on,1,0,0,,5,,,77,127
18302,note_off,127,0,0,,5,,,77,127
18302,note_off,0,0,0,,10,,,69,127
18303,note_on,1,0,0,,5,,,65,127
18303,note_on,0,0,0,,10,,,69,127
18430,note_off,127,0,0,,10,,,69,127
18431,note_on,1,0,0,,0,,,72,127
18558,note_off,127,0,0,,0,,,72,127
18558,note_off,0,0,0,,5,,,65,127
18559,note_on,1,0,0,,7,,,67,127
18559,note_on,0,0,0,,11,,,70,127
18686,note_off,127,0,0,,11,,,70,127
18687,note_on,1,0,0,,2,,,74,127
18814,note_off,127,0,0,,2,,,74,127
18814,note_off,0,0,0,,7,,,67,127
18815,note_on,1,0,0,,2,,,62,127
18815,note_on,0,0,0,,5,,,65,127
18942,note_off,127,0,0,,5,,,65,127
18943,note_on,1,0,0,,10,,,69,127
19070,note_off,127,0,0,,10,,,69,127
19070,note_off,0,0,0,,2,,,62,127
19071,note_on,1,0,0,,3,,,63,127
19071,note_on,0,0,0,,7,,,67,127
19198,note_off,127,0,0,,7,,,67,127
19199,note_on,1,0,0,,2,,,74,127
19326,note_off,127,0,0,,2,,,74,127
19326,note_off,0,0,0,,3,,,63,127
19327,note_on,1,0,0,,11,,,58,127
19327,note_on,0,0,0,,0,,,72,127
19454,note_off,127,0,0,,0,,,72,127
19455,note_on,1,0,0,,11,,,70,127
19582,note_off,127,0,0,,11,,,70,127
19582,note_off,0,0,0,,11,,,58,127
19583,note_on,1,0,0,,5,,,53,127
19583,note_on,0,0,0,,10,,,69,127
19710,note_off,127,0,0,,10,,,69,127
19711,note_on,1,0,0,,10,,,81,127
19838,note_off,127,0,0,,10,,,81,127
19838,note_off,0,0,0,,5,,,53,127
19839,note_on,1,0,0,,2,,,62,127
19839,note_on,0,0,0,,11,,,82,127
19966,note_off,127,0,0,,11,,,82,127
19967,note_on,1,0,0,,6,,,78,127
20094,note_off,127,0,0,,6,,,78,127
20094,note_off,0,0,0,,2,,,62,127
20095,note_on,1,0,0,,3,,,63,127
20095,note_on,0,0,0,,7,,,79,127
20222,note_off,127,0,0,,7,,,79,127
20223,note_on,1,0,0,,2,,,74,127
20350,note_off,127,0,0,,2,,,74,127
20350,note_off,0,0,0,,3,,,63,127
20351,note_on,1,0,0,,0,,,60,127
20351,note_on,0,0,0,,3,,,75,127
20478,note_off,127,0,0,,3,,,75,127
20479,note_on,1,0,0,,11,,,70,127
20606,note_off,127,0,0,,11,,,70,127
20606,note_off,0,0,0,,0,,,60,127
20607,note_on,1,0,0,,5,,,65,127
20607,note_on,0,0,0,,10,,,69,127
20734,note_off,127,0,0,,10,,,69,127
20735,note_on,1,0,0,,10,,,81,127
20862,note_off,127,0,0,,10,,,81,127
20862,note_off,0,0,0,,5,,,65,127
20863,note_on,1,0,0,,2,,,62,127
20863,note_on,0,0,0,,11,,,82,127
20990,note_off,127,0,0,,11,,,82,127
20991,note_on,1,0,0,,6,,,78,127
21118,note_off,127,0,0,,6,,,78,127
21118,note_off,0,0,0,,2,,,62,127
21119,note_on,1,0,0,,3,,,63,127
21119,note_on,0,0,0,,7,,,79,127
21246,note_off,127,0,0,,7,,,79,127
21247,note_on,1,0,0,,2,,,74,127
21374,note_off,127,0,0,,2,,,74,127
21374,note_off,0,0,0,,3,,,63,127
21375,note_on,1,0,0,,0,,,60,127
21375,note_on,0,0,0,,3,,,75,127
21502,note_off,127,0,0,,3,,,75,127
21503,note_on,1,0,0,,11,,,70,127
21630,note_off,127,0,0,,11,,,70,127
21630,note_off,0,0,0,,0,,,60,127
21631,note_on,1,0,0,,5,,,53,127
21631,note_on,0,0,0,,10,,,69,127
21758,note_off,127,0,0,,10,,,69,127
21759,note_on,1,0,0,,4,,,76,127
21886,note_off,127,0,0,,4,,,76,127
21887,note_on,1,0,0,,5,,,77,127
22014,note_off,127,0,0,,5,,,77,127
22015,note_on,1,0,0,,0,,,72,127
22142,note_off,127,0,0,,0,,,72,127
22143,note_on,1,0,0,,2,,,74,127
22270,note_off,127,0,0,,2,,,74,127
22271,note_on,1,0,0,,10,,,69,127
22398,note_off,127,0,0,,10,,,69,127
22399,note_on,1,0,0,,11,,,70,127
22526,note_off,127,0,0,,11,,,70,127
22527,note_on,1,0,0,,4,,,64,127
22654,note_off,127,0,0,,4,,,64,127
22654,note_off,0,0,0,,5,,,53,127
22655,note_on,1,0,0,,5,,,53,127
22655,note_on,0,0,0,,5,,,65,127
22782,note_off,127,0,0,,5,,,65,127
22783,note_on,1,0,0,,4,,,76,127
22910,note_off,127,0,0,,4,,,76,127
22911,note_on,1,0,0,,5,,,77,127
23038,note_off,127,0,0,,5,,,77,127
23039,note_on,1,0,0,,0,,,72,127
23166,note_off,127,0,0,,0,,,72,127
23167,note_on,1,0,0,,2,,,74,127
23294,note_off,127,0,0,,2,,,74,127
23295,note_on,1,0,0,,10,,,69,127
23422,note_off,127,0,0,,10,,,69,127
23423,note_on,1,0,0,,11,,,70,127
23550,note_off,127,0,0,,11,,,70,127
23551,note_on,1,0,0,,4,,,64,127
23678,note_off,127,0,0,,4,,,64,127
23679,note_on,1,0,0,,5,,,41,127
23679,note_on,0,0,0,,5,,,65,127
23806,note_off,127,0,0,,5,,,65,127
23807,note_on,1,0,0,,4,,,64,127
23934,note_off,127,0,0,,4,,,64,127
23935,note_on,1,0,0,,5,,,65,127
24062,note_off,127,0,0,,5,,,65,127
24063,note_on,1,0,0,,0,,,60,127
24190,note_off,127,0,0,,0,,,60,127
24191,note_on,1,0,0,,2,,,62,127
24318,note_off,127,0,0,,2,,,62,127
24319,note_on,1,0,0,,10,,,57,127
24446,note_off,127,0,0,,10,,,57,127
24447,note_on,1,0,0,,11,,,58,127
24522,note_off,75,0,0,,5,,,53,127
24574,note_off,52,0,0,,11,,,58,127
24575,note_on,1,0,0,,4,,,52,127
24702,note_off,127,0,0,,4,,,52,127
24702,note_off,0,0,0,,5,,,41,127
24703,note_on,1,0,0,,5,,,41,127
24703,note_on,0,0,0,,7,,,55,127
24744,note_off,41,0,0,,7,,,55,127
24745,note_on,1,0,0,,5,,,53,127
24786,note_off,41,0,0,,5,,,53,127
24787,note_on,1,0,0,,7,,,55,127
24828,note_off,41,0,0,,7,,,55,127
24829,note_on,1,0,0,,5,,,53,127
25654,note_off,825,0,0,,5,,,53,127
25723,note_off,69,0,0,,5,,,41,127
25724,note_on,1,0,0,,5,,,53,127
25851,note_off,127,0,0,,5,,,53,127
25852,note_on,1,0,0,,2,,,62,127
25979,note_off,127,0,0,,2,,,62,127
25980,note_on,1,0,0,,0,,,60,127
25980,note_on,0,0,0,,10,,,69,127
26107,note_off,127,0,0,,10,,,69,127
26107,note_off,0,0,0,,0,,,60,127
26108,note_on,1,0,0,,11,,,58,127
26108,note_on,0,0,0,,11,,,70,127
26235,note_off,127,0,0,,11,,,58,127
26236,note_on,1,0,0,,5,,,53,127
26363,note_off,127,0,0,,5,,,53,127
26364,note_on,1,0,0,,3,,,63,127
26428,note_off,64,0,0,,11,,,70,127
26491,note_off,63,0,0,,3,,,63,127
26492,note_on,1,0,0,,2,,,62,127
26492,note_on,0,0,0,,12,,,71,127
26619,note_off,127,0,0,,12,,,71,127
26619,note_off,0,0,0,,2,,,62,127
26620,note_on,1,0,0,,0,,,60,127
26620,note_on,0,0,0,,0,,,72,127
26747,note_off,127,0,0,,0,,,60,127
26748,note_on,1,0,0,,5,,,53,127
26875,note_off,127,0,0,,5,,,53,127
26876,note_on,1,0,0,,2,,,62,127
26940,note_off,64,0,0,,0,,,72,127
27003,note_off,63,0,0,,2,,,62,127
27004,note_on,1,0,0,,0,,,60,127
27004,note_on,0,0,0,,1,,,73,127
27131,note_off,127,0,0,,1,,,73,127
27131,note_off,0,0,0,,0,,,60,127
27132,note_on,1,0,0,,11,,,58,127
27132,note_on,0,0,0,,2,,,74,127
27259,note_off,127,0,0,,11,,,58,127
27260,note_on,1,0,0,,5,,,53,127
27387,note_off,127,0,0,,5,,,53,127
27388,note_on,1,0,0,,3,,,63,127
27452,note_off,64,0,0,,2,,,74,127
27515,note_off,63,0,0,,3,,,63,127
27516,note_on,1,0,0,,2,,,62,127
27516,note_on,0,0,0,,2,,,74,127
27643,note_off,127,0,0,,2,,,74,127
27643,note_off,0,0,0,,2,,,62,127
27644,note_on,1,0,0,,0,,,60,127
27644,note_on,0,0,0,,3,,,75,127
27771,note_off,127,0,0,,0,,,60,127
27772,note_on,1,0,0,,5,,,53,127
27899,note_off,127,0,0,,5,,,53,127
27900,note_on,1,0,0,,2,,,62,127
27964,note_off,64,0,0,,3,,,75,127
28027,note_off,63,0,0,,2,,,62,127
28028,note_on,1,0,0,,0,,,60,127
28028,note_on,0,0,0,,4,,,76,127
28155,note_off,127,0,0,,4,,,76,127
28155,note_off,0,0,0,,0,,,60,127
28156,note_on,1,0,0,,11,,,58,127
28156,note_on,0,0,0,,5,,,77,127
28283,note_off,127,0,0,,11,,,58,127
28284,note_on,1,0,0,,3,,,51,127
28396,note_off,112,0,0,,5,,,77,127
28412,note_on,16,0,0,,6,,,78,127
28539,note_off,127,0,0,,6,,,78,127
28540,note_on,1,0,0,,7,,,79,127
28667,note_off,127,0,0,,7,,,79,127
28668,note_on,1,0,0,,10,,,81,127
28795,note_off,127,0,0,,10,,,81,127
28795,note_off,0,0,0,,3,,,51,127
28796,note_on,1,0,0,,2,,,50,127
28796,note_on,0,0,0,,11,,,82,127
28923,note_off,127,0,0,,11,,,82,127
28924,note_on,1,0,0,,5,,,77,127
29051,note_off,127,0,0,,5,,,77,127
29051,note_off,0,0,0,,2,,,50,127
29052,note_on,1,0,0,,3,,,51,127
29052,note_on,0,0,0,,7,,,79,127
29179,note_off,127,0,0,,7,,,79,127
29180,note_on,1,0,0,,3,,,75,127
29307,note_off,127,0,0,,3,,,75,127
29307,note_off,0,0,0,,3,,,51,127
29308,note_on,1,0,0,,5,,,53,127
29308,note_on,0,0,0,,2,,,74,127
29435,note_off,127,0,0,,2,,,74,127
29436,note_on,1,0,0,,0,,,72,127
29563,note_off,127,0,0,,0,,,72,127
29564,note_on,1,0,0,,5,,,41,127
29564,note_on,0,0,0,,11,,,70,127
29691,note_off,127,0,0,,11,,,70,127
29692,note_on,1,0,0,,10,,,69,127
29819,note_off,127,0,0,,10,,,69,127
29819,note_off,0,0,0,,5,,,41,127
29819,note_off,0,0,0,,5,,,53,127
29820,note_on,1,0,0,,10,,,69,127
29947,note_off,127,0,0,,10,,,69,127
29948,note_on,1,0,0,,2,,,62,127
29948,note_on,0,0,0,,11,,,70,127
30075,note_off,127,0,0,,11,,,70,127
30075,note_off,0,0,0,,2,,,62,127
30076,note_on,1,0,0,,0,,,60,127
30076,note_on,0,0,0,,10,,,69,127
30203,note_off,127,0,0,,10,,,69,127
30203,note_off,0,0,0,,0,,,60,127
30204,note_on,1,0,0,,11,,,58,127
30204,note_on,0,0,0,,11,,,70,127
30331,note_off,127,0,0,,11,,,58,127
30332,note_on,1,0,0,,5,,,53,127
30459,note_off,127,0,0,,5,,,53,127
30460,note_on,1,0,0,,3,,,63,127
30587,note_off,127,0,0,,3,,,63,127
30587,note_off,0,0,0,,11,,,70,127
30588,note_on,1,0,0,,2,,,62,127
30588,note_on,0,0,0,,12,,,71,127
30715,note_off,127,0,0,,12,,,71,127
30715,note_off,0,0,0,,2,,,62,127
30716,note_on,1,0,0,,0,,,60,127
30716,note_on,0,0,0,,0,,,72,127
30843,note_off,127,0,0,,0,,,60,127
30844,note_on,1,0,0,,5,,,53,127
30971,note_off,127,0,0,,5,,,53,127
30972,note_on,1,0,0,,2,,,62,127
31099,note_off,127,0,0,,2,,,62,127
31099,note_off,0,0,0,,0,,,72,127
31100,note_on,1,0,0,,0,,,60,127
31100,note_on,0,0,0,,1,,,73,127
31227,note_off,127,0,0,,1,,,73,127
31227,note_off,0,0,0,,0,,,60,127
31228,note_on,1,0,0,,11,,,58,127
31228,note_on,0,0,0,,2,,,74,127
31355,note_off,127,0,0,,11,,,58,127
31356,note_on,1,0,0,,5,,,53,127
31483,note_off,127,0,0,,5,,,53,127
31484,note_on,1,0,0,,3,,,63,127
31611,note_off,127,0,0,,3,,,63,127
31611,note_off,0,0,0,,2,,,74,127
31612,note_on,1,0,0,,2,,,62,127
31612,note_on,0,0,0,,2,,,74,127
31739,note_off,127,0,0,,2,,,74,127
31739,note_off,0,0,0,,2,,,62,127
31740,note_on,1,0,0,,0,,,60,127
31740,note_on,0,0,0,,3,,,75,127
31867,note_off,127,0,0,,0,,,60,127
31868,note_on,1,0,0,,5,,,53,127
31995,note_off,127,0,0,,5,,,53,127
31996,note_on,1,0,0,,2,,,62,127
32123,note_off,127,0,0,,2,,,62,127
32123,note_off,0,0,0,,3,,,75,127
32124,note_on,1,0,0,,0,,,60,127
32124,note_on,0,0,0,,4,,,76,127
32251,note_off,127,0,0,,4,,,76,127
32251,note_off,0,0,0,,0,,,60,127
32252,note_on,1,0,0,,11,,,58,127
32252,note_on,0,0,0,,5,,,77,127
32379,note_off,127,0,0,,11,,,58,127
32380,note_on,1,0,0,,3,,,51,127
32507,note_off,127,0,0,,5,,,77,127
32508,note_on,1,0,0,,6,,,78,127
32635,note_off,127,0,0,,6,,,78,127
32636,note_on,1,0,0,,7,,,79,127
32763,note_off,127,0,0,,7,,,79,127
32764,note_on,1,0,0,,10,,,81,127
32891,note_off,127,0,0,,10,,,81,127
32891,note_off,0,0,0,,3,,,51,127
32892,note_on,1,0,0,,2,,,50,127
32892,note_on,0,0,0,,11,,,82,127
33019,note_off,127,0,0,,11,,,82,127
33020,note_on,1,0,0,,5,,,77,127
33147,note_off,127,0,0,,5,,,77,127
33147,note_off,0,0,0,,2,,,50,127
33148,note_on,1,0,0,,3,,,51,127
33148,note_on,0,0,0,,7,,,79,127
33275,note_off,127,0,0,,7,,,79,127
33276,note_on,1,0,0,,3,,,75,127
33403,note_off,127,0,0,,3,,,75,127
33403,note_off,0,0,0,,3,,,51,127
33404,note_on,1,0,0,,5,,,53,127
33404,note_on,0,0,0,,2,,,74,127
33531,note_off,127,0,0,,2,,,74,127
33532,note_on,1,0,0,,0,,,72,127
33659,note_off,127,0,0,,0,,,72,127
33660,note_on,1,0,0,,5,,,41,127
33660,note_on,0,0,0,,11,,,70,127
33787,note_off,127,0,0,,11,,,70,127
33788,note_on,1,0,0,,10,,,69,127
33915,note_off,127,0,0,,10,,,69,127
33915,note_off,0,0,0,,5,,,41,127
33915,note_off,0,0,0,,5,,,53,127
33916,note_on,1,0,0,,11,,,58,127
33916,note_on,0,0,0,,11,,,70,127
34043,note_off,127,0,0,,11,,,58,127
34044,note_on,1,0,0,,5,,,65,127
34169,note_off,125,0,0,,11,,,70,127
34170,note_off,1,0,0,,5,,,65,127
34171,note_on,1,0,0,,2,,,62,127
34298,note_off,127,0,0,,2,,,62,127
34299,note_on,1,0,0,,11,,,58,127
34299,note_on,0,0,0,,11,,,82,127
34426,note_off,127,0,0,,11,,,82,127
34426,note_off,0,0,0,,11,,,58,127
34427,note_on,1,0,0,,3,,,63,127
34427,note_on,0,0,0,,11,,,82,127
34554,note_off,127,0,0,,11,,,82,127
34554,note_off,0,0,0,,3,,,63,127
34555,note_on,1,0,0,,7,,,67,127
34555,note_on,0,0,0,,0,,,72,127
34682,note_off,127,0,0,,0,,,72,127
34682,note_off,0,0,0,,7,,,67,127
34683,note_on,1,0,0,,3,,,63,127
34683,note_on,0,0,0,,0,,,72,127
34810,note_off,127,0,0,,0,,,72,127
34810,note_off,0,0,0,,3,,,63,127
34811,note_on,1,0,0,,0,,,60,127
34811,note_on,0,0,0,,11,,,82,127
34938,note_off,127,0,0,,11,,,82,127
34938,note_off,0,0,0,,0,,,60,127
34939,note_on,1,0,0,,5,,,53,127
34939,note_on,0,0,0,,11,,,82,127
35066,note_off,127,0,0,,11,,,82,127
35066,note_off,0,0,0,,5,,,53,127
35067,note_on,1,0,0,,5,,,65,127
35067,note_on,0,0,0,,10,,,81,127
35194,note_off,127,0,0,,5,,,65,127
35195,note_on,1,0,0,,2,,,62,127
35322,note_off,127,0,0,,2,,,62,127
35322,note_off,0,0,0,,10,,,81,127
35323,note_on,1,0,0,,11,,,58,127
35323,note_on,0,0,0,,11,,,82,127
35450,note_off,127,0,0,,11,,,82,127
35450,note_off,0,0,0,,11,,,58,127
35451,note_on,1,0,0,,3,,,63,127
35451,note_on,0,0,0,,11,,,82,127
35578,note_off,127,0,0,,11,,,82,127
35578,note_off,0,0,0,,3,,,63,127
35579,note_on,1,0,0,,7,,,67,127
35579,note_on,0,0,0,,0,,,72,127
35706,note_off,127,0,0,,0,,,72,127
35706,note_off,0,0,0,,7,,,67,127
35707,note_on,1,0,0,,3,,,63,127
35707,note_on,0,0,0,,0,,,72,127
35834,note_off,127,0,0,,0,,,72,127
35834,note_off,0,0,0,,3,,,63,127
35835,note_on,1,0,0,,0,,,60,127
35835,note_on,0,0,0,,11,,,82,127
35962,note_off,127,0,0,,11,,,82,127
35962,note_off,0,0,0,,0,,,60,127
35963,note_on,1,0,0,,5,,,53,127
35963,note_on,0,0,0,,11,,,82,127
36090,note_off,127,0,0,,11,,,82,127
36090,note_off,0,0,0,,5,,,53,127
36091,note_on,1,0,0,,5,,,65,127
36091,note_on,0,0,0,,10,,,81,127
36218,note_off,127,0,0,,5,,,65,127
36219,note_on,1,0,0,,2,,,62,127
36346,note_off,127,0,0,,2,,,62,127
36346,note_off,0,0,0,,10,,,81,127
36347,note_on,1,0,0,,11,,,58,127
36347,note_on,0,0,0,,11,,,82,127
36474,note_off,127,0,0,,11,,,82,127
36474,note_off,0,0,0,,11,,,58,127
36475,note_on,1,0,0,,3,,,63,127
36475,note_on,0,0,0,,11,,,82,127
36602,note_off,127,0,0,,11,,,82,127
36602,note_off,0,0,0,,3,,,63,127
36603,note_on,1,0,0,,7,,,67,127
36603,note_on,0,0,0,,0,,,72,127
36730,note_off,127,0,0,,0,,,72,127
36730,note_off,0,0,0,,7,,,67,127
36731,note_on,1,0,0,,3,,,63,127
36731,note_on,0,0,0,,0,,,72,127
36858,note_off,127,0,0,,0,,,72,127
36858,note_off,0,0,0,,3,,,63,127
36859,note_on,1,0,0,,0,,,60,127
36859,note_on,0,0,0,,11,,,82,127
36986,note_off,127,0,0,,11,,,82,127
36986,note_off,0,0,0,,0,,,60,127
36987,note_on,1,0,0,,5,,,53,127
36987,note_on,0,0,0,,10,,,81,127
37114,note_off,127,0,0,,10,,,81,127
37115,note_on,1,0,0,,3,,,75,127
37242,note_off,127,0,0,,3,,,75,127
37242,note_off,0,0,0,,5,,,53,127
37243,note_on,1,0,0,,3,,,51,127
37243,note_on,0,0,0,,2,,,74,127
37370,note_off,127,0,0,,2,,,74,127
37371,note_on,1,0,0,,0,,,72,127
37498,note_off,127,0,0,,0,,,72,127
37498,note_off,0,0,0,,3,,,51,127
37499,note_on,1,0,0,,5,,,53,127
37499,note_on,0,0,0,,2,,,74,127
37626,note_off,127,0,0,,2,,,74,127
37627,note_on,1,0,0,,11,,,70,127
37754,note_off,127,0,0,,11,,,70,127
37755,note_on,1,0,0,,5,,,41,127
37755,note_on,0,0,0,,0,,,72,127
37882,note_off,127,0,0,,0,,,72,127
37883,note_on,1,0,0,,10,,,69,127
38010,note_off,127,0,0,,10,,,69,127
38010,note_off,0,0,0,,5,,,41,127
38010,note_off,0,0,0,,5,,,53,127
38011,note_on,1,0,0,,11,,,46,127
38011,note_on,0,0,0,,11,,,70,127
38138,note_off,127,0,0,,11,,,46,127
38139,note_on,1,0,0,,5,,,53,127
38266,note_off,127,0,0,,5,,,53,127
38267,note_on,1,0,0,,2,,,50,127
38331,note_off,64,0,0,,11,,,70,127
38394,note_off,63,0,0,,2,,,50,127
38395,note_on,1,0,0,,11,,,46,127
38395,note_on,0,0,0,,11,,,70,127
38522,note_off,127,0,0,,11,,,70,127
38522,note_off,0,0,0,,11,,,46,127
38523,note_on,1,0,0,,3,,,51,127
38523,note_on,0,0,0,,11,,,70,127
38650,note_off,127,0,0,,11,,,70,127
38650,note_off,0,0,0,,3,,,51,127
38651,note_on,1,0,0,,7,,,55,127
38651,note_on,0,0,0,,0,,,60,127
38778,note_off,127,0,0,,0,,,60,127
38778,note_off,0,0,0,,7,,,55,127
38779,note_on,1,0,0,,3,,,51,127
38779,note_on,0,0,0,,0,,,60,127
38906,note_off,127,0,0,,0,,,60,127
38906,note_off,0,0,0,,3,,,51,127
38907,note_on,1,0,0,,0,,,48,127
38907,note_on,0,0,0,,11,,,70,127
39034,note_off,127,0,0,,11,,,70,127
39034,note_off,0,0,0,,0,,,48,127
39035,note_on,1,0,0,,5,,,41,127
39035,note_on,0,0,0,,11,,,70,127
39162,note_off,127,0,0,,11,,,70,127
39162,note_off,0,0,0,,5,,,41,127
39163,note_on,1,0,0,,5,,,53,127
39163,note_on,0,0,0,,10,,,69,127
39290,note_off,127,0,0,,5,,,53,127
39291,note_on,1,0,0,,2,,,50,127
39418,note_off,127,0,0,,2,,,50,127
39418,note_off,0,0,0,,10,,,69,127
39419,note_on,1,0,0,,11,,,46,127
39419,note_on,0,0,0,,11,,,70,127
39546,note_off,127,0,0,,11,,,70,127
39546,note_off,0,0,0,,11,,,46,127
39547,note_on,1,0,0,,3,,,51,127
39547,note_on,0,0,0,,11,,,70,127
39674,note_off,127,0,0,,11,,,70,127
39674,note_off,0,0,0,,3,,,51,127
39675,note_on,1,0,0,,7,,,55,127
39675,note_on,0,0,0,,0,,,60,127
39802,note_off,127,0,0,,0,,,60,127
39802,note_off,0,0,0,,7,,,55,127
39803,note_on,1,0,0,,3,,,51,127
39803,note_on,0,0,0,,0,,,60,127
39930,note_off,127,0,0,,0,,,60,127
39930,note_off,0,0,0,,3,,,51,127
39931,note_on,1,0,0,,0,,,48,127
39931,note_on,0,0,0,,11,,,70,127
40058,note_off,127,0,0,,11,,,70,127
40058,note_off,0,0,0,,0,,,48,127
40059,note_on,1,0,0,,5,,,41,127
40059,note_on,0,0,0,,11,,,70,127
40186,note_off,127,0,0,,11,,,70,127
40186,note_off,0,0,0,,5,,,41,127
40187,note_on,1,0,0,,5,,,53,127
40187,note_on,0,0,0,,10,,,69,127
40314,note_off,127,0,0,,5,,,53,127
40315,note_on,1,0,0,,2,,,50,127
40442,note_off,127,0,0,,2,,,50,127
40442,note_off,0,0,0,,10,,,69,127
40443,note_on,1,0,0,,11,,,46,127
40443,note_on,0,0,0,,11,,,70,127
40570,note_off,127,0,0,,11,,,70,127
40570,note_off,0,0,0,,11,,,46,127
40571,note_on,1,0,0,,3,,,51,127
40571,note_on,0,0,0,,11,,,70,127
40698,note_off,127,0,0,,11,,,70,127
40698,note_off,0,0,0,,3,,,51,127
40699,note_on,1,0,0,,7,,,55,127
40699,note_on,0,0,0,,0,,,60,127
40826,note_off,127,0,0,,0,,,60,127
40826,note_off,0,0,0,,7,,,55,127
40827,note_on,1,0,0,,3,,,51,127
40827,note_on,0,0,0,,0,,,60,127
40954,note_off,127,0,0,,0,,,60,127
40954,note_off,0,0,0,,3,,,51,127
40955,note_on,1,0,0,,0,,,48,127
40955,note_on,0,0,0,,11,,,70,127
41082,note_off,127,0,0,,11,,,70,127
41082,note_off,0,0,0,,0,,,48,127
41083,note_on,1,0,0,,5,,,53,127
41083,note_on,0,0,0,,10,,,69,127
41168,note_on,85,0,0,,11,,,70,127
41173,note_off,5,0,0,,10,,,69,127
41253,note_on,80,0,0,,0,,,72,127
41258,note_off,5,0,0,,11,,,70,127
41337,note_off,79,0,0,,5,,,53,127
41338,note_on,1,0,0,,3,,,51,127
41338,note_on,0,0,0,,2,,,74,127
41343,note_off,5,0,0,,0,,,72,127
41423,note_on,80,0,0,,3,,,75,127
41428,note_off,5,0,0,,2,,,74,127
41508,note_on,80,0,0,,5,,,77,127
41513,note_off,5,0,0,,3,,,75,127
41592,note_off,79,0,0,,3,,,51,127
41593,note_on,1,0,0,,5,,,53,127
41593,note_on,0,0,0,,2,,,74,127
41598,note_off,5,0,0,,5,,,77,127
41719,note_off,121,0,0,,2,,,74,127
41720,note_on,1,0,0,,11,,,70,127
41847,note_off,127,0,0,,11,,,70,127
41848,note_on,1,0,0,,5,,,41,127
41848,note_on,0,0,0,,0,,,72,127
41975,note_off,127,0,0,,0,,,72,127
41976,note_on,1,0,0,,10,,,69,127
42103,note_off,127,0,0,,10,,,69,127
42103,note_off,0,0,0,,5,,,41,127
42103,note_off,0,0,0,,5,,,53,127
42104,note_on,1,0,0,,11,,,46,127
42104,note_on,0,0,0,,11,,,70,127
42189,note_on,85,0,0,,2,,,74,127
42194,note_off,5,0,0,,11,,,70,127
42274,note_on,80,0,0,,5,,,77,127
42279,note_off,5,0,0,,2,,,74,127
42359,note_on,80,0,0,,3,,,75,127
42364,note_off,5,0,0,,5,,,77,127
42444,note_on,80,0,0,,2,,,74,127
42449,note_off,5,0,0,,3,,,75,127
42529,note_on,80,0,0,,0,,,72,127
42534,note_off,5,0,0,,2,,,74,127
42614,note_on,80,0,0,,11,,,70,127
42619,note_off,5,0,0,,0,,,72,127
42699,note_on,80,0,0,,10,,,69,127
42704,note_off,5,0,0,,11,,,70,127
42741,note_off,37,0,0,,11,,,46,127
42784,note_on,43,0,0,,7,,,67,127
42789,note_off,5,0,0,,10,,,69,127
42869,note_on,80,0,0,,3,,,51,127
42869,note_on,0,0,0,,5,,,65,127
42874,note_off,5,0,0,,7,,,67,127
42954,note_on,80,0,0,,7,,,67,127
42959,note_off,5,0,0,,5,,,65,127
43039,note_on,80,0,0,,10,,,69,127
43044,note_off,5,0,0,,7,,,67,127
43123,note_off,79,0,0,,3,,,51,127
43124,note_on,1,0,0,,2,,,50,127
43124,note_on,0,0,0,,11,,,70,127
43129,note_off,5,0,0,,10,,,69,127
43209,note_on,80,0,0,,2,,,74,127
43214,note_off,5,0,0,,11,,,70,127
43294,note_on,80,0,0,,5,,,77,127
43299,note_off,5,0,0,,2,,,74,127
43378,note_off,79,0,0,,2,,,50,127
43379,note_on,1,0,0,,3,,,51,127
43379,note_on,0,0,0,,3,,,75,127
43384,note_off,5,0,0,,5,,,77,127
43464,note_on,80,0,0,,2,,,74,127
43469,note_off,5,0,0,,3,,,75,127
43549,note_on,80,0,0,,0,,,72,127
43554,note_off,5,0,0,,2,,,74,127
43633,note_off,79,0,0,,3,,,51,127
43634,note_on,1,0,0,,5,,,53,127
43634,note_on,0,0,0,,11,,,70,127
43639,note_off,5,0,0,,0,,,72,127
43719,note_on,80,0,0,,10,,,69,127
43724,note_off,5,0,0,,11,,,70,127
43804,note_on,80,0,0,,7,,,67,127
43809,note_off,5,0,0,,10,,,69,127
43888,note_off,79,0,0,,5,,,53,127
43889,note_on,1,0,0,,3,,,51,127
43889,note_on,0,0,0,,5,,,65,127
43894,note_off,5,0,0,,7,,,67,127
43974,note_on,80,0,0,,7,,,67,127
43979,note_off,5,0,0,,5,,,65,127
44059,note_on,80,0,0,,10,,,69,127
44064,note_off,5,0,0,,7,,,67,127
44143,note_off,79,0,0,,3,,,51,127
44144,note_on,1,0,0,,2,,,50,127
44144,note_on,0,0,0,,11,,,70,127
44149,note_off,5,0,0,,10,,,69,127
44229,note_on,80,0,0,,2,,,74,127
44234,note_off,5,0,0,,11,,,70,127
44314,note_on,80,0,0,,5,,,77,127
44319,note_off,5,0,0,,2,,,74,127
44398,note_off,79,0,0,,2,,,50,127
44399,note_on,1,0,0,,3,,,51,127
44399,note_on,0,0,0,,3,,,75,127
44404,note_off,5,0,0,,5,,,77,127
44484,note_on,80,0,0,,2,,,74,127
44489,note_off,5,0,0,,3,,,75,127
44569,note_on,80,0,0,,0,,,72,127
44574,note_off,5,0,0,,2,,,74,127
44653,note_off,79,0,0,,3,,,51,127
44654,note_on,1,0,0,,5,,,53,127
44654,note_on,0,0,0,,11,,,70,127
44659,note_off,5,0,0,,0,,,72,127
44739,note_on,80,0,0,,10,,,69,127
44744,note_off,5,0,0,,11,,,70,127
44824,note_on,80,0,0,,7,,,67,127
44829,note_off,5,0,0,,10,,,69,127
44908,note_off,79,0,0,,5,,,53,127
44909,note_on,1,0,0,,3,,,51,127
44909,note_on,0,0,0,,5,,,65,127
44914,note_off,5,0,0,,7,,,67,127
44994,note_on,80,0,0,,7,,,67,127
44999,note_off,5,0,0,,5,,,65,127
45079,note_on,80,0,0,,10,,,69,127
45084,note_off,5,0,0,,7,,,67,127
45163,note_off,79,0,0,,3,,,51,127
45164,note_on,1,0,0,,2,,,50,127
45164,note_on,0,0,0,,11,,,70,127
45169,note_off,5,0,0,,10,,,69,127
45249,note_on,80,0,0,,0,,,72,127
45254,note_off,5,0,0,,11,,,70,127
45334,note_on,80,0,0,,2,,,74,127
45339,note_off,5,0,0,,0,,,72,127
45418,note_off,79,0,0,,2,,,50,127
45419,note_on,1,0,0,,3,,,51,127
45419,note_on,0,0,0,,3,,,75,127
45424,note_off,5,0,0,,2,,,74,127
45504,note_on,80,0,0,,5,,,77,127
45509,note_off,5,0,0,,3,,,75,127
45589,note_on,80,0,0,,7,,,79,127
45594,note_off,5,0,0,,5,,,77,127
45673,note_off,79,0,0,,3,,,51,127
45674,note_on,1,0,0,,5,,,53,127
45674,note_on,0,0,0,,5,,,77,127
45679,note_off,5,0,0,,7,,,79,127
45759,note_on,80,0,0,,3,,,75,127
45764,note_off,5,0,0,,5,,,77,127
45844,note_on,80,0,0,,2,,,74,127
45849,note_off,5,0,0,,3,,,75,127
45928,note_off,79,0,0,,5,,,53,127
45929,note_on,1,0,0,,5,,,41,127
45929,note_on,0,0,0,,0,,,72,127
45934,note_off,5,0,0,,2,,,74,127
46014,note_on,80,0,0,,11,,,70,127
46019,note_off,5,0,0,,0,,,72,127
46099,note_on,80,0,0,,10,,,69,127
46104,note_off,5,0,0,,11,,,70,127
46183,note_off,79,0,0,,5,,,41,127
46184,note_on,1,0,0,,11,,,46,127
46184,note_on,0,0,0,,11,,,70,127
46189,note_off,5,0,0,,10,,,69,127
46269,note_on,80,0,0,,2,,,74,127
46274,note_off,5,0,0,,11,,,70,127
46354,note_on,80,0,0,,5,,,77,127
46359,note_off,5,0,0,,2,,,74,127
46439,note_on,80,0,0,,3,,,75,127
46444,note_off,5,0,0,,5,,,77,127
46524,note_on,80,0,0,,2,,,74,127
46529,note_off,5,0,0,,3,,,75,127
46609,note_on,80,0,0,,0,,,72,127
46614,note_off,5,0,0,,2,,,74,127
46694,note_on,80,0,0,,11,,,70,127
46699,note_off,5,0,0,,0,,,72,127
46779,note_on,80,0,0,,10,,,69,127
46784,note_off,5,0,0,,11,,,70,127
46864,note_on,80,0,0,,7,,,67,127
46869,note_off,5,0,0,,10,,,69,127
46948,note_off,79,0,0,,11,,,46,127
46949,note_on,1,0,0,,3,,,51,127
46949,note_on,0,0,0,,5,,,65,127
46954,note_off,5,0,0,,7,,,67,127
47034,note_on,80,0,0,,7,,,67,127
47039,note_off,5,0,0,,5,,,65,127
47119,note_on,80,0,0,,10,,,69,127
47124,note_off,5,0,0,,7,,,67,127
47203,note_off,79,0,0,,3,,,51,127
47204,note_on,1,0,0,,2,,,50,127
47204,note_on,0,0,0,,11,,,70,127
47209,note_off,5,0,0,,10,,,69,127
47289,note_on,80,0,0,,2,,,74,127
47294,note_off,5,0,0,,11,,,70,127
47374,note_on,80,0,0,,5,,,77,127
47379,note_off,5,0,0,,2,,,74,127
47458,note_off,79,0,0,,2,,,50,127
47459,note_on,1,0,0,,3,,,51,127
47459,note_on,0,0,0,,3,,,75,127
47464,note_off,5,0,0,,5,,,77,127
47544,note_on,80,0,0,,2,,,74,127
47549,note_off,5,0,0,,3,,,75,127
47629,note_on,80,0,0,,0,,,72,127
47634,note_off,5,0,0,,2,,,74,127
47713,note_off,79,0,0,,3,,,51,127
47714,note_on,1,0,0,,5,,,53,127
47714,note_on,0,0,0,,11,,,70,127
47719,note_off,5,0,0,,0,,,72,127
47799,note_on,80,0,0,,10,,,69,127
47804,note_off,5,0,0,,11,,,70,127
47884,note_on,80,0,0,,7,,,67,127
47889,note_off,5,0,0,,10,,,69,127
47968,note_off,79,0,0,,5,,,53,127
47969,note_on,1,0,0,,3,,,51,127
47969,note_on,0,0,0,,5,,,65,127
47974,note_off,5,0,0,,7,,,67,127
48054,note_on,80,0,0,,7,,,67,127
48059,note_off,5,0,0,,5,,,65,127
48139,note_on,80,0,0,,10,,,69,127
48144,note_off,5,0,0,,7,,,67,127
48223,note_off,79,0,0,,3,,,51,127
48224,note_on,1,0,0,,2,,,50,127
48224,note_on,0,0,0,,11,,,70,127
48229,note_off,5,0,0,,10,,,69,127
48309,note_on,80,0,0,,2,,,74,127
48314,note_off,5,0,0,,11,,,70,127
48394,note_on,80,0,0,,5,,,77,127
48399,note_off,5,0,0,,2,,,74,127
48478,note_off,79,0,0,,2,,,50,127
48479,note_on,1,0,0,,3,,,51,127
48479,note_on,0,0,0,,3,,,75,127
48484,note_off,5,0,0,,5,,,77,127
48564,note_on,80,0,0,,2,,,74,127
48569,note_off,5,0,0,,3,,,75,127
48649,note_on,80,0,0,,0,,,72,127
48654,note_off,5,0,0,,2,,,74,127
48733,note_off,79,0,0,,3,,,51,127
48734,note_on,1,0,0,,5,,,53,127
48734,note_on,0,0,0,,11,,,70,127
48739,note_off,5,0,0,,0,,,72,127
48819,note_on,80,0,0,,10,,,69,127
48824,note_off,5,0,0,,11,,,70,127
48904,note_on,80,0,0,,7,,,67,127
48909,note_off,5,0,0,,10,,,69,127
48988,note_off,79,0,0,,5,,,53,127
48989,note_on,1,0,0,,3,,,51,127
48989,note_on,0,0,0,,5,,,65,127
48994,note_off,5,0,0,,7,,,67,127
49074,note_on,80,0,0,,7,,,67,127
49079,note_off,5,0,0,,5,,,65,127
49159,note_on,80,0,0,,10,,,69,127
49164,note_off,5,0,0,,7,,,67,127
49243,note_off,79,0,0,,3,,,51,127
49244,note_on,1,0,0,,2,,,50,127
49244,note_on,0,0,0,,11,,,70,127
49249,note_off,5,0,0,,10,,,69,127
49329,note_on,80,0,0,,0,,,72,127
49334,note_off,5,0,0,,11,,,70,127
49414,note_on,80,0,0,,2,,,74,127
49419,note_off,5,0,0,,0,,,72,127
49498,note_off,79,0,0,,2,,,50,127
49499,note_on,1,0,0,,3,,,51,127
49499,note_on,0,0,0,,3,,,75,127
49504,note_off,5,0,0,,2,,,74,127
49584,note_on,80,0,0,,5,,,77,127
49589,note_off,5,0,0,,3,,,75,127
49669,note_on,80,0,0,,7,,,79,127
49674,note_off,5,0,0,,5,,,77,127
49753,note_off,79,0,0,,3,,,51,127
49754,note_on,1,0,0,,5,,,53,127
49754,note_on,0,0,0,,5,,,77,127
49759,note_off,5,0,0,,7,,,79,127
49839,note_on,80,0,0,,3,,,75,127
49844,note_off,5,0,0,,5,,,77,127
49924,note_on,80,0,0,,2,,,74,127
49929,note_off,5,0,0,,3,,,75,127
50008,note_off,79,0,0,,5,,,53,127
50009,note_on,1,0,0,,5,,,41,127
50009,note_on,0,0,0,,0,,,72,127
50014,note_off,5,0,0,,2,,,74,127
50094,note_on,80,0,0,,11,,,70,127
50099,note_off,5,0,0,,0,,,72,127
50179,note_on,80,0,0,,10,,,69,127
50184,note_off,5,0,0,,11,,,70,127
50263,note_off,79,0,0,,5,,,41,127
50264,note_on,1,0,0,,11,,,34,127
50264,note_on,0,0,0,,0,,,72,127
50269,note_off,5,0,0,,10,,,69,127
50305,note_off,36,0,0,,0,,,72,127
50306,note_on,1,0,0,,11,,,70,127
50347,note_off,41,0,0,,11,,,70,127
50348,note_on,1,0,0,,0,,,72,127
50389,note_off,41,0,0,,0,,,72,127
50390,note_on,1,0,0,,11,,,70,127
51243,note_off,853,0,0,,11,,,70,127
51284,note_off,41,0,0,,11,,,34,127
51285,note_on,1,0,0,,11,,,46,127
51285,note_on,0,0,0,,2,,,74,127
51285,note_on,0,0,0,,11,,,70,127
51540,note_off,255,0,0,,11,,,70,127
51540,note_off,0,0,0,,2,,,74,127
51541,note_on,1,0,0,,2,,,74,127
51541,note_on,0,0,0,,11,,,70,127
51668,note_off,127,0,0,,11,,,70,127
51668,note_off,0,0,0,,2,,,74,127
51669,note_on,1,0,0,,2,,,74,127
51669,note_on,0,0,0,,11,,,70,127
51796,note_off,127,0,0,,11,,,70,127
51796,note_off,0,0,0,,2,,,74,127
51797,note_on,1,0,0,,2,,,74,127
51797,note_on,0,0,0,,11,,,70,127
51924,note_off,127,0,0,,11,,,70,127
51924,note_off,0,0,0,,2,,,74,127
51925,note_on,1,0,0,,3,,,75,127
52052,note_off,127,0,0,,3,,,75,127
52053,note_on,1,0,0,,2,,,74,127
52180,note_off,127,0,0,,2,,,74,127
52181,note_on,1,0,0,,0,,,72,127
52308,note_off,127,0,0,,0,,,72,127
52308,note_off,0,0,0,,11,,,46,127
52309,note_on,1,0,0,,11,,,70,127
52436,note_off,127,0,0,,11,,,70,127
52437,note_on,1,0,0,,3,,,63,127
52437,note_on,0,0,0,,10,,,69,127
52564,note_off,127,0,0,,10,,,69,127
52564,note_off,0,0,0,,3,,,63,127
52565,note_on,1,0,0,,2,,,62,127
52565,note_on,0,0,0,,11,,,70,127
52692,note_off,127,0,0,,11,,,70,127
52692,note_off,0,0,0,,2,,,62,127
52693,note_on,1,0,0,,0,,,60,127
52693,note_on,0,0,0,,0,,,72,127
52820,note_off,127,0,0,,0,,,72,127
52820,note_off,0,0,0,,0,,,60,127
52821,note_on,1,0,0,,11,,,58,127
52821,note_on,0,0,0,,2,,,74,127
52948,note_off,127,0,0,,2,,,74,127
52949,note_on,1,0,0,,3,,,75,127
53076,note_off,127,0,0,,3,,,75,127
53076,note_off,0,0,0,,11,,,58,127
53077,note_on,1,0,0,,5,,,53,127
53077,note_on,0,0,0,,5,,,77,127
53204,note_off,127,0,0,,5,,,77,127
53205,note_on,1,0,0,,3,,,75,127
53332,note_off,127,0,0,,3,,,75,127
53332,note_off,0,0,0,,5,,,53,127
53333,note_on,1,0,0,,11,,,46,127
53333,note_on,0,0,0,,2,,,74,127
53333,note_on,0,0,0,,11,,,70,127
53588,note_off,255,0,0,,11,,,70,127
53588,note_off,0,0,0,,2,,,74,127
53589,note_on,1,0,0,,2,,,74,127
53589,note_on,0,0,0,,11,,,70,127
53716,note_off,127,0,0,,11,,,70,127
53716,note_off,0,0,0,,2,,,74,127
53717,note_on,1,0,0,,11,,,70,127
53717,note_on,0,0,0,,2,,,74,127
53844,note_off,127,0,0,,2,,,74,127
53844,note_off,0,0,0,,11,,,70,127
53845,note_on,1,0,0,,11,,,70,127
53845,note_on,0,0,0,,2,,,74,127
53972,note_off,127,0,0,,2,,,74,127
53973,note_on,1,0,0,,3,,,75,127
54037,note_off,64,0,0,,11,,,70,127
54100,note_off,63,0,0,,3,,,75,127
54101,note_on,1,0,0,,2,,,74,127
54228,note_off,127,0,0,,2,,,74,127
54229,note_on,1,0,0,,0,,,72,127
54356,note_off,127,0,0,,0,,,72,127
54356,note_off,0,0,0,,11,,,46,127
54357,note_on,1,0,0,,11,,,70,127
54484,note_off,127,0,0,,11,,,70,127
54485,note_on,1,0,0,,3,,,63,127
54485,note_on,0,0,0,,10,,,69,127
54612,note_off,127,0,0,,10,,,69,127
54612,note_off,0,0,0,,3,,,63,127
54613,note_on,1,0,0,,2,,,62,127
54613,note_on,0,0,0,,11,,,70,127
54740,note_off,127,0,0,,11,,,70,127
54740,note_off,0,0,0,,2,,,62,127
54741,note_on,1,0,0,,0,,,60,127
54741,note_on,0,0,0,,0,,,72,127
54868,note_off,127,0,0,,0,,,72,127
54868,note_off,0,0,0,,0,,,60,127
54869,note_on,1,0,0,,11,,,58,127
54869,note_on,0,0,0,,2,,,74,127
54996,note_off,127,0,0,,2,,,74,127
54997,note_on,1,0,0,,3,,,75,127
55124,note_off,127,0,0,,3,,,75,127
55124,note_off,0,0,0,,11,,,58,127
55125,note_on,1,0,0,,5,,,53,127
55125,note_on,0,0,0,,5,,,77,127
55252,note_off,127,0,0,,5,,,77,127
55253,note_on,1,0,0,,3,,,75,127
55380,note_off,127,0,0,,3,,,75,127
55380,note_off,0,0,0,,5,,,53,127
55381,note_on,1,0,0,,11,,,46,127
55381,note_on,0,0,0,,2,,,74,127
55509,note_on,128,0,0,,11,,,70,127
55636,note_off,127,0,0,,11,,,70,127
55637,note_on,1,0,0,,10,,,69,127
55764,note_off,127,0,0,,10,,,69,127
55765,note_off,1,0,0,,2,,,74,127
55765,note_on,0,0,0,,7,,,67,127
55892,note_off,127,0,0,,7,,,67,127
55893,note_on,1,0,0,,5,,,65,127
56020,note_off,127,0,0,,11,,,46,127
56021,note_on,1,0,0,,11,,,58,127
56148,note_off,127,0,0,,11,,,58,127
56148,note_off,0,0,0,,5,,,65,127
56149,note_on,1,0,0,,8,,,56,127
56149,note_on,0,0,0,,7,,,67,127
56276,note_off,127,0,0,,8,,,56,127
56277,note_on,1,0,0,,7,,,55,127
56404,note_off,127,0,0,,7,,,55,127
56404,note_off,0,0,0,,7,,,67,127
56405,note_on,1,0,0,,5,,,53,127
56405,note_on,0,0,0,,8,,,68,127
56533,note_on,128,0,0,,8,,,80,127
56658,note_off,125,0,0,,8,,,68,127
56659,note_off,1,0,0,,8,,,80,127
56659,note_off,0,0,0,,5,,,53,127
56660,note_on,1,0,0,,5,,,65,127
56660,note_on,0,0,0,,7,,,79,127
56787,note_off,127,0,0,,7,,,79,127
56788,note_on,1,0,0,,5,,,77,127
56915,note_off,127,0,0,,5,,,77,127
56915,note_off,0,0,0,,5,,,65,127
56916,note_on,1,0,0,,7,,,67,127
56916,note_on,0,0,0,,3,,,75,127
57043,note_off,127,0,0,,3,,,75,127
57044,note_on,1,0,0,,2,,,74,127
57171,note_off,127,0,0,,2,,,74,127
57172,note_on,1,0,0,,7,,,55,127
57172,note_on,0,0,0,,0,,,72,127
57299,note_off,127,0,0,,0,,,72,127
57300,note_off,1,0,0,,7,,,67,127
57300,note_on,0,0,0,,12,,,71,127
57427,note_off,127,0,0,,12,,,71,127
57427,note_off,0,0,0,,7,,,55,127
57428,note_on,1,0,0,,0,,,48,127
57428,note_on,0,0,0,,3,,,75,127
57428,note_on,0,0,0,,0,,,72,127
57683,note_off,255,0,0,,0,,,72,127
57683,note_off,0,0,0,,3,,,75,127
57684,note_on,1,0,0,,0,,,72,127
57684,note_on,0,0,0,,3,,,75,127
57811,note_off,127,0,0,,3,,,75,127
57811,note_off,0,0,0,,0,,,72,127
57812,note_on,1,0,0,,0,,,72,127
57812,note_on,0,0,0,,3,,,75,127
57939,note_off,127,0,0,,3,,,75,127
57939,note_off,0,0,0,,0,,,72,127
57940,note_on,1,0,0,,3,,,75,127
57940,note_on,0,0,0,,0,,,72,127
58067,note_off,127,0,0,,0,,,72,127
58067,note_off,0,0,0,,3,,,75,127
58068,note_on,1,0,0,,5,,,77,127
58195,note_off,127,0,0,,5,,,77,127
58196,note_on,1,0,0,,3,,,75,127
58323,note_off,127,0,0,,3,,,75,127
58324,note_on,1,0,0,,2,,,74,127
58451,note_off,127,0,0,,2,,,74,127
58451,note_off,0,0,0,,0,,,48,127
58452,note_on,1,0,0,,0,,,72,127
58579,note_off,127,0,0,,0,,,72,127
58580,note_on,1,0,0,,5,,,65,127
58580,note_on,0,0,0,,12,,,71,127
58707,note_off,127,0,0,,12,,,71,127
58707,note_off,0,0,0,,5,,,65,127
58708,note_on,1,0,0,,3,,,63,127
58708,note_on,0,0,0,,0,,,72,127
58835,note_off,127,0,0,,0,,,72,127
58835,note_off,0,0,0,,3,,,63,127
58836,note_on,1,0,0,,2,,,62,127
58836,note_on,0,0,0,,2,,,74,127
58963,note_off,127,0,0,,2,,,74,127
58963,note_off,0,0,0,,2,,,62,127
58964,note_on,1,0,0,,0,,,60,127
58964,note_on,0,0,0,,3,,,75,127
59091,note_off,127,0,0,,3,,,75,127
59092,note_on,1,0,0,,5,,,77,127
59219,note_off,127,0,0,,5,,,77,127
59219,note_off,0,0,0,,0,,,60,127
59220,note_on,1,0,0,,7,,,55,127
59220,note_on,0,0,0,,7,,,79,127
59347,note_off,127,0,0,,7,,,79,127
59348,note_on,1,0,0,,5,,,77,127
59475,note_off,127,0,0,,5,,,77,127
59475,note_off,0,0,0,,7,,,55,127
59476,note_on,1,0,0,,0,,,48,127
59476,note_on,0,0,0,,3,,,75,127
59476,note_on,0,0,0,,0,,,72,127
59731,note_off,255,0,0,,0,,,72,127
59731,note_off,0,0,0,,3,,,75,127
59732,note_on,1,0,0,,0,,,72,127
59732,note_on,0,0,0,,3,,,75,127
59859,note_off,127,0,0,,3,,,75,127
59859,note_off,0,0,0,,0,,,72,127
59860,note_on,1,0,0,,0,,,72,127
59860,note_on,0,0,0,,3,,,75,127
59987,note_off,127,0,0,,3,,,75,127
59987,note_off,0,0,0,,0,,,72,127
59988,note_on,1,0,0,,0,,,72,127
59988,note_on,0,0,0,,3,,,75,127
60115,note_off,127,0,0,,3,,,75,127
60116,note_on,1,0,0,,5,,,77,127
60180,note_off,64,0,0,,0,,,72,127
60243,note_off,63,0,0,,5,,,77,127
60244,note_on,1,0,0,,3,,,75,127
60371,note_off,127,0,0,,3,,,75,127
60372,note_on,1,0,0,,2,,,74,127
60499,note_off,127,0,0,,2,,,74,127
60499,note_off,0,0,0,,0,,,48,127
60500,note_on,1,0,0,,0,,,72,127
60627,note_off,127,0,0,,0,,,72,127
60628,note_on,1,0,0,,5,,,65,127
60628,note_on,0,0,0,,12,,,71,127
60755,note_off,127,0,0,,12,,,71,127
60755,note_off,0,0,0,,5,,,65,127
60756,note_on,1,0,0,,3,,,63,127
60756,note_on,0,0,0,,0,,,72,127
60883,note_off,127,0,0,,0,,,72,127
60883,note_off,0,0,0,,3,,,63,127
60884,note_on,1,0,0,,2,,,62,127
60884,note_on,0,0,0,,2,,,74,127
61011,note_off,127,0,0,,2,,,74,127
61011,note_off,0,0,0,,2,,,62,127
61012,note_on,1,0,0,,0,,,60,127
61012,note_on,0,0,0,,3,,,75,127
61139,note_off,127,0,0,,3,,,75,127
61140,note_on,1,0,0,,5,,,77,127
61267,note_off,127,0,0,,5,,,77,127
61267,note_off,0,0,0,,0,,,60,127
61268,note_on,1,0,0,,7,,,55,127
61268,note_on,0,0,0,,7,,,79,127
61395,note_off,127,0,0,,7,,,79,127
61396,note_on,1,0,0,,5,,,77,127
61523,note_off,127,0,0,,5,,,77,127
61523,note_off,0,0,0,,7,,,55,127
61524,note_on,1,0,0,,0,,,48,127
61524,note_on,0,0,0,,3,,,75,127
61652,note_on,128,0,0,,0,,,72,127
61779,note_off,127,0,0,,0,,,72,127
61780,note_on,1,0,0,,11,,,70,127
61907,note_off,127,0,0,,11,,,70,127
61908,note_off,1,0,0,,3,,,75,127
61908,note_on,0,0,0,,8,,,68,127
62035,note_off,127,0,0,,8,,,68,127
62036,note_on,1,0,0,,7,,,67,127
62163,note_off,127,0,0,,0,,,48,127
62164,note_on,1,0,0,,5,,,65,127
62291,note_off,127,0,0,,5,,,65,127
62291,note_off,0,0,0,,7,,,67,127
62292,note_on,1,0,0,,3,,,63,127
62292,note_on,0,0,0,,0,,,72,127
62355,note_off,63,0,0,,0,,,72,127
62356,note_on,1,0,0,,12,,,71,127
62419,note_off,63,0,0,,12,,,71,127
62419,note_off,0,0,0,,3,,,63,127
62420,note_on,1,0,0,,2,,,62,127
62420,note_on,0,0,0,,10,,,69,127
62483,note_off,63,0,0,,10,,,69,127
62484,note_on,1,0,0,,12,,,71,127
62547,note_off,63,0,0,,12,,,71,127
62547,note_off,0,0,0,,2,,,62,127
62548,note_on,1,0,0,,0,,,60,127
62548,note_on,0,0,0,,0,,,72,127
62675,note_off,127,0,0,,0,,,72,127
62676,note_on,1,0,0,,3,,,75,127
62803,note_off,127,0,0,,3,,,75,127
62804,note_on,1,0,0,,2,,,74,127
62931,note_off,127,0,0,,2,,,74,127
62932,note_off,1,0,0,,0,,,60,127
62932,note_on,0,0,0,,0,,,72,127
63059,note_off,127,0,0,,0,,,72,127
63060,note_on,1,0,0,,11,,,70,127
63188,note_on,128,0,0,,8,,,68,127
63315,note_off,127,0,0,,8,,,68,127
63315,note_off,0,0,0,,11,,,70,127
63316,note_on,1,0,0,,7,,,67,127
63316,note_on,0,0,0,,3,,,75,127
63379,note_off,63,0,0,,3,,,75,127
63380,note_on,1,0,0,,2,,,74,127
63443,note_off,63,0,0,,2,,,74,127
63443,note_off,0,0,0,,7,,,67,127
63444,note_on,1,0,0,,5,,,65,127
63444,note_on,0,0,0,,0,,,72,127
63507,note_off,63,0,0,,0,,,72,127
63508,note_on,1,0,0,,2,,,74,127
63571,note_off,63,0,0,,2,,,74,127
63571,note_off,0,0,0,,5,,,65,127
63572,note_on,1,0,0,,3,,,63,127
63572,note_on,0,0,0,,3,,,75,127
63699,note_off,127,0,0,,3,,,75,127
63700,note_on,1,0,0,,7,,,79,127
63827,note_off,127,0,0,,7,,,79,127
63828,note_on,1,0,0,,5,,,77,127
63955,note_off,127,0,0,,5,,,77,127
63956,note_on,1,0,0,,3,,,75,127
64079,note_off,123,0,0,,3,,,63,127
64083,note_off,4,0,0,,3,,,75,127
64084,note_on,1,0,0,,2,,,74,127
64212,note_on,128,0,0,,0,,,72,127
64339,note_off,127,0,0,,0,,,72,127
64339,note_off,0,0,0,,2,,,74,127
64340,note_on,1,0,0,,11,,,70,127
64340,note_on,0,0,0,,7,,,79,127
64403,note_off,63,0,0,,7,,,79,127
64404,note_on,1,0,0,,6,,,78,127
64467,note_off,63,0,0,,6,,,78,127
64467,note_off,0,0,0,,11,,,70,127
64468,note_on,1,0,0,,10,,,69,127
64468,note_on,0,0,0,,4,,,76,127
64531,note_off,63,0,0,,4,,,76,127
64532,note_on,1,0,0,,6,,,78,127
64593,note_off,61,0,0,,6,,,78,127
64594,note_off,1,0,0,,10,,,69,127
64594,note_on,0,0,0,,7,,,79,127
64595,note_on,1,0,0,,7,,,67,127
64679,note_off,84,0,0,,7,,,79,127
64680,note_on,1,0,0,,6,,,78,127
64765,note_on,85,0,0,,7,,,79,127
64770,note_off,5,0,0,,6,,,78,127
64849,note_off,79,0,0,,7,,,67,127
64850,note_on,1,0,0,,6,,,66,127
64850,note_on,0,0,0,,10,,,81,127
64855,note_off,5,0,0,,7,,,79,127
64935,note_on,80,0,0,,7,,,79,127
64940,note_off,5,0,0,,10,,,81,127
65020,note_on,80,0,0,,10,,,81,127
65025,note_off,5,0,0,,7,,,79,127
65104,note_off,79,0,0,,6,,,66,127
65105,note_on,1,0,0,,7,,,67,127
65105,note_on,0,0,0,,11,,,82,127
65110,note_off,5,0,0,,10,,,81,127
65190,note_on,80,0,0,,10,,,81,127
65195,note_off,5,0,0,,11,,,82,127
65275,note_on,80,0,0,,11,,,82,127
65280,note_off,5,0,0,,10,,,81,127
65359,note_off,79,0,0,,7,,,67,127
65360,note_on,1,0,0,,2,,,62,127
65360,note_on,0,0,0,,0,,,84,127
65365,note_off,5,0,0,,11,,,82,127
65445,note_on,80,0,0,,11,,,82,127
65450,note_off,5,0,0,,0,,,84,127
65530,note_on,80,0,0,,10,,,81,127
65535,note_off,5,0,0,,11,,,82,127
65614,note_off,79,0,0,,2,,,62,127
65615,note_on,1,0,0,,7,,,55,127
65615,note_on,0,0,0,,11,,,82,127
65620,note_off,5,0,0,,10,,,81,127
65700,note_on,80,0,0,,10,,,81,127
65705,note_off,5,0,0,,11,,,82,127
65785,note_on,80,0,0,,7,,,79,127
65790,note_off,5,0,0,,10,,,81,127
65867,note_off,77,0,0,,7,,,55,127
65870,note_on,3,0,0,,0,,,72,127
65875,note_off,5,0,0,,7,,,79,127
65955,note_on,80,0,0,,2,,,74,127
65960,note_off,5,0,0,,0,,,72,127
66040,note_on,80,0,0,,4,,,76,127
66045,note_off,5,0,0,,2,,,74,127
66125,note_on,80,0,0,,8,,,68,127
66125,note_on,0,0,0,,5,,,77,127
66130,note_off,5,0,0,,4,,,76,127
66210,note_on,80,0,0,,4,,,76,127
66215,note_off,5,0,0,,5,,,77,127
66295,note_on,80,0,0,,5,,,77,127
66300,note_off,5,0,0,,4,,,76,127
66379,note_off,79,0,0,,8,,,68,127
66380,note_on,1,0,0,,7,,,67,127
66380,note_on,0,0,0,,7,,,79,127
66385,note_off,5,0,0,,5,,,77,127
66465,note_on,80,0,0,,5,,,77,127
66470,note_off,5,0,0,,7,,,79,127
66550,note_on,80,0,0,,7,,,79,127
66555,note_off,5,0,0,,5,,,77,127
66634,note_off,79,0,0,,7,,,67,127
66635,note_on,1,0,0,,5,,,65,127
66635,note_on,0,0,0,,8,,,80,127
66640,note_off,5,0,0,,7,,,79,127
66720,note_on,80,0,0,,7,,,79,127
66725,note_off,5,0,0,,8,,,80,127
66805,note_on,80,0,0,,8,,,80,127
66810,note_off,5,0,0,,7,,,79,127
66889,note_off,79,0,0,,5,,,65,127
66890,note_on,1,0,0,,0,,,60,127
66890,note_on,0,0,0,,11,,,82,127
66895,note_off,5,0,0,,8,,,80,127
66975,note_on,80,0,0,,8,,,80,127
66980,note_off,5,0,0,,11,,,82,127
67060,note_on,80,0,0,,7,,,79,127
67065,note_off,5,0,0,,8,,,80,127
67144,note_off,79,0,0,,0,,,60,127
67145,note_on,1,0,0,,5,,,53,127
67145,note_on,0,0,0,,8,,,80,127
67150,note_off,5,0,0,,7,,,79,127
67230,note_on,80,0,0,,7,,,79,127
67235,note_off,5,0,0,,8,,,80,127
67315,note_on,80,0,0,,5,,,77,127
67320,note_off,5,0,0,,7,,,79,127
67397,note_off,77,0,0,,5,,,53,127
67400,note_on,3,0,0,,11,,,70,127
67405,note_off,5,0,0,,5,,,77,127
67485,note_on,80,0,0,,0,,,72,127
67490,note_off,5,0,0,,11,,,70,127
67570,note_on,80,0,0,,2,,,74,127
67575,note_off,5,0,0,,0,,,72,127
67655,note_on,80,0,0,,7,,,67,127
67655,note_on,0,0,0,,3,,,75,127
67660,note_off,5,0,0,,2,,,74,127
67740,note_on,80,0,0,,2,,,74,127
67745,note_off,5,0,0,,3,,,75,127
67825,note_on,80,0,0,,3,,,75,127
67830,note_off,5,0,0,,2,,,74,127
67909,note_off,79,0,0,,7,,,67,127
67910,note_on,1,0,0,,5,,,65,127
67910,note_on,0,0,0,,5,,,77,127
67915,note_off,5,0,0,,3,,,75,127
67995,note_on,80,0,0,,3,,,75,127
68000,note_off,5,0,0,,5,,,77,127
68080,note_on,80,0,0,,5,,,77,127
68085,note_off,5,0,0,,3,,,75,127
68164,note_off,79,0,0,,5,,,65,127
68165,note_on,1,0,0,,3,,,63,127
68165,note_on,0,0,0,,7,,,79,127
68170,note_off,5,0,0,,5,,,77,127
68250,note_on,80,0,0,,5,,,77,127
68255,note_off,5,0,0,,7,,,79,127
68335,note_on,80,0,0,,7,,,79,127
68340,note_off,5,0,0,,5,,,77,127
68419,note_off,79,0,0,,3,,,63,127
68420,note_on,1,0,0,,11,,,58,127
68420,note_on,0,0,0,,8,,,80,127
68425,note_off,5,0,0,,7,,,79,127
68505,note_on,80,0,0,,7,,,79,127
68510,note_off,5,0,0,,8,,,80,127
68590,note_on,80,0,0,,5,,,77,127
68595,note_off,5,0,0,,7,,,79,127
68674,note_off,79,0,0,,11,,,58,127
68675,note_on,1,0,0,,3,,,63,127
68675,note_on,0,0,0,,7,,,79,127
68680,note_off,5,0,0,,5,,,77,127
68760,note_on,80,0,0,,5,,,77,127
68765,note_off,5,0,0,,7,,,79,127
68845,note_on,80,0,0,,7,,,79,127
68850,note_off,5,0,0,,5,,,77,127
68929,note_off,79,0,0,,3,,,63,127
68930,note_on,1,0,0,,2,,,62,127
68930,note_on,0,0,0,,5,,,77,127
68935,note_off,5,0,0,,7,,,79,127
69015,note_on,80,0,0,,3,,,75,127
69020,note_off,5,0,0,,5,,,77,127
69100,note_on,80,0,0,,5,,,77,127
69105,note_off,5,0,0,,3,,,75,127
69184,note_off,79,0,0,,2,,,62,127
69185,note_on,1,0,0,,0,,,60,127
69185,note_on,0,0,0,,3,,,75,127
69190,note_off,5,0,0,,5,,,77,127
69270,note_on,80,0,0,,2,,,74,127
69275,note_off,5,0,0,,3,,,75,127
69355,note_on,80,0,0,,3,,,75,127
69360,note_off,5,0,0,,2,,,74,127
69439,note_off,79,0,0,,0,,,60,127
69440,note_on,1,0,0,,11,,,58,127
69440,note_on,0,0,0,,2,,,74,127
69445,note_off,5,0,0,,3,,,75,127
69525,note_on,80,0,0,,0,,,72,127
69530,note_off,5,0,0,,2,,,74,127
69610,note_on,80,0,0,,2,,,74,127
69615,note_off,5,0,0,,0,,,72,127
69694,note_off,79,0,0,,11,,,58,127
69695,note_on,1,0,0,,8,,,56,127
69695,note_on,0,0,0,,0,,,72,127
69700,note_off,5,0,0,,2,,,74,127
69780,note_on,80,0,0,,11,,,70,127
69785,note_off,5,0,0,,0,,,72,127
69865,note_on,80,0,0,,0,,,72,127
69870,note_off,5,0,0,,11,,,70,127
69949,note_off,79,0,0,,8,,,56,127
69950,note_on,1,0,0,,7,,,55,127
69950,note_on,0,0,0,,11,,,70,127
69955,note_off,5,0,0,,0,,,72,127
70035,note_on,80,0,0,,8,,,68,127
70040,note_off,5,0,0,,11,,,70,127
70120,note_on,80,0,0,,11,,,70,127
70125,note_off,5,0,0,,8,,,68,127
70204,note_off,79,0,0,,7,,,55,127
70205,note_on,1,0,0,,5,,,53,127
70205,note_on,0,0,0,,8,,,68,127
70210,note_off,5,0,0,,11,,,70,127
70290,note_on,80,0,0,,7,,,67,127
70295,note_off,5,0,0,,8,,,68,127
70375,note_on,80,0,0,,8,,,68,127
70380,note_off,5,0,0,,7,,,67,127
70459,note_off,79,0,0,,5,,,53,127
70460,note_on,1,0,0,,3,,,51,127
70460,note_on,0,0,0,,7,,,67,127
70465,note_off,5,0,0,,8,,,68,127
70545,note_on,80,0,0,,5,,,65,127
70550,note_off,5,0,0,,7,,,67,127
70630,note_on,80,0,0,,7,,,67,127
70635,note_off,5,0,0,,5,,,65,127
70712,note_off,77,0,0,,7,,,67,127
70713,note_off,1,0,0,,3,,,51,127
70713,note_on,0,0,0,,5,,,65,127
70714,note_on,1,0,0,,11,,,46,127
70841,note_off,127,0,0,,5,,,65,127
70842,note_on,1,0,0,,11,,,70,127
70969,note_off,127,0,0,,11,,,70,127
70970,note_on,1,0,0,,5,,,65,127
71097,note_off,127,0,0,,5,,,65,127
71098,note_on,1,0,0,,2,,,62,127
71225,note_off,127,0,0,,2,,,62,127
71226,note_on,1,0,0,,11,,,58,127
71353,note_off,127,0,0,,11,,,58,127
71354,note_on,1,0,0,,5,,,53,127
71481,note_off,127,0,0,,5,,,53,127
71482,note_on,1,0,0,,2,,,50,127
71609,note_off,127,0,0,,2,,,50,127
71610,note_off,1,0,0,,11,,,46,127
71610,note_on,0,0,0,,11,,,46,127
71738,note_on,128,0,0,,11,,,34,127
72671,note_off,933,0,0,,11,,,34,127
72760,note_off,89,0,0,,11,,,46,127
72761,note_on,1,0,0,,11,,,58,127
72888,note_off,127,0,0,,11,,,58,127
72889,note_on,1,0,0,,7,,,67,127
73016,note_off,127,0,0,,7,,,67,127
73017,note_on,1,0,0,,5,,,65,127
73017,note_on,0,0,0,,2,,,74,127
73144,note_off,127,0,0,,2,,,74,127
73144,note_off,0,0,0,,5,,,65,127
73145,note_on,1,0,0,,3,,,63,127
73145,note_on,0,0,0,,3,,,75,127
73272,note_off,127,0,0,,3,,,63,127
73273,note_on,1,0,0,,11,,,58,127
73400,note_off,127,0,0,,11,,,58,127
73401,note_on,1,0,0,,8,,,68,127
73465,note_off,64,0,0,,3,,,75,127
73528,note_off,63,0,0,,8,,,68,127
73529,note_on,1,0,0,,7,,,67,127
73529,note_on,0,0,0,,4,,,76,127
73656,note_off,127,0,0,,4,,,76,127
73656,note_off,0,0,0,,7,,,67,127
73657,note_on,1,0,0,,5,,,65,127
73657,note_on,0,0,0,,5,,,77,127
73784,note_off,127,0,0,,5,,,65,127
73785,note_on,1,0,0,,11,,,58,127
73912,note_off,127,0,0,,11,,,58,127
73913,note_on,1,0,0,,7,,,67,127
73977,note_off,64,0,0,,5,,,77,127
74040,note_off,63,0,0,,7,,,67,127
74041,note_on,1,0,0,,5,,,65,127
74041,note_on,0,0,0,,6,,,78,127
74168,note_off,127,0,0,,6,,,78,127
74168,note_off,0,0,0,,5,,,65,127
74169,note_on,1,0,0,,3,,,63,127
74169,note_on,0,0,0,,7,,,79,127
74296,note_off,127,0,0,,3,,,63,127
74297,note_on,1,0,0,,11,,,58,127
74424,note_off,127,0,0,,11,,,58,127
74425,note_on,1,0,0,,8,,,68,127
74489,note_off,64,0,0,,7,,,79,127
74552,note_off,63,0,0,,8,,,68,127
74553,note_on,1,0,0,,7,,,67,127
74553,note_on,0,0,0,,7,,,79,127
74680,note_off,127,0,0,,7,,,79,127
74680,note_off,0,0,0,,7,,,67,127
74681,note_on,1,0,0,,5,,,65,127
74681,note_on,0,0,0,,8,,,80,127
74808,note_off,127,0,0,,5,,,65,127
74809,note_on,1,0,0,,11,,,58,127
74936,note_off,127,0,0,,11,,,58,127
74937,note_on,1,0,0,,7,,,67,127
75001,note_off,64,0,0,,8,,,80,127
75064,note_off,63,0,0,,7,,,67,127
75065,note_on,1,0,0,,5,,,65,127
75065,note_on,0,0,0,,10,,,81,127
75192,note_off,127,0,0,,10,,,81,127
75192,note_off,0,0,0,,5,,,65,127
75193,note_on,1,0,0,,3,,,63,127
75193,note_on,0,0,0,,11,,,82,127
75320,note_off,127,0,0,,3,,,63,127
75321,note_on,1,0,0,,8,,,56,127
75433,note_off,112,0,0,,11,,,82,127
75449,note_on,16,0,0,,12,,,83,127
75576,note_off,127,0,0,,12,,,83,127
75577,note_on,1,0,0,,0,,,84,127
75704,note_off,127,0,0,,0,,,84,127
75705,note_on,1,0,0,,2,,,86,127
75832,note_off,127,0,0,,2,,,86,127
75832,note_off,0,0,0,,8,,,56,127
75833,note_on,1,0,0,,7,,,55,127
75833,note_on,0,0,0,,3,,,87,127
75960,note_off,127,0,0,,3,,,87,127
75961,note_on,1,0,0,,12,,,83,127
76088,note_off,127,0,0,,12,,,83,127
76088,note_off,0,0,0,,7,,,55,127
76089,note_on,1,0,0,,8,,,56,127
76089,note_on,0,0,0,,0,,,84,127
76216,note_off,127,0,0,,0,,,84,127
76217,note_on,1,0,0,,8,,,80,127
76344,note_off,127,0,0,,8,,,80,127
76344,note_off,0,0,0,,8,,,56,127
76345,note_on,1,0,0,,11,,,58,127
76345,note_on,0,0,0,,7,,,79,127
76472,note_off,127,0,0,,7,,,79,127
76473,note_on,1,0,0,,5,,,77,127
76600,note_off,127,0,0,,5,,,77,127
76601,note_on,1,0,0,,11,,,46,127
76601,note_on,0,0,0,,3,,,75,127
76728,note_off,127,0,0,,3,,,75,127
76729,note_on,1,0,0,,2,,,74,127
76856,note_off,127,0,0,,2,,,74,127
76856,note_off,0,0,0,,11,,,46,127
76856,note_off,0,0,0,,11,,,58,127
76857,note_on,1,0,0,,2,,,74,127
76984,note_off,127,0,0,,2,,,74,127
76985,note_on,1,0,0,,7,,,67,127
76985,note_on,0,0,0,,3,,,75,127
77112,note_off,127,0,0,,3,,,75,127
77112,note_off,0,0,0,,7,,,67,127
77113,note_on,1,0,0,,5,,,65,127
77113,note_on,0,0,0,,2,,,74,127
77240,note_off,127,0,0,,2,,,74,127
77240,note_off,0,0,0,,5,,,65,127
77241,note_on,1,0,0,,3,,,63,127
77241,note_on,0,0,0,,3,,,75,127
77368,note_off,127,0,0,,3,,,63,127
77369,note_on,1,0,0,,11,,,58,127
77496,note_off,127,0,0,,11,,,58,127
77497,note_on,1,0,0,,8,,,68,127
77624,note_off,127,0,0,,8,,,68,127
77624,note_off,0,0,0,,3,,,75,127
77625,note_on,1,0,0,,7,,,67,127
77625,note_on,0,0,0,,4,,,76,127
77752,note_off,127,0,0,,4,,,76,127
77752,note_off,0,0,0,,7,,,67,127
77753,note_on,1,0,0,,5,,,65,127
77753,note_on,0,0,0,,5,,,77,127
77880,note_off,127,0,0,,5,,,65,127
77881,note_on,1,0,0,,11,,,58,127
78008,note_off,127,0,0,,11,,,58,127
78009,note_on,1,0,0,,7,,,67,127
78136,note_off,127,0,0,,7,,,67,127
78136,note_off,0,0,0,,5,,,77,127
78137,note_on,1,0,0,,5,,,65,127
78137,note_on,0,0,0,,6,,,78,127
78264,note_off,127,0,0,,6,,,78,127
78264,note_off,0,0,0,,5,,,65,127
78265,note_on,1,0,0,,3,,,63,127
78265,note_on,0,0,0,,7,,,79,127
78392,note_off,127,0,0,,3,,,63,127
78393,note_on,1,0,0,,11,,,58,127
78520,note_off,127,0,0,,11,,,58,127
78521,note_on,1,0,0,,8,,,68,127
78648,note_off,127,0,0,,8,,,68,127
78648,note_off,0,0,0,,7,,,79,127
78649,note_on,1,0,0,,7,,,67,127
78649,note_on,0,0,0,,7,,,79,127
78776,note_off,127,0,0,,7,,,79,127
78776,note_off,0,0,0,,7,,,67,127
78777,note_on,1,0,0,,5,,,65,127
78777,note_on,0,0,0,,8,,,80,127
78904,note_off,127,0,0,,5,,,65,127
78905,note_on,1,0,0,,11,,,58,127
79032,note_off,127,0,0,,11,,,58,127
79033,note_on,1,0,0,,7,,,67,127
79160,note_off,127,0,0,,7,,,67,127
79160,note_off,0,0,0,,8,,,80,127
79161,note_on,1,0,0,,5,,,65,127
79161,note_on,0,0,0,,10,,,81,127
79288,note_off,127,0,0,,10,,,81,127
79288,note_off,0,0,0,,5,,,65,127
79289,note_on,1,0,0,,3,,,63,127
79289,note_on,0,0,0,,11,,,82,127
79416,note_off,127,0,0,,3,,,63,127
79417,note_on,1,0,0,,8,,,56,127
79544,note_off,127,0,0,,11,,,82,127
79545,note_on,1,0,0,,12,,,83,127
79672,note_off,127,0,0,,12,,,83,127
79673,note_on,1,0,0,,0,,,84,127
79800,note_off,127,0,0,,0,,,84,127
79801,note_on,1,0,0,,2,,,86,127
79928,note_off,127,0,0,,2,,,86,127
79928,note_off,0,0,0,,8,,,56,127
79929,note_on,1,0,0,,7,,,55,127
79929,note_on,0,0,0,,3,,,87,127
80056,note_off,127,0,0,,3,,,87,127
80057,note_on,1,0,0,,11,,,82,127
80184,note_off,127,0,0,,11,,,82,127
80184,note_off,0,0,0,,7,,,55,127
80185,note_on,1,0,0,,8,,,56,127
80185,note_on,0,0,0,,0,,,84,127
80312,note_off,127,0,0,,0,,,84,127
80313,note_on,1,0,0,,8,,,80,127
80440,note_off,127,0,0,,8,,,80,127
80440,note_off,0,0,0,,8,,,56,127
80441,note_on,1,0,0,,11,,,58,127
80441,note_on,0,0,0,,7,,,79,127
80568,note_off,127,0,0,,7,,,79,127
80569,note_on,1,0,0,,5,,,77,127
80696,note_off,127,0,0,,5,,,77,127
80697,note_on,1,0,0,,11,,,46,127
80697,note_on,0,0,0,,3,,,75,127
80824,note_off,127,0,0,,3,,,75,127
80825,note_on,1,0,0,,2,,,74,127
80952,note_off,127,0,0,,2,,,74,127
80952,note_off,0,0,0,,11,,,46,127
80952,note_off,0,0,0,,11,,,58,127
80953,note_on,1,0,0,,3,,,51,127
80953,note_on,0,0,0,,3,,,75,127
81080,note_off,127,0,0,,3,,,51,127
81081,note_on,1,0,0,,11,,,58,127
81208,note_off,127,0,0,,11,,,58,127
81209,note_on,1,0,0,,7,,,55,127
81273,note_off,64,0,0,,3,,,75,127
81336,note_off,63,0,0,,7,,,55,127
81337,note_on,1,0,0,,3,,,51,127
81337,note_on,0,0,0,,11,,,82,127
81464,note_off,127,0,0,,11,,,82,127
81464,note_off,0,0,0,,3,,,51,127
81465,note_on,1,0,0,,11,,,34,127
81465,note_on,0,0,0,,11,,,82,127
81592,note_off,127,0,0,,11,,,82,127
81593,note_on,1,0,0,,11,,,70,127
81720,note_off,127,0,0,,11,,,70,127
81721,note_on,1,0,0,,11,,,70,127
81848,note_off,127,0,0,,11,,,70,127
81849,note_on,1,0,0,,8,,,80,127
81976,note_off,127,0,0,,8,,,80,127
81976,note_off,0,0,0,,11,,,34,127
81977,note_on,1,0,0,,3,,,51,127
81977,note_on,0,0,0,,8,,,80,127
82104,note_off,127,0,0,,8,,,80,127
82104,note_off,0,0,0,,3,,,51,127
82105,note_on,1,0,0,,11,,,58,127
82105,note_on,0,0,0,,7,,,79,127
82232,note_off,127,0,0,,11,,,58,127
82233,note_on,1,0,0,,7,,,55,127
82360,note_off,127,0,0,,7,,,55,127
82360,note_off,0,0,0,,7,,,79,127
82361,note_on,1,0,0,,3,,,51,127
82361,note_on,0,0,0,,11,,,82,127
82488,note_off,127,0,0,,11,,,82,127
82488,note_off,0,0,0,,3,,,51,127
82489,note_on,1,0,0,,11,,,34,127
82489,note_on,0,0,0,,11,,,82,127
82616,note_off,127,0,0,,11,,,82,127
82617,note_on,1,0,0,,11,,,70,127
82744,note_off,127,0,0,,11,,,70,127
82745,note_on,1,0,0,,11,,,70,127
82872,note_off,127,0,0,,11,,,70,127
82873,note_on,1,0,0,,8,,,80,127
83000,note_off,127,0,0,,8,,,80,127
83000,note_off,0,0,0,,11,,,34,127
83001,note_on,1,0,0,,3,,,51,127
83001,note_on,0,0,0,,8,,,80,127
83128,note_off,127,0,0,,8,,,80,127
83128,note_off,0,0,0,,3,,,51,127
83129,note_on,1,0,0,,11,,,58,127
83129,note_on,0,0,0,,7,,,79,127
83256,note_off,127,0,0,,11,,,58,127
83257,note_on,1,0,0,,7,,,55,127
83384,note_off,127,0,0,,7,,,55,127
83384,note_off,0,0,0,,7,,,79,127
83385,note_on,1,0,0,,3,,,51,127
83385,note_on,0,0,0,,11,,,82,127
83512,note_off,127,0,0,,11,,,82,127
83512,note_off,0,0,0,,3,,,51,127
83513,note_on,1,0,0,,11,,,34,127
83513,note_on,0,0,0,,11,,,82,127
83640,note_off,127,0,0,,11,,,82,127
83641,note_on,1,0,0,,11,,,70,127
83768,note_off,127,0,0,,11,,,70,127
83769,note_on,1,0,0,,11,,,70,127
83896,note_off,127,0,0,,11,,,70,127
83897,note_on,1,0,0,,8,,,80,127
84024,note_off,127,0,0,,8,,,80,127
84024,note_off,0,0,0,,11,,,34,127
84025,note_on,1,0,0,,3,,,51,127
84025,note_on,0,0,0,,7,,,79,127
84110,note_on,85,0,0,,8,,,80,127
84115,note_off,5,0,0,,7,,,79,127
84195,note_on,80,0,0,,11,,,82,127
84200,note_off,5,0,0,,8,,,80,127
84279,note_off,79,0,0,,3,,,51,127
84280,note_on,1,0,0,,8,,,56,127
84280,note_on,0,0,0,,8,,,80,127
84285,note_off,5,0,0,,11,,,82,127
84365,note_on,80,0,0,,11,,,82,127
84370,note_off,5,0,0,,8,,,80,127
84450,note_on,80,0,0,,0,,,84,127
84455,note_off,5,0,0,,11,,,82,127
84534,note_off,79,0,0,,8,,,56,127
84535,note_on,1,0,0,,11,,,58,127
84535,note_on,0,0,0,,11,,,82,127
84540,note_off,5,0,0,,0,,,84,127
84620,note_on,80,0,0,,8,,,80,127
84625,note_off,5,0,0,,11,,,82,127
84705,note_on,80,0,0,,7,,,79,127
84710,note_off,5,0,0,,8,,,80,127
84790,note_on,80,0,0,,11,,,46,127
84790,note_on,0,0,0,,5,,,77,127
84795,note_off,5,0,0,,7,,,79,127
84875,note_on,80,0,0,,3,,,75,127
84880,note_off,5,0,0,,5,,,77,127
84960,note_on,80,0,0,,2,,,74,127
84965,note_off,5,0,0,,3,,,75,127
85044,note_off,79,0,0,,11,,,46,127
85044,note_off,0,0,0,,11,,,58,127
85045,note_on,1,0,0,,3,,,51,127
85045,note_on,0,0,0,,3,,,75,127
85050,note_off,5,0,0,,2,,,74,127
85171,note_off,121,0,0,,3,,,51,127
85172,note_on,1,0,0,,11,,,58,127
85299,note_off,127,0,0,,11,,,58,127
85300,note_on,1,0,0,,7,,,55,127
85427,note_off,127,0,0,,7,,,55,127
85427,note_off,0,0,0,,3,,,75,127
85428,note_on,1,0,0,,3,,,51,127
85428,note_on,0,0,0,,3,,,75,127
85555,note_off,127,0,0,,3,,,75,127
85555,note_off,0,0,0,,3,,,51,127
85556,note_on,1,0,0,,8,,,56,127
85556,note_on,0,0,0,,3,,,75,127
85683,note_off,127,0,0,,3,,,75,127
85683,note_off,0,0,0,,8,,,56,127
85684,note_on,1,0,0,,0,,,60,127
85684,note_on,0,0,0,,5,,,65,127
85811,note_off,127,0,0,,5,,,65,127
85811,note_off,0,0,0,,0,,,60,127
85812,note_on,1,0,0,,8,,,56,127
85812,note_on,0,0,0,,5,,,65,127
85939,note_off,127,0,0,,5,,,65,127
85939,note_off,0,0,0,,8,,,56,127
85940,note_on,1,0,0,,5,,,53,127
85940,note_on,0,0,0,,3,,,75,127
86067,note_off,127,0,0,,3,,,75,127
86067,note_off,0,0,0,,5,,,53,127
86068,note_on,1,0,0,,11,,,46,127
86068,note_on,0,0,0,,3,,,75,127
86195,note_off,127,0,0,,3,,,75,127
86195,note_off,0,0,0,,11,,,46,127
86196,note_on,1,0,0,,11,,,58,127
86196,note_on,0,0,0,,2,,,74,127
86323,note_off,127,0,0,,11,,,58,127
86324,note_on,1,0,0,,7,,,55,127
86451,note_off,127,0,0,,7,,,55,127
86451,note_off,0,0,0,,2,,,74,127
86452,note_on,1,0,0,,3,,,51,127
86452,note_on,0,0,0,,3,,,75,127
86579,note_off,127,0,0,,3,,,75,127
86579,note_off,0,0,0,,3,,,51,127
86580,note_on,1,0,0,,8,,,56,127
86580,note_on,0,0,0,,3,,,75,127
86707,note_off,127,0,0,,3,,,75,127
86707,note_off,0,0,0,,8,,,56,127
86708,note_on,1,0,0,,0,,,60,127
86708,note_on,0,0,0,,5,,,65,127
86835,note_off,127,0,0,,5,,,65,127
86835,note_off,0,0,0,,0,,,60,127
86836,note_on,1,0,0,,8,,,56,127
86836,note_on,0,0,0,,5,,,65,127
86963,note_off,127,0,0,,5,,,65,127
86963,note_off,0,0,0,,8,,,56,127
86964,note_on,1,0,0,,5,,,53,127
86964,note_on,0,0,0,,3,,,75,127
87091,note_off,127,0,0,,3,,,75,127
87091,note_off,0,0,0,,5,,,53,127
87092,note_on,1,0,0,,11,,,46,127
87092,note_on,0,0,0,,3,,,75,127
87219,note_off,127,0,0,,3,,,75,127
87219,note_off,0,0,0,,11,,,46,127
87220,note_on,1,0,0,,11,,,58,127
87220,note_on,0,0,0,,2,,,74,127
87347,note_off,127,0,0,,11,,,58,127
87348,note_on,1,0,0,,7,,,55,127
87475,note_off,127,0,0,,7,,,55,127
87475,note_off,0,0,0,,2,,,74,127
87476,note_on,1,0,0,,3,,,51,127
87476,note_on,0,0,0,,3,,,75,127
87603,note_off,127,0,0,,3,,,75,127
87603,note_off,0,0,0,,3,,,51,127
87604,note_on,1,0,0,,8,,,56,127
87604,note_on,0,0,0,,3,,,75,127
87731,note_off,127,0,0,,3,,,75,127
87731,note_off,0,0,0,,8,,,56,127
87732,note_on,1,0,0,,0,,,60,127
87732,note_on,0,0,0,,5,,,65,127
87859,note_off,127,0,0,,5,,,65,127
87859,note_off,0,0,0,,0,,,60,127
87860,note_on,1,0,0,,8,,,56,127
87860,note_on,0,0,0,,5,,,65,127
87987,note_off,127,0,0,,5,,,65,127
87987,note_off,0,0,0,,8,,,56,127
87988,note_on,1,0,0,,5,,,53,127
87988,note_on,0,0,0,,3,,,75,127
88115,note_off,127,0,0,,3,,,75,127
88115,note_off,0,0,0,,5,,,53,127
88116,note_on,1,0,0,,11,,,58,127
88116,note_on,0,0,0,,2,,,74,127
88201,note_on,85,0,0,,3,,,75,127
88206,note_off,5,0,0,,2,,,74,127
88286,note_on,80,0,0,,5,,,77,127
88291,note_off,5,0,0,,3,,,75,127
88370,note_off,79,0,0,,11,,,58,127
88371,note_on,1,0,0,,3,,,51,127
88371,note_on,0,0,0,,7,,,79,127
88376,note_off,5,0,0,,5,,,77,127
88456,note_on,80,0,0,,8,,,80,127
88461,note_off,5,0,0,,7,,,79,127
88541,note_on,80,0,0,,11,,,82,127
88546,note_off,5,0,0,,8,,,80,127
88625,note_off,79,0,0,,3,,,51,127
88626,note_on,1,0,0,,11,,,58,127
88626,note_on,0,0,0,,7,,,79,127
88626,note_on,0,0,0,,3,,,75,127
88631,note_off,5,0,0,,11,,,82,127
88880,note_off,249,0,0,,3,,,75,127
88880,note_off,0,0,0,,7,,,79,127
88881,note_on,1,0,0,,11,,,46,127
88881,note_on,0,0,0,,5,,,77,127
88881,note_on,0,0,0,,2,,,74,127
89136,note_off,255,0,0,,2,,,74,127
89136,note_off,0,0,0,,5,,,77,127
89136,note_off,0,0,0,,11,,,46,127
89136,note_off,0,0,0,,11,,,58,127
89137,note_on,1,0,0,,3,,,39,127
89137,note_on,0,0,0,,3,,,75,127
89222,note_on,85,0,0,,7,,,79,127
89227,note_off,5,0,0,,3,,,75,127
89307,note_on,80,0,0,,11,,,82,127
89312,note_off,5,0,0,,7,,,79,127
89392,note_on,80,0,0,,8,,,80,127
89397,note_off,5,0,0,,11,,,82,127
89477,note_on,80,0,0,,7,,,79,127
89482,note_off,5,0,0,,8,,,80,127
89562,note_on,80,0,0,,5,,,77,127
89567,note_off,5,0,0,,7,,,79,127
89642,note_off,75,0,0,,3,,,39,127
89647,note_on,5,0,0,,3,,,75,127
89652,note_off,5,0,0,,5,,,77,127
89732,note_on,80,0,0,,2,,,74,127
89737,note_off,5,0,0,,3,,,75,127
89817,note_on,80,0,0,,0,,,72,127
89822,note_off,5,0,0,,2,,,74,127
89902,note_on,80,0,0,,8,,,56,127
89902,note_on,0,0,0,,11,,,70,127
89907,note_off,5,0,0,,0,,,72,127
89987,note_on,80,0,0,,0,,,72,127
89992,note_off,5,0,0,,11,,,70,127
90072,note_on,80,0,0,,2,,,74,127
90077,note_off,5,0,0,,0,,,72,127
90156,note_off,79,0,0,,8,,,56,127
90157,note_on,1,0,0,,7,,,55,127
90157,note_on,0,0,0,,3,,,75,127
90162,note_off,5,0,0,,2,,,74,127
90242,note_on,80,0,0,,7,,,79,127
90247,note_off,5,0,0,,3,,,75,127
90327,note_on,80,0,0,,11,,,82,127
90332,note_off,5,0,0,,7,,,79,127
90411,note_off,79,0,0,,7,,,55,127
90412,note_on,1,0,0,,8,,,56,127
90412,note_on,0,0,0,,8,,,80,127
90417,note_off,5,0,0,,11,,,82,127
90497,note_on,80,0,0,,7,,,79,127
90502,note_off,5,0,0,,8,,,80,127
90582,note_on,80,0,0,,5,,,77,127
90587,note_off,5,0,0,,7,,,79,127
90666,note_off,79,0,0,,8,,,56,127
90667,note_on,1,0,0,,11,,,58,127
90667,note_on,0,0,0,,3,,,75,127
90672,note_off,5,0,0,,5,,,77,127
90752,note_on,80,0,0,,2,,,74,127
90757,note_off,5,0,0,,3,,,75,127
90837,note_on,80,0,0,,0,,,72,127
90842,note_off,5,0,0,,2,,,74,127
90921,note_off,79,0,0,,11,,,58,127
90922,note_on,1,0,0,,8,,,56,127
90922,note_on,0,0,0,,11,,,70,127
90927,note_off,5,0,0,,0,,,72,127
91007,note_on,80,0,0,,0,,,72,127
91012,note_off,5,0,0,,11,,,70,127
91092,note_on,80,0,0,,2,,,74,127
91097,note_off,5,0,0,,0,,,72,127
91176,note_off,79,0,0,,8,,,56,127
91177,note_on,1,0,0,,7,,,55,127
91177,note_on,0,0,0,,3,,,75,127
91182,note_off,5,0,0,,2,,,74,127
91262,note_on,80,0,0,,7,,,79,127
91267,note_off,5,0,0,,3,,,75,127
91347,note_on,80,0,0,,11,,,82,127
91352,note_off,5,0,0,,7,,,79,127
91431,note_off,79,0,0,,7,,,55,127
91432,note_on,1,0,0,,8,,,56,127
91432,note_on,0,0,0,,8,,,80,127
91437,note_off,5,0,0,,11,,,82,127
91517,note_on,80,0,0,,7,,,79,127
91522,note_off,5,0,0,,8,,,80,127
91602,note_on,80,0,0,,5,,,77,127
91607,note_off,5,0,0,,7,,,79,127
91686,note_off,79,0,0,,8,,,56,127
91687,note_on,1,0,0,,11,,,58,127
91687,note_on,0,0,0,,3,,,75,127
91692,note_off,5,0,0,,5,,,77,127
91772,note_on,80,0,0,,2,,,74,127
91777,note_off,5,0,0,,3,,,75,127
91857,note_on,80,0,0,,0,,,72,127
91862,note_off,5,0,0,,2,,,74,127
91941,note_off,79,0,0,,11,,,58,127
91942,note_on,1,0,0,,8,,,56,127
91942,note_on,0,0,0,,11,,,70,127
91947,note_off,5,0,0,,0,,,72,127
92027,note_on,80,0,0,,0,,,72,127
92032,note_off,5,0,0,,11,,,70,127
92112,note_on,80,0,0,,2,,,74,127
92117,note_off,5,0,0,,0,,,72,127
92196,note_off,79,0,0,,8,,,56,127
92197,note_on,1,0,0,,7,,,55,127
92197,note_on,0,0,0,,3,,,75,127
92202,note_off,5,0,0,,2,,,74,127
92282,note_on,80,0,0,,5,,,77,127
92287,note_off,5,0,0,,3,,,75,127
92367,note_on,80,0,0,,7,,,79,127
92372,note_off,5,0,0,,5,,,77,127
92451,note_off,79,0,0,,7,,,55,127
92452,note_on,1,0,0,,8,,,56,127
92452,note_on,0,0,0,,8,,,80,127
92457,note_off,5,0,0,,7,,,79,127
92537,note_on,80,0,0,,11,,,82,127
92542,note_off,5,0,0,,8,,,80,127
92622,note_on,80,0,0,,0,,,84,127
92627,note_off,5,0,0,,11,,,82,127
92706,note_off,79,0,0,,8,,,56,127
92707,note_on,1,0,0,,11,,,58,127
92707,note_on,0,0,0,,11,,,82,127
92712,note_off,5,0,0,,0,,,84,127
92792,note_on,80,0,0,,8,,,80,127
92797,note_off,5,0,0,,11,,,82,127
92877,note_on,80,0,0,,7,,,79,127
92882,note_off,5,0,0,,8,,,80,127
92961,note_off,79,0,0,,11,,,58,127
92962,note_on,1,0,0,,11,,,46,127
92962,note_on,0,0,0,,5,,,77,127
92967,note_off,5,0,0,,7,,,79,127
93047,note_on,80,0,0,,3,,,75,127
93052,note_off,5,0,0,,5,,,77,127
93132,note_on,80,0,0,,2,,,74,127
93137,note_off,5,0,0,,3,,,75,127
93216,note_off,79,0,0,,11,,,46,127
93217,note_on,1,0,0,,3,,,39,127
93217,note_on,0,0,0,,3,,,75,127
93222,note_off,5,0,0,,2,,,74,127
93302,note_on,80,0,0,,7,,,67,127
93307,note_off,5,0,0,,3,,,75,127
93387,note_on,80,0,0,,11,,,70,127
93392,note_off,5,0,0,,7,,,67,127
93472,note_on,80,0,0,,8,,,68,127
93477,note_off,5,0,0,,11,,,70,127
93557,note_on,80,0,0,,7,,,67,127
93562,note_off,5,0,0,,8,,,68,127
93642,note_on,80,0,0,,5,,,65,127
93647,note_off,5,0,0,,7,,,67,127
93722,note_off,75,0,0,,3,,,39,127
93727,note_on,5,0,0,,3,,,63,127
93732,note_off,5,0,0,,5,,,65,127
93812,note_on,80,0,0,,2,,,62,127
93817,note_off,5,0,0,,3,,,63,127
93897,note_on,80,0,0,,0,,,60,127
93902,note_off,5,0,0,,2,,,62,127
93982,note_on,80,0,0,,8,,,56,127
93982,note_on,0,0,0,,11,,,58,127
93987,note_off,5,0,0,,0,,,60,127
94067,note_on,80,0,0,,0,,,60,127
94072,note_off,5,0,0,,11,,,58,127
94152,note_on,80,0,0,,2,,,62,127
94157,note_off,5,0,0,,0,,,60,127
94236,note_off,79,0,0,,8,,,56,127
94237,note_on,1,0,0,,7,,,55,127
94237,note_on,0,0,0,,3,,,63,127
94242,note_off,5,0,0,,2,,,62,127
94322,note_on,80,0,0,,7,,,67,127
94327,note_off,5,0,0,,3,,,63,127
94407,note_on,80,0,0,,11,,,70,127
94412,note_off,5,0,0,,7,,,67,127
94491,note_off,79,0,0,,7,,,55,127
94492,note_on,1,0,0,,8,,,56,127
94492,note_on,0,0,0,,8,,,68,127
94497,note_off,5,0,0,,11,,,70,127
94577,note_on,80,0,0,,7,,,67,127
94582,note_off,5,0,0,,8,,,68,127
94662,note_on,80,0,0,,5,,,65,127
94667,note_off,5,0,0,,7,,,67,127
94746,note_off,79,0,0,,8,,,56,127
94747,note_on,1,0,0,,11,,,58,127
94747,note_on,0,0,0,,3,,,63,127
94752,note_off,5,0,0,,5,,,65,127
94832,note_on,80,0,0,,2,,,62,127
94837,note_off,5,0,0,,3,,,63,127
94917,note_on,80,0,0,,0,,,60,127
94922,note_off,5,0,0,,2,,,62,127
95001,note_off,79,0,0,,11,,,58,127
95002,note_on,1,0,0,,8,,,56,127
95002,note_on,0,0,0,,11,,,58,127
95007,note_off,5,0,0,,0,,,60,127
95087,note_on,80,0,0,,0,,,60,127
95092,note_off,5,0,0,,11,,,58,127
95172,note_on,80,0,0,,2,,,62,127
95177,note_off,5,0,0,,0,,,60,127
95256,note_off,79,0,0,,8,,,56,127
95257,note_on,1,0,0,,7,,,55,127
95257,note_on,0,0,0,,3,,,63,127
95262,note_off,5,0,0,,2,,,62,127
95342,note_on,80,0,0,,7,,,67,127
95347,note_off,5,0,0,,3,,,63,127
95427,note_on,80,0,0,,11,,,70,127
95432,note_off,5,0,0,,7,,,67,127
95511,note_off,79,0,0,,7,,,55,127
95512,note_on,1,0,0,,8,,,56,127
95512,note_on,0,0,0,,8,,,68,127
95517,note_off,5,0,0,,11,,,70,127
95597,note_on,80,0,0,,7,,,67,127
95602,note_off,5,0,0,,8,,,68,127
95682,note_on,80,0,0,,5,,,65,127
95687,note_off,5,0,0,,7,,,67,127
95766,note_off,79,0,0,,8,,,56,127
95767,note_on,1,0,0,,11,,,58,127
95767,note_on,0,0,0,,3,,,63,127
95772,note_off,5,0,0,,5,,,65,127
95852,note_on,80,0,0,,2,,,62,127
95857,note_off,5,0,0,,3,,,63,127
95937,note_on,80,0,0,,0,,,60,127
95942,note_off,5,0,0,,2,,,62,127
96021,note_off,79,0,0,,11,,,58,127
96022,note_on,1,0,0,,8,,,56,127
96022,note_on,0,0,0,,11,,,58,127
96027,note_off,5,0,0,,0,,,60,127
96107,note_on,80,0,0,,0,,,60,127
96112,note_off,5,0,0,,11,,,58,127
96192,note_on,80,0,0,,2,,,62,127
96197,note_off,5,0,0,,0,,,60,127
96276,note_off,79,0,0,,8,,,56,127
96277,note_on,1,0,0,,7,,,55,127
96277,note_on,0,0,0,,3,,,63,127
96282,note_off,5,0,0,,2,,,62,127
96362,note_on,80,0,0,,5,,,65,127
96367,note_off,5,0,0,,3,,,63,127
96447,note_on,80,0,0,,7,,,67,127
96452,note_off,5,0,0,,5,,,65,127
96531,note_off,79,0,0,,7,,,55,127
96532,note_on,1,0,0,,8,,,56,127
96532,note_on,0,0,0,,8,,,68,127
96537,note_off,5,0,0,,7,,,67,127
96617,note_on,80,0,0,,11,,,70,127
96622,note_off,5,0,0,,8,,,68,127
96702,note_on,80,0,0,,0,,,72,127
96707,note_off,5,0,0,,11,,,70,127
96786,note_off,79,0,0,,8,,,56,127
96787,note_on,1,0,0,,11,,,58,127
96787,note_on,0,0,0,,11,,,70,127
96792,note_off,5,0,0,,0,,,72,127
96872,note_on,80,0,0,,8,,,68,127
96877,note_off,5,0,0,,11,,,70,127
96957,note_on,80,0,0,,7,,,67,127
96962,note_off,5,0,0,,8,,,68,127
97041,note_off,79,0,0,,11,,,58,127
97042,note_on,1,0,0,,8,,,56,127
97042,note_on,0,0,0,,5,,,65,127
97047,note_off,5,0,0,,7,,,67,127
97127,note_on,80,0,0,,3,,,63,127
97132,note_off,5,0,0,,5,,,65,127
97212,note_on,80,0,0,,2,,,62,127
97217,note_off,5,0,0,,3,,,63,127
97296,note_off,79,0,0,,8,,,56,127
97297,note_on,1,0,0,,7,,,55,127
97297,note_on,0,0,0,,3,,,63,127
97302,note_off,5,0,0,,2,,,62,127
97382,note_on,80,0,0,,5,,,65,127
97387,note_off,5,0,0,,3,,,63,127
97467,note_on,80,0,0,,7,,,67,127
97472,note_off,5,0,0,,5,,,65,127
97551,note_off,79,0,0,,7,,,55,127
97552,note_on,1,0,0,,8,,,56,127
97552,note_on,0,0,0,,8,,,68,127
97557,note_off,5,0,0,,7,,,67,127
97637,note_on,80,0,0,,11,,,70,127
97642,note_off,5,0,0,,8,,,68,127
97722,note_on,80,0,0,,0,,,72,127
97727,note_off,5,0,0,,11,,,70,127
97806,note_off,79,0,0,,8,,,56,127
97807,note_on,1,0,0,,11,,,58,127
97807,note_on,0,0,0,,11,,,70,127
97812,note_off,5,0,0,,0,,,72,127
97892,note_on,80,0,0,,8,,,68,127
97897,note_off,5,0,0,,11,,,70,127
97977,note_on,80,0,0,,7,,,67,127
97982,note_off,5,0,0,,8,,,68,127
98061,note_off,79,0,0,,11,,,58,127
98062,note_on,1,0,0,,8,,,56,127
98062,note_on,0,0,0,,5,,,65,127
98067,note_off,5,0,0,,7,,,67,127
98147,note_on,80,0,0,,3,,,63,127
98152,note_off,5,0,0,,5,,,65,127
98232,note_on,80,0,0,,2,,,62,127
98237,note_off,5,0,0,,3,,,63,127
98316,note_off,79,0,0,,8,,,56,127
98323,note_off,7,0,0,,2,,,62,127
98340,note_on,17,0,0,,7,,,55,127
98340,note_on,0,0,0,,3,,,75,127
98432,note_on,92,0,0,,5,,,77,127
98436,note_off,4,0,0,,3,,,75,127
98524,note_on,88,0,0,,7,,,79,127
98528,note_off,4,0,0,,5,,,77,127
98611,note_off,83,0,0,,7,,,55,127
98618,note_on,7,0,0,,8,,,56,127
98618,note_on,0,0,0,,8,,,80,127
98621,note_off,3,0,0,,7,,,79,127
98710,note_on,89,0,0,,11,,,82,127
98714,note_off,4,0,0,,8,,,80,127
98802,note_on,88,0,0,,0,,,84,127
98806,note_off,4,0,0,,11,,,82,127
98889,note_off,83,0,0,,8,,,56,127
98894,note_on,5,0,0,,11,,,58,127
98894,note_on,0,0,0,,11,,,82,127
98898,note_off,4,0,0,,0,,,84,127
98986,note_on,88,0,0,,8,,,80,127
98990,note_off,4,0,0,,11,,,82,127
99079,note_on,89,0,0,,7,,,79,127
99082,note_off,3,0,0,,8,,,80,127
99165,note_off,83,0,0,,11,,,58,127
99172,note_on,7,0,0,,11,,,46,127
99172,note_on,0,0,0,,5,,,77,127
99176,note_off,4,0,0,,7,,,79,127
99264,note_on,88,0,0,,3,,,75,127
99268,note_off,4,0,0,,5,,,77,127
99356,note_on,88,0,0,,2,,,74,127
99360,note_off,4,0,0,,3,,,75,127
99443,note_off,83,0,0,,11,,,46,127
99448,note_on,5,0,0,,3,,,39,127
99448,note_on,0,0,0,,5,,,77,127
99452,note_off,4,0,0,,2,,,74,127
99491,note_off,39,0,0,,5,,,77,127
99495,note_on,4,0,0,,3,,,75,127
99538,note_off,43,0,0,,3,,,75,127
99542,note_on,4,0,0,,5,,,77,127
99585,note_off,43,0,0,,5,,,77,127
99588,note_on,3,0,0,,3,,,75,127
101504,note_off,1916,0,0,,3,,,39,127
101505,note_off,1,0,0,,3,,,75,127
105984,end_of_track,4479,1,0,,,,,,
