tick,type,time,meta,track,program,channel,pitch,tempo,note,velocity
0,copyright,0,1,0,,,,,,
0,program_change,0,0,0,6,0,,,,
0,pitchwheel,0,0,0,,0,0,,,
0,program_change,0,0,0,6,1,,,,
0,pitchwheel,0,0,0,,1,-590,,,
0,program_change,0,0,0,6,2,,,,
0,pitchwheel,0,0,0,,2,-272,,,
0,program_change,0,0,0,6,3,,,,
0,pitchwheel,0,0,0,,3,-353,,,
0,program_change,0,0,0,6,4,,,,
0,pitchwheel,0,0,0,,4,-560,,,
0,program_change,0,0,0,6,5,,,,
0,pitchwheel,0,0,0,,5,-80,,,
0,program_change,0,0,0,6,6,,,,
0,pitchwheel,0,0,0,,6,-625,,,
0,program_change,0,0,0,6,7,,,,
0,pitchwheel,0,0,0,,7,-130,,,
0,program_change,0,0,0,6,8,,,,
0,pitchwheel,0,0,0,,8,-512,,,
0,program_change,0,0,0,6,10,,,,
0,pitchwheel,0,0,0,,10,-464,,,
0,program_change,0,0,0,6,11,,,,
0,pitchwheel,0,0,0,,11,-208,,,
0,program_change,0,0,0,6,12,,,,
0,pitchwheel,0,0,0,,12,-553,,,
0,set_tempo,0,1,0,,,,500000,,
177,note_on,177,0,0,,7,,,43,127
177,note_on,0,0,0,,7,,,79,127
353,note_off,176,0,0,,7,,,79,127
354,note_on,1,0,0,,2,,,74,127
530,note_off,176,0,0,,2,,,74,127
531,note_on,1,0,0,,11,,,70,127
707,note_off,176,0,0,,11,,,70,127
707,note_off,0,0,0,,7,,,43,127
708,note_on,1,0,0,,0,,,60,127
708,note_on,0,0,0,,7,,,55,127
708,note_on,0,0,0,,3,,,63,127
708,note_on,0,0,0,,3,,,75,127
884,note_off,176,0,0,,3,,,75,127
885,note_on,1,0,0,,0,,,72,127
1061,note_off,176,0,0,,0,,,72,127
1062,note_on,1,0,0,,10,,,69,127
1238,note_off,176,0,0,,10,,,69,127
1238,note_off,0,0,0,,3,,,63,127
1238,note_off,0,0,0,,7,,,55,127
1238,note_off,0,0,0,,0,,,60,127
1239,note_on,1,0,0,,2,,,62,127
1239,note_on,0,0,0,,11,,,58,127
1239,note_on,0,0,0,,7,,,55,127
1239,note_on,0,0,0,,2,,,74,127
1415,note_off,176,0,0,,2,,,74,127
1416,note_on,1,0,0,,11,,,70,127
1592,note_off,176,0,0,,11,,,70,127
1593,note_on,1,0,0,,7,,,67,127
1769,note_off,176,0,0,,7,,,67,127
1769,note_off,0,0,0,,7,,,55,127
1769,note_off,0,0,0,,11,,,58,127
1769,note_off,0,0,0,,2,,,62,127
1770,note_on,1,0,0,,0,,,60,127
1770,note_on,0,0,0,,7,,,55,127
1770,note_on,0,0,0,,10,,,57,127
1770,note_on,0,0,0,,0,,,72,127
1946,note_off,176,0,0,,0,,,72,127
1947,note_on,1,0,0,,10,,,69,127
2123,note_off,176,0,0,,10,,,69,127
2124,note_on,1,0,0,,6,,,66,127
2300,note_off,176,0,0,,6,,,66,127
2300,note_off,0,0,0,,10,,,57,127
2300,note_off,0,0,0,,7,,,55,127
2300,note_off,0,0,0,,0,,,60,127
2301,note_on,1,0,0,,7,,,55,127
2301,note_on,0,0,0,,11,,,58,127
2301,note_on,0,0,0,,11,,,70,127
2301,note_on,0,0,0,,7,,,67,127
2477,note_off,176,0,0,,7,,,67,127
2478,note_on,1,0,0,,2,,,62,127
2652,note_off,174,0,0,,11,,,70,127
2655,note_off,3,0,0,,2,,,62,127
2655,note_off,0,0,0,,11,,,58,127
2655,note_off,0,0,0,,7,,,55,127
2656,note_on,1,0,0,,7,,,55,127
2656,note_on,0,0,0,,0,,,48,127
2656,note_on,0,0,0,,10,,,69,127
2656,note_on,0,0,0,,3,,,63,127
2832,note_off,176,0,0,,3,,,63,127
2832,note_off,0,0,0,,10,,,69,127
2832,note_off,0,0,0,,0,,,48,127
2832,note_off,0,0,0,,7,,,55,127
2833,note_on,1,0,0,,11,,,46,127
2833,note_on,0,0,0,,7,,,55,127
2833,note_on,0,0,0,,7,,,67,127
3009,note_off,176,0,0,,7,,,67,127
3010,note_on,1,0,0,,2,,,62,127
3186,note_off,176,0,0,,2,,,62,127
3186,note_off,0,0,0,,7,,,55,127
3186,note_off,0,0,0,,11,,,46,127
3187,note_on,1,0,0,,7,,,55,127
3187,note_on,0,0,0,,0,,,48,127
3187,note_on,0,0,0,,10,,,69,127
3187,note_on,0,0,0,,3,,,63,127
3363,note_off,176,0,0,,3,,,63,127
3363,note_off,0,0,0,,10,,,69,127
3363,note_off,0,0,0,,0,,,48,127
3363,note_off,0,0,0,,7,,,55,127
3364,note_on,1,0,0,,11,,,46,127
3364,note_on,0,0,0,,7,,,55,127
3364,note_on,0,0,0,,7,,,67,127
3541,note_on,177,0,0,,2,,,62,127
3630,note_off,89,0,0,,7,,,67,127
3718,note_off,88,0,0,,2,,,62,127
3718,note_off,0,0,0,,7,,,55,127
3718,note_off,0,0,0,,11,,,46,127
3719,note_on,1,0,0,,0,,,48,127
3719,note_on,0,0,0,,7,,,55,127
3719,note_on,0,0,0,,10,,,69,127
3719,note_on,0,0,0,,3,,,63,127
3895,note_off,176,0,0,,3,,,63,127
3895,note_off,0,0,0,,10,,,69,127
3895,note_off,0,0,0,,7,,,55,127
3895,note_off,0,0,0,,0,,,48,127
3896,note_on,1,0,0,,11,,,46,127
3896,note_on,0,0,0,,7,,,55,127
3896,note_on,0,0,0,,7,,,67,127
4073,note_on,177,0,0,,2,,,62,127
4247,note_off,174,0,0,,7,,,67,127
4250,note_off,3,0,0,,2,,,62,127
4250,note_off,0,0,0,,7,,,55,127
4250,note_off,0,0,0,,11,,,46,127
4251,note_on,1,0,0,,0,,,48,127
4251,note_on,0,0,0,,7,,,55,127
4251,note_on,0,0,0,,3,,,63,127
4251,note_on,0,0,0,,10,,,69,127
4427,note_off,176,0,0,,10,,,69,127
4427,note_off,0,0,0,,3,,,63,127
4427,note_off,0,0,0,,7,,,55,127
4427,note_off,0,0,0,,0,,,48,127
4428,note_on,1,0,0,,7,,,55,127
4428,note_on,0,0,0,,11,,,46,127
4428,note_on,0,0,0,,7,,,67,127
4604,note_off,176,0,0,,7,,,67,127
4604,note_off,0,0,0,,11,,,46,127
4604,note_off,0,0,0,,7,,,55,127
4605,note_on,1,0,0,,10,,,45,127
4605,note_on,0,0,0,,6,,,54,127
4605,note_on,0,0,0,,10,,,69,127
4781,note_off,176,0,0,,10,,,69,127
4781,note_off,0,0,0,,6,,,54,127
4781,note_off,0,0,0,,10,,,45,127
4782,note_on,1,0,0,,7,,,43,127
4782,note_on,0,0,0,,7,,,55,127
4782,note_on,0,0,0,,11,,,70,127
4782,note_on,0,0,0,,7,,,67,127
4958,note_off,176,0,0,,7,,,67,127
4958,note_off,0,0,0,,11,,,70,127
4958,note_off,0,0,0,,7,,,55,127
4958,note_off,0,0,0,,7,,,43,127
4959,note_on,1,0,0,,0,,,48,127
4959,note_on,0,0,0,,0,,,72,127
4959,note_on,0,0,0,,10,,,69,127
5135,note_off,176,0,0,,10,,,69,127
5135,note_off,0,0,0,,0,,,72,127
5136,note_on,1,0,0,,11,,,70,127
5136,note_on,0,0,0,,7,,,67,127
5312,note_off,176,0,0,,7,,,67,127
5312,note_off,0,0,0,,11,,,70,127
5312,note_off,0,0,0,,0,,,48,127
5313,note_on,1,0,0,,2,,,50,127
5313,note_on,0,0,0,,10,,,69,127
5313,note_on,0,0,0,,6,,,66,127
5489,note_off,176,0,0,,6,,,66,127
5489,note_off,0,0,0,,10,,,69,127
5489,note_off,0,0,0,,2,,,50,127
5490,note_on,1,0,0,,7,,,43,127
5490,note_on,0,0,0,,7,,,55,127
5490,note_on,0,0,0,,11,,,70,127
5490,note_on,0,0,0,,7,,,67,127
5666,note_off,176,0,0,,11,,,70,127
5667,note_on,1,0,0,,2,,,74,127
5841,note_off,174,0,0,,7,,,67,127
5844,note_off,3,0,0,,2,,,74,127
5844,note_off,0,0,0,,7,,,55,127
5844,note_off,0,0,0,,7,,,43,127
5845,note_on,1,0,0,,0,,,48,127
5845,note_on,0,0,0,,7,,,55,127
5845,note_on,0,0,0,,3,,,75,127
5845,note_on,0,0,0,,6,,,66,127
6021,note_off,176,0,0,,6,,,66,127
6021,note_off,0,0,0,,7,,,55,127
6021,note_off,0,0,0,,0,,,48,127
6022,note_on,1,0,0,,11,,,46,127
6022,note_on,0,0,0,,7,,,55,127
6022,note_on,0,0,0,,7,,,67,127
6196,note_off,174,0,0,,3,,,75,127
6200,note_on,4,0,0,,2,,,74,127
6374,note_off,174,0,0,,7,,,67,127
6377,note_off,3,0,0,,2,,,74,127
6377,note_off,0,0,0,,7,,,55,127
6377,note_off,0,0,0,,11,,,46,127
6378,note_on,1,0,0,,7,,,55,127
6378,note_on,0,0,0,,0,,,48,127
6378,note_on,0,0,0,,3,,,75,127
6378,note_on,0,0,0,,6,,,66,127
6554,note_off,176,0,0,,6,,,66,127
6554,note_off,0,0,0,,3,,,75,127
6554,note_off,0,0,0,,0,,,48,127
6554,note_off,0,0,0,,7,,,55,127
6555,note_on,1,0,0,,7,,,55,127
6555,note_on,0,0,0,,11,,,46,127
6555,note_on,0,0,0,,3,,,75,127
6555,note_on,0,0,0,,7,,,67,127
6731,note_off,176,0,0,,3,,,75,127
6732,note_on,1,0,0,,2,,,74,127
6906,note_off,174,0,0,,7,,,67,127
6909,note_off,3,0,0,,2,,,74,127
6909,note_off,0,0,0,,11,,,46,127
6909,note_off,0,0,0,,7,,,55,127
6910,note_on,1,0,0,,0,,,48,127
6910,note_on,0,0,0,,7,,,55,127
6910,note_on,0,0,0,,6,,,66,127
6910,note_on,0,0,0,,3,,,75,127
7086,note_off,176,0,0,,3,,,75,127
7086,note_off,0,0,0,,6,,,66,127
7086,note_off,0,0,0,,7,,,55,127
7086,note_off,0,0,0,,0,,,48,127
7087,note_on,1,0,0,,7,,,55,127
7087,note_on,0,0,0,,11,,,46,127
7087,note_on,0,0,0,,3,,,75,127
7087,note_on,0,0,0,,7,,,67,127
7263,note_off,176,0,0,,3,,,75,127
7264,note_on,1,0,0,,2,,,74,127
7438,note_off,174,0,0,,7,,,67,127
7441,note_off,3,0,0,,2,,,74,127
7441,note_off,0,0,0,,11,,,46,127
7441,note_off,0,0,0,,7,,,55,127
7442,note_on,1,0,0,,0,,,48,127
7442,note_on,0,0,0,,7,,,55,127
7442,note_on,0,0,0,,6,,,66,127
7442,note_on,0,0,0,,3,,,75,127
7618,note_off,176,0,0,,3,,,75,127
7618,note_off,0,0,0,,6,,,66,127
7618,note_off,0,0,0,,7,,,55,127
7618,note_off,0,0,0,,0,,,48,127
7619,note_on,1,0,0,,11,,,46,127
7619,note_on,0,0,0,,7,,,55,127
7619,note_on,0,0,0,,2,,,74,127
7619,note_on,0,0,0,,7,,,67,127
7795,note_off,176,0,0,,2,,,74,127
7796,note_on,1,0,0,,0,,,72,127
7970,note_off,174,0,0,,7,,,67,127
7973,note_off,3,0,0,,0,,,72,127
7973,note_off,0,0,0,,7,,,55,127
7973,note_off,0,0,0,,11,,,46,127
7974,note_on,1,0,0,,11,,,46,127
7974,note_on,0,0,0,,7,,,55,127
7974,note_on,0,0,0,,11,,,70,127
7974,note_on,0,0,0,,7,,,67,127
8150,note_off,176,0,0,,7,,,67,127
8150,note_off,0,0,0,,11,,,70,127
8150,note_off,0,0,0,,7,,,55,127
8150,note_off,0,0,0,,11,,,46,127
8151,note_on,1,0,0,,0,,,48,127
8151,note_on,0,0,0,,0,,,72,127
8151,note_on,0,0,0,,10,,,69,127
8327,note_off,176,0,0,,10,,,69,127
8327,note_off,0,0,0,,0,,,72,127
8328,note_on,1,0,0,,11,,,70,127
8328,note_on,0,0,0,,7,,,67,127
8504,note_off,176,0,0,,7,,,67,127
8504,note_off,0,0,0,,11,,,70,127
8504,note_off,0,0,0,,0,,,48,127
8505,note_on,1,0,0,,2,,,50,127
8505,note_on,0,0,0,,6,,,66,127
8505,note_on,0,0,0,,10,,,69,127
8681,note_off,176,0,0,,10,,,69,127
8681,note_off,0,0,0,,6,,,66,127
8681,note_off,0,0,0,,2,,,50,127
8682,note_on,1,0,0,,7,,,43,127
8682,note_on,0,0,0,,7,,,67,127
8858,note_off,176,0,0,,7,,,67,127
8858,note_off,0,0,0,,7,,,43,127
8859,note_on,1,0,0,,7,,,67,127
8859,note_on,0,0,0,,11,,,70,127
9035,note_off,176,0,0,,11,,,70,127
9035,note_off,0,0,0,,7,,,67,127
9036,note_on,1,0,0,,2,,,62,127
9036,note_on,0,0,0,,2,,,74,127
9212,note_off,176,0,0,,2,,,74,127
9212,note_off,0,0,0,,2,,,62,127
9213,note_on,1,0,0,,11,,,58,127
9213,note_on,0,0,0,,7,,,79,127
9389,note_off,176,0,0,,7,,,79,127
9389,note_off,0,0,0,,11,,,58,127
9390,note_on,1,0,0,,7,,,55,127
9390,note_on,0,0,0,,11,,,82,127
9566,note_off,176,0,0,,11,,,82,127
9566,note_off,0,0,0,,7,,,55,127
9567,note_on,1,0,0,,2,,,50,127
9567,note_on,0,0,0,,2,,,86,127
9743,note_off,176,0,0,,2,,,86,127
9743,note_off,0,0,0,,2,,,50,127
9744,note_on,1,0,0,,7,,,43,127
9744,note_on,0,0,0,,7,,,91,127
9920,note_off,176,0,0,,7,,,91,127
9920,note_off,0,0,0,,7,,,43,127
9921,note_on,1,0,0,,7,,,67,127
9921,note_on,0,0,0,,11,,,70,127
10097,note_off,176,0,0,,11,,,70,127
10097,note_off,0,0,0,,7,,,67,127
10098,note_on,1,0,0,,2,,,62,127
10098,note_on,0,0,0,,2,,,74,127
10274,note_off,176,0,0,,2,,,74,127
10274,note_off,0,0,0,,2,,,62,127
10275,note_on,1,0,0,,11,,,58,127
10275,note_on,0,0,0,,7,,,79,127
10451,note_off,176,0,0,,7,,,79,127
10451,note_off,0,0,0,,11,,,58,127
10452,note_on,1,0,0,,7,,,55,127
10452,note_on,0,0,0,,11,,,82,127
10628,note_off,176,0,0,,11,,,82,127
10628,note_off,0,0,0,,7,,,55,127
10629,note_on,1,0,0,,2,,,50,127
10629,note_on,0,0,0,,2,,,86,127
10805,note_off,176,0,0,,2,,,86,127
10805,note_off,0,0,0,,2,,,50,127
10806,note_on,1,0,0,,7,,,43,127
10806,note_on,0,0,0,,7,,,91,127
10982,note_off,176,0,0,,7,,,91,127
10982,note_off,0,0,0,,7,,,43,127
10983,note_on,1,0,0,,7,,,67,127
10983,note_on,0,0,0,,11,,,70,127
11159,note_off,176,0,0,,11,,,70,127
11159,note_off,0,0,0,,7,,,67,127
11160,note_on,1,0,0,,2,,,62,127
11160,note_on,0,0,0,,2,,,74,127
11336,note_off,176,0,0,,2,,,74,127
11336,note_off,0,0,0,,2,,,62,127
11337,note_on,1,0,0,,11,,,58,127
11337,note_on,0,0,0,,7,,,79,127
11513,note_off,176,0,0,,7,,,79,127
11513,note_off,0,0,0,,11,,,58,127
11514,note_on,1,0,0,,7,,,55,127
11514,note_on,0,0,0,,11,,,82,127
11690,note_off,176,0,0,,11,,,82,127
11690,note_off,0,0,0,,7,,,55,127
11691,note_on,1,0,0,,2,,,50,127
11691,note_on,0,0,0,,2,,,86,127
11867,note_off,176,0,0,,2,,,86,127
11867,note_off,0,0,0,,2,,,50,127
11868,note_on,1,0,0,,7,,,43,127
11868,note_on,0,0,0,,7,,,91,127
12044,note_off,176,0,0,,7,,,43,127
12045,note_on,1,0,0,,7,,,67,127
12221,note_off,176,0,0,,7,,,67,127
12222,note_on,1,0,0,,7,,,67,127
12394,note_off,172,0,0,,7,,,91,127
12399,note_off,5,0,0,,7,,,67,127
12400,note_on,1,0,0,,5,,,65,127
12400,note_on,0,0,0,,11,,,82,127
12577,note_on,177,0,0,,2,,,74,127
12753,note_off,176,0,0,,2,,,74,127
12753,note_off,0,0,0,,11,,,82,127
12754,note_on,1,0,0,,0,,,72,127
12754,note_on,0,0,0,,8,,,80,127
12930,note_off,176,0,0,,8,,,80,127
12930,note_off,0,0,0,,0,,,72,127
12930,note_off,0,0,0,,5,,,65,127
12931,note_on,1,0,0,,12,,,71,127
12931,note_on,0,0,0,,5,,,65,127
12931,note_on,0,0,0,,2,,,74,127
13107,note_off,176,0,0,,12,,,71,127
13108,note_on,1,0,0,,7,,,67,127
13282,note_off,174,0,0,,5,,,65,127
13285,note_off,3,0,0,,7,,,67,127
13285,note_off,0,0,0,,2,,,74,127
13286,note_on,1,0,0,,3,,,63,127
13286,note_on,0,0,0,,0,,,72,127
13286,note_on,0,0,0,,7,,,79,127
13462,note_off,176,0,0,,7,,,79,127
13462,note_off,0,0,0,,0,,,72,127
13462,note_off,0,0,0,,3,,,63,127
13463,note_on,1,0,0,,0,,,72,127
13463,note_on,0,0,0,,5,,,65,127
13463,note_on,0,0,0,,5,,,77,127
13639,note_off,176,0,0,,5,,,77,127
13640,note_on,1,0,0,,3,,,75,127
13816,note_off,176,0,0,,3,,,75,127
13816,note_off,0,0,0,,5,,,65,127
13816,note_off,0,0,0,,0,,,72,127
13817,note_on,1,0,0,,7,,,67,127
13817,note_on,0,0,0,,12,,,71,127
13817,note_on,0,0,0,,2,,,74,127
13993,note_off,176,0,0,,2,,,74,127
13993,note_off,0,0,0,,12,,,71,127
13993,note_off,0,0,0,,7,,,67,127
13994,note_on,1,0,0,,0,,,60,127
13994,note_on,0,0,0,,5,,,77,127
14037,note_off,43,0,0,,5,,,77,127
14038,note_on,1,0,0,,3,,,75,127
14081,note_off,43,0,0,,3,,,75,127
14082,note_on,1,0,0,,5,,,77,127
14125,note_off,43,0,0,,5,,,77,127
14126,note_on,1,0,0,,3,,,75,127
14169,note_off,43,0,0,,3,,,75,127
14170,note_on,1,0,0,,2,,,74,127
14346,note_off,176,0,0,,2,,,74,127
14347,note_on,1,0,0,,0,,,72,127
14491,note_off,144,0,0,,0,,,60,127
14495,note_off,4,0,0,,0,,,72,127
14525,note_on,30,0,0,,7,,,67,127
14525,note_on,0,0,0,,0,,,84,127
14702,note_on,177,0,0,,4,,,76,127
14878,note_off,176,0,0,,4,,,76,127
14878,note_off,0,0,0,,0,,,84,127
14879,note_on,1,0,0,,2,,,74,127
14879,note_on,0,0,0,,11,,,82,127
15055,note_off,176,0,0,,11,,,82,127
15055,note_off,0,0,0,,2,,,74,127
15055,note_off,0,0,0,,7,,,67,127
15056,note_on,1,0,0,,1,,,73,127
15056,note_on,0,0,0,,7,,,67,127
15056,note_on,0,0,0,,4,,,76,127
15232,note_off,176,0,0,,1,,,73,127
15233,note_on,1,0,0,,10,,,69,127
15407,note_off,174,0,0,,7,,,67,127
15410,note_off,3,0,0,,10,,,69,127
15410,note_off,0,0,0,,4,,,76,127
15411,note_on,1,0,0,,5,,,65,127
15411,note_on,0,0,0,,2,,,74,127
15411,note_on,0,0,0,,10,,,81,127
15587,note_off,176,0,0,,10,,,81,127
15587,note_off,0,0,0,,2,,,74,127
15587,note_off,0,0,0,,5,,,65,127
15588,note_on,1,0,0,,2,,,74,127
15588,note_on,0,0,0,,7,,,67,127
15588,note_on,0,0,0,,7,,,79,127
15764,note_off,176,0,0,,7,,,79,127
15765,note_on,1,0,0,,5,,,77,127
15941,note_off,176,0,0,,5,,,77,127
15941,note_off,0,0,0,,7,,,67,127
15941,note_off,0,0,0,,2,,,74,127
15942,note_on,1,0,0,,1,,,73,127
15942,note_on,0,0,0,,10,,,69,127
15942,note_on,0,0,0,,4,,,76,127
16118,note_off,176,0,0,,4,,,76,127
16118,note_off,0,0,0,,10,,,69,127
16118,note_off,0,0,0,,1,,,73,127
16119,note_on,1,0,0,,2,,,62,127
16119,note_on,0,0,0,,5,,,77,127
16207,note_off,88,0,0,,5,,,77,127
16208,note_on,1,0,0,,2,,,74,127
16296,note_off,88,0,0,,2,,,74,127
16297,note_on,1,0,0,,1,,,73,127
16385,note_off,88,0,0,,1,,,73,127
16386,note_on,1,0,0,,2,,,74,127
16471,note_off,85,0,0,,2,,,62,127
16474,note_off,3,0,0,,2,,,74,127
16475,note_on,1,0,0,,1,,,73,127
16563,note_off,88,0,0,,1,,,73,127
16564,note_on,1,0,0,,2,,,74,127
16652,note_off,88,0,0,,2,,,74,127
16653,note_on,1,0,0,,11,,,70,127
16653,note_on,0,0,0,,4,,,76,127
16741,note_off,88,0,0,,4,,,76,127
16742,note_on,1,0,0,,2,,,74,127
16830,note_off,88,0,0,,2,,,74,127
16830,note_off,0,0,0,,11,,,70,127
16831,note_on,1,0,0,,10,,,69,127
16831,note_on,0,0,0,,5,,,77,127
16919,note_off,88,0,0,,5,,,77,127
16920,note_on,1,0,0,,2,,,74,127
17008,note_off,88,0,0,,2,,,74,127
17008,note_off,0,0,0,,10,,,69,127
17009,note_on,1,0,0,,7,,,67,127
17009,note_on,0,0,0,,7,,,79,127
17097,note_off,88,0,0,,7,,,79,127
17098,note_on,1,0,0,,2,,,74,127
17186,note_off,88,0,0,,2,,,74,127
17186,note_off,0,0,0,,7,,,67,127
17187,note_on,1,0,0,,5,,,65,127
17187,note_on,0,0,0,,10,,,81,127
17275,note_off,88,0,0,,10,,,81,127
17276,note_on,1,0,0,,2,,,74,127
17364,note_off,88,0,0,,2,,,74,127
17364,note_off,0,0,0,,5,,,65,127
17365,note_on,1,0,0,,4,,,64,127
17365,note_on,0,0,0,,1,,,73,127
17453,note_off,88,0,0,,1,,,73,127
17454,note_on,1,0,0,,2,,,74,127
17542,note_off,88,0,0,,2,,,74,127
17542,note_off,0,0,0,,4,,,64,127
17543,note_on,1,0,0,,2,,,62,127
17543,note_on,0,0,0,,1,,,73,127
17631,note_off,88,0,0,,1,,,73,127
17632,note_on,1,0,0,,2,,,74,127
17720,note_off,88,0,0,,2,,,74,127
17720,note_off,0,0,0,,2,,,62,127
17721,note_on,1,0,0,,11,,,70,127
17721,note_on,0,0,0,,4,,,76,127
17809,note_off,88,0,0,,4,,,76,127
17810,note_on,1,0,0,,2,,,74,127
17898,note_off,88,0,0,,2,,,74,127
17898,note_off,0,0,0,,11,,,70,127
17899,note_on,1,0,0,,10,,,69,127
17899,note_on,0,0,0,,5,,,77,127
17987,note_off,88,0,0,,5,,,77,127
17988,note_on,1,0,0,,2,,,74,127
18076,note_off,88,0,0,,2,,,74,127
18076,note_off,0,0,0,,10,,,69,127
18077,note_on,1,0,0,,7,,,67,127
18077,note_on,0,0,0,,7,,,79,127
18165,note_off,88,0,0,,7,,,79,127
18166,note_on,1,0,0,,2,,,74,127
18254,note_off,88,0,0,,2,,,74,127
18254,note_off,0,0,0,,7,,,67,127
18255,note_on,1,0,0,,5,,,65,127
18255,note_on,0,0,0,,10,,,81,127
18343,note_off,88,0,0,,10,,,81,127
18344,note_on,1,0,0,,2,,,74,127
18432,note_off,88,0,0,,2,,,74,127
18432,note_off,0,0,0,,5,,,65,127
18433,note_on,1,0,0,,4,,,64,127
18433,note_on,0,0,0,,1,,,73,127
18521,note_off,88,0,0,,1,,,73,127
18522,note_on,1,0,0,,2,,,74,127
18610,note_off,88,0,0,,2,,,74,127
18610,note_off,0,0,0,,4,,,64,127
18611,note_on,1,0,0,,2,,,62,127
18611,note_on,0,0,0,,1,,,73,127
18699,note_off,88,0,0,,1,,,73,127
18700,note_on,1,0,0,,2,,,74,127
18788,note_off,88,0,0,,2,,,74,127
18788,note_off,0,0,0,,2,,,62,127
18789,note_on,1,0,0,,11,,,70,127
18789,note_on,0,0,0,,4,,,76,127
18877,note_off,88,0,0,,4,,,76,127
18878,note_on,1,0,0,,2,,,74,127
18966,note_off,88,0,0,,2,,,74,127
18966,note_off,0,0,0,,11,,,70,127
18967,note_on,1,0,0,,10,,,69,127
18967,note_on,0,0,0,,5,,,77,127
19055,note_off,88,0,0,,5,,,77,127
19056,note_on,1,0,0,,2,,,74,127
19144,note_off,88,0,0,,2,,,74,127
19144,note_off,0,0,0,,10,,,69,127
19145,note_on,1,0,0,,7,,,67,127
19145,note_on,0,0,0,,7,,,79,127
19233,note_off,88,0,0,,7,,,79,127
19234,note_on,1,0,0,,2,,,74,127
19322,note_off,88,0,0,,2,,,74,127
19322,note_off,0,0,0,,7,,,67,127
19323,note_on,1,0,0,,5,,,65,127
19323,note_on,0,0,0,,10,,,69,127
19323,note_on,0,0,0,,10,,,81,127
19411,note_off,88,0,0,,10,,,81,127
19412,note_on,1,0,0,,7,,,79,127
19500,note_off,88,0,0,,7,,,79,127
19501,note_on,1,0,0,,5,,,77,127
19589,note_off,88,0,0,,5,,,77,127
19590,note_on,1,0,0,,4,,,76,127
19678,note_off,88,0,0,,4,,,76,127
19679,note_on,1,0,0,,2,,,74,127
19767,note_off,88,0,0,,2,,,74,127
19768,note_on,1,0,0,,0,,,72,127
19856,note_off,88,0,0,,0,,,72,127
19856,note_off,0,0,0,,10,,,69,127
19856,note_off,0,0,0,,5,,,65,127
19857,note_on,1,0,0,,7,,,55,127
19857,note_on,0,0,0,,11,,,70,127
19945,note_off,88,0,0,,11,,,70,127
19946,note_on,1,0,0,,10,,,69,127
20034,note_off,88,0,0,,10,,,69,127
20035,note_on,1,0,0,,7,,,67,127
20123,note_off,88,0,0,,7,,,67,127
20124,note_on,1,0,0,,5,,,65,127
20212,note_off,88,0,0,,5,,,65,127
20213,note_on,1,0,0,,4,,,64,127
20301,note_off,88,0,0,,4,,,64,127
20302,note_on,1,0,0,,2,,,62,127
20390,note_off,88,0,0,,2,,,62,127
20390,note_off,0,0,0,,7,,,55,127
20391,note_on,1,0,0,,10,,,45,127
20391,note_on,0,0,0,,11,,,58,127
20434,note_off,43,0,0,,11,,,58,127
20435,note_on,1,0,0,,10,,,57,127
20478,note_off,43,0,0,,10,,,57,127
20479,note_on,1,0,0,,11,,,58,127
20522,note_off,43,0,0,,11,,,58,127
20523,note_on,1,0,0,,10,,,57,127
20833,note_off,310,0,0,,10,,,45,127
20921,note_off,88,0,0,,10,,,57,127
20922,note_on,1,0,0,,2,,,62,127
20922,note_on,0,0,0,,10,,,81,127
21010,note_off,88,0,0,,2,,,62,127
21011,note_on,1,0,0,,1,,,61,127
21099,note_off,88,0,0,,1,,,61,127
21100,note_on,1,0,0,,4,,,64,127
21188,note_off,88,0,0,,4,,,64,127
21189,note_on,1,0,0,,2,,,62,127
21277,note_off,88,0,0,,2,,,62,127
21278,note_on,1,0,0,,5,,,65,127
21366,note_off,88,0,0,,5,,,65,127
21367,note_on,1,0,0,,4,,,64,127
21455,note_off,88,0,0,,4,,,64,127
21456,note_on,1,0,0,,10,,,45,127
21544,note_off,88,0,0,,10,,,81,127
21545,note_on,1,0,0,,4,,,76,127
21633,note_off,88,0,0,,4,,,76,127
21634,note_on,1,0,0,,1,,,73,127
21722,note_off,88,0,0,,1,,,73,127
21723,note_on,1,0,0,,10,,,69,127
21811,note_off,88,0,0,,10,,,69,127
21812,note_on,1,0,0,,1,,,73,127
21900,note_off,88,0,0,,1,,,73,127
21901,note_on,1,0,0,,4,,,76,127
21989,note_off,88,0,0,,4,,,76,127
21989,note_off,0,0,0,,10,,,45,127
21990,note_on,1,0,0,,2,,,62,127
21990,note_on,0,0,0,,10,,,81,127
22078,note_off,88,0,0,,2,,,62,127
22079,note_on,1,0,0,,1,,,61,127
22167,note_off,88,0,0,,1,,,61,127
22168,note_on,1,0,0,,4,,,64,127
22256,note_off,88,0,0,,4,,,64,127
22257,note_on,1,0,0,,2,,,62,127
22345,note_off,88,0,0,,2,,,62,127
22346,note_on,1,0,0,,5,,,65,127
22434,note_off,88,0,0,,5,,,65,127
22435,note_on,1,0,0,,4,,,64,127
22523,note_off,88,0,0,,4,,,64,127
22524,note_on,1,0,0,,7,,,43,127
22612,note_off,88,0,0,,10,,,81,127
22613,note_on,1,0,0,,4,,,76,127
22701,note_off,88,0,0,,4,,,76,127
22702,note_on,1,0,0,,1,,,73,127
22790,note_off,88,0,0,,1,,,73,127
22791,note_on,1,0,0,,10,,,69,127
22879,note_off,88,0,0,,10,,,69,127
22880,note_on,1,0,0,,1,,,73,127
22968,note_off,88,0,0,,1,,,73,127
22969,note_on,1,0,0,,4,,,76,127
23057,note_off,88,0,0,,4,,,76,127
23057,note_off,0,0,0,,7,,,43,127
23058,note_on,1,0,0,,4,,,64,127
23058,note_on,0,0,0,,10,,,81,127
23146,note_off,88,0,0,,4,,,64,127
23147,note_on,1,0,0,,2,,,62,127
23235,note_off,88,0,0,,2,,,62,127
23236,note_on,1,0,0,,5,,,65,127
23324,note_off,88,0,0,,5,,,65,127
23325,note_on,1,0,0,,4,,,64,127
23413,note_off,88,0,0,,4,,,64,127
23414,note_on,1,0,0,,7,,,67,127
23502,note_off,88,0,0,,7,,,67,127
23503,note_on,1,0,0,,5,,,65,127
23591,note_off,88,0,0,,5,,,65,127
23592,note_on,1,0,0,,5,,,41,127
23680,note_off,88,0,0,,10,,,81,127
23681,note_on,1,0,0,,5,,,77,127
23769,note_off,88,0,0,,5,,,77,127
23770,note_on,1,0,0,,2,,,74,127
23858,note_off,88,0,0,,2,,,74,127
23859,note_on,1,0,0,,10,,,69,127
23947,note_off,88,0,0,,10,,,69,127
23948,note_on,1,0,0,,2,,,74,127
24036,note_off,88,0,0,,2,,,74,127
24037,note_on,1,0,0,,5,,,77,127
24125,note_off,88,0,0,,5,,,77,127
24125,note_off,0,0,0,,5,,,41,127
24126,note_on,1,0,0,,5,,,65,127
24126,note_on,0,0,0,,10,,,81,127
24214,note_off,88,0,0,,5,,,65,127
24215,note_on,1,0,0,,4,,,64,127
24303,note_off,88,0,0,,4,,,64,127
24304,note_on,1,0,0,,7,,,67,127
24392,note_off,88,0,0,,7,,,67,127
24393,note_on,1,0,0,,5,,,65,127
24481,note_off,88,0,0,,5,,,65,127
24482,note_on,1,0,0,,10,,,69,127
24570,note_off,88,0,0,,10,,,69,127
24571,note_on,1,0,0,,7,,,67,127
24659,note_off,88,0,0,,7,,,67,127
24660,note_on,1,0,0,,4,,,40,127
24748,note_off,88,0,0,,10,,,81,127
24749,note_on,1,0,0,,4,,,76,127
24837,note_off,88,0,0,,4,,,76,127
24838,note_on,1,0,0,,1,,,73,127
24926,note_off,88,0,0,,1,,,73,127
24927,note_on,1,0,0,,10,,,69,127
25015,note_off,88,0,0,,10,,,69,127
25016,note_on,1,0,0,,1,,,73,127
25104,note_off,88,0,0,,1,,,73,127
25105,note_on,1,0,0,,4,,,76,127
25193,note_off,88,0,0,,4,,,76,127
25193,note_off,0,0,0,,4,,,40,127
25194,note_on,1,0,0,,7,,,67,127
25194,note_on,0,0,0,,10,,,81,127
25282,note_off,88,0,0,,7,,,67,127
25283,note_on,1,0,0,,5,,,65,127
25371,note_off,88,0,0,,5,,,65,127
25372,note_on,1,0,0,,10,,,69,127
25460,note_off,88,0,0,,10,,,69,127
25461,note_on,1,0,0,,7,,,67,127
25549,note_off,88,0,0,,7,,,67,127
25550,note_on,1,0,0,,11,,,70,127
25638,note_off,88,0,0,,11,,,70,127
25639,note_on,1,0,0,,10,,,69,127
25727,note_off,88,0,0,,10,,,69,127
25728,note_on,1,0,0,,2,,,38,127
25816,note_off,88,0,0,,10,,,81,127
25817,note_on,1,0,0,,2,,,74,127
25905,note_off,88,0,0,,2,,,74,127
25906,note_on,1,0,0,,2,,,86,127
25994,note_off,88,0,0,,2,,,86,127
25995,note_on,1,0,0,,0,,,84,127
26083,note_off,88,0,0,,0,,,84,127
26084,note_on,1,0,0,,11,,,82,127
26172,note_off,88,0,0,,11,,,82,127
26173,note_on,1,0,0,,10,,,81,127
26191,note_off,18,0,0,,2,,,38,127
26260,note_off,69,0,0,,10,,,81,127
26261,note_on,1,0,0,,7,,,43,127
26261,note_on,0,0,0,,11,,,82,127
26349,note_off,88,0,0,,11,,,82,127
26350,note_on,1,0,0,,10,,,81,127
26438,note_off,88,0,0,,10,,,81,127
26439,note_on,1,0,0,,7,,,79,127
26527,note_off,88,0,0,,7,,,79,127
26528,note_on,1,0,0,,5,,,77,127
26616,note_off,88,0,0,,5,,,77,127
26617,note_on,1,0,0,,4,,,76,127
26705,note_off,88,0,0,,4,,,76,127
26706,note_on,1,0,0,,2,,,74,127
26794,note_off,88,0,0,,2,,,74,127
26794,note_off,0,0,0,,7,,,43,127
26795,note_on,1,0,0,,10,,,45,127
26795,note_on,0,0,0,,1,,,73,127
26883,note_off,88,0,0,,1,,,73,127
26884,note_on,1,0,0,,11,,,70,127
26972,note_off,88,0,0,,11,,,70,127
26973,note_on,1,0,0,,10,,,69,127
27061,note_off,88,0,0,,10,,,69,127
27062,note_on,1,0,0,,7,,,67,127
27150,note_off,88,0,0,,7,,,67,127
27151,note_on,1,0,0,,5,,,65,127
27239,note_off,88,0,0,,5,,,65,127
27240,note_on,1,0,0,,4,,,64,127
27328,note_off,88,0,0,,4,,,64,127
27328,note_off,0,0,0,,10,,,45,127
27329,note_on,1,0,0,,2,,,50,127
27329,note_on,0,0,0,,5,,,65,127
27417,note_off,88,0,0,,5,,,65,127
27418,note_on,1,0,0,,7,,,67,127
27506,note_off,88,0,0,,7,,,67,127
27506,note_off,0,0,0,,2,,,50,127
27507,note_on,1,0,0,,7,,,43,127
27507,note_on,0,0,0,,10,,,69,127
27595,note_off,88,0,0,,10,,,69,127
27596,note_on,1,0,0,,2,,,62,127
27684,note_off,88,0,0,,2,,,62,127
27684,note_off,0,0,0,,7,,,43,127
27685,note_on,1,0,0,,10,,,45,127
27685,note_on,0,0,0,,1,,,61,127
27773,note_off,88,0,0,,1,,,61,127
27774,note_on,1,0,0,,4,,,64,127
27862,note_off,88,0,0,,4,,,64,127
27862,note_off,0,0,0,,10,,,45,127
27863,note_on,1,0,0,,2,,,38,127
27863,note_on,0,0,0,,2,,,62,127
27951,note_off,88,0,0,,2,,,62,127
27952,note_on,1,0,0,,10,,,57,127
28040,note_off,88,0,0,,10,,,57,127
28041,note_on,1,0,0,,5,,,65,127
28129,note_off,88,0,0,,5,,,65,127
28130,note_on,1,0,0,,2,,,62,127
28218,note_off,88,0,0,,2,,,62,127
28219,note_on,1,0,0,,10,,,69,127
28307,note_off,88,0,0,,10,,,69,127
28308,note_on,1,0,0,,5,,,65,127
28396,note_off,88,0,0,,5,,,65,127
28396,note_off,0,0,0,,2,,,38,127
28397,note_on,1,0,0,,2,,,62,127
28397,note_on,0,0,0,,10,,,81,127
28485,note_off,88,0,0,,2,,,62,127
28486,note_on,1,0,0,,1,,,61,127
28574,note_off,88,0,0,,1,,,61,127
28575,note_on,1,0,0,,4,,,64,127
28663,note_off,88,0,0,,4,,,64,127
28664,note_on,1,0,0,,2,,,62,127
28752,note_off,88,0,0,,2,,,62,127
28753,note_on,1,0,0,,5,,,65,127
28841,note_off,88,0,0,,5,,,65,127
28842,note_on,1,0,0,,4,,,64,127
28930,note_off,88,0,0,,4,,,64,127
28931,note_on,1,0,0,,10,,,45,127
29019,note_off,88,0,0,,10,,,81,127
29020,note_on,1,0,0,,4,,,76,127
29108,note_off,88,0,0,,4,,,76,127
29109,note_on,1,0,0,,1,,,73,127
29197,note_off,88,0,0,,1,,,73,127
29198,note_on,1,0,0,,10,,,69,127
29286,note_off,88,0,0,,10,,,69,127
29287,note_on,1,0,0,,1,,,73,127
29375,note_off,88,0,0,,1,,,73,127
29376,note_on,1,0,0,,4,,,76,127
29464,note_off,88,0,0,,4,,,76,127
29464,note_off,0,0,0,,10,,,45,127
29465,note_on,1,0,0,,2,,,62,127
29465,note_on,0,0,0,,10,,,81,127
29553,note_off,88,0,0,,2,,,62,127
29554,note_on,1,0,0,,1,,,61,127
29642,note_off,88,0,0,,1,,,61,127
29643,note_on,1,0,0,,4,,,64,127
29731,note_off,88,0,0,,4,,,64,127
29732,note_on,1,0,0,,2,,,62,127
29820,note_off,88,0,0,,2,,,62,127
29821,note_on,1,0,0,,5,,,65,127
29909,note_off,88,0,0,,5,,,65,127
29910,note_on,1,0,0,,4,,,64,127
29998,note_off,88,0,0,,4,,,64,127
29999,note_on,1,0,0,,7,,,43,127
30087,note_off,88,0,0,,10,,,81,127
30088,note_on,1,0,0,,4,,,76,127
30176,note_off,88,0,0,,4,,,76,127
30177,note_on,1,0,0,,1,,,73,127
30265,note_off,88,0,0,,1,,,73,127
30266,note_on,1,0,0,,10,,,69,127
30354,note_off,88,0,0,,10,,,69,127
30355,note_on,1,0,0,,1,,,73,127
30443,note_off,88,0,0,,1,,,73,127
30444,note_on,1,0,0,,4,,,76,127
30532,note_off,88,0,0,,4,,,76,127
30532,note_off,0,0,0,,7,,,43,127
30533,note_on,1,0,0,,4,,,64,127
30533,note_on,0,0,0,,10,,,81,127
30621,note_off,88,0,0,,4,,,64,127
30622,note_on,1,0,0,,2,,,62,127
30710,note_off,88,0,0,,2,,,62,127
30711,note_on,1,0,0,,5,,,65,127
30799,note_off,88,0,0,,5,,,65,127
30800,note_on,1,0,0,,4,,,64,127
30888,note_off,88,0,0,,4,,,64,127
30889,note_on,1,0,0,,7,,,67,127
30977,note_off,88,0,0,,7,,,67,127
30978,note_on,1,0,0,,5,,,65,127
31066,note_off,88,0,0,,5,,,65,127
31067,note_on,1,0,0,,5,,,41,127
31155,note_off,88,0,0,,10,,,81,127
31156,note_on,1,0,0,,5,,,77,127
31244,note_off,88,0,0,,5,,,77,127
31245,note_on,1,0,0,,2,,,74,127
31333,note_off,88,0,0,,2,,,74,127
31334,note_on,1,0,0,,10,,,69,127
31422,note_off,88,0,0,,10,,,69,127
31423,note_on,1,0,0,,2,,,74,127
31511,note_off,88,0,0,,2,,,74,127
31512,note_on,1,0,0,,5,,,77,127
31600,note_off,88,0,0,,5,,,77,127
31600,note_off,0,0,0,,5,,,41,127
31601,note_on,1,0,0,,5,,,65,127
31601,note_on,0,0,0,,10,,,81,127
31689,note_off,88,0,0,,5,,,65,127
31690,note_on,1,0,0,,4,,,64,127
31778,note_off,88,0,0,,4,,,64,127
31779,note_on,1,0,0,,7,,,67,127
31867,note_off,88,0,0,,7,,,67,127
31868,note_on,1,0,0,,5,,,65,127
31956,note_off,88,0,0,,5,,,65,127
31957,note_on,1,0,0,,10,,,69,127
32045,note_off,88,0,0,,10,,,69,127
32046,note_on,1,0,0,,7,,,67,127
32134,note_off,88,0,0,,7,,,67,127
32135,note_on,1,0,0,,4,,,40,127
32223,note_off,88,0,0,,10,,,81,127
32224,note_on,1,0,0,,4,,,76,127
32312,note_off,88,0,0,,4,,,76,127
32313,note_on,1,0,0,,1,,,73,127
32401,note_off,88,0,0,,1,,,73,127
32402,note_on,1,0,0,,10,,,69,127
32490,note_off,88,0,0,,10,,,69,127
32491,note_on,1,0,0,,1,,,73,127
32579,note_off,88,0,0,,1,,,73,127
32580,note_on,1,0,0,,4,,,76,127
32668,note_off,88,0,0,,4,,,76,127
32668,note_off,0,0,0,,4,,,40,127
32669,note_on,1,0,0,,7,,,67,127
32669,note_on,0,0,0,,10,,,81,127
32757,note_off,88,0,0,,7,,,67,127
32758,note_on,1,0,0,,5,,,65,127
32846,note_off,88,0,0,,5,,,65,127
32847,note_on,1,0,0,,10,,,69,127
32935,note_off,88,0,0,,10,,,69,127
32936,note_on,1,0,0,,7,,,67,127
33024,note_off,88,0,0,,7,,,67,127
33025,note_on,1,0,0,,11,,,70,127
33113,note_off,88,0,0,,11,,,70,127
33114,note_on,1,0,0,,10,,,69,127
33202,note_off,88,0,0,,10,,,69,127
33203,note_on,1,0,0,,2,,,38,127
33291,note_off,88,0,0,,10,,,81,127
33292,note_on,1,0,0,,2,,,74,127
33380,note_off,88,0,0,,2,,,74,127
33381,note_on,1,0,0,,2,,,86,127
33469,note_off,88,0,0,,2,,,86,127
33470,note_on,1,0,0,,0,,,84,127
33558,note_off,88,0,0,,0,,,84,127
33559,note_on,1,0,0,,11,,,82,127
33647,note_off,88,0,0,,11,,,82,127
33648,note_on,1,0,0,,10,,,81,127
33685,note_off,37,0,0,,2,,,38,127
33736,note_off,51,0,0,,10,,,81,127
33737,note_on,1,0,0,,7,,,43,127
33737,note_on,0,0,0,,11,,,82,127
33825,note_off,88,0,0,,11,,,82,127
33826,note_on,1,0,0,,10,,,81,127
33914,note_off,88,0,0,,10,,,81,127
33915,note_on,1,0,0,,7,,,79,127
34003,note_off,88,0,0,,7,,,79,127
34004,note_on,1,0,0,,5,,,77,127
34092,note_off,88,0,0,,5,,,77,127
34093,note_on,1,0,0,,4,,,76,127
34181,note_off,88,0,0,,4,,,76,127
34182,note_on,1,0,0,,2,,,74,127
34270,note_off,88,0,0,,2,,,74,127
34270,note_off,0,0,0,,7,,,43,127
34271,note_on,1,0,0,,10,,,45,127
34271,note_on,0,0,0,,1,,,73,127
34359,note_off,88,0,0,,1,,,73,127
34360,note_on,1,0,0,,11,,,70,127
34448,note_off,88,0,0,,11,,,70,127
34449,note_on,1,0,0,,10,,,69,127
34537,note_off,88,0,0,,10,,,69,127
34538,note_on,1,0,0,,7,,,67,127
34626,note_off,88,0,0,,7,,,67,127
34627,note_on,1,0,0,,5,,,65,127
34715,note_off,88,0,0,,5,,,65,127
34716,note_on,1,0,0,,4,,,64,127
34804,note_off,88,0,0,,4,,,64,127
34804,note_off,0,0,0,,10,,,45,127
34805,note_on,1,0,0,,2,,,50,127
34805,note_on,0,0,0,,5,,,65,127
34893,note_off,88,0,0,,5,,,65,127
34894,note_on,1,0,0,,7,,,67,127
34982,note_off,88,0,0,,7,,,67,127
34982,note_off,0,0,0,,2,,,50,127
34983,note_on,1,0,0,,7,,,43,127
34983,note_on,0,0,0,,10,,,69,127
35071,note_off,88,0,0,,10,,,69,127
35072,note_on,1,0,0,,2,,,62,127
35160,note_off,88,0,0,,2,,,62,127
35160,note_off,0,0,0,,7,,,43,127
35161,note_on,1,0,0,,10,,,45,127
35161,note_on,0,0,0,,1,,,61,127
35249,note_off,88,0,0,,1,,,61,127
35250,note_on,1,0,0,,4,,,64,127
35337,note_off,87,0,0,,10,,,45,127
35338,note_off,1,0,0,,4,,,64,127
35339,note_on,1,0,0,,2,,,62,127
35428,note_on,89,0,0,,2,,,50,127
35516,note_off,88,0,0,,2,,,50,127
35517,note_on,1,0,0,,4,,,52,127
35605,note_off,88,0,0,,4,,,52,127
35606,note_on,1,0,0,,5,,,53,127
35694,note_off,88,0,0,,5,,,53,127
35695,note_on,1,0,0,,7,,,55,127
35783,note_off,88,0,0,,7,,,55,127
35784,note_on,1,0,0,,10,,,57,127
35872,note_off,88,0,0,,10,,,57,127
35872,note_off,0,0,0,,2,,,62,127
35873,note_on,1,0,0,,12,,,59,127
35961,note_off,88,0,0,,12,,,59,127
35962,note_on,1,0,0,,1,,,61,127
36050,note_off,88,0,0,,1,,,61,127
36051,note_on,1,0,0,,2,,,62,127
36139,note_off,88,0,0,,2,,,62,127
36140,note_on,1,0,0,,4,,,64,127
36228,note_off,88,0,0,,4,,,64,127
36229,note_on,1,0,0,,5,,,65,127
36317,note_off,88,0,0,,5,,,65,127
36318,note_on,1,0,0,,7,,,67,127
36406,note_off,88,0,0,,7,,,67,127
36407,note_on,1,0,0,,10,,,45,127
36584,note_on,177,0,0,,1,,,73,127
36584,note_on,0,0,0,,10,,,69,127
36584,note_on,0,0,0,,7,,,79,127
36584,note_on,0,0,0,,4,,,76,127
36760,note_off,176,0,0,,4,,,76,127
36760,note_off,0,0,0,,7,,,79,127
36760,note_off,0,0,0,,1,,,73,127
36760,note_off,0,0,0,,10,,,45,127
36761,note_on,1,0,0,,2,,,50,127
36761,note_on,0,0,0,,5,,,77,127
36761,note_on,0,0,0,,2,,,74,127
36935,note_off,174,0,0,,10,,,69,127
36938,note_off,3,0,0,,2,,,74,127
36938,note_off,0,0,0,,5,,,77,127
36938,note_off,0,0,0,,2,,,50,127
36939,note_on,1,0,0,,7,,,43,127
36939,note_on,0,0,0,,7,,,67,127
36939,note_on,0,0,0,,4,,,76,127
37115,note_off,176,0,0,,4,,,76,127
37115,note_off,0,0,0,,7,,,67,127
37116,note_on,1,0,0,,2,,,74,127
37116,note_on,0,0,0,,5,,,65,127
37292,note_off,176,0,0,,5,,,65,127
37292,note_off,0,0,0,,2,,,74,127
37292,note_off,0,0,0,,7,,,43,127
37293,note_on,1,0,0,,10,,,45,127
37293,note_on,0,0,0,,4,,,64,127
37293,note_on,0,0,0,,1,,,73,127
37468,note_off,175,0,0,,10,,,45,127
37469,note_off,1,0,0,,1,,,73,127
37469,note_off,0,0,0,,4,,,64,127
37470,note_on,1,0,0,,2,,,74,127
37470,note_on,0,0,0,,2,,,62,127
37559,note_on,89,0,0,,2,,,50,127
37647,note_off,88,0,0,,2,,,50,127
37648,note_on,1,0,0,,4,,,52,127
37736,note_off,88,0,0,,4,,,52,127
37737,note_on,1,0,0,,5,,,53,127
37825,note_off,88,0,0,,5,,,53,127
37826,note_on,1,0,0,,7,,,55,127
37914,note_off,88,0,0,,7,,,55,127
37915,note_on,1,0,0,,10,,,57,127
38003,note_off,88,0,0,,10,,,57,127
38003,note_off,0,0,0,,2,,,62,127
38003,note_off,0,0,0,,2,,,74,127
38004,note_on,1,0,0,,12,,,59,127
38092,note_off,88,0,0,,12,,,59,127
38093,note_on,1,0,0,,1,,,61,127
38181,note_off,88,0,0,,1,,,61,127
38182,note_on,1,0,0,,2,,,62,127
38270,note_off,88,0,0,,2,,,62,127
38271,note_on,1,0,0,,4,,,64,127
38359,note_off,88,0,0,,4,,,64,127
38360,note_on,1,0,0,,5,,,65,127
38448,note_off,88,0,0,,5,,,65,127
38449,note_on,1,0,0,,7,,,67,127
38537,note_off,88,0,0,,7,,,67,127
38538,note_on,1,0,0,,10,,,45,127
38715,note_on,177,0,0,,1,,,73,127
38715,note_on,0,0,0,,10,,,69,127
38715,note_on,0,0,0,,7,,,79,127
38715,note_on,0,0,0,,4,,,76,127
38891,note_off,176,0,0,,4,,,76,127
38891,note_off,0,0,0,,7,,,79,127
38891,note_off,0,0,0,,1,,,73,127
38891,note_off,0,0,0,,10,,,45,127
38892,note_on,1,0,0,,2,,,50,127
38892,note_on,0,0,0,,5,,,77,127
38892,note_on,0,0,0,,2,,,74,127
39066,note_off,174,0,0,,10,,,69,127
39069,note_off,3,0,0,,2,,,74,127
39069,note_off,0,0,0,,5,,,77,127
39069,note_off,0,0,0,,2,,,50,127
39070,note_on,1,0,0,,7,,,43,127
39070,note_on,0,0,0,,7,,,67,127
39070,note_on,0,0,0,,4,,,76,127
39246,note_off,176,0,0,,4,,,76,127
39246,note_off,0,0,0,,7,,,67,127
39247,note_on,1,0,0,,2,,,74,127
39247,note_on,0,0,0,,5,,,65,127
39423,note_off,176,0,0,,5,,,65,127
39423,note_off,0,0,0,,2,,,74,127
39423,note_off,0,0,0,,7,,,43,127
39424,note_on,1,0,0,,10,,,45,127
39424,note_on,0,0,0,,1,,,73,127
39424,note_on,0,0,0,,4,,,64,127
39600,note_off,176,0,0,,4,,,64,127
39600,note_off,0,0,0,,1,,,73,127
39600,note_off,0,0,0,,10,,,45,127
39601,note_on,1,0,0,,2,,,38,127
39601,note_on,0,0,0,,2,,,74,127
39689,note_off,88,0,0,,2,,,74,127
39690,note_on,1,0,0,,10,,,69,127
39778,note_off,88,0,0,,10,,,69,127
39779,note_on,1,0,0,,12,,,71,127
39867,note_off,88,0,0,,12,,,71,127
39868,note_on,1,0,0,,1,,,73,127
39956,note_off,88,0,0,,1,,,73,127
39957,note_on,1,0,0,,2,,,74,127
40045,note_off,88,0,0,,2,,,74,127
40046,note_on,1,0,0,,4,,,76,127
40134,note_off,88,0,0,,4,,,76,127
40134,note_off,0,0,0,,2,,,38,127
40135,note_on,1,0,0,,5,,,53,127
40135,note_on,0,0,0,,2,,,62,127
40135,note_on,0,0,0,,5,,,77,127
40223,note_off,88,0,0,,5,,,77,127
40224,note_on,1,0,0,,7,,,79,127
40312,note_off,88,0,0,,7,,,79,127
40313,note_on,1,0,0,,10,,,81,127
40401,note_off,88,0,0,,10,,,81,127
40402,note_on,1,0,0,,12,,,83,127
40490,note_off,88,0,0,,12,,,83,127
40490,note_off,0,0,0,,5,,,53,127
40491,note_on,1,0,0,,7,,,55,127
40491,note_on,0,0,0,,1,,,85,127
40579,note_off,88,0,0,,1,,,85,127
40580,note_on,1,0,0,,2,,,86,127
40668,note_off,88,0,0,,2,,,86,127
40668,note_off,0,0,0,,7,,,55,127
40668,note_off,0,0,0,,2,,,62,127
40669,note_on,1,0,0,,10,,,57,127
40669,note_on,0,0,0,,10,,,81,127
40845,note_off,176,0,0,,10,,,81,127
40846,note_on,1,0,0,,7,,,79,127
41022,note_off,176,0,0,,7,,,79,127
41022,note_off,0,0,0,,10,,,57,127
41023,note_on,1,0,0,,11,,,58,127
41023,note_on,0,0,0,,5,,,77,127
41199,note_off,176,0,0,,5,,,77,127
41199,note_off,0,0,0,,11,,,58,127
41200,note_on,1,0,0,,7,,,55,127
41200,note_on,0,0,0,,4,,,76,127
41376,note_off,176,0,0,,4,,,76,127
41376,note_off,0,0,0,,7,,,55,127
41377,note_on,1,0,0,,10,,,57,127
41377,note_on,0,0,0,,2,,,74,127
41553,note_off,176,0,0,,2,,,74,127
41553,note_off,0,0,0,,10,,,57,127
41554,note_on,1,0,0,,10,,,45,127
41554,note_on,0,0,0,,2,,,74,127
41597,note_off,43,0,0,,2,,,74,127
41598,note_on,1,0,0,,1,,,73,127
41641,note_off,43,0,0,,1,,,73,127
41642,note_on,1,0,0,,2,,,74,127
41685,note_off,43,0,0,,2,,,74,127
41686,note_on,1,0,0,,1,,,73,127
41729,note_off,43,0,0,,1,,,73,127
41729,note_off,0,0,0,,10,,,45,127
41730,note_on,1,0,0,,2,,,50,127
41730,note_on,0,0,0,,2,,,74,127
41818,note_off,88,0,0,,2,,,74,127
41819,note_on,1,0,0,,10,,,57,127
41907,note_off,88,0,0,,10,,,57,127
41908,note_on,1,0,0,,12,,,59,127
41996,note_off,88,0,0,,12,,,59,127
41997,note_on,1,0,0,,1,,,61,127
42085,note_off,88,0,0,,1,,,61,127
42086,note_on,1,0,0,,2,,,62,127
42174,note_off,88,0,0,,2,,,62,127
42175,note_on,1,0,0,,4,,,64,127
42263,note_off,88,0,0,,4,,,64,127
42263,note_off,0,0,0,,2,,,50,127
42264,note_on,1,0,0,,5,,,41,127
42264,note_on,0,0,0,,5,,,65,127
42352,note_off,88,0,0,,5,,,65,127
42353,note_on,1,0,0,,7,,,67,127
42441,note_off,88,0,0,,7,,,67,127
42442,note_on,1,0,0,,10,,,69,127
42530,note_off,88,0,0,,10,,,69,127
42531,note_on,1,0,0,,12,,,71,127
42619,note_off,88,0,0,,12,,,71,127
42619,note_off,0,0,0,,5,,,41,127
42620,note_on,1,0,0,,7,,,43,127
42620,note_on,0,0,0,,1,,,73,127
42708,note_off,88,0,0,,1,,,73,127
42709,note_on,1,0,0,,2,,,74,127
42797,note_off,88,0,0,,2,,,74,127
42797,note_off,0,0,0,,7,,,43,127
42798,note_on,1,0,0,,10,,,45,127
42798,note_on,0,0,0,,10,,,69,127
42974,note_off,176,0,0,,10,,,69,127
42975,note_on,1,0,0,,7,,,67,127
43151,note_off,176,0,0,,7,,,67,127
43151,note_off,0,0,0,,10,,,45,127
43152,note_on,1,0,0,,11,,,46,127
43152,note_on,0,0,0,,5,,,65,127
43328,note_off,176,0,0,,5,,,65,127
43328,note_off,0,0,0,,11,,,46,127
43329,note_on,1,0,0,,7,,,43,127
43329,note_on,0,0,0,,4,,,64,127
43505,note_off,176,0,0,,4,,,64,127
43505,note_off,0,0,0,,7,,,43,127
43506,note_on,1,0,0,,10,,,45,127
43506,note_on,0,0,0,,2,,,62,127
43682,note_off,176,0,0,,2,,,62,127
43682,note_off,0,0,0,,10,,,45,127
43683,note_on,1,0,0,,10,,,33,127
43683,note_on,0,0,0,,2,,,62,127
43726,note_off,43,0,0,,2,,,62,127
43727,note_on,1,0,0,,1,,,61,127
43770,note_off,43,0,0,,1,,,61,127
43771,note_on,1,0,0,,2,,,62,127
43814,note_off,43,0,0,,2,,,62,127
43815,note_on,1,0,0,,1,,,61,127
43858,note_off,43,0,0,,1,,,61,127
43858,note_off,0,0,0,,10,,,33,127
43859,note_on,1,0,0,,2,,,38,127
43859,note_on,0,0,0,,2,,,62,127
44390,note_off,531,0,0,,2,,,62,127
44390,note_off,0,0,0,,2,,,38,127
44391,note_on,1,0,0,,2,,,38,127
44480,note_on,89,0,0,,2,,,62,127
44568,note_off,88,0,0,,2,,,62,127
44569,note_on,1,0,0,,3,,,63,127
44657,note_off,88,0,0,,3,,,63,127
44658,note_on,1,0,0,,2,,,62,127
44746,note_off,88,0,0,,2,,,62,127
44747,note_on,1,0,0,,4,,,64,127
44835,note_off,88,0,0,,4,,,64,127
44836,note_on,1,0,0,,2,,,62,127
44924,note_off,88,0,0,,2,,,62,127
44924,note_off,0,0,0,,2,,,38,127
44925,note_on,1,0,0,,2,,,50,127
44925,note_on,0,0,0,,0,,,60,127
44925,note_on,0,0,0,,6,,,66,127
45013,note_off,88,0,0,,6,,,66,127
45014,note_on,1,0,0,,2,,,62,127
45102,note_off,88,0,0,,2,,,62,127
45102,note_off,0,0,0,,0,,,60,127
45102,note_off,0,0,0,,2,,,50,127
45103,note_on,1,0,0,,11,,,58,127
45103,note_on,0,0,0,,2,,,50,127
45103,note_on,0,0,0,,7,,,67,127
45191,note_off,88,0,0,,7,,,67,127
45192,note_on,1,0,0,,2,,,62,127
45280,note_off,88,0,0,,2,,,62,127
45280,note_off,0,0,0,,2,,,50,127
45280,note_off,0,0,0,,11,,,58,127
45281,note_on,1,0,0,,2,,,50,127
45281,note_on,0,0,0,,10,,,57,127
45281,note_on,0,0,0,,10,,,69,127
45369,note_off,88,0,0,,10,,,69,127
45370,note_on,1,0,0,,2,,,62,127
45458,note_off,88,0,0,,2,,,62,127
45458,note_off,0,0,0,,10,,,57,127
45458,note_off,0,0,0,,2,,,50,127
45459,note_on,1,0,0,,2,,,50,127
45459,note_on,0,0,0,,7,,,55,127
45459,note_on,0,0,0,,11,,,70,127
45547,note_off,88,0,0,,11,,,70,127
45548,note_on,1,0,0,,2,,,62,127
45636,note_off,88,0,0,,2,,,62,127
45637,note_on,1,0,0,,3,,,63,127
45725,note_off,88,0,0,,3,,,63,127
45726,note_on,1,0,0,,2,,,62,127
45814,note_off,88,0,0,,2,,,62,127
45815,note_on,1,0,0,,4,,,64,127
45903,note_off,88,0,0,,4,,,64,127
45904,note_on,1,0,0,,2,,,62,127
45992,note_off,88,0,0,,2,,,62,127
45992,note_off,0,0,0,,7,,,55,127
45992,note_off,0,0,0,,2,,,50,127
45993,note_on,1,0,0,,2,,,50,127
45993,note_on,0,0,0,,0,,,60,127
45993,note_on,0,0,0,,6,,,66,127
46081,note_off,88,0,0,,6,,,66,127
46082,note_on,1,0,0,,2,,,62,127
46170,note_off,88,0,0,,2,,,62,127
46170,note_off,0,0,0,,0,,,60,127
46170,note_off,0,0,0,,2,,,50,127
46171,note_on,1,0,0,,11,,,58,127
46171,note_on,0,0,0,,2,,,50,127
46171,note_on,0,0,0,,7,,,67,127
46259,note_off,88,0,0,,7,,,67,127
46260,note_on,1,0,0,,2,,,62,127
46348,note_off,88,0,0,,2,,,62,127
46348,note_off,0,0,0,,2,,,50,127
46348,note_off,0,0,0,,11,,,58,127
46349,note_on,1,0,0,,2,,,50,127
46349,note_on,0,0,0,,10,,,57,127
46349,note_on,0,0,0,,10,,,69,127
46437,note_off,88,0,0,,10,,,69,127
46438,note_on,1,0,0,,2,,,62,127
46526,note_off,88,0,0,,2,,,62,127
46526,note_off,0,0,0,,10,,,57,127
46526,note_off,0,0,0,,2,,,50,127
46527,note_on,1,0,0,,7,,,55,127
46527,note_on,0,0,0,,11,,,70,127
46615,note_off,88,0,0,,11,,,70,127
46616,note_on,1,0,0,,3,,,63,127
46704,note_off,88,0,0,,3,,,63,127
46705,note_on,1,0,0,,5,,,65,127
46793,note_off,88,0,0,,5,,,65,127
46794,note_on,1,0,0,,3,,,63,127
46882,note_off,88,0,0,,3,,,63,127
46883,note_on,1,0,0,,7,,,67,127
46971,note_off,88,0,0,,7,,,67,127
46972,note_off,1,0,0,,7,,,55,127
46972,note_on,0,0,0,,5,,,65,127
47060,note_off,88,0,0,,5,,,65,127
47061,note_on,1,0,0,,5,,,53,127
47061,note_on,0,0,0,,3,,,63,127
47061,note_on,0,0,0,,10,,,69,127
47149,note_off,88,0,0,,10,,,69,127
47150,note_on,1,0,0,,5,,,65,127
47238,note_off,88,0,0,,5,,,65,127
47238,note_off,0,0,0,,3,,,63,127
47238,note_off,0,0,0,,5,,,53,127
47239,note_on,1,0,0,,5,,,53,127
47239,note_on,0,0,0,,2,,,62,127
47239,note_on,0,0,0,,11,,,70,127
47327,note_off,88,0,0,,11,,,70,127
47328,note_on,1,0,0,,5,,,65,127
47416,note_off,88,0,0,,5,,,65,127
47416,note_off,0,0,0,,2,,,62,127
47416,note_off,0,0,0,,5,,,53,127
47417,note_on,1,0,0,,0,,,60,127
47417,note_on,0,0,0,,5,,,53,127
47417,note_on,0,0,0,,0,,,72,127
47505,note_off,88,0,0,,0,,,72,127
47506,note_on,1,0,0,,5,,,65,127
47594,note_off,88,0,0,,5,,,65,127
47594,note_off,0,0,0,,5,,,53,127
47594,note_off,0,0,0,,0,,,60,127
47595,note_on,1,0,0,,11,,,58,127
47595,note_on,0,0,0,,5,,,53,127
47595,note_on,0,0,0,,2,,,74,127
47683,note_off,88,0,0,,2,,,74,127
47684,note_on,1,0,0,,3,,,63,127
47772,note_off,88,0,0,,3,,,63,127
47773,note_on,1,0,0,,5,,,65,127
47861,note_off,88,0,0,,5,,,65,127
47862,note_on,1,0,0,,3,,,63,127
47950,note_off,88,0,0,,3,,,63,127
47951,note_on,1,0,0,,7,,,67,127
48039,note_off,88,0,0,,7,,,67,127
48040,note_on,1,0,0,,5,,,65,127
48128,note_off,88,0,0,,5,,,65,127
48128,note_off,0,0,0,,5,,,53,127
48128,note_off,0,0,0,,11,,,58,127
48129,note_on,1,0,0,,5,,,53,127
48129,note_on,0,0,0,,3,,,63,127
48129,note_on,0,0,0,,10,,,69,127
48217,note_off,88,0,0,,10,,,69,127
48218,note_on,1,0,0,,5,,,65,127
48306,note_off,88,0,0,,5,,,65,127
48306,note_off,0,0,0,,3,,,63,127
48306,note_off,0,0,0,,5,,,53,127
48307,note_on,1,0,0,,2,,,62,127
48307,note_on,0,0,0,,5,,,53,127
48307,note_on,0,0,0,,11,,,70,127
48395,note_off,88,0,0,,11,,,70,127
48396,note_on,1,0,0,,5,,,65,127
48484,note_off,88,0,0,,5,,,65,127
48484,note_off,0,0,0,,5,,,53,127
48484,note_off,0,0,0,,2,,,62,127
48485,note_on,1,0,0,,0,,,60,127
48485,note_on,0,0,0,,5,,,53,127
48485,note_on,0,0,0,,0,,,72,127
48573,note_off,88,0,0,,0,,,72,127
48574,note_on,1,0,0,,5,,,65,127
48662,note_off,88,0,0,,5,,,65,127
48662,note_off,0,0,0,,5,,,53,127
48662,note_off,0,0,0,,0,,,60,127
48663,note_on,1,0,0,,11,,,58,127
48663,note_on,0,0,0,,2,,,74,127
48751,note_off,88,0,0,,2,,,74,127
48752,note_on,1,0,0,,8,,,68,127
48840,note_off,88,0,0,,8,,,68,127
48841,note_on,1,0,0,,11,,,70,127
48929,note_off,88,0,0,,11,,,70,127
48930,note_on,1,0,0,,8,,,68,127
49018,note_off,88,0,0,,8,,,68,127
49019,note_on,1,0,0,,0,,,72,127
49107,note_off,88,0,0,,0,,,72,127
49108,note_off,1,0,0,,11,,,58,127
49108,note_on,0,0,0,,11,,,70,127
49196,note_off,88,0,0,,11,,,70,127
49197,note_on,1,0,0,,11,,,58,127
49197,note_on,0,0,0,,8,,,68,127
49197,note_on,0,0,0,,2,,,74,127
49285,note_off,88,0,0,,2,,,74,127
49286,note_on,1,0,0,,11,,,70,127
49374,note_off,88,0,0,,11,,,70,127
49374,note_off,0,0,0,,8,,,68,127
49374,note_off,0,0,0,,11,,,58,127
49375,note_on,1,0,0,,11,,,58,127
49375,note_on,0,0,0,,7,,,67,127
49375,note_on,0,0,0,,3,,,75,127
49463,note_off,88,0,0,,3,,,75,127
49464,note_on,1,0,0,,11,,,70,127
49552,note_off,88,0,0,,11,,,70,127
49552,note_off,0,0,0,,7,,,67,127
49552,note_off,0,0,0,,11,,,58,127
49553,note_on,1,0,0,,11,,,58,127
49553,note_on,0,0,0,,5,,,65,127
49553,note_on,0,0,0,,5,,,77,127
49641,note_off,88,0,0,,5,,,77,127
49642,note_on,1,0,0,,11,,,70,127
49730,note_off,88,0,0,,11,,,70,127
49730,note_off,0,0,0,,5,,,65,127
49730,note_off,0,0,0,,11,,,58,127
49731,note_on,1,0,0,,3,,,63,127
49731,note_on,0,0,0,,11,,,58,127
49731,note_on,0,0,0,,7,,,79,127
49819,note_off,88,0,0,,7,,,79,127
49820,note_on,1,0,0,,8,,,68,127
49908,note_off,88,0,0,,8,,,68,127
49909,note_on,1,0,0,,11,,,70,127
49997,note_off,88,0,0,,11,,,70,127
49998,note_on,1,0,0,,8,,,68,127
50086,note_off,88,0,0,,8,,,68,127
50087,note_on,1,0,0,,0,,,72,127
50175,note_off,88,0,0,,0,,,72,127
50176,note_on,1,0,0,,11,,,70,127
50264,note_off,88,0,0,,11,,,70,127
50264,note_off,0,0,0,,11,,,58,127
50264,note_off,0,0,0,,3,,,63,127
50265,note_on,1,0,0,,11,,,58,127
50265,note_on,0,0,0,,8,,,68,127
50265,note_on,0,0,0,,2,,,74,127
50353,note_off,88,0,0,,2,,,74,127
50354,note_on,1,0,0,,11,,,70,127
50442,note_off,88,0,0,,11,,,70,127
50442,note_off,0,0,0,,8,,,68,127
50442,note_off,0,0,0,,11,,,58,127
50443,note_on,1,0,0,,11,,,58,127
50443,note_on,0,0,0,,7,,,67,127
50443,note_on,0,0,0,,3,,,75,127
50531,note_off,88,0,0,,3,,,75,127
50532,note_on,1,0,0,,11,,,70,127
50620,note_off,88,0,0,,11,,,70,127
50620,note_off,0,0,0,,7,,,67,127
50620,note_off,0,0,0,,11,,,58,127
50621,note_on,1,0,0,,11,,,58,127
50621,note_on,0,0,0,,5,,,65,127
50621,note_on,0,0,0,,5,,,77,127
50709,note_off,88,0,0,,5,,,77,127
50710,note_on,1,0,0,,11,,,70,127
50798,note_off,88,0,0,,11,,,70,127
50798,note_off,0,0,0,,5,,,65,127
50798,note_off,0,0,0,,11,,,58,127
50799,note_on,1,0,0,,3,,,51,127
50799,note_on,0,0,0,,7,,,79,127
50887,note_off,88,0,0,,7,,,79,127
50888,note_on,1,0,0,,3,,,75,127
50976,note_off,88,0,0,,3,,,75,127
50977,note_on,1,0,0,,11,,,70,127
51065,note_off,88,0,0,,11,,,70,127
51066,note_on,1,0,0,,7,,,67,127
51154,note_off,88,0,0,,7,,,67,127
51155,note_on,1,0,0,,11,,,70,127
51243,note_off,88,0,0,,11,,,70,127
51244,note_on,1,0,0,,3,,,75,127
51332,note_off,88,0,0,,3,,,75,127
51332,note_off,0,0,0,,3,,,51,127
51333,note_on,1,0,0,,3,,,39,127
51333,note_on,0,0,0,,7,,,79,127
51421,note_off,88,0,0,,7,,,79,127
51422,note_on,1,0,0,,3,,,75,127
51510,note_off,88,0,0,,3,,,75,127
51511,note_on,1,0,0,,11,,,70,127
51599,note_off,88,0,0,,11,,,70,127
51600,note_on,1,0,0,,7,,,67,127
51688,note_off,88,0,0,,7,,,67,127
51689,note_on,1,0,0,,11,,,70,127
51777,note_off,88,0,0,,11,,,70,127
51778,note_on,1,0,0,,3,,,75,127
51866,note_off,88,0,0,,3,,,75,127
51866,note_off,0,0,0,,3,,,39,127
51867,note_on,1,0,0,,3,,,39,127
51867,note_on,0,0,0,,7,,,79,127
51955,note_off,88,0,0,,7,,,79,127
51956,note_on,1,0,0,,3,,,75,127
52044,note_off,88,0,0,,3,,,75,127
52045,note_on,1,0,0,,11,,,70,127
52133,note_off,88,0,0,,11,,,70,127
52134,note_on,1,0,0,,7,,,67,127
52222,note_off,88,0,0,,7,,,67,127
52223,note_on,1,0,0,,11,,,70,127
52311,note_off,88,0,0,,11,,,70,127
52312,note_on,1,0,0,,3,,,75,127
52400,note_off,88,0,0,,3,,,75,127
52400,note_off,0,0,0,,3,,,39,127
52401,note_on,1,0,0,,3,,,39,127
52401,note_on,0,0,0,,7,,,79,127
52489,note_off,88,0,0,,7,,,79,127
52490,note_on,1,0,0,,11,,,82,127
52578,note_off,88,0,0,,11,,,82,127
52579,note_on,1,0,0,,7,,,79,127
53110,note_off,531,0,0,,7,,,79,127
53110,note_off,0,0,0,,3,,,39,127
53643,note_on,533,0,0,,7,,,79,127
53643,note_on,0,0,0,,10,,,33,127
53731,note_off,88,0,0,,7,,,79,127
53732,note_on,1,0,0,,4,,,76,127
53820,note_off,88,0,0,,4,,,76,127
53821,note_on,1,0,0,,1,,,73,127
53909,note_off,88,0,0,,1,,,73,127
53910,note_on,1,0,0,,10,,,69,127
53998,note_off,88,0,0,,10,,,69,127
53999,note_on,1,0,0,,1,,,73,127
54087,note_off,88,0,0,,1,,,73,127
54088,note_on,1,0,0,,4,,,76,127
54176,note_off,88,0,0,,4,,,76,127
54176,note_off,0,0,0,,10,,,33,127
54177,note_on,1,0,0,,7,,,79,127
54177,note_on,0,0,0,,10,,,33,127
54265,note_off,88,0,0,,7,,,79,127
54266,note_on,1,0,0,,4,,,76,127
54354,note_off,88,0,0,,4,,,76,127
54355,note_on,1,0,0,,1,,,73,127
54443,note_off,88,0,0,,1,,,73,127
54444,note_on,1,0,0,,10,,,69,127
54532,note_off,88,0,0,,10,,,69,127
54533,note_on,1,0,0,,1,,,73,127
54621,note_off,88,0,0,,1,,,73,127
54622,note_on,1,0,0,,4,,,76,127
54710,note_off,88,0,0,,4,,,76,127
54710,note_off,0,0,0,,10,,,33,127
54711,note_on,1,0,0,,7,,,79,127
54711,note_on,0,0,0,,10,,,33,127
54799,note_off,88,0,0,,7,,,79,127
54800,note_on,1,0,0,,4,,,76,127
54888,note_off,88,0,0,,4,,,76,127
54889,note_on,1,0,0,,1,,,73,127
54977,note_off,88,0,0,,1,,,73,127
54978,note_on,1,0,0,,10,,,69,127
55066,note_off,88,0,0,,10,,,69,127
55067,note_on,1,0,0,,1,,,73,127
55155,note_off,88,0,0,,1,,,73,127
55156,note_on,1,0,0,,4,,,76,127
55244,note_off,88,0,0,,4,,,76,127
55244,note_off,0,0,0,,10,,,33,127
55245,note_on,1,0,0,,7,,,79,127
55245,note_on,0,0,0,,10,,,33,127
55333,note_off,88,0,0,,7,,,79,127
55334,note_on,1,0,0,,11,,,82,127
55422,note_off,88,0,0,,11,,,82,127
55423,note_on,1,0,0,,7,,,79,127
55774,note_off,351,0,0,,7,,,79,127
55777,note_off,3,0,0,,10,,,33,127
56310,note_on,533,0,0,,10,,,81,127
56310,note_on,0,0,0,,2,,,38,127
56398,note_off,88,0,0,,10,,,81,127
56399,note_on,1,0,0,,6,,,78,127
56487,note_off,88,0,0,,6,,,78,127
56488,note_on,1,0,0,,0,,,72,127
56576,note_off,88,0,0,,0,,,72,127
56577,note_on,1,0,0,,10,,,69,127
56665,note_off,88,0,0,,10,,,69,127
56666,note_on,1,0,0,,0,,,72,127
56754,note_off,88,0,0,,0,,,72,127
56755,note_on,1,0,0,,6,,,78,127
56843,note_off,88,0,0,,6,,,78,127
56843,note_off,0,0,0,,2,,,38,127
56844,note_on,1,0,0,,10,,,81,127
56844,note_on,0,0,0,,2,,,38,127
56932,note_off,88,0,0,,10,,,81,127
56933,note_on,1,0,0,,6,,,78,127
57021,note_off,88,0,0,,6,,,78,127
57022,note_on,1,0,0,,0,,,72,127
57110,note_off,88,0,0,,0,,,72,127
57111,note_on,1,0,0,,10,,,69,127
57199,note_off,88,0,0,,10,,,69,127
57200,note_on,1,0,0,,0,,,72,127
57288,note_off,88,0,0,,0,,,72,127
57289,note_on,1,0,0,,6,,,78,127
57377,note_off,88,0,0,,6,,,78,127
57377,note_off,0,0,0,,2,,,38,127
57378,note_on,1,0,0,,10,,,81,127
57378,note_on,0,0,0,,2,,,38,127
57466,note_off,88,0,0,,10,,,81,127
57467,note_on,1,0,0,,6,,,78,127
57555,note_off,88,0,0,,6,,,78,127
57556,note_on,1,0,0,,0,,,72,127
57644,note_off,88,0,0,,0,,,72,127
57645,note_on,1,0,0,,10,,,69,127
57733,note_off,88,0,0,,10,,,69,127
57734,note_on,1,0,0,,0,,,72,127
57822,note_off,88,0,0,,0,,,72,127
57823,note_on,1,0,0,,6,,,78,127
57911,note_off,88,0,0,,6,,,78,127
57911,note_off,0,0,0,,2,,,38,127
57912,note_on,1,0,0,,10,,,81,127
57912,note_on,0,0,0,,2,,,38,127
58000,note_off,88,0,0,,10,,,81,127
58001,note_on,1,0,0,,0,,,84,127
58089,note_off,88,0,0,,0,,,84,127
58090,note_on,1,0,0,,10,,,81,127
58441,note_off,351,0,0,,10,,,81,127
58444,note_off,3,0,0,,2,,,38,127
58799,note_on,355,0,0,,7,,,43,127
58799,note_on,0,0,0,,2,,,86,127
58887,note_off,88,0,0,,2,,,86,127
58888,note_on,1,0,0,,0,,,84,127
58976,note_off,88,0,0,,0,,,84,127
58976,note_off,0,0,0,,7,,,43,127
58977,note_on,1,0,0,,10,,,45,127
58977,note_on,0,0,0,,11,,,82,127
59065,note_off,88,0,0,,11,,,82,127
59066,note_on,1,0,0,,10,,,81,127
59154,note_off,88,0,0,,10,,,81,127
59154,note_off,0,0,0,,10,,,45,127
59155,note_on,1,0,0,,11,,,46,127
59155,note_on,0,0,0,,7,,,79,127
59243,note_off,88,0,0,,7,,,79,127
59244,note_on,1,0,0,,5,,,77,127
59332,note_off,88,0,0,,5,,,77,127
59332,note_off,0,0,0,,11,,,46,127
59333,note_on,1,0,0,,0,,,48,127
59333,note_on,0,0,0,,3,,,75,127
59421,note_off,88,0,0,,3,,,75,127
59422,note_on,1,0,0,,2,,,74,127
59510,note_off,88,0,0,,2,,,74,127
59510,note_off,0,0,0,,0,,,48,127
59511,note_on,1,0,0,,2,,,50,127
59511,note_on,0,0,0,,0,,,72,127
59599,note_off,88,0,0,,0,,,72,127
59600,note_on,1,0,0,,11,,,70,127
59688,note_off,88,0,0,,11,,,70,127
59688,note_off,0,0,0,,2,,,50,127
59689,note_on,1,0,0,,3,,,51,127
59689,note_on,0,0,0,,10,,,69,127
59777,note_off,88,0,0,,10,,,69,127
59778,note_on,1,0,0,,7,,,67,127
59866,note_off,88,0,0,,7,,,67,127
59866,note_off,0,0,0,,3,,,51,127
59867,note_on,1,0,0,,2,,,50,127
59867,note_on,0,0,0,,6,,,66,127
59955,note_off,88,0,0,,6,,,66,127
59956,note_on,1,0,0,,3,,,63,127
60044,note_off,88,0,0,,3,,,63,127
60044,note_off,0,0,0,,2,,,50,127
60045,note_on,1,0,0,,4,,,52,127
60045,note_on,0,0,0,,2,,,62,127
60133,note_off,88,0,0,,2,,,62,127
60134,note_on,1,0,0,,0,,,60,127
60222,note_off,88,0,0,,0,,,60,127
60222,note_off,0,0,0,,4,,,52,127
60223,note_on,1,0,0,,6,,,54,127
60223,note_on,0,0,0,,11,,,58,127
60311,note_off,88,0,0,,11,,,58,127
60312,note_on,1,0,0,,10,,,57,127
60400,note_off,88,0,0,,10,,,57,127
60400,note_off,0,0,0,,6,,,54,127
60401,note_on,1,0,0,,7,,,55,127
60401,note_on,0,0,0,,11,,,58,127
60489,note_off,88,0,0,,11,,,58,127
60490,note_on,1,0,0,,2,,,62,127
60578,note_off,88,0,0,,2,,,62,127
60578,note_off,0,0,0,,7,,,55,127
60579,note_on,1,0,0,,5,,,53,127
60579,note_on,0,0,0,,10,,,57,127
60667,note_off,88,0,0,,10,,,57,127
60668,note_on,1,0,0,,2,,,62,127
60756,note_off,88,0,0,,2,,,62,127
60756,note_off,0,0,0,,5,,,53,127
60757,note_on,1,0,0,,3,,,51,127
60757,note_on,0,0,0,,7,,,55,127
60845,note_off,88,0,0,,7,,,55,127
60846,note_on,1,0,0,,7,,,67,127
60934,note_off,88,0,0,,7,,,67,127
60934,note_off,0,0,0,,3,,,51,127
60935,note_on,1,0,0,,2,,,50,127
60935,note_on,0,0,0,,10,,,69,127
61023,note_off,88,0,0,,10,,,69,127
61024,note_on,1,0,0,,7,,,67,127
61112,note_off,88,0,0,,7,,,67,127
61113,note_on,1,0,0,,6,,,66,127
61201,note_off,88,0,0,,6,,,66,127
61202,note_on,1,0,0,,4,,,64,127
61290,note_off,88,0,0,,4,,,64,127
61291,note_on,1,0,0,,2,,,62,127
61467,note_off,176,0,0,,2,,,62,127
61467,note_off,0,0,0,,2,,,50,127
61468,note_on,1,0,0,,7,,,67,127
61468,note_on,0,0,0,,2,,,86,127
61556,note_off,88,0,0,,7,,,67,127
61557,note_on,1,0,0,,6,,,66,127
61645,note_off,88,0,0,,6,,,66,127
61646,note_on,1,0,0,,10,,,69,127
61734,note_off,88,0,0,,10,,,69,127
61735,note_on,1,0,0,,7,,,67,127
61823,note_off,88,0,0,,7,,,67,127
61824,note_on,1,0,0,,11,,,70,127
61912,note_off,88,0,0,,11,,,70,127
61913,note_on,1,0,0,,10,,,69,127
62001,note_off,88,0,0,,10,,,69,127
62002,note_on,1,0,0,,2,,,50,127
62090,note_off,88,0,0,,2,,,86,127
62091,note_on,1,0,0,,10,,,81,127
62179,note_off,88,0,0,,10,,,81,127
62180,note_on,1,0,0,,6,,,78,127
62268,note_off,88,0,0,,6,,,78,127
62269,note_on,1,0,0,,2,,,74,127
62357,note_off,88,0,0,,2,,,74,127
62358,note_on,1,0,0,,6,,,78,127
62446,note_off,88,0,0,,6,,,78,127
62447,note_on,1,0,0,,10,,,81,127
62535,note_off,88,0,0,,10,,,81,127
62535,note_off,0,0,0,,2,,,50,127
62536,note_on,1,0,0,,7,,,67,127
62536,note_on,0,0,0,,2,,,86,127
62624,note_off,88,0,0,,7,,,67,127
62625,note_on,1,0,0,,6,,,66,127
62713,note_off,88,0,0,,6,,,66,127
62714,note_on,1,0,0,,10,,,69,127
62802,note_off,88,0,0,,10,,,69,127
62803,note_on,1,0,0,,7,,,67,127
62891,note_off,88,0,0,,7,,,67,127
62892,note_on,1,0,0,,11,,,70,127
62980,note_off,88,0,0,,11,,,70,127
62981,note_on,1,0,0,,10,,,69,127
63069,note_off,88,0,0,,10,,,69,127
63070,note_on,1,0,0,,0,,,48,127
63158,note_off,88,0,0,,2,,,86,127
63159,note_on,1,0,0,,10,,,81,127
63247,note_off,88,0,0,,10,,,81,127
63248,note_on,1,0,0,,6,,,78,127
63336,note_off,88,0,0,,6,,,78,127
63337,note_on,1,0,0,,2,,,74,127
63425,note_off,88,0,0,,2,,,74,127
63426,note_on,1,0,0,,6,,,78,127
63514,note_off,88,0,0,,6,,,78,127
63515,note_on,1,0,0,,10,,,81,127
63603,note_off,88,0,0,,10,,,81,127
63603,note_off,0,0,0,,0,,,48,127
63604,note_on,1,0,0,,10,,,69,127
63604,note_on,0,0,0,,2,,,86,127
63692,note_off,88,0,0,,10,,,69,127
63693,note_on,1,0,0,,7,,,67,127
63781,note_off,88,0,0,,7,,,67,127
63782,note_on,1,0,0,,11,,,70,127
63870,note_off,88,0,0,,11,,,70,127
63871,note_on,1,0,0,,10,,,69,127
63959,note_off,88,0,0,,10,,,69,127
63960,note_on,1,0,0,,0,,,72,127
64048,note_off,88,0,0,,0,,,72,127
64049,note_on,1,0,0,,11,,,70,127
64137,note_off,88,0,0,,11,,,70,127
64138,note_on,1,0,0,,11,,,46,127
64226,note_off,88,0,0,,2,,,86,127
64227,note_on,1,0,0,,11,,,82,127
64315,note_off,88,0,0,,11,,,82,127
64316,note_on,1,0,0,,7,,,79,127
64404,note_off,88,0,0,,7,,,79,127
64405,note_on,1,0,0,,2,,,74,127
64493,note_off,88,0,0,,2,,,74,127
64494,note_on,1,0,0,,7,,,79,127
64582,note_off,88,0,0,,7,,,79,127
64583,note_on,1,0,0,,11,,,82,127
64671,note_off,88,0,0,,11,,,82,127
64671,note_off,0,0,0,,11,,,46,127
64672,note_on,1,0,0,,11,,,70,127
64672,note_on,0,0,0,,2,,,86,127
64760,note_off,88,0,0,,11,,,70,127
64761,note_on,1,0,0,,10,,,69,127
64849,note_off,88,0,0,,10,,,69,127
64850,note_on,1,0,0,,0,,,72,127
64938,note_off,88,0,0,,0,,,72,127
64939,note_on,1,0,0,,11,,,70,127
65027,note_off,88,0,0,,11,,,70,127
65028,note_on,1,0,0,,2,,,74,127
65116,note_off,88,0,0,,2,,,74,127
65117,note_on,1,0,0,,0,,,72,127
65205,note_off,88,0,0,,0,,,72,127
65206,note_on,1,0,0,,10,,,45,127
65294,note_off,88,0,0,,2,,,86,127
65295,note_on,1,0,0,,10,,,81,127
65383,note_off,88,0,0,,10,,,81,127
65384,note_on,1,0,0,,6,,,78,127
65472,note_off,88,0,0,,6,,,78,127
65473,note_on,1,0,0,,2,,,74,127
65561,note_off,88,0,0,,2,,,74,127
65562,note_on,1,0,0,,6,,,78,127
65650,note_off,88,0,0,,6,,,78,127
65651,note_on,1,0,0,,10,,,81,127
65739,note_off,88,0,0,,10,,,81,127
65739,note_off,0,0,0,,10,,,45,127
65740,note_on,1,0,0,,0,,,72,127
65740,note_on,0,0,0,,2,,,86,127
65828,note_off,88,0,0,,0,,,72,127
65829,note_on,1,0,0,,11,,,70,127
65917,note_off,88,0,0,,11,,,70,127
65918,note_on,1,0,0,,2,,,74,127
66006,note_off,88,0,0,,2,,,74,127
66007,note_on,1,0,0,,0,,,72,127
66095,note_off,88,0,0,,0,,,72,127
66096,note_on,1,0,0,,3,,,75,127
66184,note_off,88,0,0,,3,,,75,127
66185,note_on,1,0,0,,2,,,74,127
66273,note_off,88,0,0,,2,,,74,127
66274,note_on,1,0,0,,7,,,43,127
66362,note_off,88,0,0,,2,,,86,127
66363,note_on,1,0,0,,0,,,84,127
66451,note_off,88,0,0,,0,,,84,127
66452,note_on,1,0,0,,11,,,82,127
66540,note_off,88,0,0,,11,,,82,127
66541,note_on,1,0,0,,10,,,81,127
66629,note_off,88,0,0,,10,,,81,127
66630,note_on,1,0,0,,7,,,79,127
66718,note_off,88,0,0,,7,,,79,127
66719,note_on,1,0,0,,5,,,77,127
66756,note_off,37,0,0,,7,,,43,127
66807,note_off,51,0,0,,5,,,77,127
66808,note_on,1,0,0,,0,,,48,127
66808,note_on,0,0,0,,3,,,75,127
66896,note_off,88,0,0,,3,,,75,127
66897,note_on,1,0,0,,2,,,74,127
66985,note_off,88,0,0,,2,,,74,127
66986,note_on,1,0,0,,0,,,72,127
67074,note_off,88,0,0,,0,,,72,127
67075,note_on,1,0,0,,11,,,70,127
67163,note_off,88,0,0,,11,,,70,127
67164,note_on,1,0,0,,10,,,69,127
67252,note_off,88,0,0,,10,,,69,127
67253,note_on,1,0,0,,7,,,67,127
67341,note_off,88,0,0,,7,,,67,127
67341,note_off,0,0,0,,0,,,48,127
67342,note_on,1,0,0,,2,,,50,127
67342,note_on,0,0,0,,6,,,66,127
67430,note_off,88,0,0,,6,,,66,127
67431,note_on,1,0,0,,3,,,75,127
67519,note_off,88,0,0,,3,,,75,127
67520,note_on,1,0,0,,2,,,74,127
67608,note_off,88,0,0,,2,,,74,127
67609,note_on,1,0,0,,0,,,72,127
67697,note_off,88,0,0,,0,,,72,127
67698,note_on,1,0,0,,11,,,70,127
67786,note_off,88,0,0,,11,,,70,127
67787,note_on,1,0,0,,10,,,69,127
67875,note_off,88,0,0,,10,,,69,127
67875,note_off,0,0,0,,2,,,50,127
67876,note_on,1,0,0,,7,,,55,127
67876,note_on,0,0,0,,11,,,70,127
67964,note_off,88,0,0,,11,,,70,127
67965,note_on,1,0,0,,0,,,72,127
68053,note_off,88,0,0,,0,,,72,127
68053,note_off,0,0,0,,7,,,55,127
68054,note_on,1,0,0,,0,,,48,127
68054,note_on,0,0,0,,2,,,74,127
68142,note_off,88,0,0,,2,,,74,127
68143,note_on,1,0,0,,7,,,67,127
68231,note_off,88,0,0,,7,,,67,127
68231,note_off,0,0,0,,0,,,48,127
68232,note_on,1,0,0,,2,,,50,127
68232,note_on,0,0,0,,6,,,66,127
68320,note_off,88,0,0,,6,,,66,127
68321,note_on,1,0,0,,10,,,69,127
68409,note_off,88,0,0,,10,,,69,127
68409,note_off,0,0,0,,2,,,50,127
68410,note_on,1,0,0,,7,,,43,127
68410,note_on,0,0,0,,7,,,67,127
68498,note_off,88,0,0,,7,,,67,127
68499,note_on,1,0,0,,2,,,62,127
68587,note_off,88,0,0,,2,,,62,127
68588,note_on,1,0,0,,11,,,70,127
68676,note_off,88,0,0,,11,,,70,127
68677,note_on,1,0,0,,7,,,67,127
68765,note_off,88,0,0,,7,,,67,127
68766,note_on,1,0,0,,2,,,74,127
68854,note_off,88,0,0,,2,,,74,127
68855,note_on,1,0,0,,11,,,70,127
68943,note_off,88,0,0,,11,,,70,127
68943,note_off,0,0,0,,7,,,43,127
68944,note_on,1,0,0,,7,,,67,127
68944,note_on,0,0,0,,2,,,86,127
69032,note_off,88,0,0,,7,,,67,127
69033,note_on,1,0,0,,6,,,66,127
69121,note_off,88,0,0,,6,,,66,127
69122,note_on,1,0,0,,10,,,69,127
69210,note_off,88,0,0,,10,,,69,127
69211,note_on,1,0,0,,7,,,67,127
69299,note_off,88,0,0,,7,,,67,127
69300,note_on,1,0,0,,11,,,70,127
69388,note_off,88,0,0,,11,,,70,127
69389,note_on,1,0,0,,10,,,69,127
69477,note_off,88,0,0,,10,,,69,127
69478,note_on,1,0,0,,2,,,50,127
69566,note_off,88,0,0,,2,,,86,127
69567,note_on,1,0,0,,10,,,81,127
69655,note_off,88,0,0,,10,,,81,127
69656,note_on,1,0,0,,6,,,78,127
69744,note_off,88,0,0,,6,,,78,127
69745,note_on,1,0,0,,2,,,74,127
69833,note_off,88,0,0,,2,,,74,127
69834,note_on,1,0,0,,6,,,78,127
69922,note_off,88,0,0,,6,,,78,127
69923,note_on,1,0,0,,10,,,81,127
70011,note_off,88,0,0,,10,,,81,127
70011,note_off,0,0,0,,2,,,50,127
70012,note_on,1,0,0,,7,,,67,127
70012,note_on,0,0,0,,2,,,86,127
70100,note_off,88,0,0,,7,,,67,127
70101,note_on,1,0,0,,6,,,66,127
70189,note_off,88,0,0,,6,,,66,127
70190,note_on,1,0,0,,10,,,69,127
70278,note_off,88,0,0,,10,,,69,127
70279,note_on,1,0,0,,7,,,67,127
70367,note_off,88,0,0,,7,,,67,127
70368,note_on,1,0,0,,11,,,70,127
70456,note_off,88,0,0,,11,,,70,127
70457,note_on,1,0,0,,10,,,69,127
70545,note_off,88,0,0,,10,,,69,127
70546,note_on,1,0,0,,0,,,48,127
70634,note_off,88,0,0,,2,,,86,127
70635,note_on,1,0,0,,10,,,81,127
70723,note_off,88,0,0,,10,,,81,127
70724,note_on,1,0,0,,6,,,78,127
70812,note_off,88,0,0,,6,,,78,127
70813,note_on,1,0,0,,2,,,74,127
70901,note_off,88,0,0,,2,,,74,127
70902,note_on,1,0,0,,6,,,78,127
70990,note_off,88,0,0,,6,,,78,127
70991,note_on,1,0,0,,10,,,81,127
71079,note_off,88,0,0,,10,,,81,127
71079,note_off,0,0,0,,0,,,48,127
71080,note_on,1,0,0,,10,,,69,127
71080,note_on,0,0,0,,2,,,86,127
71168,note_off,88,0,0,,10,,,69,127
71169,note_on,1,0,0,,7,,,67,127
71257,note_off,88,0,0,,7,,,67,127
71258,note_on,1,0,0,,11,,,70,127
71346,note_off,88,0,0,,11,,,70,127
71347,note_on,1,0,0,,10,,,69,127
71435,note_off,88,0,0,,10,,,69,127
71436,note_on,1,0,0,,0,,,72,127
71524,note_off,88,0,0,,0,,,72,127
71525,note_on,1,0,0,,11,,,70,127
71613,note_off,88,0,0,,11,,,70,127
71614,note_on,1,0,0,,11,,,46,127
71702,note_off,88,0,0,,2,,,86,127
71703,note_on,1,0,0,,11,,,82,127
71791,note_off,88,0,0,,11,,,82,127
71792,note_on,1,0,0,,7,,,79,127
71880,note_off,88,0,0,,7,,,79,127
71881,note_on,1,0,0,,2,,,74,127
71969,note_off,88,0,0,,2,,,74,127
71970,note_on,1,0,0,,7,,,79,127
72058,note_off,88,0,0,,7,,,79,127
72059,note_on,1,0,0,,11,,,82,127
72147,note_off,88,0,0,,11,,,82,127
72147,note_off,0,0,0,,11,,,46,127
72148,note_on,1,0,0,,11,,,70,127
72148,note_on,0,0,0,,2,,,86,127
72236,note_off,88,0,0,,11,,,70,127
72237,note_on,1,0,0,,10,,,69,127
72325,note_off,88,0,0,,10,,,69,127
72326,note_on,1,0,0,,0,,,72,127
72414,note_off,88,0,0,,0,,,72,127
72415,note_on,1,0,0,,11,,,70,127
72503,note_off,88,0,0,,11,,,70,127
72504,note_on,1,0,0,,2,,,74,127
72592,note_off,88,0,0,,2,,,74,127
72593,note_on,1,0,0,,0,,,72,127
72681,note_off,88,0,0,,0,,,72,127
72682,note_on,1,0,0,,10,,,45,127
72770,note_off,88,0,0,,2,,,86,127
72771,note_on,1,0,0,,10,,,81,127
72859,note_off,88,0,0,,10,,,81,127
72860,note_on,1,0,0,,6,,,78,127
72948,note_off,88,0,0,,6,,,78,127
72949,note_on,1,0,0,,2,,,74,127
73037,note_off,88,0,0,,2,,,74,127
73038,note_on,1,0,0,,6,,,78,127
73126,note_off,88,0,0,,6,,,78,127
73127,note_on,1,0,0,,10,,,81,127
73215,note_off,88,0,0,,10,,,81,127
73215,note_off,0,0,0,,10,,,45,127
73216,note_on,1,0,0,,0,,,72,127
73216,note_on,0,0,0,,2,,,86,127
73304,note_off,88,0,0,,0,,,72,127
73305,note_on,1,0,0,,11,,,70,127
73393,note_off,88,0,0,,11,,,70,127
73394,note_on,1,0,0,,2,,,74,127
73482,note_off,88,0,0,,2,,,74,127
73483,note_on,1,0,0,,0,,,72,127
73571,note_off,88,0,0,,0,,,72,127
73572,note_on,1,0,0,,3,,,75,127
73660,note_off,88,0,0,,3,,,75,127
73661,note_on,1,0,0,,2,,,74,127
73749,note_off,88,0,0,,2,,,74,127
73750,note_on,1,0,0,,7,,,43,127
73838,note_off,88,0,0,,2,,,86,127
73839,note_on,1,0,0,,0,,,84,127
73927,note_off,88,0,0,,0,,,84,127
73928,note_on,1,0,0,,11,,,82,127
74016,note_off,88,0,0,,11,,,82,127
74017,note_on,1,0,0,,10,,,81,127
74105,note_off,88,0,0,,10,,,81,127
74106,note_on,1,0,0,,7,,,79,127
74194,note_off,88,0,0,,7,,,79,127
74195,note_on,1,0,0,,5,,,77,127
74250,note_off,55,0,0,,7,,,43,127
74282,note_off,32,0,0,,5,,,77,127
74283,note_on,1,0,0,,0,,,48,127
74283,note_on,0,0,0,,3,,,75,127
74371,note_off,88,0,0,,3,,,75,127
74372,note_on,1,0,0,,2,,,74,127
74460,note_off,88,0,0,,2,,,74,127
74461,note_on,1,0,0,,0,,,72,127
74549,note_off,88,0,0,,0,,,72,127
74550,note_on,1,0,0,,11,,,70,127
74638,note_off,88,0,0,,11,,,70,127
74639,note_on,1,0,0,,10,,,69,127
74727,note_off,88,0,0,,10,,,69,127
74728,note_on,1,0,0,,7,,,67,127
74816,note_off,88,0,0,,7,,,67,127
74816,note_off,0,0,0,,0,,,48,127
74817,note_on,1,0,0,,2,,,50,127
74817,note_on,0,0,0,,6,,,66,127
74905,note_off,88,0,0,,6,,,66,127
74906,note_on,1,0,0,,3,,,75,127
74994,note_off,88,0,0,,3,,,75,127
74995,note_on,1,0,0,,2,,,74,127
75083,note_off,88,0,0,,2,,,74,127
75084,note_on,1,0,0,,0,,,72,127
75172,note_off,88,0,0,,0,,,72,127
75173,note_on,1,0,0,,11,,,70,127
75261,note_off,88,0,0,,11,,,70,127
75262,note_on,1,0,0,,10,,,69,127
75350,note_off,88,0,0,,10,,,69,127
75350,note_off,0,0,0,,2,,,50,127
75351,note_on,1,0,0,,7,,,55,127
75351,note_on,0,0,0,,11,,,70,127
75439,note_off,88,0,0,,11,,,70,127
75440,note_on,1,0,0,,0,,,72,127
75528,note_off,88,0,0,,0,,,72,127
75528,note_off,0,0,0,,7,,,55,127
75529,note_on,1,0,0,,0,,,48,127
75529,note_on,0,0,0,,2,,,74,127
75617,note_off,88,0,0,,2,,,74,127
75618,note_on,1,0,0,,7,,,67,127
75706,note_off,88,0,0,,7,,,67,127
75706,note_off,0,0,0,,0,,,48,127
75707,note_on,1,0,0,,2,,,50,127
75707,note_on,0,0,0,,6,,,66,127
75795,note_off,88,0,0,,6,,,66,127
75796,note_on,1,0,0,,10,,,69,127
75883,note_off,87,0,0,,2,,,50,127
75884,note_off,1,0,0,,10,,,69,127
75885,note_on,1,0,0,,7,,,67,127
75974,note_on,89,0,0,,7,,,55,127
76062,note_off,88,0,0,,7,,,55,127
76063,note_on,1,0,0,,10,,,57,127
76151,note_off,88,0,0,,10,,,57,127
76152,note_on,1,0,0,,11,,,58,127
76240,note_off,88,0,0,,11,,,58,127
76241,note_on,1,0,0,,0,,,60,127
76329,note_off,88,0,0,,0,,,60,127
76330,note_on,1,0,0,,2,,,62,127
76418,note_off,88,0,0,,2,,,62,127
76418,note_off,0,0,0,,7,,,67,127
76419,note_on,1,0,0,,4,,,64,127
76507,note_off,88,0,0,,4,,,64,127
76508,note_on,1,0,0,,6,,,66,127
76596,note_off,88,0,0,,6,,,66,127
76597,note_on,1,0,0,,7,,,67,127
76685,note_off,88,0,0,,7,,,67,127
76686,note_on,1,0,0,,10,,,69,127
76774,note_off,88,0,0,,10,,,69,127
76775,note_on,1,0,0,,11,,,70,127
76863,note_off,88,0,0,,11,,,70,127
76864,note_on,1,0,0,,0,,,72,127
76952,note_off,88,0,0,,0,,,72,127
76953,note_on,1,0,0,,2,,,50,127
76953,note_on,0,0,0,,2,,,62,127
77130,note_on,177,0,0,,10,,,69,127
77130,note_on,0,0,0,,6,,,66,127
77130,note_on,0,0,0,,0,,,72,127
77306,note_off,176,0,0,,0,,,72,127
77306,note_off,0,0,0,,6,,,66,127
77306,note_off,0,0,0,,10,,,69,127
77306,note_off,0,0,0,,2,,,50,127
77307,note_on,1,0,0,,7,,,55,127
77307,note_on,0,0,0,,7,,,67,127
77307,note_on,0,0,0,,11,,,70,127
77483,note_off,176,0,0,,11,,,70,127
77483,note_off,0,0,0,,7,,,67,127
77483,note_off,0,0,0,,7,,,55,127
77483,note_off,0,0,0,,2,,,62,127
77484,note_on,1,0,0,,0,,,48,127
77484,note_on,0,0,0,,10,,,69,127
77484,note_on,0,0,0,,0,,,60,127
77660,note_off,176,0,0,,0,,,60,127
77660,note_off,0,0,0,,10,,,69,127
77661,note_on,1,0,0,,7,,,67,127
77661,note_on,0,0,0,,11,,,58,127
77837,note_off,176,0,0,,11,,,58,127
77837,note_off,0,0,0,,7,,,67,127
77837,note_off,0,0,0,,0,,,48,127
77838,note_on,1,0,0,,2,,,50,127
77838,note_on,0,0,0,,6,,,66,127
77838,note_on,0,0,0,,10,,,57,127
78013,note_off,175,0,0,,2,,,50,127
78014,note_off,1,0,0,,10,,,57,127
78014,note_off,0,0,0,,6,,,66,127
78015,note_on,1,0,0,,7,,,67,127
78015,note_on,0,0,0,,7,,,55,127
78104,note_on,89,0,0,,7,,,43,127
78192,note_off,88,0,0,,7,,,43,127
78193,note_on,1,0,0,,10,,,45,127
78281,note_off,88,0,0,,10,,,45,127
78282,note_on,1,0,0,,11,,,46,127
78370,note_off,88,0,0,,11,,,46,127
78371,note_on,1,0,0,,0,,,48,127
78459,note_off,88,0,0,,0,,,48,127
78460,note_on,1,0,0,,2,,,50,127
78548,note_off,88,0,0,,2,,,50,127
78548,note_off,0,0,0,,7,,,55,127
78548,note_off,0,0,0,,7,,,67,127
78549,note_on,1,0,0,,4,,,52,127
78637,note_off,88,0,0,,4,,,52,127
78638,note_on,1,0,0,,6,,,54,127
78726,note_off,88,0,0,,6,,,54,127
78727,note_on,1,0,0,,7,,,55,127
78815,note_off,88,0,0,,7,,,55,127
78816,note_on,1,0,0,,10,,,57,127
78904,note_off,88,0,0,,10,,,57,127
78905,note_on,1,0,0,,11,,,58,127
78993,note_off,88,0,0,,11,,,58,127
78994,note_on,1,0,0,,0,,,60,127
79082,note_off,88,0,0,,0,,,60,127
79083,note_on,1,0,0,,2,,,38,127
79083,note_on,0,0,0,,2,,,62,127
79260,note_on,177,0,0,,6,,,66,127
79260,note_on,0,0,0,,0,,,72,127
79260,note_on,0,0,0,,10,,,69,127
79436,note_off,176,0,0,,10,,,69,127
79436,note_off,0,0,0,,0,,,72,127
79436,note_off,0,0,0,,6,,,66,127
79436,note_off,0,0,0,,2,,,38,127
79437,note_on,1,0,0,,7,,,43,127
79437,note_on,0,0,0,,7,,,67,127
79437,note_on,0,0,0,,11,,,70,127
79613,note_off,176,0,0,,11,,,70,127
79613,note_off,0,0,0,,7,,,67,127
79613,note_off,0,0,0,,7,,,43,127
79613,note_off,0,0,0,,2,,,62,127
79614,note_on,1,0,0,,0,,,36,127
79614,note_on,0,0,0,,10,,,69,127
79614,note_on,0,0,0,,0,,,60,127
79790,note_off,176,0,0,,0,,,60,127
79790,note_off,0,0,0,,10,,,69,127
79791,note_on,1,0,0,,11,,,58,127
79791,note_on,0,0,0,,7,,,67,127
79967,note_off,176,0,0,,7,,,67,127
79967,note_off,0,0,0,,11,,,58,127
79967,note_off,0,0,0,,0,,,36,127
79968,note_on,1,0,0,,2,,,38,127
79968,note_on,0,0,0,,6,,,66,127
79968,note_on,0,0,0,,10,,,57,127
80144,note_off,176,0,0,,10,,,57,127
80144,note_off,0,0,0,,6,,,66,127
80144,note_off,0,0,0,,2,,,38,127
80145,note_on,1,0,0,,7,,,43,127
80145,note_on,0,0,0,,7,,,55,127
80145,note_on,0,0,0,,7,,,67,127
80233,note_off,88,0,0,,7,,,67,127
80234,note_on,1,0,0,,2,,,62,127
80322,note_off,88,0,0,,2,,,62,127
80323,note_on,1,0,0,,4,,,64,127
80411,note_off,88,0,0,,4,,,64,127
80412,note_on,1,0,0,,6,,,66,127
80500,note_off,88,0,0,,6,,,66,127
80501,note_on,1,0,0,,7,,,67,127
80589,note_off,88,0,0,,7,,,67,127
80590,note_on,1,0,0,,10,,,69,127
80678,note_off,88,0,0,,10,,,69,127
80678,note_off,0,0,0,,7,,,55,127
80678,note_off,0,0,0,,7,,,43,127
80679,note_on,1,0,0,,11,,,46,127
80679,note_on,0,0,0,,7,,,55,127
80679,note_on,0,0,0,,11,,,70,127
80767,note_off,88,0,0,,11,,,70,127
80768,note_on,1,0,0,,0,,,72,127
80856,note_off,88,0,0,,0,,,72,127
80857,note_on,1,0,0,,2,,,74,127
80945,note_off,88,0,0,,2,,,74,127
80946,note_on,1,0,0,,3,,,75,127
81034,note_off,88,0,0,,3,,,75,127
81034,note_off,0,0,0,,11,,,46,127
81035,note_on,1,0,0,,0,,,48,127
81035,note_on,0,0,0,,6,,,78,127
81123,note_off,88,0,0,,6,,,78,127
81124,note_on,1,0,0,,7,,,79,127
81212,note_off,88,0,0,,7,,,79,127
81212,note_off,0,0,0,,0,,,48,127
81212,note_off,0,0,0,,7,,,55,127
81213,note_on,1,0,0,,2,,,50,127
81213,note_on,0,0,0,,2,,,74,127
81389,note_off,176,0,0,,2,,,74,127
81390,note_on,1,0,0,,0,,,72,127
81566,note_off,176,0,0,,0,,,72,127
81566,note_off,0,0,0,,2,,,50,127
81567,note_on,1,0,0,,3,,,51,127
81567,note_on,0,0,0,,11,,,70,127
81743,note_off,176,0,0,,11,,,70,127
81743,note_off,0,0,0,,3,,,51,127
81744,note_on,1,0,0,,0,,,48,127
81744,note_on,0,0,0,,10,,,69,127
81920,note_off,176,0,0,,10,,,69,127
81920,note_off,0,0,0,,0,,,48,127
81921,note_on,1,0,0,,2,,,50,127
81921,note_on,0,0,0,,7,,,67,127
82097,note_off,176,0,0,,7,,,67,127
82097,note_off,0,0,0,,2,,,50,127
82098,note_on,1,0,0,,2,,,38,127
82098,note_on,0,0,0,,7,,,67,127
82141,note_off,43,0,0,,7,,,67,127
82142,note_on,1,0,0,,6,,,66,127
82185,note_off,43,0,0,,6,,,66,127
82186,note_on,1,0,0,,7,,,67,127
82229,note_off,43,0,0,,7,,,67,127
82230,note_on,1,0,0,,6,,,66,127
82273,note_off,43,0,0,,6,,,66,127
82273,note_off,0,0,0,,2,,,38,127
82274,note_on,1,0,0,,7,,,43,127
82274,note_on,0,0,0,,7,,,67,127
82362,note_off,88,0,0,,7,,,67,127
82363,note_on,1,0,0,,2,,,62,127
82451,note_off,88,0,0,,2,,,62,127
82452,note_on,1,0,0,,4,,,64,127
82540,note_off,88,0,0,,4,,,64,127
82541,note_on,1,0,0,,6,,,66,127
82629,note_off,88,0,0,,6,,,66,127
82630,note_on,1,0,0,,7,,,67,127
82718,note_off,88,0,0,,7,,,67,127
82719,note_on,1,0,0,,10,,,69,127
82807,note_off,88,0,0,,10,,,69,127
82807,note_off,0,0,0,,7,,,43,127
82808,note_on,1,0,0,,11,,,46,127
82808,note_on,0,0,0,,7,,,55,127
82808,note_on,0,0,0,,11,,,70,127
82896,note_off,88,0,0,,11,,,70,127
82897,note_on,1,0,0,,0,,,72,127
82985,note_off,88,0,0,,0,,,72,127
82986,note_on,1,0,0,,2,,,74,127
83074,note_off,88,0,0,,2,,,74,127
83075,note_on,1,0,0,,3,,,75,127
83163,note_off,88,0,0,,3,,,75,127
83163,note_off,0,0,0,,11,,,46,127
83164,note_on,1,0,0,,0,,,48,127
83164,note_on,0,0,0,,6,,,78,127
83252,note_off,88,0,0,,6,,,78,127
83253,note_on,1,0,0,,7,,,79,127
83341,note_off,88,0,0,,7,,,79,127
83341,note_off,0,0,0,,0,,,48,127
83341,note_off,0,0,0,,7,,,55,127
83342,note_on,1,0,0,,2,,,50,127
83342,note_on,0,0,0,,2,,,74,127
83518,note_off,176,0,0,,2,,,74,127
83519,note_on,1,0,0,,0,,,72,127
83695,note_off,176,0,0,,0,,,72,127
83695,note_off,0,0,0,,2,,,50,127
83696,note_on,1,0,0,,3,,,51,127
83696,note_on,0,0,0,,11,,,70,127
83872,note_off,176,0,0,,11,,,70,127
83872,note_off,0,0,0,,3,,,51,127
83873,note_on,1,0,0,,0,,,48,127
83873,note_on,0,0,0,,10,,,69,127
84049,note_off,176,0,0,,10,,,69,127
84049,note_off,0,0,0,,0,,,48,127
84050,note_on,1,0,0,,2,,,50,127
84050,note_on,0,0,0,,7,,,67,127
84226,note_off,176,0,0,,7,,,67,127
84226,note_off,0,0,0,,2,,,50,127
84227,note_on,1,0,0,,2,,,38,127
84227,note_on,0,0,0,,7,,,67,127
84270,note_off,43,0,0,,7,,,67,127
84271,note_on,1,0,0,,6,,,66,127
84314,note_off,43,0,0,,6,,,66,127
84315,note_on,1,0,0,,4,,,64,127
84358,note_off,43,0,0,,4,,,64,127
84359,note_on,1,0,0,,6,,,66,127
84402,note_off,43,0,0,,6,,,66,127
84402,note_off,0,0,0,,2,,,38,127
84417,note_on,15,0,0,,7,,,31,127
84417,note_on,0,0,0,,7,,,67,127
86101,note_off,1684,0,0,,7,,,67,127
86101,note_off,0,0,0,,7,,,31,127
87552,end_of_track,1451,1,0,,,,,,
