tick,type,time,meta,track,program,channel,pitch,tempo,note,velocity
0,copyright,0,1,0,,,,,,
0,program_change,0,0,0,6,0,,,,
0,pitchwheel,0,0,0,,0,0,,,
0,program_change,0,0,0,6,1,,,,
0,pitchwheel,0,0,0,,1,-590,,,
0,program_change,0,0,0,6,2,,,,
0,pitchwheel,0,0,0,,2,-272,,,
0,program_change,0,0,0,6,3,,,,
0,pitchwheel,0,0,0,,3,-353,,,
0,program_change,0,0,0,6,4,,,,
0,pitchwheel,0,0,0,,4,-560,,,
0,program_change,0,0,0,6,5,,,,
0,pitchwheel,0,0,0,,5,-80,,,
0,program_change,0,0,0,6,6,,,,
0,pitchwheel,0,0,0,,6,-625,,,
0,program_change,0,0,0,6,7,,,,
0,pitchwheel,0,0,0,,7,-130,,,
0,program_change,0,0,0,6,8,,,,
0,pitchwheel,0,0,0,,8,-512,,,
0,program_change,0,0,0,6,10,,,,
0,pitchwheel,0,0,0,,10,-464,,,
0,program_change,0,0,0,6,11,,,,
0,pitchwheel,0,0,0,,11,-208,,,
0,program_change,0,0,0,6,12,,,,
0,pitchwheel,0,0,0,,12,-553,,,
0,set_tempo,0,1,0,,,,500000,,
128,note_on,128,0,0,,7,,,67,127
255,note_off,127,0,0,,7,,,67,127
256,note_on,1,0,0,,2,,,62,127
383,note_off,127,0,0,,2,,,62,127
384,note_on,1,0,0,,7,,,67,127
511,note_off,127,0,0,,7,,,67,127
512,note_on,1,0,0,,12,,,71,127
639,note_off,127,0,0,,12,,,71,127
640,note_on,1,0,0,,7,,,67,127
767,note_off,127,0,0,,7,,,67,127
768,note_on,1,0,0,,12,,,71,127
895,note_off,127,0,0,,12,,,71,127
896,note_on,1,0,0,,12,,,71,127
896,note_on,0,0,0,,2,,,74,127
1151,note_off,255,0,0,,2,,,74,127
1151,note_off,0,0,0,,12,,,71,127
1152,note_on,1,0,0,,12,,,71,127
1152,note_on,0,0,0,,2,,,74,127
1279,note_off,127,0,0,,2,,,74,127
1279,note_off,0,0,0,,12,,,71,127
1280,note_on,1,0,0,,0,,,72,127
1280,note_on,0,0,0,,4,,,76,127
1407,note_off,127,0,0,,4,,,76,127
1407,note_off,0,0,0,,0,,,72,127
1408,note_on,1,0,0,,12,,,71,127
1408,note_on,0,0,0,,2,,,74,127
1535,note_off,127,0,0,,2,,,74,127
1535,note_off,0,0,0,,12,,,71,127
1536,note_on,1,0,0,,0,,,72,127
1536,note_on,0,0,0,,4,,,76,127
1663,note_off,127,0,0,,4,,,76,127
1663,note_off,0,0,0,,0,,,72,127
1664,note_on,1,0,0,,12,,,71,127
1664,note_on,0,0,0,,2,,,74,127
1919,note_off,255,0,0,,2,,,74,127
1919,note_off,0,0,0,,12,,,71,127
1920,note_on,1,0,0,,12,,,71,127
1920,note_on,0,0,0,,2,,,74,127
2047,note_off,127,0,0,,2,,,74,127
2047,note_off,0,0,0,,12,,,71,127
2048,note_on,1,0,0,,0,,,72,127
2048,note_on,0,0,0,,4,,,76,127
2175,note_off,127,0,0,,4,,,76,127
2175,note_off,0,0,0,,0,,,72,127
2176,note_on,1,0,0,,2,,,74,127
2176,note_on,0,0,0,,12,,,71,127
2303,note_off,127,0,0,,12,,,71,127
2303,note_off,0,0,0,,2,,,74,127
2304,note_on,1,0,0,,0,,,72,127
2304,note_on,0,0,0,,4,,,76,127
2431,note_off,127,0,0,,4,,,76,127
2431,note_off,0,0,0,,0,,,72,127
2432,note_on,1,0,0,,7,,,55,127
2432,note_on,0,0,0,,2,,,74,127
2432,note_on,0,0,0,,12,,,71,127
2559,note_off,127,0,0,,7,,,55,127
2560,note_on,1,0,0,,2,,,50,127
2687,note_off,127,0,0,,2,,,50,127
2688,note_on,1,0,0,,7,,,55,127
2815,note_off,127,0,0,,7,,,55,127
2816,note_on,1,0,0,,12,,,59,127
2943,note_off,127,0,0,,12,,,59,127
2944,note_on,1,0,0,,7,,,55,127
3071,note_off,127,0,0,,7,,,55,127
3072,note_on,1,0,0,,12,,,59,127
3199,note_off,127,0,0,,12,,,59,127
3199,note_off,0,0,0,,12,,,71,127
3199,note_off,0,0,0,,2,,,74,127
3200,note_on,1,0,0,,7,,,55,127
3200,note_on,0,0,0,,12,,,59,127
3200,note_on,0,0,0,,2,,,62,127
3200,note_on,0,0,0,,7,,,67,127
3455,note_off,255,0,0,,2,,,62,127
3455,note_off,0,0,0,,12,,,59,127
3456,note_on,1,0,0,,12,,,59,127
3456,note_on,0,0,0,,2,,,62,127
3583,note_off,127,0,0,,2,,,62,127
3583,note_off,0,0,0,,12,,,59,127
3584,note_on,1,0,0,,0,,,60,127
3584,note_on,0,0,0,,4,,,64,127
3711,note_off,127,0,0,,4,,,64,127
3711,note_off,0,0,0,,0,,,60,127
3712,note_on,1,0,0,,12,,,59,127
3712,note_on,0,0,0,,2,,,62,127
3839,note_off,127,0,0,,2,,,62,127
3839,note_off,0,0,0,,12,,,59,127
3840,note_on,1,0,0,,0,,,60,127
3840,note_on,0,0,0,,4,,,64,127
3967,note_off,127,0,0,,7,,,67,127
3967,note_off,0,0,0,,7,,,55,127
3968,note_off,1,0,0,,4,,,64,127
3968,note_off,0,0,0,,0,,,60,127
3969,note_on,1,0,0,,12,,,59,127
3969,note_on,0,0,0,,7,,,55,127
3969,note_on,0,0,0,,7,,,67,127
3969,note_on,0,0,0,,2,,,62,127
4224,note_off,255,0,0,,2,,,62,127
4224,note_off,0,0,0,,12,,,59,127
4225,note_on,1,0,0,,12,,,59,127
4225,note_on,0,0,0,,2,,,62,127
4352,note_off,127,0,0,,2,,,62,127
4352,note_off,0,0,0,,12,,,59,127
4353,note_on,1,0,0,,0,,,60,127
4353,note_on,0,0,0,,4,,,64,127
4480,note_off,127,0,0,,4,,,64,127
4480,note_off,0,0,0,,0,,,60,127
4481,note_on,1,0,0,,12,,,59,127
4481,note_on,0,0,0,,2,,,62,127
4608,note_off,127,0,0,,2,,,62,127
4608,note_off,0,0,0,,12,,,59,127
4609,note_on,1,0,0,,0,,,60,127
4609,note_on,0,0,0,,4,,,64,127
4736,note_off,127,0,0,,4,,,64,127
4736,note_off,0,0,0,,7,,,67,127
4736,note_off,0,0,0,,7,,,55,127
4737,note_off,1,0,0,,0,,,60,127
4738,note_on,1,0,0,,12,,,59,127
4738,note_on,0,0,0,,7,,,55,127
4866,note_on,128,0,0,,7,,,79,127
4993,note_off,127,0,0,,7,,,79,127
4994,note_on,1,0,0,,2,,,74,127
5121,note_off,127,0,0,,2,,,74,127
5122,note_on,1,0,0,,12,,,71,127
5249,note_off,127,0,0,,12,,,71,127
5250,note_on,1,0,0,,7,,,67,127
5377,note_off,127,0,0,,7,,,67,127
5378,note_off,1,0,0,,7,,,55,127
5378,note_off,0,0,0,,12,,,59,127
5378,note_on,0,0,0,,2,,,62,127
5505,note_off,127,0,0,,2,,,62,127
5506,note_on,1,0,0,,2,,,38,127
5506,note_on,0,0,0,,2,,,50,127
5506,note_on,0,0,0,,2,,,62,127
5761,note_off,255,0,0,,2,,,62,127
5762,note_on,1,0,0,,2,,,62,127
5889,note_off,127,0,0,,2,,,62,127
5890,note_on,1,0,0,,2,,,62,127
5953,note_off,63,0,0,,2,,,62,127
5954,note_on,1,0,0,,0,,,60,127
6017,note_off,63,0,0,,0,,,60,127
6018,note_on,1,0,0,,2,,,62,127
6081,note_off,63,0,0,,2,,,62,127
6082,note_on,1,0,0,,0,,,60,127
6145,note_off,63,0,0,,0,,,60,127
6146,note_on,1,0,0,,2,,,62,127
6209,note_off,63,0,0,,2,,,62,127
6210,note_on,1,0,0,,0,,,60,127
6273,note_off,63,0,0,,0,,,60,127
6273,note_off,0,0,0,,2,,,50,127
6273,note_off,0,0,0,,2,,,38,127
6274,note_on,1,0,0,,7,,,43,127
6274,note_on,0,0,0,,7,,,55,127
6274,note_on,0,0,0,,12,,,59,127
6401,note_off,127,0,0,,12,,,59,127
6402,note_on,1,0,0,,7,,,79,127
6529,note_off,127,0,0,,7,,,79,127
6530,note_on,1,0,0,,2,,,74,127
6657,note_off,127,0,0,,2,,,74,127
6658,note_on,1,0,0,,12,,,71,127
6785,note_off,127,0,0,,12,,,71,127
6786,note_on,1,0,0,,7,,,67,127
6913,note_off,127,0,0,,7,,,67,127
6914,note_on,1,0,0,,2,,,62,127
6974,note_off,60,0,0,,7,,,55,127
7007,note_off,33,0,0,,7,,,43,127
7041,note_off,34,0,0,,2,,,62,127
7042,note_on,1,0,0,,2,,,38,127
7042,note_on,0,0,0,,2,,,50,127
7042,note_on,0,0,0,,2,,,62,127
7297,note_off,255,0,0,,2,,,62,127
7298,note_on,1,0,0,,2,,,62,127
7425,note_off,127,0,0,,2,,,62,127
7426,note_on,1,0,0,,2,,,62,127
7489,note_off,63,0,0,,2,,,62,127
7490,note_on,1,0,0,,0,,,60,127
7553,note_off,63,0,0,,0,,,60,127
7554,note_on,1,0,0,,2,,,62,127
7617,note_off,63,0,0,,2,,,62,127
7618,note_on,1,0,0,,0,,,60,127
7681,note_off,63,0,0,,0,,,60,127
7682,note_off,1,0,0,,2,,,38,127
7682,note_on,0,0,0,,12,,,59,127
7745,note_off,63,0,0,,12,,,59,127
7746,note_on,1,0,0,,0,,,60,127
7809,note_off,63,0,0,,2,,,50,127
7810,note_off,1,0,0,,0,,,60,127
7811,note_on,1,0,0,,12,,,83,127
7939,note_on,128,0,0,,7,,,67,127
8066,note_off,127,0,0,,7,,,67,127
8067,note_on,1,0,0,,2,,,62,127
8194,note_off,127,0,0,,2,,,62,127
8195,note_on,1,0,0,,12,,,59,127
8322,note_off,127,0,0,,12,,,59,127
8323,note_on,1,0,0,,7,,,55,127
8450,note_off,127,0,0,,7,,,55,127
8451,note_on,1,0,0,,2,,,50,127
8578,note_off,127,0,0,,2,,,50,127
8578,note_off,0,0,0,,12,,,83,127
8579,note_on,1,0,0,,2,,,50,127
8579,note_on,0,0,0,,10,,,81,127
8834,note_off,255,0,0,,2,,,50,127
8835,note_on,1,0,0,,2,,,50,127
8962,note_off,127,0,0,,2,,,50,127
8962,note_off,0,0,0,,10,,,81,127
8963,note_on,1,0,0,,2,,,50,127
8963,note_on,0,0,0,,6,,,78,127
9026,note_off,63,0,0,,2,,,50,127
9027,note_on,1,0,0,,0,,,48,127
9090,note_off,63,0,0,,0,,,48,127
9091,note_on,1,0,0,,2,,,50,127
9154,note_off,63,0,0,,2,,,50,127
9155,note_on,1,0,0,,0,,,48,127
9218,note_off,63,0,0,,0,,,48,127
9219,note_on,1,0,0,,2,,,50,127
9282,note_off,63,0,0,,2,,,50,127
9283,note_on,1,0,0,,0,,,48,127
9346,note_off,63,0,0,,0,,,48,127
9346,note_off,0,0,0,,6,,,78,127
9347,note_on,1,0,0,,12,,,47,127
9347,note_on,0,0,0,,12,,,83,127
9347,note_on,0,0,0,,7,,,79,127
9474,note_off,127,0,0,,12,,,47,127
9475,note_on,1,0,0,,7,,,67,127
9602,note_off,127,0,0,,7,,,67,127
9603,note_on,1,0,0,,2,,,62,127
9730,note_off,127,0,0,,2,,,62,127
9731,note_on,1,0,0,,12,,,59,127
9858,note_off,127,0,0,,12,,,59,127
9859,note_on,1,0,0,,7,,,55,127
9986,note_off,127,0,0,,7,,,55,127
9987,note_on,1,0,0,,2,,,50,127
10114,note_off,127,0,0,,2,,,50,127
10114,note_off,0,0,0,,7,,,79,127
10114,note_off,0,0,0,,12,,,83,127
10115,note_on,1,0,0,,2,,,50,127
10115,note_on,0,0,0,,10,,,81,127
10370,note_off,255,0,0,,2,,,50,127
10371,note_on,1,0,0,,2,,,50,127
10498,note_off,127,0,0,,2,,,50,127
10498,note_off,0,0,0,,10,,,81,127
10499,note_on,1,0,0,,2,,,50,127
10499,note_on,0,0,0,,6,,,78,127
10562,note_off,63,0,0,,2,,,50,127
10563,note_on,1,0,0,,0,,,48,127
10626,note_off,63,0,0,,0,,,48,127
10627,note_on,1,0,0,,2,,,50,127
10690,note_off,63,0,0,,2,,,50,127
10691,note_on,1,0,0,,0,,,48,127
10754,note_off,63,0,0,,0,,,48,127
10755,note_on,1,0,0,,2,,,50,127
10818,note_off,63,0,0,,2,,,50,127
10819,note_on,1,0,0,,0,,,48,127
10882,note_off,63,0,0,,0,,,48,127
10882,note_off,0,0,0,,6,,,78,127
10883,note_on,1,0,0,,12,,,47,127
10883,note_on,0,0,0,,7,,,79,127
11010,note_off,127,0,0,,7,,,79,127
11011,note_on,1,0,0,,12,,,83,127
11138,note_off,127,0,0,,12,,,83,127
11139,note_on,1,0,0,,2,,,74,127
11266,note_off,127,0,0,,2,,,74,127
11266,note_off,0,0,0,,12,,,47,127
11267,note_on,1,0,0,,0,,,48,127
11267,note_on,0,0,0,,4,,,76,127
11394,note_off,127,0,0,,4,,,76,127
11395,note_on,1,0,0,,7,,,79,127
11522,note_off,127,0,0,,7,,,79,127
11523,note_on,1,0,0,,12,,,71,127
11650,note_off,127,0,0,,12,,,71,127
11650,note_off,0,0,0,,0,,,48,127
11651,note_on,1,0,0,,2,,,50,127
11651,note_on,0,0,0,,0,,,72,127
11778,note_off,127,0,0,,0,,,72,127
11779,note_on,1,0,0,,4,,,76,127
11906,note_off,127,0,0,,4,,,76,127
11907,note_on,1,0,0,,7,,,67,127
12034,note_off,127,0,0,,7,,,67,127
12034,note_off,0,0,0,,2,,,50,127
12035,note_on,1,0,0,,2,,,38,127
12035,note_on,0,0,0,,10,,,69,127
12162,note_off,127,0,0,,10,,,69,127
12163,note_on,1,0,0,,12,,,71,127
12290,note_off,127,0,0,,12,,,71,127
12291,note_on,1,0,0,,0,,,72,127
12418,note_off,127,0,0,,0,,,72,127
12418,note_off,0,0,0,,2,,,38,127
12419,note_on,1,0,0,,12,,,71,127
12546,note_off,127,0,0,,12,,,71,127
12547,note_on,1,0,0,,7,,,67,127
12674,note_off,127,0,0,,7,,,67,127
12675,note_on,1,0,0,,2,,,62,127
12802,note_off,127,0,0,,2,,,62,127
12803,note_on,1,0,0,,4,,,64,127
12930,note_off,127,0,0,,4,,,64,127
12931,note_on,1,0,0,,7,,,67,127
13058,note_off,127,0,0,,7,,,67,127
13059,note_on,1,0,0,,12,,,59,127
13186,note_off,127,0,0,,12,,,59,127
13187,note_on,1,0,0,,0,,,60,127
13314,note_off,127,0,0,,0,,,60,127
13315,note_on,1,0,0,,4,,,64,127
13442,note_off,127,0,0,,4,,,64,127
13443,note_on,1,0,0,,7,,,55,127
13570,note_off,127,0,0,,7,,,55,127
13571,note_on,1,0,0,,6,,,54,127
13571,note_on,0,0,0,,10,,,57,127
13698,note_off,127,0,0,,10,,,57,127
13698,note_off,0,0,0,,6,,,54,127
13699,note_on,1,0,0,,4,,,52,127
13699,note_on,0,0,0,,12,,,59,127
13826,note_off,127,0,0,,12,,,59,127
13826,note_off,0,0,0,,4,,,52,127
13827,note_on,1,0,0,,2,,,50,127
13827,note_on,0,0,0,,0,,,60,127
13954,note_off,127,0,0,,0,,,60,127
13955,note_off,1,0,0,,2,,,50,127
13956,note_on,1,0,0,,7,,,55,127
13956,note_on,0,0,0,,12,,,59,127
14084,note_on,128,0,0,,12,,,83,127
14211,note_off,127,0,0,,12,,,83,127
14212,note_on,1,0,0,,7,,,79,127
14339,note_off,127,0,0,,7,,,79,127
14340,note_on,1,0,0,,12,,,71,127
14467,note_off,127,0,0,,12,,,71,127
14468,note_on,1,0,0,,12,,,83,127
14595,note_off,127,0,0,,12,,,83,127
14596,note_on,1,0,0,,7,,,79,127
14656,note_off,60,0,0,,12,,,59,127
14656,note_off,0,0,0,,7,,,55,127
14723,note_off,67,0,0,,7,,,79,127
14724,note_on,1,0,0,,7,,,43,127
14724,note_on,0,0,0,,12,,,71,127
14851,note_off,127,0,0,,12,,,71,127
14852,note_on,1,0,0,,12,,,83,127
14979,note_off,127,0,0,,12,,,83,127
14980,note_on,1,0,0,,7,,,79,127
15107,note_off,127,0,0,,7,,,79,127
15107,note_off,0,0,0,,7,,,43,127
15108,note_on,1,0,0,,7,,,55,127
15108,note_on,0,0,0,,12,,,59,127
15108,note_on,0,0,0,,12,,,71,127
15235,note_off,127,0,0,,12,,,71,127
15236,note_on,1,0,0,,1,,,73,127
15363,note_off,127,0,0,,1,,,73,127
15364,note_on,1,0,0,,1,,,85,127
15491,note_off,127,0,0,,1,,,85,127
15491,note_off,0,0,0,,12,,,59,127
15491,note_off,0,0,0,,7,,,55,127
15492,note_on,1,0,0,,6,,,54,127
15492,note_on,0,0,0,,10,,,57,127
15492,note_on,0,0,0,,2,,,86,127
15619,note_off,127,0,0,,2,,,86,127
15620,note_on,1,0,0,,10,,,81,127
15747,note_off,127,0,0,,10,,,81,127
15748,note_on,1,0,0,,6,,,78,127
15875,note_off,127,0,0,,6,,,78,127
15876,note_on,1,0,0,,10,,,69,127
16003,note_off,127,0,0,,10,,,69,127
16004,note_on,1,0,0,,10,,,81,127
16131,note_off,127,0,0,,10,,,81,127
16132,note_off,1,0,0,,10,,,57,127
16132,note_off,0,0,0,,6,,,54,127
16132,note_on,0,0,0,,6,,,78,127
16259,note_off,127,0,0,,6,,,78,127
16260,note_on,1,0,0,,6,,,42,127
16260,note_on,0,0,0,,10,,,69,127
16387,note_off,127,0,0,,10,,,69,127
16388,note_on,1,0,0,,10,,,81,127
16515,note_off,127,0,0,,10,,,81,127
16516,note_on,1,0,0,,6,,,78,127
16643,note_off,127,0,0,,6,,,78,127
16643,note_off,0,0,0,,6,,,42,127
16644,note_on,1,0,0,,6,,,54,127
16644,note_on,0,0,0,,10,,,57,127
16644,note_on,0,0,0,,10,,,69,127
16771,note_off,127,0,0,,10,,,69,127
16772,note_on,1,0,0,,12,,,71,127
16899,note_off,127,0,0,,12,,,71,127
16900,note_on,1,0,0,,12,,,83,127
17027,note_off,127,0,0,,12,,,83,127
17027,note_off,0,0,0,,10,,,57,127
17027,note_off,0,0,0,,6,,,54,127
17028,note_on,1,0,0,,4,,,52,127
17028,note_on,0,0,0,,7,,,55,127
17028,note_on,0,0,0,,1,,,85,127
17155,note_off,127,0,0,,1,,,85,127
17156,note_on,1,0,0,,7,,,79,127
17283,note_off,127,0,0,,7,,,79,127
17284,note_on,1,0,0,,4,,,76,127
17411,note_off,127,0,0,,4,,,76,127
17412,note_on,1,0,0,,1,,,73,127
17539,note_off,127,0,0,,1,,,73,127
17540,note_on,1,0,0,,7,,,67,127
17667,note_off,127,0,0,,7,,,67,127
17668,note_on,1,0,0,,4,,,64,127
17728,note_off,60,0,0,,7,,,55,127
17728,note_off,0,0,0,,4,,,52,127
17795,note_off,67,0,0,,4,,,64,127
17796,note_on,1,0,0,,10,,,45,127
17796,note_on,0,0,0,,1,,,61,127
17923,note_off,127,0,0,,1,,,61,127
17924,note_on,1,0,0,,4,,,64,127
18051,note_off,127,0,0,,4,,,64,127
18052,note_on,1,0,0,,7,,,67,127
18179,note_off,127,0,0,,7,,,67,127
18179,note_off,0,0,0,,10,,,45,127
18180,note_on,1,0,0,,10,,,33,127
18180,note_on,0,0,0,,1,,,73,127
18307,note_off,127,0,0,,1,,,73,127
18308,note_on,1,0,0,,4,,,76,127
18435,note_off,127,0,0,,4,,,76,127
18436,note_on,1,0,0,,7,,,79,127
18563,note_off,127,0,0,,7,,,79,127
18564,note_off,1,0,0,,10,,,33,127
18565,note_on,1,0,0,,2,,,38,127
18693,note_on,128,0,0,,6,,,78,127
18820,note_off,127,0,0,,6,,,78,127
18821,note_on,1,0,0,,2,,,74,127
18948,note_off,127,0,0,,2,,,74,127
18948,note_off,0,0,0,,2,,,38,127
18949,note_on,1,0,0,,7,,,67,127
18949,note_on,0,0,0,,12,,,71,127
19076,note_off,127,0,0,,12,,,71,127
19077,note_on,1,0,0,,6,,,78,127
19204,note_off,127,0,0,,6,,,78,127
19205,note_on,1,0,0,,2,,,74,127
19332,note_off,127,0,0,,2,,,74,127
19332,note_off,0,0,0,,7,,,67,127
19333,note_on,1,0,0,,6,,,66,127
19333,note_on,0,0,0,,10,,,69,127
19460,note_off,127,0,0,,10,,,69,127
19461,note_on,1,0,0,,6,,,78,127
19588,note_off,127,0,0,,6,,,78,127
19589,note_on,1,0,0,,2,,,74,127
19716,note_off,127,0,0,,2,,,74,127
19716,note_off,0,0,0,,6,,,66,127
19717,note_on,1,0,0,,4,,,64,127
19717,note_on,0,0,0,,7,,,67,127
19844,note_off,127,0,0,,7,,,67,127
19845,note_on,1,0,0,,6,,,78,127
19972,note_off,127,0,0,,6,,,78,127
19973,note_on,1,0,0,,2,,,74,127
20100,note_off,127,0,0,,2,,,74,127
20100,note_off,0,0,0,,4,,,64,127
20101,note_on,1,0,0,,2,,,62,127
20101,note_on,0,0,0,,6,,,66,127
20228,note_off,127,0,0,,6,,,66,127
20229,note_on,1,0,0,,6,,,78,127
20356,note_off,127,0,0,,6,,,78,127
20357,note_on,1,0,0,,2,,,74,127
20484,note_off,127,0,0,,2,,,74,127
20484,note_off,0,0,0,,2,,,62,127
20485,note_on,1,0,0,,10,,,57,127
20485,note_on,0,0,0,,4,,,64,127
20612,note_off,127,0,0,,4,,,64,127
20613,note_on,1,0,0,,6,,,78,127
20740,note_off,127,0,0,,6,,,78,127
20741,note_on,1,0,0,,2,,,74,127
20868,note_off,127,0,0,,2,,,74,127
20868,note_off,0,0,0,,10,,,57,127
20869,note_on,1,0,0,,6,,,54,127
20869,note_on,0,0,0,,2,,,62,127
20996,note_off,127,0,0,,2,,,62,127
20997,note_on,1,0,0,,10,,,81,127
21124,note_off,127,0,0,,10,,,81,127
21125,note_on,1,0,0,,2,,,74,127
21252,note_off,127,0,0,,2,,,74,127
21252,note_off,0,0,0,,6,,,54,127
21253,note_on,1,0,0,,10,,,45,127
21253,note_on,0,0,0,,10,,,57,127
21253,note_on,0,0,0,,4,,,76,127
21253,note_on,0,0,0,,1,,,73,127
21380,note_off,127,0,0,,4,,,76,127
21381,note_on,1,0,0,,6,,,78,127
21508,note_off,127,0,0,,6,,,78,127
21509,note_on,1,0,0,,7,,,79,127
21636,note_off,127,0,0,,7,,,79,127
21637,note_off,1,0,0,,1,,,73,127
21637,note_off,0,0,0,,10,,,57,127
21637,note_off,0,0,0,,10,,,45,127
21638,note_on,1,0,0,,2,,,38,127
21766,note_on,128,0,0,,6,,,78,127
21893,note_off,127,0,0,,6,,,78,127
21894,note_on,1,0,0,,2,,,74,127
22021,note_off,127,0,0,,2,,,74,127
22021,note_off,0,0,0,,2,,,38,127
22022,note_on,1,0,0,,7,,,67,127
22022,note_on,0,0,0,,12,,,71,127
22149,note_off,127,0,0,,12,,,71,127
22150,note_on,1,0,0,,6,,,78,127
22277,note_off,127,0,0,,6,,,78,127
22278,note_on,1,0,0,,2,,,74,127
22405,note_off,127,0,0,,2,,,74,127
22405,note_off,0,0,0,,7,,,67,127
22406,note_on,1,0,0,,6,,,66,127
22406,note_on,0,0,0,,10,,,69,127
22533,note_off,127,0,0,,10,,,69,127
22534,note_on,1,0,0,,6,,,78,127
22661,note_off,127,0,0,,6,,,78,127
22662,note_on,1,0,0,,2,,,74,127
22789,note_off,127,0,0,,2,,,74,127
22789,note_off,0,0,0,,6,,,66,127
22790,note_on,1,0,0,,4,,,64,127
22790,note_on,0,0,0,,7,,,67,127
22917,note_off,127,0,0,,7,,,67,127
22918,note_on,1,0,0,,6,,,78,127
23045,note_off,127,0,0,,6,,,78,127
23046,note_on,1,0,0,,2,,,74,127
23173,note_off,127,0,0,,2,,,74,127
23173,note_off,0,0,0,,4,,,64,127
23174,note_on,1,0,0,,2,,,62,127
23174,note_on,0,0,0,,6,,,66,127
23301,note_off,127,0,0,,6,,,66,127
23302,note_on,1,0,0,,6,,,78,127
23429,note_off,127,0,0,,6,,,78,127
23430,note_on,1,0,0,,2,,,74,127
23557,note_off,127,0,0,,2,,,74,127
23557,note_off,0,0,0,,2,,,62,127
23558,note_on,1,0,0,,10,,,57,127
23558,note_on,0,0,0,,4,,,64,127
23685,note_off,127,0,0,,4,,,64,127
23686,note_on,1,0,0,,6,,,78,127
23813,note_off,127,0,0,,6,,,78,127
23814,note_on,1,0,0,,2,,,74,127
23941,note_off,127,0,0,,2,,,74,127
23941,note_off,0,0,0,,10,,,57,127
23942,note_on,1,0,0,,6,,,54,127
23942,note_on,0,0,0,,2,,,62,127
24069,note_off,127,0,0,,2,,,62,127
24070,note_on,1,0,0,,10,,,81,127
24197,note_off,127,0,0,,10,,,81,127
24198,note_on,1,0,0,,2,,,74,127
24325,note_off,127,0,0,,2,,,74,127
24325,note_off,0,0,0,,6,,,54,127
24326,note_on,1,0,0,,10,,,45,127
24326,note_on,0,0,0,,10,,,57,127
24326,note_on,0,0,0,,1,,,73,127
24326,note_on,0,0,0,,4,,,76,127
24453,note_off,127,0,0,,4,,,76,127
24454,note_on,1,0,0,,6,,,78,127
24581,note_off,127,0,0,,6,,,78,127
24582,note_on,1,0,0,,7,,,79,127
24709,note_off,127,0,0,,7,,,79,127
24709,note_off,0,0,0,,1,,,73,127
24709,note_off,0,0,0,,10,,,57,127
24709,note_off,0,0,0,,10,,,45,127
24710,note_on,1,0,0,,2,,,50,127
24710,note_on,0,0,0,,6,,,78,127
24837,note_off,127,0,0,,6,,,78,127
24838,note_on,1,0,0,,10,,,81,127
24965,note_off,127,0,0,,10,,,81,127
24966,note_on,1,0,0,,2,,,86,127
25093,note_off,127,0,0,,2,,,86,127
25093,note_off,0,0,0,,2,,,50,127
25094,note_on,1,0,0,,7,,,55,127
25094,note_on,0,0,0,,12,,,83,127
25221,note_off,127,0,0,,12,,,83,127
25222,note_on,1,0,0,,7,,,79,127
25349,note_off,127,0,0,,7,,,79,127
25350,note_on,1,0,0,,4,,,76,127
25477,note_off,127,0,0,,4,,,76,127
25477,note_off,0,0,0,,7,,,55,127
25478,note_on,1,0,0,,10,,,57,127
25478,note_on,0,0,0,,6,,,78,127
25605,note_off,127,0,0,,6,,,78,127
25606,note_on,1,0,0,,10,,,81,127
25733,note_off,127,0,0,,10,,,81,127
25734,note_on,1,0,0,,2,,,74,127
25861,note_off,127,0,0,,2,,,74,127
25861,note_off,0,0,0,,10,,,57,127
25862,note_on,1,0,0,,10,,,45,127
25862,note_on,0,0,0,,10,,,69,127
25989,note_off,127,0,0,,10,,,69,127
25990,note_on,1,0,0,,4,,,76,127
26117,note_off,127,0,0,,4,,,76,127
26118,note_on,1,0,0,,1,,,73,127
26245,note_off,127,0,0,,1,,,73,127
26245,note_off,0,0,0,,10,,,45,127
26246,note_on,1,0,0,,2,,,74,127
26374,note_on,128,0,0,,6,,,66,127
26501,note_off,127,0,0,,6,,,66,127
26502,note_on,1,0,0,,2,,,62,127
26629,note_off,127,0,0,,2,,,62,127
26629,note_off,0,0,0,,2,,,74,127
26630,note_on,1,0,0,,12,,,59,127
26630,note_on,0,0,0,,2,,,74,127
26757,note_off,127,0,0,,12,,,59,127
26758,note_on,1,0,0,,6,,,66,127
26885,note_off,127,0,0,,6,,,66,127
26886,note_on,1,0,0,,2,,,62,127
27013,note_off,127,0,0,,2,,,62,127
27013,note_off,0,0,0,,2,,,74,127
27014,note_on,1,0,0,,10,,,57,127
27014,note_on,0,0,0,,2,,,74,127
27141,note_off,127,0,0,,10,,,57,127
27142,note_on,1,0,0,,6,,,66,127
27269,note_off,127,0,0,,6,,,66,127
27270,note_on,1,0,0,,2,,,62,127
27397,note_off,127,0,0,,2,,,62,127
27397,note_off,0,0,0,,2,,,74,127
27398,note_on,1,0,0,,7,,,55,127
27398,note_on,0,0,0,,2,,,74,127
27525,note_off,127,0,0,,7,,,55,127
27526,note_on,1,0,0,,6,,,66,127
27653,note_off,127,0,0,,6,,,66,127
27654,note_on,1,0,0,,2,,,62,127
27781,note_off,127,0,0,,2,,,62,127
27781,note_off,0,0,0,,2,,,74,127
27782,note_on,1,0,0,,6,,,54,127
27782,note_on,0,0,0,,2,,,74,127
27909,note_off,127,0,0,,6,,,54,127
27910,note_on,1,0,0,,6,,,66,127
28037,note_off,127,0,0,,6,,,66,127
28038,note_on,1,0,0,,2,,,62,127
28165,note_off,127,0,0,,2,,,62,127
28165,note_off,0,0,0,,2,,,74,127
28166,note_on,1,0,0,,4,,,52,127
28166,note_on,0,0,0,,2,,,74,127
28293,note_off,127,0,0,,4,,,52,127
28294,note_on,1,0,0,,6,,,66,127
28421,note_off,127,0,0,,6,,,66,127
28422,note_on,1,0,0,,2,,,62,127
28549,note_off,127,0,0,,2,,,62,127
28549,note_off,0,0,0,,2,,,74,127
28550,note_on,1,0,0,,2,,,50,127
28550,note_on,0,0,0,,2,,,74,127
28677,note_off,127,0,0,,2,,,50,127
28678,note_on,1,0,0,,6,,,66,127
28805,note_off,127,0,0,,6,,,66,127
28806,note_on,1,0,0,,2,,,62,127
28933,note_off,127,0,0,,2,,,62,127
28933,note_off,0,0,0,,2,,,74,127
28934,note_on,1,0,0,,10,,,45,127
28934,note_on,0,0,0,,4,,,76,127
28934,note_on,0,0,0,,1,,,73,127
29061,note_off,127,0,0,,4,,,76,127
29062,note_on,1,0,0,,6,,,78,127
29189,note_off,127,0,0,,6,,,78,127
29190,note_on,1,0,0,,7,,,79,127
29317,note_off,127,0,0,,7,,,79,127
29317,note_off,0,0,0,,1,,,73,127
29317,note_off,0,0,0,,10,,,45,127
29318,note_on,1,0,0,,2,,,38,127
29318,note_on,0,0,0,,2,,,74,127
29318,note_on,0,0,0,,6,,,78,127
29445,note_off,127,0,0,,2,,,38,127
29446,note_on,1,0,0,,6,,,66,127
29573,note_off,127,0,0,,6,,,66,127
29574,note_on,1,0,0,,2,,,62,127
29701,note_off,127,0,0,,2,,,62,127
29701,note_off,0,0,0,,6,,,78,127
29701,note_off,0,0,0,,2,,,74,127
29702,note_on,1,0,0,,12,,,59,127
29702,note_on,0,0,0,,2,,,74,127
29829,note_off,127,0,0,,12,,,59,127
29830,note_on,1,0,0,,6,,,66,127
29957,note_off,127,0,0,,6,,,66,127
29958,note_on,1,0,0,,2,,,62,127
30085,note_off,127,0,0,,2,,,62,127
30085,note_off,0,0,0,,2,,,74,127
30086,note_on,1,0,0,,10,,,57,127
30086,note_on,0,0,0,,2,,,74,127
30213,note_off,127,0,0,,10,,,57,127
30214,note_on,1,0,0,,6,,,66,127
30341,note_off,127,0,0,,6,,,66,127
30342,note_on,1,0,0,,2,,,62,127
30469,note_off,127,0,0,,2,,,62,127
30469,note_off,0,0,0,,2,,,74,127
30470,note_on,1,0,0,,7,,,55,127
30470,note_on,0,0,0,,2,,,74,127
30597,note_off,127,0,0,,7,,,55,127
30598,note_on,1,0,0,,6,,,66,127
30725,note_off,127,0,0,,6,,,66,127
30726,note_on,1,0,0,,2,,,62,127
30853,note_off,127,0,0,,2,,,62,127
30853,note_off,0,0,0,,2,,,74,127
30854,note_on,1,0,0,,6,,,54,127
30854,note_on,0,0,0,,2,,,74,127
30981,note_off,127,0,0,,6,,,54,127
30982,note_on,1,0,0,,6,,,66,127
31109,note_off,127,0,0,,6,,,66,127
31110,note_on,1,0,0,,2,,,62,127
31237,note_off,127,0,0,,2,,,62,127
31237,note_off,0,0,0,,2,,,74,127
31238,note_on,1,0,0,,4,,,52,127
31238,note_on,0,0,0,,2,,,74,127
31365,note_off,127,0,0,,4,,,52,127
31366,note_on,1,0,0,,6,,,66,127
31493,note_off,127,0,0,,6,,,66,127
31494,note_on,1,0,0,,2,,,62,127
31621,note_off,127,0,0,,2,,,62,127
31621,note_off,0,0,0,,2,,,74,127
31622,note_on,1,0,0,,2,,,50,127
31622,note_on,0,0,0,,2,,,74,127
31749,note_off,127,0,0,,2,,,50,127
31750,note_on,1,0,0,,6,,,66,127
31877,note_off,127,0,0,,6,,,66,127
31878,note_on,1,0,0,,2,,,62,127
32005,note_off,127,0,0,,2,,,62,127
32005,note_off,0,0,0,,2,,,74,127
32006,note_on,1,0,0,,10,,,45,127
32006,note_on,0,0,0,,1,,,73,127
32006,note_on,0,0,0,,4,,,76,127
32133,note_off,127,0,0,,4,,,76,127
32134,note_on,1,0,0,,6,,,78,127
32261,note_off,127,0,0,,6,,,78,127
32262,note_on,1,0,0,,7,,,79,127
32389,note_off,127,0,0,,7,,,79,127
32389,note_off,0,0,0,,1,,,73,127
32389,note_off,0,0,0,,10,,,45,127
32390,note_on,1,0,0,,2,,,38,127
32390,note_on,0,0,0,,2,,,74,127
32390,note_on,0,0,0,,6,,,78,127
32517,note_off,127,0,0,,6,,,78,127
32518,note_on,1,0,0,,7,,,79,127
32645,note_off,127,0,0,,7,,,79,127
32646,note_on,1,0,0,,10,,,81,127
32773,note_off,127,0,0,,10,,,81,127
32773,note_off,0,0,0,,2,,,74,127
32773,note_off,0,0,0,,2,,,38,127
32774,note_on,1,0,0,,7,,,43,127
32774,note_on,0,0,0,,2,,,74,127
32774,note_on,0,0,0,,7,,,79,127
32901,note_off,127,0,0,,7,,,79,127
32902,note_on,1,0,0,,10,,,81,127
33029,note_off,127,0,0,,10,,,81,127
33030,note_on,1,0,0,,12,,,83,127
33157,note_off,127,0,0,,12,,,83,127
33157,note_off,0,0,0,,2,,,74,127
33157,note_off,0,0,0,,7,,,43,127
33158,note_on,1,0,0,,10,,,45,127
33158,note_on,0,0,0,,10,,,81,127
33158,note_on,0,0,0,,2,,,74,127
33285,note_off,127,0,0,,2,,,74,127
33285,note_off,0,0,0,,10,,,81,127
33286,note_on,1,0,0,,7,,,79,127
33413,note_off,127,0,0,,7,,,79,127
33414,note_on,1,0,0,,6,,,78,127
33541,note_off,127,0,0,,6,,,78,127
33541,note_off,0,0,0,,10,,,45,127
33542,note_on,1,0,0,,10,,,33,127
33542,note_on,0,0,0,,4,,,76,127
33669,note_off,127,0,0,,4,,,76,127
33670,note_on,1,0,0,,2,,,74,127
33797,note_off,127,0,0,,2,,,74,127
33798,note_on,1,0,0,,1,,,73,127
33925,note_off,127,0,0,,1,,,73,127
33925,note_off,0,0,0,,10,,,33,127
33926,note_on,1,0,0,,2,,,38,127
33926,note_on,0,0,0,,2,,,74,127
34053,note_off,127,0,0,,2,,,74,127
34054,note_on,1,0,0,,2,,,86,127
34181,note_off,127,0,0,,2,,,86,127
34182,note_on,1,0,0,,10,,,81,127
34309,note_off,127,0,0,,10,,,81,127
34310,note_on,1,0,0,,6,,,78,127
34437,note_off,127,0,0,,6,,,78,127
34438,note_on,1,0,0,,2,,,74,127
34565,note_off,127,0,0,,2,,,74,127
34566,note_off,1,0,0,,2,,,38,127
34566,note_on,0,0,0,,10,,,69,127
34693,note_off,127,0,0,,10,,,69,127
34694,note_on,1,0,0,,10,,,45,127
34694,note_on,0,0,0,,10,,,69,127
34949,note_off,255,0,0,,10,,,69,127
34950,note_on,1,0,0,,10,,,69,127
35077,note_off,127,0,0,,10,,,69,127
35077,note_off,0,0,0,,10,,,45,127
35078,note_on,1,0,0,,10,,,57,127
35078,note_on,0,0,0,,10,,,69,127
35141,note_off,63,0,0,,10,,,69,127
35142,note_on,1,0,0,,7,,,67,127
35205,note_off,63,0,0,,7,,,67,127
35206,note_on,1,0,0,,10,,,69,127
35269,note_off,63,0,0,,10,,,69,127
35270,note_on,1,0,0,,7,,,67,127
35333,note_off,63,0,0,,7,,,67,127
35334,note_on,1,0,0,,10,,,69,127
35397,note_off,63,0,0,,10,,,69,127
35398,note_on,1,0,0,,7,,,67,127
35461,note_off,63,0,0,,7,,,67,127
35461,note_off,0,0,0,,10,,,57,127
35462,note_on,1,0,0,,2,,,50,127
35462,note_on,0,0,0,,6,,,66,127
35589,note_off,127,0,0,,6,,,66,127
35590,note_on,1,0,0,,2,,,86,127
35717,note_off,127,0,0,,2,,,86,127
35718,note_on,1,0,0,,10,,,81,127
35845,note_off,127,0,0,,10,,,81,127
35846,note_on,1,0,0,,6,,,78,127
35973,note_off,127,0,0,,6,,,78,127
35974,note_on,1,0,0,,2,,,74,127
36101,note_off,127,0,0,,2,,,74,127
36102,note_off,1,0,0,,2,,,50,127
36102,note_on,0,0,0,,10,,,69,127
36229,note_off,127,0,0,,10,,,69,127
36230,note_on,1,0,0,,10,,,57,127
36230,note_on,0,0,0,,6,,,66,127
36230,note_on,0,0,0,,10,,,69,127
36485,note_off,255,0,0,,10,,,69,127
36486,note_on,1,0,0,,10,,,69,127
36613,note_off,127,0,0,,10,,,69,127
36613,note_off,0,0,0,,6,,,66,127
36613,note_off,0,0,0,,10,,,57,127
36614,note_on,1,0,0,,10,,,57,127
36614,note_on,0,0,0,,4,,,64,127
36614,note_on,0,0,0,,10,,,69,127
36677,note_off,63,0,0,,10,,,69,127
36678,note_on,1,0,0,,7,,,67,127
36741,note_off,63,0,0,,7,,,67,127
36742,note_on,1,0,0,,10,,,69,127
36805,note_off,63,0,0,,10,,,69,127
36806,note_on,1,0,0,,7,,,67,127
36869,note_off,63,0,0,,7,,,67,127
36870,note_on,1,0,0,,6,,,66,127
36933,note_off,63,0,0,,6,,,66,127
36934,note_on,1,0,0,,7,,,67,127
36997,note_off,63,0,0,,7,,,67,127
36997,note_off,0,0,0,,4,,,64,127
36997,note_off,0,0,0,,10,,,57,127
36998,note_on,1,0,0,,2,,,50,127
36998,note_on,0,0,0,,6,,,78,127
37125,note_off,127,0,0,,2,,,50,127
37126,note_on,1,0,0,,2,,,62,127
37253,note_off,127,0,0,,2,,,62,127
37254,note_on,1,0,0,,10,,,57,127
37381,note_off,127,0,0,,10,,,57,127
37382,note_on,1,0,0,,6,,,54,127
37509,note_off,127,0,0,,6,,,54,127
37510,note_on,1,0,0,,2,,,50,127
37637,note_off,127,0,0,,2,,,50,127
37638,note_on,1,0,0,,10,,,45,127
37765,note_off,127,0,0,,10,,,45,127
37765,note_off,0,0,0,,6,,,78,127
37766,note_on,1,0,0,,10,,,45,127
37766,note_on,0,0,0,,4,,,76,127
38021,note_off,255,0,0,,10,,,45,127
38022,note_on,1,0,0,,10,,,45,127
38149,note_off,127,0,0,,10,,,45,127
38149,note_off,0,0,0,,4,,,76,127
38150,note_on,1,0,0,,10,,,45,127
38150,note_on,0,0,0,,1,,,73,127
38213,note_off,63,0,0,,10,,,45,127
38214,note_on,1,0,0,,7,,,43,127
38277,note_off,63,0,0,,7,,,43,127
38278,note_on,1,0,0,,10,,,45,127
38341,note_off,63,0,0,,10,,,45,127
38342,note_on,1,0,0,,7,,,43,127
38405,note_off,63,0,0,,7,,,43,127
38406,note_on,1,0,0,,10,,,45,127
38469,note_off,63,0,0,,10,,,45,127
38470,note_on,1,0,0,,7,,,43,127
38533,note_off,63,0,0,,7,,,43,127
38533,note_off,0,0,0,,1,,,73,127
38534,note_on,1,0,0,,6,,,42,127
38534,note_on,0,0,0,,2,,,74,127
38534,note_on,0,0,0,,6,,,78,127
38661,note_off,127,0,0,,6,,,42,127
38662,note_on,1,0,0,,2,,,62,127
38789,note_off,127,0,0,,2,,,62,127
38790,note_on,1,0,0,,10,,,57,127
38917,note_off,127,0,0,,10,,,57,127
38918,note_on,1,0,0,,6,,,54,127
39045,note_off,127,0,0,,6,,,54,127
39046,note_on,1,0,0,,2,,,50,127
39173,note_off,127,0,0,,2,,,50,127
39174,note_on,1,0,0,,10,,,45,127
39301,note_off,127,0,0,,10,,,45,127
39301,note_off,0,0,0,,6,,,78,127
39301,note_off,0,0,0,,2,,,74,127
39302,note_on,1,0,0,,10,,,45,127
39302,note_on,0,0,0,,4,,,76,127
39557,note_off,255,0,0,,10,,,45,127
39558,note_on,1,0,0,,10,,,45,127
39685,note_off,127,0,0,,10,,,45,127
39685,note_off,0,0,0,,4,,,76,127
39686,note_on,1,0,0,,10,,,45,127
39686,note_on,0,0,0,,1,,,73,127
39749,note_off,63,0,0,,10,,,45,127
39750,note_on,1,0,0,,7,,,43,127
39813,note_off,63,0,0,,7,,,43,127
39814,note_on,1,0,0,,10,,,45,127
39877,note_off,63,0,0,,10,,,45,127
39878,note_on,1,0,0,,7,,,43,127
39941,note_off,63,0,0,,7,,,43,127
39942,note_on,1,0,0,,10,,,45,127
40005,note_off,63,0,0,,10,,,45,127
40006,note_on,1,0,0,,7,,,43,127
40069,note_off,63,0,0,,7,,,43,127
40069,note_off,0,0,0,,1,,,73,127
40070,note_on,1,0,0,,6,,,42,127
40070,note_on,0,0,0,,2,,,74,127
40197,note_off,127,0,0,,2,,,74,127
40198,note_on,1,0,0,,6,,,78,127
40325,note_off,127,0,0,,6,,,78,127
40326,note_on,1,0,0,,10,,,81,127
40453,note_off,127,0,0,,6,,,42,127
40454,note_on,1,0,0,,7,,,43,127
40454,note_on,0,0,0,,12,,,71,127
40473,note_off,19,0,0,,10,,,81,127
40582,note_off,109,0,0,,12,,,71,127
40583,note_on,1,0,0,,7,,,79,127
40710,note_off,127,0,0,,7,,,79,127
40711,note_on,1,0,0,,4,,,76,127
40838,note_off,127,0,0,,7,,,43,127
40839,note_on,1,0,0,,10,,,45,127
40839,note_on,0,0,0,,10,,,69,127
40858,note_off,19,0,0,,4,,,76,127
40967,note_off,109,0,0,,10,,,69,127
40968,note_on,1,0,0,,6,,,78,127
41095,note_off,127,0,0,,6,,,78,127
41096,note_on,1,0,0,,2,,,74,127
41223,note_off,127,0,0,,10,,,45,127
41224,note_on,1,0,0,,10,,,33,127
41224,note_on,0,0,0,,7,,,67,127
41243,note_off,19,0,0,,2,,,74,127
41352,note_off,109,0,0,,7,,,67,127
41353,note_on,1,0,0,,4,,,76,127
41480,note_off,127,0,0,,4,,,76,127
41481,note_on,1,0,0,,1,,,73,127
41608,note_off,127,0,0,,1,,,73,127
41608,note_off,0,0,0,,10,,,33,127
41609,note_on,1,0,0,,2,,,38,127
41609,note_on,0,0,0,,2,,,74,127
41736,note_off,127,0,0,,2,,,74,127
41737,note_on,1,0,0,,6,,,78,127
41864,note_off,127,0,0,,6,,,78,127
41865,note_on,1,0,0,,10,,,81,127
41992,note_off,127,0,0,,10,,,81,127
41992,note_off,0,0,0,,2,,,38,127
41993,note_on,1,0,0,,10,,,45,127
41993,note_on,0,0,0,,7,,,79,127
41993,note_on,0,0,0,,4,,,76,127
42120,note_off,127,0,0,,4,,,76,127
42120,note_off,0,0,0,,7,,,79,127
42121,note_on,1,0,0,,2,,,74,127
42121,note_on,0,0,0,,6,,,78,127
42248,note_off,127,0,0,,6,,,78,127
42248,note_off,0,0,0,,2,,,74,127
42249,note_on,1,0,0,,1,,,73,127
42249,note_on,0,0,0,,4,,,76,127
42376,note_off,127,0,0,,4,,,76,127
42376,note_off,0,0,0,,1,,,73,127
42376,note_off,0,0,0,,10,,,45,127
42377,note_on,1,0,0,,2,,,50,127
42377,note_on,0,0,0,,2,,,74,127
42504,note_off,127,0,0,,2,,,74,127
42505,note_on,1,0,0,,6,,,78,127
42632,note_off,127,0,0,,6,,,78,127
42633,note_on,1,0,0,,10,,,81,127
42760,note_off,127,0,0,,10,,,81,127
42760,note_off,0,0,0,,2,,,50,127
42761,note_on,1,0,0,,10,,,45,127
42761,note_on,0,0,0,,4,,,76,127
42761,note_on,0,0,0,,7,,,79,127
42888,note_off,127,0,0,,7,,,79,127
42888,note_off,0,0,0,,4,,,76,127
42889,note_on,1,0,0,,6,,,78,127
42889,note_on,0,0,0,,2,,,74,127
43016,note_off,127,0,0,,2,,,74,127
43016,note_off,0,0,0,,6,,,78,127
43017,note_on,1,0,0,,1,,,73,127
43017,note_on,0,0,0,,4,,,76,127
43144,note_off,127,0,0,,4,,,76,127
43144,note_off,0,0,0,,1,,,73,127
43144,note_off,0,0,0,,10,,,45,127
43145,note_on,1,0,0,,2,,,38,127
43145,note_on,0,0,0,,2,,,74,127
43272,note_off,127,0,0,,2,,,74,127
43273,note_on,1,0,0,,6,,,66,127
43400,note_off,127,0,0,,6,,,66,127
43401,note_on,1,0,0,,10,,,69,127
43528,note_off,127,0,0,,10,,,69,127
43528,note_off,0,0,0,,2,,,38,127
43529,note_on,1,0,0,,10,,,45,127
43529,note_on,0,0,0,,4,,,64,127
43529,note_on,0,0,0,,7,,,67,127
43656,note_off,127,0,0,,7,,,67,127
43656,note_off,0,0,0,,4,,,64,127
43657,note_on,1,0,0,,6,,,66,127
43657,note_on,0,0,0,,2,,,62,127
43784,note_off,127,0,0,,2,,,62,127
43784,note_off,0,0,0,,6,,,66,127
43785,note_on,1,0,0,,1,,,61,127
43785,note_on,0,0,0,,4,,,64,127
43912,note_off,127,0,0,,4,,,64,127
43912,note_off,0,0,0,,1,,,61,127
43912,note_off,0,0,0,,10,,,45,127
43913,note_on,1,0,0,,2,,,50,127
43913,note_on,0,0,0,,2,,,62,127
44040,note_off,127,0,0,,2,,,62,127
44041,note_on,1,0,0,,6,,,66,127
44168,note_off,127,0,0,,6,,,66,127
44169,note_on,1,0,0,,10,,,69,127
44296,note_off,127,0,0,,10,,,69,127
44296,note_off,0,0,0,,2,,,50,127
44297,note_on,1,0,0,,10,,,45,127
44297,note_on,0,0,0,,7,,,67,127
44297,note_on,0,0,0,,4,,,64,127
44424,note_off,127,0,0,,4,,,64,127
44424,note_off,0,0,0,,7,,,67,127
44425,note_on,1,0,0,,6,,,66,127
44425,note_on,0,0,0,,2,,,62,127
44552,note_off,127,0,0,,2,,,62,127
44552,note_off,0,0,0,,6,,,66,127
44553,note_on,1,0,0,,1,,,61,127
44553,note_on,0,0,0,,4,,,64,127
44680,note_off,127,0,0,,4,,,64,127
44680,note_off,0,0,0,,1,,,61,127
44680,note_off,0,0,0,,10,,,45,127
44681,note_on,1,0,0,,2,,,38,127
44681,note_on,0,0,0,,4,,,64,127
44724,note_on,43,0,0,,2,,,62,127
44745,note_off,21,0,0,,4,,,64,127
44767,note_on,22,0,0,,4,,,64,127
44788,note_off,21,0,0,,2,,,62,127
44810,note_on,22,0,0,,2,,,62,127
44831,note_off,21,0,0,,4,,,64,127
45322,note_off,491,0,0,,2,,,38,127
45385,note_off,63,0,0,,2,,,62,127
45450,note_on,65,0,0,,2,,,62,127
45578,note_on,128,0,0,,5,,,65,127
45703,note_off,125,0,0,,2,,,62,127
45705,note_off,2,0,0,,5,,,65,127
45706,note_on,1,0,0,,2,,,62,127
45833,note_off,127,0,0,,2,,,62,127
45834,note_on,1,0,0,,2,,,62,127
45834,note_on,0,0,0,,10,,,69,127
45962,note_on,128,0,0,,5,,,65,127
46087,note_off,125,0,0,,10,,,69,127
46089,note_off,2,0,0,,5,,,65,127
46090,note_on,1,0,0,,10,,,69,127
46217,note_off,127,0,0,,10,,,69,127
46217,note_off,0,0,0,,2,,,62,127
46218,note_on,1,0,0,,2,,,62,127
46218,note_on,0,0,0,,11,,,70,127
46346,note_on,128,0,0,,7,,,67,127
46471,note_off,125,0,0,,11,,,70,127
46473,note_off,2,0,0,,7,,,67,127
46474,note_on,1,0,0,,2,,,74,127
46601,note_off,127,0,0,,2,,,74,127
46601,note_off,0,0,0,,2,,,62,127
46602,note_on,1,0,0,,2,,,62,127
46602,note_on,0,0,0,,4,,,64,127
46602,note_on,0,0,0,,1,,,73,127
46730,note_on,128,0,0,,10,,,69,127
46855,note_off,125,0,0,,1,,,73,127
46857,note_off,2,0,0,,10,,,69,127
46858,note_on,1,0,0,,4,,,76,127
46985,note_off,127,0,0,,4,,,76,127
46985,note_off,0,0,0,,4,,,64,127
46985,note_off,0,0,0,,2,,,62,127
46986,note_on,1,0,0,,2,,,62,127
46986,note_on,0,0,0,,2,,,74,127
47114,note_on,128,0,0,,5,,,65,127
47239,note_off,125,0,0,,2,,,62,127
47241,note_off,2,0,0,,5,,,65,127
47242,note_on,1,0,0,,2,,,62,127
47366,note_off,124,0,0,,2,,,74,127
47369,note_off,3,0,0,,2,,,62,127
47370,note_on,1,0,0,,2,,,62,127
47370,note_on,0,0,0,,10,,,69,127
47498,note_on,128,0,0,,5,,,65,127
47557,note_off,59,0,0,,10,,,69,127
47626,note_off,69,0,0,,5,,,65,127
47627,note_on,1,0,0,,10,,,69,127
47754,note_off,127,0,0,,10,,,69,127
47754,note_off,0,0,0,,2,,,62,127
47755,note_on,1,0,0,,2,,,62,127
47755,note_on,0,0,0,,11,,,70,127
47883,note_on,128,0,0,,7,,,67,127
47942,note_off,59,0,0,,11,,,70,127
48011,note_off,69,0,0,,7,,,67,127
48012,note_on,1,0,0,,2,,,74,127
48139,note_off,127,0,0,,2,,,74,127
48139,note_off,0,0,0,,2,,,62,127
48140,note_on,1,0,0,,4,,,64,127
48140,note_on,0,0,0,,2,,,62,127
48140,note_on,0,0,0,,1,,,73,127
48268,note_on,128,0,0,,10,,,69,127
48327,note_off,59,0,0,,1,,,73,127
48396,note_off,69,0,0,,10,,,69,127
48397,note_on,1,0,0,,4,,,76,127
48524,note_off,127,0,0,,4,,,76,127
48524,note_off,0,0,0,,2,,,62,127
48524,note_off,0,0,0,,4,,,64,127
48525,note_on,1,0,0,,2,,,62,127
48525,note_on,0,0,0,,2,,,74,127
48652,note_off,127,0,0,,2,,,74,127
48653,note_on,1,0,0,,10,,,81,127
48780,note_off,127,0,0,,10,,,81,127
48781,note_on,1,0,0,,5,,,77,127
48908,note_off,127,0,0,,5,,,77,127
48908,note_off,0,0,0,,2,,,62,127
48909,note_on,1,0,0,,2,,,62,127
48909,note_on,0,0,0,,7,,,67,127
48909,note_on,0,0,0,,11,,,70,127
49036,note_off,127,0,0,,11,,,70,127
49037,note_on,1,0,0,,7,,,79,127
49164,note_off,127,0,0,,7,,,79,127
49165,note_on,1,0,0,,4,,,76,127
49292,note_off,127,0,0,,4,,,76,127
49292,note_off,0,0,0,,7,,,67,127
49292,note_off,0,0,0,,2,,,62,127
49293,note_on,1,0,0,,2,,,62,127
49293,note_on,0,0,0,,5,,,65,127
49293,note_on,0,0,0,,10,,,69,127
49420,note_off,127,0,0,,10,,,69,127
49421,note_on,1,0,0,,5,,,77,127
49548,note_off,127,0,0,,5,,,77,127
49549,note_on,1,0,0,,2,,,74,127
49676,note_off,127,0,0,,2,,,74,127
49676,note_off,0,0,0,,5,,,65,127
49676,note_off,0,0,0,,2,,,62,127
49677,note_on,1,0,0,,4,,,64,127
49677,note_on,0,0,0,,7,,,67,127
49805,note_on,128,0,0,,1,,,73,127
49932,note_off,127,0,0,,1,,,73,127
49933,note_on,1,0,0,,4,,,76,127
50060,note_off,127,0,0,,4,,,76,127
50060,note_off,0,0,0,,7,,,67,127
50060,note_off,0,0,0,,4,,,64,127
50061,note_on,1,0,0,,2,,,62,127
50061,note_on,0,0,0,,2,,,74,127
50188,note_off,127,0,0,,2,,,74,127
50189,note_on,1,0,0,,10,,,81,127
50316,note_off,127,0,0,,10,,,81,127
50317,note_on,1,0,0,,5,,,77,127
50444,note_off,127,0,0,,5,,,77,127
50444,note_off,0,0,0,,2,,,62,127
50445,note_on,1,0,0,,2,,,62,127
50445,note_on,0,0,0,,7,,,67,127
50445,note_on,0,0,0,,11,,,70,127
50572,note_off,127,0,0,,11,,,70,127
50573,note_on,1,0,0,,7,,,79,127
50700,note_off,127,0,0,,7,,,79,127
50701,note_on,1,0,0,,4,,,76,127
50828,note_off,127,0,0,,4,,,76,127
50828,note_off,0,0,0,,7,,,67,127
50828,note_off,0,0,0,,2,,,62,127
50829,note_on,1,0,0,,5,,,65,127
50829,note_on,0,0,0,,2,,,62,127
50829,note_on,0,0,0,,10,,,69,127
50956,note_off,127,0,0,,10,,,69,127
50957,note_on,1,0,0,,5,,,77,127
51084,note_off,127,0,0,,5,,,77,127
51085,note_on,1,0,0,,2,,,74,127
51212,note_off,127,0,0,,2,,,74,127
51212,note_off,0,0,0,,2,,,62,127
51212,note_off,0,0,0,,5,,,65,127
51213,note_on,1,0,0,,4,,,64,127
51213,note_on,0,0,0,,7,,,67,127
51341,note_on,128,0,0,,1,,,73,127
51468,note_off,127,0,0,,1,,,73,127
51469,note_on,1,0,0,,4,,,76,127
51596,note_off,127,0,0,,4,,,76,127
51596,note_off,0,0,0,,7,,,67,127
51596,note_off,0,0,0,,4,,,64,127
51597,note_on,1,0,0,,2,,,62,127
51597,note_on,0,0,0,,2,,,74,127
51724,note_off,127,0,0,,2,,,62,127
51725,note_on,1,0,0,,5,,,65,127
51852,note_off,127,0,0,,5,,,65,127
51853,note_on,1,0,0,,2,,,62,127
51980,note_off,127,0,0,,2,,,62,127
51980,note_off,0,0,0,,2,,,74,127
51981,note_on,1,0,0,,11,,,58,127
51981,note_on,0,0,0,,2,,,74,127
52108,note_off,127,0,0,,11,,,58,127
52109,note_on,1,0,0,,5,,,65,127
52236,note_off,127,0,0,,5,,,65,127
52237,note_on,1,0,0,,2,,,62,127
52364,note_off,127,0,0,,2,,,62,127
52364,note_off,0,0,0,,2,,,74,127
52365,note_on,1,0,0,,10,,,57,127
52365,note_on,0,0,0,,2,,,74,127
52492,note_off,127,0,0,,10,,,57,127
52493,note_on,1,0,0,,5,,,65,127
52620,note_off,127,0,0,,5,,,65,127
52621,note_on,1,0,0,,2,,,62,127
52748,note_off,127,0,0,,2,,,62,127
52748,note_off,0,0,0,,2,,,74,127
52749,note_on,1,0,0,,7,,,55,127
52749,note_on,0,0,0,,2,,,74,127
52876,note_off,127,0,0,,7,,,55,127
52877,note_on,1,0,0,,5,,,65,127
53004,note_off,127,0,0,,5,,,65,127
53005,note_on,1,0,0,,2,,,62,127
53132,note_off,127,0,0,,2,,,62,127
53132,note_off,0,0,0,,2,,,74,127
53133,note_on,1,0,0,,5,,,53,127
53133,note_on,0,0,0,,2,,,74,127
53260,note_off,127,0,0,,5,,,53,127
53261,note_on,1,0,0,,5,,,65,127
53388,note_off,127,0,0,,5,,,65,127
53389,note_on,1,0,0,,2,,,62,127
53516,note_off,127,0,0,,2,,,62,127
53516,note_off,0,0,0,,2,,,74,127
53517,note_on,1,0,0,,4,,,52,127
53517,note_on,0,0,0,,2,,,74,127
53644,note_off,127,0,0,,4,,,52,127
53645,note_on,1,0,0,,5,,,65,127
53772,note_off,127,0,0,,5,,,65,127
53773,note_on,1,0,0,,2,,,62,127
53900,note_off,127,0,0,,2,,,62,127
53900,note_off,0,0,0,,2,,,74,127
53901,note_on,1,0,0,,2,,,50,127
53901,note_on,0,0,0,,2,,,74,127
54028,note_off,127,0,0,,2,,,50,127
54029,note_on,1,0,0,,5,,,65,127
54156,note_off,127,0,0,,5,,,65,127
54157,note_on,1,0,0,,2,,,62,127
54284,note_off,127,0,0,,2,,,62,127
54284,note_off,0,0,0,,2,,,74,127
54285,note_on,1,0,0,,10,,,45,127
54285,note_on,0,0,0,,1,,,73,127
54285,note_on,0,0,0,,4,,,76,127
54412,note_off,127,0,0,,4,,,76,127
54413,note_on,1,0,0,,5,,,77,127
54540,note_off,127,0,0,,5,,,77,127
54541,note_on,1,0,0,,7,,,79,127
54668,note_off,127,0,0,,7,,,79,127
54668,note_off,0,0,0,,1,,,73,127
54668,note_off,0,0,0,,10,,,45,127
54669,note_on,1,0,0,,2,,,38,127
54669,note_on,0,0,0,,5,,,77,127
54669,note_on,0,0,0,,2,,,74,127
54796,note_off,127,0,0,,2,,,38,127
54797,note_on,1,0,0,,5,,,65,127
54924,note_off,127,0,0,,5,,,65,127
54925,note_on,1,0,0,,2,,,62,127
55052,note_off,127,0,0,,2,,,62,127
55052,note_off,0,0,0,,2,,,74,127
55052,note_off,0,0,0,,5,,,77,127
55053,note_on,1,0,0,,11,,,58,127
55053,note_on,0,0,0,,2,,,74,127
55180,note_off,127,0,0,,11,,,58,127
55181,note_on,1,0,0,,5,,,65,127
55308,note_off,127,0,0,,5,,,65,127
55309,note_on,1,0,0,,2,,,62,127
55436,note_off,127,0,0,,2,,,62,127
55436,note_off,0,0,0,,2,,,74,127
55437,note_on,1,0,0,,10,,,57,127
55437,note_on,0,0,0,,2,,,74,127
55564,note_off,127,0,0,,10,,,57,127
55565,note_on,1,0,0,,5,,,65,127
55692,note_off,127,0,0,,5,,,65,127
55693,note_on,1,0,0,,2,,,62,127
55820,note_off,127,0,0,,2,,,62,127
55820,note_off,0,0,0,,2,,,74,127
55821,note_on,1,0,0,,7,,,55,127
55821,note_on,0,0,0,,2,,,74,127
55948,note_off,127,0,0,,7,,,55,127
55949,note_on,1,0,0,,5,,,65,127
56076,note_off,127,0,0,,5,,,65,127
56077,note_on,1,0,0,,2,,,62,127
56204,note_off,127,0,0,,2,,,62,127
56204,note_off,0,0,0,,2,,,74,127
56205,note_on,1,0,0,,5,,,53,127
56205,note_on,0,0,0,,2,,,74,127
56332,note_off,127,0,0,,5,,,53,127
56333,note_on,1,0,0,,5,,,65,127
56460,note_off,127,0,0,,5,,,65,127
56461,note_on,1,0,0,,2,,,62,127
56588,note_off,127,0,0,,2,,,62,127
56588,note_off,0,0,0,,2,,,74,127
56589,note_on,1,0,0,,4,,,52,127
56589,note_on,0,0,0,,2,,,74,127
56716,note_off,127,0,0,,4,,,52,127
56717,note_on,1,0,0,,5,,,65,127
56844,note_off,127,0,0,,5,,,65,127
56845,note_on,1,0,0,,2,,,62,127
56972,note_off,127,0,0,,2,,,62,127
56972,note_off,0,0,0,,2,,,74,127
56973,note_on,1,0,0,,2,,,50,127
56973,note_on,0,0,0,,2,,,74,127
57100,note_off,127,0,0,,2,,,50,127
57101,note_on,1,0,0,,5,,,65,127
57228,note_off,127,0,0,,5,,,65,127
57229,note_on,1,0,0,,2,,,62,127
57356,note_off,127,0,0,,2,,,62,127
57356,note_off,0,0,0,,2,,,74,127
57357,note_on,1,0,0,,10,,,45,127
57357,note_on,0,0,0,,1,,,73,127
57357,note_on,0,0,0,,4,,,76,127
57484,note_off,127,0,0,,4,,,76,127
57485,note_on,1,0,0,,5,,,77,127
57612,note_off,127,0,0,,5,,,77,127
57613,note_on,1,0,0,,7,,,79,127
57740,note_off,127,0,0,,7,,,79,127
57740,note_off,0,0,0,,1,,,73,127
57740,note_off,0,0,0,,10,,,45,127
57741,note_on,1,0,0,,2,,,38,127
57741,note_on,0,0,0,,2,,,74,127
57741,note_on,0,0,0,,5,,,77,127
57868,note_off,127,0,0,,5,,,77,127
57869,note_on,1,0,0,,10,,,81,127
57996,note_off,127,0,0,,10,,,81,127
57997,note_on,1,0,0,,5,,,77,127
58124,note_off,127,0,0,,5,,,77,127
58124,note_off,0,0,0,,2,,,74,127
58124,note_off,0,0,0,,2,,,38,127
58125,note_on,1,0,0,,2,,,62,127
58125,note_on,0,0,0,,7,,,67,127
58125,note_on,0,0,0,,11,,,70,127
58252,note_off,127,0,0,,11,,,70,127
58253,note_on,1,0,0,,7,,,79,127
58380,note_off,127,0,0,,7,,,79,127
58381,note_on,1,0,0,,4,,,76,127
58508,note_off,127,0,0,,4,,,76,127
58508,note_off,0,0,0,,7,,,67,127
58508,note_off,0,0,0,,2,,,62,127
58509,note_on,1,0,0,,2,,,62,127
58509,note_on,0,0,0,,5,,,65,127
58509,note_on,0,0,0,,10,,,69,127
58636,note_off,127,0,0,,10,,,69,127
58637,note_on,1,0,0,,5,,,77,127
58764,note_off,127,0,0,,5,,,77,127
58765,note_on,1,0,0,,2,,,74,127
58892,note_off,127,0,0,,2,,,74,127
58892,note_off,0,0,0,,5,,,65,127
58892,note_off,0,0,0,,2,,,62,127
58893,note_on,1,0,0,,4,,,64,127
58893,note_on,0,0,0,,7,,,67,127
59020,note_off,127,0,0,,7,,,67,127
59021,note_on,1,0,0,,4,,,76,127
59148,note_off,127,0,0,,4,,,76,127
59149,note_on,1,0,0,,1,,,73,127
59276,note_off,127,0,0,,1,,,73,127
59276,note_off,0,0,0,,4,,,64,127
59277,note_on,1,0,0,,2,,,62,127
59277,note_on,0,0,0,,2,,,74,127
59404,note_off,127,0,0,,2,,,74,127
59405,note_on,1,0,0,,10,,,81,127
59532,note_off,127,0,0,,10,,,81,127
59533,note_on,1,0,0,,5,,,77,127
59660,note_off,127,0,0,,5,,,77,127
59660,note_off,0,0,0,,2,,,62,127
59661,note_on,1,0,0,,2,,,62,127
59661,note_on,0,0,0,,7,,,67,127
59661,note_on,0,0,0,,11,,,70,127
59788,note_off,127,0,0,,11,,,70,127
59789,note_on,1,0,0,,7,,,79,127
59916,note_off,127,0,0,,7,,,79,127
59917,note_on,1,0,0,,4,,,76,127
60044,note_off,127,0,0,,4,,,76,127
60044,note_off,0,0,0,,7,,,67,127
60044,note_off,0,0,0,,2,,,62,127
60045,note_on,1,0,0,,5,,,65,127
60045,note_on,0,0,0,,2,,,62,127
60045,note_on,0,0,0,,10,,,69,127
60172,note_off,127,0,0,,10,,,69,127
60173,note_on,1,0,0,,5,,,77,127
60300,note_off,127,0,0,,5,,,77,127
60301,note_on,1,0,0,,2,,,74,127
60428,note_off,127,0,0,,2,,,74,127
60428,note_off,0,0,0,,2,,,62,127
60428,note_off,0,0,0,,5,,,65,127
60429,note_on,1,0,0,,4,,,64,127
60429,note_on,0,0,0,,7,,,67,127
60556,note_off,127,0,0,,7,,,67,127
60557,note_on,1,0,0,,4,,,76,127
60684,note_off,127,0,0,,4,,,76,127
60685,note_on,1,0,0,,1,,,73,127
60812,note_off,127,0,0,,1,,,73,127
60812,note_off,0,0,0,,4,,,64,127
60813,note_on,1,0,0,,2,,,62,127
60813,note_on,0,0,0,,7,,,67,127
60813,note_on,0,0,0,,11,,,70,127
60941,note_on,128,0,0,,7,,,79,127
61068,note_off,127,0,0,,7,,,79,127
61069,note_on,1,0,0,,4,,,76,127
61173,note_off,104,0,0,,11,,,70,127
61196,note_off,23,0,0,,4,,,76,127
61196,note_off,0,0,0,,7,,,67,127
61196,note_off,0,0,0,,2,,,62,127
61197,note_on,1,0,0,,2,,,62,127
61197,note_on,0,0,0,,7,,,67,127
61197,note_on,0,0,0,,11,,,70,127
61325,note_on,128,0,0,,7,,,79,127
61452,note_off,127,0,0,,7,,,79,127
61453,note_on,1,0,0,,4,,,76,127
61557,note_off,104,0,0,,11,,,70,127
61580,note_off,23,0,0,,4,,,76,127
61580,note_off,0,0,0,,7,,,67,127
61580,note_off,0,0,0,,2,,,62,127
61581,note_on,1,0,0,,2,,,62,127
61581,note_on,0,0,0,,7,,,67,127
61581,note_on,0,0,0,,11,,,70,127
61709,note_on,128,0,0,,7,,,79,127
61836,note_off,127,0,0,,7,,,79,127
61837,note_on,1,0,0,,4,,,76,127
61941,note_off,104,0,0,,11,,,70,127
61964,note_off,23,0,0,,4,,,76,127
61964,note_off,0,0,0,,7,,,67,127
61964,note_off,0,0,0,,2,,,62,127
61965,note_on,1,0,0,,7,,,67,127
61965,note_on,0,0,0,,2,,,62,127
61965,note_on,0,0,0,,11,,,70,127
62093,note_on,128,0,0,,7,,,79,127
62220,note_off,127,0,0,,7,,,79,127
62221,note_on,1,0,0,,4,,,76,127
62325,note_off,104,0,0,,11,,,70,127
62348,note_off,23,0,0,,4,,,76,127
62348,note_off,0,0,0,,2,,,62,127
62348,note_off,0,0,0,,7,,,67,127
62349,note_on,1,0,0,,0,,,60,127
62349,note_on,0,0,0,,7,,,67,127
62349,note_on,0,0,0,,11,,,70,127
62477,note_on,128,0,0,,7,,,79,127
62602,note_off,125,0,0,,11,,,70,127
62604,note_off,2,0,0,,7,,,79,127
62605,note_on,1,0,0,,4,,,76,127
62732,note_off,127,0,0,,4,,,76,127
62732,note_off,0,0,0,,7,,,67,127
62732,note_off,0,0,0,,0,,,60,127
62733,note_on,1,0,0,,0,,,60,127
62733,note_on,0,0,0,,7,,,67,127
62733,note_on,0,0,0,,11,,,70,127
62861,note_on,128,0,0,,7,,,79,127
62986,note_off,125,0,0,,11,,,70,127
62988,note_off,2,0,0,,7,,,79,127
62989,note_on,1,0,0,,4,,,76,127
63116,note_off,127,0,0,,4,,,76,127
63116,note_off,0,0,0,,7,,,67,127
63116,note_off,0,0,0,,0,,,60,127
63117,note_on,1,0,0,,0,,,60,127
63117,note_on,0,0,0,,7,,,67,127
63117,note_on,0,0,0,,11,,,70,127
63245,note_on,128,0,0,,7,,,79,127
63370,note_off,125,0,0,,11,,,70,127
63372,note_off,2,0,0,,7,,,79,127
63373,note_on,1,0,0,,4,,,76,127
63500,note_off,127,0,0,,4,,,76,127
63500,note_off,0,0,0,,7,,,67,127
63500,note_off,0,0,0,,0,,,60,127
63501,note_on,1,0,0,,0,,,60,127
63501,note_on,0,0,0,,7,,,67,127
63501,note_on,0,0,0,,11,,,70,127
63629,note_on,128,0,0,,7,,,79,127
63754,note_off,125,0,0,,11,,,70,127
63756,note_off,2,0,0,,7,,,79,127
63757,note_on,1,0,0,,4,,,76,127
63884,note_off,127,0,0,,4,,,76,127
63884,note_off,0,0,0,,7,,,67,127
63884,note_off,0,0,0,,0,,,60,127
63885,note_on,1,0,0,,5,,,65,127
63885,note_on,0,0,0,,10,,,69,127
64012,note_off,127,0,0,,10,,,69,127
64013,note_on,1,0,0,,10,,,81,127
64140,note_off,127,0,0,,10,,,81,127
64141,note_on,1,0,0,,5,,,77,127
64268,note_off,127,0,0,,5,,,77,127
64268,note_off,0,0,0,,5,,,65,127
64269,note_on,1,0,0,,2,,,62,127
64269,note_on,0,0,0,,12,,,71,127
64396,note_off,127,0,0,,12,,,71,127
64397,note_on,1,0,0,,12,,,83,127
64524,note_off,127,0,0,,12,,,83,127
64525,note_on,1,0,0,,7,,,79,127
64652,note_off,127,0,0,,7,,,79,127
64652,note_off,0,0,0,,2,,,62,127
64653,note_on,1,0,0,,4,,,64,127
64653,note_on,0,0,0,,0,,,72,127
64780,note_off,127,0,0,,0,,,72,127
64781,note_on,1,0,0,,0,,,84,127
64908,note_off,127,0,0,,0,,,84,127
64909,note_on,1,0,0,,7,,,79,127
65036,note_off,127,0,0,,7,,,79,127
65037,note_on,1,0,0,,4,,,76,127
65164,note_off,127,0,0,,4,,,76,127
65164,note_off,0,0,0,,4,,,64,127
65165,note_on,1,0,0,,0,,,72,127
65292,note_off,127,0,0,,0,,,72,127
65293,note_on,1,0,0,,7,,,67,127
65420,note_off,127,0,0,,7,,,67,127
65421,note_on,1,0,0,,7,,,55,127
65421,note_on,0,0,0,,4,,,64,127
65421,note_on,0,0,0,,7,,,67,127
65676,note_off,255,0,0,,7,,,67,127
65677,note_on,1,0,0,,7,,,67,127
65804,note_off,127,0,0,,7,,,67,127
65804,note_off,0,0,0,,4,,,64,127
65804,note_off,0,0,0,,7,,,55,127
65805,note_on,1,0,0,,7,,,55,127
65805,note_on,0,0,0,,2,,,62,127
65805,note_on,0,0,0,,7,,,67,127
65868,note_off,63,0,0,,7,,,67,127
65869,note_on,1,0,0,,5,,,65,127
65932,note_off,63,0,0,,5,,,65,127
65933,note_on,1,0,0,,7,,,67,127
65996,note_off,63,0,0,,7,,,67,127
65997,note_on,1,0,0,,5,,,65,127
66060,note_off,63,0,0,,5,,,65,127
66061,note_on,1,0,0,,7,,,67,127
66124,note_off,63,0,0,,7,,,67,127
66125,note_on,1,0,0,,5,,,65,127
66188,note_off,63,0,0,,5,,,65,127
66188,note_off,0,0,0,,2,,,62,127
66188,note_off,0,0,0,,7,,,55,127
66189,note_on,1,0,0,,0,,,48,127
66189,note_on,0,0,0,,0,,,60,127
66189,note_on,0,0,0,,4,,,64,127
66316,note_off,127,0,0,,4,,,64,127
66317,note_on,1,0,0,,0,,,84,127
66444,note_off,127,0,0,,0,,,84,127
66445,note_on,1,0,0,,7,,,79,127
66572,note_off,127,0,0,,7,,,79,127
66573,note_on,1,0,0,,4,,,76,127
66700,note_off,127,0,0,,4,,,76,127
66701,note_on,1,0,0,,0,,,72,127
66828,note_off,127,0,0,,0,,,72,127
66829,note_off,1,0,0,,0,,,48,127
66829,note_on,0,0,0,,7,,,67,127
66956,note_off,127,0,0,,7,,,67,127
66956,note_off,0,0,0,,0,,,60,127
66957,note_on,1,0,0,,7,,,43,127
66957,note_on,0,0,0,,7,,,31,127
66957,note_on,0,0,0,,7,,,67,127
67212,note_off,255,0,0,,7,,,67,127
67213,note_on,1,0,0,,7,,,67,127
67340,note_off,127,0,0,,7,,,67,127
67340,note_off,0,0,0,,7,,,31,127
67340,note_off,0,0,0,,7,,,43,127
67341,note_on,1,0,0,,7,,,43,127
67341,note_on,0,0,0,,7,,,31,127
67341,note_on,0,0,0,,7,,,67,127
67404,note_off,63,0,0,,7,,,67,127
67405,note_on,1,0,0,,5,,,65,127
67468,note_off,63,0,0,,5,,,65,127
67469,note_on,1,0,0,,7,,,67,127
67532,note_off,63,0,0,,7,,,67,127
67533,note_on,1,0,0,,5,,,65,127
67596,note_off,63,0,0,,5,,,65,127
67597,note_on,1,0,0,,7,,,67,127
67660,note_off,63,0,0,,7,,,67,127
67661,note_on,1,0,0,,5,,,65,127
67724,note_off,63,0,0,,5,,,65,127
67724,note_off,0,0,0,,7,,,31,127
67724,note_off,0,0,0,,7,,,43,127
67725,note_on,1,0,0,,0,,,36,127
67725,note_on,0,0,0,,4,,,64,127
67853,note_on,128,0,0,,4,,,76,127
67980,note_off,127,0,0,,4,,,76,127
67981,note_on,1,0,0,,0,,,72,127
68108,note_off,127,0,0,,0,,,72,127
68108,note_off,0,0,0,,4,,,64,127
68108,note_off,0,0,0,,0,,,36,127
68109,note_on,1,0,0,,0,,,60,127
68109,note_on,0,0,0,,0,,,48,127
68109,note_on,0,0,0,,4,,,64,127
68237,note_on,128,0,0,,4,,,76,127
68364,note_off,127,0,0,,4,,,76,127
68365,note_on,1,0,0,,0,,,72,127
68492,note_off,127,0,0,,0,,,72,127
68492,note_off,0,0,0,,4,,,64,127
68492,note_off,0,0,0,,0,,,48,127
68492,note_off,0,0,0,,0,,,60,127
68493,note_on,1,0,0,,2,,,50,127
68493,note_on,0,0,0,,0,,,60,127
68493,note_on,0,0,0,,6,,,66,127
68621,note_on,128,0,0,,4,,,76,127
68748,note_off,127,0,0,,4,,,76,127
68749,note_on,1,0,0,,0,,,72,127
68853,note_off,104,0,0,,6,,,66,127
68876,note_off,23,0,0,,0,,,72,127
68876,note_off,0,0,0,,0,,,60,127
68876,note_off,0,0,0,,2,,,50,127
68877,note_on,1,0,0,,2,,,50,127
68877,note_on,0,0,0,,0,,,60,127
68877,note_on,0,0,0,,6,,,66,127
69005,note_on,128,0,0,,4,,,76,127
69132,note_off,127,0,0,,4,,,76,127
69133,note_on,1,0,0,,0,,,72,127
69237,note_off,104,0,0,,6,,,66,127
69260,note_off,23,0,0,,0,,,72,127
69260,note_off,0,0,0,,0,,,60,127
69260,note_off,0,0,0,,2,,,50,127
69261,note_on,1,0,0,,4,,,52,127
69261,note_on,0,0,0,,0,,,60,127
69261,note_on,0,0,0,,7,,,67,127
69389,note_on,128,0,0,,4,,,76,127
69516,note_off,127,0,0,,4,,,76,127
69517,note_on,1,0,0,,0,,,72,127
69621,note_off,104,0,0,,7,,,67,127
69644,note_off,23,0,0,,0,,,72,127
69644,note_off,0,0,0,,0,,,60,127
69644,note_off,0,0,0,,4,,,52,127
69645,note_on,1,0,0,,4,,,52,127
69645,note_on,0,0,0,,0,,,60,127
69645,note_on,0,0,0,,7,,,67,127
69773,note_on,128,0,0,,4,,,76,127
69900,note_off,127,0,0,,4,,,76,127
69901,note_on,1,0,0,,0,,,72,127
70005,note_off,104,0,0,,7,,,67,127
70028,note_off,23,0,0,,0,,,72,127
70028,note_off,0,0,0,,0,,,60,127
70028,note_off,0,0,0,,4,,,52,127
70029,note_on,1,0,0,,6,,,54,127
70029,note_on,0,0,0,,0,,,60,127
70029,note_on,0,0,0,,10,,,69,127
70157,note_on,128,0,0,,4,,,76,127
70284,note_off,127,0,0,,4,,,76,127
70285,note_on,1,0,0,,0,,,72,127
70389,note_off,104,0,0,,10,,,69,127
70412,note_off,23,0,0,,0,,,72,127
70412,note_off,0,0,0,,0,,,60,127
70412,note_off,0,0,0,,6,,,54,127
70413,note_on,1,0,0,,6,,,54,127
70413,note_on,0,0,0,,2,,,62,127
70413,note_on,0,0,0,,10,,,69,127
70541,note_on,128,0,0,,10,,,81,127
70668,note_off,127,0,0,,10,,,81,127
70669,note_on,1,0,0,,0,,,72,127
70773,note_off,104,0,0,,10,,,69,127
70796,note_off,23,0,0,,0,,,72,127
70796,note_off,0,0,0,,2,,,62,127
70796,note_off,0,0,0,,6,,,54,127
70797,note_on,1,0,0,,7,,,55,127
70797,note_on,0,0,0,,2,,,62,127
70797,note_on,0,0,0,,12,,,71,127
70925,note_on,128,0,0,,12,,,83,127
71050,note_off,125,0,0,,12,,,71,127
71052,note_off,2,0,0,,12,,,83,127
71053,note_on,1,0,0,,7,,,79,127
71117,note_off,64,0,0,,7,,,55,127
71180,note_off,63,0,0,,7,,,79,127
71180,note_off,0,0,0,,2,,,62,127
71181,note_on,1,0,0,,0,,,72,127
71181,note_on,0,0,0,,4,,,76,127
71308,note_off,127,0,0,,4,,,76,127
71309,note_on,1,0,0,,12,,,83,127
71436,note_off,127,0,0,,12,,,83,127
71437,note_on,1,0,0,,7,,,79,127
71564,note_off,127,0,0,,7,,,79,127
71564,note_off,0,0,0,,0,,,72,127
71565,note_on,1,0,0,,12,,,71,127
71565,note_on,0,0,0,,2,,,74,127
71692,note_off,127,0,0,,2,,,74,127
71693,note_on,1,0,0,,12,,,83,127
71820,note_off,127,0,0,,12,,,83,127
71821,note_on,1,0,0,,7,,,79,127
71948,note_off,127,0,0,,7,,,79,127
71948,note_off,0,0,0,,12,,,71,127
71949,note_on,1,0,0,,10,,,69,127
71949,note_on,0,0,0,,0,,,72,127
72076,note_off,127,0,0,,0,,,72,127
72077,note_on,1,0,0,,12,,,83,127
72204,note_off,127,0,0,,12,,,83,127
72205,note_on,1,0,0,,7,,,79,127
72332,note_off,127,0,0,,7,,,79,127
72332,note_off,0,0,0,,10,,,69,127
72333,note_on,1,0,0,,7,,,67,127
72333,note_on,0,0,0,,12,,,71,127
72460,note_off,127,0,0,,12,,,71,127
72461,note_on,1,0,0,,12,,,83,127
72588,note_off,127,0,0,,12,,,83,127
72589,note_on,1,0,0,,7,,,79,127
72716,note_off,127,0,0,,7,,,79,127
72716,note_off,0,0,0,,7,,,67,127
72717,note_on,1,0,0,,2,,,62,127
72717,note_on,0,0,0,,10,,,69,127
72844,note_off,127,0,0,,10,,,69,127
72845,note_on,1,0,0,,12,,,83,127
72972,note_off,127,0,0,,12,,,83,127
72973,note_on,1,0,0,,7,,,79,127
73100,note_off,127,0,0,,7,,,79,127
73100,note_off,0,0,0,,2,,,62,127
73101,note_on,1,0,0,,12,,,59,127
73101,note_on,0,0,0,,7,,,67,127
73228,note_off,127,0,0,,7,,,67,127
73229,note_on,1,0,0,,2,,,86,127
73356,note_off,127,0,0,,2,,,86,127
73357,note_on,1,0,0,,7,,,79,127
73484,note_off,127,0,0,,7,,,79,127
73484,note_off,0,0,0,,12,,,59,127
73485,note_on,1,0,0,,2,,,62,127
73485,note_on,0,0,0,,6,,,78,127
73485,note_on,0,0,0,,10,,,81,127
73612,note_off,127,0,0,,10,,,81,127
73613,note_on,1,0,0,,12,,,83,127
73740,note_off,127,0,0,,12,,,83,127
73741,note_on,1,0,0,,0,,,84,127
73868,note_off,127,0,0,,0,,,84,127
73868,note_off,0,0,0,,6,,,78,127
73868,note_off,0,0,0,,2,,,62,127
73869,note_on,1,0,0,,7,,,55,127
73869,note_on,0,0,0,,2,,,62,127
73869,note_on,0,0,0,,12,,,71,127
73996,note_off,127,0,0,,12,,,71,127
73997,note_on,1,0,0,,12,,,83,127
74124,note_off,127,0,0,,12,,,83,127
74125,note_on,1,0,0,,7,,,79,127
74252,note_off,127,0,0,,7,,,79,127
74252,note_off,0,0,0,,2,,,62,127
74252,note_off,0,0,0,,7,,,55,127
74253,note_on,1,0,0,,0,,,72,127
74253,note_on,0,0,0,,4,,,76,127
74380,note_off,127,0,0,,4,,,76,127
74381,note_on,1,0,0,,12,,,83,127
74508,note_off,127,0,0,,12,,,83,127
74509,note_on,1,0,0,,7,,,79,127
74636,note_off,127,0,0,,7,,,79,127
74636,note_off,0,0,0,,0,,,72,127
74637,note_on,1,0,0,,12,,,71,127
74637,note_on,0,0,0,,2,,,74,127
74764,note_off,127,0,0,,2,,,74,127
74765,note_on,1,0,0,,12,,,83,127
74892,note_off,127,0,0,,12,,,83,127
74893,note_on,1,0,0,,7,,,79,127
75020,note_off,127,0,0,,7,,,79,127
75020,note_off,0,0,0,,12,,,71,127
75021,note_on,1,0,0,,10,,,69,127
75021,note_on,0,0,0,,0,,,72,127
75148,note_off,127,0,0,,0,,,72,127
75149,note_on,1,0,0,,12,,,83,127
75276,note_off,127,0,0,,12,,,83,127
75277,note_on,1,0,0,,7,,,79,127
75404,note_off,127,0,0,,7,,,79,127
75404,note_off,0,0,0,,10,,,69,127
75405,note_on,1,0,0,,7,,,67,127
75405,note_on,0,0,0,,12,,,71,127
75532,note_off,127,0,0,,12,,,71,127
75533,note_on,1,0,0,,12,,,83,127
75660,note_off,127,0,0,,12,,,83,127
75661,note_on,1,0,0,,7,,,79,127
75788,note_off,127,0,0,,7,,,79,127
75788,note_off,0,0,0,,7,,,67,127
75789,note_on,1,0,0,,2,,,62,127
75789,note_on,0,0,0,,10,,,69,127
75916,note_off,127,0,0,,10,,,69,127
75917,note_on,1,0,0,,12,,,83,127
76044,note_off,127,0,0,,12,,,83,127
76045,note_on,1,0,0,,7,,,79,127
76172,note_off,127,0,0,,7,,,79,127
76172,note_off,0,0,0,,2,,,62,127
76173,note_on,1,0,0,,12,,,59,127
76173,note_on,0,0,0,,7,,,67,127
76300,note_off,127,0,0,,7,,,67,127
76301,note_on,1,0,0,,2,,,86,127
76428,note_off,127,0,0,,2,,,86,127
76429,note_on,1,0,0,,7,,,79,127
76556,note_off,127,0,0,,7,,,79,127
76556,note_off,0,0,0,,12,,,59,127
76557,note_on,1,0,0,,2,,,62,127
76557,note_on,0,0,0,,10,,,81,127
76557,note_on,0,0,0,,6,,,78,127
76684,note_off,127,0,0,,10,,,81,127
76685,note_on,1,0,0,,12,,,83,127
76812,note_off,127,0,0,,12,,,83,127
76813,note_on,1,0,0,,0,,,84,127
76940,note_off,127,0,0,,0,,,84,127
76940,note_off,0,0,0,,6,,,78,127
76940,note_off,0,0,0,,2,,,62,127
76941,note_on,1,0,0,,7,,,55,127
76941,note_on,0,0,0,,12,,,71,127
77069,note_on,128,0,0,,12,,,83,127
77072,note_off,3,0,0,,12,,,71,127
77196,note_off,124,0,0,,12,,,83,127
77197,note_on,1,0,0,,7,,,79,127
77324,note_off,127,0,0,,7,,,79,127
77324,note_off,0,0,0,,7,,,55,127
77325,note_on,1,0,0,,0,,,48,127
77325,note_on,0,0,0,,4,,,76,127
77452,note_off,127,0,0,,4,,,76,127
77453,note_on,1,0,0,,0,,,72,127
77580,note_off,127,0,0,,0,,,72,127
77581,note_on,1,0,0,,10,,,69,127
77708,note_off,127,0,0,,10,,,69,127
77708,note_off,0,0,0,,0,,,48,127
77709,note_on,1,0,0,,2,,,50,127
77709,note_on,0,0,0,,12,,,71,127
77836,note_off,127,0,0,,12,,,71,127
77837,note_on,1,0,0,,2,,,74,127
77964,note_off,127,0,0,,2,,,74,127
77965,note_on,1,0,0,,7,,,67,127
78092,note_off,127,0,0,,7,,,67,127
78092,note_off,0,0,0,,2,,,50,127
78093,note_on,1,0,0,,2,,,38,127
78093,note_on,0,0,0,,10,,,69,127
78220,note_off,127,0,0,,10,,,69,127
78221,note_on,1,0,0,,10,,,81,127
78348,note_off,127,0,0,,10,,,81,127
78349,note_on,1,0,0,,6,,,78,127
78413,note_off,64,0,0,,2,,,38,127
78476,note_off,63,0,0,,6,,,78,127
78477,note_on,1,0,0,,7,,,79,127
78605,note_on,128,0,0,,12,,,71,127
78732,note_off,127,0,0,,12,,,71,127
78733,note_on,1,0,0,,7,,,67,127
78860,note_off,127,0,0,,7,,,67,127
78860,note_off,0,0,0,,7,,,79,127
78861,note_on,1,0,0,,4,,,64,127
78861,note_on,0,0,0,,7,,,79,127
78988,note_off,127,0,0,,4,,,64,127
78989,note_on,1,0,0,,12,,,71,127
79116,note_off,127,0,0,,12,,,71,127
79117,note_on,1,0,0,,7,,,67,127
79244,note_off,127,0,0,,7,,,67,127
79244,note_off,0,0,0,,7,,,79,127
79245,note_on,1,0,0,,2,,,62,127
79245,note_on,0,0,0,,7,,,79,127
79372,note_off,127,0,0,,2,,,62,127
79373,note_on,1,0,0,,12,,,71,127
79500,note_off,127,0,0,,12,,,71,127
79501,note_on,1,0,0,,7,,,67,127
79628,note_off,127,0,0,,7,,,67,127
79628,note_off,0,0,0,,7,,,79,127
79629,note_on,1,0,0,,0,,,60,127
79629,note_on,0,0,0,,7,,,79,127
79756,note_off,127,0,0,,0,,,60,127
79757,note_on,1,0,0,,12,,,71,127
79884,note_off,127,0,0,,12,,,71,127
79885,note_on,1,0,0,,7,,,67,127
80012,note_off,127,0,0,,7,,,67,127
80012,note_off,0,0,0,,7,,,79,127
80013,note_on,1,0,0,,12,,,59,127
80013,note_on,0,0,0,,7,,,79,127
80140,note_off,127,0,0,,12,,,59,127
80141,note_on,1,0,0,,12,,,71,127
80268,note_off,127,0,0,,12,,,71,127
80269,note_on,1,0,0,,7,,,67,127
80396,note_off,127,0,0,,7,,,67,127
80396,note_off,0,0,0,,7,,,79,127
80397,note_on,1,0,0,,10,,,57,127
80397,note_on,0,0,0,,7,,,79,127
80524,note_off,127,0,0,,10,,,57,127
80525,note_on,1,0,0,,12,,,71,127
80652,note_off,127,0,0,,12,,,71,127
80653,note_on,1,0,0,,7,,,67,127
80780,note_off,127,0,0,,7,,,67,127
80780,note_off,0,0,0,,7,,,79,127
80781,note_on,1,0,0,,7,,,55,127
80781,note_on,0,0,0,,7,,,79,127
80908,note_off,127,0,0,,7,,,55,127
80909,note_on,1,0,0,,12,,,71,127
81036,note_off,127,0,0,,12,,,71,127
81037,note_on,1,0,0,,7,,,67,127
81164,note_off,127,0,0,,7,,,67,127
81164,note_off,0,0,0,,7,,,79,127
81165,note_on,1,0,0,,2,,,50,127
81165,note_on,0,0,0,,10,,,81,127
81165,note_on,0,0,0,,6,,,78,127
81292,note_off,127,0,0,,10,,,81,127
81293,note_on,1,0,0,,12,,,83,127
81420,note_off,127,0,0,,12,,,83,127
81421,note_on,1,0,0,,0,,,84,127
81548,note_off,127,0,0,,0,,,84,127
81548,note_off,0,0,0,,6,,,78,127
81548,note_off,0,0,0,,2,,,50,127
81549,note_on,1,0,0,,7,,,43,127
81549,note_on,0,0,0,,7,,,79,127
81549,note_on,0,0,0,,12,,,83,127
81676,note_off,127,0,0,,7,,,43,127
81677,note_on,1,0,0,,12,,,59,127
81804,note_off,127,0,0,,12,,,59,127
81805,note_on,1,0,0,,7,,,55,127
81932,note_off,127,0,0,,7,,,55,127
81932,note_off,0,0,0,,12,,,83,127
81932,note_off,0,0,0,,7,,,79,127
81933,note_on,1,0,0,,4,,,52,127
81933,note_on,0,0,0,,7,,,67,127
82060,note_off,127,0,0,,4,,,52,127
82061,note_on,1,0,0,,12,,,59,127
82188,note_off,127,0,0,,12,,,59,127
82189,note_on,1,0,0,,7,,,55,127
82316,note_off,127,0,0,,7,,,55,127
82316,note_off,0,0,0,,7,,,67,127
82317,note_on,1,0,0,,2,,,50,127
82317,note_on,0,0,0,,7,,,67,127
82444,note_off,127,0,0,,2,,,50,127
82445,note_on,1,0,0,,12,,,59,127
82572,note_off,127,0,0,,12,,,59,127
82573,note_on,1,0,0,,7,,,55,127
82700,note_off,127,0,0,,7,,,55,127
82700,note_off,0,0,0,,7,,,67,127
82701,note_on,1,0,0,,0,,,48,127
82701,note_on,0,0,0,,7,,,67,127
82828,note_off,127,0,0,,0,,,48,127
82829,note_on,1,0,0,,12,,,59,127
82956,note_off,127,0,0,,12,,,59,127
82957,note_on,1,0,0,,7,,,55,127
83084,note_off,127,0,0,,7,,,55,127
83084,note_off,0,0,0,,7,,,67,127
83085,note_on,1,0,0,,12,,,47,127
83085,note_on,0,0,0,,7,,,67,127
83212,note_off,127,0,0,,12,,,47,127
83213,note_on,1,0,0,,12,,,59,127
83340,note_off,127,0,0,,12,,,59,127
83341,note_on,1,0,0,,7,,,55,127
83468,note_off,127,0,0,,7,,,55,127
83468,note_off,0,0,0,,7,,,67,127
83469,note_on,1,0,0,,10,,,45,127
83469,note_on,0,0,0,,7,,,67,127
83596,note_off,127,0,0,,10,,,45,127
83597,note_on,1,0,0,,12,,,59,127
83724,note_off,127,0,0,,12,,,59,127
83725,note_on,1,0,0,,7,,,55,127
83852,note_off,127,0,0,,7,,,55,127
83852,note_off,0,0,0,,7,,,67,127
83853,note_on,1,0,0,,7,,,43,127
83853,note_on,0,0,0,,7,,,67,127
83980,note_off,127,0,0,,7,,,43,127
83981,note_on,1,0,0,,12,,,59,127
84108,note_off,127,0,0,,12,,,59,127
84109,note_on,1,0,0,,7,,,55,127
84236,note_off,127,0,0,,7,,,55,127
84236,note_off,0,0,0,,7,,,67,127
84237,note_on,1,0,0,,2,,,38,127
84237,note_on,0,0,0,,6,,,66,127
84237,note_on,0,0,0,,10,,,69,127
84364,note_off,127,0,0,,10,,,69,127
84365,note_on,1,0,0,,12,,,71,127
84492,note_off,127,0,0,,12,,,71,127
84493,note_on,1,0,0,,0,,,72,127
84620,note_off,127,0,0,,0,,,72,127
84620,note_off,0,0,0,,6,,,66,127
84620,note_off,0,0,0,,2,,,38,127
84621,note_on,1,0,0,,7,,,31,127
84621,note_on,0,0,0,,12,,,71,127
84748,note_off,127,0,0,,12,,,71,127
84749,note_on,1,0,0,,7,,,79,127
84876,note_off,127,0,0,,7,,,79,127
84877,note_on,1,0,0,,2,,,74,127
85004,note_off,127,0,0,,2,,,74,127
85004,note_off,0,0,0,,7,,,31,127
85005,note_on,1,0,0,,0,,,36,127
85005,note_on,0,0,0,,4,,,76,127
85132,note_off,127,0,0,,4,,,76,127
85133,note_on,1,0,0,,0,,,72,127
85260,note_off,127,0,0,,0,,,72,127
85261,note_on,1,0,0,,10,,,69,127
85388,note_off,127,0,0,,10,,,69,127
85388,note_off,0,0,0,,0,,,36,127
85389,note_on,1,0,0,,2,,,38,127
85389,note_on,0,0,0,,2,,,74,127
85516,note_off,127,0,0,,2,,,74,127
85517,note_on,1,0,0,,12,,,71,127
85644,note_off,127,0,0,,12,,,71,127
85645,note_on,1,0,0,,7,,,67,127
85772,note_off,127,0,0,,7,,,67,127
85772,note_off,0,0,0,,2,,,38,127
85773,note_on,1,0,0,,2,,,38,127
85773,note_on,0,0,0,,2,,,62,127
85900,note_off,127,0,0,,2,,,62,127
85901,note_on,1,0,0,,10,,,69,127
86028,note_off,127,0,0,,10,,,69,127
86029,note_on,1,0,0,,6,,,66,127
86156,note_off,127,0,0,,6,,,66,127
86156,note_off,0,0,0,,2,,,38,127
86157,note_on,1,0,0,,7,,,43,127
86157,note_on,0,0,0,,7,,,67,127
86284,note_off,127,0,0,,7,,,67,127
86285,note_on,1,0,0,,7,,,79,127
86412,note_off,127,0,0,,7,,,79,127
86413,note_on,1,0,0,,2,,,74,127
86540,note_off,127,0,0,,2,,,74,127
86541,note_on,1,0,0,,12,,,71,127
86668,note_off,127,0,0,,12,,,71,127
86669,note_on,1,0,0,,7,,,67,127
86796,note_off,127,0,0,,7,,,67,127
86797,note_off,1,0,0,,7,,,43,127
86797,note_on,0,0,0,,2,,,62,127
86924,note_off,127,0,0,,2,,,62,127
86925,note_on,1,0,0,,2,,,50,127
86925,note_on,0,0,0,,12,,,59,127
86925,note_on,0,0,0,,2,,,62,127
87180,note_off,255,0,0,,2,,,62,127
87181,note_on,1,0,0,,2,,,62,127
87308,note_off,127,0,0,,2,,,62,127
87308,note_off,0,0,0,,12,,,59,127
87308,note_off,0,0,0,,2,,,50,127
87309,note_on,1,0,0,,2,,,50,127
87309,note_on,0,0,0,,10,,,57,127
87309,note_on,0,0,0,,2,,,62,127
87372,note_off,63,0,0,,2,,,62,127
87373,note_on,1,0,0,,0,,,60,127
87436,note_off,63,0,0,,0,,,60,127
87437,note_on,1,0,0,,2,,,62,127
87500,note_off,63,0,0,,2,,,62,127
87501,note_on,1,0,0,,0,,,60,127
87564,note_off,63,0,0,,0,,,60,127
87565,note_on,1,0,0,,2,,,62,127
87628,note_off,63,0,0,,2,,,62,127
87629,note_on,1,0,0,,0,,,60,127
87692,note_off,63,0,0,,0,,,60,127
87692,note_off,0,0,0,,10,,,57,127
87692,note_off,0,0,0,,2,,,50,127
87693,note_on,1,0,0,,7,,,43,127
87693,note_on,0,0,0,,7,,,55,127
87693,note_on,0,0,0,,12,,,59,127
87820,note_off,127,0,0,,12,,,59,127
87821,note_on,1,0,0,,7,,,79,127
87948,note_off,127,0,0,,7,,,79,127
87949,note_on,1,0,0,,2,,,74,127
88076,note_off,127,0,0,,2,,,74,127
88077,note_on,1,0,0,,12,,,71,127
88204,note_off,127,0,0,,12,,,71,127
88205,note_on,1,0,0,,7,,,67,127
88332,note_off,127,0,0,,7,,,67,127
88333,note_off,1,0,0,,7,,,55,127
88333,note_off,0,0,0,,7,,,43,127
88333,note_on,0,0,0,,2,,,62,127
88460,note_off,127,0,0,,2,,,62,127
88461,note_on,1,0,0,,2,,,38,127
88461,note_on,0,0,0,,2,,,62,127
88716,note_off,255,0,0,,2,,,62,127
88717,note_on,1,0,0,,2,,,62,127
88844,note_off,127,0,0,,2,,,62,127
88844,note_off,0,0,0,,2,,,38,127
88845,note_on,1,0,0,,2,,,38,127
88845,note_on,0,0,0,,2,,,62,127
88908,note_off,63,0,0,,2,,,62,127
88909,note_on,1,0,0,,0,,,60,127
88972,note_off,63,0,0,,0,,,60,127
88973,note_on,1,0,0,,2,,,62,127
89036,note_off,63,0,0,,2,,,62,127
89037,note_on,1,0,0,,0,,,60,127
89100,note_off,63,0,0,,0,,,60,127
89101,note_on,1,0,0,,2,,,62,127
89164,note_off,63,0,0,,2,,,62,127
89165,note_off,1,0,0,,2,,,38,127
89165,note_on,0,0,0,,0,,,60,127
89224,note_off,59,0,0,,0,,,60,127
89229,note_on,5,0,0,,12,,,83,127
89357,note_on,128,0,0,,7,,,67,127
89484,note_off,127,0,0,,7,,,67,127
89485,note_on,1,0,0,,2,,,62,127
89612,note_off,127,0,0,,2,,,62,127
89613,note_on,1,0,0,,12,,,59,127
89740,note_off,127,0,0,,12,,,59,127
89741,note_on,1,0,0,,7,,,55,127
89868,note_off,127,0,0,,7,,,55,127
89869,note_on,1,0,0,,2,,,50,127
89996,note_off,127,0,0,,2,,,50,127
89996,note_off,0,0,0,,12,,,83,127
89997,note_on,1,0,0,,2,,,50,127
89997,note_on,0,0,0,,10,,,81,127
90252,note_off,255,0,0,,2,,,50,127
90253,note_on,1,0,0,,2,,,50,127
90380,note_off,127,0,0,,2,,,50,127
90380,note_off,0,0,0,,10,,,81,127
90381,note_on,1,0,0,,2,,,50,127
90381,note_on,0,0,0,,6,,,78,127
90444,note_off,63,0,0,,2,,,50,127
90445,note_on,1,0,0,,0,,,48,127
90508,note_off,63,0,0,,0,,,48,127
90509,note_on,1,0,0,,2,,,50,127
90572,note_off,63,0,0,,2,,,50,127
90573,note_on,1,0,0,,0,,,48,127
90634,note_off,61,0,0,,6,,,78,127
90636,note_off,2,0,0,,0,,,48,127
90637,note_on,1,0,0,,2,,,50,127
90700,note_off,63,0,0,,2,,,50,127
90701,note_on,1,0,0,,0,,,48,127
90764,note_off,63,0,0,,0,,,48,127
90765,note_on,1,0,0,,12,,,47,127
90765,note_on,0,0,0,,12,,,83,127
90765,note_on,0,0,0,,7,,,79,127
90892,note_off,127,0,0,,12,,,47,127
90893,note_on,1,0,0,,7,,,67,127
91020,note_off,127,0,0,,7,,,67,127
91021,note_on,1,0,0,,2,,,62,127
91148,note_off,127,0,0,,2,,,62,127
91149,note_on,1,0,0,,12,,,59,127
91276,note_off,127,0,0,,12,,,59,127
91277,note_on,1,0,0,,7,,,55,127
91404,note_off,127,0,0,,7,,,55,127
91405,note_on,1,0,0,,2,,,50,127
91532,note_off,127,0,0,,2,,,50,127
91532,note_off,0,0,0,,7,,,79,127
91532,note_off,0,0,0,,12,,,83,127
91533,note_on,1,0,0,,2,,,50,127
91533,note_on,0,0,0,,10,,,81,127
91788,note_off,255,0,0,,2,,,50,127
91789,note_on,1,0,0,,2,,,50,127
91916,note_off,127,0,0,,2,,,50,127
91916,note_off,0,0,0,,10,,,81,127
91917,note_on,1,0,0,,2,,,50,127
91917,note_on,0,0,0,,6,,,78,127
91980,note_off,63,0,0,,2,,,50,127
91981,note_on,1,0,0,,0,,,48,127
92044,note_off,63,0,0,,0,,,48,127
92045,note_on,1,0,0,,2,,,50,127
92108,note_off,63,0,0,,2,,,50,127
92109,note_on,1,0,0,,0,,,48,127
92172,note_off,63,0,0,,0,,,48,127
92173,note_on,1,0,0,,2,,,50,127
92236,note_off,63,0,0,,2,,,50,127
92237,note_on,1,0,0,,0,,,48,127
92300,note_off,63,0,0,,0,,,48,127
92300,note_off,0,0,0,,6,,,78,127
92301,note_on,1,0,0,,12,,,47,127
92301,note_on,0,0,0,,7,,,79,127
92428,note_off,127,0,0,,7,,,79,127
92429,note_on,1,0,0,,12,,,71,127
92556,note_off,127,0,0,,12,,,71,127
92557,note_on,1,0,0,,2,,,74,127
92684,note_off,127,0,0,,2,,,74,127
92684,note_off,0,0,0,,12,,,47,127
92685,note_on,1,0,0,,0,,,48,127
92685,note_on,0,0,0,,4,,,76,127
92812,note_off,127,0,0,,4,,,76,127
92813,note_on,1,0,0,,0,,,72,127
92940,note_off,127,0,0,,0,,,72,127
92941,note_on,1,0,0,,10,,,69,127
93068,note_off,127,0,0,,10,,,69,127
93068,note_off,0,0,0,,0,,,48,127
93069,note_on,1,0,0,,2,,,50,127
93069,note_on,0,0,0,,2,,,74,127
93196,note_off,127,0,0,,2,,,74,127
93197,note_on,1,0,0,,12,,,71,127
93324,note_off,127,0,0,,12,,,71,127
93325,note_on,1,0,0,,7,,,67,127
93452,note_off,127,0,0,,7,,,67,127
93452,note_off,0,0,0,,2,,,50,127
93453,note_on,1,0,0,,2,,,38,127
93453,note_on,0,0,0,,2,,,62,127
93580,note_off,127,0,0,,2,,,62,127
93581,note_on,1,0,0,,10,,,69,127
93708,note_off,127,0,0,,10,,,69,127
93709,note_on,1,0,0,,6,,,66,127
93836,note_off,127,0,0,,6,,,66,127
93836,note_off,0,0,0,,2,,,38,127
93837,note_on,1,0,0,,7,,,43,127
93837,note_on,0,0,0,,7,,,67,127
93964,note_off,127,0,0,,7,,,67,127
93965,note_on,1,0,0,,12,,,83,127
94092,note_off,127,0,0,,12,,,83,127
94093,note_on,1,0,0,,2,,,86,127
94220,note_off,127,0,0,,2,,,86,127
94220,note_off,0,0,0,,7,,,43,127
94221,note_on,1,0,0,,2,,,50,127
94221,note_on,0,0,0,,0,,,84,127
94221,note_on,0,0,0,,10,,,81,127
94348,note_off,127,0,0,,10,,,81,127
94348,note_off,0,0,0,,0,,,84,127
94349,note_on,1,0,0,,7,,,79,127
94349,note_on,0,0,0,,12,,,83,127
94476,note_off,127,0,0,,12,,,83,127
94476,note_off,0,0,0,,7,,,79,127
94477,note_on,1,0,0,,10,,,81,127
94477,note_on,0,0,0,,6,,,78,127
94604,note_off,127,0,0,,6,,,78,127
94604,note_off,0,0,0,,10,,,81,127
94604,note_off,0,0,0,,2,,,50,127
94605,note_on,1,0,0,,7,,,55,127
94605,note_on,0,0,0,,7,,,79,127
94732,note_off,127,0,0,,7,,,79,127
94733,note_on,1,0,0,,12,,,71,127
94860,note_off,127,0,0,,12,,,71,127
94861,note_on,1,0,0,,2,,,74,127
94988,note_off,127,0,0,,2,,,74,127
94988,note_off,0,0,0,,7,,,55,127
94989,note_on,1,0,0,,2,,,50,127
94989,note_on,0,0,0,,10,,,69,127
94989,note_on,0,0,0,,0,,,72,127
95116,note_off,127,0,0,,0,,,72,127
95116,note_off,0,0,0,,10,,,69,127
95117,note_on,1,0,0,,7,,,67,127
95117,note_on,0,0,0,,12,,,71,127
95244,note_off,127,0,0,,12,,,71,127
95244,note_off,0,0,0,,7,,,67,127
95245,note_on,1,0,0,,6,,,66,127
95245,note_on,0,0,0,,10,,,69,127
95372,note_off,127,0,0,,10,,,69,127
95372,note_off,0,0,0,,6,,,66,127
95372,note_off,0,0,0,,2,,,50,127
95373,note_on,1,0,0,,7,,,43,127
95373,note_on,0,0,0,,7,,,67,127
95500,note_off,127,0,0,,7,,,67,127
95503,note_on,3,0,0,,12,,,59,127
95632,note_off,129,0,0,,12,,,59,127
95633,note_on,1,0,0,,2,,,62,127
95756,note_off,123,0,0,,7,,,43,127
95763,note_off,7,0,0,,2,,,62,127
95764,note_on,1,0,0,,10,,,57,127
95764,note_on,0,0,0,,0,,,60,127
95764,note_on,0,0,0,,2,,,38,127
95893,note_off,129,0,0,,0,,,60,127
95893,note_off,0,0,0,,10,,,57,127
95906,note_on,13,0,0,,7,,,55,127
95906,note_on,0,0,0,,12,,,59,127
96048,note_off,142,0,0,,12,,,59,127
96048,note_off,0,0,0,,7,,,55,127
96051,note_on,3,0,0,,10,,,57,127
96051,note_on,0,0,0,,6,,,54,127
96154,note_off,103,0,0,,2,,,38,127
96193,note_off,39,0,0,,6,,,54,127
96193,note_off,0,0,0,,10,,,57,127
96197,note_on,4,0,0,,10,,,57,127
96197,note_on,0,0,0,,7,,,31,127
96245,note_on,48,0,0,,7,,,55,127
96267,note_off,22,0,0,,10,,,57,127
96294,note_on,27,0,0,,10,,,57,127
96315,note_off,21,0,0,,7,,,55,127
96342,note_on,27,0,0,,7,,,55,127
96363,note_off,21,0,0,,10,,,57,127
98124,note_off,1761,0,0,,7,,,55,127
98124,note_off,0,0,0,,7,,,31,127
102912,end_of_track,4788,1,0,,,,,,
