tick,type,time,meta,track,program,channel,pitch,tempo,note,velocity
0,copyright,0,1,0,,,,,,
0,program_change,0,0,0,6,0,,,,
0,pitchwheel,0,0,0,,0,0,,,
0,program_change,0,0,0,6,1,,,,
0,pitchwheel,0,0,0,,1,-590,,,
0,program_change,0,0,0,6,2,,,,
0,pitchwheel,0,0,0,,2,-272,,,
0,program_change,0,0,0,6,3,,,,
0,pitchwheel,0,0,0,,3,-353,,,
0,program_change,0,0,0,6,4,,,,
0,pitchwheel,0,0,0,,4,-560,,,
0,program_change,0,0,0,6,5,,,,
0,pitchwheel,0,0,0,,5,-80,,,
0,program_change,0,0,0,6,6,,,,
0,pitchwheel,0,0,0,,6,-625,,,
0,program_change,0,0,0,6,7,,,,
0,pitchwheel,0,0,0,,7,-130,,,
0,program_change,0,0,0,6,8,,,,
0,pitchwheel,0,0,0,,8,-512,,,
0,program_change,0,0,0,6,10,,,,
0,pitchwheel,0,0,0,,10,-464,,,
0,program_change,0,0,0,6,11,,,,
0,pitchwheel,0,0,0,,11,-208,,,
0,program_change,0,0,0,6,12,,,,
0,pitchwheel,0,0,0,,12,-553,,,
0,set_tempo,0,1,0,,,,500000,,
110,note_on,110,0,0,,2,,,62,127
110,note_on,0,0,0,,6,,,66,127
110,note_on,0,0,0,,10,,,81,127
438,note_off,328,0,0,,10,,,81,127
439,note_on,1,0,0,,12,,,83,127
548,note_off,109,0,0,,12,,,83,127
548,note_off,0,0,0,,6,,,66,127
548,note_off,0,0,0,,2,,,62,127
549,note_on,1,0,0,,7,,,67,127
549,note_on,0,0,0,,4,,,64,127
549,note_on,0,0,0,,2,,,74,127
987,note_off,438,0,0,,4,,,64,127
988,note_on,1,0,0,,4,,,64,127
1098,note_off,110,0,0,,2,,,74,127
1098,note_on,0,0,0,,1,,,73,127
1207,note_off,109,0,0,,1,,,73,127
1208,note_on,1,0,0,,12,,,71,127
1317,note_off,109,0,0,,12,,,71,127
1318,note_on,1,0,0,,1,,,73,127
1427,note_off,109,0,0,,1,,,73,127
1427,note_off,0,0,0,,4,,,64,127
1427,note_off,0,0,0,,7,,,67,127
1428,note_on,1,0,0,,6,,,66,127
1428,note_on,0,0,0,,2,,,74,127
1537,note_off,109,0,0,,2,,,74,127
1538,note_on,1,0,0,,10,,,69,127
1647,note_off,109,0,0,,10,,,69,127
1648,note_on,1,0,0,,12,,,71,127
1757,note_off,109,0,0,,12,,,71,127
1758,note_on,1,0,0,,1,,,73,127
1867,note_off,109,0,0,,1,,,73,127
1868,note_on,1,0,0,,2,,,74,127
1977,note_off,109,0,0,,2,,,74,127
1978,note_on,1,0,0,,4,,,76,127
2087,note_off,109,0,0,,4,,,76,127
2088,note_on,1,0,0,,6,,,78,127
2197,note_off,109,0,0,,6,,,78,127
2198,note_on,1,0,0,,7,,,79,127
2307,note_off,109,0,0,,7,,,79,127
2307,note_off,0,0,0,,6,,,66,127
2308,note_on,1,0,0,,6,,,54,127
2308,note_on,0,0,0,,2,,,62,127
2308,note_on,0,0,0,,10,,,81,127
2527,note_on,219,0,0,,10,,,69,127
2745,note_off,218,0,0,,10,,,69,127
2745,note_off,0,0,0,,2,,,62,127
2745,note_off,0,0,0,,6,,,54,127
2746,note_on,1,0,0,,7,,,55,127
2746,note_on,0,0,0,,12,,,71,127
2964,note_off,218,0,0,,10,,,81,127
2965,note_on,1,0,0,,7,,,79,127
3183,note_off,218,0,0,,12,,,71,127
3183,note_off,0,0,0,,7,,,55,127
3184,note_on,1,0,0,,10,,,57,127
3184,note_on,0,0,0,,2,,,74,127
3402,note_off,218,0,0,,7,,,79,127
3403,note_on,1,0,0,,6,,,78,127
3621,note_off,218,0,0,,2,,,74,127
3622,note_on,1,0,0,,10,,,45,127
3622,note_on,0,0,0,,1,,,73,127
3840,note_off,218,0,0,,6,,,78,127
3841,note_on,1,0,0,,4,,,76,127
4059,note_off,218,0,0,,4,,,76,127
4059,note_off,0,0,0,,1,,,73,127
4059,note_off,0,0,0,,10,,,45,127
4059,note_off,0,0,0,,10,,,57,127
4060,note_on,1,0,0,,2,,,50,127
4060,note_on,0,0,0,,2,,,74,127
4060,note_on,0,0,0,,6,,,78,127
4169,note_off,109,0,0,,2,,,74,127
4170,note_on,1,0,0,,10,,,69,127
4279,note_off,109,0,0,,10,,,69,127
4280,note_on,1,0,0,,12,,,71,127
4389,note_off,109,0,0,,12,,,71,127
4390,note_on,1,0,0,,1,,,73,127
4499,note_off,109,0,0,,1,,,73,127
4499,note_off,0,0,0,,6,,,78,127
4499,note_off,0,0,0,,2,,,50,127
4500,note_on,1,0,0,,4,,,52,127
4500,note_on,0,0,0,,2,,,74,127
4609,note_off,109,0,0,,2,,,74,127
4610,note_on,1,0,0,,4,,,76,127
4719,note_off,109,0,0,,4,,,76,127
4720,note_on,1,0,0,,6,,,78,127
4829,note_off,109,0,0,,6,,,78,127
4830,note_on,1,0,0,,7,,,79,127
4939,note_off,109,0,0,,7,,,79,127
4939,note_off,0,0,0,,4,,,52,127
4940,note_on,1,0,0,,2,,,62,127
4940,note_on,0,0,0,,6,,,54,127
4940,note_on,0,0,0,,10,,,81,127
5159,note_on,219,0,0,,10,,,69,127
5377,note_off,218,0,0,,10,,,69,127
5377,note_off,0,0,0,,6,,,54,127
5377,note_off,0,0,0,,2,,,62,127
5378,note_on,1,0,0,,7,,,55,127
5378,note_on,0,0,0,,12,,,71,127
5596,note_off,218,0,0,,10,,,81,127
5597,note_on,1,0,0,,7,,,79,127
5815,note_off,218,0,0,,12,,,71,127
5815,note_off,0,0,0,,7,,,55,127
5816,note_on,1,0,0,,10,,,57,127
5816,note_on,0,0,0,,2,,,74,127
6034,note_off,218,0,0,,7,,,79,127
6035,note_on,1,0,0,,6,,,78,127
6253,note_off,218,0,0,,2,,,74,127
6254,note_on,1,0,0,,10,,,45,127
6254,note_on,0,0,0,,1,,,73,127
6472,note_off,218,0,0,,6,,,78,127
6473,note_on,1,0,0,,4,,,76,127
6679,note_off,206,0,0,,4,,,76,127
6692,note_off,13,0,0,,1,,,73,127
6692,note_off,0,0,0,,10,,,45,127
6692,note_off,0,0,0,,10,,,57,127
6693,note_on,1,0,0,,2,,,50,127
6693,note_on,0,0,0,,2,,,62,127
6693,note_on,0,0,0,,6,,,78,127
6911,note_off,218,0,0,,6,,,78,127
6912,note_on,1,0,0,,7,,,79,127
7130,note_off,218,0,0,,7,,,79,127
7130,note_off,0,0,0,,2,,,50,127
7131,note_on,1,0,0,,4,,,52,127
7131,note_on,0,0,0,,1,,,73,127
7349,note_off,218,0,0,,1,,,73,127
7350,note_on,1,0,0,,2,,,74,127
7568,note_off,218,0,0,,2,,,74,127
7568,note_off,0,0,0,,4,,,52,127
7568,note_off,0,0,0,,2,,,62,127
7569,note_on,1,0,0,,6,,,54,127
7569,note_on,0,0,0,,2,,,62,127
7569,note_on,0,0,0,,10,,,69,127
7787,note_off,218,0,0,,10,,,69,127
7788,note_on,1,0,0,,12,,,71,127
8006,note_off,218,0,0,,12,,,71,127
8006,note_off,0,0,0,,2,,,62,127
8006,note_off,0,0,0,,6,,,54,127
8007,note_on,1,0,0,,7,,,55,127
8007,note_on,0,0,0,,2,,,62,127
8007,note_on,0,0,0,,4,,,64,127
8225,note_off,218,0,0,,4,,,64,127
8226,note_on,1,0,0,,6,,,66,127
8444,note_off,218,0,0,,7,,,55,127
8445,note_on,1,0,0,,10,,,57,127
8663,note_off,218,0,0,,6,,,66,127
8664,note_on,1,0,0,,7,,,67,127
8882,note_off,218,0,0,,7,,,67,127
8882,note_off,0,0,0,,2,,,62,127
8883,note_on,1,0,0,,1,,,61,127
8883,note_on,0,0,0,,10,,,69,127
8992,note_off,109,0,0,,10,,,69,127
8993,note_on,1,0,0,,7,,,67,127
9102,note_off,109,0,0,,7,,,67,127
9103,note_on,1,0,0,,6,,,66,127
9212,note_off,109,0,0,,6,,,66,127
9213,note_on,1,0,0,,4,,,64,127
9310,note_off,97,0,0,,4,,,64,127
9321,note_off,11,0,0,,1,,,61,127
9321,note_off,0,0,0,,10,,,57,127
9322,note_on,1,0,0,,2,,,50,127
9322,note_on,0,0,0,,2,,,62,127
9322,note_on,0,0,0,,6,,,78,127
9540,note_off,218,0,0,,6,,,78,127
9541,note_on,1,0,0,,7,,,79,127
9759,note_off,218,0,0,,7,,,79,127
9759,note_off,0,0,0,,2,,,50,127
9760,note_on,1,0,0,,4,,,52,127
9760,note_on,0,0,0,,1,,,73,127
9978,note_off,218,0,0,,1,,,73,127
9979,note_on,1,0,0,,2,,,74,127
10197,note_off,218,0,0,,2,,,74,127
10197,note_off,0,0,0,,4,,,52,127
10197,note_off,0,0,0,,2,,,62,127
10198,note_on,1,0,0,,6,,,54,127
10198,note_on,0,0,0,,2,,,62,127
10198,note_on,0,0,0,,10,,,69,127
10416,note_off,218,0,0,,10,,,69,127
10417,note_on,1,0,0,,12,,,71,127
10635,note_off,218,0,0,,12,,,71,127
10635,note_off,0,0,0,,2,,,62,127
10635,note_off,0,0,0,,6,,,54,127
10636,note_on,1,0,0,,7,,,55,127
10636,note_on,0,0,0,,2,,,62,127
10636,note_on,0,0,0,,4,,,64,127
10854,note_off,218,0,0,,4,,,64,127
10855,note_on,1,0,0,,6,,,66,127
11073,note_off,218,0,0,,6,,,66,127
11073,note_off,0,0,0,,7,,,55,127
11074,note_on,1,0,0,,10,,,57,127
11074,note_on,0,0,0,,7,,,67,127
11292,note_off,218,0,0,,7,,,67,127
11293,note_on,1,0,0,,6,,,66,127
11511,note_off,218,0,0,,6,,,66,127
11511,note_off,0,0,0,,10,,,57,127
11511,note_off,0,0,0,,2,,,62,127
11512,note_on,1,0,0,,12,,,59,127
11512,note_on,0,0,0,,4,,,64,127
11730,note_off,218,0,0,,4,,,64,127
11731,note_on,1,0,0,,2,,,62,127
11949,note_off,218,0,0,,2,,,62,127
11949,note_off,0,0,0,,12,,,59,127
11950,note_on,1,0,0,,1,,,61,127
11950,note_on,0,0,0,,10,,,69,127
12059,note_off,109,0,0,,1,,,61,127
12060,note_on,1,0,0,,2,,,62,127
12169,note_off,109,0,0,,2,,,62,127
12170,note_on,1,0,0,,10,,,57,127
12279,note_off,109,0,0,,10,,,57,127
12280,note_on,1,0,0,,12,,,59,127
12389,note_off,109,0,0,,12,,,59,127
12390,note_on,1,0,0,,6,,,54,127
12499,note_off,109,0,0,,6,,,54,127
12500,note_on,1,0,0,,7,,,55,127
12609,note_off,109,0,0,,7,,,55,127
12610,note_on,1,0,0,,1,,,49,127
12719,note_off,109,0,0,,1,,,49,127
12720,note_on,1,0,0,,2,,,50,127
12829,note_off,109,0,0,,2,,,50,127
12830,note_on,1,0,0,,10,,,45,127
12939,note_off,109,0,0,,10,,,45,127
12940,note_on,1,0,0,,12,,,47,127
13049,note_off,109,0,0,,12,,,47,127
13050,note_on,1,0,0,,6,,,42,127
13159,note_off,109,0,0,,6,,,42,127
13160,note_on,1,0,0,,7,,,43,127
13269,note_off,109,0,0,,7,,,43,127
13270,note_on,1,0,0,,1,,,37,127
13488,note_off,218,0,0,,10,,,69,127
13489,note_on,1,0,0,,4,,,76,127
13707,note_off,218,0,0,,4,,,76,127
13707,note_off,0,0,0,,1,,,37,127
13708,note_on,1,0,0,,1,,,37,127
13708,note_on,0,0,0,,1,,,73,127
13926,note_off,218,0,0,,1,,,73,127
13927,note_on,1,0,0,,10,,,69,127
14145,note_off,218,0,0,,10,,,69,127
14145,note_off,0,0,0,,1,,,37,127
14146,note_on,1,0,0,,1,,,37,127
14146,note_on,0,0,0,,4,,,64,127
14364,note_off,218,0,0,,4,,,64,127
14365,note_on,1,0,0,,1,,,61,127
14583,note_off,218,0,0,,1,,,61,127
14583,note_off,0,0,0,,1,,,37,127
14584,note_on,1,0,0,,1,,,61,127
14584,note_on,0,0,0,,10,,,69,127
14693,note_off,109,0,0,,1,,,61,127
14694,note_on,1,0,0,,2,,,62,127
14803,note_off,109,0,0,,2,,,62,127
14804,note_on,1,0,0,,10,,,57,127
14913,note_off,109,0,0,,10,,,57,127
14914,note_on,1,0,0,,12,,,59,127
15023,note_off,109,0,0,,12,,,59,127
15024,note_on,1,0,0,,6,,,54,127
15133,note_off,109,0,0,,6,,,54,127
15134,note_on,1,0,0,,7,,,55,127
15243,note_off,109,0,0,,7,,,55,127
15244,note_on,1,0,0,,1,,,49,127
15353,note_off,109,0,0,,1,,,49,127
15354,note_on,1,0,0,,2,,,50,127
15463,note_off,109,0,0,,2,,,50,127
15464,note_on,1,0,0,,10,,,45,127
15573,note_off,109,0,0,,10,,,45,127
15574,note_on,1,0,0,,12,,,47,127
15683,note_off,109,0,0,,12,,,47,127
15684,note_on,1,0,0,,6,,,42,127
15793,note_off,109,0,0,,6,,,42,127
15794,note_on,1,0,0,,7,,,43,127
15903,note_off,109,0,0,,7,,,43,127
15904,note_on,1,0,0,,1,,,37,127
16122,note_off,218,0,0,,10,,,69,127
16123,note_on,1,0,0,,4,,,76,127
16341,note_off,218,0,0,,4,,,76,127
16341,note_off,0,0,0,,1,,,37,127
16342,note_on,1,0,0,,1,,,37,127
16342,note_on,0,0,0,,1,,,73,127
16560,note_off,218,0,0,,1,,,73,127
16561,note_on,1,0,0,,10,,,69,127
16779,note_off,218,0,0,,10,,,69,127
16779,note_off,0,0,0,,1,,,37,127
16780,note_on,1,0,0,,1,,,61,127
16780,note_on,0,0,0,,4,,,64,127
16998,note_off,218,0,0,,4,,,64,127
16999,note_on,1,0,0,,6,,,66,127
17071,note_off,72,0,0,,6,,,66,127
17072,note_on,1,0,0,,4,,,64,127
17144,note_off,72,0,0,,4,,,64,127
17145,note_on,1,0,0,,6,,,66,127
17217,note_off,72,0,0,,6,,,66,127
17217,note_off,0,0,0,,1,,,61,127
17218,note_on,1,0,0,,12,,,59,127
17218,note_on,0,0,0,,7,,,67,127
17437,note_on,219,0,0,,2,,,74,127
17547,note_off,110,0,0,,7,,,67,127
17656,note_off,109,0,0,,2,,,74,127
17657,note_on,1,0,0,,12,,,47,127
17657,note_on,0,0,0,,12,,,71,127
17875,note_off,218,0,0,,12,,,71,127
17876,note_on,1,0,0,,7,,,67,127
18094,note_off,218,0,0,,7,,,67,127
18094,note_off,0,0,0,,12,,,47,127
18094,note_off,0,0,0,,12,,,59,127
18095,note_on,1,0,0,,12,,,59,127
18095,note_on,0,0,0,,2,,,62,127
18313,note_off,218,0,0,,2,,,62,127
18314,note_on,1,0,0,,4,,,64,127
18386,note_off,72,0,0,,4,,,64,127
18387,note_on,1,0,0,,2,,,62,127
18459,note_off,72,0,0,,2,,,62,127
18460,note_on,1,0,0,,4,,,64,127
18532,note_off,72,0,0,,4,,,64,127
18532,note_off,0,0,0,,12,,,59,127
18533,note_on,1,0,0,,10,,,57,127
18533,note_on,0,0,0,,6,,,66,127
18752,note_on,219,0,0,,1,,,73,127
18862,note_off,110,0,0,,6,,,66,127
18971,note_off,109,0,0,,1,,,73,127
18972,note_on,1,0,0,,10,,,45,127
18972,note_on,0,0,0,,10,,,69,127
19190,note_off,218,0,0,,10,,,69,127
19191,note_on,1,0,0,,6,,,66,127
19409,note_off,218,0,0,,6,,,66,127
19409,note_off,0,0,0,,10,,,45,127
19409,note_off,0,0,0,,10,,,57,127
19410,note_on,1,0,0,,10,,,57,127
19410,note_on,0,0,0,,1,,,61,127
19628,note_off,218,0,0,,1,,,61,127
19629,note_on,1,0,0,,2,,,62,127
19701,note_off,72,0,0,,2,,,62,127
19702,note_on,1,0,0,,1,,,61,127
19774,note_off,72,0,0,,1,,,61,127
19775,note_on,1,0,0,,2,,,62,127
19847,note_off,72,0,0,,2,,,62,127
19847,note_off,0,0,0,,10,,,57,127
19848,note_on,1,0,0,,7,,,55,127
19848,note_on,0,0,0,,4,,,64,127
20067,note_on,219,0,0,,12,,,71,127
20177,note_off,110,0,0,,4,,,64,127
20286,note_off,109,0,0,,12,,,71,127
20287,note_on,1,0,0,,7,,,43,127
20287,note_on,0,0,0,,7,,,67,127
20505,note_off,218,0,0,,7,,,67,127
20506,note_on,1,0,0,,4,,,64,127
20724,note_off,218,0,0,,4,,,64,127
20724,note_off,0,0,0,,7,,,43,127
20724,note_off,0,0,0,,7,,,55,127
20725,note_on,1,0,0,,7,,,55,127
20725,note_on,0,0,0,,12,,,59,127
20943,note_off,218,0,0,,12,,,59,127
20944,note_on,1,0,0,,1,,,61,127
21016,note_off,72,0,0,,1,,,61,127
21017,note_on,1,0,0,,12,,,59,127
21089,note_off,72,0,0,,12,,,59,127
21090,note_on,1,0,0,,1,,,61,127
21162,note_off,72,0,0,,1,,,61,127
21162,note_off,0,0,0,,7,,,55,127
21163,note_on,1,0,0,,6,,,54,127
21163,note_on,0,0,0,,2,,,62,127
21381,note_off,218,0,0,,6,,,54,127
21382,note_on,1,0,0,,10,,,57,127
21600,note_off,218,0,0,,10,,,57,127
21601,note_on,1,0,0,,6,,,54,127
21819,note_off,218,0,0,,6,,,54,127
21820,note_on,1,0,0,,2,,,50,127
22038,note_off,218,0,0,,2,,,50,127
22038,note_off,0,0,0,,2,,,62,127
22039,note_on,1,0,0,,10,,,45,127
22039,note_on,0,0,0,,10,,,69,127
22257,note_off,218,0,0,,10,,,45,127
22258,note_on,1,0,0,,12,,,47,127
22476,note_off,218,0,0,,12,,,47,127
22477,note_on,1,0,0,,1,,,49,127
22695,note_off,218,0,0,,1,,,49,127
22696,note_on,1,0,0,,4,,,52,127
22914,note_off,218,0,0,,4,,,52,127
22914,note_off,0,0,0,,10,,,69,127
22915,note_on,1,0,0,,10,,,57,127
22915,note_on,0,0,0,,8,,,68,127
23133,note_off,218,0,0,,8,,,68,127
23133,note_off,0,0,0,,10,,,57,127
23134,note_on,1,0,0,,1,,,61,127
23134,note_on,0,0,0,,10,,,69,127
23352,note_off,218,0,0,,1,,,61,127
23353,note_on,1,0,0,,4,,,52,127
23571,note_off,218,0,0,,4,,,52,127
23572,note_on,1,0,0,,1,,,49,127
23790,note_off,218,0,0,,1,,,49,127
23791,note_on,1,0,0,,2,,,50,127
24009,note_off,218,0,0,,2,,,50,127
24010,note_on,1,0,0,,6,,,54,127
24228,note_off,218,0,0,,6,,,54,127
24228,note_off,0,0,0,,10,,,69,127
24229,note_on,1,0,0,,10,,,57,127
24229,note_on,0,0,0,,8,,,68,127
24447,note_off,218,0,0,,8,,,68,127
24447,note_off,0,0,0,,10,,,57,127
24448,note_on,1,0,0,,2,,,62,127
24448,note_on,0,0,0,,10,,,69,127
24666,note_off,218,0,0,,2,,,62,127
24667,note_on,1,0,0,,10,,,57,127
24885,note_off,218,0,0,,10,,,57,127
24886,note_on,1,0,0,,2,,,50,127
25104,note_off,218,0,0,,2,,,50,127
25105,note_on,1,0,0,,1,,,49,127
25323,note_off,218,0,0,,1,,,49,127
25324,note_on,1,0,0,,4,,,52,127
25542,note_off,218,0,0,,4,,,52,127
25542,note_off,0,0,0,,10,,,69,127
25543,note_on,1,0,0,,10,,,57,127
25543,note_on,0,0,0,,8,,,68,127
25761,note_off,218,0,0,,8,,,68,127
25761,note_off,0,0,0,,10,,,57,127
25762,note_on,1,0,0,,1,,,61,127
25762,note_on,0,0,0,,10,,,69,127
25980,note_off,218,0,0,,1,,,61,127
25981,note_on,1,0,0,,10,,,57,127
26199,note_off,218,0,0,,10,,,57,127
26200,note_on,1,0,0,,1,,,49,127
26418,note_off,218,0,0,,1,,,49,127
26419,note_on,1,0,0,,2,,,50,127
26637,note_off,218,0,0,,2,,,50,127
26638,note_on,1,0,0,,1,,,61,127
26856,note_off,218,0,0,,1,,,61,127
26857,note_on,1,0,0,,2,,,62,127
27075,note_off,218,0,0,,2,,,62,127
27076,note_on,1,0,0,,2,,,50,127
27294,note_off,218,0,0,,2,,,50,127
27295,note_on,1,0,0,,1,,,49,127
27513,note_off,218,0,0,,1,,,49,127
27513,note_off,0,0,0,,10,,,69,127
27514,note_on,1,0,0,,1,,,61,127
27514,note_on,0,0,0,,11,,,70,127
27732,note_off,218,0,0,,1,,,61,127
27733,note_on,1,0,0,,12,,,47,127
27951,note_off,218,0,0,,12,,,47,127
27951,note_off,0,0,0,,11,,,70,127
27952,note_on,1,0,0,,11,,,58,127
27952,note_on,0,0,0,,12,,,71,127
28170,note_off,218,0,0,,11,,,58,127
28171,note_on,1,0,0,,12,,,59,127
28389,note_off,218,0,0,,12,,,59,127
28389,note_off,0,0,0,,12,,,71,127
28390,note_on,1,0,0,,12,,,47,127
28390,note_on,0,0,0,,1,,,73,127
28608,note_off,218,0,0,,12,,,47,127
28609,note_on,1,0,0,,10,,,45,127
28827,note_off,218,0,0,,10,,,45,127
28827,note_off,0,0,0,,1,,,73,127
28828,note_on,1,0,0,,10,,,57,127
28828,note_on,0,0,0,,2,,,74,127
29046,note_off,218,0,0,,10,,,57,127
29047,note_on,1,0,0,,8,,,44,127
29265,note_off,218,0,0,,8,,,44,127
29265,note_off,0,0,0,,2,,,74,127
29266,note_on,1,0,0,,6,,,54,127
29266,note_on,0,0,0,,3,,,75,127
29484,note_off,218,0,0,,6,,,54,127
29485,note_on,1,0,0,,8,,,56,127
29703,note_off,218,0,0,,8,,,56,127
29703,note_off,0,0,0,,3,,,75,127
29704,note_on,1,0,0,,8,,,44,127
29704,note_on,0,0,0,,4,,,76,127
29922,note_off,218,0,0,,8,,,44,127
29923,note_on,1,0,0,,6,,,42,127
30141,note_off,218,0,0,,6,,,42,127
30141,note_off,0,0,0,,4,,,76,127
30142,note_on,1,0,0,,6,,,54,127
30142,note_on,0,0,0,,6,,,78,127
30360,note_off,218,0,0,,6,,,54,127
30361,note_on,1,0,0,,4,,,40,127
30579,note_off,218,0,0,,4,,,40,127
30579,note_off,0,0,0,,6,,,78,127
30580,note_on,1,0,0,,3,,,51,127
30580,note_on,0,0,0,,8,,,80,127
30798,note_off,218,0,0,,3,,,51,127
30799,note_on,1,0,0,,4,,,52,127
31017,note_off,218,0,0,,4,,,52,127
31017,note_off,0,0,0,,8,,,80,127
31018,note_on,1,0,0,,4,,,40,127
31018,note_on,0,0,0,,10,,,81,127
31236,note_off,218,0,0,,4,,,40,127
31237,note_on,1,0,0,,2,,,38,127
31455,note_off,218,0,0,,2,,,38,127
31455,note_off,0,0,0,,10,,,81,127
31456,note_on,1,0,0,,2,,,50,127
31456,note_on,0,0,0,,12,,,83,127
31674,note_off,218,0,0,,2,,,50,127
31675,note_on,1,0,0,,1,,,37,127
31893,note_off,218,0,0,,1,,,37,127
31893,note_off,0,0,0,,12,,,83,127
31894,note_on,1,0,0,,12,,,47,127
31894,note_on,0,0,0,,1,,,85,127
32112,note_off,218,0,0,,12,,,47,127
32113,note_on,1,0,0,,1,,,49,127
32331,note_off,218,0,0,,1,,,49,127
32331,note_off,0,0,0,,1,,,85,127
32332,note_on,1,0,0,,1,,,37,127
32332,note_on,0,0,0,,2,,,86,127
32550,note_off,218,0,0,,1,,,37,127
32551,note_on,1,0,0,,12,,,35,127
32769,note_off,218,0,0,,12,,,35,127
32769,note_off,0,0,0,,2,,,86,127
32770,note_on,1,0,0,,12,,,47,127
32770,note_on,0,0,0,,1,,,85,127
32879,note_off,109,0,0,,1,,,85,127
32880,note_on,1,0,0,,12,,,83,127
32989,note_off,109,0,0,,12,,,83,127
32989,note_off,0,0,0,,12,,,47,127
32990,note_on,1,0,0,,10,,,33,127
32990,note_on,0,0,0,,1,,,85,127
33099,note_off,109,0,0,,1,,,85,127
33100,note_on,1,0,0,,12,,,83,127
33209,note_off,109,0,0,,12,,,83,127
33210,note_on,1,0,0,,10,,,81,127
33319,note_off,109,0,0,,10,,,81,127
33320,note_on,1,0,0,,8,,,80,127
33429,note_off,109,0,0,,8,,,80,127
33429,note_off,0,0,0,,10,,,33,127
33430,note_on,1,0,0,,12,,,35,127
33430,note_on,0,0,0,,10,,,81,127
33539,note_off,109,0,0,,10,,,81,127
33540,note_on,1,0,0,,8,,,80,127
33649,note_off,109,0,0,,8,,,80,127
33650,note_on,1,0,0,,6,,,78,127
33759,note_off,109,0,0,,6,,,78,127
33760,note_on,1,0,0,,4,,,76,127
33869,note_off,109,0,0,,4,,,76,127
33869,note_off,0,0,0,,12,,,35,127
33870,note_on,1,0,0,,1,,,37,127
33870,note_on,0,0,0,,10,,,81,127
33979,note_off,109,0,0,,10,,,81,127
33980,note_on,1,0,0,,8,,,80,127
34089,note_off,109,0,0,,8,,,80,127
34090,note_on,1,0,0,,6,,,78,127
34199,note_off,109,0,0,,6,,,78,127
34200,note_on,1,0,0,,4,,,76,127
34309,note_off,109,0,0,,4,,,76,127
34309,note_off,0,0,0,,1,,,37,127
34310,note_on,1,0,0,,2,,,38,127
34310,note_on,0,0,0,,6,,,78,127
34419,note_off,109,0,0,,6,,,78,127
34420,note_on,1,0,0,,4,,,76,127
34529,note_off,109,0,0,,4,,,76,127
34530,note_on,1,0,0,,2,,,74,127
34639,note_off,109,0,0,,2,,,74,127
34640,note_on,1,0,0,,1,,,73,127
34749,note_off,109,0,0,,1,,,73,127
34749,note_off,0,0,0,,2,,,38,127
34750,note_on,1,0,0,,4,,,40,127
34750,note_on,0,0,0,,2,,,74,127
34859,note_off,109,0,0,,2,,,74,127
34860,note_on,1,0,0,,1,,,73,127
34969,note_off,109,0,0,,1,,,73,127
34970,note_on,1,0,0,,12,,,71,127
35079,note_off,109,0,0,,12,,,71,127
35080,note_on,1,0,0,,10,,,69,127
35189,note_off,109,0,0,,10,,,69,127
35189,note_off,0,0,0,,4,,,40,127
35190,note_on,1,0,0,,6,,,42,127
35190,note_on,0,0,0,,2,,,74,127
35299,note_off,109,0,0,,2,,,74,127
35300,note_on,1,0,0,,1,,,73,127
35409,note_off,109,0,0,,1,,,73,127
35410,note_on,1,0,0,,12,,,71,127
35519,note_off,109,0,0,,12,,,71,127
35520,note_on,1,0,0,,10,,,69,127
35629,note_off,109,0,0,,10,,,69,127
35629,note_off,0,0,0,,6,,,42,127
35630,note_on,1,0,0,,4,,,40,127
35630,note_on,0,0,0,,3,,,75,127
35739,note_off,109,0,0,,3,,,75,127
35740,note_on,1,0,0,,4,,,76,127
35849,note_off,109,0,0,,4,,,76,127
35850,note_on,1,0,0,,12,,,71,127
35959,note_off,109,0,0,,12,,,71,127
35960,note_on,1,0,0,,8,,,68,127
36069,note_off,109,0,0,,8,,,68,127
36070,note_on,1,0,0,,4,,,64,127
36179,note_off,109,0,0,,4,,,64,127
36180,note_on,1,0,0,,12,,,59,127
36289,note_off,109,0,0,,12,,,59,127
36290,note_on,1,0,0,,8,,,56,127
36399,note_off,109,0,0,,8,,,56,127
36400,note_on,1,0,0,,4,,,52,127
36509,note_off,109,0,0,,4,,,52,127
36509,note_off,0,0,0,,4,,,40,127
36510,note_on,1,0,0,,4,,,40,127
37824,note_off,1314,0,0,,4,,,40,127
38265,note_on,441,0,0,,10,,,57,127
38265,note_on,0,0,0,,0,,,60,127
38484,note_on,219,0,0,,4,,,64,127
38702,note_off,218,0,0,,4,,,64,127
38702,note_off,0,0,0,,0,,,60,127
38702,note_off,0,0,0,,10,,,57,127
38703,note_on,1,0,0,,10,,,57,127
38703,note_on,0,0,0,,0,,,60,127
38703,note_on,0,0,0,,5,,,65,127
38921,note_off,218,0,0,,5,,,65,127
38922,note_on,1,0,0,,4,,,64,127
39140,note_off,218,0,0,,4,,,64,127
39140,note_off,0,0,0,,0,,,60,127
39140,note_off,0,0,0,,10,,,57,127
39141,note_on,1,0,0,,0,,,60,127
39141,note_on,0,0,0,,10,,,57,127
39141,note_on,0,0,0,,10,,,69,127
39359,note_off,218,0,0,,10,,,69,127
39360,note_on,1,0,0,,8,,,68,127
39578,note_off,218,0,0,,8,,,68,127
39578,note_off,0,0,0,,10,,,57,127
39578,note_off,0,0,0,,0,,,60,127
39579,note_on,1,0,0,,12,,,59,127
39579,note_on,0,0,0,,2,,,62,127
39579,note_on,0,0,0,,4,,,76,127
39797,note_off,218,0,0,,4,,,76,127
39798,note_on,1,0,0,,2,,,74,127
40016,note_off,218,0,0,,2,,,62,127
40016,note_off,0,0,0,,12,,,59,127
40017,note_on,1,0,0,,2,,,62,127
40017,note_on,0,0,0,,12,,,59,127
40235,note_off,218,0,0,,2,,,74,127
40236,note_on,1,0,0,,0,,,72,127
40345,note_off,109,0,0,,0,,,72,127
40346,note_on,1,0,0,,12,,,71,127
40455,note_off,109,0,0,,12,,,71,127
40455,note_off,0,0,0,,12,,,59,127
40455,note_off,0,0,0,,2,,,62,127
40456,note_on,1,0,0,,4,,,64,127
40456,note_on,0,0,0,,0,,,60,127
40456,note_on,0,0,0,,10,,,69,127
40894,note_off,438,0,0,,10,,,69,127
40894,note_off,0,0,0,,0,,,60,127
40894,note_off,0,0,0,,4,,,64,127
40895,note_on,1,0,0,,0,,,60,127
40895,note_on,0,0,0,,10,,,57,127
41114,note_on,219,0,0,,4,,,64,127
41332,note_off,218,0,0,,4,,,64,127
41332,note_off,0,0,0,,10,,,57,127
41332,note_off,0,0,0,,0,,,60,127
41333,note_on,1,0,0,,0,,,60,127
41333,note_on,0,0,0,,10,,,57,127
41333,note_on,0,0,0,,5,,,65,127
41551,note_off,218,0,0,,5,,,65,127
41552,note_on,1,0,0,,4,,,64,127
41770,note_off,218,0,0,,4,,,64,127
41770,note_off,0,0,0,,10,,,57,127
41770,note_off,0,0,0,,0,,,60,127
41771,note_on,1,0,0,,0,,,60,127
41771,note_on,0,0,0,,10,,,57,127
41771,note_on,0,0,0,,10,,,69,127
41989,note_off,218,0,0,,10,,,69,127
41990,note_on,1,0,0,,8,,,68,127
42208,note_off,218,0,0,,8,,,68,127
42208,note_off,0,0,0,,10,,,57,127
42208,note_off,0,0,0,,0,,,60,127
42209,note_on,1,0,0,,12,,,59,127
42209,note_on,0,0,0,,2,,,62,127
42209,note_on,0,0,0,,4,,,76,127
42427,note_off,218,0,0,,4,,,76,127
42428,note_on,1,0,0,,2,,,74,127
42646,note_off,218,0,0,,2,,,62,127
42646,note_off,0,0,0,,12,,,59,127
42647,note_on,1,0,0,,12,,,59,127
42647,note_on,0,0,0,,2,,,62,127
42865,note_off,218,0,0,,2,,,74,127
42866,note_on,1,0,0,,0,,,72,127
42975,note_off,109,0,0,,0,,,72,127
42976,note_on,1,0,0,,12,,,71,127
43085,note_off,109,0,0,,12,,,71,127
43085,note_off,0,0,0,,2,,,62,127
43085,note_off,0,0,0,,12,,,59,127
43086,note_on,1,0,0,,4,,,64,127
43086,note_on,0,0,0,,1,,,61,127
43086,note_on,0,0,0,,10,,,69,127
43524,note_off,438,0,0,,10,,,69,127
43524,note_off,0,0,0,,1,,,61,127
43524,note_off,0,0,0,,4,,,64,127
43525,note_on,1,0,0,,2,,,62,127
43525,note_on,0,0,0,,5,,,65,127
43744,note_on,219,0,0,,10,,,69,127
43962,note_off,218,0,0,,10,,,69,127
43962,note_off,0,0,0,,5,,,65,127
43962,note_off,0,0,0,,2,,,62,127
43963,note_on,1,0,0,,5,,,65,127
43963,note_on,0,0,0,,2,,,62,127
43963,note_on,0,0,0,,11,,,70,127
44181,note_off,218,0,0,,11,,,70,127
44182,note_on,1,0,0,,10,,,69,127
44400,note_off,218,0,0,,10,,,69,127
44400,note_off,0,0,0,,2,,,62,127
44400,note_off,0,0,0,,5,,,65,127
44401,note_on,1,0,0,,5,,,65,127
44401,note_on,0,0,0,,2,,,62,127
44401,note_on,0,0,0,,2,,,74,127
44619,note_off,218,0,0,,2,,,74,127
44620,note_on,1,0,0,,1,,,73,127
44838,note_off,218,0,0,,1,,,73,127
44838,note_off,0,0,0,,2,,,62,127
44838,note_off,0,0,0,,5,,,65,127
44839,note_on,1,0,0,,4,,,64,127
44839,note_on,0,0,0,,7,,,67,127
44839,note_on,0,0,0,,10,,,81,127
45057,note_off,218,0,0,,10,,,81,127
45058,note_on,1,0,0,,7,,,79,127
45276,note_off,218,0,0,,7,,,67,127
45276,note_off,0,0,0,,4,,,64,127
45277,note_on,1,0,0,,7,,,67,127
45277,note_on,0,0,0,,4,,,64,127
45495,note_off,218,0,0,,7,,,79,127
45496,note_on,1,0,0,,5,,,77,127
45605,note_off,109,0,0,,5,,,77,127
45606,note_on,1,0,0,,4,,,76,127
45715,note_off,109,0,0,,4,,,76,127
45715,note_off,0,0,0,,4,,,64,127
45715,note_off,0,0,0,,7,,,67,127
45716,note_on,1,0,0,,10,,,69,127
45716,note_on,0,0,0,,5,,,65,127
45716,note_on,0,0,0,,2,,,74,127
46154,note_off,438,0,0,,2,,,74,127
46154,note_off,0,0,0,,5,,,65,127
46154,note_off,0,0,0,,10,,,69,127
46155,note_on,1,0,0,,5,,,65,127
46155,note_on,0,0,0,,2,,,62,127
46374,note_on,219,0,0,,10,,,69,127
46592,note_off,218,0,0,,10,,,69,127
46592,note_off,0,0,0,,2,,,62,127
46592,note_off,0,0,0,,5,,,65,127
46593,note_on,1,0,0,,2,,,62,127
46593,note_on,0,0,0,,5,,,65,127
46593,note_on,0,0,0,,11,,,70,127
46811,note_off,218,0,0,,11,,,70,127
46812,note_on,1,0,0,,10,,,69,127
47030,note_off,218,0,0,,10,,,69,127
47030,note_off,0,0,0,,5,,,65,127
47030,note_off,0,0,0,,2,,,62,127
47031,note_on,1,0,0,,5,,,65,127
47031,note_on,0,0,0,,2,,,62,127
47031,note_on,0,0,0,,2,,,74,127
47249,note_off,218,0,0,,2,,,74,127
47250,note_on,1,0,0,,1,,,73,127
47468,note_off,218,0,0,,1,,,73,127
47468,note_off,0,0,0,,2,,,62,127
47468,note_off,0,0,0,,5,,,65,127
47469,note_on,1,0,0,,4,,,64,127
47469,note_on,0,0,0,,7,,,67,127
47469,note_on,0,0,0,,10,,,81,127
47687,note_off,218,0,0,,10,,,81,127
47688,note_on,1,0,0,,7,,,79,127
47906,note_off,218,0,0,,7,,,67,127
47906,note_off,0,0,0,,4,,,64,127
47907,note_on,1,0,0,,7,,,67,127
47907,note_on,0,0,0,,4,,,64,127
48125,note_off,218,0,0,,7,,,79,127
48126,note_on,1,0,0,,5,,,77,127
48235,note_off,109,0,0,,5,,,77,127
48236,note_on,1,0,0,,4,,,76,127
48345,note_off,109,0,0,,4,,,76,127
48345,note_off,0,0,0,,4,,,64,127
48345,note_off,0,0,0,,7,,,67,127
48346,note_on,1,0,0,,10,,,69,127
48346,note_on,0,0,0,,5,,,65,127
48346,note_on,0,0,0,,2,,,74,127
48784,note_off,438,0,0,,2,,,74,127
48784,note_off,0,0,0,,5,,,65,127
48784,note_off,0,0,0,,10,,,69,127
48785,note_on,1,0,0,,10,,,69,127
48785,note_on,0,0,0,,5,,,65,127
49004,note_on,219,0,0,,2,,,86,127
49004,note_on,0,0,0,,2,,,74,127
49222,note_off,218,0,0,,5,,,65,127
49222,note_off,0,0,0,,10,,,69,127
49223,note_on,1,0,0,,10,,,69,127
49223,note_on,0,0,0,,5,,,65,127
49441,note_off,218,0,0,,2,,,86,127
49442,note_on,1,0,0,,0,,,84,127
49551,note_off,109,0,0,,0,,,84,127
49552,note_on,1,0,0,,11,,,82,127
49661,note_off,109,0,0,,11,,,82,127
49661,note_off,0,0,0,,5,,,65,127
49661,note_off,0,0,0,,10,,,69,127
49662,note_on,1,0,0,,5,,,65,127
49662,note_on,0,0,0,,10,,,69,127
49662,note_on,0,0,0,,10,,,81,127
49880,note_off,218,0,0,,10,,,81,127
49880,note_off,0,0,0,,2,,,74,127
49881,note_on,1,0,0,,11,,,82,127
50099,note_off,218,0,0,,11,,,82,127
50099,note_off,0,0,0,,10,,,69,127
50099,note_off,0,0,0,,5,,,65,127
50100,note_on,1,0,0,,4,,,64,127
50100,note_on,0,0,0,,10,,,69,127
50319,note_on,219,0,0,,0,,,84,127
50319,note_on,0,0,0,,0,,,72,127
50537,note_off,218,0,0,,10,,,69,127
50537,note_off,0,0,0,,4,,,64,127
50538,note_on,1,0,0,,4,,,64,127
50538,note_on,0,0,0,,10,,,69,127
50756,note_off,218,0,0,,0,,,84,127
50757,note_on,1,0,0,,11,,,82,127
50866,note_off,109,0,0,,11,,,82,127
50867,note_on,1,0,0,,10,,,81,127
50976,note_off,109,0,0,,10,,,81,127
50976,note_off,0,0,0,,10,,,69,127
50976,note_off,0,0,0,,4,,,64,127
50977,note_on,1,0,0,,4,,,64,127
50977,note_on,0,0,0,,10,,,69,127
50977,note_on,0,0,0,,8,,,80,127
51195,note_off,218,0,0,,8,,,80,127
51195,note_off,0,0,0,,0,,,72,127
51196,note_on,1,0,0,,10,,,81,127
51414,note_off,218,0,0,,10,,,81,127
51414,note_off,0,0,0,,10,,,69,127
51414,note_off,0,0,0,,4,,,64,127
51415,note_on,1,0,0,,8,,,68,127
51415,note_on,0,0,0,,2,,,62,127
51634,note_on,219,0,0,,12,,,83,127
51634,note_on,0,0,0,,12,,,71,127
51852,note_off,218,0,0,,2,,,62,127
51852,note_off,0,0,0,,8,,,68,127
51853,note_on,1,0,0,,8,,,68,127
51853,note_on,0,0,0,,2,,,62,127
52071,note_off,218,0,0,,12,,,83,127
52072,note_on,1,0,0,,10,,,81,127
52181,note_off,109,0,0,,10,,,81,127
52182,note_on,1,0,0,,8,,,80,127
52291,note_off,109,0,0,,8,,,80,127
52291,note_off,0,0,0,,2,,,62,127
52291,note_off,0,0,0,,8,,,68,127
52292,note_on,1,0,0,,8,,,68,127
52292,note_on,0,0,0,,2,,,62,127
52292,note_on,0,0,0,,6,,,78,127
52510,note_off,218,0,0,,6,,,78,127
52510,note_off,0,0,0,,12,,,71,127
52511,note_on,1,0,0,,8,,,80,127
52729,note_off,218,0,0,,8,,,80,127
52729,note_off,0,0,0,,2,,,62,127
52729,note_off,0,0,0,,8,,,68,127
52730,note_on,1,0,0,,4,,,64,127
52730,note_on,0,0,0,,0,,,60,127
52949,note_on,219,0,0,,10,,,69,127
52949,note_on,0,0,0,,10,,,81,127
53167,note_off,218,0,0,,0,,,60,127
53167,note_off,0,0,0,,4,,,64,127
53168,note_on,1,0,0,,4,,,64,127
53168,note_on,0,0,0,,0,,,60,127
53277,note_off,109,0,0,,10,,,81,127
53278,note_on,1,0,0,,7,,,79,127
53387,note_off,109,0,0,,7,,,79,127
53388,note_on,1,0,0,,5,,,77,127
53497,note_off,109,0,0,,5,,,77,127
53498,note_on,1,0,0,,4,,,76,127
53607,note_off,109,0,0,,4,,,76,127
53607,note_off,0,0,0,,0,,,60,127
53607,note_off,0,0,0,,4,,,64,127
53608,note_on,1,0,0,,0,,,60,127
53608,note_on,0,0,0,,4,,,64,127
53608,note_on,0,0,0,,10,,,81,127
53717,note_off,109,0,0,,10,,,81,127
53718,note_on,1,0,0,,7,,,79,127
53827,note_off,109,0,0,,7,,,79,127
53827,note_off,0,0,0,,10,,,69,127
53828,note_on,1,0,0,,5,,,77,127
53937,note_off,109,0,0,,5,,,77,127
53938,note_on,1,0,0,,4,,,76,127
54047,note_off,109,0,0,,4,,,76,127
54047,note_off,0,0,0,,4,,,64,127
54047,note_off,0,0,0,,0,,,60,127
54048,note_on,1,0,0,,2,,,50,127
54048,note_on,0,0,0,,2,,,62,127
54048,note_on,0,0,0,,5,,,77,127
54157,note_off,109,0,0,,5,,,77,127
54158,note_on,1,0,0,,7,,,79,127
54267,note_off,109,0,0,,7,,,79,127
54268,note_on,1,0,0,,10,,,81,127
54377,note_off,109,0,0,,10,,,81,127
54378,note_on,1,0,0,,7,,,79,127
54487,note_off,109,0,0,,7,,,79,127
54487,note_off,0,0,0,,2,,,62,127
54487,note_off,0,0,0,,2,,,50,127
54488,note_on,1,0,0,,2,,,62,127
54488,note_on,0,0,0,,2,,,50,127
54488,note_on,0,0,0,,5,,,77,127
54597,note_off,109,0,0,,5,,,77,127
54598,note_on,1,0,0,,4,,,76,127
54707,note_off,109,0,0,,4,,,76,127
54708,note_on,1,0,0,,2,,,74,127
54817,note_off,109,0,0,,2,,,74,127
54818,note_on,1,0,0,,0,,,72,127
54927,note_off,109,0,0,,0,,,72,127
54927,note_off,0,0,0,,2,,,50,127
54927,note_off,0,0,0,,2,,,62,127
54928,note_on,1,0,0,,2,,,62,127
54928,note_on,0,0,0,,2,,,50,127
54928,note_on,0,0,0,,12,,,71,127
55037,note_off,109,0,0,,12,,,71,127
55038,note_on,1,0,0,,10,,,69,127
55147,note_off,109,0,0,,10,,,69,127
55148,note_on,1,0,0,,8,,,68,127
55257,note_off,109,0,0,,8,,,68,127
55258,note_on,1,0,0,,6,,,66,127
55367,note_off,109,0,0,,6,,,66,127
55367,note_off,0,0,0,,2,,,50,127
55367,note_off,0,0,0,,2,,,62,127
55368,note_on,1,0,0,,4,,,40,127
55368,note_on,0,0,0,,4,,,64,127
55478,note_on,110,0,0,,4,,,76,127
55587,note_off,109,0,0,,4,,,76,127
55588,note_on,1,0,0,,2,,,74,127
55697,note_off,109,0,0,,2,,,74,127
55698,note_on,1,0,0,,1,,,73,127
55807,note_off,109,0,0,,1,,,73,127
55807,note_off,0,0,0,,4,,,64,127
55808,note_on,1,0,0,,12,,,71,127
55917,note_off,109,0,0,,12,,,71,127
55918,note_on,1,0,0,,10,,,69,127
56027,note_off,109,0,0,,10,,,69,127
56028,note_on,1,0,0,,8,,,68,127
56137,note_off,109,0,0,,8,,,68,127
56138,note_on,1,0,0,,6,,,66,127
56247,note_off,109,0,0,,6,,,66,127
56248,note_on,1,0,0,,4,,,64,127
56357,note_off,109,0,0,,4,,,64,127
56358,note_on,1,0,0,,2,,,62,127
56467,note_off,109,0,0,,2,,,62,127
56468,note_on,1,0,0,,1,,,61,127
56577,note_off,109,0,0,,1,,,61,127
56578,note_on,1,0,0,,12,,,59,127
56687,note_off,109,0,0,,12,,,59,127
56687,note_off,0,0,0,,4,,,40,127
56688,note_on,1,0,0,,3,,,63,127
56797,note_off,109,0,0,,3,,,63,127
56798,note_on,1,0,0,,4,,,64,127
56907,note_off,109,0,0,,4,,,64,127
56908,note_on,1,0,0,,12,,,59,127
57017,note_off,109,0,0,,12,,,59,127
57018,note_on,1,0,0,,1,,,61,127
57127,note_off,109,0,0,,1,,,61,127
57128,note_on,1,0,0,,8,,,56,127
57237,note_off,109,0,0,,8,,,56,127
57238,note_on,1,0,0,,10,,,57,127
57347,note_off,109,0,0,,10,,,57,127
57348,note_on,1,0,0,,3,,,51,127
57457,note_off,109,0,0,,3,,,51,127
57458,note_on,1,0,0,,4,,,52,127
57567,note_off,109,0,0,,4,,,52,127
57568,note_on,1,0,0,,12,,,47,127
57677,note_off,109,0,0,,12,,,47,127
57678,note_on,1,0,0,,1,,,49,127
57787,note_off,109,0,0,,1,,,49,127
57788,note_on,1,0,0,,8,,,44,127
57897,note_off,109,0,0,,8,,,44,127
57898,note_on,1,0,0,,10,,,45,127
58007,note_off,109,0,0,,10,,,45,127
58008,note_on,1,0,0,,4,,,40,127
58227,note_on,219,0,0,,4,,,76,127
58445,note_off,218,0,0,,4,,,76,127
58446,note_on,1,0,0,,4,,,52,127
58446,note_on,0,0,0,,8,,,68,127
58664,note_off,218,0,0,,8,,,68,127
58665,note_on,1,0,0,,10,,,69,127
58883,note_off,218,0,0,,10,,,69,127
58883,note_off,0,0,0,,4,,,40,127
58884,note_on,1,0,0,,4,,,40,127
58884,note_on,0,0,0,,12,,,71,127
59102,note_off,218,0,0,,12,,,71,127
59103,note_on,1,0,0,,1,,,73,127
59321,note_off,218,0,0,,1,,,73,127
59321,note_off,0,0,0,,4,,,40,127
59321,note_off,0,0,0,,4,,,52,127
59322,note_on,1,0,0,,2,,,38,127
59541,note_on,219,0,0,,6,,,78,127
59759,note_off,218,0,0,,6,,,78,127
59760,note_on,1,0,0,,2,,,50,127
59760,note_on,0,0,0,,12,,,71,127
59978,note_off,218,0,0,,12,,,71,127
59979,note_on,1,0,0,,1,,,73,127
60197,note_off,218,0,0,,1,,,73,127
60197,note_off,0,0,0,,2,,,38,127
60198,note_on,1,0,0,,2,,,38,127
60198,note_on,0,0,0,,2,,,74,127
60416,note_off,218,0,0,,2,,,74,127
60417,note_on,1,0,0,,8,,,80,127
60635,note_off,218,0,0,,8,,,80,127
60635,note_off,0,0,0,,2,,,38,127
60635,note_off,0,0,0,,2,,,50,127
60636,note_on,1,0,0,,1,,,37,127
60855,note_on,219,0,0,,10,,,81,127
61073,note_off,218,0,0,,10,,,81,127
61074,note_on,1,0,0,,1,,,73,127
61292,note_off,218,0,0,,1,,,73,127
61293,note_on,1,0,0,,2,,,74,127
61511,note_off,218,0,0,,2,,,74,127
61511,note_off,0,0,0,,1,,,37,127
61512,note_on,1,0,0,,1,,,49,127
61512,note_on,0,0,0,,4,,,76,127
61730,note_off,218,0,0,,4,,,76,127
61731,note_on,1,0,0,,6,,,78,127
61949,note_off,218,0,0,,6,,,78,127
61949,note_off,0,0,0,,1,,,49,127
61950,note_on,1,0,0,,2,,,50,127
61950,note_on,0,0,0,,4,,,76,127
62059,note_off,109,0,0,,4,,,76,127
62060,note_on,1,0,0,,2,,,74,127
62169,note_off,109,0,0,,2,,,74,127
62170,note_on,1,0,0,,1,,,73,127
62279,note_off,109,0,0,,1,,,73,127
62280,note_on,1,0,0,,12,,,71,127
62389,note_off,109,0,0,,12,,,71,127
62389,note_off,0,0,0,,2,,,50,127
62390,note_on,1,0,0,,4,,,52,127
62390,note_on,0,0,0,,10,,,69,127
62829,note_on,439,0,0,,4,,,40,127
62939,note_off,110,0,0,,10,,,69,127
62939,note_on,0,0,0,,8,,,68,127
63048,note_off,109,0,0,,8,,,68,127
63049,note_on,1,0,0,,6,,,66,127
63158,note_off,109,0,0,,6,,,66,127
63159,note_on,1,0,0,,8,,,68,127
63268,note_off,109,0,0,,8,,,68,127
63268,note_off,0,0,0,,4,,,40,127
63268,note_off,0,0,0,,4,,,52,127
63269,note_on,1,0,0,,10,,,45,127
63269,note_on,0,0,0,,10,,,57,127
63269,note_on,0,0,0,,10,,,69,127
63487,note_off,218,0,0,,10,,,69,127
63488,note_on,1,0,0,,8,,,80,127
63706,note_off,218,0,0,,8,,,80,127
63706,note_off,0,0,0,,10,,,57,127
63706,note_off,0,0,0,,10,,,45,127
63707,note_on,1,0,0,,12,,,47,127
63707,note_on,0,0,0,,12,,,59,127
63707,note_on,0,0,0,,10,,,81,127
63925,note_off,218,0,0,,10,,,81,127
63926,note_on,1,0,0,,1,,,73,127
64144,note_off,218,0,0,,1,,,73,127
64144,note_off,0,0,0,,12,,,59,127
64144,note_off,0,0,0,,12,,,47,127
64145,note_on,1,0,0,,1,,,49,127
64145,note_on,0,0,0,,1,,,61,127
64145,note_on,0,0,0,,2,,,74,127
64363,note_off,218,0,0,,2,,,74,127
64364,note_on,1,0,0,,4,,,76,127
64582,note_off,218,0,0,,1,,,61,127
64582,note_off,0,0,0,,1,,,49,127
64583,note_on,1,0,0,,2,,,50,127
64583,note_on,0,0,0,,2,,,62,127
64752,note_off,169,0,0,,4,,,76,127
64802,note_on,50,0,0,,5,,,77,127
65020,note_off,218,0,0,,5,,,77,127
65020,note_off,0,0,0,,2,,,62,127
65020,note_off,0,0,0,,2,,,50,127
65021,note_on,1,0,0,,2,,,50,127
65021,note_on,0,0,0,,2,,,62,127
65021,note_on,0,0,0,,6,,,78,127
65239,note_off,218,0,0,,6,,,78,127
65240,note_on,1,0,0,,12,,,71,127
65458,note_off,218,0,0,,12,,,71,127
65458,note_off,0,0,0,,2,,,62,127
65458,note_off,0,0,0,,2,,,50,127
65459,note_on,1,0,0,,8,,,68,127
65459,note_on,0,0,0,,8,,,56,127
65459,note_on,0,0,0,,1,,,73,127
65677,note_off,218,0,0,,1,,,73,127
65678,note_on,1,0,0,,2,,,74,127
65896,note_off,218,0,0,,8,,,56,127
65896,note_off,0,0,0,,8,,,68,127
65897,note_on,1,0,0,,1,,,61,127
65897,note_on,0,0,0,,1,,,49,127
66066,note_off,169,0,0,,2,,,74,127
66116,note_on,50,0,0,,3,,,75,127
66334,note_off,218,0,0,,3,,,75,127
66334,note_off,0,0,0,,1,,,49,127
66334,note_off,0,0,0,,1,,,61,127
66335,note_on,1,0,0,,1,,,49,127
66335,note_on,0,0,0,,1,,,61,127
66335,note_on,0,0,0,,4,,,76,127
66553,note_off,218,0,0,,4,,,76,127
66554,note_on,1,0,0,,10,,,69,127
66772,note_off,218,0,0,,10,,,69,127
66772,note_off,0,0,0,,1,,,61,127
66772,note_off,0,0,0,,1,,,49,127
66773,note_on,1,0,0,,6,,,54,127
66773,note_on,0,0,0,,6,,,66,127
66773,note_on,0,0,0,,12,,,71,127
66991,note_off,218,0,0,,12,,,71,127
66992,note_on,1,0,0,,1,,,73,127
67210,note_off,218,0,0,,6,,,66,127
67210,note_off,0,0,0,,6,,,54,127
67211,note_on,1,0,0,,2,,,50,127
67211,note_on,0,0,0,,2,,,62,127
67211,note_on,0,0,0,,4,,,76,127
67429,note_off,218,0,0,,4,,,76,127
67429,note_off,0,0,0,,1,,,73,127
67430,note_on,1,0,0,,2,,,74,127
67430,note_on,0,0,0,,12,,,71,127
67648,note_off,218,0,0,,12,,,71,127
67648,note_off,0,0,0,,2,,,74,127
67648,note_off,0,0,0,,2,,,62,127
67648,note_off,0,0,0,,2,,,50,127
67649,note_on,1,0,0,,4,,,52,127
67649,note_on,0,0,0,,4,,,64,127
67649,note_on,0,0,0,,2,,,74,127
67649,note_on,0,0,0,,12,,,71,127
67867,note_off,218,0,0,,12,,,71,127
67867,note_off,0,0,0,,2,,,74,127
67868,note_on,1,0,0,,1,,,73,127
67868,note_on,0,0,0,,10,,,69,127
68086,note_off,218,0,0,,10,,,69,127
68086,note_off,0,0,0,,1,,,73,127
68086,note_off,0,0,0,,4,,,64,127
68086,note_off,0,0,0,,4,,,52,127
68087,note_on,1,0,0,,4,,,52,127
68087,note_on,0,0,0,,4,,,64,127
68087,note_on,0,0,0,,10,,,69,127
68087,note_on,0,0,0,,1,,,73,127
68305,note_off,218,0,0,,1,,,73,127
68305,note_off,0,0,0,,10,,,69,127
68306,note_on,1,0,0,,8,,,68,127
68306,note_on,0,0,0,,12,,,71,127
68524,note_off,218,0,0,,12,,,71,127
68524,note_off,0,0,0,,8,,,68,127
68524,note_off,0,0,0,,4,,,64,127
68524,note_off,0,0,0,,4,,,52,127
68525,note_on,1,0,0,,10,,,45,127
68525,note_on,0,0,0,,10,,,33,127
68525,note_on,0,0,0,,10,,,69,127
68743,note_off,218,0,0,,10,,,69,127
68744,note_on,1,0,0,,8,,,68,127
68962,note_off,218,0,0,,8,,,68,127
68962,note_off,0,0,0,,10,,,33,127
68962,note_off,0,0,0,,10,,,45,127
68963,note_on,1,0,0,,12,,,47,127
68963,note_on,0,0,0,,12,,,35,127
68963,note_on,0,0,0,,10,,,69,127
69181,note_off,218,0,0,,10,,,69,127
69182,note_on,1,0,0,,1,,,61,127
69400,note_off,218,0,0,,1,,,61,127
69400,note_off,0,0,0,,12,,,35,127
69400,note_off,0,0,0,,12,,,47,127
69401,note_on,1,0,0,,1,,,37,127
69401,note_on,0,0,0,,1,,,49,127
69401,note_on,0,0,0,,2,,,62,127
69619,note_off,218,0,0,,2,,,62,127
69620,note_on,1,0,0,,4,,,64,127
69838,note_off,218,0,0,,1,,,49,127
69838,note_off,0,0,0,,1,,,37,127
69839,note_on,1,0,0,,2,,,38,127
69839,note_on,0,0,0,,2,,,50,127
69997,note_off,158,0,0,,4,,,64,127
70059,note_on,62,0,0,,5,,,65,127
70277,note_off,218,0,0,,5,,,65,127
70277,note_off,0,0,0,,2,,,50,127
70277,note_off,0,0,0,,2,,,38,127
70278,note_on,1,0,0,,2,,,50,127
70278,note_on,0,0,0,,2,,,38,127
70278,note_on,0,0,0,,6,,,66,127
70496,note_off,218,0,0,,6,,,66,127
70497,note_on,1,0,0,,12,,,59,127
70715,note_off,218,0,0,,12,,,59,127
70715,note_off,0,0,0,,2,,,38,127
70715,note_off,0,0,0,,2,,,50,127
70716,note_on,1,0,0,,8,,,44,127
70716,note_on,0,0,0,,8,,,56,127
70716,note_on,0,0,0,,1,,,61,127
70934,note_off,218,0,0,,1,,,61,127
70935,note_on,1,0,0,,2,,,62,127
71153,note_off,218,0,0,,8,,,56,127
71153,note_off,0,0,0,,8,,,44,127
71154,note_on,1,0,0,,1,,,37,127
71154,note_on,0,0,0,,1,,,49,127
71312,note_off,158,0,0,,2,,,62,127
71374,note_on,62,0,0,,3,,,63,127
71592,note_off,218,0,0,,3,,,63,127
71592,note_off,0,0,0,,1,,,49,127
71592,note_off,0,0,0,,1,,,37,127
71593,note_on,1,0,0,,1,,,37,127
71593,note_on,0,0,0,,1,,,49,127
71593,note_on,0,0,0,,4,,,64,127
71811,note_off,218,0,0,,4,,,64,127
71812,note_on,1,0,0,,10,,,57,127
72030,note_off,218,0,0,,10,,,57,127
72030,note_off,0,0,0,,1,,,49,127
72030,note_off,0,0,0,,1,,,37,127
72031,note_on,1,0,0,,6,,,42,127
72031,note_on,0,0,0,,6,,,54,127
72031,note_on,0,0,0,,12,,,59,127
72249,note_off,218,0,0,,12,,,59,127
72250,note_on,1,0,0,,1,,,61,127
72468,note_off,218,0,0,,6,,,54,127
72468,note_off,0,0,0,,6,,,42,127
72469,note_on,1,0,0,,2,,,38,127
72469,note_on,0,0,0,,2,,,50,127
72469,note_on,0,0,0,,4,,,64,127
72687,note_off,218,0,0,,4,,,64,127
72687,note_off,0,0,0,,1,,,61,127
72688,note_on,1,0,0,,2,,,62,127
72688,note_on,0,0,0,,12,,,59,127
72906,note_off,218,0,0,,12,,,59,127
72906,note_off,0,0,0,,2,,,62,127
72906,note_off,0,0,0,,2,,,50,127
72906,note_off,0,0,0,,2,,,38,127
72907,note_on,1,0,0,,4,,,52,127
72907,note_on,0,0,0,,4,,,40,127
72907,note_on,0,0,0,,2,,,62,127
72907,note_on,0,0,0,,12,,,59,127
73125,note_off,218,0,0,,12,,,59,127
73125,note_off,0,0,0,,2,,,62,127
73126,note_on,1,0,0,,10,,,57,127
73126,note_on,0,0,0,,1,,,61,127
73344,note_off,218,0,0,,1,,,61,127
73344,note_off,0,0,0,,10,,,57,127
73344,note_off,0,0,0,,4,,,40,127
73344,note_off,0,0,0,,4,,,52,127
73345,note_on,1,0,0,,4,,,40,127
73345,note_on,0,0,0,,4,,,52,127
73345,note_on,0,0,0,,10,,,57,127
73345,note_on,0,0,0,,1,,,61,127
73563,note_off,218,0,0,,1,,,61,127
73563,note_off,0,0,0,,10,,,57,127
73564,note_on,1,0,0,,8,,,56,127
73564,note_on,0,0,0,,12,,,59,127
73782,note_off,218,0,0,,12,,,59,127
73782,note_off,0,0,0,,8,,,56,127
73782,note_off,0,0,0,,4,,,52,127
73782,note_off,0,0,0,,4,,,40,127
73783,note_on,1,0,0,,10,,,45,127
73783,note_on,0,0,0,,10,,,57,127
74002,note_on,219,0,0,,1,,,85,127
74220,note_off,218,0,0,,10,,,57,127
74220,note_off,0,0,0,,10,,,45,127
74221,note_on,1,0,0,,12,,,47,127
74221,note_on,0,0,0,,12,,,59,127
74330,note_off,109,0,0,,1,,,85,127
74331,note_on,1,0,0,,10,,,81,127
74440,note_off,109,0,0,,10,,,81,127
74441,note_on,1,0,0,,4,,,76,127
74550,note_off,109,0,0,,4,,,76,127
74551,note_on,1,0,0,,10,,,81,127
74660,note_off,109,0,0,,12,,,59,127
74660,note_off,0,0,0,,12,,,47,127
74661,note_on,1,0,0,,1,,,49,127
74661,note_on,0,0,0,,1,,,61,127
74770,note_off,109,0,0,,10,,,81,127
75099,note_off,329,0,0,,1,,,61,127
75099,note_off,0,0,0,,1,,,49,127
75100,note_on,1,0,0,,2,,,50,127
75100,note_on,0,0,0,,2,,,62,127
75100,note_on,0,0,0,,1,,,73,127
75100,note_on,0,0,0,,4,,,76,127
75318,note_off,218,0,0,,4,,,76,127
75318,note_off,0,0,0,,1,,,73,127
75319,note_on,1,0,0,,2,,,74,127
75319,note_on,0,0,0,,12,,,71,127
75537,note_off,218,0,0,,12,,,71,127
75537,note_off,0,0,0,,2,,,74,127
75537,note_off,0,0,0,,2,,,62,127
75537,note_off,0,0,0,,2,,,50,127
75538,note_on,1,0,0,,4,,,52,127
75538,note_on,0,0,0,,4,,,64,127
75538,note_on,0,0,0,,2,,,74,127
75538,note_on,0,0,0,,12,,,71,127
75756,note_off,218,0,0,,12,,,71,127
75756,note_off,0,0,0,,2,,,74,127
75757,note_on,1,0,0,,10,,,69,127
75757,note_on,0,0,0,,1,,,73,127
75975,note_off,218,0,0,,1,,,73,127
75975,note_off,0,0,0,,10,,,69,127
75975,note_off,0,0,0,,4,,,64,127
75975,note_off,0,0,0,,4,,,52,127
75976,note_on,1,0,0,,4,,,52,127
75976,note_on,0,0,0,,4,,,64,127
75976,note_on,0,0,0,,10,,,69,127
75976,note_on,0,0,0,,1,,,73,127
76194,note_off,218,0,0,,1,,,73,127
76194,note_off,0,0,0,,10,,,69,127
76195,note_on,1,0,0,,8,,,68,127
76195,note_on,0,0,0,,12,,,71,127
76413,note_off,218,0,0,,12,,,71,127
76413,note_off,0,0,0,,8,,,68,127
76413,note_off,0,0,0,,4,,,64,127
76413,note_off,0,0,0,,4,,,52,127
76414,note_on,1,0,0,,10,,,45,127
76414,note_on,0,0,0,,10,,,33,127
76633,note_on,219,0,0,,1,,,85,127
76851,note_off,218,0,0,,10,,,33,127
76851,note_off,0,0,0,,10,,,45,127
76852,note_on,1,0,0,,12,,,47,127
76852,note_on,0,0,0,,12,,,35,127
76961,note_off,109,0,0,,1,,,85,127
76962,note_on,1,0,0,,10,,,81,127
77071,note_off,109,0,0,,10,,,81,127
77072,note_on,1,0,0,,4,,,76,127
77181,note_off,109,0,0,,4,,,76,127
77182,note_on,1,0,0,,10,,,81,127
77291,note_off,109,0,0,,12,,,35,127
77291,note_off,0,0,0,,12,,,47,127
77292,note_on,1,0,0,,1,,,37,127
77292,note_on,0,0,0,,1,,,49,127
77401,note_off,109,0,0,,10,,,81,127
77730,note_off,329,0,0,,1,,,49,127
77730,note_off,0,0,0,,1,,,37,127
77731,note_on,1,0,0,,2,,,38,127
77731,note_on,0,0,0,,2,,,50,127
77731,note_on,0,0,0,,4,,,64,127
77731,note_on,0,0,0,,1,,,61,127
77949,note_off,218,0,0,,1,,,61,127
77949,note_off,0,0,0,,4,,,64,127
77950,note_on,1,0,0,,2,,,62,127
77950,note_on,0,0,0,,12,,,59,127
78168,note_off,218,0,0,,12,,,59,127
78168,note_off,0,0,0,,2,,,62,127
78168,note_off,0,0,0,,2,,,50,127
78168,note_off,0,0,0,,2,,,38,127
78169,note_on,1,0,0,,4,,,40,127
78169,note_on,0,0,0,,4,,,52,127
78169,note_on,0,0,0,,2,,,62,127
78169,note_on,0,0,0,,12,,,59,127
78387,note_off,218,0,0,,12,,,59,127
78387,note_off,0,0,0,,2,,,62,127
78388,note_on,1,0,0,,1,,,61,127
78388,note_on,0,0,0,,10,,,57,127
78606,note_off,218,0,0,,10,,,57,127
78606,note_off,0,0,0,,1,,,61,127
78606,note_off,0,0,0,,4,,,52,127
78606,note_off,0,0,0,,4,,,40,127
78607,note_on,1,0,0,,4,,,52,127
78607,note_on,0,0,0,,4,,,40,127
78607,note_on,0,0,0,,1,,,61,127
78607,note_on,0,0,0,,10,,,57,127
78825,note_off,218,0,0,,10,,,57,127
78825,note_off,0,0,0,,1,,,61,127
78826,note_on,1,0,0,,8,,,56,127
78826,note_on,0,0,0,,12,,,59,127
79044,note_off,218,0,0,,12,,,59,127
79044,note_off,0,0,0,,8,,,56,127
79044,note_off,0,0,0,,4,,,40,127
79044,note_off,0,0,0,,4,,,52,127
79045,note_on,1,0,0,,10,,,45,127
79045,note_on,0,0,0,,10,,,33,127
79045,note_on,0,0,0,,10,,,57,127
80245,note_off,1200,0,0,,10,,,33,127
80360,note_off,115,0,0,,10,,,57,127
80360,note_off,0,0,0,,10,,,45,127
80361,note_on,1,0,0,,8,,,68,127
80361,note_on,0,0,0,,8,,,80,127
80470,note_off,109,0,0,,8,,,68,127
80471,note_on,1,0,0,,10,,,69,127
80580,note_off,109,0,0,,10,,,69,127
80580,note_off,0,0,0,,8,,,80,127
80581,note_on,1,0,0,,4,,,64,127
80581,note_on,0,0,0,,10,,,81,127
80690,note_off,109,0,0,,4,,,64,127
80691,note_on,1,0,0,,6,,,66,127
80800,note_off,109,0,0,,6,,,66,127
80801,note_on,1,0,0,,1,,,61,127
80910,note_off,109,0,0,,1,,,61,127
80911,note_on,1,0,0,,2,,,62,127
81020,note_off,109,0,0,,2,,,62,127
81021,note_on,1,0,0,,8,,,56,127
81130,note_off,109,0,0,,8,,,56,127
81131,note_on,1,0,0,,10,,,57,127
81240,note_off,109,0,0,,10,,,57,127
81241,note_on,1,0,0,,4,,,52,127
81350,note_off,109,0,0,,4,,,52,127
81351,note_on,1,0,0,,6,,,54,127
81460,note_off,109,0,0,,6,,,54,127
81461,note_on,1,0,0,,1,,,49,127
81570,note_off,109,0,0,,1,,,49,127
81571,note_on,1,0,0,,2,,,50,127
81680,note_off,109,0,0,,2,,,50,127
81681,note_on,1,0,0,,10,,,45,127
81899,note_off,218,0,0,,10,,,81,127
81900,note_on,1,0,0,,10,,,81,127
82118,note_off,218,0,0,,10,,,81,127
82119,note_on,1,0,0,,10,,,69,127
82337,note_off,218,0,0,,10,,,69,127
82338,note_on,1,0,0,,12,,,71,127
82525,note_off,187,0,0,,10,,,45,127
82556,note_off,31,0,0,,12,,,71,127
82557,note_on,1,0,0,,6,,,54,127
82557,note_on,0,0,0,,10,,,81,127
82557,note_on,0,0,0,,1,,,73,127
82775,note_off,218,0,0,,1,,,73,127
82776,note_on,1,0,0,,3,,,75,127
82994,note_off,218,0,0,,3,,,75,127
82994,note_off,0,0,0,,6,,,54,127
82995,note_on,1,0,0,,7,,,55,127
82995,note_on,0,0,0,,4,,,76,127
83213,note_off,218,0,0,,4,,,76,127
83213,note_off,0,0,0,,10,,,81,127
83214,note_on,1,0,0,,12,,,71,127
83214,note_on,0,0,0,,7,,,79,127
83432,note_off,218,0,0,,12,,,71,127
83432,note_off,0,0,0,,7,,,55,127
83433,note_on,1,0,0,,10,,,57,127
83433,note_on,0,0,0,,0,,,72,127
83651,note_off,218,0,0,,0,,,72,127
83651,note_off,0,0,0,,7,,,79,127
83652,note_on,1,0,0,,6,,,78,127
83652,note_on,0,0,0,,10,,,81,127
83870,note_off,218,0,0,,10,,,81,127
83870,note_off,0,0,0,,6,,,78,127
83870,note_off,0,0,0,,10,,,57,127
83871,note_on,1,0,0,,12,,,59,127
83871,note_on,0,0,0,,7,,,79,127
83871,note_on,0,0,0,,4,,,76,127
84089,note_off,218,0,0,,4,,,76,127
84089,note_off,0,0,0,,7,,,79,127
84090,note_on,1,0,0,,6,,,78,127
84090,note_on,0,0,0,,3,,,75,127
84293,note_off,203,0,0,,12,,,59,127
84308,note_off,15,0,0,,3,,,75,127
84308,note_off,0,0,0,,6,,,78,127
84309,note_on,1,0,0,,3,,,63,127
84309,note_on,0,0,0,,3,,,75,127
84309,note_on,0,0,0,,6,,,78,127
84418,note_off,109,0,0,,3,,,63,127
84419,note_on,1,0,0,,4,,,64,127
84528,note_off,109,0,0,,4,,,64,127
84528,note_off,0,0,0,,6,,,78,127
84528,note_off,0,0,0,,3,,,75,127
84529,note_on,1,0,0,,12,,,59,127
84529,note_on,0,0,0,,7,,,79,127
84529,note_on,0,0,0,,4,,,76,127
84638,note_off,109,0,0,,12,,,59,127
84639,note_on,1,0,0,,0,,,60,127
84748,note_off,109,0,0,,0,,,60,127
84749,note_on,1,0,0,,7,,,55,127
84858,note_off,109,0,0,,7,,,55,127
84859,note_on,1,0,0,,10,,,57,127
84968,note_off,109,0,0,,10,,,57,127
84969,note_on,1,0,0,,3,,,51,127
85078,note_off,109,0,0,,3,,,51,127
85079,note_on,1,0,0,,4,,,52,127
85188,note_off,109,0,0,,4,,,52,127
85189,note_on,1,0,0,,12,,,47,127
85298,note_off,109,0,0,,12,,,47,127
85299,note_on,1,0,0,,0,,,48,127
85408,note_off,109,0,0,,0,,,48,127
85409,note_on,1,0,0,,7,,,43,127
85518,note_off,109,0,0,,7,,,43,127
85519,note_on,1,0,0,,10,,,45,127
85628,note_off,109,0,0,,10,,,45,127
85629,note_on,1,0,0,,4,,,40,127
85847,note_off,218,0,0,,4,,,76,127
85847,note_off,0,0,0,,7,,,79,127
85848,note_on,1,0,0,,7,,,79,127
86067,note_on,219,0,0,,7,,,67,127
86177,note_off,110,0,0,,7,,,79,127
86286,note_off,109,0,0,,7,,,67,127
86287,note_on,1,0,0,,10,,,69,127
86486,note_off,199,0,0,,4,,,40,127
86505,note_off,19,0,0,,10,,,69,127
86506,note_on,1,0,0,,4,,,52,127
86506,note_on,0,0,0,,12,,,71,127
86506,note_on,0,0,0,,7,,,79,127
86724,note_off,218,0,0,,12,,,71,127
86725,note_on,1,0,0,,1,,,73,127
86943,note_off,218,0,0,,1,,,73,127
86943,note_off,0,0,0,,4,,,52,127
86944,note_on,1,0,0,,6,,,54,127
86944,note_on,0,0,0,,2,,,74,127
87162,note_off,218,0,0,,2,,,74,127
87162,note_off,0,0,0,,7,,,79,127
87163,note_on,1,0,0,,6,,,78,127
87163,note_on,0,0,0,,10,,,69,127
87381,note_off,218,0,0,,10,,,69,127
87381,note_off,0,0,0,,6,,,78,127
87381,note_off,0,0,0,,6,,,54,127
87382,note_on,1,0,0,,7,,,55,127
87382,note_on,0,0,0,,12,,,71,127
87382,note_on,0,0,0,,10,,,81,127
87600,note_off,218,0,0,,10,,,81,127
87600,note_off,0,0,0,,12,,,71,127
87601,note_on,1,0,0,,7,,,79,127
87601,note_on,0,0,0,,4,,,76,127
87819,note_off,218,0,0,,4,,,76,127
87819,note_off,0,0,0,,7,,,79,127
87819,note_off,0,0,0,,7,,,55,127
87820,note_on,1,0,0,,10,,,57,127
87820,note_on,0,0,0,,6,,,78,127
87820,note_on,0,0,0,,2,,,74,127
88038,note_off,218,0,0,,2,,,74,127
88038,note_off,0,0,0,,6,,,78,127
88039,note_on,1,0,0,,4,,,76,127
88039,note_on,0,0,0,,1,,,73,127
88208,note_off,169,0,0,,10,,,57,127
88257,note_off,49,0,0,,1,,,73,127
88257,note_off,0,0,0,,4,,,76,127
88258,note_on,1,0,0,,1,,,61,127
88258,note_on,0,0,0,,4,,,76,127
88258,note_on,0,0,0,,1,,,73,127
88367,note_off,109,0,0,,1,,,61,127
88368,note_on,1,0,0,,2,,,62,127
88477,note_off,109,0,0,,2,,,62,127
88477,note_off,0,0,0,,1,,,73,127
88477,note_off,0,0,0,,4,,,76,127
88478,note_on,1,0,0,,10,,,57,127
88478,note_on,0,0,0,,6,,,78,127
88478,note_on,0,0,0,,2,,,74,127
88587,note_off,109,0,0,,10,,,57,127
88588,note_on,1,0,0,,12,,,59,127
88697,note_off,109,0,0,,12,,,59,127
88698,note_on,1,0,0,,6,,,54,127
88807,note_off,109,0,0,,6,,,54,127
88808,note_on,1,0,0,,7,,,55,127
88917,note_off,109,0,0,,7,,,55,127
88918,note_on,1,0,0,,1,,,49,127
89027,note_off,109,0,0,,1,,,49,127
89028,note_on,1,0,0,,2,,,50,127
89137,note_off,109,0,0,,2,,,50,127
89138,note_on,1,0,0,,10,,,45,127
89247,note_off,109,0,0,,10,,,45,127
89248,note_on,1,0,0,,12,,,47,127
89357,note_off,109,0,0,,12,,,47,127
89358,note_on,1,0,0,,6,,,42,127
89467,note_off,109,0,0,,6,,,42,127
89468,note_on,1,0,0,,7,,,43,127
89577,note_off,109,0,0,,7,,,43,127
89578,note_on,1,0,0,,2,,,38,127
89796,note_off,218,0,0,,2,,,74,127
89796,note_off,0,0,0,,6,,,78,127
89797,note_on,1,0,0,,6,,,78,127
90015,note_off,218,0,0,,6,,,78,127
90015,note_off,0,0,0,,2,,,38,127
90016,note_on,1,0,0,,6,,,42,127
90016,note_on,0,0,0,,10,,,69,127
90016,note_on,0,0,0,,10,,,81,127
90234,note_off,218,0,0,,10,,,81,127
90235,note_on,1,0,0,,7,,,79,127
90344,note_off,109,0,0,,7,,,79,127
90345,note_on,1,0,0,,6,,,78,127
90454,note_off,109,0,0,,6,,,78,127
90454,note_off,0,0,0,,10,,,69,127
90454,note_off,0,0,0,,6,,,42,127
90455,note_on,1,0,0,,7,,,43,127
90455,note_on,0,0,0,,12,,,71,127
90455,note_on,0,0,0,,4,,,76,127
90673,note_off,218,0,0,,4,,,76,127
90674,note_on,1,0,0,,2,,,74,127
90832,note_off,158,0,0,,12,,,71,127
90880,note_off,48,0,0,,2,,,74,127
90893,note_off,13,0,0,,7,,,43,127
90894,note_on,1,0,0,,10,,,45,127
90894,note_on,0,0,0,,8,,,80,127
91003,note_off,109,0,0,,8,,,80,127
91004,note_on,1,0,0,,10,,,81,127
91113,note_off,109,0,0,,10,,,81,127
91114,note_on,1,0,0,,4,,,76,127
91223,note_off,109,0,0,,4,,,76,127
91224,note_on,1,0,0,,6,,,78,127
91333,note_off,109,0,0,,6,,,78,127
91334,note_on,1,0,0,,1,,,73,127
91443,note_off,109,0,0,,1,,,73,127
91444,note_on,1,0,0,,2,,,74,127
91553,note_off,109,0,0,,2,,,74,127
91554,note_on,1,0,0,,8,,,68,127
91663,note_off,109,0,0,,8,,,68,127
91664,note_on,1,0,0,,10,,,69,127
91773,note_off,109,0,0,,10,,,69,127
91774,note_on,1,0,0,,4,,,64,127
91883,note_off,109,0,0,,4,,,64,127
91884,note_on,1,0,0,,6,,,66,127
91993,note_off,109,0,0,,6,,,66,127
91994,note_on,1,0,0,,1,,,61,127
92103,note_off,109,0,0,,1,,,61,127
92104,note_on,1,0,0,,2,,,62,127
92213,note_off,109,0,0,,2,,,62,127
92213,note_off,0,0,0,,10,,,45,127
92214,note_on,1,0,0,,8,,,56,127
92323,note_off,109,0,0,,8,,,56,127
92324,note_on,1,0,0,,10,,,57,127
92433,note_off,109,0,0,,10,,,57,127
92434,note_on,1,0,0,,4,,,52,127
92543,note_off,109,0,0,,4,,,52,127
92544,note_on,1,0,0,,6,,,54,127
92653,note_off,109,0,0,,6,,,54,127
92654,note_on,1,0,0,,1,,,49,127
92763,note_off,109,0,0,,1,,,49,127
92764,note_on,1,0,0,,2,,,50,127
92873,note_off,109,0,0,,2,,,50,127
92874,note_on,1,0,0,,8,,,44,127
92983,note_off,109,0,0,,8,,,44,127
92984,note_on,1,0,0,,10,,,45,127
93094,note_on,110,0,0,,10,,,33,127
94580,note_off,1486,0,0,,10,,,33,127
94585,note_off,5,0,0,,10,,,45,127
94850,note_on,265,0,0,,2,,,62,127
94850,note_on,0,0,0,,5,,,65,127
95069,note_on,219,0,0,,10,,,69,127
95287,note_off,218,0,0,,10,,,69,127
95287,note_off,0,0,0,,5,,,65,127
95287,note_off,0,0,0,,2,,,62,127
95288,note_on,1,0,0,,2,,,62,127
95288,note_on,0,0,0,,5,,,65,127
95288,note_on,0,0,0,,11,,,70,127
95506,note_off,218,0,0,,11,,,70,127
95507,note_on,1,0,0,,10,,,69,127
95725,note_off,218,0,0,,10,,,69,127
95725,note_off,0,0,0,,5,,,65,127
95725,note_off,0,0,0,,2,,,62,127
95726,note_on,1,0,0,,2,,,62,127
95726,note_on,0,0,0,,5,,,65,127
95726,note_on,0,0,0,,2,,,74,127
95944,note_off,218,0,0,,2,,,74,127
95945,note_on,1,0,0,,1,,,73,127
96163,note_off,218,0,0,,1,,,73,127
96163,note_off,0,0,0,,5,,,65,127
96163,note_off,0,0,0,,2,,,62,127
96164,note_on,1,0,0,,7,,,67,127
96164,note_on,0,0,0,,4,,,64,127
96164,note_on,0,0,0,,10,,,81,127
96364,note_off,200,0,0,,10,,,81,127
96383,note_on,19,0,0,,7,,,79,127
96601,note_off,218,0,0,,4,,,64,127
96601,note_off,0,0,0,,7,,,67,127
96602,note_on,1,0,0,,7,,,67,127
96602,note_on,0,0,0,,4,,,64,127
96820,note_off,218,0,0,,7,,,79,127
96821,note_on,1,0,0,,5,,,77,127
96930,note_off,109,0,0,,5,,,77,127
96931,note_on,1,0,0,,4,,,76,127
97040,note_off,109,0,0,,4,,,76,127
97040,note_off,0,0,0,,4,,,64,127
97040,note_off,0,0,0,,7,,,67,127
97041,note_on,1,0,0,,10,,,69,127
97041,note_on,0,0,0,,5,,,65,127
97041,note_on,0,0,0,,2,,,74,127
97479,note_off,438,0,0,,5,,,65,127
97479,note_off,0,0,0,,10,,,69,127
97480,note_on,1,0,0,,5,,,65,127
97480,note_on,0,0,0,,2,,,62,127
97481,note_off,1,0,0,,2,,,74,127
97699,note_on,218,0,0,,10,,,69,127
97917,note_off,218,0,0,,10,,,69,127
97917,note_off,0,0,0,,2,,,62,127
97917,note_off,0,0,0,,5,,,65,127
97918,note_on,1,0,0,,5,,,65,127
97918,note_on,0,0,0,,2,,,62,127
97918,note_on,0,0,0,,11,,,70,127
98136,note_off,218,0,0,,11,,,70,127
98137,note_on,1,0,0,,10,,,69,127
98355,note_off,218,0,0,,10,,,69,127
98355,note_off,0,0,0,,2,,,62,127
98355,note_off,0,0,0,,5,,,65,127
98356,note_on,1,0,0,,2,,,62,127
98356,note_on,0,0,0,,5,,,65,127
98356,note_on,0,0,0,,2,,,74,127
98574,note_off,218,0,0,,2,,,74,127
98575,note_on,1,0,0,,1,,,73,127
98793,note_off,218,0,0,,1,,,73,127
98793,note_off,0,0,0,,5,,,65,127
98793,note_off,0,0,0,,2,,,62,127
98794,note_on,1,0,0,,7,,,67,127
98794,note_on,0,0,0,,4,,,64,127
98794,note_on,0,0,0,,10,,,81,127
98994,note_off,200,0,0,,10,,,81,127
99013,note_on,19,0,0,,7,,,79,127
99231,note_off,218,0,0,,4,,,64,127
99231,note_off,0,0,0,,7,,,67,127
99232,note_on,1,0,0,,7,,,67,127
99232,note_on,0,0,0,,4,,,64,127
99450,note_off,218,0,0,,7,,,79,127
99451,note_on,1,0,0,,5,,,77,127
99560,note_off,109,0,0,,5,,,77,127
99561,note_on,1,0,0,,4,,,76,127
99670,note_off,109,0,0,,4,,,76,127
99670,note_off,0,0,0,,4,,,64,127
99670,note_off,0,0,0,,7,,,67,127
99671,note_on,1,0,0,,6,,,66,127
99671,note_on,0,0,0,,10,,,69,127
99671,note_on,0,0,0,,2,,,74,127
100109,note_off,438,0,0,,10,,,69,127
100109,note_off,0,0,0,,6,,,66,127
100110,note_on,1,0,0,,7,,,67,127
100110,note_on,0,0,0,,11,,,70,127
100328,note_off,218,0,0,,2,,,74,127
100329,note_on,1,0,0,,2,,,74,127
100547,note_off,218,0,0,,2,,,74,127
100547,note_off,0,0,0,,11,,,70,127
100547,note_off,0,0,0,,7,,,67,127
100548,note_on,1,0,0,,11,,,70,127
100548,note_on,0,0,0,,7,,,67,127
100548,note_on,0,0,0,,3,,,75,127
100766,note_off,218,0,0,,3,,,75,127
100767,note_on,1,0,0,,2,,,74,127
100985,note_off,218,0,0,,2,,,74,127
100985,note_off,0,0,0,,7,,,67,127
100985,note_off,0,0,0,,11,,,70,127
100986,note_on,1,0,0,,11,,,70,127
100986,note_on,0,0,0,,7,,,67,127
100986,note_on,0,0,0,,7,,,79,127
101204,note_off,218,0,0,,7,,,79,127
101205,note_on,1,0,0,,6,,,78,127
101423,note_off,218,0,0,,6,,,78,127
101423,note_off,0,0,0,,7,,,67,127
101423,note_off,0,0,0,,11,,,70,127
101424,note_on,1,0,0,,10,,,69,127
101424,note_on,0,0,0,,0,,,72,127
101424,note_on,0,0,0,,2,,,86,127
101624,note_off,200,0,0,,2,,,86,127
101643,note_on,19,0,0,,0,,,84,127
101861,note_off,218,0,0,,0,,,72,127
101861,note_off,0,0,0,,10,,,69,127
101862,note_on,1,0,0,,0,,,72,127
101862,note_on,0,0,0,,10,,,69,127
102080,note_off,218,0,0,,0,,,84,127
102081,note_on,1,0,0,,11,,,82,127
102190,note_off,109,0,0,,11,,,82,127
102191,note_on,1,0,0,,10,,,81,127
102300,note_off,109,0,0,,10,,,81,127
102300,note_off,0,0,0,,10,,,69,127
102300,note_off,0,0,0,,0,,,72,127
102301,note_on,1,0,0,,11,,,70,127
102301,note_on,0,0,0,,2,,,74,127
102301,note_on,0,0,0,,7,,,79,127
102739,note_off,438,0,0,,2,,,74,127
102739,note_off,0,0,0,,11,,,70,127
102740,note_on,1,0,0,,11,,,70,127
102740,note_on,0,0,0,,7,,,67,127
102741,note_off,1,0,0,,7,,,79,127
102959,note_on,218,0,0,,2,,,74,127
103177,note_off,218,0,0,,2,,,74,127
103177,note_off,0,0,0,,7,,,67,127
103177,note_off,0,0,0,,11,,,70,127
103178,note_on,1,0,0,,7,,,67,127
103178,note_on,0,0,0,,11,,,70,127
103178,note_on,0,0,0,,3,,,75,127
103396,note_off,218,0,0,,3,,,75,127
103397,note_on,1,0,0,,2,,,74,127
103615,note_off,218,0,0,,2,,,74,127
103615,note_off,0,0,0,,11,,,70,127
103615,note_off,0,0,0,,7,,,67,127
103616,note_on,1,0,0,,11,,,70,127
103616,note_on,0,0,0,,7,,,67,127
103616,note_on,0,0,0,,7,,,79,127
103834,note_off,218,0,0,,7,,,79,127
103835,note_on,1,0,0,,6,,,78,127
104053,note_off,218,0,0,,6,,,78,127
104053,note_off,0,0,0,,7,,,67,127
104053,note_off,0,0,0,,11,,,70,127
104054,note_on,1,0,0,,0,,,72,127
104054,note_on,0,0,0,,10,,,69,127
104054,note_on,0,0,0,,2,,,86,127
104254,note_off,200,0,0,,2,,,86,127
104273,note_on,19,0,0,,0,,,84,127
104491,note_off,218,0,0,,10,,,69,127
104491,note_off,0,0,0,,0,,,72,127
104492,note_on,1,0,0,,0,,,72,127
104492,note_on,0,0,0,,10,,,69,127
104710,note_off,218,0,0,,0,,,84,127
104711,note_on,1,0,0,,11,,,82,127
104820,note_off,109,0,0,,11,,,82,127
104821,note_on,1,0,0,,10,,,81,127
104930,note_off,109,0,0,,10,,,81,127
104930,note_off,0,0,0,,10,,,69,127
104930,note_off,0,0,0,,0,,,72,127
104931,note_on,1,0,0,,2,,,74,127
104931,note_on,0,0,0,,11,,,70,127
104931,note_on,0,0,0,,7,,,79,127
105369,note_off,438,0,0,,11,,,70,127
105369,note_off,0,0,0,,2,,,74,127
105370,note_on,1,0,0,,11,,,70,127
105370,note_on,0,0,0,,2,,,74,127
105588,note_off,218,0,0,,7,,,79,127
105589,note_on,1,0,0,,7,,,91,127
105589,note_on,0,0,0,,7,,,79,127
105807,note_off,218,0,0,,2,,,74,127
105807,note_off,0,0,0,,11,,,70,127
105808,note_on,1,0,0,,11,,,70,127
105808,note_on,0,0,0,,2,,,74,127
106026,note_off,218,0,0,,7,,,91,127
106027,note_on,1,0,0,,5,,,89,127
106136,note_off,109,0,0,,5,,,89,127
106137,note_on,1,0,0,,4,,,88,127
106246,note_off,109,0,0,,4,,,88,127
106246,note_off,0,0,0,,2,,,74,127
106246,note_off,0,0,0,,11,,,70,127
106247,note_on,1,0,0,,11,,,70,127
106247,note_on,0,0,0,,2,,,74,127
106247,note_on,0,0,0,,2,,,86,127
106465,note_off,218,0,0,,2,,,86,127
106465,note_off,0,0,0,,7,,,79,127
106466,note_on,1,0,0,,4,,,88,127
106684,note_off,218,0,0,,4,,,88,127
106684,note_off,0,0,0,,2,,,74,127
106684,note_off,0,0,0,,11,,,70,127
106685,note_on,1,0,0,,10,,,69,127
106685,note_on,0,0,0,,2,,,74,127
106904,note_on,219,0,0,,5,,,89,127
106904,note_on,0,0,0,,5,,,77,127
107122,note_off,218,0,0,,2,,,74,127
107122,note_off,0,0,0,,10,,,69,127
107123,note_on,1,0,0,,10,,,69,127
107123,note_on,0,0,0,,2,,,74,127
107341,note_off,218,0,0,,5,,,89,127
107342,note_on,1,0,0,,4,,,88,127
107451,note_off,109,0,0,,4,,,88,127
107452,note_on,1,0,0,,2,,,86,127
107561,note_off,109,0,0,,2,,,86,127
107561,note_off,0,0,0,,2,,,74,127
107561,note_off,0,0,0,,10,,,69,127
107562,note_on,1,0,0,,10,,,69,127
107562,note_on,0,0,0,,2,,,74,127
107562,note_on,0,0,0,,1,,,85,127
107780,note_off,218,0,0,,1,,,85,127
107780,note_off,0,0,0,,5,,,77,127
107781,note_on,1,0,0,,2,,,86,127
107999,note_off,218,0,0,,2,,,86,127
107999,note_off,0,0,0,,2,,,74,127
107999,note_off,0,0,0,,10,,,69,127
108000,note_on,1,0,0,,1,,,73,127
108000,note_on,0,0,0,,7,,,67,127
108219,note_on,219,0,0,,4,,,88,127
108219,note_on,0,0,0,,4,,,76,127
108437,note_off,218,0,0,,7,,,67,127
108437,note_off,0,0,0,,1,,,73,127
108438,note_on,1,0,0,,1,,,73,127
108438,note_on,0,0,0,,7,,,67,127
108656,note_off,218,0,0,,4,,,88,127
108657,note_on,1,0,0,,2,,,86,127
108766,note_off,109,0,0,,2,,,86,127
108767,note_on,1,0,0,,1,,,85,127
108876,note_off,109,0,0,,1,,,85,127
108876,note_off,0,0,0,,7,,,67,127
108876,note_off,0,0,0,,1,,,73,127
108877,note_on,1,0,0,,1,,,73,127
108877,note_on,0,0,0,,7,,,67,127
108877,note_on,0,0,0,,12,,,83,127
109095,note_off,218,0,0,,12,,,83,127
109095,note_off,0,0,0,,4,,,76,127
109096,note_on,1,0,0,,1,,,85,127
109314,note_off,218,0,0,,1,,,85,127
109314,note_off,0,0,0,,7,,,67,127
109314,note_off,0,0,0,,1,,,73,127
109315,note_on,1,0,0,,5,,,65,127
109315,note_on,0,0,0,,10,,,69,127
109534,note_on,219,0,0,,2,,,86,127
109534,note_on,0,0,0,,2,,,74,127
109752,note_off,218,0,0,,10,,,69,127
109752,note_off,0,0,0,,5,,,65,127
109753,note_on,1,0,0,,10,,,69,127
109753,note_on,0,0,0,,5,,,65,127
109862,note_off,109,0,0,,2,,,86,127
109863,note_on,1,0,0,,0,,,84,127
109972,note_off,109,0,0,,0,,,84,127
109973,note_on,1,0,0,,11,,,82,127
110082,note_off,109,0,0,,11,,,82,127
110083,note_on,1,0,0,,10,,,81,127
110192,note_off,109,0,0,,10,,,81,127
110192,note_off,0,0,0,,5,,,65,127
110192,note_off,0,0,0,,10,,,69,127
110193,note_on,1,0,0,,10,,,69,127
110193,note_on,0,0,0,,5,,,65,127
110193,note_on,0,0,0,,2,,,86,127
110302,note_off,109,0,0,,2,,,86,127
110303,note_on,1,0,0,,0,,,84,127
110412,note_off,109,0,0,,0,,,84,127
110412,note_off,0,0,0,,2,,,74,127
110413,note_on,1,0,0,,11,,,82,127
110522,note_off,109,0,0,,11,,,82,127
110523,note_on,1,0,0,,10,,,81,127
110632,note_off,109,0,0,,10,,,81,127
110632,note_off,0,0,0,,5,,,65,127
110632,note_off,0,0,0,,10,,,69,127
110633,note_on,1,0,0,,11,,,70,127
110633,note_on,0,0,0,,7,,,67,127
110633,note_on,0,0,0,,11,,,82,127
110742,note_off,109,0,0,,11,,,82,127
110743,note_on,1,0,0,,0,,,84,127
110852,note_off,109,0,0,,0,,,84,127
110853,note_on,1,0,0,,2,,,86,127
110962,note_off,109,0,0,,2,,,86,127
110963,note_on,1,0,0,,0,,,84,127
111072,note_off,109,0,0,,0,,,84,127
111072,note_off,0,0,0,,7,,,67,127
111072,note_off,0,0,0,,11,,,70,127
111073,note_on,1,0,0,,11,,,70,127
111073,note_on,0,0,0,,7,,,67,127
111073,note_on,0,0,0,,11,,,82,127
111182,note_off,109,0,0,,11,,,82,127
111183,note_on,1,0,0,,10,,,81,127
111292,note_off,109,0,0,,10,,,81,127
111293,note_on,1,0,0,,7,,,79,127
111402,note_off,109,0,0,,7,,,79,127
111403,note_on,1,0,0,,5,,,77,127
111512,note_off,109,0,0,,5,,,77,127
111512,note_off,0,0,0,,7,,,67,127
111512,note_off,0,0,0,,11,,,70,127
111513,note_on,1,0,0,,7,,,55,127
111513,note_on,0,0,0,,4,,,76,127
111622,note_off,109,0,0,,4,,,76,127
111623,note_on,1,0,0,,2,,,74,127
111732,note_off,109,0,0,,2,,,74,127
111733,note_on,1,0,0,,1,,,73,127
111842,note_off,109,0,0,,1,,,73,127
111843,note_on,1,0,0,,2,,,74,127
111902,note_off,59,0,0,,7,,,55,127
111951,note_off,49,0,0,,2,,,74,127
111952,note_on,1,0,0,,10,,,45,127
111952,note_on,0,0,0,,8,,,80,127
112061,note_off,109,0,0,,8,,,80,127
112062,note_on,1,0,0,,10,,,81,127
112171,note_off,109,0,0,,10,,,81,127
112172,note_on,1,0,0,,4,,,76,127
112281,note_off,109,0,0,,4,,,76,127
112282,note_on,1,0,0,,6,,,78,127
112391,note_off,109,0,0,,6,,,78,127
112392,note_on,1,0,0,,1,,,73,127
112501,note_off,109,0,0,,1,,,73,127
112502,note_on,1,0,0,,2,,,74,127
112611,note_off,109,0,0,,2,,,74,127
112612,note_on,1,0,0,,8,,,68,127
112721,note_off,109,0,0,,8,,,68,127
112722,note_on,1,0,0,,10,,,69,127
112831,note_off,109,0,0,,10,,,69,127
112832,note_on,1,0,0,,4,,,64,127
112941,note_off,109,0,0,,4,,,64,127
112942,note_on,1,0,0,,6,,,66,127
113051,note_off,109,0,0,,6,,,66,127
113052,note_on,1,0,0,,1,,,61,127
113161,note_off,109,0,0,,1,,,61,127
113162,note_on,1,0,0,,2,,,62,127
113271,note_off,109,0,0,,2,,,62,127
113271,note_off,0,0,0,,10,,,45,127
113272,note_on,1,0,0,,8,,,56,127
113381,note_off,109,0,0,,8,,,56,127
113382,note_on,1,0,0,,10,,,57,127
113491,note_off,109,0,0,,10,,,57,127
113492,note_on,1,0,0,,4,,,52,127
113601,note_off,109,0,0,,4,,,52,127
113602,note_on,1,0,0,,6,,,54,127
113711,note_off,109,0,0,,6,,,54,127
113712,note_on,1,0,0,,1,,,49,127
113821,note_off,109,0,0,,1,,,49,127
113822,note_on,1,0,0,,2,,,50,127
113931,note_off,109,0,0,,2,,,50,127
113932,note_on,1,0,0,,8,,,44,127
114041,note_off,109,0,0,,8,,,44,127
114042,note_on,1,0,0,,10,,,45,127
114152,note_on,110,0,0,,10,,,33,127
115523,note_off,1371,0,0,,10,,,33,127
115528,note_off,5,0,0,,10,,,45,127
115907,note_on,379,0,0,,5,,,41,127
116126,note_on,219,0,0,,5,,,65,127
116344,note_off,218,0,0,,5,,,65,127
116344,note_off,0,0,0,,5,,,41,127
116345,note_on,1,0,0,,5,,,41,127
116345,note_on,0,0,0,,7,,,67,127
116563,note_off,218,0,0,,7,,,67,127
116564,note_on,1,0,0,,5,,,65,127
116782,note_off,218,0,0,,5,,,65,127
116782,note_off,0,0,0,,5,,,41,127
116783,note_on,1,0,0,,5,,,41,127
116783,note_on,0,0,0,,11,,,70,127
117001,note_off,218,0,0,,11,,,70,127
117002,note_on,1,0,0,,10,,,69,127
117220,note_off,218,0,0,,10,,,69,127
117220,note_off,0,0,0,,5,,,41,127
117221,note_on,1,0,0,,5,,,41,127
117221,note_on,0,0,0,,2,,,74,127
117439,note_off,218,0,0,,2,,,74,127
117440,note_on,1,0,0,,4,,,76,127
117658,note_off,218,0,0,,5,,,41,127
117659,note_on,1,0,0,,5,,,41,127
117659,note_on,0,0,0,,7,,,67,127
117877,note_off,218,0,0,,4,,,76,127
117878,note_on,1,0,0,,5,,,77,127
117987,note_off,109,0,0,,5,,,77,127
117988,note_on,1,0,0,,2,,,74,127
118097,note_off,109,0,0,,2,,,74,127
118097,note_off,0,0,0,,7,,,67,127
118097,note_off,0,0,0,,5,,,41,127
118098,note_on,1,0,0,,5,,,41,127
118098,note_on,0,0,0,,0,,,72,127
118098,note_on,0,0,0,,10,,,69,127
118316,note_off,218,0,0,,10,,,69,127
118316,note_off,0,0,0,,0,,,72,127
118317,note_on,1,0,0,,11,,,70,127
118317,note_on,0,0,0,,7,,,67,127
118535,note_off,218,0,0,,7,,,67,127
118535,note_off,0,0,0,,11,,,70,127
118535,note_off,0,0,0,,5,,,41,127
118536,note_on,1,0,0,,5,,,41,127
118536,note_on,0,0,0,,10,,,69,127
118536,note_on,0,0,0,,5,,,65,127
118754,note_off,218,0,0,,5,,,65,127
118754,note_off,0,0,0,,10,,,69,127
118755,note_on,1,0,0,,7,,,67,127
118755,note_on,0,0,0,,4,,,64,127
118973,note_off,218,0,0,,4,,,64,127
118973,note_off,0,0,0,,7,,,67,127
118973,note_off,0,0,0,,5,,,41,127
118974,note_on,1,0,0,,5,,,41,127
118974,note_on,0,0,0,,5,,,65,127
118974,note_on,0,0,0,,2,,,62,127
119192,note_off,218,0,0,,2,,,62,127
119192,note_off,0,0,0,,5,,,65,127
119193,note_on,1,0,0,,4,,,64,127
119193,note_on,0,0,0,,0,,,60,127
119411,note_off,218,0,0,,0,,,60,127
119411,note_off,0,0,0,,4,,,64,127
119411,note_off,0,0,0,,5,,,41,127
119412,note_on,1,0,0,,5,,,41,127
119412,note_on,0,0,0,,2,,,62,127
119412,note_on,0,0,0,,12,,,59,127
119630,note_off,218,0,0,,12,,,59,127
119630,note_off,0,0,0,,2,,,62,127
119631,note_on,1,0,0,,10,,,57,127
119631,note_on,0,0,0,,0,,,60,127
119849,note_off,218,0,0,,0,,,60,127
119849,note_off,0,0,0,,10,,,57,127
119849,note_off,0,0,0,,5,,,41,127
119850,note_on,1,0,0,,7,,,43,127
119850,note_on,0,0,0,,12,,,59,127
119850,note_on,0,0,0,,7,,,55,127
120068,note_off,218,0,0,,12,,,59,127
120069,note_on,1,0,0,,7,,,67,127
120287,note_off,218,0,0,,7,,,67,127
120287,note_off,0,0,0,,7,,,55,127
120287,note_off,0,0,0,,7,,,43,127
120288,note_on,1,0,0,,7,,,43,127
120288,note_on,0,0,0,,10,,,69,127
120506,note_off,218,0,0,,10,,,69,127
120507,note_on,1,0,0,,7,,,67,127
120725,note_off,218,0,0,,7,,,67,127
120725,note_off,0,0,0,,7,,,43,127
120726,note_on,1,0,0,,7,,,43,127
120726,note_on,0,0,0,,0,,,72,127
120944,note_off,218,0,0,,0,,,72,127
120945,note_on,1,0,0,,12,,,71,127
121163,note_off,218,0,0,,12,,,71,127
121163,note_off,0,0,0,,7,,,43,127
121164,note_on,1,0,0,,7,,,43,127
121164,note_on,0,0,0,,4,,,76,127
121382,note_off,218,0,0,,4,,,76,127
121383,note_on,1,0,0,,6,,,78,127
121601,note_off,218,0,0,,7,,,43,127
121602,note_on,1,0,0,,7,,,43,127
121602,note_on,0,0,0,,10,,,69,127
121820,note_off,218,0,0,,6,,,78,127
121821,note_on,1,0,0,,7,,,79,127
121930,note_off,109,0,0,,7,,,79,127
121931,note_on,1,0,0,,4,,,76,127
122040,note_off,109,0,0,,4,,,76,127
122040,note_off,0,0,0,,10,,,69,127
122040,note_off,0,0,0,,7,,,43,127
122041,note_on,1,0,0,,7,,,43,127
122041,note_on,0,0,0,,2,,,74,127
122041,note_on,0,0,0,,12,,,71,127
122259,note_off,218,0,0,,12,,,71,127
122259,note_off,0,0,0,,2,,,74,127
122260,note_on,1,0,0,,0,,,72,127
122260,note_on,0,0,0,,10,,,69,127
122478,note_off,218,0,0,,10,,,69,127
122478,note_off,0,0,0,,0,,,72,127
122478,note_off,0,0,0,,7,,,43,127
122479,note_on,1,0,0,,7,,,43,127
122479,note_on,0,0,0,,12,,,71,127
122479,note_on,0,0,0,,7,,,67,127
122697,note_off,218,0,0,,7,,,67,127
122697,note_off,0,0,0,,12,,,71,127
122698,note_on,1,0,0,,6,,,66,127
122698,note_on,0,0,0,,10,,,69,127
122916,note_off,218,0,0,,10,,,69,127
122916,note_off,0,0,0,,6,,,66,127
122916,note_off,0,0,0,,7,,,43,127
122917,note_on,1,0,0,,7,,,43,127
122917,note_on,0,0,0,,4,,,64,127
122917,note_on,0,0,0,,7,,,67,127
123135,note_off,218,0,0,,7,,,67,127
123135,note_off,0,0,0,,4,,,64,127
123136,note_on,1,0,0,,6,,,66,127
123136,note_on,0,0,0,,2,,,62,127
123354,note_off,218,0,0,,2,,,62,127
123354,note_off,0,0,0,,6,,,66,127
123354,note_off,0,0,0,,7,,,43,127
123355,note_on,1,0,0,,7,,,43,127
123355,note_on,0,0,0,,1,,,61,127
123355,note_on,0,0,0,,4,,,64,127
123573,note_off,218,0,0,,4,,,64,127
123573,note_off,0,0,0,,1,,,61,127
123574,note_on,1,0,0,,2,,,62,127
123574,note_on,0,0,0,,12,,,59,127
123792,note_off,218,0,0,,12,,,59,127
123792,note_off,0,0,0,,2,,,62,127
123792,note_off,0,0,0,,7,,,43,127
123793,note_on,1,0,0,,10,,,45,127
123793,note_on,0,0,0,,1,,,61,127
123793,note_on,0,0,0,,10,,,57,127
124011,note_off,218,0,0,,1,,,61,127
124012,note_on,1,0,0,,10,,,69,127
124230,note_off,218,0,0,,10,,,69,127
124230,note_off,0,0,0,,10,,,57,127
124230,note_off,0,0,0,,10,,,45,127
124231,note_on,1,0,0,,10,,,45,127
124231,note_on,0,0,0,,12,,,71,127
124449,note_off,218,0,0,,12,,,71,127
124450,note_on,1,0,0,,10,,,69,127
124668,note_off,218,0,0,,10,,,69,127
124668,note_off,0,0,0,,10,,,45,127
124669,note_on,1,0,0,,10,,,45,127
124669,note_on,0,0,0,,2,,,74,127
124887,note_off,218,0,0,,2,,,74,127
124888,note_on,1,0,0,,1,,,73,127
125106,note_off,218,0,0,,1,,,73,127
125106,note_off,0,0,0,,10,,,45,127
125107,note_on,1,0,0,,10,,,45,127
125107,note_on,0,0,0,,6,,,78,127
125325,note_off,218,0,0,,6,,,78,127
125326,note_on,1,0,0,,8,,,80,127
125544,note_off,218,0,0,,10,,,45,127
125545,note_on,1,0,0,,10,,,45,127
125545,note_on,0,0,0,,12,,,71,127
125763,note_off,218,0,0,,8,,,80,127
125764,note_on,1,0,0,,10,,,81,127
125873,note_off,109,0,0,,10,,,81,127
125874,note_on,1,0,0,,6,,,78,127
125983,note_off,109,0,0,,6,,,78,127
125983,note_off,0,0,0,,12,,,71,127
125983,note_off,0,0,0,,10,,,45,127
125984,note_on,1,0,0,,10,,,45,127
125984,note_on,0,0,0,,1,,,73,127
125984,note_on,0,0,0,,4,,,76,127
126202,note_off,218,0,0,,4,,,76,127
126203,note_on,1,0,0,,10,,,81,127
126312,note_off,109,0,0,,10,,,81,127
126312,note_off,0,0,0,,1,,,73,127
126313,note_on,1,0,0,,2,,,74,127
126313,note_on,0,0,0,,6,,,78,127
126422,note_off,109,0,0,,6,,,78,127
126422,note_off,0,0,0,,2,,,74,127
126422,note_off,0,0,0,,10,,,45,127
126423,note_on,1,0,0,,10,,,45,127
126423,note_on,0,0,0,,4,,,76,127
126423,note_on,0,0,0,,1,,,73,127
126641,note_off,218,0,0,,4,,,76,127
126642,note_on,1,0,0,,10,,,81,127
126751,note_off,109,0,0,,10,,,81,127
126751,note_off,0,0,0,,1,,,73,127
126752,note_on,1,0,0,,6,,,78,127
126752,note_on,0,0,0,,2,,,74,127
126861,note_off,109,0,0,,2,,,74,127
126861,note_off,0,0,0,,6,,,78,127
126861,note_off,0,0,0,,10,,,45,127
126862,note_on,1,0,0,,10,,,45,127
126862,note_on,0,0,0,,1,,,73,127
126862,note_on,0,0,0,,4,,,76,127
127080,note_off,218,0,0,,4,,,76,127
127081,note_on,1,0,0,,10,,,81,127
127190,note_off,109,0,0,,10,,,81,127
127190,note_off,0,0,0,,1,,,73,127
127191,note_on,1,0,0,,6,,,78,127
127191,note_on,0,0,0,,2,,,74,127
127300,note_off,109,0,0,,2,,,74,127
127300,note_off,0,0,0,,6,,,78,127
127300,note_off,0,0,0,,10,,,45,127
127301,note_on,1,0,0,,10,,,45,127
127301,note_on,0,0,0,,4,,,76,127
127301,note_on,0,0,0,,1,,,73,127
127519,note_off,218,0,0,,4,,,76,127
127520,note_on,1,0,0,,10,,,81,127
127629,note_off,109,0,0,,10,,,81,127
127629,note_off,0,0,0,,1,,,73,127
127630,note_on,1,0,0,,6,,,78,127
127630,note_on,0,0,0,,2,,,74,127
127739,note_off,109,0,0,,2,,,74,127
127739,note_off,0,0,0,,6,,,78,127
127739,note_off,0,0,0,,10,,,45,127
127740,note_on,1,0,0,,10,,,45,127
127740,note_on,0,0,0,,4,,,76,127
127740,note_on,0,0,0,,1,,,73,127
127849,note_off,109,0,0,,4,,,76,127
127850,note_on,1,0,0,,10,,,81,127
127959,note_off,109,0,0,,10,,,81,127
127960,note_on,1,0,0,,4,,,76,127
128069,note_off,109,0,0,,4,,,76,127
128069,note_off,0,0,0,,1,,,73,127
128070,note_on,1,0,0,,1,,,73,127
128179,note_off,109,0,0,,1,,,73,127
128180,note_on,1,0,0,,10,,,69,127
128289,note_off,109,0,0,,10,,,69,127
128290,note_on,1,0,0,,4,,,64,127
128399,note_off,109,0,0,,4,,,64,127
128400,note_on,1,0,0,,1,,,61,127
128509,note_off,109,0,0,,1,,,61,127
128510,note_on,1,0,0,,10,,,57,127
128619,note_off,109,0,0,,10,,,57,127
128619,note_off,0,0,0,,10,,,45,127
128620,note_on,1,0,0,,4,,,52,127
128729,note_off,109,0,0,,4,,,52,127
128730,note_on,1,0,0,,1,,,49,127
128839,note_off,109,0,0,,1,,,49,127
128840,note_on,1,0,0,,10,,,45,127
128949,note_off,109,0,0,,10,,,45,127
128950,note_on,1,0,0,,4,,,40,127
129059,note_off,109,0,0,,4,,,40,127
129060,note_on,1,0,0,,10,,,33,127
129279,note_on,219,0,0,,10,,,81,127
129448,note_off,169,0,0,,10,,,33,127
129497,note_off,49,0,0,,10,,,81,127
129498,note_on,1,0,0,,10,,,57,127
129498,note_on,0,0,0,,1,,,73,127
129716,note_off,218,0,0,,1,,,73,127
129717,note_on,1,0,0,,2,,,74,127
129935,note_off,218,0,0,,2,,,74,127
129935,note_off,0,0,0,,10,,,57,127
129936,note_on,1,0,0,,10,,,57,127
129936,note_on,0,0,0,,4,,,76,127
130154,note_off,218,0,0,,4,,,76,127
130155,note_on,1,0,0,,6,,,78,127
130373,note_off,218,0,0,,6,,,78,127
130373,note_off,0,0,0,,10,,,57,127
130374,note_on,1,0,0,,7,,,55,127
130374,note_on,0,0,0,,4,,,64,127
130593,note_on,219,0,0,,12,,,83,127
130811,note_off,218,0,0,,12,,,83,127
130811,note_off,0,0,0,,4,,,64,127
130811,note_off,0,0,0,,7,,,55,127
130812,note_on,1,0,0,,7,,,55,127
130812,note_on,0,0,0,,4,,,64,127
130812,note_on,0,0,0,,4,,,76,127
131030,note_off,218,0,0,,4,,,76,127
131031,note_on,1,0,0,,6,,,78,127
131249,note_off,218,0,0,,6,,,78,127
131249,note_off,0,0,0,,4,,,64,127
131249,note_off,0,0,0,,7,,,55,127
131250,note_on,1,0,0,,4,,,64,127
131250,note_on,0,0,0,,7,,,55,127
131250,note_on,0,0,0,,7,,,79,127
131468,note_off,218,0,0,,7,,,79,127
131469,note_on,1,0,0,,1,,,85,127
131687,note_off,218,0,0,,1,,,85,127
131687,note_off,0,0,0,,7,,,55,127
131687,note_off,0,0,0,,4,,,64,127
131688,note_on,1,0,0,,2,,,62,127
131688,note_on,0,0,0,,6,,,54,127
131907,note_on,219,0,0,,2,,,86,127
132125,note_off,218,0,0,,2,,,86,127
132125,note_off,0,0,0,,6,,,54,127
132125,note_off,0,0,0,,2,,,62,127
132126,note_on,1,0,0,,6,,,54,127
132126,note_on,0,0,0,,2,,,62,127
132126,note_on,0,0,0,,6,,,78,127
132344,note_off,218,0,0,,6,,,78,127
132345,note_on,1,0,0,,7,,,79,127
132563,note_off,218,0,0,,7,,,79,127
132563,note_off,0,0,0,,2,,,62,127
132563,note_off,0,0,0,,6,,,54,127
132564,note_on,1,0,0,,12,,,59,127
132564,note_on,0,0,0,,2,,,62,127
132564,note_on,0,0,0,,10,,,81,127
132782,note_off,218,0,0,,10,,,81,127
132783,note_on,1,0,0,,12,,,83,127
133001,note_off,218,0,0,,12,,,83,127
133001,note_off,0,0,0,,2,,,62,127
133001,note_off,0,0,0,,12,,,59,127
133002,note_on,1,0,0,,7,,,55,127
133002,note_on,0,0,0,,7,,,67,127
133002,note_on,0,0,0,,10,,,81,127
133111,note_off,109,0,0,,10,,,81,127
133112,note_on,1,0,0,,7,,,79,127
133221,note_off,109,0,0,,7,,,79,127
133222,note_on,1,0,0,,6,,,78,127
133331,note_off,109,0,0,,6,,,78,127
133332,note_on,1,0,0,,4,,,76,127
133441,note_off,109,0,0,,4,,,76,127
133441,note_off,0,0,0,,7,,,67,127
133441,note_off,0,0,0,,7,,,55,127
133442,note_on,1,0,0,,6,,,66,127
133442,note_on,0,0,0,,10,,,57,127
133442,note_on,0,0,0,,2,,,74,127
133880,note_off,438,0,0,,10,,,57,127
133880,note_off,0,0,0,,6,,,66,127
133881,note_on,1,0,0,,7,,,55,127
133881,note_on,0,0,0,,4,,,64,127
133991,note_off,110,0,0,,2,,,74,127
133991,note_on,0,0,0,,1,,,73,127
134100,note_off,109,0,0,,1,,,73,127
134101,note_on,1,0,0,,12,,,71,127
134210,note_off,109,0,0,,12,,,71,127
134211,note_on,1,0,0,,1,,,73,127
134320,note_off,109,0,0,,1,,,73,127
134320,note_off,0,0,0,,4,,,64,127
134320,note_off,0,0,0,,7,,,55,127
134321,note_on,1,0,0,,2,,,50,127
134321,note_on,0,0,0,,2,,,62,127
134321,note_on,0,0,0,,2,,,74,127
134539,note_off,218,0,0,,2,,,74,127
134540,note_on,1,0,0,,1,,,85,127
134758,note_off,218,0,0,,1,,,85,127
134758,note_off,0,0,0,,2,,,62,127
134758,note_off,0,0,0,,2,,,50,127
134759,note_on,1,0,0,,4,,,64,127
134759,note_on,0,0,0,,4,,,52,127
134759,note_on,0,0,0,,2,,,86,127
134977,note_off,218,0,0,,2,,,86,127
134978,note_on,1,0,0,,6,,,78,127
135196,note_off,218,0,0,,6,,,78,127
135196,note_off,0,0,0,,4,,,52,127
135196,note_off,0,0,0,,4,,,64,127
135197,note_on,1,0,0,,6,,,54,127
135197,note_on,0,0,0,,6,,,66,127
135197,note_on,0,0,0,,7,,,79,127
135415,note_off,218,0,0,,7,,,79,127
135416,note_on,1,0,0,,10,,,81,127
135634,note_off,218,0,0,,6,,,66,127
135634,note_off,0,0,0,,6,,,54,127
135635,note_on,1,0,0,,7,,,55,127
135635,note_on,0,0,0,,7,,,67,127
135745,note_off,110,0,0,,10,,,81,127
135855,note_on,110,0,0,,11,,,82,127
136073,note_off,218,0,0,,11,,,82,127
136073,note_off,0,0,0,,7,,,67,127
136073,note_off,0,0,0,,7,,,55,127
136074,note_on,1,0,0,,7,,,55,127
136074,note_on,0,0,0,,7,,,67,127
136074,note_on,0,0,0,,12,,,83,127
136292,note_off,218,0,0,,12,,,83,127
136293,note_on,1,0,0,,4,,,76,127
136511,note_off,218,0,0,,4,,,76,127
136511,note_off,0,0,0,,7,,,67,127
136511,note_off,0,0,0,,7,,,55,127
136512,note_on,1,0,0,,1,,,61,127
136512,note_on,0,0,0,,1,,,73,127
136512,note_on,0,0,0,,6,,,78,127
136730,note_off,218,0,0,,6,,,78,127
136731,note_on,1,0,0,,7,,,79,127
136949,note_off,218,0,0,,1,,,73,127
136949,note_off,0,0,0,,1,,,61,127
136950,note_on,1,0,0,,6,,,54,127
136950,note_on,0,0,0,,6,,,66,127
137060,note_off,110,0,0,,7,,,79,127
137170,note_on,110,0,0,,8,,,80,127
137388,note_off,218,0,0,,8,,,80,127
137388,note_off,0,0,0,,6,,,66,127
137388,note_off,0,0,0,,6,,,54,127
137389,note_on,1,0,0,,6,,,54,127
137389,note_on,0,0,0,,6,,,66,127
137389,note_on,0,0,0,,10,,,81,127
137607,note_off,218,0,0,,10,,,81,127
137608,note_on,1,0,0,,2,,,74,127
137826,note_off,218,0,0,,2,,,74,127
137826,note_off,0,0,0,,6,,,66,127
137826,note_off,0,0,0,,6,,,54,127
137827,note_on,1,0,0,,12,,,59,127
137827,note_on,0,0,0,,12,,,71,127
137827,note_on,0,0,0,,4,,,76,127
138045,note_off,218,0,0,,4,,,76,127
138046,note_on,1,0,0,,6,,,78,127
138264,note_off,218,0,0,,12,,,71,127
138264,note_off,0,0,0,,12,,,59,127
138265,note_on,1,0,0,,7,,,55,127
138265,note_on,0,0,0,,7,,,67,127
138265,note_on,0,0,0,,10,,,81,127
138483,note_off,218,0,0,,10,,,81,127
138483,note_off,0,0,0,,6,,,78,127
138484,note_on,1,0,0,,7,,,79,127
138484,note_on,0,0,0,,4,,,76,127
138702,note_off,218,0,0,,4,,,76,127
138702,note_off,0,0,0,,7,,,79,127
138702,note_off,0,0,0,,7,,,67,127
138702,note_off,0,0,0,,7,,,55,127
138703,note_on,1,0,0,,10,,,57,127
138703,note_on,0,0,0,,10,,,69,127
138703,note_on,0,0,0,,7,,,79,127
138703,note_on,0,0,0,,4,,,76,127
138921,note_off,218,0,0,,4,,,76,127
138921,note_off,0,0,0,,7,,,79,127
138922,note_on,1,0,0,,6,,,78,127
138922,note_on,0,0,0,,2,,,74,127
139140,note_off,218,0,0,,2,,,74,127
139140,note_off,0,0,0,,6,,,78,127
139140,note_off,0,0,0,,10,,,69,127
139140,note_off,0,0,0,,10,,,57,127
139141,note_on,1,0,0,,10,,,57,127
139141,note_on,0,0,0,,10,,,69,127
139141,note_on,0,0,0,,2,,,74,127
139141,note_on,0,0,0,,6,,,78,127
139359,note_off,218,0,0,,6,,,78,127
139359,note_off,0,0,0,,2,,,74,127
139360,note_on,1,0,0,,4,,,76,127
139360,note_on,0,0,0,,1,,,73,127
139578,note_off,218,0,0,,1,,,73,127
139578,note_off,0,0,0,,4,,,76,127
139578,note_off,0,0,0,,10,,,69,127
139578,note_off,0,0,0,,10,,,57,127
139579,note_on,1,0,0,,2,,,38,127
139579,note_on,0,0,0,,2,,,50,127
139579,note_on,0,0,0,,4,,,76,127
139688,note_off,109,0,0,,4,,,76,127
139689,note_on,1,0,0,,2,,,74,127
139798,note_off,109,0,0,,2,,,74,127
139799,note_on,1,0,0,,1,,,73,127
140017,note_off,218,0,0,,1,,,73,127
140017,note_off,0,0,0,,2,,,50,127
140017,note_off,0,0,0,,2,,,38,127
140018,note_on,1,0,0,,4,,,52,127
140018,note_on,0,0,0,,4,,,40,127
140018,note_on,0,0,0,,2,,,74,127
140236,note_off,218,0,0,,2,,,74,127
140237,note_on,1,0,0,,6,,,66,127
140455,note_off,218,0,0,,6,,,66,127
140455,note_off,0,0,0,,4,,,40,127
140455,note_off,0,0,0,,4,,,52,127
140456,note_on,1,0,0,,6,,,42,127
140456,note_on,0,0,0,,6,,,54,127
140456,note_on,0,0,0,,7,,,67,127
140674,note_off,218,0,0,,7,,,67,127
140675,note_on,1,0,0,,10,,,69,127
140893,note_off,218,0,0,,6,,,54,127
140893,note_off,0,0,0,,6,,,42,127
140894,note_on,1,0,0,,7,,,43,127
140894,note_on,0,0,0,,7,,,55,127
141004,note_off,110,0,0,,10,,,69,127
141114,note_on,110,0,0,,11,,,70,127
141332,note_off,218,0,0,,11,,,70,127
141332,note_off,0,0,0,,7,,,55,127
141332,note_off,0,0,0,,7,,,43,127
141333,note_on,1,0,0,,7,,,55,127
141333,note_on,0,0,0,,7,,,43,127
141333,note_on,0,0,0,,12,,,71,127
141551,note_off,218,0,0,,12,,,71,127
141552,note_on,1,0,0,,4,,,64,127
141770,note_off,218,0,0,,4,,,64,127
141770,note_off,0,0,0,,7,,,43,127
141770,note_off,0,0,0,,7,,,55,127
141771,note_on,1,0,0,,1,,,49,127
141771,note_on,0,0,0,,1,,,61,127
141771,note_on,0,0,0,,6,,,66,127
141989,note_off,218,0,0,,6,,,66,127
141990,note_on,1,0,0,,7,,,67,127
142208,note_off,218,0,0,,1,,,61,127
142208,note_off,0,0,0,,1,,,49,127
142209,note_on,1,0,0,,6,,,42,127
142209,note_on,0,0,0,,6,,,54,127
142319,note_off,110,0,0,,7,,,67,127
142429,note_on,110,0,0,,8,,,68,127
142647,note_off,218,0,0,,8,,,68,127
142647,note_off,0,0,0,,6,,,54,127
142647,note_off,0,0,0,,6,,,42,127
142648,note_on,1,0,0,,6,,,42,127
142648,note_on,0,0,0,,6,,,54,127
142648,note_on,0,0,0,,10,,,69,127
142866,note_off,218,0,0,,10,,,69,127
142867,note_on,1,0,0,,2,,,62,127
143085,note_off,218,0,0,,2,,,62,127
143085,note_off,0,0,0,,6,,,54,127
143085,note_off,0,0,0,,6,,,42,127
143086,note_on,1,0,0,,12,,,47,127
143086,note_on,0,0,0,,12,,,59,127
143086,note_on,0,0,0,,4,,,64,127
143304,note_off,218,0,0,,4,,,64,127
143305,note_on,1,0,0,,6,,,66,127
143523,note_off,218,0,0,,12,,,59,127
143523,note_off,0,0,0,,12,,,47,127
143524,note_on,1,0,0,,7,,,55,127
143524,note_on,0,0,0,,7,,,43,127
143524,note_on,0,0,0,,10,,,69,127
143742,note_off,218,0,0,,10,,,69,127
143742,note_off,0,0,0,,6,,,66,127
143743,note_on,1,0,0,,7,,,67,127
143743,note_on,0,0,0,,4,,,64,127
143961,note_off,218,0,0,,4,,,64,127
143961,note_off,0,0,0,,7,,,67,127
143961,note_off,0,0,0,,7,,,43,127
143961,note_off,0,0,0,,7,,,55,127
143962,note_on,1,0,0,,10,,,57,127
143962,note_on,0,0,0,,10,,,45,127
143962,note_on,0,0,0,,7,,,67,127
143962,note_on,0,0,0,,4,,,64,127
144180,note_off,218,0,0,,4,,,64,127
144180,note_off,0,0,0,,7,,,67,127
144181,note_on,1,0,0,,2,,,62,127
144181,note_on,0,0,0,,6,,,66,127
144399,note_off,218,0,0,,6,,,66,127
144399,note_off,0,0,0,,2,,,62,127
144399,note_off,0,0,0,,10,,,45,127
144399,note_off,0,0,0,,10,,,57,127
144400,note_on,1,0,0,,10,,,57,127
144400,note_on,0,0,0,,10,,,45,127
144400,note_on,0,0,0,,6,,,66,127
144400,note_on,0,0,0,,2,,,62,127
144618,note_off,218,0,0,,2,,,62,127
144618,note_off,0,0,0,,6,,,66,127
144619,note_on,1,0,0,,4,,,64,127
144619,note_on,0,0,0,,1,,,61,127
144837,note_off,218,0,0,,1,,,61,127
144837,note_off,0,0,0,,4,,,64,127
144837,note_off,0,0,0,,10,,,45,127
144837,note_off,0,0,0,,10,,,57,127
144838,note_on,1,0,0,,2,,,50,127
144838,note_on,0,0,0,,2,,,38,127
144838,note_on,0,0,0,,6,,,66,127
144838,note_on,0,0,0,,2,,,62,127
145021,note_off,183,0,0,,2,,,62,127
145056,note_off,35,0,0,,6,,,66,127
145057,note_on,1,0,0,,6,,,78,127
145275,note_off,218,0,0,,2,,,38,127
145275,note_off,0,0,0,,2,,,50,127
145276,note_on,1,0,0,,4,,,40,127
145276,note_on,0,0,0,,4,,,52,127
145385,note_off,109,0,0,,6,,,78,127
145386,note_on,1,0,0,,2,,,74,127
145495,note_off,109,0,0,,2,,,74,127
145496,note_on,1,0,0,,10,,,69,127
145605,note_off,109,0,0,,10,,,69,127
145606,note_on,1,0,0,,10,,,81,127
145715,note_off,109,0,0,,4,,,52,127
145715,note_off,0,0,0,,4,,,40,127
145716,note_on,1,0,0,,6,,,54,127
145716,note_on,0,0,0,,6,,,42,127
145825,note_off,109,0,0,,10,,,81,127
146154,note_off,329,0,0,,6,,,42,127
146154,note_off,0,0,0,,6,,,54,127
146155,note_on,1,0,0,,7,,,55,127
146155,note_on,0,0,0,,7,,,43,127
146155,note_on,0,0,0,,6,,,66,127
146155,note_on,0,0,0,,10,,,69,127
146373,note_off,218,0,0,,10,,,69,127
146373,note_off,0,0,0,,6,,,66,127
146374,note_on,1,0,0,,7,,,67,127
146374,note_on,0,0,0,,4,,,64,127
146592,note_off,218,0,0,,4,,,64,127
146592,note_off,0,0,0,,7,,,67,127
146592,note_off,0,0,0,,7,,,43,127
146592,note_off,0,0,0,,7,,,55,127
146593,note_on,1,0,0,,10,,,45,127
146593,note_on,0,0,0,,10,,,57,127
146593,note_on,0,0,0,,4,,,64,127
146593,note_on,0,0,0,,7,,,67,127
146811,note_off,218,0,0,,7,,,67,127
146811,note_off,0,0,0,,4,,,64,127
146812,note_on,1,0,0,,6,,,66,127
146812,note_on,0,0,0,,2,,,62,127
147030,note_off,218,0,0,,2,,,62,127
147030,note_off,0,0,0,,6,,,66,127
147030,note_off,0,0,0,,10,,,57,127
147030,note_off,0,0,0,,10,,,45,127
147031,note_on,1,0,0,,10,,,57,127
147031,note_on,0,0,0,,10,,,45,127
147031,note_on,0,0,0,,6,,,66,127
147031,note_on,0,0,0,,2,,,62,127
147249,note_off,218,0,0,,2,,,62,127
147249,note_off,0,0,0,,6,,,66,127
147250,note_on,1,0,0,,1,,,61,127
147250,note_on,0,0,0,,4,,,64,127
147468,note_off,218,0,0,,4,,,64,127
147468,note_off,0,0,0,,1,,,61,127
147468,note_off,0,0,0,,10,,,45,127
147468,note_off,0,0,0,,10,,,57,127
147469,note_on,1,0,0,,2,,,50,127
147469,note_on,0,0,0,,2,,,38,127
147688,note_on,219,0,0,,6,,,78,127
147906,note_off,218,0,0,,2,,,38,127
147906,note_off,0,0,0,,2,,,50,127
147907,note_on,1,0,0,,4,,,40,127
147907,note_on,0,0,0,,4,,,52,127
148016,note_off,109,0,0,,6,,,78,127
148017,note_on,1,0,0,,2,,,74,127
148126,note_off,109,0,0,,2,,,74,127
148127,note_on,1,0,0,,10,,,69,127
148236,note_off,109,0,0,,10,,,69,127
148237,note_on,1,0,0,,10,,,81,127
148346,note_off,109,0,0,,4,,,52,127
148346,note_off,0,0,0,,4,,,40,127
148347,note_on,1,0,0,,6,,,42,127
148347,note_on,0,0,0,,6,,,54,127
148456,note_off,109,0,0,,10,,,81,127
148785,note_off,329,0,0,,6,,,54,127
148785,note_off,0,0,0,,6,,,42,127
148786,note_on,1,0,0,,7,,,43,127
148786,note_on,0,0,0,,10,,,57,127
148786,note_on,0,0,0,,6,,,54,127
149004,note_off,218,0,0,,6,,,54,127
149004,note_off,0,0,0,,10,,,57,127
149005,note_on,1,0,0,,7,,,55,127
149005,note_on,0,0,0,,4,,,52,127
149223,note_off,218,0,0,,4,,,52,127
149223,note_off,0,0,0,,7,,,55,127
149223,note_off,0,0,0,,7,,,43,127
149224,note_on,1,0,0,,10,,,45,127
149224,note_on,0,0,0,,7,,,55,127
149224,note_on,0,0,0,,4,,,52,127
149442,note_off,218,0,0,,4,,,52,127
149442,note_off,0,0,0,,7,,,55,127
149443,note_on,1,0,0,,6,,,54,127
149443,note_on,0,0,0,,2,,,50,127
149661,note_off,218,0,0,,2,,,50,127
149661,note_off,0,0,0,,6,,,54,127
149661,note_off,0,0,0,,10,,,45,127
149662,note_on,1,0,0,,10,,,33,127
149662,note_on,0,0,0,,6,,,54,127
149662,note_on,0,0,0,,2,,,50,127
149880,note_off,218,0,0,,2,,,50,127
149880,note_off,0,0,0,,6,,,54,127
149881,note_on,1,0,0,,1,,,49,127
149881,note_on,0,0,0,,4,,,52,127
150099,note_off,218,0,0,,4,,,52,127
150099,note_off,0,0,0,,1,,,49,127
150099,note_off,0,0,0,,10,,,33,127
150112,note_on,13,0,0,,2,,,38,127
150112,note_on,0,0,0,,2,,,50,127
152306,note_off,2194,0,0,,2,,,50,127
152306,note_off,0,0,0,,2,,,38,127
153600,end_of_track,1294,1,0,,,,,,
