tick,type,time,meta,track,program,channel,pitch,tempo,note,velocity
0,copyright,0,1,0,,,,,,
0,program_change,0,0,0,6,0,,,,
0,pitchwheel,0,0,0,,0,0,,,
0,program_change,0,0,0,6,1,,,,
0,pitchwheel,0,0,0,,1,-590,,,
0,program_change,0,0,0,6,2,,,,
0,pitchwheel,0,0,0,,2,-272,,,
0,program_change,0,0,0,6,3,,,,
0,pitchwheel,0,0,0,,3,-353,,,
0,program_change,0,0,0,6,4,,,,
0,pitchwheel,0,0,0,,4,-560,,,
0,program_change,0,0,0,6,5,,,,
0,pitchwheel,0,0,0,,5,-80,,,
0,program_change,0,0,0,6,6,,,,
0,pitchwheel,0,0,0,,6,-625,,,
0,program_change,0,0,0,6,7,,,,
0,pitchwheel,0,0,0,,7,-130,,,
0,program_change,0,0,0,6,8,,,,
0,pitchwheel,0,0,0,,8,-512,,,
0,program_change,0,0,0,6,10,,,,
0,pitchwheel,0,0,0,,10,-464,,,
0,program_change,0,0,0,6,11,,,,
0,pitchwheel,0,0,0,,11,-208,,,
0,program_change,0,0,0,6,12,,,,
0,pitchwheel,0,0,0,,12,-553,,,
0,set_tempo,0,1,0,,,,500000,,
110,note_on,110,0,0,,2,,,86,127
328,note_off,218,0,0,,2,,,86,127
329,note_on,1,0,0,,10,,,81,127
438,note_off,109,0,0,,10,,,81,127
439,note_on,1,0,0,,6,,,78,127
548,note_off,109,0,0,,6,,,78,127
549,note_on,1,0,0,,2,,,74,127
767,note_off,218,0,0,,2,,,74,127
768,note_on,1,0,0,,10,,,69,127
986,note_off,218,0,0,,10,,,69,127
987,note_on,1,0,0,,2,,,62,127
987,note_on,0,0,0,,2,,,74,127
1205,note_off,218,0,0,,2,,,62,127
1206,note_on,1,0,0,,10,,,57,127
1315,note_off,109,0,0,,10,,,57,127
1316,note_on,1,0,0,,6,,,54,127
1425,note_off,109,0,0,,6,,,54,127
1426,note_on,1,0,0,,2,,,50,127
1581,note_off,155,0,0,,2,,,74,127
1644,note_off,63,0,0,,2,,,50,127
1645,note_on,1,0,0,,10,,,45,127
1645,note_on,0,0,0,,2,,,74,127
1699,note_off,54,0,0,,2,,,74,127
1700,note_on,1,0,0,,1,,,73,127
1754,note_off,54,0,0,,1,,,73,127
1755,note_on,1,0,0,,12,,,71,127
1809,note_off,54,0,0,,12,,,71,127
1810,note_on,1,0,0,,1,,,73,127
1864,note_off,54,0,0,,1,,,73,127
1864,note_off,0,0,0,,10,,,45,127
1865,note_on,1,0,0,,2,,,50,127
1865,note_on,0,0,0,,2,,,74,127
1974,note_off,109,0,0,,2,,,74,127
1975,note_on,1,0,0,,10,,,69,127
2084,note_off,109,0,0,,10,,,69,127
2084,note_off,0,0,0,,2,,,50,127
2085,note_on,1,0,0,,2,,,62,127
2085,note_on,0,0,0,,2,,,74,127
2194,note_off,109,0,0,,2,,,74,127
2195,note_on,1,0,0,,6,,,78,127
2304,note_off,109,0,0,,6,,,78,127
2304,note_off,0,0,0,,2,,,62,127
2305,note_on,1,0,0,,1,,,61,127
2305,note_on,0,0,0,,10,,,81,127
2523,note_off,218,0,0,,10,,,81,127
2523,note_off,0,0,0,,1,,,61,127
2524,note_on,1,0,0,,10,,,57,127
2524,note_on,0,0,0,,7,,,79,127
2718,note_off,194,0,0,,7,,,79,127
2742,note_off,24,0,0,,10,,,57,127
2743,note_on,1,0,0,,2,,,50,127
2743,note_on,0,0,0,,6,,,78,127
2852,note_off,109,0,0,,6,,,78,127
2853,note_on,1,0,0,,10,,,69,127
2962,note_off,109,0,0,,10,,,69,127
2962,note_off,0,0,0,,2,,,50,127
2963,note_on,1,0,0,,2,,,62,127
2963,note_on,0,0,0,,2,,,74,127
3072,note_off,109,0,0,,2,,,74,127
3073,note_on,1,0,0,,6,,,78,127
3182,note_off,109,0,0,,6,,,78,127
3182,note_off,0,0,0,,2,,,62,127
3183,note_on,1,0,0,,1,,,61,127
3183,note_on,0,0,0,,10,,,81,127
3401,note_off,218,0,0,,10,,,81,127
3401,note_off,0,0,0,,1,,,61,127
3402,note_on,1,0,0,,10,,,57,127
3402,note_on,0,0,0,,7,,,79,127
3619,note_off,217,0,0,,7,,,79,127
3620,note_off,1,0,0,,10,,,57,127
3621,note_on,1,0,0,,2,,,62,127
3621,note_on,0,0,0,,6,,,78,127
3730,note_off,109,0,0,,2,,,62,127
3731,note_on,1,0,0,,10,,,57,127
3840,note_off,109,0,0,,10,,,57,127
3840,note_off,0,0,0,,6,,,78,127
3841,note_on,1,0,0,,2,,,62,127
3841,note_on,0,0,0,,10,,,81,127
3950,note_off,109,0,0,,2,,,62,127
3951,note_on,1,0,0,,6,,,66,127
4060,note_off,109,0,0,,6,,,66,127
4061,note_on,1,0,0,,10,,,69,127
4242,note_off,181,0,0,,10,,,81,127
4280,note_off,38,0,0,,10,,,69,127
4281,note_on,1,0,0,,7,,,67,127
4281,note_on,0,0,0,,2,,,74,127
4335,note_off,54,0,0,,2,,,74,127
4336,note_on,1,0,0,,1,,,73,127
4390,note_off,54,0,0,,1,,,73,127
4391,note_on,1,0,0,,12,,,71,127
4445,note_off,54,0,0,,12,,,71,127
4446,note_on,1,0,0,,1,,,73,127
4500,note_off,54,0,0,,1,,,73,127
4500,note_off,0,0,0,,7,,,67,127
4501,note_on,1,0,0,,6,,,66,127
4501,note_on,0,0,0,,2,,,74,127
4610,note_off,109,0,0,,6,,,66,127
4611,note_on,1,0,0,,10,,,57,127
4720,note_off,109,0,0,,10,,,57,127
4720,note_off,0,0,0,,2,,,74,127
4721,note_on,1,0,0,,2,,,62,127
4721,note_on,0,0,0,,10,,,81,127
4830,note_off,109,0,0,,2,,,62,127
4831,note_on,1,0,0,,6,,,66,127
4940,note_off,109,0,0,,6,,,66,127
4941,note_on,1,0,0,,10,,,69,127
5122,note_off,181,0,0,,10,,,81,127
5160,note_off,38,0,0,,10,,,69,127
5161,note_on,1,0,0,,7,,,67,127
5161,note_on,0,0,0,,2,,,74,127
5215,note_off,54,0,0,,2,,,74,127
5216,note_on,1,0,0,,1,,,73,127
5270,note_off,54,0,0,,1,,,73,127
5271,note_on,1,0,0,,12,,,71,127
5325,note_off,54,0,0,,12,,,71,127
5326,note_on,1,0,0,,1,,,73,127
5380,note_off,54,0,0,,1,,,73,127
5380,note_off,0,0,0,,7,,,67,127
5381,note_on,1,0,0,,6,,,66,127
5381,note_on,0,0,0,,2,,,74,127
5490,note_off,109,0,0,,2,,,74,127
5491,note_on,1,0,0,,4,,,76,127
5600,note_off,109,0,0,,4,,,76,127
5601,note_on,1,0,0,,2,,,74,127
5710,note_off,109,0,0,,2,,,74,127
5710,note_off,0,0,0,,6,,,66,127
5711,note_on,1,0,0,,7,,,67,127
5711,note_on,0,0,0,,12,,,71,127
5820,note_off,109,0,0,,12,,,71,127
5820,note_off,0,0,0,,7,,,67,127
5821,note_on,1,0,0,,6,,,66,127
5821,note_on,0,0,0,,10,,,69,127
5930,note_off,109,0,0,,10,,,69,127
5930,note_off,0,0,0,,6,,,66,127
5931,note_on,1,0,0,,4,,,64,127
5931,note_on,0,0,0,,7,,,67,127
6040,note_off,109,0,0,,7,,,67,127
6040,note_off,0,0,0,,4,,,64,127
6041,note_on,1,0,0,,2,,,62,127
6041,note_on,0,0,0,,6,,,66,127
6150,note_off,109,0,0,,6,,,66,127
6150,note_off,0,0,0,,2,,,62,127
6151,note_on,1,0,0,,1,,,61,127
6151,note_on,0,0,0,,4,,,64,127
6260,note_off,109,0,0,,4,,,64,127
6260,note_off,0,0,0,,1,,,61,127
6261,note_on,1,0,0,,2,,,62,127
6261,note_on,0,0,0,,6,,,66,127
6370,note_off,109,0,0,,6,,,66,127
6371,note_on,1,0,0,,4,,,76,127
6480,note_off,109,0,0,,4,,,76,127
6481,note_on,1,0,0,,2,,,74,127
6590,note_off,109,0,0,,2,,,74,127
6590,note_off,0,0,0,,2,,,62,127
6591,note_on,1,0,0,,12,,,59,127
6591,note_on,0,0,0,,7,,,67,127
6700,note_off,109,0,0,,7,,,67,127
6700,note_off,0,0,0,,12,,,59,127
6701,note_on,1,0,0,,10,,,57,127
6701,note_on,0,0,0,,6,,,66,127
6810,note_off,109,0,0,,6,,,66,127
6810,note_off,0,0,0,,10,,,57,127
6811,note_on,1,0,0,,7,,,55,127
6811,note_on,0,0,0,,4,,,64,127
6920,note_off,109,0,0,,4,,,64,127
6920,note_off,0,0,0,,7,,,55,127
6921,note_on,1,0,0,,6,,,54,127
6921,note_on,0,0,0,,2,,,62,127
7030,note_off,109,0,0,,2,,,62,127
7030,note_off,0,0,0,,6,,,54,127
7031,note_on,1,0,0,,4,,,52,127
7031,note_on,0,0,0,,1,,,61,127
7140,note_off,109,0,0,,1,,,61,127
7140,note_off,0,0,0,,4,,,52,127
7141,note_on,1,0,0,,6,,,54,127
7141,note_on,0,0,0,,2,,,62,127
7250,note_off,109,0,0,,2,,,62,127
7251,note_on,1,0,0,,4,,,76,127
7360,note_off,109,0,0,,4,,,76,127
7361,note_on,1,0,0,,2,,,74,127
7470,note_off,109,0,0,,2,,,74,127
7470,note_off,0,0,0,,6,,,54,127
7471,note_on,1,0,0,,7,,,55,127
7471,note_on,0,0,0,,1,,,61,127
7580,note_off,109,0,0,,1,,,61,127
7580,note_off,0,0,0,,7,,,55,127
7581,note_on,1,0,0,,6,,,54,127
7581,note_on,0,0,0,,2,,,62,127
7690,note_off,109,0,0,,2,,,62,127
7690,note_off,0,0,0,,6,,,54,127
7691,note_on,1,0,0,,4,,,52,127
7691,note_on,0,0,0,,4,,,64,127
7800,note_off,109,0,0,,4,,,64,127
7800,note_off,0,0,0,,4,,,52,127
7801,note_on,1,0,0,,2,,,50,127
7801,note_on,0,0,0,,6,,,66,127
7910,note_off,109,0,0,,6,,,66,127
7910,note_off,0,0,0,,2,,,50,127
7911,note_on,1,0,0,,1,,,49,127
7911,note_on,0,0,0,,7,,,67,127
8020,note_off,109,0,0,,7,,,67,127
8020,note_off,0,0,0,,1,,,49,127
8021,note_on,1,0,0,,2,,,50,127
8021,note_on,0,0,0,,6,,,66,127
8130,note_off,109,0,0,,2,,,50,127
8131,note_on,1,0,0,,6,,,54,127
8240,note_off,109,0,0,,6,,,54,127
8241,note_on,1,0,0,,10,,,57,127
8350,note_off,109,0,0,,10,,,57,127
8351,note_on,1,0,0,,2,,,62,127
8460,note_off,109,0,0,,2,,,62,127
8460,note_off,0,0,0,,6,,,66,127
8461,note_on,1,0,0,,6,,,66,127
8571,note_on,110,0,0,,10,,,69,127
8680,note_off,109,0,0,,10,,,69,127
8681,note_on,1,0,0,,2,,,74,127
8790,note_off,109,0,0,,2,,,74,127
8791,note_on,1,0,0,,6,,,78,127
8896,note_off,105,0,0,,6,,,66,127
8899,note_off,3,0,0,,6,,,78,127
8900,note_on,1,0,0,,10,,,81,127
9083,note_off,183,0,0,,10,,,81,127
9120,note_on,37,0,0,,10,,,69,127
9120,note_on,0,0,0,,4,,,64,127
9120,note_on,0,0,0,,0,,,72,127
9338,note_off,218,0,0,,0,,,72,127
9338,note_off,0,0,0,,4,,,64,127
9338,note_off,0,0,0,,10,,,69,127
9339,note_on,1,0,0,,10,,,69,127
9339,note_on,0,0,0,,4,,,64,127
9339,note_on,0,0,0,,2,,,74,127
9393,note_off,54,0,0,,2,,,74,127
9394,note_on,1,0,0,,0,,,72,127
9448,note_off,54,0,0,,0,,,72,127
9449,note_on,1,0,0,,2,,,74,127
9503,note_off,54,0,0,,2,,,74,127
9504,note_on,1,0,0,,0,,,72,127
9558,note_off,54,0,0,,0,,,72,127
9558,note_off,0,0,0,,4,,,64,127
9558,note_off,0,0,0,,10,,,69,127
9559,note_on,1,0,0,,10,,,69,127
9559,note_on,0,0,0,,4,,,64,127
9559,note_on,0,0,0,,2,,,74,127
9613,note_off,54,0,0,,2,,,74,127
9614,note_on,1,0,0,,0,,,72,127
9668,note_off,54,0,0,,0,,,72,127
9669,note_on,1,0,0,,12,,,71,127
9723,note_off,54,0,0,,12,,,71,127
9724,note_on,1,0,0,,0,,,72,127
9778,note_off,54,0,0,,0,,,72,127
9778,note_off,0,0,0,,4,,,64,127
9778,note_off,0,0,0,,10,,,69,127
9779,note_on,1,0,0,,3,,,63,127
9779,note_on,0,0,0,,10,,,69,127
9779,note_on,0,0,0,,12,,,71,127
9973,note_off,194,0,0,,12,,,71,127
9997,note_off,24,0,0,,10,,,69,127
9997,note_off,0,0,0,,3,,,63,127
9998,note_on,1,0,0,,10,,,69,127
9998,note_on,0,0,0,,4,,,64,127
9998,note_on,0,0,0,,0,,,72,127
10216,note_off,218,0,0,,0,,,72,127
10216,note_off,0,0,0,,4,,,64,127
10216,note_off,0,0,0,,10,,,69,127
10217,note_on,1,0,0,,4,,,64,127
10217,note_on,0,0,0,,10,,,69,127
10217,note_on,0,0,0,,2,,,74,127
10271,note_off,54,0,0,,2,,,74,127
10272,note_on,1,0,0,,0,,,72,127
10326,note_off,54,0,0,,0,,,72,127
10327,note_on,1,0,0,,2,,,74,127
10381,note_off,54,0,0,,2,,,74,127
10382,note_on,1,0,0,,0,,,72,127
10436,note_off,54,0,0,,0,,,72,127
10436,note_off,0,0,0,,10,,,69,127
10436,note_off,0,0,0,,4,,,64,127
10437,note_on,1,0,0,,4,,,64,127
10437,note_on,0,0,0,,10,,,69,127
10437,note_on,0,0,0,,2,,,74,127
10491,note_off,54,0,0,,2,,,74,127
10492,note_on,1,0,0,,0,,,72,127
10546,note_off,54,0,0,,0,,,72,127
10547,note_on,1,0,0,,12,,,71,127
10601,note_off,54,0,0,,12,,,71,127
10602,note_on,1,0,0,,0,,,72,127
10656,note_off,54,0,0,,0,,,72,127
10656,note_off,0,0,0,,10,,,69,127
10656,note_off,0,0,0,,4,,,64,127
10657,note_on,1,0,0,,3,,,63,127
10657,note_on,0,0,0,,10,,,69,127
10657,note_on,0,0,0,,12,,,71,127
10851,note_off,194,0,0,,12,,,71,127
10875,note_off,24,0,0,,10,,,69,127
10875,note_off,0,0,0,,3,,,63,127
10876,note_on,1,0,0,,3,,,63,127
10876,note_on,0,0,0,,10,,,69,127
10876,note_on,0,0,0,,12,,,71,127
10876,note_on,0,0,0,,0,,,84,127
11094,note_off,218,0,0,,12,,,71,127
11094,note_off,0,0,0,,10,,,69,127
11094,note_off,0,0,0,,3,,,63,127
11095,note_on,1,0,0,,10,,,69,127
11095,note_on,0,0,0,,3,,,63,127
11095,note_on,0,0,0,,12,,,71,127
11313,note_off,218,0,0,,12,,,71,127
11313,note_off,0,0,0,,3,,,63,127
11313,note_off,0,0,0,,10,,,69,127
11313,note_off,0,0,0,,0,,,84,127
11314,note_on,1,0,0,,10,,,69,127
11314,note_on,0,0,0,,3,,,63,127
11314,note_on,0,0,0,,12,,,71,127
11314,note_on,0,0,0,,12,,,83,127
11423,note_off,109,0,0,,12,,,83,127
11424,note_on,1,0,0,,10,,,81,127
11533,note_off,109,0,0,,10,,,81,127
11533,note_off,0,0,0,,12,,,71,127
11533,note_off,0,0,0,,3,,,63,127
11533,note_off,0,0,0,,10,,,69,127
11534,note_on,1,0,0,,4,,,64,127
11534,note_on,0,0,0,,12,,,71,127
11534,note_on,0,0,0,,7,,,79,127
11643,note_off,109,0,0,,7,,,79,127
11644,note_on,1,0,0,,6,,,78,127
11753,note_off,109,0,0,,6,,,78,127
11753,note_off,0,0,0,,12,,,71,127
11753,note_off,0,0,0,,4,,,64,127
11754,note_on,1,0,0,,7,,,67,127
11754,note_on,0,0,0,,4,,,76,127
11863,note_off,109,0,0,,4,,,76,127
11864,note_on,1,0,0,,2,,,74,127
11973,note_off,109,0,0,,2,,,74,127
11973,note_off,0,0,0,,7,,,67,127
11974,note_on,1,0,0,,10,,,69,127
11974,note_on,0,0,0,,2,,,74,127
12028,note_off,54,0,0,,2,,,74,127
12029,note_on,1,0,0,,0,,,72,127
12083,note_off,54,0,0,,0,,,72,127
12084,note_on,1,0,0,,2,,,74,127
12138,note_off,54,0,0,,2,,,74,127
12139,note_on,1,0,0,,0,,,72,127
12193,note_off,54,0,0,,0,,,72,127
12193,note_off,0,0,0,,10,,,69,127
12194,note_on,1,0,0,,10,,,57,127
12194,note_on,0,0,0,,2,,,74,127
12248,note_off,54,0,0,,2,,,74,127
12249,note_on,1,0,0,,0,,,72,127
12303,note_off,54,0,0,,0,,,72,127
12304,note_on,1,0,0,,12,,,71,127
12358,note_off,54,0,0,,12,,,71,127
12359,note_on,1,0,0,,0,,,72,127
12413,note_off,54,0,0,,0,,,72,127
12413,note_off,0,0,0,,10,,,57,127
12414,note_on,1,0,0,,12,,,47,127
12414,note_on,0,0,0,,12,,,71,127
12523,note_off,109,0,0,,12,,,47,127
12524,note_on,1,0,0,,3,,,51,127
12633,note_off,109,0,0,,3,,,51,127
12634,note_on,1,0,0,,6,,,54,127
12743,note_off,109,0,0,,6,,,54,127
12744,note_on,1,0,0,,12,,,59,127
12853,note_off,109,0,0,,12,,,59,127
12854,note_on,1,0,0,,3,,,63,127
12963,note_off,109,0,0,,3,,,63,127
12964,note_on,1,0,0,,6,,,66,127
13067,note_off,103,0,0,,12,,,71,127
13073,note_off,6,0,0,,6,,,66,127
13074,note_on,1,0,0,,12,,,71,127
13184,note_on,110,0,0,,6,,,78,127
13280,note_off,96,0,0,,12,,,71,127
13293,note_off,13,0,0,,6,,,78,127
13294,note_on,1,0,0,,12,,,83,127
13513,note_on,219,0,0,,12,,,71,127
13513,note_on,0,0,0,,6,,,66,127
13513,note_on,0,0,0,,2,,,74,127
13728,note_off,215,0,0,,12,,,83,127
13731,note_off,3,0,0,,2,,,74,127
13731,note_off,0,0,0,,6,,,66,127
13731,note_off,0,0,0,,12,,,71,127
13732,note_on,1,0,0,,6,,,66,127
13732,note_on,0,0,0,,12,,,71,127
13732,note_on,0,0,0,,4,,,76,127
13786,note_off,54,0,0,,4,,,76,127
13787,note_on,1,0,0,,2,,,74,127
13841,note_off,54,0,0,,2,,,74,127
13842,note_on,1,0,0,,4,,,76,127
13896,note_off,54,0,0,,4,,,76,127
13897,note_on,1,0,0,,2,,,74,127
13951,note_off,54,0,0,,2,,,74,127
13951,note_off,0,0,0,,12,,,71,127
13951,note_off,0,0,0,,6,,,66,127
13952,note_on,1,0,0,,6,,,66,127
13952,note_on,0,0,0,,12,,,71,127
13952,note_on,0,0,0,,4,,,76,127
14006,note_off,54,0,0,,4,,,76,127
14007,note_on,1,0,0,,2,,,74,127
14061,note_off,54,0,0,,2,,,74,127
14062,note_on,1,0,0,,1,,,73,127
14116,note_off,54,0,0,,1,,,73,127
14117,note_on,1,0,0,,2,,,74,127
14171,note_off,54,0,0,,2,,,74,127
14171,note_off,0,0,0,,12,,,71,127
14171,note_off,0,0,0,,6,,,66,127
14172,note_on,1,0,0,,5,,,65,127
14172,note_on,0,0,0,,12,,,71,127
14172,note_on,0,0,0,,1,,,73,127
14366,note_off,194,0,0,,1,,,73,127
14390,note_off,24,0,0,,12,,,71,127
14390,note_off,0,0,0,,5,,,65,127
14391,note_on,1,0,0,,12,,,71,127
14391,note_on,0,0,0,,6,,,66,127
14391,note_on,0,0,0,,2,,,74,127
14609,note_off,218,0,0,,2,,,74,127
14609,note_off,0,0,0,,6,,,66,127
14609,note_off,0,0,0,,12,,,71,127
14610,note_on,1,0,0,,6,,,66,127
14610,note_on,0,0,0,,12,,,71,127
14610,note_on,0,0,0,,4,,,76,127
14664,note_off,54,0,0,,4,,,76,127
14665,note_on,1,0,0,,2,,,74,127
14719,note_off,54,0,0,,2,,,74,127
14720,note_on,1,0,0,,4,,,76,127
14774,note_off,54,0,0,,4,,,76,127
14775,note_on,1,0,0,,2,,,74,127
14829,note_off,54,0,0,,2,,,74,127
14829,note_off,0,0,0,,12,,,71,127
14829,note_off,0,0,0,,6,,,66,127
14830,note_on,1,0,0,,6,,,66,127
14830,note_on,0,0,0,,12,,,71,127
14830,note_on,0,0,0,,4,,,76,127
14884,note_off,54,0,0,,4,,,76,127
14885,note_on,1,0,0,,2,,,74,127
14939,note_off,54,0,0,,2,,,74,127
14940,note_on,1,0,0,,1,,,73,127
14994,note_off,54,0,0,,1,,,73,127
14995,note_on,1,0,0,,2,,,74,127
15049,note_off,54,0,0,,2,,,74,127
15049,note_off,0,0,0,,12,,,71,127
15049,note_off,0,0,0,,6,,,66,127
15050,note_on,1,0,0,,12,,,71,127
15050,note_on,0,0,0,,5,,,65,127
15050,note_on,0,0,0,,1,,,73,127
15244,note_off,194,0,0,,1,,,73,127
15268,note_off,24,0,0,,5,,,65,127
15268,note_off,0,0,0,,12,,,71,127
15269,note_on,1,0,0,,12,,,71,127
15269,note_on,0,0,0,,5,,,65,127
15269,note_on,0,0,0,,1,,,73,127
15269,note_on,0,0,0,,2,,,86,127
15487,note_off,218,0,0,,1,,,73,127
15487,note_off,0,0,0,,5,,,65,127
15487,note_off,0,0,0,,12,,,71,127
15488,note_on,1,0,0,,5,,,65,127
15488,note_on,0,0,0,,1,,,73,127
15488,note_on,0,0,0,,12,,,71,127
15706,note_off,218,0,0,,12,,,71,127
15706,note_off,0,0,0,,1,,,73,127
15706,note_off,0,0,0,,5,,,65,127
15706,note_off,0,0,0,,2,,,86,127
15707,note_on,1,0,0,,1,,,73,127
15707,note_on,0,0,0,,12,,,71,127
15707,note_on,0,0,0,,5,,,65,127
15707,note_on,0,0,0,,1,,,85,127
15816,note_off,109,0,0,,1,,,85,127
15817,note_on,1,0,0,,12,,,83,127
15926,note_off,109,0,0,,12,,,83,127
15926,note_off,0,0,0,,5,,,65,127
15926,note_off,0,0,0,,12,,,71,127
15926,note_off,0,0,0,,1,,,73,127
15927,note_on,1,0,0,,6,,,66,127
15927,note_on,0,0,0,,1,,,73,127
15927,note_on,0,0,0,,10,,,81,127
16036,note_off,109,0,0,,10,,,81,127
16037,note_on,1,0,0,,8,,,80,127
16146,note_off,109,0,0,,8,,,80,127
16146,note_off,0,0,0,,1,,,73,127
16146,note_off,0,0,0,,6,,,66,127
16147,note_on,1,0,0,,10,,,69,127
16147,note_on,0,0,0,,6,,,78,127
16256,note_off,109,0,0,,6,,,78,127
16257,note_on,1,0,0,,4,,,76,127
16366,note_off,109,0,0,,4,,,76,127
16366,note_off,0,0,0,,10,,,69,127
16367,note_on,1,0,0,,12,,,71,127
16367,note_on,0,0,0,,4,,,76,127
16421,note_off,54,0,0,,4,,,76,127
16422,note_on,1,0,0,,2,,,74,127
16476,note_off,54,0,0,,2,,,74,127
16477,note_on,1,0,0,,4,,,76,127
16531,note_off,54,0,0,,4,,,76,127
16532,note_on,1,0,0,,2,,,74,127
16586,note_off,54,0,0,,2,,,74,127
16586,note_off,0,0,0,,12,,,71,127
16587,note_on,1,0,0,,12,,,59,127
16587,note_on,0,0,0,,4,,,76,127
16641,note_off,54,0,0,,4,,,76,127
16642,note_on,1,0,0,,2,,,74,127
16696,note_off,54,0,0,,2,,,74,127
16697,note_on,1,0,0,,1,,,73,127
16751,note_off,54,0,0,,1,,,73,127
16752,note_on,1,0,0,,2,,,74,127
16805,note_off,53,0,0,,12,,,59,127
16806,note_off,1,0,0,,2,,,74,127
16807,note_on,1,0,0,,1,,,73,127
16917,note_on,110,0,0,,1,,,61,127
17026,note_off,109,0,0,,1,,,61,127
17027,note_on,1,0,0,,3,,,63,127
17136,note_off,109,0,0,,3,,,63,127
17137,note_on,1,0,0,,5,,,65,127
17246,note_off,109,0,0,,5,,,65,127
17247,note_on,1,0,0,,6,,,66,127
17356,note_off,109,0,0,,6,,,66,127
17357,note_on,1,0,0,,10,,,69,127
17466,note_off,109,0,0,,10,,,69,127
17467,note_on,1,0,0,,8,,,68,127
17517,note_off,50,0,0,,1,,,73,127
17575,note_off,58,0,0,,8,,,68,127
17576,note_on,1,0,0,,6,,,66,127
17576,note_on,0,0,0,,3,,,75,127
17630,note_off,54,0,0,,3,,,75,127
17631,note_on,1,0,0,,0,,,72,127
17685,note_off,54,0,0,,0,,,72,127
17685,note_off,0,0,0,,6,,,66,127
17686,note_on,1,0,0,,5,,,65,127
17686,note_on,0,0,0,,1,,,73,127
17795,note_off,109,0,0,,5,,,65,127
17796,note_on,1,0,0,,1,,,61,127
17905,note_off,109,0,0,,1,,,61,127
17906,note_on,1,0,0,,3,,,63,127
18015,note_off,109,0,0,,3,,,63,127
18016,note_on,1,0,0,,5,,,65,127
18125,note_off,109,0,0,,5,,,65,127
18126,note_on,1,0,0,,6,,,66,127
18235,note_off,109,0,0,,6,,,66,127
18236,note_on,1,0,0,,10,,,69,127
18345,note_off,109,0,0,,10,,,69,127
18346,note_on,1,0,0,,8,,,68,127
18396,note_off,50,0,0,,1,,,73,127
18454,note_off,58,0,0,,8,,,68,127
18455,note_on,1,0,0,,6,,,66,127
18455,note_on,0,0,0,,3,,,75,127
18509,note_off,54,0,0,,3,,,75,127
18510,note_on,1,0,0,,0,,,72,127
18564,note_off,54,0,0,,0,,,72,127
18564,note_off,0,0,0,,6,,,66,127
18565,note_on,1,0,0,,5,,,65,127
18565,note_on,0,0,0,,1,,,73,127
18674,note_off,109,0,0,,5,,,65,127
18675,note_on,1,0,0,,1,,,61,127
18784,note_off,109,0,0,,1,,,61,127
18785,note_on,1,0,0,,3,,,63,127
18894,note_off,109,0,0,,3,,,63,127
18895,note_on,1,0,0,,5,,,65,127
19004,note_off,109,0,0,,5,,,65,127
19005,note_on,1,0,0,,6,,,66,127
19114,note_off,109,0,0,,6,,,66,127
19115,note_on,1,0,0,,8,,,68,127
19184,note_off,69,0,0,,1,,,73,127
19224,note_off,40,0,0,,8,,,68,127
19225,note_on,1,0,0,,11,,,70,127
19225,note_on,0,0,0,,2,,,74,127
19334,note_off,109,0,0,,11,,,70,127
19335,note_on,1,0,0,,12,,,71,127
19444,note_off,109,0,0,,12,,,71,127
19444,note_off,0,0,0,,2,,,74,127
19445,note_on,1,0,0,,1,,,73,127
19445,note_on,0,0,0,,4,,,76,127
19554,note_off,109,0,0,,1,,,73,127
19555,note_on,1,0,0,,11,,,70,127
19664,note_off,109,0,0,,11,,,70,127
19664,note_off,0,0,0,,4,,,76,127
19665,note_on,1,0,0,,12,,,71,127
19665,note_on,0,0,0,,2,,,74,127
19774,note_off,109,0,0,,12,,,71,127
19775,note_on,1,0,0,,12,,,59,127
19884,note_off,109,0,0,,12,,,59,127
19884,note_off,0,0,0,,2,,,74,127
19885,note_on,1,0,0,,4,,,64,127
19885,note_on,0,0,0,,1,,,73,127
19994,note_off,109,0,0,,4,,,64,127
19995,note_on,1,0,0,,6,,,66,127
20104,note_off,109,0,0,,6,,,66,127
20104,note_off,0,0,0,,1,,,73,127
20105,note_on,1,0,0,,7,,,67,127
20105,note_on,0,0,0,,12,,,71,127
20214,note_off,109,0,0,,7,,,67,127
20215,note_on,1,0,0,,4,,,64,127
20324,note_off,109,0,0,,4,,,64,127
20324,note_off,0,0,0,,12,,,71,127
20325,note_on,1,0,0,,6,,,66,127
20325,note_on,0,0,0,,1,,,73,127
20434,note_off,109,0,0,,6,,,66,127
20435,note_on,1,0,0,,4,,,64,127
20544,note_off,109,0,0,,4,,,64,127
20545,note_on,1,0,0,,6,,,66,127
20654,note_off,109,0,0,,6,,,66,127
20655,note_on,1,0,0,,8,,,68,127
20764,note_off,109,0,0,,8,,,68,127
20765,note_on,1,0,0,,11,,,70,127
20874,note_off,109,0,0,,11,,,70,127
20875,note_on,1,0,0,,12,,,71,127
20955,note_off,80,0,0,,1,,,73,127
20984,note_off,29,0,0,,12,,,71,127
20985,note_on,1,0,0,,11,,,70,127
20985,note_on,0,0,0,,2,,,74,127
21094,note_off,109,0,0,,11,,,70,127
21095,note_on,1,0,0,,12,,,71,127
21204,note_off,109,0,0,,12,,,71,127
21204,note_off,0,0,0,,2,,,74,127
21205,note_on,1,0,0,,1,,,73,127
21205,note_on,0,0,0,,4,,,76,127
21314,note_off,109,0,0,,1,,,73,127
21315,note_on,1,0,0,,11,,,70,127
21424,note_off,109,0,0,,11,,,70,127
21424,note_off,0,0,0,,4,,,76,127
21425,note_on,1,0,0,,12,,,71,127
21425,note_on,0,0,0,,2,,,74,127
21534,note_off,109,0,0,,12,,,71,127
21535,note_on,1,0,0,,12,,,59,127
21644,note_off,109,0,0,,12,,,59,127
21644,note_off,0,0,0,,2,,,74,127
21645,note_on,1,0,0,,4,,,64,127
21645,note_on,0,0,0,,1,,,73,127
21754,note_off,109,0,0,,4,,,64,127
21755,note_on,1,0,0,,6,,,66,127
21864,note_off,109,0,0,,6,,,66,127
21864,note_off,0,0,0,,1,,,73,127
21865,note_on,1,0,0,,7,,,67,127
21865,note_on,0,0,0,,12,,,71,127
21974,note_off,109,0,0,,7,,,67,127
21975,note_on,1,0,0,,4,,,64,127
22084,note_off,109,0,0,,4,,,64,127
22084,note_off,0,0,0,,12,,,71,127
22085,note_on,1,0,0,,6,,,66,127
22085,note_on,0,0,0,,1,,,73,127
22194,note_off,109,0,0,,6,,,66,127
22195,note_on,1,0,0,,8,,,68,127
22304,note_off,109,0,0,,8,,,68,127
22305,note_on,1,0,0,,11,,,70,127
22414,note_off,109,0,0,,11,,,70,127
22415,note_on,1,0,0,,12,,,71,127
22520,note_off,105,0,0,,1,,,73,127
22523,note_off,3,0,0,,12,,,71,127
22524,note_on,1,0,0,,1,,,73,127
22633,note_off,109,0,0,,1,,,73,127
22634,note_on,1,0,0,,2,,,74,127
22743,note_off,109,0,0,,2,,,74,127
22744,note_on,1,0,0,,1,,,73,127
22744,note_on,0,0,0,,5,,,77,127
22853,note_off,109,0,0,,1,,,73,127
22854,note_on,1,0,0,,12,,,71,127
22963,note_off,109,0,0,,12,,,71,127
22963,note_off,0,0,0,,5,,,77,127
22964,note_on,1,0,0,,11,,,70,127
22964,note_on,0,0,0,,6,,,78,127
23073,note_off,109,0,0,,11,,,70,127
23074,note_on,1,0,0,,6,,,66,127
23183,note_off,109,0,0,,6,,,66,127
23184,note_on,1,0,0,,8,,,68,127
23293,note_off,109,0,0,,8,,,68,127
23294,note_on,1,0,0,,11,,,70,127
23403,note_off,109,0,0,,11,,,70,127
23404,note_on,1,0,0,,12,,,71,127
23513,note_off,109,0,0,,12,,,71,127
23514,note_on,1,0,0,,2,,,74,127
23623,note_off,109,0,0,,2,,,74,127
23624,note_on,1,0,0,,1,,,73,127
23674,note_off,50,0,0,,6,,,78,127
23732,note_off,58,0,0,,1,,,73,127
23733,note_on,1,0,0,,12,,,71,127
23733,note_on,0,0,0,,8,,,80,127
23787,note_off,54,0,0,,8,,,80,127
23788,note_on,1,0,0,,5,,,77,127
23842,note_off,54,0,0,,5,,,77,127
23842,note_off,0,0,0,,12,,,71,127
23843,note_on,1,0,0,,11,,,70,127
23843,note_on,0,0,0,,6,,,78,127
23952,note_off,109,0,0,,11,,,70,127
23953,note_on,1,0,0,,6,,,66,127
24062,note_off,109,0,0,,6,,,66,127
24063,note_on,1,0,0,,8,,,68,127
24172,note_off,109,0,0,,8,,,68,127
24173,note_on,1,0,0,,11,,,70,127
24282,note_off,109,0,0,,11,,,70,127
24283,note_on,1,0,0,,12,,,71,127
24392,note_off,109,0,0,,12,,,71,127
24393,note_on,1,0,0,,2,,,74,127
24502,note_off,109,0,0,,2,,,74,127
24503,note_on,1,0,0,,1,,,73,127
24553,note_off,50,0,0,,6,,,78,127
24611,note_off,58,0,0,,1,,,73,127
24612,note_on,1,0,0,,12,,,71,127
24612,note_on,0,0,0,,8,,,80,127
24666,note_off,54,0,0,,8,,,80,127
24667,note_on,1,0,0,,5,,,77,127
24721,note_off,54,0,0,,5,,,77,127
24721,note_off,0,0,0,,12,,,71,127
24722,note_on,1,0,0,,11,,,70,127
24722,note_on,0,0,0,,6,,,78,127
24831,note_off,109,0,0,,11,,,70,127
24832,note_on,1,0,0,,6,,,66,127
24941,note_off,109,0,0,,6,,,66,127
24942,note_on,1,0,0,,8,,,68,127
25051,note_off,109,0,0,,8,,,68,127
25052,note_on,1,0,0,,11,,,70,127
25161,note_off,109,0,0,,11,,,70,127
25162,note_on,1,0,0,,12,,,71,127
25271,note_off,109,0,0,,12,,,71,127
25272,note_on,1,0,0,,2,,,74,127
25381,note_off,109,0,0,,2,,,74,127
25381,note_off,0,0,0,,6,,,78,127
25382,note_on,1,0,0,,1,,,73,127
25382,note_on,0,0,0,,10,,,81,127
25436,note_off,54,0,0,,10,,,81,127
25437,note_on,1,0,0,,8,,,80,127
25491,note_off,54,0,0,,8,,,80,127
25491,note_off,0,0,0,,1,,,73,127
25492,note_on,1,0,0,,12,,,71,127
25492,note_on,0,0,0,,6,,,78,127
25546,note_off,54,0,0,,6,,,78,127
25547,note_on,1,0,0,,8,,,80,127
25601,note_off,54,0,0,,8,,,80,127
25601,note_off,0,0,0,,12,,,71,127
25602,note_on,1,0,0,,1,,,73,127
25602,note_on,0,0,0,,10,,,81,127
25711,note_off,109,0,0,,1,,,73,127
25712,note_on,1,0,0,,10,,,69,127
25821,note_off,109,0,0,,10,,,69,127
25822,note_on,1,0,0,,12,,,71,127
25931,note_off,109,0,0,,12,,,71,127
25932,note_on,1,0,0,,1,,,73,127
26041,note_off,109,0,0,,1,,,73,127
26042,note_on,1,0,0,,2,,,74,127
26151,note_off,109,0,0,,2,,,74,127
26152,note_on,1,0,0,,6,,,78,127
26261,note_off,109,0,0,,6,,,78,127
26262,note_on,1,0,0,,4,,,76,127
26312,note_off,50,0,0,,10,,,81,127
26370,note_off,58,0,0,,4,,,76,127
26371,note_on,1,0,0,,2,,,74,127
26371,note_on,0,0,0,,12,,,83,127
26425,note_off,54,0,0,,12,,,83,127
26426,note_on,1,0,0,,8,,,80,127
26480,note_off,54,0,0,,8,,,80,127
26480,note_off,0,0,0,,2,,,74,127
26481,note_on,1,0,0,,1,,,73,127
26481,note_on,0,0,0,,10,,,81,127
26590,note_off,109,0,0,,1,,,73,127
26591,note_on,1,0,0,,10,,,69,127
26700,note_off,109,0,0,,10,,,69,127
26701,note_on,1,0,0,,12,,,71,127
26810,note_off,109,0,0,,12,,,71,127
26811,note_on,1,0,0,,1,,,73,127
26920,note_off,109,0,0,,1,,,73,127
26921,note_on,1,0,0,,2,,,74,127
27030,note_off,109,0,0,,2,,,74,127
27031,note_on,1,0,0,,6,,,78,127
27140,note_off,109,0,0,,6,,,78,127
27141,note_on,1,0,0,,4,,,76,127
27191,note_off,50,0,0,,10,,,81,127
27249,note_off,58,0,0,,4,,,76,127
27250,note_on,1,0,0,,2,,,74,127
27250,note_on,0,0,0,,12,,,83,127
27304,note_off,54,0,0,,12,,,83,127
27305,note_on,1,0,0,,8,,,80,127
27359,note_off,54,0,0,,8,,,80,127
27359,note_off,0,0,0,,2,,,74,127
27360,note_on,1,0,0,,1,,,73,127
27360,note_on,0,0,0,,10,,,81,127
27469,note_off,109,0,0,,1,,,73,127
27470,note_on,1,0,0,,10,,,69,127
27579,note_off,109,0,0,,10,,,69,127
27580,note_on,1,0,0,,12,,,71,127
27689,note_off,109,0,0,,12,,,71,127
27689,note_off,0,0,0,,10,,,81,127
27690,note_on,1,0,0,,1,,,73,127
27690,note_on,0,0,0,,8,,,80,127
27799,note_off,109,0,0,,8,,,80,127
27799,note_off,0,0,0,,1,,,73,127
27800,note_on,1,0,0,,2,,,74,127
27800,note_on,0,0,0,,6,,,78,127
27909,note_off,109,0,0,,6,,,78,127
27910,note_on,1,0,0,,2,,,86,127
28019,note_off,109,0,0,,2,,,86,127
28019,note_off,0,0,0,,2,,,74,127
28020,note_on,1,0,0,,10,,,69,127
28020,note_on,0,0,0,,4,,,76,127
28129,note_off,109,0,0,,4,,,76,127
28130,note_on,1,0,0,,1,,,85,127
28239,note_off,109,0,0,,1,,,85,127
28239,note_off,0,0,0,,10,,,69,127
28240,note_on,1,0,0,,8,,,68,127
28240,note_on,0,0,0,,2,,,74,127
28349,note_off,109,0,0,,2,,,74,127
28350,note_on,1,0,0,,12,,,83,127
28459,note_off,109,0,0,,12,,,83,127
28459,note_off,0,0,0,,8,,,68,127
28460,note_on,1,0,0,,10,,,69,127
28460,note_on,0,0,0,,1,,,73,127
28569,note_off,109,0,0,,1,,,73,127
28570,note_on,1,0,0,,10,,,81,127
28679,note_off,109,0,0,,10,,,81,127
28679,note_off,0,0,0,,10,,,69,127
28680,note_on,1,0,0,,4,,,64,127
28680,note_on,0,0,0,,12,,,71,127
28789,note_off,109,0,0,,12,,,71,127
28790,note_on,1,0,0,,8,,,80,127
28899,note_off,109,0,0,,8,,,80,127
28899,note_off,0,0,0,,4,,,64,127
28900,note_on,1,0,0,,6,,,66,127
28900,note_on,0,0,0,,10,,,69,127
29009,note_off,109,0,0,,10,,,69,127
29010,note_on,1,0,0,,6,,,78,127
29119,note_off,109,0,0,,6,,,78,127
29119,note_off,0,0,0,,6,,,66,127
29120,note_on,1,0,0,,1,,,61,127
29120,note_on,0,0,0,,8,,,68,127
29229,note_off,109,0,0,,8,,,68,127
29230,note_on,1,0,0,,4,,,76,127
29339,note_off,109,0,0,,4,,,76,127
29339,note_off,0,0,0,,1,,,61,127
29340,note_on,1,0,0,,2,,,62,127
29340,note_on,0,0,0,,6,,,66,127
29449,note_off,109,0,0,,6,,,66,127
29450,note_on,1,0,0,,2,,,74,127
29559,note_off,109,0,0,,2,,,74,127
29559,note_off,0,0,0,,2,,,62,127
29560,note_on,1,0,0,,1,,,61,127
29560,note_on,0,0,0,,4,,,64,127
29669,note_off,109,0,0,,4,,,64,127
29670,note_on,1,0,0,,1,,,73,127
29779,note_off,109,0,0,,1,,,73,127
29779,note_off,0,0,0,,1,,,61,127
29780,note_on,1,0,0,,8,,,56,127
29780,note_on,0,0,0,,2,,,62,127
29889,note_off,109,0,0,,2,,,62,127
29890,note_on,1,0,0,,12,,,71,127
29999,note_off,109,0,0,,12,,,71,127
29999,note_off,0,0,0,,8,,,56,127
30000,note_on,1,0,0,,10,,,57,127
30000,note_on,0,0,0,,1,,,61,127
30109,note_off,109,0,0,,1,,,61,127
30110,note_on,1,0,0,,10,,,69,127
30219,note_off,109,0,0,,10,,,69,127
30219,note_off,0,0,0,,10,,,57,127
30220,note_on,1,0,0,,4,,,52,127
30220,note_on,0,0,0,,12,,,59,127
30329,note_off,109,0,0,,12,,,59,127
30330,note_on,1,0,0,,8,,,68,127
30439,note_off,109,0,0,,4,,,52,127
30440,note_on,1,0,0,,6,,,54,127
30549,note_off,109,0,0,,8,,,68,127
30550,note_on,1,0,0,,10,,,69,127
30659,note_off,109,0,0,,10,,,69,127
30660,note_on,1,0,0,,6,,,66,127
30769,note_off,109,0,0,,6,,,66,127
30770,note_on,1,0,0,,3,,,63,127
30879,note_off,109,0,0,,6,,,54,127
30880,note_on,1,0,0,,6,,,42,127
30989,note_off,109,0,0,,3,,,63,127
30990,note_on,1,0,0,,6,,,66,127
31099,note_off,109,0,0,,6,,,66,127
31100,note_on,1,0,0,,4,,,64,127
31209,note_off,109,0,0,,4,,,64,127
31210,note_on,1,0,0,,3,,,63,127
31319,note_off,109,0,0,,3,,,63,127
31319,note_off,0,0,0,,6,,,42,127
31320,note_on,1,0,0,,4,,,40,127
31320,note_on,0,0,0,,3,,,63,127
31538,note_off,218,0,0,,3,,,63,127
31539,note_on,1,0,0,,4,,,64,127
32196,note_off,657,0,0,,4,,,64,127
32196,note_off,0,0,0,,4,,,40,127
32417,note_on,221,0,0,,0,,,48,127
32417,note_on,0,0,0,,0,,,36,127
32527,note_on,110,0,0,,0,,,60,127
32636,note_off,109,0,0,,0,,,60,127
32637,note_on,1,0,0,,4,,,64,127
32746,note_off,109,0,0,,4,,,64,127
32747,note_on,1,0,0,,7,,,67,127
32856,note_off,109,0,0,,7,,,67,127
32857,note_on,1,0,0,,0,,,72,127
32966,note_off,109,0,0,,0,,,72,127
32967,note_on,1,0,0,,4,,,76,127
33076,note_off,109,0,0,,4,,,76,127
33077,note_on,1,0,0,,7,,,79,127
33186,note_off,109,0,0,,7,,,79,127
33187,note_on,1,0,0,,0,,,84,127
33296,note_off,109,0,0,,0,,,84,127
33296,note_off,0,0,0,,0,,,36,127
33296,note_off,0,0,0,,0,,,48,127
33297,note_on,1,0,0,,12,,,83,127
33297,note_on,0,0,0,,7,,,43,127
33406,note_off,109,0,0,,12,,,83,127
33407,note_on,1,0,0,,7,,,79,127
33516,note_off,109,0,0,,7,,,79,127
33517,note_on,1,0,0,,2,,,74,127
33626,note_off,109,0,0,,2,,,74,127
33627,note_on,1,0,0,,12,,,71,127
33736,note_off,109,0,0,,12,,,71,127
33737,note_on,1,0,0,,7,,,67,127
33846,note_off,109,0,0,,7,,,67,127
33847,note_on,1,0,0,,2,,,62,127
33956,note_off,109,0,0,,2,,,62,127
33957,note_on,1,0,0,,12,,,59,127
34066,note_off,109,0,0,,12,,,59,127
34067,note_on,1,0,0,,7,,,55,127
34176,note_off,109,0,0,,7,,,55,127
34176,note_off,0,0,0,,7,,,43,127
34177,note_on,1,0,0,,2,,,50,127
34177,note_on,0,0,0,,2,,,38,127
34287,note_on,110,0,0,,2,,,62,127
34396,note_off,109,0,0,,2,,,62,127
34397,note_on,1,0,0,,5,,,65,127
34506,note_off,109,0,0,,5,,,65,127
34507,note_on,1,0,0,,10,,,69,127
34616,note_off,109,0,0,,10,,,69,127
34617,note_on,1,0,0,,2,,,74,127
34726,note_off,109,0,0,,2,,,74,127
34727,note_on,1,0,0,,5,,,77,127
34836,note_off,109,0,0,,5,,,77,127
34837,note_on,1,0,0,,10,,,81,127
34946,note_off,109,0,0,,10,,,81,127
34947,note_on,1,0,0,,2,,,86,127
35056,note_off,109,0,0,,2,,,86,127
35056,note_off,0,0,0,,2,,,38,127
35056,note_off,0,0,0,,2,,,50,127
35057,note_on,1,0,0,,0,,,84,127
35057,note_on,0,0,0,,10,,,33,127
35057,note_on,0,0,0,,10,,,45,127
35166,note_off,109,0,0,,0,,,84,127
35167,note_on,1,0,0,,10,,,81,127
35276,note_off,109,0,0,,10,,,81,127
35277,note_on,1,0,0,,4,,,76,127
35386,note_off,109,0,0,,4,,,76,127
35387,note_on,1,0,0,,0,,,72,127
35496,note_off,109,0,0,,0,,,72,127
35497,note_on,1,0,0,,10,,,69,127
35606,note_off,109,0,0,,10,,,69,127
35607,note_on,1,0,0,,4,,,64,127
35716,note_off,109,0,0,,4,,,64,127
35717,note_on,1,0,0,,0,,,60,127
35826,note_off,109,0,0,,0,,,60,127
35827,note_on,1,0,0,,10,,,57,127
35936,note_off,109,0,0,,10,,,57,127
35936,note_off,0,0,0,,10,,,45,127
35936,note_off,0,0,0,,10,,,33,127
35937,note_on,1,0,0,,4,,,52,127
36047,note_on,110,0,0,,4,,,64,127
36156,note_off,109,0,0,,4,,,64,127
36156,note_off,0,0,0,,4,,,52,127
36157,note_on,1,0,0,,3,,,63,127
36157,note_on,0,0,0,,4,,,52,127
36266,note_off,109,0,0,,3,,,63,127
36267,note_on,1,0,0,,4,,,64,127
36376,note_off,109,0,0,,4,,,64,127
36376,note_off,0,0,0,,4,,,52,127
36377,note_on,1,0,0,,3,,,63,127
36377,note_on,0,0,0,,4,,,52,127
36486,note_off,109,0,0,,3,,,63,127
36487,note_on,1,0,0,,4,,,64,127
36596,note_off,109,0,0,,4,,,64,127
36596,note_off,0,0,0,,4,,,52,127
36597,note_on,1,0,0,,3,,,63,127
36597,note_on,0,0,0,,4,,,52,127
36706,note_off,109,0,0,,3,,,63,127
36707,note_on,1,0,0,,4,,,64,127
36816,note_off,109,0,0,,4,,,64,127
36816,note_off,0,0,0,,4,,,52,127
36817,note_on,1,0,0,,2,,,62,127
36817,note_on,0,0,0,,5,,,53,127
36817,note_on,0,0,0,,10,,,57,127
36927,note_on,110,0,0,,10,,,69,127
37036,note_off,109,0,0,,10,,,69,127
37036,note_off,0,0,0,,10,,,57,127
37036,note_off,0,0,0,,5,,,53,127
37037,note_on,1,0,0,,8,,,68,127
37037,note_on,0,0,0,,5,,,53,127
37037,note_on,0,0,0,,10,,,57,127
37146,note_off,109,0,0,,8,,,68,127
37147,note_on,1,0,0,,10,,,69,127
37256,note_off,109,0,0,,10,,,69,127
37256,note_off,0,0,0,,10,,,57,127
37256,note_off,0,0,0,,5,,,53,127
37257,note_on,1,0,0,,8,,,68,127
37257,note_on,0,0,0,,10,,,57,127
37257,note_on,0,0,0,,5,,,53,127
37366,note_off,109,0,0,,8,,,68,127
37367,note_on,1,0,0,,10,,,69,127
37476,note_off,109,0,0,,10,,,69,127
37476,note_off,0,0,0,,5,,,53,127
37476,note_off,0,0,0,,10,,,57,127
37477,note_on,1,0,0,,8,,,68,127
37477,note_on,0,0,0,,5,,,53,127
37477,note_on,0,0,0,,10,,,57,127
37586,note_off,109,0,0,,8,,,68,127
37587,note_on,1,0,0,,10,,,69,127
37696,note_off,109,0,0,,10,,,69,127
37696,note_off,0,0,0,,10,,,57,127
37696,note_off,0,0,0,,5,,,53,127
37696,note_off,0,0,0,,2,,,62,127
37697,note_on,1,0,0,,12,,,71,127
37697,note_on,0,0,0,,12,,,59,127
37697,note_on,0,0,0,,4,,,52,127
37807,note_on,110,0,0,,4,,,64,127
37916,note_off,109,0,0,,4,,,64,127
37916,note_off,0,0,0,,4,,,52,127
37916,note_off,0,0,0,,12,,,59,127
37917,note_on,1,0,0,,3,,,63,127
37917,note_on,0,0,0,,12,,,59,127
37917,note_on,0,0,0,,4,,,52,127
38026,note_off,109,0,0,,3,,,63,127
38027,note_on,1,0,0,,4,,,64,127
38136,note_off,109,0,0,,4,,,64,127
38136,note_off,0,0,0,,4,,,52,127
38136,note_off,0,0,0,,12,,,59,127
38137,note_on,1,0,0,,3,,,63,127
38137,note_on,0,0,0,,12,,,59,127
38137,note_on,0,0,0,,4,,,52,127
38246,note_off,109,0,0,,3,,,63,127
38247,note_on,1,0,0,,4,,,64,127
38356,note_off,109,0,0,,4,,,64,127
38356,note_off,0,0,0,,4,,,52,127
38356,note_off,0,0,0,,12,,,59,127
38357,note_on,1,0,0,,3,,,63,127
38357,note_on,0,0,0,,12,,,59,127
38357,note_on,0,0,0,,4,,,52,127
38466,note_off,109,0,0,,3,,,63,127
38467,note_on,1,0,0,,4,,,64,127
38576,note_off,109,0,0,,4,,,64,127
38576,note_off,0,0,0,,4,,,52,127
38576,note_off,0,0,0,,12,,,59,127
38576,note_off,0,0,0,,12,,,71,127
38577,note_on,1,0,0,,2,,,62,127
38577,note_on,0,0,0,,5,,,53,127
38577,note_on,0,0,0,,10,,,57,127
38687,note_on,110,0,0,,10,,,69,127
38796,note_off,109,0,0,,10,,,69,127
38796,note_off,0,0,0,,10,,,57,127
38796,note_off,0,0,0,,5,,,53,127
38797,note_on,1,0,0,,8,,,68,127
38797,note_on,0,0,0,,5,,,53,127
38797,note_on,0,0,0,,10,,,57,127
38906,note_off,109,0,0,,8,,,68,127
38907,note_on,1,0,0,,10,,,69,127
39016,note_off,109,0,0,,10,,,69,127
39016,note_off,0,0,0,,10,,,57,127
39016,note_off,0,0,0,,5,,,53,127
39017,note_on,1,0,0,,8,,,68,127
39017,note_on,0,0,0,,10,,,57,127
39017,note_on,0,0,0,,5,,,53,127
39126,note_off,109,0,0,,8,,,68,127
39127,note_on,1,0,0,,10,,,69,127
39236,note_off,109,0,0,,10,,,69,127
39236,note_off,0,0,0,,5,,,53,127
39236,note_off,0,0,0,,10,,,57,127
39237,note_on,1,0,0,,8,,,68,127
39237,note_on,0,0,0,,5,,,53,127
39237,note_on,0,0,0,,10,,,57,127
39346,note_off,109,0,0,,8,,,68,127
39347,note_on,1,0,0,,10,,,69,127
39456,note_off,109,0,0,,10,,,69,127
39456,note_off,0,0,0,,10,,,57,127
39456,note_off,0,0,0,,5,,,53,127
39456,note_off,0,0,0,,2,,,62,127
39457,note_on,1,0,0,,12,,,71,127
39457,note_on,0,0,0,,4,,,52,127
39457,note_on,0,0,0,,12,,,59,127
39567,note_on,110,0,0,,4,,,64,127
39676,note_off,109,0,0,,4,,,64,127
39676,note_off,0,0,0,,12,,,59,127
39676,note_off,0,0,0,,4,,,52,127
39677,note_on,1,0,0,,3,,,63,127
39677,note_on,0,0,0,,4,,,52,127
39677,note_on,0,0,0,,12,,,59,127
39786,note_off,109,0,0,,3,,,63,127
39787,note_on,1,0,0,,4,,,64,127
39892,note_off,105,0,0,,12,,,71,127
39895,note_off,3,0,0,,4,,,64,127
39895,note_off,0,0,0,,12,,,59,127
39895,note_off,0,0,0,,4,,,52,127
39896,note_on,1,0,0,,2,,,62,127
39896,note_on,0,0,0,,5,,,53,127
39896,note_on,0,0,0,,10,,,57,127
40006,note_on,110,0,0,,10,,,69,127
40115,note_off,109,0,0,,10,,,69,127
40115,note_off,0,0,0,,10,,,57,127
40115,note_off,0,0,0,,5,,,53,127
40116,note_on,1,0,0,,8,,,68,127
40116,note_on,0,0,0,,5,,,53,127
40116,note_on,0,0,0,,10,,,57,127
40225,note_off,109,0,0,,8,,,68,127
40226,note_on,1,0,0,,10,,,69,127
40331,note_off,105,0,0,,2,,,62,127
40334,note_off,3,0,0,,10,,,69,127
40334,note_off,0,0,0,,10,,,57,127
40334,note_off,0,0,0,,5,,,53,127
40335,note_on,1,0,0,,12,,,71,127
40335,note_on,0,0,0,,12,,,59,127
40335,note_on,0,0,0,,4,,,52,127
40445,note_on,110,0,0,,4,,,64,127
40554,note_off,109,0,0,,4,,,64,127
40554,note_off,0,0,0,,4,,,52,127
40554,note_off,0,0,0,,12,,,59,127
40555,note_on,1,0,0,,3,,,63,127
40555,note_on,0,0,0,,12,,,59,127
40555,note_on,0,0,0,,4,,,52,127
40664,note_off,109,0,0,,3,,,63,127
40665,note_on,1,0,0,,4,,,64,127
40770,note_off,105,0,0,,12,,,71,127
40773,note_off,3,0,0,,4,,,64,127
40773,note_off,0,0,0,,4,,,52,127
40773,note_off,0,0,0,,12,,,59,127
40774,note_on,1,0,0,,2,,,62,127
40774,note_on,0,0,0,,10,,,57,127
40774,note_on,0,0,0,,5,,,53,127
40884,note_on,110,0,0,,10,,,69,127
40993,note_off,109,0,0,,10,,,69,127
40993,note_off,0,0,0,,5,,,53,127
40993,note_off,0,0,0,,10,,,57,127
40994,note_on,1,0,0,,8,,,68,127
40994,note_on,0,0,0,,5,,,53,127
40994,note_on,0,0,0,,10,,,57,127
41103,note_off,109,0,0,,8,,,68,127
41104,note_on,1,0,0,,10,,,69,127
41209,note_off,105,0,0,,2,,,62,127
41212,note_off,3,0,0,,10,,,69,127
41212,note_off,0,0,0,,10,,,57,127
41212,note_off,0,0,0,,5,,,53,127
41213,note_on,1,0,0,,4,,,64,127
41213,note_on,0,0,0,,10,,,69,127
41213,note_on,0,0,0,,4,,,52,127
41322,note_off,109,0,0,,4,,,52,127
41323,note_on,1,0,0,,10,,,57,127
41432,note_off,109,0,0,,10,,,57,127
41432,note_off,0,0,0,,10,,,69,127
41433,note_on,1,0,0,,12,,,71,127
41433,note_on,0,0,0,,8,,,56,127
41542,note_off,109,0,0,,8,,,56,127
41543,note_on,1,0,0,,10,,,57,127
41648,note_off,105,0,0,,4,,,64,127
41650,note_off,2,0,0,,12,,,71,127
41651,note_off,1,0,0,,10,,,57,127
41652,note_on,1,0,0,,8,,,56,127
41761,note_off,109,0,0,,8,,,56,127
41762,note_on,1,0,0,,12,,,59,127
41871,note_off,109,0,0,,12,,,59,127
41872,note_on,1,0,0,,4,,,76,127
41872,note_on,0,0,0,,4,,,52,127
41981,note_off,109,0,0,,4,,,52,127
41982,note_on,1,0,0,,8,,,56,127
42091,note_off,109,0,0,,8,,,56,127
42091,note_off,0,0,0,,4,,,76,127
42092,note_on,1,0,0,,10,,,81,127
42092,note_on,0,0,0,,1,,,49,127
42201,note_off,109,0,0,,1,,,49,127
42202,note_on,1,0,0,,4,,,52,127
42311,note_off,109,0,0,,4,,,52,127
42311,note_off,0,0,0,,10,,,81,127
42312,note_on,1,0,0,,4,,,76,127
42312,note_on,0,0,0,,10,,,45,127
42421,note_off,109,0,0,,10,,,45,127
42422,note_on,1,0,0,,4,,,52,127
42531,note_off,109,0,0,,4,,,52,127
42531,note_off,0,0,0,,4,,,76,127
42532,note_on,1,0,0,,6,,,78,127
42532,note_on,0,0,0,,8,,,44,127
42586,note_off,54,0,0,,6,,,78,127
42587,note_on,1,0,0,,4,,,76,127
42641,note_off,54,0,0,,4,,,76,127
42641,note_off,0,0,0,,8,,,44,127
42642,note_on,1,0,0,,6,,,78,127
42642,note_on,0,0,0,,4,,,52,127
42696,note_off,54,0,0,,6,,,78,127
42697,note_on,1,0,0,,4,,,76,127
42751,note_off,54,0,0,,4,,,76,127
42751,note_off,0,0,0,,4,,,52,127
42752,note_on,1,0,0,,6,,,78,127
42752,note_on,0,0,0,,4,,,40,127
42806,note_off,54,0,0,,6,,,78,127
42807,note_on,1,0,0,,4,,,76,127
42861,note_off,54,0,0,,4,,,76,127
42861,note_off,0,0,0,,4,,,40,127
42862,note_on,1,0,0,,2,,,74,127
42862,note_on,0,0,0,,4,,,52,127
42916,note_off,54,0,0,,2,,,74,127
42917,note_on,1,0,0,,4,,,76,127
42971,note_off,54,0,0,,4,,,76,127
42971,note_off,0,0,0,,4,,,52,127
42972,note_on,1,0,0,,10,,,81,127
42972,note_on,0,0,0,,10,,,45,127
43081,note_off,109,0,0,,10,,,45,127
43082,note_on,1,0,0,,10,,,57,127
43189,note_off,107,0,0,,10,,,81,127
43190,note_off,1,0,0,,10,,,57,127
43191,note_on,1,0,0,,8,,,56,127
43300,note_off,109,0,0,,8,,,56,127
43301,note_on,1,0,0,,10,,,57,127
43410,note_off,109,0,0,,10,,,57,127
43411,note_on,1,0,0,,8,,,56,127
43520,note_off,109,0,0,,8,,,56,127
43521,note_on,1,0,0,,12,,,59,127
43630,note_off,109,0,0,,12,,,59,127
43631,note_on,1,0,0,,4,,,76,127
43631,note_on,0,0,0,,4,,,52,127
43740,note_off,109,0,0,,4,,,52,127
43741,note_on,1,0,0,,8,,,56,127
43850,note_off,109,0,0,,8,,,56,127
43850,note_off,0,0,0,,4,,,76,127
43851,note_on,1,0,0,,10,,,81,127
43851,note_on,0,0,0,,1,,,49,127
43960,note_off,109,0,0,,1,,,49,127
43961,note_on,1,0,0,,4,,,52,127
44070,note_off,109,0,0,,4,,,52,127
44070,note_off,0,0,0,,10,,,81,127
44071,note_on,1,0,0,,4,,,76,127
44071,note_on,0,0,0,,10,,,45,127
44180,note_off,109,0,0,,10,,,45,127
44181,note_on,1,0,0,,4,,,52,127
44290,note_off,109,0,0,,4,,,52,127
44290,note_off,0,0,0,,4,,,76,127
44291,note_on,1,0,0,,6,,,78,127
44291,note_on,0,0,0,,8,,,44,127
44345,note_off,54,0,0,,6,,,78,127
44346,note_on,1,0,0,,4,,,76,127
44400,note_off,54,0,0,,4,,,76,127
44400,note_off,0,0,0,,8,,,44,127
44401,note_on,1,0,0,,6,,,78,127
44401,note_on,0,0,0,,4,,,52,127
44455,note_off,54,0,0,,6,,,78,127
44456,note_on,1,0,0,,4,,,76,127
44510,note_off,54,0,0,,4,,,76,127
44510,note_off,0,0,0,,4,,,52,127
44511,note_on,1,0,0,,6,,,78,127
44511,note_on,0,0,0,,4,,,40,127
44565,note_off,54,0,0,,6,,,78,127
44566,note_on,1,0,0,,4,,,76,127
44620,note_off,54,0,0,,4,,,76,127
44620,note_off,0,0,0,,4,,,40,127
44621,note_on,1,0,0,,2,,,74,127
44621,note_on,0,0,0,,4,,,52,127
44675,note_off,54,0,0,,2,,,74,127
44676,note_on,1,0,0,,4,,,76,127
44730,note_off,54,0,0,,4,,,76,127
44730,note_off,0,0,0,,4,,,52,127
44731,note_on,1,0,0,,10,,,81,127
44731,note_on,0,0,0,,10,,,45,127
44840,note_off,109,0,0,,10,,,45,127
44841,note_on,1,0,0,,10,,,57,127
44950,note_off,109,0,0,,10,,,57,127
44950,note_off,0,0,0,,10,,,81,127
44951,note_on,1,0,0,,4,,,76,127
44951,note_on,0,0,0,,1,,,61,127
45060,note_off,109,0,0,,1,,,61,127
45061,note_on,1,0,0,,10,,,57,127
45170,note_off,109,0,0,,10,,,57,127
45170,note_off,0,0,0,,4,,,76,127
45171,note_on,1,0,0,,6,,,78,127
45171,note_on,0,0,0,,2,,,38,127
45280,note_off,109,0,0,,2,,,38,127
45281,note_on,1,0,0,,2,,,50,127
45390,note_off,109,0,0,,2,,,50,127
45391,note_on,1,0,0,,2,,,86,127
45391,note_on,0,0,0,,6,,,54,127
45500,note_off,109,0,0,,6,,,54,127
45501,note_on,1,0,0,,2,,,50,127
45606,note_off,105,0,0,,6,,,78,127
45609,note_off,3,0,0,,2,,,50,127
45610,note_on,1,0,0,,4,,,40,127
45719,note_off,109,0,0,,2,,,86,127
45720,note_on,1,0,0,,2,,,86,127
45829,note_off,109,0,0,,2,,,86,127
45829,note_off,0,0,0,,4,,,40,127
45830,note_on,1,0,0,,1,,,85,127
45830,note_on,0,0,0,,2,,,38,127
45939,note_off,109,0,0,,1,,,85,127
45940,note_on,1,0,0,,12,,,83,127
46049,note_off,109,0,0,,12,,,83,127
46049,note_off,0,0,0,,2,,,38,127
46050,note_on,1,0,0,,1,,,85,127
46050,note_on,0,0,0,,4,,,40,127
46159,note_off,109,0,0,,1,,,85,127
46160,note_on,1,0,0,,10,,,81,127
46269,note_off,109,0,0,,10,,,81,127
46269,note_off,0,0,0,,4,,,40,127
46270,note_on,1,0,0,,12,,,83,127
46270,note_on,0,0,0,,4,,,40,127
46379,note_off,109,0,0,,12,,,83,127
46380,note_on,1,0,0,,8,,,80,127
46489,note_off,109,0,0,,8,,,80,127
46489,note_off,0,0,0,,4,,,40,127
46490,note_on,1,0,0,,10,,,81,127
46490,note_on,0,0,0,,10,,,45,127
46599,note_off,109,0,0,,10,,,45,127
46600,note_on,1,0,0,,10,,,57,127
46709,note_off,109,0,0,,10,,,57,127
46710,note_on,1,0,0,,8,,,56,127
46819,note_off,109,0,0,,8,,,56,127
46820,note_on,1,0,0,,10,,,57,127
46879,note_off,59,0,0,,10,,,81,127
46928,note_off,49,0,0,,10,,,57,127
46929,note_on,1,0,0,,8,,,56,127
47038,note_off,109,0,0,,8,,,56,127
47039,note_on,1,0,0,,12,,,59,127
47148,note_off,109,0,0,,12,,,59,127
47149,note_on,1,0,0,,4,,,76,127
47149,note_on,0,0,0,,4,,,52,127
47258,note_off,109,0,0,,4,,,52,127
47259,note_on,1,0,0,,8,,,56,127
47368,note_off,109,0,0,,8,,,56,127
47368,note_off,0,0,0,,4,,,76,127
47369,note_on,1,0,0,,10,,,81,127
47369,note_on,0,0,0,,1,,,49,127
47478,note_off,109,0,0,,1,,,49,127
47479,note_on,1,0,0,,4,,,52,127
47588,note_off,109,0,0,,4,,,52,127
47588,note_off,0,0,0,,10,,,81,127
47589,note_on,1,0,0,,4,,,76,127
47589,note_on,0,0,0,,10,,,45,127
47698,note_off,109,0,0,,10,,,45,127
47699,note_on,1,0,0,,4,,,52,127
47808,note_off,109,0,0,,4,,,52,127
47808,note_off,0,0,0,,4,,,76,127
47809,note_on,1,0,0,,6,,,78,127
47809,note_on,0,0,0,,8,,,44,127
47863,note_off,54,0,0,,6,,,78,127
47864,note_on,1,0,0,,4,,,76,127
47918,note_off,54,0,0,,4,,,76,127
47918,note_off,0,0,0,,8,,,44,127
47919,note_on,1,0,0,,6,,,78,127
47919,note_on,0,0,0,,4,,,52,127
47973,note_off,54,0,0,,6,,,78,127
47974,note_on,1,0,0,,4,,,76,127
48028,note_off,54,0,0,,4,,,76,127
48028,note_off,0,0,0,,4,,,52,127
48029,note_on,1,0,0,,6,,,78,127
48029,note_on,0,0,0,,4,,,40,127
48083,note_off,54,0,0,,6,,,78,127
48084,note_on,1,0,0,,4,,,76,127
48138,note_off,54,0,0,,4,,,76,127
48138,note_off,0,0,0,,4,,,40,127
48139,note_on,1,0,0,,2,,,74,127
48139,note_on,0,0,0,,4,,,52,127
48193,note_off,54,0,0,,2,,,74,127
48194,note_on,1,0,0,,4,,,76,127
48248,note_off,54,0,0,,4,,,76,127
48248,note_off,0,0,0,,4,,,52,127
48249,note_on,1,0,0,,10,,,81,127
48249,note_on,0,0,0,,10,,,45,127
48358,note_off,109,0,0,,10,,,45,127
48359,note_on,1,0,0,,10,,,57,127
48468,note_off,109,0,0,,10,,,57,127
48468,note_off,0,0,0,,10,,,81,127
48469,note_on,1,0,0,,4,,,76,127
48469,note_on,0,0,0,,1,,,61,127
48578,note_off,109,0,0,,1,,,61,127
48579,note_on,1,0,0,,10,,,57,127
48688,note_off,109,0,0,,10,,,57,127
48688,note_off,0,0,0,,4,,,76,127
48689,note_on,1,0,0,,6,,,78,127
48689,note_on,0,0,0,,2,,,38,127
48798,note_off,109,0,0,,2,,,38,127
48799,note_on,1,0,0,,2,,,50,127
48908,note_off,109,0,0,,2,,,50,127
48909,note_on,1,0,0,,2,,,86,127
48909,note_on,0,0,0,,6,,,54,127
49018,note_off,109,0,0,,6,,,54,127
49019,note_on,1,0,0,,2,,,50,127
49124,note_off,105,0,0,,6,,,78,127
49127,note_off,3,0,0,,2,,,50,127
49128,note_on,1,0,0,,4,,,40,127
49237,note_off,109,0,0,,2,,,86,127
49238,note_on,1,0,0,,2,,,86,127
49347,note_off,109,0,0,,2,,,86,127
49347,note_off,0,0,0,,4,,,40,127
49348,note_on,1,0,0,,1,,,85,127
49348,note_on,0,0,0,,2,,,38,127
49457,note_off,109,0,0,,1,,,85,127
49458,note_on,1,0,0,,12,,,83,127
49567,note_off,109,0,0,,12,,,83,127
49567,note_off,0,0,0,,2,,,38,127
49568,note_on,1,0,0,,1,,,85,127
49568,note_on,0,0,0,,4,,,40,127
49677,note_off,109,0,0,,1,,,85,127
49678,note_on,1,0,0,,10,,,81,127
49787,note_off,109,0,0,,10,,,81,127
49787,note_off,0,0,0,,4,,,40,127
49788,note_on,1,0,0,,12,,,83,127
49788,note_on,0,0,0,,4,,,40,127
49897,note_off,109,0,0,,12,,,83,127
49898,note_on,1,0,0,,8,,,80,127
50007,note_off,109,0,0,,8,,,80,127
50007,note_off,0,0,0,,4,,,40,127
50008,note_on,1,0,0,,10,,,81,127
50008,note_on,0,0,0,,10,,,33,127
50117,note_off,109,0,0,,10,,,81,127
50118,note_on,1,0,0,,4,,,76,127
50227,note_off,109,0,0,,4,,,76,127
50227,note_off,0,0,0,,10,,,33,127
50228,note_on,1,0,0,,1,,,73,127
50228,note_on,0,0,0,,10,,,45,127
50337,note_off,109,0,0,,1,,,73,127
50338,note_on,1,0,0,,10,,,69,127
50447,note_off,109,0,0,,10,,,69,127
50447,note_off,0,0,0,,10,,,45,127
50448,note_on,1,0,0,,6,,,78,127
50448,note_on,0,0,0,,2,,,38,127
50557,note_off,109,0,0,,6,,,78,127
50558,note_on,1,0,0,,2,,,74,127
50667,note_off,109,0,0,,2,,,74,127
50667,note_off,0,0,0,,2,,,38,127
50668,note_on,1,0,0,,10,,,69,127
50668,note_on,0,0,0,,2,,,50,127
50777,note_off,109,0,0,,10,,,69,127
50778,note_on,1,0,0,,6,,,66,127
50887,note_off,109,0,0,,6,,,66,127
50887,note_off,0,0,0,,2,,,50,127
50888,note_on,1,0,0,,4,,,76,127
50888,note_on,0,0,0,,1,,,37,127
50997,note_off,109,0,0,,4,,,76,127
50998,note_on,1,0,0,,1,,,73,127
51107,note_off,109,0,0,,1,,,73,127
51107,note_off,0,0,0,,1,,,37,127
51108,note_on,1,0,0,,10,,,69,127
51108,note_on,0,0,0,,1,,,49,127
51217,note_off,109,0,0,,10,,,69,127
51218,note_on,1,0,0,,4,,,64,127
51327,note_off,109,0,0,,4,,,64,127
51327,note_off,0,0,0,,1,,,49,127
51328,note_on,1,0,0,,6,,,66,127
51328,note_on,0,0,0,,2,,,38,127
51437,note_off,109,0,0,,6,,,66,127
51438,note_on,1,0,0,,10,,,69,127
51547,note_off,109,0,0,,10,,,69,127
51547,note_off,0,0,0,,2,,,38,127
51548,note_on,1,0,0,,8,,,68,127
51548,note_on,0,0,0,,4,,,40,127
51657,note_off,109,0,0,,8,,,68,127
51658,note_on,1,0,0,,12,,,71,127
51749,note_off,91,0,0,,12,,,71,127
51766,note_off,17,0,0,,4,,,40,127
51767,note_on,1,0,0,,10,,,81,127
51767,note_on,0,0,0,,10,,,33,127
51876,note_off,109,0,0,,10,,,81,127
51877,note_on,1,0,0,,4,,,76,127
51986,note_off,109,0,0,,4,,,76,127
51986,note_off,0,0,0,,10,,,33,127
51987,note_on,1,0,0,,1,,,73,127
51987,note_on,0,0,0,,10,,,45,127
52096,note_off,109,0,0,,1,,,73,127
52097,note_on,1,0,0,,10,,,69,127
52206,note_off,109,0,0,,10,,,69,127
52206,note_off,0,0,0,,10,,,45,127
52207,note_on,1,0,0,,6,,,78,127
52207,note_on,0,0,0,,2,,,38,127
52316,note_off,109,0,0,,6,,,78,127
52317,note_on,1,0,0,,2,,,74,127
52426,note_off,109,0,0,,2,,,74,127
52426,note_off,0,0,0,,2,,,38,127
52427,note_on,1,0,0,,10,,,69,127
52427,note_on,0,0,0,,2,,,50,127
52536,note_off,109,0,0,,10,,,69,127
52537,note_on,1,0,0,,6,,,66,127
52646,note_off,109,0,0,,6,,,66,127
52646,note_off,0,0,0,,2,,,50,127
52647,note_on,1,0,0,,4,,,76,127
52647,note_on,0,0,0,,1,,,37,127
52756,note_off,109,0,0,,4,,,76,127
52757,note_on,1,0,0,,1,,,73,127
52866,note_off,109,0,0,,1,,,73,127
52866,note_off,0,0,0,,1,,,37,127
52867,note_on,1,0,0,,10,,,69,127
52867,note_on,0,0,0,,1,,,49,127
52976,note_off,109,0,0,,10,,,69,127
52977,note_on,1,0,0,,4,,,64,127
53086,note_off,109,0,0,,4,,,64,127
53086,note_off,0,0,0,,1,,,49,127
53087,note_on,1,0,0,,6,,,66,127
53087,note_on,0,0,0,,2,,,38,127
53196,note_off,109,0,0,,6,,,66,127
53197,note_on,1,0,0,,10,,,69,127
53306,note_off,109,0,0,,10,,,69,127
53306,note_off,0,0,0,,2,,,38,127
53307,note_on,1,0,0,,8,,,68,127
53307,note_on,0,0,0,,4,,,40,127
53416,note_off,109,0,0,,8,,,68,127
53417,note_on,1,0,0,,12,,,71,127
53526,note_off,109,0,0,,12,,,71,127
53526,note_off,0,0,0,,4,,,40,127
53527,note_on,1,0,0,,10,,,69,127
53527,note_on,0,0,0,,10,,,33,127
53745,note_off,218,0,0,,10,,,33,127
53746,note_on,1,0,0,,1,,,49,127
53856,note_off,110,0,0,,10,,,69,127
53965,note_off,109,0,0,,1,,,49,127
53966,note_on,1,0,0,,6,,,78,127
53966,note_on,0,0,0,,2,,,50,127
54075,note_off,109,0,0,,6,,,78,127
54076,note_on,1,0,0,,4,,,76,127
54185,note_off,109,0,0,,2,,,50,127
54186,note_on,1,0,0,,4,,,52,127
54295,note_off,109,0,0,,4,,,76,127
54296,note_on,1,0,0,,2,,,74,127
54405,note_off,109,0,0,,2,,,74,127
54405,note_off,0,0,0,,4,,,52,127
54406,note_on,1,0,0,,1,,,73,127
54406,note_on,0,0,0,,10,,,57,127
54406,note_on,0,0,0,,10,,,45,127
54624,note_off,218,0,0,,10,,,45,127
54624,note_off,0,0,0,,10,,,57,127
54625,note_on,1,0,0,,1,,,49,127
54625,note_on,0,0,0,,1,,,37,127
54735,note_off,110,0,0,,1,,,73,127
54844,note_off,109,0,0,,1,,,37,127
54844,note_off,0,0,0,,1,,,49,127
54845,note_on,1,0,0,,6,,,66,127
54845,note_on,0,0,0,,2,,,38,127
54845,note_on,0,0,0,,2,,,50,127
54954,note_off,109,0,0,,6,,,66,127
54955,note_on,1,0,0,,4,,,64,127
55064,note_off,109,0,0,,2,,,50,127
55064,note_off,0,0,0,,2,,,38,127
55065,note_on,1,0,0,,4,,,52,127
55065,note_on,0,0,0,,4,,,40,127
55174,note_off,109,0,0,,4,,,64,127
55175,note_on,1,0,0,,2,,,62,127
55284,note_off,109,0,0,,2,,,62,127
55284,note_off,0,0,0,,4,,,40,127
55284,note_off,0,0,0,,4,,,52,127
55285,note_on,1,0,0,,1,,,61,127
55285,note_on,0,0,0,,10,,,33,127
55285,note_on,0,0,0,,10,,,45,127
55502,note_off,217,0,0,,1,,,61,127
55503,note_off,1,0,0,,10,,,45,127
55503,note_off,0,0,0,,10,,,33,127
55504,note_on,1,0,0,,1,,,61,127
55504,note_on,0,0,0,,1,,,49,127
55722,note_off,218,0,0,,1,,,49,127
55722,note_off,0,0,0,,1,,,61,127
55723,note_on,1,0,0,,6,,,78,127
55723,note_on,0,0,0,,2,,,62,127
55723,note_on,0,0,0,,2,,,50,127
55832,note_off,109,0,0,,6,,,78,127
55833,note_on,1,0,0,,4,,,76,127
55942,note_off,109,0,0,,2,,,50,127
55942,note_off,0,0,0,,2,,,62,127
55943,note_on,1,0,0,,4,,,64,127
55943,note_on,0,0,0,,4,,,52,127
56052,note_off,109,0,0,,4,,,76,127
56053,note_on,1,0,0,,2,,,74,127
56162,note_off,109,0,0,,2,,,74,127
56162,note_off,0,0,0,,4,,,52,127
56162,note_off,0,0,0,,4,,,64,127
56163,note_on,1,0,0,,1,,,73,127
56163,note_on,0,0,0,,6,,,66,127
56163,note_on,0,0,0,,6,,,54,127
56235,note_off,72,0,0,,1,,,73,127
56236,note_on,1,0,0,,12,,,71,127
56308,note_off,72,0,0,,12,,,71,127
56309,note_on,1,0,0,,1,,,73,127
56381,note_off,72,0,0,,1,,,73,127
56381,note_off,0,0,0,,6,,,54,127
56381,note_off,0,0,0,,6,,,66,127
56382,note_on,1,0,0,,2,,,74,127
56382,note_on,0,0,0,,2,,,62,127
56382,note_on,0,0,0,,2,,,50,127
56454,note_off,72,0,0,,2,,,74,127
56455,note_on,1,0,0,,1,,,73,127
56527,note_off,72,0,0,,1,,,73,127
56528,note_on,1,0,0,,12,,,71,127
56600,note_off,72,0,0,,12,,,71,127
56600,note_off,0,0,0,,2,,,50,127
56600,note_off,0,0,0,,2,,,62,127
56601,note_on,1,0,0,,10,,,69,127
56601,note_on,0,0,0,,4,,,64,127
56601,note_on,0,0,0,,4,,,52,127
56819,note_off,218,0,0,,4,,,52,127
56819,note_off,0,0,0,,4,,,64,127
56819,note_off,0,0,0,,10,,,69,127
56820,note_on,1,0,0,,10,,,69,127
56820,note_on,0,0,0,,4,,,64,127
56820,note_on,0,0,0,,4,,,52,127
56874,note_off,54,0,0,,10,,,69,127
56875,note_on,1,0,0,,8,,,68,127
56929,note_off,54,0,0,,8,,,68,127
56930,note_on,1,0,0,,10,,,69,127
56984,note_off,54,0,0,,10,,,69,127
56985,note_on,1,0,0,,8,,,68,127
57039,note_off,54,0,0,,8,,,68,127
57039,note_off,0,0,0,,4,,,52,127
57039,note_off,0,0,0,,4,,,64,127
57040,note_on,1,0,0,,10,,,69,127
57040,note_on,0,0,0,,10,,,57,127
57040,note_on,0,0,0,,10,,,45,127
57258,note_off,218,0,0,,10,,,69,127
57259,note_on,1,0,0,,10,,,81,127
57474,note_off,215,0,0,,10,,,45,127
57474,note_off,0,0,0,,10,,,57,127
57477,note_off,3,0,0,,10,,,81,127
57478,note_on,1,0,0,,2,,,74,127
57532,note_off,54,0,0,,2,,,74,127
57533,note_on,1,0,0,,1,,,73,127
57587,note_off,54,0,0,,1,,,73,127
57588,note_on,1,0,0,,2,,,74,127
57642,note_off,54,0,0,,2,,,74,127
57643,note_on,1,0,0,,1,,,73,127
57697,note_off,54,0,0,,1,,,73,127
57698,note_on,1,0,0,,2,,,74,127
57698,note_on,0,0,0,,1,,,49,127
57698,note_on,0,0,0,,1,,,37,127
57752,note_off,54,0,0,,2,,,74,127
57753,note_on,1,0,0,,1,,,73,127
57807,note_off,54,0,0,,1,,,73,127
57808,note_on,1,0,0,,2,,,74,127
57862,note_off,54,0,0,,2,,,74,127
57863,note_on,1,0,0,,4,,,76,127
57917,note_off,54,0,0,,4,,,76,127
57917,note_off,0,0,0,,1,,,37,127
57917,note_off,0,0,0,,1,,,49,127
57918,note_on,1,0,0,,6,,,66,127
57918,note_on,0,0,0,,2,,,50,127
57918,note_on,0,0,0,,2,,,38,127
58136,note_off,218,0,0,,2,,,38,127
58136,note_off,0,0,0,,2,,,50,127
58136,note_off,0,0,0,,6,,,66,127
58137,note_on,1,0,0,,10,,,81,127
58137,note_on,0,0,0,,2,,,38,127
58137,note_on,0,0,0,,2,,,50,127
58355,note_off,218,0,0,,2,,,50,127
58355,note_off,0,0,0,,2,,,38,127
58355,note_off,0,0,0,,10,,,81,127
58356,note_on,1,0,0,,1,,,61,127
58356,note_on,0,0,0,,4,,,40,127
58356,note_on,0,0,0,,4,,,52,127
58410,note_off,54,0,0,,1,,,61,127
58411,note_on,1,0,0,,12,,,59,127
58465,note_off,54,0,0,,12,,,59,127
58466,note_on,1,0,0,,1,,,61,127
58520,note_off,54,0,0,,1,,,61,127
58521,note_on,1,0,0,,12,,,59,127
58575,note_off,54,0,0,,12,,,59,127
58575,note_off,0,0,0,,4,,,52,127
58575,note_off,0,0,0,,4,,,40,127
58576,note_on,1,0,0,,1,,,61,127
58576,note_on,0,0,0,,4,,,40,127
58576,note_on,0,0,0,,4,,,52,127
58630,note_off,54,0,0,,1,,,61,127
58631,note_on,1,0,0,,12,,,59,127
58685,note_off,54,0,0,,12,,,59,127
58686,note_on,1,0,0,,1,,,61,127
58740,note_off,54,0,0,,1,,,61,127
58741,note_on,1,0,0,,2,,,62,127
58795,note_off,54,0,0,,2,,,62,127
58795,note_off,0,0,0,,4,,,52,127
58795,note_off,0,0,0,,4,,,40,127
58796,note_on,1,0,0,,1,,,61,127
58796,note_on,0,0,0,,10,,,33,127
58796,note_on,0,0,0,,10,,,45,127
59014,note_off,218,0,0,,1,,,61,127
59015,note_on,1,0,0,,10,,,81,127
59230,note_off,215,0,0,,10,,,45,127
59230,note_off,0,0,0,,10,,,33,127
59233,note_off,3,0,0,,10,,,81,127
59234,note_on,1,0,0,,2,,,74,127
59288,note_off,54,0,0,,2,,,74,127
59289,note_on,1,0,0,,1,,,73,127
59343,note_off,54,0,0,,1,,,73,127
59344,note_on,1,0,0,,2,,,74,127
59398,note_off,54,0,0,,2,,,74,127
59399,note_on,1,0,0,,1,,,73,127
59453,note_off,54,0,0,,1,,,73,127
59454,note_on,1,0,0,,2,,,74,127
59454,note_on,0,0,0,,1,,,37,127
59454,note_on,0,0,0,,1,,,49,127
59508,note_off,54,0,0,,2,,,74,127
59509,note_on,1,0,0,,1,,,73,127
59563,note_off,54,0,0,,1,,,73,127
59564,note_on,1,0,0,,2,,,74,127
59618,note_off,54,0,0,,2,,,74,127
59619,note_on,1,0,0,,4,,,76,127
59673,note_off,54,0,0,,4,,,76,127
59673,note_off,0,0,0,,1,,,49,127
59673,note_off,0,0,0,,1,,,37,127
59674,note_on,1,0,0,,6,,,66,127
59674,note_on,0,0,0,,2,,,38,127
59674,note_on,0,0,0,,2,,,50,127
59892,note_off,218,0,0,,2,,,50,127
59892,note_off,0,0,0,,2,,,38,127
59892,note_off,0,0,0,,6,,,66,127
59893,note_on,1,0,0,,10,,,81,127
59893,note_on,0,0,0,,2,,,38,127
59893,note_on,0,0,0,,2,,,50,127
60111,note_off,218,0,0,,2,,,50,127
60111,note_off,0,0,0,,2,,,38,127
60111,note_off,0,0,0,,10,,,81,127
60112,note_on,1,0,0,,1,,,61,127
60112,note_on,0,0,0,,4,,,40,127
60112,note_on,0,0,0,,4,,,52,127
60166,note_off,54,0,0,,1,,,61,127
60167,note_on,1,0,0,,12,,,59,127
60221,note_off,54,0,0,,12,,,59,127
60222,note_on,1,0,0,,1,,,61,127
60276,note_off,54,0,0,,1,,,61,127
60277,note_on,1,0,0,,12,,,59,127
60331,note_off,54,0,0,,12,,,59,127
60331,note_off,0,0,0,,4,,,52,127
60331,note_off,0,0,0,,4,,,40,127
60332,note_on,1,0,0,,1,,,61,127
60332,note_on,0,0,0,,4,,,40,127
60332,note_on,0,0,0,,4,,,52,127
60386,note_off,54,0,0,,1,,,61,127
60387,note_on,1,0,0,,12,,,59,127
60441,note_off,54,0,0,,12,,,59,127
60442,note_on,1,0,0,,10,,,57,127
60496,note_off,54,0,0,,10,,,57,127
60497,note_on,1,0,0,,12,,,59,127
60551,note_off,54,0,0,,12,,,59,127
60551,note_off,0,0,0,,4,,,52,127
60551,note_off,0,0,0,,4,,,40,127
60552,note_on,1,0,0,,10,,,57,127
60552,note_on,0,0,0,,10,,,33,127
60552,note_on,0,0,0,,10,,,45,127
61209,note_off,657,0,0,,10,,,57,127
61428,note_off,219,0,0,,10,,,45,127
61428,note_off,0,0,0,,10,,,33,127
61429,note_on,1,0,0,,10,,,81,127
61647,note_off,218,0,0,,10,,,81,127
61648,note_on,1,0,0,,4,,,76,127
61757,note_off,109,0,0,,4,,,76,127
61758,note_on,1,0,0,,1,,,73,127
61867,note_off,109,0,0,,1,,,73,127
61868,note_on,1,0,0,,10,,,69,127
62086,note_off,218,0,0,,10,,,69,127
62087,note_on,1,0,0,,4,,,64,127
62305,note_off,218,0,0,,4,,,64,127
62306,note_on,1,0,0,,10,,,69,127
62416,note_on,110,0,0,,10,,,57,127
62525,note_off,109,0,0,,10,,,57,127
62526,note_on,1,0,0,,12,,,59,127
62635,note_off,109,0,0,,12,,,59,127
62636,note_on,1,0,0,,1,,,61,127
62745,note_off,109,0,0,,1,,,61,127
62746,note_on,1,0,0,,2,,,62,127
62855,note_off,109,0,0,,2,,,62,127
62856,note_on,1,0,0,,6,,,66,127
62965,note_off,109,0,0,,6,,,66,127
62966,note_on,1,0,0,,4,,,64,127
63016,note_off,50,0,0,,10,,,69,127
63074,note_off,58,0,0,,4,,,64,127
63075,note_on,1,0,0,,12,,,71,127
63075,note_on,0,0,0,,2,,,62,127
63129,note_off,54,0,0,,12,,,71,127
63130,note_on,1,0,0,,8,,,68,127
63184,note_off,54,0,0,,8,,,68,127
63184,note_off,0,0,0,,2,,,62,127
63185,note_on,1,0,0,,10,,,69,127
63295,note_on,110,0,0,,10,,,57,127
63404,note_off,109,0,0,,10,,,57,127
63405,note_on,1,0,0,,12,,,59,127
63514,note_off,109,0,0,,12,,,59,127
63515,note_on,1,0,0,,1,,,61,127
63624,note_off,109,0,0,,1,,,61,127
63625,note_on,1,0,0,,2,,,62,127
63734,note_off,109,0,0,,2,,,62,127
63735,note_on,1,0,0,,6,,,66,127
63844,note_off,109,0,0,,6,,,66,127
63845,note_on,1,0,0,,4,,,64,127
63895,note_off,50,0,0,,10,,,69,127
63953,note_off,58,0,0,,4,,,64,127
63954,note_on,1,0,0,,12,,,71,127
63954,note_on,0,0,0,,2,,,62,127
64008,note_off,54,0,0,,12,,,71,127
64009,note_on,1,0,0,,8,,,68,127
64063,note_off,54,0,0,,8,,,68,127
64063,note_off,0,0,0,,2,,,62,127
64064,note_on,1,0,0,,10,,,69,127
64064,note_on,0,0,0,,1,,,61,127
64173,note_off,109,0,0,,1,,,61,127
64174,note_on,1,0,0,,2,,,62,127
64283,note_off,109,0,0,,2,,,62,127
64284,note_on,1,0,0,,1,,,61,127
64393,note_off,109,0,0,,1,,,61,127
64394,note_on,1,0,0,,12,,,59,127
64503,note_off,109,0,0,,12,,,59,127
64504,note_on,1,0,0,,10,,,57,127
64613,note_off,109,0,0,,10,,,57,127
64614,note_on,1,0,0,,12,,,59,127
64723,note_off,109,0,0,,12,,,59,127
64723,note_off,0,0,0,,10,,,69,127
64724,note_on,1,0,0,,12,,,71,127
64724,note_on,0,0,0,,10,,,57,127
64833,note_off,109,0,0,,10,,,57,127
64833,note_off,0,0,0,,12,,,71,127
64834,note_on,1,0,0,,1,,,73,127
64834,note_on,0,0,0,,7,,,55,127
64943,note_off,109,0,0,,7,,,55,127
64943,note_off,0,0,0,,1,,,73,127
64944,note_on,1,0,0,,2,,,74,127
64944,note_on,0,0,0,,6,,,54,127
65053,note_off,109,0,0,,6,,,54,127
65054,note_on,1,0,0,,2,,,50,127
65163,note_off,109,0,0,,2,,,50,127
65164,note_on,1,0,0,,4,,,52,127
65273,note_off,109,0,0,,4,,,52,127
65274,note_on,1,0,0,,6,,,54,127
65383,note_off,109,0,0,,6,,,54,127
65384,note_on,1,0,0,,7,,,55,127
65493,note_off,109,0,0,,7,,,55,127
65494,note_on,1,0,0,,12,,,59,127
65603,note_off,109,0,0,,12,,,59,127
65604,note_on,1,0,0,,10,,,57,127
65654,note_off,50,0,0,,2,,,74,127
65712,note_off,58,0,0,,10,,,57,127
65713,note_on,1,0,0,,4,,,76,127
65713,note_on,0,0,0,,7,,,55,127
65767,note_off,54,0,0,,4,,,76,127
65768,note_on,1,0,0,,1,,,73,127
65822,note_off,54,0,0,,1,,,73,127
65822,note_off,0,0,0,,7,,,55,127
65823,note_on,1,0,0,,2,,,74,127
65823,note_on,0,0,0,,6,,,54,127
65932,note_off,109,0,0,,6,,,54,127
65933,note_on,1,0,0,,2,,,50,127
66042,note_off,109,0,0,,2,,,50,127
66043,note_on,1,0,0,,2,,,62,127
66043,note_on,0,0,0,,4,,,52,127
66152,note_off,109,0,0,,4,,,52,127
66153,note_on,1,0,0,,6,,,54,127
66262,note_off,109,0,0,,6,,,54,127
66263,note_on,1,0,0,,7,,,55,127
66372,note_off,109,0,0,,7,,,55,127
66373,note_on,1,0,0,,11,,,58,127
66482,note_off,109,0,0,,11,,,58,127
66482,note_off,0,0,0,,2,,,62,127
66482,note_off,0,0,0,,2,,,74,127
66483,note_on,1,0,0,,1,,,73,127
66483,note_on,0,0,0,,10,,,57,127
66592,note_off,109,0,0,,10,,,57,127
66593,note_on,1,0,0,,7,,,55,127
66702,note_off,109,0,0,,7,,,55,127
66702,note_off,0,0,0,,1,,,73,127
66703,note_on,1,0,0,,2,,,74,127
66703,note_on,0,0,0,,6,,,54,127
66812,note_off,109,0,0,,6,,,54,127
66813,note_on,1,0,0,,2,,,50,127
66922,note_off,109,0,0,,2,,,50,127
66923,note_on,1,0,0,,2,,,62,127
66923,note_on,0,0,0,,4,,,52,127
67032,note_off,109,0,0,,4,,,52,127
67033,note_on,1,0,0,,6,,,54,127
67142,note_off,109,0,0,,6,,,54,127
67143,note_on,1,0,0,,7,,,55,127
67252,note_off,109,0,0,,7,,,55,127
67253,note_on,1,0,0,,11,,,58,127
67362,note_off,109,0,0,,11,,,58,127
67362,note_off,0,0,0,,2,,,62,127
67362,note_off,0,0,0,,2,,,74,127
67363,note_on,1,0,0,,4,,,76,127
67363,note_on,0,0,0,,10,,,57,127
67472,note_off,109,0,0,,10,,,57,127
67473,note_on,1,0,0,,7,,,55,127
67582,note_off,109,0,0,,7,,,55,127
67582,note_off,0,0,0,,4,,,76,127
67583,note_on,1,0,0,,5,,,77,127
67583,note_on,0,0,0,,10,,,57,127
67692,note_off,109,0,0,,10,,,57,127
67693,note_on,1,0,0,,5,,,53,127
67802,note_off,109,0,0,,5,,,53,127
67803,note_on,1,0,0,,5,,,65,127
67803,note_on,0,0,0,,7,,,55,127
67912,note_off,109,0,0,,7,,,55,127
67913,note_on,1,0,0,,10,,,57,127
68022,note_off,109,0,0,,10,,,57,127
68023,note_on,1,0,0,,11,,,58,127
68132,note_off,109,0,0,,11,,,58,127
68133,note_on,1,0,0,,2,,,62,127
68242,note_off,109,0,0,,2,,,62,127
68242,note_off,0,0,0,,5,,,65,127
68242,note_off,0,0,0,,5,,,77,127
68243,note_on,1,0,0,,4,,,76,127
68243,note_on,0,0,0,,0,,,60,127
68352,note_off,109,0,0,,0,,,60,127
68353,note_on,1,0,0,,11,,,58,127
68462,note_off,109,0,0,,11,,,58,127
68462,note_off,0,0,0,,4,,,76,127
68463,note_on,1,0,0,,5,,,77,127
68463,note_on,0,0,0,,10,,,57,127
68572,note_off,109,0,0,,10,,,57,127
68573,note_on,1,0,0,,5,,,53,127
68682,note_off,109,0,0,,5,,,53,127
68683,note_on,1,0,0,,5,,,65,127
68683,note_on,0,0,0,,7,,,55,127
68792,note_off,109,0,0,,7,,,55,127
68793,note_on,1,0,0,,10,,,57,127
68902,note_off,109,0,0,,10,,,57,127
68903,note_on,1,0,0,,11,,,58,127
69012,note_off,109,0,0,,11,,,58,127
69013,note_on,1,0,0,,2,,,62,127
69122,note_off,109,0,0,,2,,,62,127
69122,note_off,0,0,0,,5,,,65,127
69122,note_off,0,0,0,,5,,,77,127
69123,note_on,1,0,0,,7,,,79,127
69123,note_on,0,0,0,,0,,,60,127
69232,note_off,109,0,0,,0,,,60,127
69233,note_on,1,0,0,,11,,,58,127
69342,note_off,109,0,0,,11,,,58,127
69342,note_off,0,0,0,,7,,,79,127
69343,note_on,1,0,0,,10,,,81,127
69343,note_on,0,0,0,,10,,,57,127
69452,note_off,109,0,0,,10,,,57,127
69453,note_on,1,0,0,,12,,,59,127
69562,note_off,109,0,0,,12,,,59,127
69563,note_on,1,0,0,,10,,,69,127
69563,note_on,0,0,0,,1,,,61,127
69672,note_off,109,0,0,,1,,,61,127
69673,note_on,1,0,0,,10,,,57,127
69782,note_off,109,0,0,,10,,,57,127
69783,note_on,1,0,0,,2,,,62,127
69892,note_off,109,0,0,,2,,,62,127
69893,note_on,1,0,0,,5,,,65,127
70002,note_off,109,0,0,,5,,,65,127
70002,note_off,0,0,0,,10,,,69,127
70002,note_off,0,0,0,,10,,,81,127
70003,note_on,1,0,0,,8,,,80,127
70003,note_on,0,0,0,,4,,,64,127
70112,note_off,109,0,0,,4,,,64,127
70113,note_on,1,0,0,,2,,,62,127
70222,note_off,109,0,0,,2,,,62,127
70222,note_off,0,0,0,,8,,,80,127
70223,note_on,1,0,0,,10,,,81,127
70223,note_on,0,0,0,,1,,,61,127
70332,note_off,109,0,0,,1,,,61,127
70333,note_on,1,0,0,,10,,,57,127
70442,note_off,109,0,0,,10,,,57,127
70443,note_on,1,0,0,,10,,,69,127
70443,note_on,0,0,0,,12,,,59,127
70552,note_off,109,0,0,,12,,,59,127
70553,note_on,1,0,0,,1,,,61,127
70662,note_off,109,0,0,,1,,,61,127
70663,note_on,1,0,0,,2,,,62,127
70772,note_off,109,0,0,,2,,,62,127
70773,note_on,1,0,0,,5,,,65,127
70882,note_off,109,0,0,,5,,,65,127
70882,note_off,0,0,0,,10,,,69,127
70882,note_off,0,0,0,,10,,,81,127
70883,note_on,1,0,0,,2,,,74,127
70883,note_on,0,0,0,,4,,,64,127
70992,note_off,109,0,0,,4,,,64,127
70993,note_on,1,0,0,,2,,,62,127
71102,note_off,109,0,0,,2,,,62,127
71102,note_off,0,0,0,,2,,,74,127
71103,note_on,1,0,0,,7,,,79,127
71103,note_on,0,0,0,,11,,,58,127
71212,note_off,109,0,0,,11,,,58,127
71213,note_on,1,0,0,,7,,,67,127
71322,note_off,109,0,0,,7,,,67,127
71322,note_off,0,0,0,,7,,,79,127
71323,note_on,1,0,0,,10,,,81,127
71323,note_on,0,0,0,,10,,,57,127
71432,note_off,109,0,0,,10,,,57,127
71433,note_on,1,0,0,,5,,,65,127
71542,note_off,109,0,0,,5,,,65,127
71542,note_off,0,0,0,,10,,,81,127
71543,note_on,1,0,0,,11,,,82,127
71543,note_on,0,0,0,,7,,,55,127
71652,note_off,109,0,0,,7,,,55,127
71653,note_on,1,0,0,,4,,,64,127
71762,note_off,109,0,0,,4,,,64,127
71762,note_off,0,0,0,,11,,,82,127
71763,note_on,1,0,0,,10,,,81,127
71763,note_on,0,0,0,,5,,,53,127
71872,note_off,109,0,0,,5,,,53,127
71873,note_on,1,0,0,,2,,,62,127
71982,note_off,109,0,0,,2,,,62,127
71982,note_off,0,0,0,,10,,,81,127
71983,note_on,1,0,0,,7,,,79,127
71983,note_on,0,0,0,,4,,,52,127
72092,note_off,109,0,0,,4,,,52,127
72093,note_on,1,0,0,,1,,,61,127
72202,note_off,109,0,0,,1,,,61,127
72202,note_off,0,0,0,,7,,,79,127
72203,note_on,1,0,0,,5,,,77,127
72203,note_on,0,0,0,,2,,,50,127
72312,note_off,109,0,0,,2,,,50,127
72313,note_on,1,0,0,,2,,,62,127
72422,note_off,109,0,0,,2,,,62,127
72422,note_off,0,0,0,,5,,,77,127
72423,note_on,1,0,0,,4,,,76,127
72423,note_on,0,0,0,,7,,,43,127
72641,note_off,218,0,0,,7,,,43,127
72641,note_off,0,0,0,,4,,,76,127
72642,note_on,1,0,0,,4,,,76,127
72642,note_on,0,0,0,,11,,,46,127
72696,note_off,54,0,0,,4,,,76,127
72697,note_on,1,0,0,,2,,,74,127
72751,note_off,54,0,0,,2,,,74,127
72752,note_on,1,0,0,,1,,,73,127
72806,note_off,54,0,0,,1,,,73,127
72807,note_on,1,0,0,,2,,,74,127
72861,note_off,54,0,0,,2,,,74,127
72861,note_off,0,0,0,,11,,,46,127
72862,note_on,1,0,0,,4,,,76,127
72862,note_on,0,0,0,,10,,,45,127
73080,note_off,218,0,0,,10,,,45,127
73081,note_on,1,0,0,,10,,,45,127
73299,note_off,218,0,0,,10,,,45,127
73299,note_off,0,0,0,,4,,,76,127
73300,note_on,1,0,0,,4,,,76,127
73300,note_on,0,0,0,,11,,,46,127
73354,note_off,54,0,0,,4,,,76,127
73355,note_on,1,0,0,,2,,,74,127
73409,note_off,54,0,0,,2,,,74,127
73410,note_on,1,0,0,,4,,,76,127
73464,note_off,54,0,0,,4,,,76,127
73465,note_on,1,0,0,,2,,,74,127
73519,note_off,54,0,0,,2,,,74,127
73519,note_off,0,0,0,,11,,,46,127
73520,note_on,1,0,0,,4,,,76,127
73520,note_on,0,0,0,,11,,,46,127
73574,note_off,54,0,0,,4,,,76,127
73575,note_on,1,0,0,,2,,,74,127
73629,note_off,54,0,0,,2,,,74,127
73630,note_on,1,0,0,,1,,,73,127
73684,note_off,54,0,0,,1,,,73,127
73685,note_on,1,0,0,,2,,,74,127
73739,note_off,54,0,0,,2,,,74,127
73739,note_off,0,0,0,,11,,,46,127
73740,note_on,1,0,0,,2,,,74,127
73740,note_on,0,0,0,,10,,,45,127
73958,note_off,218,0,0,,2,,,74,127
73959,note_on,1,0,0,,4,,,76,127
74178,note_on,219,0,0,,10,,,33,127
74393,note_off,215,0,0,,4,,,76,127
74396,note_off,3,0,0,,10,,,45,127
74498,note_off,102,0,0,,10,,,33,127
74617,note_on,119,0,0,,5,,,41,127
74727,note_on,110,0,0,,5,,,53,127
74836,note_off,109,0,0,,5,,,53,127
74837,note_on,1,0,0,,10,,,57,127
74946,note_off,109,0,0,,10,,,57,127
74947,note_on,1,0,0,,0,,,60,127
75056,note_off,109,0,0,,0,,,60,127
75057,note_on,1,0,0,,5,,,65,127
75166,note_off,109,0,0,,5,,,65,127
75167,note_on,1,0,0,,10,,,69,127
75276,note_off,109,0,0,,10,,,69,127
75277,note_on,1,0,0,,0,,,72,127
75386,note_off,109,0,0,,0,,,72,127
75387,note_on,1,0,0,,5,,,77,127
75496,note_off,109,0,0,,5,,,77,127
75496,note_off,0,0,0,,5,,,41,127
75497,note_on,1,0,0,,4,,,76,127
75497,note_on,0,0,0,,0,,,48,127
75497,note_on,0,0,0,,0,,,36,127
75606,note_off,109,0,0,,4,,,76,127
75607,note_on,1,0,0,,0,,,72,127
75716,note_off,109,0,0,,0,,,72,127
75717,note_on,1,0,0,,7,,,67,127
75826,note_off,109,0,0,,7,,,67,127
75827,note_on,1,0,0,,4,,,64,127
75936,note_off,109,0,0,,4,,,64,127
75937,note_on,1,0,0,,0,,,60,127
76046,note_off,109,0,0,,0,,,60,127
76047,note_on,1,0,0,,7,,,55,127
76156,note_off,109,0,0,,7,,,55,127
76157,note_on,1,0,0,,4,,,52,127
76258,note_off,101,0,0,,0,,,48,127
76266,note_off,8,0,0,,4,,,52,127
76267,note_on,1,0,0,,0,,,48,127
76376,note_off,109,0,0,,0,,,48,127
76376,note_off,0,0,0,,0,,,36,127
76377,note_on,1,0,0,,7,,,43,127
76487,note_on,110,0,0,,7,,,55,127
76596,note_off,109,0,0,,7,,,55,127
76597,note_on,1,0,0,,11,,,58,127
76706,note_off,109,0,0,,11,,,58,127
76707,note_on,1,0,0,,2,,,62,127
76816,note_off,109,0,0,,2,,,62,127
76817,note_on,1,0,0,,7,,,67,127
76926,note_off,109,0,0,,7,,,67,127
76927,note_on,1,0,0,,11,,,70,127
77036,note_off,109,0,0,,11,,,70,127
77037,note_on,1,0,0,,2,,,74,127
77146,note_off,109,0,0,,2,,,74,127
77147,note_on,1,0,0,,7,,,79,127
77256,note_off,109,0,0,,7,,,79,127
77256,note_off,0,0,0,,7,,,43,127
77257,note_on,1,0,0,,5,,,77,127
77257,note_on,0,0,0,,2,,,50,127
77257,note_on,0,0,0,,2,,,38,127
77366,note_off,109,0,0,,5,,,77,127
77367,note_on,1,0,0,,2,,,74,127
77476,note_off,109,0,0,,2,,,74,127
77477,note_on,1,0,0,,10,,,69,127
77586,note_off,109,0,0,,10,,,69,127
77587,note_on,1,0,0,,5,,,65,127
77696,note_off,109,0,0,,5,,,65,127
77697,note_on,1,0,0,,2,,,62,127
77806,note_off,109,0,0,,2,,,62,127
77807,note_on,1,0,0,,10,,,57,127
77916,note_off,109,0,0,,10,,,57,127
77917,note_on,1,0,0,,5,,,53,127
78018,note_off,101,0,0,,2,,,50,127
78026,note_off,8,0,0,,5,,,53,127
78027,note_on,1,0,0,,2,,,50,127
78136,note_off,109,0,0,,2,,,50,127
78136,note_off,0,0,0,,2,,,38,127
78137,note_on,1,0,0,,10,,,45,127
78247,note_on,110,0,0,,10,,,69,127
78356,note_off,109,0,0,,10,,,69,127
78357,note_on,1,0,0,,8,,,68,127
78466,note_off,109,0,0,,8,,,68,127
78467,note_on,1,0,0,,10,,,69,127
78576,note_off,109,0,0,,10,,,69,127
78577,note_on,1,0,0,,8,,,68,127
78686,note_off,109,0,0,,8,,,68,127
78687,note_off,1,0,0,,10,,,45,127
78687,note_on,0,0,0,,10,,,69,127
78796,note_off,109,0,0,,10,,,69,127
78797,note_on,1,0,0,,8,,,68,127
78797,note_on,0,0,0,,10,,,57,127
78906,note_off,109,0,0,,8,,,68,127
78907,note_on,1,0,0,,10,,,69,127
79016,note_off,109,0,0,,10,,,69,127
79016,note_off,0,0,0,,10,,,57,127
79017,note_on,1,0,0,,7,,,67,127
79017,note_on,0,0,0,,11,,,58,127
79017,note_on,0,0,0,,2,,,62,127
79127,note_on,110,0,0,,2,,,74,127
79236,note_off,109,0,0,,2,,,74,127
79236,note_off,0,0,0,,2,,,62,127
79236,note_off,0,0,0,,11,,,58,127
79237,note_on,1,0,0,,1,,,73,127
79237,note_on,0,0,0,,2,,,62,127
79237,note_on,0,0,0,,11,,,58,127
79346,note_off,109,0,0,,1,,,73,127
79347,note_on,1,0,0,,2,,,74,127
79456,note_off,109,0,0,,2,,,74,127
79456,note_off,0,0,0,,11,,,58,127
79456,note_off,0,0,0,,2,,,62,127
79457,note_on,1,0,0,,1,,,73,127
79457,note_on,0,0,0,,2,,,62,127
79457,note_on,0,0,0,,11,,,58,127
79566,note_off,109,0,0,,1,,,73,127
79567,note_on,1,0,0,,2,,,74,127
79676,note_off,109,0,0,,2,,,74,127
79676,note_off,0,0,0,,11,,,58,127
79676,note_off,0,0,0,,2,,,62,127
79677,note_on,1,0,0,,1,,,73,127
79677,note_on,0,0,0,,11,,,58,127
79677,note_on,0,0,0,,2,,,62,127
79786,note_off,109,0,0,,1,,,73,127
79787,note_on,1,0,0,,2,,,74,127
79896,note_off,109,0,0,,2,,,74,127
79896,note_off,0,0,0,,2,,,62,127
79896,note_off,0,0,0,,11,,,58,127
79896,note_off,0,0,0,,7,,,67,127
79897,note_on,1,0,0,,4,,,76,127
79897,note_on,0,0,0,,4,,,64,127
79897,note_on,0,0,0,,10,,,57,127
80007,note_on,110,0,0,,10,,,69,127
80116,note_off,109,0,0,,10,,,69,127
80116,note_off,0,0,0,,10,,,57,127
80116,note_off,0,0,0,,4,,,64,127
80117,note_on,1,0,0,,8,,,68,127
80117,note_on,0,0,0,,10,,,57,127
80117,note_on,0,0,0,,4,,,64,127
80226,note_off,109,0,0,,8,,,68,127
80227,note_on,1,0,0,,10,,,69,127
80336,note_off,109,0,0,,10,,,69,127
80336,note_off,0,0,0,,4,,,64,127
80336,note_off,0,0,0,,10,,,57,127
80337,note_on,1,0,0,,8,,,68,127
80337,note_on,0,0,0,,4,,,64,127
80337,note_on,0,0,0,,10,,,57,127
80446,note_off,109,0,0,,8,,,68,127
80447,note_on,1,0,0,,10,,,69,127
80556,note_off,109,0,0,,10,,,69,127
80556,note_off,0,0,0,,10,,,57,127
80556,note_off,0,0,0,,4,,,64,127
80557,note_on,1,0,0,,8,,,68,127
80557,note_on,0,0,0,,4,,,64,127
80557,note_on,0,0,0,,10,,,57,127
80666,note_off,109,0,0,,8,,,68,127
80667,note_on,1,0,0,,10,,,69,127
80776,note_off,109,0,0,,10,,,69,127
80776,note_off,0,0,0,,10,,,57,127
80776,note_off,0,0,0,,4,,,64,127
80776,note_off,0,0,0,,4,,,76,127
80777,note_on,1,0,0,,7,,,67,127
80777,note_on,0,0,0,,11,,,58,127
80777,note_on,0,0,0,,2,,,62,127
80887,note_on,110,0,0,,2,,,74,127
80996,note_off,109,0,0,,2,,,74,127
80996,note_off,0,0,0,,2,,,62,127
80996,note_off,0,0,0,,11,,,58,127
80997,note_on,1,0,0,,1,,,73,127
80997,note_on,0,0,0,,2,,,62,127
80997,note_on,0,0,0,,11,,,58,127
81106,note_off,109,0,0,,1,,,73,127
81107,note_on,1,0,0,,2,,,74,127
81216,note_off,109,0,0,,2,,,74,127
81216,note_off,0,0,0,,11,,,58,127
81216,note_off,0,0,0,,2,,,62,127
81217,note_on,1,0,0,,1,,,73,127
81217,note_on,0,0,0,,11,,,58,127
81217,note_on,0,0,0,,2,,,62,127
81326,note_off,109,0,0,,1,,,73,127
81327,note_on,1,0,0,,2,,,74,127
81436,note_off,109,0,0,,2,,,74,127
81436,note_off,0,0,0,,2,,,62,127
81436,note_off,0,0,0,,11,,,58,127
81437,note_on,1,0,0,,1,,,73,127
81437,note_on,0,0,0,,2,,,62,127
81437,note_on,0,0,0,,11,,,58,127
81546,note_off,109,0,0,,1,,,73,127
81547,note_on,1,0,0,,2,,,74,127
81656,note_off,109,0,0,,2,,,74,127
81656,note_off,0,0,0,,11,,,58,127
81656,note_off,0,0,0,,2,,,62,127
81656,note_off,0,0,0,,7,,,67,127
81657,note_on,1,0,0,,4,,,76,127
81657,note_on,0,0,0,,4,,,64,127
81657,note_on,0,0,0,,10,,,57,127
81767,note_on,110,0,0,,10,,,69,127
81876,note_off,109,0,0,,10,,,69,127
81876,note_off,0,0,0,,10,,,57,127
81876,note_off,0,0,0,,4,,,64,127
81877,note_on,1,0,0,,8,,,68,127
81877,note_on,0,0,0,,4,,,64,127
81877,note_on,0,0,0,,10,,,57,127
81986,note_off,109,0,0,,8,,,68,127
81987,note_on,1,0,0,,10,,,69,127
82092,note_off,105,0,0,,4,,,76,127
82095,note_off,3,0,0,,10,,,69,127
82095,note_off,0,0,0,,10,,,57,127
82095,note_off,0,0,0,,4,,,64,127
82096,note_on,1,0,0,,7,,,67,127
82096,note_on,0,0,0,,2,,,62,127
82096,note_on,0,0,0,,11,,,58,127
82206,note_on,110,0,0,,2,,,74,127
82315,note_off,109,0,0,,2,,,74,127
82315,note_off,0,0,0,,11,,,58,127
82315,note_off,0,0,0,,2,,,62,127
82316,note_on,1,0,0,,1,,,73,127
82316,note_on,0,0,0,,11,,,58,127
82316,note_on,0,0,0,,2,,,62,127
82425,note_off,109,0,0,,1,,,73,127
82426,note_on,1,0,0,,2,,,74,127
82531,note_off,105,0,0,,7,,,67,127
82534,note_off,3,0,0,,2,,,74,127
82534,note_off,0,0,0,,2,,,62,127
82534,note_off,0,0,0,,11,,,58,127
82535,note_on,1,0,0,,4,,,76,127
82535,note_on,0,0,0,,10,,,57,127
82535,note_on,0,0,0,,4,,,64,127
82645,note_on,110,0,0,,10,,,69,127
82754,note_off,109,0,0,,10,,,69,127
82754,note_off,0,0,0,,4,,,64,127
82754,note_off,0,0,0,,10,,,57,127
82755,note_on,1,0,0,,8,,,68,127
82755,note_on,0,0,0,,10,,,57,127
82755,note_on,0,0,0,,4,,,64,127
82864,note_off,109,0,0,,8,,,68,127
82865,note_on,1,0,0,,10,,,69,127
82970,note_off,105,0,0,,4,,,76,127
82973,note_off,3,0,0,,10,,,69,127
82973,note_off,0,0,0,,4,,,64,127
82973,note_off,0,0,0,,10,,,57,127
82974,note_on,1,0,0,,7,,,67,127
82974,note_on,0,0,0,,11,,,58,127
82974,note_on,0,0,0,,2,,,62,127
83084,note_on,110,0,0,,2,,,74,127
83193,note_off,109,0,0,,2,,,74,127
83193,note_off,0,0,0,,2,,,62,127
83193,note_off,0,0,0,,11,,,58,127
83194,note_on,1,0,0,,1,,,73,127
83194,note_on,0,0,0,,11,,,58,127
83194,note_on,0,0,0,,2,,,62,127
83303,note_off,109,0,0,,1,,,73,127
83304,note_on,1,0,0,,2,,,74,127
83409,note_off,105,0,0,,7,,,67,127
83412,note_off,3,0,0,,2,,,74,127
83412,note_off,0,0,0,,2,,,62,127
83412,note_off,0,0,0,,11,,,58,127
83413,note_on,1,0,0,,10,,,69,127
83413,note_on,0,0,0,,2,,,74,127
83413,note_on,0,0,0,,10,,,57,127
83522,note_off,109,0,0,,10,,,57,127
83523,note_on,1,0,0,,2,,,62,127
83632,note_off,109,0,0,,2,,,62,127
83632,note_off,0,0,0,,2,,,74,127
83633,note_on,1,0,0,,4,,,76,127
83633,note_on,0,0,0,,1,,,61,127
83742,note_off,109,0,0,,1,,,61,127
83743,note_on,1,0,0,,2,,,62,127
83848,note_off,105,0,0,,10,,,69,127
83850,note_off,2,0,0,,4,,,76,127
83851,note_off,1,0,0,,2,,,62,127
83852,note_on,1,0,0,,1,,,61,127
83961,note_off,109,0,0,,1,,,61,127
83962,note_on,1,0,0,,4,,,64,127
84071,note_off,109,0,0,,4,,,64,127
84072,note_on,1,0,0,,10,,,81,127
84072,note_on,0,0,0,,10,,,57,127
84181,note_off,109,0,0,,10,,,57,127
84182,note_on,1,0,0,,1,,,61,127
84291,note_off,109,0,0,,1,,,61,127
84291,note_off,0,0,0,,10,,,81,127
84292,note_on,1,0,0,,2,,,86,127
84292,note_on,0,0,0,,6,,,54,127
84401,note_off,109,0,0,,6,,,54,127
84402,note_on,1,0,0,,10,,,57,127
84511,note_off,109,0,0,,10,,,57,127
84511,note_off,0,0,0,,2,,,86,127
84512,note_on,1,0,0,,10,,,81,127
84512,note_on,0,0,0,,2,,,50,127
84621,note_off,109,0,0,,2,,,50,127
84622,note_on,1,0,0,,10,,,57,127
84731,note_off,109,0,0,,10,,,57,127
84731,note_off,0,0,0,,10,,,81,127
84732,note_on,1,0,0,,12,,,83,127
84732,note_on,0,0,0,,1,,,49,127
84786,note_off,54,0,0,,12,,,83,127
84787,note_on,1,0,0,,10,,,81,127
84841,note_off,54,0,0,,10,,,81,127
84841,note_off,0,0,0,,1,,,49,127
84842,note_on,1,0,0,,12,,,83,127
84842,note_on,0,0,0,,10,,,57,127
84896,note_off,54,0,0,,12,,,83,127
84897,note_on,1,0,0,,10,,,81,127
84951,note_off,54,0,0,,10,,,81,127
84951,note_off,0,0,0,,10,,,57,127
84952,note_on,1,0,0,,12,,,83,127
84952,note_on,0,0,0,,10,,,45,127
85006,note_off,54,0,0,,12,,,83,127
85007,note_on,1,0,0,,10,,,81,127
85061,note_off,54,0,0,,10,,,81,127
85061,note_off,0,0,0,,10,,,45,127
85062,note_on,1,0,0,,7,,,79,127
85062,note_on,0,0,0,,10,,,57,127
85116,note_off,54,0,0,,7,,,79,127
85117,note_on,1,0,0,,10,,,81,127
85171,note_off,54,0,0,,10,,,81,127
85171,note_off,0,0,0,,10,,,57,127
85172,note_on,1,0,0,,2,,,86,127
85172,note_on,0,0,0,,2,,,50,127
85281,note_off,109,0,0,,2,,,50,127
85282,note_on,1,0,0,,2,,,62,127
85389,note_off,107,0,0,,2,,,86,127
85390,note_off,1,0,0,,2,,,62,127
85391,note_on,1,0,0,,1,,,61,127
85500,note_off,109,0,0,,1,,,61,127
85501,note_on,1,0,0,,2,,,62,127
85610,note_off,109,0,0,,2,,,62,127
85611,note_on,1,0,0,,1,,,61,127
85720,note_off,109,0,0,,1,,,61,127
85721,note_on,1,0,0,,4,,,64,127
85830,note_off,109,0,0,,4,,,64,127
85831,note_on,1,0,0,,10,,,81,127
85831,note_on,0,0,0,,10,,,57,127
85940,note_off,109,0,0,,10,,,57,127
85941,note_on,1,0,0,,1,,,61,127
86050,note_off,109,0,0,,1,,,61,127
86050,note_off,0,0,0,,10,,,81,127
86051,note_on,1,0,0,,2,,,86,127
86051,note_on,0,0,0,,6,,,54,127
86160,note_off,109,0,0,,6,,,54,127
86161,note_on,1,0,0,,10,,,57,127
86270,note_off,109,0,0,,10,,,57,127
86270,note_off,0,0,0,,2,,,86,127
86271,note_on,1,0,0,,10,,,81,127
86271,note_on,0,0,0,,2,,,50,127
86380,note_off,109,0,0,,2,,,50,127
86381,note_on,1,0,0,,10,,,57,127
86490,note_off,109,0,0,,10,,,57,127
86490,note_off,0,0,0,,10,,,81,127
86491,note_on,1,0,0,,12,,,83,127
86491,note_on,0,0,0,,1,,,49,127
86545,note_off,54,0,0,,12,,,83,127
86546,note_on,1,0,0,,10,,,81,127
86600,note_off,54,0,0,,10,,,81,127
86600,note_off,0,0,0,,1,,,49,127
86601,note_on,1,0,0,,12,,,83,127
86601,note_on,0,0,0,,10,,,57,127
86655,note_off,54,0,0,,12,,,83,127
86656,note_on,1,0,0,,10,,,81,127
86710,note_off,54,0,0,,10,,,81,127
86710,note_off,0,0,0,,10,,,57,127
86711,note_on,1,0,0,,12,,,83,127
86711,note_on,0,0,0,,10,,,45,127
86765,note_off,54,0,0,,12,,,83,127
86766,note_on,1,0,0,,10,,,81,127
86820,note_off,54,0,0,,10,,,81,127
86820,note_off,0,0,0,,10,,,45,127
86821,note_on,1,0,0,,7,,,79,127
86821,note_on,0,0,0,,10,,,57,127
86875,note_off,54,0,0,,7,,,79,127
86876,note_on,1,0,0,,10,,,81,127
86930,note_off,54,0,0,,10,,,81,127
86930,note_off,0,0,0,,10,,,57,127
86931,note_on,1,0,0,,2,,,86,127
86931,note_on,0,0,0,,2,,,50,127
87040,note_off,109,0,0,,2,,,50,127
87041,note_on,1,0,0,,2,,,62,127
87150,note_off,109,0,0,,2,,,62,127
87150,note_off,0,0,0,,2,,,86,127
87151,note_on,1,0,0,,10,,,81,127
87151,note_on,0,0,0,,6,,,66,127
87260,note_off,109,0,0,,6,,,66,127
87261,note_on,1,0,0,,2,,,62,127
87370,note_off,109,0,0,,2,,,62,127
87370,note_off,0,0,0,,10,,,81,127
87371,note_on,1,0,0,,12,,,83,127
87371,note_on,0,0,0,,7,,,43,127
87480,note_off,109,0,0,,7,,,43,127
87481,note_on,1,0,0,,7,,,55,127
87590,note_off,109,0,0,,7,,,55,127
87591,note_on,1,0,0,,7,,,79,127
87591,note_on,0,0,0,,12,,,59,127
87700,note_off,109,0,0,,12,,,59,127
87701,note_on,1,0,0,,7,,,55,127
87806,note_off,105,0,0,,12,,,83,127
87809,note_off,3,0,0,,7,,,55,127
87810,note_on,1,0,0,,1,,,85,127
87810,note_on,0,0,0,,10,,,33,127
87917,note_off,107,0,0,,7,,,79,127
87919,note_on,2,0,0,,4,,,76,127
88026,note_off,107,0,0,,1,,,85,127
88027,note_off,1,0,0,,4,,,76,127
88028,note_on,1,0,0,,2,,,86,127
88028,note_on,0,0,0,,6,,,78,127
88137,note_off,109,0,0,,6,,,78,127
88138,note_on,1,0,0,,2,,,74,127
88245,note_off,107,0,0,,2,,,86,127
88246,note_off,1,0,0,,2,,,74,127
88247,note_on,1,0,0,,4,,,76,127
88356,note_off,109,0,0,,4,,,76,127
88357,note_on,1,0,0,,2,,,86,127
88466,note_off,109,0,0,,2,,,86,127
88467,note_on,1,0,0,,4,,,76,127
88576,note_off,109,0,0,,4,,,76,127
88577,note_on,1,0,0,,1,,,85,127
88686,note_off,109,0,0,,1,,,85,127
88686,note_off,0,0,0,,10,,,33,127
88687,note_on,1,0,0,,2,,,86,127
88687,note_on,0,0,0,,2,,,38,127
88796,note_off,109,0,0,,2,,,38,127
88797,note_on,1,0,0,,2,,,62,127
88906,note_off,109,0,0,,2,,,62,127
88907,note_on,1,0,0,,1,,,61,127
89016,note_off,109,0,0,,1,,,61,127
89017,note_on,1,0,0,,2,,,62,127
89122,note_off,105,0,0,,2,,,86,127
89125,note_off,3,0,0,,2,,,62,127
89126,note_on,1,0,0,,1,,,61,127
89235,note_off,109,0,0,,1,,,61,127
89236,note_on,1,0,0,,4,,,64,127
89345,note_off,109,0,0,,4,,,64,127
89346,note_on,1,0,0,,10,,,81,127
89346,note_on,0,0,0,,10,,,57,127
89455,note_off,109,0,0,,10,,,57,127
89456,note_on,1,0,0,,1,,,61,127
89565,note_off,109,0,0,,1,,,61,127
89565,note_off,0,0,0,,10,,,81,127
89566,note_on,1,0,0,,2,,,86,127
89566,note_on,0,0,0,,6,,,54,127
89675,note_off,109,0,0,,6,,,54,127
89676,note_on,1,0,0,,10,,,57,127
89785,note_off,109,0,0,,10,,,57,127
89785,note_off,0,0,0,,2,,,86,127
89786,note_on,1,0,0,,10,,,81,127
89786,note_on,0,0,0,,2,,,50,127
89895,note_off,109,0,0,,2,,,50,127
89896,note_on,1,0,0,,10,,,57,127
90005,note_off,109,0,0,,10,,,57,127
90005,note_off,0,0,0,,10,,,81,127
90006,note_on,1,0,0,,12,,,83,127
90006,note_on,0,0,0,,1,,,49,127
90060,note_off,54,0,0,,12,,,83,127
90061,note_on,1,0,0,,10,,,81,127
90115,note_off,54,0,0,,10,,,81,127
90115,note_off,0,0,0,,1,,,49,127
90116,note_on,1,0,0,,12,,,83,127
90116,note_on,0,0,0,,10,,,57,127
90170,note_off,54,0,0,,12,,,83,127
90171,note_on,1,0,0,,10,,,81,127
90225,note_off,54,0,0,,10,,,81,127
90225,note_off,0,0,0,,10,,,57,127
90226,note_on,1,0,0,,12,,,83,127
90226,note_on,0,0,0,,10,,,45,127
90280,note_off,54,0,0,,12,,,83,127
90281,note_on,1,0,0,,10,,,81,127
90335,note_off,54,0,0,,10,,,81,127
90335,note_off,0,0,0,,10,,,45,127
90336,note_on,1,0,0,,7,,,79,127
90336,note_on,0,0,0,,10,,,57,127
90390,note_off,54,0,0,,7,,,79,127
90391,note_on,1,0,0,,10,,,81,127
90445,note_off,54,0,0,,10,,,81,127
90445,note_off,0,0,0,,10,,,57,127
90446,note_on,1,0,0,,2,,,86,127
90446,note_on,0,0,0,,2,,,50,127
90555,note_off,109,0,0,,2,,,50,127
90556,note_on,1,0,0,,2,,,62,127
90663,note_off,107,0,0,,2,,,86,127
90664,note_off,1,0,0,,2,,,62,127
90665,note_on,1,0,0,,1,,,61,127
90774,note_off,109,0,0,,1,,,61,127
90775,note_on,1,0,0,,2,,,62,127
90884,note_off,109,0,0,,2,,,62,127
90885,note_on,1,0,0,,1,,,61,127
90994,note_off,109,0,0,,1,,,61,127
90995,note_on,1,0,0,,4,,,64,127
91104,note_off,109,0,0,,4,,,64,127
91105,note_on,1,0,0,,10,,,81,127
91105,note_on,0,0,0,,10,,,57,127
91214,note_off,109,0,0,,10,,,57,127
91215,note_on,1,0,0,,1,,,61,127
91324,note_off,109,0,0,,1,,,61,127
91324,note_off,0,0,0,,10,,,81,127
91325,note_on,1,0,0,,2,,,86,127
91325,note_on,0,0,0,,6,,,54,127
91434,note_off,109,0,0,,6,,,54,127
91435,note_on,1,0,0,,10,,,57,127
91544,note_off,109,0,0,,10,,,57,127
91544,note_off,0,0,0,,2,,,86,127
91545,note_on,1,0,0,,10,,,81,127
91545,note_on,0,0,0,,2,,,50,127
91654,note_off,109,0,0,,2,,,50,127
91655,note_on,1,0,0,,10,,,57,127
91764,note_off,109,0,0,,10,,,57,127
91764,note_off,0,0,0,,10,,,81,127
91765,note_on,1,0,0,,12,,,83,127
91765,note_on,0,0,0,,1,,,49,127
91819,note_off,54,0,0,,12,,,83,127
91820,note_on,1,0,0,,10,,,81,127
91874,note_off,54,0,0,,10,,,81,127
91874,note_off,0,0,0,,1,,,49,127
91875,note_on,1,0,0,,12,,,83,127
91875,note_on,0,0,0,,10,,,57,127
91929,note_off,54,0,0,,12,,,83,127
91930,note_on,1,0,0,,10,,,81,127
91984,note_off,54,0,0,,10,,,81,127
91984,note_off,0,0,0,,10,,,57,127
91985,note_on,1,0,0,,12,,,83,127
91985,note_on,0,0,0,,10,,,45,127
92039,note_off,54,0,0,,12,,,83,127
92040,note_on,1,0,0,,10,,,81,127
92094,note_off,54,0,0,,10,,,81,127
92094,note_off,0,0,0,,10,,,45,127
92095,note_on,1,0,0,,7,,,79,127
92095,note_on,0,0,0,,10,,,57,127
92149,note_off,54,0,0,,7,,,79,127
92150,note_on,1,0,0,,10,,,81,127
92204,note_off,54,0,0,,10,,,81,127
92204,note_off,0,0,0,,10,,,57,127
92205,note_on,1,0,0,,2,,,86,127
92205,note_on,0,0,0,,2,,,50,127
92314,note_off,109,0,0,,2,,,50,127
92315,note_on,1,0,0,,2,,,62,127
92424,note_off,109,0,0,,2,,,62,127
92424,note_off,0,0,0,,2,,,86,127
92425,note_on,1,0,0,,10,,,81,127
92425,note_on,0,0,0,,6,,,66,127
92534,note_off,109,0,0,,6,,,66,127
92535,note_on,1,0,0,,2,,,62,127
92644,note_off,109,0,0,,2,,,62,127
92644,note_off,0,0,0,,10,,,81,127
92645,note_on,1,0,0,,12,,,83,127
92645,note_on,0,0,0,,7,,,43,127
92754,note_off,109,0,0,,7,,,43,127
92755,note_on,1,0,0,,7,,,55,127
92864,note_off,109,0,0,,7,,,55,127
92865,note_on,1,0,0,,7,,,91,127
92865,note_on,0,0,0,,12,,,59,127
92974,note_off,109,0,0,,12,,,59,127
92975,note_on,1,0,0,,7,,,55,127
93080,note_off,105,0,0,,12,,,83,127
93083,note_off,3,0,0,,7,,,55,127
93084,note_on,1,0,0,,10,,,81,127
93084,note_on,0,0,0,,10,,,33,127
93191,note_off,107,0,0,,7,,,91,127
93193,note_on,2,0,0,,6,,,90,127
93302,note_off,109,0,0,,6,,,90,127
93303,note_on,1,0,0,,7,,,91,127
93412,note_off,109,0,0,,7,,,91,127
93413,note_on,1,0,0,,4,,,88,127
93522,note_off,109,0,0,,4,,,88,127
93523,note_on,1,0,0,,6,,,90,127
93632,note_off,109,0,0,,6,,,90,127
93633,note_on,1,0,0,,2,,,86,127
93742,note_off,109,0,0,,2,,,86,127
93742,note_off,0,0,0,,10,,,81,127
93743,note_on,1,0,0,,4,,,88,127
93743,note_on,0,0,0,,7,,,79,127
93852,note_off,109,0,0,,4,,,88,127
93853,note_on,1,0,0,,1,,,85,127
93919,note_off,66,0,0,,10,,,33,127
93960,note_off,41,0,0,,7,,,79,127
93961,note_off,1,0,0,,1,,,85,127
93962,note_on,1,0,0,,2,,,86,127
93962,note_on,0,0,0,,6,,,78,127
93962,note_on,0,0,0,,2,,,38,127
94071,note_off,109,0,0,,2,,,86,127
94072,note_on,1,0,0,,10,,,81,127
94179,note_off,107,0,0,,6,,,78,127
94180,note_off,1,0,0,,10,,,81,127
94180,note_off,0,0,0,,2,,,38,127
94181,note_on,1,0,0,,6,,,78,127
94181,note_on,0,0,0,,2,,,50,127
94290,note_off,109,0,0,,6,,,78,127
94291,note_on,1,0,0,,2,,,74,127
94400,note_off,109,0,0,,2,,,74,127
94400,note_off,0,0,0,,2,,,50,127
94401,note_on,1,0,0,,12,,,83,127
94401,note_on,0,0,0,,7,,,43,127
94510,note_off,109,0,0,,12,,,83,127
94511,note_on,1,0,0,,7,,,79,127
94620,note_off,109,0,0,,7,,,79,127
94620,note_off,0,0,0,,7,,,43,127
94621,note_on,1,0,0,,2,,,74,127
94621,note_on,0,0,0,,7,,,55,127
94730,note_off,109,0,0,,2,,,74,127
94731,note_on,1,0,0,,12,,,71,127
94840,note_off,109,0,0,,12,,,71,127
94840,note_off,0,0,0,,7,,,55,127
94841,note_on,1,0,0,,10,,,81,127
94841,note_on,0,0,0,,6,,,54,127
94950,note_off,109,0,0,,10,,,81,127
94951,note_on,1,0,0,,6,,,78,127
95060,note_off,109,0,0,,6,,,78,127
95060,note_off,0,0,0,,6,,,54,127
95061,note_on,1,0,0,,2,,,74,127
95061,note_on,0,0,0,,6,,,42,127
95170,note_off,109,0,0,,2,,,74,127
95171,note_on,1,0,0,,10,,,69,127
95280,note_off,109,0,0,,10,,,69,127
95280,note_off,0,0,0,,6,,,42,127
95281,note_on,1,0,0,,12,,,71,127
95281,note_on,0,0,0,,7,,,43,127
95390,note_off,109,0,0,,12,,,71,127
95391,note_on,1,0,0,,2,,,74,127
95500,note_off,109,0,0,,2,,,74,127
95500,note_off,0,0,0,,7,,,43,127
95501,note_on,1,0,0,,1,,,73,127
95501,note_on,0,0,0,,10,,,45,127
95610,note_off,109,0,0,,1,,,73,127
95611,note_on,1,0,0,,4,,,76,127
95702,note_off,91,0,0,,4,,,76,127
95719,note_off,17,0,0,,10,,,45,127
95720,note_on,1,0,0,,2,,,86,127
95720,note_on,0,0,0,,2,,,38,127
95829,note_off,109,0,0,,2,,,86,127
95830,note_on,1,0,0,,10,,,81,127
95939,note_off,109,0,0,,10,,,81,127
95939,note_off,0,0,0,,2,,,38,127
95940,note_on,1,0,0,,6,,,78,127
95940,note_on,0,0,0,,2,,,50,127
96049,note_off,109,0,0,,6,,,78,127
96050,note_on,1,0,0,,2,,,74,127
96159,note_off,109,0,0,,2,,,74,127
96159,note_off,0,0,0,,2,,,50,127
96160,note_on,1,0,0,,12,,,83,127
96160,note_on,0,0,0,,7,,,43,127
96269,note_off,109,0,0,,12,,,83,127
96270,note_on,1,0,0,,7,,,79,127
96379,note_off,109,0,0,,7,,,79,127
96379,note_off,0,0,0,,7,,,43,127
96380,note_on,1,0,0,,2,,,74,127
96380,note_on,0,0,0,,7,,,55,127
96489,note_off,109,0,0,,2,,,74,127
96490,note_on,1,0,0,,12,,,71,127
96599,note_off,109,0,0,,12,,,71,127
96599,note_off,0,0,0,,7,,,55,127
96600,note_on,1,0,0,,10,,,81,127
96600,note_on,0,0,0,,6,,,54,127
96709,note_off,109,0,0,,10,,,81,127
96710,note_on,1,0,0,,6,,,78,127
96819,note_off,109,0,0,,6,,,78,127
96819,note_off,0,0,0,,6,,,54,127
96820,note_on,1,0,0,,2,,,74,127
96820,note_on,0,0,0,,6,,,42,127
96929,note_off,109,0,0,,2,,,74,127
96930,note_on,1,0,0,,10,,,69,127
97039,note_off,109,0,0,,10,,,69,127
97039,note_off,0,0,0,,6,,,42,127
97040,note_on,1,0,0,,12,,,71,127
97040,note_on,0,0,0,,7,,,43,127
97149,note_off,109,0,0,,12,,,71,127
97150,note_on,1,0,0,,2,,,74,127
97259,note_off,109,0,0,,2,,,74,127
97259,note_off,0,0,0,,7,,,43,127
97260,note_on,1,0,0,,1,,,73,127
97260,note_on,0,0,0,,10,,,45,127
97369,note_off,109,0,0,,1,,,73,127
97370,note_on,1,0,0,,4,,,76,127
97479,note_off,109,0,0,,4,,,76,127
97479,note_off,0,0,0,,10,,,45,127
97480,note_on,1,0,0,,2,,,74,127
97480,note_on,0,0,0,,2,,,38,127
97698,note_off,218,0,0,,2,,,38,127
97699,note_on,1,0,0,,6,,,54,127
97699,note_on,0,0,0,,6,,,66,127
97809,note_off,110,0,0,,2,,,74,127
97918,note_off,109,0,0,,6,,,66,127
97918,note_off,0,0,0,,6,,,54,127
97919,note_on,1,0,0,,12,,,83,127
97919,note_on,0,0,0,,7,,,67,127
97919,note_on,0,0,0,,7,,,55,127
98028,note_off,109,0,0,,12,,,83,127
98029,note_on,1,0,0,,10,,,81,127
98138,note_off,109,0,0,,7,,,55,127
98138,note_off,0,0,0,,7,,,67,127
98139,note_on,1,0,0,,10,,,69,127
98139,note_on,0,0,0,,10,,,57,127
98248,note_off,109,0,0,,10,,,81,127
98249,note_on,1,0,0,,7,,,79,127
98358,note_off,109,0,0,,7,,,79,127
98358,note_off,0,0,0,,10,,,57,127
98358,note_off,0,0,0,,10,,,69,127
98359,note_on,1,0,0,,6,,,78,127
98359,note_on,0,0,0,,2,,,62,127
98359,note_on,0,0,0,,2,,,50,127
98577,note_off,218,0,0,,2,,,50,127
98577,note_off,0,0,0,,2,,,62,127
98578,note_on,1,0,0,,6,,,54,127
98578,note_on,0,0,0,,6,,,42,127
98688,note_off,110,0,0,,6,,,78,127
98797,note_off,109,0,0,,6,,,42,127
98797,note_off,0,0,0,,6,,,54,127
98798,note_on,1,0,0,,12,,,71,127
98798,note_on,0,0,0,,7,,,55,127
98798,note_on,0,0,0,,7,,,43,127
98907,note_off,109,0,0,,12,,,71,127
98908,note_on,1,0,0,,10,,,69,127
99017,note_off,109,0,0,,7,,,43,127
99017,note_off,0,0,0,,7,,,55,127
99018,note_on,1,0,0,,10,,,57,127
99018,note_on,0,0,0,,10,,,45,127
99127,note_off,109,0,0,,10,,,69,127
99128,note_on,1,0,0,,7,,,67,127
99237,note_off,109,0,0,,7,,,67,127
99237,note_off,0,0,0,,10,,,45,127
99237,note_off,0,0,0,,10,,,57,127
99238,note_on,1,0,0,,6,,,66,127
99238,note_on,0,0,0,,2,,,50,127
99238,note_on,0,0,0,,2,,,38,127
99456,note_off,218,0,0,,2,,,38,127
99456,note_off,0,0,0,,2,,,50,127
99457,note_on,1,0,0,,6,,,42,127
99457,note_on,0,0,0,,6,,,54,127
99675,note_off,218,0,0,,6,,,54,127
99675,note_off,0,0,0,,6,,,42,127
99675,note_off,0,0,0,,6,,,66,127
99676,note_on,1,0,0,,12,,,83,127
99676,note_on,0,0,0,,7,,,55,127
99676,note_on,0,0,0,,7,,,67,127
99785,note_off,109,0,0,,12,,,83,127
99786,note_on,1,0,0,,10,,,81,127
99895,note_off,109,0,0,,7,,,67,127
99895,note_off,0,0,0,,7,,,55,127
99896,note_on,1,0,0,,10,,,69,127
99896,note_on,0,0,0,,10,,,57,127
100005,note_off,109,0,0,,10,,,81,127
100006,note_on,1,0,0,,7,,,79,127
100115,note_off,109,0,0,,7,,,79,127
100115,note_off,0,0,0,,10,,,57,127
100115,note_off,0,0,0,,10,,,69,127
100116,note_on,1,0,0,,6,,,78,127
100116,note_on,0,0,0,,12,,,71,127
100116,note_on,0,0,0,,12,,,59,127
100188,note_off,72,0,0,,6,,,78,127
100189,note_on,1,0,0,,4,,,76,127
100261,note_off,72,0,0,,4,,,76,127
100262,note_on,1,0,0,,6,,,78,127
100334,note_off,72,0,0,,6,,,78,127
100334,note_off,0,0,0,,12,,,59,127
100334,note_off,0,0,0,,12,,,71,127
100335,note_on,1,0,0,,7,,,79,127
100335,note_on,0,0,0,,7,,,67,127
100335,note_on,0,0,0,,7,,,55,127
100407,note_off,72,0,0,,7,,,79,127
100408,note_on,1,0,0,,6,,,78,127
100480,note_off,72,0,0,,6,,,78,127
100481,note_on,1,0,0,,4,,,76,127
100553,note_off,72,0,0,,4,,,76,127
100553,note_off,0,0,0,,7,,,55,127
100553,note_off,0,0,0,,7,,,67,127
100554,note_on,1,0,0,,2,,,74,127
100554,note_on,0,0,0,,10,,,69,127
100554,note_on,0,0,0,,10,,,57,127
100772,note_off,218,0,0,,10,,,57,127
100772,note_off,0,0,0,,10,,,69,127
100772,note_off,0,0,0,,2,,,74,127
100773,note_on,1,0,0,,2,,,74,127
100773,note_on,0,0,0,,10,,,69,127
100773,note_on,0,0,0,,10,,,57,127
100827,note_off,54,0,0,,2,,,74,127
100828,note_on,1,0,0,,1,,,73,127
100882,note_off,54,0,0,,1,,,73,127
100883,note_on,1,0,0,,2,,,74,127
100937,note_off,54,0,0,,2,,,74,127
100938,note_on,1,0,0,,1,,,73,127
100992,note_off,54,0,0,,1,,,73,127
100992,note_off,0,0,0,,10,,,57,127
100992,note_off,0,0,0,,10,,,69,127
100993,note_on,1,0,0,,2,,,74,127
100993,note_on,0,0,0,,2,,,62,127
100993,note_on,0,0,0,,2,,,50,127
101211,note_off,218,0,0,,2,,,74,127
101212,note_on,1,0,0,,2,,,86,127
101427,note_off,215,0,0,,2,,,50,127
101427,note_off,0,0,0,,2,,,62,127
101430,note_off,3,0,0,,2,,,86,127
101431,note_on,1,0,0,,7,,,79,127
101485,note_off,54,0,0,,7,,,79,127
101486,note_on,1,0,0,,6,,,78,127
101540,note_off,54,0,0,,6,,,78,127
101541,note_on,1,0,0,,7,,,79,127
101595,note_off,54,0,0,,7,,,79,127
101596,note_on,1,0,0,,6,,,78,127
101650,note_off,54,0,0,,6,,,78,127
101651,note_on,1,0,0,,7,,,79,127
101651,note_on,0,0,0,,6,,,66,127
101705,note_off,54,0,0,,7,,,79,127
101706,note_on,1,0,0,,6,,,78,127
101760,note_off,54,0,0,,6,,,78,127
101761,note_on,1,0,0,,7,,,79,127
101815,note_off,54,0,0,,7,,,79,127
101816,note_on,1,0,0,,10,,,81,127
101870,note_off,54,0,0,,10,,,81,127
101870,note_off,0,0,0,,6,,,66,127
101871,note_on,1,0,0,,12,,,71,127
101871,note_on,0,0,0,,7,,,67,127
102089,note_off,218,0,0,,7,,,67,127
102089,note_off,0,0,0,,12,,,71,127
102090,note_on,1,0,0,,2,,,86,127
102090,note_on,0,0,0,,7,,,55,127
102308,note_off,218,0,0,,7,,,55,127
102308,note_off,0,0,0,,2,,,86,127
102309,note_on,1,0,0,,6,,,66,127
102309,note_on,0,0,0,,10,,,57,127
102363,note_off,54,0,0,,6,,,66,127
102364,note_on,1,0,0,,4,,,64,127
102418,note_off,54,0,0,,4,,,64,127
102419,note_on,1,0,0,,6,,,66,127
102473,note_off,54,0,0,,6,,,66,127
102474,note_on,1,0,0,,4,,,64,127
102528,note_off,54,0,0,,4,,,64,127
102528,note_off,0,0,0,,10,,,57,127
102529,note_on,1,0,0,,6,,,66,127
102529,note_on,0,0,0,,10,,,45,127
102583,note_off,54,0,0,,6,,,66,127
102584,note_on,1,0,0,,4,,,64,127
102638,note_off,54,0,0,,4,,,64,127
102639,note_on,1,0,0,,6,,,66,127
102693,note_off,54,0,0,,6,,,66,127
102694,note_on,1,0,0,,7,,,67,127
102748,note_off,54,0,0,,7,,,67,127
102748,note_off,0,0,0,,10,,,45,127
102749,note_on,1,0,0,,6,,,66,127
102749,note_on,0,0,0,,2,,,50,127
102967,note_off,218,0,0,,6,,,66,127
102968,note_on,1,0,0,,2,,,86,127
103183,note_off,215,0,0,,2,,,50,127
103186,note_off,3,0,0,,2,,,86,127
103187,note_on,1,0,0,,7,,,79,127
103241,note_off,54,0,0,,7,,,79,127
103242,note_on,1,0,0,,6,,,78,127
103296,note_off,54,0,0,,6,,,78,127
103297,note_on,1,0,0,,7,,,79,127
103351,note_off,54,0,0,,7,,,79,127
103352,note_on,1,0,0,,6,,,78,127
103406,note_off,54,0,0,,6,,,78,127
103407,note_on,1,0,0,,7,,,79,127
103407,note_on,0,0,0,,6,,,54,127
103461,note_off,54,0,0,,7,,,79,127
103462,note_on,1,0,0,,6,,,78,127
103516,note_off,54,0,0,,6,,,78,127
103517,note_on,1,0,0,,7,,,79,127
103571,note_off,54,0,0,,7,,,79,127
103572,note_on,1,0,0,,10,,,81,127
103626,note_off,54,0,0,,10,,,81,127
103626,note_off,0,0,0,,6,,,54,127
103627,note_on,1,0,0,,12,,,71,127
103627,note_on,0,0,0,,7,,,55,127
103845,note_off,218,0,0,,7,,,55,127
103845,note_off,0,0,0,,12,,,71,127
103846,note_on,1,0,0,,2,,,86,127
103846,note_on,0,0,0,,7,,,43,127
104064,note_off,218,0,0,,7,,,43,127
104064,note_off,0,0,0,,2,,,86,127
104066,note_on,2,0,0,,10,,,45,127
104066,note_on,0,0,0,,6,,,66,127
104120,note_off,54,0,0,,6,,,66,127
104122,note_on,2,0,0,,4,,,64,127
104176,note_off,54,0,0,,4,,,64,127
104179,note_on,3,0,0,,6,,,66,127
104233,note_off,54,0,0,,6,,,66,127
104235,note_on,2,0,0,,4,,,64,127
104288,note_off,53,0,0,,10,,,45,127
104289,note_off,1,0,0,,4,,,64,127
104292,note_on,3,0,0,,10,,,33,127
104292,note_on,0,0,0,,6,,,66,127
104346,note_off,54,0,0,,6,,,66,127
104348,note_on,2,0,0,,4,,,64,127
104402,note_off,54,0,0,,4,,,64,127
104405,note_on,3,0,0,,2,,,62,127
104459,note_off,54,0,0,,2,,,62,127
104461,note_on,2,0,0,,4,,,64,127
104514,note_off,53,0,0,,10,,,33,127
104515,note_off,1,0,0,,4,,,64,127
104517,note_on,2,0,0,,2,,,38,127
104517,note_on,0,0,0,,2,,,62,127
106419,note_off,1902,0,0,,2,,,62,127
106419,note_off,0,0,0,,2,,,38,127
107520,end_of_track,1101,1,0,,,,,,
