tick,type,time,meta,track,program,channel,pitch,tempo,note,velocity
0,copyright,0,1,0,,,,,,
0,program_change,0,0,0,6,0,,,,
0,pitchwheel,0,0,0,,0,0,,,
0,program_change,0,0,0,6,1,,,,
0,pitchwheel,0,0,0,,1,-590,,,
0,program_change,0,0,0,6,2,,,,
0,pitchwheel,0,0,0,,2,-272,,,
0,program_change,0,0,0,6,3,,,,
0,pitchwheel,0,0,0,,3,-353,,,
0,program_change,0,0,0,6,4,,,,
0,pitchwheel,0,0,0,,4,-560,,,
0,program_change,0,0,0,6,5,,,,
0,pitchwheel,0,0,0,,5,-80,,,
0,program_change,0,0,0,6,6,,,,
0,pitchwheel,0,0,0,,6,-625,,,
0,program_change,0,0,0,6,7,,,,
0,pitchwheel,0,0,0,,7,-130,,,
0,program_change,0,0,0,6,8,,,,
0,pitchwheel,0,0,0,,8,-512,,,
0,program_change,0,0,0,6,10,,,,
0,pitchwheel,0,0,0,,10,-464,,,
0,program_change,0,0,0,6,11,,,,
0,pitchwheel,0,0,0,,11,-208,,,
0,program_change,0,0,0,6,12,,,,
0,pitchwheel,0,0,0,,12,-553,,,
0,set_tempo,0,1,0,,,,500000,,
110,note_on,110,0,0,,2,,,74,127
328,note_off,218,0,0,,2,,,74,127
329,note_on,1,0,0,,2,,,74,127
438,note_off,109,0,0,,2,,,74,127
439,note_on,1,0,0,,2,,,74,127
548,note_off,109,0,0,,2,,,74,127
549,note_on,1,0,0,,6,,,78,127
767,note_off,218,0,0,,6,,,78,127
768,note_on,1,0,0,,10,,,81,127
986,note_off,218,0,0,,10,,,81,127
987,note_on,1,0,0,,2,,,62,127
987,note_on,0,0,0,,2,,,74,127
1205,note_off,218,0,0,,2,,,62,127
1206,note_on,1,0,0,,2,,,62,127
1315,note_off,109,0,0,,2,,,62,127
1316,note_on,1,0,0,,2,,,62,127
1421,note_off,105,0,0,,2,,,74,127
1424,note_off,3,0,0,,2,,,62,127
1425,note_on,1,0,0,,6,,,66,127
1643,note_off,218,0,0,,6,,,66,127
1644,note_on,1,0,0,,10,,,69,127
1644,note_on,0,0,0,,10,,,81,127
1862,note_off,218,0,0,,10,,,81,127
1862,note_off,0,0,0,,10,,,69,127
1863,note_on,1,0,0,,2,,,62,127
1863,note_on,0,0,0,,2,,,86,127
1972,note_off,109,0,0,,2,,,86,127
1973,note_on,1,0,0,,10,,,81,127
2082,note_off,109,0,0,,10,,,81,127
2083,note_on,1,0,0,,6,,,78,127
2192,note_off,109,0,0,,6,,,78,127
2193,note_on,1,0,0,,10,,,81,127
2298,note_off,105,0,0,,2,,,62,127
2301,note_off,3,0,0,,10,,,81,127
2302,note_on,1,0,0,,2,,,74,127
2411,note_off,109,0,0,,2,,,74,127
2412,note_on,1,0,0,,6,,,78,127
2521,note_off,109,0,0,,6,,,78,127
2522,note_on,1,0,0,,6,,,54,127
2522,note_on,0,0,0,,10,,,69,127
2631,note_off,109,0,0,,10,,,69,127
2632,note_on,1,0,0,,6,,,78,127
2741,note_off,109,0,0,,6,,,78,127
2741,note_off,0,0,0,,6,,,54,127
2742,note_on,1,0,0,,7,,,55,127
2742,note_on,0,0,0,,12,,,71,127
2851,note_off,109,0,0,,12,,,71,127
2852,note_on,1,0,0,,7,,,79,127
2961,note_off,109,0,0,,7,,,79,127
2961,note_off,0,0,0,,7,,,55,127
2962,note_on,1,0,0,,7,,,43,127
2962,note_on,0,0,0,,6,,,78,127
3071,note_off,109,0,0,,6,,,78,127
3072,note_on,1,0,0,,4,,,76,127
3181,note_off,109,0,0,,4,,,76,127
3181,note_off,0,0,0,,7,,,43,127
3182,note_on,1,0,0,,10,,,57,127
3182,note_on,0,0,0,,2,,,74,127
3291,note_off,109,0,0,,2,,,74,127
3292,note_on,1,0,0,,4,,,76,127
3401,note_off,109,0,0,,4,,,76,127
3401,note_off,0,0,0,,10,,,57,127
3402,note_on,1,0,0,,10,,,45,127
3402,note_on,0,0,0,,10,,,69,127
3511,note_off,109,0,0,,10,,,69,127
3512,note_on,1,0,0,,1,,,73,127
3621,note_off,109,0,0,,1,,,73,127
3621,note_off,0,0,0,,10,,,45,127
3622,note_on,1,0,0,,2,,,50,127
3622,note_on,0,0,0,,2,,,74,127
3731,note_off,109,0,0,,2,,,50,127
3732,note_on,1,0,0,,2,,,62,127
3841,note_off,109,0,0,,2,,,62,127
3842,note_on,1,0,0,,6,,,66,127
3951,note_off,109,0,0,,6,,,66,127
3952,note_on,1,0,0,,2,,,62,127
4061,note_off,109,0,0,,2,,,62,127
4062,note_on,1,0,0,,10,,,57,127
4171,note_off,109,0,0,,10,,,57,127
4172,note_on,1,0,0,,6,,,54,127
4281,note_off,109,0,0,,6,,,54,127
4282,note_on,1,0,0,,2,,,50,127
4391,note_off,109,0,0,,2,,,50,127
4392,note_on,1,0,0,,10,,,45,127
4501,note_off,109,0,0,,10,,,45,127
4501,note_off,0,0,0,,2,,,74,127
4502,note_on,1,0,0,,10,,,33,127
4612,note_on,110,0,0,,10,,,81,127
4721,note_off,109,0,0,,10,,,81,127
4722,note_on,1,0,0,,4,,,76,127
4831,note_off,109,0,0,,4,,,76,127
4832,note_on,1,0,0,,1,,,73,127
4941,note_off,109,0,0,,1,,,73,127
4942,note_on,1,0,0,,10,,,69,127
5051,note_off,109,0,0,,10,,,69,127
5052,note_on,1,0,0,,7,,,79,127
5161,note_off,109,0,0,,7,,,79,127
5162,note_on,1,0,0,,6,,,78,127
5271,note_off,109,0,0,,6,,,78,127
5272,note_on,1,0,0,,4,,,76,127
5381,note_off,109,0,0,,4,,,76,127
5381,note_off,0,0,0,,10,,,33,127
5382,note_on,1,0,0,,2,,,50,127
5382,note_on,0,0,0,,2,,,74,127
5491,note_off,109,0,0,,2,,,50,127
5492,note_on,1,0,0,,2,,,62,127
5601,note_off,109,0,0,,2,,,62,127
5602,note_on,1,0,0,,6,,,66,127
5711,note_off,109,0,0,,6,,,66,127
5712,note_on,1,0,0,,2,,,62,127
5821,note_off,109,0,0,,2,,,62,127
5822,note_on,1,0,0,,10,,,57,127
5931,note_off,109,0,0,,10,,,57,127
5932,note_on,1,0,0,,6,,,54,127
6041,note_off,109,0,0,,6,,,54,127
6042,note_on,1,0,0,,2,,,50,127
6151,note_off,109,0,0,,2,,,50,127
6152,note_on,1,0,0,,10,,,45,127
6261,note_off,109,0,0,,10,,,45,127
6261,note_off,0,0,0,,2,,,74,127
6262,note_on,1,0,0,,10,,,33,127
6372,note_on,110,0,0,,10,,,81,127
6481,note_off,109,0,0,,10,,,81,127
6482,note_on,1,0,0,,4,,,76,127
6591,note_off,109,0,0,,4,,,76,127
6592,note_on,1,0,0,,1,,,73,127
6701,note_off,109,0,0,,1,,,73,127
6702,note_on,1,0,0,,10,,,69,127
6811,note_off,109,0,0,,10,,,69,127
6812,note_on,1,0,0,,7,,,79,127
6921,note_off,109,0,0,,7,,,79,127
6922,note_on,1,0,0,,6,,,78,127
7031,note_off,109,0,0,,6,,,78,127
7032,note_on,1,0,0,,4,,,76,127
7141,note_off,109,0,0,,4,,,76,127
7141,note_off,0,0,0,,10,,,33,127
7142,note_on,1,0,0,,2,,,50,127
7142,note_on,0,0,0,,6,,,78,127
7251,note_off,109,0,0,,2,,,50,127
7252,note_on,1,0,0,,2,,,62,127
7361,note_off,109,0,0,,2,,,62,127
7362,note_on,1,0,0,,6,,,66,127
7471,note_off,109,0,0,,6,,,66,127
7472,note_on,1,0,0,,2,,,62,127
7581,note_off,109,0,0,,2,,,62,127
7582,note_on,1,0,0,,10,,,57,127
7691,note_off,109,0,0,,10,,,57,127
7692,note_on,1,0,0,,6,,,54,127
7801,note_off,109,0,0,,6,,,54,127
7801,note_off,0,0,0,,6,,,78,127
7802,note_on,1,0,0,,2,,,50,127
7911,note_off,109,0,0,,2,,,50,127
7912,note_on,1,0,0,,2,,,38,127
8021,note_off,109,0,0,,2,,,38,127
8022,note_on,1,0,0,,1,,,37,127
8132,note_on,110,0,0,,10,,,81,127
8241,note_off,109,0,0,,10,,,81,127
8242,note_on,1,0,0,,4,,,76,127
8351,note_off,109,0,0,,4,,,76,127
8352,note_on,1,0,0,,1,,,73,127
8461,note_off,109,0,0,,1,,,73,127
8462,note_on,1,0,0,,10,,,69,127
8571,note_off,109,0,0,,10,,,69,127
8572,note_on,1,0,0,,4,,,76,127
8681,note_off,109,0,0,,4,,,76,127
8681,note_off,0,0,0,,1,,,37,127
8682,note_on,1,0,0,,2,,,74,127
8791,note_off,109,0,0,,2,,,74,127
8792,note_on,1,0,0,,1,,,73,127
8901,note_off,109,0,0,,1,,,73,127
8902,note_on,1,0,0,,2,,,74,127
9012,note_on,110,0,0,,12,,,59,127
9121,note_off,109,0,0,,12,,,59,127
9122,note_on,1,0,0,,2,,,62,127
9231,note_off,109,0,0,,2,,,62,127
9232,note_on,1,0,0,,12,,,59,127
9341,note_off,109,0,0,,12,,,59,127
9342,note_on,1,0,0,,8,,,56,127
9451,note_off,109,0,0,,8,,,56,127
9452,note_on,1,0,0,,4,,,52,127
9561,note_off,109,0,0,,4,,,52,127
9561,note_off,0,0,0,,2,,,74,127
9562,note_on,1,0,0,,12,,,47,127
9671,note_off,109,0,0,,12,,,47,127
9672,note_on,1,0,0,,4,,,40,127
9781,note_off,109,0,0,,4,,,40,127
9782,note_on,1,0,0,,10,,,33,127
9892,note_on,110,0,0,,10,,,81,127
10001,note_off,109,0,0,,10,,,81,127
10002,note_on,1,0,0,,4,,,76,127
10111,note_off,109,0,0,,4,,,76,127
10112,note_on,1,0,0,,1,,,73,127
10217,note_off,105,0,0,,10,,,33,127
10220,note_off,3,0,0,,1,,,73,127
10221,note_on,1,0,0,,10,,,69,127
10330,note_off,109,0,0,,10,,,69,127
10331,note_on,1,0,0,,7,,,79,127
10440,note_off,109,0,0,,7,,,79,127
10441,note_on,1,0,0,,10,,,45,127
10441,note_on,0,0,0,,10,,,33,127
10441,note_on,0,0,0,,6,,,78,127
10550,note_off,109,0,0,,6,,,78,127
10551,note_on,1,0,0,,4,,,76,127
10660,note_off,109,0,0,,4,,,76,127
10660,note_off,0,0,0,,10,,,33,127
10660,note_off,0,0,0,,10,,,45,127
10661,note_on,1,0,0,,2,,,50,127
10661,note_on,0,0,0,,2,,,38,127
10661,note_on,0,0,0,,6,,,78,127
10770,note_off,109,0,0,,6,,,78,127
10771,note_on,1,0,0,,4,,,76,127
10880,note_off,109,0,0,,4,,,76,127
10880,note_off,0,0,0,,2,,,38,127
10880,note_off,0,0,0,,2,,,50,127
10881,note_on,1,0,0,,4,,,40,127
10881,note_on,0,0,0,,4,,,52,127
10881,note_on,0,0,0,,2,,,74,127
10990,note_off,109,0,0,,2,,,74,127
10991,note_on,1,0,0,,1,,,73,127
11100,note_off,109,0,0,,1,,,73,127
11100,note_off,0,0,0,,4,,,52,127
11100,note_off,0,0,0,,4,,,40,127
11101,note_on,1,0,0,,6,,,54,127
11101,note_on,0,0,0,,6,,,42,127
11101,note_on,0,0,0,,2,,,74,127
11210,note_off,109,0,0,,2,,,74,127
11211,note_on,1,0,0,,6,,,78,127
11320,note_off,109,0,0,,6,,,78,127
11320,note_off,0,0,0,,6,,,42,127
11320,note_off,0,0,0,,6,,,54,127
11321,note_on,1,0,0,,8,,,56,127
11321,note_on,0,0,0,,8,,,44,127
11321,note_on,0,0,0,,4,,,76,127
11430,note_off,109,0,0,,4,,,76,127
11431,note_on,1,0,0,,2,,,74,127
11540,note_off,109,0,0,,2,,,74,127
11540,note_off,0,0,0,,8,,,44,127
11540,note_off,0,0,0,,8,,,56,127
11541,note_on,1,0,0,,10,,,57,127
11541,note_on,0,0,0,,10,,,45,127
11541,note_on,0,0,0,,1,,,73,127
11650,note_off,109,0,0,,1,,,73,127
11651,note_on,1,0,0,,12,,,71,127
11760,note_off,109,0,0,,12,,,71,127
11760,note_off,0,0,0,,10,,,45,127
11760,note_off,0,0,0,,10,,,57,127
11761,note_on,1,0,0,,12,,,47,127
11761,note_on,0,0,0,,12,,,59,127
11761,note_on,0,0,0,,10,,,69,127
11870,note_off,109,0,0,,10,,,69,127
11871,note_on,1,0,0,,8,,,68,127
11980,note_off,109,0,0,,8,,,68,127
11980,note_off,0,0,0,,12,,,59,127
11980,note_off,0,0,0,,12,,,47,127
11981,note_on,1,0,0,,1,,,49,127
11981,note_on,0,0,0,,1,,,61,127
11981,note_on,0,0,0,,10,,,69,127
12090,note_off,109,0,0,,10,,,69,127
12091,note_on,1,0,0,,1,,,73,127
12200,note_off,109,0,0,,1,,,73,127
12200,note_off,0,0,0,,1,,,61,127
12200,note_off,0,0,0,,1,,,49,127
12201,note_on,1,0,0,,2,,,50,127
12201,note_on,0,0,0,,2,,,62,127
12201,note_on,0,0,0,,12,,,71,127
12310,note_off,109,0,0,,12,,,71,127
12311,note_on,1,0,0,,10,,,69,127
12420,note_off,109,0,0,,10,,,69,127
12420,note_off,0,0,0,,2,,,62,127
12420,note_off,0,0,0,,2,,,50,127
12421,note_on,1,0,0,,4,,,64,127
12421,note_on,0,0,0,,4,,,52,127
12421,note_on,0,0,0,,12,,,71,127
12530,note_off,109,0,0,,12,,,71,127
12531,note_on,1,0,0,,10,,,69,127
12640,note_off,109,0,0,,10,,,69,127
12641,note_on,1,0,0,,8,,,68,127
12750,note_off,109,0,0,,8,,,68,127
12751,note_on,1,0,0,,6,,,66,127
12856,note_off,105,0,0,,4,,,64,127
12859,note_off,3,0,0,,6,,,66,127
12860,note_on,1,0,0,,4,,,64,127
12969,note_off,109,0,0,,4,,,52,127
12970,note_on,1,0,0,,2,,,62,127
13079,note_off,109,0,0,,2,,,62,127
13080,note_on,1,0,0,,1,,,61,127
13189,note_off,109,0,0,,1,,,61,127
13190,note_on,1,0,0,,12,,,59,127
13295,note_off,105,0,0,,4,,,64,127
13298,note_off,3,0,0,,12,,,59,127
13299,note_on,1,0,0,,10,,,57,127
13299,note_on,0,0,0,,4,,,64,127
13299,note_on,0,0,0,,1,,,73,127
13353,note_off,54,0,0,,1,,,73,127
13354,note_on,1,0,0,,2,,,74,127
13408,note_off,54,0,0,,2,,,74,127
13409,note_on,1,0,0,,4,,,76,127
13518,note_off,109,0,0,,4,,,76,127
13518,note_off,0,0,0,,4,,,64,127
13519,note_on,1,0,0,,6,,,66,127
13519,note_on,0,0,0,,2,,,74,127
13737,note_off,218,0,0,,2,,,74,127
13737,note_off,0,0,0,,6,,,66,127
13738,note_on,1,0,0,,4,,,64,127
13738,note_on,0,0,0,,1,,,73,127
13956,note_off,218,0,0,,1,,,73,127
13956,note_off,0,0,0,,4,,,64,127
13957,note_on,1,0,0,,2,,,62,127
13957,note_on,0,0,0,,12,,,71,127
14175,note_off,218,0,0,,12,,,71,127
14175,note_off,0,0,0,,2,,,62,127
14175,note_off,0,0,0,,10,,,57,127
14176,note_on,1,0,0,,1,,,61,127
14176,note_on,0,0,0,,10,,,57,127
14176,note_on,0,0,0,,10,,,69,127
14230,note_off,54,0,0,,10,,,69,127
14231,note_on,1,0,0,,12,,,71,127
14285,note_off,54,0,0,,12,,,71,127
14286,note_on,1,0,0,,1,,,73,127
14395,note_off,109,0,0,,1,,,73,127
14395,note_off,0,0,0,,1,,,61,127
14396,note_on,1,0,0,,2,,,62,127
14396,note_on,0,0,0,,12,,,71,127
14614,note_off,218,0,0,,12,,,71,127
14614,note_off,0,0,0,,2,,,62,127
14615,note_on,1,0,0,,1,,,61,127
14615,note_on,0,0,0,,10,,,69,127
14833,note_off,218,0,0,,10,,,69,127
14833,note_off,0,0,0,,1,,,61,127
14834,note_on,1,0,0,,12,,,59,127
14834,note_on,0,0,0,,8,,,68,127
15017,note_off,183,0,0,,8,,,68,127
15052,note_off,35,0,0,,12,,,59,127
15052,note_off,0,0,0,,10,,,57,127
15053,note_on,1,0,0,,4,,,64,127
15053,note_on,0,0,0,,10,,,57,127
15053,note_on,0,0,0,,1,,,73,127
15107,note_off,54,0,0,,1,,,73,127
15108,note_on,1,0,0,,2,,,74,127
15162,note_off,54,0,0,,2,,,74,127
15163,note_on,1,0,0,,4,,,76,127
15272,note_off,109,0,0,,4,,,76,127
15272,note_off,0,0,0,,4,,,64,127
15273,note_on,1,0,0,,6,,,66,127
15273,note_on,0,0,0,,2,,,74,127
15491,note_off,218,0,0,,2,,,74,127
15491,note_off,0,0,0,,6,,,66,127
15492,note_on,1,0,0,,4,,,64,127
15492,note_on,0,0,0,,1,,,73,127
15710,note_off,218,0,0,,1,,,73,127
15710,note_off,0,0,0,,4,,,64,127
15711,note_on,1,0,0,,2,,,62,127
15711,note_on,0,0,0,,12,,,71,127
15929,note_off,218,0,0,,12,,,71,127
15929,note_off,0,0,0,,2,,,62,127
15929,note_off,0,0,0,,10,,,57,127
15930,note_on,1,0,0,,1,,,61,127
15930,note_on,0,0,0,,10,,,57,127
15930,note_on,0,0,0,,10,,,69,127
15984,note_off,54,0,0,,10,,,69,127
15985,note_on,1,0,0,,12,,,71,127
16039,note_off,54,0,0,,12,,,71,127
16040,note_on,1,0,0,,1,,,73,127
16149,note_off,109,0,0,,1,,,73,127
16149,note_off,0,0,0,,1,,,61,127
16150,note_on,1,0,0,,2,,,62,127
16150,note_on,0,0,0,,12,,,71,127
16368,note_off,218,0,0,,12,,,71,127
16368,note_off,0,0,0,,2,,,62,127
16369,note_on,1,0,0,,1,,,61,127
16369,note_on,0,0,0,,10,,,69,127
16587,note_off,218,0,0,,10,,,69,127
16587,note_off,0,0,0,,1,,,61,127
16587,note_off,0,0,0,,10,,,57,127
16588,note_on,1,0,0,,12,,,59,127
16588,note_on,0,0,0,,8,,,68,127
16759,note_off,171,0,0,,8,,,68,127
16806,note_off,47,0,0,,12,,,59,127
16807,note_on,1,0,0,,10,,,57,127
16807,note_on,0,0,0,,10,,,45,127
16807,note_on,0,0,0,,10,,,81,127
16879,note_off,72,0,0,,10,,,81,127
16880,note_on,1,0,0,,8,,,80,127
16952,note_off,72,0,0,,8,,,80,127
16953,note_on,1,0,0,,6,,,78,127
17025,note_off,72,0,0,,6,,,78,127
17026,note_on,1,0,0,,4,,,76,127
17098,note_off,72,0,0,,4,,,76,127
17099,note_on,1,0,0,,2,,,74,127
17171,note_off,72,0,0,,2,,,74,127
17172,note_on,1,0,0,,1,,,73,127
17244,note_off,72,0,0,,1,,,73,127
17244,note_off,0,0,0,,10,,,45,127
17244,note_off,0,0,0,,10,,,57,127
17245,note_on,1,0,0,,2,,,38,127
17245,note_on,0,0,0,,2,,,50,127
17245,note_on,0,0,0,,12,,,71,127
17317,note_off,72,0,0,,12,,,71,127
17318,note_on,1,0,0,,10,,,69,127
17390,note_off,72,0,0,,10,,,69,127
17391,note_on,1,0,0,,8,,,68,127
17463,note_off,72,0,0,,8,,,68,127
17464,note_on,1,0,0,,6,,,66,127
17536,note_off,72,0,0,,6,,,66,127
17537,note_on,1,0,0,,4,,,64,127
17609,note_off,72,0,0,,4,,,64,127
17610,note_on,1,0,0,,2,,,62,127
17682,note_off,72,0,0,,2,,,62,127
17682,note_off,0,0,0,,2,,,50,127
17682,note_off,0,0,0,,2,,,38,127
17683,note_on,1,0,0,,4,,,52,127
17683,note_on,0,0,0,,1,,,61,127
17755,note_off,72,0,0,,1,,,61,127
17756,note_on,1,0,0,,12,,,59,127
17828,note_off,72,0,0,,12,,,59,127
17829,note_on,1,0,0,,10,,,57,127
17901,note_off,72,0,0,,10,,,57,127
17902,note_on,1,0,0,,2,,,62,127
18120,note_off,218,0,0,,2,,,62,127
18120,note_off,0,0,0,,4,,,52,127
18121,note_on,1,0,0,,4,,,40,127
18121,note_on,0,0,0,,1,,,61,127
18175,note_off,54,0,0,,1,,,61,127
18176,note_on,1,0,0,,12,,,59,127
18230,note_off,54,0,0,,12,,,59,127
18231,note_on,1,0,0,,1,,,61,127
18285,note_off,54,0,0,,1,,,61,127
18286,note_on,1,0,0,,12,,,59,127
18340,note_off,54,0,0,,12,,,59,127
18341,note_on,1,0,0,,1,,,61,127
18395,note_off,54,0,0,,1,,,61,127
18396,note_on,1,0,0,,12,,,59,127
18450,note_off,54,0,0,,12,,,59,127
18451,note_on,1,0,0,,10,,,57,127
18505,note_off,54,0,0,,10,,,57,127
18506,note_on,1,0,0,,12,,,59,127
18560,note_off,54,0,0,,12,,,59,127
18560,note_off,0,0,0,,4,,,40,127
18561,note_on,1,0,0,,10,,,45,127
18561,note_on,0,0,0,,10,,,57,127
18778,note_off,217,0,0,,10,,,45,127
18779,note_off,1,0,0,,10,,,57,127
18780,note_on,1,0,0,,2,,,74,127
18780,note_on,0,0,0,,0,,,72,127
18852,note_off,72,0,0,,0,,,72,127
18852,note_off,0,0,0,,2,,,74,127
18853,note_on,1,0,0,,12,,,71,127
18925,note_off,72,0,0,,12,,,71,127
18926,note_on,1,0,0,,0,,,72,127
18998,note_off,72,0,0,,0,,,72,127
18999,note_on,1,0,0,,2,,,74,127
19218,note_on,219,0,0,,5,,,65,127
19218,note_on,0,0,0,,10,,,57,127
19433,note_off,215,0,0,,2,,,74,127
19436,note_off,3,0,0,,10,,,57,127
19436,note_off,0,0,0,,5,,,65,127
19437,note_on,1,0,0,,4,,,64,127
19437,note_on,0,0,0,,10,,,57,127
19656,note_on,219,0,0,,2,,,74,127
19656,note_on,0,0,0,,0,,,72,127
19728,note_off,72,0,0,,0,,,72,127
19728,note_off,0,0,0,,2,,,74,127
19729,note_on,1,0,0,,12,,,71,127
19801,note_off,72,0,0,,12,,,71,127
19802,note_on,1,0,0,,0,,,72,127
19871,note_off,69,0,0,,10,,,57,127
19871,note_off,0,0,0,,4,,,64,127
19874,note_off,3,0,0,,0,,,72,127
19875,note_on,1,0,0,,2,,,74,127
20094,note_on,219,0,0,,5,,,65,127
20094,note_on,0,0,0,,10,,,57,127
20309,note_off,215,0,0,,2,,,74,127
20312,note_off,3,0,0,,10,,,57,127
20312,note_off,0,0,0,,5,,,65,127
20313,note_on,1,0,0,,4,,,64,127
20313,note_on,0,0,0,,10,,,57,127
20532,note_on,219,0,0,,2,,,74,127
20532,note_on,0,0,0,,4,,,76,127
20604,note_off,72,0,0,,4,,,76,127
20604,note_off,0,0,0,,2,,,74,127
20605,note_on,1,0,0,,1,,,73,127
20677,note_off,72,0,0,,1,,,73,127
20678,note_on,1,0,0,,2,,,74,127
20747,note_off,69,0,0,,10,,,57,127
20747,note_off,0,0,0,,4,,,64,127
20750,note_off,3,0,0,,2,,,74,127
20751,note_on,1,0,0,,4,,,76,127
20970,note_on,219,0,0,,7,,,67,127
20970,note_on,0,0,0,,10,,,57,127
21185,note_off,215,0,0,,4,,,76,127
21188,note_off,3,0,0,,10,,,57,127
21188,note_off,0,0,0,,7,,,67,127
21189,note_on,1,0,0,,10,,,57,127
21189,note_on,0,0,0,,5,,,65,127
21408,note_on,219,0,0,,4,,,76,127
21408,note_on,0,0,0,,2,,,74,127
21480,note_off,72,0,0,,2,,,74,127
21480,note_off,0,0,0,,4,,,76,127
21481,note_on,1,0,0,,1,,,73,127
21553,note_off,72,0,0,,1,,,73,127
21554,note_on,1,0,0,,2,,,74,127
21623,note_off,69,0,0,,5,,,65,127
21623,note_off,0,0,0,,10,,,57,127
21626,note_off,3,0,0,,2,,,74,127
21627,note_on,1,0,0,,4,,,76,127
21846,note_on,219,0,0,,7,,,67,127
21846,note_on,0,0,0,,10,,,57,127
22061,note_off,215,0,0,,4,,,76,127
22064,note_off,3,0,0,,10,,,57,127
22064,note_off,0,0,0,,7,,,67,127
22065,note_on,1,0,0,,5,,,65,127
22065,note_on,0,0,0,,10,,,57,127
22284,note_on,219,0,0,,5,,,77,127
22284,note_on,0,0,0,,4,,,76,127
22356,note_off,72,0,0,,4,,,76,127
22356,note_off,0,0,0,,5,,,77,127
22357,note_on,1,0,0,,2,,,74,127
22429,note_off,72,0,0,,2,,,74,127
22430,note_on,1,0,0,,4,,,76,127
22499,note_off,69,0,0,,10,,,57,127
22499,note_off,0,0,0,,5,,,65,127
22502,note_off,3,0,0,,4,,,76,127
22503,note_on,1,0,0,,5,,,77,127
22722,note_on,219,0,0,,10,,,57,127
22722,note_on,0,0,0,,8,,,68,127
22937,note_off,215,0,0,,5,,,77,127
22940,note_off,3,0,0,,8,,,68,127
22940,note_off,0,0,0,,10,,,57,127
22941,note_on,1,0,0,,10,,,57,127
22941,note_on,0,0,0,,10,,,69,127
23160,note_on,219,0,0,,5,,,77,127
23160,note_on,0,0,0,,4,,,76,127
23232,note_off,72,0,0,,4,,,76,127
23232,note_off,0,0,0,,5,,,77,127
23233,note_on,1,0,0,,2,,,74,127
23305,note_off,72,0,0,,2,,,74,127
23306,note_on,1,0,0,,4,,,76,127
23375,note_off,69,0,0,,10,,,69,127
23375,note_off,0,0,0,,10,,,57,127
23378,note_off,3,0,0,,4,,,76,127
23379,note_on,1,0,0,,2,,,86,127
23379,note_on,0,0,0,,5,,,77,127
23598,note_on,219,0,0,,8,,,68,127
23598,note_on,0,0,0,,10,,,57,127
23816,note_off,218,0,0,,10,,,57,127
23816,note_off,0,0,0,,8,,,68,127
23817,note_on,1,0,0,,10,,,57,127
23817,note_on,0,0,0,,10,,,69,127
24035,note_off,218,0,0,,5,,,77,127
24035,note_off,0,0,0,,2,,,86,127
24036,note_on,1,0,0,,4,,,76,127
24036,note_on,0,0,0,,0,,,84,127
24145,note_off,109,0,0,,0,,,84,127
24145,note_off,0,0,0,,4,,,76,127
24146,note_on,1,0,0,,12,,,83,127
24146,note_on,0,0,0,,2,,,74,127
24255,note_off,109,0,0,,2,,,74,127
24255,note_off,0,0,0,,12,,,83,127
24256,note_on,1,0,0,,0,,,72,127
24256,note_on,0,0,0,,10,,,81,127
24474,note_off,218,0,0,,10,,,81,127
24474,note_off,0,0,0,,0,,,72,127
24474,note_off,0,0,0,,10,,,69,127
24474,note_off,0,0,0,,10,,,57,127
24475,note_on,1,0,0,,0,,,60,127
24475,note_on,0,0,0,,4,,,76,127
24693,note_off,218,0,0,,4,,,76,127
24693,note_off,0,0,0,,0,,,60,127
24694,note_on,1,0,0,,2,,,62,127
24694,note_on,0,0,0,,5,,,77,127
24766,note_off,72,0,0,,5,,,77,127
24767,note_on,1,0,0,,4,,,76,127
24839,note_off,72,0,0,,4,,,76,127
24840,note_on,1,0,0,,2,,,74,127
24912,note_off,72,0,0,,2,,,74,127
24912,note_off,0,0,0,,2,,,62,127
24913,note_on,1,0,0,,2,,,50,127
24913,note_on,0,0,0,,0,,,72,127
24985,note_off,72,0,0,,0,,,72,127
24986,note_on,1,0,0,,12,,,71,127
25058,note_off,72,0,0,,12,,,71,127
25059,note_on,1,0,0,,10,,,69,127
25131,note_off,72,0,0,,10,,,69,127
25131,note_off,0,0,0,,2,,,50,127
25132,note_on,1,0,0,,4,,,52,127
25132,note_on,0,0,0,,10,,,69,127
25350,note_off,218,0,0,,10,,,69,127
25350,note_off,0,0,0,,4,,,52,127
25351,note_on,1,0,0,,4,,,40,127
25351,note_on,0,0,0,,10,,,69,127
25405,note_off,54,0,0,,10,,,69,127
25406,note_on,1,0,0,,8,,,68,127
25460,note_off,54,0,0,,8,,,68,127
25461,note_on,1,0,0,,10,,,69,127
25515,note_off,54,0,0,,10,,,69,127
25516,note_on,1,0,0,,8,,,68,127
25570,note_off,54,0,0,,8,,,68,127
25570,note_off,0,0,0,,4,,,40,127
25571,note_on,1,0,0,,10,,,45,127
25571,note_on,0,0,0,,10,,,69,127
25789,note_off,218,0,0,,10,,,69,127
25790,note_on,1,0,0,,2,,,74,127
25790,note_on,0,0,0,,0,,,72,127
25862,note_off,72,0,0,,0,,,72,127
25862,note_off,0,0,0,,2,,,74,127
25863,note_on,1,0,0,,12,,,71,127
25935,note_off,72,0,0,,12,,,71,127
25936,note_on,1,0,0,,0,,,72,127
26005,note_off,69,0,0,,10,,,45,127
26008,note_off,3,0,0,,0,,,72,127
26009,note_on,1,0,0,,2,,,74,127
26228,note_on,219,0,0,,10,,,57,127
26228,note_on,0,0,0,,5,,,65,127
26443,note_off,215,0,0,,2,,,74,127
26446,note_off,3,0,0,,5,,,65,127
26446,note_off,0,0,0,,10,,,57,127
26447,note_on,1,0,0,,10,,,57,127
26447,note_on,0,0,0,,4,,,64,127
26666,note_on,219,0,0,,0,,,72,127
26666,note_on,0,0,0,,2,,,74,127
26738,note_off,72,0,0,,2,,,74,127
26738,note_off,0,0,0,,0,,,72,127
26739,note_on,1,0,0,,12,,,71,127
26811,note_off,72,0,0,,12,,,71,127
26812,note_on,1,0,0,,0,,,72,127
26881,note_off,69,0,0,,4,,,64,127
26881,note_off,0,0,0,,10,,,57,127
26884,note_off,3,0,0,,0,,,72,127
26885,note_on,1,0,0,,2,,,74,127
27104,note_on,219,0,0,,10,,,57,127
27104,note_on,0,0,0,,5,,,65,127
27319,note_off,215,0,0,,2,,,74,127
27322,note_off,3,0,0,,5,,,65,127
27322,note_off,0,0,0,,10,,,57,127
27323,note_on,1,0,0,,4,,,64,127
27323,note_on,0,0,0,,10,,,57,127
27542,note_on,219,0,0,,4,,,76,127
27542,note_on,0,0,0,,2,,,74,127
27614,note_off,72,0,0,,2,,,74,127
27614,note_off,0,0,0,,4,,,76,127
27615,note_on,1,0,0,,1,,,73,127
27687,note_off,72,0,0,,1,,,73,127
27688,note_on,1,0,0,,2,,,74,127
27757,note_off,69,0,0,,10,,,57,127
27757,note_off,0,0,0,,4,,,64,127
27760,note_off,3,0,0,,2,,,74,127
27761,note_on,1,0,0,,4,,,76,127
27980,note_on,219,0,0,,10,,,57,127
27980,note_on,0,0,0,,7,,,67,127
28195,note_off,215,0,0,,4,,,76,127
28198,note_off,3,0,0,,7,,,67,127
28198,note_off,0,0,0,,10,,,57,127
28199,note_on,1,0,0,,10,,,57,127
28199,note_on,0,0,0,,5,,,65,127
28418,note_on,219,0,0,,2,,,74,127
28418,note_on,0,0,0,,4,,,76,127
28490,note_off,72,0,0,,4,,,76,127
28490,note_off,0,0,0,,2,,,74,127
28491,note_on,1,0,0,,1,,,73,127
28563,note_off,72,0,0,,1,,,73,127
28564,note_on,1,0,0,,2,,,74,127
28633,note_off,69,0,0,,5,,,65,127
28633,note_off,0,0,0,,10,,,57,127
28636,note_off,3,0,0,,2,,,74,127
28637,note_on,1,0,0,,4,,,76,127
28856,note_on,219,0,0,,7,,,67,127
28856,note_on,0,0,0,,10,,,57,127
29071,note_off,215,0,0,,4,,,76,127
29074,note_off,3,0,0,,10,,,57,127
29074,note_off,0,0,0,,7,,,67,127
29075,note_on,1,0,0,,5,,,65,127
29075,note_on,0,0,0,,10,,,57,127
29294,note_on,219,0,0,,5,,,77,127
29294,note_on,0,0,0,,4,,,76,127
29366,note_off,72,0,0,,4,,,76,127
29366,note_off,0,0,0,,5,,,77,127
29367,note_on,1,0,0,,2,,,74,127
29439,note_off,72,0,0,,2,,,74,127
29440,note_on,1,0,0,,4,,,76,127
29509,note_off,69,0,0,,10,,,57,127
29509,note_off,0,0,0,,5,,,65,127
29512,note_off,3,0,0,,4,,,76,127
29513,note_on,1,0,0,,5,,,77,127
29732,note_on,219,0,0,,8,,,68,127
29732,note_on,0,0,0,,10,,,57,127
29947,note_off,215,0,0,,5,,,77,127
29950,note_off,3,0,0,,10,,,57,127
29950,note_off,0,0,0,,8,,,68,127
29951,note_on,1,0,0,,10,,,69,127
29951,note_on,0,0,0,,10,,,57,127
30170,note_on,219,0,0,,4,,,76,127
30170,note_on,0,0,0,,5,,,77,127
30242,note_off,72,0,0,,5,,,77,127
30242,note_off,0,0,0,,4,,,76,127
30243,note_on,1,0,0,,2,,,74,127
30315,note_off,72,0,0,,2,,,74,127
30316,note_on,1,0,0,,4,,,76,127
30385,note_off,69,0,0,,10,,,57,127
30385,note_off,0,0,0,,10,,,69,127
30388,note_off,3,0,0,,4,,,76,127
30389,note_on,1,0,0,,5,,,77,127
30389,note_on,0,0,0,,2,,,86,127
30608,note_on,219,0,0,,8,,,68,127
30608,note_on,0,0,0,,10,,,57,127
30826,note_off,218,0,0,,10,,,57,127
30826,note_off,0,0,0,,8,,,68,127
30827,note_on,1,0,0,,10,,,69,127
30827,note_on,0,0,0,,10,,,57,127
31045,note_off,218,0,0,,2,,,86,127
31045,note_off,0,0,0,,5,,,77,127
31046,note_on,1,0,0,,4,,,76,127
31046,note_on,0,0,0,,0,,,84,127
31155,note_off,109,0,0,,0,,,84,127
31155,note_off,0,0,0,,4,,,76,127
31156,note_on,1,0,0,,12,,,83,127
31156,note_on,0,0,0,,2,,,74,127
31265,note_off,109,0,0,,2,,,74,127
31265,note_off,0,0,0,,12,,,83,127
31266,note_on,1,0,0,,0,,,72,127
31266,note_on,0,0,0,,10,,,81,127
31484,note_off,218,0,0,,10,,,81,127
31484,note_off,0,0,0,,10,,,57,127
31484,note_off,0,0,0,,10,,,69,127
31485,note_on,1,0,0,,0,,,60,127
31485,note_on,0,0,0,,4,,,76,127
31700,note_off,215,0,0,,0,,,72,127
31703,note_off,3,0,0,,4,,,76,127
31703,note_off,0,0,0,,0,,,60,127
31704,note_on,1,0,0,,2,,,62,127
31704,note_on,0,0,0,,5,,,77,127
31776,note_off,72,0,0,,5,,,77,127
31777,note_on,1,0,0,,4,,,76,127
31849,note_off,72,0,0,,4,,,76,127
31850,note_on,1,0,0,,2,,,74,127
31922,note_off,72,0,0,,2,,,74,127
31922,note_off,0,0,0,,2,,,62,127
31923,note_on,1,0,0,,2,,,50,127
31923,note_on,0,0,0,,0,,,72,127
31995,note_off,72,0,0,,0,,,72,127
31996,note_on,1,0,0,,12,,,71,127
32068,note_off,72,0,0,,12,,,71,127
32069,note_on,1,0,0,,10,,,69,127
32141,note_off,72,0,0,,10,,,69,127
32141,note_off,0,0,0,,2,,,50,127
32142,note_on,1,0,0,,4,,,52,127
32142,note_on,0,0,0,,10,,,69,127
32360,note_off,218,0,0,,10,,,69,127
32360,note_off,0,0,0,,4,,,52,127
32361,note_on,1,0,0,,4,,,40,127
32361,note_on,0,0,0,,10,,,69,127
32415,note_off,54,0,0,,10,,,69,127
32416,note_on,1,0,0,,8,,,68,127
32470,note_off,54,0,0,,8,,,68,127
32471,note_on,1,0,0,,6,,,66,127
32525,note_off,54,0,0,,6,,,66,127
32526,note_on,1,0,0,,8,,,68,127
32580,note_off,54,0,0,,8,,,68,127
32580,note_off,0,0,0,,4,,,40,127
32581,note_on,1,0,0,,10,,,45,127
32581,note_on,0,0,0,,10,,,69,127
32690,note_off,109,0,0,,10,,,45,127
32691,note_on,1,0,0,,10,,,57,127
32800,note_off,109,0,0,,10,,,57,127
32801,note_on,1,0,0,,8,,,56,127
32910,note_off,109,0,0,,8,,,56,127
32911,note_on,1,0,0,,10,,,57,127
33020,note_off,109,0,0,,10,,,57,127
33021,note_on,1,0,0,,12,,,59,127
33130,note_off,109,0,0,,12,,,59,127
33131,note_on,1,0,0,,10,,,57,127
33240,note_off,109,0,0,,10,,,57,127
33241,note_on,1,0,0,,1,,,61,127
33350,note_off,109,0,0,,1,,,61,127
33351,note_on,1,0,0,,10,,,57,127
33460,note_off,109,0,0,,10,,,57,127
33460,note_off,0,0,0,,10,,,69,127
33461,note_on,1,0,0,,10,,,45,127
33461,note_on,0,0,0,,10,,,81,127
33461,note_on,0,0,0,,10,,,69,127
33570,note_off,109,0,0,,10,,,45,127
33571,note_on,1,0,0,,10,,,57,127
33680,note_off,109,0,0,,10,,,57,127
33681,note_on,1,0,0,,8,,,56,127
33790,note_off,109,0,0,,8,,,56,127
33791,note_on,1,0,0,,10,,,57,127
33900,note_off,109,0,0,,10,,,57,127
33901,note_on,1,0,0,,1,,,61,127
34010,note_off,109,0,0,,1,,,61,127
34011,note_on,1,0,0,,10,,,57,127
34120,note_off,109,0,0,,10,,,57,127
34121,note_on,1,0,0,,2,,,62,127
34230,note_off,109,0,0,,2,,,62,127
34231,note_on,1,0,0,,10,,,57,127
34340,note_off,109,0,0,,10,,,57,127
34340,note_off,0,0,0,,10,,,69,127
34340,note_off,0,0,0,,10,,,81,127
34341,note_on,1,0,0,,10,,,45,127
34341,note_on,0,0,0,,10,,,69,127
34341,note_on,0,0,0,,10,,,81,127
34450,note_off,109,0,0,,10,,,45,127
34451,note_on,1,0,0,,10,,,57,127
34560,note_off,109,0,0,,10,,,57,127
34561,note_on,1,0,0,,8,,,56,127
34670,note_off,109,0,0,,8,,,56,127
34671,note_on,1,0,0,,10,,,57,127
34780,note_off,109,0,0,,10,,,57,127
34781,note_on,1,0,0,,2,,,62,127
34890,note_off,109,0,0,,2,,,62,127
34891,note_on,1,0,0,,10,,,57,127
35000,note_off,109,0,0,,10,,,57,127
35001,note_on,1,0,0,,4,,,64,127
35110,note_off,109,0,0,,4,,,64,127
35111,note_on,1,0,0,,10,,,57,127
35220,note_off,109,0,0,,10,,,57,127
35220,note_off,0,0,0,,10,,,81,127
35220,note_off,0,0,0,,10,,,69,127
35221,note_on,1,0,0,,10,,,45,127
35221,note_on,0,0,0,,10,,,81,127
35221,note_on,0,0,0,,10,,,69,127
35330,note_off,109,0,0,,10,,,45,127
35331,note_on,1,0,0,,10,,,57,127
35440,note_off,109,0,0,,10,,,57,127
35441,note_on,1,0,0,,8,,,56,127
35550,note_off,109,0,0,,8,,,56,127
35551,note_on,1,0,0,,10,,,57,127
35660,note_off,109,0,0,,10,,,57,127
35661,note_on,1,0,0,,4,,,64,127
35770,note_off,109,0,0,,4,,,64,127
35771,note_on,1,0,0,,10,,,57,127
35880,note_off,109,0,0,,10,,,57,127
35881,note_on,1,0,0,,6,,,66,127
35990,note_off,109,0,0,,6,,,66,127
35991,note_on,1,0,0,,10,,,57,127
36100,note_off,109,0,0,,10,,,57,127
36100,note_off,0,0,0,,10,,,69,127
36100,note_off,0,0,0,,10,,,81,127
36101,note_on,1,0,0,,10,,,45,127
36101,note_on,0,0,0,,10,,,81,127
36101,note_on,0,0,0,,10,,,69,127
36210,note_off,109,0,0,,10,,,45,127
36211,note_on,1,0,0,,10,,,57,127
36320,note_off,109,0,0,,10,,,57,127
36321,note_on,1,0,0,,8,,,56,127
36430,note_off,109,0,0,,8,,,56,127
36431,note_on,1,0,0,,10,,,57,127
36540,note_off,109,0,0,,10,,,57,127
36541,note_on,1,0,0,,6,,,66,127
36650,note_off,109,0,0,,6,,,66,127
36651,note_on,1,0,0,,10,,,57,127
36760,note_off,109,0,0,,10,,,57,127
36761,note_on,1,0,0,,8,,,68,127
36870,note_off,109,0,0,,8,,,68,127
36871,note_on,1,0,0,,10,,,57,127
36980,note_off,109,0,0,,10,,,57,127
36980,note_off,0,0,0,,10,,,69,127
36980,note_off,0,0,0,,10,,,81,127
36981,note_on,1,0,0,,10,,,45,127
36981,note_on,0,0,0,,10,,,81,127
36981,note_on,0,0,0,,10,,,69,127
37090,note_off,109,0,0,,10,,,45,127
37091,note_on,1,0,0,,10,,,57,127
37200,note_off,109,0,0,,10,,,57,127
37201,note_on,1,0,0,,8,,,56,127
37310,note_off,109,0,0,,8,,,56,127
37311,note_on,1,0,0,,10,,,57,127
37420,note_off,109,0,0,,10,,,57,127
37421,note_on,1,0,0,,8,,,68,127
37530,note_off,109,0,0,,8,,,68,127
37531,note_on,1,0,0,,10,,,57,127
37640,note_off,109,0,0,,10,,,57,127
37640,note_off,0,0,0,,10,,,69,127
37641,note_on,1,0,0,,10,,,69,127
37750,note_off,109,0,0,,10,,,69,127
37751,note_on,1,0,0,,10,,,57,127
37860,note_off,109,0,0,,10,,,57,127
37860,note_off,0,0,0,,10,,,81,127
37861,note_on,1,0,0,,10,,,33,127
37971,note_on,110,0,0,,8,,,80,127
38080,note_off,109,0,0,,8,,,80,127
38081,note_on,1,0,0,,10,,,81,127
38190,note_off,109,0,0,,10,,,81,127
38191,note_on,1,0,0,,4,,,76,127
38300,note_off,109,0,0,,4,,,76,127
38301,note_on,1,0,0,,1,,,73,127
38410,note_off,109,0,0,,1,,,73,127
38411,note_on,1,0,0,,4,,,76,127
38520,note_off,109,0,0,,4,,,76,127
38521,note_on,1,0,0,,1,,,73,127
38599,note_off,78,0,0,,10,,,33,127
38630,note_off,31,0,0,,1,,,73,127
38631,note_on,1,0,0,,10,,,69,127
38740,note_off,109,0,0,,10,,,69,127
38741,note_on,1,0,0,,2,,,38,127
38741,note_on,0,0,0,,6,,,78,127
38850,note_off,109,0,0,,6,,,78,127
38851,note_on,1,0,0,,12,,,71,127
38960,note_off,109,0,0,,12,,,71,127
38961,note_on,1,0,0,,1,,,73,127
39070,note_off,109,0,0,,1,,,73,127
39071,note_on,1,0,0,,2,,,74,127
39180,note_off,109,0,0,,2,,,74,127
39180,note_off,0,0,0,,2,,,38,127
39181,note_on,1,0,0,,4,,,40,127
39181,note_on,0,0,0,,1,,,73,127
39290,note_off,109,0,0,,1,,,73,127
39291,note_on,1,0,0,,12,,,71,127
39400,note_off,109,0,0,,12,,,71,127
39401,note_on,1,0,0,,10,,,69,127
39510,note_off,109,0,0,,10,,,69,127
39511,note_on,1,0,0,,8,,,68,127
39620,note_off,109,0,0,,8,,,68,127
39620,note_off,0,0,0,,4,,,40,127
39621,note_on,1,0,0,,10,,,45,127
39621,note_on,0,0,0,,10,,,69,127
39730,note_off,109,0,0,,10,,,45,127
39731,note_on,1,0,0,,10,,,57,127
39840,note_off,109,0,0,,10,,,57,127
39841,note_on,1,0,0,,8,,,56,127
39950,note_off,109,0,0,,8,,,56,127
39951,note_on,1,0,0,,10,,,57,127
40060,note_off,109,0,0,,10,,,57,127
40061,note_on,1,0,0,,12,,,59,127
40170,note_off,109,0,0,,12,,,59,127
40171,note_on,1,0,0,,10,,,57,127
40280,note_off,109,0,0,,10,,,57,127
40281,note_on,1,0,0,,1,,,61,127
40390,note_off,109,0,0,,1,,,61,127
40391,note_on,1,0,0,,10,,,57,127
40500,note_off,109,0,0,,10,,,57,127
40500,note_off,0,0,0,,10,,,69,127
40501,note_on,1,0,0,,10,,,45,127
40501,note_on,0,0,0,,10,,,81,127
40501,note_on,0,0,0,,10,,,69,127
40610,note_off,109,0,0,,10,,,45,127
40611,note_on,1,0,0,,10,,,57,127
40720,note_off,109,0,0,,10,,,57,127
40721,note_on,1,0,0,,8,,,56,127
40830,note_off,109,0,0,,8,,,56,127
40831,note_on,1,0,0,,10,,,57,127
40940,note_off,109,0,0,,10,,,57,127
40941,note_on,1,0,0,,1,,,61,127
41050,note_off,109,0,0,,1,,,61,127
41051,note_on,1,0,0,,10,,,57,127
41160,note_off,109,0,0,,10,,,57,127
41161,note_on,1,0,0,,2,,,62,127
41270,note_off,109,0,0,,2,,,62,127
41271,note_on,1,0,0,,10,,,57,127
41380,note_off,109,0,0,,10,,,57,127
41380,note_off,0,0,0,,10,,,69,127
41380,note_off,0,0,0,,10,,,81,127
41381,note_on,1,0,0,,10,,,45,127
41381,note_on,0,0,0,,10,,,69,127
41381,note_on,0,0,0,,10,,,81,127
41490,note_off,109,0,0,,10,,,45,127
41491,note_on,1,0,0,,10,,,57,127
41600,note_off,109,0,0,,10,,,57,127
41601,note_on,1,0,0,,8,,,56,127
41710,note_off,109,0,0,,8,,,56,127
41711,note_on,1,0,0,,10,,,57,127
41820,note_off,109,0,0,,10,,,57,127
41821,note_on,1,0,0,,2,,,62,127
41930,note_off,109,0,0,,2,,,62,127
41931,note_on,1,0,0,,10,,,57,127
42040,note_off,109,0,0,,10,,,57,127
42041,note_on,1,0,0,,4,,,64,127
42150,note_off,109,0,0,,4,,,64,127
42151,note_on,1,0,0,,10,,,57,127
42260,note_off,109,0,0,,10,,,57,127
42260,note_off,0,0,0,,10,,,81,127
42260,note_off,0,0,0,,10,,,69,127
42261,note_on,1,0,0,,10,,,45,127
42261,note_on,0,0,0,,10,,,69,127
42261,note_on,0,0,0,,10,,,81,127
42370,note_off,109,0,0,,10,,,45,127
42371,note_on,1,0,0,,10,,,57,127
42480,note_off,109,0,0,,10,,,57,127
42481,note_on,1,0,0,,8,,,56,127
42590,note_off,109,0,0,,8,,,56,127
42591,note_on,1,0,0,,10,,,57,127
42700,note_off,109,0,0,,10,,,57,127
42701,note_on,1,0,0,,4,,,64,127
42810,note_off,109,0,0,,4,,,64,127
42811,note_on,1,0,0,,10,,,57,127
42920,note_off,109,0,0,,10,,,57,127
42921,note_on,1,0,0,,6,,,66,127
43030,note_off,109,0,0,,6,,,66,127
43031,note_on,1,0,0,,10,,,57,127
43140,note_off,109,0,0,,10,,,57,127
43140,note_off,0,0,0,,10,,,81,127
43140,note_off,0,0,0,,10,,,69,127
43141,note_on,1,0,0,,10,,,45,127
43141,note_on,0,0,0,,10,,,69,127
43141,note_on,0,0,0,,10,,,81,127
43250,note_off,109,0,0,,10,,,45,127
43251,note_on,1,0,0,,10,,,57,127
43360,note_off,109,0,0,,10,,,57,127
43361,note_on,1,0,0,,8,,,56,127
43470,note_off,109,0,0,,8,,,56,127
43471,note_on,1,0,0,,10,,,57,127
43580,note_off,109,0,0,,10,,,57,127
43581,note_on,1,0,0,,6,,,66,127
43690,note_off,109,0,0,,6,,,66,127
43691,note_on,1,0,0,,10,,,57,127
43800,note_off,109,0,0,,10,,,57,127
43801,note_on,1,0,0,,8,,,68,127
43910,note_off,109,0,0,,8,,,68,127
43911,note_on,1,0,0,,10,,,57,127
44020,note_off,109,0,0,,10,,,57,127
44020,note_off,0,0,0,,10,,,81,127
44020,note_off,0,0,0,,10,,,69,127
44021,note_on,1,0,0,,10,,,45,127
44021,note_on,0,0,0,,10,,,69,127
44021,note_on,0,0,0,,10,,,81,127
44130,note_off,109,0,0,,10,,,45,127
44131,note_on,1,0,0,,10,,,57,127
44240,note_off,109,0,0,,10,,,57,127
44241,note_on,1,0,0,,8,,,56,127
44350,note_off,109,0,0,,8,,,56,127
44351,note_on,1,0,0,,10,,,57,127
44460,note_off,109,0,0,,10,,,57,127
44461,note_on,1,0,0,,8,,,68,127
44570,note_off,109,0,0,,8,,,68,127
44571,note_on,1,0,0,,10,,,57,127
44680,note_off,109,0,0,,10,,,57,127
44680,note_off,0,0,0,,10,,,69,127
44681,note_on,1,0,0,,10,,,69,127
44790,note_off,109,0,0,,10,,,69,127
44791,note_on,1,0,0,,10,,,57,127
44900,note_off,109,0,0,,10,,,57,127
44900,note_off,0,0,0,,10,,,81,127
44901,note_on,1,0,0,,10,,,33,127
45011,note_on,110,0,0,,8,,,80,127
45120,note_off,109,0,0,,8,,,80,127
45121,note_on,1,0,0,,10,,,81,127
45230,note_off,109,0,0,,10,,,81,127
45231,note_on,1,0,0,,4,,,76,127
45340,note_off,109,0,0,,4,,,76,127
45341,note_on,1,0,0,,1,,,73,127
45450,note_off,109,0,0,,1,,,73,127
45451,note_on,1,0,0,,4,,,76,127
45560,note_off,109,0,0,,4,,,76,127
45561,note_on,1,0,0,,1,,,73,127
45639,note_off,78,0,0,,10,,,33,127
45670,note_off,31,0,0,,1,,,73,127
45671,note_on,1,0,0,,10,,,69,127
45780,note_off,109,0,0,,10,,,69,127
45781,note_on,1,0,0,,2,,,38,127
45781,note_on,0,0,0,,6,,,78,127
45890,note_off,109,0,0,,6,,,78,127
45891,note_on,1,0,0,,12,,,71,127
46000,note_off,109,0,0,,12,,,71,127
46001,note_on,1,0,0,,1,,,73,127
46110,note_off,109,0,0,,1,,,73,127
46111,note_on,1,0,0,,2,,,74,127
46220,note_off,109,0,0,,2,,,74,127
46220,note_off,0,0,0,,2,,,38,127
46221,note_on,1,0,0,,4,,,40,127
46221,note_on,0,0,0,,1,,,73,127
46330,note_off,109,0,0,,1,,,73,127
46331,note_on,1,0,0,,12,,,71,127
46440,note_off,109,0,0,,12,,,71,127
46441,note_on,1,0,0,,10,,,69,127
46550,note_off,109,0,0,,10,,,69,127
46551,note_on,1,0,0,,8,,,68,127
46660,note_off,109,0,0,,8,,,68,127
46660,note_off,0,0,0,,4,,,40,127
46661,note_on,1,0,0,,10,,,45,127
46661,note_on,0,0,0,,10,,,69,127
46770,note_off,109,0,0,,10,,,45,127
46771,note_on,1,0,0,,8,,,56,127
46880,note_off,109,0,0,,8,,,56,127
46881,note_on,1,0,0,,10,,,57,127
46990,note_off,109,0,0,,10,,,57,127
46991,note_on,1,0,0,,4,,,52,127
47100,note_off,109,0,0,,4,,,52,127
47101,note_on,1,0,0,,1,,,49,127
47210,note_off,109,0,0,,1,,,49,127
47211,note_on,1,0,0,,4,,,52,127
47320,note_off,109,0,0,,4,,,52,127
47321,note_on,1,0,0,,1,,,49,127
47430,note_off,109,0,0,,1,,,49,127
47431,note_on,1,0,0,,10,,,45,127
47540,note_off,109,0,0,,10,,,45,127
47540,note_off,0,0,0,,10,,,69,127
47541,note_on,1,0,0,,2,,,38,127
47541,note_on,0,0,0,,2,,,50,127
47651,note_on,110,0,0,,12,,,71,127
47760,note_off,109,0,0,,12,,,71,127
47761,note_on,1,0,0,,1,,,73,127
47870,note_off,109,0,0,,1,,,73,127
47871,note_on,1,0,0,,2,,,74,127
47980,note_off,109,0,0,,2,,,74,127
47980,note_off,0,0,0,,2,,,50,127
47980,note_off,0,0,0,,2,,,38,127
47981,note_on,1,0,0,,4,,,40,127
47981,note_on,0,0,0,,4,,,52,127
47981,note_on,0,0,0,,1,,,73,127
48090,note_off,109,0,0,,1,,,73,127
48091,note_on,1,0,0,,12,,,71,127
48200,note_off,109,0,0,,12,,,71,127
48201,note_on,1,0,0,,10,,,69,127
48310,note_off,109,0,0,,10,,,69,127
48311,note_on,1,0,0,,8,,,68,127
48420,note_off,109,0,0,,8,,,68,127
48420,note_off,0,0,0,,4,,,52,127
48420,note_off,0,0,0,,4,,,40,127
48421,note_on,1,0,0,,10,,,45,127
48421,note_on,0,0,0,,10,,,69,127
48530,note_off,109,0,0,,10,,,45,127
48531,note_on,1,0,0,,8,,,56,127
48640,note_off,109,0,0,,8,,,56,127
48641,note_on,1,0,0,,10,,,57,127
48750,note_off,109,0,0,,10,,,57,127
48751,note_on,1,0,0,,4,,,52,127
48860,note_off,109,0,0,,4,,,52,127
48861,note_on,1,0,0,,1,,,49,127
48970,note_off,109,0,0,,1,,,49,127
48971,note_on,1,0,0,,4,,,52,127
49080,note_off,109,0,0,,4,,,52,127
49081,note_on,1,0,0,,1,,,49,127
49190,note_off,109,0,0,,1,,,49,127
49191,note_on,1,0,0,,10,,,45,127
49300,note_off,109,0,0,,10,,,45,127
49300,note_off,0,0,0,,10,,,69,127
49301,note_on,1,0,0,,2,,,50,127
49301,note_on,0,0,0,,2,,,38,127
49411,note_on,110,0,0,,2,,,74,127
49520,note_off,109,0,0,,2,,,74,127
49521,note_on,1,0,0,,4,,,76,127
49630,note_off,109,0,0,,4,,,76,127
49631,note_on,1,0,0,,6,,,78,127
49740,note_off,109,0,0,,6,,,78,127
49740,note_off,0,0,0,,2,,,38,127
49740,note_off,0,0,0,,2,,,50,127
49741,note_on,1,0,0,,4,,,52,127
49741,note_on,0,0,0,,4,,,40,127
49741,note_on,0,0,0,,4,,,76,127
49850,note_off,109,0,0,,4,,,76,127
49851,note_on,1,0,0,,2,,,74,127
49960,note_off,109,0,0,,2,,,74,127
49961,note_on,1,0,0,,1,,,73,127
50070,note_off,109,0,0,,1,,,73,127
50071,note_on,1,0,0,,12,,,71,127
50180,note_off,109,0,0,,12,,,71,127
50180,note_off,0,0,0,,4,,,40,127
50180,note_off,0,0,0,,4,,,52,127
50181,note_on,1,0,0,,10,,,45,127
50181,note_on,0,0,0,,10,,,33,127
50181,note_on,0,0,0,,10,,,69,127
50838,note_off,657,0,0,,10,,,69,127
51057,note_off,219,0,0,,10,,,33,127
51057,note_off,0,0,0,,10,,,45,127
51058,note_on,1,0,0,,10,,,45,127
51058,note_on,0,0,0,,10,,,69,127
51058,note_on,0,0,0,,10,,,81,127
51167,note_off,109,0,0,,10,,,45,127
51168,note_on,1,0,0,,10,,,57,127
51277,note_off,109,0,0,,10,,,57,127
51278,note_on,1,0,0,,8,,,56,127
51387,note_off,109,0,0,,8,,,56,127
51388,note_on,1,0,0,,10,,,57,127
51497,note_off,109,0,0,,10,,,57,127
51498,note_on,1,0,0,,12,,,59,127
51607,note_off,109,0,0,,12,,,59,127
51608,note_on,1,0,0,,10,,,57,127
51717,note_off,109,0,0,,10,,,57,127
51718,note_on,1,0,0,,1,,,61,127
51827,note_off,109,0,0,,1,,,61,127
51828,note_on,1,0,0,,10,,,57,127
51937,note_off,109,0,0,,10,,,57,127
51937,note_off,0,0,0,,10,,,81,127
51937,note_off,0,0,0,,10,,,69,127
51938,note_on,1,0,0,,10,,,45,127
51938,note_on,0,0,0,,10,,,81,127
51938,note_on,0,0,0,,10,,,69,127
52047,note_off,109,0,0,,10,,,45,127
52048,note_on,1,0,0,,10,,,57,127
52157,note_off,109,0,0,,10,,,57,127
52158,note_on,1,0,0,,8,,,56,127
52267,note_off,109,0,0,,8,,,56,127
52268,note_on,1,0,0,,10,,,57,127
52377,note_off,109,0,0,,10,,,57,127
52378,note_on,1,0,0,,1,,,61,127
52487,note_off,109,0,0,,1,,,61,127
52488,note_on,1,0,0,,10,,,57,127
52597,note_off,109,0,0,,10,,,57,127
52598,note_on,1,0,0,,2,,,62,127
52707,note_off,109,0,0,,2,,,62,127
52708,note_on,1,0,0,,10,,,57,127
52817,note_off,109,0,0,,10,,,57,127
52817,note_off,0,0,0,,10,,,69,127
52817,note_off,0,0,0,,10,,,81,127
52818,note_on,1,0,0,,10,,,45,127
52818,note_on,0,0,0,,10,,,81,127
52927,note_off,109,0,0,,10,,,81,127
52928,note_on,1,0,0,,7,,,79,127
53037,note_off,109,0,0,,7,,,79,127
53038,note_on,1,0,0,,6,,,78,127
53147,note_off,109,0,0,,6,,,78,127
53148,note_on,1,0,0,,4,,,76,127
53257,note_off,109,0,0,,4,,,76,127
53258,note_on,1,0,0,,2,,,74,127
53367,note_off,109,0,0,,2,,,74,127
53368,note_on,1,0,0,,1,,,73,127
53477,note_off,109,0,0,,1,,,73,127
53478,note_on,1,0,0,,12,,,71,127
53556,note_off,78,0,0,,10,,,45,127
53587,note_off,31,0,0,,12,,,71,127
53588,note_on,1,0,0,,10,,,69,127
53697,note_off,109,0,0,,10,,,69,127
53698,note_on,1,0,0,,2,,,38,127
53698,note_on,0,0,0,,2,,,74,127
53698,note_on,0,0,0,,2,,,86,127
53807,note_off,109,0,0,,2,,,38,127
53808,note_on,1,0,0,,2,,,50,127
53917,note_off,109,0,0,,2,,,50,127
53918,note_on,1,0,0,,1,,,49,127
54027,note_off,109,0,0,,1,,,49,127
54028,note_on,1,0,0,,2,,,50,127
54137,note_off,109,0,0,,2,,,50,127
54138,note_on,1,0,0,,4,,,52,127
54247,note_off,109,0,0,,4,,,52,127
54248,note_on,1,0,0,,2,,,50,127
54357,note_off,109,0,0,,2,,,50,127
54358,note_on,1,0,0,,6,,,54,127
54467,note_off,109,0,0,,6,,,54,127
54468,note_on,1,0,0,,2,,,50,127
54577,note_off,109,0,0,,2,,,50,127
54577,note_off,0,0,0,,2,,,86,127
54577,note_off,0,0,0,,2,,,74,127
54578,note_on,1,0,0,,2,,,38,127
54578,note_on,0,0,0,,2,,,86,127
54578,note_on,0,0,0,,2,,,74,127
54687,note_off,109,0,0,,2,,,38,127
54688,note_on,1,0,0,,2,,,50,127
54797,note_off,109,0,0,,2,,,50,127
54798,note_on,1,0,0,,1,,,49,127
54907,note_off,109,0,0,,1,,,49,127
54908,note_on,1,0,0,,2,,,50,127
55017,note_off,109,0,0,,2,,,50,127
55018,note_on,1,0,0,,6,,,54,127
55127,note_off,109,0,0,,6,,,54,127
55128,note_on,1,0,0,,2,,,50,127
55237,note_off,109,0,0,,2,,,50,127
55238,note_on,1,0,0,,7,,,55,127
55347,note_off,109,0,0,,7,,,55,127
55348,note_on,1,0,0,,2,,,50,127
55457,note_off,109,0,0,,2,,,50,127
55457,note_off,0,0,0,,2,,,74,127
55457,note_off,0,0,0,,2,,,86,127
55458,note_on,1,0,0,,2,,,38,127
55458,note_on,0,0,0,,2,,,86,127
55567,note_off,109,0,0,,2,,,86,127
55568,note_on,1,0,0,,1,,,85,127
55677,note_off,109,0,0,,1,,,85,127
55678,note_on,1,0,0,,12,,,83,127
55787,note_off,109,0,0,,12,,,83,127
55788,note_on,1,0,0,,10,,,81,127
55897,note_off,109,0,0,,10,,,81,127
55898,note_on,1,0,0,,7,,,79,127
56007,note_off,109,0,0,,7,,,79,127
56008,note_on,1,0,0,,6,,,78,127
56117,note_off,109,0,0,,6,,,78,127
56118,note_on,1,0,0,,4,,,76,127
56227,note_off,109,0,0,,4,,,76,127
56228,note_on,1,0,0,,2,,,74,127
56306,note_off,78,0,0,,2,,,38,127
56337,note_off,31,0,0,,2,,,74,127
56338,note_on,1,0,0,,7,,,55,127
56338,note_on,0,0,0,,7,,,43,127
56338,note_on,0,0,0,,12,,,83,127
56447,note_off,109,0,0,,12,,,83,127
56448,note_on,1,0,0,,10,,,81,127
56557,note_off,109,0,0,,10,,,81,127
56557,note_off,0,0,0,,7,,,43,127
56557,note_off,0,0,0,,7,,,55,127
56558,note_on,1,0,0,,10,,,45,127
56558,note_on,0,0,0,,10,,,57,127
56558,note_on,0,0,0,,7,,,79,127
56667,note_off,109,0,0,,7,,,79,127
56668,note_on,1,0,0,,6,,,78,127
56777,note_off,109,0,0,,6,,,78,127
56777,note_off,0,0,0,,10,,,57,127
56777,note_off,0,0,0,,10,,,45,127
56778,note_on,1,0,0,,12,,,47,127
56778,note_on,0,0,0,,12,,,59,127
56778,note_on,0,0,0,,7,,,79,127
56887,note_off,109,0,0,,7,,,79,127
56888,note_on,1,0,0,,12,,,83,127
56997,note_off,109,0,0,,12,,,83,127
56997,note_off,0,0,0,,12,,,59,127
56997,note_off,0,0,0,,12,,,47,127
56998,note_on,1,0,0,,1,,,49,127
56998,note_on,0,0,0,,1,,,61,127
56998,note_on,0,0,0,,10,,,81,127
57107,note_off,109,0,0,,10,,,81,127
57108,note_on,1,0,0,,7,,,79,127
57217,note_off,109,0,0,,7,,,79,127
57217,note_off,0,0,0,,1,,,61,127
57217,note_off,0,0,0,,1,,,49,127
57218,note_on,1,0,0,,2,,,50,127
57218,note_on,0,0,0,,2,,,62,127
57218,note_on,0,0,0,,6,,,78,127
57327,note_off,109,0,0,,6,,,78,127
57328,note_on,1,0,0,,4,,,76,127
57437,note_off,109,0,0,,4,,,76,127
57437,note_off,0,0,0,,2,,,62,127
57437,note_off,0,0,0,,2,,,50,127
57438,note_on,1,0,0,,4,,,64,127
57438,note_on,0,0,0,,4,,,52,127
57438,note_on,0,0,0,,2,,,74,127
57547,note_off,109,0,0,,2,,,74,127
57548,note_on,1,0,0,,1,,,73,127
57657,note_off,109,0,0,,1,,,73,127
57657,note_off,0,0,0,,4,,,52,127
57657,note_off,0,0,0,,4,,,64,127
57658,note_on,1,0,0,,6,,,54,127
57658,note_on,0,0,0,,6,,,66,127
57658,note_on,0,0,0,,2,,,74,127
57767,note_off,109,0,0,,2,,,74,127
57768,note_on,1,0,0,,6,,,78,127
57877,note_off,109,0,0,,6,,,78,127
57877,note_off,0,0,0,,6,,,66,127
57877,note_off,0,0,0,,6,,,54,127
57878,note_on,1,0,0,,8,,,56,127
57878,note_on,0,0,0,,8,,,68,127
57878,note_on,0,0,0,,4,,,76,127
57987,note_off,109,0,0,,4,,,76,127
57988,note_on,1,0,0,,2,,,74,127
58097,note_off,109,0,0,,2,,,74,127
58097,note_off,0,0,0,,8,,,68,127
58097,note_off,0,0,0,,8,,,56,127
58098,note_on,1,0,0,,10,,,69,127
58098,note_on,0,0,0,,10,,,57,127
58098,note_on,0,0,0,,4,,,76,127
58207,note_off,109,0,0,,4,,,76,127
58208,note_on,1,0,0,,2,,,74,127
58317,note_off,109,0,0,,2,,,74,127
58318,note_on,1,0,0,,1,,,73,127
58427,note_off,109,0,0,,1,,,73,127
58428,note_on,1,0,0,,12,,,71,127
58533,note_off,105,0,0,,10,,,69,127
58536,note_off,3,0,0,,12,,,71,127
58537,note_on,1,0,0,,10,,,69,127
58646,note_off,109,0,0,,10,,,57,127
58647,note_on,1,0,0,,7,,,67,127
58756,note_off,109,0,0,,7,,,67,127
58757,note_on,1,0,0,,6,,,66,127
58866,note_off,109,0,0,,6,,,66,127
58867,note_on,1,0,0,,4,,,64,127
58972,note_off,105,0,0,,10,,,69,127
58975,note_off,3,0,0,,4,,,64,127
58976,note_on,1,0,0,,2,,,62,127
58976,note_on,0,0,0,,10,,,69,127
58976,note_on,0,0,0,,6,,,78,127
59030,note_off,54,0,0,,6,,,78,127
59031,note_on,1,0,0,,7,,,79,127
59085,note_off,54,0,0,,7,,,79,127
59086,note_on,1,0,0,,10,,,81,127
59195,note_off,109,0,0,,10,,,81,127
59195,note_off,0,0,0,,10,,,69,127
59196,note_on,1,0,0,,12,,,71,127
59196,note_on,0,0,0,,7,,,79,127
59414,note_off,218,0,0,,7,,,79,127
59414,note_off,0,0,0,,12,,,71,127
59415,note_on,1,0,0,,10,,,69,127
59415,note_on,0,0,0,,6,,,78,127
59633,note_off,218,0,0,,6,,,78,127
59633,note_off,0,0,0,,10,,,69,127
59634,note_on,1,0,0,,7,,,67,127
59634,note_on,0,0,0,,4,,,76,127
59828,note_off,194,0,0,,4,,,76,127
59852,note_off,24,0,0,,7,,,67,127
59852,note_off,0,0,0,,2,,,62,127
59853,note_on,1,0,0,,2,,,62,127
59853,note_on,0,0,0,,6,,,66,127
59853,note_on,0,0,0,,10,,,81,127
59907,note_off,54,0,0,,10,,,81,127
59908,note_on,1,0,0,,12,,,83,127
59962,note_off,54,0,0,,12,,,83,127
59963,note_on,1,0,0,,0,,,84,127
60072,note_off,109,0,0,,0,,,84,127
60072,note_off,0,0,0,,6,,,66,127
60073,note_on,1,0,0,,7,,,67,127
60073,note_on,0,0,0,,12,,,83,127
60291,note_off,218,0,0,,12,,,83,127
60291,note_off,0,0,0,,7,,,67,127
60292,note_on,1,0,0,,6,,,66,127
60292,note_on,0,0,0,,10,,,81,127
60510,note_off,218,0,0,,10,,,81,127
60510,note_off,0,0,0,,6,,,66,127
60511,note_on,1,0,0,,4,,,64,127
60511,note_on,0,0,0,,7,,,79,127
60729,note_off,218,0,0,,7,,,79,127
60729,note_off,0,0,0,,4,,,64,127
60729,note_off,0,0,0,,2,,,62,127
60730,note_on,1,0,0,,2,,,62,127
60730,note_on,0,0,0,,10,,,69,127
60730,note_on,0,0,0,,6,,,78,127
60784,note_off,54,0,0,,6,,,78,127
60785,note_on,1,0,0,,7,,,79,127
60839,note_off,54,0,0,,7,,,79,127
60840,note_on,1,0,0,,10,,,81,127
60949,note_off,109,0,0,,10,,,81,127
60949,note_off,0,0,0,,10,,,69,127
60950,note_on,1,0,0,,12,,,71,127
60950,note_on,0,0,0,,7,,,79,127
61168,note_off,218,0,0,,7,,,79,127
61168,note_off,0,0,0,,12,,,71,127
61169,note_on,1,0,0,,10,,,69,127
61169,note_on,0,0,0,,6,,,78,127
61387,note_off,218,0,0,,6,,,78,127
61387,note_off,0,0,0,,10,,,69,127
61388,note_on,1,0,0,,7,,,67,127
61388,note_on,0,0,0,,4,,,76,127
61582,note_off,194,0,0,,4,,,76,127
61606,note_off,24,0,0,,7,,,67,127
61606,note_off,0,0,0,,2,,,62,127
61607,note_on,1,0,0,,6,,,66,127
61607,note_on,0,0,0,,2,,,62,127
61607,note_on,0,0,0,,10,,,81,127
61661,note_off,54,0,0,,10,,,81,127
61662,note_on,1,0,0,,12,,,83,127
61716,note_off,54,0,0,,12,,,83,127
61717,note_on,1,0,0,,0,,,84,127
61826,note_off,109,0,0,,0,,,84,127
61826,note_off,0,0,0,,6,,,66,127
61827,note_on,1,0,0,,7,,,67,127
61827,note_on,0,0,0,,12,,,83,127
62045,note_off,218,0,0,,12,,,83,127
62045,note_off,0,0,0,,7,,,67,127
62046,note_on,1,0,0,,6,,,66,127
62046,note_on,0,0,0,,10,,,81,127
62264,note_off,218,0,0,,10,,,81,127
62264,note_off,0,0,0,,6,,,66,127
62264,note_off,0,0,0,,2,,,62,127
62265,note_on,1,0,0,,4,,,64,127
62265,note_on,0,0,0,,7,,,79,127
62483,note_off,218,0,0,,7,,,79,127
62483,note_off,0,0,0,,4,,,64,127
62484,note_on,1,0,0,,2,,,62,127
62484,note_on,0,0,0,,6,,,78,127
62702,note_off,218,0,0,,6,,,78,127
62703,note_on,1,0,0,,4,,,76,127
62921,note_off,218,0,0,,4,,,76,127
62922,note_on,1,0,0,,2,,,74,127
63140,note_off,218,0,0,,2,,,74,127
63140,note_off,0,0,0,,2,,,62,127
63141,note_on,1,0,0,,4,,,64,127
63141,note_on,0,0,0,,10,,,69,127
63141,note_on,0,0,0,,0,,,72,127
63141,note_on,0,0,0,,10,,,81,127
63359,note_off,218,0,0,,0,,,72,127
63359,note_off,0,0,0,,10,,,69,127
63359,note_off,0,0,0,,4,,,64,127
63360,note_on,1,0,0,,3,,,63,127
63360,note_on,0,0,0,,10,,,69,127
63360,note_on,0,0,0,,12,,,71,127
63578,note_off,218,0,0,,12,,,71,127
63578,note_off,0,0,0,,3,,,63,127
63579,note_on,1,0,0,,4,,,64,127
63579,note_on,0,0,0,,0,,,72,127
63797,note_off,218,0,0,,0,,,72,127
63797,note_off,0,0,0,,4,,,64,127
63798,note_on,1,0,0,,3,,,63,127
63798,note_on,0,0,0,,12,,,71,127
64016,note_off,218,0,0,,12,,,71,127
64016,note_off,0,0,0,,3,,,63,127
64017,note_on,1,0,0,,4,,,64,127
64017,note_on,0,0,0,,0,,,72,127
64235,note_off,218,0,0,,0,,,72,127
64235,note_off,0,0,0,,4,,,64,127
64235,note_off,0,0,0,,10,,,69,127
64236,note_off,1,0,0,,10,,,81,127
64236,note_on,0,0,0,,10,,,69,127
64236,note_on,0,0,0,,3,,,63,127
64236,note_on,0,0,0,,12,,,71,127
64236,note_on,0,0,0,,10,,,81,127
64454,note_off,218,0,0,,12,,,71,127
64454,note_off,0,0,0,,3,,,63,127
64455,note_on,1,0,0,,4,,,64,127
64455,note_on,0,0,0,,0,,,72,127
64673,note_off,218,0,0,,0,,,72,127
64673,note_off,0,0,0,,4,,,64,127
64674,note_on,1,0,0,,3,,,63,127
64674,note_on,0,0,0,,12,,,71,127
64892,note_off,218,0,0,,12,,,71,127
64892,note_off,0,0,0,,3,,,63,127
64893,note_on,1,0,0,,4,,,64,127
64893,note_on,0,0,0,,0,,,72,127
65111,note_off,218,0,0,,0,,,72,127
65111,note_off,0,0,0,,4,,,64,127
65111,note_off,0,0,0,,10,,,81,127
65111,note_off,0,0,0,,10,,,69,127
65112,note_on,1,0,0,,3,,,63,127
65112,note_on,0,0,0,,12,,,71,127
65112,note_on,0,0,0,,10,,,81,127
65330,note_off,218,0,0,,10,,,81,127
65330,note_off,0,0,0,,12,,,71,127
65330,note_off,0,0,0,,3,,,63,127
65331,note_on,1,0,0,,10,,,69,127
65331,note_on,0,0,0,,3,,,75,127
65549,note_off,218,0,0,,3,,,75,127
65549,note_off,0,0,0,,10,,,69,127
65550,note_on,1,0,0,,7,,,67,127
65550,note_on,0,0,0,,4,,,76,127
65768,note_off,218,0,0,,4,,,76,127
65768,note_off,0,0,0,,7,,,67,127
65769,note_on,1,0,0,,6,,,66,127
65769,note_on,0,0,0,,6,,,78,127
65987,note_off,218,0,0,,6,,,78,127
65987,note_off,0,0,0,,6,,,66,127
65988,note_on,1,0,0,,7,,,67,127
65988,note_on,0,0,0,,4,,,64,127
65988,note_on,0,0,0,,7,,,79,127
66206,note_off,218,0,0,,4,,,64,127
66207,note_on,1,0,0,,2,,,62,127
66207,note_on,0,0,0,,11,,,70,127
66425,note_off,218,0,0,,11,,,70,127
66425,note_off,0,0,0,,2,,,62,127
66426,note_on,1,0,0,,1,,,61,127
66426,note_on,0,0,0,,10,,,69,127
66644,note_off,218,0,0,,10,,,69,127
66644,note_off,0,0,0,,1,,,61,127
66645,note_on,1,0,0,,2,,,62,127
66645,note_on,0,0,0,,11,,,70,127
66863,note_off,218,0,0,,11,,,70,127
66863,note_off,0,0,0,,2,,,62,127
66863,note_off,0,0,0,,7,,,79,127
66863,note_off,0,0,0,,7,,,67,127
66864,note_on,1,0,0,,1,,,61,127
66864,note_on,0,0,0,,7,,,67,127
66864,note_on,0,0,0,,10,,,69,127
66864,note_on,0,0,0,,7,,,79,127
67082,note_off,218,0,0,,10,,,69,127
67082,note_off,0,0,0,,1,,,61,127
67083,note_on,1,0,0,,2,,,62,127
67083,note_on,0,0,0,,11,,,70,127
67301,note_off,218,0,0,,11,,,70,127
67301,note_off,0,0,0,,2,,,62,127
67302,note_on,1,0,0,,1,,,61,127
67302,note_on,0,0,0,,10,,,69,127
67520,note_off,218,0,0,,10,,,69,127
67520,note_off,0,0,0,,1,,,61,127
67521,note_on,1,0,0,,2,,,62,127
67521,note_on,0,0,0,,11,,,70,127
67739,note_off,218,0,0,,11,,,70,127
67739,note_off,0,0,0,,2,,,62,127
67739,note_off,0,0,0,,7,,,79,127
67739,note_off,0,0,0,,7,,,67,127
67740,note_on,1,0,0,,1,,,61,127
67740,note_on,0,0,0,,10,,,69,127
67740,note_on,0,0,0,,7,,,79,127
67957,note_off,217,0,0,,7,,,79,127
67958,note_off,1,0,0,,10,,,69,127
67958,note_off,0,0,0,,1,,,61,127
67959,note_on,1,0,0,,7,,,67,127
67959,note_on,0,0,0,,1,,,73,127
68177,note_off,218,0,0,,1,,,73,127
68177,note_off,0,0,0,,7,,,67,127
68178,note_on,1,0,0,,5,,,65,127
68178,note_on,0,0,0,,2,,,74,127
68396,note_off,218,0,0,,2,,,74,127
68396,note_off,0,0,0,,5,,,65,127
68397,note_on,1,0,0,,4,,,64,127
68397,note_on,0,0,0,,4,,,76,127
68615,note_off,218,0,0,,4,,,76,127
68615,note_off,0,0,0,,4,,,64,127
68616,note_on,1,0,0,,2,,,62,127
68616,note_on,0,0,0,,5,,,77,127
68834,note_off,218,0,0,,5,,,77,127
68834,note_off,0,0,0,,2,,,62,127
68835,note_on,1,0,0,,0,,,60,127
68835,note_on,0,0,0,,5,,,77,127
69053,note_off,218,0,0,,5,,,77,127
69053,note_off,0,0,0,,0,,,60,127
69054,note_on,1,0,0,,11,,,58,127
69054,note_on,0,0,0,,7,,,79,127
69272,note_off,218,0,0,,7,,,79,127
69272,note_off,0,0,0,,11,,,58,127
69273,note_on,1,0,0,,10,,,57,127
69273,note_on,0,0,0,,10,,,81,127
69491,note_off,218,0,0,,10,,,81,127
69491,note_off,0,0,0,,10,,,57,127
69492,note_on,1,0,0,,7,,,55,127
69492,note_on,0,0,0,,11,,,82,127
69492,note_on,0,0,0,,2,,,74,127
69710,note_off,218,0,0,,2,,,74,127
69710,note_off,0,0,0,,11,,,82,127
69710,note_off,0,0,0,,7,,,55,127
69711,note_on,1,0,0,,10,,,57,127
69711,note_on,0,0,0,,1,,,73,127
69711,note_on,0,0,0,,10,,,81,127
69929,note_off,218,0,0,,1,,,73,127
69929,note_off,0,0,0,,10,,,57,127
69930,note_on,1,0,0,,11,,,58,127
69930,note_on,0,0,0,,2,,,74,127
70145,note_off,215,0,0,,10,,,81,127
70150,note_on,5,0,0,,7,,,79,127
70365,note_off,215,0,0,,2,,,74,127
70368,note_off,3,0,0,,11,,,58,127
70369,note_on,1,0,0,,10,,,57,127
70369,note_on,0,0,0,,1,,,73,127
70584,note_off,215,0,0,,7,,,79,127
70589,note_on,5,0,0,,10,,,81,127
71023,note_off,434,0,0,,10,,,81,127
71026,note_off,3,0,0,,1,,,73,127
71026,note_off,0,0,0,,10,,,57,127
71247,note_on,221,0,0,,2,,,50,127
71466,note_on,219,0,0,,5,,,77,127
71466,note_on,0,0,0,,7,,,79,127
71538,note_off,72,0,0,,7,,,79,127
71538,note_off,0,0,0,,5,,,77,127
71539,note_on,1,0,0,,4,,,76,127
71611,note_off,72,0,0,,4,,,76,127
71612,note_on,1,0,0,,5,,,77,127
71681,note_off,69,0,0,,2,,,50,127
71684,note_off,3,0,0,,5,,,77,127
71685,note_on,1,0,0,,7,,,79,127
71904,note_on,219,0,0,,2,,,62,127
71904,note_on,0,0,0,,11,,,70,127
72119,note_off,215,0,0,,7,,,79,127
72122,note_off,3,0,0,,11,,,70,127
72122,note_off,0,0,0,,2,,,62,127
72123,note_on,1,0,0,,2,,,62,127
72123,note_on,0,0,0,,10,,,69,127
72342,note_on,219,0,0,,5,,,77,127
72342,note_on,0,0,0,,7,,,79,127
72414,note_off,72,0,0,,7,,,79,127
72414,note_off,0,0,0,,5,,,77,127
72415,note_on,1,0,0,,4,,,76,127
72487,note_off,72,0,0,,4,,,76,127
72488,note_on,1,0,0,,5,,,77,127
72557,note_off,69,0,0,,10,,,69,127
72557,note_off,0,0,0,,2,,,62,127
72560,note_off,3,0,0,,5,,,77,127
72561,note_on,1,0,0,,7,,,79,127
72780,note_on,219,0,0,,11,,,70,127
72780,note_on,0,0,0,,2,,,62,127
72995,note_off,215,0,0,,7,,,79,127
72998,note_off,3,0,0,,2,,,62,127
72998,note_off,0,0,0,,11,,,70,127
72999,note_on,1,0,0,,2,,,62,127
72999,note_on,0,0,0,,10,,,69,127
73218,note_on,219,0,0,,10,,,81,127
73218,note_on,0,0,0,,7,,,79,127
73290,note_off,72,0,0,,7,,,79,127
73290,note_off,0,0,0,,10,,,81,127
73291,note_on,1,0,0,,6,,,78,127
73363,note_off,72,0,0,,6,,,78,127
73364,note_on,1,0,0,,7,,,79,127
73433,note_off,69,0,0,,10,,,69,127
73433,note_off,0,0,0,,2,,,62,127
73436,note_off,3,0,0,,7,,,79,127
73437,note_on,1,0,0,,10,,,81,127
73656,note_on,219,0,0,,0,,,72,127
73656,note_on,0,0,0,,2,,,62,127
73871,note_off,215,0,0,,10,,,81,127
73874,note_off,3,0,0,,2,,,62,127
73874,note_off,0,0,0,,0,,,72,127
73875,note_on,1,0,0,,11,,,70,127
73875,note_on,0,0,0,,2,,,62,127
74094,note_on,219,0,0,,10,,,81,127
74094,note_on,0,0,0,,7,,,79,127
74166,note_off,72,0,0,,7,,,79,127
74166,note_off,0,0,0,,10,,,81,127
74167,note_on,1,0,0,,6,,,78,127
74239,note_off,72,0,0,,6,,,78,127
74240,note_on,1,0,0,,7,,,79,127
74309,note_off,69,0,0,,2,,,62,127
74309,note_off,0,0,0,,11,,,70,127
74312,note_off,3,0,0,,7,,,79,127
74313,note_on,1,0,0,,10,,,81,127
74532,note_on,219,0,0,,2,,,62,127
74532,note_on,0,0,0,,0,,,72,127
74747,note_off,215,0,0,,10,,,81,127
74750,note_off,3,0,0,,0,,,72,127
74750,note_off,0,0,0,,2,,,62,127
74751,note_on,1,0,0,,11,,,70,127
74751,note_on,0,0,0,,2,,,62,127
74970,note_on,219,0,0,,11,,,82,127
74970,note_on,0,0,0,,10,,,81,127
75042,note_off,72,0,0,,10,,,81,127
75042,note_off,0,0,0,,11,,,82,127
75043,note_on,1,0,0,,7,,,79,127
75115,note_off,72,0,0,,7,,,79,127
75116,note_on,1,0,0,,10,,,81,127
75185,note_off,69,0,0,,2,,,62,127
75185,note_off,0,0,0,,11,,,70,127
75188,note_off,3,0,0,,10,,,81,127
75189,note_on,1,0,0,,11,,,82,127
75408,note_on,219,0,0,,1,,,73,127
75408,note_on,0,0,0,,2,,,62,127
75623,note_off,215,0,0,,11,,,82,127
75626,note_off,3,0,0,,2,,,62,127
75626,note_off,0,0,0,,1,,,73,127
75627,note_on,1,0,0,,2,,,74,127
75627,note_on,0,0,0,,2,,,62,127
75846,note_on,219,0,0,,11,,,82,127
75846,note_on,0,0,0,,10,,,81,127
75918,note_off,72,0,0,,10,,,81,127
75918,note_off,0,0,0,,11,,,82,127
75919,note_on,1,0,0,,7,,,79,127
75991,note_off,72,0,0,,7,,,79,127
75992,note_on,1,0,0,,10,,,81,127
76061,note_off,69,0,0,,2,,,62,127
76061,note_off,0,0,0,,2,,,74,127
76064,note_off,3,0,0,,10,,,81,127
76065,note_on,1,0,0,,11,,,82,127
76065,note_on,0,0,0,,7,,,91,127
76284,note_on,219,0,0,,2,,,62,127
76284,note_on,0,0,0,,1,,,73,127
76502,note_off,218,0,0,,1,,,73,127
76502,note_off,0,0,0,,2,,,62,127
76503,note_on,1,0,0,,2,,,74,127
76503,note_on,0,0,0,,2,,,62,127
76721,note_off,218,0,0,,7,,,91,127
76721,note_off,0,0,0,,11,,,82,127
76722,note_on,1,0,0,,10,,,81,127
76722,note_on,0,0,0,,5,,,89,127
76831,note_off,109,0,0,,5,,,89,127
76831,note_off,0,0,0,,10,,,81,127
76832,note_on,1,0,0,,7,,,79,127
76832,note_on,0,0,0,,4,,,88,127
76941,note_off,109,0,0,,4,,,88,127
76941,note_off,0,0,0,,7,,,79,127
76942,note_on,1,0,0,,2,,,86,127
76942,note_on,0,0,0,,5,,,77,127
77160,note_off,218,0,0,,2,,,86,127
77160,note_off,0,0,0,,2,,,62,127
77160,note_off,0,0,0,,2,,,74,127
77161,note_on,1,0,0,,5,,,65,127
77161,note_on,0,0,0,,10,,,81,127
77376,note_off,215,0,0,,5,,,77,127
77379,note_off,3,0,0,,10,,,81,127
77379,note_off,0,0,0,,5,,,65,127
77380,note_on,1,0,0,,7,,,67,127
77380,note_on,0,0,0,,11,,,82,127
77452,note_off,72,0,0,,11,,,82,127
77453,note_on,1,0,0,,10,,,81,127
77525,note_off,72,0,0,,10,,,81,127
77526,note_on,1,0,0,,7,,,79,127
77598,note_off,72,0,0,,7,,,79,127
77598,note_off,0,0,0,,7,,,67,127
77599,note_on,1,0,0,,7,,,55,127
77599,note_on,0,0,0,,5,,,77,127
77671,note_off,72,0,0,,5,,,77,127
77672,note_on,1,0,0,,4,,,76,127
77744,note_off,72,0,0,,4,,,76,127
77745,note_on,1,0,0,,2,,,74,127
77817,note_off,72,0,0,,2,,,74,127
77817,note_off,0,0,0,,7,,,55,127
77818,note_on,1,0,0,,10,,,57,127
77818,note_on,0,0,0,,2,,,74,127
78036,note_off,218,0,0,,2,,,74,127
78036,note_off,0,0,0,,10,,,57,127
78037,note_on,1,0,0,,10,,,45,127
78037,note_on,0,0,0,,2,,,74,127
78091,note_off,54,0,0,,2,,,74,127
78092,note_on,1,0,0,,1,,,73,127
78146,note_off,54,0,0,,1,,,73,127
78147,note_on,1,0,0,,2,,,74,127
78201,note_off,54,0,0,,2,,,74,127
78202,note_on,1,0,0,,1,,,73,127
78256,note_off,54,0,0,,1,,,73,127
78256,note_off,0,0,0,,10,,,45,127
78257,note_on,1,0,0,,2,,,50,127
78257,note_on,0,0,0,,2,,,74,127
78366,note_off,109,0,0,,2,,,50,127
78367,note_on,1,0,0,,2,,,62,127
78476,note_off,109,0,0,,2,,,62,127
78477,note_on,1,0,0,,1,,,61,127
78586,note_off,109,0,0,,1,,,61,127
78587,note_on,1,0,0,,2,,,62,127
78696,note_off,109,0,0,,2,,,62,127
78697,note_on,1,0,0,,4,,,64,127
78806,note_off,109,0,0,,4,,,64,127
78807,note_on,1,0,0,,2,,,62,127
78916,note_off,109,0,0,,2,,,62,127
78917,note_on,1,0,0,,6,,,66,127
79026,note_off,109,0,0,,6,,,66,127
79027,note_on,1,0,0,,2,,,62,127
79136,note_off,109,0,0,,2,,,62,127
79136,note_off,0,0,0,,2,,,74,127
79137,note_on,1,0,0,,2,,,50,127
79137,note_on,0,0,0,,2,,,74,127
79137,note_on,0,0,0,,2,,,86,127
79246,note_off,109,0,0,,2,,,50,127
79247,note_on,1,0,0,,2,,,62,127
79356,note_off,109,0,0,,2,,,62,127
79357,note_on,1,0,0,,1,,,61,127
79466,note_off,109,0,0,,1,,,61,127
79467,note_on,1,0,0,,2,,,62,127
79576,note_off,109,0,0,,2,,,62,127
79577,note_on,1,0,0,,6,,,66,127
79686,note_off,109,0,0,,6,,,66,127
79687,note_on,1,0,0,,2,,,62,127
79796,note_off,109,0,0,,2,,,62,127
79797,note_on,1,0,0,,7,,,67,127
79906,note_off,109,0,0,,7,,,67,127
79907,note_on,1,0,0,,2,,,62,127
80016,note_off,109,0,0,,2,,,62,127
80016,note_off,0,0,0,,2,,,86,127
80016,note_off,0,0,0,,2,,,74,127
80017,note_on,1,0,0,,2,,,50,127
80017,note_on,0,0,0,,2,,,86,127
80017,note_on,0,0,0,,2,,,74,127
80126,note_off,109,0,0,,2,,,50,127
80127,note_on,1,0,0,,2,,,62,127
80236,note_off,109,0,0,,2,,,62,127
80237,note_on,1,0,0,,1,,,61,127
80346,note_off,109,0,0,,1,,,61,127
80347,note_on,1,0,0,,2,,,62,127
80456,note_off,109,0,0,,2,,,62,127
80457,note_on,1,0,0,,7,,,67,127
80566,note_off,109,0,0,,7,,,67,127
80567,note_on,1,0,0,,2,,,62,127
80676,note_off,109,0,0,,2,,,62,127
80677,note_on,1,0,0,,10,,,69,127
80786,note_off,109,0,0,,10,,,69,127
80787,note_on,1,0,0,,2,,,62,127
80896,note_off,109,0,0,,2,,,62,127
80896,note_off,0,0,0,,2,,,74,127
80896,note_off,0,0,0,,2,,,86,127
80897,note_on,1,0,0,,2,,,50,127
80897,note_on,0,0,0,,2,,,74,127
80897,note_on,0,0,0,,2,,,86,127
81006,note_off,109,0,0,,2,,,50,127
81007,note_on,1,0,0,,2,,,62,127
81116,note_off,109,0,0,,2,,,62,127
81117,note_on,1,0,0,,1,,,61,127
81226,note_off,109,0,0,,1,,,61,127
81227,note_on,1,0,0,,2,,,62,127
81336,note_off,109,0,0,,2,,,62,127
81337,note_on,1,0,0,,10,,,69,127
81446,note_off,109,0,0,,10,,,69,127
81447,note_on,1,0,0,,2,,,62,127
81556,note_off,109,0,0,,2,,,62,127
81557,note_on,1,0,0,,12,,,71,127
81666,note_off,109,0,0,,12,,,71,127
81667,note_on,1,0,0,,2,,,62,127
81776,note_off,109,0,0,,2,,,62,127
81776,note_off,0,0,0,,2,,,86,127
81776,note_off,0,0,0,,2,,,74,127
81777,note_on,1,0,0,,2,,,50,127
81777,note_on,0,0,0,,2,,,86,127
81777,note_on,0,0,0,,2,,,74,127
81886,note_off,109,0,0,,2,,,50,127
81887,note_on,1,0,0,,2,,,62,127
81996,note_off,109,0,0,,2,,,62,127
81997,note_on,1,0,0,,1,,,61,127
82106,note_off,109,0,0,,1,,,61,127
82107,note_on,1,0,0,,2,,,62,127
82216,note_off,109,0,0,,2,,,62,127
82217,note_on,1,0,0,,12,,,71,127
82326,note_off,109,0,0,,12,,,71,127
82327,note_on,1,0,0,,2,,,62,127
82436,note_off,109,0,0,,2,,,62,127
82437,note_on,1,0,0,,1,,,73,127
82546,note_off,109,0,0,,1,,,73,127
82547,note_on,1,0,0,,2,,,62,127
82656,note_off,109,0,0,,2,,,62,127
82656,note_off,0,0,0,,2,,,74,127
82656,note_off,0,0,0,,2,,,86,127
82657,note_on,1,0,0,,2,,,50,127
82657,note_on,0,0,0,,2,,,86,127
82657,note_on,0,0,0,,2,,,74,127
82766,note_off,109,0,0,,2,,,50,127
82767,note_on,1,0,0,,2,,,62,127
82876,note_off,109,0,0,,2,,,62,127
82877,note_on,1,0,0,,1,,,61,127
82986,note_off,109,0,0,,1,,,61,127
82987,note_on,1,0,0,,2,,,62,127
83096,note_off,109,0,0,,2,,,62,127
83097,note_on,1,0,0,,1,,,73,127
83206,note_off,109,0,0,,1,,,73,127
83207,note_on,1,0,0,,2,,,62,127
83316,note_off,109,0,0,,2,,,62,127
83316,note_off,0,0,0,,2,,,74,127
83317,note_on,1,0,0,,2,,,74,127
83426,note_off,109,0,0,,2,,,74,127
83427,note_on,1,0,0,,2,,,62,127
83536,note_off,109,0,0,,2,,,62,127
83536,note_off,0,0,0,,2,,,86,127
83537,note_on,1,0,0,,2,,,38,127
83647,note_on,110,0,0,,1,,,85,127
83756,note_off,109,0,0,,1,,,85,127
83757,note_on,1,0,0,,2,,,86,127
83866,note_off,109,0,0,,2,,,86,127
83867,note_on,1,0,0,,10,,,81,127
83976,note_off,109,0,0,,10,,,81,127
83977,note_on,1,0,0,,6,,,78,127
84086,note_off,109,0,0,,6,,,78,127
84087,note_on,1,0,0,,10,,,81,127
84196,note_off,109,0,0,,10,,,81,127
84196,note_off,0,0,0,,2,,,38,127
84197,note_on,1,0,0,,6,,,42,127
84197,note_on,0,0,0,,6,,,78,127
84306,note_off,109,0,0,,6,,,78,127
84307,note_on,1,0,0,,2,,,74,127
84416,note_off,109,0,0,,2,,,74,127
84416,note_off,0,0,0,,6,,,42,127
84417,note_on,1,0,0,,7,,,43,127
84417,note_on,0,0,0,,12,,,83,127
84526,note_off,109,0,0,,12,,,83,127
84527,note_on,1,0,0,,4,,,76,127
84636,note_off,109,0,0,,4,,,76,127
84636,note_off,0,0,0,,7,,,43,127
84637,note_on,1,0,0,,7,,,55,127
84637,note_on,0,0,0,,6,,,78,127
84746,note_off,109,0,0,,6,,,78,127
84747,note_on,1,0,0,,7,,,79,127
84856,note_off,109,0,0,,7,,,79,127
84856,note_off,0,0,0,,7,,,55,127
84857,note_on,1,0,0,,10,,,57,127
84857,note_on,0,0,0,,6,,,78,127
84966,note_off,109,0,0,,6,,,78,127
84967,note_on,1,0,0,,4,,,76,127
85076,note_off,109,0,0,,4,,,76,127
85076,note_off,0,0,0,,10,,,57,127
85077,note_on,1,0,0,,10,,,45,127
85077,note_on,0,0,0,,2,,,74,127
85186,note_off,109,0,0,,2,,,74,127
85187,note_on,1,0,0,,1,,,73,127
85296,note_off,109,0,0,,1,,,73,127
85296,note_off,0,0,0,,10,,,45,127
85297,note_on,1,0,0,,2,,,50,127
85297,note_on,0,0,0,,2,,,74,127
85406,note_off,109,0,0,,2,,,50,127
85407,note_on,1,0,0,,2,,,62,127
85516,note_off,109,0,0,,2,,,62,127
85517,note_on,1,0,0,,1,,,61,127
85626,note_off,109,0,0,,1,,,61,127
85627,note_on,1,0,0,,2,,,62,127
85736,note_off,109,0,0,,2,,,62,127
85737,note_on,1,0,0,,4,,,64,127
85846,note_off,109,0,0,,4,,,64,127
85847,note_on,1,0,0,,2,,,62,127
85956,note_off,109,0,0,,2,,,62,127
85957,note_on,1,0,0,,6,,,66,127
86066,note_off,109,0,0,,6,,,66,127
86067,note_on,1,0,0,,2,,,62,127
86176,note_off,109,0,0,,2,,,62,127
86176,note_off,0,0,0,,2,,,74,127
86177,note_on,1,0,0,,2,,,50,127
86177,note_on,0,0,0,,2,,,74,127
86177,note_on,0,0,0,,2,,,86,127
86286,note_off,109,0,0,,2,,,50,127
86287,note_on,1,0,0,,2,,,62,127
86396,note_off,109,0,0,,2,,,62,127
86397,note_on,1,0,0,,1,,,61,127
86506,note_off,109,0,0,,1,,,61,127
86507,note_on,1,0,0,,2,,,62,127
86616,note_off,109,0,0,,2,,,62,127
86617,note_on,1,0,0,,6,,,66,127
86726,note_off,109,0,0,,6,,,66,127
86727,note_on,1,0,0,,2,,,62,127
86836,note_off,109,0,0,,2,,,62,127
86837,note_on,1,0,0,,7,,,67,127
86946,note_off,109,0,0,,7,,,67,127
86947,note_on,1,0,0,,2,,,62,127
87056,note_off,109,0,0,,2,,,62,127
87056,note_off,0,0,0,,2,,,86,127
87056,note_off,0,0,0,,2,,,74,127
87057,note_on,1,0,0,,2,,,50,127
87057,note_on,0,0,0,,2,,,74,127
87057,note_on,0,0,0,,2,,,86,127
87166,note_off,109,0,0,,2,,,50,127
87167,note_on,1,0,0,,2,,,62,127
87276,note_off,109,0,0,,2,,,62,127
87277,note_on,1,0,0,,1,,,61,127
87386,note_off,109,0,0,,1,,,61,127
87387,note_on,1,0,0,,2,,,62,127
87496,note_off,109,0,0,,2,,,62,127
87497,note_on,1,0,0,,7,,,67,127
87606,note_off,109,0,0,,7,,,67,127
87607,note_on,1,0,0,,2,,,62,127
87716,note_off,109,0,0,,2,,,62,127
87717,note_on,1,0,0,,10,,,69,127
87826,note_off,109,0,0,,10,,,69,127
87827,note_on,1,0,0,,2,,,62,127
87936,note_off,109,0,0,,2,,,62,127
87936,note_off,0,0,0,,2,,,86,127
87936,note_off,0,0,0,,2,,,74,127
87937,note_on,1,0,0,,2,,,50,127
87937,note_on,0,0,0,,2,,,74,127
87937,note_on,0,0,0,,2,,,86,127
88046,note_off,109,0,0,,2,,,50,127
88047,note_on,1,0,0,,2,,,62,127
88156,note_off,109,0,0,,2,,,62,127
88157,note_on,1,0,0,,1,,,61,127
88266,note_off,109,0,0,,1,,,61,127
88267,note_on,1,0,0,,2,,,62,127
88376,note_off,109,0,0,,2,,,62,127
88377,note_on,1,0,0,,10,,,69,127
88486,note_off,109,0,0,,10,,,69,127
88487,note_on,1,0,0,,2,,,62,127
88596,note_off,109,0,0,,2,,,62,127
88597,note_on,1,0,0,,12,,,71,127
88706,note_off,109,0,0,,12,,,71,127
88707,note_on,1,0,0,,2,,,62,127
88816,note_off,109,0,0,,2,,,62,127
88816,note_off,0,0,0,,2,,,86,127
88816,note_off,0,0,0,,2,,,74,127
88817,note_on,1,0,0,,2,,,50,127
88817,note_on,0,0,0,,2,,,86,127
88817,note_on,0,0,0,,2,,,74,127
88926,note_off,109,0,0,,2,,,50,127
88927,note_on,1,0,0,,2,,,62,127
89036,note_off,109,0,0,,2,,,62,127
89037,note_on,1,0,0,,1,,,61,127
89146,note_off,109,0,0,,1,,,61,127
89147,note_on,1,0,0,,2,,,62,127
89256,note_off,109,0,0,,2,,,62,127
89257,note_on,1,0,0,,12,,,71,127
89366,note_off,109,0,0,,12,,,71,127
89367,note_on,1,0,0,,2,,,62,127
89476,note_off,109,0,0,,2,,,62,127
89477,note_on,1,0,0,,1,,,73,127
89586,note_off,109,0,0,,1,,,73,127
89587,note_on,1,0,0,,2,,,62,127
89696,note_off,109,0,0,,2,,,62,127
89696,note_off,0,0,0,,2,,,74,127
89696,note_off,0,0,0,,2,,,86,127
89697,note_on,1,0,0,,2,,,50,127
89697,note_on,0,0,0,,2,,,86,127
89697,note_on,0,0,0,,2,,,74,127
89806,note_off,109,0,0,,2,,,50,127
89807,note_on,1,0,0,,2,,,62,127
89916,note_off,109,0,0,,2,,,62,127
89917,note_on,1,0,0,,1,,,61,127
90026,note_off,109,0,0,,1,,,61,127
90027,note_on,1,0,0,,2,,,62,127
90136,note_off,109,0,0,,2,,,62,127
90137,note_on,1,0,0,,1,,,73,127
90246,note_off,109,0,0,,1,,,73,127
90247,note_on,1,0,0,,2,,,62,127
90356,note_off,109,0,0,,2,,,62,127
90356,note_off,0,0,0,,2,,,74,127
90357,note_on,1,0,0,,2,,,74,127
90466,note_off,109,0,0,,2,,,74,127
90467,note_on,1,0,0,,2,,,62,127
90576,note_off,109,0,0,,2,,,62,127
90576,note_off,0,0,0,,2,,,86,127
90577,note_on,1,0,0,,2,,,38,127
90687,note_on,110,0,0,,1,,,85,127
90796,note_off,109,0,0,,1,,,85,127
90797,note_on,1,0,0,,2,,,86,127
90906,note_off,109,0,0,,2,,,86,127
90907,note_on,1,0,0,,10,,,81,127
91016,note_off,109,0,0,,10,,,81,127
91017,note_on,1,0,0,,6,,,78,127
91126,note_off,109,0,0,,6,,,78,127
91127,note_on,1,0,0,,10,,,81,127
91236,note_off,109,0,0,,10,,,81,127
91236,note_off,0,0,0,,2,,,38,127
91237,note_on,1,0,0,,6,,,42,127
91237,note_on,0,0,0,,6,,,78,127
91346,note_off,109,0,0,,6,,,78,127
91347,note_on,1,0,0,,2,,,74,127
91456,note_off,109,0,0,,2,,,74,127
91456,note_off,0,0,0,,6,,,42,127
91457,note_on,1,0,0,,7,,,43,127
91457,note_on,0,0,0,,12,,,83,127
91566,note_off,109,0,0,,12,,,83,127
91567,note_on,1,0,0,,4,,,76,127
91676,note_off,109,0,0,,4,,,76,127
91676,note_off,0,0,0,,7,,,43,127
91677,note_on,1,0,0,,7,,,55,127
91677,note_on,0,0,0,,6,,,78,127
91786,note_off,109,0,0,,6,,,78,127
91787,note_on,1,0,0,,7,,,79,127
91896,note_off,109,0,0,,7,,,79,127
91896,note_off,0,0,0,,7,,,55,127
91897,note_on,1,0,0,,10,,,57,127
91897,note_on,0,0,0,,6,,,78,127
92006,note_off,109,0,0,,6,,,78,127
92007,note_on,1,0,0,,4,,,76,127
92116,note_off,109,0,0,,4,,,76,127
92116,note_off,0,0,0,,10,,,57,127
92117,note_on,1,0,0,,10,,,45,127
92117,note_on,0,0,0,,2,,,74,127
92226,note_off,109,0,0,,2,,,74,127
92227,note_on,1,0,0,,1,,,73,127
92336,note_off,109,0,0,,1,,,73,127
92336,note_off,0,0,0,,10,,,45,127
92337,note_on,1,0,0,,2,,,50,127
92337,note_on,0,0,0,,2,,,74,127
92446,note_off,109,0,0,,2,,,50,127
92447,note_on,1,0,0,,1,,,61,127
92556,note_off,109,0,0,,1,,,61,127
92557,note_on,1,0,0,,2,,,62,127
92666,note_off,109,0,0,,2,,,62,127
92667,note_on,1,0,0,,10,,,57,127
92776,note_off,109,0,0,,10,,,57,127
92777,note_on,1,0,0,,6,,,54,127
92886,note_off,109,0,0,,6,,,54,127
92887,note_on,1,0,0,,10,,,57,127
92996,note_off,109,0,0,,10,,,57,127
92997,note_on,1,0,0,,6,,,54,127
93106,note_off,109,0,0,,6,,,54,127
93107,note_on,1,0,0,,2,,,50,127
93216,note_off,109,0,0,,2,,,50,127
93216,note_off,0,0,0,,2,,,74,127
93217,note_on,1,0,0,,7,,,43,127
93217,note_on,0,0,0,,7,,,55,127
93327,note_on,110,0,0,,4,,,76,127
93436,note_off,109,0,0,,4,,,76,127
93437,note_on,1,0,0,,6,,,78,127
93546,note_off,109,0,0,,6,,,78,127
93547,note_on,1,0,0,,7,,,79,127
93656,note_off,109,0,0,,7,,,79,127
93656,note_off,0,0,0,,7,,,55,127
93656,note_off,0,0,0,,7,,,43,127
93657,note_on,1,0,0,,10,,,57,127
93657,note_on,0,0,0,,10,,,45,127
93657,note_on,0,0,0,,6,,,78,127
93766,note_off,109,0,0,,6,,,78,127
93767,note_on,1,0,0,,4,,,76,127
93876,note_off,109,0,0,,4,,,76,127
93877,note_on,1,0,0,,2,,,74,127
93986,note_off,109,0,0,,2,,,74,127
93987,note_on,1,0,0,,1,,,73,127
94096,note_off,109,0,0,,1,,,73,127
94096,note_off,0,0,0,,10,,,45,127
94096,note_off,0,0,0,,10,,,57,127
94097,note_on,1,0,0,,2,,,38,127
94097,note_on,0,0,0,,2,,,74,127
94206,note_off,109,0,0,,2,,,38,127
94207,note_on,1,0,0,,1,,,49,127
94316,note_off,109,0,0,,1,,,49,127
94317,note_on,1,0,0,,2,,,50,127
94426,note_off,109,0,0,,2,,,50,127
94427,note_on,1,0,0,,10,,,45,127
94536,note_off,109,0,0,,10,,,45,127
94537,note_on,1,0,0,,6,,,42,127
94646,note_off,109,0,0,,6,,,42,127
94647,note_on,1,0,0,,10,,,45,127
94756,note_off,109,0,0,,10,,,45,127
94757,note_on,1,0,0,,6,,,42,127
94866,note_off,109,0,0,,6,,,42,127
94867,note_on,1,0,0,,2,,,38,127
94976,note_off,109,0,0,,2,,,38,127
94976,note_off,0,0,0,,2,,,74,127
94977,note_on,1,0,0,,7,,,43,127
94977,note_on,0,0,0,,7,,,55,127
95087,note_on,110,0,0,,4,,,64,127
95196,note_off,109,0,0,,4,,,64,127
95197,note_on,1,0,0,,6,,,66,127
95306,note_off,109,0,0,,6,,,66,127
95307,note_on,1,0,0,,7,,,67,127
95416,note_off,109,0,0,,7,,,67,127
95416,note_off,0,0,0,,7,,,55,127
95416,note_off,0,0,0,,7,,,43,127
95417,note_on,1,0,0,,10,,,57,127
95417,note_on,0,0,0,,10,,,45,127
95417,note_on,0,0,0,,6,,,66,127
95526,note_off,109,0,0,,6,,,66,127
95527,note_on,1,0,0,,4,,,64,127
95636,note_off,109,0,0,,4,,,64,127
95637,note_on,1,0,0,,2,,,62,127
95746,note_off,109,0,0,,2,,,62,127
95747,note_on,1,0,0,,1,,,61,127
95856,note_off,109,0,0,,1,,,61,127
95856,note_off,0,0,0,,10,,,45,127
95856,note_off,0,0,0,,10,,,57,127
95857,note_on,1,0,0,,2,,,50,127
95857,note_on,0,0,0,,2,,,62,127
95966,note_off,109,0,0,,2,,,62,127
95967,note_on,1,0,0,,12,,,71,127
96076,note_off,109,0,0,,12,,,71,127
96076,note_off,0,0,0,,2,,,50,127
96077,note_on,1,0,0,,7,,,55,127
96077,note_on,0,0,0,,1,,,73,127
96186,note_off,109,0,0,,1,,,73,127
96187,note_on,1,0,0,,2,,,74,127
96296,note_off,109,0,0,,2,,,74,127
96296,note_off,0,0,0,,7,,,55,127
96297,note_on,1,0,0,,10,,,57,127
96297,note_on,0,0,0,,1,,,73,127
96406,note_off,109,0,0,,1,,,73,127
96407,note_on,1,0,0,,12,,,71,127
96516,note_off,109,0,0,,12,,,71,127
96516,note_off,0,0,0,,10,,,57,127
96517,note_on,1,0,0,,10,,,45,127
96517,note_on,0,0,0,,10,,,69,127
96626,note_off,109,0,0,,10,,,69,127
96627,note_on,1,0,0,,7,,,67,127
96736,note_off,109,0,0,,7,,,67,127
96736,note_off,0,0,0,,10,,,45,127
96737,note_on,1,0,0,,6,,,66,127
96737,note_on,0,0,0,,2,,,50,127
96854,note_off,117,0,0,,6,,,66,127
96856,note_on,2,0,0,,7,,,67,127
96973,note_off,117,0,0,,7,,,67,127
96973,note_off,0,0,0,,2,,,50,127
96974,note_on,1,0,0,,10,,,69,127
96974,note_on,0,0,0,,7,,,43,127
97091,note_off,117,0,0,,10,,,69,127
97093,note_on,2,0,0,,12,,,71,127
97210,note_off,117,0,0,,12,,,71,127
97210,note_off,0,0,0,,7,,,43,127
97212,note_on,2,0,0,,10,,,69,127
97212,note_on,0,0,0,,10,,,45,127
97329,note_off,117,0,0,,10,,,69,127
97330,note_on,1,0,0,,7,,,67,127
97447,note_off,117,0,0,,7,,,67,127
97448,note_off,1,0,0,,10,,,45,127
97449,note_on,1,0,0,,6,,,66,127
97449,note_on,0,0,0,,10,,,33,127
97566,note_off,117,0,0,,6,,,66,127
97568,note_on,2,0,0,,4,,,64,127
97685,note_off,117,0,0,,10,,,33,127
97692,note_off,7,0,0,,4,,,64,127
97701,note_on,9,0,0,,2,,,62,127
97701,note_on,0,0,0,,2,,,38,127
99834,note_off,2133,0,0,,2,,,38,127
99834,note_off,0,0,0,,2,,,62,127
105984,end_of_track,6150,1,0,,,,,,
