tick,type,time,meta,track,program,channel,pitch,tempo,note,velocity
0,copyright,0,1,0,,,,,,
0,program_change,0,0,0,6,0,,,,
0,pitchwheel,0,0,0,,0,0,,,
0,program_change,0,0,0,6,1,,,,
0,pitchwheel,0,0,0,,1,-590,,,
0,program_change,0,0,0,6,2,,,,
0,pitchwheel,0,0,0,,2,-272,,,
0,program_change,0,0,0,6,3,,,,
0,pitchwheel,0,0,0,,3,-353,,,
0,program_change,0,0,0,6,4,,,,
0,pitchwheel,0,0,0,,4,-560,,,
0,program_change,0,0,0,6,5,,,,
0,pitchwheel,0,0,0,,5,-80,,,
0,program_change,0,0,0,6,6,,,,
0,pitchwheel,0,0,0,,6,-625,,,
0,program_change,0,0,0,6,7,,,,
0,pitchwheel,0,0,0,,7,-130,,,
0,program_change,0,0,0,6,8,,,,
0,pitchwheel,0,0,0,,8,-512,,,
0,program_change,0,0,0,6,10,,,,
0,pitchwheel,0,0,0,,10,-464,,,
0,program_change,0,0,0,6,11,,,,
0,pitchwheel,0,0,0,,11,-208,,,
0,program_change,0,0,0,6,12,,,,
0,pitchwheel,0,0,0,,12,-553,,,
0,set_tempo,0,1,0,,,,500000,,
195,note_on,195,0,0,,0,,,72,127
195,note_on,0,0,0,,5,,,65,127
584,note_off,389,0,0,,5,,,65,127
584,note_off,0,0,0,,0,,,72,127
585,note_on,1,0,0,,5,,,77,127
585,note_on,0,0,0,,8,,,68,127
585,note_on,0,0,0,,5,,,65,127
779,note_off,194,0,0,,5,,,77,127
780,note_on,1,0,0,,3,,,75,127
974,note_off,194,0,0,,3,,,75,127
974,note_off,0,0,0,,5,,,65,127
974,note_off,0,0,0,,8,,,68,127
975,note_on,1,0,0,,1,,,73,127
975,note_on,0,0,0,,5,,,65,127
975,note_on,0,0,0,,11,,,70,127
1364,note_off,389,0,0,,11,,,70,127
1364,note_off,0,0,0,,1,,,73,127
1365,note_on,1,0,0,,0,,,72,127
1365,note_on,0,0,0,,8,,,68,127
1754,note_off,389,0,0,,8,,,68,127
1754,note_off,0,0,0,,0,,,72,127
1754,note_off,0,0,0,,5,,,65,127
1755,note_on,1,0,0,,4,,,76,127
1755,note_on,0,0,0,,11,,,70,127
1755,note_on,0,0,0,,7,,,67,127
2144,note_off,389,0,0,,7,,,67,127
2144,note_off,0,0,0,,11,,,70,127
2144,note_off,0,0,0,,4,,,76,127
2145,note_on,1,0,0,,7,,,79,127
2145,note_on,0,0,0,,8,,,68,127
2274,note_off,129,0,0,,7,,,79,127
2275,note_on,1,0,0,,5,,,77,127
2339,note_off,64,0,0,,8,,,68,127
2340,note_on,1,0,0,,7,,,67,127
2404,note_off,64,0,0,,5,,,77,127
2405,note_on,1,0,0,,4,,,76,127
2534,note_off,129,0,0,,4,,,76,127
2534,note_off,0,0,0,,7,,,67,127
2535,note_on,1,0,0,,4,,,76,127
2535,note_on,0,0,0,,5,,,65,127
2924,note_off,389,0,0,,4,,,76,127
2925,note_on,1,0,0,,5,,,77,127
2925,note_on,0,0,0,,5,,,53,127
3291,note_off,366,0,0,,5,,,77,127
3311,note_off,20,0,0,,5,,,53,127
3314,note_off,3,0,0,,5,,,65,127
3315,note_on,1,0,0,,0,,,72,127
3704,note_off,389,0,0,,0,,,72,127
3705,note_on,1,0,0,,5,,,77,127
3705,note_on,0,0,0,,5,,,65,127
3705,note_on,0,0,0,,8,,,68,127
3899,note_off,194,0,0,,5,,,77,127
3900,note_on,1,0,0,,3,,,75,127
4094,note_off,194,0,0,,3,,,75,127
4094,note_off,0,0,0,,8,,,68,127
4094,note_off,0,0,0,,5,,,65,127
4095,note_on,1,0,0,,1,,,73,127
4095,note_on,0,0,0,,5,,,65,127
4095,note_on,0,0,0,,11,,,70,127
4484,note_off,389,0,0,,11,,,70,127
4484,note_off,0,0,0,,5,,,65,127
4484,note_off,0,0,0,,1,,,73,127
4485,note_on,1,0,0,,0,,,72,127
4485,note_on,0,0,0,,5,,,65,127
4485,note_on,0,0,0,,8,,,68,127
4874,note_off,389,0,0,,8,,,68,127
4874,note_off,0,0,0,,5,,,65,127
4874,note_off,0,0,0,,0,,,72,127
4875,note_on,1,0,0,,4,,,76,127
4875,note_on,0,0,0,,11,,,70,127
4875,note_on,0,0,0,,7,,,67,127
5264,note_off,389,0,0,,7,,,67,127
5264,note_off,0,0,0,,11,,,70,127
5264,note_off,0,0,0,,4,,,76,127
5265,note_on,1,0,0,,7,,,79,127
5265,note_on,0,0,0,,8,,,68,127
5394,note_off,129,0,0,,7,,,79,127
5395,note_on,1,0,0,,5,,,77,127
5459,note_off,64,0,0,,8,,,68,127
5460,note_on,1,0,0,,7,,,67,127
5524,note_off,64,0,0,,5,,,77,127
5525,note_on,1,0,0,,4,,,76,127
5654,note_off,129,0,0,,4,,,76,127
5654,note_off,0,0,0,,7,,,67,127
5655,note_on,1,0,0,,4,,,76,127
5655,note_on,0,0,0,,5,,,65,127
5849,note_off,194,0,0,,4,,,76,127
5850,note_on,1,0,0,,5,,,77,127
6044,note_off,194,0,0,,5,,,77,127
6044,note_off,0,0,0,,5,,,65,127
6045,note_on,1,0,0,,11,,,82,127
6045,note_on,0,0,0,,5,,,53,127
6239,note_off,194,0,0,,11,,,82,127
6240,note_on,1,0,0,,8,,,80,127
6434,note_off,194,0,0,,5,,,53,127
6435,note_on,1,0,0,,1,,,73,127
6629,note_off,194,0,0,,8,,,80,127
6630,note_on,1,0,0,,7,,,79,127
6824,note_off,194,0,0,,7,,,79,127
6825,note_on,1,0,0,,7,,,79,127
7019,note_off,194,0,0,,7,,,79,127
7020,note_on,1,0,0,,5,,,77,127
7214,note_off,194,0,0,,5,,,77,127
7214,note_off,0,0,0,,1,,,73,127
7215,note_on,1,0,0,,5,,,77,127
7215,note_on,0,0,0,,0,,,72,127
7215,note_on,0,0,0,,0,,,60,127
7409,note_off,194,0,0,,5,,,77,127
7410,note_on,1,0,0,,4,,,76,127
7604,note_off,194,0,0,,4,,,76,127
7604,note_off,0,0,0,,0,,,60,127
7604,note_off,0,0,0,,0,,,72,127
7605,note_on,1,0,0,,7,,,79,127
7605,note_on,0,0,0,,1,,,61,127
7702,note_off,97,0,0,,7,,,79,127
7703,note_on,1,0,0,,5,,,77,127
7800,note_off,97,0,0,,5,,,77,127
7801,note_on,1,0,0,,4,,,76,127
7898,note_off,97,0,0,,4,,,76,127
7899,note_on,1,0,0,,5,,,77,127
7996,note_off,97,0,0,,5,,,77,127
7996,note_off,0,0,0,,1,,,61,127
7997,note_on,1,0,0,,7,,,79,127
7997,note_on,0,0,0,,0,,,60,127
8191,note_off,194,0,0,,7,,,79,127
8192,note_on,1,0,0,,0,,,72,127
8386,note_off,194,0,0,,0,,,60,127
8387,note_on,1,0,0,,8,,,56,127
8387,note_on,0,0,0,,0,,,60,127
8387,note_on,0,0,0,,5,,,65,127
8568,note_off,181,0,0,,0,,,72,127
8582,note_on,14,0,0,,1,,,73,127
8776,note_off,194,0,0,,5,,,65,127
8776,note_off,0,0,0,,0,,,60,127
8776,note_off,0,0,0,,8,,,56,127
8777,note_on,1,0,0,,4,,,64,127
8777,note_on,0,0,0,,11,,,58,127
8777,note_on,0,0,0,,7,,,55,127
8777,note_on,0,0,0,,0,,,60,127
8971,note_off,194,0,0,,1,,,73,127
8972,note_on,1,0,0,,0,,,72,127
9166,note_off,194,0,0,,0,,,72,127
9166,note_off,0,0,0,,0,,,60,127
9166,note_off,0,0,0,,7,,,55,127
9166,note_off,0,0,0,,11,,,58,127
9166,note_off,0,0,0,,4,,,64,127
9167,note_on,1,0,0,,11,,,70,127
9167,note_on,0,0,0,,5,,,65,127
9167,note_on,0,0,0,,8,,,56,127
9167,note_on,0,0,0,,0,,,60,127
9167,note_on,0,0,0,,5,,,53,127
9361,note_off,194,0,0,,11,,,70,127
9362,note_on,1,0,0,,8,,,68,127
9556,note_off,194,0,0,,8,,,68,127
9556,note_off,0,0,0,,5,,,53,127
9556,note_off,0,0,0,,0,,,60,127
9556,note_off,0,0,0,,8,,,56,127
9556,note_off,0,0,0,,5,,,65,127
9557,note_on,1,0,0,,8,,,68,127
9557,note_on,0,0,0,,0,,,60,127
9557,note_on,0,0,0,,0,,,48,127
9751,note_off,194,0,0,,8,,,68,127
9752,note_on,1,0,0,,7,,,67,127
9946,note_off,194,0,0,,7,,,67,127
9946,note_off,0,0,0,,0,,,48,127
9946,note_off,0,0,0,,0,,,60,127
9947,note_on,1,0,0,,0,,,72,127
9947,note_on,0,0,0,,5,,,53,127
9947,note_on,0,0,0,,8,,,44,127
10141,note_off,194,0,0,,0,,,72,127
10142,note_on,1,0,0,,5,,,65,127
10336,note_off,194,0,0,,5,,,65,127
10336,note_off,0,0,0,,8,,,44,127
10336,note_off,0,0,0,,5,,,53,127
10337,note_on,1,0,0,,5,,,65,127
10337,note_on,0,0,0,,4,,,52,127
10337,note_on,0,0,0,,7,,,43,127
10531,note_off,194,0,0,,5,,,65,127
10532,note_on,1,0,0,,4,,,64,127
10726,note_off,194,0,0,,4,,,64,127
10726,note_off,0,0,0,,7,,,43,127
10726,note_off,0,0,0,,4,,,52,127
10727,note_on,1,0,0,,7,,,67,127
10727,note_on,0,0,0,,5,,,53,127
10727,note_on,0,0,0,,5,,,41,127
10824,note_off,97,0,0,,7,,,67,127
10825,note_on,1,0,0,,5,,,65,127
10922,note_off,97,0,0,,5,,,65,127
10923,note_on,1,0,0,,4,,,64,127
11020,note_off,97,0,0,,4,,,64,127
11021,note_on,1,0,0,,5,,,65,127
11118,note_off,97,0,0,,5,,,65,127
11118,note_off,0,0,0,,5,,,41,127
11118,note_off,0,0,0,,5,,,53,127
11119,note_on,1,0,0,,5,,,65,127
11119,note_on,0,0,0,,0,,,60,127
11313,note_off,194,0,0,,0,,,60,127
11313,note_off,0,0,0,,5,,,65,127
11314,note_on,1,0,0,,7,,,67,127
11314,note_on,0,0,0,,7,,,55,127
11508,note_off,194,0,0,,7,,,55,127
11509,note_on,1,0,0,,4,,,52,127
11703,note_off,194,0,0,,4,,,52,127
11704,note_on,1,0,0,,0,,,48,127
11899,note_on,195,0,0,,0,,,36,127
11951,note_off,52,0,0,,0,,,48,127
12093,note_off,142,0,0,,7,,,67,127
13070,note_off,977,0,0,,0,,,36,127
13461,note_on,391,0,0,,0,,,72,127
13590,note_off,129,0,0,,0,,,72,127
13591,note_on,1,0,0,,3,,,75,127
13720,note_off,129,0,0,,3,,,75,127
13721,note_on,1,0,0,,1,,,73,127
13850,note_off,129,0,0,,1,,,73,127
13851,note_on,1,0,0,,0,,,60,127
13851,note_on,0,0,0,,3,,,63,127
13851,note_on,0,0,0,,0,,,72,127
14240,note_off,389,0,0,,3,,,63,127
14240,note_off,0,0,0,,0,,,60,127
14241,note_on,1,0,0,,0,,,60,127
14241,note_on,0,0,0,,3,,,63,127
14603,note_off,362,0,0,,0,,,72,127
14630,note_off,27,0,0,,3,,,63,127
14630,note_off,0,0,0,,0,,,60,127
14631,note_on,1,0,0,,0,,,60,127
14631,note_on,0,0,0,,3,,,63,127
14631,note_on,0,0,0,,8,,,80,127
15017,note_off,386,0,0,,3,,,63,127
15017,note_off,0,0,0,,0,,,60,127
15020,note_off,3,0,0,,8,,,80,127
15021,note_on,1,0,0,,10,,,69,127
15412,note_on,391,0,0,,5,,,65,127
15412,note_on,0,0,0,,1,,,61,127
15801,note_off,389,0,0,,1,,,61,127
15801,note_off,0,0,0,,5,,,65,127
15801,note_off,0,0,0,,10,,,69,127
15802,note_on,1,0,0,,1,,,61,127
15802,note_on,0,0,0,,5,,,65,127
15802,note_on,0,0,0,,11,,,70,127
16191,note_off,389,0,0,,5,,,65,127
16191,note_off,0,0,0,,1,,,61,127
16192,note_on,1,0,0,,1,,,61,127
16192,note_on,0,0,0,,5,,,65,127
16483,note_off,291,0,0,,11,,,70,127
16579,note_off,96,0,0,,5,,,65,127
16579,note_off,0,0,0,,1,,,61,127
16583,note_on,4,0,0,,1,,,73,127
16712,note_off,129,0,0,,1,,,73,127
16713,note_on,1,0,0,,5,,,77,127
16842,note_off,129,0,0,,5,,,77,127
16843,note_on,1,0,0,,3,,,75,127
16972,note_off,129,0,0,,3,,,75,127
16973,note_on,1,0,0,,3,,,63,127
16973,note_on,0,0,0,,7,,,67,127
16973,note_on,0,0,0,,1,,,73,127
17362,note_off,389,0,0,,7,,,67,127
17362,note_off,0,0,0,,3,,,63,127
17363,note_on,1,0,0,,3,,,63,127
17363,note_on,0,0,0,,7,,,67,127
17725,note_off,362,0,0,,1,,,73,127
17752,note_off,27,0,0,,7,,,67,127
17752,note_off,0,0,0,,3,,,63,127
17753,note_on,1,0,0,,3,,,63,127
17753,note_on,0,0,0,,7,,,67,127
17753,note_on,0,0,0,,11,,,82,127
18139,note_off,386,0,0,,7,,,67,127
18139,note_off,0,0,0,,3,,,63,127
18142,note_off,3,0,0,,11,,,82,127
18143,note_on,1,0,0,,12,,,71,127
18534,note_on,391,0,0,,8,,,56,127
18534,note_on,0,0,0,,0,,,60,127
18923,note_off,389,0,0,,0,,,60,127
18923,note_off,0,0,0,,12,,,71,127
18924,note_on,1,0,0,,8,,,44,127
18924,note_on,0,0,0,,0,,,72,127
19313,note_off,389,0,0,,8,,,44,127
19313,note_off,0,0,0,,8,,,56,127
19314,note_on,1,0,0,,8,,,56,127
19314,note_on,0,0,0,,0,,,60,127
19605,note_off,291,0,0,,0,,,72,127
19701,note_off,96,0,0,,0,,,60,127
19701,note_off,0,0,0,,8,,,56,127
19705,note_on,4,0,0,,0,,,84,127
19899,note_off,194,0,0,,0,,,84,127
19900,note_on,1,0,0,,8,,,80,127
20095,note_on,195,0,0,,8,,,68,127
20095,note_on,0,0,0,,0,,,72,127
20289,note_off,194,0,0,,8,,,80,127
20290,note_on,1,0,0,,5,,,77,127
20484,note_off,194,0,0,,0,,,72,127
20484,note_off,0,0,0,,8,,,68,127
20485,note_on,1,0,0,,8,,,68,127
20485,note_on,0,0,0,,11,,,70,127
20679,note_off,194,0,0,,5,,,77,127
20680,note_on,1,0,0,,3,,,75,127
20874,note_off,194,0,0,,3,,,75,127
20874,note_off,0,0,0,,11,,,70,127
20874,note_off,0,0,0,,8,,,68,127
20875,note_on,1,0,0,,8,,,68,127
20875,note_on,0,0,0,,11,,,70,127
20875,note_on,0,0,0,,3,,,75,127
21069,note_off,194,0,0,,3,,,75,127
21070,note_on,1,0,0,,2,,,74,127
21261,note_off,191,0,0,,11,,,70,127
21261,note_off,0,0,0,,8,,,68,127
21264,note_off,3,0,0,,2,,,74,127
21265,note_on,1,0,0,,2,,,74,127
21459,note_off,194,0,0,,2,,,74,127
21460,note_on,1,0,0,,3,,,75,127
21655,note_on,195,0,0,,11,,,70,127
21655,note_on,0,0,0,,7,,,67,127
21785,note_off,130,0,0,,3,,,75,127
21850,note_on,65,0,0,,2,,,74,127
22044,note_off,194,0,0,,2,,,74,127
22044,note_off,0,0,0,,7,,,67,127
22044,note_off,0,0,0,,11,,,70,127
22045,note_on,1,0,0,,7,,,67,127
22045,note_on,0,0,0,,11,,,70,127
22045,note_on,0,0,0,,2,,,74,127
22239,note_off,194,0,0,,2,,,74,127
22240,note_on,1,0,0,,3,,,75,127
22434,note_off,194,0,0,,3,,,75,127
22434,note_off,0,0,0,,11,,,70,127
22434,note_off,0,0,0,,7,,,67,127
22435,note_on,1,0,0,,11,,,70,127
22435,note_on,0,0,0,,7,,,67,127
22435,note_on,0,0,0,,3,,,75,127
22564,note_off,129,0,0,,3,,,75,127
22565,note_on,1,0,0,,5,,,77,127
22694,note_off,129,0,0,,5,,,77,127
22695,note_on,1,0,0,,7,,,79,127
22821,note_off,126,0,0,,7,,,67,127
22821,note_off,0,0,0,,11,,,70,127
22824,note_off,3,0,0,,7,,,79,127
22825,note_on,1,0,0,,8,,,80,127
23019,note_off,194,0,0,,8,,,80,127
23020,note_on,1,0,0,,5,,,77,127
23215,note_on,195,0,0,,5,,,65,127
23215,note_on,0,0,0,,8,,,68,127
23345,note_off,130,0,0,,5,,,77,127
23410,note_on,65,0,0,,2,,,74,127
23604,note_off,194,0,0,,8,,,68,127
23604,note_off,0,0,0,,5,,,65,127
23605,note_on,1,0,0,,5,,,65,127
23605,note_on,0,0,0,,7,,,67,127
23799,note_off,194,0,0,,2,,,74,127
23800,note_on,1,0,0,,0,,,72,127
23994,note_off,194,0,0,,0,,,72,127
23994,note_off,0,0,0,,7,,,67,127
23994,note_off,0,0,0,,5,,,65,127
23995,note_on,1,0,0,,7,,,67,127
23995,note_on,0,0,0,,5,,,65,127
23995,note_on,0,0,0,,0,,,72,127
24189,note_off,194,0,0,,0,,,72,127
24190,note_on,1,0,0,,12,,,71,127
24381,note_off,191,0,0,,5,,,65,127
24381,note_off,0,0,0,,7,,,67,127
24384,note_off,3,0,0,,12,,,71,127
24385,note_on,1,0,0,,12,,,71,127
24579,note_off,194,0,0,,12,,,71,127
24580,note_on,1,0,0,,0,,,72,127
24775,note_on,195,0,0,,7,,,67,127
24775,note_on,0,0,0,,3,,,63,127
24926,note_off,151,0,0,,0,,,72,127
24971,note_on,45,0,0,,2,,,74,127
25165,note_off,194,0,0,,3,,,63,127
25165,note_off,0,0,0,,7,,,67,127
25166,note_on,1,0,0,,3,,,63,127
25166,note_on,0,0,0,,7,,,67,127
25360,note_off,194,0,0,,2,,,74,127
25361,note_on,1,0,0,,3,,,75,127
25555,note_off,194,0,0,,3,,,75,127
25555,note_off,0,0,0,,7,,,67,127
25555,note_off,0,0,0,,3,,,63,127
25556,note_on,1,0,0,,7,,,67,127
25556,note_on,0,0,0,,3,,,63,127
25556,note_on,0,0,0,,5,,,77,127
25750,note_off,194,0,0,,5,,,77,127
25751,note_on,1,0,0,,7,,,79,127
25942,note_off,191,0,0,,3,,,63,127
25942,note_off,0,0,0,,7,,,67,127
25945,note_off,3,0,0,,7,,,79,127
25946,note_on,1,0,0,,8,,,56,127
25946,note_on,0,0,0,,7,,,67,127
25946,note_on,0,0,0,,7,,,79,127
26140,note_off,194,0,0,,7,,,79,127
26141,note_on,1,0,0,,5,,,77,127
26335,note_off,194,0,0,,5,,,77,127
26335,note_off,0,0,0,,7,,,67,127
26335,note_off,0,0,0,,8,,,56,127
26336,note_on,1,0,0,,8,,,56,127
26336,note_on,0,0,0,,5,,,65,127
26336,note_on,0,0,0,,5,,,77,127
26530,note_off,194,0,0,,5,,,77,127
26531,note_on,1,0,0,,3,,,75,127
26725,note_off,194,0,0,,3,,,75,127
26725,note_off,0,0,0,,5,,,65,127
26725,note_off,0,0,0,,8,,,56,127
26726,note_on,1,0,0,,8,,,56,127
26726,note_on,0,0,0,,5,,,65,127
26726,note_on,0,0,0,,3,,,75,127
26920,note_off,194,0,0,,3,,,75,127
26921,note_on,1,0,0,,2,,,74,127
27115,note_off,194,0,0,,2,,,74,127
27115,note_off,0,0,0,,5,,,65,127
27115,note_off,0,0,0,,8,,,56,127
27116,note_on,1,0,0,,5,,,65,127
27116,note_on,0,0,0,,8,,,56,127
27116,note_on,0,0,0,,2,,,74,127
27310,note_off,194,0,0,,2,,,74,127
27311,note_on,1,0,0,,0,,,72,127
27505,note_off,194,0,0,,0,,,72,127
27505,note_off,0,0,0,,8,,,56,127
27505,note_off,0,0,0,,5,,,65,127
27506,note_on,1,0,0,,7,,,55,127
27506,note_on,0,0,0,,5,,,65,127
27506,note_on,0,0,0,,12,,,71,127
27700,note_off,194,0,0,,12,,,71,127
27701,note_on,1,0,0,,0,,,72,127
27895,note_off,194,0,0,,5,,,65,127
27895,note_off,0,0,0,,7,,,55,127
27896,note_on,1,0,0,,7,,,55,127
27896,note_on,0,0,0,,3,,,63,127
27896,note_on,0,0,0,,7,,,67,127
28090,note_off,194,0,0,,0,,,72,127
28091,note_on,1,0,0,,2,,,74,127
28285,note_off,194,0,0,,7,,,67,127
28285,note_off,0,0,0,,3,,,63,127
28285,note_off,0,0,0,,7,,,55,127
28286,note_on,1,0,0,,7,,,55,127
28286,note_on,0,0,0,,5,,,65,127
28286,note_on,0,0,0,,2,,,62,127
28480,note_off,194,0,0,,2,,,74,127
28481,note_on,1,0,0,,3,,,75,127
28675,note_off,194,0,0,,2,,,62,127
28675,note_off,0,0,0,,5,,,65,127
28675,note_off,0,0,0,,7,,,55,127
28676,note_on,1,0,0,,7,,,55,127
28676,note_on,0,0,0,,0,,,60,127
28676,note_on,0,0,0,,3,,,63,127
28870,note_off,194,0,0,,3,,,75,127
28871,note_on,1,0,0,,5,,,77,127
29065,note_off,194,0,0,,3,,,63,127
29065,note_off,0,0,0,,0,,,60,127
29065,note_off,0,0,0,,7,,,55,127
29066,note_on,1,0,0,,7,,,55,127
29066,note_on,0,0,0,,2,,,62,127
29217,note_off,151,0,0,,5,,,77,127
29262,note_on,45,0,0,,6,,,78,127
29456,note_off,194,0,0,,6,,,78,127
29456,note_off,0,0,0,,2,,,62,127
29456,note_off,0,0,0,,7,,,55,127
29457,note_on,1,0,0,,7,,,55,127
29457,note_on,0,0,0,,2,,,62,127
29457,note_on,0,0,0,,7,,,79,127
29651,note_off,194,0,0,,7,,,79,127
29652,note_on,1,0,0,,2,,,74,127
29846,note_off,194,0,0,,2,,,74,127
29846,note_off,0,0,0,,2,,,62,127
29846,note_off,0,0,0,,7,,,55,127
29847,note_on,1,0,0,,7,,,55,127
29847,note_on,0,0,0,,0,,,60,127
29847,note_on,0,0,0,,2,,,62,127
29847,note_on,0,0,0,,3,,,75,127
30041,note_off,194,0,0,,3,,,75,127
30042,note_on,1,0,0,,6,,,66,127
30236,note_off,194,0,0,,2,,,62,127
30236,note_off,0,0,0,,0,,,60,127
30236,note_off,0,0,0,,7,,,55,127
30237,note_on,1,0,0,,0,,,60,127
30237,note_on,0,0,0,,7,,,55,127
30237,note_on,0,0,0,,2,,,62,127
30408,note_off,171,0,0,,6,,,66,127
30417,note_on,9,0,0,,10,,,69,127
30487,note_on,70,0,0,,7,,,67,127
30489,note_off,2,0,0,,10,,,69,127
30557,note_on,68,0,0,,6,,,66,127
30560,note_off,3,0,0,,7,,,67,127
30626,note_off,66,0,0,,6,,,66,127
30626,note_off,0,0,0,,2,,,62,127
30626,note_off,0,0,0,,7,,,55,127
30626,note_off,0,0,0,,0,,,60,127
30627,note_on,1,0,0,,7,,,55,127
30627,note_on,0,0,0,,2,,,62,127
30627,note_on,0,0,0,,7,,,67,127
30822,note_on,195,0,0,,12,,,71,127
30920,note_off,98,0,0,,7,,,67,127
31017,note_off,97,0,0,,12,,,71,127
31018,note_on,1,0,0,,2,,,74,127
31212,note_off,194,0,0,,2,,,74,127
31213,note_on,1,0,0,,5,,,77,127
31407,note_off,194,0,0,,5,,,77,127
31407,note_off,0,0,0,,2,,,62,127
31407,note_off,0,0,0,,7,,,55,127
31408,note_on,1,0,0,,8,,,68,127
31603,note_on,195,0,0,,12,,,71,127
31701,note_off,98,0,0,,8,,,68,127
31798,note_off,97,0,0,,12,,,71,127
31799,note_on,1,0,0,,2,,,74,127
31993,note_off,194,0,0,,2,,,74,127
31994,note_on,1,0,0,,5,,,77,127
32188,note_off,194,0,0,,5,,,77,127
32189,note_on,1,0,0,,11,,,82,127
32384,note_on,195,0,0,,5,,,77,127
32578,note_off,194,0,0,,5,,,77,127
32578,note_off,0,0,0,,11,,,82,127
32579,note_on,1,0,0,,2,,,74,127
32579,note_on,0,0,0,,8,,,80,127
32773,note_off,194,0,0,,2,,,74,127
32774,note_on,1,0,0,,12,,,71,127
32968,note_off,194,0,0,,12,,,71,127
32969,note_on,1,0,0,,8,,,68,127
33163,note_off,194,0,0,,8,,,68,127
33164,note_on,1,0,0,,5,,,65,127
33260,note_off,96,0,0,,8,,,80,127
33359,note_off,99,0,0,,5,,,65,127
33360,note_on,1,0,0,,2,,,62,127
33360,note_on,0,0,0,,0,,,84,127
33554,note_off,194,0,0,,0,,,84,127
33554,note_off,0,0,0,,2,,,62,127
33555,note_on,1,0,0,,12,,,59,127
33555,note_on,0,0,0,,12,,,83,127
33749,note_off,194,0,0,,12,,,59,127
33750,note_on,1,0,0,,8,,,56,127
33944,note_off,194,0,0,,8,,,56,127
33945,note_on,1,0,0,,5,,,53,127
34093,note_off,148,0,0,,12,,,83,127
34139,note_off,46,0,0,,5,,,53,127
34140,note_on,1,0,0,,2,,,50,127
34140,note_on,0,0,0,,2,,,86,127
34334,note_off,194,0,0,,2,,,50,127
34335,note_on,1,0,0,,12,,,47,127
34529,note_off,194,0,0,,12,,,47,127
34530,note_on,1,0,0,,7,,,43,127
34919,note_off,389,0,0,,7,,,43,127
34919,note_off,0,0,0,,2,,,86,127
34920,note_on,1,0,0,,12,,,59,127
34920,note_on,0,0,0,,2,,,74,127
35309,note_off,389,0,0,,2,,,74,127
35309,note_off,0,0,0,,12,,,59,127
35310,note_on,1,0,0,,0,,,60,127
35310,note_on,0,0,0,,3,,,75,127
35439,note_off,129,0,0,,3,,,75,127
35440,note_on,1,0,0,,5,,,77,127
35569,note_off,129,0,0,,5,,,77,127
35570,note_on,1,0,0,,7,,,79,127
35699,note_off,129,0,0,,7,,,79,127
35699,note_off,0,0,0,,0,,,60,127
35700,note_on,1,0,0,,5,,,53,127
35700,note_on,0,0,0,,5,,,65,127
35700,note_on,0,0,0,,5,,,77,127
35829,note_off,129,0,0,,5,,,77,127
35830,note_on,1,0,0,,3,,,75,127
35959,note_off,129,0,0,,3,,,75,127
35960,note_on,1,0,0,,2,,,74,127
36089,note_off,129,0,0,,2,,,74,127
36089,note_off,0,0,0,,5,,,65,127
36089,note_off,0,0,0,,5,,,53,127
36090,note_on,1,0,0,,7,,,55,127
36090,note_on,0,0,0,,3,,,63,127
36090,note_on,0,0,0,,0,,,72,127
36479,note_off,389,0,0,,0,,,72,127
36479,note_off,0,0,0,,3,,,63,127
36479,note_off,0,0,0,,7,,,55,127
36480,note_on,1,0,0,,7,,,55,127
36480,note_on,0,0,0,,2,,,62,127
36480,note_on,0,0,0,,0,,,72,127
36577,note_off,97,0,0,,0,,,72,127
36578,note_on,1,0,0,,12,,,71,127
36675,note_off,97,0,0,,12,,,71,127
36676,note_on,1,0,0,,0,,,72,127
36773,note_off,97,0,0,,0,,,72,127
36774,note_on,1,0,0,,12,,,71,127
36839,note_off,65,0,0,,12,,,71,127
36867,note_off,28,0,0,,2,,,62,127
36867,note_off,0,0,0,,7,,,55,127
36871,note_on,4,0,0,,11,,,82,127
37066,note_on,195,0,0,,5,,,77,127
37260,note_off,194,0,0,,5,,,77,127
37260,note_off,0,0,0,,11,,,82,127
37261,note_on,1,0,0,,2,,,74,127
37261,note_on,0,0,0,,8,,,80,127
37455,note_off,194,0,0,,2,,,74,127
37456,note_on,1,0,0,,12,,,71,127
37650,note_off,194,0,0,,12,,,71,127
37651,note_on,1,0,0,,8,,,68,127
37845,note_off,194,0,0,,8,,,68,127
37846,note_on,1,0,0,,5,,,65,127
37942,note_off,96,0,0,,8,,,80,127
38041,note_off,99,0,0,,5,,,65,127
38042,note_on,1,0,0,,2,,,62,127
38042,note_on,0,0,0,,0,,,84,127
38236,note_off,194,0,0,,0,,,84,127
38236,note_off,0,0,0,,2,,,62,127
38237,note_on,1,0,0,,12,,,59,127
38237,note_on,0,0,0,,12,,,83,127
38431,note_off,194,0,0,,12,,,59,127
38432,note_on,1,0,0,,8,,,56,127
38626,note_off,194,0,0,,8,,,56,127
38627,note_on,1,0,0,,5,,,53,127
38765,note_off,138,0,0,,12,,,83,127
38821,note_off,56,0,0,,5,,,53,127
38822,note_on,1,0,0,,2,,,50,127
38822,note_on,0,0,0,,2,,,86,127
39016,note_off,194,0,0,,2,,,50,127
39017,note_on,1,0,0,,12,,,47,127
39211,note_off,194,0,0,,12,,,47,127
39212,note_on,1,0,0,,7,,,43,127
39601,note_off,389,0,0,,7,,,43,127
39601,note_off,0,0,0,,2,,,86,127
39602,note_on,1,0,0,,12,,,59,127
39602,note_on,0,0,0,,2,,,74,127
39991,note_off,389,0,0,,2,,,74,127
39991,note_off,0,0,0,,12,,,59,127
39992,note_on,1,0,0,,0,,,60,127
39992,note_on,0,0,0,,3,,,75,127
40121,note_off,129,0,0,,3,,,75,127
40122,note_on,1,0,0,,5,,,77,127
40251,note_off,129,0,0,,5,,,77,127
40252,note_on,1,0,0,,7,,,79,127
40381,note_off,129,0,0,,7,,,79,127
40381,note_off,0,0,0,,0,,,60,127
40382,note_on,1,0,0,,5,,,53,127
40382,note_on,0,0,0,,5,,,65,127
40382,note_on,0,0,0,,8,,,80,127
40511,note_off,129,0,0,,8,,,80,127
40512,note_on,1,0,0,,5,,,77,127
40641,note_off,129,0,0,,5,,,77,127
40642,note_on,1,0,0,,2,,,74,127
40771,note_off,129,0,0,,2,,,74,127
40771,note_off,0,0,0,,5,,,65,127
40771,note_off,0,0,0,,5,,,53,127
40772,note_on,1,0,0,,7,,,55,127
40772,note_on,0,0,0,,3,,,63,127
40772,note_on,0,0,0,,0,,,72,127
41161,note_off,389,0,0,,0,,,72,127
41161,note_off,0,0,0,,3,,,63,127
41161,note_off,0,0,0,,7,,,55,127
41162,note_on,1,0,0,,7,,,55,127
41162,note_on,0,0,0,,2,,,62,127
41162,note_on,0,0,0,,0,,,72,127
41259,note_off,97,0,0,,0,,,72,127
41260,note_on,1,0,0,,12,,,71,127
41357,note_off,97,0,0,,12,,,71,127
41358,note_on,1,0,0,,10,,,69,127
41455,note_off,97,0,0,,10,,,69,127
41456,note_on,1,0,0,,12,,,71,127
41553,note_off,97,0,0,,12,,,71,127
41553,note_off,0,0,0,,2,,,62,127
41553,note_off,0,0,0,,7,,,55,127
41554,note_on,1,0,0,,0,,,60,127
41554,note_on,0,0,0,,0,,,48,127
41554,note_on,0,0,0,,0,,,72,127
41943,note_off,389,0,0,,0,,,72,127
41943,note_off,0,0,0,,0,,,60,127
41944,note_on,1,0,0,,0,,,60,127
41944,note_on,0,0,0,,3,,,75,127
41944,note_on,0,0,0,,5,,,77,127
42073,note_off,129,0,0,,5,,,77,127
42073,note_off,0,0,0,,3,,,75,127
42074,note_on,1,0,0,,2,,,74,127
42203,note_off,129,0,0,,2,,,74,127
42204,note_on,1,0,0,,0,,,72,127
42333,note_off,129,0,0,,0,,,72,127
42333,note_off,0,0,0,,0,,,60,127
42333,note_off,0,0,0,,0,,,48,127
42334,note_on,1,0,0,,5,,,53,127
42334,note_on,0,0,0,,5,,,65,127
42334,note_on,0,0,0,,12,,,71,127
42334,note_on,0,0,0,,2,,,74,127
42723,note_off,389,0,0,,2,,,74,127
42723,note_off,0,0,0,,5,,,65,127
42723,note_off,0,0,0,,5,,,53,127
42724,note_on,1,0,0,,7,,,55,127
42724,note_on,0,0,0,,5,,,65,127
42724,note_on,0,0,0,,2,,,74,127
43113,note_off,389,0,0,,2,,,74,127
43113,note_off,0,0,0,,5,,,65,127
43113,note_off,0,0,0,,7,,,55,127
43113,note_off,0,0,0,,12,,,71,127
43114,note_on,1,0,0,,5,,,65,127
43114,note_on,0,0,0,,8,,,56,127
43114,note_on,0,0,0,,12,,,71,127
43114,note_on,0,0,0,,2,,,74,127
43114,note_on,0,0,0,,3,,,75,127
43503,note_off,389,0,0,,3,,,75,127
43503,note_off,0,0,0,,2,,,74,127
43503,note_off,0,0,0,,8,,,56,127
43503,note_off,0,0,0,,5,,,65,127
43504,note_on,1,0,0,,5,,,53,127
43504,note_on,0,0,0,,5,,,65,127
43504,note_on,0,0,0,,5,,,77,127
43504,note_on,0,0,0,,3,,,75,127
43633,note_off,129,0,0,,3,,,75,127
43633,note_off,0,0,0,,5,,,77,127
43634,note_on,1,0,0,,2,,,74,127
43763,note_off,129,0,0,,2,,,74,127
43764,note_on,1,0,0,,0,,,72,127
43893,note_off,129,0,0,,0,,,72,127
43893,note_off,0,0,0,,5,,,65,127
43893,note_off,0,0,0,,5,,,53,127
43893,note_off,0,0,0,,12,,,71,127
43894,note_on,1,0,0,,5,,,53,127
43894,note_on,0,0,0,,5,,,65,127
43894,note_on,0,0,0,,2,,,74,127
43894,note_on,0,0,0,,12,,,71,127
44088,note_off,194,0,0,,2,,,74,127
44089,note_on,1,0,0,,2,,,74,127
44283,note_off,194,0,0,,2,,,74,127
44283,note_off,0,0,0,,5,,,65,127
44283,note_off,0,0,0,,5,,,53,127
44284,note_on,1,0,0,,7,,,55,127
44284,note_on,0,0,0,,5,,,65,127
44284,note_on,0,0,0,,2,,,74,127
44478,note_off,194,0,0,,2,,,74,127
44479,note_on,1,0,0,,2,,,74,127
44673,note_off,194,0,0,,2,,,74,127
44673,note_off,0,0,0,,5,,,65,127
44673,note_off,0,0,0,,7,,,55,127
44673,note_off,0,0,0,,12,,,71,127
44674,note_on,1,0,0,,8,,,56,127
44674,note_on,0,0,0,,5,,,65,127
44674,note_on,0,0,0,,2,,,74,127
44803,note_off,129,0,0,,2,,,74,127
44804,note_on,1,0,0,,8,,,80,127
44933,note_off,129,0,0,,8,,,80,127
44934,note_on,1,0,0,,7,,,79,127
45063,note_off,129,0,0,,7,,,79,127
45063,note_off,0,0,0,,5,,,65,127
45063,note_off,0,0,0,,8,,,56,127
45064,note_on,1,0,0,,5,,,53,127
45064,note_on,0,0,0,,5,,,65,127
45064,note_on,0,0,0,,5,,,77,127
45193,note_off,129,0,0,,5,,,77,127
45194,note_on,1,0,0,,3,,,75,127
45323,note_off,129,0,0,,3,,,75,127
45324,note_on,1,0,0,,2,,,74,127
45453,note_off,129,0,0,,2,,,74,127
45453,note_off,0,0,0,,5,,,65,127
45453,note_off,0,0,0,,5,,,53,127
45454,note_on,1,0,0,,7,,,55,127
45454,note_on,0,0,0,,3,,,63,127
45454,note_on,0,0,0,,0,,,72,127
45843,note_off,389,0,0,,0,,,72,127
45843,note_off,0,0,0,,3,,,63,127
45843,note_off,0,0,0,,7,,,55,127
45844,note_on,1,0,0,,7,,,55,127
45844,note_on,0,0,0,,2,,,62,127
45844,note_on,0,0,0,,0,,,72,127
45941,note_off,97,0,0,,0,,,72,127
45942,note_on,1,0,0,,12,,,71,127
46039,note_off,97,0,0,,12,,,71,127
46040,note_on,1,0,0,,10,,,69,127
46137,note_off,97,0,0,,10,,,69,127
46138,note_on,1,0,0,,12,,,71,127
46235,note_off,97,0,0,,12,,,71,127
46235,note_off,0,0,0,,2,,,62,127
46235,note_off,0,0,0,,7,,,55,127
46236,note_on,1,0,0,,0,,,48,127
46236,note_on,0,0,0,,0,,,60,127
46236,note_on,0,0,0,,0,,,72,127
46529,note_off,293,0,0,,0,,,60,127
46626,note_off,97,0,0,,0,,,72,127
46627,note_on,1,0,0,,0,,,60,127
46627,note_on,0,0,0,,3,,,75,127
46627,note_on,0,0,0,,5,,,77,127
46756,note_off,129,0,0,,5,,,77,127
46756,note_off,0,0,0,,3,,,75,127
46757,note_on,1,0,0,,2,,,74,127
46886,note_off,129,0,0,,2,,,74,127
46887,note_on,1,0,0,,0,,,72,127
47016,note_off,129,0,0,,0,,,72,127
47016,note_off,0,0,0,,0,,,60,127
47016,note_off,0,0,0,,0,,,48,127
47017,note_on,1,0,0,,5,,,53,127
47017,note_on,0,0,0,,5,,,65,127
47017,note_on,0,0,0,,12,,,71,127
47017,note_on,0,0,0,,2,,,74,127
47211,note_off,194,0,0,,2,,,74,127
47212,note_on,1,0,0,,2,,,74,127
47406,note_off,194,0,0,,2,,,74,127
47406,note_off,0,0,0,,5,,,65,127
47406,note_off,0,0,0,,5,,,53,127
47407,note_on,1,0,0,,7,,,55,127
47407,note_on,0,0,0,,5,,,65,127
47407,note_on,0,0,0,,2,,,74,127
47601,note_off,194,0,0,,2,,,74,127
47602,note_on,1,0,0,,2,,,74,127
47796,note_off,194,0,0,,2,,,74,127
47796,note_off,0,0,0,,5,,,65,127
47796,note_off,0,0,0,,7,,,55,127
47796,note_off,0,0,0,,12,,,71,127
47797,note_on,1,0,0,,8,,,56,127
47797,note_on,0,0,0,,5,,,65,127
47797,note_on,0,0,0,,2,,,74,127
47797,note_on,0,0,0,,12,,,71,127
48186,note_off,389,0,0,,2,,,74,127
48186,note_off,0,0,0,,5,,,65,127
48186,note_off,0,0,0,,8,,,56,127
48187,note_on,1,0,0,,5,,,65,127
48187,note_on,0,0,0,,5,,,53,127
48187,note_on,0,0,0,,3,,,75,127
48316,note_off,129,0,0,,3,,,75,127
48317,note_on,1,0,0,,2,,,74,127
48446,note_off,129,0,0,,2,,,74,127
48447,note_on,1,0,0,,0,,,72,127
48576,note_off,129,0,0,,0,,,72,127
48576,note_off,0,0,0,,5,,,53,127
48576,note_off,0,0,0,,5,,,65,127
48576,note_off,0,0,0,,12,,,71,127
48577,note_on,1,0,0,,7,,,55,127
48577,note_on,0,0,0,,5,,,65,127
48577,note_on,0,0,0,,2,,,74,127
48771,note_off,194,0,0,,2,,,74,127
48772,note_on,1,0,0,,12,,,71,127
48966,note_off,194,0,0,,12,,,71,127
48966,note_off,0,0,0,,5,,,65,127
48966,note_off,0,0,0,,7,,,55,127
48967,note_on,1,0,0,,7,,,55,127
48967,note_on,0,0,0,,5,,,65,127
48967,note_on,0,0,0,,2,,,74,127
49161,note_off,194,0,0,,2,,,74,127
49162,note_on,1,0,0,,12,,,71,127
49356,note_off,194,0,0,,12,,,71,127
49356,note_off,0,0,0,,5,,,65,127
49356,note_off,0,0,0,,7,,,55,127
49357,note_on,1,0,0,,8,,,56,127
49357,note_on,0,0,0,,5,,,65,127
49357,note_on,0,0,0,,2,,,74,127
49486,note_off,129,0,0,,2,,,74,127
49487,note_on,1,0,0,,12,,,83,127
49616,note_off,129,0,0,,12,,,83,127
49617,note_on,1,0,0,,0,,,84,127
49746,note_off,129,0,0,,0,,,84,127
49746,note_off,0,0,0,,5,,,65,127
49746,note_off,0,0,0,,8,,,56,127
49747,note_on,1,0,0,,5,,,53,127
49747,note_on,0,0,0,,5,,,65,127
49747,note_on,0,0,0,,8,,,80,127
49876,note_off,129,0,0,,8,,,80,127
49877,note_on,1,0,0,,5,,,77,127
50006,note_off,129,0,0,,5,,,77,127
50007,note_on,1,0,0,,2,,,74,127
50136,note_off,129,0,0,,2,,,74,127
50136,note_off,0,0,0,,5,,,65,127
50136,note_off,0,0,0,,5,,,53,127
50137,note_on,1,0,0,,7,,,55,127
50137,note_on,0,0,0,,3,,,63,127
50137,note_on,0,0,0,,0,,,72,127
50526,note_off,389,0,0,,0,,,72,127
50526,note_off,0,0,0,,3,,,63,127
50526,note_off,0,0,0,,7,,,55,127
50527,note_on,1,0,0,,7,,,55,127
50527,note_on,0,0,0,,2,,,62,127
50527,note_on,0,0,0,,0,,,72,127
50624,note_off,97,0,0,,0,,,72,127
50625,note_on,1,0,0,,12,,,71,127
50722,note_off,97,0,0,,12,,,71,127
50723,note_on,1,0,0,,10,,,69,127
50820,note_off,97,0,0,,10,,,69,127
50821,note_on,1,0,0,,12,,,71,127
50886,note_off,65,0,0,,12,,,71,127
50914,note_off,28,0,0,,2,,,62,127
50914,note_off,0,0,0,,7,,,55,127
50918,note_on,4,0,0,,8,,,80,127
50918,note_on,0,0,0,,11,,,82,127
51047,note_off,129,0,0,,11,,,82,127
51047,note_off,0,0,0,,8,,,80,127
51048,note_on,1,0,0,,7,,,79,127
51177,note_off,129,0,0,,7,,,79,127
51178,note_on,1,0,0,,5,,,77,127
51307,note_off,129,0,0,,5,,,77,127
51308,note_on,1,0,0,,5,,,53,127
51308,note_on,0,0,0,,5,,,65,127
51308,note_on,0,0,0,,3,,,75,127
51437,note_off,129,0,0,,3,,,75,127
51438,note_on,1,0,0,,2,,,74,127
51567,note_off,129,0,0,,2,,,74,127
51568,note_on,1,0,0,,0,,,72,127
51697,note_off,129,0,0,,0,,,72,127
51697,note_off,0,0,0,,5,,,65,127
51697,note_off,0,0,0,,5,,,53,127
51698,note_on,1,0,0,,7,,,55,127
51698,note_on,0,0,0,,3,,,63,127
51698,note_on,0,0,0,,0,,,72,127
52087,note_off,389,0,0,,0,,,72,127
52087,note_off,0,0,0,,3,,,63,127
52087,note_off,0,0,0,,7,,,55,127
52088,note_on,1,0,0,,7,,,55,127
52088,note_on,0,0,0,,2,,,62,127
52088,note_on,0,0,0,,0,,,72,127
52185,note_off,97,0,0,,0,,,72,127
52186,note_on,1,0,0,,12,,,71,127
52283,note_off,97,0,0,,12,,,71,127
52284,note_on,1,0,0,,10,,,69,127
52381,note_off,97,0,0,,10,,,69,127
52382,note_on,1,0,0,,12,,,71,127
52447,note_off,65,0,0,,12,,,71,127
52475,note_off,28,0,0,,2,,,62,127
52475,note_off,0,0,0,,7,,,55,127
52479,note_on,4,0,0,,11,,,82,127
52479,note_on,0,0,0,,8,,,80,127
52608,note_off,129,0,0,,8,,,80,127
52608,note_off,0,0,0,,11,,,82,127
52609,note_on,1,0,0,,7,,,79,127
52738,note_off,129,0,0,,7,,,79,127
52739,note_on,1,0,0,,5,,,77,127
52868,note_off,129,0,0,,5,,,77,127
52869,note_on,1,0,0,,5,,,53,127
52869,note_on,0,0,0,,8,,,56,127
52869,note_on,0,0,0,,3,,,75,127
52998,note_off,129,0,0,,3,,,75,127
52999,note_on,1,0,0,,2,,,74,127
53128,note_off,129,0,0,,2,,,74,127
53129,note_on,1,0,0,,0,,,72,127
53258,note_off,129,0,0,,0,,,72,127
53258,note_off,0,0,0,,8,,,56,127
53258,note_off,0,0,0,,5,,,53,127
53259,note_on,1,0,0,,7,,,55,127
53259,note_on,0,0,0,,0,,,72,127
53648,note_off,389,0,0,,0,,,72,127
53648,note_off,0,0,0,,7,,,55,127
53649,note_on,1,0,0,,7,,,43,127
53649,note_on,0,0,0,,0,,,72,127
53746,note_off,97,0,0,,0,,,72,127
53747,note_on,1,0,0,,12,,,71,127
53844,note_off,97,0,0,,12,,,71,127
53845,note_on,1,0,0,,10,,,69,127
53942,note_off,97,0,0,,10,,,69,127
53943,note_on,1,0,0,,12,,,71,127
54040,note_off,97,0,0,,12,,,71,127
54040,note_off,0,0,0,,7,,,43,127
54041,note_on,1,0,0,,0,,,36,127
54041,note_on,0,0,0,,0,,,48,127
54041,note_on,0,0,0,,12,,,71,127
54821,note_off,780,0,0,,12,,,71,127
54822,note_on,1,0,0,,0,,,72,127
55465,note_off,643,0,0,,0,,,36,127
55597,note_off,132,0,0,,0,,,48,127
55602,note_off,5,0,0,,0,,,72,127
55603,note_on,1,0,0,,0,,,60,127
55603,note_on,0,0,0,,7,,,67,127
55603,note_on,0,0,0,,0,,,72,127
55603,note_on,0,0,0,,4,,,76,127
55732,note_off,129,0,0,,4,,,76,127
55733,note_on,1,0,0,,7,,,79,127
55862,note_off,129,0,0,,7,,,79,127
55863,note_on,1,0,0,,5,,,77,127
55992,note_off,129,0,0,,5,,,77,127
55992,note_off,0,0,0,,7,,,67,127
55992,note_off,0,0,0,,0,,,60,127
55993,note_on,1,0,0,,0,,,60,127
55993,note_on,0,0,0,,7,,,67,127
55993,note_on,0,0,0,,5,,,77,127
56382,note_off,389,0,0,,7,,,67,127
56382,note_off,0,0,0,,0,,,60,127
56383,note_on,1,0,0,,0,,,60,127
56383,note_on,0,0,0,,7,,,67,127
56772,note_off,389,0,0,,7,,,67,127
56772,note_off,0,0,0,,0,,,60,127
56772,note_off,0,0,0,,5,,,77,127
56773,note_on,1,0,0,,0,,,60,127
56773,note_on,0,0,0,,7,,,67,127
56773,note_on,0,0,0,,4,,,76,127
57157,note_off,384,0,0,,0,,,72,127
57162,note_off,5,0,0,,4,,,76,127
57162,note_off,0,0,0,,7,,,67,127
57162,note_off,0,0,0,,0,,,60,127
57163,note_on,1,0,0,,1,,,61,127
57163,note_on,0,0,0,,7,,,67,127
57163,note_on,0,0,0,,11,,,70,127
57163,note_on,0,0,0,,7,,,79,127
57292,note_off,129,0,0,,11,,,70,127
57293,note_on,1,0,0,,1,,,73,127
57422,note_off,129,0,0,,1,,,73,127
57423,note_on,1,0,0,,0,,,72,127
57552,note_off,129,0,0,,0,,,72,127
57552,note_off,0,0,0,,7,,,67,127
57552,note_off,0,0,0,,1,,,61,127
57553,note_on,1,0,0,,1,,,61,127
57553,note_on,0,0,0,,7,,,67,127
57553,note_on,0,0,0,,0,,,72,127
57942,note_off,389,0,0,,7,,,67,127
57942,note_off,0,0,0,,1,,,61,127
57942,note_off,0,0,0,,7,,,79,127
57943,note_on,1,0,0,,7,,,67,127
57943,note_on,0,0,0,,1,,,61,127
57943,note_on,0,0,0,,7,,,79,127
58332,note_off,389,0,0,,1,,,61,127
58332,note_off,0,0,0,,7,,,67,127
58332,note_off,0,0,0,,0,,,72,127
58333,note_on,1,0,0,,7,,,67,127
58333,note_on,0,0,0,,1,,,61,127
58333,note_on,0,0,0,,11,,,70,127
58722,note_off,389,0,0,,11,,,70,127
58722,note_off,0,0,0,,1,,,61,127
58722,note_off,0,0,0,,7,,,67,127
58722,note_off,0,0,0,,7,,,79,127
58723,note_on,1,0,0,,7,,,67,127
58723,note_on,0,0,0,,0,,,60,127
58723,note_on,0,0,0,,4,,,76,127
58723,note_on,0,0,0,,0,,,72,127
58852,note_off,129,0,0,,4,,,76,127
58853,note_on,1,0,0,,7,,,79,127
58982,note_off,129,0,0,,7,,,79,127
58983,note_on,1,0,0,,5,,,77,127
59112,note_off,129,0,0,,5,,,77,127
59112,note_off,0,0,0,,0,,,60,127
59112,note_off,0,0,0,,7,,,67,127
59113,note_on,1,0,0,,0,,,60,127
59113,note_on,0,0,0,,7,,,67,127
59113,note_on,0,0,0,,5,,,77,127
59502,note_off,389,0,0,,7,,,67,127
59502,note_off,0,0,0,,0,,,60,127
59503,note_on,1,0,0,,0,,,60,127
59503,note_on,0,0,0,,7,,,67,127
59892,note_off,389,0,0,,7,,,67,127
59892,note_off,0,0,0,,0,,,60,127
59892,note_off,0,0,0,,5,,,77,127
59893,note_on,1,0,0,,0,,,60,127
59893,note_on,0,0,0,,7,,,67,127
59893,note_on,0,0,0,,4,,,76,127
60277,note_off,384,0,0,,0,,,72,127
60282,note_off,5,0,0,,4,,,76,127
60282,note_off,0,0,0,,7,,,67,127
60282,note_off,0,0,0,,0,,,60,127
60283,note_on,1,0,0,,7,,,67,127
60283,note_on,0,0,0,,1,,,61,127
60283,note_on,0,0,0,,7,,,79,127
60283,note_on,0,0,0,,11,,,70,127
60412,note_off,129,0,0,,11,,,70,127
60413,note_on,1,0,0,,1,,,73,127
60542,note_off,129,0,0,,1,,,73,127
60543,note_on,1,0,0,,0,,,72,127
60672,note_off,129,0,0,,0,,,72,127
60672,note_off,0,0,0,,1,,,61,127
60672,note_off,0,0,0,,7,,,67,127
60673,note_on,1,0,0,,1,,,61,127
60673,note_on,0,0,0,,7,,,67,127
60673,note_on,0,0,0,,0,,,72,127
61062,note_off,389,0,0,,7,,,67,127
61062,note_off,0,0,0,,1,,,61,127
61062,note_off,0,0,0,,7,,,79,127
61063,note_on,1,0,0,,7,,,67,127
61063,note_on,0,0,0,,1,,,61,127
61063,note_on,0,0,0,,7,,,79,127
61452,note_off,389,0,0,,1,,,61,127
61452,note_off,0,0,0,,7,,,67,127
61452,note_off,0,0,0,,0,,,72,127
61453,note_on,1,0,0,,7,,,67,127
61453,note_on,0,0,0,,1,,,61,127
61453,note_on,0,0,0,,11,,,70,127
61778,note_off,325,0,0,,11,,,70,127
61842,note_off,64,0,0,,1,,,61,127
61842,note_off,0,0,0,,7,,,67,127
61842,note_off,0,0,0,,7,,,79,127
61843,note_on,1,0,0,,7,,,67,127
61843,note_on,0,0,0,,1,,,61,127
61843,note_on,0,0,0,,7,,,79,127
61843,note_on,0,0,0,,10,,,69,127
62232,note_off,389,0,0,,1,,,61,127
62232,note_off,0,0,0,,7,,,67,127
62233,note_on,1,0,0,,7,,,67,127
62233,note_on,0,0,0,,1,,,61,127
62622,note_off,389,0,0,,1,,,61,127
62622,note_off,0,0,0,,7,,,67,127
62622,note_off,0,0,0,,10,,,69,127
62622,note_off,0,0,0,,7,,,79,127
62623,note_on,1,0,0,,1,,,61,127
62623,note_on,0,0,0,,7,,,67,127
62623,note_on,0,0,0,,7,,,79,127
62623,note_on,0,0,0,,10,,,69,127
63012,note_off,389,0,0,,7,,,67,127
63012,note_off,0,0,0,,1,,,61,127
63013,note_on,1,0,0,,7,,,67,127
63013,note_on,0,0,0,,1,,,61,127
63395,note_off,382,0,0,,10,,,69,127
63402,note_off,7,0,0,,1,,,61,127
63402,note_off,0,0,0,,7,,,67,127
63402,note_off,0,0,0,,7,,,79,127
63403,note_on,1,0,0,,2,,,62,127
63403,note_on,0,0,0,,10,,,69,127
63403,note_on,0,0,0,,6,,,78,127
63500,note_off,97,0,0,,6,,,78,127
63501,note_on,1,0,0,,7,,,79,127
63598,note_off,97,0,0,,7,,,79,127
63599,note_on,1,0,0,,10,,,81,127
63793,note_off,194,0,0,,10,,,69,127
63793,note_off,0,0,0,,2,,,62,127
63794,note_on,1,0,0,,10,,,69,127
63794,note_on,0,0,0,,2,,,62,127
63988,note_off,194,0,0,,10,,,81,127
63989,note_on,1,0,0,,3,,,75,127
64183,note_off,194,0,0,,2,,,62,127
64183,note_off,0,0,0,,10,,,69,127
64184,note_on,1,0,0,,11,,,70,127
64184,note_on,0,0,0,,2,,,62,127
64378,note_off,194,0,0,,3,,,75,127
64379,note_on,1,0,0,,2,,,74,127
64573,note_off,194,0,0,,2,,,62,127
64573,note_off,0,0,0,,11,,,70,127
64574,note_on,1,0,0,,2,,,62,127
64574,note_on,0,0,0,,10,,,69,127
64768,note_off,194,0,0,,2,,,74,127
64769,note_on,1,0,0,,0,,,72,127
64963,note_off,194,0,0,,10,,,69,127
64963,note_off,0,0,0,,2,,,62,127
64964,note_on,1,0,0,,2,,,62,127
64964,note_on,0,0,0,,7,,,67,127
65158,note_off,194,0,0,,0,,,72,127
65159,note_on,1,0,0,,11,,,70,127
65353,note_off,194,0,0,,7,,,67,127
65353,note_off,0,0,0,,2,,,62,127
65354,note_on,1,0,0,,2,,,62,127
65354,note_on,0,0,0,,5,,,65,127
65548,note_off,194,0,0,,11,,,70,127
65549,note_on,1,0,0,,10,,,69,127
65743,note_off,194,0,0,,10,,,69,127
65743,note_off,0,0,0,,5,,,65,127
65743,note_off,0,0,0,,2,,,62,127
65744,note_on,1,0,0,,3,,,63,127
65744,note_on,0,0,0,,2,,,62,127
65744,note_on,0,0,0,,10,,,69,127
65841,note_off,97,0,0,,10,,,69,127
65842,note_on,1,0,0,,7,,,67,127
65939,note_off,97,0,0,,7,,,67,127
65940,note_on,1,0,0,,10,,,69,127
66037,note_off,97,0,0,,10,,,69,127
66038,note_on,1,0,0,,7,,,67,127
66135,note_off,97,0,0,,7,,,67,127
66135,note_off,0,0,0,,2,,,62,127
66135,note_off,0,0,0,,3,,,63,127
66136,note_on,1,0,0,,0,,,60,127
66136,note_on,0,0,0,,3,,,63,127
66136,note_on,0,0,0,,10,,,69,127
66233,note_off,97,0,0,,10,,,69,127
66234,note_on,1,0,0,,7,,,67,127
66331,note_off,97,0,0,,7,,,67,127
66332,note_on,1,0,0,,6,,,66,127
66429,note_off,97,0,0,,6,,,66,127
66430,note_on,1,0,0,,7,,,67,127
66527,note_off,97,0,0,,7,,,67,127
66527,note_off,0,0,0,,3,,,63,127
66527,note_off,0,0,0,,0,,,60,127
66528,note_on,1,0,0,,0,,,60,127
66528,note_on,0,0,0,,2,,,62,127
66528,note_on,0,0,0,,6,,,66,127
66722,note_off,194,0,0,,6,,,66,127
66723,note_on,1,0,0,,3,,,75,127
66917,note_off,194,0,0,,2,,,62,127
66917,note_off,0,0,0,,0,,,60,127
66918,note_on,1,0,0,,11,,,58,127
66918,note_on,0,0,0,,7,,,67,127
67112,note_off,194,0,0,,3,,,75,127
67113,note_on,1,0,0,,2,,,74,127
67307,note_off,194,0,0,,7,,,67,127
67307,note_off,0,0,0,,11,,,58,127
67308,note_on,1,0,0,,6,,,66,127
67308,note_on,0,0,0,,10,,,57,127
67502,note_off,194,0,0,,2,,,74,127
67503,note_on,1,0,0,,0,,,72,127
67697,note_off,194,0,0,,0,,,72,127
67697,note_off,0,0,0,,10,,,57,127
67697,note_off,0,0,0,,6,,,66,127
67698,note_on,1,0,0,,7,,,55,127
67698,note_on,0,0,0,,7,,,67,127
67698,note_on,0,0,0,,0,,,72,127
67795,note_off,97,0,0,,0,,,72,127
67796,note_on,1,0,0,,11,,,70,127
67893,note_off,97,0,0,,11,,,70,127
67894,note_on,1,0,0,,10,,,69,127
67991,note_off,97,0,0,,10,,,69,127
67992,note_on,1,0,0,,11,,,70,127
68089,note_off,97,0,0,,11,,,70,127
68089,note_off,0,0,0,,7,,,67,127
68089,note_off,0,0,0,,7,,,55,127
68090,note_on,1,0,0,,2,,,62,127
68090,note_on,0,0,0,,6,,,66,127
68090,note_on,0,0,0,,10,,,69,127
68284,note_off,194,0,0,,2,,,62,127
68285,note_on,1,0,0,,10,,,57,127
68479,note_off,194,0,0,,10,,,57,127
68480,note_on,1,0,0,,6,,,54,127
68674,note_off,194,0,0,,6,,,54,127
68675,note_on,1,0,0,,2,,,50,127
68869,note_off,194,0,0,,10,,,69,127
68869,note_off,0,0,0,,6,,,66,127
68870,note_on,1,0,0,,2,,,38,127
69651,note_off,781,0,0,,2,,,50,127
69944,note_off,293,0,0,,2,,,38,127
70172,note_on,228,0,0,,2,,,74,127
70561,note_off,389,0,0,,2,,,74,127
70562,note_on,1,0,0,,7,,,67,127
70562,note_on,0,0,0,,11,,,70,127
70562,note_on,0,0,0,,7,,,79,127
70756,note_off,194,0,0,,7,,,79,127
70757,note_on,1,0,0,,5,,,77,127
70951,note_off,194,0,0,,5,,,77,127
70951,note_off,0,0,0,,11,,,70,127
70951,note_off,0,0,0,,7,,,67,127
70952,note_on,1,0,0,,0,,,72,127
70952,note_on,0,0,0,,7,,,67,127
70952,note_on,0,0,0,,3,,,75,127
71341,note_off,389,0,0,,3,,,75,127
71341,note_off,0,0,0,,7,,,67,127
71341,note_off,0,0,0,,0,,,72,127
71342,note_on,1,0,0,,11,,,70,127
71342,note_on,0,0,0,,7,,,67,127
71342,note_on,0,0,0,,2,,,74,127
71731,note_off,389,0,0,,2,,,74,127
71731,note_off,0,0,0,,7,,,67,127
71731,note_off,0,0,0,,11,,,70,127
71732,note_on,1,0,0,,10,,,69,127
71732,note_on,0,0,0,,0,,,72,127
71732,note_on,0,0,0,,6,,,78,127
72121,note_off,389,0,0,,6,,,78,127
72121,note_off,0,0,0,,0,,,72,127
72121,note_off,0,0,0,,10,,,69,127
72122,note_on,1,0,0,,11,,,70,127
72122,note_on,0,0,0,,10,,,81,127
72251,note_off,129,0,0,,10,,,81,127
72252,note_on,1,0,0,,7,,,79,127
72316,note_off,64,0,0,,11,,,70,127
72317,note_on,1,0,0,,10,,,69,127
72381,note_off,64,0,0,,7,,,79,127
72382,note_on,1,0,0,,6,,,78,127
72511,note_off,129,0,0,,6,,,78,127
72511,note_off,0,0,0,,10,,,69,127
72512,note_on,1,0,0,,7,,,67,127
72512,note_on,0,0,0,,6,,,78,127
72901,note_off,389,0,0,,6,,,78,127
72902,note_on,1,0,0,,7,,,55,127
72902,note_on,0,0,0,,7,,,79,127
73227,note_off,325,0,0,,7,,,79,127
73288,note_off,61,0,0,,7,,,55,127
73291,note_off,3,0,0,,7,,,67,127
73292,note_on,1,0,0,,2,,,74,127
73681,note_off,389,0,0,,2,,,74,127
73682,note_on,1,0,0,,7,,,67,127
73682,note_on,0,0,0,,11,,,70,127
73682,note_on,0,0,0,,7,,,79,127
73876,note_off,194,0,0,,7,,,79,127
73877,note_on,1,0,0,,5,,,77,127
74071,note_off,194,0,0,,5,,,77,127
74071,note_off,0,0,0,,11,,,70,127
74071,note_off,0,0,0,,7,,,67,127
74072,note_on,1,0,0,,11,,,70,127
74072,note_on,0,0,0,,7,,,67,127
74072,note_on,0,0,0,,4,,,76,127
74461,note_off,389,0,0,,4,,,76,127
74461,note_off,0,0,0,,7,,,67,127
74461,note_off,0,0,0,,11,,,70,127
74462,note_on,1,0,0,,5,,,65,127
74462,note_on,0,0,0,,1,,,73,127
74462,note_on,0,0,0,,11,,,70,127
74462,note_on,0,0,0,,5,,,77,127
74851,note_off,389,0,0,,5,,,77,127
74851,note_off,0,0,0,,11,,,70,127
74851,note_off,0,0,0,,1,,,73,127
74851,note_off,0,0,0,,5,,,65,127
74852,note_on,1,0,0,,4,,,64,127
74852,note_on,0,0,0,,11,,,70,127
74852,note_on,0,0,0,,0,,,72,127
74852,note_on,0,0,0,,7,,,79,127
75234,note_off,382,0,0,,7,,,79,127
75241,note_off,7,0,0,,0,,,72,127
75241,note_off,0,0,0,,11,,,70,127
75241,note_off,0,0,0,,4,,,64,127
75242,note_on,1,0,0,,5,,,65,127
75242,note_on,0,0,0,,0,,,72,127
75242,note_on,0,0,0,,8,,,80,127
75631,note_off,389,0,0,,8,,,80,127
75631,note_off,0,0,0,,0,,,72,127
75631,note_off,0,0,0,,5,,,65,127
75632,note_on,1,0,0,,0,,,72,127
75632,note_on,0,0,0,,1,,,61,127
75632,note_on,0,0,0,,11,,,82,127
75826,note_off,194,0,0,,11,,,82,127
75827,note_on,1,0,0,,8,,,80,127
76021,note_off,194,0,0,,8,,,80,127
76021,note_off,0,0,0,,1,,,61,127
76021,note_off,0,0,0,,0,,,72,127
76022,note_on,1,0,0,,1,,,61,127
76022,note_on,0,0,0,,11,,,70,127
76022,note_on,0,0,0,,7,,,79,127
76216,note_off,194,0,0,,7,,,79,127
76217,note_on,1,0,0,,5,,,77,127
76411,note_off,194,0,0,,5,,,77,127
76411,note_off,0,0,0,,11,,,70,127
76411,note_off,0,0,0,,1,,,61,127
76412,note_on,1,0,0,,0,,,60,127
76412,note_on,0,0,0,,11,,,70,127
76412,note_on,0,0,0,,4,,,76,127
76606,note_off,194,0,0,,4,,,76,127
76607,note_on,1,0,0,,0,,,84,127
76801,note_off,194,0,0,,11,,,70,127
76801,note_off,0,0,0,,0,,,60,127
76802,note_on,1,0,0,,0,,,60,127
76802,note_on,0,0,0,,8,,,68,127
76996,note_off,194,0,0,,0,,,84,127
76997,note_on,1,0,0,,5,,,77,127
77191,note_off,194,0,0,,8,,,68,127
77191,note_off,0,0,0,,0,,,60,127
77192,note_on,1,0,0,,0,,,60,127
77192,note_on,0,0,0,,7,,,67,127
77343,note_off,151,0,0,,5,,,77,127
77388,note_on,45,0,0,,4,,,76,127
77582,note_off,194,0,0,,7,,,67,127
77582,note_off,0,0,0,,0,,,60,127
77583,note_on,1,0,0,,0,,,60,127
77583,note_on,0,0,0,,8,,,68,127
77583,note_on,0,0,0,,5,,,65,127
77777,note_off,194,0,0,,4,,,76,127
77778,note_on,1,0,0,,5,,,77,127
77972,note_off,194,0,0,,5,,,77,127
77972,note_off,0,0,0,,5,,,65,127
77972,note_off,0,0,0,,8,,,68,127
77972,note_off,0,0,0,,0,,,60,127
77973,note_on,1,0,0,,0,,,60,127
77973,note_on,0,0,0,,7,,,67,127
77973,note_on,0,0,0,,7,,,79,127
78167,note_off,194,0,0,,7,,,79,127
78168,note_on,1,0,0,,0,,,72,127
78362,note_off,194,0,0,,7,,,67,127
78362,note_off,0,0,0,,0,,,60,127
78363,note_on,1,0,0,,8,,,56,127
78363,note_on,0,0,0,,5,,,65,127
78557,note_off,194,0,0,,0,,,72,127
78558,note_on,1,0,0,,1,,,73,127
78752,note_off,194,0,0,,1,,,73,127
78752,note_off,0,0,0,,5,,,65,127
78752,note_off,0,0,0,,8,,,56,127
78753,note_on,1,0,0,,7,,,55,127
78753,note_on,0,0,0,,4,,,64,127
78753,note_on,0,0,0,,0,,,72,127
78947,note_off,194,0,0,,0,,,72,127
78948,note_on,1,0,0,,11,,,70,127
79142,note_off,194,0,0,,4,,,64,127
79142,note_off,0,0,0,,7,,,55,127
79143,note_on,1,0,0,,5,,,53,127
79143,note_on,0,0,0,,5,,,65,127
79240,note_off,97,0,0,,11,,,70,127
79241,note_on,1,0,0,,8,,,68,127
79338,note_off,97,0,0,,8,,,68,127
79339,note_on,1,0,0,,7,,,67,127
79436,note_off,97,0,0,,7,,,67,127
79437,note_on,1,0,0,,8,,,68,127
79534,note_off,97,0,0,,8,,,68,127
79534,note_off,0,0,0,,5,,,65,127
79534,note_off,0,0,0,,5,,,53,127
79535,note_on,1,0,0,,0,,,60,127
79535,note_on,0,0,0,,8,,,68,127
79729,note_off,194,0,0,,8,,,68,127
79729,note_off,0,0,0,,0,,,60,127
79730,note_on,1,0,0,,7,,,55,127
79730,note_on,0,0,0,,7,,,67,127
79924,note_off,194,0,0,,7,,,55,127
79925,note_on,1,0,0,,4,,,52,127
80119,note_off,194,0,0,,4,,,52,127
80120,note_on,1,0,0,,0,,,48,127
80315,note_on,195,0,0,,0,,,36,127
80380,note_off,65,0,0,,0,,,48,127
80509,note_off,129,0,0,,7,,,67,127
81844,note_off,1335,0,0,,0,,,36,127
81877,note_on,33,0,0,,0,,,72,127
82266,note_off,389,0,0,,0,,,72,127
82267,note_on,1,0,0,,5,,,65,127
82267,note_on,0,0,0,,8,,,68,127
82267,note_on,0,0,0,,5,,,77,127
82461,note_off,194,0,0,,5,,,77,127
82462,note_on,1,0,0,,3,,,75,127
82656,note_off,194,0,0,,3,,,75,127
82656,note_off,0,0,0,,8,,,68,127
82656,note_off,0,0,0,,5,,,65,127
82657,note_on,1,0,0,,5,,,65,127
82657,note_on,0,0,0,,11,,,70,127
82657,note_on,0,0,0,,1,,,73,127
83046,note_off,389,0,0,,1,,,73,127
83046,note_off,0,0,0,,11,,,70,127
83046,note_off,0,0,0,,5,,,65,127
83047,note_on,1,0,0,,5,,,65,127
83047,note_on,0,0,0,,8,,,68,127
83047,note_on,0,0,0,,0,,,72,127
83436,note_off,389,0,0,,0,,,72,127
83436,note_off,0,0,0,,8,,,68,127
83436,note_off,0,0,0,,5,,,65,127
83437,note_on,1,0,0,,7,,,67,127
83437,note_on,0,0,0,,11,,,70,127
83437,note_on,0,0,0,,4,,,76,127
83826,note_off,389,0,0,,4,,,76,127
83826,note_off,0,0,0,,11,,,70,127
83826,note_off,0,0,0,,7,,,67,127
83827,note_on,1,0,0,,8,,,68,127
83827,note_on,0,0,0,,7,,,79,127
83956,note_off,129,0,0,,7,,,79,127
83957,note_on,1,0,0,,5,,,77,127
84021,note_off,64,0,0,,8,,,68,127
84022,note_on,1,0,0,,7,,,67,127
84086,note_off,64,0,0,,5,,,77,127
84087,note_on,1,0,0,,4,,,76,127
84216,note_off,129,0,0,,4,,,76,127
84216,note_off,0,0,0,,7,,,67,127
84217,note_on,1,0,0,,5,,,65,127
84217,note_on,0,0,0,,4,,,76,127
84606,note_off,389,0,0,,4,,,76,127
84607,note_on,1,0,0,,5,,,53,127
84607,note_on,0,0,0,,5,,,77,127
84953,note_off,346,0,0,,5,,,77,127
84994,note_off,41,0,0,,5,,,53,127
84997,note_off,3,0,0,,5,,,65,127
84998,note_on,1,0,0,,0,,,72,127
85387,note_off,389,0,0,,0,,,72,127
85388,note_on,1,0,0,,8,,,68,127
85388,note_on,0,0,0,,5,,,65,127
85388,note_on,0,0,0,,5,,,77,127
85582,note_off,194,0,0,,5,,,77,127
85583,note_on,1,0,0,,3,,,75,127
85777,note_off,194,0,0,,3,,,75,127
85777,note_off,0,0,0,,5,,,65,127
85777,note_off,0,0,0,,8,,,68,127
85778,note_on,1,0,0,,5,,,65,127
85778,note_on,0,0,0,,11,,,70,127
85778,note_on,0,0,0,,1,,,73,127
86167,note_off,389,0,0,,1,,,73,127
86167,note_off,0,0,0,,11,,,70,127
86167,note_off,0,0,0,,5,,,65,127
86168,note_on,1,0,0,,8,,,68,127
86168,note_on,0,0,0,,5,,,65,127
86168,note_on,0,0,0,,0,,,72,127
86557,note_off,389,0,0,,0,,,72,127
86557,note_off,0,0,0,,5,,,65,127
86557,note_off,0,0,0,,8,,,68,127
86558,note_on,1,0,0,,5,,,65,127
86558,note_on,0,0,0,,6,,,66,127
86558,note_on,0,0,0,,10,,,69,127
86558,note_on,0,0,0,,10,,,81,127
86947,note_off,389,0,0,,6,,,66,127
86947,note_off,0,0,0,,5,,,65,127
86948,note_on,1,0,0,,3,,,63,127
86948,note_on,0,0,0,,6,,,66,127
87337,note_off,389,0,0,,6,,,66,127
87337,note_off,0,0,0,,3,,,63,127
87337,note_off,0,0,0,,10,,,81,127
87337,note_off,0,0,0,,10,,,69,127
87338,note_on,1,0,0,,1,,,61,127
87338,note_on,0,0,0,,5,,,65,127
87338,note_on,0,0,0,,11,,,70,127
87532,note_off,194,0,0,,11,,,70,127
87533,note_on,1,0,0,,11,,,82,127
87727,note_off,194,0,0,,11,,,82,127
87727,note_off,0,0,0,,5,,,65,127
87727,note_off,0,0,0,,1,,,61,127
87728,note_on,1,0,0,,0,,,60,127
87728,note_on,0,0,0,,3,,,63,127
87728,note_on,0,0,0,,0,,,72,127
87922,note_off,194,0,0,,0,,,72,127
87923,note_on,1,0,0,,0,,,84,127
88117,note_off,194,0,0,,0,,,84,127
88117,note_off,0,0,0,,3,,,63,127
88117,note_off,0,0,0,,0,,,60,127
88118,note_on,1,0,0,,11,,,58,127
88118,note_on,0,0,0,,1,,,61,127
88118,note_on,0,0,0,,1,,,85,127
88312,note_off,194,0,0,,1,,,85,127
88313,note_on,1,0,0,,4,,,76,127
88507,note_off,194,0,0,,1,,,61,127
88507,note_off,0,0,0,,11,,,58,127
88508,note_on,1,0,0,,11,,,58,127
88508,note_on,0,0,0,,7,,,67,127
88702,note_off,194,0,0,,4,,,76,127
88703,note_on,1,0,0,,1,,,85,127
88897,note_off,194,0,0,,7,,,67,127
88897,note_off,0,0,0,,11,,,58,127
88898,note_on,1,0,0,,8,,,56,127
88898,note_on,0,0,0,,5,,,65,127
89092,note_off,194,0,0,,1,,,85,127
89093,note_on,1,0,0,,0,,,84,127
89287,note_off,194,0,0,,5,,,65,127
89287,note_off,0,0,0,,8,,,56,127
89288,note_on,1,0,0,,7,,,55,127
89288,note_on,0,0,0,,4,,,64,127
89482,note_off,194,0,0,,0,,,84,127
89483,note_on,1,0,0,,11,,,82,127
89677,note_off,194,0,0,,11,,,82,127
89677,note_off,0,0,0,,4,,,64,127
89677,note_off,0,0,0,,7,,,55,127
89678,note_on,1,0,0,,5,,,65,127
89678,note_on,0,0,0,,8,,,56,127
89678,note_on,0,0,0,,8,,,80,127
89807,note_off,129,0,0,,8,,,80,127
89808,note_on,1,0,0,,11,,,82,127
89937,note_off,129,0,0,,11,,,82,127
89938,note_on,1,0,0,,0,,,84,127
90067,note_off,129,0,0,,0,,,84,127
90067,note_off,0,0,0,,8,,,56,127
90067,note_off,0,0,0,,5,,,65,127
90068,note_on,1,0,0,,11,,,58,127
90068,note_on,0,0,0,,7,,,67,127
90068,note_on,0,0,0,,11,,,82,127
90197,note_off,129,0,0,,11,,,82,127
90198,note_on,1,0,0,,8,,,80,127
90327,note_off,129,0,0,,8,,,80,127
90328,note_on,1,0,0,,7,,,79,127
90457,note_off,129,0,0,,7,,,79,127
90457,note_off,0,0,0,,7,,,67,127
90457,note_off,0,0,0,,11,,,58,127
90458,note_on,1,0,0,,0,,,60,127
90458,note_on,0,0,0,,8,,,68,127
90458,note_on,0,0,0,,5,,,77,127
90847,note_off,389,0,0,,5,,,77,127
90847,note_off,0,0,0,,8,,,68,127
90847,note_off,0,0,0,,0,,,60,127
90848,note_on,1,0,0,,0,,,60,127
90848,note_on,0,0,0,,7,,,67,127
90848,note_on,0,0,0,,5,,,77,127
90945,note_off,97,0,0,,5,,,77,127
90946,note_on,1,0,0,,4,,,76,127
91043,note_off,97,0,0,,4,,,76,127
91044,note_on,1,0,0,,2,,,74,127
91141,note_off,97,0,0,,2,,,74,127
91142,note_on,1,0,0,,4,,,76,127
91239,note_off,97,0,0,,4,,,76,127
91239,note_off,0,0,0,,7,,,67,127
91239,note_off,0,0,0,,0,,,60,127
91240,note_on,1,0,0,,5,,,53,127
91240,note_on,0,0,0,,5,,,65,127
91240,note_on,0,0,0,,5,,,77,127
91629,note_off,389,0,0,,5,,,77,127
91630,note_on,1,0,0,,8,,,80,127
91630,note_on,0,0,0,,11,,,82,127
91759,note_off,129,0,0,,11,,,82,127
91759,note_off,0,0,0,,8,,,80,127
91760,note_on,1,0,0,,7,,,79,127
91889,note_off,129,0,0,,7,,,79,127
91890,note_on,1,0,0,,5,,,77,127
92019,note_off,129,0,0,,5,,,77,127
92019,note_off,0,0,0,,5,,,65,127
92019,note_off,0,0,0,,5,,,53,127
92020,note_on,1,0,0,,11,,,58,127
92020,note_on,0,0,0,,11,,,70,127
92020,note_on,0,0,0,,4,,,76,127
92020,note_on,0,0,0,,7,,,79,127
92214,note_off,194,0,0,,7,,,79,127
92215,note_on,1,0,0,,7,,,79,127
92409,note_off,194,0,0,,7,,,79,127
92409,note_off,0,0,0,,11,,,70,127
92409,note_off,0,0,0,,11,,,58,127
92410,note_on,1,0,0,,0,,,60,127
92410,note_on,0,0,0,,11,,,70,127
92410,note_on,0,0,0,,7,,,79,127
92604,note_off,194,0,0,,7,,,79,127
92605,note_on,1,0,0,,7,,,79,127
92799,note_off,194,0,0,,7,,,79,127
92799,note_off,0,0,0,,11,,,70,127
92799,note_off,0,0,0,,0,,,60,127
92799,note_off,0,0,0,,4,,,76,127
92800,note_on,1,0,0,,1,,,61,127
92800,note_on,0,0,0,,11,,,70,127
92800,note_on,0,0,0,,4,,,76,127
92800,note_on,0,0,0,,7,,,79,127
92994,note_off,194,0,0,,7,,,79,127
92995,note_on,1,0,0,,7,,,79,127
93189,note_off,194,0,0,,7,,,79,127
93189,note_off,0,0,0,,11,,,70,127
93189,note_off,0,0,0,,1,,,61,127
93190,note_on,1,0,0,,11,,,58,127
93190,note_on,0,0,0,,11,,,70,127
93190,note_on,0,0,0,,8,,,80,127
93319,note_off,129,0,0,,8,,,80,127
93320,note_on,1,0,0,,7,,,79,127
93449,note_off,129,0,0,,7,,,79,127
93450,note_on,1,0,0,,5,,,77,127
93579,note_off,129,0,0,,5,,,77,127
93579,note_off,0,0,0,,11,,,70,127
93579,note_off,0,0,0,,11,,,58,127
93579,note_off,0,0,0,,4,,,76,127
93580,note_on,1,0,0,,11,,,58,127
93580,note_on,0,0,0,,11,,,70,127
93580,note_on,0,0,0,,7,,,79,127
93580,note_on,0,0,0,,4,,,76,127
93774,note_off,194,0,0,,7,,,79,127
93775,note_on,1,0,0,,7,,,79,127
93969,note_off,194,0,0,,7,,,79,127
93969,note_off,0,0,0,,11,,,70,127
93969,note_off,0,0,0,,11,,,58,127
93970,note_on,1,0,0,,0,,,60,127
93970,note_on,0,0,0,,11,,,70,127
93970,note_on,0,0,0,,7,,,79,127
94164,note_off,194,0,0,,7,,,79,127
94165,note_on,1,0,0,,7,,,79,127
94359,note_off,194,0,0,,7,,,79,127
94359,note_off,0,0,0,,11,,,70,127
94359,note_off,0,0,0,,0,,,60,127
94359,note_off,0,0,0,,4,,,76,127
94360,note_on,1,0,0,,11,,,70,127
94360,note_on,0,0,0,,1,,,61,127
94360,note_on,0,0,0,,4,,,76,127
94360,note_on,0,0,0,,7,,,79,127
94489,note_off,129,0,0,,7,,,79,127
94489,note_off,0,0,0,,4,,,76,127
94490,note_on,1,0,0,,1,,,85,127
94619,note_off,129,0,0,,1,,,85,127
94620,note_on,1,0,0,,0,,,84,127
94749,note_off,129,0,0,,0,,,84,127
94749,note_off,0,0,0,,1,,,61,127
94749,note_off,0,0,0,,11,,,70,127
94750,note_on,1,0,0,,11,,,58,127
94750,note_on,0,0,0,,11,,,70,127
94750,note_on,0,0,0,,11,,,82,127
94879,note_off,129,0,0,,11,,,82,127
94880,note_on,1,0,0,,8,,,80,127
95009,note_off,129,0,0,,8,,,80,127
95010,note_on,1,0,0,,7,,,79,127
95139,note_off,129,0,0,,7,,,79,127
95139,note_off,0,0,0,,11,,,70,127
95139,note_off,0,0,0,,11,,,58,127
95140,note_on,1,0,0,,0,,,60,127
95140,note_on,0,0,0,,8,,,68,127
95140,note_on,0,0,0,,5,,,77,127
95529,note_off,389,0,0,,5,,,77,127
95529,note_off,0,0,0,,8,,,68,127
95529,note_off,0,0,0,,0,,,60,127
95530,note_on,1,0,0,,0,,,60,127
95530,note_on,0,0,0,,7,,,67,127
95530,note_on,0,0,0,,5,,,77,127
95627,note_off,97,0,0,,5,,,77,127
95628,note_on,1,0,0,,4,,,76,127
95725,note_off,97,0,0,,4,,,76,127
95726,note_on,1,0,0,,2,,,74,127
95823,note_off,97,0,0,,2,,,74,127
95824,note_on,1,0,0,,4,,,76,127
95921,note_off,97,0,0,,4,,,76,127
95921,note_off,0,0,0,,7,,,67,127
95921,note_off,0,0,0,,0,,,60,127
95922,note_on,1,0,0,,5,,,53,127
95922,note_on,0,0,0,,5,,,65,127
95922,note_on,0,0,0,,5,,,77,127
96311,note_off,389,0,0,,5,,,77,127
96311,note_off,0,0,0,,5,,,65,127
96311,note_off,0,0,0,,5,,,53,127
96312,note_on,1,0,0,,8,,,56,127
96312,note_on,0,0,0,,5,,,65,127
96312,note_on,0,0,0,,8,,,68,127
96312,note_on,0,0,0,,5,,,77,127
96441,note_off,129,0,0,,8,,,68,127
96442,note_on,1,0,0,,7,,,67,127
96566,note_off,124,0,0,,5,,,65,127
96571,note_off,5,0,0,,7,,,67,127
96572,note_on,1,0,0,,5,,,65,127
96701,note_off,129,0,0,,5,,,65,127
96701,note_off,0,0,0,,8,,,56,127
96702,note_on,1,0,0,,11,,,58,127
96702,note_on,0,0,0,,5,,,65,127
96702,note_on,0,0,0,,7,,,67,127
96896,note_off,194,0,0,,7,,,67,127
96897,note_on,1,0,0,,7,,,67,127
97091,note_off,194,0,0,,7,,,67,127
97091,note_off,0,0,0,,5,,,65,127
97091,note_off,0,0,0,,11,,,58,127
97091,note_off,0,0,0,,5,,,77,127
97092,note_on,1,0,0,,0,,,60,127
97092,note_on,0,0,0,,5,,,65,127
97092,note_on,0,0,0,,5,,,77,127
97092,note_on,0,0,0,,7,,,67,127
97286,note_off,194,0,0,,7,,,67,127
97287,note_on,1,0,0,,7,,,67,127
97481,note_off,194,0,0,,7,,,67,127
97481,note_off,0,0,0,,5,,,65,127
97481,note_off,0,0,0,,0,,,60,127
97482,note_on,1,0,0,,1,,,61,127
97482,note_on,0,0,0,,5,,,65,127
97482,note_on,0,0,0,,7,,,67,127
97676,note_off,194,0,0,,7,,,67,127
97677,note_on,1,0,0,,7,,,67,127
97871,note_off,194,0,0,,7,,,67,127
97871,note_off,0,0,0,,5,,,65,127
97871,note_off,0,0,0,,1,,,61,127
97871,note_off,0,0,0,,5,,,77,127
97872,note_on,1,0,0,,5,,,65,127
97872,note_on,0,0,0,,8,,,56,127
97872,note_on,0,0,0,,5,,,77,127
97872,note_on,0,0,0,,8,,,68,127
98001,note_off,129,0,0,,8,,,68,127
98002,note_on,1,0,0,,7,,,67,127
98126,note_off,124,0,0,,5,,,65,127
98131,note_off,5,0,0,,7,,,67,127
98132,note_on,1,0,0,,5,,,65,127
98261,note_off,129,0,0,,5,,,65,127
98261,note_off,0,0,0,,8,,,56,127
98262,note_on,1,0,0,,5,,,65,127
98262,note_on,0,0,0,,11,,,58,127
98262,note_on,0,0,0,,7,,,67,127
98456,note_off,194,0,0,,7,,,67,127
98457,note_on,1,0,0,,7,,,67,127
98651,note_off,194,0,0,,7,,,67,127
98651,note_off,0,0,0,,11,,,58,127
98651,note_off,0,0,0,,5,,,65,127
98651,note_off,0,0,0,,5,,,77,127
98652,note_on,1,0,0,,0,,,60,127
98652,note_on,0,0,0,,5,,,65,127
98652,note_on,0,0,0,,5,,,77,127
98652,note_on,0,0,0,,7,,,67,127
98846,note_off,194,0,0,,7,,,67,127
98847,note_on,1,0,0,,7,,,67,127
99041,note_off,194,0,0,,7,,,67,127
99041,note_off,0,0,0,,5,,,65,127
99041,note_off,0,0,0,,0,,,60,127
99042,note_on,1,0,0,,1,,,61,127
99042,note_on,0,0,0,,5,,,65,127
99042,note_on,0,0,0,,7,,,67,127
99170,note_off,128,0,0,,5,,,77,127
99171,note_off,1,0,0,,7,,,67,127
99172,note_on,1,0,0,,7,,,79,127
99301,note_off,129,0,0,,7,,,79,127
99302,note_on,1,0,0,,8,,,80,127
99431,note_off,129,0,0,,8,,,80,127
99431,note_off,0,0,0,,5,,,65,127
99431,note_off,0,0,0,,1,,,61,127
99432,note_on,1,0,0,,11,,,58,127
99432,note_on,0,0,0,,11,,,70,127
99432,note_on,0,0,0,,11,,,82,127
99432,note_on,0,0,0,,0,,,84,127
99432,note_on,0,0,0,,1,,,73,127
99561,note_off,129,0,0,,0,,,84,127
99561,note_off,0,0,0,,11,,,82,127
99562,note_on,1,0,0,,8,,,80,127
99691,note_off,129,0,0,,8,,,80,127
99692,note_on,1,0,0,,7,,,79,127
99821,note_off,129,0,0,,7,,,79,127
99821,note_off,0,0,0,,1,,,73,127
99821,note_off,0,0,0,,11,,,70,127
99821,note_off,0,0,0,,11,,,58,127
99822,note_on,1,0,0,,8,,,68,127
99822,note_on,0,0,0,,0,,,60,127
99822,note_on,0,0,0,,5,,,77,127
99822,note_on,0,0,0,,0,,,72,127
100211,note_off,389,0,0,,5,,,77,127
100211,note_off,0,0,0,,0,,,60,127
100211,note_off,0,0,0,,8,,,68,127
100212,note_on,1,0,0,,0,,,60,127
100212,note_on,0,0,0,,7,,,67,127
100212,note_on,0,0,0,,5,,,77,127
100309,note_off,97,0,0,,5,,,77,127
100310,note_on,1,0,0,,4,,,76,127
100407,note_off,97,0,0,,4,,,76,127
100408,note_on,1,0,0,,2,,,74,127
100505,note_off,97,0,0,,2,,,74,127
100506,note_on,1,0,0,,4,,,76,127
100603,note_off,97,0,0,,4,,,76,127
100603,note_off,0,0,0,,7,,,67,127
100603,note_off,0,0,0,,0,,,60,127
100603,note_off,0,0,0,,0,,,72,127
100604,note_on,1,0,0,,5,,,65,127
100604,note_on,0,0,0,,1,,,61,127
100604,note_on,0,0,0,,5,,,77,127
100733,note_off,129,0,0,,5,,,77,127
100734,note_on,1,0,0,,0,,,72,127
100863,note_off,129,0,0,,0,,,72,127
100864,note_on,1,0,0,,3,,,75,127
100993,note_off,129,0,0,,3,,,75,127
100993,note_off,0,0,0,,1,,,61,127
100994,note_on,1,0,0,,11,,,58,127
100994,note_on,0,0,0,,1,,,73,127
101123,note_off,129,0,0,,1,,,73,127
101124,note_on,1,0,0,,7,,,67,127
101253,note_off,129,0,0,,7,,,67,127
101254,note_on,1,0,0,,11,,,70,127
101383,note_off,129,0,0,,11,,,70,127
101383,note_off,0,0,0,,11,,,58,127
101383,note_off,0,0,0,,5,,,65,127
101384,note_on,1,0,0,,0,,,60,127
101384,note_on,0,0,0,,5,,,65,127
101384,note_on,0,0,0,,8,,,68,127
101773,note_off,389,0,0,,8,,,68,127
101773,note_off,0,0,0,,5,,,65,127
101773,note_off,0,0,0,,0,,,60,127
101774,note_on,1,0,0,,0,,,48,127
101774,note_on,0,0,0,,4,,,64,127
101774,note_on,0,0,0,,8,,,68,127
101871,note_off,97,0,0,,8,,,68,127
101872,note_on,1,0,0,,7,,,67,127
101969,note_off,97,0,0,,7,,,67,127
101970,note_on,1,0,0,,5,,,65,127
102067,note_off,97,0,0,,5,,,65,127
102068,note_on,1,0,0,,7,,,67,127
102162,note_off,94,0,0,,4,,,64,127
102165,note_off,3,0,0,,7,,,67,127
102165,note_off,0,0,0,,0,,,48,127
102167,note_on,2,0,0,,5,,,65,127
102167,note_on,0,0,0,,1,,,49,127
102299,note_off,132,0,0,,5,,,65,127
102301,note_on,2,0,0,,0,,,60,127
102433,note_off,132,0,0,,0,,,60,127
102435,note_on,2,0,0,,3,,,63,127
102567,note_off,132,0,0,,3,,,63,127
102567,note_off,0,0,0,,1,,,49,127
102569,note_on,2,0,0,,1,,,61,127
102569,note_on,0,0,0,,11,,,46,127
102701,note_off,132,0,0,,1,,,61,127
102702,note_on,1,0,0,,7,,,55,127
102834,note_off,132,0,0,,7,,,55,127
102836,note_on,2,0,0,,11,,,58,127
102968,note_off,132,0,0,,11,,,58,127
102969,note_off,1,0,0,,11,,,46,127
102970,note_on,1,0,0,,8,,,56,127
102970,note_on,0,0,0,,5,,,53,127
102970,note_on,0,0,0,,0,,,48,127
103371,note_off,401,0,0,,0,,,48,127
103371,note_off,0,0,0,,5,,,53,127
103371,note_off,0,0,0,,8,,,56,127
103373,note_on,2,0,0,,8,,,56,127
103373,note_on,0,0,0,,4,,,52,127
103373,note_on,0,0,0,,0,,,36,127
103472,note_off,99,0,0,,8,,,56,127
103474,note_on,2,0,0,,7,,,55,127
103573,note_off,99,0,0,,7,,,55,127
103574,note_on,1,0,0,,5,,,53,127
103673,note_off,99,0,0,,5,,,53,127
103675,note_on,2,0,0,,7,,,55,127
103772,note_off,97,0,0,,4,,,52,127
103774,note_off,2,0,0,,7,,,55,127
103775,note_off,1,0,0,,0,,,36,127
103797,note_on,22,0,0,,5,,,53,127
103797,note_on,0,0,0,,5,,,41,127
105908,note_off,2111,0,0,,5,,,41,127
105908,note_off,0,0,0,,5,,,53,127
112128,end_of_track,6220,1,0,,,,,,
