tick,type,time,meta,track,program,channel,pitch,tempo,note,velocity
0,copyright,0,1,0,,,,,,
0,program_change,0,0,0,6,0,,,,
0,pitchwheel,0,0,0,,0,0,,,
0,program_change,0,0,0,6,1,,,,
0,pitchwheel,0,0,0,,1,-590,,,
0,program_change,0,0,0,6,2,,,,
0,pitchwheel,0,0,0,,2,-272,,,
0,program_change,0,0,0,6,3,,,,
0,pitchwheel,0,0,0,,3,-353,,,
0,program_change,0,0,0,6,4,,,,
0,pitchwheel,0,0,0,,4,-560,,,
0,program_change,0,0,0,6,5,,,,
0,pitchwheel,0,0,0,,5,-80,,,
0,program_change,0,0,0,6,6,,,,
0,pitchwheel,0,0,0,,6,-625,,,
0,program_change,0,0,0,6,7,,,,
0,pitchwheel,0,0,0,,7,-130,,,
0,program_change,0,0,0,6,8,,,,
0,pitchwheel,0,0,0,,8,-512,,,
0,program_change,0,0,0,6,10,,,,
0,pitchwheel,0,0,0,,10,-464,,,
0,program_change,0,0,0,6,11,,,,
0,pitchwheel,0,0,0,,11,-208,,,
0,program_change,0,0,0,6,12,,,,
0,pitchwheel,0,0,0,,12,-553,,,
0,set_tempo,0,1,0,,,,500000,,
37,note_on,37,0,0,,5,,,41,127
286,note_on,249,0,0,,0,,,84,127
381,note_on,95,0,0,,10,,,81,127
392,note_off,11,0,0,,0,,,84,127
477,note_on,85,0,0,,5,,,77,127
487,note_off,10,0,0,,10,,,81,127
572,note_on,85,0,0,,0,,,72,127
583,note_off,11,0,0,,5,,,77,127
668,note_on,85,0,0,,10,,,69,127
678,note_off,10,0,0,,0,,,72,127
692,note_off,14,0,0,,5,,,41,127
763,note_on,71,0,0,,5,,,65,127
774,note_off,11,0,0,,10,,,69,127
859,note_on,85,0,0,,0,,,60,127
869,note_off,10,0,0,,5,,,65,127
954,note_on,85,0,0,,10,,,57,127
965,note_off,11,0,0,,0,,,60,127
1050,note_on,85,0,0,,5,,,53,127
1060,note_off,10,0,0,,10,,,57,127
1145,note_on,85,0,0,,0,,,48,127
1156,note_off,11,0,0,,5,,,53,127
1241,note_on,85,0,0,,10,,,45,127
1251,note_off,10,0,0,,0,,,48,127
1336,note_on,85,0,0,,5,,,41,127
1347,note_off,11,0,0,,10,,,45,127
2085,note_off,738,0,0,,5,,,41,127
2304,note_on,219,0,0,,5,,,77,127
2413,note_off,109,0,0,,5,,,77,127
2414,note_on,1,0,0,,0,,,72,127
2523,note_off,109,0,0,,0,,,72,127
2524,note_on,1,0,0,,11,,,82,127
2742,note_off,218,0,0,,11,,,82,127
2743,note_on,1,0,0,,10,,,81,127
2743,note_on,0,0,0,,5,,,65,127
2852,note_off,109,0,0,,5,,,65,127
2853,note_on,1,0,0,,0,,,60,127
2962,note_off,109,0,0,,0,,,60,127
2963,note_on,1,0,0,,11,,,70,127
3181,note_off,218,0,0,,10,,,81,127
3182,note_on,1,0,0,,7,,,79,127
3291,note_off,109,0,0,,7,,,79,127
3292,note_on,1,0,0,,2,,,74,127
3401,note_off,109,0,0,,2,,,74,127
3402,note_on,1,0,0,,4,,,76,127
3620,note_off,218,0,0,,4,,,76,127
3620,note_off,0,0,0,,11,,,70,127
3621,note_on,1,0,0,,5,,,77,127
3621,note_on,0,0,0,,10,,,69,127
3839,note_off,218,0,0,,10,,,69,127
3840,note_on,1,0,0,,7,,,67,127
3949,note_off,109,0,0,,5,,,77,127
3950,note_on,1,0,0,,4,,,76,127
4059,note_off,109,0,0,,4,,,76,127
4059,note_off,0,0,0,,7,,,67,127
4060,note_on,1,0,0,,4,,,76,127
4060,note_on,0,0,0,,5,,,65,127
4169,note_off,109,0,0,,4,,,76,127
4170,note_on,1,0,0,,2,,,74,127
4279,note_off,109,0,0,,2,,,74,127
4279,note_off,0,0,0,,5,,,65,127
4280,note_on,1,0,0,,2,,,74,127
4280,note_on,0,0,0,,4,,,64,127
4389,note_off,109,0,0,,2,,,74,127
4390,note_on,1,0,0,,0,,,72,127
4499,note_off,109,0,0,,0,,,72,127
4499,note_off,0,0,0,,4,,,64,127
4500,note_on,1,0,0,,0,,,72,127
4500,note_on,0,0,0,,0,,,60,127
4609,note_off,109,0,0,,0,,,72,127
4610,note_on,1,0,0,,11,,,70,127
4719,note_off,109,0,0,,11,,,70,127
4719,note_off,0,0,0,,0,,,60,127
4720,note_on,1,0,0,,11,,,70,127
4720,note_on,0,0,0,,2,,,62,127
4829,note_off,109,0,0,,11,,,70,127
4830,note_on,1,0,0,,10,,,69,127
4939,note_off,109,0,0,,10,,,69,127
4939,note_off,0,0,0,,2,,,62,127
4940,note_on,1,0,0,,10,,,69,127
4940,note_on,0,0,0,,4,,,64,127
5049,note_off,109,0,0,,10,,,69,127
5050,note_on,1,0,0,,7,,,67,127
5159,note_off,109,0,0,,7,,,67,127
5159,note_off,0,0,0,,4,,,64,127
5160,note_on,1,0,0,,10,,,69,127
5160,note_on,0,0,0,,5,,,65,127
5343,note_off,183,0,0,,10,,,69,127
5378,note_off,35,0,0,,5,,,65,127
5379,note_on,1,0,0,,5,,,77,127
5379,note_on,0,0,0,,10,,,69,127
5597,note_off,218,0,0,,10,,,69,127
5598,note_on,1,0,0,,7,,,67,127
5707,note_off,109,0,0,,5,,,77,127
5708,note_on,1,0,0,,4,,,76,127
5817,note_off,109,0,0,,4,,,76,127
5817,note_off,0,0,0,,7,,,67,127
5818,note_on,1,0,0,,4,,,76,127
5818,note_on,0,0,0,,5,,,65,127
5927,note_off,109,0,0,,4,,,76,127
5928,note_on,1,0,0,,2,,,74,127
6037,note_off,109,0,0,,2,,,74,127
6037,note_off,0,0,0,,5,,,65,127
6038,note_on,1,0,0,,2,,,74,127
6038,note_on,0,0,0,,4,,,64,127
6147,note_off,109,0,0,,2,,,74,127
6148,note_on,1,0,0,,0,,,72,127
6257,note_off,109,0,0,,0,,,72,127
6257,note_off,0,0,0,,4,,,64,127
6258,note_on,1,0,0,,0,,,72,127
6258,note_on,0,0,0,,0,,,60,127
6367,note_off,109,0,0,,0,,,72,127
6368,note_on,1,0,0,,11,,,70,127
6477,note_off,109,0,0,,11,,,70,127
6477,note_off,0,0,0,,0,,,60,127
6478,note_on,1,0,0,,11,,,70,127
6478,note_on,0,0,0,,2,,,62,127
6587,note_off,109,0,0,,11,,,70,127
6588,note_on,1,0,0,,10,,,69,127
6697,note_off,109,0,0,,10,,,69,127
6697,note_off,0,0,0,,2,,,62,127
6698,note_on,1,0,0,,10,,,69,127
6698,note_on,0,0,0,,4,,,64,127
6807,note_off,109,0,0,,10,,,69,127
6808,note_on,1,0,0,,7,,,67,127
6917,note_off,109,0,0,,7,,,67,127
6917,note_off,0,0,0,,4,,,64,127
6918,note_on,1,0,0,,10,,,69,127
6918,note_on,0,0,0,,5,,,65,127
7135,note_off,217,0,0,,10,,,69,127
7136,note_off,1,0,0,,5,,,65,127
7137,note_on,1,0,0,,10,,,57,127
7247,note_on,110,0,0,,0,,,60,127
7356,note_off,109,0,0,,0,,,60,127
7356,note_off,0,0,0,,10,,,57,127
7357,note_on,1,0,0,,2,,,62,127
7357,note_on,0,0,0,,11,,,58,127
7466,note_off,109,0,0,,2,,,62,127
7467,note_on,1,0,0,,5,,,65,127
7576,note_off,109,0,0,,5,,,65,127
7576,note_off,0,0,0,,11,,,58,127
7577,note_on,1,0,0,,4,,,64,127
7577,note_on,0,0,0,,7,,,55,127
7686,note_off,109,0,0,,4,,,64,127
7687,note_on,1,0,0,,7,,,67,127
7796,note_off,109,0,0,,7,,,55,127
7797,note_on,1,0,0,,10,,,57,127
7870,note_off,73,0,0,,7,,,67,127
7907,note_on,37,0,0,,5,,,65,127
8016,note_off,109,0,0,,10,,,57,127
8017,note_on,1,0,0,,5,,,53,127
8126,note_off,109,0,0,,5,,,65,127
8127,note_on,1,0,0,,0,,,60,127
8236,note_off,109,0,0,,0,,,60,127
8236,note_off,0,0,0,,5,,,53,127
8237,note_on,1,0,0,,2,,,62,127
8237,note_on,0,0,0,,11,,,58,127
8346,note_off,109,0,0,,2,,,62,127
8347,note_on,1,0,0,,5,,,65,127
8456,note_off,109,0,0,,5,,,65,127
8456,note_off,0,0,0,,11,,,58,127
8457,note_on,1,0,0,,4,,,64,127
8457,note_on,0,0,0,,7,,,55,127
8566,note_off,109,0,0,,4,,,64,127
8567,note_on,1,0,0,,7,,,67,127
8676,note_off,109,0,0,,7,,,55,127
8677,note_on,1,0,0,,10,,,57,127
8750,note_off,73,0,0,,7,,,67,127
8787,note_on,37,0,0,,5,,,65,127
8896,note_off,109,0,0,,10,,,57,127
8897,note_on,1,0,0,,12,,,59,127
9006,note_off,109,0,0,,5,,,65,127
9007,note_on,1,0,0,,2,,,62,127
9116,note_off,109,0,0,,2,,,62,127
9116,note_off,0,0,0,,12,,,59,127
9117,note_on,1,0,0,,4,,,64,127
9117,note_on,0,0,0,,0,,,60,127
9226,note_off,109,0,0,,4,,,64,127
9227,note_on,1,0,0,,7,,,67,127
9336,note_off,109,0,0,,7,,,67,127
9336,note_off,0,0,0,,0,,,60,127
9337,note_on,1,0,0,,6,,,66,127
9337,note_on,0,0,0,,10,,,57,127
9446,note_off,109,0,0,,6,,,66,127
9447,note_on,1,0,0,,10,,,69,127
9556,note_off,109,0,0,,10,,,57,127
9557,note_on,1,0,0,,12,,,59,127
9630,note_off,73,0,0,,10,,,69,127
9667,note_on,37,0,0,,7,,,67,127
9776,note_off,109,0,0,,12,,,59,127
9777,note_on,1,0,0,,7,,,55,127
9886,note_off,109,0,0,,7,,,67,127
9887,note_on,1,0,0,,2,,,62,127
9996,note_off,109,0,0,,2,,,62,127
9996,note_off,0,0,0,,7,,,55,127
9997,note_on,1,0,0,,4,,,64,127
9997,note_on,0,0,0,,0,,,60,127
10106,note_off,109,0,0,,4,,,64,127
10107,note_on,1,0,0,,7,,,67,127
10216,note_off,109,0,0,,7,,,67,127
10216,note_off,0,0,0,,0,,,60,127
10217,note_on,1,0,0,,6,,,66,127
10217,note_on,0,0,0,,10,,,57,127
10326,note_off,109,0,0,,6,,,66,127
10327,note_on,1,0,0,,10,,,69,127
10436,note_off,109,0,0,,10,,,57,127
10437,note_on,1,0,0,,12,,,59,127
10510,note_off,73,0,0,,10,,,69,127
10547,note_on,37,0,0,,7,,,67,127
10656,note_off,109,0,0,,12,,,59,127
10657,note_on,1,0,0,,1,,,61,127
10766,note_off,109,0,0,,7,,,67,127
10767,note_on,1,0,0,,4,,,64,127
10876,note_off,109,0,0,,4,,,64,127
10876,note_off,0,0,0,,1,,,61,127
10877,note_on,1,0,0,,6,,,66,127
10877,note_on,0,0,0,,2,,,62,127
10986,note_off,109,0,0,,6,,,66,127
10987,note_on,1,0,0,,10,,,69,127
11096,note_off,109,0,0,,10,,,69,127
11096,note_off,0,0,0,,2,,,62,127
11097,note_on,1,0,0,,8,,,68,127
11097,note_on,0,0,0,,12,,,59,127
11206,note_off,109,0,0,,8,,,68,127
11207,note_on,1,0,0,,12,,,71,127
11316,note_off,109,0,0,,12,,,59,127
11317,note_on,1,0,0,,0,,,60,127
11390,note_off,73,0,0,,12,,,71,127
11427,note_on,37,0,0,,10,,,69,127
11536,note_off,109,0,0,,0,,,60,127
11537,note_on,1,0,0,,10,,,57,127
11646,note_off,109,0,0,,10,,,69,127
11647,note_on,1,0,0,,4,,,64,127
11756,note_off,109,0,0,,4,,,64,127
11756,note_off,0,0,0,,10,,,57,127
11757,note_on,1,0,0,,6,,,66,127
11757,note_on,0,0,0,,2,,,62,127
11866,note_off,109,0,0,,6,,,66,127
11867,note_on,1,0,0,,10,,,69,127
11976,note_off,109,0,0,,10,,,69,127
11976,note_off,0,0,0,,2,,,62,127
11977,note_on,1,0,0,,8,,,68,127
11977,note_on,0,0,0,,12,,,59,127
12086,note_off,109,0,0,,8,,,68,127
12087,note_on,1,0,0,,12,,,71,127
12193,note_off,106,0,0,,12,,,71,127
12195,note_off,2,0,0,,12,,,59,127
12196,note_on,1,0,0,,12,,,71,127
12196,note_on,0,0,0,,0,,,60,127
12305,note_off,109,0,0,,12,,,71,127
12306,note_on,1,0,0,,10,,,69,127
12415,note_off,109,0,0,,10,,,69,127
12415,note_off,0,0,0,,0,,,60,127
12416,note_on,1,0,0,,10,,,81,127
12416,note_on,0,0,0,,10,,,57,127
12525,note_off,109,0,0,,10,,,81,127
12526,note_on,1,0,0,,7,,,79,127
12635,note_off,109,0,0,,7,,,79,127
12635,note_off,0,0,0,,10,,,57,127
12636,note_on,1,0,0,,7,,,79,127
12636,note_on,0,0,0,,2,,,74,127
12745,note_off,109,0,0,,7,,,79,127
12746,note_on,1,0,0,,5,,,77,127
12855,note_off,109,0,0,,5,,,77,127
12855,note_off,0,0,0,,2,,,74,127
12856,note_on,1,0,0,,5,,,77,127
12856,note_on,0,0,0,,0,,,72,127
12965,note_off,109,0,0,,5,,,77,127
12966,note_on,1,0,0,,4,,,76,127
13075,note_off,109,0,0,,4,,,76,127
13075,note_off,0,0,0,,0,,,72,127
13076,note_on,1,0,0,,4,,,76,127
13076,note_on,0,0,0,,12,,,71,127
13185,note_off,109,0,0,,4,,,76,127
13186,note_on,1,0,0,,2,,,74,127
13295,note_off,109,0,0,,2,,,74,127
13295,note_off,0,0,0,,12,,,71,127
13296,note_on,1,0,0,,2,,,74,127
13296,note_on,0,0,0,,10,,,69,127
13405,note_off,109,0,0,,2,,,74,127
13406,note_on,1,0,0,,0,,,72,127
13515,note_off,109,0,0,,0,,,72,127
13515,note_off,0,0,0,,10,,,69,127
13516,note_on,1,0,0,,0,,,72,127
13516,note_on,0,0,0,,7,,,67,127
13625,note_off,109,0,0,,0,,,72,127
13626,note_on,1,0,0,,12,,,71,127
13735,note_off,109,0,0,,12,,,71,127
13735,note_off,0,0,0,,7,,,67,127
13736,note_on,1,0,0,,12,,,71,127
13736,note_on,0,0,0,,5,,,65,127
13845,note_off,109,0,0,,12,,,71,127
13846,note_on,1,0,0,,10,,,69,127
13955,note_off,109,0,0,,10,,,69,127
13955,note_off,0,0,0,,5,,,65,127
13956,note_on,1,0,0,,10,,,69,127
13956,note_on,0,0,0,,4,,,64,127
14065,note_off,109,0,0,,10,,,69,127
14066,note_on,1,0,0,,7,,,67,127
14175,note_off,109,0,0,,7,,,67,127
14175,note_off,0,0,0,,4,,,64,127
14176,note_on,1,0,0,,7,,,79,127
14176,note_on,0,0,0,,0,,,60,127
14285,note_off,109,0,0,,7,,,79,127
14286,note_on,1,0,0,,5,,,77,127
14395,note_off,109,0,0,,5,,,77,127
14395,note_off,0,0,0,,0,,,60,127
14396,note_on,1,0,0,,5,,,77,127
14396,note_on,0,0,0,,0,,,72,127
14505,note_off,109,0,0,,5,,,77,127
14506,note_on,1,0,0,,4,,,76,127
14615,note_off,109,0,0,,4,,,76,127
14615,note_off,0,0,0,,0,,,72,127
14616,note_on,1,0,0,,4,,,76,127
14616,note_on,0,0,0,,12,,,71,127
14725,note_off,109,0,0,,4,,,76,127
14726,note_on,1,0,0,,2,,,74,127
14835,note_off,109,0,0,,2,,,74,127
14835,note_off,0,0,0,,12,,,71,127
14836,note_on,1,0,0,,2,,,74,127
14836,note_on,0,0,0,,10,,,69,127
14945,note_off,109,0,0,,2,,,74,127
14946,note_on,1,0,0,,0,,,72,127
15055,note_off,109,0,0,,0,,,72,127
15055,note_off,0,0,0,,10,,,69,127
15056,note_on,1,0,0,,0,,,72,127
15056,note_on,0,0,0,,7,,,67,127
15165,note_off,109,0,0,,0,,,72,127
15166,note_on,1,0,0,,12,,,71,127
15275,note_off,109,0,0,,12,,,71,127
15275,note_off,0,0,0,,7,,,67,127
15276,note_on,1,0,0,,12,,,71,127
15276,note_on,0,0,0,,5,,,65,127
15385,note_off,109,0,0,,12,,,71,127
15386,note_on,1,0,0,,10,,,69,127
15495,note_off,109,0,0,,10,,,69,127
15495,note_off,0,0,0,,5,,,65,127
15496,note_on,1,0,0,,10,,,69,127
15496,note_on,0,0,0,,4,,,64,127
15605,note_off,109,0,0,,10,,,69,127
15606,note_on,1,0,0,,7,,,67,127
15715,note_off,109,0,0,,7,,,67,127
15715,note_off,0,0,0,,4,,,64,127
15716,note_on,1,0,0,,5,,,65,127
15716,note_on,0,0,0,,2,,,62,127
15825,note_off,109,0,0,,5,,,65,127
15826,note_on,1,0,0,,0,,,72,127
15935,note_off,109,0,0,,0,,,72,127
15935,note_off,0,0,0,,2,,,62,127
15936,note_on,1,0,0,,0,,,72,127
15936,note_on,0,0,0,,2,,,62,127
16045,note_off,109,0,0,,0,,,72,127
16046,note_on,1,0,0,,12,,,71,127
16155,note_off,109,0,0,,12,,,71,127
16155,note_off,0,0,0,,2,,,62,127
16156,note_on,1,0,0,,12,,,71,127
16156,note_on,0,0,0,,7,,,67,127
16265,note_off,109,0,0,,12,,,71,127
16266,note_on,1,0,0,,5,,,77,127
16375,note_off,109,0,0,,5,,,77,127
16375,note_off,0,0,0,,7,,,67,127
16376,note_on,1,0,0,,5,,,77,127
16376,note_on,0,0,0,,7,,,67,127
16485,note_off,109,0,0,,5,,,77,127
16486,note_on,1,0,0,,4,,,76,127
16595,note_off,109,0,0,,4,,,76,127
16595,note_off,0,0,0,,7,,,67,127
16596,note_on,1,0,0,,4,,,76,127
16596,note_on,0,0,0,,0,,,60,127
16705,note_off,109,0,0,,4,,,76,127
16706,note_on,1,0,0,,7,,,79,127
16815,note_off,109,0,0,,7,,,79,127
16815,note_off,0,0,0,,0,,,60,127
16816,note_on,1,0,0,,7,,,79,127
16816,note_on,0,0,0,,0,,,60,127
16925,note_off,109,0,0,,7,,,79,127
16926,note_on,1,0,0,,6,,,78,127
17035,note_off,109,0,0,,6,,,78,127
17035,note_off,0,0,0,,0,,,60,127
17036,note_on,1,0,0,,6,,,78,127
17036,note_on,0,0,0,,10,,,57,127
17145,note_off,109,0,0,,6,,,78,127
17146,note_on,1,0,0,,0,,,84,127
17255,note_off,109,0,0,,0,,,84,127
17255,note_off,0,0,0,,10,,,57,127
17256,note_on,1,0,0,,0,,,84,127
17256,note_on,0,0,0,,10,,,57,127
17365,note_off,109,0,0,,0,,,84,127
17366,note_on,1,0,0,,12,,,83,127
17475,note_off,109,0,0,,12,,,83,127
17475,note_off,0,0,0,,10,,,57,127
17476,note_on,1,0,0,,12,,,83,127
17476,note_on,0,0,0,,7,,,55,127
17549,note_off,73,0,0,,12,,,83,127
17586,note_on,37,0,0,,10,,,81,127
17693,note_off,107,0,0,,7,,,55,127
17694,note_off,1,0,0,,10,,,81,127
17695,note_on,1,0,0,,7,,,79,127
17695,note_on,0,0,0,,12,,,71,127
17804,note_off,109,0,0,,7,,,79,127
17805,note_on,1,0,0,,2,,,74,127
17914,note_off,109,0,0,,2,,,74,127
17914,note_off,0,0,0,,12,,,71,127
17915,note_on,1,0,0,,4,,,76,127
17915,note_on,0,0,0,,0,,,72,127
18024,note_off,109,0,0,,4,,,76,127
18025,note_on,1,0,0,,7,,,79,127
18134,note_off,109,0,0,,7,,,79,127
18134,note_off,0,0,0,,0,,,72,127
18135,note_on,1,0,0,,6,,,78,127
18135,note_on,0,0,0,,10,,,69,127
18244,note_off,109,0,0,,6,,,78,127
18245,note_on,1,0,0,,10,,,81,127
18354,note_off,109,0,0,,10,,,69,127
18355,note_on,1,0,0,,12,,,71,127
18428,note_off,73,0,0,,10,,,81,127
18465,note_on,37,0,0,,7,,,79,127
18574,note_off,109,0,0,,12,,,71,127
18575,note_on,1,0,0,,12,,,71,127
18684,note_off,109,0,0,,7,,,79,127
18685,note_on,1,0,0,,2,,,74,127
18794,note_off,109,0,0,,2,,,74,127
18794,note_off,0,0,0,,12,,,71,127
18795,note_on,1,0,0,,4,,,76,127
18795,note_on,0,0,0,,0,,,72,127
18904,note_off,109,0,0,,4,,,76,127
18905,note_on,1,0,0,,7,,,79,127
19014,note_off,109,0,0,,7,,,79,127
19014,note_off,0,0,0,,0,,,72,127
19015,note_on,1,0,0,,6,,,78,127
19015,note_on,0,0,0,,10,,,69,127
19124,note_off,109,0,0,,6,,,78,127
19125,note_on,1,0,0,,10,,,81,127
19234,note_off,109,0,0,,10,,,69,127
19235,note_on,1,0,0,,7,,,67,127
19235,note_on,0,0,0,,12,,,71,127
19308,note_off,73,0,0,,10,,,81,127
19345,note_on,37,0,0,,7,,,79,127
19454,note_off,109,0,0,,12,,,71,127
19454,note_off,0,0,0,,7,,,67,127
19455,note_on,1,0,0,,4,,,64,127
19564,note_off,109,0,0,,7,,,79,127
19565,note_on,1,0,0,,0,,,72,127
19674,note_off,109,0,0,,0,,,72,127
19674,note_off,0,0,0,,4,,,64,127
19675,note_on,1,0,0,,2,,,74,127
19675,note_on,0,0,0,,5,,,65,127
19784,note_off,109,0,0,,2,,,74,127
19785,note_on,1,0,0,,7,,,79,127
19894,note_off,109,0,0,,7,,,79,127
19894,note_off,0,0,0,,5,,,65,127
19895,note_on,1,0,0,,5,,,77,127
19895,note_on,0,0,0,,7,,,67,127
20004,note_off,109,0,0,,5,,,77,127
20005,note_on,1,0,0,,12,,,83,127
20114,note_off,109,0,0,,7,,,67,127
20115,note_on,1,0,0,,0,,,60,127
20188,note_off,73,0,0,,12,,,83,127
20225,note_on,37,0,0,,0,,,84,127
20334,note_off,109,0,0,,0,,,60,127
20335,note_on,1,0,0,,4,,,64,127
20444,note_off,109,0,0,,0,,,84,127
20445,note_on,1,0,0,,0,,,72,127
20554,note_off,109,0,0,,0,,,72,127
20554,note_off,0,0,0,,4,,,64,127
20555,note_on,1,0,0,,2,,,74,127
20555,note_on,0,0,0,,5,,,65,127
20664,note_off,109,0,0,,2,,,74,127
20665,note_on,1,0,0,,7,,,79,127
20774,note_off,109,0,0,,7,,,79,127
20774,note_off,0,0,0,,5,,,65,127
20775,note_on,1,0,0,,5,,,77,127
20775,note_on,0,0,0,,7,,,67,127
20884,note_off,109,0,0,,5,,,77,127
20885,note_on,1,0,0,,12,,,83,127
20991,note_off,106,0,0,,12,,,83,127
20993,note_off,2,0,0,,7,,,67,127
20994,note_on,1,0,0,,12,,,83,127
20994,note_on,0,0,0,,0,,,60,127
21103,note_off,109,0,0,,12,,,83,127
21104,note_on,1,0,0,,0,,,84,127
21213,note_off,109,0,0,,0,,,84,127
21213,note_off,0,0,0,,0,,,60,127
21214,note_on,1,0,0,,7,,,79,127
21214,note_on,0,0,0,,4,,,64,127
21323,note_off,109,0,0,,7,,,79,127
21324,note_on,1,0,0,,4,,,76,127
21433,note_off,109,0,0,,4,,,76,127
21433,note_off,0,0,0,,4,,,64,127
21434,note_on,1,0,0,,8,,,80,127
21434,note_on,0,0,0,,5,,,65,127
21543,note_off,109,0,0,,8,,,80,127
21544,note_on,1,0,0,,10,,,81,127
21653,note_off,109,0,0,,10,,,81,127
21653,note_off,0,0,0,,5,,,65,127
21654,note_on,1,0,0,,5,,,77,127
21654,note_on,0,0,0,,2,,,62,127
21763,note_off,109,0,0,,5,,,77,127
21764,note_on,1,0,0,,2,,,74,127
21873,note_off,109,0,0,,2,,,74,127
21873,note_off,0,0,0,,2,,,62,127
21874,note_on,1,0,0,,6,,,78,127
21874,note_on,0,0,0,,4,,,64,127
21983,note_off,109,0,0,,6,,,78,127
21984,note_on,1,0,0,,7,,,79,127
22093,note_off,109,0,0,,7,,,79,127
22093,note_off,0,0,0,,4,,,64,127
22094,note_on,1,0,0,,4,,,76,127
22094,note_on,0,0,0,,4,,,64,127
22203,note_off,109,0,0,,4,,,76,127
22204,note_on,1,0,0,,0,,,72,127
22313,note_off,109,0,0,,0,,,72,127
22313,note_off,0,0,0,,4,,,64,127
22314,note_on,1,0,0,,4,,,76,127
22314,note_on,0,0,0,,5,,,65,127
22368,note_off,54,0,0,,4,,,76,127
22369,note_on,1,0,0,,2,,,74,127
22423,note_off,54,0,0,,2,,,74,127
22424,note_on,1,0,0,,4,,,76,127
22478,note_off,54,0,0,,4,,,76,127
22479,note_on,1,0,0,,2,,,74,127
22533,note_off,54,0,0,,2,,,74,127
22533,note_off,0,0,0,,5,,,65,127
22534,note_on,1,0,0,,0,,,72,127
22534,note_on,0,0,0,,7,,,67,127
22643,note_off,109,0,0,,0,,,72,127
22644,note_on,1,0,0,,12,,,71,127
22753,note_off,109,0,0,,12,,,71,127
22753,note_off,0,0,0,,7,,,67,127
22754,note_on,1,0,0,,0,,,72,127
22754,note_on,0,0,0,,0,,,60,127
22972,note_off,218,0,0,,0,,,60,127
22973,note_on,1,0,0,,12,,,59,127
23005,note_off,32,0,0,,0,,,72,127
23083,note_on,78,0,0,,2,,,74,127
23192,note_off,109,0,0,,2,,,74,127
23192,note_off,0,0,0,,12,,,59,127
23193,note_on,1,0,0,,4,,,76,127
23193,note_on,0,0,0,,0,,,60,127
23302,note_off,109,0,0,,4,,,76,127
23303,note_on,1,0,0,,7,,,79,127
23412,note_off,109,0,0,,7,,,79,127
23412,note_off,0,0,0,,0,,,60,127
23413,note_on,1,0,0,,6,,,78,127
23413,note_on,0,0,0,,10,,,57,127
23522,note_off,109,0,0,,6,,,78,127
23523,note_on,1,0,0,,10,,,81,127
23632,note_off,109,0,0,,10,,,57,127
23633,note_on,1,0,0,,12,,,59,127
23706,note_off,73,0,0,,10,,,81,127
23743,note_on,37,0,0,,7,,,79,127
23852,note_off,109,0,0,,12,,,59,127
23853,note_on,1,0,0,,7,,,55,127
23962,note_off,109,0,0,,7,,,79,127
23963,note_on,1,0,0,,2,,,74,127
24072,note_off,109,0,0,,2,,,74,127
24072,note_off,0,0,0,,7,,,55,127
24073,note_on,1,0,0,,4,,,76,127
24073,note_on,0,0,0,,0,,,60,127
24182,note_off,109,0,0,,4,,,76,127
24183,note_on,1,0,0,,7,,,79,127
24292,note_off,109,0,0,,7,,,79,127
24292,note_off,0,0,0,,0,,,60,127
24293,note_on,1,0,0,,6,,,78,127
24293,note_on,0,0,0,,10,,,57,127
24402,note_off,109,0,0,,6,,,78,127
24403,note_on,1,0,0,,10,,,81,127
24512,note_off,109,0,0,,10,,,57,127
24513,note_on,1,0,0,,7,,,55,127
24586,note_off,73,0,0,,10,,,81,127
24623,note_on,37,0,0,,7,,,79,127
24732,note_off,109,0,0,,7,,,55,127
24733,note_on,1,0,0,,4,,,64,127
24842,note_off,109,0,0,,7,,,79,127
24843,note_on,1,0,0,,0,,,72,127
24952,note_off,109,0,0,,0,,,72,127
24952,note_off,0,0,0,,4,,,64,127
24953,note_on,1,0,0,,2,,,74,127
24953,note_on,0,0,0,,5,,,65,127
25062,note_off,109,0,0,,2,,,74,127
25063,note_on,1,0,0,,7,,,79,127
25172,note_off,109,0,0,,7,,,79,127
25172,note_off,0,0,0,,5,,,65,127
25173,note_on,1,0,0,,5,,,77,127
25173,note_on,0,0,0,,2,,,62,127
25282,note_off,109,0,0,,5,,,77,127
25283,note_on,1,0,0,,12,,,83,127
25392,note_off,109,0,0,,2,,,62,127
25393,note_on,1,0,0,,4,,,64,127
25466,note_off,73,0,0,,12,,,83,127
25503,note_on,37,0,0,,0,,,84,127
25612,note_off,109,0,0,,4,,,64,127
25613,note_on,1,0,0,,4,,,64,127
25722,note_off,109,0,0,,0,,,84,127
25723,note_on,1,0,0,,0,,,72,127
25832,note_off,109,0,0,,0,,,72,127
25832,note_off,0,0,0,,4,,,64,127
25833,note_on,1,0,0,,2,,,74,127
25833,note_on,0,0,0,,5,,,65,127
25942,note_off,109,0,0,,2,,,74,127
25943,note_on,1,0,0,,7,,,79,127
26052,note_off,109,0,0,,7,,,79,127
26052,note_off,0,0,0,,5,,,65,127
26053,note_on,1,0,0,,5,,,77,127
26053,note_on,0,0,0,,2,,,62,127
26162,note_off,109,0,0,,5,,,77,127
26163,note_on,1,0,0,,12,,,83,127
26264,note_off,101,0,0,,12,,,83,127
26272,note_off,8,0,0,,2,,,62,127
26273,note_on,1,0,0,,12,,,83,127
26273,note_on,0,0,0,,4,,,64,127
26382,note_off,109,0,0,,12,,,83,127
26383,note_on,1,0,0,,0,,,84,127
26492,note_off,109,0,0,,0,,,84,127
26492,note_off,0,0,0,,4,,,64,127
26493,note_on,1,0,0,,7,,,79,127
26493,note_on,0,0,0,,4,,,64,127
26602,note_off,109,0,0,,7,,,79,127
26603,note_on,1,0,0,,4,,,76,127
26712,note_off,109,0,0,,4,,,76,127
26712,note_off,0,0,0,,4,,,64,127
26713,note_on,1,0,0,,8,,,80,127
26713,note_on,0,0,0,,5,,,65,127
26822,note_off,109,0,0,,8,,,80,127
26823,note_on,1,0,0,,10,,,81,127
26932,note_off,109,0,0,,10,,,81,127
26932,note_off,0,0,0,,5,,,65,127
26933,note_on,1,0,0,,5,,,77,127
26933,note_on,0,0,0,,2,,,62,127
27042,note_off,109,0,0,,5,,,77,127
27043,note_on,1,0,0,,2,,,74,127
27152,note_off,109,0,0,,2,,,74,127
27152,note_off,0,0,0,,2,,,62,127
27153,note_on,1,0,0,,6,,,78,127
27153,note_on,0,0,0,,4,,,64,127
27262,note_off,109,0,0,,6,,,78,127
27263,note_on,1,0,0,,7,,,79,127
27372,note_off,109,0,0,,7,,,79,127
27372,note_off,0,0,0,,4,,,64,127
27373,note_on,1,0,0,,4,,,76,127
27373,note_on,0,0,0,,4,,,64,127
27482,note_off,109,0,0,,4,,,76,127
27483,note_on,1,0,0,,0,,,72,127
27592,note_off,109,0,0,,0,,,72,127
27592,note_off,0,0,0,,4,,,64,127
27593,note_on,1,0,0,,4,,,76,127
27593,note_on,0,0,0,,5,,,65,127
27702,note_off,109,0,0,,4,,,76,127
27703,note_on,1,0,0,,2,,,74,127
27812,note_off,109,0,0,,2,,,74,127
27812,note_off,0,0,0,,5,,,65,127
27813,note_on,1,0,0,,0,,,72,127
27813,note_on,0,0,0,,7,,,67,127
27922,note_off,109,0,0,,0,,,72,127
27923,note_on,1,0,0,,12,,,71,127
28032,note_off,109,0,0,,12,,,71,127
28032,note_off,0,0,0,,7,,,67,127
28033,note_on,1,0,0,,0,,,72,127
28033,note_on,0,0,0,,0,,,60,127
28251,note_off,218,0,0,,0,,,60,127
28252,note_on,1,0,0,,0,,,48,127
28362,note_off,110,0,0,,0,,,72,127
28472,note_on,110,0,0,,7,,,67,127
28581,note_off,109,0,0,,0,,,48,127
28582,note_on,1,0,0,,2,,,50,127
28636,note_off,54,0,0,,2,,,50,127
28637,note_on,1,0,0,,4,,,52,127
28691,note_off,54,0,0,,4,,,52,127
28692,note_on,1,0,0,,5,,,53,127
28746,note_off,54,0,0,,5,,,53,127
28747,note_on,1,0,0,,7,,,55,127
28801,note_off,54,0,0,,7,,,55,127
28802,note_on,1,0,0,,10,,,57,127
28856,note_off,54,0,0,,10,,,57,127
28857,note_on,1,0,0,,12,,,59,127
28911,note_off,54,0,0,,12,,,59,127
28912,note_on,1,0,0,,0,,,60,127
28966,note_off,54,0,0,,7,,,67,127
28967,note_on,1,0,0,,10,,,69,127
29021,note_off,54,0,0,,10,,,69,127
29022,note_on,1,0,0,,12,,,71,127
29076,note_off,54,0,0,,12,,,71,127
29077,note_on,1,0,0,,0,,,72,127
29131,note_off,54,0,0,,0,,,72,127
29131,note_off,0,0,0,,0,,,60,127
29132,note_on,1,0,0,,2,,,74,127
29132,note_on,0,0,0,,0,,,60,127
29186,note_off,54,0,0,,2,,,74,127
29187,note_on,1,0,0,,4,,,76,127
29241,note_off,54,0,0,,4,,,76,127
29242,note_on,1,0,0,,5,,,77,127
29296,note_off,54,0,0,,5,,,77,127
29297,note_on,1,0,0,,7,,,79,127
29351,note_off,54,0,0,,7,,,79,127
29351,note_off,0,0,0,,0,,,60,127
29352,note_on,1,0,0,,10,,,81,127
29352,note_on,0,0,0,,12,,,59,127
29461,note_off,109,0,0,,10,,,81,127
29462,note_on,1,0,0,,7,,,79,127
29571,note_off,109,0,0,,7,,,79,127
29571,note_off,0,0,0,,12,,,59,127
29572,note_on,1,0,0,,2,,,86,127
29572,note_on,0,0,0,,7,,,55,127
29681,note_off,109,0,0,,2,,,86,127
29682,note_on,1,0,0,,5,,,77,127
29791,note_off,109,0,0,,7,,,55,127
29792,note_on,1,0,0,,0,,,60,127
29888,note_off,96,0,0,,5,,,77,127
29902,note_on,14,0,0,,4,,,76,127
30011,note_off,109,0,0,,4,,,76,127
30011,note_off,0,0,0,,0,,,60,127
30012,note_on,1,0,0,,10,,,81,127
30012,note_on,0,0,0,,5,,,53,127
30121,note_off,109,0,0,,10,,,81,127
30122,note_on,1,0,0,,2,,,74,127
30231,note_off,109,0,0,,5,,,53,127
30232,note_on,1,0,0,,7,,,55,127
30341,note_off,109,0,0,,2,,,74,127
30342,note_on,1,0,0,,0,,,72,127
30451,note_off,109,0,0,,7,,,55,127
30452,note_on,1,0,0,,7,,,43,127
30561,note_off,109,0,0,,0,,,72,127
30562,note_on,1,0,0,,12,,,71,127
30671,note_off,109,0,0,,12,,,71,127
30671,note_off,0,0,0,,7,,,43,127
30672,note_on,1,0,0,,0,,,72,127
30672,note_on,0,0,0,,0,,,36,127
30890,note_off,218,0,0,,0,,,36,127
30891,note_on,1,0,0,,0,,,48,127
31001,note_off,110,0,0,,0,,,72,127
31111,note_on,110,0,0,,7,,,67,127
31220,note_off,109,0,0,,0,,,48,127
31221,note_on,1,0,0,,2,,,50,127
31275,note_off,54,0,0,,2,,,50,127
31276,note_on,1,0,0,,4,,,52,127
31330,note_off,54,0,0,,4,,,52,127
31331,note_on,1,0,0,,5,,,53,127
31385,note_off,54,0,0,,5,,,53,127
31386,note_on,1,0,0,,7,,,55,127
31440,note_off,54,0,0,,7,,,55,127
31441,note_on,1,0,0,,10,,,57,127
31495,note_off,54,0,0,,10,,,57,127
31496,note_on,1,0,0,,12,,,59,127
31550,note_off,54,0,0,,12,,,59,127
31551,note_on,1,0,0,,0,,,60,127
31605,note_off,54,0,0,,7,,,67,127
31606,note_on,1,0,0,,10,,,69,127
31660,note_off,54,0,0,,10,,,69,127
31661,note_on,1,0,0,,12,,,71,127
31715,note_off,54,0,0,,12,,,71,127
31716,note_on,1,0,0,,0,,,72,127
31770,note_off,54,0,0,,0,,,72,127
31771,note_on,1,0,0,,2,,,74,127
31825,note_off,54,0,0,,2,,,74,127
31826,note_on,1,0,0,,4,,,76,127
31880,note_off,54,0,0,,4,,,76,127
31881,note_on,1,0,0,,5,,,77,127
31935,note_off,54,0,0,,5,,,77,127
31936,note_on,1,0,0,,7,,,79,127
31990,note_off,54,0,0,,7,,,79,127
31990,note_off,0,0,0,,0,,,60,127
31991,note_on,1,0,0,,10,,,81,127
31991,note_on,0,0,0,,12,,,59,127
32100,note_off,109,0,0,,10,,,81,127
32101,note_on,1,0,0,,7,,,79,127
32210,note_off,109,0,0,,7,,,79,127
32210,note_off,0,0,0,,12,,,59,127
32211,note_on,1,0,0,,2,,,86,127
32211,note_on,0,0,0,,7,,,55,127
32320,note_off,109,0,0,,2,,,86,127
32321,note_on,1,0,0,,5,,,77,127
32430,note_off,109,0,0,,7,,,55,127
32431,note_on,1,0,0,,0,,,60,127
32540,note_off,109,0,0,,5,,,77,127
32541,note_on,1,0,0,,4,,,76,127
32650,note_off,109,0,0,,4,,,76,127
32650,note_off,0,0,0,,0,,,60,127
32651,note_on,1,0,0,,10,,,81,127
32651,note_on,0,0,0,,5,,,53,127
32760,note_off,109,0,0,,10,,,81,127
32761,note_on,1,0,0,,2,,,74,127
32870,note_off,109,0,0,,5,,,53,127
32871,note_on,1,0,0,,7,,,55,127
32980,note_off,109,0,0,,2,,,74,127
32981,note_on,1,0,0,,0,,,72,127
33090,note_off,109,0,0,,7,,,55,127
33091,note_on,1,0,0,,7,,,43,127
33200,note_off,109,0,0,,0,,,72,127
33201,note_on,1,0,0,,12,,,71,127
33310,note_off,109,0,0,,12,,,71,127
33310,note_off,0,0,0,,7,,,43,127
33311,note_on,1,0,0,,0,,,72,127
33311,note_on,0,0,0,,0,,,36,127
33529,note_off,218,0,0,,0,,,36,127
33530,note_on,1,0,0,,4,,,76,127
33748,note_off,218,0,0,,0,,,72,127
33749,note_on,1,0,0,,0,,,72,127
33803,note_off,54,0,0,,0,,,72,127
33804,note_on,1,0,0,,11,,,70,127
33858,note_off,54,0,0,,11,,,70,127
33859,note_on,1,0,0,,0,,,72,127
33913,note_off,54,0,0,,0,,,72,127
33914,note_on,1,0,0,,11,,,70,127
33968,note_off,54,0,0,,11,,,70,127
33968,note_off,0,0,0,,4,,,76,127
33969,note_on,1,0,0,,0,,,72,127
33969,note_on,0,0,0,,5,,,77,127
34023,note_off,54,0,0,,0,,,72,127
34024,note_on,1,0,0,,11,,,70,127
34078,note_off,54,0,0,,11,,,70,127
34078,note_off,0,0,0,,5,,,77,127
34079,note_on,1,0,0,,10,,,69,127
34079,note_on,0,0,0,,7,,,79,127
34133,note_off,54,0,0,,10,,,69,127
34134,note_on,1,0,0,,7,,,67,127
34188,note_off,54,0,0,,7,,,67,127
34188,note_off,0,0,0,,7,,,79,127
34189,note_on,1,0,0,,5,,,65,127
34189,note_on,0,0,0,,10,,,81,127
34407,note_off,218,0,0,,10,,,81,127
34408,note_on,1,0,0,,12,,,71,127
34626,note_off,218,0,0,,5,,,65,127
34627,note_on,1,0,0,,7,,,67,127
34681,note_off,54,0,0,,7,,,67,127
34682,note_on,1,0,0,,5,,,65,127
34736,note_off,54,0,0,,5,,,65,127
34737,note_on,1,0,0,,7,,,67,127
34791,note_off,54,0,0,,7,,,67,127
34792,note_on,1,0,0,,5,,,65,127
34846,note_off,54,0,0,,5,,,65,127
34846,note_off,0,0,0,,12,,,71,127
34847,note_on,1,0,0,,7,,,67,127
34847,note_on,0,0,0,,0,,,72,127
34901,note_off,54,0,0,,7,,,67,127
34902,note_on,1,0,0,,5,,,65,127
34956,note_off,54,0,0,,5,,,65,127
34956,note_off,0,0,0,,0,,,72,127
34957,note_on,1,0,0,,4,,,64,127
34957,note_on,0,0,0,,2,,,74,127
35011,note_off,54,0,0,,4,,,64,127
35012,note_on,1,0,0,,2,,,62,127
35066,note_off,54,0,0,,2,,,62,127
35066,note_off,0,0,0,,2,,,74,127
35067,note_on,1,0,0,,0,,,60,127
35067,note_on,0,0,0,,4,,,76,127
35285,note_off,218,0,0,,4,,,76,127
35286,note_on,1,0,0,,6,,,66,127
35504,note_off,218,0,0,,0,,,60,127
35505,note_on,1,0,0,,2,,,62,127
35559,note_off,54,0,0,,2,,,62,127
35560,note_on,1,0,0,,0,,,60,127
35614,note_off,54,0,0,,0,,,60,127
35615,note_on,1,0,0,,2,,,62,127
35669,note_off,54,0,0,,2,,,62,127
35670,note_on,1,0,0,,0,,,60,127
35724,note_off,54,0,0,,0,,,60,127
35724,note_off,0,0,0,,6,,,66,127
35725,note_on,1,0,0,,2,,,62,127
35725,note_on,0,0,0,,7,,,67,127
35779,note_off,54,0,0,,2,,,62,127
35780,note_on,1,0,0,,0,,,60,127
35834,note_off,54,0,0,,0,,,60,127
35834,note_off,0,0,0,,7,,,67,127
35835,note_on,1,0,0,,12,,,59,127
35835,note_on,0,0,0,,10,,,69,127
35889,note_off,54,0,0,,12,,,59,127
35890,note_on,1,0,0,,10,,,57,127
35944,note_off,54,0,0,,10,,,57,127
35944,note_off,0,0,0,,10,,,69,127
35945,note_on,1,0,0,,7,,,55,127
35945,note_on,0,0,0,,12,,,71,127
36162,note_off,217,0,0,,7,,,55,127
36164,note_on,2,0,0,,7,,,55,127
36196,note_off,32,0,0,,12,,,71,127
36274,note_on,78,0,0,,0,,,72,127
36383,note_off,109,0,0,,0,,,72,127
36384,note_on,1,0,0,,2,,,74,127
36493,note_off,109,0,0,,2,,,74,127
36494,note_on,1,0,0,,7,,,67,127
36603,note_off,109,0,0,,7,,,67,127
36603,note_off,0,0,0,,7,,,55,127
36604,note_on,1,0,0,,5,,,77,127
36604,note_on,0,0,0,,12,,,59,127
36713,note_off,109,0,0,,5,,,77,127
36714,note_on,1,0,0,,2,,,74,127
36823,note_off,109,0,0,,2,,,74,127
36823,note_off,0,0,0,,12,,,59,127
36824,note_on,1,0,0,,4,,,76,127
36824,note_on,0,0,0,,0,,,60,127
36933,note_off,109,0,0,,4,,,76,127
36934,note_on,1,0,0,,0,,,72,127
37043,note_off,109,0,0,,0,,,72,127
37043,note_off,0,0,0,,0,,,60,127
37044,note_on,1,0,0,,0,,,84,127
37044,note_on,0,0,0,,5,,,53,127
37153,note_off,109,0,0,,0,,,84,127
37154,note_on,1,0,0,,0,,,72,127
37263,note_off,109,0,0,,0,,,72,127
37263,note_off,0,0,0,,5,,,53,127
37264,note_on,1,0,0,,4,,,76,127
37264,note_on,0,0,0,,7,,,55,127
37482,note_off,218,0,0,,7,,,55,127
37482,note_off,0,0,0,,4,,,76,127
37483,note_on,1,0,0,,4,,,76,127
37483,note_on,0,0,0,,7,,,43,127
37537,note_off,54,0,0,,4,,,76,127
37538,note_on,1,0,0,,2,,,74,127
37592,note_off,54,0,0,,2,,,74,127
37593,note_on,1,0,0,,0,,,72,127
37647,note_off,54,0,0,,0,,,72,127
37648,note_on,1,0,0,,2,,,74,127
37702,note_off,54,0,0,,2,,,74,127
37702,note_off,0,0,0,,7,,,43,127
37703,note_on,1,0,0,,0,,,72,127
37703,note_on,0,0,0,,0,,,36,127
37921,note_off,218,0,0,,0,,,36,127
37922,note_on,1,0,0,,4,,,76,127
38140,note_off,218,0,0,,0,,,72,127
38141,note_on,1,0,0,,0,,,72,127
38195,note_off,54,0,0,,0,,,72,127
38196,note_on,1,0,0,,11,,,70,127
38250,note_off,54,0,0,,11,,,70,127
38251,note_on,1,0,0,,0,,,72,127
38305,note_off,54,0,0,,0,,,72,127
38306,note_on,1,0,0,,11,,,70,127
38360,note_off,54,0,0,,11,,,70,127
38360,note_off,0,0,0,,4,,,76,127
38361,note_on,1,0,0,,0,,,72,127
38361,note_on,0,0,0,,5,,,77,127
38415,note_off,54,0,0,,0,,,72,127
38416,note_on,1,0,0,,11,,,70,127
38470,note_off,54,0,0,,11,,,70,127
38470,note_off,0,0,0,,5,,,77,127
38471,note_on,1,0,0,,10,,,69,127
38471,note_on,0,0,0,,7,,,79,127
38525,note_off,54,0,0,,10,,,69,127
38526,note_on,1,0,0,,7,,,67,127
38580,note_off,54,0,0,,7,,,67,127
38580,note_off,0,0,0,,7,,,79,127
38581,note_on,1,0,0,,5,,,65,127
38581,note_on,0,0,0,,10,,,81,127
38799,note_off,218,0,0,,10,,,81,127
38800,note_on,1,0,0,,12,,,71,127
39018,note_off,218,0,0,,5,,,65,127
39019,note_on,1,0,0,,7,,,67,127
39073,note_off,54,0,0,,7,,,67,127
39074,note_on,1,0,0,,5,,,65,127
39128,note_off,54,0,0,,5,,,65,127
39129,note_on,1,0,0,,7,,,67,127
39183,note_off,54,0,0,,7,,,67,127
39184,note_on,1,0,0,,5,,,65,127
39238,note_off,54,0,0,,5,,,65,127
39238,note_off,0,0,0,,12,,,71,127
39239,note_on,1,0,0,,7,,,67,127
39239,note_on,0,0,0,,0,,,72,127
39293,note_off,54,0,0,,7,,,67,127
39294,note_on,1,0,0,,5,,,65,127
39348,note_off,54,0,0,,5,,,65,127
39348,note_off,0,0,0,,0,,,72,127
39349,note_on,1,0,0,,4,,,64,127
39349,note_on,0,0,0,,2,,,74,127
39403,note_off,54,0,0,,4,,,64,127
39404,note_on,1,0,0,,2,,,62,127
39458,note_off,54,0,0,,2,,,62,127
39458,note_off,0,0,0,,2,,,74,127
39459,note_on,1,0,0,,0,,,60,127
39459,note_on,0,0,0,,4,,,76,127
39677,note_off,218,0,0,,4,,,76,127
39678,note_on,1,0,0,,6,,,66,127
39896,note_off,218,0,0,,0,,,60,127
39897,note_on,1,0,0,,2,,,62,127
39951,note_off,54,0,0,,2,,,62,127
39952,note_on,1,0,0,,0,,,60,127
40006,note_off,54,0,0,,0,,,60,127
40007,note_on,1,0,0,,2,,,62,127
40061,note_off,54,0,0,,2,,,62,127
40062,note_on,1,0,0,,0,,,60,127
40116,note_off,54,0,0,,0,,,60,127
40116,note_off,0,0,0,,6,,,66,127
40117,note_on,1,0,0,,2,,,62,127
40117,note_on,0,0,0,,7,,,67,127
40171,note_off,54,0,0,,2,,,62,127
40172,note_on,1,0,0,,0,,,60,127
40226,note_off,54,0,0,,0,,,60,127
40226,note_off,0,0,0,,7,,,67,127
40227,note_on,1,0,0,,12,,,59,127
40227,note_on,0,0,0,,10,,,69,127
40281,note_off,54,0,0,,12,,,59,127
40282,note_on,1,0,0,,10,,,57,127
40336,note_off,54,0,0,,10,,,57,127
40336,note_off,0,0,0,,10,,,69,127
40337,note_on,1,0,0,,7,,,55,127
40337,note_on,0,0,0,,12,,,71,127
40554,note_off,217,0,0,,7,,,55,127
40556,note_on,2,0,0,,7,,,55,127
40588,note_off,32,0,0,,12,,,71,127
40666,note_on,78,0,0,,0,,,72,127
40775,note_off,109,0,0,,0,,,72,127
40776,note_on,1,0,0,,2,,,74,127
40885,note_off,109,0,0,,2,,,74,127
40886,note_on,1,0,0,,7,,,67,127
40995,note_off,109,0,0,,7,,,67,127
40995,note_off,0,0,0,,7,,,55,127
40996,note_on,1,0,0,,5,,,77,127
40996,note_on,0,0,0,,12,,,59,127
41105,note_off,109,0,0,,5,,,77,127
41106,note_on,1,0,0,,2,,,74,127
41215,note_off,109,0,0,,2,,,74,127
41215,note_off,0,0,0,,12,,,59,127
41216,note_on,1,0,0,,4,,,76,127
41216,note_on,0,0,0,,0,,,60,127
41325,note_off,109,0,0,,4,,,76,127
41326,note_on,1,0,0,,0,,,72,127
41435,note_off,109,0,0,,0,,,72,127
41435,note_off,0,0,0,,0,,,60,127
41436,note_on,1,0,0,,0,,,84,127
41436,note_on,0,0,0,,5,,,53,127
41545,note_off,109,0,0,,0,,,84,127
41546,note_on,1,0,0,,0,,,72,127
41655,note_off,109,0,0,,0,,,72,127
41655,note_off,0,0,0,,5,,,53,127
41656,note_on,1,0,0,,4,,,76,127
41656,note_on,0,0,0,,7,,,55,127
41874,note_off,218,0,0,,7,,,55,127
41874,note_off,0,0,0,,4,,,76,127
41875,note_on,1,0,0,,4,,,76,127
41875,note_on,0,0,0,,7,,,43,127
41929,note_off,54,0,0,,4,,,76,127
41930,note_on,1,0,0,,2,,,74,127
41984,note_off,54,0,0,,2,,,74,127
41985,note_on,1,0,0,,0,,,72,127
42039,note_off,54,0,0,,0,,,72,127
42040,note_on,1,0,0,,2,,,74,127
42094,note_off,54,0,0,,2,,,74,127
42094,note_off,0,0,0,,7,,,43,127
42095,note_on,1,0,0,,0,,,72,127
42095,note_on,0,0,0,,0,,,36,127
42204,note_off,109,0,0,,0,,,72,127
42205,note_on,1,0,0,,0,,,84,127
42314,note_off,109,0,0,,0,,,84,127
42314,note_off,0,0,0,,0,,,36,127
42315,note_on,1,0,0,,7,,,79,127
42315,note_on,0,0,0,,0,,,60,127
42424,note_off,109,0,0,,7,,,79,127
42425,note_on,1,0,0,,4,,,76,127
42534,note_off,109,0,0,,4,,,76,127
42534,note_off,0,0,0,,0,,,60,127
42535,note_on,1,0,0,,8,,,80,127
42535,note_on,0,0,0,,5,,,65,127
42644,note_off,109,0,0,,8,,,80,127
42645,note_on,1,0,0,,10,,,81,127
42754,note_off,109,0,0,,10,,,81,127
42754,note_off,0,0,0,,5,,,65,127
42755,note_on,1,0,0,,7,,,79,127
42755,note_on,0,0,0,,4,,,64,127
42864,note_off,109,0,0,,7,,,79,127
42865,note_on,1,0,0,,4,,,76,127
42974,note_off,109,0,0,,4,,,76,127
42974,note_off,0,0,0,,4,,,64,127
42975,note_on,1,0,0,,12,,,83,127
42975,note_on,0,0,0,,2,,,62,127
43084,note_off,109,0,0,,12,,,83,127
43085,note_on,1,0,0,,5,,,77,127
43194,note_off,109,0,0,,5,,,77,127
43194,note_off,0,0,0,,2,,,62,127
43195,note_on,1,0,0,,0,,,84,127
43195,note_on,0,0,0,,0,,,60,127
43304,note_off,109,0,0,,0,,,84,127
43305,note_on,1,0,0,,0,,,72,127
43414,note_off,109,0,0,,0,,,72,127
43414,note_off,0,0,0,,0,,,60,127
43415,note_on,1,0,0,,4,,,76,127
43415,note_on,0,0,0,,5,,,53,127
43469,note_off,54,0,0,,4,,,76,127
43470,note_on,1,0,0,,2,,,74,127
43524,note_off,54,0,0,,2,,,74,127
43525,note_on,1,0,0,,4,,,76,127
43579,note_off,54,0,0,,4,,,76,127
43580,note_on,1,0,0,,2,,,74,127
43634,note_off,54,0,0,,2,,,74,127
43634,note_off,0,0,0,,5,,,53,127
43635,note_on,1,0,0,,4,,,76,127
43635,note_on,0,0,0,,7,,,55,127
43689,note_off,54,0,0,,4,,,76,127
43690,note_on,1,0,0,,2,,,74,127
43744,note_off,54,0,0,,2,,,74,127
43745,note_on,1,0,0,,0,,,72,127
43799,note_off,54,0,0,,0,,,72,127
43800,note_on,1,0,0,,2,,,74,127
43854,note_off,54,0,0,,2,,,74,127
43854,note_off,0,0,0,,7,,,55,127
43855,note_on,1,0,0,,0,,,72,127
43855,note_on,0,0,0,,0,,,48,127
43964,note_off,109,0,0,,0,,,72,127
43965,note_on,1,0,0,,0,,,72,127
44074,note_off,109,0,0,,0,,,72,127
44074,note_off,0,0,0,,0,,,48,127
44075,note_on,1,0,0,,11,,,70,127
44075,note_on,0,0,0,,0,,,48,127
44184,note_off,109,0,0,,11,,,70,127
44185,note_on,1,0,0,,7,,,67,127
44294,note_off,109,0,0,,7,,,67,127
44294,note_off,0,0,0,,0,,,48,127
44295,note_on,1,0,0,,8,,,68,127
44295,note_on,0,0,0,,5,,,53,127
44404,note_off,109,0,0,,8,,,68,127
44405,note_on,1,0,0,,10,,,69,127
44514,note_off,109,0,0,,10,,,69,127
44514,note_off,0,0,0,,5,,,53,127
44515,note_on,1,0,0,,7,,,67,127
44515,note_on,0,0,0,,4,,,52,127
44624,note_off,109,0,0,,7,,,67,127
44625,note_on,1,0,0,,4,,,64,127
44734,note_off,109,0,0,,4,,,64,127
44734,note_off,0,0,0,,4,,,52,127
44735,note_on,1,0,0,,12,,,71,127
44735,note_on,0,0,0,,2,,,50,127
44844,note_off,109,0,0,,12,,,71,127
44845,note_on,1,0,0,,5,,,65,127
44954,note_off,109,0,0,,5,,,65,127
44954,note_off,0,0,0,,2,,,50,127
44955,note_on,1,0,0,,0,,,72,127
44955,note_on,0,0,0,,0,,,48,127
45064,note_off,109,0,0,,0,,,72,127
45065,note_on,1,0,0,,0,,,60,127
45174,note_off,109,0,0,,0,,,60,127
45174,note_off,0,0,0,,0,,,48,127
45175,note_on,1,0,0,,4,,,64,127
45175,note_on,0,0,0,,5,,,41,127
45229,note_off,54,0,0,,4,,,64,127
45230,note_on,1,0,0,,2,,,62,127
45284,note_off,54,0,0,,2,,,62,127
45285,note_on,1,0,0,,4,,,64,127
45339,note_off,54,0,0,,4,,,64,127
45340,note_on,1,0,0,,2,,,62,127
45394,note_off,54,0,0,,2,,,62,127
45394,note_off,0,0,0,,5,,,41,127
45395,note_on,1,0,0,,4,,,64,127
45395,note_on,0,0,0,,7,,,43,127
45449,note_off,54,0,0,,4,,,64,127
45450,note_on,1,0,0,,2,,,62,127
45504,note_off,54,0,0,,2,,,62,127
45505,note_on,1,0,0,,0,,,60,127
45559,note_off,54,0,0,,0,,,60,127
45560,note_on,1,0,0,,2,,,62,127
45614,note_off,54,0,0,,2,,,62,127
45614,note_off,0,0,0,,7,,,43,127
45615,note_on,1,0,0,,0,,,60,127
45615,note_on,0,0,0,,0,,,36,127
46272,note_off,657,0,0,,0,,,60,127
46491,note_off,219,0,0,,0,,,36,127
46492,note_on,1,0,0,,0,,,36,127
46710,note_off,218,0,0,,0,,,36,127
46711,note_on,1,0,0,,0,,,72,127
46711,note_on,0,0,0,,0,,,60,127
46929,note_off,218,0,0,,0,,,60,127
46929,note_off,0,0,0,,0,,,72,127
46930,note_on,1,0,0,,0,,,72,127
46930,note_on,0,0,0,,2,,,62,127
46984,note_off,54,0,0,,0,,,72,127
46985,note_on,1,0,0,,11,,,70,127
47039,note_off,54,0,0,,11,,,70,127
47040,note_on,1,0,0,,0,,,72,127
47094,note_off,54,0,0,,0,,,72,127
47095,note_on,1,0,0,,11,,,70,127
47149,note_off,54,0,0,,11,,,70,127
47149,note_off,0,0,0,,2,,,62,127
47150,note_on,1,0,0,,0,,,72,127
47150,note_on,0,0,0,,4,,,64,127
47204,note_off,54,0,0,,0,,,72,127
47205,note_on,1,0,0,,11,,,70,127
47259,note_off,54,0,0,,11,,,70,127
47260,note_on,1,0,0,,10,,,69,127
47314,note_off,54,0,0,,10,,,69,127
47315,note_on,1,0,0,,7,,,67,127
47369,note_off,54,0,0,,7,,,67,127
47369,note_off,0,0,0,,4,,,64,127
47370,note_on,1,0,0,,10,,,69,127
47370,note_on,0,0,0,,5,,,65,127
47588,note_off,218,0,0,,5,,,65,127
47588,note_off,0,0,0,,10,,,69,127
47589,note_on,1,0,0,,0,,,72,127
47589,note_on,0,0,0,,0,,,60,127
47807,note_off,218,0,0,,0,,,60,127
47807,note_off,0,0,0,,0,,,72,127
47808,note_on,1,0,0,,0,,,72,127
47808,note_on,0,0,0,,2,,,62,127
47862,note_off,54,0,0,,0,,,72,127
47863,note_on,1,0,0,,11,,,70,127
47917,note_off,54,0,0,,11,,,70,127
47918,note_on,1,0,0,,0,,,72,127
47972,note_off,54,0,0,,0,,,72,127
47973,note_on,1,0,0,,11,,,70,127
48027,note_off,54,0,0,,11,,,70,127
48027,note_off,0,0,0,,2,,,62,127
48028,note_on,1,0,0,,0,,,72,127
48028,note_on,0,0,0,,4,,,64,127
48082,note_off,54,0,0,,0,,,72,127
48083,note_on,1,0,0,,11,,,70,127
48137,note_off,54,0,0,,11,,,70,127
48138,note_on,1,0,0,,10,,,69,127
48192,note_off,54,0,0,,10,,,69,127
48193,note_on,1,0,0,,7,,,67,127
48247,note_off,54,0,0,,7,,,67,127
48247,note_off,0,0,0,,4,,,64,127
48248,note_on,1,0,0,,10,,,69,127
48248,note_on,0,0,0,,5,,,65,127
48357,note_off,109,0,0,,10,,,69,127
48358,note_on,1,0,0,,11,,,70,127
48467,note_off,109,0,0,,11,,,70,127
48467,note_off,0,0,0,,5,,,65,127
48468,note_on,1,0,0,,0,,,72,127
48468,note_on,0,0,0,,0,,,60,127
48577,note_off,109,0,0,,0,,,72,127
48578,note_on,1,0,0,,11,,,70,127
48687,note_off,109,0,0,,0,,,60,127
48688,note_on,1,0,0,,2,,,62,127
48797,note_off,109,0,0,,11,,,70,127
48798,note_on,1,0,0,,10,,,69,127
48907,note_off,109,0,0,,10,,,69,127
48907,note_off,0,0,0,,2,,,62,127
48908,note_on,1,0,0,,10,,,69,127
48908,note_on,0,0,0,,3,,,63,127
49017,note_off,109,0,0,,10,,,69,127
49018,note_on,1,0,0,,7,,,67,127
49127,note_off,109,0,0,,7,,,67,127
49127,note_off,0,0,0,,3,,,63,127
49128,note_on,1,0,0,,6,,,66,127
49128,note_on,0,0,0,,2,,,62,127
49311,note_off,183,0,0,,6,,,66,127
49346,note_off,35,0,0,,2,,,62,127
49347,note_on,1,0,0,,2,,,74,127
49347,note_on,0,0,0,,2,,,62,127
49565,note_off,218,0,0,,2,,,62,127
49565,note_off,0,0,0,,2,,,74,127
49566,note_on,1,0,0,,2,,,74,127
49566,note_on,0,0,0,,4,,,64,127
49620,note_off,54,0,0,,2,,,74,127
49621,note_on,1,0,0,,0,,,72,127
49675,note_off,54,0,0,,0,,,72,127
49676,note_on,1,0,0,,2,,,74,127
49730,note_off,54,0,0,,2,,,74,127
49731,note_on,1,0,0,,0,,,72,127
49785,note_off,54,0,0,,0,,,72,127
49785,note_off,0,0,0,,4,,,64,127
49786,note_on,1,0,0,,2,,,74,127
49786,note_on,0,0,0,,6,,,66,127
49840,note_off,54,0,0,,2,,,74,127
49841,note_on,1,0,0,,0,,,72,127
49895,note_off,54,0,0,,0,,,72,127
49896,note_on,1,0,0,,11,,,70,127
49950,note_off,54,0,0,,11,,,70,127
49951,note_on,1,0,0,,10,,,69,127
50005,note_off,54,0,0,,10,,,69,127
50005,note_off,0,0,0,,6,,,66,127
50006,note_on,1,0,0,,11,,,70,127
50006,note_on,0,0,0,,7,,,67,127
50224,note_off,218,0,0,,7,,,67,127
50224,note_off,0,0,0,,11,,,70,127
50225,note_on,1,0,0,,2,,,74,127
50225,note_on,0,0,0,,2,,,62,127
50443,note_off,218,0,0,,2,,,62,127
50443,note_off,0,0,0,,2,,,74,127
50444,note_on,1,0,0,,2,,,74,127
50444,note_on,0,0,0,,4,,,64,127
50498,note_off,54,0,0,,2,,,74,127
50499,note_on,1,0,0,,0,,,72,127
50553,note_off,54,0,0,,0,,,72,127
50554,note_on,1,0,0,,2,,,74,127
50608,note_off,54,0,0,,2,,,74,127
50609,note_on,1,0,0,,0,,,72,127
50663,note_off,54,0,0,,0,,,72,127
50663,note_off,0,0,0,,4,,,64,127
50664,note_on,1,0,0,,2,,,74,127
50664,note_on,0,0,0,,6,,,66,127
50718,note_off,54,0,0,,2,,,74,127
50719,note_on,1,0,0,,0,,,72,127
50773,note_off,54,0,0,,0,,,72,127
50774,note_on,1,0,0,,12,,,71,127
50828,note_off,54,0,0,,12,,,71,127
50829,note_on,1,0,0,,10,,,69,127
50883,note_off,54,0,0,,10,,,69,127
50883,note_off,0,0,0,,6,,,66,127
50884,note_on,1,0,0,,12,,,71,127
50884,note_on,0,0,0,,7,,,67,127
51102,note_off,218,0,0,,7,,,67,127
51102,note_off,0,0,0,,12,,,71,127
51103,note_on,1,0,0,,2,,,74,127
51103,note_on,0,0,0,,2,,,62,127
51321,note_off,218,0,0,,2,,,62,127
51321,note_off,0,0,0,,2,,,74,127
51322,note_on,1,0,0,,2,,,74,127
51322,note_on,0,0,0,,4,,,64,127
51376,note_off,54,0,0,,2,,,74,127
51377,note_on,1,0,0,,0,,,72,127
51431,note_off,54,0,0,,0,,,72,127
51432,note_on,1,0,0,,2,,,74,127
51486,note_off,54,0,0,,2,,,74,127
51487,note_on,1,0,0,,0,,,72,127
51541,note_off,54,0,0,,0,,,72,127
51541,note_off,0,0,0,,4,,,64,127
51542,note_on,1,0,0,,2,,,74,127
51542,note_on,0,0,0,,6,,,66,127
51596,note_off,54,0,0,,2,,,74,127
51597,note_on,1,0,0,,0,,,72,127
51651,note_off,54,0,0,,0,,,72,127
51652,note_on,1,0,0,,12,,,71,127
51706,note_off,54,0,0,,12,,,71,127
51707,note_on,1,0,0,,10,,,69,127
51761,note_off,54,0,0,,10,,,69,127
51761,note_off,0,0,0,,6,,,66,127
51762,note_on,1,0,0,,12,,,71,127
51762,note_on,0,0,0,,7,,,67,127
51871,note_off,109,0,0,,12,,,71,127
51872,note_on,1,0,0,,0,,,72,127
51981,note_off,109,0,0,,0,,,72,127
51981,note_off,0,0,0,,7,,,67,127
51982,note_on,1,0,0,,2,,,74,127
51982,note_on,0,0,0,,2,,,62,127
52091,note_off,109,0,0,,2,,,74,127
52092,note_on,1,0,0,,0,,,72,127
52201,note_off,109,0,0,,2,,,62,127
52202,note_on,1,0,0,,4,,,64,127
52311,note_off,109,0,0,,0,,,72,127
52312,note_on,1,0,0,,12,,,71,127
52421,note_off,109,0,0,,12,,,71,127
52421,note_off,0,0,0,,4,,,64,127
52422,note_on,1,0,0,,12,,,71,127
52422,note_on,0,0,0,,5,,,65,127
52531,note_off,109,0,0,,12,,,71,127
52532,note_on,1,0,0,,10,,,69,127
52641,note_off,109,0,0,,10,,,69,127
52641,note_off,0,0,0,,5,,,65,127
52642,note_on,1,0,0,,8,,,68,127
52642,note_on,0,0,0,,4,,,64,127
52825,note_off,183,0,0,,8,,,68,127
52860,note_off,35,0,0,,4,,,64,127
52861,note_on,1,0,0,,4,,,76,127
52861,note_on,0,0,0,,4,,,64,127
53079,note_off,218,0,0,,4,,,64,127
53079,note_off,0,0,0,,4,,,76,127
53080,note_on,1,0,0,,4,,,76,127
53080,note_on,0,0,0,,6,,,66,127
53134,note_off,54,0,0,,4,,,76,127
53135,note_on,1,0,0,,2,,,74,127
53189,note_off,54,0,0,,2,,,74,127
53190,note_on,1,0,0,,4,,,76,127
53244,note_off,54,0,0,,4,,,76,127
53245,note_on,1,0,0,,2,,,74,127
53299,note_off,54,0,0,,2,,,74,127
53299,note_off,0,0,0,,6,,,66,127
53300,note_on,1,0,0,,4,,,76,127
53300,note_on,0,0,0,,8,,,68,127
53354,note_off,54,0,0,,4,,,76,127
53355,note_on,1,0,0,,2,,,74,127
53409,note_off,54,0,0,,2,,,74,127
53410,note_on,1,0,0,,0,,,72,127
53464,note_off,54,0,0,,0,,,72,127
53465,note_on,1,0,0,,12,,,71,127
53519,note_off,54,0,0,,12,,,71,127
53519,note_off,0,0,0,,8,,,68,127
53520,note_on,1,0,0,,0,,,72,127
53520,note_on,0,0,0,,10,,,69,127
53738,note_off,218,0,0,,10,,,69,127
53738,note_off,0,0,0,,0,,,72,127
53739,note_on,1,0,0,,4,,,76,127
53739,note_on,0,0,0,,4,,,64,127
53957,note_off,218,0,0,,4,,,64,127
53957,note_off,0,0,0,,4,,,76,127
53958,note_on,1,0,0,,4,,,76,127
53958,note_on,0,0,0,,6,,,66,127
54012,note_off,54,0,0,,4,,,76,127
54013,note_on,1,0,0,,2,,,74,127
54067,note_off,54,0,0,,2,,,74,127
54068,note_on,1,0,0,,4,,,76,127
54122,note_off,54,0,0,,4,,,76,127
54123,note_on,1,0,0,,2,,,74,127
54177,note_off,54,0,0,,2,,,74,127
54177,note_off,0,0,0,,6,,,66,127
54178,note_on,1,0,0,,4,,,76,127
54178,note_on,0,0,0,,8,,,68,127
54232,note_off,54,0,0,,4,,,76,127
54233,note_on,1,0,0,,2,,,74,127
54287,note_off,54,0,0,,2,,,74,127
54288,note_on,1,0,0,,0,,,72,127
54342,note_off,54,0,0,,0,,,72,127
54343,note_on,1,0,0,,12,,,71,127
54397,note_off,54,0,0,,12,,,71,127
54397,note_off,0,0,0,,8,,,68,127
54398,note_on,1,0,0,,0,,,72,127
54398,note_on,0,0,0,,10,,,69,127
54615,note_off,217,0,0,,0,,,72,127
54616,note_off,1,0,0,,10,,,69,127
54617,note_on,1,0,0,,5,,,65,127
54727,note_on,110,0,0,,10,,,69,127
54836,note_off,109,0,0,,10,,,69,127
54836,note_off,0,0,0,,5,,,65,127
54837,note_on,1,0,0,,12,,,71,127
54837,note_on,0,0,0,,7,,,67,127
54946,note_off,109,0,0,,12,,,71,127
54947,note_on,1,0,0,,2,,,74,127
55056,note_off,109,0,0,,2,,,74,127
55056,note_off,0,0,0,,7,,,67,127
55057,note_on,1,0,0,,1,,,73,127
55057,note_on,0,0,0,,4,,,64,127
55166,note_off,109,0,0,,1,,,73,127
55167,note_on,1,0,0,,4,,,76,127
55276,note_off,109,0,0,,4,,,64,127
55277,note_on,1,0,0,,5,,,65,127
55350,note_off,73,0,0,,4,,,76,127
55387,note_on,37,0,0,,2,,,74,127
55496,note_off,109,0,0,,5,,,65,127
55497,note_on,1,0,0,,2,,,62,127
55606,note_off,109,0,0,,2,,,74,127
55607,note_on,1,0,0,,10,,,69,127
55716,note_off,109,0,0,,10,,,69,127
55716,note_off,0,0,0,,2,,,62,127
55717,note_on,1,0,0,,12,,,71,127
55717,note_on,0,0,0,,7,,,67,127
55826,note_off,109,0,0,,12,,,71,127
55827,note_on,1,0,0,,2,,,74,127
55936,note_off,109,0,0,,2,,,74,127
55936,note_off,0,0,0,,7,,,67,127
55937,note_on,1,0,0,,1,,,73,127
55937,note_on,0,0,0,,4,,,64,127
56046,note_off,109,0,0,,1,,,73,127
56047,note_on,1,0,0,,4,,,76,127
56156,note_off,109,0,0,,4,,,64,127
56157,note_on,1,0,0,,6,,,66,127
56230,note_off,73,0,0,,4,,,76,127
56267,note_on,37,0,0,,2,,,74,127
56376,note_off,109,0,0,,6,,,66,127
56377,note_on,1,0,0,,7,,,67,127
56486,note_off,109,0,0,,2,,,74,127
56487,note_on,1,0,0,,2,,,74,127
56596,note_off,109,0,0,,2,,,74,127
56596,note_off,0,0,0,,7,,,67,127
56597,note_on,1,0,0,,3,,,75,127
56597,note_on,0,0,0,,0,,,72,127
56706,note_off,109,0,0,,3,,,75,127
56707,note_on,1,0,0,,7,,,79,127
56816,note_off,109,0,0,,7,,,79,127
56816,note_off,0,0,0,,0,,,72,127
56817,note_on,1,0,0,,6,,,78,127
56817,note_on,0,0,0,,10,,,69,127
56926,note_off,109,0,0,,6,,,78,127
56927,note_on,1,0,0,,10,,,81,127
57036,note_off,109,0,0,,10,,,69,127
57037,note_on,1,0,0,,11,,,70,127
57110,note_off,73,0,0,,10,,,81,127
57147,note_on,37,0,0,,7,,,79,127
57256,note_off,109,0,0,,11,,,70,127
57257,note_on,1,0,0,,7,,,67,127
57366,note_off,109,0,0,,7,,,79,127
57367,note_on,1,0,0,,2,,,74,127
57476,note_off,109,0,0,,2,,,74,127
57476,note_off,0,0,0,,7,,,67,127
57477,note_on,1,0,0,,3,,,75,127
57477,note_on,0,0,0,,0,,,72,127
57586,note_off,109,0,0,,3,,,75,127
57587,note_on,1,0,0,,7,,,79,127
57696,note_off,109,0,0,,7,,,79,127
57696,note_off,0,0,0,,0,,,72,127
57697,note_on,1,0,0,,6,,,78,127
57697,note_on,0,0,0,,10,,,69,127
57806,note_off,109,0,0,,6,,,78,127
57807,note_on,1,0,0,,10,,,81,127
57916,note_off,109,0,0,,10,,,81,127
57916,note_off,0,0,0,,10,,,69,127
57917,note_on,1,0,0,,7,,,79,127
57917,note_on,0,0,0,,11,,,70,127
58027,note_on,110,0,0,,2,,,86,127
58082,note_off,55,0,0,,7,,,79,127
58136,note_off,54,0,0,,2,,,86,127
58136,note_off,0,0,0,,11,,,70,127
58137,note_on,1,0,0,,2,,,86,127
58137,note_on,0,0,0,,7,,,67,127
58246,note_off,109,0,0,,2,,,86,127
58247,note_on,1,0,0,,0,,,84,127
58356,note_off,109,0,0,,0,,,84,127
58356,note_off,0,0,0,,7,,,67,127
58357,note_on,1,0,0,,0,,,84,127
58357,note_on,0,0,0,,7,,,79,127
58466,note_off,109,0,0,,0,,,84,127
58467,note_on,1,0,0,,11,,,82,127
58576,note_off,109,0,0,,11,,,82,127
58576,note_off,0,0,0,,7,,,79,127
58577,note_on,1,0,0,,11,,,82,127
58577,note_on,0,0,0,,5,,,77,127
58686,note_off,109,0,0,,11,,,82,127
58687,note_on,1,0,0,,10,,,81,127
58796,note_off,109,0,0,,10,,,81,127
58796,note_off,0,0,0,,5,,,77,127
58797,note_on,1,0,0,,10,,,81,127
58797,note_on,0,0,0,,4,,,76,127
58906,note_off,109,0,0,,10,,,81,127
58907,note_on,1,0,0,,7,,,79,127
59016,note_off,109,0,0,,7,,,79,127
59016,note_off,0,0,0,,4,,,76,127
59017,note_on,1,0,0,,7,,,79,127
59017,note_on,0,0,0,,2,,,74,127
59126,note_off,109,0,0,,7,,,79,127
59127,note_on,1,0,0,,5,,,77,127
59236,note_off,109,0,0,,5,,,77,127
59236,note_off,0,0,0,,2,,,74,127
59237,note_on,1,0,0,,5,,,77,127
59237,note_on,0,0,0,,0,,,72,127
59346,note_off,109,0,0,,5,,,77,127
59347,note_on,1,0,0,,4,,,76,127
59456,note_off,109,0,0,,4,,,76,127
59456,note_off,0,0,0,,0,,,72,127
59457,note_on,1,0,0,,4,,,76,127
59457,note_on,0,0,0,,11,,,70,127
59566,note_off,109,0,0,,4,,,76,127
59567,note_on,1,0,0,,2,,,74,127
59676,note_off,109,0,0,,2,,,74,127
59676,note_off,0,0,0,,11,,,70,127
59677,note_on,1,0,0,,0,,,72,127
59677,note_on,0,0,0,,10,,,69,127
59787,note_on,110,0,0,,0,,,84,127
59894,note_off,107,0,0,,0,,,72,127
59895,note_off,1,0,0,,0,,,84,127
59895,note_off,0,0,0,,10,,,69,127
59896,note_on,1,0,0,,0,,,84,127
59896,note_on,0,0,0,,5,,,65,127
60005,note_off,109,0,0,,0,,,84,127
60006,note_on,1,0,0,,11,,,82,127
60115,note_off,109,0,0,,11,,,82,127
60115,note_off,0,0,0,,5,,,65,127
60116,note_on,1,0,0,,11,,,82,127
60116,note_on,0,0,0,,5,,,77,127
60225,note_off,109,0,0,,11,,,82,127
60226,note_on,1,0,0,,10,,,81,127
60335,note_off,109,0,0,,10,,,81,127
60335,note_off,0,0,0,,5,,,77,127
60336,note_on,1,0,0,,10,,,81,127
60336,note_on,0,0,0,,4,,,76,127
60445,note_off,109,0,0,,10,,,81,127
60446,note_on,1,0,0,,7,,,79,127
60555,note_off,109,0,0,,7,,,79,127
60555,note_off,0,0,0,,4,,,76,127
60556,note_on,1,0,0,,7,,,79,127
60556,note_on,0,0,0,,2,,,74,127
60665,note_off,109,0,0,,7,,,79,127
60666,note_on,1,0,0,,5,,,77,127
60775,note_off,109,0,0,,5,,,77,127
60775,note_off,0,0,0,,2,,,74,127
60776,note_on,1,0,0,,5,,,77,127
60776,note_on,0,0,0,,0,,,72,127
60885,note_off,109,0,0,,5,,,77,127
60886,note_on,1,0,0,,4,,,76,127
60995,note_off,109,0,0,,4,,,76,127
60995,note_off,0,0,0,,0,,,72,127
60996,note_on,1,0,0,,4,,,76,127
60996,note_on,0,0,0,,11,,,70,127
61105,note_off,109,0,0,,4,,,76,127
61106,note_on,1,0,0,,2,,,74,127
61215,note_off,109,0,0,,2,,,74,127
61215,note_off,0,0,0,,11,,,70,127
61216,note_on,1,0,0,,2,,,74,127
61216,note_on,0,0,0,,10,,,69,127
61325,note_off,109,0,0,,2,,,74,127
61326,note_on,1,0,0,,0,,,72,127
61435,note_off,109,0,0,,0,,,72,127
61435,note_off,0,0,0,,10,,,69,127
61436,note_on,1,0,0,,0,,,72,127
61436,note_on,0,0,0,,7,,,67,127
61545,note_off,109,0,0,,0,,,72,127
61546,note_on,1,0,0,,11,,,70,127
61655,note_off,109,0,0,,11,,,70,127
61655,note_off,0,0,0,,7,,,67,127
61656,note_on,1,0,0,,10,,,69,127
61656,note_on,0,0,0,,4,,,64,127
61765,note_off,109,0,0,,10,,,69,127
61766,note_on,1,0,0,,7,,,67,127
61875,note_off,109,0,0,,7,,,67,127
61875,note_off,0,0,0,,4,,,64,127
61876,note_on,1,0,0,,10,,,69,127
61876,note_on,0,0,0,,5,,,65,127
62094,note_off,218,0,0,,5,,,65,127
62094,note_off,0,0,0,,10,,,69,127
62095,note_on,1,0,0,,0,,,72,127
62095,note_on,0,0,0,,2,,,62,127
62149,note_off,54,0,0,,0,,,72,127
62150,note_on,1,0,0,,12,,,71,127
62204,note_off,54,0,0,,12,,,71,127
62205,note_on,1,0,0,,10,,,69,127
62259,note_off,54,0,0,,10,,,69,127
62260,note_on,1,0,0,,12,,,71,127
62314,note_off,54,0,0,,12,,,71,127
62314,note_off,0,0,0,,2,,,62,127
62315,note_on,1,0,0,,12,,,71,127
62315,note_on,0,0,0,,0,,,60,127
62461,note_on,146,0,0,,0,,,72,127
62533,note_off,72,0,0,,0,,,60,127
62533,note_off,0,0,0,,12,,,71,127
62534,note_on,1,0,0,,0,,,60,127
62598,note_off,64,0,0,,0,,,72,127
62644,note_on,46,0,0,,7,,,67,127
62753,note_off,109,0,0,,7,,,67,127
62753,note_off,0,0,0,,0,,,60,127
62754,note_on,1,0,0,,10,,,69,127
62754,note_on,0,0,0,,5,,,65,127
62863,note_off,109,0,0,,10,,,69,127
62864,note_on,1,0,0,,0,,,72,127
62973,note_off,109,0,0,,0,,,72,127
62973,note_off,0,0,0,,5,,,65,127
62974,note_on,1,0,0,,12,,,71,127
62974,note_on,0,0,0,,2,,,62,127
63083,note_off,109,0,0,,12,,,71,127
63084,note_on,1,0,0,,2,,,74,127
63193,note_off,109,0,0,,2,,,62,127
63194,note_on,1,0,0,,4,,,64,127
63279,note_off,85,0,0,,2,,,74,127
63304,note_on,25,0,0,,0,,,72,127
63413,note_off,109,0,0,,4,,,64,127
63414,note_on,1,0,0,,0,,,60,127
63523,note_off,109,0,0,,0,,,72,127
63524,note_on,1,0,0,,7,,,67,127
63633,note_off,109,0,0,,7,,,67,127
63633,note_off,0,0,0,,0,,,60,127
63634,note_on,1,0,0,,10,,,69,127
63634,note_on,0,0,0,,5,,,65,127
63743,note_off,109,0,0,,10,,,69,127
63744,note_on,1,0,0,,0,,,72,127
63853,note_off,109,0,0,,0,,,72,127
63853,note_off,0,0,0,,5,,,65,127
63854,note_on,1,0,0,,12,,,71,127
63854,note_on,0,0,0,,2,,,62,127
63963,note_off,109,0,0,,12,,,71,127
63964,note_on,1,0,0,,2,,,74,127
64073,note_off,109,0,0,,2,,,62,127
64074,note_on,1,0,0,,4,,,64,127
64159,note_off,85,0,0,,2,,,74,127
64184,note_on,25,0,0,,0,,,72,127
64293,note_off,109,0,0,,4,,,64,127
64294,note_on,1,0,0,,5,,,65,127
64403,note_off,109,0,0,,0,,,72,127
64404,note_on,1,0,0,,0,,,72,127
64513,note_off,109,0,0,,0,,,72,127
64513,note_off,0,0,0,,5,,,65,127
64514,note_on,1,0,0,,2,,,74,127
64514,note_on,0,0,0,,11,,,70,127
64623,note_off,109,0,0,,2,,,74,127
64624,note_on,1,0,0,,5,,,77,127
64733,note_off,109,0,0,,5,,,77,127
64733,note_off,0,0,0,,11,,,70,127
64734,note_on,1,0,0,,4,,,76,127
64734,note_on,0,0,0,,7,,,67,127
64843,note_off,109,0,0,,4,,,76,127
64844,note_on,1,0,0,,7,,,79,127
64953,note_off,109,0,0,,7,,,67,127
64954,note_on,1,0,0,,10,,,69,127
65039,note_off,85,0,0,,7,,,79,127
65064,note_on,25,0,0,,5,,,77,127
65173,note_off,109,0,0,,10,,,69,127
65174,note_on,1,0,0,,5,,,65,127
65283,note_off,109,0,0,,5,,,77,127
65284,note_on,1,0,0,,0,,,72,127
65393,note_off,109,0,0,,0,,,72,127
65393,note_off,0,0,0,,5,,,65,127
65394,note_on,1,0,0,,2,,,74,127
65394,note_on,0,0,0,,11,,,70,127
65503,note_off,109,0,0,,2,,,74,127
65504,note_on,1,0,0,,5,,,77,127
65613,note_off,109,0,0,,5,,,77,127
65613,note_off,0,0,0,,11,,,70,127
65614,note_on,1,0,0,,4,,,76,127
65614,note_on,0,0,0,,7,,,67,127
65723,note_off,109,0,0,,4,,,76,127
65724,note_on,1,0,0,,7,,,79,127
65831,note_off,107,0,0,,7,,,67,127
65832,note_off,1,0,0,,7,,,79,127
65833,note_on,1,0,0,,5,,,77,127
66050,note_off,217,0,0,,5,,,77,127
66052,note_on,2,0,0,,5,,,53,127
66271,note_on,219,0,0,,0,,,72,127
66380,note_off,109,0,0,,5,,,53,127
66381,note_on,1,0,0,,7,,,55,127
66435,note_off,54,0,0,,7,,,55,127
66436,note_on,1,0,0,,10,,,57,127
66490,note_off,54,0,0,,10,,,57,127
66491,note_on,1,0,0,,11,,,58,127
66545,note_off,54,0,0,,11,,,58,127
66546,note_on,1,0,0,,0,,,60,127
66600,note_off,54,0,0,,0,,,60,127
66601,note_on,1,0,0,,2,,,62,127
66655,note_off,54,0,0,,2,,,62,127
66656,note_on,1,0,0,,4,,,64,127
66710,note_off,54,0,0,,4,,,64,127
66711,note_on,1,0,0,,5,,,65,127
66765,note_off,54,0,0,,0,,,72,127
66766,note_on,1,0,0,,2,,,74,127
66820,note_off,54,0,0,,2,,,74,127
66821,note_on,1,0,0,,4,,,76,127
66875,note_off,54,0,0,,4,,,76,127
66876,note_on,1,0,0,,5,,,77,127
66930,note_off,54,0,0,,5,,,77,127
66931,note_on,1,0,0,,7,,,79,127
66985,note_off,54,0,0,,7,,,79,127
66986,note_on,1,0,0,,10,,,81,127
67040,note_off,54,0,0,,10,,,81,127
67041,note_on,1,0,0,,11,,,82,127
67095,note_off,54,0,0,,11,,,82,127
67096,note_on,1,0,0,,0,,,84,127
67150,note_off,54,0,0,,0,,,84,127
67150,note_off,0,0,0,,5,,,65,127
67151,note_on,1,0,0,,2,,,86,127
67151,note_on,0,0,0,,4,,,64,127
67260,note_off,109,0,0,,2,,,86,127
67261,note_on,1,0,0,,0,,,84,127
67370,note_off,109,0,0,,4,,,64,127
67371,note_on,1,0,0,,0,,,60,127
67456,note_off,85,0,0,,0,,,84,127
67481,note_on,25,0,0,,11,,,82,127
67590,note_off,109,0,0,,0,,,60,127
67591,note_on,1,0,0,,5,,,65,127
67700,note_off,109,0,0,,11,,,82,127
67701,note_on,1,0,0,,10,,,81,127
67810,note_off,109,0,0,,10,,,81,127
67810,note_off,0,0,0,,5,,,65,127
67811,note_on,1,0,0,,7,,,79,127
67811,note_on,0,0,0,,10,,,57,127
67920,note_off,109,0,0,,7,,,79,127
67921,note_on,1,0,0,,5,,,77,127
68030,note_off,109,0,0,,5,,,77,127
68030,note_off,0,0,0,,10,,,57,127
68031,note_on,1,0,0,,10,,,81,127
68031,note_on,0,0,0,,11,,,58,127
68140,note_off,109,0,0,,10,,,81,127
68141,note_on,1,0,0,,7,,,79,127
68250,note_off,109,0,0,,7,,,79,127
68250,note_off,0,0,0,,11,,,58,127
68251,note_on,1,0,0,,5,,,77,127
68251,note_on,0,0,0,,0,,,60,127
68360,note_off,109,0,0,,5,,,77,127
68361,note_on,1,0,0,,4,,,76,127
68468,note_off,107,0,0,,0,,,60,127
68469,note_off,1,0,0,,4,,,76,127
68470,note_on,1,0,0,,5,,,77,127
68689,note_on,219,0,0,,5,,,53,127
68799,note_off,110,0,0,,5,,,77,127
68909,note_on,110,0,0,,0,,,72,127
69018,note_off,109,0,0,,5,,,53,127
69019,note_on,1,0,0,,7,,,55,127
69073,note_off,54,0,0,,7,,,55,127
69074,note_on,1,0,0,,10,,,57,127
69128,note_off,54,0,0,,10,,,57,127
69129,note_on,1,0,0,,11,,,58,127
69183,note_off,54,0,0,,11,,,58,127
69184,note_on,1,0,0,,0,,,60,127
69238,note_off,54,0,0,,0,,,60,127
69239,note_on,1,0,0,,2,,,62,127
69293,note_off,54,0,0,,2,,,62,127
69294,note_on,1,0,0,,4,,,64,127
69348,note_off,54,0,0,,4,,,64,127
69349,note_on,1,0,0,,5,,,65,127
69403,note_off,54,0,0,,0,,,72,127
69404,note_on,1,0,0,,2,,,74,127
69458,note_off,54,0,0,,2,,,74,127
69459,note_on,1,0,0,,4,,,76,127
69513,note_off,54,0,0,,4,,,76,127
69514,note_on,1,0,0,,5,,,77,127
69568,note_off,54,0,0,,5,,,77,127
69569,note_on,1,0,0,,7,,,79,127
69623,note_off,54,0,0,,7,,,79,127
69624,note_on,1,0,0,,10,,,81,127
69678,note_off,54,0,0,,10,,,81,127
69679,note_on,1,0,0,,11,,,82,127
69733,note_off,54,0,0,,11,,,82,127
69734,note_on,1,0,0,,0,,,84,127
69788,note_off,54,0,0,,0,,,84,127
69788,note_off,0,0,0,,5,,,65,127
69789,note_on,1,0,0,,2,,,86,127
69789,note_on,0,0,0,,4,,,64,127
69898,note_off,109,0,0,,2,,,86,127
69899,note_on,1,0,0,,0,,,84,127
70008,note_off,109,0,0,,4,,,64,127
70009,note_on,1,0,0,,0,,,60,127
70094,note_off,85,0,0,,0,,,84,127
70119,note_on,25,0,0,,11,,,82,127
70228,note_off,109,0,0,,0,,,60,127
70229,note_on,1,0,0,,5,,,65,127
70338,note_off,109,0,0,,11,,,82,127
70339,note_on,1,0,0,,10,,,81,127
70448,note_off,109,0,0,,10,,,81,127
70448,note_off,0,0,0,,5,,,65,127
70449,note_on,1,0,0,,7,,,79,127
70449,note_on,0,0,0,,10,,,57,127
70558,note_off,109,0,0,,7,,,79,127
70559,note_on,1,0,0,,5,,,77,127
70668,note_off,109,0,0,,5,,,77,127
70668,note_off,0,0,0,,10,,,57,127
70669,note_on,1,0,0,,10,,,81,127
70669,note_on,0,0,0,,11,,,58,127
70778,note_off,109,0,0,,10,,,81,127
70779,note_on,1,0,0,,7,,,79,127
70888,note_off,109,0,0,,7,,,79,127
70888,note_off,0,0,0,,11,,,58,127
70889,note_on,1,0,0,,5,,,77,127
70889,note_on,0,0,0,,0,,,60,127
70998,note_off,109,0,0,,5,,,77,127
70999,note_on,1,0,0,,4,,,76,127
71108,note_off,109,0,0,,4,,,76,127
71108,note_off,0,0,0,,0,,,60,127
71109,note_on,1,0,0,,5,,,77,127
71109,note_on,0,0,0,,5,,,53,127
71327,note_off,218,0,0,,5,,,53,127
71328,note_on,1,0,0,,10,,,81,127
71546,note_off,218,0,0,,5,,,77,127
71547,note_on,1,0,0,,5,,,77,127
71601,note_off,54,0,0,,5,,,77,127
71602,note_on,1,0,0,,3,,,75,127
71656,note_off,54,0,0,,3,,,75,127
71657,note_on,1,0,0,,5,,,77,127
71711,note_off,54,0,0,,5,,,77,127
71712,note_on,1,0,0,,3,,,75,127
71766,note_off,54,0,0,,3,,,75,127
71766,note_off,0,0,0,,10,,,81,127
71767,note_on,1,0,0,,5,,,77,127
71767,note_on,0,0,0,,11,,,82,127
71821,note_off,54,0,0,,5,,,77,127
71822,note_on,1,0,0,,3,,,75,127
71876,note_off,54,0,0,,3,,,75,127
71876,note_off,0,0,0,,11,,,82,127
71877,note_on,1,0,0,,2,,,74,127
71877,note_on,0,0,0,,0,,,84,127
71931,note_off,54,0,0,,2,,,74,127
71932,note_on,1,0,0,,0,,,72,127
71986,note_off,54,0,0,,0,,,72,127
71986,note_off,0,0,0,,0,,,84,127
71987,note_on,1,0,0,,11,,,70,127
71987,note_on,0,0,0,,2,,,86,127
72193,note_off,206,0,0,,2,,,86,127
72207,note_on,14,0,0,,4,,,76,127
72425,note_off,218,0,0,,11,,,70,127
72426,note_on,1,0,0,,0,,,72,127
72480,note_off,54,0,0,,0,,,72,127
72481,note_on,1,0,0,,11,,,70,127
72535,note_off,54,0,0,,11,,,70,127
72536,note_on,1,0,0,,0,,,72,127
72590,note_off,54,0,0,,0,,,72,127
72591,note_on,1,0,0,,11,,,70,127
72645,note_off,54,0,0,,11,,,70,127
72645,note_off,0,0,0,,4,,,76,127
72646,note_on,1,0,0,,0,,,72,127
72646,note_on,0,0,0,,5,,,77,127
72700,note_off,54,0,0,,0,,,72,127
72701,note_on,1,0,0,,11,,,70,127
72755,note_off,54,0,0,,11,,,70,127
72755,note_off,0,0,0,,5,,,77,127
72756,note_on,1,0,0,,10,,,69,127
72756,note_on,0,0,0,,7,,,79,127
72810,note_off,54,0,0,,10,,,69,127
72811,note_on,1,0,0,,7,,,67,127
72865,note_off,54,0,0,,7,,,67,127
72865,note_off,0,0,0,,7,,,79,127
72866,note_on,1,0,0,,5,,,65,127
72866,note_on,0,0,0,,10,,,81,127
73072,note_off,206,0,0,,10,,,81,127
73086,note_on,14,0,0,,12,,,71,127
73304,note_off,218,0,0,,5,,,65,127
73305,note_on,1,0,0,,7,,,67,127
73359,note_off,54,0,0,,7,,,67,127
73360,note_on,1,0,0,,5,,,65,127
73414,note_off,54,0,0,,5,,,65,127
73415,note_on,1,0,0,,7,,,67,127
73469,note_off,54,0,0,,7,,,67,127
73470,note_on,1,0,0,,5,,,65,127
73524,note_off,54,0,0,,5,,,65,127
73524,note_off,0,0,0,,12,,,71,127
73525,note_on,1,0,0,,7,,,67,127
73525,note_on,0,0,0,,0,,,72,127
73579,note_off,54,0,0,,7,,,67,127
73580,note_on,1,0,0,,5,,,65,127
73634,note_off,54,0,0,,5,,,65,127
73634,note_off,0,0,0,,0,,,72,127
73635,note_on,1,0,0,,4,,,64,127
73635,note_on,0,0,0,,2,,,74,127
73689,note_off,54,0,0,,4,,,64,127
73690,note_on,1,0,0,,2,,,62,127
73744,note_off,54,0,0,,2,,,62,127
73744,note_off,0,0,0,,2,,,74,127
73745,note_on,1,0,0,,0,,,60,127
73745,note_on,0,0,0,,4,,,76,127
73962,note_off,217,0,0,,0,,,60,127
73963,note_off,1,0,0,,4,,,76,127
73964,note_on,1,0,0,,0,,,60,127
74074,note_on,110,0,0,,5,,,77,127
74183,note_off,109,0,0,,5,,,77,127
74184,note_on,1,0,0,,7,,,79,127
74293,note_off,109,0,0,,7,,,79,127
74294,note_on,1,0,0,,0,,,72,127
74403,note_off,109,0,0,,0,,,72,127
74403,note_off,0,0,0,,0,,,60,127
74404,note_on,1,0,0,,11,,,82,127
74404,note_on,0,0,0,,4,,,64,127
74513,note_off,109,0,0,,11,,,82,127
74514,note_on,1,0,0,,7,,,79,127
74623,note_off,109,0,0,,7,,,79,127
74623,note_off,0,0,0,,4,,,64,127
74624,note_on,1,0,0,,10,,,81,127
74624,note_on,0,0,0,,5,,,65,127
74733,note_off,109,0,0,,10,,,81,127
74734,note_on,1,0,0,,5,,,77,127
74843,note_off,109,0,0,,5,,,77,127
74843,note_off,0,0,0,,5,,,65,127
74844,note_on,1,0,0,,2,,,86,127
74844,note_on,0,0,0,,11,,,58,127
74953,note_off,109,0,0,,2,,,86,127
74954,note_on,1,0,0,,5,,,77,127
75063,note_off,109,0,0,,5,,,77,127
75063,note_off,0,0,0,,11,,,58,127
75064,note_on,1,0,0,,10,,,81,127
75064,note_on,0,0,0,,0,,,60,127
75282,note_off,218,0,0,,0,,,60,127
75282,note_off,0,0,0,,10,,,81,127
75283,note_on,1,0,0,,10,,,81,127
75283,note_on,0,0,0,,0,,,48,127
75337,note_off,54,0,0,,10,,,81,127
75338,note_on,1,0,0,,7,,,79,127
75392,note_off,54,0,0,,7,,,79,127
75393,note_on,1,0,0,,5,,,77,127
75447,note_off,54,0,0,,5,,,77,127
75448,note_on,1,0,0,,7,,,79,127
75502,note_off,54,0,0,,7,,,79,127
75502,note_off,0,0,0,,0,,,48,127
75503,note_on,1,0,0,,5,,,77,127
75503,note_on,0,0,0,,5,,,53,127
75721,note_off,218,0,0,,5,,,53,127
75722,note_on,1,0,0,,10,,,69,127
75940,note_off,218,0,0,,5,,,77,127
75941,note_on,1,0,0,,5,,,65,127
75995,note_off,54,0,0,,5,,,65,127
75996,note_on,1,0,0,,3,,,63,127
76050,note_off,54,0,0,,3,,,63,127
76051,note_on,1,0,0,,5,,,65,127
76105,note_off,54,0,0,,5,,,65,127
76106,note_on,1,0,0,,3,,,63,127
76160,note_off,54,0,0,,3,,,63,127
76160,note_off,0,0,0,,10,,,69,127
76161,note_on,1,0,0,,5,,,65,127
76161,note_on,0,0,0,,11,,,70,127
76215,note_off,54,0,0,,5,,,65,127
76216,note_on,1,0,0,,3,,,63,127
76270,note_off,54,0,0,,3,,,63,127
76270,note_off,0,0,0,,11,,,70,127
76271,note_on,1,0,0,,2,,,62,127
76271,note_on,0,0,0,,0,,,72,127
76325,note_off,54,0,0,,2,,,62,127
76326,note_on,1,0,0,,0,,,60,127
76380,note_off,54,0,0,,0,,,60,127
76380,note_off,0,0,0,,0,,,72,127
76381,note_on,1,0,0,,11,,,58,127
76381,note_on,0,0,0,,2,,,74,127
76575,note_off,194,0,0,,2,,,74,127
76600,note_on,25,0,0,,4,,,64,127
76818,note_off,218,0,0,,11,,,58,127
76819,note_on,1,0,0,,0,,,60,127
76873,note_off,54,0,0,,0,,,60,127
76874,note_on,1,0,0,,11,,,58,127
76928,note_off,54,0,0,,11,,,58,127
76929,note_on,1,0,0,,0,,,60,127
76983,note_off,54,0,0,,0,,,60,127
76984,note_on,1,0,0,,11,,,58,127
77038,note_off,54,0,0,,11,,,58,127
77038,note_off,0,0,0,,4,,,64,127
77039,note_on,1,0,0,,0,,,60,127
77039,note_on,0,0,0,,5,,,65,127
77093,note_off,54,0,0,,0,,,60,127
77094,note_on,1,0,0,,11,,,58,127
77148,note_off,54,0,0,,11,,,58,127
77148,note_off,0,0,0,,5,,,65,127
77149,note_on,1,0,0,,10,,,57,127
77149,note_on,0,0,0,,7,,,67,127
77203,note_off,54,0,0,,10,,,57,127
77204,note_on,1,0,0,,7,,,55,127
77258,note_off,54,0,0,,7,,,55,127
77258,note_off,0,0,0,,7,,,67,127
77259,note_on,1,0,0,,5,,,53,127
77259,note_on,0,0,0,,10,,,69,127
77453,note_off,194,0,0,,10,,,69,127
77478,note_on,25,0,0,,12,,,59,127
77696,note_off,218,0,0,,5,,,53,127
77697,note_on,1,0,0,,7,,,55,127
77751,note_off,54,0,0,,7,,,55,127
77752,note_on,1,0,0,,5,,,53,127
77806,note_off,54,0,0,,5,,,53,127
77807,note_on,1,0,0,,7,,,55,127
77861,note_off,54,0,0,,7,,,55,127
77862,note_on,1,0,0,,5,,,53,127
77916,note_off,54,0,0,,5,,,53,127
77916,note_off,0,0,0,,12,,,59,127
77917,note_on,1,0,0,,7,,,55,127
77917,note_on,0,0,0,,0,,,60,127
77971,note_off,54,0,0,,7,,,55,127
77972,note_on,1,0,0,,5,,,53,127
78026,note_off,54,0,0,,5,,,53,127
78026,note_off,0,0,0,,0,,,60,127
78027,note_on,1,0,0,,4,,,52,127
78027,note_on,0,0,0,,2,,,62,127
78081,note_off,54,0,0,,4,,,52,127
78082,note_on,1,0,0,,2,,,50,127
78136,note_off,54,0,0,,2,,,50,127
78136,note_off,0,0,0,,2,,,62,127
78137,note_on,1,0,0,,0,,,48,127
78137,note_on,0,0,0,,4,,,64,127
78354,note_off,217,0,0,,0,,,48,127
78355,note_off,1,0,0,,4,,,64,127
78356,note_on,1,0,0,,0,,,48,127
78466,note_on,110,0,0,,5,,,65,127
78575,note_off,109,0,0,,5,,,65,127
78576,note_on,1,0,0,,7,,,67,127
78685,note_off,109,0,0,,7,,,67,127
78686,note_on,1,0,0,,0,,,60,127
78795,note_off,109,0,0,,0,,,60,127
78795,note_off,0,0,0,,0,,,48,127
78796,note_on,1,0,0,,11,,,70,127
78796,note_on,0,0,0,,4,,,52,127
78905,note_off,109,0,0,,11,,,70,127
78906,note_on,1,0,0,,7,,,67,127
79015,note_off,109,0,0,,7,,,67,127
79015,note_off,0,0,0,,4,,,52,127
79016,note_on,1,0,0,,10,,,69,127
79016,note_on,0,0,0,,5,,,53,127
79125,note_off,109,0,0,,10,,,69,127
79126,note_on,1,0,0,,5,,,65,127
79235,note_off,109,0,0,,5,,,65,127
79235,note_off,0,0,0,,5,,,53,127
79236,note_on,1,0,0,,2,,,74,127
79236,note_on,0,0,0,,11,,,58,127
79345,note_off,109,0,0,,2,,,74,127
79346,note_on,1,0,0,,5,,,65,127
79455,note_off,109,0,0,,5,,,65,127
79455,note_off,0,0,0,,11,,,58,127
79456,note_on,1,0,0,,10,,,69,127
79456,note_on,0,0,0,,0,,,60,127
79674,note_off,218,0,0,,0,,,60,127
79674,note_off,0,0,0,,10,,,69,127
79675,note_on,1,0,0,,10,,,69,127
79675,note_on,0,0,0,,0,,,48,127
79729,note_off,54,0,0,,10,,,69,127
79730,note_on,1,0,0,,7,,,67,127
79784,note_off,54,0,0,,7,,,67,127
79785,note_on,1,0,0,,5,,,65,127
79839,note_off,54,0,0,,5,,,65,127
79840,note_on,1,0,0,,7,,,67,127
79894,note_off,54,0,0,,7,,,67,127
79894,note_off,0,0,0,,0,,,48,127
79895,note_on,1,0,0,,5,,,65,127
79895,note_on,0,0,0,,5,,,41,127
80004,note_off,109,0,0,,5,,,65,127
80005,note_on,1,0,0,,5,,,77,127
80114,note_off,109,0,0,,5,,,77,127
80114,note_off,0,0,0,,5,,,41,127
80115,note_on,1,0,0,,3,,,75,127
80115,note_on,0,0,0,,5,,,53,127
80224,note_off,109,0,0,,3,,,75,127
80225,note_on,1,0,0,,0,,,72,127
80334,note_off,109,0,0,,0,,,72,127
80335,note_on,1,0,0,,1,,,73,127
80444,note_off,109,0,0,,1,,,73,127
80445,note_on,1,0,0,,2,,,74,127
80504,note_off,59,0,0,,5,,,53,127
80553,note_off,49,0,0,,2,,,74,127
80554,note_on,1,0,0,,4,,,76,127
80554,note_on,0,0,0,,11,,,58,127
80663,note_off,109,0,0,,4,,,76,127
80664,note_on,1,0,0,,5,,,77,127
80773,note_off,109,0,0,,5,,,77,127
80774,note_on,1,0,0,,7,,,79,127
80883,note_off,109,0,0,,7,,,79,127
80884,note_on,1,0,0,,10,,,81,127
80966,note_off,82,0,0,,11,,,58,127
80992,note_off,26,0,0,,10,,,81,127
80993,note_on,1,0,0,,11,,,82,127
80993,note_on,0,0,0,,10,,,57,127
81102,note_off,109,0,0,,11,,,82,127
81103,note_on,1,0,0,,0,,,84,127
81212,note_off,109,0,0,,0,,,84,127
81212,note_off,0,0,0,,10,,,57,127
81213,note_on,1,0,0,,10,,,81,127
81213,note_on,0,0,0,,11,,,58,127
81267,note_off,54,0,0,,10,,,81,127
81268,note_on,1,0,0,,7,,,79,127
81322,note_off,54,0,0,,7,,,79,127
81323,note_on,1,0,0,,10,,,81,127
81377,note_off,54,0,0,,10,,,81,127
81378,note_on,1,0,0,,7,,,79,127
81432,note_off,54,0,0,,7,,,79,127
81432,note_off,0,0,0,,11,,,58,127
81433,note_on,1,0,0,,10,,,81,127
81433,note_on,0,0,0,,0,,,60,127
81487,note_off,54,0,0,,10,,,81,127
81488,note_on,1,0,0,,7,,,79,127
81542,note_off,54,0,0,,7,,,79,127
81543,note_on,1,0,0,,5,,,77,127
81597,note_off,54,0,0,,5,,,77,127
81598,note_on,1,0,0,,7,,,79,127
81652,note_off,54,0,0,,7,,,79,127
81652,note_off,0,0,0,,0,,,60,127
81653,note_on,1,0,0,,5,,,77,127
81653,note_on,0,0,0,,5,,,53,127
81762,note_off,109,0,0,,5,,,77,127
81763,note_on,1,0,0,,5,,,77,127
81872,note_off,109,0,0,,5,,,77,127
81872,note_off,0,0,0,,5,,,53,127
81873,note_on,1,0,0,,3,,,75,127
81873,note_on,0,0,0,,10,,,57,127
81982,note_off,109,0,0,,3,,,75,127
81983,note_on,1,0,0,,0,,,72,127
82092,note_off,109,0,0,,0,,,72,127
82092,note_off,0,0,0,,10,,,57,127
82093,note_on,1,0,0,,1,,,73,127
82093,note_on,0,0,0,,11,,,58,127
82202,note_off,109,0,0,,1,,,73,127
82203,note_on,1,0,0,,2,,,74,127
82312,note_off,109,0,0,,2,,,74,127
82312,note_off,0,0,0,,11,,,58,127
82313,note_on,1,0,0,,0,,,72,127
82313,note_on,0,0,0,,10,,,57,127
82422,note_off,109,0,0,,0,,,72,127
82423,note_on,1,0,0,,10,,,69,127
82532,note_off,109,0,0,,10,,,69,127
82532,note_off,0,0,0,,10,,,57,127
82533,note_on,1,0,0,,4,,,76,127
82533,note_on,0,0,0,,7,,,55,127
82643,note_on,110,0,0,,11,,,70,127
82670,note_off,27,0,0,,4,,,76,127
82751,note_off,81,0,0,,11,,,70,127
82751,note_off,0,0,0,,7,,,55,127
82752,note_on,1,0,0,,5,,,77,127
82752,note_on,0,0,0,,5,,,53,127
82862,note_on,110,0,0,,5,,,65,127
82969,note_off,107,0,0,,5,,,77,127
82970,note_off,1,0,0,,5,,,65,127
82970,note_off,0,0,0,,5,,,53,127
82971,note_on,1,0,0,,10,,,69,127
82971,note_on,0,0,0,,5,,,65,127
82971,note_on,0,0,0,,11,,,46,127
83189,note_off,218,0,0,,11,,,46,127
83189,note_off,0,0,0,,5,,,65,127
83189,note_off,0,0,0,,10,,,69,127
83207,note_on,18,0,0,,0,,,48,127
83207,note_on,0,0,0,,4,,,64,127
83207,note_on,0,0,0,,10,,,69,127
83264,note_off,57,0,0,,10,,,69,127
83270,note_on,6,0,0,,7,,,67,127
83327,note_off,57,0,0,,7,,,67,127
83332,note_on,5,0,0,,5,,,65,127
83389,note_off,57,0,0,,5,,,65,127
83394,note_on,5,0,0,,7,,,67,127
83450,note_off,56,0,0,,4,,,64,127
83451,note_off,1,0,0,,7,,,67,127
83451,note_off,0,0,0,,0,,,48,127
83465,note_on,14,0,0,,5,,,41,127
83465,note_on,0,0,0,,5,,,65,127
85604,note_off,2139,0,0,,5,,,65,127
85604,note_off,0,0,0,,5,,,41,127
87552,end_of_track,1948,1,0,,,,,,
