tick,type,time,meta,track,program,channel,pitch,tempo,note,velocity
0,copyright,0,1,0,,,,,,
0,program_change,0,0,0,6,0,,,,
0,pitchwheel,0,0,0,,0,0,,,
0,program_change,0,0,0,6,1,,,,
0,pitchwheel,0,0,0,,1,-590,,,
0,program_change,0,0,0,6,2,,,,
0,pitchwheel,0,0,0,,2,-272,,,
0,program_change,0,0,0,6,3,,,,
0,pitchwheel,0,0,0,,3,-353,,,
0,program_change,0,0,0,6,4,,,,
0,pitchwheel,0,0,0,,4,-560,,,
0,program_change,0,0,0,6,5,,,,
0,pitchwheel,0,0,0,,5,-80,,,
0,program_change,0,0,0,6,6,,,,
0,pitchwheel,0,0,0,,6,-625,,,
0,program_change,0,0,0,6,7,,,,
0,pitchwheel,0,0,0,,7,-130,,,
0,program_change,0,0,0,6,8,,,,
0,pitchwheel,0,0,0,,8,-512,,,
0,program_change,0,0,0,6,10,,,,
0,pitchwheel,0,0,0,,10,-464,,,
0,program_change,0,0,0,6,11,,,,
0,pitchwheel,0,0,0,,11,-208,,,
0,program_change,0,0,0,6,12,,,,
0,pitchwheel,0,0,0,,12,-553,,,
0,set_tempo,0,1,0,,,,500000,,
92,note_on,92,0,0,,5,,,65,127
92,note_on,0,0,0,,10,,,81,127
275,note_off,183,0,0,,5,,,65,127
276,note_on,1,0,0,,5,,,53,127
336,note_off,60,0,0,,10,,,81,127
337,note_on,1,0,0,,7,,,79,127
368,note_on,31,0,0,,5,,,77,127
385,note_off,17,0,0,,7,,,79,127
398,note_on,13,0,0,,4,,,76,127
415,note_off,17,0,0,,5,,,77,127
428,note_on,13,0,0,,2,,,74,127
445,note_off,17,0,0,,4,,,76,127
458,note_on,13,0,0,,0,,,72,127
475,note_off,17,0,0,,2,,,74,127
641,note_off,166,0,0,,0,,,72,127
642,note_on,1,0,0,,10,,,81,127
734,note_off,92,0,0,,5,,,53,127
825,note_off,91,0,0,,10,,,81,127
826,note_on,1,0,0,,11,,,82,127
1009,note_off,183,0,0,,11,,,82,127
1010,note_on,1,0,0,,5,,,65,127
1010,note_on,0,0,0,,0,,,84,127
1010,note_on,0,0,0,,0,,,72,127
1193,note_off,183,0,0,,0,,,72,127
1193,note_off,0,0,0,,0,,,84,127
1193,note_off,0,0,0,,5,,,65,127
1194,note_on,1,0,0,,11,,,58,127
1194,note_on,0,0,0,,11,,,82,127
1194,note_on,0,0,0,,2,,,74,127
1377,note_off,183,0,0,,11,,,82,127
1378,note_on,1,0,0,,10,,,81,127
1558,note_off,180,0,0,,2,,,74,127
1561,note_off,3,0,0,,10,,,81,127
1561,note_off,0,0,0,,11,,,58,127
1562,note_on,1,0,0,,0,,,60,127
1562,note_on,0,0,0,,4,,,76,127
1562,note_on,0,0,0,,7,,,79,127
1745,note_off,183,0,0,,7,,,79,127
1745,note_off,0,0,0,,4,,,76,127
1745,note_off,0,0,0,,0,,,60,127
1746,note_on,1,0,0,,5,,,53,127
1746,note_on,0,0,0,,10,,,81,127
1929,note_off,183,0,0,,5,,,53,127
1930,note_on,1,0,0,,5,,,41,127
1990,note_off,60,0,0,,10,,,81,127
1991,note_on,1,0,0,,7,,,79,127
2022,note_on,31,0,0,,5,,,77,127
2039,note_off,17,0,0,,7,,,79,127
2052,note_on,13,0,0,,4,,,76,127
2069,note_off,17,0,0,,5,,,77,127
2082,note_on,13,0,0,,2,,,74,127
2099,note_off,17,0,0,,4,,,76,127
2112,note_on,13,0,0,,0,,,72,127
2129,note_off,17,0,0,,2,,,74,127
2295,note_off,166,0,0,,0,,,72,127
2296,note_on,1,0,0,,10,,,81,127
2479,note_off,183,0,0,,10,,,81,127
2479,note_off,0,0,0,,5,,,41,127
2480,note_on,1,0,0,,11,,,82,127
2663,note_off,183,0,0,,11,,,82,127
2664,note_on,1,0,0,,5,,,65,127
2664,note_on,0,0,0,,0,,,72,127
2664,note_on,0,0,0,,0,,,84,127
2847,note_off,183,0,0,,0,,,84,127
2847,note_off,0,0,0,,0,,,72,127
2847,note_off,0,0,0,,5,,,65,127
2848,note_on,1,0,0,,11,,,58,127
2848,note_on,0,0,0,,2,,,74,127
2848,note_on,0,0,0,,11,,,82,127
3031,note_off,183,0,0,,11,,,82,127
3032,note_on,1,0,0,,10,,,81,127
3212,note_off,180,0,0,,2,,,74,127
3215,note_off,3,0,0,,10,,,81,127
3215,note_off,0,0,0,,11,,,58,127
3216,note_on,1,0,0,,0,,,60,127
3216,note_on,0,0,0,,7,,,79,127
3216,note_on,0,0,0,,4,,,76,127
3399,note_off,183,0,0,,4,,,76,127
3399,note_off,0,0,0,,7,,,79,127
3399,note_off,0,0,0,,0,,,60,127
3400,note_on,1,0,0,,5,,,65,127
3400,note_on,0,0,0,,10,,,81,127
3400,note_on,0,0,0,,5,,,77,127
3491,note_off,91,0,0,,5,,,65,127
3492,note_on,1,0,0,,10,,,69,127
3583,note_off,91,0,0,,10,,,69,127
3584,note_on,1,0,0,,7,,,67,127
3675,note_off,91,0,0,,7,,,67,127
3676,note_on,1,0,0,,10,,,69,127
3767,note_off,91,0,0,,10,,,69,127
3768,note_on,1,0,0,,5,,,65,127
3859,note_off,91,0,0,,5,,,65,127
3860,note_off,1,0,0,,5,,,77,127
3860,note_off,0,0,0,,10,,,81,127
3860,note_on,0,0,0,,10,,,69,127
3951,note_off,91,0,0,,10,,,69,127
3952,note_on,1,0,0,,7,,,67,127
3952,note_on,0,0,0,,11,,,82,127
4043,note_off,91,0,0,,7,,,67,127
4044,note_on,1,0,0,,11,,,70,127
4135,note_off,91,0,0,,11,,,70,127
4135,note_off,0,0,0,,11,,,82,127
4136,note_on,1,0,0,,4,,,64,127
4136,note_on,0,0,0,,7,,,79,127
4227,note_off,91,0,0,,4,,,64,127
4228,note_on,1,0,0,,7,,,67,127
4319,note_off,91,0,0,,7,,,67,127
4319,note_off,0,0,0,,7,,,79,127
4320,note_on,1,0,0,,0,,,60,127
4320,note_on,0,0,0,,0,,,84,127
4411,note_off,91,0,0,,0,,,60,127
4412,note_on,1,0,0,,4,,,64,127
4503,note_off,91,0,0,,4,,,64,127
4503,note_off,0,0,0,,0,,,84,127
4504,note_on,1,0,0,,5,,,65,127
4504,note_on,0,0,0,,11,,,82,127
4595,note_off,91,0,0,,5,,,65,127
4596,note_on,1,0,0,,10,,,69,127
4687,note_off,91,0,0,,10,,,69,127
4688,note_on,1,0,0,,7,,,67,127
4779,note_off,91,0,0,,7,,,67,127
4780,note_on,1,0,0,,10,,,69,127
4871,note_off,91,0,0,,10,,,69,127
4871,note_off,0,0,0,,11,,,82,127
4872,note_on,1,0,0,,5,,,65,127
4872,note_on,0,0,0,,10,,,81,127
4963,note_off,91,0,0,,5,,,65,127
4964,note_on,1,0,0,,10,,,69,127
5055,note_off,91,0,0,,10,,,69,127
5055,note_off,0,0,0,,10,,,81,127
5056,note_on,1,0,0,,7,,,67,127
5056,note_on,0,0,0,,11,,,82,127
5147,note_off,91,0,0,,7,,,67,127
5148,note_on,1,0,0,,11,,,70,127
5239,note_off,91,0,0,,11,,,70,127
5239,note_off,0,0,0,,11,,,82,127
5240,note_on,1,0,0,,4,,,64,127
5240,note_on,0,0,0,,7,,,79,127
5331,note_off,91,0,0,,4,,,64,127
5332,note_on,1,0,0,,7,,,67,127
5423,note_off,91,0,0,,7,,,67,127
5423,note_off,0,0,0,,7,,,79,127
5424,note_on,1,0,0,,0,,,60,127
5424,note_on,0,0,0,,0,,,84,127
5515,note_off,91,0,0,,0,,,60,127
5516,note_on,1,0,0,,4,,,64,127
5607,note_off,91,0,0,,4,,,64,127
5607,note_off,0,0,0,,0,,,84,127
5608,note_on,1,0,0,,5,,,65,127
5608,note_on,0,0,0,,10,,,81,127
5699,note_off,91,0,0,,5,,,65,127
5700,note_on,1,0,0,,10,,,69,127
5791,note_off,91,0,0,,10,,,69,127
5791,note_off,0,0,0,,10,,,81,127
5792,note_on,1,0,0,,4,,,64,127
5792,note_on,0,0,0,,7,,,79,127
5883,note_off,91,0,0,,4,,,64,127
5884,note_on,1,0,0,,7,,,67,127
5975,note_off,91,0,0,,7,,,67,127
5975,note_off,0,0,0,,7,,,79,127
5976,note_on,1,0,0,,2,,,62,127
5976,note_on,0,0,0,,5,,,77,127
6067,note_off,91,0,0,,2,,,62,127
6068,note_on,1,0,0,,5,,,65,127
6159,note_off,91,0,0,,5,,,65,127
6159,note_off,0,0,0,,5,,,77,127
6160,note_on,1,0,0,,4,,,64,127
6160,note_on,0,0,0,,7,,,79,127
6251,note_off,91,0,0,,4,,,64,127
6252,note_on,1,0,0,,7,,,67,127
6343,note_off,91,0,0,,7,,,67,127
6343,note_off,0,0,0,,7,,,79,127
6344,note_on,1,0,0,,2,,,62,127
6344,note_on,0,0,0,,5,,,77,127
6435,note_off,91,0,0,,2,,,62,127
6436,note_on,1,0,0,,5,,,65,127
6527,note_off,91,0,0,,5,,,65,127
6527,note_off,0,0,0,,5,,,77,127
6528,note_on,1,0,0,,0,,,60,127
6528,note_on,0,0,0,,4,,,76,127
6619,note_off,91,0,0,,0,,,60,127
6620,note_on,1,0,0,,4,,,64,127
6711,note_off,91,0,0,,4,,,64,127
6711,note_off,0,0,0,,4,,,76,127
6712,note_on,1,0,0,,2,,,62,127
6712,note_on,0,0,0,,5,,,77,127
6803,note_off,91,0,0,,2,,,62,127
6804,note_on,1,0,0,,5,,,65,127
6895,note_off,91,0,0,,5,,,65,127
6895,note_off,0,0,0,,5,,,77,127
6896,note_on,1,0,0,,12,,,59,127
6896,note_on,0,0,0,,2,,,74,127
6987,note_off,91,0,0,,12,,,59,127
6988,note_on,1,0,0,,2,,,62,127
7079,note_off,91,0,0,,2,,,62,127
7079,note_off,0,0,0,,2,,,74,127
7080,note_on,1,0,0,,7,,,55,127
7080,note_on,0,0,0,,7,,,79,127
7171,note_off,91,0,0,,7,,,55,127
7172,note_on,1,0,0,,2,,,62,127
7263,note_off,91,0,0,,2,,,62,127
7263,note_off,0,0,0,,7,,,79,127
7264,note_on,1,0,0,,0,,,60,127
7264,note_on,0,0,0,,5,,,77,127
7355,note_off,91,0,0,,0,,,60,127
7356,note_on,1,0,0,,4,,,64,127
7447,note_off,91,0,0,,4,,,64,127
7448,note_on,1,0,0,,2,,,62,127
7539,note_off,91,0,0,,2,,,62,127
7540,note_on,1,0,0,,4,,,64,127
7631,note_off,91,0,0,,4,,,64,127
7631,note_off,0,0,0,,5,,,77,127
7632,note_on,1,0,0,,0,,,60,127
7632,note_on,0,0,0,,4,,,76,127
7723,note_off,91,0,0,,0,,,60,127
7724,note_on,1,0,0,,4,,,64,127
7815,note_off,91,0,0,,4,,,64,127
7815,note_off,0,0,0,,4,,,76,127
7816,note_on,1,0,0,,2,,,62,127
7816,note_on,0,0,0,,5,,,77,127
7907,note_off,91,0,0,,2,,,62,127
7908,note_on,1,0,0,,5,,,65,127
7999,note_off,91,0,0,,5,,,65,127
7999,note_off,0,0,0,,5,,,77,127
8000,note_on,1,0,0,,12,,,59,127
8000,note_on,0,0,0,,2,,,74,127
8091,note_off,91,0,0,,12,,,59,127
8092,note_on,1,0,0,,2,,,62,127
8183,note_off,91,0,0,,2,,,62,127
8183,note_off,0,0,0,,2,,,74,127
8184,note_on,1,0,0,,7,,,55,127
8184,note_on,0,0,0,,7,,,79,127
8275,note_off,91,0,0,,7,,,55,127
8276,note_on,1,0,0,,2,,,62,127
8367,note_off,91,0,0,,2,,,62,127
8367,note_off,0,0,0,,7,,,79,127
8368,note_on,1,0,0,,0,,,60,127
8368,note_on,0,0,0,,4,,,76,127
8459,note_off,91,0,0,,0,,,60,127
8460,note_on,1,0,0,,4,,,64,127
8551,note_off,91,0,0,,4,,,64,127
8551,note_off,0,0,0,,4,,,76,127
8552,note_on,1,0,0,,10,,,57,127
8552,note_on,0,0,0,,0,,,84,127
8643,note_off,91,0,0,,10,,,57,127
8644,note_on,1,0,0,,5,,,65,127
8735,note_off,91,0,0,,5,,,65,127
8735,note_off,0,0,0,,0,,,84,127
8736,note_on,1,0,0,,12,,,59,127
8736,note_on,0,0,0,,2,,,74,127
8827,note_off,91,0,0,,12,,,59,127
8828,note_on,1,0,0,,2,,,62,127
8919,note_off,91,0,0,,2,,,62,127
8919,note_off,0,0,0,,2,,,74,127
8920,note_on,1,0,0,,7,,,55,127
8920,note_on,0,0,0,,12,,,83,127
9011,note_off,91,0,0,,7,,,55,127
9012,note_on,1,0,0,,4,,,64,127
9103,note_off,91,0,0,,4,,,64,127
9103,note_off,0,0,0,,12,,,83,127
9104,note_on,1,0,0,,10,,,57,127
9104,note_on,0,0,0,,0,,,72,127
9195,note_off,91,0,0,,10,,,57,127
9196,note_on,1,0,0,,0,,,60,127
9287,note_off,91,0,0,,0,,,60,127
9287,note_off,0,0,0,,0,,,72,127
9288,note_on,1,0,0,,5,,,53,127
9288,note_on,0,0,0,,10,,,81,127
9379,note_off,91,0,0,,5,,,53,127
9380,note_on,1,0,0,,2,,,62,127
9471,note_off,91,0,0,,2,,,62,127
9471,note_off,0,0,0,,10,,,81,127
9472,note_on,1,0,0,,7,,,55,127
9472,note_on,0,0,0,,12,,,71,127
9563,note_off,91,0,0,,7,,,55,127
9564,note_on,1,0,0,,12,,,59,127
9655,note_off,91,0,0,,12,,,59,127
9655,note_off,0,0,0,,12,,,71,127
9656,note_on,1,0,0,,4,,,52,127
9656,note_on,0,0,0,,7,,,79,127
9747,note_off,91,0,0,,4,,,52,127
9748,note_on,1,0,0,,0,,,60,127
9839,note_off,91,0,0,,0,,,60,127
9839,note_off,0,0,0,,7,,,79,127
9840,note_on,1,0,0,,5,,,53,127
9840,note_on,0,0,0,,10,,,69,127
9931,note_off,91,0,0,,5,,,53,127
9932,note_on,1,0,0,,10,,,57,127
10023,note_off,91,0,0,,10,,,57,127
10023,note_off,0,0,0,,10,,,69,127
10024,note_on,1,0,0,,2,,,50,127
10024,note_on,0,0,0,,5,,,77,127
10115,note_off,91,0,0,,2,,,50,127
10116,note_on,1,0,0,,12,,,59,127
10207,note_off,91,0,0,,12,,,59,127
10207,note_off,0,0,0,,5,,,77,127
10208,note_on,1,0,0,,4,,,52,127
10208,note_on,0,0,0,,7,,,67,127
10299,note_off,91,0,0,,4,,,52,127
10300,note_on,1,0,0,,7,,,55,127
10391,note_off,91,0,0,,7,,,55,127
10391,note_off,0,0,0,,7,,,67,127
10392,note_on,1,0,0,,0,,,48,127
10392,note_on,0,0,0,,4,,,76,127
10483,note_off,91,0,0,,0,,,48,127
10484,note_on,1,0,0,,10,,,57,127
10575,note_off,91,0,0,,10,,,57,127
10575,note_off,0,0,0,,4,,,76,127
10576,note_on,1,0,0,,2,,,50,127
10576,note_on,0,0,0,,5,,,65,127
10667,note_off,91,0,0,,2,,,50,127
10668,note_on,1,0,0,,5,,,53,127
10759,note_off,91,0,0,,5,,,53,127
10759,note_off,0,0,0,,5,,,65,127
10760,note_on,1,0,0,,12,,,47,127
10760,note_on,0,0,0,,2,,,74,127
10851,note_off,91,0,0,,12,,,47,127
10852,note_on,1,0,0,,7,,,55,127
10943,note_off,91,0,0,,7,,,55,127
10943,note_off,0,0,0,,2,,,74,127
10944,note_on,1,0,0,,0,,,48,127
10944,note_on,0,0,0,,4,,,64,127
11035,note_off,91,0,0,,0,,,48,127
11036,note_on,1,0,0,,7,,,55,127
11127,note_off,91,0,0,,7,,,55,127
11127,note_off,0,0,0,,4,,,64,127
11128,note_on,1,0,0,,0,,,48,127
11128,note_on,0,0,0,,4,,,76,127
11219,note_off,91,0,0,,0,,,48,127
11220,note_on,1,0,0,,7,,,55,127
11311,note_off,91,0,0,,7,,,55,127
11311,note_off,0,0,0,,4,,,76,127
11312,note_on,1,0,0,,12,,,47,127
11312,note_on,0,0,0,,2,,,74,127
11403,note_off,91,0,0,,12,,,47,127
11404,note_on,1,0,0,,7,,,55,127
11495,note_off,91,0,0,,7,,,55,127
11495,note_off,0,0,0,,2,,,74,127
11496,note_on,1,0,0,,10,,,45,127
11496,note_on,0,0,0,,0,,,72,127
11587,note_off,91,0,0,,10,,,45,127
11588,note_on,1,0,0,,6,,,54,127
11679,note_off,91,0,0,,6,,,54,127
11679,note_off,0,0,0,,0,,,72,127
11680,note_on,1,0,0,,7,,,43,127
11680,note_on,0,0,0,,7,,,79,127
11771,note_off,91,0,0,,7,,,43,127
11772,note_on,1,0,0,,7,,,55,127
11863,note_off,91,0,0,,7,,,55,127
11863,note_off,0,0,0,,7,,,79,127
11864,note_on,1,0,0,,6,,,54,127
11864,note_on,0,0,0,,7,,,67,127
11955,note_off,91,0,0,,6,,,54,127
11956,note_on,1,0,0,,7,,,55,127
12047,note_off,91,0,0,,7,,,55,127
12047,note_off,0,0,0,,7,,,67,127
12048,note_on,1,0,0,,6,,,54,127
12048,note_on,0,0,0,,7,,,67,127
12139,note_off,91,0,0,,6,,,54,127
12140,note_on,1,0,0,,7,,,55,127
12231,note_off,91,0,0,,7,,,55,127
12231,note_off,0,0,0,,7,,,67,127
12232,note_on,1,0,0,,4,,,52,127
12232,note_on,0,0,0,,7,,,67,127
12323,note_off,91,0,0,,4,,,52,127
12324,note_on,1,0,0,,7,,,55,127
12415,note_off,91,0,0,,7,,,55,127
12415,note_off,0,0,0,,7,,,67,127
12416,note_on,1,0,0,,2,,,50,127
12416,note_on,0,0,0,,5,,,77,127
12416,note_on,0,0,0,,2,,,74,127
12507,note_off,91,0,0,,2,,,50,127
12508,note_on,1,0,0,,7,,,55,127
12599,note_off,91,0,0,,7,,,55,127
12599,note_off,0,0,0,,2,,,74,127
12599,note_off,0,0,0,,5,,,77,127
12600,note_on,1,0,0,,0,,,48,127
12600,note_on,0,0,0,,0,,,72,127
12600,note_on,0,0,0,,4,,,76,127
12691,note_off,91,0,0,,0,,,48,127
12692,note_on,1,0,0,,7,,,55,127
12783,note_off,91,0,0,,7,,,55,127
12783,note_off,0,0,0,,4,,,76,127
12783,note_off,0,0,0,,0,,,72,127
12784,note_on,1,0,0,,7,,,43,127
12784,note_on,0,0,0,,2,,,74,127
12784,note_on,0,0,0,,12,,,71,127
12875,note_off,91,0,0,,7,,,43,127
12876,note_on,1,0,0,,7,,,55,127
12967,note_off,91,0,0,,7,,,55,127
12967,note_off,0,0,0,,12,,,71,127
12967,note_off,0,0,0,,2,,,74,127
12968,note_on,1,0,0,,6,,,54,127
12968,note_on,0,0,0,,7,,,67,127
13059,note_off,91,0,0,,6,,,54,127
13060,note_on,1,0,0,,7,,,55,127
13151,note_off,91,0,0,,7,,,55,127
13151,note_off,0,0,0,,7,,,67,127
13152,note_on,1,0,0,,6,,,54,127
13152,note_on,0,0,0,,7,,,67,127
13243,note_off,91,0,0,,6,,,54,127
13244,note_on,1,0,0,,7,,,55,127
13335,note_off,91,0,0,,7,,,55,127
13335,note_off,0,0,0,,7,,,67,127
13336,note_on,1,0,0,,4,,,52,127
13336,note_on,0,0,0,,7,,,67,127
13427,note_off,91,0,0,,4,,,52,127
13428,note_on,1,0,0,,7,,,55,127
13519,note_off,91,0,0,,7,,,55,127
13519,note_off,0,0,0,,7,,,67,127
13520,note_on,1,0,0,,2,,,50,127
13520,note_on,0,0,0,,5,,,77,127
13520,note_on,0,0,0,,2,,,74,127
13611,note_off,91,0,0,,2,,,50,127
13612,note_on,1,0,0,,7,,,55,127
13703,note_off,91,0,0,,7,,,55,127
13703,note_off,0,0,0,,2,,,74,127
13703,note_off,0,0,0,,5,,,77,127
13704,note_on,1,0,0,,0,,,48,127
13704,note_on,0,0,0,,0,,,72,127
13704,note_on,0,0,0,,4,,,76,127
13795,note_off,91,0,0,,0,,,48,127
13796,note_on,1,0,0,,7,,,55,127
13887,note_off,91,0,0,,7,,,55,127
13887,note_off,0,0,0,,4,,,76,127
13887,note_off,0,0,0,,0,,,72,127
13888,note_on,1,0,0,,7,,,43,127
13888,note_on,0,0,0,,7,,,67,127
13888,note_on,0,0,0,,2,,,74,127
13888,note_on,0,0,0,,12,,,71,127
13979,note_off,91,0,0,,7,,,43,127
13980,note_on,1,0,0,,7,,,55,127
14071,note_off,91,0,0,,7,,,55,127
14071,note_off,0,0,0,,2,,,74,127
14071,note_off,0,0,0,,7,,,67,127
14072,note_on,1,0,0,,6,,,54,127
14072,note_on,0,0,0,,7,,,67,127
14072,note_on,0,0,0,,5,,,77,127
14163,note_off,91,0,0,,6,,,54,127
14164,note_on,1,0,0,,7,,,55,127
14252,note_off,88,0,0,,12,,,71,127
14255,note_off,3,0,0,,7,,,55,127
14255,note_off,0,0,0,,5,,,77,127
14255,note_off,0,0,0,,7,,,67,127
14256,note_on,1,0,0,,0,,,48,127
14256,note_on,0,0,0,,0,,,72,127
14256,note_on,0,0,0,,7,,,67,127
14256,note_on,0,0,0,,4,,,76,127
14347,note_off,91,0,0,,0,,,48,127
14348,note_on,1,0,0,,7,,,55,127
14439,note_off,91,0,0,,7,,,55,127
14439,note_off,0,0,0,,4,,,76,127
14439,note_off,0,0,0,,7,,,67,127
14439,note_off,0,0,0,,0,,,72,127
14440,note_on,1,0,0,,7,,,43,127
14440,note_on,0,0,0,,7,,,67,127
14440,note_on,0,0,0,,2,,,74,127
14440,note_on,0,0,0,,12,,,71,127
14531,note_off,91,0,0,,7,,,43,127
14532,note_on,1,0,0,,7,,,55,127
14623,note_off,91,0,0,,7,,,55,127
14623,note_off,0,0,0,,2,,,74,127
14623,note_off,0,0,0,,7,,,67,127
14624,note_on,1,0,0,,6,,,54,127
14624,note_on,0,0,0,,7,,,67,127
14624,note_on,0,0,0,,5,,,77,127
14715,note_off,91,0,0,,6,,,54,127
14716,note_on,1,0,0,,7,,,55,127
14804,note_off,88,0,0,,12,,,71,127
14807,note_off,3,0,0,,7,,,55,127
14807,note_off,0,0,0,,5,,,77,127
14807,note_off,0,0,0,,7,,,67,127
14808,note_on,1,0,0,,0,,,48,127
14808,note_on,0,0,0,,0,,,72,127
14808,note_on,0,0,0,,7,,,67,127
14808,note_on,0,0,0,,4,,,76,127
14899,note_off,91,0,0,,0,,,48,127
14900,note_on,1,0,0,,7,,,55,127
14991,note_off,91,0,0,,7,,,55,127
14991,note_off,0,0,0,,4,,,76,127
14991,note_off,0,0,0,,7,,,67,127
14991,note_off,0,0,0,,0,,,72,127
14992,note_on,1,0,0,,7,,,31,127
14992,note_on,0,0,0,,4,,,76,127
15022,note_off,30,0,0,,4,,,76,127
15023,note_on,1,0,0,,2,,,74,127
15053,note_off,30,0,0,,2,,,74,127
15054,note_on,1,0,0,,4,,,76,127
15084,note_off,30,0,0,,4,,,76,127
15085,note_on,1,0,0,,2,,,74,127
15454,note_off,369,0,0,,7,,,31,127
15545,note_off,91,0,0,,2,,,74,127
15546,note_on,1,0,0,,5,,,65,127
15546,note_on,0,0,0,,0,,,72,127
15576,note_off,30,0,0,,0,,,72,127
15576,note_off,0,0,0,,5,,,65,127
15577,note_on,1,0,0,,4,,,64,127
15577,note_on,0,0,0,,12,,,71,127
15607,note_off,30,0,0,,12,,,71,127
15607,note_off,0,0,0,,4,,,64,127
15608,note_on,1,0,0,,5,,,65,127
15608,note_on,0,0,0,,0,,,72,127
15638,note_off,30,0,0,,0,,,72,127
15638,note_off,0,0,0,,5,,,65,127
15639,note_on,1,0,0,,4,,,64,127
15639,note_on,0,0,0,,12,,,71,127
15822,note_off,183,0,0,,12,,,71,127
15822,note_off,0,0,0,,4,,,64,127
15823,note_on,1,0,0,,4,,,64,127
15823,note_on,0,0,0,,10,,,69,127
15914,note_off,91,0,0,,10,,,69,127
15914,note_off,0,0,0,,4,,,64,127
15915,note_on,1,0,0,,2,,,62,127
15915,note_on,0,0,0,,12,,,71,127
16006,note_off,91,0,0,,12,,,71,127
16006,note_off,0,0,0,,2,,,62,127
16007,note_on,1,0,0,,0,,,60,127
16007,note_on,0,0,0,,0,,,72,127
16098,note_off,91,0,0,,0,,,72,127
16098,note_off,0,0,0,,0,,,60,127
16099,note_on,1,0,0,,4,,,64,127
16099,note_on,0,0,0,,4,,,76,127
16129,note_off,30,0,0,,4,,,76,127
16129,note_off,0,0,0,,4,,,64,127
16130,note_on,1,0,0,,2,,,62,127
16130,note_on,0,0,0,,2,,,74,127
16160,note_off,30,0,0,,2,,,74,127
16160,note_off,0,0,0,,2,,,62,127
16161,note_on,1,0,0,,4,,,64,127
16161,note_on,0,0,0,,4,,,76,127
16191,note_off,30,0,0,,4,,,76,127
16191,note_off,0,0,0,,4,,,64,127
16192,note_on,1,0,0,,2,,,62,127
16192,note_on,0,0,0,,2,,,74,127
16375,note_off,183,0,0,,2,,,74,127
16375,note_off,0,0,0,,2,,,62,127
16376,note_on,1,0,0,,4,,,64,127
16376,note_on,0,0,0,,0,,,72,127
16467,note_off,91,0,0,,0,,,72,127
16467,note_off,0,0,0,,4,,,64,127
16468,note_on,1,0,0,,2,,,62,127
16468,note_on,0,0,0,,2,,,74,127
16559,note_off,91,0,0,,2,,,74,127
16559,note_off,0,0,0,,2,,,62,127
16560,note_on,1,0,0,,0,,,60,127
16560,note_on,0,0,0,,4,,,76,127
16651,note_off,91,0,0,,4,,,76,127
16651,note_off,0,0,0,,0,,,60,127
16652,note_on,1,0,0,,0,,,60,127
16652,note_on,0,0,0,,7,,,79,127
16682,note_off,30,0,0,,7,,,79,127
16682,note_off,0,0,0,,0,,,60,127
16683,note_on,1,0,0,,12,,,59,127
16683,note_on,0,0,0,,5,,,77,127
16713,note_off,30,0,0,,5,,,77,127
16713,note_off,0,0,0,,12,,,59,127
16714,note_on,1,0,0,,0,,,60,127
16714,note_on,0,0,0,,7,,,79,127
16744,note_off,30,0,0,,7,,,79,127
16745,note_on,1,0,0,,5,,,77,127
16928,note_off,183,0,0,,5,,,77,127
16928,note_off,0,0,0,,0,,,60,127
16929,note_on,1,0,0,,0,,,60,127
16929,note_on,0,0,0,,4,,,76,127
17020,note_off,91,0,0,,4,,,76,127
17020,note_off,0,0,0,,0,,,60,127
17021,note_on,1,0,0,,12,,,59,127
17021,note_on,0,0,0,,5,,,77,127
17112,note_off,91,0,0,,5,,,77,127
17112,note_off,0,0,0,,12,,,59,127
17113,note_on,1,0,0,,10,,,57,127
17113,note_on,0,0,0,,7,,,79,127
17158,note_off,45,0,0,,7,,,79,127
17159,note_on,1,0,0,,10,,,81,127
17204,note_off,45,0,0,,10,,,81,127
17204,note_off,0,0,0,,10,,,57,127
17205,note_on,1,0,0,,7,,,55,127
17205,note_on,0,0,0,,12,,,83,127
17388,note_off,183,0,0,,12,,,83,127
17389,note_on,1,0,0,,5,,,77,127
17572,note_off,183,0,0,,5,,,77,127
17573,note_on,1,0,0,,2,,,74,127
17665,note_off,92,0,0,,7,,,55,127
17756,note_off,91,0,0,,2,,,74,127
17757,note_on,1,0,0,,7,,,67,127
17757,note_on,0,0,0,,0,,,72,127
17787,note_off,30,0,0,,0,,,72,127
17787,note_off,0,0,0,,7,,,67,127
17788,note_on,1,0,0,,5,,,65,127
17788,note_on,0,0,0,,12,,,71,127
17818,note_off,30,0,0,,12,,,71,127
17818,note_off,0,0,0,,5,,,65,127
17819,note_on,1,0,0,,7,,,67,127
17819,note_on,0,0,0,,0,,,72,127
17849,note_off,30,0,0,,0,,,72,127
17849,note_off,0,0,0,,7,,,67,127
17850,note_on,1,0,0,,5,,,65,127
17850,note_on,0,0,0,,12,,,71,127
18033,note_off,183,0,0,,12,,,71,127
18033,note_off,0,0,0,,5,,,65,127
18034,note_on,1,0,0,,7,,,67,127
18034,note_on,0,0,0,,10,,,69,127
18125,note_off,91,0,0,,10,,,69,127
18125,note_off,0,0,0,,7,,,67,127
18126,note_on,1,0,0,,5,,,65,127
18126,note_on,0,0,0,,12,,,71,127
18217,note_off,91,0,0,,12,,,71,127
18217,note_off,0,0,0,,5,,,65,127
18218,note_on,1,0,0,,4,,,64,127
18218,note_on,0,0,0,,0,,,72,127
18309,note_off,91,0,0,,0,,,72,127
18309,note_off,0,0,0,,4,,,64,127
18310,note_on,1,0,0,,4,,,64,127
18310,note_on,0,0,0,,4,,,76,127
18340,note_off,30,0,0,,4,,,76,127
18340,note_off,0,0,0,,4,,,64,127
18341,note_on,1,0,0,,2,,,62,127
18341,note_on,0,0,0,,2,,,74,127
18371,note_off,30,0,0,,2,,,74,127
18371,note_off,0,0,0,,2,,,62,127
18372,note_on,1,0,0,,4,,,64,127
18372,note_on,0,0,0,,4,,,76,127
18402,note_off,30,0,0,,4,,,76,127
18402,note_off,0,0,0,,4,,,64,127
18403,note_on,1,0,0,,2,,,62,127
18403,note_on,0,0,0,,2,,,74,127
18586,note_off,183,0,0,,2,,,74,127
18586,note_off,0,0,0,,2,,,62,127
18587,note_on,1,0,0,,4,,,64,127
18587,note_on,0,0,0,,0,,,72,127
18678,note_off,91,0,0,,0,,,72,127
18678,note_off,0,0,0,,4,,,64,127
18679,note_on,1,0,0,,2,,,62,127
18679,note_on,0,0,0,,2,,,74,127
18770,note_off,91,0,0,,2,,,74,127
18770,note_off,0,0,0,,2,,,62,127
18771,note_on,1,0,0,,0,,,60,127
18771,note_on,0,0,0,,4,,,76,127
18862,note_off,91,0,0,,4,,,76,127
18862,note_off,0,0,0,,0,,,60,127
18863,note_on,1,0,0,,0,,,60,127
18863,note_on,0,0,0,,7,,,79,127
18893,note_off,30,0,0,,7,,,79,127
18893,note_off,0,0,0,,0,,,60,127
18894,note_on,1,0,0,,12,,,59,127
18894,note_on,0,0,0,,5,,,77,127
18924,note_off,30,0,0,,5,,,77,127
18924,note_off,0,0,0,,12,,,59,127
18925,note_on,1,0,0,,0,,,60,127
18925,note_on,0,0,0,,7,,,79,127
18955,note_off,30,0,0,,7,,,79,127
18955,note_off,0,0,0,,0,,,60,127
18956,note_on,1,0,0,,12,,,59,127
18956,note_on,0,0,0,,5,,,77,127
19139,note_off,183,0,0,,5,,,77,127
19139,note_off,0,0,0,,12,,,59,127
19140,note_on,1,0,0,,0,,,60,127
19140,note_on,0,0,0,,4,,,76,127
19231,note_off,91,0,0,,4,,,76,127
19231,note_off,0,0,0,,0,,,60,127
19232,note_on,1,0,0,,12,,,59,127
19232,note_on,0,0,0,,5,,,77,127
19323,note_off,91,0,0,,5,,,77,127
19323,note_off,0,0,0,,12,,,59,127
19324,note_on,1,0,0,,10,,,57,127
19324,note_on,0,0,0,,7,,,79,127
19369,note_off,45,0,0,,7,,,79,127
19370,note_on,1,0,0,,10,,,81,127
19415,note_off,45,0,0,,10,,,81,127
19415,note_off,0,0,0,,10,,,57,127
19416,note_on,1,0,0,,7,,,55,127
19416,note_on,0,0,0,,12,,,83,127
19599,note_off,183,0,0,,12,,,83,127
19600,note_on,1,0,0,,5,,,77,127
19780,note_off,180,0,0,,7,,,55,127
19783,note_off,3,0,0,,5,,,77,127
19784,note_on,1,0,0,,2,,,74,127
19967,note_off,183,0,0,,2,,,74,127
19968,note_on,1,0,0,,5,,,65,127
19968,note_on,0,0,0,,2,,,74,127
19998,note_off,30,0,0,,2,,,74,127
19998,note_off,0,0,0,,5,,,65,127
19999,note_on,1,0,0,,4,,,64,127
19999,note_on,0,0,0,,0,,,72,127
20029,note_off,30,0,0,,0,,,72,127
20029,note_off,0,0,0,,4,,,64,127
20030,note_on,1,0,0,,5,,,65,127
20030,note_on,0,0,0,,2,,,74,127
20060,note_off,30,0,0,,2,,,74,127
20060,note_off,0,0,0,,5,,,65,127
20061,note_on,1,0,0,,4,,,64,127
20061,note_on,0,0,0,,0,,,72,127
20244,note_off,183,0,0,,0,,,72,127
20244,note_off,0,0,0,,4,,,64,127
20245,note_on,1,0,0,,5,,,65,127
20245,note_on,0,0,0,,12,,,71,127
20336,note_off,91,0,0,,12,,,71,127
20336,note_off,0,0,0,,5,,,65,127
20337,note_on,1,0,0,,4,,,64,127
20337,note_on,0,0,0,,0,,,72,127
20428,note_off,91,0,0,,0,,,72,127
20428,note_off,0,0,0,,4,,,64,127
20429,note_on,1,0,0,,2,,,62,127
20429,note_on,0,0,0,,2,,,74,127
20520,note_off,91,0,0,,2,,,74,127
20520,note_off,0,0,0,,2,,,62,127
20521,note_on,1,0,0,,2,,,62,127
20521,note_on,0,0,0,,5,,,77,127
20551,note_off,30,0,0,,5,,,77,127
20551,note_off,0,0,0,,2,,,62,127
20552,note_on,1,0,0,,0,,,60,127
20552,note_on,0,0,0,,4,,,76,127
20582,note_off,30,0,0,,4,,,76,127
20582,note_off,0,0,0,,0,,,60,127
20583,note_on,1,0,0,,2,,,62,127
20583,note_on,0,0,0,,5,,,77,127
20613,note_off,30,0,0,,5,,,77,127
20613,note_off,0,0,0,,2,,,62,127
20614,note_on,1,0,0,,0,,,60,127
20614,note_on,0,0,0,,4,,,76,127
20797,note_off,183,0,0,,4,,,76,127
20797,note_off,0,0,0,,0,,,60,127
20798,note_on,1,0,0,,2,,,62,127
20798,note_on,0,0,0,,2,,,74,127
20865,note_off,67,0,0,,2,,,62,127
20866,note_on,1,0,0,,0,,,60,127
20889,note_off,23,0,0,,2,,,74,127
20890,note_on,1,0,0,,4,,,76,127
20933,note_off,43,0,0,,0,,,60,127
20934,note_on,1,0,0,,12,,,59,127
20981,note_off,47,0,0,,4,,,76,127
20982,note_on,1,0,0,,5,,,77,127
21001,note_off,19,0,0,,12,,,59,127
21002,note_on,1,0,0,,10,,,57,127
21073,note_off,71,0,0,,10,,,57,127
21073,note_off,0,0,0,,5,,,77,127
21074,note_on,1,0,0,,10,,,57,127
21074,note_on,0,0,0,,10,,,81,127
21104,note_off,30,0,0,,10,,,81,127
21104,note_off,0,0,0,,10,,,57,127
21105,note_on,1,0,0,,7,,,55,127
21105,note_on,0,0,0,,7,,,79,127
21135,note_off,30,0,0,,7,,,79,127
21135,note_off,0,0,0,,7,,,55,127
21136,note_on,1,0,0,,10,,,57,127
21136,note_on,0,0,0,,10,,,81,127
21166,note_off,30,0,0,,10,,,81,127
21166,note_off,0,0,0,,10,,,57,127
21167,note_on,1,0,0,,7,,,55,127
21167,note_on,0,0,0,,7,,,79,127
21350,note_off,183,0,0,,7,,,79,127
21350,note_off,0,0,0,,7,,,55,127
21351,note_on,1,0,0,,10,,,57,127
21351,note_on,0,0,0,,5,,,77,127
21442,note_off,91,0,0,,5,,,77,127
21442,note_off,0,0,0,,10,,,57,127
21443,note_on,1,0,0,,7,,,55,127
21443,note_on,0,0,0,,7,,,79,127
21534,note_off,91,0,0,,7,,,79,127
21534,note_off,0,0,0,,7,,,55,127
21535,note_on,1,0,0,,5,,,53,127
21535,note_on,0,0,0,,10,,,81,127
21580,note_off,45,0,0,,10,,,81,127
21581,note_on,1,0,0,,12,,,83,127
21626,note_off,45,0,0,,12,,,83,127
21626,note_off,0,0,0,,5,,,53,127
21627,note_on,1,0,0,,4,,,52,127
21627,note_on,0,0,0,,0,,,84,127
21810,note_off,183,0,0,,0,,,84,127
21811,note_on,1,0,0,,7,,,79,127
21994,note_off,183,0,0,,7,,,79,127
21995,note_on,1,0,0,,4,,,76,127
22087,note_off,92,0,0,,4,,,52,127
22178,note_off,91,0,0,,4,,,76,127
22179,note_on,1,0,0,,5,,,65,127
22179,note_on,0,0,0,,2,,,74,127
22209,note_off,30,0,0,,2,,,74,127
22209,note_off,0,0,0,,5,,,65,127
22210,note_on,1,0,0,,4,,,64,127
22210,note_on,0,0,0,,0,,,72,127
22240,note_off,30,0,0,,0,,,72,127
22240,note_off,0,0,0,,4,,,64,127
22241,note_on,1,0,0,,5,,,65,127
22241,note_on,0,0,0,,2,,,74,127
22271,note_off,30,0,0,,2,,,74,127
22271,note_off,0,0,0,,5,,,65,127
22272,note_on,1,0,0,,4,,,64,127
22272,note_on,0,0,0,,0,,,72,127
22455,note_off,183,0,0,,0,,,72,127
22455,note_off,0,0,0,,4,,,64,127
22456,note_on,1,0,0,,5,,,65,127
22456,note_on,0,0,0,,12,,,71,127
22547,note_off,91,0,0,,12,,,71,127
22547,note_off,0,0,0,,5,,,65,127
22548,note_on,1,0,0,,4,,,64,127
22548,note_on,0,0,0,,0,,,72,127
22639,note_off,91,0,0,,0,,,72,127
22639,note_off,0,0,0,,4,,,64,127
22640,note_on,1,0,0,,2,,,62,127
22640,note_on,0,0,0,,2,,,74,127
22731,note_off,91,0,0,,2,,,74,127
22731,note_off,0,0,0,,2,,,62,127
22732,note_on,1,0,0,,2,,,62,127
22732,note_on,0,0,0,,5,,,77,127
22762,note_off,30,0,0,,5,,,77,127
22762,note_off,0,0,0,,2,,,62,127
22763,note_on,1,0,0,,0,,,60,127
22763,note_on,0,0,0,,4,,,76,127
22793,note_off,30,0,0,,4,,,76,127
22793,note_off,0,0,0,,0,,,60,127
22794,note_on,1,0,0,,2,,,62,127
22794,note_on,0,0,0,,5,,,77,127
22824,note_off,30,0,0,,5,,,77,127
22824,note_off,0,0,0,,2,,,62,127
22825,note_on,1,0,0,,0,,,60,127
22825,note_on,0,0,0,,4,,,76,127
23008,note_off,183,0,0,,4,,,76,127
23008,note_off,0,0,0,,0,,,60,127
23009,note_on,1,0,0,,2,,,62,127
23009,note_on,0,0,0,,2,,,74,127
23076,note_off,67,0,0,,2,,,62,127
23077,note_on,1,0,0,,0,,,60,127
23100,note_off,23,0,0,,2,,,74,127
23101,note_on,1,0,0,,4,,,76,127
23144,note_off,43,0,0,,0,,,60,127
23145,note_on,1,0,0,,12,,,59,127
23192,note_off,47,0,0,,4,,,76,127
23193,note_on,1,0,0,,5,,,77,127
23212,note_off,19,0,0,,12,,,59,127
23213,note_on,1,0,0,,10,,,57,127
23284,note_off,71,0,0,,10,,,57,127
23284,note_off,0,0,0,,5,,,77,127
23285,note_on,1,0,0,,10,,,57,127
23285,note_on,0,0,0,,10,,,81,127
23315,note_off,30,0,0,,10,,,81,127
23315,note_off,0,0,0,,10,,,57,127
23316,note_on,1,0,0,,7,,,55,127
23316,note_on,0,0,0,,7,,,79,127
23346,note_off,30,0,0,,7,,,79,127
23346,note_off,0,0,0,,7,,,55,127
23347,note_on,1,0,0,,10,,,57,127
23347,note_on,0,0,0,,10,,,81,127
23377,note_off,30,0,0,,10,,,81,127
23377,note_off,0,0,0,,10,,,57,127
23378,note_on,1,0,0,,7,,,55,127
23378,note_on,0,0,0,,7,,,79,127
23561,note_off,183,0,0,,7,,,79,127
23561,note_off,0,0,0,,7,,,55,127
23562,note_on,1,0,0,,10,,,57,127
23562,note_on,0,0,0,,5,,,77,127
23653,note_off,91,0,0,,5,,,77,127
23653,note_off,0,0,0,,10,,,57,127
23654,note_on,1,0,0,,7,,,55,127
23654,note_on,0,0,0,,7,,,79,127
23745,note_off,91,0,0,,7,,,79,127
23745,note_off,0,0,0,,7,,,55,127
23746,note_on,1,0,0,,5,,,53,127
23746,note_on,0,0,0,,10,,,81,127
23791,note_off,45,0,0,,10,,,81,127
23792,note_on,1,0,0,,12,,,83,127
23837,note_off,45,0,0,,12,,,83,127
23837,note_off,0,0,0,,5,,,53,127
23838,note_on,1,0,0,,4,,,52,127
23838,note_on,0,0,0,,0,,,84,127
24021,note_off,183,0,0,,0,,,84,127
24022,note_on,1,0,0,,7,,,79,127
24205,note_off,183,0,0,,7,,,79,127
24206,note_on,1,0,0,,4,,,76,127
24298,note_off,92,0,0,,4,,,52,127
24389,note_off,91,0,0,,4,,,76,127
24390,note_on,1,0,0,,5,,,53,127
24390,note_on,0,0,0,,8,,,80,127
24573,note_off,183,0,0,,8,,,80,127
24573,note_off,0,0,0,,5,,,53,127
24574,note_on,1,0,0,,0,,,60,127
24574,note_on,0,0,0,,10,,,81,127
24757,note_off,183,0,0,,10,,,81,127
24757,note_off,0,0,0,,0,,,60,127
24758,note_on,1,0,0,,2,,,62,127
24758,note_on,0,0,0,,5,,,77,127
24941,note_off,183,0,0,,5,,,77,127
24941,note_off,0,0,0,,2,,,62,127
24942,note_on,1,0,0,,4,,,52,127
24942,note_on,0,0,0,,6,,,78,127
25125,note_off,183,0,0,,6,,,78,127
25125,note_off,0,0,0,,4,,,52,127
25126,note_on,1,0,0,,12,,,59,127
25126,note_on,0,0,0,,7,,,79,127
25309,note_off,183,0,0,,7,,,79,127
25309,note_off,0,0,0,,12,,,59,127
25310,note_on,1,0,0,,0,,,60,127
25310,note_on,0,0,0,,0,,,72,127
25310,note_on,0,0,0,,4,,,76,127
25493,note_off,183,0,0,,4,,,76,127
25493,note_off,0,0,0,,0,,,72,127
25493,note_off,0,0,0,,0,,,60,127
25494,note_on,1,0,0,,5,,,53,127
25494,note_on,0,0,0,,2,,,74,127
25494,note_on,0,0,0,,5,,,77,127
25677,note_off,183,0,0,,5,,,77,127
25677,note_off,0,0,0,,2,,,74,127
25677,note_off,0,0,0,,5,,,53,127
25678,note_on,1,0,0,,7,,,55,127
25678,note_on,0,0,0,,0,,,72,127
25678,note_on,0,0,0,,4,,,76,127
25861,note_off,183,0,0,,4,,,76,127
25861,note_off,0,0,0,,0,,,72,127
25861,note_off,0,0,0,,7,,,55,127
25862,note_on,1,0,0,,7,,,43,127
25862,note_on,0,0,0,,2,,,74,127
25862,note_on,0,0,0,,12,,,71,127
26045,note_off,183,0,0,,12,,,71,127
26045,note_off,0,0,0,,2,,,74,127
26045,note_off,0,0,0,,7,,,43,127
26046,note_on,1,0,0,,0,,,36,127
26046,note_on,0,0,0,,0,,,72,127
26229,note_off,183,0,0,,0,,,72,127
26230,note_on,1,0,0,,7,,,67,127
26413,note_off,183,0,0,,7,,,67,127
26413,note_off,0,0,0,,0,,,36,127
26414,note_on,1,0,0,,0,,,48,127
26414,note_on,0,0,0,,4,,,64,127
26597,note_off,183,0,0,,4,,,64,127
26597,note_off,0,0,0,,0,,,48,127
26598,note_on,1,0,0,,5,,,41,127
26598,note_on,0,0,0,,8,,,68,127
26781,note_off,183,0,0,,8,,,68,127
26782,note_on,1,0,0,,10,,,69,127
26965,note_off,183,0,0,,10,,,69,127
26965,note_off,0,0,0,,5,,,41,127
26966,note_on,1,0,0,,2,,,50,127
26966,note_on,0,0,0,,5,,,65,127
27149,note_off,183,0,0,,5,,,65,127
27149,note_off,0,0,0,,2,,,50,127
27150,note_on,1,0,0,,4,,,40,127
27150,note_on,0,0,0,,6,,,66,127
27333,note_off,183,0,0,,6,,,66,127
27334,note_on,1,0,0,,7,,,67,127
27517,note_off,183,0,0,,7,,,67,127
27517,note_off,0,0,0,,4,,,40,127
27518,note_on,1,0,0,,4,,,52,127
27518,note_on,0,0,0,,4,,,64,127
27518,note_on,0,0,0,,0,,,60,127
27701,note_off,183,0,0,,0,,,60,127
27701,note_off,0,0,0,,4,,,64,127
27701,note_off,0,0,0,,4,,,52,127
27702,note_on,1,0,0,,5,,,41,127
27702,note_on,0,0,0,,2,,,62,127
27702,note_on,0,0,0,,5,,,65,127
27885,note_off,183,0,0,,5,,,65,127
27885,note_off,0,0,0,,2,,,62,127
27885,note_off,0,0,0,,5,,,41,127
27886,note_on,1,0,0,,7,,,43,127
27886,note_on,0,0,0,,0,,,60,127
27886,note_on,0,0,0,,4,,,64,127
28069,note_off,183,0,0,,4,,,64,127
28069,note_off,0,0,0,,0,,,60,127
28069,note_off,0,0,0,,7,,,43,127
28070,note_on,1,0,0,,7,,,31,127
28070,note_on,0,0,0,,12,,,59,127
28070,note_on,0,0,0,,2,,,62,127
28253,note_off,183,0,0,,2,,,62,127
28253,note_off,0,0,0,,12,,,59,127
28253,note_off,0,0,0,,7,,,31,127
28254,note_on,1,0,0,,0,,,36,127
28254,note_on,0,0,0,,0,,,60,127
28715,note_off,461,0,0,,0,,,36,127
28806,note_off,91,0,0,,0,,,60,127
28807,note_on,1,0,0,,0,,,60,127
28807,note_on,0,0,0,,5,,,65,127
28837,note_off,30,0,0,,5,,,65,127
28837,note_off,0,0,0,,0,,,60,127
28838,note_on,1,0,0,,11,,,58,127
28838,note_on,0,0,0,,4,,,64,127
28868,note_off,30,0,0,,4,,,64,127
28868,note_off,0,0,0,,11,,,58,127
28869,note_on,1,0,0,,0,,,60,127
28869,note_on,0,0,0,,5,,,65,127
28899,note_off,30,0,0,,5,,,65,127
28899,note_off,0,0,0,,0,,,60,127
28900,note_on,1,0,0,,11,,,58,127
28900,note_on,0,0,0,,4,,,64,127
29083,note_off,183,0,0,,4,,,64,127
29083,note_off,0,0,0,,11,,,58,127
29084,note_on,1,0,0,,0,,,60,127
29084,note_on,0,0,0,,2,,,62,127
29175,note_off,91,0,0,,2,,,62,127
29175,note_off,0,0,0,,0,,,60,127
29176,note_on,1,0,0,,11,,,58,127
29176,note_on,0,0,0,,4,,,64,127
29267,note_off,91,0,0,,4,,,64,127
29267,note_off,0,0,0,,11,,,58,127
29268,note_on,1,0,0,,10,,,57,127
29268,note_on,0,0,0,,5,,,65,127
29359,note_off,91,0,0,,5,,,65,127
29359,note_off,0,0,0,,10,,,57,127
29360,note_on,1,0,0,,10,,,57,127
29360,note_on,0,0,0,,10,,,69,127
29390,note_off,30,0,0,,10,,,69,127
29390,note_off,0,0,0,,10,,,57,127
29391,note_on,1,0,0,,7,,,55,127
29391,note_on,0,0,0,,7,,,67,127
29421,note_off,30,0,0,,7,,,67,127
29421,note_off,0,0,0,,7,,,55,127
29422,note_on,1,0,0,,10,,,57,127
29422,note_on,0,0,0,,10,,,69,127
29452,note_off,30,0,0,,10,,,69,127
29452,note_off,0,0,0,,10,,,57,127
29453,note_on,1,0,0,,7,,,55,127
29453,note_on,0,0,0,,7,,,67,127
29636,note_off,183,0,0,,7,,,67,127
29636,note_off,0,0,0,,7,,,55,127
29637,note_on,1,0,0,,10,,,57,127
29637,note_on,0,0,0,,5,,,65,127
29728,note_off,91,0,0,,5,,,65,127
29728,note_off,0,0,0,,10,,,57,127
29729,note_on,1,0,0,,7,,,55,127
29729,note_on,0,0,0,,7,,,67,127
29820,note_off,91,0,0,,7,,,67,127
29820,note_off,0,0,0,,7,,,55,127
29821,note_on,1,0,0,,5,,,53,127
29821,note_on,0,0,0,,10,,,69,127
29912,note_off,91,0,0,,10,,,69,127
29912,note_off,0,0,0,,5,,,53,127
29913,note_on,1,0,0,,4,,,52,127
29913,note_on,0,0,0,,11,,,70,127
30096,note_off,183,0,0,,11,,,70,127
30096,note_off,0,0,0,,4,,,52,127
30097,note_on,1,0,0,,0,,,48,127
30097,note_on,0,0,0,,2,,,74,127
30280,note_off,183,0,0,,2,,,74,127
30280,note_off,0,0,0,,0,,,48,127
30281,note_on,1,0,0,,4,,,52,127
30281,note_on,0,0,0,,11,,,70,127
30464,note_off,183,0,0,,11,,,70,127
30464,note_off,0,0,0,,4,,,52,127
30465,note_on,1,0,0,,5,,,53,127
30465,note_on,0,0,0,,7,,,67,127
30648,note_off,183,0,0,,7,,,67,127
30649,note_on,1,0,0,,8,,,68,127
30832,note_off,183,0,0,,8,,,68,127
30833,note_on,1,0,0,,5,,,41,127
30833,note_on,0,0,0,,10,,,69,127
31016,note_off,183,0,0,,10,,,69,127
31016,note_off,0,0,0,,5,,,41,127
31016,note_off,0,0,0,,5,,,53,127
31017,note_on,1,0,0,,2,,,62,127
31017,note_on,0,0,0,,7,,,67,127
31062,note_off,45,0,0,,7,,,67,127
31063,note_on,1,0,0,,5,,,65,127
31108,note_off,45,0,0,,5,,,65,127
31109,note_on,1,0,0,,7,,,67,127
31154,note_off,45,0,0,,7,,,67,127
31155,note_on,1,0,0,,5,,,65,127
31200,note_off,45,0,0,,5,,,65,127
31200,note_off,0,0,0,,2,,,62,127
31201,note_on,1,0,0,,2,,,50,127
31201,note_on,0,0,0,,7,,,67,127
31246,note_off,45,0,0,,7,,,67,127
31247,note_on,1,0,0,,5,,,65,127
31292,note_off,45,0,0,,5,,,65,127
31293,note_on,1,0,0,,4,,,64,127
31384,note_off,91,0,0,,4,,,64,127
31384,note_off,0,0,0,,2,,,50,127
31385,note_on,1,0,0,,2,,,62,127
31385,note_on,0,0,0,,5,,,65,127
31476,note_off,91,0,0,,5,,,65,127
31477,note_on,1,0,0,,8,,,68,127
31568,note_off,91,0,0,,8,,,68,127
31568,note_off,0,0,0,,2,,,62,127
31569,note_on,1,0,0,,0,,,60,127
31569,note_on,0,0,0,,10,,,69,127
31752,note_off,183,0,0,,10,,,69,127
31752,note_off,0,0,0,,0,,,60,127
31753,note_on,1,0,0,,12,,,59,127
31753,note_on,0,0,0,,8,,,68,127
31753,note_on,0,0,0,,12,,,71,127
31936,note_off,183,0,0,,12,,,71,127
31936,note_off,0,0,0,,8,,,68,127
31936,note_off,0,0,0,,12,,,59,127
31937,note_on,1,0,0,,10,,,57,127
31937,note_on,0,0,0,,10,,,69,127
31937,note_on,0,0,0,,0,,,72,127
32120,note_off,183,0,0,,0,,,72,127
32120,note_off,0,0,0,,10,,,69,127
32120,note_off,0,0,0,,10,,,57,127
32121,note_on,1,0,0,,2,,,50,127
32121,note_on,0,0,0,,12,,,71,127
32121,note_on,0,0,0,,2,,,74,127
32304,note_off,183,0,0,,2,,,74,127
32304,note_off,0,0,0,,12,,,71,127
32304,note_off,0,0,0,,2,,,50,127
32305,note_on,1,0,0,,4,,,52,127
32305,note_on,0,0,0,,10,,,69,127
32305,note_on,0,0,0,,0,,,72,127
32488,note_off,183,0,0,,0,,,72,127
32488,note_off,0,0,0,,10,,,69,127
32488,note_off,0,0,0,,4,,,52,127
32489,note_on,1,0,0,,4,,,40,127
32489,note_on,0,0,0,,8,,,68,127
32489,note_on,0,0,0,,12,,,71,127
32672,note_off,183,0,0,,12,,,71,127
32672,note_off,0,0,0,,8,,,68,127
32672,note_off,0,0,0,,4,,,40,127
32673,note_on,1,0,0,,10,,,33,127
32673,note_on,0,0,0,,2,,,74,127
32673,note_on,0,0,0,,10,,,69,127
32718,note_off,45,0,0,,2,,,74,127
32719,note_on,1,0,0,,0,,,72,127
32764,note_off,45,0,0,,0,,,72,127
32765,note_on,1,0,0,,2,,,74,127
32810,note_off,45,0,0,,2,,,74,127
32811,note_on,1,0,0,,0,,,72,127
32855,note_off,44,0,0,,10,,,69,127
32856,note_off,1,0,0,,0,,,72,127
32857,note_on,1,0,0,,12,,,71,127
33037,note_off,180,0,0,,10,,,33,127
33040,note_off,3,0,0,,12,,,71,127
33041,note_on,1,0,0,,10,,,69,127
33224,note_off,183,0,0,,10,,,69,127
33225,note_on,1,0,0,,5,,,65,127
33225,note_on,0,0,0,,2,,,74,127
33255,note_off,30,0,0,,2,,,74,127
33255,note_off,0,0,0,,5,,,65,127
33256,note_on,1,0,0,,4,,,64,127
33256,note_on,0,0,0,,1,,,73,127
33286,note_off,30,0,0,,1,,,73,127
33286,note_off,0,0,0,,4,,,64,127
33287,note_on,1,0,0,,5,,,65,127
33287,note_on,0,0,0,,2,,,74,127
33317,note_off,30,0,0,,2,,,74,127
33317,note_off,0,0,0,,5,,,65,127
33318,note_on,1,0,0,,4,,,64,127
33318,note_on,0,0,0,,1,,,73,127
33501,note_off,183,0,0,,1,,,73,127
33501,note_off,0,0,0,,4,,,64,127
33502,note_on,1,0,0,,5,,,65,127
33502,note_on,0,0,0,,12,,,71,127
33593,note_off,91,0,0,,12,,,71,127
33593,note_off,0,0,0,,5,,,65,127
33594,note_on,1,0,0,,4,,,64,127
33594,note_on,0,0,0,,1,,,73,127
33685,note_off,91,0,0,,1,,,73,127
33685,note_off,0,0,0,,4,,,64,127
33686,note_on,1,0,0,,2,,,62,127
33686,note_on,0,0,0,,2,,,74,127
33777,note_off,91,0,0,,2,,,74,127
33777,note_off,0,0,0,,2,,,62,127
33778,note_on,1,0,0,,2,,,62,127
33778,note_on,0,0,0,,5,,,77,127
33808,note_off,30,0,0,,5,,,77,127
33808,note_off,0,0,0,,2,,,62,127
33809,note_on,1,0,0,,1,,,61,127
33809,note_on,0,0,0,,4,,,76,127
33839,note_off,30,0,0,,4,,,76,127
33839,note_off,0,0,0,,1,,,61,127
33840,note_on,1,0,0,,2,,,62,127
33840,note_on,0,0,0,,5,,,77,127
33870,note_off,30,0,0,,5,,,77,127
33870,note_off,0,0,0,,2,,,62,127
33871,note_on,1,0,0,,1,,,61,127
33871,note_on,0,0,0,,4,,,76,127
34054,note_off,183,0,0,,4,,,76,127
34054,note_off,0,0,0,,1,,,61,127
34055,note_on,1,0,0,,2,,,62,127
34055,note_on,0,0,0,,2,,,74,127
34146,note_off,91,0,0,,2,,,74,127
34146,note_off,0,0,0,,2,,,62,127
34147,note_on,1,0,0,,1,,,61,127
34147,note_on,0,0,0,,4,,,76,127
34238,note_off,91,0,0,,4,,,76,127
34238,note_off,0,0,0,,1,,,61,127
34239,note_on,1,0,0,,12,,,59,127
34239,note_on,0,0,0,,5,,,77,127
34330,note_off,91,0,0,,5,,,77,127
34330,note_off,0,0,0,,12,,,59,127
34331,note_on,1,0,0,,10,,,57,127
34331,note_on,0,0,0,,7,,,79,127
34514,note_off,183,0,0,,7,,,79,127
34514,note_off,0,0,0,,10,,,57,127
34515,note_on,1,0,0,,1,,,61,127
34515,note_on,0,0,0,,4,,,76,127
34698,note_off,183,0,0,,4,,,76,127
34698,note_off,0,0,0,,1,,,61,127
34699,note_on,1,0,0,,10,,,57,127
34699,note_on,0,0,0,,10,,,81,127
34882,note_off,183,0,0,,10,,,81,127
34882,note_off,0,0,0,,10,,,57,127
34883,note_on,1,0,0,,2,,,62,127
34883,note_on,0,0,0,,7,,,79,127
34913,note_off,30,0,0,,7,,,79,127
34914,note_on,1,0,0,,5,,,77,127
34944,note_off,30,0,0,,5,,,77,127
34945,note_on,1,0,0,,7,,,79,127
34975,note_off,30,0,0,,2,,,62,127
34976,note_on,1,0,0,,5,,,65,127
35006,note_off,30,0,0,,7,,,79,127
35007,note_on,1,0,0,,5,,,77,127
35067,note_off,60,0,0,,5,,,65,127
35068,note_on,1,0,0,,4,,,64,127
35159,note_off,91,0,0,,4,,,64,127
35160,note_on,1,0,0,,5,,,65,127
35251,note_off,91,0,0,,5,,,65,127
35252,note_on,1,0,0,,2,,,62,127
35343,note_off,91,0,0,,2,,,62,127
35344,note_on,1,0,0,,5,,,65,127
35435,note_off,91,0,0,,5,,,65,127
35435,note_off,0,0,0,,5,,,77,127
35436,note_on,1,0,0,,4,,,64,127
35436,note_on,0,0,0,,7,,,79,127
35527,note_off,91,0,0,,4,,,64,127
35528,note_on,1,0,0,,7,,,67,127
35619,note_off,91,0,0,,7,,,67,127
35619,note_off,0,0,0,,7,,,79,127
35620,note_on,1,0,0,,1,,,61,127
35620,note_on,0,0,0,,4,,,76,127
35711,note_off,91,0,0,,1,,,61,127
35712,note_on,1,0,0,,4,,,64,127
35803,note_off,91,0,0,,4,,,64,127
35803,note_off,0,0,0,,4,,,76,127
35804,note_on,1,0,0,,10,,,57,127
35804,note_on,0,0,0,,10,,,81,127
35895,note_off,91,0,0,,10,,,57,127
35896,note_on,1,0,0,,1,,,61,127
35987,note_off,91,0,0,,1,,,61,127
35987,note_off,0,0,0,,10,,,81,127
35988,note_on,1,0,0,,2,,,62,127
35988,note_on,0,0,0,,7,,,79,127
36018,note_off,30,0,0,,7,,,79,127
36019,note_on,1,0,0,,5,,,77,127
36049,note_off,30,0,0,,5,,,77,127
36050,note_on,1,0,0,,7,,,79,127
36080,note_off,30,0,0,,7,,,79,127
36080,note_off,0,0,0,,2,,,62,127
36081,note_on,1,0,0,,5,,,65,127
36081,note_on,0,0,0,,5,,,77,127
36172,note_off,91,0,0,,5,,,65,127
36173,note_on,1,0,0,,4,,,64,127
36264,note_off,91,0,0,,4,,,64,127
36265,note_on,1,0,0,,5,,,65,127
36356,note_off,91,0,0,,5,,,65,127
36357,note_on,1,0,0,,2,,,62,127
36448,note_off,91,0,0,,2,,,62,127
36449,note_on,1,0,0,,5,,,65,127
36540,note_off,91,0,0,,5,,,65,127
36540,note_off,0,0,0,,5,,,77,127
36541,note_on,1,0,0,,4,,,64,127
36541,note_on,0,0,0,,7,,,79,127
36632,note_off,91,0,0,,4,,,64,127
36633,note_on,1,0,0,,7,,,67,127
36724,note_off,91,0,0,,7,,,67,127
36724,note_off,0,0,0,,7,,,79,127
36725,note_on,1,0,0,,1,,,61,127
36725,note_on,0,0,0,,4,,,76,127
36816,note_off,91,0,0,,1,,,61,127
36817,note_on,1,0,0,,4,,,64,127
36908,note_off,91,0,0,,4,,,64,127
36908,note_off,0,0,0,,4,,,76,127
36909,note_on,1,0,0,,10,,,57,127
36909,note_on,0,0,0,,10,,,81,127
37000,note_off,91,0,0,,10,,,57,127
37001,note_on,1,0,0,,1,,,61,127
37092,note_off,91,0,0,,1,,,61,127
37092,note_off,0,0,0,,10,,,81,127
37093,note_on,1,0,0,,2,,,62,127
37093,note_on,0,0,0,,7,,,79,127
37138,note_off,45,0,0,,7,,,79,127
37139,note_on,1,0,0,,5,,,77,127
37184,note_off,45,0,0,,5,,,77,127
37184,note_off,0,0,0,,2,,,62,127
37185,note_on,1,0,0,,5,,,65,127
37185,note_on,0,0,0,,7,,,79,127
37230,note_off,45,0,0,,7,,,79,127
37231,note_on,1,0,0,,5,,,77,127
37276,note_off,45,0,0,,5,,,65,127
37277,note_on,1,0,0,,4,,,64,127
37368,note_off,91,0,0,,4,,,64,127
37369,note_on,1,0,0,,5,,,65,127
37460,note_off,91,0,0,,5,,,65,127
37461,note_on,1,0,0,,0,,,60,127
37552,note_off,91,0,0,,0,,,60,127
37553,note_on,1,0,0,,5,,,65,127
37639,note_off,86,0,0,,5,,,77,127
37644,note_off,5,0,0,,5,,,65,127
37645,note_on,1,0,0,,12,,,59,127
37645,note_on,0,0,0,,5,,,77,127
37736,note_off,91,0,0,,12,,,59,127
37737,note_on,1,0,0,,2,,,62,127
37828,note_off,91,0,0,,2,,,62,127
37828,note_off,0,0,0,,5,,,77,127
37829,note_on,1,0,0,,0,,,60,127
37829,note_on,0,0,0,,2,,,74,127
37920,note_off,91,0,0,,0,,,60,127
37921,note_on,1,0,0,,2,,,62,127
38012,note_off,91,0,0,,2,,,62,127
38012,note_off,0,0,0,,2,,,74,127
38013,note_on,1,0,0,,7,,,55,127
38013,note_on,0,0,0,,7,,,79,127
38104,note_off,91,0,0,,7,,,55,127
38105,note_on,1,0,0,,12,,,59,127
38196,note_off,91,0,0,,12,,,59,127
38196,note_off,0,0,0,,7,,,79,127
38197,note_on,1,0,0,,0,,,60,127
38197,note_on,0,0,0,,5,,,77,127
38242,note_off,45,0,0,,5,,,77,127
38243,note_on,1,0,0,,4,,,76,127
38288,note_off,45,0,0,,4,,,76,127
38288,note_off,0,0,0,,0,,,60,127
38289,note_on,1,0,0,,4,,,64,127
38289,note_on,0,0,0,,5,,,77,127
38334,note_off,45,0,0,,5,,,77,127
38335,note_on,1,0,0,,4,,,76,127
38380,note_off,45,0,0,,4,,,76,127
38380,note_off,0,0,0,,4,,,64,127
38381,note_on,1,0,0,,2,,,62,127
38381,note_on,0,0,0,,5,,,77,127
38426,note_off,45,0,0,,5,,,77,127
38427,note_on,1,0,0,,4,,,76,127
38472,note_off,45,0,0,,4,,,76,127
38472,note_off,0,0,0,,2,,,62,127
38473,note_on,1,0,0,,4,,,64,127
38473,note_on,0,0,0,,5,,,77,127
38518,note_off,45,0,0,,5,,,77,127
38519,note_on,1,0,0,,4,,,76,127
38564,note_off,45,0,0,,4,,,76,127
38564,note_off,0,0,0,,4,,,64,127
38565,note_on,1,0,0,,0,,,60,127
38565,note_on,0,0,0,,5,,,77,127
38610,note_off,45,0,0,,5,,,77,127
38611,note_on,1,0,0,,4,,,76,127
38656,note_off,45,0,0,,4,,,76,127
38656,note_off,0,0,0,,0,,,60,127
38657,note_on,1,0,0,,4,,,64,127
38657,note_on,0,0,0,,5,,,77,127
38702,note_off,45,0,0,,5,,,77,127
38703,note_on,1,0,0,,4,,,76,127
38748,note_off,45,0,0,,4,,,76,127
38748,note_off,0,0,0,,4,,,64,127
38749,note_on,1,0,0,,2,,,62,127
38749,note_on,0,0,0,,5,,,77,127
38840,note_off,91,0,0,,2,,,62,127
38841,note_on,1,0,0,,5,,,65,127
38932,note_off,91,0,0,,5,,,65,127
38932,note_off,0,0,0,,5,,,77,127
38933,note_on,1,0,0,,12,,,59,127
38933,note_on,0,0,0,,2,,,74,127
39024,note_off,91,0,0,,12,,,59,127
39025,note_on,1,0,0,,2,,,62,127
39116,note_off,91,0,0,,2,,,62,127
39116,note_off,0,0,0,,2,,,74,127
39117,note_on,1,0,0,,7,,,55,127
39117,note_on,0,0,0,,7,,,79,127
39208,note_off,91,0,0,,7,,,55,127
39209,note_on,1,0,0,,2,,,62,127
39300,note_off,91,0,0,,2,,,62,127
39300,note_off,0,0,0,,7,,,79,127
39301,note_on,1,0,0,,0,,,60,127
39301,note_on,0,0,0,,4,,,76,127
39392,note_off,91,0,0,,0,,,60,127
39393,note_on,1,0,0,,4,,,64,127
39484,note_off,91,0,0,,4,,,64,127
39484,note_off,0,0,0,,4,,,76,127
39485,note_on,1,0,0,,10,,,57,127
39485,note_on,0,0,0,,0,,,84,127
39576,note_off,91,0,0,,10,,,57,127
39577,note_on,1,0,0,,0,,,60,127
39668,note_off,91,0,0,,0,,,60,127
39668,note_off,0,0,0,,0,,,84,127
39669,note_on,1,0,0,,11,,,58,127
39669,note_on,0,0,0,,2,,,74,127
39760,note_off,91,0,0,,11,,,58,127
39761,note_on,1,0,0,,2,,,62,127
39852,note_off,91,0,0,,2,,,62,127
39852,note_off,0,0,0,,2,,,74,127
39853,note_on,1,0,0,,7,,,55,127
39853,note_on,0,0,0,,11,,,82,127
39944,note_off,91,0,0,,7,,,55,127
39945,note_on,1,0,0,,4,,,64,127
40036,note_off,91,0,0,,4,,,64,127
40036,note_off,0,0,0,,11,,,82,127
40037,note_on,1,0,0,,10,,,57,127
40037,note_on,0,0,0,,0,,,72,127
40128,note_off,91,0,0,,10,,,57,127
40129,note_on,1,0,0,,0,,,60,127
40220,note_off,91,0,0,,0,,,60,127
40220,note_off,0,0,0,,0,,,72,127
40221,note_on,1,0,0,,5,,,53,127
40221,note_on,0,0,0,,10,,,81,127
40312,note_off,91,0,0,,5,,,53,127
40313,note_on,1,0,0,,2,,,62,127
40404,note_off,91,0,0,,2,,,62,127
40404,note_off,0,0,0,,10,,,81,127
40405,note_on,1,0,0,,7,,,55,127
40405,note_on,0,0,0,,11,,,70,127
40496,note_off,91,0,0,,7,,,55,127
40497,note_on,1,0,0,,11,,,58,127
40588,note_off,91,0,0,,11,,,58,127
40588,note_off,0,0,0,,11,,,70,127
40589,note_on,1,0,0,,4,,,52,127
40589,note_on,0,0,0,,7,,,79,127
40680,note_off,91,0,0,,4,,,52,127
40681,note_on,1,0,0,,0,,,60,127
40772,note_off,91,0,0,,0,,,60,127
40772,note_off,0,0,0,,7,,,79,127
40773,note_on,1,0,0,,5,,,53,127
40773,note_on,0,0,0,,10,,,69,127
40864,note_off,91,0,0,,5,,,53,127
40865,note_on,1,0,0,,10,,,57,127
40956,note_off,91,0,0,,10,,,57,127
40956,note_off,0,0,0,,10,,,69,127
40957,note_on,1,0,0,,2,,,50,127
40957,note_on,0,0,0,,5,,,77,127
41048,note_off,91,0,0,,2,,,50,127
41049,note_on,1,0,0,,11,,,58,127
41140,note_off,91,0,0,,11,,,58,127
41140,note_off,0,0,0,,5,,,77,127
41141,note_on,1,0,0,,4,,,52,127
41141,note_on,0,0,0,,7,,,67,127
41232,note_off,91,0,0,,4,,,52,127
41233,note_on,1,0,0,,7,,,55,127
41324,note_off,91,0,0,,7,,,55,127
41324,note_off,0,0,0,,7,,,67,127
41325,note_on,1,0,0,,0,,,48,127
41325,note_on,0,0,0,,4,,,76,127
41416,note_off,91,0,0,,0,,,48,127
41417,note_on,1,0,0,,10,,,57,127
41508,note_off,91,0,0,,10,,,57,127
41508,note_off,0,0,0,,4,,,76,127
41509,note_on,1,0,0,,2,,,50,127
41509,note_on,0,0,0,,5,,,65,127
41600,note_off,91,0,0,,2,,,50,127
41601,note_on,1,0,0,,5,,,53,127
41692,note_off,91,0,0,,5,,,53,127
41692,note_off,0,0,0,,5,,,65,127
41693,note_on,1,0,0,,11,,,46,127
41693,note_on,0,0,0,,2,,,74,127
41784,note_off,91,0,0,,11,,,46,127
41785,note_on,1,0,0,,7,,,55,127
41876,note_off,91,0,0,,7,,,55,127
41876,note_off,0,0,0,,2,,,74,127
41877,note_on,1,0,0,,0,,,48,127
41877,note_on,0,0,0,,4,,,64,127
41968,note_off,91,0,0,,0,,,48,127
41969,note_on,1,0,0,,4,,,52,127
42060,note_off,91,0,0,,4,,,52,127
42060,note_off,0,0,0,,4,,,64,127
42061,note_on,1,0,0,,10,,,45,127
42061,note_on,0,0,0,,5,,,65,127
42152,note_off,91,0,0,,10,,,45,127
42153,note_on,1,0,0,,5,,,53,127
42244,note_off,91,0,0,,5,,,53,127
42244,note_off,0,0,0,,5,,,65,127
42245,note_on,1,0,0,,7,,,43,127
42245,note_on,0,0,0,,7,,,67,127
42245,note_on,0,0,0,,11,,,70,127
42336,note_off,91,0,0,,7,,,43,127
42337,note_on,1,0,0,,4,,,52,127
42428,note_off,91,0,0,,4,,,52,127
42428,note_off,0,0,0,,11,,,70,127
42428,note_off,0,0,0,,7,,,67,127
42429,note_on,1,0,0,,5,,,41,127
42429,note_on,0,0,0,,5,,,65,127
42429,note_on,0,0,0,,10,,,69,127
42520,note_off,91,0,0,,5,,,41,127
42521,note_on,1,0,0,,5,,,53,127
42612,note_off,91,0,0,,5,,,53,127
42612,note_off,0,0,0,,10,,,69,127
42612,note_off,0,0,0,,5,,,65,127
42613,note_on,1,0,0,,0,,,36,127
42613,note_on,0,0,0,,7,,,67,127
42613,note_on,0,0,0,,4,,,64,127
42704,note_off,91,0,0,,0,,,36,127
42705,note_on,1,0,0,,0,,,48,127
42796,note_off,91,0,0,,0,,,48,127
42796,note_off,0,0,0,,4,,,64,127
42796,note_off,0,0,0,,7,,,67,127
42797,note_on,1,0,0,,12,,,47,127
42797,note_on,0,0,0,,0,,,60,127
42888,note_off,91,0,0,,12,,,47,127
42889,note_on,1,0,0,,0,,,48,127
42980,note_off,91,0,0,,0,,,48,127
42980,note_off,0,0,0,,0,,,60,127
42981,note_on,1,0,0,,12,,,47,127
42981,note_on,0,0,0,,0,,,60,127
43072,note_off,91,0,0,,12,,,47,127
43073,note_on,1,0,0,,0,,,48,127
43164,note_off,91,0,0,,0,,,48,127
43164,note_off,0,0,0,,0,,,60,127
43165,note_on,1,0,0,,10,,,45,127
43165,note_on,0,0,0,,0,,,60,127
43256,note_off,91,0,0,,10,,,45,127
43257,note_on,1,0,0,,0,,,48,127
43348,note_off,91,0,0,,0,,,48,127
43348,note_off,0,0,0,,0,,,60,127
43349,note_on,1,0,0,,7,,,43,127
43349,note_on,0,0,0,,7,,,67,127
43349,note_on,0,0,0,,11,,,70,127
43440,note_off,91,0,0,,7,,,43,127
43441,note_on,1,0,0,,0,,,48,127
43532,note_off,91,0,0,,0,,,48,127
43532,note_off,0,0,0,,11,,,70,127
43532,note_off,0,0,0,,7,,,67,127
43533,note_on,1,0,0,,5,,,41,127
43533,note_on,0,0,0,,10,,,69,127
43533,note_on,0,0,0,,5,,,65,127
43624,note_off,91,0,0,,5,,,41,127
43625,note_on,1,0,0,,0,,,48,127
43716,note_off,91,0,0,,0,,,48,127
43716,note_off,0,0,0,,5,,,65,127
43716,note_off,0,0,0,,10,,,69,127
43717,note_on,1,0,0,,0,,,36,127
43717,note_on,0,0,0,,4,,,64,127
43717,note_on,0,0,0,,7,,,67,127
43808,note_off,91,0,0,,0,,,36,127
43809,note_on,1,0,0,,0,,,48,127
43900,note_off,91,0,0,,0,,,48,127
43900,note_off,0,0,0,,7,,,67,127
43900,note_off,0,0,0,,4,,,64,127
43901,note_on,1,0,0,,12,,,47,127
43901,note_on,0,0,0,,0,,,60,127
43992,note_off,91,0,0,,12,,,47,127
43993,note_on,1,0,0,,0,,,48,127
44084,note_off,91,0,0,,0,,,48,127
44084,note_off,0,0,0,,0,,,60,127
44085,note_on,1,0,0,,12,,,47,127
44085,note_on,0,0,0,,0,,,60,127
44176,note_off,91,0,0,,12,,,47,127
44177,note_on,1,0,0,,0,,,48,127
44268,note_off,91,0,0,,0,,,48,127
44268,note_off,0,0,0,,0,,,60,127
44269,note_on,1,0,0,,10,,,45,127
44269,note_on,0,0,0,,0,,,60,127
44360,note_off,91,0,0,,10,,,45,127
44361,note_on,1,0,0,,0,,,48,127
44452,note_off,91,0,0,,0,,,48,127
44452,note_off,0,0,0,,0,,,60,127
44453,note_on,1,0,0,,7,,,43,127
44453,note_on,0,0,0,,7,,,67,127
44453,note_on,0,0,0,,11,,,70,127
44544,note_off,91,0,0,,7,,,43,127
44545,note_on,1,0,0,,0,,,48,127
44636,note_off,91,0,0,,0,,,48,127
44636,note_off,0,0,0,,11,,,70,127
44636,note_off,0,0,0,,7,,,67,127
44637,note_on,1,0,0,,5,,,41,127
44637,note_on,0,0,0,,5,,,65,127
44637,note_on,0,0,0,,10,,,69,127
44728,note_off,91,0,0,,5,,,41,127
44729,note_on,1,0,0,,0,,,48,127
44820,note_off,91,0,0,,0,,,48,127
44820,note_off,0,0,0,,10,,,69,127
44820,note_off,0,0,0,,5,,,65,127
44821,note_on,1,0,0,,0,,,36,127
44821,note_on,0,0,0,,4,,,64,127
44821,note_on,0,0,0,,0,,,60,127
44821,note_on,0,0,0,,7,,,67,127
44912,note_off,91,0,0,,0,,,36,127
44913,note_on,1,0,0,,0,,,48,127
45003,note_off,90,0,0,,4,,,64,127
45004,note_off,1,0,0,,0,,,48,127
45004,note_off,0,0,0,,0,,,60,127
45005,note_on,1,0,0,,12,,,47,127
45005,note_on,0,0,0,,0,,,60,127
45005,note_on,0,0,0,,4,,,64,127
45096,note_off,91,0,0,,12,,,47,127
45097,note_on,1,0,0,,0,,,48,127
45185,note_off,88,0,0,,7,,,67,127
45188,note_off,3,0,0,,0,,,48,127
45188,note_off,0,0,0,,4,,,64,127
45188,note_off,0,0,0,,0,,,60,127
45189,note_on,1,0,0,,5,,,41,127
45189,note_on,0,0,0,,0,,,60,127
45189,note_on,0,0,0,,10,,,69,127
45189,note_on,0,0,0,,5,,,65,127
45280,note_off,91,0,0,,5,,,41,127
45281,note_on,1,0,0,,0,,,48,127
45372,note_off,91,0,0,,0,,,48,127
45372,note_off,0,0,0,,5,,,65,127
45372,note_off,0,0,0,,10,,,69,127
45372,note_off,0,0,0,,0,,,60,127
45373,note_on,1,0,0,,0,,,36,127
45373,note_on,0,0,0,,0,,,60,127
45373,note_on,0,0,0,,7,,,67,127
45373,note_on,0,0,0,,4,,,64,127
45464,note_off,91,0,0,,0,,,36,127
45465,note_on,1,0,0,,0,,,48,127
45556,note_off,91,0,0,,0,,,48,127
45556,note_off,0,0,0,,0,,,60,127
45557,note_on,1,0,0,,12,,,47,127
45557,note_on,0,0,0,,0,,,60,127
45648,note_off,91,0,0,,12,,,47,127
45649,note_on,1,0,0,,0,,,48,127
45737,note_off,88,0,0,,4,,,64,127
45737,note_off,0,0,0,,7,,,67,127
45740,note_off,3,0,0,,0,,,48,127
45740,note_off,0,0,0,,0,,,60,127
45741,note_on,1,0,0,,5,,,41,127
45741,note_on,0,0,0,,5,,,65,127
45741,note_on,0,0,0,,0,,,60,127
45741,note_on,0,0,0,,10,,,69,127
45832,note_off,91,0,0,,5,,,41,127
45833,note_on,1,0,0,,0,,,48,127
45924,note_off,91,0,0,,0,,,48,127
45924,note_off,0,0,0,,10,,,69,127
45924,note_off,0,0,0,,0,,,60,127
45924,note_off,0,0,0,,5,,,65,127
45925,note_on,1,0,0,,0,,,36,127
45925,note_on,0,0,0,,10,,,69,127
45955,note_off,30,0,0,,10,,,69,127
45956,note_on,1,0,0,,7,,,67,127
45986,note_off,30,0,0,,7,,,67,127
45987,note_on,1,0,0,,10,,,69,127
46017,note_off,30,0,0,,10,,,69,127
46018,note_on,1,0,0,,7,,,67,127
46387,note_off,369,0,0,,0,,,36,127
46478,note_off,91,0,0,,7,,,67,127
46479,note_on,1,0,0,,0,,,60,127
46479,note_on,0,0,0,,5,,,65,127
46509,note_off,30,0,0,,5,,,65,127
46509,note_off,0,0,0,,0,,,60,127
46510,note_on,1,0,0,,11,,,58,127
46510,note_on,0,0,0,,4,,,64,127
46540,note_off,30,0,0,,4,,,64,127
46540,note_off,0,0,0,,11,,,58,127
46541,note_on,1,0,0,,0,,,60,127
46541,note_on,0,0,0,,5,,,65,127
46571,note_off,30,0,0,,5,,,65,127
46571,note_off,0,0,0,,0,,,60,127
46572,note_on,1,0,0,,11,,,58,127
46572,note_on,0,0,0,,4,,,64,127
46755,note_off,183,0,0,,4,,,64,127
46755,note_off,0,0,0,,11,,,58,127
46756,note_on,1,0,0,,0,,,60,127
46756,note_on,0,0,0,,2,,,62,127
46847,note_off,91,0,0,,2,,,62,127
46847,note_off,0,0,0,,0,,,60,127
46848,note_on,1,0,0,,11,,,58,127
46848,note_on,0,0,0,,4,,,64,127
46939,note_off,91,0,0,,4,,,64,127
46939,note_off,0,0,0,,11,,,58,127
46940,note_on,1,0,0,,10,,,57,127
46940,note_on,0,0,0,,5,,,65,127
47031,note_off,91,0,0,,5,,,65,127
47031,note_off,0,0,0,,10,,,57,127
47032,note_on,1,0,0,,10,,,57,127
47032,note_on,0,0,0,,10,,,69,127
47062,note_off,30,0,0,,10,,,69,127
47062,note_off,0,0,0,,10,,,57,127
47063,note_on,1,0,0,,7,,,55,127
47063,note_on,0,0,0,,7,,,67,127
47093,note_off,30,0,0,,7,,,67,127
47093,note_off,0,0,0,,7,,,55,127
47094,note_on,1,0,0,,10,,,57,127
47094,note_on,0,0,0,,10,,,69,127
47124,note_off,30,0,0,,10,,,69,127
47124,note_off,0,0,0,,10,,,57,127
47125,note_on,1,0,0,,7,,,55,127
47125,note_on,0,0,0,,7,,,67,127
47308,note_off,183,0,0,,7,,,67,127
47308,note_off,0,0,0,,7,,,55,127
47309,note_on,1,0,0,,10,,,57,127
47309,note_on,0,0,0,,5,,,65,127
47400,note_off,91,0,0,,5,,,65,127
47400,note_off,0,0,0,,10,,,57,127
47401,note_on,1,0,0,,7,,,55,127
47401,note_on,0,0,0,,7,,,67,127
47492,note_off,91,0,0,,7,,,67,127
47492,note_off,0,0,0,,7,,,55,127
47493,note_on,1,0,0,,5,,,53,127
47493,note_on,0,0,0,,10,,,69,127
47584,note_off,91,0,0,,10,,,69,127
47584,note_off,0,0,0,,5,,,53,127
47585,note_on,1,0,0,,5,,,53,127
47585,note_on,0,0,0,,0,,,72,127
47615,note_off,30,0,0,,0,,,72,127
47615,note_off,0,0,0,,5,,,53,127
47616,note_on,1,0,0,,4,,,52,127
47616,note_on,0,0,0,,11,,,70,127
47646,note_off,30,0,0,,11,,,70,127
47646,note_off,0,0,0,,4,,,52,127
47647,note_on,1,0,0,,5,,,53,127
47647,note_on,0,0,0,,0,,,72,127
47677,note_off,30,0,0,,0,,,72,127
47677,note_off,0,0,0,,5,,,53,127
47678,note_on,1,0,0,,4,,,52,127
47678,note_on,0,0,0,,11,,,70,127
47861,note_off,183,0,0,,11,,,70,127
47861,note_off,0,0,0,,4,,,52,127
47862,note_on,1,0,0,,5,,,53,127
47862,note_on,0,0,0,,10,,,69,127
47953,note_off,91,0,0,,10,,,69,127
47953,note_off,0,0,0,,5,,,53,127
47954,note_on,1,0,0,,4,,,52,127
47954,note_on,0,0,0,,11,,,70,127
48045,note_off,91,0,0,,11,,,70,127
48045,note_off,0,0,0,,4,,,52,127
48046,note_on,1,0,0,,2,,,50,127
48046,note_on,0,0,0,,0,,,72,127
48091,note_off,45,0,0,,0,,,72,127
48092,note_on,1,0,0,,2,,,74,127
48137,note_off,45,0,0,,2,,,74,127
48137,note_off,0,0,0,,2,,,50,127
48138,note_on,1,0,0,,0,,,48,127
48138,note_on,0,0,0,,4,,,76,127
48321,note_off,183,0,0,,4,,,76,127
48322,note_on,1,0,0,,11,,,70,127
48505,note_off,183,0,0,,11,,,70,127
48506,note_on,1,0,0,,7,,,67,127
48598,note_off,92,0,0,,0,,,48,127
48689,note_off,91,0,0,,7,,,67,127
48690,note_on,1,0,0,,0,,,60,127
48690,note_on,0,0,0,,5,,,65,127
48720,note_off,30,0,0,,5,,,65,127
48720,note_off,0,0,0,,0,,,60,127
48721,note_on,1,0,0,,11,,,58,127
48721,note_on,0,0,0,,4,,,64,127
48751,note_off,30,0,0,,4,,,64,127
48751,note_off,0,0,0,,11,,,58,127
48752,note_on,1,0,0,,0,,,60,127
48752,note_on,0,0,0,,5,,,65,127
48782,note_off,30,0,0,,5,,,65,127
48782,note_off,0,0,0,,0,,,60,127
48783,note_on,1,0,0,,11,,,58,127
48783,note_on,0,0,0,,4,,,64,127
48966,note_off,183,0,0,,4,,,64,127
48966,note_off,0,0,0,,11,,,58,127
48967,note_on,1,0,0,,0,,,60,127
48967,note_on,0,0,0,,2,,,62,127
49058,note_off,91,0,0,,2,,,62,127
49058,note_off,0,0,0,,0,,,60,127
49059,note_on,1,0,0,,11,,,58,127
49059,note_on,0,0,0,,4,,,64,127
49150,note_off,91,0,0,,4,,,64,127
49150,note_off,0,0,0,,11,,,58,127
49151,note_on,1,0,0,,10,,,57,127
49151,note_on,0,0,0,,5,,,65,127
49242,note_off,91,0,0,,5,,,65,127
49242,note_off,0,0,0,,10,,,57,127
49243,note_on,1,0,0,,10,,,57,127
49243,note_on,0,0,0,,10,,,69,127
49273,note_off,30,0,0,,10,,,69,127
49273,note_off,0,0,0,,10,,,57,127
49274,note_on,1,0,0,,7,,,55,127
49274,note_on,0,0,0,,7,,,67,127
49304,note_off,30,0,0,,7,,,67,127
49304,note_off,0,0,0,,7,,,55,127
49305,note_on,1,0,0,,10,,,57,127
49305,note_on,0,0,0,,10,,,69,127
49335,note_off,30,0,0,,10,,,69,127
49335,note_off,0,0,0,,10,,,57,127
49336,note_on,1,0,0,,7,,,55,127
49336,note_on,0,0,0,,7,,,67,127
49519,note_off,183,0,0,,7,,,67,127
49519,note_off,0,0,0,,7,,,55,127
49520,note_on,1,0,0,,10,,,57,127
49520,note_on,0,0,0,,5,,,65,127
49611,note_off,91,0,0,,5,,,65,127
49611,note_off,0,0,0,,10,,,57,127
49612,note_on,1,0,0,,7,,,55,127
49612,note_on,0,0,0,,7,,,67,127
49703,note_off,91,0,0,,7,,,67,127
49703,note_off,0,0,0,,7,,,55,127
49704,note_on,1,0,0,,5,,,53,127
49704,note_on,0,0,0,,10,,,69,127
49795,note_off,91,0,0,,10,,,69,127
49795,note_off,0,0,0,,5,,,53,127
49796,note_on,1,0,0,,5,,,53,127
49796,note_on,0,0,0,,0,,,72,127
49826,note_off,30,0,0,,0,,,72,127
49826,note_off,0,0,0,,5,,,53,127
49827,note_on,1,0,0,,4,,,52,127
49827,note_on,0,0,0,,11,,,70,127
49857,note_off,30,0,0,,11,,,70,127
49857,note_off,0,0,0,,4,,,52,127
49858,note_on,1,0,0,,5,,,53,127
49858,note_on,0,0,0,,0,,,72,127
49888,note_off,30,0,0,,0,,,72,127
49888,note_off,0,0,0,,5,,,53,127
49889,note_on,1,0,0,,4,,,52,127
49889,note_on,0,0,0,,11,,,70,127
50072,note_off,183,0,0,,11,,,70,127
50072,note_off,0,0,0,,4,,,52,127
50073,note_on,1,0,0,,5,,,53,127
50073,note_on,0,0,0,,10,,,69,127
50164,note_off,91,0,0,,10,,,69,127
50164,note_off,0,0,0,,5,,,53,127
50165,note_on,1,0,0,,4,,,52,127
50165,note_on,0,0,0,,11,,,70,127
50256,note_off,91,0,0,,11,,,70,127
50256,note_off,0,0,0,,4,,,52,127
50257,note_on,1,0,0,,2,,,50,127
50257,note_on,0,0,0,,0,,,72,127
50302,note_off,45,0,0,,0,,,72,127
50303,note_on,1,0,0,,2,,,74,127
50348,note_off,45,0,0,,2,,,74,127
50348,note_off,0,0,0,,2,,,50,127
50349,note_on,1,0,0,,0,,,48,127
50349,note_on,0,0,0,,4,,,76,127
50532,note_off,183,0,0,,4,,,76,127
50533,note_on,1,0,0,,11,,,70,127
50713,note_off,180,0,0,,0,,,48,127
50716,note_off,3,0,0,,11,,,70,127
50717,note_on,1,0,0,,7,,,67,127
50900,note_off,183,0,0,,7,,,67,127
50901,note_on,1,0,0,,11,,,58,127
50901,note_on,0,0,0,,7,,,67,127
50931,note_off,30,0,0,,7,,,67,127
50931,note_off,0,0,0,,11,,,58,127
50932,note_on,1,0,0,,10,,,57,127
50932,note_on,0,0,0,,5,,,65,127
50962,note_off,30,0,0,,5,,,65,127
50962,note_off,0,0,0,,10,,,57,127
50963,note_on,1,0,0,,11,,,58,127
50963,note_on,0,0,0,,7,,,67,127
50993,note_off,30,0,0,,7,,,67,127
50993,note_off,0,0,0,,11,,,58,127
50994,note_on,1,0,0,,10,,,57,127
50994,note_on,0,0,0,,5,,,65,127
51177,note_off,183,0,0,,5,,,65,127
51177,note_off,0,0,0,,10,,,57,127
51178,note_on,1,0,0,,11,,,58,127
51178,note_on,0,0,0,,4,,,64,127
51269,note_off,91,0,0,,4,,,64,127
51269,note_off,0,0,0,,11,,,58,127
51270,note_on,1,0,0,,10,,,57,127
51270,note_on,0,0,0,,5,,,65,127
51361,note_off,91,0,0,,5,,,65,127
51361,note_off,0,0,0,,10,,,57,127
51362,note_on,1,0,0,,7,,,55,127
51362,note_on,0,0,0,,7,,,67,127
51453,note_off,91,0,0,,7,,,67,127
51453,note_off,0,0,0,,7,,,55,127
51454,note_on,1,0,0,,7,,,55,127
51454,note_on,0,0,0,,11,,,70,127
51484,note_off,30,0,0,,11,,,70,127
51484,note_off,0,0,0,,7,,,55,127
51485,note_on,1,0,0,,5,,,53,127
51485,note_on,0,0,0,,10,,,69,127
51515,note_off,30,0,0,,10,,,69,127
51515,note_off,0,0,0,,5,,,53,127
51516,note_on,1,0,0,,7,,,55,127
51516,note_on,0,0,0,,11,,,70,127
51546,note_off,30,0,0,,11,,,70,127
51546,note_off,0,0,0,,7,,,55,127
51547,note_on,1,0,0,,5,,,53,127
51547,note_on,0,0,0,,10,,,69,127
51730,note_off,183,0,0,,10,,,69,127
51730,note_off,0,0,0,,5,,,53,127
51731,note_on,1,0,0,,7,,,55,127
51731,note_on,0,0,0,,7,,,67,127
51798,note_off,67,0,0,,7,,,55,127
51799,note_on,1,0,0,,5,,,53,127
51822,note_off,23,0,0,,7,,,67,127
51823,note_on,1,0,0,,10,,,69,127
51866,note_off,43,0,0,,5,,,53,127
51867,note_on,1,0,0,,4,,,52,127
51914,note_off,47,0,0,,10,,,69,127
51915,note_on,1,0,0,,11,,,70,127
51934,note_off,19,0,0,,4,,,52,127
51935,note_on,1,0,0,,2,,,50,127
52006,note_off,71,0,0,,2,,,50,127
52006,note_off,0,0,0,,11,,,70,127
52007,note_on,1,0,0,,2,,,50,127
52007,note_on,0,0,0,,2,,,74,127
52037,note_off,30,0,0,,2,,,74,127
52037,note_off,0,0,0,,2,,,50,127
52038,note_on,1,0,0,,0,,,48,127
52038,note_on,0,0,0,,0,,,72,127
52068,note_off,30,0,0,,0,,,72,127
52068,note_off,0,0,0,,0,,,48,127
52069,note_on,1,0,0,,2,,,50,127
52069,note_on,0,0,0,,2,,,74,127
52099,note_off,30,0,0,,2,,,74,127
52099,note_off,0,0,0,,2,,,50,127
52100,note_on,1,0,0,,0,,,48,127
52100,note_on,0,0,0,,0,,,72,127
52283,note_off,183,0,0,,0,,,72,127
52283,note_off,0,0,0,,0,,,48,127
52284,note_on,1,0,0,,2,,,50,127
52284,note_on,0,0,0,,11,,,70,127
52375,note_off,91,0,0,,11,,,70,127
52375,note_off,0,0,0,,2,,,50,127
52376,note_on,1,0,0,,0,,,48,127
52376,note_on,0,0,0,,0,,,72,127
52467,note_off,91,0,0,,0,,,72,127
52467,note_off,0,0,0,,0,,,48,127
52468,note_on,1,0,0,,11,,,46,127
52468,note_on,0,0,0,,2,,,74,127
52513,note_off,45,0,0,,2,,,74,127
52514,note_on,1,0,0,,4,,,76,127
52559,note_off,45,0,0,,4,,,76,127
52559,note_off,0,0,0,,11,,,46,127
52560,note_on,1,0,0,,10,,,45,127
52560,note_on,0,0,0,,5,,,77,127
52743,note_off,183,0,0,,5,,,77,127
52744,note_on,1,0,0,,0,,,72,127
52927,note_off,183,0,0,,0,,,72,127
52928,note_on,1,0,0,,10,,,69,127
53020,note_off,92,0,0,,10,,,45,127
53111,note_off,91,0,0,,10,,,69,127
53112,note_on,1,0,0,,11,,,58,127
53112,note_on,0,0,0,,7,,,67,127
53142,note_off,30,0,0,,7,,,67,127
53142,note_off,0,0,0,,11,,,58,127
53143,note_on,1,0,0,,10,,,57,127
53143,note_on,0,0,0,,5,,,65,127
53173,note_off,30,0,0,,5,,,65,127
53173,note_off,0,0,0,,10,,,57,127
53174,note_on,1,0,0,,11,,,58,127
53174,note_on,0,0,0,,7,,,67,127
53204,note_off,30,0,0,,7,,,67,127
53204,note_off,0,0,0,,11,,,58,127
53205,note_on,1,0,0,,10,,,57,127
53205,note_on,0,0,0,,5,,,65,127
53388,note_off,183,0,0,,5,,,65,127
53388,note_off,0,0,0,,10,,,57,127
53389,note_on,1,0,0,,11,,,58,127
53389,note_on,0,0,0,,4,,,64,127
53480,note_off,91,0,0,,4,,,64,127
53480,note_off,0,0,0,,11,,,58,127
53481,note_on,1,0,0,,10,,,57,127
53481,note_on,0,0,0,,5,,,65,127
53572,note_off,91,0,0,,5,,,65,127
53572,note_off,0,0,0,,10,,,57,127
53573,note_on,1,0,0,,7,,,55,127
53573,note_on,0,0,0,,7,,,67,127
53664,note_off,91,0,0,,7,,,67,127
53664,note_off,0,0,0,,7,,,55,127
53665,note_on,1,0,0,,7,,,55,127
53665,note_on,0,0,0,,11,,,70,127
53695,note_off,30,0,0,,11,,,70,127
53695,note_off,0,0,0,,7,,,55,127
53696,note_on,1,0,0,,5,,,53,127
53696,note_on,0,0,0,,10,,,69,127
53726,note_off,30,0,0,,10,,,69,127
53726,note_off,0,0,0,,5,,,53,127
53727,note_on,1,0,0,,7,,,55,127
53727,note_on,0,0,0,,11,,,70,127
53757,note_off,30,0,0,,11,,,70,127
53757,note_off,0,0,0,,7,,,55,127
53758,note_on,1,0,0,,5,,,53,127
53758,note_on,0,0,0,,10,,,69,127
53941,note_off,183,0,0,,10,,,69,127
53941,note_off,0,0,0,,5,,,53,127
53942,note_on,1,0,0,,7,,,55,127
53942,note_on,0,0,0,,7,,,67,127
54009,note_off,67,0,0,,7,,,55,127
54010,note_on,1,0,0,,5,,,53,127
54033,note_off,23,0,0,,7,,,67,127
54034,note_on,1,0,0,,10,,,69,127
54077,note_off,43,0,0,,5,,,53,127
54078,note_on,1,0,0,,4,,,52,127
54125,note_off,47,0,0,,10,,,69,127
54126,note_on,1,0,0,,11,,,70,127
54145,note_off,19,0,0,,4,,,52,127
54146,note_on,1,0,0,,2,,,50,127
54217,note_off,71,0,0,,2,,,50,127
54217,note_off,0,0,0,,11,,,70,127
54218,note_on,1,0,0,,2,,,50,127
54218,note_on,0,0,0,,2,,,74,127
54248,note_off,30,0,0,,2,,,74,127
54248,note_off,0,0,0,,2,,,50,127
54249,note_on,1,0,0,,0,,,48,127
54249,note_on,0,0,0,,0,,,72,127
54279,note_off,30,0,0,,0,,,72,127
54279,note_off,0,0,0,,0,,,48,127
54280,note_on,1,0,0,,2,,,50,127
54280,note_on,0,0,0,,2,,,74,127
54310,note_off,30,0,0,,2,,,74,127
54310,note_off,0,0,0,,2,,,50,127
54311,note_on,1,0,0,,0,,,48,127
54311,note_on,0,0,0,,0,,,72,127
54494,note_off,183,0,0,,0,,,72,127
54494,note_off,0,0,0,,0,,,48,127
54495,note_on,1,0,0,,2,,,50,127
54495,note_on,0,0,0,,11,,,70,127
54586,note_off,91,0,0,,11,,,70,127
54586,note_off,0,0,0,,2,,,50,127
54587,note_on,1,0,0,,0,,,48,127
54587,note_on,0,0,0,,0,,,72,127
54678,note_off,91,0,0,,0,,,72,127
54678,note_off,0,0,0,,0,,,48,127
54679,note_on,1,0,0,,11,,,46,127
54679,note_on,0,0,0,,2,,,74,127
54724,note_off,45,0,0,,2,,,74,127
54725,note_on,1,0,0,,4,,,76,127
54770,note_off,45,0,0,,4,,,76,127
54770,note_off,0,0,0,,11,,,46,127
54771,note_on,1,0,0,,10,,,45,127
54771,note_on,0,0,0,,5,,,77,127
54954,note_off,183,0,0,,5,,,77,127
54955,note_on,1,0,0,,0,,,72,127
55138,note_off,183,0,0,,0,,,72,127
55139,note_on,1,0,0,,10,,,69,127
55231,note_off,92,0,0,,10,,,45,127
55322,note_off,91,0,0,,10,,,69,127
55323,note_on,1,0,0,,11,,,58,127
55323,note_on,0,0,0,,1,,,73,127
55506,note_off,183,0,0,,1,,,73,127
55506,note_off,0,0,0,,11,,,58,127
55507,note_on,1,0,0,,5,,,65,127
55507,note_on,0,0,0,,2,,,74,127
55690,note_off,183,0,0,,2,,,74,127
55690,note_off,0,0,0,,5,,,65,127
55691,note_on,1,0,0,,7,,,67,127
55691,note_on,0,0,0,,11,,,70,127
55874,note_off,183,0,0,,11,,,70,127
55874,note_off,0,0,0,,7,,,67,127
55875,note_on,1,0,0,,10,,,57,127
55875,note_on,0,0,0,,12,,,71,127
56058,note_off,183,0,0,,12,,,71,127
56058,note_off,0,0,0,,10,,,57,127
56059,note_on,1,0,0,,4,,,64,127
56059,note_on,0,0,0,,0,,,72,127
56242,note_off,183,0,0,,0,,,72,127
56242,note_off,0,0,0,,4,,,64,127
56243,note_on,1,0,0,,5,,,65,127
56243,note_on,0,0,0,,10,,,69,127
56426,note_off,183,0,0,,10,,,69,127
56426,note_off,0,0,0,,5,,,65,127
56427,note_on,1,0,0,,11,,,58,127
56427,note_on,0,0,0,,11,,,70,127
56427,note_on,0,0,0,,7,,,67,127
56610,note_off,183,0,0,,7,,,67,127
56610,note_off,0,0,0,,11,,,70,127
56610,note_off,0,0,0,,11,,,58,127
56611,note_on,1,0,0,,0,,,60,127
56611,note_on,0,0,0,,5,,,65,127
56611,note_on,0,0,0,,10,,,69,127
56794,note_off,183,0,0,,10,,,69,127
56794,note_off,0,0,0,,5,,,65,127
56794,note_off,0,0,0,,0,,,60,127
56795,note_on,1,0,0,,0,,,48,127
56795,note_on,0,0,0,,7,,,67,127
56795,note_on,0,0,0,,4,,,64,127
56978,note_off,183,0,0,,4,,,64,127
56978,note_off,0,0,0,,7,,,67,127
56978,note_off,0,0,0,,0,,,48,127
56979,note_on,1,0,0,,5,,,41,127
56979,note_on,0,0,0,,5,,,65,127
57162,note_off,183,0,0,,5,,,65,127
57162,note_off,0,0,0,,5,,,41,127
57163,note_on,1,0,0,,7,,,43,127
57163,note_on,0,0,0,,10,,,69,127
57346,note_off,183,0,0,,10,,,69,127
57346,note_off,0,0,0,,7,,,43,127
57347,note_on,1,0,0,,10,,,45,127
57347,note_on,0,0,0,,0,,,60,127
57530,note_off,183,0,0,,0,,,60,127
57530,note_off,0,0,0,,10,,,45,127
57531,note_on,1,0,0,,11,,,46,127
57531,note_on,0,0,0,,1,,,61,127
57714,note_off,183,0,0,,1,,,61,127
57715,note_on,1,0,0,,2,,,62,127
57898,note_off,183,0,0,,2,,,62,127
57898,note_off,0,0,0,,11,,,46,127
57899,note_on,1,0,0,,7,,,55,127
57899,note_on,0,0,0,,11,,,58,127
58082,note_off,183,0,0,,11,,,58,127
58082,note_off,0,0,0,,7,,,55,127
58083,note_on,1,0,0,,10,,,45,127
58083,note_on,0,0,0,,12,,,59,127
58266,note_off,183,0,0,,12,,,59,127
58267,note_on,1,0,0,,0,,,60,127
58450,note_off,183,0,0,,0,,,60,127
58450,note_off,0,0,0,,10,,,45,127
58451,note_on,1,0,0,,5,,,41,127
58451,note_on,0,0,0,,10,,,57,127
58451,note_on,0,0,0,,5,,,53,127
58634,note_off,183,0,0,,5,,,53,127
58634,note_off,0,0,0,,10,,,57,127
58634,note_off,0,0,0,,5,,,41,127
58644,note_on,10,0,0,,7,,,55,127
58644,note_on,0,0,0,,11,,,58,127
58644,note_on,0,0,0,,11,,,46,127
58840,note_off,196,0,0,,11,,,46,127
58840,note_off,0,0,0,,11,,,58,127
58840,note_off,0,0,0,,7,,,55,127
58847,note_on,7,0,0,,5,,,53,127
58847,note_on,0,0,0,,10,,,57,127
58847,note_on,0,0,0,,0,,,48,127
59043,note_off,196,0,0,,0,,,48,127
59043,note_off,0,0,0,,10,,,57,127
59043,note_off,0,0,0,,5,,,53,127
59051,note_on,8,0,0,,7,,,55,127
59051,note_on,0,0,0,,4,,,52,127
59051,note_on,0,0,0,,0,,,36,127
59247,note_off,196,0,0,,0,,,36,127
59247,note_off,0,0,0,,4,,,52,127
59247,note_off,0,0,0,,7,,,55,127
59270,note_on,23,0,0,,5,,,53,127
59270,note_on,0,0,0,,5,,,29,127
61309,note_off,2039,0,0,,5,,,29,127
61309,note_off,0,0,0,,5,,,53,127
66048,end_of_track,4739,1,0,,,,,,
