tick,type,time,meta,track,program,channel,pitch,tempo,note,velocity
0,copyright,0,1,0,,,,,,
0,program_change,0,0,0,6,0,,,,
0,pitchwheel,0,0,0,,0,0,,,
0,program_change,0,0,0,6,1,,,,
0,pitchwheel,0,0,0,,1,-590,,,
0,program_change,0,0,0,6,2,,,,
0,pitchwheel,0,0,0,,2,-272,,,
0,program_change,0,0,0,6,3,,,,
0,pitchwheel,0,0,0,,3,-353,,,
0,program_change,0,0,0,6,4,,,,
0,pitchwheel,0,0,0,,4,-560,,,
0,program_change,0,0,0,6,5,,,,
0,pitchwheel,0,0,0,,5,-80,,,
0,program_change,0,0,0,6,6,,,,
0,pitchwheel,0,0,0,,6,-625,,,
0,program_change,0,0,0,6,7,,,,
0,pitchwheel,0,0,0,,7,-130,,,
0,program_change,0,0,0,6,8,,,,
0,pitchwheel,0,0,0,,8,-512,,,
0,program_change,0,0,0,6,10,,,,
0,pitchwheel,0,0,0,,10,-464,,,
0,program_change,0,0,0,6,11,,,,
0,pitchwheel,0,0,0,,11,-208,,,
0,program_change,0,0,0,6,12,,,,
0,pitchwheel,0,0,0,,12,-553,,,
0,set_tempo,0,1,0,,,,500000,,
134,note_on,134,0,0,,0,,,48,127
535,note_on,401,0,0,,0,,,72,127
535,note_on,0,0,0,,2,,,74,127
668,note_off,133,0,0,,2,,,74,127
668,note_off,0,0,0,,0,,,72,127
669,note_on,1,0,0,,12,,,71,127
802,note_off,133,0,0,,12,,,71,127
803,note_on,1,0,0,,0,,,72,127
936,note_off,133,0,0,,0,,,72,127
937,note_on,1,0,0,,4,,,76,127
937,note_on,0,0,0,,5,,,77,127
1070,note_off,133,0,0,,5,,,77,127
1070,note_off,0,0,0,,4,,,76,127
1071,note_on,1,0,0,,2,,,74,127
1138,note_off,67,0,0,,0,,,48,127
1204,note_off,66,0,0,,2,,,74,127
1205,note_on,1,0,0,,4,,,76,127
1338,note_off,133,0,0,,4,,,76,127
1339,note_on,1,0,0,,4,,,64,127
1339,note_on,0,0,0,,10,,,81,127
1339,note_on,0,0,0,,7,,,79,127
1472,note_off,133,0,0,,7,,,79,127
1472,note_off,0,0,0,,10,,,81,127
1473,note_on,1,0,0,,5,,,77,127
1606,note_off,133,0,0,,5,,,77,127
1607,note_on,1,0,0,,7,,,79,127
1740,note_off,133,0,0,,7,,,79,127
1740,note_off,0,0,0,,4,,,64,127
1741,note_on,1,0,0,,5,,,65,127
1741,note_on,0,0,0,,8,,,80,127
1874,note_off,133,0,0,,8,,,80,127
1875,note_on,1,0,0,,10,,,81,127
2008,note_off,133,0,0,,10,,,81,127
2009,note_on,1,0,0,,7,,,79,127
2142,note_off,133,0,0,,7,,,79,127
2142,note_off,0,0,0,,5,,,65,127
2143,note_on,1,0,0,,5,,,53,127
2143,note_on,0,0,0,,5,,,77,127
2276,note_off,133,0,0,,5,,,77,127
2277,note_on,1,0,0,,4,,,76,127
2410,note_off,133,0,0,,4,,,76,127
2411,note_on,1,0,0,,2,,,74,127
2544,note_off,133,0,0,,2,,,74,127
2545,note_on,1,0,0,,2,,,74,127
2678,note_off,133,0,0,,2,,,74,127
2679,note_on,1,0,0,,4,,,76,127
2745,note_off,66,0,0,,5,,,53,127
2812,note_off,67,0,0,,4,,,76,127
2813,note_on,1,0,0,,5,,,77,127
2946,note_off,133,0,0,,5,,,77,127
2947,note_on,1,0,0,,2,,,62,127
2947,note_on,0,0,0,,6,,,78,127
2947,note_on,0,0,0,,7,,,79,127
3080,note_off,133,0,0,,7,,,79,127
3080,note_off,0,0,0,,6,,,78,127
3081,note_on,1,0,0,,4,,,76,127
3214,note_off,133,0,0,,4,,,76,127
3215,note_on,1,0,0,,6,,,78,127
3348,note_off,133,0,0,,6,,,78,127
3348,note_off,0,0,0,,2,,,62,127
3349,note_on,1,0,0,,4,,,64,127
3349,note_on,0,0,0,,6,,,78,127
3482,note_off,133,0,0,,6,,,78,127
3483,note_on,1,0,0,,7,,,79,127
3616,note_off,133,0,0,,7,,,79,127
3617,note_on,1,0,0,,5,,,77,127
3750,note_off,133,0,0,,5,,,77,127
3750,note_off,0,0,0,,4,,,64,127
3751,note_on,1,0,0,,4,,,52,127
3751,note_on,0,0,0,,4,,,76,127
3884,note_off,133,0,0,,4,,,76,127
3885,note_on,1,0,0,,2,,,74,127
4018,note_off,133,0,0,,2,,,74,127
4019,note_on,1,0,0,,0,,,72,127
4152,note_off,133,0,0,,0,,,72,127
4153,note_on,1,0,0,,0,,,72,127
4286,note_off,133,0,0,,0,,,72,127
4287,note_on,1,0,0,,2,,,74,127
4353,note_off,66,0,0,,4,,,52,127
4420,note_off,67,0,0,,2,,,74,127
4421,note_on,1,0,0,,4,,,76,127
4554,note_off,133,0,0,,4,,,76,127
4555,note_on,1,0,0,,0,,,60,127
4555,note_on,0,0,0,,4,,,76,127
4688,note_off,133,0,0,,4,,,76,127
4689,note_on,1,0,0,,5,,,77,127
4822,note_off,133,0,0,,5,,,77,127
4823,note_on,1,0,0,,7,,,79,127
4956,note_off,133,0,0,,7,,,79,127
4956,note_off,0,0,0,,0,,,60,127
4957,note_on,1,0,0,,5,,,65,127
4957,note_on,0,0,0,,8,,,80,127
5090,note_off,133,0,0,,8,,,80,127
5091,note_on,1,0,0,,10,,,81,127
5224,note_off,133,0,0,,10,,,81,127
5225,note_on,1,0,0,,5,,,77,127
5358,note_off,133,0,0,,5,,,77,127
5358,note_off,0,0,0,,5,,,65,127
5359,note_on,1,0,0,,5,,,53,127
5359,note_on,0,0,0,,10,,,69,127
5492,note_off,133,0,0,,10,,,69,127
5493,note_on,1,0,0,,5,,,77,127
5626,note_off,133,0,0,,5,,,77,127
5627,note_on,1,0,0,,2,,,74,127
5760,note_off,133,0,0,,2,,,74,127
5760,note_off,0,0,0,,5,,,53,127
5761,note_on,1,0,0,,7,,,55,127
5761,note_on,0,0,0,,0,,,72,127
6161,note_off,400,0,0,,0,,,72,127
6161,note_off,0,0,0,,7,,,55,127
6162,note_on,1,0,0,,7,,,43,127
6162,note_on,0,0,0,,4,,,76,127
6228,note_off,66,0,0,,4,,,76,127
6229,note_on,1,0,0,,2,,,74,127
6295,note_off,66,0,0,,2,,,74,127
6296,note_on,1,0,0,,4,,,76,127
6362,note_off,66,0,0,,4,,,76,127
6363,note_on,1,0,0,,2,,,74,127
6429,note_off,66,0,0,,2,,,74,127
6430,note_on,1,0,0,,0,,,72,127
6496,note_off,66,0,0,,0,,,72,127
6497,note_on,1,0,0,,2,,,74,127
6563,note_off,66,0,0,,2,,,74,127
6563,note_off,0,0,0,,7,,,43,127
6564,note_on,1,0,0,,0,,,60,127
6564,note_on,0,0,0,,0,,,72,127
6694,note_off,130,0,0,,0,,,60,127
6697,note_on,3,0,0,,7,,,55,127
6827,note_off,130,0,0,,7,,,55,127
6830,note_on,3,0,0,,4,,,52,127
6960,note_off,130,0,0,,4,,,52,127
6963,note_on,3,0,0,,0,,,48,127
7093,note_off,130,0,0,,0,,,48,127
7096,note_on,3,0,0,,7,,,43,127
7226,note_off,130,0,0,,7,,,43,127
7229,note_on,3,0,0,,4,,,40,127
7359,note_off,130,0,0,,4,,,40,127
7361,note_off,2,0,0,,0,,,72,127
7362,note_on,1,0,0,,0,,,36,127
7779,note_off,417,0,0,,0,,,36,127
7796,note_on,17,0,0,,0,,,60,127
7796,note_on,0,0,0,,4,,,76,127
7929,note_off,133,0,0,,4,,,76,127
7930,note_on,1,0,0,,5,,,77,127
8063,note_off,133,0,0,,5,,,77,127
8064,note_on,1,0,0,,7,,,79,127
8197,note_off,133,0,0,,7,,,79,127
8197,note_off,0,0,0,,0,,,60,127
8198,note_on,1,0,0,,2,,,62,127
8198,note_on,0,0,0,,7,,,79,127
8331,note_off,133,0,0,,7,,,79,127
8332,note_on,1,0,0,,5,,,77,127
8465,note_off,133,0,0,,5,,,77,127
8466,note_on,1,0,0,,2,,,74,127
8599,note_off,133,0,0,,2,,,74,127
8599,note_off,0,0,0,,2,,,62,127
8600,note_on,1,0,0,,12,,,59,127
8600,note_on,0,0,0,,10,,,81,127
8733,note_off,133,0,0,,10,,,81,127
8734,note_on,1,0,0,,5,,,77,127
8867,note_off,133,0,0,,5,,,77,127
8868,note_on,1,0,0,,2,,,74,127
9001,note_off,133,0,0,,2,,,74,127
9001,note_off,0,0,0,,12,,,59,127
9002,note_on,1,0,0,,0,,,60,127
9002,note_on,0,0,0,,5,,,77,127
9135,note_off,133,0,0,,5,,,77,127
9136,note_on,1,0,0,,4,,,76,127
9269,note_off,133,0,0,,4,,,76,127
9270,note_on,1,0,0,,0,,,72,127
9403,note_off,133,0,0,,0,,,72,127
9403,note_off,0,0,0,,0,,,60,127
9404,note_on,1,0,0,,0,,,48,127
9404,note_on,0,0,0,,7,,,79,127
9537,note_off,133,0,0,,7,,,79,127
9538,note_on,1,0,0,,4,,,76,127
9671,note_off,133,0,0,,4,,,76,127
9672,note_on,1,0,0,,0,,,72,127
9805,note_off,133,0,0,,0,,,72,127
9805,note_off,0,0,0,,0,,,48,127
9806,note_on,1,0,0,,7,,,67,127
9806,note_on,0,0,0,,4,,,76,127
9872,note_off,66,0,0,,4,,,76,127
9873,note_on,1,0,0,,2,,,74,127
9939,note_off,66,0,0,,2,,,74,127
9939,note_off,0,0,0,,7,,,67,127
9940,note_on,1,0,0,,2,,,62,127
9940,note_on,0,0,0,,4,,,76,127
10006,note_off,66,0,0,,4,,,76,127
10007,note_on,1,0,0,,2,,,74,127
10073,note_off,66,0,0,,2,,,62,127
10074,note_on,1,0,0,,12,,,59,127
10204,note_off,130,0,0,,12,,,59,127
10207,note_on,3,0,0,,7,,,55,127
10337,note_off,130,0,0,,7,,,55,127
10340,note_on,3,0,0,,2,,,50,127
10470,note_off,130,0,0,,2,,,50,127
10473,note_on,3,0,0,,12,,,47,127
10603,note_off,130,0,0,,12,,,47,127
10605,note_off,2,0,0,,2,,,74,127
10606,note_on,1,0,0,,7,,,43,127
11006,note_off,400,0,0,,7,,,43,127
11024,note_on,18,0,0,,4,,,76,127
11024,note_on,0,0,0,,0,,,60,127
11157,note_off,133,0,0,,4,,,76,127
11158,note_on,1,0,0,,5,,,77,127
11291,note_off,133,0,0,,5,,,77,127
11292,note_on,1,0,0,,7,,,79,127
11425,note_off,133,0,0,,7,,,79,127
11425,note_off,0,0,0,,0,,,60,127
11426,note_on,1,0,0,,7,,,79,127
11426,note_on,0,0,0,,2,,,62,127
11559,note_off,133,0,0,,7,,,79,127
11560,note_on,1,0,0,,5,,,77,127
11693,note_off,133,0,0,,5,,,77,127
11694,note_on,1,0,0,,2,,,74,127
11827,note_off,133,0,0,,2,,,74,127
11827,note_off,0,0,0,,2,,,62,127
11828,note_on,1,0,0,,10,,,81,127
11828,note_on,0,0,0,,12,,,59,127
11961,note_off,133,0,0,,10,,,81,127
11962,note_on,1,0,0,,5,,,77,127
12095,note_off,133,0,0,,5,,,77,127
12096,note_on,1,0,0,,2,,,74,127
12229,note_off,133,0,0,,2,,,74,127
12229,note_off,0,0,0,,12,,,59,127
12230,note_on,1,0,0,,5,,,77,127
12230,note_on,0,0,0,,0,,,60,127
12363,note_off,133,0,0,,5,,,77,127
12364,note_on,1,0,0,,4,,,76,127
12497,note_off,133,0,0,,4,,,76,127
12498,note_on,1,0,0,,0,,,72,127
12631,note_off,133,0,0,,0,,,72,127
12631,note_off,0,0,0,,0,,,60,127
12632,note_on,1,0,0,,7,,,79,127
12632,note_on,0,0,0,,0,,,48,127
12765,note_off,133,0,0,,7,,,79,127
12766,note_on,1,0,0,,4,,,76,127
12899,note_off,133,0,0,,4,,,76,127
12900,note_on,1,0,0,,0,,,72,127
13033,note_off,133,0,0,,0,,,72,127
13033,note_off,0,0,0,,0,,,48,127
13034,note_on,1,0,0,,4,,,76,127
13034,note_on,0,0,0,,7,,,55,127
13100,note_off,66,0,0,,4,,,76,127
13101,note_on,1,0,0,,2,,,74,127
13165,note_off,64,0,0,,7,,,55,127
13167,note_off,2,0,0,,2,,,74,127
13168,note_on,1,0,0,,4,,,76,127
13168,note_on,0,0,0,,2,,,50,127
13234,note_off,66,0,0,,4,,,76,127
13235,note_on,1,0,0,,2,,,74,127
13299,note_off,64,0,0,,2,,,50,127
13302,note_on,3,0,0,,12,,,47,127
13432,note_off,130,0,0,,12,,,47,127
13435,note_on,3,0,0,,7,,,43,127
13565,note_off,130,0,0,,7,,,43,127
13568,note_on,3,0,0,,2,,,38,127
13698,note_off,130,0,0,,2,,,38,127
13701,note_on,3,0,0,,12,,,35,127
13831,note_off,130,0,0,,12,,,35,127
13833,note_off,2,0,0,,2,,,74,127
13834,note_on,1,0,0,,7,,,31,127
14234,note_off,400,0,0,,7,,,31,127
14252,note_on,18,0,0,,7,,,55,127
14252,note_on,0,0,0,,12,,,71,127
14385,note_off,133,0,0,,12,,,71,127
14386,note_on,1,0,0,,0,,,72,127
14519,note_off,133,0,0,,0,,,72,127
14520,note_on,1,0,0,,2,,,74,127
14653,note_off,133,0,0,,2,,,74,127
14653,note_off,0,0,0,,7,,,55,127
14654,note_on,1,0,0,,10,,,57,127
14654,note_on,0,0,0,,2,,,74,127
14787,note_off,133,0,0,,2,,,74,127
14788,note_on,1,0,0,,0,,,72,127
14921,note_off,133,0,0,,0,,,72,127
14922,note_on,1,0,0,,10,,,69,127
15055,note_off,133,0,0,,10,,,69,127
15055,note_off,0,0,0,,10,,,57,127
15056,note_on,1,0,0,,6,,,54,127
15056,note_on,0,0,0,,4,,,76,127
15189,note_off,133,0,0,,4,,,76,127
15190,note_on,1,0,0,,0,,,72,127
15323,note_off,133,0,0,,0,,,72,127
15324,note_on,1,0,0,,10,,,69,127
15457,note_off,133,0,0,,10,,,69,127
15457,note_off,0,0,0,,6,,,54,127
15458,note_on,1,0,0,,7,,,55,127
15458,note_on,0,0,0,,0,,,72,127
15591,note_off,133,0,0,,0,,,72,127
15592,note_on,1,0,0,,12,,,71,127
15725,note_off,133,0,0,,12,,,71,127
15726,note_on,1,0,0,,7,,,67,127
15859,note_off,133,0,0,,7,,,67,127
15859,note_off,0,0,0,,7,,,55,127
15860,note_on,1,0,0,,7,,,43,127
15860,note_on,0,0,0,,2,,,74,127
15993,note_off,133,0,0,,2,,,74,127
15994,note_on,1,0,0,,12,,,71,127
16127,note_off,133,0,0,,12,,,71,127
16128,note_on,1,0,0,,7,,,67,127
16261,note_off,133,0,0,,7,,,67,127
16261,note_off,0,0,0,,7,,,43,127
16262,note_on,1,0,0,,2,,,62,127
16262,note_on,0,0,0,,12,,,71,127
16328,note_off,66,0,0,,12,,,71,127
16329,note_on,1,0,0,,10,,,69,127
16395,note_off,66,0,0,,10,,,69,127
16395,note_off,0,0,0,,2,,,62,127
16396,note_on,1,0,0,,10,,,57,127
16396,note_on,0,0,0,,12,,,71,127
16462,note_off,66,0,0,,12,,,71,127
16463,note_on,1,0,0,,10,,,69,127
16527,note_off,64,0,0,,10,,,57,127
16530,note_on,3,0,0,,6,,,54,127
16660,note_off,130,0,0,,6,,,54,127
16663,note_on,3,0,0,,2,,,50,127
16793,note_off,130,0,0,,2,,,50,127
16796,note_on,3,0,0,,10,,,45,127
16926,note_off,130,0,0,,10,,,45,127
16929,note_on,3,0,0,,6,,,42,127
17059,note_off,130,0,0,,6,,,42,127
17061,note_off,2,0,0,,10,,,69,127
17062,note_on,1,0,0,,2,,,38,127
17462,note_off,400,0,0,,2,,,38,127
17480,note_on,18,0,0,,12,,,71,127
17480,note_on,0,0,0,,7,,,55,127
17613,note_off,133,0,0,,12,,,71,127
17614,note_on,1,0,0,,0,,,72,127
17747,note_off,133,0,0,,0,,,72,127
17748,note_on,1,0,0,,2,,,74,127
17881,note_off,133,0,0,,2,,,74,127
17881,note_off,0,0,0,,7,,,55,127
17882,note_on,1,0,0,,2,,,74,127
17882,note_on,0,0,0,,10,,,57,127
18015,note_off,133,0,0,,2,,,74,127
18016,note_on,1,0,0,,0,,,72,127
18149,note_off,133,0,0,,0,,,72,127
18150,note_on,1,0,0,,10,,,69,127
18283,note_off,133,0,0,,10,,,69,127
18283,note_off,0,0,0,,10,,,57,127
18284,note_on,1,0,0,,4,,,76,127
18284,note_on,0,0,0,,6,,,54,127
18417,note_off,133,0,0,,4,,,76,127
18418,note_on,1,0,0,,0,,,72,127
18551,note_off,133,0,0,,0,,,72,127
18552,note_on,1,0,0,,10,,,69,127
18685,note_off,133,0,0,,10,,,69,127
18685,note_off,0,0,0,,6,,,54,127
18686,note_on,1,0,0,,0,,,72,127
18686,note_on,0,0,0,,7,,,55,127
18819,note_off,133,0,0,,0,,,72,127
18820,note_on,1,0,0,,12,,,71,127
18953,note_off,133,0,0,,12,,,71,127
18954,note_on,1,0,0,,7,,,67,127
19087,note_off,133,0,0,,7,,,67,127
19087,note_off,0,0,0,,7,,,55,127
19088,note_on,1,0,0,,2,,,74,127
19088,note_on,0,0,0,,7,,,43,127
19221,note_off,133,0,0,,2,,,74,127
19222,note_on,1,0,0,,12,,,71,127
19355,note_off,133,0,0,,12,,,71,127
19356,note_on,1,0,0,,7,,,67,127
19489,note_off,133,0,0,,7,,,67,127
19489,note_off,0,0,0,,7,,,43,127
19490,note_on,1,0,0,,12,,,71,127
19490,note_on,0,0,0,,2,,,62,127
19556,note_off,66,0,0,,12,,,71,127
19557,note_on,1,0,0,,10,,,69,127
19623,note_off,66,0,0,,10,,,69,127
19623,note_off,0,0,0,,2,,,62,127
19624,note_on,1,0,0,,12,,,71,127
19624,note_on,0,0,0,,10,,,57,127
19690,note_off,66,0,0,,12,,,71,127
19691,note_on,1,0,0,,10,,,69,127
19755,note_off,64,0,0,,10,,,57,127
19758,note_on,3,0,0,,6,,,54,127
19888,note_off,130,0,0,,6,,,54,127
19891,note_on,3,0,0,,2,,,50,127
20021,note_off,130,0,0,,2,,,50,127
20024,note_on,3,0,0,,10,,,45,127
20154,note_off,130,0,0,,10,,,45,127
20157,note_on,3,0,0,,6,,,42,127
20287,note_off,130,0,0,,6,,,42,127
20289,note_off,2,0,0,,10,,,69,127
20290,note_on,1,0,0,,2,,,38,127
20424,note_on,134,0,0,,2,,,86,127
20557,note_off,133,0,0,,2,,,86,127
20558,note_on,1,0,0,,2,,,74,127
20691,note_off,133,0,0,,2,,,74,127
20691,note_off,0,0,0,,2,,,38,127
20692,note_on,1,0,0,,2,,,86,127
20692,note_on,0,0,0,,12,,,71,127
20825,note_off,133,0,0,,2,,,86,127
20826,note_on,1,0,0,,2,,,74,127
20959,note_off,133,0,0,,2,,,74,127
20960,note_on,1,0,0,,2,,,86,127
21093,note_off,133,0,0,,12,,,71,127
21094,note_on,1,0,0,,10,,,69,127
21159,note_off,65,0,0,,2,,,86,127
21228,note_on,69,0,0,,0,,,84,127
21361,note_off,133,0,0,,0,,,84,127
21362,note_on,1,0,0,,0,,,72,127
21495,note_off,133,0,0,,0,,,72,127
21495,note_off,0,0,0,,10,,,69,127
21496,note_on,1,0,0,,0,,,84,127
21496,note_on,0,0,0,,6,,,66,127
21629,note_off,133,0,0,,0,,,84,127
21630,note_on,1,0,0,,0,,,72,127
21763,note_off,133,0,0,,0,,,72,127
21764,note_on,1,0,0,,0,,,84,127
21897,note_off,133,0,0,,6,,,66,127
21898,note_on,1,0,0,,7,,,67,127
21963,note_off,65,0,0,,0,,,84,127
22032,note_on,69,0,0,,12,,,83,127
22165,note_off,133,0,0,,12,,,83,127
22166,note_on,1,0,0,,12,,,71,127
22299,note_off,133,0,0,,12,,,71,127
22299,note_off,0,0,0,,7,,,67,127
22300,note_on,1,0,0,,12,,,83,127
22300,note_on,0,0,0,,7,,,55,127
22433,note_off,133,0,0,,12,,,83,127
22434,note_on,1,0,0,,12,,,71,127
22567,note_off,133,0,0,,12,,,71,127
22568,note_on,1,0,0,,12,,,83,127
22701,note_off,133,0,0,,7,,,55,127
22702,note_on,1,0,0,,0,,,48,127
22767,note_off,65,0,0,,12,,,83,127
22836,note_on,69,0,0,,10,,,81,127
22969,note_off,133,0,0,,10,,,81,127
22970,note_on,1,0,0,,0,,,84,127
23103,note_off,133,0,0,,0,,,84,127
23103,note_off,0,0,0,,0,,,48,127
23104,note_on,1,0,0,,12,,,83,127
23104,note_on,0,0,0,,2,,,50,127
23170,note_off,66,0,0,,12,,,83,127
23171,note_on,1,0,0,,10,,,81,127
23237,note_off,66,0,0,,10,,,81,127
23238,note_on,1,0,0,,12,,,83,127
23304,note_off,66,0,0,,12,,,83,127
23305,note_on,1,0,0,,10,,,81,127
23504,note_off,199,0,0,,2,,,50,127
23522,note_on,18,0,0,,7,,,43,127
23555,note_off,33,0,0,,10,,,81,127
23655,note_on,100,0,0,,2,,,86,127
23788,note_off,133,0,0,,2,,,86,127
23789,note_on,1,0,0,,2,,,74,127
23922,note_off,133,0,0,,2,,,74,127
23922,note_off,0,0,0,,7,,,43,127
23923,note_on,1,0,0,,12,,,71,127
23923,note_on,0,0,0,,2,,,86,127
24056,note_off,133,0,0,,2,,,86,127
24057,note_on,1,0,0,,2,,,74,127
24190,note_off,133,0,0,,2,,,74,127
24191,note_on,1,0,0,,2,,,86,127
24324,note_off,133,0,0,,12,,,71,127
24325,note_on,1,0,0,,10,,,69,127
24390,note_off,65,0,0,,2,,,86,127
24459,note_on,69,0,0,,0,,,84,127
24592,note_off,133,0,0,,0,,,84,127
24593,note_on,1,0,0,,0,,,72,127
24726,note_off,133,0,0,,0,,,72,127
24726,note_off,0,0,0,,10,,,69,127
24727,note_on,1,0,0,,6,,,66,127
24727,note_on,0,0,0,,0,,,84,127
24860,note_off,133,0,0,,0,,,84,127
24861,note_on,1,0,0,,0,,,72,127
24994,note_off,133,0,0,,0,,,72,127
24995,note_on,1,0,0,,0,,,84,127
25128,note_off,133,0,0,,6,,,66,127
25129,note_on,1,0,0,,7,,,67,127
25194,note_off,65,0,0,,0,,,84,127
25263,note_on,69,0,0,,12,,,83,127
25396,note_off,133,0,0,,12,,,83,127
25397,note_on,1,0,0,,12,,,71,127
25530,note_off,133,0,0,,12,,,71,127
25530,note_off,0,0,0,,7,,,67,127
25531,note_on,1,0,0,,7,,,43,127
25531,note_on,0,0,0,,12,,,83,127
25664,note_off,133,0,0,,12,,,83,127
25665,note_on,1,0,0,,12,,,71,127
25798,note_off,133,0,0,,12,,,71,127
25799,note_on,1,0,0,,12,,,83,127
25932,note_off,133,0,0,,7,,,43,127
25933,note_on,1,0,0,,0,,,48,127
25998,note_off,65,0,0,,12,,,83,127
26067,note_on,69,0,0,,10,,,81,127
26200,note_off,133,0,0,,10,,,81,127
26201,note_on,1,0,0,,0,,,84,127
26334,note_off,133,0,0,,0,,,84,127
26334,note_off,0,0,0,,0,,,48,127
26341,note_on,7,0,0,,12,,,83,127
26341,note_on,0,0,0,,2,,,50,127
26407,note_off,66,0,0,,12,,,83,127
26408,note_on,1,0,0,,10,,,81,127
26474,note_off,66,0,0,,10,,,81,127
26475,note_on,1,0,0,,12,,,83,127
26541,note_off,66,0,0,,12,,,83,127
26542,note_on,1,0,0,,10,,,81,127
26636,note_off,94,0,0,,10,,,81,127
26759,note_off,123,0,0,,2,,,50,127
26780,note_on,21,0,0,,7,,,43,127
26914,note_on,134,0,0,,2,,,74,127
26914,note_on,0,0,0,,11,,,82,127
27047,note_off,133,0,0,,11,,,82,127
27047,note_off,0,0,0,,2,,,74,127
27048,note_on,1,0,0,,0,,,72,127
27048,note_on,0,0,0,,10,,,81,127
27181,note_off,133,0,0,,10,,,81,127
27181,note_off,0,0,0,,0,,,72,127
27182,note_on,1,0,0,,0,,,84,127
27182,note_on,0,0,0,,3,,,75,127
27315,note_off,133,0,0,,3,,,75,127
27315,note_off,0,0,0,,0,,,84,127
27316,note_on,1,0,0,,11,,,82,127
27316,note_on,0,0,0,,2,,,74,127
27449,note_off,133,0,0,,2,,,74,127
27449,note_off,0,0,0,,11,,,82,127
27450,note_on,1,0,0,,10,,,81,127
27450,note_on,0,0,0,,0,,,72,127
27583,note_off,133,0,0,,0,,,72,127
27583,note_off,0,0,0,,10,,,81,127
27583,note_off,0,0,0,,7,,,43,127
27584,note_on,1,0,0,,7,,,79,127
27584,note_on,0,0,0,,11,,,70,127
27718,note_on,134,0,0,,7,,,67,127
27718,note_on,0,0,0,,7,,,55,127
27848,note_off,130,0,0,,7,,,55,127
27850,note_off,2,0,0,,7,,,67,127
27851,note_on,1,0,0,,5,,,65,127
27851,note_on,0,0,0,,5,,,53,127
27981,note_off,130,0,0,,5,,,53,127
27983,note_off,2,0,0,,5,,,65,127
27984,note_on,1,0,0,,3,,,63,127
27984,note_on,0,0,0,,3,,,51,127
28114,note_off,130,0,0,,3,,,51,127
28116,note_off,2,0,0,,3,,,63,127
28117,note_on,1,0,0,,2,,,62,127
28117,note_on,0,0,0,,2,,,50,127
28247,note_off,130,0,0,,2,,,50,127
28249,note_off,2,0,0,,2,,,62,127
28250,note_on,1,0,0,,0,,,60,127
28250,note_on,0,0,0,,0,,,48,127
28380,note_off,130,0,0,,0,,,48,127
28380,note_off,0,0,0,,0,,,60,127
28382,note_off,2,0,0,,11,,,70,127
28382,note_off,0,0,0,,7,,,79,127
28383,note_on,1,0,0,,11,,,58,127
28383,note_on,0,0,0,,11,,,46,127
28517,note_on,134,0,0,,2,,,74,127
28517,note_on,0,0,0,,11,,,82,127
28650,note_off,133,0,0,,11,,,82,127
28650,note_off,0,0,0,,2,,,74,127
28651,note_on,1,0,0,,10,,,81,127
28651,note_on,0,0,0,,0,,,72,127
28784,note_off,133,0,0,,0,,,72,127
28784,note_off,0,0,0,,10,,,81,127
28785,note_on,1,0,0,,0,,,84,127
28785,note_on,0,0,0,,3,,,75,127
28918,note_off,133,0,0,,3,,,75,127
28918,note_off,0,0,0,,0,,,84,127
28919,note_on,1,0,0,,11,,,82,127
28919,note_on,0,0,0,,2,,,74,127
29052,note_off,133,0,0,,2,,,74,127
29052,note_off,0,0,0,,11,,,82,127
29053,note_on,1,0,0,,10,,,81,127
29053,note_on,0,0,0,,0,,,72,127
29186,note_off,133,0,0,,0,,,72,127
29186,note_off,0,0,0,,10,,,81,127
29186,note_off,0,0,0,,11,,,46,127
29186,note_off,0,0,0,,11,,,58,127
29187,note_on,1,0,0,,7,,,79,127
29187,note_on,0,0,0,,11,,,70,127
29321,note_on,134,0,0,,3,,,63,127
29321,note_on,0,0,0,,3,,,51,127
29451,note_off,130,0,0,,3,,,51,127
29453,note_off,2,0,0,,3,,,63,127
29454,note_on,1,0,0,,2,,,62,127
29454,note_on,0,0,0,,2,,,50,127
29584,note_off,130,0,0,,2,,,50,127
29586,note_off,2,0,0,,2,,,62,127
29587,note_on,1,0,0,,0,,,60,127
29587,note_on,0,0,0,,0,,,48,127
29717,note_off,130,0,0,,0,,,48,127
29717,note_off,0,0,0,,0,,,60,127
29720,note_on,3,0,0,,11,,,46,127
29720,note_on,0,0,0,,11,,,58,127
29850,note_off,130,0,0,,11,,,58,127
29850,note_off,0,0,0,,11,,,46,127
29853,note_on,3,0,0,,10,,,45,127
29853,note_on,0,0,0,,10,,,57,127
29983,note_off,130,0,0,,10,,,57,127
29983,note_off,0,0,0,,10,,,45,127
29985,note_off,2,0,0,,11,,,70,127
29985,note_off,0,0,0,,7,,,79,127
29986,note_on,1,0,0,,7,,,55,127
29986,note_on,0,0,0,,7,,,43,127
30120,note_on,134,0,0,,2,,,74,127
30120,note_on,0,0,0,,11,,,82,127
30253,note_off,133,0,0,,11,,,82,127
30253,note_off,0,0,0,,2,,,74,127
30254,note_on,1,0,0,,10,,,81,127
30254,note_on,0,0,0,,0,,,72,127
30387,note_off,133,0,0,,0,,,72,127
30387,note_off,0,0,0,,10,,,81,127
30388,note_on,1,0,0,,3,,,75,127
30388,note_on,0,0,0,,0,,,84,127
30521,note_off,133,0,0,,0,,,84,127
30521,note_off,0,0,0,,3,,,75,127
30522,note_on,1,0,0,,2,,,74,127
30522,note_on,0,0,0,,11,,,82,127
30655,note_off,133,0,0,,11,,,82,127
30655,note_off,0,0,0,,2,,,74,127
30656,note_on,1,0,0,,0,,,72,127
30656,note_on,0,0,0,,10,,,81,127
30789,note_off,133,0,0,,10,,,81,127
30789,note_off,0,0,0,,0,,,72,127
30789,note_off,0,0,0,,7,,,43,127
30789,note_off,0,0,0,,7,,,55,127
30790,note_on,1,0,0,,11,,,70,127
30790,note_on,0,0,0,,7,,,79,127
30924,note_on,134,0,0,,11,,,58,127
30924,note_on,0,0,0,,11,,,46,127
31054,note_off,130,0,0,,11,,,46,127
31054,note_off,0,0,0,,11,,,58,127
31057,note_on,3,0,0,,10,,,57,127
31057,note_on,0,0,0,,10,,,45,127
31187,note_off,130,0,0,,10,,,45,127
31187,note_off,0,0,0,,10,,,57,127
31190,note_on,3,0,0,,7,,,55,127
31190,note_on,0,0,0,,7,,,43,127
31320,note_off,130,0,0,,7,,,43,127
31320,note_off,0,0,0,,7,,,55,127
31323,note_on,3,0,0,,5,,,53,127
31323,note_on,0,0,0,,5,,,41,127
31453,note_off,130,0,0,,5,,,41,127
31453,note_off,0,0,0,,5,,,53,127
31456,note_on,3,0,0,,3,,,39,127
31456,note_on,0,0,0,,3,,,51,127
31586,note_off,130,0,0,,3,,,51,127
31586,note_off,0,0,0,,3,,,39,127
31588,note_off,2,0,0,,7,,,79,127
31588,note_off,0,0,0,,11,,,70,127
31589,note_on,1,0,0,,2,,,50,127
31589,note_on,0,0,0,,2,,,38,127
31723,note_on,134,0,0,,6,,,78,127
31856,note_off,133,0,0,,6,,,78,127
31857,note_on,1,0,0,,2,,,74,127
31990,note_off,133,0,0,,2,,,74,127
31990,note_off,0,0,0,,2,,,38,127
31990,note_off,0,0,0,,2,,,50,127
31991,note_on,1,0,0,,3,,,75,127
31991,note_on,0,0,0,,0,,,48,127
31991,note_on,0,0,0,,0,,,36,127
32124,note_off,133,0,0,,3,,,75,127
32125,note_on,1,0,0,,0,,,84,127
32258,note_off,133,0,0,,0,,,84,127
32259,note_on,1,0,0,,10,,,81,127
32392,note_off,133,0,0,,10,,,81,127
32392,note_off,0,0,0,,0,,,36,127
32392,note_off,0,0,0,,0,,,48,127
32393,note_on,1,0,0,,7,,,79,127
32393,note_on,0,0,0,,2,,,50,127
32793,note_off,400,0,0,,7,,,79,127
32794,note_on,1,0,0,,11,,,82,127
32794,note_on,0,0,0,,2,,,38,127
32860,note_off,66,0,0,,11,,,82,127
32861,note_on,1,0,0,,10,,,81,127
32927,note_off,66,0,0,,10,,,81,127
32928,note_on,1,0,0,,11,,,82,127
32994,note_off,66,0,0,,11,,,82,127
32995,note_on,1,0,0,,10,,,81,127
33061,note_off,66,0,0,,10,,,81,127
33062,note_on,1,0,0,,7,,,79,127
33128,note_off,66,0,0,,7,,,79,127
33129,note_on,1,0,0,,10,,,81,127
33195,note_off,66,0,0,,10,,,81,127
33195,note_off,0,0,0,,2,,,38,127
33195,note_off,0,0,0,,2,,,50,127
33196,note_on,1,0,0,,7,,,79,127
33196,note_on,0,0,0,,7,,,43,127
33341,note_off,145,0,0,,7,,,79,127
33346,note_on,5,0,0,,2,,,74,127
33346,note_on,0,0,0,,11,,,82,127
33479,note_off,133,0,0,,11,,,82,127
33479,note_off,0,0,0,,2,,,74,127
33480,note_on,1,0,0,,0,,,72,127
33480,note_on,0,0,0,,10,,,81,127
33613,note_off,133,0,0,,10,,,81,127
33613,note_off,0,0,0,,0,,,72,127
33614,note_on,1,0,0,,0,,,84,127
33614,note_on,0,0,0,,3,,,75,127
33747,note_off,133,0,0,,3,,,75,127
33747,note_off,0,0,0,,0,,,84,127
33748,note_on,1,0,0,,11,,,82,127
33748,note_on,0,0,0,,2,,,74,127
33881,note_off,133,0,0,,2,,,74,127
33881,note_off,0,0,0,,11,,,82,127
33882,note_on,1,0,0,,10,,,81,127
33882,note_on,0,0,0,,0,,,72,127
33998,note_off,116,0,0,,7,,,43,127
34015,note_off,17,0,0,,0,,,72,127
34015,note_off,0,0,0,,10,,,81,127
34016,note_on,1,0,0,,11,,,70,127
34016,note_on,0,0,0,,7,,,79,127
34150,note_on,134,0,0,,7,,,67,127
34150,note_on,0,0,0,,7,,,55,127
34280,note_off,130,0,0,,7,,,55,127
34282,note_off,2,0,0,,7,,,67,127
34283,note_on,1,0,0,,5,,,53,127
34283,note_on,0,0,0,,5,,,65,127
34413,note_off,130,0,0,,5,,,53,127
34415,note_off,2,0,0,,5,,,65,127
34416,note_on,1,0,0,,3,,,63,127
34416,note_on,0,0,0,,3,,,51,127
34546,note_off,130,0,0,,3,,,51,127
34548,note_off,2,0,0,,3,,,63,127
34549,note_on,1,0,0,,2,,,62,127
34549,note_on,0,0,0,,2,,,50,127
34679,note_off,130,0,0,,2,,,50,127
34681,note_off,2,0,0,,2,,,62,127
34682,note_on,1,0,0,,0,,,60,127
34682,note_on,0,0,0,,0,,,48,127
34812,note_off,130,0,0,,0,,,48,127
34812,note_off,0,0,0,,0,,,60,127
34814,note_off,2,0,0,,7,,,79,127
34814,note_off,0,0,0,,11,,,70,127
34815,note_on,1,0,0,,11,,,46,127
34815,note_on,0,0,0,,11,,,58,127
34949,note_on,134,0,0,,11,,,82,127
34949,note_on,0,0,0,,2,,,74,127
35082,note_off,133,0,0,,2,,,74,127
35082,note_off,0,0,0,,11,,,82,127
35083,note_on,1,0,0,,10,,,81,127
35083,note_on,0,0,0,,0,,,72,127
35216,note_off,133,0,0,,0,,,72,127
35216,note_off,0,0,0,,10,,,81,127
35217,note_on,1,0,0,,3,,,75,127
35217,note_on,0,0,0,,0,,,84,127
35350,note_off,133,0,0,,0,,,84,127
35350,note_off,0,0,0,,3,,,75,127
35351,note_on,1,0,0,,11,,,82,127
35351,note_on,0,0,0,,2,,,74,127
35484,note_off,133,0,0,,2,,,74,127
35484,note_off,0,0,0,,11,,,82,127
35485,note_on,1,0,0,,10,,,81,127
35485,note_on,0,0,0,,0,,,72,127
35618,note_off,133,0,0,,0,,,72,127
35618,note_off,0,0,0,,10,,,81,127
35618,note_off,0,0,0,,11,,,58,127
35618,note_off,0,0,0,,11,,,46,127
35619,note_on,1,0,0,,11,,,70,127
35619,note_on,0,0,0,,7,,,79,127
35753,note_on,134,0,0,,3,,,51,127
35753,note_on,0,0,0,,3,,,63,127
35883,note_off,130,0,0,,3,,,51,127
35885,note_off,2,0,0,,3,,,63,127
35886,note_on,1,0,0,,2,,,50,127
35886,note_on,0,0,0,,2,,,62,127
36016,note_off,130,0,0,,2,,,50,127
36018,note_off,2,0,0,,2,,,62,127
36019,note_on,1,0,0,,0,,,48,127
36019,note_on,0,0,0,,0,,,60,127
36149,note_off,130,0,0,,0,,,60,127
36149,note_off,0,0,0,,0,,,48,127
36152,note_on,3,0,0,,11,,,46,127
36152,note_on,0,0,0,,11,,,58,127
36282,note_off,130,0,0,,11,,,58,127
36282,note_off,0,0,0,,11,,,46,127
36285,note_on,3,0,0,,10,,,45,127
36285,note_on,0,0,0,,10,,,57,127
36415,note_off,130,0,0,,10,,,57,127
36415,note_off,0,0,0,,10,,,45,127
36417,note_off,2,0,0,,7,,,79,127
36417,note_off,0,0,0,,11,,,70,127
36418,note_on,1,0,0,,7,,,43,127
36418,note_on,0,0,0,,7,,,55,127
36552,note_on,134,0,0,,2,,,74,127
36552,note_on,0,0,0,,11,,,82,127
36685,note_off,133,0,0,,11,,,82,127
36685,note_off,0,0,0,,2,,,74,127
36686,note_on,1,0,0,,0,,,72,127
36686,note_on,0,0,0,,10,,,81,127
36819,note_off,133,0,0,,10,,,81,127
36819,note_off,0,0,0,,0,,,72,127
36820,note_on,1,0,0,,0,,,84,127
36820,note_on,0,0,0,,3,,,75,127
36953,note_off,133,0,0,,3,,,75,127
36953,note_off,0,0,0,,0,,,84,127
36954,note_on,1,0,0,,11,,,82,127
36954,note_on,0,0,0,,2,,,74,127
37087,note_off,133,0,0,,2,,,74,127
37087,note_off,0,0,0,,11,,,82,127
37088,note_on,1,0,0,,10,,,81,127
37088,note_on,0,0,0,,0,,,72,127
37221,note_off,133,0,0,,0,,,72,127
37221,note_off,0,0,0,,10,,,81,127
37221,note_off,0,0,0,,7,,,55,127
37221,note_off,0,0,0,,7,,,43,127
37222,note_on,1,0,0,,11,,,70,127
37222,note_on,0,0,0,,7,,,79,127
37356,note_on,134,0,0,,11,,,46,127
37356,note_on,0,0,0,,11,,,58,127
37486,note_off,130,0,0,,11,,,58,127
37486,note_off,0,0,0,,11,,,46,127
37489,note_on,3,0,0,,10,,,57,127
37489,note_on,0,0,0,,10,,,45,127
37619,note_off,130,0,0,,10,,,45,127
37619,note_off,0,0,0,,10,,,57,127
37622,note_on,3,0,0,,7,,,43,127
37622,note_on,0,0,0,,7,,,55,127
37752,note_off,130,0,0,,7,,,55,127
37752,note_off,0,0,0,,7,,,43,127
37755,note_on,3,0,0,,5,,,41,127
37755,note_on,0,0,0,,5,,,53,127
37885,note_off,130,0,0,,5,,,53,127
37885,note_off,0,0,0,,5,,,41,127
37888,note_on,3,0,0,,3,,,39,127
37888,note_on,0,0,0,,3,,,51,127
38018,note_off,130,0,0,,3,,,51,127
38018,note_off,0,0,0,,3,,,39,127
38020,note_off,2,0,0,,7,,,79,127
38020,note_off,0,0,0,,11,,,70,127
38029,note_on,9,0,0,,2,,,38,127
38029,note_on,0,0,0,,2,,,50,127
38163,note_on,134,0,0,,6,,,78,127
38296,note_off,133,0,0,,6,,,78,127
38297,note_on,1,0,0,,2,,,74,127
38430,note_off,133,0,0,,2,,,74,127
38430,note_off,0,0,0,,2,,,50,127
38430,note_off,0,0,0,,2,,,38,127
38439,note_on,9,0,0,,0,,,48,127
38439,note_on,0,0,0,,0,,,36,127
38439,note_on,0,0,0,,3,,,75,127
38572,note_off,133,0,0,,3,,,75,127
38573,note_on,1,0,0,,0,,,84,127
38706,note_off,133,0,0,,0,,,84,127
38707,note_on,1,0,0,,10,,,81,127
38840,note_off,133,0,0,,10,,,81,127
38840,note_off,0,0,0,,0,,,36,127
38840,note_off,0,0,0,,0,,,48,127
38841,note_on,1,0,0,,2,,,50,127
38841,note_on,0,0,0,,7,,,79,127
39241,note_off,400,0,0,,7,,,79,127
39241,note_off,0,0,0,,2,,,50,127
39248,note_on,7,0,0,,11,,,82,127
39248,note_on,0,0,0,,2,,,38,127
39311,note_on,63,0,0,,10,,,81,127
39314,note_off,3,0,0,,11,,,82,127
39373,note_on,59,0,0,,11,,,82,127
39376,note_off,3,0,0,,10,,,81,127
39435,note_on,59,0,0,,10,,,81,127
39438,note_off,3,0,0,,11,,,82,127
39497,note_on,59,0,0,,11,,,82,127
39500,note_off,3,0,0,,10,,,81,127
39559,note_on,59,0,0,,10,,,81,127
39562,note_off,3,0,0,,11,,,82,127
39645,note_off,83,0,0,,2,,,38,127
39655,note_off,10,0,0,,10,,,81,127
39689,note_on,34,0,0,,7,,,43,127
39823,note_on,134,0,0,,2,,,86,127
39956,note_off,133,0,0,,2,,,86,127
39957,note_on,1,0,0,,2,,,74,127
40090,note_off,133,0,0,,2,,,74,127
40090,note_off,0,0,0,,7,,,43,127
40091,note_on,1,0,0,,12,,,71,127
40091,note_on,0,0,0,,2,,,86,127
40140,note_off,49,0,0,,2,,,86,127
40141,note_on,1,0,0,,0,,,84,127
40190,note_off,49,0,0,,0,,,84,127
40191,note_on,1,0,0,,12,,,83,127
40240,note_off,49,0,0,,12,,,83,127
40241,note_on,1,0,0,,10,,,81,127
40290,note_off,49,0,0,,10,,,81,127
40291,note_on,1,0,0,,7,,,79,127
40340,note_off,49,0,0,,7,,,79,127
40341,note_on,1,0,0,,6,,,78,127
40390,note_off,49,0,0,,6,,,78,127
40391,note_on,1,0,0,,4,,,76,127
40440,note_off,49,0,0,,4,,,76,127
40441,note_on,1,0,0,,2,,,74,127
40490,note_off,49,0,0,,12,,,71,127
40491,note_on,1,0,0,,10,,,69,127
40508,note_off,17,0,0,,2,,,74,127
40625,note_on,117,0,0,,0,,,84,127
40758,note_off,133,0,0,,0,,,84,127
40759,note_on,1,0,0,,2,,,74,127
40892,note_off,133,0,0,,2,,,74,127
40892,note_off,0,0,0,,10,,,69,127
40893,note_on,1,0,0,,6,,,66,127
40893,note_on,0,0,0,,0,,,84,127
40992,note_off,99,0,0,,0,,,84,127
40993,note_on,1,0,0,,12,,,83,127
41042,note_off,49,0,0,,12,,,83,127
41043,note_on,1,0,0,,10,,,81,127
41092,note_off,49,0,0,,10,,,81,127
41093,note_on,1,0,0,,7,,,79,127
41142,note_off,49,0,0,,7,,,79,127
41143,note_on,1,0,0,,6,,,78,127
41192,note_off,49,0,0,,6,,,78,127
41193,note_on,1,0,0,,4,,,76,127
41242,note_off,49,0,0,,4,,,76,127
41243,note_on,1,0,0,,2,,,74,127
41292,note_off,49,0,0,,6,,,66,127
41293,note_on,1,0,0,,7,,,67,127
41310,note_off,17,0,0,,2,,,74,127
41427,note_on,117,0,0,,12,,,83,127
41560,note_off,133,0,0,,12,,,83,127
41561,note_on,1,0,0,,2,,,74,127
41694,note_off,133,0,0,,2,,,74,127
41694,note_off,0,0,0,,7,,,67,127
41695,note_on,1,0,0,,7,,,55,127
41695,note_on,0,0,0,,12,,,83,127
41844,note_off,149,0,0,,12,,,83,127
41845,note_on,1,0,0,,10,,,81,127
41894,note_off,49,0,0,,10,,,81,127
41895,note_on,1,0,0,,7,,,79,127
41944,note_off,49,0,0,,7,,,79,127
41945,note_on,1,0,0,,6,,,78,127
41994,note_off,49,0,0,,6,,,78,127
41995,note_on,1,0,0,,4,,,76,127
42044,note_off,49,0,0,,4,,,76,127
42045,note_on,1,0,0,,2,,,74,127
42094,note_off,49,0,0,,2,,,74,127
42094,note_off,0,0,0,,7,,,55,127
42095,note_on,1,0,0,,0,,,48,127
42095,note_on,0,0,0,,12,,,71,127
42161,note_off,66,0,0,,12,,,71,127
42162,note_on,1,0,0,,10,,,69,127
42228,note_off,66,0,0,,10,,,69,127
42229,note_on,1,0,0,,12,,,71,127
42295,note_off,66,0,0,,12,,,71,127
42296,note_on,1,0,0,,10,,,69,127
42362,note_off,66,0,0,,10,,,69,127
42363,note_on,1,0,0,,12,,,71,127
42429,note_off,66,0,0,,12,,,71,127
42430,note_on,1,0,0,,10,,,69,127
42496,note_off,66,0,0,,10,,,69,127
42496,note_off,0,0,0,,0,,,48,127
42497,note_on,1,0,0,,2,,,50,127
42497,note_on,0,0,0,,12,,,71,127
42563,note_off,66,0,0,,12,,,71,127
42564,note_on,1,0,0,,10,,,69,127
42630,note_off,66,0,0,,10,,,69,127
42631,note_on,1,0,0,,12,,,71,127
42697,note_off,66,0,0,,12,,,71,127
42698,note_on,1,0,0,,10,,,69,127
42764,note_off,66,0,0,,10,,,69,127
42767,note_on,3,0,0,,7,,,67,127
42833,note_off,66,0,0,,7,,,67,127
42838,note_on,5,0,0,,10,,,69,127
42897,note_off,59,0,0,,2,,,50,127
42908,note_off,11,0,0,,10,,,69,127
42914,note_on,6,0,0,,7,,,67,127
42914,note_on,0,0,0,,7,,,55,127
42914,note_on,0,0,0,,7,,,43,127
43047,note_off,133,0,0,,7,,,67,127
43048,note_on,1,0,0,,2,,,74,127
43181,note_off,133,0,0,,2,,,74,127
43182,note_on,1,0,0,,2,,,62,127
43315,note_off,133,0,0,,2,,,62,127
43315,note_off,0,0,0,,7,,,43,127
43315,note_off,0,0,0,,7,,,55,127
43316,note_on,1,0,0,,2,,,74,127
43316,note_on,0,0,0,,12,,,59,127
43365,note_off,49,0,0,,2,,,74,127
43366,note_on,1,0,0,,0,,,72,127
43415,note_off,49,0,0,,0,,,72,127
43416,note_on,1,0,0,,12,,,71,127
43465,note_off,49,0,0,,12,,,71,127
43466,note_on,1,0,0,,10,,,69,127
43515,note_off,49,0,0,,10,,,69,127
43516,note_on,1,0,0,,7,,,67,127
43565,note_off,49,0,0,,7,,,67,127
43566,note_on,1,0,0,,6,,,66,127
43615,note_off,49,0,0,,6,,,66,127
43616,note_on,1,0,0,,4,,,64,127
43665,note_off,49,0,0,,4,,,64,127
43666,note_on,1,0,0,,2,,,62,127
43715,note_off,49,0,0,,12,,,59,127
43716,note_on,1,0,0,,10,,,57,127
43733,note_off,17,0,0,,2,,,62,127
43850,note_on,117,0,0,,0,,,72,127
43983,note_off,133,0,0,,0,,,72,127
43984,note_on,1,0,0,,2,,,62,127
44117,note_off,133,0,0,,2,,,62,127
44117,note_off,0,0,0,,10,,,57,127
44118,note_on,1,0,0,,0,,,72,127
44118,note_on,0,0,0,,6,,,54,127
44217,note_off,99,0,0,,0,,,72,127
44218,note_on,1,0,0,,12,,,71,127
44267,note_off,49,0,0,,12,,,71,127
44268,note_on,1,0,0,,10,,,69,127
44317,note_off,49,0,0,,10,,,69,127
44318,note_on,1,0,0,,7,,,67,127
44367,note_off,49,0,0,,7,,,67,127
44368,note_on,1,0,0,,6,,,66,127
44417,note_off,49,0,0,,6,,,66,127
44418,note_on,1,0,0,,4,,,64,127
44467,note_off,49,0,0,,4,,,64,127
44468,note_on,1,0,0,,2,,,62,127
44517,note_off,49,0,0,,6,,,54,127
44518,note_on,1,0,0,,7,,,55,127
44535,note_off,17,0,0,,2,,,62,127
44652,note_on,117,0,0,,12,,,71,127
44785,note_off,133,0,0,,12,,,71,127
44786,note_on,1,0,0,,2,,,62,127
44919,note_off,133,0,0,,2,,,62,127
44919,note_off,0,0,0,,7,,,55,127
44920,note_on,1,0,0,,12,,,71,127
44920,note_on,0,0,0,,7,,,43,127
45069,note_off,149,0,0,,12,,,71,127
45070,note_on,1,0,0,,10,,,69,127
45119,note_off,49,0,0,,10,,,69,127
45120,note_on,1,0,0,,7,,,67,127
45169,note_off,49,0,0,,7,,,67,127
45170,note_on,1,0,0,,6,,,66,127
45219,note_off,49,0,0,,6,,,66,127
45220,note_on,1,0,0,,4,,,64,127
45269,note_off,49,0,0,,4,,,64,127
45270,note_on,1,0,0,,2,,,62,127
45319,note_off,49,0,0,,2,,,62,127
45319,note_off,0,0,0,,7,,,43,127
45320,note_on,1,0,0,,12,,,59,127
45320,note_on,0,0,0,,0,,,36,127
45320,note_on,0,0,0,,0,,,48,127
45386,note_off,66,0,0,,12,,,59,127
45387,note_on,1,0,0,,10,,,57,127
45453,note_off,66,0,0,,10,,,57,127
45454,note_on,1,0,0,,12,,,59,127
45520,note_off,66,0,0,,12,,,59,127
45521,note_on,1,0,0,,10,,,57,127
45587,note_off,66,0,0,,10,,,57,127
45588,note_on,1,0,0,,12,,,59,127
45654,note_off,66,0,0,,12,,,59,127
45655,note_on,1,0,0,,10,,,57,127
45721,note_off,66,0,0,,10,,,57,127
45721,note_off,0,0,0,,0,,,48,127
45721,note_off,0,0,0,,0,,,36,127
45722,note_on,1,0,0,,12,,,59,127
45722,note_on,0,0,0,,2,,,50,127
45722,note_on,0,0,0,,2,,,38,127
45788,note_off,66,0,0,,12,,,59,127
45789,note_on,1,0,0,,10,,,57,127
45855,note_off,66,0,0,,10,,,57,127
45856,note_on,1,0,0,,12,,,59,127
45922,note_off,66,0,0,,12,,,59,127
45923,note_on,1,0,0,,10,,,57,127
45989,note_off,66,0,0,,10,,,57,127
45990,note_on,1,0,0,,7,,,55,127
46056,note_off,66,0,0,,7,,,55,127
46057,note_on,1,0,0,,10,,,57,127
46123,note_off,66,0,0,,10,,,57,127
46123,note_off,0,0,0,,2,,,38,127
46123,note_off,0,0,0,,2,,,50,127
46124,note_on,1,0,0,,7,,,55,127
46124,note_on,0,0,0,,7,,,43,127
46274,note_on,150,0,0,,12,,,59,127
46293,note_off,19,0,0,,7,,,55,127
46405,note_off,112,0,0,,12,,,59,127
46408,note_on,3,0,0,,2,,,62,127
46541,note_off,133,0,0,,2,,,62,127
46542,note_on,1,0,0,,7,,,67,127
46675,note_off,133,0,0,,7,,,67,127
46676,note_on,1,0,0,,12,,,71,127
46809,note_off,133,0,0,,12,,,71,127
46810,note_on,1,0,0,,2,,,74,127
46926,note_off,116,0,0,,7,,,43,127
46943,note_off,17,0,0,,2,,,74,127
46944,note_on,1,0,0,,7,,,55,127
46944,note_on,0,0,0,,7,,,79,127
47074,note_off,130,0,0,,7,,,55,127
47076,note_off,2,0,0,,7,,,79,127
47077,note_on,1,0,0,,2,,,50,127
47077,note_on,0,0,0,,2,,,74,127
47207,note_off,130,0,0,,2,,,50,127
47209,note_off,2,0,0,,2,,,74,127
47210,note_on,1,0,0,,12,,,47,127
47210,note_on,0,0,0,,12,,,71,127
47340,note_off,130,0,0,,12,,,47,127
47342,note_off,2,0,0,,12,,,71,127
47343,note_on,1,0,0,,7,,,43,127
47343,note_on,0,0,0,,7,,,67,127
47473,note_off,130,0,0,,7,,,43,127
47475,note_off,2,0,0,,7,,,67,127
47476,note_on,1,0,0,,2,,,38,127
47476,note_on,0,0,0,,2,,,62,127
47606,note_off,130,0,0,,2,,,38,127
47608,note_off,2,0,0,,2,,,62,127
47609,note_on,1,0,0,,12,,,35,127
47609,note_on,0,0,0,,12,,,59,127
47739,note_off,130,0,0,,12,,,59,127
47739,note_off,0,0,0,,12,,,35,127
47742,note_on,3,0,0,,7,,,31,127
47742,note_on,0,0,0,,7,,,55,127
48342,note_off,600,0,0,,7,,,55,127
48542,note_off,200,0,0,,7,,,31,127
48627,note_on,85,0,0,,7,,,55,127
49028,note_on,401,0,0,,7,,,67,127
49028,note_on,0,0,0,,10,,,69,127
49161,note_off,133,0,0,,10,,,69,127
49161,note_off,0,0,0,,7,,,67,127
49162,note_on,1,0,0,,6,,,66,127
49295,note_off,133,0,0,,6,,,66,127
49296,note_on,1,0,0,,7,,,67,127
49429,note_off,133,0,0,,7,,,67,127
49430,note_on,1,0,0,,0,,,72,127
49430,note_on,0,0,0,,12,,,71,127
49563,note_off,133,0,0,,12,,,71,127
49563,note_off,0,0,0,,0,,,72,127
49564,note_on,1,0,0,,10,,,69,127
49697,note_off,133,0,0,,10,,,69,127
49698,note_on,1,0,0,,12,,,71,127
49831,note_off,133,0,0,,12,,,71,127
49832,note_on,1,0,0,,2,,,74,127
49832,note_on,0,0,0,,4,,,76,127
49965,note_off,133,0,0,,4,,,76,127
49965,note_off,0,0,0,,2,,,74,127
49966,note_on,1,0,0,,0,,,72,127
50099,note_off,133,0,0,,0,,,72,127
50100,note_on,1,0,0,,2,,,74,127
50233,note_off,133,0,0,,7,,,55,127
50251,note_on,18,0,0,,7,,,55,127
50251,note_on,0,0,0,,5,,,65,127
50393,note_off,142,0,0,,2,,,74,127
50651,note_off,258,0,0,,5,,,65,127
50651,note_off,0,0,0,,7,,,55,127
50652,note_on,1,0,0,,7,,,55,127
50652,note_on,0,0,0,,5,,,65,127
50652,note_on,0,0,0,,0,,,72,127
50652,note_on,0,0,0,,12,,,71,127
50785,note_off,133,0,0,,12,,,71,127
50785,note_off,0,0,0,,0,,,72,127
50786,note_on,1,0,0,,10,,,69,127
50919,note_off,133,0,0,,10,,,69,127
50920,note_on,1,0,0,,12,,,71,127
51053,note_off,133,0,0,,12,,,71,127
51053,note_off,0,0,0,,5,,,65,127
51053,note_off,0,0,0,,7,,,55,127
51054,note_on,1,0,0,,7,,,55,127
51054,note_on,0,0,0,,5,,,65,127
51054,note_on,0,0,0,,4,,,76,127
51054,note_on,0,0,0,,2,,,74,127
51187,note_off,133,0,0,,2,,,74,127
51187,note_off,0,0,0,,4,,,76,127
51188,note_on,1,0,0,,0,,,72,127
51321,note_off,133,0,0,,0,,,72,127
51322,note_on,1,0,0,,2,,,74,127
51455,note_off,133,0,0,,2,,,74,127
51455,note_off,0,0,0,,5,,,65,127
51455,note_off,0,0,0,,7,,,55,127
51456,note_on,1,0,0,,7,,,55,127
51456,note_on,0,0,0,,5,,,65,127
51456,note_on,0,0,0,,5,,,77,127
51456,note_on,0,0,0,,7,,,79,127
51589,note_off,133,0,0,,7,,,79,127
51589,note_off,0,0,0,,5,,,77,127
51590,note_on,1,0,0,,4,,,76,127
51723,note_off,133,0,0,,4,,,76,127
51724,note_on,1,0,0,,5,,,77,127
51857,note_off,133,0,0,,5,,,65,127
51857,note_off,0,0,0,,7,,,55,127
51875,note_on,18,0,0,,7,,,55,127
51875,note_on,0,0,0,,4,,,64,127
51923,note_off,48,0,0,,5,,,77,127
52275,note_off,352,0,0,,4,,,64,127
52275,note_off,0,0,0,,7,,,55,127
52276,note_on,1,0,0,,1,,,73,127
52276,note_on,0,0,0,,2,,,74,127
52276,note_on,0,0,0,,4,,,64,127
52276,note_on,0,0,0,,7,,,55,127
52409,note_off,133,0,0,,2,,,74,127
52409,note_off,0,0,0,,1,,,73,127
52410,note_on,1,0,0,,12,,,71,127
52543,note_off,133,0,0,,12,,,71,127
52544,note_on,1,0,0,,1,,,73,127
52677,note_off,133,0,0,,1,,,73,127
52677,note_off,0,0,0,,7,,,55,127
52677,note_off,0,0,0,,4,,,64,127
52678,note_on,1,0,0,,5,,,77,127
52678,note_on,0,0,0,,4,,,76,127
52678,note_on,0,0,0,,4,,,64,127
52678,note_on,0,0,0,,7,,,55,127
52811,note_off,133,0,0,,4,,,76,127
52811,note_off,0,0,0,,5,,,77,127
52812,note_on,1,0,0,,2,,,74,127
52945,note_off,133,0,0,,2,,,74,127
52946,note_on,1,0,0,,4,,,76,127
53079,note_off,133,0,0,,4,,,76,127
53079,note_off,0,0,0,,7,,,55,127
53079,note_off,0,0,0,,4,,,64,127
53080,note_on,1,0,0,,7,,,79,127
53080,note_on,0,0,0,,10,,,81,127
53080,note_on,0,0,0,,4,,,64,127
53080,note_on,0,0,0,,7,,,55,127
53213,note_off,133,0,0,,10,,,81,127
53213,note_off,0,0,0,,7,,,79,127
53214,note_on,1,0,0,,5,,,77,127
53347,note_off,133,0,0,,5,,,77,127
53348,note_on,1,0,0,,7,,,79,127
53481,note_off,133,0,0,,7,,,55,127
53481,note_off,0,0,0,,4,,,64,127
53499,note_on,18,0,0,,5,,,53,127
53499,note_on,0,0,0,,2,,,62,127
53499,note_on,0,0,0,,10,,,57,127
53547,note_off,48,0,0,,7,,,79,127
53633,note_on,86,0,0,,10,,,81,127
53766,note_off,133,0,0,,10,,,81,127
53767,note_on,1,0,0,,10,,,69,127
53900,note_off,133,0,0,,10,,,69,127
53900,note_off,0,0,0,,10,,,57,127
53900,note_off,0,0,0,,2,,,62,127
53900,note_off,0,0,0,,5,,,53,127
53901,note_on,1,0,0,,5,,,53,127
53901,note_on,0,0,0,,10,,,57,127
53901,note_on,0,0,0,,2,,,62,127
53901,note_on,0,0,0,,10,,,81,127
54034,note_off,133,0,0,,10,,,81,127
54035,note_on,1,0,0,,10,,,69,127
54168,note_off,133,0,0,,10,,,69,127
54169,note_on,1,0,0,,10,,,81,127
54302,note_off,133,0,0,,2,,,62,127
54302,note_off,0,0,0,,10,,,57,127
54302,note_off,0,0,0,,5,,,53,127
54303,note_on,1,0,0,,10,,,57,127
54303,note_on,0,0,0,,4,,,52,127
54303,note_on,0,0,0,,0,,,60,127
54368,note_off,65,0,0,,10,,,81,127
54437,note_on,69,0,0,,0,,,84,127
54570,note_off,133,0,0,,0,,,84,127
54571,note_on,1,0,0,,0,,,72,127
54704,note_off,133,0,0,,0,,,72,127
54704,note_off,0,0,0,,0,,,60,127
54704,note_off,0,0,0,,4,,,52,127
54704,note_off,0,0,0,,10,,,57,127
54705,note_on,1,0,0,,4,,,52,127
54705,note_on,0,0,0,,10,,,57,127
54705,note_on,0,0,0,,0,,,60,127
54705,note_on,0,0,0,,0,,,84,127
54838,note_off,133,0,0,,0,,,84,127
54839,note_on,1,0,0,,0,,,72,127
54972,note_off,133,0,0,,0,,,72,127
54973,note_on,1,0,0,,0,,,84,127
55106,note_off,133,0,0,,0,,,60,127
55106,note_off,0,0,0,,10,,,57,127
55106,note_off,0,0,0,,4,,,52,127
55107,note_on,1,0,0,,2,,,50,127
55107,note_on,0,0,0,,12,,,59,127
55107,note_on,0,0,0,,10,,,57,127
55172,note_off,65,0,0,,0,,,84,127
55241,note_on,69,0,0,,2,,,86,127
55374,note_off,133,0,0,,2,,,86,127
55375,note_on,1,0,0,,2,,,74,127
55508,note_off,133,0,0,,2,,,74,127
55508,note_off,0,0,0,,10,,,57,127
55508,note_off,0,0,0,,12,,,59,127
55508,note_off,0,0,0,,2,,,50,127
55509,note_on,1,0,0,,2,,,50,127
55509,note_on,0,0,0,,10,,,57,127
55509,note_on,0,0,0,,12,,,59,127
55509,note_on,0,0,0,,2,,,86,127
55642,note_off,133,0,0,,2,,,86,127
55643,note_on,1,0,0,,2,,,74,127
55776,note_off,133,0,0,,2,,,74,127
55777,note_on,1,0,0,,2,,,86,127
55910,note_off,133,0,0,,12,,,59,127
55910,note_off,0,0,0,,10,,,57,127
55910,note_off,0,0,0,,2,,,50,127
55911,note_on,1,0,0,,0,,,48,127
55911,note_on,0,0,0,,10,,,57,127
55911,note_on,0,0,0,,4,,,52,127
55976,note_off,65,0,0,,2,,,86,127
56045,note_on,69,0,0,,4,,,88,127
56178,note_off,133,0,0,,4,,,88,127
56179,note_on,1,0,0,,4,,,76,127
56312,note_off,133,0,0,,4,,,76,127
56312,note_off,0,0,0,,4,,,52,127
56312,note_off,0,0,0,,10,,,57,127
56312,note_off,0,0,0,,0,,,48,127
56313,note_on,1,0,0,,0,,,48,127
56313,note_on,0,0,0,,10,,,57,127
56313,note_on,0,0,0,,4,,,52,127
56313,note_on,0,0,0,,4,,,88,127
56446,note_off,133,0,0,,4,,,88,127
56447,note_on,1,0,0,,4,,,76,127
56580,note_off,133,0,0,,4,,,76,127
56581,note_on,1,0,0,,4,,,88,127
56714,note_off,133,0,0,,4,,,88,127
56714,note_off,0,0,0,,4,,,52,127
56714,note_off,0,0,0,,10,,,57,127
56714,note_off,0,0,0,,0,,,48,127
56723,note_on,9,0,0,,12,,,47,127
56723,note_on,0,0,0,,4,,,52,127
56723,note_on,0,0,0,,2,,,50,127
56723,note_on,0,0,0,,8,,,56,127
56723,note_on,0,0,0,,5,,,89,127
56856,note_off,133,0,0,,5,,,89,127
56857,note_on,1,0,0,,2,,,86,127
56990,note_off,133,0,0,,2,,,86,127
56991,note_on,1,0,0,,12,,,83,127
57124,note_off,133,0,0,,12,,,83,127
57124,note_off,0,0,0,,8,,,56,127
57124,note_off,0,0,0,,2,,,50,127
57124,note_off,0,0,0,,4,,,52,127
57124,note_off,0,0,0,,12,,,47,127
57125,note_on,1,0,0,,12,,,47,127
57125,note_on,0,0,0,,2,,,50,127
57125,note_on,0,0,0,,8,,,56,127
57125,note_on,0,0,0,,4,,,52,127
57125,note_on,0,0,0,,8,,,80,127
57258,note_off,133,0,0,,8,,,80,127
57259,note_on,1,0,0,,5,,,77,127
57392,note_off,133,0,0,,5,,,77,127
57393,note_on,1,0,0,,2,,,74,127
57526,note_off,133,0,0,,2,,,74,127
57526,note_off,0,0,0,,4,,,52,127
57526,note_off,0,0,0,,8,,,56,127
57526,note_off,0,0,0,,2,,,50,127
57526,note_off,0,0,0,,12,,,47,127
57527,note_on,1,0,0,,0,,,48,127
57527,note_on,0,0,0,,4,,,52,127
57527,note_on,0,0,0,,10,,,57,127
57527,note_on,0,0,0,,4,,,76,127
57660,note_off,133,0,0,,4,,,76,127
57661,note_on,1,0,0,,0,,,72,127
57794,note_off,133,0,0,,0,,,72,127
57795,note_on,1,0,0,,10,,,69,127
57928,note_off,133,0,0,,10,,,69,127
57928,note_off,0,0,0,,10,,,57,127
57928,note_off,0,0,0,,4,,,52,127
57928,note_off,0,0,0,,0,,,48,127
57929,note_on,1,0,0,,4,,,52,127
57929,note_on,0,0,0,,0,,,48,127
57929,note_on,0,0,0,,10,,,57,127
57929,note_on,0,0,0,,4,,,64,127
58062,note_off,133,0,0,,4,,,64,127
58065,note_on,3,0,0,,0,,,60,127
58195,note_off,130,0,0,,0,,,60,127
58195,note_off,0,0,0,,10,,,57,127
58202,note_on,7,0,0,,10,,,57,127
58332,note_off,130,0,0,,10,,,57,127
58335,note_off,3,0,0,,0,,,48,127
58335,note_off,0,0,0,,4,,,52,127
58352,note_on,17,0,0,,10,,,57,127
58352,note_on,0,0,0,,12,,,47,127
58486,note_on,134,0,0,,10,,,69,127
58619,note_off,133,0,0,,10,,,69,127
58620,note_on,1,0,0,,3,,,63,127
58753,note_off,133,0,0,,3,,,63,127
58753,note_off,0,0,0,,12,,,47,127
58753,note_off,0,0,0,,10,,,57,127
58754,note_on,1,0,0,,12,,,47,127
58754,note_on,0,0,0,,10,,,57,127
58754,note_on,0,0,0,,10,,,69,127
58887,note_off,133,0,0,,10,,,69,127
58888,note_on,1,0,0,,3,,,63,127
59021,note_off,133,0,0,,3,,,63,127
59022,note_on,1,0,0,,10,,,69,127
59155,note_off,133,0,0,,10,,,57,127
59155,note_off,0,0,0,,12,,,47,127
59156,note_on,1,0,0,,0,,,48,127
59156,note_on,0,0,0,,10,,,57,127
59289,note_off,133,0,0,,10,,,69,127
59290,note_on,1,0,0,,10,,,69,127
59423,note_off,133,0,0,,10,,,69,127
59424,note_on,1,0,0,,4,,,64,127
59557,note_off,133,0,0,,4,,,64,127
59557,note_off,0,0,0,,10,,,57,127
59557,note_off,0,0,0,,0,,,48,127
59558,note_on,1,0,0,,10,,,57,127
59558,note_on,0,0,0,,0,,,48,127
59558,note_on,0,0,0,,10,,,69,127
59691,note_off,133,0,0,,10,,,69,127
59692,note_on,1,0,0,,4,,,64,127
59825,note_off,133,0,0,,4,,,64,127
59826,note_on,1,0,0,,10,,,69,127
59959,note_off,133,0,0,,0,,,48,127
59959,note_off,0,0,0,,10,,,57,127
59960,note_on,1,0,0,,1,,,49,127
59960,note_on,0,0,0,,10,,,57,127
59960,note_on,0,0,0,,7,,,55,127
60025,note_off,65,0,0,,10,,,69,127
60094,note_on,69,0,0,,4,,,76,127
60227,note_off,133,0,0,,4,,,76,127
60228,note_on,1,0,0,,4,,,64,127
60361,note_off,133,0,0,,4,,,64,127
60361,note_off,0,0,0,,7,,,55,127
60361,note_off,0,0,0,,10,,,57,127
60361,note_off,0,0,0,,1,,,49,127
60362,note_on,1,0,0,,7,,,55,127
60362,note_on,0,0,0,,1,,,49,127
60362,note_on,0,0,0,,10,,,57,127
60362,note_on,0,0,0,,4,,,76,127
60495,note_off,133,0,0,,4,,,76,127
60496,note_on,1,0,0,,4,,,64,127
60629,note_off,133,0,0,,4,,,64,127
60630,note_on,1,0,0,,4,,,76,127
60763,note_off,133,0,0,,10,,,57,127
60763,note_off,0,0,0,,1,,,49,127
60763,note_off,0,0,0,,7,,,55,127
60764,note_on,1,0,0,,2,,,50,127
60764,note_on,0,0,0,,11,,,58,127
60764,note_on,0,0,0,,7,,,55,127
60897,note_off,133,0,0,,4,,,76,127
60898,note_on,1,0,0,,4,,,76,127
61031,note_off,133,0,0,,4,,,76,127
61032,note_on,1,0,0,,7,,,67,127
61165,note_off,133,0,0,,7,,,67,127
61165,note_off,0,0,0,,7,,,55,127
61165,note_off,0,0,0,,11,,,58,127
61165,note_off,0,0,0,,2,,,50,127
61166,note_on,1,0,0,,2,,,50,127
61166,note_on,0,0,0,,7,,,55,127
61166,note_on,0,0,0,,11,,,58,127
61166,note_on,0,0,0,,4,,,76,127
61299,note_off,133,0,0,,4,,,76,127
61300,note_on,1,0,0,,7,,,67,127
61433,note_off,133,0,0,,7,,,67,127
61434,note_on,1,0,0,,4,,,76,127
61567,note_off,133,0,0,,11,,,58,127
61567,note_off,0,0,0,,7,,,55,127
61567,note_off,0,0,0,,2,,,50,127
61568,note_on,1,0,0,,7,,,55,127
61568,note_on,0,0,0,,4,,,52,127
61568,note_on,0,0,0,,10,,,57,127
61568,note_on,0,0,0,,1,,,61,127
61633,note_off,65,0,0,,4,,,76,127
61702,note_on,69,0,0,,7,,,79,127
61835,note_off,133,0,0,,7,,,79,127
61836,note_on,1,0,0,,7,,,67,127
61969,note_off,133,0,0,,7,,,67,127
61969,note_off,0,0,0,,1,,,61,127
61969,note_off,0,0,0,,10,,,57,127
61969,note_off,0,0,0,,4,,,52,127
61969,note_off,0,0,0,,7,,,55,127
61970,note_on,1,0,0,,4,,,52,127
61970,note_on,0,0,0,,7,,,55,127
61970,note_on,0,0,0,,1,,,61,127
61970,note_on,0,0,0,,10,,,57,127
61970,note_on,0,0,0,,7,,,79,127
62103,note_off,133,0,0,,7,,,79,127
62104,note_on,1,0,0,,7,,,67,127
62237,note_off,133,0,0,,7,,,67,127
62238,note_on,1,0,0,,7,,,79,127
62371,note_off,133,0,0,,10,,,57,127
62371,note_off,0,0,0,,1,,,61,127
62371,note_off,0,0,0,,7,,,55,127
62371,note_off,0,0,0,,4,,,52,127
62372,note_on,1,0,0,,5,,,53,127
62372,note_on,0,0,0,,10,,,57,127
62372,note_on,0,0,0,,2,,,62,127
62437,note_off,65,0,0,,7,,,79,127
62506,note_on,69,0,0,,10,,,81,127
62639,note_off,133,0,0,,10,,,81,127
62640,note_on,1,0,0,,10,,,69,127
62773,note_off,133,0,0,,10,,,69,127
62773,note_off,0,0,0,,2,,,62,127
62773,note_off,0,0,0,,10,,,57,127
62773,note_off,0,0,0,,5,,,53,127
62774,note_on,1,0,0,,5,,,53,127
62774,note_on,0,0,0,,2,,,62,127
62774,note_on,0,0,0,,10,,,57,127
62774,note_on,0,0,0,,10,,,81,127
62907,note_off,133,0,0,,10,,,81,127
62908,note_on,1,0,0,,10,,,69,127
63041,note_off,133,0,0,,10,,,69,127
63042,note_on,1,0,0,,10,,,81,127
63175,note_off,133,0,0,,10,,,57,127
63175,note_off,0,0,0,,2,,,62,127
63175,note_off,0,0,0,,5,,,53,127
63176,note_on,1,0,0,,6,,,54,127
63176,note_on,0,0,0,,2,,,62,127
63176,note_on,0,0,0,,0,,,60,127
63309,note_off,133,0,0,,10,,,81,127
63310,note_on,1,0,0,,10,,,81,127
63443,note_off,133,0,0,,10,,,81,127
63444,note_on,1,0,0,,10,,,69,127
63577,note_off,133,0,0,,10,,,69,127
63577,note_off,0,0,0,,0,,,60,127
63577,note_off,0,0,0,,2,,,62,127
63577,note_off,0,0,0,,6,,,54,127
63578,note_on,1,0,0,,6,,,54,127
63578,note_on,0,0,0,,0,,,60,127
63578,note_on,0,0,0,,2,,,62,127
63578,note_on,0,0,0,,10,,,81,127
63711,note_off,133,0,0,,10,,,81,127
63712,note_on,1,0,0,,10,,,69,127
63845,note_off,133,0,0,,10,,,69,127
63846,note_on,1,0,0,,10,,,81,127
63979,note_off,133,0,0,,2,,,62,127
63979,note_off,0,0,0,,0,,,60,127
63979,note_off,0,0,0,,6,,,54,127
63980,note_on,1,0,0,,3,,,63,127
63980,note_on,0,0,0,,7,,,55,127
63980,note_on,0,0,0,,0,,,60,127
64113,note_off,133,0,0,,10,,,81,127
64114,note_on,1,0,0,,10,,,81,127
64247,note_off,133,0,0,,10,,,81,127
64248,note_on,1,0,0,,0,,,72,127
64381,note_off,133,0,0,,0,,,72,127
64381,note_off,0,0,0,,0,,,60,127
64381,note_off,0,0,0,,7,,,55,127
64381,note_off,0,0,0,,3,,,63,127
64382,note_on,1,0,0,,7,,,55,127
64382,note_on,0,0,0,,0,,,60,127
64382,note_on,0,0,0,,3,,,63,127
64382,note_on,0,0,0,,10,,,81,127
64515,note_off,133,0,0,,10,,,81,127
64516,note_on,1,0,0,,0,,,72,127
64649,note_off,133,0,0,,0,,,72,127
64650,note_on,1,0,0,,10,,,81,127
64783,note_off,133,0,0,,3,,,63,127
64783,note_off,0,0,0,,0,,,60,127
64783,note_off,0,0,0,,7,,,55,127
64784,note_on,1,0,0,,0,,,60,127
64784,note_on,0,0,0,,10,,,57,127
64784,note_on,0,0,0,,6,,,66,127
64784,note_on,0,0,0,,2,,,62,127
64849,note_off,65,0,0,,10,,,81,127
64918,note_on,69,0,0,,0,,,84,127
65051,note_off,133,0,0,,0,,,84,127
65052,note_on,1,0,0,,0,,,72,127
65185,note_off,133,0,0,,0,,,72,127
65185,note_off,0,0,0,,2,,,62,127
65185,note_off,0,0,0,,6,,,66,127
65185,note_off,0,0,0,,10,,,57,127
65185,note_off,0,0,0,,0,,,60,127
65186,note_on,1,0,0,,10,,,57,127
65186,note_on,0,0,0,,0,,,60,127
65186,note_on,0,0,0,,6,,,66,127
65186,note_on,0,0,0,,2,,,62,127
65186,note_on,0,0,0,,0,,,84,127
65319,note_off,133,0,0,,0,,,84,127
65320,note_on,1,0,0,,0,,,72,127
65453,note_off,133,0,0,,0,,,72,127
65454,note_on,1,0,0,,0,,,84,127
65587,note_off,133,0,0,,2,,,62,127
65587,note_off,0,0,0,,6,,,66,127
65587,note_off,0,0,0,,0,,,60,127
65587,note_off,0,0,0,,10,,,57,127
65588,note_on,1,0,0,,2,,,62,127
65588,note_on,0,0,0,,12,,,59,127
65588,note_on,0,0,0,,7,,,67,127
65653,note_off,65,0,0,,0,,,84,127
65722,note_on,69,0,0,,2,,,86,127
65855,note_off,133,0,0,,2,,,86,127
65856,note_on,1,0,0,,2,,,74,127
65989,note_off,133,0,0,,2,,,74,127
65989,note_off,0,0,0,,7,,,67,127
65989,note_off,0,0,0,,12,,,59,127
65989,note_off,0,0,0,,2,,,62,127
65990,note_on,1,0,0,,2,,,62,127
65990,note_on,0,0,0,,7,,,67,127
65990,note_on,0,0,0,,12,,,59,127
65990,note_on,0,0,0,,2,,,86,127
66123,note_off,133,0,0,,2,,,86,127
66124,note_on,1,0,0,,2,,,74,127
66257,note_off,133,0,0,,2,,,74,127
66258,note_on,1,0,0,,2,,,86,127
66391,note_off,133,0,0,,12,,,59,127
66391,note_off,0,0,0,,7,,,67,127
66391,note_off,0,0,0,,2,,,62,127
66392,note_on,1,0,0,,5,,,65,127
66392,note_on,0,0,0,,8,,,68,127
66392,note_on,0,0,0,,0,,,60,127
66525,note_off,133,0,0,,2,,,86,127
66526,note_on,1,0,0,,2,,,86,127
66659,note_off,133,0,0,,2,,,86,127
66660,note_on,1,0,0,,2,,,74,127
66793,note_off,133,0,0,,2,,,74,127
66793,note_off,0,0,0,,0,,,60,127
66793,note_off,0,0,0,,8,,,68,127
66793,note_off,0,0,0,,5,,,65,127
66794,note_on,1,0,0,,0,,,60,127
66794,note_on,0,0,0,,8,,,68,127
66794,note_on,0,0,0,,5,,,65,127
66794,note_on,0,0,0,,2,,,86,127
66927,note_off,133,0,0,,2,,,86,127
66928,note_on,1,0,0,,2,,,74,127
67061,note_off,133,0,0,,2,,,74,127
67062,note_on,1,0,0,,2,,,86,127
67195,note_off,133,0,0,,5,,,65,127
67195,note_off,0,0,0,,8,,,68,127
67195,note_off,0,0,0,,0,,,60,127
67196,note_on,1,0,0,,2,,,62,127
67196,note_on,0,0,0,,7,,,67,127
67196,note_on,0,0,0,,5,,,65,127
67196,note_on,0,0,0,,12,,,71,127
67329,note_off,133,0,0,,2,,,86,127
67330,note_on,1,0,0,,2,,,86,127
67463,note_off,133,0,0,,2,,,86,127
67464,note_on,1,0,0,,2,,,74,127
67597,note_off,133,0,0,,2,,,74,127
67597,note_off,0,0,0,,12,,,71,127
67597,note_off,0,0,0,,5,,,65,127
67597,note_off,0,0,0,,7,,,67,127
67597,note_off,0,0,0,,2,,,62,127
67598,note_on,1,0,0,,2,,,62,127
67598,note_on,0,0,0,,5,,,65,127
67598,note_on,0,0,0,,12,,,71,127
67598,note_on,0,0,0,,7,,,67,127
67598,note_on,0,0,0,,2,,,86,127
67731,note_off,133,0,0,,2,,,86,127
67732,note_on,1,0,0,,2,,,74,127
67865,note_off,133,0,0,,2,,,74,127
67866,note_on,1,0,0,,2,,,86,127
67999,note_off,133,0,0,,7,,,67,127
67999,note_off,0,0,0,,12,,,71,127
67999,note_off,0,0,0,,5,,,65,127
67999,note_off,0,0,0,,2,,,62,127
68000,note_on,1,0,0,,5,,,65,127
68000,note_on,0,0,0,,0,,,60,127
68000,note_on,0,0,0,,8,,,68,127
68133,note_off,133,0,0,,2,,,86,127
68134,note_on,1,0,0,,2,,,86,127
68267,note_off,133,0,0,,2,,,86,127
68268,note_on,1,0,0,,2,,,74,127
68401,note_off,133,0,0,,2,,,74,127
68401,note_off,0,0,0,,8,,,68,127
68401,note_off,0,0,0,,0,,,60,127
68401,note_off,0,0,0,,5,,,65,127
68402,note_on,1,0,0,,5,,,65,127
68402,note_on,0,0,0,,0,,,60,127
68402,note_on,0,0,0,,8,,,68,127
68402,note_on,0,0,0,,2,,,86,127
68535,note_off,133,0,0,,2,,,86,127
68536,note_on,1,0,0,,2,,,74,127
68669,note_off,133,0,0,,2,,,74,127
68670,note_on,1,0,0,,2,,,86,127
68803,note_off,133,0,0,,8,,,68,127
68803,note_off,0,0,0,,0,,,60,127
68803,note_off,0,0,0,,5,,,65,127
68804,note_on,1,0,0,,11,,,58,127
68804,note_on,0,0,0,,8,,,68,127
68804,note_on,0,0,0,,5,,,65,127
68937,note_off,133,0,0,,2,,,86,127
68938,note_on,1,0,0,,2,,,86,127
69071,note_off,133,0,0,,2,,,86,127
69072,note_on,1,0,0,,2,,,74,127
69205,note_off,133,0,0,,2,,,74,127
69205,note_off,0,0,0,,5,,,65,127
69205,note_off,0,0,0,,8,,,68,127
69205,note_off,0,0,0,,11,,,58,127
69206,note_on,1,0,0,,5,,,65,127
69206,note_on,0,0,0,,11,,,58,127
69206,note_on,0,0,0,,8,,,68,127
69206,note_on,0,0,0,,2,,,86,127
69339,note_off,133,0,0,,2,,,86,127
69340,note_on,1,0,0,,2,,,74,127
69473,note_off,133,0,0,,2,,,74,127
69474,note_on,1,0,0,,2,,,86,127
69607,note_off,133,0,0,,8,,,68,127
69607,note_off,0,0,0,,11,,,58,127
69607,note_off,0,0,0,,5,,,65,127
69608,note_on,1,0,0,,3,,,63,127
69608,note_on,0,0,0,,11,,,58,127
69608,note_on,0,0,0,,7,,,67,127
69673,note_off,65,0,0,,2,,,86,127
69742,note_on,69,0,0,,3,,,87,127
69875,note_off,133,0,0,,3,,,87,127
69876,note_on,1,0,0,,3,,,75,127
70009,note_off,133,0,0,,3,,,75,127
70009,note_off,0,0,0,,7,,,67,127
70009,note_off,0,0,0,,11,,,58,127
70009,note_off,0,0,0,,3,,,63,127
70010,note_on,1,0,0,,3,,,63,127
70010,note_on,0,0,0,,11,,,58,127
70010,note_on,0,0,0,,7,,,67,127
70010,note_on,0,0,0,,3,,,87,127
70143,note_off,133,0,0,,3,,,87,127
70144,note_on,1,0,0,,3,,,75,127
70277,note_off,133,0,0,,3,,,75,127
70278,note_on,1,0,0,,3,,,87,127
70411,note_off,133,0,0,,3,,,87,127
70411,note_off,0,0,0,,7,,,67,127
70411,note_off,0,0,0,,11,,,58,127
70411,note_off,0,0,0,,3,,,63,127
70412,note_on,1,0,0,,8,,,56,127
70412,note_on,0,0,0,,7,,,67,127
70412,note_on,0,0,0,,0,,,60,127
70412,note_on,0,0,0,,2,,,86,127
70545,note_off,133,0,0,,2,,,86,127
70546,note_on,1,0,0,,2,,,74,127
70679,note_off,133,0,0,,2,,,74,127
70680,note_on,1,0,0,,2,,,86,127
70813,note_off,133,0,0,,2,,,86,127
70813,note_off,0,0,0,,0,,,60,127
70813,note_off,0,0,0,,7,,,67,127
70813,note_off,0,0,0,,8,,,56,127
70814,note_on,1,0,0,,8,,,56,127
70814,note_on,0,0,0,,5,,,65,127
70814,note_on,0,0,0,,0,,,60,127
70814,note_on,0,0,0,,0,,,84,127
70947,note_off,133,0,0,,0,,,84,127
70948,note_on,1,0,0,,0,,,72,127
71081,note_off,133,0,0,,0,,,72,127
71082,note_on,1,0,0,,0,,,84,127
71215,note_off,133,0,0,,0,,,84,127
71215,note_off,0,0,0,,0,,,60,127
71215,note_off,0,0,0,,5,,,65,127
71215,note_off,0,0,0,,8,,,56,127
71216,note_on,1,0,0,,7,,,55,127
71216,note_on,0,0,0,,2,,,62,127
71216,note_on,0,0,0,,7,,,67,127
71216,note_on,0,0,0,,12,,,83,127
71349,note_off,133,0,0,,12,,,83,127
71350,note_on,1,0,0,,2,,,86,127
71483,note_off,133,0,0,,2,,,86,127
71484,note_on,1,0,0,,7,,,79,127
71617,note_off,133,0,0,,7,,,79,127
71617,note_off,0,0,0,,7,,,67,127
71617,note_off,0,0,0,,2,,,62,127
71617,note_off,0,0,0,,7,,,55,127
71618,note_on,1,0,0,,7,,,55,127
71618,note_on,0,0,0,,5,,,65,127
71618,note_on,0,0,0,,2,,,62,127
71618,note_on,0,0,0,,8,,,80,127
71751,note_off,133,0,0,,8,,,80,127
71752,note_on,1,0,0,,2,,,74,127
71885,note_off,133,0,0,,2,,,74,127
71886,note_on,1,0,0,,5,,,77,127
72019,note_off,133,0,0,,5,,,77,127
72019,note_off,0,0,0,,2,,,62,127
72019,note_off,0,0,0,,5,,,65,127
72019,note_off,0,0,0,,7,,,55,127
72020,note_on,1,0,0,,7,,,55,127
72020,note_on,0,0,0,,0,,,60,127
72020,note_on,0,0,0,,3,,,63,127
72020,note_on,0,0,0,,3,,,75,127
72153,note_off,133,0,0,,3,,,75,127
72154,note_on,1,0,0,,7,,,79,127
72287,note_off,133,0,0,,7,,,79,127
72288,note_on,1,0,0,,0,,,72,127
72421,note_off,133,0,0,,0,,,72,127
72421,note_off,0,0,0,,3,,,63,127
72421,note_off,0,0,0,,0,,,60,127
72421,note_off,0,0,0,,7,,,55,127
72422,note_on,1,0,0,,7,,,55,127
72422,note_on,0,0,0,,2,,,62,127
72422,note_on,0,0,0,,12,,,59,127
72422,note_on,0,0,0,,2,,,74,127
72555,note_off,133,0,0,,2,,,74,127
72556,note_on,1,0,0,,5,,,77,127
72689,note_off,133,0,0,,5,,,77,127
72690,note_on,1,0,0,,12,,,71,127
72823,note_off,133,0,0,,12,,,71,127
72823,note_off,0,0,0,,12,,,59,127
72823,note_off,0,0,0,,2,,,62,127
72823,note_off,0,0,0,,7,,,55,127
72824,note_on,1,0,0,,0,,,48,127
72824,note_on,0,0,0,,0,,,72,127
72957,note_off,133,0,0,,0,,,72,127
72975,note_on,18,0,0,,7,,,67,127
72975,note_on,0,0,0,,3,,,75,127
73108,note_off,133,0,0,,3,,,75,127
73108,note_off,0,0,0,,7,,,67,127
73109,note_on,1,0,0,,2,,,74,127
73109,note_on,0,0,0,,5,,,65,127
73242,note_off,133,0,0,,5,,,65,127
73242,note_off,0,0,0,,2,,,74,127
73243,note_on,1,0,0,,5,,,77,127
73243,note_on,0,0,0,,8,,,68,127
73376,note_off,133,0,0,,8,,,68,127
73376,note_off,0,0,0,,5,,,77,127
73377,note_on,1,0,0,,7,,,67,127
73377,note_on,0,0,0,,3,,,75,127
73510,note_off,133,0,0,,3,,,75,127
73510,note_off,0,0,0,,7,,,67,127
73511,note_on,1,0,0,,5,,,65,127
73511,note_on,0,0,0,,2,,,74,127
73627,note_off,116,0,0,,0,,,48,127
73644,note_off,17,0,0,,2,,,74,127
73644,note_off,0,0,0,,5,,,65,127
73645,note_on,1,0,0,,0,,,72,127
73645,note_on,0,0,0,,3,,,63,127
73779,note_on,134,0,0,,0,,,60,127
73779,note_on,0,0,0,,0,,,48,127
73909,note_off,130,0,0,,0,,,48,127
73909,note_off,0,0,0,,0,,,60,127
73912,note_on,3,0,0,,11,,,58,127
73912,note_on,0,0,0,,11,,,46,127
74042,note_off,130,0,0,,11,,,46,127
74042,note_off,0,0,0,,11,,,58,127
74045,note_on,3,0,0,,8,,,56,127
74045,note_on,0,0,0,,8,,,44,127
74175,note_off,130,0,0,,8,,,44,127
74175,note_off,0,0,0,,8,,,56,127
74178,note_on,3,0,0,,7,,,43,127
74178,note_on,0,0,0,,7,,,55,127
74308,note_off,130,0,0,,7,,,55,127
74308,note_off,0,0,0,,7,,,43,127
74311,note_on,3,0,0,,5,,,53,127
74311,note_on,0,0,0,,5,,,41,127
74441,note_off,130,0,0,,5,,,41,127
74441,note_off,0,0,0,,5,,,53,127
74443,note_off,2,0,0,,3,,,63,127
74443,note_off,0,0,0,,0,,,72,127
74444,note_on,1,0,0,,3,,,51,127
74444,note_on,0,0,0,,3,,,39,127
74578,note_on,134,0,0,,7,,,67,127
74578,note_on,0,0,0,,3,,,75,127
74711,note_off,133,0,0,,3,,,75,127
74711,note_off,0,0,0,,7,,,67,127
74712,note_on,1,0,0,,2,,,74,127
74712,note_on,0,0,0,,5,,,65,127
74845,note_off,133,0,0,,5,,,65,127
74845,note_off,0,0,0,,2,,,74,127
74846,note_on,1,0,0,,5,,,77,127
74846,note_on,0,0,0,,8,,,68,127
74979,note_off,133,0,0,,8,,,68,127
74979,note_off,0,0,0,,5,,,77,127
74980,note_on,1,0,0,,3,,,75,127
74980,note_on,0,0,0,,7,,,67,127
75113,note_off,133,0,0,,7,,,67,127
75113,note_off,0,0,0,,3,,,75,127
75114,note_on,1,0,0,,2,,,74,127
75114,note_on,0,0,0,,5,,,65,127
75247,note_off,133,0,0,,5,,,65,127
75247,note_off,0,0,0,,2,,,74,127
75247,note_off,0,0,0,,3,,,39,127
75247,note_off,0,0,0,,3,,,51,127
75248,note_on,1,0,0,,0,,,72,127
75248,note_on,0,0,0,,3,,,63,127
75382,note_on,134,0,0,,8,,,56,127
75382,note_on,0,0,0,,8,,,44,127
75512,note_off,130,0,0,,8,,,44,127
75512,note_off,0,0,0,,8,,,56,127
75515,note_on,3,0,0,,7,,,55,127
75515,note_on,0,0,0,,7,,,43,127
75645,note_off,130,0,0,,7,,,43,127
75645,note_off,0,0,0,,7,,,55,127
75648,note_on,3,0,0,,5,,,53,127
75648,note_on,0,0,0,,5,,,41,127
75778,note_off,130,0,0,,5,,,41,127
75778,note_off,0,0,0,,5,,,53,127
75781,note_on,3,0,0,,3,,,39,127
75781,note_on,0,0,0,,3,,,51,127
75911,note_off,130,0,0,,3,,,51,127
75911,note_off,0,0,0,,3,,,39,127
75914,note_on,3,0,0,,2,,,50,127
75914,note_on,0,0,0,,2,,,38,127
76044,note_off,130,0,0,,2,,,38,127
76044,note_off,0,0,0,,2,,,50,127
76046,note_off,2,0,0,,3,,,63,127
76046,note_off,0,0,0,,0,,,72,127
76047,note_on,1,0,0,,0,,,48,127
76047,note_on,0,0,0,,0,,,36,127
76181,note_on,134,0,0,,7,,,67,127
76181,note_on,0,0,0,,3,,,75,127
76314,note_off,133,0,0,,3,,,75,127
76314,note_off,0,0,0,,7,,,67,127
76315,note_on,1,0,0,,2,,,74,127
76315,note_on,0,0,0,,5,,,65,127
76448,note_off,133,0,0,,5,,,65,127
76448,note_off,0,0,0,,2,,,74,127
76449,note_on,1,0,0,,8,,,68,127
76449,note_on,0,0,0,,5,,,77,127
76582,note_off,133,0,0,,5,,,77,127
76582,note_off,0,0,0,,8,,,68,127
76583,note_on,1,0,0,,7,,,67,127
76583,note_on,0,0,0,,3,,,75,127
76716,note_off,133,0,0,,3,,,75,127
76716,note_off,0,0,0,,7,,,67,127
76717,note_on,1,0,0,,2,,,74,127
76717,note_on,0,0,0,,5,,,65,127
76850,note_off,133,0,0,,5,,,65,127
76850,note_off,0,0,0,,2,,,74,127
76850,note_off,0,0,0,,0,,,36,127
76850,note_off,0,0,0,,0,,,48,127
76851,note_on,1,0,0,,0,,,72,127
76851,note_on,0,0,0,,3,,,63,127
76985,note_on,134,0,0,,3,,,51,127
76985,note_on,0,0,0,,3,,,39,127
77115,note_off,130,0,0,,3,,,39,127
77115,note_off,0,0,0,,3,,,51,127
77118,note_on,3,0,0,,2,,,50,127
77118,note_on,0,0,0,,2,,,38,127
77248,note_off,130,0,0,,2,,,38,127
77248,note_off,0,0,0,,2,,,50,127
77251,note_on,3,0,0,,0,,,36,127
77251,note_on,0,0,0,,0,,,48,127
77381,note_off,130,0,0,,0,,,48,127
77381,note_off,0,0,0,,0,,,36,127
77384,note_on,3,0,0,,11,,,34,127
77384,note_on,0,0,0,,11,,,46,127
77514,note_off,130,0,0,,11,,,46,127
77514,note_off,0,0,0,,11,,,34,127
77517,note_on,3,0,0,,8,,,32,127
77517,note_on,0,0,0,,8,,,44,127
77647,note_off,130,0,0,,8,,,44,127
77647,note_off,0,0,0,,8,,,32,127
77649,note_off,2,0,0,,3,,,63,127
77650,note_on,1,0,0,,7,,,31,127
77650,note_on,0,0,0,,7,,,43,127
77783,note_off,133,0,0,,0,,,72,127
77801,note_on,18,0,0,,12,,,71,127
77934,note_off,133,0,0,,12,,,71,127
77935,note_on,1,0,0,,7,,,67,127
78051,note_off,116,0,0,,7,,,43,127
78051,note_off,0,0,0,,7,,,31,127
78068,note_off,17,0,0,,7,,,67,127
78069,note_on,1,0,0,,5,,,29,127
78069,note_on,0,0,0,,5,,,41,127
78069,note_on,0,0,0,,8,,,68,127
78202,note_off,133,0,0,,8,,,68,127
78203,note_on,1,0,0,,5,,,77,127
78336,note_off,133,0,0,,5,,,77,127
78337,note_on,1,0,0,,2,,,74,127
78470,note_off,133,0,0,,2,,,74,127
78470,note_off,0,0,0,,5,,,41,127
78470,note_off,0,0,0,,5,,,29,127
78471,note_on,1,0,0,,7,,,43,127
78471,note_on,0,0,0,,7,,,31,127
78471,note_on,0,0,0,,0,,,72,127
78871,note_off,400,0,0,,0,,,72,127
78871,note_off,0,0,0,,7,,,31,127
78871,note_off,0,0,0,,7,,,43,127
78872,note_on,1,0,0,,7,,,43,127
78872,note_on,0,0,0,,7,,,31,127
78872,note_on,0,0,0,,3,,,75,127
78935,note_on,63,0,0,,2,,,74,127
78938,note_off,3,0,0,,3,,,75,127
78997,note_on,59,0,0,,3,,,75,127
79000,note_off,3,0,0,,2,,,74,127
79059,note_on,59,0,0,,2,,,74,127
79062,note_off,3,0,0,,3,,,75,127
79121,note_on,59,0,0,,3,,,75,127
79124,note_off,3,0,0,,2,,,74,127
79183,note_on,59,0,0,,2,,,74,127
79186,note_off,3,0,0,,3,,,75,127
79269,note_off,83,0,0,,7,,,31,127
79269,note_off,0,0,0,,7,,,43,127
79274,note_off,5,0,0,,2,,,74,127
79287,note_on,13,0,0,,0,,,36,127
79421,note_on,134,0,0,,7,,,91,127
79554,note_off,133,0,0,,7,,,91,127
79555,note_on,1,0,0,,7,,,79,127
79688,note_off,133,0,0,,7,,,79,127
79688,note_off,0,0,0,,0,,,36,127
79689,note_on,1,0,0,,7,,,91,127
79689,note_on,0,0,0,,4,,,76,127
79738,note_off,49,0,0,,7,,,91,127
79739,note_on,1,0,0,,5,,,89,127
79788,note_off,49,0,0,,5,,,89,127
79789,note_on,1,0,0,,4,,,88,127
79838,note_off,49,0,0,,4,,,88,127
79839,note_on,1,0,0,,2,,,86,127
79888,note_off,49,0,0,,2,,,86,127
79889,note_on,1,0,0,,0,,,84,127
79938,note_off,49,0,0,,0,,,84,127
79939,note_on,1,0,0,,12,,,83,127
79988,note_off,49,0,0,,12,,,83,127
79989,note_on,1,0,0,,10,,,81,127
80038,note_off,49,0,0,,10,,,81,127
80039,note_on,1,0,0,,7,,,79,127
80088,note_off,49,0,0,,4,,,76,127
80089,note_on,1,0,0,,2,,,74,127
80133,note_off,44,0,0,,7,,,79,127
80223,note_on,90,0,0,,5,,,89,127
80356,note_off,133,0,0,,5,,,89,127
80357,note_on,1,0,0,,7,,,79,127
80490,note_off,133,0,0,,7,,,79,127
80490,note_off,0,0,0,,2,,,74,127
80491,note_on,1,0,0,,5,,,89,127
80491,note_on,0,0,0,,12,,,71,127
80590,note_off,99,0,0,,5,,,89,127
80591,note_on,1,0,0,,4,,,88,127
80640,note_off,49,0,0,,4,,,88,127
80641,note_on,1,0,0,,2,,,86,127
80690,note_off,49,0,0,,2,,,86,127
80691,note_on,1,0,0,,0,,,84,127
80740,note_off,49,0,0,,0,,,84,127
80741,note_on,1,0,0,,12,,,83,127
80790,note_off,49,0,0,,12,,,83,127
80791,note_on,1,0,0,,10,,,81,127
80840,note_off,49,0,0,,10,,,81,127
80841,note_on,1,0,0,,7,,,79,127
80890,note_off,49,0,0,,12,,,71,127
80891,note_on,1,0,0,,0,,,72,127
80935,note_off,44,0,0,,7,,,79,127
81025,note_on,90,0,0,,4,,,88,127
81158,note_off,133,0,0,,4,,,88,127
81159,note_on,1,0,0,,7,,,79,127
81292,note_off,133,0,0,,7,,,79,127
81292,note_off,0,0,0,,0,,,72,127
81293,note_on,1,0,0,,4,,,88,127
81293,note_on,0,0,0,,4,,,64,127
81293,note_on,0,0,0,,4,,,52,127
81442,note_off,149,0,0,,4,,,88,127
81443,note_on,1,0,0,,2,,,86,127
81492,note_off,49,0,0,,2,,,86,127
81493,note_on,1,0,0,,0,,,84,127
81542,note_off,49,0,0,,0,,,84,127
81543,note_on,1,0,0,,12,,,83,127
81592,note_off,49,0,0,,12,,,83,127
81593,note_on,1,0,0,,10,,,81,127
81642,note_off,49,0,0,,10,,,81,127
81643,note_on,1,0,0,,7,,,79,127
81692,note_off,49,0,0,,7,,,79,127
81692,note_off,0,0,0,,4,,,52,127
81692,note_off,0,0,0,,4,,,64,127
81693,note_on,1,0,0,,4,,,76,127
81693,note_on,0,0,0,,5,,,53,127
81693,note_on,0,0,0,,5,,,65,127
81759,note_off,66,0,0,,4,,,76,127
81760,note_on,1,0,0,,2,,,74,127
81826,note_off,66,0,0,,2,,,74,127
81827,note_on,1,0,0,,4,,,76,127
81893,note_off,66,0,0,,4,,,76,127
81894,note_on,1,0,0,,2,,,74,127
81960,note_off,66,0,0,,2,,,74,127
81961,note_on,1,0,0,,4,,,76,127
82027,note_off,66,0,0,,4,,,76,127
82028,note_on,1,0,0,,2,,,74,127
82094,note_off,66,0,0,,2,,,74,127
82094,note_off,0,0,0,,5,,,65,127
82094,note_off,0,0,0,,5,,,53,127
82095,note_on,1,0,0,,4,,,76,127
82095,note_on,0,0,0,,7,,,67,127
82095,note_on,0,0,0,,7,,,55,127
82161,note_off,66,0,0,,4,,,76,127
82162,note_on,1,0,0,,2,,,74,127
82228,note_off,66,0,0,,2,,,74,127
82229,note_on,1,0,0,,4,,,76,127
82295,note_off,66,0,0,,4,,,76,127
82296,note_on,1,0,0,,2,,,74,127
82362,note_off,66,0,0,,2,,,74,127
82363,note_on,1,0,0,,0,,,72,127
82429,note_off,66,0,0,,0,,,72,127
82430,note_on,1,0,0,,2,,,74,127
82496,note_off,66,0,0,,2,,,74,127
82496,note_off,0,0,0,,7,,,55,127
82496,note_off,0,0,0,,7,,,67,127
82514,note_on,18,0,0,,0,,,36,127
82648,note_on,134,0,0,,7,,,79,127
82781,note_off,133,0,0,,7,,,79,127
82782,note_on,1,0,0,,7,,,67,127
82915,note_off,133,0,0,,7,,,67,127
82915,note_off,0,0,0,,0,,,36,127
82916,note_on,1,0,0,,4,,,64,127
82916,note_on,0,0,0,,7,,,79,127
82965,note_off,49,0,0,,7,,,79,127
82966,note_on,1,0,0,,5,,,77,127
83015,note_off,49,0,0,,5,,,77,127
83016,note_on,1,0,0,,4,,,76,127
83065,note_off,49,0,0,,4,,,76,127
83066,note_on,1,0,0,,2,,,74,127
83115,note_off,49,0,0,,2,,,74,127
83116,note_on,1,0,0,,0,,,72,127
83165,note_off,49,0,0,,0,,,72,127
83166,note_on,1,0,0,,12,,,71,127
83215,note_off,49,0,0,,12,,,71,127
83216,note_on,1,0,0,,10,,,69,127
83265,note_off,49,0,0,,10,,,69,127
83266,note_on,1,0,0,,7,,,67,127
83315,note_off,49,0,0,,4,,,64,127
83316,note_on,1,0,0,,2,,,62,127
83360,note_off,44,0,0,,7,,,67,127
83450,note_on,90,0,0,,5,,,77,127
83583,note_off,133,0,0,,5,,,77,127
83584,note_on,1,0,0,,7,,,67,127
83717,note_off,133,0,0,,7,,,67,127
83717,note_off,0,0,0,,2,,,62,127
83718,note_on,1,0,0,,12,,,59,127
83718,note_on,0,0,0,,5,,,77,127
83817,note_off,99,0,0,,5,,,77,127
83818,note_on,1,0,0,,4,,,76,127
83867,note_off,49,0,0,,4,,,76,127
83868,note_on,1,0,0,,2,,,74,127
83917,note_off,49,0,0,,2,,,74,127
83918,note_on,1,0,0,,0,,,72,127
83967,note_off,49,0,0,,0,,,72,127
83968,note_on,1,0,0,,12,,,71,127
84017,note_off,49,0,0,,12,,,71,127
84018,note_on,1,0,0,,10,,,69,127
84067,note_off,49,0,0,,10,,,69,127
84068,note_on,1,0,0,,7,,,67,127
84117,note_off,49,0,0,,12,,,59,127
84118,note_on,1,0,0,,0,,,60,127
84162,note_off,44,0,0,,7,,,67,127
84252,note_on,90,0,0,,4,,,76,127
84385,note_off,133,0,0,,4,,,76,127
84386,note_on,1,0,0,,7,,,67,127
84519,note_off,133,0,0,,7,,,67,127
84519,note_off,0,0,0,,0,,,60,127
84520,note_on,1,0,0,,0,,,48,127
84520,note_on,0,0,0,,0,,,36,127
84520,note_on,0,0,0,,4,,,76,127
84669,note_off,149,0,0,,4,,,76,127
84670,note_on,1,0,0,,2,,,74,127
84719,note_off,49,0,0,,2,,,74,127
84720,note_on,1,0,0,,0,,,72,127
84769,note_off,49,0,0,,0,,,72,127
84770,note_on,1,0,0,,12,,,71,127
84819,note_off,49,0,0,,12,,,71,127
84820,note_on,1,0,0,,10,,,69,127
84869,note_off,49,0,0,,10,,,69,127
84870,note_on,1,0,0,,7,,,67,127
84919,note_off,49,0,0,,7,,,67,127
84919,note_off,0,0,0,,0,,,36,127
84919,note_off,0,0,0,,0,,,48,127
84920,note_on,1,0,0,,5,,,41,127
84920,note_on,0,0,0,,5,,,53,127
84920,note_on,0,0,0,,4,,,64,127
84986,note_off,66,0,0,,4,,,64,127
84987,note_on,1,0,0,,2,,,62,127
85053,note_off,66,0,0,,2,,,62,127
85054,note_on,1,0,0,,4,,,64,127
85120,note_off,66,0,0,,4,,,64,127
85121,note_on,1,0,0,,2,,,62,127
85187,note_off,66,0,0,,2,,,62,127
85188,note_on,1,0,0,,4,,,64,127
85254,note_off,66,0,0,,4,,,64,127
85255,note_on,1,0,0,,2,,,62,127
85321,note_off,66,0,0,,2,,,62,127
85321,note_off,0,0,0,,5,,,53,127
85321,note_off,0,0,0,,5,,,41,127
85322,note_on,1,0,0,,7,,,55,127
85322,note_on,0,0,0,,7,,,43,127
85322,note_on,0,0,0,,4,,,64,127
85388,note_off,66,0,0,,4,,,64,127
85389,note_on,1,0,0,,2,,,62,127
85455,note_off,66,0,0,,2,,,62,127
85456,note_on,1,0,0,,4,,,64,127
85522,note_off,66,0,0,,4,,,64,127
85523,note_on,1,0,0,,2,,,62,127
85589,note_off,66,0,0,,2,,,62,127
85590,note_on,1,0,0,,0,,,60,127
85656,note_off,66,0,0,,0,,,60,127
85657,note_on,1,0,0,,2,,,62,127
85723,note_off,66,0,0,,2,,,62,127
85723,note_off,0,0,0,,7,,,43,127
85723,note_off,0,0,0,,7,,,55,127
85724,note_on,1,0,0,,0,,,36,127
85724,note_on,0,0,0,,0,,,48,127
85724,note_on,0,0,0,,0,,,60,127
85874,note_on,150,0,0,,4,,,64,127
85891,note_off,17,0,0,,0,,,60,127
86007,note_off,116,0,0,,4,,,64,127
86008,note_on,1,0,0,,7,,,67,127
86141,note_off,133,0,0,,7,,,67,127
86142,note_on,1,0,0,,0,,,72,127
86275,note_off,133,0,0,,0,,,72,127
86276,note_on,1,0,0,,4,,,76,127
86409,note_off,133,0,0,,4,,,76,127
86410,note_on,1,0,0,,7,,,79,127
86526,note_off,116,0,0,,0,,,48,127
86526,note_off,0,0,0,,0,,,36,127
86543,note_off,17,0,0,,7,,,79,127
86544,note_on,1,0,0,,0,,,84,127
86544,note_on,0,0,0,,0,,,60,127
86674,note_off,130,0,0,,0,,,60,127
86690,note_off,16,0,0,,0,,,84,127
86694,note_on,4,0,0,,7,,,55,127
86694,note_on,0,0,0,,7,,,79,127
86824,note_off,130,0,0,,7,,,55,127
86826,note_off,2,0,0,,7,,,79,127
86827,note_on,1,0,0,,4,,,52,127
86827,note_on,0,0,0,,4,,,76,127
86957,note_off,130,0,0,,4,,,52,127
86959,note_off,2,0,0,,4,,,76,127
86960,note_on,1,0,0,,0,,,48,127
86960,note_on,0,0,0,,0,,,72,127
87090,note_off,130,0,0,,0,,,48,127
87092,note_off,2,0,0,,0,,,72,127
87093,note_on,1,0,0,,7,,,43,127
87093,note_on,0,0,0,,7,,,67,127
87223,note_off,130,0,0,,7,,,43,127
87225,note_off,2,0,0,,7,,,67,127
87226,note_on,1,0,0,,4,,,40,127
87226,note_on,0,0,0,,4,,,64,127
87356,note_off,130,0,0,,4,,,40,127
87358,note_off,2,0,0,,4,,,64,127
87376,note_on,18,0,0,,0,,,60,127
87376,note_on,0,0,0,,0,,,36,127
89104,note_off,1728,0,0,,0,,,36,127
89104,note_off,0,0,0,,0,,,60,127
90624,end_of_track,1520,1,0,,,,,,
