tick,type,time,meta,track,program,channel,pitch,tempo,note,velocity
0,copyright,0,1,0,,,,,,
0,program_change,0,0,0,6,0,,,,
0,pitchwheel,0,0,0,,0,0,,,
0,program_change,0,0,0,6,1,,,,
0,pitchwheel,0,0,0,,1,-590,,,
0,program_change,0,0,0,6,2,,,,
0,pitchwheel,0,0,0,,2,-272,,,
0,program_change,0,0,0,6,3,,,,
0,pitchwheel,0,0,0,,3,-353,,,
0,program_change,0,0,0,6,4,,,,
0,pitchwheel,0,0,0,,4,-560,,,
0,program_change,0,0,0,6,5,,,,
0,pitchwheel,0,0,0,,5,-80,,,
0,program_change,0,0,0,6,6,,,,
0,pitchwheel,0,0,0,,6,-625,,,
0,program_change,0,0,0,6,7,,,,
0,pitchwheel,0,0,0,,7,-130,,,
0,program_change,0,0,0,6,8,,,,
0,pitchwheel,0,0,0,,8,-512,,,
0,program_change,0,0,0,6,10,,,,
0,pitchwheel,0,0,0,,10,-464,,,
0,program_change,0,0,0,6,11,,,,
0,pitchwheel,0,0,0,,11,-208,,,
0,program_change,0,0,0,6,12,,,,
0,pitchwheel,0,0,0,,12,-553,,,
0,set_tempo,0,1,0,,,,500000,,
51,note_on,51,0,0,,0,,,72,127
151,note_off,100,0,0,,0,,,72,127
152,note_on,1,0,0,,7,,,79,127
252,note_off,100,0,0,,7,,,79,127
253,note_on,1,0,0,,4,,,76,127
353,note_off,100,0,0,,4,,,76,127
354,note_on,1,0,0,,0,,,72,127
454,note_off,100,0,0,,0,,,72,127
455,note_on,1,0,0,,7,,,67,127
555,note_off,100,0,0,,7,,,67,127
556,note_on,1,0,0,,0,,,72,127
656,note_off,100,0,0,,0,,,72,127
657,note_on,1,0,0,,7,,,67,127
757,note_off,100,0,0,,7,,,67,127
758,note_on,1,0,0,,4,,,64,127
858,note_off,100,0,0,,4,,,64,127
859,note_on,1,0,0,,0,,,72,127
859,note_on,0,0,0,,0,,,60,127
959,note_off,100,0,0,,0,,,60,127
960,note_on,1,0,0,,4,,,64,127
1060,note_off,100,0,0,,4,,,64,127
1061,note_on,1,0,0,,0,,,60,127
1161,note_off,100,0,0,,0,,,60,127
1162,note_on,1,0,0,,7,,,55,127
1259,note_off,97,0,0,,0,,,72,127
1262,note_off,3,0,0,,7,,,55,127
1263,note_on,1,0,0,,4,,,52,127
1363,note_off,100,0,0,,4,,,52,127
1364,note_on,1,0,0,,0,,,60,127
1464,note_off,100,0,0,,0,,,60,127
1465,note_on,1,0,0,,7,,,55,127
1565,note_off,100,0,0,,7,,,55,127
1566,note_on,1,0,0,,4,,,52,127
1666,note_off,100,0,0,,4,,,52,127
1673,note_on,7,0,0,,0,,,48,127
1827,note_on,154,0,0,,10,,,81,127
1927,note_off,100,0,0,,10,,,81,127
1928,note_on,1,0,0,,7,,,79,127
2028,note_off,100,0,0,,7,,,79,127
2029,note_on,1,0,0,,5,,,77,127
2073,note_off,44,0,0,,0,,,48,127
2129,note_off,56,0,0,,5,,,77,127
2130,note_on,1,0,0,,4,,,76,127
2230,note_off,100,0,0,,4,,,76,127
2231,note_on,1,0,0,,2,,,74,127
2331,note_off,100,0,0,,2,,,74,127
2332,note_on,1,0,0,,0,,,72,127
2432,note_off,100,0,0,,0,,,72,127
2433,note_on,1,0,0,,12,,,71,127
2533,note_off,100,0,0,,12,,,71,127
2534,note_on,1,0,0,,10,,,69,127
2635,note_on,101,0,0,,5,,,53,127
2735,note_off,100,0,0,,5,,,53,127
2735,note_off,0,0,0,,10,,,69,127
2736,note_on,1,0,0,,7,,,55,127
2736,note_on,0,0,0,,10,,,69,127
2836,note_off,100,0,0,,7,,,55,127
2837,note_on,1,0,0,,10,,,57,127
2937,note_off,100,0,0,,10,,,57,127
2937,note_off,0,0,0,,10,,,69,127
2938,note_on,1,0,0,,12,,,59,127
2938,note_on,0,0,0,,10,,,69,127
3038,note_off,100,0,0,,12,,,59,127
3039,note_on,1,0,0,,0,,,60,127
3139,note_off,100,0,0,,0,,,60,127
3139,note_off,0,0,0,,10,,,69,127
3140,note_on,1,0,0,,2,,,62,127
3140,note_on,0,0,0,,10,,,69,127
3240,note_off,100,0,0,,2,,,62,127
3241,note_on,1,0,0,,4,,,64,127
3341,note_off,100,0,0,,4,,,64,127
3341,note_off,0,0,0,,10,,,69,127
3342,note_on,1,0,0,,5,,,65,127
3342,note_on,0,0,0,,10,,,69,127
3442,note_off,100,0,0,,10,,,69,127
3443,note_on,1,0,0,,7,,,79,127
3543,note_off,100,0,0,,7,,,79,127
3544,note_on,1,0,0,,5,,,77,127
3644,note_off,100,0,0,,5,,,77,127
3645,note_on,1,0,0,,4,,,76,127
3742,note_off,97,0,0,,5,,,65,127
3745,note_off,3,0,0,,4,,,76,127
3746,note_on,1,0,0,,2,,,74,127
3846,note_off,100,0,0,,2,,,74,127
3847,note_on,1,0,0,,0,,,72,127
3947,note_off,100,0,0,,0,,,72,127
3948,note_on,1,0,0,,12,,,71,127
4048,note_off,100,0,0,,12,,,71,127
4049,note_on,1,0,0,,10,,,69,127
4149,note_off,100,0,0,,10,,,69,127
4150,note_on,1,0,0,,7,,,67,127
4251,note_on,101,0,0,,4,,,52,127
4351,note_off,100,0,0,,4,,,52,127
4351,note_off,0,0,0,,7,,,67,127
4352,note_on,1,0,0,,5,,,53,127
4352,note_on,0,0,0,,7,,,67,127
4452,note_off,100,0,0,,5,,,53,127
4453,note_on,1,0,0,,7,,,55,127
4553,note_off,100,0,0,,7,,,55,127
4553,note_off,0,0,0,,7,,,67,127
4554,note_on,1,0,0,,10,,,57,127
4554,note_on,0,0,0,,7,,,67,127
4654,note_off,100,0,0,,10,,,57,127
4655,note_on,1,0,0,,12,,,59,127
4755,note_off,100,0,0,,12,,,59,127
4755,note_off,0,0,0,,7,,,67,127
4756,note_on,1,0,0,,0,,,60,127
4756,note_on,0,0,0,,7,,,67,127
4856,note_off,100,0,0,,0,,,60,127
4857,note_on,1,0,0,,2,,,62,127
4957,note_off,100,0,0,,2,,,62,127
4957,note_off,0,0,0,,7,,,67,127
4958,note_on,1,0,0,,4,,,64,127
4958,note_on,0,0,0,,7,,,67,127
5067,note_on,109,0,0,,5,,,77,127
5068,note_off,1,0,0,,7,,,67,127
5167,note_off,99,0,0,,5,,,77,127
5168,note_on,1,0,0,,4,,,76,127
5268,note_off,100,0,0,,4,,,76,127
5269,note_on,1,0,0,,2,,,74,127
5294,note_off,25,0,0,,4,,,64,127
5369,note_off,75,0,0,,2,,,74,127
5370,note_on,1,0,0,,0,,,72,127
5470,note_off,100,0,0,,0,,,72,127
5471,note_on,1,0,0,,12,,,71,127
5571,note_off,100,0,0,,12,,,71,127
5572,note_on,1,0,0,,10,,,69,127
5672,note_off,100,0,0,,10,,,69,127
5673,note_on,1,0,0,,7,,,67,127
5773,note_off,100,0,0,,7,,,67,127
5774,note_on,1,0,0,,6,,,66,127
5875,note_on,101,0,0,,4,,,64,127
5975,note_off,100,0,0,,4,,,64,127
5975,note_off,0,0,0,,6,,,66,127
5976,note_on,1,0,0,,2,,,62,127
5976,note_on,0,0,0,,6,,,66,127
6076,note_off,100,0,0,,2,,,62,127
6077,note_on,1,0,0,,0,,,60,127
6177,note_off,100,0,0,,0,,,60,127
6177,note_off,0,0,0,,6,,,66,127
6178,note_on,1,0,0,,12,,,59,127
6178,note_on,0,0,0,,7,,,67,127
6278,note_off,100,0,0,,12,,,59,127
6279,note_on,1,0,0,,10,,,57,127
6379,note_off,100,0,0,,10,,,57,127
6379,note_off,0,0,0,,7,,,67,127
6380,note_on,1,0,0,,7,,,55,127
6380,note_on,0,0,0,,10,,,69,127
6480,note_off,100,0,0,,7,,,55,127
6481,note_on,1,0,0,,6,,,54,127
6581,note_off,100,0,0,,6,,,54,127
6581,note_off,0,0,0,,10,,,69,127
6582,note_on,1,0,0,,7,,,55,127
6582,note_on,0,0,0,,12,,,71,127
6682,note_off,100,0,0,,12,,,71,127
6700,note_on,18,0,0,,7,,,79,127
6800,note_off,100,0,0,,7,,,79,127
6801,note_on,1,0,0,,5,,,77,127
6815,note_off,14,0,0,,7,,,55,127
6901,note_off,86,0,0,,5,,,77,127
6902,note_on,1,0,0,,4,,,76,127
7002,note_off,100,0,0,,4,,,76,127
7003,note_on,1,0,0,,2,,,74,127
7103,note_off,100,0,0,,2,,,74,127
7104,note_on,1,0,0,,0,,,72,127
7204,note_off,100,0,0,,0,,,72,127
7205,note_on,1,0,0,,12,,,71,127
7305,note_off,100,0,0,,12,,,71,127
7306,note_on,1,0,0,,10,,,69,127
7406,note_off,100,0,0,,10,,,69,127
7407,note_on,1,0,0,,8,,,68,127
7508,note_on,101,0,0,,5,,,65,127
7608,note_off,100,0,0,,5,,,65,127
7608,note_off,0,0,0,,8,,,68,127
7609,note_on,1,0,0,,8,,,68,127
7609,note_on,0,0,0,,4,,,64,127
7709,note_off,100,0,0,,4,,,64,127
7710,note_on,1,0,0,,2,,,62,127
7810,note_off,100,0,0,,2,,,62,127
7810,note_off,0,0,0,,8,,,68,127
7811,note_on,1,0,0,,10,,,69,127
7811,note_on,0,0,0,,0,,,60,127
7911,note_off,100,0,0,,0,,,60,127
7912,note_on,1,0,0,,12,,,59,127
8012,note_off,100,0,0,,12,,,59,127
8012,note_off,0,0,0,,10,,,69,127
8013,note_on,1,0,0,,12,,,71,127
8013,note_on,0,0,0,,10,,,57,127
8110,note_on,97,0,0,,8,,,56,127
8113,note_off,3,0,0,,10,,,57,127
8213,note_off,100,0,0,,8,,,56,127
8219,note_off,6,0,0,,12,,,71,127
8219,note_on,0,0,0,,10,,,57,127
8219,note_on,0,0,0,,0,,,72,127
8319,note_off,100,0,0,,10,,,57,127
8320,note_on,1,0,0,,5,,,65,127
8420,note_off,100,0,0,,5,,,65,127
8420,note_off,0,0,0,,0,,,72,127
8421,note_on,1,0,0,,7,,,55,127
8421,note_on,0,0,0,,12,,,71,127
8521,note_off,100,0,0,,7,,,55,127
8522,note_on,1,0,0,,4,,,64,127
8622,note_off,100,0,0,,4,,,64,127
8622,note_off,0,0,0,,12,,,71,127
8623,note_on,1,0,0,,5,,,53,127
8623,note_on,0,0,0,,2,,,74,127
8723,note_off,100,0,0,,5,,,53,127
8724,note_on,1,0,0,,2,,,62,127
8824,note_off,100,0,0,,2,,,62,127
8824,note_off,0,0,0,,2,,,74,127
8825,note_on,1,0,0,,4,,,52,127
8825,note_on,0,0,0,,4,,,76,127
8925,note_off,100,0,0,,4,,,52,127
8926,note_on,1,0,0,,0,,,60,127
9026,note_off,100,0,0,,0,,,60,127
9026,note_off,0,0,0,,4,,,76,127
9027,note_on,1,0,0,,2,,,50,127
9027,note_on,0,0,0,,5,,,77,127
9127,note_off,100,0,0,,2,,,50,127
9128,note_on,1,0,0,,12,,,59,127
9228,note_off,100,0,0,,12,,,59,127
9228,note_off,0,0,0,,5,,,77,127
9229,note_on,1,0,0,,0,,,48,127
9229,note_on,0,0,0,,4,,,76,127
9329,note_off,100,0,0,,0,,,48,127
9330,note_on,1,0,0,,10,,,57,127
9430,note_off,100,0,0,,10,,,57,127
9430,note_off,0,0,0,,4,,,76,127
9431,note_on,1,0,0,,12,,,47,127
9431,note_on,0,0,0,,2,,,74,127
9531,note_off,100,0,0,,12,,,47,127
9532,note_on,1,0,0,,8,,,56,127
9632,note_off,100,0,0,,8,,,56,127
9632,note_off,0,0,0,,2,,,74,127
9633,note_on,1,0,0,,10,,,45,127
9633,note_on,0,0,0,,0,,,72,127
9733,note_off,100,0,0,,10,,,45,127
9734,note_on,1,0,0,,10,,,57,127
9834,note_off,100,0,0,,10,,,57,127
9834,note_off,0,0,0,,0,,,72,127
9835,note_on,1,0,0,,4,,,40,127
9835,note_on,0,0,0,,12,,,71,127
9944,note_on,109,0,0,,4,,,76,127
9951,note_off,7,0,0,,12,,,71,127
10044,note_off,93,0,0,,4,,,76,127
10045,note_on,1,0,0,,2,,,74,127
10145,note_off,100,0,0,,2,,,74,127
10146,note_on,1,0,0,,0,,,72,127
10234,note_off,88,0,0,,4,,,40,127
10246,note_off,12,0,0,,0,,,72,127
10247,note_on,1,0,0,,12,,,71,127
10348,note_on,101,0,0,,7,,,67,127
10448,note_off,100,0,0,,7,,,67,127
10448,note_off,0,0,0,,12,,,71,127
10449,note_on,1,0,0,,5,,,65,127
10449,note_on,0,0,0,,12,,,71,127
10549,note_off,100,0,0,,5,,,65,127
10550,note_on,1,0,0,,4,,,64,127
10650,note_off,100,0,0,,4,,,64,127
10651,note_on,1,0,0,,2,,,62,127
10751,note_off,100,0,0,,12,,,71,127
10752,note_on,1,0,0,,2,,,74,127
10852,note_off,100,0,0,,2,,,74,127
10852,note_off,0,0,0,,2,,,62,127
10853,note_on,1,0,0,,2,,,62,127
10853,note_on,0,0,0,,0,,,72,127
10953,note_off,100,0,0,,0,,,72,127
10954,note_on,1,0,0,,12,,,71,127
11054,note_off,100,0,0,,12,,,71,127
11055,note_on,1,0,0,,10,,,69,127
11155,note_off,100,0,0,,2,,,62,127
11156,note_on,1,0,0,,5,,,65,127
11256,note_off,100,0,0,,5,,,65,127
11256,note_off,0,0,0,,10,,,69,127
11257,note_on,1,0,0,,4,,,64,127
11257,note_on,0,0,0,,10,,,69,127
11357,note_off,100,0,0,,4,,,64,127
11358,note_on,1,0,0,,2,,,62,127
11458,note_off,100,0,0,,2,,,62,127
11459,note_on,1,0,0,,0,,,60,127
11559,note_off,100,0,0,,10,,,69,127
11560,note_on,1,0,0,,0,,,72,127
11660,note_off,100,0,0,,0,,,72,127
11661,note_on,1,0,0,,12,,,71,127
11761,note_off,100,0,0,,12,,,71,127
11762,note_on,1,0,0,,10,,,69,127
11862,note_off,100,0,0,,10,,,69,127
11863,note_on,1,0,0,,7,,,67,127
11963,note_off,100,0,0,,0,,,60,127
11964,note_on,1,0,0,,4,,,64,127
12064,note_off,100,0,0,,4,,,64,127
12064,note_off,0,0,0,,7,,,67,127
12065,note_on,1,0,0,,2,,,62,127
12065,note_on,0,0,0,,7,,,67,127
12165,note_off,100,0,0,,2,,,62,127
12166,note_on,1,0,0,,0,,,60,127
12266,note_off,100,0,0,,0,,,60,127
12267,note_on,1,0,0,,12,,,59,127
12367,note_off,100,0,0,,7,,,67,127
12368,note_on,1,0,0,,12,,,71,127
12468,note_off,100,0,0,,12,,,71,127
12469,note_on,1,0,0,,10,,,69,127
12569,note_off,100,0,0,,10,,,69,127
12570,note_on,1,0,0,,7,,,67,127
12667,note_off,97,0,0,,12,,,59,127
12670,note_off,3,0,0,,7,,,67,127
12671,note_on,1,0,0,,5,,,65,127
12771,note_off,100,0,0,,5,,,65,127
12772,note_on,1,0,0,,10,,,69,127
12872,note_off,100,0,0,,10,,,69,127
12873,note_on,1,0,0,,7,,,55,127
12873,note_on,0,0,0,,7,,,67,127
12973,note_off,100,0,0,,7,,,67,127
12974,note_on,1,0,0,,5,,,65,127
13074,note_off,100,0,0,,5,,,65,127
13074,note_off,0,0,0,,7,,,55,127
13075,note_on,1,0,0,,0,,,60,127
13075,note_on,0,0,0,,4,,,64,127
13175,note_off,100,0,0,,4,,,64,127
13176,note_on,1,0,0,,7,,,67,127
13276,note_off,100,0,0,,7,,,67,127
13276,note_off,0,0,0,,0,,,60,127
13277,note_on,1,0,0,,10,,,57,127
13277,note_on,0,0,0,,6,,,66,127
13377,note_off,100,0,0,,6,,,66,127
13378,note_on,1,0,0,,10,,,69,127
13478,note_off,100,0,0,,10,,,69,127
13478,note_off,0,0,0,,10,,,57,127
13479,note_on,1,0,0,,12,,,59,127
13479,note_on,0,0,0,,7,,,67,127
13579,note_off,100,0,0,,7,,,67,127
13580,note_on,1,0,0,,12,,,71,127
13680,note_off,100,0,0,,12,,,71,127
13680,note_off,0,0,0,,12,,,59,127
13681,note_on,1,0,0,,6,,,54,127
13681,note_on,0,0,0,,10,,,69,127
13781,note_off,100,0,0,,10,,,69,127
13782,note_on,1,0,0,,0,,,72,127
13882,note_off,100,0,0,,0,,,72,127
13882,note_off,0,0,0,,6,,,54,127
13883,note_on,1,0,0,,7,,,55,127
13883,note_on,0,0,0,,12,,,71,127
13983,note_off,100,0,0,,12,,,71,127
13984,note_on,1,0,0,,10,,,69,127
14084,note_off,100,0,0,,10,,,69,127
14084,note_off,0,0,0,,7,,,55,127
14085,note_on,1,0,0,,2,,,50,127
14085,note_on,0,0,0,,7,,,67,127
14185,note_off,100,0,0,,7,,,67,127
14186,note_on,1,0,0,,6,,,66,127
14286,note_off,100,0,0,,6,,,66,127
14286,note_off,0,0,0,,2,,,50,127
14287,note_on,1,0,0,,4,,,52,127
14287,note_on,0,0,0,,7,,,67,127
14387,note_off,100,0,0,,7,,,67,127
14388,note_on,1,0,0,,10,,,69,127
14488,note_off,100,0,0,,10,,,69,127
14489,note_on,1,0,0,,12,,,71,127
14589,note_off,100,0,0,,12,,,71,127
14590,note_on,1,0,0,,1,,,73,127
14632,note_off,42,0,0,,4,,,52,127
14690,note_off,58,0,0,,1,,,73,127
14691,note_on,1,0,0,,2,,,38,127
14691,note_on,0,0,0,,2,,,74,127
14791,note_off,100,0,0,,2,,,74,127
14792,note_on,1,0,0,,10,,,69,127
14892,note_off,100,0,0,,10,,,69,127
14892,note_off,0,0,0,,2,,,38,127
14893,note_on,1,0,0,,2,,,50,127
14893,note_on,0,0,0,,6,,,66,127
14993,note_off,100,0,0,,6,,,66,127
14994,note_on,1,0,0,,2,,,62,127
15094,note_off,100,0,0,,2,,,62,127
15094,note_off,0,0,0,,2,,,50,127
15095,note_on,1,0,0,,7,,,55,127
15095,note_on,0,0,0,,12,,,71,127
15195,note_off,100,0,0,,12,,,71,127
15196,note_on,1,0,0,,7,,,67,127
15296,note_off,100,0,0,,7,,,67,127
15296,note_off,0,0,0,,7,,,55,127
15297,note_on,1,0,0,,4,,,52,127
15297,note_on,0,0,0,,1,,,73,127
15397,note_off,100,0,0,,1,,,73,127
15398,note_on,1,0,0,,10,,,69,127
15498,note_off,100,0,0,,10,,,69,127
15498,note_off,0,0,0,,4,,,52,127
15499,note_on,1,0,0,,2,,,38,127
15499,note_on,0,0,0,,2,,,74,127
15599,note_off,100,0,0,,2,,,74,127
15600,note_on,1,0,0,,10,,,69,127
15700,note_off,100,0,0,,10,,,69,127
15700,note_off,0,0,0,,2,,,38,127
15701,note_on,1,0,0,,2,,,50,127
15701,note_on,0,0,0,,6,,,66,127
15801,note_off,100,0,0,,6,,,66,127
15802,note_on,1,0,0,,2,,,62,127
15902,note_off,100,0,0,,2,,,62,127
15902,note_off,0,0,0,,2,,,50,127
15903,note_on,1,0,0,,7,,,55,127
15903,note_on,0,0,0,,12,,,71,127
16003,note_off,100,0,0,,12,,,71,127
16004,note_on,1,0,0,,7,,,67,127
16104,note_off,100,0,0,,7,,,67,127
16104,note_off,0,0,0,,7,,,55,127
16105,note_on,1,0,0,,4,,,52,127
16105,note_on,0,0,0,,1,,,73,127
16205,note_off,100,0,0,,1,,,73,127
16206,note_on,1,0,0,,10,,,69,127
16306,note_off,100,0,0,,10,,,69,127
16306,note_off,0,0,0,,4,,,52,127
16307,note_on,1,0,0,,2,,,38,127
16307,note_on,0,0,0,,2,,,74,127
16407,note_off,100,0,0,,2,,,74,127
16408,note_on,1,0,0,,10,,,69,127
16508,note_off,100,0,0,,10,,,69,127
16508,note_off,0,0,0,,2,,,38,127
16509,note_on,1,0,0,,2,,,50,127
16509,note_on,0,0,0,,6,,,66,127
16609,note_off,100,0,0,,6,,,66,127
16610,note_on,1,0,0,,2,,,62,127
16710,note_off,100,0,0,,2,,,62,127
16710,note_off,0,0,0,,2,,,50,127
16711,note_on,1,0,0,,7,,,55,127
16711,note_on,0,0,0,,12,,,71,127
16811,note_off,100,0,0,,12,,,71,127
16812,note_on,1,0,0,,7,,,67,127
16912,note_off,100,0,0,,7,,,67,127
16912,note_off,0,0,0,,7,,,55,127
16913,note_on,1,0,0,,4,,,52,127
16913,note_on,0,0,0,,1,,,73,127
17013,note_off,100,0,0,,1,,,73,127
17014,note_on,1,0,0,,10,,,69,127
17114,note_off,100,0,0,,4,,,52,127
17123,note_on,9,0,0,,2,,,38,127
17123,note_on,0,0,0,,2,,,74,127
17124,note_off,1,0,0,,10,,,69,127
17223,note_off,99,0,0,,2,,,74,127
17224,note_on,1,0,0,,10,,,69,127
17324,note_off,100,0,0,,10,,,69,127
17325,note_on,1,0,0,,6,,,66,127
17425,note_off,100,0,0,,6,,,66,127
17426,note_on,1,0,0,,10,,,69,127
17526,note_off,100,0,0,,10,,,69,127
17527,note_on,1,0,0,,2,,,62,127
17627,note_off,100,0,0,,2,,,62,127
17628,note_on,1,0,0,,6,,,66,127
17728,note_off,100,0,0,,6,,,66,127
17729,note_on,1,0,0,,10,,,57,127
17829,note_off,100,0,0,,10,,,57,127
17830,note_on,1,0,0,,2,,,62,127
17930,note_off,100,0,0,,2,,,62,127
17930,note_off,0,0,0,,2,,,38,127
17931,note_on,1,0,0,,6,,,54,127
18031,note_off,100,0,0,,6,,,54,127
18032,note_on,1,0,0,,10,,,57,127
18132,note_off,100,0,0,,10,,,57,127
18133,note_on,1,0,0,,2,,,50,127
18233,note_off,100,0,0,,2,,,50,127
18234,note_on,1,0,0,,6,,,54,127
18334,note_off,100,0,0,,6,,,54,127
18335,note_on,1,0,0,,10,,,45,127
18435,note_off,100,0,0,,10,,,45,127
18436,note_on,1,0,0,,2,,,50,127
18536,note_off,100,0,0,,2,,,50,127
18537,note_on,1,0,0,,6,,,42,127
18637,note_off,100,0,0,,6,,,42,127
18638,note_on,1,0,0,,10,,,45,127
18738,note_off,100,0,0,,10,,,45,127
18747,note_on,9,0,0,,2,,,38,127
19379,note_on,632,0,0,,3,,,75,127
19479,note_off,100,0,0,,3,,,75,127
19480,note_on,1,0,0,,2,,,74,127
19568,note_off,88,0,0,,2,,,38,127
19580,note_off,12,0,0,,2,,,74,127
19581,note_on,1,0,0,,0,,,72,127
19681,note_off,100,0,0,,0,,,72,127
19682,note_on,1,0,0,,11,,,70,127
19782,note_off,100,0,0,,11,,,70,127
19783,note_on,1,0,0,,3,,,63,127
19783,note_on,0,0,0,,10,,,69,127
19883,note_off,100,0,0,,10,,,69,127
19883,note_off,0,0,0,,3,,,63,127
19884,note_on,1,0,0,,2,,,62,127
19884,note_on,0,0,0,,7,,,67,127
19984,note_off,100,0,0,,7,,,67,127
19984,note_off,0,0,0,,2,,,62,127
19985,note_on,1,0,0,,0,,,60,127
19985,note_on,0,0,0,,6,,,66,127
20085,note_off,100,0,0,,6,,,66,127
20085,note_off,0,0,0,,0,,,60,127
20086,note_on,1,0,0,,11,,,58,127
20086,note_on,0,0,0,,7,,,67,127
20186,note_off,100,0,0,,7,,,67,127
20186,note_off,0,0,0,,11,,,58,127
20187,note_on,1,0,0,,10,,,57,127
20187,note_on,0,0,0,,10,,,69,127
20287,note_off,100,0,0,,10,,,69,127
20287,note_off,0,0,0,,10,,,57,127
20288,note_on,1,0,0,,7,,,55,127
20288,note_on,0,0,0,,11,,,70,127
20388,note_off,100,0,0,,11,,,70,127
20388,note_off,0,0,0,,7,,,55,127
20389,note_on,1,0,0,,6,,,54,127
20389,note_on,0,0,0,,0,,,72,127
20489,note_off,100,0,0,,0,,,72,127
20489,note_off,0,0,0,,6,,,54,127
20490,note_on,1,0,0,,7,,,55,127
20490,note_on,0,0,0,,11,,,70,127
20590,note_off,100,0,0,,11,,,70,127
20591,note_on,1,0,0,,1,,,73,127
20691,note_off,100,0,0,,7,,,55,127
20692,note_on,1,0,0,,7,,,43,127
20792,note_off,100,0,0,,1,,,73,127
20793,note_on,1,0,0,,2,,,74,127
20893,note_off,100,0,0,,7,,,43,127
20894,note_on,1,0,0,,2,,,38,127
20894,note_on,0,0,0,,10,,,69,127
20961,note_off,67,0,0,,2,,,74,127
20994,note_off,33,0,0,,10,,,69,127
20995,note_on,1,0,0,,3,,,75,127
21095,note_off,100,0,0,,3,,,75,127
21096,note_on,1,0,0,,2,,,74,127
21196,note_off,100,0,0,,2,,,74,127
21197,note_on,1,0,0,,0,,,72,127
21294,note_off,97,0,0,,2,,,38,127
21297,note_off,3,0,0,,0,,,72,127
21298,note_on,1,0,0,,11,,,70,127
21398,note_off,100,0,0,,11,,,70,127
21399,note_on,1,0,0,,3,,,63,127
21399,note_on,0,0,0,,10,,,69,127
21499,note_off,100,0,0,,10,,,69,127
21499,note_off,0,0,0,,3,,,63,127
21500,note_on,1,0,0,,2,,,62,127
21500,note_on,0,0,0,,7,,,67,127
21600,note_off,100,0,0,,7,,,67,127
21600,note_off,0,0,0,,2,,,62,127
21601,note_on,1,0,0,,0,,,60,127
21601,note_on,0,0,0,,6,,,66,127
21701,note_off,100,0,0,,6,,,66,127
21701,note_off,0,0,0,,0,,,60,127
21702,note_on,1,0,0,,11,,,58,127
21702,note_on,0,0,0,,7,,,67,127
21802,note_off,100,0,0,,7,,,67,127
21802,note_off,0,0,0,,11,,,58,127
21803,note_on,1,0,0,,10,,,57,127
21803,note_on,0,0,0,,10,,,69,127
21903,note_off,100,0,0,,10,,,69,127
21903,note_off,0,0,0,,10,,,57,127
21904,note_on,1,0,0,,7,,,55,127
21904,note_on,0,0,0,,11,,,70,127
22004,note_off,100,0,0,,11,,,70,127
22004,note_off,0,0,0,,7,,,55,127
22005,note_on,1,0,0,,6,,,54,127
22005,note_on,0,0,0,,0,,,72,127
22105,note_off,100,0,0,,0,,,72,127
22105,note_off,0,0,0,,6,,,54,127
22106,note_on,1,0,0,,7,,,55,127
22106,note_on,0,0,0,,11,,,70,127
22206,note_off,100,0,0,,11,,,70,127
22207,note_on,1,0,0,,1,,,73,127
22307,note_off,100,0,0,,7,,,55,127
22308,note_on,1,0,0,,7,,,43,127
22408,note_off,100,0,0,,1,,,73,127
22409,note_on,1,0,0,,2,,,74,127
22497,note_off,88,0,0,,2,,,74,127
22509,note_off,12,0,0,,7,,,43,127
22510,note_on,1,0,0,,2,,,38,127
22510,note_on,0,0,0,,10,,,69,127
22610,note_off,100,0,0,,10,,,69,127
22611,note_on,1,0,0,,11,,,82,127
22711,note_off,100,0,0,,11,,,82,127
22712,note_on,1,0,0,,10,,,81,127
22812,note_off,100,0,0,,10,,,81,127
22813,note_on,1,0,0,,7,,,79,127
22910,note_off,97,0,0,,2,,,38,127
22913,note_off,3,0,0,,7,,,79,127
22914,note_on,1,0,0,,6,,,78,127
23014,note_off,100,0,0,,6,,,78,127
23015,note_on,1,0,0,,3,,,75,127
23115,note_off,100,0,0,,3,,,75,127
23116,note_on,1,0,0,,2,,,74,127
23216,note_off,100,0,0,,2,,,74,127
23217,note_on,1,0,0,,0,,,72,127
23317,note_off,100,0,0,,0,,,72,127
23318,note_on,1,0,0,,12,,,71,127
23419,note_on,101,0,0,,8,,,68,127
23519,note_off,100,0,0,,8,,,68,127
23519,note_off,0,0,0,,12,,,71,127
23520,note_on,1,0,0,,7,,,67,127
23520,note_on,0,0,0,,12,,,71,127
23620,note_off,100,0,0,,7,,,67,127
23621,note_on,1,0,0,,5,,,65,127
23721,note_off,100,0,0,,5,,,65,127
23721,note_off,0,0,0,,12,,,71,127
23722,note_on,1,0,0,,3,,,63,127
23722,note_on,0,0,0,,0,,,72,127
23822,note_off,100,0,0,,3,,,63,127
23823,note_on,1,0,0,,2,,,62,127
23923,note_off,100,0,0,,2,,,62,127
23923,note_off,0,0,0,,0,,,72,127
23924,note_on,1,0,0,,0,,,60,127
23924,note_on,0,0,0,,2,,,74,127
24024,note_off,100,0,0,,0,,,60,127
24025,note_on,1,0,0,,12,,,59,127
24125,note_off,100,0,0,,12,,,59,127
24134,note_on,9,0,0,,0,,,36,127
24226,note_off,92,0,0,,2,,,74,127
24235,note_on,9,0,0,,3,,,75,127
24335,note_off,100,0,0,,3,,,75,127
24336,note_on,1,0,0,,2,,,74,127
24436,note_off,100,0,0,,2,,,74,127
24437,note_on,1,0,0,,0,,,72,127
24534,note_off,97,0,0,,0,,,36,127
24537,note_off,3,0,0,,0,,,72,127
24538,note_on,1,0,0,,11,,,70,127
24638,note_off,100,0,0,,11,,,70,127
24639,note_on,1,0,0,,10,,,69,127
24739,note_off,100,0,0,,10,,,69,127
24740,note_on,1,0,0,,0,,,48,127
24740,note_on,0,0,0,,7,,,67,127
24740,note_on,0,0,0,,3,,,75,127
24840,note_off,100,0,0,,7,,,67,127
24841,note_on,1,0,0,,6,,,66,127
24940,note_off,99,0,0,,3,,,75,127
24941,note_off,1,0,0,,6,,,66,127
24941,note_off,0,0,0,,0,,,48,127
24942,note_on,1,0,0,,11,,,46,127
24942,note_on,0,0,0,,7,,,67,127
24942,note_on,0,0,0,,2,,,74,127
25042,note_off,100,0,0,,2,,,74,127
25043,note_on,1,0,0,,0,,,72,127
25142,note_off,99,0,0,,7,,,67,127
25143,note_off,1,0,0,,0,,,72,127
25143,note_off,0,0,0,,11,,,46,127
25144,note_on,1,0,0,,0,,,48,127
25144,note_on,0,0,0,,11,,,70,127
25244,note_off,100,0,0,,11,,,70,127
25245,note_on,1,0,0,,10,,,69,127
25345,note_off,100,0,0,,10,,,69,127
25345,note_off,0,0,0,,0,,,48,127
25346,note_on,1,0,0,,2,,,50,127
25346,note_on,0,0,0,,11,,,70,127
25346,note_on,0,0,0,,2,,,74,127
25446,note_off,100,0,0,,11,,,70,127
25447,note_on,1,0,0,,7,,,67,127
25547,note_off,100,0,0,,7,,,67,127
25547,note_off,0,0,0,,2,,,50,127
25548,note_on,1,0,0,,2,,,38,127
25548,note_on,0,0,0,,10,,,69,127
25648,note_off,100,0,0,,10,,,69,127
25649,note_on,1,0,0,,6,,,66,127
25746,note_off,97,0,0,,2,,,74,127
25749,note_off,3,0,0,,6,,,66,127
25749,note_off,0,0,0,,2,,,38,127
25750,note_on,1,0,0,,7,,,43,127
25750,note_on,0,0,0,,7,,,67,127
25868,note_on,118,0,0,,3,,,75,127
25881,note_off,13,0,0,,7,,,67,127
25968,note_off,87,0,0,,3,,,75,127
25969,note_on,1,0,0,,2,,,74,127
26069,note_off,100,0,0,,2,,,74,127
26070,note_on,1,0,0,,0,,,72,127
26150,note_off,80,0,0,,7,,,43,127
26170,note_off,20,0,0,,0,,,72,127
26171,note_on,1,0,0,,11,,,70,127
26271,note_off,100,0,0,,11,,,70,127
26272,note_on,1,0,0,,10,,,69,127
26272,note_on,0,0,0,,3,,,63,127
26372,note_off,100,0,0,,3,,,63,127
26372,note_off,0,0,0,,10,,,69,127
26373,note_on,1,0,0,,7,,,67,127
26373,note_on,0,0,0,,2,,,62,127
26473,note_off,100,0,0,,2,,,62,127
26473,note_off,0,0,0,,7,,,67,127
26474,note_on,1,0,0,,6,,,66,127
26474,note_on,0,0,0,,0,,,60,127
26574,note_off,100,0,0,,0,,,60,127
26574,note_off,0,0,0,,6,,,66,127
26575,note_on,1,0,0,,7,,,67,127
26575,note_on,0,0,0,,11,,,58,127
26675,note_off,100,0,0,,11,,,58,127
26675,note_off,0,0,0,,7,,,67,127
26676,note_on,1,0,0,,10,,,69,127
26676,note_on,0,0,0,,10,,,57,127
26776,note_off,100,0,0,,10,,,57,127
26776,note_off,0,0,0,,10,,,69,127
26777,note_on,1,0,0,,11,,,70,127
26777,note_on,0,0,0,,7,,,55,127
26877,note_off,100,0,0,,7,,,55,127
26877,note_off,0,0,0,,11,,,70,127
26878,note_on,1,0,0,,0,,,72,127
26878,note_on,0,0,0,,6,,,54,127
26978,note_off,100,0,0,,6,,,54,127
26978,note_off,0,0,0,,0,,,72,127
26979,note_on,1,0,0,,11,,,70,127
26979,note_on,0,0,0,,7,,,55,127
27079,note_off,100,0,0,,11,,,70,127
27080,note_on,1,0,0,,1,,,73,127
27180,note_off,100,0,0,,7,,,55,127
27181,note_on,1,0,0,,7,,,43,127
27281,note_off,100,0,0,,1,,,73,127
27282,note_on,1,0,0,,2,,,74,127
27382,note_off,100,0,0,,2,,,74,127
27382,note_off,0,0,0,,7,,,43,127
27391,note_on,9,0,0,,10,,,69,127
27391,note_on,0,0,0,,2,,,38,127
27491,note_off,100,0,0,,10,,,69,127
27492,note_on,1,0,0,,3,,,75,127
27592,note_off,100,0,0,,3,,,75,127
27593,note_on,1,0,0,,2,,,74,127
27693,note_off,100,0,0,,2,,,74,127
27694,note_on,1,0,0,,0,,,72,127
27791,note_off,97,0,0,,2,,,38,127
27794,note_off,3,0,0,,0,,,72,127
27795,note_on,1,0,0,,11,,,70,127
27895,note_off,100,0,0,,11,,,70,127
27896,note_on,1,0,0,,10,,,69,127
27896,note_on,0,0,0,,3,,,63,127
27996,note_off,100,0,0,,3,,,63,127
27996,note_off,0,0,0,,10,,,69,127
27997,note_on,1,0,0,,7,,,67,127
27997,note_on,0,0,0,,2,,,62,127
28097,note_off,100,0,0,,2,,,62,127
28097,note_off,0,0,0,,7,,,67,127
28098,note_on,1,0,0,,6,,,66,127
28098,note_on,0,0,0,,0,,,60,127
28198,note_off,100,0,0,,0,,,60,127
28198,note_off,0,0,0,,6,,,66,127
28199,note_on,1,0,0,,7,,,67,127
28199,note_on,0,0,0,,11,,,58,127
28299,note_off,100,0,0,,11,,,58,127
28299,note_off,0,0,0,,7,,,67,127
28300,note_on,1,0,0,,10,,,69,127
28300,note_on,0,0,0,,10,,,57,127
28400,note_off,100,0,0,,10,,,57,127
28400,note_off,0,0,0,,10,,,69,127
28401,note_on,1,0,0,,11,,,70,127
28401,note_on,0,0,0,,7,,,55,127
28501,note_off,100,0,0,,7,,,55,127
28501,note_off,0,0,0,,11,,,70,127
28502,note_on,1,0,0,,0,,,72,127
28502,note_on,0,0,0,,6,,,54,127
28602,note_off,100,0,0,,6,,,54,127
28602,note_off,0,0,0,,0,,,72,127
28603,note_on,1,0,0,,11,,,70,127
28603,note_on,0,0,0,,7,,,55,127
28703,note_off,100,0,0,,11,,,70,127
28704,note_on,1,0,0,,1,,,73,127
28804,note_off,100,0,0,,7,,,55,127
28805,note_on,1,0,0,,7,,,43,127
28905,note_off,100,0,0,,1,,,73,127
28906,note_on,1,0,0,,2,,,74,127
29006,note_off,100,0,0,,2,,,74,127
29006,note_off,0,0,0,,7,,,43,127
29015,note_on,9,0,0,,10,,,69,127
29015,note_on,0,0,0,,2,,,38,127
29115,note_off,100,0,0,,10,,,69,127
29116,note_on,1,0,0,,11,,,82,127
29216,note_off,100,0,0,,11,,,82,127
29217,note_on,1,0,0,,10,,,81,127
29317,note_off,100,0,0,,10,,,81,127
29318,note_on,1,0,0,,7,,,79,127
29415,note_off,97,0,0,,2,,,38,127
29418,note_off,3,0,0,,7,,,79,127
29419,note_on,1,0,0,,6,,,78,127
29519,note_off,100,0,0,,6,,,78,127
29520,note_on,1,0,0,,3,,,75,127
29620,note_off,100,0,0,,3,,,75,127
29621,note_on,1,0,0,,2,,,74,127
29721,note_off,100,0,0,,2,,,74,127
29722,note_on,1,0,0,,0,,,72,127
29822,note_off,100,0,0,,0,,,72,127
29823,note_on,1,0,0,,12,,,71,127
29924,note_on,101,0,0,,8,,,68,127
30024,note_off,100,0,0,,8,,,68,127
30024,note_off,0,0,0,,12,,,71,127
30025,note_on,1,0,0,,12,,,71,127
30025,note_on,0,0,0,,7,,,67,127
30125,note_off,100,0,0,,7,,,67,127
30126,note_on,1,0,0,,5,,,65,127
30226,note_off,100,0,0,,5,,,65,127
30226,note_off,0,0,0,,12,,,71,127
30227,note_on,1,0,0,,0,,,72,127
30227,note_on,0,0,0,,3,,,63,127
30327,note_off,100,0,0,,3,,,63,127
30328,note_on,1,0,0,,2,,,62,127
30428,note_off,100,0,0,,2,,,62,127
30428,note_off,0,0,0,,0,,,72,127
30429,note_on,1,0,0,,2,,,74,127
30429,note_on,0,0,0,,0,,,60,127
30529,note_off,100,0,0,,0,,,60,127
30530,note_on,1,0,0,,12,,,59,127
30629,note_off,99,0,0,,12,,,59,127
30640,note_on,11,0,0,,0,,,36,127
30732,note_off,92,0,0,,2,,,74,127
30741,note_on,9,0,0,,3,,,75,127
30841,note_off,100,0,0,,3,,,75,127
30842,note_on,1,0,0,,2,,,74,127
30942,note_off,100,0,0,,2,,,74,127
30943,note_on,1,0,0,,0,,,72,127
31040,note_off,97,0,0,,0,,,36,127
31043,note_off,3,0,0,,0,,,72,127
31044,note_on,1,0,0,,11,,,70,127
31144,note_off,100,0,0,,11,,,70,127
31145,note_on,1,0,0,,10,,,69,127
31245,note_off,100,0,0,,10,,,69,127
31246,note_on,1,0,0,,3,,,75,127
31246,note_on,0,0,0,,7,,,67,127
31246,note_on,0,0,0,,0,,,48,127
31346,note_off,100,0,0,,7,,,67,127
31347,note_on,1,0,0,,6,,,66,127
31446,note_off,99,0,0,,3,,,75,127
31447,note_off,1,0,0,,6,,,66,127
31447,note_off,0,0,0,,0,,,48,127
31448,note_on,1,0,0,,7,,,67,127
31448,note_on,0,0,0,,2,,,74,127
31448,note_on,0,0,0,,11,,,46,127
31548,note_off,100,0,0,,2,,,74,127
31549,note_on,1,0,0,,0,,,72,127
31649,note_off,100,0,0,,0,,,72,127
31649,note_off,0,0,0,,11,,,46,127
31650,note_on,1,0,0,,11,,,70,127
31650,note_on,0,0,0,,0,,,48,127
31743,note_off,93,0,0,,7,,,67,127
31750,note_off,7,0,0,,11,,,70,127
31751,note_on,1,0,0,,10,,,69,127
31851,note_off,100,0,0,,10,,,69,127
31851,note_off,0,0,0,,0,,,48,127
31852,note_on,1,0,0,,2,,,74,127
31852,note_on,0,0,0,,11,,,70,127
31852,note_on,0,0,0,,2,,,50,127
31952,note_off,100,0,0,,11,,,70,127
31953,note_on,1,0,0,,7,,,67,127
32053,note_off,100,0,0,,7,,,67,127
32053,note_off,0,0,0,,2,,,50,127
32054,note_on,1,0,0,,10,,,69,127
32054,note_on,0,0,0,,2,,,38,127
32154,note_off,100,0,0,,10,,,69,127
32155,note_on,1,0,0,,6,,,66,127
32252,note_off,97,0,0,,2,,,74,127
32255,note_off,3,0,0,,6,,,66,127
32255,note_off,0,0,0,,2,,,38,127
32256,note_on,1,0,0,,7,,,67,127
32256,note_on,0,0,0,,7,,,43,127
32356,note_off,100,0,0,,7,,,43,127
32374,note_on,18,0,0,,0,,,60,127
32457,note_off,83,0,0,,7,,,67,127
32474,note_off,17,0,0,,0,,,60,127
32475,note_on,1,0,0,,12,,,59,127
32475,note_on,0,0,0,,7,,,67,127
32575,note_off,100,0,0,,12,,,59,127
32576,note_on,1,0,0,,10,,,57,127
32676,note_off,100,0,0,,10,,,57,127
32676,note_off,0,0,0,,7,,,67,127
32677,note_on,1,0,0,,7,,,55,127
32677,note_on,0,0,0,,7,,,67,127
32777,note_off,100,0,0,,7,,,55,127
32778,note_on,1,0,0,,6,,,54,127
32878,note_off,100,0,0,,6,,,54,127
32878,note_off,0,0,0,,7,,,67,127
32879,note_on,1,0,0,,4,,,52,127
32879,note_on,0,0,0,,7,,,67,127
32979,note_off,100,0,0,,4,,,52,127
32980,note_on,1,0,0,,2,,,50,127
33079,note_off,99,0,0,,7,,,67,127
33080,note_off,1,0,0,,2,,,50,127
33081,note_on,1,0,0,,0,,,36,127
33182,note_on,101,0,0,,6,,,78,127
33282,note_off,100,0,0,,6,,,78,127
33283,note_on,1,0,0,,4,,,76,127
33383,note_off,100,0,0,,4,,,76,127
33384,note_on,1,0,0,,2,,,74,127
33481,note_off,97,0,0,,0,,,36,127
33484,note_off,3,0,0,,2,,,74,127
33485,note_on,1,0,0,,0,,,72,127
33585,note_off,100,0,0,,0,,,72,127
33586,note_on,1,0,0,,12,,,71,127
33686,note_off,100,0,0,,12,,,71,127
33687,note_on,1,0,0,,10,,,69,127
33787,note_off,100,0,0,,10,,,69,127
33788,note_on,1,0,0,,8,,,68,127
33888,note_off,100,0,0,,8,,,68,127
33889,note_on,1,0,0,,10,,,69,127
33990,note_on,101,0,0,,2,,,62,127
34090,note_off,100,0,0,,2,,,62,127
34090,note_off,0,0,0,,10,,,69,127
34091,note_on,1,0,0,,0,,,60,127
34091,note_on,0,0,0,,10,,,69,127
34191,note_off,100,0,0,,0,,,60,127
34192,note_on,1,0,0,,12,,,59,127
34292,note_off,100,0,0,,12,,,59,127
34292,note_off,0,0,0,,10,,,69,127
34293,note_on,1,0,0,,10,,,57,127
34293,note_on,0,0,0,,10,,,69,127
34393,note_off,100,0,0,,10,,,57,127
34394,note_on,1,0,0,,7,,,55,127
34494,note_off,100,0,0,,7,,,55,127
34494,note_off,0,0,0,,10,,,69,127
34495,note_on,1,0,0,,6,,,54,127
34495,note_on,0,0,0,,10,,,69,127
34595,note_off,100,0,0,,6,,,54,127
34596,note_on,1,0,0,,4,,,52,127
34695,note_off,99,0,0,,10,,,69,127
34696,note_off,1,0,0,,4,,,52,127
34697,note_on,1,0,0,,2,,,38,127
34798,note_on,101,0,0,,12,,,83,127
34898,note_off,100,0,0,,12,,,83,127
34899,note_on,1,0,0,,10,,,81,127
34999,note_off,100,0,0,,10,,,81,127
35000,note_on,1,0,0,,7,,,79,127
35097,note_off,97,0,0,,2,,,38,127
35100,note_off,3,0,0,,7,,,79,127
35101,note_on,1,0,0,,6,,,78,127
35201,note_off,100,0,0,,6,,,78,127
35202,note_on,1,0,0,,4,,,76,127
35302,note_off,100,0,0,,4,,,76,127
35303,note_on,1,0,0,,2,,,74,127
35403,note_off,100,0,0,,2,,,74,127
35404,note_on,1,0,0,,1,,,73,127
35504,note_off,100,0,0,,1,,,73,127
35505,note_on,1,0,0,,2,,,74,127
35606,note_on,101,0,0,,4,,,64,127
35706,note_off,100,0,0,,4,,,64,127
35706,note_off,0,0,0,,2,,,74,127
35707,note_on,1,0,0,,2,,,62,127
35707,note_on,0,0,0,,2,,,74,127
35807,note_off,100,0,0,,2,,,62,127
35808,note_on,1,0,0,,0,,,60,127
35908,note_off,100,0,0,,0,,,60,127
35908,note_off,0,0,0,,2,,,74,127
35909,note_on,1,0,0,,12,,,59,127
35909,note_on,0,0,0,,2,,,74,127
36009,note_off,100,0,0,,12,,,59,127
36010,note_on,1,0,0,,10,,,57,127
36110,note_off,100,0,0,,10,,,57,127
36110,note_off,0,0,0,,2,,,74,127
36111,note_on,1,0,0,,7,,,55,127
36111,note_on,0,0,0,,2,,,74,127
36211,note_off,100,0,0,,7,,,55,127
36212,note_on,1,0,0,,6,,,54,127
36311,note_off,99,0,0,,2,,,74,127
36312,note_off,1,0,0,,6,,,54,127
36313,note_on,1,0,0,,7,,,31,127
36414,note_on,101,0,0,,4,,,76,127
36514,note_off,100,0,0,,4,,,76,127
36515,note_on,1,0,0,,2,,,74,127
36615,note_off,100,0,0,,2,,,74,127
36616,note_on,1,0,0,,0,,,72,127
36713,note_off,97,0,0,,7,,,31,127
36716,note_off,3,0,0,,0,,,72,127
36717,note_on,1,0,0,,12,,,71,127
36817,note_off,100,0,0,,12,,,71,127
36818,note_on,1,0,0,,10,,,69,127
36918,note_off,100,0,0,,10,,,69,127
36919,note_on,1,0,0,,12,,,47,127
36919,note_on,0,0,0,,7,,,67,127
36919,note_on,0,0,0,,2,,,74,127
37019,note_off,100,0,0,,7,,,67,127
37020,note_on,1,0,0,,6,,,66,127
37120,note_off,100,0,0,,6,,,66,127
37120,note_off,0,0,0,,12,,,47,127
37121,note_on,1,0,0,,0,,,48,127
37121,note_on,0,0,0,,4,,,64,127
37214,note_off,93,0,0,,2,,,74,127
37221,note_off,7,0,0,,4,,,64,127
37222,note_on,1,0,0,,0,,,72,127
37322,note_off,100,0,0,,0,,,72,127
37322,note_off,0,0,0,,0,,,48,127
37323,note_on,1,0,0,,0,,,36,127
37323,note_on,0,0,0,,12,,,71,127
37423,note_off,100,0,0,,12,,,71,127
37424,note_on,1,0,0,,10,,,69,127
37524,note_off,100,0,0,,10,,,69,127
37524,note_off,0,0,0,,0,,,36,127
37525,note_on,1,0,0,,2,,,50,127
37525,note_on,0,0,0,,12,,,71,127
37525,note_on,0,0,0,,2,,,74,127
37625,note_off,100,0,0,,12,,,71,127
37626,note_on,1,0,0,,7,,,67,127
37726,note_off,100,0,0,,7,,,67,127
37730,note_on,4,0,0,,10,,,69,127
37730,note_on,0,0,0,,2,,,38,127
37777,note_off,47,0,0,,2,,,50,127
37830,note_off,53,0,0,,10,,,69,127
37835,note_on,5,0,0,,6,,,66,127
37924,note_off,89,0,0,,2,,,74,127
37939,note_off,15,0,0,,2,,,38,127
37941,note_off,2,0,0,,6,,,66,127
37945,note_on,4,0,0,,7,,,67,127
37945,note_on,0,0,0,,7,,,43,127
38045,note_off,100,0,0,,7,,,43,127
38046,note_on,1,0,0,,0,,,60,127
38146,note_off,100,0,0,,0,,,60,127
38146,note_off,0,0,0,,7,,,67,127
38147,note_on,1,0,0,,7,,,67,127
38147,note_on,0,0,0,,12,,,59,127
38247,note_off,100,0,0,,12,,,59,127
38248,note_on,1,0,0,,10,,,57,127
38348,note_off,100,0,0,,10,,,57,127
38348,note_off,0,0,0,,7,,,67,127
38349,note_on,1,0,0,,7,,,67,127
38349,note_on,0,0,0,,7,,,55,127
38449,note_off,100,0,0,,7,,,55,127
38450,note_on,1,0,0,,6,,,54,127
38550,note_off,100,0,0,,6,,,54,127
38550,note_off,0,0,0,,7,,,67,127
38551,note_on,1,0,0,,7,,,67,127
38551,note_on,0,0,0,,4,,,52,127
38651,note_off,100,0,0,,4,,,52,127
38652,note_on,1,0,0,,2,,,50,127
38751,note_off,99,0,0,,7,,,67,127
38752,note_off,1,0,0,,2,,,50,127
38770,note_on,18,0,0,,0,,,36,127
38871,note_on,101,0,0,,6,,,78,127
38971,note_off,100,0,0,,6,,,78,127
38972,note_on,1,0,0,,4,,,76,127
39072,note_off,100,0,0,,4,,,76,127
39073,note_on,1,0,0,,2,,,74,127
39170,note_off,97,0,0,,0,,,36,127
39173,note_off,3,0,0,,2,,,74,127
39174,note_on,1,0,0,,0,,,72,127
39274,note_off,100,0,0,,0,,,72,127
39275,note_on,1,0,0,,12,,,71,127
39375,note_off,100,0,0,,12,,,71,127
39376,note_on,1,0,0,,10,,,69,127
39476,note_off,100,0,0,,10,,,69,127
39477,note_on,1,0,0,,8,,,68,127
39577,note_off,100,0,0,,8,,,68,127
39578,note_on,1,0,0,,10,,,69,127
39679,note_on,101,0,0,,2,,,62,127
39779,note_off,100,0,0,,2,,,62,127
39779,note_off,0,0,0,,10,,,69,127
39780,note_on,1,0,0,,0,,,60,127
39780,note_on,0,0,0,,10,,,69,127
39880,note_off,100,0,0,,0,,,60,127
39881,note_on,1,0,0,,12,,,59,127
39981,note_off,100,0,0,,12,,,59,127
39981,note_off,0,0,0,,10,,,69,127
39982,note_on,1,0,0,,10,,,57,127
39982,note_on,0,0,0,,10,,,69,127
40082,note_off,100,0,0,,10,,,57,127
40083,note_on,1,0,0,,7,,,55,127
40183,note_off,100,0,0,,7,,,55,127
40183,note_off,0,0,0,,10,,,69,127
40184,note_on,1,0,0,,6,,,54,127
40184,note_on,0,0,0,,10,,,69,127
40284,note_off,100,0,0,,6,,,54,127
40285,note_on,1,0,0,,4,,,52,127
40384,note_off,99,0,0,,10,,,69,127
40385,note_off,1,0,0,,4,,,52,127
40403,note_on,18,0,0,,2,,,38,127
40504,note_on,101,0,0,,12,,,83,127
40604,note_off,100,0,0,,12,,,83,127
40605,note_on,1,0,0,,10,,,81,127
40705,note_off,100,0,0,,10,,,81,127
40706,note_on,1,0,0,,7,,,79,127
40803,note_off,97,0,0,,2,,,38,127
40806,note_off,3,0,0,,7,,,79,127
40807,note_on,1,0,0,,6,,,78,127
40907,note_off,100,0,0,,6,,,78,127
40908,note_on,1,0,0,,4,,,76,127
41008,note_off,100,0,0,,4,,,76,127
41009,note_on,1,0,0,,2,,,74,127
41109,note_off,100,0,0,,2,,,74,127
41110,note_on,1,0,0,,1,,,73,127
41210,note_off,100,0,0,,1,,,73,127
41211,note_on,1,0,0,,2,,,74,127
41312,note_on,101,0,0,,4,,,64,127
41412,note_off,100,0,0,,4,,,64,127
41412,note_off,0,0,0,,2,,,74,127
41413,note_on,1,0,0,,2,,,74,127
41413,note_on,0,0,0,,2,,,62,127
41513,note_off,100,0,0,,2,,,62,127
41514,note_on,1,0,0,,0,,,60,127
41614,note_off,100,0,0,,0,,,60,127
41614,note_off,0,0,0,,2,,,74,127
41615,note_on,1,0,0,,2,,,74,127
41615,note_on,0,0,0,,12,,,59,127
41715,note_off,100,0,0,,12,,,59,127
41716,note_on,1,0,0,,10,,,57,127
41816,note_off,100,0,0,,10,,,57,127
41816,note_off,0,0,0,,2,,,74,127
41817,note_on,1,0,0,,2,,,74,127
41817,note_on,0,0,0,,7,,,55,127
41917,note_off,100,0,0,,7,,,55,127
41918,note_on,1,0,0,,6,,,54,127
42017,note_off,99,0,0,,2,,,74,127
42018,note_off,1,0,0,,6,,,54,127
42036,note_on,18,0,0,,7,,,31,127
42137,note_on,101,0,0,,4,,,76,127
42237,note_off,100,0,0,,4,,,76,127
42238,note_on,1,0,0,,2,,,74,127
42338,note_off,100,0,0,,2,,,74,127
42339,note_on,1,0,0,,0,,,72,127
42436,note_off,97,0,0,,7,,,31,127
42439,note_off,3,0,0,,0,,,72,127
42440,note_on,1,0,0,,12,,,71,127
42540,note_off,100,0,0,,12,,,71,127
42541,note_on,1,0,0,,10,,,69,127
42641,note_off,100,0,0,,10,,,69,127
42642,note_on,1,0,0,,12,,,47,127
42642,note_on,0,0,0,,7,,,67,127
42642,note_on,0,0,0,,2,,,74,127
42742,note_off,100,0,0,,7,,,67,127
42743,note_on,1,0,0,,6,,,66,127
42843,note_off,100,0,0,,6,,,66,127
42843,note_off,0,0,0,,12,,,47,127
42844,note_on,1,0,0,,0,,,48,127
42844,note_on,0,0,0,,4,,,64,127
42937,note_off,93,0,0,,2,,,74,127
42945,note_on,8,0,0,,0,,,72,127
43044,note_off,99,0,0,,4,,,64,127
43045,note_off,1,0,0,,0,,,72,127
43046,note_on,1,0,0,,0,,,36,127
43046,note_on,0,0,0,,12,,,71,127
43146,note_off,100,0,0,,12,,,71,127
43147,note_on,1,0,0,,10,,,69,127
43202,note_off,55,0,0,,0,,,48,127
43247,note_off,45,0,0,,10,,,69,127
43247,note_off,0,0,0,,0,,,36,127
43248,note_on,1,0,0,,2,,,50,127
43248,note_on,0,0,0,,12,,,71,127
43248,note_on,0,0,0,,2,,,74,127
43348,note_off,100,0,0,,12,,,71,127
43349,note_on,1,0,0,,7,,,67,127
43449,note_off,100,0,0,,7,,,67,127
43450,note_on,1,0,0,,2,,,38,127
43450,note_on,0,0,0,,10,,,69,127
43550,note_off,100,0,0,,10,,,69,127
43551,note_on,1,0,0,,6,,,66,127
43606,note_off,55,0,0,,2,,,50,127
43648,note_off,42,0,0,,2,,,74,127
43651,note_off,3,0,0,,6,,,66,127
43651,note_off,0,0,0,,2,,,38,127
43652,note_on,1,0,0,,7,,,43,127
43652,note_on,0,0,0,,7,,,67,127
43752,note_off,100,0,0,,7,,,67,127
43753,note_on,1,0,0,,6,,,78,127
43853,note_off,100,0,0,,6,,,78,127
43853,note_off,0,0,0,,7,,,43,127
43854,note_on,1,0,0,,7,,,67,127
43854,note_on,0,0,0,,7,,,79,127
43954,note_off,100,0,0,,7,,,79,127
43955,note_on,1,0,0,,4,,,76,127
44055,note_off,100,0,0,,4,,,76,127
44055,note_off,0,0,0,,7,,,67,127
44056,note_on,1,0,0,,6,,,66,127
44056,note_on,0,0,0,,10,,,81,127
44056,note_on,0,0,0,,2,,,74,127
44151,note_off,95,0,0,,2,,,74,127
44157,note_on,6,0,0,,2,,,74,127
44252,note_off,95,0,0,,2,,,74,127
44257,note_off,5,0,0,,6,,,66,127
44258,note_on,1,0,0,,2,,,62,127
44258,note_on,0,0,0,,2,,,74,127
44358,note_off,100,0,0,,2,,,74,127
44359,note_on,1,0,0,,0,,,72,127
44456,note_off,97,0,0,,10,,,81,127
44459,note_off,3,0,0,,0,,,72,127
44459,note_off,0,0,0,,2,,,62,127
44468,note_on,9,0,0,,7,,,43,127
44468,note_on,0,0,0,,12,,,71,127
44568,note_off,100,0,0,,12,,,71,127
44569,note_on,1,0,0,,6,,,78,127
44669,note_off,100,0,0,,6,,,78,127
44669,note_off,0,0,0,,7,,,43,127
44670,note_on,1,0,0,,7,,,67,127
44670,note_on,0,0,0,,7,,,79,127
44770,note_off,100,0,0,,7,,,79,127
44771,note_on,1,0,0,,4,,,76,127
44871,note_off,100,0,0,,4,,,76,127
44871,note_off,0,0,0,,7,,,67,127
44872,note_on,1,0,0,,6,,,66,127
44872,note_on,0,0,0,,10,,,81,127
44872,note_on,0,0,0,,2,,,74,127
44967,note_off,95,0,0,,2,,,74,127
44973,note_on,6,0,0,,2,,,74,127
45068,note_off,95,0,0,,2,,,74,127
45073,note_off,5,0,0,,6,,,66,127
45074,note_on,1,0,0,,2,,,62,127
45074,note_on,0,0,0,,2,,,74,127
45174,note_off,100,0,0,,2,,,74,127
45175,note_on,1,0,0,,0,,,72,127
45272,note_off,97,0,0,,10,,,81,127
45275,note_off,3,0,0,,2,,,62,127
45276,note_off,1,0,0,,0,,,72,127
45284,note_on,8,0,0,,7,,,43,127
45284,note_on,0,0,0,,12,,,71,127
45384,note_off,100,0,0,,12,,,71,127
45385,note_on,1,0,0,,6,,,78,127
45485,note_off,100,0,0,,6,,,78,127
45485,note_off,0,0,0,,7,,,43,127
45486,note_on,1,0,0,,7,,,67,127
45486,note_on,0,0,0,,7,,,79,127
45586,note_off,100,0,0,,7,,,79,127
45587,note_on,1,0,0,,4,,,76,127
45687,note_off,100,0,0,,4,,,76,127
45687,note_off,0,0,0,,7,,,67,127
45688,note_on,1,0,0,,6,,,66,127
45688,note_on,0,0,0,,10,,,81,127
45688,note_on,0,0,0,,2,,,74,127
45783,note_off,95,0,0,,2,,,74,127
45789,note_on,6,0,0,,2,,,74,127
45884,note_off,95,0,0,,2,,,74,127
45889,note_off,5,0,0,,6,,,66,127
45890,note_on,1,0,0,,2,,,62,127
45890,note_on,0,0,0,,2,,,74,127
45983,note_off,93,0,0,,10,,,81,127
45990,note_off,7,0,0,,2,,,74,127
45991,note_on,1,0,0,,0,,,72,127
46091,note_off,100,0,0,,0,,,72,127
46091,note_off,0,0,0,,2,,,62,127
46092,note_on,1,0,0,,7,,,67,127
46092,note_on,0,0,0,,12,,,71,127
46192,note_off,100,0,0,,12,,,71,127
46193,note_on,1,0,0,,2,,,74,127
46293,note_off,100,0,0,,2,,,74,127
46293,note_off,0,0,0,,7,,,67,127
46294,note_on,1,0,0,,0,,,60,127
46294,note_on,0,0,0,,0,,,72,127
46394,note_off,100,0,0,,0,,,72,127
46395,note_on,1,0,0,,4,,,76,127
46495,note_off,100,0,0,,4,,,76,127
46495,note_off,0,0,0,,0,,,60,127
46496,note_on,1,0,0,,2,,,62,127
46496,note_on,0,0,0,,2,,,74,127
46596,note_off,100,0,0,,2,,,74,127
46597,note_on,1,0,0,,0,,,72,127
46697,note_off,100,0,0,,0,,,72,127
46697,note_off,0,0,0,,2,,,62,127
46698,note_on,1,0,0,,2,,,50,127
46698,note_on,0,0,0,,12,,,71,127
46798,note_off,100,0,0,,12,,,71,127
46799,note_on,1,0,0,,10,,,69,127
46899,note_off,100,0,0,,10,,,69,127
46899,note_off,0,0,0,,2,,,50,127
46900,note_on,1,0,0,,7,,,43,127
46900,note_on,0,0,0,,7,,,67,127
47009,note_off,109,0,0,,7,,,67,127
47009,note_on,0,0,0,,6,,,66,127
47101,note_off,92,0,0,,7,,,43,127
47109,note_off,8,0,0,,6,,,66,127
47110,note_on,1,0,0,,7,,,55,127
47110,note_on,0,0,0,,7,,,67,127
47210,note_off,100,0,0,,7,,,67,127
47211,note_on,1,0,0,,4,,,64,127
47311,note_off,100,0,0,,4,,,64,127
47311,note_off,0,0,0,,7,,,55,127
47312,note_on,1,0,0,,6,,,54,127
47312,note_on,0,0,0,,2,,,62,127
47312,note_on,0,0,0,,10,,,69,127
47407,note_off,95,0,0,,2,,,62,127
47413,note_on,6,0,0,,2,,,62,127
47508,note_off,95,0,0,,2,,,62,127
47513,note_off,5,0,0,,6,,,54,127
47514,note_on,1,0,0,,2,,,50,127
47514,note_on,0,0,0,,2,,,62,127
47614,note_off,100,0,0,,2,,,62,127
47615,note_on,1,0,0,,0,,,60,127
47712,note_off,97,0,0,,10,,,69,127
47715,note_off,3,0,0,,0,,,60,127
47715,note_off,0,0,0,,2,,,50,127
47724,note_on,9,0,0,,7,,,43,127
47724,note_on,0,0,0,,12,,,59,127
47824,note_off,100,0,0,,12,,,59,127
47825,note_on,1,0,0,,6,,,66,127
47925,note_off,100,0,0,,6,,,66,127
47925,note_off,0,0,0,,7,,,43,127
47926,note_on,1,0,0,,7,,,55,127
47926,note_on,0,0,0,,7,,,67,127
48026,note_off,100,0,0,,7,,,67,127
48027,note_on,1,0,0,,4,,,64,127
48127,note_off,100,0,0,,4,,,64,127
48127,note_off,0,0,0,,7,,,55,127
48128,note_on,1,0,0,,6,,,54,127
48128,note_on,0,0,0,,2,,,62,127
48128,note_on,0,0,0,,10,,,69,127
48223,note_off,95,0,0,,2,,,62,127
48229,note_on,6,0,0,,2,,,62,127
48324,note_off,95,0,0,,2,,,62,127
48329,note_off,5,0,0,,6,,,54,127
48330,note_on,1,0,0,,2,,,50,127
48330,note_on,0,0,0,,2,,,62,127
48430,note_off,100,0,0,,2,,,62,127
48431,note_on,1,0,0,,0,,,60,127
48528,note_off,97,0,0,,10,,,69,127
48531,note_off,3,0,0,,0,,,60,127
48531,note_off,0,0,0,,2,,,50,127
48540,note_on,9,0,0,,7,,,43,127
48540,note_on,0,0,0,,12,,,59,127
48640,note_off,100,0,0,,12,,,59,127
48641,note_on,1,0,0,,6,,,66,127
48741,note_off,100,0,0,,6,,,66,127
48741,note_off,0,0,0,,7,,,43,127
48742,note_on,1,0,0,,7,,,55,127
48742,note_on,0,0,0,,7,,,67,127
48842,note_off,100,0,0,,7,,,67,127
48843,note_on,1,0,0,,4,,,64,127
48943,note_off,100,0,0,,4,,,64,127
48943,note_off,0,0,0,,7,,,55,127
48944,note_on,1,0,0,,6,,,54,127
48944,note_on,0,0,0,,2,,,62,127
48944,note_on,0,0,0,,10,,,69,127
49039,note_off,95,0,0,,2,,,62,127
49045,note_on,6,0,0,,2,,,62,127
49140,note_off,95,0,0,,2,,,62,127
49145,note_off,5,0,0,,6,,,54,127
49146,note_on,1,0,0,,2,,,50,127
49146,note_on,0,0,0,,2,,,62,127
49239,note_off,93,0,0,,10,,,69,127
49246,note_off,7,0,0,,2,,,62,127
49247,note_on,1,0,0,,0,,,60,127
49347,note_off,100,0,0,,0,,,60,127
49347,note_off,0,0,0,,2,,,50,127
49348,note_on,1,0,0,,7,,,55,127
49348,note_on,0,0,0,,12,,,59,127
49448,note_off,100,0,0,,12,,,59,127
49449,note_on,1,0,0,,2,,,62,127
49549,note_off,100,0,0,,2,,,62,127
49549,note_off,0,0,0,,7,,,55,127
49550,note_on,1,0,0,,0,,,48,127
49550,note_on,0,0,0,,0,,,60,127
49650,note_off,100,0,0,,0,,,60,127
49651,note_on,1,0,0,,4,,,64,127
49751,note_off,100,0,0,,4,,,64,127
49751,note_off,0,0,0,,0,,,48,127
49752,note_on,1,0,0,,2,,,50,127
49752,note_on,0,0,0,,2,,,62,127
49852,note_off,100,0,0,,2,,,62,127
49853,note_on,1,0,0,,0,,,60,127
49953,note_off,100,0,0,,0,,,60,127
49953,note_off,0,0,0,,2,,,50,127
49954,note_on,1,0,0,,2,,,38,127
49954,note_on,0,0,0,,12,,,59,127
50054,note_off,100,0,0,,12,,,59,127
50055,note_on,1,0,0,,10,,,57,127
50155,note_off,100,0,0,,10,,,57,127
50155,note_off,0,0,0,,2,,,38,127
50156,note_on,1,0,0,,7,,,43,127
50156,note_on,0,0,0,,7,,,55,127
50256,note_off,100,0,0,,7,,,55,127
50257,note_on,1,0,0,,12,,,59,127
50357,note_off,100,0,0,,12,,,59,127
50358,note_on,1,0,0,,7,,,55,127
50458,note_off,100,0,0,,7,,,55,127
50459,note_on,1,0,0,,2,,,62,127
50559,note_off,100,0,0,,2,,,62,127
50559,note_off,0,0,0,,7,,,43,127
50560,note_on,1,0,0,,7,,,43,127
50560,note_on,0,0,0,,12,,,59,127
50660,note_off,100,0,0,,12,,,59,127
50661,note_on,1,0,0,,7,,,67,127
50761,note_off,100,0,0,,7,,,67,127
50762,note_on,1,0,0,,2,,,62,127
50862,note_off,100,0,0,,2,,,62,127
50863,note_on,1,0,0,,12,,,71,127
50963,note_off,100,0,0,,12,,,71,127
50963,note_off,0,0,0,,7,,,43,127
50964,note_on,1,0,0,,7,,,43,127
50964,note_on,0,0,0,,7,,,67,127
51064,note_off,100,0,0,,7,,,67,127
51065,note_on,1,0,0,,2,,,74,127
51165,note_off,100,0,0,,2,,,74,127
51166,note_on,1,0,0,,12,,,71,127
51266,note_off,100,0,0,,12,,,71,127
51267,note_on,1,0,0,,7,,,79,127
51367,note_off,100,0,0,,7,,,79,127
51367,note_off,0,0,0,,7,,,43,127
51368,note_on,1,0,0,,7,,,43,127
51368,note_on,0,0,0,,2,,,74,127
51468,note_off,100,0,0,,2,,,74,127
51469,note_on,1,0,0,,2,,,86,127
51569,note_off,100,0,0,,2,,,86,127
51570,note_on,1,0,0,,12,,,83,127
51670,note_off,100,0,0,,12,,,83,127
51671,note_on,1,0,0,,2,,,74,127
51771,note_off,100,0,0,,2,,,74,127
51771,note_off,0,0,0,,7,,,43,127
51772,note_on,1,0,0,,7,,,43,127
51772,note_on,0,0,0,,7,,,79,127
52377,note_off,605,0,0,,7,,,79,127
52579,note_off,202,0,0,,7,,,43,127
52656,note_on,77,0,0,,7,,,55,127
52757,note_on,101,0,0,,2,,,62,127
52857,note_off,100,0,0,,2,,,62,127
52858,note_on,1,0,0,,11,,,58,127
52958,note_off,100,0,0,,11,,,58,127
52959,note_on,1,0,0,,0,,,60,127
53056,note_off,97,0,0,,7,,,55,127
53059,note_off,3,0,0,,0,,,60,127
53060,note_on,1,0,0,,2,,,62,127
53160,note_off,100,0,0,,2,,,62,127
53161,note_on,1,0,0,,4,,,64,127
53261,note_off,100,0,0,,4,,,64,127
53262,note_on,1,0,0,,5,,,65,127
53362,note_off,100,0,0,,5,,,65,127
53363,note_on,1,0,0,,7,,,67,127
53463,note_off,100,0,0,,7,,,67,127
53464,note_on,1,0,0,,10,,,69,127
53565,note_on,101,0,0,,10,,,57,127
53665,note_off,100,0,0,,10,,,57,127
53665,note_off,0,0,0,,10,,,69,127
53666,note_on,1,0,0,,10,,,69,127
53666,note_on,0,0,0,,5,,,53,127
53766,note_off,100,0,0,,5,,,53,127
53767,note_on,1,0,0,,7,,,55,127
53867,note_off,100,0,0,,7,,,55,127
53867,note_off,0,0,0,,10,,,69,127
53868,note_on,1,0,0,,10,,,69,127
53868,note_on,0,0,0,,10,,,57,127
53968,note_off,100,0,0,,10,,,57,127
53969,note_on,1,0,0,,12,,,59,127
54069,note_off,100,0,0,,12,,,59,127
54069,note_off,0,0,0,,10,,,69,127
54070,note_on,1,0,0,,10,,,69,127
54070,note_on,0,0,0,,0,,,60,127
54170,note_off,100,0,0,,0,,,60,127
54171,note_on,1,0,0,,2,,,62,127
54271,note_off,100,0,0,,2,,,62,127
54271,note_off,0,0,0,,10,,,69,127
54280,note_on,9,0,0,,7,,,67,127
54280,note_on,0,0,0,,4,,,64,127
54380,note_off,100,0,0,,7,,,67,127
54381,note_on,1,0,0,,0,,,72,127
54481,note_off,100,0,0,,0,,,72,127
54482,note_on,1,0,0,,7,,,67,127
54582,note_off,100,0,0,,7,,,67,127
54583,note_off,1,0,0,,4,,,64,127
54583,note_on,0,0,0,,10,,,69,127
54683,note_off,100,0,0,,10,,,69,127
54684,note_on,1,0,0,,12,,,71,127
54784,note_off,100,0,0,,12,,,71,127
54785,note_on,1,0,0,,0,,,72,127
54885,note_off,100,0,0,,0,,,72,127
54886,note_on,1,0,0,,2,,,74,127
54986,note_off,100,0,0,,2,,,74,127
54987,note_on,1,0,0,,4,,,76,127
55087,note_off,100,0,0,,4,,,76,127
55088,note_on,1,0,0,,5,,,77,127
55189,note_on,101,0,0,,5,,,65,127
55289,note_off,100,0,0,,5,,,65,127
55289,note_off,0,0,0,,5,,,77,127
55290,note_on,1,0,0,,5,,,77,127
55290,note_on,0,0,0,,2,,,62,127
55390,note_off,100,0,0,,2,,,62,127
55391,note_on,1,0,0,,4,,,64,127
55491,note_off,100,0,0,,4,,,64,127
55491,note_off,0,0,0,,5,,,77,127
55492,note_on,1,0,0,,5,,,77,127
55492,note_on,0,0,0,,5,,,65,127
55592,note_off,100,0,0,,5,,,65,127
55593,note_on,1,0,0,,7,,,67,127
55693,note_off,100,0,0,,7,,,67,127
55693,note_off,0,0,0,,5,,,77,127
55694,note_on,1,0,0,,5,,,77,127
55694,note_on,0,0,0,,10,,,69,127
55794,note_off,100,0,0,,10,,,69,127
55795,note_on,1,0,0,,12,,,71,127
55895,note_off,100,0,0,,12,,,71,127
55895,note_off,0,0,0,,5,,,77,127
55904,note_on,9,0,0,,4,,,76,127
55904,note_on,0,0,0,,0,,,72,127
56004,note_off,100,0,0,,4,,,76,127
56005,note_on,1,0,0,,7,,,79,127
56105,note_off,100,0,0,,7,,,79,127
56105,note_off,0,0,0,,0,,,72,127
56106,note_on,1,0,0,,0,,,72,127
56207,note_on,101,0,0,,2,,,74,127
56307,note_off,100,0,0,,2,,,74,127
56307,note_off,0,0,0,,0,,,72,127
56308,note_on,1,0,0,,4,,,76,127
56308,note_on,0,0,0,,0,,,72,127
56408,note_off,100,0,0,,4,,,76,127
56409,note_on,1,0,0,,5,,,77,127
56509,note_off,100,0,0,,5,,,77,127
56509,note_off,0,0,0,,0,,,72,127
56510,note_on,1,0,0,,7,,,79,127
56510,note_on,0,0,0,,0,,,72,127
56610,note_off,100,0,0,,7,,,79,127
56611,note_on,1,0,0,,10,,,81,127
56711,note_off,100,0,0,,10,,,81,127
56711,note_off,0,0,0,,0,,,72,127
56712,note_on,1,0,0,,11,,,82,127
56712,note_on,0,0,0,,7,,,67,127
56812,note_off,100,0,0,,11,,,82,127
56813,note_on,1,0,0,,11,,,82,127
56913,note_off,100,0,0,,11,,,82,127
56914,note_on,1,0,0,,10,,,81,127
57014,note_off,100,0,0,,10,,,81,127
57015,note_on,1,0,0,,7,,,79,127
57115,note_off,100,0,0,,7,,,79,127
57115,note_off,0,0,0,,7,,,67,127
57116,note_on,1,0,0,,5,,,77,127
57116,note_on,0,0,0,,10,,,69,127
57216,note_off,100,0,0,,5,,,77,127
57217,note_on,1,0,0,,4,,,76,127
57317,note_off,100,0,0,,4,,,76,127
57318,note_on,1,0,0,,2,,,74,127
57418,note_off,100,0,0,,2,,,74,127
57419,note_on,1,0,0,,1,,,73,127
57519,note_off,100,0,0,,1,,,73,127
57519,note_off,0,0,0,,10,,,69,127
57524,note_on,5,0,0,,2,,,74,127
57524,note_on,0,0,0,,11,,,70,127
57624,note_off,100,0,0,,11,,,70,127
57629,note_on,5,0,0,,11,,,70,127
57725,note_off,96,0,0,,2,,,74,127
57729,note_off,4,0,0,,11,,,70,127
57730,note_on,1,0,0,,2,,,74,127
57730,note_on,0,0,0,,10,,,69,127
57830,note_off,100,0,0,,10,,,69,127
57831,note_on,1,0,0,,7,,,67,127
57931,note_off,100,0,0,,7,,,67,127
57931,note_off,0,0,0,,2,,,74,127
57932,note_on,1,0,0,,2,,,74,127
57932,note_on,0,0,0,,5,,,65,127
58032,note_off,100,0,0,,5,,,65,127
58033,note_on,1,0,0,,4,,,64,127
58133,note_off,100,0,0,,4,,,64,127
58133,note_off,0,0,0,,2,,,74,127
58134,note_on,1,0,0,,4,,,76,127
58134,note_on,0,0,0,,2,,,62,127
58234,note_off,100,0,0,,2,,,62,127
58235,note_on,1,0,0,,1,,,61,127
58335,note_off,100,0,0,,1,,,61,127
58335,note_off,0,0,0,,4,,,76,127
58344,note_on,9,0,0,,5,,,77,127
58344,note_on,0,0,0,,2,,,62,127
58444,note_off,100,0,0,,5,,,77,127
58445,note_on,1,0,0,,5,,,77,127
58545,note_off,100,0,0,,5,,,77,127
58546,note_on,1,0,0,,4,,,76,127
58646,note_off,100,0,0,,4,,,76,127
58647,note_on,1,0,0,,2,,,74,127
58747,note_off,100,0,0,,2,,,74,127
58747,note_off,0,0,0,,2,,,62,127
58748,note_on,1,0,0,,0,,,72,127
58748,note_on,0,0,0,,4,,,64,127
58848,note_off,100,0,0,,0,,,72,127
58849,note_on,1,0,0,,12,,,71,127
58949,note_off,100,0,0,,12,,,71,127
58950,note_on,1,0,0,,10,,,69,127
59050,note_off,100,0,0,,10,,,69,127
59051,note_on,1,0,0,,8,,,68,127
59148,note_off,97,0,0,,4,,,64,127
59151,note_off,3,0,0,,8,,,68,127
59152,note_on,1,0,0,,10,,,69,127
59253,note_on,101,0,0,,5,,,65,127
59353,note_off,100,0,0,,5,,,65,127
59353,note_off,0,0,0,,10,,,69,127
59354,note_on,1,0,0,,10,,,69,127
59354,note_on,0,0,0,,4,,,64,127
59454,note_off,100,0,0,,4,,,64,127
59455,note_on,1,0,0,,2,,,62,127
59555,note_off,100,0,0,,2,,,62,127
59555,note_off,0,0,0,,10,,,69,127
59556,note_on,1,0,0,,10,,,69,127
59556,note_on,0,0,0,,0,,,60,127
59656,note_off,100,0,0,,0,,,60,127
59657,note_on,1,0,0,,12,,,59,127
59757,note_off,100,0,0,,12,,,59,127
59757,note_off,0,0,0,,10,,,69,127
59758,note_on,1,0,0,,12,,,71,127
59758,note_on,0,0,0,,10,,,57,127
59858,note_off,100,0,0,,10,,,57,127
59859,note_on,1,0,0,,8,,,56,127
59959,note_off,100,0,0,,8,,,56,127
59959,note_off,0,0,0,,12,,,71,127
59964,note_on,5,0,0,,0,,,72,127
59964,note_on,0,0,0,,10,,,57,127
60064,note_off,100,0,0,,0,,,72,127
60069,note_on,5,0,0,,5,,,77,127
60169,note_off,100,0,0,,5,,,77,127
60170,note_on,1,0,0,,4,,,76,127
60270,note_off,100,0,0,,4,,,76,127
60271,note_on,1,0,0,,2,,,74,127
60364,note_off,93,0,0,,10,,,57,127
60371,note_off,7,0,0,,2,,,74,127
60372,note_on,1,0,0,,0,,,72,127
60473,note_on,101,0,0,,10,,,69,127
60573,note_off,100,0,0,,10,,,69,127
60573,note_off,0,0,0,,0,,,72,127
60574,note_on,1,0,0,,0,,,72,127
60574,note_on,0,0,0,,7,,,67,127
60674,note_off,100,0,0,,7,,,67,127
60675,note_on,1,0,0,,5,,,65,127
60775,note_off,100,0,0,,5,,,65,127
60776,note_on,1,0,0,,7,,,43,127
60876,note_off,100,0,0,,0,,,72,127
60877,note_on,1,0,0,,4,,,76,127
60977,note_off,100,0,0,,4,,,76,127
60978,note_on,1,0,0,,2,,,74,127
61078,note_off,100,0,0,,2,,,74,127
61079,note_on,1,0,0,,0,,,72,127
61176,note_off,97,0,0,,7,,,43,127
61179,note_off,3,0,0,,0,,,72,127
61180,note_on,1,0,0,,12,,,71,127
61281,note_on,101,0,0,,7,,,67,127
61381,note_off,100,0,0,,7,,,67,127
61381,note_off,0,0,0,,12,,,71,127
61382,note_on,1,0,0,,12,,,71,127
61382,note_on,0,0,0,,5,,,65,127
61482,note_off,100,0,0,,5,,,65,127
61483,note_on,1,0,0,,4,,,64,127
61583,note_off,100,0,0,,4,,,64,127
61584,note_on,1,0,0,,5,,,41,127
61684,note_off,100,0,0,,12,,,71,127
61685,note_on,1,0,0,,2,,,74,127
61785,note_off,100,0,0,,2,,,74,127
61786,note_on,1,0,0,,0,,,72,127
61886,note_off,100,0,0,,0,,,72,127
61887,note_on,1,0,0,,12,,,71,127
61984,note_off,97,0,0,,5,,,41,127
61987,note_off,3,0,0,,12,,,71,127
61988,note_on,1,0,0,,10,,,69,127
62089,note_on,101,0,0,,5,,,65,127
62189,note_off,100,0,0,,5,,,65,127
62189,note_off,0,0,0,,10,,,69,127
62190,note_on,1,0,0,,10,,,69,127
62190,note_on,0,0,0,,4,,,64,127
62290,note_off,100,0,0,,4,,,64,127
62291,note_on,1,0,0,,2,,,62,127
62391,note_off,100,0,0,,2,,,62,127
62392,note_on,1,0,0,,4,,,40,127
62492,note_off,100,0,0,,10,,,69,127
62493,note_on,1,0,0,,0,,,72,127
62593,note_off,100,0,0,,0,,,72,127
62594,note_on,1,0,0,,12,,,71,127
62694,note_off,100,0,0,,12,,,71,127
62695,note_on,1,0,0,,10,,,69,127
62792,note_off,97,0,0,,4,,,40,127
62795,note_off,3,0,0,,10,,,69,127
62796,note_on,1,0,0,,7,,,67,127
62897,note_on,101,0,0,,4,,,64,127
62997,note_off,100,0,0,,4,,,64,127
62997,note_off,0,0,0,,7,,,67,127
62998,note_on,1,0,0,,7,,,67,127
62998,note_on,0,0,0,,2,,,62,127
63098,note_off,100,0,0,,2,,,62,127
63099,note_on,1,0,0,,0,,,60,127
63199,note_off,100,0,0,,0,,,60,127
63200,note_on,1,0,0,,2,,,38,127
63300,note_off,100,0,0,,7,,,67,127
63301,note_on,1,0,0,,12,,,71,127
63401,note_off,100,0,0,,12,,,71,127
63402,note_on,1,0,0,,10,,,69,127
63502,note_off,100,0,0,,10,,,69,127
63503,note_on,1,0,0,,7,,,67,127
63600,note_off,97,0,0,,2,,,38,127
63603,note_off,3,0,0,,7,,,67,127
63604,note_on,1,0,0,,5,,,65,127
63705,note_on,101,0,0,,2,,,62,127
63805,note_off,100,0,0,,2,,,62,127
63805,note_off,0,0,0,,5,,,65,127
63806,note_on,1,0,0,,5,,,65,127
63806,note_on,0,0,0,,0,,,60,127
63906,note_off,100,0,0,,0,,,60,127
63907,note_on,1,0,0,,12,,,59,127
64022,note_off,115,0,0,,5,,,65,127
64023,note_on,1,0,0,,0,,,36,127
64023,note_on,0,0,0,,4,,,64,127
64029,note_off,6,0,0,,12,,,59,127
64123,note_off,94,0,0,,0,,,36,127
64124,note_on,1,0,0,,10,,,45,127
64224,note_off,100,0,0,,10,,,45,127
64224,note_off,0,0,0,,4,,,64,127
64225,note_on,1,0,0,,2,,,38,127
64225,note_on,0,0,0,,5,,,65,127
64325,note_off,100,0,0,,2,,,38,127
64326,note_on,1,0,0,,12,,,47,127
64426,note_off,100,0,0,,12,,,47,127
64426,note_off,0,0,0,,5,,,65,127
64427,note_on,1,0,0,,4,,,40,127
64427,note_on,0,0,0,,7,,,67,127
64527,note_off,100,0,0,,4,,,40,127
64528,note_on,1,0,0,,0,,,48,127
64628,note_off,100,0,0,,0,,,48,127
64628,note_off,0,0,0,,7,,,67,127
64629,note_on,1,0,0,,5,,,41,127
64629,note_on,0,0,0,,10,,,69,127
64729,note_off,100,0,0,,5,,,41,127
64730,note_on,1,0,0,,2,,,50,127
64830,note_off,100,0,0,,2,,,50,127
64830,note_off,0,0,0,,10,,,69,127
64831,note_on,1,0,0,,7,,,43,127
64831,note_on,0,0,0,,12,,,71,127
64931,note_off,100,0,0,,7,,,43,127
64932,note_on,1,0,0,,4,,,52,127
65032,note_off,100,0,0,,4,,,52,127
65032,note_off,0,0,0,,12,,,71,127
65033,note_on,1,0,0,,10,,,45,127
65033,note_on,0,0,0,,0,,,72,127
65133,note_off,100,0,0,,10,,,45,127
65134,note_on,1,0,0,,5,,,53,127
65234,note_off,100,0,0,,5,,,53,127
65234,note_off,0,0,0,,0,,,72,127
65235,note_on,1,0,0,,12,,,47,127
65235,note_on,0,0,0,,2,,,74,127
65335,note_off,100,0,0,,12,,,47,127
65336,note_on,1,0,0,,7,,,55,127
65436,note_off,100,0,0,,7,,,55,127
65436,note_off,0,0,0,,2,,,74,127
65437,note_on,1,0,0,,0,,,48,127
65437,note_on,0,0,0,,4,,,76,127
65537,note_off,100,0,0,,0,,,48,127
65538,note_on,1,0,0,,6,,,54,127
65638,note_off,100,0,0,,6,,,54,127
65638,note_off,0,0,0,,4,,,76,127
65647,note_on,9,0,0,,2,,,74,127
65647,note_on,0,0,0,,7,,,43,127
65747,note_off,100,0,0,,2,,,74,127
65748,note_on,1,0,0,,12,,,71,127
65848,note_off,100,0,0,,12,,,71,127
65848,note_off,0,0,0,,7,,,43,127
65849,note_on,1,0,0,,7,,,55,127
65849,note_on,0,0,0,,7,,,67,127
65949,note_off,100,0,0,,7,,,67,127
65950,note_on,1,0,0,,2,,,74,127
66050,note_off,100,0,0,,2,,,74,127
66050,note_off,0,0,0,,7,,,55,127
66051,note_on,1,0,0,,0,,,60,127
66051,note_on,0,0,0,,4,,,76,127
66151,note_off,100,0,0,,4,,,76,127
66152,note_on,1,0,0,,0,,,72,127
66252,note_off,100,0,0,,0,,,72,127
66252,note_off,0,0,0,,0,,,60,127
66253,note_on,1,0,0,,10,,,57,127
66253,note_on,0,0,0,,6,,,78,127
66353,note_off,100,0,0,,6,,,78,127
66354,note_on,1,0,0,,2,,,74,127
66454,note_off,100,0,0,,2,,,74,127
66454,note_off,0,0,0,,10,,,57,127
66455,note_on,1,0,0,,7,,,43,127
66455,note_on,0,0,0,,7,,,79,127
66555,note_off,100,0,0,,7,,,79,127
66556,note_on,1,0,0,,2,,,74,127
66656,note_off,100,0,0,,2,,,74,127
66656,note_off,0,0,0,,7,,,43,127
66657,note_on,1,0,0,,7,,,55,127
66657,note_on,0,0,0,,12,,,71,127
66757,note_off,100,0,0,,12,,,71,127
66758,note_on,1,0,0,,7,,,67,127
66858,note_off,100,0,0,,7,,,67,127
66858,note_off,0,0,0,,7,,,55,127
66859,note_on,1,0,0,,0,,,60,127
66859,note_on,0,0,0,,4,,,76,127
66959,note_off,100,0,0,,4,,,76,127
66960,note_on,1,0,0,,0,,,72,127
67060,note_off,100,0,0,,0,,,72,127
67060,note_off,0,0,0,,0,,,60,127
67061,note_on,1,0,0,,10,,,57,127
67061,note_on,0,0,0,,6,,,78,127
67161,note_off,100,0,0,,6,,,78,127
67162,note_on,1,0,0,,2,,,74,127
67262,note_off,100,0,0,,2,,,74,127
67262,note_off,0,0,0,,10,,,57,127
67263,note_on,1,0,0,,7,,,43,127
67263,note_on,0,0,0,,7,,,79,127
67363,note_off,100,0,0,,7,,,79,127
67364,note_on,1,0,0,,2,,,74,127
67464,note_off,100,0,0,,2,,,74,127
67464,note_off,0,0,0,,7,,,43,127
67465,note_on,1,0,0,,7,,,55,127
67465,note_on,0,0,0,,12,,,71,127
67565,note_off,100,0,0,,12,,,71,127
67566,note_on,1,0,0,,7,,,67,127
67666,note_off,100,0,0,,7,,,67,127
67666,note_off,0,0,0,,7,,,55,127
67667,note_on,1,0,0,,0,,,60,127
67667,note_on,0,0,0,,4,,,76,127
67767,note_off,100,0,0,,4,,,76,127
67768,note_on,1,0,0,,0,,,72,127
67868,note_off,100,0,0,,0,,,72,127
67868,note_off,0,0,0,,0,,,60,127
67869,note_on,1,0,0,,10,,,57,127
67869,note_on,0,0,0,,6,,,78,127
67969,note_off,100,0,0,,6,,,78,127
67970,note_on,1,0,0,,2,,,74,127
68070,note_off,100,0,0,,2,,,74,127
68070,note_off,0,0,0,,10,,,57,127
68079,note_on,9,0,0,,7,,,43,127
68079,note_on,0,0,0,,7,,,79,127
68179,note_off,100,0,0,,7,,,79,127
68180,note_on,1,0,0,,2,,,74,127
68280,note_off,100,0,0,,2,,,74,127
68281,note_on,1,0,0,,12,,,71,127
68381,note_off,100,0,0,,12,,,71,127
68382,note_on,1,0,0,,2,,,74,127
68482,note_off,100,0,0,,2,,,74,127
68483,note_on,1,0,0,,7,,,67,127
68583,note_off,100,0,0,,7,,,67,127
68584,note_on,1,0,0,,12,,,71,127
68684,note_off,100,0,0,,12,,,71,127
68685,note_on,1,0,0,,2,,,62,127
68785,note_off,100,0,0,,2,,,62,127
68786,note_on,1,0,0,,7,,,67,127
68886,note_off,100,0,0,,7,,,67,127
68886,note_off,0,0,0,,7,,,43,127
68887,note_on,1,0,0,,12,,,59,127
68987,note_off,100,0,0,,12,,,59,127
68988,note_on,1,0,0,,2,,,62,127
69088,note_off,100,0,0,,2,,,62,127
69089,note_on,1,0,0,,7,,,55,127
69189,note_off,100,0,0,,7,,,55,127
69190,note_on,1,0,0,,12,,,59,127
69290,note_off,100,0,0,,12,,,59,127
69291,note_on,1,0,0,,2,,,50,127
69391,note_off,100,0,0,,2,,,50,127
69392,note_on,1,0,0,,7,,,55,127
69492,note_off,100,0,0,,7,,,55,127
69493,note_on,1,0,0,,12,,,47,127
69593,note_off,100,0,0,,12,,,47,127
69594,note_on,1,0,0,,2,,,50,127
69694,note_off,100,0,0,,2,,,50,127
69695,note_on,1,0,0,,7,,,43,127
70362,note_on,667,0,0,,8,,,80,127
70462,note_off,100,0,0,,8,,,80,127
70463,note_on,1,0,0,,7,,,79,127
70537,note_off,74,0,0,,7,,,43,127
70563,note_off,26,0,0,,7,,,79,127
70564,note_on,1,0,0,,5,,,77,127
70664,note_off,100,0,0,,5,,,77,127
70665,note_on,1,0,0,,3,,,75,127
70765,note_off,100,0,0,,3,,,75,127
70766,note_on,1,0,0,,8,,,68,127
70766,note_on,0,0,0,,2,,,74,127
70866,note_off,100,0,0,,2,,,74,127
70866,note_off,0,0,0,,8,,,68,127
70867,note_on,1,0,0,,7,,,67,127
70867,note_on,0,0,0,,0,,,72,127
70967,note_off,100,0,0,,0,,,72,127
70967,note_off,0,0,0,,7,,,67,127
70968,note_on,1,0,0,,5,,,65,127
70968,note_on,0,0,0,,12,,,71,127
71068,note_off,100,0,0,,12,,,71,127
71068,note_off,0,0,0,,5,,,65,127
71069,note_on,1,0,0,,3,,,63,127
71069,note_on,0,0,0,,0,,,72,127
71169,note_off,100,0,0,,0,,,72,127
71169,note_off,0,0,0,,3,,,63,127
71170,note_on,1,0,0,,2,,,62,127
71170,note_on,0,0,0,,2,,,74,127
71270,note_off,100,0,0,,2,,,74,127
71270,note_off,0,0,0,,2,,,62,127
71271,note_on,1,0,0,,0,,,60,127
71271,note_on,0,0,0,,3,,,75,127
71371,note_off,100,0,0,,3,,,75,127
71371,note_off,0,0,0,,0,,,60,127
71372,note_on,1,0,0,,12,,,59,127
71372,note_on,0,0,0,,5,,,77,127
71472,note_off,100,0,0,,5,,,77,127
71472,note_off,0,0,0,,12,,,59,127
71473,note_on,1,0,0,,0,,,60,127
71473,note_on,0,0,0,,3,,,75,127
71573,note_off,100,0,0,,3,,,75,127
71574,note_on,1,0,0,,6,,,78,127
71674,note_off,100,0,0,,0,,,60,127
71675,note_on,1,0,0,,0,,,48,127
71775,note_off,100,0,0,,6,,,78,127
71776,note_on,1,0,0,,7,,,79,127
71876,note_off,100,0,0,,7,,,79,127
71876,note_off,0,0,0,,0,,,48,127
71877,note_on,1,0,0,,7,,,43,127
71877,note_on,0,0,0,,2,,,74,127
71977,note_off,100,0,0,,2,,,74,127
71978,note_on,1,0,0,,8,,,80,127
72078,note_off,100,0,0,,8,,,80,127
72079,note_on,1,0,0,,7,,,79,127
72179,note_off,100,0,0,,7,,,79,127
72180,note_on,1,0,0,,5,,,77,127
72277,note_off,97,0,0,,7,,,43,127
72280,note_off,3,0,0,,5,,,77,127
72281,note_on,1,0,0,,3,,,75,127
72381,note_off,100,0,0,,3,,,75,127
72382,note_on,1,0,0,,8,,,68,127
72382,note_on,0,0,0,,2,,,74,127
72482,note_off,100,0,0,,2,,,74,127
72482,note_off,0,0,0,,8,,,68,127
72483,note_on,1,0,0,,7,,,67,127
72483,note_on,0,0,0,,0,,,72,127
72583,note_off,100,0,0,,0,,,72,127
72583,note_off,0,0,0,,7,,,67,127
72584,note_on,1,0,0,,5,,,65,127
72584,note_on,0,0,0,,12,,,71,127
72684,note_off,100,0,0,,12,,,71,127
72684,note_off,0,0,0,,5,,,65,127
72685,note_on,1,0,0,,3,,,63,127
72685,note_on,0,0,0,,0,,,72,127
72785,note_off,100,0,0,,0,,,72,127
72785,note_off,0,0,0,,3,,,63,127
72786,note_on,1,0,0,,2,,,62,127
72786,note_on,0,0,0,,2,,,74,127
72886,note_off,100,0,0,,2,,,74,127
72886,note_off,0,0,0,,2,,,62,127
72887,note_on,1,0,0,,0,,,60,127
72887,note_on,0,0,0,,3,,,75,127
72987,note_off,100,0,0,,3,,,75,127
72987,note_off,0,0,0,,0,,,60,127
72988,note_on,1,0,0,,12,,,59,127
72988,note_on,0,0,0,,5,,,77,127
73088,note_off,100,0,0,,5,,,77,127
73088,note_off,0,0,0,,12,,,59,127
73089,note_on,1,0,0,,0,,,60,127
73089,note_on,0,0,0,,3,,,75,127
73189,note_off,100,0,0,,3,,,75,127
73190,note_on,1,0,0,,6,,,78,127
73290,note_off,100,0,0,,0,,,60,127
73291,note_on,1,0,0,,0,,,48,127
73391,note_off,100,0,0,,6,,,78,127
73392,note_on,1,0,0,,7,,,79,127
73492,note_off,100,0,0,,7,,,79,127
73492,note_off,0,0,0,,0,,,48,127
73493,note_on,1,0,0,,7,,,43,127
73493,note_on,0,0,0,,2,,,74,127
73593,note_off,100,0,0,,2,,,74,127
73594,note_on,1,0,0,,3,,,87,127
73694,note_off,100,0,0,,3,,,87,127
73695,note_on,1,0,0,,2,,,86,127
73795,note_off,100,0,0,,2,,,86,127
73796,note_on,1,0,0,,0,,,84,127
73893,note_off,97,0,0,,7,,,43,127
73896,note_off,3,0,0,,0,,,84,127
73897,note_on,1,0,0,,12,,,83,127
73997,note_off,100,0,0,,12,,,83,127
73998,note_on,1,0,0,,8,,,80,127
74098,note_off,100,0,0,,8,,,80,127
74099,note_on,1,0,0,,7,,,79,127
74199,note_off,100,0,0,,7,,,79,127
74200,note_on,1,0,0,,5,,,77,127
74300,note_off,100,0,0,,5,,,77,127
74301,note_on,1,0,0,,4,,,76,127
74402,note_on,101,0,0,,1,,,73,127
74502,note_off,100,0,0,,1,,,73,127
74502,note_off,0,0,0,,4,,,76,127
74503,note_on,1,0,0,,0,,,72,127
74503,note_on,0,0,0,,4,,,76,127
74603,note_off,100,0,0,,0,,,72,127
74604,note_on,1,0,0,,11,,,70,127
74704,note_off,100,0,0,,11,,,70,127
74704,note_off,0,0,0,,4,,,76,127
74705,note_on,1,0,0,,8,,,68,127
74705,note_on,0,0,0,,5,,,77,127
74805,note_off,100,0,0,,8,,,68,127
74806,note_on,1,0,0,,7,,,67,127
74906,note_off,100,0,0,,7,,,67,127
74906,note_off,0,0,0,,5,,,77,127
74907,note_on,1,0,0,,5,,,65,127
74907,note_on,0,0,0,,7,,,79,127
75007,note_off,100,0,0,,5,,,65,127
75008,note_on,1,0,0,,4,,,64,127
75108,note_off,100,0,0,,4,,,64,127
75109,note_on,1,0,0,,5,,,41,127
75209,note_off,100,0,0,,7,,,79,127
75210,note_on,1,0,0,,8,,,80,127
75310,note_off,100,0,0,,8,,,80,127
75311,note_on,1,0,0,,7,,,79,127
75411,note_off,100,0,0,,7,,,79,127
75412,note_on,1,0,0,,5,,,77,127
75509,note_off,97,0,0,,5,,,41,127
75512,note_off,3,0,0,,5,,,77,127
75513,note_on,1,0,0,,3,,,75,127
75613,note_off,100,0,0,,3,,,75,127
75614,note_on,1,0,0,,2,,,74,127
75714,note_off,100,0,0,,2,,,74,127
75715,note_on,1,0,0,,5,,,53,127
75715,note_on,0,0,0,,0,,,72,127
75715,note_on,0,0,0,,8,,,80,127
75815,note_off,100,0,0,,0,,,72,127
75816,note_on,1,0,0,,12,,,71,127
75915,note_off,99,0,0,,8,,,80,127
75916,note_off,1,0,0,,12,,,71,127
75916,note_off,0,0,0,,5,,,53,127
75917,note_on,1,0,0,,3,,,51,127
75917,note_on,0,0,0,,7,,,79,127
75917,note_on,0,0,0,,0,,,72,127
76017,note_off,100,0,0,,7,,,79,127
76018,note_on,1,0,0,,5,,,77,127
76118,note_off,100,0,0,,5,,,77,127
76118,note_off,0,0,0,,3,,,51,127
76119,note_on,1,0,0,,5,,,53,127
76119,note_on,0,0,0,,3,,,75,127
76212,note_off,93,0,0,,0,,,72,127
76219,note_off,7,0,0,,3,,,75,127
76220,note_on,1,0,0,,2,,,74,127
76320,note_off,100,0,0,,2,,,74,127
76320,note_off,0,0,0,,5,,,53,127
76321,note_on,1,0,0,,7,,,55,127
76321,note_on,0,0,0,,7,,,79,127
76321,note_on,0,0,0,,3,,,75,127
76421,note_off,100,0,0,,3,,,75,127
76422,note_on,1,0,0,,0,,,72,127
76522,note_off,100,0,0,,0,,,72,127
76522,note_off,0,0,0,,7,,,55,127
76523,note_on,1,0,0,,7,,,43,127
76523,note_on,0,0,0,,2,,,74,127
76623,note_off,100,0,0,,2,,,74,127
76624,note_on,1,0,0,,12,,,71,127
76721,note_off,97,0,0,,7,,,79,127
76724,note_off,3,0,0,,12,,,71,127
76724,note_off,0,0,0,,7,,,43,127
76725,note_on,1,0,0,,0,,,48,127
76725,note_on,0,0,0,,0,,,72,127
76834,note_on,109,0,0,,8,,,80,127
76846,note_off,12,0,0,,0,,,72,127
76934,note_off,88,0,0,,8,,,80,127
76935,note_on,1,0,0,,7,,,79,127
77035,note_off,100,0,0,,7,,,79,127
77036,note_on,1,0,0,,5,,,77,127
77124,note_off,88,0,0,,0,,,48,127
77136,note_off,12,0,0,,5,,,77,127
77137,note_on,1,0,0,,3,,,75,127
77237,note_off,100,0,0,,3,,,75,127
77238,note_on,1,0,0,,8,,,68,127
77238,note_on,0,0,0,,2,,,74,127
77338,note_off,100,0,0,,2,,,74,127
77338,note_off,0,0,0,,8,,,68,127
77339,note_on,1,0,0,,7,,,67,127
77339,note_on,0,0,0,,0,,,72,127
77439,note_off,100,0,0,,0,,,72,127
77439,note_off,0,0,0,,7,,,67,127
77440,note_on,1,0,0,,5,,,65,127
77440,note_on,0,0,0,,12,,,71,127
77540,note_off,100,0,0,,12,,,71,127
77540,note_off,0,0,0,,5,,,65,127
77541,note_on,1,0,0,,3,,,63,127
77541,note_on,0,0,0,,0,,,72,127
77641,note_off,100,0,0,,0,,,72,127
77641,note_off,0,0,0,,3,,,63,127
77642,note_on,1,0,0,,2,,,62,127
77642,note_on,0,0,0,,2,,,74,127
77742,note_off,100,0,0,,2,,,74,127
77742,note_off,0,0,0,,2,,,62,127
77743,note_on,1,0,0,,0,,,60,127
77743,note_on,0,0,0,,3,,,75,127
77843,note_off,100,0,0,,3,,,75,127
77843,note_off,0,0,0,,0,,,60,127
77844,note_on,1,0,0,,12,,,59,127
77844,note_on,0,0,0,,5,,,77,127
77944,note_off,100,0,0,,5,,,77,127
77944,note_off,0,0,0,,12,,,59,127
77945,note_on,1,0,0,,0,,,60,127
77945,note_on,0,0,0,,3,,,75,127
78045,note_off,100,0,0,,3,,,75,127
78046,note_on,1,0,0,,6,,,78,127
78146,note_off,100,0,0,,0,,,60,127
78147,note_on,1,0,0,,0,,,48,127
78247,note_off,100,0,0,,6,,,78,127
78248,note_on,1,0,0,,7,,,79,127
78348,note_off,100,0,0,,7,,,79,127
78348,note_off,0,0,0,,0,,,48,127
78349,note_on,1,0,0,,7,,,43,127
78349,note_on,0,0,0,,2,,,74,127
78458,note_on,109,0,0,,8,,,80,127
78470,note_off,12,0,0,,2,,,74,127
78558,note_off,88,0,0,,8,,,80,127
78559,note_on,1,0,0,,7,,,79,127
78659,note_off,100,0,0,,7,,,79,127
78660,note_on,1,0,0,,5,,,77,127
78748,note_off,88,0,0,,7,,,43,127
78760,note_off,12,0,0,,5,,,77,127
78761,note_on,1,0,0,,3,,,75,127
78861,note_off,100,0,0,,3,,,75,127
78862,note_on,1,0,0,,8,,,68,127
78862,note_on,0,0,0,,2,,,74,127
78962,note_off,100,0,0,,2,,,74,127
78962,note_off,0,0,0,,8,,,68,127
78963,note_on,1,0,0,,7,,,67,127
78963,note_on,0,0,0,,0,,,72,127
79063,note_off,100,0,0,,0,,,72,127
79063,note_off,0,0,0,,7,,,67,127
79064,note_on,1,0,0,,5,,,65,127
79064,note_on,0,0,0,,12,,,71,127
79164,note_off,100,0,0,,12,,,71,127
79164,note_off,0,0,0,,5,,,65,127
79165,note_on,1,0,0,,3,,,63,127
79165,note_on,0,0,0,,0,,,72,127
79265,note_off,100,0,0,,0,,,72,127
79265,note_off,0,0,0,,3,,,63,127
79266,note_on,1,0,0,,2,,,62,127
79266,note_on,0,0,0,,2,,,74,127
79366,note_off,100,0,0,,2,,,74,127
79366,note_off,0,0,0,,2,,,62,127
79367,note_on,1,0,0,,0,,,60,127
79367,note_on,0,0,0,,3,,,75,127
79467,note_off,100,0,0,,3,,,75,127
79467,note_off,0,0,0,,0,,,60,127
79468,note_on,1,0,0,,12,,,59,127
79468,note_on,0,0,0,,5,,,77,127
79568,note_off,100,0,0,,5,,,77,127
79568,note_off,0,0,0,,12,,,59,127
79569,note_on,1,0,0,,0,,,60,127
79569,note_on,0,0,0,,3,,,75,127
79669,note_off,100,0,0,,3,,,75,127
79670,note_on,1,0,0,,6,,,78,127
79770,note_off,100,0,0,,0,,,60,127
79771,note_on,1,0,0,,0,,,48,127
79871,note_off,100,0,0,,6,,,78,127
79872,note_on,1,0,0,,7,,,79,127
79972,note_off,100,0,0,,7,,,79,127
79972,note_off,0,0,0,,0,,,48,127
79973,note_on,1,0,0,,7,,,43,127
79973,note_on,0,0,0,,2,,,74,127
80077,note_off,104,0,0,,2,,,74,127
80082,note_on,5,0,0,,3,,,87,127
80182,note_off,100,0,0,,3,,,87,127
80183,note_on,1,0,0,,2,,,86,127
80283,note_off,100,0,0,,2,,,86,127
80284,note_on,1,0,0,,0,,,84,127
80372,note_off,88,0,0,,7,,,43,127
80384,note_off,12,0,0,,0,,,84,127
80385,note_on,1,0,0,,12,,,83,127
80485,note_off,100,0,0,,12,,,83,127
80486,note_on,1,0,0,,8,,,80,127
80586,note_off,100,0,0,,8,,,80,127
80587,note_on,1,0,0,,7,,,79,127
80687,note_off,100,0,0,,7,,,79,127
80688,note_on,1,0,0,,5,,,77,127
80788,note_off,100,0,0,,5,,,77,127
80789,note_on,1,0,0,,4,,,76,127
80890,note_on,101,0,0,,1,,,73,127
80990,note_off,100,0,0,,1,,,73,127
80990,note_off,0,0,0,,4,,,76,127
80991,note_on,1,0,0,,0,,,72,127
80991,note_on,0,0,0,,4,,,76,127
81091,note_off,100,0,0,,0,,,72,127
81092,note_on,1,0,0,,11,,,70,127
81192,note_off,100,0,0,,11,,,70,127
81192,note_off,0,0,0,,4,,,76,127
81193,note_on,1,0,0,,8,,,68,127
81193,note_on,0,0,0,,5,,,77,127
81293,note_off,100,0,0,,8,,,68,127
81294,note_on,1,0,0,,7,,,67,127
81394,note_off,100,0,0,,7,,,67,127
81394,note_off,0,0,0,,5,,,77,127
81395,note_on,1,0,0,,5,,,65,127
81395,note_on,0,0,0,,7,,,79,127
81495,note_off,100,0,0,,5,,,65,127
81496,note_on,1,0,0,,4,,,64,127
81596,note_off,100,0,0,,4,,,64,127
81612,note_on,16,0,0,,5,,,41,127
81697,note_off,85,0,0,,7,,,79,127
81706,note_on,9,0,0,,8,,,80,127
81806,note_off,100,0,0,,8,,,80,127
81807,note_on,1,0,0,,7,,,79,127
81907,note_off,100,0,0,,7,,,79,127
81908,note_on,1,0,0,,5,,,77,127
82008,note_off,100,0,0,,5,,,77,127
82009,note_on,1,0,0,,3,,,75,127
82074,note_off,65,0,0,,5,,,41,127
82109,note_off,35,0,0,,3,,,75,127
82110,note_on,1,0,0,,2,,,74,127
82210,note_off,100,0,0,,2,,,74,127
82211,note_on,1,0,0,,5,,,53,127
82211,note_on,0,0,0,,8,,,80,127
82211,note_on,0,0,0,,0,,,72,127
82311,note_off,100,0,0,,0,,,72,127
82312,note_on,1,0,0,,12,,,71,127
82411,note_off,99,0,0,,8,,,80,127
82412,note_off,1,0,0,,12,,,71,127
82412,note_off,0,0,0,,5,,,53,127
82413,note_on,1,0,0,,3,,,51,127
82413,note_on,0,0,0,,7,,,79,127
82413,note_on,0,0,0,,0,,,72,127
82513,note_off,100,0,0,,7,,,79,127
82514,note_on,1,0,0,,5,,,77,127
82614,note_off,100,0,0,,5,,,77,127
82614,note_off,0,0,0,,3,,,51,127
82615,note_on,1,0,0,,5,,,53,127
82615,note_on,0,0,0,,3,,,75,127
82708,note_off,93,0,0,,0,,,72,127
82715,note_off,7,0,0,,3,,,75,127
82716,note_on,1,0,0,,2,,,74,127
82816,note_off,100,0,0,,2,,,74,127
82816,note_off,0,0,0,,5,,,53,127
82817,note_on,1,0,0,,7,,,55,127
82817,note_on,0,0,0,,3,,,75,127
82817,note_on,0,0,0,,7,,,79,127
82917,note_off,100,0,0,,3,,,75,127
82918,note_on,1,0,0,,0,,,72,127
83018,note_off,100,0,0,,0,,,72,127
83018,note_off,0,0,0,,7,,,55,127
83019,note_on,1,0,0,,7,,,43,127
83019,note_on,0,0,0,,2,,,74,127
83119,note_off,100,0,0,,2,,,74,127
83120,note_on,1,0,0,,12,,,71,127
83217,note_off,97,0,0,,7,,,79,127
83220,note_off,3,0,0,,12,,,71,127
83220,note_off,0,0,0,,7,,,43,127
83226,note_on,6,0,0,,0,,,48,127
83226,note_on,0,0,0,,0,,,72,127
83326,note_off,100,0,0,,0,,,48,127
83339,note_on,13,0,0,,5,,,65,127
83427,note_off,88,0,0,,0,,,72,127
83439,note_off,12,0,0,,5,,,65,127
83440,note_on,1,0,0,,0,,,72,127
83440,note_on,0,0,0,,4,,,64,127
83540,note_off,100,0,0,,4,,,64,127
83541,note_on,1,0,0,,2,,,62,127
83641,note_off,100,0,0,,2,,,62,127
83641,note_off,0,0,0,,0,,,72,127
83642,note_on,1,0,0,,0,,,72,127
83642,note_on,0,0,0,,0,,,60,127
83742,note_off,100,0,0,,0,,,60,127
83743,note_on,1,0,0,,12,,,59,127
83843,note_off,100,0,0,,12,,,59,127
83843,note_off,0,0,0,,0,,,72,127
83844,note_on,1,0,0,,0,,,72,127
83844,note_on,0,0,0,,10,,,57,127
83944,note_off,100,0,0,,10,,,57,127
83945,note_on,1,0,0,,7,,,55,127
84044,note_off,99,0,0,,0,,,72,127
84045,note_off,1,0,0,,7,,,55,127
84046,note_on,1,0,0,,5,,,41,127
84147,note_on,101,0,0,,11,,,82,127
84247,note_off,100,0,0,,11,,,82,127
84248,note_on,1,0,0,,10,,,81,127
84348,note_off,100,0,0,,10,,,81,127
84349,note_on,1,0,0,,7,,,79,127
84446,note_off,97,0,0,,5,,,41,127
84449,note_off,3,0,0,,7,,,79,127
84450,note_on,1,0,0,,5,,,77,127
84550,note_off,100,0,0,,5,,,77,127
84551,note_on,1,0,0,,4,,,76,127
84651,note_off,100,0,0,,4,,,76,127
84652,note_on,1,0,0,,2,,,74,127
84752,note_off,100,0,0,,2,,,74,127
84753,note_on,1,0,0,,1,,,73,127
84853,note_off,100,0,0,,1,,,73,127
84854,note_on,1,0,0,,2,,,74,127
84955,note_on,101,0,0,,7,,,67,127
85055,note_off,100,0,0,,7,,,67,127
85055,note_off,0,0,0,,2,,,74,127
85056,note_on,1,0,0,,2,,,74,127
85056,note_on,0,0,0,,5,,,65,127
85156,note_off,100,0,0,,5,,,65,127
85157,note_on,1,0,0,,4,,,64,127
85257,note_off,100,0,0,,4,,,64,127
85257,note_off,0,0,0,,2,,,74,127
85258,note_on,1,0,0,,2,,,74,127
85258,note_on,0,0,0,,2,,,62,127
85358,note_off,100,0,0,,2,,,62,127
85359,note_on,1,0,0,,0,,,60,127
85459,note_off,100,0,0,,0,,,60,127
85459,note_off,0,0,0,,2,,,74,127
85460,note_on,1,0,0,,2,,,74,127
85460,note_on,0,0,0,,12,,,59,127
85560,note_off,100,0,0,,12,,,59,127
85561,note_on,1,0,0,,10,,,57,127
85660,note_off,99,0,0,,2,,,74,127
85661,note_off,1,0,0,,10,,,57,127
85662,note_on,1,0,0,,7,,,43,127
85763,note_on,101,0,0,,4,,,88,127
85863,note_off,100,0,0,,4,,,88,127
85864,note_on,1,0,0,,2,,,86,127
85964,note_off,100,0,0,,2,,,86,127
85965,note_on,1,0,0,,0,,,84,127
86062,note_off,97,0,0,,7,,,43,127
86065,note_off,3,0,0,,0,,,84,127
86066,note_on,1,0,0,,12,,,83,127
86166,note_off,100,0,0,,12,,,83,127
86167,note_on,1,0,0,,10,,,81,127
86267,note_off,100,0,0,,10,,,81,127
86268,note_on,1,0,0,,7,,,79,127
86368,note_off,100,0,0,,7,,,79,127
86369,note_on,1,0,0,,6,,,78,127
86469,note_off,100,0,0,,6,,,78,127
86470,note_on,1,0,0,,7,,,79,127
86571,note_on,101,0,0,,10,,,69,127
86671,note_off,100,0,0,,10,,,69,127
86671,note_off,0,0,0,,7,,,79,127
86672,note_on,1,0,0,,7,,,79,127
86672,note_on,0,0,0,,7,,,67,127
86772,note_off,100,0,0,,7,,,67,127
86773,note_on,1,0,0,,5,,,65,127
86873,note_off,100,0,0,,5,,,65,127
86873,note_off,0,0,0,,7,,,79,127
86874,note_on,1,0,0,,7,,,79,127
86874,note_on,0,0,0,,4,,,64,127
86974,note_off,100,0,0,,4,,,64,127
86975,note_on,1,0,0,,2,,,62,127
87075,note_off,100,0,0,,2,,,62,127
87075,note_off,0,0,0,,7,,,79,127
87076,note_on,1,0,0,,7,,,79,127
87076,note_on,0,0,0,,0,,,60,127
87176,note_off,100,0,0,,0,,,60,127
87177,note_on,1,0,0,,12,,,59,127
87276,note_off,99,0,0,,7,,,79,127
87277,note_off,1,0,0,,12,,,59,127
87278,note_on,1,0,0,,0,,,36,127
87379,note_on,101,0,0,,10,,,81,127
87479,note_off,100,0,0,,10,,,81,127
87480,note_on,1,0,0,,7,,,79,127
87580,note_off,100,0,0,,7,,,79,127
87581,note_on,1,0,0,,5,,,77,127
87678,note_off,97,0,0,,0,,,36,127
87681,note_off,3,0,0,,5,,,77,127
87682,note_on,1,0,0,,4,,,76,127
87782,note_off,100,0,0,,4,,,76,127
87783,note_on,1,0,0,,2,,,74,127
87883,note_off,100,0,0,,2,,,74,127
87884,note_on,1,0,0,,7,,,79,127
87884,note_on,0,0,0,,0,,,72,127
87884,note_on,0,0,0,,0,,,48,127
87984,note_off,100,0,0,,0,,,72,127
87985,note_on,1,0,0,,12,,,71,127
88085,note_off,100,0,0,,12,,,71,127
88085,note_off,0,0,0,,0,,,48,127
88086,note_on,1,0,0,,10,,,69,127
88086,note_on,0,0,0,,5,,,53,127
88179,note_off,93,0,0,,7,,,79,127
88187,note_on,8,0,0,,5,,,77,127
88287,note_off,100,0,0,,5,,,77,127
88287,note_off,0,0,0,,5,,,53,127
88288,note_on,1,0,0,,4,,,76,127
88288,note_on,0,0,0,,5,,,41,127
88381,note_off,93,0,0,,10,,,69,127
88388,note_off,7,0,0,,4,,,76,127
88389,note_on,1,0,0,,2,,,74,127
88489,note_off,100,0,0,,2,,,74,127
88489,note_off,0,0,0,,5,,,41,127
88490,note_on,1,0,0,,7,,,79,127
88490,note_on,0,0,0,,4,,,76,127
88490,note_on,0,0,0,,7,,,55,127
88590,note_off,100,0,0,,4,,,76,127
88591,note_on,1,0,0,,0,,,72,127
88691,note_off,100,0,0,,0,,,72,127
88691,note_off,0,0,0,,7,,,55,127
88692,note_on,1,0,0,,2,,,74,127
88692,note_on,0,0,0,,7,,,43,127
88792,note_off,100,0,0,,2,,,74,127
88793,note_on,1,0,0,,12,,,71,127
88890,note_off,97,0,0,,7,,,79,127
88893,note_off,3,0,0,,12,,,71,127
88893,note_off,0,0,0,,7,,,43,127
88894,note_on,1,0,0,,0,,,72,127
88894,note_on,0,0,0,,0,,,48,127
88994,note_off,100,0,0,,0,,,48,127
89012,note_on,18,0,0,,5,,,65,127
89095,note_off,83,0,0,,0,,,72,127
89112,note_off,17,0,0,,5,,,65,127
89113,note_on,1,0,0,,4,,,64,127
89113,note_on,0,0,0,,0,,,72,127
89213,note_off,100,0,0,,4,,,64,127
89214,note_on,1,0,0,,2,,,62,127
89314,note_off,100,0,0,,2,,,62,127
89314,note_off,0,0,0,,0,,,72,127
89315,note_on,1,0,0,,0,,,60,127
89315,note_on,0,0,0,,0,,,72,127
89415,note_off,100,0,0,,0,,,60,127
89416,note_on,1,0,0,,12,,,59,127
89516,note_off,100,0,0,,12,,,59,127
89516,note_off,0,0,0,,0,,,72,127
89517,note_on,1,0,0,,10,,,57,127
89517,note_on,0,0,0,,0,,,72,127
89617,note_off,100,0,0,,10,,,57,127
89618,note_on,1,0,0,,7,,,55,127
89717,note_off,99,0,0,,0,,,72,127
89718,note_off,1,0,0,,7,,,55,127
89719,note_on,1,0,0,,5,,,41,127
89820,note_on,101,0,0,,11,,,82,127
89920,note_off,100,0,0,,11,,,82,127
89921,note_on,1,0,0,,10,,,81,127
90021,note_off,100,0,0,,10,,,81,127
90022,note_on,1,0,0,,7,,,79,127
90119,note_off,97,0,0,,5,,,41,127
90122,note_off,3,0,0,,7,,,79,127
90123,note_on,1,0,0,,5,,,77,127
90223,note_off,100,0,0,,5,,,77,127
90224,note_on,1,0,0,,4,,,76,127
90324,note_off,100,0,0,,4,,,76,127
90325,note_on,1,0,0,,2,,,74,127
90425,note_off,100,0,0,,2,,,74,127
90426,note_on,1,0,0,,1,,,73,127
90526,note_off,100,0,0,,1,,,73,127
90527,note_on,1,0,0,,2,,,74,127
90628,note_on,101,0,0,,7,,,67,127
90728,note_off,100,0,0,,7,,,67,127
90728,note_off,0,0,0,,2,,,74,127
90729,note_on,1,0,0,,5,,,65,127
90729,note_on,0,0,0,,2,,,74,127
90829,note_off,100,0,0,,5,,,65,127
90830,note_on,1,0,0,,4,,,64,127
90930,note_off,100,0,0,,4,,,64,127
90930,note_off,0,0,0,,2,,,74,127
90931,note_on,1,0,0,,2,,,62,127
90931,note_on,0,0,0,,2,,,74,127
91031,note_off,100,0,0,,2,,,62,127
91032,note_on,1,0,0,,0,,,60,127
91132,note_off,100,0,0,,0,,,60,127
91132,note_off,0,0,0,,2,,,74,127
91133,note_on,1,0,0,,12,,,59,127
91133,note_on,0,0,0,,2,,,74,127
91233,note_off,100,0,0,,12,,,59,127
91234,note_on,1,0,0,,10,,,57,127
91333,note_off,99,0,0,,2,,,74,127
91334,note_off,1,0,0,,10,,,57,127
91335,note_on,1,0,0,,7,,,43,127
91436,note_on,101,0,0,,4,,,88,127
91536,note_off,100,0,0,,4,,,88,127
91537,note_on,1,0,0,,2,,,86,127
91637,note_off,100,0,0,,2,,,86,127
91638,note_on,1,0,0,,0,,,84,127
91735,note_off,97,0,0,,7,,,43,127
91738,note_off,3,0,0,,0,,,84,127
91739,note_on,1,0,0,,12,,,83,127
91839,note_off,100,0,0,,12,,,83,127
91840,note_on,1,0,0,,10,,,81,127
91940,note_off,100,0,0,,10,,,81,127
91941,note_on,1,0,0,,7,,,79,127
92041,note_off,100,0,0,,7,,,79,127
92042,note_on,1,0,0,,6,,,78,127
92142,note_off,100,0,0,,6,,,78,127
92143,note_on,1,0,0,,7,,,79,127
92244,note_on,101,0,0,,10,,,69,127
92344,note_off,100,0,0,,10,,,69,127
92344,note_off,0,0,0,,7,,,79,127
92345,note_on,1,0,0,,7,,,67,127
92345,note_on,0,0,0,,7,,,79,127
92445,note_off,100,0,0,,7,,,67,127
92446,note_on,1,0,0,,5,,,65,127
92546,note_off,100,0,0,,5,,,65,127
92546,note_off,0,0,0,,7,,,79,127
92547,note_on,1,0,0,,4,,,64,127
92547,note_on,0,0,0,,7,,,79,127
92647,note_off,100,0,0,,4,,,64,127
92648,note_on,1,0,0,,2,,,62,127
92748,note_off,100,0,0,,2,,,62,127
92748,note_off,0,0,0,,7,,,79,127
92749,note_on,1,0,0,,0,,,60,127
92749,note_on,0,0,0,,7,,,79,127
92849,note_off,100,0,0,,0,,,60,127
92850,note_on,1,0,0,,12,,,59,127
92949,note_off,99,0,0,,7,,,79,127
92950,note_off,1,0,0,,12,,,59,127
92955,note_on,5,0,0,,0,,,36,127
93056,note_on,101,0,0,,10,,,81,127
93156,note_off,100,0,0,,10,,,81,127
93157,note_on,1,0,0,,7,,,79,127
93257,note_off,100,0,0,,7,,,79,127
93258,note_on,1,0,0,,5,,,77,127
93355,note_off,97,0,0,,0,,,36,127
93358,note_off,3,0,0,,5,,,77,127
93359,note_on,1,0,0,,4,,,76,127
93459,note_off,100,0,0,,4,,,76,127
93460,note_on,1,0,0,,2,,,74,127
93560,note_off,100,0,0,,2,,,74,127
93561,note_on,1,0,0,,0,,,72,127
93561,note_on,0,0,0,,7,,,79,127
93561,note_on,0,0,0,,0,,,48,127
93661,note_off,100,0,0,,0,,,72,127
93662,note_on,1,0,0,,12,,,71,127
93762,note_off,100,0,0,,12,,,71,127
93762,note_off,0,0,0,,0,,,48,127
93763,note_on,1,0,0,,10,,,69,127
93763,note_on,0,0,0,,5,,,53,127
93856,note_off,93,0,0,,7,,,79,127
93864,note_on,8,0,0,,5,,,77,127
93964,note_off,100,0,0,,5,,,77,127
93964,note_off,0,0,0,,5,,,53,127
93965,note_on,1,0,0,,4,,,76,127
93965,note_on,0,0,0,,5,,,41,127
94058,note_off,93,0,0,,10,,,69,127
94065,note_off,7,0,0,,4,,,76,127
94066,note_on,1,0,0,,2,,,74,127
94166,note_off,100,0,0,,2,,,74,127
94166,note_off,0,0,0,,5,,,41,127
94167,note_on,1,0,0,,4,,,76,127
94167,note_on,0,0,0,,7,,,79,127
94167,note_on,0,0,0,,7,,,55,127
94267,note_off,100,0,0,,4,,,76,127
94268,note_on,1,0,0,,0,,,72,127
94368,note_off,100,0,0,,0,,,72,127
94368,note_off,0,0,0,,7,,,55,127
94369,note_on,1,0,0,,2,,,74,127
94369,note_on,0,0,0,,7,,,43,127
94473,note_off,104,0,0,,2,,,74,127
94475,note_on,2,0,0,,12,,,71,127
94567,note_off,92,0,0,,7,,,79,127
94573,note_off,6,0,0,,7,,,43,127
94579,note_off,6,0,0,,12,,,71,127
94587,note_on,8,0,0,,0,,,48,127
94587,note_on,0,0,0,,0,,,72,127
94687,note_off,100,0,0,,0,,,72,127
94688,note_on,1,0,0,,12,,,83,127
94788,note_off,100,0,0,,12,,,83,127
94788,note_off,0,0,0,,0,,,48,127
94789,note_on,1,0,0,,0,,,60,127
94789,note_on,0,0,0,,0,,,84,127
94889,note_off,100,0,0,,0,,,84,127
94890,note_on,1,0,0,,10,,,81,127
94990,note_off,100,0,0,,10,,,81,127
94990,note_off,0,0,0,,0,,,60,127
94991,note_on,1,0,0,,12,,,59,127
94991,note_on,0,0,0,,2,,,86,127
94991,note_on,0,0,0,,7,,,79,127
95086,note_off,95,0,0,,7,,,79,127
95092,note_on,6,0,0,,7,,,79,127
95187,note_off,95,0,0,,7,,,79,127
95192,note_off,5,0,0,,12,,,59,127
95193,note_on,1,0,0,,7,,,55,127
95193,note_on,0,0,0,,7,,,79,127
95293,note_off,100,0,0,,7,,,79,127
95294,note_on,1,0,0,,5,,,77,127
95391,note_off,97,0,0,,2,,,86,127
95394,note_off,3,0,0,,5,,,77,127
95394,note_off,0,0,0,,7,,,55,127
95397,note_on,3,0,0,,0,,,48,127
95397,note_on,0,0,0,,4,,,76,127
95497,note_off,100,0,0,,4,,,76,127
95498,note_on,1,0,0,,12,,,83,127
95598,note_off,100,0,0,,12,,,83,127
95598,note_off,0,0,0,,0,,,48,127
95599,note_on,1,0,0,,0,,,60,127
95599,note_on,0,0,0,,0,,,84,127
95699,note_off,100,0,0,,0,,,84,127
95700,note_on,1,0,0,,10,,,81,127
95800,note_off,100,0,0,,10,,,81,127
95800,note_off,0,0,0,,0,,,60,127
95801,note_on,1,0,0,,12,,,59,127
95801,note_on,0,0,0,,2,,,86,127
95801,note_on,0,0,0,,7,,,79,127
95896,note_off,95,0,0,,7,,,79,127
95902,note_on,6,0,0,,7,,,79,127
95997,note_off,95,0,0,,7,,,79,127
96002,note_off,5,0,0,,12,,,59,127
96003,note_on,1,0,0,,7,,,55,127
96003,note_on,0,0,0,,7,,,79,127
96103,note_off,100,0,0,,7,,,79,127
96104,note_on,1,0,0,,5,,,77,127
96201,note_off,97,0,0,,2,,,86,127
96204,note_off,3,0,0,,5,,,77,127
96204,note_off,0,0,0,,7,,,55,127
96210,note_on,6,0,0,,4,,,76,127
96210,note_on,0,0,0,,0,,,48,127
96310,note_off,100,0,0,,4,,,76,127
96311,note_on,1,0,0,,12,,,83,127
96411,note_off,100,0,0,,12,,,83,127
96411,note_off,0,0,0,,0,,,48,127
96412,note_on,1,0,0,,0,,,84,127
96412,note_on,0,0,0,,0,,,60,127
96512,note_off,100,0,0,,0,,,84,127
96513,note_on,1,0,0,,10,,,81,127
96613,note_off,100,0,0,,10,,,81,127
96613,note_off,0,0,0,,0,,,60,127
96614,note_on,1,0,0,,7,,,79,127
96614,note_on,0,0,0,,2,,,86,127
96614,note_on,0,0,0,,12,,,59,127
96709,note_off,95,0,0,,7,,,79,127
96715,note_on,6,0,0,,7,,,79,127
96810,note_off,95,0,0,,7,,,79,127
96815,note_off,5,0,0,,12,,,59,127
96816,note_on,1,0,0,,7,,,79,127
96816,note_on,0,0,0,,7,,,55,127
96909,note_off,93,0,0,,2,,,86,127
96916,note_off,7,0,0,,7,,,79,127
96917,note_on,1,0,0,,5,,,77,127
97017,note_off,100,0,0,,5,,,77,127
97017,note_off,0,0,0,,7,,,55,127
97018,note_on,1,0,0,,4,,,76,127
97018,note_on,0,0,0,,0,,,60,127
97118,note_off,100,0,0,,4,,,76,127
97119,note_on,1,0,0,,7,,,79,127
97219,note_off,100,0,0,,7,,,79,127
97219,note_off,0,0,0,,0,,,60,127
97220,note_on,1,0,0,,5,,,77,127
97220,note_on,0,0,0,,5,,,53,127
97320,note_off,100,0,0,,5,,,77,127
97321,note_on,1,0,0,,10,,,81,127
97421,note_off,100,0,0,,10,,,81,127
97421,note_off,0,0,0,,5,,,53,127
97422,note_on,1,0,0,,7,,,79,127
97422,note_on,0,0,0,,7,,,55,127
97522,note_off,100,0,0,,7,,,79,127
97523,note_on,1,0,0,,5,,,77,127
97623,note_off,100,0,0,,5,,,77,127
97623,note_off,0,0,0,,7,,,55,127
97624,note_on,1,0,0,,4,,,76,127
97624,note_on,0,0,0,,7,,,43,127
97724,note_off,100,0,0,,4,,,76,127
97725,note_on,1,0,0,,2,,,74,127
97825,note_off,100,0,0,,2,,,74,127
97825,note_off,0,0,0,,7,,,43,127
97826,note_on,1,0,0,,0,,,72,127
97826,note_on,0,0,0,,0,,,36,127
97935,note_on,109,0,0,,12,,,71,127
97937,note_off,2,0,0,,0,,,72,127
98026,note_off,89,0,0,,0,,,36,127
98034,note_off,8,0,0,,12,,,71,127
98035,note_on,1,0,0,,0,,,72,127
98035,note_on,0,0,0,,0,,,48,127
98135,note_off,100,0,0,,0,,,72,127
98136,note_on,1,0,0,,10,,,69,127
98236,note_off,100,0,0,,10,,,69,127
98236,note_off,0,0,0,,0,,,48,127
98237,note_on,1,0,0,,2,,,74,127
98237,note_on,0,0,0,,7,,,67,127
98237,note_on,0,0,0,,12,,,47,127
98332,note_off,95,0,0,,7,,,67,127
98338,note_on,6,0,0,,7,,,67,127
98433,note_off,95,0,0,,7,,,67,127
98438,note_off,5,0,0,,12,,,47,127
98439,note_on,1,0,0,,7,,,67,127
98439,note_on,0,0,0,,7,,,43,127
98543,note_off,104,0,0,,7,,,67,127
98544,note_on,1,0,0,,5,,,65,127
98637,note_off,93,0,0,,2,,,74,127
98640,note_off,3,0,0,,7,,,43,127
98648,note_off,8,0,0,,5,,,65,127
98649,note_on,1,0,0,,4,,,64,127
98649,note_on,0,0,0,,0,,,36,127
98749,note_off,100,0,0,,4,,,64,127
98750,note_on,1,0,0,,12,,,71,127
98850,note_off,100,0,0,,12,,,71,127
98850,note_off,0,0,0,,0,,,36,127
98851,note_on,1,0,0,,0,,,72,127
98851,note_on,0,0,0,,0,,,48,127
98951,note_off,100,0,0,,0,,,72,127
98952,note_on,1,0,0,,10,,,69,127
99052,note_off,100,0,0,,10,,,69,127
99052,note_off,0,0,0,,0,,,48,127
99053,note_on,1,0,0,,2,,,74,127
99053,note_on,0,0,0,,7,,,67,127
99053,note_on,0,0,0,,12,,,47,127
99148,note_off,95,0,0,,7,,,67,127
99154,note_on,6,0,0,,7,,,67,127
99249,note_off,95,0,0,,7,,,67,127
99254,note_off,5,0,0,,12,,,47,127
99255,note_on,1,0,0,,7,,,67,127
99255,note_on,0,0,0,,7,,,43,127
99359,note_off,104,0,0,,7,,,67,127
99360,note_on,1,0,0,,5,,,65,127
99453,note_off,93,0,0,,2,,,74,127
99456,note_off,3,0,0,,7,,,43,127
99464,note_off,8,0,0,,5,,,65,127
99465,note_on,1,0,0,,4,,,64,127
99465,note_on,0,0,0,,0,,,36,127
99565,note_off,100,0,0,,4,,,64,127
99566,note_on,1,0,0,,12,,,71,127
99666,note_off,100,0,0,,12,,,71,127
99666,note_off,0,0,0,,0,,,36,127
99667,note_on,1,0,0,,0,,,72,127
99667,note_on,0,0,0,,0,,,48,127
99767,note_off,100,0,0,,0,,,72,127
99768,note_on,1,0,0,,10,,,69,127
99868,note_off,100,0,0,,10,,,69,127
99868,note_off,0,0,0,,0,,,48,127
99869,note_on,1,0,0,,7,,,67,127
99869,note_on,0,0,0,,2,,,74,127
99869,note_on,0,0,0,,12,,,47,127
99964,note_off,95,0,0,,7,,,67,127
99970,note_on,6,0,0,,7,,,67,127
100065,note_off,95,0,0,,7,,,67,127
100070,note_off,5,0,0,,12,,,47,127
100071,note_on,1,0,0,,7,,,67,127
100071,note_on,0,0,0,,7,,,43,127
100164,note_off,93,0,0,,2,,,74,127
100171,note_off,7,0,0,,7,,,67,127
100172,note_on,1,0,0,,5,,,65,127
100284,note_off,112,0,0,,7,,,43,127
100285,note_on,1,0,0,,0,,,36,127
100285,note_on,0,0,0,,4,,,64,127
100289,note_off,4,0,0,,5,,,65,127
100385,note_off,96,0,0,,4,,,64,127
100391,note_on,6,0,0,,7,,,67,127
100486,note_off,95,0,0,,0,,,36,127
100491,note_off,5,0,0,,7,,,67,127
100492,note_on,1,0,0,,5,,,41,127
100492,note_on,0,0,0,,5,,,65,127
100592,note_off,100,0,0,,5,,,65,127
100593,note_on,1,0,0,,10,,,69,127
100693,note_off,100,0,0,,10,,,69,127
100693,note_off,0,0,0,,5,,,41,127
100694,note_on,1,0,0,,7,,,43,127
100694,note_on,0,0,0,,7,,,67,127
100794,note_off,100,0,0,,7,,,67,127
100795,note_on,1,0,0,,5,,,65,127
100895,note_off,100,0,0,,5,,,65,127
100895,note_off,0,0,0,,7,,,43,127
100896,note_on,1,0,0,,7,,,31,127
100896,note_on,0,0,0,,4,,,64,127
100996,note_off,100,0,0,,4,,,64,127
100997,note_on,1,0,0,,2,,,62,127
101097,note_off,100,0,0,,2,,,62,127
101097,note_off,0,0,0,,7,,,31,127
101104,note_on,7,0,0,,0,,,60,127
101104,note_on,0,0,0,,0,,,36,127
101232,note_on,128,0,0,,4,,,64,127
101304,note_off,72,0,0,,0,,,60,127
101332,note_off,28,0,0,,4,,,64,127
101333,note_on,1,0,0,,0,,,60,127
101433,note_off,100,0,0,,0,,,60,127
101434,note_on,1,0,0,,7,,,67,127
101507,note_off,73,0,0,,0,,,36,127
101534,note_off,27,0,0,,7,,,67,127
101535,note_on,1,0,0,,0,,,36,127
101535,note_on,0,0,0,,4,,,64,127
101635,note_off,100,0,0,,4,,,64,127
101636,note_on,1,0,0,,0,,,72,127
101736,note_off,100,0,0,,0,,,72,127
101737,note_on,1,0,0,,7,,,67,127
101837,note_off,100,0,0,,7,,,67,127
101838,note_on,1,0,0,,4,,,76,127
101924,note_off,86,0,0,,0,,,36,127
101938,note_off,14,0,0,,4,,,76,127
101939,note_on,1,0,0,,0,,,36,127
101939,note_on,0,0,0,,0,,,72,127
102039,note_off,100,0,0,,0,,,72,127
102040,note_on,1,0,0,,7,,,79,127
102140,note_off,100,0,0,,7,,,79,127
102141,note_on,1,0,0,,4,,,76,127
102241,note_off,100,0,0,,4,,,76,127
102242,note_on,1,0,0,,0,,,84,127
102328,note_off,86,0,0,,0,,,36,127
102342,note_off,14,0,0,,0,,,84,127
102343,note_on,1,0,0,,0,,,36,127
102343,note_on,0,0,0,,7,,,79,127
102443,note_off,100,0,0,,7,,,79,127
102444,note_on,1,0,0,,4,,,76,127
102544,note_off,100,0,0,,4,,,76,127
102545,note_on,1,0,0,,0,,,72,127
102645,note_off,100,0,0,,0,,,72,127
102646,note_on,1,0,0,,7,,,67,127
102746,note_off,100,0,0,,7,,,67,127
102746,note_off,0,0,0,,0,,,36,127
102764,note_on,18,0,0,,0,,,72,127
102764,note_on,0,0,0,,0,,,36,127
104869,note_off,2105,0,0,,0,,,36,127
104869,note_off,0,0,0,,0,,,72,127
107520,end_of_track,2651,1,0,,,,,,
