tick,type,time,meta,track,program,channel,pitch,tempo,note,velocity
0,copyright,0,1,0,,,,,,
0,program_change,0,0,0,6,0,,,,
0,pitchwheel,0,0,0,,0,0,,,
0,program_change,0,0,0,6,1,,,,
0,pitchwheel,0,0,0,,1,-590,,,
0,program_change,0,0,0,6,2,,,,
0,pitchwheel,0,0,0,,2,-272,,,
0,program_change,0,0,0,6,3,,,,
0,pitchwheel,0,0,0,,3,-353,,,
0,program_change,0,0,0,6,4,,,,
0,pitchwheel,0,0,0,,4,-560,,,
0,program_change,0,0,0,6,5,,,,
0,pitchwheel,0,0,0,,5,-80,,,
0,program_change,0,0,0,6,6,,,,
0,pitchwheel,0,0,0,,6,-625,,,
0,program_change,0,0,0,6,7,,,,
0,pitchwheel,0,0,0,,7,-130,,,
0,program_change,0,0,0,6,8,,,,
0,pitchwheel,0,0,0,,8,-512,,,
0,program_change,0,0,0,6,10,,,,
0,pitchwheel,0,0,0,,10,-464,,,
0,program_change,0,0,0,6,11,,,,
0,pitchwheel,0,0,0,,11,-208,,,
0,program_change,0,0,0,6,12,,,,
0,pitchwheel,0,0,0,,12,-553,,,
0,set_tempo,0,1,0,,,,500000,,
89,note_on,89,0,0,,0,,,60,127
89,note_on,0,0,0,,5,,,65,127
133,note_on,44,0,0,,4,,,64,127
148,note_off,15,0,0,,5,,,65,127
178,note_on,30,0,0,,5,,,65,127
193,note_off,15,0,0,,4,,,64,127
223,note_on,30,0,0,,4,,,64,127
238,note_off,15,0,0,,5,,,65,127
268,note_on,30,0,0,,2,,,62,127
283,note_off,15,0,0,,4,,,64,127
445,note_off,162,0,0,,2,,,62,127
446,note_on,1,0,0,,4,,,64,127
612,note_off,166,0,0,,4,,,64,127
622,note_off,10,0,0,,0,,,60,127
623,note_on,1,0,0,,7,,,55,127
623,note_on,0,0,0,,4,,,64,127
667,note_on,44,0,0,,2,,,62,127
682,note_off,15,0,0,,4,,,64,127
712,note_on,30,0,0,,4,,,64,127
727,note_off,15,0,0,,2,,,62,127
757,note_on,30,0,0,,2,,,62,127
772,note_off,15,0,0,,4,,,64,127
802,note_on,30,0,0,,0,,,60,127
817,note_off,15,0,0,,2,,,62,127
979,note_off,162,0,0,,0,,,60,127
980,note_on,1,0,0,,2,,,62,127
1146,note_off,166,0,0,,2,,,62,127
1156,note_off,10,0,0,,7,,,55,127
1157,note_on,1,0,0,,4,,,52,127
1157,note_on,0,0,0,,2,,,62,127
1201,note_on,44,0,0,,0,,,60,127
1216,note_off,15,0,0,,2,,,62,127
1246,note_on,30,0,0,,2,,,62,127
1261,note_off,15,0,0,,0,,,60,127
1291,note_on,30,0,0,,0,,,60,127
1306,note_off,15,0,0,,2,,,62,127
1336,note_on,30,0,0,,12,,,59,127
1351,note_off,15,0,0,,0,,,60,127
1513,note_off,162,0,0,,12,,,59,127
1514,note_on,1,0,0,,0,,,60,127
1680,note_off,166,0,0,,0,,,60,127
1690,note_off,10,0,0,,4,,,52,127
1691,note_on,1,0,0,,7,,,55,127
1691,note_on,0,0,0,,4,,,64,127
1735,note_on,44,0,0,,2,,,62,127
1750,note_off,15,0,0,,4,,,64,127
1780,note_on,30,0,0,,4,,,64,127
1795,note_off,15,0,0,,2,,,62,127
1825,note_on,30,0,0,,2,,,62,127
1840,note_off,15,0,0,,4,,,64,127
1870,note_on,30,0,0,,0,,,60,127
1885,note_off,15,0,0,,2,,,62,127
2047,note_off,162,0,0,,0,,,60,127
2048,note_on,1,0,0,,2,,,62,127
2214,note_off,166,0,0,,2,,,62,127
2224,note_off,10,0,0,,7,,,55,127
2225,note_on,1,0,0,,0,,,60,127
2225,note_on,0,0,0,,5,,,65,127
2269,note_on,44,0,0,,4,,,64,127
2284,note_off,15,0,0,,5,,,65,127
2314,note_on,30,0,0,,5,,,65,127
2329,note_off,15,0,0,,4,,,64,127
2359,note_on,30,0,0,,4,,,64,127
2374,note_off,15,0,0,,5,,,65,127
2404,note_on,30,0,0,,2,,,62,127
2419,note_off,15,0,0,,4,,,64,127
2581,note_off,162,0,0,,2,,,62,127
2582,note_on,1,0,0,,4,,,64,127
2748,note_off,166,0,0,,4,,,64,127
2758,note_off,10,0,0,,0,,,60,127
2759,note_on,1,0,0,,7,,,55,127
2759,note_on,0,0,0,,4,,,64,127
2803,note_on,44,0,0,,2,,,62,127
2818,note_off,15,0,0,,4,,,64,127
2848,note_on,30,0,0,,4,,,64,127
2863,note_off,15,0,0,,2,,,62,127
2893,note_on,30,0,0,,2,,,62,127
2908,note_off,15,0,0,,4,,,64,127
2938,note_on,30,0,0,,0,,,60,127
2953,note_off,15,0,0,,2,,,62,127
3115,note_off,162,0,0,,0,,,60,127
3116,note_on,1,0,0,,2,,,62,127
3282,note_off,166,0,0,,2,,,62,127
3292,note_off,10,0,0,,7,,,55,127
3293,note_on,1,0,0,,4,,,52,127
3293,note_on,0,0,0,,0,,,60,127
3469,note_off,176,0,0,,0,,,60,127
3470,note_on,1,0,0,,7,,,55,127
3646,note_off,176,0,0,,7,,,55,127
3647,note_on,1,0,0,,0,,,60,127
3823,note_off,176,0,0,,0,,,60,127
3823,note_off,0,0,0,,4,,,52,127
3824,note_on,1,0,0,,4,,,52,127
3824,note_on,0,0,0,,0,,,60,127
4000,note_off,176,0,0,,0,,,60,127
4001,note_on,1,0,0,,7,,,55,127
4177,note_off,176,0,0,,7,,,55,127
4178,note_on,1,0,0,,0,,,60,127
4354,note_off,176,0,0,,0,,,60,127
4354,note_off,0,0,0,,4,,,52,127
4384,note_on,30,0,0,,0,,,48,127
4384,note_on,0,0,0,,7,,,43,127
4384,note_on,0,0,0,,0,,,36,127
4384,note_on,0,0,0,,0,,,72,127
4384,note_on,0,0,0,,7,,,67,127
4384,note_on,0,0,0,,5,,,41,127
4384,note_on,0,0,0,,5,,,77,127
4428,note_on,44,0,0,,4,,,76,127
4443,note_off,15,0,0,,5,,,77,127
4473,note_on,30,0,0,,5,,,77,127
4488,note_off,15,0,0,,4,,,76,127
4518,note_on,30,0,0,,4,,,76,127
4533,note_off,15,0,0,,5,,,77,127
4563,note_on,30,0,0,,2,,,74,127
4578,note_off,15,0,0,,4,,,76,127
4740,note_off,162,0,0,,2,,,74,127
4741,note_on,1,0,0,,4,,,76,127
4913,note_off,172,0,0,,5,,,41,127
4913,note_off,0,0,0,,7,,,67,127
4913,note_off,0,0,0,,0,,,72,127
4913,note_off,0,0,0,,0,,,36,127
4913,note_off,0,0,0,,7,,,43,127
4913,note_off,0,0,0,,0,,,48,127
4918,note_off,5,0,0,,4,,,76,127
4919,note_on,1,0,0,,7,,,67,127
4919,note_on,0,0,0,,7,,,43,127
4919,note_on,0,0,0,,2,,,50,127
4919,note_on,0,0,0,,7,,,55,127
4919,note_on,0,0,0,,0,,,48,127
4919,note_on,0,0,0,,4,,,76,127
4963,note_on,44,0,0,,2,,,74,127
4978,note_off,15,0,0,,4,,,76,127
5008,note_on,30,0,0,,4,,,76,127
5023,note_off,15,0,0,,2,,,74,127
5053,note_on,30,0,0,,2,,,74,127
5068,note_off,15,0,0,,4,,,76,127
5098,note_on,30,0,0,,0,,,72,127
5113,note_off,15,0,0,,2,,,74,127
5275,note_off,162,0,0,,0,,,72,127
5276,note_on,1,0,0,,2,,,74,127
5448,note_off,172,0,0,,0,,,48,127
5448,note_off,0,0,0,,7,,,55,127
5448,note_off,0,0,0,,2,,,50,127
5448,note_off,0,0,0,,7,,,43,127
5448,note_off,0,0,0,,7,,,67,127
5453,note_off,5,0,0,,2,,,74,127
5454,note_on,1,0,0,,0,,,36,127
5454,note_on,0,0,0,,0,,,48,127
5454,note_on,0,0,0,,7,,,43,127
5454,note_on,0,0,0,,4,,,64,127
5454,note_on,0,0,0,,5,,,41,127
5454,note_on,0,0,0,,2,,,74,127
5498,note_on,44,0,0,,0,,,72,127
5513,note_off,15,0,0,,2,,,74,127
5543,note_on,30,0,0,,2,,,74,127
5558,note_off,15,0,0,,0,,,72,127
5588,note_on,30,0,0,,0,,,72,127
5603,note_off,15,0,0,,2,,,74,127
5633,note_on,30,0,0,,12,,,71,127
5648,note_off,15,0,0,,0,,,72,127
5810,note_off,162,0,0,,12,,,71,127
5811,note_on,1,0,0,,0,,,72,127
5983,note_off,172,0,0,,5,,,41,127
5983,note_off,0,0,0,,4,,,64,127
5983,note_off,0,0,0,,7,,,43,127
5983,note_off,0,0,0,,0,,,48,127
5983,note_off,0,0,0,,0,,,36,127
5988,note_off,5,0,0,,0,,,72,127
5989,note_on,1,0,0,,7,,,67,127
5989,note_on,0,0,0,,7,,,55,127
5989,note_on,0,0,0,,2,,,50,127
5989,note_on,0,0,0,,7,,,43,127
5989,note_on,0,0,0,,0,,,48,127
5989,note_on,0,0,0,,4,,,76,127
6033,note_on,44,0,0,,2,,,74,127
6048,note_off,15,0,0,,4,,,76,127
6078,note_on,30,0,0,,4,,,76,127
6093,note_off,15,0,0,,2,,,74,127
6123,note_on,30,0,0,,2,,,74,127
6138,note_off,15,0,0,,4,,,76,127
6168,note_on,30,0,0,,0,,,72,127
6183,note_off,15,0,0,,2,,,74,127
6345,note_off,162,0,0,,0,,,72,127
6346,note_on,1,0,0,,2,,,74,127
6518,note_off,172,0,0,,0,,,48,127
6518,note_off,0,0,0,,7,,,43,127
6518,note_off,0,0,0,,2,,,50,127
6518,note_off,0,0,0,,7,,,55,127
6518,note_off,0,0,0,,7,,,67,127
6523,note_off,5,0,0,,2,,,74,127
6524,note_on,1,0,0,,7,,,43,127
6524,note_on,0,0,0,,0,,,36,127
6524,note_on,0,0,0,,0,,,72,127
6524,note_on,0,0,0,,0,,,48,127
6524,note_on,0,0,0,,5,,,41,127
6524,note_on,0,0,0,,5,,,77,127
6568,note_on,44,0,0,,4,,,76,127
6583,note_off,15,0,0,,5,,,77,127
6613,note_on,30,0,0,,5,,,77,127
6628,note_off,15,0,0,,4,,,76,127
6658,note_on,30,0,0,,4,,,76,127
6673,note_off,15,0,0,,5,,,77,127
6703,note_on,30,0,0,,2,,,74,127
6718,note_off,15,0,0,,4,,,76,127
6880,note_off,162,0,0,,2,,,74,127
6881,note_on,1,0,0,,4,,,76,127
7053,note_off,172,0,0,,5,,,41,127
7053,note_off,0,0,0,,0,,,48,127
7053,note_off,0,0,0,,0,,,72,127
7053,note_off,0,0,0,,0,,,36,127
7053,note_off,0,0,0,,7,,,43,127
7058,note_off,5,0,0,,4,,,76,127
7059,note_on,1,0,0,,2,,,50,127
7059,note_on,0,0,0,,7,,,43,127
7059,note_on,0,0,0,,7,,,67,127
7059,note_on,0,0,0,,7,,,55,127
7059,note_on,0,0,0,,0,,,48,127
7059,note_on,0,0,0,,4,,,76,127
7103,note_on,44,0,0,,2,,,74,127
7118,note_off,15,0,0,,4,,,76,127
7148,note_on,30,0,0,,4,,,76,127
7163,note_off,15,0,0,,2,,,74,127
7193,note_on,30,0,0,,2,,,74,127
7208,note_off,15,0,0,,4,,,76,127
7238,note_on,30,0,0,,0,,,72,127
7253,note_off,15,0,0,,2,,,74,127
7415,note_off,162,0,0,,0,,,72,127
7416,note_on,1,0,0,,2,,,74,127
7588,note_off,172,0,0,,0,,,48,127
7588,note_off,0,0,0,,7,,,55,127
7588,note_off,0,0,0,,7,,,67,127
7588,note_off,0,0,0,,7,,,43,127
7588,note_off,0,0,0,,2,,,50,127
7593,note_off,5,0,0,,2,,,74,127
7594,note_on,1,0,0,,0,,,36,127
7594,note_on,0,0,0,,0,,,48,127
7594,note_on,0,0,0,,7,,,43,127
7594,note_on,0,0,0,,4,,,64,127
7594,note_on,0,0,0,,5,,,41,127
7594,note_on,0,0,0,,0,,,72,127
7770,note_off,176,0,0,,0,,,72,127
7771,note_on,1,0,0,,7,,,67,127
7947,note_off,176,0,0,,7,,,67,127
7948,note_on,1,0,0,,0,,,72,127
8120,note_off,172,0,0,,5,,,41,127
8120,note_off,0,0,0,,4,,,64,127
8120,note_off,0,0,0,,7,,,43,127
8120,note_off,0,0,0,,0,,,48,127
8120,note_off,0,0,0,,0,,,36,127
8125,note_off,5,0,0,,0,,,72,127
8126,note_on,1,0,0,,0,,,36,127
8126,note_on,0,0,0,,4,,,64,127
8126,note_on,0,0,0,,0,,,48,127
8126,note_on,0,0,0,,7,,,43,127
8126,note_on,0,0,0,,5,,,41,127
8126,note_on,0,0,0,,0,,,72,127
8302,note_off,176,0,0,,0,,,72,127
8307,note_on,5,0,0,,7,,,67,127
8483,note_off,176,0,0,,7,,,67,127
8488,note_on,5,0,0,,0,,,72,127
8663,note_off,175,0,0,,0,,,72,127
8687,note_on,24,0,0,,0,,,60,127
8687,note_on,0,0,0,,0,,,72,127
8717,note_off,30,0,0,,5,,,41,127
8717,note_off,0,0,0,,7,,,43,127
8717,note_off,0,0,0,,0,,,48,127
8717,note_off,0,0,0,,4,,,64,127
8717,note_off,0,0,0,,0,,,36,127
8864,note_off,147,0,0,,0,,,60,127
8865,note_on,1,0,0,,0,,,60,127
9041,note_off,176,0,0,,0,,,60,127
9042,note_on,1,0,0,,4,,,64,127
9218,note_off,176,0,0,,4,,,64,127
9219,note_on,1,0,0,,0,,,60,127
9395,note_off,176,0,0,,0,,,60,127
9395,note_off,0,0,0,,0,,,72,127
9396,note_on,1,0,0,,0,,,60,127
9396,note_on,0,0,0,,0,,,72,127
9440,note_on,44,0,0,,12,,,71,127
9455,note_off,15,0,0,,0,,,72,127
9485,note_on,30,0,0,,0,,,72,127
9500,note_off,15,0,0,,12,,,71,127
9530,note_on,30,0,0,,12,,,71,127
9545,note_off,15,0,0,,0,,,72,127
9574,note_off,29,0,0,,0,,,60,127
9575,note_on,1,0,0,,5,,,65,127
9575,note_on,0,0,0,,10,,,69,127
9590,note_off,15,0,0,,12,,,71,127
9752,note_off,162,0,0,,5,,,65,127
9753,note_on,1,0,0,,0,,,60,127
9929,note_off,176,0,0,,0,,,60,127
9929,note_off,0,0,0,,10,,,69,127
9930,note_on,1,0,0,,0,,,60,127
9930,note_on,0,0,0,,2,,,74,127
9974,note_on,44,0,0,,0,,,72,127
9989,note_off,15,0,0,,2,,,74,127
10019,note_on,30,0,0,,2,,,74,127
10034,note_off,15,0,0,,0,,,72,127
10064,note_on,30,0,0,,0,,,72,127
10079,note_off,15,0,0,,2,,,74,127
10108,note_off,29,0,0,,0,,,60,127
10109,note_on,1,0,0,,7,,,67,127
10109,note_on,0,0,0,,12,,,71,127
10124,note_off,15,0,0,,0,,,72,127
10286,note_off,162,0,0,,7,,,67,127
10287,note_on,1,0,0,,0,,,60,127
10463,note_off,176,0,0,,0,,,60,127
10463,note_off,0,0,0,,12,,,71,127
10464,note_on,1,0,0,,0,,,60,127
10464,note_on,0,0,0,,4,,,76,127
10508,note_on,44,0,0,,2,,,74,127
10523,note_off,15,0,0,,4,,,76,127
10553,note_on,30,0,0,,4,,,76,127
10568,note_off,15,0,0,,2,,,74,127
10598,note_on,30,0,0,,2,,,74,127
10613,note_off,15,0,0,,4,,,76,127
10642,note_off,29,0,0,,0,,,60,127
10643,note_on,1,0,0,,10,,,69,127
10643,note_on,0,0,0,,0,,,72,127
10658,note_off,15,0,0,,2,,,74,127
10820,note_off,162,0,0,,10,,,69,127
10821,note_on,1,0,0,,0,,,60,127
10997,note_off,176,0,0,,0,,,60,127
10997,note_off,0,0,0,,0,,,72,127
10998,note_on,1,0,0,,0,,,60,127
10998,note_on,0,0,0,,5,,,77,127
11042,note_on,44,0,0,,4,,,76,127
11057,note_off,15,0,0,,5,,,77,127
11087,note_on,30,0,0,,5,,,77,127
11102,note_off,15,0,0,,4,,,76,127
11132,note_on,30,0,0,,4,,,76,127
11147,note_off,15,0,0,,5,,,77,127
11176,note_off,29,0,0,,0,,,60,127
11177,note_on,1,0,0,,12,,,71,127
11177,note_on,0,0,0,,2,,,74,127
11192,note_off,15,0,0,,4,,,76,127
11354,note_off,162,0,0,,12,,,71,127
11355,note_on,1,0,0,,0,,,60,127
11531,note_off,176,0,0,,0,,,60,127
11531,note_off,0,0,0,,2,,,74,127
11532,note_on,1,0,0,,0,,,60,127
11532,note_on,0,0,0,,7,,,79,127
11576,note_on,44,0,0,,5,,,77,127
11591,note_off,15,0,0,,7,,,79,127
11621,note_on,30,0,0,,7,,,79,127
11636,note_off,15,0,0,,5,,,77,127
11666,note_on,30,0,0,,5,,,77,127
11681,note_off,15,0,0,,7,,,79,127
11710,note_off,29,0,0,,0,,,60,127
11711,note_on,1,0,0,,0,,,72,127
11711,note_on,0,0,0,,4,,,76,127
11726,note_off,15,0,0,,5,,,77,127
11888,note_off,162,0,0,,0,,,72,127
11889,note_on,1,0,0,,0,,,60,127
12065,note_off,176,0,0,,0,,,60,127
12065,note_off,0,0,0,,4,,,76,127
12066,note_on,1,0,0,,0,,,60,127
12066,note_on,0,0,0,,12,,,83,127
12110,note_on,44,0,0,,10,,,81,127
12125,note_off,15,0,0,,12,,,83,127
12155,note_on,30,0,0,,12,,,83,127
12170,note_off,15,0,0,,10,,,81,127
12200,note_on,30,0,0,,10,,,81,127
12215,note_off,15,0,0,,12,,,83,127
12244,note_off,29,0,0,,0,,,60,127
12245,note_on,1,0,0,,0,,,72,127
12245,note_on,0,0,0,,7,,,79,127
12260,note_off,15,0,0,,10,,,81,127
12422,note_off,162,0,0,,0,,,72,127
12423,note_on,1,0,0,,4,,,64,127
12599,note_off,176,0,0,,4,,,64,127
12599,note_off,0,0,0,,7,,,79,127
12600,note_on,1,0,0,,2,,,62,127
12600,note_on,0,0,0,,5,,,77,127
12776,note_off,176,0,0,,5,,,77,127
12776,note_off,0,0,0,,2,,,62,127
12777,note_on,1,0,0,,0,,,60,127
12777,note_on,0,0,0,,4,,,76,127
12953,note_off,176,0,0,,0,,,60,127
12954,note_on,1,0,0,,5,,,65,127
12998,note_on,44,0,0,,2,,,74,127
13007,note_off,9,0,0,,4,,,76,127
13042,note_on,35,0,0,,4,,,76,127
13057,note_off,15,0,0,,2,,,74,127
13087,note_on,30,0,0,,2,,,74,127
13102,note_off,15,0,0,,4,,,76,127
13131,note_off,29,0,0,,5,,,65,127
13132,note_on,1,0,0,,7,,,67,127
13132,note_on,0,0,0,,0,,,72,127
13147,note_off,15,0,0,,2,,,74,127
13309,note_off,162,0,0,,0,,,72,127
13309,note_off,0,0,0,,7,,,67,127
13310,note_on,1,0,0,,7,,,55,127
13310,note_on,0,0,0,,12,,,71,127
13486,note_off,176,0,0,,12,,,71,127
13486,note_off,0,0,0,,7,,,55,127
13487,note_on,1,0,0,,10,,,57,127
13487,note_on,0,0,0,,2,,,74,127
13531,note_on,44,0,0,,0,,,72,127
13546,note_off,15,0,0,,2,,,74,127
13576,note_on,30,0,0,,2,,,74,127
13591,note_off,15,0,0,,0,,,72,127
13621,note_on,30,0,0,,0,,,72,127
13636,note_off,15,0,0,,2,,,74,127
13666,note_on,30,0,0,,12,,,71,127
13681,note_off,15,0,0,,0,,,72,127
13843,note_off,162,0,0,,12,,,71,127
13843,note_off,0,0,0,,10,,,57,127
13844,note_on,1,0,0,,6,,,66,127
13844,note_on,0,0,0,,0,,,72,127
14020,note_off,176,0,0,,0,,,72,127
14020,note_off,0,0,0,,6,,,66,127
14021,note_on,1,0,0,,7,,,55,127
14021,note_on,0,0,0,,2,,,74,127
14197,note_off,176,0,0,,7,,,55,127
14198,note_on,1,0,0,,7,,,55,127
14374,note_off,176,0,0,,7,,,55,127
14375,note_on,1,0,0,,12,,,59,127
14551,note_off,176,0,0,,12,,,59,127
14552,note_on,1,0,0,,7,,,55,127
14666,note_off,114,0,0,,2,,,74,127
14728,note_off,62,0,0,,7,,,55,127
14729,note_on,1,0,0,,7,,,55,127
14729,note_on,0,0,0,,7,,,67,127
14773,note_on,44,0,0,,5,,,65,127
14788,note_off,15,0,0,,7,,,67,127
14818,note_on,30,0,0,,7,,,67,127
14833,note_off,15,0,0,,5,,,65,127
14863,note_on,30,0,0,,5,,,65,127
14878,note_off,15,0,0,,7,,,67,127
14907,note_off,29,0,0,,7,,,55,127
14908,note_on,1,0,0,,0,,,60,127
14908,note_on,0,0,0,,4,,,64,127
14923,note_off,15,0,0,,5,,,65,127
15085,note_off,162,0,0,,0,,,60,127
15086,note_on,1,0,0,,7,,,55,127
15262,note_off,176,0,0,,7,,,55,127
15262,note_off,0,0,0,,4,,,64,127
15263,note_on,1,0,0,,7,,,55,127
15263,note_on,0,0,0,,10,,,69,127
15307,note_on,44,0,0,,7,,,67,127
15322,note_off,15,0,0,,10,,,69,127
15352,note_on,30,0,0,,10,,,69,127
15367,note_off,15,0,0,,7,,,67,127
15397,note_on,30,0,0,,7,,,67,127
15412,note_off,15,0,0,,10,,,69,127
15441,note_off,29,0,0,,7,,,55,127
15442,note_on,1,0,0,,2,,,62,127
15442,note_on,0,0,0,,6,,,66,127
15457,note_off,15,0,0,,7,,,67,127
15619,note_off,162,0,0,,2,,,62,127
15620,note_on,1,0,0,,7,,,55,127
15796,note_off,176,0,0,,7,,,55,127
15796,note_off,0,0,0,,6,,,66,127
15797,note_on,1,0,0,,7,,,55,127
15797,note_on,0,0,0,,12,,,71,127
15841,note_on,44,0,0,,10,,,69,127
15856,note_off,15,0,0,,12,,,71,127
15886,note_on,30,0,0,,12,,,71,127
15901,note_off,15,0,0,,10,,,69,127
15931,note_on,30,0,0,,10,,,69,127
15946,note_off,15,0,0,,12,,,71,127
15975,note_off,29,0,0,,7,,,55,127
15976,note_on,1,0,0,,4,,,64,127
15976,note_on,0,0,0,,7,,,67,127
15991,note_off,15,0,0,,10,,,69,127
16153,note_off,162,0,0,,4,,,64,127
16154,note_on,1,0,0,,7,,,55,127
16330,note_off,176,0,0,,7,,,55,127
16330,note_off,0,0,0,,7,,,67,127
16331,note_on,1,0,0,,7,,,55,127
16331,note_on,0,0,0,,0,,,72,127
16375,note_on,44,0,0,,12,,,71,127
16390,note_off,15,0,0,,0,,,72,127
16420,note_on,30,0,0,,0,,,72,127
16435,note_off,15,0,0,,12,,,71,127
16465,note_on,30,0,0,,12,,,71,127
16480,note_off,15,0,0,,0,,,72,127
16509,note_off,29,0,0,,7,,,55,127
16510,note_on,1,0,0,,6,,,66,127
16510,note_on,0,0,0,,10,,,69,127
16525,note_off,15,0,0,,12,,,71,127
16687,note_off,162,0,0,,6,,,66,127
16688,note_on,1,0,0,,7,,,55,127
16864,note_off,176,0,0,,7,,,55,127
16864,note_off,0,0,0,,10,,,69,127
16865,note_on,1,0,0,,7,,,55,127
16865,note_on,0,0,0,,2,,,74,127
16909,note_on,44,0,0,,0,,,72,127
16924,note_off,15,0,0,,2,,,74,127
16954,note_on,30,0,0,,2,,,74,127
16969,note_off,15,0,0,,0,,,72,127
16999,note_on,30,0,0,,0,,,72,127
17014,note_off,15,0,0,,2,,,74,127
17043,note_off,29,0,0,,7,,,55,127
17044,note_on,1,0,0,,7,,,67,127
17044,note_on,0,0,0,,12,,,71,127
17059,note_off,15,0,0,,0,,,72,127
17221,note_off,162,0,0,,7,,,67,127
17222,note_on,1,0,0,,7,,,55,127
17398,note_off,176,0,0,,7,,,55,127
17398,note_off,0,0,0,,12,,,71,127
17399,note_on,1,0,0,,7,,,55,127
17575,note_off,176,0,0,,7,,,55,127
17576,note_on,1,0,0,,7,,,67,127
17576,note_on,0,0,0,,2,,,74,127
17752,note_off,176,0,0,,2,,,74,127
17752,note_off,0,0,0,,7,,,67,127
17753,note_on,1,0,0,,4,,,64,127
17753,note_on,0,0,0,,7,,,79,127
17929,note_off,176,0,0,,7,,,79,127
17929,note_off,0,0,0,,4,,,64,127
17930,note_on,1,0,0,,2,,,62,127
17930,note_on,0,0,0,,6,,,78,127
18106,note_off,176,0,0,,6,,,78,127
18106,note_off,0,0,0,,2,,,62,127
18107,note_on,1,0,0,,0,,,60,127
18107,note_on,0,0,0,,7,,,79,127
18283,note_off,176,0,0,,7,,,79,127
18283,note_off,0,0,0,,0,,,60,127
18284,note_on,1,0,0,,12,,,59,127
18284,note_on,0,0,0,,2,,,74,127
18460,note_off,176,0,0,,2,,,74,127
18460,note_off,0,0,0,,12,,,59,127
18461,note_on,1,0,0,,10,,,57,127
18461,note_on,0,0,0,,0,,,72,127
18637,note_off,176,0,0,,0,,,72,127
18637,note_off,0,0,0,,10,,,57,127
18638,note_on,1,0,0,,7,,,55,127
18638,note_on,0,0,0,,12,,,71,127
18814,note_off,176,0,0,,7,,,55,127
18815,note_on,1,0,0,,0,,,60,127
18859,note_on,44,0,0,,10,,,69,127
18868,note_off,9,0,0,,12,,,71,127
18903,note_on,35,0,0,,12,,,71,127
18918,note_off,15,0,0,,10,,,69,127
18948,note_on,30,0,0,,10,,,69,127
18963,note_off,15,0,0,,12,,,71,127
18992,note_off,29,0,0,,0,,,60,127
18993,note_on,1,0,0,,2,,,62,127
18993,note_on,0,0,0,,7,,,67,127
19008,note_off,15,0,0,,10,,,69,127
19170,note_off,162,0,0,,7,,,67,127
19170,note_off,0,0,0,,2,,,62,127
19171,note_on,1,0,0,,2,,,50,127
19171,note_on,0,0,0,,6,,,66,127
19347,note_off,176,0,0,,6,,,66,127
19347,note_off,0,0,0,,2,,,50,127
19348,note_on,1,0,0,,7,,,55,127
19348,note_on,0,0,0,,7,,,67,127
19524,note_off,176,0,0,,7,,,67,127
19540,note_on,16,0,0,,2,,,74,127
19716,note_off,176,0,0,,2,,,74,127
19717,note_on,1,0,0,,2,,,74,127
19879,note_off,162,0,0,,7,,,55,127
19894,note_off,15,0,0,,2,,,74,127
19895,note_on,1,0,0,,2,,,74,127
19895,note_on,0,0,0,,3,,,75,127
20071,note_off,176,0,0,,2,,,74,127
20072,note_on,1,0,0,,0,,,72,127
20072,note_on,0,0,0,,8,,,68,127
20072,note_on,0,0,0,,8,,,56,127
20248,note_off,176,0,0,,0,,,72,127
20248,note_off,0,0,0,,3,,,75,127
20249,note_on,1,0,0,,0,,,72,127
20249,note_on,0,0,0,,5,,,77,127
20425,note_off,176,0,0,,5,,,77,127
20425,note_off,0,0,0,,0,,,72,127
20426,note_on,1,0,0,,12,,,71,127
20426,note_on,0,0,0,,7,,,79,127
20602,note_off,176,0,0,,7,,,79,127
20602,note_off,0,0,0,,8,,,56,127
20602,note_off,0,0,0,,8,,,68,127
20603,note_on,1,0,0,,2,,,74,127
20603,note_on,0,0,0,,7,,,55,127
20603,note_on,0,0,0,,7,,,67,127
20779,note_off,176,0,0,,7,,,67,127
20779,note_off,0,0,0,,7,,,55,127
20779,note_off,0,0,0,,2,,,74,127
20779,note_off,0,0,0,,12,,,71,127
20780,note_on,1,0,0,,3,,,75,127
20780,note_on,0,0,0,,7,,,79,127
20780,note_on,0,0,0,,3,,,63,127
20780,note_on,0,0,0,,3,,,51,127
20956,note_off,176,0,0,,3,,,51,127
20956,note_off,0,0,0,,3,,,63,127
20956,note_off,0,0,0,,7,,,79,127
20956,note_off,0,0,0,,3,,,75,127
20957,note_on,1,0,0,,2,,,74,127
20957,note_on,0,0,0,,5,,,77,127
20957,note_on,0,0,0,,5,,,65,127
20957,note_on,0,0,0,,5,,,53,127
21133,note_off,176,0,0,,5,,,77,127
21133,note_off,0,0,0,,2,,,74,127
21134,note_on,1,0,0,,0,,,72,127
21134,note_on,0,0,0,,3,,,75,127
21310,note_off,176,0,0,,3,,,75,127
21310,note_off,0,0,0,,0,,,72,127
21310,note_off,0,0,0,,5,,,53,127
21310,note_off,0,0,0,,5,,,65,127
21311,note_on,1,0,0,,12,,,71,127
21311,note_on,0,0,0,,2,,,74,127
21311,note_on,0,0,0,,7,,,55,127
21311,note_on,0,0,0,,7,,,67,127
21487,note_off,176,0,0,,7,,,67,127
21487,note_off,0,0,0,,7,,,55,127
21487,note_off,0,0,0,,2,,,74,127
21487,note_off,0,0,0,,12,,,71,127
21488,note_on,1,0,0,,0,,,72,127
21488,note_on,0,0,0,,0,,,60,127
21488,note_on,0,0,0,,0,,,48,127
21664,note_off,176,0,0,,0,,,72,127
21680,note_on,16,0,0,,4,,,76,127
21856,note_off,176,0,0,,4,,,76,127
21857,note_on,1,0,0,,4,,,76,127
22019,note_off,162,0,0,,0,,,48,127
22019,note_off,0,0,0,,0,,,60,127
22034,note_off,15,0,0,,4,,,76,127
22035,note_on,1,0,0,,5,,,77,127
22035,note_on,0,0,0,,4,,,76,127
22211,note_off,176,0,0,,4,,,76,127
22212,note_on,1,0,0,,11,,,58,127
22212,note_on,0,0,0,,11,,,70,127
22212,note_on,0,0,0,,2,,,74,127
22388,note_off,176,0,0,,2,,,74,127
22388,note_off,0,0,0,,5,,,77,127
22389,note_on,1,0,0,,2,,,74,127
22389,note_on,0,0,0,,7,,,79,127
22565,note_off,176,0,0,,7,,,79,127
22565,note_off,0,0,0,,2,,,74,127
22566,note_on,1,0,0,,10,,,81,127
22566,note_on,0,0,0,,1,,,73,127
22742,note_off,176,0,0,,10,,,81,127
22742,note_off,0,0,0,,11,,,70,127
22742,note_off,0,0,0,,11,,,58,127
22743,note_on,1,0,0,,10,,,69,127
22743,note_on,0,0,0,,10,,,57,127
22743,note_on,0,0,0,,4,,,76,127
22919,note_off,176,0,0,,4,,,76,127
22919,note_off,0,0,0,,10,,,57,127
22919,note_off,0,0,0,,10,,,69,127
22919,note_off,0,0,0,,1,,,73,127
22920,note_on,1,0,0,,5,,,65,127
22920,note_on,0,0,0,,5,,,53,127
22920,note_on,0,0,0,,2,,,74,127
22920,note_on,0,0,0,,10,,,81,127
23096,note_off,176,0,0,,10,,,81,127
23096,note_off,0,0,0,,2,,,74,127
23096,note_off,0,0,0,,5,,,53,127
23096,note_off,0,0,0,,5,,,65,127
23097,note_on,1,0,0,,7,,,67,127
23097,note_on,0,0,0,,7,,,55,127
23097,note_on,0,0,0,,7,,,79,127
23097,note_on,0,0,0,,4,,,76,127
23273,note_off,176,0,0,,4,,,76,127
23273,note_off,0,0,0,,7,,,79,127
23274,note_on,1,0,0,,2,,,74,127
23274,note_on,0,0,0,,5,,,77,127
23450,note_off,176,0,0,,5,,,77,127
23450,note_off,0,0,0,,2,,,74,127
23450,note_off,0,0,0,,7,,,55,127
23450,note_off,0,0,0,,7,,,67,127
23451,note_on,1,0,0,,10,,,57,127
23451,note_on,0,0,0,,10,,,69,127
23451,note_on,0,0,0,,4,,,76,127
23451,note_on,0,0,0,,1,,,73,127
23627,note_off,176,0,0,,1,,,73,127
23627,note_off,0,0,0,,4,,,76,127
23627,note_off,0,0,0,,10,,,69,127
23627,note_off,0,0,0,,10,,,57,127
23628,note_on,1,0,0,,2,,,62,127
23628,note_on,0,0,0,,2,,,74,127
23804,note_off,176,0,0,,2,,,74,127
23805,note_on,1,0,0,,2,,,86,127
23981,note_off,176,0,0,,2,,,86,127
23981,note_off,0,0,0,,2,,,62,127
23982,note_on,1,0,0,,0,,,72,127
23982,note_on,0,0,0,,6,,,78,127
24158,note_off,176,0,0,,6,,,78,127
24158,note_off,0,0,0,,0,,,72,127
24159,note_on,1,0,0,,12,,,71,127
24159,note_on,0,0,0,,7,,,79,127
24335,note_off,176,0,0,,7,,,79,127
24335,note_off,0,0,0,,12,,,71,127
24336,note_on,1,0,0,,10,,,69,127
24336,note_on,0,0,0,,10,,,81,127
24512,note_off,176,0,0,,10,,,81,127
24512,note_off,0,0,0,,10,,,69,127
24513,note_on,1,0,0,,7,,,67,127
24513,note_on,0,0,0,,12,,,83,127
24689,note_off,176,0,0,,12,,,83,127
24689,note_off,0,0,0,,7,,,67,127
24690,note_on,1,0,0,,6,,,66,127
24690,note_on,0,0,0,,10,,,81,127
24866,note_off,176,0,0,,6,,,66,127
24867,note_on,1,0,0,,4,,,64,127
24867,note_on,0,0,0,,2,,,74,127
25043,note_off,176,0,0,,2,,,74,127
25043,note_off,0,0,0,,4,,,64,127
25043,note_off,0,0,0,,10,,,81,127
25044,note_on,1,0,0,,2,,,62,127
25044,note_on,0,0,0,,0,,,72,127
25220,note_off,176,0,0,,2,,,62,127
25221,note_on,1,0,0,,7,,,67,127
25265,note_on,44,0,0,,12,,,71,127
25274,note_off,9,0,0,,0,,,72,127
25309,note_on,35,0,0,,0,,,72,127
25324,note_off,15,0,0,,12,,,71,127
25354,note_on,30,0,0,,12,,,71,127
25369,note_off,15,0,0,,0,,,72,127
25398,note_off,29,0,0,,7,,,67,127
25399,note_on,1,0,0,,6,,,66,127
25399,note_on,0,0,0,,10,,,69,127
25414,note_off,15,0,0,,12,,,71,127
25576,note_off,162,0,0,,10,,,69,127
25576,note_off,0,0,0,,6,,,66,127
25577,note_on,1,0,0,,4,,,64,127
25577,note_on,0,0,0,,7,,,67,127
25749,note_off,172,0,0,,7,,,67,127
25749,note_off,0,0,0,,4,,,64,127
25769,note_on,20,0,0,,2,,,74,127
25769,note_on,0,0,0,,2,,,50,127
25769,note_on,0,0,0,,2,,,38,127
25941,note_off,172,0,0,,2,,,38,127
25941,note_off,0,0,0,,2,,,50,127
25947,note_on,6,0,0,,2,,,50,127
25947,note_on,0,0,0,,2,,,38,127
26119,note_off,172,0,0,,2,,,38,127
26119,note_off,0,0,0,,2,,,50,127
26125,note_on,6,0,0,,6,,,42,127
26125,note_on,0,0,0,,6,,,54,127
26297,note_off,172,0,0,,6,,,54,127
26297,note_off,0,0,0,,6,,,42,127
26303,note_on,6,0,0,,2,,,38,127
26303,note_on,0,0,0,,2,,,50,127
26475,note_off,172,0,0,,2,,,50,127
26475,note_off,0,0,0,,2,,,38,127
26480,note_off,5,0,0,,2,,,74,127
26481,note_on,1,0,0,,2,,,62,127
26481,note_on,0,0,0,,2,,,38,127
26481,note_on,0,0,0,,2,,,50,127
26525,note_on,44,0,0,,0,,,60,127
26540,note_off,15,0,0,,2,,,62,127
26570,note_on,30,0,0,,2,,,62,127
26585,note_off,15,0,0,,0,,,60,127
26615,note_on,30,0,0,,0,,,60,127
26630,note_off,15,0,0,,2,,,62,127
26654,note_off,24,0,0,,2,,,50,127
26654,note_off,0,0,0,,2,,,38,127
26660,note_on,6,0,0,,12,,,59,127
26660,note_on,0,0,0,,7,,,55,127
26660,note_on,0,0,0,,7,,,43,127
26675,note_off,15,0,0,,0,,,60,127
26832,note_off,157,0,0,,7,,,43,127
26832,note_off,0,0,0,,7,,,55,127
26838,note_on,6,0,0,,2,,,38,127
26838,note_on,0,0,0,,2,,,50,127
27010,note_off,172,0,0,,2,,,50,127
27010,note_off,0,0,0,,2,,,38,127
27015,note_off,5,0,0,,12,,,59,127
27016,note_on,1,0,0,,4,,,64,127
27016,note_on,0,0,0,,2,,,38,127
27016,note_on,0,0,0,,2,,,50,127
27060,note_on,44,0,0,,2,,,62,127
27075,note_off,15,0,0,,4,,,64,127
27105,note_on,30,0,0,,4,,,64,127
27120,note_off,15,0,0,,2,,,62,127
27150,note_on,30,0,0,,2,,,62,127
27165,note_off,15,0,0,,4,,,64,127
27189,note_off,24,0,0,,2,,,50,127
27189,note_off,0,0,0,,2,,,38,127
27195,note_on,6,0,0,,0,,,60,127
27195,note_on,0,0,0,,10,,,57,127
27195,note_on,0,0,0,,10,,,45,127
27210,note_off,15,0,0,,2,,,62,127
27367,note_off,157,0,0,,10,,,45,127
27367,note_off,0,0,0,,10,,,57,127
27373,note_on,6,0,0,,2,,,50,127
27373,note_on,0,0,0,,2,,,38,127
27545,note_off,172,0,0,,2,,,38,127
27545,note_off,0,0,0,,2,,,50,127
27550,note_off,5,0,0,,0,,,60,127
27551,note_on,1,0,0,,6,,,66,127
27551,note_on,0,0,0,,2,,,38,127
27551,note_on,0,0,0,,2,,,50,127
27595,note_on,44,0,0,,4,,,64,127
27610,note_off,15,0,0,,6,,,66,127
27640,note_on,30,0,0,,6,,,66,127
27655,note_off,15,0,0,,4,,,64,127
27685,note_on,30,0,0,,4,,,64,127
27700,note_off,15,0,0,,6,,,66,127
27724,note_off,24,0,0,,2,,,50,127
27724,note_off,0,0,0,,2,,,38,127
27730,note_on,6,0,0,,2,,,62,127
27730,note_on,0,0,0,,12,,,59,127
27730,note_on,0,0,0,,12,,,47,127
27745,note_off,15,0,0,,4,,,64,127
27902,note_off,157,0,0,,12,,,47,127
27902,note_off,0,0,0,,12,,,59,127
27908,note_on,6,0,0,,2,,,38,127
27908,note_on,0,0,0,,2,,,50,127
28080,note_off,172,0,0,,2,,,50,127
28080,note_off,0,0,0,,2,,,38,127
28085,note_off,5,0,0,,2,,,62,127
28086,note_on,1,0,0,,7,,,67,127
28086,note_on,0,0,0,,2,,,38,127
28086,note_on,0,0,0,,2,,,50,127
28130,note_on,44,0,0,,6,,,66,127
28145,note_off,15,0,0,,7,,,67,127
28175,note_on,30,0,0,,7,,,67,127
28190,note_off,15,0,0,,6,,,66,127
28220,note_on,30,0,0,,6,,,66,127
28235,note_off,15,0,0,,7,,,67,127
28259,note_off,24,0,0,,2,,,50,127
28259,note_off,0,0,0,,2,,,38,127
28265,note_on,6,0,0,,4,,,64,127
28265,note_on,0,0,0,,0,,,60,127
28265,note_on,0,0,0,,0,,,48,127
28280,note_off,15,0,0,,6,,,66,127
28437,note_off,157,0,0,,0,,,48,127
28437,note_off,0,0,0,,0,,,60,127
28443,note_on,6,0,0,,2,,,38,127
28443,note_on,0,0,0,,2,,,50,127
28615,note_off,172,0,0,,2,,,50,127
28615,note_off,0,0,0,,2,,,38,127
28620,note_off,5,0,0,,4,,,64,127
28621,note_on,1,0,0,,10,,,69,127
28621,note_on,0,0,0,,2,,,50,127
28621,note_on,0,0,0,,2,,,38,127
28665,note_on,44,0,0,,7,,,67,127
28680,note_off,15,0,0,,10,,,69,127
28710,note_on,30,0,0,,10,,,69,127
28725,note_off,15,0,0,,7,,,67,127
28755,note_on,30,0,0,,7,,,67,127
28770,note_off,15,0,0,,10,,,69,127
28794,note_off,24,0,0,,2,,,38,127
28794,note_off,0,0,0,,2,,,50,127
28800,note_on,6,0,0,,6,,,66,127
28800,note_on,0,0,0,,2,,,62,127
28800,note_on,0,0,0,,2,,,50,127
28815,note_off,15,0,0,,7,,,67,127
28972,note_off,157,0,0,,2,,,50,127
28972,note_off,0,0,0,,2,,,62,127
28978,note_on,6,0,0,,2,,,50,127
28978,note_on,0,0,0,,2,,,38,127
29150,note_off,172,0,0,,2,,,38,127
29150,note_off,0,0,0,,2,,,50,127
29155,note_off,5,0,0,,6,,,66,127
29156,note_on,1,0,0,,12,,,71,127
29156,note_on,0,0,0,,2,,,38,127
29156,note_on,0,0,0,,2,,,50,127
29200,note_on,44,0,0,,10,,,69,127
29215,note_off,15,0,0,,12,,,71,127
29245,note_on,30,0,0,,12,,,71,127
29260,note_off,15,0,0,,10,,,69,127
29290,note_on,30,0,0,,10,,,69,127
29305,note_off,15,0,0,,12,,,71,127
29329,note_off,24,0,0,,2,,,50,127
29329,note_off,0,0,0,,2,,,38,127
29335,note_on,6,0,0,,7,,,67,127
29335,note_on,0,0,0,,4,,,64,127
29335,note_on,0,0,0,,4,,,52,127
29350,note_off,15,0,0,,10,,,69,127
29507,note_off,157,0,0,,4,,,52,127
29507,note_off,0,0,0,,4,,,64,127
29513,note_on,6,0,0,,2,,,38,127
29513,note_on,0,0,0,,2,,,50,127
29685,note_off,172,0,0,,2,,,50,127
29685,note_off,0,0,0,,2,,,38,127
29690,note_off,5,0,0,,7,,,67,127
29691,note_on,1,0,0,,0,,,72,127
29691,note_on,0,0,0,,2,,,38,127
29691,note_on,0,0,0,,2,,,50,127
29735,note_on,44,0,0,,12,,,71,127
29750,note_off,15,0,0,,0,,,72,127
29780,note_on,30,0,0,,0,,,72,127
29795,note_off,15,0,0,,12,,,71,127
29825,note_on,30,0,0,,12,,,71,127
29840,note_off,15,0,0,,0,,,72,127
29864,note_off,24,0,0,,2,,,50,127
29864,note_off,0,0,0,,2,,,38,127
29870,note_on,6,0,0,,10,,,69,127
29870,note_on,0,0,0,,6,,,66,127
29870,note_on,0,0,0,,6,,,54,127
29885,note_off,15,0,0,,12,,,71,127
30042,note_off,157,0,0,,6,,,54,127
30042,note_off,0,0,0,,6,,,66,127
30048,note_on,6,0,0,,2,,,50,127
30048,note_on,0,0,0,,2,,,38,127
30220,note_off,172,0,0,,2,,,38,127
30220,note_off,0,0,0,,2,,,50,127
30225,note_off,5,0,0,,10,,,69,127
30226,note_on,1,0,0,,2,,,74,127
30226,note_on,0,0,0,,2,,,38,127
30226,note_on,0,0,0,,2,,,50,127
30270,note_on,44,0,0,,0,,,72,127
30285,note_off,15,0,0,,2,,,74,127
30315,note_on,30,0,0,,2,,,74,127
30330,note_off,15,0,0,,0,,,72,127
30360,note_on,30,0,0,,0,,,72,127
30375,note_off,15,0,0,,2,,,74,127
30399,note_off,24,0,0,,2,,,50,127
30399,note_off,0,0,0,,2,,,38,127
30405,note_on,6,0,0,,12,,,71,127
30405,note_on,0,0,0,,7,,,55,127
30405,note_on,0,0,0,,7,,,67,127
30420,note_off,15,0,0,,0,,,72,127
30577,note_off,157,0,0,,7,,,67,127
30577,note_off,0,0,0,,7,,,55,127
30583,note_on,6,0,0,,2,,,50,127
30583,note_on,0,0,0,,2,,,38,127
30755,note_off,172,0,0,,2,,,38,127
30755,note_off,0,0,0,,2,,,50,127
30760,note_off,5,0,0,,12,,,71,127
30761,note_on,1,0,0,,4,,,76,127
30761,note_on,0,0,0,,2,,,38,127
30761,note_on,0,0,0,,2,,,50,127
30805,note_on,44,0,0,,2,,,74,127
30820,note_off,15,0,0,,4,,,76,127
30850,note_on,30,0,0,,4,,,76,127
30865,note_off,15,0,0,,2,,,74,127
30895,note_on,30,0,0,,2,,,74,127
30910,note_off,15,0,0,,4,,,76,127
30934,note_off,24,0,0,,2,,,50,127
30934,note_off,0,0,0,,2,,,38,127
30940,note_on,6,0,0,,0,,,72,127
30940,note_on,0,0,0,,10,,,69,127
30940,note_on,0,0,0,,10,,,57,127
30955,note_off,15,0,0,,2,,,74,127
31112,note_off,157,0,0,,10,,,57,127
31117,note_off,5,0,0,,10,,,69,127
31118,note_on,1,0,0,,2,,,50,127
31118,note_on,0,0,0,,2,,,38,127
31294,note_off,176,0,0,,0,,,72,127
31295,note_on,1,0,0,,10,,,69,127
31471,note_off,176,0,0,,10,,,69,127
31471,note_off,0,0,0,,2,,,38,127
31471,note_off,0,0,0,,2,,,50,127
31487,note_on,16,0,0,,6,,,54,127
31487,note_on,0,0,0,,6,,,42,127
31487,note_on,0,0,0,,2,,,74,127
31659,note_off,172,0,0,,6,,,42,127
31659,note_off,0,0,0,,6,,,54,127
31664,note_off,5,0,0,,2,,,74,127
31665,note_on,1,0,0,,7,,,55,127
31665,note_on,0,0,0,,7,,,43,127
31665,note_on,0,0,0,,0,,,72,127
31709,note_on,44,0,0,,12,,,71,127
31724,note_off,15,0,0,,0,,,72,127
31754,note_on,30,0,0,,0,,,72,127
31769,note_off,15,0,0,,12,,,71,127
31799,note_on,30,0,0,,12,,,71,127
31814,note_off,15,0,0,,0,,,72,127
31838,note_off,24,0,0,,7,,,43,127
31838,note_off,0,0,0,,7,,,55,127
31844,note_on,6,0,0,,6,,,42,127
31844,note_on,0,0,0,,6,,,54,127
31844,note_on,0,0,0,,10,,,69,127
31859,note_off,15,0,0,,12,,,71,127
32016,note_off,157,0,0,,6,,,54,127
32016,note_off,0,0,0,,6,,,42,127
32021,note_off,5,0,0,,10,,,69,127
32022,note_on,1,0,0,,4,,,40,127
32022,note_on,0,0,0,,4,,,52,127
32022,note_on,0,0,0,,7,,,67,127
32194,note_off,172,0,0,,7,,,67,127
32194,note_off,0,0,0,,4,,,52,127
32194,note_off,0,0,0,,4,,,40,127
32200,note_on,6,0,0,,2,,,38,127
32200,note_on,0,0,0,,2,,,50,127
32200,note_on,0,0,0,,6,,,66,127
32372,note_off,172,0,0,,6,,,66,127
32372,note_off,0,0,0,,2,,,50,127
32372,note_off,0,0,0,,2,,,38,127
32378,note_on,6,0,0,,0,,,36,127
32378,note_on,0,0,0,,0,,,48,127
32378,note_on,0,0,0,,4,,,64,127
32550,note_off,172,0,0,,4,,,64,127
32550,note_off,0,0,0,,0,,,48,127
32550,note_off,0,0,0,,0,,,36,127
32556,note_on,6,0,0,,12,,,47,127
32556,note_on,0,0,0,,12,,,35,127
32556,note_on,0,0,0,,2,,,62,127
32556,note_on,0,0,0,,2,,,74,127
32728,note_off,172,0,0,,2,,,62,127
32728,note_off,0,0,0,,12,,,35,127
32728,note_off,0,0,0,,12,,,47,127
32733,note_off,5,0,0,,2,,,74,127
32734,note_on,1,0,0,,0,,,48,127
32734,note_on,0,0,0,,0,,,36,127
32734,note_on,0,0,0,,0,,,72,127
32734,note_on,0,0,0,,4,,,64,127
32906,note_off,172,0,0,,4,,,64,127
32911,note_off,5,0,0,,0,,,72,127
32912,note_on,1,0,0,,7,,,67,127
32912,note_on,0,0,0,,12,,,71,127
33084,note_off,172,0,0,,7,,,67,127
33089,note_off,5,0,0,,12,,,71,127
33089,note_off,0,0,0,,0,,,36,127
33089,note_off,0,0,0,,0,,,48,127
33090,note_on,1,0,0,,2,,,38,127
33090,note_on,0,0,0,,2,,,50,127
33090,note_on,0,0,0,,6,,,66,127
33090,note_on,0,0,0,,10,,,69,127
33262,note_off,172,0,0,,6,,,66,127
33262,note_off,0,0,0,,2,,,50,127
33262,note_off,0,0,0,,2,,,38,127
33267,note_off,5,0,0,,10,,,69,127
33268,note_on,1,0,0,,7,,,43,127
33268,note_on,0,0,0,,7,,,55,127
33268,note_on,0,0,0,,7,,,67,127
33440,note_off,172,0,0,,7,,,67,127
33440,note_off,0,0,0,,7,,,55,127
33440,note_off,0,0,0,,7,,,43,127
33460,note_on,20,0,0,,2,,,74,127
33460,note_on,0,0,0,,2,,,62,127
33460,note_on,0,0,0,,2,,,50,127
33632,note_off,172,0,0,,2,,,50,127
33632,note_off,0,0,0,,2,,,62,127
33637,note_off,5,0,0,,2,,,74,127
33638,note_on,1,0,0,,12,,,71,127
33638,note_on,0,0,0,,12,,,59,127
33638,note_on,0,0,0,,12,,,47,127
33803,note_off,165,0,0,,12,,,47,127
33803,note_off,0,0,0,,12,,,59,127
33814,note_off,11,0,0,,12,,,71,127
33815,note_on,1,0,0,,7,,,67,127
33815,note_on,0,0,0,,7,,,55,127
33815,note_on,0,0,0,,7,,,43,127
33980,note_off,165,0,0,,7,,,43,127
33980,note_off,0,0,0,,7,,,55,127
33980,note_off,0,0,0,,7,,,67,127
33992,note_on,12,0,0,,4,,,64,127
33992,note_on,0,0,0,,4,,,52,127
33992,note_on,0,0,0,,4,,,40,127
34157,note_off,165,0,0,,4,,,40,127
34157,note_off,0,0,0,,4,,,52,127
34157,note_off,0,0,0,,4,,,64,127
34169,note_on,12,0,0,,1,,,61,127
34169,note_on,0,0,0,,1,,,49,127
34169,note_on,0,0,0,,1,,,37,127
34334,note_off,165,0,0,,1,,,37,127
34334,note_off,0,0,0,,1,,,49,127
34334,note_off,0,0,0,,1,,,61,127
34346,note_on,12,0,0,,2,,,62,127
34346,note_on,0,0,0,,2,,,50,127
34346,note_on,0,0,0,,2,,,38,127
34511,note_off,165,0,0,,2,,,38,127
34511,note_off,0,0,0,,2,,,50,127
34523,note_on,12,0,0,,2,,,50,127
34523,note_on,0,0,0,,2,,,38,127
34688,note_off,165,0,0,,2,,,38,127
34688,note_off,0,0,0,,2,,,50,127
34700,note_on,12,0,0,,6,,,54,127
34700,note_on,0,0,0,,6,,,42,127
34865,note_off,165,0,0,,6,,,42,127
34865,note_off,0,0,0,,6,,,54,127
34877,note_on,12,0,0,,2,,,50,127
34877,note_on,0,0,0,,2,,,38,127
35042,note_off,165,0,0,,2,,,38,127
35042,note_off,0,0,0,,2,,,50,127
35053,note_off,11,0,0,,2,,,62,127
35054,note_on,1,0,0,,2,,,62,127
35054,note_on,0,0,0,,2,,,50,127
35054,note_on,0,0,0,,2,,,38,127
35098,note_on,44,0,0,,0,,,60,127
35113,note_off,15,0,0,,2,,,62,127
35143,note_on,30,0,0,,2,,,62,127
35158,note_off,15,0,0,,0,,,60,127
35188,note_on,30,0,0,,0,,,60,127
35203,note_off,15,0,0,,2,,,62,127
35221,note_off,18,0,0,,2,,,38,127
35221,note_off,0,0,0,,2,,,50,127
35233,note_on,12,0,0,,12,,,59,127
35233,note_on,0,0,0,,7,,,43,127
35233,note_on,0,0,0,,7,,,55,127
35248,note_off,15,0,0,,0,,,60,127
35398,note_off,150,0,0,,7,,,55,127
35398,note_off,0,0,0,,7,,,43,127
35410,note_on,12,0,0,,2,,,50,127
35410,note_on,0,0,0,,2,,,38,127
35575,note_off,165,0,0,,2,,,38,127
35575,note_off,0,0,0,,2,,,50,127
35586,note_off,11,0,0,,12,,,59,127
35587,note_on,1,0,0,,4,,,64,127
35587,note_on,0,0,0,,2,,,50,127
35587,note_on,0,0,0,,2,,,38,127
35631,note_on,44,0,0,,2,,,62,127
35646,note_off,15,0,0,,4,,,64,127
35676,note_on,30,0,0,,4,,,64,127
35691,note_off,15,0,0,,2,,,62,127
35721,note_on,30,0,0,,2,,,62,127
35736,note_off,15,0,0,,4,,,64,127
35754,note_off,18,0,0,,2,,,38,127
35754,note_off,0,0,0,,2,,,50,127
35766,note_on,12,0,0,,0,,,60,127
35766,note_on,0,0,0,,10,,,57,127
35766,note_on,0,0,0,,10,,,45,127
35781,note_off,15,0,0,,2,,,62,127
35931,note_off,150,0,0,,10,,,45,127
35931,note_off,0,0,0,,10,,,57,127
35943,note_on,12,0,0,,2,,,50,127
35943,note_on,0,0,0,,2,,,38,127
36108,note_off,165,0,0,,2,,,38,127
36108,note_off,0,0,0,,2,,,50,127
36119,note_off,11,0,0,,0,,,60,127
36120,note_on,1,0,0,,6,,,66,127
36120,note_on,0,0,0,,2,,,50,127
36120,note_on,0,0,0,,2,,,38,127
36164,note_on,44,0,0,,4,,,64,127
36179,note_off,15,0,0,,6,,,66,127
36209,note_on,30,0,0,,6,,,66,127
36224,note_off,15,0,0,,4,,,64,127
36254,note_on,30,0,0,,4,,,64,127
36269,note_off,15,0,0,,6,,,66,127
36287,note_off,18,0,0,,2,,,38,127
36287,note_off,0,0,0,,2,,,50,127
36299,note_on,12,0,0,,2,,,62,127
36299,note_on,0,0,0,,12,,,47,127
36299,note_on,0,0,0,,12,,,59,127
36314,note_off,15,0,0,,4,,,64,127
36464,note_off,150,0,0,,12,,,59,127
36464,note_off,0,0,0,,12,,,47,127
36476,note_on,12,0,0,,2,,,50,127
36476,note_on,0,0,0,,2,,,38,127
36641,note_off,165,0,0,,2,,,38,127
36641,note_off,0,0,0,,2,,,50,127
36652,note_off,11,0,0,,2,,,62,127
36653,note_on,1,0,0,,7,,,67,127
36653,note_on,0,0,0,,2,,,50,127
36653,note_on,0,0,0,,2,,,38,127
36697,note_on,44,0,0,,6,,,66,127
36712,note_off,15,0,0,,7,,,67,127
36742,note_on,30,0,0,,7,,,67,127
36757,note_off,15,0,0,,6,,,66,127
36787,note_on,30,0,0,,6,,,66,127
36802,note_off,15,0,0,,7,,,67,127
36820,note_off,18,0,0,,2,,,38,127
36820,note_off,0,0,0,,2,,,50,127
36832,note_on,12,0,0,,4,,,64,127
36832,note_on,0,0,0,,0,,,60,127
36832,note_on,0,0,0,,0,,,48,127
36847,note_off,15,0,0,,6,,,66,127
36997,note_off,150,0,0,,0,,,48,127
36997,note_off,0,0,0,,0,,,60,127
37009,note_on,12,0,0,,2,,,50,127
37009,note_on,0,0,0,,2,,,38,127
37174,note_off,165,0,0,,2,,,38,127
37174,note_off,0,0,0,,2,,,50,127
37185,note_off,11,0,0,,4,,,64,127
37186,note_on,1,0,0,,10,,,69,127
37186,note_on,0,0,0,,2,,,38,127
37186,note_on,0,0,0,,2,,,50,127
37230,note_on,44,0,0,,7,,,67,127
37245,note_off,15,0,0,,10,,,69,127
37275,note_on,30,0,0,,10,,,69,127
37290,note_off,15,0,0,,7,,,67,127
37320,note_on,30,0,0,,7,,,67,127
37335,note_off,15,0,0,,10,,,69,127
37353,note_off,18,0,0,,2,,,50,127
37353,note_off,0,0,0,,2,,,38,127
37365,note_on,12,0,0,,6,,,66,127
37365,note_on,0,0,0,,2,,,50,127
37365,note_on,0,0,0,,2,,,62,127
37380,note_off,15,0,0,,7,,,67,127
37530,note_off,150,0,0,,2,,,62,127
37530,note_off,0,0,0,,2,,,50,127
37542,note_on,12,0,0,,2,,,50,127
37542,note_on,0,0,0,,2,,,38,127
37707,note_off,165,0,0,,2,,,38,127
37707,note_off,0,0,0,,2,,,50,127
37718,note_off,11,0,0,,6,,,66,127
37719,note_on,1,0,0,,12,,,71,127
37719,note_on,0,0,0,,2,,,38,127
37719,note_on,0,0,0,,2,,,50,127
37763,note_on,44,0,0,,10,,,69,127
37778,note_off,15,0,0,,12,,,71,127
37808,note_on,30,0,0,,12,,,71,127
37823,note_off,15,0,0,,10,,,69,127
37853,note_on,30,0,0,,10,,,69,127
37868,note_off,15,0,0,,12,,,71,127
37886,note_off,18,0,0,,2,,,50,127
37886,note_off,0,0,0,,2,,,38,127
37898,note_on,12,0,0,,7,,,67,127
37898,note_on,0,0,0,,4,,,52,127
37898,note_on,0,0,0,,4,,,64,127
37913,note_off,15,0,0,,10,,,69,127
38063,note_off,150,0,0,,4,,,64,127
38063,note_off,0,0,0,,4,,,52,127
38075,note_on,12,0,0,,2,,,38,127
38075,note_on,0,0,0,,2,,,50,127
38240,note_off,165,0,0,,2,,,50,127
38240,note_off,0,0,0,,2,,,38,127
38251,note_off,11,0,0,,7,,,67,127
38252,note_on,1,0,0,,0,,,72,127
38252,note_on,0,0,0,,2,,,38,127
38252,note_on,0,0,0,,2,,,50,127
38296,note_on,44,0,0,,12,,,71,127
38311,note_off,15,0,0,,0,,,72,127
38341,note_on,30,0,0,,0,,,72,127
38356,note_off,15,0,0,,12,,,71,127
38386,note_on,30,0,0,,12,,,71,127
38401,note_off,15,0,0,,0,,,72,127
38419,note_off,18,0,0,,2,,,50,127
38419,note_off,0,0,0,,2,,,38,127
38431,note_on,12,0,0,,10,,,69,127
38431,note_on,0,0,0,,6,,,54,127
38431,note_on,0,0,0,,6,,,66,127
38446,note_off,15,0,0,,12,,,71,127
38596,note_off,150,0,0,,6,,,66,127
38596,note_off,0,0,0,,6,,,54,127
38608,note_on,12,0,0,,2,,,50,127
38608,note_on,0,0,0,,2,,,38,127
38773,note_off,165,0,0,,2,,,38,127
38773,note_off,0,0,0,,2,,,50,127
38784,note_off,11,0,0,,10,,,69,127
38785,note_on,1,0,0,,2,,,74,127
38785,note_on,0,0,0,,2,,,38,127
38785,note_on,0,0,0,,2,,,50,127
38829,note_on,44,0,0,,0,,,72,127
38844,note_off,15,0,0,,2,,,74,127
38874,note_on,30,0,0,,2,,,74,127
38889,note_off,15,0,0,,0,,,72,127
38919,note_on,30,0,0,,0,,,72,127
38934,note_off,15,0,0,,2,,,74,127
38952,note_off,18,0,0,,2,,,50,127
38952,note_off,0,0,0,,2,,,38,127
38964,note_on,12,0,0,,12,,,71,127
38964,note_on,0,0,0,,7,,,55,127
38964,note_on,0,0,0,,7,,,67,127
38979,note_off,15,0,0,,0,,,72,127
39129,note_off,150,0,0,,7,,,67,127
39129,note_off,0,0,0,,7,,,55,127
39141,note_on,12,0,0,,2,,,50,127
39141,note_on,0,0,0,,2,,,38,127
39306,note_off,165,0,0,,2,,,38,127
39306,note_off,0,0,0,,2,,,50,127
39317,note_off,11,0,0,,12,,,71,127
39318,note_on,1,0,0,,4,,,76,127
39318,note_on,0,0,0,,2,,,38,127
39318,note_on,0,0,0,,2,,,50,127
39362,note_on,44,0,0,,2,,,74,127
39377,note_off,15,0,0,,4,,,76,127
39407,note_on,30,0,0,,4,,,76,127
39422,note_off,15,0,0,,2,,,74,127
39452,note_on,30,0,0,,2,,,74,127
39467,note_off,15,0,0,,4,,,76,127
39485,note_off,18,0,0,,2,,,50,127
39485,note_off,0,0,0,,2,,,38,127
39497,note_on,12,0,0,,0,,,72,127
39497,note_on,0,0,0,,10,,,57,127
39497,note_on,0,0,0,,10,,,69,127
39512,note_off,15,0,0,,2,,,74,127
39662,note_off,150,0,0,,10,,,57,127
39673,note_off,11,0,0,,10,,,69,127
39674,note_on,1,0,0,,2,,,50,127
39674,note_on,0,0,0,,2,,,38,127
39850,note_off,176,0,0,,0,,,72,127
39851,note_on,1,0,0,,10,,,69,127
40027,note_off,176,0,0,,10,,,69,127
40027,note_off,0,0,0,,2,,,38,127
40027,note_off,0,0,0,,2,,,50,127
40043,note_on,16,0,0,,6,,,42,127
40043,note_on,0,0,0,,6,,,54,127
40043,note_on,0,0,0,,2,,,74,127
40208,note_off,165,0,0,,6,,,54,127
40208,note_off,0,0,0,,6,,,42,127
40219,note_off,11,0,0,,2,,,74,127
40220,note_on,1,0,0,,7,,,55,127
40220,note_on,0,0,0,,7,,,43,127
40220,note_on,0,0,0,,0,,,72,127
40264,note_on,44,0,0,,12,,,71,127
40279,note_off,15,0,0,,0,,,72,127
40309,note_on,30,0,0,,0,,,72,127
40324,note_off,15,0,0,,12,,,71,127
40354,note_on,30,0,0,,12,,,71,127
40369,note_off,15,0,0,,0,,,72,127
40387,note_off,18,0,0,,7,,,43,127
40387,note_off,0,0,0,,7,,,55,127
40399,note_on,12,0,0,,6,,,42,127
40399,note_on,0,0,0,,6,,,54,127
40399,note_on,0,0,0,,10,,,69,127
40414,note_off,15,0,0,,12,,,71,127
40564,note_off,150,0,0,,6,,,54,127
40564,note_off,0,0,0,,6,,,42,127
40575,note_off,11,0,0,,10,,,69,127
40576,note_on,1,0,0,,4,,,52,127
40576,note_on,0,0,0,,4,,,40,127
40576,note_on,0,0,0,,7,,,67,127
40741,note_off,165,0,0,,4,,,40,127
40741,note_off,0,0,0,,4,,,52,127
40753,note_on,12,0,0,,2,,,50,127
40753,note_on,0,0,0,,2,,,38,127
40797,note_on,44,0,0,,6,,,66,127
40806,note_off,9,0,0,,7,,,67,127
40841,note_on,35,0,0,,7,,,67,127
40856,note_off,15,0,0,,6,,,66,127
40886,note_on,30,0,0,,6,,,66,127
40901,note_off,15,0,0,,7,,,67,127
40919,note_off,18,0,0,,2,,,38,127
40919,note_off,0,0,0,,2,,,50,127
40931,note_on,12,0,0,,0,,,36,127
40931,note_on,0,0,0,,0,,,48,127
40931,note_on,0,0,0,,4,,,64,127
40946,note_off,15,0,0,,6,,,66,127
41096,note_off,150,0,0,,4,,,64,127
41096,note_off,0,0,0,,0,,,48,127
41096,note_off,0,0,0,,0,,,36,127
41108,note_on,12,0,0,,12,,,47,127
41108,note_on,0,0,0,,12,,,35,127
41108,note_on,0,0,0,,2,,,74,127
41108,note_on,0,0,0,,2,,,62,127
41273,note_off,165,0,0,,2,,,62,127
41273,note_off,0,0,0,,12,,,35,127
41273,note_off,0,0,0,,12,,,47,127
41284,note_off,11,0,0,,2,,,74,127
41285,note_on,1,0,0,,0,,,48,127
41285,note_on,0,0,0,,0,,,36,127
41285,note_on,0,0,0,,0,,,72,127
41285,note_on,0,0,0,,4,,,64,127
41450,note_off,165,0,0,,4,,,64,127
41461,note_off,11,0,0,,0,,,72,127
41462,note_on,1,0,0,,12,,,71,127
41462,note_on,0,0,0,,7,,,67,127
41627,note_off,165,0,0,,7,,,67,127
41638,note_off,11,0,0,,12,,,71,127
41638,note_off,0,0,0,,0,,,36,127
41638,note_off,0,0,0,,0,,,48,127
41639,note_on,1,0,0,,2,,,50,127
41639,note_on,0,0,0,,2,,,38,127
41639,note_on,0,0,0,,10,,,69,127
41639,note_on,0,0,0,,6,,,66,127
41804,note_off,165,0,0,,6,,,66,127
41804,note_off,0,0,0,,2,,,38,127
41804,note_off,0,0,0,,2,,,50,127
41815,note_off,11,0,0,,10,,,69,127
41823,note_on,8,0,0,,7,,,43,127
41823,note_on,0,0,0,,7,,,55,127
41823,note_on,0,0,0,,7,,,67,127
41988,note_off,165,0,0,,7,,,67,127
42015,note_on,27,0,0,,7,,,67,127
42180,note_off,165,0,0,,7,,,67,127
42192,note_on,12,0,0,,2,,,74,127
42354,note_off,162,0,0,,7,,,55,127
42354,note_off,0,0,0,,7,,,43,127
42369,note_off,15,0,0,,2,,,74,127
42370,note_on,1,0,0,,7,,,67,127
42546,note_off,176,0,0,,7,,,67,127
42547,note_on,1,0,0,,7,,,67,127
42723,note_off,176,0,0,,7,,,67,127
42724,note_on,1,0,0,,7,,,79,127
42724,note_on,0,0,0,,0,,,36,127
42724,note_on,0,0,0,,0,,,48,127
42900,note_off,176,0,0,,7,,,79,127
42901,note_on,1,0,0,,7,,,67,127
43077,note_off,176,0,0,,7,,,67,127
43077,note_off,0,0,0,,0,,,48,127
43077,note_off,0,0,0,,0,,,36,127
43078,note_on,1,0,0,,7,,,67,127
43078,note_on,0,0,0,,12,,,35,127
43078,note_on,0,0,0,,12,,,47,127
43254,note_off,176,0,0,,12,,,47,127
43254,note_off,0,0,0,,12,,,35,127
43254,note_off,0,0,0,,7,,,67,127
43255,note_on,1,0,0,,2,,,74,127
43255,note_on,0,0,0,,7,,,31,127
43255,note_on,0,0,0,,7,,,43,127
43431,note_off,176,0,0,,7,,,43,127
43431,note_off,0,0,0,,7,,,31,127
43431,note_off,0,0,0,,2,,,74,127
43432,note_on,1,0,0,,10,,,69,127
43432,note_on,0,0,0,,0,,,72,127
43432,note_on,0,0,0,,0,,,48,127
43432,note_on,0,0,0,,0,,,36,127
43608,note_off,176,0,0,,0,,,72,127
43608,note_off,0,0,0,,10,,,69,127
43609,note_on,1,0,0,,7,,,67,127
43609,note_on,0,0,0,,12,,,71,127
43785,note_off,176,0,0,,12,,,71,127
43785,note_off,0,0,0,,7,,,67,127
43785,note_off,0,0,0,,0,,,36,127
43785,note_off,0,0,0,,0,,,48,127
43786,note_on,1,0,0,,6,,,66,127
43786,note_on,0,0,0,,10,,,69,127
43786,note_on,0,0,0,,2,,,38,127
43786,note_on,0,0,0,,2,,,50,127
43962,note_off,176,0,0,,2,,,50,127
43962,note_off,0,0,0,,2,,,38,127
43962,note_off,0,0,0,,10,,,69,127
43962,note_off,0,0,0,,6,,,66,127
43963,note_on,1,0,0,,7,,,67,127
43963,note_on,0,0,0,,7,,,55,127
43963,note_on,0,0,0,,7,,,43,127
44139,note_off,176,0,0,,7,,,67,127
44155,note_on,16,0,0,,7,,,67,127
44331,note_off,176,0,0,,7,,,67,127
44332,note_on,1,0,0,,2,,,74,127
44494,note_off,162,0,0,,7,,,43,127
44494,note_off,0,0,0,,7,,,55,127
44509,note_off,15,0,0,,2,,,74,127
44510,note_on,1,0,0,,7,,,67,127
44686,note_off,176,0,0,,7,,,67,127
44687,note_on,1,0,0,,7,,,67,127
44863,note_off,176,0,0,,7,,,67,127
44864,note_on,1,0,0,,0,,,48,127
44864,note_on,0,0,0,,0,,,36,127
44864,note_on,0,0,0,,7,,,79,127
45040,note_off,176,0,0,,7,,,79,127
45041,note_on,1,0,0,,7,,,67,127
45217,note_off,176,0,0,,7,,,67,127
45217,note_off,0,0,0,,0,,,36,127
45217,note_off,0,0,0,,0,,,48,127
45218,note_on,1,0,0,,12,,,47,127
45218,note_on,0,0,0,,12,,,35,127
45218,note_on,0,0,0,,7,,,67,127
45394,note_off,176,0,0,,7,,,67,127
45394,note_off,0,0,0,,12,,,35,127
45394,note_off,0,0,0,,12,,,47,127
45395,note_on,1,0,0,,7,,,43,127
45395,note_on,0,0,0,,7,,,31,127
45395,note_on,0,0,0,,2,,,74,127
45571,note_off,176,0,0,,2,,,74,127
45571,note_off,0,0,0,,7,,,31,127
45571,note_off,0,0,0,,7,,,43,127
45572,note_on,1,0,0,,0,,,48,127
45572,note_on,0,0,0,,0,,,36,127
45572,note_on,0,0,0,,10,,,69,127
45572,note_on,0,0,0,,0,,,72,127
45748,note_off,176,0,0,,0,,,72,127
45748,note_off,0,0,0,,10,,,69,127
45749,note_on,1,0,0,,12,,,71,127
45749,note_on,0,0,0,,7,,,67,127
45925,note_off,176,0,0,,7,,,67,127
45925,note_off,0,0,0,,12,,,71,127
45925,note_off,0,0,0,,0,,,36,127
45925,note_off,0,0,0,,0,,,48,127
45926,note_on,1,0,0,,2,,,38,127
45926,note_on,0,0,0,,2,,,50,127
45926,note_on,0,0,0,,10,,,69,127
45926,note_on,0,0,0,,6,,,66,127
46102,note_off,176,0,0,,6,,,66,127
46102,note_off,0,0,0,,10,,,69,127
46102,note_off,0,0,0,,2,,,50,127
46102,note_off,0,0,0,,2,,,38,127
46103,note_on,1,0,0,,7,,,55,127
46103,note_on,0,0,0,,7,,,43,127
46103,note_on,0,0,0,,7,,,67,127
46279,note_off,176,0,0,,7,,,67,127
46280,note_on,1,0,0,,12,,,59,127
46456,note_off,176,0,0,,12,,,59,127
46457,note_on,1,0,0,,2,,,62,127
46633,note_off,176,0,0,,2,,,62,127
46633,note_off,0,0,0,,7,,,43,127
46633,note_off,0,0,0,,7,,,55,127
46634,note_on,1,0,0,,0,,,48,127
46634,note_on,0,0,0,,10,,,57,127
46634,note_on,0,0,0,,0,,,60,127
46810,note_off,176,0,0,,0,,,60,127
46810,note_off,0,0,0,,10,,,57,127
46810,note_off,0,0,0,,0,,,48,127
46811,note_on,1,0,0,,2,,,50,127
46811,note_on,0,0,0,,7,,,55,127
46811,note_on,0,0,0,,12,,,59,127
46987,note_off,176,0,0,,12,,,59,127
46987,note_off,0,0,0,,7,,,55,127
46987,note_off,0,0,0,,2,,,50,127
46988,note_on,1,0,0,,2,,,38,127
46988,note_on,0,0,0,,6,,,54,127
46988,note_on,0,0,0,,10,,,57,127
47164,note_off,176,0,0,,6,,,54,127
47164,note_off,0,0,0,,2,,,38,127
47165,note_on,1,0,0,,7,,,43,127
47209,note_on,44,0,0,,7,,,55,127
47218,note_off,9,0,0,,10,,,57,127
47253,note_on,35,0,0,,10,,,57,127
47268,note_off,15,0,0,,7,,,55,127
47298,note_on,30,0,0,,7,,,55,127
47313,note_off,15,0,0,,10,,,57,127
47343,note_on,30,0,0,,10,,,57,127
47358,note_off,15,0,0,,7,,,55,127
47388,note_on,30,0,0,,7,,,55,127
47403,note_off,15,0,0,,10,,,57,127
47433,note_on,30,0,0,,10,,,57,127
47448,note_off,15,0,0,,7,,,55,127
47478,note_on,30,0,0,,7,,,55,127
47493,note_off,15,0,0,,10,,,57,127
47523,note_on,30,0,0,,10,,,57,127
47538,note_off,15,0,0,,7,,,55,127
47568,note_on,30,0,0,,7,,,55,127
47583,note_off,15,0,0,,10,,,57,127
47746,note_off,163,0,0,,7,,,55,127
47752,note_on,6,0,0,,2,,,62,127
47752,note_on,0,0,0,,7,,,55,127
47789,note_off,37,0,0,,7,,,43,127
47928,note_off,139,0,0,,2,,,62,127
47929,note_on,1,0,0,,4,,,64,127
48105,note_off,176,0,0,,4,,,64,127
48106,note_on,1,0,0,,5,,,65,127
48282,note_off,176,0,0,,7,,,55,127
48283,note_on,1,0,0,,7,,,55,127
48327,note_on,44,0,0,,4,,,64,127
48336,note_off,9,0,0,,5,,,65,127
48370,note_off,34,0,0,,4,,,64,127
48371,note_on,1,0,0,,5,,,65,127
48414,note_off,43,0,0,,5,,,65,127
48415,note_on,1,0,0,,4,,,64,127
48458,note_off,43,0,0,,4,,,64,127
48459,note_on,1,0,0,,2,,,62,127
48635,note_off,176,0,0,,2,,,62,127
48636,note_on,1,0,0,,0,,,60,127
48812,note_off,176,0,0,,0,,,60,127
48812,note_off,0,0,0,,7,,,55,127
48828,note_on,16,0,0,,12,,,59,127
48828,note_on,0,0,0,,7,,,55,127
48828,note_on,0,0,0,,7,,,67,127
48828,note_on,0,0,0,,2,,,74,127
49004,note_off,176,0,0,,2,,,74,127
49005,note_on,1,0,0,,4,,,76,127
49181,note_off,176,0,0,,4,,,76,127
49182,note_on,1,0,0,,5,,,77,127
49358,note_off,176,0,0,,7,,,67,127
49358,note_off,0,0,0,,7,,,55,127
49358,note_off,0,0,0,,12,,,59,127
49359,note_on,1,0,0,,7,,,67,127
49359,note_on,0,0,0,,0,,,60,127
49359,note_on,0,0,0,,7,,,55,127
49403,note_on,44,0,0,,4,,,76,127
49412,note_off,9,0,0,,5,,,77,127
49447,note_on,35,0,0,,5,,,77,127
49462,note_off,15,0,0,,4,,,76,127
49492,note_on,30,0,0,,4,,,76,127
49507,note_off,15,0,0,,5,,,77,127
49537,note_on,30,0,0,,2,,,74,127
49552,note_off,15,0,0,,4,,,76,127
49714,note_off,162,0,0,,2,,,74,127
49715,note_on,1,0,0,,0,,,72,127
49891,note_off,176,0,0,,0,,,72,127
49891,note_off,0,0,0,,7,,,55,127
49891,note_off,0,0,0,,0,,,60,127
49891,note_off,0,0,0,,7,,,67,127
49892,note_on,1,0,0,,7,,,55,127
49892,note_on,0,0,0,,2,,,62,127
49892,note_on,0,0,0,,12,,,71,127
50068,note_off,176,0,0,,2,,,62,127
50069,note_on,1,0,0,,4,,,64,127
50245,note_off,176,0,0,,4,,,64,127
50246,note_on,1,0,0,,5,,,65,127
50422,note_off,176,0,0,,12,,,71,127
50422,note_off,0,0,0,,7,,,55,127
50423,note_on,1,0,0,,7,,,55,127
50423,note_on,0,0,0,,0,,,72,127
50467,note_on,44,0,0,,4,,,64,127
50476,note_off,9,0,0,,5,,,65,127
50510,note_off,34,0,0,,4,,,64,127
50511,note_on,1,0,0,,5,,,65,127
50554,note_off,43,0,0,,5,,,65,127
50555,note_on,1,0,0,,4,,,64,127
50598,note_off,43,0,0,,4,,,64,127
50599,note_on,1,0,0,,2,,,62,127
50775,note_off,176,0,0,,2,,,62,127
50776,note_on,1,0,0,,0,,,60,127
50952,note_off,176,0,0,,0,,,60,127
50952,note_off,0,0,0,,0,,,72,127
50952,note_off,0,0,0,,7,,,55,127
50968,note_on,16,0,0,,2,,,74,127
50968,note_on,0,0,0,,7,,,67,127
50968,note_on,0,0,0,,7,,,55,127
50968,note_on,0,0,0,,12,,,59,127
51144,note_off,176,0,0,,2,,,74,127
51145,note_on,1,0,0,,3,,,75,127
51321,note_off,176,0,0,,3,,,75,127
51322,note_on,1,0,0,,5,,,77,127
51498,note_off,176,0,0,,12,,,59,127
51498,note_off,0,0,0,,7,,,55,127
51498,note_off,0,0,0,,7,,,67,127
51499,note_on,1,0,0,,7,,,67,127
51499,note_on,0,0,0,,7,,,55,127
51499,note_on,0,0,0,,0,,,60,127
51543,note_on,44,0,0,,3,,,75,127
51552,note_off,9,0,0,,5,,,77,127
51587,note_on,35,0,0,,5,,,77,127
51602,note_off,15,0,0,,3,,,75,127
51632,note_on,30,0,0,,3,,,75,127
51647,note_off,15,0,0,,5,,,77,127
51677,note_on,30,0,0,,2,,,74,127
51692,note_off,15,0,0,,3,,,75,127
51854,note_off,162,0,0,,2,,,74,127
51855,note_on,1,0,0,,0,,,72,127
52031,note_off,176,0,0,,0,,,72,127
52031,note_off,0,0,0,,0,,,60,127
52031,note_off,0,0,0,,7,,,55,127
52031,note_off,0,0,0,,7,,,67,127
52032,note_on,1,0,0,,12,,,71,127
52032,note_on,0,0,0,,2,,,62,127
52032,note_on,0,0,0,,7,,,55,127
52208,note_off,176,0,0,,2,,,62,127
52209,note_on,1,0,0,,3,,,63,127
52385,note_off,176,0,0,,3,,,63,127
52386,note_on,1,0,0,,5,,,65,127
52562,note_off,176,0,0,,7,,,55,127
52562,note_off,0,0,0,,12,,,71,127
52563,note_on,1,0,0,,0,,,72,127
52563,note_on,0,0,0,,7,,,55,127
52607,note_on,44,0,0,,3,,,63,127
52616,note_off,9,0,0,,5,,,65,127
52650,note_off,34,0,0,,3,,,63,127
52651,note_on,1,0,0,,5,,,65,127
52694,note_off,43,0,0,,5,,,65,127
52695,note_on,1,0,0,,3,,,63,127
52738,note_off,43,0,0,,3,,,63,127
52739,note_on,1,0,0,,2,,,62,127
52915,note_off,176,0,0,,2,,,62,127
52916,note_on,1,0,0,,0,,,60,127
53092,note_off,176,0,0,,0,,,60,127
53092,note_off,0,0,0,,7,,,55,127
53092,note_off,0,0,0,,0,,,72,127
53108,note_on,16,0,0,,7,,,55,127
53108,note_on,0,0,0,,12,,,59,127
53108,note_on,0,0,0,,7,,,67,127
53108,note_on,0,0,0,,2,,,74,127
53284,note_off,176,0,0,,2,,,74,127
53285,note_on,1,0,0,,3,,,75,127
53461,note_off,176,0,0,,3,,,75,127
53462,note_on,1,0,0,,5,,,77,127
53638,note_off,176,0,0,,7,,,67,127
53638,note_off,0,0,0,,12,,,59,127
53638,note_off,0,0,0,,7,,,55,127
53639,note_on,1,0,0,,0,,,60,127
53639,note_on,0,0,0,,7,,,55,127
53639,note_on,0,0,0,,7,,,67,127
53683,note_on,44,0,0,,3,,,75,127
53692,note_off,9,0,0,,5,,,77,127
53727,note_on,35,0,0,,5,,,77,127
53742,note_off,15,0,0,,3,,,75,127
53772,note_on,30,0,0,,3,,,75,127
53787,note_off,15,0,0,,5,,,77,127
53817,note_on,30,0,0,,2,,,74,127
53832,note_off,15,0,0,,3,,,75,127
53994,note_off,162,0,0,,2,,,74,127
53995,note_on,1,0,0,,0,,,72,127
54171,note_off,176,0,0,,0,,,72,127
54171,note_off,0,0,0,,7,,,67,127
54171,note_off,0,0,0,,7,,,55,127
54171,note_off,0,0,0,,0,,,60,127
54187,note_on,16,0,0,,0,,,84,127
54187,note_on,0,0,0,,0,,,72,127
54187,note_on,0,0,0,,3,,,75,127
54187,note_on,0,0,0,,0,,,60,127
54187,note_on,0,0,0,,6,,,54,127
54363,note_off,176,0,0,,0,,,60,127
54364,note_on,1,0,0,,2,,,62,127
54540,note_off,176,0,0,,2,,,62,127
54540,note_off,0,0,0,,6,,,54,127
54541,note_on,1,0,0,,0,,,60,127
54541,note_on,0,0,0,,7,,,55,127
54717,note_off,176,0,0,,7,,,55,127
54717,note_off,0,0,0,,0,,,60,127
54717,note_off,0,0,0,,3,,,75,127
54717,note_off,0,0,0,,0,,,72,127
54717,note_off,0,0,0,,0,,,84,127
54718,note_on,1,0,0,,0,,,84,127
54718,note_on,0,0,0,,0,,,72,127
54718,note_on,0,0,0,,3,,,75,127
54718,note_on,0,0,0,,0,,,60,127
54718,note_on,0,0,0,,6,,,54,127
54894,note_off,176,0,0,,0,,,60,127
54895,note_on,1,0,0,,2,,,62,127
55071,note_off,176,0,0,,2,,,62,127
55071,note_off,0,0,0,,6,,,54,127
55072,note_on,1,0,0,,0,,,60,127
55072,note_on,0,0,0,,7,,,55,127
55248,note_off,176,0,0,,7,,,55,127
55248,note_off,0,0,0,,0,,,60,127
55248,note_off,0,0,0,,3,,,75,127
55248,note_off,0,0,0,,0,,,72,127
55248,note_off,0,0,0,,0,,,84,127
55249,note_on,1,0,0,,3,,,75,127
55249,note_on,0,0,0,,0,,,84,127
55249,note_on,0,0,0,,0,,,72,127
55249,note_on,0,0,0,,0,,,60,127
55249,note_on,0,0,0,,6,,,54,127
55425,note_off,176,0,0,,0,,,60,127
55426,note_on,1,0,0,,2,,,62,127
55602,note_off,176,0,0,,2,,,62,127
55602,note_off,0,0,0,,6,,,54,127
55603,note_on,1,0,0,,0,,,60,127
55603,note_on,0,0,0,,7,,,55,127
55779,note_off,176,0,0,,7,,,55,127
55779,note_off,0,0,0,,0,,,60,127
55779,note_off,0,0,0,,0,,,72,127
55779,note_off,0,0,0,,0,,,84,127
55779,note_off,0,0,0,,3,,,75,127
55780,note_on,1,0,0,,0,,,84,127
55780,note_on,0,0,0,,0,,,72,127
55780,note_on,0,0,0,,3,,,75,127
55780,note_on,0,0,0,,0,,,60,127
55780,note_on,0,0,0,,6,,,54,127
55956,note_off,176,0,0,,0,,,60,127
55957,note_on,1,0,0,,0,,,60,127
56133,note_off,176,0,0,,0,,,60,127
56134,note_on,1,0,0,,2,,,62,127
56310,note_off,176,0,0,,2,,,62,127
56310,note_off,0,0,0,,6,,,54,127
56310,note_off,0,0,0,,3,,,75,127
56310,note_off,0,0,0,,0,,,72,127
56310,note_off,0,0,0,,0,,,84,127
56311,note_on,1,0,0,,0,,,84,127
56311,note_on,0,0,0,,0,,,72,127
56311,note_on,0,0,0,,3,,,75,127
56311,note_on,0,0,0,,5,,,53,127
56311,note_on,0,0,0,,3,,,63,127
56487,note_off,176,0,0,,3,,,63,127
56488,note_on,1,0,0,,0,,,60,127
56664,note_off,176,0,0,,0,,,60,127
56665,note_on,1,0,0,,2,,,62,127
56841,note_off,176,0,0,,2,,,62,127
56841,note_off,0,0,0,,5,,,53,127
56841,note_off,0,0,0,,3,,,75,127
56841,note_off,0,0,0,,0,,,72,127
56841,note_off,0,0,0,,0,,,84,127
56842,note_on,1,0,0,,0,,,72,127
56842,note_on,0,0,0,,0,,,84,127
56842,note_on,0,0,0,,3,,,75,127
56842,note_on,0,0,0,,3,,,63,127
56842,note_on,0,0,0,,5,,,53,127
57018,note_off,176,0,0,,3,,,63,127
57019,note_on,1,0,0,,0,,,60,127
57195,note_off,176,0,0,,0,,,60,127
57196,note_on,1,0,0,,2,,,62,127
57372,note_off,176,0,0,,2,,,62,127
57372,note_off,0,0,0,,5,,,53,127
57372,note_off,0,0,0,,3,,,75,127
57372,note_off,0,0,0,,0,,,84,127
57372,note_off,0,0,0,,0,,,72,127
57373,note_on,1,0,0,,10,,,81,127
57373,note_on,0,0,0,,0,,,72,127
57373,note_on,0,0,0,,3,,,63,127
57373,note_on,0,0,0,,5,,,53,127
57549,note_off,176,0,0,,3,,,63,127
57549,note_off,0,0,0,,0,,,72,127
57549,note_off,0,0,0,,10,,,81,127
57550,note_on,1,0,0,,2,,,74,127
57550,note_on,0,0,0,,11,,,82,127
57550,note_on,0,0,0,,2,,,62,127
57726,note_off,176,0,0,,2,,,62,127
57726,note_off,0,0,0,,11,,,82,127
57726,note_off,0,0,0,,2,,,74,127
57727,note_on,1,0,0,,0,,,84,127
57727,note_on,0,0,0,,3,,,75,127
57727,note_on,0,0,0,,0,,,60,127
57903,note_off,176,0,0,,0,,,60,127
57903,note_off,0,0,0,,3,,,75,127
57903,note_off,0,0,0,,0,,,84,127
57903,note_off,0,0,0,,5,,,53,127
57904,note_on,1,0,0,,11,,,82,127
57904,note_on,0,0,0,,2,,,74,127
57904,note_on,0,0,0,,2,,,62,127
57904,note_on,0,0,0,,5,,,53,127
58080,note_off,176,0,0,,2,,,62,127
58080,note_off,0,0,0,,2,,,74,127
58080,note_off,0,0,0,,11,,,82,127
58081,note_on,1,0,0,,3,,,75,127
58081,note_on,0,0,0,,0,,,84,127
58081,note_on,0,0,0,,0,,,60,127
58257,note_off,176,0,0,,0,,,60,127
58257,note_off,0,0,0,,0,,,84,127
58257,note_off,0,0,0,,3,,,75,127
58258,note_on,1,0,0,,5,,,77,127
58258,note_on,0,0,0,,2,,,86,127
58258,note_on,0,0,0,,11,,,58,127
58434,note_off,176,0,0,,11,,,58,127
58434,note_off,0,0,0,,2,,,86,127
58434,note_off,0,0,0,,5,,,77,127
58434,note_off,0,0,0,,5,,,53,127
58435,note_on,1,0,0,,0,,,84,127
58435,note_on,0,0,0,,3,,,75,127
58435,note_on,0,0,0,,5,,,53,127
58611,note_off,176,0,0,,3,,,75,127
58611,note_off,0,0,0,,0,,,84,127
58612,note_on,1,0,0,,2,,,74,127
58612,note_on,0,0,0,,11,,,82,127
58788,note_off,176,0,0,,11,,,82,127
58788,note_off,0,0,0,,2,,,74,127
58788,note_off,0,0,0,,5,,,53,127
58789,note_on,1,0,0,,10,,,81,127
58789,note_on,0,0,0,,0,,,72,127
58789,note_on,0,0,0,,5,,,41,127
58965,note_off,176,0,0,,5,,,41,127
58965,note_off,0,0,0,,0,,,72,127
58965,note_off,0,0,0,,10,,,81,127
58966,note_on,1,0,0,,11,,,82,127
58966,note_on,0,0,0,,11,,,46,127
59142,note_off,176,0,0,,11,,,82,127
59158,note_on,16,0,0,,2,,,74,127
59334,note_off,176,0,0,,2,,,74,127
59335,note_on,1,0,0,,2,,,74,127
59497,note_off,162,0,0,,11,,,46,127
59512,note_off,15,0,0,,2,,,74,127
59513,note_on,1,0,0,,2,,,74,127
59513,note_on,0,0,0,,3,,,75,127
59689,note_off,176,0,0,,2,,,74,127
59690,note_on,1,0,0,,8,,,56,127
59690,note_on,0,0,0,,8,,,68,127
59690,note_on,0,0,0,,0,,,72,127
59866,note_off,176,0,0,,0,,,72,127
59866,note_off,0,0,0,,3,,,75,127
59867,note_on,1,0,0,,5,,,77,127
59867,note_on,0,0,0,,0,,,72,127
60043,note_off,176,0,0,,0,,,72,127
60043,note_off,0,0,0,,5,,,77,127
60044,note_on,1,0,0,,7,,,79,127
60044,note_on,0,0,0,,12,,,71,127
60220,note_off,176,0,0,,7,,,79,127
60220,note_off,0,0,0,,8,,,68,127
60220,note_off,0,0,0,,8,,,56,127
60221,note_on,1,0,0,,7,,,55,127
60221,note_on,0,0,0,,7,,,67,127
60221,note_on,0,0,0,,2,,,74,127
60397,note_off,176,0,0,,2,,,74,127
60397,note_off,0,0,0,,7,,,67,127
60397,note_off,0,0,0,,7,,,55,127
60397,note_off,0,0,0,,12,,,71,127
60398,note_on,1,0,0,,3,,,63,127
60398,note_on,0,0,0,,3,,,51,127
60398,note_on,0,0,0,,3,,,75,127
60398,note_on,0,0,0,,7,,,79,127
60574,note_off,176,0,0,,7,,,79,127
60574,note_off,0,0,0,,3,,,75,127
60574,note_off,0,0,0,,3,,,51,127
60574,note_off,0,0,0,,3,,,63,127
60575,note_on,1,0,0,,5,,,53,127
60575,note_on,0,0,0,,5,,,65,127
60575,note_on,0,0,0,,5,,,77,127
60575,note_on,0,0,0,,2,,,74,127
60751,note_off,176,0,0,,2,,,74,127
60751,note_off,0,0,0,,5,,,77,127
60752,note_on,1,0,0,,3,,,75,127
60752,note_on,0,0,0,,0,,,72,127
60928,note_off,176,0,0,,0,,,72,127
60928,note_off,0,0,0,,3,,,75,127
60928,note_off,0,0,0,,5,,,65,127
60928,note_off,0,0,0,,5,,,53,127
60929,note_on,1,0,0,,7,,,55,127
60929,note_on,0,0,0,,7,,,67,127
60929,note_on,0,0,0,,2,,,74,127
60929,note_on,0,0,0,,12,,,71,127
61105,note_off,176,0,0,,12,,,71,127
61105,note_off,0,0,0,,2,,,74,127
61105,note_off,0,0,0,,7,,,67,127
61105,note_off,0,0,0,,7,,,55,127
61106,note_on,1,0,0,,0,,,60,127
61106,note_on,0,0,0,,0,,,48,127
61106,note_on,0,0,0,,0,,,72,127
61282,note_off,176,0,0,,0,,,72,127
61298,note_on,16,0,0,,7,,,79,127
61474,note_off,176,0,0,,7,,,79,127
61475,note_on,1,0,0,,7,,,79,127
61637,note_off,162,0,0,,0,,,48,127
61637,note_off,0,0,0,,0,,,60,127
61652,note_off,15,0,0,,7,,,79,127
61653,note_on,1,0,0,,7,,,79,127
61653,note_on,0,0,0,,8,,,80,127
61829,note_off,176,0,0,,7,,,79,127
61830,note_on,1,0,0,,5,,,77,127
61830,note_on,0,0,0,,1,,,73,127
61830,note_on,0,0,0,,1,,,61,127
62006,note_off,176,0,0,,5,,,77,127
62006,note_off,0,0,0,,8,,,80,127
62007,note_on,1,0,0,,5,,,77,127
62007,note_on,0,0,0,,11,,,82,127
62183,note_off,176,0,0,,11,,,82,127
62183,note_off,0,0,0,,5,,,77,127
62184,note_on,1,0,0,,4,,,76,127
62184,note_on,0,0,0,,0,,,84,127
62360,note_off,176,0,0,,0,,,84,127
62360,note_off,0,0,0,,1,,,61,127
62360,note_off,0,0,0,,1,,,73,127
62361,note_on,1,0,0,,7,,,79,127
62361,note_on,0,0,0,,0,,,72,127
62361,note_on,0,0,0,,0,,,60,127
62537,note_off,176,0,0,,0,,,60,127
62537,note_off,0,0,0,,0,,,72,127
62537,note_off,0,0,0,,7,,,79,127
62537,note_off,0,0,0,,4,,,76,127
62538,note_on,1,0,0,,8,,,80,127
62538,note_on,0,0,0,,0,,,84,127
62538,note_on,0,0,0,,8,,,68,127
62538,note_on,0,0,0,,8,,,56,127
62714,note_off,176,0,0,,8,,,56,127
62714,note_off,0,0,0,,8,,,68,127
62714,note_off,0,0,0,,0,,,84,127
62714,note_off,0,0,0,,8,,,80,127
62715,note_on,1,0,0,,11,,,82,127
62715,note_on,0,0,0,,7,,,79,127
62715,note_on,0,0,0,,11,,,70,127
62715,note_on,0,0,0,,11,,,58,127
62891,note_off,176,0,0,,7,,,79,127
62891,note_off,0,0,0,,11,,,82,127
62892,note_on,1,0,0,,5,,,77,127
62892,note_on,0,0,0,,8,,,80,127
63068,note_off,176,0,0,,8,,,80,127
63068,note_off,0,0,0,,5,,,77,127
63068,note_off,0,0,0,,11,,,58,127
63068,note_off,0,0,0,,11,,,70,127
63069,note_on,1,0,0,,4,,,76,127
63069,note_on,0,0,0,,7,,,79,127
63069,note_on,0,0,0,,0,,,72,127
63069,note_on,0,0,0,,0,,,60,127
63245,note_off,176,0,0,,0,,,60,127
63245,note_off,0,0,0,,0,,,72,127
63245,note_off,0,0,0,,7,,,79,127
63245,note_off,0,0,0,,4,,,76,127
63246,note_on,1,0,0,,5,,,77,127
63246,note_on,0,0,0,,5,,,53,127
63246,note_on,0,0,0,,5,,,65,127
63422,note_off,176,0,0,,5,,,77,127
63438,note_on,16,0,0,,5,,,77,127
63614,note_off,176,0,0,,5,,,77,127
63615,note_on,1,0,0,,3,,,75,127
63777,note_off,162,0,0,,5,,,65,127
63777,note_off,0,0,0,,5,,,53,127
63792,note_off,15,0,0,,3,,,75,127
63793,note_on,1,0,0,,5,,,65,127
63793,note_on,0,0,0,,5,,,53,127
63793,note_on,0,0,0,,5,,,77,127
63837,note_on,44,0,0,,3,,,75,127
63852,note_off,15,0,0,,5,,,77,127
63882,note_on,30,0,0,,5,,,77,127
63897,note_off,15,0,0,,3,,,75,127
63927,note_on,30,0,0,,3,,,75,127
63942,note_off,15,0,0,,5,,,77,127
63972,note_on,30,0,0,,2,,,74,127
63987,note_off,15,0,0,,3,,,75,127
64149,note_off,162,0,0,,2,,,74,127
64150,note_on,1,0,0,,0,,,72,127
64326,note_off,176,0,0,,0,,,72,127
64326,note_off,0,0,0,,5,,,53,127
64326,note_off,0,0,0,,5,,,65,127
64327,note_on,1,0,0,,5,,,65,127
64327,note_on,0,0,0,,7,,,55,127
64327,note_on,0,0,0,,12,,,71,127
64503,note_off,176,0,0,,5,,,65,127
64504,note_on,1,0,0,,5,,,65,127
64680,note_off,176,0,0,,5,,,65,127
64681,note_on,1,0,0,,3,,,63,127
64857,note_off,176,0,0,,3,,,63,127
64857,note_off,0,0,0,,12,,,71,127
64857,note_off,0,0,0,,7,,,55,127
64858,note_on,1,0,0,,7,,,55,127
64858,note_on,0,0,0,,3,,,63,127
64858,note_on,0,0,0,,2,,,74,127
64917,note_off,59,0,0,,2,,,74,127
64917,note_on,0,0,0,,0,,,72,127
64976,note_off,59,0,0,,0,,,72,127
64976,note_on,0,0,0,,2,,,74,127
65034,note_off,58,0,0,,3,,,63,127
65035,note_off,1,0,0,,2,,,74,127
65035,note_on,0,0,0,,2,,,62,127
65035,note_on,0,0,0,,0,,,72,127
65094,note_off,59,0,0,,0,,,72,127
65094,note_on,0,0,0,,2,,,74,127
65153,note_off,59,0,0,,2,,,74,127
65153,note_on,0,0,0,,0,,,72,127
65211,note_off,58,0,0,,2,,,62,127
65212,note_off,1,0,0,,0,,,72,127
65212,note_on,0,0,0,,0,,,60,127
65212,note_on,0,0,0,,2,,,74,127
65256,note_on,44,0,0,,0,,,72,127
65271,note_off,15,0,0,,2,,,74,127
65301,note_on,30,0,0,,12,,,71,127
65316,note_off,15,0,0,,0,,,72,127
65346,note_on,30,0,0,,0,,,72,127
65361,note_off,15,0,0,,12,,,71,127
65390,note_off,29,0,0,,0,,,60,127
65390,note_off,0,0,0,,7,,,55,127
65391,note_on,1,0,0,,7,,,55,127
65391,note_on,0,0,0,,2,,,74,127
65406,note_off,15,0,0,,0,,,72,127
65568,note_off,162,0,0,,2,,,74,127
65569,note_on,1,0,0,,7,,,67,127
65745,note_off,176,0,0,,7,,,67,127
65745,note_off,0,0,0,,7,,,55,127
65746,note_on,1,0,0,,12,,,59,127
65746,note_on,0,0,0,,5,,,65,127
65922,note_off,176,0,0,,12,,,59,127
65923,note_on,1,0,0,,0,,,60,127
65967,note_on,44,0,0,,3,,,63,127
65976,note_off,9,0,0,,5,,,65,127
66011,note_on,35,0,0,,5,,,65,127
66026,note_off,15,0,0,,3,,,63,127
66056,note_on,30,0,0,,3,,,63,127
66071,note_off,15,0,0,,5,,,65,127
66100,note_off,29,0,0,,0,,,60,127
66103,note_on,3,0,0,,2,,,62,127
66103,note_on,0,0,0,,11,,,58,127
66116,note_off,13,0,0,,3,,,63,127
66279,note_off,163,0,0,,11,,,58,127
66279,note_off,0,0,0,,2,,,62,127
66285,note_on,6,0,0,,8,,,56,127
66285,note_on,0,0,0,,0,,,60,127
66461,note_off,176,0,0,,0,,,60,127
66461,note_off,0,0,0,,8,,,56,127
66469,note_on,8,0,0,,7,,,67,127
66469,note_on,0,0,0,,7,,,43,127
66469,note_on,0,0,0,,7,,,55,127
66645,note_off,176,0,0,,7,,,55,127
66645,note_off,0,0,0,,7,,,43,127
66646,note_on,1,0,0,,7,,,55,127
66646,note_on,0,0,0,,7,,,43,127
66820,note_off,174,0,0,,7,,,43,127
66820,note_off,0,0,0,,7,,,55,127
66824,note_on,4,0,0,,12,,,59,127
66824,note_on,0,0,0,,12,,,47,127
66998,note_off,174,0,0,,12,,,47,127
66998,note_off,0,0,0,,12,,,59,127
67002,note_on,4,0,0,,7,,,43,127
67002,note_on,0,0,0,,7,,,55,127
67176,note_off,174,0,0,,7,,,55,127
67176,note_off,0,0,0,,7,,,43,127
67179,note_off,3,0,0,,7,,,67,127
67180,note_on,1,0,0,,7,,,67,127
67180,note_on,0,0,0,,7,,,55,127
67180,note_on,0,0,0,,7,,,43,127
67224,note_on,44,0,0,,5,,,65,127
67239,note_off,15,0,0,,7,,,67,127
67269,note_on,30,0,0,,7,,,67,127
67284,note_off,15,0,0,,5,,,65,127
67314,note_on,30,0,0,,5,,,65,127
67329,note_off,15,0,0,,7,,,67,127
67355,note_off,26,0,0,,7,,,43,127
67355,note_off,0,0,0,,7,,,55,127
67359,note_on,4,0,0,,4,,,64,127
67359,note_on,0,0,0,,0,,,60,127
67359,note_on,0,0,0,,0,,,48,127
67374,note_off,15,0,0,,5,,,65,127
67533,note_off,159,0,0,,0,,,48,127
67533,note_off,0,0,0,,0,,,60,127
67537,note_on,4,0,0,,7,,,55,127
67537,note_on,0,0,0,,7,,,43,127
67711,note_off,174,0,0,,7,,,43,127
67711,note_off,0,0,0,,7,,,55,127
67714,note_off,3,0,0,,4,,,64,127
67715,note_on,1,0,0,,10,,,69,127
67715,note_on,0,0,0,,7,,,55,127
67715,note_on,0,0,0,,7,,,43,127
67759,note_on,44,0,0,,7,,,67,127
67774,note_off,15,0,0,,10,,,69,127
67804,note_on,30,0,0,,10,,,69,127
67819,note_off,15,0,0,,7,,,67,127
67849,note_on,30,0,0,,7,,,67,127
67864,note_off,15,0,0,,10,,,69,127
67890,note_off,26,0,0,,7,,,43,127
67890,note_off,0,0,0,,7,,,55,127
67894,note_on,4,0,0,,5,,,65,127
67894,note_on,0,0,0,,2,,,50,127
67894,note_on,0,0,0,,2,,,62,127
67909,note_off,15,0,0,,7,,,67,127
68068,note_off,159,0,0,,2,,,62,127
68068,note_off,0,0,0,,2,,,50,127
68072,note_on,4,0,0,,7,,,43,127
68072,note_on,0,0,0,,7,,,55,127
68246,note_off,174,0,0,,7,,,55,127
68246,note_off,0,0,0,,7,,,43,127
68249,note_off,3,0,0,,5,,,65,127
68250,note_on,1,0,0,,12,,,71,127
68250,note_on,0,0,0,,7,,,43,127
68250,note_on,0,0,0,,7,,,55,127
68294,note_on,44,0,0,,10,,,69,127
68309,note_off,15,0,0,,12,,,71,127
68339,note_on,30,0,0,,12,,,71,127
68354,note_off,15,0,0,,10,,,69,127
68384,note_on,30,0,0,,10,,,69,127
68399,note_off,15,0,0,,12,,,71,127
68425,note_off,26,0,0,,7,,,55,127
68425,note_off,0,0,0,,7,,,43,127
68429,note_on,4,0,0,,7,,,67,127
68429,note_on,0,0,0,,4,,,64,127
68429,note_on,0,0,0,,4,,,52,127
68444,note_off,15,0,0,,10,,,69,127
68603,note_off,159,0,0,,4,,,52,127
68603,note_off,0,0,0,,4,,,64,127
68607,note_on,4,0,0,,7,,,43,127
68607,note_on,0,0,0,,7,,,55,127
68781,note_off,174,0,0,,7,,,55,127
68781,note_off,0,0,0,,7,,,43,127
68784,note_off,3,0,0,,7,,,67,127
68785,note_on,1,0,0,,0,,,72,127
68785,note_on,0,0,0,,7,,,55,127
68785,note_on,0,0,0,,7,,,43,127
68829,note_on,44,0,0,,12,,,71,127
68844,note_off,15,0,0,,0,,,72,127
68874,note_on,30,0,0,,0,,,72,127
68889,note_off,15,0,0,,12,,,71,127
68919,note_on,30,0,0,,12,,,71,127
68934,note_off,15,0,0,,0,,,72,127
68960,note_off,26,0,0,,7,,,43,127
68960,note_off,0,0,0,,7,,,55,127
68964,note_on,4,0,0,,10,,,69,127
68964,note_on,0,0,0,,5,,,65,127
68964,note_on,0,0,0,,5,,,53,127
68979,note_off,15,0,0,,12,,,71,127
69138,note_off,159,0,0,,5,,,53,127
69138,note_off,0,0,0,,5,,,65,127
69142,note_on,4,0,0,,7,,,43,127
69142,note_on,0,0,0,,7,,,55,127
69316,note_off,174,0,0,,7,,,55,127
69316,note_off,0,0,0,,7,,,43,127
69319,note_off,3,0,0,,10,,,69,127
69320,note_on,1,0,0,,2,,,74,127
69320,note_on,0,0,0,,7,,,43,127
69320,note_on,0,0,0,,7,,,55,127
69364,note_on,44,0,0,,0,,,72,127
69379,note_off,15,0,0,,2,,,74,127
69409,note_on,30,0,0,,2,,,74,127
69424,note_off,15,0,0,,0,,,72,127
69454,note_on,30,0,0,,0,,,72,127
69469,note_off,15,0,0,,2,,,74,127
69495,note_off,26,0,0,,7,,,55,127
69495,note_off,0,0,0,,7,,,43,127
69499,note_on,4,0,0,,12,,,71,127
69499,note_on,0,0,0,,7,,,55,127
69499,note_on,0,0,0,,7,,,67,127
69514,note_off,15,0,0,,0,,,72,127
69673,note_off,159,0,0,,7,,,67,127
69673,note_off,0,0,0,,7,,,55,127
69677,note_on,4,0,0,,7,,,55,127
69677,note_on,0,0,0,,7,,,43,127
69851,note_off,174,0,0,,7,,,43,127
69851,note_off,0,0,0,,7,,,55,127
69854,note_off,3,0,0,,12,,,71,127
69855,note_on,1,0,0,,4,,,76,127
69855,note_on,0,0,0,,7,,,55,127
69855,note_on,0,0,0,,7,,,43,127
69899,note_on,44,0,0,,2,,,74,127
69914,note_off,15,0,0,,4,,,76,127
69944,note_on,30,0,0,,4,,,76,127
69959,note_off,15,0,0,,2,,,74,127
69989,note_on,30,0,0,,2,,,74,127
70004,note_off,15,0,0,,4,,,76,127
70030,note_off,26,0,0,,7,,,43,127
70030,note_off,0,0,0,,7,,,55,127
70034,note_on,4,0,0,,0,,,72,127
70034,note_on,0,0,0,,10,,,57,127
70034,note_on,0,0,0,,10,,,69,127
70049,note_off,15,0,0,,2,,,74,127
70208,note_off,159,0,0,,10,,,69,127
70208,note_off,0,0,0,,10,,,57,127
70212,note_on,4,0,0,,7,,,55,127
70212,note_on,0,0,0,,7,,,43,127
70386,note_off,174,0,0,,7,,,43,127
70386,note_off,0,0,0,,7,,,55,127
70389,note_off,3,0,0,,0,,,72,127
70390,note_on,1,0,0,,5,,,77,127
70390,note_on,0,0,0,,7,,,43,127
70390,note_on,0,0,0,,7,,,55,127
70434,note_on,44,0,0,,4,,,76,127
70449,note_off,15,0,0,,5,,,77,127
70479,note_on,30,0,0,,5,,,77,127
70494,note_off,15,0,0,,4,,,76,127
70524,note_on,30,0,0,,4,,,76,127
70539,note_off,15,0,0,,5,,,77,127
70565,note_off,26,0,0,,7,,,55,127
70565,note_off,0,0,0,,7,,,43,127
70569,note_on,4,0,0,,2,,,74,127
70569,note_on,0,0,0,,12,,,59,127
70569,note_on,0,0,0,,12,,,71,127
70584,note_off,15,0,0,,4,,,76,127
70743,note_off,159,0,0,,12,,,71,127
70743,note_off,0,0,0,,12,,,59,127
70747,note_on,4,0,0,,7,,,55,127
70747,note_on,0,0,0,,7,,,43,127
70921,note_off,174,0,0,,7,,,43,127
70921,note_off,0,0,0,,7,,,55,127
70924,note_off,3,0,0,,2,,,74,127
70925,note_on,1,0,0,,7,,,79,127
70925,note_on,0,0,0,,7,,,43,127
70925,note_on,0,0,0,,7,,,55,127
70969,note_on,44,0,0,,5,,,77,127
70984,note_off,15,0,0,,7,,,79,127
71014,note_on,30,0,0,,7,,,79,127
71029,note_off,15,0,0,,5,,,77,127
71059,note_on,30,0,0,,5,,,77,127
71074,note_off,15,0,0,,7,,,79,127
71100,note_off,26,0,0,,7,,,55,127
71100,note_off,0,0,0,,7,,,43,127
71104,note_on,4,0,0,,4,,,76,127
71104,note_on,0,0,0,,0,,,72,127
71104,note_on,0,0,0,,0,,,60,127
71119,note_off,15,0,0,,5,,,77,127
71278,note_off,159,0,0,,0,,,60,127
71278,note_off,0,0,0,,0,,,72,127
71282,note_on,4,0,0,,7,,,55,127
71282,note_on,0,0,0,,7,,,43,127
71456,note_off,174,0,0,,7,,,43,127
71456,note_off,0,0,0,,7,,,55,127
71459,note_off,3,0,0,,4,,,76,127
71460,note_on,1,0,0,,10,,,81,127
71460,note_on,0,0,0,,7,,,55,127
71460,note_on,0,0,0,,7,,,43,127
71504,note_on,44,0,0,,7,,,79,127
71519,note_off,15,0,0,,10,,,81,127
71549,note_on,30,0,0,,10,,,81,127
71564,note_off,15,0,0,,7,,,79,127
71594,note_on,30,0,0,,7,,,79,127
71609,note_off,15,0,0,,10,,,81,127
71635,note_off,26,0,0,,7,,,43,127
71635,note_off,0,0,0,,7,,,55,127
71639,note_on,4,0,0,,5,,,77,127
71639,note_on,0,0,0,,2,,,62,127
71639,note_on,0,0,0,,2,,,74,127
71654,note_off,15,0,0,,7,,,79,127
71813,note_off,159,0,0,,2,,,74,127
71813,note_off,0,0,0,,2,,,62,127
71817,note_on,4,0,0,,7,,,55,127
71817,note_on,0,0,0,,7,,,43,127
71993,note_off,176,0,0,,5,,,77,127
71994,note_on,1,0,0,,2,,,74,127
72168,note_off,174,0,0,,2,,,74,127
72171,note_off,3,0,0,,7,,,43,127
72171,note_off,0,0,0,,7,,,55,127
72187,note_on,16,0,0,,12,,,59,127
72187,note_on,0,0,0,,12,,,47,127
72187,note_on,0,0,0,,7,,,79,127
72361,note_off,174,0,0,,7,,,79,127
72361,note_off,0,0,0,,12,,,47,127
72361,note_off,0,0,0,,12,,,59,127
72365,note_on,4,0,0,,0,,,48,127
72365,note_on,0,0,0,,0,,,60,127
72365,note_on,0,0,0,,5,,,77,127
72409,note_on,44,0,0,,4,,,76,127
72424,note_off,15,0,0,,5,,,77,127
72454,note_on,30,0,0,,5,,,77,127
72469,note_off,15,0,0,,4,,,76,127
72499,note_on,30,0,0,,4,,,76,127
72514,note_off,15,0,0,,5,,,77,127
72540,note_off,26,0,0,,0,,,60,127
72540,note_off,0,0,0,,0,,,48,127
72544,note_on,4,0,0,,12,,,47,127
72544,note_on,0,0,0,,12,,,59,127
72544,note_on,0,0,0,,2,,,74,127
72559,note_off,15,0,0,,4,,,76,127
72718,note_off,159,0,0,,2,,,74,127
72718,note_off,0,0,0,,12,,,59,127
72718,note_off,0,0,0,,12,,,47,127
72722,note_on,4,0,0,,10,,,57,127
72722,note_on,0,0,0,,10,,,45,127
72722,note_on,0,0,0,,0,,,72,127
72896,note_off,174,0,0,,10,,,45,127
72896,note_off,0,0,0,,10,,,57,127
72900,note_on,4,0,0,,7,,,55,127
72900,note_on,0,0,0,,7,,,43,127
72944,note_on,44,0,0,,12,,,71,127
72953,note_off,9,0,0,,0,,,72,127
72988,note_on,35,0,0,,0,,,72,127
73003,note_off,15,0,0,,12,,,71,127
73033,note_on,30,0,0,,12,,,71,127
73048,note_off,15,0,0,,0,,,72,127
73074,note_off,26,0,0,,7,,,43,127
73074,note_off,0,0,0,,7,,,55,127
73078,note_on,4,0,0,,5,,,53,127
73078,note_on,0,0,0,,5,,,41,127
73078,note_on,0,0,0,,10,,,69,127
73093,note_off,15,0,0,,12,,,71,127
73252,note_off,159,0,0,,10,,,69,127
73252,note_off,0,0,0,,5,,,41,127
73252,note_off,0,0,0,,5,,,53,127
73256,note_on,4,0,0,,4,,,40,127
73256,note_on,0,0,0,,4,,,52,127
73256,note_on,0,0,0,,7,,,79,127
73256,note_on,0,0,0,,7,,,67,127
73430,note_off,174,0,0,,7,,,67,127
73430,note_off,0,0,0,,7,,,79,127
73430,note_off,0,0,0,,4,,,52,127
73430,note_off,0,0,0,,4,,,40,127
73434,note_on,4,0,0,,5,,,53,127
73434,note_on,0,0,0,,5,,,41,127
73434,note_on,0,0,0,,10,,,69,127
73434,note_on,0,0,0,,5,,,77,127
73608,note_off,174,0,0,,5,,,77,127
73608,note_off,0,0,0,,10,,,69,127
73612,note_on,4,0,0,,0,,,72,127
73612,note_on,0,0,0,,4,,,76,127
73786,note_off,174,0,0,,4,,,76,127
73786,note_off,0,0,0,,0,,,72,127
73789,note_off,3,0,0,,5,,,41,127
73789,note_off,0,0,0,,5,,,53,127
73790,note_on,1,0,0,,7,,,43,127
73790,note_on,0,0,0,,7,,,55,127
73790,note_on,0,0,0,,2,,,74,127
73790,note_on,0,0,0,,12,,,71,127
73964,note_off,174,0,0,,12,,,71,127
73964,note_off,0,0,0,,2,,,74,127
73964,note_off,0,0,0,,7,,,55,127
73964,note_off,0,0,0,,7,,,43,127
73973,note_on,9,0,0,,0,,,72,127
73973,note_on,0,0,0,,0,,,60,127
73973,note_on,0,0,0,,0,,,48,127
74147,note_off,174,0,0,,0,,,48,127
74147,note_off,0,0,0,,0,,,60,127
74147,note_off,0,0,0,,0,,,72,127
74160,note_on,13,0,0,,7,,,79,127
74160,note_on,0,0,0,,7,,,67,127
74160,note_on,0,0,0,,7,,,55,127
74334,note_off,174,0,0,,7,,,55,127
74334,note_off,0,0,0,,7,,,67,127
74334,note_off,0,0,0,,7,,,79,127
74338,note_on,4,0,0,,4,,,76,127
74338,note_on,0,0,0,,4,,,64,127
74338,note_on,0,0,0,,4,,,52,127
74512,note_off,174,0,0,,4,,,52,127
74512,note_off,0,0,0,,4,,,64,127
74512,note_off,0,0,0,,4,,,76,127
74516,note_on,4,0,0,,0,,,72,127
74516,note_on,0,0,0,,0,,,60,127
74516,note_on,0,0,0,,0,,,48,127
74690,note_off,174,0,0,,0,,,48,127
74690,note_off,0,0,0,,0,,,60,127
74690,note_off,0,0,0,,0,,,72,127
74694,note_on,4,0,0,,10,,,69,127
74694,note_on,0,0,0,,10,,,45,127
74694,note_on,0,0,0,,10,,,57,127
74868,note_off,174,0,0,,10,,,57,127
74868,note_off,0,0,0,,10,,,45,127
74868,note_off,0,0,0,,10,,,69,127
74877,note_on,9,0,0,,6,,,66,127
74877,note_on,0,0,0,,6,,,54,127
74877,note_on,0,0,0,,6,,,42,127
75051,note_off,174,0,0,,6,,,42,127
75051,note_off,0,0,0,,6,,,54,127
75051,note_off,0,0,0,,6,,,66,127
75064,note_on,13,0,0,,7,,,31,127
75064,note_on,0,0,0,,7,,,43,127
75064,note_on,0,0,0,,7,,,67,127
75238,note_off,174,0,0,,7,,,43,127
75238,note_off,0,0,0,,7,,,31,127
75242,note_on,4,0,0,,7,,,31,127
75242,note_on,0,0,0,,7,,,43,127
75408,note_off,166,0,0,,7,,,43,127
75408,note_off,0,0,0,,7,,,31,127
75419,note_on,11,0,0,,12,,,35,127
75419,note_on,0,0,0,,12,,,47,127
75585,note_off,166,0,0,,12,,,47,127
75585,note_off,0,0,0,,12,,,35,127
75596,note_on,11,0,0,,7,,,31,127
75596,note_on,0,0,0,,7,,,43,127
75762,note_off,166,0,0,,7,,,43,127
75762,note_off,0,0,0,,7,,,31,127
75772,note_off,10,0,0,,7,,,67,127
75773,note_on,1,0,0,,7,,,31,127
75773,note_on,0,0,0,,7,,,43,127
75773,note_on,0,0,0,,7,,,55,127
75817,note_on,44,0,0,,5,,,53,127
75832,note_off,15,0,0,,7,,,55,127
75862,note_on,30,0,0,,7,,,55,127
75877,note_off,15,0,0,,5,,,53,127
75907,note_on,30,0,0,,5,,,53,127
75922,note_off,15,0,0,,7,,,55,127
75940,note_off,18,0,0,,7,,,43,127
75940,note_off,0,0,0,,7,,,31,127
75951,note_on,11,0,0,,0,,,36,127
75951,note_on,0,0,0,,0,,,48,127
75951,note_on,0,0,0,,4,,,52,127
75966,note_off,15,0,0,,5,,,53,127
76117,note_off,151,0,0,,0,,,48,127
76117,note_off,0,0,0,,0,,,36,127
76128,note_on,11,0,0,,7,,,31,127
76128,note_on,0,0,0,,7,,,43,127
76294,note_off,166,0,0,,7,,,43,127
76294,note_off,0,0,0,,7,,,31,127
76304,note_off,10,0,0,,4,,,52,127
76305,note_on,1,0,0,,7,,,31,127
76305,note_on,0,0,0,,7,,,43,127
76305,note_on,0,0,0,,10,,,57,127
76349,note_on,44,0,0,,7,,,55,127
76364,note_off,15,0,0,,10,,,57,127
76394,note_on,30,0,0,,10,,,57,127
76409,note_off,15,0,0,,7,,,55,127
76439,note_on,30,0,0,,7,,,55,127
76454,note_off,15,0,0,,10,,,57,127
76472,note_off,18,0,0,,7,,,43,127
76472,note_off,0,0,0,,7,,,31,127
76483,note_on,11,0,0,,2,,,38,127
76483,note_on,0,0,0,,2,,,50,127
76483,note_on,0,0,0,,5,,,53,127
76498,note_off,15,0,0,,7,,,55,127
76649,note_off,151,0,0,,2,,,50,127
76649,note_off,0,0,0,,2,,,38,127
76660,note_on,11,0,0,,7,,,31,127
76660,note_on,0,0,0,,7,,,43,127
76826,note_off,166,0,0,,7,,,43,127
76826,note_off,0,0,0,,7,,,31,127
76836,note_off,10,0,0,,5,,,53,127
76837,note_on,1,0,0,,7,,,31,127
76837,note_on,0,0,0,,7,,,43,127
76837,note_on,0,0,0,,12,,,59,127
76881,note_on,44,0,0,,10,,,57,127
76896,note_off,15,0,0,,12,,,59,127
76926,note_on,30,0,0,,12,,,59,127
76941,note_off,15,0,0,,10,,,57,127
76971,note_on,30,0,0,,10,,,57,127
76986,note_off,15,0,0,,12,,,59,127
77004,note_off,18,0,0,,7,,,43,127
77004,note_off,0,0,0,,7,,,31,127
77015,note_on,11,0,0,,4,,,40,127
77015,note_on,0,0,0,,4,,,52,127
77015,note_on,0,0,0,,7,,,55,127
77030,note_off,15,0,0,,10,,,57,127
77181,note_off,151,0,0,,4,,,52,127
77181,note_off,0,0,0,,4,,,40,127
77192,note_on,11,0,0,,7,,,43,127
77192,note_on,0,0,0,,7,,,31,127
77358,note_off,166,0,0,,7,,,31,127
77358,note_off,0,0,0,,7,,,43,127
77368,note_off,10,0,0,,7,,,55,127
77369,note_on,1,0,0,,7,,,43,127
77369,note_on,0,0,0,,7,,,31,127
77369,note_on,0,0,0,,0,,,60,127
77413,note_on,44,0,0,,12,,,59,127
77428,note_off,15,0,0,,0,,,60,127
77458,note_on,30,0,0,,0,,,60,127
77473,note_off,15,0,0,,12,,,59,127
77503,note_on,30,0,0,,12,,,59,127
77518,note_off,15,0,0,,0,,,60,127
77536,note_off,18,0,0,,7,,,31,127
77536,note_off,0,0,0,,7,,,43,127
77547,note_on,11,0,0,,5,,,53,127
77547,note_on,0,0,0,,5,,,41,127
77547,note_on,0,0,0,,10,,,57,127
77562,note_off,15,0,0,,12,,,59,127
77713,note_off,151,0,0,,5,,,41,127
77713,note_off,0,0,0,,5,,,53,127
77724,note_on,11,0,0,,7,,,43,127
77724,note_on,0,0,0,,7,,,31,127
77890,note_off,166,0,0,,7,,,31,127
77890,note_off,0,0,0,,7,,,43,127
77900,note_off,10,0,0,,10,,,57,127
77901,note_on,1,0,0,,7,,,43,127
77901,note_on,0,0,0,,7,,,31,127
77901,note_on,0,0,0,,2,,,62,127
77945,note_on,44,0,0,,0,,,60,127
77960,note_off,15,0,0,,2,,,62,127
77990,note_on,30,0,0,,2,,,62,127
78005,note_off,15,0,0,,0,,,60,127
78035,note_on,30,0,0,,0,,,60,127
78050,note_off,15,0,0,,2,,,62,127
78068,note_off,18,0,0,,7,,,31,127
78068,note_off,0,0,0,,7,,,43,127
78079,note_on,11,0,0,,7,,,55,127
78079,note_on,0,0,0,,7,,,43,127
78079,note_on,0,0,0,,12,,,59,127
78094,note_off,15,0,0,,0,,,60,127
78245,note_off,151,0,0,,7,,,43,127
78245,note_off,0,0,0,,7,,,55,127
78256,note_on,11,0,0,,7,,,43,127
78256,note_on,0,0,0,,7,,,31,127
78422,note_off,166,0,0,,7,,,31,127
78422,note_off,0,0,0,,7,,,43,127
78432,note_off,10,0,0,,12,,,59,127
78433,note_on,1,0,0,,7,,,43,127
78433,note_on,0,0,0,,7,,,31,127
78433,note_on,0,0,0,,4,,,64,127
78477,note_on,44,0,0,,2,,,62,127
78492,note_off,15,0,0,,4,,,64,127
78522,note_on,30,0,0,,4,,,64,127
78537,note_off,15,0,0,,2,,,62,127
78567,note_on,30,0,0,,2,,,62,127
78582,note_off,15,0,0,,4,,,64,127
78600,note_off,18,0,0,,7,,,31,127
78600,note_off,0,0,0,,7,,,43,127
78611,note_on,11,0,0,,10,,,57,127
78611,note_on,0,0,0,,10,,,45,127
78611,note_on,0,0,0,,0,,,60,127
78626,note_off,15,0,0,,2,,,62,127
78777,note_off,151,0,0,,10,,,45,127
78777,note_off,0,0,0,,10,,,57,127
78788,note_on,11,0,0,,7,,,43,127
78788,note_on,0,0,0,,7,,,31,127
78954,note_off,166,0,0,,7,,,31,127
78954,note_off,0,0,0,,7,,,43,127
78964,note_off,10,0,0,,0,,,60,127
78965,note_on,1,0,0,,7,,,43,127
78965,note_on,0,0,0,,7,,,31,127
78965,note_on,0,0,0,,5,,,65,127
79009,note_on,44,0,0,,4,,,64,127
79024,note_off,15,0,0,,5,,,65,127
79054,note_on,30,0,0,,5,,,65,127
79069,note_off,15,0,0,,4,,,64,127
79099,note_on,30,0,0,,4,,,64,127
79114,note_off,15,0,0,,5,,,65,127
79132,note_off,18,0,0,,7,,,31,127
79132,note_off,0,0,0,,7,,,43,127
79143,note_on,11,0,0,,12,,,59,127
79143,note_on,0,0,0,,12,,,47,127
79143,note_on,0,0,0,,2,,,62,127
79158,note_off,15,0,0,,4,,,64,127
79309,note_off,151,0,0,,12,,,47,127
79309,note_off,0,0,0,,12,,,59,127
79320,note_on,11,0,0,,7,,,43,127
79320,note_on,0,0,0,,7,,,31,127
79486,note_off,166,0,0,,7,,,31,127
79486,note_off,0,0,0,,7,,,43,127
79496,note_off,10,0,0,,2,,,62,127
79497,note_on,1,0,0,,7,,,43,127
79497,note_on,0,0,0,,7,,,31,127
79497,note_on,0,0,0,,7,,,67,127
79541,note_on,44,0,0,,5,,,65,127
79556,note_off,15,0,0,,7,,,67,127
79586,note_on,30,0,0,,7,,,67,127
79601,note_off,15,0,0,,5,,,65,127
79631,note_on,30,0,0,,5,,,65,127
79646,note_off,15,0,0,,7,,,67,127
79664,note_off,18,0,0,,7,,,31,127
79664,note_off,0,0,0,,7,,,43,127
79675,note_on,11,0,0,,0,,,60,127
79675,note_on,0,0,0,,0,,,48,127
79675,note_on,0,0,0,,4,,,64,127
79690,note_off,15,0,0,,5,,,65,127
79841,note_off,151,0,0,,0,,,48,127
79841,note_off,0,0,0,,0,,,60,127
79852,note_on,11,0,0,,7,,,43,127
79852,note_on,0,0,0,,7,,,31,127
80018,note_off,166,0,0,,7,,,31,127
80018,note_off,0,0,0,,7,,,43,127
80028,note_off,10,0,0,,4,,,64,127
80029,note_on,1,0,0,,7,,,43,127
80029,note_on,0,0,0,,7,,,31,127
80029,note_on,0,0,0,,10,,,69,127
80073,note_on,44,0,0,,7,,,67,127
80088,note_off,15,0,0,,10,,,69,127
80118,note_on,30,0,0,,10,,,69,127
80133,note_off,15,0,0,,7,,,67,127
80163,note_on,30,0,0,,7,,,67,127
80178,note_off,15,0,0,,10,,,69,127
80196,note_off,18,0,0,,7,,,31,127
80196,note_off,0,0,0,,7,,,43,127
80207,note_on,11,0,0,,2,,,62,127
80207,note_on,0,0,0,,2,,,50,127
80207,note_on,0,0,0,,5,,,65,127
80222,note_off,15,0,0,,7,,,67,127
80373,note_off,151,0,0,,2,,,50,127
80373,note_off,0,0,0,,2,,,62,127
80384,note_on,11,0,0,,7,,,43,127
80384,note_on,0,0,0,,7,,,31,127
80560,note_off,176,0,0,,5,,,65,127
80576,note_on,16,0,0,,2,,,74,127
80738,note_off,162,0,0,,7,,,31,127
80738,note_off,0,0,0,,7,,,43,127
80765,note_on,27,0,0,,12,,,59,127
80765,note_on,0,0,0,,12,,,47,127
80765,note_on,0,0,0,,7,,,79,127
80780,note_off,15,0,0,,2,,,74,127
80931,note_off,151,0,0,,7,,,79,127
80931,note_off,0,0,0,,12,,,47,127
80931,note_off,0,0,0,,12,,,59,127
80942,note_on,11,0,0,,0,,,48,127
80942,note_on,0,0,0,,0,,,60,127
80942,note_on,0,0,0,,5,,,77,127
80986,note_on,44,0,0,,4,,,76,127
81001,note_off,15,0,0,,5,,,77,127
81031,note_on,30,0,0,,5,,,77,127
81046,note_off,15,0,0,,4,,,76,127
81076,note_on,30,0,0,,4,,,76,127
81091,note_off,15,0,0,,5,,,77,127
81109,note_off,18,0,0,,0,,,60,127
81109,note_off,0,0,0,,0,,,48,127
81120,note_on,11,0,0,,12,,,47,127
81120,note_on,0,0,0,,12,,,59,127
81120,note_on,0,0,0,,2,,,74,127
81135,note_off,15,0,0,,4,,,76,127
81286,note_off,151,0,0,,2,,,74,127
81286,note_off,0,0,0,,12,,,59,127
81286,note_off,0,0,0,,12,,,47,127
81297,note_on,11,0,0,,10,,,45,127
81297,note_on,0,0,0,,10,,,57,127
81297,note_on,0,0,0,,0,,,72,127
81463,note_off,166,0,0,,10,,,57,127
81463,note_off,0,0,0,,10,,,45,127
81474,note_on,11,0,0,,7,,,55,127
81474,note_on,0,0,0,,7,,,43,127
81518,note_on,44,0,0,,12,,,71,127
81527,note_off,9,0,0,,0,,,72,127
81562,note_on,35,0,0,,0,,,72,127
81577,note_off,15,0,0,,12,,,71,127
81607,note_on,30,0,0,,12,,,71,127
81622,note_off,15,0,0,,0,,,72,127
81640,note_off,18,0,0,,7,,,43,127
81640,note_off,0,0,0,,7,,,55,127
81651,note_on,11,0,0,,5,,,41,127
81651,note_on,0,0,0,,5,,,53,127
81651,note_on,0,0,0,,10,,,69,127
81666,note_off,15,0,0,,12,,,71,127
81817,note_off,151,0,0,,10,,,69,127
81817,note_off,0,0,0,,5,,,53,127
81817,note_off,0,0,0,,5,,,41,127
81828,note_on,11,0,0,,4,,,40,127
81828,note_on,0,0,0,,4,,,52,127
81828,note_on,0,0,0,,7,,,79,127
81828,note_on,0,0,0,,7,,,67,127
81994,note_off,166,0,0,,7,,,67,127
81994,note_off,0,0,0,,7,,,79,127
81994,note_off,0,0,0,,4,,,52,127
81994,note_off,0,0,0,,4,,,40,127
82005,note_on,11,0,0,,5,,,41,127
82005,note_on,0,0,0,,5,,,53,127
82005,note_on,0,0,0,,5,,,77,127
82005,note_on,0,0,0,,10,,,69,127
82171,note_off,166,0,0,,10,,,69,127
82171,note_off,0,0,0,,5,,,77,127
82182,note_on,11,0,0,,0,,,72,127
82182,note_on,0,0,0,,4,,,76,127
82348,note_off,166,0,0,,4,,,76,127
82348,note_off,0,0,0,,0,,,72,127
82358,note_off,10,0,0,,5,,,53,127
82358,note_off,0,0,0,,5,,,41,127
82359,note_on,1,0,0,,7,,,43,127
82359,note_on,0,0,0,,7,,,55,127
82359,note_on,0,0,0,,2,,,74,127
82359,note_on,0,0,0,,12,,,71,127
82525,note_off,166,0,0,,12,,,71,127
82525,note_off,0,0,0,,2,,,74,127
82525,note_off,0,0,0,,7,,,55,127
82525,note_off,0,0,0,,7,,,43,127
82536,note_on,11,0,0,,0,,,48,127
82536,note_on,0,0,0,,0,,,60,127
82536,note_on,0,0,0,,0,,,72,127
82702,note_off,166,0,0,,0,,,72,127
82728,note_on,26,0,0,,0,,,72,127
82904,note_off,176,0,0,,0,,,72,127
82905,note_on,1,0,0,,7,,,79,127
83067,note_off,162,0,0,,0,,,60,127
83067,note_off,0,0,0,,0,,,48,127
83082,note_off,15,0,0,,7,,,79,127
83083,note_on,1,0,0,,0,,,72,127
83259,note_off,176,0,0,,0,,,72,127
83260,note_on,1,0,0,,0,,,72,127
83436,note_off,176,0,0,,0,,,72,127
83437,note_on,1,0,0,,0,,,84,127
83437,note_on,0,0,0,,5,,,53,127
83437,note_on,0,0,0,,5,,,41,127
83613,note_off,176,0,0,,0,,,84,127
83614,note_on,1,0,0,,0,,,72,127
83790,note_off,176,0,0,,0,,,72,127
83790,note_off,0,0,0,,5,,,41,127
83790,note_off,0,0,0,,5,,,53,127
83791,note_on,1,0,0,,0,,,72,127
83791,note_on,0,0,0,,4,,,52,127
83791,note_on,0,0,0,,4,,,40,127
83967,note_off,176,0,0,,4,,,40,127
83967,note_off,0,0,0,,4,,,52,127
83967,note_off,0,0,0,,0,,,72,127
83968,note_on,1,0,0,,7,,,79,127
83968,note_on,0,0,0,,0,,,36,127
83968,note_on,0,0,0,,0,,,48,127
84144,note_off,176,0,0,,0,,,48,127
84144,note_off,0,0,0,,0,,,36,127
84144,note_off,0,0,0,,7,,,79,127
84145,note_on,1,0,0,,2,,,74,127
84145,note_on,0,0,0,,5,,,77,127
84145,note_on,0,0,0,,5,,,53,127
84145,note_on,0,0,0,,5,,,41,127
84321,note_off,176,0,0,,5,,,77,127
84321,note_off,0,0,0,,2,,,74,127
84322,note_on,1,0,0,,4,,,76,127
84322,note_on,0,0,0,,0,,,72,127
84498,note_off,176,0,0,,0,,,72,127
84498,note_off,0,0,0,,4,,,76,127
84498,note_off,0,0,0,,5,,,41,127
84498,note_off,0,0,0,,5,,,53,127
84499,note_on,1,0,0,,12,,,71,127
84499,note_on,0,0,0,,2,,,74,127
84499,note_on,0,0,0,,7,,,55,127
84499,note_on,0,0,0,,7,,,43,127
84675,note_off,176,0,0,,7,,,43,127
84675,note_off,0,0,0,,7,,,55,127
84675,note_off,0,0,0,,2,,,74,127
84675,note_off,0,0,0,,12,,,71,127
84691,note_on,16,0,0,,0,,,48,127
84691,note_on,0,0,0,,0,,,36,127
84691,note_on,0,0,0,,0,,,60,127
84867,note_off,176,0,0,,0,,,60,127
84868,note_on,1,0,0,,0,,,60,127
85044,note_off,176,0,0,,0,,,60,127
85045,note_on,1,0,0,,7,,,67,127
85221,note_off,176,0,0,,7,,,67,127
85221,note_off,0,0,0,,0,,,36,127
85221,note_off,0,0,0,,0,,,48,127
85222,note_on,1,0,0,,0,,,60,127
85398,note_off,176,0,0,,0,,,60,127
85399,note_on,1,0,0,,0,,,60,127
85575,note_off,176,0,0,,0,,,60,127
85576,note_on,1,0,0,,5,,,41,127
85576,note_on,0,0,0,,5,,,53,127
85576,note_on,0,0,0,,0,,,72,127
85752,note_off,176,0,0,,0,,,72,127
85753,note_on,1,0,0,,0,,,60,127
85929,note_off,176,0,0,,0,,,60,127
85929,note_off,0,0,0,,5,,,53,127
85929,note_off,0,0,0,,5,,,41,127
85930,note_on,1,0,0,,4,,,40,127
85930,note_on,0,0,0,,4,,,52,127
85930,note_on,0,0,0,,0,,,60,127
86106,note_off,176,0,0,,0,,,60,127
86106,note_off,0,0,0,,4,,,52,127
86106,note_off,0,0,0,,4,,,40,127
86107,note_on,1,0,0,,0,,,48,127
86107,note_on,0,0,0,,0,,,36,127
86107,note_on,0,0,0,,7,,,67,127
86283,note_off,176,0,0,,7,,,67,127
86283,note_off,0,0,0,,0,,,36,127
86283,note_off,0,0,0,,0,,,48,127
86284,note_on,1,0,0,,5,,,41,127
86284,note_on,0,0,0,,5,,,53,127
86284,note_on,0,0,0,,5,,,65,127
86284,note_on,0,0,0,,2,,,62,127
86460,note_off,176,0,0,,2,,,62,127
86460,note_off,0,0,0,,5,,,65,127
86461,note_on,1,0,0,,0,,,60,127
86461,note_on,0,0,0,,4,,,64,127
86637,note_off,176,0,0,,4,,,64,127
86637,note_off,0,0,0,,0,,,60,127
86637,note_off,0,0,0,,5,,,53,127
86637,note_off,0,0,0,,5,,,41,127
86638,note_on,1,0,0,,7,,,55,127
86638,note_on,0,0,0,,7,,,43,127
86638,note_on,0,0,0,,12,,,59,127
86638,note_on,0,0,0,,2,,,62,127
86814,note_off,176,0,0,,2,,,62,127
86814,note_off,0,0,0,,12,,,59,127
86814,note_off,0,0,0,,7,,,43,127
86814,note_off,0,0,0,,7,,,55,127
86830,note_on,16,0,0,,0,,,60,127
86830,note_on,0,0,0,,0,,,48,127
86830,note_on,0,0,0,,0,,,36,127
87074,note_off,244,0,0,,0,,,60,127
87074,note_on,0,0,0,,2,,,62,127
87096,note_on,22,0,0,,4,,,64,127
87118,note_on,22,0,0,,5,,,65,127
87133,note_off,15,0,0,,2,,,62,127
87140,note_on,7,0,0,,7,,,67,127
87155,note_off,15,0,0,,4,,,64,127
87162,note_on,7,0,0,,10,,,69,127
87177,note_off,15,0,0,,5,,,65,127
87184,note_on,7,0,0,,12,,,71,127
87199,note_off,15,0,0,,7,,,67,127
87206,note_on,7,0,0,,0,,,72,127
87221,note_off,15,0,0,,10,,,69,127
87228,note_on,7,0,0,,2,,,74,127
87243,note_off,15,0,0,,12,,,71,127
87250,note_on,7,0,0,,4,,,76,127
87265,note_off,15,0,0,,0,,,72,127
87272,note_on,7,0,0,,5,,,77,127
87287,note_off,15,0,0,,2,,,74,127
87294,note_on,7,0,0,,7,,,79,127
87309,note_off,15,0,0,,4,,,76,127
87316,note_on,7,0,0,,10,,,81,127
87331,note_off,15,0,0,,5,,,77,127
87338,note_on,7,0,0,,12,,,83,127
87353,note_off,15,0,0,,7,,,79,127
87360,note_on,7,0,0,,0,,,84,127
87375,note_off,15,0,0,,10,,,81,127
87388,note_off,13,0,0,,12,,,83,127
87390,note_on,2,0,0,,12,,,83,127
87404,note_off,14,0,0,,0,,,36,127
87404,note_off,0,0,0,,0,,,48,127
87405,note_on,1,0,0,,7,,,55,127
87405,note_on,0,0,0,,7,,,43,127
87420,note_off,15,0,0,,0,,,84,127
87420,note_on,0,0,0,,0,,,84,127
87450,note_off,30,0,0,,12,,,83,127
87453,note_on,3,0,0,,12,,,83,127
87469,note_off,16,0,0,,0,,,84,127
87486,note_on,17,0,0,,0,,,84,127
87502,note_off,16,0,0,,12,,,83,127
87519,note_on,17,0,0,,12,,,83,127
87535,note_off,16,0,0,,0,,,84,127
87552,note_on,17,0,0,,0,,,84,127
87568,note_off,16,0,0,,12,,,83,127
87585,note_on,17,0,0,,12,,,83,127
87601,note_off,16,0,0,,0,,,84,127
87618,note_on,17,0,0,,0,,,84,127
87634,note_off,16,0,0,,12,,,83,127
87650,note_on,16,0,0,,12,,,83,127
87667,note_off,17,0,0,,0,,,84,127
87683,note_on,16,0,0,,0,,,84,127
87699,note_off,16,0,0,,12,,,83,127
87716,note_on,17,0,0,,12,,,83,127
87732,note_off,16,0,0,,0,,,84,127
87749,note_on,17,0,0,,0,,,84,127
87765,note_off,16,0,0,,12,,,83,127
87782,note_on,17,0,0,,12,,,83,127
87798,note_off,16,0,0,,0,,,84,127
87815,note_on,17,0,0,,0,,,84,127
87831,note_off,16,0,0,,12,,,83,127
87848,note_on,17,0,0,,12,,,83,127
87864,note_off,16,0,0,,0,,,84,127
87881,note_on,17,0,0,,10,,,81,127
87897,note_off,16,0,0,,12,,,83,127
87902,note_off,5,0,0,,7,,,43,127
87902,note_off,0,0,0,,7,,,55,127
87914,note_on,12,0,0,,12,,,83,127
87930,note_off,16,0,0,,10,,,81,127
87947,note_off,17,0,0,,12,,,83,127
87947,note_on,0,0,0,,0,,,36,127
87947,note_on,0,0,0,,0,,,48,127
87947,note_on,0,0,0,,0,,,84,127
89782,note_off,1835,0,0,,0,,,48,127
89782,note_off,0,0,0,,0,,,36,127
89871,note_off,89,0,0,,0,,,84,127
95232,end_of_track,5361,1,0,,,,,,
