tick,type,time,meta,track,program,channel,pitch,tempo,note,velocity
0,copyright,0,1,0,,,,,,
0,program_change,0,0,0,6,0,,,,
0,pitchwheel,0,0,0,,0,0,,,
0,program_change,0,0,0,6,1,,,,
0,pitchwheel,0,0,0,,1,-590,,,
0,program_change,0,0,0,6,2,,,,
0,pitchwheel,0,0,0,,2,-272,,,
0,program_change,0,0,0,6,3,,,,
0,pitchwheel,0,0,0,,3,-353,,,
0,program_change,0,0,0,6,4,,,,
0,pitchwheel,0,0,0,,4,-560,,,
0,program_change,0,0,0,6,5,,,,
0,pitchwheel,0,0,0,,5,-80,,,
0,program_change,0,0,0,6,6,,,,
0,pitchwheel,0,0,0,,6,-625,,,
0,program_change,0,0,0,6,7,,,,
0,pitchwheel,0,0,0,,7,-130,,,
0,program_change,0,0,0,6,8,,,,
0,pitchwheel,0,0,0,,8,-512,,,
0,program_change,0,0,0,6,10,,,,
0,pitchwheel,0,0,0,,10,-464,,,
0,program_change,0,0,0,6,11,,,,
0,pitchwheel,0,0,0,,11,-208,,,
0,program_change,0,0,0,6,12,,,,
0,pitchwheel,0,0,0,,12,-553,,,
0,set_tempo,0,1,0,,,,500000,,
131,note_on,131,0,0,,11,,,70,127
391,note_off,260,0,0,,11,,,70,127
392,note_on,1,0,0,,5,,,65,127
565,note_off,173,0,0,,5,,,65,127
566,note_on,1,0,0,,11,,,70,127
652,note_off,86,0,0,,11,,,70,127
653,note_on,1,0,0,,5,,,77,127
913,note_off,260,0,0,,5,,,77,127
914,note_on,1,0,0,,5,,,77,127
1174,note_off,260,0,0,,5,,,77,127
1175,note_on,1,0,0,,11,,,58,127
1175,note_on,0,0,0,,7,,,79,127
1239,note_off,64,0,0,,7,,,79,127
1240,note_on,1,0,0,,5,,,77,127
1304,note_off,64,0,0,,5,,,77,127
1305,note_on,1,0,0,,7,,,79,127
1369,note_off,64,0,0,,7,,,79,127
1370,note_on,1,0,0,,5,,,77,127
1434,note_off,64,0,0,,5,,,77,127
1434,note_off,0,0,0,,11,,,58,127
1435,note_on,1,0,0,,5,,,53,127
1435,note_on,0,0,0,,7,,,79,127
1499,note_off,64,0,0,,7,,,79,127
1500,note_on,1,0,0,,5,,,77,127
1564,note_off,64,0,0,,5,,,77,127
1565,note_on,1,0,0,,7,,,79,127
1629,note_off,64,0,0,,7,,,79,127
1629,note_off,0,0,0,,5,,,53,127
1630,note_on,1,0,0,,11,,,58,127
1630,note_on,0,0,0,,5,,,77,127
1694,note_off,64,0,0,,11,,,58,127
1695,note_on,1,0,0,,5,,,65,127
1955,note_off,260,0,0,,5,,,65,127
1956,note_on,1,0,0,,5,,,65,127
2216,note_off,260,0,0,,5,,,65,127
2217,note_on,1,0,0,,5,,,65,127
2477,note_off,260,0,0,,5,,,77,127
2478,note_on,1,0,0,,6,,,78,127
2738,note_off,260,0,0,,6,,,78,127
2739,note_on,1,0,0,,10,,,81,127
2739,note_on,0,0,0,,7,,,79,127
2870,note_off,131,0,0,,5,,,65,127
3000,note_off,130,0,0,,10,,,81,127
3001,note_on,1,0,0,,3,,,63,127
3001,note_on,0,0,0,,7,,,67,127
3257,note_off,256,0,0,,7,,,79,127
3261,note_off,4,0,0,,7,,,67,127
3262,note_on,1,0,0,,5,,,77,127
3262,note_on,0,0,0,,10,,,69,127
3522,note_off,260,0,0,,10,,,69,127
3522,note_off,0,0,0,,3,,,63,127
3523,note_on,1,0,0,,2,,,62,127
3523,note_on,0,0,0,,11,,,70,127
3779,note_off,256,0,0,,5,,,77,127
3783,note_off,4,0,0,,11,,,70,127
3783,note_off,0,0,0,,2,,,62,127
3784,note_on,1,0,0,,3,,,63,127
3784,note_on,0,0,0,,2,,,74,127
3848,note_off,64,0,0,,2,,,74,127
3849,note_on,1,0,0,,0,,,72,127
3913,note_off,64,0,0,,0,,,72,127
3914,note_on,1,0,0,,2,,,74,127
3978,note_off,64,0,0,,2,,,74,127
3979,note_on,1,0,0,,0,,,72,127
4043,note_off,64,0,0,,0,,,72,127
4043,note_off,0,0,0,,3,,,63,127
4044,note_on,1,0,0,,5,,,65,127
4044,note_on,0,0,0,,2,,,74,127
4108,note_off,64,0,0,,2,,,74,127
4109,note_on,1,0,0,,0,,,72,127
4173,note_off,64,0,0,,0,,,72,127
4174,note_on,1,0,0,,2,,,74,127
4238,note_off,64,0,0,,2,,,74,127
4239,note_on,1,0,0,,3,,,75,127
4303,note_off,64,0,0,,3,,,75,127
4303,note_off,0,0,0,,5,,,65,127
4304,note_on,1,0,0,,11,,,58,127
4304,note_on,0,0,0,,2,,,74,127
4564,note_off,260,0,0,,2,,,74,127
4565,note_on,1,0,0,,11,,,82,127
4821,note_off,256,0,0,,11,,,58,127
4825,note_off,4,0,0,,11,,,82,127
4826,note_on,1,0,0,,7,,,79,127
5086,note_off,260,0,0,,7,,,79,127
5087,note_on,1,0,0,,3,,,63,127
5087,note_on,0,0,0,,3,,,75,127
5087,note_on,0,0,0,,7,,,67,127
5347,note_off,260,0,0,,7,,,67,127
5347,note_off,0,0,0,,3,,,75,127
5348,note_on,1,0,0,,5,,,77,127
5348,note_on,0,0,0,,10,,,69,127
5608,note_off,260,0,0,,10,,,69,127
5608,note_off,0,0,0,,3,,,63,127
5609,note_on,1,0,0,,2,,,62,127
5609,note_on,0,0,0,,11,,,70,127
5865,note_off,256,0,0,,5,,,77,127
5869,note_off,4,0,0,,11,,,70,127
5869,note_off,0,0,0,,2,,,62,127
5870,note_on,1,0,0,,3,,,63,127
5870,note_on,0,0,0,,2,,,74,127
5934,note_off,64,0,0,,2,,,74,127
5935,note_on,1,0,0,,0,,,72,127
5999,note_off,64,0,0,,0,,,72,127
6000,note_on,1,0,0,,2,,,74,127
6064,note_off,64,0,0,,2,,,74,127
6065,note_on,1,0,0,,0,,,72,127
6129,note_off,64,0,0,,0,,,72,127
6129,note_off,0,0,0,,3,,,63,127
6130,note_on,1,0,0,,5,,,65,127
6130,note_on,0,0,0,,2,,,74,127
6194,note_off,64,0,0,,2,,,74,127
6195,note_on,1,0,0,,0,,,72,127
6259,note_off,64,0,0,,0,,,72,127
6260,note_on,1,0,0,,2,,,74,127
6324,note_off,64,0,0,,2,,,74,127
6325,note_on,1,0,0,,3,,,75,127
6389,note_off,64,0,0,,3,,,75,127
6389,note_off,0,0,0,,5,,,65,127
6390,note_on,1,0,0,,11,,,58,127
6390,note_on,0,0,0,,2,,,74,127
6650,note_off,260,0,0,,2,,,74,127
6651,note_on,1,0,0,,11,,,82,127
6911,note_off,260,0,0,,11,,,82,127
6912,note_on,1,0,0,,7,,,79,127
7043,note_off,131,0,0,,11,,,58,127
7173,note_off,130,0,0,,7,,,79,127
7174,note_on,1,0,0,,3,,,63,127
7174,note_on,0,0,0,,3,,,75,127
7174,note_on,0,0,0,,7,,,67,127
7434,note_off,260,0,0,,7,,,67,127
7434,note_off,0,0,0,,3,,,75,127
7435,note_on,1,0,0,,10,,,69,127
7435,note_on,0,0,0,,5,,,77,127
7695,note_off,260,0,0,,10,,,69,127
7695,note_off,0,0,0,,3,,,63,127
7696,note_on,1,0,0,,2,,,62,127
7696,note_on,0,0,0,,11,,,70,127
7952,note_off,256,0,0,,5,,,77,127
7956,note_off,4,0,0,,11,,,70,127
7956,note_off,0,0,0,,2,,,62,127
7957,note_on,1,0,0,,3,,,63,127
7957,note_on,0,0,0,,2,,,74,127
8021,note_off,64,0,0,,2,,,74,127
8022,note_on,1,0,0,,0,,,72,127
8086,note_off,64,0,0,,0,,,72,127
8087,note_on,1,0,0,,2,,,74,127
8151,note_off,64,0,0,,2,,,74,127
8152,note_on,1,0,0,,0,,,72,127
8216,note_off,64,0,0,,0,,,72,127
8216,note_off,0,0,0,,3,,,63,127
8217,note_on,1,0,0,,5,,,65,127
8217,note_on,0,0,0,,2,,,74,127
8281,note_off,64,0,0,,2,,,74,127
8282,note_on,1,0,0,,0,,,72,127
8346,note_off,64,0,0,,0,,,72,127
8347,note_on,1,0,0,,2,,,74,127
8411,note_off,64,0,0,,2,,,74,127
8412,note_on,1,0,0,,3,,,75,127
8476,note_off,64,0,0,,3,,,75,127
8476,note_off,0,0,0,,5,,,65,127
8477,note_on,1,0,0,,11,,,58,127
8477,note_on,0,0,0,,2,,,74,127
8607,note_off,130,0,0,,2,,,74,127
8608,note_on,1,0,0,,11,,,70,127
8738,note_off,130,0,0,,11,,,70,127
8739,note_on,1,0,0,,5,,,65,127
8869,note_off,130,0,0,,5,,,65,127
8870,note_on,1,0,0,,2,,,62,127
9000,note_off,130,0,0,,2,,,62,127
9000,note_off,0,0,0,,11,,,58,127
9001,note_on,1,0,0,,11,,,46,127
9001,note_on,0,0,0,,11,,,58,127
9519,note_off,518,0,0,,11,,,46,127
9523,note_off,4,0,0,,11,,,58,127
9524,note_on,1,0,0,,5,,,77,127
9610,note_off,86,0,0,,5,,,77,127
9611,note_on,1,0,0,,3,,,75,127
9697,note_off,86,0,0,,3,,,75,127
9698,note_on,1,0,0,,2,,,74,127
9784,note_off,86,0,0,,2,,,74,127
9785,note_on,1,0,0,,11,,,70,127
9785,note_on,0,0,0,,2,,,74,127
9785,note_on,0,0,0,,5,,,77,127
10045,note_off,260,0,0,,5,,,77,127
10045,note_off,0,0,0,,2,,,74,127
10046,note_on,1,0,0,,7,,,79,127
10046,note_on,0,0,0,,3,,,75,127
10306,note_off,260,0,0,,11,,,70,127
10307,note_on,1,0,0,,10,,,69,127
10566,note_off,259,0,0,,10,,,69,127
10567,note_off,1,0,0,,3,,,75,127
10567,note_off,0,0,0,,7,,,79,127
10568,note_on,1,0,0,,5,,,77,127
10654,note_off,86,0,0,,5,,,77,127
10655,note_on,1,0,0,,3,,,75,127
10741,note_off,86,0,0,,3,,,75,127
10742,note_on,1,0,0,,2,,,74,127
10828,note_off,86,0,0,,2,,,74,127
10829,note_on,1,0,0,,11,,,70,127
10829,note_on,0,0,0,,2,,,74,127
10829,note_on,0,0,0,,5,,,77,127
11089,note_off,260,0,0,,5,,,77,127
11089,note_off,0,0,0,,2,,,74,127
11090,note_on,1,0,0,,7,,,79,127
11090,note_on,0,0,0,,3,,,75,127
11350,note_off,260,0,0,,11,,,70,127
11351,note_on,1,0,0,,10,,,69,127
11610,note_off,259,0,0,,10,,,69,127
11611,note_off,1,0,0,,3,,,75,127
11611,note_off,0,0,0,,7,,,79,127
11612,note_on,1,0,0,,5,,,77,127
11698,note_off,86,0,0,,5,,,77,127
11699,note_on,1,0,0,,3,,,75,127
11785,note_off,86,0,0,,3,,,75,127
11786,note_on,1,0,0,,2,,,74,127
11872,note_off,86,0,0,,2,,,74,127
11873,note_on,1,0,0,,11,,,70,127
11873,note_on,0,0,0,,2,,,74,127
11873,note_on,0,0,0,,5,,,77,127
12133,note_off,260,0,0,,2,,,74,127
12133,note_off,0,0,0,,11,,,70,127
12134,note_on,1,0,0,,10,,,69,127
12134,note_on,0,0,0,,0,,,72,127
12394,note_off,260,0,0,,0,,,72,127
12394,note_off,0,0,0,,10,,,69,127
12395,note_on,1,0,0,,8,,,68,127
12395,note_on,0,0,0,,12,,,71,127
12654,note_off,259,0,0,,8,,,68,127
12655,note_off,1,0,0,,12,,,71,127
12655,note_off,0,0,0,,5,,,77,127
12656,note_on,1,0,0,,3,,,75,127
12742,note_off,86,0,0,,3,,,75,127
12743,note_on,1,0,0,,2,,,74,127
12829,note_off,86,0,0,,2,,,74,127
12830,note_on,1,0,0,,0,,,72,127
12916,note_off,86,0,0,,0,,,72,127
12917,note_on,1,0,0,,8,,,68,127
12917,note_on,0,0,0,,0,,,72,127
12917,note_on,0,0,0,,3,,,75,127
13177,note_off,260,0,0,,3,,,75,127
13177,note_off,0,0,0,,0,,,72,127
13178,note_on,1,0,0,,5,,,77,127
13178,note_on,0,0,0,,2,,,74,127
13438,note_off,260,0,0,,8,,,68,127
13439,note_on,1,0,0,,7,,,67,127
13698,note_off,259,0,0,,7,,,67,127
13699,note_off,1,0,0,,2,,,74,127
13699,note_off,0,0,0,,5,,,77,127
13700,note_on,1,0,0,,3,,,75,127
13786,note_off,86,0,0,,3,,,75,127
13787,note_on,1,0,0,,2,,,74,127
13873,note_off,86,0,0,,2,,,74,127
13874,note_on,1,0,0,,0,,,72,127
13960,note_off,86,0,0,,0,,,72,127
13961,note_on,1,0,0,,8,,,68,127
13961,note_on,0,0,0,,0,,,72,127
13961,note_on,0,0,0,,3,,,75,127
14221,note_off,260,0,0,,3,,,75,127
14221,note_off,0,0,0,,0,,,72,127
14222,note_on,1,0,0,,2,,,74,127
14222,note_on,0,0,0,,5,,,77,127
14482,note_off,260,0,0,,8,,,68,127
14483,note_on,1,0,0,,7,,,67,127
14742,note_off,259,0,0,,7,,,67,127
14743,note_off,1,0,0,,5,,,77,127
14743,note_off,0,0,0,,2,,,74,127
14744,note_on,1,0,0,,3,,,75,127
14830,note_off,86,0,0,,3,,,75,127
14831,note_on,1,0,0,,2,,,74,127
14917,note_off,86,0,0,,2,,,74,127
14918,note_on,1,0,0,,0,,,72,127
15004,note_off,86,0,0,,0,,,72,127
15005,note_on,1,0,0,,5,,,65,127
15005,note_on,0,0,0,,2,,,74,127
15005,note_on,0,0,0,,11,,,70,127
15265,note_off,260,0,0,,5,,,65,127
15266,note_on,1,0,0,,5,,,65,127
15526,note_off,260,0,0,,5,,,65,127
15527,note_on,1,0,0,,3,,,63,127
15786,note_off,259,0,0,,3,,,63,127
15787,note_off,1,0,0,,11,,,70,127
15787,note_off,0,0,0,,2,,,74,127
15788,note_on,1,0,0,,0,,,72,127
15874,note_off,86,0,0,,0,,,72,127
15875,note_on,1,0,0,,11,,,70,127
15961,note_off,86,0,0,,11,,,70,127
15962,note_on,1,0,0,,10,,,69,127
16048,note_off,86,0,0,,10,,,69,127
16049,note_on,1,0,0,,5,,,65,127
16049,note_on,0,0,0,,10,,,69,127
16049,note_on,0,0,0,,0,,,72,127
16309,note_off,260,0,0,,0,,,72,127
16309,note_off,0,0,0,,10,,,69,127
16310,note_on,1,0,0,,2,,,74,127
16310,note_on,0,0,0,,11,,,70,127
16570,note_off,260,0,0,,5,,,65,127
16571,note_on,1,0,0,,4,,,64,127
16830,note_off,259,0,0,,4,,,64,127
16831,note_off,1,0,0,,11,,,70,127
16831,note_off,0,0,0,,2,,,74,127
16832,note_on,1,0,0,,0,,,72,127
16918,note_off,86,0,0,,0,,,72,127
16919,note_on,1,0,0,,11,,,70,127
17005,note_off,86,0,0,,11,,,70,127
17006,note_on,1,0,0,,10,,,69,127
17092,note_off,86,0,0,,10,,,69,127
17093,note_on,1,0,0,,5,,,65,127
17093,note_on,0,0,0,,10,,,69,127
17093,note_on,0,0,0,,0,,,72,127
17353,note_off,260,0,0,,0,,,72,127
17353,note_off,0,0,0,,10,,,69,127
17354,note_on,1,0,0,,2,,,74,127
17354,note_on,0,0,0,,11,,,70,127
17614,note_off,260,0,0,,5,,,65,127
17615,note_on,1,0,0,,4,,,64,127
17875,note_off,260,0,0,,4,,,64,127
17875,note_off,0,0,0,,11,,,70,127
17875,note_off,0,0,0,,2,,,74,127
17876,note_on,1,0,0,,5,,,53,127
17876,note_on,0,0,0,,0,,,72,127
17962,note_off,86,0,0,,0,,,72,127
17963,note_on,1,0,0,,11,,,70,127
18049,note_off,86,0,0,,11,,,70,127
18050,note_on,1,0,0,,10,,,69,127
18136,note_off,86,0,0,,10,,,69,127
18136,note_off,0,0,0,,5,,,53,127
18137,note_on,1,0,0,,5,,,65,127
18137,note_on,0,0,0,,10,,,69,127
18223,note_off,86,0,0,,10,,,69,127
18224,note_on,1,0,0,,11,,,70,127
18310,note_off,86,0,0,,11,,,70,127
18311,note_on,1,0,0,,0,,,72,127
18397,note_off,86,0,0,,0,,,72,127
18397,note_off,0,0,0,,5,,,65,127
18398,note_on,1,0,0,,2,,,62,127
18398,note_on,0,0,0,,2,,,74,127
18484,note_off,86,0,0,,2,,,74,127
18485,note_on,1,0,0,,4,,,76,127
18571,note_off,86,0,0,,4,,,76,127
18572,note_on,1,0,0,,5,,,77,127
18658,note_off,86,0,0,,5,,,77,127
18658,note_off,0,0,0,,2,,,62,127
18659,note_on,1,0,0,,11,,,58,127
18659,note_on,0,0,0,,7,,,79,127
18745,note_off,86,0,0,,7,,,79,127
18746,note_on,1,0,0,,10,,,81,127
18832,note_off,86,0,0,,10,,,81,127
18833,note_on,1,0,0,,11,,,82,127
18919,note_off,86,0,0,,11,,,82,127
18919,note_off,0,0,0,,11,,,58,127
18920,note_on,1,0,0,,10,,,57,127
18920,note_on,0,0,0,,0,,,72,127
19180,note_off,260,0,0,,10,,,57,127
19181,note_on,1,0,0,,10,,,45,127
19354,note_off,173,0,0,,0,,,72,127
19355,note_on,1,0,0,,5,,,77,127
19441,note_off,86,0,0,,5,,,77,127
19441,note_off,0,0,0,,10,,,45,127
19442,note_on,1,0,0,,11,,,46,127
19442,note_on,0,0,0,,10,,,81,127
19506,note_off,64,0,0,,10,,,81,127
19507,note_on,1,0,0,,7,,,79,127
19571,note_off,64,0,0,,7,,,79,127
19572,note_on,1,0,0,,10,,,81,127
19636,note_off,64,0,0,,10,,,81,127
19637,note_on,1,0,0,,7,,,79,127
19701,note_off,64,0,0,,7,,,79,127
19701,note_off,0,0,0,,11,,,46,127
19702,note_on,1,0,0,,0,,,48,127
19702,note_on,0,0,0,,10,,,81,127
19766,note_off,64,0,0,,10,,,81,127
19767,note_on,1,0,0,,7,,,79,127
19831,note_off,64,0,0,,7,,,79,127
19832,note_on,1,0,0,,10,,,81,127
19896,note_off,64,0,0,,10,,,81,127
19897,note_on,1,0,0,,7,,,79,127
19961,note_off,64,0,0,,7,,,79,127
19961,note_off,0,0,0,,0,,,48,127
19962,note_on,1,0,0,,5,,,41,127
19962,note_on,0,0,0,,5,,,77,127
20222,note_off,260,0,0,,5,,,77,127
20222,note_off,0,0,0,,5,,,41,127
20223,note_on,1,0,0,,5,,,65,127
20223,note_on,0,0,0,,0,,,72,127
20223,note_on,0,0,0,,10,,,69,127
20483,note_off,260,0,0,,10,,,69,127
20483,note_off,0,0,0,,0,,,72,127
20484,note_on,1,0,0,,11,,,70,127
20484,note_on,0,0,0,,2,,,74,127
20744,note_off,260,0,0,,5,,,65,127
20745,note_on,1,0,0,,4,,,64,127
21004,note_off,259,0,0,,4,,,64,127
21005,note_off,1,0,0,,2,,,74,127
21005,note_off,0,0,0,,11,,,70,127
21006,note_on,1,0,0,,0,,,72,127
21092,note_off,86,0,0,,0,,,72,127
21093,note_on,1,0,0,,11,,,70,127
21179,note_off,86,0,0,,11,,,70,127
21180,note_on,1,0,0,,10,,,69,127
21266,note_off,86,0,0,,10,,,69,127
21267,note_on,1,0,0,,5,,,65,127
21267,note_on,0,0,0,,10,,,69,127
21267,note_on,0,0,0,,0,,,72,127
21527,note_off,260,0,0,,0,,,72,127
21527,note_off,0,0,0,,10,,,69,127
21528,note_on,1,0,0,,2,,,74,127
21528,note_on,0,0,0,,11,,,70,127
21788,note_off,260,0,0,,5,,,65,127
21789,note_on,1,0,0,,4,,,64,127
22049,note_off,260,0,0,,4,,,64,127
22049,note_off,0,0,0,,11,,,70,127
22049,note_off,0,0,0,,2,,,74,127
22050,note_on,1,0,0,,5,,,53,127
22050,note_on,0,0,0,,0,,,72,127
22136,note_off,86,0,0,,0,,,72,127
22137,note_on,1,0,0,,11,,,70,127
22223,note_off,86,0,0,,11,,,70,127
22224,note_on,1,0,0,,10,,,69,127
22310,note_off,86,0,0,,10,,,69,127
22310,note_off,0,0,0,,5,,,53,127
22311,note_on,1,0,0,,5,,,65,127
22311,note_on,0,0,0,,10,,,69,127
22397,note_off,86,0,0,,10,,,69,127
22398,note_on,1,0,0,,11,,,70,127
22484,note_off,86,0,0,,11,,,70,127
22485,note_on,1,0,0,,0,,,72,127
22571,note_off,86,0,0,,0,,,72,127
22571,note_off,0,0,0,,5,,,65,127
22572,note_on,1,0,0,,2,,,62,127
22572,note_on,0,0,0,,2,,,74,127
22658,note_off,86,0,0,,2,,,74,127
22659,note_on,1,0,0,,4,,,76,127
22745,note_off,86,0,0,,4,,,76,127
22746,note_on,1,0,0,,5,,,77,127
22832,note_off,86,0,0,,5,,,77,127
22832,note_off,0,0,0,,2,,,62,127
22833,note_on,1,0,0,,11,,,58,127
22833,note_on,0,0,0,,7,,,79,127
22919,note_off,86,0,0,,7,,,79,127
22920,note_on,1,0,0,,10,,,81,127
23006,note_off,86,0,0,,10,,,81,127
23007,note_on,1,0,0,,11,,,82,127
23093,note_off,86,0,0,,11,,,82,127
23093,note_off,0,0,0,,11,,,58,127
23094,note_on,1,0,0,,10,,,57,127
23094,note_on,0,0,0,,0,,,72,127
23354,note_off,260,0,0,,10,,,57,127
23355,note_on,1,0,0,,10,,,45,127
23528,note_off,173,0,0,,0,,,72,127
23529,note_on,1,0,0,,5,,,77,127
23615,note_off,86,0,0,,5,,,77,127
23615,note_off,0,0,0,,10,,,45,127
23616,note_on,1,0,0,,11,,,46,127
23616,note_on,0,0,0,,10,,,81,127
23680,note_off,64,0,0,,10,,,81,127
23681,note_on,1,0,0,,7,,,79,127
23745,note_off,64,0,0,,7,,,79,127
23746,note_on,1,0,0,,10,,,81,127
23810,note_off,64,0,0,,10,,,81,127
23811,note_on,1,0,0,,7,,,79,127
23875,note_off,64,0,0,,7,,,79,127
23875,note_off,0,0,0,,11,,,46,127
23876,note_on,1,0,0,,0,,,48,127
23876,note_on,0,0,0,,10,,,81,127
23940,note_off,64,0,0,,10,,,81,127
23941,note_on,1,0,0,,7,,,79,127
24005,note_off,64,0,0,,7,,,79,127
24006,note_on,1,0,0,,10,,,81,127
24070,note_off,64,0,0,,10,,,81,127
24071,note_on,1,0,0,,7,,,79,127
24134,note_off,63,0,0,,0,,,48,127
24135,note_off,1,0,0,,7,,,79,127
24136,note_on,1,0,0,,5,,,77,127
24222,note_off,86,0,0,,5,,,77,127
24223,note_on,1,0,0,,4,,,76,127
24309,note_off,86,0,0,,4,,,76,127
24310,note_on,1,0,0,,2,,,74,127
24396,note_off,86,0,0,,2,,,74,127
24397,note_on,1,0,0,,5,,,65,127
24397,note_on,0,0,0,,0,,,72,127
24483,note_off,86,0,0,,5,,,65,127
24484,note_on,1,0,0,,4,,,64,127
24570,note_off,86,0,0,,4,,,64,127
24571,note_on,1,0,0,,2,,,62,127
24657,note_off,86,0,0,,2,,,62,127
24658,note_on,1,0,0,,0,,,60,127
24744,note_off,86,0,0,,0,,,72,127
24745,note_on,1,0,0,,11,,,70,127
24831,note_off,86,0,0,,11,,,70,127
24832,note_on,1,0,0,,10,,,69,127
24918,note_off,86,0,0,,10,,,69,127
24919,note_on,1,0,0,,7,,,67,127
25005,note_off,86,0,0,,0,,,60,127
25006,note_on,1,0,0,,11,,,58,127
25092,note_off,86,0,0,,11,,,58,127
25093,note_on,1,0,0,,10,,,57,127
25179,note_off,86,0,0,,10,,,57,127
25180,note_on,1,0,0,,7,,,55,127
25266,note_off,86,0,0,,7,,,67,127
25267,note_on,1,0,0,,5,,,65,127
25353,note_off,86,0,0,,5,,,65,127
25354,note_on,1,0,0,,4,,,64,127
25440,note_off,86,0,0,,4,,,64,127
25441,note_on,1,0,0,,2,,,62,127
25527,note_off,86,0,0,,7,,,55,127
25528,note_on,1,0,0,,5,,,53,127
25614,note_off,86,0,0,,5,,,53,127
25615,note_on,1,0,0,,4,,,52,127
25701,note_off,86,0,0,,4,,,52,127
25702,note_on,1,0,0,,2,,,50,127
25788,note_off,86,0,0,,2,,,62,127
25789,note_on,1,0,0,,0,,,60,127
25875,note_off,86,0,0,,0,,,60,127
25876,note_on,1,0,0,,11,,,58,127
25962,note_off,86,0,0,,11,,,58,127
25963,note_on,1,0,0,,10,,,57,127
26049,note_off,86,0,0,,2,,,50,127
26050,note_on,1,0,0,,0,,,48,127
26136,note_off,86,0,0,,0,,,48,127
26137,note_on,1,0,0,,11,,,46,127
26223,note_off,86,0,0,,11,,,46,127
26224,note_on,1,0,0,,10,,,45,127
26288,note_off,64,0,0,,10,,,57,127
26289,note_on,1,0,0,,11,,,58,127
26353,note_off,64,0,0,,11,,,58,127
26354,note_on,1,0,0,,0,,,60,127
26418,note_off,64,0,0,,0,,,60,127
26419,note_on,1,0,0,,2,,,62,127
26483,note_off,64,0,0,,2,,,62,127
26484,note_on,1,0,0,,4,,,64,127
26548,note_off,64,0,0,,4,,,64,127
26549,note_on,1,0,0,,5,,,65,127
26613,note_off,64,0,0,,5,,,65,127
26614,note_on,1,0,0,,7,,,67,127
26678,note_off,64,0,0,,7,,,67,127
26679,note_on,1,0,0,,10,,,69,127
26743,note_off,64,0,0,,10,,,69,127
26744,note_on,1,0,0,,11,,,70,127
26808,note_off,64,0,0,,11,,,70,127
26809,note_on,1,0,0,,0,,,72,127
26873,note_off,64,0,0,,0,,,72,127
26874,note_on,1,0,0,,2,,,74,127
26938,note_off,64,0,0,,2,,,74,127
26939,note_on,1,0,0,,4,,,76,127
27003,note_off,64,0,0,,4,,,76,127
27003,note_off,0,0,0,,10,,,45,127
27004,note_on,1,0,0,,7,,,43,127
27004,note_on,0,0,0,,5,,,77,127
27068,note_off,64,0,0,,5,,,77,127
27069,note_on,1,0,0,,7,,,79,127
27133,note_off,64,0,0,,7,,,79,127
27134,note_on,1,0,0,,10,,,81,127
27198,note_off,64,0,0,,10,,,81,127
27199,note_on,1,0,0,,12,,,83,127
27263,note_off,64,0,0,,12,,,83,127
27263,note_off,0,0,0,,7,,,43,127
27264,note_on,1,0,0,,5,,,41,127
27264,note_on,0,0,0,,0,,,84,127
27524,note_off,260,0,0,,0,,,84,127
27524,note_off,0,0,0,,5,,,41,127
27525,note_on,1,0,0,,11,,,46,127
27525,note_on,0,0,0,,11,,,82,127
27611,note_off,86,0,0,,11,,,82,127
27612,note_on,1,0,0,,10,,,81,127
27698,note_off,86,0,0,,10,,,81,127
27699,note_on,1,0,0,,7,,,79,127
27785,note_off,86,0,0,,7,,,79,127
27785,note_off,0,0,0,,11,,,46,127
27786,note_on,1,0,0,,0,,,48,127
27786,note_on,0,0,0,,5,,,77,127
28046,note_off,260,0,0,,5,,,77,127
28046,note_off,0,0,0,,0,,,48,127
28047,note_on,1,0,0,,0,,,36,127
28047,note_on,0,0,0,,4,,,76,127
28307,note_off,260,0,0,,4,,,76,127
28307,note_off,0,0,0,,0,,,36,127
28308,note_on,1,0,0,,5,,,41,127
28308,note_on,0,0,0,,5,,,77,127
28394,note_off,86,0,0,,5,,,77,127
28395,note_on,1,0,0,,4,,,76,127
28481,note_off,86,0,0,,4,,,76,127
28482,note_on,1,0,0,,2,,,74,127
28568,note_off,86,0,0,,2,,,74,127
28568,note_off,0,0,0,,5,,,41,127
28569,note_on,1,0,0,,5,,,65,127
28569,note_on,0,0,0,,0,,,72,127
28655,note_off,86,0,0,,5,,,65,127
28656,note_on,1,0,0,,4,,,64,127
28742,note_off,86,0,0,,4,,,64,127
28743,note_on,1,0,0,,2,,,62,127
28829,note_off,86,0,0,,2,,,62,127
28830,note_on,1,0,0,,0,,,60,127
28916,note_off,86,0,0,,0,,,72,127
28917,note_on,1,0,0,,11,,,70,127
29003,note_off,86,0,0,,11,,,70,127
29004,note_on,1,0,0,,10,,,69,127
29090,note_off,86,0,0,,10,,,69,127
29091,note_on,1,0,0,,7,,,67,127
29177,note_off,86,0,0,,0,,,60,127
29178,note_on,1,0,0,,11,,,58,127
29264,note_off,86,0,0,,11,,,58,127
29265,note_on,1,0,0,,10,,,57,127
29351,note_off,86,0,0,,10,,,57,127
29352,note_on,1,0,0,,7,,,55,127
29438,note_off,86,0,0,,7,,,67,127
29439,note_on,1,0,0,,5,,,65,127
29525,note_off,86,0,0,,5,,,65,127
29526,note_on,1,0,0,,4,,,64,127
29612,note_off,86,0,0,,4,,,64,127
29613,note_on,1,0,0,,2,,,62,127
29699,note_off,86,0,0,,7,,,55,127
29700,note_on,1,0,0,,5,,,53,127
29786,note_off,86,0,0,,5,,,53,127
29787,note_on,1,0,0,,4,,,52,127
29873,note_off,86,0,0,,4,,,52,127
29874,note_on,1,0,0,,2,,,50,127
29960,note_off,86,0,0,,2,,,62,127
29961,note_on,1,0,0,,0,,,60,127
30047,note_off,86,0,0,,0,,,60,127
30048,note_on,1,0,0,,11,,,58,127
30134,note_off,86,0,0,,11,,,58,127
30135,note_on,1,0,0,,10,,,57,127
30221,note_off,86,0,0,,2,,,50,127
30222,note_on,1,0,0,,0,,,48,127
30308,note_off,86,0,0,,0,,,48,127
30309,note_on,1,0,0,,11,,,46,127
30395,note_off,86,0,0,,11,,,46,127
30396,note_on,1,0,0,,10,,,45,127
30460,note_off,64,0,0,,10,,,57,127
30461,note_on,1,0,0,,11,,,58,127
30525,note_off,64,0,0,,11,,,58,127
30526,note_on,1,0,0,,0,,,60,127
30590,note_off,64,0,0,,0,,,60,127
30591,note_on,1,0,0,,2,,,62,127
30655,note_off,64,0,0,,2,,,62,127
30656,note_on,1,0,0,,4,,,64,127
30720,note_off,64,0,0,,4,,,64,127
30721,note_on,1,0,0,,5,,,65,127
30785,note_off,64,0,0,,5,,,65,127
30786,note_on,1,0,0,,7,,,67,127
30850,note_off,64,0,0,,7,,,67,127
30851,note_on,1,0,0,,10,,,69,127
30915,note_off,64,0,0,,10,,,69,127
30916,note_on,1,0,0,,11,,,70,127
30980,note_off,64,0,0,,11,,,70,127
30981,note_on,1,0,0,,0,,,72,127
31045,note_off,64,0,0,,0,,,72,127
31046,note_on,1,0,0,,2,,,74,127
31110,note_off,64,0,0,,2,,,74,127
31111,note_on,1,0,0,,4,,,76,127
31175,note_off,64,0,0,,4,,,76,127
31175,note_off,0,0,0,,10,,,45,127
31176,note_on,1,0,0,,7,,,43,127
31176,note_on,0,0,0,,5,,,77,127
31240,note_off,64,0,0,,5,,,77,127
31241,note_on,1,0,0,,7,,,79,127
31305,note_off,64,0,0,,7,,,79,127
31306,note_on,1,0,0,,10,,,81,127
31370,note_off,64,0,0,,10,,,81,127
31371,note_on,1,0,0,,12,,,83,127
31435,note_off,64,0,0,,12,,,83,127
31435,note_off,0,0,0,,7,,,43,127
31436,note_on,1,0,0,,5,,,41,127
31436,note_on,0,0,0,,0,,,84,127
31696,note_off,260,0,0,,0,,,84,127
31696,note_off,0,0,0,,5,,,41,127
31697,note_on,1,0,0,,11,,,46,127
31697,note_on,0,0,0,,11,,,82,127
31783,note_off,86,0,0,,11,,,82,127
31784,note_on,1,0,0,,10,,,81,127
31870,note_off,86,0,0,,10,,,81,127
31871,note_on,1,0,0,,7,,,79,127
31957,note_off,86,0,0,,7,,,79,127
31957,note_off,0,0,0,,11,,,46,127
31958,note_on,1,0,0,,0,,,48,127
31958,note_on,0,0,0,,5,,,77,127
32218,note_off,260,0,0,,5,,,77,127
32218,note_off,0,0,0,,0,,,48,127
32219,note_on,1,0,0,,0,,,36,127
32219,note_on,0,0,0,,4,,,76,127
32479,note_off,260,0,0,,4,,,76,127
32479,note_off,0,0,0,,0,,,36,127
32480,note_on,1,0,0,,5,,,41,127
32480,note_on,0,0,0,,5,,,77,127
32740,note_off,260,0,0,,5,,,41,127
32741,note_on,1,0,0,,5,,,53,127
32741,note_on,0,0,0,,5,,,65,127
33001,note_off,260,0,0,,5,,,65,127
33001,note_off,0,0,0,,5,,,53,127
33002,note_on,1,0,0,,4,,,64,127
33002,note_on,0,0,0,,7,,,55,127
33262,note_off,260,0,0,,7,,,55,127
33262,note_off,0,0,0,,4,,,64,127
33263,note_on,1,0,0,,5,,,65,127
33263,note_on,0,0,0,,10,,,57,127
33393,note_off,130,0,0,,5,,,65,127
33394,note_on,1,0,0,,0,,,60,127
33522,note_off,128,0,0,,10,,,57,127
33523,note_off,1,0,0,,0,,,60,127
33524,note_on,1,0,0,,2,,,62,127
33524,note_on,0,0,0,,11,,,58,127
33704,note_off,180,0,0,,5,,,77,127
33784,note_off,80,0,0,,2,,,62,127
33785,note_on,1,0,0,,7,,,67,127
33785,note_on,0,0,0,,0,,,84,127
33785,note_on,0,0,0,,11,,,82,127
34041,note_off,256,0,0,,11,,,58,127
34045,note_off,4,0,0,,7,,,67,127
34046,note_on,1,0,0,,0,,,60,127
34046,note_on,0,0,0,,5,,,65,127
34306,note_off,260,0,0,,5,,,65,127
34307,note_on,1,0,0,,4,,,64,127
34393,note_off,86,0,0,,11,,,82,127
34393,note_off,0,0,0,,0,,,84,127
34394,note_on,1,0,0,,10,,,81,127
34480,note_off,86,0,0,,10,,,81,127
34481,note_on,1,0,0,,7,,,79,127
34563,note_off,82,0,0,,0,,,60,127
34567,note_off,4,0,0,,7,,,79,127
34567,note_off,0,0,0,,4,,,64,127
34568,note_on,1,0,0,,5,,,53,127
34568,note_on,0,0,0,,5,,,65,127
34568,note_on,0,0,0,,5,,,77,127
34828,note_off,260,0,0,,5,,,65,127
34828,note_off,0,0,0,,5,,,53,127
34829,note_on,1,0,0,,5,,,53,127
34829,note_on,0,0,0,,5,,,65,127
35089,note_off,260,0,0,,5,,,65,127
35089,note_off,0,0,0,,5,,,53,127
35090,note_on,1,0,0,,4,,,64,127
35090,note_on,0,0,0,,7,,,55,127
35350,note_off,260,0,0,,7,,,55,127
35350,note_off,0,0,0,,4,,,64,127
35351,note_on,1,0,0,,5,,,65,127
35351,note_on,0,0,0,,10,,,57,127
35481,note_off,130,0,0,,5,,,65,127
35482,note_on,1,0,0,,0,,,60,127
35610,note_off,128,0,0,,10,,,57,127
35611,note_off,1,0,0,,0,,,60,127
35612,note_on,1,0,0,,2,,,62,127
35612,note_on,0,0,0,,11,,,58,127
35792,note_off,180,0,0,,5,,,77,127
35872,note_off,80,0,0,,2,,,62,127
35873,note_on,1,0,0,,7,,,67,127
35873,note_on,0,0,0,,0,,,84,127
35873,note_on,0,0,0,,11,,,82,127
36129,note_off,256,0,0,,11,,,58,127
36133,note_off,4,0,0,,7,,,67,127
36134,note_on,1,0,0,,0,,,60,127
36134,note_on,0,0,0,,5,,,65,127
36394,note_off,260,0,0,,5,,,65,127
36395,note_on,1,0,0,,4,,,64,127
36481,note_off,86,0,0,,11,,,82,127
36481,note_off,0,0,0,,0,,,84,127
36482,note_on,1,0,0,,10,,,81,127
36568,note_off,86,0,0,,10,,,81,127
36569,note_on,1,0,0,,7,,,79,127
36651,note_off,82,0,0,,0,,,60,127
36655,note_off,4,0,0,,7,,,79,127
36655,note_off,0,0,0,,4,,,64,127
36656,note_on,1,0,0,,5,,,65,127
36656,note_on,0,0,0,,5,,,53,127
36656,note_on,0,0,0,,5,,,77,127
36742,note_off,86,0,0,,5,,,77,127
36743,note_on,1,0,0,,0,,,84,127
36829,note_off,86,0,0,,0,,,84,127
36830,note_on,1,0,0,,10,,,81,127
36916,note_off,86,0,0,,10,,,81,127
36917,note_on,1,0,0,,5,,,77,127
37003,note_off,86,0,0,,5,,,77,127
37004,note_on,1,0,0,,0,,,72,127
37090,note_off,86,0,0,,0,,,72,127
37091,note_on,1,0,0,,10,,,69,127
37173,note_off,82,0,0,,5,,,65,127
37177,note_off,4,0,0,,10,,,69,127
37178,note_on,1,0,0,,5,,,65,127
37264,note_off,86,0,0,,5,,,65,127
37265,note_on,1,0,0,,0,,,72,127
37351,note_off,86,0,0,,0,,,72,127
37352,note_on,1,0,0,,10,,,69,127
37377,note_off,25,0,0,,5,,,53,127
37438,note_off,61,0,0,,10,,,69,127
37439,note_on,1,0,0,,10,,,45,127
37439,note_on,0,0,0,,5,,,65,127
37699,note_off,260,0,0,,10,,,45,127
37700,note_on,1,0,0,,11,,,46,127
37764,note_off,64,0,0,,5,,,65,127
37765,note_on,1,0,0,,7,,,67,127
37829,note_off,64,0,0,,7,,,67,127
37830,note_on,1,0,0,,5,,,65,127
37894,note_off,64,0,0,,5,,,65,127
37895,note_on,1,0,0,,4,,,64,127
37959,note_off,64,0,0,,4,,,64,127
37959,note_off,0,0,0,,11,,,46,127
37960,note_on,1,0,0,,2,,,50,127
37960,note_on,0,0,0,,5,,,65,127
38024,note_off,64,0,0,,5,,,65,127
38025,note_on,1,0,0,,7,,,67,127
38089,note_off,64,0,0,,7,,,67,127
38090,note_on,1,0,0,,5,,,65,127
38154,note_off,64,0,0,,5,,,65,127
38155,note_on,1,0,0,,7,,,67,127
38219,note_off,64,0,0,,7,,,67,127
38219,note_off,0,0,0,,2,,,50,127
38220,note_on,1,0,0,,0,,,48,127
38220,note_on,0,0,0,,10,,,69,127
38284,note_off,64,0,0,,10,,,69,127
38285,note_on,1,0,0,,7,,,67,127
38349,note_off,64,0,0,,7,,,67,127
38350,note_on,1,0,0,,10,,,69,127
38414,note_off,64,0,0,,10,,,69,127
38415,note_on,1,0,0,,7,,,67,127
38479,note_off,64,0,0,,7,,,67,127
38480,note_on,1,0,0,,0,,,36,127
38480,note_on,0,0,0,,10,,,69,127
38544,note_off,64,0,0,,10,,,69,127
38545,note_on,1,0,0,,7,,,67,127
38609,note_off,64,0,0,,7,,,67,127
38610,note_on,1,0,0,,10,,,69,127
38674,note_off,64,0,0,,10,,,69,127
38675,note_on,1,0,0,,7,,,67,127
38735,note_off,60,0,0,,0,,,48,127
38739,note_off,4,0,0,,7,,,67,127
38739,note_off,0,0,0,,0,,,36,127
38740,note_on,1,0,0,,5,,,41,127
38740,note_on,0,0,0,,5,,,77,127
38826,note_off,86,0,0,,5,,,77,127
38827,note_on,1,0,0,,0,,,84,127
38913,note_off,86,0,0,,0,,,84,127
38914,note_on,1,0,0,,10,,,81,127
39000,note_off,86,0,0,,10,,,81,127
39001,note_on,1,0,0,,5,,,77,127
39087,note_off,86,0,0,,5,,,77,127
39088,note_on,1,0,0,,0,,,72,127
39174,note_off,86,0,0,,0,,,72,127
39175,note_on,1,0,0,,10,,,69,127
39261,note_off,86,0,0,,10,,,69,127
39262,note_on,1,0,0,,5,,,65,127
39348,note_off,86,0,0,,5,,,65,127
39349,note_on,1,0,0,,0,,,72,127
39435,note_off,86,0,0,,0,,,72,127
39436,note_on,1,0,0,,10,,,69,127
39447,note_off,11,0,0,,5,,,41,127
39522,note_off,75,0,0,,10,,,69,127
39523,note_on,1,0,0,,10,,,45,127
39523,note_on,0,0,0,,5,,,65,127
39783,note_off,260,0,0,,10,,,45,127
39784,note_on,1,0,0,,11,,,46,127
39848,note_off,64,0,0,,5,,,65,127
39849,note_on,1,0,0,,7,,,67,127
39913,note_off,64,0,0,,7,,,67,127
39914,note_on,1,0,0,,5,,,65,127
39978,note_off,64,0,0,,5,,,65,127
39979,note_on,1,0,0,,4,,,64,127
40043,note_off,64,0,0,,4,,,64,127
40043,note_off,0,0,0,,11,,,46,127
40044,note_on,1,0,0,,2,,,50,127
40044,note_on,0,0,0,,5,,,65,127
40108,note_off,64,0,0,,5,,,65,127
40109,note_on,1,0,0,,7,,,67,127
40173,note_off,64,0,0,,7,,,67,127
40174,note_on,1,0,0,,5,,,65,127
40238,note_off,64,0,0,,5,,,65,127
40239,note_on,1,0,0,,7,,,67,127
40303,note_off,64,0,0,,7,,,67,127
40303,note_off,0,0,0,,2,,,50,127
40304,note_on,1,0,0,,0,,,48,127
40304,note_on,0,0,0,,10,,,69,127
40368,note_off,64,0,0,,10,,,69,127
40369,note_on,1,0,0,,7,,,67,127
40433,note_off,64,0,0,,7,,,67,127
40434,note_on,1,0,0,,10,,,69,127
40498,note_off,64,0,0,,10,,,69,127
40499,note_on,1,0,0,,7,,,67,127
40563,note_off,64,0,0,,7,,,67,127
40564,note_on,1,0,0,,0,,,36,127
40564,note_on,0,0,0,,10,,,69,127
40628,note_off,64,0,0,,10,,,69,127
40629,note_on,1,0,0,,7,,,67,127
40693,note_off,64,0,0,,7,,,67,127
40694,note_on,1,0,0,,5,,,65,127
40758,note_off,64,0,0,,5,,,65,127
40759,note_on,1,0,0,,7,,,67,127
40819,note_off,60,0,0,,0,,,48,127
40823,note_off,4,0,0,,7,,,67,127
40823,note_off,0,0,0,,0,,,36,127
40824,note_on,1,0,0,,5,,,41,127
40824,note_on,0,0,0,,5,,,65,127
41608,note_off,784,0,0,,5,,,65,127
41608,note_off,0,0,0,,5,,,41,127
42395,note_on,787,0,0,,1,,,73,127
42655,note_off,260,0,0,,1,,,73,127
42656,note_on,1,0,0,,8,,,68,127
42829,note_off,173,0,0,,8,,,68,127
42830,note_on,1,0,0,,1,,,73,127
42916,note_off,86,0,0,,1,,,73,127
42917,note_on,1,0,0,,5,,,77,127
43177,note_off,260,0,0,,5,,,77,127
43178,note_on,1,0,0,,5,,,77,127
43438,note_off,260,0,0,,5,,,77,127
43439,note_on,1,0,0,,6,,,78,127
43439,note_on,0,0,0,,1,,,61,127
43503,note_off,64,0,0,,6,,,78,127
43504,note_on,1,0,0,,5,,,77,127
43568,note_off,64,0,0,,5,,,77,127
43569,note_on,1,0,0,,6,,,78,127
43633,note_off,64,0,0,,6,,,78,127
43634,note_on,1,0,0,,5,,,77,127
43698,note_off,64,0,0,,5,,,77,127
43698,note_off,0,0,0,,1,,,61,127
43699,note_on,1,0,0,,6,,,78,127
43699,note_on,0,0,0,,8,,,56,127
43763,note_off,64,0,0,,6,,,78,127
43764,note_on,1,0,0,,5,,,77,127
43828,note_off,64,0,0,,5,,,77,127
43828,note_off,0,0,0,,8,,,56,127
43829,note_on,1,0,0,,6,,,78,127
43829,note_on,0,0,0,,1,,,61,127
43893,note_off,64,0,0,,6,,,78,127
43894,note_on,1,0,0,,5,,,77,127
43958,note_off,64,0,0,,1,,,61,127
43959,note_on,1,0,0,,5,,,65,127
44219,note_off,260,0,0,,5,,,65,127
44220,note_on,1,0,0,,5,,,65,127
44480,note_off,260,0,0,,5,,,65,127
44481,note_on,1,0,0,,5,,,65,127
44741,note_off,260,0,0,,5,,,77,127
44742,note_on,1,0,0,,8,,,80,127
44998,note_off,256,0,0,,5,,,65,127
45002,note_off,4,0,0,,8,,,80,127
45003,note_on,1,0,0,,6,,,78,127
45089,note_off,86,0,0,,6,,,78,127
45090,note_on,1,0,0,,5,,,77,127
45176,note_off,86,0,0,,5,,,77,127
45177,note_on,1,0,0,,3,,,75,127
45263,note_off,86,0,0,,3,,,75,127
45264,note_on,1,0,0,,1,,,73,127
45264,note_on,0,0,0,,6,,,66,127
45350,note_off,86,0,0,,1,,,73,127
45351,note_on,1,0,0,,0,,,72,127
45437,note_off,86,0,0,,0,,,72,127
45438,note_on,1,0,0,,11,,,70,127
45524,note_off,86,0,0,,11,,,70,127
45524,note_off,0,0,0,,6,,,66,127
45525,note_on,1,0,0,,0,,,72,127
45525,note_on,0,0,0,,8,,,68,127
45525,note_on,0,0,0,,6,,,66,127
45785,note_off,260,0,0,,6,,,66,127
45785,note_off,0,0,0,,8,,,68,127
45785,note_off,0,0,0,,0,,,72,127
45786,note_on,1,0,0,,1,,,73,127
45786,note_on,0,0,0,,8,,,68,127
45786,note_on,0,0,0,,5,,,65,127
46046,note_off,260,0,0,,5,,,65,127
46046,note_off,0,0,0,,8,,,68,127
46046,note_off,0,0,0,,1,,,73,127
46047,note_on,1,0,0,,5,,,77,127
46047,note_on,0,0,0,,6,,,66,127
46047,note_on,0,0,0,,3,,,63,127
46111,note_off,64,0,0,,5,,,77,127
46112,note_on,1,0,0,,3,,,75,127
46176,note_off,64,0,0,,3,,,75,127
46177,note_on,1,0,0,,5,,,77,127
46241,note_off,64,0,0,,5,,,77,127
46242,note_on,1,0,0,,3,,,75,127
46306,note_off,64,0,0,,3,,,75,127
46306,note_off,0,0,0,,3,,,63,127
46307,note_on,1,0,0,,5,,,77,127
46307,note_on,0,0,0,,8,,,56,127
46371,note_off,64,0,0,,5,,,77,127
46372,note_on,1,0,0,,3,,,75,127
46436,note_off,64,0,0,,3,,,75,127
46437,note_on,1,0,0,,5,,,77,127
46501,note_off,64,0,0,,5,,,77,127
46502,note_on,1,0,0,,6,,,78,127
46562,note_off,60,0,0,,6,,,66,127
46566,note_off,4,0,0,,6,,,78,127
46566,note_off,0,0,0,,8,,,56,127
46567,note_on,1,0,0,,5,,,77,127
46567,note_on,0,0,0,,5,,,65,127
46567,note_on,0,0,0,,1,,,61,127
46827,note_off,260,0,0,,5,,,77,127
46828,note_on,1,0,0,,5,,,77,127
47088,note_off,260,0,0,,5,,,77,127
47089,note_on,1,0,0,,3,,,75,127
47175,note_off,86,0,0,,3,,,75,127
47176,note_on,1,0,0,,1,,,73,127
47231,note_off,55,0,0,,1,,,61,127
47231,note_off,0,0,0,,5,,,65,127
47262,note_off,31,0,0,,1,,,73,127
47263,note_on,1,0,0,,0,,,72,127
47349,note_off,86,0,0,,0,,,72,127
47350,note_on,1,0,0,,11,,,70,127
47350,note_on,0,0,0,,3,,,63,127
47350,note_on,0,0,0,,6,,,66,127
47436,note_off,86,0,0,,11,,,70,127
47437,note_on,1,0,0,,10,,,69,127
47523,note_off,86,0,0,,10,,,69,127
47524,note_on,1,0,0,,11,,,70,127
47610,note_off,86,0,0,,11,,,70,127
47610,note_off,0,0,0,,6,,,66,127
47610,note_off,0,0,0,,3,,,63,127
47611,note_on,1,0,0,,10,,,69,127
47611,note_on,0,0,0,,5,,,65,127
47871,note_off,260,0,0,,5,,,65,127
47871,note_off,0,0,0,,10,,,69,127
47872,note_on,1,0,0,,11,,,70,127
47872,note_on,0,0,0,,5,,,65,127
47872,note_on,0,0,0,,1,,,61,127
48132,note_off,260,0,0,,1,,,61,127
48132,note_off,0,0,0,,5,,,65,127
48132,note_off,0,0,0,,11,,,70,127
48133,note_on,1,0,0,,1,,,73,127
48133,note_on,0,0,0,,3,,,63,127
48133,note_on,0,0,0,,0,,,60,127
48197,note_off,64,0,0,,1,,,73,127
48198,note_on,1,0,0,,0,,,72,127
48262,note_off,64,0,0,,0,,,72,127
48263,note_on,1,0,0,,1,,,73,127
48327,note_off,64,0,0,,1,,,73,127
48328,note_on,1,0,0,,0,,,72,127
48392,note_off,64,0,0,,0,,,72,127
48392,note_off,0,0,0,,0,,,60,127
48392,note_off,0,0,0,,3,,,63,127
48393,note_on,1,0,0,,1,,,73,127
48393,note_on,0,0,0,,5,,,53,127
48457,note_off,64,0,0,,1,,,73,127
48458,note_on,1,0,0,,0,,,72,127
48522,note_off,64,0,0,,0,,,72,127
48523,note_on,1,0,0,,1,,,73,127
48587,note_off,64,0,0,,1,,,73,127
48588,note_on,1,0,0,,3,,,75,127
48652,note_off,64,0,0,,3,,,75,127
48652,note_off,0,0,0,,5,,,53,127
48653,note_on,1,0,0,,1,,,73,127
48653,note_on,0,0,0,,11,,,58,127
48653,note_on,0,0,0,,5,,,65,127
48913,note_off,260,0,0,,11,,,58,127
48913,note_off,0,0,0,,1,,,73,127
48914,note_on,1,0,0,,0,,,72,127
48914,note_on,0,0,0,,8,,,56,127
49174,note_off,260,0,0,,8,,,56,127
49174,note_off,0,0,0,,0,,,72,127
49175,note_on,1,0,0,,0,,,72,127
49175,note_on,0,0,0,,6,,,54,127
49239,note_off,64,0,0,,0,,,72,127
49240,note_on,1,0,0,,11,,,70,127
49304,note_off,64,0,0,,11,,,70,127
49305,note_on,1,0,0,,0,,,72,127
49369,note_off,64,0,0,,0,,,72,127
49370,note_on,1,0,0,,11,,,70,127
49434,note_off,64,0,0,,11,,,70,127
49434,note_off,0,0,0,,5,,,65,127
49435,note_on,1,0,0,,0,,,72,127
49435,note_on,0,0,0,,3,,,63,127
49499,note_off,64,0,0,,0,,,72,127
49500,note_on,1,0,0,,11,,,70,127
49564,note_off,64,0,0,,11,,,70,127
49565,note_on,1,0,0,,10,,,69,127
49629,note_off,64,0,0,,10,,,69,127
49630,note_on,1,0,0,,11,,,70,127
49690,note_off,60,0,0,,6,,,54,127
49694,note_off,4,0,0,,11,,,70,127
49694,note_off,0,0,0,,3,,,63,127
49695,note_on,1,0,0,,0,,,72,127
49695,note_on,0,0,0,,5,,,53,127
49781,note_off,86,0,0,,0,,,72,127
49782,note_on,1,0,0,,11,,,70,127
49868,note_off,86,0,0,,11,,,70,127
49869,note_on,1,0,0,,10,,,69,127
49955,note_off,86,0,0,,10,,,69,127
49955,note_off,0,0,0,,5,,,53,127
49956,note_on,1,0,0,,0,,,72,127
49956,note_on,0,0,0,,10,,,69,127
49956,note_on,0,0,0,,5,,,65,127
50216,note_off,260,0,0,,10,,,69,127
50216,note_off,0,0,0,,0,,,72,127
50217,note_on,1,0,0,,1,,,73,127
50217,note_on,0,0,0,,11,,,70,127
50477,note_off,260,0,0,,5,,,65,127
50478,note_on,1,0,0,,4,,,64,127
50737,note_off,259,0,0,,4,,,64,127
50738,note_off,1,0,0,,11,,,70,127
50738,note_off,0,0,0,,1,,,73,127
50739,note_on,1,0,0,,0,,,72,127
50825,note_off,86,0,0,,0,,,72,127
50826,note_on,1,0,0,,11,,,70,127
50912,note_off,86,0,0,,11,,,70,127
50913,note_on,1,0,0,,10,,,69,127
50999,note_off,86,0,0,,10,,,69,127
51000,note_on,1,0,0,,10,,,69,127
51000,note_on,0,0,0,,0,,,72,127
51000,note_on,0,0,0,,5,,,65,127
51260,note_off,260,0,0,,0,,,72,127
51260,note_off,0,0,0,,10,,,69,127
51261,note_on,1,0,0,,11,,,70,127
51261,note_on,0,0,0,,1,,,73,127
51521,note_off,260,0,0,,5,,,65,127
51522,note_on,1,0,0,,4,,,64,127
51781,note_off,259,0,0,,4,,,64,127
51782,note_off,1,0,0,,1,,,73,127
51782,note_off,0,0,0,,11,,,70,127
51783,note_on,1,0,0,,0,,,72,127
51869,note_off,86,0,0,,0,,,72,127
51870,note_on,1,0,0,,11,,,70,127
51956,note_off,86,0,0,,11,,,70,127
51957,note_on,1,0,0,,10,,,69,127
52043,note_off,86,0,0,,10,,,69,127
52044,note_on,1,0,0,,2,,,74,127
52044,note_on,0,0,0,,11,,,70,127
52044,note_on,0,0,0,,5,,,65,127
52304,note_off,260,0,0,,11,,,70,127
52304,note_off,0,0,0,,2,,,74,127
52305,note_on,1,0,0,,3,,,75,127
52305,note_on,0,0,0,,0,,,72,127
52565,note_off,260,0,0,,5,,,65,127
52566,note_on,1,0,0,,6,,,66,127
52825,note_off,259,0,0,,6,,,66,127
52826,note_off,1,0,0,,0,,,72,127
52826,note_off,0,0,0,,3,,,75,127
52827,note_on,1,0,0,,2,,,74,127
52913,note_off,86,0,0,,2,,,74,127
52914,note_on,1,0,0,,0,,,72,127
53000,note_off,86,0,0,,0,,,72,127
53001,note_on,1,0,0,,12,,,71,127
53087,note_off,86,0,0,,12,,,71,127
53088,note_on,1,0,0,,2,,,74,127
53088,note_on,0,0,0,,12,,,71,127
53088,note_on,0,0,0,,7,,,67,127
53348,note_off,260,0,0,,12,,,71,127
53348,note_off,0,0,0,,2,,,74,127
53349,note_on,1,0,0,,0,,,72,127
53349,note_on,0,0,0,,3,,,75,127
53609,note_off,260,0,0,,7,,,67,127
53610,note_on,1,0,0,,6,,,66,127
53870,note_off,260,0,0,,6,,,66,127
53870,note_off,0,0,0,,3,,,75,127
53870,note_off,0,0,0,,0,,,72,127
53871,note_on,1,0,0,,2,,,74,127
53871,note_on,0,0,0,,7,,,67,127
53957,note_off,86,0,0,,2,,,74,127
53958,note_on,1,0,0,,0,,,72,127
54044,note_off,86,0,0,,0,,,72,127
54045,note_on,1,0,0,,12,,,71,127
54131,note_off,86,0,0,,12,,,71,127
54131,note_off,0,0,0,,7,,,67,127
54132,note_on,1,0,0,,8,,,80,127
54132,note_on,0,0,0,,12,,,71,127
54132,note_on,0,0,0,,5,,,65,127
54392,note_off,260,0,0,,5,,,65,127
54392,note_off,0,0,0,,12,,,71,127
54392,note_off,0,0,0,,8,,,80,127
54393,note_on,1,0,0,,0,,,72,127
54393,note_on,0,0,0,,7,,,79,127
54393,note_on,0,0,0,,3,,,63,127
54479,note_off,86,0,0,,7,,,79,127
54480,note_on,1,0,0,,5,,,77,127
54566,note_off,86,0,0,,5,,,77,127
54567,note_on,1,0,0,,3,,,75,127
54653,note_off,86,0,0,,3,,,75,127
54653,note_off,0,0,0,,3,,,63,127
54654,note_on,1,0,0,,5,,,77,127
54654,note_on,0,0,0,,2,,,62,127
54910,note_off,256,0,0,,0,,,72,127
54914,note_off,4,0,0,,2,,,62,127
54914,note_off,0,0,0,,5,,,77,127
54915,note_on,1,0,0,,3,,,75,127
54915,note_on,0,0,0,,0,,,60,127
54915,note_on,0,0,0,,3,,,63,127
55001,note_off,86,0,0,,3,,,75,127
55002,note_on,1,0,0,,2,,,74,127
55088,note_off,86,0,0,,2,,,74,127
55089,note_on,1,0,0,,0,,,72,127
55175,note_off,86,0,0,,0,,,72,127
55175,note_off,0,0,0,,3,,,63,127
55175,note_off,0,0,0,,0,,,60,127
55176,note_on,1,0,0,,2,,,74,127
55176,note_on,0,0,0,,11,,,58,127
55176,note_on,0,0,0,,2,,,62,127
55436,note_off,260,0,0,,2,,,62,127
55436,note_off,0,0,0,,11,,,58,127
55436,note_off,0,0,0,,2,,,74,127
55437,note_on,1,0,0,,0,,,72,127
55437,note_on,0,0,0,,0,,,60,127
55437,note_on,0,0,0,,10,,,57,127
55523,note_off,86,0,0,,0,,,72,127
55524,note_on,1,0,0,,11,,,70,127
55610,note_off,86,0,0,,11,,,70,127
55611,note_on,1,0,0,,10,,,69,127
55697,note_off,86,0,0,,10,,,69,127
55697,note_off,0,0,0,,10,,,57,127
55697,note_off,0,0,0,,0,,,60,127
55698,note_on,1,0,0,,11,,,70,127
55698,note_on,0,0,0,,7,,,55,127
55698,note_on,0,0,0,,11,,,58,127
55958,note_off,260,0,0,,11,,,58,127
55958,note_off,0,0,0,,7,,,55,127
55958,note_off,0,0,0,,11,,,70,127
55959,note_on,1,0,0,,10,,,69,127
55959,note_on,0,0,0,,10,,,57,127
55959,note_on,0,0,0,,5,,,53,127
56045,note_off,86,0,0,,10,,,69,127
56046,note_on,1,0,0,,7,,,67,127
56132,note_off,86,0,0,,7,,,67,127
56133,note_on,1,0,0,,5,,,65,127
56219,note_off,86,0,0,,5,,,65,127
56219,note_off,0,0,0,,5,,,53,127
56219,note_off,0,0,0,,10,,,57,127
56220,note_on,1,0,0,,7,,,67,127
56220,note_on,0,0,0,,7,,,55,127
56220,note_on,0,0,0,,3,,,51,127
56480,note_off,260,0,0,,3,,,51,127
56480,note_off,0,0,0,,7,,,55,127
56480,note_off,0,0,0,,7,,,67,127
56481,note_on,1,0,0,,5,,,65,127
56481,note_on,0,0,0,,5,,,53,127
56611,note_off,130,0,0,,5,,,65,127
56612,note_on,1,0,0,,5,,,77,127
56743,note_on,131,0,0,,5,,,65,127
56743,note_on,0,0,0,,2,,,62,127
56873,note_off,130,0,0,,5,,,65,127
56874,note_on,1,0,0,,7,,,67,127
56999,note_off,125,0,0,,5,,,53,127
57003,note_off,4,0,0,,7,,,67,127
57003,note_off,0,0,0,,2,,,62,127
57004,note_on,1,0,0,,10,,,69,127
57004,note_on,0,0,0,,0,,,60,127
57004,note_on,0,0,0,,5,,,53,127
57134,note_off,130,0,0,,10,,,69,127
57135,note_on,1,0,0,,3,,,75,127
57265,note_off,130,0,0,,3,,,75,127
57265,note_off,0,0,0,,0,,,60,127
57266,note_on,1,0,0,,11,,,70,127
57266,note_on,0,0,0,,11,,,58,127
57396,note_off,130,0,0,,11,,,70,127
57397,note_on,1,0,0,,2,,,74,127
57522,note_off,125,0,0,,5,,,53,127
57526,note_off,4,0,0,,2,,,74,127
57526,note_off,0,0,0,,11,,,58,127
57527,note_on,1,0,0,,0,,,72,127
57527,note_on,0,0,0,,5,,,53,127
57655,note_off,128,0,0,,5,,,77,127
57656,note_off,1,0,0,,0,,,72,127
57657,note_on,1,0,0,,5,,,77,127
57787,note_off,130,0,0,,5,,,53,127
57788,note_on,1,0,0,,5,,,65,127
57788,note_on,0,0,0,,2,,,62,127
57788,note_on,0,0,0,,5,,,53,127
57918,note_off,130,0,0,,5,,,65,127
57919,note_on,1,0,0,,7,,,67,127
58049,note_off,130,0,0,,7,,,67,127
58049,note_off,0,0,0,,5,,,53,127
58049,note_off,0,0,0,,2,,,62,127
58050,note_on,1,0,0,,10,,,69,127
58050,note_on,0,0,0,,5,,,53,127
58050,note_on,0,0,0,,0,,,60,127
58180,note_off,130,0,0,,10,,,69,127
58181,note_on,1,0,0,,3,,,75,127
58311,note_off,130,0,0,,3,,,75,127
58311,note_off,0,0,0,,0,,,60,127
58311,note_off,0,0,0,,5,,,53,127
58312,note_on,1,0,0,,11,,,70,127
58312,note_on,0,0,0,,5,,,53,127
58312,note_on,0,0,0,,11,,,58,127
58442,note_off,130,0,0,,11,,,70,127
58443,note_on,1,0,0,,2,,,74,127
58573,note_off,130,0,0,,2,,,74,127
58573,note_off,0,0,0,,11,,,58,127
58573,note_off,0,0,0,,5,,,53,127
58574,note_on,1,0,0,,0,,,72,127
58574,note_on,0,0,0,,5,,,41,127
58702,note_off,128,0,0,,5,,,77,127
58703,note_off,1,0,0,,0,,,72,127
58704,note_on,1,0,0,,5,,,77,127
58834,note_off,130,0,0,,5,,,41,127
58835,note_on,1,0,0,,5,,,65,127
58835,note_on,0,0,0,,5,,,41,127
58835,note_on,0,0,0,,2,,,50,127
58965,note_off,130,0,0,,5,,,65,127
58966,note_on,1,0,0,,7,,,67,127
59096,note_off,130,0,0,,7,,,67,127
59096,note_off,0,0,0,,2,,,50,127
59096,note_off,0,0,0,,5,,,41,127
59097,note_on,1,0,0,,10,,,69,127
59097,note_on,0,0,0,,0,,,48,127
59097,note_on,0,0,0,,5,,,41,127
59227,note_off,130,0,0,,10,,,69,127
59228,note_on,1,0,0,,3,,,75,127
59358,note_off,130,0,0,,3,,,75,127
59358,note_off,0,0,0,,5,,,41,127
59358,note_off,0,0,0,,0,,,48,127
59359,note_on,1,0,0,,11,,,70,127
59359,note_on,0,0,0,,11,,,46,127
59359,note_on,0,0,0,,5,,,41,127
59489,note_off,130,0,0,,11,,,70,127
59489,note_off,0,0,0,,5,,,77,127
59490,note_on,1,0,0,,2,,,74,127
59620,note_off,130,0,0,,2,,,74,127
59620,note_off,0,0,0,,5,,,41,127
59620,note_off,0,0,0,,11,,,46,127
59621,note_on,1,0,0,,0,,,72,127
59621,note_on,0,0,0,,5,,,41,127
59751,note_off,130,0,0,,0,,,72,127
59752,note_on,1,0,0,,11,,,70,127
59880,note_off,128,0,0,,5,,,41,127
59881,note_off,1,0,0,,11,,,70,127
59882,note_on,1,0,0,,0,,,72,127
59924,note_off,42,0,0,,0,,,72,127
59925,note_on,1,0,0,,2,,,74,127
59967,note_off,42,0,0,,2,,,74,127
59968,note_on,1,0,0,,3,,,75,127
60010,note_off,42,0,0,,3,,,75,127
60011,note_on,1,0,0,,5,,,77,127
60053,note_off,42,0,0,,5,,,77,127
60054,note_on,1,0,0,,7,,,79,127
60096,note_off,42,0,0,,7,,,79,127
60097,note_on,1,0,0,,10,,,81,127
60139,note_off,42,0,0,,10,,,81,127
60140,note_on,1,0,0,,11,,,82,127
60226,note_off,86,0,0,,11,,,82,127
60227,note_on,1,0,0,,10,,,81,127
60313,note_off,86,0,0,,10,,,81,127
60314,note_on,1,0,0,,7,,,79,127
60400,note_off,86,0,0,,7,,,79,127
60401,note_on,1,0,0,,5,,,77,127
60401,note_on,0,0,0,,11,,,70,127
60487,note_off,86,0,0,,11,,,70,127
60488,note_on,1,0,0,,10,,,69,127
60574,note_off,86,0,0,,10,,,69,127
60575,note_on,1,0,0,,7,,,67,127
60661,note_off,86,0,0,,7,,,67,127
60662,note_on,1,0,0,,5,,,65,127
60748,note_off,86,0,0,,5,,,77,127
60749,note_on,1,0,0,,3,,,75,127
60835,note_off,86,0,0,,3,,,75,127
60836,note_on,1,0,0,,2,,,74,127
60922,note_off,86,0,0,,2,,,74,127
60923,note_on,1,0,0,,0,,,72,127
61009,note_off,86,0,0,,5,,,65,127
61010,note_on,1,0,0,,3,,,63,127
61096,note_off,86,0,0,,3,,,63,127
61097,note_on,1,0,0,,2,,,62,127
61183,note_off,86,0,0,,2,,,62,127
61184,note_on,1,0,0,,0,,,60,127
61270,note_off,86,0,0,,0,,,72,127
61271,note_on,1,0,0,,11,,,70,127
61357,note_off,86,0,0,,11,,,70,127
61358,note_on,1,0,0,,10,,,69,127
61444,note_off,86,0,0,,10,,,69,127
61445,note_on,1,0,0,,7,,,67,127
61531,note_off,86,0,0,,0,,,60,127
61532,note_on,1,0,0,,11,,,58,127
61618,note_off,86,0,0,,11,,,58,127
61619,note_on,1,0,0,,10,,,57,127
61705,note_off,86,0,0,,10,,,57,127
61706,note_on,1,0,0,,7,,,55,127
61792,note_off,86,0,0,,7,,,67,127
61793,note_on,1,0,0,,5,,,65,127
61879,note_off,86,0,0,,5,,,65,127
61880,note_on,1,0,0,,3,,,63,127
61966,note_off,86,0,0,,3,,,63,127
61967,note_on,1,0,0,,2,,,62,127
62053,note_off,86,0,0,,7,,,55,127
62054,note_on,1,0,0,,5,,,53,127
62140,note_off,86,0,0,,5,,,53,127
62141,note_on,1,0,0,,3,,,51,127
62227,note_off,86,0,0,,3,,,51,127
62228,note_on,1,0,0,,2,,,50,127
62423,note_off,195,0,0,,2,,,62,127
62424,note_on,1,0,0,,5,,,65,127
62488,note_off,64,0,0,,5,,,65,127
62489,note_on,1,0,0,,3,,,63,127
62553,note_off,64,0,0,,3,,,63,127
62554,note_on,1,0,0,,2,,,62,127
62618,note_off,64,0,0,,2,,,62,127
62619,note_on,1,0,0,,3,,,63,127
62683,note_off,64,0,0,,3,,,63,127
62684,note_on,1,0,0,,5,,,65,127
62748,note_off,64,0,0,,5,,,65,127
62749,note_on,1,0,0,,7,,,67,127
62813,note_off,64,0,0,,7,,,67,127
62814,note_on,1,0,0,,10,,,69,127
62878,note_off,64,0,0,,10,,,69,127
62879,note_on,1,0,0,,11,,,70,127
62943,note_off,64,0,0,,11,,,70,127
62944,note_on,1,0,0,,0,,,72,127
63008,note_off,64,0,0,,0,,,72,127
63008,note_off,0,0,0,,2,,,50,127
63009,note_on,1,0,0,,2,,,74,127
63009,note_on,0,0,0,,0,,,48,127
63073,note_off,64,0,0,,2,,,74,127
63074,note_on,1,0,0,,3,,,75,127
63138,note_off,64,0,0,,3,,,75,127
63139,note_on,1,0,0,,5,,,77,127
63181,note_off,42,0,0,,5,,,77,127
63182,note_on,1,0,0,,7,,,79,127
63224,note_off,42,0,0,,7,,,79,127
63225,note_on,1,0,0,,10,,,81,127
63267,note_off,42,0,0,,10,,,81,127
63268,note_on,1,0,0,,11,,,82,127
63310,note_off,42,0,0,,0,,,48,127
63311,note_on,1,0,0,,11,,,46,127
63528,note_off,217,0,0,,11,,,46,127
63528,note_off,0,0,0,,11,,,82,127
63529,note_on,1,0,0,,3,,,75,127
63529,note_on,0,0,0,,5,,,77,127
63529,note_on,0,0,0,,3,,,51,127
63615,note_off,86,0,0,,5,,,77,127
63615,note_off,0,0,0,,3,,,75,127
63616,note_on,1,0,0,,2,,,74,127
63702,note_off,86,0,0,,2,,,74,127
63703,note_on,1,0,0,,0,,,72,127
63789,note_off,86,0,0,,0,,,72,127
63789,note_off,0,0,0,,3,,,51,127
63790,note_on,1,0,0,,11,,,70,127
63790,note_on,0,0,0,,2,,,74,127
63790,note_on,0,0,0,,5,,,53,127
64050,note_off,260,0,0,,5,,,53,127
64050,note_off,0,0,0,,2,,,74,127
64050,note_off,0,0,0,,11,,,70,127
64051,note_on,1,0,0,,10,,,69,127
64051,note_on,0,0,0,,0,,,72,127
64051,note_on,0,0,0,,5,,,41,127
64311,note_off,260,0,0,,5,,,41,127
64311,note_off,0,0,0,,0,,,72,127
64311,note_off,0,0,0,,10,,,69,127
64312,note_on,1,0,0,,11,,,82,127
64312,note_on,0,0,0,,11,,,46,127
64398,note_off,86,0,0,,11,,,82,127
64399,note_on,1,0,0,,10,,,81,127
64485,note_off,86,0,0,,10,,,81,127
64486,note_on,1,0,0,,7,,,79,127
64572,note_off,86,0,0,,7,,,79,127
64572,note_off,0,0,0,,11,,,46,127
64573,note_on,1,0,0,,5,,,77,127
64573,note_on,0,0,0,,11,,,70,127
64659,note_off,86,0,0,,11,,,70,127
64660,note_on,1,0,0,,10,,,69,127
64746,note_off,86,0,0,,10,,,69,127
64747,note_on,1,0,0,,7,,,67,127
64833,note_off,86,0,0,,7,,,67,127
64834,note_on,1,0,0,,5,,,65,127
64920,note_off,86,0,0,,5,,,77,127
64921,note_on,1,0,0,,3,,,75,127
65007,note_off,86,0,0,,3,,,75,127
65008,note_on,1,0,0,,2,,,74,127
65094,note_off,86,0,0,,2,,,74,127
65095,note_on,1,0,0,,0,,,72,127
65181,note_off,86,0,0,,5,,,65,127
65182,note_on,1,0,0,,3,,,63,127
65268,note_off,86,0,0,,3,,,63,127
65269,note_on,1,0,0,,2,,,62,127
65355,note_off,86,0,0,,2,,,62,127
65356,note_on,1,0,0,,0,,,60,127
65442,note_off,86,0,0,,0,,,72,127
65443,note_on,1,0,0,,11,,,70,127
65529,note_off,86,0,0,,11,,,70,127
65530,note_on,1,0,0,,10,,,69,127
65616,note_off,86,0,0,,10,,,69,127
65617,note_on,1,0,0,,7,,,67,127
65703,note_off,86,0,0,,0,,,60,127
65704,note_on,1,0,0,,11,,,58,127
65790,note_off,86,0,0,,11,,,58,127
65791,note_on,1,0,0,,10,,,57,127
65877,note_off,86,0,0,,10,,,57,127
65878,note_on,1,0,0,,7,,,55,127
65964,note_off,86,0,0,,7,,,67,127
65965,note_on,1,0,0,,5,,,65,127
66051,note_off,86,0,0,,5,,,65,127
66052,note_on,1,0,0,,3,,,63,127
66138,note_off,86,0,0,,3,,,63,127
66139,note_on,1,0,0,,2,,,62,127
66225,note_off,86,0,0,,7,,,55,127
66226,note_on,1,0,0,,5,,,53,127
66312,note_off,86,0,0,,5,,,53,127
66313,note_on,1,0,0,,3,,,51,127
66399,note_off,86,0,0,,3,,,51,127
66400,note_on,1,0,0,,2,,,50,127
66595,note_off,195,0,0,,2,,,62,127
66596,note_on,1,0,0,,5,,,65,127
66660,note_off,64,0,0,,5,,,65,127
66661,note_on,1,0,0,,3,,,63,127
66725,note_off,64,0,0,,3,,,63,127
66726,note_on,1,0,0,,2,,,62,127
66790,note_off,64,0,0,,2,,,62,127
66791,note_on,1,0,0,,3,,,63,127
66855,note_off,64,0,0,,3,,,63,127
66856,note_on,1,0,0,,5,,,65,127
66920,note_off,64,0,0,,5,,,65,127
66921,note_on,1,0,0,,7,,,67,127
66985,note_off,64,0,0,,7,,,67,127
66986,note_on,1,0,0,,10,,,69,127
67050,note_off,64,0,0,,10,,,69,127
67051,note_on,1,0,0,,11,,,70,127
67115,note_off,64,0,0,,11,,,70,127
67116,note_on,1,0,0,,0,,,72,127
67180,note_off,64,0,0,,0,,,72,127
67180,note_off,0,0,0,,2,,,50,127
67181,note_on,1,0,0,,2,,,74,127
67181,note_on,0,0,0,,0,,,48,127
67245,note_off,64,0,0,,2,,,74,127
67246,note_on,1,0,0,,3,,,75,127
67310,note_off,64,0,0,,3,,,75,127
67311,note_on,1,0,0,,5,,,77,127
67353,note_off,42,0,0,,5,,,77,127
67354,note_on,1,0,0,,7,,,79,127
67396,note_off,42,0,0,,7,,,79,127
67397,note_on,1,0,0,,10,,,81,127
67439,note_off,42,0,0,,10,,,81,127
67439,note_off,0,0,0,,0,,,48,127
67440,note_on,1,0,0,,11,,,82,127
67440,note_on,0,0,0,,11,,,46,127
67700,note_off,260,0,0,,11,,,46,127
67700,note_off,0,0,0,,11,,,82,127
67701,note_on,1,0,0,,3,,,75,127
67701,note_on,0,0,0,,5,,,77,127
67701,note_on,0,0,0,,3,,,51,127
67787,note_off,86,0,0,,5,,,77,127
67787,note_off,0,0,0,,3,,,75,127
67788,note_on,1,0,0,,2,,,74,127
67874,note_off,86,0,0,,2,,,74,127
67875,note_on,1,0,0,,0,,,72,127
67961,note_off,86,0,0,,0,,,72,127
67961,note_off,0,0,0,,3,,,51,127
67962,note_on,1,0,0,,11,,,70,127
67962,note_on,0,0,0,,2,,,74,127
67962,note_on,0,0,0,,5,,,53,127
68222,note_off,260,0,0,,5,,,53,127
68222,note_off,0,0,0,,2,,,74,127
68222,note_off,0,0,0,,11,,,70,127
68223,note_on,1,0,0,,0,,,72,127
68223,note_on,0,0,0,,10,,,69,127
68223,note_on,0,0,0,,5,,,41,127
68483,note_off,260,0,0,,5,,,41,127
68483,note_off,0,0,0,,10,,,69,127
68483,note_off,0,0,0,,0,,,72,127
68484,note_on,1,0,0,,11,,,70,127
68484,note_on,0,0,0,,11,,,46,127
68744,note_off,260,0,0,,11,,,46,127
68745,note_on,1,0,0,,11,,,58,127
68745,note_on,0,0,0,,11,,,46,127
69005,note_off,260,0,0,,11,,,46,127
69005,note_off,0,0,0,,11,,,58,127
69006,note_on,1,0,0,,10,,,57,127
69006,note_on,0,0,0,,0,,,48,127
69266,note_off,260,0,0,,0,,,48,127
69266,note_off,0,0,0,,10,,,57,127
69266,note_off,0,0,0,,11,,,70,127
69267,note_on,1,0,0,,2,,,50,127
69267,note_on,0,0,0,,11,,,58,127
69397,note_off,130,0,0,,11,,,58,127
69398,note_on,1,0,0,,5,,,53,127
69526,note_off,128,0,0,,2,,,50,127
69527,note_off,1,0,0,,5,,,53,127
69528,note_on,1,0,0,,7,,,55,127
69528,note_on,0,0,0,,3,,,51,127
69788,note_off,260,0,0,,7,,,55,127
69789,note_on,1,0,0,,3,,,75,127
69789,note_on,0,0,0,,5,,,77,127
69789,note_on,0,0,0,,0,,,60,127
70045,note_off,256,0,0,,3,,,51,127
70049,note_off,4,0,0,,0,,,60,127
70050,note_on,1,0,0,,11,,,58,127
70050,note_on,0,0,0,,5,,,53,127
70310,note_off,260,0,0,,11,,,58,127
70311,note_on,1,0,0,,10,,,57,127
70397,note_off,86,0,0,,5,,,77,127
70397,note_off,0,0,0,,3,,,75,127
70398,note_on,1,0,0,,2,,,74,127
70484,note_off,86,0,0,,2,,,74,127
70485,note_on,1,0,0,,0,,,72,127
70567,note_off,82,0,0,,5,,,53,127
70571,note_off,4,0,0,,0,,,72,127
70571,note_off,0,0,0,,10,,,57,127
70572,note_on,1,0,0,,11,,,70,127
70572,note_on,0,0,0,,11,,,58,127
70572,note_on,0,0,0,,11,,,46,127
70832,note_off,260,0,0,,11,,,46,127
70832,note_off,0,0,0,,11,,,58,127
70833,note_on,1,0,0,,11,,,58,127
70833,note_on,0,0,0,,11,,,46,127
71093,note_off,260,0,0,,11,,,46,127
71093,note_off,0,0,0,,11,,,58,127
71094,note_on,1,0,0,,10,,,57,127
71094,note_on,0,0,0,,0,,,48,127
71354,note_off,260,0,0,,0,,,48,127
71354,note_off,0,0,0,,10,,,57,127
71354,note_off,0,0,0,,11,,,70,127
71355,note_on,1,0,0,,11,,,58,127
71355,note_on,0,0,0,,2,,,50,127
71485,note_off,130,0,0,,11,,,58,127
71486,note_on,1,0,0,,5,,,53,127
71614,note_off,128,0,0,,2,,,50,127
71615,note_off,1,0,0,,5,,,53,127
71616,note_on,1,0,0,,3,,,51,127
71616,note_on,0,0,0,,7,,,55,127
71876,note_off,260,0,0,,7,,,55,127
71877,note_on,1,0,0,,3,,,75,127
71877,note_on,0,0,0,,5,,,77,127
71877,note_on,0,0,0,,0,,,60,127
72133,note_off,256,0,0,,3,,,51,127
72137,note_off,4,0,0,,0,,,60,127
72138,note_on,1,0,0,,5,,,53,127
72138,note_on,0,0,0,,11,,,58,127
72398,note_off,260,0,0,,11,,,58,127
72399,note_on,1,0,0,,10,,,57,127
72485,note_off,86,0,0,,5,,,77,127
72485,note_off,0,0,0,,3,,,75,127
72486,note_on,1,0,0,,2,,,74,127
72572,note_off,86,0,0,,2,,,74,127
72573,note_on,1,0,0,,0,,,72,127
72655,note_off,82,0,0,,5,,,53,127
72659,note_off,4,0,0,,0,,,72,127
72659,note_off,0,0,0,,10,,,57,127
72660,note_on,1,0,0,,11,,,70,127
72660,note_on,0,0,0,,11,,,46,127
72746,note_off,86,0,0,,11,,,70,127
72747,note_on,1,0,0,,11,,,82,127
72833,note_off,86,0,0,,11,,,82,127
72834,note_on,1,0,0,,5,,,77,127
72920,note_off,86,0,0,,5,,,77,127
72921,note_on,1,0,0,,2,,,74,127
73007,note_off,86,0,0,,2,,,74,127
73008,note_on,1,0,0,,11,,,70,127
73094,note_off,86,0,0,,11,,,70,127
73095,note_on,1,0,0,,5,,,65,127
73177,note_off,82,0,0,,11,,,46,127
73181,note_off,4,0,0,,5,,,65,127
73182,note_on,1,0,0,,11,,,70,127
73268,note_off,86,0,0,,11,,,70,127
73269,note_on,1,0,0,,5,,,77,127
73355,note_off,86,0,0,,5,,,77,127
73356,note_on,1,0,0,,2,,,74,127
73442,note_off,86,0,0,,2,,,74,127
73443,note_on,1,0,0,,11,,,70,127
73443,note_on,0,0,0,,2,,,50,127
73703,note_off,260,0,0,,2,,,50,127
73704,note_on,1,0,0,,3,,,51,127
73768,note_off,64,0,0,,11,,,70,127
73769,note_on,1,0,0,,0,,,72,127
73833,note_off,64,0,0,,0,,,72,127
73834,note_on,1,0,0,,11,,,70,127
73898,note_off,64,0,0,,11,,,70,127
73899,note_on,1,0,0,,10,,,69,127
73963,note_off,64,0,0,,10,,,69,127
73963,note_off,0,0,0,,3,,,51,127
73964,note_on,1,0,0,,11,,,70,127
73964,note_on,0,0,0,,7,,,55,127
74028,note_off,64,0,0,,11,,,70,127
74029,note_on,1,0,0,,0,,,72,127
74093,note_off,64,0,0,,0,,,72,127
74094,note_on,1,0,0,,11,,,70,127
74158,note_off,64,0,0,,11,,,70,127
74159,note_on,1,0,0,,0,,,72,127
74223,note_off,64,0,0,,0,,,72,127
74223,note_off,0,0,0,,7,,,55,127
74224,note_on,1,0,0,,2,,,74,127
74224,note_on,0,0,0,,5,,,53,127
74288,note_off,64,0,0,,2,,,74,127
74289,note_on,1,0,0,,0,,,72,127
74353,note_off,64,0,0,,0,,,72,127
74354,note_on,1,0,0,,2,,,74,127
74418,note_off,64,0,0,,2,,,74,127
74419,note_on,1,0,0,,0,,,72,127
74483,note_off,64,0,0,,0,,,72,127
74484,note_on,1,0,0,,2,,,74,127
74484,note_on,0,0,0,,5,,,41,127
74548,note_off,64,0,0,,2,,,74,127
74549,note_on,1,0,0,,0,,,72,127
74613,note_off,64,0,0,,0,,,72,127
74614,note_on,1,0,0,,2,,,74,127
74678,note_off,64,0,0,,2,,,74,127
74679,note_on,1,0,0,,0,,,72,127
74739,note_off,60,0,0,,5,,,53,127
74743,note_off,4,0,0,,0,,,72,127
74743,note_off,0,0,0,,5,,,41,127
74744,note_on,1,0,0,,11,,,70,127
74744,note_on,0,0,0,,11,,,46,127
74830,note_off,86,0,0,,11,,,70,127
74831,note_on,1,0,0,,11,,,82,127
74917,note_off,86,0,0,,11,,,82,127
74918,note_on,1,0,0,,5,,,77,127
75004,note_off,86,0,0,,5,,,77,127
75005,note_on,1,0,0,,2,,,74,127
75091,note_off,86,0,0,,2,,,74,127
75092,note_on,1,0,0,,11,,,70,127
75178,note_off,86,0,0,,11,,,70,127
75179,note_on,1,0,0,,5,,,65,127
75261,note_off,82,0,0,,11,,,46,127
75265,note_off,4,0,0,,5,,,65,127
75266,note_on,1,0,0,,11,,,70,127
75352,note_off,86,0,0,,11,,,70,127
75353,note_on,1,0,0,,5,,,77,127
75439,note_off,86,0,0,,5,,,77,127
75440,note_on,1,0,0,,2,,,74,127
75526,note_off,86,0,0,,2,,,74,127
75527,note_on,1,0,0,,11,,,70,127
75527,note_on,0,0,0,,2,,,50,127
75787,note_off,260,0,0,,2,,,50,127
75788,note_on,1,0,0,,3,,,51,127
75852,note_off,64,0,0,,11,,,70,127
75853,note_on,1,0,0,,0,,,72,127
75917,note_off,64,0,0,,0,,,72,127
75918,note_on,1,0,0,,11,,,70,127
75982,note_off,64,0,0,,11,,,70,127
75983,note_on,1,0,0,,10,,,69,127
76047,note_off,64,0,0,,10,,,69,127
76047,note_off,0,0,0,,3,,,51,127
76048,note_on,1,0,0,,11,,,70,127
76048,note_on,0,0,0,,7,,,55,127
76112,note_off,64,0,0,,11,,,70,127
76113,note_on,1,0,0,,0,,,72,127
76177,note_off,64,0,0,,0,,,72,127
76178,note_on,1,0,0,,11,,,70,127
76242,note_off,64,0,0,,11,,,70,127
76243,note_on,1,0,0,,0,,,72,127
76307,note_off,64,0,0,,0,,,72,127
76307,note_off,0,0,0,,7,,,55,127
76308,note_on,1,0,0,,2,,,74,127
76308,note_on,0,0,0,,5,,,53,127
76372,note_off,64,0,0,,2,,,74,127
76373,note_on,1,0,0,,0,,,72,127
76437,note_off,64,0,0,,0,,,72,127
76438,note_on,1,0,0,,2,,,74,127
76502,note_off,64,0,0,,2,,,74,127
76503,note_on,1,0,0,,0,,,72,127
76567,note_off,64,0,0,,0,,,72,127
76568,note_on,1,0,0,,2,,,74,127
76568,note_on,0,0,0,,5,,,41,127
76632,note_off,64,0,0,,2,,,74,127
76633,note_on,1,0,0,,0,,,72,127
76697,note_off,64,0,0,,0,,,72,127
76698,note_on,1,0,0,,11,,,70,127
76762,note_off,64,0,0,,11,,,70,127
76763,note_on,1,0,0,,0,,,72,127
76823,note_off,60,0,0,,5,,,53,127
76827,note_off,4,0,0,,0,,,72,127
76827,note_off,0,0,0,,5,,,41,127
76842,note_on,15,0,0,,11,,,70,127
76842,note_on,0,0,0,,11,,,46,127
78675,note_off,1833,0,0,,11,,,46,127
78675,note_off,0,0,0,,11,,,70,127
79872,end_of_track,1197,1,0,,,,,,
