tick,type,time,meta,track,program,channel,pitch,tempo,note,velocity
0,copyright,0,1,0,,,,,,
0,program_change,0,0,0,6,0,,,,
0,pitchwheel,0,0,0,,0,0,,,
0,program_change,0,0,0,6,1,,,,
0,pitchwheel,0,0,0,,1,-590,,,
0,program_change,0,0,0,6,2,,,,
0,pitchwheel,0,0,0,,2,-272,,,
0,program_change,0,0,0,6,3,,,,
0,pitchwheel,0,0,0,,3,-353,,,
0,program_change,0,0,0,6,4,,,,
0,pitchwheel,0,0,0,,4,-560,,,
0,program_change,0,0,0,6,5,,,,
0,pitchwheel,0,0,0,,5,-80,,,
0,program_change,0,0,0,6,6,,,,
0,pitchwheel,0,0,0,,6,-625,,,
0,program_change,0,0,0,6,7,,,,
0,pitchwheel,0,0,0,,7,-130,,,
0,program_change,0,0,0,6,8,,,,
0,pitchwheel,0,0,0,,8,-512,,,
0,program_change,0,0,0,6,10,,,,
0,pitchwheel,0,0,0,,10,-464,,,
0,program_change,0,0,0,6,11,,,,
0,pitchwheel,0,0,0,,11,-208,,,
0,program_change,0,0,0,6,12,,,,
0,pitchwheel,0,0,0,,12,-553,,,
0,set_tempo,0,1,0,,,,500000,,
110,note_on,110,0,0,,11,,,70,127
328,note_off,218,0,0,,11,,,70,127
329,note_on,1,0,0,,5,,,65,127
535,note_off,206,0,0,,5,,,65,127
549,note_on,14,0,0,,5,,,77,127
755,note_off,206,0,0,,5,,,77,127
769,note_on,14,0,0,,11,,,58,127
769,note_on,0,0,0,,3,,,75,127
987,note_off,218,0,0,,3,,,75,127
987,note_off,0,0,0,,11,,,58,127
988,note_on,1,0,0,,5,,,53,127
988,note_on,0,0,0,,2,,,74,127
1194,note_off,206,0,0,,2,,,74,127
1207,note_off,13,0,0,,5,,,53,127
1208,note_on,1,0,0,,5,,,65,127
1208,note_on,0,0,0,,0,,,72,127
1414,note_off,206,0,0,,0,,,72,127
1427,note_off,13,0,0,,5,,,65,127
1428,note_on,1,0,0,,2,,,62,127
1428,note_on,0,0,0,,0,,,72,127
1537,note_off,109,0,0,,0,,,72,127
1538,note_on,1,0,0,,11,,,70,127
1647,note_off,109,0,0,,11,,,70,127
1647,note_off,0,0,0,,2,,,62,127
1648,note_on,1,0,0,,0,,,60,127
1648,note_on,0,0,0,,10,,,69,127
1866,note_off,218,0,0,,10,,,69,127
1866,note_off,0,0,0,,0,,,60,127
1867,note_on,1,0,0,,11,,,58,127
1867,note_on,0,0,0,,11,,,70,127
2085,note_off,218,0,0,,11,,,70,127
2085,note_off,0,0,0,,11,,,58,127
2086,note_on,1,0,0,,10,,,57,127
2086,note_on,0,0,0,,4,,,64,127
2304,note_off,218,0,0,,4,,,64,127
2304,note_off,0,0,0,,10,,,57,127
2305,note_on,1,0,0,,7,,,55,127
2305,note_on,0,0,0,,5,,,65,127
2523,note_off,218,0,0,,5,,,65,127
2523,note_off,0,0,0,,7,,,55,127
2524,note_on,1,0,0,,5,,,53,127
2524,note_on,0,0,0,,7,,,67,127
2742,note_off,218,0,0,,7,,,67,127
2742,note_off,0,0,0,,5,,,53,127
2743,note_on,1,0,0,,7,,,55,127
2743,note_on,0,0,0,,5,,,65,127
2852,note_off,109,0,0,,5,,,65,127
2853,note_on,1,0,0,,3,,,63,127
2962,note_off,109,0,0,,3,,,63,127
2962,note_off,0,0,0,,7,,,55,127
2963,note_on,1,0,0,,5,,,53,127
2963,note_on,0,0,0,,2,,,62,127
3181,note_off,218,0,0,,2,,,62,127
3181,note_off,0,0,0,,5,,,53,127
3182,note_on,1,0,0,,3,,,51,127
3182,note_on,0,0,0,,0,,,60,127
3400,note_off,218,0,0,,0,,,60,127
3400,note_off,0,0,0,,3,,,51,127
3401,note_on,1,0,0,,2,,,50,127
3401,note_on,0,0,0,,11,,,70,127
3401,note_on,0,0,0,,2,,,62,127
3619,note_off,218,0,0,,2,,,62,127
3619,note_off,0,0,0,,11,,,70,127
3619,note_off,0,0,0,,2,,,50,127
3620,note_on,1,0,0,,0,,,48,127
3620,note_on,0,0,0,,0,,,72,127
3620,note_on,0,0,0,,3,,,63,127
3838,note_off,218,0,0,,3,,,63,127
3838,note_off,0,0,0,,0,,,72,127
3838,note_off,0,0,0,,0,,,48,127
3839,note_on,1,0,0,,11,,,46,127
3839,note_on,0,0,0,,5,,,65,127
3839,note_on,0,0,0,,2,,,74,127
4057,note_off,218,0,0,,2,,,74,127
4057,note_off,0,0,0,,5,,,65,127
4057,note_off,0,0,0,,11,,,46,127
4058,note_on,1,0,0,,3,,,51,127
4058,note_on,0,0,0,,3,,,63,127
4058,note_on,0,0,0,,2,,,74,127
4167,note_off,109,0,0,,2,,,74,127
4168,note_on,1,0,0,,0,,,72,127
4277,note_off,109,0,0,,0,,,72,127
4277,note_off,0,0,0,,3,,,63,127
4277,note_off,0,0,0,,3,,,51,127
4278,note_on,1,0,0,,5,,,53,127
4278,note_on,0,0,0,,11,,,70,127
4278,note_on,0,0,0,,2,,,62,127
4496,note_off,218,0,0,,2,,,62,127
4496,note_off,0,0,0,,11,,,70,127
4496,note_off,0,0,0,,5,,,53,127
4497,note_on,1,0,0,,5,,,41,127
4497,note_on,0,0,0,,0,,,60,127
4497,note_on,0,0,0,,10,,,69,127
4715,note_off,218,0,0,,10,,,69,127
4715,note_off,0,0,0,,0,,,60,127
4715,note_off,0,0,0,,5,,,41,127
4716,note_on,1,0,0,,11,,,46,127
4716,note_on,0,0,0,,11,,,70,127
4788,note_off,72,0,0,,11,,,70,127
4789,note_on,1,0,0,,10,,,69,127
4861,note_off,72,0,0,,10,,,69,127
4862,note_on,1,0,0,,11,,,70,127
4934,note_off,72,0,0,,11,,,70,127
4935,note_on,1,0,0,,10,,,69,127
5007,note_off,72,0,0,,10,,,69,127
5008,note_on,1,0,0,,7,,,67,127
5080,note_off,72,0,0,,7,,,67,127
5081,note_on,1,0,0,,10,,,69,127
5153,note_off,72,0,0,,10,,,69,127
5154,note_on,1,0,0,,11,,,70,127
5319,note_off,165,0,0,,11,,,70,127
5373,note_off,54,0,0,,11,,,46,127
5374,note_on,1,0,0,,11,,,70,127
5592,note_off,218,0,0,,11,,,70,127
5593,note_on,1,0,0,,5,,,65,127
5811,note_off,218,0,0,,5,,,65,127
5812,note_on,1,0,0,,5,,,77,127
6030,note_off,218,0,0,,5,,,77,127
6031,note_on,1,0,0,,11,,,58,127
6031,note_on,0,0,0,,3,,,75,127
6249,note_off,218,0,0,,3,,,75,127
6249,note_off,0,0,0,,11,,,58,127
6250,note_on,1,0,0,,5,,,53,127
6250,note_on,0,0,0,,2,,,74,127
6468,note_off,218,0,0,,2,,,74,127
6468,note_off,0,0,0,,5,,,53,127
6469,note_on,1,0,0,,5,,,65,127
6469,note_on,0,0,0,,0,,,72,127
6687,note_off,218,0,0,,0,,,72,127
6687,note_off,0,0,0,,5,,,65,127
6688,note_on,1,0,0,,2,,,62,127
6688,note_on,0,0,0,,0,,,72,127
6742,note_off,54,0,0,,0,,,72,127
6743,note_on,1,0,0,,11,,,70,127
6797,note_off,54,0,0,,11,,,70,127
6798,note_on,1,0,0,,0,,,72,127
6852,note_off,54,0,0,,0,,,72,127
6853,note_on,1,0,0,,11,,,70,127
6907,note_off,54,0,0,,11,,,70,127
6907,note_off,0,0,0,,2,,,62,127
6908,note_on,1,0,0,,0,,,60,127
6908,note_on,0,0,0,,10,,,69,127
7126,note_off,218,0,0,,10,,,69,127
7126,note_off,0,0,0,,0,,,60,127
7127,note_on,1,0,0,,11,,,58,127
7127,note_on,0,0,0,,11,,,70,127
7345,note_off,218,0,0,,11,,,70,127
7345,note_off,0,0,0,,11,,,58,127
7346,note_on,1,0,0,,10,,,57,127
7346,note_on,0,0,0,,4,,,64,127
7564,note_off,218,0,0,,4,,,64,127
7564,note_off,0,0,0,,10,,,57,127
7565,note_on,1,0,0,,7,,,55,127
7565,note_on,0,0,0,,5,,,65,127
7783,note_off,218,0,0,,5,,,65,127
7783,note_off,0,0,0,,7,,,55,127
7784,note_on,1,0,0,,5,,,53,127
7784,note_on,0,0,0,,7,,,67,127
8002,note_off,218,0,0,,7,,,67,127
8002,note_off,0,0,0,,5,,,53,127
8003,note_on,1,0,0,,7,,,55,127
8003,note_on,0,0,0,,5,,,65,127
8057,note_off,54,0,0,,5,,,65,127
8058,note_on,1,0,0,,3,,,63,127
8112,note_off,54,0,0,,3,,,63,127
8113,note_on,1,0,0,,5,,,65,127
8167,note_off,54,0,0,,5,,,65,127
8168,note_on,1,0,0,,3,,,63,127
8222,note_off,54,0,0,,3,,,63,127
8222,note_off,0,0,0,,7,,,55,127
8223,note_on,1,0,0,,5,,,53,127
8223,note_on,0,0,0,,2,,,62,127
8441,note_off,218,0,0,,2,,,62,127
8441,note_off,0,0,0,,5,,,53,127
8442,note_on,1,0,0,,3,,,51,127
8442,note_on,0,0,0,,0,,,60,127
8660,note_off,218,0,0,,0,,,60,127
8660,note_off,0,0,0,,3,,,51,127
8661,note_on,1,0,0,,2,,,50,127
8661,note_on,0,0,0,,2,,,62,127
8661,note_on,0,0,0,,11,,,70,127
8879,note_off,218,0,0,,11,,,70,127
8879,note_off,0,0,0,,2,,,62,127
8879,note_off,0,0,0,,2,,,50,127
8880,note_on,1,0,0,,0,,,48,127
8880,note_on,0,0,0,,3,,,63,127
8880,note_on,0,0,0,,0,,,72,127
9098,note_off,218,0,0,,0,,,72,127
9098,note_off,0,0,0,,3,,,63,127
9098,note_off,0,0,0,,0,,,48,127
9099,note_on,1,0,0,,11,,,46,127
9099,note_on,0,0,0,,2,,,74,127
9099,note_on,0,0,0,,5,,,65,127
9317,note_off,218,0,0,,5,,,65,127
9317,note_off,0,0,0,,2,,,74,127
9317,note_off,0,0,0,,11,,,46,127
9318,note_on,1,0,0,,3,,,51,127
9318,note_on,0,0,0,,0,,,72,127
9318,note_on,0,0,0,,3,,,63,127
9536,note_off,218,0,0,,3,,,63,127
9536,note_off,0,0,0,,0,,,72,127
9536,note_off,0,0,0,,3,,,51,127
9537,note_on,1,0,0,,5,,,53,127
9537,note_on,0,0,0,,11,,,70,127
9537,note_on,0,0,0,,2,,,62,127
9755,note_off,218,0,0,,2,,,62,127
9755,note_off,0,0,0,,11,,,70,127
9755,note_off,0,0,0,,5,,,53,127
9756,note_on,1,0,0,,5,,,41,127
9756,note_on,0,0,0,,0,,,60,127
9756,note_on,0,0,0,,10,,,69,127
9974,note_off,218,0,0,,5,,,41,127
9975,note_on,1,0,0,,11,,,34,127
10413,note_off,438,0,0,,10,,,69,127
10413,note_off,0,0,0,,0,,,60,127
10414,note_on,1,0,0,,11,,,70,127
10414,note_on,0,0,0,,2,,,62,127
10632,note_off,218,0,0,,2,,,62,127
10632,note_off,0,0,0,,11,,,70,127
10632,note_off,0,0,0,,11,,,34,127
10633,note_on,1,0,0,,2,,,62,127
10633,note_on,0,0,0,,0,,,72,127
10687,note_off,54,0,0,,0,,,72,127
10688,note_on,1,0,0,,11,,,70,127
10742,note_off,54,0,0,,11,,,70,127
10743,note_on,1,0,0,,0,,,72,127
10797,note_off,54,0,0,,0,,,72,127
10798,note_on,1,0,0,,11,,,70,127
10852,note_off,54,0,0,,11,,,70,127
10852,note_off,0,0,0,,2,,,62,127
10853,note_on,1,0,0,,0,,,60,127
10853,note_on,0,0,0,,0,,,72,127
11071,note_off,218,0,0,,0,,,72,127
11071,note_off,0,0,0,,0,,,60,127
11072,note_on,1,0,0,,11,,,58,127
11072,note_on,0,0,0,,2,,,74,127
11290,note_off,218,0,0,,2,,,74,127
11290,note_off,0,0,0,,11,,,58,127
11291,note_on,1,0,0,,5,,,53,127
11291,note_on,0,0,0,,11,,,70,127
11509,note_off,218,0,0,,11,,,70,127
11510,note_on,1,0,0,,12,,,71,127
11728,note_off,218,0,0,,12,,,71,127
11728,note_off,0,0,0,,5,,,53,127
11729,note_on,1,0,0,,5,,,65,127
11729,note_on,0,0,0,,0,,,72,127
11947,note_off,218,0,0,,0,,,72,127
11947,note_off,0,0,0,,5,,,65,127
11948,note_on,1,0,0,,10,,,57,127
11948,note_on,0,0,0,,2,,,74,127
12002,note_off,54,0,0,,2,,,74,127
12003,note_on,1,0,0,,0,,,72,127
12057,note_off,54,0,0,,0,,,72,127
12058,note_on,1,0,0,,2,,,74,127
12112,note_off,54,0,0,,2,,,74,127
12113,note_on,1,0,0,,0,,,72,127
12167,note_off,54,0,0,,0,,,72,127
12167,note_off,0,0,0,,10,,,57,127
12168,note_on,1,0,0,,7,,,55,127
12168,note_on,0,0,0,,2,,,74,127
12386,note_off,218,0,0,,2,,,74,127
12386,note_off,0,0,0,,7,,,55,127
12387,note_on,1,0,0,,5,,,53,127
12387,note_on,0,0,0,,3,,,75,127
12605,note_off,218,0,0,,3,,,75,127
12605,note_off,0,0,0,,5,,,53,127
12606,note_on,1,0,0,,11,,,58,127
12606,note_on,0,0,0,,0,,,72,127
12824,note_off,218,0,0,,0,,,72,127
12825,note_on,1,0,0,,1,,,73,127
13043,note_off,218,0,0,,1,,,73,127
13043,note_off,0,0,0,,11,,,58,127
13044,note_on,1,0,0,,5,,,65,127
13044,note_on,0,0,0,,2,,,74,127
13262,note_off,218,0,0,,2,,,74,127
13262,note_off,0,0,0,,5,,,65,127
13263,note_on,1,0,0,,2,,,62,127
13263,note_on,0,0,0,,11,,,58,127
13263,note_on,0,0,0,,4,,,76,127
13317,note_off,54,0,0,,4,,,76,127
13318,note_on,1,0,0,,2,,,74,127
13372,note_off,54,0,0,,2,,,74,127
13373,note_on,1,0,0,,4,,,76,127
13427,note_off,54,0,0,,4,,,76,127
13428,note_on,1,0,0,,2,,,74,127
13482,note_off,54,0,0,,2,,,74,127
13483,note_on,1,0,0,,4,,,76,127
13701,note_off,218,0,0,,4,,,76,127
13701,note_off,0,0,0,,11,,,58,127
13701,note_off,0,0,0,,2,,,62,127
13702,note_on,1,0,0,,10,,,57,127
13702,note_on,0,0,0,,0,,,60,127
13702,note_on,0,0,0,,5,,,77,127
13920,note_off,218,0,0,,5,,,77,127
13920,note_off,0,0,0,,0,,,60,127
13920,note_off,0,0,0,,10,,,57,127
13921,note_on,1,0,0,,11,,,58,127
13921,note_on,0,0,0,,7,,,55,127
13921,note_on,0,0,0,,7,,,79,127
13921,note_on,0,0,0,,5,,,77,127
14139,note_off,218,0,0,,5,,,77,127
14139,note_off,0,0,0,,7,,,79,127
14140,note_on,1,0,0,,4,,,76,127
14358,note_off,218,0,0,,4,,,76,127
14358,note_off,0,0,0,,7,,,55,127
14358,note_off,0,0,0,,11,,,58,127
14359,note_on,1,0,0,,10,,,57,127
14359,note_on,0,0,0,,5,,,53,127
14359,note_on,0,0,0,,2,,,74,127
14577,note_off,218,0,0,,2,,,74,127
14577,note_off,0,0,0,,5,,,53,127
14577,note_off,0,0,0,,10,,,57,127
14578,note_on,1,0,0,,7,,,55,127
14578,note_on,0,0,0,,4,,,52,127
14578,note_on,0,0,0,,4,,,76,127
14578,note_on,0,0,0,,2,,,74,127
14796,note_off,218,0,0,,2,,,74,127
14796,note_off,0,0,0,,4,,,76,127
14797,note_on,1,0,0,,0,,,72,127
15015,note_off,218,0,0,,0,,,72,127
15015,note_off,0,0,0,,4,,,52,127
15015,note_off,0,0,0,,7,,,55,127
15016,note_on,1,0,0,,5,,,53,127
15016,note_on,0,0,0,,2,,,50,127
15016,note_on,0,0,0,,12,,,71,127
15234,note_off,218,0,0,,12,,,71,127
15234,note_off,0,0,0,,2,,,50,127
15234,note_off,0,0,0,,5,,,53,127
15235,note_on,1,0,0,,0,,,48,127
15235,note_on,0,0,0,,7,,,55,127
15235,note_on,0,0,0,,0,,,72,127
15307,note_off,72,0,0,,0,,,72,127
15308,note_on,1,0,0,,12,,,71,127
15380,note_off,72,0,0,,12,,,71,127
15381,note_on,1,0,0,,0,,,72,127
15453,note_off,72,0,0,,0,,,72,127
15454,note_on,1,0,0,,12,,,71,127
15526,note_off,72,0,0,,12,,,71,127
15527,note_on,1,0,0,,10,,,69,127
15599,note_off,72,0,0,,10,,,69,127
15600,note_on,1,0,0,,12,,,71,127
15672,note_off,72,0,0,,12,,,71,127
15673,note_on,1,0,0,,0,,,72,127
15783,note_off,110,0,0,,7,,,55,127
15892,note_off,109,0,0,,0,,,72,127
15892,note_off,0,0,0,,0,,,48,127
15893,note_on,1,0,0,,4,,,64,127
15893,note_on,0,0,0,,0,,,60,127
15893,note_on,0,0,0,,0,,,72,127
15893,note_on,0,0,0,,7,,,67,127
15965,note_off,72,0,0,,7,,,67,127
15966,note_on,1,0,0,,5,,,65,127
16038,note_off,72,0,0,,5,,,65,127
16039,note_on,1,0,0,,7,,,67,127
16111,note_off,72,0,0,,7,,,67,127
16111,note_off,0,0,0,,4,,,64,127
16112,note_on,1,0,0,,5,,,65,127
16112,note_on,0,0,0,,10,,,69,127
16327,note_off,215,0,0,,0,,,72,127
16330,note_off,3,0,0,,10,,,69,127
16330,note_off,0,0,0,,5,,,65,127
16331,note_on,1,0,0,,7,,,67,127
16331,note_on,0,0,0,,11,,,70,127
16549,note_off,218,0,0,,11,,,70,127
16549,note_off,0,0,0,,7,,,67,127
16549,note_off,0,0,0,,0,,,60,127
16550,note_on,1,0,0,,10,,,69,127
16550,note_on,0,0,0,,0,,,60,127
16550,note_on,0,0,0,,0,,,72,127
16768,note_off,218,0,0,,10,,,69,127
16769,note_on,1,0,0,,5,,,65,127
16769,note_on,0,0,0,,0,,,84,127
16984,note_off,215,0,0,,0,,,72,127
16987,note_off,3,0,0,,0,,,84,127
16987,note_off,0,0,0,,5,,,65,127
16988,note_on,1,0,0,,10,,,69,127
16988,note_on,0,0,0,,0,,,72,127
17206,note_off,218,0,0,,0,,,72,127
17206,note_off,0,0,0,,10,,,69,127
17206,note_off,0,0,0,,0,,,60,127
17207,note_on,1,0,0,,0,,,60,127
17207,note_on,0,0,0,,7,,,67,127
17207,note_on,0,0,0,,11,,,70,127
17207,note_on,0,0,0,,0,,,72,127
17279,note_off,72,0,0,,0,,,72,127
17279,note_off,0,0,0,,11,,,70,127
17280,note_on,1,0,0,,10,,,69,127
17352,note_off,72,0,0,,10,,,69,127
17353,note_on,1,0,0,,11,,,70,127
17425,note_off,72,0,0,,11,,,70,127
17425,note_off,0,0,0,,7,,,67,127
17426,note_on,1,0,0,,4,,,64,127
17426,note_on,0,0,0,,0,,,72,127
17644,note_off,218,0,0,,0,,,72,127
17644,note_off,0,0,0,,4,,,64,127
17645,note_on,1,0,0,,5,,,65,127
17645,note_on,0,0,0,,10,,,69,127
17863,note_off,218,0,0,,10,,,69,127
17863,note_off,0,0,0,,5,,,65,127
17863,note_off,0,0,0,,0,,,60,127
17864,note_on,1,0,0,,0,,,36,127
17864,note_on,0,0,0,,7,,,67,127
18082,note_off,218,0,0,,7,,,67,127
18083,note_on,1,0,0,,0,,,84,127
18301,note_off,218,0,0,,0,,,84,127
18302,note_on,1,0,0,,0,,,72,127
18520,note_off,218,0,0,,0,,,72,127
18520,note_off,0,0,0,,0,,,36,127
18521,note_on,1,0,0,,0,,,60,127
18521,note_on,0,0,0,,4,,,64,127
18521,note_on,0,0,0,,7,,,67,127
18521,note_on,0,0,0,,0,,,72,127
18593,note_off,72,0,0,,0,,,72,127
18593,note_off,0,0,0,,7,,,67,127
18594,note_on,1,0,0,,5,,,65,127
18666,note_off,72,0,0,,5,,,65,127
18667,note_on,1,0,0,,7,,,67,127
18739,note_off,72,0,0,,7,,,67,127
18739,note_off,0,0,0,,4,,,64,127
18740,note_on,1,0,0,,5,,,65,127
18740,note_on,0,0,0,,10,,,69,127
18958,note_off,218,0,0,,10,,,69,127
18958,note_off,0,0,0,,5,,,65,127
18959,note_on,1,0,0,,7,,,67,127
18959,note_on,0,0,0,,11,,,70,127
19177,note_off,218,0,0,,11,,,70,127
19177,note_off,0,0,0,,7,,,67,127
19177,note_off,0,0,0,,0,,,60,127
19178,note_on,1,0,0,,10,,,69,127
19178,note_on,0,0,0,,0,,,60,127
19178,note_on,0,0,0,,0,,,72,127
19396,note_off,218,0,0,,0,,,72,127
19396,note_off,0,0,0,,10,,,69,127
19397,note_on,1,0,0,,5,,,65,127
19397,note_on,0,0,0,,0,,,84,127
19615,note_off,218,0,0,,0,,,84,127
19615,note_off,0,0,0,,5,,,65,127
19616,note_on,1,0,0,,10,,,69,127
19616,note_on,0,0,0,,0,,,72,127
19834,note_off,218,0,0,,0,,,72,127
19834,note_off,0,0,0,,10,,,69,127
19834,note_off,0,0,0,,0,,,60,127
19835,note_on,1,0,0,,7,,,67,127
19835,note_on,0,0,0,,0,,,60,127
19835,note_on,0,0,0,,0,,,72,127
19835,note_on,0,0,0,,11,,,70,127
19907,note_off,72,0,0,,11,,,70,127
19907,note_off,0,0,0,,0,,,72,127
19908,note_on,1,0,0,,10,,,69,127
19980,note_off,72,0,0,,10,,,69,127
19981,note_on,1,0,0,,11,,,70,127
20053,note_off,72,0,0,,11,,,70,127
20053,note_off,0,0,0,,7,,,67,127
20054,note_on,1,0,0,,4,,,64,127
20054,note_on,0,0,0,,0,,,72,127
20272,note_off,218,0,0,,0,,,72,127
20272,note_off,0,0,0,,4,,,64,127
20273,note_on,1,0,0,,5,,,65,127
20273,note_on,0,0,0,,10,,,69,127
20491,note_off,218,0,0,,10,,,69,127
20491,note_off,0,0,0,,5,,,65,127
20491,note_off,0,0,0,,0,,,60,127
20492,note_on,1,0,0,,0,,,36,127
20492,note_on,0,0,0,,7,,,67,127
20710,note_off,218,0,0,,7,,,67,127
20711,note_on,1,0,0,,0,,,84,127
20929,note_off,218,0,0,,0,,,84,127
20930,note_on,1,0,0,,0,,,72,127
21148,note_off,218,0,0,,0,,,72,127
21148,note_off,0,0,0,,0,,,36,127
21149,note_on,1,0,0,,0,,,60,127
21149,note_on,0,0,0,,0,,,72,127
21149,note_on,0,0,0,,7,,,67,127
21221,note_off,72,0,0,,7,,,67,127
21221,note_off,0,0,0,,0,,,72,127
21222,note_on,1,0,0,,5,,,65,127
21294,note_off,72,0,0,,5,,,65,127
21295,note_on,1,0,0,,7,,,67,127
21367,note_off,72,0,0,,7,,,67,127
21368,note_on,1,0,0,,10,,,69,127
21586,note_off,218,0,0,,10,,,69,127
21586,note_off,0,0,0,,0,,,60,127
21587,note_on,1,0,0,,11,,,58,127
21587,note_on,0,0,0,,11,,,70,127
21805,note_off,218,0,0,,11,,,70,127
21805,note_off,0,0,0,,11,,,58,127
21806,note_on,1,0,0,,10,,,57,127
21806,note_on,0,0,0,,2,,,74,127
21806,note_on,0,0,0,,0,,,72,127
21806,note_on,0,0,0,,10,,,69,127
22024,note_off,218,0,0,,10,,,69,127
22024,note_off,0,0,0,,0,,,72,127
22024,note_off,0,0,0,,2,,,74,127
22025,note_on,1,0,0,,7,,,67,127
22025,note_on,0,0,0,,11,,,70,127
22243,note_off,218,0,0,,11,,,70,127
22243,note_off,0,0,0,,7,,,67,127
22243,note_off,0,0,0,,10,,,57,127
22244,note_on,1,0,0,,2,,,62,127
22244,note_on,0,0,0,,10,,,69,127
22244,note_on,0,0,0,,5,,,65,127
22462,note_off,218,0,0,,5,,,65,127
22462,note_off,0,0,0,,10,,,69,127
22462,note_off,0,0,0,,2,,,62,127
22463,note_on,1,0,0,,11,,,58,127
22463,note_on,0,0,0,,11,,,70,127
22463,note_on,0,0,0,,7,,,67,127
22463,note_on,0,0,0,,0,,,72,127
22681,note_off,218,0,0,,0,,,72,127
22681,note_off,0,0,0,,7,,,67,127
22681,note_off,0,0,0,,11,,,70,127
22681,note_off,0,0,0,,11,,,58,127
22682,note_on,1,0,0,,0,,,60,127
22682,note_on,0,0,0,,5,,,65,127
22682,note_on,0,0,0,,10,,,69,127
22900,note_off,218,0,0,,10,,,69,127
22900,note_off,0,0,0,,5,,,65,127
22900,note_off,0,0,0,,0,,,60,127
22901,note_on,1,0,0,,0,,,48,127
22901,note_on,0,0,0,,7,,,67,127
22901,note_on,0,0,0,,4,,,64,127
23119,note_off,218,0,0,,4,,,64,127
23119,note_off,0,0,0,,7,,,67,127
23119,note_off,0,0,0,,0,,,48,127
23120,note_on,1,0,0,,5,,,41,127
23120,note_on,0,0,0,,7,,,67,127
23192,note_off,72,0,0,,7,,,67,127
23193,note_on,1,0,0,,5,,,65,127
23265,note_off,72,0,0,,5,,,65,127
23266,note_on,1,0,0,,7,,,67,127
23338,note_off,72,0,0,,7,,,67,127
23339,note_on,1,0,0,,5,,,65,127
23411,note_off,72,0,0,,5,,,65,127
23412,note_on,1,0,0,,7,,,67,127
23484,note_off,72,0,0,,7,,,67,127
23485,note_on,1,0,0,,5,,,65,127
23557,note_off,72,0,0,,5,,,65,127
23558,note_on,1,0,0,,7,,,67,127
23622,note_off,64,0,0,,5,,,41,127
23630,note_off,8,0,0,,7,,,67,127
23631,note_on,1,0,0,,5,,,65,127
23769,note_off,138,0,0,,5,,,65,127
23777,note_on,8,0,0,,0,,,60,127
23777,note_on,0,0,0,,4,,,64,127
23777,note_on,0,0,0,,0,,,72,127
23777,note_on,0,0,0,,7,,,67,127
23777,note_on,0,0,0,,10,,,69,127
23849,note_off,72,0,0,,10,,,69,127
23849,note_off,0,0,0,,7,,,67,127
23850,note_on,1,0,0,,5,,,65,127
23922,note_off,72,0,0,,5,,,65,127
23923,note_on,1,0,0,,7,,,67,127
23995,note_off,72,0,0,,7,,,67,127
23995,note_off,0,0,0,,4,,,64,127
23995,note_off,0,0,0,,0,,,60,127
23996,note_on,1,0,0,,5,,,65,127
23996,note_on,0,0,0,,10,,,69,127
24211,note_off,215,0,0,,0,,,72,127
24214,note_off,3,0,0,,10,,,69,127
24214,note_off,0,0,0,,5,,,65,127
24215,note_on,1,0,0,,7,,,67,127
24215,note_on,0,0,0,,11,,,70,127
24433,note_off,218,0,0,,11,,,70,127
24433,note_off,0,0,0,,7,,,67,127
24434,note_on,1,0,0,,10,,,69,127
24434,note_on,0,0,0,,0,,,60,127
24434,note_on,0,0,0,,0,,,72,127
24652,note_off,218,0,0,,0,,,60,127
24652,note_off,0,0,0,,10,,,69,127
24653,note_on,1,0,0,,5,,,65,127
24653,note_on,0,0,0,,0,,,84,127
24868,note_off,215,0,0,,0,,,72,127
24871,note_off,3,0,0,,0,,,84,127
24871,note_off,0,0,0,,5,,,65,127
24872,note_on,1,0,0,,10,,,69,127
24872,note_on,0,0,0,,0,,,72,127
25090,note_off,218,0,0,,0,,,72,127
25090,note_off,0,0,0,,10,,,69,127
25091,note_on,1,0,0,,0,,,60,127
25091,note_on,0,0,0,,7,,,67,127
25091,note_on,0,0,0,,0,,,72,127
25091,note_on,0,0,0,,11,,,70,127
25163,note_off,72,0,0,,11,,,70,127
25163,note_off,0,0,0,,0,,,72,127
25164,note_on,1,0,0,,10,,,69,127
25236,note_off,72,0,0,,10,,,69,127
25237,note_on,1,0,0,,11,,,70,127
25309,note_off,72,0,0,,11,,,70,127
25309,note_off,0,0,0,,7,,,67,127
25309,note_off,0,0,0,,0,,,60,127
25310,note_on,1,0,0,,4,,,64,127
25310,note_on,0,0,0,,0,,,72,127
25528,note_off,218,0,0,,0,,,72,127
25528,note_off,0,0,0,,4,,,64,127
25529,note_on,1,0,0,,5,,,65,127
25529,note_on,0,0,0,,10,,,69,127
25747,note_off,218,0,0,,10,,,69,127
25747,note_off,0,0,0,,5,,,65,127
25748,note_on,1,0,0,,0,,,36,127
25748,note_on,0,0,0,,7,,,67,127
25966,note_off,218,0,0,,7,,,67,127
25967,note_on,1,0,0,,0,,,84,127
26186,note_on,219,0,0,,0,,,72,127
26296,note_off,110,0,0,,0,,,36,127
26401,note_off,105,0,0,,0,,,84,127
26404,note_off,3,0,0,,0,,,72,127
26405,note_on,1,0,0,,0,,,60,127
26405,note_on,0,0,0,,4,,,64,127
26405,note_on,0,0,0,,10,,,69,127
26405,note_on,0,0,0,,0,,,72,127
26459,note_off,54,0,0,,10,,,69,127
26460,note_on,1,0,0,,7,,,67,127
26514,note_off,54,0,0,,7,,,67,127
26514,note_off,0,0,0,,0,,,72,127
26515,note_on,1,0,0,,10,,,69,127
26569,note_off,54,0,0,,10,,,69,127
26570,note_on,1,0,0,,7,,,67,127
26624,note_off,54,0,0,,7,,,67,127
26624,note_off,0,0,0,,4,,,64,127
26625,note_on,1,0,0,,5,,,65,127
26625,note_on,0,0,0,,10,,,69,127
26840,note_off,215,0,0,,0,,,60,127
26843,note_off,3,0,0,,10,,,69,127
26843,note_off,0,0,0,,5,,,65,127
26844,note_on,1,0,0,,7,,,67,127
26844,note_on,0,0,0,,11,,,70,127
27062,note_off,218,0,0,,11,,,70,127
27062,note_off,0,0,0,,7,,,67,127
27063,note_on,1,0,0,,0,,,60,127
27063,note_on,0,0,0,,10,,,69,127
27063,note_on,0,0,0,,0,,,72,127
27281,note_off,218,0,0,,0,,,72,127
27281,note_off,0,0,0,,10,,,69,127
27282,note_on,1,0,0,,5,,,65,127
27282,note_on,0,0,0,,0,,,84,127
27497,note_off,215,0,0,,0,,,60,127
27500,note_off,3,0,0,,0,,,84,127
27500,note_off,0,0,0,,5,,,65,127
27501,note_on,1,0,0,,10,,,69,127
27501,note_on,0,0,0,,0,,,72,127
27719,note_off,218,0,0,,0,,,72,127
27719,note_off,0,0,0,,10,,,69,127
27720,note_on,1,0,0,,0,,,60,127
27720,note_on,0,0,0,,7,,,67,127
27720,note_on,0,0,0,,11,,,70,127
27720,note_on,0,0,0,,0,,,72,127
27792,note_off,72,0,0,,0,,,72,127
27792,note_off,0,0,0,,11,,,70,127
27793,note_on,1,0,0,,10,,,69,127
27865,note_off,72,0,0,,10,,,69,127
27866,note_on,1,0,0,,11,,,70,127
27938,note_off,72,0,0,,11,,,70,127
27938,note_off,0,0,0,,7,,,67,127
27939,note_on,1,0,0,,4,,,64,127
27939,note_on,0,0,0,,0,,,72,127
28154,note_off,215,0,0,,0,,,60,127
28157,note_off,3,0,0,,0,,,72,127
28157,note_off,0,0,0,,4,,,64,127
28158,note_on,1,0,0,,5,,,65,127
28158,note_on,0,0,0,,10,,,69,127
28376,note_off,218,0,0,,10,,,69,127
28376,note_off,0,0,0,,5,,,65,127
28377,note_on,1,0,0,,0,,,36,127
28377,note_on,0,0,0,,7,,,67,127
28595,note_off,218,0,0,,7,,,67,127
28596,note_on,1,0,0,,0,,,84,127
28814,note_off,218,0,0,,0,,,84,127
28815,note_on,1,0,0,,0,,,72,127
28925,note_off,110,0,0,,0,,,36,127
29034,note_off,109,0,0,,0,,,72,127
29035,note_on,1,0,0,,0,,,60,127
29035,note_on,0,0,0,,10,,,69,127
29035,note_on,0,0,0,,0,,,72,127
29035,note_on,0,0,0,,7,,,67,127
29107,note_off,72,0,0,,7,,,67,127
29107,note_off,0,0,0,,0,,,72,127
29107,note_off,0,0,0,,10,,,69,127
29108,note_on,1,0,0,,5,,,65,127
29180,note_off,72,0,0,,5,,,65,127
29181,note_on,1,0,0,,7,,,67,127
29253,note_off,72,0,0,,7,,,67,127
29254,note_on,1,0,0,,10,,,69,127
29472,note_off,218,0,0,,10,,,69,127
29472,note_off,0,0,0,,0,,,60,127
29473,note_on,1,0,0,,11,,,58,127
29473,note_on,0,0,0,,11,,,70,127
29691,note_off,218,0,0,,11,,,70,127
29691,note_off,0,0,0,,11,,,58,127
29692,note_on,1,0,0,,10,,,57,127
29692,note_on,0,0,0,,0,,,72,127
29692,note_on,0,0,0,,10,,,69,127
29692,note_on,0,0,0,,2,,,74,127
29910,note_off,218,0,0,,2,,,74,127
29910,note_off,0,0,0,,10,,,69,127
29910,note_off,0,0,0,,0,,,72,127
29911,note_on,1,0,0,,7,,,67,127
29911,note_on,0,0,0,,11,,,70,127
30129,note_off,218,0,0,,11,,,70,127
30129,note_off,0,0,0,,7,,,67,127
30129,note_off,0,0,0,,10,,,57,127
30130,note_on,1,0,0,,2,,,62,127
30130,note_on,0,0,0,,5,,,65,127
30130,note_on,0,0,0,,10,,,69,127
30348,note_off,218,0,0,,10,,,69,127
30348,note_off,0,0,0,,5,,,65,127
30348,note_off,0,0,0,,2,,,62,127
30349,note_on,1,0,0,,11,,,58,127
30349,note_on,0,0,0,,11,,,70,127
30349,note_on,0,0,0,,7,,,67,127
30349,note_on,0,0,0,,0,,,72,127
30567,note_off,218,0,0,,0,,,72,127
30567,note_off,0,0,0,,7,,,67,127
30567,note_off,0,0,0,,11,,,70,127
30567,note_off,0,0,0,,11,,,58,127
30568,note_on,1,0,0,,0,,,60,127
30568,note_on,0,0,0,,10,,,69,127
30568,note_on,0,0,0,,5,,,65,127
30786,note_off,218,0,0,,5,,,65,127
30786,note_off,0,0,0,,10,,,69,127
30786,note_off,0,0,0,,0,,,60,127
30787,note_on,1,0,0,,0,,,48,127
30787,note_on,0,0,0,,7,,,67,127
30787,note_on,0,0,0,,4,,,64,127
31005,note_off,218,0,0,,4,,,64,127
31005,note_off,0,0,0,,7,,,67,127
31005,note_off,0,0,0,,0,,,48,127
31006,note_on,1,0,0,,5,,,41,127
31006,note_on,0,0,0,,5,,,65,127
31189,note_off,183,0,0,,5,,,65,127
31224,note_off,35,0,0,,5,,,41,127
31225,note_on,1,0,0,,10,,,45,127
31225,note_on,0,0,0,,5,,,77,127
31225,note_on,0,0,0,,3,,,75,127
31443,note_off,218,0,0,,3,,,75,127
31443,note_off,0,0,0,,10,,,45,127
31444,note_on,1,0,0,,11,,,46,127
31444,note_on,0,0,0,,2,,,74,127
31659,note_off,215,0,0,,5,,,77,127
31662,note_off,3,0,0,,2,,,74,127
31662,note_off,0,0,0,,11,,,46,127
31663,note_on,1,0,0,,10,,,45,127
31663,note_on,0,0,0,,5,,,65,127
31869,note_off,206,0,0,,5,,,65,127
31883,note_on,14,0,0,,5,,,77,127
31883,note_on,0,0,0,,3,,,75,127
32101,note_off,218,0,0,,3,,,75,127
32101,note_off,0,0,0,,10,,,45,127
32102,note_on,1,0,0,,11,,,46,127
32102,note_on,0,0,0,,2,,,74,127
32317,note_off,215,0,0,,5,,,77,127
32320,note_off,3,0,0,,2,,,74,127
32320,note_off,0,0,0,,11,,,46,127
32321,note_on,1,0,0,,0,,,36,127
32321,note_on,0,0,0,,0,,,48,127
32321,note_on,0,0,0,,11,,,70,127
32321,note_on,0,0,0,,7,,,79,127
32539,note_off,218,0,0,,7,,,79,127
32540,note_on,1,0,0,,4,,,76,127
32755,note_off,215,0,0,,11,,,70,127
32758,note_off,3,0,0,,4,,,76,127
32758,note_off,0,0,0,,0,,,48,127
32758,note_off,0,0,0,,0,,,36,127
32759,note_on,1,0,0,,5,,,53,127
32759,note_on,0,0,0,,5,,,41,127
32759,note_on,0,0,0,,5,,,77,127
32759,note_on,0,0,0,,10,,,69,127
32977,note_off,218,0,0,,10,,,69,127
32977,note_off,0,0,0,,5,,,77,127
32977,note_off,0,0,0,,5,,,41,127
32977,note_off,0,0,0,,5,,,53,127
32978,note_on,1,0,0,,11,,,46,127
32978,note_on,0,0,0,,7,,,79,127
33050,note_off,72,0,0,,7,,,79,127
33051,note_on,1,0,0,,10,,,81,127
33123,note_off,72,0,0,,10,,,81,127
33124,note_on,1,0,0,,11,,,82,127
33196,note_off,72,0,0,,11,,,82,127
33196,note_off,0,0,0,,11,,,46,127
33197,note_on,1,0,0,,0,,,48,127
33197,note_on,0,0,0,,10,,,81,127
33197,note_on,0,0,0,,0,,,72,127
33415,note_off,218,0,0,,0,,,72,127
33415,note_off,0,0,0,,10,,,81,127
33415,note_off,0,0,0,,0,,,48,127
33416,note_on,1,0,0,,0,,,36,127
33416,note_on,0,0,0,,7,,,79,127
33416,note_on,0,0,0,,11,,,70,127
33634,note_off,218,0,0,,11,,,70,127
33634,note_off,0,0,0,,7,,,79,127
33634,note_off,0,0,0,,0,,,36,127
33635,note_on,1,0,0,,5,,,41,127
33635,note_on,0,0,0,,5,,,65,127
33806,note_off,171,0,0,,5,,,65,127
33853,note_off,47,0,0,,5,,,41,127
33854,note_on,1,0,0,,10,,,45,127
33854,note_on,0,0,0,,5,,,77,127
33854,note_on,0,0,0,,3,,,75,127
34072,note_off,218,0,0,,3,,,75,127
34072,note_off,0,0,0,,10,,,45,127
34073,note_on,1,0,0,,11,,,46,127
34073,note_on,0,0,0,,2,,,74,127
34242,note_off,169,0,0,,5,,,77,127
34291,note_off,49,0,0,,2,,,74,127
34291,note_off,0,0,0,,11,,,46,127
34292,note_on,1,0,0,,10,,,45,127
34292,note_on,0,0,0,,5,,,65,127
34475,note_off,183,0,0,,5,,,65,127
34512,note_on,37,0,0,,5,,,77,127
34512,note_on,0,0,0,,3,,,75,127
34730,note_off,218,0,0,,3,,,75,127
34730,note_off,0,0,0,,10,,,45,127
34731,note_on,1,0,0,,11,,,46,127
34731,note_on,0,0,0,,2,,,74,127
34900,note_off,169,0,0,,5,,,77,127
34949,note_off,49,0,0,,2,,,74,127
34949,note_off,0,0,0,,11,,,46,127
34950,note_on,1,0,0,,0,,,36,127
34950,note_on,0,0,0,,0,,,48,127
34950,note_on,0,0,0,,11,,,70,127
34950,note_on,0,0,0,,7,,,79,127
35168,note_off,218,0,0,,7,,,79,127
35169,note_on,1,0,0,,4,,,76,127
35384,note_off,215,0,0,,11,,,70,127
35387,note_off,3,0,0,,4,,,76,127
35387,note_off,0,0,0,,0,,,48,127
35387,note_off,0,0,0,,0,,,36,127
35388,note_on,1,0,0,,5,,,41,127
35388,note_on,0,0,0,,5,,,53,127
35388,note_on,0,0,0,,5,,,77,127
35388,note_on,0,0,0,,10,,,69,127
35606,note_off,218,0,0,,10,,,69,127
35606,note_off,0,0,0,,5,,,77,127
35606,note_off,0,0,0,,5,,,53,127
35606,note_off,0,0,0,,5,,,41,127
35607,note_on,1,0,0,,11,,,46,127
35607,note_on,0,0,0,,0,,,72,127
35607,note_on,0,0,0,,11,,,70,127
35679,note_off,72,0,0,,11,,,70,127
35679,note_off,0,0,0,,0,,,72,127
35680,note_on,1,0,0,,10,,,69,127
35752,note_off,72,0,0,,10,,,69,127
35753,note_on,1,0,0,,7,,,67,127
35825,note_off,72,0,0,,7,,,67,127
35825,note_off,0,0,0,,11,,,46,127
35826,note_on,1,0,0,,0,,,48,127
35826,note_on,0,0,0,,10,,,69,127
35826,note_on,0,0,0,,5,,,65,127
36044,note_off,218,0,0,,5,,,65,127
36044,note_off,0,0,0,,10,,,69,127
36044,note_off,0,0,0,,0,,,48,127
36045,note_on,1,0,0,,0,,,36,127
36045,note_on,0,0,0,,4,,,64,127
36045,note_on,0,0,0,,7,,,67,127
36263,note_off,218,0,0,,7,,,67,127
36263,note_off,0,0,0,,4,,,64,127
36263,note_off,0,0,0,,0,,,36,127
36264,note_on,1,0,0,,5,,,41,127
36264,note_on,0,0,0,,7,,,67,127
36299,note_off,35,0,0,,7,,,67,127
36300,note_on,1,0,0,,5,,,65,127
36335,note_off,35,0,0,,5,,,65,127
36336,note_on,1,0,0,,7,,,67,127
36371,note_off,35,0,0,,7,,,67,127
36372,note_on,1,0,0,,5,,,65,127
36806,note_off,434,0,0,,5,,,65,127
36919,note_off,113,0,0,,5,,,41,127
36920,note_on,1,0,0,,5,,,53,127
36920,note_on,0,0,0,,5,,,65,127
36992,note_off,72,0,0,,5,,,65,127
36992,note_off,0,0,0,,5,,,53,127
36993,note_on,1,0,0,,3,,,51,127
36993,note_on,0,0,0,,3,,,63,127
37065,note_off,72,0,0,,3,,,63,127
37065,note_off,0,0,0,,3,,,51,127
37066,note_on,1,0,0,,5,,,53,127
37066,note_on,0,0,0,,5,,,65,127
37138,note_off,72,0,0,,5,,,65,127
37138,note_off,0,0,0,,5,,,53,127
37139,note_on,1,0,0,,3,,,51,127
37139,note_on,0,0,0,,3,,,63,127
37211,note_off,72,0,0,,3,,,63,127
37211,note_off,0,0,0,,3,,,51,127
37212,note_on,1,0,0,,5,,,53,127
37212,note_on,0,0,0,,5,,,65,127
37284,note_off,72,0,0,,5,,,65,127
37284,note_off,0,0,0,,5,,,53,127
37285,note_on,1,0,0,,3,,,51,127
37285,note_on,0,0,0,,3,,,63,127
37357,note_off,72,0,0,,3,,,63,127
37357,note_off,0,0,0,,3,,,51,127
37358,note_on,1,0,0,,5,,,53,127
37358,note_on,0,0,0,,5,,,65,127
37467,note_off,109,0,0,,5,,,65,127
37467,note_off,0,0,0,,5,,,53,127
37468,note_on,1,0,0,,3,,,51,127
37468,note_on,0,0,0,,3,,,63,127
37577,note_off,109,0,0,,3,,,63,127
37577,note_off,0,0,0,,3,,,51,127
37578,note_on,1,0,0,,2,,,50,127
37578,note_on,0,0,0,,2,,,62,127
37687,note_off,109,0,0,,2,,,62,127
37688,note_on,1,0,0,,6,,,66,127
37797,note_off,109,0,0,,6,,,66,127
37798,note_on,1,0,0,,10,,,69,127
37907,note_off,109,0,0,,10,,,69,127
37908,note_on,1,0,0,,0,,,72,127
38017,note_off,109,0,0,,0,,,72,127
38018,note_on,1,0,0,,3,,,75,127
38127,note_off,109,0,0,,3,,,75,127
38128,note_on,1,0,0,,2,,,74,127
38197,note_off,69,0,0,,2,,,50,127
38237,note_off,40,0,0,,2,,,74,127
38238,note_on,1,0,0,,6,,,54,127
38238,note_on,0,0,0,,0,,,72,127
38456,note_off,218,0,0,,0,,,72,127
38456,note_off,0,0,0,,6,,,54,127
38457,note_on,1,0,0,,7,,,55,127
38457,note_on,0,0,0,,0,,,72,127
38529,note_off,72,0,0,,0,,,72,127
38530,note_on,1,0,0,,11,,,70,127
38602,note_off,72,0,0,,11,,,70,127
38603,note_on,1,0,0,,0,,,72,127
38675,note_off,72,0,0,,0,,,72,127
38675,note_off,0,0,0,,7,,,55,127
38676,note_on,1,0,0,,7,,,43,127
38676,note_on,0,0,0,,11,,,70,127
38748,note_off,72,0,0,,11,,,70,127
38749,note_on,1,0,0,,10,,,69,127
38821,note_off,72,0,0,,10,,,69,127
38822,note_on,1,0,0,,11,,,70,127
38894,note_off,72,0,0,,11,,,70,127
38894,note_off,0,0,0,,7,,,43,127
38895,note_on,1,0,0,,2,,,38,127
38895,note_on,0,0,0,,11,,,70,127
39113,note_off,218,0,0,,2,,,38,127
39114,note_on,1,0,0,,2,,,50,127
39332,note_off,218,0,0,,11,,,70,127
39333,note_on,1,0,0,,10,,,69,127
39502,note_off,169,0,0,,2,,,50,127
39551,note_off,49,0,0,,10,,,69,127
39552,note_on,1,0,0,,7,,,55,127
39552,note_on,0,0,0,,7,,,67,127
39624,note_off,72,0,0,,7,,,67,127
39624,note_off,0,0,0,,7,,,55,127
39625,note_on,1,0,0,,5,,,53,127
39625,note_on,0,0,0,,5,,,65,127
39697,note_off,72,0,0,,5,,,65,127
39697,note_off,0,0,0,,5,,,53,127
39698,note_on,1,0,0,,7,,,55,127
39698,note_on,0,0,0,,7,,,67,127
39770,note_off,72,0,0,,7,,,67,127
39770,note_off,0,0,0,,7,,,55,127
39771,note_on,1,0,0,,5,,,53,127
39771,note_on,0,0,0,,5,,,65,127
39843,note_off,72,0,0,,5,,,65,127
39843,note_off,0,0,0,,5,,,53,127
39844,note_on,1,0,0,,7,,,55,127
39844,note_on,0,0,0,,7,,,67,127
39916,note_off,72,0,0,,7,,,67,127
39916,note_off,0,0,0,,7,,,55,127
39917,note_on,1,0,0,,5,,,53,127
39917,note_on,0,0,0,,5,,,65,127
39989,note_off,72,0,0,,5,,,65,127
39989,note_off,0,0,0,,5,,,53,127
39990,note_on,1,0,0,,7,,,55,127
39990,note_on,0,0,0,,7,,,67,127
40099,note_off,109,0,0,,7,,,67,127
40099,note_off,0,0,0,,7,,,55,127
40100,note_on,1,0,0,,5,,,53,127
40100,note_on,0,0,0,,5,,,65,127
40209,note_off,109,0,0,,5,,,65,127
40209,note_off,0,0,0,,5,,,53,127
40210,note_on,1,0,0,,4,,,52,127
40210,note_on,0,0,0,,4,,,64,127
40319,note_off,109,0,0,,4,,,64,127
40320,note_on,1,0,0,,8,,,68,127
40429,note_off,109,0,0,,8,,,68,127
40430,note_on,1,0,0,,12,,,71,127
40539,note_off,109,0,0,,12,,,71,127
40540,note_on,1,0,0,,2,,,74,127
40649,note_off,109,0,0,,2,,,74,127
40650,note_on,1,0,0,,5,,,77,127
40759,note_off,109,0,0,,5,,,77,127
40760,note_on,1,0,0,,4,,,76,127
40829,note_off,69,0,0,,4,,,52,127
40869,note_off,40,0,0,,4,,,76,127
40870,note_on,1,0,0,,8,,,56,127
40870,note_on,0,0,0,,2,,,74,127
41088,note_off,218,0,0,,2,,,74,127
41088,note_off,0,0,0,,8,,,56,127
41089,note_on,1,0,0,,10,,,57,127
41089,note_on,0,0,0,,2,,,74,127
41161,note_off,72,0,0,,2,,,74,127
41162,note_on,1,0,0,,0,,,72,127
41234,note_off,72,0,0,,0,,,72,127
41235,note_on,1,0,0,,2,,,74,127
41307,note_off,72,0,0,,2,,,74,127
41307,note_off,0,0,0,,10,,,57,127
41308,note_on,1,0,0,,10,,,45,127
41308,note_on,0,0,0,,0,,,72,127
41380,note_off,72,0,0,,0,,,72,127
41381,note_on,1,0,0,,12,,,71,127
41453,note_off,72,0,0,,12,,,71,127
41454,note_on,1,0,0,,0,,,72,127
41526,note_off,72,0,0,,0,,,72,127
41526,note_off,0,0,0,,10,,,45,127
41527,note_on,1,0,0,,4,,,40,127
41527,note_on,0,0,0,,0,,,72,127
41745,note_off,218,0,0,,4,,,40,127
41746,note_on,1,0,0,,4,,,52,127
41964,note_off,218,0,0,,0,,,72,127
41965,note_on,1,0,0,,12,,,71,127
42183,note_off,218,0,0,,12,,,71,127
42183,note_off,0,0,0,,4,,,52,127
42184,note_on,1,0,0,,4,,,52,127
42184,note_on,0,0,0,,4,,,64,127
42184,note_on,0,0,0,,12,,,71,127
42293,note_off,109,0,0,,12,,,71,127
42294,note_on,1,0,0,,10,,,69,127
42403,note_off,109,0,0,,10,,,69,127
42404,note_on,1,0,0,,8,,,68,127
42513,note_off,109,0,0,,8,,,68,127
42514,note_on,1,0,0,,10,,,69,127
42623,note_off,109,0,0,,10,,,69,127
42623,note_off,0,0,0,,4,,,64,127
42623,note_off,0,0,0,,4,,,52,127
42624,note_on,1,0,0,,4,,,64,127
42624,note_on,0,0,0,,4,,,52,127
42624,note_on,0,0,0,,12,,,71,127
42733,note_off,109,0,0,,12,,,71,127
42734,note_on,1,0,0,,0,,,72,127
42843,note_off,109,0,0,,0,,,72,127
42843,note_off,0,0,0,,4,,,52,127
42843,note_off,0,0,0,,4,,,64,127
42844,note_on,1,0,0,,2,,,50,127
42844,note_on,0,0,0,,2,,,62,127
42844,note_on,0,0,0,,2,,,74,127
42916,note_off,72,0,0,,2,,,74,127
42917,note_on,1,0,0,,4,,,76,127
42989,note_off,72,0,0,,4,,,76,127
42990,note_on,1,0,0,,5,,,77,127
43062,note_off,72,0,0,,5,,,77,127
43063,note_on,1,0,0,,4,,,76,127
43172,note_off,109,0,0,,4,,,76,127
43173,note_on,1,0,0,,2,,,74,127
43282,note_off,109,0,0,,2,,,74,127
43282,note_off,0,0,0,,2,,,62,127
43282,note_off,0,0,0,,2,,,50,127
43283,note_on,1,0,0,,4,,,52,127
43283,note_on,0,0,0,,4,,,64,127
43283,note_on,0,0,0,,0,,,72,127
43392,note_off,109,0,0,,0,,,72,127
43393,note_on,1,0,0,,12,,,71,127
43502,note_off,109,0,0,,12,,,71,127
43502,note_off,0,0,0,,4,,,64,127
43502,note_off,0,0,0,,4,,,52,127
43503,note_on,1,0,0,,10,,,45,127
43503,note_on,0,0,0,,10,,,57,127
43503,note_on,0,0,0,,10,,,69,127
43612,note_off,109,0,0,,10,,,69,127
43613,note_on,1,0,0,,12,,,71,127
43722,note_off,109,0,0,,12,,,71,127
43723,note_on,1,0,0,,1,,,73,127
43832,note_off,109,0,0,,1,,,73,127
43833,note_on,1,0,0,,2,,,74,127
43942,note_off,109,0,0,,2,,,74,127
43942,note_off,0,0,0,,10,,,57,127
43942,note_off,0,0,0,,10,,,45,127
43943,note_on,1,0,0,,10,,,45,127
43943,note_on,0,0,0,,10,,,57,127
43943,note_on,0,0,0,,4,,,76,127
44052,note_off,109,0,0,,4,,,76,127
44053,note_on,1,0,0,,5,,,77,127
44162,note_off,109,0,0,,5,,,77,127
44162,note_off,0,0,0,,10,,,57,127
44162,note_off,0,0,0,,10,,,45,127
44163,note_on,1,0,0,,7,,,43,127
44163,note_on,0,0,0,,7,,,55,127
44163,note_on,0,0,0,,7,,,79,127
44235,note_off,72,0,0,,7,,,79,127
44236,note_on,1,0,0,,10,,,81,127
44308,note_off,72,0,0,,10,,,81,127
44309,note_on,1,0,0,,11,,,82,127
44381,note_off,72,0,0,,11,,,82,127
44382,note_on,1,0,0,,10,,,81,127
44491,note_off,109,0,0,,10,,,81,127
44492,note_on,1,0,0,,7,,,79,127
44601,note_off,109,0,0,,7,,,79,127
44601,note_off,0,0,0,,7,,,55,127
44601,note_off,0,0,0,,7,,,43,127
44602,note_on,1,0,0,,10,,,45,127
44602,note_on,0,0,0,,10,,,57,127
44602,note_on,0,0,0,,5,,,77,127
44711,note_off,109,0,0,,5,,,77,127
44712,note_on,1,0,0,,4,,,76,127
44821,note_off,109,0,0,,4,,,76,127
44821,note_off,0,0,0,,10,,,57,127
44821,note_off,0,0,0,,10,,,45,127
44822,note_on,1,0,0,,2,,,38,127
44822,note_on,0,0,0,,2,,,50,127
44822,note_on,0,0,0,,7,,,79,127
44876,note_off,54,0,0,,7,,,79,127
44877,note_on,1,0,0,,5,,,77,127
44931,note_off,54,0,0,,5,,,77,127
44932,note_on,1,0,0,,7,,,79,127
44986,note_off,54,0,0,,7,,,79,127
44987,note_on,1,0,0,,5,,,77,127
45041,note_off,54,0,0,,5,,,77,127
45042,note_on,1,0,0,,4,,,76,127
45260,note_off,218,0,0,,4,,,76,127
45261,note_on,1,0,0,,2,,,74,127
45439,note_off,178,0,0,,2,,,38,127
45479,note_off,40,0,0,,2,,,74,127
45479,note_off,0,0,0,,2,,,50,127
45480,note_on,1,0,0,,2,,,62,127
45480,note_on,0,0,0,,6,,,66,127
45480,note_on,0,0,0,,2,,,74,127
45480,note_on,0,0,0,,10,,,69,127
45552,note_off,72,0,0,,10,,,69,127
45552,note_off,0,0,0,,2,,,74,127
45553,note_on,1,0,0,,7,,,67,127
45625,note_off,72,0,0,,7,,,67,127
45626,note_on,1,0,0,,10,,,69,127
45698,note_off,72,0,0,,10,,,69,127
45698,note_off,0,0,0,,6,,,66,127
45699,note_on,1,0,0,,7,,,67,127
45699,note_on,0,0,0,,11,,,70,127
45917,note_off,218,0,0,,11,,,70,127
45917,note_off,0,0,0,,7,,,67,127
45918,note_on,1,0,0,,10,,,69,127
45918,note_on,0,0,0,,0,,,72,127
46136,note_off,218,0,0,,0,,,72,127
46136,note_off,0,0,0,,10,,,69,127
46136,note_off,0,0,0,,2,,,62,127
46137,note_on,1,0,0,,2,,,62,127
46137,note_on,0,0,0,,11,,,70,127
46137,note_on,0,0,0,,2,,,74,127
46355,note_off,218,0,0,,2,,,74,127
46355,note_off,0,0,0,,11,,,70,127
46356,note_on,1,0,0,,7,,,67,127
46356,note_on,0,0,0,,2,,,86,127
46574,note_off,218,0,0,,7,,,67,127
46575,note_on,1,0,0,,11,,,70,127
46575,note_on,0,0,0,,2,,,74,127
46790,note_off,215,0,0,,2,,,86,127
46793,note_off,3,0,0,,2,,,74,127
46793,note_off,0,0,0,,11,,,70,127
46793,note_off,0,0,0,,2,,,62,127
46794,note_on,1,0,0,,10,,,69,127
46794,note_on,0,0,0,,2,,,62,127
46794,note_on,0,0,0,,2,,,74,127
46794,note_on,0,0,0,,0,,,72,127
46866,note_off,72,0,0,,0,,,72,127
46866,note_off,0,0,0,,2,,,74,127
46867,note_on,1,0,0,,11,,,70,127
46939,note_off,72,0,0,,11,,,70,127
46940,note_on,1,0,0,,0,,,72,127
47012,note_off,72,0,0,,0,,,72,127
47012,note_off,0,0,0,,10,,,69,127
47013,note_on,1,0,0,,6,,,66,127
47013,note_on,0,0,0,,2,,,74,127
47231,note_off,218,0,0,,2,,,74,127
47231,note_off,0,0,0,,6,,,66,127
47232,note_on,1,0,0,,7,,,67,127
47232,note_on,0,0,0,,11,,,70,127
47450,note_off,218,0,0,,11,,,70,127
47450,note_off,0,0,0,,7,,,67,127
47450,note_off,0,0,0,,2,,,62,127
47451,note_on,1,0,0,,2,,,38,127
47451,note_on,0,0,0,,10,,,69,127
47669,note_off,218,0,0,,10,,,69,127
47670,note_on,1,0,0,,2,,,86,127
47889,note_on,219,0,0,,2,,,74,127
47999,note_off,110,0,0,,2,,,38,127
48104,note_off,105,0,0,,2,,,86,127
48107,note_off,3,0,0,,2,,,74,127
48108,note_on,1,0,0,,6,,,66,127
48108,note_on,0,0,0,,2,,,62,127
48108,note_on,0,0,0,,2,,,74,127
48108,note_on,0,0,0,,10,,,69,127
48180,note_off,72,0,0,,10,,,69,127
48181,note_on,1,0,0,,7,,,67,127
48253,note_off,72,0,0,,7,,,67,127
48254,note_on,1,0,0,,10,,,69,127
48326,note_off,72,0,0,,10,,,69,127
48326,note_off,0,0,0,,6,,,66,127
48327,note_on,1,0,0,,7,,,67,127
48327,note_on,0,0,0,,11,,,70,127
48542,note_off,215,0,0,,2,,,74,127
48542,note_off,0,0,0,,2,,,62,127
48545,note_off,3,0,0,,11,,,70,127
48545,note_off,0,0,0,,7,,,67,127
48546,note_on,1,0,0,,10,,,69,127
48546,note_on,0,0,0,,0,,,72,127
48764,note_off,218,0,0,,0,,,72,127
48764,note_off,0,0,0,,10,,,69,127
48765,note_on,1,0,0,,2,,,62,127
48765,note_on,0,0,0,,11,,,70,127
48765,note_on,0,0,0,,2,,,74,127
48983,note_off,218,0,0,,11,,,70,127
48984,note_on,1,0,0,,7,,,67,127
48984,note_on,0,0,0,,2,,,86,127
49199,note_off,215,0,0,,2,,,74,127
49199,note_off,0,0,0,,2,,,62,127
49202,note_off,3,0,0,,2,,,86,127
49202,note_off,0,0,0,,7,,,67,127
49203,note_on,1,0,0,,11,,,70,127
49203,note_on,0,0,0,,2,,,74,127
49421,note_off,218,0,0,,2,,,74,127
49421,note_off,0,0,0,,11,,,70,127
49422,note_on,1,0,0,,2,,,62,127
49422,note_on,0,0,0,,8,,,68,127
49422,note_on,0,0,0,,2,,,74,127
49476,note_off,54,0,0,,2,,,74,127
49477,note_on,1,0,0,,0,,,72,127
49531,note_off,54,0,0,,0,,,72,127
49532,note_on,1,0,0,,12,,,71,127
49586,note_off,54,0,0,,12,,,71,127
49587,note_on,1,0,0,,0,,,72,127
49641,note_off,54,0,0,,0,,,72,127
49641,note_off,0,0,0,,8,,,68,127
49642,note_on,1,0,0,,7,,,67,127
49642,note_on,0,0,0,,2,,,74,127
49857,note_off,215,0,0,,2,,,62,127
49860,note_off,3,0,0,,2,,,74,127
49860,note_off,0,0,0,,7,,,67,127
49861,note_on,1,0,0,,5,,,65,127
49861,note_on,0,0,0,,12,,,71,127
50079,note_off,218,0,0,,12,,,71,127
50079,note_off,0,0,0,,5,,,65,127
50080,note_on,1,0,0,,3,,,63,127
50080,note_on,0,0,0,,0,,,72,127
50298,note_off,218,0,0,,3,,,63,127
50299,note_on,1,0,0,,2,,,62,127
50299,note_on,0,0,0,,0,,,84,127
50514,note_off,215,0,0,,0,,,72,127
50517,note_off,3,0,0,,0,,,84,127
50517,note_off,0,0,0,,2,,,62,127
50518,note_on,1,0,0,,0,,,60,127
50518,note_on,0,0,0,,0,,,72,127
50736,note_off,218,0,0,,0,,,72,127
50736,note_off,0,0,0,,0,,,60,127
50737,note_on,1,0,0,,7,,,67,127
50737,note_on,0,0,0,,0,,,72,127
50791,note_off,54,0,0,,0,,,72,127
50792,note_on,1,0,0,,11,,,70,127
50846,note_off,54,0,0,,11,,,70,127
50847,note_on,1,0,0,,10,,,69,127
50901,note_off,54,0,0,,10,,,69,127
50902,note_on,1,0,0,,11,,,70,127
50956,note_off,54,0,0,,11,,,70,127
50956,note_off,0,0,0,,7,,,67,127
50957,note_on,1,0,0,,5,,,65,127
50957,note_on,0,0,0,,0,,,72,127
51175,note_off,218,0,0,,0,,,72,127
51175,note_off,0,0,0,,5,,,65,127
51176,note_on,1,0,0,,3,,,63,127
51176,note_on,0,0,0,,10,,,69,127
51394,note_off,218,0,0,,10,,,69,127
51394,note_off,0,0,0,,3,,,63,127
51395,note_on,1,0,0,,2,,,62,127
51395,note_on,0,0,0,,11,,,70,127
51613,note_off,218,0,0,,2,,,62,127
51614,note_on,1,0,0,,0,,,60,127
51614,note_on,0,0,0,,11,,,82,127
51829,note_off,215,0,0,,11,,,70,127
51832,note_off,3,0,0,,11,,,82,127
51832,note_off,0,0,0,,0,,,60,127
51833,note_on,1,0,0,,11,,,58,127
51833,note_on,0,0,0,,11,,,70,127
52051,note_off,218,0,0,,11,,,70,127
52051,note_off,0,0,0,,11,,,58,127
52052,note_on,1,0,0,,3,,,63,127
52052,note_on,0,0,0,,7,,,67,127
52052,note_on,0,0,0,,10,,,69,127
52124,note_off,72,0,0,,10,,,69,127
52124,note_off,0,0,0,,7,,,67,127
52125,note_on,1,0,0,,6,,,66,127
52197,note_off,72,0,0,,6,,,66,127
52198,note_on,1,0,0,,7,,,67,127
52270,note_off,72,0,0,,7,,,67,127
52271,note_on,1,0,0,,10,,,69,127
52489,note_off,218,0,0,,10,,,69,127
52489,note_off,0,0,0,,3,,,63,127
52490,note_on,1,0,0,,2,,,62,127
52490,note_on,0,0,0,,11,,,70,127
52708,note_off,218,0,0,,11,,,70,127
52708,note_off,0,0,0,,2,,,62,127
52709,note_on,1,0,0,,3,,,63,127
52709,note_on,0,0,0,,0,,,72,127
52709,note_on,0,0,0,,11,,,70,127
52927,note_off,218,0,0,,11,,,70,127
52927,note_off,0,0,0,,0,,,72,127
52928,note_on,1,0,0,,10,,,69,127
53146,note_off,218,0,0,,10,,,69,127
53146,note_off,0,0,0,,3,,,63,127
53147,note_on,1,0,0,,5,,,65,127
53147,note_on,0,0,0,,2,,,62,127
53147,note_on,0,0,0,,11,,,70,127
53365,note_off,218,0,0,,11,,,70,127
53365,note_off,0,0,0,,2,,,62,127
53365,note_off,0,0,0,,5,,,65,127
53366,note_on,1,0,0,,0,,,60,127
53366,note_on,0,0,0,,3,,,63,127
53366,note_on,0,0,0,,2,,,74,127
53412,note_off,46,0,0,,2,,,74,127
53412,note_on,0,0,0,,0,,,72,127
53457,note_off,45,0,0,,0,,,72,127
53458,note_on,1,0,0,,11,,,70,127
53504,note_off,46,0,0,,11,,,70,127
53504,note_on,0,0,0,,0,,,72,127
53549,note_off,45,0,0,,0,,,72,127
53550,note_on,1,0,0,,2,,,74,127
53585,note_off,35,0,0,,2,,,74,127
53585,note_off,0,0,0,,3,,,63,127
53585,note_off,0,0,0,,0,,,60,127
53586,note_on,1,0,0,,10,,,57,127
53586,note_on,0,0,0,,3,,,75,127
53804,note_off,218,0,0,,3,,,75,127
53804,note_off,0,0,0,,10,,,57,127
53805,note_on,1,0,0,,11,,,58,127
53805,note_on,0,0,0,,2,,,74,127
54023,note_off,218,0,0,,2,,,74,127
54023,note_off,0,0,0,,11,,,58,127
54024,note_on,1,0,0,,5,,,53,127
54024,note_on,0,0,0,,2,,,74,127
54242,note_off,218,0,0,,2,,,74,127
54243,note_on,1,0,0,,0,,,72,127
54460,note_off,217,0,0,,0,,,72,127
54461,note_off,1,0,0,,5,,,53,127
54462,note_on,1,0,0,,0,,,60,127
54680,note_off,218,0,0,,0,,,60,127
54681,note_on,1,0,0,,2,,,62,127
54899,note_off,218,0,0,,2,,,62,127
54900,note_on,1,0,0,,3,,,63,127
55118,note_off,218,0,0,,3,,,63,127
55119,note_on,1,0,0,,4,,,64,127
55119,note_on,0,0,0,,11,,,70,127
55337,note_off,218,0,0,,11,,,70,127
55337,note_off,0,0,0,,4,,,64,127
55338,note_on,1,0,0,,5,,,65,127
55338,note_on,0,0,0,,10,,,69,127
55410,note_off,72,0,0,,10,,,69,127
55411,note_on,1,0,0,,11,,,70,127
55483,note_off,72,0,0,,11,,,70,127
55484,note_on,1,0,0,,0,,,72,127
55556,note_off,72,0,0,,0,,,72,127
55556,note_off,0,0,0,,5,,,65,127
55557,note_on,1,0,0,,5,,,53,127
55557,note_on,0,0,0,,0,,,72,127
55774,note_off,217,0,0,,0,,,72,127
55775,note_off,1,0,0,,5,,,53,127
55776,note_on,1,0,0,,0,,,60,127
55994,note_off,218,0,0,,0,,,60,127
55995,note_on,1,0,0,,5,,,53,127
55995,note_on,0,0,0,,2,,,62,127
56213,note_off,218,0,0,,2,,,62,127
56214,note_on,1,0,0,,3,,,63,127
56432,note_off,218,0,0,,3,,,63,127
56433,note_on,1,0,0,,4,,,64,127
56433,note_on,0,0,0,,11,,,70,127
56651,note_off,218,0,0,,11,,,70,127
56651,note_off,0,0,0,,4,,,64,127
56652,note_on,1,0,0,,5,,,65,127
56652,note_on,0,0,0,,10,,,69,127
56724,note_off,72,0,0,,10,,,69,127
56725,note_on,1,0,0,,11,,,70,127
56797,note_off,72,0,0,,11,,,70,127
56798,note_on,1,0,0,,0,,,72,127
56870,note_off,72,0,0,,0,,,72,127
56870,note_off,0,0,0,,5,,,53,127
56871,note_on,1,0,0,,5,,,53,127
56871,note_on,0,0,0,,0,,,72,127
57086,note_off,215,0,0,,5,,,65,127
57089,note_off,3,0,0,,5,,,53,127
57090,note_on,1,0,0,,3,,,51,127
57308,note_off,218,0,0,,3,,,51,127
57308,note_off,0,0,0,,0,,,72,127
57309,note_on,1,0,0,,2,,,50,127
57309,note_on,0,0,0,,7,,,67,127
57363,note_off,54,0,0,,7,,,67,127
57364,note_on,1,0,0,,5,,,65,127
57418,note_off,54,0,0,,5,,,65,127
57419,note_on,1,0,0,,7,,,67,127
57473,note_off,54,0,0,,7,,,67,127
57474,note_on,1,0,0,,5,,,65,127
57528,note_off,54,0,0,,5,,,65,127
57528,note_off,0,0,0,,2,,,50,127
57529,note_on,1,0,0,,0,,,48,127
57529,note_on,0,0,0,,7,,,67,127
57747,note_off,218,0,0,,7,,,67,127
57747,note_off,0,0,0,,0,,,48,127
57748,note_on,1,0,0,,11,,,46,127
57748,note_on,0,0,0,,8,,,68,127
57966,note_off,218,0,0,,8,,,68,127
57966,note_off,0,0,0,,11,,,46,127
57967,note_on,1,0,0,,3,,,39,127
57967,note_on,0,0,0,,5,,,65,127
58185,note_off,218,0,0,,5,,,65,127
58186,note_on,1,0,0,,6,,,66,127
58404,note_off,218,0,0,,6,,,66,127
58404,note_off,0,0,0,,3,,,39,127
58405,note_on,1,0,0,,3,,,51,127
58405,note_on,0,0,0,,7,,,67,127
58623,note_off,218,0,0,,7,,,67,127
58623,note_off,0,0,0,,3,,,51,127
58624,note_on,1,0,0,,3,,,51,127
58624,note_on,0,0,0,,10,,,69,127
58678,note_off,54,0,0,,10,,,69,127
58679,note_on,1,0,0,,7,,,67,127
58733,note_off,54,0,0,,7,,,67,127
58734,note_on,1,0,0,,10,,,69,127
58788,note_off,54,0,0,,10,,,69,127
58789,note_on,1,0,0,,7,,,67,127
58843,note_off,54,0,0,,7,,,67,127
58843,note_off,0,0,0,,3,,,51,127
58844,note_on,1,0,0,,2,,,50,127
58844,note_on,0,0,0,,10,,,69,127
59062,note_off,218,0,0,,10,,,69,127
59062,note_off,0,0,0,,2,,,50,127
59063,note_on,1,0,0,,0,,,48,127
59063,note_on,0,0,0,,11,,,70,127
59281,note_off,218,0,0,,11,,,70,127
59281,note_off,0,0,0,,0,,,48,127
59282,note_on,1,0,0,,5,,,41,127
59282,note_on,0,0,0,,7,,,67,127
59500,note_off,218,0,0,,7,,,67,127
59501,note_on,1,0,0,,8,,,68,127
59719,note_off,218,0,0,,8,,,68,127
59719,note_off,0,0,0,,5,,,41,127
59720,note_on,1,0,0,,5,,,53,127
59720,note_on,0,0,0,,10,,,69,127
59938,note_off,218,0,0,,10,,,69,127
59938,note_off,0,0,0,,5,,,53,127
59939,note_on,1,0,0,,2,,,50,127
59939,note_on,0,0,0,,0,,,72,127
59993,note_off,54,0,0,,0,,,72,127
59994,note_on,1,0,0,,11,,,70,127
60049,note_on,55,0,0,,0,,,72,127
60054,note_off,5,0,0,,11,,,70,127
60103,note_off,49,0,0,,0,,,72,127
60104,note_on,1,0,0,,11,,,70,127
60158,note_off,54,0,0,,2,,,50,127
60159,note_on,1,0,0,,0,,,48,127
60159,note_on,0,0,0,,0,,,72,127
60164,note_off,5,0,0,,11,,,70,127
60378,note_off,214,0,0,,0,,,72,127
60378,note_off,0,0,0,,0,,,48,127
60379,note_on,1,0,0,,11,,,46,127
60379,note_on,0,0,0,,2,,,74,127
60597,note_off,218,0,0,,2,,,74,127
60597,note_off,0,0,0,,11,,,46,127
60598,note_on,1,0,0,,10,,,45,127
60598,note_on,0,0,0,,5,,,65,127
60598,note_on,0,0,0,,5,,,77,127
60598,note_on,0,0,0,,3,,,75,127
61036,note_off,438,0,0,,3,,,75,127
61036,note_off,0,0,0,,5,,,77,127
61036,note_off,0,0,0,,5,,,65,127
61036,note_off,0,0,0,,10,,,45,127
61037,note_on,1,0,0,,11,,,46,127
61037,note_on,0,0,0,,2,,,74,127
61037,note_on,0,0,0,,11,,,70,127
61243,note_off,206,0,0,,11,,,70,127
61243,note_off,0,0,0,,2,,,74,127
61256,note_off,13,0,0,,11,,,46,127
61257,note_on,1,0,0,,3,,,51,127
61257,note_on,0,0,0,,0,,,72,127
61257,note_on,0,0,0,,2,,,74,127
61475,note_off,218,0,0,,2,,,74,127
61475,note_off,0,0,0,,0,,,72,127
61475,note_off,0,0,0,,3,,,51,127
61476,note_on,1,0,0,,5,,,53,127
61476,note_on,0,0,0,,11,,,70,127
61694,note_off,218,0,0,,11,,,70,127
61694,note_off,0,0,0,,5,,,53,127
61695,note_on,1,0,0,,5,,,41,127
61695,note_on,0,0,0,,10,,,69,127
61913,note_off,218,0,0,,10,,,69,127
61913,note_off,0,0,0,,5,,,41,127
61914,note_on,1,0,0,,11,,,46,127
61914,note_on,0,0,0,,11,,,70,127
61986,note_off,72,0,0,,11,,,70,127
61987,note_on,1,0,0,,10,,,69,127
62059,note_off,72,0,0,,10,,,69,127
62060,note_on,1,0,0,,11,,,70,127
62132,note_off,72,0,0,,11,,,70,127
62132,note_off,0,0,0,,11,,,46,127
62133,note_on,1,0,0,,5,,,53,127
62133,note_on,0,0,0,,10,,,69,127
62205,note_off,72,0,0,,10,,,69,127
62206,note_on,1,0,0,,7,,,67,127
62278,note_off,72,0,0,,7,,,67,127
62279,note_on,1,0,0,,10,,,69,127
62351,note_off,72,0,0,,10,,,69,127
62351,note_off,0,0,0,,5,,,53,127
62352,note_on,1,0,0,,3,,,51,127
62352,note_on,0,0,0,,11,,,70,127
62570,note_off,218,0,0,,11,,,70,127
62570,note_off,0,0,0,,3,,,51,127
62571,note_on,1,0,0,,2,,,50,127
62571,note_on,0,0,0,,7,,,67,127
62625,note_off,54,0,0,,7,,,67,127
62626,note_on,1,0,0,,5,,,65,127
62680,note_off,54,0,0,,5,,,65,127
62681,note_on,1,0,0,,7,,,67,127
62735,note_off,54,0,0,,7,,,67,127
62736,note_on,1,0,0,,5,,,65,127
62790,note_off,54,0,0,,5,,,65,127
62790,note_off,0,0,0,,2,,,50,127
62791,note_on,1,0,0,,0,,,48,127
62791,note_on,0,0,0,,7,,,67,127
63009,note_off,218,0,0,,7,,,67,127
63009,note_off,0,0,0,,0,,,48,127
63010,note_on,1,0,0,,11,,,46,127
63010,note_on,0,0,0,,8,,,68,127
63228,note_off,218,0,0,,8,,,68,127
63228,note_off,0,0,0,,11,,,46,127
63229,note_on,1,0,0,,3,,,39,127
63229,note_on,0,0,0,,5,,,65,127
63447,note_off,218,0,0,,5,,,65,127
63448,note_on,1,0,0,,6,,,66,127
63666,note_off,218,0,0,,6,,,66,127
63666,note_off,0,0,0,,3,,,39,127
63667,note_on,1,0,0,,3,,,51,127
63667,note_on,0,0,0,,7,,,67,127
63885,note_off,218,0,0,,7,,,67,127
63885,note_off,0,0,0,,3,,,51,127
63886,note_on,1,0,0,,3,,,51,127
63886,note_on,0,0,0,,10,,,69,127
63940,note_off,54,0,0,,10,,,69,127
63941,note_on,1,0,0,,7,,,67,127
63995,note_off,54,0,0,,7,,,67,127
63996,note_on,1,0,0,,10,,,69,127
64050,note_off,54,0,0,,10,,,69,127
64051,note_on,1,0,0,,7,,,67,127
64105,note_off,54,0,0,,7,,,67,127
64105,note_off,0,0,0,,3,,,51,127
64106,note_on,1,0,0,,2,,,50,127
64106,note_on,0,0,0,,10,,,69,127
64324,note_off,218,0,0,,10,,,69,127
64324,note_off,0,0,0,,2,,,50,127
64325,note_on,1,0,0,,0,,,48,127
64325,note_on,0,0,0,,11,,,70,127
64543,note_off,218,0,0,,11,,,70,127
64543,note_off,0,0,0,,0,,,48,127
64544,note_on,1,0,0,,5,,,41,127
64544,note_on,0,0,0,,7,,,67,127
64762,note_off,218,0,0,,7,,,67,127
64763,note_on,1,0,0,,8,,,68,127
64981,note_off,218,0,0,,8,,,68,127
64981,note_off,0,0,0,,5,,,41,127
64982,note_on,1,0,0,,5,,,53,127
64982,note_on,0,0,0,,10,,,69,127
65200,note_off,218,0,0,,10,,,69,127
65200,note_off,0,0,0,,5,,,53,127
65201,note_on,1,0,0,,2,,,50,127
65201,note_on,0,0,0,,0,,,72,127
65255,note_off,54,0,0,,0,,,72,127
65256,note_on,1,0,0,,11,,,70,127
65310,note_off,54,0,0,,11,,,70,127
65311,note_on,1,0,0,,0,,,72,127
65365,note_off,54,0,0,,0,,,72,127
65366,note_on,1,0,0,,11,,,70,127
65420,note_off,54,0,0,,11,,,70,127
65420,note_off,0,0,0,,2,,,50,127
65421,note_on,1,0,0,,0,,,48,127
65421,note_on,0,0,0,,0,,,72,127
65639,note_off,218,0,0,,0,,,72,127
65639,note_off,0,0,0,,0,,,48,127
65640,note_on,1,0,0,,11,,,46,127
65640,note_on,0,0,0,,2,,,74,127
65858,note_off,218,0,0,,2,,,74,127
65858,note_off,0,0,0,,11,,,46,127
65859,note_on,1,0,0,,10,,,45,127
65859,note_on,0,0,0,,5,,,65,127
65859,note_on,0,0,0,,5,,,77,127
66077,note_off,218,0,0,,5,,,77,127
66078,note_on,1,0,0,,3,,,75,127
66293,note_off,215,0,0,,5,,,65,127
66296,note_off,3,0,0,,3,,,75,127
66296,note_off,0,0,0,,10,,,45,127
66297,note_on,1,0,0,,11,,,46,127
66297,note_on,0,0,0,,2,,,74,127
66297,note_on,0,0,0,,11,,,70,127
66515,note_off,218,0,0,,11,,,70,127
66515,note_off,0,0,0,,2,,,74,127
66515,note_off,0,0,0,,11,,,46,127
66516,note_on,1,0,0,,3,,,51,127
66516,note_on,0,0,0,,0,,,72,127
66516,note_on,0,0,0,,2,,,74,127
66734,note_off,218,0,0,,2,,,74,127
66734,note_off,0,0,0,,0,,,72,127
66734,note_off,0,0,0,,3,,,51,127
66735,note_on,1,0,0,,5,,,53,127
66735,note_on,0,0,0,,11,,,70,127
66953,note_off,218,0,0,,11,,,70,127
66953,note_off,0,0,0,,5,,,53,127
66954,note_on,1,0,0,,5,,,41,127
66954,note_on,0,0,0,,10,,,69,127
67172,note_off,218,0,0,,10,,,69,127
67172,note_off,0,0,0,,5,,,41,127
67173,note_on,1,0,0,,11,,,46,127
67173,note_on,0,0,0,,11,,,70,127
67391,note_off,218,0,0,,11,,,70,127
67391,note_off,0,0,0,,11,,,46,127
67392,note_on,1,0,0,,2,,,62,127
67392,note_on,0,0,0,,8,,,80,127
67392,note_on,0,0,0,,11,,,82,127
67610,note_off,218,0,0,,11,,,82,127
67610,note_off,0,0,0,,8,,,80,127
67610,note_off,0,0,0,,2,,,62,127
67611,note_on,1,0,0,,3,,,63,127
67611,note_on,0,0,0,,7,,,79,127
67829,note_off,218,0,0,,7,,,79,127
67829,note_off,0,0,0,,3,,,63,127
67830,note_on,1,0,0,,2,,,62,127
67830,note_on,0,0,0,,11,,,70,127
68048,note_off,218,0,0,,11,,,70,127
68049,note_on,1,0,0,,8,,,80,127
68049,note_on,0,0,0,,11,,,82,127
68267,note_off,218,0,0,,11,,,82,127
68267,note_off,0,0,0,,8,,,80,127
68267,note_off,0,0,0,,2,,,62,127
68268,note_on,1,0,0,,3,,,63,127
68268,note_on,0,0,0,,7,,,79,127
68486,note_off,218,0,0,,7,,,79,127
68486,note_off,0,0,0,,3,,,63,127
68487,note_on,1,0,0,,5,,,53,127
68487,note_on,0,0,0,,5,,,65,127
68487,note_on,0,0,0,,0,,,84,127
68487,note_on,0,0,0,,3,,,75,127
68705,note_off,218,0,0,,3,,,75,127
68705,note_off,0,0,0,,0,,,84,127
68706,note_on,1,0,0,,10,,,81,127
68924,note_off,218,0,0,,10,,,81,127
68924,note_off,0,0,0,,5,,,65,127
68924,note_off,0,0,0,,5,,,53,127
68925,note_on,1,0,0,,11,,,46,127
68925,note_on,0,0,0,,11,,,58,127
68925,note_on,0,0,0,,11,,,82,127
68925,note_on,0,0,0,,2,,,74,127
69143,note_off,218,0,0,,2,,,74,127
69143,note_off,0,0,0,,11,,,82,127
69143,note_off,0,0,0,,11,,,58,127
69143,note_off,0,0,0,,11,,,46,127
69144,note_on,1,0,0,,3,,,51,127
69144,note_on,0,0,0,,5,,,77,127
69144,note_on,0,0,0,,3,,,75,127
69216,note_off,72,0,0,,3,,,75,127
69216,note_off,0,0,0,,5,,,77,127
69217,note_on,1,0,0,,2,,,74,127
69289,note_off,72,0,0,,2,,,74,127
69290,note_on,1,0,0,,0,,,72,127
69362,note_off,72,0,0,,0,,,72,127
69362,note_off,0,0,0,,3,,,51,127
69363,note_on,1,0,0,,5,,,53,127
69363,note_on,0,0,0,,11,,,70,127
69363,note_on,0,0,0,,2,,,74,127
69581,note_off,218,0,0,,2,,,74,127
69581,note_off,0,0,0,,11,,,70,127
69581,note_off,0,0,0,,5,,,53,127
69582,note_on,1,0,0,,5,,,41,127
69582,note_on,0,0,0,,0,,,72,127
69582,note_on,0,0,0,,10,,,69,127
69800,note_off,218,0,0,,10,,,69,127
69800,note_off,0,0,0,,0,,,72,127
69800,note_off,0,0,0,,5,,,41,127
69801,note_on,1,0,0,,11,,,46,127
69801,note_on,0,0,0,,11,,,58,127
69995,note_off,194,0,0,,11,,,58,127
70019,note_off,24,0,0,,11,,,46,127
70020,note_on,1,0,0,,2,,,50,127
70020,note_on,0,0,0,,11,,,70,127
70020,note_on,0,0,0,,8,,,68,127
70238,note_off,218,0,0,,8,,,68,127
70238,note_off,0,0,0,,2,,,50,127
70239,note_on,1,0,0,,3,,,51,127
70239,note_on,0,0,0,,7,,,67,127
70454,note_off,215,0,0,,11,,,70,127
70457,note_off,3,0,0,,7,,,67,127
70457,note_off,0,0,0,,3,,,51,127
70458,note_on,1,0,0,,2,,,50,127
70458,note_on,0,0,0,,11,,,58,127
70652,note_off,194,0,0,,11,,,58,127
70677,note_on,25,0,0,,11,,,70,127
70677,note_on,0,0,0,,8,,,68,127
70895,note_off,218,0,0,,8,,,68,127
70895,note_off,0,0,0,,2,,,50,127
70896,note_on,1,0,0,,3,,,51,127
70896,note_on,0,0,0,,7,,,67,127
71111,note_off,215,0,0,,11,,,70,127
71114,note_off,3,0,0,,7,,,67,127
71114,note_off,0,0,0,,3,,,51,127
71115,note_on,1,0,0,,5,,,41,127
71115,note_on,0,0,0,,5,,,53,127
71115,note_on,0,0,0,,3,,,63,127
71115,note_on,0,0,0,,0,,,72,127
71333,note_off,218,0,0,,0,,,72,127
71334,note_on,1,0,0,,10,,,69,127
71549,note_off,215,0,0,,3,,,63,127
71552,note_off,3,0,0,,10,,,69,127
71552,note_off,0,0,0,,5,,,53,127
71552,note_off,0,0,0,,5,,,41,127
71553,note_on,1,0,0,,11,,,46,127
71553,note_on,0,0,0,,11,,,70,127
71553,note_on,0,0,0,,2,,,62,127
71771,note_off,218,0,0,,2,,,62,127
71771,note_off,0,0,0,,11,,,70,127
71771,note_off,0,0,0,,11,,,46,127
71779,note_on,8,0,0,,5,,,65,127
71779,note_on,0,0,0,,3,,,63,127
71779,note_on,0,0,0,,3,,,51,127
71856,note_off,77,0,0,,3,,,63,127
71856,note_off,0,0,0,,5,,,65,127
71858,note_on,2,0,0,,2,,,62,127
71935,note_off,77,0,0,,2,,,62,127
71936,note_on,1,0,0,,0,,,60,127
72013,note_off,77,0,0,,0,,,60,127
72013,note_off,0,0,0,,3,,,51,127
72015,note_on,2,0,0,,11,,,58,127
72015,note_on,0,0,0,,5,,,53,127
72248,note_off,233,0,0,,5,,,53,127
72248,note_off,0,0,0,,11,,,58,127
72249,note_on,1,0,0,,10,,,57,127
72249,note_on,0,0,0,,5,,,41,127
72482,note_off,233,0,0,,5,,,41,127
72482,note_off,0,0,0,,10,,,57,127
72484,note_on,2,0,0,,10,,,57,127
72484,note_on,0,0,0,,11,,,46,127
73188,note_off,704,0,0,,10,,,57,127
73188,note_on,0,0,0,,11,,,58,127
74831,note_off,1643,0,0,,11,,,58,127
74831,note_off,0,0,0,,11,,,46,127
78336,end_of_track,3505,1,0,,,,,,
