tick,type,time,meta,track,program,channel,pitch,tempo,note,velocity
0,copyright,0,1,0,,,,,,
0,program_change,0,0,0,6,0,,,,
0,pitchwheel,0,0,0,,0,0,,,
0,program_change,0,0,0,6,1,,,,
0,pitchwheel,0,0,0,,1,-590,,,
0,program_change,0,0,0,6,2,,,,
0,pitchwheel,0,0,0,,2,-272,,,
0,program_change,0,0,0,6,3,,,,
0,pitchwheel,0,0,0,,3,-353,,,
0,program_change,0,0,0,6,4,,,,
0,pitchwheel,0,0,0,,4,-560,,,
0,program_change,0,0,0,6,5,,,,
0,pitchwheel,0,0,0,,5,-80,,,
0,program_change,0,0,0,6,6,,,,
0,pitchwheel,0,0,0,,6,-625,,,
0,program_change,0,0,0,6,7,,,,
0,pitchwheel,0,0,0,,7,-130,,,
0,program_change,0,0,0,6,8,,,,
0,pitchwheel,0,0,0,,8,-512,,,
0,program_change,0,0,0,6,10,,,,
0,pitchwheel,0,0,0,,10,-464,,,
0,program_change,0,0,0,6,11,,,,
0,pitchwheel,0,0,0,,11,-208,,,
0,program_change,0,0,0,6,12,,,,
0,pitchwheel,0,0,0,,12,-553,,,
0,set_tempo,0,1,0,,,,500000,,
105,note_on,105,0,0,,4,,,64,127
105,note_on,0,0,0,,4,,,76,127
156,note_off,51,0,0,,4,,,76,127
156,note_off,0,0,0,,4,,,64,127
157,note_on,1,0,0,,2,,,62,127
157,note_on,0,0,0,,2,,,74,127
208,note_off,51,0,0,,2,,,74,127
208,note_off,0,0,0,,2,,,62,127
209,note_on,1,0,0,,4,,,64,127
209,note_on,0,0,0,,4,,,76,127
260,note_off,51,0,0,,4,,,76,127
260,note_off,0,0,0,,4,,,64,127
261,note_on,1,0,0,,2,,,62,127
261,note_on,0,0,0,,2,,,74,127
312,note_off,51,0,0,,2,,,74,127
312,note_off,0,0,0,,2,,,62,127
313,note_on,1,0,0,,4,,,64,127
313,note_on,0,0,0,,4,,,76,127
364,note_off,51,0,0,,4,,,76,127
364,note_off,0,0,0,,4,,,64,127
365,note_on,1,0,0,,2,,,62,127
365,note_on,0,0,0,,2,,,74,127
416,note_off,51,0,0,,2,,,74,127
416,note_off,0,0,0,,2,,,62,127
417,note_on,1,0,0,,4,,,64,127
417,note_on,0,0,0,,4,,,76,127
468,note_off,51,0,0,,4,,,76,127
468,note_off,0,0,0,,4,,,64,127
469,note_on,1,0,0,,2,,,62,127
469,note_on,0,0,0,,2,,,74,127
730,note_off,261,0,0,,2,,,74,127
730,note_off,0,0,0,,2,,,62,127
731,note_on,1,0,0,,2,,,62,127
731,note_on,0,0,0,,2,,,74,127
939,note_off,208,0,0,,2,,,74,127
939,note_off,0,0,0,,2,,,62,127
940,note_on,1,0,0,,1,,,61,127
940,note_on,0,0,0,,1,,,73,127
1358,note_off,418,0,0,,1,,,73,127
1358,note_off,0,0,0,,1,,,61,127
1359,note_on,1,0,0,,4,,,64,127
1359,note_on,0,0,0,,4,,,76,127
1410,note_off,51,0,0,,4,,,76,127
1410,note_off,0,0,0,,4,,,64,127
1411,note_on,1,0,0,,2,,,62,127
1411,note_on,0,0,0,,2,,,74,127
1462,note_off,51,0,0,,2,,,74,127
1462,note_off,0,0,0,,2,,,62,127
1463,note_on,1,0,0,,4,,,64,127
1463,note_on,0,0,0,,4,,,76,127
1514,note_off,51,0,0,,4,,,76,127
1514,note_off,0,0,0,,4,,,64,127
1515,note_on,1,0,0,,2,,,62,127
1515,note_on,0,0,0,,2,,,74,127
1566,note_off,51,0,0,,2,,,74,127
1566,note_off,0,0,0,,2,,,62,127
1567,note_on,1,0,0,,4,,,64,127
1567,note_on,0,0,0,,4,,,76,127
1618,note_off,51,0,0,,4,,,76,127
1618,note_off,0,0,0,,4,,,64,127
1619,note_on,1,0,0,,2,,,62,127
1619,note_on,0,0,0,,2,,,74,127
1670,note_off,51,0,0,,2,,,74,127
1671,note_on,1,0,0,,1,,,73,127
1722,note_off,51,0,0,,1,,,73,127
1723,note_on,1,0,0,,2,,,74,127
1774,note_off,51,0,0,,2,,,74,127
1774,note_off,0,0,0,,2,,,62,127
1775,note_on,1,0,0,,10,,,57,127
1775,note_on,0,0,0,,4,,,76,127
1879,note_off,104,0,0,,4,,,76,127
1880,note_on,1,0,0,,2,,,74,127
1984,note_off,104,0,0,,2,,,74,127
1985,note_on,1,0,0,,1,,,73,127
2089,note_off,104,0,0,,1,,,73,127
2090,note_on,1,0,0,,12,,,71,127
2194,note_off,104,0,0,,12,,,71,127
2195,note_on,1,0,0,,10,,,69,127
2299,note_off,104,0,0,,10,,,69,127
2300,note_on,1,0,0,,7,,,67,127
2351,note_off,51,0,0,,7,,,67,127
2352,note_on,1,0,0,,6,,,66,127
2403,note_off,51,0,0,,6,,,66,127
2404,note_on,1,0,0,,4,,,64,127
2455,note_off,51,0,0,,4,,,64,127
2456,note_on,1,0,0,,2,,,62,127
2507,note_off,51,0,0,,2,,,62,127
2508,note_on,1,0,0,,1,,,61,127
2559,note_off,51,0,0,,1,,,61,127
2560,note_on,1,0,0,,12,,,59,127
2611,note_off,51,0,0,,12,,,59,127
2611,note_off,0,0,0,,10,,,57,127
2612,note_on,1,0,0,,10,,,57,127
2717,note_on,105,0,0,,7,,,55,127
2821,note_off,104,0,0,,7,,,55,127
2822,note_on,1,0,0,,6,,,54,127
2926,note_off,104,0,0,,6,,,54,127
2927,note_off,1,0,0,,10,,,57,127
2927,note_on,0,0,0,,4,,,52,127
3031,note_off,104,0,0,,4,,,52,127
3032,note_on,1,0,0,,2,,,50,127
3136,note_off,104,0,0,,2,,,50,127
3137,note_on,1,0,0,,1,,,49,127
3241,note_off,104,0,0,,1,,,49,127
3242,note_on,1,0,0,,12,,,47,127
3346,note_off,104,0,0,,12,,,47,127
3347,note_on,1,0,0,,10,,,45,127
3451,note_off,104,0,0,,10,,,45,127
3452,note_on,1,0,0,,7,,,43,127
3452,note_on,0,0,0,,7,,,79,127
3452,note_on,0,0,0,,12,,,71,127
3870,note_off,418,0,0,,12,,,71,127
3870,note_off,0,0,0,,7,,,79,127
3871,note_on,1,0,0,,6,,,78,127
3871,note_on,0,0,0,,10,,,69,127
4184,note_off,313,0,0,,10,,,69,127
4184,note_off,0,0,0,,6,,,78,127
4185,note_on,1,0,0,,4,,,76,127
4185,note_on,0,0,0,,7,,,67,127
4289,note_off,104,0,0,,7,,,67,127
4289,note_off,0,0,0,,4,,,76,127
4289,note_off,0,0,0,,7,,,43,127
4290,note_on,1,0,0,,10,,,45,127
4290,note_on,0,0,0,,6,,,66,127
4290,note_on,0,0,0,,2,,,74,127
4708,note_off,418,0,0,,2,,,74,127
4708,note_off,0,0,0,,6,,,66,127
4709,note_on,1,0,0,,4,,,64,127
4709,note_on,0,0,0,,1,,,73,127
5127,note_off,418,0,0,,1,,,73,127
5127,note_off,0,0,0,,4,,,64,127
5127,note_off,0,0,0,,10,,,45,127
5128,note_on,1,0,0,,2,,,38,127
5128,note_on,0,0,0,,1,,,73,127
5128,note_on,0,0,0,,4,,,64,127
5336,note_off,208,0,0,,4,,,64,127
5336,note_off,0,0,0,,1,,,73,127
5337,note_on,1,0,0,,6,,,66,127
5337,note_on,0,0,0,,2,,,74,127
5755,note_off,418,0,0,,2,,,74,127
5755,note_off,0,0,0,,6,,,66,127
5756,note_on,1,0,0,,4,,,64,127
5756,note_on,0,0,0,,1,,,73,127
5964,note_off,208,0,0,,1,,,73,127
5964,note_off,0,0,0,,4,,,64,127
5965,note_on,1,0,0,,4,,,64,127
5965,note_on,0,0,0,,1,,,73,127
6383,note_off,418,0,0,,1,,,73,127
6383,note_off,0,0,0,,4,,,64,127
6384,note_on,1,0,0,,2,,,74,127
6384,note_on,0,0,0,,2,,,62,127
6418,note_off,34,0,0,,2,,,74,127
6419,note_on,1,0,0,,1,,,73,127
6453,note_off,34,0,0,,1,,,73,127
6454,note_on,1,0,0,,2,,,74,127
6802,note_off,348,0,0,,2,,,74,127
6802,note_off,0,0,0,,2,,,62,127
6802,note_off,0,0,0,,2,,,38,127
6943,note_on,141,0,0,,4,,,64,127
6943,note_on,0,0,0,,4,,,76,127
6994,note_off,51,0,0,,4,,,76,127
6994,note_off,0,0,0,,4,,,64,127
6995,note_on,1,0,0,,2,,,62,127
6995,note_on,0,0,0,,2,,,74,127
7046,note_off,51,0,0,,2,,,74,127
7046,note_off,0,0,0,,2,,,62,127
7047,note_on,1,0,0,,4,,,64,127
7047,note_on,0,0,0,,4,,,76,127
7098,note_off,51,0,0,,4,,,76,127
7098,note_off,0,0,0,,4,,,64,127
7099,note_on,1,0,0,,2,,,62,127
7099,note_on,0,0,0,,2,,,74,127
7150,note_off,51,0,0,,2,,,74,127
7150,note_off,0,0,0,,2,,,62,127
7151,note_on,1,0,0,,4,,,64,127
7151,note_on,0,0,0,,4,,,76,127
7202,note_off,51,0,0,,4,,,76,127
7202,note_off,0,0,0,,4,,,64,127
7203,note_on,1,0,0,,2,,,62,127
7203,note_on,0,0,0,,2,,,74,127
7254,note_off,51,0,0,,2,,,74,127
7254,note_off,0,0,0,,2,,,62,127
7255,note_on,1,0,0,,4,,,64,127
7255,note_on,0,0,0,,4,,,76,127
7306,note_off,51,0,0,,4,,,76,127
7306,note_off,0,0,0,,4,,,64,127
7307,note_on,1,0,0,,2,,,62,127
7307,note_on,0,0,0,,2,,,74,127
7568,note_off,261,0,0,,2,,,74,127
7568,note_off,0,0,0,,2,,,62,127
7569,note_on,1,0,0,,2,,,62,127
7569,note_on,0,0,0,,2,,,74,127
7777,note_off,208,0,0,,2,,,74,127
7777,note_off,0,0,0,,2,,,62,127
7778,note_on,1,0,0,,1,,,61,127
7778,note_on,0,0,0,,1,,,73,127
8196,note_off,418,0,0,,1,,,73,127
8196,note_off,0,0,0,,1,,,61,127
8197,note_on,1,0,0,,4,,,64,127
8197,note_on,0,0,0,,4,,,76,127
8248,note_off,51,0,0,,4,,,76,127
8248,note_off,0,0,0,,4,,,64,127
8249,note_on,1,0,0,,2,,,62,127
8249,note_on,0,0,0,,2,,,74,127
8300,note_off,51,0,0,,2,,,74,127
8300,note_off,0,0,0,,2,,,62,127
8301,note_on,1,0,0,,4,,,64,127
8301,note_on,0,0,0,,4,,,76,127
8352,note_off,51,0,0,,4,,,76,127
8352,note_off,0,0,0,,4,,,64,127
8353,note_on,1,0,0,,2,,,62,127
8353,note_on,0,0,0,,2,,,74,127
8404,note_off,51,0,0,,2,,,74,127
8404,note_off,0,0,0,,2,,,62,127
8405,note_on,1,0,0,,4,,,64,127
8405,note_on,0,0,0,,4,,,76,127
8456,note_off,51,0,0,,4,,,76,127
8456,note_off,0,0,0,,4,,,64,127
8457,note_on,1,0,0,,2,,,62,127
8457,note_on,0,0,0,,2,,,74,127
8508,note_off,51,0,0,,2,,,74,127
8509,note_on,1,0,0,,1,,,73,127
8560,note_off,51,0,0,,1,,,73,127
8561,note_on,1,0,0,,2,,,74,127
8612,note_off,51,0,0,,2,,,74,127
8612,note_off,0,0,0,,2,,,62,127
8613,note_on,1,0,0,,10,,,57,127
8613,note_on,0,0,0,,4,,,76,127
8717,note_off,104,0,0,,4,,,76,127
8718,note_on,1,0,0,,2,,,74,127
8822,note_off,104,0,0,,2,,,74,127
8823,note_on,1,0,0,,1,,,73,127
8927,note_off,104,0,0,,1,,,73,127
8928,note_on,1,0,0,,12,,,71,127
9032,note_off,104,0,0,,12,,,71,127
9033,note_on,1,0,0,,10,,,69,127
9137,note_off,104,0,0,,10,,,69,127
9138,note_on,1,0,0,,7,,,67,127
9189,note_off,51,0,0,,7,,,67,127
9190,note_on,1,0,0,,6,,,66,127
9241,note_off,51,0,0,,6,,,66,127
9242,note_on,1,0,0,,4,,,64,127
9293,note_off,51,0,0,,4,,,64,127
9294,note_on,1,0,0,,2,,,62,127
9345,note_off,51,0,0,,2,,,62,127
9346,note_on,1,0,0,,1,,,61,127
9397,note_off,51,0,0,,1,,,61,127
9398,note_on,1,0,0,,12,,,59,127
9449,note_off,51,0,0,,12,,,59,127
9449,note_off,0,0,0,,10,,,57,127
9450,note_on,1,0,0,,10,,,57,127
9555,note_on,105,0,0,,7,,,55,127
9659,note_off,104,0,0,,7,,,55,127
9660,note_on,1,0,0,,6,,,54,127
9764,note_off,104,0,0,,6,,,54,127
9765,note_off,1,0,0,,10,,,57,127
9765,note_on,0,0,0,,4,,,52,127
9869,note_off,104,0,0,,4,,,52,127
9870,note_on,1,0,0,,2,,,50,127
9974,note_off,104,0,0,,2,,,50,127
9975,note_on,1,0,0,,1,,,49,127
10079,note_off,104,0,0,,1,,,49,127
10080,note_on,1,0,0,,12,,,47,127
10184,note_off,104,0,0,,12,,,47,127
10185,note_on,1,0,0,,10,,,45,127
10289,note_off,104,0,0,,10,,,45,127
10290,note_on,1,0,0,,7,,,43,127
10290,note_on,0,0,0,,12,,,71,127
10290,note_on,0,0,0,,7,,,79,127
10708,note_off,418,0,0,,7,,,79,127
10708,note_off,0,0,0,,12,,,71,127
10709,note_on,1,0,0,,6,,,78,127
10709,note_on,0,0,0,,10,,,69,127
11022,note_off,313,0,0,,10,,,69,127
11022,note_off,0,0,0,,6,,,78,127
11023,note_on,1,0,0,,7,,,67,127
11023,note_on,0,0,0,,4,,,76,127
11127,note_off,104,0,0,,4,,,76,127
11127,note_off,0,0,0,,7,,,67,127
11127,note_off,0,0,0,,7,,,43,127
11128,note_on,1,0,0,,10,,,45,127
11128,note_on,0,0,0,,6,,,66,127
11128,note_on,0,0,0,,2,,,74,127
11546,note_off,418,0,0,,2,,,74,127
11546,note_off,0,0,0,,6,,,66,127
11547,note_on,1,0,0,,1,,,73,127
11547,note_on,0,0,0,,4,,,64,127
11965,note_off,418,0,0,,4,,,64,127
11965,note_off,0,0,0,,1,,,73,127
11965,note_off,0,0,0,,10,,,45,127
11966,note_on,1,0,0,,2,,,38,127
11966,note_on,0,0,0,,1,,,73,127
11966,note_on,0,0,0,,4,,,64,127
12174,note_off,208,0,0,,4,,,64,127
12174,note_off,0,0,0,,1,,,73,127
12175,note_on,1,0,0,,2,,,74,127
12175,note_on,0,0,0,,6,,,66,127
12593,note_off,418,0,0,,6,,,66,127
12593,note_off,0,0,0,,2,,,74,127
12594,note_on,1,0,0,,1,,,73,127
12594,note_on,0,0,0,,4,,,64,127
12802,note_off,208,0,0,,4,,,64,127
12802,note_off,0,0,0,,1,,,73,127
12803,note_on,1,0,0,,4,,,64,127
12803,note_on,0,0,0,,1,,,73,127
13221,note_off,418,0,0,,1,,,73,127
13221,note_off,0,0,0,,4,,,64,127
13222,note_on,1,0,0,,2,,,74,127
13222,note_on,0,0,0,,2,,,62,127
13256,note_off,34,0,0,,2,,,74,127
13257,note_on,1,0,0,,1,,,73,127
13291,note_off,34,0,0,,1,,,73,127
13292,note_on,1,0,0,,2,,,74,127
13640,note_off,348,0,0,,2,,,74,127
13640,note_off,0,0,0,,2,,,62,127
13640,note_off,0,0,0,,2,,,38,127
13659,note_on,19,0,0,,2,,,50,127
13763,note_off,104,0,0,,2,,,50,127
13764,note_on,1,0,0,,4,,,52,127
13868,note_off,104,0,0,,4,,,52,127
13869,note_on,1,0,0,,6,,,54,127
13973,note_off,104,0,0,,6,,,54,127
13974,note_on,1,0,0,,7,,,55,127
14078,note_off,104,0,0,,7,,,55,127
14079,note_on,1,0,0,,10,,,57,127
14183,note_off,104,0,0,,10,,,57,127
14184,note_on,1,0,0,,12,,,59,127
14288,note_off,104,0,0,,12,,,59,127
14289,note_on,1,0,0,,1,,,61,127
14393,note_off,104,0,0,,1,,,61,127
14394,note_on,1,0,0,,2,,,62,127
14498,note_off,104,0,0,,2,,,62,127
14499,note_on,1,0,0,,4,,,64,127
14603,note_off,104,0,0,,4,,,64,127
14604,note_on,1,0,0,,6,,,66,127
14708,note_off,104,0,0,,6,,,66,127
14709,note_on,1,0,0,,7,,,67,127
14813,note_off,104,0,0,,7,,,67,127
14814,note_on,1,0,0,,10,,,69,127
14918,note_off,104,0,0,,10,,,69,127
14919,note_on,1,0,0,,12,,,71,127
15023,note_off,104,0,0,,12,,,71,127
15024,note_on,1,0,0,,1,,,73,127
15075,note_off,51,0,0,,1,,,73,127
15076,note_on,1,0,0,,2,,,74,127
15127,note_off,51,0,0,,2,,,74,127
15128,note_on,1,0,0,,4,,,76,127
15179,note_off,51,0,0,,4,,,76,127
15180,note_on,1,0,0,,6,,,78,127
15231,note_off,51,0,0,,6,,,78,127
15232,note_on,1,0,0,,7,,,79,127
15283,note_off,51,0,0,,7,,,79,127
15284,note_on,1,0,0,,10,,,81,127
15335,note_off,51,0,0,,10,,,81,127
15336,note_on,1,0,0,,4,,,76,127
15336,note_on,0,0,0,,7,,,79,127
15336,note_on,0,0,0,,10,,,45,127
15754,note_off,418,0,0,,10,,,45,127
15754,note_off,0,0,0,,7,,,79,127
15754,note_off,0,0,0,,4,,,76,127
15755,note_on,1,0,0,,6,,,78,127
15755,note_on,0,0,0,,2,,,74,127
15755,note_on,0,0,0,,10,,,45,127
15963,note_off,208,0,0,,2,,,74,127
15963,note_off,0,0,0,,6,,,78,127
15964,note_on,1,0,0,,4,,,76,127
15964,note_on,0,0,0,,1,,,73,127
16172,note_off,208,0,0,,1,,,73,127
16172,note_off,0,0,0,,4,,,76,127
16172,note_off,0,0,0,,10,,,45,127
16173,note_on,1,0,0,,4,,,76,127
16173,note_on,0,0,0,,1,,,73,127
16173,note_on,0,0,0,,10,,,45,127
16540,note_off,367,0,0,,10,,,45,127
16591,note_off,51,0,0,,1,,,73,127
16591,note_off,0,0,0,,4,,,76,127
16592,note_on,1,0,0,,1,,,73,127
16592,note_on,0,0,0,,4,,,76,127
16592,note_on,0,0,0,,10,,,45,127
16959,note_off,367,0,0,,10,,,45,127
17010,note_off,51,0,0,,4,,,76,127
17010,note_off,0,0,0,,1,,,73,127
17011,note_on,1,0,0,,2,,,50,127
17115,note_off,104,0,0,,2,,,50,127
17116,note_on,1,0,0,,4,,,52,127
17220,note_off,104,0,0,,4,,,52,127
17221,note_on,1,0,0,,6,,,54,127
17325,note_off,104,0,0,,6,,,54,127
17326,note_on,1,0,0,,7,,,55,127
17430,note_off,104,0,0,,7,,,55,127
17431,note_on,1,0,0,,10,,,57,127
17535,note_off,104,0,0,,10,,,57,127
17536,note_on,1,0,0,,12,,,59,127
17640,note_off,104,0,0,,12,,,59,127
17641,note_on,1,0,0,,1,,,61,127
17745,note_off,104,0,0,,1,,,61,127
17746,note_on,1,0,0,,2,,,62,127
17850,note_off,104,0,0,,2,,,62,127
17851,note_on,1,0,0,,4,,,64,127
17955,note_off,104,0,0,,4,,,64,127
17956,note_on,1,0,0,,6,,,66,127
18060,note_off,104,0,0,,6,,,66,127
18061,note_on,1,0,0,,7,,,67,127
18165,note_off,104,0,0,,7,,,67,127
18166,note_on,1,0,0,,10,,,69,127
18270,note_off,104,0,0,,10,,,69,127
18271,note_on,1,0,0,,12,,,71,127
18375,note_off,104,0,0,,12,,,71,127
18376,note_on,1,0,0,,1,,,73,127
18427,note_off,51,0,0,,1,,,73,127
18428,note_on,1,0,0,,2,,,74,127
18479,note_off,51,0,0,,2,,,74,127
18480,note_on,1,0,0,,4,,,76,127
18531,note_off,51,0,0,,4,,,76,127
18532,note_on,1,0,0,,6,,,78,127
18583,note_off,51,0,0,,6,,,78,127
18584,note_on,1,0,0,,7,,,79,127
18635,note_off,51,0,0,,7,,,79,127
18636,note_on,1,0,0,,10,,,81,127
18687,note_off,51,0,0,,10,,,81,127
18688,note_on,1,0,0,,7,,,79,127
18688,note_on,0,0,0,,4,,,76,127
18688,note_on,0,0,0,,10,,,45,127
19106,note_off,418,0,0,,10,,,45,127
19106,note_off,0,0,0,,4,,,76,127
19106,note_off,0,0,0,,7,,,79,127
19107,note_on,1,0,0,,6,,,78,127
19107,note_on,0,0,0,,2,,,74,127
19107,note_on,0,0,0,,10,,,45,127
19315,note_off,208,0,0,,2,,,74,127
19315,note_off,0,0,0,,6,,,78,127
19316,note_on,1,0,0,,1,,,73,127
19316,note_on,0,0,0,,4,,,76,127
19524,note_off,208,0,0,,4,,,76,127
19524,note_off,0,0,0,,1,,,73,127
19524,note_off,0,0,0,,10,,,45,127
19525,note_on,1,0,0,,6,,,78,127
19525,note_on,0,0,0,,2,,,74,127
19525,note_on,0,0,0,,10,,,45,127
19559,note_off,34,0,0,,2,,,74,127
19559,note_off,0,0,0,,6,,,78,127
19560,note_on,1,0,0,,4,,,76,127
19560,note_on,0,0,0,,1,,,73,127
19594,note_off,34,0,0,,1,,,73,127
19594,note_off,0,0,0,,4,,,76,127
19595,note_on,1,0,0,,6,,,78,127
19595,note_on,0,0,0,,2,,,74,127
19629,note_off,34,0,0,,2,,,74,127
19629,note_off,0,0,0,,6,,,78,127
19630,note_on,1,0,0,,4,,,76,127
19630,note_on,0,0,0,,1,,,73,127
19943,note_off,313,0,0,,1,,,73,127
19943,note_off,0,0,0,,4,,,76,127
19943,note_off,0,0,0,,10,,,45,127
19944,note_on,1,0,0,,1,,,73,127
19944,note_on,0,0,0,,4,,,76,127
19944,note_on,0,0,0,,10,,,45,127
20362,note_off,418,0,0,,10,,,45,127
20362,note_off,0,0,0,,4,,,76,127
20362,note_off,0,0,0,,1,,,73,127
20363,note_on,1,0,0,,4,,,76,127
20363,note_on,0,0,0,,2,,,62,127
20363,note_on,0,0,0,,6,,,54,127
20414,note_off,51,0,0,,4,,,76,127
20415,note_on,1,0,0,,2,,,74,127
20466,note_off,51,0,0,,2,,,74,127
20467,note_on,1,0,0,,1,,,73,127
20780,note_off,313,0,0,,6,,,54,127
20780,note_off,0,0,0,,2,,,62,127
20781,note_on,1,0,0,,2,,,62,127
20781,note_on,0,0,0,,6,,,54,127
21094,note_off,313,0,0,,6,,,54,127
21094,note_off,0,0,0,,2,,,62,127
21095,note_on,1,0,0,,6,,,54,127
21095,note_on,0,0,0,,2,,,62,127
21199,note_off,104,0,0,,2,,,62,127
21199,note_off,0,0,0,,6,,,54,127
21200,note_on,1,0,0,,6,,,54,127
21200,note_on,0,0,0,,2,,,62,127
21618,note_off,418,0,0,,2,,,62,127
21618,note_off,0,0,0,,6,,,54,127
21618,note_off,0,0,0,,1,,,73,127
21619,note_on,1,0,0,,2,,,74,127
21619,note_on,0,0,0,,2,,,62,127
21619,note_on,0,0,0,,6,,,54,127
21653,note_off,34,0,0,,2,,,74,127
21654,note_on,1,0,0,,1,,,73,127
21688,note_off,34,0,0,,1,,,73,127
21689,note_on,1,0,0,,2,,,74,127
22037,note_off,348,0,0,,2,,,74,127
22037,note_off,0,0,0,,6,,,54,127
22037,note_off,0,0,0,,2,,,62,127
22038,note_on,1,0,0,,4,,,76,127
22038,note_on,0,0,0,,4,,,64,127
22038,note_on,0,0,0,,2,,,62,127
22038,note_on,0,0,0,,7,,,55,127
22089,note_off,51,0,0,,4,,,76,127
22090,note_on,1,0,0,,2,,,74,127
22141,note_off,51,0,0,,2,,,74,127
22142,note_on,1,0,0,,1,,,73,127
22455,note_off,313,0,0,,7,,,55,127
22455,note_off,0,0,0,,2,,,62,127
22455,note_off,0,0,0,,4,,,64,127
22456,note_on,1,0,0,,4,,,64,127
22456,note_on,0,0,0,,7,,,55,127
22456,note_on,0,0,0,,2,,,62,127
22769,note_off,313,0,0,,2,,,62,127
22769,note_off,0,0,0,,7,,,55,127
22769,note_off,0,0,0,,4,,,64,127
22770,note_on,1,0,0,,7,,,55,127
22770,note_on,0,0,0,,2,,,62,127
22770,note_on,0,0,0,,4,,,64,127
22874,note_off,104,0,0,,4,,,64,127
22874,note_off,0,0,0,,2,,,62,127
22874,note_off,0,0,0,,7,,,55,127
22875,note_on,1,0,0,,2,,,62,127
22875,note_on,0,0,0,,4,,,64,127
22875,note_on,0,0,0,,7,,,55,127
23293,note_off,418,0,0,,7,,,55,127
23293,note_off,0,0,0,,4,,,64,127
23293,note_off,0,0,0,,2,,,62,127
23293,note_off,0,0,0,,1,,,73,127
23294,note_on,1,0,0,,2,,,74,127
23294,note_on,0,0,0,,2,,,62,127
23294,note_on,0,0,0,,4,,,64,127
23294,note_on,0,0,0,,7,,,55,127
23328,note_off,34,0,0,,2,,,74,127
23329,note_on,1,0,0,,1,,,73,127
23363,note_off,34,0,0,,1,,,73,127
23364,note_on,1,0,0,,2,,,74,127
23712,note_off,348,0,0,,2,,,74,127
23712,note_off,0,0,0,,7,,,55,127
23712,note_off,0,0,0,,4,,,64,127
23712,note_off,0,0,0,,2,,,62,127
23713,note_on,1,0,0,,4,,,76,127
23713,note_on,0,0,0,,2,,,62,127
23713,note_on,0,0,0,,4,,,64,127
23713,note_on,0,0,0,,8,,,56,127
23764,note_off,51,0,0,,4,,,76,127
23765,note_on,1,0,0,,2,,,74,127
23816,note_off,51,0,0,,2,,,74,127
23817,note_on,1,0,0,,1,,,73,127
24130,note_off,313,0,0,,8,,,56,127
24130,note_off,0,0,0,,4,,,64,127
24130,note_off,0,0,0,,2,,,62,127
24131,note_on,1,0,0,,4,,,64,127
24131,note_on,0,0,0,,8,,,56,127
24131,note_on,0,0,0,,2,,,62,127
24444,note_off,313,0,0,,2,,,62,127
24444,note_off,0,0,0,,8,,,56,127
24444,note_off,0,0,0,,4,,,64,127
24445,note_on,1,0,0,,4,,,64,127
24445,note_on,0,0,0,,8,,,56,127
24445,note_on,0,0,0,,2,,,62,127
24549,note_off,104,0,0,,2,,,62,127
24549,note_off,0,0,0,,8,,,56,127
24549,note_off,0,0,0,,4,,,64,127
24550,note_on,1,0,0,,4,,,64,127
24550,note_on,0,0,0,,2,,,62,127
24550,note_on,0,0,0,,8,,,56,127
24968,note_off,418,0,0,,8,,,56,127
24968,note_off,0,0,0,,2,,,62,127
24968,note_off,0,0,0,,4,,,64,127
24968,note_off,0,0,0,,1,,,73,127
24969,note_on,1,0,0,,2,,,74,127
24969,note_on,0,0,0,,4,,,64,127
24969,note_on,0,0,0,,2,,,62,127
24969,note_on,0,0,0,,8,,,56,127
25003,note_off,34,0,0,,2,,,74,127
25004,note_on,1,0,0,,1,,,73,127
25038,note_off,34,0,0,,1,,,73,127
25039,note_on,1,0,0,,2,,,74,127
25387,note_off,348,0,0,,2,,,74,127
25387,note_off,0,0,0,,8,,,56,127
25387,note_off,0,0,0,,2,,,62,127
25387,note_off,0,0,0,,4,,,64,127
25388,note_on,1,0,0,,2,,,74,127
25388,note_on,0,0,0,,6,,,66,127
25388,note_on,0,0,0,,10,,,57,127
26015,note_off,627,0,0,,2,,,74,127
26016,note_on,1,0,0,,1,,,73,127
26120,note_off,104,0,0,,1,,,73,127
26121,note_on,1,0,0,,2,,,74,127
26225,note_off,104,0,0,,2,,,74,127
26226,note_on,1,0,0,,4,,,76,127
26330,note_off,104,0,0,,4,,,76,127
26331,note_on,1,0,0,,6,,,78,127
26435,note_off,104,0,0,,6,,,78,127
26435,note_off,0,0,0,,6,,,66,127
26436,note_on,1,0,0,,8,,,80,127
26436,note_on,0,0,0,,4,,,64,127
26749,note_off,313,0,0,,8,,,80,127
26750,note_on,1,0,0,,10,,,81,127
26854,note_off,104,0,0,,10,,,81,127
26855,note_off,1,0,0,,10,,,57,127
26855,note_on,0,0,0,,6,,,78,127
26959,note_off,104,0,0,,6,,,78,127
26959,note_off,0,0,0,,4,,,64,127
26960,note_on,1,0,0,,4,,,76,127
26960,note_on,0,0,0,,10,,,45,127
27798,note_off,838,0,0,,10,,,45,127
27903,note_off,105,0,0,,4,,,76,127
28217,note_on,314,0,0,,8,,,68,127
28321,note_off,104,0,0,,8,,,68,127
28322,note_on,1,0,0,,6,,,66,127
28426,note_off,104,0,0,,6,,,66,127
28427,note_on,1,0,0,,4,,,64,127
28531,note_off,104,0,0,,4,,,64,127
28532,note_on,1,0,0,,6,,,66,127
28636,note_off,104,0,0,,6,,,66,127
28637,note_on,1,0,0,,8,,,68,127
28741,note_off,104,0,0,,8,,,68,127
28742,note_on,1,0,0,,10,,,69,127
28793,note_off,51,0,0,,10,,,69,127
28794,note_on,1,0,0,,12,,,71,127
28845,note_off,51,0,0,,12,,,71,127
28846,note_on,1,0,0,,1,,,73,127
28897,note_off,51,0,0,,1,,,73,127
28898,note_on,1,0,0,,2,,,74,127
28949,note_off,51,0,0,,2,,,74,127
28950,note_on,1,0,0,,4,,,76,127
29001,note_off,51,0,0,,4,,,76,127
29002,note_on,1,0,0,,6,,,78,127
29053,note_off,51,0,0,,6,,,78,127
29054,note_on,1,0,0,,6,,,78,127
29088,note_off,34,0,0,,6,,,78,127
29089,note_on,1,0,0,,4,,,76,127
29123,note_off,34,0,0,,4,,,76,127
29124,note_on,1,0,0,,6,,,78,127
29158,note_off,34,0,0,,6,,,78,127
29159,note_on,1,0,0,,4,,,76,127
29472,note_off,313,0,0,,4,,,76,127
29473,note_on,1,0,0,,4,,,76,127
29891,note_off,418,0,0,,4,,,76,127
29892,note_on,1,0,0,,6,,,54,127
29996,note_off,104,0,0,,6,,,54,127
29997,note_on,1,0,0,,4,,,52,127
30101,note_off,104,0,0,,4,,,52,127
30102,note_on,1,0,0,,2,,,50,127
30206,note_off,104,0,0,,2,,,50,127
30207,note_on,1,0,0,,1,,,49,127
30258,note_off,51,0,0,,1,,,49,127
30259,note_on,1,0,0,,2,,,50,127
30310,note_off,51,0,0,,2,,,50,127
30311,note_on,1,0,0,,4,,,52,127
30362,note_off,51,0,0,,4,,,52,127
30363,note_on,1,0,0,,6,,,54,127
30414,note_off,51,0,0,,6,,,54,127
30415,note_on,1,0,0,,8,,,56,127
30466,note_off,51,0,0,,8,,,56,127
30467,note_on,1,0,0,,10,,,57,127
30518,note_off,51,0,0,,10,,,57,127
30519,note_on,1,0,0,,12,,,59,127
30570,note_off,51,0,0,,12,,,59,127
30571,note_on,1,0,0,,1,,,61,127
30622,note_off,51,0,0,,1,,,61,127
30623,note_on,1,0,0,,2,,,62,127
30674,note_off,51,0,0,,2,,,62,127
30675,note_on,1,0,0,,4,,,64,127
30726,note_off,51,0,0,,4,,,64,127
30727,note_on,1,0,0,,4,,,64,127
30761,note_off,34,0,0,,4,,,64,127
30762,note_on,1,0,0,,2,,,62,127
30796,note_off,34,0,0,,2,,,62,127
30797,note_on,1,0,0,,4,,,64,127
30831,note_off,34,0,0,,4,,,64,127
30832,note_on,1,0,0,,2,,,62,127
31145,note_off,313,0,0,,2,,,62,127
31146,note_on,1,0,0,,2,,,62,127
31564,note_off,418,0,0,,2,,,62,127
31565,note_on,1,0,0,,4,,,40,127
31565,note_on,0,0,0,,2,,,74,127
31565,note_on,0,0,0,,6,,,66,127
31983,note_off,418,0,0,,6,,,66,127
31983,note_off,0,0,0,,2,,,74,127
31983,note_off,0,0,0,,4,,,40,127
31984,note_on,1,0,0,,4,,,40,127
31984,note_on,0,0,0,,1,,,73,127
31984,note_on,0,0,0,,4,,,64,127
32297,note_off,313,0,0,,4,,,64,127
32297,note_off,0,0,0,,1,,,73,127
32298,note_on,1,0,0,,2,,,62,127
32298,note_on,0,0,0,,12,,,71,127
32402,note_off,104,0,0,,12,,,71,127
32402,note_off,0,0,0,,2,,,62,127
32402,note_off,0,0,0,,4,,,40,127
32403,note_on,1,0,0,,4,,,40,127
32403,note_on,0,0,0,,1,,,61,127
32403,note_on,0,0,0,,10,,,69,127
32821,note_off,418,0,0,,10,,,69,127
32821,note_off,0,0,0,,1,,,61,127
32821,note_off,0,0,0,,4,,,40,127
32822,note_on,1,0,0,,4,,,40,127
32822,note_on,0,0,0,,8,,,68,127
32822,note_on,0,0,0,,12,,,59,127
33240,note_off,418,0,0,,12,,,59,127
33240,note_off,0,0,0,,8,,,68,127
33240,note_off,0,0,0,,4,,,40,127
33241,note_on,1,0,0,,10,,,45,127
33241,note_on,0,0,0,,12,,,59,127
33241,note_on,0,0,0,,8,,,68,127
33449,note_off,208,0,0,,8,,,68,127
33449,note_off,0,0,0,,12,,,59,127
33450,note_on,1,0,0,,1,,,61,127
33450,note_on,0,0,0,,10,,,69,127
33868,note_off,418,0,0,,10,,,69,127
33868,note_off,0,0,0,,1,,,61,127
33869,note_on,1,0,0,,8,,,68,127
33869,note_on,0,0,0,,12,,,59,127
34077,note_off,208,0,0,,12,,,59,127
34077,note_off,0,0,0,,8,,,68,127
34077,note_off,0,0,0,,10,,,45,127
34078,note_on,1,0,0,,10,,,45,127
34078,note_on,0,0,0,,8,,,68,127
34078,note_on,0,0,0,,12,,,59,127
34496,note_off,418,0,0,,12,,,59,127
34496,note_off,0,0,0,,8,,,68,127
34497,note_on,1,0,0,,10,,,69,127
34497,note_on,0,0,0,,10,,,57,127
34531,note_off,34,0,0,,10,,,69,127
34532,note_on,1,0,0,,8,,,68,127
34566,note_off,34,0,0,,8,,,68,127
34567,note_on,1,0,0,,10,,,69,127
34914,note_off,347,0,0,,10,,,69,127
34915,note_off,1,0,0,,10,,,57,127
34915,note_off,0,0,0,,10,,,45,127
34925,note_on,10,0,0,,8,,,68,127
35029,note_off,104,0,0,,8,,,68,127
35030,note_on,1,0,0,,6,,,66,127
35134,note_off,104,0,0,,6,,,66,127
35135,note_on,1,0,0,,4,,,64,127
35239,note_off,104,0,0,,4,,,64,127
35240,note_on,1,0,0,,6,,,66,127
35344,note_off,104,0,0,,6,,,66,127
35345,note_on,1,0,0,,8,,,68,127
35449,note_off,104,0,0,,8,,,68,127
35450,note_on,1,0,0,,10,,,69,127
35501,note_off,51,0,0,,10,,,69,127
35502,note_on,1,0,0,,12,,,71,127
35553,note_off,51,0,0,,12,,,71,127
35554,note_on,1,0,0,,1,,,73,127
35605,note_off,51,0,0,,1,,,73,127
35606,note_on,1,0,0,,2,,,74,127
35657,note_off,51,0,0,,2,,,74,127
35658,note_on,1,0,0,,4,,,76,127
35709,note_off,51,0,0,,4,,,76,127
35710,note_on,1,0,0,,6,,,78,127
35761,note_off,51,0,0,,6,,,78,127
35762,note_on,1,0,0,,6,,,78,127
35796,note_off,34,0,0,,6,,,78,127
35797,note_on,1,0,0,,4,,,76,127
35831,note_off,34,0,0,,4,,,76,127
35832,note_on,1,0,0,,6,,,78,127
35866,note_off,34,0,0,,6,,,78,127
35867,note_on,1,0,0,,4,,,76,127
36180,note_off,313,0,0,,4,,,76,127
36181,note_on,1,0,0,,4,,,76,127
36599,note_off,418,0,0,,4,,,76,127
36600,note_on,1,0,0,,6,,,54,127
36704,note_off,104,0,0,,6,,,54,127
36705,note_on,1,0,0,,4,,,52,127
36809,note_off,104,0,0,,4,,,52,127
36810,note_on,1,0,0,,2,,,50,127
36914,note_off,104,0,0,,2,,,50,127
36915,note_on,1,0,0,,1,,,49,127
36966,note_off,51,0,0,,1,,,49,127
36967,note_on,1,0,0,,2,,,50,127
37018,note_off,51,0,0,,2,,,50,127
37019,note_on,1,0,0,,4,,,52,127
37070,note_off,51,0,0,,4,,,52,127
37071,note_on,1,0,0,,6,,,54,127
37122,note_off,51,0,0,,6,,,54,127
37123,note_on,1,0,0,,8,,,56,127
37174,note_off,51,0,0,,8,,,56,127
37175,note_on,1,0,0,,10,,,57,127
37226,note_off,51,0,0,,10,,,57,127
37227,note_on,1,0,0,,12,,,59,127
37278,note_off,51,0,0,,12,,,59,127
37279,note_on,1,0,0,,1,,,61,127
37330,note_off,51,0,0,,1,,,61,127
37331,note_on,1,0,0,,2,,,62,127
37382,note_off,51,0,0,,2,,,62,127
37383,note_on,1,0,0,,4,,,64,127
37434,note_off,51,0,0,,4,,,64,127
37435,note_on,1,0,0,,4,,,64,127
37469,note_off,34,0,0,,4,,,64,127
37470,note_on,1,0,0,,2,,,62,127
37504,note_off,34,0,0,,2,,,62,127
37505,note_on,1,0,0,,4,,,64,127
37539,note_off,34,0,0,,4,,,64,127
37540,note_on,1,0,0,,2,,,62,127
37853,note_off,313,0,0,,2,,,62,127
37854,note_on,1,0,0,,2,,,62,127
38272,note_off,418,0,0,,2,,,62,127
38273,note_on,1,0,0,,2,,,74,127
38273,note_on,0,0,0,,6,,,66,127
38273,note_on,0,0,0,,4,,,40,127
38691,note_off,418,0,0,,4,,,40,127
38691,note_off,0,0,0,,6,,,66,127
38691,note_off,0,0,0,,2,,,74,127
38692,note_on,1,0,0,,4,,,64,127
38692,note_on,0,0,0,,1,,,73,127
38692,note_on,0,0,0,,4,,,40,127
39005,note_off,313,0,0,,1,,,73,127
39005,note_off,0,0,0,,4,,,64,127
39006,note_on,1,0,0,,12,,,71,127
39006,note_on,0,0,0,,2,,,62,127
39110,note_off,104,0,0,,2,,,62,127
39110,note_off,0,0,0,,12,,,71,127
39110,note_off,0,0,0,,4,,,40,127
39111,note_on,1,0,0,,10,,,69,127
39111,note_on,0,0,0,,1,,,61,127
39111,note_on,0,0,0,,4,,,40,127
39529,note_off,418,0,0,,4,,,40,127
39529,note_off,0,0,0,,1,,,61,127
39529,note_off,0,0,0,,10,,,69,127
39530,note_on,1,0,0,,12,,,59,127
39530,note_on,0,0,0,,8,,,68,127
39530,note_on,0,0,0,,4,,,40,127
39948,note_off,418,0,0,,4,,,40,127
39948,note_off,0,0,0,,8,,,68,127
39948,note_off,0,0,0,,12,,,59,127
39949,note_on,1,0,0,,12,,,59,127
39949,note_on,0,0,0,,8,,,68,127
39949,note_on,0,0,0,,10,,,45,127
40157,note_off,208,0,0,,8,,,68,127
40157,note_off,0,0,0,,12,,,59,127
40158,note_on,1,0,0,,10,,,69,127
40158,note_on,0,0,0,,1,,,61,127
40576,note_off,418,0,0,,1,,,61,127
40576,note_off,0,0,0,,10,,,69,127
40577,note_on,1,0,0,,12,,,59,127
40577,note_on,0,0,0,,8,,,68,127
40785,note_off,208,0,0,,8,,,68,127
40785,note_off,0,0,0,,12,,,59,127
40785,note_off,0,0,0,,10,,,45,127
40786,note_on,1,0,0,,12,,,59,127
40786,note_on,0,0,0,,8,,,68,127
40786,note_on,0,0,0,,10,,,45,127
41204,note_off,418,0,0,,8,,,68,127
41204,note_off,0,0,0,,12,,,59,127
41205,note_on,1,0,0,,10,,,69,127
41205,note_on,0,0,0,,10,,,57,127
41239,note_off,34,0,0,,10,,,69,127
41240,note_on,1,0,0,,8,,,68,127
41274,note_off,34,0,0,,8,,,68,127
41275,note_on,1,0,0,,10,,,69,127
41623,note_off,348,0,0,,10,,,69,127
41623,note_off,0,0,0,,10,,,57,127
41623,note_off,0,0,0,,10,,,45,127
41624,note_on,1,0,0,,10,,,69,127
41624,note_on,0,0,0,,5,,,65,127
41624,note_on,0,0,0,,10,,,57,127
41624,note_on,0,0,0,,2,,,62,127
41728,note_off,104,0,0,,10,,,69,127
41729,note_on,1,0,0,,8,,,68,127
42042,note_off,313,0,0,,2,,,62,127
42042,note_off,0,0,0,,10,,,57,127
42043,note_on,1,0,0,,10,,,57,127
42043,note_on,0,0,0,,2,,,62,127
42356,note_off,313,0,0,,2,,,62,127
42356,note_off,0,0,0,,10,,,57,127
42357,note_on,1,0,0,,10,,,57,127
42357,note_on,0,0,0,,2,,,62,127
42461,note_off,104,0,0,,2,,,62,127
42461,note_off,0,0,0,,10,,,57,127
42462,note_on,1,0,0,,10,,,57,127
42462,note_on,0,0,0,,2,,,62,127
42880,note_off,418,0,0,,2,,,62,127
42880,note_off,0,0,0,,10,,,57,127
42881,note_on,1,0,0,,10,,,57,127
42881,note_on,0,0,0,,2,,,62,127
43299,note_off,418,0,0,,2,,,62,127
43299,note_off,0,0,0,,10,,,57,127
43299,note_off,0,0,0,,8,,,68,127
43299,note_off,0,0,0,,5,,,65,127
43300,note_on,1,0,0,,10,,,69,127
43300,note_on,0,0,0,,4,,,64,127
43300,note_on,0,0,0,,10,,,57,127
43300,note_on,0,0,0,,1,,,61,127
43351,note_off,51,0,0,,10,,,69,127
43352,note_on,1,0,0,,7,,,67,127
43403,note_off,51,0,0,,7,,,67,127
43404,note_on,1,0,0,,6,,,66,127
43455,note_off,51,0,0,,6,,,66,127
43456,note_on,1,0,0,,7,,,67,127
43717,note_off,261,0,0,,1,,,61,127
43717,note_off,0,0,0,,10,,,57,127
43718,note_on,1,0,0,,10,,,57,127
43718,note_on,0,0,0,,1,,,61,127
44031,note_off,313,0,0,,1,,,61,127
44031,note_off,0,0,0,,10,,,57,127
44032,note_on,1,0,0,,10,,,57,127
44032,note_on,0,0,0,,1,,,61,127
44136,note_off,104,0,0,,1,,,61,127
44136,note_off,0,0,0,,10,,,57,127
44137,note_on,1,0,0,,10,,,57,127
44137,note_on,0,0,0,,1,,,61,127
44555,note_off,418,0,0,,1,,,61,127
44555,note_off,0,0,0,,10,,,57,127
44556,note_on,1,0,0,,10,,,57,127
44556,note_on,0,0,0,,1,,,61,127
44974,note_off,418,0,0,,1,,,61,127
44974,note_off,0,0,0,,10,,,57,127
44974,note_off,0,0,0,,7,,,67,127
44974,note_off,0,0,0,,4,,,64,127
44975,note_on,1,0,0,,4,,,64,127
44975,note_on,0,0,0,,10,,,69,127
44975,note_on,0,0,0,,11,,,58,127
44975,note_on,0,0,0,,2,,,62,127
44975,note_on,0,0,0,,10,,,57,127
45026,note_off,51,0,0,,10,,,69,127
45027,note_on,1,0,0,,7,,,67,127
45078,note_off,51,0,0,,7,,,67,127
45079,note_on,1,0,0,,6,,,66,127
45130,note_off,51,0,0,,6,,,66,127
45131,note_on,1,0,0,,7,,,67,127
45392,note_off,261,0,0,,10,,,57,127
45392,note_off,0,0,0,,2,,,62,127
45392,note_off,0,0,0,,11,,,58,127
45393,note_on,1,0,0,,11,,,58,127
45393,note_on,0,0,0,,2,,,62,127
45393,note_on,0,0,0,,10,,,57,127
45706,note_off,313,0,0,,10,,,57,127
45706,note_off,0,0,0,,2,,,62,127
45706,note_off,0,0,0,,11,,,58,127
45707,note_on,1,0,0,,10,,,57,127
45707,note_on,0,0,0,,11,,,58,127
45707,note_on,0,0,0,,2,,,62,127
45811,note_off,104,0,0,,2,,,62,127
45811,note_off,0,0,0,,11,,,58,127
45811,note_off,0,0,0,,10,,,57,127
45812,note_on,1,0,0,,11,,,58,127
45812,note_on,0,0,0,,2,,,62,127
45812,note_on,0,0,0,,10,,,57,127
46230,note_off,418,0,0,,10,,,57,127
46230,note_off,0,0,0,,2,,,62,127
46230,note_off,0,0,0,,11,,,58,127
46231,note_on,1,0,0,,10,,,57,127
46231,note_on,0,0,0,,11,,,58,127
46231,note_on,0,0,0,,2,,,62,127
46649,note_off,418,0,0,,2,,,62,127
46649,note_off,0,0,0,,11,,,58,127
46649,note_off,0,0,0,,10,,,57,127
46649,note_off,0,0,0,,7,,,67,127
46649,note_off,0,0,0,,4,,,64,127
46650,note_on,1,0,0,,5,,,65,127
46650,note_on,0,0,0,,10,,,69,127
46650,note_on,0,0,0,,2,,,62,127
46650,note_on,0,0,0,,10,,,57,127
46650,note_on,0,0,0,,12,,,59,127
46754,note_off,104,0,0,,10,,,69,127
46755,note_on,1,0,0,,8,,,68,127
47068,note_off,313,0,0,,12,,,59,127
47068,note_off,0,0,0,,10,,,57,127
47068,note_off,0,0,0,,2,,,62,127
47069,note_on,1,0,0,,12,,,59,127
47069,note_on,0,0,0,,2,,,62,127
47069,note_on,0,0,0,,10,,,57,127
47382,note_off,313,0,0,,10,,,57,127
47382,note_off,0,0,0,,2,,,62,127
47382,note_off,0,0,0,,12,,,59,127
47383,note_on,1,0,0,,10,,,57,127
47383,note_on,0,0,0,,2,,,62,127
47383,note_on,0,0,0,,12,,,59,127
47487,note_off,104,0,0,,12,,,59,127
47487,note_off,0,0,0,,2,,,62,127
47487,note_off,0,0,0,,10,,,57,127
47488,note_on,1,0,0,,2,,,62,127
47488,note_on,0,0,0,,10,,,57,127
47488,note_on,0,0,0,,12,,,59,127
47906,note_off,418,0,0,,12,,,59,127
47906,note_off,0,0,0,,10,,,57,127
47906,note_off,0,0,0,,2,,,62,127
47906,note_off,0,0,0,,8,,,68,127
47906,note_off,0,0,0,,5,,,65,127
47907,note_on,1,0,0,,2,,,74,127
47907,note_on,0,0,0,,12,,,59,127
47907,note_on,0,0,0,,2,,,62,127
47907,note_on,0,0,0,,10,,,57,127
48325,note_off,418,0,0,,10,,,57,127
48325,note_off,0,0,0,,2,,,62,127
48325,note_off,0,0,0,,12,,,59,127
48326,note_on,1,0,0,,4,,,64,127
48326,note_on,0,0,0,,10,,,69,127
48326,note_on,0,0,0,,10,,,45,127
48953,note_off,627,0,0,,2,,,74,127
48954,note_on,1,0,0,,1,,,73,127
49058,note_off,104,0,0,,1,,,73,127
49059,note_on,1,0,0,,12,,,71,127
49163,note_off,104,0,0,,12,,,71,127
49163,note_off,0,0,0,,10,,,45,127
49163,note_off,0,0,0,,10,,,69,127
49163,note_off,0,0,0,,4,,,64,127
49164,note_on,1,0,0,,10,,,69,127
49164,note_on,0,0,0,,10,,,33,127
50001,note_off,837,0,0,,10,,,33,127
50001,note_off,0,0,0,,10,,,69,127
50002,note_on,1,0,0,,10,,,69,127
50002,note_on,0,0,0,,5,,,65,127
50002,note_on,0,0,0,,2,,,62,127
50002,note_on,0,0,0,,10,,,57,127
50106,note_off,104,0,0,,10,,,69,127
50107,note_on,1,0,0,,8,,,68,127
50420,note_off,313,0,0,,10,,,57,127
50420,note_off,0,0,0,,2,,,62,127
50421,note_on,1,0,0,,10,,,57,127
50421,note_on,0,0,0,,2,,,62,127
50734,note_off,313,0,0,,2,,,62,127
50734,note_off,0,0,0,,10,,,57,127
50735,note_on,1,0,0,,2,,,62,127
50735,note_on,0,0,0,,10,,,57,127
50839,note_off,104,0,0,,10,,,57,127
50839,note_off,0,0,0,,2,,,62,127
50840,note_on,1,0,0,,10,,,57,127
50840,note_on,0,0,0,,2,,,62,127
51258,note_off,418,0,0,,2,,,62,127
51258,note_off,0,0,0,,10,,,57,127
51259,note_on,1,0,0,,10,,,57,127
51259,note_on,0,0,0,,2,,,62,127
51677,note_off,418,0,0,,2,,,62,127
51677,note_off,0,0,0,,10,,,57,127
51677,note_off,0,0,0,,8,,,68,127
51677,note_off,0,0,0,,5,,,65,127
51678,note_on,1,0,0,,4,,,64,127
51678,note_on,0,0,0,,10,,,69,127
51678,note_on,0,0,0,,10,,,57,127
51678,note_on,0,0,0,,1,,,61,127
51729,note_off,51,0,0,,10,,,69,127
51730,note_on,1,0,0,,7,,,67,127
51781,note_off,51,0,0,,7,,,67,127
51782,note_on,1,0,0,,6,,,66,127
51833,note_off,51,0,0,,6,,,66,127
51834,note_on,1,0,0,,7,,,67,127
52095,note_off,261,0,0,,1,,,61,127
52095,note_off,0,0,0,,10,,,57,127
52096,note_on,1,0,0,,1,,,61,127
52096,note_on,0,0,0,,10,,,57,127
52409,note_off,313,0,0,,10,,,57,127
52409,note_off,0,0,0,,1,,,61,127
52410,note_on,1,0,0,,10,,,57,127
52410,note_on,0,0,0,,1,,,61,127
52514,note_off,104,0,0,,1,,,61,127
52514,note_off,0,0,0,,10,,,57,127
52515,note_on,1,0,0,,10,,,57,127
52515,note_on,0,0,0,,1,,,61,127
52933,note_off,418,0,0,,1,,,61,127
52933,note_off,0,0,0,,10,,,57,127
52933,note_off,0,0,0,,7,,,67,127
52934,note_on,1,0,0,,2,,,74,127
52934,note_on,0,0,0,,10,,,57,127
52934,note_on,0,0,0,,1,,,61,127
53142,note_off,208,0,0,,2,,,74,127
53143,note_on,1,0,0,,11,,,70,127
53351,note_off,208,0,0,,11,,,70,127
53351,note_off,0,0,0,,1,,,61,127
53351,note_off,0,0,0,,10,,,57,127
53351,note_off,0,0,0,,4,,,64,127
53352,note_on,1,0,0,,10,,,69,127
53352,note_on,0,0,0,,4,,,64,127
53352,note_on,0,0,0,,10,,,57,127
53352,note_on,0,0,0,,2,,,62,127
53352,note_on,0,0,0,,11,,,58,127
53403,note_off,51,0,0,,10,,,69,127
53404,note_on,1,0,0,,7,,,67,127
53455,note_off,51,0,0,,7,,,67,127
53456,note_on,1,0,0,,6,,,66,127
53507,note_off,51,0,0,,6,,,66,127
53508,note_on,1,0,0,,7,,,67,127
53769,note_off,261,0,0,,11,,,58,127
53769,note_off,0,0,0,,2,,,62,127
53769,note_off,0,0,0,,10,,,57,127
53770,note_on,1,0,0,,11,,,58,127
53770,note_on,0,0,0,,2,,,62,127
53770,note_on,0,0,0,,10,,,57,127
54083,note_off,313,0,0,,10,,,57,127
54083,note_off,0,0,0,,2,,,62,127
54083,note_off,0,0,0,,11,,,58,127
54084,note_on,1,0,0,,2,,,62,127
54084,note_on,0,0,0,,10,,,57,127
54084,note_on,0,0,0,,11,,,58,127
54188,note_off,104,0,0,,11,,,58,127
54188,note_off,0,0,0,,10,,,57,127
54188,note_off,0,0,0,,2,,,62,127
54189,note_on,1,0,0,,10,,,57,127
54189,note_on,0,0,0,,11,,,58,127
54189,note_on,0,0,0,,2,,,62,127
54607,note_off,418,0,0,,2,,,62,127
54607,note_off,0,0,0,,11,,,58,127
54607,note_off,0,0,0,,10,,,57,127
54607,note_off,0,0,0,,7,,,67,127
54608,note_on,1,0,0,,2,,,74,127
54608,note_on,0,0,0,,2,,,62,127
54608,note_on,0,0,0,,10,,,57,127
54608,note_on,0,0,0,,11,,,58,127
54816,note_off,208,0,0,,2,,,74,127
54817,note_on,1,0,0,,11,,,70,127
55025,note_off,208,0,0,,11,,,70,127
55025,note_off,0,0,0,,11,,,58,127
55025,note_off,0,0,0,,10,,,57,127
55025,note_off,0,0,0,,2,,,62,127
55025,note_off,0,0,0,,4,,,64,127
55026,note_on,1,0,0,,5,,,65,127
55026,note_on,0,0,0,,10,,,69,127
55026,note_on,0,0,0,,12,,,59,127
55026,note_on,0,0,0,,2,,,62,127
55026,note_on,0,0,0,,10,,,57,127
55130,note_off,104,0,0,,10,,,69,127
55131,note_on,1,0,0,,8,,,68,127
55444,note_off,313,0,0,,10,,,57,127
55444,note_off,0,0,0,,2,,,62,127
55444,note_off,0,0,0,,12,,,59,127
55445,note_on,1,0,0,,12,,,59,127
55445,note_on,0,0,0,,2,,,62,127
55445,note_on,0,0,0,,10,,,57,127
55758,note_off,313,0,0,,10,,,57,127
55758,note_off,0,0,0,,2,,,62,127
55758,note_off,0,0,0,,12,,,59,127
55759,note_on,1,0,0,,2,,,62,127
55759,note_on,0,0,0,,10,,,57,127
55759,note_on,0,0,0,,12,,,59,127
55863,note_off,104,0,0,,12,,,59,127
55863,note_off,0,0,0,,10,,,57,127
55863,note_off,0,0,0,,2,,,62,127
55863,note_off,0,0,0,,8,,,68,127
55864,note_on,1,0,0,,2,,,74,127
55864,note_on,0,0,0,,2,,,62,127
55864,note_on,0,0,0,,10,,,57,127
55864,note_on,0,0,0,,12,,,59,127
56072,note_off,208,0,0,,2,,,74,127
56073,note_on,1,0,0,,12,,,71,127
56281,note_off,208,0,0,,12,,,71,127
56281,note_off,0,0,0,,12,,,59,127
56281,note_off,0,0,0,,10,,,57,127
56281,note_off,0,0,0,,2,,,62,127
56281,note_off,0,0,0,,5,,,65,127
56282,note_on,1,0,0,,5,,,77,127
56282,note_on,0,0,0,,2,,,62,127
56282,note_on,0,0,0,,10,,,57,127
56282,note_on,0,0,0,,12,,,59,127
56490,note_off,208,0,0,,5,,,77,127
56491,note_on,1,0,0,,2,,,74,127
56699,note_off,208,0,0,,2,,,74,127
56699,note_off,0,0,0,,12,,,59,127
56699,note_off,0,0,0,,10,,,57,127
56699,note_off,0,0,0,,2,,,62,127
56700,note_on,1,0,0,,4,,,64,127
56700,note_on,0,0,0,,10,,,69,127
56700,note_on,0,0,0,,2,,,74,127
56700,note_on,0,0,0,,10,,,45,127
57327,note_off,627,0,0,,2,,,74,127
57327,note_off,0,0,0,,10,,,69,127
57328,note_on,1,0,0,,1,,,73,127
57432,note_off,104,0,0,,1,,,73,127
57433,note_on,1,0,0,,12,,,71,127
57537,note_off,104,0,0,,12,,,71,127
57537,note_off,0,0,0,,4,,,64,127
57538,note_on,1,0,0,,10,,,69,127
57538,note_on,0,0,0,,10,,,33,127
58271,note_off,733,0,0,,10,,,45,127
58345,note_off,74,0,0,,10,,,33,127
58345,note_off,0,0,0,,10,,,69,127
58376,note_on,31,0,0,,6,,,66,127
58376,note_on,0,0,0,,10,,,69,127
58376,note_on,0,0,0,,3,,,75,127
58376,note_on,0,0,0,,6,,,42,127
58376,note_on,0,0,0,,4,,,40,127
58376,note_on,0,0,0,,12,,,47,127
58376,note_on,0,0,0,,12,,,35,127
58794,note_off,418,0,0,,10,,,69,127
58795,note_on,1,0,0,,10,,,69,127
59108,note_off,313,0,0,,10,,,69,127
59109,note_on,1,0,0,,10,,,69,127
59213,note_off,104,0,0,,10,,,69,127
59214,note_on,1,0,0,,10,,,69,127
59632,note_off,418,0,0,,10,,,69,127
59632,note_off,0,0,0,,12,,,35,127
59632,note_off,0,0,0,,12,,,47,127
59632,note_off,0,0,0,,4,,,40,127
59632,note_off,0,0,0,,6,,,42,127
59632,note_off,0,0,0,,3,,,75,127
59632,note_off,0,0,0,,6,,,66,127
59633,note_on,1,0,0,,10,,,69,127
59633,note_on,0,0,0,,3,,,75,127
59633,note_on,0,0,0,,6,,,66,127
59633,note_on,0,0,0,,12,,,47,127
59633,note_on,0,0,0,,6,,,42,127
59633,note_on,0,0,0,,4,,,40,127
59633,note_on,0,0,0,,12,,,35,127
60051,note_off,418,0,0,,12,,,35,127
60051,note_off,0,0,0,,4,,,40,127
60051,note_off,0,0,0,,6,,,42,127
60051,note_off,0,0,0,,12,,,47,127
60051,note_off,0,0,0,,6,,,66,127
60051,note_off,0,0,0,,3,,,75,127
60051,note_off,0,0,0,,10,,,69,127
60052,note_on,1,0,0,,8,,,80,127
60052,note_on,0,0,0,,12,,,71,127
60052,note_on,0,0,0,,2,,,74,127
60052,note_on,0,0,0,,4,,,52,127
60052,note_on,0,0,0,,12,,,47,127
60052,note_on,0,0,0,,10,,,45,127
60052,note_on,0,0,0,,4,,,40,127
60470,note_off,418,0,0,,2,,,74,127
60471,note_on,1,0,0,,2,,,74,127
60784,note_off,313,0,0,,2,,,74,127
60785,note_on,1,0,0,,2,,,74,127
60889,note_off,104,0,0,,2,,,74,127
60890,note_on,1,0,0,,2,,,74,127
61308,note_off,418,0,0,,2,,,74,127
61308,note_off,0,0,0,,4,,,40,127
61308,note_off,0,0,0,,10,,,45,127
61308,note_off,0,0,0,,12,,,47,127
61308,note_off,0,0,0,,4,,,52,127
61308,note_off,0,0,0,,12,,,71,127
61308,note_off,0,0,0,,8,,,80,127
61309,note_on,1,0,0,,2,,,74,127
61309,note_on,0,0,0,,12,,,71,127
61309,note_on,0,0,0,,8,,,80,127
61309,note_on,0,0,0,,4,,,52,127
61309,note_on,0,0,0,,10,,,45,127
61309,note_on,0,0,0,,12,,,47,127
61309,note_on,0,0,0,,4,,,40,127
61727,note_off,418,0,0,,4,,,40,127
61727,note_off,0,0,0,,12,,,47,127
61727,note_off,0,0,0,,10,,,45,127
61727,note_off,0,0,0,,4,,,52,127
61727,note_off,0,0,0,,8,,,80,127
61727,note_off,0,0,0,,12,,,71,127
61727,note_off,0,0,0,,2,,,74,127
61728,note_on,1,0,0,,4,,,76,127
61728,note_on,0,0,0,,7,,,79,127
61728,note_on,0,0,0,,1,,,85,127
61728,note_on,0,0,0,,10,,,57,127
61728,note_on,0,0,0,,4,,,52,127
61728,note_on,0,0,0,,10,,,45,127
61728,note_on,0,0,0,,2,,,50,127
62146,note_off,418,0,0,,7,,,79,127
62147,note_on,1,0,0,,7,,,79,127
62460,note_off,313,0,0,,7,,,79,127
62461,note_on,1,0,0,,7,,,79,127
62565,note_off,104,0,0,,7,,,79,127
62566,note_on,1,0,0,,7,,,79,127
62984,note_off,418,0,0,,7,,,79,127
62984,note_off,0,0,0,,2,,,50,127
62984,note_off,0,0,0,,10,,,45,127
62984,note_off,0,0,0,,4,,,52,127
62984,note_off,0,0,0,,10,,,57,127
62984,note_off,0,0,0,,1,,,85,127
62984,note_off,0,0,0,,4,,,76,127
62985,note_on,1,0,0,,7,,,79,127
62985,note_on,0,0,0,,1,,,85,127
62985,note_on,0,0,0,,4,,,76,127
62985,note_on,0,0,0,,10,,,57,127
62985,note_on,0,0,0,,2,,,50,127
62985,note_on,0,0,0,,4,,,52,127
62985,note_on,0,0,0,,10,,,45,127
63403,note_off,418,0,0,,10,,,45,127
63403,note_off,0,0,0,,4,,,52,127
63403,note_off,0,0,0,,2,,,50,127
63403,note_off,0,0,0,,10,,,57,127
63403,note_off,0,0,0,,4,,,76,127
63403,note_off,0,0,0,,1,,,85,127
63403,note_off,0,0,0,,7,,,79,127
63404,note_on,1,0,0,,2,,,86,127
63404,note_on,0,0,0,,2,,,38,127
63508,note_off,104,0,0,,2,,,86,127
63509,note_on,1,0,0,,6,,,78,127
63822,note_off,313,0,0,,6,,,78,127
63822,note_off,0,0,0,,2,,,38,127
63823,note_on,1,0,0,,10,,,81,127
63823,note_on,0,0,0,,2,,,38,127
63927,note_off,104,0,0,,10,,,81,127
63928,note_on,1,0,0,,2,,,74,127
64241,note_off,313,0,0,,2,,,74,127
64241,note_off,0,0,0,,2,,,38,127
64242,note_on,1,0,0,,6,,,78,127
64242,note_on,0,0,0,,2,,,38,127
64346,note_off,104,0,0,,6,,,78,127
64347,note_on,1,0,0,,10,,,69,127
64660,note_off,313,0,0,,10,,,69,127
64660,note_off,0,0,0,,2,,,38,127
64661,note_on,1,0,0,,2,,,74,127
64661,note_on,0,0,0,,2,,,38,127
64765,note_off,104,0,0,,2,,,74,127
64766,note_on,1,0,0,,6,,,66,127
65079,note_off,313,0,0,,6,,,66,127
65079,note_off,0,0,0,,2,,,38,127
65080,note_on,1,0,0,,10,,,69,127
65080,note_on,0,0,0,,4,,,40,127
65184,note_off,104,0,0,,10,,,69,127
65185,note_on,1,0,0,,1,,,61,127
65498,note_off,313,0,0,,1,,,61,127
65498,note_off,0,0,0,,4,,,40,127
65499,note_on,1,0,0,,4,,,64,127
65499,note_on,0,0,0,,4,,,40,127
65603,note_off,104,0,0,,4,,,64,127
65604,note_on,1,0,0,,10,,,57,127
65917,note_off,313,0,0,,10,,,57,127
65917,note_off,0,0,0,,4,,,40,127
65918,note_on,1,0,0,,10,,,57,127
65918,note_on,0,0,0,,4,,,40,127
66126,note_off,208,0,0,,10,,,57,127
66135,note_on,9,0,0,,12,,,59,127
66198,note_off,63,0,0,,12,,,59,127
66206,note_on,8,0,0,,10,,,57,127
66269,note_off,63,0,0,,10,,,57,127
66279,note_on,10,0,0,,12,,,59,127
66336,note_off,57,0,0,,4,,,40,127
66343,note_off,7,0,0,,12,,,59,127
66351,note_on,8,0,0,,1,,,61,127
66414,note_off,63,0,0,,1,,,61,127
66423,note_on,9,0,0,,4,,,40,127
66423,note_on,0,0,0,,1,,,61,127
66486,note_off,63,0,0,,1,,,61,127
66495,note_on,9,0,0,,12,,,59,127
66558,note_off,63,0,0,,12,,,59,127
66567,note_on,9,0,0,,1,,,61,127
66630,note_off,63,0,0,,1,,,61,127
66637,note_on,7,0,0,,12,,,59,127
66700,note_off,63,0,0,,12,,,59,127
66709,note_on,9,0,0,,1,,,61,127
66772,note_off,63,0,0,,1,,,61,127
66781,note_on,9,0,0,,12,,,59,127
66844,note_off,63,0,0,,12,,,59,127
66853,note_on,9,0,0,,10,,,57,127
66916,note_off,63,0,0,,10,,,57,127
66924,note_on,8,0,0,,12,,,59,127
66948,note_off,24,0,0,,4,,,40,127
66987,note_off,39,0,0,,12,,,59,127
66997,note_on,10,0,0,,10,,,33,127
66997,note_on,0,0,0,,10,,,57,127
68433,note_off,1436,0,0,,10,,,57,127
68433,note_off,0,0,0,,10,,,33,127
68747,note_on,314,0,0,,8,,,68,127
68851,note_off,104,0,0,,8,,,68,127
68852,note_on,1,0,0,,6,,,66,127
68956,note_off,104,0,0,,6,,,66,127
68957,note_on,1,0,0,,4,,,64,127
69061,note_off,104,0,0,,4,,,64,127
69062,note_on,1,0,0,,6,,,66,127
69166,note_off,104,0,0,,6,,,66,127
69167,note_on,1,0,0,,8,,,68,127
69271,note_off,104,0,0,,8,,,68,127
69272,note_on,1,0,0,,10,,,69,127
69323,note_off,51,0,0,,10,,,69,127
69324,note_on,1,0,0,,12,,,71,127
69375,note_off,51,0,0,,12,,,71,127
69376,note_on,1,0,0,,1,,,73,127
69427,note_off,51,0,0,,1,,,73,127
69428,note_on,1,0,0,,2,,,74,127
69479,note_off,51,0,0,,2,,,74,127
69480,note_on,1,0,0,,4,,,76,127
69531,note_off,51,0,0,,4,,,76,127
69532,note_on,1,0,0,,6,,,78,127
69583,note_off,51,0,0,,6,,,78,127
69584,note_on,1,0,0,,6,,,78,127
69618,note_off,34,0,0,,6,,,78,127
69619,note_on,1,0,0,,4,,,76,127
69653,note_off,34,0,0,,4,,,76,127
69654,note_on,1,0,0,,6,,,78,127
69688,note_off,34,0,0,,6,,,78,127
69689,note_on,1,0,0,,4,,,76,127
70002,note_off,313,0,0,,4,,,76,127
70003,note_on,1,0,0,,4,,,76,127
70421,note_off,418,0,0,,4,,,76,127
70422,note_on,1,0,0,,6,,,54,127
70526,note_off,104,0,0,,6,,,54,127
70527,note_on,1,0,0,,4,,,52,127
70631,note_off,104,0,0,,4,,,52,127
70632,note_on,1,0,0,,2,,,50,127
70736,note_off,104,0,0,,2,,,50,127
70737,note_on,1,0,0,,1,,,49,127
70788,note_off,51,0,0,,1,,,49,127
70789,note_on,1,0,0,,2,,,50,127
70840,note_off,51,0,0,,2,,,50,127
70841,note_on,1,0,0,,4,,,52,127
70892,note_off,51,0,0,,4,,,52,127
70893,note_on,1,0,0,,6,,,54,127
70944,note_off,51,0,0,,6,,,54,127
70945,note_on,1,0,0,,8,,,56,127
70996,note_off,51,0,0,,8,,,56,127
70997,note_on,1,0,0,,10,,,57,127
71048,note_off,51,0,0,,10,,,57,127
71049,note_on,1,0,0,,12,,,59,127
71100,note_off,51,0,0,,12,,,59,127
71101,note_on,1,0,0,,1,,,61,127
71152,note_off,51,0,0,,1,,,61,127
71153,note_on,1,0,0,,2,,,62,127
71204,note_off,51,0,0,,2,,,62,127
71205,note_on,1,0,0,,4,,,64,127
71256,note_off,51,0,0,,4,,,64,127
71257,note_on,1,0,0,,4,,,64,127
71291,note_off,34,0,0,,4,,,64,127
71292,note_on,1,0,0,,2,,,62,127
71326,note_off,34,0,0,,2,,,62,127
71327,note_on,1,0,0,,4,,,64,127
71361,note_off,34,0,0,,4,,,64,127
71362,note_on,1,0,0,,2,,,62,127
71675,note_off,313,0,0,,2,,,62,127
71676,note_on,1,0,0,,2,,,62,127
72094,note_off,418,0,0,,2,,,62,127
72095,note_on,1,0,0,,6,,,78,127
72095,note_on,0,0,0,,4,,,40,127
72303,note_off,208,0,0,,6,,,78,127
72304,note_on,1,0,0,,2,,,74,127
72512,note_off,208,0,0,,2,,,74,127
72512,note_off,0,0,0,,4,,,40,127
72513,note_on,1,0,0,,4,,,64,127
72513,note_on,0,0,0,,1,,,73,127
72513,note_on,0,0,0,,4,,,40,127
72826,note_off,313,0,0,,1,,,73,127
72826,note_off,0,0,0,,4,,,64,127
72827,note_on,1,0,0,,2,,,62,127
72827,note_on,0,0,0,,12,,,71,127
72931,note_off,104,0,0,,12,,,71,127
72931,note_off,0,0,0,,2,,,62,127
72931,note_off,0,0,0,,4,,,40,127
72932,note_on,1,0,0,,10,,,69,127
72932,note_on,0,0,0,,1,,,61,127
72932,note_on,0,0,0,,4,,,40,127
73350,note_off,418,0,0,,4,,,40,127
73350,note_off,0,0,0,,1,,,61,127
73350,note_off,0,0,0,,10,,,69,127
73351,note_on,1,0,0,,12,,,59,127
73351,note_on,0,0,0,,8,,,68,127
73351,note_on,0,0,0,,4,,,40,127
73769,note_off,418,0,0,,4,,,40,127
73769,note_off,0,0,0,,8,,,68,127
73769,note_off,0,0,0,,12,,,59,127
73770,note_on,1,0,0,,1,,,61,127
73770,note_on,0,0,0,,10,,,69,127
73770,note_on,0,0,0,,10,,,45,127
73978,note_off,208,0,0,,10,,,69,127
73978,note_off,0,0,0,,1,,,61,127
73979,note_on,1,0,0,,1,,,85,127
73979,note_on,0,0,0,,4,,,76,127
74187,note_off,208,0,0,,4,,,76,127
74187,note_off,0,0,0,,1,,,85,127
74187,note_off,0,0,0,,10,,,45,127
74188,note_on,1,0,0,,10,,,81,127
74188,note_on,0,0,0,,1,,,73,127
74188,note_on,0,0,0,,10,,,45,127
74396,note_off,208,0,0,,1,,,73,127
74396,note_off,0,0,0,,10,,,81,127
74397,note_on,1,0,0,,10,,,69,127
74397,note_on,0,0,0,,6,,,78,127
74605,note_off,208,0,0,,6,,,78,127
74605,note_off,0,0,0,,10,,,69,127
74605,note_off,0,0,0,,10,,,45,127
74606,note_on,1,0,0,,6,,,66,127
74606,note_on,0,0,0,,2,,,74,127
74606,note_on,0,0,0,,2,,,38,127
74814,note_off,208,0,0,,2,,,74,127
74814,note_off,0,0,0,,6,,,66,127
74815,note_on,1,0,0,,2,,,62,127
74815,note_on,0,0,0,,12,,,71,127
75023,note_off,208,0,0,,12,,,71,127
75023,note_off,0,0,0,,2,,,62,127
75023,note_off,0,0,0,,2,,,38,127
75024,note_on,1,0,0,,12,,,59,127
75024,note_on,0,0,0,,8,,,68,127
75024,note_on,0,0,0,,2,,,38,127
75232,note_off,208,0,0,,8,,,68,127
75233,note_on,1,0,0,,2,,,62,127
75441,note_off,208,0,0,,2,,,62,127
75441,note_off,0,0,0,,2,,,38,127
75441,note_off,0,0,0,,12,,,59,127
75442,note_on,1,0,0,,10,,,57,127
75442,note_on,0,0,0,,1,,,61,127
75442,note_on,0,0,0,,4,,,40,127
75546,note_off,104,0,0,,1,,,61,127
75547,note_on,1,0,0,,2,,,62,127
75651,note_off,104,0,0,,2,,,62,127
75652,note_on,1,0,0,,4,,,64,127
75913,note_off,261,0,0,,4,,,40,127
75914,note_on,1,0,0,,4,,,40,127
76070,note_off,156,0,0,,4,,,64,127
76071,note_on,1,0,0,,1,,,61,127
76175,note_off,104,0,0,,1,,,61,127
76176,note_on,1,0,0,,12,,,59,127
76280,note_off,104,0,0,,12,,,59,127
76280,note_off,0,0,0,,4,,,40,127
76280,note_off,0,0,0,,10,,,57,127
76281,note_on,1,0,0,,10,,,57,127
76281,note_on,0,0,0,,4,,,64,127
76281,note_on,0,0,0,,4,,,40,127
76489,note_off,208,0,0,,10,,,57,127
76490,note_on,1,0,0,,12,,,59,127
76541,note_off,51,0,0,,12,,,59,127
76542,note_on,1,0,0,,10,,,57,127
76593,note_off,51,0,0,,10,,,57,127
76594,note_on,1,0,0,,12,,,59,127
76645,note_off,51,0,0,,12,,,59,127
76646,note_on,1,0,0,,1,,,61,127
76697,note_off,51,0,0,,1,,,61,127
76697,note_off,0,0,0,,4,,,40,127
76698,note_on,1,0,0,,1,,,61,127
76698,note_on,0,0,0,,4,,,40,127
76749,note_off,51,0,0,,1,,,61,127
76750,note_on,1,0,0,,12,,,59,127
76801,note_off,51,0,0,,12,,,59,127
76802,note_on,1,0,0,,1,,,61,127
76853,note_off,51,0,0,,1,,,61,127
76854,note_on,1,0,0,,12,,,59,127
76905,note_off,51,0,0,,12,,,59,127
76906,note_on,1,0,0,,1,,,61,127
76957,note_off,51,0,0,,1,,,61,127
76958,note_on,1,0,0,,12,,,59,127
77009,note_off,51,0,0,,12,,,59,127
77010,note_on,1,0,0,,10,,,57,127
77061,note_off,51,0,0,,10,,,57,127
77062,note_on,1,0,0,,12,,,59,127
77113,note_off,51,0,0,,12,,,59,127
77113,note_off,0,0,0,,4,,,40,127
77113,note_off,0,0,0,,4,,,64,127
77114,note_on,1,0,0,,10,,,57,127
77114,note_on,0,0,0,,10,,,45,127
77322,note_off,208,0,0,,10,,,57,127
77323,note_on,1,0,0,,4,,,76,127
77323,note_on,0,0,0,,1,,,85,127
77531,note_off,208,0,0,,1,,,85,127
77531,note_off,0,0,0,,4,,,76,127
77531,note_off,0,0,0,,10,,,45,127
77532,note_on,1,0,0,,1,,,73,127
77532,note_on,0,0,0,,10,,,81,127
77532,note_on,0,0,0,,10,,,45,127
77740,note_off,208,0,0,,10,,,81,127
77740,note_off,0,0,0,,1,,,73,127
77741,note_on,1,0,0,,10,,,69,127
77741,note_on,0,0,0,,6,,,78,127
77949,note_off,208,0,0,,6,,,78,127
77949,note_off,0,0,0,,10,,,69,127
77949,note_off,0,0,0,,10,,,45,127
77950,note_on,1,0,0,,6,,,66,127
77950,note_on,0,0,0,,2,,,74,127
77950,note_on,0,0,0,,2,,,38,127
78158,note_off,208,0,0,,2,,,74,127
78158,note_off,0,0,0,,6,,,66,127
78159,note_on,1,0,0,,12,,,71,127
78159,note_on,0,0,0,,2,,,62,127
78367,note_off,208,0,0,,2,,,62,127
78367,note_off,0,0,0,,12,,,71,127
78367,note_off,0,0,0,,2,,,38,127
78368,note_on,1,0,0,,8,,,68,127
78368,note_on,0,0,0,,12,,,59,127
78368,note_on,0,0,0,,2,,,38,127
78576,note_off,208,0,0,,8,,,68,127
78577,note_on,1,0,0,,2,,,62,127
78785,note_off,208,0,0,,2,,,62,127
78785,note_off,0,0,0,,2,,,38,127
78785,note_off,0,0,0,,12,,,59,127
78786,note_on,1,0,0,,1,,,61,127
78786,note_on,0,0,0,,10,,,57,127
78786,note_on,0,0,0,,4,,,40,127
78994,note_off,208,0,0,,1,,,61,127
78995,note_on,1,0,0,,3,,,63,127
79203,note_off,208,0,0,,4,,,40,127
79204,note_on,1,0,0,,4,,,40,127
79412,note_off,208,0,0,,3,,,63,127
79413,note_on,1,0,0,,4,,,64,127
79464,note_off,51,0,0,,4,,,64,127
79465,note_on,1,0,0,,2,,,62,127
79516,note_off,51,0,0,,2,,,62,127
79517,note_on,1,0,0,,1,,,61,127
79568,note_off,51,0,0,,1,,,61,127
79569,note_on,1,0,0,,12,,,59,127
79620,note_off,51,0,0,,12,,,59,127
79620,note_off,0,0,0,,4,,,40,127
79620,note_off,0,0,0,,10,,,57,127
79621,note_on,1,0,0,,10,,,57,127
79621,note_on,0,0,0,,4,,,40,127
79829,note_off,208,0,0,,10,,,57,127
79833,note_on,4,0,0,,12,,,59,127
79888,note_off,55,0,0,,12,,,59,127
79889,note_on,1,0,0,,10,,,57,127
79944,note_off,55,0,0,,10,,,57,127
79946,note_on,2,0,0,,8,,,56,127
80001,note_off,55,0,0,,8,,,56,127
80003,note_on,2,0,0,,6,,,54,127
80039,note_off,36,0,0,,4,,,40,127
80058,note_off,19,0,0,,6,,,54,127
80060,note_on,2,0,0,,4,,,52,127
80060,note_on,0,0,0,,4,,,40,127
80170,note_off,110,0,0,,4,,,52,127
80175,note_on,5,0,0,,12,,,59,127
80296,note_off,121,0,0,,12,,,59,127
80303,note_on,7,0,0,,1,,,61,127
80362,note_off,59,0,0,,1,,,61,127
80366,note_on,4,0,0,,12,,,59,127
80425,note_off,59,0,0,,12,,,59,127
80428,note_on,3,0,0,,1,,,61,127
80487,note_off,59,0,0,,1,,,61,127
80491,note_on,4,0,0,,12,,,59,127
80511,note_off,20,0,0,,4,,,40,127
80550,note_off,39,0,0,,12,,,59,127
80554,note_on,4,0,0,,10,,,57,127
80613,note_off,59,0,0,,10,,,57,127
80617,note_on,4,0,0,,12,,,59,127
80676,note_off,59,0,0,,12,,,59,127
80680,note_on,4,0,0,,10,,,57,127
80680,note_on,0,0,0,,10,,,45,127
82281,note_off,1601,0,0,,10,,,45,127
82386,note_off,105,0,0,,10,,,57,127
82395,note_on,9,0,0,,4,,,64,127
82395,note_on,0,0,0,,10,,,57,127
82813,note_off,418,0,0,,10,,,57,127
82813,note_off,0,0,0,,4,,,64,127
82814,note_on,1,0,0,,4,,,64,127
82814,note_on,0,0,0,,10,,,57,127
83127,note_off,313,0,0,,10,,,57,127
83127,note_off,0,0,0,,4,,,64,127
83128,note_on,1,0,0,,4,,,64,127
83128,note_on,0,0,0,,10,,,57,127
83232,note_off,104,0,0,,10,,,57,127
83232,note_off,0,0,0,,4,,,64,127
83233,note_on,1,0,0,,4,,,64,127
83233,note_on,0,0,0,,10,,,57,127
83651,note_off,418,0,0,,10,,,57,127
83651,note_off,0,0,0,,4,,,64,127
83652,note_on,1,0,0,,4,,,64,127
83652,note_on,0,0,0,,10,,,57,127
84070,note_off,418,0,0,,10,,,57,127
84070,note_off,0,0,0,,4,,,64,127
84071,note_on,1,0,0,,6,,,78,127
84071,note_on,0,0,0,,4,,,64,127
84071,note_on,0,0,0,,8,,,56,127
84071,note_on,0,0,0,,2,,,62,127
84279,note_off,208,0,0,,6,,,78,127
84280,note_on,1,0,0,,4,,,76,127
84488,note_off,208,0,0,,2,,,62,127
84488,note_off,0,0,0,,8,,,56,127
84488,note_off,0,0,0,,4,,,64,127
84489,note_on,1,0,0,,2,,,62,127
84489,note_on,0,0,0,,4,,,64,127
84489,note_on,0,0,0,,8,,,56,127
84802,note_off,313,0,0,,8,,,56,127
84802,note_off,0,0,0,,4,,,64,127
84802,note_off,0,0,0,,2,,,62,127
84803,note_on,1,0,0,,2,,,62,127
84803,note_on,0,0,0,,4,,,64,127
84803,note_on,0,0,0,,8,,,56,127
84907,note_off,104,0,0,,8,,,56,127
84907,note_off,0,0,0,,4,,,64,127
84907,note_off,0,0,0,,2,,,62,127
84908,note_on,1,0,0,,2,,,62,127
84908,note_on,0,0,0,,4,,,64,127
84908,note_on,0,0,0,,8,,,56,127
85326,note_off,418,0,0,,8,,,56,127
85326,note_off,0,0,0,,4,,,64,127
85326,note_off,0,0,0,,2,,,62,127
85327,note_on,1,0,0,,2,,,62,127
85327,note_on,0,0,0,,4,,,64,127
85327,note_on,0,0,0,,8,,,56,127
85745,note_off,418,0,0,,8,,,56,127
85745,note_off,0,0,0,,4,,,64,127
85745,note_off,0,0,0,,2,,,62,127
85745,note_off,0,0,0,,4,,,76,127
85746,note_on,1,0,0,,6,,,78,127
85746,note_on,0,0,0,,4,,,64,127
85746,note_on,0,0,0,,1,,,61,127
85746,note_on,0,0,0,,10,,,57,127
85954,note_off,208,0,0,,6,,,78,127
85955,note_on,1,0,0,,4,,,76,127
86163,note_off,208,0,0,,10,,,57,127
86163,note_off,0,0,0,,1,,,61,127
86163,note_off,0,0,0,,4,,,64,127
86164,note_on,1,0,0,,4,,,64,127
86164,note_on,0,0,0,,1,,,61,127
86164,note_on,0,0,0,,10,,,57,127
86477,note_off,313,0,0,,10,,,57,127
86477,note_off,0,0,0,,1,,,61,127
86477,note_off,0,0,0,,4,,,64,127
86478,note_on,1,0,0,,1,,,61,127
86478,note_on,0,0,0,,4,,,64,127
86478,note_on,0,0,0,,10,,,57,127
86582,note_off,104,0,0,,10,,,57,127
86582,note_off,0,0,0,,4,,,64,127
86582,note_off,0,0,0,,1,,,61,127
86583,note_on,1,0,0,,4,,,64,127
86583,note_on,0,0,0,,10,,,57,127
86583,note_on,0,0,0,,1,,,61,127
87001,note_off,418,0,0,,1,,,61,127
87001,note_off,0,0,0,,10,,,57,127
87001,note_off,0,0,0,,4,,,64,127
87002,note_on,1,0,0,,10,,,57,127
87002,note_on,0,0,0,,1,,,61,127
87002,note_on,0,0,0,,4,,,64,127
87420,note_off,418,0,0,,4,,,64,127
87420,note_off,0,0,0,,1,,,61,127
87420,note_off,0,0,0,,10,,,57,127
87420,note_off,0,0,0,,4,,,76,127
87421,note_on,1,0,0,,6,,,78,127
87421,note_on,0,0,0,,1,,,61,127
87421,note_on,0,0,0,,4,,,64,127
87421,note_on,0,0,0,,7,,,55,127
87629,note_off,208,0,0,,6,,,78,127
87630,note_on,1,0,0,,4,,,76,127
87838,note_off,208,0,0,,7,,,55,127
87838,note_off,0,0,0,,4,,,64,127
87838,note_off,0,0,0,,1,,,61,127
87839,note_on,1,0,0,,1,,,61,127
87839,note_on,0,0,0,,4,,,64,127
87839,note_on,0,0,0,,7,,,55,127
88152,note_off,313,0,0,,7,,,55,127
88152,note_off,0,0,0,,4,,,64,127
88152,note_off,0,0,0,,1,,,61,127
88153,note_on,1,0,0,,4,,,64,127
88153,note_on,0,0,0,,7,,,55,127
88153,note_on,0,0,0,,1,,,61,127
88257,note_off,104,0,0,,1,,,61,127
88257,note_off,0,0,0,,7,,,55,127
88257,note_off,0,0,0,,4,,,64,127
88258,note_on,1,0,0,,1,,,61,127
88258,note_on,0,0,0,,4,,,64,127
88258,note_on,0,0,0,,7,,,55,127
88258,note_on,0,0,0,,12,,,59,127
88676,note_off,418,0,0,,12,,,59,127
88676,note_off,0,0,0,,7,,,55,127
88676,note_off,0,0,0,,4,,,64,127
88676,note_off,0,0,0,,1,,,61,127
88677,note_on,1,0,0,,7,,,55,127
88677,note_on,0,0,0,,12,,,59,127
88677,note_on,0,0,0,,1,,,61,127
88677,note_on,0,0,0,,4,,,64,127
89095,note_off,418,0,0,,4,,,64,127
89095,note_off,0,0,0,,1,,,61,127
89095,note_off,0,0,0,,12,,,59,127
89095,note_off,0,0,0,,7,,,55,127
89095,note_off,0,0,0,,4,,,76,127
89096,note_on,1,0,0,,6,,,78,127
89096,note_on,0,0,0,,4,,,64,127
89096,note_on,0,0,0,,11,,,58,127
89096,note_on,0,0,0,,1,,,61,127
89096,note_on,0,0,0,,6,,,54,127
89304,note_off,208,0,0,,6,,,78,127
89305,note_on,1,0,0,,4,,,76,127
89513,note_off,208,0,0,,6,,,54,127
89513,note_off,0,0,0,,1,,,61,127
89513,note_off,0,0,0,,11,,,58,127
89513,note_off,0,0,0,,4,,,64,127
89514,note_on,1,0,0,,1,,,61,127
89514,note_on,0,0,0,,4,,,64,127
89514,note_on,0,0,0,,6,,,54,127
89514,note_on,0,0,0,,11,,,58,127
89827,note_off,313,0,0,,11,,,58,127
89827,note_off,0,0,0,,6,,,54,127
89827,note_off,0,0,0,,4,,,64,127
89827,note_off,0,0,0,,1,,,61,127
89828,note_on,1,0,0,,4,,,64,127
89828,note_on,0,0,0,,11,,,58,127
89828,note_on,0,0,0,,1,,,61,127
89828,note_on,0,0,0,,6,,,54,127
89932,note_off,104,0,0,,6,,,54,127
89932,note_off,0,0,0,,1,,,61,127
89932,note_off,0,0,0,,11,,,58,127
89932,note_off,0,0,0,,4,,,64,127
89933,note_on,1,0,0,,4,,,64,127
89933,note_on,0,0,0,,11,,,58,127
89933,note_on,0,0,0,,1,,,61,127
89933,note_on,0,0,0,,6,,,54,127
90351,note_off,418,0,0,,6,,,54,127
90351,note_off,0,0,0,,1,,,61,127
90351,note_off,0,0,0,,11,,,58,127
90351,note_off,0,0,0,,4,,,64,127
90352,note_on,1,0,0,,4,,,64,127
90352,note_on,0,0,0,,11,,,58,127
90352,note_on,0,0,0,,1,,,61,127
90352,note_on,0,0,0,,6,,,54,127
90770,note_off,418,0,0,,6,,,54,127
90770,note_off,0,0,0,,1,,,61,127
90770,note_off,0,0,0,,11,,,58,127
90770,note_off,0,0,0,,4,,,64,127
90770,note_off,0,0,0,,4,,,76,127
90771,note_on,1,0,0,,6,,,78,127
90771,note_on,0,0,0,,4,,,64,127
90771,note_on,0,0,0,,11,,,58,127
90771,note_on,0,0,0,,1,,,61,127
90771,note_on,0,0,0,,7,,,55,127
90979,note_off,208,0,0,,6,,,78,127
90980,note_on,1,0,0,,4,,,76,127
91188,note_off,208,0,0,,7,,,55,127
91188,note_off,0,0,0,,1,,,61,127
91188,note_off,0,0,0,,11,,,58,127
91188,note_off,0,0,0,,4,,,64,127
91189,note_on,1,0,0,,4,,,64,127
91189,note_on,0,0,0,,11,,,58,127
91189,note_on,0,0,0,,1,,,61,127
91189,note_on,0,0,0,,7,,,55,127
91502,note_off,313,0,0,,7,,,55,127
91502,note_off,0,0,0,,1,,,61,127
91502,note_off,0,0,0,,11,,,58,127
91502,note_off,0,0,0,,4,,,64,127
91503,note_on,1,0,0,,4,,,64,127
91503,note_on,0,0,0,,1,,,61,127
91503,note_on,0,0,0,,7,,,55,127
91503,note_on,0,0,0,,11,,,58,127
91607,note_off,104,0,0,,11,,,58,127
91607,note_off,0,0,0,,7,,,55,127
91607,note_off,0,0,0,,1,,,61,127
91607,note_off,0,0,0,,4,,,64,127
91608,note_on,1,0,0,,1,,,61,127
91608,note_on,0,0,0,,4,,,64,127
91608,note_on,0,0,0,,7,,,55,127
91608,note_on,0,0,0,,11,,,58,127
92026,note_off,418,0,0,,11,,,58,127
92026,note_off,0,0,0,,7,,,55,127
92026,note_off,0,0,0,,4,,,64,127
92026,note_off,0,0,0,,1,,,61,127
92027,note_on,1,0,0,,1,,,61,127
92027,note_on,0,0,0,,4,,,64,127
92027,note_on,0,0,0,,7,,,55,127
92027,note_on,0,0,0,,11,,,58,127
92445,note_off,418,0,0,,11,,,58,127
92445,note_off,0,0,0,,7,,,55,127
92445,note_off,0,0,0,,4,,,64,127
92445,note_off,0,0,0,,1,,,61,127
92445,note_off,0,0,0,,4,,,76,127
92446,note_on,1,0,0,,6,,,78,127
92446,note_on,0,0,0,,4,,,64,127
92446,note_on,0,0,0,,1,,,61,127
92446,note_on,0,0,0,,8,,,56,127
92654,note_off,208,0,0,,6,,,78,127
92655,note_on,1,0,0,,4,,,76,127
92863,note_off,208,0,0,,8,,,56,127
92863,note_off,0,0,0,,1,,,61,127
92863,note_off,0,0,0,,4,,,64,127
92864,note_on,1,0,0,,1,,,61,127
92864,note_on,0,0,0,,4,,,64,127
92864,note_on,0,0,0,,8,,,56,127
93177,note_off,313,0,0,,8,,,56,127
93177,note_off,0,0,0,,4,,,64,127
93177,note_off,0,0,0,,1,,,61,127
93178,note_on,1,0,0,,4,,,64,127
93178,note_on,0,0,0,,1,,,61,127
93178,note_on,0,0,0,,8,,,56,127
93282,note_off,104,0,0,,8,,,56,127
93282,note_off,0,0,0,,1,,,61,127
93282,note_off,0,0,0,,4,,,64,127
93283,note_on,1,0,0,,4,,,64,127
93283,note_on,0,0,0,,1,,,61,127
93283,note_on,0,0,0,,8,,,56,127
93701,note_off,418,0,0,,8,,,56,127
93701,note_off,0,0,0,,1,,,61,127
93701,note_off,0,0,0,,4,,,64,127
93702,note_on,1,0,0,,4,,,64,127
93702,note_on,0,0,0,,1,,,61,127
93702,note_on,0,0,0,,8,,,56,127
94120,note_off,418,0,0,,8,,,56,127
94120,note_off,0,0,0,,1,,,61,127
94120,note_off,0,0,0,,4,,,64,127
94120,note_off,0,0,0,,4,,,76,127
94121,note_on,1,0,0,,6,,,78,127
94121,note_on,0,0,0,,6,,,66,127
94121,note_on,0,0,0,,1,,,61,127
94121,note_on,0,0,0,,4,,,64,127
94121,note_on,0,0,0,,11,,,58,127
94329,note_off,208,0,0,,6,,,78,127
94330,note_on,1,0,0,,4,,,76,127
94538,note_off,208,0,0,,11,,,58,127
94538,note_off,0,0,0,,4,,,64,127
94538,note_off,0,0,0,,1,,,61,127
94538,note_off,0,0,0,,6,,,66,127
94539,note_on,1,0,0,,4,,,64,127
94539,note_on,0,0,0,,6,,,66,127
94539,note_on,0,0,0,,11,,,58,127
94539,note_on,0,0,0,,1,,,61,127
94852,note_off,313,0,0,,1,,,61,127
94852,note_off,0,0,0,,11,,,58,127
94852,note_off,0,0,0,,6,,,66,127
94852,note_off,0,0,0,,4,,,64,127
94853,note_on,1,0,0,,4,,,64,127
94853,note_on,0,0,0,,6,,,66,127
94853,note_on,0,0,0,,11,,,58,127
94853,note_on,0,0,0,,1,,,61,127
94957,note_off,104,0,0,,1,,,61,127
94957,note_off,0,0,0,,11,,,58,127
94957,note_off,0,0,0,,6,,,66,127
94957,note_off,0,0,0,,4,,,64,127
94958,note_on,1,0,0,,4,,,64,127
94958,note_on,0,0,0,,6,,,66,127
94958,note_on,0,0,0,,1,,,61,127
94958,note_on,0,0,0,,11,,,58,127
95376,note_off,418,0,0,,11,,,58,127
95376,note_off,0,0,0,,1,,,61,127
95376,note_off,0,0,0,,6,,,66,127
95376,note_off,0,0,0,,4,,,64,127
95377,note_on,1,0,0,,4,,,64,127
95377,note_on,0,0,0,,6,,,66,127
95377,note_on,0,0,0,,11,,,58,127
95377,note_on,0,0,0,,1,,,61,127
95795,note_off,418,0,0,,1,,,61,127
95795,note_off,0,0,0,,11,,,58,127
95795,note_off,0,0,0,,6,,,66,127
95795,note_off,0,0,0,,4,,,64,127
95795,note_off,0,0,0,,4,,,76,127
95796,note_on,1,0,0,,6,,,78,127
95796,note_on,0,0,0,,4,,,64,127
95796,note_on,0,0,0,,7,,,67,127
95796,note_on,0,0,0,,12,,,59,127
96004,note_off,208,0,0,,6,,,78,127
96005,note_on,1,0,0,,4,,,76,127
96213,note_off,208,0,0,,12,,,59,127
96213,note_off,0,0,0,,7,,,67,127
96213,note_off,0,0,0,,4,,,64,127
96214,note_on,1,0,0,,7,,,67,127
96214,note_on,0,0,0,,12,,,59,127
96214,note_on,0,0,0,,4,,,64,127
96527,note_off,313,0,0,,4,,,64,127
96527,note_off,0,0,0,,12,,,59,127
96527,note_off,0,0,0,,7,,,67,127
96528,note_on,1,0,0,,7,,,67,127
96528,note_on,0,0,0,,12,,,59,127
96528,note_on,0,0,0,,4,,,64,127
96632,note_off,104,0,0,,4,,,64,127
96632,note_off,0,0,0,,12,,,59,127
96632,note_off,0,0,0,,7,,,67,127
96633,note_on,1,0,0,,4,,,64,127
96633,note_on,0,0,0,,7,,,67,127
96633,note_on,0,0,0,,12,,,59,127
97051,note_off,418,0,0,,12,,,59,127
97051,note_off,0,0,0,,7,,,67,127
97051,note_off,0,0,0,,4,,,64,127
97052,note_on,1,0,0,,4,,,64,127
97052,note_on,0,0,0,,7,,,67,127
97052,note_on,0,0,0,,12,,,59,127
97470,note_off,418,0,0,,12,,,59,127
97470,note_off,0,0,0,,7,,,67,127
97470,note_off,0,0,0,,4,,,64,127
97470,note_off,0,0,0,,4,,,76,127
97471,note_on,1,0,0,,6,,,78,127
97471,note_on,0,0,0,,4,,,64,127
97471,note_on,0,0,0,,10,,,69,127
97471,note_on,0,0,0,,0,,,60,127
97679,note_off,208,0,0,,6,,,78,127
97680,note_on,1,0,0,,4,,,76,127
97888,note_off,208,0,0,,0,,,60,127
97888,note_off,0,0,0,,10,,,69,127
97888,note_off,0,0,0,,4,,,64,127
97889,note_on,1,0,0,,10,,,69,127
97889,note_on,0,0,0,,0,,,60,127
97889,note_on,0,0,0,,4,,,64,127
98202,note_off,313,0,0,,4,,,64,127
98202,note_off,0,0,0,,0,,,60,127
98202,note_off,0,0,0,,10,,,69,127
98203,note_on,1,0,0,,0,,,60,127
98203,note_on,0,0,0,,4,,,64,127
98203,note_on,0,0,0,,10,,,69,127
98307,note_off,104,0,0,,10,,,69,127
98307,note_off,0,0,0,,4,,,64,127
98307,note_off,0,0,0,,0,,,60,127
98308,note_on,1,0,0,,10,,,69,127
98308,note_on,0,0,0,,4,,,64,127
98308,note_on,0,0,0,,0,,,60,127
98726,note_off,418,0,0,,0,,,60,127
98726,note_off,0,0,0,,4,,,64,127
98726,note_off,0,0,0,,10,,,69,127
98727,note_on,1,0,0,,4,,,64,127
98727,note_on,0,0,0,,7,,,67,127
98727,note_on,0,0,0,,0,,,60,127
99145,note_off,418,0,0,,0,,,60,127
99145,note_off,0,0,0,,7,,,67,127
99145,note_off,0,0,0,,4,,,64,127
99145,note_off,0,0,0,,4,,,76,127
99146,note_on,1,0,0,,4,,,76,127
99146,note_on,0,0,0,,6,,,66,127
99146,note_on,0,0,0,,2,,,62,127
99146,note_on,0,0,0,,0,,,60,127
99354,note_off,208,0,0,,4,,,76,127
99355,note_on,1,0,0,,2,,,74,127
99563,note_off,208,0,0,,0,,,60,127
99563,note_off,0,0,0,,2,,,62,127
99563,note_off,0,0,0,,6,,,66,127
99564,note_on,1,0,0,,2,,,62,127
99564,note_on,0,0,0,,6,,,66,127
99564,note_on,0,0,0,,0,,,60,127
99877,note_off,313,0,0,,0,,,60,127
99877,note_off,0,0,0,,6,,,66,127
99877,note_off,0,0,0,,2,,,62,127
99878,note_on,1,0,0,,6,,,66,127
99878,note_on,0,0,0,,0,,,60,127
99878,note_on,0,0,0,,2,,,62,127
99982,note_off,104,0,0,,2,,,62,127
99982,note_off,0,0,0,,0,,,60,127
99982,note_off,0,0,0,,6,,,66,127
99982,note_off,0,0,0,,2,,,74,127
99983,note_on,1,0,0,,2,,,74,127
99983,note_on,0,0,0,,7,,,79,127
99983,note_on,0,0,0,,11,,,70,127
99983,note_on,0,0,0,,7,,,67,127
99983,note_on,0,0,0,,2,,,62,127
99983,note_on,0,0,0,,11,,,58,127
100401,note_off,418,0,0,,11,,,58,127
100401,note_off,0,0,0,,2,,,62,127
100401,note_off,0,0,0,,7,,,67,127
100402,note_on,1,0,0,,7,,,67,127
100402,note_on,0,0,0,,2,,,62,127
100402,note_on,0,0,0,,11,,,58,127
100715,note_off,313,0,0,,11,,,58,127
100715,note_off,0,0,0,,2,,,62,127
100715,note_off,0,0,0,,7,,,67,127
100716,note_on,1,0,0,,7,,,67,127
100716,note_on,0,0,0,,11,,,58,127
100716,note_on,0,0,0,,2,,,62,127
100820,note_off,104,0,0,,2,,,62,127
100820,note_off,0,0,0,,11,,,58,127
100820,note_off,0,0,0,,7,,,67,127
100820,note_off,0,0,0,,11,,,70,127
100820,note_off,0,0,0,,7,,,79,127
100820,note_off,0,0,0,,2,,,74,127
100821,note_on,1,0,0,,4,,,76,127
100821,note_on,0,0,0,,7,,,79,127
100821,note_on,0,0,0,,10,,,69,127
100821,note_on,0,0,0,,1,,,73,127
100821,note_on,0,0,0,,7,,,67,127
100821,note_on,0,0,0,,4,,,64,127
100821,note_on,0,0,0,,10,,,57,127
101239,note_off,418,0,0,,10,,,57,127
101239,note_off,0,0,0,,4,,,64,127
101239,note_off,0,0,0,,7,,,67,127
101240,note_on,1,0,0,,4,,,64,127
101240,note_on,0,0,0,,7,,,67,127
101240,note_on,0,0,0,,10,,,57,127
101553,note_off,313,0,0,,10,,,57,127
101553,note_off,0,0,0,,7,,,67,127
101553,note_off,0,0,0,,4,,,64,127
101554,note_on,1,0,0,,4,,,64,127
101554,note_on,0,0,0,,7,,,67,127
101554,note_on,0,0,0,,10,,,57,127
101658,note_off,104,0,0,,10,,,57,127
101658,note_off,0,0,0,,7,,,67,127
101658,note_off,0,0,0,,4,,,64,127
101658,note_off,0,0,0,,1,,,73,127
101658,note_off,0,0,0,,10,,,69,127
101658,note_off,0,0,0,,7,,,79,127
101658,note_off,0,0,0,,4,,,76,127
101659,note_on,1,0,0,,2,,,74,127
101659,note_on,0,0,0,,5,,,77,127
101659,note_on,0,0,0,,8,,,68,127
101659,note_on,0,0,0,,12,,,71,127
101659,note_on,0,0,0,,10,,,57,127
101659,note_on,0,0,0,,2,,,62,127
101659,note_on,0,0,0,,5,,,65,127
102077,note_off,418,0,0,,5,,,65,127
102077,note_off,0,0,0,,2,,,62,127
102077,note_off,0,0,0,,10,,,57,127
102078,note_on,1,0,0,,2,,,62,127
102078,note_on,0,0,0,,5,,,65,127
102078,note_on,0,0,0,,10,,,57,127
102391,note_off,313,0,0,,10,,,57,127
102391,note_off,0,0,0,,5,,,65,127
102391,note_off,0,0,0,,2,,,62,127
102392,note_on,1,0,0,,5,,,65,127
102392,note_on,0,0,0,,10,,,57,127
102392,note_on,0,0,0,,2,,,62,127
102496,note_off,104,0,0,,2,,,62,127
102496,note_off,0,0,0,,10,,,57,127
102496,note_off,0,0,0,,5,,,65,127
102496,note_off,0,0,0,,12,,,71,127
102496,note_off,0,0,0,,8,,,68,127
102496,note_off,0,0,0,,5,,,77,127
102496,note_off,0,0,0,,2,,,74,127
102497,note_on,1,0,0,,2,,,74,127
102497,note_on,0,0,0,,5,,,77,127
102497,note_on,0,0,0,,10,,,69,127
102497,note_on,0,0,0,,10,,,45,127
102915,note_off,418,0,0,,5,,,77,127
102915,note_off,0,0,0,,2,,,74,127
102916,note_on,1,0,0,,1,,,73,127
102916,note_on,0,0,0,,4,,,76,127
103229,note_off,313,0,0,,4,,,76,127
103229,note_off,0,0,0,,1,,,73,127
103230,note_on,1,0,0,,2,,,74,127
103230,note_on,0,0,0,,12,,,71,127
103334,note_off,104,0,0,,12,,,71,127
103334,note_off,0,0,0,,2,,,74,127
103334,note_off,0,0,0,,10,,,45,127
103334,note_off,0,0,0,,10,,,69,127
103335,note_on,1,0,0,,2,,,74,127
103335,note_on,0,0,0,,12,,,71,127
103335,note_on,0,0,0,,10,,,69,127
103335,note_on,0,0,0,,10,,,33,127
103671,note_on,336,0,0,,4,,,76,127
103671,note_on,0,0,0,,1,,,73,127
103681,note_off,10,0,0,,12,,,71,127
103681,note_off,0,0,0,,2,,,74,127
104172,note_off,491,0,0,,10,,,33,127
104172,note_off,0,0,0,,10,,,69,127
104299,note_off,127,0,0,,4,,,76,127
104457,note_off,158,0,0,,1,,,73,127
104575,note_on,118,0,0,,1,,,73,127
104679,note_off,104,0,0,,1,,,73,127
104680,note_on,1,0,0,,12,,,71,127
104784,note_off,104,0,0,,12,,,71,127
104785,note_on,1,0,0,,10,,,69,127
104889,note_off,104,0,0,,10,,,69,127
104890,note_on,1,0,0,,12,,,71,127
104994,note_off,104,0,0,,12,,,71,127
104995,note_on,1,0,0,,1,,,73,127
105099,note_off,104,0,0,,1,,,73,127
105100,note_on,1,0,0,,2,,,74,127
105151,note_off,51,0,0,,2,,,74,127
105152,note_on,1,0,0,,4,,,76,127
105203,note_off,51,0,0,,4,,,76,127
105204,note_on,1,0,0,,6,,,78,127
105255,note_off,51,0,0,,6,,,78,127
105256,note_on,1,0,0,,7,,,79,127
105307,note_off,51,0,0,,7,,,79,127
105308,note_on,1,0,0,,10,,,81,127
105359,note_off,51,0,0,,10,,,81,127
105360,note_on,1,0,0,,12,,,83,127
105411,note_off,51,0,0,,12,,,83,127
105412,note_on,1,0,0,,12,,,83,127
105446,note_off,34,0,0,,12,,,83,127
105447,note_on,1,0,0,,10,,,81,127
105481,note_off,34,0,0,,10,,,81,127
105482,note_on,1,0,0,,12,,,83,127
105516,note_off,34,0,0,,12,,,83,127
105517,note_on,1,0,0,,10,,,81,127
105830,note_off,313,0,0,,10,,,81,127
105831,note_on,1,0,0,,10,,,81,127
106249,note_off,418,0,0,,10,,,81,127
106250,note_on,1,0,0,,12,,,59,127
106354,note_off,104,0,0,,12,,,59,127
106355,note_on,1,0,0,,10,,,57,127
106459,note_off,104,0,0,,10,,,57,127
106460,note_on,1,0,0,,7,,,55,127
106564,note_off,104,0,0,,7,,,55,127
106565,note_on,1,0,0,,6,,,54,127
106616,note_off,51,0,0,,6,,,54,127
106617,note_on,1,0,0,,7,,,55,127
106668,note_off,51,0,0,,7,,,55,127
106669,note_on,1,0,0,,10,,,57,127
106720,note_off,51,0,0,,10,,,57,127
106721,note_on,1,0,0,,12,,,59,127
106772,note_off,51,0,0,,12,,,59,127
106773,note_on,1,0,0,,1,,,61,127
106824,note_off,51,0,0,,1,,,61,127
106825,note_on,1,0,0,,2,,,62,127
106876,note_off,51,0,0,,2,,,62,127
106877,note_on,1,0,0,,4,,,64,127
106928,note_off,51,0,0,,4,,,64,127
106929,note_on,1,0,0,,6,,,66,127
106980,note_off,51,0,0,,6,,,66,127
106981,note_on,1,0,0,,7,,,67,127
107032,note_off,51,0,0,,7,,,67,127
107033,note_on,1,0,0,,10,,,69,127
107084,note_off,51,0,0,,10,,,69,127
107085,note_on,1,0,0,,10,,,69,127
107119,note_off,34,0,0,,10,,,69,127
107120,note_on,1,0,0,,7,,,67,127
107154,note_off,34,0,0,,7,,,67,127
107155,note_on,1,0,0,,10,,,69,127
107189,note_off,34,0,0,,10,,,69,127
107190,note_on,1,0,0,,7,,,67,127
107503,note_off,313,0,0,,7,,,67,127
107504,note_on,1,0,0,,7,,,67,127
107922,note_off,418,0,0,,7,,,67,127
107923,note_on,1,0,0,,10,,,33,127
107923,note_on,0,0,0,,12,,,83,127
108131,note_off,208,0,0,,12,,,83,127
108132,note_on,1,0,0,,7,,,79,127
108340,note_off,208,0,0,,7,,,79,127
108340,note_off,0,0,0,,10,,,33,127
108341,note_on,1,0,0,,10,,,33,127
108341,note_on,0,0,0,,10,,,69,127
108341,note_on,0,0,0,,6,,,78,127
108654,note_off,313,0,0,,6,,,78,127
108654,note_off,0,0,0,,10,,,69,127
108655,note_on,1,0,0,,7,,,67,127
108655,note_on,0,0,0,,4,,,76,127
108759,note_off,104,0,0,,4,,,76,127
108759,note_off,0,0,0,,7,,,67,127
108759,note_off,0,0,0,,10,,,33,127
108760,note_on,1,0,0,,10,,,33,127
108760,note_on,0,0,0,,2,,,74,127
108760,note_on,0,0,0,,6,,,66,127
109178,note_off,418,0,0,,6,,,66,127
109178,note_off,0,0,0,,2,,,74,127
109178,note_off,0,0,0,,10,,,33,127
109179,note_on,1,0,0,,10,,,33,127
109179,note_on,0,0,0,,1,,,73,127
109179,note_on,0,0,0,,4,,,64,127
109597,note_off,418,0,0,,4,,,64,127
109597,note_off,0,0,0,,1,,,73,127
109597,note_off,0,0,0,,10,,,33,127
109598,note_on,1,0,0,,2,,,38,127
109598,note_on,0,0,0,,1,,,73,127
109598,note_on,0,0,0,,4,,,64,127
109806,note_off,208,0,0,,4,,,64,127
109806,note_off,0,0,0,,1,,,73,127
109807,note_on,1,0,0,,2,,,74,127
109807,note_on,0,0,0,,6,,,66,127
110225,note_off,418,0,0,,6,,,66,127
110225,note_off,0,0,0,,2,,,74,127
110226,note_on,1,0,0,,1,,,73,127
110226,note_on,0,0,0,,4,,,64,127
110434,note_off,208,0,0,,4,,,64,127
110434,note_off,0,0,0,,1,,,73,127
110435,note_on,1,0,0,,1,,,73,127
110435,note_on,0,0,0,,4,,,64,127
110853,note_off,418,0,0,,4,,,64,127
110853,note_off,0,0,0,,1,,,73,127
110854,note_on,1,0,0,,2,,,62,127
110854,note_on,0,0,0,,2,,,74,127
110888,note_off,34,0,0,,2,,,74,127
110889,note_on,1,0,0,,1,,,73,127
110923,note_off,34,0,0,,1,,,73,127
110924,note_on,1,0,0,,2,,,74,127
111250,note_off,326,0,0,,2,,,74,127
111250,note_off,0,0,0,,2,,,62,127
111272,note_off,22,0,0,,2,,,38,127
111282,note_on,10,0,0,,1,,,73,127
111386,note_off,104,0,0,,1,,,73,127
111387,note_on,1,0,0,,12,,,71,127
111491,note_off,104,0,0,,12,,,71,127
111492,note_on,1,0,0,,10,,,69,127
111596,note_off,104,0,0,,10,,,69,127
111597,note_on,1,0,0,,12,,,71,127
111701,note_off,104,0,0,,12,,,71,127
111702,note_on,1,0,0,,1,,,73,127
111806,note_off,104,0,0,,1,,,73,127
111807,note_on,1,0,0,,2,,,74,127
111858,note_off,51,0,0,,2,,,74,127
111859,note_on,1,0,0,,4,,,76,127
111910,note_off,51,0,0,,4,,,76,127
111911,note_on,1,0,0,,6,,,78,127
111962,note_off,51,0,0,,6,,,78,127
111963,note_on,1,0,0,,7,,,79,127
112014,note_off,51,0,0,,7,,,79,127
112015,note_on,1,0,0,,10,,,81,127
112066,note_off,51,0,0,,10,,,81,127
112067,note_on,1,0,0,,12,,,83,127
112118,note_off,51,0,0,,12,,,83,127
112119,note_on,1,0,0,,12,,,83,127
112153,note_off,34,0,0,,12,,,83,127
112154,note_on,1,0,0,,10,,,81,127
112188,note_off,34,0,0,,10,,,81,127
112189,note_on,1,0,0,,12,,,83,127
112223,note_off,34,0,0,,12,,,83,127
112224,note_on,1,0,0,,10,,,81,127
112537,note_off,313,0,0,,10,,,81,127
112538,note_on,1,0,0,,10,,,81,127
112956,note_off,418,0,0,,10,,,81,127
112957,note_on,1,0,0,,12,,,59,127
113061,note_off,104,0,0,,12,,,59,127
113062,note_on,1,0,0,,10,,,57,127
113166,note_off,104,0,0,,10,,,57,127
113167,note_on,1,0,0,,7,,,55,127
113271,note_off,104,0,0,,7,,,55,127
113272,note_on,1,0,0,,6,,,54,127
113323,note_off,51,0,0,,6,,,54,127
113324,note_on,1,0,0,,7,,,55,127
113375,note_off,51,0,0,,7,,,55,127
113376,note_on,1,0,0,,10,,,57,127
113427,note_off,51,0,0,,10,,,57,127
113428,note_on,1,0,0,,12,,,59,127
113479,note_off,51,0,0,,12,,,59,127
113480,note_on,1,0,0,,1,,,61,127
113531,note_off,51,0,0,,1,,,61,127
113532,note_on,1,0,0,,2,,,62,127
113583,note_off,51,0,0,,2,,,62,127
113584,note_on,1,0,0,,4,,,64,127
113635,note_off,51,0,0,,4,,,64,127
113636,note_on,1,0,0,,6,,,66,127
113687,note_off,51,0,0,,6,,,66,127
113688,note_on,1,0,0,,7,,,67,127
113739,note_off,51,0,0,,7,,,67,127
113740,note_on,1,0,0,,10,,,69,127
113791,note_off,51,0,0,,10,,,69,127
113792,note_on,1,0,0,,10,,,69,127
113826,note_off,34,0,0,,10,,,69,127
113827,note_on,1,0,0,,7,,,67,127
113861,note_off,34,0,0,,7,,,67,127
113862,note_on,1,0,0,,10,,,69,127
113896,note_off,34,0,0,,10,,,69,127
113897,note_on,1,0,0,,7,,,67,127
114210,note_off,313,0,0,,7,,,67,127
114211,note_on,1,0,0,,7,,,67,127
114629,note_off,418,0,0,,7,,,67,127
114630,note_on,1,0,0,,12,,,83,127
114630,note_on,0,0,0,,10,,,45,127
114838,note_off,208,0,0,,12,,,83,127
114839,note_on,1,0,0,,7,,,79,127
115047,note_off,208,0,0,,7,,,79,127
115047,note_off,0,0,0,,10,,,45,127
115048,note_on,1,0,0,,6,,,78,127
115048,note_on,0,0,0,,10,,,69,127
115048,note_on,0,0,0,,10,,,45,127
115361,note_off,313,0,0,,10,,,69,127
115361,note_off,0,0,0,,6,,,78,127
115362,note_on,1,0,0,,4,,,76,127
115362,note_on,0,0,0,,7,,,67,127
115466,note_off,104,0,0,,7,,,67,127
115466,note_off,0,0,0,,4,,,76,127
115466,note_off,0,0,0,,10,,,45,127
115467,note_on,1,0,0,,6,,,66,127
115467,note_on,0,0,0,,2,,,74,127
115467,note_on,0,0,0,,10,,,45,127
115885,note_off,418,0,0,,10,,,45,127
115885,note_off,0,0,0,,2,,,74,127
115885,note_off,0,0,0,,6,,,66,127
115886,note_on,1,0,0,,4,,,64,127
115886,note_on,0,0,0,,1,,,73,127
115886,note_on,0,0,0,,10,,,45,127
116304,note_off,418,0,0,,10,,,45,127
116304,note_off,0,0,0,,1,,,73,127
116304,note_off,0,0,0,,4,,,64,127
116305,note_on,1,0,0,,4,,,64,127
116305,note_on,0,0,0,,1,,,73,127
116305,note_on,0,0,0,,2,,,38,127
116513,note_off,208,0,0,,1,,,73,127
116513,note_off,0,0,0,,4,,,64,127
116514,note_on,1,0,0,,6,,,66,127
116514,note_on,0,0,0,,2,,,74,127
116932,note_off,418,0,0,,2,,,74,127
116932,note_off,0,0,0,,6,,,66,127
116933,note_on,1,0,0,,1,,,73,127
116933,note_on,0,0,0,,4,,,64,127
117141,note_off,208,0,0,,4,,,64,127
117141,note_off,0,0,0,,1,,,73,127
117142,note_on,1,0,0,,1,,,73,127
117142,note_on,0,0,0,,4,,,64,127
117560,note_off,418,0,0,,4,,,64,127
117560,note_off,0,0,0,,1,,,73,127
117561,note_on,1,0,0,,2,,,74,127
117561,note_on,0,0,0,,2,,,62,127
117595,note_off,34,0,0,,2,,,74,127
117596,note_on,1,0,0,,1,,,73,127
117630,note_off,34,0,0,,1,,,73,127
117631,note_on,1,0,0,,2,,,74,127
117979,note_off,348,0,0,,2,,,74,127
117979,note_off,0,0,0,,2,,,62,127
117979,note_off,0,0,0,,2,,,38,127
117980,note_on,1,0,0,,11,,,70,127
117980,note_on,0,0,0,,2,,,74,127
117980,note_on,0,0,0,,2,,,62,127
117980,note_on,0,0,0,,7,,,67,127
118084,note_off,104,0,0,,2,,,74,127
118085,note_on,1,0,0,,1,,,73,127
118398,note_off,313,0,0,,7,,,67,127
118398,note_off,0,0,0,,2,,,62,127
118399,note_on,1,0,0,,7,,,67,127
118399,note_on,0,0,0,,2,,,62,127
118712,note_off,313,0,0,,2,,,62,127
118712,note_off,0,0,0,,7,,,67,127
118713,note_on,1,0,0,,7,,,67,127
118713,note_on,0,0,0,,2,,,62,127
118817,note_off,104,0,0,,2,,,62,127
118817,note_off,0,0,0,,7,,,67,127
118818,note_on,1,0,0,,2,,,62,127
118818,note_on,0,0,0,,7,,,67,127
119236,note_off,418,0,0,,7,,,67,127
119236,note_off,0,0,0,,2,,,62,127
119237,note_on,1,0,0,,7,,,67,127
119237,note_on,0,0,0,,2,,,62,127
119655,note_off,418,0,0,,2,,,62,127
119655,note_off,0,0,0,,7,,,67,127
119655,note_off,0,0,0,,1,,,73,127
119655,note_off,0,0,0,,11,,,70,127
119656,note_on,1,0,0,,10,,,69,127
119656,note_on,0,0,0,,2,,,74,127
119656,note_on,0,0,0,,2,,,62,127
119656,note_on,0,0,0,,6,,,66,127
119707,note_off,51,0,0,,2,,,74,127
119708,note_on,1,0,0,,0,,,72,127
119759,note_off,51,0,0,,0,,,72,127
119760,note_on,1,0,0,,12,,,71,127
119811,note_off,51,0,0,,12,,,71,127
119812,note_on,1,0,0,,0,,,72,127
120073,note_off,261,0,0,,6,,,66,127
120073,note_off,0,0,0,,2,,,62,127
120074,note_on,1,0,0,,2,,,62,127
120074,note_on,0,0,0,,6,,,66,127
120387,note_off,313,0,0,,6,,,66,127
120387,note_off,0,0,0,,2,,,62,127
120388,note_on,1,0,0,,6,,,66,127
120388,note_on,0,0,0,,2,,,62,127
120492,note_off,104,0,0,,2,,,62,127
120492,note_off,0,0,0,,6,,,66,127
120493,note_on,1,0,0,,6,,,66,127
120493,note_on,0,0,0,,2,,,62,127
120911,note_off,418,0,0,,2,,,62,127
120911,note_off,0,0,0,,6,,,66,127
120912,note_on,1,0,0,,2,,,62,127
120912,note_on,0,0,0,,6,,,66,127
121330,note_off,418,0,0,,6,,,66,127
121330,note_off,0,0,0,,2,,,62,127
121330,note_off,0,0,0,,0,,,72,127
121330,note_off,0,0,0,,10,,,69,127
121331,note_on,1,0,0,,10,,,69,127
121331,note_on,0,0,0,,2,,,74,127
121331,note_on,0,0,0,,3,,,63,127
121331,note_on,0,0,0,,7,,,67,127
121331,note_on,0,0,0,,2,,,62,127
121382,note_off,51,0,0,,2,,,74,127
121383,note_on,1,0,0,,0,,,72,127
121434,note_off,51,0,0,,0,,,72,127
121435,note_on,1,0,0,,12,,,71,127
121486,note_off,51,0,0,,12,,,71,127
121487,note_on,1,0,0,,0,,,72,127
121748,note_off,261,0,0,,2,,,62,127
121748,note_off,0,0,0,,7,,,67,127
121748,note_off,0,0,0,,3,,,63,127
121749,note_on,1,0,0,,3,,,63,127
121749,note_on,0,0,0,,7,,,67,127
121749,note_on,0,0,0,,2,,,62,127
122062,note_off,313,0,0,,2,,,62,127
122062,note_off,0,0,0,,7,,,67,127
122062,note_off,0,0,0,,3,,,63,127
122063,note_on,1,0,0,,7,,,67,127
122063,note_on,0,0,0,,3,,,63,127
122063,note_on,0,0,0,,2,,,62,127
122167,note_off,104,0,0,,2,,,62,127
122167,note_off,0,0,0,,3,,,63,127
122167,note_off,0,0,0,,7,,,67,127
122168,note_on,1,0,0,,7,,,67,127
122168,note_on,0,0,0,,3,,,63,127
122168,note_on,0,0,0,,2,,,62,127
122586,note_off,418,0,0,,2,,,62,127
122586,note_off,0,0,0,,3,,,63,127
122586,note_off,0,0,0,,7,,,67,127
122587,note_on,1,0,0,,7,,,67,127
122587,note_on,0,0,0,,3,,,63,127
122587,note_on,0,0,0,,2,,,62,127
123005,note_off,418,0,0,,2,,,62,127
123005,note_off,0,0,0,,3,,,63,127
123005,note_off,0,0,0,,7,,,67,127
123005,note_off,0,0,0,,0,,,72,127
123005,note_off,0,0,0,,10,,,69,127
123006,note_on,1,0,0,,11,,,70,127
123006,note_on,0,0,0,,2,,,74,127
123006,note_on,0,0,0,,4,,,64,127
123006,note_on,0,0,0,,7,,,67,127
123006,note_on,0,0,0,,2,,,62,127
123110,note_off,104,0,0,,2,,,74,127
123111,note_on,1,0,0,,1,,,73,127
123424,note_off,313,0,0,,2,,,62,127
123424,note_off,0,0,0,,7,,,67,127
123424,note_off,0,0,0,,4,,,64,127
123425,note_on,1,0,0,,4,,,64,127
123425,note_on,0,0,0,,2,,,62,127
123425,note_on,0,0,0,,7,,,67,127
123738,note_off,313,0,0,,7,,,67,127
123738,note_off,0,0,0,,2,,,62,127
123738,note_off,0,0,0,,4,,,64,127
123739,note_on,1,0,0,,4,,,64,127
123739,note_on,0,0,0,,2,,,62,127
123739,note_on,0,0,0,,7,,,67,127
123843,note_off,104,0,0,,7,,,67,127
123843,note_off,0,0,0,,2,,,62,127
123843,note_off,0,0,0,,4,,,64,127
123844,note_on,1,0,0,,7,,,67,127
123844,note_on,0,0,0,,4,,,64,127
123844,note_on,0,0,0,,2,,,62,127
124262,note_off,418,0,0,,2,,,62,127
124262,note_off,0,0,0,,4,,,64,127
124262,note_off,0,0,0,,7,,,67,127
124262,note_off,0,0,0,,1,,,73,127
124262,note_off,0,0,0,,11,,,70,127
124263,note_on,1,0,0,,7,,,79,127
124263,note_on,0,0,0,,4,,,64,127
124263,note_on,0,0,0,,2,,,62,127
124263,note_on,0,0,0,,7,,,67,127
124681,note_off,418,0,0,,7,,,67,127
124681,note_off,0,0,0,,2,,,62,127
124681,note_off,0,0,0,,4,,,64,127
124682,note_on,1,0,0,,10,,,69,127
124682,note_on,0,0,0,,2,,,74,127
124682,note_on,0,0,0,,2,,,50,127
125309,note_off,627,0,0,,2,,,74,127
125309,note_off,0,0,0,,7,,,79,127
125310,note_on,1,0,0,,6,,,78,127
125414,note_off,104,0,0,,6,,,78,127
125415,note_on,1,0,0,,4,,,76,127
125519,note_off,104,0,0,,4,,,76,127
125519,note_off,0,0,0,,10,,,69,127
125520,note_on,1,0,0,,2,,,74,127
125520,note_on,0,0,0,,2,,,38,127
125939,note_off,419,0,0,,2,,,50,127
126357,note_off,418,0,0,,2,,,38,127
126357,note_off,0,0,0,,2,,,74,127
126358,note_on,1,0,0,,11,,,70,127
126358,note_on,0,0,0,,2,,,74,127
126358,note_on,0,0,0,,2,,,62,127
126358,note_on,0,0,0,,7,,,67,127
126462,note_off,104,0,0,,2,,,74,127
126463,note_on,1,0,0,,1,,,73,127
126776,note_off,313,0,0,,7,,,67,127
126776,note_off,0,0,0,,2,,,62,127
126777,note_on,1,0,0,,2,,,62,127
126777,note_on,0,0,0,,7,,,67,127
127090,note_off,313,0,0,,7,,,67,127
127090,note_off,0,0,0,,2,,,62,127
127091,note_on,1,0,0,,7,,,67,127
127091,note_on,0,0,0,,2,,,62,127
127195,note_off,104,0,0,,2,,,62,127
127195,note_off,0,0,0,,7,,,67,127
127196,note_on,1,0,0,,7,,,67,127
127196,note_on,0,0,0,,2,,,62,127
127614,note_off,418,0,0,,2,,,62,127
127614,note_off,0,0,0,,7,,,67,127
127615,note_on,1,0,0,,7,,,67,127
127615,note_on,0,0,0,,2,,,62,127
128033,note_off,418,0,0,,2,,,62,127
128033,note_off,0,0,0,,7,,,67,127
128033,note_off,0,0,0,,1,,,73,127
128033,note_off,0,0,0,,11,,,70,127
128034,note_on,1,0,0,,10,,,69,127
128034,note_on,0,0,0,,2,,,74,127
128034,note_on,0,0,0,,6,,,66,127
128034,note_on,0,0,0,,2,,,62,127
128085,note_off,51,0,0,,2,,,74,127
128086,note_on,1,0,0,,0,,,72,127
128137,note_off,51,0,0,,0,,,72,127
128138,note_on,1,0,0,,12,,,71,127
128189,note_off,51,0,0,,12,,,71,127
128190,note_on,1,0,0,,0,,,72,127
128451,note_off,261,0,0,,2,,,62,127
128451,note_off,0,0,0,,6,,,66,127
128452,note_on,1,0,0,,6,,,66,127
128452,note_on,0,0,0,,2,,,62,127
128765,note_off,313,0,0,,2,,,62,127
128765,note_off,0,0,0,,6,,,66,127
128766,note_on,1,0,0,,6,,,66,127
128766,note_on,0,0,0,,2,,,62,127
128870,note_off,104,0,0,,2,,,62,127
128870,note_off,0,0,0,,6,,,66,127
128871,note_on,1,0,0,,6,,,66,127
128871,note_on,0,0,0,,2,,,62,127
129289,note_off,418,0,0,,2,,,62,127
129289,note_off,0,0,0,,6,,,66,127
129289,note_off,0,0,0,,0,,,72,127
129290,note_on,1,0,0,,7,,,79,127
129290,note_on,0,0,0,,6,,,66,127
129290,note_on,0,0,0,,2,,,62,127
129498,note_off,208,0,0,,7,,,79,127
129499,note_on,1,0,0,,3,,,75,127
129707,note_off,208,0,0,,3,,,75,127
129707,note_off,0,0,0,,2,,,62,127
129707,note_off,0,0,0,,6,,,66,127
129707,note_off,0,0,0,,10,,,69,127
129708,note_on,1,0,0,,2,,,74,127
129708,note_on,0,0,0,,10,,,69,127
129708,note_on,0,0,0,,7,,,67,127
129708,note_on,0,0,0,,3,,,63,127
129708,note_on,0,0,0,,2,,,62,127
129759,note_off,51,0,0,,2,,,74,127
129760,note_on,1,0,0,,0,,,72,127
129811,note_off,51,0,0,,0,,,72,127
129812,note_on,1,0,0,,12,,,71,127
129863,note_off,51,0,0,,12,,,71,127
129864,note_on,1,0,0,,0,,,72,127
130125,note_off,261,0,0,,2,,,62,127
130125,note_off,0,0,0,,3,,,63,127
130125,note_off,0,0,0,,7,,,67,127
130126,note_on,1,0,0,,3,,,63,127
130126,note_on,0,0,0,,2,,,62,127
130126,note_on,0,0,0,,7,,,67,127
130439,note_off,313,0,0,,7,,,67,127
130439,note_off,0,0,0,,2,,,62,127
130439,note_off,0,0,0,,3,,,63,127
130440,note_on,1,0,0,,7,,,67,127
130440,note_on,0,0,0,,3,,,63,127
130440,note_on,0,0,0,,2,,,62,127
130544,note_off,104,0,0,,2,,,62,127
130544,note_off,0,0,0,,3,,,63,127
130544,note_off,0,0,0,,7,,,67,127
130545,note_on,1,0,0,,3,,,63,127
130545,note_on,0,0,0,,7,,,67,127
130545,note_on,0,0,0,,2,,,62,127
130963,note_off,418,0,0,,2,,,62,127
130963,note_off,0,0,0,,7,,,67,127
130963,note_off,0,0,0,,3,,,63,127
130963,note_off,0,0,0,,0,,,72,127
130964,note_on,1,0,0,,7,,,79,127
130964,note_on,0,0,0,,3,,,63,127
130964,note_on,0,0,0,,2,,,62,127
130964,note_on,0,0,0,,7,,,67,127
131172,note_off,208,0,0,,7,,,79,127
131173,note_on,1,0,0,,3,,,75,127
131381,note_off,208,0,0,,3,,,75,127
131381,note_off,0,0,0,,7,,,67,127
131381,note_off,0,0,0,,2,,,62,127
131381,note_off,0,0,0,,3,,,63,127
131381,note_off,0,0,0,,10,,,69,127
131382,note_on,1,0,0,,11,,,70,127
131382,note_on,0,0,0,,2,,,74,127
131382,note_on,0,0,0,,7,,,67,127
131382,note_on,0,0,0,,4,,,64,127
131382,note_on,0,0,0,,2,,,62,127
131486,note_off,104,0,0,,2,,,74,127
131487,note_on,1,0,0,,1,,,73,127
131800,note_off,313,0,0,,2,,,62,127
131800,note_off,0,0,0,,4,,,64,127
131800,note_off,0,0,0,,7,,,67,127
131801,note_on,1,0,0,,2,,,62,127
131801,note_on,0,0,0,,7,,,67,127
131801,note_on,0,0,0,,4,,,64,127
132114,note_off,313,0,0,,4,,,64,127
132114,note_off,0,0,0,,7,,,67,127
132114,note_off,0,0,0,,2,,,62,127
132115,note_on,1,0,0,,4,,,64,127
132115,note_on,0,0,0,,2,,,62,127
132115,note_on,0,0,0,,7,,,67,127
132219,note_off,104,0,0,,7,,,67,127
132219,note_off,0,0,0,,2,,,62,127
132219,note_off,0,0,0,,4,,,64,127
132219,note_off,0,0,0,,1,,,73,127
132220,note_on,1,0,0,,7,,,79,127
132220,note_on,0,0,0,,4,,,64,127
132220,note_on,0,0,0,,2,,,62,127
132220,note_on,0,0,0,,7,,,67,127
132428,note_off,208,0,0,,7,,,79,127
132429,note_on,1,0,0,,4,,,76,127
132637,note_off,208,0,0,,4,,,76,127
132637,note_off,0,0,0,,7,,,67,127
132637,note_off,0,0,0,,2,,,62,127
132637,note_off,0,0,0,,4,,,64,127
132637,note_off,0,0,0,,11,,,70,127
132638,note_on,1,0,0,,11,,,82,127
132638,note_on,0,0,0,,4,,,64,127
132638,note_on,0,0,0,,2,,,62,127
132638,note_on,0,0,0,,7,,,67,127
132846,note_off,208,0,0,,11,,,82,127
132847,note_on,1,0,0,,7,,,79,127
133055,note_off,208,0,0,,7,,,79,127
133055,note_off,0,0,0,,7,,,67,127
133055,note_off,0,0,0,,2,,,62,127
133055,note_off,0,0,0,,4,,,64,127
133056,note_on,1,0,0,,10,,,69,127
133056,note_on,0,0,0,,2,,,74,127
133056,note_on,0,0,0,,7,,,79,127
133056,note_on,0,0,0,,2,,,50,127
133683,note_off,627,0,0,,7,,,79,127
133684,note_on,1,0,0,,6,,,78,127
133788,note_off,104,0,0,,6,,,78,127
133789,note_on,1,0,0,,4,,,76,127
133893,note_off,104,0,0,,4,,,76,127
133893,note_off,0,0,0,,2,,,74,127
133893,note_off,0,0,0,,10,,,69,127
133894,note_on,1,0,0,,2,,,74,127
133894,note_on,0,0,0,,2,,,38,127
134313,note_off,419,0,0,,2,,,50,127
134731,note_off,418,0,0,,2,,,38,127
134731,note_off,0,0,0,,2,,,74,127
134732,note_on,1,0,0,,8,,,80,127
134732,note_on,0,0,0,,2,,,74,127
134732,note_on,0,0,0,,12,,,71,127
134732,note_on,0,0,0,,4,,,40,127
134732,note_on,0,0,0,,10,,,45,127
134732,note_on,0,0,0,,4,,,52,127
134732,note_on,0,0,0,,12,,,47,127
135150,note_off,418,0,0,,2,,,74,127
135151,note_on,1,0,0,,2,,,74,127
135464,note_off,313,0,0,,2,,,74,127
135465,note_on,1,0,0,,2,,,74,127
135569,note_off,104,0,0,,2,,,74,127
135570,note_on,1,0,0,,2,,,74,127
135988,note_off,418,0,0,,2,,,74,127
135988,note_off,0,0,0,,12,,,47,127
135988,note_off,0,0,0,,4,,,52,127
135988,note_off,0,0,0,,10,,,45,127
135988,note_off,0,0,0,,4,,,40,127
135988,note_off,0,0,0,,12,,,71,127
135988,note_off,0,0,0,,8,,,80,127
135989,note_on,1,0,0,,8,,,80,127
135989,note_on,0,0,0,,2,,,74,127
135989,note_on,0,0,0,,12,,,71,127
135989,note_on,0,0,0,,4,,,40,127
135989,note_on,0,0,0,,10,,,45,127
135989,note_on,0,0,0,,12,,,47,127
135989,note_on,0,0,0,,4,,,52,127
136407,note_off,418,0,0,,4,,,52,127
136407,note_off,0,0,0,,12,,,47,127
136407,note_off,0,0,0,,10,,,45,127
136407,note_off,0,0,0,,4,,,40,127
136407,note_off,0,0,0,,12,,,71,127
136407,note_off,0,0,0,,2,,,74,127
136407,note_off,0,0,0,,8,,,80,127
136408,note_on,1,0,0,,1,,,85,127
136408,note_on,0,0,0,,4,,,76,127
136408,note_on,0,0,0,,7,,,79,127
136408,note_on,0,0,0,,10,,,45,127
136408,note_on,0,0,0,,10,,,57,127
136408,note_on,0,0,0,,2,,,50,127
136408,note_on,0,0,0,,4,,,52,127
136826,note_off,418,0,0,,7,,,79,127
136827,note_on,1,0,0,,7,,,79,127
137140,note_off,313,0,0,,7,,,79,127
137141,note_on,1,0,0,,7,,,79,127
137245,note_off,104,0,0,,7,,,79,127
137246,note_on,1,0,0,,7,,,79,127
137664,note_off,418,0,0,,7,,,79,127
137664,note_off,0,0,0,,4,,,52,127
137664,note_off,0,0,0,,2,,,50,127
137664,note_off,0,0,0,,10,,,57,127
137664,note_off,0,0,0,,10,,,45,127
137664,note_off,0,0,0,,4,,,76,127
137664,note_off,0,0,0,,1,,,85,127
137665,note_on,1,0,0,,1,,,85,127
137665,note_on,0,0,0,,7,,,79,127
137665,note_on,0,0,0,,4,,,76,127
137665,note_on,0,0,0,,10,,,45,127
137665,note_on,0,0,0,,4,,,52,127
137665,note_on,0,0,0,,2,,,50,127
137665,note_on,0,0,0,,10,,,57,127
138083,note_off,418,0,0,,10,,,57,127
138083,note_off,0,0,0,,2,,,50,127
138083,note_off,0,0,0,,4,,,52,127
138083,note_off,0,0,0,,10,,,45,127
138083,note_off,0,0,0,,4,,,76,127
138083,note_off,0,0,0,,7,,,79,127
138083,note_off,0,0,0,,1,,,85,127
138084,note_on,1,0,0,,0,,,84,127
138084,note_on,0,0,0,,6,,,78,127
138084,note_on,0,0,0,,2,,,74,127
138084,note_on,0,0,0,,2,,,38,127
138084,note_on,0,0,0,,7,,,43,127
138084,note_on,0,0,0,,10,,,45,127
138084,note_on,0,0,0,,2,,,50,127
138502,note_off,418,0,0,,0,,,84,127
138503,note_on,1,0,0,,0,,,84,127
138816,note_off,313,0,0,,0,,,84,127
138817,note_on,1,0,0,,0,,,84,127
138921,note_off,104,0,0,,0,,,84,127
138922,note_on,1,0,0,,0,,,84,127
139340,note_off,418,0,0,,0,,,84,127
139340,note_off,0,0,0,,2,,,50,127
139340,note_off,0,0,0,,10,,,45,127
139340,note_off,0,0,0,,7,,,43,127
139340,note_off,0,0,0,,2,,,38,127
139340,note_off,0,0,0,,2,,,74,127
139340,note_off,0,0,0,,6,,,78,127
139341,note_on,1,0,0,,0,,,84,127
139341,note_on,0,0,0,,6,,,78,127
139341,note_on,0,0,0,,2,,,74,127
139341,note_on,0,0,0,,10,,,45,127
139341,note_on,0,0,0,,7,,,43,127
139341,note_on,0,0,0,,2,,,38,127
139341,note_on,0,0,0,,2,,,50,127
139759,note_off,418,0,0,,2,,,50,127
139759,note_off,0,0,0,,2,,,38,127
139759,note_off,0,0,0,,7,,,43,127
139759,note_off,0,0,0,,10,,,45,127
139759,note_off,0,0,0,,2,,,74,127
139759,note_off,0,0,0,,6,,,78,127
139759,note_off,0,0,0,,0,,,84,127
139760,note_on,1,0,0,,12,,,83,127
139760,note_on,0,0,0,,7,,,43,127
139864,note_off,104,0,0,,12,,,83,127
139865,note_on,1,0,0,,2,,,74,127
140178,note_off,313,0,0,,2,,,74,127
140178,note_off,0,0,0,,7,,,43,127
140179,note_on,1,0,0,,7,,,79,127
140179,note_on,0,0,0,,7,,,43,127
140283,note_off,104,0,0,,7,,,79,127
140284,note_on,1,0,0,,12,,,71,127
140597,note_off,313,0,0,,12,,,71,127
140597,note_off,0,0,0,,7,,,43,127
140598,note_on,1,0,0,,2,,,74,127
140598,note_on,0,0,0,,7,,,43,127
140702,note_off,104,0,0,,2,,,74,127
140703,note_on,1,0,0,,7,,,67,127
141016,note_off,313,0,0,,7,,,67,127
141016,note_off,0,0,0,,7,,,43,127
141017,note_on,1,0,0,,12,,,71,127
141017,note_on,0,0,0,,7,,,43,127
141121,note_off,104,0,0,,12,,,71,127
141122,note_on,1,0,0,,2,,,62,127
141435,note_off,313,0,0,,2,,,62,127
141435,note_off,0,0,0,,7,,,43,127
141436,note_on,1,0,0,,6,,,66,127
141436,note_on,0,0,0,,10,,,45,127
141540,note_off,104,0,0,,6,,,66,127
141541,note_on,1,0,0,,10,,,57,127
141854,note_off,313,0,0,,10,,,57,127
141854,note_off,0,0,0,,10,,,45,127
141855,note_on,1,0,0,,2,,,62,127
141855,note_on,0,0,0,,10,,,45,127
141959,note_off,104,0,0,,2,,,62,127
141960,note_on,1,0,0,,6,,,54,127
142273,note_off,313,0,0,,6,,,54,127
142273,note_off,0,0,0,,10,,,45,127
142274,note_on,1,0,0,,10,,,45,127
142274,note_on,0,0,0,,1,,,61,127
142326,note_off,52,0,0,,1,,,61,127
142328,note_on,2,0,0,,12,,,59,127
142380,note_off,52,0,0,,12,,,59,127
142382,note_on,2,0,0,,10,,,57,127
142434,note_off,52,0,0,,10,,,57,127
142436,note_on,2,0,0,,12,,,59,127
142488,note_off,52,0,0,,12,,,59,127
142489,note_on,1,0,0,,1,,,61,127
142541,note_off,52,0,0,,1,,,61,127
142543,note_on,2,0,0,,2,,,62,127
142595,note_off,52,0,0,,2,,,62,127
142597,note_on,2,0,0,,4,,,64,127
142649,note_off,52,0,0,,4,,,64,127
142651,note_on,2,0,0,,6,,,66,127
142703,note_off,52,0,0,,6,,,66,127
142704,note_off,1,0,0,,10,,,45,127
142705,note_on,1,0,0,,10,,,45,127
142705,note_on,0,0,0,,6,,,66,127
142757,note_off,52,0,0,,6,,,66,127
142762,note_on,5,0,0,,4,,,64,127
142823,note_off,61,0,0,,4,,,64,127
142825,note_on,2,0,0,,6,,,66,127
142886,note_off,61,0,0,,6,,,66,127
142889,note_on,3,0,0,,4,,,64,127
142950,note_off,61,0,0,,4,,,64,127
142952,note_on,2,0,0,,6,,,66,127
143013,note_off,61,0,0,,6,,,66,127
143015,note_on,2,0,0,,4,,,64,127
143076,note_off,61,0,0,,4,,,64,127
143078,note_on,2,0,0,,2,,,62,127
143137,note_off,59,0,0,,10,,,45,127
143139,note_off,2,0,0,,2,,,62,127
143141,note_on,2,0,0,,4,,,64,127
143202,note_off,61,0,0,,4,,,64,127
143216,note_on,14,0,0,,2,,,38,127
143216,note_on,0,0,0,,2,,,62,127
144676,note_off,1460,0,0,,2,,,62,127
144781,note_off,105,0,0,,2,,,38,127
144921,note_on,140,0,0,,1,,,73,127
145025,note_off,104,0,0,,1,,,73,127
145026,note_on,1,0,0,,12,,,71,127
145130,note_off,104,0,0,,12,,,71,127
145131,note_on,1,0,0,,10,,,69,127
145235,note_off,104,0,0,,10,,,69,127
145236,note_on,1,0,0,,12,,,71,127
145340,note_off,104,0,0,,12,,,71,127
145341,note_on,1,0,0,,1,,,73,127
145445,note_off,104,0,0,,1,,,73,127
145446,note_on,1,0,0,,2,,,74,127
145497,note_off,51,0,0,,2,,,74,127
145498,note_on,1,0,0,,4,,,76,127
145549,note_off,51,0,0,,4,,,76,127
145550,note_on,1,0,0,,6,,,78,127
145601,note_off,51,0,0,,6,,,78,127
145602,note_on,1,0,0,,7,,,79,127
145653,note_off,51,0,0,,7,,,79,127
145654,note_on,1,0,0,,10,,,81,127
145705,note_off,51,0,0,,10,,,81,127
145706,note_on,1,0,0,,12,,,83,127
145757,note_off,51,0,0,,12,,,83,127
145758,note_on,1,0,0,,12,,,83,127
145792,note_off,34,0,0,,12,,,83,127
145793,note_on,1,0,0,,10,,,81,127
145827,note_off,34,0,0,,10,,,81,127
145828,note_on,1,0,0,,12,,,83,127
145862,note_off,34,0,0,,12,,,83,127
145863,note_on,1,0,0,,10,,,81,127
146176,note_off,313,0,0,,10,,,81,127
146177,note_on,1,0,0,,10,,,81,127
146595,note_off,418,0,0,,10,,,81,127
146596,note_on,1,0,0,,12,,,59,127
146700,note_off,104,0,0,,12,,,59,127
146701,note_on,1,0,0,,10,,,57,127
146805,note_off,104,0,0,,10,,,57,127
146806,note_on,1,0,0,,7,,,55,127
146910,note_off,104,0,0,,7,,,55,127
146911,note_on,1,0,0,,6,,,54,127
146962,note_off,51,0,0,,6,,,54,127
146963,note_on,1,0,0,,7,,,55,127
147014,note_off,51,0,0,,7,,,55,127
147015,note_on,1,0,0,,10,,,57,127
147066,note_off,51,0,0,,10,,,57,127
147067,note_on,1,0,0,,12,,,59,127
147118,note_off,51,0,0,,12,,,59,127
147119,note_on,1,0,0,,1,,,61,127
147170,note_off,51,0,0,,1,,,61,127
147171,note_on,1,0,0,,2,,,62,127
147222,note_off,51,0,0,,2,,,62,127
147223,note_on,1,0,0,,4,,,64,127
147274,note_off,51,0,0,,4,,,64,127
147275,note_on,1,0,0,,6,,,66,127
147326,note_off,51,0,0,,6,,,66,127
147327,note_on,1,0,0,,7,,,67,127
147378,note_off,51,0,0,,7,,,67,127
147379,note_on,1,0,0,,10,,,69,127
147430,note_off,51,0,0,,10,,,69,127
147431,note_on,1,0,0,,10,,,69,127
147465,note_off,34,0,0,,10,,,69,127
147466,note_on,1,0,0,,7,,,67,127
147500,note_off,34,0,0,,7,,,67,127
147501,note_on,1,0,0,,10,,,69,127
147535,note_off,34,0,0,,10,,,69,127
147536,note_on,1,0,0,,7,,,67,127
147849,note_off,313,0,0,,7,,,67,127
147850,note_on,1,0,0,,7,,,67,127
148268,note_off,418,0,0,,7,,,67,127
148269,note_on,1,0,0,,12,,,83,127
148269,note_on,0,0,0,,10,,,45,127
148477,note_off,208,0,0,,12,,,83,127
148478,note_on,1,0,0,,7,,,79,127
148686,note_off,208,0,0,,7,,,79,127
148686,note_off,0,0,0,,10,,,45,127
148687,note_on,1,0,0,,6,,,78,127
148687,note_on,0,0,0,,10,,,69,127
148687,note_on,0,0,0,,10,,,45,127
149000,note_off,313,0,0,,10,,,69,127
149000,note_off,0,0,0,,6,,,78,127
149001,note_on,1,0,0,,7,,,67,127
149001,note_on,0,0,0,,4,,,76,127
149105,note_off,104,0,0,,4,,,76,127
149105,note_off,0,0,0,,7,,,67,127
149105,note_off,0,0,0,,10,,,45,127
149106,note_on,1,0,0,,2,,,74,127
149106,note_on,0,0,0,,6,,,66,127
149106,note_on,0,0,0,,10,,,45,127
149524,note_off,418,0,0,,10,,,45,127
149524,note_off,0,0,0,,6,,,66,127
149524,note_off,0,0,0,,2,,,74,127
149525,note_on,1,0,0,,4,,,64,127
149525,note_on,0,0,0,,1,,,73,127
149525,note_on,0,0,0,,10,,,45,127
149943,note_off,418,0,0,,10,,,45,127
149943,note_off,0,0,0,,1,,,73,127
149943,note_off,0,0,0,,4,,,64,127
149944,note_on,1,0,0,,2,,,74,127
149944,note_on,0,0,0,,2,,,62,127
149944,note_on,0,0,0,,2,,,38,127
150152,note_off,208,0,0,,2,,,62,127
150152,note_off,0,0,0,,2,,,74,127
150153,note_on,1,0,0,,6,,,78,127
150153,note_on,0,0,0,,2,,,86,127
150361,note_off,208,0,0,,2,,,86,127
150361,note_off,0,0,0,,6,,,78,127
150361,note_off,0,0,0,,2,,,38,127
150362,note_on,1,0,0,,12,,,83,127
150362,note_on,0,0,0,,2,,,74,127
150362,note_on,0,0,0,,7,,,43,127
150570,note_off,208,0,0,,2,,,74,127
150570,note_off,0,0,0,,12,,,83,127
150571,note_on,1,0,0,,7,,,79,127
150571,note_on,0,0,0,,12,,,71,127
150779,note_off,208,0,0,,12,,,71,127
150779,note_off,0,0,0,,7,,,79,127
150779,note_off,0,0,0,,7,,,43,127
150780,note_on,1,0,0,,7,,,67,127
150780,note_on,0,0,0,,4,,,76,127
150780,note_on,0,0,0,,7,,,43,127
150988,note_off,208,0,0,,4,,,76,127
150988,note_off,0,0,0,,7,,,67,127
150989,note_on,1,0,0,,1,,,73,127
150989,note_on,0,0,0,,4,,,64,127
151197,note_off,208,0,0,,4,,,64,127
151197,note_off,0,0,0,,1,,,73,127
151197,note_off,0,0,0,,7,,,43,127
151198,note_on,1,0,0,,1,,,61,127
151198,note_on,0,0,0,,7,,,67,127
151198,note_on,0,0,0,,7,,,43,127
151406,note_off,208,0,0,,7,,,67,127
151406,note_off,0,0,0,,1,,,61,127
151407,note_on,1,0,0,,4,,,64,127
151407,note_on,0,0,0,,7,,,55,127
151615,note_off,208,0,0,,7,,,55,127
151615,note_off,0,0,0,,4,,,64,127
151615,note_off,0,0,0,,7,,,43,127
151616,note_on,1,0,0,,2,,,62,127
151616,note_on,0,0,0,,6,,,54,127
151616,note_on,0,0,0,,10,,,45,127
152034,note_off,418,0,0,,10,,,45,127
152035,note_on,1,0,0,,10,,,45,127
152243,note_off,208,0,0,,6,,,54,127
152243,note_off,0,0,0,,2,,,62,127
152244,note_on,1,0,0,,1,,,61,127
152348,note_off,104,0,0,,1,,,61,127
152349,note_on,1,0,0,,12,,,59,127
152453,note_off,104,0,0,,12,,,59,127
152453,note_off,0,0,0,,10,,,45,127
152454,note_on,1,0,0,,10,,,57,127
152454,note_on,0,0,0,,10,,,45,127
152558,note_off,104,0,0,,10,,,57,127
152559,note_on,1,0,0,,12,,,59,127
152663,note_off,104,0,0,,12,,,59,127
152664,note_on,1,0,0,,1,,,61,127
152715,note_off,51,0,0,,1,,,61,127
152716,note_on,1,0,0,,2,,,62,127
152767,note_off,51,0,0,,2,,,62,127
152768,note_on,1,0,0,,4,,,64,127
152819,note_off,51,0,0,,4,,,64,127
152820,note_on,1,0,0,,6,,,66,127
152871,note_off,51,0,0,,6,,,66,127
152871,note_off,0,0,0,,10,,,45,127
152872,note_on,1,0,0,,6,,,66,127
152872,note_on,0,0,0,,10,,,45,127
152923,note_off,51,0,0,,6,,,66,127
152924,note_on,1,0,0,,4,,,64,127
152975,note_off,51,0,0,,4,,,64,127
152976,note_on,1,0,0,,6,,,66,127
153027,note_off,51,0,0,,6,,,66,127
153028,note_on,1,0,0,,4,,,64,127
153079,note_off,51,0,0,,4,,,64,127
153080,note_on,1,0,0,,6,,,66,127
153131,note_off,51,0,0,,6,,,66,127
153132,note_on,1,0,0,,4,,,64,127
153183,note_off,51,0,0,,4,,,64,127
153184,note_on,1,0,0,,2,,,62,127
153235,note_off,51,0,0,,2,,,62,127
153236,note_on,1,0,0,,4,,,64,127
153287,note_off,51,0,0,,4,,,64,127
153287,note_off,0,0,0,,10,,,45,127
153288,note_on,1,0,0,,2,,,62,127
153288,note_on,0,0,0,,2,,,38,127
153496,note_off,208,0,0,,2,,,62,127
153497,note_on,1,0,0,,6,,,78,127
153497,note_on,0,0,0,,2,,,86,127
153705,note_off,208,0,0,,2,,,86,127
153705,note_off,0,0,0,,6,,,78,127
153705,note_off,0,0,0,,2,,,38,127
153706,note_on,1,0,0,,12,,,83,127
153706,note_on,0,0,0,,2,,,74,127
153706,note_on,0,0,0,,7,,,43,127
153914,note_off,208,0,0,,2,,,74,127
153914,note_off,0,0,0,,12,,,83,127
153915,note_on,1,0,0,,7,,,79,127
153915,note_on,0,0,0,,12,,,71,127
154123,note_off,208,0,0,,12,,,71,127
154123,note_off,0,0,0,,7,,,79,127
154123,note_off,0,0,0,,7,,,43,127
154124,note_on,1,0,0,,4,,,76,127
154124,note_on,0,0,0,,7,,,67,127
154124,note_on,0,0,0,,7,,,43,127
154332,note_off,208,0,0,,7,,,67,127
154332,note_off,0,0,0,,4,,,76,127
154333,note_on,1,0,0,,1,,,73,127
154333,note_on,0,0,0,,4,,,64,127
154541,note_off,208,0,0,,4,,,64,127
154541,note_off,0,0,0,,1,,,73,127
154541,note_off,0,0,0,,7,,,43,127
154542,note_on,1,0,0,,1,,,61,127
154542,note_on,0,0,0,,7,,,67,127
154542,note_on,0,0,0,,7,,,43,127
154750,note_off,208,0,0,,7,,,67,127
154750,note_off,0,0,0,,1,,,61,127
154751,note_on,1,0,0,,4,,,64,127
154751,note_on,0,0,0,,7,,,55,127
154959,note_off,208,0,0,,7,,,55,127
154959,note_off,0,0,0,,4,,,64,127
154959,note_off,0,0,0,,7,,,43,127
154960,note_on,1,0,0,,2,,,62,127
154960,note_on,0,0,0,,10,,,45,127
155378,note_off,418,0,0,,10,,,45,127
155379,note_on,1,0,0,,10,,,45,127
155587,note_off,208,0,0,,2,,,62,127
155588,note_on,1,0,0,,1,,,61,127
155692,note_off,104,0,0,,1,,,61,127
155693,note_on,1,0,0,,12,,,59,127
155797,note_off,104,0,0,,12,,,59,127
155797,note_off,0,0,0,,10,,,45,127
155798,note_on,1,0,0,,10,,,57,127
155798,note_on,0,0,0,,10,,,45,127
155902,note_off,104,0,0,,10,,,57,127
155903,note_on,1,0,0,,12,,,59,127
156007,note_off,104,0,0,,12,,,59,127
156008,note_on,1,0,0,,1,,,61,127
156059,note_off,51,0,0,,1,,,61,127
156060,note_on,1,0,0,,2,,,62,127
156111,note_off,51,0,0,,2,,,62,127
156112,note_on,1,0,0,,4,,,64,127
156163,note_off,51,0,0,,4,,,64,127
156164,note_on,1,0,0,,6,,,66,127
156215,note_off,51,0,0,,6,,,66,127
156215,note_off,0,0,0,,10,,,45,127
156216,note_on,1,0,0,,6,,,66,127
156216,note_on,0,0,0,,10,,,45,127
156267,note_off,51,0,0,,6,,,66,127
156268,note_on,1,0,0,,4,,,64,127
156319,note_off,51,0,0,,4,,,64,127
156320,note_on,1,0,0,,6,,,66,127
156371,note_off,51,0,0,,6,,,66,127
156372,note_on,1,0,0,,4,,,64,127
156423,note_off,51,0,0,,4,,,64,127
156424,note_on,1,0,0,,6,,,66,127
156475,note_off,51,0,0,,6,,,66,127
156476,note_on,1,0,0,,4,,,64,127
156527,note_off,51,0,0,,4,,,64,127
156528,note_on,1,0,0,,6,,,66,127
156579,note_off,51,0,0,,6,,,66,127
156580,note_on,1,0,0,,4,,,64,127
156631,note_off,51,0,0,,4,,,64,127
156631,note_off,0,0,0,,10,,,45,127
156632,note_on,1,0,0,,2,,,62,127
156683,note_off,51,0,0,,2,,,62,127
156684,note_on,1,0,0,,4,,,64,127
156735,note_off,51,0,0,,4,,,64,127
156746,note_on,11,0,0,,2,,,62,127
156746,note_on,0,0,0,,2,,,38,127
158841,note_off,2095,0,0,,2,,,38,127
158841,note_off,0,0,0,,2,,,62,127
159744,end_of_track,903,1,0,,,,,,
