tick,type,time,meta,track,program,channel,pitch,tempo,note,velocity
0,copyright,0,1,0,,,,,,
0,program_change,0,0,0,6,0,,,,
0,pitchwheel,0,0,0,,0,0,,,
0,program_change,0,0,0,6,1,,,,
0,pitchwheel,0,0,0,,1,-590,,,
0,program_change,0,0,0,6,2,,,,
0,pitchwheel,0,0,0,,2,-272,,,
0,program_change,0,0,0,6,3,,,,
0,pitchwheel,0,0,0,,3,-353,,,
0,program_change,0,0,0,6,4,,,,
0,pitchwheel,0,0,0,,4,-560,,,
0,program_change,0,0,0,6,5,,,,
0,pitchwheel,0,0,0,,5,-80,,,
0,program_change,0,0,0,6,6,,,,
0,pitchwheel,0,0,0,,6,-625,,,
0,program_change,0,0,0,6,7,,,,
0,pitchwheel,0,0,0,,7,-130,,,
0,program_change,0,0,0,6,8,,,,
0,pitchwheel,0,0,0,,8,-512,,,
0,program_change,0,0,0,6,10,,,,
0,pitchwheel,0,0,0,,10,-464,,,
0,program_change,0,0,0,6,11,,,,
0,pitchwheel,0,0,0,,11,-208,,,
0,program_change,0,0,0,6,12,,,,
0,pitchwheel,0,0,0,,12,-553,,,
0,set_tempo,0,1,0,,,,500000,,
110,note_on,110,0,0,,4,,,76,127
147,note_on,37,0,0,,2,,,74,127
163,note_off,16,0,0,,4,,,76,127
184,note_on,21,0,0,,4,,,76,127
200,note_off,16,0,0,,2,,,74,127
221,note_on,21,0,0,,2,,,74,127
237,note_off,16,0,0,,4,,,76,127
549,note_off,312,0,0,,2,,,74,127
550,note_on,1,0,0,,4,,,76,127
587,note_on,37,0,0,,2,,,74,127
603,note_off,16,0,0,,4,,,76,127
624,note_on,21,0,0,,4,,,76,127
640,note_off,16,0,0,,2,,,74,127
661,note_on,21,0,0,,2,,,74,127
677,note_off,16,0,0,,4,,,76,127
989,note_off,312,0,0,,2,,,74,127
990,note_on,1,0,0,,4,,,76,127
1027,note_on,37,0,0,,2,,,74,127
1043,note_off,16,0,0,,4,,,76,127
1064,note_on,21,0,0,,4,,,76,127
1080,note_off,16,0,0,,2,,,74,127
1101,note_on,21,0,0,,2,,,74,127
1117,note_off,16,0,0,,4,,,76,127
1429,note_off,312,0,0,,2,,,74,127
1430,note_on,1,0,0,,4,,,64,127
1430,note_on,0,0,0,,2,,,74,127
1467,note_on,37,0,0,,2,,,62,127
1483,note_off,16,0,0,,4,,,64,127
1504,note_on,21,0,0,,4,,,64,127
1520,note_off,16,0,0,,2,,,62,127
1539,note_off,19,0,0,,2,,,74,127
1540,note_on,1,0,0,,2,,,62,127
1540,note_on,0,0,0,,4,,,76,127
1556,note_off,16,0,0,,4,,,64,127
1649,note_off,93,0,0,,4,,,76,127
1650,note_on,1,0,0,,6,,,78,127
1759,note_off,109,0,0,,6,,,78,127
1760,note_on,1,0,0,,7,,,79,127
1869,note_off,109,0,0,,7,,,79,127
1869,note_off,0,0,0,,2,,,62,127
1870,note_on,1,0,0,,4,,,64,127
1870,note_on,0,0,0,,10,,,81,127
1907,note_on,37,0,0,,2,,,62,127
1923,note_off,16,0,0,,4,,,64,127
1944,note_on,21,0,0,,4,,,64,127
1960,note_off,16,0,0,,2,,,62,127
1979,note_off,19,0,0,,10,,,81,127
1980,note_on,1,0,0,,2,,,62,127
1980,note_on,0,0,0,,7,,,79,127
1996,note_off,16,0,0,,4,,,64,127
2089,note_off,93,0,0,,7,,,79,127
2090,note_on,1,0,0,,6,,,78,127
2199,note_off,109,0,0,,6,,,78,127
2200,note_on,1,0,0,,4,,,76,127
2309,note_off,109,0,0,,4,,,76,127
2309,note_off,0,0,0,,2,,,62,127
2310,note_on,1,0,0,,4,,,64,127
2310,note_on,0,0,0,,2,,,74,127
2347,note_on,37,0,0,,2,,,62,127
2363,note_off,16,0,0,,4,,,64,127
2384,note_on,21,0,0,,4,,,64,127
2400,note_off,16,0,0,,2,,,62,127
2419,note_off,19,0,0,,2,,,74,127
2420,note_on,1,0,0,,2,,,62,127
2420,note_on,0,0,0,,1,,,73,127
2436,note_off,16,0,0,,4,,,64,127
2529,note_off,93,0,0,,1,,,73,127
2530,note_on,1,0,0,,12,,,71,127
2639,note_off,109,0,0,,12,,,71,127
2640,note_on,1,0,0,,10,,,69,127
2749,note_off,109,0,0,,10,,,69,127
2749,note_off,0,0,0,,2,,,62,127
2750,note_on,1,0,0,,2,,,62,127
2750,note_on,0,0,0,,4,,,76,127
2787,note_on,37,0,0,,2,,,74,127
2803,note_off,16,0,0,,4,,,76,127
2824,note_on,21,0,0,,4,,,76,127
2840,note_off,16,0,0,,2,,,74,127
2859,note_off,19,0,0,,2,,,62,127
2860,note_on,1,0,0,,4,,,64,127
2860,note_on,0,0,0,,2,,,74,127
2876,note_off,16,0,0,,4,,,76,127
2969,note_off,93,0,0,,4,,,64,127
2970,note_on,1,0,0,,6,,,66,127
3079,note_off,109,0,0,,6,,,66,127
3080,note_on,1,0,0,,7,,,67,127
3189,note_off,109,0,0,,7,,,67,127
3189,note_off,0,0,0,,2,,,74,127
3190,note_on,1,0,0,,10,,,69,127
3190,note_on,0,0,0,,4,,,76,127
3227,note_on,37,0,0,,2,,,74,127
3243,note_off,16,0,0,,4,,,76,127
3264,note_on,21,0,0,,4,,,76,127
3280,note_off,16,0,0,,2,,,74,127
3299,note_off,19,0,0,,10,,,69,127
3300,note_on,1,0,0,,7,,,67,127
3300,note_on,0,0,0,,2,,,74,127
3316,note_off,16,0,0,,4,,,76,127
3409,note_off,93,0,0,,7,,,67,127
3410,note_on,1,0,0,,6,,,66,127
3519,note_off,109,0,0,,6,,,66,127
3520,note_on,1,0,0,,4,,,64,127
3629,note_off,109,0,0,,4,,,64,127
3629,note_off,0,0,0,,2,,,74,127
3630,note_on,1,0,0,,2,,,62,127
3630,note_on,0,0,0,,6,,,78,127
3684,note_off,54,0,0,,6,,,78,127
3685,note_on,1,0,0,,4,,,76,127
3739,note_off,54,0,0,,4,,,76,127
3739,note_off,0,0,0,,2,,,62,127
3740,note_on,1,0,0,,1,,,61,127
3740,note_on,0,0,0,,6,,,78,127
3794,note_off,54,0,0,,6,,,78,127
3795,note_on,1,0,0,,4,,,76,127
3849,note_off,54,0,0,,4,,,76,127
3849,note_off,0,0,0,,1,,,61,127
3850,note_on,1,0,0,,12,,,59,127
3850,note_on,0,0,0,,6,,,78,127
3904,note_off,54,0,0,,6,,,78,127
3905,note_on,1,0,0,,4,,,76,127
3959,note_off,54,0,0,,4,,,76,127
3959,note_off,0,0,0,,12,,,59,127
3960,note_on,1,0,0,,10,,,57,127
3960,note_on,0,0,0,,2,,,74,127
4014,note_off,54,0,0,,2,,,74,127
4015,note_on,1,0,0,,4,,,76,127
4069,note_off,54,0,0,,4,,,76,127
4069,note_off,0,0,0,,10,,,57,127
4070,note_on,1,0,0,,2,,,50,127
4070,note_on,0,0,0,,2,,,62,127
4289,note_on,219,0,0,,6,,,78,127
4398,note_off,109,0,0,,6,,,78,127
4399,note_on,1,0,0,,7,,,79,127
4508,note_off,109,0,0,,7,,,79,127
4508,note_off,0,0,0,,2,,,62,127
4508,note_off,0,0,0,,2,,,50,127
4509,note_on,1,0,0,,2,,,50,127
4509,note_on,0,0,0,,2,,,62,127
4509,note_on,0,0,0,,10,,,81,127
4727,note_off,218,0,0,,10,,,81,127
4728,note_on,1,0,0,,2,,,74,127
4946,note_off,218,0,0,,2,,,74,127
4946,note_off,0,0,0,,2,,,62,127
4946,note_off,0,0,0,,2,,,50,127
4947,note_on,1,0,0,,6,,,54,127
4947,note_on,0,0,0,,2,,,62,127
4947,note_on,0,0,0,,10,,,81,127
5165,note_off,218,0,0,,10,,,81,127
5166,note_on,1,0,0,,2,,,74,127
5384,note_off,218,0,0,,2,,,74,127
5384,note_off,0,0,0,,2,,,62,127
5384,note_off,0,0,0,,6,,,54,127
5385,note_on,1,0,0,,7,,,55,127
5385,note_on,0,0,0,,4,,,64,127
5385,note_on,0,0,0,,2,,,62,127
5604,note_on,219,0,0,,4,,,76,127
5713,note_off,109,0,0,,4,,,76,127
5714,note_on,1,0,0,,6,,,78,127
5823,note_off,109,0,0,,6,,,78,127
5823,note_off,0,0,0,,2,,,62,127
5823,note_off,0,0,0,,4,,,64,127
5823,note_off,0,0,0,,7,,,55,127
5824,note_on,1,0,0,,7,,,55,127
5824,note_on,0,0,0,,4,,,64,127
5824,note_on,0,0,0,,2,,,62,127
5824,note_on,0,0,0,,7,,,79,127
6042,note_off,218,0,0,,7,,,79,127
6043,note_on,1,0,0,,1,,,73,127
6261,note_off,218,0,0,,1,,,73,127
6261,note_off,0,0,0,,2,,,62,127
6261,note_off,0,0,0,,4,,,64,127
6261,note_off,0,0,0,,7,,,55,127
6262,note_on,1,0,0,,4,,,64,127
6262,note_on,0,0,0,,10,,,57,127
6262,note_on,0,0,0,,7,,,79,127
6480,note_off,218,0,0,,7,,,79,127
6481,note_on,1,0,0,,1,,,73,127
6699,note_off,218,0,0,,1,,,73,127
6699,note_off,0,0,0,,10,,,57,127
6699,note_off,0,0,0,,4,,,64,127
6700,note_on,1,0,0,,2,,,74,127
6700,note_on,0,0,0,,6,,,78,127
6919,note_on,219,0,0,,6,,,66,127
7028,note_off,109,0,0,,6,,,66,127
7029,note_on,1,0,0,,7,,,67,127
7138,note_off,109,0,0,,7,,,67,127
7138,note_off,0,0,0,,6,,,78,127
7138,note_off,0,0,0,,2,,,74,127
7139,note_on,1,0,0,,10,,,69,127
7139,note_on,0,0,0,,2,,,74,127
7139,note_on,0,0,0,,6,,,78,127
7357,note_off,218,0,0,,10,,,69,127
7358,note_on,1,0,0,,2,,,62,127
7576,note_off,218,0,0,,2,,,62,127
7576,note_off,0,0,0,,6,,,78,127
7576,note_off,0,0,0,,2,,,74,127
7577,note_on,1,0,0,,10,,,69,127
7577,note_on,0,0,0,,6,,,78,127
7577,note_on,0,0,0,,10,,,81,127
7795,note_off,218,0,0,,10,,,69,127
7796,note_on,1,0,0,,2,,,62,127
8014,note_off,218,0,0,,2,,,62,127
8014,note_off,0,0,0,,10,,,81,127
8014,note_off,0,0,0,,6,,,78,127
8015,note_on,1,0,0,,10,,,57,127
8015,note_on,0,0,0,,4,,,76,127
8015,note_on,0,0,0,,7,,,79,127
8233,note_off,218,0,0,,10,,,57,127
8234,note_on,1,0,0,,4,,,64,127
8343,note_off,109,0,0,,4,,,64,127
8344,note_on,1,0,0,,6,,,66,127
8453,note_off,109,0,0,,6,,,66,127
8453,note_off,0,0,0,,7,,,79,127
8453,note_off,0,0,0,,4,,,76,127
8454,note_on,1,0,0,,7,,,67,127
8454,note_on,0,0,0,,4,,,76,127
8454,note_on,0,0,0,,7,,,79,127
8672,note_off,218,0,0,,7,,,67,127
8673,note_on,1,0,0,,1,,,61,127
8891,note_off,218,0,0,,1,,,61,127
8891,note_off,0,0,0,,7,,,79,127
8891,note_off,0,0,0,,4,,,76,127
8892,note_on,1,0,0,,7,,,67,127
8892,note_on,0,0,0,,4,,,76,127
8892,note_on,0,0,0,,7,,,79,127
9110,note_off,218,0,0,,7,,,67,127
9111,note_on,1,0,0,,1,,,61,127
9329,note_off,218,0,0,,1,,,61,127
9329,note_off,0,0,0,,7,,,79,127
9329,note_off,0,0,0,,4,,,76,127
9330,note_on,1,0,0,,4,,,52,127
9367,note_on,37,0,0,,2,,,50,127
9383,note_off,16,0,0,,4,,,52,127
9404,note_on,21,0,0,,4,,,52,127
9420,note_off,16,0,0,,2,,,50,127
9441,note_on,21,0,0,,2,,,50,127
9457,note_off,16,0,0,,4,,,52,127
9551,note_on,94,0,0,,6,,,78,127
9551,note_on,0,0,0,,10,,,69,127
9660,note_off,109,0,0,,10,,,69,127
9660,note_off,0,0,0,,6,,,78,127
9661,note_on,1,0,0,,7,,,79,127
9661,note_on,0,0,0,,12,,,71,127
9770,note_off,109,0,0,,12,,,71,127
9770,note_off,0,0,0,,7,,,79,127
9770,note_off,0,0,0,,2,,,50,127
9771,note_on,1,0,0,,2,,,50,127
9771,note_on,0,0,0,,10,,,69,127
9771,note_on,0,0,0,,6,,,78,127
9989,note_off,218,0,0,,6,,,78,127
9989,note_off,0,0,0,,10,,,69,127
9990,note_on,1,0,0,,12,,,71,127
9990,note_on,0,0,0,,7,,,79,127
10208,note_off,218,0,0,,7,,,79,127
10208,note_off,0,0,0,,12,,,71,127
10208,note_off,0,0,0,,2,,,50,127
10209,note_on,1,0,0,,2,,,50,127
10209,note_on,0,0,0,,6,,,78,127
10209,note_on,0,0,0,,10,,,69,127
10427,note_off,218,0,0,,10,,,69,127
10427,note_off,0,0,0,,6,,,78,127
10428,note_on,1,0,0,,4,,,76,127
10428,note_on,0,0,0,,7,,,67,127
10646,note_off,218,0,0,,7,,,67,127
10646,note_off,0,0,0,,4,,,76,127
10647,note_on,1,0,0,,6,,,66,127
10647,note_on,0,0,0,,2,,,74,127
10865,note_off,218,0,0,,2,,,50,127
10866,note_on,1,0,0,,6,,,54,127
10866,note_on,0,0,0,,2,,,62,127
10975,note_off,109,0,0,,2,,,62,127
10975,note_off,0,0,0,,6,,,54,127
10976,note_on,1,0,0,,4,,,64,127
10976,note_on,0,0,0,,7,,,55,127
11085,note_off,109,0,0,,7,,,55,127
11085,note_off,0,0,0,,4,,,64,127
11085,note_off,0,0,0,,2,,,74,127
11085,note_off,0,0,0,,6,,,66,127
11086,note_on,1,0,0,,2,,,62,127
11086,note_on,0,0,0,,6,,,54,127
11086,note_on,0,0,0,,6,,,66,127
11086,note_on,0,0,0,,2,,,74,127
11304,note_off,218,0,0,,6,,,54,127
11304,note_off,0,0,0,,2,,,62,127
11305,note_on,1,0,0,,4,,,64,127
11305,note_on,0,0,0,,7,,,55,127
11523,note_off,218,0,0,,7,,,55,127
11523,note_off,0,0,0,,4,,,64,127
11523,note_off,0,0,0,,2,,,74,127
11523,note_off,0,0,0,,6,,,66,127
11524,note_on,1,0,0,,6,,,54,127
11524,note_on,0,0,0,,2,,,62,127
11524,note_on,0,0,0,,7,,,67,127
11524,note_on,0,0,0,,4,,,76,127
11742,note_off,218,0,0,,2,,,62,127
11742,note_off,0,0,0,,6,,,54,127
11743,note_on,1,0,0,,4,,,52,127
11743,note_on,0,0,0,,1,,,61,127
11961,note_off,218,0,0,,1,,,61,127
11961,note_off,0,0,0,,4,,,52,127
11961,note_off,0,0,0,,4,,,76,127
11961,note_off,0,0,0,,7,,,67,127
11962,note_on,1,0,0,,2,,,50,127
11962,note_on,0,0,0,,2,,,62,127
12181,note_on,219,0,0,,6,,,78,127
12181,note_on,0,0,0,,10,,,69,127
12290,note_off,109,0,0,,10,,,69,127
12290,note_off,0,0,0,,6,,,78,127
12291,note_on,1,0,0,,12,,,71,127
12291,note_on,0,0,0,,7,,,79,127
12400,note_off,109,0,0,,7,,,79,127
12400,note_off,0,0,0,,12,,,71,127
12400,note_off,0,0,0,,2,,,62,127
12400,note_off,0,0,0,,2,,,50,127
12401,note_on,1,0,0,,2,,,50,127
12401,note_on,0,0,0,,6,,,78,127
12401,note_on,0,0,0,,10,,,69,127
12619,note_off,218,0,0,,10,,,69,127
12619,note_off,0,0,0,,6,,,78,127
12620,note_on,1,0,0,,7,,,79,127
12620,note_on,0,0,0,,12,,,71,127
12838,note_off,218,0,0,,12,,,71,127
12838,note_off,0,0,0,,7,,,79,127
12838,note_off,0,0,0,,2,,,50,127
12839,note_on,1,0,0,,2,,,50,127
12839,note_on,0,0,0,,6,,,78,127
12839,note_on,0,0,0,,10,,,69,127
13057,note_off,218,0,0,,10,,,69,127
13057,note_off,0,0,0,,6,,,78,127
13058,note_on,1,0,0,,4,,,76,127
13058,note_on,0,0,0,,7,,,67,127
13276,note_off,218,0,0,,7,,,67,127
13276,note_off,0,0,0,,4,,,76,127
13277,note_on,1,0,0,,6,,,66,127
13277,note_on,0,0,0,,2,,,74,127
13495,note_off,218,0,0,,2,,,50,127
13496,note_on,1,0,0,,6,,,54,127
13496,note_on,0,0,0,,2,,,62,127
13605,note_off,109,0,0,,2,,,62,127
13605,note_off,0,0,0,,6,,,54,127
13606,note_on,1,0,0,,7,,,55,127
13606,note_on,0,0,0,,4,,,64,127
13715,note_off,109,0,0,,4,,,64,127
13715,note_off,0,0,0,,7,,,55,127
13715,note_off,0,0,0,,2,,,74,127
13715,note_off,0,0,0,,6,,,66,127
13716,note_on,1,0,0,,6,,,54,127
13716,note_on,0,0,0,,2,,,62,127
13716,note_on,0,0,0,,6,,,66,127
13716,note_on,0,0,0,,2,,,74,127
13934,note_off,218,0,0,,2,,,62,127
13934,note_off,0,0,0,,6,,,54,127
13935,note_on,1,0,0,,4,,,64,127
13935,note_on,0,0,0,,7,,,55,127
14153,note_off,218,0,0,,7,,,55,127
14153,note_off,0,0,0,,4,,,64,127
14153,note_off,0,0,0,,2,,,74,127
14153,note_off,0,0,0,,6,,,66,127
14154,note_on,1,0,0,,2,,,62,127
14154,note_on,0,0,0,,6,,,54,127
14154,note_on,0,0,0,,7,,,67,127
14154,note_on,0,0,0,,4,,,76,127
14372,note_off,218,0,0,,6,,,54,127
14372,note_off,0,0,0,,2,,,62,127
14373,note_on,1,0,0,,4,,,52,127
14373,note_on,0,0,0,,1,,,61,127
14591,note_off,218,0,0,,1,,,61,127
14591,note_off,0,0,0,,4,,,52,127
14591,note_off,0,0,0,,4,,,76,127
14591,note_off,0,0,0,,7,,,67,127
14592,note_on,1,0,0,,2,,,50,127
14592,note_on,0,0,0,,2,,,62,127
14592,note_on,0,0,0,,10,,,69,127
14592,note_on,0,0,0,,6,,,78,127
14810,note_off,218,0,0,,6,,,78,127
14811,note_on,1,0,0,,6,,,78,127
14920,note_off,109,0,0,,6,,,78,127
14921,note_on,1,0,0,,7,,,79,127
15030,note_off,109,0,0,,7,,,79,127
15030,note_off,0,0,0,,10,,,69,127
15030,note_off,0,0,0,,2,,,62,127
15030,note_off,0,0,0,,2,,,50,127
15031,note_on,1,0,0,,6,,,54,127
15031,note_on,0,0,0,,10,,,81,127
15031,note_on,0,0,0,,10,,,69,127
15249,note_off,218,0,0,,10,,,69,127
15249,note_off,0,0,0,,10,,,81,127
15250,note_on,1,0,0,,10,,,81,127
15250,note_on,0,0,0,,6,,,78,127
15468,note_off,218,0,0,,6,,,78,127
15468,note_off,0,0,0,,10,,,81,127
15468,note_off,0,0,0,,6,,,54,127
15469,note_on,1,0,0,,7,,,55,127
15469,note_on,0,0,0,,7,,,79,127
15469,note_on,0,0,0,,4,,,76,127
15687,note_off,218,0,0,,4,,,76,127
15687,note_off,0,0,0,,7,,,79,127
15688,note_on,1,0,0,,6,,,78,127
15688,note_on,0,0,0,,2,,,74,127
15906,note_off,218,0,0,,2,,,74,127
15906,note_off,0,0,0,,6,,,78,127
15906,note_off,0,0,0,,7,,,55,127
15907,note_on,1,0,0,,10,,,45,127
15907,note_on,0,0,0,,10,,,33,127
15907,note_on,0,0,0,,4,,,76,127
15907,note_on,0,0,0,,10,,,69,127
16125,note_off,218,0,0,,10,,,69,127
16125,note_off,0,0,0,,4,,,76,127
16126,note_on,1,0,0,,10,,,69,127
16126,note_on,0,0,0,,4,,,76,127
16235,note_off,109,0,0,,4,,,76,127
16235,note_off,0,0,0,,10,,,69,127
16236,note_on,1,0,0,,10,,,69,127
16236,note_on,0,0,0,,4,,,76,127
16345,note_off,109,0,0,,4,,,76,127
16345,note_off,0,0,0,,10,,,69,127
16345,note_off,0,0,0,,10,,,33,127
16345,note_off,0,0,0,,10,,,45,127
16346,note_on,1,0,0,,10,,,45,127
16346,note_on,0,0,0,,10,,,33,127
16346,note_on,0,0,0,,10,,,69,127
16346,note_on,0,0,0,,4,,,76,127
16564,note_off,218,0,0,,4,,,76,127
16564,note_off,0,0,0,,10,,,69,127
16565,note_on,1,0,0,,6,,,66,127
16565,note_on,0,0,0,,2,,,74,127
16783,note_off,218,0,0,,2,,,74,127
16783,note_off,0,0,0,,6,,,66,127
16783,note_off,0,0,0,,10,,,33,127
16783,note_off,0,0,0,,10,,,45,127
16784,note_on,1,0,0,,10,,,45,127
16784,note_on,0,0,0,,10,,,33,127
16784,note_on,0,0,0,,4,,,64,127
16784,note_on,0,0,0,,1,,,73,127
17002,note_off,218,0,0,,1,,,73,127
17002,note_off,0,0,0,,4,,,64,127
17003,note_on,1,0,0,,2,,,74,127
17003,note_on,0,0,0,,2,,,62,127
17221,note_off,218,0,0,,2,,,62,127
17221,note_off,0,0,0,,2,,,74,127
17221,note_off,0,0,0,,10,,,33,127
17221,note_off,0,0,0,,10,,,45,127
17222,note_on,1,0,0,,10,,,45,127
17222,note_on,0,0,0,,10,,,33,127
17222,note_on,0,0,0,,10,,,69,127
17222,note_on,0,0,0,,4,,,76,127
17440,note_off,218,0,0,,4,,,76,127
17440,note_off,0,0,0,,10,,,69,127
17441,note_on,1,0,0,,4,,,76,127
17441,note_on,0,0,0,,10,,,69,127
17550,note_off,109,0,0,,10,,,69,127
17550,note_off,0,0,0,,4,,,76,127
17551,note_on,1,0,0,,10,,,69,127
17551,note_on,0,0,0,,4,,,76,127
17660,note_off,109,0,0,,4,,,76,127
17660,note_off,0,0,0,,10,,,69,127
17660,note_off,0,0,0,,10,,,33,127
17660,note_off,0,0,0,,10,,,45,127
17661,note_on,1,0,0,,10,,,45,127
17661,note_on,0,0,0,,10,,,33,127
17661,note_on,0,0,0,,4,,,76,127
17661,note_on,0,0,0,,10,,,69,127
17879,note_off,218,0,0,,10,,,69,127
17879,note_off,0,0,0,,4,,,76,127
17880,note_on,1,0,0,,2,,,74,127
17880,note_on,0,0,0,,6,,,66,127
18098,note_off,218,0,0,,6,,,66,127
18098,note_off,0,0,0,,2,,,74,127
18098,note_off,0,0,0,,10,,,33,127
18098,note_off,0,0,0,,10,,,45,127
18099,note_on,1,0,0,,10,,,45,127
18099,note_on,0,0,0,,10,,,33,127
18099,note_on,0,0,0,,4,,,64,127
18099,note_on,0,0,0,,1,,,73,127
18317,note_off,218,0,0,,1,,,73,127
18317,note_off,0,0,0,,4,,,64,127
18318,note_on,1,0,0,,2,,,62,127
18318,note_on,0,0,0,,2,,,74,127
18536,note_off,218,0,0,,2,,,74,127
18536,note_off,0,0,0,,2,,,62,127
18536,note_off,0,0,0,,10,,,33,127
18536,note_off,0,0,0,,10,,,45,127
18537,note_on,1,0,0,,10,,,45,127
18537,note_on,0,0,0,,10,,,33,127
18537,note_on,0,0,0,,4,,,76,127
18537,note_on,0,0,0,,10,,,69,127
18755,note_off,218,0,0,,10,,,69,127
18755,note_off,0,0,0,,4,,,76,127
18756,note_on,1,0,0,,2,,,74,127
18756,note_on,0,0,0,,6,,,66,127
18974,note_off,218,0,0,,6,,,66,127
18974,note_off,0,0,0,,2,,,74,127
18974,note_off,0,0,0,,10,,,33,127
18974,note_off,0,0,0,,10,,,45,127
18975,note_on,1,0,0,,10,,,45,127
18975,note_on,0,0,0,,10,,,33,127
18975,note_on,0,0,0,,1,,,73,127
18975,note_on,0,0,0,,4,,,64,127
19193,note_off,218,0,0,,4,,,64,127
19193,note_off,0,0,0,,1,,,73,127
19194,note_on,1,0,0,,2,,,62,127
19194,note_on,0,0,0,,2,,,74,127
19412,note_off,218,0,0,,2,,,74,127
19412,note_off,0,0,0,,2,,,62,127
19412,note_off,0,0,0,,10,,,33,127
19412,note_off,0,0,0,,10,,,45,127
19413,note_on,1,0,0,,10,,,45,127
19413,note_on,0,0,0,,10,,,33,127
19413,note_on,0,0,0,,4,,,76,127
19413,note_on,0,0,0,,10,,,69,127
19631,note_off,218,0,0,,10,,,69,127
19631,note_off,0,0,0,,4,,,76,127
19632,note_on,1,0,0,,2,,,74,127
19632,note_on,0,0,0,,6,,,66,127
19850,note_off,218,0,0,,6,,,66,127
19850,note_off,0,0,0,,2,,,74,127
19850,note_off,0,0,0,,10,,,33,127
19850,note_off,0,0,0,,10,,,45,127
19851,note_on,1,0,0,,10,,,45,127
19851,note_on,0,0,0,,10,,,33,127
19851,note_on,0,0,0,,4,,,64,127
19851,note_on,0,0,0,,1,,,73,127
20069,note_off,218,0,0,,1,,,73,127
20069,note_off,0,0,0,,4,,,64,127
20070,note_on,1,0,0,,2,,,74,127
20070,note_on,0,0,0,,2,,,62,127
20288,note_off,218,0,0,,2,,,62,127
20288,note_off,0,0,0,,2,,,74,127
20288,note_off,0,0,0,,10,,,33,127
20288,note_off,0,0,0,,10,,,45,127
20289,note_on,1,0,0,,10,,,45,127
20289,note_on,0,0,0,,10,,,33,127
20289,note_on,0,0,0,,4,,,76,127
20289,note_on,0,0,0,,10,,,69,127
20507,note_off,218,0,0,,10,,,69,127
20507,note_off,0,0,0,,4,,,76,127
20508,note_on,1,0,0,,6,,,66,127
20508,note_on,0,0,0,,2,,,74,127
20726,note_off,218,0,0,,2,,,74,127
20726,note_off,0,0,0,,6,,,66,127
20726,note_off,0,0,0,,10,,,33,127
20726,note_off,0,0,0,,10,,,45,127
20727,note_on,1,0,0,,10,,,45,127
20727,note_on,0,0,0,,10,,,33,127
20727,note_on,0,0,0,,1,,,73,127
20727,note_on,0,0,0,,4,,,64,127
20945,note_off,218,0,0,,4,,,64,127
20945,note_off,0,0,0,,1,,,73,127
20946,note_on,1,0,0,,2,,,74,127
20946,note_on,0,0,0,,2,,,62,127
21164,note_off,218,0,0,,2,,,62,127
21164,note_off,0,0,0,,2,,,74,127
21164,note_off,0,0,0,,10,,,33,127
21164,note_off,0,0,0,,10,,,45,127
21165,note_on,1,0,0,,10,,,45,127
21165,note_on,0,0,0,,10,,,33,127
21165,note_on,0,0,0,,10,,,69,127
21165,note_on,0,0,0,,6,,,78,127
21202,note_on,37,0,0,,4,,,76,127
21218,note_off,16,0,0,,6,,,78,127
21239,note_on,21,0,0,,6,,,78,127
21255,note_off,16,0,0,,4,,,76,127
21276,note_on,21,0,0,,4,,,76,127
21292,note_off,16,0,0,,6,,,78,127
21313,note_on,21,0,0,,6,,,78,127
21329,note_off,16,0,0,,4,,,76,127
21350,note_on,21,0,0,,4,,,76,127
21366,note_off,16,0,0,,6,,,78,127
21387,note_on,21,0,0,,6,,,78,127
21403,note_off,16,0,0,,4,,,76,127
21424,note_on,21,0,0,,4,,,76,127
21440,note_off,16,0,0,,6,,,78,127
22485,note_off,1045,0,0,,4,,,76,127
22485,note_off,0,0,0,,10,,,69,127
22485,note_off,0,0,0,,10,,,33,127
22485,note_off,0,0,0,,10,,,45,127
23802,note_on,1317,0,0,,0,,,48,127
23802,note_on,0,0,0,,0,,,36,127
23802,note_on,0,0,0,,0,,,72,127
23802,note_on,0,0,0,,4,,,76,127
23839,note_on,37,0,0,,5,,,77,127
23876,note_on,37,0,0,,7,,,79,127
23892,note_off,16,0,0,,5,,,77,127
24021,note_off,129,0,0,,7,,,79,127
24021,note_off,0,0,0,,4,,,76,127
24022,note_on,1,0,0,,5,,,77,127
24131,note_off,109,0,0,,5,,,77,127
24132,note_on,1,0,0,,4,,,76,127
24241,note_off,109,0,0,,4,,,76,127
24241,note_off,0,0,0,,0,,,36,127
24241,note_off,0,0,0,,0,,,48,127
24242,note_on,1,0,0,,0,,,48,127
24242,note_on,0,0,0,,0,,,36,127
24242,note_on,0,0,0,,4,,,76,127
24460,note_off,218,0,0,,4,,,76,127
24461,note_on,1,0,0,,4,,,76,127
24679,note_off,218,0,0,,4,,,76,127
24679,note_off,0,0,0,,0,,,36,127
24679,note_off,0,0,0,,0,,,48,127
24680,note_on,1,0,0,,0,,,48,127
24680,note_on,0,0,0,,0,,,36,127
24680,note_on,0,0,0,,4,,,76,127
24898,note_off,218,0,0,,4,,,76,127
24899,note_on,1,0,0,,4,,,76,127
25117,note_off,218,0,0,,4,,,76,127
25117,note_off,0,0,0,,0,,,36,127
25117,note_off,0,0,0,,0,,,48,127
25117,note_off,0,0,0,,0,,,72,127
25118,note_on,1,0,0,,7,,,43,127
25118,note_on,0,0,0,,7,,,55,127
25118,note_on,0,0,0,,5,,,77,127
25118,note_on,0,0,0,,12,,,71,127
25118,note_on,0,0,0,,7,,,79,127
25336,note_off,218,0,0,,7,,,79,127
25336,note_off,0,0,0,,5,,,77,127
25337,note_on,1,0,0,,4,,,76,127
25446,note_off,109,0,0,,4,,,76,127
25447,note_on,1,0,0,,2,,,74,127
25556,note_off,109,0,0,,2,,,74,127
25556,note_off,0,0,0,,7,,,55,127
25556,note_off,0,0,0,,7,,,43,127
25557,note_on,1,0,0,,7,,,55,127
25557,note_on,0,0,0,,7,,,43,127
25557,note_on,0,0,0,,2,,,74,127
25775,note_off,218,0,0,,2,,,74,127
25776,note_on,1,0,0,,2,,,74,127
25994,note_off,218,0,0,,2,,,74,127
25994,note_off,0,0,0,,7,,,43,127
25994,note_off,0,0,0,,7,,,55,127
25994,note_off,0,0,0,,12,,,71,127
25995,note_on,1,0,0,,7,,,55,127
25995,note_on,0,0,0,,7,,,43,127
25995,note_on,0,0,0,,2,,,74,127
25995,note_on,0,0,0,,12,,,71,127
26213,note_off,218,0,0,,12,,,71,127
26213,note_off,0,0,0,,2,,,74,127
26214,note_on,1,0,0,,1,,,73,127
26214,note_on,0,0,0,,4,,,76,127
26432,note_off,218,0,0,,4,,,76,127
26432,note_off,0,0,0,,1,,,73,127
26432,note_off,0,0,0,,7,,,43,127
26432,note_off,0,0,0,,7,,,55,127
26433,note_on,1,0,0,,2,,,50,127
26433,note_on,0,0,0,,2,,,38,127
26433,note_on,0,0,0,,5,,,77,127
26433,note_on,0,0,0,,10,,,69,127
26433,note_on,0,0,0,,2,,,74,127
26433,note_on,0,0,0,,7,,,79,127
26651,note_off,218,0,0,,7,,,79,127
26651,note_off,0,0,0,,2,,,74,127
26651,note_off,0,0,0,,5,,,77,127
26652,note_on,1,0,0,,4,,,76,127
26761,note_off,109,0,0,,4,,,76,127
26762,note_on,1,0,0,,2,,,74,127
26871,note_off,109,0,0,,2,,,74,127
26871,note_off,0,0,0,,10,,,69,127
26871,note_off,0,0,0,,2,,,38,127
26871,note_off,0,0,0,,2,,,50,127
26872,note_on,1,0,0,,4,,,52,127
26872,note_on,0,0,0,,4,,,40,127
26872,note_on,0,0,0,,4,,,76,127
26872,note_on,0,0,0,,0,,,72,127
27090,note_off,218,0,0,,0,,,72,127
27090,note_off,0,0,0,,4,,,76,127
27091,note_on,1,0,0,,2,,,74,127
27091,note_on,0,0,0,,12,,,71,127
27309,note_off,218,0,0,,12,,,71,127
27309,note_off,0,0,0,,2,,,74,127
27309,note_off,0,0,0,,4,,,40,127
27309,note_off,0,0,0,,4,,,52,127
27310,note_on,1,0,0,,4,,,40,127
27310,note_on,0,0,0,,0,,,72,127
27310,note_on,0,0,0,,10,,,69,127
27528,note_off,218,0,0,,10,,,69,127
27528,note_off,0,0,0,,0,,,72,127
27529,note_on,1,0,0,,8,,,68,127
27529,note_on,0,0,0,,12,,,71,127
27747,note_off,218,0,0,,12,,,71,127
27747,note_off,0,0,0,,8,,,68,127
27747,note_off,0,0,0,,4,,,40,127
27748,note_on,1,0,0,,10,,,45,127
27748,note_on,0,0,0,,12,,,71,127
27785,note_on,37,0,0,,10,,,69,127
27801,note_off,16,0,0,,12,,,71,127
27822,note_on,21,0,0,,12,,,71,127
27838,note_off,16,0,0,,10,,,69,127
27859,note_on,21,0,0,,10,,,69,127
27875,note_off,16,0,0,,12,,,71,127
27968,note_off,93,0,0,,10,,,69,127
27969,note_on,1,0,0,,12,,,71,127
28187,note_off,218,0,0,,12,,,71,127
28188,note_on,1,0,0,,2,,,74,127
28225,note_on,37,0,0,,0,,,72,127
28241,note_off,16,0,0,,2,,,74,127
28262,note_on,21,0,0,,2,,,74,127
28278,note_off,16,0,0,,0,,,72,127
28299,note_on,21,0,0,,0,,,72,127
28315,note_off,16,0,0,,2,,,74,127
28408,note_off,93,0,0,,0,,,72,127
28409,note_on,1,0,0,,2,,,74,127
28627,note_off,218,0,0,,2,,,74,127
28628,note_on,1,0,0,,5,,,77,127
28665,note_on,37,0,0,,4,,,76,127
28681,note_off,16,0,0,,5,,,77,127
28702,note_on,21,0,0,,5,,,77,127
28718,note_off,16,0,0,,4,,,76,127
28739,note_on,21,0,0,,4,,,76,127
28755,note_off,16,0,0,,5,,,77,127
28848,note_off,93,0,0,,4,,,76,127
28849,note_on,1,0,0,,5,,,77,127
29067,note_off,218,0,0,,5,,,77,127
29067,note_off,0,0,0,,10,,,45,127
29068,note_on,1,0,0,,0,,,48,127
29068,note_on,0,0,0,,0,,,36,127
29068,note_on,0,0,0,,0,,,72,127
29068,note_on,0,0,0,,4,,,76,127
29105,note_on,37,0,0,,5,,,77,127
29142,note_on,37,0,0,,7,,,79,127
29158,note_off,16,0,0,,5,,,77,127
29287,note_off,129,0,0,,7,,,79,127
29287,note_off,0,0,0,,4,,,76,127
29288,note_on,1,0,0,,5,,,77,127
29397,note_off,109,0,0,,5,,,77,127
29398,note_on,1,0,0,,4,,,76,127
29507,note_off,109,0,0,,4,,,76,127
29507,note_off,0,0,0,,0,,,36,127
29507,note_off,0,0,0,,0,,,48,127
29508,note_on,1,0,0,,0,,,48,127
29508,note_on,0,0,0,,0,,,36,127
29508,note_on,0,0,0,,4,,,76,127
29726,note_off,218,0,0,,4,,,76,127
29727,note_on,1,0,0,,4,,,76,127
29945,note_off,218,0,0,,4,,,76,127
29945,note_off,0,0,0,,0,,,36,127
29945,note_off,0,0,0,,0,,,48,127
29946,note_on,1,0,0,,0,,,48,127
29946,note_on,0,0,0,,0,,,36,127
29946,note_on,0,0,0,,4,,,76,127
30164,note_off,218,0,0,,4,,,76,127
30165,note_on,1,0,0,,4,,,76,127
30383,note_off,218,0,0,,4,,,76,127
30383,note_off,0,0,0,,0,,,36,127
30383,note_off,0,0,0,,0,,,48,127
30383,note_off,0,0,0,,0,,,72,127
30384,note_on,1,0,0,,7,,,55,127
30384,note_on,0,0,0,,7,,,43,127
30384,note_on,0,0,0,,12,,,71,127
30384,note_on,0,0,0,,5,,,77,127
30384,note_on,0,0,0,,7,,,79,127
30602,note_off,218,0,0,,7,,,79,127
30602,note_off,0,0,0,,5,,,77,127
30603,note_on,1,0,0,,4,,,76,127
30712,note_off,109,0,0,,4,,,76,127
30713,note_on,1,0,0,,2,,,74,127
30822,note_off,109,0,0,,2,,,74,127
30822,note_off,0,0,0,,7,,,43,127
30822,note_off,0,0,0,,7,,,55,127
30823,note_on,1,0,0,,7,,,55,127
30823,note_on,0,0,0,,7,,,43,127
30823,note_on,0,0,0,,2,,,74,127
31041,note_off,218,0,0,,2,,,74,127
31042,note_on,1,0,0,,2,,,74,127
31260,note_off,218,0,0,,2,,,74,127
31260,note_off,0,0,0,,7,,,43,127
31260,note_off,0,0,0,,7,,,55,127
31260,note_off,0,0,0,,12,,,71,127
31261,note_on,1,0,0,,7,,,55,127
31261,note_on,0,0,0,,7,,,43,127
31261,note_on,0,0,0,,12,,,71,127
31261,note_on,0,0,0,,2,,,74,127
31479,note_off,218,0,0,,2,,,74,127
31479,note_off,0,0,0,,12,,,71,127
31480,note_on,1,0,0,,1,,,73,127
31480,note_on,0,0,0,,4,,,76,127
31698,note_off,218,0,0,,4,,,76,127
31698,note_off,0,0,0,,1,,,73,127
31698,note_off,0,0,0,,7,,,43,127
31698,note_off,0,0,0,,7,,,55,127
31699,note_on,1,0,0,,2,,,50,127
31699,note_on,0,0,0,,2,,,38,127
31699,note_on,0,0,0,,5,,,77,127
31699,note_on,0,0,0,,10,,,69,127
31699,note_on,0,0,0,,2,,,74,127
31699,note_on,0,0,0,,7,,,79,127
31917,note_off,218,0,0,,7,,,79,127
31917,note_off,0,0,0,,2,,,74,127
31917,note_off,0,0,0,,5,,,77,127
31918,note_on,1,0,0,,4,,,76,127
32027,note_off,109,0,0,,4,,,76,127
32028,note_on,1,0,0,,2,,,74,127
32137,note_off,109,0,0,,2,,,74,127
32137,note_off,0,0,0,,10,,,69,127
32137,note_off,0,0,0,,2,,,38,127
32137,note_off,0,0,0,,2,,,50,127
32138,note_on,1,0,0,,4,,,52,127
32138,note_on,0,0,0,,4,,,76,127
32138,note_on,0,0,0,,0,,,72,127
32356,note_off,218,0,0,,0,,,72,127
32356,note_off,0,0,0,,4,,,76,127
32357,note_on,1,0,0,,2,,,74,127
32357,note_on,0,0,0,,12,,,71,127
32575,note_off,218,0,0,,12,,,71,127
32575,note_off,0,0,0,,2,,,74,127
32575,note_off,0,0,0,,4,,,52,127
32576,note_on,1,0,0,,4,,,40,127
32576,note_on,0,0,0,,0,,,72,127
32576,note_on,0,0,0,,10,,,69,127
32794,note_off,218,0,0,,10,,,69,127
32794,note_off,0,0,0,,0,,,72,127
32795,note_on,1,0,0,,12,,,71,127
32795,note_on,0,0,0,,8,,,68,127
33013,note_off,218,0,0,,8,,,68,127
33013,note_off,0,0,0,,12,,,71,127
33013,note_off,0,0,0,,4,,,40,127
33014,note_on,1,0,0,,10,,,45,127
33014,note_on,0,0,0,,10,,,33,127
33014,note_on,0,0,0,,10,,,69,127
33123,note_off,109,0,0,,10,,,69,127
33124,note_on,1,0,0,,10,,,81,127
33233,note_off,109,0,0,,10,,,81,127
33234,note_on,1,0,0,,1,,,73,127
33343,note_off,109,0,0,,1,,,73,127
33344,note_on,1,0,0,,4,,,76,127
33453,note_off,109,0,0,,4,,,76,127
33453,note_off,0,0,0,,10,,,33,127
33453,note_off,0,0,0,,10,,,45,127
33454,note_on,1,0,0,,10,,,45,127
33454,note_on,0,0,0,,10,,,33,127
33454,note_on,0,0,0,,10,,,69,127
33563,note_off,109,0,0,,10,,,69,127
33564,note_on,1,0,0,,1,,,73,127
33673,note_off,109,0,0,,1,,,73,127
33674,note_on,1,0,0,,4,,,64,127
33783,note_off,109,0,0,,4,,,64,127
33784,note_on,1,0,0,,10,,,69,127
33893,note_off,109,0,0,,10,,,69,127
33893,note_off,0,0,0,,10,,,33,127
33893,note_off,0,0,0,,10,,,45,127
33894,note_on,1,0,0,,10,,,45,127
33894,note_on,0,0,0,,10,,,33,127
33894,note_on,0,0,0,,1,,,61,127
34003,note_off,109,0,0,,1,,,61,127
34004,note_on,1,0,0,,4,,,64,127
34113,note_off,109,0,0,,4,,,64,127
34114,note_on,1,0,0,,10,,,57,127
34223,note_off,109,0,0,,10,,,57,127
34224,note_on,1,0,0,,10,,,69,127
34333,note_off,109,0,0,,10,,,69,127
34333,note_off,0,0,0,,10,,,33,127
34333,note_off,0,0,0,,10,,,45,127
34334,note_on,1,0,0,,2,,,50,127
34334,note_on,0,0,0,,2,,,38,127
34334,note_on,0,0,0,,6,,,66,127
34443,note_off,109,0,0,,6,,,66,127
34444,note_on,1,0,0,,10,,,81,127
34553,note_off,109,0,0,,10,,,81,127
34554,note_on,1,0,0,,6,,,78,127
34663,note_off,109,0,0,,6,,,78,127
34664,note_on,1,0,0,,10,,,81,127
34773,note_off,109,0,0,,10,,,81,127
34773,note_off,0,0,0,,2,,,38,127
34773,note_off,0,0,0,,2,,,50,127
34774,note_on,1,0,0,,2,,,50,127
34774,note_on,0,0,0,,2,,,38,127
34774,note_on,0,0,0,,2,,,74,127
34883,note_off,109,0,0,,2,,,74,127
34884,note_on,1,0,0,,6,,,78,127
34993,note_off,109,0,0,,6,,,78,127
34994,note_on,1,0,0,,10,,,69,127
35103,note_off,109,0,0,,10,,,69,127
35104,note_on,1,0,0,,2,,,74,127
35213,note_off,109,0,0,,2,,,74,127
35213,note_off,0,0,0,,2,,,38,127
35213,note_off,0,0,0,,2,,,50,127
35214,note_on,1,0,0,,2,,,50,127
35214,note_on,0,0,0,,2,,,38,127
35214,note_on,0,0,0,,6,,,66,127
35323,note_off,109,0,0,,6,,,66,127
35324,note_on,1,0,0,,10,,,69,127
35433,note_off,109,0,0,,10,,,69,127
35434,note_on,1,0,0,,2,,,62,127
35543,note_off,109,0,0,,2,,,62,127
35544,note_on,1,0,0,,2,,,74,127
35653,note_off,109,0,0,,2,,,74,127
35653,note_off,0,0,0,,2,,,38,127
35653,note_off,0,0,0,,2,,,50,127
35654,note_on,1,0,0,,10,,,45,127
35654,note_on,0,0,0,,10,,,33,127
35654,note_on,0,0,0,,1,,,73,127
35763,note_off,109,0,0,,1,,,73,127
35764,note_on,1,0,0,,10,,,81,127
35873,note_off,109,0,0,,10,,,81,127
35874,note_on,1,0,0,,1,,,73,127
35983,note_off,109,0,0,,1,,,73,127
35984,note_on,1,0,0,,4,,,76,127
36093,note_off,109,0,0,,4,,,76,127
36093,note_off,0,0,0,,10,,,33,127
36093,note_off,0,0,0,,10,,,45,127
36094,note_on,1,0,0,,10,,,45,127
36094,note_on,0,0,0,,10,,,33,127
36094,note_on,0,0,0,,10,,,69,127
36203,note_off,109,0,0,,10,,,69,127
36204,note_on,1,0,0,,1,,,73,127
36313,note_off,109,0,0,,1,,,73,127
36314,note_on,1,0,0,,4,,,64,127
36423,note_off,109,0,0,,4,,,64,127
36424,note_on,1,0,0,,10,,,69,127
36533,note_off,109,0,0,,10,,,69,127
36533,note_off,0,0,0,,10,,,33,127
36533,note_off,0,0,0,,10,,,45,127
36534,note_on,1,0,0,,10,,,45,127
36534,note_on,0,0,0,,10,,,33,127
36534,note_on,0,0,0,,1,,,61,127
36643,note_off,109,0,0,,1,,,61,127
36644,note_on,1,0,0,,4,,,64,127
36753,note_off,109,0,0,,4,,,64,127
36754,note_on,1,0,0,,10,,,57,127
36863,note_off,109,0,0,,10,,,57,127
36864,note_on,1,0,0,,10,,,69,127
36973,note_off,109,0,0,,10,,,69,127
36973,note_off,0,0,0,,10,,,33,127
36973,note_off,0,0,0,,10,,,45,127
36974,note_on,1,0,0,,2,,,50,127
36974,note_on,0,0,0,,2,,,38,127
36974,note_on,0,0,0,,6,,,66,127
37083,note_off,109,0,0,,6,,,66,127
37084,note_on,1,0,0,,2,,,74,127
37193,note_off,109,0,0,,2,,,74,127
37194,note_on,1,0,0,,1,,,73,127
37303,note_off,109,0,0,,1,,,73,127
37304,note_on,1,0,0,,12,,,71,127
37413,note_off,109,0,0,,12,,,71,127
37413,note_off,0,0,0,,2,,,38,127
37413,note_off,0,0,0,,2,,,50,127
37414,note_on,1,0,0,,4,,,52,127
37414,note_on,0,0,0,,4,,,40,127
37414,note_on,0,0,0,,10,,,69,127
37577,note_off,163,0,0,,10,,,69,127
37578,note_on,1,0,0,,8,,,68,127
37632,note_off,54,0,0,,8,,,68,127
37633,note_on,1,0,0,,10,,,69,127
37687,note_off,54,0,0,,10,,,69,127
37688,note_on,1,0,0,,12,,,71,127
37742,note_off,54,0,0,,12,,,71,127
37743,note_on,1,0,0,,10,,,69,127
37797,note_off,54,0,0,,10,,,69,127
37798,note_on,1,0,0,,12,,,71,127
37852,note_off,54,0,0,,12,,,71,127
37852,note_off,0,0,0,,4,,,40,127
37852,note_off,0,0,0,,4,,,52,127
37853,note_on,1,0,0,,4,,,40,127
37853,note_on,0,0,0,,1,,,73,127
37907,note_off,54,0,0,,1,,,73,127
37908,note_on,1,0,0,,12,,,71,127
37962,note_off,54,0,0,,12,,,71,127
37963,note_on,1,0,0,,1,,,73,127
38017,note_off,54,0,0,,1,,,73,127
38018,note_on,1,0,0,,12,,,71,127
38072,note_off,54,0,0,,12,,,71,127
38073,note_on,1,0,0,,1,,,73,127
38127,note_off,54,0,0,,1,,,73,127
38128,note_on,1,0,0,,12,,,71,127
38182,note_off,54,0,0,,12,,,71,127
38183,note_on,1,0,0,,10,,,69,127
38237,note_off,54,0,0,,10,,,69,127
38238,note_on,1,0,0,,12,,,71,127
38292,note_off,54,0,0,,12,,,71,127
38292,note_off,0,0,0,,4,,,40,127
38293,note_on,1,0,0,,10,,,45,127
38293,note_on,0,0,0,,10,,,69,127
38402,note_off,109,0,0,,10,,,69,127
38402,note_off,0,0,0,,10,,,45,127
38403,note_on,1,0,0,,10,,,69,127
38513,note_on,110,0,0,,1,,,61,127
38622,note_off,109,0,0,,1,,,61,127
38623,note_on,1,0,0,,4,,,64,127
38732,note_off,109,0,0,,4,,,64,127
38733,note_on,1,0,0,,10,,,57,127
38842,note_off,109,0,0,,10,,,57,127
38843,note_on,1,0,0,,1,,,61,127
38952,note_off,109,0,0,,1,,,61,127
38953,note_on,1,0,0,,4,,,52,127
39062,note_off,109,0,0,,4,,,52,127
39062,note_off,0,0,0,,10,,,69,127
39063,note_on,1,0,0,,10,,,57,127
39172,note_off,109,0,0,,10,,,57,127
39173,note_on,1,0,0,,1,,,49,127
39173,note_on,0,0,0,,10,,,81,127
39282,note_off,109,0,0,,1,,,49,127
39283,note_on,1,0,0,,4,,,52,127
39392,note_off,109,0,0,,4,,,52,127
39393,note_on,1,0,0,,10,,,45,127
39502,note_off,109,0,0,,10,,,45,127
39503,note_on,1,0,0,,1,,,49,127
39612,note_off,109,0,0,,1,,,49,127
39612,note_off,0,0,0,,10,,,81,127
39613,note_on,1,0,0,,2,,,50,127
39613,note_on,0,0,0,,8,,,80,127
39650,note_on,37,0,0,,6,,,78,127
39666,note_off,16,0,0,,8,,,80,127
39687,note_on,21,0,0,,8,,,80,127
39703,note_off,16,0,0,,6,,,78,127
39722,note_off,19,0,0,,2,,,50,127
39723,note_on,1,0,0,,10,,,69,127
39723,note_on,0,0,0,,6,,,78,127
39739,note_off,16,0,0,,8,,,80,127
39832,note_off,93,0,0,,10,,,69,127
39833,note_on,1,0,0,,6,,,66,127
39942,note_off,109,0,0,,6,,,66,127
39943,note_on,1,0,0,,10,,,69,127
40052,note_off,109,0,0,,10,,,69,127
40053,note_on,1,0,0,,2,,,62,127
40162,note_off,109,0,0,,2,,,62,127
40163,note_on,1,0,0,,6,,,66,127
40272,note_off,109,0,0,,6,,,66,127
40273,note_on,1,0,0,,10,,,57,127
40382,note_off,109,0,0,,10,,,57,127
40383,note_off,1,0,0,,6,,,78,127
40383,note_on,0,0,0,,2,,,62,127
40492,note_off,109,0,0,,2,,,62,127
40493,note_on,1,0,0,,6,,,54,127
40493,note_on,0,0,0,,10,,,81,127
40602,note_off,109,0,0,,6,,,54,127
40603,note_on,1,0,0,,10,,,57,127
40712,note_off,109,0,0,,10,,,57,127
40713,note_on,1,0,0,,2,,,50,127
40822,note_off,109,0,0,,2,,,50,127
40823,note_on,1,0,0,,10,,,57,127
40932,note_off,109,0,0,,10,,,57,127
40932,note_off,0,0,0,,10,,,81,127
40933,note_on,1,0,0,,1,,,49,127
40933,note_on,0,0,0,,6,,,78,127
40970,note_on,37,0,0,,4,,,76,127
40986,note_off,16,0,0,,6,,,78,127
41007,note_on,21,0,0,,6,,,78,127
41023,note_off,16,0,0,,4,,,76,127
41042,note_off,19,0,0,,1,,,49,127
41043,note_on,1,0,0,,4,,,64,127
41043,note_on,0,0,0,,4,,,76,127
41059,note_off,16,0,0,,6,,,78,127
41152,note_off,93,0,0,,4,,,64,127
41153,note_on,1,0,0,,1,,,61,127
41262,note_off,109,0,0,,1,,,61,127
41263,note_on,1,0,0,,4,,,64,127
41372,note_off,109,0,0,,4,,,64,127
41373,note_on,1,0,0,,10,,,57,127
41482,note_off,109,0,0,,10,,,57,127
41483,note_on,1,0,0,,1,,,61,127
41592,note_off,109,0,0,,1,,,61,127
41593,note_on,1,0,0,,4,,,52,127
41702,note_off,109,0,0,,4,,,52,127
41703,note_off,1,0,0,,4,,,76,127
41703,note_on,0,0,0,,10,,,57,127
41812,note_off,109,0,0,,10,,,57,127
41813,note_on,1,0,0,,1,,,49,127
41813,note_on,0,0,0,,10,,,81,127
41922,note_off,109,0,0,,1,,,49,127
41923,note_on,1,0,0,,4,,,52,127
42032,note_off,109,0,0,,4,,,52,127
42033,note_on,1,0,0,,10,,,45,127
42142,note_off,109,0,0,,10,,,45,127
42143,note_on,1,0,0,,1,,,49,127
42252,note_off,109,0,0,,1,,,49,127
42253,note_on,1,0,0,,2,,,38,127
42362,note_off,109,0,0,,10,,,81,127
42363,note_on,1,0,0,,6,,,78,127
42472,note_off,109,0,0,,6,,,78,127
42473,note_on,1,0,0,,4,,,76,127
42582,note_off,109,0,0,,4,,,76,127
42583,note_on,1,0,0,,2,,,74,127
42692,note_off,109,0,0,,2,,,74,127
42692,note_off,0,0,0,,2,,,38,127
42693,note_on,1,0,0,,4,,,40,127
42693,note_on,0,0,0,,2,,,74,127
42802,note_off,109,0,0,,2,,,74,127
42803,note_on,1,0,0,,1,,,73,127
42912,note_off,109,0,0,,1,,,73,127
42913,note_on,1,0,0,,12,,,71,127
43022,note_off,109,0,0,,12,,,71,127
43023,note_on,1,0,0,,10,,,69,127
43132,note_off,109,0,0,,10,,,69,127
43132,note_off,0,0,0,,4,,,40,127
43133,note_on,1,0,0,,4,,,40,127
43133,note_on,0,0,0,,1,,,73,127
43242,note_off,109,0,0,,1,,,73,127
43243,note_on,1,0,0,,12,,,71,127
43352,note_off,109,0,0,,12,,,71,127
43353,note_on,1,0,0,,10,,,69,127
43462,note_off,109,0,0,,10,,,69,127
43463,note_on,1,0,0,,8,,,68,127
43572,note_off,109,0,0,,8,,,68,127
43572,note_off,0,0,0,,4,,,40,127
43573,note_on,1,0,0,,10,,,45,127
43573,note_on,0,0,0,,10,,,69,127
43682,note_off,109,0,0,,10,,,69,127
43682,note_off,0,0,0,,10,,,45,127
43683,note_on,1,0,0,,10,,,69,127
43793,note_on,110,0,0,,1,,,61,127
43902,note_off,109,0,0,,1,,,61,127
43903,note_on,1,0,0,,4,,,64,127
44012,note_off,109,0,0,,4,,,64,127
44013,note_on,1,0,0,,10,,,57,127
44122,note_off,109,0,0,,10,,,57,127
44123,note_on,1,0,0,,1,,,61,127
44232,note_off,109,0,0,,1,,,61,127
44233,note_on,1,0,0,,4,,,52,127
44342,note_off,109,0,0,,4,,,52,127
44342,note_off,0,0,0,,10,,,69,127
44343,note_on,1,0,0,,10,,,57,127
44452,note_off,109,0,0,,10,,,57,127
44453,note_on,1,0,0,,1,,,49,127
44453,note_on,0,0,0,,10,,,81,127
44562,note_off,109,0,0,,1,,,49,127
44563,note_on,1,0,0,,4,,,52,127
44672,note_off,109,0,0,,4,,,52,127
44673,note_on,1,0,0,,10,,,45,127
44782,note_off,109,0,0,,10,,,45,127
44783,note_on,1,0,0,,1,,,49,127
44892,note_off,109,0,0,,1,,,49,127
44892,note_off,0,0,0,,10,,,81,127
44893,note_on,1,0,0,,2,,,50,127
44893,note_on,0,0,0,,8,,,80,127
44930,note_on,37,0,0,,6,,,78,127
44946,note_off,16,0,0,,8,,,80,127
44967,note_on,21,0,0,,8,,,80,127
44983,note_off,16,0,0,,6,,,78,127
45002,note_off,19,0,0,,2,,,50,127
45003,note_on,1,0,0,,10,,,69,127
45003,note_on,0,0,0,,6,,,78,127
45019,note_off,16,0,0,,8,,,80,127
45112,note_off,93,0,0,,10,,,69,127
45113,note_on,1,0,0,,6,,,66,127
45222,note_off,109,0,0,,6,,,66,127
45223,note_on,1,0,0,,10,,,69,127
45332,note_off,109,0,0,,10,,,69,127
45333,note_on,1,0,0,,2,,,62,127
45442,note_off,109,0,0,,2,,,62,127
45443,note_on,1,0,0,,6,,,66,127
45552,note_off,109,0,0,,6,,,66,127
45553,note_on,1,0,0,,10,,,57,127
45662,note_off,109,0,0,,10,,,57,127
45663,note_off,1,0,0,,6,,,78,127
45663,note_on,0,0,0,,2,,,62,127
45772,note_off,109,0,0,,2,,,62,127
45773,note_on,1,0,0,,6,,,54,127
45773,note_on,0,0,0,,10,,,81,127
45882,note_off,109,0,0,,6,,,54,127
45883,note_on,1,0,0,,10,,,57,127
45992,note_off,109,0,0,,10,,,57,127
45993,note_on,1,0,0,,2,,,50,127
46102,note_off,109,0,0,,2,,,50,127
46103,note_on,1,0,0,,10,,,57,127
46212,note_off,109,0,0,,10,,,57,127
46212,note_off,0,0,0,,10,,,81,127
46213,note_on,1,0,0,,1,,,49,127
46213,note_on,0,0,0,,6,,,78,127
46250,note_on,37,0,0,,4,,,76,127
46266,note_off,16,0,0,,6,,,78,127
46287,note_on,21,0,0,,6,,,78,127
46303,note_off,16,0,0,,4,,,76,127
46322,note_off,19,0,0,,1,,,49,127
46323,note_on,1,0,0,,4,,,64,127
46323,note_on,0,0,0,,4,,,76,127
46339,note_off,16,0,0,,6,,,78,127
46432,note_off,93,0,0,,4,,,64,127
46433,note_on,1,0,0,,1,,,61,127
46542,note_off,109,0,0,,1,,,61,127
46543,note_on,1,0,0,,4,,,64,127
46652,note_off,109,0,0,,4,,,64,127
46653,note_on,1,0,0,,10,,,57,127
46762,note_off,109,0,0,,10,,,57,127
46763,note_on,1,0,0,,1,,,61,127
46872,note_off,109,0,0,,1,,,61,127
46873,note_on,1,0,0,,4,,,52,127
46982,note_off,109,0,0,,4,,,52,127
46983,note_off,1,0,0,,4,,,76,127
46983,note_on,0,0,0,,10,,,57,127
47092,note_off,109,0,0,,10,,,57,127
47093,note_on,1,0,0,,1,,,49,127
47093,note_on,0,0,0,,10,,,81,127
47202,note_off,109,0,0,,1,,,49,127
47203,note_on,1,0,0,,4,,,52,127
47312,note_off,109,0,0,,4,,,52,127
47313,note_on,1,0,0,,10,,,45,127
47422,note_off,109,0,0,,10,,,45,127
47423,note_on,1,0,0,,1,,,49,127
47532,note_off,109,0,0,,1,,,49,127
47533,note_on,1,0,0,,2,,,38,127
47642,note_off,109,0,0,,10,,,81,127
47643,note_on,1,0,0,,6,,,78,127
47752,note_off,109,0,0,,6,,,78,127
47753,note_on,1,0,0,,4,,,76,127
47862,note_off,109,0,0,,4,,,76,127
47863,note_on,1,0,0,,2,,,74,127
47972,note_off,109,0,0,,2,,,74,127
47972,note_off,0,0,0,,2,,,38,127
47973,note_on,1,0,0,,4,,,40,127
47973,note_on,0,0,0,,2,,,74,127
48082,note_off,109,0,0,,2,,,74,127
48083,note_on,1,0,0,,1,,,73,127
48192,note_off,109,0,0,,1,,,73,127
48193,note_on,1,0,0,,12,,,71,127
48302,note_off,109,0,0,,12,,,71,127
48303,note_on,1,0,0,,10,,,69,127
48412,note_off,109,0,0,,10,,,69,127
48412,note_off,0,0,0,,4,,,40,127
48413,note_on,1,0,0,,4,,,40,127
48413,note_on,0,0,0,,1,,,73,127
48522,note_off,109,0,0,,1,,,73,127
48523,note_on,1,0,0,,12,,,71,127
48632,note_off,109,0,0,,12,,,71,127
48633,note_on,1,0,0,,10,,,69,127
48742,note_off,109,0,0,,10,,,69,127
48743,note_on,1,0,0,,8,,,68,127
48852,note_off,109,0,0,,8,,,68,127
48852,note_off,0,0,0,,4,,,40,127
48853,note_on,1,0,0,,10,,,45,127
48853,note_on,0,0,0,,10,,,33,127
48853,note_on,0,0,0,,10,,,69,127
48853,note_on,0,0,0,,1,,,73,127
49071,note_off,218,0,0,,1,,,73,127
49071,note_off,0,0,0,,10,,,69,127
49072,note_on,1,0,0,,10,,,69,127
49072,note_on,0,0,0,,1,,,73,127
49181,note_off,109,0,0,,1,,,73,127
49181,note_off,0,0,0,,10,,,69,127
49182,note_on,1,0,0,,12,,,71,127
49182,note_on,0,0,0,,2,,,74,127
49291,note_off,109,0,0,,2,,,74,127
49291,note_off,0,0,0,,12,,,71,127
49291,note_off,0,0,0,,10,,,33,127
49291,note_off,0,0,0,,10,,,45,127
49292,note_on,1,0,0,,10,,,45,127
49292,note_on,0,0,0,,10,,,33,127
49292,note_on,0,0,0,,4,,,76,127
49292,note_on,0,0,0,,1,,,73,127
49510,note_off,218,0,0,,1,,,73,127
49510,note_off,0,0,0,,4,,,76,127
49511,note_on,1,0,0,,6,,,78,127
49511,note_on,0,0,0,,2,,,74,127
49729,note_off,218,0,0,,2,,,74,127
49729,note_off,0,0,0,,6,,,78,127
49729,note_off,0,0,0,,10,,,33,127
49729,note_off,0,0,0,,10,,,45,127
49730,note_on,1,0,0,,4,,,52,127
49730,note_on,0,0,0,,4,,,40,127
49730,note_on,0,0,0,,1,,,73,127
49730,note_on,0,0,0,,4,,,76,127
49948,note_off,218,0,0,,4,,,76,127
49948,note_off,0,0,0,,1,,,73,127
49949,note_on,1,0,0,,2,,,74,127
49949,note_on,0,0,0,,12,,,71,127
50167,note_off,218,0,0,,12,,,71,127
50167,note_off,0,0,0,,2,,,74,127
50167,note_off,0,0,0,,4,,,40,127
50167,note_off,0,0,0,,4,,,52,127
50168,note_on,1,0,0,,10,,,45,127
50168,note_on,0,0,0,,10,,,33,127
50168,note_on,0,0,0,,1,,,73,127
50168,note_on,0,0,0,,10,,,69,127
50386,note_off,218,0,0,,10,,,69,127
50386,note_off,0,0,0,,1,,,73,127
50387,note_on,1,0,0,,12,,,71,127
50387,note_on,0,0,0,,8,,,68,127
50496,note_off,109,0,0,,8,,,68,127
50496,note_off,0,0,0,,12,,,71,127
50497,note_on,1,0,0,,1,,,73,127
50497,note_on,0,0,0,,10,,,69,127
50606,note_off,109,0,0,,10,,,69,127
50606,note_off,0,0,0,,1,,,73,127
50606,note_off,0,0,0,,10,,,33,127
50606,note_off,0,0,0,,10,,,45,127
50607,note_on,1,0,0,,2,,,50,127
50607,note_on,0,0,0,,2,,,38,127
50607,note_on,0,0,0,,12,,,71,127
50607,note_on,0,0,0,,2,,,74,127
50825,note_off,218,0,0,,2,,,74,127
50825,note_off,0,0,0,,12,,,71,127
50826,note_on,1,0,0,,10,,,69,127
50826,note_on,0,0,0,,1,,,73,127
51044,note_off,218,0,0,,2,,,38,127
51044,note_off,0,0,0,,2,,,50,127
51045,note_on,1,0,0,,4,,,40,127
51045,note_on,0,0,0,,4,,,52,127
51263,note_off,218,0,0,,1,,,73,127
51263,note_off,0,0,0,,10,,,69,127
51264,note_on,1,0,0,,12,,,71,127
51264,note_on,0,0,0,,8,,,68,127
51482,note_off,218,0,0,,8,,,68,127
51482,note_off,0,0,0,,12,,,71,127
51482,note_off,0,0,0,,4,,,52,127
51482,note_off,0,0,0,,4,,,40,127
51483,note_on,1,0,0,,10,,,45,127
51483,note_on,0,0,0,,10,,,33,127
51483,note_on,0,0,0,,10,,,69,127
51483,note_on,0,0,0,,1,,,73,127
51592,note_off,109,0,0,,1,,,73,127
51592,note_off,0,0,0,,10,,,69,127
51593,note_on,1,0,0,,12,,,71,127
51593,note_on,0,0,0,,8,,,68,127
51702,note_off,109,0,0,,8,,,68,127
51702,note_off,0,0,0,,12,,,71,127
51703,note_on,1,0,0,,10,,,69,127
51703,note_on,0,0,0,,1,,,73,127
51812,note_off,109,0,0,,1,,,73,127
51812,note_off,0,0,0,,10,,,69,127
51813,note_on,1,0,0,,12,,,71,127
51813,note_on,0,0,0,,2,,,74,127
51922,note_off,109,0,0,,2,,,74,127
51922,note_off,0,0,0,,12,,,71,127
51922,note_off,0,0,0,,10,,,33,127
51922,note_off,0,0,0,,10,,,45,127
51923,note_on,1,0,0,,10,,,45,127
51923,note_on,0,0,0,,10,,,33,127
51923,note_on,0,0,0,,10,,,69,127
51923,note_on,0,0,0,,1,,,73,127
52032,note_off,109,0,0,,1,,,73,127
52032,note_off,0,0,0,,10,,,69,127
52033,note_on,1,0,0,,2,,,74,127
52033,note_on,0,0,0,,12,,,71,127
52142,note_off,109,0,0,,12,,,71,127
52142,note_off,0,0,0,,2,,,74,127
52143,note_on,1,0,0,,1,,,73,127
52143,note_on,0,0,0,,4,,,76,127
52252,note_off,109,0,0,,4,,,76,127
52252,note_off,0,0,0,,1,,,73,127
52253,note_on,1,0,0,,2,,,74,127
52253,note_on,0,0,0,,6,,,78,127
52362,note_off,109,0,0,,6,,,78,127
52362,note_off,0,0,0,,2,,,74,127
52362,note_off,0,0,0,,10,,,33,127
52362,note_off,0,0,0,,10,,,45,127
52363,note_on,1,0,0,,4,,,52,127
52363,note_on,0,0,0,,4,,,40,127
52363,note_on,0,0,0,,1,,,73,127
52363,note_on,0,0,0,,4,,,76,127
52472,note_off,109,0,0,,4,,,76,127
52472,note_off,0,0,0,,1,,,73,127
52473,note_on,1,0,0,,2,,,74,127
52473,note_on,0,0,0,,12,,,71,127
52582,note_off,109,0,0,,12,,,71,127
52582,note_off,0,0,0,,2,,,74,127
52583,note_on,1,0,0,,10,,,69,127
52583,note_on,0,0,0,,1,,,73,127
52692,note_off,109,0,0,,1,,,73,127
52692,note_off,0,0,0,,10,,,69,127
52693,note_on,1,0,0,,12,,,71,127
52693,note_on,0,0,0,,8,,,68,127
52802,note_off,109,0,0,,8,,,68,127
52802,note_off,0,0,0,,12,,,71,127
52802,note_off,0,0,0,,4,,,40,127
52802,note_off,0,0,0,,4,,,52,127
52803,note_on,1,0,0,,10,,,45,127
52803,note_on,0,0,0,,10,,,33,127
52803,note_on,0,0,0,,1,,,73,127
52803,note_on,0,0,0,,10,,,69,127
52912,note_off,109,0,0,,10,,,69,127
52912,note_off,0,0,0,,1,,,73,127
52913,note_on,1,0,0,,12,,,71,127
52913,note_on,0,0,0,,8,,,68,127
53022,note_off,109,0,0,,8,,,68,127
53022,note_off,0,0,0,,12,,,71,127
53023,note_on,1,0,0,,10,,,69,127
53023,note_on,0,0,0,,1,,,73,127
53132,note_off,109,0,0,,1,,,73,127
53132,note_off,0,0,0,,10,,,69,127
53133,note_on,1,0,0,,12,,,71,127
53133,note_on,0,0,0,,2,,,74,127
53242,note_off,109,0,0,,2,,,74,127
53242,note_off,0,0,0,,12,,,71,127
53242,note_off,0,0,0,,10,,,33,127
53242,note_off,0,0,0,,10,,,45,127
53243,note_on,1,0,0,,10,,,45,127
53243,note_on,0,0,0,,10,,,33,127
53243,note_on,0,0,0,,1,,,73,127
53243,note_on,0,0,0,,10,,,69,127
53352,note_off,109,0,0,,10,,,69,127
53352,note_off,0,0,0,,1,,,73,127
53353,note_on,1,0,0,,2,,,74,127
53353,note_on,0,0,0,,12,,,71,127
53462,note_off,109,0,0,,12,,,71,127
53462,note_off,0,0,0,,2,,,74,127
53463,note_on,1,0,0,,1,,,73,127
53463,note_on,0,0,0,,4,,,76,127
53572,note_off,109,0,0,,4,,,76,127
53572,note_off,0,0,0,,1,,,73,127
53573,note_on,1,0,0,,2,,,74,127
53573,note_on,0,0,0,,6,,,78,127
53682,note_off,109,0,0,,6,,,78,127
53682,note_off,0,0,0,,2,,,74,127
53682,note_off,0,0,0,,10,,,33,127
53682,note_off,0,0,0,,10,,,45,127
53683,note_on,1,0,0,,4,,,52,127
53683,note_on,0,0,0,,4,,,40,127
53683,note_on,0,0,0,,4,,,76,127
53683,note_on,0,0,0,,1,,,73,127
53792,note_off,109,0,0,,1,,,73,127
53792,note_off,0,0,0,,4,,,76,127
53793,note_on,1,0,0,,12,,,71,127
53793,note_on,0,0,0,,2,,,74,127
53902,note_off,109,0,0,,2,,,74,127
53902,note_off,0,0,0,,12,,,71,127
53903,note_on,1,0,0,,1,,,73,127
53903,note_on,0,0,0,,10,,,69,127
54012,note_off,109,0,0,,10,,,69,127
54012,note_off,0,0,0,,1,,,73,127
54013,note_on,1,0,0,,8,,,68,127
54013,note_on,0,0,0,,12,,,71,127
54122,note_off,109,0,0,,12,,,71,127
54122,note_off,0,0,0,,8,,,68,127
54122,note_off,0,0,0,,4,,,40,127
54122,note_off,0,0,0,,4,,,52,127
54123,note_on,1,0,0,,10,,,45,127
54123,note_on,0,0,0,,10,,,33,127
54123,note_on,0,0,0,,10,,,69,127
54123,note_on,0,0,0,,1,,,73,127
54341,note_off,218,0,0,,1,,,73,127
54341,note_off,0,0,0,,10,,,69,127
54342,note_on,1,0,0,,12,,,71,127
54342,note_on,0,0,0,,8,,,68,127
54451,note_off,109,0,0,,8,,,68,127
54451,note_off,0,0,0,,12,,,71,127
54452,note_on,1,0,0,,10,,,69,127
54452,note_on,0,0,0,,1,,,73,127
54561,note_off,109,0,0,,1,,,73,127
54561,note_off,0,0,0,,10,,,69,127
54561,note_off,0,0,0,,10,,,33,127
54561,note_off,0,0,0,,10,,,45,127
54562,note_on,1,0,0,,2,,,50,127
54562,note_on,0,0,0,,2,,,38,127
54562,note_on,0,0,0,,12,,,71,127
54562,note_on,0,0,0,,2,,,74,127
54780,note_off,218,0,0,,2,,,74,127
54780,note_off,0,0,0,,12,,,71,127
54781,note_on,1,0,0,,10,,,69,127
54781,note_on,0,0,0,,1,,,73,127
54999,note_off,218,0,0,,2,,,38,127
54999,note_off,0,0,0,,2,,,50,127
55000,note_on,1,0,0,,4,,,52,127
55000,note_on,0,0,0,,4,,,40,127
55218,note_off,218,0,0,,1,,,73,127
55218,note_off,0,0,0,,10,,,69,127
55219,note_on,1,0,0,,12,,,71,127
55219,note_on,0,0,0,,8,,,68,127
55437,note_off,218,0,0,,8,,,68,127
55437,note_off,0,0,0,,12,,,71,127
55437,note_off,0,0,0,,4,,,40,127
55437,note_off,0,0,0,,4,,,52,127
55438,note_on,1,0,0,,10,,,45,127
55438,note_on,0,0,0,,10,,,33,127
55438,note_on,0,0,0,,10,,,69,127
55548,note_on,110,0,0,,10,,,81,127
55657,note_off,109,0,0,,10,,,81,127
55657,note_off,0,0,0,,10,,,69,127
55658,note_on,1,0,0,,4,,,76,127
55767,note_off,109,0,0,,4,,,76,127
55768,note_on,1,0,0,,1,,,73,127
55877,note_off,109,0,0,,1,,,73,127
55878,note_on,1,0,0,,10,,,69,127
55987,note_off,109,0,0,,10,,,69,127
55988,note_on,1,0,0,,4,,,64,127
56097,note_off,109,0,0,,4,,,64,127
56097,note_off,0,0,0,,10,,,33,127
56097,note_off,0,0,0,,10,,,45,127
56098,note_on,1,0,0,,1,,,61,127
56207,note_off,109,0,0,,1,,,61,127
56208,note_on,1,0,0,,10,,,57,127
56317,note_off,109,0,0,,10,,,57,127
56318,note_on,1,0,0,,10,,,57,127
56427,note_off,109,0,0,,10,,,57,127
56428,note_on,1,0,0,,4,,,52,127
56537,note_off,109,0,0,,4,,,52,127
56538,note_on,1,0,0,,1,,,49,127
56647,note_off,109,0,0,,1,,,49,127
56648,note_on,1,0,0,,10,,,45,127
56757,note_off,109,0,0,,10,,,45,127
56758,note_on,1,0,0,,10,,,33,127
58073,note_off,1315,0,0,,10,,,33,127
58074,note_on,1,0,0,,10,,,57,127
58074,note_on,0,0,0,,10,,,45,127
58293,note_on,219,0,0,,1,,,73,127
58402,note_off,109,0,0,,1,,,73,127
58403,note_on,1,0,0,,2,,,74,127
58512,note_off,109,0,0,,2,,,74,127
58512,note_off,0,0,0,,10,,,45,127
58512,note_off,0,0,0,,10,,,57,127
58513,note_on,1,0,0,,10,,,57,127
58513,note_on,0,0,0,,10,,,45,127
58513,note_on,0,0,0,,4,,,76,127
58731,note_off,218,0,0,,4,,,76,127
58732,note_on,1,0,0,,10,,,69,127
58950,note_off,218,0,0,,10,,,69,127
58950,note_off,0,0,0,,10,,,45,127
58950,note_off,0,0,0,,10,,,57,127
58951,note_on,1,0,0,,10,,,57,127
58951,note_on,0,0,0,,1,,,49,127
58951,note_on,0,0,0,,4,,,76,127
59169,note_off,218,0,0,,4,,,76,127
59170,note_on,1,0,0,,10,,,69,127
59388,note_off,218,0,0,,10,,,69,127
59388,note_off,0,0,0,,1,,,49,127
59388,note_off,0,0,0,,10,,,57,127
59389,note_on,1,0,0,,12,,,59,127
59389,note_on,0,0,0,,2,,,50,127
59389,note_on,0,0,0,,10,,,57,127
59608,note_on,219,0,0,,12,,,71,127
59717,note_off,109,0,0,,12,,,71,127
59718,note_on,1,0,0,,1,,,73,127
59827,note_off,109,0,0,,1,,,73,127
59827,note_off,0,0,0,,10,,,57,127
59827,note_off,0,0,0,,2,,,50,127
59827,note_off,0,0,0,,12,,,59,127
59828,note_on,1,0,0,,12,,,59,127
59828,note_on,0,0,0,,10,,,57,127
59828,note_on,0,0,0,,2,,,50,127
59828,note_on,0,0,0,,2,,,74,127
60046,note_off,218,0,0,,2,,,74,127
60047,note_on,1,0,0,,8,,,68,127
60265,note_off,218,0,0,,8,,,68,127
60265,note_off,0,0,0,,2,,,50,127
60265,note_off,0,0,0,,10,,,57,127
60265,note_off,0,0,0,,12,,,59,127
60266,note_on,1,0,0,,4,,,52,127
60266,note_on,0,0,0,,12,,,59,127
60266,note_on,0,0,0,,2,,,74,127
60484,note_off,218,0,0,,2,,,74,127
60485,note_on,1,0,0,,8,,,68,127
60703,note_off,218,0,0,,8,,,68,127
60703,note_off,0,0,0,,12,,,59,127
60703,note_off,0,0,0,,4,,,52,127
60704,note_on,1,0,0,,1,,,73,127
60704,note_on,0,0,0,,10,,,69,127
60923,note_on,219,0,0,,1,,,61,127
61032,note_off,109,0,0,,1,,,61,127
61033,note_on,1,0,0,,2,,,62,127
61142,note_off,109,0,0,,2,,,62,127
61142,note_off,0,0,0,,10,,,69,127
61142,note_off,0,0,0,,1,,,73,127
61143,note_on,1,0,0,,4,,,64,127
61143,note_on,0,0,0,,1,,,73,127
61143,note_on,0,0,0,,10,,,69,127
61361,note_off,218,0,0,,4,,,64,127
61362,note_on,1,0,0,,10,,,57,127
61580,note_off,218,0,0,,10,,,57,127
61580,note_off,0,0,0,,10,,,69,127
61580,note_off,0,0,0,,1,,,73,127
61581,note_on,1,0,0,,4,,,64,127
61581,note_on,0,0,0,,1,,,73,127
61581,note_on,0,0,0,,4,,,76,127
61799,note_off,218,0,0,,4,,,64,127
61800,note_on,1,0,0,,10,,,57,127
62018,note_off,218,0,0,,10,,,57,127
62018,note_off,0,0,0,,4,,,76,127
62018,note_off,0,0,0,,1,,,73,127
62019,note_on,1,0,0,,4,,,52,127
62019,note_on,0,0,0,,12,,,71,127
62019,note_on,0,0,0,,2,,,74,127
62237,note_off,218,0,0,,4,,,52,127
62238,note_on,1,0,0,,12,,,59,127
62347,note_off,109,0,0,,12,,,59,127
62348,note_on,1,0,0,,1,,,61,127
62457,note_off,109,0,0,,1,,,61,127
62457,note_off,0,0,0,,2,,,74,127
62457,note_off,0,0,0,,12,,,71,127
62458,note_on,1,0,0,,2,,,62,127
62458,note_on,0,0,0,,2,,,74,127
62458,note_on,0,0,0,,12,,,71,127
62676,note_off,218,0,0,,2,,,62,127
62677,note_on,1,0,0,,8,,,56,127
62895,note_off,218,0,0,,8,,,56,127
62895,note_off,0,0,0,,12,,,71,127
62895,note_off,0,0,0,,2,,,74,127
62896,note_on,1,0,0,,2,,,62,127
62896,note_on,0,0,0,,12,,,71,127
62896,note_on,0,0,0,,2,,,74,127
63114,note_off,218,0,0,,2,,,62,127
63115,note_on,1,0,0,,8,,,56,127
63333,note_off,218,0,0,,8,,,56,127
63333,note_off,0,0,0,,2,,,74,127
63333,note_off,0,0,0,,12,,,71,127
63334,note_on,1,0,0,,1,,,61,127
63334,note_on,0,0,0,,10,,,57,127
63334,note_on,0,0,0,,10,,,69,127
63443,note_off,109,0,0,,10,,,69,127
63444,note_on,1,0,0,,12,,,71,127
63553,note_off,109,0,0,,12,,,71,127
63554,note_on,1,0,0,,1,,,73,127
63663,note_off,109,0,0,,1,,,73,127
63664,note_on,1,0,0,,2,,,74,127
63773,note_off,109,0,0,,2,,,74,127
63773,note_off,0,0,0,,10,,,57,127
63773,note_off,0,0,0,,1,,,61,127
63774,note_on,1,0,0,,10,,,57,127
63774,note_on,0,0,0,,1,,,61,127
63774,note_on,0,0,0,,4,,,76,127
63883,note_off,109,0,0,,4,,,76,127
63884,note_on,1,0,0,,2,,,74,127
63993,note_off,109,0,0,,2,,,74,127
63994,note_on,1,0,0,,1,,,73,127
64103,note_off,109,0,0,,1,,,73,127
64104,note_on,1,0,0,,12,,,71,127
64213,note_off,109,0,0,,12,,,71,127
64213,note_off,0,0,0,,1,,,61,127
64213,note_off,0,0,0,,10,,,57,127
64214,note_on,1,0,0,,1,,,61,127
64214,note_on,0,0,0,,10,,,57,127
64214,note_on,0,0,0,,10,,,69,127
64323,note_off,109,0,0,,10,,,69,127
64324,note_on,1,0,0,,7,,,67,127
64433,note_off,109,0,0,,7,,,67,127
64434,note_on,1,0,0,,6,,,66,127
64543,note_off,109,0,0,,6,,,66,127
64544,note_on,1,0,0,,4,,,64,127
64648,note_off,104,0,0,,4,,,64,127
64653,note_off,5,0,0,,10,,,57,127
64653,note_off,0,0,0,,1,,,61,127
64654,note_on,1,0,0,,2,,,62,127
64654,note_on,0,0,0,,2,,,50,127
64873,note_on,219,0,0,,6,,,78,127
64982,note_off,109,0,0,,6,,,78,127
64983,note_on,1,0,0,,7,,,79,127
65092,note_off,109,0,0,,7,,,79,127
65092,note_off,0,0,0,,2,,,50,127
65092,note_off,0,0,0,,2,,,62,127
65093,note_on,1,0,0,,2,,,62,127
65093,note_on,0,0,0,,2,,,50,127
65093,note_on,0,0,0,,10,,,81,127
65311,note_off,218,0,0,,10,,,81,127
65312,note_on,1,0,0,,2,,,74,127
65530,note_off,218,0,0,,2,,,74,127
65530,note_off,0,0,0,,2,,,50,127
65530,note_off,0,0,0,,2,,,62,127
65531,note_on,1,0,0,,2,,,62,127
65531,note_on,0,0,0,,6,,,54,127
65531,note_on,0,0,0,,10,,,81,127
65749,note_off,218,0,0,,10,,,81,127
65750,note_on,1,0,0,,2,,,74,127
65968,note_off,218,0,0,,2,,,74,127
65968,note_off,0,0,0,,6,,,54,127
65968,note_off,0,0,0,,2,,,62,127
65969,note_on,1,0,0,,4,,,64,127
65969,note_on,0,0,0,,7,,,55,127
65969,note_on,0,0,0,,2,,,62,127
66188,note_on,219,0,0,,4,,,76,127
66297,note_off,109,0,0,,4,,,76,127
66298,note_on,1,0,0,,6,,,78,127
66407,note_off,109,0,0,,6,,,78,127
66407,note_off,0,0,0,,2,,,62,127
66407,note_off,0,0,0,,7,,,55,127
66407,note_off,0,0,0,,4,,,64,127
66408,note_on,1,0,0,,4,,,64,127
66408,note_on,0,0,0,,2,,,62,127
66408,note_on,0,0,0,,7,,,55,127
66408,note_on,0,0,0,,7,,,79,127
66626,note_off,218,0,0,,7,,,79,127
66627,note_on,1,0,0,,1,,,73,127
66845,note_off,218,0,0,,1,,,73,127
66845,note_off,0,0,0,,7,,,55,127
66845,note_off,0,0,0,,2,,,62,127
66845,note_off,0,0,0,,4,,,64,127
66846,note_on,1,0,0,,4,,,64,127
66846,note_on,0,0,0,,10,,,57,127
66846,note_on,0,0,0,,7,,,79,127
67064,note_off,218,0,0,,7,,,79,127
67065,note_on,1,0,0,,1,,,73,127
67283,note_off,218,0,0,,1,,,73,127
67283,note_off,0,0,0,,10,,,57,127
67283,note_off,0,0,0,,4,,,64,127
67284,note_on,1,0,0,,2,,,74,127
67284,note_on,0,0,0,,6,,,78,127
67503,note_on,219,0,0,,6,,,66,127
67612,note_off,109,0,0,,6,,,66,127
67613,note_on,1,0,0,,7,,,67,127
67722,note_off,109,0,0,,7,,,67,127
67722,note_off,0,0,0,,6,,,78,127
67722,note_off,0,0,0,,2,,,74,127
67723,note_on,1,0,0,,10,,,69,127
67723,note_on,0,0,0,,6,,,78,127
67723,note_on,0,0,0,,2,,,74,127
67941,note_off,218,0,0,,10,,,69,127
67942,note_on,1,0,0,,2,,,62,127
68160,note_off,218,0,0,,2,,,62,127
68160,note_off,0,0,0,,2,,,74,127
68160,note_off,0,0,0,,6,,,78,127
68161,note_on,1,0,0,,10,,,69,127
68161,note_on,0,0,0,,10,,,81,127
68161,note_on,0,0,0,,6,,,78,127
68379,note_off,218,0,0,,10,,,69,127
68380,note_on,1,0,0,,2,,,62,127
68598,note_off,218,0,0,,2,,,62,127
68598,note_off,0,0,0,,6,,,78,127
68598,note_off,0,0,0,,10,,,81,127
68599,note_on,1,0,0,,10,,,57,127
68599,note_on,0,0,0,,7,,,79,127
68599,note_on,0,0,0,,4,,,76,127
68817,note_off,218,0,0,,10,,,57,127
68818,note_on,1,0,0,,4,,,64,127
68927,note_off,109,0,0,,4,,,64,127
68928,note_on,1,0,0,,6,,,66,127
69037,note_off,109,0,0,,6,,,66,127
69037,note_off,0,0,0,,4,,,76,127
69037,note_off,0,0,0,,7,,,79,127
69038,note_on,1,0,0,,7,,,67,127
69038,note_on,0,0,0,,4,,,76,127
69038,note_on,0,0,0,,7,,,79,127
69256,note_off,218,0,0,,7,,,67,127
69257,note_on,1,0,0,,1,,,61,127
69475,note_off,218,0,0,,1,,,61,127
69475,note_off,0,0,0,,7,,,79,127
69475,note_off,0,0,0,,4,,,76,127
69476,note_on,1,0,0,,7,,,67,127
69476,note_on,0,0,0,,7,,,79,127
69476,note_on,0,0,0,,4,,,76,127
69694,note_off,218,0,0,,7,,,67,127
69695,note_on,1,0,0,,1,,,61,127
69913,note_off,218,0,0,,1,,,61,127
69913,note_off,0,0,0,,4,,,76,127
69913,note_off,0,0,0,,7,,,79,127
69914,note_on,1,0,0,,2,,,62,127
69914,note_on,0,0,0,,6,,,78,127
69914,note_on,0,0,0,,2,,,74,127
70023,note_off,109,0,0,,2,,,62,127
70024,note_on,1,0,0,,4,,,64,127
70133,note_off,109,0,0,,4,,,64,127
70134,note_on,1,0,0,,6,,,66,127
70243,note_off,109,0,0,,6,,,66,127
70244,note_on,1,0,0,,7,,,67,127
70353,note_off,109,0,0,,7,,,67,127
70353,note_off,0,0,0,,2,,,74,127
70353,note_off,0,0,0,,6,,,78,127
70354,note_on,1,0,0,,10,,,69,127
70354,note_on,0,0,0,,6,,,78,127
70354,note_on,0,0,0,,2,,,74,127
70463,note_off,109,0,0,,10,,,69,127
70464,note_on,1,0,0,,7,,,67,127
70573,note_off,109,0,0,,7,,,67,127
70574,note_on,1,0,0,,6,,,66,127
70683,note_off,109,0,0,,6,,,66,127
70684,note_on,1,0,0,,4,,,64,127
70793,note_off,109,0,0,,4,,,64,127
70793,note_off,0,0,0,,2,,,74,127
70793,note_off,0,0,0,,6,,,78,127
70794,note_on,1,0,0,,2,,,62,127
70794,note_on,0,0,0,,6,,,78,127
70794,note_on,0,0,0,,2,,,74,127
70903,note_off,109,0,0,,2,,,62,127
70904,note_on,1,0,0,,0,,,60,127
71013,note_off,109,0,0,,0,,,60,127
71014,note_on,1,0,0,,12,,,59,127
71123,note_off,109,0,0,,12,,,59,127
71124,note_on,1,0,0,,10,,,57,127
71233,note_off,109,0,0,,10,,,57,127
71233,note_off,0,0,0,,2,,,74,127
71233,note_off,0,0,0,,6,,,78,127
71234,note_on,1,0,0,,7,,,55,127
71234,note_on,0,0,0,,7,,,79,127
71343,note_off,109,0,0,,7,,,79,127
71344,note_on,1,0,0,,6,,,78,127
71453,note_off,109,0,0,,6,,,78,127
71454,note_on,1,0,0,,7,,,79,127
71563,note_off,109,0,0,,7,,,79,127
71564,note_on,1,0,0,,10,,,81,127
71673,note_off,109,0,0,,10,,,81,127
71673,note_off,0,0,0,,7,,,55,127
71674,note_on,1,0,0,,7,,,55,127
71674,note_on,0,0,0,,12,,,83,127
71783,note_off,109,0,0,,12,,,83,127
71784,note_on,1,0,0,,10,,,81,127
71893,note_off,109,0,0,,10,,,81,127
71894,note_on,1,0,0,,7,,,79,127
72003,note_off,109,0,0,,7,,,79,127
72004,note_on,1,0,0,,6,,,78,127
72113,note_off,109,0,0,,6,,,78,127
72113,note_off,0,0,0,,7,,,55,127
72114,note_on,1,0,0,,7,,,55,127
72114,note_on,0,0,0,,4,,,76,127
72223,note_off,109,0,0,,4,,,76,127
72224,note_on,1,0,0,,2,,,74,127
72333,note_off,109,0,0,,2,,,74,127
72334,note_on,1,0,0,,1,,,73,127
72443,note_off,109,0,0,,1,,,73,127
72444,note_on,1,0,0,,12,,,71,127
72553,note_off,109,0,0,,12,,,71,127
72553,note_off,0,0,0,,7,,,55,127
72554,note_on,1,0,0,,10,,,57,127
72554,note_on,0,0,0,,10,,,45,127
72554,note_on,0,0,0,,4,,,76,127
72554,note_on,0,0,0,,10,,,69,127
72772,note_off,218,0,0,,10,,,69,127
72772,note_off,0,0,0,,4,,,76,127
72773,note_on,1,0,0,,4,,,76,127
72773,note_on,0,0,0,,10,,,69,127
72882,note_off,109,0,0,,10,,,69,127
72882,note_off,0,0,0,,4,,,76,127
72883,note_on,1,0,0,,4,,,76,127
72883,note_on,0,0,0,,10,,,69,127
72992,note_off,109,0,0,,10,,,69,127
72992,note_off,0,0,0,,4,,,76,127
72992,note_off,0,0,0,,10,,,45,127
72992,note_off,0,0,0,,10,,,57,127
72993,note_on,1,0,0,,10,,,57,127
72993,note_on,0,0,0,,10,,,45,127
72993,note_on,0,0,0,,10,,,69,127
72993,note_on,0,0,0,,4,,,76,127
73211,note_off,218,0,0,,4,,,76,127
73211,note_off,0,0,0,,10,,,69,127
73212,note_on,1,0,0,,2,,,74,127
73212,note_on,0,0,0,,6,,,66,127
73430,note_off,218,0,0,,6,,,66,127
73430,note_off,0,0,0,,2,,,74,127
73430,note_off,0,0,0,,10,,,45,127
73430,note_off,0,0,0,,10,,,57,127
73431,note_on,1,0,0,,10,,,57,127
73431,note_on,0,0,0,,10,,,45,127
73431,note_on,0,0,0,,4,,,64,127
73431,note_on,0,0,0,,1,,,73,127
73649,note_off,218,0,0,,1,,,73,127
73649,note_off,0,0,0,,4,,,64,127
73650,note_on,1,0,0,,2,,,74,127
73650,note_on,0,0,0,,2,,,62,127
73868,note_off,218,0,0,,2,,,62,127
73868,note_off,0,0,0,,2,,,74,127
73868,note_off,0,0,0,,10,,,45,127
73868,note_off,0,0,0,,10,,,57,127
73869,note_on,1,0,0,,10,,,45,127
73869,note_on,0,0,0,,10,,,69,127
73869,note_on,0,0,0,,4,,,76,127
74087,note_off,218,0,0,,4,,,76,127
74087,note_off,0,0,0,,10,,,69,127
74088,note_on,1,0,0,,4,,,76,127
74088,note_on,0,0,0,,10,,,69,127
74197,note_off,109,0,0,,10,,,69,127
74197,note_off,0,0,0,,4,,,76,127
74198,note_on,1,0,0,,4,,,76,127
74198,note_on,0,0,0,,10,,,69,127
74307,note_off,109,0,0,,10,,,69,127
74307,note_off,0,0,0,,4,,,76,127
74307,note_off,0,0,0,,10,,,45,127
74308,note_on,1,0,0,,10,,,45,127
74308,note_on,0,0,0,,4,,,76,127
74308,note_on,0,0,0,,10,,,69,127
74526,note_off,218,0,0,,10,,,69,127
74526,note_off,0,0,0,,4,,,76,127
74527,note_on,1,0,0,,2,,,74,127
74527,note_on,0,0,0,,6,,,66,127
74745,note_off,218,0,0,,6,,,66,127
74745,note_off,0,0,0,,2,,,74,127
74745,note_off,0,0,0,,10,,,45,127
74746,note_on,1,0,0,,10,,,45,127
74746,note_on,0,0,0,,1,,,73,127
74746,note_on,0,0,0,,4,,,64,127
74964,note_off,218,0,0,,4,,,64,127
74964,note_off,0,0,0,,1,,,73,127
74965,note_on,1,0,0,,2,,,74,127
74965,note_on,0,0,0,,2,,,62,127
75183,note_off,218,0,0,,2,,,62,127
75183,note_off,0,0,0,,2,,,74,127
75183,note_off,0,0,0,,10,,,45,127
75184,note_on,1,0,0,,10,,,45,127
75184,note_on,0,0,0,,10,,,69,127
75184,note_on,0,0,0,,4,,,76,127
75402,note_off,218,0,0,,4,,,76,127
75402,note_off,0,0,0,,10,,,69,127
75403,note_on,1,0,0,,6,,,66,127
75403,note_on,0,0,0,,2,,,74,127
75621,note_off,218,0,0,,2,,,74,127
75621,note_off,0,0,0,,6,,,66,127
75621,note_off,0,0,0,,10,,,45,127
75622,note_on,1,0,0,,10,,,45,127
75622,note_on,0,0,0,,1,,,73,127
75622,note_on,0,0,0,,4,,,64,127
75840,note_off,218,0,0,,4,,,64,127
75840,note_off,0,0,0,,1,,,73,127
75841,note_on,1,0,0,,2,,,62,127
75841,note_on,0,0,0,,2,,,74,127
76059,note_off,218,0,0,,2,,,74,127
76059,note_off,0,0,0,,2,,,62,127
76059,note_off,0,0,0,,10,,,45,127
76060,note_on,1,0,0,,10,,,45,127
76060,note_on,0,0,0,,4,,,76,127
76060,note_on,0,0,0,,10,,,69,127
76278,note_off,218,0,0,,10,,,69,127
76278,note_off,0,0,0,,4,,,76,127
76279,note_on,1,0,0,,6,,,66,127
76279,note_on,0,0,0,,2,,,74,127
76497,note_off,218,0,0,,2,,,74,127
76497,note_off,0,0,0,,6,,,66,127
76497,note_off,0,0,0,,10,,,45,127
76498,note_on,1,0,0,,10,,,45,127
76498,note_on,0,0,0,,1,,,73,127
76498,note_on,0,0,0,,4,,,64,127
76716,note_off,218,0,0,,4,,,64,127
76716,note_off,0,0,0,,1,,,73,127
76717,note_on,1,0,0,,2,,,74,127
76717,note_on,0,0,0,,2,,,62,127
76935,note_off,218,0,0,,2,,,62,127
76935,note_off,0,0,0,,2,,,74,127
76935,note_off,0,0,0,,10,,,45,127
76936,note_on,1,0,0,,10,,,45,127
76936,note_on,0,0,0,,4,,,76,127
76936,note_on,0,0,0,,10,,,69,127
77154,note_off,218,0,0,,10,,,69,127
77154,note_off,0,0,0,,4,,,76,127
77155,note_on,1,0,0,,2,,,74,127
77155,note_on,0,0,0,,6,,,66,127
77373,note_off,218,0,0,,6,,,66,127
77373,note_off,0,0,0,,2,,,74,127
77373,note_off,0,0,0,,10,,,45,127
77374,note_on,1,0,0,,10,,,45,127
77374,note_on,0,0,0,,1,,,73,127
77374,note_on,0,0,0,,4,,,64,127
77592,note_off,218,0,0,,4,,,64,127
77592,note_off,0,0,0,,1,,,73,127
77593,note_on,1,0,0,,2,,,62,127
77593,note_on,0,0,0,,2,,,74,127
77811,note_off,218,0,0,,2,,,74,127
77811,note_off,0,0,0,,2,,,62,127
77811,note_off,0,0,0,,10,,,45,127
77812,note_on,1,0,0,,10,,,45,127
77812,note_on,0,0,0,,10,,,69,127
77812,note_on,0,0,0,,6,,,78,127
77849,note_on,37,0,0,,4,,,76,127
77865,note_off,16,0,0,,6,,,78,127
77886,note_on,21,0,0,,6,,,78,127
77902,note_off,16,0,0,,4,,,76,127
77923,note_on,21,0,0,,4,,,76,127
77939,note_off,16,0,0,,6,,,78,127
77960,note_on,21,0,0,,6,,,78,127
77976,note_off,16,0,0,,4,,,76,127
77997,note_on,21,0,0,,4,,,76,127
78013,note_off,16,0,0,,6,,,78,127
78034,note_on,21,0,0,,6,,,78,127
78050,note_off,16,0,0,,4,,,76,127
78071,note_on,21,0,0,,4,,,76,127
78087,note_off,16,0,0,,6,,,78,127
79130,note_off,1043,0,0,,4,,,76,127
79131,note_off,1,0,0,,10,,,69,127
79131,note_off,0,0,0,,10,,,45,127
80448,note_on,1317,0,0,,0,,,48,127
80448,note_on,0,0,0,,5,,,53,127
80448,note_on,0,0,0,,5,,,41,127
80448,note_on,0,0,0,,0,,,72,127
80448,note_on,0,0,0,,5,,,77,127
80448,note_on,0,0,0,,10,,,81,127
80485,note_on,37,0,0,,11,,,82,127
80501,note_off,16,0,0,,10,,,81,127
80522,note_on,21,0,0,,0,,,84,127
80538,note_off,16,0,0,,11,,,82,127
80667,note_off,129,0,0,,0,,,84,127
80668,note_on,1,0,0,,11,,,82,127
80777,note_off,109,0,0,,11,,,82,127
80778,note_on,1,0,0,,10,,,81,127
80887,note_off,109,0,0,,10,,,81,127
80888,note_on,1,0,0,,10,,,81,127
81106,note_off,218,0,0,,10,,,81,127
81106,note_off,0,0,0,,5,,,77,127
81107,note_on,1,0,0,,10,,,81,127
81107,note_on,0,0,0,,5,,,77,127
81325,note_off,218,0,0,,5,,,77,127
81325,note_off,0,0,0,,10,,,81,127
81325,note_off,0,0,0,,5,,,41,127
81325,note_off,0,0,0,,5,,,53,127
81325,note_off,0,0,0,,0,,,48,127
81326,note_on,1,0,0,,5,,,53,127
81326,note_on,0,0,0,,0,,,48,127
81326,note_on,0,0,0,,5,,,41,127
81326,note_on,0,0,0,,10,,,81,127
81326,note_on,0,0,0,,5,,,77,127
81544,note_off,218,0,0,,5,,,77,127
81544,note_off,0,0,0,,10,,,81,127
81545,note_on,1,0,0,,10,,,81,127
81545,note_on,0,0,0,,5,,,77,127
81763,note_off,218,0,0,,5,,,77,127
81763,note_off,0,0,0,,10,,,81,127
81763,note_off,0,0,0,,5,,,41,127
81763,note_off,0,0,0,,0,,,48,127
81763,note_off,0,0,0,,5,,,53,127
81764,note_off,1,0,0,,0,,,72,127
81764,note_on,0,0,0,,7,,,43,127
81764,note_on,0,0,0,,0,,,48,127
81764,note_on,0,0,0,,0,,,36,127
81764,note_on,0,0,0,,0,,,72,127
81764,note_on,0,0,0,,4,,,76,127
81764,note_on,0,0,0,,7,,,79,127
81764,note_on,0,0,0,,10,,,81,127
81982,note_off,218,0,0,,10,,,81,127
81982,note_off,0,0,0,,7,,,79,127
81982,note_off,0,0,0,,4,,,76,127
81983,note_on,1,0,0,,5,,,77,127
82092,note_off,109,0,0,,5,,,77,127
82093,note_on,1,0,0,,4,,,76,127
82202,note_off,109,0,0,,4,,,76,127
82203,note_on,1,0,0,,4,,,76,127
82421,note_off,218,0,0,,4,,,76,127
82421,note_off,0,0,0,,0,,,72,127
82422,note_on,1,0,0,,6,,,78,127
82422,note_on,0,0,0,,2,,,74,127
82640,note_off,218,0,0,,2,,,74,127
82640,note_off,0,0,0,,6,,,78,127
82640,note_off,0,0,0,,0,,,36,127
82640,note_off,0,0,0,,0,,,48,127
82640,note_off,0,0,0,,7,,,43,127
82641,note_on,1,0,0,,0,,,48,127
82641,note_on,0,0,0,,0,,,36,127
82641,note_on,0,0,0,,4,,,76,127
82641,note_on,0,0,0,,7,,,79,127
82859,note_off,218,0,0,,7,,,79,127
82859,note_off,0,0,0,,4,,,76,127
82860,note_on,1,0,0,,6,,,78,127
82860,note_on,0,0,0,,10,,,81,127
83078,note_off,218,0,0,,10,,,81,127
83078,note_off,0,0,0,,6,,,78,127
83078,note_off,0,0,0,,0,,,36,127
83078,note_off,0,0,0,,0,,,48,127
83079,note_on,1,0,0,,7,,,55,127
83079,note_on,0,0,0,,7,,,43,127
83079,note_on,0,0,0,,7,,,79,127
83079,note_on,0,0,0,,11,,,82,127
83297,note_off,218,0,0,,11,,,82,127
83297,note_off,0,0,0,,7,,,79,127
83298,note_on,1,0,0,,5,,,77,127
83298,note_on,0,0,0,,10,,,81,127
83407,note_off,109,0,0,,10,,,81,127
83407,note_off,0,0,0,,5,,,77,127
83408,note_on,1,0,0,,7,,,79,127
83408,note_on,0,0,0,,4,,,76,127
83517,note_off,109,0,0,,4,,,76,127
83517,note_off,0,0,0,,7,,,79,127
83517,note_off,0,0,0,,7,,,43,127
83517,note_off,0,0,0,,7,,,55,127
83518,note_on,1,0,0,,10,,,57,127
83518,note_on,0,0,0,,10,,,81,127
83518,note_on,0,0,0,,5,,,77,127
83736,note_off,218,0,0,,5,,,77,127
83736,note_off,0,0,0,,10,,,81,127
83737,note_on,1,0,0,,7,,,79,127
83737,note_on,0,0,0,,4,,,76,127
83955,note_off,218,0,0,,4,,,76,127
83955,note_off,0,0,0,,7,,,79,127
83955,note_off,0,0,0,,10,,,57,127
83956,note_on,1,0,0,,10,,,45,127
83956,note_on,0,0,0,,5,,,77,127
83956,note_on,0,0,0,,2,,,74,127
84174,note_off,218,0,0,,2,,,74,127
84174,note_off,0,0,0,,5,,,77,127
84175,note_on,1,0,0,,1,,,73,127
84175,note_on,0,0,0,,4,,,76,127
84393,note_off,218,0,0,,4,,,76,127
84393,note_off,0,0,0,,1,,,73,127
84393,note_off,0,0,0,,10,,,45,127
84394,note_on,1,0,0,,2,,,50,127
84394,note_on,0,0,0,,2,,,38,127
84394,note_on,0,0,0,,4,,,76,127
84431,note_on,37,0,0,,2,,,74,127
84447,note_off,16,0,0,,4,,,76,127
84468,note_on,21,0,0,,4,,,76,127
84484,note_off,16,0,0,,2,,,74,127
84505,note_on,21,0,0,,2,,,74,127
84521,note_off,16,0,0,,4,,,76,127
84614,note_off,93,0,0,,2,,,74,127
84615,note_on,1,0,0,,4,,,76,127
84833,note_off,218,0,0,,4,,,76,127
84834,note_on,1,0,0,,7,,,79,127
84871,note_on,37,0,0,,5,,,77,127
84887,note_off,16,0,0,,7,,,79,127
84908,note_on,21,0,0,,7,,,79,127
84924,note_off,16,0,0,,5,,,77,127
84945,note_on,21,0,0,,5,,,77,127
84961,note_off,16,0,0,,7,,,79,127
85054,note_off,93,0,0,,5,,,77,127
85055,note_on,1,0,0,,7,,,79,127
85273,note_off,218,0,0,,7,,,79,127
85274,note_on,1,0,0,,11,,,82,127
85311,note_on,37,0,0,,10,,,81,127
85327,note_off,16,0,0,,11,,,82,127
85348,note_on,21,0,0,,11,,,82,127
85364,note_off,16,0,0,,10,,,81,127
85385,note_on,21,0,0,,10,,,81,127
85401,note_off,16,0,0,,11,,,82,127
85494,note_off,93,0,0,,10,,,81,127
85495,note_on,1,0,0,,11,,,82,127
85713,note_off,218,0,0,,11,,,82,127
85713,note_off,0,0,0,,2,,,38,127
85713,note_off,0,0,0,,2,,,50,127
85714,note_on,1,0,0,,0,,,48,127
85714,note_on,0,0,0,,5,,,53,127
85714,note_on,0,0,0,,5,,,41,127
85714,note_on,0,0,0,,0,,,84,127
85714,note_on,0,0,0,,5,,,77,127
85714,note_on,0,0,0,,0,,,72,127
85932,note_off,218,0,0,,0,,,84,127
85933,note_on,1,0,0,,11,,,82,127
86042,note_off,109,0,0,,11,,,82,127
86043,note_on,1,0,0,,10,,,81,127
86152,note_off,109,0,0,,10,,,81,127
86153,note_on,1,0,0,,10,,,81,127
86371,note_off,218,0,0,,10,,,81,127
86371,note_off,0,0,0,,5,,,77,127
86372,note_on,1,0,0,,10,,,81,127
86372,note_on,0,0,0,,5,,,77,127
86590,note_off,218,0,0,,5,,,77,127
86590,note_off,0,0,0,,10,,,81,127
86590,note_off,0,0,0,,5,,,41,127
86590,note_off,0,0,0,,5,,,53,127
86590,note_off,0,0,0,,0,,,48,127
86591,note_on,1,0,0,,5,,,53,127
86591,note_on,0,0,0,,0,,,48,127
86591,note_on,0,0,0,,5,,,41,127
86591,note_on,0,0,0,,5,,,77,127
86591,note_on,0,0,0,,10,,,81,127
86809,note_off,218,0,0,,10,,,81,127
86809,note_off,0,0,0,,5,,,77,127
86810,note_on,1,0,0,,5,,,77,127
86810,note_on,0,0,0,,10,,,81,127
87028,note_off,218,0,0,,10,,,81,127
87028,note_off,0,0,0,,5,,,77,127
87028,note_off,0,0,0,,5,,,41,127
87028,note_off,0,0,0,,0,,,48,127
87028,note_off,0,0,0,,5,,,53,127
87029,note_off,1,0,0,,0,,,72,127
87029,note_on,0,0,0,,0,,,48,127
87029,note_on,0,0,0,,7,,,43,127
87029,note_on,0,0,0,,0,,,36,127
87029,note_on,0,0,0,,7,,,79,127
87029,note_on,0,0,0,,0,,,72,127
87029,note_on,0,0,0,,4,,,76,127
87029,note_on,0,0,0,,10,,,81,127
87247,note_off,218,0,0,,10,,,81,127
87247,note_off,0,0,0,,4,,,76,127
87247,note_off,0,0,0,,7,,,79,127
87248,note_on,1,0,0,,5,,,77,127
87357,note_off,109,0,0,,5,,,77,127
87358,note_on,1,0,0,,4,,,76,127
87467,note_off,109,0,0,,4,,,76,127
87468,note_on,1,0,0,,4,,,76,127
87686,note_off,218,0,0,,4,,,76,127
87686,note_off,0,0,0,,0,,,72,127
87687,note_on,1,0,0,,6,,,78,127
87687,note_on,0,0,0,,2,,,74,127
87905,note_off,218,0,0,,2,,,74,127
87905,note_off,0,0,0,,6,,,78,127
87905,note_off,0,0,0,,0,,,36,127
87905,note_off,0,0,0,,7,,,43,127
87905,note_off,0,0,0,,0,,,48,127
87906,note_on,1,0,0,,0,,,48,127
87906,note_on,0,0,0,,0,,,36,127
87906,note_on,0,0,0,,4,,,76,127
87906,note_on,0,0,0,,7,,,79,127
88124,note_off,218,0,0,,7,,,79,127
88124,note_off,0,0,0,,4,,,76,127
88125,note_on,1,0,0,,6,,,78,127
88125,note_on,0,0,0,,10,,,81,127
88343,note_off,218,0,0,,10,,,81,127
88343,note_off,0,0,0,,6,,,78,127
88343,note_off,0,0,0,,0,,,36,127
88343,note_off,0,0,0,,0,,,48,127
88344,note_on,1,0,0,,7,,,55,127
88344,note_on,0,0,0,,7,,,43,127
88344,note_on,0,0,0,,7,,,79,127
88344,note_on,0,0,0,,11,,,82,127
88562,note_off,218,0,0,,11,,,82,127
88562,note_off,0,0,0,,7,,,79,127
88563,note_on,1,0,0,,10,,,81,127
88563,note_on,0,0,0,,5,,,77,127
88672,note_off,109,0,0,,5,,,77,127
88672,note_off,0,0,0,,10,,,81,127
88673,note_on,1,0,0,,7,,,79,127
88673,note_on,0,0,0,,4,,,76,127
88782,note_off,109,0,0,,4,,,76,127
88782,note_off,0,0,0,,7,,,79,127
88782,note_off,0,0,0,,7,,,43,127
88782,note_off,0,0,0,,7,,,55,127
88783,note_on,1,0,0,,10,,,57,127
88783,note_on,0,0,0,,10,,,81,127
88783,note_on,0,0,0,,5,,,77,127
89001,note_off,218,0,0,,5,,,77,127
89001,note_off,0,0,0,,10,,,81,127
89002,note_on,1,0,0,,7,,,79,127
89002,note_on,0,0,0,,4,,,76,127
89220,note_off,218,0,0,,4,,,76,127
89220,note_off,0,0,0,,7,,,79,127
89220,note_off,0,0,0,,10,,,57,127
89221,note_on,1,0,0,,10,,,45,127
89221,note_on,0,0,0,,2,,,74,127
89221,note_on,0,0,0,,5,,,77,127
89439,note_off,218,0,0,,5,,,77,127
89439,note_off,0,0,0,,2,,,74,127
89440,note_on,1,0,0,,4,,,76,127
89440,note_on,0,0,0,,1,,,73,127
89658,note_off,218,0,0,,1,,,73,127
89658,note_off,0,0,0,,4,,,76,127
89658,note_off,0,0,0,,10,,,45,127
89659,note_on,1,0,0,,2,,,50,127
89659,note_on,0,0,0,,2,,,38,127
89659,note_on,0,0,0,,2,,,74,127
89768,note_off,109,0,0,,2,,,74,127
89769,note_on,1,0,0,,2,,,86,127
89878,note_off,109,0,0,,2,,,86,127
89879,note_on,1,0,0,,6,,,78,127
89988,note_off,109,0,0,,6,,,78,127
89989,note_on,1,0,0,,10,,,81,127
90098,note_off,109,0,0,,10,,,81,127
90098,note_off,0,0,0,,2,,,38,127
90098,note_off,0,0,0,,2,,,50,127
90099,note_on,1,0,0,,2,,,50,127
90099,note_on,0,0,0,,2,,,38,127
90099,note_on,0,0,0,,2,,,74,127
90208,note_off,109,0,0,,2,,,74,127
90209,note_on,1,0,0,,6,,,78,127
90318,note_off,109,0,0,,6,,,78,127
90319,note_on,1,0,0,,10,,,69,127
90428,note_off,109,0,0,,10,,,69,127
90429,note_on,1,0,0,,2,,,74,127
90538,note_off,109,0,0,,2,,,74,127
90538,note_off,0,0,0,,2,,,38,127
90538,note_off,0,0,0,,2,,,50,127
90539,note_on,1,0,0,,2,,,50,127
90539,note_on,0,0,0,,2,,,38,127
90539,note_on,0,0,0,,6,,,66,127
90648,note_off,109,0,0,,6,,,66,127
90649,note_on,1,0,0,,10,,,69,127
90758,note_off,109,0,0,,10,,,69,127
90759,note_on,1,0,0,,2,,,62,127
90868,note_off,109,0,0,,2,,,62,127
90869,note_on,1,0,0,,2,,,74,127
90978,note_off,109,0,0,,2,,,74,127
90978,note_off,0,0,0,,2,,,38,127
90978,note_off,0,0,0,,2,,,50,127
90979,note_on,1,0,0,,7,,,55,127
90979,note_on,0,0,0,,7,,,43,127
90979,note_on,0,0,0,,12,,,71,127
91088,note_off,109,0,0,,12,,,71,127
91089,note_on,1,0,0,,2,,,86,127
91198,note_off,109,0,0,,2,,,86,127
91199,note_on,1,0,0,,12,,,83,127
91308,note_off,109,0,0,,12,,,83,127
91309,note_on,1,0,0,,2,,,86,127
91418,note_off,109,0,0,,2,,,86,127
91418,note_off,0,0,0,,7,,,43,127
91418,note_off,0,0,0,,7,,,55,127
91419,note_on,1,0,0,,7,,,55,127
91419,note_on,0,0,0,,7,,,43,127
91419,note_on,0,0,0,,7,,,79,127
91528,note_off,109,0,0,,7,,,79,127
91529,note_on,1,0,0,,12,,,83,127
91638,note_off,109,0,0,,12,,,83,127
91639,note_on,1,0,0,,2,,,74,127
91748,note_off,109,0,0,,2,,,74,127
91749,note_on,1,0,0,,7,,,79,127
91858,note_off,109,0,0,,7,,,79,127
91858,note_off,0,0,0,,7,,,43,127
91858,note_off,0,0,0,,7,,,55,127
91859,note_on,1,0,0,,7,,,55,127
91859,note_on,0,0,0,,7,,,43,127
91859,note_on,0,0,0,,12,,,71,127
91968,note_off,109,0,0,,12,,,71,127
91969,note_on,1,0,0,,2,,,74,127
92078,note_off,109,0,0,,2,,,74,127
92079,note_on,1,0,0,,7,,,67,127
92188,note_off,109,0,0,,7,,,67,127
92189,note_on,1,0,0,,7,,,79,127
92298,note_off,109,0,0,,7,,,79,127
92298,note_off,0,0,0,,7,,,43,127
92298,note_off,0,0,0,,7,,,55,127
92299,note_on,1,0,0,,2,,,50,127
92299,note_on,0,0,0,,2,,,38,127
92299,note_on,0,0,0,,6,,,78,127
92408,note_off,109,0,0,,6,,,78,127
92409,note_on,1,0,0,,2,,,86,127
92518,note_off,109,0,0,,2,,,86,127
92519,note_on,1,0,0,,6,,,78,127
92628,note_off,109,0,0,,6,,,78,127
92629,note_on,1,0,0,,10,,,81,127
92738,note_off,109,0,0,,10,,,81,127
92738,note_off,0,0,0,,2,,,38,127
92738,note_off,0,0,0,,2,,,50,127
92739,note_on,1,0,0,,2,,,50,127
92739,note_on,0,0,0,,2,,,38,127
92739,note_on,0,0,0,,2,,,74,127
92848,note_off,109,0,0,,2,,,74,127
92849,note_on,1,0,0,,6,,,78,127
92958,note_off,109,0,0,,6,,,78,127
92959,note_on,1,0,0,,10,,,69,127
93068,note_off,109,0,0,,10,,,69,127
93069,note_on,1,0,0,,2,,,74,127
93178,note_off,109,0,0,,2,,,74,127
93178,note_off,0,0,0,,2,,,38,127
93178,note_off,0,0,0,,2,,,50,127
93179,note_on,1,0,0,,2,,,38,127
93179,note_on,0,0,0,,2,,,50,127
93179,note_on,0,0,0,,6,,,66,127
93288,note_off,109,0,0,,6,,,66,127
93289,note_on,1,0,0,,10,,,69,127
93398,note_off,109,0,0,,10,,,69,127
93399,note_on,1,0,0,,2,,,62,127
93508,note_off,109,0,0,,2,,,62,127
93509,note_on,1,0,0,,2,,,74,127
93618,note_off,109,0,0,,2,,,74,127
93618,note_off,0,0,0,,2,,,50,127
93618,note_off,0,0,0,,2,,,38,127
93619,note_on,1,0,0,,7,,,55,127
93619,note_on,0,0,0,,7,,,43,127
93619,note_on,0,0,0,,12,,,71,127
93728,note_off,109,0,0,,12,,,71,127
93729,note_on,1,0,0,,7,,,79,127
93838,note_off,109,0,0,,7,,,79,127
93839,note_on,1,0,0,,6,,,78,127
93948,note_off,109,0,0,,6,,,78,127
93949,note_on,1,0,0,,4,,,76,127
94058,note_off,109,0,0,,4,,,76,127
94058,note_off,0,0,0,,7,,,43,127
94058,note_off,0,0,0,,7,,,55,127
94059,note_on,1,0,0,,10,,,57,127
94059,note_on,0,0,0,,10,,,45,127
94059,note_on,0,0,0,,2,,,74,127
94222,note_off,163,0,0,,2,,,74,127
94223,note_on,1,0,0,,1,,,73,127
94277,note_off,54,0,0,,1,,,73,127
94278,note_on,1,0,0,,2,,,74,127
94332,note_off,54,0,0,,2,,,74,127
94333,note_on,1,0,0,,4,,,76,127
94387,note_off,54,0,0,,4,,,76,127
94388,note_on,1,0,0,,2,,,74,127
94442,note_off,54,0,0,,2,,,74,127
94443,note_on,1,0,0,,4,,,76,127
94497,note_off,54,0,0,,4,,,76,127
94497,note_off,0,0,0,,10,,,45,127
94497,note_off,0,0,0,,10,,,57,127
94498,note_on,1,0,0,,10,,,45,127
94498,note_on,0,0,0,,6,,,78,127
94552,note_off,54,0,0,,6,,,78,127
94553,note_on,1,0,0,,4,,,76,127
94607,note_off,54,0,0,,4,,,76,127
94608,note_on,1,0,0,,6,,,78,127
94662,note_off,54,0,0,,6,,,78,127
94663,note_on,1,0,0,,4,,,76,127
94717,note_off,54,0,0,,4,,,76,127
94718,note_on,1,0,0,,6,,,78,127
94772,note_off,54,0,0,,6,,,78,127
94773,note_on,1,0,0,,4,,,76,127
94827,note_off,54,0,0,,4,,,76,127
94828,note_on,1,0,0,,2,,,74,127
94882,note_off,54,0,0,,2,,,74,127
94883,note_on,1,0,0,,4,,,76,127
94937,note_off,54,0,0,,4,,,76,127
94937,note_off,0,0,0,,10,,,45,127
94938,note_on,1,0,0,,2,,,50,127
94938,note_on,0,0,0,,2,,,74,127
95047,note_off,109,0,0,,2,,,50,127
95048,note_on,1,0,0,,10,,,69,127
95157,note_off,109,0,0,,10,,,69,127
95158,note_on,1,0,0,,6,,,66,127
95267,note_off,109,0,0,,6,,,66,127
95268,note_on,1,0,0,,10,,,69,127
95377,note_off,109,0,0,,10,,,69,127
95378,note_on,1,0,0,,2,,,62,127
95487,note_off,109,0,0,,2,,,62,127
95488,note_on,1,0,0,,6,,,66,127
95597,note_off,109,0,0,,6,,,66,127
95597,note_off,0,0,0,,2,,,74,127
95598,note_on,1,0,0,,10,,,57,127
95707,note_off,109,0,0,,10,,,57,127
95708,note_on,1,0,0,,2,,,62,127
95817,note_off,109,0,0,,2,,,62,127
95818,note_on,1,0,0,,6,,,54,127
95818,note_on,0,0,0,,2,,,86,127
95927,note_off,109,0,0,,6,,,54,127
95928,note_on,1,0,0,,10,,,57,127
96037,note_off,109,0,0,,10,,,57,127
96038,note_on,1,0,0,,2,,,50,127
96147,note_off,109,0,0,,2,,,50,127
96148,note_on,1,0,0,,2,,,62,127
96257,note_off,109,0,0,,2,,,62,127
96257,note_off,0,0,0,,2,,,86,127
96258,note_on,1,0,0,,7,,,55,127
96258,note_on,0,0,0,,12,,,83,127
96258,note_on,0,0,0,,1,,,85,127
96367,note_off,109,0,0,,7,,,55,127
96368,note_on,1,0,0,,7,,,67,127
96477,note_off,109,0,0,,7,,,67,127
96477,note_off,0,0,0,,1,,,85,127
96478,note_on,1,0,0,,2,,,62,127
96587,note_off,109,0,0,,2,,,62,127
96588,note_on,1,0,0,,7,,,67,127
96697,note_off,109,0,0,,7,,,67,127
96698,note_on,1,0,0,,12,,,59,127
96807,note_off,109,0,0,,12,,,59,127
96808,note_on,1,0,0,,2,,,62,127
96917,note_off,109,0,0,,2,,,62,127
96918,note_on,1,0,0,,7,,,55,127
97027,note_off,109,0,0,,7,,,55,127
97028,note_on,1,0,0,,12,,,59,127
97137,note_off,109,0,0,,12,,,59,127
97137,note_off,0,0,0,,12,,,83,127
97138,note_on,1,0,0,,2,,,50,127
97138,note_on,0,0,0,,2,,,86,127
97247,note_off,109,0,0,,2,,,50,127
97248,note_on,1,0,0,,7,,,55,127
97357,note_off,109,0,0,,7,,,55,127
97358,note_on,1,0,0,,7,,,43,127
97467,note_off,109,0,0,,7,,,43,127
97468,note_on,1,0,0,,7,,,55,127
97577,note_off,109,0,0,,7,,,55,127
97577,note_off,0,0,0,,2,,,86,127
97578,note_on,1,0,0,,6,,,54,127
97578,note_on,0,0,0,,10,,,81,127
97578,note_on,0,0,0,,12,,,83,127
97687,note_off,109,0,0,,6,,,54,127
97688,note_on,1,0,0,,10,,,69,127
97797,note_off,109,0,0,,10,,,69,127
97797,note_off,0,0,0,,12,,,83,127
97798,note_on,1,0,0,,6,,,66,127
97907,note_off,109,0,0,,6,,,66,127
97908,note_on,1,0,0,,10,,,69,127
98017,note_off,109,0,0,,10,,,69,127
98018,note_on,1,0,0,,2,,,62,127
98127,note_off,109,0,0,,2,,,62,127
98128,note_on,1,0,0,,6,,,66,127
98237,note_off,109,0,0,,6,,,66,127
98238,note_on,1,0,0,,10,,,57,127
98347,note_off,109,0,0,,10,,,57,127
98348,note_on,1,0,0,,2,,,62,127
98457,note_off,109,0,0,,2,,,62,127
98457,note_off,0,0,0,,10,,,81,127
98458,note_on,1,0,0,,6,,,54,127
98458,note_on,0,0,0,,2,,,86,127
98567,note_off,109,0,0,,6,,,54,127
98568,note_on,1,0,0,,10,,,57,127
98677,note_off,109,0,0,,10,,,57,127
98678,note_on,1,0,0,,2,,,50,127
98787,note_off,109,0,0,,2,,,50,127
98788,note_on,1,0,0,,6,,,54,127
98897,note_off,109,0,0,,6,,,54,127
98898,note_on,1,0,0,,7,,,43,127
99007,note_off,109,0,0,,2,,,86,127
99008,note_on,1,0,0,,12,,,83,127
99117,note_off,109,0,0,,12,,,83,127
99118,note_on,1,0,0,,10,,,81,127
99227,note_off,109,0,0,,10,,,81,127
99228,note_on,1,0,0,,7,,,79,127
99337,note_off,109,0,0,,7,,,79,127
99337,note_off,0,0,0,,7,,,43,127
99338,note_on,1,0,0,,10,,,45,127
99338,note_on,0,0,0,,7,,,79,127
99447,note_off,109,0,0,,7,,,79,127
99448,note_on,1,0,0,,6,,,78,127
99557,note_off,109,0,0,,6,,,78,127
99558,note_on,1,0,0,,4,,,76,127
99667,note_off,109,0,0,,4,,,76,127
99668,note_on,1,0,0,,2,,,74,127
99777,note_off,109,0,0,,2,,,74,127
99777,note_off,0,0,0,,10,,,45,127
99778,note_on,1,0,0,,10,,,45,127
99778,note_on,0,0,0,,6,,,78,127
99887,note_off,109,0,0,,6,,,78,127
99888,note_on,1,0,0,,4,,,76,127
99997,note_off,109,0,0,,4,,,76,127
99998,note_on,1,0,0,,2,,,74,127
100107,note_off,109,0,0,,2,,,74,127
100108,note_on,1,0,0,,1,,,73,127
100217,note_off,109,0,0,,1,,,73,127
100217,note_off,0,0,0,,10,,,45,127
100218,note_on,1,0,0,,2,,,50,127
100218,note_on,0,0,0,,2,,,74,127
100327,note_off,109,0,0,,2,,,50,127
100328,note_on,1,0,0,,10,,,69,127
100437,note_off,109,0,0,,10,,,69,127
100438,note_on,1,0,0,,6,,,66,127
100547,note_off,109,0,0,,6,,,66,127
100548,note_on,1,0,0,,10,,,69,127
100657,note_off,109,0,0,,10,,,69,127
100658,note_on,1,0,0,,2,,,62,127
100767,note_off,109,0,0,,2,,,62,127
100768,note_on,1,0,0,,6,,,66,127
100877,note_off,109,0,0,,6,,,66,127
100878,note_on,1,0,0,,10,,,57,127
100987,note_off,109,0,0,,10,,,57,127
100988,note_on,1,0,0,,2,,,62,127
101097,note_off,109,0,0,,2,,,62,127
101097,note_off,0,0,0,,2,,,74,127
101098,note_on,1,0,0,,6,,,54,127
101098,note_on,0,0,0,,2,,,86,127
101207,note_off,109,0,0,,6,,,54,127
101208,note_on,1,0,0,,10,,,57,127
101317,note_off,109,0,0,,10,,,57,127
101318,note_on,1,0,0,,2,,,50,127
101427,note_off,109,0,0,,2,,,50,127
101428,note_on,1,0,0,,2,,,62,127
101537,note_off,109,0,0,,2,,,62,127
101537,note_off,0,0,0,,2,,,86,127
101538,note_on,1,0,0,,7,,,55,127
101538,note_on,0,0,0,,12,,,83,127
101538,note_on,0,0,0,,1,,,85,127
101647,note_off,109,0,0,,7,,,55,127
101648,note_on,1,0,0,,7,,,67,127
101757,note_off,109,0,0,,7,,,67,127
101757,note_off,0,0,0,,1,,,85,127
101758,note_on,1,0,0,,2,,,62,127
101867,note_off,109,0,0,,2,,,62,127
101868,note_on,1,0,0,,7,,,67,127
101977,note_off,109,0,0,,7,,,67,127
101978,note_on,1,0,0,,12,,,59,127
102087,note_off,109,0,0,,12,,,59,127
102088,note_on,1,0,0,,2,,,62,127
102197,note_off,109,0,0,,2,,,62,127
102198,note_on,1,0,0,,7,,,55,127
102307,note_off,109,0,0,,7,,,55,127
102308,note_on,1,0,0,,12,,,59,127
102417,note_off,109,0,0,,12,,,59,127
102417,note_off,0,0,0,,12,,,83,127
102418,note_on,1,0,0,,2,,,50,127
102418,note_on,0,0,0,,2,,,86,127
102527,note_off,109,0,0,,2,,,50,127
102528,note_on,1,0,0,,7,,,55,127
102637,note_off,109,0,0,,7,,,55,127
102638,note_on,1,0,0,,7,,,43,127
102747,note_off,109,0,0,,7,,,43,127
102748,note_on,1,0,0,,7,,,55,127
102857,note_off,109,0,0,,7,,,55,127
102857,note_off,0,0,0,,2,,,86,127
102858,note_on,1,0,0,,6,,,54,127
102858,note_on,0,0,0,,10,,,81,127
102858,note_on,0,0,0,,12,,,83,127
102967,note_off,109,0,0,,6,,,54,127
102968,note_on,1,0,0,,10,,,69,127
103077,note_off,109,0,0,,10,,,69,127
103077,note_off,0,0,0,,12,,,83,127
103078,note_on,1,0,0,,6,,,66,127
103187,note_off,109,0,0,,6,,,66,127
103188,note_on,1,0,0,,10,,,69,127
103297,note_off,109,0,0,,10,,,69,127
103298,note_on,1,0,0,,2,,,62,127
103407,note_off,109,0,0,,2,,,62,127
103408,note_on,1,0,0,,6,,,66,127
103517,note_off,109,0,0,,6,,,66,127
103518,note_on,1,0,0,,10,,,57,127
103627,note_off,109,0,0,,10,,,57,127
103628,note_on,1,0,0,,2,,,62,127
103737,note_off,109,0,0,,2,,,62,127
103737,note_off,0,0,0,,10,,,81,127
103738,note_on,1,0,0,,6,,,54,127
103738,note_on,0,0,0,,2,,,86,127
103847,note_off,109,0,0,,6,,,54,127
103848,note_on,1,0,0,,10,,,57,127
103957,note_off,109,0,0,,10,,,57,127
103958,note_on,1,0,0,,2,,,50,127
104067,note_off,109,0,0,,2,,,50,127
104068,note_on,1,0,0,,6,,,54,127
104177,note_off,109,0,0,,6,,,54,127
104178,note_on,1,0,0,,7,,,43,127
104287,note_off,109,0,0,,2,,,86,127
104288,note_on,1,0,0,,12,,,83,127
104397,note_off,109,0,0,,12,,,83,127
104398,note_on,1,0,0,,10,,,81,127
104507,note_off,109,0,0,,10,,,81,127
104508,note_on,1,0,0,,7,,,79,127
104617,note_off,109,0,0,,7,,,79,127
104617,note_off,0,0,0,,7,,,43,127
104618,note_on,1,0,0,,10,,,45,127
104618,note_on,0,0,0,,7,,,79,127
104727,note_off,109,0,0,,7,,,79,127
104728,note_on,1,0,0,,6,,,78,127
104837,note_off,109,0,0,,6,,,78,127
104838,note_on,1,0,0,,4,,,76,127
104947,note_off,109,0,0,,4,,,76,127
104948,note_on,1,0,0,,2,,,74,127
105057,note_off,109,0,0,,2,,,74,127
105057,note_off,0,0,0,,10,,,45,127
105058,note_on,1,0,0,,10,,,45,127
105058,note_on,0,0,0,,6,,,78,127
105167,note_off,109,0,0,,6,,,78,127
105168,note_on,1,0,0,,4,,,76,127
105277,note_off,109,0,0,,4,,,76,127
105278,note_on,1,0,0,,2,,,74,127
105387,note_off,109,0,0,,2,,,74,127
105388,note_on,1,0,0,,1,,,73,127
105497,note_off,109,0,0,,1,,,73,127
105497,note_off,0,0,0,,10,,,45,127
105498,note_on,1,0,0,,2,,,38,127
105498,note_on,0,0,0,,2,,,50,127
105498,note_on,0,0,0,,2,,,74,127
105716,note_off,218,0,0,,2,,,74,127
105717,note_on,1,0,0,,6,,,78,127
105717,note_on,0,0,0,,2,,,74,127
105826,note_off,109,0,0,,2,,,74,127
105826,note_off,0,0,0,,6,,,78,127
105827,note_on,1,0,0,,4,,,76,127
105827,note_on,0,0,0,,7,,,79,127
105936,note_off,109,0,0,,7,,,79,127
105936,note_off,0,0,0,,4,,,76,127
105936,note_off,0,0,0,,2,,,50,127
105936,note_off,0,0,0,,2,,,38,127
105937,note_on,1,0,0,,2,,,38,127
105937,note_on,0,0,0,,2,,,50,127
105937,note_on,0,0,0,,10,,,81,127
105937,note_on,0,0,0,,6,,,78,127
106155,note_off,218,0,0,,6,,,78,127
106155,note_off,0,0,0,,10,,,81,127
106156,note_on,1,0,0,,12,,,83,127
106156,note_on,0,0,0,,7,,,79,127
106374,note_off,218,0,0,,7,,,79,127
106374,note_off,0,0,0,,12,,,83,127
106374,note_off,0,0,0,,2,,,50,127
106374,note_off,0,0,0,,2,,,38,127
106375,note_on,1,0,0,,10,,,57,127
106375,note_on,0,0,0,,10,,,45,127
106375,note_on,0,0,0,,10,,,81,127
106375,note_on,0,0,0,,6,,,78,127
106593,note_off,218,0,0,,6,,,78,127
106593,note_off,0,0,0,,10,,,81,127
106594,note_on,1,0,0,,4,,,76,127
106594,note_on,0,0,0,,7,,,79,127
106812,note_off,218,0,0,,7,,,79,127
106812,note_off,0,0,0,,4,,,76,127
106812,note_off,0,0,0,,10,,,45,127
106812,note_off,0,0,0,,10,,,57,127
106813,note_on,1,0,0,,2,,,50,127
106813,note_on,0,0,0,,2,,,38,127
106813,note_on,0,0,0,,2,,,74,127
106813,note_on,0,0,0,,6,,,78,127
107031,note_off,218,0,0,,6,,,78,127
107031,note_off,0,0,0,,2,,,74,127
107032,note_on,1,0,0,,4,,,76,127
107032,note_on,0,0,0,,1,,,73,127
107141,note_off,109,0,0,,1,,,73,127
107141,note_off,0,0,0,,4,,,76,127
107142,note_on,1,0,0,,2,,,74,127
107142,note_on,0,0,0,,6,,,78,127
107251,note_off,109,0,0,,6,,,78,127
107251,note_off,0,0,0,,2,,,74,127
107251,note_off,0,0,0,,2,,,38,127
107251,note_off,0,0,0,,2,,,50,127
107252,note_on,1,0,0,,7,,,43,127
107252,note_on,0,0,0,,7,,,55,127
107252,note_on,0,0,0,,4,,,76,127
107252,note_on,0,0,0,,7,,,79,127
107470,note_off,218,0,0,,7,,,79,127
107470,note_off,0,0,0,,4,,,76,127
107471,note_on,1,0,0,,6,,,78,127
107471,note_on,0,0,0,,2,,,74,127
107689,note_off,218,0,0,,7,,,55,127
107689,note_off,0,0,0,,7,,,43,127
107690,note_on,1,0,0,,10,,,57,127
107690,note_on,0,0,0,,10,,,45,127
107908,note_off,218,0,0,,2,,,74,127
107908,note_off,0,0,0,,6,,,78,127
107909,note_on,1,0,0,,1,,,73,127
107909,note_on,0,0,0,,4,,,76,127
108127,note_off,218,0,0,,4,,,76,127
108127,note_off,0,0,0,,1,,,73,127
108127,note_off,0,0,0,,10,,,45,127
108127,note_off,0,0,0,,10,,,57,127
108128,note_on,1,0,0,,2,,,38,127
108128,note_on,0,0,0,,2,,,50,127
108128,note_on,0,0,0,,6,,,78,127
108128,note_on,0,0,0,,2,,,74,127
108237,note_off,109,0,0,,2,,,74,127
108237,note_off,0,0,0,,6,,,78,127
108238,note_on,1,0,0,,4,,,76,127
108238,note_on,0,0,0,,1,,,73,127
108347,note_off,109,0,0,,1,,,73,127
108347,note_off,0,0,0,,4,,,76,127
108348,note_on,1,0,0,,6,,,78,127
108348,note_on,0,0,0,,2,,,74,127
108457,note_off,109,0,0,,2,,,74,127
108457,note_off,0,0,0,,6,,,78,127
108458,note_on,1,0,0,,4,,,76,127
108458,note_on,0,0,0,,7,,,79,127
108567,note_off,109,0,0,,7,,,79,127
108567,note_off,0,0,0,,4,,,76,127
108567,note_off,0,0,0,,2,,,50,127
108567,note_off,0,0,0,,2,,,38,127
108568,note_on,1,0,0,,2,,,50,127
108568,note_on,0,0,0,,2,,,38,127
108568,note_on,0,0,0,,2,,,74,127
108568,note_on,0,0,0,,6,,,78,127
108677,note_off,109,0,0,,6,,,78,127
108677,note_off,0,0,0,,2,,,74,127
108678,note_on,1,0,0,,7,,,79,127
108678,note_on,0,0,0,,4,,,76,127
108787,note_off,109,0,0,,4,,,76,127
108787,note_off,0,0,0,,7,,,79,127
108788,note_on,1,0,0,,10,,,81,127
108788,note_on,0,0,0,,6,,,78,127
108897,note_off,109,0,0,,6,,,78,127
108897,note_off,0,0,0,,10,,,81,127
108898,note_on,1,0,0,,7,,,79,127
108898,note_on,0,0,0,,12,,,83,127
109007,note_off,109,0,0,,12,,,83,127
109007,note_off,0,0,0,,7,,,79,127
109007,note_off,0,0,0,,2,,,38,127
109007,note_off,0,0,0,,2,,,50,127
109008,note_on,1,0,0,,10,,,57,127
109008,note_on,0,0,0,,10,,,45,127
109008,note_on,0,0,0,,10,,,81,127
109008,note_on,0,0,0,,6,,,78,127
109117,note_off,109,0,0,,6,,,78,127
109117,note_off,0,0,0,,10,,,81,127
109118,note_on,1,0,0,,4,,,76,127
109118,note_on,0,0,0,,7,,,79,127
109227,note_off,109,0,0,,7,,,79,127
109227,note_off,0,0,0,,4,,,76,127
109228,note_on,1,0,0,,6,,,78,127
109228,note_on,0,0,0,,2,,,74,127
109337,note_off,109,0,0,,2,,,74,127
109337,note_off,0,0,0,,6,,,78,127
109338,note_on,1,0,0,,1,,,73,127
109338,note_on,0,0,0,,4,,,76,127
109447,note_off,109,0,0,,4,,,76,127
109447,note_off,0,0,0,,1,,,73,127
109447,note_off,0,0,0,,10,,,45,127
109447,note_off,0,0,0,,10,,,57,127
109448,note_on,1,0,0,,2,,,50,127
109448,note_on,0,0,0,,2,,,38,127
109448,note_on,0,0,0,,2,,,74,127
109448,note_on,0,0,0,,6,,,78,127
109557,note_off,109,0,0,,6,,,78,127
109557,note_off,0,0,0,,2,,,74,127
109558,note_on,1,0,0,,4,,,76,127
109558,note_on,0,0,0,,1,,,73,127
109667,note_off,109,0,0,,1,,,73,127
109667,note_off,0,0,0,,4,,,76,127
109668,note_on,1,0,0,,6,,,78,127
109668,note_on,0,0,0,,2,,,74,127
109777,note_off,109,0,0,,2,,,74,127
109777,note_off,0,0,0,,6,,,78,127
109778,note_on,1,0,0,,4,,,76,127
109778,note_on,0,0,0,,7,,,79,127
109887,note_off,109,0,0,,7,,,79,127
109887,note_off,0,0,0,,4,,,76,127
109887,note_off,0,0,0,,2,,,38,127
109887,note_off,0,0,0,,2,,,50,127
109888,note_on,1,0,0,,2,,,50,127
109888,note_on,0,0,0,,2,,,38,127
109888,note_on,0,0,0,,2,,,74,127
109888,note_on,0,0,0,,6,,,78,127
109997,note_off,109,0,0,,6,,,78,127
109997,note_off,0,0,0,,2,,,74,127
109998,note_on,1,0,0,,7,,,79,127
109998,note_on,0,0,0,,4,,,76,127
110107,note_off,109,0,0,,4,,,76,127
110107,note_off,0,0,0,,7,,,79,127
110108,note_on,1,0,0,,6,,,78,127
110108,note_on,0,0,0,,10,,,81,127
110217,note_off,109,0,0,,10,,,81,127
110217,note_off,0,0,0,,6,,,78,127
110218,note_on,1,0,0,,7,,,79,127
110218,note_on,0,0,0,,12,,,83,127
110327,note_off,109,0,0,,12,,,83,127
110327,note_off,0,0,0,,7,,,79,127
110327,note_off,0,0,0,,2,,,38,127
110327,note_off,0,0,0,,2,,,50,127
110328,note_on,1,0,0,,10,,,57,127
110328,note_on,0,0,0,,10,,,45,127
110328,note_on,0,0,0,,6,,,78,127
110328,note_on,0,0,0,,10,,,81,127
110437,note_off,109,0,0,,10,,,81,127
110437,note_off,0,0,0,,6,,,78,127
110438,note_on,1,0,0,,7,,,79,127
110438,note_on,0,0,0,,4,,,76,127
110547,note_off,109,0,0,,4,,,76,127
110547,note_off,0,0,0,,7,,,79,127
110548,note_on,1,0,0,,2,,,74,127
110548,note_on,0,0,0,,6,,,78,127
110657,note_off,109,0,0,,6,,,78,127
110657,note_off,0,0,0,,2,,,74,127
110658,note_on,1,0,0,,1,,,73,127
110658,note_on,0,0,0,,4,,,76,127
110767,note_off,109,0,0,,4,,,76,127
110767,note_off,0,0,0,,1,,,73,127
110767,note_off,0,0,0,,10,,,45,127
110767,note_off,0,0,0,,10,,,57,127
110768,note_on,1,0,0,,2,,,50,127
110768,note_on,0,0,0,,2,,,38,127
110768,note_on,0,0,0,,2,,,74,127
110768,note_on,0,0,0,,6,,,78,127
110986,note_off,218,0,0,,6,,,78,127
110986,note_off,0,0,0,,2,,,74,127
110987,note_on,1,0,0,,1,,,73,127
110987,note_on,0,0,0,,4,,,76,127
111096,note_off,109,0,0,,4,,,76,127
111096,note_off,0,0,0,,1,,,73,127
111097,note_on,1,0,0,,6,,,78,127
111097,note_on,0,0,0,,2,,,74,127
111206,note_off,109,0,0,,2,,,74,127
111206,note_off,0,0,0,,6,,,78,127
111206,note_off,0,0,0,,2,,,38,127
111206,note_off,0,0,0,,2,,,50,127
111207,note_on,1,0,0,,7,,,55,127
111207,note_on,0,0,0,,7,,,43,127
111207,note_on,0,0,0,,7,,,79,127
111207,note_on,0,0,0,,4,,,76,127
111425,note_off,218,0,0,,4,,,76,127
111425,note_off,0,0,0,,7,,,79,127
111426,note_on,1,0,0,,2,,,74,127
111426,note_on,0,0,0,,6,,,78,127
111644,note_off,218,0,0,,7,,,43,127
111644,note_off,0,0,0,,7,,,55,127
111645,note_on,1,0,0,,10,,,57,127
111645,note_on,0,0,0,,10,,,45,127
111863,note_off,218,0,0,,6,,,78,127
111863,note_off,0,0,0,,2,,,74,127
111864,note_on,1,0,0,,4,,,76,127
111864,note_on,0,0,0,,1,,,73,127
112082,note_off,218,0,0,,1,,,73,127
112082,note_off,0,0,0,,4,,,76,127
112082,note_off,0,0,0,,10,,,45,127
112082,note_off,0,0,0,,10,,,57,127
112083,note_on,1,0,0,,2,,,50,127
112083,note_on,0,0,0,,2,,,38,127
112083,note_on,0,0,0,,2,,,74,127
112192,note_off,109,0,0,,2,,,74,127
112193,note_on,1,0,0,,2,,,86,127
112302,note_off,109,0,0,,2,,,86,127
112303,note_on,1,0,0,,10,,,81,127
112412,note_off,109,0,0,,10,,,81,127
112413,note_on,1,0,0,,6,,,78,127
112522,note_off,109,0,0,,6,,,78,127
112523,note_on,1,0,0,,2,,,74,127
112632,note_off,109,0,0,,2,,,74,127
112633,note_on,1,0,0,,10,,,69,127
112742,note_off,109,0,0,,10,,,69,127
112743,note_on,1,0,0,,6,,,66,127
112852,note_off,109,0,0,,6,,,66,127
112853,note_on,1,0,0,,2,,,62,127
112962,note_off,109,0,0,,2,,,62,127
112962,note_off,0,0,0,,2,,,38,127
112962,note_off,0,0,0,,2,,,50,127
112963,note_on,1,0,0,,2,,,62,127
113072,note_off,109,0,0,,2,,,62,127
113073,note_on,1,0,0,,10,,,57,127
113182,note_off,109,0,0,,10,,,57,127
113183,note_on,1,0,0,,6,,,54,127
113292,note_off,109,0,0,,6,,,54,127
113293,note_on,1,0,0,,2,,,50,127
113421,note_on,128,0,0,,2,,,38,127
115487,note_off,2066,0,0,,2,,,38,127
115487,note_off,0,0,0,,2,,,50,127
116736,end_of_track,1249,1,0,,,,,,
