tick,type,time,meta,track,program,channel,pitch,tempo,note,velocity
0,copyright,0,1,0,,,,,,
0,program_change,0,0,0,6,0,,,,
0,pitchwheel,0,0,0,,0,0,,,
0,program_change,0,0,0,6,1,,,,
0,pitchwheel,0,0,0,,1,-590,,,
0,program_change,0,0,0,6,2,,,,
0,pitchwheel,0,0,0,,2,-272,,,
0,program_change,0,0,0,6,3,,,,
0,pitchwheel,0,0,0,,3,-353,,,
0,program_change,0,0,0,6,4,,,,
0,pitchwheel,0,0,0,,4,-560,,,
0,program_change,0,0,0,6,5,,,,
0,pitchwheel,0,0,0,,5,-80,,,
0,program_change,0,0,0,6,6,,,,
0,pitchwheel,0,0,0,,6,-625,,,
0,program_change,0,0,0,6,7,,,,
0,pitchwheel,0,0,0,,7,-130,,,
0,program_change,0,0,0,6,8,,,,
0,pitchwheel,0,0,0,,8,-512,,,
0,program_change,0,0,0,6,10,,,,
0,pitchwheel,0,0,0,,10,-464,,,
0,program_change,0,0,0,6,11,,,,
0,pitchwheel,0,0,0,,11,-208,,,
0,program_change,0,0,0,6,12,,,,
0,pitchwheel,0,0,0,,12,-553,,,
0,set_tempo,0,1,0,,,,500000,,
76,note_on,76,0,0,,2,,,74,127
76,note_on,0,0,0,,6,,,66,127
76,note_on,0,0,0,,2,,,62,127
209,note_off,133,0,0,,2,,,62,127
209,note_off,0,0,0,,6,,,66,127
230,note_on,21,0,0,,7,,,67,127
230,note_on,0,0,0,,4,,,64,127
363,note_off,133,0,0,,4,,,64,127
363,note_off,0,0,0,,7,,,67,127
384,note_on,21,0,0,,10,,,69,127
384,note_on,0,0,0,,6,,,66,127
517,note_off,133,0,0,,6,,,66,127
517,note_off,0,0,0,,10,,,69,127
536,note_off,19,0,0,,2,,,74,127
537,note_on,1,0,0,,2,,,74,127
537,note_on,0,0,0,,6,,,78,127
670,note_off,133,0,0,,6,,,78,127
670,note_off,0,0,0,,2,,,74,127
691,note_on,21,0,0,,4,,,76,127
691,note_on,0,0,0,,7,,,79,127
824,note_off,133,0,0,,7,,,79,127
824,note_off,0,0,0,,4,,,76,127
844,note_on,20,0,0,,10,,,81,127
844,note_on,0,0,0,,6,,,78,127
977,note_off,133,0,0,,6,,,78,127
977,note_off,0,0,0,,10,,,81,127
998,note_on,21,0,0,,2,,,62,127
998,note_on,0,0,0,,6,,,66,127
998,note_on,0,0,0,,2,,,74,127
1131,note_off,133,0,0,,6,,,66,127
1131,note_off,0,0,0,,2,,,62,127
1152,note_on,21,0,0,,4,,,64,127
1152,note_on,0,0,0,,7,,,67,127
1285,note_off,133,0,0,,7,,,67,127
1285,note_off,0,0,0,,4,,,64,127
1305,note_on,20,0,0,,6,,,66,127
1305,note_on,0,0,0,,10,,,69,127
1438,note_off,133,0,0,,10,,,69,127
1438,note_off,0,0,0,,6,,,66,127
1458,note_off,20,0,0,,2,,,74,127
1459,note_on,1,0,0,,2,,,74,127
1459,note_on,0,0,0,,6,,,78,127
1592,note_off,133,0,0,,6,,,78,127
1592,note_off,0,0,0,,2,,,74,127
1612,note_on,20,0,0,,4,,,76,127
1612,note_on,0,0,0,,7,,,79,127
1745,note_off,133,0,0,,7,,,79,127
1745,note_off,0,0,0,,4,,,76,127
1766,note_on,21,0,0,,6,,,78,127
1766,note_on,0,0,0,,10,,,81,127
1899,note_off,133,0,0,,10,,,81,127
1899,note_off,0,0,0,,6,,,78,127
1920,note_on,21,0,0,,1,,,73,127
1920,note_on,0,0,0,,12,,,71,127
1920,note_on,0,0,0,,7,,,55,127
1920,note_on,0,0,0,,7,,,67,127
1996,note_off,76,0,0,,1,,,73,127
2072,note_off,76,0,0,,7,,,67,127
2072,note_off,0,0,0,,12,,,71,127
2073,note_on,1,0,0,,6,,,66,127
2073,note_on,0,0,0,,1,,,73,127
2225,note_off,152,0,0,,1,,,73,127
2225,note_off,0,0,0,,6,,,66,127
2227,note_on,2,0,0,,4,,,64,127
2227,note_on,0,0,0,,2,,,74,127
2379,note_off,152,0,0,,2,,,74,127
2379,note_off,0,0,0,,4,,,64,127
2380,note_off,1,0,0,,7,,,55,127
2380,note_on,0,0,0,,10,,,57,127
2380,note_on,0,0,0,,7,,,67,127
2380,note_on,0,0,0,,4,,,76,127
2380,note_on,0,0,0,,6,,,78,127
2456,note_off,76,0,0,,6,,,78,127
2532,note_off,76,0,0,,4,,,76,127
2532,note_off,0,0,0,,7,,,67,127
2534,note_on,2,0,0,,6,,,66,127
2534,note_on,0,0,0,,2,,,74,127
2686,note_off,152,0,0,,2,,,74,127
2686,note_off,0,0,0,,6,,,66,127
2688,note_on,2,0,0,,1,,,73,127
2688,note_on,0,0,0,,4,,,64,127
2840,note_off,152,0,0,,4,,,64,127
2840,note_off,0,0,0,,1,,,73,127
2840,note_off,0,0,0,,10,,,57,127
2841,note_on,1,0,0,,2,,,62,127
2841,note_on,0,0,0,,2,,,74,127
2993,note_off,152,0,0,,2,,,74,127
2995,note_on,2,0,0,,2,,,86,127
3147,note_off,152,0,0,,2,,,86,127
3148,note_on,1,0,0,,10,,,81,127
3300,note_off,152,0,0,,10,,,81,127
3302,note_on,2,0,0,,6,,,78,127
3454,note_off,152,0,0,,6,,,78,127
3456,note_on,2,0,0,,2,,,74,127
3608,note_off,152,0,0,,2,,,74,127
3609,note_on,1,0,0,,10,,,69,127
3761,note_off,152,0,0,,10,,,69,127
3761,note_off,0,0,0,,2,,,62,127
3763,note_on,2,0,0,,2,,,62,127
3763,note_on,0,0,0,,6,,,66,127
3763,note_on,0,0,0,,2,,,74,127
3896,note_off,133,0,0,,6,,,66,127
3896,note_off,0,0,0,,2,,,62,127
3916,note_on,20,0,0,,4,,,64,127
3916,note_on,0,0,0,,7,,,67,127
4049,note_off,133,0,0,,7,,,67,127
4049,note_off,0,0,0,,4,,,64,127
4070,note_on,21,0,0,,6,,,66,127
4070,note_on,0,0,0,,10,,,69,127
4203,note_off,133,0,0,,10,,,69,127
4203,note_off,0,0,0,,6,,,66,127
4223,note_off,20,0,0,,2,,,74,127
4224,note_on,1,0,0,,2,,,74,127
4224,note_on,0,0,0,,6,,,78,127
4357,note_off,133,0,0,,6,,,78,127
4357,note_off,0,0,0,,2,,,74,127
4377,note_on,20,0,0,,4,,,76,127
4377,note_on,0,0,0,,7,,,79,127
4510,note_off,133,0,0,,7,,,79,127
4510,note_off,0,0,0,,4,,,76,127
4531,note_on,21,0,0,,6,,,78,127
4531,note_on,0,0,0,,10,,,81,127
4664,note_off,133,0,0,,10,,,81,127
4664,note_off,0,0,0,,6,,,78,127
4684,note_on,20,0,0,,2,,,62,127
4684,note_on,0,0,0,,6,,,66,127
4684,note_on,0,0,0,,2,,,74,127
4817,note_off,133,0,0,,6,,,66,127
4817,note_off,0,0,0,,2,,,62,127
4838,note_on,21,0,0,,4,,,64,127
4838,note_on,0,0,0,,7,,,67,127
4971,note_off,133,0,0,,7,,,67,127
4971,note_off,0,0,0,,4,,,64,127
4992,note_on,21,0,0,,6,,,66,127
4992,note_on,0,0,0,,10,,,69,127
5125,note_off,133,0,0,,10,,,69,127
5125,note_off,0,0,0,,6,,,66,127
5144,note_off,19,0,0,,2,,,74,127
5145,note_on,1,0,0,,2,,,74,127
5145,note_on,0,0,0,,6,,,78,127
5278,note_off,133,0,0,,6,,,78,127
5278,note_off,0,0,0,,2,,,74,127
5299,note_on,21,0,0,,4,,,76,127
5299,note_on,0,0,0,,7,,,79,127
5432,note_off,133,0,0,,7,,,79,127
5432,note_off,0,0,0,,4,,,76,127
5452,note_on,20,0,0,,6,,,78,127
5452,note_on,0,0,0,,10,,,81,127
5585,note_off,133,0,0,,10,,,81,127
5585,note_off,0,0,0,,6,,,78,127
5606,note_on,21,0,0,,7,,,55,127
5606,note_on,0,0,0,,7,,,67,127
5606,note_on,0,0,0,,12,,,71,127
5606,note_on,0,0,0,,1,,,73,127
5682,note_off,76,0,0,,1,,,73,127
5758,note_off,76,0,0,,12,,,71,127
5758,note_off,0,0,0,,7,,,67,127
5760,note_on,2,0,0,,6,,,66,127
5760,note_on,0,0,0,,1,,,73,127
5912,note_off,152,0,0,,1,,,73,127
5912,note_off,0,0,0,,6,,,66,127
5913,note_on,1,0,0,,4,,,64,127
5913,note_on,0,0,0,,2,,,74,127
6065,note_off,152,0,0,,2,,,74,127
6065,note_off,0,0,0,,4,,,64,127
6066,note_off,1,0,0,,7,,,55,127
6067,note_on,1,0,0,,10,,,57,127
6067,note_on,0,0,0,,7,,,67,127
6067,note_on,0,0,0,,4,,,76,127
6067,note_on,0,0,0,,6,,,78,127
6143,note_off,76,0,0,,6,,,78,127
6219,note_off,76,0,0,,4,,,76,127
6219,note_off,0,0,0,,7,,,67,127
6220,note_on,1,0,0,,6,,,66,127
6220,note_on,0,0,0,,2,,,74,127
6372,note_off,152,0,0,,2,,,74,127
6372,note_off,0,0,0,,6,,,66,127
6374,note_on,2,0,0,,4,,,64,127
6374,note_on,0,0,0,,1,,,73,127
6526,note_off,152,0,0,,1,,,73,127
6526,note_off,0,0,0,,4,,,64,127
6527,note_off,1,0,0,,10,,,57,127
6528,note_on,1,0,0,,2,,,62,127
6528,note_on,0,0,0,,2,,,74,127
6680,note_off,152,0,0,,2,,,74,127
6681,note_on,1,0,0,,2,,,86,127
6833,note_off,152,0,0,,2,,,86,127
6835,note_on,2,0,0,,10,,,81,127
6987,note_off,152,0,0,,10,,,81,127
6988,note_on,1,0,0,,6,,,78,127
7140,note_off,152,0,0,,6,,,78,127
7142,note_on,2,0,0,,2,,,74,127
7294,note_off,152,0,0,,2,,,74,127
7296,note_on,2,0,0,,10,,,69,127
7448,note_off,152,0,0,,10,,,69,127
7448,note_off,0,0,0,,2,,,62,127
7449,note_on,1,0,0,,6,,,78,127
7449,note_on,0,0,0,,2,,,74,127
7449,note_on,0,0,0,,2,,,62,127
7601,note_off,152,0,0,,2,,,62,127
7603,note_on,2,0,0,,4,,,64,127
7755,note_off,152,0,0,,4,,,64,127
7755,note_off,0,0,0,,2,,,74,127
7755,note_off,0,0,0,,6,,,78,127
7756,note_on,1,0,0,,6,,,66,127
7756,note_on,0,0,0,,1,,,73,127
7756,note_on,0,0,0,,4,,,76,127
7908,note_off,152,0,0,,4,,,76,127
7908,note_off,0,0,0,,1,,,73,127
7908,note_off,0,0,0,,6,,,66,127
7910,note_on,2,0,0,,7,,,67,127
7910,note_on,0,0,0,,4,,,76,127
7910,note_on,0,0,0,,1,,,73,127
7910,note_on,0,0,0,,12,,,71,127
7910,note_on,0,0,0,,2,,,74,127
7947,note_off,37,0,0,,1,,,73,127
7947,note_off,0,0,0,,4,,,76,127
8062,note_off,115,0,0,,2,,,74,127
8062,note_off,0,0,0,,12,,,71,127
8064,note_on,2,0,0,,11,,,70,127
8064,note_on,0,0,0,,1,,,73,127
8216,note_off,152,0,0,,1,,,73,127
8216,note_off,0,0,0,,11,,,70,127
8217,note_on,1,0,0,,12,,,71,127
8217,note_on,0,0,0,,2,,,74,127
8369,note_off,152,0,0,,2,,,74,127
8369,note_off,0,0,0,,12,,,71,127
8370,note_off,1,0,0,,7,,,67,127
8371,note_on,1,0,0,,1,,,61,127
8371,note_on,0,0,0,,1,,,73,127
8371,note_on,0,0,0,,4,,,76,127
8523,note_off,152,0,0,,1,,,61,127
8524,note_on,1,0,0,,2,,,62,127
8676,note_off,152,0,0,,2,,,62,127
8677,note_off,1,0,0,,4,,,76,127
8677,note_off,0,0,0,,1,,,73,127
8678,note_on,1,0,0,,12,,,71,127
8678,note_on,0,0,0,,2,,,74,127
8678,note_on,0,0,0,,4,,,64,127
8830,note_off,152,0,0,,4,,,64,127
8830,note_off,0,0,0,,2,,,74,127
8830,note_off,0,0,0,,12,,,71,127
8832,note_on,2,0,0,,11,,,70,127
8832,note_on,0,0,0,,1,,,73,127
8832,note_on,0,0,0,,12,,,71,127
8832,note_on,0,0,0,,2,,,74,127
8832,note_on,0,0,0,,6,,,66,127
8869,note_off,37,0,0,,2,,,74,127
8869,note_off,0,0,0,,12,,,71,127
8984,note_off,115,0,0,,1,,,73,127
8984,note_off,0,0,0,,11,,,70,127
8985,note_on,1,0,0,,12,,,71,127
8985,note_on,0,0,0,,8,,,68,127
9137,note_off,152,0,0,,8,,,68,127
9137,note_off,0,0,0,,12,,,71,127
9139,note_on,2,0,0,,1,,,73,127
9139,note_on,0,0,0,,11,,,70,127
9291,note_off,152,0,0,,11,,,70,127
9291,note_off,0,0,0,,1,,,73,127
9292,note_off,1,0,0,,6,,,66,127
9292,note_on,0,0,0,,2,,,62,127
9292,note_on,0,0,0,,2,,,74,127
9292,note_on,0,0,0,,6,,,78,127
9444,note_off,152,0,0,,2,,,62,127
9446,note_on,2,0,0,,4,,,64,127
9598,note_off,152,0,0,,4,,,64,127
9598,note_off,0,0,0,,6,,,78,127
9598,note_off,0,0,0,,2,,,74,127
9600,note_on,2,0,0,,6,,,66,127
9600,note_on,0,0,0,,1,,,73,127
9600,note_on,0,0,0,,4,,,76,127
9752,note_off,152,0,0,,4,,,76,127
9752,note_off,0,0,0,,1,,,73,127
9752,note_off,0,0,0,,6,,,66,127
9753,note_on,1,0,0,,7,,,67,127
9753,note_on,0,0,0,,12,,,71,127
9753,note_on,0,0,0,,1,,,73,127
9753,note_on,0,0,0,,2,,,74,127
9753,note_on,0,0,0,,4,,,76,127
9790,note_off,37,0,0,,4,,,76,127
9790,note_off,0,0,0,,1,,,73,127
9905,note_off,115,0,0,,2,,,74,127
9905,note_off,0,0,0,,12,,,71,127
9907,note_on,2,0,0,,11,,,70,127
9907,note_on,0,0,0,,1,,,73,127
10059,note_off,152,0,0,,1,,,73,127
10059,note_off,0,0,0,,11,,,70,127
10060,note_on,1,0,0,,12,,,71,127
10060,note_on,0,0,0,,2,,,74,127
10212,note_off,152,0,0,,2,,,74,127
10212,note_off,0,0,0,,12,,,71,127
10213,note_off,1,0,0,,7,,,67,127
10214,note_on,1,0,0,,1,,,61,127
10214,note_on,0,0,0,,1,,,73,127
10214,note_on,0,0,0,,4,,,76,127
10366,note_off,152,0,0,,1,,,61,127
10368,note_on,2,0,0,,2,,,62,127
10520,note_off,152,0,0,,2,,,62,127
10520,note_off,0,0,0,,4,,,76,127
10520,note_off,0,0,0,,1,,,73,127
10521,note_on,1,0,0,,4,,,64,127
10521,note_on,0,0,0,,12,,,71,127
10521,note_on,0,0,0,,2,,,74,127
10673,note_off,152,0,0,,2,,,74,127
10673,note_off,0,0,0,,12,,,71,127
10673,note_off,0,0,0,,4,,,64,127
10675,note_on,2,0,0,,6,,,66,127
10675,note_on,0,0,0,,11,,,70,127
10675,note_on,0,0,0,,12,,,71,127
10675,note_on,0,0,0,,1,,,73,127
10675,note_on,0,0,0,,2,,,74,127
10712,note_off,37,0,0,,2,,,74,127
10712,note_off,0,0,0,,12,,,71,127
10827,note_off,115,0,0,,1,,,73,127
10827,note_off,0,0,0,,11,,,70,127
10828,note_on,1,0,0,,8,,,68,127
10828,note_on,0,0,0,,12,,,71,127
10980,note_off,152,0,0,,12,,,71,127
10980,note_off,0,0,0,,8,,,68,127
10982,note_on,2,0,0,,11,,,70,127
10982,note_on,0,0,0,,1,,,73,127
11134,note_off,152,0,0,,1,,,73,127
11134,note_off,0,0,0,,11,,,70,127
11135,note_off,1,0,0,,6,,,66,127
11136,note_on,1,0,0,,12,,,59,127
11136,note_on,0,0,0,,12,,,71,127
11136,note_on,0,0,0,,2,,,74,127
11288,note_off,152,0,0,,12,,,59,127
11289,note_on,1,0,0,,1,,,61,127
11441,note_off,152,0,0,,1,,,61,127
11442,note_off,1,0,0,,2,,,74,127
11442,note_off,0,0,0,,12,,,71,127
11443,note_on,1,0,0,,10,,,69,127
11443,note_on,0,0,0,,2,,,62,127
11443,note_on,0,0,0,,1,,,73,127
11595,note_off,152,0,0,,1,,,73,127
11595,note_off,0,0,0,,2,,,62,127
11595,note_off,0,0,0,,10,,,69,127
11596,note_on,1,0,0,,12,,,71,127
11596,note_on,0,0,0,,10,,,69,127
11596,note_on,0,0,0,,8,,,68,127
11596,note_on,0,0,0,,1,,,73,127
11596,note_on,0,0,0,,4,,,64,127
11633,note_off,37,0,0,,1,,,73,127
11633,note_off,0,0,0,,10,,,69,127
11748,note_off,115,0,0,,8,,,68,127
11748,note_off,0,0,0,,12,,,71,127
11750,note_on,2,0,0,,6,,,66,127
11750,note_on,0,0,0,,10,,,69,127
11902,note_off,152,0,0,,10,,,69,127
11902,note_off,0,0,0,,6,,,66,127
11904,note_on,2,0,0,,12,,,71,127
11904,note_on,0,0,0,,8,,,68,127
12056,note_off,152,0,0,,8,,,68,127
12056,note_off,0,0,0,,12,,,71,127
12056,note_off,0,0,0,,4,,,64,127
12057,note_on,1,0,0,,1,,,61,127
12057,note_on,0,0,0,,1,,,73,127
12057,note_on,0,0,0,,4,,,76,127
12209,note_off,152,0,0,,1,,,61,127
12211,note_on,2,0,0,,2,,,62,127
12363,note_off,152,0,0,,2,,,62,127
12363,note_off,0,0,0,,4,,,76,127
12363,note_off,0,0,0,,1,,,73,127
12364,note_on,1,0,0,,2,,,74,127
12364,note_on,0,0,0,,4,,,64,127
12364,note_on,0,0,0,,12,,,71,127
12516,note_off,152,0,0,,12,,,71,127
12516,note_off,0,0,0,,4,,,64,127
12516,note_off,0,0,0,,2,,,74,127
12518,note_on,2,0,0,,12,,,71,127
12518,note_on,0,0,0,,1,,,73,127
12518,note_on,0,0,0,,10,,,69,127
12518,note_on,0,0,0,,2,,,74,127
12518,note_on,0,0,0,,6,,,66,127
12555,note_off,37,0,0,,2,,,74,127
12555,note_off,0,0,0,,12,,,71,127
12670,note_off,115,0,0,,10,,,69,127
12670,note_off,0,0,0,,1,,,73,127
12672,note_on,2,0,0,,8,,,68,127
12672,note_on,0,0,0,,12,,,71,127
12824,note_off,152,0,0,,12,,,71,127
12824,note_off,0,0,0,,8,,,68,127
12825,note_on,1,0,0,,10,,,69,127
12825,note_on,0,0,0,,1,,,73,127
12977,note_off,152,0,0,,1,,,73,127
12977,note_off,0,0,0,,10,,,69,127
12978,note_off,1,0,0,,6,,,66,127
12979,note_on,1,0,0,,12,,,59,127
12979,note_on,0,0,0,,2,,,74,127
12979,note_on,0,0,0,,12,,,71,127
13131,note_off,152,0,0,,12,,,59,127
13132,note_on,1,0,0,,1,,,61,127
13284,note_off,152,0,0,,1,,,61,127
13285,note_off,1,0,0,,12,,,71,127
13285,note_off,0,0,0,,2,,,74,127
13286,note_on,1,0,0,,2,,,62,127
13286,note_on,0,0,0,,1,,,73,127
13286,note_on,0,0,0,,10,,,69,127
13438,note_off,152,0,0,,10,,,69,127
13438,note_off,0,0,0,,1,,,73,127
13438,note_off,0,0,0,,2,,,62,127
13440,note_on,2,0,0,,1,,,73,127
13440,note_on,0,0,0,,10,,,69,127
13440,note_on,0,0,0,,12,,,71,127
13440,note_on,0,0,0,,8,,,68,127
13440,note_on,0,0,0,,4,,,64,127
13477,note_off,37,0,0,,10,,,69,127
13477,note_off,0,0,0,,1,,,73,127
13592,note_off,115,0,0,,8,,,68,127
13592,note_off,0,0,0,,12,,,71,127
13593,note_on,1,0,0,,10,,,69,127
13593,note_on,0,0,0,,6,,,66,127
13745,note_off,152,0,0,,6,,,66,127
13745,note_off,0,0,0,,10,,,69,127
13747,note_on,2,0,0,,8,,,68,127
13747,note_on,0,0,0,,12,,,71,127
13899,note_off,152,0,0,,12,,,71,127
13899,note_off,0,0,0,,8,,,68,127
13900,note_off,1,0,0,,4,,,64,127
13900,note_on,0,0,0,,1,,,73,127
13900,note_on,0,0,0,,10,,,57,127
13900,note_on,0,0,0,,10,,,69,127
13900,note_on,0,0,0,,2,,,74,127
13900,note_on,0,0,0,,12,,,71,127
13937,note_off,37,0,0,,12,,,71,127
13937,note_off,0,0,0,,2,,,74,127
14052,note_off,115,0,0,,10,,,69,127
14052,note_off,0,0,0,,1,,,73,127
14054,note_on,2,0,0,,12,,,71,127
14054,note_on,0,0,0,,8,,,68,127
14206,note_off,152,0,0,,8,,,68,127
14206,note_off,0,0,0,,12,,,71,127
14208,note_on,2,0,0,,1,,,73,127
14208,note_on,0,0,0,,10,,,69,127
14360,note_off,152,0,0,,10,,,69,127
14360,note_off,0,0,0,,1,,,73,127
14360,note_off,0,0,0,,10,,,57,127
14361,note_on,1,0,0,,8,,,56,127
14361,note_on,0,0,0,,2,,,74,127
14361,note_on,0,0,0,,12,,,71,127
14513,note_off,152,0,0,,12,,,71,127
14513,note_off,0,0,0,,2,,,74,127
14515,note_on,2,0,0,,1,,,73,127
14515,note_on,0,0,0,,10,,,69,127
14667,note_off,152,0,0,,10,,,69,127
14667,note_off,0,0,0,,1,,,73,127
14668,note_on,1,0,0,,2,,,74,127
14668,note_on,0,0,0,,12,,,71,127
14820,note_off,152,0,0,,12,,,71,127
14820,note_off,0,0,0,,2,,,74,127
14821,note_off,1,0,0,,8,,,56,127
14822,note_on,1,0,0,,10,,,69,127
14822,note_on,0,0,0,,1,,,73,127
14822,note_on,0,0,0,,10,,,57,127
14974,note_off,152,0,0,,1,,,73,127
14976,note_on,2,0,0,,2,,,74,127
15128,note_off,152,0,0,,2,,,74,127
15129,note_on,1,0,0,,4,,,76,127
15281,note_off,152,0,0,,4,,,76,127
15282,note_off,1,0,0,,10,,,57,127
15282,note_off,0,0,0,,10,,,69,127
15283,note_on,1,0,0,,1,,,73,127
15283,note_on,0,0,0,,10,,,45,127
15283,note_on,0,0,0,,2,,,74,127
15359,note_off,76,0,0,,2,,,74,127
15435,note_off,76,0,0,,1,,,73,127
15436,note_on,1,0,0,,12,,,71,127
15588,note_off,152,0,0,,12,,,71,127
15590,note_on,2,0,0,,10,,,69,127
15742,note_off,152,0,0,,10,,,69,127
15743,note_off,1,0,0,,10,,,45,127
15744,note_on,1,0,0,,12,,,71,127
15744,note_on,0,0,0,,8,,,68,127
15801,note_on,57,0,0,,4,,,52,127
15857,note_off,56,0,0,,4,,,52,127
15859,note_on,2,0,0,,6,,,54,127
15915,note_off,56,0,0,,6,,,54,127
15916,note_on,1,0,0,,8,,,56,127
15972,note_off,56,0,0,,8,,,56,127
15974,note_on,2,0,0,,10,,,57,127
16030,note_off,56,0,0,,10,,,57,127
16032,note_on,2,0,0,,12,,,59,127
16088,note_off,56,0,0,,12,,,59,127
16089,note_on,1,0,0,,1,,,61,127
16145,note_off,56,0,0,,1,,,61,127
16147,note_on,2,0,0,,2,,,62,127
16203,note_off,56,0,0,,2,,,62,127
16204,note_on,1,0,0,,4,,,64,127
16357,note_off,153,0,0,,8,,,68,127
16357,note_off,0,0,0,,12,,,71,127
16358,note_on,1,0,0,,4,,,76,127
16510,note_off,152,0,0,,4,,,76,127
16512,note_on,2,0,0,,2,,,74,127
16664,note_off,152,0,0,,2,,,74,127
16664,note_off,0,0,0,,4,,,64,127
16665,note_on,1,0,0,,2,,,74,127
16665,note_on,0,0,0,,1,,,73,127
16665,note_on,0,0,0,,12,,,71,127
16665,note_on,0,0,0,,10,,,69,127
16665,note_on,0,0,0,,10,,,45,127
16665,note_on,0,0,0,,10,,,57,127
16702,note_off,37,0,0,,12,,,71,127
16702,note_off,0,0,0,,2,,,74,127
16817,note_off,115,0,0,,10,,,69,127
16817,note_off,0,0,0,,1,,,73,127
16819,note_on,2,0,0,,12,,,71,127
16819,note_on,0,0,0,,8,,,68,127
16971,note_off,152,0,0,,8,,,68,127
16971,note_off,0,0,0,,12,,,71,127
16972,note_on,1,0,0,,1,,,73,127
16972,note_on,0,0,0,,10,,,69,127
17124,note_off,152,0,0,,10,,,69,127
17124,note_off,0,0,0,,1,,,73,127
17125,note_off,1,0,0,,10,,,57,127
17125,note_off,0,0,0,,10,,,45,127
17126,note_on,1,0,0,,12,,,71,127
17126,note_on,0,0,0,,2,,,74,127
17126,note_on,0,0,0,,2,,,38,127
17126,note_on,0,0,0,,2,,,50,127
17278,note_off,152,0,0,,2,,,74,127
17278,note_off,0,0,0,,12,,,71,127
17280,note_on,2,0,0,,1,,,73,127
17280,note_on,0,0,0,,10,,,69,127
17432,note_off,152,0,0,,10,,,69,127
17432,note_off,0,0,0,,1,,,73,127
17432,note_off,0,0,0,,2,,,50,127
17432,note_off,0,0,0,,2,,,38,127
17433,note_on,1,0,0,,12,,,71,127
17433,note_on,0,0,0,,8,,,68,127
17433,note_on,0,0,0,,4,,,52,127
17433,note_on,0,0,0,,4,,,40,127
17585,note_off,152,0,0,,4,,,40,127
17585,note_off,0,0,0,,4,,,52,127
17585,note_off,0,0,0,,8,,,68,127
17585,note_off,0,0,0,,12,,,71,127
17587,note_on,2,0,0,,10,,,45,127
17587,note_on,0,0,0,,10,,,69,127
17587,note_on,0,0,0,,10,,,57,127
17739,note_off,152,0,0,,10,,,69,127
17740,note_on,1,0,0,,0,,,72,127
17892,note_off,152,0,0,,0,,,72,127
17893,note_off,1,0,0,,10,,,45,127
17894,note_on,1,0,0,,0,,,72,127
18046,note_off,152,0,0,,0,,,72,127
18047,note_off,1,0,0,,10,,,57,127
18048,note_on,1,0,0,,0,,,72,127
18048,note_on,0,0,0,,2,,,74,127
18048,note_on,0,0,0,,2,,,62,127
18048,note_on,0,0,0,,10,,,57,127
18048,note_on,0,0,0,,5,,,65,127
18124,note_off,76,0,0,,2,,,74,127
18200,note_off,76,0,0,,0,,,72,127
18201,note_on,1,0,0,,12,,,71,127
18353,note_off,152,0,0,,12,,,71,127
18355,note_on,2,0,0,,12,,,71,127
18507,note_off,152,0,0,,12,,,71,127
18508,note_off,1,0,0,,5,,,65,127
18508,note_off,0,0,0,,10,,,57,127
18508,note_off,0,0,0,,2,,,62,127
18508,note_on,0,0,0,,10,,,57,127
18508,note_on,0,0,0,,12,,,71,127
18508,note_on,0,0,0,,4,,,64,127
18508,note_on,0,0,0,,0,,,72,127
18508,note_on,0,0,0,,0,,,60,127
18584,note_off,76,0,0,,0,,,72,127
18660,note_off,76,0,0,,12,,,71,127
18662,note_on,2,0,0,,10,,,69,127
18814,note_off,152,0,0,,10,,,69,127
18816,note_on,2,0,0,,10,,,69,127
18968,note_off,152,0,0,,10,,,69,127
18968,note_off,0,0,0,,0,,,60,127
18968,note_off,0,0,0,,4,,,64,127
18968,note_off,0,0,0,,10,,,57,127
18969,note_on,1,0,0,,10,,,57,127
18969,note_on,0,0,0,,2,,,62,127
18969,note_on,0,0,0,,12,,,59,127
18969,note_on,0,0,0,,10,,,69,127
18969,note_on,0,0,0,,12,,,71,127
19045,note_off,76,0,0,,12,,,71,127
19121,note_off,76,0,0,,10,,,69,127
19123,note_on,2,0,0,,8,,,68,127
19275,note_off,152,0,0,,8,,,68,127
19276,note_on,1,0,0,,8,,,68,127
19428,note_off,152,0,0,,8,,,68,127
19429,note_off,1,0,0,,12,,,59,127
19429,note_off,0,0,0,,2,,,62,127
19429,note_off,0,0,0,,10,,,57,127
19430,note_on,1,0,0,,10,,,69,127
19430,note_on,0,0,0,,10,,,57,127
19430,note_on,0,0,0,,0,,,60,127
19584,note_on,154,0,0,,4,,,76,127
19736,note_off,152,0,0,,4,,,76,127
19736,note_off,0,0,0,,10,,,69,127
19737,note_on,1,0,0,,4,,,76,127
19889,note_off,152,0,0,,4,,,76,127
19890,note_off,1,0,0,,0,,,60,127
19890,note_off,0,0,0,,10,,,57,127
19891,note_on,1,0,0,,10,,,69,127
19891,note_on,0,0,0,,10,,,57,127
19891,note_on,0,0,0,,4,,,76,127
19891,note_on,0,0,0,,5,,,65,127
19891,note_on,0,0,0,,5,,,77,127
19967,note_off,76,0,0,,5,,,77,127
20043,note_off,76,0,0,,4,,,76,127
20044,note_on,1,0,0,,2,,,74,127
20196,note_off,152,0,0,,2,,,74,127
20198,note_on,2,0,0,,2,,,74,127
20350,note_off,152,0,0,,2,,,74,127
20351,note_off,1,0,0,,5,,,65,127
20351,note_off,0,0,0,,10,,,57,127
20351,note_off,0,0,0,,10,,,69,127
20352,note_on,1,0,0,,10,,,57,127
20352,note_on,0,0,0,,10,,,69,127
20352,note_on,0,0,0,,4,,,64,127
20352,note_on,0,0,0,,4,,,76,127
20352,note_on,0,0,0,,2,,,74,127
20428,note_off,76,0,0,,4,,,76,127
20504,note_off,76,0,0,,2,,,74,127
20505,note_on,1,0,0,,0,,,72,127
20657,note_off,152,0,0,,0,,,72,127
20659,note_on,2,0,0,,0,,,72,127
20811,note_off,152,0,0,,0,,,72,127
20812,note_off,1,0,0,,4,,,64,127
20812,note_off,0,0,0,,10,,,69,127
20812,note_off,0,0,0,,10,,,57,127
20812,note_on,0,0,0,,2,,,74,127
20812,note_on,0,0,0,,10,,,57,127
20812,note_on,0,0,0,,2,,,62,127
20812,note_on,0,0,0,,5,,,65,127
20812,note_on,0,0,0,,0,,,72,127
20888,note_off,76,0,0,,2,,,74,127
20964,note_off,76,0,0,,0,,,72,127
20966,note_on,2,0,0,,12,,,71,127
21118,note_off,152,0,0,,12,,,71,127
21120,note_on,2,0,0,,12,,,71,127
21272,note_off,152,0,0,,12,,,71,127
21272,note_off,0,0,0,,5,,,65,127
21272,note_off,0,0,0,,2,,,62,127
21272,note_off,0,0,0,,10,,,57,127
21273,note_on,1,0,0,,10,,,57,127
21273,note_on,0,0,0,,0,,,72,127
21273,note_on,0,0,0,,12,,,71,127
21273,note_on,0,0,0,,0,,,60,127
21273,note_on,0,0,0,,4,,,64,127
21349,note_off,76,0,0,,0,,,72,127
21425,note_off,76,0,0,,12,,,71,127
21427,note_on,2,0,0,,10,,,69,127
21579,note_off,152,0,0,,10,,,69,127
21580,note_on,1,0,0,,10,,,69,127
21732,note_off,152,0,0,,10,,,69,127
21733,note_off,1,0,0,,4,,,64,127
21733,note_off,0,0,0,,0,,,60,127
21733,note_off,0,0,0,,10,,,57,127
21734,note_on,1,0,0,,12,,,71,127
21734,note_on,0,0,0,,10,,,69,127
21734,note_on,0,0,0,,2,,,62,127
21734,note_on,0,0,0,,12,,,59,127
21810,note_off,76,0,0,,12,,,71,127
21886,note_off,76,0,0,,10,,,69,127
21888,note_on,2,0,0,,7,,,67,127
22040,note_off,152,0,0,,7,,,67,127
22041,note_on,1,0,0,,7,,,67,127
22193,note_off,152,0,0,,7,,,67,127
22194,note_off,1,0,0,,12,,,59,127
22194,note_off,0,0,0,,2,,,62,127
22195,note_on,1,0,0,,7,,,67,127
22195,note_on,0,0,0,,10,,,57,127
22195,note_on,0,0,0,,0,,,60,127
22195,note_on,0,0,0,,10,,,69,127
22271,note_off,76,0,0,,10,,,69,127
22347,note_off,76,0,0,,7,,,67,127
22348,note_on,1,0,0,,5,,,65,127
22500,note_off,152,0,0,,5,,,65,127
22501,note_off,1,0,0,,0,,,60,127
22501,note_off,0,0,0,,10,,,57,127
22502,note_on,1,0,0,,7,,,55,127
22502,note_on,0,0,0,,4,,,64,127
22502,note_on,0,0,0,,12,,,59,127
22654,note_off,152,0,0,,12,,,59,127
22654,note_off,0,0,0,,4,,,64,127
22654,note_off,0,0,0,,7,,,55,127
22656,note_on,2,0,0,,5,,,53,127
22656,note_on,0,0,0,,10,,,69,127
22656,note_on,0,0,0,,2,,,62,127
22656,note_on,0,0,0,,10,,,57,127
22656,note_on,0,0,0,,4,,,64,127
22732,note_off,76,0,0,,4,,,64,127
22808,note_off,76,0,0,,2,,,62,127
22809,note_on,1,0,0,,0,,,60,127
22961,note_off,152,0,0,,0,,,60,127
22963,note_on,2,0,0,,2,,,62,127
23115,note_off,152,0,0,,2,,,62,127
23116,note_off,1,0,0,,10,,,57,127
23116,note_off,0,0,0,,10,,,69,127
23116,note_off,0,0,0,,5,,,53,127
23116,note_on,0,0,0,,4,,,64,127
23116,note_on,0,0,0,,4,,,52,127
23116,note_on,0,0,0,,8,,,68,127
23268,note_off,152,0,0,,8,,,68,127
23268,note_off,0,0,0,,4,,,64,127
23270,note_on,2,0,0,,10,,,57,127
23346,note_off,76,0,0,,10,,,57,127
23347,note_on,1,0,0,,12,,,59,127
23423,note_off,76,0,0,,12,,,59,127
23424,note_on,1,0,0,,4,,,64,127
23576,note_off,152,0,0,,4,,,64,127
23576,note_off,0,0,0,,4,,,52,127
23577,note_on,1,0,0,,5,,,53,127
23731,note_on,154,0,0,,10,,,57,127
23807,note_off,76,0,0,,10,,,57,127
23808,note_on,1,0,0,,12,,,59,127
23884,note_off,76,0,0,,12,,,59,127
23884,note_on,0,0,0,,2,,,62,127
23884,note_on,0,0,0,,12,,,71,127
24036,note_off,152,0,0,,2,,,62,127
24037,note_off,1,0,0,,5,,,53,127
24038,note_on,1,0,0,,4,,,52,127
24190,note_off,152,0,0,,12,,,71,127
24192,note_on,2,0,0,,10,,,57,127
24268,note_off,76,0,0,,10,,,57,127
24268,note_on,0,0,0,,12,,,59,127
24344,note_off,76,0,0,,12,,,59,127
24345,note_on,1,0,0,,4,,,64,127
24497,note_off,152,0,0,,4,,,64,127
24498,note_off,1,0,0,,4,,,52,127
24499,note_on,1,0,0,,5,,,53,127
24652,note_on,153,0,0,,10,,,57,127
24728,note_off,76,0,0,,10,,,57,127
24729,note_on,1,0,0,,12,,,59,127
24805,note_off,76,0,0,,12,,,59,127
24806,note_on,1,0,0,,2,,,62,127
24806,note_on,0,0,0,,12,,,71,127
24958,note_off,152,0,0,,2,,,62,127
24959,note_off,1,0,0,,5,,,53,127
24960,note_on,1,0,0,,4,,,52,127
25112,note_off,152,0,0,,12,,,71,127
25113,note_on,1,0,0,,10,,,57,127
25189,note_off,76,0,0,,10,,,57,127
25190,note_on,1,0,0,,12,,,59,127
25266,note_off,76,0,0,,12,,,59,127
25267,note_on,1,0,0,,4,,,64,127
25419,note_off,152,0,0,,4,,,64,127
25420,note_off,1,0,0,,4,,,52,127
25420,note_on,0,0,0,,5,,,53,127
25574,note_on,154,0,0,,10,,,57,127
25650,note_off,76,0,0,,10,,,57,127
25651,note_on,1,0,0,,12,,,59,127
25727,note_off,76,0,0,,12,,,59,127
25728,note_on,1,0,0,,2,,,62,127
25728,note_on,0,0,0,,12,,,71,127
25880,note_off,152,0,0,,12,,,71,127
25880,note_off,0,0,0,,2,,,62,127
25880,note_off,0,0,0,,5,,,53,127
25881,note_on,1,0,0,,4,,,52,127
25957,note_off,76,0,0,,4,,,52,127
25958,note_on,1,0,0,,10,,,57,127
26034,note_off,76,0,0,,10,,,57,127
26035,note_on,1,0,0,,12,,,59,127
26111,note_off,76,0,0,,12,,,59,127
26112,note_on,1,0,0,,4,,,64,127
26188,note_on,76,0,0,,0,,,84,127
26188,note_on,0,0,0,,8,,,56,127
26225,note_off,37,0,0,,0,,,84,127
26227,note_on,2,0,0,,12,,,83,127
26264,note_off,37,0,0,,12,,,83,127
26265,note_on,1,0,0,,0,,,84,127
26302,note_off,37,0,0,,0,,,84,127
26304,note_on,2,0,0,,12,,,83,127
26340,note_off,36,0,0,,8,,,56,127
26341,note_off,1,0,0,,12,,,83,127
26341,note_off,0,0,0,,4,,,64,127
26342,note_on,1,0,0,,0,,,84,127
26342,note_on,0,0,0,,10,,,57,127
26494,note_off,152,0,0,,0,,,84,127
26496,note_on,2,0,0,,10,,,81,127
26648,note_off,152,0,0,,10,,,81,127
26649,note_on,1,0,0,,4,,,76,127
26802,note_off,153,0,0,,4,,,76,127
26802,note_off,0,0,0,,10,,,57,127
26803,note_on,1,0,0,,5,,,77,127
26803,note_on,0,0,0,,2,,,38,127
26803,note_on,0,0,0,,2,,,50,127
26955,note_off,152,0,0,,5,,,77,127
26956,note_on,1,0,0,,2,,,74,127
27108,note_off,152,0,0,,2,,,74,127
27110,note_on,2,0,0,,12,,,71,127
27263,note_off,153,0,0,,2,,,50,127
27263,note_off,0,0,0,,2,,,38,127
27264,note_on,1,0,0,,4,,,52,127
27264,note_on,0,0,0,,4,,,40,127
27416,note_off,152,0,0,,12,,,71,127
27417,note_on,1,0,0,,10,,,69,127
27569,note_off,152,0,0,,10,,,69,127
27571,note_on,2,0,0,,8,,,68,127
27723,note_off,152,0,0,,8,,,68,127
27724,note_off,1,0,0,,4,,,40,127
27724,note_off,0,0,0,,4,,,52,127
27724,note_on,0,0,0,,5,,,53,127
27724,note_on,0,0,0,,8,,,68,127
27876,note_off,152,0,0,,8,,,68,127
27878,note_on,2,0,0,,10,,,57,127
27878,note_on,0,0,0,,10,,,69,127
27954,note_off,76,0,0,,10,,,57,127
27955,note_on,1,0,0,,12,,,59,127
28024,note_off,69,0,0,,5,,,53,127
28031,note_off,7,0,0,,12,,,59,127
28032,note_on,1,0,0,,2,,,62,127
28107,note_off,75,0,0,,10,,,69,127
28185,note_on,78,0,0,,2,,,50,127
28339,note_on,154,0,0,,10,,,57,127
28415,note_off,76,0,0,,10,,,57,127
28416,note_on,1,0,0,,12,,,59,127
28490,note_off,74,0,0,,2,,,50,127
28492,note_off,2,0,0,,12,,,59,127
28492,note_off,0,0,0,,2,,,62,127
28492,note_on,0,0,0,,2,,,62,127
28492,note_on,0,0,0,,12,,,71,127
28646,note_on,154,0,0,,4,,,52,127
28798,note_off,152,0,0,,12,,,71,127
28800,note_on,2,0,0,,10,,,57,127
28876,note_off,76,0,0,,10,,,57,127
28876,note_on,0,0,0,,12,,,59,127
28946,note_off,70,0,0,,4,,,52,127
28952,note_off,6,0,0,,12,,,59,127
28952,note_off,0,0,0,,2,,,62,127
28953,note_on,1,0,0,,4,,,64,127
29107,note_on,154,0,0,,5,,,53,127
29260,note_on,153,0,0,,10,,,57,127
29336,note_off,76,0,0,,10,,,57,127
29337,note_on,1,0,0,,12,,,59,127
29413,note_off,76,0,0,,12,,,59,127
29413,note_off,0,0,0,,5,,,53,127
29413,note_off,0,0,0,,4,,,64,127
29414,note_on,1,0,0,,2,,,62,127
29414,note_on,0,0,0,,12,,,71,127
29568,note_on,154,0,0,,4,,,52,127
29720,note_off,152,0,0,,12,,,71,127
29721,note_on,1,0,0,,10,,,57,127
29797,note_off,76,0,0,,10,,,57,127
29798,note_on,1,0,0,,12,,,59,127
29868,note_off,70,0,0,,4,,,52,127
29874,note_off,6,0,0,,12,,,59,127
29874,note_off,0,0,0,,2,,,62,127
29875,note_on,1,0,0,,4,,,64,127
30028,note_on,153,0,0,,5,,,53,127
30182,note_on,154,0,0,,10,,,57,127
30258,note_off,76,0,0,,10,,,57,127
30259,note_on,1,0,0,,12,,,59,127
30334,note_off,75,0,0,,5,,,53,127
30335,note_off,1,0,0,,12,,,59,127
30335,note_off,0,0,0,,4,,,64,127
30336,note_on,1,0,0,,2,,,62,127
30336,note_on,0,0,0,,12,,,71,127
30488,note_off,152,0,0,,12,,,71,127
30489,note_on,1,0,0,,4,,,52,127
30565,note_off,76,0,0,,4,,,52,127
30566,note_on,1,0,0,,10,,,57,127
30642,note_off,76,0,0,,10,,,57,127
30643,note_on,1,0,0,,12,,,59,127
30719,note_off,76,0,0,,12,,,59,127
30719,note_off,0,0,0,,2,,,62,127
30720,note_on,1,0,0,,4,,,64,127
30796,note_on,76,0,0,,0,,,84,127
30796,note_on,0,0,0,,8,,,56,127
30833,note_off,37,0,0,,0,,,84,127
30835,note_on,2,0,0,,12,,,83,127
30872,note_off,37,0,0,,12,,,83,127
30873,note_on,1,0,0,,0,,,84,127
30910,note_off,37,0,0,,0,,,84,127
30912,note_on,2,0,0,,12,,,83,127
30948,note_off,36,0,0,,8,,,56,127
30949,note_off,1,0,0,,12,,,83,127
30949,note_off,0,0,0,,4,,,64,127
30950,note_on,1,0,0,,10,,,57,127
30950,note_on,0,0,0,,0,,,84,127
31102,note_off,152,0,0,,0,,,84,127
31104,note_on,2,0,0,,10,,,81,127
31256,note_off,152,0,0,,10,,,81,127
31257,note_on,1,0,0,,4,,,76,127
31410,note_off,153,0,0,,4,,,76,127
31410,note_off,0,0,0,,10,,,57,127
31411,note_on,1,0,0,,2,,,38,127
31411,note_on,0,0,0,,2,,,50,127
31411,note_on,0,0,0,,5,,,77,127
31563,note_off,152,0,0,,5,,,77,127
31564,note_on,1,0,0,,2,,,74,127
31716,note_off,152,0,0,,2,,,74,127
31718,note_on,2,0,0,,12,,,71,127
31871,note_off,153,0,0,,2,,,50,127
31871,note_off,0,0,0,,2,,,38,127
31872,note_on,1,0,0,,4,,,40,127
31872,note_on,0,0,0,,4,,,52,127
32024,note_off,152,0,0,,12,,,71,127
32025,note_on,1,0,0,,10,,,69,127
32177,note_off,152,0,0,,10,,,69,127
32179,note_on,2,0,0,,8,,,68,127
32331,note_off,152,0,0,,8,,,68,127
32332,note_off,1,0,0,,4,,,52,127
32332,note_off,0,0,0,,4,,,40,127
32332,note_on,0,0,0,,10,,,81,127
32390,note_on,58,0,0,,10,,,45,127
32446,note_off,56,0,0,,10,,,45,127
32448,note_on,2,0,0,,12,,,47,127
32504,note_off,56,0,0,,12,,,47,127
32505,note_on,1,0,0,,1,,,49,127
32561,note_off,56,0,0,,1,,,49,127
32563,note_on,2,0,0,,2,,,50,127
32619,note_off,56,0,0,,2,,,50,127
32620,note_on,1,0,0,,4,,,52,127
32676,note_off,56,0,0,,4,,,52,127
32678,note_on,2,0,0,,6,,,54,127
32734,note_off,56,0,0,,6,,,54,127
32736,note_on,2,0,0,,8,,,56,127
32792,note_off,56,0,0,,8,,,56,127
32793,note_on,1,0,0,,10,,,57,127
32849,note_off,56,0,0,,10,,,81,127
32851,note_on,2,0,0,,8,,,80,127
32907,note_off,56,0,0,,8,,,80,127
32908,note_on,1,0,0,,6,,,78,127
32964,note_off,56,0,0,,6,,,78,127
32966,note_on,2,0,0,,4,,,76,127
33022,note_off,56,0,0,,4,,,76,127
33024,note_on,2,0,0,,2,,,74,127
33080,note_off,56,0,0,,2,,,74,127
33081,note_on,1,0,0,,1,,,73,127
33137,note_off,56,0,0,,1,,,73,127
33139,note_on,2,0,0,,12,,,71,127
33195,note_off,56,0,0,,12,,,71,127
33196,note_on,1,0,0,,10,,,69,127
33252,note_off,56,0,0,,10,,,69,127
33254,note_on,2,0,0,,6,,,78,127
33310,note_off,56,0,0,,10,,,57,127
33312,note_on,2,0,0,,2,,,50,127
33368,note_off,56,0,0,,2,,,50,127
33369,note_on,1,0,0,,4,,,52,127
33425,note_off,56,0,0,,4,,,52,127
33427,note_on,2,0,0,,6,,,54,127
33483,note_off,56,0,0,,6,,,54,127
33484,note_on,1,0,0,,8,,,56,127
33540,note_off,56,0,0,,8,,,56,127
33542,note_on,2,0,0,,10,,,57,127
33598,note_off,56,0,0,,10,,,57,127
33600,note_on,2,0,0,,12,,,59,127
33656,note_off,56,0,0,,12,,,59,127
33657,note_on,1,0,0,,1,,,61,127
33713,note_off,56,0,0,,1,,,61,127
33715,note_on,2,0,0,,2,,,62,127
33771,note_off,56,0,0,,6,,,78,127
33772,note_on,1,0,0,,4,,,76,127
33828,note_off,56,0,0,,4,,,76,127
33830,note_on,2,0,0,,2,,,74,127
33886,note_off,56,0,0,,2,,,74,127
33888,note_on,2,0,0,,1,,,73,127
33944,note_off,56,0,0,,1,,,73,127
33945,note_on,1,0,0,,12,,,71,127
34001,note_off,56,0,0,,12,,,71,127
34003,note_on,2,0,0,,10,,,69,127
34059,note_off,56,0,0,,10,,,69,127
34060,note_on,1,0,0,,8,,,68,127
34116,note_off,56,0,0,,8,,,68,127
34118,note_on,2,0,0,,6,,,66,127
34174,note_off,56,0,0,,6,,,66,127
34175,note_off,1,0,0,,2,,,62,127
34176,note_on,1,0,0,,4,,,64,127
34232,note_off,56,0,0,,4,,,64,127
34233,note_on,1,0,0,,10,,,45,127
34233,note_on,0,0,0,,4,,,76,127
34289,note_off,56,0,0,,10,,,45,127
34291,note_on,2,0,0,,12,,,47,127
34347,note_off,56,0,0,,12,,,47,127
34348,note_on,1,0,0,,1,,,49,127
34404,note_off,56,0,0,,1,,,49,127
34406,note_on,2,0,0,,2,,,50,127
34462,note_off,56,0,0,,2,,,50,127
34464,note_on,2,0,0,,4,,,52,127
34520,note_off,56,0,0,,4,,,52,127
34521,note_on,1,0,0,,6,,,54,127
34577,note_off,56,0,0,,6,,,54,127
34579,note_on,2,0,0,,8,,,56,127
34635,note_off,56,0,0,,8,,,56,127
34636,note_on,1,0,0,,10,,,57,127
34693,note_off,57,0,0,,4,,,76,127
34694,note_on,1,0,0,,2,,,74,127
34750,note_off,56,0,0,,2,,,74,127
34752,note_on,2,0,0,,1,,,73,127
34808,note_off,56,0,0,,1,,,73,127
34809,note_on,1,0,0,,12,,,71,127
34865,note_off,56,0,0,,12,,,71,127
34867,note_on,2,0,0,,10,,,69,127
34923,note_off,56,0,0,,10,,,69,127
34924,note_on,1,0,0,,8,,,68,127
34980,note_off,56,0,0,,8,,,68,127
34982,note_on,2,0,0,,6,,,66,127
35038,note_off,56,0,0,,6,,,66,127
35040,note_on,2,0,0,,4,,,64,127
35096,note_off,56,0,0,,4,,,64,127
35096,note_off,0,0,0,,10,,,57,127
35097,note_on,1,0,0,,2,,,38,127
35097,note_on,0,0,0,,2,,,74,127
35097,note_on,0,0,0,,6,,,66,127
35097,note_on,0,0,0,,2,,,50,127
35249,note_off,152,0,0,,2,,,74,127
35251,note_on,2,0,0,,1,,,73,127
35403,note_off,152,0,0,,1,,,73,127
35404,note_on,1,0,0,,12,,,71,127
35556,note_off,152,0,0,,12,,,71,127
35557,note_off,1,0,0,,2,,,50,127
35557,note_off,0,0,0,,6,,,66,127
35557,note_off,0,0,0,,2,,,38,127
35558,note_on,1,0,0,,4,,,52,127
35558,note_on,0,0,0,,4,,,40,127
35558,note_on,0,0,0,,10,,,69,127
35558,note_on,0,0,0,,4,,,64,127
35710,note_off,152,0,0,,10,,,69,127
35712,note_on,2,0,0,,12,,,71,127
35864,note_off,152,0,0,,12,,,71,127
35865,note_on,1,0,0,,8,,,68,127
36017,note_off,152,0,0,,8,,,68,127
36018,note_off,1,0,0,,4,,,64,127
36018,note_off,0,0,0,,4,,,40,127
36018,note_off,0,0,0,,4,,,52,127
36019,note_on,1,0,0,,10,,,81,127
36076,note_on,57,0,0,,10,,,45,127
36132,note_off,56,0,0,,10,,,45,127
36134,note_on,2,0,0,,12,,,47,127
36190,note_off,56,0,0,,12,,,47,127
36192,note_on,2,0,0,,1,,,49,127
36248,note_off,56,0,0,,1,,,49,127
36249,note_on,1,0,0,,2,,,50,127
36305,note_off,56,0,0,,2,,,50,127
36307,note_on,2,0,0,,4,,,52,127
36363,note_off,56,0,0,,4,,,52,127
36364,note_on,1,0,0,,6,,,54,127
36420,note_off,56,0,0,,6,,,54,127
36422,note_on,2,0,0,,8,,,56,127
36478,note_off,56,0,0,,8,,,56,127
36480,note_on,2,0,0,,10,,,57,127
36536,note_off,56,0,0,,10,,,81,127
36537,note_on,1,0,0,,8,,,80,127
36593,note_off,56,0,0,,8,,,80,127
36595,note_on,2,0,0,,6,,,78,127
36651,note_off,56,0,0,,6,,,78,127
36652,note_on,1,0,0,,4,,,76,127
36708,note_off,56,0,0,,4,,,76,127
36710,note_on,2,0,0,,2,,,74,127
36766,note_off,56,0,0,,2,,,74,127
36768,note_on,2,0,0,,1,,,73,127
36824,note_off,56,0,0,,1,,,73,127
36825,note_on,1,0,0,,12,,,71,127
36881,note_off,56,0,0,,12,,,71,127
36883,note_on,2,0,0,,10,,,69,127
36939,note_off,56,0,0,,10,,,69,127
36940,note_on,1,0,0,,6,,,78,127
36997,note_off,57,0,0,,10,,,57,127
36998,note_on,1,0,0,,2,,,50,127
37054,note_off,56,0,0,,2,,,50,127
37056,note_on,2,0,0,,4,,,52,127
37112,note_off,56,0,0,,4,,,52,127
37113,note_on,1,0,0,,6,,,54,127
37169,note_off,56,0,0,,6,,,54,127
37171,note_on,2,0,0,,8,,,56,127
37227,note_off,56,0,0,,8,,,56,127
37228,note_on,1,0,0,,10,,,57,127
37284,note_off,56,0,0,,10,,,57,127
37286,note_on,2,0,0,,12,,,59,127
37342,note_off,56,0,0,,12,,,59,127
37344,note_on,2,0,0,,1,,,61,127
37400,note_off,56,0,0,,1,,,61,127
37401,note_on,1,0,0,,2,,,62,127
37457,note_off,56,0,0,,6,,,78,127
37459,note_on,2,0,0,,4,,,76,127
37515,note_off,56,0,0,,4,,,76,127
37516,note_on,1,0,0,,2,,,74,127
37572,note_off,56,0,0,,2,,,74,127
37574,note_on,2,0,0,,1,,,73,127
37630,note_off,56,0,0,,1,,,73,127
37632,note_on,2,0,0,,12,,,71,127
37688,note_off,56,0,0,,12,,,71,127
37689,note_on,1,0,0,,10,,,69,127
37745,note_off,56,0,0,,10,,,69,127
37747,note_on,2,0,0,,8,,,68,127
37803,note_off,56,0,0,,8,,,68,127
37804,note_on,1,0,0,,6,,,66,127
37860,note_off,56,0,0,,6,,,66,127
37861,note_off,1,0,0,,2,,,62,127
37862,note_on,1,0,0,,4,,,64,127
37918,note_off,56,0,0,,4,,,64,127
37920,note_on,2,0,0,,4,,,76,127
37920,note_on,0,0,0,,10,,,45,127
37976,note_off,56,0,0,,10,,,45,127
37977,note_on,1,0,0,,12,,,47,127
38033,note_off,56,0,0,,12,,,47,127
38035,note_on,2,0,0,,1,,,49,127
38091,note_off,56,0,0,,1,,,49,127
38092,note_on,1,0,0,,2,,,50,127
38148,note_off,56,0,0,,2,,,50,127
38150,note_on,2,0,0,,4,,,52,127
38206,note_off,56,0,0,,4,,,52,127
38208,note_on,2,0,0,,6,,,54,127
38264,note_off,56,0,0,,6,,,54,127
38265,note_on,1,0,0,,8,,,56,127
38321,note_off,56,0,0,,8,,,56,127
38323,note_on,2,0,0,,10,,,57,127
38380,note_off,57,0,0,,4,,,76,127
38380,note_on,0,0,0,,2,,,74,127
38436,note_off,56,0,0,,2,,,74,127
38438,note_on,2,0,0,,1,,,73,127
38494,note_off,56,0,0,,1,,,73,127
38496,note_on,2,0,0,,12,,,71,127
38552,note_off,56,0,0,,12,,,71,127
38553,note_on,1,0,0,,10,,,69,127
38609,note_off,56,0,0,,10,,,69,127
38611,note_on,2,0,0,,8,,,68,127
38667,note_off,56,0,0,,8,,,68,127
38668,note_on,1,0,0,,6,,,66,127
38724,note_off,56,0,0,,6,,,66,127
38726,note_on,2,0,0,,4,,,64,127
38782,note_off,56,0,0,,4,,,64,127
38783,note_off,1,0,0,,10,,,57,127
38784,note_on,1,0,0,,2,,,38,127
38784,note_on,0,0,0,,2,,,50,127
38784,note_on,0,0,0,,6,,,66,127
38784,note_on,0,0,0,,2,,,74,127
38936,note_off,152,0,0,,2,,,74,127
38937,note_on,1,0,0,,1,,,73,127
39089,note_off,152,0,0,,1,,,73,127
39091,note_on,2,0,0,,12,,,71,127
39243,note_off,152,0,0,,12,,,71,127
39244,note_off,1,0,0,,6,,,66,127
39244,note_off,0,0,0,,2,,,50,127
39244,note_off,0,0,0,,2,,,38,127
39244,note_on,0,0,0,,4,,,40,127
39244,note_on,0,0,0,,4,,,52,127
39244,note_on,0,0,0,,4,,,64,127
39244,note_on,0,0,0,,10,,,69,127
39396,note_off,152,0,0,,10,,,69,127
39398,note_on,2,0,0,,12,,,71,127
39550,note_off,152,0,0,,12,,,71,127
39552,note_on,2,0,0,,8,,,68,127
39704,note_off,152,0,0,,8,,,68,127
39704,note_off,0,0,0,,4,,,64,127
39704,note_off,0,0,0,,4,,,52,127
39704,note_off,0,0,0,,4,,,40,127
39705,note_on,1,0,0,,10,,,45,127
39705,note_on,0,0,0,,10,,,69,127
39857,note_off,152,0,0,,10,,,69,127
39859,note_on,2,0,0,,10,,,81,127
40011,note_off,152,0,0,,10,,,81,127
40012,note_on,1,0,0,,4,,,76,127
40164,note_off,152,0,0,,4,,,76,127
40166,note_on,2,0,0,,1,,,73,127
40318,note_off,152,0,0,,1,,,73,127
40318,note_off,0,0,0,,10,,,45,127
40320,note_on,2,0,0,,1,,,49,127
40320,note_on,0,0,0,,10,,,69,127
40472,note_off,152,0,0,,10,,,69,127
40472,note_off,0,0,0,,1,,,49,127
40473,note_on,1,0,0,,4,,,52,127
40473,note_on,0,0,0,,4,,,64,127
40625,note_off,152,0,0,,4,,,64,127
40625,note_off,0,0,0,,4,,,52,127
40627,note_on,2,0,0,,10,,,57,127
40627,note_on,0,0,0,,1,,,61,127
40779,note_off,152,0,0,,1,,,61,127
40780,note_on,1,0,0,,10,,,81,127
40780,note_on,0,0,0,,10,,,45,127
40932,note_off,152,0,0,,10,,,81,127
40933,note_off,1,0,0,,10,,,57,127
40934,note_on,1,0,0,,4,,,76,127
41086,note_off,152,0,0,,4,,,76,127
41088,note_on,2,0,0,,1,,,73,127
41240,note_off,152,0,0,,1,,,73,127
41240,note_off,0,0,0,,10,,,45,127
41241,note_on,1,0,0,,1,,,49,127
41241,note_on,0,0,0,,10,,,69,127
41393,note_off,152,0,0,,10,,,69,127
41393,note_off,0,0,0,,1,,,49,127
41395,note_on,2,0,0,,4,,,52,127
41395,note_on,0,0,0,,4,,,64,127
41547,note_off,152,0,0,,4,,,64,127
41548,note_on,1,0,0,,10,,,57,127
41548,note_on,0,0,0,,10,,,45,127
41548,note_on,0,0,0,,1,,,61,127
41548,note_on,0,0,0,,12,,,59,127
41548,note_on,0,0,0,,2,,,62,127
41555,note_off,7,0,0,,4,,,52,127
41585,note_off,30,0,0,,2,,,62,127
41585,note_off,0,0,0,,12,,,59,127
41700,note_off,115,0,0,,1,,,61,127
41700,note_off,0,0,0,,10,,,57,127
41702,note_on,2,0,0,,8,,,56,127
41702,note_on,0,0,0,,12,,,59,127
41854,note_off,152,0,0,,12,,,59,127
41854,note_off,0,0,0,,8,,,56,127
41856,note_on,2,0,0,,1,,,61,127
41856,note_on,0,0,0,,10,,,57,127
42008,note_off,152,0,0,,10,,,57,127
42008,note_off,0,0,0,,1,,,61,127
42008,note_off,0,0,0,,10,,,45,127
42009,note_on,1,0,0,,2,,,38,127
42009,note_on,0,0,0,,12,,,59,127
42009,note_on,0,0,0,,2,,,50,127
42009,note_on,0,0,0,,2,,,62,127
42161,note_off,152,0,0,,2,,,62,127
42161,note_off,0,0,0,,12,,,59,127
42163,note_on,2,0,0,,1,,,61,127
42163,note_on,0,0,0,,10,,,57,127
42315,note_off,152,0,0,,10,,,57,127
42315,note_off,0,0,0,,1,,,61,127
42315,note_off,0,0,0,,2,,,50,127
42315,note_off,0,0,0,,2,,,38,127
42316,note_on,1,0,0,,12,,,59,127
42316,note_on,0,0,0,,8,,,56,127
42316,note_on,0,0,0,,4,,,40,127
42316,note_on,0,0,0,,4,,,52,127
42468,note_off,152,0,0,,4,,,52,127
42468,note_off,0,0,0,,4,,,40,127
42468,note_off,0,0,0,,8,,,56,127
42468,note_off,0,0,0,,12,,,59,127
42470,note_on,2,0,0,,10,,,57,127
42470,note_on,0,0,0,,10,,,45,127
42622,note_off,152,0,0,,10,,,57,127
42624,note_on,2,0,0,,2,,,74,127
42776,note_off,152,0,0,,2,,,74,127
42777,note_on,1,0,0,,4,,,76,127
42929,note_off,152,0,0,,4,,,76,127
42930,note_off,1,0,0,,10,,,45,127
42931,note_on,1,0,0,,2,,,38,127
42931,note_on,0,0,0,,6,,,78,127
42931,note_on,0,0,0,,2,,,50,127
43083,note_off,152,0,0,,6,,,78,127
43084,note_on,1,0,0,,1,,,73,127
43236,note_off,152,0,0,,1,,,73,127
43238,note_on,2,0,0,,2,,,74,127
43390,note_off,152,0,0,,2,,,74,127
43391,note_off,1,0,0,,2,,,50,127
43391,note_off,0,0,0,,2,,,38,127
43392,note_on,1,0,0,,4,,,76,127
43392,note_on,0,0,0,,1,,,37,127
43392,note_on,0,0,0,,1,,,49,127
43544,note_off,152,0,0,,4,,,76,127
43545,note_on,1,0,0,,10,,,69,127
43697,note_off,152,0,0,,10,,,69,127
43698,note_off,1,0,0,,1,,,49,127
43698,note_off,0,0,0,,1,,,37,127
43699,note_on,1,0,0,,1,,,73,127
43699,note_on,0,0,0,,4,,,76,127
43699,note_on,0,0,0,,2,,,38,127
43699,note_on,0,0,0,,2,,,50,127
43851,note_off,152,0,0,,2,,,50,127
43851,note_off,0,0,0,,2,,,38,127
43851,note_off,0,0,0,,4,,,76,127
43851,note_off,0,0,0,,1,,,73,127
43852,note_on,1,0,0,,4,,,40,127
43852,note_on,0,0,0,,2,,,74,127
43852,note_on,0,0,0,,4,,,52,127
43852,note_on,0,0,0,,12,,,71,127
43852,note_on,0,0,0,,1,,,73,127
43852,note_on,0,0,0,,4,,,76,127
43889,note_off,37,0,0,,4,,,76,127
43889,note_off,0,0,0,,1,,,73,127
44004,note_off,115,0,0,,12,,,71,127
44004,note_off,0,0,0,,2,,,74,127
44006,note_on,2,0,0,,1,,,73,127
44006,note_on,0,0,0,,10,,,69,127
44158,note_off,152,0,0,,10,,,69,127
44158,note_off,0,0,0,,1,,,73,127
44158,note_off,0,0,0,,4,,,52,127
44158,note_off,0,0,0,,4,,,40,127
44160,note_on,2,0,0,,8,,,68,127
44160,note_on,0,0,0,,12,,,71,127
44160,note_on,0,0,0,,4,,,52,127
44160,note_on,0,0,0,,4,,,40,127
44312,note_off,152,0,0,,4,,,40,127
44312,note_off,0,0,0,,4,,,52,127
44312,note_off,0,0,0,,12,,,71,127
44312,note_off,0,0,0,,8,,,68,127
44313,note_on,1,0,0,,10,,,45,127
44313,note_on,0,0,0,,10,,,69,127
44465,note_off,152,0,0,,10,,,69,127
44467,note_on,2,0,0,,8,,,68,127
44619,note_off,152,0,0,,8,,,68,127
44620,note_on,1,0,0,,10,,,69,127
44772,note_off,152,0,0,,10,,,69,127
44773,note_off,1,0,0,,10,,,45,127
44774,note_on,1,0,0,,2,,,38,127
44774,note_on,0,0,0,,12,,,71,127
44774,note_on,0,0,0,,2,,,50,127
44926,note_off,152,0,0,,12,,,71,127
44928,note_on,2,0,0,,6,,,66,127
45080,note_off,152,0,0,,6,,,66,127
45081,note_on,1,0,0,,8,,,68,127
45233,note_off,152,0,0,,8,,,68,127
45234,note_off,1,0,0,,2,,,50,127
45234,note_off,0,0,0,,2,,,38,127
45235,note_on,1,0,0,,1,,,49,127
45235,note_on,0,0,0,,1,,,37,127
45235,note_on,0,0,0,,10,,,69,127
45388,note_on,153,0,0,,4,,,64,127
45540,note_off,152,0,0,,4,,,64,127
45541,note_off,1,0,0,,1,,,37,127
45541,note_off,0,0,0,,1,,,49,127
45542,note_on,1,0,0,,6,,,66,127
45542,note_on,0,0,0,,2,,,50,127
45542,note_on,0,0,0,,2,,,38,127
45694,note_off,152,0,0,,2,,,38,127
45694,note_off,0,0,0,,2,,,50,127
45694,note_off,0,0,0,,6,,,66,127
45696,note_on,2,0,0,,1,,,61,127
45696,note_on,0,0,0,,4,,,40,127
45696,note_on,0,0,0,,4,,,52,127
45848,note_off,152,0,0,,1,,,61,127
45849,note_on,1,0,0,,2,,,62,127
46001,note_off,152,0,0,,2,,,62,127
46002,note_off,1,0,0,,4,,,52,127
46002,note_off,0,0,0,,4,,,40,127
46002,note_off,0,0,0,,10,,,69,127
46003,note_on,1,0,0,,8,,,68,127
46003,note_on,0,0,0,,12,,,59,127
46003,note_on,0,0,0,,2,,,38,127
46003,note_on,0,0,0,,2,,,50,127
46155,note_off,152,0,0,,2,,,50,127
46155,note_off,0,0,0,,2,,,38,127
46155,note_off,0,0,0,,12,,,59,127
46155,note_off,0,0,0,,8,,,68,127
46156,note_on,1,0,0,,1,,,37,127
46156,note_on,0,0,0,,1,,,49,127
46156,note_on,0,0,0,,10,,,69,127
46310,note_on,154,0,0,,4,,,64,127
46462,note_off,152,0,0,,4,,,64,127
46462,note_off,0,0,0,,1,,,49,127
46462,note_off,0,0,0,,1,,,37,127
46464,note_on,2,0,0,,2,,,38,127
46464,note_on,0,0,0,,2,,,50,127
46464,note_on,0,0,0,,6,,,66,127
46616,note_off,152,0,0,,6,,,66,127
46616,note_off,0,0,0,,2,,,50,127
46616,note_off,0,0,0,,2,,,38,127
46617,note_on,1,0,0,,4,,,40,127
46617,note_on,0,0,0,,4,,,52,127
46617,note_on,0,0,0,,1,,,61,127
46769,note_off,152,0,0,,1,,,61,127
46771,note_on,2,0,0,,2,,,62,127
46923,note_off,152,0,0,,2,,,62,127
46923,note_off,0,0,0,,4,,,52,127
46923,note_off,0,0,0,,4,,,40,127
46923,note_off,0,0,0,,10,,,69,127
46924,note_on,1,0,0,,2,,,38,127
46924,note_on,0,0,0,,2,,,50,127
46924,note_on,0,0,0,,12,,,59,127
46924,note_on,0,0,0,,8,,,68,127
47076,note_off,152,0,0,,8,,,68,127
47076,note_off,0,0,0,,12,,,59,127
47076,note_off,0,0,0,,2,,,50,127
47076,note_off,0,0,0,,2,,,38,127
47078,note_on,2,0,0,,1,,,37,127
47078,note_on,0,0,0,,1,,,49,127
47078,note_on,0,0,0,,10,,,69,127
47232,note_on,154,0,0,,4,,,64,127
47384,note_off,152,0,0,,4,,,64,127
47384,note_off,0,0,0,,1,,,49,127
47384,note_off,0,0,0,,1,,,37,127
47385,note_on,1,0,0,,2,,,38,127
47385,note_on,0,0,0,,2,,,50,127
47385,note_on,0,0,0,,6,,,66,127
47537,note_off,152,0,0,,6,,,66,127
47537,note_off,0,0,0,,2,,,50,127
47537,note_off,0,0,0,,2,,,38,127
47539,note_on,2,0,0,,4,,,40,127
47539,note_on,0,0,0,,4,,,52,127
47539,note_on,0,0,0,,1,,,61,127
47691,note_off,152,0,0,,1,,,61,127
47692,note_on,1,0,0,,2,,,62,127
47844,note_off,152,0,0,,2,,,62,127
47845,note_off,1,0,0,,10,,,69,127
47846,note_on,1,0,0,,12,,,59,127
47846,note_on,0,0,0,,8,,,68,127
47998,note_off,152,0,0,,8,,,68,127
47998,note_off,0,0,0,,12,,,59,127
47999,note_off,1,0,0,,4,,,52,127
47999,note_off,0,0,0,,4,,,40,127
48000,note_on,1,0,0,,10,,,69,127
48000,note_on,0,0,0,,10,,,45,127
48000,note_on,0,0,0,,10,,,57,127
48920,note_off,920,0,0,,10,,,57,127
48920,note_off,0,0,0,,10,,,45,127
48920,note_off,0,0,0,,10,,,69,127
48921,note_on,1,0,0,,10,,,57,127
49075,note_on,154,0,0,,10,,,69,127
49227,note_off,152,0,0,,10,,,69,127
49228,note_on,1,0,0,,10,,,69,127
49382,note_on,154,0,0,,12,,,71,127
49534,note_off,152,0,0,,10,,,69,127
49536,note_on,2,0,0,,7,,,67,127
49688,note_off,152,0,0,,7,,,67,127
49689,note_on,1,0,0,,7,,,67,127
49841,note_off,152,0,0,,10,,,57,127
49842,note_off,1,0,0,,12,,,71,127
49843,note_on,1,0,0,,1,,,73,127
49843,note_on,0,0,0,,10,,,57,127
49995,note_off,152,0,0,,1,,,73,127
49996,note_on,1,0,0,,10,,,69,127
50148,note_off,152,0,0,,10,,,69,127
50149,note_off,1,0,0,,7,,,67,127
50150,note_on,1,0,0,,6,,,66,127
50150,note_on,0,0,0,,2,,,74,127
50302,note_off,152,0,0,,2,,,74,127
50302,note_off,0,0,0,,6,,,66,127
50304,note_on,2,0,0,,4,,,76,127
50304,note_on,0,0,0,,4,,,64,127
50456,note_off,152,0,0,,4,,,76,127
50457,note_on,1,0,0,,1,,,73,127
50609,note_off,152,0,0,,1,,,73,127
50610,note_off,1,0,0,,4,,,64,127
50611,note_on,1,0,0,,6,,,78,127
50611,note_on,0,0,0,,2,,,62,127
50763,note_off,152,0,0,,2,,,62,127
50763,note_off,0,0,0,,6,,,78,127
50763,note_off,0,0,0,,10,,,57,127
50764,note_on,1,0,0,,10,,,57,127
50764,note_on,0,0,0,,4,,,76,127
50918,note_on,154,0,0,,10,,,69,127
51070,note_off,152,0,0,,10,,,69,127
51070,note_off,0,0,0,,4,,,76,127
51072,note_on,2,0,0,,10,,,69,127
51225,note_on,153,0,0,,12,,,71,127
51378,note_off,153,0,0,,10,,,69,127
51379,note_on,1,0,0,,7,,,67,127
51531,note_off,152,0,0,,7,,,67,127
51532,note_on,1,0,0,,7,,,67,127
51684,note_off,152,0,0,,10,,,57,127
51685,note_off,1,0,0,,12,,,71,127
51686,note_on,1,0,0,,10,,,57,127
51686,note_on,0,0,0,,1,,,73,127
51838,note_off,152,0,0,,1,,,73,127
51840,note_on,2,0,0,,10,,,69,127
51992,note_off,152,0,0,,10,,,69,127
51992,note_off,0,0,0,,7,,,67,127
51993,note_on,1,0,0,,6,,,66,127
51993,note_on,0,0,0,,2,,,74,127
52145,note_off,152,0,0,,2,,,74,127
52145,note_off,0,0,0,,6,,,66,127
52147,note_on,2,0,0,,4,,,64,127
52147,note_on,0,0,0,,4,,,76,127
52299,note_off,152,0,0,,4,,,76,127
52300,note_on,1,0,0,,1,,,73,127
52452,note_off,152,0,0,,1,,,73,127
52453,note_off,1,0,0,,4,,,64,127
52454,note_on,1,0,0,,2,,,62,127
52454,note_on,0,0,0,,6,,,78,127
52606,note_off,152,0,0,,6,,,78,127
52606,note_off,0,0,0,,2,,,62,127
52606,note_off,0,0,0,,10,,,57,127
52608,note_on,2,0,0,,10,,,57,127
52608,note_on,0,0,0,,4,,,76,127
52760,note_off,152,0,0,,4,,,76,127
52761,note_on,1,0,0,,3,,,75,127
52913,note_off,152,0,0,,3,,,75,127
52915,note_on,2,0,0,,3,,,75,127
53067,note_off,152,0,0,,3,,,75,127
53068,note_off,1,0,0,,10,,,57,127
53068,note_on,0,0,0,,4,,,76,127
53068,note_on,0,0,0,,0,,,72,127
53068,note_on,0,0,0,,10,,,69,127
53220,note_off,152,0,0,,4,,,76,127
53222,note_on,2,0,0,,3,,,75,127
53374,note_off,152,0,0,,3,,,75,127
53376,note_on,2,0,0,,3,,,75,127
53528,note_off,152,0,0,,3,,,75,127
53528,note_off,0,0,0,,10,,,69,127
53528,note_off,0,0,0,,0,,,72,127
53529,note_on,1,0,0,,12,,,71,127
53529,note_on,0,0,0,,7,,,67,127
53529,note_on,0,0,0,,4,,,76,127
53681,note_off,152,0,0,,4,,,76,127
53683,note_on,2,0,0,,3,,,75,127
53835,note_off,152,0,0,,3,,,75,127
53836,note_on,1,0,0,,3,,,75,127
53988,note_off,152,0,0,,3,,,75,127
53989,note_off,1,0,0,,7,,,67,127
53989,note_off,0,0,0,,12,,,71,127
53990,note_on,1,0,0,,4,,,76,127
53990,note_on,0,0,0,,10,,,69,127
53990,note_on,0,0,0,,0,,,72,127
54142,note_off,152,0,0,,4,,,76,127
54144,note_on,2,0,0,,3,,,75,127
54296,note_off,152,0,0,,3,,,75,127
54297,note_on,1,0,0,,3,,,75,127
54449,note_off,152,0,0,,3,,,75,127
54450,note_off,1,0,0,,0,,,72,127
54450,note_off,0,0,0,,10,,,69,127
54451,note_on,1,0,0,,7,,,67,127
54451,note_on,0,0,0,,4,,,76,127
54451,note_on,0,0,0,,12,,,71,127
54603,note_off,152,0,0,,4,,,76,127
54604,note_on,1,0,0,,3,,,75,127
54756,note_off,152,0,0,,3,,,75,127
54758,note_on,2,0,0,,4,,,76,127
54910,note_off,152,0,0,,4,,,76,127
54911,note_off,1,0,0,,12,,,71,127
54911,note_off,0,0,0,,7,,,67,127
54912,note_on,1,0,0,,6,,,78,127
54912,note_on,0,0,0,,6,,,66,127
54912,note_on,0,0,0,,10,,,69,127
55064,note_off,152,0,0,,6,,,78,127
55065,note_on,1,0,0,,7,,,79,127
55217,note_off,152,0,0,,7,,,79,127
55219,note_on,2,0,0,,10,,,81,127
55371,note_off,152,0,0,,10,,,81,127
55372,note_off,1,0,0,,10,,,69,127
55372,note_off,0,0,0,,6,,,66,127
55372,note_on,0,0,0,,7,,,79,127
55372,note_on,0,0,0,,4,,,64,127
55372,note_on,0,0,0,,7,,,67,127
55524,note_off,152,0,0,,7,,,79,127
55526,note_on,2,0,0,,7,,,79,127
55678,note_off,152,0,0,,7,,,79,127
55680,note_on,2,0,0,,6,,,78,127
55832,note_off,152,0,0,,6,,,78,127
55832,note_off,0,0,0,,7,,,67,127
55832,note_off,0,0,0,,4,,,64,127
55833,note_on,1,0,0,,4,,,76,127
55833,note_on,0,0,0,,6,,,78,127
55985,note_off,152,0,0,,6,,,78,127
55985,note_off,0,0,0,,4,,,76,127
55987,note_on,2,0,0,,2,,,74,127
56139,note_off,152,0,0,,2,,,74,127
56140,note_on,1,0,0,,1,,,73,127
56292,note_off,152,0,0,,1,,,73,127
56294,note_on,2,0,0,,4,,,64,127
56294,note_on,0,0,0,,7,,,67,127
56294,note_on,0,0,0,,12,,,71,127
56446,note_off,152,0,0,,12,,,71,127
56448,note_on,2,0,0,,11,,,70,127
56600,note_off,152,0,0,,11,,,70,127
56601,note_on,1,0,0,,11,,,70,127
56753,note_off,152,0,0,,11,,,70,127
56754,note_off,1,0,0,,7,,,67,127
56754,note_off,0,0,0,,4,,,64,127
56755,note_on,1,0,0,,7,,,67,127
56755,note_on,0,0,0,,4,,,64,127
56755,note_on,0,0,0,,12,,,71,127
56907,note_off,152,0,0,,12,,,71,127
56908,note_on,1,0,0,,11,,,70,127
57060,note_off,152,0,0,,11,,,70,127
57062,note_on,2,0,0,,11,,,70,127
57214,note_off,152,0,0,,11,,,70,127
57215,note_off,1,0,0,,4,,,64,127
57215,note_off,0,0,0,,7,,,67,127
57216,note_on,1,0,0,,6,,,66,127
57216,note_on,0,0,0,,2,,,62,127
57216,note_on,0,0,0,,12,,,71,127
57368,note_off,152,0,0,,12,,,71,127
57369,note_on,1,0,0,,11,,,70,127
57521,note_off,152,0,0,,11,,,70,127
57523,note_on,2,0,0,,11,,,70,127
57675,note_off,152,0,0,,11,,,70,127
57676,note_off,1,0,0,,2,,,62,127
57676,note_off,0,0,0,,6,,,66,127
57676,note_on,0,0,0,,4,,,64,127
57676,note_on,0,0,0,,12,,,71,127
57676,note_on,0,0,0,,7,,,67,127
57828,note_off,152,0,0,,12,,,71,127
57830,note_on,2,0,0,,11,,,70,127
57982,note_off,152,0,0,,11,,,70,127
57984,note_on,2,0,0,,11,,,70,127
58136,note_off,152,0,0,,11,,,70,127
58136,note_off,0,0,0,,7,,,67,127
58136,note_off,0,0,0,,4,,,64,127
58137,note_on,1,0,0,,12,,,71,127
58137,note_on,0,0,0,,6,,,66,127
58137,note_on,0,0,0,,2,,,62,127
58289,note_off,152,0,0,,12,,,71,127
58291,note_on,2,0,0,,6,,,78,127
58443,note_off,152,0,0,,6,,,78,127
58444,note_on,1,0,0,,4,,,76,127
58596,note_off,152,0,0,,4,,,76,127
58597,note_off,1,0,0,,2,,,62,127
58597,note_off,0,0,0,,6,,,66,127
58598,note_on,1,0,0,,2,,,74,127
58598,note_on,0,0,0,,4,,,76,127
58741,note_off,143,0,0,,4,,,76,127
58750,note_off,9,0,0,,2,,,74,127
58752,note_on,2,0,0,,1,,,73,127
58904,note_off,152,0,0,,1,,,73,127
58905,note_on,1,0,0,,12,,,71,127
59057,note_off,152,0,0,,12,,,71,127
59059,note_on,2,0,0,,10,,,69,127
59059,note_on,0,0,0,,5,,,65,127
59059,note_on,0,0,0,,2,,,62,127
59211,note_off,152,0,0,,10,,,69,127
59212,note_on,1,0,0,,8,,,68,127
59364,note_off,152,0,0,,8,,,68,127
59366,note_on,2,0,0,,8,,,68,127
59518,note_off,152,0,0,,8,,,68,127
59519,note_off,1,0,0,,2,,,62,127
59519,note_off,0,0,0,,5,,,65,127
59520,note_on,1,0,0,,10,,,69,127
59520,note_on,0,0,0,,5,,,65,127
59520,note_on,0,0,0,,2,,,62,127
59672,note_off,152,0,0,,10,,,69,127
59673,note_on,1,0,0,,8,,,68,127
59825,note_off,152,0,0,,8,,,68,127
59827,note_on,2,0,0,,8,,,68,127
59979,note_off,152,0,0,,8,,,68,127
59980,note_off,1,0,0,,2,,,62,127
59980,note_off,0,0,0,,5,,,65,127
59980,note_on,0,0,0,,10,,,69,127
59980,note_on,0,0,0,,4,,,64,127
59980,note_on,0,0,0,,0,,,60,127
60132,note_off,152,0,0,,10,,,69,127
60134,note_on,2,0,0,,8,,,68,127
60286,note_off,152,0,0,,8,,,68,127
60288,note_on,2,0,0,,8,,,68,127
60440,note_off,152,0,0,,8,,,68,127
60440,note_off,0,0,0,,0,,,60,127
60440,note_off,0,0,0,,4,,,64,127
60441,note_on,1,0,0,,5,,,65,127
60441,note_on,0,0,0,,2,,,62,127
60441,note_on,0,0,0,,10,,,69,127
60593,note_off,152,0,0,,10,,,69,127
60595,note_on,2,0,0,,8,,,68,127
60747,note_off,152,0,0,,8,,,68,127
60748,note_on,1,0,0,,8,,,68,127
60900,note_off,152,0,0,,8,,,68,127
60901,note_off,1,0,0,,2,,,62,127
60901,note_off,0,0,0,,5,,,65,127
60902,note_on,1,0,0,,10,,,69,127
60902,note_on,0,0,0,,4,,,64,127
60902,note_on,0,0,0,,0,,,60,127
61054,note_off,152,0,0,,10,,,69,127
61056,note_on,2,0,0,,4,,,76,127
61208,note_off,152,0,0,,4,,,76,127
61209,note_on,1,0,0,,2,,,74,127
61361,note_off,152,0,0,,2,,,74,127
61362,note_off,1,0,0,,0,,,60,127
61362,note_off,0,0,0,,4,,,64,127
61363,note_on,1,0,0,,0,,,72,127
61363,note_on,0,0,0,,2,,,74,127
61494,note_off,131,0,0,,2,,,74,127
61515,note_off,21,0,0,,0,,,72,127
61516,note_on,1,0,0,,12,,,71,127
61668,note_off,152,0,0,,12,,,71,127
61670,note_on,2,0,0,,10,,,69,127
61822,note_off,152,0,0,,10,,,69,127
61824,note_on,2,0,0,,0,,,60,127
61824,note_on,0,0,0,,4,,,64,127
61824,note_on,0,0,0,,7,,,67,127
61976,note_off,152,0,0,,7,,,67,127
61977,note_on,1,0,0,,6,,,66,127
62129,note_off,152,0,0,,6,,,66,127
62131,note_on,2,0,0,,6,,,66,127
62283,note_off,152,0,0,,6,,,66,127
62284,note_off,1,0,0,,4,,,64,127
62284,note_off,0,0,0,,0,,,60,127
62284,note_on,0,0,0,,7,,,67,127
62284,note_on,0,0,0,,0,,,60,127
62284,note_on,0,0,0,,4,,,64,127
62436,note_off,152,0,0,,7,,,67,127
62438,note_on,2,0,0,,6,,,66,127
62590,note_off,152,0,0,,6,,,66,127
62592,note_on,2,0,0,,6,,,66,127
62744,note_off,152,0,0,,6,,,66,127
62744,note_off,0,0,0,,4,,,64,127
62744,note_off,0,0,0,,0,,,60,127
62745,note_on,1,0,0,,7,,,67,127
62745,note_on,0,0,0,,2,,,62,127
62745,note_on,0,0,0,,12,,,59,127
62897,note_off,152,0,0,,7,,,67,127
62899,note_on,2,0,0,,6,,,66,127
63051,note_off,152,0,0,,6,,,66,127
63052,note_on,1,0,0,,6,,,66,127
63204,note_off,152,0,0,,6,,,66,127
63205,note_off,1,0,0,,12,,,59,127
63205,note_off,0,0,0,,2,,,62,127
63206,note_on,1,0,0,,7,,,67,127
63206,note_on,0,0,0,,4,,,64,127
63206,note_on,0,0,0,,0,,,60,127
63358,note_off,152,0,0,,7,,,67,127
63360,note_on,2,0,0,,6,,,66,127
63512,note_off,152,0,0,,6,,,66,127
63513,note_on,1,0,0,,6,,,66,127
63665,note_off,152,0,0,,6,,,66,127
63666,note_off,1,0,0,,0,,,60,127
63666,note_off,0,0,0,,4,,,64,127
63667,note_on,1,0,0,,7,,,67,127
63667,note_on,0,0,0,,2,,,62,127
63667,note_on,0,0,0,,12,,,59,127
63819,note_off,152,0,0,,7,,,67,127
63820,note_on,1,0,0,,2,,,74,127
63972,note_off,152,0,0,,2,,,74,127
63974,note_on,2,0,0,,0,,,72,127
64126,note_off,152,0,0,,0,,,72,127
64128,note_on,2,0,0,,12,,,71,127
64128,note_on,0,0,0,,0,,,72,127
64247,note_off,119,0,0,,0,,,72,127
64280,note_off,33,0,0,,12,,,71,127
64281,note_on,1,0,0,,10,,,69,127
64433,note_off,152,0,0,,10,,,69,127
64435,note_on,2,0,0,,7,,,67,127
64587,note_off,152,0,0,,7,,,67,127
64587,note_off,0,0,0,,12,,,59,127
64587,note_off,0,0,0,,2,,,62,127
64588,note_on,1,0,0,,10,,,45,127
64588,note_on,0,0,0,,10,,,57,127
64588,note_on,0,0,0,,1,,,73,127
64740,note_off,152,0,0,,1,,,73,127
64742,note_on,2,0,0,,10,,,69,127
64894,note_off,152,0,0,,10,,,69,127
64894,note_off,0,0,0,,10,,,57,127
64894,note_off,0,0,0,,10,,,45,127
64896,note_on,2,0,0,,6,,,54,127
64896,note_on,0,0,0,,2,,,74,127
64896,note_on,0,0,0,,2,,,62,127
65048,note_off,152,0,0,,2,,,62,127
65048,note_off,0,0,0,,2,,,74,127
65048,note_off,0,0,0,,6,,,54,127
65049,note_on,1,0,0,,1,,,61,127
65049,note_on,0,0,0,,4,,,76,127
65049,note_on,0,0,0,,4,,,52,127
65201,note_off,152,0,0,,4,,,76,127
65203,note_on,2,0,0,,10,,,69,127
65355,note_off,152,0,0,,10,,,69,127
65355,note_off,0,0,0,,4,,,52,127
65355,note_off,0,0,0,,1,,,61,127
65356,note_on,1,0,0,,6,,,78,127
65356,note_on,0,0,0,,2,,,50,127
65356,note_on,0,0,0,,2,,,62,127
65508,note_off,152,0,0,,2,,,62,127
65508,note_off,0,0,0,,2,,,50,127
65508,note_off,0,0,0,,6,,,78,127
65510,note_on,2,0,0,,10,,,45,127
65510,note_on,0,0,0,,4,,,76,127
65510,note_on,0,0,0,,10,,,57,127
65662,note_off,152,0,0,,4,,,76,127
65664,note_on,2,0,0,,10,,,69,127
65816,note_off,152,0,0,,10,,,69,127
65816,note_off,0,0,0,,10,,,57,127
65816,note_off,0,0,0,,10,,,45,127
65817,note_on,1,0,0,,2,,,74,127
65817,note_on,0,0,0,,2,,,62,127
65817,note_on,0,0,0,,6,,,54,127
65969,note_off,152,0,0,,6,,,54,127
65969,note_off,0,0,0,,2,,,62,127
65969,note_off,0,0,0,,2,,,74,127
65971,note_on,2,0,0,,4,,,52,127
65971,note_on,0,0,0,,4,,,76,127
65971,note_on,0,0,0,,4,,,64,127
66123,note_off,152,0,0,,4,,,76,127
66124,note_on,1,0,0,,10,,,69,127
66276,note_off,152,0,0,,10,,,69,127
66277,note_off,1,0,0,,4,,,64,127
66277,note_off,0,0,0,,4,,,52,127
66278,note_on,1,0,0,,6,,,78,127
66278,note_on,0,0,0,,2,,,50,127
66278,note_on,0,0,0,,2,,,62,127
66430,note_off,152,0,0,,2,,,62,127
66430,note_off,0,0,0,,2,,,50,127
66430,note_off,0,0,0,,6,,,78,127
66432,note_on,2,0,0,,4,,,76,127
66489,note_on,57,0,0,,10,,,45,127
66545,note_off,56,0,0,,10,,,45,127
66547,note_on,2,0,0,,12,,,47,127
66603,note_off,56,0,0,,12,,,47,127
66604,note_on,1,0,0,,1,,,49,127
66660,note_off,56,0,0,,1,,,49,127
66662,note_on,2,0,0,,2,,,50,127
66718,note_off,56,0,0,,2,,,50,127
66720,note_on,2,0,0,,4,,,52,127
66776,note_off,56,0,0,,4,,,52,127
66777,note_on,1,0,0,,6,,,54,127
66833,note_off,56,0,0,,6,,,54,127
66835,note_on,2,0,0,,8,,,56,127
66891,note_off,56,0,0,,8,,,56,127
66892,note_on,1,0,0,,10,,,57,127
67045,note_off,153,0,0,,4,,,76,127
67046,note_on,1,0,0,,10,,,81,127
67198,note_off,152,0,0,,10,,,81,127
67200,note_on,2,0,0,,7,,,79,127
67352,note_off,152,0,0,,7,,,79,127
67352,note_off,0,0,0,,10,,,57,127
67353,note_on,1,0,0,,2,,,38,127
67353,note_on,0,0,0,,6,,,78,127
67353,note_on,0,0,0,,2,,,74,127
67353,note_on,0,0,0,,2,,,50,127
67353,note_on,0,0,0,,7,,,79,127
67353,note_on,0,0,0,,4,,,76,127
67390,note_off,37,0,0,,4,,,76,127
67390,note_off,0,0,0,,7,,,79,127
67505,note_off,115,0,0,,2,,,74,127
67505,note_off,0,0,0,,6,,,78,127
67507,note_on,2,0,0,,4,,,76,127
67507,note_on,0,0,0,,1,,,73,127
67659,note_off,152,0,0,,1,,,73,127
67659,note_off,0,0,0,,4,,,76,127
67660,note_on,1,0,0,,6,,,78,127
67660,note_on,0,0,0,,2,,,74,127
67812,note_off,152,0,0,,2,,,74,127
67812,note_off,0,0,0,,6,,,78,127
67813,note_off,1,0,0,,2,,,50,127
67813,note_off,0,0,0,,2,,,38,127
67814,note_on,1,0,0,,7,,,43,127
67814,note_on,0,0,0,,4,,,76,127
67814,note_on,0,0,0,,7,,,55,127
67814,note_on,0,0,0,,7,,,79,127
67966,note_off,152,0,0,,7,,,79,127
67966,note_off,0,0,0,,4,,,76,127
67968,note_on,2,0,0,,2,,,74,127
67968,note_on,0,0,0,,6,,,78,127
68120,note_off,152,0,0,,6,,,78,127
68120,note_off,0,0,0,,2,,,74,127
68120,note_off,0,0,0,,7,,,55,127
68120,note_off,0,0,0,,7,,,43,127
68121,note_on,1,0,0,,4,,,76,127
68121,note_on,0,0,0,,10,,,57,127
68121,note_on,0,0,0,,10,,,45,127
68121,note_on,0,0,0,,1,,,73,127
68273,note_off,152,0,0,,1,,,73,127
68273,note_off,0,0,0,,10,,,45,127
68273,note_off,0,0,0,,10,,,57,127
68273,note_off,0,0,0,,4,,,76,127
68275,note_on,2,0,0,,2,,,38,127
68275,note_on,0,0,0,,2,,,50,127
68275,note_on,0,0,0,,2,,,74,127
68427,note_off,152,0,0,,2,,,74,127
68428,note_on,1,0,0,,5,,,77,127
68580,note_off,152,0,0,,5,,,77,127
68582,note_on,2,0,0,,5,,,77,127
68734,note_off,152,0,0,,5,,,77,127
68735,note_off,1,0,0,,2,,,50,127
68735,note_off,0,0,0,,2,,,38,127
68736,note_on,1,0,0,,7,,,79,127
68736,note_on,0,0,0,,7,,,67,127
68736,note_on,0,0,0,,2,,,62,127
68736,note_on,0,0,0,,11,,,70,127
68736,note_on,0,0,0,,5,,,77,127
68812,note_off,76,0,0,,7,,,79,127
68888,note_off,76,0,0,,5,,,77,127
68889,note_on,1,0,0,,4,,,76,127
69041,note_off,152,0,0,,4,,,76,127
69043,note_on,2,0,0,,4,,,76,127
69195,note_off,152,0,0,,4,,,76,127
69196,note_off,1,0,0,,11,,,70,127
69196,note_off,0,0,0,,2,,,62,127
69196,note_off,0,0,0,,7,,,67,127
69196,note_on,0,0,0,,5,,,65,127
69196,note_on,0,0,0,,2,,,62,127
69196,note_on,0,0,0,,4,,,76,127
69196,note_on,0,0,0,,10,,,69,127
69196,note_on,0,0,0,,5,,,77,127
69272,note_off,76,0,0,,5,,,77,127
69348,note_off,76,0,0,,4,,,76,127
69350,note_on,2,0,0,,2,,,74,127
69502,note_off,152,0,0,,2,,,74,127
69504,note_on,2,0,0,,2,,,74,127
69656,note_off,152,0,0,,2,,,74,127
69656,note_off,0,0,0,,10,,,69,127
69656,note_off,0,0,0,,2,,,62,127
69656,note_off,0,0,0,,5,,,65,127
69657,note_on,1,0,0,,7,,,67,127
69657,note_on,0,0,0,,4,,,64,127
69657,note_on,0,0,0,,2,,,62,127
69657,note_on,0,0,0,,4,,,76,127
69657,note_on,0,0,0,,2,,,74,127
69733,note_off,76,0,0,,4,,,76,127
69809,note_off,76,0,0,,2,,,74,127
69811,note_on,2,0,0,,1,,,73,127
69963,note_off,152,0,0,,1,,,73,127
69964,note_on,1,0,0,,1,,,73,127
70116,note_off,152,0,0,,1,,,73,127
70117,note_off,1,0,0,,2,,,62,127
70117,note_off,0,0,0,,4,,,64,127
70117,note_off,0,0,0,,7,,,67,127
70118,note_on,1,0,0,,2,,,74,127
70118,note_on,0,0,0,,2,,,62,127
70118,note_on,0,0,0,,5,,,65,127
70270,note_off,152,0,0,,2,,,74,127
70272,note_on,2,0,0,,10,,,81,127
70424,note_off,152,0,0,,10,,,81,127
70425,note_on,1,0,0,,10,,,81,127
70577,note_off,152,0,0,,10,,,81,127
70578,note_off,1,0,0,,5,,,65,127
70578,note_off,0,0,0,,2,,,62,127
70579,note_on,1,0,0,,11,,,82,127
70579,note_on,0,0,0,,10,,,81,127
70579,note_on,0,0,0,,2,,,62,127
70579,note_on,0,0,0,,2,,,74,127
70579,note_on,0,0,0,,11,,,70,127
70655,note_off,76,0,0,,11,,,82,127
70731,note_off,76,0,0,,10,,,81,127
70732,note_on,1,0,0,,7,,,79,127
70884,note_off,152,0,0,,7,,,79,127
70886,note_on,2,0,0,,7,,,79,127
71038,note_off,152,0,0,,7,,,79,127
71039,note_off,1,0,0,,11,,,70,127
71039,note_off,0,0,0,,2,,,74,127
71039,note_off,0,0,0,,2,,,62,127
71040,note_on,1,0,0,,2,,,62,127
71040,note_on,0,0,0,,2,,,74,127
71040,note_on,0,0,0,,10,,,69,127
71040,note_on,0,0,0,,10,,,81,127
71040,note_on,0,0,0,,7,,,79,127
71116,note_off,76,0,0,,10,,,81,127
71192,note_off,76,0,0,,7,,,79,127
71193,note_on,1,0,0,,5,,,77,127
71345,note_off,152,0,0,,5,,,77,127
71347,note_on,2,0,0,,5,,,77,127
71499,note_off,152,0,0,,5,,,77,127
71500,note_off,1,0,0,,10,,,69,127
71500,note_off,0,0,0,,2,,,74,127
71500,note_off,0,0,0,,2,,,62,127
71500,note_on,0,0,0,,7,,,67,127
71500,note_on,0,0,0,,2,,,62,127
71500,note_on,0,0,0,,11,,,70,127
71500,note_on,0,0,0,,7,,,79,127
71500,note_on,0,0,0,,5,,,77,127
71576,note_off,76,0,0,,7,,,79,127
71652,note_off,76,0,0,,5,,,77,127
71654,note_on,2,0,0,,4,,,76,127
71806,note_off,152,0,0,,4,,,76,127
71808,note_on,2,0,0,,4,,,76,127
71960,note_off,152,0,0,,4,,,76,127
71960,note_off,0,0,0,,11,,,70,127
71960,note_off,0,0,0,,2,,,62,127
71960,note_off,0,0,0,,7,,,67,127
71961,note_on,1,0,0,,2,,,62,127
71961,note_on,0,0,0,,10,,,69,127
71961,note_on,0,0,0,,5,,,65,127
71961,note_on,0,0,0,,5,,,77,127
71961,note_on,0,0,0,,4,,,76,127
72037,note_off,76,0,0,,5,,,77,127
72113,note_off,76,0,0,,4,,,76,127
72115,note_on,2,0,0,,2,,,74,127
72267,note_off,152,0,0,,2,,,74,127
72268,note_on,1,0,0,,2,,,74,127
72420,note_off,152,0,0,,2,,,74,127
72421,note_off,1,0,0,,5,,,65,127
72421,note_off,0,0,0,,10,,,69,127
72421,note_off,0,0,0,,2,,,62,127
72422,note_on,1,0,0,,7,,,67,127
72422,note_on,0,0,0,,4,,,64,127
72422,note_on,0,0,0,,4,,,76,127
72422,note_on,0,0,0,,2,,,74,127
72498,note_off,76,0,0,,4,,,76,127
72574,note_off,76,0,0,,2,,,74,127
72576,note_on,2,0,0,,0,,,72,127
72728,note_off,152,0,0,,0,,,72,127
72729,note_on,1,0,0,,0,,,72,127
72881,note_off,152,0,0,,0,,,72,127
72882,note_off,1,0,0,,4,,,64,127
72882,note_off,0,0,0,,7,,,67,127
72883,note_on,1,0,0,,0,,,72,127
72883,note_on,0,0,0,,2,,,74,127
72883,note_on,0,0,0,,2,,,62,127
72883,note_on,0,0,0,,5,,,65,127
72959,note_off,76,0,0,,2,,,74,127
73035,note_off,76,0,0,,0,,,72,127
73036,note_on,1,0,0,,11,,,70,127
73188,note_off,152,0,0,,11,,,70,127
73189,note_off,1,0,0,,5,,,65,127
73189,note_off,0,0,0,,2,,,62,127
73190,note_on,1,0,0,,0,,,60,127
73190,note_on,0,0,0,,10,,,69,127
73190,note_on,0,0,0,,4,,,64,127
73342,note_off,152,0,0,,4,,,64,127
73342,note_off,0,0,0,,10,,,69,127
73342,note_off,0,0,0,,0,,,60,127
73344,note_on,2,0,0,,2,,,62,127
73344,note_on,0,0,0,,10,,,69,127
73344,note_on,0,0,0,,11,,,58,127
73344,note_on,0,0,0,,2,,,74,127
73344,note_on,0,0,0,,7,,,67,127
73420,note_off,76,0,0,,10,,,69,127
73496,note_off,76,0,0,,7,,,67,127
73497,note_on,1,0,0,,5,,,65,127
73649,note_off,152,0,0,,5,,,65,127
73651,note_on,2,0,0,,7,,,67,127
73803,note_off,152,0,0,,7,,,67,127
73804,note_off,1,0,0,,2,,,74,127
73804,note_off,0,0,0,,11,,,58,127
73804,note_off,0,0,0,,2,,,62,127
73804,note_on,0,0,0,,1,,,73,127
73804,note_on,0,0,0,,10,,,69,127
73804,note_on,0,0,0,,10,,,57,127
73958,note_on,154,0,0,,2,,,62,127
74034,note_off,76,0,0,,2,,,62,127
74035,note_on,1,0,0,,4,,,64,127
74110,note_off,75,0,0,,10,,,69,127
74110,note_off,0,0,0,,1,,,73,127
74111,note_off,1,0,0,,4,,,64,127
74112,note_on,1,0,0,,10,,,69,127
74264,note_off,152,0,0,,10,,,69,127
74264,note_off,0,0,0,,10,,,57,127
74265,note_on,1,0,0,,11,,,58,127
74419,note_on,154,0,0,,2,,,62,127
74495,note_off,76,0,0,,2,,,62,127
74496,note_on,1,0,0,,4,,,64,127
74572,note_off,76,0,0,,4,,,64,127
74572,note_on,0,0,0,,7,,,67,127
74572,note_on,0,0,0,,4,,,76,127
74724,note_off,152,0,0,,7,,,67,127
74725,note_off,1,0,0,,11,,,58,127
74726,note_on,1,0,0,,10,,,57,127
74878,note_off,152,0,0,,4,,,76,127
74880,note_on,2,0,0,,2,,,62,127
74956,note_off,76,0,0,,2,,,62,127
74956,note_on,0,0,0,,4,,,64,127
75032,note_off,76,0,0,,4,,,64,127
75033,note_on,1,0,0,,10,,,69,127
75185,note_off,152,0,0,,10,,,69,127
75186,note_off,1,0,0,,10,,,57,127
75187,note_on,1,0,0,,11,,,58,127
75340,note_on,153,0,0,,2,,,62,127
75416,note_off,76,0,0,,2,,,62,127
75417,note_on,1,0,0,,4,,,64,127
75493,note_off,76,0,0,,4,,,64,127
75494,note_on,1,0,0,,7,,,67,127
75494,note_on,0,0,0,,4,,,76,127
75646,note_off,152,0,0,,7,,,67,127
75647,note_off,1,0,0,,11,,,58,127
75648,note_on,1,0,0,,10,,,57,127
75800,note_off,152,0,0,,4,,,76,127
75801,note_on,1,0,0,,2,,,62,127
75877,note_off,76,0,0,,2,,,62,127
75878,note_on,1,0,0,,4,,,64,127
75954,note_off,76,0,0,,4,,,64,127
75955,note_on,1,0,0,,10,,,69,127
76107,note_off,152,0,0,,10,,,69,127
76108,note_off,1,0,0,,10,,,57,127
76108,note_on,0,0,0,,11,,,58,127
76262,note_on,154,0,0,,2,,,62,127
76338,note_off,76,0,0,,2,,,62,127
76339,note_on,1,0,0,,4,,,64,127
76415,note_off,76,0,0,,4,,,64,127
76416,note_on,1,0,0,,7,,,67,127
76416,note_on,0,0,0,,4,,,76,127
76568,note_off,152,0,0,,4,,,76,127
76568,note_off,0,0,0,,7,,,67,127
76568,note_off,0,0,0,,11,,,58,127
76569,note_on,1,0,0,,10,,,57,127
76645,note_off,76,0,0,,10,,,57,127
76646,note_on,1,0,0,,2,,,62,127
76722,note_off,76,0,0,,2,,,62,127
76723,note_on,1,0,0,,4,,,64,127
76799,note_off,76,0,0,,4,,,64,127
76800,note_on,1,0,0,,10,,,69,127
76876,note_off,76,0,0,,10,,,69,127
76876,note_on,0,0,0,,1,,,61,127
76876,note_on,0,0,0,,7,,,79,127
77028,note_off,152,0,0,,7,,,79,127
77028,note_off,0,0,0,,1,,,61,127
77030,note_on,2,0,0,,2,,,62,127
77030,note_on,0,0,0,,5,,,77,127
77182,note_off,152,0,0,,5,,,77,127
77184,note_on,2,0,0,,2,,,74,127
77336,note_off,152,0,0,,2,,,74,127
77337,note_on,1,0,0,,10,,,81,127
77489,note_off,152,0,0,,10,,,81,127
77490,note_off,1,0,0,,2,,,62,127
77491,note_on,1,0,0,,11,,,82,127
77491,note_on,0,0,0,,7,,,43,127
77491,note_on,0,0,0,,7,,,55,127
77643,note_off,152,0,0,,11,,,82,127
77644,note_on,1,0,0,,7,,,79,127
77796,note_off,152,0,0,,7,,,79,127
77798,note_on,2,0,0,,4,,,76,127
77951,note_off,153,0,0,,7,,,55,127
77951,note_off,0,0,0,,7,,,43,127
77952,note_on,1,0,0,,10,,,45,127
77952,note_on,0,0,0,,10,,,57,127
78104,note_off,152,0,0,,4,,,76,127
78105,note_on,1,0,0,,2,,,74,127
78257,note_off,152,0,0,,2,,,74,127
78259,note_on,2,0,0,,1,,,73,127
78411,note_off,152,0,0,,1,,,73,127
78412,note_off,1,0,0,,10,,,57,127
78412,note_off,0,0,0,,10,,,45,127
78412,note_on,0,0,0,,1,,,73,127
78412,note_on,0,0,0,,11,,,58,127
78564,note_off,152,0,0,,11,,,58,127
78564,note_off,0,0,0,,1,,,73,127
78566,note_on,2,0,0,,2,,,74,127
78566,note_on,0,0,0,,2,,,62,127
78642,note_off,76,0,0,,2,,,62,127
78643,note_on,1,0,0,,4,,,64,127
78718,note_off,75,0,0,,2,,,74,127
78719,note_off,1,0,0,,4,,,64,127
78720,note_on,1,0,0,,7,,,67,127
78873,note_on,153,0,0,,7,,,55,127
79025,note_off,152,0,0,,7,,,55,127
79027,note_on,2,0,0,,2,,,62,127
79103,note_off,76,0,0,,2,,,62,127
79104,note_on,1,0,0,,4,,,64,127
79180,note_off,76,0,0,,4,,,64,127
79180,note_off,0,0,0,,7,,,67,127
79180,note_on,0,0,0,,7,,,67,127
79180,note_on,0,0,0,,4,,,76,127
79334,note_on,154,0,0,,10,,,57,127
79409,note_off,75,0,0,,4,,,76,127
79486,note_off,77,0,0,,10,,,57,127
79488,note_on,2,0,0,,2,,,62,127
79564,note_off,76,0,0,,2,,,62,127
79564,note_on,0,0,0,,4,,,64,127
79640,note_off,76,0,0,,4,,,64,127
79640,note_off,0,0,0,,7,,,67,127
79641,note_on,1,0,0,,10,,,69,127
79795,note_on,154,0,0,,11,,,58,127
79947,note_off,152,0,0,,11,,,58,127
79948,note_on,1,0,0,,2,,,62,127
80024,note_off,76,0,0,,2,,,62,127
80025,note_on,1,0,0,,4,,,64,127
80101,note_off,76,0,0,,4,,,64,127
80101,note_off,0,0,0,,10,,,69,127
80102,note_on,1,0,0,,7,,,67,127
80102,note_on,0,0,0,,4,,,76,127
80256,note_on,154,0,0,,10,,,57,127
80331,note_off,75,0,0,,4,,,76,127
80408,note_off,77,0,0,,10,,,57,127
80409,note_on,1,0,0,,2,,,62,127
80485,note_off,76,0,0,,2,,,62,127
80486,note_on,1,0,0,,4,,,64,127
80562,note_off,76,0,0,,4,,,64,127
80562,note_off,0,0,0,,7,,,67,127
80563,note_on,1,0,0,,10,,,69,127
80716,note_on,153,0,0,,11,,,58,127
80868,note_off,152,0,0,,11,,,58,127
80870,note_on,2,0,0,,2,,,62,127
80946,note_off,76,0,0,,2,,,62,127
80947,note_on,1,0,0,,4,,,64,127
81023,note_off,76,0,0,,4,,,64,127
81023,note_off,0,0,0,,10,,,69,127
81024,note_on,1,0,0,,7,,,67,127
81024,note_on,0,0,0,,4,,,76,127
81177,note_on,153,0,0,,10,,,57,127
81215,note_off,38,0,0,,4,,,76,127
81329,note_off,114,0,0,,10,,,57,127
81330,note_off,1,0,0,,7,,,67,127
81331,note_on,1,0,0,,2,,,62,127
81407,note_off,76,0,0,,2,,,62,127
81408,note_on,1,0,0,,4,,,64,127
81484,note_off,76,0,0,,4,,,64,127
81484,note_on,0,0,0,,1,,,85,127
81484,note_on,0,0,0,,10,,,69,127
81636,note_off,152,0,0,,10,,,69,127
81636,note_off,0,0,0,,1,,,85,127
81638,note_on,2,0,0,,2,,,62,127
81638,note_on,0,0,0,,2,,,86,127
81790,note_off,152,0,0,,2,,,86,127
81790,note_off,0,0,0,,2,,,62,127
81792,note_on,2,0,0,,10,,,81,127
81944,note_off,152,0,0,,10,,,81,127
81945,note_on,1,0,0,,5,,,77,127
82097,note_off,152,0,0,,5,,,77,127
82099,note_on,2,0,0,,7,,,55,127
82099,note_on,0,0,0,,7,,,43,127
82099,note_on,0,0,0,,11,,,82,127
82251,note_off,152,0,0,,11,,,82,127
82252,note_on,1,0,0,,7,,,79,127
82404,note_off,152,0,0,,7,,,79,127
82406,note_on,2,0,0,,4,,,76,127
82559,note_off,153,0,0,,7,,,43,127
82559,note_off,0,0,0,,7,,,55,127
82560,note_on,1,0,0,,10,,,57,127
82560,note_on,0,0,0,,10,,,45,127
82712,note_off,152,0,0,,4,,,76,127
82713,note_on,1,0,0,,2,,,74,127
82865,note_off,152,0,0,,2,,,74,127
82867,note_on,2,0,0,,1,,,73,127
83019,note_off,152,0,0,,1,,,73,127
83020,note_off,1,0,0,,10,,,45,127
83020,note_off,0,0,0,,10,,,57,127
83020,note_on,0,0,0,,2,,,86,127
83078,note_on,58,0,0,,2,,,50,127
83134,note_off,56,0,0,,2,,,50,127
83136,note_on,2,0,0,,4,,,52,127
83192,note_off,56,0,0,,4,,,52,127
83193,note_on,1,0,0,,6,,,54,127
83249,note_off,56,0,0,,6,,,54,127
83251,note_on,2,0,0,,7,,,55,127
83307,note_off,56,0,0,,7,,,55,127
83308,note_on,1,0,0,,10,,,57,127
83364,note_off,56,0,0,,10,,,57,127
83366,note_on,2,0,0,,12,,,59,127
83422,note_off,56,0,0,,12,,,59,127
83424,note_on,2,0,0,,1,,,61,127
83480,note_off,56,0,0,,1,,,61,127
83481,note_on,1,0,0,,2,,,62,127
83537,note_off,56,0,0,,2,,,86,127
83539,note_on,2,0,0,,1,,,85,127
83595,note_off,56,0,0,,1,,,85,127
83596,note_on,1,0,0,,12,,,83,127
83652,note_off,56,0,0,,12,,,83,127
83654,note_on,2,0,0,,10,,,81,127
83710,note_off,56,0,0,,10,,,81,127
83712,note_on,2,0,0,,7,,,79,127
83768,note_off,56,0,0,,7,,,79,127
83769,note_on,1,0,0,,6,,,78,127
83825,note_off,56,0,0,,6,,,78,127
83827,note_on,2,0,0,,4,,,76,127
83883,note_off,56,0,0,,4,,,76,127
83884,note_on,1,0,0,,2,,,74,127
83940,note_off,56,0,0,,2,,,74,127
83942,note_on,2,0,0,,12,,,83,127
83998,note_off,56,0,0,,2,,,62,127
84000,note_on,2,0,0,,7,,,55,127
84056,note_off,56,0,0,,7,,,55,127
84057,note_on,1,0,0,,10,,,57,127
84113,note_off,56,0,0,,10,,,57,127
84115,note_on,2,0,0,,12,,,59,127
84171,note_off,56,0,0,,12,,,59,127
84172,note_on,1,0,0,,1,,,61,127
84228,note_off,56,0,0,,1,,,61,127
84230,note_on,2,0,0,,2,,,62,127
84286,note_off,56,0,0,,2,,,62,127
84288,note_on,2,0,0,,4,,,64,127
84344,note_off,56,0,0,,4,,,64,127
84345,note_on,1,0,0,,6,,,66,127
84401,note_off,56,0,0,,6,,,66,127
84403,note_on,2,0,0,,7,,,67,127
84459,note_off,56,0,0,,12,,,83,127
84460,note_on,1,0,0,,10,,,81,127
84516,note_off,56,0,0,,10,,,81,127
84518,note_on,2,0,0,,7,,,79,127
84574,note_off,56,0,0,,7,,,79,127
84576,note_on,2,0,0,,6,,,78,127
84632,note_off,56,0,0,,6,,,78,127
84633,note_on,1,0,0,,4,,,76,127
84689,note_off,56,0,0,,4,,,76,127
84691,note_on,2,0,0,,2,,,74,127
84747,note_off,56,0,0,,2,,,74,127
84748,note_on,1,0,0,,1,,,73,127
84804,note_off,56,0,0,,1,,,73,127
84806,note_on,2,0,0,,12,,,71,127
84862,note_off,56,0,0,,12,,,71,127
84863,note_off,1,0,0,,7,,,67,127
84864,note_on,1,0,0,,10,,,69,127
84920,note_off,56,0,0,,10,,,69,127
84921,note_on,1,0,0,,10,,,81,127
84921,note_on,0,0,0,,2,,,50,127
84977,note_off,56,0,0,,2,,,50,127
84979,note_on,2,0,0,,4,,,52,127
85035,note_off,56,0,0,,4,,,52,127
85036,note_on,1,0,0,,6,,,54,127
85092,note_off,56,0,0,,6,,,54,127
85094,note_on,2,0,0,,7,,,55,127
85150,note_off,56,0,0,,7,,,55,127
85152,note_on,2,0,0,,10,,,57,127
85208,note_off,56,0,0,,10,,,57,127
85209,note_on,1,0,0,,12,,,59,127
85265,note_off,56,0,0,,12,,,59,127
85267,note_on,2,0,0,,1,,,61,127
85323,note_off,56,0,0,,1,,,61,127
85324,note_on,1,0,0,,2,,,62,127
85381,note_off,57,0,0,,10,,,81,127
85382,note_on,1,0,0,,7,,,79,127
85438,note_off,56,0,0,,7,,,79,127
85440,note_on,2,0,0,,6,,,78,127
85496,note_off,56,0,0,,6,,,78,127
85497,note_on,1,0,0,,4,,,76,127
85553,note_off,56,0,0,,4,,,76,127
85555,note_on,2,0,0,,2,,,74,127
85611,note_off,56,0,0,,2,,,74,127
85612,note_on,1,0,0,,1,,,73,127
85668,note_off,56,0,0,,1,,,73,127
85670,note_on,2,0,0,,12,,,71,127
85726,note_off,56,0,0,,12,,,71,127
85728,note_on,2,0,0,,10,,,69,127
85784,note_off,56,0,0,,10,,,69,127
85784,note_off,0,0,0,,2,,,62,127
85785,note_on,1,0,0,,12,,,71,127
85785,note_on,0,0,0,,7,,,79,127
85785,note_on,0,0,0,,7,,,43,127
85785,note_on,0,0,0,,7,,,55,127
85937,note_off,152,0,0,,7,,,79,127
85939,note_on,2,0,0,,6,,,78,127
86091,note_off,152,0,0,,6,,,78,127
86092,note_on,1,0,0,,4,,,76,127
86244,note_off,152,0,0,,4,,,76,127
86245,note_off,1,0,0,,7,,,55,127
86245,note_off,0,0,0,,7,,,43,127
86245,note_off,0,0,0,,12,,,71,127
86246,note_on,1,0,0,,10,,,57,127
86246,note_on,0,0,0,,2,,,74,127
86246,note_on,0,0,0,,10,,,45,127
86246,note_on,0,0,0,,10,,,69,127
86398,note_off,152,0,0,,2,,,74,127
86400,note_on,2,0,0,,4,,,76,127
86552,note_off,152,0,0,,4,,,76,127
86553,note_on,1,0,0,,1,,,73,127
86705,note_off,152,0,0,,1,,,73,127
86706,note_off,1,0,0,,10,,,69,127
86706,note_off,0,0,0,,10,,,45,127
86706,note_off,0,0,0,,10,,,57,127
86707,note_on,1,0,0,,2,,,74,127
86764,note_on,57,0,0,,2,,,38,127
86820,note_off,56,0,0,,2,,,38,127
86822,note_on,2,0,0,,4,,,40,127
86878,note_off,56,0,0,,4,,,40,127
86880,note_on,2,0,0,,6,,,42,127
86936,note_off,56,0,0,,6,,,42,127
86937,note_on,1,0,0,,7,,,43,127
86993,note_off,56,0,0,,7,,,43,127
86995,note_on,2,0,0,,10,,,45,127
87051,note_off,56,0,0,,10,,,45,127
87052,note_on,1,0,0,,12,,,47,127
87108,note_off,56,0,0,,12,,,47,127
87110,note_on,2,0,0,,1,,,49,127
87166,note_off,56,0,0,,1,,,49,127
87168,note_on,2,0,0,,2,,,50,127
87224,note_off,56,0,0,,2,,,74,127
87225,note_on,1,0,0,,1,,,73,127
87281,note_off,56,0,0,,1,,,73,127
87283,note_on,2,0,0,,12,,,71,127
87339,note_off,56,0,0,,12,,,71,127
87340,note_on,1,0,0,,10,,,69,127
87396,note_off,56,0,0,,10,,,69,127
87398,note_on,2,0,0,,7,,,67,127
87454,note_off,56,0,0,,7,,,67,127
87456,note_on,2,0,0,,6,,,66,127
87512,note_off,56,0,0,,6,,,66,127
87513,note_on,1,0,0,,4,,,64,127
87569,note_off,56,0,0,,4,,,64,127
87571,note_on,2,0,0,,2,,,62,127
87627,note_off,56,0,0,,2,,,62,127
87628,note_on,1,0,0,,12,,,71,127
87685,note_off,57,0,0,,2,,,50,127
87686,note_on,1,0,0,,7,,,43,127
87742,note_off,56,0,0,,7,,,43,127
87744,note_on,2,0,0,,10,,,45,127
87800,note_off,56,0,0,,10,,,45,127
87801,note_on,1,0,0,,12,,,47,127
87857,note_off,56,0,0,,12,,,47,127
87859,note_on,2,0,0,,1,,,49,127
87915,note_off,56,0,0,,1,,,49,127
87916,note_on,1,0,0,,2,,,50,127
87972,note_off,56,0,0,,2,,,50,127
87974,note_on,2,0,0,,4,,,52,127
88030,note_off,56,0,0,,4,,,52,127
88032,note_on,2,0,0,,6,,,54,127
88088,note_off,56,0,0,,6,,,54,127
88089,note_on,1,0,0,,7,,,55,127
88145,note_off,56,0,0,,12,,,71,127
88147,note_on,2,0,0,,10,,,69,127
88203,note_off,56,0,0,,10,,,69,127
88204,note_on,1,0,0,,7,,,67,127
88260,note_off,56,0,0,,7,,,67,127
88262,note_on,2,0,0,,6,,,66,127
88318,note_off,56,0,0,,6,,,66,127
88320,note_on,2,0,0,,4,,,64,127
88376,note_off,56,0,0,,4,,,64,127
88377,note_on,1,0,0,,2,,,62,127
88433,note_off,56,0,0,,2,,,62,127
88435,note_on,2,0,0,,1,,,61,127
88491,note_off,56,0,0,,1,,,61,127
88492,note_on,1,0,0,,12,,,59,127
88548,note_off,56,0,0,,12,,,59,127
88549,note_off,1,0,0,,7,,,55,127
88550,note_on,1,0,0,,10,,,57,127
88606,note_off,56,0,0,,10,,,57,127
88608,note_on,2,0,0,,2,,,38,127
88608,note_on,0,0,0,,10,,,69,127
88664,note_off,56,0,0,,2,,,38,127
88665,note_on,1,0,0,,4,,,40,127
88721,note_off,56,0,0,,4,,,40,127
88723,note_on,2,0,0,,6,,,42,127
88779,note_off,56,0,0,,6,,,42,127
88780,note_on,1,0,0,,7,,,43,127
88836,note_off,56,0,0,,7,,,43,127
88838,note_on,2,0,0,,10,,,45,127
88894,note_off,56,0,0,,10,,,45,127
88896,note_on,2,0,0,,12,,,47,127
88952,note_off,56,0,0,,12,,,47,127
88953,note_on,1,0,0,,1,,,49,127
89009,note_off,56,0,0,,1,,,49,127
89011,note_on,2,0,0,,2,,,50,127
89068,note_off,57,0,0,,10,,,69,127
89068,note_on,0,0,0,,7,,,67,127
89124,note_off,56,0,0,,7,,,67,127
89126,note_on,2,0,0,,6,,,66,127
89182,note_off,56,0,0,,6,,,66,127
89184,note_on,2,0,0,,4,,,64,127
89240,note_off,56,0,0,,4,,,64,127
89241,note_on,1,0,0,,2,,,62,127
89297,note_off,56,0,0,,2,,,62,127
89299,note_on,2,0,0,,1,,,61,127
89355,note_off,56,0,0,,1,,,61,127
89356,note_on,1,0,0,,12,,,59,127
89412,note_off,56,0,0,,12,,,59,127
89414,note_on,2,0,0,,10,,,57,127
89470,note_off,56,0,0,,10,,,57,127
89471,note_off,1,0,0,,2,,,50,127
89472,note_on,1,0,0,,7,,,43,127
89472,note_on,0,0,0,,12,,,59,127
89472,note_on,0,0,0,,7,,,67,127
89624,note_off,152,0,0,,7,,,67,127
89625,note_on,1,0,0,,6,,,66,127
89777,note_off,152,0,0,,6,,,66,127
89779,note_on,2,0,0,,4,,,64,127
89931,note_off,152,0,0,,4,,,64,127
89932,note_off,1,0,0,,12,,,59,127
89932,note_off,0,0,0,,7,,,43,127
89932,note_on,0,0,0,,10,,,45,127
89932,note_on,0,0,0,,10,,,57,127
89932,note_on,0,0,0,,2,,,62,127
90084,note_off,152,0,0,,2,,,62,127
90086,note_on,2,0,0,,4,,,64,127
90238,note_off,152,0,0,,4,,,64,127
90240,note_on,2,0,0,,1,,,61,127
90392,note_off,152,0,0,,1,,,61,127
90392,note_off,0,0,0,,10,,,57,127
90392,note_off,0,0,0,,10,,,45,127
90393,note_on,1,0,0,,2,,,62,127
90393,note_on,0,0,0,,2,,,38,127
90545,note_off,152,0,0,,2,,,62,127
90547,note_on,2,0,0,,2,,,86,127
90699,note_off,152,0,0,,2,,,86,127
90700,note_on,1,0,0,,10,,,81,127
90852,note_off,152,0,0,,10,,,81,127
90854,note_on,2,0,0,,6,,,78,127
91005,note_off,151,0,0,,2,,,38,127
91006,note_off,1,0,0,,6,,,78,127
91008,note_on,2,0,0,,2,,,74,127
91008,note_on,0,0,0,,6,,,42,127
91160,note_off,152,0,0,,6,,,42,127
91160,note_off,0,0,0,,2,,,74,127
91161,note_on,1,0,0,,10,,,69,127
91161,note_on,0,0,0,,10,,,45,127
91313,note_off,152,0,0,,10,,,45,127
91313,note_off,0,0,0,,10,,,69,127
91315,note_on,2,0,0,,6,,,66,127
91315,note_on,0,0,0,,2,,,50,127
91467,note_off,152,0,0,,2,,,50,127
91467,note_off,0,0,0,,6,,,66,127
91468,note_on,1,0,0,,2,,,86,127
91468,note_on,0,0,0,,2,,,38,127
91620,note_off,152,0,0,,2,,,86,127
91622,note_on,2,0,0,,10,,,81,127
91774,note_off,152,0,0,,10,,,81,127
91776,note_on,2,0,0,,6,,,78,127
91928,note_off,152,0,0,,6,,,78,127
91928,note_off,0,0,0,,2,,,38,127
91929,note_on,1,0,0,,6,,,42,127
91929,note_on,0,0,0,,2,,,74,127
92081,note_off,152,0,0,,2,,,74,127
92081,note_off,0,0,0,,6,,,42,127
92083,note_on,2,0,0,,10,,,45,127
92083,note_on,0,0,0,,10,,,69,127
92235,note_off,152,0,0,,10,,,69,127
92235,note_off,0,0,0,,10,,,45,127
92236,note_on,1,0,0,,2,,,50,127
92236,note_on,0,0,0,,6,,,66,127
92236,note_on,0,0,0,,2,,,38,127
92236,note_on,0,0,0,,2,,,62,127
92236,note_on,0,0,0,,7,,,67,127
92236,note_on,0,0,0,,4,,,64,127
92273,note_off,37,0,0,,4,,,64,127
92273,note_off,0,0,0,,7,,,67,127
92388,note_off,115,0,0,,2,,,62,127
92388,note_off,0,0,0,,6,,,66,127
92390,note_on,2,0,0,,4,,,64,127
92390,note_on,0,0,0,,1,,,61,127
92542,note_off,152,0,0,,1,,,61,127
92542,note_off,0,0,0,,4,,,64,127
92544,note_on,2,0,0,,6,,,66,127
92544,note_on,0,0,0,,2,,,62,127
92696,note_off,152,0,0,,2,,,62,127
92696,note_off,0,0,0,,6,,,66,127
92696,note_off,0,0,0,,2,,,38,127
92696,note_off,0,0,0,,2,,,50,127
92697,note_on,1,0,0,,7,,,43,127
92697,note_on,0,0,0,,7,,,55,127
92697,note_on,0,0,0,,4,,,64,127
92697,note_on,0,0,0,,7,,,67,127
92849,note_off,152,0,0,,7,,,67,127
92849,note_off,0,0,0,,4,,,64,127
92851,note_on,2,0,0,,6,,,66,127
92851,note_on,0,0,0,,2,,,62,127
93003,note_off,152,0,0,,2,,,62,127
93003,note_off,0,0,0,,6,,,66,127
93003,note_off,0,0,0,,7,,,55,127
93003,note_off,0,0,0,,7,,,43,127
93004,note_on,1,0,0,,1,,,61,127
93004,note_on,0,0,0,,10,,,45,127
93004,note_on,0,0,0,,10,,,57,127
93004,note_on,0,0,0,,4,,,64,127
93156,note_off,152,0,0,,4,,,64,127
93156,note_off,0,0,0,,10,,,57,127
93156,note_off,0,0,0,,10,,,45,127
93156,note_off,0,0,0,,1,,,61,127
93158,note_on,2,0,0,,2,,,50,127
93158,note_on,0,0,0,,2,,,38,127
93158,note_on,0,0,0,,2,,,62,127
93310,note_off,152,0,0,,2,,,62,127
93312,note_on,2,0,0,,7,,,79,127
93464,note_off,152,0,0,,7,,,79,127
93465,note_on,1,0,0,,10,,,81,127
93617,note_off,152,0,0,,10,,,81,127
93618,note_off,1,0,0,,2,,,38,127
93618,note_off,0,0,0,,2,,,50,127
93619,note_on,1,0,0,,12,,,83,127
93619,note_on,0,0,0,,7,,,43,127
93619,note_on,0,0,0,,7,,,55,127
93771,note_off,152,0,0,,12,,,83,127
93772,note_on,1,0,0,,6,,,78,127
93924,note_off,152,0,0,,6,,,78,127
93926,note_on,2,0,0,,7,,,79,127
94078,note_off,152,0,0,,7,,,79,127
94079,note_off,1,0,0,,7,,,55,127
94079,note_off,0,0,0,,7,,,43,127
94080,note_on,1,0,0,,6,,,42,127
94080,note_on,0,0,0,,6,,,54,127
94080,note_on,0,0,0,,10,,,81,127
94232,note_off,152,0,0,,10,,,81,127
94233,note_on,1,0,0,,2,,,74,127
94385,note_off,152,0,0,,2,,,74,127
94386,note_off,1,0,0,,6,,,54,127
94386,note_off,0,0,0,,6,,,42,127
94387,note_on,1,0,0,,7,,,55,127
94387,note_on,0,0,0,,6,,,78,127
94387,note_on,0,0,0,,10,,,81,127
94387,note_on,0,0,0,,7,,,43,127
94539,note_off,152,0,0,,7,,,43,127
94539,note_off,0,0,0,,10,,,81,127
94539,note_off,0,0,0,,6,,,78,127
94539,note_off,0,0,0,,7,,,55,127
94540,note_on,1,0,0,,10,,,57,127
94540,note_on,0,0,0,,4,,,76,127
94540,note_on,0,0,0,,10,,,45,127
94540,note_on,0,0,0,,7,,,79,127
94540,note_on,0,0,0,,6,,,78,127
94540,note_on,0,0,0,,10,,,81,127
94577,note_off,37,0,0,,10,,,81,127
94577,note_off,0,0,0,,6,,,78,127
94692,note_off,115,0,0,,7,,,79,127
94692,note_off,0,0,0,,4,,,76,127
94694,note_on,2,0,0,,2,,,74,127
94694,note_on,0,0,0,,6,,,78,127
94846,note_off,152,0,0,,6,,,78,127
94846,note_off,0,0,0,,2,,,74,127
94848,note_on,2,0,0,,1,,,73,127
94848,note_on,0,0,0,,4,,,76,127
95000,note_off,152,0,0,,4,,,76,127
95000,note_off,0,0,0,,1,,,73,127
95000,note_off,0,0,0,,10,,,45,127
95000,note_off,0,0,0,,10,,,57,127
95001,note_on,1,0,0,,2,,,74,127
95001,note_on,0,0,0,,2,,,50,127
95001,note_on,0,0,0,,2,,,38,127
95153,note_off,152,0,0,,2,,,74,127
95155,note_on,2,0,0,,1,,,73,127
95307,note_off,152,0,0,,1,,,73,127
95308,note_on,1,0,0,,2,,,74,127
95460,note_off,152,0,0,,2,,,74,127
95461,note_off,1,0,0,,2,,,38,127
95461,note_off,0,0,0,,2,,,50,127
95462,note_on,1,0,0,,7,,,43,127
95462,note_on,0,0,0,,4,,,76,127
95462,note_on,0,0,0,,7,,,55,127
95614,note_off,152,0,0,,4,,,76,127
95616,note_on,2,0,0,,12,,,71,127
95768,note_off,152,0,0,,12,,,71,127
95769,note_on,1,0,0,,1,,,73,127
95921,note_off,152,0,0,,1,,,73,127
95922,note_off,1,0,0,,7,,,55,127
95922,note_off,0,0,0,,7,,,43,127
95923,note_on,1,0,0,,6,,,54,127
95923,note_on,0,0,0,,6,,,42,127
95923,note_on,0,0,0,,2,,,74,127
96076,note_on,153,0,0,,10,,,69,127
96228,note_off,152,0,0,,10,,,69,127
96229,note_off,1,0,0,,6,,,42,127
96229,note_off,0,0,0,,6,,,54,127
96230,note_on,1,0,0,,7,,,43,127
96230,note_on,0,0,0,,7,,,55,127
96230,note_on,0,0,0,,12,,,71,127
96382,note_off,152,0,0,,12,,,71,127
96382,note_off,0,0,0,,7,,,55,127
96382,note_off,0,0,0,,7,,,43,127
96384,note_on,2,0,0,,10,,,57,127
96384,note_on,0,0,0,,6,,,66,127
96384,note_on,0,0,0,,10,,,45,127
96536,note_off,152,0,0,,6,,,66,127
96537,note_on,1,0,0,,7,,,67,127
96689,note_off,152,0,0,,7,,,67,127
96690,note_off,1,0,0,,10,,,45,127
96690,note_off,0,0,0,,10,,,57,127
96690,note_off,0,0,0,,2,,,74,127
96691,note_on,1,0,0,,7,,,43,127
96691,note_on,0,0,0,,7,,,55,127
96691,note_on,0,0,0,,4,,,64,127
96691,note_on,0,0,0,,1,,,73,127
96843,note_off,152,0,0,,1,,,73,127
96843,note_off,0,0,0,,4,,,64,127
96843,note_off,0,0,0,,7,,,55,127
96843,note_off,0,0,0,,7,,,43,127
96844,note_on,1,0,0,,6,,,42,127
96844,note_on,0,0,0,,6,,,54,127
96844,note_on,0,0,0,,2,,,74,127
96998,note_on,154,0,0,,10,,,69,127
97150,note_off,152,0,0,,10,,,69,127
97150,note_off,0,0,0,,6,,,54,127
97150,note_off,0,0,0,,6,,,42,127
97152,note_on,2,0,0,,7,,,43,127
97152,note_on,0,0,0,,7,,,55,127
97152,note_on,0,0,0,,12,,,71,127
97304,note_off,152,0,0,,12,,,71,127
97304,note_off,0,0,0,,7,,,55,127
97304,note_off,0,0,0,,7,,,43,127
97305,note_on,1,0,0,,10,,,45,127
97305,note_on,0,0,0,,10,,,57,127
97305,note_on,0,0,0,,6,,,66,127
97457,note_off,152,0,0,,6,,,66,127
97459,note_on,2,0,0,,7,,,67,127
97611,note_off,152,0,0,,7,,,67,127
97611,note_off,0,0,0,,10,,,57,127
97611,note_off,0,0,0,,10,,,45,127
97611,note_off,0,0,0,,2,,,74,127
97612,note_on,1,0,0,,7,,,43,127
97612,note_on,0,0,0,,7,,,55,127
97612,note_on,0,0,0,,4,,,64,127
97612,note_on,0,0,0,,1,,,73,127
97764,note_off,152,0,0,,1,,,73,127
97764,note_off,0,0,0,,4,,,64,127
97764,note_off,0,0,0,,7,,,55,127
97764,note_off,0,0,0,,7,,,43,127
97766,note_on,2,0,0,,6,,,42,127
97766,note_on,0,0,0,,6,,,54,127
97766,note_on,0,0,0,,2,,,74,127
97928,note_on,162,0,0,,10,,,69,127
98086,note_off,158,0,0,,6,,,54,127
98086,note_off,0,0,0,,6,,,42,127
98087,note_off,1,0,0,,10,,,69,127
98092,note_on,5,0,0,,7,,,43,127
98092,note_on,0,0,0,,7,,,55,127
98092,note_on,0,0,0,,12,,,71,127
98251,note_off,159,0,0,,12,,,71,127
98251,note_off,0,0,0,,7,,,55,127
98251,note_off,0,0,0,,7,,,43,127
98254,note_on,3,0,0,,10,,,45,127
98254,note_on,0,0,0,,10,,,57,127
98254,note_on,0,0,0,,6,,,66,127
98413,note_off,159,0,0,,6,,,66,127
98417,note_on,4,0,0,,7,,,67,127
98534,note_off,117,0,0,,2,,,74,127
98574,note_off,40,0,0,,10,,,57,127
98574,note_off,0,0,0,,10,,,45,127
98576,note_off,2,0,0,,7,,,67,127
98580,note_on,4,0,0,,2,,,74,127
98580,note_on,0,0,0,,4,,,64,127
98580,note_on,0,0,0,,10,,,45,127
98580,note_on,0,0,0,,10,,,57,127
98633,note_off,53,0,0,,2,,,74,127
98635,note_on,2,0,0,,1,,,73,127
98687,note_off,52,0,0,,1,,,73,127
98691,note_on,4,0,0,,12,,,71,127
98739,note_off,48,0,0,,10,,,57,127
98739,note_off,0,0,0,,10,,,45,127
98739,note_off,0,0,0,,4,,,64,127
98743,note_off,4,0,0,,12,,,71,127
98747,note_on,4,0,0,,1,,,73,127
98795,note_off,48,0,0,,1,,,73,127
98806,note_on,11,0,0,,2,,,38,127
98806,note_on,0,0,0,,2,,,62,127
98806,note_on,0,0,0,,2,,,74,127
98806,note_on,0,0,0,,2,,,50,127
100607,note_off,1801,0,0,,2,,,50,127
100607,note_off,0,0,0,,2,,,62,127
100607,note_off,0,0,0,,2,,,38,127
100684,note_off,77,0,0,,2,,,74,127
105984,end_of_track,5300,1,0,,,,,,
