tick,type,time,meta,track,program,channel,pitch,tempo,note,velocity
0,copyright,0,1,0,,,,,,
0,program_change,0,0,0,6,0,,,,
0,pitchwheel,0,0,0,,0,0,,,
0,program_change,0,0,0,6,1,,,,
0,pitchwheel,0,0,0,,1,-590,,,
0,program_change,0,0,0,6,2,,,,
0,pitchwheel,0,0,0,,2,-272,,,
0,program_change,0,0,0,6,3,,,,
0,pitchwheel,0,0,0,,3,-353,,,
0,program_change,0,0,0,6,4,,,,
0,pitchwheel,0,0,0,,4,-560,,,
0,program_change,0,0,0,6,5,,,,
0,pitchwheel,0,0,0,,5,-80,,,
0,program_change,0,0,0,6,6,,,,
0,pitchwheel,0,0,0,,6,-625,,,
0,program_change,0,0,0,6,7,,,,
0,pitchwheel,0,0,0,,7,-130,,,
0,program_change,0,0,0,6,8,,,,
0,pitchwheel,0,0,0,,8,-512,,,
0,program_change,0,0,0,6,10,,,,
0,pitchwheel,0,0,0,,10,-464,,,
0,program_change,0,0,0,6,11,,,,
0,pitchwheel,0,0,0,,11,-208,,,
0,program_change,0,0,0,6,12,,,,
0,pitchwheel,0,0,0,,12,-553,,,
0,set_tempo,0,1,0,,,,500000,,
144,note_on,144,0,0,,10,,,81,127
201,note_on,57,0,0,,7,,,79,127
234,note_off,33,0,0,,10,,,81,127
258,note_on,24,0,0,,10,,,81,127
291,note_off,33,0,0,,7,,,79,127
317,note_on,26,0,0,,7,,,79,127
349,note_off,32,0,0,,10,,,81,127
375,note_on,26,0,0,,10,,,81,127
408,note_off,33,0,0,,7,,,79,127
434,note_on,26,0,0,,7,,,79,127
466,note_off,32,0,0,,10,,,81,127
492,note_on,26,0,0,,10,,,81,127
525,note_off,33,0,0,,7,,,79,127
549,note_on,24,0,0,,7,,,79,127
582,note_off,33,0,0,,10,,,81,127
608,note_on,26,0,0,,6,,,78,127
640,note_off,32,0,0,,7,,,79,127
666,note_on,26,0,0,,4,,,76,127
699,note_off,33,0,0,,6,,,78,127
725,note_on,26,0,0,,2,,,74,127
757,note_off,32,0,0,,4,,,76,127
1012,note_off,255,0,0,,2,,,74,127
1014,note_on,2,0,0,,2,,,74,127
1062,note_on,48,0,0,,0,,,72,127
1104,note_off,42,0,0,,2,,,74,127
1110,note_on,6,0,0,,2,,,74,127
1152,note_off,42,0,0,,0,,,72,127
1158,note_on,6,0,0,,0,,,72,127
1200,note_off,42,0,0,,2,,,74,127
1206,note_on,6,0,0,,2,,,74,127
1248,note_off,42,0,0,,0,,,72,127
1254,note_on,6,0,0,,0,,,72,127
1296,note_off,42,0,0,,2,,,74,127
1350,note_on,54,0,0,,12,,,71,127
1383,note_off,33,0,0,,0,,,72,127
1398,note_on,15,0,0,,0,,,72,127
1440,note_off,42,0,0,,12,,,71,127
1446,note_on,6,0,0,,12,,,71,127
1488,note_off,42,0,0,,0,,,72,127
1494,note_on,6,0,0,,0,,,72,127
1536,note_off,42,0,0,,12,,,71,127
1542,note_on,6,0,0,,12,,,71,127
1584,note_off,42,0,0,,0,,,72,127
1588,note_off,4,0,0,,12,,,71,127
1590,note_on,2,0,0,,2,,,74,127
1638,note_on,48,0,0,,0,,,72,127
1680,note_off,42,0,0,,2,,,74,127
1686,note_on,6,0,0,,2,,,74,127
1728,note_off,42,0,0,,0,,,72,127
1734,note_on,6,0,0,,0,,,72,127
1776,note_off,42,0,0,,2,,,74,127
1782,note_on,6,0,0,,12,,,71,127
1824,note_off,42,0,0,,0,,,72,127
1830,note_on,6,0,0,,0,,,72,127
1872,note_off,42,0,0,,12,,,71,127
1876,note_off,4,0,0,,0,,,72,127
1878,note_on,2,0,0,,2,,,74,127
2164,note_off,286,0,0,,2,,,74,127
2166,note_on,2,0,0,,4,,,76,127
2452,note_off,286,0,0,,4,,,76,127
2454,note_on,2,0,0,,2,,,74,127
2454,note_on,0,0,0,,10,,,69,127
2511,note_on,57,0,0,,7,,,67,127
2544,note_off,33,0,0,,10,,,69,127
2568,note_on,24,0,0,,10,,,69,127
2601,note_off,33,0,0,,7,,,67,127
2627,note_on,26,0,0,,7,,,67,127
2659,note_off,32,0,0,,10,,,69,127
2685,note_on,26,0,0,,10,,,69,127
2718,note_off,33,0,0,,7,,,67,127
2744,note_on,26,0,0,,7,,,67,127
2776,note_off,32,0,0,,10,,,69,127
2802,note_on,26,0,0,,10,,,69,127
2835,note_off,33,0,0,,7,,,67,127
2859,note_on,24,0,0,,7,,,67,127
2892,note_off,33,0,0,,10,,,69,127
2918,note_on,26,0,0,,6,,,66,127
2950,note_off,32,0,0,,7,,,67,127
2976,note_on,26,0,0,,4,,,64,127
3009,note_off,33,0,0,,6,,,66,127
3035,note_on,26,0,0,,2,,,62,127
3067,note_off,32,0,0,,4,,,64,127
3322,note_off,255,0,0,,2,,,62,127
3324,note_on,2,0,0,,0,,,60,127
3610,note_off,286,0,0,,0,,,60,127
3612,note_on,2,0,0,,12,,,59,127
3898,note_off,286,0,0,,12,,,59,127
3900,note_on,2,0,0,,0,,,60,127
4186,note_off,286,0,0,,0,,,60,127
4188,note_on,2,0,0,,2,,,62,127
4474,note_off,286,0,0,,2,,,62,127
4474,note_off,0,0,0,,2,,,74,127
4476,note_on,2,0,0,,4,,,64,127
4476,note_on,0,0,0,,7,,,67,127
4762,note_off,286,0,0,,7,,,67,127
4762,note_off,0,0,0,,4,,,64,127
4764,note_on,2,0,0,,2,,,62,127
4764,note_on,0,0,0,,6,,,66,127
4908,note_on,144,0,0,,0,,,72,127
4980,note_off,72,0,0,,6,,,66,127
5050,note_off,70,0,0,,0,,,72,127
5052,note_on,2,0,0,,0,,,72,127
5194,note_off,142,0,0,,0,,,72,127
5196,note_on,2,0,0,,12,,,71,127
5338,note_off,142,0,0,,12,,,71,127
5340,note_on,2,0,0,,10,,,69,127
5484,note_on,144,0,0,,4,,,76,127
5556,note_off,72,0,0,,10,,,69,127
5626,note_off,70,0,0,,4,,,76,127
5628,note_on,2,0,0,,4,,,76,127
5770,note_off,142,0,0,,4,,,76,127
5772,note_on,2,0,0,,2,,,74,127
5914,note_off,142,0,0,,2,,,74,127
5916,note_on,2,0,0,,0,,,72,127
6060,note_on,144,0,0,,10,,,81,127
6132,note_off,72,0,0,,0,,,72,127
6202,note_off,70,0,0,,10,,,81,127
6204,note_on,2,0,0,,10,,,81,127
6346,note_off,142,0,0,,10,,,81,127
6348,note_on,2,0,0,,7,,,79,127
6490,note_off,142,0,0,,7,,,79,127
6492,note_on,2,0,0,,6,,,78,127
6634,note_off,142,0,0,,2,,,62,127
6636,note_on,2,0,0,,0,,,60,127
6778,note_off,142,0,0,,0,,,60,127
6780,note_on,2,0,0,,0,,,60,127
6922,note_off,142,0,0,,0,,,60,127
6924,note_on,2,0,0,,12,,,59,127
7066,note_off,142,0,0,,12,,,59,127
7068,note_on,2,0,0,,10,,,57,127
7212,note_on,144,0,0,,4,,,64,127
7284,note_off,72,0,0,,10,,,57,127
7354,note_off,70,0,0,,4,,,64,127
7356,note_on,2,0,0,,4,,,64,127
7498,note_off,142,0,0,,4,,,64,127
7500,note_on,2,0,0,,2,,,62,127
7642,note_off,142,0,0,,2,,,62,127
7644,note_on,2,0,0,,0,,,60,127
7788,note_on,144,0,0,,10,,,69,127
7860,note_off,72,0,0,,0,,,60,127
7930,note_off,70,0,0,,10,,,69,127
7932,note_on,2,0,0,,10,,,69,127
8074,note_off,142,0,0,,10,,,69,127
8076,note_on,2,0,0,,7,,,67,127
8218,note_off,142,0,0,,7,,,67,127
8220,note_on,2,0,0,,6,,,66,127
8362,note_off,142,0,0,,6,,,78,127
8364,note_on,2,0,0,,7,,,79,127
8506,note_off,142,0,0,,7,,,79,127
8508,note_on,2,0,0,,10,,,81,127
8650,note_off,142,0,0,,10,,,81,127
8652,note_on,2,0,0,,12,,,71,127
8794,note_off,142,0,0,,12,,,71,127
8796,note_on,2,0,0,,0,,,72,127
8938,note_off,142,0,0,,6,,,66,127
8940,note_on,2,0,0,,7,,,67,127
9082,note_off,142,0,0,,7,,,67,127
9084,note_on,2,0,0,,10,,,69,127
9226,note_off,142,0,0,,10,,,69,127
9228,note_on,2,0,0,,0,,,60,127
9370,note_off,142,0,0,,0,,,60,127
9372,note_on,2,0,0,,2,,,62,127
9514,note_off,142,0,0,,0,,,72,127
9516,note_on,2,0,0,,0,,,72,127
9658,note_off,142,0,0,,0,,,72,127
9660,note_on,2,0,0,,2,,,74,127
9802,note_off,142,0,0,,2,,,74,127
9804,note_on,2,0,0,,4,,,76,127
9946,note_off,142,0,0,,4,,,76,127
9946,note_off,0,0,0,,2,,,62,127
9948,note_on,2,0,0,,6,,,66,127
9948,note_on,0,0,0,,4,,,76,127
10090,note_off,142,0,0,,4,,,76,127
10092,note_on,2,0,0,,2,,,74,127
10234,note_off,142,0,0,,2,,,74,127
10236,note_on,2,0,0,,2,,,74,127
10378,note_off,142,0,0,,2,,,74,127
10380,note_on,2,0,0,,0,,,72,127
10522,note_off,142,0,0,,6,,,66,127
10524,note_on,2,0,0,,7,,,67,127
10524,note_on,0,0,0,,7,,,55,127
10572,note_on,48,0,0,,12,,,71,127
10590,note_off,18,0,0,,0,,,72,127
10620,note_on,30,0,0,,0,,,72,127
10662,note_off,42,0,0,,12,,,71,127
10668,note_on,6,0,0,,12,,,71,127
10710,note_off,42,0,0,,0,,,72,127
10716,note_on,6,0,0,,0,,,72,127
10758,note_off,42,0,0,,12,,,71,127
10764,note_on,6,0,0,,12,,,71,127
10806,note_off,42,0,0,,0,,,72,127
10810,note_off,4,0,0,,12,,,71,127
10810,note_off,0,0,0,,7,,,55,127
10812,note_on,2,0,0,,10,,,57,127
10812,note_on,0,0,0,,2,,,74,127
10860,note_on,48,0,0,,0,,,72,127
10902,note_off,42,0,0,,2,,,74,127
10908,note_on,6,0,0,,2,,,74,127
10950,note_off,42,0,0,,0,,,72,127
10956,note_on,6,0,0,,0,,,72,127
10998,note_off,42,0,0,,2,,,74,127
11004,note_on,6,0,0,,12,,,71,127
11046,note_off,42,0,0,,0,,,72,127
11052,note_on,6,0,0,,0,,,72,127
11094,note_off,42,0,0,,12,,,71,127
11098,note_off,4,0,0,,0,,,72,127
11098,note_off,0,0,0,,10,,,57,127
11100,note_on,2,0,0,,12,,,59,127
11100,note_on,0,0,0,,2,,,74,127
11386,note_off,286,0,0,,2,,,74,127
11386,note_off,0,0,0,,12,,,59,127
11388,note_off,2,0,0,,7,,,67,127
11388,note_on,0,0,0,,0,,,60,127
11388,note_on,0,0,0,,4,,,76,127
11674,note_off,286,0,0,,4,,,76,127
11674,note_off,0,0,0,,0,,,60,127
11676,note_on,2,0,0,,2,,,62,127
11676,note_on,0,0,0,,2,,,50,127
11676,note_on,0,0,0,,12,,,71,127
11724,note_on,48,0,0,,10,,,69,127
11766,note_off,42,0,0,,12,,,71,127
11772,note_on,6,0,0,,12,,,71,127
11814,note_off,42,0,0,,10,,,69,127
11820,note_on,6,0,0,,10,,,69,127
11862,note_off,42,0,0,,12,,,71,127
11868,note_on,6,0,0,,12,,,71,127
11910,note_off,42,0,0,,10,,,69,127
11916,note_on,6,0,0,,10,,,69,127
11958,note_off,42,0,0,,12,,,71,127
11962,note_off,4,0,0,,2,,,50,127
11964,note_on,2,0,0,,4,,,52,127
12250,note_off,286,0,0,,4,,,52,127
12252,note_on,2,0,0,,6,,,54,127
12538,note_off,286,0,0,,6,,,54,127
12540,note_off,2,0,0,,2,,,62,127
12540,note_on,0,0,0,,2,,,50,127
12540,note_on,0,0,0,,12,,,71,127
12546,note_off,6,0,0,,10,,,69,127
12588,note_on,42,0,0,,10,,,69,127
12630,note_off,42,0,0,,12,,,71,127
12636,note_on,6,0,0,,12,,,71,127
12678,note_off,42,0,0,,10,,,69,127
12684,note_on,6,0,0,,10,,,69,127
12726,note_off,42,0,0,,12,,,71,127
12732,note_on,6,0,0,,12,,,71,127
12774,note_off,42,0,0,,10,,,69,127
12780,note_on,6,0,0,,10,,,69,127
12822,note_off,42,0,0,,12,,,71,127
12826,note_off,4,0,0,,2,,,50,127
12828,note_on,2,0,0,,7,,,55,127
12828,note_on,0,0,0,,0,,,72,127
12870,note_off,42,0,0,,10,,,69,127
12876,note_on,6,0,0,,12,,,71,127
12918,note_off,42,0,0,,0,,,72,127
12924,note_on,6,0,0,,0,,,72,127
12966,note_off,42,0,0,,12,,,71,127
12972,note_on,6,0,0,,12,,,71,127
13014,note_off,42,0,0,,0,,,72,127
13020,note_on,6,0,0,,0,,,72,127
13062,note_off,42,0,0,,12,,,71,127
13068,note_on,6,0,0,,12,,,71,127
13110,note_off,42,0,0,,0,,,72,127
13114,note_off,4,0,0,,12,,,71,127
13114,note_off,0,0,0,,7,,,55,127
13116,note_on,2,0,0,,10,,,57,127
13116,note_on,0,0,0,,2,,,74,127
13164,note_on,48,0,0,,0,,,72,127
13206,note_off,42,0,0,,2,,,74,127
13212,note_on,6,0,0,,2,,,74,127
13254,note_off,42,0,0,,0,,,72,127
13260,note_on,6,0,0,,0,,,72,127
13302,note_off,42,0,0,,2,,,74,127
13308,note_on,6,0,0,,12,,,71,127
13350,note_off,42,0,0,,0,,,72,127
13356,note_on,6,0,0,,0,,,72,127
13398,note_off,42,0,0,,12,,,71,127
13402,note_off,4,0,0,,0,,,72,127
13402,note_off,0,0,0,,10,,,57,127
13404,note_on,2,0,0,,12,,,59,127
13404,note_on,0,0,0,,2,,,74,127
13690,note_off,286,0,0,,2,,,74,127
13690,note_off,0,0,0,,12,,,59,127
13692,note_on,2,0,0,,0,,,60,127
13692,note_on,0,0,0,,0,,,48,127
13692,note_on,0,0,0,,4,,,76,127
13978,note_off,286,0,0,,4,,,76,127
13978,note_off,0,0,0,,0,,,48,127
13978,note_off,0,0,0,,0,,,60,127
13980,note_on,2,0,0,,2,,,62,127
13980,note_on,0,0,0,,2,,,50,127
13980,note_on,0,0,0,,4,,,76,127
14266,note_off,286,0,0,,4,,,76,127
14266,note_off,0,0,0,,2,,,50,127
14268,note_on,2,0,0,,4,,,52,127
14268,note_on,0,0,0,,2,,,74,127
14554,note_off,286,0,0,,4,,,52,127
14556,note_on,2,0,0,,6,,,54,127
14842,note_off,286,0,0,,6,,,54,127
14842,note_off,0,0,0,,2,,,74,127
14844,note_off,2,0,0,,2,,,62,127
14844,note_on,0,0,0,,2,,,50,127
14844,note_on,0,0,0,,10,,,69,127
15130,note_off,286,0,0,,10,,,69,127
15130,note_off,0,0,0,,2,,,50,127
15132,note_on,2,0,0,,7,,,55,127
15132,note_on,0,0,0,,0,,,72,127
15180,note_on,48,0,0,,12,,,71,127
15222,note_off,42,0,0,,0,,,72,127
15228,note_on,6,0,0,,0,,,72,127
15270,note_off,42,0,0,,12,,,71,127
15276,note_on,6,0,0,,12,,,71,127
15318,note_off,42,0,0,,0,,,72,127
15324,note_on,6,0,0,,0,,,72,127
15366,note_off,42,0,0,,12,,,71,127
15372,note_on,6,0,0,,12,,,71,127
15414,note_off,42,0,0,,0,,,72,127
15418,note_off,4,0,0,,12,,,71,127
15418,note_off,0,0,0,,7,,,55,127
15420,note_on,2,0,0,,10,,,57,127
15420,note_on,0,0,0,,2,,,74,127
15468,note_on,48,0,0,,0,,,72,127
15510,note_off,42,0,0,,2,,,74,127
15516,note_on,6,0,0,,2,,,74,127
15558,note_off,42,0,0,,0,,,72,127
15564,note_on,6,0,0,,0,,,72,127
15606,note_off,42,0,0,,2,,,74,127
15612,note_on,6,0,0,,12,,,71,127
15654,note_off,42,0,0,,0,,,72,127
15660,note_on,6,0,0,,0,,,72,127
15702,note_off,42,0,0,,12,,,71,127
15706,note_off,4,0,0,,10,,,57,127
15708,note_on,2,0,0,,12,,,59,127
15708,note_on,0,0,0,,2,,,74,127
15750,note_off,42,0,0,,0,,,72,127
15994,note_off,244,0,0,,2,,,74,127
15994,note_off,0,0,0,,12,,,59,127
15996,note_on,2,0,0,,0,,,48,127
15996,note_on,0,0,0,,0,,,60,127
15996,note_on,0,0,0,,4,,,76,127
16282,note_off,286,0,0,,4,,,76,127
16282,note_off,0,0,0,,0,,,60,127
16282,note_off,0,0,0,,0,,,48,127
16284,note_on,2,0,0,,2,,,62,127
16284,note_on,0,0,0,,2,,,50,127
16284,note_on,0,0,0,,4,,,76,127
16570,note_off,286,0,0,,4,,,76,127
16570,note_off,0,0,0,,2,,,50,127
16572,note_on,2,0,0,,4,,,52,127
16572,note_on,0,0,0,,2,,,74,127
16858,note_off,286,0,0,,4,,,52,127
16860,note_on,2,0,0,,6,,,54,127
17146,note_off,286,0,0,,6,,,54,127
17146,note_off,0,0,0,,2,,,74,127
17148,note_off,2,0,0,,2,,,62,127
17148,note_on,0,0,0,,2,,,50,127
17148,note_on,0,0,0,,12,,,71,127
17196,note_on,48,0,0,,10,,,69,127
17238,note_off,42,0,0,,12,,,71,127
17244,note_on,6,0,0,,12,,,71,127
17286,note_off,42,0,0,,10,,,69,127
17292,note_on,6,0,0,,10,,,69,127
17334,note_off,42,0,0,,12,,,71,127
17340,note_on,6,0,0,,12,,,71,127
17382,note_off,42,0,0,,10,,,69,127
17388,note_on,6,0,0,,10,,,69,127
17430,note_off,42,0,0,,12,,,71,127
17434,note_off,4,0,0,,10,,,69,127
17434,note_off,0,0,0,,2,,,50,127
17436,note_on,2,0,0,,7,,,55,127
17436,note_on,0,0,0,,7,,,67,127
17436,note_on,0,0,0,,0,,,72,127
17484,note_on,48,0,0,,12,,,71,127
17526,note_off,42,0,0,,0,,,72,127
17532,note_on,6,0,0,,0,,,72,127
17574,note_off,42,0,0,,12,,,71,127
17580,note_on,6,0,0,,12,,,71,127
17622,note_off,42,0,0,,0,,,72,127
17628,note_on,6,0,0,,10,,,69,127
17670,note_off,42,0,0,,12,,,71,127
17676,note_on,6,0,0,,12,,,71,127
17718,note_off,42,0,0,,10,,,69,127
17722,note_off,4,0,0,,12,,,71,127
17722,note_off,0,0,0,,7,,,55,127
17724,note_on,2,0,0,,10,,,57,127
17724,note_on,0,0,0,,1,,,73,127
18010,note_off,286,0,0,,1,,,73,127
18010,note_off,0,0,0,,10,,,57,127
18012,note_on,2,0,0,,12,,,59,127
18012,note_on,0,0,0,,4,,,76,127
18060,note_on,48,0,0,,2,,,74,127
18102,note_off,42,0,0,,4,,,76,127
18108,note_on,6,0,0,,4,,,76,127
18150,note_off,42,0,0,,2,,,74,127
18156,note_on,6,0,0,,2,,,74,127
18198,note_off,42,0,0,,4,,,76,127
18204,note_on,6,0,0,,1,,,73,127
18246,note_off,42,0,0,,2,,,74,127
18252,note_on,6,0,0,,2,,,74,127
18294,note_off,42,0,0,,1,,,73,127
18298,note_off,4,0,0,,2,,,74,127
18298,note_off,0,0,0,,12,,,59,127
18300,note_on,2,0,0,,1,,,61,127
18300,note_on,0,0,0,,4,,,76,127
18586,note_off,286,0,0,,4,,,76,127
18586,note_off,0,0,0,,1,,,61,127
18586,note_off,0,0,0,,7,,,67,127
18588,note_on,2,0,0,,2,,,62,127
18588,note_on,0,0,0,,6,,,66,127
18588,note_on,0,0,0,,4,,,76,127
18874,note_off,286,0,0,,4,,,76,127
18874,note_off,0,0,0,,6,,,66,127
18874,note_off,0,0,0,,2,,,62,127
18876,note_on,2,0,0,,7,,,67,127
18876,note_on,0,0,0,,4,,,64,127
18876,note_on,0,0,0,,2,,,74,127
19162,note_off,286,0,0,,4,,,64,127
19162,note_off,0,0,0,,7,,,67,127
19164,note_on,2,0,0,,6,,,66,127
19164,note_on,0,0,0,,10,,,69,127
19450,note_off,286,0,0,,10,,,69,127
19450,note_off,0,0,0,,6,,,66,127
19450,note_off,0,0,0,,2,,,74,127
19452,note_on,2,0,0,,6,,,66,127
19452,note_on,0,0,0,,2,,,62,127
19452,note_on,0,0,0,,12,,,71,127
19500,note_on,48,0,0,,10,,,69,127
19542,note_off,42,0,0,,12,,,71,127
19548,note_on,6,0,0,,12,,,71,127
19590,note_off,42,0,0,,10,,,69,127
19596,note_on,6,0,0,,10,,,69,127
19638,note_off,42,0,0,,12,,,71,127
19644,note_on,6,0,0,,12,,,71,127
19686,note_off,42,0,0,,10,,,69,127
19692,note_on,6,0,0,,10,,,69,127
19734,note_off,42,0,0,,12,,,71,127
19738,note_off,4,0,0,,10,,,69,127
19738,note_off,0,0,0,,2,,,62,127
19738,note_off,0,0,0,,6,,,66,127
19740,note_on,2,0,0,,7,,,67,127
19740,note_on,0,0,0,,7,,,55,127
19740,note_on,0,0,0,,0,,,72,127
19788,note_on,48,0,0,,12,,,71,127
19830,note_off,42,0,0,,0,,,72,127
19836,note_on,6,0,0,,0,,,72,127
19878,note_off,42,0,0,,12,,,71,127
19884,note_on,6,0,0,,12,,,71,127
19926,note_off,42,0,0,,0,,,72,127
19932,note_on,6,0,0,,0,,,72,127
19974,note_off,42,0,0,,12,,,71,127
19980,note_on,6,0,0,,12,,,71,127
20022,note_off,42,0,0,,0,,,72,127
20026,note_off,4,0,0,,12,,,71,127
20026,note_off,0,0,0,,7,,,55,127
20028,note_on,2,0,0,,10,,,57,127
20028,note_on,0,0,0,,2,,,74,127
20076,note_on,48,0,0,,1,,,73,127
20118,note_off,42,0,0,,2,,,74,127
20124,note_on,6,0,0,,2,,,74,127
20166,note_off,42,0,0,,1,,,73,127
20172,note_on,6,0,0,,1,,,73,127
20214,note_off,42,0,0,,2,,,74,127
20220,note_on,6,0,0,,2,,,74,127
20262,note_off,42,0,0,,1,,,73,127
20268,note_on,6,0,0,,1,,,73,127
20310,note_off,42,0,0,,2,,,74,127
20314,note_off,4,0,0,,1,,,73,127
20314,note_off,0,0,0,,10,,,57,127
20316,note_on,2,0,0,,12,,,59,127
20316,note_on,0,0,0,,4,,,76,127
20364,note_on,48,0,0,,2,,,74,127
20406,note_off,42,0,0,,4,,,76,127
20412,note_on,6,0,0,,4,,,76,127
20454,note_off,42,0,0,,2,,,74,127
20460,note_on,6,0,0,,2,,,74,127
20502,note_off,42,0,0,,4,,,76,127
20508,note_on,6,0,0,,4,,,76,127
20550,note_off,42,0,0,,2,,,74,127
20556,note_on,6,0,0,,2,,,74,127
20598,note_off,42,0,0,,4,,,76,127
20602,note_off,4,0,0,,2,,,74,127
20602,note_off,0,0,0,,12,,,59,127
20604,note_on,2,0,0,,1,,,61,127
20604,note_on,0,0,0,,6,,,78,127
20652,note_on,48,0,0,,4,,,76,127
20694,note_off,42,0,0,,6,,,78,127
20700,note_on,6,0,0,,6,,,78,127
20742,note_off,42,0,0,,4,,,76,127
20748,note_on,6,0,0,,4,,,76,127
20790,note_off,42,0,0,,6,,,78,127
20796,note_on,6,0,0,,6,,,78,127
20838,note_off,42,0,0,,4,,,76,127
20844,note_on,6,0,0,,4,,,76,127
20886,note_off,42,0,0,,6,,,78,127
20890,note_off,4,0,0,,4,,,76,127
20890,note_off,0,0,0,,1,,,61,127
20890,note_off,0,0,0,,7,,,67,127
20892,note_on,2,0,0,,6,,,66,127
20892,note_on,0,0,0,,2,,,62,127
20892,note_on,0,0,0,,7,,,79,127
20940,note_on,48,0,0,,6,,,78,127
20982,note_off,42,0,0,,7,,,79,127
20988,note_on,6,0,0,,7,,,79,127
21030,note_off,42,0,0,,6,,,78,127
21036,note_on,6,0,0,,6,,,78,127
21078,note_off,42,0,0,,7,,,79,127
21084,note_on,6,0,0,,7,,,79,127
21126,note_off,42,0,0,,6,,,78,127
21132,note_on,6,0,0,,6,,,78,127
21174,note_off,42,0,0,,7,,,79,127
21178,note_off,4,0,0,,6,,,78,127
21178,note_off,0,0,0,,2,,,62,127
21178,note_off,0,0,0,,6,,,66,127
21180,note_on,2,0,0,,4,,,64,127
21180,note_on,0,0,0,,10,,,81,127
21228,note_on,48,0,0,,7,,,79,127
21270,note_off,42,0,0,,10,,,81,127
21276,note_on,6,0,0,,10,,,81,127
21318,note_off,42,0,0,,7,,,79,127
21324,note_on,6,0,0,,7,,,79,127
21366,note_off,42,0,0,,10,,,81,127
21372,note_on,6,0,0,,10,,,81,127
21414,note_off,42,0,0,,7,,,79,127
21420,note_on,6,0,0,,7,,,79,127
21462,note_off,42,0,0,,10,,,81,127
21466,note_off,4,0,0,,7,,,79,127
21466,note_off,0,0,0,,4,,,64,127
21468,note_on,2,0,0,,6,,,66,127
21468,note_on,0,0,0,,12,,,83,127
21516,note_on,48,0,0,,10,,,81,127
21558,note_off,42,0,0,,12,,,83,127
21564,note_on,6,0,0,,12,,,83,127
21606,note_off,42,0,0,,10,,,81,127
21612,note_on,6,0,0,,10,,,81,127
21654,note_off,42,0,0,,12,,,83,127
21660,note_on,6,0,0,,12,,,83,127
21702,note_off,42,0,0,,10,,,81,127
21708,note_on,6,0,0,,10,,,81,127
21750,note_off,42,0,0,,12,,,83,127
21754,note_off,4,0,0,,10,,,81,127
21754,note_off,0,0,0,,6,,,66,127
21756,note_on,2,0,0,,7,,,67,127
21756,note_on,0,0,0,,1,,,85,127
21804,note_on,48,0,0,,12,,,83,127
21846,note_off,42,0,0,,1,,,85,127
21852,note_on,6,0,0,,1,,,85,127
21894,note_off,42,0,0,,12,,,83,127
21900,note_on,6,0,0,,12,,,83,127
21942,note_off,42,0,0,,1,,,85,127
21948,note_on,6,0,0,,1,,,85,127
21990,note_off,42,0,0,,12,,,83,127
21996,note_on,6,0,0,,12,,,83,127
22038,note_off,42,0,0,,1,,,85,127
22042,note_off,4,0,0,,12,,,83,127
22042,note_off,0,0,0,,7,,,67,127
22044,note_on,2,0,0,,10,,,57,127
22044,note_on,0,0,0,,2,,,86,127
22092,note_on,48,0,0,,1,,,85,127
22134,note_off,42,0,0,,2,,,86,127
22140,note_on,6,0,0,,2,,,86,127
22182,note_off,42,0,0,,1,,,85,127
22188,note_on,6,0,0,,1,,,85,127
22230,note_off,42,0,0,,2,,,86,127
22236,note_on,6,0,0,,2,,,86,127
22278,note_off,42,0,0,,1,,,85,127
22284,note_on,6,0,0,,1,,,85,127
22326,note_off,42,0,0,,2,,,86,127
22330,note_off,4,0,0,,1,,,85,127
22332,note_on,2,0,0,,10,,,69,127
22332,note_on,0,0,0,,2,,,86,127
22380,note_on,48,0,0,,1,,,85,127
22422,note_off,42,0,0,,2,,,86,127
22428,note_on,6,0,0,,2,,,86,127
22470,note_off,42,0,0,,1,,,85,127
22476,note_on,6,0,0,,1,,,85,127
22518,note_off,42,0,0,,2,,,86,127
22524,note_on,6,0,0,,12,,,83,127
22566,note_off,42,0,0,,1,,,85,127
22572,note_on,6,0,0,,1,,,85,127
22614,note_off,42,0,0,,12,,,83,127
22618,note_off,4,0,0,,1,,,85,127
22618,note_off,0,0,0,,10,,,69,127
22618,note_off,0,0,0,,10,,,57,127
22620,note_on,2,0,0,,6,,,66,127
22620,note_on,0,0,0,,2,,,86,127
22906,note_off,286,0,0,,2,,,86,127
22906,note_off,0,0,0,,6,,,66,127
22908,note_on,2,0,0,,2,,,62,127
22908,note_on,0,0,0,,12,,,83,127
22956,note_on,48,0,0,,10,,,81,127
22998,note_off,42,0,0,,12,,,83,127
23004,note_on,6,0,0,,12,,,83,127
23046,note_off,42,0,0,,10,,,81,127
23052,note_on,6,0,0,,10,,,81,127
23094,note_off,42,0,0,,12,,,83,127
23100,note_on,6,0,0,,7,,,79,127
23142,note_off,42,0,0,,10,,,81,127
23148,note_on,6,0,0,,10,,,81,127
23190,note_off,42,0,0,,7,,,79,127
23194,note_off,4,0,0,,10,,,81,127
23194,note_off,0,0,0,,2,,,62,127
23196,note_on,2,0,0,,7,,,67,127
23196,note_on,0,0,0,,12,,,83,127
23338,note_off,142,0,0,,12,,,83,127
23340,note_on,2,0,0,,6,,,78,127
23482,note_off,142,0,0,,6,,,78,127
23482,note_off,0,0,0,,7,,,67,127
23484,note_on,2,0,0,,4,,,64,127
23484,note_on,0,0,0,,7,,,79,127
23626,note_off,142,0,0,,7,,,79,127
23628,note_on,2,0,0,,4,,,76,127
23770,note_off,142,0,0,,4,,,76,127
23770,note_off,0,0,0,,4,,,64,127
23772,note_on,2,0,0,,10,,,69,127
23772,note_on,0,0,0,,2,,,74,127
24060,note_on,288,0,0,,10,,,57,127
24108,note_on,48,0,0,,1,,,73,127
24147,note_off,39,0,0,,2,,,74,127
24156,note_on,9,0,0,,2,,,74,127
24198,note_off,42,0,0,,1,,,73,127
24204,note_on,6,0,0,,1,,,73,127
24246,note_off,42,0,0,,2,,,74,127
24252,note_on,6,0,0,,12,,,71,127
24294,note_off,42,0,0,,1,,,73,127
24300,note_on,6,0,0,,1,,,73,127
24342,note_off,42,0,0,,12,,,71,127
24346,note_off,4,0,0,,1,,,73,127
24346,note_off,0,0,0,,10,,,57,127
24346,note_off,0,0,0,,10,,,69,127
24348,note_on,2,0,0,,2,,,62,127
24348,note_on,0,0,0,,1,,,73,127
24490,note_off,142,0,0,,1,,,73,127
24492,note_on,2,0,0,,2,,,74,127
24634,note_off,142,0,0,,2,,,74,127
24636,note_on,2,0,0,,6,,,78,127
24850,note_off,214,0,0,,6,,,78,127
24852,note_on,2,0,0,,2,,,74,127
24924,note_on,72,0,0,,6,,,78,127
24942,note_off,18,0,0,,2,,,74,127
25210,note_off,268,0,0,,2,,,62,127
25212,note_on,2,0,0,,10,,,69,127
25498,note_off,286,0,0,,10,,,69,127
25500,note_on,2,0,0,,7,,,67,127
25786,note_off,286,0,0,,6,,,78,127
25788,note_on,2,0,0,,10,,,57,127
25788,note_on,0,0,0,,7,,,79,127
26076,note_on,288,0,0,,4,,,64,127
26362,note_off,286,0,0,,4,,,64,127
26362,note_off,0,0,0,,7,,,79,127
26362,note_off,0,0,0,,7,,,67,127
26364,note_on,2,0,0,,7,,,67,127
26364,note_on,0,0,0,,1,,,73,127
26650,note_off,286,0,0,,1,,,73,127
26650,note_off,0,0,0,,7,,,67,127
26650,note_off,0,0,0,,10,,,57,127
26652,note_on,2,0,0,,6,,,66,127
26652,note_on,0,0,0,,1,,,73,127
26794,note_off,142,0,0,,1,,,73,127
26796,note_on,2,0,0,,2,,,74,127
26938,note_off,142,0,0,,2,,,74,127
26938,note_off,0,0,0,,6,,,66,127
26940,note_on,2,0,0,,2,,,62,127
26940,note_on,0,0,0,,6,,,78,127
27154,note_off,214,0,0,,6,,,78,127
27156,note_on,2,0,0,,2,,,74,127
27228,note_on,72,0,0,,6,,,78,127
27246,note_off,18,0,0,,2,,,74,127
27514,note_off,268,0,0,,2,,,62,127
27516,note_on,2,0,0,,10,,,69,127
27802,note_off,286,0,0,,10,,,69,127
27804,note_on,2,0,0,,7,,,67,127
28090,note_off,286,0,0,,6,,,78,127
28092,note_on,2,0,0,,10,,,57,127
28092,note_on,0,0,0,,7,,,79,127
28380,note_on,288,0,0,,4,,,64,127
28666,note_off,286,0,0,,4,,,64,127
28666,note_off,0,0,0,,7,,,79,127
28666,note_off,0,0,0,,7,,,67,127
28668,note_on,2,0,0,,7,,,67,127
28668,note_on,0,0,0,,1,,,73,127
28954,note_off,286,0,0,,1,,,73,127
28954,note_off,0,0,0,,7,,,67,127
28954,note_off,0,0,0,,10,,,57,127
28956,note_on,2,0,0,,6,,,66,127
28956,note_on,0,0,0,,2,,,74,127
29242,note_off,286,0,0,,2,,,74,127
29242,note_off,0,0,0,,6,,,66,127
29244,note_on,2,0,0,,2,,,62,127
29244,note_on,0,0,0,,6,,,78,127
29458,note_off,214,0,0,,6,,,78,127
29460,note_on,2,0,0,,2,,,74,127
29532,note_on,72,0,0,,10,,,81,127
29550,note_off,18,0,0,,2,,,74,127
29818,note_off,268,0,0,,2,,,62,127
29820,note_on,2,0,0,,6,,,66,127
29820,note_on,0,0,0,,10,,,69,127
30106,note_off,286,0,0,,10,,,69,127
30106,note_off,0,0,0,,6,,,66,127
30108,note_on,2,0,0,,7,,,55,127
30108,note_on,0,0,0,,12,,,71,127
30394,note_off,286,0,0,,10,,,81,127
30396,note_on,2,0,0,,7,,,79,127
30610,note_off,214,0,0,,7,,,79,127
30612,note_on,2,0,0,,4,,,76,127
30684,note_on,72,0,0,,12,,,83,127
30702,note_off,18,0,0,,4,,,76,127
30970,note_off,268,0,0,,12,,,71,127
30970,note_off,0,0,0,,7,,,55,127
30972,note_on,2,0,0,,7,,,67,127
30972,note_on,0,0,0,,12,,,71,127
31258,note_off,286,0,0,,12,,,71,127
31258,note_off,0,0,0,,7,,,67,127
31260,note_on,2,0,0,,10,,,57,127
31260,note_on,0,0,0,,1,,,73,127
31546,note_off,286,0,0,,12,,,83,127
31548,note_on,2,0,0,,10,,,69,127
31548,note_on,0,0,0,,1,,,85,127
31690,note_off,142,0,0,,1,,,85,127
31692,note_on,2,0,0,,10,,,81,127
31834,note_off,142,0,0,,10,,,81,127
31834,note_off,0,0,0,,10,,,69,127
31834,note_off,0,0,0,,1,,,73,127
31834,note_off,0,0,0,,10,,,57,127
31836,note_on,2,0,0,,6,,,66,127
31836,note_on,0,0,0,,2,,,86,127
32122,note_off,286,0,0,,2,,,86,127
32122,note_off,0,0,0,,6,,,66,127
32124,note_on,2,0,0,,2,,,62,127
32124,note_on,0,0,0,,12,,,83,127
32172,note_on,48,0,0,,10,,,81,127
32214,note_off,42,0,0,,12,,,83,127
32220,note_on,6,0,0,,12,,,83,127
32262,note_off,42,0,0,,10,,,81,127
32268,note_on,6,0,0,,10,,,81,127
32310,note_off,42,0,0,,12,,,83,127
32316,note_on,6,0,0,,7,,,79,127
32358,note_off,42,0,0,,10,,,81,127
32364,note_on,6,0,0,,10,,,81,127
32406,note_off,42,0,0,,7,,,79,127
32410,note_off,4,0,0,,2,,,62,127
32412,note_on,2,0,0,,7,,,67,127
32412,note_on,0,0,0,,12,,,83,127
32454,note_off,42,0,0,,10,,,81,127
32554,note_off,100,0,0,,12,,,83,127
32556,note_on,2,0,0,,6,,,78,127
32698,note_off,142,0,0,,6,,,78,127
32698,note_off,0,0,0,,7,,,67,127
32700,note_on,2,0,0,,4,,,64,127
32700,note_on,0,0,0,,7,,,79,127
32842,note_off,142,0,0,,7,,,79,127
32844,note_on,2,0,0,,4,,,76,127
32986,note_off,142,0,0,,4,,,76,127
32986,note_off,0,0,0,,4,,,64,127
32988,note_on,2,0,0,,10,,,69,127
32988,note_on,0,0,0,,2,,,74,127
33276,note_on,288,0,0,,10,,,57,127
33324,note_on,48,0,0,,1,,,73,127
33363,note_off,39,0,0,,2,,,74,127
33372,note_on,9,0,0,,2,,,74,127
33414,note_off,42,0,0,,1,,,73,127
33420,note_on,6,0,0,,1,,,73,127
33462,note_off,42,0,0,,2,,,74,127
33468,note_on,6,0,0,,12,,,71,127
33510,note_off,42,0,0,,1,,,73,127
33516,note_on,6,0,0,,1,,,73,127
33558,note_off,42,0,0,,12,,,71,127
33562,note_off,4,0,0,,1,,,73,127
33562,note_off,0,0,0,,10,,,57,127
33562,note_off,0,0,0,,10,,,69,127
33564,note_on,2,0,0,,2,,,62,127
33564,note_on,0,0,0,,1,,,73,127
33706,note_off,142,0,0,,1,,,73,127
33708,note_on,2,0,0,,2,,,74,127
33850,note_off,142,0,0,,2,,,74,127
33852,note_on,2,0,0,,6,,,78,127
34066,note_off,214,0,0,,6,,,78,127
34068,note_on,2,0,0,,2,,,74,127
34140,note_on,72,0,0,,6,,,78,127
34158,note_off,18,0,0,,2,,,74,127
34426,note_off,268,0,0,,2,,,62,127
34428,note_on,2,0,0,,10,,,69,127
34714,note_off,286,0,0,,10,,,69,127
34716,note_on,2,0,0,,7,,,67,127
35002,note_off,286,0,0,,6,,,78,127
35004,note_on,2,0,0,,10,,,57,127
35004,note_on,0,0,0,,7,,,79,127
35292,note_on,288,0,0,,4,,,64,127
35578,note_off,286,0,0,,4,,,64,127
35578,note_off,0,0,0,,7,,,79,127
35578,note_off,0,0,0,,7,,,67,127
35580,note_on,2,0,0,,7,,,67,127
35580,note_on,0,0,0,,1,,,73,127
35866,note_off,286,0,0,,1,,,73,127
35866,note_off,0,0,0,,7,,,67,127
35866,note_off,0,0,0,,10,,,57,127
35868,note_on,2,0,0,,6,,,66,127
35868,note_on,0,0,0,,1,,,73,127
36010,note_off,142,0,0,,1,,,73,127
36012,note_on,2,0,0,,2,,,74,127
36154,note_off,142,0,0,,2,,,74,127
36154,note_off,0,0,0,,6,,,66,127
36156,note_on,2,0,0,,2,,,62,127
36156,note_on,0,0,0,,6,,,78,127
36370,note_off,214,0,0,,6,,,78,127
36372,note_on,2,0,0,,2,,,74,127
36444,note_on,72,0,0,,6,,,78,127
36462,note_off,18,0,0,,2,,,74,127
36730,note_off,268,0,0,,2,,,62,127
36732,note_on,2,0,0,,10,,,69,127
37018,note_off,286,0,0,,10,,,69,127
37020,note_on,2,0,0,,7,,,67,127
37306,note_off,286,0,0,,6,,,78,127
37308,note_on,2,0,0,,10,,,57,127
37308,note_on,0,0,0,,7,,,79,127
37596,note_on,288,0,0,,4,,,64,127
37882,note_off,286,0,0,,4,,,64,127
37882,note_off,0,0,0,,7,,,79,127
37882,note_off,0,0,0,,7,,,67,127
37884,note_on,2,0,0,,7,,,67,127
37884,note_on,0,0,0,,1,,,73,127
38170,note_off,286,0,0,,1,,,73,127
38170,note_off,0,0,0,,7,,,67,127
38170,note_off,0,0,0,,10,,,57,127
38172,note_on,2,0,0,,6,,,66,127
38172,note_on,0,0,0,,2,,,74,127
38458,note_off,286,0,0,,2,,,74,127
38458,note_off,0,0,0,,6,,,66,127
38460,note_on,2,0,0,,2,,,62,127
38460,note_on,0,0,0,,6,,,78,127
38674,note_off,214,0,0,,6,,,78,127
38676,note_on,2,0,0,,2,,,74,127
38748,note_on,72,0,0,,10,,,81,127
38766,note_off,18,0,0,,2,,,74,127
39034,note_off,268,0,0,,2,,,62,127
39036,note_on,2,0,0,,6,,,66,127
39036,note_on,0,0,0,,10,,,69,127
39322,note_off,286,0,0,,10,,,69,127
39322,note_off,0,0,0,,6,,,66,127
39324,note_on,2,0,0,,7,,,55,127
39324,note_on,0,0,0,,12,,,71,127
39610,note_off,286,0,0,,10,,,81,127
39612,note_on,2,0,0,,7,,,79,127
39826,note_off,214,0,0,,7,,,79,127
39828,note_on,2,0,0,,4,,,76,127
39900,note_on,72,0,0,,12,,,83,127
39918,note_off,18,0,0,,4,,,76,127
40186,note_off,268,0,0,,12,,,71,127
40186,note_off,0,0,0,,7,,,55,127
40188,note_on,2,0,0,,7,,,67,127
40188,note_on,0,0,0,,12,,,71,127
40474,note_off,286,0,0,,12,,,71,127
40474,note_off,0,0,0,,7,,,67,127
40476,note_on,2,0,0,,10,,,57,127
40476,note_on,0,0,0,,1,,,73,127
40762,note_off,286,0,0,,12,,,83,127
40764,note_on,2,0,0,,10,,,69,127
40764,note_on,0,0,0,,1,,,85,127
40906,note_off,142,0,0,,1,,,85,127
40908,note_on,2,0,0,,10,,,81,127
41050,note_off,142,0,0,,10,,,81,127
41050,note_off,0,0,0,,10,,,69,127
41050,note_off,0,0,0,,1,,,73,127
41050,note_off,0,0,0,,10,,,57,127
41052,note_on,2,0,0,,6,,,66,127
41052,note_on,0,0,0,,2,,,86,127
41194,note_off,142,0,0,,2,,,86,127
41196,note_on,2,0,0,,10,,,81,127
41338,note_off,142,0,0,,10,,,81,127
41338,note_off,0,0,0,,6,,,66,127
41340,note_on,2,0,0,,2,,,62,127
41340,note_on,0,0,0,,6,,,78,127
41482,note_off,142,0,0,,6,,,78,127
41484,note_on,2,0,0,,2,,,74,127
41626,note_off,142,0,0,,2,,,74,127
41626,note_off,0,0,0,,2,,,62,127
41628,note_on,2,0,0,,7,,,67,127
41628,note_on,0,0,0,,12,,,83,127
41770,note_off,142,0,0,,12,,,83,127
41772,note_on,2,0,0,,6,,,78,127
41914,note_off,142,0,0,,6,,,78,127
41914,note_off,0,0,0,,7,,,67,127
41916,note_on,2,0,0,,4,,,64,127
41916,note_on,0,0,0,,7,,,79,127
42058,note_off,142,0,0,,7,,,79,127
42060,note_on,2,0,0,,4,,,76,127
42202,note_off,142,0,0,,4,,,76,127
42202,note_off,0,0,0,,4,,,64,127
42204,note_on,2,0,0,,10,,,69,127
42204,note_on,0,0,0,,2,,,74,127
42492,note_on,288,0,0,,10,,,57,127
42540,note_on,48,0,0,,1,,,73,127
42579,note_off,39,0,0,,2,,,74,127
42588,note_on,9,0,0,,2,,,74,127
42630,note_off,42,0,0,,1,,,73,127
42636,note_on,6,0,0,,1,,,73,127
42678,note_off,42,0,0,,2,,,74,127
42684,note_on,6,0,0,,12,,,71,127
42726,note_off,42,0,0,,1,,,73,127
42732,note_on,6,0,0,,1,,,73,127
42774,note_off,42,0,0,,12,,,71,127
42778,note_off,4,0,0,,1,,,73,127
42778,note_off,0,0,0,,10,,,57,127
42778,note_off,0,0,0,,10,,,69,127
42780,note_on,2,0,0,,2,,,62,127
42780,note_on,0,0,0,,1,,,73,127
42922,note_off,142,0,0,,1,,,73,127
42924,note_on,2,0,0,,2,,,74,127
43066,note_off,142,0,0,,2,,,62,127
43068,note_on,2,0,0,,6,,,66,127
43210,note_off,142,0,0,,2,,,74,127
43282,note_off,72,0,0,,6,,,66,127
43284,note_on,2,0,0,,2,,,62,127
43356,note_on,72,0,0,,6,,,66,127
43356,note_on,0,0,0,,2,,,74,127
43374,note_off,18,0,0,,2,,,62,127
43642,note_off,268,0,0,,6,,,66,127
43644,note_on,2,0,0,,2,,,62,127
43930,note_off,286,0,0,,2,,,62,127
43932,note_on,2,0,0,,10,,,33,127
44218,note_off,286,0,0,,2,,,74,127
44220,note_on,2,0,0,,4,,,76,127
44362,note_off,142,0,0,,4,,,76,127
44364,note_on,2,0,0,,2,,,74,127
44506,note_off,142,0,0,,2,,,74,127
44508,note_on,2,0,0,,1,,,73,127
44652,note_on,144,0,0,,4,,,64,127
44794,note_off,142,0,0,,4,,,64,127
44796,note_on,2,0,0,,6,,,66,127
44938,note_off,142,0,0,,1,,,73,127
44940,note_on,2,0,0,,2,,,74,127
45082,note_off,142,0,0,,2,,,74,127
45082,note_off,0,0,0,,6,,,66,127
45084,note_on,2,0,0,,7,,,67,127
45084,note_on,0,0,0,,4,,,76,127
45370,note_off,286,0,0,,7,,,67,127
45370,note_off,0,0,0,,10,,,33,127
45372,note_on,2,0,0,,7,,,67,127
45586,note_off,214,0,0,,7,,,67,127
45588,note_on,2,0,0,,4,,,64,127
45658,note_off,70,0,0,,4,,,76,127
45660,note_on,2,0,0,,7,,,67,127
45660,note_on,0,0,0,,4,,,76,127
45678,note_off,18,0,0,,4,,,64,127
45946,note_off,268,0,0,,7,,,67,127
45948,note_on,2,0,0,,4,,,64,127
46234,note_off,286,0,0,,4,,,64,127
46236,note_on,2,0,0,,10,,,33,127
46522,note_off,286,0,0,,4,,,76,127
46524,note_on,2,0,0,,6,,,78,127
46666,note_off,142,0,0,,6,,,78,127
46668,note_on,2,0,0,,4,,,76,127
46810,note_off,142,0,0,,4,,,76,127
46812,note_on,2,0,0,,2,,,74,127
46956,note_on,144,0,0,,6,,,66,127
47098,note_off,142,0,0,,6,,,66,127
47100,note_on,2,0,0,,7,,,67,127
47242,note_off,142,0,0,,2,,,74,127
47244,note_on,2,0,0,,4,,,76,127
47386,note_off,142,0,0,,4,,,76,127
47386,note_off,0,0,0,,7,,,67,127
47388,note_on,2,0,0,,10,,,69,127
47388,note_on,0,0,0,,6,,,78,127
47674,note_off,286,0,0,,10,,,69,127
47674,note_off,0,0,0,,10,,,33,127
47676,note_on,2,0,0,,10,,,69,127
47890,note_off,214,0,0,,10,,,69,127
47892,note_on,2,0,0,,6,,,66,127
47962,note_off,70,0,0,,6,,,78,127
47964,note_on,2,0,0,,10,,,69,127
47964,note_on,0,0,0,,6,,,78,127
47982,note_off,18,0,0,,6,,,66,127
48250,note_off,268,0,0,,10,,,69,127
48252,note_on,2,0,0,,6,,,66,127
48538,note_off,286,0,0,,6,,,66,127
48540,note_on,2,0,0,,7,,,31,127
48826,note_off,286,0,0,,6,,,78,127
48828,note_on,2,0,0,,7,,,79,127
48970,note_off,142,0,0,,7,,,79,127
48972,note_on,2,0,0,,6,,,78,127
49114,note_off,142,0,0,,6,,,78,127
49116,note_on,2,0,0,,4,,,76,127
49260,note_on,144,0,0,,7,,,67,127
49402,note_off,142,0,0,,7,,,67,127
49404,note_on,2,0,0,,10,,,69,127
49546,note_off,142,0,0,,4,,,76,127
49548,note_on,2,0,0,,6,,,78,127
49690,note_off,142,0,0,,6,,,78,127
49690,note_off,0,0,0,,7,,,31,127
49692,note_on,2,0,0,,7,,,31,127
49692,note_on,0,0,0,,7,,,79,127
49834,note_off,142,0,0,,10,,,69,127
49836,note_on,2,0,0,,12,,,71,127
49978,note_off,142,0,0,,12,,,71,127
49980,note_on,2,0,0,,10,,,69,127
50122,note_off,142,0,0,,7,,,79,127
50124,note_on,2,0,0,,6,,,78,127
50266,note_off,142,0,0,,6,,,78,127
50268,note_on,2,0,0,,4,,,76,127
50410,note_off,142,0,0,,10,,,69,127
50412,note_on,2,0,0,,7,,,67,127
50554,note_off,142,0,0,,7,,,67,127
50556,note_on,2,0,0,,6,,,66,127
50698,note_off,142,0,0,,4,,,76,127
50700,note_on,2,0,0,,2,,,74,127
50842,note_off,142,0,0,,2,,,74,127
50842,note_off,0,0,0,,7,,,31,127
50844,note_on,2,0,0,,10,,,33,127
50844,note_on,0,0,0,,1,,,73,127
50986,note_off,142,0,0,,6,,,66,127
50988,note_on,2,0,0,,4,,,64,127
51130,note_off,142,0,0,,4,,,64,127
51132,note_on,2,0,0,,2,,,62,127
51274,note_off,142,0,0,,1,,,73,127
51276,note_on,2,0,0,,12,,,71,127
51418,note_off,142,0,0,,12,,,71,127
51420,note_on,2,0,0,,10,,,69,127
51562,note_off,142,0,0,,2,,,62,127
51564,note_on,2,0,0,,2,,,62,127
51706,note_off,142,0,0,,2,,,62,127
51708,note_on,2,0,0,,1,,,61,127
51850,note_off,142,0,0,,10,,,69,127
51852,note_on,2,0,0,,7,,,67,127
51994,note_off,142,0,0,,1,,,61,127
51994,note_off,0,0,0,,10,,,33,127
51996,note_on,2,0,0,,2,,,38,127
51996,note_on,0,0,0,,2,,,62,127
52138,note_off,142,0,0,,7,,,67,127
52140,note_on,2,0,0,,6,,,66,127
52282,note_off,142,0,0,,6,,,66,127
52282,note_off,0,0,0,,2,,,62,127
52282,note_off,0,0,0,,2,,,38,127
52284,note_on,2,0,0,,7,,,43,127
52284,note_on,0,0,0,,7,,,67,127
52426,note_off,142,0,0,,7,,,67,127
52428,note_on,2,0,0,,10,,,69,127
52570,note_off,142,0,0,,10,,,69,127
52570,note_off,0,0,0,,7,,,43,127
52572,note_on,2,0,0,,10,,,45,127
52572,note_on,0,0,0,,2,,,62,127
52860,note_on,288,0,0,,10,,,33,127
52908,note_on,48,0,0,,1,,,61,127
52947,note_off,39,0,0,,2,,,62,127
52956,note_on,9,0,0,,2,,,62,127
52998,note_off,42,0,0,,1,,,61,127
53004,note_on,6,0,0,,1,,,61,127
53046,note_off,42,0,0,,2,,,62,127
53052,note_on,6,0,0,,12,,,59,127
53094,note_off,42,0,0,,1,,,61,127
53100,note_on,6,0,0,,1,,,61,127
53142,note_off,42,0,0,,12,,,59,127
53146,note_off,4,0,0,,1,,,61,127
53146,note_off,0,0,0,,10,,,33,127
53146,note_off,0,0,0,,10,,,45,127
53148,note_on,2,0,0,,2,,,38,127
53148,note_on,0,0,0,,2,,,62,127
53434,note_off,286,0,0,,2,,,38,127
53436,note_on,2,0,0,,6,,,66,127
53578,note_off,142,0,0,,2,,,62,127
53650,note_off,72,0,0,,6,,,66,127
53652,note_on,2,0,0,,2,,,62,127
53724,note_on,72,0,0,,6,,,66,127
53724,note_on,0,0,0,,2,,,74,127
53742,note_off,18,0,0,,2,,,62,127
54010,note_off,268,0,0,,6,,,66,127
54012,note_on,2,0,0,,2,,,62,127
54298,note_off,286,0,0,,2,,,62,127
54300,note_on,2,0,0,,10,,,33,127
54586,note_off,286,0,0,,2,,,74,127
54588,note_on,2,0,0,,4,,,76,127
54730,note_off,142,0,0,,4,,,76,127
54732,note_on,2,0,0,,2,,,74,127
54874,note_off,142,0,0,,2,,,74,127
54876,note_on,2,0,0,,1,,,73,127
55020,note_on,144,0,0,,4,,,64,127
55162,note_off,142,0,0,,4,,,64,127
55164,note_on,2,0,0,,6,,,66,127
55306,note_off,142,0,0,,1,,,73,127
55308,note_on,2,0,0,,2,,,74,127
55450,note_off,142,0,0,,2,,,74,127
55450,note_off,0,0,0,,6,,,66,127
55452,note_on,2,0,0,,4,,,76,127
55452,note_on,0,0,0,,7,,,67,127
55738,note_off,286,0,0,,7,,,67,127
55738,note_off,0,0,0,,10,,,33,127
55740,note_on,2,0,0,,7,,,67,127
55954,note_off,214,0,0,,7,,,67,127
55956,note_on,2,0,0,,4,,,64,127
56026,note_off,70,0,0,,4,,,76,127
56028,note_on,2,0,0,,7,,,67,127
56028,note_on,0,0,0,,4,,,76,127
56046,note_off,18,0,0,,4,,,64,127
56314,note_off,268,0,0,,7,,,67,127
56316,note_on,2,0,0,,4,,,64,127
56602,note_off,286,0,0,,4,,,64,127
56604,note_on,2,0,0,,10,,,33,127
56890,note_off,286,0,0,,4,,,76,127
56892,note_on,2,0,0,,6,,,78,127
57034,note_off,142,0,0,,6,,,78,127
57036,note_on,2,0,0,,4,,,76,127
57178,note_off,142,0,0,,4,,,76,127
57180,note_on,2,0,0,,2,,,74,127
57324,note_on,144,0,0,,6,,,66,127
57466,note_off,142,0,0,,6,,,66,127
57468,note_on,2,0,0,,7,,,67,127
57610,note_off,142,0,0,,2,,,74,127
57612,note_on,2,0,0,,4,,,76,127
57754,note_off,142,0,0,,4,,,76,127
57754,note_off,0,0,0,,7,,,67,127
57756,note_on,2,0,0,,10,,,69,127
57756,note_on,0,0,0,,6,,,78,127
58042,note_off,286,0,0,,10,,,69,127
58042,note_off,0,0,0,,10,,,33,127
58044,note_on,2,0,0,,10,,,69,127
58258,note_off,214,0,0,,10,,,69,127
58260,note_on,2,0,0,,6,,,66,127
58330,note_off,70,0,0,,6,,,78,127
58332,note_on,2,0,0,,10,,,69,127
58332,note_on,0,0,0,,6,,,78,127
58350,note_off,18,0,0,,6,,,66,127
58618,note_off,268,0,0,,10,,,69,127
58620,note_on,2,0,0,,6,,,66,127
58906,note_off,286,0,0,,6,,,66,127
58908,note_on,2,0,0,,7,,,31,127
59194,note_off,286,0,0,,6,,,78,127
59196,note_on,2,0,0,,7,,,79,127
59338,note_off,142,0,0,,7,,,79,127
59340,note_on,2,0,0,,6,,,78,127
59482,note_off,142,0,0,,6,,,78,127
59484,note_on,2,0,0,,4,,,76,127
59628,note_on,144,0,0,,7,,,67,127
59770,note_off,142,0,0,,7,,,67,127
59772,note_on,2,0,0,,10,,,69,127
59914,note_off,142,0,0,,4,,,76,127
59916,note_on,2,0,0,,6,,,78,127
60058,note_off,142,0,0,,6,,,78,127
60058,note_off,0,0,0,,7,,,31,127
60060,note_on,2,0,0,,7,,,31,127
60060,note_on,0,0,0,,7,,,79,127
60202,note_off,142,0,0,,10,,,69,127
60204,note_on,2,0,0,,12,,,71,127
60346,note_off,142,0,0,,12,,,71,127
60348,note_on,2,0,0,,10,,,69,127
60490,note_off,142,0,0,,7,,,79,127
60492,note_on,2,0,0,,6,,,78,127
60634,note_off,142,0,0,,6,,,78,127
60636,note_on,2,0,0,,4,,,76,127
60778,note_off,142,0,0,,10,,,69,127
60780,note_on,2,0,0,,7,,,67,127
60922,note_off,142,0,0,,7,,,67,127
60924,note_on,2,0,0,,6,,,66,127
61066,note_off,142,0,0,,4,,,76,127
61068,note_on,2,0,0,,2,,,74,127
61210,note_off,142,0,0,,2,,,74,127
61210,note_off,0,0,0,,7,,,31,127
61212,note_on,2,0,0,,10,,,33,127
61212,note_on,0,0,0,,1,,,73,127
61354,note_off,142,0,0,,6,,,66,127
61356,note_on,2,0,0,,4,,,64,127
61498,note_off,142,0,0,,4,,,64,127
61500,note_on,2,0,0,,2,,,62,127
61642,note_off,142,0,0,,1,,,73,127
61644,note_on,2,0,0,,12,,,71,127
61786,note_off,142,0,0,,12,,,71,127
61788,note_on,2,0,0,,10,,,69,127
61930,note_off,142,0,0,,2,,,62,127
61932,note_on,2,0,0,,2,,,62,127
62074,note_off,142,0,0,,2,,,62,127
62076,note_on,2,0,0,,1,,,61,127
62218,note_off,142,0,0,,10,,,69,127
62220,note_on,2,0,0,,7,,,67,127
62362,note_off,142,0,0,,1,,,61,127
62362,note_off,0,0,0,,10,,,33,127
62364,note_on,2,0,0,,2,,,38,127
62364,note_on,0,0,0,,2,,,62,127
62506,note_off,142,0,0,,7,,,67,127
62508,note_on,2,0,0,,6,,,66,127
62650,note_off,142,0,0,,6,,,66,127
62650,note_off,0,0,0,,2,,,62,127
62650,note_off,0,0,0,,2,,,38,127
62652,note_on,2,0,0,,7,,,43,127
62652,note_on,0,0,0,,7,,,67,127
62794,note_off,142,0,0,,7,,,67,127
62796,note_on,2,0,0,,10,,,69,127
62938,note_off,142,0,0,,10,,,69,127
62938,note_off,0,0,0,,7,,,43,127
62940,note_on,2,0,0,,10,,,45,127
62940,note_on,0,0,0,,2,,,62,127
63228,note_on,288,0,0,,10,,,33,127
63276,note_on,48,0,0,,1,,,61,127
63315,note_off,39,0,0,,2,,,62,127
63324,note_on,9,0,0,,2,,,62,127
63366,note_off,42,0,0,,1,,,61,127
63372,note_on,6,0,0,,1,,,61,127
63414,note_off,42,0,0,,2,,,62,127
63420,note_on,6,0,0,,12,,,59,127
63462,note_off,42,0,0,,1,,,61,127
63468,note_on,6,0,0,,1,,,61,127
63510,note_off,42,0,0,,12,,,59,127
63514,note_off,4,0,0,,1,,,61,127
63514,note_off,0,0,0,,10,,,33,127
63514,note_off,0,0,0,,10,,,45,127
63516,note_on,2,0,0,,2,,,38,127
63516,note_on,0,0,0,,2,,,62,127
63658,note_off,142,0,0,,2,,,62,127
63660,note_on,2,0,0,,2,,,86,127
63802,note_off,142,0,0,,2,,,86,127
63804,note_on,2,0,0,,10,,,81,127
63946,note_off,142,0,0,,10,,,81,127
63948,note_on,2,0,0,,6,,,78,127
64090,note_off,142,0,0,,6,,,78,127
64092,note_on,2,0,0,,2,,,74,127
64234,note_off,142,0,0,,2,,,74,127
64236,note_on,2,0,0,,10,,,69,127
64378,note_off,142,0,0,,10,,,69,127
64380,note_on,2,0,0,,6,,,66,127
64522,note_off,142,0,0,,6,,,66,127
64524,note_on,2,0,0,,2,,,62,127
64666,note_off,142,0,0,,2,,,62,127
64668,note_on,2,0,0,,1,,,73,127
64954,note_off,286,0,0,,2,,,38,127
64956,note_on,2,0,0,,7,,,55,127
65098,note_off,142,0,0,,1,,,73,127
65100,note_on,2,0,0,,2,,,74,127
65242,note_off,142,0,0,,2,,,74,127
65242,note_off,0,0,0,,7,,,55,127
65244,note_on,2,0,0,,10,,,57,127
65244,note_on,0,0,0,,2,,,62,127
65530,note_off,286,0,0,,2,,,62,127
65532,note_on,2,0,0,,10,,,45,127
65532,note_on,0,0,0,,1,,,61,127
65818,note_off,286,0,0,,1,,,61,127
65818,note_off,0,0,0,,10,,,45,127
65818,note_off,0,0,0,,10,,,57,127
65820,note_on,2,0,0,,2,,,38,127
65820,note_on,0,0,0,,2,,,62,127
65962,note_off,142,0,0,,2,,,62,127
65964,note_on,2,0,0,,2,,,86,127
66106,note_off,142,0,0,,2,,,86,127
66108,note_on,2,0,0,,10,,,81,127
66250,note_off,142,0,0,,10,,,81,127
66252,note_on,2,0,0,,6,,,78,127
66394,note_off,142,0,0,,6,,,78,127
66396,note_on,2,0,0,,2,,,74,127
66538,note_off,142,0,0,,2,,,74,127
66540,note_on,2,0,0,,10,,,69,127
66682,note_off,142,0,0,,10,,,69,127
66684,note_on,2,0,0,,6,,,66,127
66826,note_off,142,0,0,,6,,,66,127
66828,note_on,2,0,0,,2,,,62,127
66970,note_off,142,0,0,,2,,,62,127
66972,note_on,2,0,0,,1,,,73,127
67258,note_off,286,0,0,,2,,,38,127
67260,note_on,2,0,0,,7,,,55,127
67260,note_on,0,0,0,,7,,,43,127
67402,note_off,142,0,0,,1,,,73,127
67404,note_on,2,0,0,,2,,,74,127
67546,note_off,142,0,0,,2,,,74,127
67548,note_on,2,0,0,,2,,,62,127
67692,note_off,144,0,0,,7,,,43,127
67692,note_off,0,0,0,,7,,,55,127
67834,note_off,142,0,0,,2,,,62,127
67836,note_on,2,0,0,,10,,,45,127
67836,note_on,0,0,0,,10,,,57,127
67836,note_on,0,0,0,,1,,,61,127
68122,note_off,286,0,0,,1,,,61,127
68124,note_on,2,0,0,,1,,,73,127
68268,note_off,144,0,0,,10,,,57,127
68268,note_off,0,0,0,,10,,,45,127
68412,note_on,144,0,0,,7,,,43,127
68412,note_on,0,0,0,,7,,,55,127
68554,note_off,142,0,0,,1,,,73,127
68556,note_on,2,0,0,,2,,,74,127
68698,note_off,142,0,0,,2,,,74,127
68700,note_on,2,0,0,,2,,,62,127
68844,note_off,144,0,0,,7,,,55,127
68844,note_off,0,0,0,,7,,,43,127
68986,note_off,142,0,0,,2,,,62,127
68988,note_on,2,0,0,,10,,,57,127
68988,note_on,0,0,0,,10,,,45,127
68988,note_on,0,0,0,,1,,,61,127
69274,note_off,286,0,0,,1,,,61,127
69276,note_on,2,0,0,,1,,,73,127
69420,note_off,144,0,0,,10,,,45,127
69420,note_off,0,0,0,,10,,,57,127
69564,note_on,144,0,0,,7,,,55,127
69706,note_off,142,0,0,,1,,,73,127
69708,note_on,2,0,0,,2,,,74,127
69850,note_off,142,0,0,,2,,,74,127
69850,note_off,0,0,0,,7,,,55,127
69852,note_on,2,0,0,,10,,,57,127
69852,note_on,0,0,0,,2,,,62,127
70140,note_on,288,0,0,,10,,,45,127
70188,note_on,48,0,0,,1,,,61,127
70227,note_off,39,0,0,,2,,,62,127
70236,note_on,9,0,0,,2,,,62,127
70278,note_off,42,0,0,,1,,,61,127
70284,note_on,6,0,0,,1,,,61,127
70326,note_off,42,0,0,,2,,,62,127
70332,note_on,6,0,0,,12,,,59,127
70374,note_off,42,0,0,,1,,,61,127
70380,note_on,6,0,0,,1,,,61,127
70422,note_off,42,0,0,,12,,,59,127
70426,note_off,4,0,0,,1,,,61,127
70426,note_off,0,0,0,,10,,,45,127
70426,note_off,0,0,0,,10,,,57,127
70428,note_on,2,0,0,,2,,,38,127
70428,note_on,0,0,0,,1,,,61,127
70714,note_off,286,0,0,,1,,,61,127
70716,note_on,2,0,0,,2,,,62,127
71578,note_off,862,0,0,,2,,,62,127
71578,note_off,0,0,0,,2,,,38,127
71580,note_on,2,0,0,,2,,,50,127
71724,note_on,144,0,0,,6,,,66,127
71866,note_off,142,0,0,,6,,,66,127
71868,note_on,2,0,0,,6,,,66,127
72010,note_off,142,0,0,,6,,,66,127
72012,note_on,2,0,0,,4,,,64,127
72154,note_off,142,0,0,,4,,,64,127
72156,note_on,2,0,0,,2,,,62,127
72300,note_on,144,0,0,,10,,,69,127
72372,note_off,72,0,0,,2,,,62,127
72442,note_off,70,0,0,,10,,,69,127
72444,note_on,2,0,0,,10,,,69,127
72586,note_off,142,0,0,,10,,,69,127
72588,note_on,2,0,0,,7,,,67,127
72730,note_off,142,0,0,,7,,,67,127
72730,note_off,0,0,0,,2,,,50,127
72732,note_on,2,0,0,,2,,,50,127
72732,note_on,0,0,0,,6,,,66,127
72876,note_on,144,0,0,,0,,,72,127
72948,note_off,72,0,0,,6,,,66,127
73018,note_off,70,0,0,,0,,,72,127
73020,note_on,2,0,0,,0,,,72,127
73162,note_off,142,0,0,,0,,,72,127
73164,note_on,2,0,0,,12,,,71,127
73306,note_off,142,0,0,,12,,,71,127
73308,note_on,2,0,0,,10,,,69,127
73452,note_on,144,0,0,,4,,,76,127
73524,note_off,72,0,0,,10,,,69,127
73594,note_off,70,0,0,,4,,,76,127
73596,note_on,2,0,0,,4,,,76,127
73738,note_off,142,0,0,,4,,,76,127
73740,note_on,2,0,0,,2,,,74,127
73882,note_off,142,0,0,,2,,,74,127
73884,note_on,2,0,0,,0,,,72,127
74026,note_off,142,0,0,,2,,,50,127
74028,note_on,2,0,0,,6,,,54,127
74170,note_off,142,0,0,,6,,,54,127
74172,note_on,2,0,0,,6,,,54,127
74314,note_off,142,0,0,,6,,,54,127
74316,note_on,2,0,0,,4,,,52,127
74458,note_off,142,0,0,,4,,,52,127
74460,note_on,2,0,0,,2,,,50,127
74604,note_on,144,0,0,,10,,,57,127
74676,note_off,72,0,0,,2,,,50,127
74746,note_off,70,0,0,,10,,,57,127
74748,note_on,2,0,0,,10,,,57,127
74890,note_off,142,0,0,,10,,,57,127
74892,note_on,2,0,0,,7,,,55,127
75034,note_off,142,0,0,,7,,,55,127
75034,note_off,0,0,0,,0,,,72,127
75036,note_on,2,0,0,,6,,,54,127
75036,note_on,0,0,0,,0,,,72,127
75180,note_on,144,0,0,,0,,,60,127
75252,note_off,72,0,0,,6,,,54,127
75322,note_off,70,0,0,,0,,,60,127
75324,note_on,2,0,0,,0,,,60,127
75466,note_off,142,0,0,,0,,,60,127
75468,note_on,2,0,0,,12,,,59,127
75610,note_off,142,0,0,,12,,,59,127
75612,note_on,2,0,0,,10,,,57,127
75756,note_on,144,0,0,,6,,,66,127
75828,note_off,72,0,0,,10,,,57,127
75898,note_off,70,0,0,,6,,,66,127
75900,note_on,2,0,0,,6,,,66,127
76042,note_off,142,0,0,,6,,,66,127
76044,note_on,2,0,0,,4,,,64,127
76186,note_off,142,0,0,,4,,,64,127
76186,note_off,0,0,0,,0,,,72,127
76188,note_on,2,0,0,,6,,,66,127
76188,note_on,0,0,0,,3,,,63,127
76188,note_on,0,0,0,,6,,,78,127
76330,note_off,142,0,0,,6,,,78,127
76332,note_on,2,0,0,,0,,,72,127
76474,note_off,142,0,0,,0,,,72,127
76476,note_on,2,0,0,,0,,,72,127
76618,note_off,142,0,0,,0,,,72,127
76620,note_on,2,0,0,,12,,,71,127
76762,note_off,142,0,0,,12,,,71,127
76764,note_on,2,0,0,,12,,,71,127
76906,note_off,142,0,0,,12,,,71,127
76908,note_on,2,0,0,,10,,,69,127
77050,note_off,142,0,0,,10,,,69,127
77050,note_off,0,0,0,,3,,,63,127
77050,note_off,0,0,0,,6,,,66,127
77052,note_on,2,0,0,,6,,,66,127
77052,note_on,0,0,0,,3,,,63,127
77052,note_on,0,0,0,,10,,,69,127
77194,note_off,142,0,0,,10,,,69,127
77196,note_on,2,0,0,,7,,,67,127
77338,note_off,142,0,0,,7,,,67,127
77338,note_off,0,0,0,,3,,,63,127
77338,note_off,0,0,0,,6,,,66,127
77340,note_on,2,0,0,,4,,,64,127
77340,note_on,0,0,0,,7,,,67,127
77484,note_on,144,0,0,,12,,,71,127
77556,note_off,72,0,0,,7,,,67,127
77626,note_off,70,0,0,,12,,,71,127
77628,note_on,2,0,0,,7,,,55,127
77628,note_on,0,0,0,,12,,,71,127
77770,note_off,142,0,0,,12,,,71,127
77772,note_on,2,0,0,,0,,,72,127
77914,note_off,142,0,0,,0,,,72,127
77914,note_off,0,0,0,,7,,,55,127
77914,note_off,0,0,0,,4,,,64,127
77916,note_on,2,0,0,,10,,,57,127
77916,note_on,0,0,0,,0,,,72,127
78058,note_off,142,0,0,,0,,,72,127
78060,note_on,2,0,0,,10,,,69,127
78202,note_off,142,0,0,,10,,,69,127
78204,note_on,2,0,0,,4,,,64,127
78204,note_on,0,0,0,,10,,,69,127
78346,note_off,142,0,0,,10,,,69,127
78348,note_on,2,0,0,,6,,,66,127
78490,note_off,142,0,0,,6,,,66,127
78490,note_off,0,0,0,,10,,,57,127
78492,note_on,2,0,0,,12,,,59,127
78492,note_on,0,0,0,,6,,,66,127
78636,note_on,144,0,0,,12,,,71,127
78708,note_off,72,0,0,,6,,,66,127
78778,note_off,70,0,0,,12,,,71,127
78778,note_off,0,0,0,,4,,,64,127
78780,note_on,2,0,0,,3,,,63,127
78780,note_on,0,0,0,,12,,,71,127
78922,note_off,142,0,0,,12,,,71,127
78924,note_on,2,0,0,,0,,,72,127
79066,note_off,142,0,0,,0,,,72,127
79066,note_off,0,0,0,,3,,,63,127
79066,note_off,0,0,0,,12,,,59,127
79068,note_on,2,0,0,,10,,,57,127
79068,note_on,0,0,0,,0,,,72,127
79210,note_off,142,0,0,,0,,,72,127
79212,note_on,2,0,0,,10,,,69,127
79354,note_off,142,0,0,,10,,,69,127
79356,note_on,2,0,0,,4,,,64,127
79356,note_on,0,0,0,,10,,,69,127
79498,note_off,142,0,0,,10,,,69,127
79500,note_on,2,0,0,,6,,,66,127
79642,note_off,142,0,0,,6,,,66,127
79642,note_off,0,0,0,,10,,,57,127
79644,note_on,2,0,0,,12,,,59,127
79644,note_on,0,0,0,,6,,,66,127
79788,note_on,144,0,0,,12,,,71,127
79860,note_off,72,0,0,,6,,,66,127
79930,note_off,70,0,0,,12,,,71,127
79930,note_off,0,0,0,,4,,,64,127
79932,note_on,2,0,0,,3,,,63,127
79932,note_on,0,0,0,,12,,,71,127
80074,note_off,142,0,0,,12,,,71,127
80076,note_on,2,0,0,,0,,,72,127
80218,note_off,142,0,0,,0,,,72,127
80218,note_off,0,0,0,,3,,,63,127
80218,note_off,0,0,0,,12,,,59,127
80220,note_on,2,0,0,,10,,,57,127
80220,note_on,0,0,0,,0,,,72,127
80362,note_off,142,0,0,,0,,,72,127
80364,note_on,2,0,0,,10,,,69,127
80506,note_off,142,0,0,,10,,,69,127
80508,note_on,2,0,0,,4,,,64,127
80508,note_on,0,0,0,,10,,,69,127
80650,note_off,142,0,0,,10,,,69,127
80652,note_on,2,0,0,,6,,,66,127
80794,note_off,142,0,0,,6,,,66,127
80794,note_off,0,0,0,,4,,,64,127
80794,note_off,0,0,0,,10,,,57,127
80796,note_on,2,0,0,,12,,,59,127
80796,note_on,0,0,0,,6,,,66,127
80940,note_on,144,0,0,,0,,,72,127
81012,note_off,72,0,0,,6,,,66,127
81082,note_off,70,0,0,,0,,,72,127
81082,note_off,0,0,0,,12,,,59,127
81084,note_on,2,0,0,,0,,,60,127
81084,note_on,0,0,0,,0,,,72,127
81226,note_off,142,0,0,,0,,,72,127
81228,note_on,2,0,0,,12,,,71,127
81370,note_off,142,0,0,,12,,,71,127
81370,note_off,0,0,0,,0,,,60,127
81372,note_on,2,0,0,,2,,,62,127
81372,note_on,0,0,0,,12,,,71,127
81514,note_off,142,0,0,,12,,,71,127
81516,note_on,2,0,0,,10,,,69,127
81658,note_off,142,0,0,,10,,,69,127
81660,note_on,2,0,0,,10,,,69,127
81802,note_off,142,0,0,,10,,,69,127
81804,note_on,2,0,0,,8,,,68,127
81946,note_off,142,0,0,,8,,,68,127
81946,note_off,0,0,0,,2,,,62,127
81948,note_on,2,0,0,,4,,,52,127
81948,note_on,0,0,0,,8,,,68,127
82092,note_on,144,0,0,,12,,,71,127
82164,note_off,72,0,0,,8,,,68,127
82234,note_off,70,0,0,,12,,,71,127
82236,note_on,2,0,0,,2,,,62,127
82236,note_on,0,0,0,,12,,,71,127
82378,note_off,142,0,0,,12,,,71,127
82380,note_on,2,0,0,,2,,,74,127
82522,note_off,142,0,0,,2,,,74,127
82522,note_off,0,0,0,,4,,,52,127
82524,note_on,2,0,0,,5,,,53,127
82524,note_on,0,0,0,,2,,,74,127
82666,note_off,142,0,0,,2,,,74,127
82668,note_on,2,0,0,,12,,,71,127
82810,note_off,142,0,0,,12,,,71,127
82810,note_off,0,0,0,,5,,,53,127
82810,note_off,0,0,0,,2,,,62,127
82812,note_on,2,0,0,,2,,,62,127
82812,note_on,0,0,0,,12,,,71,127
82954,note_off,142,0,0,,12,,,71,127
82956,note_on,2,0,0,,8,,,68,127
83098,note_off,142,0,0,,8,,,68,127
83100,note_on,2,0,0,,4,,,52,127
83100,note_on,0,0,0,,8,,,68,127
83244,note_on,144,0,0,,12,,,71,127
83316,note_off,72,0,0,,8,,,68,127
83386,note_off,70,0,0,,12,,,71,127
83386,note_off,0,0,0,,2,,,62,127
83388,note_on,2,0,0,,2,,,62,127
83388,note_on,0,0,0,,12,,,71,127
83530,note_off,142,0,0,,12,,,71,127
83532,note_on,2,0,0,,2,,,74,127
83674,note_off,142,0,0,,2,,,74,127
83674,note_off,0,0,0,,4,,,52,127
83676,note_on,2,0,0,,5,,,53,127
83676,note_on,0,0,0,,2,,,74,127
83818,note_off,142,0,0,,2,,,74,127
83820,note_on,2,0,0,,12,,,71,127
83962,note_off,142,0,0,,12,,,71,127
83962,note_off,0,0,0,,5,,,53,127
83962,note_off,0,0,0,,2,,,62,127
83964,note_on,2,0,0,,2,,,62,127
83964,note_on,0,0,0,,12,,,71,127
84106,note_off,142,0,0,,12,,,71,127
84108,note_on,2,0,0,,8,,,68,127
84250,note_off,142,0,0,,8,,,68,127
84250,note_off,0,0,0,,2,,,62,127
84252,note_on,2,0,0,,4,,,52,127
84252,note_on,0,0,0,,2,,,62,127
84252,note_on,0,0,0,,8,,,68,127
84394,note_off,142,0,0,,8,,,68,127
84396,note_on,2,0,0,,5,,,77,127
84538,note_off,142,0,0,,5,,,77,127
84540,note_on,2,0,0,,5,,,77,127
84682,note_off,142,0,0,,5,,,77,127
84684,note_on,2,0,0,,4,,,76,127
84826,note_off,142,0,0,,4,,,76,127
84828,note_on,2,0,0,,4,,,76,127
84970,note_off,142,0,0,,4,,,76,127
84972,note_on,2,0,0,,2,,,74,127
85114,note_off,142,0,0,,2,,,74,127
85114,note_off,0,0,0,,2,,,62,127
85114,note_off,0,0,0,,4,,,52,127
85116,note_on,2,0,0,,8,,,56,127
85116,note_on,0,0,0,,2,,,74,127
85258,note_off,142,0,0,,2,,,74,127
85260,note_on,2,0,0,,0,,,72,127
85402,note_off,142,0,0,,0,,,72,127
85402,note_off,0,0,0,,8,,,56,127
85404,note_on,2,0,0,,10,,,57,127
85404,note_on,0,0,0,,0,,,72,127
85546,note_off,142,0,0,,0,,,72,127
85548,note_on,2,0,0,,12,,,71,127
85690,note_off,142,0,0,,12,,,71,127
85690,note_off,0,0,0,,10,,,57,127
85692,note_on,2,0,0,,12,,,59,127
85692,note_on,0,0,0,,12,,,71,127
85834,note_off,142,0,0,,12,,,71,127
85836,note_on,2,0,0,,10,,,69,127
85978,note_off,142,0,0,,10,,,69,127
85978,note_off,0,0,0,,12,,,59,127
85980,note_on,2,0,0,,0,,,60,127
85980,note_on,0,0,0,,10,,,69,127
86122,note_off,142,0,0,,10,,,69,127
86124,note_on,2,0,0,,7,,,67,127
86266,note_off,142,0,0,,7,,,67,127
86266,note_off,0,0,0,,0,,,60,127
86268,note_on,2,0,0,,10,,,57,127
86268,note_on,0,0,0,,7,,,67,127
86410,note_off,142,0,0,,7,,,67,127
86412,note_on,2,0,0,,6,,,66,127
86554,note_off,142,0,0,,6,,,66,127
86554,note_off,0,0,0,,10,,,57,127
86556,note_on,2,0,0,,2,,,62,127
86556,note_on,0,0,0,,6,,,66,127
86698,note_off,142,0,0,,6,,,66,127
86700,note_on,2,0,0,,4,,,76,127
86842,note_off,142,0,0,,4,,,76,127
86844,note_on,2,0,0,,2,,,50,127
86844,note_on,0,0,0,,4,,,76,127
86986,note_off,142,0,0,,4,,,76,127
86988,note_on,2,0,0,,2,,,74,127
87130,note_off,142,0,0,,2,,,74,127
87130,note_off,0,0,0,,2,,,62,127
87132,note_on,2,0,0,,2,,,74,127
87274,note_off,142,0,0,,2,,,74,127
87276,note_on,2,0,0,,0,,,72,127
87418,note_off,142,0,0,,0,,,72,127
87418,note_off,0,0,0,,2,,,50,127
87420,note_on,2,0,0,,6,,,54,127
87420,note_on,0,0,0,,0,,,72,127
87562,note_off,142,0,0,,0,,,72,127
87564,note_on,2,0,0,,12,,,71,127
87706,note_off,142,0,0,,12,,,71,127
87706,note_off,0,0,0,,6,,,54,127
87708,note_on,2,0,0,,7,,,55,127
87708,note_on,0,0,0,,12,,,71,127
87850,note_off,142,0,0,,12,,,71,127
87852,note_on,2,0,0,,10,,,69,127
87994,note_off,142,0,0,,10,,,69,127
87994,note_off,0,0,0,,7,,,55,127
87996,note_on,2,0,0,,10,,,57,127
87996,note_on,0,0,0,,10,,,69,127
88138,note_off,142,0,0,,10,,,69,127
88140,note_on,2,0,0,,7,,,67,127
88282,note_off,142,0,0,,7,,,67,127
88282,note_off,0,0,0,,10,,,57,127
88284,note_on,2,0,0,,12,,,59,127
88284,note_on,0,0,0,,7,,,67,127
88426,note_off,142,0,0,,7,,,67,127
88428,note_on,2,0,0,,6,,,66,127
88570,note_off,142,0,0,,6,,,66,127
88570,note_off,0,0,0,,12,,,59,127
88572,note_on,2,0,0,,7,,,55,127
88572,note_on,0,0,0,,6,,,66,127
88714,note_off,142,0,0,,6,,,66,127
88716,note_on,2,0,0,,4,,,64,127
88858,note_off,142,0,0,,4,,,64,127
88858,note_off,0,0,0,,7,,,55,127
88860,note_on,2,0,0,,0,,,60,127
88860,note_on,0,0,0,,4,,,64,127
89002,note_off,142,0,0,,4,,,64,127
89004,note_on,2,0,0,,2,,,62,127
89146,note_off,142,0,0,,2,,,62,127
89146,note_off,0,0,0,,0,,,60,127
89148,note_on,2,0,0,,12,,,59,127
89148,note_on,0,0,0,,2,,,62,127
89290,note_off,142,0,0,,2,,,62,127
89292,note_on,2,0,0,,0,,,60,127
89434,note_off,142,0,0,,0,,,60,127
89434,note_off,0,0,0,,12,,,59,127
89436,note_on,2,0,0,,10,,,57,127
89436,note_on,0,0,0,,2,,,62,127
89493,note_on,57,0,0,,0,,,60,127
89526,note_off,33,0,0,,2,,,62,127
89550,note_on,24,0,0,,2,,,62,127
89583,note_off,33,0,0,,0,,,60,127
89609,note_on,26,0,0,,0,,,60,127
89641,note_off,32,0,0,,2,,,62,127
89667,note_on,26,0,0,,2,,,62,127
89700,note_off,33,0,0,,0,,,60,127
89724,note_off,24,0,0,,10,,,57,127
89726,note_on,2,0,0,,7,,,55,127
89726,note_on,0,0,0,,0,,,60,127
89758,note_off,32,0,0,,2,,,62,127
89784,note_on,26,0,0,,2,,,62,127
89817,note_off,33,0,0,,0,,,60,127
89841,note_on,24,0,0,,0,,,60,127
89874,note_off,33,0,0,,2,,,62,127
89900,note_on,26,0,0,,12,,,59,127
89932,note_off,32,0,0,,0,,,60,127
89958,note_on,26,0,0,,0,,,60,127
89991,note_off,33,0,0,,12,,,59,127
90015,note_off,24,0,0,,7,,,55,127
90017,note_on,2,0,0,,2,,,50,127
90017,note_on,0,0,0,,2,,,62,127
90049,note_off,32,0,0,,0,,,60,127
90161,note_on,112,0,0,,7,,,55,127
90233,note_off,72,0,0,,2,,,50,127
90303,note_off,70,0,0,,7,,,55,127
90305,note_on,2,0,0,,7,,,55,127
90447,note_off,142,0,0,,7,,,55,127
90449,note_on,2,0,0,,6,,,54,127
90591,note_off,142,0,0,,6,,,54,127
90593,note_on,2,0,0,,6,,,54,127
90737,note_on,144,0,0,,0,,,60,127
90809,note_off,72,0,0,,6,,,54,127
90879,note_off,70,0,0,,0,,,60,127
90881,note_on,2,0,0,,0,,,60,127
91023,note_off,142,0,0,,0,,,60,127
91025,note_on,2,0,0,,12,,,59,127
91167,note_off,142,0,0,,12,,,59,127
91167,note_off,0,0,0,,2,,,62,127
91169,note_on,2,0,0,,12,,,59,127
91313,note_on,144,0,0,,7,,,67,127
91385,note_off,72,0,0,,12,,,59,127
91455,note_off,70,0,0,,7,,,67,127
91457,note_on,2,0,0,,7,,,67,127
91599,note_off,142,0,0,,7,,,67,127
91601,note_on,2,0,0,,6,,,66,127
91743,note_off,142,0,0,,6,,,66,127
91745,note_on,2,0,0,,6,,,66,127
91887,note_off,142,0,0,,6,,,66,127
91889,note_on,2,0,0,,4,,,64,127
92031,note_off,142,0,0,,4,,,64,127
92033,note_on,2,0,0,,2,,,62,127
92175,note_off,142,0,0,,2,,,62,127
92177,note_on,2,0,0,,0,,,60,127
92319,note_off,142,0,0,,0,,,60,127
92321,note_on,2,0,0,,12,,,59,127
92465,note_on,144,0,0,,7,,,67,127
92607,note_off,142,0,0,,7,,,67,127
92609,note_on,2,0,0,,7,,,67,127
92751,note_off,142,0,0,,7,,,67,127
92753,note_on,2,0,0,,6,,,66,127
92895,note_off,142,0,0,,6,,,66,127
92895,note_off,0,0,0,,12,,,59,127
92897,note_on,2,0,0,,10,,,57,127
92897,note_on,0,0,0,,0,,,60,127
92897,note_on,0,0,0,,6,,,66,127
93041,note_on,144,0,0,,0,,,72,127
93113,note_off,72,0,0,,6,,,66,127
93183,note_off,70,0,0,,0,,,72,127
93185,note_on,2,0,0,,0,,,72,127
93327,note_off,142,0,0,,0,,,72,127
93329,note_on,2,0,0,,12,,,71,127
93471,note_off,142,0,0,,12,,,71,127
93471,note_off,0,0,0,,0,,,60,127
93471,note_off,0,0,0,,10,,,57,127
93473,note_on,2,0,0,,7,,,55,127
93473,note_on,0,0,0,,12,,,59,127
93473,note_on,0,0,0,,12,,,71,127
93617,note_on,144,0,0,,4,,,76,127
93689,note_off,72,0,0,,12,,,71,127
93759,note_off,70,0,0,,4,,,76,127
93761,note_on,2,0,0,,4,,,76,127
93903,note_off,142,0,0,,4,,,76,127
93905,note_on,2,0,0,,2,,,74,127
94047,note_off,142,0,0,,2,,,74,127
94047,note_off,0,0,0,,12,,,59,127
94047,note_off,0,0,0,,7,,,55,127
94049,note_on,2,0,0,,6,,,54,127
94049,note_on,0,0,0,,10,,,57,127
94049,note_on,0,0,0,,2,,,74,127
94193,note_on,144,0,0,,10,,,81,127
94265,note_off,72,0,0,,2,,,74,127
94335,note_off,70,0,0,,10,,,81,127
94337,note_on,2,0,0,,10,,,81,127
94479,note_off,142,0,0,,10,,,81,127
94481,note_on,2,0,0,,0,,,72,127
94623,note_off,142,0,0,,0,,,72,127
94623,note_off,0,0,0,,10,,,57,127
94623,note_off,0,0,0,,6,,,54,127
94625,note_on,2,0,0,,7,,,55,127
94625,note_on,0,0,0,,12,,,71,127
94767,note_off,142,0,0,,12,,,71,127
94769,note_on,2,0,0,,0,,,72,127
94911,note_off,142,0,0,,0,,,72,127
94911,note_off,0,0,0,,7,,,55,127
94913,note_on,2,0,0,,0,,,48,127
94913,note_on,0,0,0,,2,,,74,127
95055,note_off,142,0,0,,2,,,74,127
95057,note_on,2,0,0,,0,,,72,127
95199,note_off,142,0,0,,0,,,72,127
95199,note_off,0,0,0,,0,,,48,127
95201,note_on,2,0,0,,2,,,50,127
95201,note_on,0,0,0,,12,,,71,127
95343,note_off,142,0,0,,12,,,71,127
95345,note_on,2,0,0,,10,,,69,127
95487,note_off,142,0,0,,10,,,69,127
95489,note_on,2,0,0,,2,,,38,127
95489,note_on,0,0,0,,7,,,67,127
95631,note_off,142,0,0,,7,,,67,127
95633,note_on,2,0,0,,6,,,66,127
95775,note_off,142,0,0,,6,,,66,127
95775,note_off,0,0,0,,2,,,38,127
95775,note_off,0,0,0,,2,,,50,127
95777,note_on,2,0,0,,7,,,43,127
95777,note_on,0,0,0,,7,,,67,127
96063,note_off,286,0,0,,7,,,67,127
96065,note_on,2,0,0,,12,,,83,127
96279,note_off,214,0,0,,12,,,83,127
96281,note_on,2,0,0,,7,,,79,127
96353,note_on,72,0,0,,12,,,83,127
96371,note_off,18,0,0,,7,,,79,127
96639,note_off,268,0,0,,7,,,43,127
96641,note_on,2,0,0,,2,,,74,127
96927,note_off,286,0,0,,2,,,74,127
96929,note_on,2,0,0,,0,,,72,127
97215,note_off,286,0,0,,12,,,83,127
97217,note_on,2,0,0,,2,,,62,127
97217,note_on,0,0,0,,0,,,84,127
97505,note_on,288,0,0,,10,,,69,127
97791,note_off,286,0,0,,10,,,69,127
97791,note_off,0,0,0,,0,,,84,127
97791,note_off,0,0,0,,0,,,72,127
97793,note_on,2,0,0,,0,,,72,127
97793,note_on,0,0,0,,6,,,78,127
98079,note_off,286,0,0,,6,,,78,127
98079,note_off,0,0,0,,0,,,72,127
98079,note_off,0,0,0,,2,,,62,127
98081,note_on,2,0,0,,12,,,71,127
98081,note_on,0,0,0,,6,,,78,127
98223,note_off,142,0,0,,6,,,78,127
98225,note_on,2,0,0,,7,,,79,127
98367,note_off,142,0,0,,7,,,79,127
98367,note_off,0,0,0,,12,,,71,127
98369,note_on,2,0,0,,7,,,67,127
98369,note_on,0,0,0,,12,,,83,127
98583,note_off,214,0,0,,12,,,83,127
98585,note_on,2,0,0,,7,,,79,127
98657,note_on,72,0,0,,12,,,83,127
98675,note_off,18,0,0,,7,,,79,127
98943,note_off,268,0,0,,7,,,67,127
98945,note_on,2,0,0,,2,,,74,127
99231,note_off,286,0,0,,2,,,74,127
99233,note_on,2,0,0,,0,,,72,127
99519,note_off,286,0,0,,12,,,83,127
99521,note_on,2,0,0,,2,,,62,127
99521,note_on,0,0,0,,0,,,84,127
99809,note_on,288,0,0,,10,,,69,127
100095,note_off,286,0,0,,10,,,69,127
100095,note_off,0,0,0,,0,,,84,127
100095,note_off,0,0,0,,0,,,72,127
100097,note_on,2,0,0,,0,,,72,127
100097,note_on,0,0,0,,6,,,78,127
100383,note_off,286,0,0,,6,,,78,127
100383,note_off,0,0,0,,0,,,72,127
100383,note_off,0,0,0,,2,,,62,127
100385,note_on,2,0,0,,12,,,71,127
100385,note_on,0,0,0,,7,,,79,127
100671,note_off,286,0,0,,7,,,79,127
100671,note_off,0,0,0,,12,,,71,127
100673,note_on,2,0,0,,7,,,67,127
100673,note_on,0,0,0,,12,,,83,127
100887,note_off,214,0,0,,12,,,83,127
100889,note_on,2,0,0,,7,,,79,127
100961,note_on,72,0,0,,2,,,86,127
100979,note_off,18,0,0,,7,,,79,127
101247,note_off,268,0,0,,7,,,67,127
101249,note_on,2,0,0,,12,,,71,127
101249,note_on,0,0,0,,2,,,74,127
101535,note_off,286,0,0,,2,,,74,127
101535,note_off,0,0,0,,12,,,71,127
101537,note_on,2,0,0,,0,,,60,127
101537,note_on,0,0,0,,4,,,76,127
101823,note_off,286,0,0,,2,,,86,127
101825,note_on,2,0,0,,0,,,84,127
102039,note_off,214,0,0,,0,,,84,127
102041,note_on,2,0,0,,10,,,81,127
102113,note_on,72,0,0,,4,,,88,127
102131,note_off,18,0,0,,10,,,81,127
102399,note_off,268,0,0,,4,,,76,127
102399,note_off,0,0,0,,0,,,60,127
102401,note_on,2,0,0,,0,,,72,127
102401,note_on,0,0,0,,4,,,76,127
102687,note_off,286,0,0,,4,,,76,127
102687,note_off,0,0,0,,0,,,72,127
102689,note_on,2,0,0,,2,,,62,127
102689,note_on,0,0,0,,6,,,78,127
102975,note_off,286,0,0,,4,,,88,127
102977,note_on,2,0,0,,2,,,74,127
102977,note_on,0,0,0,,6,,,90,127
103119,note_off,142,0,0,,6,,,90,127
103121,note_on,2,0,0,,2,,,86,127
103263,note_off,142,0,0,,2,,,86,127
103263,note_off,0,0,0,,2,,,74,127
103263,note_off,0,0,0,,6,,,78,127
103263,note_off,0,0,0,,2,,,62,127
103265,note_on,2,0,0,,12,,,71,127
103265,note_on,0,0,0,,7,,,91,127
103551,note_off,286,0,0,,7,,,91,127
103551,note_off,0,0,0,,12,,,71,127
103553,note_on,2,0,0,,7,,,67,127
103553,note_on,0,0,0,,2,,,86,127
103839,note_off,286,0,0,,2,,,86,127
103839,note_off,0,0,0,,7,,,67,127
103841,note_on,2,0,0,,0,,,72,127
103841,note_on,0,0,0,,4,,,88,127
103983,note_off,142,0,0,,4,,,88,127
103985,note_on,2,0,0,,12,,,83,127
104127,note_off,142,0,0,,12,,,83,127
104127,note_off,0,0,0,,0,,,72,127
104129,note_on,2,0,0,,10,,,69,127
104129,note_on,0,0,0,,0,,,84,127
104271,note_off,142,0,0,,0,,,84,127
104273,note_on,2,0,0,,10,,,81,127
104415,note_off,142,0,0,,10,,,81,127
104415,note_off,0,0,0,,10,,,69,127
104417,note_on,2,0,0,,2,,,74,127
104417,note_on,0,0,0,,7,,,79,127
104705,note_on,288,0,0,,2,,,62,127
104753,note_on,48,0,0,,6,,,78,127
104792,note_off,39,0,0,,7,,,79,127
104801,note_on,9,0,0,,7,,,79,127
104843,note_off,42,0,0,,6,,,78,127
104849,note_on,6,0,0,,6,,,78,127
104891,note_off,42,0,0,,7,,,79,127
104897,note_on,6,0,0,,4,,,76,127
104939,note_off,42,0,0,,6,,,78,127
104945,note_on,6,0,0,,6,,,78,127
104987,note_off,42,0,0,,4,,,76,127
104991,note_off,4,0,0,,2,,,62,127
104991,note_off,0,0,0,,2,,,74,127
104993,note_on,2,0,0,,7,,,67,127
104993,note_on,0,0,0,,7,,,79,127
105035,note_off,42,0,0,,6,,,78,127
105279,note_off,244,0,0,,7,,,79,127
105281,note_on,2,0,0,,12,,,71,127
105423,note_off,142,0,0,,7,,,67,127
105495,note_off,72,0,0,,12,,,71,127
105497,note_on,2,0,0,,7,,,67,127
105569,note_on,72,0,0,,12,,,71,127
105587,note_off,18,0,0,,7,,,67,127
105857,note_on,270,0,0,,2,,,62,127
106143,note_off,286,0,0,,2,,,62,127
106145,note_on,2,0,0,,0,,,60,127
106431,note_off,286,0,0,,12,,,71,127
106433,note_on,2,0,0,,2,,,50,127
106433,note_on,0,0,0,,0,,,72,127
106721,note_on,288,0,0,,10,,,57,127
107007,note_off,286,0,0,,10,,,57,127
107007,note_off,0,0,0,,0,,,72,127
107007,note_off,0,0,0,,0,,,60,127
107009,note_on,2,0,0,,0,,,60,127
107009,note_on,0,0,0,,6,,,66,127
107295,note_off,286,0,0,,6,,,66,127
107295,note_off,0,0,0,,0,,,60,127
107295,note_off,0,0,0,,2,,,50,127
107297,note_on,2,0,0,,12,,,59,127
107297,note_on,0,0,0,,6,,,66,127
107439,note_off,142,0,0,,6,,,66,127
107441,note_on,2,0,0,,7,,,67,127
107583,note_off,142,0,0,,7,,,67,127
107583,note_off,0,0,0,,12,,,59,127
107585,note_on,2,0,0,,7,,,55,127
107585,note_on,0,0,0,,12,,,71,127
107799,note_off,214,0,0,,12,,,71,127
107801,note_on,2,0,0,,7,,,67,127
107873,note_on,72,0,0,,12,,,71,127
107891,note_off,18,0,0,,7,,,67,127
108161,note_on,270,0,0,,2,,,62,127
108447,note_off,286,0,0,,2,,,62,127
108449,note_on,2,0,0,,0,,,60,127
108735,note_off,286,0,0,,12,,,71,127
108735,note_off,0,0,0,,7,,,55,127
108737,note_on,2,0,0,,2,,,50,127
108737,note_on,0,0,0,,0,,,72,127
109025,note_on,288,0,0,,10,,,57,127
109311,note_off,286,0,0,,10,,,57,127
109311,note_off,0,0,0,,0,,,72,127
109311,note_off,0,0,0,,0,,,60,127
109313,note_on,2,0,0,,0,,,60,127
109313,note_on,0,0,0,,6,,,66,127
109599,note_off,286,0,0,,6,,,66,127
109599,note_off,0,0,0,,0,,,60,127
109599,note_off,0,0,0,,2,,,50,127
109601,note_on,2,0,0,,12,,,59,127
109601,note_on,0,0,0,,7,,,67,127
109887,note_off,286,0,0,,7,,,67,127
109887,note_off,0,0,0,,12,,,59,127
109889,note_on,2,0,0,,7,,,55,127
109889,note_on,0,0,0,,12,,,71,127
110103,note_off,214,0,0,,12,,,71,127
110105,note_on,2,0,0,,7,,,67,127
110177,note_on,72,0,0,,2,,,74,127
110195,note_off,18,0,0,,7,,,67,127
110463,note_off,268,0,0,,7,,,55,127
110465,note_on,2,0,0,,12,,,59,127
110465,note_on,0,0,0,,2,,,62,127
110751,note_off,286,0,0,,2,,,62,127
110751,note_off,0,0,0,,12,,,59,127
110753,note_on,2,0,0,,0,,,48,127
110753,note_on,0,0,0,,4,,,64,127
111039,note_off,286,0,0,,2,,,74,127
111041,note_on,2,0,0,,0,,,72,127
111255,note_off,214,0,0,,0,,,72,127
111257,note_on,2,0,0,,10,,,69,127
111329,note_on,72,0,0,,4,,,76,127
111347,note_off,18,0,0,,10,,,69,127
111615,note_off,268,0,0,,4,,,64,127
111615,note_off,0,0,0,,0,,,48,127
111617,note_on,2,0,0,,0,,,60,127
111617,note_on,0,0,0,,4,,,64,127
111903,note_off,286,0,0,,4,,,64,127
111903,note_off,0,0,0,,0,,,60,127
111905,note_on,2,0,0,,2,,,50,127
111905,note_on,0,0,0,,6,,,66,127
112191,note_off,286,0,0,,4,,,76,127
112193,note_on,2,0,0,,2,,,62,127
112193,note_on,0,0,0,,6,,,78,127
112335,note_off,142,0,0,,6,,,78,127
112337,note_on,2,0,0,,2,,,74,127
112479,note_off,142,0,0,,2,,,74,127
112479,note_off,0,0,0,,2,,,62,127
112479,note_off,0,0,0,,6,,,66,127
112479,note_off,0,0,0,,2,,,50,127
112481,note_on,2,0,0,,12,,,59,127
112481,note_on,0,0,0,,7,,,79,127
112623,note_off,142,0,0,,7,,,79,127
112625,note_on,2,0,0,,2,,,74,127
112767,note_off,142,0,0,,2,,,74,127
112767,note_off,0,0,0,,12,,,59,127
112769,note_on,2,0,0,,7,,,43,127
112769,note_on,0,0,0,,12,,,71,127
112911,note_off,142,0,0,,12,,,71,127
112913,note_on,2,0,0,,7,,,67,127
113055,note_off,142,0,0,,7,,,67,127
113055,note_off,0,0,0,,7,,,43,127
113057,note_on,2,0,0,,0,,,48,127
113057,note_on,0,0,0,,4,,,76,127
113199,note_off,142,0,0,,4,,,76,127
113201,note_on,2,0,0,,12,,,71,127
113343,note_off,142,0,0,,12,,,71,127
113343,note_off,0,0,0,,0,,,48,127
113345,note_on,2,0,0,,10,,,45,127
113345,note_on,0,0,0,,0,,,72,127
113487,note_off,142,0,0,,0,,,72,127
113489,note_on,2,0,0,,10,,,69,127
113631,note_off,142,0,0,,10,,,69,127
113631,note_off,0,0,0,,10,,,45,127
113633,note_on,2,0,0,,2,,,50,127
113633,note_on,0,0,0,,7,,,67,127
113921,note_on,288,0,0,,2,,,38,127
113969,note_on,48,0,0,,6,,,66,127
114008,note_off,39,0,0,,7,,,67,127
114017,note_on,9,0,0,,7,,,67,127
114059,note_off,42,0,0,,6,,,66,127
114065,note_on,6,0,0,,6,,,66,127
114107,note_off,42,0,0,,7,,,67,127
114113,note_on,6,0,0,,4,,,64,127
114155,note_off,42,0,0,,6,,,66,127
114161,note_on,6,0,0,,6,,,66,127
114203,note_off,42,0,0,,4,,,64,127
114207,note_off,4,0,0,,2,,,38,127
114207,note_off,0,0,0,,2,,,50,127
114209,note_on,2,0,0,,7,,,43,127
114209,note_on,0,0,0,,7,,,67,127
114251,note_off,42,0,0,,6,,,66,127
114495,note_off,244,0,0,,7,,,43,127
114497,note_on,2,0,0,,12,,,71,127
114641,note_off,144,0,0,,7,,,67,127
114711,note_off,70,0,0,,12,,,71,127
114713,note_on,2,0,0,,7,,,67,127
114785,note_on,72,0,0,,12,,,71,127
114785,note_on,0,0,0,,7,,,79,127
114803,note_off,18,0,0,,7,,,67,127
115071,note_off,268,0,0,,12,,,71,127
115073,note_on,2,0,0,,7,,,67,127
115359,note_off,286,0,0,,7,,,67,127
115361,note_on,2,0,0,,2,,,38,127
115647,note_off,286,0,0,,7,,,79,127
115649,note_on,2,0,0,,10,,,81,127
115791,note_off,142,0,0,,10,,,81,127
115793,note_on,2,0,0,,7,,,79,127
115935,note_off,142,0,0,,7,,,79,127
115937,note_on,2,0,0,,6,,,78,127
116081,note_on,144,0,0,,10,,,69,127
116223,note_off,142,0,0,,10,,,69,127
116225,note_on,2,0,0,,12,,,71,127
116367,note_off,142,0,0,,6,,,78,127
116369,note_on,2,0,0,,7,,,79,127
116511,note_off,142,0,0,,7,,,79,127
116511,note_off,0,0,0,,12,,,71,127
116513,note_on,2,0,0,,0,,,72,127
116513,note_on,0,0,0,,10,,,81,127
116799,note_off,286,0,0,,0,,,72,127
116799,note_off,0,0,0,,2,,,38,127
116801,note_on,2,0,0,,0,,,72,127
117015,note_off,214,0,0,,0,,,72,127
117017,note_on,2,0,0,,10,,,69,127
117087,note_off,70,0,0,,10,,,81,127
117089,note_on,2,0,0,,0,,,72,127
117089,note_on,0,0,0,,10,,,81,127
117107,note_off,18,0,0,,10,,,69,127
117375,note_off,268,0,0,,0,,,72,127
117377,note_on,2,0,0,,10,,,69,127
117663,note_off,286,0,0,,10,,,69,127
117665,note_on,2,0,0,,2,,,38,127
117951,note_off,286,0,0,,10,,,81,127
117953,note_on,2,0,0,,12,,,83,127
118095,note_off,142,0,0,,12,,,83,127
118097,note_on,2,0,0,,10,,,81,127
118239,note_off,142,0,0,,10,,,81,127
118241,note_on,2,0,0,,7,,,79,127
118385,note_on,144,0,0,,12,,,71,127
118527,note_off,142,0,0,,12,,,71,127
118529,note_on,2,0,0,,0,,,72,127
118671,note_off,142,0,0,,7,,,79,127
118673,note_on,2,0,0,,10,,,81,127
118815,note_off,142,0,0,,10,,,81,127
118815,note_off,0,0,0,,0,,,72,127
118817,note_on,2,0,0,,2,,,74,127
118817,note_on,0,0,0,,12,,,83,127
119103,note_off,286,0,0,,2,,,74,127
119103,note_off,0,0,0,,2,,,38,127
119105,note_on,2,0,0,,2,,,74,127
119319,note_off,214,0,0,,2,,,74,127
119321,note_on,2,0,0,,12,,,71,127
119391,note_off,70,0,0,,12,,,83,127
119393,note_on,2,0,0,,2,,,74,127
119393,note_on,0,0,0,,12,,,83,127
119411,note_off,18,0,0,,12,,,71,127
119679,note_off,268,0,0,,2,,,74,127
119681,note_on,2,0,0,,12,,,71,127
119967,note_off,286,0,0,,12,,,71,127
119969,note_on,2,0,0,,0,,,36,127
120255,note_off,286,0,0,,12,,,83,127
120257,note_on,2,0,0,,0,,,84,127
120399,note_off,142,0,0,,0,,,84,127
120401,note_on,2,0,0,,12,,,83,127
120543,note_off,142,0,0,,12,,,83,127
120545,note_on,2,0,0,,10,,,81,127
120689,note_on,144,0,0,,0,,,72,127
120831,note_off,142,0,0,,0,,,72,127
120833,note_on,2,0,0,,2,,,74,127
120975,note_off,142,0,0,,10,,,81,127
120977,note_on,2,0,0,,12,,,83,127
121119,note_off,142,0,0,,12,,,83,127
121119,note_off,0,0,0,,0,,,36,127
121121,note_on,2,0,0,,0,,,36,127
121121,note_on,0,0,0,,0,,,84,127
121263,note_off,142,0,0,,2,,,74,127
121265,note_on,2,0,0,,4,,,76,127
121407,note_off,142,0,0,,4,,,76,127
121409,note_on,2,0,0,,2,,,74,127
121551,note_off,142,0,0,,0,,,84,127
121553,note_on,2,0,0,,12,,,83,127
121695,note_off,142,0,0,,12,,,83,127
121697,note_on,2,0,0,,10,,,81,127
121839,note_off,142,0,0,,2,,,74,127
121841,note_on,2,0,0,,0,,,72,127
121983,note_off,142,0,0,,0,,,72,127
121985,note_on,2,0,0,,12,,,71,127
122127,note_off,142,0,0,,10,,,81,127
122129,note_on,2,0,0,,7,,,79,127
122271,note_off,142,0,0,,7,,,79,127
122271,note_off,0,0,0,,0,,,36,127
122273,note_on,2,0,0,,2,,,38,127
122273,note_on,0,0,0,,6,,,78,127
122415,note_off,142,0,0,,12,,,71,127
122417,note_on,2,0,0,,10,,,69,127
122559,note_off,142,0,0,,10,,,69,127
122561,note_on,2,0,0,,7,,,67,127
122703,note_off,142,0,0,,6,,,78,127
122705,note_on,2,0,0,,4,,,76,127
122847,note_off,142,0,0,,4,,,76,127
122849,note_on,2,0,0,,2,,,74,127
122991,note_off,142,0,0,,7,,,67,127
122993,note_on,2,0,0,,7,,,67,127
123135,note_off,142,0,0,,7,,,67,127
123137,note_on,2,0,0,,6,,,66,127
123279,note_off,142,0,0,,2,,,74,127
123281,note_on,2,0,0,,0,,,72,127
123423,note_off,142,0,0,,0,,,72,127
123423,note_off,0,0,0,,6,,,66,127
123423,note_off,0,0,0,,2,,,38,127
123425,note_on,2,0,0,,7,,,43,127
123425,note_on,0,0,0,,7,,,67,127
123425,note_on,0,0,0,,0,,,72,127
123567,note_off,142,0,0,,0,,,72,127
123569,note_on,2,0,0,,12,,,71,127
123711,note_off,142,0,0,,12,,,71,127
123711,note_off,0,0,0,,7,,,67,127
123711,note_off,0,0,0,,7,,,43,127
123713,note_on,2,0,0,,0,,,48,127
123713,note_on,0,0,0,,0,,,72,127
123855,note_off,142,0,0,,0,,,72,127
123857,note_on,2,0,0,,2,,,74,127
123999,note_off,142,0,0,,2,,,74,127
123999,note_off,0,0,0,,0,,,48,127
124001,note_on,2,0,0,,2,,,50,127
124001,note_on,0,0,0,,7,,,67,127
124289,note_on,288,0,0,,2,,,38,127
124337,note_on,48,0,0,,6,,,66,127
124376,note_off,39,0,0,,7,,,67,127
124385,note_on,9,0,0,,7,,,67,127
124427,note_off,42,0,0,,6,,,66,127
124433,note_on,6,0,0,,6,,,66,127
124475,note_off,42,0,0,,7,,,67,127
124481,note_on,6,0,0,,4,,,64,127
124523,note_off,42,0,0,,6,,,66,127
124529,note_on,6,0,0,,6,,,66,127
124571,note_off,42,0,0,,4,,,64,127
124575,note_off,4,0,0,,2,,,38,127
124575,note_off,0,0,0,,2,,,50,127
124577,note_on,2,0,0,,7,,,43,127
124577,note_on,0,0,0,,7,,,67,127
124619,note_off,42,0,0,,6,,,66,127
124863,note_off,244,0,0,,7,,,43,127
124865,note_on,2,0,0,,12,,,71,127
125009,note_off,144,0,0,,7,,,67,127
125079,note_off,70,0,0,,12,,,71,127
125081,note_on,2,0,0,,7,,,67,127
125153,note_on,72,0,0,,12,,,71,127
125153,note_on,0,0,0,,7,,,79,127
125171,note_off,18,0,0,,7,,,67,127
125439,note_off,268,0,0,,12,,,71,127
125441,note_on,2,0,0,,7,,,67,127
125727,note_off,286,0,0,,7,,,67,127
125729,note_on,2,0,0,,2,,,38,127
126015,note_off,286,0,0,,7,,,79,127
126017,note_on,2,0,0,,10,,,81,127
126159,note_off,142,0,0,,10,,,81,127
126161,note_on,2,0,0,,7,,,79,127
126303,note_off,142,0,0,,7,,,79,127
126305,note_on,2,0,0,,6,,,78,127
126449,note_on,144,0,0,,10,,,69,127
126591,note_off,142,0,0,,10,,,69,127
126593,note_on,2,0,0,,12,,,71,127
126735,note_off,142,0,0,,6,,,78,127
126737,note_on,2,0,0,,7,,,79,127
126879,note_off,142,0,0,,7,,,79,127
126879,note_off,0,0,0,,12,,,71,127
126881,note_on,2,0,0,,10,,,81,127
126881,note_on,0,0,0,,0,,,72,127
126929,note_on,48,0,0,,12,,,71,127
126971,note_off,42,0,0,,0,,,72,127
126977,note_on,6,0,0,,0,,,72,127
127019,note_off,42,0,0,,12,,,71,127
127166,note_off,147,0,0,,0,,,72,127
127168,note_off,2,0,0,,2,,,38,127
127170,note_on,2,0,0,,0,,,72,127
127384,note_off,214,0,0,,0,,,72,127
127386,note_on,2,0,0,,10,,,69,127
127456,note_off,70,0,0,,10,,,81,127
127458,note_on,2,0,0,,0,,,72,127
127458,note_on,0,0,0,,10,,,81,127
127476,note_off,18,0,0,,10,,,69,127
127744,note_off,268,0,0,,0,,,72,127
127746,note_on,2,0,0,,10,,,69,127
128032,note_off,286,0,0,,10,,,69,127
128034,note_on,2,0,0,,2,,,38,127
128320,note_off,286,0,0,,10,,,81,127
128322,note_on,2,0,0,,12,,,83,127
128464,note_off,142,0,0,,12,,,83,127
128466,note_on,2,0,0,,10,,,81,127
128608,note_off,142,0,0,,10,,,81,127
128610,note_on,2,0,0,,7,,,79,127
128754,note_on,144,0,0,,12,,,71,127
128896,note_off,142,0,0,,12,,,71,127
128898,note_on,2,0,0,,0,,,72,127
129040,note_off,142,0,0,,7,,,79,127
129042,note_on,2,0,0,,10,,,81,127
129184,note_off,142,0,0,,10,,,81,127
129184,note_off,0,0,0,,0,,,72,127
129186,note_on,2,0,0,,12,,,83,127
129186,note_on,0,0,0,,2,,,74,127
129234,note_on,48,0,0,,0,,,72,127
129276,note_off,42,0,0,,2,,,74,127
129282,note_on,6,0,0,,2,,,74,127
129324,note_off,42,0,0,,0,,,72,127
129471,note_off,147,0,0,,2,,,74,127
129473,note_off,2,0,0,,2,,,38,127
129475,note_on,2,0,0,,2,,,74,127
129689,note_off,214,0,0,,2,,,74,127
129691,note_on,2,0,0,,12,,,71,127
129761,note_off,70,0,0,,12,,,83,127
129763,note_on,2,0,0,,2,,,74,127
129763,note_on,0,0,0,,12,,,83,127
129781,note_off,18,0,0,,12,,,71,127
130049,note_off,268,0,0,,2,,,74,127
130051,note_on,2,0,0,,12,,,71,127
130337,note_off,286,0,0,,12,,,71,127
130339,note_on,2,0,0,,0,,,36,127
130625,note_off,286,0,0,,12,,,83,127
130627,note_on,2,0,0,,0,,,84,127
130769,note_off,142,0,0,,0,,,84,127
130771,note_on,2,0,0,,12,,,83,127
130913,note_off,142,0,0,,12,,,83,127
130915,note_on,2,0,0,,10,,,81,127
131059,note_on,144,0,0,,0,,,72,127
131201,note_off,142,0,0,,0,,,72,127
131203,note_on,2,0,0,,2,,,74,127
131345,note_off,142,0,0,,10,,,81,127
131347,note_on,2,0,0,,12,,,83,127
131489,note_off,142,0,0,,12,,,83,127
131489,note_off,0,0,0,,0,,,36,127
131491,note_on,2,0,0,,0,,,36,127
131491,note_on,0,0,0,,0,,,84,127
131633,note_off,142,0,0,,2,,,74,127
131635,note_on,2,0,0,,4,,,76,127
131777,note_off,142,0,0,,4,,,76,127
131779,note_on,2,0,0,,2,,,74,127
131921,note_off,142,0,0,,0,,,84,127
131923,note_on,2,0,0,,12,,,83,127
132065,note_off,142,0,0,,12,,,83,127
132067,note_on,2,0,0,,10,,,81,127
132209,note_off,142,0,0,,2,,,74,127
132211,note_on,2,0,0,,0,,,72,127
132353,note_off,142,0,0,,0,,,72,127
132355,note_on,2,0,0,,12,,,71,127
132497,note_off,142,0,0,,10,,,81,127
132499,note_on,2,0,0,,7,,,79,127
132641,note_off,142,0,0,,7,,,79,127
132641,note_off,0,0,0,,0,,,36,127
132643,note_on,2,0,0,,2,,,38,127
132643,note_on,0,0,0,,6,,,78,127
132785,note_off,142,0,0,,12,,,71,127
132787,note_on,2,0,0,,10,,,69,127
132929,note_off,142,0,0,,10,,,69,127
132931,note_on,2,0,0,,7,,,67,127
133073,note_off,142,0,0,,6,,,78,127
133075,note_on,2,0,0,,4,,,76,127
133217,note_off,142,0,0,,4,,,76,127
133219,note_on,2,0,0,,2,,,74,127
133361,note_off,142,0,0,,7,,,67,127
133363,note_on,2,0,0,,7,,,67,127
133505,note_off,142,0,0,,7,,,67,127
133507,note_on,2,0,0,,6,,,66,127
133649,note_off,142,0,0,,2,,,74,127
133651,note_on,2,0,0,,0,,,72,127
133793,note_off,142,0,0,,6,,,66,127
133793,note_off,0,0,0,,2,,,38,127
133795,note_on,2,0,0,,7,,,43,127
133795,note_on,0,0,0,,7,,,67,127
133937,note_off,142,0,0,,0,,,72,127
133939,note_on,2,0,0,,12,,,71,127
134081,note_off,142,0,0,,12,,,71,127
134081,note_off,0,0,0,,7,,,67,127
134081,note_off,0,0,0,,7,,,43,127
134083,note_on,2,0,0,,0,,,48,127
134083,note_on,0,0,0,,0,,,72,127
134225,note_off,142,0,0,,0,,,72,127
134227,note_on,2,0,0,,2,,,74,127
134369,note_off,142,0,0,,2,,,74,127
134369,note_off,0,0,0,,0,,,48,127
134371,note_on,2,0,0,,2,,,50,127
134371,note_on,0,0,0,,7,,,67,127
134659,note_on,288,0,0,,2,,,38,127
134707,note_on,48,0,0,,6,,,66,127
134746,note_off,39,0,0,,7,,,67,127
134755,note_on,9,0,0,,7,,,67,127
134797,note_off,42,0,0,,6,,,66,127
134803,note_on,6,0,0,,6,,,66,127
134845,note_off,42,0,0,,7,,,67,127
134851,note_on,6,0,0,,4,,,64,127
134893,note_off,42,0,0,,6,,,66,127
134899,note_on,6,0,0,,6,,,66,127
134941,note_off,42,0,0,,4,,,64,127
134945,note_off,4,0,0,,2,,,38,127
134945,note_off,0,0,0,,2,,,50,127
134947,note_on,2,0,0,,7,,,43,127
134947,note_on,0,0,0,,7,,,67,127
134989,note_off,42,0,0,,6,,,66,127
135091,note_on,102,0,0,,7,,,79,127
135233,note_off,142,0,0,,7,,,79,127
135233,note_off,0,0,0,,7,,,67,127
135235,note_on,2,0,0,,2,,,74,127
135377,note_off,142,0,0,,2,,,74,127
135379,note_on,2,0,0,,12,,,71,127
135521,note_off,142,0,0,,12,,,71,127
135523,note_on,2,0,0,,7,,,67,127
135665,note_off,142,0,0,,7,,,67,127
135667,note_on,2,0,0,,2,,,62,127
135809,note_off,142,0,0,,2,,,62,127
135811,note_on,2,0,0,,12,,,59,127
135953,note_off,142,0,0,,12,,,59,127
135955,note_on,2,0,0,,7,,,55,127
136097,note_off,142,0,0,,7,,,55,127
136099,note_on,2,0,0,,6,,,78,127
136385,note_off,286,0,0,,7,,,43,127
136387,note_on,2,0,0,,0,,,48,127
136529,note_off,142,0,0,,6,,,78,127
136531,note_on,2,0,0,,7,,,79,127
136673,note_off,142,0,0,,7,,,79,127
136673,note_off,0,0,0,,0,,,48,127
136675,note_on,2,0,0,,2,,,50,127
136675,note_on,0,0,0,,7,,,67,127
136961,note_off,286,0,0,,7,,,67,127
136963,note_on,2,0,0,,2,,,38,127
136963,note_on,0,0,0,,6,,,66,127
137249,note_off,286,0,0,,6,,,66,127
137249,note_off,0,0,0,,2,,,38,127
137249,note_off,0,0,0,,2,,,50,127
137251,note_on,2,0,0,,7,,,43,127
137251,note_on,0,0,0,,7,,,67,127
137395,note_on,144,0,0,,7,,,79,127
137537,note_off,142,0,0,,7,,,79,127
137537,note_off,0,0,0,,7,,,67,127
137539,note_on,2,0,0,,2,,,74,127
137681,note_off,142,0,0,,2,,,74,127
137683,note_on,2,0,0,,12,,,71,127
137825,note_off,142,0,0,,12,,,71,127
137827,note_on,2,0,0,,7,,,67,127
137969,note_off,142,0,0,,7,,,67,127
137971,note_on,2,0,0,,2,,,62,127
138113,note_off,142,0,0,,2,,,62,127
138115,note_on,2,0,0,,12,,,59,127
138257,note_off,142,0,0,,12,,,59,127
138259,note_on,2,0,0,,7,,,55,127
138401,note_off,142,0,0,,7,,,55,127
138403,note_on,2,0,0,,6,,,78,127
138689,note_off,286,0,0,,7,,,43,127
138691,note_on,2,0,0,,0,,,48,127
138691,note_on,0,0,0,,0,,,36,127
138833,note_off,142,0,0,,6,,,78,127
138835,note_on,2,0,0,,7,,,79,127
138977,note_off,142,0,0,,7,,,79,127
138979,note_on,2,0,0,,7,,,67,127
139123,note_off,144,0,0,,0,,,36,127
139123,note_off,0,0,0,,0,,,48,127
139265,note_off,142,0,0,,7,,,67,127
139267,note_on,2,0,0,,2,,,50,127
139267,note_on,0,0,0,,2,,,38,127
139267,note_on,0,0,0,,6,,,66,127
139553,note_off,286,0,0,,6,,,66,127
139555,note_on,2,0,0,,6,,,78,127
139699,note_off,144,0,0,,2,,,38,127
139699,note_off,0,0,0,,2,,,50,127
139843,note_on,144,0,0,,0,,,48,127
139843,note_on,0,0,0,,0,,,36,127
139985,note_off,142,0,0,,6,,,78,127
139987,note_on,2,0,0,,7,,,79,127
140129,note_off,142,0,0,,7,,,79,127
140131,note_on,2,0,0,,7,,,67,127
140275,note_off,144,0,0,,0,,,36,127
140275,note_off,0,0,0,,0,,,48,127
140417,note_off,142,0,0,,7,,,67,127
140419,note_on,2,0,0,,2,,,50,127
140419,note_on,0,0,0,,2,,,38,127
140419,note_on,0,0,0,,6,,,66,127
140705,note_off,286,0,0,,6,,,66,127
140707,note_on,2,0,0,,6,,,78,127
140851,note_off,144,0,0,,2,,,38,127
140851,note_off,0,0,0,,2,,,50,127
140995,note_on,144,0,0,,0,,,48,127
141137,note_off,142,0,0,,6,,,78,127
141139,note_on,2,0,0,,7,,,79,127
141281,note_off,142,0,0,,7,,,79,127
141281,note_off,0,0,0,,0,,,48,127
141283,note_on,2,0,0,,2,,,50,127
141283,note_on,0,0,0,,7,,,67,127
141571,note_on,288,0,0,,2,,,38,127
141619,note_on,48,0,0,,6,,,66,127
141658,note_off,39,0,0,,7,,,67,127
141667,note_on,9,0,0,,7,,,67,127
141709,note_off,42,0,0,,6,,,66,127
141715,note_on,6,0,0,,6,,,66,127
141757,note_off,42,0,0,,7,,,67,127
141763,note_on,6,0,0,,4,,,64,127
141805,note_off,42,0,0,,6,,,66,127
141811,note_on,6,0,0,,6,,,66,127
141853,note_off,42,0,0,,4,,,64,127
141857,note_off,4,0,0,,6,,,66,127
141857,note_off,0,0,0,,2,,,38,127
141857,note_off,0,0,0,,2,,,50,127
141859,note_on,2,0,0,,7,,,43,127
141859,note_on,0,0,0,,6,,,66,127
142435,note_off,576,0,0,,6,,,66,127
142435,note_on,0,0,0,,7,,,67,127
143731,note_off,1296,0,0,,7,,,67,127
143731,note_off,0,0,0,,7,,,43,127
144384,end_of_track,653,1,0,,,,,,
