tick,type,time,meta,track,program,channel,pitch,tempo,note,velocity
0,copyright,0,1,0,,,,,,
0,program_change,0,0,0,6,0,,,,
0,pitchwheel,0,0,0,,0,0,,,
0,program_change,0,0,0,6,1,,,,
0,pitchwheel,0,0,0,,1,-590,,,
0,program_change,0,0,0,6,2,,,,
0,pitchwheel,0,0,0,,2,-272,,,
0,program_change,0,0,0,6,3,,,,
0,pitchwheel,0,0,0,,3,-353,,,
0,program_change,0,0,0,6,4,,,,
0,pitchwheel,0,0,0,,4,-560,,,
0,program_change,0,0,0,6,5,,,,
0,pitchwheel,0,0,0,,5,-80,,,
0,program_change,0,0,0,6,6,,,,
0,pitchwheel,0,0,0,,6,-625,,,
0,program_change,0,0,0,6,7,,,,
0,pitchwheel,0,0,0,,7,-130,,,
0,program_change,0,0,0,6,8,,,,
0,pitchwheel,0,0,0,,8,-512,,,
0,program_change,0,0,0,6,10,,,,
0,pitchwheel,0,0,0,,10,-464,,,
0,program_change,0,0,0,6,11,,,,
0,pitchwheel,0,0,0,,11,-208,,,
0,program_change,0,0,0,6,12,,,,
0,pitchwheel,0,0,0,,12,-553,,,
0,set_tempo,0,1,0,,,,500000,,
100,note_on,100,0,0,,7,,,55,127
100,note_on,0,0,0,,12,,,59,127
100,note_on,0,0,0,,10,,,69,127
149,note_off,49,0,0,,10,,,69,127
150,note_on,1,0,0,,7,,,67,127
199,note_off,49,0,0,,7,,,67,127
200,note_on,1,0,0,,10,,,69,127
249,note_off,49,0,0,,10,,,69,127
250,note_on,1,0,0,,7,,,67,127
299,note_off,49,0,0,,12,,,59,127
299,note_off,0,0,0,,7,,,55,127
300,note_on,1,0,0,,10,,,57,127
300,note_on,0,0,0,,0,,,60,127
499,note_off,199,0,0,,0,,,60,127
499,note_off,0,0,0,,10,,,57,127
500,note_on,1,0,0,,2,,,62,127
500,note_on,0,0,0,,12,,,59,127
699,note_off,199,0,0,,12,,,59,127
699,note_off,0,0,0,,2,,,62,127
700,note_on,1,0,0,,0,,,60,127
700,note_on,0,0,0,,4,,,64,127
894,note_off,194,0,0,,7,,,67,127
899,note_off,5,0,0,,4,,,64,127
899,note_off,0,0,0,,0,,,60,127
900,note_on,1,0,0,,2,,,62,127
900,note_on,0,0,0,,12,,,59,127
1099,note_off,199,0,0,,12,,,59,127
1099,note_off,0,0,0,,2,,,62,127
1100,note_on,1,0,0,,10,,,57,127
1100,note_on,0,0,0,,0,,,60,127
1100,note_on,0,0,0,,12,,,71,127
1149,note_off,49,0,0,,12,,,71,127
1150,note_on,1,0,0,,10,,,69,127
1199,note_off,49,0,0,,10,,,69,127
1200,note_on,1,0,0,,12,,,71,127
1249,note_off,49,0,0,,12,,,71,127
1250,note_on,1,0,0,,10,,,69,127
1299,note_off,49,0,0,,10,,,69,127
1299,note_off,0,0,0,,0,,,60,127
1299,note_off,0,0,0,,10,,,57,127
1300,note_on,1,0,0,,12,,,71,127
1300,note_on,0,0,0,,7,,,55,127
1300,note_on,0,0,0,,12,,,59,127
1499,note_off,199,0,0,,12,,,59,127
1499,note_off,0,0,0,,7,,,55,127
1499,note_off,0,0,0,,12,,,71,127
1500,note_on,1,0,0,,10,,,69,127
1500,note_on,0,0,0,,10,,,57,127
1500,note_on,0,0,0,,0,,,60,127
1699,note_off,199,0,0,,0,,,60,127
1699,note_off,0,0,0,,10,,,57,127
1699,note_off,0,0,0,,10,,,69,127
1700,note_on,1,0,0,,7,,,67,127
1700,note_on,0,0,0,,2,,,62,127
1700,note_on,0,0,0,,12,,,59,127
1899,note_off,199,0,0,,12,,,59,127
1899,note_off,0,0,0,,2,,,62,127
1900,note_on,1,0,0,,4,,,64,127
1900,note_on,0,0,0,,0,,,60,127
2099,note_off,199,0,0,,0,,,60,127
2099,note_off,0,0,0,,4,,,64,127
2099,note_off,0,0,0,,7,,,67,127
2100,note_on,1,0,0,,12,,,59,127
2100,note_on,0,0,0,,2,,,62,127
2299,note_off,199,0,0,,2,,,62,127
2299,note_off,0,0,0,,12,,,59,127
2300,note_on,1,0,0,,10,,,57,127
2300,note_on,0,0,0,,0,,,60,127
2300,note_on,0,0,0,,2,,,74,127
2349,note_off,49,0,0,,2,,,74,127
2350,note_on,1,0,0,,0,,,72,127
2399,note_off,49,0,0,,0,,,72,127
2400,note_on,1,0,0,,2,,,74,127
2449,note_off,49,0,0,,2,,,74,127
2450,note_on,1,0,0,,0,,,72,127
2499,note_off,49,0,0,,0,,,72,127
2499,note_off,0,0,0,,0,,,60,127
2499,note_off,0,0,0,,10,,,57,127
2500,note_on,1,0,0,,2,,,74,127
2500,note_on,0,0,0,,12,,,59,127
2500,note_on,0,0,0,,7,,,55,127
2699,note_off,199,0,0,,7,,,55,127
2699,note_off,0,0,0,,12,,,59,127
2699,note_off,0,0,0,,2,,,74,127
2700,note_on,1,0,0,,0,,,72,127
2700,note_on,0,0,0,,0,,,60,127
2700,note_on,0,0,0,,10,,,57,127
2899,note_off,199,0,0,,10,,,57,127
2899,note_off,0,0,0,,0,,,60,127
2899,note_off,0,0,0,,0,,,72,127
2900,note_on,1,0,0,,12,,,71,127
2900,note_on,0,0,0,,12,,,59,127
2900,note_on,0,0,0,,2,,,62,127
3099,note_off,199,0,0,,2,,,62,127
3099,note_off,0,0,0,,12,,,59,127
3100,note_on,1,0,0,,0,,,60,127
3100,note_on,0,0,0,,4,,,64,127
3299,note_off,199,0,0,,4,,,64,127
3299,note_off,0,0,0,,0,,,60,127
3299,note_off,0,0,0,,12,,,71,127
3300,note_on,1,0,0,,12,,,59,127
3300,note_on,0,0,0,,2,,,62,127
3499,note_off,199,0,0,,2,,,62,127
3499,note_off,0,0,0,,12,,,59,127
3500,note_on,1,0,0,,10,,,57,127
3500,note_on,0,0,0,,0,,,60,127
3500,note_on,0,0,0,,7,,,79,127
3549,note_off,49,0,0,,7,,,79,127
3550,note_on,1,0,0,,6,,,78,127
3599,note_off,49,0,0,,6,,,78,127
3600,note_on,1,0,0,,7,,,79,127
3649,note_off,49,0,0,,7,,,79,127
3650,note_on,1,0,0,,6,,,78,127
3699,note_off,49,0,0,,6,,,78,127
3699,note_off,0,0,0,,0,,,60,127
3699,note_off,0,0,0,,10,,,57,127
3700,note_on,1,0,0,,7,,,79,127
3700,note_on,0,0,0,,12,,,59,127
3700,note_on,0,0,0,,7,,,55,127
3899,note_off,199,0,0,,7,,,55,127
3899,note_off,0,0,0,,12,,,59,127
3899,note_off,0,0,0,,7,,,79,127
3900,note_on,1,0,0,,6,,,78,127
3900,note_on,0,0,0,,10,,,57,127
3900,note_on,0,0,0,,0,,,60,127
4099,note_off,199,0,0,,0,,,60,127
4099,note_off,0,0,0,,10,,,57,127
4099,note_off,0,0,0,,6,,,78,127
4100,note_on,1,0,0,,7,,,79,127
4100,note_on,0,0,0,,2,,,62,127
4100,note_on,0,0,0,,12,,,59,127
4299,note_off,199,0,0,,12,,,59,127
4299,note_off,0,0,0,,2,,,62,127
4299,note_off,0,0,0,,7,,,79,127
4300,note_on,1,0,0,,0,,,60,127
4300,note_on,0,0,0,,4,,,64,127
4300,note_on,0,0,0,,12,,,71,127
4349,note_off,49,0,0,,12,,,71,127
4350,note_on,1,0,0,,10,,,69,127
4399,note_off,49,0,0,,10,,,69,127
4400,note_on,1,0,0,,12,,,71,127
4449,note_off,49,0,0,,12,,,71,127
4450,note_on,1,0,0,,10,,,69,127
4499,note_off,49,0,0,,10,,,69,127
4499,note_off,0,0,0,,4,,,64,127
4499,note_off,0,0,0,,0,,,60,127
4500,note_on,1,0,0,,2,,,62,127
4500,note_on,0,0,0,,12,,,59,127
4500,note_on,0,0,0,,12,,,71,127
4549,note_off,49,0,0,,12,,,71,127
4550,note_on,1,0,0,,10,,,69,127
4599,note_off,49,0,0,,10,,,69,127
4600,note_on,1,0,0,,12,,,71,127
4649,note_off,49,0,0,,12,,,71,127
4650,note_on,1,0,0,,10,,,69,127
4699,note_off,49,0,0,,12,,,59,127
4699,note_off,0,0,0,,2,,,62,127
4700,note_on,1,0,0,,4,,,64,127
4700,note_on,0,0,0,,0,,,60,127
4899,note_off,199,0,0,,0,,,60,127
4899,note_off,0,0,0,,4,,,64,127
4900,note_on,1,0,0,,2,,,38,127
5100,note_on,200,0,0,,4,,,76,127
5100,note_on,0,0,0,,0,,,72,127
5101,note_off,1,0,0,,10,,,69,127
5299,note_off,198,0,0,,0,,,72,127
5299,note_off,0,0,0,,4,,,76,127
5300,note_on,1,0,0,,12,,,71,127
5300,note_on,0,0,0,,2,,,74,127
5499,note_off,199,0,0,,2,,,74,127
5499,note_off,0,0,0,,12,,,71,127
5500,note_on,1,0,0,,0,,,72,127
5500,note_on,0,0,0,,10,,,69,127
5699,note_off,199,0,0,,10,,,69,127
5699,note_off,0,0,0,,0,,,72,127
5700,note_on,1,0,0,,12,,,71,127
5700,note_on,0,0,0,,7,,,67,127
5899,note_off,199,0,0,,7,,,67,127
5899,note_off,0,0,0,,12,,,71,127
5900,note_off,1,0,0,,2,,,38,127
5900,note_on,0,0,0,,10,,,69,127
5900,note_on,0,0,0,,6,,,66,127
6099,note_off,199,0,0,,6,,,66,127
6099,note_off,0,0,0,,10,,,69,127
6100,note_on,1,0,0,,7,,,67,127
6100,note_on,0,0,0,,12,,,59,127
6100,note_on,0,0,0,,7,,,55,127
6299,note_off,199,0,0,,7,,,55,127
6299,note_off,0,0,0,,12,,,59,127
6299,note_off,0,0,0,,7,,,67,127
6300,note_on,1,0,0,,6,,,78,127
6300,note_on,0,0,0,,0,,,60,127
6300,note_on,0,0,0,,10,,,57,127
6499,note_off,199,0,0,,10,,,57,127
6499,note_off,0,0,0,,0,,,60,127
6499,note_off,0,0,0,,6,,,78,127
6500,note_on,1,0,0,,7,,,79,127
6500,note_on,0,0,0,,2,,,62,127
6500,note_on,0,0,0,,12,,,59,127
6699,note_off,199,0,0,,12,,,59,127
6699,note_off,0,0,0,,2,,,62,127
6699,note_off,0,0,0,,7,,,79,127
6700,note_on,1,0,0,,0,,,60,127
6700,note_on,0,0,0,,4,,,64,127
6700,note_on,0,0,0,,12,,,71,127
6749,note_off,49,0,0,,12,,,71,127
6750,note_on,1,0,0,,10,,,69,127
6799,note_off,49,0,0,,10,,,69,127
6800,note_on,1,0,0,,12,,,71,127
6849,note_off,49,0,0,,12,,,71,127
6850,note_on,1,0,0,,10,,,69,127
6899,note_off,49,0,0,,10,,,69,127
6899,note_off,0,0,0,,4,,,64,127
6899,note_off,0,0,0,,0,,,60,127
6900,note_on,1,0,0,,2,,,62,127
6900,note_on,0,0,0,,12,,,59,127
6900,note_on,0,0,0,,12,,,71,127
6949,note_off,49,0,0,,12,,,71,127
6950,note_on,1,0,0,,10,,,69,127
6999,note_off,49,0,0,,10,,,69,127
7000,note_on,1,0,0,,12,,,71,127
7049,note_off,49,0,0,,12,,,71,127
7050,note_on,1,0,0,,10,,,69,127
7099,note_off,49,0,0,,12,,,59,127
7099,note_off,0,0,0,,2,,,62,127
7100,note_on,1,0,0,,4,,,64,127
7100,note_on,0,0,0,,0,,,60,127
7299,note_off,199,0,0,,0,,,60,127
7299,note_off,0,0,0,,4,,,64,127
7300,note_on,1,0,0,,2,,,38,127
7498,note_off,198,0,0,,10,,,69,127
7500,note_on,2,0,0,,4,,,76,127
7500,note_on,0,0,0,,0,,,72,127
7699,note_off,199,0,0,,0,,,72,127
7699,note_off,0,0,0,,4,,,76,127
7700,note_on,1,0,0,,12,,,71,127
7700,note_on,0,0,0,,2,,,74,127
7899,note_off,199,0,0,,2,,,74,127
7899,note_off,0,0,0,,12,,,71,127
7900,note_on,1,0,0,,10,,,69,127
7900,note_on,0,0,0,,0,,,72,127
8099,note_off,199,0,0,,0,,,72,127
8099,note_off,0,0,0,,10,,,69,127
8100,note_on,1,0,0,,7,,,67,127
8100,note_on,0,0,0,,12,,,71,127
8299,note_off,199,0,0,,12,,,71,127
8299,note_off,0,0,0,,7,,,67,127
8300,note_on,1,0,0,,6,,,66,127
8300,note_on,0,0,0,,10,,,69,127
8499,note_off,199,0,0,,10,,,69,127
8499,note_off,0,0,0,,6,,,66,127
8499,note_off,0,0,0,,2,,,38,127
8500,note_on,1,0,0,,7,,,67,127
8500,note_on,0,0,0,,7,,,43,127
8599,note_off,99,0,0,,7,,,67,127
8600,note_on,1,0,0,,7,,,79,127
8699,note_off,99,0,0,,7,,,79,127
8700,note_on,1,0,0,,2,,,74,127
8799,note_off,99,0,0,,2,,,74,127
8800,note_on,1,0,0,,12,,,71,127
8899,note_off,99,0,0,,12,,,71,127
8900,note_on,1,0,0,,7,,,67,127
8999,note_off,99,0,0,,7,,,67,127
9000,note_on,1,0,0,,2,,,62,127
9099,note_off,99,0,0,,2,,,62,127
9100,note_on,1,0,0,,12,,,59,127
9199,note_off,99,0,0,,12,,,59,127
9199,note_off,0,0,0,,7,,,43,127
9200,note_on,1,0,0,,7,,,55,127
9299,note_off,99,0,0,,7,,,55,127
9300,note_on,1,0,0,,2,,,50,127
9399,note_off,99,0,0,,2,,,50,127
9400,note_on,1,0,0,,12,,,47,127
9499,note_off,99,0,0,,12,,,47,127
9500,note_on,1,0,0,,7,,,43,127
9599,note_off,99,0,0,,7,,,43,127
9600,note_on,1,0,0,,2,,,38,127
9699,note_off,99,0,0,,2,,,38,127
9700,note_on,1,0,0,,7,,,31,127
10901,note_off,1201,0,0,,7,,,31,127
10902,note_on,1,0,0,,11,,,70,127
10902,note_on,0,0,0,,7,,,79,127
10902,note_on,0,0,0,,7,,,67,127
11101,note_off,199,0,0,,7,,,67,127
11101,note_off,0,0,0,,11,,,70,127
11102,note_on,1,0,0,,0,,,72,127
11102,note_on,0,0,0,,10,,,69,127
11301,note_off,199,0,0,,10,,,69,127
11301,note_off,0,0,0,,0,,,72,127
11302,note_on,1,0,0,,2,,,74,127
11302,note_on,0,0,0,,11,,,70,127
11501,note_off,199,0,0,,11,,,70,127
11501,note_off,0,0,0,,2,,,74,127
11502,note_on,1,0,0,,0,,,72,127
11502,note_on,0,0,0,,5,,,77,127
11551,note_off,49,0,0,,5,,,77,127
11552,note_on,1,0,0,,3,,,75,127
11601,note_off,49,0,0,,3,,,75,127
11602,note_on,1,0,0,,5,,,77,127
11651,note_off,49,0,0,,5,,,77,127
11652,note_on,1,0,0,,3,,,75,127
11701,note_off,49,0,0,,3,,,75,127
11701,note_off,0,0,0,,0,,,72,127
11702,note_on,1,0,0,,2,,,74,127
11702,note_on,0,0,0,,11,,,70,127
11901,note_off,199,0,0,,11,,,70,127
11901,note_off,0,0,0,,2,,,74,127
11902,note_off,1,0,0,,7,,,79,127
11902,note_on,0,0,0,,0,,,72,127
11902,note_on,0,0,0,,10,,,81,127
11902,note_on,0,0,0,,10,,,69,127
12101,note_off,199,0,0,,10,,,69,127
12101,note_off,0,0,0,,10,,,81,127
12101,note_off,0,0,0,,0,,,72,127
12102,note_on,1,0,0,,11,,,70,127
12102,note_on,0,0,0,,11,,,82,127
12102,note_on,0,0,0,,7,,,67,127
12301,note_off,199,0,0,,7,,,67,127
12301,note_off,0,0,0,,11,,,82,127
12301,note_off,0,0,0,,11,,,70,127
12302,note_on,1,0,0,,0,,,72,127
12302,note_on,0,0,0,,10,,,81,127
12302,note_on,0,0,0,,10,,,69,127
12501,note_off,199,0,0,,10,,,69,127
12501,note_off,0,0,0,,10,,,81,127
12501,note_off,0,0,0,,0,,,72,127
12502,note_on,1,0,0,,2,,,74,127
12502,note_on,0,0,0,,7,,,79,127
12502,note_on,0,0,0,,11,,,70,127
12701,note_off,199,0,0,,11,,,70,127
12701,note_off,0,0,0,,2,,,74,127
12702,note_on,1,0,0,,0,,,72,127
12702,note_on,0,0,0,,5,,,77,127
12751,note_off,49,0,0,,5,,,77,127
12752,note_on,1,0,0,,3,,,75,127
12801,note_off,49,0,0,,3,,,75,127
12802,note_on,1,0,0,,5,,,77,127
12851,note_off,49,0,0,,5,,,77,127
12852,note_on,1,0,0,,3,,,75,127
12901,note_off,49,0,0,,3,,,75,127
12901,note_off,0,0,0,,0,,,72,127
12902,note_on,1,0,0,,2,,,74,127
12902,note_on,0,0,0,,11,,,70,127
13101,note_off,199,0,0,,11,,,70,127
13101,note_off,0,0,0,,2,,,74,127
13101,note_off,0,0,0,,7,,,79,127
13102,note_on,1,0,0,,10,,,81,127
13102,note_on,0,0,0,,0,,,72,127
13102,note_on,0,0,0,,10,,,69,127
13301,note_off,199,0,0,,10,,,69,127
13301,note_off,0,0,0,,0,,,72,127
13301,note_off,0,0,0,,10,,,81,127
13302,note_on,1,0,0,,11,,,82,127
13302,note_on,0,0,0,,11,,,70,127
13302,note_on,0,0,0,,7,,,67,127
13501,note_off,199,0,0,,7,,,67,127
13501,note_off,0,0,0,,11,,,70,127
13501,note_off,0,0,0,,11,,,82,127
13502,note_on,1,0,0,,10,,,81,127
13502,note_on,0,0,0,,0,,,72,127
13502,note_on,0,0,0,,10,,,69,127
13701,note_off,199,0,0,,10,,,69,127
13701,note_off,0,0,0,,0,,,72,127
13701,note_off,0,0,0,,10,,,81,127
13702,note_on,1,0,0,,7,,,79,127
13702,note_on,0,0,0,,2,,,74,127
13702,note_on,0,0,0,,11,,,70,127
13901,note_off,199,0,0,,11,,,70,127
13901,note_off,0,0,0,,2,,,74,127
13902,note_on,1,0,0,,0,,,72,127
13902,note_on,0,0,0,,5,,,77,127
13951,note_off,49,0,0,,5,,,77,127
13952,note_on,1,0,0,,3,,,75,127
14001,note_off,49,0,0,,3,,,75,127
14002,note_on,1,0,0,,5,,,77,127
14051,note_off,49,0,0,,5,,,77,127
14052,note_on,1,0,0,,3,,,75,127
14101,note_off,49,0,0,,3,,,75,127
14101,note_off,0,0,0,,0,,,72,127
14102,note_on,1,0,0,,2,,,74,127
14102,note_on,0,0,0,,11,,,70,127
14301,note_off,199,0,0,,11,,,70,127
14301,note_off,0,0,0,,2,,,74,127
14301,note_off,0,0,0,,7,,,79,127
14302,note_on,1,0,0,,0,,,72,127
14302,note_on,0,0,0,,10,,,81,127
14302,note_on,0,0,0,,10,,,69,127
14501,note_off,199,0,0,,10,,,69,127
14501,note_off,0,0,0,,10,,,81,127
14501,note_off,0,0,0,,0,,,72,127
14502,note_on,1,0,0,,11,,,82,127
14502,note_on,0,0,0,,11,,,70,127
14502,note_on,0,0,0,,7,,,67,127
14701,note_off,199,0,0,,7,,,67,127
14701,note_off,0,0,0,,11,,,82,127
14702,note_on,1,0,0,,10,,,81,127
14702,note_on,0,0,0,,5,,,65,127
14901,note_off,199,0,0,,5,,,65,127
14901,note_off,0,0,0,,10,,,81,127
14902,note_on,1,0,0,,7,,,79,127
14902,note_on,0,0,0,,3,,,63,127
15101,note_off,199,0,0,,3,,,63,127
15101,note_off,0,0,0,,7,,,79,127
15102,note_on,1,0,0,,5,,,77,127
15102,note_on,0,0,0,,2,,,62,127
15301,note_off,199,0,0,,2,,,62,127
15301,note_off,0,0,0,,5,,,77,127
15302,note_on,1,0,0,,3,,,75,127
15302,note_on,0,0,0,,0,,,60,127
15501,note_off,199,0,0,,0,,,60,127
15501,note_off,0,0,0,,3,,,75,127
15502,note_on,1,0,0,,2,,,74,127
15502,note_on,0,0,0,,11,,,58,127
15701,note_off,199,0,0,,11,,,58,127
15701,note_off,0,0,0,,2,,,74,127
15702,note_off,1,0,0,,11,,,70,127
15702,note_on,0,0,0,,3,,,75,127
15702,note_on,0,0,0,,0,,,72,127
15702,note_on,0,0,0,,0,,,60,127
15901,note_off,199,0,0,,0,,,60,127
15901,note_off,0,0,0,,3,,,75,127
15902,note_on,1,0,0,,5,,,77,127
15902,note_on,0,0,0,,2,,,62,127
16101,note_off,199,0,0,,2,,,62,127
16101,note_off,0,0,0,,5,,,77,127
16101,note_off,0,0,0,,0,,,72,127
16102,note_on,1,0,0,,7,,,79,127
16102,note_on,0,0,0,,11,,,70,127
16102,note_on,0,0,0,,3,,,63,127
16301,note_off,199,0,0,,3,,,63,127
16301,note_off,0,0,0,,11,,,70,127
16302,note_on,1,0,0,,10,,,69,127
16302,note_on,0,0,0,,5,,,53,127
16302,note_on,0,0,0,,5,,,65,127
16501,note_off,199,0,0,,5,,,53,127
16501,note_off,0,0,0,,10,,,69,127
16501,note_off,0,0,0,,7,,,79,127
16502,note_on,1,0,0,,11,,,70,127
16502,note_on,0,0,0,,5,,,77,127
16502,note_on,0,0,0,,7,,,55,127
16701,note_off,199,0,0,,7,,,55,127
16701,note_off,0,0,0,,5,,,77,127
16701,note_off,0,0,0,,11,,,70,127
16702,note_on,1,0,0,,3,,,75,127
16702,note_on,0,0,0,,0,,,72,127
16702,note_on,0,0,0,,10,,,57,127
16901,note_off,199,0,0,,10,,,57,127
16901,note_off,0,0,0,,0,,,72,127
16901,note_off,0,0,0,,3,,,75,127
16901,note_off,0,0,0,,5,,,65,127
16902,note_on,1,0,0,,2,,,74,127
16902,note_on,0,0,0,,11,,,58,127
16902,note_on,0,0,0,,2,,,62,127
17101,note_off,199,0,0,,2,,,62,127
17101,note_off,0,0,0,,11,,,58,127
17101,note_off,0,0,0,,2,,,74,127
17102,note_on,1,0,0,,0,,,72,127
17102,note_on,0,0,0,,0,,,60,127
17102,note_on,0,0,0,,3,,,63,127
17301,note_off,199,0,0,,3,,,63,127
17301,note_off,0,0,0,,0,,,60,127
17301,note_off,0,0,0,,0,,,72,127
17302,note_on,1,0,0,,11,,,70,127
17302,note_on,0,0,0,,2,,,62,127
17302,note_on,0,0,0,,5,,,65,127
17501,note_off,199,0,0,,5,,,65,127
17501,note_off,0,0,0,,2,,,62,127
17502,note_on,1,0,0,,7,,,67,127
17502,note_on,0,0,0,,3,,,63,127
17594,note_off,92,0,0,,11,,,70,127
17701,note_off,107,0,0,,3,,,63,127
17701,note_off,0,0,0,,7,,,67,127
17702,note_on,1,0,0,,11,,,70,127
17702,note_on,0,0,0,,2,,,62,127
17702,note_on,0,0,0,,5,,,65,127
17901,note_off,199,0,0,,5,,,65,127
17901,note_off,0,0,0,,2,,,62,127
17901,note_off,0,0,0,,11,,,70,127
17902,note_on,1,0,0,,3,,,63,127
17902,note_on,0,0,0,,0,,,60,127
17902,note_on,0,0,0,,2,,,74,127
17951,note_off,49,0,0,,2,,,74,127
17952,note_on,1,0,0,,0,,,72,127
18001,note_off,49,0,0,,0,,,72,127
18002,note_on,1,0,0,,2,,,74,127
18051,note_off,49,0,0,,2,,,74,127
18052,note_on,1,0,0,,0,,,72,127
18101,note_off,49,0,0,,0,,,72,127
18101,note_off,0,0,0,,0,,,60,127
18101,note_off,0,0,0,,3,,,63,127
18102,note_on,1,0,0,,2,,,74,127
18102,note_on,0,0,0,,11,,,58,127
18102,note_on,0,0,0,,2,,,62,127
18301,note_off,199,0,0,,2,,,62,127
18301,note_off,0,0,0,,11,,,58,127
18301,note_off,0,0,0,,2,,,74,127
18302,note_on,1,0,0,,0,,,72,127
18302,note_on,0,0,0,,0,,,60,127
18302,note_on,0,0,0,,3,,,63,127
18501,note_off,199,0,0,,3,,,63,127
18501,note_off,0,0,0,,0,,,60,127
18501,note_off,0,0,0,,0,,,72,127
18502,note_on,1,0,0,,11,,,70,127
18502,note_on,0,0,0,,2,,,62,127
18502,note_on,0,0,0,,5,,,65,127
18701,note_off,199,0,0,,5,,,65,127
18701,note_off,0,0,0,,2,,,62,127
18702,note_on,1,0,0,,7,,,67,127
18702,note_on,0,0,0,,3,,,63,127
18794,note_off,92,0,0,,11,,,70,127
18901,note_off,107,0,0,,3,,,63,127
18901,note_off,0,0,0,,7,,,67,127
18902,note_on,1,0,0,,11,,,70,127
18902,note_on,0,0,0,,2,,,62,127
18902,note_on,0,0,0,,5,,,65,127
19101,note_off,199,0,0,,5,,,65,127
19101,note_off,0,0,0,,2,,,62,127
19101,note_off,0,0,0,,11,,,70,127
19102,note_on,1,0,0,,0,,,60,127
19102,note_on,0,0,0,,3,,,63,127
19102,note_on,0,0,0,,2,,,74,127
19151,note_off,49,0,0,,2,,,74,127
19152,note_on,1,0,0,,0,,,72,127
19201,note_off,49,0,0,,0,,,72,127
19202,note_on,1,0,0,,2,,,74,127
19251,note_off,49,0,0,,2,,,74,127
19252,note_on,1,0,0,,0,,,72,127
19301,note_off,49,0,0,,0,,,72,127
19301,note_off,0,0,0,,3,,,63,127
19301,note_off,0,0,0,,0,,,60,127
19302,note_on,1,0,0,,2,,,74,127
19302,note_on,0,0,0,,11,,,58,127
19302,note_on,0,0,0,,2,,,62,127
19501,note_off,199,0,0,,2,,,62,127
19501,note_off,0,0,0,,11,,,58,127
19501,note_off,0,0,0,,2,,,74,127
19502,note_on,1,0,0,,0,,,72,127
19502,note_on,0,0,0,,0,,,60,127
19502,note_on,0,0,0,,3,,,63,127
19701,note_off,199,0,0,,3,,,63,127
19701,note_off,0,0,0,,0,,,60,127
19701,note_off,0,0,0,,0,,,72,127
19702,note_on,1,0,0,,11,,,70,127
19702,note_on,0,0,0,,2,,,62,127
19702,note_on,0,0,0,,5,,,65,127
19901,note_off,199,0,0,,5,,,65,127
19901,note_off,0,0,0,,2,,,62,127
19902,note_on,1,0,0,,7,,,67,127
19902,note_on,0,0,0,,3,,,63,127
19994,note_off,92,0,0,,11,,,70,127
20101,note_off,107,0,0,,3,,,63,127
20101,note_off,0,0,0,,7,,,67,127
20102,note_on,1,0,0,,11,,,70,127
20102,note_on,0,0,0,,2,,,62,127
20102,note_on,0,0,0,,5,,,65,127
20301,note_off,199,0,0,,5,,,65,127
20301,note_off,0,0,0,,2,,,62,127
20301,note_off,0,0,0,,11,,,70,127
20302,note_on,1,0,0,,3,,,63,127
20302,note_on,0,0,0,,0,,,60,127
20302,note_on,0,0,0,,2,,,74,127
20351,note_off,49,0,0,,2,,,74,127
20352,note_on,1,0,0,,0,,,72,127
20401,note_off,49,0,0,,0,,,72,127
20402,note_on,1,0,0,,2,,,74,127
20451,note_off,49,0,0,,2,,,74,127
20452,note_on,1,0,0,,0,,,72,127
20501,note_off,49,0,0,,0,,,72,127
20501,note_off,0,0,0,,0,,,60,127
20501,note_off,0,0,0,,3,,,63,127
20502,note_on,1,0,0,,2,,,74,127
20502,note_on,0,0,0,,11,,,70,127
20502,note_on,0,0,0,,2,,,62,127
20502,note_on,0,0,0,,11,,,58,127
20701,note_off,199,0,0,,11,,,70,127
20701,note_off,0,0,0,,2,,,74,127
20702,note_on,1,0,0,,3,,,75,127
20702,note_on,0,0,0,,0,,,72,127
20901,note_off,199,0,0,,0,,,72,127
20901,note_off,0,0,0,,3,,,75,127
20902,note_on,1,0,0,,2,,,74,127
20902,note_on,0,0,0,,5,,,77,127
21101,note_off,199,0,0,,11,,,58,127
21101,note_off,0,0,0,,2,,,62,127
21102,note_on,1,0,0,,3,,,51,127
21102,note_on,0,0,0,,11,,,58,127
21301,note_off,199,0,0,,5,,,77,127
21301,note_off,0,0,0,,2,,,74,127
21302,note_on,1,0,0,,0,,,72,127
21302,note_on,0,0,0,,3,,,75,127
21501,note_off,199,0,0,,3,,,75,127
21501,note_off,0,0,0,,0,,,72,127
21502,note_on,1,0,0,,2,,,74,127
21502,note_on,0,0,0,,11,,,70,127
21701,note_off,199,0,0,,11,,,70,127
21701,note_off,0,0,0,,2,,,74,127
21701,note_off,0,0,0,,11,,,58,127
21701,note_off,0,0,0,,3,,,51,127
21702,note_on,1,0,0,,5,,,65,127
21702,note_on,0,0,0,,2,,,74,127
21702,note_on,0,0,0,,5,,,41,127
21702,note_on,0,0,0,,5,,,53,127
21901,note_off,199,0,0,,2,,,74,127
21902,note_on,1,0,0,,0,,,72,127
22101,note_off,199,0,0,,0,,,72,127
22101,note_off,0,0,0,,5,,,53,127
22101,note_off,0,0,0,,5,,,41,127
22101,note_off,0,0,0,,5,,,65,127
22102,note_on,1,0,0,,11,,,70,127
22102,note_on,0,0,0,,5,,,53,127
22301,note_off,199,0,0,,11,,,70,127
22302,note_on,1,0,0,,2,,,50,127
22302,note_on,0,0,0,,0,,,72,127
22351,note_off,49,0,0,,0,,,72,127
22352,note_on,1,0,0,,11,,,70,127
22401,note_off,49,0,0,,11,,,70,127
22402,note_on,1,0,0,,0,,,72,127
22451,note_off,49,0,0,,0,,,72,127
22452,note_on,1,0,0,,11,,,70,127
22501,note_off,49,0,0,,11,,,70,127
22501,note_off,0,0,0,,2,,,50,127
22502,note_on,1,0,0,,10,,,69,127
22502,note_on,0,0,0,,0,,,48,127
22701,note_off,199,0,0,,0,,,48,127
22701,note_off,0,0,0,,10,,,69,127
22702,note_on,1,0,0,,11,,,70,127
22702,note_on,0,0,0,,11,,,46,127
22901,note_off,199,0,0,,11,,,46,127
22901,note_off,0,0,0,,11,,,70,127
22901,note_off,0,0,0,,5,,,53,127
22902,note_on,1,0,0,,5,,,65,127
22902,note_on,0,0,0,,2,,,74,127
22902,note_on,0,0,0,,5,,,53,127
22902,note_on,0,0,0,,5,,,41,127
23101,note_off,199,0,0,,2,,,74,127
23102,note_on,1,0,0,,0,,,72,127
23301,note_off,199,0,0,,0,,,72,127
23301,note_off,0,0,0,,5,,,41,127
23301,note_off,0,0,0,,5,,,53,127
23301,note_off,0,0,0,,5,,,65,127
23302,note_on,1,0,0,,11,,,70,127
23302,note_on,0,0,0,,5,,,53,127
23501,note_off,199,0,0,,11,,,70,127
23502,note_on,1,0,0,,2,,,50,127
23502,note_on,0,0,0,,0,,,72,127
23551,note_off,49,0,0,,0,,,72,127
23552,note_on,1,0,0,,11,,,70,127
23601,note_off,49,0,0,,11,,,70,127
23602,note_on,1,0,0,,0,,,72,127
23651,note_off,49,0,0,,0,,,72,127
23652,note_on,1,0,0,,11,,,70,127
23701,note_off,49,0,0,,11,,,70,127
23701,note_off,0,0,0,,2,,,50,127
23702,note_on,1,0,0,,10,,,69,127
23702,note_on,0,0,0,,0,,,48,127
23901,note_off,199,0,0,,0,,,48,127
23901,note_off,0,0,0,,10,,,69,127
23902,note_on,1,0,0,,11,,,70,127
23902,note_on,0,0,0,,11,,,46,127
24101,note_off,199,0,0,,11,,,46,127
24101,note_off,0,0,0,,11,,,70,127
24101,note_off,0,0,0,,5,,,53,127
24102,note_on,1,0,0,,2,,,74,127
24102,note_on,0,0,0,,5,,,65,127
24102,note_on,0,0,0,,5,,,53,127
24102,note_on,0,0,0,,5,,,41,127
24301,note_off,199,0,0,,2,,,74,127
24302,note_on,1,0,0,,0,,,72,127
24501,note_off,199,0,0,,0,,,72,127
24501,note_off,0,0,0,,5,,,41,127
24501,note_off,0,0,0,,5,,,53,127
24501,note_off,0,0,0,,5,,,65,127
24502,note_on,1,0,0,,11,,,70,127
24502,note_on,0,0,0,,5,,,53,127
24701,note_off,199,0,0,,11,,,70,127
24702,note_on,1,0,0,,2,,,50,127
24702,note_on,0,0,0,,0,,,72,127
24751,note_off,49,0,0,,0,,,72,127
24752,note_on,1,0,0,,11,,,70,127
24801,note_off,49,0,0,,11,,,70,127
24802,note_on,1,0,0,,0,,,72,127
24851,note_off,49,0,0,,0,,,72,127
24852,note_on,1,0,0,,11,,,70,127
24901,note_off,49,0,0,,11,,,70,127
24901,note_off,0,0,0,,2,,,50,127
24902,note_on,1,0,0,,10,,,69,127
24902,note_on,0,0,0,,0,,,48,127
25101,note_off,199,0,0,,0,,,48,127
25101,note_off,0,0,0,,10,,,69,127
25102,note_on,1,0,0,,11,,,70,127
25102,note_on,0,0,0,,11,,,46,127
25301,note_off,199,0,0,,11,,,46,127
25301,note_off,0,0,0,,11,,,70,127
25301,note_off,0,0,0,,5,,,53,127
25302,note_on,1,0,0,,5,,,65,127
25302,note_on,0,0,0,,2,,,74,127
25302,note_on,0,0,0,,5,,,53,127
25302,note_on,0,0,0,,5,,,41,127
25501,note_off,199,0,0,,2,,,74,127
25502,note_on,1,0,0,,0,,,72,127
25902,note_off,400,0,0,,5,,,65,127
25903,note_off,1,0,0,,0,,,72,127
26103,note_off,200,0,0,,5,,,41,127
26103,note_off,0,0,0,,5,,,53,127
26504,note_on,401,0,0,,5,,,77,127
26704,note_on,200,0,0,,5,,,65,127
26903,note_off,199,0,0,,5,,,65,127
26904,note_on,1,0,0,,7,,,67,127
27103,note_off,199,0,0,,7,,,67,127
27104,note_off,1,0,0,,5,,,77,127
27104,note_on,0,0,0,,8,,,68,127
27104,note_on,0,0,0,,5,,,77,127
27303,note_off,199,0,0,,8,,,68,127
27304,note_on,1,0,0,,5,,,65,127
27503,note_off,199,0,0,,5,,,65,127
27504,note_on,1,0,0,,7,,,67,127
27703,note_off,199,0,0,,7,,,67,127
27703,note_off,0,0,0,,5,,,77,127
27704,note_on,1,0,0,,8,,,68,127
27704,note_on,0,0,0,,5,,,77,127
27903,note_off,199,0,0,,8,,,68,127
27904,note_on,1,0,0,,5,,,65,127
28103,note_off,199,0,0,,5,,,65,127
28104,note_on,1,0,0,,7,,,67,127
28303,note_off,199,0,0,,7,,,67,127
28303,note_off,0,0,0,,5,,,77,127
28304,note_on,1,0,0,,8,,,68,127
28304,note_on,0,0,0,,5,,,77,127
28503,note_off,199,0,0,,5,,,77,127
28503,note_off,0,0,0,,8,,,68,127
28504,note_on,1,0,0,,7,,,67,127
28504,note_on,0,0,0,,3,,,75,127
28703,note_off,199,0,0,,3,,,75,127
28703,note_off,0,0,0,,7,,,67,127
28704,note_on,1,0,0,,2,,,74,127
28704,note_on,0,0,0,,5,,,65,127
28903,note_off,199,0,0,,5,,,65,127
28903,note_off,0,0,0,,2,,,74,127
28904,note_on,1,0,0,,0,,,72,127
28904,note_on,0,0,0,,8,,,68,127
29104,note_on,200,0,0,,5,,,65,127
29104,note_on,0,0,0,,8,,,56,127
29303,note_off,199,0,0,,8,,,56,127
29303,note_off,0,0,0,,5,,,65,127
29303,note_off,0,0,0,,0,,,72,127
29304,note_on,1,0,0,,12,,,71,127
29304,note_on,0,0,0,,3,,,63,127
29304,note_on,0,0,0,,7,,,55,127
29503,note_off,199,0,0,,7,,,55,127
29503,note_off,0,0,0,,3,,,63,127
29503,note_off,0,0,0,,8,,,68,127
29504,note_on,1,0,0,,5,,,53,127
29504,note_on,0,0,0,,2,,,62,127
29703,note_off,199,0,0,,2,,,62,127
29703,note_off,0,0,0,,5,,,53,127
29703,note_off,0,0,0,,12,,,71,127
29704,note_on,1,0,0,,0,,,72,127
29704,note_on,0,0,0,,0,,,60,127
29704,note_on,0,0,0,,3,,,51,127
29903,note_off,199,0,0,,3,,,51,127
29903,note_off,0,0,0,,0,,,60,127
29903,note_off,0,0,0,,0,,,72,127
29904,note_on,1,0,0,,2,,,74,127
29904,note_on,0,0,0,,12,,,59,127
29904,note_on,0,0,0,,2,,,50,127
30103,note_off,199,0,0,,2,,,50,127
30103,note_off,0,0,0,,12,,,59,127
30103,note_off,0,0,0,,2,,,74,127
30104,note_on,1,0,0,,3,,,75,127
30104,note_on,0,0,0,,0,,,72,127
30104,note_on,0,0,0,,0,,,60,127
30104,note_on,0,0,0,,0,,,48,127
30303,note_off,199,0,0,,0,,,72,127
30303,note_off,0,0,0,,3,,,75,127
30304,note_on,1,0,0,,5,,,77,127
30304,note_on,0,0,0,,2,,,74,127
30503,note_off,199,0,0,,2,,,74,127
30503,note_off,0,0,0,,5,,,77,127
30504,note_on,1,0,0,,7,,,79,127
30504,note_on,0,0,0,,3,,,75,127
30703,note_off,199,0,0,,0,,,48,127
30703,note_off,0,0,0,,0,,,60,127
30704,note_on,1,0,0,,5,,,41,127
30704,note_on,0,0,0,,5,,,53,127
30903,note_off,199,0,0,,3,,,75,127
30903,note_off,0,0,0,,7,,,79,127
30904,note_on,1,0,0,,2,,,74,127
30904,note_on,0,0,0,,5,,,77,127
31103,note_off,199,0,0,,5,,,77,127
31103,note_off,0,0,0,,2,,,74,127
31104,note_on,1,0,0,,3,,,75,127
31104,note_on,0,0,0,,0,,,72,127
31303,note_off,199,0,0,,0,,,72,127
31303,note_off,0,0,0,,3,,,75,127
31303,note_off,0,0,0,,5,,,53,127
31303,note_off,0,0,0,,5,,,41,127
31304,note_on,1,0,0,,7,,,67,127
31304,note_on,0,0,0,,3,,,75,127
31304,note_on,0,0,0,,7,,,55,127
31304,note_on,0,0,0,,7,,,43,127
31503,note_off,199,0,0,,3,,,75,127
31504,note_on,1,0,0,,2,,,74,127
31703,note_off,199,0,0,,2,,,74,127
31703,note_off,0,0,0,,7,,,43,127
31703,note_off,0,0,0,,7,,,55,127
31703,note_off,0,0,0,,7,,,67,127
31704,note_on,1,0,0,,0,,,72,127
31704,note_on,0,0,0,,7,,,55,127
31903,note_off,199,0,0,,0,,,72,127
31904,note_on,1,0,0,,3,,,51,127
31904,note_on,0,0,0,,2,,,74,127
31953,note_off,49,0,0,,2,,,74,127
31954,note_on,1,0,0,,0,,,72,127
32003,note_off,49,0,0,,0,,,72,127
32004,note_on,1,0,0,,2,,,74,127
32053,note_off,49,0,0,,2,,,74,127
32054,note_on,1,0,0,,0,,,72,127
32103,note_off,49,0,0,,0,,,72,127
32103,note_off,0,0,0,,3,,,51,127
32104,note_on,1,0,0,,12,,,71,127
32104,note_on,0,0,0,,2,,,50,127
32303,note_off,199,0,0,,2,,,50,127
32303,note_off,0,0,0,,12,,,71,127
32304,note_on,1,0,0,,0,,,72,127
32304,note_on,0,0,0,,0,,,48,127
32503,note_off,199,0,0,,0,,,48,127
32503,note_off,0,0,0,,0,,,72,127
32503,note_off,0,0,0,,7,,,55,127
32504,note_on,1,0,0,,3,,,75,127
32504,note_on,0,0,0,,7,,,67,127
32504,note_on,0,0,0,,7,,,43,127
32504,note_on,0,0,0,,7,,,55,127
32703,note_off,199,0,0,,3,,,75,127
32704,note_on,1,0,0,,2,,,74,127
32903,note_off,199,0,0,,2,,,74,127
32903,note_off,0,0,0,,7,,,55,127
32903,note_off,0,0,0,,7,,,43,127
32903,note_off,0,0,0,,7,,,67,127
32904,note_on,1,0,0,,0,,,72,127
32904,note_on,0,0,0,,7,,,55,127
33103,note_off,199,0,0,,0,,,72,127
33104,note_on,1,0,0,,3,,,51,127
33104,note_on,0,0,0,,2,,,74,127
33153,note_off,49,0,0,,2,,,74,127
33154,note_on,1,0,0,,0,,,72,127
33203,note_off,49,0,0,,0,,,72,127
33204,note_on,1,0,0,,2,,,74,127
33253,note_off,49,0,0,,2,,,74,127
33254,note_on,1,0,0,,0,,,72,127
33303,note_off,49,0,0,,0,,,72,127
33303,note_off,0,0,0,,3,,,51,127
33304,note_on,1,0,0,,12,,,71,127
33304,note_on,0,0,0,,2,,,50,127
33503,note_off,199,0,0,,2,,,50,127
33503,note_off,0,0,0,,12,,,71,127
33504,note_on,1,0,0,,0,,,72,127
33504,note_on,0,0,0,,0,,,48,127
33703,note_off,199,0,0,,0,,,48,127
33703,note_off,0,0,0,,0,,,72,127
33703,note_off,0,0,0,,7,,,55,127
33704,note_on,1,0,0,,7,,,67,127
33704,note_on,0,0,0,,3,,,75,127
33704,note_on,0,0,0,,7,,,55,127
33704,note_on,0,0,0,,7,,,43,127
33903,note_off,199,0,0,,3,,,75,127
33904,note_on,1,0,0,,2,,,74,127
34103,note_off,199,0,0,,2,,,74,127
34103,note_off,0,0,0,,7,,,43,127
34103,note_off,0,0,0,,7,,,55,127
34103,note_off,0,0,0,,7,,,67,127
34104,note_on,1,0,0,,0,,,72,127
34104,note_on,0,0,0,,7,,,55,127
34303,note_off,199,0,0,,0,,,72,127
34304,note_on,1,0,0,,3,,,51,127
34304,note_on,0,0,0,,2,,,74,127
34353,note_off,49,0,0,,2,,,74,127
34354,note_on,1,0,0,,0,,,72,127
34403,note_off,49,0,0,,0,,,72,127
34404,note_on,1,0,0,,2,,,74,127
34453,note_off,49,0,0,,2,,,74,127
34454,note_on,1,0,0,,0,,,72,127
34503,note_off,49,0,0,,0,,,72,127
34503,note_off,0,0,0,,3,,,51,127
34504,note_on,1,0,0,,12,,,71,127
34504,note_on,0,0,0,,2,,,50,127
34703,note_off,199,0,0,,2,,,50,127
34703,note_off,0,0,0,,12,,,71,127
34704,note_on,1,0,0,,0,,,72,127
34704,note_on,0,0,0,,0,,,48,127
34903,note_off,199,0,0,,0,,,48,127
34903,note_off,0,0,0,,0,,,72,127
34903,note_off,0,0,0,,7,,,55,127
34904,note_on,1,0,0,,7,,,67,127
34904,note_on,0,0,0,,3,,,75,127
34904,note_on,0,0,0,,7,,,43,127
34904,note_on,0,0,0,,7,,,55,127
35103,note_off,199,0,0,,3,,,75,127
35104,note_on,1,0,0,,2,,,74,127
35504,note_off,400,0,0,,2,,,74,127
35504,note_off,0,0,0,,7,,,67,127
35705,note_off,201,0,0,,7,,,55,127
35705,note_off,0,0,0,,7,,,43,127
36106,note_on,401,0,0,,7,,,79,127
36306,note_on,200,0,0,,7,,,67,127
36505,note_off,199,0,0,,7,,,67,127
36506,note_on,1,0,0,,10,,,69,127
36705,note_off,199,0,0,,10,,,69,127
36705,note_off,0,0,0,,7,,,79,127
36706,note_on,1,0,0,,7,,,79,127
36706,note_on,0,0,0,,11,,,70,127
36905,note_off,199,0,0,,11,,,70,127
36906,note_on,1,0,0,,7,,,67,127
37105,note_off,199,0,0,,7,,,67,127
37106,note_on,1,0,0,,10,,,69,127
37305,note_off,199,0,0,,10,,,69,127
37305,note_off,0,0,0,,7,,,79,127
37306,note_on,1,0,0,,7,,,79,127
37306,note_on,0,0,0,,11,,,70,127
37505,note_off,199,0,0,,11,,,70,127
37506,note_on,1,0,0,,7,,,67,127
37705,note_off,199,0,0,,7,,,67,127
37706,note_on,1,0,0,,10,,,69,127
37905,note_off,199,0,0,,10,,,69,127
37905,note_off,0,0,0,,7,,,79,127
37906,note_on,1,0,0,,7,,,79,127
37906,note_on,0,0,0,,11,,,70,127
38105,note_off,199,0,0,,11,,,70,127
38105,note_off,0,0,0,,7,,,79,127
38106,note_on,1,0,0,,10,,,69,127
38106,note_on,0,0,0,,5,,,77,127
38305,note_off,199,0,0,,5,,,77,127
38305,note_off,0,0,0,,10,,,69,127
38306,note_on,1,0,0,,4,,,76,127
38306,note_on,0,0,0,,7,,,67,127
38505,note_off,199,0,0,,7,,,67,127
38505,note_off,0,0,0,,4,,,76,127
38506,note_on,1,0,0,,11,,,70,127
38506,note_on,0,0,0,,2,,,74,127
38706,note_on,200,0,0,,11,,,58,127
38706,note_on,0,0,0,,7,,,67,127
38905,note_off,199,0,0,,7,,,67,127
38905,note_off,0,0,0,,11,,,58,127
38905,note_off,0,0,0,,2,,,74,127
38906,note_on,1,0,0,,1,,,73,127
38906,note_on,0,0,0,,5,,,65,127
38906,note_on,0,0,0,,10,,,57,127
39105,note_off,199,0,0,,10,,,57,127
39105,note_off,0,0,0,,5,,,65,127
39105,note_off,0,0,0,,11,,,70,127
39106,note_on,1,0,0,,4,,,64,127
39106,note_on,0,0,0,,7,,,55,127
39305,note_off,199,0,0,,7,,,55,127
39305,note_off,0,0,0,,4,,,64,127
39305,note_off,0,0,0,,1,,,73,127
39306,note_on,1,0,0,,2,,,74,127
39306,note_on,0,0,0,,5,,,53,127
39306,note_on,0,0,0,,2,,,62,127
39505,note_off,199,0,0,,2,,,62,127
39505,note_off,0,0,0,,5,,,53,127
39505,note_off,0,0,0,,2,,,74,127
39506,note_on,1,0,0,,4,,,76,127
39506,note_on,0,0,0,,1,,,61,127
39506,note_on,0,0,0,,4,,,52,127
39705,note_off,199,0,0,,4,,,52,127
39705,note_off,0,0,0,,1,,,61,127
39705,note_off,0,0,0,,4,,,76,127
39706,note_on,1,0,0,,2,,,74,127
39706,note_on,0,0,0,,5,,,77,127
39706,note_on,0,0,0,,2,,,62,127
39706,note_on,0,0,0,,2,,,50,127
39905,note_off,199,0,0,,5,,,77,127
39905,note_off,0,0,0,,2,,,74,127
39906,note_on,1,0,0,,7,,,79,127
39906,note_on,0,0,0,,4,,,76,127
40105,note_off,199,0,0,,4,,,76,127
40105,note_off,0,0,0,,7,,,79,127
40106,note_on,1,0,0,,10,,,81,127
40106,note_on,0,0,0,,5,,,77,127
40305,note_off,199,0,0,,2,,,50,127
40305,note_off,0,0,0,,2,,,62,127
40306,note_on,1,0,0,,7,,,43,127
40306,note_on,0,0,0,,7,,,55,127
40505,note_off,199,0,0,,5,,,77,127
40505,note_off,0,0,0,,10,,,81,127
40506,note_on,1,0,0,,7,,,79,127
40506,note_on,0,0,0,,4,,,76,127
40705,note_off,199,0,0,,4,,,76,127
40705,note_off,0,0,0,,7,,,79,127
40706,note_on,1,0,0,,5,,,77,127
40706,note_on,0,0,0,,2,,,74,127
40905,note_off,199,0,0,,2,,,74,127
40905,note_off,0,0,0,,5,,,77,127
40905,note_off,0,0,0,,7,,,55,127
40905,note_off,0,0,0,,7,,,43,127
40906,note_on,1,0,0,,5,,,77,127
40906,note_on,0,0,0,,10,,,69,127
40906,note_on,0,0,0,,10,,,45,127
40906,note_on,0,0,0,,10,,,57,127
41105,note_off,199,0,0,,5,,,77,127
41106,note_on,1,0,0,,4,,,76,127
41305,note_off,199,0,0,,4,,,76,127
41305,note_off,0,0,0,,10,,,57,127
41305,note_off,0,0,0,,10,,,45,127
41305,note_off,0,0,0,,10,,,69,127
41306,note_on,1,0,0,,2,,,74,127
41306,note_on,0,0,0,,10,,,57,127
41505,note_off,199,0,0,,2,,,74,127
41506,note_on,1,0,0,,5,,,53,127
41506,note_on,0,0,0,,4,,,76,127
41555,note_off,49,0,0,,4,,,76,127
41556,note_on,1,0,0,,2,,,74,127
41605,note_off,49,0,0,,2,,,74,127
41606,note_on,1,0,0,,4,,,76,127
41655,note_off,49,0,0,,4,,,76,127
41656,note_on,1,0,0,,2,,,74,127
41705,note_off,49,0,0,,2,,,74,127
41705,note_off,0,0,0,,5,,,53,127
41706,note_on,1,0,0,,1,,,73,127
41706,note_on,0,0,0,,4,,,52,127
41905,note_off,199,0,0,,4,,,52,127
41905,note_off,0,0,0,,1,,,73,127
41906,note_on,1,0,0,,2,,,74,127
41906,note_on,0,0,0,,2,,,50,127
42105,note_off,199,0,0,,2,,,50,127
42105,note_off,0,0,0,,2,,,74,127
42105,note_off,0,0,0,,10,,,57,127
42106,note_on,1,0,0,,10,,,69,127
42106,note_on,0,0,0,,5,,,77,127
42106,note_on,0,0,0,,10,,,57,127
42106,note_on,0,0,0,,10,,,45,127
42305,note_off,199,0,0,,5,,,77,127
42306,note_on,1,0,0,,4,,,76,127
42505,note_off,199,0,0,,4,,,76,127
42505,note_off,0,0,0,,10,,,45,127
42505,note_off,0,0,0,,10,,,57,127
42505,note_off,0,0,0,,10,,,69,127
42506,note_on,1,0,0,,2,,,74,127
42506,note_on,0,0,0,,10,,,57,127
42705,note_off,199,0,0,,2,,,74,127
42706,note_on,1,0,0,,5,,,53,127
42706,note_on,0,0,0,,4,,,76,127
42755,note_off,49,0,0,,4,,,76,127
42756,note_on,1,0,0,,2,,,74,127
42805,note_off,49,0,0,,2,,,74,127
42806,note_on,1,0,0,,4,,,76,127
42855,note_off,49,0,0,,4,,,76,127
42856,note_on,1,0,0,,2,,,74,127
42905,note_off,49,0,0,,2,,,74,127
42905,note_off,0,0,0,,5,,,53,127
42906,note_on,1,0,0,,1,,,73,127
42906,note_on,0,0,0,,4,,,52,127
43105,note_off,199,0,0,,4,,,52,127
43105,note_off,0,0,0,,1,,,73,127
43106,note_on,1,0,0,,2,,,74,127
43106,note_on,0,0,0,,2,,,50,127
43305,note_off,199,0,0,,2,,,50,127
43305,note_off,0,0,0,,2,,,74,127
43305,note_off,0,0,0,,10,,,57,127
43306,note_on,1,0,0,,10,,,69,127
43306,note_on,0,0,0,,5,,,77,127
43306,note_on,0,0,0,,10,,,57,127
43306,note_on,0,0,0,,10,,,45,127
43505,note_off,199,0,0,,5,,,77,127
43506,note_on,1,0,0,,4,,,76,127
43705,note_off,199,0,0,,4,,,76,127
43705,note_off,0,0,0,,10,,,45,127
43705,note_off,0,0,0,,10,,,57,127
43705,note_off,0,0,0,,10,,,69,127
43706,note_on,1,0,0,,2,,,74,127
43706,note_on,0,0,0,,10,,,57,127
43905,note_off,199,0,0,,2,,,74,127
43906,note_on,1,0,0,,5,,,53,127
43906,note_on,0,0,0,,4,,,76,127
43955,note_off,49,0,0,,4,,,76,127
43956,note_on,1,0,0,,2,,,74,127
44005,note_off,49,0,0,,2,,,74,127
44006,note_on,1,0,0,,4,,,76,127
44055,note_off,49,0,0,,4,,,76,127
44056,note_on,1,0,0,,2,,,74,127
44105,note_off,49,0,0,,2,,,74,127
44105,note_off,0,0,0,,5,,,53,127
44106,note_on,1,0,0,,1,,,73,127
44106,note_on,0,0,0,,4,,,52,127
44305,note_off,199,0,0,,4,,,52,127
44305,note_off,0,0,0,,1,,,73,127
44306,note_on,1,0,0,,2,,,74,127
44306,note_on,0,0,0,,2,,,50,127
44505,note_off,199,0,0,,2,,,50,127
44505,note_off,0,0,0,,2,,,74,127
44505,note_off,0,0,0,,10,,,57,127
44506,note_on,1,0,0,,5,,,77,127
44506,note_on,0,0,0,,10,,,57,127
44506,note_on,0,0,0,,10,,,45,127
44705,note_off,199,0,0,,5,,,77,127
44706,note_on,1,0,0,,4,,,76,127
45106,note_off,400,0,0,,4,,,76,127
45106,note_off,0,0,0,,10,,,45,127
45106,note_off,0,0,0,,10,,,57,127
45107,note_on,1,0,0,,10,,,57,127
45107,note_on,0,0,0,,1,,,49,127
45306,note_off,199,0,0,,1,,,49,127
45306,note_off,0,0,0,,10,,,57,127
45307,note_on,1,0,0,,12,,,59,127
45307,note_on,0,0,0,,2,,,50,127
45506,note_off,199,0,0,,2,,,50,127
45506,note_off,0,0,0,,12,,,59,127
45507,note_on,1,0,0,,1,,,61,127
45507,note_on,0,0,0,,4,,,52,127
45706,note_off,199,0,0,,4,,,52,127
45706,note_off,0,0,0,,1,,,61,127
45707,note_on,1,0,0,,6,,,54,127
45707,note_on,0,0,0,,2,,,62,127
45906,note_off,199,0,0,,2,,,62,127
45906,note_off,0,0,0,,6,,,54,127
45907,note_on,1,0,0,,4,,,64,127
45907,note_on,0,0,0,,7,,,55,127
46106,note_off,199,0,0,,7,,,55,127
46106,note_off,0,0,0,,4,,,64,127
46107,note_on,1,0,0,,10,,,57,127
46107,note_on,0,0,0,,6,,,66,127
46306,note_off,199,0,0,,6,,,66,127
46306,note_off,0,0,0,,10,,,57,127
46307,note_on,1,0,0,,12,,,59,127
46307,note_on,0,0,0,,7,,,67,127
46506,note_off,199,0,0,,7,,,67,127
46506,note_off,0,0,0,,12,,,59,127
46507,note_on,1,0,0,,10,,,69,127
46507,note_on,0,0,0,,1,,,61,127
46706,note_off,199,0,0,,1,,,61,127
46706,note_off,0,0,0,,10,,,69,127
46707,note_on,1,0,0,,10,,,81,127
46707,note_on,0,0,0,,10,,,57,127
46707,note_on,0,0,0,,7,,,67,127
46906,note_off,199,0,0,,7,,,67,127
46906,note_off,0,0,0,,10,,,57,127
46906,note_off,0,0,0,,10,,,81,127
46907,note_on,1,0,0,,12,,,83,127
46907,note_on,0,0,0,,10,,,81,127
46907,note_on,0,0,0,,7,,,67,127
46907,note_on,0,0,0,,2,,,62,127
46907,note_on,0,0,0,,6,,,66,127
47006,note_off,99,0,0,,6,,,66,127
47006,note_off,0,0,0,,7,,,67,127
47006,note_off,0,0,0,,10,,,81,127
47006,note_off,0,0,0,,12,,,83,127
47007,note_on,1,0,0,,12,,,83,127
47007,note_on,0,0,0,,7,,,67,127
47106,note_off,99,0,0,,7,,,67,127
47106,note_off,0,0,0,,12,,,83,127
47107,note_on,1,0,0,,10,,,81,127
47107,note_on,0,0,0,,6,,,66,127
47206,note_off,99,0,0,,6,,,66,127
47206,note_off,0,0,0,,10,,,81,127
47207,note_on,1,0,0,,7,,,79,127
47207,note_on,0,0,0,,4,,,64,127
47306,note_off,99,0,0,,4,,,64,127
47306,note_off,0,0,0,,7,,,79,127
47306,note_off,0,0,0,,2,,,62,127
47307,note_on,1,0,0,,6,,,78,127
47307,note_on,0,0,0,,2,,,62,127
47506,note_off,199,0,0,,2,,,62,127
47507,note_on,1,0,0,,10,,,57,127
47507,note_on,0,0,0,,1,,,49,127
47607,note_off,100,0,0,,6,,,78,127
47706,note_off,99,0,0,,1,,,49,127
47706,note_off,0,0,0,,10,,,57,127
47707,note_on,1,0,0,,12,,,59,127
47707,note_on,0,0,0,,2,,,50,127
47906,note_off,199,0,0,,2,,,50,127
47906,note_off,0,0,0,,12,,,59,127
47907,note_on,1,0,0,,1,,,61,127
47907,note_on,0,0,0,,4,,,52,127
48106,note_off,199,0,0,,4,,,52,127
48106,note_off,0,0,0,,1,,,61,127
48107,note_on,1,0,0,,6,,,54,127
48107,note_on,0,0,0,,2,,,62,127
48306,note_off,199,0,0,,2,,,62,127
48306,note_off,0,0,0,,6,,,54,127
48307,note_on,1,0,0,,7,,,55,127
48307,note_on,0,0,0,,4,,,64,127
48506,note_off,199,0,0,,4,,,64,127
48506,note_off,0,0,0,,7,,,55,127
48507,note_on,1,0,0,,6,,,66,127
48507,note_on,0,0,0,,10,,,57,127
48706,note_off,199,0,0,,10,,,57,127
48706,note_off,0,0,0,,6,,,66,127
48707,note_on,1,0,0,,12,,,59,127
48707,note_on,0,0,0,,7,,,67,127
48906,note_off,199,0,0,,7,,,67,127
48906,note_off,0,0,0,,12,,,59,127
48907,note_on,1,0,0,,10,,,69,127
48907,note_on,0,0,0,,1,,,61,127
49106,note_off,199,0,0,,1,,,61,127
49106,note_off,0,0,0,,10,,,69,127
49107,note_on,1,0,0,,10,,,81,127
49107,note_on,0,0,0,,7,,,67,127
49107,note_on,0,0,0,,10,,,57,127
49306,note_off,199,0,0,,10,,,57,127
49306,note_off,0,0,0,,7,,,67,127
49306,note_off,0,0,0,,10,,,81,127
49307,note_on,1,0,0,,12,,,83,127
49307,note_on,0,0,0,,10,,,81,127
49307,note_on,0,0,0,,7,,,67,127
49307,note_on,0,0,0,,2,,,62,127
49307,note_on,0,0,0,,6,,,66,127
49406,note_off,99,0,0,,6,,,66,127
49406,note_off,0,0,0,,7,,,67,127
49406,note_off,0,0,0,,10,,,81,127
49406,note_off,0,0,0,,12,,,83,127
49407,note_on,1,0,0,,12,,,83,127
49407,note_on,0,0,0,,7,,,67,127
49506,note_off,99,0,0,,7,,,67,127
49506,note_off,0,0,0,,12,,,83,127
49507,note_on,1,0,0,,10,,,81,127
49507,note_on,0,0,0,,6,,,66,127
49606,note_off,99,0,0,,6,,,66,127
49606,note_off,0,0,0,,10,,,81,127
49607,note_on,1,0,0,,7,,,79,127
49607,note_on,0,0,0,,4,,,64,127
49706,note_off,99,0,0,,4,,,64,127
49706,note_off,0,0,0,,7,,,79,127
49706,note_off,0,0,0,,2,,,62,127
49707,note_on,1,0,0,,6,,,78,127
49707,note_on,0,0,0,,2,,,62,127
49906,note_off,199,0,0,,2,,,62,127
49906,note_off,0,0,0,,6,,,78,127
49907,note_on,1,0,0,,1,,,85,127
49907,note_on,0,0,0,,7,,,67,127
49907,note_on,0,0,0,,7,,,55,127
49956,note_off,49,0,0,,1,,,85,127
49957,note_on,1,0,0,,12,,,83,127
50006,note_off,49,0,0,,12,,,83,127
50007,note_on,1,0,0,,1,,,85,127
50056,note_off,49,0,0,,1,,,85,127
50057,note_on,1,0,0,,12,,,83,127
50106,note_off,49,0,0,,12,,,83,127
50106,note_off,0,0,0,,7,,,55,127
50107,note_on,1,0,0,,1,,,85,127
50107,note_on,0,0,0,,10,,,57,127
50306,note_off,199,0,0,,10,,,57,127
50306,note_off,0,0,0,,1,,,85,127
50307,note_on,1,0,0,,2,,,86,127
50307,note_on,0,0,0,,12,,,59,127
50506,note_off,199,0,0,,12,,,59,127
50506,note_off,0,0,0,,2,,,86,127
50506,note_off,0,0,0,,7,,,67,127
50507,note_on,1,0,0,,1,,,61,127
50507,note_on,0,0,0,,6,,,78,127
50556,note_off,49,0,0,,6,,,78,127
50557,note_on,1,0,0,,4,,,76,127
50606,note_off,49,0,0,,4,,,76,127
50607,note_on,1,0,0,,6,,,78,127
50656,note_off,49,0,0,,6,,,78,127
50657,note_on,1,0,0,,4,,,76,127
50706,note_off,49,0,0,,4,,,76,127
50706,note_off,0,0,0,,1,,,61,127
50707,note_on,1,0,0,,10,,,57,127
50707,note_on,0,0,0,,6,,,78,127
50756,note_off,49,0,0,,6,,,78,127
50757,note_on,1,0,0,,4,,,76,127
50806,note_off,49,0,0,,4,,,76,127
50807,note_on,1,0,0,,6,,,78,127
50856,note_off,49,0,0,,6,,,78,127
50857,note_on,1,0,0,,4,,,76,127
50906,note_off,49,0,0,,4,,,76,127
50906,note_off,0,0,0,,10,,,57,127
50907,note_on,1,0,0,,2,,,74,127
50907,note_on,0,0,0,,6,,,78,127
50907,note_on,0,0,0,,2,,,62,127
51106,note_off,199,0,0,,2,,,62,127
51106,note_off,0,0,0,,6,,,78,127
51106,note_off,0,0,0,,2,,,74,127
51107,note_on,1,0,0,,4,,,76,127
51107,note_on,0,0,0,,7,,,79,127
51107,note_on,0,0,0,,7,,,55,127
51306,note_off,199,0,0,,7,,,55,127
51306,note_off,0,0,0,,7,,,79,127
51306,note_off,0,0,0,,4,,,76,127
51307,note_on,1,0,0,,6,,,78,127
51307,note_on,0,0,0,,2,,,74,127
51307,note_on,0,0,0,,10,,,57,127
51506,note_off,199,0,0,,2,,,74,127
51506,note_off,0,0,0,,6,,,78,127
51507,note_on,1,0,0,,1,,,73,127
51507,note_on,0,0,0,,4,,,76,127
51507,note_on,0,0,0,,10,,,45,127
51706,note_off,199,0,0,,10,,,45,127
51706,note_off,0,0,0,,4,,,76,127
51706,note_off,0,0,0,,1,,,73,127
51706,note_off,0,0,0,,10,,,57,127
51707,note_on,1,0,0,,1,,,73,127
51707,note_on,0,0,0,,2,,,50,127
51906,note_off,199,0,0,,1,,,73,127
51907,note_on,1,0,0,,2,,,74,127
52106,note_off,199,0,0,,2,,,50,127
52107,note_on,1,0,0,,2,,,38,127
52306,note_off,199,0,0,,2,,,38,127
52306,note_off,0,0,0,,2,,,74,127
52307,note_on,1,0,0,,10,,,57,127
52307,note_on,0,0,0,,1,,,49,127
52506,note_off,199,0,0,,1,,,49,127
52506,note_off,0,0,0,,10,,,57,127
52507,note_on,1,0,0,,2,,,50,127
52507,note_on,0,0,0,,12,,,59,127
52706,note_off,199,0,0,,12,,,59,127
52706,note_off,0,0,0,,2,,,50,127
52707,note_on,1,0,0,,1,,,61,127
52707,note_on,0,0,0,,4,,,52,127
52906,note_off,199,0,0,,4,,,52,127
52906,note_off,0,0,0,,1,,,61,127
52907,note_on,1,0,0,,2,,,62,127
52907,note_on,0,0,0,,6,,,54,127
53106,note_off,199,0,0,,6,,,54,127
53106,note_off,0,0,0,,2,,,62,127
53107,note_on,1,0,0,,4,,,64,127
53107,note_on,0,0,0,,7,,,55,127
53306,note_off,199,0,0,,7,,,55,127
53306,note_off,0,0,0,,4,,,64,127
53307,note_on,1,0,0,,10,,,57,127
53307,note_on,0,0,0,,6,,,66,127
53506,note_off,199,0,0,,6,,,66,127
53506,note_off,0,0,0,,10,,,57,127
53507,note_on,1,0,0,,7,,,67,127
53507,note_on,0,0,0,,12,,,59,127
53706,note_off,199,0,0,,12,,,59,127
53706,note_off,0,0,0,,7,,,67,127
53707,note_on,1,0,0,,10,,,69,127
53707,note_on,0,0,0,,1,,,61,127
53906,note_off,199,0,0,,1,,,61,127
53906,note_off,0,0,0,,10,,,69,127
53907,note_on,1,0,0,,10,,,69,127
53907,note_on,0,0,0,,10,,,57,127
53907,note_on,0,0,0,,7,,,67,127
54106,note_off,199,0,0,,7,,,67,127
54106,note_off,0,0,0,,10,,,57,127
54106,note_off,0,0,0,,10,,,69,127
54107,note_on,1,0,0,,12,,,71,127
54107,note_on,0,0,0,,10,,,69,127
54107,note_on,0,0,0,,7,,,67,127
54107,note_on,0,0,0,,2,,,62,127
54107,note_on,0,0,0,,6,,,66,127
54206,note_off,99,0,0,,6,,,66,127
54206,note_off,0,0,0,,7,,,67,127
54206,note_off,0,0,0,,10,,,69,127
54206,note_off,0,0,0,,12,,,71,127
54207,note_on,1,0,0,,12,,,71,127
54207,note_on,0,0,0,,7,,,67,127
54306,note_off,99,0,0,,7,,,67,127
54306,note_off,0,0,0,,12,,,71,127
54307,note_on,1,0,0,,10,,,69,127
54307,note_on,0,0,0,,6,,,66,127
54406,note_off,99,0,0,,6,,,66,127
54406,note_off,0,0,0,,10,,,69,127
54407,note_on,1,0,0,,7,,,67,127
54407,note_on,0,0,0,,4,,,64,127
54506,note_off,99,0,0,,4,,,64,127
54506,note_off,0,0,0,,7,,,67,127
54506,note_off,0,0,0,,2,,,62,127
54507,note_on,1,0,0,,6,,,66,127
54507,note_on,0,0,0,,2,,,62,127
54706,note_off,199,0,0,,2,,,62,127
54706,note_off,0,0,0,,6,,,66,127
54707,note_on,1,0,0,,10,,,57,127
54707,note_on,0,0,0,,1,,,49,127
54906,note_off,199,0,0,,1,,,49,127
54906,note_off,0,0,0,,10,,,57,127
54907,note_on,1,0,0,,12,,,59,127
54907,note_on,0,0,0,,2,,,50,127
55106,note_off,199,0,0,,2,,,50,127
55106,note_off,0,0,0,,12,,,59,127
55107,note_on,1,0,0,,4,,,52,127
55107,note_on,0,0,0,,1,,,61,127
55306,note_off,199,0,0,,1,,,61,127
55306,note_off,0,0,0,,4,,,52,127
55307,note_on,1,0,0,,6,,,54,127
55307,note_on,0,0,0,,2,,,62,127
55506,note_off,199,0,0,,2,,,62,127
55506,note_off,0,0,0,,6,,,54,127
55507,note_on,1,0,0,,7,,,55,127
55507,note_on,0,0,0,,4,,,64,127
55706,note_off,199,0,0,,4,,,64,127
55706,note_off,0,0,0,,7,,,55,127
55707,note_on,1,0,0,,6,,,66,127
55707,note_on,0,0,0,,10,,,57,127
55906,note_off,199,0,0,,10,,,57,127
55906,note_off,0,0,0,,6,,,66,127
55907,note_on,1,0,0,,12,,,59,127
55907,note_on,0,0,0,,7,,,67,127
56106,note_off,199,0,0,,7,,,67,127
56106,note_off,0,0,0,,12,,,59,127
56107,note_on,1,0,0,,10,,,69,127
56107,note_on,0,0,0,,1,,,61,127
56306,note_off,199,0,0,,1,,,61,127
56306,note_off,0,0,0,,10,,,69,127
56307,note_on,1,0,0,,10,,,69,127
56307,note_on,0,0,0,,10,,,57,127
56307,note_on,0,0,0,,7,,,67,127
56506,note_off,199,0,0,,7,,,67,127
56506,note_off,0,0,0,,10,,,57,127
56506,note_off,0,0,0,,10,,,69,127
56507,note_on,1,0,0,,12,,,71,127
56507,note_on,0,0,0,,10,,,69,127
56507,note_on,0,0,0,,7,,,67,127
56507,note_on,0,0,0,,2,,,62,127
56507,note_on,0,0,0,,6,,,66,127
56606,note_off,99,0,0,,6,,,66,127
56606,note_off,0,0,0,,7,,,67,127
56606,note_off,0,0,0,,10,,,69,127
56606,note_off,0,0,0,,12,,,71,127
56607,note_on,1,0,0,,12,,,71,127
56607,note_on,0,0,0,,7,,,67,127
56706,note_off,99,0,0,,7,,,67,127
56706,note_off,0,0,0,,12,,,71,127
56707,note_on,1,0,0,,10,,,69,127
56707,note_on,0,0,0,,6,,,66,127
56806,note_off,99,0,0,,6,,,66,127
56806,note_off,0,0,0,,10,,,69,127
56807,note_on,1,0,0,,7,,,67,127
56807,note_on,0,0,0,,4,,,64,127
56906,note_off,99,0,0,,4,,,64,127
56906,note_off,0,0,0,,7,,,67,127
56906,note_off,0,0,0,,2,,,62,127
56907,note_on,1,0,0,,6,,,66,127
56907,note_on,0,0,0,,2,,,62,127
57106,note_off,199,0,0,,2,,,62,127
57106,note_off,0,0,0,,6,,,66,127
57107,note_on,1,0,0,,1,,,73,127
57107,note_on,0,0,0,,7,,,67,127
57107,note_on,0,0,0,,7,,,55,127
57107,note_on,0,0,0,,7,,,43,127
57156,note_off,49,0,0,,7,,,67,127
57156,note_off,0,0,0,,1,,,73,127
57157,note_on,1,0,0,,12,,,71,127
57206,note_off,49,0,0,,12,,,71,127
57207,note_on,1,0,0,,1,,,73,127
57256,note_off,49,0,0,,1,,,73,127
57257,note_on,1,0,0,,12,,,71,127
57306,note_off,49,0,0,,12,,,71,127
57306,note_off,0,0,0,,7,,,43,127
57307,note_on,1,0,0,,1,,,73,127
57307,note_on,0,0,0,,10,,,45,127
57506,note_off,199,0,0,,10,,,45,127
57506,note_off,0,0,0,,1,,,73,127
57507,note_on,1,0,0,,2,,,74,127
57507,note_on,0,0,0,,12,,,47,127
57706,note_off,199,0,0,,12,,,47,127
57706,note_off,0,0,0,,2,,,74,127
57706,note_off,0,0,0,,7,,,55,127
57707,note_on,1,0,0,,1,,,49,127
57707,note_on,0,0,0,,6,,,66,127
57756,note_off,49,0,0,,6,,,66,127
57757,note_on,1,0,0,,4,,,64,127
57806,note_off,49,0,0,,4,,,64,127
57807,note_on,1,0,0,,6,,,66,127
57856,note_off,49,0,0,,6,,,66,127
57857,note_on,1,0,0,,4,,,64,127
57906,note_off,49,0,0,,4,,,64,127
57906,note_off,0,0,0,,1,,,49,127
57907,note_on,1,0,0,,10,,,45,127
57907,note_on,0,0,0,,6,,,66,127
57956,note_off,49,0,0,,6,,,66,127
57957,note_on,1,0,0,,4,,,64,127
58006,note_off,49,0,0,,4,,,64,127
58007,note_on,1,0,0,,6,,,66,127
58056,note_off,49,0,0,,6,,,66,127
58057,note_on,1,0,0,,4,,,64,127
58106,note_off,49,0,0,,4,,,64,127
58106,note_off,0,0,0,,10,,,45,127
58107,note_on,1,0,0,,2,,,62,127
58107,note_on,0,0,0,,6,,,66,127
58107,note_on,0,0,0,,2,,,50,127
58306,note_off,199,0,0,,2,,,50,127
58306,note_off,0,0,0,,6,,,66,127
58306,note_off,0,0,0,,2,,,62,127
58307,note_on,1,0,0,,4,,,64,127
58307,note_on,0,0,0,,7,,,67,127
58307,note_on,0,0,0,,7,,,43,127
58506,note_off,199,0,0,,7,,,43,127
58506,note_off,0,0,0,,7,,,67,127
58506,note_off,0,0,0,,4,,,64,127
58507,note_on,1,0,0,,2,,,62,127
58507,note_on,0,0,0,,6,,,66,127
58507,note_on,0,0,0,,10,,,45,127
58706,note_off,199,0,0,,6,,,66,127
58706,note_off,0,0,0,,2,,,62,127
58707,note_on,1,0,0,,1,,,61,127
58707,note_on,0,0,0,,4,,,64,127
58707,note_on,0,0,0,,10,,,33,127
58906,note_off,199,0,0,,10,,,33,127
58906,note_off,0,0,0,,4,,,64,127
58906,note_off,0,0,0,,1,,,61,127
58906,note_off,0,0,0,,10,,,45,127
58907,note_on,1,0,0,,2,,,62,127
58907,note_on,0,0,0,,2,,,50,127
59106,note_off,199,0,0,,2,,,50,127
59107,note_on,1,0,0,,1,,,73,127
59107,note_on,0,0,0,,4,,,52,127
59306,note_off,199,0,0,,4,,,52,127
59306,note_off,0,0,0,,1,,,73,127
59307,note_on,1,0,0,,2,,,74,127
59307,note_on,0,0,0,,6,,,54,127
59506,note_off,199,0,0,,6,,,54,127
59506,note_off,0,0,0,,2,,,74,127
59506,note_off,0,0,0,,2,,,62,127
59507,note_on,1,0,0,,4,,,64,127
59507,note_on,0,0,0,,7,,,55,127
59706,note_off,199,0,0,,7,,,55,127
59707,note_on,1,0,0,,3,,,75,127
59707,note_on,0,0,0,,6,,,54,127
59906,note_off,199,0,0,,6,,,54,127
59906,note_off,0,0,0,,3,,,75,127
59907,note_on,1,0,0,,4,,,76,127
59907,note_on,0,0,0,,4,,,52,127
60106,note_off,199,0,0,,4,,,52,127
60106,note_off,0,0,0,,4,,,64,127
60107,note_on,1,0,0,,10,,,45,127
60306,note_off,199,0,0,,4,,,76,127
60307,note_on,1,0,0,,12,,,71,127
60307,note_on,0,0,0,,7,,,79,127
60506,note_off,199,0,0,,7,,,79,127
60506,note_off,0,0,0,,12,,,71,127
60507,note_on,1,0,0,,10,,,69,127
60507,note_on,0,0,0,,6,,,78,127
60706,note_off,199,0,0,,6,,,78,127
60706,note_off,0,0,0,,10,,,69,127
60706,note_off,0,0,0,,10,,,45,127
60707,note_on,1,0,0,,7,,,67,127
60707,note_on,0,0,0,,4,,,76,127
60707,note_on,0,0,0,,7,,,43,127
60906,note_off,199,0,0,,4,,,76,127
60906,note_off,0,0,0,,7,,,67,127
60907,note_on,1,0,0,,6,,,66,127
60907,note_on,0,0,0,,2,,,74,127
61106,note_off,199,0,0,,2,,,74,127
61106,note_off,0,0,0,,6,,,66,127
61106,note_off,0,0,0,,7,,,43,127
61107,note_on,1,0,0,,4,,,64,127
61107,note_on,0,0,0,,1,,,73,127
61107,note_on,0,0,0,,10,,,45,127
61306,note_off,199,0,0,,10,,,45,127
61306,note_off,0,0,0,,1,,,73,127
61306,note_off,0,0,0,,4,,,64,127
61307,note_on,1,0,0,,2,,,62,127
61307,note_on,0,0,0,,2,,,50,127
61506,note_off,199,0,0,,2,,,50,127
61507,note_on,1,0,0,,1,,,73,127
61507,note_on,0,0,0,,4,,,52,127
61706,note_off,199,0,0,,4,,,52,127
61706,note_off,0,0,0,,1,,,73,127
61707,note_on,1,0,0,,2,,,74,127
61707,note_on,0,0,0,,6,,,54,127
61906,note_off,199,0,0,,6,,,54,127
61906,note_off,0,0,0,,2,,,74,127
61906,note_off,0,0,0,,2,,,62,127
61907,note_on,1,0,0,,4,,,64,127
61907,note_on,0,0,0,,7,,,55,127
62106,note_off,199,0,0,,7,,,55,127
62107,note_on,1,0,0,,3,,,75,127
62107,note_on,0,0,0,,6,,,54,127
62306,note_off,199,0,0,,6,,,54,127
62306,note_off,0,0,0,,3,,,75,127
62307,note_on,1,0,0,,4,,,76,127
62307,note_on,0,0,0,,4,,,52,127
62506,note_off,199,0,0,,4,,,52,127
62506,note_off,0,0,0,,4,,,64,127
62507,note_on,1,0,0,,10,,,45,127
62706,note_off,199,0,0,,4,,,76,127
62707,note_on,1,0,0,,7,,,79,127
62707,note_on,0,0,0,,12,,,71,127
62906,note_off,199,0,0,,12,,,71,127
62906,note_off,0,0,0,,7,,,79,127
62907,note_on,1,0,0,,10,,,69,127
62907,note_on,0,0,0,,6,,,78,127
63106,note_off,199,0,0,,6,,,78,127
63106,note_off,0,0,0,,10,,,69,127
63106,note_off,0,0,0,,10,,,45,127
63107,note_on,1,0,0,,4,,,76,127
63107,note_on,0,0,0,,7,,,67,127
63107,note_on,0,0,0,,7,,,43,127
63306,note_off,199,0,0,,7,,,67,127
63306,note_off,0,0,0,,4,,,76,127
63307,note_on,1,0,0,,6,,,66,127
63307,note_on,0,0,0,,2,,,74,127
63506,note_off,199,0,0,,2,,,74,127
63506,note_off,0,0,0,,6,,,66,127
63506,note_off,0,0,0,,7,,,43,127
63507,note_on,1,0,0,,4,,,64,127
63507,note_on,0,0,0,,1,,,73,127
63507,note_on,0,0,0,,10,,,45,127
63706,note_off,199,0,0,,10,,,45,127
63706,note_off,0,0,0,,1,,,73,127
63706,note_off,0,0,0,,4,,,64,127
63707,note_on,1,0,0,,2,,,74,127
63707,note_on,0,0,0,,2,,,50,127
63906,note_off,199,0,0,,2,,,50,127
63907,note_on,1,0,0,,2,,,86,127
63907,note_on,0,0,0,,4,,,52,127
64007,note_off,100,0,0,,2,,,74,127
64106,note_off,99,0,0,,4,,,52,127
64106,note_off,0,0,0,,2,,,86,127
64107,note_on,1,0,0,,2,,,74,127
64107,note_on,0,0,0,,6,,,54,127
64306,note_off,199,0,0,,6,,,54,127
64306,note_off,0,0,0,,2,,,74,127
64307,note_on,1,0,0,,12,,,71,127
64307,note_on,0,0,0,,7,,,55,127
64506,note_off,199,0,0,,7,,,55,127
64507,note_on,1,0,0,,10,,,57,127
64607,note_off,100,0,0,,12,,,71,127
64707,note_on,100,0,0,,6,,,78,127
64707,note_on,0,0,0,,10,,,45,127
64756,note_off,49,0,0,,6,,,78,127
64757,note_on,1,0,0,,4,,,76,127
64806,note_off,49,0,0,,4,,,76,127
64807,note_on,1,0,0,,6,,,78,127
64856,note_off,49,0,0,,6,,,78,127
64857,note_on,1,0,0,,4,,,76,127
64906,note_off,49,0,0,,4,,,76,127
64906,note_off,0,0,0,,10,,,45,127
64906,note_off,0,0,0,,10,,,57,127
64907,note_on,1,0,0,,2,,,74,127
64907,note_on,0,0,0,,2,,,50,127
65106,note_off,199,0,0,,2,,,50,127
65106,note_off,0,0,0,,2,,,74,127
65107,note_on,1,0,0,,2,,,86,127
65107,note_on,0,0,0,,4,,,52,127
65306,note_off,199,0,0,,4,,,52,127
65306,note_off,0,0,0,,2,,,86,127
65307,note_on,1,0,0,,2,,,62,127
65307,note_on,0,0,0,,6,,,54,127
65506,note_off,199,0,0,,6,,,54,127
65506,note_off,0,0,0,,2,,,62,127
65507,note_on,1,0,0,,12,,,59,127
65507,note_on,0,0,0,,7,,,55,127
65706,note_off,199,0,0,,7,,,55,127
65707,note_on,1,0,0,,10,,,57,127
65807,note_off,100,0,0,,12,,,59,127
65907,note_on,100,0,0,,6,,,66,127
65907,note_on,0,0,0,,10,,,45,127
65956,note_off,49,0,0,,6,,,66,127
65957,note_on,1,0,0,,4,,,64,127
66006,note_off,49,0,0,,4,,,64,127
66007,note_on,1,0,0,,6,,,66,127
66056,note_off,49,0,0,,6,,,66,127
66057,note_on,1,0,0,,4,,,64,127
66106,note_off,49,0,0,,4,,,64,127
66106,note_off,0,0,0,,10,,,45,127
66106,note_off,0,0,0,,10,,,57,127
66107,note_on,1,0,0,,2,,,62,127
66107,note_on,0,0,0,,2,,,50,127
66306,note_off,199,0,0,,2,,,50,127
66306,note_off,0,0,0,,2,,,62,127
66307,note_on,1,0,0,,2,,,86,127
66307,note_on,0,0,0,,4,,,52,127
66506,note_off,199,0,0,,4,,,52,127
66506,note_off,0,0,0,,2,,,86,127
66507,note_on,1,0,0,,2,,,74,127
66507,note_on,0,0,0,,6,,,54,127
66706,note_off,199,0,0,,6,,,54,127
66706,note_off,0,0,0,,2,,,74,127
66707,note_on,1,0,0,,12,,,71,127
66707,note_on,0,0,0,,7,,,55,127
66906,note_off,199,0,0,,7,,,55,127
66907,note_on,1,0,0,,10,,,57,127
67007,note_off,100,0,0,,12,,,71,127
67107,note_on,100,0,0,,6,,,78,127
67107,note_on,0,0,0,,10,,,45,127
67156,note_off,49,0,0,,6,,,78,127
67157,note_on,1,0,0,,4,,,76,127
67206,note_off,49,0,0,,4,,,76,127
67207,note_on,1,0,0,,6,,,78,127
67256,note_off,49,0,0,,6,,,78,127
67257,note_on,1,0,0,,4,,,76,127
67306,note_off,49,0,0,,4,,,76,127
67306,note_off,0,0,0,,10,,,45,127
67306,note_off,0,0,0,,10,,,57,127
67307,note_on,1,0,0,,2,,,74,127
67307,note_on,0,0,0,,2,,,50,127
67506,note_off,199,0,0,,2,,,50,127
67506,note_off,0,0,0,,2,,,74,127
67507,note_on,1,0,0,,2,,,86,127
67507,note_on,0,0,0,,4,,,52,127
67706,note_off,199,0,0,,4,,,52,127
67706,note_off,0,0,0,,2,,,86,127
67707,note_on,1,0,0,,2,,,62,127
67707,note_on,0,0,0,,6,,,54,127
67906,note_off,199,0,0,,6,,,54,127
67906,note_off,0,0,0,,2,,,62,127
67907,note_on,1,0,0,,12,,,59,127
67907,note_on,0,0,0,,7,,,55,127
68106,note_off,199,0,0,,7,,,55,127
68107,note_on,1,0,0,,10,,,57,127
68207,note_off,100,0,0,,12,,,59,127
68307,note_on,100,0,0,,6,,,66,127
68307,note_on,0,0,0,,10,,,45,127
68356,note_off,49,0,0,,6,,,66,127
68357,note_on,1,0,0,,4,,,64,127
68406,note_off,49,0,0,,4,,,64,127
68407,note_on,1,0,0,,6,,,66,127
68456,note_off,49,0,0,,6,,,66,127
68457,note_on,1,0,0,,4,,,64,127
68506,note_off,49,0,0,,4,,,64,127
68506,note_off,0,0,0,,10,,,45,127
68506,note_off,0,0,0,,10,,,57,127
68507,note_on,1,0,0,,2,,,62,127
68507,note_on,0,0,0,,2,,,38,127
69509,note_off,1002,0,0,,2,,,62,127
69708,note_off,199,0,0,,2,,,38,127
69709,note_on,1,0,0,,6,,,54,127
69709,note_on,0,0,0,,2,,,50,127
69709,note_on,0,0,0,,4,,,64,127
69758,note_off,49,0,0,,4,,,64,127
69759,note_on,1,0,0,,2,,,62,127
69808,note_off,49,0,0,,2,,,62,127
69809,note_on,1,0,0,,4,,,64,127
69858,note_off,49,0,0,,4,,,64,127
69859,note_on,1,0,0,,2,,,62,127
69908,note_off,49,0,0,,2,,,50,127
69908,note_off,0,0,0,,6,,,54,127
69909,note_on,1,0,0,,4,,,52,127
69909,note_on,0,0,0,,7,,,55,127
70108,note_off,199,0,0,,7,,,55,127
70108,note_off,0,0,0,,4,,,52,127
70109,note_on,1,0,0,,6,,,54,127
70109,note_on,0,0,0,,10,,,57,127
70308,note_off,199,0,0,,10,,,57,127
70308,note_off,0,0,0,,6,,,54,127
70309,note_on,1,0,0,,12,,,59,127
70309,note_on,0,0,0,,7,,,55,127
70508,note_off,199,0,0,,7,,,55,127
70508,note_off,0,0,0,,12,,,59,127
70509,note_on,1,0,0,,6,,,54,127
70509,note_on,0,0,0,,10,,,57,127
70693,note_off,184,0,0,,2,,,62,127
70709,note_off,16,0,0,,10,,,57,127
70709,note_off,0,0,0,,6,,,54,127
70710,note_on,1,0,0,,4,,,52,127
70710,note_on,0,0,0,,7,,,55,127
70710,note_on,0,0,0,,6,,,66,127
70759,note_off,49,0,0,,6,,,66,127
70760,note_on,1,0,0,,4,,,64,127
70809,note_off,49,0,0,,4,,,64,127
70810,note_on,1,0,0,,6,,,66,127
70859,note_off,49,0,0,,6,,,66,127
70860,note_on,1,0,0,,4,,,64,127
70909,note_off,49,0,0,,4,,,64,127
70909,note_off,0,0,0,,7,,,55,127
70909,note_off,0,0,0,,4,,,52,127
70910,note_on,1,0,0,,6,,,66,127
70910,note_on,0,0,0,,2,,,50,127
70910,note_on,0,0,0,,6,,,54,127
71109,note_off,199,0,0,,6,,,54,127
71109,note_off,0,0,0,,2,,,50,127
71109,note_off,0,0,0,,6,,,66,127
71110,note_on,1,0,0,,4,,,64,127
71110,note_on,0,0,0,,7,,,55,127
71110,note_on,0,0,0,,4,,,52,127
71309,note_off,199,0,0,,4,,,52,127
71309,note_off,0,0,0,,7,,,55,127
71309,note_off,0,0,0,,4,,,64,127
71310,note_on,1,0,0,,2,,,62,127
71310,note_on,0,0,0,,10,,,57,127
71310,note_on,0,0,0,,6,,,54,127
71509,note_off,199,0,0,,6,,,54,127
71509,note_off,0,0,0,,10,,,57,127
71510,note_on,1,0,0,,12,,,59,127
71510,note_on,0,0,0,,7,,,55,127
71709,note_off,199,0,0,,7,,,55,127
71709,note_off,0,0,0,,12,,,59,127
71710,note_on,1,0,0,,10,,,57,127
71710,note_on,0,0,0,,6,,,54,127
71852,note_off,142,0,0,,2,,,62,127
71909,note_off,57,0,0,,6,,,54,127
71909,note_off,0,0,0,,10,,,57,127
71910,note_on,1,0,0,,4,,,52,127
71910,note_on,0,0,0,,7,,,55,127
71910,note_on,0,0,0,,10,,,69,127
71959,note_off,49,0,0,,10,,,69,127
71960,note_on,1,0,0,,7,,,67,127
72009,note_off,49,0,0,,7,,,67,127
72010,note_on,1,0,0,,10,,,69,127
72059,note_off,49,0,0,,10,,,69,127
72060,note_on,1,0,0,,7,,,67,127
72109,note_off,49,0,0,,7,,,67,127
72109,note_off,0,0,0,,7,,,55,127
72109,note_off,0,0,0,,4,,,52,127
72110,note_on,1,0,0,,10,,,69,127
72110,note_on,0,0,0,,2,,,50,127
72110,note_on,0,0,0,,6,,,54,127
72309,note_off,199,0,0,,6,,,54,127
72309,note_off,0,0,0,,2,,,50,127
72309,note_off,0,0,0,,10,,,69,127
72310,note_on,1,0,0,,7,,,67,127
72310,note_on,0,0,0,,4,,,52,127
72310,note_on,0,0,0,,7,,,55,127
72509,note_off,199,0,0,,7,,,55,127
72509,note_off,0,0,0,,4,,,52,127
72509,note_off,0,0,0,,7,,,67,127
72510,note_on,1,0,0,,6,,,66,127
72510,note_on,0,0,0,,10,,,57,127
72510,note_on,0,0,0,,6,,,54,127
72709,note_off,199,0,0,,6,,,54,127
72709,note_off,0,0,0,,10,,,57,127
72710,note_on,1,0,0,,7,,,55,127
72710,note_on,0,0,0,,12,,,59,127
72909,note_off,199,0,0,,12,,,59,127
72909,note_off,0,0,0,,7,,,55,127
72909,note_off,0,0,0,,6,,,66,127
72910,note_on,1,0,0,,10,,,57,127
72910,note_on,0,0,0,,6,,,54,127
73109,note_off,199,0,0,,6,,,54,127
73109,note_off,0,0,0,,10,,,57,127
73110,note_on,1,0,0,,4,,,52,127
73110,note_on,0,0,0,,7,,,55,127
73110,note_on,0,0,0,,2,,,74,127
73159,note_off,49,0,0,,2,,,74,127
73160,note_on,1,0,0,,1,,,73,127
73209,note_off,49,0,0,,1,,,73,127
73210,note_on,1,0,0,,2,,,74,127
73259,note_off,49,0,0,,2,,,74,127
73260,note_on,1,0,0,,1,,,73,127
73309,note_off,49,0,0,,1,,,73,127
73309,note_off,0,0,0,,7,,,55,127
73309,note_off,0,0,0,,4,,,52,127
73310,note_on,1,0,0,,2,,,74,127
73310,note_on,0,0,0,,2,,,50,127
73310,note_on,0,0,0,,6,,,54,127
73509,note_off,199,0,0,,6,,,54,127
73509,note_off,0,0,0,,2,,,50,127
73509,note_off,0,0,0,,2,,,74,127
73510,note_on,1,0,0,,1,,,73,127
73510,note_on,0,0,0,,4,,,52,127
73510,note_on,0,0,0,,7,,,55,127
73709,note_off,199,0,0,,7,,,55,127
73709,note_off,0,0,0,,4,,,52,127
73709,note_off,0,0,0,,1,,,73,127
73710,note_on,1,0,0,,10,,,69,127
73710,note_on,0,0,0,,2,,,74,127
73710,note_on,0,0,0,,10,,,57,127
73710,note_on,0,0,0,,6,,,54,127
73909,note_off,199,0,0,,6,,,54,127
73909,note_off,0,0,0,,10,,,57,127
73909,note_off,0,0,0,,2,,,74,127
73909,note_off,0,0,0,,10,,,69,127
73910,note_on,1,0,0,,2,,,74,127
73910,note_on,0,0,0,,8,,,68,127
73910,note_on,0,0,0,,4,,,64,127
73910,note_on,0,0,0,,4,,,52,127
74109,note_off,199,0,0,,4,,,52,127
74109,note_off,0,0,0,,8,,,68,127
74110,note_on,1,0,0,,10,,,69,127
74110,note_on,0,0,0,,6,,,54,127
74309,note_off,199,0,0,,6,,,54,127
74309,note_off,0,0,0,,10,,,69,127
74310,note_on,1,0,0,,12,,,71,127
74310,note_on,0,0,0,,8,,,56,127
74509,note_off,199,0,0,,8,,,56,127
74509,note_off,0,0,0,,12,,,71,127
74509,note_off,0,0,0,,4,,,64,127
74509,note_off,0,0,0,,2,,,74,127
74510,note_on,1,0,0,,0,,,72,127
74510,note_on,0,0,0,,10,,,57,127
74510,note_on,0,0,0,,0,,,60,127
74709,note_off,199,0,0,,0,,,60,127
74709,note_off,0,0,0,,10,,,57,127
74709,note_off,0,0,0,,0,,,72,127
74710,note_on,1,0,0,,12,,,71,127
74710,note_on,0,0,0,,12,,,59,127
74710,note_on,0,0,0,,2,,,62,127
74909,note_off,199,0,0,,2,,,62,127
74909,note_off,0,0,0,,12,,,59,127
74909,note_off,0,0,0,,12,,,71,127
74910,note_on,1,0,0,,10,,,69,127
74910,note_on,0,0,0,,4,,,64,127
74910,note_on,0,0,0,,0,,,60,127
75109,note_off,199,0,0,,0,,,60,127
75109,note_off,0,0,0,,4,,,64,127
75110,note_on,1,0,0,,5,,,65,127
75110,note_on,0,0,0,,2,,,62,127
75309,note_off,199,0,0,,2,,,62,127
75309,note_off,0,0,0,,5,,,65,127
75310,note_on,1,0,0,,0,,,60,127
75310,note_on,0,0,0,,4,,,64,127
75452,note_off,142,0,0,,10,,,69,127
75509,note_off,57,0,0,,4,,,64,127
75509,note_off,0,0,0,,0,,,60,127
75510,note_on,1,0,0,,12,,,59,127
75510,note_on,0,0,0,,2,,,62,127
75510,note_on,0,0,0,,0,,,72,127
75559,note_off,49,0,0,,0,,,72,127
75560,note_on,1,0,0,,12,,,71,127
75609,note_off,49,0,0,,12,,,71,127
75610,note_on,1,0,0,,0,,,72,127
75659,note_off,49,0,0,,0,,,72,127
75660,note_on,1,0,0,,12,,,71,127
75709,note_off,49,0,0,,12,,,71,127
75709,note_off,0,0,0,,2,,,62,127
75709,note_off,0,0,0,,12,,,59,127
75710,note_on,1,0,0,,0,,,72,127
75710,note_on,0,0,0,,10,,,57,127
75710,note_on,0,0,0,,0,,,60,127
75909,note_off,199,0,0,,0,,,60,127
75909,note_off,0,0,0,,10,,,57,127
75909,note_off,0,0,0,,0,,,72,127
75910,note_on,1,0,0,,12,,,71,127
75910,note_on,0,0,0,,2,,,62,127
75910,note_on,0,0,0,,12,,,59,127
76109,note_off,199,0,0,,12,,,59,127
76109,note_off,0,0,0,,2,,,62,127
76109,note_off,0,0,0,,12,,,71,127
76110,note_on,1,0,0,,10,,,69,127
76110,note_on,0,0,0,,4,,,64,127
76110,note_on,0,0,0,,0,,,60,127
76309,note_off,199,0,0,,0,,,60,127
76309,note_off,0,0,0,,4,,,64,127
76310,note_on,1,0,0,,5,,,65,127
76310,note_on,0,0,0,,2,,,62,127
76509,note_off,199,0,0,,2,,,62,127
76509,note_off,0,0,0,,5,,,65,127
76509,note_off,0,0,0,,10,,,69,127
76510,note_on,1,0,0,,4,,,64,127
76510,note_on,0,0,0,,0,,,60,127
76709,note_off,199,0,0,,0,,,60,127
76709,note_off,0,0,0,,4,,,64,127
76710,note_on,1,0,0,,12,,,59,127
76710,note_on,0,0,0,,2,,,62,127
76710,note_on,0,0,0,,4,,,76,127
76759,note_off,49,0,0,,4,,,76,127
76760,note_on,1,0,0,,2,,,74,127
76809,note_off,49,0,0,,2,,,74,127
76810,note_on,1,0,0,,4,,,76,127
76859,note_off,49,0,0,,4,,,76,127
76860,note_on,1,0,0,,2,,,74,127
76909,note_off,49,0,0,,2,,,74,127
76909,note_off,0,0,0,,2,,,62,127
76909,note_off,0,0,0,,12,,,59,127
76910,note_on,1,0,0,,0,,,72,127
76910,note_on,0,0,0,,4,,,76,127
76910,note_on,0,0,0,,10,,,57,127
76910,note_on,0,0,0,,0,,,60,127
77109,note_off,199,0,0,,4,,,76,127
77109,note_off,0,0,0,,0,,,72,127
77110,note_on,1,0,0,,12,,,71,127
77110,note_on,0,0,0,,2,,,74,127
77309,note_off,199,0,0,,2,,,74,127
77309,note_off,0,0,0,,12,,,71,127
77309,note_off,0,0,0,,10,,,57,127
77310,note_on,1,0,0,,0,,,72,127
77310,note_on,0,0,0,,4,,,76,127
77310,note_on,0,0,0,,7,,,55,127
77509,note_off,199,0,0,,7,,,55,127
77509,note_off,0,0,0,,4,,,76,127
77509,note_off,0,0,0,,0,,,72,127
77509,note_off,0,0,0,,0,,,60,127
77510,note_on,1,0,0,,5,,,77,127
77510,note_on,0,0,0,,2,,,74,127
77510,note_on,0,0,0,,5,,,53,127
77709,note_off,199,0,0,,2,,,74,127
77709,note_off,0,0,0,,5,,,77,127
77710,note_on,1,0,0,,4,,,76,127
77710,note_on,0,0,0,,0,,,72,127
77909,note_off,199,0,0,,0,,,72,127
77909,note_off,0,0,0,,4,,,76,127
77909,note_off,0,0,0,,5,,,53,127
77910,note_on,1,0,0,,12,,,71,127
77910,note_on,0,0,0,,2,,,74,127
77910,note_on,0,0,0,,7,,,55,127
78109,note_off,199,0,0,,7,,,55,127
78109,note_off,0,0,0,,2,,,74,127
78109,note_off,0,0,0,,12,,,71,127
78110,note_on,1,0,0,,4,,,76,127
78110,note_on,0,0,0,,4,,,64,127
78110,note_on,0,0,0,,0,,,60,127
78309,note_off,199,0,0,,0,,,60,127
78309,note_off,0,0,0,,4,,,64,127
78309,note_off,0,0,0,,4,,,76,127
78310,note_on,1,0,0,,2,,,74,127
78310,note_on,0,0,0,,5,,,65,127
78310,note_on,0,0,0,,2,,,62,127
78509,note_off,199,0,0,,2,,,62,127
78509,note_off,0,0,0,,5,,,65,127
78509,note_off,0,0,0,,2,,,74,127
78510,note_on,1,0,0,,0,,,72,127
78510,note_on,0,0,0,,4,,,64,127
78510,note_on,0,0,0,,7,,,67,127
78709,note_off,199,0,0,,7,,,67,127
78709,note_off,0,0,0,,4,,,64,127
78710,note_on,1,0,0,,10,,,69,127
78710,note_on,0,0,0,,5,,,65,127
78909,note_off,199,0,0,,5,,,65,127
78909,note_off,0,0,0,,10,,,69,127
78910,note_on,1,0,0,,7,,,67,127
78910,note_on,0,0,0,,4,,,64,127
79052,note_off,142,0,0,,0,,,72,127
79109,note_off,57,0,0,,4,,,64,127
79109,note_off,0,0,0,,7,,,67,127
79110,note_on,1,0,0,,2,,,62,127
79110,note_on,0,0,0,,5,,,65,127
79110,note_on,0,0,0,,4,,,76,127
79159,note_off,49,0,0,,4,,,76,127
79160,note_on,1,0,0,,2,,,74,127
79209,note_off,49,0,0,,2,,,74,127
79210,note_on,1,0,0,,4,,,76,127
79259,note_off,49,0,0,,4,,,76,127
79260,note_on,1,0,0,,2,,,74,127
79309,note_off,49,0,0,,2,,,74,127
79309,note_off,0,0,0,,5,,,65,127
79309,note_off,0,0,0,,2,,,62,127
79310,note_on,1,0,0,,4,,,76,127
79310,note_on,0,0,0,,0,,,60,127
79310,note_on,0,0,0,,4,,,64,127
79509,note_off,199,0,0,,4,,,64,127
79509,note_off,0,0,0,,0,,,60,127
79509,note_off,0,0,0,,4,,,76,127
79510,note_on,1,0,0,,2,,,74,127
79510,note_on,0,0,0,,2,,,62,127
79510,note_on,0,0,0,,5,,,65,127
79709,note_off,199,0,0,,5,,,65,127
79709,note_off,0,0,0,,2,,,62,127
79709,note_off,0,0,0,,2,,,74,127
79710,note_on,1,0,0,,0,,,72,127
79710,note_on,0,0,0,,7,,,67,127
79710,note_on,0,0,0,,4,,,64,127
79909,note_off,199,0,0,,4,,,64,127
79909,note_off,0,0,0,,7,,,67,127
79910,note_on,1,0,0,,5,,,65,127
79910,note_on,0,0,0,,10,,,69,127
80109,note_off,199,0,0,,10,,,69,127
80109,note_off,0,0,0,,5,,,65,127
80110,note_on,1,0,0,,4,,,64,127
80110,note_on,0,0,0,,7,,,67,127
80309,note_off,199,0,0,,7,,,67,127
80309,note_off,0,0,0,,4,,,64,127
80309,note_off,0,0,0,,0,,,72,127
80310,note_on,1,0,0,,2,,,62,127
80310,note_on,0,0,0,,5,,,65,127
80310,note_on,0,0,0,,7,,,79,127
80359,note_off,49,0,0,,7,,,79,127
80360,note_on,1,0,0,,5,,,77,127
80409,note_off,49,0,0,,5,,,77,127
80410,note_on,1,0,0,,7,,,79,127
80459,note_off,49,0,0,,7,,,79,127
80460,note_on,1,0,0,,5,,,77,127
80509,note_off,49,0,0,,5,,,77,127
80509,note_off,0,0,0,,5,,,65,127
80509,note_off,0,0,0,,2,,,62,127
80510,note_on,1,0,0,,4,,,76,127
80510,note_on,0,0,0,,7,,,79,127
80510,note_on,0,0,0,,0,,,60,127
80510,note_on,0,0,0,,4,,,64,127
80709,note_off,199,0,0,,4,,,64,127
80709,note_off,0,0,0,,0,,,60,127
80709,note_off,0,0,0,,7,,,79,127
80709,note_off,0,0,0,,4,,,76,127
80710,note_on,1,0,0,,2,,,74,127
80710,note_on,0,0,0,,5,,,77,127
80710,note_on,0,0,0,,5,,,65,127
80710,note_on,0,0,0,,2,,,62,127
80909,note_off,199,0,0,,2,,,62,127
80909,note_off,0,0,0,,5,,,65,127
80909,note_off,0,0,0,,5,,,77,127
80909,note_off,0,0,0,,2,,,74,127
80910,note_on,1,0,0,,0,,,72,127
80910,note_on,0,0,0,,4,,,76,127
80910,note_on,0,0,0,,7,,,67,127
80910,note_on,0,0,0,,4,,,64,127
81109,note_off,199,0,0,,4,,,64,127
81109,note_off,0,0,0,,7,,,67,127
81109,note_off,0,0,0,,4,,,76,127
81109,note_off,0,0,0,,0,,,72,127
81110,note_on,1,0,0,,10,,,81,127
81110,note_on,0,0,0,,5,,,53,127
81309,note_off,199,0,0,,10,,,81,127
81310,note_on,1,0,0,,2,,,74,127
81310,note_on,0,0,0,,5,,,65,127
81509,note_off,199,0,0,,5,,,65,127
81509,note_off,0,0,0,,2,,,74,127
81510,note_on,1,0,0,,0,,,72,127
81510,note_on,0,0,0,,4,,,64,127
81709,note_off,199,0,0,,4,,,64,127
81709,note_off,0,0,0,,0,,,72,127
81709,note_off,0,0,0,,5,,,53,127
81710,note_on,1,0,0,,0,,,72,127
81710,note_on,0,0,0,,4,,,64,127
81710,note_on,0,0,0,,7,,,55,127
81909,note_off,199,0,0,,4,,,64,127
81909,note_off,0,0,0,,0,,,72,127
81910,note_on,1,0,0,,12,,,71,127
81910,note_on,0,0,0,,2,,,62,127
82109,note_off,199,0,0,,2,,,62,127
82109,note_off,0,0,0,,12,,,71,127
82109,note_off,0,0,0,,7,,,55,127
82110,note_on,1,0,0,,0,,,72,127
82110,note_on,0,0,0,,7,,,55,127
82309,note_off,199,0,0,,7,,,55,127
82309,note_off,0,0,0,,0,,,72,127
82310,note_on,1,0,0,,4,,,52,127
82310,note_on,0,0,0,,7,,,55,127
82310,note_on,0,0,0,,2,,,74,127
82359,note_off,49,0,0,,2,,,74,127
82360,note_on,1,0,0,,0,,,72,127
82409,note_off,49,0,0,,0,,,72,127
82410,note_on,1,0,0,,2,,,74,127
82459,note_off,49,0,0,,2,,,74,127
82460,note_on,1,0,0,,0,,,72,127
82509,note_off,49,0,0,,0,,,72,127
82509,note_off,0,0,0,,4,,,52,127
82510,note_on,1,0,0,,12,,,71,127
82510,note_on,0,0,0,,2,,,50,127
82709,note_off,199,0,0,,2,,,50,127
82709,note_off,0,0,0,,12,,,71,127
82710,note_on,1,0,0,,0,,,72,127
82710,note_on,0,0,0,,0,,,48,127
82909,note_off,199,0,0,,0,,,48,127
82909,note_off,0,0,0,,0,,,72,127
82909,note_off,0,0,0,,7,,,55,127
82910,note_on,1,0,0,,7,,,67,127
82910,note_on,0,0,0,,4,,,76,127
82910,note_on,0,0,0,,7,,,55,127
82910,note_on,0,0,0,,7,,,43,127
83109,note_off,199,0,0,,4,,,76,127
83110,note_on,1,0,0,,2,,,74,127
83309,note_off,199,0,0,,2,,,74,127
83309,note_off,0,0,0,,7,,,43,127
83309,note_off,0,0,0,,7,,,55,127
83309,note_off,0,0,0,,7,,,67,127
83310,note_on,1,0,0,,0,,,72,127
83310,note_on,0,0,0,,7,,,55,127
83509,note_off,199,0,0,,0,,,72,127
83510,note_on,1,0,0,,4,,,52,127
83510,note_on,0,0,0,,2,,,74,127
83559,note_off,49,0,0,,2,,,74,127
83560,note_on,1,0,0,,0,,,72,127
83609,note_off,49,0,0,,0,,,72,127
83610,note_on,1,0,0,,2,,,74,127
83659,note_off,49,0,0,,2,,,74,127
83660,note_on,1,0,0,,0,,,72,127
83709,note_off,49,0,0,,0,,,72,127
83709,note_off,0,0,0,,4,,,52,127
83710,note_on,1,0,0,,12,,,71,127
83710,note_on,0,0,0,,2,,,50,127
83909,note_off,199,0,0,,2,,,50,127
83909,note_off,0,0,0,,12,,,71,127
83910,note_on,1,0,0,,0,,,72,127
83910,note_on,0,0,0,,0,,,48,127
84109,note_off,199,0,0,,0,,,48,127
84109,note_off,0,0,0,,0,,,72,127
84109,note_off,0,0,0,,7,,,55,127
84110,note_on,1,0,0,,7,,,67,127
84110,note_on,0,0,0,,4,,,76,127
84110,note_on,0,0,0,,7,,,43,127
84110,note_on,0,0,0,,7,,,55,127
84309,note_off,199,0,0,,4,,,76,127
84310,note_on,1,0,0,,2,,,74,127
84509,note_off,199,0,0,,2,,,74,127
84509,note_off,0,0,0,,7,,,55,127
84509,note_off,0,0,0,,7,,,43,127
84509,note_off,0,0,0,,7,,,67,127
84510,note_on,1,0,0,,0,,,72,127
84510,note_on,0,0,0,,7,,,55,127
84709,note_off,199,0,0,,0,,,72,127
84710,note_on,1,0,0,,4,,,52,127
84710,note_on,0,0,0,,2,,,74,127
84759,note_off,49,0,0,,2,,,74,127
84760,note_on,1,0,0,,0,,,72,127
84809,note_off,49,0,0,,0,,,72,127
84810,note_on,1,0,0,,2,,,74,127
84859,note_off,49,0,0,,2,,,74,127
84860,note_on,1,0,0,,0,,,72,127
84909,note_off,49,0,0,,0,,,72,127
84909,note_off,0,0,0,,4,,,52,127
84910,note_on,1,0,0,,12,,,71,127
84910,note_on,0,0,0,,2,,,50,127
85109,note_off,199,0,0,,2,,,50,127
85109,note_off,0,0,0,,12,,,71,127
85110,note_on,1,0,0,,0,,,72,127
85110,note_on,0,0,0,,0,,,48,127
85309,note_off,199,0,0,,0,,,48,127
85309,note_off,0,0,0,,0,,,72,127
85309,note_off,0,0,0,,7,,,55,127
85310,note_on,1,0,0,,4,,,76,127
85310,note_on,0,0,0,,7,,,67,127
85310,note_on,0,0,0,,7,,,55,127
85310,note_on,0,0,0,,7,,,43,127
85509,note_off,199,0,0,,4,,,76,127
85510,note_on,1,0,0,,2,,,74,127
85910,note_off,400,0,0,,2,,,74,127
85910,note_off,0,0,0,,7,,,67,127
86207,note_off,297,0,0,,7,,,43,127
86207,note_off,0,0,0,,7,,,55,127
86512,note_on,305,0,0,,8,,,32,127
86712,note_on,200,0,0,,0,,,84,127
86911,note_off,199,0,0,,0,,,84,127
86912,note_on,1,0,0,,8,,,80,127
87111,note_off,199,0,0,,8,,,80,127
87112,note_on,1,0,0,,3,,,75,127
87311,note_off,199,0,0,,3,,,75,127
87312,note_on,1,0,0,,0,,,72,127
87511,note_off,199,0,0,,0,,,72,127
87512,note_on,1,0,0,,8,,,68,127
87711,note_off,199,0,0,,8,,,68,127
87712,note_on,1,0,0,,3,,,63,127
87911,note_off,199,0,0,,3,,,63,127
87911,note_off,0,0,0,,8,,,32,127
87912,note_on,1,0,0,,0,,,60,127
88111,note_off,199,0,0,,0,,,60,127
88112,note_on,1,0,0,,8,,,56,127
88311,note_off,199,0,0,,8,,,56,127
88312,note_on,1,0,0,,3,,,51,127
88511,note_off,199,0,0,,3,,,51,127
88512,note_on,1,0,0,,0,,,48,127
88711,note_off,199,0,0,,0,,,48,127
88712,note_on,1,0,0,,8,,,44,127
88911,note_off,199,0,0,,8,,,44,127
88912,note_on,1,0,0,,8,,,56,127
88912,note_on,0,0,0,,0,,,60,127
88912,note_on,0,0,0,,11,,,70,127
88961,note_off,49,0,0,,11,,,70,127
88962,note_on,1,0,0,,8,,,68,127
89011,note_off,49,0,0,,8,,,68,127
89012,note_on,1,0,0,,11,,,70,127
89061,note_off,49,0,0,,11,,,70,127
89062,note_on,1,0,0,,8,,,68,127
89111,note_off,49,0,0,,0,,,60,127
89111,note_off,0,0,0,,8,,,56,127
89112,note_on,1,0,0,,11,,,58,127
89112,note_on,0,0,0,,1,,,61,127
89311,note_off,199,0,0,,1,,,61,127
89311,note_off,0,0,0,,11,,,58,127
89312,note_on,1,0,0,,3,,,63,127
89312,note_on,0,0,0,,0,,,60,127
89511,note_off,199,0,0,,0,,,60,127
89511,note_off,0,0,0,,3,,,63,127
89512,note_on,1,0,0,,5,,,65,127
89512,note_on,0,0,0,,1,,,61,127
89711,note_off,199,0,0,,1,,,61,127
89711,note_off,0,0,0,,5,,,65,127
89712,note_on,1,0,0,,0,,,60,127
89712,note_on,0,0,0,,3,,,63,127
89906,note_off,194,0,0,,8,,,68,127
89911,note_off,5,0,0,,3,,,63,127
89911,note_off,0,0,0,,0,,,60,127
89912,note_on,1,0,0,,11,,,58,127
89912,note_on,0,0,0,,1,,,61,127
89912,note_on,0,0,0,,0,,,72,127
89961,note_off,49,0,0,,0,,,72,127
89962,note_on,1,0,0,,11,,,70,127
90011,note_off,49,0,0,,11,,,70,127
90012,note_on,1,0,0,,0,,,72,127
90061,note_off,49,0,0,,0,,,72,127
90062,note_on,1,0,0,,11,,,70,127
90111,note_off,49,0,0,,11,,,70,127
90111,note_off,0,0,0,,1,,,61,127
90111,note_off,0,0,0,,11,,,58,127
90112,note_on,1,0,0,,0,,,72,127
90112,note_on,0,0,0,,8,,,56,127
90112,note_on,0,0,0,,0,,,60,127
90311,note_off,199,0,0,,0,,,60,127
90311,note_off,0,0,0,,8,,,56,127
90311,note_off,0,0,0,,0,,,72,127
90312,note_on,1,0,0,,11,,,70,127
90312,note_on,0,0,0,,11,,,58,127
90312,note_on,0,0,0,,1,,,61,127
90511,note_off,199,0,0,,1,,,61,127
90511,note_off,0,0,0,,11,,,58,127
90511,note_off,0,0,0,,11,,,70,127
90512,note_on,1,0,0,,8,,,68,127
90512,note_on,0,0,0,,0,,,60,127
90512,note_on,0,0,0,,3,,,63,127
90711,note_off,199,0,0,,3,,,63,127
90711,note_off,0,0,0,,0,,,60,127
90712,note_on,1,0,0,,1,,,61,127
90712,note_on,0,0,0,,5,,,65,127
90911,note_off,199,0,0,,5,,,65,127
90911,note_off,0,0,0,,1,,,61,127
90912,note_on,1,0,0,,0,,,60,127
90912,note_on,0,0,0,,3,,,63,127
91111,note_off,199,0,0,,3,,,63,127
91111,note_off,0,0,0,,0,,,60,127
91111,note_off,0,0,0,,8,,,68,127
91112,note_on,1,0,0,,1,,,61,127
91112,note_on,0,0,0,,11,,,58,127
91112,note_on,0,0,0,,0,,,72,127
91161,note_off,49,0,0,,0,,,72,127
91162,note_on,1,0,0,,11,,,70,127
91211,note_off,49,0,0,,11,,,70,127
91212,note_on,1,0,0,,0,,,72,127
91261,note_off,49,0,0,,0,,,72,127
91262,note_on,1,0,0,,11,,,70,127
91311,note_off,49,0,0,,11,,,70,127
91311,note_off,0,0,0,,11,,,58,127
91311,note_off,0,0,0,,1,,,61,127
91312,note_on,1,0,0,,0,,,72,127
91312,note_on,0,0,0,,0,,,60,127
91312,note_on,0,0,0,,8,,,56,127
91511,note_off,199,0,0,,8,,,56,127
91511,note_off,0,0,0,,0,,,60,127
91511,note_off,0,0,0,,0,,,72,127
91512,note_on,1,0,0,,11,,,70,127
91512,note_on,0,0,0,,1,,,61,127
91512,note_on,0,0,0,,11,,,58,127
91711,note_off,199,0,0,,11,,,58,127
91711,note_off,0,0,0,,1,,,61,127
91711,note_off,0,0,0,,11,,,70,127
91712,note_on,1,0,0,,8,,,68,127
91712,note_on,0,0,0,,0,,,60,127
91712,note_on,0,0,0,,3,,,63,127
91911,note_off,199,0,0,,3,,,63,127
91911,note_off,0,0,0,,0,,,60,127
91912,note_on,1,0,0,,5,,,65,127
91912,note_on,0,0,0,,1,,,61,127
92111,note_off,199,0,0,,1,,,61,127
92111,note_off,0,0,0,,5,,,65,127
92112,note_on,1,0,0,,0,,,60,127
92112,note_on,0,0,0,,3,,,63,127
92311,note_off,199,0,0,,3,,,63,127
92311,note_off,0,0,0,,0,,,60,127
92311,note_off,0,0,0,,8,,,68,127
92312,note_on,1,0,0,,11,,,58,127
92312,note_on,0,0,0,,1,,,61,127
92312,note_on,0,0,0,,0,,,72,127
92361,note_off,49,0,0,,0,,,72,127
92362,note_on,1,0,0,,11,,,70,127
92411,note_off,49,0,0,,11,,,70,127
92412,note_on,1,0,0,,0,,,72,127
92461,note_off,49,0,0,,0,,,72,127
92462,note_on,1,0,0,,11,,,70,127
92511,note_off,49,0,0,,11,,,70,127
92511,note_off,0,0,0,,1,,,61,127
92511,note_off,0,0,0,,11,,,58,127
92512,note_on,1,0,0,,0,,,72,127
92512,note_on,0,0,0,,0,,,60,127
92512,note_on,0,0,0,,8,,,56,127
92711,note_off,199,0,0,,0,,,72,127
92712,note_on,1,0,0,,2,,,74,127
92911,note_off,199,0,0,,2,,,74,127
92911,note_off,0,0,0,,8,,,56,127
92911,note_off,0,0,0,,0,,,60,127
92912,note_on,1,0,0,,11,,,70,127
92912,note_on,0,0,0,,3,,,75,127
92912,note_on,0,0,0,,7,,,55,127
92912,note_on,0,0,0,,11,,,58,127
93111,note_off,199,0,0,,11,,,58,127
93111,note_off,0,0,0,,7,,,55,127
93111,note_off,0,0,0,,11,,,70,127
93112,note_on,1,0,0,,8,,,68,127
93112,note_on,0,0,0,,5,,,65,127
93112,note_on,0,0,0,,5,,,53,127
93311,note_off,199,0,0,,8,,,68,127
93312,note_on,1,0,0,,7,,,67,127
93511,note_off,199,0,0,,7,,,67,127
93511,note_off,0,0,0,,3,,,75,127
93512,note_on,1,0,0,,8,,,68,127
93512,note_on,0,0,0,,2,,,74,127
93711,note_off,199,0,0,,2,,,74,127
93711,note_off,0,0,0,,8,,,68,127
93711,note_off,0,0,0,,5,,,53,127
93711,note_off,0,0,0,,5,,,65,127
93712,note_on,1,0,0,,7,,,67,127
93712,note_on,0,0,0,,3,,,75,127
93712,note_on,0,0,0,,7,,,55,127
93712,note_on,0,0,0,,3,,,51,127
93911,note_off,199,0,0,,3,,,51,127
93911,note_off,0,0,0,,7,,,55,127
93912,note_on,1,0,0,,5,,,53,127
93912,note_on,0,0,0,,8,,,56,127
94111,note_off,199,0,0,,8,,,56,127
94111,note_off,0,0,0,,5,,,53,127
94112,note_on,1,0,0,,11,,,58,127
94112,note_on,0,0,0,,7,,,55,127
94212,note_off,100,0,0,,3,,,75,127
94212,note_off,0,0,0,,7,,,67,127
94311,note_off,99,0,0,,7,,,55,127
94311,note_off,0,0,0,,11,,,58,127
94312,note_on,1,0,0,,0,,,60,127
94312,note_on,0,0,0,,8,,,56,127
94511,note_off,199,0,0,,8,,,56,127
94511,note_off,0,0,0,,0,,,60,127
94512,note_on,1,0,0,,7,,,55,127
94512,note_on,0,0,0,,11,,,58,127
94711,note_off,199,0,0,,11,,,58,127
94711,note_off,0,0,0,,7,,,55,127
94712,note_on,1,0,0,,8,,,68,127
94712,note_on,0,0,0,,5,,,77,127
94712,note_on,0,0,0,,5,,,53,127
94712,note_on,0,0,0,,8,,,56,127
94911,note_off,199,0,0,,8,,,56,127
94911,note_off,0,0,0,,5,,,53,127
94911,note_off,0,0,0,,5,,,77,127
94911,note_off,0,0,0,,8,,,68,127
94912,note_on,1,0,0,,7,,,79,127
94912,note_on,0,0,0,,11,,,70,127
94912,note_on,0,0,0,,7,,,55,127
94912,note_on,0,0,0,,3,,,51,127
95111,note_off,199,0,0,,3,,,51,127
95111,note_off,0,0,0,,7,,,55,127
95111,note_off,0,0,0,,11,,,70,127
95111,note_off,0,0,0,,7,,,79,127
95112,note_on,1,0,0,,5,,,77,127
95112,note_on,0,0,0,,8,,,68,127
95112,note_on,0,0,0,,8,,,56,127
95112,note_on,0,0,0,,5,,,53,127
95311,note_off,199,0,0,,5,,,53,127
95311,note_off,0,0,0,,8,,,56,127
95311,note_off,0,0,0,,8,,,68,127
95311,note_off,0,0,0,,5,,,77,127
95312,note_on,1,0,0,,3,,,75,127
95312,note_on,0,0,0,,7,,,67,127
95312,note_on,0,0,0,,7,,,55,127
95312,note_on,0,0,0,,11,,,58,127
95511,note_off,199,0,0,,11,,,58,127
95511,note_off,0,0,0,,7,,,55,127
95512,note_on,1,0,0,,8,,,56,127
95512,note_on,0,0,0,,0,,,60,127
95711,note_off,199,0,0,,0,,,60,127
95711,note_off,0,0,0,,8,,,56,127
95712,note_on,1,0,0,,7,,,55,127
95712,note_on,0,0,0,,11,,,58,127
95911,note_off,199,0,0,,11,,,58,127
95911,note_off,0,0,0,,7,,,55,127
95911,note_off,0,0,0,,7,,,67,127
95911,note_off,0,0,0,,3,,,75,127
95912,note_on,1,0,0,,5,,,77,127
95912,note_on,0,0,0,,8,,,68,127
95912,note_on,0,0,0,,5,,,53,127
95912,note_on,0,0,0,,8,,,56,127
96111,note_off,199,0,0,,8,,,56,127
96111,note_off,0,0,0,,5,,,53,127
96111,note_off,0,0,0,,8,,,68,127
96111,note_off,0,0,0,,5,,,77,127
96112,note_on,1,0,0,,11,,,70,127
96112,note_on,0,0,0,,7,,,79,127
96112,note_on,0,0,0,,3,,,51,127
96112,note_on,0,0,0,,7,,,55,127
96311,note_off,199,0,0,,7,,,55,127
96311,note_off,0,0,0,,3,,,51,127
96311,note_off,0,0,0,,7,,,79,127
96311,note_off,0,0,0,,11,,,70,127
96312,note_on,1,0,0,,8,,,68,127
96312,note_on,0,0,0,,5,,,77,127
96312,note_on,0,0,0,,5,,,53,127
96312,note_on,0,0,0,,8,,,56,127
96511,note_off,199,0,0,,8,,,56,127
96511,note_off,0,0,0,,5,,,53,127
96511,note_off,0,0,0,,5,,,77,127
96511,note_off,0,0,0,,8,,,68,127
96512,note_on,1,0,0,,7,,,67,127
96512,note_on,0,0,0,,3,,,75,127
96512,note_on,0,0,0,,11,,,58,127
96512,note_on,0,0,0,,7,,,55,127
96711,note_off,199,0,0,,7,,,55,127
96711,note_off,0,0,0,,11,,,58,127
96711,note_off,0,0,0,,3,,,75,127
96711,note_off,0,0,0,,7,,,67,127
96712,note_on,1,0,0,,5,,,77,127
96712,note_on,0,0,0,,3,,,75,127
96712,note_on,0,0,0,,5,,,53,127
96712,note_on,0,0,0,,8,,,56,127
96911,note_off,199,0,0,,3,,,75,127
96911,note_off,0,0,0,,5,,,77,127
96912,note_on,1,0,0,,2,,,74,127
97111,note_off,199,0,0,,2,,,74,127
97111,note_off,0,0,0,,8,,,56,127
97111,note_off,0,0,0,,5,,,53,127
97112,note_on,1,0,0,,3,,,75,127
97112,note_on,0,0,0,,7,,,55,127
97112,note_on,0,0,0,,3,,,51,127
97311,note_off,199,0,0,,3,,,51,127
97311,note_off,0,0,0,,7,,,55,127
97311,note_off,0,0,0,,3,,,75,127
97312,note_on,1,0,0,,7,,,79,127
97312,note_on,0,0,0,,11,,,70,127
97312,note_on,0,0,0,,11,,,46,127
97312,note_on,0,0,0,,11,,,58,127
97511,note_off,199,0,0,,7,,,79,127
97512,note_on,1,0,0,,5,,,77,127
97711,note_off,199,0,0,,5,,,77,127
97711,note_off,0,0,0,,11,,,58,127
97712,note_on,1,0,0,,3,,,75,127
97712,note_on,0,0,0,,11,,,58,127
97911,note_off,199,0,0,,11,,,58,127
97911,note_off,0,0,0,,3,,,75,127
97911,note_off,0,0,0,,11,,,70,127
97912,note_on,1,0,0,,7,,,55,127
97912,note_on,0,0,0,,5,,,77,127
97961,note_off,49,0,0,,5,,,77,127
97962,note_on,1,0,0,,3,,,75,127
98011,note_off,49,0,0,,3,,,75,127
98012,note_on,1,0,0,,5,,,77,127
98061,note_off,49,0,0,,5,,,77,127
98062,note_on,1,0,0,,3,,,75,127
98111,note_off,49,0,0,,3,,,75,127
98111,note_off,0,0,0,,7,,,55,127
98112,note_on,1,0,0,,2,,,74,127
98112,note_on,0,0,0,,5,,,53,127
98311,note_off,199,0,0,,5,,,53,127
98311,note_off,0,0,0,,2,,,74,127
98312,note_on,1,0,0,,3,,,75,127
98312,note_on,0,0,0,,3,,,51,127
98511,note_off,199,0,0,,3,,,51,127
98511,note_off,0,0,0,,3,,,75,127
98511,note_off,0,0,0,,11,,,46,127
98512,note_on,1,0,0,,7,,,79,127
98512,note_on,0,0,0,,11,,,70,127
98512,note_on,0,0,0,,11,,,46,127
98711,note_off,199,0,0,,7,,,79,127
98712,note_on,1,0,0,,5,,,77,127
98911,note_off,199,0,0,,5,,,77,127
98912,note_on,1,0,0,,3,,,75,127
98912,note_on,0,0,0,,11,,,58,127
99012,note_off,100,0,0,,11,,,70,127
99111,note_off,99,0,0,,11,,,58,127
99111,note_off,0,0,0,,3,,,75,127
99112,note_on,1,0,0,,7,,,55,127
99112,note_on,0,0,0,,5,,,77,127
99161,note_off,49,0,0,,5,,,77,127
99162,note_on,1,0,0,,3,,,75,127
99211,note_off,49,0,0,,3,,,75,127
99212,note_on,1,0,0,,5,,,77,127
99261,note_off,49,0,0,,5,,,77,127
99262,note_on,1,0,0,,3,,,75,127
99311,note_off,49,0,0,,3,,,75,127
99311,note_off,0,0,0,,7,,,55,127
99312,note_on,1,0,0,,2,,,74,127
99312,note_on,0,0,0,,5,,,53,127
99511,note_off,199,0,0,,5,,,53,127
99511,note_off,0,0,0,,2,,,74,127
99512,note_on,1,0,0,,3,,,75,127
99512,note_on,0,0,0,,3,,,51,127
99711,note_off,199,0,0,,3,,,51,127
99711,note_off,0,0,0,,3,,,75,127
99711,note_off,0,0,0,,11,,,46,127
99712,note_on,1,0,0,,7,,,79,127
99712,note_on,0,0,0,,11,,,70,127
99712,note_on,0,0,0,,11,,,46,127
99911,note_off,199,0,0,,7,,,79,127
99912,note_on,1,0,0,,5,,,77,127
100111,note_off,199,0,0,,5,,,77,127
100111,note_off,0,0,0,,11,,,70,127
100112,note_on,1,0,0,,3,,,75,127
100112,note_on,0,0,0,,11,,,58,127
100311,note_off,199,0,0,,11,,,58,127
100311,note_off,0,0,0,,3,,,75,127
100312,note_on,1,0,0,,7,,,55,127
100312,note_on,0,0,0,,5,,,77,127
100361,note_off,49,0,0,,5,,,77,127
100362,note_on,1,0,0,,3,,,75,127
100411,note_off,49,0,0,,3,,,75,127
100412,note_on,1,0,0,,5,,,77,127
100461,note_off,49,0,0,,5,,,77,127
100462,note_on,1,0,0,,3,,,75,127
100511,note_off,49,0,0,,3,,,75,127
100511,note_off,0,0,0,,7,,,55,127
100512,note_on,1,0,0,,2,,,74,127
100512,note_on,0,0,0,,5,,,53,127
100711,note_off,199,0,0,,5,,,53,127
100711,note_off,0,0,0,,2,,,74,127
100712,note_on,1,0,0,,3,,,75,127
100712,note_on,0,0,0,,3,,,51,127
100911,note_off,199,0,0,,3,,,51,127
100911,note_off,0,0,0,,3,,,75,127
100911,note_off,0,0,0,,11,,,46,127
100912,note_on,1,0,0,,7,,,79,127
100912,note_on,0,0,0,,11,,,70,127
100912,note_on,0,0,0,,11,,,46,127
101111,note_off,199,0,0,,7,,,79,127
101112,note_on,1,0,0,,5,,,77,127
101512,note_off,400,0,0,,5,,,77,127
101512,note_off,0,0,0,,11,,,70,127
101712,note_off,200,0,0,,11,,,46,127
102114,note_on,402,0,0,,11,,,82,127
102314,note_on,200,0,0,,11,,,70,127
102513,note_off,199,0,0,,11,,,70,127
102514,note_on,1,0,0,,0,,,72,127
102713,note_off,199,0,0,,0,,,72,127
102713,note_off,0,0,0,,11,,,82,127
102714,note_on,1,0,0,,11,,,82,127
102714,note_on,0,0,0,,1,,,73,127
102913,note_off,199,0,0,,1,,,73,127
102914,note_on,1,0,0,,11,,,70,127
103113,note_off,199,0,0,,11,,,70,127
103114,note_on,1,0,0,,0,,,72,127
103313,note_off,199,0,0,,0,,,72,127
103313,note_off,0,0,0,,11,,,82,127
103314,note_on,1,0,0,,1,,,73,127
103314,note_on,0,0,0,,11,,,82,127
103513,note_off,199,0,0,,1,,,73,127
103514,note_on,1,0,0,,11,,,70,127
103713,note_off,199,0,0,,11,,,70,127
103714,note_on,1,0,0,,0,,,72,127
103913,note_off,199,0,0,,0,,,72,127
103913,note_off,0,0,0,,11,,,82,127
103914,note_on,1,0,0,,1,,,73,127
103914,note_on,0,0,0,,11,,,82,127
104113,note_off,199,0,0,,11,,,82,127
104113,note_off,0,0,0,,1,,,73,127
104114,note_on,1,0,0,,0,,,72,127
104114,note_on,0,0,0,,8,,,80,127
104313,note_off,199,0,0,,8,,,80,127
104313,note_off,0,0,0,,0,,,72,127
104314,note_on,1,0,0,,11,,,70,127
104314,note_on,0,0,0,,7,,,79,127
104513,note_off,199,0,0,,7,,,79,127
104513,note_off,0,0,0,,11,,,70,127
104514,note_on,1,0,0,,5,,,77,127
104514,note_on,0,0,0,,1,,,73,127
104714,note_on,200,0,0,,11,,,70,127
104714,note_on,0,0,0,,1,,,61,127
104913,note_off,199,0,0,,1,,,61,127
104913,note_off,0,0,0,,11,,,70,127
104913,note_off,0,0,0,,1,,,73,127
104913,note_off,0,0,0,,5,,,77,127
104914,note_on,1,0,0,,4,,,76,127
104914,note_on,0,0,0,,8,,,68,127
104914,note_on,0,0,0,,0,,,60,127
105113,note_off,199,0,0,,0,,,60,127
105113,note_off,0,0,0,,8,,,68,127
105114,note_on,1,0,0,,7,,,67,127
105114,note_on,0,0,0,,11,,,58,127
105313,note_off,199,0,0,,11,,,58,127
105313,note_off,0,0,0,,7,,,67,127
105313,note_off,0,0,0,,4,,,76,127
105314,note_on,1,0,0,,5,,,77,127
105314,note_on,0,0,0,,8,,,56,127
105314,note_on,0,0,0,,5,,,65,127
105513,note_off,199,0,0,,5,,,65,127
105513,note_off,0,0,0,,8,,,56,127
105513,note_off,0,0,0,,5,,,77,127
105514,note_on,1,0,0,,7,,,79,127
105514,note_on,0,0,0,,7,,,55,127
105514,note_on,0,0,0,,4,,,64,127
105713,note_off,199,0,0,,4,,,64,127
105713,note_off,0,0,0,,7,,,55,127
105713,note_off,0,0,0,,7,,,79,127
105714,note_on,1,0,0,,8,,,80,127
105714,note_on,0,0,0,,5,,,77,127
105714,note_on,0,0,0,,5,,,53,127
105714,note_on,0,0,0,,5,,,65,127
105913,note_off,199,0,0,,5,,,77,127
105913,note_off,0,0,0,,8,,,80,127
105914,note_on,1,0,0,,7,,,79,127
105914,note_on,0,0,0,,11,,,82,127
106113,note_off,199,0,0,,11,,,82,127
106113,note_off,0,0,0,,7,,,79,127
106114,note_on,1,0,0,,0,,,84,127
106114,note_on,0,0,0,,8,,,80,127
106313,note_off,199,0,0,,5,,,65,127
106313,note_off,0,0,0,,5,,,53,127
106314,note_on,1,0,0,,11,,,58,127
106314,note_on,0,0,0,,11,,,46,127
106513,note_off,199,0,0,,8,,,80,127
106513,note_off,0,0,0,,0,,,84,127
106514,note_on,1,0,0,,7,,,79,127
106514,note_on,0,0,0,,11,,,82,127
106713,note_off,199,0,0,,11,,,82,127
106713,note_off,0,0,0,,7,,,79,127
106714,note_on,1,0,0,,5,,,77,127
106714,note_on,0,0,0,,8,,,80,127
106913,note_off,199,0,0,,8,,,80,127
106913,note_off,0,0,0,,5,,,77,127
106913,note_off,0,0,0,,11,,,46,127
106913,note_off,0,0,0,,11,,,58,127
106914,note_on,1,0,0,,0,,,72,127
106914,note_on,0,0,0,,8,,,80,127
106914,note_on,0,0,0,,0,,,60,127
106914,note_on,0,0,0,,0,,,48,127
107113,note_off,199,0,0,,8,,,80,127
107114,note_on,1,0,0,,7,,,79,127
107313,note_off,199,0,0,,7,,,79,127
107313,note_off,0,0,0,,0,,,48,127
107313,note_off,0,0,0,,0,,,60,127
107313,note_off,0,0,0,,0,,,72,127
107314,note_on,1,0,0,,5,,,77,127
107314,note_on,0,0,0,,0,,,60,127
107513,note_off,199,0,0,,5,,,77,127
107514,note_on,1,0,0,,8,,,56,127
107514,note_on,0,0,0,,7,,,79,127
107563,note_off,49,0,0,,7,,,79,127
107564,note_on,1,0,0,,5,,,77,127
107613,note_off,49,0,0,,5,,,77,127
107614,note_on,1,0,0,,7,,,79,127
107663,note_off,49,0,0,,7,,,79,127
107664,note_on,1,0,0,,5,,,77,127
107713,note_off,49,0,0,,5,,,77,127
107713,note_off,0,0,0,,8,,,56,127
107714,note_on,1,0,0,,4,,,76,127
107714,note_on,0,0,0,,7,,,55,127
107913,note_off,199,0,0,,7,,,55,127
107913,note_off,0,0,0,,4,,,76,127
107914,note_on,1,0,0,,5,,,77,127
107914,note_on,0,0,0,,5,,,53,127
108113,note_off,199,0,0,,5,,,53,127
108113,note_off,0,0,0,,5,,,77,127
108113,note_off,0,0,0,,0,,,60,127
108114,note_on,1,0,0,,0,,,72,127
108114,note_on,0,0,0,,8,,,80,127
108114,note_on,0,0,0,,0,,,60,127
108114,note_on,0,0,0,,0,,,48,127
108313,note_off,199,0,0,,8,,,80,127
108314,note_on,1,0,0,,7,,,79,127
108513,note_off,199,0,0,,7,,,79,127
108513,note_off,0,0,0,,0,,,48,127
108513,note_off,0,0,0,,0,,,60,127
108514,note_off,1,0,0,,0,,,72,127
108514,note_on,0,0,0,,5,,,77,127
108514,note_on,0,0,0,,0,,,60,127
108713,note_off,199,0,0,,5,,,77,127
108714,note_on,1,0,0,,8,,,56,127
108714,note_on,0,0,0,,7,,,79,127
108763,note_off,49,0,0,,7,,,79,127
108764,note_on,1,0,0,,5,,,77,127
108813,note_off,49,0,0,,5,,,77,127
108814,note_on,1,0,0,,7,,,79,127
108863,note_off,49,0,0,,7,,,79,127
108864,note_on,1,0,0,,5,,,77,127
108913,note_off,49,0,0,,5,,,77,127
108913,note_off,0,0,0,,8,,,56,127
108914,note_on,1,0,0,,4,,,76,127
108914,note_on,0,0,0,,7,,,55,127
109113,note_off,199,0,0,,7,,,55,127
109113,note_off,0,0,0,,4,,,76,127
109114,note_on,1,0,0,,5,,,77,127
109114,note_on,0,0,0,,5,,,53,127
109313,note_off,199,0,0,,5,,,53,127
109313,note_off,0,0,0,,5,,,77,127
109313,note_off,0,0,0,,0,,,60,127
109314,note_on,1,0,0,,0,,,72,127
109314,note_on,0,0,0,,8,,,80,127
109314,note_on,0,0,0,,0,,,60,127
109314,note_on,0,0,0,,0,,,48,127
109513,note_off,199,0,0,,8,,,80,127
109514,note_on,1,0,0,,7,,,79,127
109713,note_off,199,0,0,,7,,,79,127
109713,note_off,0,0,0,,0,,,48,127
109713,note_off,0,0,0,,0,,,60,127
109714,note_off,1,0,0,,0,,,72,127
109714,note_on,0,0,0,,5,,,77,127
109714,note_on,0,0,0,,0,,,60,127
109913,note_off,199,0,0,,5,,,77,127
109914,note_on,1,0,0,,8,,,56,127
109914,note_on,0,0,0,,7,,,79,127
109963,note_off,49,0,0,,7,,,79,127
109964,note_on,1,0,0,,5,,,77,127
110013,note_off,49,0,0,,5,,,77,127
110014,note_on,1,0,0,,7,,,79,127
110063,note_off,49,0,0,,7,,,79,127
110064,note_on,1,0,0,,5,,,77,127
110113,note_off,49,0,0,,5,,,77,127
110113,note_off,0,0,0,,8,,,56,127
110114,note_on,1,0,0,,4,,,76,127
110114,note_on,0,0,0,,7,,,55,127
110313,note_off,199,0,0,,7,,,55,127
110313,note_off,0,0,0,,4,,,76,127
110314,note_on,1,0,0,,5,,,77,127
110314,note_on,0,0,0,,5,,,53,127
110513,note_off,199,0,0,,5,,,53,127
110513,note_off,0,0,0,,5,,,77,127
110513,note_off,0,0,0,,0,,,60,127
110514,note_on,1,0,0,,8,,,80,127
110514,note_on,0,0,0,,0,,,72,127
110514,note_on,0,0,0,,0,,,60,127
110514,note_on,0,0,0,,0,,,48,127
110713,note_off,199,0,0,,8,,,80,127
110714,note_on,1,0,0,,7,,,79,127
111114,note_off,400,0,0,,7,,,79,127
111114,note_off,0,0,0,,0,,,72,127
111314,note_off,200,0,0,,0,,,48,127
111314,note_off,0,0,0,,0,,,60,127
111716,note_on,402,0,0,,0,,,84,127
111916,note_on,200,0,0,,0,,,72,127
112115,note_off,199,0,0,,0,,,72,127
112116,note_on,1,0,0,,2,,,74,127
112315,note_off,199,0,0,,2,,,74,127
112315,note_off,0,0,0,,0,,,84,127
112316,note_on,1,0,0,,3,,,75,127
112316,note_on,0,0,0,,0,,,84,127
112515,note_off,199,0,0,,3,,,75,127
112516,note_on,1,0,0,,0,,,72,127
112715,note_off,199,0,0,,0,,,72,127
112716,note_on,1,0,0,,2,,,74,127
112915,note_off,199,0,0,,2,,,74,127
112915,note_off,0,0,0,,0,,,84,127
112916,note_on,1,0,0,,3,,,75,127
112916,note_on,0,0,0,,0,,,84,127
113115,note_off,199,0,0,,3,,,75,127
113116,note_on,1,0,0,,0,,,72,127
113315,note_off,199,0,0,,0,,,72,127
113316,note_on,1,0,0,,2,,,74,127
113515,note_off,199,0,0,,2,,,74,127
113515,note_off,0,0,0,,0,,,84,127
113516,note_on,1,0,0,,3,,,75,127
113516,note_on,0,0,0,,0,,,84,127
113715,note_off,199,0,0,,0,,,84,127
113715,note_off,0,0,0,,3,,,75,127
113716,note_on,1,0,0,,2,,,74,127
113716,note_on,0,0,0,,11,,,82,127
113915,note_off,199,0,0,,11,,,82,127
113915,note_off,0,0,0,,2,,,74,127
113916,note_on,1,0,0,,10,,,81,127
113916,note_on,0,0,0,,0,,,72,127
114115,note_off,199,0,0,,0,,,72,127
114115,note_off,0,0,0,,10,,,81,127
114116,note_on,1,0,0,,3,,,75,127
114116,note_on,0,0,0,,7,,,79,127
114316,note_on,200,0,0,,3,,,63,127
114316,note_on,0,0,0,,0,,,72,127
114515,note_off,199,0,0,,0,,,72,127
114515,note_off,0,0,0,,3,,,63,127
114515,note_off,0,0,0,,7,,,79,127
114515,note_off,0,0,0,,3,,,75,127
114516,note_on,1,0,0,,6,,,78,127
114516,note_on,0,0,0,,11,,,70,127
114516,note_on,0,0,0,,2,,,62,127
114715,note_off,199,0,0,,2,,,62,127
114715,note_off,0,0,0,,11,,,70,127
114716,note_on,1,0,0,,10,,,69,127
114716,note_on,0,0,0,,0,,,60,127
114915,note_off,199,0,0,,0,,,60,127
114915,note_off,0,0,0,,10,,,69,127
114915,note_off,0,0,0,,6,,,78,127
114916,note_on,1,0,0,,7,,,79,127
114916,note_on,0,0,0,,7,,,67,127
114916,note_on,0,0,0,,11,,,58,127
115115,note_off,199,0,0,,11,,,58,127
115115,note_off,0,0,0,,7,,,67,127
115115,note_off,0,0,0,,7,,,79,127
115116,note_on,1,0,0,,10,,,81,127
115116,note_on,0,0,0,,6,,,66,127
115116,note_on,0,0,0,,10,,,57,127
115315,note_off,199,0,0,,10,,,57,127
115315,note_off,0,0,0,,6,,,66,127
115315,note_off,0,0,0,,10,,,81,127
115316,note_on,1,0,0,,11,,,82,127
115316,note_on,0,0,0,,7,,,79,127
115316,note_on,0,0,0,,7,,,67,127
115316,note_on,0,0,0,,7,,,55,127
115515,note_off,199,0,0,,7,,,79,127
115515,note_off,0,0,0,,11,,,82,127
115516,note_on,1,0,0,,0,,,84,127
115516,note_on,0,0,0,,10,,,81,127
115715,note_off,199,0,0,,10,,,81,127
115715,note_off,0,0,0,,0,,,84,127
115716,note_on,1,0,0,,2,,,86,127
115716,note_on,0,0,0,,11,,,82,127
115915,note_off,199,0,0,,7,,,55,127
115915,note_off,0,0,0,,7,,,67,127
115916,note_on,1,0,0,,0,,,48,127
115916,note_on,0,0,0,,0,,,60,127
116115,note_off,199,0,0,,11,,,82,127
116115,note_off,0,0,0,,2,,,86,127
116116,note_on,1,0,0,,0,,,84,127
116116,note_on,0,0,0,,10,,,81,127
116315,note_off,199,0,0,,10,,,81,127
116315,note_off,0,0,0,,0,,,84,127
116316,note_on,1,0,0,,11,,,82,127
116316,note_on,0,0,0,,7,,,79,127
116515,note_off,199,0,0,,7,,,79,127
116515,note_off,0,0,0,,11,,,82,127
116515,note_off,0,0,0,,0,,,60,127
116515,note_off,0,0,0,,0,,,48,127
116516,note_on,1,0,0,,2,,,74,127
116516,note_on,0,0,0,,11,,,82,127
116516,note_on,0,0,0,,2,,,62,127
116516,note_on,0,0,0,,2,,,50,127
116715,note_off,199,0,0,,11,,,82,127
116716,note_on,1,0,0,,10,,,81,127
116915,note_off,199,0,0,,10,,,81,127
116915,note_off,0,0,0,,2,,,50,127
116915,note_off,0,0,0,,2,,,62,127
116915,note_off,0,0,0,,2,,,74,127
116916,note_on,1,0,0,,7,,,79,127
116916,note_on,0,0,0,,2,,,62,127
117115,note_off,199,0,0,,7,,,79,127
117116,note_on,1,0,0,,11,,,58,127
117116,note_on,0,0,0,,10,,,81,127
117165,note_off,49,0,0,,10,,,81,127
117166,note_on,1,0,0,,7,,,79,127
117215,note_off,49,0,0,,7,,,79,127
117216,note_on,1,0,0,,10,,,81,127
117265,note_off,49,0,0,,10,,,81,127
117266,note_on,1,0,0,,7,,,79,127
117315,note_off,49,0,0,,7,,,79,127
117315,note_off,0,0,0,,11,,,58,127
117316,note_on,1,0,0,,6,,,78,127
117316,note_on,0,0,0,,10,,,57,127
117515,note_off,199,0,0,,10,,,57,127
117515,note_off,0,0,0,,6,,,78,127
117516,note_on,1,0,0,,7,,,79,127
117516,note_on,0,0,0,,7,,,55,127
117715,note_off,199,0,0,,7,,,55,127
117715,note_off,0,0,0,,7,,,79,127
117715,note_off,0,0,0,,2,,,62,127
117716,note_on,1,0,0,,2,,,74,127
117716,note_on,0,0,0,,11,,,82,127
117716,note_on,0,0,0,,2,,,62,127
117716,note_on,0,0,0,,2,,,50,127
117915,note_off,199,0,0,,11,,,82,127
117916,note_on,1,0,0,,10,,,81,127
118115,note_off,199,0,0,,10,,,81,127
118115,note_off,0,0,0,,2,,,50,127
118115,note_off,0,0,0,,2,,,62,127
118115,note_off,0,0,0,,2,,,74,127
118116,note_on,1,0,0,,7,,,79,127
118116,note_on,0,0,0,,2,,,62,127
118315,note_off,199,0,0,,7,,,79,127
118316,note_on,1,0,0,,11,,,58,127
118316,note_on,0,0,0,,10,,,81,127
118365,note_off,49,0,0,,10,,,81,127
118366,note_on,1,0,0,,7,,,79,127
118415,note_off,49,0,0,,7,,,79,127
118416,note_on,1,0,0,,10,,,81,127
118465,note_off,49,0,0,,10,,,81,127
118466,note_on,1,0,0,,7,,,79,127
118515,note_off,49,0,0,,7,,,79,127
118515,note_off,0,0,0,,11,,,58,127
118516,note_on,1,0,0,,6,,,78,127
118516,note_on,0,0,0,,10,,,57,127
118715,note_off,199,0,0,,10,,,57,127
118715,note_off,0,0,0,,6,,,78,127
118716,note_on,1,0,0,,7,,,79,127
118716,note_on,0,0,0,,7,,,55,127
118915,note_off,199,0,0,,7,,,55,127
118915,note_off,0,0,0,,7,,,79,127
118915,note_off,0,0,0,,2,,,62,127
118916,note_on,1,0,0,,2,,,74,127
118916,note_on,0,0,0,,11,,,82,127
118916,note_on,0,0,0,,2,,,62,127
118916,note_on,0,0,0,,2,,,50,127
119115,note_off,199,0,0,,11,,,82,127
119116,note_on,1,0,0,,10,,,81,127
119315,note_off,199,0,0,,10,,,81,127
119315,note_off,0,0,0,,2,,,50,127
119315,note_off,0,0,0,,2,,,62,127
119315,note_off,0,0,0,,2,,,74,127
119316,note_on,1,0,0,,7,,,79,127
119316,note_on,0,0,0,,2,,,62,127
119515,note_off,199,0,0,,7,,,79,127
119516,note_on,1,0,0,,11,,,58,127
119516,note_on,0,0,0,,10,,,81,127
119565,note_off,49,0,0,,10,,,81,127
119566,note_on,1,0,0,,7,,,79,127
119615,note_off,49,0,0,,7,,,79,127
119616,note_on,1,0,0,,10,,,81,127
119665,note_off,49,0,0,,10,,,81,127
119666,note_on,1,0,0,,7,,,79,127
119715,note_off,49,0,0,,7,,,79,127
119715,note_off,0,0,0,,11,,,58,127
119716,note_on,1,0,0,,6,,,78,127
119716,note_on,0,0,0,,10,,,57,127
119915,note_off,199,0,0,,10,,,57,127
119915,note_off,0,0,0,,6,,,78,127
119916,note_on,1,0,0,,7,,,79,127
119916,note_on,0,0,0,,7,,,55,127
120115,note_off,199,0,0,,7,,,55,127
120115,note_off,0,0,0,,7,,,79,127
120115,note_off,0,0,0,,2,,,62,127
120116,note_on,1,0,0,,2,,,74,127
120116,note_on,0,0,0,,11,,,82,127
120116,note_on,0,0,0,,2,,,62,127
120116,note_on,0,0,0,,2,,,50,127
120315,note_off,199,0,0,,11,,,82,127
120316,note_on,1,0,0,,10,,,81,127
120716,note_off,400,0,0,,10,,,81,127
120716,note_off,0,0,0,,2,,,50,127
120716,note_off,0,0,0,,2,,,62,127
120716,note_off,0,0,0,,2,,,74,127
120717,note_on,1,0,0,,2,,,62,127
120717,note_on,0,0,0,,6,,,54,127
120916,note_off,199,0,0,,6,,,54,127
120916,note_off,0,0,0,,2,,,62,127
120917,note_on,1,0,0,,4,,,64,127
120917,note_on,0,0,0,,7,,,55,127
121116,note_off,199,0,0,,7,,,55,127
121116,note_off,0,0,0,,4,,,64,127
121117,note_on,1,0,0,,10,,,57,127
121117,note_on,0,0,0,,6,,,66,127
121316,note_off,199,0,0,,6,,,66,127
121316,note_off,0,0,0,,10,,,57,127
121317,note_on,1,0,0,,7,,,67,127
121317,note_on,0,0,0,,12,,,59,127
121516,note_off,199,0,0,,12,,,59,127
121516,note_off,0,0,0,,7,,,67,127
121517,note_on,1,0,0,,10,,,69,127
121517,note_on,0,0,0,,0,,,60,127
121716,note_off,199,0,0,,0,,,60,127
121716,note_off,0,0,0,,10,,,69,127
121717,note_on,1,0,0,,12,,,71,127
121717,note_on,0,0,0,,2,,,62,127
121916,note_off,199,0,0,,2,,,62,127
121916,note_off,0,0,0,,12,,,71,127
121917,note_on,1,0,0,,0,,,72,127
121917,note_on,0,0,0,,4,,,64,127
122116,note_off,199,0,0,,4,,,64,127
122116,note_off,0,0,0,,0,,,72,127
122117,note_on,1,0,0,,2,,,74,127
122117,note_on,0,0,0,,6,,,66,127
122316,note_off,199,0,0,,6,,,66,127
122316,note_off,0,0,0,,2,,,74,127
122317,note_on,1,0,0,,2,,,86,127
122317,note_on,0,0,0,,0,,,72,127
122317,note_on,0,0,0,,2,,,62,127
122516,note_off,199,0,0,,2,,,62,127
122516,note_off,0,0,0,,0,,,72,127
122516,note_off,0,0,0,,2,,,86,127
122517,note_on,1,0,0,,4,,,88,127
122517,note_on,0,0,0,,2,,,86,127
122517,note_on,0,0,0,,0,,,72,127
122517,note_on,0,0,0,,7,,,67,127
122517,note_on,0,0,0,,12,,,71,127
122616,note_off,99,0,0,,12,,,71,127
122616,note_off,0,0,0,,0,,,72,127
122616,note_off,0,0,0,,2,,,86,127
122616,note_off,0,0,0,,4,,,88,127
122617,note_on,1,0,0,,4,,,88,127
122617,note_on,0,0,0,,0,,,72,127
122716,note_off,99,0,0,,0,,,72,127
122716,note_off,0,0,0,,4,,,88,127
122717,note_on,1,0,0,,2,,,86,127
122717,note_on,0,0,0,,12,,,71,127
122816,note_off,99,0,0,,12,,,71,127
122816,note_off,0,0,0,,2,,,86,127
122817,note_on,1,0,0,,0,,,84,127
122817,note_on,0,0,0,,10,,,69,127
122916,note_off,99,0,0,,10,,,69,127
122916,note_off,0,0,0,,0,,,84,127
122916,note_off,0,0,0,,7,,,67,127
122917,note_on,1,0,0,,12,,,83,127
122917,note_on,0,0,0,,7,,,67,127
123116,note_off,199,0,0,,7,,,67,127
123116,note_off,0,0,0,,12,,,83,127
123117,note_on,1,0,0,,6,,,54,127
123117,note_on,0,0,0,,2,,,62,127
123316,note_off,199,0,0,,2,,,62,127
123316,note_off,0,0,0,,6,,,54,127
123317,note_on,1,0,0,,7,,,55,127
123317,note_on,0,0,0,,4,,,64,127
123516,note_off,199,0,0,,4,,,64,127
123516,note_off,0,0,0,,7,,,55,127
123517,note_on,1,0,0,,10,,,57,127
123517,note_on,0,0,0,,6,,,66,127
123716,note_off,199,0,0,,6,,,66,127
123716,note_off,0,0,0,,10,,,57,127
123717,note_on,1,0,0,,7,,,67,127
123717,note_on,0,0,0,,12,,,59,127
123916,note_off,199,0,0,,12,,,59,127
123916,note_off,0,0,0,,7,,,67,127
123917,note_on,1,0,0,,0,,,60,127
123917,note_on,0,0,0,,10,,,69,127
124116,note_off,199,0,0,,10,,,69,127
124116,note_off,0,0,0,,0,,,60,127
124117,note_on,1,0,0,,2,,,62,127
124117,note_on,0,0,0,,12,,,71,127
124316,note_off,199,0,0,,12,,,71,127
124316,note_off,0,0,0,,2,,,62,127
124317,note_on,1,0,0,,4,,,64,127
124317,note_on,0,0,0,,0,,,72,127
124516,note_off,199,0,0,,0,,,72,127
124516,note_off,0,0,0,,4,,,64,127
124517,note_on,1,0,0,,2,,,74,127
124517,note_on,0,0,0,,6,,,66,127
124716,note_off,199,0,0,,6,,,66,127
124716,note_off,0,0,0,,2,,,74,127
124717,note_on,1,0,0,,2,,,86,127
124717,note_on,0,0,0,,0,,,72,127
124717,note_on,0,0,0,,2,,,62,127
124916,note_off,199,0,0,,2,,,62,127
124916,note_off,0,0,0,,0,,,72,127
124916,note_off,0,0,0,,2,,,86,127
124917,note_on,1,0,0,,4,,,88,127
124917,note_on,0,0,0,,2,,,86,127
124917,note_on,0,0,0,,0,,,72,127
124917,note_on,0,0,0,,7,,,67,127
124917,note_on,0,0,0,,12,,,71,127
125016,note_off,99,0,0,,12,,,71,127
125016,note_off,0,0,0,,0,,,72,127
125016,note_off,0,0,0,,2,,,86,127
125016,note_off,0,0,0,,4,,,88,127
125017,note_on,1,0,0,,4,,,88,127
125017,note_on,0,0,0,,0,,,72,127
125116,note_off,99,0,0,,0,,,72,127
125116,note_off,0,0,0,,4,,,88,127
125117,note_on,1,0,0,,2,,,86,127
125117,note_on,0,0,0,,12,,,71,127
125216,note_off,99,0,0,,12,,,71,127
125216,note_off,0,0,0,,2,,,86,127
125217,note_on,1,0,0,,0,,,84,127
125217,note_on,0,0,0,,10,,,69,127
125316,note_off,99,0,0,,10,,,69,127
125316,note_off,0,0,0,,0,,,84,127
125316,note_off,0,0,0,,7,,,67,127
125317,note_on,1,0,0,,12,,,83,127
125317,note_on,0,0,0,,7,,,67,127
125516,note_off,199,0,0,,7,,,67,127
125516,note_off,0,0,0,,12,,,83,127
125517,note_on,1,0,0,,0,,,72,127
125517,note_on,0,0,0,,0,,,60,127
125517,note_on,0,0,0,,6,,,90,127
125566,note_off,49,0,0,,6,,,90,127
125567,note_on,1,0,0,,4,,,88,127
125616,note_off,49,0,0,,4,,,88,127
125617,note_on,1,0,0,,6,,,90,127
125666,note_off,49,0,0,,6,,,90,127
125667,note_on,1,0,0,,4,,,88,127
125716,note_off,49,0,0,,4,,,88,127
125716,note_off,0,0,0,,0,,,60,127
125717,note_on,1,0,0,,6,,,90,127
125717,note_on,0,0,0,,2,,,62,127
125916,note_off,199,0,0,,2,,,62,127
125916,note_off,0,0,0,,6,,,90,127
125917,note_on,1,0,0,,7,,,91,127
125917,note_on,0,0,0,,4,,,64,127
126116,note_off,199,0,0,,4,,,64,127
126116,note_off,0,0,0,,7,,,91,127
126116,note_off,0,0,0,,0,,,72,127
126117,note_on,1,0,0,,6,,,66,127
126117,note_on,0,0,0,,12,,,83,127
126166,note_off,49,0,0,,12,,,83,127
126167,note_on,1,0,0,,10,,,81,127
126216,note_off,49,0,0,,10,,,81,127
126217,note_on,1,0,0,,12,,,83,127
126266,note_off,49,0,0,,12,,,83,127
126267,note_on,1,0,0,,10,,,81,127
126316,note_off,49,0,0,,10,,,81,127
126316,note_off,0,0,0,,6,,,66,127
126317,note_on,1,0,0,,2,,,62,127
126317,note_on,0,0,0,,12,,,83,127
126366,note_off,49,0,0,,12,,,83,127
126367,note_on,1,0,0,,10,,,81,127
126416,note_off,49,0,0,,10,,,81,127
126417,note_on,1,0,0,,12,,,83,127
126466,note_off,49,0,0,,12,,,83,127
126467,note_on,1,0,0,,10,,,81,127
126516,note_off,49,0,0,,10,,,81,127
126516,note_off,0,0,0,,2,,,62,127
126517,note_on,1,0,0,,7,,,79,127
126517,note_on,0,0,0,,12,,,83,127
126517,note_on,0,0,0,,7,,,67,127
126716,note_off,199,0,0,,7,,,67,127
126716,note_off,0,0,0,,12,,,83,127
126716,note_off,0,0,0,,7,,,79,127
126717,note_on,1,0,0,,0,,,84,127
126717,note_on,0,0,0,,10,,,81,127
126717,note_on,0,0,0,,0,,,60,127
126916,note_off,199,0,0,,0,,,60,127
126916,note_off,0,0,0,,10,,,81,127
126916,note_off,0,0,0,,0,,,84,127
126917,note_on,1,0,0,,12,,,83,127
126917,note_on,0,0,0,,7,,,79,127
126917,note_on,0,0,0,,2,,,62,127
127116,note_off,199,0,0,,7,,,79,127
127116,note_off,0,0,0,,12,,,83,127
127117,note_on,1,0,0,,10,,,81,127
127117,note_on,0,0,0,,6,,,78,127
127117,note_on,0,0,0,,2,,,50,127
127316,note_off,199,0,0,,2,,,50,127
127316,note_off,0,0,0,,6,,,78,127
127316,note_off,0,0,0,,10,,,81,127
127316,note_off,0,0,0,,2,,,62,127
127317,note_on,1,0,0,,7,,,79,127
127317,note_on,0,0,0,,7,,,55,127
127717,note_off,400,0,0,,7,,,55,127
127718,note_on,1,0,0,,7,,,43,127
127917,note_off,199,0,0,,7,,,43,127
127917,note_off,0,0,0,,7,,,79,127
127918,note_on,1,0,0,,2,,,50,127
127918,note_on,0,0,0,,6,,,42,127
128117,note_off,199,0,0,,6,,,42,127
128117,note_off,0,0,0,,2,,,50,127
128118,note_on,1,0,0,,4,,,52,127
128118,note_on,0,0,0,,7,,,43,127
128317,note_off,199,0,0,,7,,,43,127
128317,note_off,0,0,0,,4,,,52,127
128318,note_on,1,0,0,,6,,,54,127
128318,note_on,0,0,0,,10,,,45,127
128517,note_off,199,0,0,,10,,,45,127
128517,note_off,0,0,0,,6,,,54,127
128518,note_on,1,0,0,,12,,,47,127
128518,note_on,0,0,0,,7,,,55,127
128717,note_off,199,0,0,,7,,,55,127
128717,note_off,0,0,0,,12,,,47,127
128718,note_on,1,0,0,,10,,,57,127
128718,note_on,0,0,0,,0,,,48,127
128917,note_off,199,0,0,,0,,,48,127
128917,note_off,0,0,0,,10,,,57,127
128918,note_on,1,0,0,,2,,,50,127
128918,note_on,0,0,0,,12,,,59,127
129117,note_off,199,0,0,,12,,,59,127
129117,note_off,0,0,0,,2,,,50,127
129118,note_on,1,0,0,,0,,,60,127
129118,note_on,0,0,0,,4,,,52,127
129317,note_off,199,0,0,,4,,,52,127
129317,note_off,0,0,0,,0,,,60,127
129318,note_on,1,0,0,,2,,,62,127
129318,note_on,0,0,0,,6,,,54,127
129517,note_off,199,0,0,,6,,,54,127
129517,note_off,0,0,0,,2,,,62,127
129518,note_on,1,0,0,,2,,,74,127
129518,note_on,0,0,0,,0,,,60,127
129518,note_on,0,0,0,,2,,,50,127
129717,note_off,199,0,0,,2,,,50,127
129717,note_off,0,0,0,,0,,,60,127
129717,note_off,0,0,0,,2,,,74,127
129718,note_on,1,0,0,,4,,,76,127
129718,note_on,0,0,0,,2,,,74,127
129718,note_on,0,0,0,,0,,,60,127
129718,note_on,0,0,0,,7,,,55,127
129718,note_on,0,0,0,,12,,,59,127
129817,note_off,99,0,0,,12,,,59,127
129817,note_off,0,0,0,,0,,,60,127
129817,note_off,0,0,0,,2,,,74,127
129817,note_off,0,0,0,,4,,,76,127
129818,note_on,1,0,0,,4,,,76,127
129818,note_on,0,0,0,,0,,,60,127
129917,note_off,99,0,0,,0,,,60,127
129917,note_off,0,0,0,,4,,,76,127
129918,note_on,1,0,0,,2,,,74,127
129918,note_on,0,0,0,,12,,,59,127
130017,note_off,99,0,0,,12,,,59,127
130017,note_off,0,0,0,,2,,,74,127
130018,note_on,1,0,0,,0,,,72,127
130018,note_on,0,0,0,,10,,,57,127
130117,note_off,99,0,0,,10,,,57,127
130117,note_off,0,0,0,,0,,,72,127
130117,note_off,0,0,0,,7,,,55,127
130118,note_on,1,0,0,,12,,,71,127
130118,note_on,0,0,0,,7,,,55,127
130317,note_off,199,0,0,,7,,,55,127
130318,note_on,1,0,0,,2,,,50,127
130318,note_on,0,0,0,,6,,,42,127
130418,note_off,100,0,0,,12,,,71,127
130517,note_off,99,0,0,,6,,,42,127
130517,note_off,0,0,0,,2,,,50,127
130518,note_on,1,0,0,,7,,,43,127
130518,note_on,0,0,0,,4,,,52,127
130717,note_off,199,0,0,,4,,,52,127
130717,note_off,0,0,0,,7,,,43,127
130718,note_on,1,0,0,,6,,,54,127
130718,note_on,0,0,0,,10,,,45,127
130917,note_off,199,0,0,,10,,,45,127
130917,note_off,0,0,0,,6,,,54,127
130918,note_on,1,0,0,,7,,,55,127
130918,note_on,0,0,0,,12,,,47,127
131117,note_off,199,0,0,,12,,,47,127
131117,note_off,0,0,0,,7,,,55,127
131118,note_on,1,0,0,,10,,,57,127
131118,note_on,0,0,0,,0,,,48,127
131317,note_off,199,0,0,,0,,,48,127
131317,note_off,0,0,0,,10,,,57,127
131318,note_on,1,0,0,,2,,,50,127
131318,note_on,0,0,0,,12,,,59,127
131517,note_off,199,0,0,,12,,,59,127
131517,note_off,0,0,0,,2,,,50,127
131518,note_on,1,0,0,,4,,,52,127
131518,note_on,0,0,0,,0,,,60,127
131717,note_off,199,0,0,,0,,,60,127
131717,note_off,0,0,0,,4,,,52,127
131718,note_on,1,0,0,,6,,,54,127
131718,note_on,0,0,0,,2,,,62,127
131917,note_off,199,0,0,,2,,,62,127
131917,note_off,0,0,0,,6,,,54,127
131918,note_on,1,0,0,,2,,,74,127
131918,note_on,0,0,0,,0,,,60,127
131918,note_on,0,0,0,,2,,,50,127
132117,note_off,199,0,0,,2,,,50,127
132117,note_off,0,0,0,,0,,,60,127
132117,note_off,0,0,0,,2,,,74,127
132118,note_on,1,0,0,,4,,,76,127
132118,note_on,0,0,0,,2,,,74,127
132118,note_on,0,0,0,,0,,,60,127
132118,note_on,0,0,0,,7,,,55,127
132118,note_on,0,0,0,,12,,,59,127
132217,note_off,99,0,0,,12,,,59,127
132217,note_off,0,0,0,,0,,,60,127
132217,note_off,0,0,0,,2,,,74,127
132217,note_off,0,0,0,,4,,,76,127
132218,note_on,1,0,0,,4,,,76,127
132218,note_on,0,0,0,,0,,,60,127
132317,note_off,99,0,0,,0,,,60,127
132317,note_off,0,0,0,,4,,,76,127
132318,note_on,1,0,0,,2,,,74,127
132318,note_on,0,0,0,,12,,,59,127
132417,note_off,99,0,0,,12,,,59,127
132417,note_off,0,0,0,,2,,,74,127
132418,note_on,1,0,0,,0,,,72,127
132418,note_on,0,0,0,,10,,,57,127
132517,note_off,99,0,0,,10,,,57,127
132517,note_off,0,0,0,,0,,,72,127
132517,note_off,0,0,0,,7,,,55,127
132518,note_on,1,0,0,,12,,,71,127
132518,note_on,0,0,0,,7,,,55,127
132717,note_off,199,0,0,,7,,,55,127
132717,note_off,0,0,0,,12,,,71,127
132718,note_on,1,0,0,,0,,,60,127
132718,note_on,0,0,0,,0,,,48,127
132718,note_on,0,0,0,,6,,,78,127
132767,note_off,49,0,0,,6,,,78,127
132768,note_on,1,0,0,,4,,,76,127
132817,note_off,49,0,0,,4,,,76,127
132818,note_on,1,0,0,,4,,,76,127
132818,note_on,0,0,0,,6,,,78,127
132867,note_off,49,0,0,,6,,,78,127
132917,note_off,50,0,0,,4,,,76,127
132917,note_off,0,0,0,,0,,,48,127
132918,note_on,1,0,0,,6,,,78,127
132918,note_on,0,0,0,,2,,,50,127
133117,note_off,199,0,0,,2,,,50,127
133117,note_off,0,0,0,,6,,,78,127
133118,note_on,1,0,0,,7,,,79,127
133118,note_on,0,0,0,,4,,,52,127
133317,note_off,199,0,0,,4,,,52,127
133317,note_off,0,0,0,,7,,,79,127
133317,note_off,0,0,0,,0,,,60,127
133318,note_on,1,0,0,,6,,,54,127
133318,note_on,0,0,0,,12,,,71,127
133367,note_off,49,0,0,,12,,,71,127
133368,note_on,1,0,0,,10,,,69,127
133417,note_off,49,0,0,,10,,,69,127
133418,note_on,1,0,0,,12,,,71,127
133467,note_off,49,0,0,,12,,,71,127
133468,note_on,1,0,0,,10,,,69,127
133517,note_off,49,0,0,,10,,,69,127
133517,note_off,0,0,0,,6,,,54,127
133518,note_on,1,0,0,,2,,,50,127
133518,note_on,0,0,0,,12,,,71,127
133567,note_off,49,0,0,,12,,,71,127
133568,note_on,1,0,0,,10,,,69,127
133617,note_off,49,0,0,,10,,,69,127
133618,note_on,1,0,0,,12,,,71,127
133667,note_off,49,0,0,,12,,,71,127
133668,note_on,1,0,0,,10,,,69,127
133717,note_off,49,0,0,,10,,,69,127
133717,note_off,0,0,0,,2,,,50,127
133718,note_on,1,0,0,,7,,,67,127
133718,note_on,0,0,0,,12,,,71,127
133718,note_on,0,0,0,,7,,,55,127
133917,note_off,199,0,0,,7,,,55,127
133917,note_off,0,0,0,,12,,,71,127
133917,note_off,0,0,0,,7,,,67,127
133918,note_on,1,0,0,,10,,,69,127
133918,note_on,0,0,0,,0,,,72,127
133918,note_on,0,0,0,,0,,,48,127
134117,note_off,199,0,0,,0,,,48,127
134117,note_off,0,0,0,,0,,,72,127
134117,note_off,0,0,0,,10,,,69,127
134118,note_on,1,0,0,,12,,,71,127
134118,note_on,0,0,0,,7,,,67,127
134118,note_on,0,0,0,,2,,,50,127
134317,note_off,199,0,0,,7,,,67,127
134317,note_off,0,0,0,,12,,,71,127
134318,note_on,1,0,0,,10,,,69,127
134318,note_on,0,0,0,,6,,,66,127
134318,note_on,0,0,0,,2,,,38,127
134517,note_off,199,0,0,,2,,,38,127
134517,note_off,0,0,0,,6,,,66,127
134517,note_off,0,0,0,,10,,,69,127
134517,note_off,0,0,0,,2,,,50,127
134518,note_on,1,0,0,,7,,,67,127
134518,note_on,0,0,0,,7,,,55,127
134717,note_off,199,0,0,,7,,,55,127
134718,note_on,1,0,0,,6,,,78,127
134718,note_on,0,0,0,,10,,,57,127
134917,note_off,199,0,0,,10,,,57,127
134917,note_off,0,0,0,,6,,,78,127
134918,note_on,1,0,0,,7,,,79,127
134918,note_on,0,0,0,,12,,,59,127
135117,note_off,199,0,0,,12,,,59,127
135117,note_off,0,0,0,,7,,,79,127
135117,note_off,0,0,0,,7,,,67,127
135118,note_on,1,0,0,,10,,,69,127
135118,note_on,0,0,0,,0,,,60,127
135317,note_off,199,0,0,,0,,,60,127
135318,note_on,1,0,0,,8,,,80,127
135318,note_on,0,0,0,,12,,,59,127
135517,note_off,199,0,0,,12,,,59,127
135517,note_off,0,0,0,,8,,,80,127
135518,note_on,1,0,0,,10,,,81,127
135518,note_on,0,0,0,,10,,,57,127
135717,note_off,199,0,0,,10,,,57,127
135717,note_off,0,0,0,,10,,,69,127
135718,note_on,1,0,0,,2,,,38,127
135917,note_off,199,0,0,,10,,,81,127
135918,note_on,1,0,0,,0,,,84,127
135918,note_on,0,0,0,,4,,,76,127
136117,note_off,199,0,0,,4,,,76,127
136117,note_off,0,0,0,,0,,,84,127
136118,note_on,1,0,0,,12,,,83,127
136118,note_on,0,0,0,,2,,,74,127
136317,note_off,199,0,0,,2,,,74,127
136317,note_off,0,0,0,,12,,,83,127
136317,note_off,0,0,0,,2,,,38,127
136318,note_on,1,0,0,,10,,,81,127
136318,note_on,0,0,0,,0,,,72,127
136318,note_on,0,0,0,,0,,,36,127
136517,note_off,199,0,0,,0,,,72,127
136517,note_off,0,0,0,,10,,,81,127
136518,note_on,1,0,0,,7,,,79,127
136518,note_on,0,0,0,,12,,,71,127
136717,note_off,199,0,0,,12,,,71,127
136717,note_off,0,0,0,,7,,,79,127
136717,note_off,0,0,0,,0,,,36,127
136718,note_on,1,0,0,,6,,,78,127
136718,note_on,0,0,0,,10,,,69,127
136718,note_on,0,0,0,,2,,,38,127
136917,note_off,199,0,0,,2,,,38,127
136917,note_off,0,0,0,,10,,,69,127
136917,note_off,0,0,0,,6,,,78,127
136918,note_on,1,0,0,,7,,,67,127
136918,note_on,0,0,0,,7,,,55,127
137117,note_off,199,0,0,,7,,,55,127
137118,note_on,1,0,0,,6,,,78,127
137118,note_on,0,0,0,,10,,,57,127
137317,note_off,199,0,0,,10,,,57,127
137317,note_off,0,0,0,,6,,,78,127
137318,note_on,1,0,0,,7,,,79,127
137318,note_on,0,0,0,,12,,,59,127
137517,note_off,199,0,0,,12,,,59,127
137517,note_off,0,0,0,,7,,,79,127
137517,note_off,0,0,0,,7,,,67,127
137518,note_on,1,0,0,,10,,,69,127
137518,note_on,0,0,0,,0,,,60,127
137717,note_off,199,0,0,,0,,,60,127
137718,note_on,1,0,0,,8,,,80,127
137718,note_on,0,0,0,,12,,,59,127
137917,note_off,199,0,0,,12,,,59,127
137917,note_off,0,0,0,,8,,,80,127
137918,note_on,1,0,0,,10,,,81,127
137918,note_on,0,0,0,,10,,,57,127
138117,note_off,199,0,0,,10,,,57,127
138117,note_off,0,0,0,,10,,,69,127
138118,note_on,1,0,0,,2,,,38,127
138317,note_off,199,0,0,,10,,,81,127
138318,note_on,1,0,0,,4,,,76,127
138318,note_on,0,0,0,,0,,,84,127
138517,note_off,199,0,0,,0,,,84,127
138517,note_off,0,0,0,,4,,,76,127
138518,note_on,1,0,0,,2,,,74,127
138518,note_on,0,0,0,,12,,,83,127
138717,note_off,199,0,0,,12,,,83,127
138717,note_off,0,0,0,,2,,,74,127
138717,note_off,0,0,0,,2,,,38,127
138718,note_on,1,0,0,,0,,,72,127
138718,note_on,0,0,0,,10,,,81,127
138718,note_on,0,0,0,,0,,,36,127
138917,note_off,199,0,0,,10,,,81,127
138917,note_off,0,0,0,,0,,,72,127
138918,note_on,1,0,0,,7,,,79,127
138918,note_on,0,0,0,,12,,,71,127
139117,note_off,199,0,0,,12,,,71,127
139117,note_off,0,0,0,,7,,,79,127
139117,note_off,0,0,0,,0,,,36,127
139118,note_on,1,0,0,,10,,,69,127
139118,note_on,0,0,0,,6,,,78,127
139118,note_on,0,0,0,,2,,,38,127
139317,note_off,199,0,0,,2,,,38,127
139317,note_off,0,0,0,,6,,,78,127
139317,note_off,0,0,0,,10,,,69,127
139318,note_on,1,0,0,,7,,,79,127
139318,note_on,0,0,0,,7,,,43,127
139517,note_off,199,0,0,,7,,,43,127
139517,note_off,0,0,0,,7,,,79,127
139518,note_on,1,0,0,,7,,,91,127
139518,note_on,0,0,0,,10,,,45,127
139717,note_off,199,0,0,,10,,,45,127
139717,note_off,0,0,0,,7,,,91,127
139718,note_on,1,0,0,,7,,,79,127
139718,note_on,0,0,0,,12,,,47,127
139917,note_off,199,0,0,,12,,,47,127
139917,note_off,0,0,0,,7,,,79,127
139918,note_on,1,0,0,,4,,,76,127
139918,note_on,0,0,0,,0,,,48,127
140117,note_off,199,0,0,,0,,,48,127
140118,note_on,1,0,0,,2,,,50,127
140317,note_off,199,0,0,,4,,,76,127
140318,note_on,1,0,0,,12,,,83,127
140318,note_on,0,0,0,,2,,,38,127
140367,note_off,49,0,0,,12,,,83,127
140368,note_on,1,0,0,,10,,,81,127
140417,note_off,49,0,0,,10,,,81,127
140418,note_on,1,0,0,,12,,,83,127
140467,note_off,49,0,0,,12,,,83,127
140468,note_on,1,0,0,,10,,,81,127
140517,note_off,49,0,0,,10,,,81,127
140517,note_off,0,0,0,,2,,,38,127
140517,note_off,0,0,0,,2,,,50,127
140518,note_on,1,0,0,,7,,,79,127
140518,note_on,0,0,0,,7,,,43,127
140717,note_off,199,0,0,,7,,,43,127
140717,note_off,0,0,0,,7,,,79,127
140718,note_on,1,0,0,,7,,,79,127
140718,note_on,0,0,0,,10,,,45,127
140917,note_off,199,0,0,,10,,,45,127
140917,note_off,0,0,0,,7,,,79,127
140918,note_on,1,0,0,,7,,,67,127
140918,note_on,0,0,0,,12,,,47,127
141117,note_off,199,0,0,,12,,,47,127
141117,note_off,0,0,0,,7,,,67,127
141118,note_on,1,0,0,,4,,,64,127
141118,note_on,0,0,0,,0,,,48,127
141317,note_off,199,0,0,,0,,,48,127
141318,note_on,1,0,0,,2,,,50,127
141418,note_off,100,0,0,,4,,,64,127
141518,note_on,100,0,0,,12,,,71,127
141518,note_on,0,0,0,,2,,,38,127
141567,note_off,49,0,0,,12,,,71,127
141568,note_on,1,0,0,,10,,,69,127
141617,note_off,49,0,0,,10,,,69,127
141618,note_on,1,0,0,,12,,,71,127
141667,note_off,49,0,0,,12,,,71,127
141668,note_on,1,0,0,,10,,,69,127
141717,note_off,49,0,0,,10,,,69,127
141717,note_off,0,0,0,,2,,,38,127
141717,note_off,0,0,0,,2,,,50,127
141718,note_on,1,0,0,,7,,,67,127
141718,note_on,0,0,0,,7,,,43,127
141917,note_off,199,0,0,,7,,,43,127
141917,note_off,0,0,0,,7,,,67,127
141918,note_on,1,0,0,,7,,,67,127
141918,note_on,0,0,0,,10,,,45,127
142117,note_off,199,0,0,,10,,,45,127
142117,note_off,0,0,0,,7,,,67,127
142118,note_on,1,0,0,,7,,,55,127
142118,note_on,0,0,0,,12,,,47,127
142317,note_off,199,0,0,,12,,,47,127
142317,note_off,0,0,0,,7,,,55,127
142318,note_on,1,0,0,,4,,,52,127
142318,note_on,0,0,0,,0,,,48,127
142517,note_off,199,0,0,,0,,,48,127
142518,note_on,1,0,0,,2,,,50,127
142618,note_off,100,0,0,,4,,,52,127
142718,note_on,100,0,0,,12,,,59,127
142718,note_on,0,0,0,,2,,,38,127
142767,note_off,49,0,0,,12,,,59,127
142768,note_on,1,0,0,,10,,,57,127
142817,note_off,49,0,0,,10,,,57,127
142818,note_on,1,0,0,,12,,,59,127
142867,note_off,49,0,0,,12,,,59,127
142868,note_on,1,0,0,,10,,,57,127
142917,note_off,49,0,0,,10,,,57,127
142917,note_off,0,0,0,,2,,,38,127
142917,note_off,0,0,0,,2,,,50,127
142934,note_on,17,0,0,,7,,,55,127
142934,note_on,0,0,0,,7,,,43,127
145122,note_off,2188,0,0,,7,,,43,127
145122,note_off,0,0,0,,7,,,55,127
148992,end_of_track,3870,1,0,,,,,,
