tick,type,time,meta,track,program,channel,pitch,tempo,note,velocity
0,copyright,0,1,0,,,,,,
0,program_change,0,0,0,6,0,,,,
0,pitchwheel,0,0,0,,0,0,,,
0,program_change,0,0,0,6,1,,,,
0,pitchwheel,0,0,0,,1,-590,,,
0,program_change,0,0,0,6,2,,,,
0,pitchwheel,0,0,0,,2,-272,,,
0,program_change,0,0,0,6,3,,,,
0,pitchwheel,0,0,0,,3,-353,,,
0,program_change,0,0,0,6,4,,,,
0,pitchwheel,0,0,0,,4,-560,,,
0,program_change,0,0,0,6,5,,,,
0,pitchwheel,0,0,0,,5,-80,,,
0,program_change,0,0,0,6,6,,,,
0,pitchwheel,0,0,0,,6,-625,,,
0,program_change,0,0,0,6,7,,,,
0,pitchwheel,0,0,0,,7,-130,,,
0,program_change,0,0,0,6,8,,,,
0,pitchwheel,0,0,0,,8,-512,,,
0,program_change,0,0,0,6,10,,,,
0,pitchwheel,0,0,0,,10,-464,,,
0,program_change,0,0,0,6,11,,,,
0,pitchwheel,0,0,0,,11,-208,,,
0,program_change,0,0,0,6,12,,,,
0,pitchwheel,0,0,0,,12,-553,,,
0,set_tempo,0,1,0,,,,500000,,
128,note_on,128,0,0,,6,,,66,127
192,note_on,64,0,0,,4,,,64,127
207,note_off,15,0,0,,6,,,66,127
256,note_on,49,0,0,,6,,,66,127
271,note_off,15,0,0,,4,,,64,127
320,note_on,49,0,0,,4,,,64,127
335,note_off,15,0,0,,6,,,66,127
639,note_off,304,0,0,,4,,,64,127
640,note_on,1,0,0,,1,,,73,127
704,note_on,64,0,0,,12,,,71,127
719,note_off,15,0,0,,1,,,73,127
768,note_on,49,0,0,,1,,,73,127
783,note_off,15,0,0,,12,,,71,127
832,note_on,49,0,0,,12,,,71,127
847,note_off,15,0,0,,1,,,73,127
1151,note_off,304,0,0,,12,,,71,127
1152,note_on,1,0,0,,6,,,78,127
1216,note_on,64,0,0,,4,,,76,127
1231,note_off,15,0,0,,6,,,78,127
1280,note_on,49,0,0,,6,,,78,127
1295,note_off,15,0,0,,4,,,76,127
1344,note_on,49,0,0,,4,,,76,127
1359,note_off,15,0,0,,6,,,78,127
1663,note_off,304,0,0,,4,,,76,127
1664,note_on,1,0,0,,12,,,83,127
1791,note_off,127,0,0,,12,,,83,127
1792,note_on,1,0,0,,10,,,81,127
1919,note_off,127,0,0,,10,,,81,127
1920,note_on,1,0,0,,8,,,80,127
2047,note_off,127,0,0,,8,,,80,127
2048,note_on,1,0,0,,6,,,78,127
2175,note_off,127,0,0,,6,,,78,127
2176,note_on,1,0,0,,6,,,54,127
2176,note_on,0,0,0,,4,,,76,127
2240,note_on,64,0,0,,4,,,52,127
2255,note_off,15,0,0,,6,,,54,127
2304,note_on,49,0,0,,6,,,54,127
2319,note_off,15,0,0,,4,,,52,127
2368,note_on,49,0,0,,4,,,52,127
2383,note_off,15,0,0,,6,,,54,127
2431,note_off,48,0,0,,4,,,76,127
2432,note_on,1,0,0,,3,,,75,127
2559,note_off,127,0,0,,3,,,75,127
2560,note_on,1,0,0,,1,,,73,127
2687,note_off,127,0,0,,1,,,73,127
2687,note_off,0,0,0,,4,,,52,127
2688,note_on,1,0,0,,1,,,61,127
2688,note_on,0,0,0,,12,,,71,127
2752,note_on,64,0,0,,12,,,59,127
2767,note_off,15,0,0,,1,,,61,127
2816,note_on,49,0,0,,1,,,61,127
2831,note_off,15,0,0,,12,,,59,127
2880,note_on,49,0,0,,12,,,59,127
2895,note_off,15,0,0,,1,,,61,127
2943,note_off,48,0,0,,12,,,71,127
2944,note_on,1,0,0,,10,,,69,127
3199,note_off,255,0,0,,10,,,69,127
3199,note_off,0,0,0,,12,,,59,127
3200,note_on,1,0,0,,4,,,64,127
3200,note_on,0,0,0,,8,,,68,127
3284,note_off,84,0,0,,8,,,68,127
3285,note_on,1,0,0,,6,,,66,127
3360,note_off,75,0,0,,4,,,64,127
3369,note_off,9,0,0,,6,,,66,127
3370,note_on,1,0,0,,4,,,64,127
3455,note_on,85,0,0,,12,,,71,127
3700,note_off,245,0,0,,4,,,64,127
3708,note_off,8,0,0,,12,,,71,127
3711,note_on,3,0,0,,12,,,71,127
3839,note_on,128,0,0,,10,,,69,127
3966,note_off,127,0,0,,10,,,69,127
3967,note_on,1,0,0,,8,,,68,127
4094,note_off,127,0,0,,8,,,68,127
4095,note_on,1,0,0,,6,,,66,127
4218,note_off,123,0,0,,12,,,71,127
4222,note_off,4,0,0,,6,,,66,127
4223,note_on,1,0,0,,4,,,64,127
4223,note_on,0,0,0,,4,,,76,127
4478,note_off,255,0,0,,4,,,64,127
4479,note_on,1,0,0,,3,,,63,127
4606,note_off,127,0,0,,3,,,63,127
4607,note_on,1,0,0,,1,,,61,127
4726,note_off,119,0,0,,4,,,76,127
4734,note_off,8,0,0,,1,,,61,127
4735,note_on,1,0,0,,12,,,59,127
4735,note_on,0,0,0,,8,,,80,127
4819,note_off,84,0,0,,8,,,80,127
4820,note_on,1,0,0,,6,,,78,127
4861,note_off,41,0,0,,12,,,59,127
4862,note_on,1,0,0,,10,,,57,127
4903,note_off,41,0,0,,6,,,78,127
4904,note_on,1,0,0,,8,,,80,127
4988,note_off,84,0,0,,8,,,80,127
4988,note_off,0,0,0,,10,,,57,127
4989,note_on,1,0,0,,8,,,56,127
4989,note_on,0,0,0,,6,,,78,127
5073,note_off,84,0,0,,6,,,78,127
5074,note_on,1,0,0,,4,,,76,127
5115,note_off,41,0,0,,8,,,56,127
5116,note_on,1,0,0,,6,,,54,127
5157,note_off,41,0,0,,4,,,76,127
5158,note_on,1,0,0,,6,,,78,127
5242,note_off,84,0,0,,6,,,78,127
5242,note_off,0,0,0,,6,,,54,127
5243,note_on,1,0,0,,4,,,52,127
5243,note_on,0,0,0,,8,,,80,127
5327,note_off,84,0,0,,8,,,80,127
5328,note_on,1,0,0,,6,,,78,127
5412,note_off,84,0,0,,6,,,78,127
5413,note_on,1,0,0,,4,,,76,127
5496,note_off,83,0,0,,4,,,52,127
5497,note_off,1,0,0,,4,,,76,127
5498,note_on,1,0,0,,12,,,71,127
5498,note_on,0,0,0,,12,,,83,127
5753,note_off,255,0,0,,12,,,71,127
5754,note_on,1,0,0,,1,,,73,127
6009,note_off,255,0,0,,1,,,73,127
6010,note_on,1,0,0,,12,,,59,127
6010,note_on,0,0,0,,3,,,75,127
6265,note_off,255,0,0,,3,,,75,127
6265,note_off,0,0,0,,12,,,59,127
6266,note_on,1,0,0,,1,,,61,127
6266,note_on,0,0,0,,4,,,76,127
6521,note_off,255,0,0,,4,,,76,127
6521,note_off,0,0,0,,1,,,61,127
6521,note_off,0,0,0,,12,,,83,127
6522,note_on,1,0,0,,3,,,63,127
6522,note_on,0,0,0,,10,,,81,127
6522,note_on,0,0,0,,6,,,78,127
6777,note_off,255,0,0,,6,,,78,127
6777,note_off,0,0,0,,10,,,81,127
6777,note_off,0,0,0,,3,,,63,127
6778,note_on,1,0,0,,4,,,64,127
6778,note_on,0,0,0,,8,,,80,127
6778,note_on,0,0,0,,4,,,76,127
7033,note_off,255,0,0,,4,,,76,127
7033,note_off,0,0,0,,8,,,80,127
7033,note_off,0,0,0,,4,,,64,127
7034,note_on,1,0,0,,6,,,66,127
7034,note_on,0,0,0,,3,,,75,127
7034,note_on,0,0,0,,6,,,78,127
7289,note_off,255,0,0,,6,,,78,127
7289,note_off,0,0,0,,3,,,75,127
7289,note_off,0,0,0,,6,,,66,127
7290,note_on,1,0,0,,8,,,68,127
7290,note_on,0,0,0,,4,,,76,127
7290,note_on,0,0,0,,6,,,78,127
7374,note_off,84,0,0,,6,,,78,127
7374,note_off,0,0,0,,4,,,76,127
7375,note_on,1,0,0,,3,,,75,127
7459,note_off,84,0,0,,3,,,75,127
7460,note_on,1,0,0,,4,,,76,127
7544,note_off,84,0,0,,4,,,76,127
7545,note_on,1,0,0,,12,,,71,127
7545,note_on,0,0,0,,12,,,83,127
7673,note_off,128,0,0,,8,,,68,127
7800,note_off,127,0,0,,12,,,71,127
7801,note_on,1,0,0,,1,,,73,127
8056,note_off,255,0,0,,1,,,73,127
8057,note_on,1,0,0,,12,,,59,127
8057,note_on,0,0,0,,3,,,75,127
8312,note_off,255,0,0,,3,,,75,127
8312,note_off,0,0,0,,12,,,59,127
8313,note_on,1,0,0,,1,,,61,127
8313,note_on,0,0,0,,4,,,76,127
8568,note_off,255,0,0,,4,,,76,127
8568,note_off,0,0,0,,1,,,61,127
8568,note_off,0,0,0,,12,,,83,127
8569,note_on,1,0,0,,3,,,63,127
8569,note_on,0,0,0,,6,,,78,127
8569,note_on,0,0,0,,10,,,81,127
8824,note_off,255,0,0,,10,,,81,127
8824,note_off,0,0,0,,6,,,78,127
8824,note_off,0,0,0,,3,,,63,127
8825,note_on,1,0,0,,4,,,64,127
8825,note_on,0,0,0,,8,,,80,127
8825,note_on,0,0,0,,4,,,76,127
9080,note_off,255,0,0,,4,,,76,127
9080,note_off,0,0,0,,8,,,80,127
9080,note_off,0,0,0,,4,,,64,127
9081,note_on,1,0,0,,6,,,66,127
9081,note_on,0,0,0,,3,,,75,127
9081,note_on,0,0,0,,6,,,78,127
9336,note_off,255,0,0,,6,,,78,127
9336,note_off,0,0,0,,3,,,75,127
9336,note_off,0,0,0,,6,,,66,127
9337,note_on,1,0,0,,8,,,68,127
9337,note_on,0,0,0,,6,,,78,127
9337,note_on,0,0,0,,4,,,76,127
9421,note_off,84,0,0,,4,,,76,127
9421,note_off,0,0,0,,6,,,78,127
9422,note_on,1,0,0,,3,,,75,127
9506,note_off,84,0,0,,3,,,75,127
9507,note_on,1,0,0,,4,,,76,127
9591,note_off,84,0,0,,4,,,76,127
9591,note_off,0,0,0,,8,,,68,127
9592,note_on,1,0,0,,10,,,69,127
9592,note_on,0,0,0,,4,,,76,127
9592,note_on,0,0,0,,1,,,73,127
9676,note_off,84,0,0,,10,,,69,127
9677,note_on,1,0,0,,8,,,68,127
9761,note_off,84,0,0,,8,,,68,127
9762,note_on,1,0,0,,10,,,69,127
9846,note_off,84,0,0,,10,,,69,127
9846,note_off,0,0,0,,1,,,73,127
9847,note_on,1,0,0,,8,,,68,127
9847,note_on,0,0,0,,12,,,71,127
10102,note_off,255,0,0,,12,,,71,127
10102,note_off,0,0,0,,8,,,68,127
10103,note_on,1,0,0,,10,,,69,127
10103,note_on,0,0,0,,1,,,73,127
10187,note_off,84,0,0,,10,,,69,127
10188,note_on,1,0,0,,8,,,68,127
10272,note_off,84,0,0,,8,,,68,127
10273,note_on,1,0,0,,10,,,69,127
10357,note_off,84,0,0,,10,,,69,127
10357,note_off,0,0,0,,1,,,73,127
10357,note_off,0,0,0,,4,,,76,127
10358,note_on,1,0,0,,8,,,68,127
10358,note_on,0,0,0,,12,,,71,127
10613,note_off,255,0,0,,12,,,71,127
10613,note_off,0,0,0,,8,,,68,127
10614,note_on,1,0,0,,6,,,66,127
10614,note_on,0,0,0,,6,,,78,127
10614,note_on,0,0,0,,3,,,75,127
10869,note_off,255,0,0,,3,,,75,127
10869,note_off,0,0,0,,6,,,78,127
10869,note_off,0,0,0,,6,,,66,127
10870,note_on,1,0,0,,4,,,64,127
10870,note_on,0,0,0,,4,,,76,127
10870,note_on,0,0,0,,8,,,80,127
11125,note_off,255,0,0,,8,,,80,127
11125,note_off,0,0,0,,4,,,76,127
11125,note_off,0,0,0,,4,,,64,127
11126,note_on,1,0,0,,12,,,59,127
11126,note_on,0,0,0,,6,,,78,127
11126,note_on,0,0,0,,10,,,81,127
11381,note_off,255,0,0,,10,,,81,127
11381,note_off,0,0,0,,6,,,78,127
11381,note_off,0,0,0,,12,,,59,127
11382,note_on,1,0,0,,4,,,52,127
11382,note_on,0,0,0,,4,,,76,127
11382,note_on,0,0,0,,8,,,80,127
11637,note_off,255,0,0,,8,,,80,127
11637,note_off,0,0,0,,4,,,76,127
11637,note_off,0,0,0,,4,,,52,127
11638,note_on,1,0,0,,10,,,69,127
11638,note_on,0,0,0,,4,,,76,127
11638,note_on,0,0,0,,1,,,73,127
11722,note_off,84,0,0,,10,,,69,127
11723,note_on,1,0,0,,8,,,68,127
11807,note_off,84,0,0,,8,,,68,127
11808,note_on,1,0,0,,10,,,69,127
11892,note_off,84,0,0,,10,,,69,127
11892,note_off,0,0,0,,1,,,73,127
11893,note_on,1,0,0,,8,,,68,127
11893,note_on,0,0,0,,12,,,71,127
12148,note_off,255,0,0,,12,,,71,127
12148,note_off,0,0,0,,8,,,68,127
12149,note_on,1,0,0,,10,,,69,127
12149,note_on,0,0,0,,1,,,73,127
12233,note_off,84,0,0,,10,,,69,127
12234,note_on,1,0,0,,8,,,68,127
12318,note_off,84,0,0,,8,,,68,127
12319,note_on,1,0,0,,10,,,69,127
12403,note_off,84,0,0,,10,,,69,127
12403,note_off,0,0,0,,1,,,73,127
12404,note_on,1,0,0,,8,,,68,127
12404,note_on,0,0,0,,12,,,71,127
12659,note_off,255,0,0,,12,,,71,127
12659,note_off,0,0,0,,8,,,68,127
12659,note_off,0,0,0,,4,,,76,127
12660,note_on,1,0,0,,6,,,66,127
12660,note_on,0,0,0,,6,,,78,127
12660,note_on,0,0,0,,3,,,75,127
12915,note_off,255,0,0,,3,,,75,127
12915,note_off,0,0,0,,6,,,78,127
12915,note_off,0,0,0,,6,,,66,127
12916,note_on,1,0,0,,4,,,64,127
12916,note_on,0,0,0,,8,,,80,127
12916,note_on,0,0,0,,4,,,76,127
13171,note_off,255,0,0,,4,,,76,127
13171,note_off,0,0,0,,8,,,80,127
13171,note_off,0,0,0,,4,,,64,127
13172,note_on,1,0,0,,12,,,59,127
13172,note_on,0,0,0,,6,,,78,127
13172,note_on,0,0,0,,10,,,81,127
13427,note_off,255,0,0,,10,,,81,127
13427,note_off,0,0,0,,6,,,78,127
13427,note_off,0,0,0,,12,,,59,127
13428,note_on,1,0,0,,4,,,52,127
13428,note_on,0,0,0,,4,,,64,127
13428,note_on,0,0,0,,8,,,80,127
13428,note_on,0,0,0,,4,,,76,127
13683,note_off,255,0,0,,4,,,76,127
13683,note_off,0,0,0,,8,,,80,127
13683,note_off,0,0,0,,4,,,52,127
13684,note_on,1,0,0,,6,,,54,127
13684,note_on,0,0,0,,6,,,78,127
13939,note_off,255,0,0,,6,,,78,127
13939,note_off,0,0,0,,6,,,54,127
13940,note_on,1,0,0,,8,,,56,127
13940,note_on,0,0,0,,4,,,76,127
14195,note_off,255,0,0,,4,,,76,127
14195,note_off,0,0,0,,8,,,56,127
14195,note_off,0,0,0,,4,,,64,127
14196,note_on,1,0,0,,11,,,58,127
14196,note_on,0,0,0,,3,,,75,127
14323,note_off,127,0,0,,3,,,75,127
14324,note_on,1,0,0,,1,,,73,127
14451,note_off,127,0,0,,1,,,73,127
14451,note_off,0,0,0,,11,,,58,127
14452,note_on,1,0,0,,12,,,59,127
14452,note_on,0,0,0,,3,,,75,127
14707,note_off,255,0,0,,3,,,75,127
14707,note_off,0,0,0,,12,,,59,127
14708,note_on,1,0,0,,11,,,70,127
14708,note_on,0,0,0,,4,,,76,127
14708,note_on,0,0,0,,1,,,73,127
14792,note_off,84,0,0,,11,,,70,127
14793,note_on,1,0,0,,12,,,71,127
14877,note_off,84,0,0,,12,,,71,127
14878,note_on,1,0,0,,11,,,70,127
14962,note_off,84,0,0,,11,,,70,127
14962,note_off,0,0,0,,1,,,73,127
14962,note_off,0,0,0,,4,,,76,127
14963,note_on,1,0,0,,12,,,71,127
14963,note_on,0,0,0,,3,,,75,127
15218,note_off,255,0,0,,3,,,75,127
15218,note_off,0,0,0,,12,,,71,127
15219,note_on,1,0,0,,11,,,70,127
15219,note_on,0,0,0,,4,,,76,127
15219,note_on,0,0,0,,1,,,73,127
15303,note_off,84,0,0,,11,,,70,127
15304,note_on,1,0,0,,12,,,71,127
15388,note_off,84,0,0,,12,,,71,127
15389,note_on,1,0,0,,11,,,70,127
15473,note_off,84,0,0,,11,,,70,127
15473,note_off,0,0,0,,1,,,73,127
15473,note_off,0,0,0,,4,,,76,127
15474,note_on,1,0,0,,12,,,71,127
15474,note_on,0,0,0,,3,,,75,127
15729,note_off,255,0,0,,3,,,75,127
15729,note_off,0,0,0,,12,,,71,127
15730,note_on,1,0,0,,4,,,64,127
15730,note_on,0,0,0,,8,,,68,127
15730,note_on,0,0,0,,8,,,80,127
15730,note_on,0,0,0,,4,,,76,127
15985,note_off,255,0,0,,4,,,76,127
15985,note_off,0,0,0,,8,,,80,127
15985,note_off,0,0,0,,8,,,68,127
15985,note_off,0,0,0,,4,,,64,127
15986,note_on,1,0,0,,6,,,66,127
15986,note_on,0,0,0,,3,,,63,127
15986,note_on,0,0,0,,6,,,78,127
16241,note_off,255,0,0,,6,,,78,127
16241,note_off,0,0,0,,3,,,63,127
16241,note_off,0,0,0,,6,,,66,127
16242,note_on,1,0,0,,4,,,64,127
16242,note_on,0,0,0,,1,,,61,127
16242,note_on,0,0,0,,11,,,82,127
16242,note_on,0,0,0,,4,,,76,127
16497,note_off,255,0,0,,4,,,76,127
16497,note_off,0,0,0,,11,,,82,127
16497,note_off,0,0,0,,1,,,61,127
16497,note_off,0,0,0,,4,,,64,127
16498,note_on,1,0,0,,12,,,59,127
16498,note_on,0,0,0,,12,,,83,127
16498,note_on,0,0,0,,3,,,75,127
16753,note_off,255,0,0,,3,,,75,127
16753,note_off,0,0,0,,12,,,83,127
16753,note_off,0,0,0,,12,,,59,127
16754,note_on,1,0,0,,11,,,70,127
16754,note_on,0,0,0,,4,,,76,127
16754,note_on,0,0,0,,1,,,73,127
16838,note_off,84,0,0,,11,,,70,127
16839,note_on,1,0,0,,12,,,71,127
16923,note_off,84,0,0,,12,,,71,127
16924,note_on,1,0,0,,11,,,70,127
17008,note_off,84,0,0,,11,,,70,127
17008,note_off,0,0,0,,1,,,73,127
17008,note_off,0,0,0,,4,,,76,127
17009,note_on,1,0,0,,12,,,71,127
17009,note_on,0,0,0,,3,,,75,127
17264,note_off,255,0,0,,3,,,75,127
17264,note_off,0,0,0,,12,,,71,127
17265,note_on,1,0,0,,11,,,70,127
17265,note_on,0,0,0,,1,,,73,127
17265,note_on,0,0,0,,4,,,76,127
17349,note_off,84,0,0,,11,,,70,127
17350,note_on,1,0,0,,12,,,71,127
17434,note_off,84,0,0,,12,,,71,127
17435,note_on,1,0,0,,11,,,70,127
17519,note_off,84,0,0,,11,,,70,127
17519,note_off,0,0,0,,4,,,76,127
17519,note_off,0,0,0,,1,,,73,127
17520,note_on,1,0,0,,12,,,71,127
17520,note_on,0,0,0,,3,,,75,127
17775,note_off,255,0,0,,3,,,75,127
17775,note_off,0,0,0,,12,,,71,127
17776,note_on,1,0,0,,8,,,68,127
17776,note_on,0,0,0,,4,,,64,127
17776,note_on,0,0,0,,8,,,80,127
17776,note_on,0,0,0,,4,,,76,127
18031,note_off,255,0,0,,4,,,76,127
18031,note_off,0,0,0,,8,,,80,127
18031,note_off,0,0,0,,4,,,64,127
18031,note_off,0,0,0,,8,,,68,127
18032,note_on,1,0,0,,3,,,63,127
18032,note_on,0,0,0,,6,,,66,127
18032,note_on,0,0,0,,6,,,78,127
18287,note_off,255,0,0,,6,,,78,127
18287,note_off,0,0,0,,6,,,66,127
18287,note_off,0,0,0,,3,,,63,127
18288,note_on,1,0,0,,4,,,64,127
18288,note_on,0,0,0,,1,,,61,127
18288,note_on,0,0,0,,11,,,82,127
18288,note_on,0,0,0,,4,,,76,127
18543,note_off,255,0,0,,4,,,76,127
18543,note_off,0,0,0,,11,,,82,127
18543,note_off,0,0,0,,1,,,61,127
18543,note_off,0,0,0,,4,,,64,127
18544,note_on,1,0,0,,12,,,59,127
18544,note_on,0,0,0,,3,,,75,127
18544,note_on,0,0,0,,12,,,83,127
18799,note_off,255,0,0,,12,,,83,127
18799,note_off,0,0,0,,3,,,75,127
18799,note_off,0,0,0,,12,,,59,127
18800,note_on,1,0,0,,3,,,63,127
18800,note_on,0,0,0,,3,,,75,127
18884,note_off,84,0,0,,3,,,75,127
18885,note_on,1,0,0,,4,,,76,127
18969,note_off,84,0,0,,4,,,76,127
18970,note_on,1,0,0,,6,,,78,127
19054,note_off,84,0,0,,6,,,78,127
19054,note_off,0,0,0,,3,,,63,127
19055,note_on,1,0,0,,4,,,64,127
19055,note_on,0,0,0,,1,,,73,127
19055,note_on,0,0,0,,4,,,76,127
19310,note_off,255,0,0,,4,,,76,127
19310,note_off,0,0,0,,1,,,73,127
19310,note_off,0,0,0,,4,,,64,127
19311,note_on,1,0,0,,5,,,65,127
19311,note_on,0,0,0,,12,,,71,127
19311,note_on,0,0,0,,3,,,75,127
19566,note_off,255,0,0,,3,,,75,127
19566,note_off,0,0,0,,12,,,71,127
19566,note_off,0,0,0,,5,,,65,127
19567,note_on,1,0,0,,6,,,66,127
19567,note_on,0,0,0,,1,,,73,127
19567,note_on,0,0,0,,11,,,70,127
19822,note_off,255,0,0,,11,,,70,127
19822,note_off,0,0,0,,1,,,73,127
19822,note_off,0,0,0,,6,,,66,127
19823,note_on,1,0,0,,3,,,63,127
19823,note_on,0,0,0,,3,,,75,127
19907,note_off,84,0,0,,3,,,75,127
19908,note_on,1,0,0,,4,,,76,127
19992,note_off,84,0,0,,4,,,76,127
19993,note_on,1,0,0,,6,,,78,127
20077,note_off,84,0,0,,6,,,78,127
20077,note_off,0,0,0,,3,,,63,127
20078,note_on,1,0,0,,4,,,64,127
20078,note_on,0,0,0,,4,,,76,127
20078,note_on,0,0,0,,1,,,73,127
20333,note_off,255,0,0,,1,,,73,127
20333,note_off,0,0,0,,4,,,76,127
20333,note_off,0,0,0,,4,,,64,127
20334,note_on,1,0,0,,5,,,65,127
20334,note_on,0,0,0,,12,,,71,127
20334,note_on,0,0,0,,3,,,75,127
20589,note_off,255,0,0,,3,,,75,127
20589,note_off,0,0,0,,12,,,71,127
20589,note_off,0,0,0,,5,,,65,127
20590,note_on,1,0,0,,6,,,42,127
20590,note_on,0,0,0,,1,,,73,127
20590,note_on,0,0,0,,11,,,70,127
20674,note_off,84,0,0,,6,,,42,127
20675,note_on,1,0,0,,11,,,46,127
20759,note_off,84,0,0,,11,,,46,127
20760,note_on,1,0,0,,1,,,49,127
20844,note_off,84,0,0,,1,,,49,127
20845,note_on,1,0,0,,6,,,54,127
20929,note_off,84,0,0,,6,,,54,127
20930,note_on,1,0,0,,11,,,58,127
21014,note_off,84,0,0,,11,,,58,127
21015,note_on,1,0,0,,1,,,61,127
21099,note_off,84,0,0,,1,,,61,127
21100,note_on,1,0,0,,6,,,66,127
21308,note_off,208,0,0,,11,,,70,127
21308,note_off,0,0,0,,1,,,73,127
21356,note_on,48,0,0,,11,,,70,127
21356,note_on,0,0,0,,4,,,76,127
21611,note_off,255,0,0,,4,,,76,127
21611,note_off,0,0,0,,11,,,70,127
21612,note_on,1,0,0,,3,,,75,127
21612,note_on,0,0,0,,12,,,71,127
21867,note_off,255,0,0,,12,,,71,127
21867,note_off,0,0,0,,3,,,75,127
21868,note_on,1,0,0,,1,,,73,127
21868,note_on,0,0,0,,11,,,70,127
22123,note_off,255,0,0,,11,,,70,127
22123,note_off,0,0,0,,1,,,73,127
22124,note_on,1,0,0,,12,,,71,127
22124,note_on,0,0,0,,3,,,75,127
22379,note_off,255,0,0,,3,,,75,127
22379,note_off,0,0,0,,12,,,71,127
22380,note_on,1,0,0,,5,,,77,127
22380,note_on,0,0,0,,8,,,68,127
22635,note_off,255,0,0,,8,,,68,127
22635,note_off,0,0,0,,5,,,77,127
22635,note_off,0,0,0,,6,,,66,127
22636,note_on,1,0,0,,6,,,42,127
22636,note_on,0,0,0,,6,,,78,127
22636,note_on,0,0,0,,11,,,70,127
22720,note_off,84,0,0,,6,,,42,127
22721,note_on,1,0,0,,11,,,46,127
22805,note_off,84,0,0,,11,,,46,127
22806,note_on,1,0,0,,1,,,49,127
22890,note_off,84,0,0,,1,,,49,127
22891,note_on,1,0,0,,6,,,54,127
22975,note_off,84,0,0,,6,,,54,127
22976,note_on,1,0,0,,11,,,58,127
23060,note_off,84,0,0,,11,,,58,127
23061,note_on,1,0,0,,1,,,61,127
23145,note_off,84,0,0,,1,,,61,127
23146,note_on,1,0,0,,6,,,66,127
23274,note_off,128,0,0,,11,,,70,127
23274,note_off,0,0,0,,6,,,78,127
23402,note_on,128,0,0,,11,,,70,127
23402,note_on,0,0,0,,4,,,76,127
23657,note_off,255,0,0,,4,,,76,127
23657,note_off,0,0,0,,11,,,70,127
23658,note_on,1,0,0,,3,,,75,127
23658,note_on,0,0,0,,12,,,71,127
23913,note_off,255,0,0,,12,,,71,127
23913,note_off,0,0,0,,3,,,75,127
23914,note_on,1,0,0,,1,,,73,127
23914,note_on,0,0,0,,11,,,70,127
24169,note_off,255,0,0,,11,,,70,127
24169,note_off,0,0,0,,1,,,73,127
24170,note_on,1,0,0,,3,,,75,127
24170,note_on,0,0,0,,12,,,71,127
24425,note_off,255,0,0,,12,,,71,127
24425,note_off,0,0,0,,3,,,75,127
24426,note_on,1,0,0,,6,,,78,127
24426,note_on,0,0,0,,8,,,68,127
24489,note_off,63,0,0,,6,,,78,127
24490,note_on,1,0,0,,5,,,77,127
24553,note_off,63,0,0,,5,,,77,127
24554,note_on,1,0,0,,3,,,75,127
24617,note_off,63,0,0,,3,,,75,127
24618,note_on,1,0,0,,5,,,77,127
24679,note_off,61,0,0,,8,,,68,127
24680,note_off,1,0,0,,5,,,77,127
24680,note_off,0,0,0,,6,,,66,127
24681,note_on,1,0,0,,6,,,66,127
24681,note_on,0,0,0,,6,,,78,127
24681,note_on,0,0,0,,11,,,70,127
24936,note_off,255,0,0,,6,,,78,127
24936,note_off,0,0,0,,6,,,66,127
24937,note_on,1,0,0,,4,,,64,127
24937,note_on,0,0,0,,8,,,80,127
25188,note_off,251,0,0,,11,,,70,127
25192,note_off,4,0,0,,4,,,64,127
25193,note_on,1,0,0,,3,,,63,127
25193,note_on,0,0,0,,12,,,71,127
25444,note_off,251,0,0,,8,,,80,127
25448,note_off,4,0,0,,3,,,63,127
25449,note_on,1,0,0,,1,,,61,127
25449,note_on,0,0,0,,6,,,78,127
25576,note_off,127,0,0,,6,,,78,127
25577,note_off,1,0,0,,12,,,71,127
25577,note_on,0,0,0,,4,,,76,127
25704,note_off,127,0,0,,4,,,76,127
25704,note_off,0,0,0,,1,,,61,127
25705,note_on,1,0,0,,12,,,59,127
25705,note_on,0,0,0,,3,,,75,127
25789,note_off,84,0,0,,3,,,75,127
25790,note_on,1,0,0,,4,,,76,127
25874,note_off,84,0,0,,4,,,76,127
25875,note_on,1,0,0,,6,,,78,127
25959,note_off,84,0,0,,6,,,78,127
25959,note_off,0,0,0,,12,,,59,127
25960,note_on,1,0,0,,4,,,52,127
25960,note_on,0,0,0,,4,,,76,127
26044,note_off,84,0,0,,4,,,76,127
26045,note_on,1,0,0,,3,,,75,127
26129,note_off,84,0,0,,3,,,75,127
26130,note_on,1,0,0,,1,,,73,127
26214,note_off,84,0,0,,1,,,73,127
26214,note_off,0,0,0,,4,,,52,127
26215,note_on,1,0,0,,6,,,54,127
26215,note_on,0,0,0,,12,,,71,127
26215,note_on,0,0,0,,3,,,75,127
26470,note_off,255,0,0,,3,,,75,127
26470,note_off,0,0,0,,12,,,71,127
26470,note_off,0,0,0,,6,,,54,127
26471,note_on,1,0,0,,6,,,42,127
26471,note_on,0,0,0,,3,,,75,127
26471,note_on,0,0,0,,11,,,70,127
26534,note_off,63,0,0,,3,,,75,127
26535,note_on,1,0,0,,1,,,73,127
26591,note_off,56,0,0,,11,,,70,127
26598,note_off,7,0,0,,1,,,73,127
26599,note_on,1,0,0,,12,,,71,127
26662,note_off,63,0,0,,12,,,71,127
26663,note_on,1,0,0,,1,,,73,127
26726,note_off,63,0,0,,1,,,73,127
26726,note_off,0,0,0,,6,,,42,127
26727,note_on,1,0,0,,12,,,59,127
26727,note_on,0,0,0,,12,,,47,127
26727,note_on,0,0,0,,12,,,71,127
26811,note_off,84,0,0,,12,,,71,127
26812,note_on,1,0,0,,12,,,83,127
26896,note_off,84,0,0,,12,,,83,127
26897,note_on,1,0,0,,6,,,78,127
26981,note_off,84,0,0,,6,,,78,127
26982,note_on,1,0,0,,3,,,75,127
27066,note_off,84,0,0,,3,,,75,127
27067,note_on,1,0,0,,12,,,71,127
27151,note_off,84,0,0,,12,,,71,127
27152,note_on,1,0,0,,6,,,66,127
27236,note_off,84,0,0,,6,,,66,127
27237,note_on,1,0,0,,3,,,63,127
27492,note_off,255,0,0,,3,,,63,127
27492,note_off,0,0,0,,12,,,47,127
27493,note_on,1,0,0,,4,,,52,127
27493,note_on,0,0,0,,4,,,64,127
27493,note_on,0,0,0,,11,,,70,127
27748,note_off,255,0,0,,11,,,70,127
27748,note_off,0,0,0,,4,,,64,127
27748,note_off,0,0,0,,4,,,52,127
27748,note_off,0,0,0,,12,,,59,127
27749,note_on,1,0,0,,3,,,51,127
27749,note_on,0,0,0,,12,,,59,127
27749,note_on,0,0,0,,12,,,71,127
27833,note_off,84,0,0,,12,,,71,127
27834,note_on,1,0,0,,12,,,83,127
27918,note_off,84,0,0,,12,,,83,127
27919,note_on,1,0,0,,6,,,78,127
28003,note_off,84,0,0,,6,,,78,127
28003,note_off,0,0,0,,3,,,51,127
28004,note_on,1,0,0,,12,,,47,127
28004,note_on,0,0,0,,3,,,75,127
28088,note_off,84,0,0,,3,,,75,127
28089,note_on,1,0,0,,12,,,71,127
28173,note_off,84,0,0,,12,,,71,127
28174,note_on,1,0,0,,6,,,66,127
28258,note_off,84,0,0,,6,,,66,127
28259,note_on,1,0,0,,3,,,63,127
28514,note_off,255,0,0,,3,,,63,127
28514,note_off,0,0,0,,12,,,47,127
28515,note_on,1,0,0,,4,,,52,127
28515,note_on,0,0,0,,4,,,64,127
28515,note_on,0,0,0,,11,,,70,127
28770,note_off,255,0,0,,11,,,70,127
28770,note_off,0,0,0,,4,,,64,127
28770,note_off,0,0,0,,4,,,52,127
28770,note_off,0,0,0,,12,,,59,127
28771,note_on,1,0,0,,3,,,51,127
28771,note_on,0,0,0,,12,,,59,127
28771,note_on,0,0,0,,12,,,71,127
29026,note_off,255,0,0,,12,,,71,127
29026,note_off,0,0,0,,12,,,59,127
29026,note_off,0,0,0,,3,,,51,127
29027,note_on,1,0,0,,1,,,61,127
29027,note_on,0,0,0,,4,,,52,127
29027,note_on,0,0,0,,1,,,73,127
29111,note_off,84,0,0,,1,,,73,127
29112,note_on,1,0,0,,3,,,75,127
29196,note_off,84,0,0,,3,,,75,127
29197,note_on,1,0,0,,4,,,76,127
29281,note_off,84,0,0,,4,,,76,127
29281,note_off,0,0,0,,4,,,52,127
29281,note_off,0,0,0,,1,,,61,127
29282,note_on,1,0,0,,12,,,59,127
29282,note_on,0,0,0,,6,,,54,127
29282,note_on,0,0,0,,3,,,63,127
29282,note_on,0,0,0,,3,,,75,127
29537,note_off,255,0,0,,3,,,75,127
29537,note_off,0,0,0,,3,,,63,127
29537,note_off,0,0,0,,12,,,59,127
29538,note_on,1,0,0,,1,,,61,127
29538,note_on,0,0,0,,11,,,58,127
29538,note_on,0,0,0,,1,,,73,127
29789,note_off,251,0,0,,6,,,54,127
29793,note_off,4,0,0,,1,,,73,127
29793,note_off,0,0,0,,11,,,58,127
29793,note_off,0,0,0,,1,,,61,127
29794,note_on,1,0,0,,12,,,59,127
29794,note_on,0,0,0,,12,,,47,127
29794,note_on,0,0,0,,12,,,71,127
29986,note_off,192,0,0,,12,,,71,127
30049,note_off,63,0,0,,12,,,47,127
30049,note_off,0,0,0,,12,,,59,127
30050,note_on,1,0,0,,4,,,64,127
30050,note_on,0,0,0,,6,,,78,127
30050,note_on,0,0,0,,11,,,70,127
30134,note_off,84,0,0,,4,,,64,127
30135,note_on,1,0,0,,3,,,63,127
30219,note_off,84,0,0,,3,,,63,127
30220,note_on,1,0,0,,1,,,61,127
30304,note_off,84,0,0,,1,,,61,127
30304,note_off,0,0,0,,11,,,70,127
30305,note_on,1,0,0,,12,,,59,127
30305,note_on,0,0,0,,12,,,71,127
30556,note_off,251,0,0,,6,,,78,127
30560,note_off,4,0,0,,12,,,71,127
30560,note_off,0,0,0,,12,,,59,127
30561,note_on,1,0,0,,6,,,54,127
30561,note_on,0,0,0,,4,,,76,127
30645,note_off,84,0,0,,4,,,76,127
30646,note_on,1,0,0,,3,,,75,127
30730,note_off,84,0,0,,3,,,75,127
30731,note_on,1,0,0,,1,,,73,127
30815,note_off,84,0,0,,1,,,73,127
30815,note_off,0,0,0,,6,,,54,127
30816,note_on,1,0,0,,12,,,47,127
30816,note_on,0,0,0,,12,,,71,127
31071,note_off,255,0,0,,12,,,71,127
31071,note_off,0,0,0,,12,,,47,127
31072,note_on,1,0,0,,4,,,64,127
31072,note_on,0,0,0,,6,,,78,127
31072,note_on,0,0,0,,11,,,70,127
31156,note_off,84,0,0,,4,,,64,127
31157,note_on,1,0,0,,3,,,63,127
31241,note_off,84,0,0,,3,,,63,127
31242,note_on,1,0,0,,1,,,61,127
31326,note_off,84,0,0,,1,,,61,127
31326,note_off,0,0,0,,11,,,70,127
31327,note_on,1,0,0,,12,,,59,127
31327,note_on,0,0,0,,12,,,71,127
31578,note_off,251,0,0,,6,,,78,127
31582,note_off,4,0,0,,12,,,71,127
31582,note_off,0,0,0,,12,,,59,127
31583,note_on,1,0,0,,6,,,54,127
31583,note_on,0,0,0,,4,,,76,127
31667,note_off,84,0,0,,4,,,76,127
31668,note_on,1,0,0,,3,,,75,127
31752,note_off,84,0,0,,3,,,75,127
31753,note_on,1,0,0,,1,,,73,127
31837,note_off,84,0,0,,1,,,73,127
31837,note_off,0,0,0,,6,,,54,127
31838,note_on,1,0,0,,12,,,47,127
31838,note_on,0,0,0,,12,,,71,127
32093,note_off,255,0,0,,12,,,71,127
32093,note_off,0,0,0,,12,,,47,127
32094,note_on,1,0,0,,3,,,51,127
32094,note_on,0,0,0,,12,,,83,127
32349,note_off,255,0,0,,12,,,83,127
32349,note_off,0,0,0,,3,,,51,127
32350,note_on,1,0,0,,4,,,52,127
32350,note_on,0,0,0,,8,,,80,127
32350,note_on,0,0,0,,11,,,82,127
32434,note_off,84,0,0,,11,,,82,127
32434,note_off,0,0,0,,8,,,80,127
32435,note_on,1,0,0,,6,,,78,127
32519,note_off,84,0,0,,6,,,78,127
32520,note_on,1,0,0,,4,,,76,127
32604,note_off,84,0,0,,4,,,76,127
32604,note_off,0,0,0,,4,,,52,127
32605,note_on,1,0,0,,4,,,40,127
32605,note_on,0,0,0,,3,,,75,127
32689,note_off,84,0,0,,3,,,75,127
32690,note_on,1,0,0,,1,,,73,127
32774,note_off,84,0,0,,1,,,73,127
32775,note_on,1,0,0,,12,,,71,127
32859,note_off,84,0,0,,12,,,71,127
32859,note_off,0,0,0,,4,,,40,127
32860,note_on,1,0,0,,6,,,42,127
32860,note_on,0,0,0,,6,,,54,127
32860,note_on,0,0,0,,11,,,70,127
32944,note_off,84,0,0,,11,,,70,127
32945,note_on,1,0,0,,8,,,68,127
33029,note_off,84,0,0,,8,,,68,127
33030,note_on,1,0,0,,6,,,66,127
33114,note_off,84,0,0,,6,,,66,127
33114,note_off,0,0,0,,6,,,54,127
33114,note_off,0,0,0,,6,,,42,127
33115,note_on,1,0,0,,4,,,40,127
33115,note_on,0,0,0,,4,,,52,127
33115,note_on,0,0,0,,4,,,76,127
33199,note_off,84,0,0,,4,,,76,127
33200,note_on,1,0,0,,3,,,75,127
33284,note_off,84,0,0,,3,,,75,127
33285,note_on,1,0,0,,1,,,73,127
33369,note_off,84,0,0,,1,,,73,127
33369,note_off,0,0,0,,4,,,52,127
33369,note_off,0,0,0,,4,,,40,127
33370,note_on,1,0,0,,6,,,54,127
33370,note_on,0,0,0,,6,,,42,127
33370,note_on,0,0,0,,3,,,75,127
33370,note_on,0,0,0,,12,,,71,127
33625,note_off,255,0,0,,12,,,71,127
33625,note_off,0,0,0,,3,,,75,127
33625,note_off,0,0,0,,6,,,42,127
33625,note_off,0,0,0,,6,,,54,127
33626,note_on,1,0,0,,6,,,42,127
33626,note_on,0,0,0,,1,,,73,127
33626,note_on,0,0,0,,11,,,70,127
33881,note_off,255,0,0,,11,,,70,127
33881,note_off,0,0,0,,1,,,73,127
33881,note_off,0,0,0,,6,,,42,127
33882,note_on,1,0,0,,12,,,47,127
33882,note_on,0,0,0,,12,,,71,127
34137,note_off,255,0,0,,12,,,71,127
34137,note_off,0,0,0,,12,,,47,127
34138,note_on,1,0,0,,4,,,64,127
34138,note_on,0,0,0,,6,,,78,127
34138,note_on,0,0,0,,11,,,70,127
34222,note_off,84,0,0,,4,,,64,127
34223,note_on,1,0,0,,3,,,63,127
34307,note_off,84,0,0,,3,,,63,127
34308,note_on,1,0,0,,1,,,61,127
34392,note_off,84,0,0,,1,,,61,127
34392,note_off,0,0,0,,11,,,70,127
34392,note_off,0,0,0,,6,,,78,127
34393,note_on,1,0,0,,12,,,59,127
34393,note_on,0,0,0,,12,,,71,127
34648,note_off,255,0,0,,12,,,71,127
34648,note_off,0,0,0,,12,,,59,127
34649,note_on,1,0,0,,6,,,54,127
34649,note_on,0,0,0,,4,,,76,127
34733,note_off,84,0,0,,4,,,76,127
34734,note_on,1,0,0,,3,,,75,127
34818,note_off,84,0,0,,3,,,75,127
34819,note_on,1,0,0,,1,,,73,127
34903,note_off,84,0,0,,1,,,73,127
34903,note_off,0,0,0,,6,,,54,127
34904,note_on,1,0,0,,12,,,47,127
34904,note_on,0,0,0,,12,,,71,127
35159,note_off,255,0,0,,12,,,71,127
35159,note_off,0,0,0,,12,,,47,127
35160,note_on,1,0,0,,4,,,64,127
35160,note_on,0,0,0,,6,,,78,127
35160,note_on,0,0,0,,11,,,70,127
35244,note_off,84,0,0,,4,,,64,127
35245,note_on,1,0,0,,3,,,63,127
35329,note_off,84,0,0,,3,,,63,127
35330,note_on,1,0,0,,1,,,61,127
35414,note_off,84,0,0,,1,,,61,127
35414,note_off,0,0,0,,11,,,70,127
35414,note_off,0,0,0,,6,,,78,127
35415,note_on,1,0,0,,12,,,59,127
35415,note_on,0,0,0,,12,,,71,127
35670,note_off,255,0,0,,12,,,71,127
35670,note_off,0,0,0,,12,,,59,127
35671,note_on,1,0,0,,6,,,54,127
35671,note_on,0,0,0,,4,,,76,127
35755,note_off,84,0,0,,4,,,76,127
35756,note_on,1,0,0,,3,,,75,127
35840,note_off,84,0,0,,3,,,75,127
35841,note_on,1,0,0,,1,,,73,127
35925,note_off,84,0,0,,1,,,73,127
35925,note_off,0,0,0,,6,,,54,127
35926,note_on,1,0,0,,12,,,47,127
35926,note_on,0,0,0,,12,,,71,127
36181,note_off,255,0,0,,12,,,71,127
36181,note_off,0,0,0,,12,,,47,127
36182,note_on,1,0,0,,3,,,51,127
36182,note_on,0,0,0,,12,,,83,127
36437,note_off,255,0,0,,12,,,83,127
36437,note_off,0,0,0,,3,,,51,127
36438,note_on,1,0,0,,4,,,52,127
36438,note_on,0,0,0,,11,,,82,127
36438,note_on,0,0,0,,8,,,80,127
36522,note_off,84,0,0,,8,,,80,127
36522,note_off,0,0,0,,11,,,82,127
36523,note_on,1,0,0,,6,,,78,127
36607,note_off,84,0,0,,6,,,78,127
36608,note_on,1,0,0,,4,,,76,127
36692,note_off,84,0,0,,4,,,76,127
36693,note_on,1,0,0,,4,,,40,127
36693,note_on,0,0,0,,3,,,75,127
36777,note_off,84,0,0,,3,,,75,127
36778,note_on,1,0,0,,1,,,73,127
36862,note_off,84,0,0,,1,,,73,127
36863,note_on,1,0,0,,12,,,71,127
36943,note_off,80,0,0,,4,,,52,127
36947,note_off,4,0,0,,12,,,71,127
36947,note_off,0,0,0,,4,,,40,127
36948,note_on,1,0,0,,6,,,42,127
36948,note_on,0,0,0,,6,,,54,127
36948,note_on,0,0,0,,11,,,70,127
37032,note_off,84,0,0,,11,,,70,127
37033,note_on,1,0,0,,8,,,68,127
37117,note_off,84,0,0,,8,,,68,127
37118,note_on,1,0,0,,6,,,66,127
37202,note_off,84,0,0,,6,,,66,127
37202,note_off,0,0,0,,6,,,54,127
37202,note_off,0,0,0,,6,,,42,127
37203,note_on,1,0,0,,4,,,40,127
37203,note_on,0,0,0,,4,,,52,127
37203,note_on,0,0,0,,4,,,76,127
37287,note_off,84,0,0,,4,,,76,127
37288,note_on,1,0,0,,3,,,75,127
37372,note_off,84,0,0,,3,,,75,127
37373,note_on,1,0,0,,1,,,73,127
37457,note_off,84,0,0,,1,,,73,127
37457,note_off,0,0,0,,4,,,52,127
37457,note_off,0,0,0,,4,,,40,127
37458,note_on,1,0,0,,6,,,54,127
37458,note_on,0,0,0,,6,,,42,127
37458,note_on,0,0,0,,3,,,75,127
37458,note_on,0,0,0,,12,,,71,127
37713,note_off,255,0,0,,12,,,71,127
37713,note_off,0,0,0,,3,,,75,127
37713,note_off,0,0,0,,6,,,42,127
37713,note_off,0,0,0,,6,,,54,127
37714,note_on,1,0,0,,6,,,42,127
37714,note_on,0,0,0,,11,,,70,127
37714,note_on,0,0,0,,1,,,73,127
37969,note_off,255,0,0,,1,,,73,127
37969,note_off,0,0,0,,11,,,70,127
37969,note_off,0,0,0,,6,,,42,127
37970,note_on,1,0,0,,12,,,47,127
37970,note_on,0,0,0,,12,,,71,127
38225,note_off,255,0,0,,12,,,71,127
38225,note_off,0,0,0,,12,,,47,127
38226,note_on,1,0,0,,3,,,51,127
38226,note_on,0,0,0,,12,,,71,127
38481,note_off,255,0,0,,12,,,71,127
38481,note_off,0,0,0,,3,,,51,127
38482,note_on,1,0,0,,4,,,52,127
38482,note_on,0,0,0,,8,,,68,127
38482,note_on,0,0,0,,11,,,70,127
38566,note_off,84,0,0,,11,,,70,127
38566,note_off,0,0,0,,8,,,68,127
38567,note_on,1,0,0,,6,,,66,127
38651,note_off,84,0,0,,6,,,66,127
38652,note_on,1,0,0,,4,,,64,127
38736,note_off,84,0,0,,4,,,64,127
38737,note_on,1,0,0,,4,,,40,127
38737,note_on,0,0,0,,3,,,63,127
38821,note_off,84,0,0,,3,,,63,127
38822,note_on,1,0,0,,1,,,61,127
38865,note_off,43,0,0,,4,,,52,127
38906,note_off,41,0,0,,1,,,61,127
38907,note_on,1,0,0,,12,,,59,127
38991,note_off,84,0,0,,12,,,59,127
38991,note_off,0,0,0,,4,,,40,127
38992,note_on,1,0,0,,6,,,42,127
38992,note_on,0,0,0,,6,,,54,127
38992,note_on,0,0,0,,11,,,58,127
39076,note_off,84,0,0,,11,,,58,127
39077,note_on,1,0,0,,8,,,56,127
39152,note_off,75,0,0,,6,,,54,127
39161,note_off,9,0,0,,8,,,56,127
39162,note_on,1,0,0,,6,,,54,127
39246,note_off,84,0,0,,6,,,54,127
39246,note_off,0,0,0,,6,,,42,127
39247,note_on,1,0,0,,4,,,40,127
39247,note_on,0,0,0,,4,,,52,127
39247,note_on,0,0,0,,4,,,64,127
39331,note_off,84,0,0,,4,,,64,127
39332,note_on,1,0,0,,3,,,63,127
39416,note_off,84,0,0,,3,,,63,127
39417,note_on,1,0,0,,1,,,61,127
39501,note_off,84,0,0,,1,,,61,127
39501,note_off,0,0,0,,4,,,52,127
39501,note_off,0,0,0,,4,,,40,127
39502,note_on,1,0,0,,6,,,54,127
39502,note_on,0,0,0,,6,,,42,127
39502,note_on,0,0,0,,3,,,63,127
39502,note_on,0,0,0,,12,,,59,127
39757,note_off,255,0,0,,12,,,59,127
39757,note_off,0,0,0,,3,,,63,127
39757,note_off,0,0,0,,6,,,42,127
39757,note_off,0,0,0,,6,,,54,127
39758,note_on,1,0,0,,6,,,42,127
39758,note_on,0,0,0,,1,,,61,127
39758,note_on,0,0,0,,11,,,58,127
40013,note_off,255,0,0,,11,,,58,127
40013,note_off,0,0,0,,1,,,61,127
40013,note_off,0,0,0,,6,,,42,127
40014,note_on,1,0,0,,12,,,47,127
40014,note_on,0,0,0,,11,,,58,127
40269,note_off,255,0,0,,11,,,58,127
40270,note_on,1,0,0,,12,,,59,127
40907,note_off,637,0,0,,12,,,47,127
41036,note_off,129,0,0,,12,,,59,127
41037,note_on,1,0,0,,8,,,44,127
41037,note_on,0,0,0,,8,,,80,127
41121,note_off,84,0,0,,8,,,44,127
41122,note_on,1,0,0,,0,,,48,127
41206,note_off,84,0,0,,0,,,48,127
41207,note_on,1,0,0,,3,,,51,127
41291,note_off,84,0,0,,3,,,51,127
41292,note_on,1,0,0,,8,,,56,127
41376,note_off,84,0,0,,8,,,56,127
41377,note_on,1,0,0,,0,,,60,127
41461,note_off,84,0,0,,0,,,60,127
41462,note_on,1,0,0,,3,,,63,127
41546,note_off,84,0,0,,3,,,63,127
41547,note_on,1,0,0,,8,,,68,127
41675,note_off,128,0,0,,8,,,80,127
41803,note_on,128,0,0,,0,,,72,127
41803,note_on,0,0,0,,6,,,78,127
42058,note_off,255,0,0,,6,,,78,127
42058,note_off,0,0,0,,0,,,72,127
42059,note_on,1,0,0,,1,,,73,127
42059,note_on,0,0,0,,4,,,76,127
42059,note_on,0,0,0,,8,,,80,127
42314,note_off,255,0,0,,4,,,76,127
42314,note_off,0,0,0,,1,,,73,127
42315,note_on,1,0,0,,3,,,75,127
42315,note_on,0,0,0,,0,,,72,127
42570,note_off,255,0,0,,0,,,72,127
42570,note_off,0,0,0,,3,,,75,127
42571,note_on,1,0,0,,4,,,76,127
42571,note_on,0,0,0,,1,,,73,127
42819,note_off,248,0,0,,8,,,80,127
42826,note_off,7,0,0,,1,,,73,127
42826,note_off,0,0,0,,4,,,76,127
42826,note_off,0,0,0,,8,,,68,127
42827,note_on,1,0,0,,10,,,69,127
42827,note_on,0,0,0,,1,,,73,127
42827,note_on,0,0,0,,6,,,78,127
43082,note_off,255,0,0,,6,,,78,127
43082,note_off,0,0,0,,1,,,73,127
43082,note_off,0,0,0,,10,,,69,127
43083,note_on,1,0,0,,8,,,44,127
43083,note_on,0,0,0,,0,,,72,127
43083,note_on,0,0,0,,8,,,80,127
43167,note_off,84,0,0,,8,,,44,127
43168,note_on,1,0,0,,0,,,48,127
43252,note_off,84,0,0,,0,,,48,127
43253,note_on,1,0,0,,3,,,51,127
43337,note_off,84,0,0,,3,,,51,127
43338,note_on,1,0,0,,8,,,56,127
43422,note_off,84,0,0,,8,,,56,127
43423,note_on,1,0,0,,0,,,60,127
43507,note_off,84,0,0,,0,,,60,127
43508,note_on,1,0,0,,3,,,63,127
43588,note_off,80,0,0,,0,,,72,127
43592,note_off,4,0,0,,3,,,63,127
43593,note_on,1,0,0,,8,,,68,127
43721,note_off,128,0,0,,8,,,80,127
43849,note_on,128,0,0,,0,,,72,127
43849,note_on,0,0,0,,6,,,78,127
44104,note_off,255,0,0,,6,,,78,127
44104,note_off,0,0,0,,0,,,72,127
44105,note_on,1,0,0,,1,,,73,127
44105,note_on,0,0,0,,8,,,80,127
44105,note_on,0,0,0,,4,,,76,127
44360,note_off,255,0,0,,4,,,76,127
44360,note_off,0,0,0,,1,,,73,127
44361,note_on,1,0,0,,0,,,72,127
44361,note_on,0,0,0,,3,,,75,127
44616,note_off,255,0,0,,3,,,75,127
44616,note_off,0,0,0,,0,,,72,127
44617,note_on,1,0,0,,4,,,76,127
44617,note_on,0,0,0,,1,,,73,127
44870,note_off,253,0,0,,8,,,80,127
44871,note_off,1,0,0,,1,,,73,127
44871,note_off,0,0,0,,4,,,76,127
44871,note_off,0,0,0,,8,,,68,127
44872,note_on,1,0,0,,10,,,69,127
44872,note_on,0,0,0,,1,,,73,127
44872,note_on,0,0,0,,8,,,80,127
44935,note_off,63,0,0,,8,,,80,127
44936,note_on,1,0,0,,6,,,78,127
44992,note_off,56,0,0,,1,,,73,127
44999,note_off,7,0,0,,6,,,78,127
45000,note_on,1,0,0,,4,,,76,127
45063,note_off,63,0,0,,4,,,76,127
45064,note_on,1,0,0,,6,,,78,127
45127,note_off,63,0,0,,6,,,78,127
45127,note_off,0,0,0,,10,,,69,127
45128,note_on,1,0,0,,8,,,68,127
45128,note_on,0,0,0,,8,,,80,127
45128,note_on,0,0,0,,0,,,72,127
45383,note_off,255,0,0,,0,,,72,127
45383,note_off,0,0,0,,8,,,80,127
45383,note_off,0,0,0,,8,,,68,127
45384,note_on,1,0,0,,6,,,66,127
45384,note_on,0,0,0,,10,,,81,127
45384,note_on,0,0,0,,1,,,73,127
45639,note_off,255,0,0,,1,,,73,127
45639,note_off,0,0,0,,10,,,81,127
45639,note_off,0,0,0,,6,,,66,127
45640,note_on,1,0,0,,5,,,65,127
45640,note_on,0,0,0,,12,,,83,127
45640,note_on,0,0,0,,2,,,74,127
45895,note_off,255,0,0,,2,,,74,127
45895,note_off,0,0,0,,12,,,83,127
45895,note_off,0,0,0,,5,,,65,127
45896,note_on,1,0,0,,6,,,66,127
45896,note_on,0,0,0,,1,,,73,127
45896,note_on,0,0,0,,10,,,81,127
46151,note_off,255,0,0,,10,,,81,127
46151,note_off,0,0,0,,1,,,73,127
46151,note_off,0,0,0,,6,,,66,127
46152,note_on,1,0,0,,12,,,59,127
46152,note_on,0,0,0,,2,,,74,127
46152,note_on,0,0,0,,8,,,80,127
46407,note_off,255,0,0,,8,,,80,127
46407,note_off,0,0,0,,2,,,74,127
46407,note_off,0,0,0,,12,,,59,127
46408,note_on,1,0,0,,1,,,61,127
46408,note_on,0,0,0,,5,,,77,127
46663,note_off,255,0,0,,5,,,77,127
46663,note_off,0,0,0,,1,,,61,127
46664,note_on,1,0,0,,2,,,62,127
46664,note_on,0,0,0,,8,,,80,127
46748,note_off,84,0,0,,8,,,80,127
46749,note_on,1,0,0,,6,,,78,127
46833,note_off,84,0,0,,6,,,78,127
46834,note_on,1,0,0,,8,,,80,127
46918,note_off,84,0,0,,8,,,80,127
46918,note_off,0,0,0,,2,,,62,127
46919,note_on,1,0,0,,2,,,50,127
46919,note_on,0,0,0,,6,,,78,127
47003,note_off,84,0,0,,6,,,78,127
47004,note_on,1,0,0,,5,,,77,127
47088,note_off,84,0,0,,5,,,77,127
47089,note_on,1,0,0,,6,,,78,127
47173,note_off,84,0,0,,6,,,78,127
47173,note_off,0,0,0,,2,,,50,127
47174,note_on,1,0,0,,1,,,49,127
47174,note_on,0,0,0,,8,,,80,127
47258,note_off,84,0,0,,1,,,49,127
47259,note_on,1,0,0,,5,,,53,127
47343,note_off,84,0,0,,5,,,53,127
47344,note_on,1,0,0,,8,,,56,127
47428,note_off,84,0,0,,8,,,56,127
47429,note_on,1,0,0,,1,,,61,127
47513,note_off,84,0,0,,1,,,61,127
47514,note_on,1,0,0,,5,,,65,127
47598,note_off,84,0,0,,5,,,65,127
47599,note_on,1,0,0,,8,,,68,127
47683,note_off,84,0,0,,8,,,68,127
47684,note_on,1,0,0,,1,,,73,127
47812,note_off,128,0,0,,8,,,80,127
47939,note_off,127,0,0,,1,,,73,127
47940,note_on,1,0,0,,1,,,73,127
47940,note_on,0,0,0,,10,,,81,127
47940,note_on,0,0,0,,6,,,78,127
48195,note_off,255,0,0,,10,,,81,127
48195,note_off,0,0,0,,1,,,73,127
48196,note_on,1,0,0,,2,,,74,127
48196,note_on,0,0,0,,12,,,83,127
48451,note_off,255,0,0,,12,,,83,127
48451,note_off,0,0,0,,2,,,74,127
48452,note_on,1,0,0,,1,,,73,127
48452,note_on,0,0,0,,10,,,81,127
48707,note_off,255,0,0,,10,,,81,127
48707,note_off,0,0,0,,1,,,73,127
48707,note_off,0,0,0,,6,,,78,127
48708,note_on,1,0,0,,12,,,71,127
48708,note_on,0,0,0,,8,,,80,127
48963,note_off,255,0,0,,8,,,80,127
48963,note_off,0,0,0,,12,,,71,127
48964,note_on,1,0,0,,2,,,74,127
48964,note_on,0,0,0,,8,,,80,127
49027,note_off,63,0,0,,8,,,80,127
49028,note_on,1,0,0,,6,,,78,127
49091,note_off,63,0,0,,6,,,78,127
49092,note_on,1,0,0,,5,,,77,127
49155,note_off,63,0,0,,5,,,77,127
49156,note_on,1,0,0,,6,,,78,127
49219,note_off,63,0,0,,6,,,78,127
49219,note_off,0,0,0,,2,,,74,127
49220,note_on,1,0,0,,1,,,49,127
49220,note_on,0,0,0,,8,,,80,127
49304,note_off,84,0,0,,1,,,49,127
49305,note_on,1,0,0,,5,,,53,127
49389,note_off,84,0,0,,5,,,53,127
49390,note_on,1,0,0,,8,,,56,127
49474,note_off,84,0,0,,8,,,56,127
49475,note_on,1,0,0,,1,,,61,127
49559,note_off,84,0,0,,1,,,61,127
49560,note_on,1,0,0,,5,,,65,127
49644,note_off,84,0,0,,5,,,65,127
49645,note_on,1,0,0,,8,,,68,127
49729,note_off,84,0,0,,8,,,68,127
49730,note_on,1,0,0,,1,,,73,127
49985,note_off,255,0,0,,1,,,73,127
49985,note_off,0,0,0,,8,,,80,127
49986,note_on,1,0,0,,1,,,73,127
49986,note_on,0,0,0,,10,,,81,127
49986,note_on,0,0,0,,6,,,78,127
50241,note_off,255,0,0,,10,,,81,127
50241,note_off,0,0,0,,1,,,73,127
50242,note_on,1,0,0,,2,,,74,127
50242,note_on,0,0,0,,12,,,83,127
50493,note_off,251,0,0,,6,,,78,127
50497,note_off,4,0,0,,12,,,83,127
50497,note_off,0,0,0,,2,,,74,127
50498,note_on,1,0,0,,1,,,73,127
50498,note_on,0,0,0,,10,,,81,127
50753,note_off,255,0,0,,10,,,81,127
50753,note_off,0,0,0,,1,,,73,127
50754,note_on,1,0,0,,12,,,71,127
50754,note_on,0,0,0,,8,,,80,127
51009,note_off,255,0,0,,8,,,80,127
51009,note_off,0,0,0,,12,,,71,127
51010,note_on,1,0,0,,2,,,74,127
51010,note_on,0,0,0,,6,,,78,127
51265,note_off,255,0,0,,6,,,78,127
51265,note_off,0,0,0,,2,,,74,127
51266,note_on,1,0,0,,1,,,73,127
51266,note_on,0,0,0,,4,,,76,127
51266,note_on,0,0,0,,6,,,78,127
51350,note_off,84,0,0,,6,,,78,127
51351,note_on,1,0,0,,7,,,79,127
51435,note_off,84,0,0,,7,,,79,127
51436,note_on,1,0,0,,10,,,81,127
51520,note_off,84,0,0,,10,,,81,127
51520,note_off,0,0,0,,1,,,73,127
51521,note_on,1,0,0,,12,,,71,127
51521,note_on,0,0,0,,7,,,79,127
51776,note_off,255,0,0,,12,,,71,127
51777,note_on,1,0,0,,11,,,70,127
52032,note_off,255,0,0,,11,,,70,127
52032,note_off,0,0,0,,7,,,79,127
52033,note_on,1,0,0,,12,,,71,127
52033,note_on,0,0,0,,6,,,78,127
52288,note_off,255,0,0,,6,,,78,127
52288,note_off,0,0,0,,12,,,71,127
52288,note_off,0,0,0,,4,,,76,127
52289,note_on,1,0,0,,1,,,73,127
52289,note_on,0,0,0,,6,,,78,127
52289,note_on,0,0,0,,4,,,76,127
52373,note_off,84,0,0,,6,,,78,127
52374,note_on,1,0,0,,7,,,79,127
52458,note_off,84,0,0,,7,,,79,127
52459,note_on,1,0,0,,10,,,81,127
52543,note_off,84,0,0,,10,,,81,127
52543,note_off,0,0,0,,1,,,73,127
52544,note_on,1,0,0,,12,,,71,127
52544,note_on,0,0,0,,7,,,79,127
52799,note_off,255,0,0,,12,,,71,127
52800,note_on,1,0,0,,11,,,70,127
53055,note_off,255,0,0,,11,,,70,127
53055,note_off,0,0,0,,7,,,79,127
53056,note_on,1,0,0,,12,,,71,127
53056,note_on,0,0,0,,6,,,78,127
53311,note_off,255,0,0,,6,,,78,127
53311,note_off,0,0,0,,12,,,71,127
53311,note_off,0,0,0,,4,,,76,127
53312,note_on,1,0,0,,10,,,69,127
53312,note_on,0,0,0,,0,,,72,127
53312,note_on,0,0,0,,4,,,76,127
53312,note_on,0,0,0,,6,,,78,127
53333,note_on,21,0,0,,7,,,79,127
53354,note_on,21,0,0,,10,,,81,127
53375,note_off,21,0,0,,6,,,78,127
53387,note_off,12,0,0,,4,,,76,127
53396,note_off,9,0,0,,7,,,79,127
53565,note_off,169,0,0,,0,,,72,127
53565,note_off,0,0,0,,10,,,69,127
53566,note_on,1,0,0,,12,,,71,127
53566,note_on,0,0,0,,3,,,75,127
53821,note_off,255,0,0,,3,,,75,127
53821,note_off,0,0,0,,12,,,71,127
53822,note_on,1,0,0,,0,,,72,127
53822,note_on,0,0,0,,10,,,69,127
53822,note_on,0,0,0,,4,,,76,127
54077,note_off,255,0,0,,4,,,76,127
54077,note_off,0,0,0,,10,,,69,127
54077,note_off,0,0,0,,0,,,72,127
54078,note_on,1,0,0,,12,,,71,127
54078,note_on,0,0,0,,3,,,75,127
54286,note_off,208,0,0,,10,,,81,127
54333,note_off,47,0,0,,3,,,75,127
54333,note_off,0,0,0,,12,,,71,127
54334,note_on,1,0,0,,0,,,72,127
54334,note_on,0,0,0,,10,,,69,127
54334,note_on,0,0,0,,6,,,78,127
54334,note_on,0,0,0,,4,,,76,127
54371,note_off,37,0,0,,4,,,76,127
54371,note_on,0,0,0,,7,,,79,127
54398,note_off,27,0,0,,6,,,78,127
54409,note_on,11,0,0,,10,,,81,127
54436,note_off,27,0,0,,7,,,79,127
54589,note_off,153,0,0,,10,,,69,127
54589,note_off,0,0,0,,0,,,72,127
54590,note_on,1,0,0,,12,,,71,127
54590,note_on,0,0,0,,3,,,75,127
54845,note_off,255,0,0,,3,,,75,127
54845,note_off,0,0,0,,12,,,71,127
54846,note_on,1,0,0,,10,,,69,127
54846,note_on,0,0,0,,0,,,72,127
54846,note_on,0,0,0,,4,,,76,127
55075,note_off,229,0,0,,10,,,81,127
55100,note_off,25,0,0,,4,,,76,127
55100,note_off,0,0,0,,0,,,72,127
55100,note_off,0,0,0,,10,,,69,127
55101,note_on,1,0,0,,12,,,71,127
55101,note_on,0,0,0,,12,,,83,127
55101,note_on,0,0,0,,3,,,75,127
55356,note_off,255,0,0,,12,,,83,127
55356,note_off,0,0,0,,12,,,71,127
55357,note_on,1,0,0,,10,,,69,127
55357,note_on,0,0,0,,0,,,84,127
55608,note_off,251,0,0,,3,,,75,127
55612,note_off,4,0,0,,0,,,84,127
55612,note_off,0,0,0,,10,,,69,127
55613,note_on,1,0,0,,7,,,67,127
55613,note_on,0,0,0,,4,,,76,127
55613,note_on,0,0,0,,12,,,83,127
55868,note_off,255,0,0,,12,,,83,127
55868,note_off,0,0,0,,7,,,67,127
55869,note_on,1,0,0,,6,,,66,127
55869,note_on,0,0,0,,10,,,81,127
56124,note_off,255,0,0,,10,,,81,127
56124,note_off,0,0,0,,6,,,66,127
56125,note_on,1,0,0,,4,,,64,127
56125,note_on,0,0,0,,7,,,79,127
56380,note_off,255,0,0,,7,,,79,127
56380,note_off,0,0,0,,4,,,64,127
56380,note_off,0,0,0,,4,,,76,127
56381,note_on,1,0,0,,10,,,57,127
56381,note_on,0,0,0,,6,,,78,127
56636,note_off,255,0,0,,10,,,57,127
56637,note_on,1,0,0,,12,,,59,127
56637,note_on,0,0,0,,3,,,75,127
56754,note_off,117,0,0,,6,,,78,127
56891,note_off,137,0,0,,3,,,75,127
56891,note_off,0,0,0,,12,,,59,127
56892,note_on,1,0,0,,0,,,60,127
56892,note_on,0,0,0,,6,,,78,127
56976,note_off,84,0,0,,6,,,78,127
56977,note_on,1,0,0,,4,,,76,127
57061,note_off,84,0,0,,4,,,76,127
57062,note_on,1,0,0,,6,,,78,127
57146,note_off,84,0,0,,6,,,78,127
57146,note_off,0,0,0,,0,,,60,127
57147,note_on,1,0,0,,0,,,48,127
57147,note_on,0,0,0,,4,,,76,127
57231,note_off,84,0,0,,4,,,76,127
57232,note_on,1,0,0,,3,,,75,127
57316,note_off,84,0,0,,3,,,75,127
57317,note_on,1,0,0,,4,,,76,127
57401,note_off,84,0,0,,4,,,76,127
57401,note_off,0,0,0,,0,,,48,127
57402,note_on,1,0,0,,12,,,47,127
57402,note_on,0,0,0,,6,,,78,127
57486,note_off,84,0,0,,12,,,47,127
57487,note_on,1,0,0,,3,,,51,127
57571,note_off,84,0,0,,3,,,51,127
57572,note_on,1,0,0,,6,,,54,127
57656,note_off,84,0,0,,6,,,54,127
57657,note_on,1,0,0,,12,,,59,127
57741,note_off,84,0,0,,12,,,59,127
57742,note_on,1,0,0,,3,,,63,127
57826,note_off,84,0,0,,3,,,63,127
57827,note_on,1,0,0,,6,,,66,127
57907,note_off,80,0,0,,6,,,78,127
57911,note_off,4,0,0,,6,,,66,127
57912,note_on,1,0,0,,12,,,71,127
58168,note_on,256,0,0,,10,,,81,127
58168,note_on,0,0,0,,3,,,75,127
58423,note_off,255,0,0,,3,,,75,127
58423,note_off,0,0,0,,10,,,81,127
58424,note_on,1,0,0,,8,,,80,127
58424,note_on,0,0,0,,4,,,76,127
58679,note_off,255,0,0,,4,,,76,127
58679,note_off,0,0,0,,8,,,80,127
58680,note_on,1,0,0,,6,,,78,127
58680,note_on,0,0,0,,3,,,75,127
58935,note_off,255,0,0,,3,,,75,127
58935,note_off,0,0,0,,6,,,78,127
58936,note_on,1,0,0,,4,,,76,127
58936,note_on,0,0,0,,8,,,80,127
59191,note_off,255,0,0,,8,,,80,127
59191,note_off,0,0,0,,4,,,76,127
59192,note_on,1,0,0,,11,,,82,127
59192,note_on,0,0,0,,1,,,73,127
59447,note_off,255,0,0,,1,,,73,127
59447,note_off,0,0,0,,11,,,82,127
59447,note_off,0,0,0,,12,,,71,127
59448,note_on,1,0,0,,12,,,47,127
59448,note_on,0,0,0,,3,,,75,127
59448,note_on,0,0,0,,12,,,83,127
59532,note_off,84,0,0,,12,,,47,127
59533,note_on,1,0,0,,3,,,51,127
59617,note_off,84,0,0,,3,,,51,127
59618,note_on,1,0,0,,6,,,54,127
59702,note_off,84,0,0,,6,,,54,127
59703,note_on,1,0,0,,12,,,59,127
59787,note_off,84,0,0,,12,,,59,127
59788,note_on,1,0,0,,3,,,63,127
59872,note_off,84,0,0,,3,,,63,127
59873,note_on,1,0,0,,6,,,66,127
59957,note_off,84,0,0,,6,,,66,127
59958,note_on,1,0,0,,12,,,71,127
60213,note_off,255,0,0,,12,,,83,127
60213,note_off,0,0,0,,3,,,75,127
60214,note_on,1,0,0,,10,,,81,127
60214,note_on,0,0,0,,3,,,75,127
60469,note_off,255,0,0,,3,,,75,127
60469,note_off,0,0,0,,10,,,81,127
60470,note_on,1,0,0,,8,,,80,127
60470,note_on,0,0,0,,4,,,76,127
60725,note_off,255,0,0,,4,,,76,127
60725,note_off,0,0,0,,8,,,80,127
60726,note_on,1,0,0,,6,,,78,127
60726,note_on,0,0,0,,3,,,75,127
60981,note_off,255,0,0,,3,,,75,127
60981,note_off,0,0,0,,6,,,78,127
60982,note_on,1,0,0,,8,,,80,127
60982,note_on,0,0,0,,4,,,76,127
61237,note_off,255,0,0,,4,,,76,127
61237,note_off,0,0,0,,8,,,80,127
61238,note_on,1,0,0,,1,,,73,127
61238,note_on,0,0,0,,12,,,83,127
61301,note_off,63,0,0,,12,,,83,127
61301,note_off,0,0,0,,1,,,73,127
61302,note_on,1,0,0,,11,,,82,127
61365,note_off,63,0,0,,11,,,82,127
61366,note_on,1,0,0,,8,,,80,127
61429,note_off,63,0,0,,8,,,80,127
61430,note_on,1,0,0,,11,,,82,127
61493,note_off,63,0,0,,11,,,82,127
61494,note_on,1,0,0,,3,,,75,127
61494,note_on,0,0,0,,12,,,83,127
61749,note_off,255,0,0,,12,,,83,127
61749,note_off,0,0,0,,12,,,71,127
61750,note_on,1,0,0,,10,,,69,127
61750,note_on,0,0,0,,1,,,85,127
62001,note_off,251,0,0,,3,,,75,127
62005,note_off,4,0,0,,10,,,69,127
62006,note_on,1,0,0,,8,,,68,127
62006,note_on,0,0,0,,4,,,76,127
62257,note_off,251,0,0,,1,,,85,127
62261,note_off,4,0,0,,8,,,68,127
62262,note_on,1,0,0,,6,,,66,127
62262,note_on,0,0,0,,12,,,83,127
62389,note_off,127,0,0,,12,,,83,127
62390,note_on,1,0,0,,10,,,81,127
62517,note_off,127,0,0,,10,,,81,127
62517,note_off,0,0,0,,6,,,66,127
62518,note_on,1,0,0,,4,,,64,127
62518,note_on,0,0,0,,8,,,80,127
62602,note_off,84,0,0,,8,,,80,127
62603,note_on,1,0,0,,10,,,81,127
62611,note_off,8,0,0,,4,,,76,127
62687,note_off,76,0,0,,10,,,81,127
62688,note_on,1,0,0,,12,,,83,127
62772,note_off,84,0,0,,12,,,83,127
62772,note_off,0,0,0,,4,,,64,127
62773,note_on,1,0,0,,10,,,57,127
62773,note_on,0,0,0,,10,,,81,127
62857,note_off,84,0,0,,10,,,81,127
62858,note_on,1,0,0,,8,,,80,127
62942,note_off,84,0,0,,8,,,80,127
62943,note_on,1,0,0,,6,,,78,127
63027,note_off,84,0,0,,6,,,78,127
63027,note_off,0,0,0,,10,,,57,127
63028,note_on,1,0,0,,12,,,59,127
63028,note_on,0,0,0,,8,,,80,127
63028,note_on,0,0,0,,4,,,76,127
63283,note_off,255,0,0,,4,,,76,127
63283,note_off,0,0,0,,8,,,80,127
63283,note_off,0,0,0,,12,,,59,127
63284,note_on,1,0,0,,12,,,47,127
63284,note_on,0,0,0,,3,,,75,127
63284,note_on,0,0,0,,8,,,80,127
63347,note_off,63,0,0,,8,,,80,127
63348,note_on,1,0,0,,6,,,78,127
63404,note_off,56,0,0,,3,,,75,127
63411,note_off,7,0,0,,6,,,78,127
63412,note_on,1,0,0,,4,,,76,127
63475,note_off,63,0,0,,4,,,76,127
63476,note_on,1,0,0,,6,,,78,127
63539,note_off,63,0,0,,6,,,78,127
63539,note_off,0,0,0,,12,,,47,127
63540,note_on,1,0,0,,4,,,52,127
63540,note_on,0,0,0,,4,,,64,127
63540,note_on,0,0,0,,4,,,76,127
63624,note_off,84,0,0,,4,,,76,127
63625,note_on,1,0,0,,4,,,88,127
63709,note_off,84,0,0,,4,,,88,127
63710,note_on,1,0,0,,12,,,83,127
63794,note_off,84,0,0,,12,,,83,127
63795,note_on,1,0,0,,8,,,80,127
63879,note_off,84,0,0,,8,,,80,127
63880,note_on,1,0,0,,4,,,76,127
63964,note_off,84,0,0,,4,,,76,127
63965,note_on,1,0,0,,12,,,71,127
64045,note_off,80,0,0,,4,,,52,127
64049,note_off,4,0,0,,12,,,71,127
64050,note_on,1,0,0,,8,,,68,127
64305,note_off,255,0,0,,8,,,68,127
64305,note_off,0,0,0,,4,,,64,127
64306,note_on,1,0,0,,10,,,57,127
64306,note_on,0,0,0,,3,,,75,127
64306,note_on,0,0,0,,10,,,69,127
64561,note_off,255,0,0,,10,,,69,127
64561,note_off,0,0,0,,3,,,75,127
64561,note_off,0,0,0,,10,,,57,127
64562,note_on,1,0,0,,8,,,56,127
64562,note_on,0,0,0,,4,,,64,127
64562,note_on,0,0,0,,4,,,76,127
64646,note_off,84,0,0,,4,,,76,127
64647,note_on,1,0,0,,4,,,88,127
64731,note_off,84,0,0,,4,,,88,127
64732,note_on,1,0,0,,12,,,83,127
64816,note_off,84,0,0,,12,,,83,127
64816,note_off,0,0,0,,8,,,56,127
64817,note_on,1,0,0,,4,,,52,127
64817,note_on,0,0,0,,8,,,80,127
64901,note_off,84,0,0,,8,,,80,127
64902,note_on,1,0,0,,4,,,76,127
64986,note_off,84,0,0,,4,,,76,127
64987,note_on,1,0,0,,12,,,71,127
65071,note_off,84,0,0,,12,,,71,127
65072,note_on,1,0,0,,8,,,68,127
65327,note_off,255,0,0,,8,,,68,127
65327,note_off,0,0,0,,4,,,52,127
65327,note_off,0,0,0,,4,,,64,127
65328,note_on,1,0,0,,10,,,57,127
65328,note_on,0,0,0,,3,,,75,127
65328,note_on,0,0,0,,10,,,69,127
65583,note_off,255,0,0,,10,,,69,127
65583,note_off,0,0,0,,3,,,75,127
65583,note_off,0,0,0,,10,,,57,127
65584,note_on,1,0,0,,8,,,56,127
65584,note_on,0,0,0,,4,,,64,127
65584,note_on,0,0,0,,4,,,76,127
65668,note_off,84,0,0,,4,,,76,127
65669,note_on,1,0,0,,6,,,78,127
65753,note_off,84,0,0,,6,,,78,127
65754,note_on,1,0,0,,8,,,80,127
65838,note_off,84,0,0,,8,,,80,127
65838,note_off,0,0,0,,4,,,64,127
65838,note_off,0,0,0,,8,,,56,127
65839,note_on,1,0,0,,6,,,66,127
65839,note_on,0,0,0,,10,,,57,127
65839,note_on,0,0,0,,6,,,78,127
65923,note_off,84,0,0,,6,,,78,127
65924,note_on,1,0,0,,8,,,80,127
66008,note_off,84,0,0,,8,,,80,127
66009,note_on,1,0,0,,10,,,81,127
66093,note_off,84,0,0,,10,,,81,127
66093,note_off,0,0,0,,10,,,57,127
66093,note_off,0,0,0,,6,,,66,127
66094,note_on,1,0,0,,12,,,59,127
66094,note_on,0,0,0,,4,,,64,127
66094,note_on,0,0,0,,8,,,68,127
66094,note_on,0,0,0,,8,,,80,127
66349,note_off,255,0,0,,8,,,80,127
66349,note_off,0,0,0,,8,,,68,127
66349,note_off,0,0,0,,4,,,64,127
66350,note_on,1,0,0,,6,,,66,127
66350,note_on,0,0,0,,3,,,63,127
66350,note_on,0,0,0,,8,,,80,127
66413,note_off,63,0,0,,8,,,80,127
66414,note_on,1,0,0,,6,,,78,127
66477,note_off,63,0,0,,6,,,78,127
66478,note_on,1,0,0,,4,,,76,127
66541,note_off,63,0,0,,4,,,76,127
66542,note_on,1,0,0,,6,,,78,127
66601,note_off,59,0,0,,12,,,59,127
66605,note_off,4,0,0,,6,,,78,127
66605,note_off,0,0,0,,3,,,63,127
66605,note_off,0,0,0,,6,,,66,127
66606,note_on,1,0,0,,4,,,64,127
66606,note_on,0,0,0,,4,,,52,127
66606,note_on,0,0,0,,4,,,76,127
66798,note_off,192,0,0,,4,,,76,127
66833,note_off,35,0,0,,4,,,52,127
66861,note_off,28,0,0,,4,,,64,127
66862,note_on,1,0,0,,10,,,69,127
66862,note_on,0,0,0,,12,,,83,127
66862,note_on,0,0,0,,3,,,75,127
66946,note_off,84,0,0,,10,,,69,127
66947,note_on,1,0,0,,8,,,68,127
67031,note_off,84,0,0,,8,,,68,127
67032,note_on,1,0,0,,6,,,66,127
67116,note_off,84,0,0,,6,,,66,127
67116,note_off,0,0,0,,3,,,75,127
67117,note_on,1,0,0,,4,,,64,127
67117,note_on,0,0,0,,4,,,76,127
67368,note_off,251,0,0,,12,,,83,127
67372,note_off,4,0,0,,4,,,76,127
67372,note_off,0,0,0,,4,,,64,127
67373,note_on,1,0,0,,12,,,59,127
67373,note_on,0,0,0,,10,,,81,127
67457,note_off,84,0,0,,10,,,81,127
67458,note_on,1,0,0,,8,,,80,127
67542,note_off,84,0,0,,8,,,80,127
67543,note_on,1,0,0,,6,,,78,127
67627,note_off,84,0,0,,6,,,78,127
67627,note_off,0,0,0,,12,,,59,127
67628,note_on,1,0,0,,4,,,52,127
67628,note_on,0,0,0,,4,,,76,127
67883,note_off,255,0,0,,4,,,76,127
67883,note_off,0,0,0,,4,,,52,127
67884,note_on,1,0,0,,10,,,69,127
67884,note_on,0,0,0,,12,,,83,127
67884,note_on,0,0,0,,3,,,75,127
67968,note_off,84,0,0,,10,,,69,127
67969,note_on,1,0,0,,8,,,68,127
68053,note_off,84,0,0,,8,,,68,127
68054,note_on,1,0,0,,6,,,66,127
68138,note_off,84,0,0,,6,,,66,127
68138,note_off,0,0,0,,3,,,75,127
68139,note_on,1,0,0,,4,,,64,127
68139,note_on,0,0,0,,4,,,76,127
68390,note_off,251,0,0,,12,,,83,127
68394,note_off,4,0,0,,4,,,76,127
68394,note_off,0,0,0,,4,,,64,127
68395,note_on,1,0,0,,12,,,59,127
68395,note_on,0,0,0,,10,,,81,127
68479,note_off,84,0,0,,10,,,81,127
68480,note_on,1,0,0,,8,,,80,127
68564,note_off,84,0,0,,8,,,80,127
68565,note_on,1,0,0,,6,,,78,127
68649,note_off,84,0,0,,6,,,78,127
68649,note_off,0,0,0,,12,,,59,127
68650,note_on,1,0,0,,4,,,52,127
68650,note_on,0,0,0,,4,,,76,127
68905,note_off,255,0,0,,4,,,76,127
68905,note_off,0,0,0,,4,,,52,127
68906,note_on,1,0,0,,8,,,56,127
68906,note_on,0,0,0,,4,,,88,127
69161,note_off,255,0,0,,4,,,88,127
69161,note_off,0,0,0,,8,,,56,127
69162,note_on,1,0,0,,10,,,57,127
69162,note_on,0,0,0,,1,,,85,127
69162,note_on,0,0,0,,3,,,87,127
69246,note_off,84,0,0,,3,,,87,127
69246,note_off,0,0,0,,1,,,85,127
69247,note_on,1,0,0,,12,,,83,127
69331,note_off,84,0,0,,12,,,83,127
69332,note_on,1,0,0,,10,,,81,127
69416,note_off,84,0,0,,10,,,81,127
69416,note_off,0,0,0,,10,,,57,127
69417,note_on,1,0,0,,10,,,45,127
69417,note_on,0,0,0,,8,,,80,127
69501,note_off,84,0,0,,8,,,80,127
69502,note_on,1,0,0,,6,,,78,127
69586,note_off,84,0,0,,6,,,78,127
69587,note_on,1,0,0,,4,,,76,127
69671,note_off,84,0,0,,4,,,76,127
69671,note_off,0,0,0,,10,,,45,127
69672,note_on,1,0,0,,12,,,59,127
69672,note_on,0,0,0,,12,,,47,127
69672,note_on,0,0,0,,3,,,75,127
69756,note_off,84,0,0,,3,,,75,127
69757,note_on,1,0,0,,1,,,73,127
69841,note_off,84,0,0,,1,,,73,127
69842,note_on,1,0,0,,12,,,71,127
69925,note_off,83,0,0,,12,,,47,127
69925,note_off,0,0,0,,12,,,59,127
69926,note_off,1,0,0,,12,,,71,127
69927,note_on,1,0,0,,10,,,45,127
69927,note_on,0,0,0,,10,,,57,127
69927,note_on,0,0,0,,10,,,69,127
70011,note_off,84,0,0,,10,,,69,127
70012,note_on,1,0,0,,8,,,68,127
70096,note_off,84,0,0,,8,,,68,127
70097,note_on,1,0,0,,6,,,66,127
70181,note_off,84,0,0,,6,,,66,127
70181,note_off,0,0,0,,10,,,57,127
70181,note_off,0,0,0,,10,,,45,127
70182,note_on,1,0,0,,12,,,59,127
70182,note_on,0,0,0,,12,,,47,127
70182,note_on,0,0,0,,8,,,68,127
70182,note_on,0,0,0,,4,,,64,127
70437,note_off,255,0,0,,4,,,64,127
70437,note_off,0,0,0,,8,,,68,127
70437,note_off,0,0,0,,12,,,47,127
70437,note_off,0,0,0,,12,,,59,127
70438,note_on,1,0,0,,12,,,47,127
70438,note_on,0,0,0,,6,,,66,127
70438,note_on,0,0,0,,3,,,63,127
70693,note_off,255,0,0,,3,,,63,127
70693,note_off,0,0,0,,6,,,66,127
70693,note_off,0,0,0,,12,,,47,127
70694,note_on,1,0,0,,4,,,40,127
70694,note_on,0,0,0,,4,,,52,127
70694,note_on,0,0,0,,4,,,64,127
70886,note_off,192,0,0,,4,,,64,127
70921,note_off,35,0,0,,4,,,40,127
70949,note_off,28,0,0,,4,,,52,127
70950,note_on,1,0,0,,10,,,57,127
70950,note_on,0,0,0,,3,,,63,127
70950,note_on,0,0,0,,12,,,71,127
71034,note_off,84,0,0,,10,,,57,127
71035,note_on,1,0,0,,8,,,56,127
71119,note_off,84,0,0,,8,,,56,127
71120,note_on,1,0,0,,6,,,54,127
71204,note_off,84,0,0,,6,,,54,127
71204,note_off,0,0,0,,3,,,63,127
71205,note_on,1,0,0,,4,,,52,127
71205,note_on,0,0,0,,4,,,64,127
71456,note_off,251,0,0,,12,,,71,127
71460,note_off,4,0,0,,4,,,64,127
71460,note_off,0,0,0,,4,,,52,127
71461,note_on,1,0,0,,12,,,47,127
71461,note_on,0,0,0,,10,,,69,127
71545,note_off,84,0,0,,10,,,69,127
71546,note_on,1,0,0,,8,,,68,127
71630,note_off,84,0,0,,8,,,68,127
71631,note_on,1,0,0,,6,,,66,127
71715,note_off,84,0,0,,6,,,66,127
71715,note_off,0,0,0,,12,,,47,127
71716,note_on,1,0,0,,4,,,40,127
71716,note_on,0,0,0,,4,,,64,127
71971,note_off,255,0,0,,4,,,64,127
71971,note_off,0,0,0,,4,,,40,127
71972,note_on,1,0,0,,10,,,57,127
71972,note_on,0,0,0,,12,,,71,127
71972,note_on,0,0,0,,3,,,63,127
72056,note_off,84,0,0,,10,,,57,127
72057,note_on,1,0,0,,8,,,56,127
72141,note_off,84,0,0,,8,,,56,127
72142,note_on,1,0,0,,6,,,54,127
72226,note_off,84,0,0,,6,,,54,127
72226,note_off,0,0,0,,3,,,63,127
72227,note_on,1,0,0,,4,,,52,127
72227,note_on,0,0,0,,4,,,64,127
72478,note_off,251,0,0,,12,,,71,127
72482,note_off,4,0,0,,4,,,64,127
72482,note_off,0,0,0,,4,,,52,127
72483,note_on,1,0,0,,12,,,47,127
72483,note_on,0,0,0,,10,,,69,127
72567,note_off,84,0,0,,10,,,69,127
72568,note_on,1,0,0,,8,,,68,127
72652,note_off,84,0,0,,8,,,68,127
72653,note_on,1,0,0,,6,,,66,127
72737,note_off,84,0,0,,6,,,66,127
72737,note_off,0,0,0,,12,,,47,127
72738,note_on,1,0,0,,4,,,40,127
72738,note_on,0,0,0,,4,,,64,127
72993,note_off,255,0,0,,4,,,64,127
72993,note_off,0,0,0,,4,,,40,127
72994,note_on,1,0,0,,8,,,56,127
72994,note_on,0,0,0,,4,,,76,127
73249,note_off,255,0,0,,4,,,76,127
73249,note_off,0,0,0,,8,,,56,127
73250,note_on,1,0,0,,10,,,57,127
73250,note_on,0,0,0,,3,,,75,127
73250,note_on,0,0,0,,1,,,73,127
73334,note_off,84,0,0,,1,,,73,127
73334,note_off,0,0,0,,3,,,75,127
73335,note_on,1,0,0,,12,,,71,127
73419,note_off,84,0,0,,12,,,71,127
73420,note_on,1,0,0,,10,,,69,127
73504,note_off,84,0,0,,10,,,69,127
73504,note_off,0,0,0,,10,,,57,127
73505,note_on,1,0,0,,10,,,45,127
73505,note_on,0,0,0,,8,,,68,127
73589,note_off,84,0,0,,8,,,68,127
73590,note_on,1,0,0,,6,,,66,127
73674,note_off,84,0,0,,6,,,66,127
73675,note_on,1,0,0,,4,,,64,127
73759,note_off,84,0,0,,4,,,64,127
73759,note_off,0,0,0,,10,,,45,127
73760,note_on,1,0,0,,12,,,47,127
73760,note_on,0,0,0,,12,,,59,127
73760,note_on,0,0,0,,3,,,63,127
73844,note_off,84,0,0,,3,,,63,127
73845,note_on,1,0,0,,1,,,61,127
73920,note_off,75,0,0,,12,,,59,127
73929,note_off,9,0,0,,1,,,61,127
73930,note_on,1,0,0,,12,,,59,127
74014,note_off,84,0,0,,12,,,59,127
74014,note_off,0,0,0,,12,,,47,127
74015,note_on,1,0,0,,10,,,45,127
74015,note_on,0,0,0,,10,,,57,127
74015,note_on,0,0,0,,10,,,69,127
74099,note_off,84,0,0,,10,,,69,127
74100,note_on,1,0,0,,8,,,68,127
74184,note_off,84,0,0,,8,,,68,127
74185,note_on,1,0,0,,6,,,66,127
74269,note_off,84,0,0,,6,,,66,127
74269,note_off,0,0,0,,10,,,57,127
74269,note_off,0,0,0,,10,,,45,127
74270,note_on,1,0,0,,12,,,59,127
74270,note_on,0,0,0,,12,,,47,127
74270,note_on,0,0,0,,8,,,68,127
74270,note_on,0,0,0,,4,,,64,127
74525,note_off,255,0,0,,4,,,64,127
74525,note_off,0,0,0,,8,,,68,127
74525,note_off,0,0,0,,12,,,47,127
74525,note_off,0,0,0,,12,,,59,127
74526,note_on,1,0,0,,12,,,47,127
74526,note_on,0,0,0,,3,,,63,127
74526,note_on,0,0,0,,8,,,68,127
74653,note_off,127,0,0,,8,,,68,127
74654,note_on,1,0,0,,6,,,66,127
74779,note_off,125,0,0,,3,,,63,127
74780,note_off,1,0,0,,6,,,66,127
74780,note_off,0,0,0,,12,,,47,127
74781,note_on,1,0,0,,4,,,40,127
74781,note_on,0,0,0,,4,,,52,127
74781,note_on,0,0,0,,4,,,64,127
75036,note_off,255,0,0,,4,,,64,127
75036,note_off,0,0,0,,4,,,52,127
75036,note_off,0,0,0,,4,,,40,127
75037,note_on,1,0,0,,8,,,56,127
75037,note_on,0,0,0,,12,,,59,127
75292,note_off,255,0,0,,12,,,59,127
75292,note_off,0,0,0,,8,,,56,127
75293,note_on,1,0,0,,10,,,57,127
75293,note_on,0,0,0,,0,,,60,127
75548,note_off,255,0,0,,0,,,60,127
75548,note_off,0,0,0,,10,,,57,127
75549,note_on,1,0,0,,10,,,45,127
75549,note_on,0,0,0,,1,,,61,127
75804,note_off,255,0,0,,1,,,61,127
75804,note_off,0,0,0,,10,,,45,127
75805,note_on,1,0,0,,12,,,47,127
75805,note_on,0,0,0,,12,,,59,127
75805,note_on,0,0,0,,3,,,63,127
75889,note_off,84,0,0,,3,,,63,127
75890,note_on,1,0,0,,4,,,64,127
75974,note_off,84,0,0,,4,,,64,127
75975,note_on,1,0,0,,6,,,66,127
76059,note_off,84,0,0,,6,,,66,127
76059,note_off,0,0,0,,12,,,59,127
76059,note_off,0,0,0,,12,,,47,127
76060,note_on,1,0,0,,10,,,45,127
76060,note_on,0,0,0,,10,,,57,127
76060,note_on,0,0,0,,8,,,68,127
76144,note_off,84,0,0,,8,,,68,127
76145,note_on,1,0,0,,10,,,69,127
76229,note_off,84,0,0,,10,,,69,127
76230,note_on,1,0,0,,12,,,71,127
76314,note_off,84,0,0,,12,,,71,127
76314,note_off,0,0,0,,10,,,57,127
76314,note_off,0,0,0,,10,,,45,127
76315,note_on,1,0,0,,12,,,59,127
76315,note_on,0,0,0,,8,,,68,127
76315,note_on,0,0,0,,4,,,64,127
76570,note_off,255,0,0,,4,,,64,127
76570,note_off,0,0,0,,8,,,68,127
76571,note_on,1,0,0,,12,,,47,127
76571,note_on,0,0,0,,3,,,63,127
76571,note_on,0,0,0,,8,,,68,127
76634,note_off,63,0,0,,8,,,68,127
76635,note_on,1,0,0,,6,,,66,127
76691,note_off,56,0,0,,3,,,63,127
76698,note_off,7,0,0,,6,,,66,127
76699,note_on,1,0,0,,4,,,64,127
76762,note_off,63,0,0,,4,,,64,127
76763,note_on,1,0,0,,6,,,66,127
76822,note_off,59,0,0,,12,,,59,127
76826,note_off,4,0,0,,6,,,66,127
76826,note_off,0,0,0,,12,,,47,127
76827,note_on,1,0,0,,4,,,52,127
76827,note_on,0,0,0,,4,,,64,127
77082,note_off,255,0,0,,4,,,64,127
77082,note_off,0,0,0,,4,,,52,127
77083,note_on,1,0,0,,8,,,56,127
77083,note_on,0,0,0,,12,,,71,127
77338,note_off,255,0,0,,12,,,71,127
77338,note_off,0,0,0,,8,,,56,127
77339,note_on,1,0,0,,10,,,57,127
77339,note_on,0,0,0,,0,,,72,127
77594,note_off,255,0,0,,0,,,72,127
77594,note_off,0,0,0,,10,,,57,127
77595,note_on,1,0,0,,10,,,45,127
77595,note_on,0,0,0,,1,,,73,127
77850,note_off,255,0,0,,1,,,73,127
77850,note_off,0,0,0,,10,,,45,127
77851,note_on,1,0,0,,12,,,47,127
77851,note_on,0,0,0,,3,,,75,127
77935,note_off,84,0,0,,3,,,75,127
77936,note_on,1,0,0,,4,,,76,127
78020,note_off,84,0,0,,4,,,76,127
78021,note_on,1,0,0,,6,,,78,127
78105,note_off,84,0,0,,6,,,78,127
78105,note_off,0,0,0,,12,,,47,127
78106,note_on,1,0,0,,10,,,45,127
78106,note_on,0,0,0,,8,,,80,127
78190,note_off,84,0,0,,8,,,80,127
78191,note_on,1,0,0,,10,,,81,127
78275,note_off,84,0,0,,10,,,81,127
78276,note_on,1,0,0,,12,,,83,127
78360,note_off,84,0,0,,12,,,83,127
78360,note_off,0,0,0,,10,,,45,127
78361,note_on,1,0,0,,12,,,47,127
78361,note_on,0,0,0,,8,,,80,127
78361,note_on,0,0,0,,4,,,76,127
78616,note_off,255,0,0,,4,,,76,127
78616,note_off,0,0,0,,8,,,80,127
78616,note_off,0,0,0,,12,,,47,127
78617,note_on,1,0,0,,12,,,47,127
78617,note_on,0,0,0,,3,,,75,127
78617,note_on,0,0,0,,8,,,80,127
78680,note_off,63,0,0,,8,,,80,127
78681,note_on,1,0,0,,6,,,78,127
78744,note_off,63,0,0,,6,,,78,127
78745,note_on,1,0,0,,4,,,76,127
78808,note_off,63,0,0,,4,,,76,127
78809,note_off,1,0,0,,3,,,75,127
78809,note_on,0,0,0,,6,,,78,127
78872,note_off,63,0,0,,6,,,78,127
78872,note_off,0,0,0,,12,,,47,127
78885,note_on,13,0,0,,4,,,40,127
78885,note_on,0,0,0,,4,,,76,127
80793,note_off,1908,0,0,,4,,,76,127
80793,note_off,0,0,0,,4,,,40,127
81408,end_of_track,615,1,0,,,,,,
