tick,type,time,meta,track,program,channel,pitch,tempo,note,velocity
0,copyright,0,1,0,,,,,,
0,program_change,0,0,0,6,0,,,,
0,pitchwheel,0,0,0,,0,0,,,
0,program_change,0,0,0,6,1,,,,
0,pitchwheel,0,0,0,,1,-590,,,
0,program_change,0,0,0,6,2,,,,
0,pitchwheel,0,0,0,,2,-272,,,
0,program_change,0,0,0,6,3,,,,
0,pitchwheel,0,0,0,,3,-353,,,
0,program_change,0,0,0,6,4,,,,
0,pitchwheel,0,0,0,,4,-560,,,
0,program_change,0,0,0,6,5,,,,
0,pitchwheel,0,0,0,,5,-80,,,
0,program_change,0,0,0,6,6,,,,
0,pitchwheel,0,0,0,,6,-625,,,
0,program_change,0,0,0,6,7,,,,
0,pitchwheel,0,0,0,,7,-130,,,
0,program_change,0,0,0,6,8,,,,
0,pitchwheel,0,0,0,,8,-512,,,
0,program_change,0,0,0,6,10,,,,
0,pitchwheel,0,0,0,,10,-464,,,
0,program_change,0,0,0,6,11,,,,
0,pitchwheel,0,0,0,,11,-208,,,
0,program_change,0,0,0,6,12,,,,
0,pitchwheel,0,0,0,,12,-553,,,
0,set_tempo,0,1,0,,,,500000,,
77,note_on,77,0,0,,4,,,64,127
77,note_on,0,0,0,,12,,,83,127
179,note_off,102,0,0,,12,,,83,127
180,note_on,1,0,0,,12,,,71,127
282,note_off,102,0,0,,12,,,71,127
283,note_on,1,0,0,,3,,,75,127
385,note_off,102,0,0,,3,,,75,127
386,note_on,1,0,0,,6,,,66,127
386,note_on,0,0,0,,4,,,76,127
690,note_off,304,0,0,,4,,,76,127
692,note_off,2,0,0,,6,,,66,127
693,note_on,1,0,0,,8,,,68,127
693,note_on,0,0,0,,4,,,76,127
981,note_off,288,0,0,,4,,,76,127
999,note_off,18,0,0,,4,,,64,127
1000,note_off,1,0,0,,8,,,68,127
1001,note_on,1,0,0,,4,,,64,127
1001,note_on,0,0,0,,10,,,69,127
1001,note_on,0,0,0,,12,,,83,127
1103,note_off,102,0,0,,12,,,83,127
1104,note_on,1,0,0,,1,,,73,127
1206,note_off,102,0,0,,1,,,73,127
1207,note_on,1,0,0,,3,,,75,127
1309,note_off,102,0,0,,3,,,75,127
1309,note_off,0,0,0,,10,,,69,127
1310,note_on,1,0,0,,8,,,68,127
1310,note_on,0,0,0,,4,,,76,127
1616,note_off,306,0,0,,4,,,76,127
1616,note_off,0,0,0,,8,,,68,127
1617,note_on,1,0,0,,6,,,66,127
1617,note_on,0,0,0,,4,,,76,127
1905,note_off,288,0,0,,4,,,76,127
1923,note_off,18,0,0,,4,,,64,127
1924,note_off,1,0,0,,6,,,66,127
1925,note_on,1,0,0,,4,,,64,127
1925,note_on,0,0,0,,12,,,83,127
2027,note_off,102,0,0,,12,,,83,127
2028,note_on,1,0,0,,12,,,71,127
2130,note_off,102,0,0,,12,,,71,127
2131,note_on,1,0,0,,3,,,75,127
2233,note_off,102,0,0,,3,,,75,127
2234,note_on,1,0,0,,6,,,66,127
2234,note_on,0,0,0,,4,,,76,127
2540,note_off,306,0,0,,4,,,76,127
2540,note_off,0,0,0,,6,,,66,127
2541,note_on,1,0,0,,8,,,68,127
2541,note_on,0,0,0,,4,,,76,127
2837,note_off,296,0,0,,4,,,76,127
2847,note_off,10,0,0,,4,,,64,127
2848,note_off,1,0,0,,8,,,68,127
2849,note_on,1,0,0,,10,,,69,127
2849,note_on,0,0,0,,4,,,64,127
2849,note_on,0,0,0,,12,,,83,127
2951,note_off,102,0,0,,12,,,83,127
2952,note_on,1,0,0,,1,,,73,127
3054,note_off,102,0,0,,1,,,73,127
3055,note_on,1,0,0,,3,,,75,127
3157,note_off,102,0,0,,3,,,75,127
3157,note_off,0,0,0,,10,,,69,127
3158,note_on,1,0,0,,8,,,68,127
3158,note_on,0,0,0,,4,,,76,127
3464,note_off,306,0,0,,4,,,76,127
3464,note_off,0,0,0,,8,,,68,127
3465,note_on,1,0,0,,6,,,66,127
3465,note_on,0,0,0,,4,,,76,127
3761,note_off,296,0,0,,4,,,76,127
3771,note_off,10,0,0,,4,,,64,127
3772,note_off,1,0,0,,6,,,66,127
3773,note_on,1,0,0,,4,,,64,127
3773,note_on,0,0,0,,8,,,80,127
3875,note_off,102,0,0,,4,,,64,127
3876,note_on,1,0,0,,12,,,59,127
3978,note_off,102,0,0,,12,,,59,127
3979,note_on,1,0,0,,4,,,64,127
4081,note_off,102,0,0,,4,,,64,127
4081,note_off,0,0,0,,8,,,80,127
4082,note_on,1,0,0,,6,,,66,127
4082,note_on,0,0,0,,10,,,81,127
4184,note_off,102,0,0,,6,,,66,127
4185,note_on,1,0,0,,12,,,59,127
4287,note_off,102,0,0,,12,,,59,127
4288,note_on,1,0,0,,6,,,66,127
4390,note_off,102,0,0,,6,,,66,127
4390,note_off,0,0,0,,10,,,81,127
4391,note_on,1,0,0,,8,,,68,127
4391,note_on,0,0,0,,12,,,83,127
4697,note_off,306,0,0,,12,,,83,127
4697,note_off,0,0,0,,8,,,68,127
4698,note_on,1,0,0,,10,,,57,127
4698,note_on,0,0,0,,10,,,69,127
4698,note_on,0,0,0,,1,,,85,127
4800,note_off,102,0,0,,1,,,85,127
4801,note_on,1,0,0,,12,,,83,127
4903,note_off,102,0,0,,12,,,83,127
4904,note_on,1,0,0,,10,,,81,127
5006,note_off,102,0,0,,10,,,81,127
5006,note_off,0,0,0,,10,,,69,127
5006,note_off,0,0,0,,10,,,57,127
5007,note_on,1,0,0,,12,,,59,127
5007,note_on,0,0,0,,4,,,76,127
5007,note_on,0,0,0,,8,,,80,127
5313,note_off,306,0,0,,8,,,80,127
5313,note_off,0,0,0,,4,,,76,127
5313,note_off,0,0,0,,12,,,59,127
5314,note_on,1,0,0,,12,,,47,127
5314,note_on,0,0,0,,3,,,75,127
5314,note_on,0,0,0,,6,,,78,127
5620,note_off,306,0,0,,6,,,78,127
5620,note_off,0,0,0,,3,,,75,127
5620,note_off,0,0,0,,12,,,47,127
5621,note_on,1,0,0,,4,,,52,127
5621,note_on,0,0,0,,3,,,75,127
5621,note_on,0,0,0,,6,,,78,127
5928,note_on,307,0,0,,4,,,40,127
6234,note_off,306,0,0,,6,,,78,127
6234,note_off,0,0,0,,3,,,75,127
6235,note_on,1,0,0,,4,,,76,127
6465,note_off,230,0,0,,4,,,76,127
6540,note_off,75,0,0,,4,,,52,127
6541,note_off,1,0,0,,4,,,40,127
6542,note_on,1,0,0,,4,,,64,127
6542,note_on,0,0,0,,12,,,71,127
6542,note_on,0,0,0,,8,,,80,127
6644,note_off,102,0,0,,4,,,64,127
6645,note_on,1,0,0,,4,,,52,127
6747,note_on,102,0,0,,10,,,57,127
6849,note_off,102,0,0,,10,,,57,127
6849,note_off,0,0,0,,8,,,80,127
6849,note_off,0,0,0,,12,,,71,127
6850,note_on,1,0,0,,12,,,59,127
6850,note_on,0,0,0,,8,,,80,127
6850,note_on,0,0,0,,12,,,71,127
7156,note_off,306,0,0,,12,,,71,127
7156,note_off,0,0,0,,8,,,80,127
7156,note_off,0,0,0,,12,,,59,127
7157,note_on,1,0,0,,12,,,59,127
7157,note_on,0,0,0,,8,,,80,127
7157,note_on,0,0,0,,12,,,71,127
7461,note_off,304,0,0,,4,,,52,127
7463,note_off,2,0,0,,12,,,71,127
7463,note_off,0,0,0,,8,,,80,127
7463,note_off,0,0,0,,12,,,59,127
7464,note_on,1,0,0,,4,,,64,127
7464,note_on,0,0,0,,1,,,73,127
7464,note_on,0,0,0,,10,,,81,127
7566,note_off,102,0,0,,4,,,64,127
7567,note_on,1,0,0,,4,,,52,127
7669,note_on,102,0,0,,12,,,59,127
7771,note_off,102,0,0,,12,,,59,127
7771,note_off,0,0,0,,10,,,81,127
7771,note_off,0,0,0,,1,,,73,127
7772,note_on,1,0,0,,1,,,61,127
7772,note_on,0,0,0,,10,,,81,127
7772,note_on,0,0,0,,1,,,73,127
8078,note_off,306,0,0,,1,,,73,127
8078,note_off,0,0,0,,10,,,81,127
8078,note_off,0,0,0,,1,,,61,127
8079,note_on,1,0,0,,1,,,61,127
8079,note_on,0,0,0,,10,,,81,127
8079,note_on,0,0,0,,1,,,73,127
8383,note_off,304,0,0,,4,,,52,127
8385,note_off,2,0,0,,1,,,73,127
8385,note_off,0,0,0,,10,,,81,127
8385,note_off,0,0,0,,1,,,61,127
8386,note_on,1,0,0,,4,,,64,127
8386,note_on,0,0,0,,1,,,73,127
8386,note_on,0,0,0,,10,,,81,127
8488,note_off,102,0,0,,4,,,64,127
8489,note_on,1,0,0,,4,,,52,127
8591,note_on,102,0,0,,1,,,61,127
8693,note_off,102,0,0,,1,,,61,127
8693,note_off,0,0,0,,10,,,81,127
8693,note_off,0,0,0,,1,,,73,127
8694,note_on,1,0,0,,3,,,63,127
8694,note_on,0,0,0,,12,,,71,127
8694,note_on,0,0,0,,10,,,81,127
9000,note_off,306,0,0,,10,,,81,127
9000,note_off,0,0,0,,12,,,71,127
9000,note_off,0,0,0,,3,,,63,127
9001,note_on,1,0,0,,3,,,63,127
9001,note_on,0,0,0,,12,,,71,127
9001,note_on,0,0,0,,10,,,81,127
9305,note_off,304,0,0,,4,,,52,127
9307,note_off,2,0,0,,10,,,81,127
9307,note_off,0,0,0,,12,,,71,127
9307,note_off,0,0,0,,3,,,63,127
9308,note_on,1,0,0,,4,,,64,127
9308,note_on,0,0,0,,4,,,52,127
9308,note_on,0,0,0,,12,,,71,127
9308,note_on,0,0,0,,8,,,80,127
9410,note_off,102,0,0,,8,,,80,127
9411,note_on,1,0,0,,6,,,78,127
9513,note_off,102,0,0,,6,,,78,127
9514,note_on,1,0,0,,4,,,76,127
9616,note_off,102,0,0,,4,,,76,127
9617,note_on,1,0,0,,6,,,78,127
9719,note_off,102,0,0,,6,,,78,127
9720,note_on,1,0,0,,4,,,76,127
9822,note_off,102,0,0,,4,,,76,127
9823,note_on,1,0,0,,3,,,75,127
9925,note_off,102,0,0,,3,,,75,127
9925,note_off,0,0,0,,12,,,71,127
9926,note_on,1,0,0,,4,,,76,127
10232,note_off,306,0,0,,4,,,76,127
10232,note_off,0,0,0,,4,,,52,127
10232,note_off,0,0,0,,4,,,64,127
10233,note_on,1,0,0,,4,,,64,127
10233,note_on,0,0,0,,12,,,71,127
10233,note_on,0,0,0,,8,,,80,127
10335,note_off,102,0,0,,4,,,64,127
10336,note_on,1,0,0,,4,,,52,127
10438,note_on,102,0,0,,10,,,57,127
10540,note_off,102,0,0,,10,,,57,127
10540,note_off,0,0,0,,8,,,80,127
10540,note_off,0,0,0,,12,,,71,127
10541,note_on,1,0,0,,12,,,59,127
10541,note_on,0,0,0,,8,,,80,127
10541,note_on,0,0,0,,12,,,71,127
10847,note_off,306,0,0,,12,,,71,127
10847,note_off,0,0,0,,8,,,80,127
10847,note_off,0,0,0,,12,,,59,127
10848,note_on,1,0,0,,12,,,59,127
10848,note_on,0,0,0,,12,,,71,127
10848,note_on,0,0,0,,8,,,80,127
11056,note_off,208,0,0,,4,,,52,127
11154,note_off,98,0,0,,8,,,80,127
11154,note_off,0,0,0,,12,,,71,127
11154,note_off,0,0,0,,12,,,59,127
11155,note_on,1,0,0,,4,,,64,127
11155,note_on,0,0,0,,1,,,73,127
11155,note_on,0,0,0,,10,,,81,127
11257,note_off,102,0,0,,4,,,64,127
11258,note_on,1,0,0,,4,,,52,127
11360,note_on,102,0,0,,12,,,59,127
11462,note_off,102,0,0,,12,,,59,127
11462,note_off,0,0,0,,10,,,81,127
11462,note_off,0,0,0,,1,,,73,127
11463,note_on,1,0,0,,1,,,61,127
11463,note_on,0,0,0,,1,,,73,127
11463,note_on,0,0,0,,10,,,81,127
11769,note_off,306,0,0,,10,,,81,127
11769,note_off,0,0,0,,1,,,73,127
11769,note_off,0,0,0,,1,,,61,127
11770,note_on,1,0,0,,1,,,61,127
11770,note_on,0,0,0,,1,,,73,127
11770,note_on,0,0,0,,10,,,81,127
11978,note_off,208,0,0,,4,,,52,127
12076,note_off,98,0,0,,10,,,81,127
12076,note_off,0,0,0,,1,,,73,127
12076,note_off,0,0,0,,1,,,61,127
12077,note_on,1,0,0,,4,,,64,127
12077,note_on,0,0,0,,10,,,81,127
12077,note_on,0,0,0,,1,,,73,127
12179,note_off,102,0,0,,4,,,64,127
12180,note_on,1,0,0,,4,,,52,127
12282,note_on,102,0,0,,1,,,61,127
12384,note_off,102,0,0,,1,,,61,127
12384,note_off,0,0,0,,1,,,73,127
12384,note_off,0,0,0,,10,,,81,127
12385,note_on,1,0,0,,3,,,63,127
12385,note_on,0,0,0,,10,,,81,127
12385,note_on,0,0,0,,12,,,71,127
12691,note_off,306,0,0,,12,,,71,127
12691,note_off,0,0,0,,10,,,81,127
12691,note_off,0,0,0,,3,,,63,127
12692,note_on,1,0,0,,3,,,63,127
12692,note_on,0,0,0,,10,,,81,127
12692,note_on,0,0,0,,12,,,71,127
12900,note_off,208,0,0,,4,,,52,127
12998,note_off,98,0,0,,12,,,71,127
12998,note_off,0,0,0,,10,,,81,127
12998,note_off,0,0,0,,3,,,63,127
12999,note_on,1,0,0,,4,,,64,127
12999,note_on,0,0,0,,4,,,52,127
12999,note_on,0,0,0,,12,,,71,127
12999,note_on,0,0,0,,8,,,80,127
13101,note_off,102,0,0,,8,,,80,127
13102,note_on,1,0,0,,6,,,78,127
13204,note_off,102,0,0,,6,,,78,127
13205,note_on,1,0,0,,4,,,76,127
13304,note_off,99,0,0,,12,,,71,127
13306,note_off,2,0,0,,4,,,76,127
13307,note_on,1,0,0,,6,,,78,127
13409,note_off,102,0,0,,6,,,78,127
13410,note_on,1,0,0,,4,,,76,127
13512,note_off,102,0,0,,4,,,76,127
13513,note_on,1,0,0,,3,,,75,127
13615,note_off,102,0,0,,3,,,75,127
13616,note_on,1,0,0,,4,,,76,127
13888,note_off,272,0,0,,4,,,76,127
13922,note_off,34,0,0,,4,,,52,127
13922,note_off,0,0,0,,4,,,64,127
13923,note_on,1,0,0,,4,,,64,127
13923,note_on,0,0,0,,8,,,68,127
13923,note_on,0,0,0,,8,,,80,127
14025,note_off,102,0,0,,8,,,80,127
14026,note_on,1,0,0,,12,,,71,127
14128,note_off,102,0,0,,12,,,71,127
14129,note_on,1,0,0,,8,,,80,127
14231,note_off,102,0,0,,8,,,80,127
14231,note_off,0,0,0,,8,,,68,127
14231,note_off,0,0,0,,4,,,64,127
14232,note_on,1,0,0,,8,,,68,127
14232,note_on,0,0,0,,4,,,64,127
14232,note_on,0,0,0,,8,,,80,127
14538,note_off,306,0,0,,8,,,80,127
14538,note_off,0,0,0,,4,,,64,127
14538,note_off,0,0,0,,8,,,68,127
14539,note_on,1,0,0,,8,,,68,127
14539,note_on,0,0,0,,4,,,64,127
14539,note_on,0,0,0,,8,,,80,127
14845,note_off,306,0,0,,8,,,80,127
14845,note_off,0,0,0,,4,,,64,127
14845,note_off,0,0,0,,8,,,68,127
14846,note_on,1,0,0,,4,,,64,127
14846,note_on,0,0,0,,8,,,80,127
14948,note_off,102,0,0,,8,,,80,127
14949,note_on,1,0,0,,4,,,76,127
15051,note_off,102,0,0,,4,,,76,127
15052,note_on,1,0,0,,8,,,80,127
15154,note_off,102,0,0,,8,,,80,127
15154,note_off,0,0,0,,4,,,64,127
15155,note_on,1,0,0,,4,,,64,127
15155,note_on,0,0,0,,8,,,80,127
15461,note_off,306,0,0,,8,,,80,127
15461,note_off,0,0,0,,4,,,64,127
15462,note_on,1,0,0,,4,,,64,127
15462,note_on,0,0,0,,8,,,80,127
15768,note_off,306,0,0,,8,,,80,127
15768,note_off,0,0,0,,4,,,64,127
15769,note_on,1,0,0,,4,,,64,127
15769,note_on,0,0,0,,11,,,58,127
15769,note_on,0,0,0,,1,,,61,127
15769,note_on,0,0,0,,1,,,85,127
16075,note_off,306,0,0,,1,,,85,127
16075,note_off,0,0,0,,11,,,58,127
16076,note_on,1,0,0,,6,,,54,127
16076,note_on,0,0,0,,6,,,78,127
16382,note_off,306,0,0,,6,,,78,127
16382,note_off,0,0,0,,6,,,54,127
16383,note_on,1,0,0,,11,,,58,127
16383,note_on,0,0,0,,4,,,76,127
16689,note_off,306,0,0,,1,,,61,127
16689,note_off,0,0,0,,4,,,64,127
16690,note_off,1,0,0,,4,,,76,127
16690,note_off,0,0,0,,11,,,58,127
16691,note_on,1,0,0,,12,,,59,127
16691,note_on,0,0,0,,4,,,76,127
16793,note_off,102,0,0,,4,,,76,127
16794,note_on,1,0,0,,3,,,75,127
16896,note_off,102,0,0,,3,,,75,127
16897,note_on,1,0,0,,4,,,76,127
16999,note_off,102,0,0,,4,,,76,127
17000,note_on,1,0,0,,12,,,47,127
17000,note_on,0,0,0,,3,,,75,127
17153,note_off,153,0,0,,3,,,75,127
17154,note_on,1,0,0,,1,,,73,127
17307,note_off,153,0,0,,1,,,73,127
17308,note_on,1,0,0,,12,,,71,127
17580,note_off,272,0,0,,12,,,71,127
17614,note_off,34,0,0,,12,,,59,127
17615,note_off,1,0,0,,12,,,47,127
17616,note_on,1,0,0,,12,,,59,127
17616,note_on,0,0,0,,6,,,66,127
17616,note_on,0,0,0,,3,,,75,127
17718,note_off,102,0,0,,12,,,59,127
17719,note_on,1,0,0,,12,,,47,127
17821,note_on,102,0,0,,4,,,52,127
17923,note_off,102,0,0,,4,,,52,127
17923,note_off,0,0,0,,3,,,75,127
17923,note_off,0,0,0,,6,,,66,127
17924,note_on,1,0,0,,6,,,54,127
17924,note_on,0,0,0,,6,,,66,127
17924,note_on,0,0,0,,3,,,75,127
18230,note_off,306,0,0,,3,,,75,127
18230,note_off,0,0,0,,6,,,66,127
18230,note_off,0,0,0,,6,,,54,127
18231,note_on,1,0,0,,6,,,54,127
18231,note_on,0,0,0,,6,,,66,127
18231,note_on,0,0,0,,3,,,75,127
18535,note_off,304,0,0,,12,,,47,127
18537,note_off,2,0,0,,3,,,75,127
18537,note_off,0,0,0,,6,,,66,127
18537,note_off,0,0,0,,6,,,54,127
18538,note_on,1,0,0,,12,,,59,127
18538,note_on,0,0,0,,8,,,68,127
18538,note_on,0,0,0,,4,,,76,127
18640,note_off,102,0,0,,12,,,59,127
18641,note_on,1,0,0,,12,,,47,127
18743,note_on,102,0,0,,6,,,54,127
18845,note_off,102,0,0,,6,,,54,127
18845,note_off,0,0,0,,4,,,76,127
18845,note_off,0,0,0,,8,,,68,127
18846,note_on,1,0,0,,8,,,56,127
18846,note_on,0,0,0,,8,,,68,127
18846,note_on,0,0,0,,4,,,76,127
19152,note_off,306,0,0,,4,,,76,127
19152,note_off,0,0,0,,8,,,68,127
19152,note_off,0,0,0,,8,,,56,127
19153,note_on,1,0,0,,8,,,56,127
19153,note_on,0,0,0,,4,,,76,127
19153,note_on,0,0,0,,8,,,68,127
19457,note_off,304,0,0,,12,,,47,127
19459,note_off,2,0,0,,8,,,68,127
19459,note_off,0,0,0,,4,,,76,127
19459,note_off,0,0,0,,8,,,56,127
19460,note_on,1,0,0,,12,,,59,127
19460,note_on,0,0,0,,8,,,68,127
19460,note_on,0,0,0,,4,,,76,127
19562,note_off,102,0,0,,12,,,59,127
19563,note_on,1,0,0,,12,,,47,127
19665,note_on,102,0,0,,8,,,56,127
19767,note_off,102,0,0,,8,,,56,127
19767,note_off,0,0,0,,4,,,76,127
19767,note_off,0,0,0,,8,,,68,127
19768,note_on,1,0,0,,11,,,58,127
19768,note_on,0,0,0,,6,,,66,127
19768,note_on,0,0,0,,4,,,76,127
20074,note_off,306,0,0,,4,,,76,127
20074,note_off,0,0,0,,6,,,66,127
20074,note_off,0,0,0,,11,,,58,127
20075,note_on,1,0,0,,11,,,58,127
20075,note_on,0,0,0,,6,,,66,127
20075,note_on,0,0,0,,4,,,76,127
20379,note_off,304,0,0,,12,,,47,127
20381,note_off,2,0,0,,4,,,76,127
20381,note_off,0,0,0,,6,,,66,127
20381,note_off,0,0,0,,11,,,58,127
20382,note_on,1,0,0,,12,,,47,127
20382,note_on,0,0,0,,12,,,59,127
20382,note_on,0,0,0,,6,,,66,127
20382,note_on,0,0,0,,3,,,75,127
20484,note_off,102,0,0,,3,,,75,127
20485,note_on,1,0,0,,1,,,73,127
20587,note_off,102,0,0,,1,,,73,127
20588,note_on,1,0,0,,12,,,71,127
20690,note_off,102,0,0,,12,,,71,127
20691,note_on,1,0,0,,1,,,73,127
20793,note_off,102,0,0,,1,,,73,127
20794,note_on,1,0,0,,12,,,71,127
20896,note_off,102,0,0,,12,,,71,127
20897,note_on,1,0,0,,11,,,70,127
20999,note_off,102,0,0,,11,,,70,127
20999,note_off,0,0,0,,6,,,66,127
21000,note_on,1,0,0,,12,,,71,127
21306,note_off,306,0,0,,12,,,71,127
21306,note_off,0,0,0,,12,,,59,127
21306,note_off,0,0,0,,12,,,47,127
21307,note_on,1,0,0,,12,,,59,127
21307,note_on,0,0,0,,6,,,66,127
21307,note_on,0,0,0,,3,,,75,127
21409,note_off,102,0,0,,12,,,59,127
21410,note_on,1,0,0,,12,,,47,127
21512,note_on,102,0,0,,4,,,52,127
21614,note_off,102,0,0,,4,,,52,127
21614,note_off,0,0,0,,3,,,75,127
21614,note_off,0,0,0,,6,,,66,127
21615,note_on,1,0,0,,6,,,54,127
21615,note_on,0,0,0,,3,,,75,127
21615,note_on,0,0,0,,6,,,66,127
21921,note_off,306,0,0,,6,,,66,127
21921,note_off,0,0,0,,3,,,75,127
21921,note_off,0,0,0,,6,,,54,127
21922,note_on,1,0,0,,6,,,54,127
21922,note_on,0,0,0,,6,,,66,127
21922,note_on,0,0,0,,3,,,75,127
22146,note_off,224,0,0,,12,,,47,127
22228,note_off,82,0,0,,3,,,75,127
22228,note_off,0,0,0,,6,,,66,127
22228,note_off,0,0,0,,6,,,54,127
22229,note_on,1,0,0,,12,,,59,127
22229,note_on,0,0,0,,4,,,76,127
22229,note_on,0,0,0,,8,,,68,127
22331,note_off,102,0,0,,12,,,59,127
22332,note_on,1,0,0,,12,,,47,127
22434,note_on,102,0,0,,6,,,54,127
22536,note_off,102,0,0,,6,,,54,127
22536,note_off,0,0,0,,8,,,68,127
22536,note_off,0,0,0,,4,,,76,127
22537,note_on,1,0,0,,8,,,56,127
22537,note_on,0,0,0,,8,,,68,127
22537,note_on,0,0,0,,4,,,76,127
22843,note_off,306,0,0,,4,,,76,127
22843,note_off,0,0,0,,8,,,68,127
22843,note_off,0,0,0,,8,,,56,127
22844,note_on,1,0,0,,8,,,56,127
22844,note_on,0,0,0,,4,,,76,127
22844,note_on,0,0,0,,8,,,68,127
23068,note_off,224,0,0,,12,,,47,127
23150,note_off,82,0,0,,8,,,68,127
23150,note_off,0,0,0,,4,,,76,127
23150,note_off,0,0,0,,8,,,56,127
23151,note_on,1,0,0,,12,,,59,127
23151,note_on,0,0,0,,4,,,76,127
23151,note_on,0,0,0,,8,,,68,127
23253,note_off,102,0,0,,12,,,59,127
23254,note_on,1,0,0,,12,,,47,127
23356,note_on,102,0,0,,8,,,56,127
23458,note_off,102,0,0,,8,,,56,127
23458,note_off,0,0,0,,8,,,68,127
23458,note_off,0,0,0,,4,,,76,127
23459,note_on,1,0,0,,11,,,58,127
23459,note_on,0,0,0,,6,,,66,127
23459,note_on,0,0,0,,4,,,76,127
23765,note_off,306,0,0,,4,,,76,127
23765,note_off,0,0,0,,6,,,66,127
23765,note_off,0,0,0,,11,,,58,127
23766,note_on,1,0,0,,11,,,58,127
23766,note_on,0,0,0,,4,,,76,127
23766,note_on,0,0,0,,6,,,66,127
23990,note_off,224,0,0,,12,,,47,127
24072,note_off,82,0,0,,6,,,66,127
24072,note_off,0,0,0,,4,,,76,127
24072,note_off,0,0,0,,11,,,58,127
24073,note_on,1,0,0,,12,,,59,127
24073,note_on,0,0,0,,12,,,47,127
24073,note_on,0,0,0,,3,,,75,127
24073,note_on,0,0,0,,6,,,66,127
24175,note_off,102,0,0,,3,,,75,127
24176,note_on,1,0,0,,1,,,73,127
24278,note_off,102,0,0,,1,,,73,127
24279,note_on,1,0,0,,12,,,71,127
24378,note_off,99,0,0,,6,,,66,127
24380,note_off,2,0,0,,12,,,71,127
24381,note_on,1,0,0,,1,,,73,127
24483,note_off,102,0,0,,1,,,73,127
24484,note_on,1,0,0,,12,,,71,127
24586,note_off,102,0,0,,12,,,71,127
24587,note_on,1,0,0,,11,,,70,127
24689,note_off,102,0,0,,11,,,70,127
24690,note_on,1,0,0,,12,,,71,127
24962,note_off,272,0,0,,12,,,71,127
24996,note_off,34,0,0,,12,,,47,127
24996,note_off,0,0,0,,12,,,59,127
24997,note_on,1,0,0,,12,,,59,127
24997,note_on,0,0,0,,3,,,51,127
24997,note_on,0,0,0,,6,,,78,127
25099,note_off,102,0,0,,6,,,78,127
25100,note_on,1,0,0,,6,,,66,127
25202,note_off,102,0,0,,6,,,66,127
25203,note_on,1,0,0,,6,,,78,127
25305,note_off,102,0,0,,6,,,78,127
25305,note_off,0,0,0,,3,,,51,127
25305,note_off,0,0,0,,12,,,59,127
25306,note_on,1,0,0,,3,,,51,127
25306,note_on,0,0,0,,12,,,59,127
25306,note_on,0,0,0,,6,,,78,127
25612,note_off,306,0,0,,6,,,78,127
25612,note_off,0,0,0,,12,,,59,127
25612,note_off,0,0,0,,3,,,51,127
25613,note_on,1,0,0,,12,,,59,127
25613,note_on,0,0,0,,3,,,51,127
25613,note_on,0,0,0,,6,,,78,127
25919,note_off,306,0,0,,6,,,78,127
25919,note_off,0,0,0,,3,,,51,127
25919,note_off,0,0,0,,12,,,59,127
25920,note_on,1,0,0,,4,,,52,127
25920,note_on,0,0,0,,12,,,59,127
25920,note_on,0,0,0,,6,,,78,127
26226,note_off,306,0,0,,6,,,78,127
26226,note_off,0,0,0,,12,,,59,127
26226,note_off,0,0,0,,4,,,52,127
26227,note_on,1,0,0,,12,,,59,127
26227,note_on,0,0,0,,4,,,52,127
26227,note_on,0,0,0,,7,,,79,127
26533,note_off,306,0,0,,7,,,79,127
26533,note_off,0,0,0,,4,,,52,127
26533,note_off,0,0,0,,12,,,59,127
26534,note_on,1,0,0,,4,,,52,127
26534,note_on,0,0,0,,12,,,59,127
26534,note_on,0,0,0,,8,,,80,127
26840,note_off,306,0,0,,8,,,80,127
26840,note_off,0,0,0,,12,,,59,127
26840,note_off,0,0,0,,4,,,52,127
26841,note_on,1,0,0,,5,,,53,127
26841,note_on,0,0,0,,1,,,61,127
26841,note_on,0,0,0,,8,,,80,127
26943,note_off,102,0,0,,8,,,80,127
26944,note_on,1,0,0,,8,,,68,127
27046,note_off,102,0,0,,8,,,68,127
27047,note_on,1,0,0,,8,,,80,127
27149,note_off,102,0,0,,8,,,80,127
27149,note_off,0,0,0,,1,,,61,127
27149,note_off,0,0,0,,5,,,53,127
27150,note_on,1,0,0,,1,,,61,127
27150,note_on,0,0,0,,5,,,53,127
27150,note_on,0,0,0,,11,,,82,127
27456,note_off,306,0,0,,11,,,82,127
27456,note_off,0,0,0,,5,,,53,127
27456,note_off,0,0,0,,1,,,61,127
27457,note_on,1,0,0,,5,,,53,127
27457,note_on,0,0,0,,1,,,61,127
27457,note_on,0,0,0,,12,,,83,127
27763,note_off,306,0,0,,12,,,83,127
27763,note_off,0,0,0,,1,,,61,127
27763,note_off,0,0,0,,5,,,53,127
27764,note_on,1,0,0,,6,,,54,127
27764,note_on,0,0,0,,1,,,61,127
27764,note_on,0,0,0,,12,,,83,127
28070,note_off,306,0,0,,1,,,61,127
28070,note_off,0,0,0,,6,,,54,127
28071,note_on,1,0,0,,6,,,42,127
28173,note_off,102,0,0,,12,,,83,127
28174,note_on,1,0,0,,11,,,82,127
28276,note_off,102,0,0,,11,,,82,127
28277,note_on,1,0,0,,8,,,80,127
28379,note_off,102,0,0,,8,,,80,127
28380,note_on,1,0,0,,6,,,78,127
28610,note_off,230,0,0,,6,,,78,127
28686,note_off,76,0,0,,6,,,42,127
28687,note_on,1,0,0,,6,,,54,127
28687,note_on,0,0,0,,1,,,73,127
28687,note_on,0,0,0,,3,,,75,127
28789,note_off,102,0,0,,3,,,75,127
28789,note_off,0,0,0,,1,,,73,127
28790,note_on,1,0,0,,12,,,71,127
28892,note_off,102,0,0,,12,,,71,127
28893,note_on,1,0,0,,1,,,73,127
28995,note_off,102,0,0,,1,,,73,127
28996,note_on,1,0,0,,6,,,66,127
28996,note_on,0,0,0,,3,,,75,127
29302,note_off,306,0,0,,3,,,75,127
29302,note_off,0,0,0,,6,,,66,127
29303,note_on,1,0,0,,4,,,64,127
29303,note_on,0,0,0,,4,,,76,127
29609,note_off,306,0,0,,4,,,76,127
29609,note_off,0,0,0,,4,,,64,127
29610,note_on,1,0,0,,3,,,63,127
29610,note_on,0,0,0,,5,,,77,127
29712,note_off,102,0,0,,5,,,77,127
29713,note_on,1,0,0,,6,,,78,127
29815,note_off,102,0,0,,6,,,78,127
29816,note_on,1,0,0,,8,,,80,127
29918,note_off,102,0,0,,8,,,80,127
29918,note_off,0,0,0,,3,,,63,127
29919,note_on,1,0,0,,1,,,61,127
29919,note_on,0,0,0,,6,,,78,127
30225,note_off,306,0,0,,6,,,78,127
30225,note_off,0,0,0,,1,,,61,127
30226,note_on,1,0,0,,12,,,59,127
30226,note_on,0,0,0,,6,,,78,127
30530,note_off,304,0,0,,6,,,54,127
30532,note_off,2,0,0,,6,,,78,127
30532,note_off,0,0,0,,12,,,59,127
30533,note_on,1,0,0,,6,,,54,127
30533,note_on,0,0,0,,3,,,75,127
30533,note_on,0,0,0,,1,,,73,127
30635,note_off,102,0,0,,1,,,73,127
30635,note_off,0,0,0,,3,,,75,127
30636,note_on,1,0,0,,12,,,71,127
30738,note_off,102,0,0,,12,,,71,127
30739,note_on,1,0,0,,1,,,73,127
30841,note_off,102,0,0,,1,,,73,127
30842,note_on,1,0,0,,6,,,66,127
30842,note_on,0,0,0,,3,,,75,127
31148,note_off,306,0,0,,3,,,75,127
31148,note_off,0,0,0,,6,,,66,127
31149,note_on,1,0,0,,4,,,64,127
31149,note_on,0,0,0,,4,,,76,127
31455,note_off,306,0,0,,4,,,76,127
31455,note_off,0,0,0,,4,,,64,127
31456,note_on,1,0,0,,3,,,63,127
31456,note_on,0,0,0,,5,,,77,127
31558,note_off,102,0,0,,5,,,77,127
31559,note_on,1,0,0,,6,,,78,127
31661,note_off,102,0,0,,6,,,78,127
31662,note_on,1,0,0,,8,,,80,127
31764,note_off,102,0,0,,8,,,80,127
31764,note_off,0,0,0,,3,,,63,127
31765,note_on,1,0,0,,1,,,61,127
31765,note_on,0,0,0,,6,,,78,127
32071,note_off,306,0,0,,6,,,78,127
32071,note_off,0,0,0,,1,,,61,127
32072,note_on,1,0,0,,12,,,59,127
32072,note_on,0,0,0,,6,,,78,127
32376,note_off,304,0,0,,6,,,54,127
32378,note_off,2,0,0,,6,,,78,127
32378,note_off,0,0,0,,12,,,59,127
32379,note_on,1,0,0,,4,,,64,127
32379,note_on,0,0,0,,4,,,52,127
32379,note_on,0,0,0,,8,,,80,127
32481,note_off,102,0,0,,8,,,80,127
32482,note_on,1,0,0,,11,,,82,127
32584,note_off,102,0,0,,11,,,82,127
32585,note_on,1,0,0,,12,,,83,127
32687,note_off,102,0,0,,12,,,83,127
32687,note_off,0,0,0,,4,,,52,127
32687,note_off,0,0,0,,4,,,64,127
32688,note_on,1,0,0,,4,,,52,127
32688,note_on,0,0,0,,4,,,64,127
32688,note_on,0,0,0,,1,,,73,127
32994,note_off,306,0,0,,4,,,64,127
32994,note_off,0,0,0,,4,,,52,127
32995,note_on,1,0,0,,4,,,52,127
32995,note_on,0,0,0,,4,,,64,127
33097,note_off,102,0,0,,1,,,73,127
33098,note_on,1,0,0,,3,,,75,127
33200,note_off,102,0,0,,3,,,75,127
33201,note_on,1,0,0,,4,,,76,127
33303,note_off,102,0,0,,4,,,76,127
33303,note_off,0,0,0,,4,,,64,127
33303,note_off,0,0,0,,4,,,52,127
33304,note_on,1,0,0,,6,,,54,127
33304,note_on,0,0,0,,4,,,64,127
33304,note_on,0,0,0,,6,,,66,127
33610,note_off,306,0,0,,4,,,64,127
33611,note_on,1,0,0,,1,,,61,127
33713,note_off,102,0,0,,6,,,66,127
33714,note_on,1,0,0,,8,,,68,127
33816,note_off,102,0,0,,8,,,68,127
33817,note_on,1,0,0,,11,,,70,127
33919,note_off,102,0,0,,11,,,70,127
33919,note_off,0,0,0,,1,,,61,127
33920,note_on,1,0,0,,3,,,63,127
33920,note_on,0,0,0,,12,,,71,127
34022,note_off,102,0,0,,12,,,71,127
34023,note_on,1,0,0,,1,,,73,127
34125,note_off,102,0,0,,1,,,73,127
34126,note_on,1,0,0,,3,,,75,127
34227,note_off,101,0,0,,6,,,54,127
34228,note_off,1,0,0,,3,,,75,127
34228,note_off,0,0,0,,3,,,63,127
34229,note_on,1,0,0,,4,,,52,127
34229,note_on,0,0,0,,4,,,64,127
34229,note_on,0,0,0,,1,,,73,127
34331,note_off,102,0,0,,1,,,73,127
34332,note_on,1,0,0,,3,,,75,127
34434,note_off,102,0,0,,3,,,75,127
34435,note_on,1,0,0,,4,,,76,127
34537,note_off,102,0,0,,4,,,76,127
34537,note_off,0,0,0,,4,,,64,127
34537,note_off,0,0,0,,4,,,52,127
34538,note_on,1,0,0,,6,,,54,127
34538,note_on,0,0,0,,3,,,63,127
34538,note_on,0,0,0,,3,,,75,127
34538,note_on,0,0,0,,12,,,71,127
34844,note_off,306,0,0,,12,,,71,127
34844,note_off,0,0,0,,3,,,75,127
34844,note_off,0,0,0,,3,,,63,127
34845,note_on,1,0,0,,1,,,61,127
34845,note_on,0,0,0,,1,,,73,127
34845,note_on,0,0,0,,11,,,70,127
35151,note_off,306,0,0,,11,,,70,127
35151,note_off,0,0,0,,1,,,73,127
35151,note_off,0,0,0,,1,,,61,127
35151,note_off,0,0,0,,6,,,54,127
35152,note_on,1,0,0,,12,,,59,127
35152,note_on,0,0,0,,12,,,47,127
35152,note_on,0,0,0,,1,,,73,127
35152,note_on,0,0,0,,11,,,70,127
35458,note_off,306,0,0,,11,,,70,127
35458,note_off,0,0,0,,1,,,73,127
35459,note_on,1,0,0,,12,,,71,127
35919,note_off,460,0,0,,12,,,71,127
36073,note_off,154,0,0,,12,,,47,127
36073,note_off,0,0,0,,12,,,59,127
36074,note_on,1,0,0,,2,,,62,127
36074,note_on,0,0,0,,6,,,66,127
36176,note_off,102,0,0,,2,,,62,127
36177,note_on,1,0,0,,6,,,54,127
36279,note_on,102,0,0,,1,,,61,127
36381,note_off,102,0,0,,1,,,61,127
36381,note_off,0,0,0,,6,,,66,127
36382,note_on,1,0,0,,2,,,62,127
36382,note_on,0,0,0,,6,,,66,127
36688,note_off,306,0,0,,6,,,66,127
36688,note_off,0,0,0,,2,,,62,127
36689,note_on,1,0,0,,2,,,62,127
36689,note_on,0,0,0,,6,,,66,127
36985,note_off,296,0,0,,6,,,66,127
36993,note_off,8,0,0,,6,,,54,127
36995,note_off,2,0,0,,2,,,62,127
36996,note_on,1,0,0,,4,,,64,127
36996,note_on,0,0,0,,12,,,71,127
37098,note_off,102,0,0,,4,,,64,127
37099,note_on,1,0,0,,7,,,55,127
37201,note_on,102,0,0,,3,,,63,127
37303,note_off,102,0,0,,3,,,63,127
37303,note_off,0,0,0,,12,,,71,127
37304,note_on,1,0,0,,4,,,64,127
37304,note_on,0,0,0,,12,,,71,127
37610,note_off,306,0,0,,12,,,71,127
37610,note_off,0,0,0,,4,,,64,127
37611,note_on,1,0,0,,4,,,64,127
37611,note_on,0,0,0,,12,,,71,127
37907,note_off,296,0,0,,12,,,71,127
37915,note_off,8,0,0,,7,,,55,127
37917,note_off,2,0,0,,4,,,64,127
37918,note_on,1,0,0,,4,,,52,127
37918,note_on,0,0,0,,12,,,83,127
38020,note_off,102,0,0,,12,,,83,127
38021,note_on,1,0,0,,7,,,79,127
38123,note_off,102,0,0,,7,,,79,127
38124,note_on,1,0,0,,4,,,76,127
38226,note_off,102,0,0,,4,,,76,127
38227,note_on,1,0,0,,1,,,73,127
38329,note_off,102,0,0,,1,,,73,127
38330,note_on,1,0,0,,11,,,70,127
38432,note_off,102,0,0,,11,,,70,127
38433,note_on,1,0,0,,6,,,66,127
38535,note_off,102,0,0,,6,,,66,127
38536,note_on,1,0,0,,4,,,40,127
38536,note_on,0,0,0,,7,,,67,127
38638,note_off,102,0,0,,7,,,67,127
38639,note_on,1,0,0,,4,,,76,127
38741,note_off,102,0,0,,4,,,76,127
38742,note_on,1,0,0,,1,,,73,127
38843,note_off,101,0,0,,4,,,52,127
38844,note_off,1,0,0,,1,,,73,127
38844,note_off,0,0,0,,4,,,40,127
38845,note_on,1,0,0,,6,,,42,127
38845,note_on,0,0,0,,2,,,74,127
38845,note_on,0,0,0,,12,,,71,127
39151,note_off,306,0,0,,6,,,42,127
39152,note_on,1,0,0,,6,,,42,127
39458,note_off,306,0,0,,6,,,42,127
39458,note_off,0,0,0,,12,,,71,127
39458,note_off,0,0,0,,2,,,74,127
39459,note_on,1,0,0,,6,,,42,127
39459,note_on,0,0,0,,1,,,73,127
39459,note_on,0,0,0,,11,,,70,127
39755,note_off,296,0,0,,11,,,70,127
39755,note_off,0,0,0,,1,,,73,127
39765,note_off,10,0,0,,6,,,42,127
39766,note_on,1,0,0,,2,,,62,127
39766,note_on,0,0,0,,6,,,66,127
39868,note_off,102,0,0,,2,,,62,127
39869,note_on,1,0,0,,6,,,54,127
39971,note_on,102,0,0,,1,,,61,127
40073,note_off,102,0,0,,1,,,61,127
40073,note_off,0,0,0,,6,,,66,127
40074,note_on,1,0,0,,2,,,62,127
40074,note_on,0,0,0,,6,,,66,127
40380,note_off,306,0,0,,6,,,66,127
40380,note_off,0,0,0,,2,,,62,127
40381,note_on,1,0,0,,2,,,62,127
40381,note_on,0,0,0,,6,,,66,127
40605,note_off,224,0,0,,6,,,54,127
40677,note_off,72,0,0,,6,,,66,127
40677,note_off,0,0,0,,2,,,62,127
40688,note_on,11,0,0,,4,,,64,127
40688,note_on,0,0,0,,12,,,71,127
40790,note_off,102,0,0,,4,,,64,127
40791,note_on,1,0,0,,7,,,55,127
40893,note_on,102,0,0,,3,,,63,127
40995,note_off,102,0,0,,3,,,63,127
40995,note_off,0,0,0,,12,,,71,127
40996,note_on,1,0,0,,4,,,64,127
40996,note_on,0,0,0,,12,,,71,127
41302,note_off,306,0,0,,12,,,71,127
41302,note_off,0,0,0,,4,,,64,127
41303,note_on,1,0,0,,4,,,64,127
41303,note_on,0,0,0,,12,,,71,127
41527,note_off,224,0,0,,7,,,55,127
41599,note_off,72,0,0,,12,,,71,127
41599,note_off,0,0,0,,4,,,64,127
41610,note_on,11,0,0,,4,,,52,127
41610,note_on,0,0,0,,12,,,83,127
41712,note_off,102,0,0,,12,,,83,127
41713,note_on,1,0,0,,7,,,79,127
41815,note_off,102,0,0,,7,,,79,127
41816,note_on,1,0,0,,4,,,76,127
41918,note_off,102,0,0,,4,,,76,127
41919,note_on,1,0,0,,1,,,73,127
42021,note_off,102,0,0,,1,,,73,127
42022,note_on,1,0,0,,11,,,70,127
42124,note_off,102,0,0,,11,,,70,127
42125,note_on,1,0,0,,6,,,66,127
42227,note_off,102,0,0,,6,,,66,127
42227,note_off,0,0,0,,4,,,52,127
42228,note_on,1,0,0,,4,,,40,127
42228,note_on,0,0,0,,7,,,67,127
42330,note_off,102,0,0,,7,,,67,127
42331,note_on,1,0,0,,4,,,76,127
42433,note_off,102,0,0,,4,,,76,127
42434,note_on,1,0,0,,1,,,73,127
42536,note_off,102,0,0,,1,,,73,127
42536,note_off,0,0,0,,4,,,40,127
42537,note_on,1,0,0,,6,,,42,127
42537,note_on,0,0,0,,2,,,74,127
42537,note_on,0,0,0,,12,,,71,127
42843,note_off,306,0,0,,6,,,42,127
42844,note_on,1,0,0,,6,,,42,127
43150,note_off,306,0,0,,6,,,42,127
43150,note_off,0,0,0,,12,,,71,127
43150,note_off,0,0,0,,2,,,74,127
43151,note_on,1,0,0,,6,,,42,127
43151,note_on,0,0,0,,1,,,73,127
43151,note_on,0,0,0,,11,,,70,127
43423,note_off,272,0,0,,11,,,70,127
43423,note_off,0,0,0,,1,,,73,127
43457,note_off,34,0,0,,6,,,42,127
43458,note_on,1,0,0,,3,,,51,127
43458,note_on,0,0,0,,6,,,78,127
43560,note_off,102,0,0,,6,,,78,127
43561,note_on,1,0,0,,4,,,64,127
43663,note_off,102,0,0,,4,,,64,127
43664,note_on,1,0,0,,6,,,66,127
43766,note_off,102,0,0,,6,,,66,127
43766,note_off,0,0,0,,3,,,51,127
43767,note_on,1,0,0,,4,,,52,127
43767,note_on,0,0,0,,6,,,78,127
43869,note_on,102,0,0,,6,,,66,127
43971,note_off,102,0,0,,6,,,66,127
43972,note_on,1,0,0,,8,,,68,127
44071,note_off,99,0,0,,6,,,78,127
44073,note_off,2,0,0,,8,,,68,127
44073,note_off,0,0,0,,4,,,52,127
44074,note_on,1,0,0,,6,,,54,127
44074,note_on,0,0,0,,6,,,78,127
44176,note_on,102,0,0,,8,,,68,127
44278,note_off,102,0,0,,8,,,68,127
44279,note_on,1,0,0,,11,,,70,127
44378,note_off,99,0,0,,6,,,78,127
44380,note_off,2,0,0,,11,,,70,127
44380,note_off,0,0,0,,6,,,54,127
44381,note_on,1,0,0,,8,,,56,127
44381,note_on,0,0,0,,6,,,78,127
44483,note_on,102,0,0,,11,,,70,127
44585,note_off,102,0,0,,11,,,70,127
44586,note_on,1,0,0,,12,,,71,127
44685,note_off,99,0,0,,6,,,78,127
44687,note_off,2,0,0,,12,,,71,127
44687,note_off,0,0,0,,8,,,56,127
44688,note_on,1,0,0,,11,,,58,127
44688,note_on,0,0,0,,6,,,78,127
44790,note_on,102,0,0,,12,,,71,127
44892,note_off,102,0,0,,12,,,71,127
44893,note_on,1,0,0,,1,,,73,127
44992,note_off,99,0,0,,6,,,78,127
44994,note_off,2,0,0,,1,,,73,127
44994,note_off,0,0,0,,11,,,58,127
44995,note_on,1,0,0,,12,,,59,127
44995,note_on,0,0,0,,12,,,47,127
44995,note_on,0,0,0,,3,,,75,127
45097,note_off,102,0,0,,3,,,75,127
45098,note_on,1,0,0,,4,,,76,127
45200,note_off,102,0,0,,4,,,76,127
45201,note_on,1,0,0,,6,,,78,127
45303,note_off,102,0,0,,6,,,78,127
45303,note_off,0,0,0,,12,,,47,127
45303,note_off,0,0,0,,12,,,59,127
45304,note_on,1,0,0,,4,,,40,127
45304,note_on,0,0,0,,4,,,52,127
45304,note_on,0,0,0,,4,,,76,127
45406,note_off,102,0,0,,4,,,76,127
45407,note_on,1,0,0,,3,,,75,127
45509,note_off,102,0,0,,3,,,75,127
45510,note_on,1,0,0,,1,,,73,127
45612,note_off,102,0,0,,1,,,73,127
45612,note_off,0,0,0,,4,,,52,127
45612,note_off,0,0,0,,4,,,40,127
45613,note_on,1,0,0,,6,,,54,127
45613,note_on,0,0,0,,12,,,71,127
45613,note_on,0,0,0,,3,,,75,127
45919,note_off,306,0,0,,3,,,75,127
45919,note_off,0,0,0,,12,,,71,127
45919,note_off,0,0,0,,6,,,54,127
45920,note_on,1,0,0,,6,,,42,127
45920,note_on,0,0,0,,11,,,70,127
45920,note_on,0,0,0,,1,,,73,127
46226,note_off,306,0,0,,1,,,73,127
46226,note_off,0,0,0,,11,,,70,127
46226,note_off,0,0,0,,6,,,42,127
46227,note_on,1,0,0,,3,,,39,127
46227,note_on,0,0,0,,3,,,51,127
46227,note_on,0,0,0,,6,,,78,127
46329,note_off,102,0,0,,6,,,78,127
46330,note_on,1,0,0,,4,,,64,127
46432,note_off,102,0,0,,4,,,64,127
46433,note_on,1,0,0,,6,,,66,127
46535,note_off,102,0,0,,6,,,66,127
46535,note_off,0,0,0,,3,,,51,127
46535,note_off,0,0,0,,3,,,39,127
46536,note_on,1,0,0,,4,,,40,127
46536,note_on,0,0,0,,4,,,52,127
46536,note_on,0,0,0,,6,,,78,127
46638,note_off,102,0,0,,6,,,78,127
46639,note_on,1,0,0,,6,,,66,127
46741,note_off,102,0,0,,6,,,66,127
46742,note_on,1,0,0,,8,,,68,127
46844,note_off,102,0,0,,8,,,68,127
46844,note_off,0,0,0,,4,,,52,127
46844,note_off,0,0,0,,4,,,40,127
46845,note_on,1,0,0,,6,,,42,127
46845,note_on,0,0,0,,6,,,54,127
46845,note_on,0,0,0,,6,,,78,127
46947,note_off,102,0,0,,6,,,78,127
46948,note_on,1,0,0,,8,,,68,127
47050,note_off,102,0,0,,8,,,68,127
47051,note_on,1,0,0,,11,,,70,127
47153,note_off,102,0,0,,11,,,70,127
47153,note_off,0,0,0,,6,,,54,127
47153,note_off,0,0,0,,6,,,42,127
47154,note_on,1,0,0,,8,,,56,127
47154,note_on,0,0,0,,8,,,44,127
47154,note_on,0,0,0,,6,,,78,127
47256,note_off,102,0,0,,6,,,78,127
47257,note_on,1,0,0,,11,,,70,127
47359,note_off,102,0,0,,11,,,70,127
47360,note_on,1,0,0,,12,,,71,127
47462,note_off,102,0,0,,12,,,71,127
47462,note_off,0,0,0,,8,,,44,127
47462,note_off,0,0,0,,8,,,56,127
47463,note_on,1,0,0,,11,,,46,127
47463,note_on,0,0,0,,11,,,58,127
47463,note_on,0,0,0,,6,,,78,127
47565,note_off,102,0,0,,6,,,78,127
47566,note_on,1,0,0,,12,,,71,127
47668,note_off,102,0,0,,12,,,71,127
47669,note_on,1,0,0,,1,,,73,127
47771,note_off,102,0,0,,1,,,73,127
47771,note_off,0,0,0,,11,,,58,127
47771,note_off,0,0,0,,11,,,46,127
47772,note_on,1,0,0,,12,,,47,127
47772,note_on,0,0,0,,12,,,59,127
47772,note_on,0,0,0,,3,,,75,127
47874,note_off,102,0,0,,3,,,75,127
47875,note_on,1,0,0,,4,,,76,127
47977,note_off,102,0,0,,4,,,76,127
47978,note_on,1,0,0,,6,,,78,127
48080,note_off,102,0,0,,6,,,78,127
48080,note_off,0,0,0,,12,,,59,127
48080,note_off,0,0,0,,12,,,47,127
48081,note_on,1,0,0,,4,,,40,127
48081,note_on,0,0,0,,4,,,52,127
48081,note_on,0,0,0,,4,,,76,127
48183,note_off,102,0,0,,4,,,76,127
48184,note_on,1,0,0,,3,,,75,127
48286,note_off,102,0,0,,3,,,75,127
48287,note_on,1,0,0,,1,,,73,127
48389,note_off,102,0,0,,1,,,73,127
48389,note_off,0,0,0,,4,,,52,127
48389,note_off,0,0,0,,4,,,40,127
48390,note_on,1,0,0,,6,,,54,127
48390,note_on,0,0,0,,6,,,42,127
48390,note_on,0,0,0,,3,,,75,127
48390,note_on,0,0,0,,12,,,71,127
48696,note_off,306,0,0,,12,,,71,127
48696,note_off,0,0,0,,3,,,75,127
48696,note_off,0,0,0,,6,,,42,127
48696,note_off,0,0,0,,6,,,54,127
48697,note_on,1,0,0,,6,,,42,127
48697,note_on,0,0,0,,1,,,73,127
48697,note_on,0,0,0,,11,,,70,127
49003,note_off,306,0,0,,11,,,70,127
49003,note_off,0,0,0,,1,,,73,127
49003,note_off,0,0,0,,6,,,42,127
49004,note_on,1,0,0,,12,,,47,127
49004,note_on,0,0,0,,12,,,59,127
49004,note_on,0,0,0,,12,,,71,127
49106,note_off,102,0,0,,12,,,71,127
49107,note_on,1,0,0,,12,,,83,127
49209,note_off,102,0,0,,12,,,83,127
49210,note_on,1,0,0,,6,,,78,127
49312,note_off,102,0,0,,6,,,78,127
49313,note_on,1,0,0,,3,,,75,127
49415,note_off,102,0,0,,3,,,75,127
49416,note_on,1,0,0,,12,,,71,127
49518,note_off,102,0,0,,12,,,71,127
49519,note_on,1,0,0,,6,,,66,127
49567,note_off,48,0,0,,12,,,59,127
49567,note_off,0,0,0,,12,,,47,127
49621,note_off,54,0,0,,6,,,66,127
49622,note_on,1,0,0,,12,,,59,127
49622,note_on,0,0,0,,3,,,51,127
49622,note_on,0,0,0,,3,,,75,127
49622,note_on,0,0,0,,12,,,71,127
49928,note_off,306,0,0,,3,,,51,127
49928,note_off,0,0,0,,12,,,59,127
49929,note_on,1,0,0,,4,,,52,127
49929,note_on,0,0,0,,1,,,61,127
50235,note_off,306,0,0,,1,,,61,127
50235,note_off,0,0,0,,4,,,52,127
50236,note_on,1,0,0,,6,,,54,127
50236,note_on,0,0,0,,3,,,63,127
50236,note_on,0,0,0,,12,,,59,127
50462,note_off,226,0,0,,12,,,71,127
50462,note_off,0,0,0,,3,,,75,127
50543,note_off,81,0,0,,12,,,59,127
50543,note_off,0,0,0,,3,,,63,127
50544,note_on,1,0,0,,1,,,61,127
50544,note_on,0,0,0,,4,,,76,127
50544,note_on,0,0,0,,6,,,78,127
50646,note_off,102,0,0,,6,,,78,127
50646,note_off,0,0,0,,4,,,76,127
50647,note_on,1,0,0,,3,,,75,127
50749,note_off,102,0,0,,3,,,75,127
50750,note_on,1,0,0,,1,,,73,127
50852,note_off,102,0,0,,1,,,73,127
50852,note_off,0,0,0,,1,,,61,127
50852,note_off,0,0,0,,6,,,54,127
50853,note_on,1,0,0,,12,,,47,127
50853,note_on,0,0,0,,12,,,59,127
50853,note_on,0,0,0,,12,,,71,127
50955,note_off,102,0,0,,12,,,71,127
50956,note_on,1,0,0,,12,,,83,127
51058,note_off,102,0,0,,12,,,83,127
51059,note_on,1,0,0,,6,,,78,127
51161,note_off,102,0,0,,6,,,78,127
51162,note_on,1,0,0,,3,,,75,127
51264,note_off,102,0,0,,3,,,75,127
51265,note_on,1,0,0,,12,,,71,127
51367,note_off,102,0,0,,12,,,71,127
51368,note_on,1,0,0,,6,,,66,127
51416,note_off,48,0,0,,12,,,59,127
51416,note_off,0,0,0,,12,,,47,127
51470,note_off,54,0,0,,6,,,66,127
51471,note_on,1,0,0,,12,,,59,127
51471,note_on,0,0,0,,3,,,51,127
51471,note_on,0,0,0,,12,,,71,127
51471,note_on,0,0,0,,3,,,75,127
51777,note_off,306,0,0,,3,,,51,127
51777,note_off,0,0,0,,12,,,59,127
51778,note_on,1,0,0,,1,,,61,127
51778,note_on,0,0,0,,4,,,52,127
52084,note_off,306,0,0,,4,,,52,127
52084,note_off,0,0,0,,1,,,61,127
52085,note_on,1,0,0,,6,,,54,127
52085,note_on,0,0,0,,12,,,59,127
52085,note_on,0,0,0,,3,,,63,127
52255,note_off,170,0,0,,3,,,75,127
52255,note_off,0,0,0,,12,,,71,127
52392,note_off,137,0,0,,3,,,63,127
52392,note_off,0,0,0,,12,,,59,127
52393,note_on,1,0,0,,1,,,61,127
52393,note_on,0,0,0,,4,,,76,127
52393,note_on,0,0,0,,6,,,78,127
52495,note_off,102,0,0,,6,,,78,127
52495,note_off,0,0,0,,4,,,76,127
52496,note_on,1,0,0,,3,,,75,127
52598,note_off,102,0,0,,3,,,75,127
52599,note_on,1,0,0,,1,,,73,127
52701,note_off,102,0,0,,1,,,73,127
52701,note_off,0,0,0,,1,,,61,127
52701,note_off,0,0,0,,6,,,54,127
52702,note_on,1,0,0,,12,,,47,127
52702,note_on,0,0,0,,12,,,59,127
52702,note_on,0,0,0,,12,,,71,127
52804,note_off,102,0,0,,12,,,71,127
52805,note_on,1,0,0,,12,,,83,127
52907,note_off,102,0,0,,12,,,83,127
52908,note_on,1,0,0,,6,,,78,127
53010,note_off,102,0,0,,6,,,78,127
53011,note_on,1,0,0,,3,,,75,127
53113,note_off,102,0,0,,3,,,75,127
53114,note_on,1,0,0,,12,,,71,127
53216,note_off,102,0,0,,12,,,71,127
53217,note_on,1,0,0,,6,,,66,127
53319,note_off,102,0,0,,6,,,66,127
53319,note_off,0,0,0,,12,,,59,127
53319,note_off,0,0,0,,12,,,47,127
53320,note_on,1,0,0,,3,,,51,127
53320,note_on,0,0,0,,3,,,63,127
53422,note_off,102,0,0,,3,,,63,127
53423,note_on,1,0,0,,12,,,59,127
53525,note_off,102,0,0,,12,,,59,127
53526,note_on,1,0,0,,6,,,66,127
53628,note_off,102,0,0,,6,,,66,127
53628,note_off,0,0,0,,3,,,51,127
53629,note_on,1,0,0,,4,,,40,127
53629,note_on,0,0,0,,4,,,52,127
53629,note_on,0,0,0,,8,,,68,127
53731,note_off,102,0,0,,8,,,68,127
53732,note_on,1,0,0,,12,,,59,127
53834,note_off,102,0,0,,12,,,59,127
53835,note_on,1,0,0,,4,,,64,127
53937,note_off,102,0,0,,4,,,64,127
53937,note_off,0,0,0,,4,,,52,127
53937,note_off,0,0,0,,4,,,40,127
53938,note_on,1,0,0,,6,,,42,127
53938,note_on,0,0,0,,6,,,54,127
53938,note_on,0,0,0,,3,,,63,127
53938,note_on,0,0,0,,12,,,59,127
54244,note_off,306,0,0,,12,,,59,127
54244,note_off,0,0,0,,3,,,63,127
54244,note_off,0,0,0,,6,,,54,127
54244,note_off,0,0,0,,6,,,42,127
54245,note_on,1,0,0,,6,,,42,127
54245,note_on,0,0,0,,1,,,61,127
54245,note_on,0,0,0,,11,,,58,127
54551,note_off,306,0,0,,11,,,58,127
54551,note_off,0,0,0,,1,,,61,127
54551,note_off,0,0,0,,6,,,42,127
54552,note_on,1,0,0,,12,,,47,127
54552,note_on,0,0,0,,12,,,59,127
55248,note_off,696,0,0,,12,,,59,127
55473,note_off,225,0,0,,12,,,47,127
55474,note_on,1,0,0,,12,,,47,127
55474,note_on,0,0,0,,12,,,59,127
55780,note_off,306,0,0,,12,,,59,127
55780,note_off,0,0,0,,12,,,47,127
55781,note_on,1,0,0,,12,,,59,127
55781,note_on,0,0,0,,2,,,62,127
56087,note_off,306,0,0,,2,,,62,127
56087,note_off,0,0,0,,12,,,59,127
56088,note_on,1,0,0,,10,,,57,127
56088,note_on,0,0,0,,2,,,62,127
56394,note_off,306,0,0,,2,,,62,127
56394,note_off,0,0,0,,10,,,57,127
56395,note_on,1,0,0,,8,,,56,127
56395,note_on,0,0,0,,2,,,62,127
56701,note_off,306,0,0,,2,,,62,127
56701,note_off,0,0,0,,8,,,56,127
56702,note_on,1,0,0,,5,,,53,127
56702,note_on,0,0,0,,2,,,62,127
57008,note_off,306,0,0,,2,,,62,127
57008,note_off,0,0,0,,5,,,53,127
57009,note_on,1,0,0,,2,,,50,127
57009,note_on,0,0,0,,2,,,62,127
57315,note_off,306,0,0,,2,,,62,127
57315,note_off,0,0,0,,2,,,50,127
57316,note_on,1,0,0,,12,,,47,127
57316,note_on,0,0,0,,2,,,62,127
57622,note_off,306,0,0,,2,,,62,127
57622,note_off,0,0,0,,12,,,47,127
57623,note_on,1,0,0,,8,,,44,127
57623,note_on,0,0,0,,2,,,62,127
57645,note_on,22,0,0,,4,,,64,127
57667,note_on,22,0,0,,5,,,65,127
57699,note_off,32,0,0,,2,,,62,127
57721,note_off,22,0,0,,4,,,64,127
57928,note_off,207,0,0,,5,,,65,127
57928,note_off,0,0,0,,8,,,44,127
57929,note_on,1,0,0,,4,,,40,127
57929,note_on,0,0,0,,4,,,64,127
58235,note_off,306,0,0,,4,,,64,127
58235,note_off,0,0,0,,4,,,40,127
58236,note_on,1,0,0,,10,,,45,127
58236,note_on,0,0,0,,2,,,62,127
58338,note_off,102,0,0,,2,,,62,127
58339,note_on,1,0,0,,0,,,60,127
58441,note_off,102,0,0,,0,,,60,127
58442,note_on,1,0,0,,2,,,62,127
58544,note_off,102,0,0,,2,,,62,127
58545,note_on,1,0,0,,10,,,33,127
58545,note_on,0,0,0,,0,,,60,127
58698,note_off,153,0,0,,0,,,60,127
58699,note_on,1,0,0,,12,,,59,127
58852,note_off,153,0,0,,12,,,59,127
58853,note_on,1,0,0,,10,,,57,127
59125,note_off,272,0,0,,10,,,57,127
59159,note_off,34,0,0,,10,,,45,127
59160,note_off,1,0,0,,10,,,33,127
59161,note_on,1,0,0,,10,,,45,127
59161,note_on,0,0,0,,0,,,60,127
59183,note_on,22,0,0,,2,,,62,127
59205,note_on,22,0,0,,4,,,64,127
59237,note_off,32,0,0,,0,,,60,127
59259,note_off,22,0,0,,2,,,62,127
59466,note_off,207,0,0,,4,,,64,127
59466,note_off,0,0,0,,10,,,45,127
59467,note_on,1,0,0,,0,,,60,127
59467,note_on,0,0,0,,4,,,64,127
59773,note_off,306,0,0,,4,,,64,127
59773,note_off,0,0,0,,0,,,60,127
59774,note_on,1,0,0,,12,,,59,127
59774,note_on,0,0,0,,4,,,64,127
60080,note_off,306,0,0,,4,,,64,127
60080,note_off,0,0,0,,12,,,59,127
60081,note_on,1,0,0,,11,,,58,127
60081,note_on,0,0,0,,4,,,64,127
60387,note_off,306,0,0,,4,,,64,127
60387,note_off,0,0,0,,11,,,58,127
60388,note_on,1,0,0,,7,,,55,127
60388,note_on,0,0,0,,4,,,64,127
60694,note_off,306,0,0,,4,,,64,127
60694,note_off,0,0,0,,7,,,55,127
60695,note_on,1,0,0,,4,,,52,127
60695,note_on,0,0,0,,4,,,64,127
61001,note_off,306,0,0,,4,,,64,127
61001,note_off,0,0,0,,4,,,52,127
61002,note_on,1,0,0,,1,,,49,127
61002,note_on,0,0,0,,4,,,64,127
61308,note_off,306,0,0,,4,,,64,127
61308,note_off,0,0,0,,1,,,49,127
61309,note_on,1,0,0,,11,,,46,127
61309,note_on,0,0,0,,4,,,64,127
61341,note_on,32,0,0,,6,,,66,127
61373,note_on,32,0,0,,7,,,67,127
61386,note_off,13,0,0,,4,,,64,127
61418,note_off,32,0,0,,6,,,66,127
61616,note_off,198,0,0,,11,,,46,127
61617,note_on,1,0,0,,6,,,42,127
61617,note_on,0,0,0,,6,,,66,127
61619,note_off,2,0,0,,7,,,67,127
61923,note_off,304,0,0,,6,,,66,127
61923,note_off,0,0,0,,6,,,42,127
61924,note_on,1,0,0,,12,,,47,127
61924,note_on,0,0,0,,4,,,64,127
62026,note_off,102,0,0,,4,,,64,127
62027,note_on,1,0,0,,2,,,62,127
62129,note_off,102,0,0,,2,,,62,127
62130,note_on,1,0,0,,4,,,64,127
62232,note_off,102,0,0,,4,,,64,127
62233,note_on,1,0,0,,2,,,62,127
62389,note_off,156,0,0,,2,,,62,127
62390,note_on,1,0,0,,1,,,61,127
62540,note_off,150,0,0,,1,,,61,127
62541,note_on,1,0,0,,12,,,59,127
62813,note_off,272,0,0,,12,,,59,127
62847,note_off,34,0,0,,12,,,47,127
62848,note_on,1,0,0,,12,,,47,127
62848,note_on,0,0,0,,2,,,62,127
62870,note_on,22,0,0,,4,,,64,127
62891,note_on,21,0,0,,6,,,66,127
62925,note_off,34,0,0,,2,,,62,127
62947,note_off,22,0,0,,4,,,64,127
63153,note_off,206,0,0,,6,,,66,127
63154,note_off,1,0,0,,12,,,47,127
63155,note_on,1,0,0,,2,,,62,127
63155,note_on,0,0,0,,6,,,66,127
63461,note_off,306,0,0,,6,,,66,127
63461,note_off,0,0,0,,2,,,62,127
63462,note_on,1,0,0,,1,,,61,127
63462,note_on,0,0,0,,6,,,66,127
63768,note_off,306,0,0,,6,,,66,127
63768,note_off,0,0,0,,1,,,61,127
63769,note_on,1,0,0,,0,,,60,127
63769,note_on,0,0,0,,6,,,66,127
64075,note_off,306,0,0,,6,,,66,127
64075,note_off,0,0,0,,0,,,60,127
64076,note_on,1,0,0,,10,,,57,127
64076,note_on,0,0,0,,6,,,66,127
64382,note_off,306,0,0,,6,,,66,127
64382,note_off,0,0,0,,10,,,57,127
64383,note_on,1,0,0,,6,,,54,127
64383,note_on,0,0,0,,6,,,66,127
64689,note_off,306,0,0,,6,,,66,127
64689,note_off,0,0,0,,6,,,54,127
64690,note_on,1,0,0,,3,,,51,127
64690,note_on,0,0,0,,6,,,66,127
64996,note_off,306,0,0,,6,,,66,127
64996,note_off,0,0,0,,3,,,51,127
64997,note_on,1,0,0,,0,,,48,127
64997,note_on,0,0,0,,6,,,66,127
65029,note_on,32,0,0,,8,,,68,127
65061,note_on,32,0,0,,10,,,69,127
65074,note_off,13,0,0,,6,,,66,127
65106,note_off,32,0,0,,8,,,68,127
65304,note_off,198,0,0,,0,,,48,127
65305,note_on,1,0,0,,8,,,44,127
65305,note_on,0,0,0,,8,,,68,127
65307,note_off,2,0,0,,10,,,69,127
65611,note_off,304,0,0,,8,,,68,127
65611,note_off,0,0,0,,8,,,44,127
65612,note_on,1,0,0,,1,,,49,127
65612,note_on,0,0,0,,6,,,66,127
65714,note_off,102,0,0,,6,,,66,127
65715,note_on,1,0,0,,5,,,65,127
65817,note_off,102,0,0,,5,,,65,127
65818,note_on,1,0,0,,6,,,66,127
65920,note_off,102,0,0,,6,,,66,127
65921,note_on,1,0,0,,1,,,37,127
65921,note_on,0,0,0,,5,,,65,127
66077,note_off,156,0,0,,5,,,65,127
66078,note_on,1,0,0,,3,,,63,127
66228,note_off,150,0,0,,3,,,63,127
66229,note_on,1,0,0,,1,,,61,127
66501,note_off,272,0,0,,1,,,61,127
66535,note_off,34,0,0,,1,,,49,127
66536,note_off,1,0,0,,1,,,37,127
66537,note_on,1,0,0,,1,,,49,127
66537,note_on,0,0,0,,1,,,73,127
66639,note_off,102,0,0,,1,,,73,127
66640,note_on,1,0,0,,1,,,61,127
66742,note_off,102,0,0,,1,,,61,127
66743,note_on,1,0,0,,5,,,65,127
66845,note_off,102,0,0,,5,,,65,127
66846,note_on,1,0,0,,1,,,61,127
66846,note_on,0,0,0,,8,,,68,127
67152,note_off,306,0,0,,8,,,68,127
67152,note_off,0,0,0,,1,,,61,127
67153,note_on,1,0,0,,12,,,59,127
67153,note_on,0,0,0,,8,,,68,127
67459,note_off,306,0,0,,8,,,68,127
67459,note_off,0,0,0,,12,,,59,127
67460,note_on,1,0,0,,10,,,57,127
67460,note_on,0,0,0,,1,,,73,127
67562,note_off,102,0,0,,1,,,73,127
67563,note_on,1,0,0,,1,,,61,127
67665,note_off,102,0,0,,1,,,61,127
67666,note_on,1,0,0,,6,,,66,127
67768,note_off,102,0,0,,6,,,66,127
67768,note_off,0,0,0,,10,,,57,127
67769,note_on,1,0,0,,8,,,56,127
67769,note_on,0,0,0,,10,,,69,127
68075,note_off,306,0,0,,10,,,69,127
68075,note_off,0,0,0,,8,,,56,127
68076,note_on,1,0,0,,6,,,54,127
68076,note_on,0,0,0,,10,,,69,127
68364,note_off,288,0,0,,10,,,69,127
68380,note_off,16,0,0,,1,,,49,127
68382,note_off,2,0,0,,6,,,54,127
68383,note_on,1,0,0,,1,,,49,127
68383,note_on,0,0,0,,1,,,73,127
68485,note_on,102,0,0,,1,,,61,127
68587,note_off,102,0,0,,1,,,61,127
68588,note_on,1,0,0,,5,,,65,127
68690,note_off,102,0,0,,5,,,65,127
68691,note_on,1,0,0,,1,,,61,127
68691,note_on,0,0,0,,8,,,68,127
68997,note_off,306,0,0,,8,,,68,127
68997,note_off,0,0,0,,1,,,61,127
68998,note_on,1,0,0,,12,,,59,127
68998,note_on,0,0,0,,8,,,68,127
69304,note_off,306,0,0,,1,,,73,127
69305,note_off,1,0,0,,8,,,68,127
69305,note_off,0,0,0,,12,,,59,127
69306,note_on,1,0,0,,10,,,57,127
69306,note_on,0,0,0,,1,,,73,127
69408,note_on,102,0,0,,1,,,61,127
69510,note_off,102,0,0,,1,,,61,127
69511,note_on,1,0,0,,6,,,66,127
69613,note_off,102,0,0,,6,,,66,127
69613,note_off,0,0,0,,10,,,57,127
69614,note_on,1,0,0,,8,,,56,127
69614,note_on,0,0,0,,10,,,69,127
69920,note_off,306,0,0,,10,,,69,127
69920,note_off,0,0,0,,8,,,56,127
69921,note_on,1,0,0,,6,,,54,127
69921,note_on,0,0,0,,10,,,69,127
70225,note_off,304,0,0,,1,,,49,127
70227,note_off,2,0,0,,1,,,73,127
70228,note_off,1,0,0,,10,,,69,127
70228,note_off,0,0,0,,6,,,54,127
70229,note_on,1,0,0,,12,,,47,127
70229,note_on,0,0,0,,4,,,52,127
70229,note_on,0,0,0,,7,,,55,127
70229,note_on,0,0,0,,1,,,73,127
70331,note_on,102,0,0,,4,,,64,127
70433,note_off,102,0,0,,4,,,64,127
70434,note_on,1,0,0,,7,,,67,127
70533,note_off,99,0,0,,1,,,73,127
70535,note_off,2,0,0,,7,,,67,127
70536,note_on,1,0,0,,1,,,73,127
70842,note_off,306,0,0,,1,,,73,127
70843,note_on,1,0,0,,1,,,73,127
71149,note_off,306,0,0,,1,,,73,127
71149,note_off,0,0,0,,7,,,55,127
71149,note_off,0,0,0,,4,,,52,127
71149,note_off,0,0,0,,12,,,47,127
71150,note_on,1,0,0,,11,,,46,127
71150,note_on,0,0,0,,4,,,52,127
71150,note_on,0,0,0,,7,,,55,127
71150,note_on,0,0,0,,1,,,73,127
71252,note_on,102,0,0,,4,,,64,127
71354,note_off,102,0,0,,4,,,64,127
71355,note_on,1,0,0,,7,,,67,127
71454,note_off,99,0,0,,1,,,73,127
71456,note_off,2,0,0,,7,,,67,127
71457,note_on,1,0,0,,1,,,73,127
71763,note_off,306,0,0,,1,,,73,127
71764,note_on,1,0,0,,1,,,73,127
72070,note_off,306,0,0,,1,,,73,127
72070,note_off,0,0,0,,7,,,55,127
72070,note_off,0,0,0,,4,,,52,127
72070,note_off,0,0,0,,11,,,46,127
72071,note_on,1,0,0,,11,,,46,127
72071,note_on,0,0,0,,4,,,52,127
72071,note_on,0,0,0,,7,,,55,127
72071,note_on,0,0,0,,1,,,73,127
72173,note_on,102,0,0,,4,,,64,127
72275,note_off,102,0,0,,4,,,64,127
72276,note_on,1,0,0,,7,,,67,127
72375,note_off,99,0,0,,1,,,73,127
72377,note_off,2,0,0,,7,,,67,127
72378,note_on,1,0,0,,1,,,73,127
72684,note_off,306,0,0,,1,,,73,127
72685,note_on,1,0,0,,1,,,73,127
72991,note_off,306,0,0,,1,,,73,127
72991,note_off,0,0,0,,7,,,55,127
72991,note_off,0,0,0,,4,,,52,127
72991,note_off,0,0,0,,11,,,46,127
72992,note_on,1,0,0,,10,,,45,127
72992,note_on,0,0,0,,4,,,52,127
72992,note_on,0,0,0,,7,,,55,127
72992,note_on,0,0,0,,1,,,73,127
73094,note_on,102,0,0,,4,,,64,127
73196,note_off,102,0,0,,4,,,64,127
73197,note_on,1,0,0,,7,,,67,127
73296,note_off,99,0,0,,1,,,73,127
73298,note_off,2,0,0,,7,,,67,127
73299,note_on,1,0,0,,1,,,73,127
73605,note_off,306,0,0,,1,,,73,127
73606,note_on,1,0,0,,1,,,73,127
73912,note_off,306,0,0,,1,,,73,127
73912,note_off,0,0,0,,7,,,55,127
73912,note_off,0,0,0,,4,,,52,127
73912,note_off,0,0,0,,10,,,45,127
73913,note_on,1,0,0,,6,,,54,127
73913,note_on,0,0,0,,10,,,45,127
73913,note_on,0,0,0,,2,,,50,127
73913,note_on,0,0,0,,2,,,74,127
74015,note_on,102,0,0,,2,,,62,127
74117,note_off,102,0,0,,2,,,62,127
74118,note_on,1,0,0,,6,,,66,127
74217,note_off,99,0,0,,2,,,74,127
74219,note_off,2,0,0,,6,,,66,127
74220,note_on,1,0,0,,2,,,74,127
74526,note_off,306,0,0,,2,,,74,127
74527,note_on,1,0,0,,2,,,74,127
74833,note_off,306,0,0,,2,,,74,127
74833,note_off,0,0,0,,2,,,50,127
74833,note_off,0,0,0,,10,,,45,127
74833,note_off,0,0,0,,6,,,54,127
74834,note_on,1,0,0,,10,,,45,127
74834,note_on,0,0,0,,2,,,50,127
74834,note_on,0,0,0,,12,,,59,127
74834,note_on,0,0,0,,4,,,52,127
74834,note_on,0,0,0,,2,,,74,127
74936,note_on,102,0,0,,4,,,64,127
74986,note_off,50,0,0,,4,,,52,127
75038,note_off,52,0,0,,4,,,64,127
75039,note_on,1,0,0,,8,,,68,127
75138,note_off,99,0,0,,2,,,74,127
75140,note_off,2,0,0,,8,,,68,127
75141,note_on,1,0,0,,2,,,74,127
75447,note_off,306,0,0,,2,,,74,127
75448,note_on,1,0,0,,2,,,74,127
75754,note_off,306,0,0,,2,,,50,127
75755,note_off,1,0,0,,2,,,74,127
75755,note_off,0,0,0,,12,,,59,127
75755,note_off,0,0,0,,10,,,45,127
75756,note_on,1,0,0,,2,,,50,127
75756,note_on,0,0,0,,10,,,45,127
75756,note_on,0,0,0,,12,,,59,127
75756,note_on,0,0,0,,4,,,52,127
75756,note_on,0,0,0,,2,,,74,127
75858,note_on,102,0,0,,2,,,62,127
75908,note_off,50,0,0,,4,,,52,127
75960,note_off,52,0,0,,2,,,62,127
75961,note_on,1,0,0,,10,,,69,127
76060,note_off,99,0,0,,2,,,74,127
76062,note_off,2,0,0,,10,,,69,127
76063,note_on,1,0,0,,2,,,74,127
76369,note_off,306,0,0,,2,,,74,127
76370,note_on,1,0,0,,2,,,74,127
76676,note_off,306,0,0,,2,,,50,127
76677,note_off,1,0,0,,2,,,74,127
76677,note_off,0,0,0,,12,,,59,127
76677,note_off,0,0,0,,10,,,45,127
76678,note_on,1,0,0,,10,,,45,127
76678,note_on,0,0,0,,4,,,52,127
76678,note_on,0,0,0,,12,,,59,127
76678,note_on,0,0,0,,2,,,50,127
76678,note_on,0,0,0,,1,,,73,127
76780,note_on,102,0,0,,4,,,64,127
76882,note_off,102,0,0,,4,,,64,127
76883,note_on,1,0,0,,10,,,69,127
76982,note_off,99,0,0,,1,,,73,127
76984,note_off,2,0,0,,10,,,69,127
76985,note_on,1,0,0,,1,,,73,127
77291,note_off,306,0,0,,1,,,73,127
77292,note_on,1,0,0,,1,,,73,127
77598,note_off,306,0,0,,2,,,50,127
77599,note_off,1,0,0,,1,,,73,127
77599,note_off,0,0,0,,12,,,59,127
77599,note_off,0,0,0,,4,,,52,127
77599,note_off,0,0,0,,10,,,45,127
77600,note_on,1,0,0,,6,,,54,127
77600,note_on,0,0,0,,4,,,52,127
77600,note_on,0,0,0,,12,,,47,127
77600,note_on,0,0,0,,10,,,57,127
77600,note_on,0,0,0,,3,,,75,127
77702,note_on,102,0,0,,6,,,66,127
77804,note_off,102,0,0,,6,,,66,127
77805,note_on,1,0,0,,10,,,69,127
77904,note_off,99,0,0,,3,,,75,127
77906,note_off,2,0,0,,10,,,69,127
77907,note_on,1,0,0,,3,,,75,127
78213,note_off,306,0,0,,3,,,75,127
78214,note_on,1,0,0,,3,,,75,127
78520,note_off,306,0,0,,3,,,75,127
78520,note_off,0,0,0,,10,,,57,127
78520,note_off,0,0,0,,12,,,47,127
78520,note_off,0,0,0,,4,,,52,127
78520,note_off,0,0,0,,6,,,54,127
78521,note_on,1,0,0,,4,,,52,127
78521,note_on,0,0,0,,12,,,47,127
78521,note_on,0,0,0,,7,,,55,127
78521,note_on,0,0,0,,4,,,76,127
78623,note_on,102,0,0,,4,,,64,127
78725,note_off,102,0,0,,4,,,64,127
78726,note_on,1,0,0,,7,,,67,127
78825,note_off,99,0,0,,4,,,76,127
78827,note_off,2,0,0,,7,,,67,127
78828,note_on,1,0,0,,4,,,76,127
79134,note_off,306,0,0,,4,,,76,127
79135,note_on,1,0,0,,4,,,76,127
79441,note_off,306,0,0,,4,,,76,127
79441,note_off,0,0,0,,7,,,55,127
79441,note_off,0,0,0,,12,,,47,127
79441,note_off,0,0,0,,4,,,52,127
79442,note_on,1,0,0,,11,,,58,127
79442,note_on,0,0,0,,4,,,52,127
79442,note_on,0,0,0,,6,,,54,127
79442,note_on,0,0,0,,12,,,47,127
79442,note_on,0,0,0,,4,,,76,127
79544,note_on,102,0,0,,4,,,64,127
79646,note_off,102,0,0,,4,,,64,127
79647,note_on,1,0,0,,11,,,70,127
79746,note_off,99,0,0,,4,,,76,127
79748,note_off,2,0,0,,11,,,70,127
79749,note_on,1,0,0,,4,,,76,127
80055,note_off,306,0,0,,4,,,76,127
80056,note_on,1,0,0,,4,,,76,127
80362,note_off,306,0,0,,4,,,76,127
80362,note_off,0,0,0,,12,,,47,127
80362,note_off,0,0,0,,6,,,54,127
80362,note_off,0,0,0,,4,,,52,127
80362,note_off,0,0,0,,11,,,58,127
80363,note_on,1,0,0,,12,,,47,127
80363,note_on,0,0,0,,6,,,54,127
80363,note_on,0,0,0,,12,,,59,127
80363,note_on,0,0,0,,4,,,52,127
80363,note_on,0,0,0,,4,,,76,127
80465,note_off,102,0,0,,4,,,76,127
80466,note_on,1,0,0,,6,,,66,127
80568,note_off,102,0,0,,6,,,66,127
80569,note_on,1,0,0,,12,,,71,127
80671,note_off,102,0,0,,12,,,71,127
80672,note_on,1,0,0,,3,,,75,127
80717,note_off,45,0,0,,4,,,52,127
80979,note_off,262,0,0,,3,,,75,127
80979,note_off,0,0,0,,12,,,59,127
80979,note_off,0,0,0,,6,,,54,127
80979,note_off,0,0,0,,12,,,47,127
80980,note_on,1,0,0,,10,,,45,127
80980,note_on,0,0,0,,10,,,57,127
80980,note_on,0,0,0,,3,,,75,127
81082,note_on,102,0,0,,6,,,66,127
81184,note_off,102,0,0,,6,,,66,127
81185,note_on,1,0,0,,12,,,71,127
81211,note_off,26,0,0,,3,,,75,127
81287,note_off,76,0,0,,12,,,71,127
81287,note_off,0,0,0,,10,,,57,127
81287,note_off,0,0,0,,10,,,45,127
81288,note_on,1,0,0,,7,,,43,127
81288,note_on,0,0,0,,7,,,55,127
81288,note_on,0,0,0,,4,,,76,127
81390,note_on,102,0,0,,7,,,67,127
81492,note_off,102,0,0,,7,,,67,127
81493,note_on,1,0,0,,12,,,71,127
81519,note_off,26,0,0,,4,,,76,127
81595,note_off,76,0,0,,12,,,71,127
81595,note_off,0,0,0,,7,,,55,127
81595,note_off,0,0,0,,7,,,43,127
81596,note_on,1,0,0,,6,,,42,127
81596,note_on,0,0,0,,6,,,54,127
81596,note_on,0,0,0,,6,,,78,127
81698,note_on,102,0,0,,10,,,69,127
81800,note_off,102,0,0,,10,,,69,127
81801,note_on,1,0,0,,12,,,71,127
81827,note_off,26,0,0,,6,,,78,127
81903,note_off,76,0,0,,12,,,71,127
81903,note_off,0,0,0,,6,,,54,127
81903,note_off,0,0,0,,6,,,42,127
81904,note_on,1,0,0,,4,,,40,127
81904,note_on,0,0,0,,4,,,52,127
81904,note_on,0,0,0,,7,,,79,127
82006,note_on,102,0,0,,7,,,67,127
82108,note_off,102,0,0,,7,,,67,127
82109,note_on,1,0,0,,12,,,71,127
82135,note_off,26,0,0,,7,,,79,127
82211,note_off,76,0,0,,12,,,71,127
82211,note_off,0,0,0,,4,,,52,127
82211,note_off,0,0,0,,4,,,40,127
82212,note_on,1,0,0,,10,,,45,127
82212,note_on,0,0,0,,10,,,33,127
82212,note_on,0,0,0,,7,,,79,127
82314,note_on,102,0,0,,10,,,69,127
82416,note_off,102,0,0,,10,,,69,127
82417,note_on,1,0,0,,0,,,72,127
82443,note_off,26,0,0,,7,,,79,127
82519,note_off,76,0,0,,0,,,72,127
82519,note_off,0,0,0,,10,,,33,127
82519,note_off,0,0,0,,10,,,45,127
82520,note_on,1,0,0,,12,,,47,127
82520,note_on,0,0,0,,12,,,35,127
82520,note_on,0,0,0,,6,,,78,127
82622,note_on,102,0,0,,10,,,69,127
82724,note_off,102,0,0,,10,,,69,127
82725,note_on,1,0,0,,0,,,72,127
82751,note_off,26,0,0,,6,,,78,127
82827,note_off,76,0,0,,0,,,72,127
82827,note_off,0,0,0,,12,,,35,127
82827,note_off,0,0,0,,12,,,47,127
82828,note_on,1,0,0,,0,,,36,127
82828,note_on,0,0,0,,0,,,48,127
82828,note_on,0,0,0,,4,,,76,127
82930,note_on,102,0,0,,10,,,69,127
83032,note_off,102,0,0,,10,,,69,127
83033,note_on,1,0,0,,0,,,72,127
83059,note_off,26,0,0,,4,,,76,127
83135,note_off,76,0,0,,0,,,72,127
83135,note_off,0,0,0,,0,,,48,127
83135,note_off,0,0,0,,0,,,36,127
83136,note_on,1,0,0,,12,,,47,127
83136,note_on,0,0,0,,12,,,35,127
83136,note_on,0,0,0,,4,,,76,127
83238,note_off,102,0,0,,4,,,76,127
83239,note_on,1,0,0,,3,,,75,127
83341,note_off,102,0,0,,3,,,75,127
83342,note_on,1,0,0,,4,,,76,127
83444,note_off,102,0,0,,4,,,76,127
83444,note_off,0,0,0,,12,,,35,127
83444,note_off,0,0,0,,12,,,47,127
83445,note_on,1,0,0,,12,,,35,127
83445,note_on,0,0,0,,3,,,75,127
83601,note_off,156,0,0,,3,,,75,127
83602,note_on,1,0,0,,1,,,73,127
83752,note_off,150,0,0,,1,,,73,127
83753,note_on,1,0,0,,12,,,71,127
83983,note_off,230,0,0,,12,,,71,127
84059,note_off,76,0,0,,12,,,35,127
84060,note_on,1,0,0,,12,,,59,127
84060,note_on,0,0,0,,6,,,78,127
84060,note_on,0,0,0,,8,,,80,127
84162,note_off,102,0,0,,8,,,80,127
84162,note_off,0,0,0,,6,,,78,127
84163,note_on,1,0,0,,4,,,76,127
84265,note_off,102,0,0,,4,,,76,127
84266,note_on,1,0,0,,6,,,78,127
84368,note_off,102,0,0,,6,,,78,127
84369,note_on,1,0,0,,12,,,71,127
84369,note_on,0,0,0,,8,,,80,127
84675,note_off,306,0,0,,8,,,80,127
84675,note_off,0,0,0,,12,,,71,127
84676,note_on,1,0,0,,10,,,69,127
84676,note_on,0,0,0,,10,,,81,127
84972,note_off,296,0,0,,10,,,81,127
84982,note_off,10,0,0,,10,,,69,127
84983,note_on,1,0,0,,8,,,68,127
84983,note_on,0,0,0,,11,,,82,127
85085,note_off,102,0,0,,11,,,82,127
85086,note_on,1,0,0,,12,,,83,127
85188,note_off,102,0,0,,12,,,83,127
85189,note_on,1,0,0,,1,,,85,127
85291,note_off,102,0,0,,1,,,85,127
85291,note_off,0,0,0,,8,,,68,127
85292,note_on,1,0,0,,6,,,66,127
85292,note_on,0,0,0,,12,,,83,127
85598,note_off,306,0,0,,12,,,83,127
85598,note_off,0,0,0,,6,,,66,127
85599,note_on,1,0,0,,4,,,64,127
85599,note_on,0,0,0,,12,,,83,127
85903,note_off,304,0,0,,12,,,59,127
85905,note_off,2,0,0,,12,,,83,127
85905,note_off,0,0,0,,4,,,64,127
85906,note_on,1,0,0,,12,,,59,127
85906,note_on,0,0,0,,6,,,78,127
85906,note_on,0,0,0,,8,,,80,127
86008,note_off,102,0,0,,8,,,80,127
86008,note_off,0,0,0,,6,,,78,127
86009,note_on,1,0,0,,4,,,76,127
86111,note_off,102,0,0,,4,,,76,127
86112,note_on,1,0,0,,6,,,78,127
86214,note_off,102,0,0,,6,,,78,127
86215,note_on,1,0,0,,12,,,71,127
86215,note_on,0,0,0,,8,,,80,127
86521,note_off,306,0,0,,8,,,80,127
86521,note_off,0,0,0,,12,,,71,127
86522,note_on,1,0,0,,10,,,69,127
86522,note_on,0,0,0,,10,,,81,127
86818,note_off,296,0,0,,10,,,81,127
86828,note_off,10,0,0,,10,,,69,127
86829,note_on,1,0,0,,8,,,68,127
86829,note_on,0,0,0,,11,,,82,127
86931,note_off,102,0,0,,11,,,82,127
86932,note_on,1,0,0,,12,,,83,127
87034,note_off,102,0,0,,12,,,83,127
87035,note_on,1,0,0,,1,,,85,127
87137,note_off,102,0,0,,1,,,85,127
87137,note_off,0,0,0,,8,,,68,127
87138,note_on,1,0,0,,6,,,66,127
87138,note_on,0,0,0,,12,,,83,127
87444,note_off,306,0,0,,12,,,83,127
87444,note_off,0,0,0,,6,,,66,127
87445,note_on,1,0,0,,4,,,64,127
87445,note_on,0,0,0,,12,,,83,127
87717,note_off,272,0,0,,12,,,83,127
87749,note_off,32,0,0,,12,,,59,127
87751,note_off,2,0,0,,4,,,64,127
87752,note_on,1,0,0,,10,,,57,127
87752,note_on,0,0,0,,10,,,69,127
87752,note_on,0,0,0,,1,,,85,127
87854,note_off,102,0,0,,1,,,85,127
87855,note_on,1,0,0,,3,,,87,127
87957,note_off,102,0,0,,3,,,87,127
87958,note_on,1,0,0,,4,,,88,127
88060,note_off,102,0,0,,4,,,88,127
88060,note_off,0,0,0,,10,,,69,127
88060,note_off,0,0,0,,10,,,57,127
88061,note_on,1,0,0,,10,,,69,127
88061,note_on,0,0,0,,10,,,57,127
88061,note_on,0,0,0,,6,,,78,127
88367,note_off,306,0,0,,10,,,57,127
88367,note_off,0,0,0,,10,,,69,127
88368,note_on,1,0,0,,10,,,57,127
88368,note_on,0,0,0,,10,,,69,127
88470,note_off,102,0,0,,6,,,78,127
88471,note_on,1,0,0,,8,,,80,127
88573,note_off,102,0,0,,8,,,80,127
88574,note_on,1,0,0,,10,,,81,127
88676,note_off,102,0,0,,10,,,81,127
88676,note_off,0,0,0,,10,,,69,127
88676,note_off,0,0,0,,10,,,57,127
88677,note_on,1,0,0,,12,,,59,127
88677,note_on,0,0,0,,10,,,69,127
88677,note_on,0,0,0,,12,,,71,127
88983,note_off,306,0,0,,10,,,69,127
88984,note_on,1,0,0,,6,,,66,127
89086,note_off,102,0,0,,12,,,71,127
89087,note_on,1,0,0,,1,,,73,127
89189,note_off,102,0,0,,1,,,73,127
89190,note_on,1,0,0,,3,,,75,127
89292,note_off,102,0,0,,3,,,75,127
89292,note_off,0,0,0,,6,,,66,127
89293,note_on,1,0,0,,8,,,68,127
89293,note_on,0,0,0,,4,,,76,127
89395,note_off,102,0,0,,4,,,76,127
89396,note_on,1,0,0,,6,,,78,127
89498,note_off,102,0,0,,6,,,78,127
89499,note_on,1,0,0,,8,,,80,127
89600,note_off,101,0,0,,12,,,59,127
89601,note_off,1,0,0,,8,,,80,127
89601,note_off,0,0,0,,8,,,68,127
89602,note_on,1,0,0,,10,,,57,127
89602,note_on,0,0,0,,10,,,69,127
89602,note_on,0,0,0,,6,,,78,127
89704,note_off,102,0,0,,6,,,78,127
89705,note_on,1,0,0,,8,,,80,127
89807,note_off,102,0,0,,8,,,80,127
89808,note_on,1,0,0,,10,,,81,127
89910,note_off,102,0,0,,10,,,81,127
89910,note_off,0,0,0,,10,,,69,127
89910,note_off,0,0,0,,10,,,57,127
89911,note_on,1,0,0,,4,,,64,127
89911,note_on,0,0,0,,12,,,59,127
89911,note_on,0,0,0,,8,,,68,127
89911,note_on,0,0,0,,8,,,80,127
90217,note_off,306,0,0,,8,,,80,127
90217,note_off,0,0,0,,8,,,68,127
90217,note_off,0,0,0,,4,,,64,127
90218,note_on,1,0,0,,6,,,66,127
90218,note_on,0,0,0,,6,,,78,127
90524,note_off,306,0,0,,6,,,78,127
90524,note_off,0,0,0,,6,,,66,127
90524,note_off,0,0,0,,12,,,59,127
90525,note_on,1,0,0,,4,,,64,127
90525,note_on,0,0,0,,6,,,78,127
90525,note_on,0,0,0,,3,,,75,127
90831,note_off,306,0,0,,4,,,64,127
90832,note_on,1,0,0,,4,,,52,127
91138,note_off,306,0,0,,3,,,75,127
91138,note_off,0,0,0,,6,,,78,127
91139,note_on,1,0,0,,4,,,76,127
91369,note_off,230,0,0,,4,,,76,127
91445,note_off,76,0,0,,4,,,52,127
91446,note_on,1,0,0,,7,,,67,127
91446,note_on,0,0,0,,12,,,71,127
91548,note_off,102,0,0,,7,,,67,127
91549,note_on,1,0,0,,12,,,59,127
91651,note_on,102,0,0,,6,,,66,127
91753,note_off,102,0,0,,6,,,66,127
91753,note_off,0,0,0,,12,,,71,127
91754,note_on,1,0,0,,7,,,67,127
91754,note_on,0,0,0,,12,,,71,127
92060,note_off,306,0,0,,12,,,71,127
92060,note_off,0,0,0,,7,,,67,127
92061,note_on,1,0,0,,7,,,67,127
92061,note_on,0,0,0,,12,,,71,127
92333,note_off,272,0,0,,12,,,71,127
92365,note_off,32,0,0,,12,,,59,127
92367,note_off,2,0,0,,7,,,67,127
92368,note_on,1,0,0,,10,,,69,127
92368,note_on,0,0,0,,4,,,76,127
92470,note_off,102,0,0,,10,,,69,127
92471,note_on,1,0,0,,0,,,60,127
92573,note_on,102,0,0,,8,,,68,127
92675,note_off,102,0,0,,8,,,68,127
92675,note_off,0,0,0,,4,,,76,127
92676,note_on,1,0,0,,10,,,69,127
92676,note_on,0,0,0,,4,,,76,127
92982,note_off,306,0,0,,4,,,76,127
92982,note_off,0,0,0,,10,,,69,127
92983,note_on,1,0,0,,10,,,69,127
92983,note_on,0,0,0,,4,,,76,127
93255,note_off,272,0,0,,4,,,76,127
93287,note_off,32,0,0,,0,,,60,127
93289,note_off,2,0,0,,10,,,69,127
93290,note_on,1,0,0,,10,,,57,127
93290,note_on,0,0,0,,0,,,84,127
93392,note_off,102,0,0,,0,,,84,127
93393,note_on,1,0,0,,10,,,81,127
93495,note_off,102,0,0,,10,,,81,127
93496,note_on,1,0,0,,6,,,78,127
93598,note_off,102,0,0,,6,,,78,127
93599,note_on,1,0,0,,3,,,75,127
93701,note_off,102,0,0,,3,,,75,127
93702,note_on,1,0,0,,0,,,72,127
93804,note_off,102,0,0,,0,,,72,127
93805,note_on,1,0,0,,10,,,69,127
93907,note_off,102,0,0,,10,,,69,127
93908,note_on,1,0,0,,10,,,45,127
93908,note_on,0,0,0,,6,,,66,127
94010,note_off,102,0,0,,6,,,66,127
94011,note_on,1,0,0,,10,,,69,127
94113,note_off,102,0,0,,10,,,69,127
94114,note_on,1,0,0,,6,,,66,127
94215,note_off,101,0,0,,10,,,57,127
94216,note_off,1,0,0,,6,,,66,127
94216,note_off,0,0,0,,10,,,45,127
94217,note_on,1,0,0,,12,,,59,127
94217,note_on,0,0,0,,4,,,64,127
94217,note_on,0,0,0,,7,,,67,127
94524,note_on,307,0,0,,12,,,47,127
94830,note_off,306,0,0,,12,,,47,127
94830,note_off,0,0,0,,7,,,67,127
94830,note_off,0,0,0,,4,,,64,127
94831,note_on,1,0,0,,12,,,47,127
94831,note_on,0,0,0,,6,,,66,127
94831,note_on,0,0,0,,3,,,63,127
95137,note_off,306,0,0,,12,,,59,127
95138,note_off,1,0,0,,3,,,63,127
95138,note_off,0,0,0,,6,,,66,127
95138,note_off,0,0,0,,12,,,47,127
95139,note_on,1,0,0,,7,,,67,127
95139,note_on,0,0,0,,12,,,71,127
95241,note_off,102,0,0,,7,,,67,127
95242,note_on,1,0,0,,12,,,59,127
95344,note_on,102,0,0,,6,,,66,127
95446,note_off,102,0,0,,6,,,66,127
95446,note_off,0,0,0,,12,,,71,127
95447,note_on,1,0,0,,7,,,67,127
95447,note_on,0,0,0,,12,,,71,127
95753,note_off,306,0,0,,12,,,71,127
95753,note_off,0,0,0,,7,,,67,127
95754,note_on,1,0,0,,7,,,67,127
95754,note_on,0,0,0,,12,,,71,127
95978,note_off,224,0,0,,12,,,59,127
96026,note_off,48,0,0,,12,,,71,127
96060,note_off,34,0,0,,7,,,67,127
96061,note_on,1,0,0,,10,,,69,127
96061,note_on,0,0,0,,4,,,76,127
96163,note_off,102,0,0,,10,,,69,127
96164,note_on,1,0,0,,0,,,60,127
96266,note_on,102,0,0,,8,,,68,127
96368,note_off,102,0,0,,8,,,68,127
96368,note_off,0,0,0,,4,,,76,127
96369,note_on,1,0,0,,10,,,69,127
96369,note_on,0,0,0,,4,,,76,127
96675,note_off,306,0,0,,4,,,76,127
96675,note_off,0,0,0,,10,,,69,127
96676,note_on,1,0,0,,10,,,69,127
96676,note_on,0,0,0,,4,,,76,127
96900,note_off,224,0,0,,0,,,60,127
96948,note_off,48,0,0,,4,,,76,127
96982,note_off,34,0,0,,10,,,69,127
96983,note_on,1,0,0,,10,,,57,127
96983,note_on,0,0,0,,0,,,84,127
97085,note_off,102,0,0,,0,,,84,127
97086,note_on,1,0,0,,10,,,81,127
97188,note_off,102,0,0,,10,,,81,127
97189,note_on,1,0,0,,6,,,78,127
97291,note_off,102,0,0,,6,,,78,127
97292,note_on,1,0,0,,3,,,75,127
97394,note_off,102,0,0,,3,,,75,127
97395,note_on,1,0,0,,0,,,72,127
97497,note_off,102,0,0,,0,,,72,127
97498,note_on,1,0,0,,10,,,69,127
97600,note_off,102,0,0,,10,,,69,127
97600,note_off,0,0,0,,10,,,57,127
97601,note_on,1,0,0,,10,,,45,127
97601,note_on,0,0,0,,6,,,66,127
97703,note_off,102,0,0,,6,,,66,127
97704,note_on,1,0,0,,10,,,69,127
97806,note_off,102,0,0,,10,,,69,127
97807,note_on,1,0,0,,6,,,66,127
97909,note_off,102,0,0,,6,,,66,127
97909,note_off,0,0,0,,10,,,45,127
97910,note_on,1,0,0,,12,,,59,127
97910,note_on,0,0,0,,4,,,64,127
97910,note_on,0,0,0,,7,,,67,127
98217,note_on,307,0,0,,12,,,47,127
98523,note_off,306,0,0,,12,,,47,127
98523,note_off,0,0,0,,7,,,67,127
98523,note_off,0,0,0,,4,,,64,127
98523,note_off,0,0,0,,12,,,59,127
98524,note_on,1,0,0,,12,,,47,127
98524,note_on,0,0,0,,6,,,66,127
98524,note_on,0,0,0,,3,,,63,127
98780,note_off,256,0,0,,3,,,63,127
98780,note_off,0,0,0,,6,,,66,127
98830,note_off,50,0,0,,12,,,47,127
98831,note_on,1,0,0,,8,,,44,127
98831,note_on,0,0,0,,8,,,56,127
98831,note_on,0,0,0,,12,,,83,127
98933,note_off,102,0,0,,12,,,83,127
98934,note_on,1,0,0,,10,,,69,127
99036,note_off,102,0,0,,10,,,69,127
99037,note_on,1,0,0,,12,,,71,127
99139,note_off,102,0,0,,12,,,71,127
99139,note_off,0,0,0,,8,,,56,127
99139,note_off,0,0,0,,8,,,44,127
99140,note_on,1,0,0,,10,,,45,127
99140,note_on,0,0,0,,10,,,57,127
99140,note_on,0,0,0,,12,,,83,127
99242,note_on,102,0,0,,12,,,71,127
99344,note_off,102,0,0,,12,,,71,127
99345,note_on,1,0,0,,1,,,73,127
99371,note_off,26,0,0,,12,,,83,127
99447,note_off,76,0,0,,1,,,73,127
99447,note_off,0,0,0,,10,,,57,127
99447,note_off,0,0,0,,10,,,45,127
99448,note_on,1,0,0,,12,,,47,127
99448,note_on,0,0,0,,12,,,59,127
99448,note_on,0,0,0,,12,,,83,127
99550,note_on,102,0,0,,1,,,73,127
99652,note_off,102,0,0,,1,,,73,127
99653,note_on,1,0,0,,3,,,75,127
99679,note_off,26,0,0,,12,,,83,127
99755,note_off,76,0,0,,3,,,75,127
99755,note_off,0,0,0,,12,,,59,127
99755,note_off,0,0,0,,12,,,47,127
99756,note_on,1,0,0,,1,,,49,127
99756,note_on,0,0,0,,1,,,61,127
99756,note_on,0,0,0,,12,,,83,127
99858,note_on,102,0,0,,3,,,75,127
99960,note_off,102,0,0,,3,,,75,127
99961,note_on,1,0,0,,4,,,76,127
99987,note_off,26,0,0,,12,,,83,127
100063,note_off,76,0,0,,4,,,76,127
100063,note_off,0,0,0,,1,,,61,127
100063,note_off,0,0,0,,1,,,49,127
100064,note_on,1,0,0,,3,,,51,127
100064,note_on,0,0,0,,3,,,63,127
100064,note_on,0,0,0,,12,,,83,127
100166,note_on,102,0,0,,4,,,76,127
100268,note_off,102,0,0,,4,,,76,127
100269,note_on,1,0,0,,6,,,78,127
100295,note_off,26,0,0,,12,,,83,127
100371,note_off,76,0,0,,6,,,78,127
100371,note_off,0,0,0,,3,,,63,127
100371,note_off,0,0,0,,3,,,51,127
100372,note_on,1,0,0,,4,,,52,127
100372,note_on,0,0,0,,4,,,64,127
100372,note_on,0,0,0,,8,,,80,127
100474,note_off,102,0,0,,8,,,80,127
100475,note_on,1,0,0,,10,,,81,127
100577,note_off,102,0,0,,10,,,81,127
100578,note_on,1,0,0,,12,,,83,127
100680,note_off,102,0,0,,12,,,83,127
100680,note_off,0,0,0,,4,,,64,127
100680,note_off,0,0,0,,4,,,52,127
100681,note_on,1,0,0,,10,,,57,127
100681,note_on,0,0,0,,10,,,45,127
100681,note_on,0,0,0,,10,,,81,127
100783,note_off,102,0,0,,10,,,81,127
100784,note_on,1,0,0,,8,,,80,127
100886,note_off,102,0,0,,8,,,80,127
100887,note_on,1,0,0,,6,,,78,127
100989,note_off,102,0,0,,6,,,78,127
100989,note_off,0,0,0,,10,,,45,127
100989,note_off,0,0,0,,10,,,57,127
100990,note_on,1,0,0,,12,,,59,127
100990,note_on,0,0,0,,4,,,76,127
100990,note_on,0,0,0,,8,,,80,127
101296,note_off,306,0,0,,8,,,80,127
101296,note_off,0,0,0,,4,,,76,127
101297,note_on,1,0,0,,12,,,47,127
101297,note_on,0,0,0,,6,,,78,127
101297,note_on,0,0,0,,3,,,75,127
101603,note_off,306,0,0,,3,,,75,127
101603,note_off,0,0,0,,6,,,78,127
101603,note_off,0,0,0,,12,,,47,127
101603,note_off,0,0,0,,12,,,59,127
101604,note_on,1,0,0,,8,,,44,127
101604,note_on,0,0,0,,8,,,56,127
101604,note_on,0,0,0,,12,,,83,127
101706,note_off,102,0,0,,12,,,83,127
101707,note_on,1,0,0,,10,,,69,127
101809,note_off,102,0,0,,10,,,69,127
101810,note_on,1,0,0,,12,,,71,127
101912,note_off,102,0,0,,12,,,71,127
101912,note_off,0,0,0,,8,,,56,127
101912,note_off,0,0,0,,8,,,44,127
101913,note_on,1,0,0,,10,,,45,127
101913,note_on,0,0,0,,10,,,57,127
101913,note_on,0,0,0,,12,,,83,127
102015,note_off,102,0,0,,12,,,83,127
102016,note_on,1,0,0,,12,,,71,127
102118,note_off,102,0,0,,12,,,71,127
102119,note_on,1,0,0,,1,,,73,127
102221,note_off,102,0,0,,1,,,73,127
102221,note_off,0,0,0,,10,,,57,127
102221,note_off,0,0,0,,10,,,45,127
102222,note_on,1,0,0,,12,,,47,127
102222,note_on,0,0,0,,12,,,59,127
102222,note_on,0,0,0,,12,,,83,127
102324,note_off,102,0,0,,12,,,83,127
102325,note_on,1,0,0,,1,,,73,127
102427,note_off,102,0,0,,1,,,73,127
102428,note_on,1,0,0,,3,,,75,127
102530,note_off,102,0,0,,3,,,75,127
102530,note_off,0,0,0,,12,,,59,127
102530,note_off,0,0,0,,12,,,47,127
102531,note_on,1,0,0,,1,,,49,127
102531,note_on,0,0,0,,1,,,61,127
102531,note_on,0,0,0,,12,,,83,127
102633,note_off,102,0,0,,12,,,83,127
102634,note_on,1,0,0,,3,,,75,127
102736,note_off,102,0,0,,3,,,75,127
102737,note_on,1,0,0,,4,,,76,127
102839,note_off,102,0,0,,4,,,76,127
102839,note_off,0,0,0,,1,,,61,127
102839,note_off,0,0,0,,1,,,49,127
102840,note_on,1,0,0,,3,,,51,127
102840,note_on,0,0,0,,3,,,63,127
102840,note_on,0,0,0,,12,,,83,127
102942,note_off,102,0,0,,12,,,83,127
102943,note_on,1,0,0,,4,,,76,127
103045,note_off,102,0,0,,4,,,76,127
103046,note_on,1,0,0,,6,,,78,127
103148,note_off,102,0,0,,6,,,78,127
103148,note_off,0,0,0,,3,,,63,127
103148,note_off,0,0,0,,3,,,51,127
103149,note_on,1,0,0,,4,,,52,127
103149,note_on,0,0,0,,4,,,64,127
103149,note_on,0,0,0,,8,,,80,127
103251,note_off,102,0,0,,8,,,80,127
103252,note_on,1,0,0,,10,,,81,127
103354,note_off,102,0,0,,10,,,81,127
103355,note_on,1,0,0,,12,,,83,127
103457,note_off,102,0,0,,12,,,83,127
103457,note_off,0,0,0,,4,,,64,127
103457,note_off,0,0,0,,4,,,52,127
103458,note_on,1,0,0,,10,,,45,127
103458,note_on,0,0,0,,10,,,57,127
103458,note_on,0,0,0,,10,,,81,127
103560,note_off,102,0,0,,10,,,81,127
103561,note_on,1,0,0,,8,,,80,127
103663,note_off,102,0,0,,8,,,80,127
103664,note_on,1,0,0,,6,,,78,127
103766,note_off,102,0,0,,6,,,78,127
103766,note_off,0,0,0,,10,,,57,127
103766,note_off,0,0,0,,10,,,45,127
103767,note_on,1,0,0,,12,,,59,127
103767,note_on,0,0,0,,8,,,80,127
103767,note_on,0,0,0,,4,,,76,127
104073,note_off,306,0,0,,4,,,76,127
104073,note_off,0,0,0,,8,,,80,127
104073,note_off,0,0,0,,12,,,59,127
104074,note_on,1,0,0,,12,,,47,127
104074,note_on,0,0,0,,3,,,75,127
104074,note_on,0,0,0,,6,,,78,127
104380,note_off,306,0,0,,6,,,78,127
104380,note_off,0,0,0,,3,,,75,127
104380,note_off,0,0,0,,12,,,47,127
104381,note_on,1,0,0,,4,,,40,127
104381,note_on,0,0,0,,4,,,52,127
104381,note_on,0,0,0,,4,,,76,127
104483,note_off,102,0,0,,4,,,76,127
104484,note_on,1,0,0,,4,,,88,127
104586,note_off,102,0,0,,4,,,88,127
104587,note_on,1,0,0,,12,,,83,127
104689,note_off,102,0,0,,12,,,83,127
104690,note_on,1,0,0,,8,,,80,127
104792,note_off,102,0,0,,8,,,80,127
104793,note_on,1,0,0,,4,,,76,127
104895,note_off,102,0,0,,4,,,76,127
104896,note_on,1,0,0,,12,,,71,127
104944,note_off,48,0,0,,4,,,52,127
104944,note_off,0,0,0,,4,,,40,127
104998,note_off,54,0,0,,12,,,71,127
104999,note_on,1,0,0,,8,,,56,127
104999,note_on,0,0,0,,4,,,64,127
104999,note_on,0,0,0,,4,,,76,127
104999,note_on,0,0,0,,8,,,80,127
105305,note_off,306,0,0,,4,,,64,127
105305,note_off,0,0,0,,8,,,56,127
105306,note_on,1,0,0,,10,,,57,127
105306,note_on,0,0,0,,6,,,66,127
105612,note_off,306,0,0,,6,,,66,127
105612,note_off,0,0,0,,10,,,57,127
105613,note_on,1,0,0,,12,,,59,127
105613,note_on,0,0,0,,4,,,64,127
105613,note_on,0,0,0,,8,,,68,127
105919,note_off,306,0,0,,8,,,68,127
105919,note_off,0,0,0,,4,,,64,127
105919,note_off,0,0,0,,8,,,80,127
105919,note_off,0,0,0,,4,,,76,127
105920,note_on,1,0,0,,3,,,63,127
105920,note_on,0,0,0,,6,,,66,127
105920,note_on,0,0,0,,10,,,81,127
105920,note_on,0,0,0,,12,,,83,127
106022,note_off,102,0,0,,12,,,83,127
106022,note_off,0,0,0,,10,,,81,127
106023,note_on,1,0,0,,8,,,80,127
106125,note_off,102,0,0,,8,,,80,127
106126,note_on,1,0,0,,6,,,78,127
106228,note_off,102,0,0,,6,,,78,127
106228,note_off,0,0,0,,6,,,66,127
106228,note_off,0,0,0,,3,,,63,127
106228,note_off,0,0,0,,12,,,59,127
106229,note_on,1,0,0,,4,,,64,127
106229,note_on,0,0,0,,4,,,52,127
106229,note_on,0,0,0,,4,,,76,127
106331,note_off,102,0,0,,4,,,76,127
106332,note_on,1,0,0,,4,,,88,127
106434,note_off,102,0,0,,4,,,88,127
106435,note_on,1,0,0,,12,,,83,127
106537,note_off,102,0,0,,12,,,83,127
106538,note_on,1,0,0,,8,,,80,127
106640,note_off,102,0,0,,8,,,80,127
106641,note_on,1,0,0,,4,,,76,127
106743,note_off,102,0,0,,4,,,76,127
106744,note_on,1,0,0,,12,,,71,127
106792,note_off,48,0,0,,4,,,52,127
106846,note_off,54,0,0,,12,,,71,127
106846,note_off,0,0,0,,4,,,64,127
106847,note_on,1,0,0,,8,,,56,127
106847,note_on,0,0,0,,4,,,64,127
106847,note_on,0,0,0,,8,,,80,127
106847,note_on,0,0,0,,4,,,76,127
107153,note_off,306,0,0,,4,,,64,127
107153,note_off,0,0,0,,8,,,56,127
107154,note_on,1,0,0,,6,,,66,127
107154,note_on,0,0,0,,10,,,57,127
107460,note_off,306,0,0,,10,,,57,127
107460,note_off,0,0,0,,6,,,66,127
107461,note_on,1,0,0,,12,,,59,127
107461,note_on,0,0,0,,8,,,68,127
107461,note_on,0,0,0,,4,,,64,127
107767,note_off,306,0,0,,4,,,64,127
107767,note_off,0,0,0,,8,,,68,127
107767,note_off,0,0,0,,4,,,76,127
107767,note_off,0,0,0,,8,,,80,127
107768,note_on,1,0,0,,3,,,63,127
107768,note_on,0,0,0,,6,,,66,127
107768,note_on,0,0,0,,12,,,83,127
107768,note_on,0,0,0,,10,,,81,127
107870,note_off,102,0,0,,10,,,81,127
107870,note_off,0,0,0,,12,,,83,127
107871,note_on,1,0,0,,8,,,80,127
107973,note_off,102,0,0,,8,,,80,127
107974,note_on,1,0,0,,6,,,78,127
108076,note_off,102,0,0,,6,,,78,127
108076,note_off,0,0,0,,6,,,66,127
108076,note_off,0,0,0,,3,,,63,127
108076,note_off,0,0,0,,12,,,59,127
108077,note_on,1,0,0,,4,,,52,127
108077,note_on,0,0,0,,4,,,64,127
108077,note_on,0,0,0,,4,,,76,127
108179,note_off,102,0,0,,4,,,76,127
108180,note_on,1,0,0,,4,,,88,127
108282,note_off,102,0,0,,4,,,88,127
108283,note_on,1,0,0,,12,,,83,127
108385,note_off,102,0,0,,12,,,83,127
108386,note_on,1,0,0,,8,,,80,127
108488,note_off,102,0,0,,8,,,80,127
108489,note_on,1,0,0,,4,,,76,127
108591,note_off,102,0,0,,4,,,76,127
108592,note_on,1,0,0,,12,,,71,127
108694,note_off,102,0,0,,12,,,71,127
108694,note_off,0,0,0,,4,,,64,127
108694,note_off,0,0,0,,4,,,52,127
108695,note_on,1,0,0,,8,,,56,127
108695,note_on,0,0,0,,8,,,68,127
108797,note_off,102,0,0,,8,,,68,127
108798,note_on,1,0,0,,4,,,64,127
108900,note_off,102,0,0,,4,,,64,127
108901,note_on,1,0,0,,12,,,71,127
109003,note_off,102,0,0,,12,,,71,127
109003,note_off,0,0,0,,8,,,56,127
109004,note_on,1,0,0,,10,,,57,127
109004,note_on,0,0,0,,1,,,73,127
109106,note_off,102,0,0,,1,,,73,127
109107,note_on,1,0,0,,4,,,64,127
109209,note_off,102,0,0,,4,,,64,127
109210,note_on,1,0,0,,10,,,69,127
109312,note_off,102,0,0,,10,,,69,127
109312,note_off,0,0,0,,10,,,57,127
109313,note_on,1,0,0,,12,,,59,127
109313,note_on,0,0,0,,4,,,64,127
109313,note_on,0,0,0,,8,,,68,127
109619,note_off,306,0,0,,8,,,68,127
109619,note_off,0,0,0,,4,,,64,127
109619,note_off,0,0,0,,12,,,59,127
109643,note_on,24,0,0,,6,,,66,127
109643,note_on,0,0,0,,3,,,63,127
109643,note_on,0,0,0,,12,,,47,127
109977,note_off,334,0,0,,12,,,47,127
109977,note_off,0,0,0,,3,,,63,127
109977,note_off,0,0,0,,6,,,66,127
109981,note_on,4,0,0,,3,,,63,127
109981,note_on,0,0,0,,6,,,66,127
109981,note_on,0,0,0,,4,,,52,127
110403,note_on,422,0,0,,4,,,40,127
110901,note_off,498,0,0,,6,,,66,127
110901,note_off,0,0,0,,3,,,63,127
110910,note_on,9,0,0,,4,,,64,127
112999,note_off,2089,0,0,,4,,,40,127
112999,note_off,0,0,0,,4,,,52,127
113033,note_off,34,0,0,,4,,,64,127
116736,end_of_track,3703,1,0,,,,,,
