tick,type,time,meta,track,program,channel,pitch,tempo,note,velocity
0,copyright,0,1,0,,,,,,
0,program_change,0,0,0,6,0,,,,
0,pitchwheel,0,0,0,,0,0,,,
0,program_change,0,0,0,6,1,,,,
0,pitchwheel,0,0,0,,1,-590,,,
0,program_change,0,0,0,6,2,,,,
0,pitchwheel,0,0,0,,2,-272,,,
0,program_change,0,0,0,6,3,,,,
0,pitchwheel,0,0,0,,3,-353,,,
0,program_change,0,0,0,6,4,,,,
0,pitchwheel,0,0,0,,4,-560,,,
0,program_change,0,0,0,6,5,,,,
0,pitchwheel,0,0,0,,5,-80,,,
0,program_change,0,0,0,6,6,,,,
0,pitchwheel,0,0,0,,6,-625,,,
0,program_change,0,0,0,6,7,,,,
0,pitchwheel,0,0,0,,7,-130,,,
0,program_change,0,0,0,6,8,,,,
0,pitchwheel,0,0,0,,8,-512,,,
0,program_change,0,0,0,6,10,,,,
0,pitchwheel,0,0,0,,10,-464,,,
0,program_change,0,0,0,6,11,,,,
0,pitchwheel,0,0,0,,11,-208,,,
0,program_change,0,0,0,6,12,,,,
0,pitchwheel,0,0,0,,12,-553,,,
0,set_tempo,0,1,0,,,,500000,,
115,note_on,115,0,0,,12,,,59,127
115,note_on,0,0,0,,6,,,78,127
345,note_on,230,0,0,,2,,,74,127
459,note_off,114,0,0,,2,,,74,127
460,note_on,1,0,0,,1,,,73,127
574,note_off,114,0,0,,1,,,73,127
574,note_off,0,0,0,,6,,,78,127
575,note_on,1,0,0,,12,,,71,127
690,note_off,115,0,0,,12,,,59,127
804,note_off,114,0,0,,12,,,71,127
805,note_on,1,0,0,,2,,,62,127
805,note_on,0,0,0,,10,,,69,127
805,note_on,0,0,0,,6,,,78,127
1034,note_off,229,0,0,,10,,,69,127
1034,note_off,0,0,0,,2,,,62,127
1035,note_on,1,0,0,,4,,,64,127
1035,note_on,0,0,0,,7,,,67,127
1264,note_off,229,0,0,,4,,,64,127
1264,note_off,0,0,0,,6,,,78,127
1265,note_on,1,0,0,,1,,,61,127
1265,note_on,0,0,0,,4,,,76,127
1494,note_off,229,0,0,,1,,,61,127
1494,note_off,0,0,0,,7,,,67,127
1495,note_on,1,0,0,,2,,,62,127
1495,note_on,0,0,0,,6,,,66,127
1724,note_off,229,0,0,,2,,,62,127
1724,note_off,0,0,0,,4,,,76,127
1725,note_on,1,0,0,,12,,,59,127
1725,note_on,0,0,0,,2,,,74,127
1954,note_off,229,0,0,,12,,,59,127
1954,note_off,0,0,0,,6,,,66,127
1955,note_on,1,0,0,,1,,,61,127
1955,note_on,0,0,0,,4,,,64,127
2184,note_off,229,0,0,,1,,,61,127
2184,note_off,0,0,0,,2,,,74,127
2185,note_on,1,0,0,,11,,,58,127
2185,note_on,0,0,0,,1,,,73,127
2414,note_off,229,0,0,,11,,,58,127
2414,note_off,0,0,0,,4,,,64,127
2415,note_on,1,0,0,,12,,,59,127
2415,note_on,0,0,0,,2,,,62,127
2644,note_off,229,0,0,,12,,,59,127
2644,note_off,0,0,0,,1,,,73,127
2645,note_on,1,0,0,,7,,,55,127
2645,note_on,0,0,0,,12,,,71,127
2874,note_off,229,0,0,,7,,,55,127
2874,note_off,0,0,0,,2,,,62,127
2875,note_on,1,0,0,,6,,,54,127
3104,note_off,229,0,0,,6,,,54,127
3104,note_off,0,0,0,,12,,,71,127
3105,note_on,1,0,0,,4,,,52,127
3105,note_on,0,0,0,,11,,,70,127
3334,note_off,229,0,0,,11,,,70,127
3334,note_off,0,0,0,,4,,,52,127
3335,note_on,1,0,0,,2,,,50,127
3335,note_on,0,0,0,,1,,,73,127
3391,note_off,56,0,0,,1,,,73,127
3392,note_on,1,0,0,,12,,,71,127
3448,note_off,56,0,0,,12,,,71,127
3449,note_on,1,0,0,,1,,,73,127
3505,note_off,56,0,0,,1,,,73,127
3506,note_on,1,0,0,,12,,,71,127
3562,note_off,56,0,0,,12,,,71,127
3562,note_off,0,0,0,,2,,,50,127
3563,note_on,1,0,0,,12,,,47,127
3563,note_on,0,0,0,,1,,,73,127
3619,note_off,56,0,0,,1,,,73,127
3620,note_on,1,0,0,,12,,,71,127
3676,note_off,56,0,0,,12,,,71,127
3677,note_on,1,0,0,,11,,,70,127
3733,note_off,56,0,0,,11,,,70,127
3734,note_on,1,0,0,,12,,,71,127
3790,note_off,56,0,0,,12,,,71,127
3790,note_off,0,0,0,,12,,,47,127
3791,note_on,1,0,0,,6,,,54,127
3791,note_on,0,0,0,,6,,,42,127
3791,note_on,0,0,0,,1,,,73,127
4020,note_off,229,0,0,,1,,,73,127
4021,note_on,1,0,0,,11,,,70,127
4135,note_off,114,0,0,,11,,,70,127
4136,note_on,1,0,0,,8,,,68,127
4250,note_off,114,0,0,,8,,,68,127
4251,note_on,1,0,0,,6,,,66,127
4414,note_off,163,0,0,,6,,,42,127
4414,note_off,0,0,0,,6,,,54,127
4481,note_on,67,0,0,,12,,,59,127
4481,note_on,0,0,0,,12,,,47,127
4481,note_on,0,0,0,,2,,,74,127
4710,note_off,229,0,0,,12,,,47,127
4710,note_off,0,0,0,,12,,,59,127
4710,note_off,0,0,0,,6,,,66,127
4711,note_on,1,0,0,,4,,,52,127
4711,note_on,0,0,0,,4,,,40,127
4711,note_on,0,0,0,,7,,,67,127
4940,note_off,229,0,0,,4,,,40,127
4940,note_off,0,0,0,,4,,,52,127
4940,note_off,0,0,0,,2,,,74,127
4941,note_on,1,0,0,,10,,,45,127
4941,note_on,0,0,0,,10,,,57,127
4941,note_on,0,0,0,,1,,,73,127
5170,note_off,229,0,0,,10,,,57,127
5170,note_off,0,0,0,,10,,,45,127
5170,note_off,0,0,0,,7,,,67,127
5171,note_on,1,0,0,,2,,,38,127
5171,note_on,0,0,0,,2,,,50,127
5171,note_on,0,0,0,,6,,,66,127
5400,note_off,229,0,0,,2,,,50,127
5400,note_off,0,0,0,,2,,,38,127
5400,note_off,0,0,0,,1,,,73,127
5401,note_on,1,0,0,,7,,,55,127
5401,note_on,0,0,0,,7,,,43,127
5401,note_on,0,0,0,,12,,,71,127
5630,note_off,229,0,0,,7,,,43,127
5630,note_off,0,0,0,,7,,,55,127
5630,note_off,0,0,0,,6,,,66,127
5631,note_on,1,0,0,,1,,,37,127
5631,note_on,0,0,0,,1,,,49,127
5631,note_on,0,0,0,,4,,,64,127
5860,note_off,229,0,0,,1,,,49,127
5860,note_off,0,0,0,,1,,,37,127
5860,note_off,0,0,0,,12,,,71,127
5861,note_on,1,0,0,,6,,,42,127
5861,note_on,0,0,0,,6,,,54,127
5861,note_on,0,0,0,,11,,,70,127
5861,note_on,0,0,0,,4,,,76,127
6090,note_off,229,0,0,,11,,,70,127
6090,note_off,0,0,0,,6,,,54,127
6090,note_off,0,0,0,,6,,,42,127
6090,note_off,0,0,0,,4,,,64,127
6091,note_on,1,0,0,,12,,,47,127
6091,note_on,0,0,0,,6,,,66,127
6091,note_on,0,0,0,,12,,,71,127
6320,note_off,229,0,0,,12,,,47,127
6320,note_off,0,0,0,,4,,,76,127
6321,note_on,1,0,0,,2,,,50,127
6321,note_on,0,0,0,,2,,,74,127
6550,note_off,229,0,0,,2,,,74,127
6550,note_off,0,0,0,,2,,,50,127
6550,note_off,0,0,0,,6,,,66,127
6551,note_on,1,0,0,,4,,,52,127
6551,note_on,0,0,0,,1,,,73,127
6780,note_off,229,0,0,,1,,,73,127
6780,note_off,0,0,0,,4,,,52,127
6781,note_on,1,0,0,,7,,,55,127
6781,note_on,0,0,0,,2,,,74,127
6895,note_off,114,0,0,,2,,,74,127
6896,note_on,1,0,0,,4,,,76,127
7010,note_off,114,0,0,,4,,,76,127
7010,note_off,0,0,0,,7,,,55,127
7011,note_on,1,0,0,,6,,,54,127
7011,note_on,0,0,0,,2,,,74,127
7240,note_off,229,0,0,,2,,,74,127
7240,note_off,0,0,0,,12,,,71,127
7241,note_on,1,0,0,,1,,,73,127
7241,note_on,0,0,0,,11,,,70,127
7431,note_off,190,0,0,,6,,,54,127
7471,note_off,40,0,0,,11,,,70,127
7471,note_off,0,0,0,,1,,,73,127
7472,note_on,1,0,0,,12,,,47,127
7472,note_on,0,0,0,,12,,,59,127
7472,note_on,0,0,0,,3,,,75,127
7472,note_on,0,0,0,,10,,,69,127
7701,note_off,229,0,0,,10,,,69,127
7702,note_on,1,0,0,,6,,,66,127
7931,note_off,229,0,0,,6,,,66,127
7931,note_off,0,0,0,,3,,,75,127
7931,note_off,0,0,0,,12,,,47,127
7932,note_on,1,0,0,,4,,,52,127
7932,note_on,0,0,0,,7,,,67,127
7932,note_on,0,0,0,,4,,,76,127
8161,note_off,229,0,0,,4,,,76,127
8161,note_off,0,0,0,,12,,,59,127
8162,note_on,1,0,0,,4,,,64,127
8162,note_on,0,0,0,,12,,,71,127
8391,note_off,229,0,0,,12,,,71,127
8391,note_off,0,0,0,,4,,,64,127
8391,note_off,0,0,0,,4,,,52,127
8392,note_on,1,0,0,,10,,,57,127
8392,note_on,0,0,0,,10,,,45,127
8392,note_on,0,0,0,,1,,,73,127
8621,note_off,229,0,0,,7,,,67,127
8622,note_on,1,0,0,,4,,,64,127
8851,note_off,229,0,0,,4,,,64,127
8851,note_off,0,0,0,,1,,,73,127
8851,note_off,0,0,0,,10,,,45,127
8852,note_on,1,0,0,,2,,,50,127
8852,note_on,0,0,0,,6,,,66,127
8852,note_on,0,0,0,,2,,,74,127
9081,note_off,229,0,0,,2,,,74,127
9081,note_off,0,0,0,,10,,,57,127
9082,note_on,1,0,0,,2,,,62,127
9082,note_on,0,0,0,,10,,,69,127
9311,note_off,229,0,0,,10,,,69,127
9311,note_off,0,0,0,,6,,,66,127
9311,note_off,0,0,0,,2,,,50,127
9312,note_on,1,0,0,,4,,,52,127
9312,note_on,0,0,0,,8,,,68,127
9541,note_off,229,0,0,,8,,,68,127
9541,note_off,0,0,0,,2,,,62,127
9542,note_on,1,0,0,,12,,,59,127
9542,note_on,0,0,0,,12,,,71,127
9771,note_off,229,0,0,,12,,,71,127
9771,note_off,0,0,0,,12,,,59,127
9771,note_off,0,0,0,,4,,,52,127
9772,note_on,1,0,0,,1,,,61,127
9772,note_on,0,0,0,,10,,,69,127
10001,note_off,229,0,0,,1,,,61,127
10002,note_on,1,0,0,,10,,,57,127
10002,note_on,0,0,0,,1,,,73,127
10231,note_off,229,0,0,,1,,,73,127
10231,note_off,0,0,0,,10,,,57,127
10232,note_on,1,0,0,,2,,,62,127
10232,note_on,0,0,0,,12,,,71,127
10461,note_off,229,0,0,,12,,,71,127
10461,note_off,0,0,0,,2,,,62,127
10462,note_on,1,0,0,,6,,,66,127
10462,note_on,0,0,0,,1,,,73,127
10576,note_off,114,0,0,,1,,,73,127
10577,note_on,1,0,0,,2,,,74,127
10691,note_off,114,0,0,,2,,,74,127
10691,note_off,0,0,0,,6,,,66,127
10691,note_off,0,0,0,,10,,,69,127
10692,note_on,1,0,0,,4,,,64,127
10692,note_on,0,0,0,,1,,,73,127
10692,note_on,0,0,0,,10,,,69,127
10921,note_off,229,0,0,,10,,,69,127
10921,note_off,0,0,0,,1,,,73,127
10921,note_off,0,0,0,,4,,,64,127
10922,note_on,1,0,0,,2,,,62,127
10922,note_on,0,0,0,,8,,,68,127
10922,note_on,0,0,0,,12,,,71,127
11151,note_off,229,0,0,,12,,,71,127
11151,note_off,0,0,0,,8,,,68,127
11151,note_off,0,0,0,,2,,,62,127
11152,note_on,1,0,0,,1,,,61,127
11152,note_on,0,0,0,,10,,,69,127
11381,note_off,229,0,0,,10,,,69,127
11381,note_off,0,0,0,,1,,,61,127
11382,note_on,1,0,0,,10,,,57,127
11382,note_on,0,0,0,,1,,,73,127
11611,note_off,229,0,0,,1,,,73,127
11611,note_off,0,0,0,,10,,,57,127
11612,note_on,1,0,0,,12,,,59,127
11612,note_on,0,0,0,,2,,,74,127
11841,note_off,229,0,0,,12,,,59,127
11842,note_on,1,0,0,,6,,,54,127
11842,note_on,0,0,0,,6,,,78,127
12071,note_off,229,0,0,,6,,,78,127
12071,note_off,0,0,0,,6,,,54,127
12072,note_on,1,0,0,,7,,,55,127
12072,note_on,0,0,0,,4,,,76,127
12301,note_off,229,0,0,,4,,,76,127
12301,note_off,0,0,0,,7,,,55,127
12302,note_on,1,0,0,,12,,,59,127
12302,note_on,0,0,0,,6,,,78,127
12416,note_off,114,0,0,,6,,,78,127
12417,note_on,1,0,0,,7,,,79,127
12531,note_off,114,0,0,,7,,,79,127
12531,note_off,0,0,0,,12,,,59,127
12531,note_off,0,0,0,,2,,,74,127
12532,note_on,1,0,0,,10,,,57,127
12532,note_on,0,0,0,,6,,,78,127
12532,note_on,0,0,0,,2,,,74,127
12761,note_off,229,0,0,,2,,,74,127
12761,note_off,0,0,0,,6,,,78,127
12761,note_off,0,0,0,,10,,,57,127
12762,note_on,1,0,0,,7,,,55,127
12762,note_on,0,0,0,,1,,,73,127
12762,note_on,0,0,0,,4,,,76,127
12991,note_off,229,0,0,,4,,,76,127
12991,note_off,0,0,0,,1,,,73,127
12991,note_off,0,0,0,,7,,,55,127
12992,note_on,1,0,0,,6,,,54,127
12992,note_on,0,0,0,,2,,,74,127
13221,note_off,229,0,0,,2,,,74,127
13222,note_on,1,0,0,,2,,,62,127
13222,note_on,0,0,0,,10,,,69,127
13222,note_on,0,0,0,,10,,,81,127
13451,note_off,229,0,0,,10,,,69,127
13451,note_off,0,0,0,,6,,,54,127
13452,note_on,1,0,0,,7,,,55,127
13452,note_on,0,0,0,,12,,,71,127
13681,note_off,229,0,0,,10,,,81,127
13681,note_off,0,0,0,,2,,,62,127
13682,note_on,1,0,0,,7,,,67,127
13682,note_on,0,0,0,,12,,,83,127
13911,note_off,229,0,0,,12,,,83,127
13911,note_off,0,0,0,,12,,,71,127
13911,note_off,0,0,0,,7,,,55,127
13912,note_on,1,0,0,,10,,,57,127
13912,note_on,0,0,0,,1,,,73,127
14141,note_off,229,0,0,,1,,,73,127
14141,note_off,0,0,0,,7,,,67,127
14142,note_on,1,0,0,,6,,,66,127
14142,note_on,0,0,0,,4,,,76,127
14198,note_off,56,0,0,,4,,,76,127
14199,note_on,1,0,0,,2,,,74,127
14255,note_off,56,0,0,,2,,,74,127
14256,note_on,1,0,0,,1,,,73,127
14312,note_off,56,0,0,,1,,,73,127
14313,note_on,1,0,0,,2,,,74,127
14369,note_off,56,0,0,,2,,,74,127
14369,note_off,0,0,0,,6,,,66,127
14370,note_on,1,0,0,,4,,,64,127
14370,note_on,0,0,0,,4,,,76,127
14599,note_off,229,0,0,,4,,,76,127
14599,note_off,0,0,0,,4,,,64,127
14600,note_on,1,0,0,,2,,,62,127
14600,note_on,0,0,0,,6,,,78,127
14829,note_off,229,0,0,,6,,,78,127
14829,note_off,0,0,0,,2,,,62,127
14829,note_off,0,0,0,,10,,,57,127
14830,note_on,1,0,0,,10,,,33,127
14830,note_on,0,0,0,,4,,,76,127
15059,note_off,229,0,0,,4,,,76,127
15059,note_off,0,0,0,,10,,,33,127
15060,note_on,1,0,0,,8,,,68,127
15174,note_off,114,0,0,,8,,,68,127
15175,note_on,1,0,0,,10,,,69,127
15289,note_off,114,0,0,,10,,,69,127
15290,note_on,1,0,0,,6,,,66,127
15404,note_off,114,0,0,,6,,,66,127
15405,note_on,1,0,0,,7,,,67,127
15519,note_off,114,0,0,,7,,,67,127
15520,note_on,1,0,0,,4,,,64,127
15634,note_off,114,0,0,,4,,,64,127
15635,note_on,1,0,0,,6,,,66,127
15749,note_off,114,0,0,,6,,,66,127
15750,note_on,1,0,0,,7,,,55,127
15750,note_on,0,0,0,,12,,,83,127
15864,note_off,114,0,0,,12,,,83,127
15865,note_on,1,0,0,,7,,,79,127
15979,note_off,114,0,0,,7,,,55,127
15980,note_on,1,0,0,,6,,,66,127
16038,note_off,58,0,0,,7,,,79,127
16094,note_off,56,0,0,,6,,,66,127
16095,note_on,1,0,0,,7,,,67,127
16209,note_off,114,0,0,,7,,,67,127
16210,note_on,1,0,0,,4,,,64,127
16324,note_off,114,0,0,,4,,,64,127
16325,note_on,1,0,0,,6,,,66,127
16439,note_off,114,0,0,,6,,,66,127
16440,note_on,1,0,0,,2,,,62,127
16554,note_off,114,0,0,,2,,,62,127
16555,note_on,1,0,0,,4,,,64,127
16669,note_off,114,0,0,,4,,,64,127
16670,note_on,1,0,0,,6,,,54,127
16670,note_on,0,0,0,,10,,,81,127
16784,note_off,114,0,0,,10,,,81,127
16785,note_on,1,0,0,,6,,,78,127
16899,note_off,114,0,0,,6,,,54,127
16900,note_on,1,0,0,,4,,,64,127
16958,note_off,58,0,0,,6,,,78,127
17014,note_off,56,0,0,,4,,,64,127
17015,note_on,1,0,0,,6,,,66,127
17129,note_off,114,0,0,,6,,,66,127
17130,note_on,1,0,0,,2,,,62,127
17244,note_off,114,0,0,,2,,,62,127
17245,note_on,1,0,0,,4,,,64,127
17359,note_off,114,0,0,,4,,,64,127
17360,note_on,1,0,0,,1,,,61,127
17474,note_off,114,0,0,,1,,,61,127
17475,note_on,1,0,0,,2,,,62,127
17589,note_off,114,0,0,,2,,,62,127
17590,note_on,1,0,0,,4,,,52,127
17590,note_on,0,0,0,,7,,,79,127
17704,note_off,114,0,0,,7,,,79,127
17705,note_on,1,0,0,,4,,,76,127
17819,note_off,114,0,0,,4,,,52,127
17820,note_on,1,0,0,,2,,,62,127
17878,note_off,58,0,0,,4,,,76,127
17934,note_off,56,0,0,,2,,,62,127
17935,note_on,1,0,0,,4,,,64,127
18049,note_off,114,0,0,,4,,,64,127
18050,note_on,1,0,0,,1,,,61,127
18164,note_off,114,0,0,,1,,,61,127
18165,note_on,1,0,0,,2,,,62,127
18279,note_off,114,0,0,,2,,,62,127
18280,note_on,1,0,0,,12,,,59,127
18394,note_off,114,0,0,,12,,,59,127
18395,note_on,1,0,0,,1,,,61,127
18509,note_off,114,0,0,,1,,,61,127
18510,note_on,1,0,0,,2,,,50,127
18510,note_on,0,0,0,,6,,,78,127
18624,note_off,114,0,0,,6,,,78,127
18625,note_on,1,0,0,,10,,,81,127
18739,note_off,114,0,0,,10,,,81,127
18740,note_on,1,0,0,,1,,,73,127
18854,note_off,114,0,0,,1,,,73,127
18855,note_on,1,0,0,,4,,,76,127
18969,note_off,114,0,0,,4,,,76,127
18970,note_on,1,0,0,,2,,,74,127
19084,note_off,114,0,0,,2,,,74,127
19085,note_on,1,0,0,,6,,,78,127
19157,note_off,72,0,0,,2,,,50,127
19199,note_off,42,0,0,,6,,,78,127
19200,note_on,1,0,0,,6,,,54,127
19200,note_on,0,0,0,,10,,,69,127
19314,note_off,114,0,0,,10,,,69,127
19315,note_on,1,0,0,,1,,,73,127
19429,note_off,114,0,0,,1,,,73,127
19429,note_off,0,0,0,,6,,,54,127
19430,note_on,1,0,0,,7,,,55,127
19430,note_on,0,0,0,,12,,,71,127
19544,note_off,114,0,0,,12,,,71,127
19545,note_on,1,0,0,,7,,,79,127
19659,note_off,114,0,0,,7,,,79,127
19660,note_on,1,0,0,,7,,,43,127
19660,note_on,0,0,0,,6,,,78,127
19774,note_off,114,0,0,,6,,,78,127
19775,note_on,1,0,0,,4,,,76,127
19889,note_off,114,0,0,,4,,,76,127
19889,note_off,0,0,0,,7,,,43,127
19889,note_off,0,0,0,,7,,,55,127
19890,note_on,1,0,0,,10,,,57,127
19890,note_on,0,0,0,,2,,,74,127
20004,note_off,114,0,0,,2,,,74,127
20005,note_on,1,0,0,,4,,,76,127
20119,note_off,114,0,0,,4,,,76,127
20120,note_on,1,0,0,,10,,,45,127
20120,note_on,0,0,0,,10,,,69,127
20234,note_off,114,0,0,,10,,,69,127
20235,note_off,1,0,0,,10,,,57,127
20235,note_on,0,0,0,,1,,,73,127
20349,note_off,114,0,0,,1,,,73,127
20349,note_off,0,0,0,,10,,,45,127
20350,note_on,1,0,0,,2,,,38,127
20350,note_on,0,0,0,,2,,,74,127
20579,note_off,229,0,0,,2,,,74,127
20580,note_on,1,0,0,,6,,,78,127
20694,note_off,114,0,0,,6,,,78,127
20695,note_on,1,0,0,,7,,,79,127
20809,note_off,114,0,0,,7,,,79,127
20810,note_on,1,0,0,,4,,,76,127
20924,note_off,114,0,0,,4,,,76,127
20925,note_off,1,0,0,,2,,,38,127
20925,note_on,0,0,0,,6,,,78,127
21039,note_off,114,0,0,,6,,,78,127
21040,note_on,1,0,0,,6,,,66,127
21040,note_on,0,0,0,,2,,,74,127
21154,note_off,114,0,0,,2,,,74,127
21154,note_off,0,0,0,,6,,,66,127
21155,note_on,1,0,0,,4,,,64,127
21155,note_on,0,0,0,,4,,,76,127
21269,note_off,114,0,0,,4,,,76,127
21269,note_off,0,0,0,,4,,,64,127
21270,note_on,1,0,0,,2,,,38,127
21270,note_on,0,0,0,,6,,,78,127
21384,note_off,114,0,0,,6,,,78,127
21385,note_on,1,0,0,,10,,,69,127
21499,note_off,114,0,0,,10,,,69,127
21500,note_on,1,0,0,,6,,,78,127
21614,note_off,114,0,0,,6,,,78,127
21615,note_on,1,0,0,,7,,,79,127
21729,note_off,114,0,0,,7,,,79,127
21730,note_on,1,0,0,,4,,,76,127
21844,note_off,114,0,0,,4,,,76,127
21845,note_off,1,0,0,,2,,,38,127
21845,note_on,0,0,0,,6,,,78,127
21959,note_off,114,0,0,,6,,,78,127
21960,note_on,1,0,0,,6,,,66,127
21960,note_on,0,0,0,,2,,,74,127
22074,note_off,114,0,0,,2,,,74,127
22074,note_off,0,0,0,,6,,,66,127
22075,note_on,1,0,0,,4,,,64,127
22075,note_on,0,0,0,,4,,,76,127
22189,note_off,114,0,0,,4,,,76,127
22189,note_off,0,0,0,,4,,,64,127
22190,note_on,1,0,0,,2,,,38,127
22190,note_on,0,0,0,,6,,,78,127
22304,note_off,114,0,0,,6,,,78,127
22305,note_on,1,0,0,,10,,,69,127
22419,note_off,114,0,0,,10,,,69,127
22420,note_on,1,0,0,,10,,,81,127
22420,note_on,0,0,0,,6,,,78,127
22534,note_off,114,0,0,,6,,,78,127
22534,note_off,0,0,0,,10,,,81,127
22535,note_on,1,0,0,,12,,,83,127
22535,note_on,0,0,0,,7,,,79,127
22649,note_off,114,0,0,,7,,,79,127
22649,note_off,0,0,0,,12,,,83,127
22650,note_on,1,0,0,,4,,,76,127
22650,note_on,0,0,0,,7,,,79,127
22764,note_off,114,0,0,,7,,,79,127
22764,note_off,0,0,0,,4,,,76,127
22765,note_off,1,0,0,,2,,,38,127
22765,note_on,0,0,0,,10,,,81,127
22765,note_on,0,0,0,,6,,,78,127
22879,note_off,114,0,0,,6,,,78,127
22879,note_off,0,0,0,,10,,,81,127
22880,note_on,1,0,0,,6,,,66,127
22880,note_on,0,0,0,,6,,,78,127
22880,note_on,0,0,0,,2,,,74,127
22994,note_off,114,0,0,,2,,,74,127
22994,note_off,0,0,0,,6,,,78,127
22994,note_off,0,0,0,,6,,,66,127
22995,note_on,1,0,0,,4,,,64,127
22995,note_on,0,0,0,,7,,,79,127
22995,note_on,0,0,0,,4,,,76,127
23109,note_off,114,0,0,,4,,,76,127
23109,note_off,0,0,0,,7,,,79,127
23109,note_off,0,0,0,,4,,,64,127
23110,note_on,1,0,0,,2,,,50,127
23110,note_on,0,0,0,,6,,,78,127
23110,note_on,0,0,0,,10,,,81,127
23224,note_off,114,0,0,,10,,,81,127
23224,note_off,0,0,0,,6,,,78,127
23225,note_on,1,0,0,,7,,,79,127
23225,note_on,0,0,0,,4,,,76,127
23339,note_off,114,0,0,,4,,,76,127
23339,note_off,0,0,0,,7,,,79,127
23339,note_off,0,0,0,,2,,,50,127
23340,note_on,1,0,0,,7,,,55,127
23340,note_on,0,0,0,,2,,,74,127
23340,note_on,0,0,0,,6,,,78,127
23454,note_off,114,0,0,,6,,,78,127
23454,note_off,0,0,0,,2,,,74,127
23455,note_on,1,0,0,,7,,,79,127
23455,note_on,0,0,0,,4,,,76,127
23569,note_off,114,0,0,,4,,,76,127
23569,note_off,0,0,0,,7,,,79,127
23569,note_off,0,0,0,,7,,,55,127
23570,note_on,1,0,0,,10,,,57,127
23570,note_on,0,0,0,,6,,,78,127
23570,note_on,0,0,0,,2,,,74,127
23799,note_off,229,0,0,,2,,,74,127
23799,note_off,0,0,0,,6,,,78,127
23800,note_on,1,0,0,,10,,,45,127
23800,note_on,0,0,0,,6,,,78,127
23800,note_on,0,0,0,,2,,,74,127
23856,note_off,56,0,0,,2,,,74,127
23856,note_off,0,0,0,,6,,,78,127
23857,note_on,1,0,0,,1,,,73,127
23857,note_on,0,0,0,,4,,,76,127
23913,note_off,56,0,0,,4,,,76,127
23913,note_off,0,0,0,,1,,,73,127
23914,note_off,1,0,0,,10,,,57,127
23914,note_on,0,0,0,,6,,,78,127
23914,note_on,0,0,0,,2,,,74,127
23970,note_off,56,0,0,,2,,,74,127
23970,note_off,0,0,0,,6,,,78,127
23971,note_on,1,0,0,,4,,,76,127
23971,note_on,0,0,0,,1,,,73,127
24027,note_off,56,0,0,,1,,,73,127
24027,note_off,0,0,0,,4,,,76,127
24027,note_off,0,0,0,,10,,,45,127
24028,note_on,1,0,0,,2,,,38,127
24028,note_on,0,0,0,,2,,,74,127
24257,note_off,229,0,0,,2,,,74,127
24258,note_on,1,0,0,,6,,,78,127
24372,note_off,114,0,0,,6,,,78,127
24373,note_on,1,0,0,,7,,,79,127
24487,note_off,114,0,0,,7,,,79,127
24488,note_on,1,0,0,,4,,,76,127
24602,note_off,114,0,0,,4,,,76,127
24603,note_off,1,0,0,,2,,,38,127
24603,note_on,0,0,0,,6,,,78,127
24717,note_off,114,0,0,,6,,,78,127
24718,note_on,1,0,0,,6,,,66,127
24718,note_on,0,0,0,,2,,,74,127
24832,note_off,114,0,0,,2,,,74,127
24832,note_off,0,0,0,,6,,,66,127
24833,note_on,1,0,0,,4,,,64,127
24833,note_on,0,0,0,,4,,,76,127
24947,note_off,114,0,0,,4,,,76,127
24947,note_off,0,0,0,,4,,,64,127
24948,note_on,1,0,0,,2,,,38,127
24948,note_on,0,0,0,,6,,,78,127
25062,note_off,114,0,0,,6,,,78,127
25063,note_on,1,0,0,,10,,,69,127
25177,note_off,114,0,0,,10,,,69,127
25178,note_on,1,0,0,,6,,,78,127
25292,note_off,114,0,0,,6,,,78,127
25293,note_on,1,0,0,,7,,,79,127
25407,note_off,114,0,0,,7,,,79,127
25408,note_on,1,0,0,,4,,,76,127
25522,note_off,114,0,0,,4,,,76,127
25523,note_off,1,0,0,,2,,,38,127
25523,note_on,0,0,0,,6,,,78,127
25637,note_off,114,0,0,,6,,,78,127
25638,note_on,1,0,0,,6,,,66,127
25638,note_on,0,0,0,,2,,,74,127
25752,note_off,114,0,0,,2,,,74,127
25752,note_off,0,0,0,,6,,,66,127
25753,note_on,1,0,0,,4,,,64,127
25753,note_on,0,0,0,,4,,,76,127
25867,note_off,114,0,0,,4,,,76,127
25867,note_off,0,0,0,,4,,,64,127
25868,note_on,1,0,0,,2,,,38,127
25868,note_on,0,0,0,,6,,,78,127
25982,note_off,114,0,0,,6,,,78,127
25983,note_on,1,0,0,,10,,,69,127
26097,note_off,114,0,0,,10,,,69,127
26098,note_on,1,0,0,,10,,,81,127
26098,note_on,0,0,0,,6,,,78,127
26212,note_off,114,0,0,,6,,,78,127
26212,note_off,0,0,0,,10,,,81,127
26213,note_on,1,0,0,,12,,,83,127
26213,note_on,0,0,0,,7,,,79,127
26327,note_off,114,0,0,,7,,,79,127
26327,note_off,0,0,0,,12,,,83,127
26328,note_on,1,0,0,,7,,,79,127
26328,note_on,0,0,0,,4,,,76,127
26442,note_off,114,0,0,,4,,,76,127
26442,note_off,0,0,0,,7,,,79,127
26443,note_off,1,0,0,,2,,,38,127
26443,note_on,0,0,0,,6,,,78,127
26443,note_on,0,0,0,,10,,,81,127
26557,note_off,114,0,0,,10,,,81,127
26557,note_off,0,0,0,,6,,,78,127
26558,note_on,1,0,0,,6,,,66,127
26558,note_on,0,0,0,,2,,,74,127
26558,note_on,0,0,0,,6,,,78,127
26672,note_off,114,0,0,,6,,,78,127
26672,note_off,0,0,0,,2,,,74,127
26672,note_off,0,0,0,,6,,,66,127
26673,note_on,1,0,0,,4,,,64,127
26673,note_on,0,0,0,,7,,,79,127
26673,note_on,0,0,0,,4,,,76,127
26787,note_off,114,0,0,,4,,,76,127
26787,note_off,0,0,0,,7,,,79,127
26787,note_off,0,0,0,,4,,,64,127
26788,note_on,1,0,0,,2,,,50,127
26788,note_on,0,0,0,,10,,,81,127
26788,note_on,0,0,0,,6,,,78,127
26902,note_off,114,0,0,,6,,,78,127
26902,note_off,0,0,0,,10,,,81,127
26903,note_on,1,0,0,,7,,,79,127
26903,note_on,0,0,0,,4,,,76,127
27017,note_off,114,0,0,,4,,,76,127
27017,note_off,0,0,0,,7,,,79,127
27017,note_off,0,0,0,,2,,,50,127
27018,note_on,1,0,0,,7,,,55,127
27018,note_on,0,0,0,,2,,,74,127
27018,note_on,0,0,0,,6,,,78,127
27132,note_off,114,0,0,,6,,,78,127
27132,note_off,0,0,0,,2,,,74,127
27133,note_on,1,0,0,,4,,,76,127
27133,note_on,0,0,0,,7,,,79,127
27247,note_off,114,0,0,,7,,,79,127
27247,note_off,0,0,0,,4,,,76,127
27247,note_off,0,0,0,,7,,,55,127
27248,note_on,1,0,0,,10,,,57,127
27248,note_on,0,0,0,,6,,,78,127
27248,note_on,0,0,0,,2,,,74,127
27477,note_off,229,0,0,,2,,,74,127
27477,note_off,0,0,0,,6,,,78,127
27478,note_on,1,0,0,,10,,,45,127
27478,note_on,0,0,0,,2,,,74,127
27478,note_on,0,0,0,,6,,,78,127
27534,note_off,56,0,0,,6,,,78,127
27534,note_off,0,0,0,,2,,,74,127
27535,note_on,1,0,0,,1,,,73,127
27535,note_on,0,0,0,,4,,,76,127
27591,note_off,56,0,0,,4,,,76,127
27591,note_off,0,0,0,,1,,,73,127
27592,note_off,1,0,0,,10,,,57,127
27592,note_on,0,0,0,,2,,,74,127
27592,note_on,0,0,0,,6,,,78,127
27648,note_off,56,0,0,,6,,,78,127
27648,note_off,0,0,0,,2,,,74,127
27649,note_on,1,0,0,,4,,,76,127
27649,note_on,0,0,0,,1,,,73,127
27705,note_off,56,0,0,,1,,,73,127
27705,note_off,0,0,0,,4,,,76,127
27705,note_off,0,0,0,,10,,,45,127
27706,note_on,1,0,0,,2,,,38,127
27706,note_on,0,0,0,,2,,,50,127
27706,note_on,0,0,0,,2,,,74,127
27820,note_off,114,0,0,,2,,,74,127
27821,note_on,1,0,0,,2,,,74,127
27935,note_off,114,0,0,,2,,,74,127
27935,note_off,0,0,0,,2,,,50,127
27935,note_off,0,0,0,,2,,,38,127
27936,note_on,1,0,0,,6,,,54,127
27936,note_on,0,0,0,,2,,,74,127
28050,note_off,114,0,0,,2,,,74,127
28051,note_on,1,0,0,,2,,,74,127
28165,note_off,114,0,0,,2,,,74,127
28165,note_off,0,0,0,,6,,,54,127
28166,note_on,1,0,0,,7,,,55,127
28166,note_on,0,0,0,,2,,,74,127
28280,note_off,114,0,0,,2,,,74,127
28281,note_on,1,0,0,,2,,,74,127
28395,note_off,114,0,0,,2,,,74,127
28396,note_on,1,0,0,,4,,,64,127
28396,note_on,0,0,0,,2,,,74,127
28510,note_off,114,0,0,,2,,,74,127
28511,note_on,1,0,0,,2,,,74,127
28625,note_off,114,0,0,,2,,,74,127
28625,note_off,0,0,0,,7,,,55,127
28626,note_on,1,0,0,,10,,,57,127
28626,note_on,0,0,0,,2,,,74,127
28740,note_off,114,0,0,,2,,,74,127
28741,note_on,1,0,0,,2,,,74,127
28855,note_off,114,0,0,,2,,,74,127
28855,note_off,0,0,0,,4,,,64,127
28856,note_on,1,0,0,,6,,,66,127
28856,note_on,0,0,0,,2,,,74,127
28970,note_off,114,0,0,,2,,,74,127
28971,note_on,1,0,0,,2,,,74,127
29085,note_off,114,0,0,,2,,,74,127
29085,note_off,0,0,0,,10,,,57,127
29086,note_on,1,0,0,,12,,,59,127
29086,note_on,0,0,0,,2,,,74,127
29200,note_off,114,0,0,,2,,,74,127
29201,note_on,1,0,0,,2,,,74,127
29315,note_off,114,0,0,,2,,,74,127
29315,note_off,0,0,0,,6,,,66,127
29316,note_on,1,0,0,,7,,,67,127
29316,note_on,0,0,0,,2,,,74,127
29430,note_off,114,0,0,,2,,,74,127
29431,note_on,1,0,0,,2,,,74,127
29545,note_off,114,0,0,,2,,,74,127
29545,note_off,0,0,0,,12,,,59,127
29546,note_on,1,0,0,,1,,,61,127
29546,note_on,0,0,0,,2,,,74,127
29660,note_off,114,0,0,,2,,,74,127
29661,note_on,1,0,0,,4,,,76,127
29775,note_off,114,0,0,,4,,,76,127
29775,note_off,0,0,0,,7,,,67,127
29776,note_on,1,0,0,,10,,,69,127
29776,note_on,0,0,0,,4,,,76,127
29890,note_off,114,0,0,,4,,,76,127
29891,note_on,1,0,0,,4,,,76,127
30005,note_off,114,0,0,,4,,,76,127
30005,note_off,0,0,0,,1,,,61,127
30006,note_on,1,0,0,,2,,,62,127
30006,note_on,0,0,0,,4,,,76,127
30120,note_off,114,0,0,,4,,,76,127
30121,note_on,1,0,0,,6,,,78,127
30235,note_off,114,0,0,,6,,,78,127
30235,note_off,0,0,0,,10,,,69,127
30236,note_on,1,0,0,,10,,,69,127
30236,note_on,0,0,0,,6,,,78,127
30350,note_off,114,0,0,,6,,,78,127
30351,note_on,1,0,0,,6,,,78,127
30465,note_off,114,0,0,,6,,,78,127
30465,note_off,0,0,0,,10,,,69,127
30465,note_off,0,0,0,,2,,,62,127
30466,note_on,1,0,0,,7,,,55,127
30466,note_on,0,0,0,,6,,,78,127
30580,note_off,114,0,0,,6,,,78,127
30581,note_on,1,0,0,,4,,,76,127
30695,note_off,114,0,0,,4,,,76,127
30696,note_on,1,0,0,,7,,,43,127
30696,note_on,0,0,0,,6,,,78,127
30810,note_off,114,0,0,,6,,,78,127
30811,note_on,1,0,0,,7,,,79,127
30925,note_off,114,0,0,,7,,,79,127
30925,note_off,0,0,0,,7,,,43,127
30925,note_off,0,0,0,,7,,,55,127
30926,note_on,1,0,0,,10,,,57,127
30926,note_on,0,0,0,,6,,,78,127
31040,note_off,114,0,0,,6,,,78,127
31041,note_on,1,0,0,,2,,,74,127
31155,note_off,114,0,0,,2,,,74,127
31156,note_on,1,0,0,,10,,,45,127
31156,note_on,0,0,0,,4,,,76,127
31270,note_off,114,0,0,,4,,,76,127
31271,note_on,1,0,0,,1,,,73,127
31385,note_off,114,0,0,,1,,,73,127
31385,note_off,0,0,0,,10,,,45,127
31385,note_off,0,0,0,,10,,,57,127
31386,note_on,1,0,0,,2,,,50,127
31386,note_on,0,0,0,,2,,,74,127
31501,note_on,115,0,0,,2,,,86,127
31559,note_off,58,0,0,,2,,,74,127
31615,note_off,56,0,0,,2,,,50,127
31616,note_on,1,0,0,,6,,,54,127
31616,note_on,0,0,0,,2,,,74,127
31674,note_off,58,0,0,,2,,,86,127
31732,note_on,58,0,0,,2,,,86,127
31790,note_off,58,0,0,,2,,,74,127
31846,note_off,56,0,0,,6,,,54,127
31847,note_on,1,0,0,,7,,,55,127
31847,note_on,0,0,0,,2,,,74,127
31905,note_off,58,0,0,,2,,,86,127
31963,note_on,58,0,0,,2,,,86,127
32021,note_off,58,0,0,,2,,,74,127
32079,note_on,58,0,0,,4,,,64,127
32079,note_on,0,0,0,,2,,,74,127
32137,note_off,58,0,0,,2,,,86,127
32195,note_on,58,0,0,,2,,,86,127
32253,note_off,58,0,0,,2,,,74,127
32309,note_off,56,0,0,,7,,,55,127
32310,note_on,1,0,0,,10,,,57,127
32310,note_on,0,0,0,,2,,,74,127
32368,note_off,58,0,0,,2,,,86,127
32426,note_on,58,0,0,,2,,,86,127
32484,note_off,58,0,0,,2,,,74,127
32540,note_off,56,0,0,,4,,,64,127
32541,note_on,1,0,0,,6,,,66,127
32541,note_on,0,0,0,,2,,,74,127
32599,note_off,58,0,0,,2,,,86,127
32657,note_on,58,0,0,,2,,,86,127
32715,note_off,58,0,0,,2,,,74,127
32771,note_off,56,0,0,,10,,,57,127
32772,note_on,1,0,0,,12,,,59,127
32772,note_on,0,0,0,,2,,,74,127
32830,note_off,58,0,0,,2,,,86,127
32888,note_on,58,0,0,,2,,,86,127
32946,note_off,58,0,0,,2,,,74,127
33002,note_off,56,0,0,,6,,,66,127
33003,note_on,1,0,0,,7,,,67,127
33003,note_on,0,0,0,,2,,,74,127
33061,note_off,58,0,0,,2,,,86,127
33119,note_on,58,0,0,,2,,,86,127
33177,note_off,58,0,0,,2,,,74,127
33233,note_off,56,0,0,,12,,,59,127
33234,note_on,1,0,0,,1,,,61,127
33234,note_on,0,0,0,,2,,,74,127
33292,note_off,58,0,0,,2,,,86,127
33350,note_on,58,0,0,,4,,,88,127
33408,note_off,58,0,0,,2,,,74,127
33464,note_off,56,0,0,,7,,,67,127
33465,note_on,1,0,0,,10,,,69,127
33465,note_on,0,0,0,,4,,,76,127
33523,note_off,58,0,0,,4,,,88,127
33581,note_on,58,0,0,,4,,,88,127
33639,note_off,58,0,0,,4,,,76,127
33695,note_off,56,0,0,,1,,,61,127
33696,note_on,1,0,0,,2,,,62,127
33696,note_on,0,0,0,,4,,,76,127
33754,note_off,58,0,0,,4,,,88,127
33812,note_on,58,0,0,,6,,,90,127
33870,note_off,58,0,0,,4,,,76,127
33926,note_off,56,0,0,,10,,,69,127
33927,note_on,1,0,0,,10,,,69,127
33927,note_on,0,0,0,,6,,,78,127
33985,note_off,58,0,0,,6,,,90,127
34043,note_on,58,0,0,,6,,,90,127
34101,note_off,58,0,0,,6,,,78,127
34157,note_off,56,0,0,,10,,,69,127
34157,note_off,0,0,0,,2,,,62,127
34158,note_on,1,0,0,,7,,,55,127
34158,note_on,0,0,0,,6,,,78,127
34216,note_off,58,0,0,,6,,,90,127
34274,note_on,58,0,0,,6,,,90,127
34332,note_off,58,0,0,,6,,,78,127
34390,note_on,58,0,0,,7,,,43,127
34390,note_on,0,0,0,,7,,,79,127
34448,note_off,58,0,0,,6,,,90,127
34506,note_on,58,0,0,,7,,,91,127
34564,note_off,58,0,0,,7,,,79,127
34620,note_off,56,0,0,,7,,,43,127
34620,note_off,0,0,0,,7,,,55,127
34621,note_on,1,0,0,,10,,,57,127
34621,note_on,0,0,0,,6,,,78,127
34679,note_off,58,0,0,,7,,,91,127
34737,note_on,58,0,0,,6,,,90,127
34795,note_off,58,0,0,,6,,,78,127
34853,note_on,58,0,0,,10,,,45,127
34853,note_on,0,0,0,,4,,,76,127
34911,note_off,58,0,0,,6,,,90,127
34969,note_on,58,0,0,,4,,,88,127
35027,note_off,58,0,0,,4,,,76,127
35083,note_off,56,0,0,,10,,,45,127
35083,note_off,0,0,0,,10,,,57,127
35084,note_on,1,0,0,,2,,,50,127
35084,note_on,0,0,0,,2,,,86,127
35142,note_off,58,0,0,,4,,,88,127
35198,note_off,56,0,0,,2,,,86,127
35199,note_on,1,0,0,,1,,,85,127
35313,note_off,114,0,0,,1,,,85,127
35313,note_off,0,0,0,,2,,,50,127
35314,note_on,1,0,0,,6,,,54,127
35314,note_on,0,0,0,,12,,,83,127
35428,note_off,114,0,0,,12,,,83,127
35429,note_on,1,0,0,,10,,,81,127
35543,note_off,114,0,0,,10,,,81,127
35543,note_off,0,0,0,,6,,,54,127
35544,note_on,1,0,0,,7,,,55,127
35544,note_on,0,0,0,,7,,,79,127
35658,note_off,114,0,0,,7,,,79,127
35659,note_on,1,0,0,,6,,,78,127
35773,note_off,114,0,0,,6,,,78,127
35774,note_on,1,0,0,,7,,,43,127
35774,note_on,0,0,0,,12,,,83,127
35774,note_on,0,0,0,,4,,,76,127
35888,note_off,114,0,0,,4,,,76,127
35889,note_on,1,0,0,,2,,,74,127
36003,note_off,114,0,0,,2,,,74,127
36003,note_off,0,0,0,,12,,,83,127
36003,note_off,0,0,0,,7,,,43,127
36003,note_off,0,0,0,,7,,,55,127
36004,note_on,1,0,0,,10,,,57,127
36004,note_on,0,0,0,,10,,,81,127
36118,note_off,114,0,0,,10,,,81,127
36119,note_on,1,0,0,,7,,,79,127
36233,note_off,114,0,0,,7,,,79,127
36233,note_off,0,0,0,,10,,,57,127
36234,note_on,1,0,0,,7,,,55,127
36234,note_on,0,0,0,,6,,,78,127
36348,note_off,114,0,0,,6,,,78,127
36349,note_on,1,0,0,,4,,,76,127
36463,note_off,114,0,0,,4,,,76,127
36463,note_off,0,0,0,,7,,,55,127
36464,note_on,1,0,0,,10,,,57,127
36464,note_on,0,0,0,,6,,,78,127
36578,note_off,114,0,0,,6,,,78,127
36579,note_on,1,0,0,,2,,,74,127
36693,note_off,114,0,0,,2,,,74,127
36694,note_on,1,0,0,,10,,,45,127
36694,note_on,0,0,0,,4,,,76,127
36808,note_off,114,0,0,,4,,,76,127
36809,note_on,1,0,0,,1,,,73,127
36923,note_off,114,0,0,,1,,,73,127
36923,note_off,0,0,0,,10,,,45,127
36923,note_off,0,0,0,,10,,,57,127
36924,note_on,1,0,0,,2,,,50,127
36924,note_on,0,0,0,,2,,,74,127
37038,note_off,114,0,0,,2,,,74,127
37039,note_on,1,0,0,,1,,,73,127
37153,note_off,114,0,0,,1,,,73,127
37153,note_off,0,0,0,,2,,,50,127
37154,note_on,1,0,0,,6,,,54,127
37154,note_on,0,0,0,,12,,,71,127
37268,note_off,114,0,0,,12,,,71,127
37269,note_on,1,0,0,,10,,,69,127
37383,note_off,114,0,0,,10,,,69,127
37383,note_off,0,0,0,,6,,,54,127
37384,note_on,1,0,0,,7,,,55,127
37384,note_on,0,0,0,,7,,,67,127
37498,note_off,114,0,0,,7,,,67,127
37499,note_on,1,0,0,,6,,,66,127
37613,note_off,114,0,0,,6,,,66,127
37614,note_on,1,0,0,,7,,,43,127
37614,note_on,0,0,0,,12,,,71,127
37614,note_on,0,0,0,,4,,,64,127
37728,note_off,114,0,0,,4,,,64,127
37729,note_on,1,0,0,,2,,,62,127
37843,note_off,114,0,0,,2,,,62,127
37843,note_off,0,0,0,,12,,,71,127
37843,note_off,0,0,0,,7,,,43,127
37843,note_off,0,0,0,,7,,,55,127
37844,note_on,1,0,0,,10,,,57,127
37844,note_on,0,0,0,,10,,,69,127
37958,note_off,114,0,0,,10,,,69,127
37959,note_on,1,0,0,,7,,,67,127
38073,note_off,114,0,0,,7,,,67,127
38073,note_off,0,0,0,,10,,,57,127
38074,note_on,1,0,0,,7,,,55,127
38074,note_on,0,0,0,,6,,,66,127
38188,note_off,114,0,0,,6,,,66,127
38189,note_on,1,0,0,,4,,,64,127
38303,note_off,114,0,0,,4,,,64,127
38303,note_off,0,0,0,,7,,,55,127
38304,note_on,1,0,0,,10,,,57,127
38304,note_on,0,0,0,,6,,,66,127
38418,note_off,114,0,0,,6,,,66,127
38419,note_on,1,0,0,,2,,,62,127
38533,note_off,114,0,0,,2,,,62,127
38534,note_on,1,0,0,,10,,,45,127
38534,note_on,0,0,0,,4,,,64,127
38648,note_off,114,0,0,,4,,,64,127
38649,note_off,1,0,0,,10,,,57,127
38649,note_on,0,0,0,,1,,,61,127
38763,note_off,114,0,0,,1,,,61,127
38763,note_off,0,0,0,,10,,,45,127
38764,note_on,1,0,0,,2,,,38,127
38764,note_on,0,0,0,,1,,,61,127
39224,note_off,460,0,0,,1,,,61,127
39225,note_on,1,0,0,,2,,,62,127
39571,note_off,346,0,0,,2,,,62,127
39685,note_off,114,0,0,,2,,,38,127
39686,note_on,1,0,0,,2,,,50,127
39686,note_on,0,0,0,,6,,,78,127
39686,note_on,0,0,0,,2,,,74,127
39686,note_on,0,0,0,,10,,,69,127
39915,note_off,229,0,0,,2,,,50,127
39916,note_on,1,0,0,,1,,,61,127
40030,note_off,114,0,0,,1,,,61,127
40031,note_on,1,0,0,,2,,,62,127
40145,note_off,114,0,0,,2,,,62,127
40146,note_on,1,0,0,,12,,,59,127
40260,note_off,114,0,0,,12,,,59,127
40261,note_on,1,0,0,,1,,,61,127
40375,note_off,114,0,0,,1,,,61,127
40376,note_on,1,0,0,,10,,,57,127
40490,note_off,114,0,0,,10,,,57,127
40491,note_on,1,0,0,,12,,,59,127
40605,note_off,114,0,0,,12,,,59,127
40605,note_off,0,0,0,,10,,,69,127
40605,note_off,0,0,0,,2,,,74,127
40605,note_off,0,0,0,,6,,,78,127
40606,note_on,1,0,0,,1,,,49,127
40606,note_on,0,0,0,,1,,,73,127
40606,note_on,0,0,0,,4,,,76,127
40606,note_on,0,0,0,,10,,,69,127
40835,note_off,229,0,0,,1,,,49,127
40836,note_on,1,0,0,,12,,,59,127
40950,note_off,114,0,0,,12,,,59,127
40951,note_on,1,0,0,,1,,,61,127
41065,note_off,114,0,0,,1,,,61,127
41066,note_on,1,0,0,,10,,,57,127
41180,note_off,114,0,0,,10,,,57,127
41181,note_on,1,0,0,,12,,,59,127
41295,note_off,114,0,0,,12,,,59,127
41296,note_on,1,0,0,,8,,,56,127
41410,note_off,114,0,0,,8,,,56,127
41411,note_on,1,0,0,,10,,,57,127
41525,note_off,114,0,0,,10,,,57,127
41525,note_off,0,0,0,,10,,,69,127
41525,note_off,0,0,0,,4,,,76,127
41525,note_off,0,0,0,,1,,,73,127
41526,note_on,1,0,0,,12,,,47,127
41526,note_on,0,0,0,,12,,,71,127
41526,note_on,0,0,0,,2,,,74,127
41755,note_off,229,0,0,,12,,,47,127
41756,note_on,1,0,0,,10,,,57,127
41870,note_off,114,0,0,,10,,,57,127
41871,note_on,1,0,0,,12,,,59,127
41985,note_off,114,0,0,,12,,,59,127
41986,note_on,1,0,0,,8,,,56,127
42100,note_off,114,0,0,,8,,,56,127
42101,note_on,1,0,0,,10,,,57,127
42215,note_off,114,0,0,,10,,,57,127
42216,note_on,1,0,0,,6,,,54,127
42330,note_off,114,0,0,,6,,,54,127
42331,note_on,1,0,0,,8,,,56,127
42445,note_off,114,0,0,,8,,,56,127
42445,note_off,0,0,0,,2,,,74,127
42445,note_off,0,0,0,,12,,,71,127
42446,note_on,1,0,0,,10,,,45,127
42446,note_on,0,0,0,,10,,,69,127
42446,note_on,0,0,0,,1,,,73,127
42675,note_off,229,0,0,,1,,,73,127
42675,note_off,0,0,0,,10,,,69,127
42676,note_on,1,0,0,,1,,,73,127
42790,note_off,114,0,0,,1,,,73,127
42791,note_on,1,0,0,,2,,,74,127
42905,note_off,114,0,0,,2,,,74,127
42906,note_on,1,0,0,,12,,,71,127
43020,note_off,114,0,0,,12,,,71,127
43021,note_off,1,0,0,,10,,,45,127
43021,note_on,0,0,0,,1,,,73,127
43135,note_off,114,0,0,,1,,,73,127
43136,note_on,1,0,0,,1,,,61,127
43136,note_on,0,0,0,,10,,,69,127
43250,note_off,114,0,0,,10,,,69,127
43250,note_off,0,0,0,,1,,,61,127
43251,note_on,1,0,0,,12,,,59,127
43251,note_on,0,0,0,,12,,,71,127
43365,note_off,114,0,0,,12,,,71,127
43365,note_off,0,0,0,,12,,,59,127
43366,note_on,1,0,0,,10,,,33,127
43366,note_on,0,0,0,,1,,,73,127
43480,note_off,114,0,0,,1,,,73,127
43481,note_on,1,0,0,,4,,,64,127
43595,note_off,114,0,0,,4,,,64,127
43596,note_on,1,0,0,,1,,,73,127
43710,note_off,114,0,0,,1,,,73,127
43711,note_on,1,0,0,,2,,,74,127
43825,note_off,114,0,0,,2,,,74,127
43826,note_on,1,0,0,,12,,,71,127
43940,note_off,114,0,0,,12,,,71,127
43941,note_off,1,0,0,,10,,,33,127
43941,note_on,0,0,0,,1,,,73,127
44055,note_off,114,0,0,,1,,,73,127
44056,note_on,1,0,0,,1,,,61,127
44056,note_on,0,0,0,,10,,,69,127
44170,note_off,114,0,0,,10,,,69,127
44170,note_off,0,0,0,,1,,,61,127
44171,note_on,1,0,0,,12,,,59,127
44171,note_on,0,0,0,,12,,,71,127
44285,note_off,114,0,0,,12,,,71,127
44285,note_off,0,0,0,,12,,,59,127
44286,note_on,1,0,0,,10,,,33,127
44286,note_on,0,0,0,,1,,,73,127
44400,note_off,114,0,0,,1,,,73,127
44401,note_on,1,0,0,,4,,,64,127
44515,note_off,114,0,0,,4,,,64,127
44516,note_on,1,0,0,,4,,,76,127
44516,note_on,0,0,0,,1,,,73,127
44630,note_off,114,0,0,,1,,,73,127
44630,note_off,0,0,0,,4,,,76,127
44631,note_on,1,0,0,,6,,,78,127
44631,note_on,0,0,0,,2,,,74,127
44745,note_off,114,0,0,,2,,,74,127
44745,note_off,0,0,0,,6,,,78,127
44746,note_on,1,0,0,,2,,,74,127
44746,note_on,0,0,0,,12,,,71,127
44860,note_off,114,0,0,,12,,,71,127
44860,note_off,0,0,0,,2,,,74,127
44861,note_off,1,0,0,,10,,,33,127
44861,note_on,0,0,0,,4,,,76,127
44861,note_on,0,0,0,,1,,,73,127
44975,note_off,114,0,0,,1,,,73,127
44975,note_off,0,0,0,,4,,,76,127
44976,note_on,1,0,0,,1,,,61,127
44976,note_on,0,0,0,,1,,,73,127
44976,note_on,0,0,0,,10,,,69,127
45090,note_off,114,0,0,,10,,,69,127
45090,note_off,0,0,0,,1,,,73,127
45090,note_off,0,0,0,,1,,,61,127
45091,note_on,1,0,0,,12,,,59,127
45091,note_on,0,0,0,,2,,,74,127
45091,note_on,0,0,0,,12,,,71,127
45205,note_off,114,0,0,,12,,,71,127
45205,note_off,0,0,0,,2,,,74,127
45205,note_off,0,0,0,,12,,,59,127
45206,note_on,1,0,0,,10,,,33,127
45206,note_on,0,0,0,,1,,,73,127
45206,note_on,0,0,0,,4,,,76,127
45320,note_off,114,0,0,,4,,,76,127
45320,note_off,0,0,0,,1,,,73,127
45321,note_on,1,0,0,,4,,,64,127
45435,note_off,114,0,0,,4,,,64,127
45436,note_on,1,0,0,,6,,,78,127
45550,note_off,114,0,0,,6,,,78,127
45551,note_off,1,0,0,,10,,,33,127
45551,note_on,0,0,0,,7,,,79,127
45665,note_off,114,0,0,,7,,,79,127
45666,note_on,1,0,0,,4,,,76,127
45780,note_off,114,0,0,,4,,,76,127
45781,note_on,1,0,0,,6,,,78,127
45895,note_off,114,0,0,,6,,,78,127
45896,note_on,1,0,0,,0,,,60,127
45896,note_on,0,0,0,,10,,,69,127
45896,note_on,0,0,0,,3,,,75,127
46010,note_off,114,0,0,,3,,,75,127
46011,note_on,1,0,0,,4,,,76,127
46125,note_off,114,0,0,,4,,,76,127
46125,note_off,0,0,0,,10,,,69,127
46125,note_off,0,0,0,,0,,,60,127
46126,note_on,1,0,0,,12,,,59,127
46126,note_on,0,0,0,,10,,,69,127
46126,note_on,0,0,0,,6,,,78,127
46240,note_off,114,0,0,,6,,,78,127
46241,note_on,1,0,0,,12,,,71,127
46355,note_off,114,0,0,,12,,,71,127
46355,note_off,0,0,0,,10,,,69,127
46355,note_off,0,0,0,,12,,,59,127
46356,note_on,1,0,0,,12,,,59,127
46356,note_on,0,0,0,,10,,,69,127
46356,note_on,0,0,0,,6,,,78,127
46470,note_off,114,0,0,,6,,,78,127
46471,note_on,1,0,0,,7,,,79,127
46585,note_off,114,0,0,,7,,,79,127
46585,note_off,0,0,0,,10,,,69,127
46585,note_off,0,0,0,,12,,,59,127
46586,note_on,1,0,0,,10,,,69,127
46586,note_on,0,0,0,,0,,,60,127
46586,note_on,0,0,0,,4,,,76,127
46700,note_off,114,0,0,,4,,,76,127
46701,note_on,1,0,0,,6,,,78,127
46815,note_off,114,0,0,,6,,,78,127
46815,note_off,0,0,0,,0,,,60,127
46815,note_off,0,0,0,,10,,,69,127
46816,note_on,1,0,0,,0,,,60,127
46816,note_on,0,0,0,,10,,,69,127
46816,note_on,0,0,0,,3,,,75,127
46930,note_off,114,0,0,,3,,,75,127
46931,note_on,1,0,0,,4,,,76,127
47045,note_off,114,0,0,,4,,,76,127
47045,note_off,0,0,0,,10,,,69,127
47045,note_off,0,0,0,,0,,,60,127
47046,note_on,1,0,0,,12,,,59,127
47046,note_on,0,0,0,,10,,,69,127
47046,note_on,0,0,0,,6,,,78,127
47161,note_on,115,0,0,,12,,,71,127
47219,note_off,58,0,0,,6,,,78,127
47275,note_off,56,0,0,,10,,,69,127
47275,note_off,0,0,0,,12,,,59,127
47276,note_on,1,0,0,,12,,,59,127
47276,note_on,0,0,0,,10,,,69,127
47276,note_on,0,0,0,,12,,,83,127
47334,note_off,58,0,0,,12,,,71,127
47392,note_on,58,0,0,,12,,,71,127
47450,note_off,58,0,0,,12,,,83,127
47506,note_off,56,0,0,,10,,,69,127
47506,note_off,0,0,0,,12,,,59,127
47507,note_on,1,0,0,,12,,,59,127
47507,note_on,0,0,0,,10,,,69,127
47507,note_on,0,0,0,,12,,,83,127
47565,note_off,58,0,0,,12,,,71,127
47623,note_on,58,0,0,,12,,,71,127
47681,note_off,58,0,0,,12,,,83,127
47737,note_off,56,0,0,,10,,,69,127
47737,note_off,0,0,0,,12,,,59,127
47738,note_on,1,0,0,,10,,,69,127
47738,note_on,0,0,0,,12,,,59,127
47738,note_on,0,0,0,,12,,,83,127
47796,note_off,58,0,0,,12,,,71,127
47854,note_on,58,0,0,,12,,,71,127
47912,note_off,58,0,0,,12,,,83,127
47968,note_off,56,0,0,,12,,,59,127
47968,note_off,0,0,0,,10,,,69,127
47969,note_on,1,0,0,,12,,,59,127
47969,note_on,0,0,0,,7,,,67,127
47969,note_on,0,0,0,,12,,,83,127
48027,note_off,58,0,0,,12,,,71,127
48085,note_on,58,0,0,,12,,,71,127
48143,note_off,58,0,0,,12,,,83,127
48199,note_off,56,0,0,,7,,,67,127
48199,note_off,0,0,0,,12,,,59,127
48200,note_on,1,0,0,,12,,,59,127
48200,note_on,0,0,0,,7,,,67,127
48200,note_on,0,0,0,,12,,,83,127
48258,note_off,58,0,0,,12,,,71,127
48316,note_on,58,0,0,,12,,,71,127
48374,note_off,58,0,0,,12,,,83,127
48430,note_off,56,0,0,,7,,,67,127
48430,note_off,0,0,0,,12,,,59,127
48431,note_on,1,0,0,,7,,,67,127
48431,note_on,0,0,0,,12,,,59,127
48431,note_on,0,0,0,,12,,,83,127
48489,note_off,58,0,0,,12,,,71,127
48547,note_on,58,0,0,,12,,,71,127
48605,note_off,58,0,0,,12,,,83,127
48661,note_off,56,0,0,,12,,,59,127
48661,note_off,0,0,0,,7,,,67,127
48662,note_on,1,0,0,,12,,,59,127
48662,note_on,0,0,0,,7,,,67,127
48662,note_on,0,0,0,,12,,,83,127
48720,note_off,58,0,0,,12,,,71,127
48778,note_on,58,0,0,,12,,,71,127
48836,note_off,58,0,0,,12,,,83,127
48892,note_off,56,0,0,,7,,,67,127
48892,note_off,0,0,0,,12,,,59,127
48893,note_on,1,0,0,,7,,,67,127
48893,note_on,0,0,0,,10,,,57,127
48893,note_on,0,0,0,,0,,,84,127
48951,note_off,58,0,0,,12,,,71,127
49009,note_on,58,0,0,,0,,,72,127
49067,note_off,58,0,0,,0,,,84,127
49123,note_off,56,0,0,,10,,,57,127
49123,note_off,0,0,0,,7,,,67,127
49124,note_on,1,0,0,,7,,,67,127
49124,note_on,0,0,0,,10,,,57,127
49124,note_on,0,0,0,,0,,,84,127
49182,note_off,58,0,0,,0,,,72,127
49240,note_on,58,0,0,,0,,,72,127
49298,note_off,58,0,0,,0,,,84,127
49354,note_off,56,0,0,,10,,,57,127
49354,note_off,0,0,0,,7,,,67,127
49355,note_on,1,0,0,,10,,,57,127
49355,note_on,0,0,0,,10,,,69,127
49355,note_on,0,0,0,,0,,,84,127
49413,note_off,58,0,0,,0,,,72,127
49471,note_on,58,0,0,,0,,,72,127
49529,note_off,58,0,0,,0,,,84,127
49585,note_off,56,0,0,,10,,,69,127
49585,note_off,0,0,0,,10,,,57,127
49586,note_on,1,0,0,,7,,,67,127
49586,note_on,0,0,0,,10,,,57,127
49586,note_on,0,0,0,,0,,,84,127
49644,note_off,58,0,0,,0,,,72,127
49702,note_on,58,0,0,,0,,,72,127
49760,note_off,58,0,0,,0,,,84,127
49816,note_off,56,0,0,,10,,,57,127
49816,note_off,0,0,0,,7,,,67,127
49817,note_on,1,0,0,,10,,,57,127
49817,note_on,0,0,0,,6,,,66,127
49817,note_on,0,0,0,,0,,,84,127
49875,note_off,58,0,0,,0,,,72,127
49933,note_on,58,0,0,,0,,,72,127
49991,note_off,58,0,0,,0,,,84,127
50047,note_off,56,0,0,,6,,,66,127
50047,note_off,0,0,0,,10,,,57,127
50048,note_on,1,0,0,,4,,,64,127
50048,note_on,0,0,0,,10,,,57,127
50048,note_on,0,0,0,,0,,,84,127
50106,note_off,58,0,0,,0,,,72,127
50164,note_on,58,0,0,,0,,,72,127
50222,note_off,58,0,0,,0,,,84,127
50278,note_off,56,0,0,,10,,,57,127
50278,note_off,0,0,0,,4,,,64,127
50279,note_on,1,0,0,,2,,,62,127
50279,note_on,0,0,0,,10,,,57,127
50279,note_on,0,0,0,,0,,,84,127
50337,note_off,58,0,0,,0,,,72,127
50395,note_on,58,0,0,,0,,,72,127
50453,note_off,58,0,0,,0,,,84,127
50509,note_off,56,0,0,,10,,,57,127
50509,note_off,0,0,0,,2,,,62,127
50510,note_on,1,0,0,,0,,,60,127
50510,note_on,0,0,0,,10,,,57,127
50510,note_on,0,0,0,,0,,,84,127
50568,note_off,58,0,0,,0,,,72,127
50626,note_on,58,0,0,,0,,,72,127
50684,note_off,58,0,0,,0,,,84,127
50740,note_off,56,0,0,,10,,,57,127
50740,note_off,0,0,0,,0,,,60,127
50741,note_on,1,0,0,,12,,,59,127
50741,note_on,0,0,0,,7,,,55,127
50741,note_on,0,0,0,,2,,,62,127
50741,note_on,0,0,0,,6,,,66,127
50741,note_on,0,0,0,,2,,,86,127
50799,note_off,58,0,0,,0,,,72,127
50857,note_on,58,0,0,,2,,,74,127
50915,note_off,58,0,0,,2,,,86,127
50971,note_off,56,0,0,,6,,,66,127
50971,note_off,0,0,0,,2,,,62,127
50971,note_off,0,0,0,,7,,,55,127
50971,note_off,0,0,0,,12,,,59,127
50972,note_on,1,0,0,,7,,,55,127
50972,note_on,0,0,0,,12,,,59,127
50972,note_on,0,0,0,,2,,,62,127
50972,note_on,0,0,0,,6,,,66,127
50972,note_on,0,0,0,,2,,,86,127
51030,note_off,58,0,0,,2,,,74,127
51088,note_on,58,0,0,,2,,,74,127
51146,note_off,58,0,0,,2,,,86,127
51202,note_off,56,0,0,,6,,,66,127
51202,note_off,0,0,0,,2,,,62,127
51202,note_off,0,0,0,,12,,,59,127
51202,note_off,0,0,0,,7,,,55,127
51203,note_on,1,0,0,,7,,,55,127
51203,note_on,0,0,0,,2,,,62,127
51203,note_on,0,0,0,,12,,,59,127
51203,note_on,0,0,0,,6,,,66,127
51203,note_on,0,0,0,,12,,,83,127
51261,note_off,58,0,0,,2,,,74,127
51319,note_on,58,0,0,,12,,,71,127
51377,note_off,58,0,0,,12,,,83,127
51433,note_off,56,0,0,,6,,,66,127
51433,note_off,0,0,0,,12,,,59,127
51433,note_off,0,0,0,,2,,,62,127
51433,note_off,0,0,0,,7,,,55,127
51434,note_on,1,0,0,,7,,,55,127
51434,note_on,0,0,0,,2,,,62,127
51434,note_on,0,0,0,,12,,,59,127
51434,note_on,0,0,0,,6,,,66,127
51434,note_on,0,0,0,,12,,,83,127
51492,note_off,58,0,0,,12,,,71,127
51550,note_on,58,0,0,,12,,,71,127
51608,note_off,58,0,0,,12,,,83,127
51664,note_off,56,0,0,,6,,,66,127
51664,note_off,0,0,0,,12,,,59,127
51664,note_off,0,0,0,,2,,,62,127
51664,note_off,0,0,0,,7,,,55,127
51665,note_on,1,0,0,,7,,,55,127
51665,note_on,0,0,0,,2,,,62,127
51665,note_on,0,0,0,,12,,,59,127
51665,note_on,0,0,0,,7,,,79,127
51723,note_off,58,0,0,,12,,,71,127
51781,note_on,58,0,0,,7,,,67,127
51839,note_off,58,0,0,,7,,,79,127
51895,note_off,56,0,0,,12,,,59,127
51895,note_off,0,0,0,,2,,,62,127
51895,note_off,0,0,0,,7,,,55,127
51896,note_on,1,0,0,,12,,,59,127
51896,note_on,0,0,0,,7,,,55,127
51896,note_on,0,0,0,,2,,,62,127
51896,note_on,0,0,0,,7,,,79,127
51954,note_off,58,0,0,,7,,,67,127
52012,note_on,58,0,0,,7,,,67,127
52070,note_off,58,0,0,,7,,,79,127
52126,note_off,56,0,0,,2,,,62,127
52126,note_off,0,0,0,,7,,,55,127
52126,note_off,0,0,0,,12,,,59,127
52127,note_on,1,0,0,,12,,,59,127
52127,note_on,0,0,0,,7,,,55,127
52127,note_on,0,0,0,,4,,,76,127
52185,note_off,58,0,0,,7,,,67,127
52243,note_on,58,0,0,,4,,,64,127
52301,note_off,58,0,0,,4,,,76,127
52357,note_off,56,0,0,,7,,,55,127
52357,note_off,0,0,0,,12,,,59,127
52358,note_on,1,0,0,,12,,,59,127
52358,note_on,0,0,0,,7,,,55,127
52358,note_on,0,0,0,,4,,,76,127
52416,note_off,58,0,0,,4,,,64,127
52474,note_on,58,0,0,,4,,,64,127
52532,note_off,58,0,0,,4,,,76,127
52588,note_off,56,0,0,,7,,,55,127
52588,note_off,0,0,0,,12,,,59,127
52589,note_on,1,0,0,,1,,,61,127
52589,note_on,0,0,0,,6,,,54,127
52589,note_on,0,0,0,,11,,,58,127
52589,note_on,0,0,0,,4,,,76,127
52647,note_off,58,0,0,,4,,,64,127
52705,note_on,58,0,0,,6,,,66,127
52763,note_off,58,0,0,,4,,,76,127
52819,note_off,56,0,0,,11,,,58,127
52819,note_off,0,0,0,,6,,,54,127
52819,note_off,0,0,0,,1,,,61,127
52820,note_on,1,0,0,,1,,,61,127
52820,note_on,0,0,0,,11,,,58,127
52820,note_on,0,0,0,,6,,,54,127
52820,note_on,0,0,0,,4,,,76,127
52878,note_off,58,0,0,,6,,,66,127
52936,note_on,58,0,0,,6,,,66,127
52994,note_off,58,0,0,,4,,,76,127
53050,note_off,56,0,0,,6,,,54,127
53050,note_off,0,0,0,,11,,,58,127
53050,note_off,0,0,0,,1,,,61,127
53051,note_on,1,0,0,,6,,,54,127
53051,note_on,0,0,0,,12,,,59,127
53051,note_on,0,0,0,,2,,,62,127
53051,note_on,0,0,0,,2,,,74,127
53109,note_off,58,0,0,,6,,,66,127
53167,note_on,58,0,0,,6,,,66,127
53225,note_off,58,0,0,,2,,,74,127
53281,note_off,56,0,0,,2,,,62,127
53281,note_off,0,0,0,,12,,,59,127
53281,note_off,0,0,0,,6,,,54,127
53282,note_on,1,0,0,,6,,,54,127
53282,note_on,0,0,0,,2,,,62,127
53282,note_on,0,0,0,,12,,,59,127
53282,note_on,0,0,0,,2,,,74,127
53340,note_off,58,0,0,,6,,,66,127
53398,note_on,58,0,0,,6,,,66,127
53456,note_off,58,0,0,,2,,,74,127
53512,note_off,56,0,0,,12,,,59,127
53512,note_off,0,0,0,,2,,,62,127
53512,note_off,0,0,0,,6,,,54,127
53513,note_on,1,0,0,,11,,,58,127
53513,note_on,0,0,0,,1,,,61,127
53513,note_on,0,0,0,,6,,,54,127
53513,note_on,0,0,0,,1,,,73,127
53571,note_off,58,0,0,,6,,,66,127
53627,note_off,56,0,0,,1,,,73,127
53628,note_on,1,0,0,,6,,,66,127
53742,note_off,114,0,0,,6,,,66,127
53742,note_off,0,0,0,,6,,,54,127
53742,note_off,0,0,0,,1,,,61,127
53742,note_off,0,0,0,,11,,,58,127
53743,note_on,1,0,0,,11,,,58,127
53743,note_on,0,0,0,,6,,,54,127
53743,note_on,0,0,0,,1,,,61,127
53743,note_on,0,0,0,,11,,,70,127
53857,note_off,114,0,0,,11,,,70,127
53858,note_on,1,0,0,,6,,,66,127
53972,note_off,114,0,0,,6,,,66,127
53972,note_off,0,0,0,,1,,,61,127
53972,note_off,0,0,0,,6,,,54,127
53972,note_off,0,0,0,,11,,,58,127
53973,note_on,1,0,0,,6,,,54,127
53973,note_on,0,0,0,,2,,,62,127
53973,note_on,0,0,0,,12,,,59,127
53973,note_on,0,0,0,,1,,,73,127
54029,note_off,56,0,0,,1,,,73,127
54030,note_on,1,0,0,,12,,,71,127
54086,note_off,56,0,0,,12,,,71,127
54087,note_on,1,0,0,,1,,,73,127
54143,note_off,56,0,0,,1,,,73,127
54144,note_on,1,0,0,,12,,,71,127
54200,note_off,56,0,0,,12,,,71,127
54201,note_on,1,0,0,,1,,,73,127
54257,note_off,56,0,0,,1,,,73,127
54258,note_on,1,0,0,,12,,,71,127
54314,note_off,56,0,0,,12,,,71,127
54315,note_on,1,0,0,,11,,,70,127
54371,note_off,56,0,0,,11,,,70,127
54372,note_on,1,0,0,,12,,,71,127
54428,note_off,56,0,0,,12,,,71,127
54428,note_off,0,0,0,,12,,,59,127
54428,note_off,0,0,0,,2,,,62,127
54428,note_off,0,0,0,,6,,,54,127
54429,note_on,1,0,0,,6,,,54,127
54429,note_on,0,0,0,,1,,,61,127
54429,note_on,0,0,0,,11,,,58,127
54429,note_on,0,0,0,,1,,,73,127
54602,note_off,173,0,0,,1,,,73,127
54660,note_on,58,0,0,,6,,,78,127
54774,note_off,114,0,0,,6,,,78,127
54775,note_on,1,0,0,,7,,,79,127
54889,note_off,114,0,0,,7,,,79,127
54890,note_on,1,0,0,,4,,,76,127
55004,note_off,114,0,0,,4,,,76,127
55005,note_on,1,0,0,,6,,,78,127
55089,note_off,84,0,0,,11,,,58,127
55089,note_off,0,0,0,,6,,,54,127
55119,note_off,30,0,0,,6,,,78,127
55119,note_off,0,0,0,,1,,,61,127
55120,note_on,1,0,0,,11,,,58,127
55120,note_on,0,0,0,,6,,,54,127
55120,note_on,0,0,0,,1,,,61,127
55120,note_on,0,0,0,,1,,,73,127
55234,note_off,114,0,0,,1,,,73,127
55235,note_on,1,0,0,,4,,,76,127
55349,note_off,114,0,0,,4,,,76,127
55349,note_off,0,0,0,,1,,,61,127
55349,note_off,0,0,0,,6,,,54,127
55349,note_off,0,0,0,,11,,,58,127
55350,note_on,1,0,0,,6,,,54,127
55350,note_on,0,0,0,,2,,,62,127
55350,note_on,0,0,0,,12,,,59,127
55350,note_on,0,0,0,,2,,,74,127
55579,note_off,229,0,0,,2,,,74,127
55580,note_on,1,0,0,,6,,,78,127
55694,note_off,114,0,0,,6,,,78,127
55695,note_on,1,0,0,,7,,,79,127
55809,note_off,114,0,0,,7,,,79,127
55810,note_on,1,0,0,,4,,,76,127
55924,note_off,114,0,0,,4,,,76,127
55925,note_on,1,0,0,,6,,,78,127
56009,note_off,84,0,0,,12,,,59,127
56009,note_off,0,0,0,,6,,,54,127
56039,note_off,30,0,0,,6,,,78,127
56039,note_off,0,0,0,,2,,,62,127
56040,note_on,1,0,0,,6,,,54,127
56040,note_on,0,0,0,,1,,,61,127
56040,note_on,0,0,0,,11,,,58,127
56040,note_on,0,0,0,,1,,,73,127
56154,note_off,114,0,0,,1,,,73,127
56155,note_on,1,0,0,,4,,,76,127
56269,note_off,114,0,0,,4,,,76,127
56269,note_off,0,0,0,,11,,,58,127
56269,note_off,0,0,0,,1,,,61,127
56269,note_off,0,0,0,,6,,,54,127
56270,note_on,1,0,0,,6,,,54,127
56270,note_on,0,0,0,,2,,,62,127
56270,note_on,0,0,0,,12,,,59,127
56270,note_on,0,0,0,,2,,,74,127
56499,note_off,229,0,0,,12,,,59,127
56499,note_off,0,0,0,,2,,,62,127
56499,note_off,0,0,0,,6,,,54,127
56500,note_on,1,0,0,,6,,,66,127
56614,note_off,114,0,0,,6,,,66,127
56615,note_on,1,0,0,,7,,,67,127
56729,note_off,114,0,0,,7,,,67,127
56730,note_on,1,0,0,,4,,,64,127
56844,note_off,114,0,0,,4,,,64,127
56845,note_off,1,0,0,,2,,,74,127
56845,note_on,0,0,0,,6,,,66,127
56959,note_off,114,0,0,,6,,,66,127
56960,note_on,1,0,0,,1,,,61,127
56960,note_on,0,0,0,,4,,,76,127
56960,note_on,0,0,0,,1,,,73,127
57074,note_off,114,0,0,,1,,,61,127
57075,note_on,1,0,0,,4,,,64,127
57189,note_off,114,0,0,,4,,,64,127
57189,note_off,0,0,0,,1,,,73,127
57189,note_off,0,0,0,,4,,,76,127
57190,note_on,1,0,0,,2,,,62,127
57190,note_on,0,0,0,,6,,,78,127
57190,note_on,0,0,0,,2,,,74,127
57419,note_off,229,0,0,,2,,,62,127
57420,note_on,1,0,0,,6,,,66,127
57534,note_off,114,0,0,,6,,,66,127
57535,note_on,1,0,0,,7,,,67,127
57649,note_off,114,0,0,,7,,,67,127
57650,note_on,1,0,0,,4,,,64,127
57764,note_off,114,0,0,,4,,,64,127
57765,note_on,1,0,0,,6,,,66,127
57879,note_off,114,0,0,,6,,,66,127
57879,note_off,0,0,0,,2,,,74,127
57879,note_off,0,0,0,,6,,,78,127
57880,note_on,1,0,0,,1,,,61,127
57880,note_on,0,0,0,,4,,,76,127
57880,note_on,0,0,0,,1,,,73,127
57994,note_off,114,0,0,,1,,,61,127
57995,note_on,1,0,0,,4,,,64,127
58109,note_off,114,0,0,,4,,,64,127
58109,note_off,0,0,0,,4,,,76,127
58110,note_on,1,0,0,,2,,,62,127
58110,note_on,0,0,0,,6,,,78,127
58224,note_off,114,0,0,,2,,,62,127
58225,note_on,1,0,0,,6,,,66,127
58339,note_off,114,0,0,,6,,,66,127
58339,note_off,0,0,0,,1,,,73,127
58340,note_on,1,0,0,,12,,,59,127
58340,note_on,0,0,0,,2,,,74,127
58454,note_off,114,0,0,,12,,,59,127
58455,note_on,1,0,0,,2,,,62,127
58569,note_off,114,0,0,,2,,,62,127
58569,note_off,0,0,0,,2,,,74,127
58570,note_on,1,0,0,,7,,,55,127
58570,note_on,0,0,0,,12,,,71,127
58684,note_off,114,0,0,,7,,,55,127
58685,note_on,1,0,0,,12,,,59,127
58799,note_off,114,0,0,,12,,,59,127
58799,note_off,0,0,0,,6,,,78,127
58800,note_on,1,0,0,,4,,,52,127
58800,note_on,0,0,0,,7,,,79,127
58914,note_off,114,0,0,,4,,,52,127
58915,note_on,1,0,0,,7,,,55,127
59029,note_off,114,0,0,,7,,,55,127
59029,note_off,0,0,0,,7,,,79,127
59030,note_on,1,0,0,,1,,,49,127
59030,note_on,0,0,0,,4,,,76,127
59144,note_off,114,0,0,,1,,,49,127
59145,note_on,1,0,0,,4,,,52,127
59259,note_off,114,0,0,,4,,,52,127
59259,note_off,0,0,0,,12,,,71,127
59260,note_on,1,0,0,,11,,,46,127
59260,note_on,0,0,0,,1,,,73,127
59374,note_off,114,0,0,,11,,,46,127
59375,note_on,1,0,0,,1,,,49,127
59489,note_off,114,0,0,,1,,,49,127
59489,note_off,0,0,0,,1,,,73,127
59490,note_on,1,0,0,,6,,,42,127
59490,note_on,0,0,0,,11,,,70,127
59604,note_off,114,0,0,,6,,,42,127
59605,note_on,1,0,0,,11,,,46,127
59719,note_off,114,0,0,,11,,,46,127
59719,note_off,0,0,0,,4,,,76,127
59720,note_on,1,0,0,,2,,,38,127
59720,note_on,0,0,0,,6,,,78,127
59834,note_off,114,0,0,,2,,,38,127
59835,note_on,1,0,0,,6,,,42,127
59949,note_off,114,0,0,,6,,,42,127
59949,note_off,0,0,0,,11,,,70,127
59950,note_on,1,0,0,,12,,,47,127
60064,note_off,114,0,0,,6,,,78,127
60065,note_on,1,0,0,,4,,,76,127
60179,note_off,114,0,0,,4,,,76,127
60180,note_on,1,0,0,,2,,,74,127
60294,note_off,114,0,0,,2,,,74,127
60295,note_on,1,0,0,,1,,,73,127
60409,note_off,114,0,0,,1,,,73,127
60410,note_on,1,0,0,,12,,,71,127
60524,note_off,114,0,0,,12,,,71,127
60525,note_off,1,0,0,,12,,,47,127
60525,note_on,0,0,0,,10,,,69,127
60639,note_off,114,0,0,,10,,,69,127
60640,note_on,1,0,0,,2,,,50,127
60640,note_on,0,0,0,,6,,,78,127
60640,note_on,0,0,0,,7,,,67,127
60754,note_off,114,0,0,,7,,,67,127
60755,note_on,1,0,0,,6,,,66,127
60869,note_off,114,0,0,,6,,,66,127
60869,note_off,0,0,0,,2,,,50,127
60870,note_on,1,0,0,,4,,,52,127
60870,note_on,0,0,0,,7,,,67,127
60984,note_off,114,0,0,,6,,,78,127
60985,note_on,1,0,0,,4,,,76,127
61099,note_off,114,0,0,,4,,,76,127
61100,note_on,1,0,0,,4,,,40,127
61100,note_on,0,0,0,,2,,,74,127
61214,note_off,114,0,0,,2,,,74,127
61215,note_on,1,0,0,,1,,,73,127
61329,note_off,114,0,0,,1,,,73,127
61329,note_off,0,0,0,,4,,,40,127
61329,note_off,0,0,0,,7,,,67,127
61329,note_off,0,0,0,,4,,,52,127
61330,note_on,1,0,0,,6,,,54,127
61330,note_on,0,0,0,,2,,,74,127
61444,note_off,114,0,0,,2,,,74,127
61445,note_on,1,0,0,,12,,,71,127
61559,note_off,114,0,0,,12,,,71,127
61560,note_on,1,0,0,,6,,,42,127
61560,note_on,0,0,0,,1,,,73,127
61674,note_off,114,0,0,,1,,,73,127
61675,note_off,1,0,0,,6,,,54,127
61675,note_on,0,0,0,,11,,,70,127
61789,note_off,114,0,0,,11,,,70,127
61789,note_off,0,0,0,,6,,,42,127
61790,note_on,1,0,0,,12,,,35,127
61790,note_on,0,0,0,,12,,,71,127
62019,note_off,229,0,0,,12,,,71,127
62020,note_on,1,0,0,,2,,,74,127
62134,note_off,114,0,0,,2,,,74,127
62135,note_on,1,0,0,,4,,,76,127
62249,note_off,114,0,0,,4,,,76,127
62250,note_on,1,0,0,,1,,,73,127
62364,note_off,114,0,0,,1,,,73,127
62365,note_off,1,0,0,,12,,,35,127
62365,note_on,0,0,0,,2,,,74,127
62479,note_off,114,0,0,,2,,,74,127
62480,note_on,1,0,0,,2,,,62,127
62480,note_on,0,0,0,,12,,,71,127
62594,note_off,114,0,0,,12,,,71,127
62594,note_off,0,0,0,,2,,,62,127
62595,note_on,1,0,0,,1,,,61,127
62595,note_on,0,0,0,,1,,,73,127
62709,note_off,114,0,0,,1,,,73,127
62709,note_off,0,0,0,,1,,,61,127
62710,note_on,1,0,0,,12,,,35,127
62710,note_on,0,0,0,,2,,,74,127
62824,note_off,114,0,0,,2,,,74,127
62825,note_on,1,0,0,,6,,,66,127
62939,note_off,114,0,0,,6,,,66,127
62940,note_on,1,0,0,,2,,,74,127
63054,note_off,114,0,0,,2,,,74,127
63055,note_on,1,0,0,,4,,,76,127
63169,note_off,114,0,0,,4,,,76,127
63170,note_on,1,0,0,,1,,,73,127
63284,note_off,114,0,0,,1,,,73,127
63285,note_off,1,0,0,,12,,,35,127
63285,note_on,0,0,0,,2,,,74,127
63399,note_off,114,0,0,,2,,,74,127
63400,note_on,1,0,0,,2,,,62,127
63400,note_on,0,0,0,,12,,,71,127
63514,note_off,114,0,0,,12,,,71,127
63514,note_off,0,0,0,,2,,,62,127
63515,note_on,1,0,0,,1,,,61,127
63515,note_on,0,0,0,,1,,,73,127
63629,note_off,114,0,0,,1,,,73,127
63629,note_off,0,0,0,,1,,,61,127
63630,note_on,1,0,0,,12,,,35,127
63630,note_on,0,0,0,,2,,,74,127
63744,note_off,114,0,0,,2,,,74,127
63745,note_on,1,0,0,,6,,,66,127
63859,note_off,114,0,0,,6,,,66,127
63860,note_on,1,0,0,,6,,,78,127
63860,note_on,0,0,0,,2,,,74,127
63974,note_off,114,0,0,,2,,,74,127
63974,note_off,0,0,0,,6,,,78,127
63975,note_on,1,0,0,,4,,,76,127
63975,note_on,0,0,0,,7,,,79,127
64089,note_off,114,0,0,,7,,,79,127
64089,note_off,0,0,0,,4,,,76,127
64090,note_on,1,0,0,,4,,,76,127
64090,note_on,0,0,0,,1,,,73,127
64204,note_off,114,0,0,,1,,,73,127
64204,note_off,0,0,0,,4,,,76,127
64205,note_off,1,0,0,,12,,,35,127
64205,note_on,0,0,0,,6,,,78,127
64205,note_on,0,0,0,,2,,,74,127
64319,note_off,114,0,0,,2,,,74,127
64319,note_off,0,0,0,,6,,,78,127
64320,note_on,1,0,0,,2,,,62,127
64320,note_on,0,0,0,,12,,,71,127
64320,note_on,0,0,0,,2,,,74,127
64434,note_off,114,0,0,,2,,,74,127
64434,note_off,0,0,0,,12,,,71,127
64434,note_off,0,0,0,,2,,,62,127
64435,note_on,1,0,0,,1,,,61,127
64435,note_on,0,0,0,,1,,,73,127
64435,note_on,0,0,0,,4,,,76,127
64549,note_off,114,0,0,,4,,,76,127
64549,note_off,0,0,0,,1,,,73,127
64549,note_off,0,0,0,,1,,,61,127
64550,note_on,1,0,0,,12,,,35,127
64550,note_on,0,0,0,,6,,,78,127
64550,note_on,0,0,0,,2,,,74,127
64664,note_off,114,0,0,,2,,,74,127
64664,note_off,0,0,0,,6,,,78,127
64665,note_on,1,0,0,,1,,,73,127
64665,note_on,0,0,0,,4,,,76,127
64779,note_off,114,0,0,,4,,,76,127
64779,note_off,0,0,0,,1,,,73,127
64779,note_off,0,0,0,,12,,,35,127
64780,note_on,1,0,0,,4,,,40,127
64780,note_on,0,0,0,,12,,,71,127
64780,note_on,0,0,0,,2,,,74,127
64894,note_off,114,0,0,,2,,,74,127
64894,note_off,0,0,0,,12,,,71,127
64895,note_on,1,0,0,,1,,,73,127
64895,note_on,0,0,0,,4,,,76,127
65009,note_off,114,0,0,,4,,,76,127
65009,note_off,0,0,0,,1,,,73,127
65009,note_off,0,0,0,,4,,,40,127
65010,note_on,1,0,0,,6,,,42,127
65010,note_on,0,0,0,,2,,,74,127
65010,note_on,0,0,0,,12,,,71,127
65239,note_off,229,0,0,,12,,,71,127
65239,note_off,0,0,0,,2,,,74,127
65239,note_off,0,0,0,,6,,,42,127
65240,note_on,1,0,0,,6,,,42,127
65240,note_on,0,0,0,,2,,,74,127
65240,note_on,0,0,0,,12,,,71,127
65296,note_off,56,0,0,,12,,,71,127
65296,note_off,0,0,0,,2,,,74,127
65297,note_on,1,0,0,,1,,,73,127
65297,note_on,0,0,0,,11,,,70,127
65353,note_off,56,0,0,,11,,,70,127
65353,note_off,0,0,0,,1,,,73,127
65354,note_on,1,0,0,,12,,,71,127
65354,note_on,0,0,0,,2,,,74,127
65410,note_off,56,0,0,,2,,,74,127
65410,note_off,0,0,0,,12,,,71,127
65411,note_on,1,0,0,,1,,,73,127
65411,note_on,0,0,0,,11,,,70,127
65467,note_off,56,0,0,,11,,,70,127
65467,note_off,0,0,0,,1,,,73,127
65467,note_off,0,0,0,,6,,,42,127
65468,note_on,1,0,0,,12,,,35,127
65468,note_on,0,0,0,,12,,,71,127
65697,note_off,229,0,0,,12,,,71,127
65698,note_on,1,0,0,,2,,,74,127
65812,note_off,114,0,0,,2,,,74,127
65813,note_on,1,0,0,,4,,,76,127
65927,note_off,114,0,0,,4,,,76,127
65928,note_on,1,0,0,,1,,,73,127
66042,note_off,114,0,0,,1,,,73,127
66043,note_off,1,0,0,,12,,,35,127
66043,note_on,0,0,0,,2,,,74,127
66157,note_off,114,0,0,,2,,,74,127
66158,note_on,1,0,0,,2,,,62,127
66158,note_on,0,0,0,,12,,,71,127
66272,note_off,114,0,0,,12,,,71,127
66272,note_off,0,0,0,,2,,,62,127
66273,note_on,1,0,0,,1,,,61,127
66273,note_on,0,0,0,,1,,,73,127
66387,note_off,114,0,0,,1,,,73,127
66387,note_off,0,0,0,,1,,,61,127
66388,note_on,1,0,0,,12,,,35,127
66388,note_on,0,0,0,,2,,,74,127
66502,note_off,114,0,0,,2,,,74,127
66503,note_on,1,0,0,,6,,,66,127
66617,note_off,114,0,0,,6,,,66,127
66618,note_on,1,0,0,,2,,,74,127
66732,note_off,114,0,0,,2,,,74,127
66733,note_on,1,0,0,,4,,,76,127
66847,note_off,114,0,0,,4,,,76,127
66848,note_on,1,0,0,,1,,,73,127
66962,note_off,114,0,0,,1,,,73,127
66963,note_off,1,0,0,,12,,,35,127
66963,note_on,0,0,0,,2,,,74,127
67077,note_off,114,0,0,,2,,,74,127
67078,note_on,1,0,0,,2,,,62,127
67078,note_on,0,0,0,,12,,,71,127
67192,note_off,114,0,0,,12,,,71,127
67192,note_off,0,0,0,,2,,,62,127
67193,note_on,1,0,0,,1,,,61,127
67193,note_on,0,0,0,,1,,,73,127
67307,note_off,114,0,0,,1,,,73,127
67307,note_off,0,0,0,,1,,,61,127
67308,note_on,1,0,0,,12,,,35,127
67308,note_on,0,0,0,,2,,,74,127
67422,note_off,114,0,0,,2,,,74,127
67423,note_on,1,0,0,,6,,,66,127
67537,note_off,114,0,0,,6,,,66,127
67538,note_on,1,0,0,,2,,,74,127
67538,note_on,0,0,0,,6,,,78,127
67652,note_off,114,0,0,,6,,,78,127
67652,note_off,0,0,0,,2,,,74,127
67653,note_on,1,0,0,,7,,,79,127
67653,note_on,0,0,0,,4,,,76,127
67767,note_off,114,0,0,,4,,,76,127
67767,note_off,0,0,0,,7,,,79,127
67768,note_on,1,0,0,,4,,,76,127
67768,note_on,0,0,0,,1,,,73,127
67882,note_off,114,0,0,,1,,,73,127
67882,note_off,0,0,0,,4,,,76,127
67883,note_off,1,0,0,,12,,,35,127
67883,note_on,0,0,0,,2,,,74,127
67883,note_on,0,0,0,,6,,,78,127
67997,note_off,114,0,0,,6,,,78,127
67997,note_off,0,0,0,,2,,,74,127
67998,note_on,1,0,0,,2,,,50,127
67998,note_on,0,0,0,,12,,,71,127
67998,note_on,0,0,0,,2,,,74,127
68112,note_off,114,0,0,,2,,,74,127
68112,note_off,0,0,0,,12,,,71,127
68113,note_on,1,0,0,,1,,,73,127
68113,note_on,0,0,0,,4,,,76,127
68227,note_off,114,0,0,,4,,,76,127
68227,note_off,0,0,0,,1,,,73,127
68227,note_off,0,0,0,,2,,,50,127
68228,note_on,1,0,0,,4,,,52,127
68228,note_on,0,0,0,,6,,,78,127
68228,note_on,0,0,0,,2,,,74,127
68342,note_off,114,0,0,,2,,,74,127
68342,note_off,0,0,0,,6,,,78,127
68343,note_on,1,0,0,,1,,,73,127
68343,note_on,0,0,0,,4,,,76,127
68457,note_off,114,0,0,,4,,,76,127
68457,note_off,0,0,0,,1,,,73,127
68458,note_on,1,0,0,,4,,,40,127
68458,note_on,0,0,0,,2,,,74,127
68458,note_on,0,0,0,,12,,,71,127
68572,note_off,114,0,0,,12,,,71,127
68572,note_off,0,0,0,,2,,,74,127
68573,note_on,1,0,0,,4,,,76,127
68573,note_on,0,0,0,,1,,,73,127
68687,note_off,114,0,0,,1,,,73,127
68687,note_off,0,0,0,,4,,,76,127
68687,note_off,0,0,0,,4,,,40,127
68687,note_off,0,0,0,,4,,,52,127
68688,note_on,1,0,0,,6,,,54,127
68688,note_on,0,0,0,,2,,,74,127
68688,note_on,0,0,0,,12,,,71,127
68917,note_off,229,0,0,,12,,,71,127
68917,note_off,0,0,0,,2,,,74,127
68918,note_on,1,0,0,,6,,,42,127
68918,note_on,0,0,0,,12,,,71,127
68918,note_on,0,0,0,,2,,,74,127
68974,note_off,56,0,0,,2,,,74,127
68974,note_off,0,0,0,,12,,,71,127
68975,note_on,1,0,0,,1,,,73,127
68975,note_on,0,0,0,,11,,,70,127
69031,note_off,56,0,0,,11,,,70,127
69031,note_off,0,0,0,,1,,,73,127
69032,note_on,1,0,0,,12,,,71,127
69032,note_on,0,0,0,,2,,,74,127
69088,note_off,56,0,0,,2,,,74,127
69088,note_off,0,0,0,,12,,,71,127
69089,note_on,1,0,0,,1,,,73,127
69089,note_on,0,0,0,,11,,,70,127
69145,note_off,56,0,0,,11,,,70,127
69145,note_off,0,0,0,,1,,,73,127
69145,note_off,0,0,0,,6,,,42,127
69145,note_off,0,0,0,,6,,,54,127
69146,note_on,1,0,0,,12,,,47,127
69146,note_on,0,0,0,,12,,,71,127
69260,note_off,114,0,0,,12,,,71,127
69261,note_on,1,0,0,,12,,,71,127
69375,note_off,114,0,0,,12,,,71,127
69375,note_off,0,0,0,,12,,,47,127
69376,note_on,1,0,0,,2,,,50,127
69376,note_on,0,0,0,,12,,,71,127
69490,note_off,114,0,0,,12,,,71,127
69491,note_on,1,0,0,,12,,,71,127
69605,note_off,114,0,0,,12,,,71,127
69605,note_off,0,0,0,,2,,,50,127
69606,note_on,1,0,0,,4,,,52,127
69606,note_on,0,0,0,,12,,,71,127
69720,note_off,114,0,0,,12,,,71,127
69721,note_on,1,0,0,,12,,,71,127
69835,note_off,114,0,0,,12,,,71,127
69836,note_on,1,0,0,,1,,,61,127
69836,note_on,0,0,0,,12,,,71,127
69950,note_off,114,0,0,,12,,,71,127
69951,note_on,1,0,0,,12,,,71,127
70065,note_off,114,0,0,,12,,,71,127
70065,note_off,0,0,0,,4,,,52,127
70066,note_on,1,0,0,,6,,,54,127
70066,note_on,0,0,0,,12,,,71,127
70180,note_off,114,0,0,,12,,,71,127
70181,note_on,1,0,0,,12,,,71,127
70295,note_off,114,0,0,,12,,,71,127
70295,note_off,0,0,0,,1,,,61,127
70296,note_on,1,0,0,,2,,,62,127
70296,note_on,0,0,0,,12,,,71,127
70410,note_off,114,0,0,,12,,,71,127
70411,note_on,1,0,0,,12,,,71,127
70525,note_off,114,0,0,,12,,,71,127
70525,note_off,0,0,0,,6,,,54,127
70526,note_on,1,0,0,,8,,,56,127
70526,note_on,0,0,0,,12,,,71,127
70640,note_off,114,0,0,,12,,,71,127
70641,note_on,1,0,0,,12,,,71,127
70755,note_off,114,0,0,,12,,,71,127
70755,note_off,0,0,0,,2,,,62,127
70756,note_on,1,0,0,,4,,,64,127
70756,note_on,0,0,0,,12,,,71,127
70870,note_off,114,0,0,,12,,,71,127
70871,note_on,1,0,0,,12,,,71,127
70985,note_off,114,0,0,,12,,,71,127
70985,note_off,0,0,0,,8,,,56,127
70986,note_on,1,0,0,,11,,,58,127
70986,note_on,0,0,0,,12,,,71,127
71100,note_off,114,0,0,,12,,,71,127
71101,note_on,1,0,0,,1,,,73,127
71215,note_off,114,0,0,,1,,,73,127
71215,note_off,0,0,0,,4,,,64,127
71216,note_on,1,0,0,,6,,,66,127
71216,note_on,0,0,0,,1,,,73,127
71330,note_off,114,0,0,,1,,,73,127
71331,note_on,1,0,0,,1,,,73,127
71445,note_off,114,0,0,,1,,,73,127
71445,note_off,0,0,0,,11,,,58,127
71446,note_on,1,0,0,,12,,,59,127
71446,note_on,0,0,0,,1,,,73,127
71560,note_off,114,0,0,,1,,,73,127
71561,note_on,1,0,0,,2,,,74,127
71675,note_off,114,0,0,,2,,,74,127
71675,note_off,0,0,0,,6,,,66,127
71676,note_on,1,0,0,,6,,,66,127
71676,note_on,0,0,0,,2,,,74,127
71790,note_off,114,0,0,,2,,,74,127
71791,note_on,1,0,0,,2,,,74,127
71905,note_off,114,0,0,,2,,,74,127
71905,note_off,0,0,0,,6,,,66,127
71905,note_off,0,0,0,,12,,,59,127
71906,note_on,1,0,0,,7,,,55,127
71906,note_on,0,0,0,,2,,,74,127
72020,note_off,114,0,0,,2,,,74,127
72021,note_on,1,0,0,,1,,,73,127
72135,note_off,114,0,0,,1,,,73,127
72135,note_off,0,0,0,,7,,,55,127
72136,note_on,1,0,0,,4,,,52,127
72136,note_on,0,0,0,,2,,,74,127
72250,note_off,114,0,0,,2,,,74,127
72251,note_on,1,0,0,,4,,,76,127
72365,note_off,114,0,0,,4,,,76,127
72365,note_off,0,0,0,,4,,,52,127
72366,note_on,1,0,0,,6,,,54,127
72366,note_on,0,0,0,,2,,,74,127
72480,note_off,114,0,0,,2,,,74,127
72481,note_on,1,0,0,,12,,,71,127
72595,note_off,114,0,0,,12,,,71,127
72596,note_on,1,0,0,,6,,,42,127
72596,note_on,0,0,0,,1,,,73,127
72710,note_off,114,0,0,,1,,,73,127
72711,note_on,1,0,0,,11,,,70,127
72825,note_off,114,0,0,,11,,,70,127
72825,note_off,0,0,0,,6,,,42,127
72825,note_off,0,0,0,,6,,,54,127
72826,note_on,1,0,0,,12,,,47,127
72826,note_on,0,0,0,,12,,,71,127
72941,note_on,115,0,0,,12,,,83,127
72999,note_off,58,0,0,,12,,,71,127
73055,note_off,56,0,0,,12,,,47,127
73056,note_on,1,0,0,,2,,,50,127
73056,note_on,0,0,0,,12,,,71,127
73114,note_off,58,0,0,,12,,,83,127
73172,note_on,58,0,0,,12,,,83,127
73230,note_off,58,0,0,,12,,,71,127
73286,note_off,56,0,0,,2,,,50,127
73287,note_on,1,0,0,,4,,,52,127
73287,note_on,0,0,0,,12,,,71,127
73345,note_off,58,0,0,,12,,,83,127
73403,note_on,58,0,0,,12,,,83,127
73461,note_off,58,0,0,,12,,,71,127
73519,note_on,58,0,0,,1,,,61,127
73519,note_on,0,0,0,,12,,,71,127
73577,note_off,58,0,0,,12,,,83,127
73635,note_on,58,0,0,,12,,,83,127
73693,note_off,58,0,0,,12,,,71,127
73749,note_off,56,0,0,,4,,,52,127
73750,note_on,1,0,0,,6,,,54,127
73750,note_on,0,0,0,,12,,,71,127
73808,note_off,58,0,0,,12,,,83,127
73866,note_on,58,0,0,,12,,,83,127
73924,note_off,58,0,0,,12,,,71,127
73980,note_off,56,0,0,,1,,,61,127
73981,note_on,1,0,0,,2,,,62,127
73981,note_on,0,0,0,,12,,,71,127
74039,note_off,58,0,0,,12,,,83,127
74097,note_on,58,0,0,,12,,,83,127
74155,note_off,58,0,0,,12,,,71,127
74211,note_off,56,0,0,,6,,,54,127
74212,note_on,1,0,0,,8,,,56,127
74212,note_on,0,0,0,,12,,,71,127
74270,note_off,58,0,0,,12,,,83,127
74328,note_on,58,0,0,,12,,,83,127
74386,note_off,58,0,0,,12,,,71,127
74442,note_off,56,0,0,,2,,,62,127
74443,note_on,1,0,0,,4,,,64,127
74443,note_on,0,0,0,,12,,,71,127
74501,note_off,58,0,0,,12,,,83,127
74559,note_on,58,0,0,,12,,,83,127
74617,note_off,58,0,0,,12,,,71,127
74673,note_off,56,0,0,,8,,,56,127
74674,note_on,1,0,0,,11,,,58,127
74674,note_on,0,0,0,,12,,,71,127
74732,note_off,58,0,0,,12,,,83,127
74790,note_on,58,0,0,,1,,,85,127
74848,note_off,58,0,0,,12,,,71,127
74904,note_off,56,0,0,,4,,,64,127
74905,note_on,1,0,0,,6,,,66,127
74905,note_on,0,0,0,,1,,,73,127
74963,note_off,58,0,0,,1,,,85,127
75021,note_on,58,0,0,,1,,,85,127
75079,note_off,58,0,0,,1,,,73,127
75135,note_off,56,0,0,,11,,,58,127
75136,note_on,1,0,0,,12,,,59,127
75136,note_on,0,0,0,,1,,,73,127
75194,note_off,58,0,0,,1,,,85,127
75252,note_on,58,0,0,,2,,,86,127
75310,note_off,58,0,0,,1,,,73,127
75366,note_off,56,0,0,,6,,,66,127
75367,note_on,1,0,0,,6,,,66,127
75367,note_on,0,0,0,,2,,,74,127
75425,note_off,58,0,0,,2,,,86,127
75483,note_on,58,0,0,,2,,,86,127
75541,note_off,58,0,0,,2,,,74,127
75597,note_off,56,0,0,,6,,,66,127
75597,note_off,0,0,0,,12,,,59,127
75598,note_on,1,0,0,,7,,,55,127
75598,note_on,0,0,0,,4,,,64,127
75598,note_on,0,0,0,,12,,,59,127
75598,note_on,0,0,0,,2,,,74,127
75656,note_off,58,0,0,,2,,,86,127
75714,note_on,58,0,0,,2,,,86,127
75772,note_off,58,0,0,,2,,,74,127
75828,note_off,56,0,0,,7,,,55,127
75829,note_on,1,0,0,,4,,,52,127
75829,note_on,0,0,0,,4,,,76,127
75887,note_off,58,0,0,,2,,,86,127
75945,note_on,58,0,0,,4,,,88,127
76003,note_off,58,0,0,,4,,,76,127
76059,note_off,56,0,0,,4,,,52,127
76059,note_off,0,0,0,,12,,,59,127
76059,note_off,0,0,0,,4,,,64,127
76060,note_on,1,0,0,,2,,,62,127
76060,note_on,0,0,0,,12,,,59,127
76060,note_on,0,0,0,,6,,,54,127
76060,note_on,0,0,0,,2,,,74,127
76118,note_off,58,0,0,,4,,,88,127
76176,note_on,58,0,0,,2,,,86,127
76234,note_off,58,0,0,,2,,,74,127
76290,note_off,56,0,0,,2,,,62,127
76291,note_on,1,0,0,,1,,,61,127
76291,note_on,0,0,0,,1,,,73,127
76349,note_off,58,0,0,,2,,,86,127
76407,note_on,58,0,0,,1,,,85,127
76465,note_off,58,0,0,,1,,,73,127
76521,note_off,56,0,0,,1,,,85,127
76521,note_off,0,0,0,,1,,,61,127
76521,note_off,0,0,0,,6,,,54,127
76521,note_off,0,0,0,,12,,,59,127
76522,note_on,1,0,0,,12,,,59,127
76522,note_on,0,0,0,,12,,,47,127
76522,note_on,0,0,0,,12,,,83,127
76636,note_off,114,0,0,,12,,,83,127
76637,note_on,1,0,0,,10,,,81,127
76751,note_off,114,0,0,,10,,,81,127
76751,note_off,0,0,0,,12,,,47,127
76751,note_off,0,0,0,,12,,,59,127
76752,note_on,1,0,0,,2,,,50,127
76752,note_on,0,0,0,,7,,,79,127
76866,note_off,114,0,0,,7,,,79,127
76867,note_on,1,0,0,,6,,,78,127
76981,note_off,114,0,0,,6,,,78,127
76981,note_off,0,0,0,,2,,,50,127
76982,note_on,1,0,0,,4,,,52,127
76982,note_on,0,0,0,,4,,,76,127
77096,note_off,114,0,0,,4,,,76,127
77097,note_on,1,0,0,,2,,,74,127
77211,note_off,114,0,0,,2,,,74,127
77212,note_on,1,0,0,,4,,,40,127
77212,note_on,0,0,0,,7,,,79,127
77212,note_on,0,0,0,,1,,,73,127
77326,note_off,114,0,0,,1,,,73,127
77327,note_on,1,0,0,,12,,,71,127
77441,note_off,114,0,0,,12,,,71,127
77441,note_off,0,0,0,,7,,,79,127
77441,note_off,0,0,0,,4,,,40,127
77441,note_off,0,0,0,,4,,,52,127
77442,note_on,1,0,0,,6,,,54,127
77442,note_on,0,0,0,,6,,,42,127
77442,note_on,0,0,0,,6,,,78,127
77442,note_on,0,0,0,,11,,,70,127
77556,note_off,114,0,0,,11,,,70,127
77556,note_off,0,0,0,,6,,,78,127
77557,note_on,1,0,0,,4,,,76,127
77671,note_off,114,0,0,,4,,,76,127
77671,note_off,0,0,0,,6,,,42,127
77671,note_off,0,0,0,,6,,,54,127
77672,note_on,1,0,0,,4,,,40,127
77672,note_on,0,0,0,,4,,,52,127
77672,note_on,0,0,0,,2,,,74,127
77786,note_off,114,0,0,,2,,,74,127
77787,note_on,1,0,0,,1,,,73,127
77901,note_off,114,0,0,,1,,,73,127
77901,note_off,0,0,0,,4,,,52,127
77901,note_off,0,0,0,,4,,,40,127
77902,note_on,1,0,0,,6,,,54,127
77902,note_on,0,0,0,,2,,,74,127
78017,note_on,115,0,0,,12,,,71,127
78046,note_off,29,0,0,,2,,,74,127
78131,note_off,85,0,0,,12,,,71,127
78132,note_on,1,0,0,,6,,,42,127
78132,note_on,0,0,0,,1,,,73,127
78247,note_on,115,0,0,,11,,,70,127
78276,note_off,29,0,0,,1,,,73,127
78361,note_off,85,0,0,,11,,,70,127
78361,note_off,0,0,0,,6,,,42,127
78361,note_off,0,0,0,,6,,,54,127
78362,note_on,1,0,0,,12,,,47,127
78362,note_on,0,0,0,,12,,,35,127
78362,note_on,0,0,0,,12,,,71,127
78476,note_off,114,0,0,,12,,,71,127
78477,note_on,1,0,0,,10,,,69,127
78591,note_off,114,0,0,,10,,,69,127
78591,note_off,0,0,0,,12,,,35,127
78591,note_off,0,0,0,,12,,,47,127
78592,note_on,1,0,0,,2,,,50,127
78592,note_on,0,0,0,,7,,,67,127
78706,note_off,114,0,0,,7,,,67,127
78707,note_on,1,0,0,,6,,,66,127
78821,note_off,114,0,0,,6,,,66,127
78821,note_off,0,0,0,,2,,,50,127
78822,note_on,1,0,0,,4,,,52,127
78822,note_on,0,0,0,,4,,,64,127
78936,note_off,114,0,0,,4,,,64,127
78937,note_on,1,0,0,,2,,,62,127
79051,note_off,114,0,0,,2,,,62,127
79051,note_off,0,0,0,,4,,,52,127
79052,note_on,1,0,0,,4,,,40,127
79052,note_on,0,0,0,,7,,,67,127
79052,note_on,0,0,0,,1,,,61,127
79166,note_off,114,0,0,,1,,,61,127
79167,note_on,1,0,0,,12,,,59,127
79281,note_off,114,0,0,,12,,,59,127
79281,note_off,0,0,0,,7,,,67,127
79281,note_off,0,0,0,,4,,,40,127
79282,note_on,1,0,0,,6,,,42,127
79282,note_on,0,0,0,,6,,,66,127
79282,note_on,0,0,0,,11,,,58,127
79396,note_off,114,0,0,,6,,,66,127
79397,note_on,1,0,0,,4,,,64,127
79511,note_off,114,0,0,,4,,,64,127
79511,note_off,0,0,0,,11,,,58,127
79511,note_off,0,0,0,,6,,,42,127
79512,note_on,1,0,0,,4,,,40,127
79512,note_on,0,0,0,,2,,,62,127
79626,note_off,114,0,0,,2,,,62,127
79627,note_on,1,0,0,,1,,,61,127
79741,note_off,114,0,0,,1,,,61,127
79741,note_off,0,0,0,,4,,,40,127
79742,note_on,1,0,0,,6,,,42,127
79742,note_on,0,0,0,,2,,,62,127
79857,note_on,115,0,0,,12,,,59,127
79915,note_off,58,0,0,,2,,,62,127
79971,note_off,56,0,0,,12,,,59,127
79971,note_off,0,0,0,,6,,,42,127
79972,note_on,1,0,0,,6,,,42,127
79972,note_on,0,0,0,,1,,,61,127
80087,note_on,115,0,0,,11,,,58,127
80145,note_off,58,0,0,,1,,,61,127
80201,note_off,56,0,0,,11,,,58,127
80201,note_off,0,0,0,,6,,,42,127
80202,note_on,1,0,0,,12,,,35,127
80202,note_on,0,0,0,,11,,,58,127
80778,note_off,576,0,0,,11,,,58,127
80778,note_on,0,0,0,,12,,,59,127
82621,note_off,1843,0,0,,12,,,59,127
82621,note_off,0,0,0,,12,,,35,127
82944,end_of_track,323,1,0,,,,,,
