tick,type,time,meta,track,program,channel,pitch,tempo,note,velocity
0,copyright,0,1,0,,,,,,
0,program_change,0,0,0,6,0,,,,
0,pitchwheel,0,0,0,,0,0,,,
0,program_change,0,0,0,6,1,,,,
0,pitchwheel,0,0,0,,1,-590,,,
0,program_change,0,0,0,6,2,,,,
0,pitchwheel,0,0,0,,2,-272,,,
0,program_change,0,0,0,6,3,,,,
0,pitchwheel,0,0,0,,3,-353,,,
0,program_change,0,0,0,6,4,,,,
0,pitchwheel,0,0,0,,4,-560,,,
0,program_change,0,0,0,6,5,,,,
0,pitchwheel,0,0,0,,5,-80,,,
0,program_change,0,0,0,6,6,,,,
0,pitchwheel,0,0,0,,6,-625,,,
0,program_change,0,0,0,6,7,,,,
0,pitchwheel,0,0,0,,7,-130,,,
0,program_change,0,0,0,6,8,,,,
0,pitchwheel,0,0,0,,8,-512,,,
0,program_change,0,0,0,6,10,,,,
0,pitchwheel,0,0,0,,10,-464,,,
0,program_change,0,0,0,6,11,,,,
0,pitchwheel,0,0,0,,11,-208,,,
0,program_change,0,0,0,6,12,,,,
0,pitchwheel,0,0,0,,12,-553,,,
0,set_tempo,0,1,0,,,,500000,,
77,note_on,77,0,0,,12,,,83,127
230,note_off,153,0,0,,12,,,83,127
231,note_on,1,0,0,,6,,,78,127
384,note_off,153,0,0,,6,,,78,127
385,note_on,1,0,0,,2,,,74,127
538,note_off,153,0,0,,2,,,74,127
539,note_on,1,0,0,,12,,,71,127
692,note_off,153,0,0,,12,,,71,127
693,note_on,1,0,0,,6,,,66,127
846,note_off,153,0,0,,6,,,66,127
847,note_on,1,0,0,,4,,,76,127
1000,note_off,153,0,0,,4,,,76,127
1001,note_on,1,0,0,,12,,,71,127
1001,note_on,0,0,0,,4,,,76,127
1077,note_off,76,0,0,,4,,,76,127
1078,note_on,1,0,0,,2,,,74,127
1154,note_off,76,0,0,,2,,,74,127
1154,note_off,0,0,0,,12,,,71,127
1155,note_on,1,0,0,,6,,,66,127
1155,note_on,0,0,0,,4,,,76,127
1231,note_off,76,0,0,,4,,,76,127
1232,note_on,1,0,0,,2,,,74,127
1308,note_off,76,0,0,,2,,,74,127
1308,note_off,0,0,0,,6,,,66,127
1309,note_on,1,0,0,,2,,,62,127
1309,note_on,0,0,0,,4,,,76,127
1385,note_off,76,0,0,,4,,,76,127
1386,note_on,1,0,0,,2,,,74,127
1462,note_off,76,0,0,,2,,,74,127
1462,note_off,0,0,0,,2,,,62,127
1463,note_on,1,0,0,,12,,,59,127
1463,note_on,0,0,0,,4,,,76,127
1539,note_off,76,0,0,,4,,,76,127
1540,note_on,1,0,0,,2,,,74,127
1616,note_off,76,0,0,,2,,,74,127
1616,note_off,0,0,0,,12,,,59,127
1617,note_on,1,0,0,,6,,,54,127
1617,note_on,0,0,0,,1,,,73,127
1770,note_off,153,0,0,,6,,,54,127
1771,note_on,1,0,0,,4,,,64,127
1848,note_off,77,0,0,,1,,,73,127
1924,note_off,76,0,0,,4,,,64,127
1925,note_on,1,0,0,,2,,,62,127
2079,note_on,154,0,0,,6,,,78,127
2232,note_off,153,0,0,,6,,,78,127
2232,note_off,0,0,0,,2,,,62,127
2233,note_on,1,0,0,,4,,,64,127
2233,note_on,0,0,0,,6,,,78,127
2386,note_off,153,0,0,,6,,,78,127
2387,note_on,1,0,0,,7,,,67,127
2540,note_off,153,0,0,,4,,,64,127
2541,note_on,1,0,0,,1,,,61,127
2694,note_off,153,0,0,,7,,,67,127
2695,note_on,1,0,0,,4,,,76,127
2848,note_off,153,0,0,,4,,,76,127
2848,note_off,0,0,0,,1,,,61,127
2849,note_on,1,0,0,,2,,,62,127
2849,note_on,0,0,0,,4,,,76,127
3002,note_off,153,0,0,,4,,,76,127
3003,note_on,1,0,0,,6,,,66,127
3156,note_off,153,0,0,,2,,,62,127
3157,note_on,1,0,0,,12,,,59,127
3310,note_off,153,0,0,,6,,,66,127
3311,note_on,1,0,0,,2,,,74,127
3464,note_off,153,0,0,,2,,,74,127
3464,note_off,0,0,0,,12,,,59,127
3465,note_on,1,0,0,,1,,,61,127
3465,note_on,0,0,0,,2,,,74,127
3618,note_off,153,0,0,,2,,,74,127
3619,note_on,1,0,0,,4,,,64,127
3772,note_off,153,0,0,,1,,,61,127
3773,note_on,1,0,0,,11,,,58,127
3926,note_off,153,0,0,,4,,,64,127
3927,note_on,1,0,0,,1,,,73,127
4080,note_off,153,0,0,,1,,,73,127
4080,note_off,0,0,0,,11,,,58,127
4081,note_on,1,0,0,,12,,,59,127
4081,note_on,0,0,0,,1,,,73,127
4234,note_off,153,0,0,,1,,,73,127
4235,note_on,1,0,0,,2,,,62,127
4388,note_off,153,0,0,,12,,,59,127
4389,note_on,1,0,0,,7,,,55,127
4542,note_off,153,0,0,,2,,,62,127
4543,note_on,1,0,0,,12,,,71,127
4693,note_off,150,0,0,,7,,,55,127
4695,note_off,2,0,0,,12,,,71,127
4696,note_on,1,0,0,,12,,,71,127
4850,note_on,154,0,0,,6,,,66,127
5003,note_off,153,0,0,,6,,,66,127
5004,note_on,1,0,0,,6,,,66,127
5157,note_off,153,0,0,,6,,,66,127
5157,note_off,0,0,0,,12,,,71,127
5158,note_on,1,0,0,,6,,,54,127
5158,note_on,0,0,0,,11,,,70,127
5311,note_off,153,0,0,,11,,,70,127
5311,note_off,0,0,0,,6,,,54,127
5312,note_on,1,0,0,,7,,,55,127
5312,note_on,0,0,0,,1,,,73,127
5388,note_off,76,0,0,,1,,,73,127
5389,note_on,1,0,0,,12,,,71,127
5465,note_off,76,0,0,,12,,,71,127
5465,note_off,0,0,0,,7,,,55,127
5466,note_on,1,0,0,,4,,,64,127
5466,note_on,0,0,0,,11,,,70,127
5542,note_off,76,0,0,,11,,,70,127
5543,note_on,1,0,0,,12,,,71,127
5618,note_off,75,0,0,,4,,,64,127
5619,note_off,1,0,0,,12,,,71,127
5620,note_on,1,0,0,,12,,,71,127
5774,note_on,154,0,0,,6,,,66,127
5927,note_off,153,0,0,,6,,,66,127
5927,note_off,0,0,0,,12,,,71,127
5928,note_on,1,0,0,,6,,,66,127
5928,note_on,0,0,0,,1,,,73,127
6081,note_off,153,0,0,,1,,,73,127
6081,note_off,0,0,0,,6,,,66,127
6082,note_on,1,0,0,,6,,,54,127
6082,note_on,0,0,0,,11,,,70,127
6235,note_off,153,0,0,,11,,,70,127
6235,note_off,0,0,0,,6,,,54,127
6236,note_on,1,0,0,,7,,,55,127
6236,note_on,0,0,0,,1,,,73,127
6312,note_off,76,0,0,,1,,,73,127
6313,note_on,1,0,0,,12,,,71,127
6389,note_off,76,0,0,,12,,,71,127
6389,note_off,0,0,0,,7,,,55,127
6390,note_on,1,0,0,,4,,,64,127
6390,note_on,0,0,0,,11,,,70,127
6466,note_off,76,0,0,,11,,,70,127
6467,note_on,1,0,0,,12,,,71,127
6543,note_off,76,0,0,,12,,,71,127
6544,note_on,1,0,0,,12,,,71,127
6566,note_off,22,0,0,,4,,,64,127
6697,note_on,131,0,0,,6,,,66,127
6850,note_off,153,0,0,,6,,,66,127
6850,note_off,0,0,0,,12,,,71,127
6851,note_on,1,0,0,,6,,,66,127
6851,note_on,0,0,0,,1,,,73,127
7004,note_off,153,0,0,,1,,,73,127
7004,note_off,0,0,0,,6,,,66,127
7005,note_on,1,0,0,,6,,,54,127
7005,note_on,0,0,0,,11,,,70,127
7158,note_off,153,0,0,,11,,,70,127
7158,note_off,0,0,0,,6,,,54,127
7159,note_on,1,0,0,,7,,,55,127
7159,note_on,0,0,0,,1,,,73,127
7235,note_off,76,0,0,,1,,,73,127
7236,note_on,1,0,0,,12,,,71,127
7312,note_off,76,0,0,,12,,,71,127
7312,note_off,0,0,0,,7,,,55,127
7313,note_on,1,0,0,,4,,,64,127
7313,note_on,0,0,0,,11,,,70,127
7389,note_off,76,0,0,,11,,,70,127
7390,note_on,1,0,0,,12,,,71,127
7466,note_off,76,0,0,,12,,,71,127
7467,note_on,1,0,0,,12,,,71,127
7513,note_off,46,0,0,,4,,,64,127
7619,note_off,106,0,0,,12,,,71,127
7620,note_on,1,0,0,,6,,,66,127
7620,note_on,0,0,0,,1,,,73,127
7773,note_off,153,0,0,,6,,,66,127
7774,note_on,1,0,0,,6,,,66,127
7927,note_off,153,0,0,,6,,,66,127
7927,note_off,0,0,0,,1,,,73,127
7928,note_on,1,0,0,,2,,,62,127
7928,note_on,0,0,0,,6,,,78,127
8081,note_off,153,0,0,,2,,,62,127
8082,note_on,1,0,0,,4,,,64,127
8082,note_on,0,0,0,,7,,,67,127
8159,note_off,77,0,0,,6,,,78,127
8235,note_off,76,0,0,,4,,,64,127
8236,note_on,1,0,0,,1,,,61,127
8236,note_on,0,0,0,,4,,,76,127
8313,note_off,77,0,0,,7,,,67,127
8389,note_off,76,0,0,,1,,,61,127
8390,note_on,1,0,0,,2,,,62,127
8390,note_on,0,0,0,,6,,,66,127
8467,note_off,77,0,0,,4,,,76,127
8543,note_off,76,0,0,,2,,,62,127
8544,note_on,1,0,0,,12,,,59,127
8544,note_on,0,0,0,,2,,,74,127
8621,note_off,77,0,0,,6,,,66,127
8697,note_off,76,0,0,,12,,,59,127
8698,note_on,1,0,0,,1,,,61,127
8698,note_on,0,0,0,,4,,,64,127
8775,note_off,77,0,0,,2,,,74,127
8851,note_off,76,0,0,,1,,,61,127
8852,note_on,1,0,0,,11,,,58,127
8852,note_on,0,0,0,,1,,,73,127
8929,note_off,77,0,0,,4,,,64,127
9005,note_off,76,0,0,,11,,,58,127
9006,note_on,1,0,0,,12,,,59,127
9006,note_on,0,0,0,,2,,,62,127
9083,note_off,77,0,0,,1,,,73,127
9159,note_off,76,0,0,,12,,,59,127
9160,note_on,1,0,0,,7,,,55,127
9160,note_on,0,0,0,,12,,,71,127
9237,note_off,77,0,0,,2,,,62,127
9313,note_off,76,0,0,,12,,,71,127
9313,note_off,0,0,0,,7,,,55,127
9314,note_on,1,0,0,,6,,,54,127
9314,note_on,0,0,0,,11,,,70,127
9467,note_off,153,0,0,,11,,,70,127
9467,note_off,0,0,0,,6,,,54,127
9468,note_on,1,0,0,,4,,,52,127
9468,note_on,0,0,0,,1,,,73,127
9621,note_off,153,0,0,,1,,,73,127
9621,note_off,0,0,0,,4,,,52,127
9622,note_on,1,0,0,,2,,,50,127
9622,note_on,0,0,0,,6,,,66,127
9775,note_off,153,0,0,,2,,,50,127
9776,note_on,1,0,0,,1,,,49,127
9776,note_on,0,0,0,,11,,,70,127
9929,note_off,153,0,0,,11,,,70,127
9929,note_off,0,0,0,,1,,,49,127
9930,note_on,1,0,0,,2,,,50,127
9930,note_on,0,0,0,,12,,,71,127
10083,note_off,153,0,0,,12,,,71,127
10083,note_off,0,0,0,,2,,,50,127
10084,note_on,1,0,0,,12,,,47,127
10084,note_on,0,0,0,,2,,,74,127
10237,note_off,153,0,0,,2,,,74,127
10237,note_off,0,0,0,,12,,,47,127
10237,note_off,0,0,0,,6,,,66,127
10238,note_on,1,0,0,,4,,,40,127
10238,note_on,0,0,0,,4,,,52,127
10238,note_on,0,0,0,,1,,,73,127
10238,note_on,0,0,0,,7,,,67,127
10391,note_off,153,0,0,,1,,,73,127
10392,note_on,1,0,0,,4,,,76,127
10469,note_off,77,0,0,,7,,,67,127
10545,note_off,76,0,0,,4,,,76,127
10545,note_off,0,0,0,,4,,,52,127
10545,note_off,0,0,0,,4,,,40,127
10546,note_on,1,0,0,,6,,,42,127
10546,note_on,0,0,0,,6,,,54,127
10546,note_on,0,0,0,,2,,,74,127
10546,note_on,0,0,0,,4,,,76,127
10699,note_off,153,0,0,,4,,,76,127
10699,note_off,0,0,0,,2,,,74,127
10700,note_on,1,0,0,,1,,,73,127
10853,note_off,153,0,0,,1,,,73,127
10853,note_off,0,0,0,,6,,,54,127
10853,note_off,0,0,0,,6,,,42,127
10854,note_on,1,0,0,,6,,,42,127
10854,note_on,0,0,0,,6,,,54,127
10854,note_on,0,0,0,,12,,,71,127
10854,note_on,0,0,0,,1,,,73,127
11007,note_off,153,0,0,,1,,,73,127
11007,note_off,0,0,0,,12,,,71,127
11008,note_on,1,0,0,,11,,,70,127
11158,note_off,150,0,0,,6,,,54,127
11158,note_off,0,0,0,,6,,,42,127
11160,note_off,2,0,0,,11,,,70,127
11161,note_on,1,0,0,,12,,,71,127
11315,note_on,154,0,0,,12,,,59,127
11468,note_off,153,0,0,,12,,,59,127
11469,note_on,1,0,0,,12,,,59,127
11622,note_off,153,0,0,,12,,,59,127
11622,note_off,0,0,0,,12,,,71,127
11623,note_on,1,0,0,,12,,,47,127
11623,note_on,0,0,0,,12,,,71,127
11776,note_off,153,0,0,,12,,,71,127
11776,note_off,0,0,0,,12,,,47,127
11777,note_on,1,0,0,,12,,,47,127
11777,note_on,0,0,0,,10,,,69,127
11930,note_off,153,0,0,,10,,,69,127
11930,note_off,0,0,0,,12,,,47,127
11931,note_on,1,0,0,,1,,,49,127
11931,note_on,0,0,0,,7,,,67,127
12083,note_off,152,0,0,,1,,,49,127
12084,note_off,1,0,0,,7,,,67,127
12085,note_on,1,0,0,,7,,,67,127
12239,note_on,154,0,0,,2,,,62,127
12392,note_off,153,0,0,,2,,,62,127
12392,note_off,0,0,0,,7,,,67,127
12393,note_on,1,0,0,,2,,,62,127
12393,note_on,0,0,0,,6,,,66,127
12546,note_off,153,0,0,,6,,,66,127
12546,note_off,0,0,0,,2,,,62,127
12547,note_on,1,0,0,,2,,,50,127
12547,note_on,0,0,0,,2,,,74,127
12700,note_off,153,0,0,,2,,,74,127
12700,note_off,0,0,0,,2,,,50,127
12701,note_on,1,0,0,,2,,,50,127
12701,note_on,0,0,0,,1,,,73,127
12854,note_off,153,0,0,,1,,,73,127
12854,note_off,0,0,0,,2,,,50,127
12855,note_on,1,0,0,,4,,,52,127
12855,note_on,0,0,0,,12,,,71,127
13008,note_off,153,0,0,,12,,,71,127
13009,note_on,1,0,0,,12,,,71,127
13031,note_off,22,0,0,,4,,,52,127
13162,note_on,131,0,0,,6,,,66,127
13315,note_off,153,0,0,,6,,,66,127
13315,note_off,0,0,0,,12,,,71,127
13316,note_on,1,0,0,,6,,,66,127
13316,note_on,0,0,0,,10,,,69,127
13469,note_off,153,0,0,,6,,,66,127
13470,note_on,1,0,0,,6,,,54,127
13623,note_off,153,0,0,,6,,,54,127
13623,note_off,0,0,0,,10,,,69,127
13624,note_on,1,0,0,,6,,,54,127
13624,note_on,0,0,0,,10,,,81,127
13777,note_off,153,0,0,,10,,,81,127
13777,note_off,0,0,0,,6,,,54,127
13778,note_on,1,0,0,,7,,,55,127
13778,note_on,0,0,0,,12,,,71,127
13931,note_off,153,0,0,,12,,,71,127
13931,note_off,0,0,0,,7,,,55,127
13932,note_on,1,0,0,,10,,,57,127
13932,note_on,0,0,0,,1,,,73,127
14085,note_off,153,0,0,,1,,,73,127
14086,note_on,1,0,0,,10,,,81,127
14239,note_off,153,0,0,,10,,,81,127
14240,note_on,1,0,0,,6,,,66,127
14240,note_on,0,0,0,,10,,,81,127
14393,note_off,153,0,0,,10,,,81,127
14394,note_on,1,0,0,,10,,,69,127
14547,note_off,153,0,0,,10,,,69,127
14547,note_off,0,0,0,,6,,,66,127
14548,note_on,1,0,0,,7,,,67,127
14548,note_on,0,0,0,,10,,,69,127
14701,note_off,153,0,0,,10,,,69,127
14702,note_on,1,0,0,,12,,,71,127
14854,note_off,152,0,0,,10,,,57,127
14855,note_off,1,0,0,,12,,,71,127
14855,note_off,0,0,0,,7,,,67,127
14856,note_on,1,0,0,,10,,,57,127
14856,note_on,0,0,0,,10,,,69,127
14856,note_on,0,0,0,,1,,,73,127
15009,note_off,153,0,0,,1,,,73,127
15010,note_on,1,0,0,,10,,,81,127
15163,note_off,153,0,0,,10,,,81,127
15163,note_off,0,0,0,,10,,,69,127
15164,note_on,1,0,0,,6,,,66,127
15164,note_on,0,0,0,,10,,,81,127
15317,note_off,153,0,0,,10,,,81,127
15318,note_on,1,0,0,,10,,,69,127
15471,note_off,153,0,0,,10,,,69,127
15471,note_off,0,0,0,,6,,,66,127
15472,note_on,1,0,0,,7,,,67,127
15472,note_on,0,0,0,,10,,,69,127
15625,note_off,153,0,0,,10,,,69,127
15626,note_on,1,0,0,,12,,,71,127
15776,note_off,150,0,0,,7,,,67,127
15778,note_off,2,0,0,,10,,,57,127
15779,note_off,1,0,0,,12,,,71,127
15780,note_on,1,0,0,,12,,,71,127
15934,note_on,154,0,0,,10,,,57,127
16087,note_off,153,0,0,,10,,,57,127
16087,note_off,0,0,0,,12,,,71,127
16088,note_on,1,0,0,,10,,,57,127
16088,note_on,0,0,0,,1,,,73,127
16241,note_off,153,0,0,,10,,,57,127
16242,note_on,1,0,0,,10,,,45,127
16395,note_off,153,0,0,,10,,,45,127
16396,note_on,1,0,0,,10,,,45,127
16549,note_off,153,0,0,,10,,,45,127
16549,note_off,0,0,0,,1,,,73,127
16550,note_on,1,0,0,,12,,,47,127
16550,note_on,0,0,0,,4,,,76,127
16600,note_off,50,0,0,,4,,,76,127
16601,note_on,1,0,0,,2,,,74,127
16651,note_off,50,0,0,,2,,,74,127
16652,note_on,1,0,0,,1,,,73,127
16702,note_off,50,0,0,,12,,,47,127
16703,note_off,1,0,0,,1,,,73,127
16704,note_on,1,0,0,,2,,,74,127
16858,note_on,154,0,0,,1,,,61,127
17011,note_off,153,0,0,,1,,,61,127
17011,note_off,0,0,0,,2,,,74,127
17012,note_on,1,0,0,,1,,,61,127
17012,note_on,0,0,0,,4,,,76,127
17165,note_off,153,0,0,,1,,,61,127
17166,note_on,1,0,0,,1,,,49,127
17319,note_off,153,0,0,,1,,,49,127
17320,note_on,1,0,0,,1,,,49,127
17473,note_off,153,0,0,,1,,,49,127
17473,note_off,0,0,0,,4,,,76,127
17474,note_on,1,0,0,,2,,,50,127
17474,note_on,0,0,0,,7,,,79,127
17524,note_off,50,0,0,,7,,,79,127
17525,note_on,1,0,0,,6,,,78,127
17575,note_off,50,0,0,,6,,,78,127
17576,note_on,1,0,0,,4,,,76,127
17626,note_off,50,0,0,,2,,,50,127
17627,note_off,1,0,0,,4,,,76,127
17628,note_on,1,0,0,,6,,,78,127
17782,note_on,154,0,0,,4,,,64,127
17935,note_off,153,0,0,,4,,,64,127
17935,note_off,0,0,0,,6,,,78,127
17936,note_on,1,0,0,,4,,,64,127
17936,note_on,0,0,0,,7,,,79,127
18089,note_off,153,0,0,,4,,,64,127
18090,note_on,1,0,0,,4,,,52,127
18243,note_off,153,0,0,,4,,,52,127
18244,note_on,1,0,0,,4,,,52,127
18397,note_off,153,0,0,,4,,,52,127
18397,note_off,0,0,0,,7,,,79,127
18398,note_on,1,0,0,,6,,,54,127
18398,note_on,0,0,0,,12,,,83,127
18448,note_off,50,0,0,,12,,,83,127
18449,note_on,1,0,0,,10,,,81,127
18499,note_off,50,0,0,,10,,,81,127
18500,note_on,1,0,0,,7,,,79,127
18550,note_off,50,0,0,,6,,,54,127
18551,note_off,1,0,0,,7,,,79,127
18552,note_on,1,0,0,,10,,,81,127
18706,note_on,154,0,0,,7,,,67,127
18859,note_off,153,0,0,,7,,,67,127
18859,note_off,0,0,0,,10,,,81,127
18860,note_on,1,0,0,,7,,,67,127
18860,note_on,0,0,0,,12,,,83,127
19013,note_off,153,0,0,,7,,,67,127
19014,note_on,1,0,0,,7,,,55,127
19167,note_off,153,0,0,,7,,,55,127
19168,note_on,1,0,0,,7,,,55,127
19321,note_off,153,0,0,,7,,,55,127
19321,note_off,0,0,0,,12,,,83,127
19322,note_on,1,0,0,,10,,,57,127
19322,note_on,0,0,0,,1,,,85,127
19475,note_off,153,0,0,,1,,,85,127
19475,note_off,0,0,0,,10,,,57,127
19476,note_on,1,0,0,,12,,,59,127
19476,note_on,0,0,0,,2,,,86,127
19629,note_off,153,0,0,,2,,,86,127
19630,note_on,1,0,0,,2,,,86,127
19783,note_off,153,0,0,,2,,,86,127
19783,note_off,0,0,0,,12,,,59,127
19784,note_on,1,0,0,,1,,,61,127
19784,note_on,0,0,0,,1,,,85,127
19937,note_off,153,0,0,,1,,,85,127
19938,note_on,1,0,0,,12,,,83,127
20091,note_off,153,0,0,,12,,,83,127
20091,note_off,0,0,0,,1,,,61,127
20092,note_on,1,0,0,,10,,,57,127
20092,note_on,0,0,0,,10,,,81,127
20245,note_off,153,0,0,,10,,,81,127
20246,note_on,1,0,0,,7,,,79,127
20399,note_off,153,0,0,,7,,,79,127
20399,note_off,0,0,0,,10,,,57,127
20400,note_on,1,0,0,,2,,,62,127
20400,note_on,0,0,0,,6,,,78,127
20553,note_off,153,0,0,,6,,,78,127
20554,note_on,1,0,0,,6,,,78,127
20604,note_off,50,0,0,,6,,,78,127
20605,note_on,1,0,0,,7,,,79,127
20655,note_off,50,0,0,,7,,,79,127
20656,note_on,1,0,0,,10,,,81,127
20706,note_off,50,0,0,,10,,,81,127
20706,note_off,0,0,0,,2,,,62,127
20707,note_on,1,0,0,,7,,,67,127
20707,note_on,0,0,0,,7,,,79,127
20860,note_off,153,0,0,,7,,,79,127
20861,note_on,1,0,0,,6,,,78,127
21014,note_off,153,0,0,,6,,,78,127
21014,note_off,0,0,0,,7,,,67,127
21015,note_on,1,0,0,,12,,,71,127
21015,note_on,0,0,0,,4,,,76,127
21168,note_off,153,0,0,,4,,,76,127
21169,note_on,1,0,0,,2,,,74,127
21322,note_off,153,0,0,,2,,,74,127
21322,note_off,0,0,0,,12,,,71,127
21323,note_on,1,0,0,,10,,,57,127
21323,note_on,0,0,0,,2,,,74,127
21476,note_off,153,0,0,,10,,,57,127
21477,note_on,1,0,0,,10,,,69,127
21630,note_off,153,0,0,,10,,,69,127
21630,note_off,0,0,0,,2,,,74,127
21631,note_on,1,0,0,,4,,,64,127
21631,note_on,0,0,0,,1,,,73,127
21784,note_off,153,0,0,,1,,,73,127
21784,note_off,0,0,0,,4,,,64,127
21785,note_on,1,0,0,,7,,,67,127
21785,note_on,0,0,0,,10,,,81,127
21938,note_off,153,0,0,,10,,,81,127
21938,note_off,0,0,0,,7,,,67,127
21939,note_on,1,0,0,,6,,,66,127
21939,note_on,0,0,0,,10,,,69,127
22092,note_off,153,0,0,,10,,,69,127
22092,note_off,0,0,0,,6,,,66,127
22093,note_on,1,0,0,,2,,,62,127
22093,note_on,0,0,0,,2,,,74,127
22246,note_off,153,0,0,,2,,,74,127
22246,note_off,0,0,0,,2,,,62,127
22247,note_on,1,0,0,,10,,,57,127
22247,note_on,0,0,0,,2,,,74,127
22247,note_on,0,0,0,,4,,,76,127
22400,note_off,153,0,0,,4,,,76,127
22400,note_off,0,0,0,,2,,,74,127
22400,note_off,0,0,0,,10,,,57,127
22401,note_on,1,0,0,,10,,,69,127
22401,note_on,0,0,0,,1,,,73,127
22554,note_off,153,0,0,,10,,,69,127
22555,note_on,1,0,0,,4,,,64,127
22632,note_off,77,0,0,,1,,,73,127
22708,note_off,76,0,0,,4,,,64,127
22709,note_on,1,0,0,,7,,,67,127
22709,note_on,0,0,0,,10,,,81,127
22862,note_off,153,0,0,,10,,,81,127
22862,note_off,0,0,0,,7,,,67,127
22863,note_on,1,0,0,,6,,,66,127
22863,note_on,0,0,0,,10,,,69,127
23016,note_off,153,0,0,,10,,,69,127
23016,note_off,0,0,0,,6,,,66,127
23017,note_on,1,0,0,,2,,,62,127
23017,note_on,0,0,0,,2,,,74,127
23170,note_off,153,0,0,,2,,,74,127
23170,note_off,0,0,0,,2,,,62,127
23171,note_on,1,0,0,,10,,,57,127
23171,note_on,0,0,0,,2,,,74,127
23171,note_on,0,0,0,,4,,,76,127
23324,note_off,153,0,0,,4,,,76,127
23324,note_off,0,0,0,,2,,,74,127
23324,note_off,0,0,0,,10,,,57,127
23325,note_on,1,0,0,,10,,,69,127
23325,note_on,0,0,0,,1,,,73,127
23478,note_off,153,0,0,,10,,,69,127
23479,note_on,1,0,0,,6,,,66,127
23556,note_off,77,0,0,,1,,,73,127
23632,note_off,76,0,0,,6,,,66,127
23633,note_on,1,0,0,,2,,,62,127
23633,note_on,0,0,0,,10,,,81,127
23786,note_off,153,0,0,,10,,,81,127
23786,note_off,0,0,0,,2,,,62,127
23787,note_on,1,0,0,,6,,,54,127
23787,note_on,0,0,0,,6,,,78,127
23940,note_off,153,0,0,,6,,,78,127
23940,note_off,0,0,0,,6,,,54,127
23941,note_on,1,0,0,,2,,,50,127
23941,note_on,0,0,0,,0,,,72,127
24094,note_off,153,0,0,,0,,,72,127
24094,note_off,0,0,0,,2,,,50,127
24095,note_on,1,0,0,,7,,,55,127
24095,note_on,0,0,0,,12,,,71,127
24248,note_off,153,0,0,,12,,,71,127
24249,note_on,1,0,0,,7,,,79,127
24249,note_on,0,0,0,,12,,,83,127
24402,note_off,153,0,0,,12,,,83,127
24402,note_off,0,0,0,,7,,,79,127
24402,note_off,0,0,0,,7,,,55,127
24403,note_on,1,0,0,,10,,,57,127
24403,note_on,0,0,0,,10,,,81,127
24403,note_on,0,0,0,,6,,,78,127
24556,note_off,153,0,0,,6,,,78,127
24556,note_off,0,0,0,,10,,,81,127
24557,note_on,1,0,0,,4,,,76,127
24557,note_on,0,0,0,,7,,,79,127
24710,note_off,153,0,0,,7,,,79,127
24710,note_off,0,0,0,,4,,,76,127
24710,note_off,0,0,0,,10,,,57,127
24711,note_on,1,0,0,,10,,,45,127
24711,note_on,0,0,0,,2,,,74,127
24711,note_on,0,0,0,,6,,,78,127
24864,note_off,153,0,0,,6,,,78,127
24864,note_off,0,0,0,,2,,,74,127
24865,note_on,1,0,0,,1,,,73,127
24865,note_on,0,0,0,,4,,,76,127
25018,note_off,153,0,0,,4,,,76,127
25018,note_off,0,0,0,,1,,,73,127
25018,note_off,0,0,0,,10,,,45,127
25019,note_on,1,0,0,,2,,,50,127
25019,note_on,0,0,0,,2,,,74,127
25019,note_on,0,0,0,,6,,,78,127
25172,note_off,153,0,0,,2,,,50,127
25173,note_on,1,0,0,,10,,,69,127
25250,note_off,77,0,0,,6,,,78,127
25250,note_off,0,0,0,,2,,,74,127
25326,note_off,76,0,0,,10,,,69,127
25327,note_on,1,0,0,,4,,,64,127
25480,note_off,153,0,0,,4,,,64,127
25481,note_on,1,0,0,,7,,,67,127
25481,note_on,0,0,0,,10,,,81,127
25634,note_off,153,0,0,,10,,,81,127
25634,note_off,0,0,0,,7,,,67,127
25635,note_on,1,0,0,,6,,,66,127
25635,note_on,0,0,0,,10,,,69,127
25788,note_off,153,0,0,,10,,,69,127
25788,note_off,0,0,0,,6,,,66,127
25789,note_on,1,0,0,,2,,,62,127
25789,note_on,0,0,0,,2,,,74,127
25942,note_off,153,0,0,,2,,,74,127
25942,note_off,0,0,0,,2,,,62,127
25943,note_on,1,0,0,,10,,,57,127
25943,note_on,0,0,0,,2,,,74,127
26096,note_off,153,0,0,,2,,,74,127
26096,note_off,0,0,0,,10,,,57,127
26097,note_on,1,0,0,,10,,,69,127
26097,note_on,0,0,0,,1,,,73,127
26249,note_off,152,0,0,,1,,,73,127
26250,note_off,1,0,0,,10,,,69,127
26251,note_on,1,0,0,,4,,,64,127
26404,note_off,153,0,0,,4,,,64,127
26405,note_on,1,0,0,,7,,,67,127
26405,note_on,0,0,0,,10,,,81,127
26558,note_off,153,0,0,,10,,,81,127
26558,note_off,0,0,0,,7,,,67,127
26559,note_on,1,0,0,,6,,,66,127
26559,note_on,0,0,0,,10,,,69,127
26712,note_off,153,0,0,,10,,,69,127
26712,note_off,0,0,0,,6,,,66,127
26713,note_on,1,0,0,,2,,,62,127
26713,note_on,0,0,0,,2,,,74,127
26866,note_off,153,0,0,,2,,,74,127
26866,note_off,0,0,0,,2,,,62,127
26867,note_on,1,0,0,,10,,,57,127
26867,note_on,0,0,0,,2,,,74,127
27020,note_off,153,0,0,,2,,,74,127
27020,note_off,0,0,0,,10,,,57,127
27021,note_on,1,0,0,,10,,,69,127
27021,note_on,0,0,0,,1,,,73,127
27173,note_off,152,0,0,,1,,,73,127
27174,note_off,1,0,0,,10,,,69,127
27175,note_on,1,0,0,,6,,,66,127
27328,note_off,153,0,0,,6,,,66,127
27329,note_on,1,0,0,,2,,,62,127
27329,note_on,0,0,0,,10,,,81,127
27482,note_off,153,0,0,,10,,,81,127
27482,note_off,0,0,0,,2,,,62,127
27483,note_on,1,0,0,,6,,,54,127
27483,note_on,0,0,0,,6,,,78,127
27636,note_off,153,0,0,,6,,,54,127
27637,note_on,1,0,0,,2,,,50,127
27637,note_on,0,0,0,,0,,,72,127
27790,note_off,153,0,0,,0,,,72,127
27790,note_off,0,0,0,,2,,,50,127
27791,note_on,1,0,0,,7,,,55,127
27791,note_on,0,0,0,,12,,,71,127
27944,note_off,153,0,0,,12,,,71,127
27944,note_off,0,0,0,,6,,,78,127
27945,note_on,1,0,0,,12,,,83,127
27945,note_on,0,0,0,,7,,,79,127
28098,note_off,153,0,0,,7,,,79,127
28098,note_off,0,0,0,,12,,,83,127
28098,note_off,0,0,0,,7,,,55,127
28099,note_on,1,0,0,,10,,,57,127
28099,note_on,0,0,0,,6,,,78,127
28099,note_on,0,0,0,,10,,,81,127
28252,note_off,153,0,0,,10,,,81,127
28252,note_off,0,0,0,,6,,,78,127
28253,note_on,1,0,0,,4,,,76,127
28253,note_on,0,0,0,,7,,,79,127
28406,note_off,153,0,0,,7,,,79,127
28406,note_off,0,0,0,,4,,,76,127
28406,note_off,0,0,0,,10,,,57,127
28407,note_on,1,0,0,,10,,,45,127
28407,note_on,0,0,0,,2,,,74,127
28407,note_on,0,0,0,,6,,,78,127
28560,note_off,153,0,0,,6,,,78,127
28560,note_off,0,0,0,,2,,,74,127
28561,note_on,1,0,0,,1,,,73,127
28561,note_on,0,0,0,,4,,,76,127
28714,note_off,153,0,0,,4,,,76,127
28714,note_off,0,0,0,,1,,,73,127
28714,note_off,0,0,0,,10,,,45,127
28715,note_on,1,0,0,,2,,,50,127
28715,note_on,0,0,0,,2,,,74,127
28715,note_on,0,0,0,,6,,,78,127
28868,note_off,153,0,0,,6,,,78,127
28868,note_off,0,0,0,,2,,,74,127
28868,note_off,0,0,0,,2,,,50,127
28869,note_on,1,0,0,,2,,,62,127
28869,note_on,0,0,0,,2,,,74,127
28869,note_on,0,0,0,,6,,,78,127
29022,note_off,153,0,0,,6,,,78,127
29022,note_off,0,0,0,,2,,,74,127
29022,note_off,0,0,0,,2,,,62,127
29023,note_on,1,0,0,,4,,,64,127
29023,note_on,0,0,0,,1,,,73,127
29023,note_on,0,0,0,,7,,,79,127
29176,note_off,153,0,0,,1,,,73,127
29176,note_off,0,0,0,,4,,,64,127
29177,note_on,1,0,0,,2,,,62,127
29177,note_on,0,0,0,,12,,,71,127
29330,note_off,153,0,0,,12,,,71,127
29330,note_off,0,0,0,,2,,,62,127
29331,note_on,1,0,0,,1,,,61,127
29331,note_on,0,0,0,,10,,,69,127
29484,note_off,153,0,0,,10,,,69,127
29484,note_off,0,0,0,,1,,,61,127
29484,note_off,0,0,0,,7,,,79,127
29485,note_on,1,0,0,,10,,,57,127
29485,note_on,0,0,0,,4,,,76,127
29485,note_on,0,0,0,,1,,,73,127
29638,note_off,153,0,0,,1,,,73,127
29638,note_off,0,0,0,,4,,,76,127
29638,note_off,0,0,0,,10,,,57,127
29639,note_on,1,0,0,,2,,,50,127
29639,note_on,0,0,0,,2,,,74,127
29639,note_on,0,0,0,,6,,,78,127
29792,note_off,153,0,0,,6,,,78,127
29792,note_off,0,0,0,,2,,,74,127
29792,note_off,0,0,0,,2,,,50,127
29793,note_on,1,0,0,,2,,,62,127
29793,note_on,0,0,0,,6,,,78,127
29793,note_on,0,0,0,,2,,,74,127
29946,note_off,153,0,0,,2,,,74,127
29946,note_off,0,0,0,,6,,,78,127
29946,note_off,0,0,0,,2,,,62,127
29947,note_on,1,0,0,,4,,,64,127
29947,note_on,0,0,0,,1,,,73,127
29947,note_on,0,0,0,,7,,,79,127
30100,note_off,153,0,0,,1,,,73,127
30100,note_off,0,0,0,,4,,,64,127
30101,note_on,1,0,0,,2,,,62,127
30101,note_on,0,0,0,,12,,,71,127
30254,note_off,153,0,0,,12,,,71,127
30254,note_off,0,0,0,,2,,,62,127
30255,note_on,1,0,0,,1,,,61,127
30255,note_on,0,0,0,,10,,,69,127
30408,note_off,153,0,0,,10,,,69,127
30408,note_off,0,0,0,,1,,,61,127
30408,note_off,0,0,0,,7,,,79,127
30409,note_on,1,0,0,,10,,,57,127
30409,note_on,0,0,0,,4,,,76,127
30409,note_on,0,0,0,,1,,,73,127
30562,note_off,153,0,0,,1,,,73,127
30562,note_off,0,0,0,,4,,,76,127
30562,note_off,0,0,0,,10,,,57,127
30563,note_on,1,0,0,,2,,,50,127
30563,note_on,0,0,0,,2,,,74,127
30563,note_on,0,0,0,,6,,,78,127
30716,note_off,153,0,0,,6,,,78,127
30716,note_off,0,0,0,,2,,,50,127
30717,note_on,1,0,0,,6,,,54,127
30717,note_on,0,0,0,,2,,,86,127
30870,note_off,153,0,0,,2,,,86,127
30870,note_off,0,0,0,,6,,,54,127
30871,note_on,1,0,0,,7,,,55,127
30871,note_on,0,0,0,,12,,,83,127
31024,note_off,153,0,0,,12,,,83,127
31024,note_off,0,0,0,,2,,,74,127
31025,note_on,1,0,0,,4,,,76,127
31025,note_on,0,0,0,,7,,,79,127
31178,note_off,153,0,0,,7,,,79,127
31178,note_off,0,0,0,,4,,,76,127
31178,note_off,0,0,0,,7,,,55,127
31179,note_on,1,0,0,,10,,,45,127
31179,note_on,0,0,0,,10,,,57,127
31179,note_on,0,0,0,,2,,,74,127
31179,note_on,0,0,0,,6,,,78,127
31332,note_off,153,0,0,,6,,,78,127
31332,note_off,0,0,0,,2,,,74,127
31333,note_on,1,0,0,,4,,,76,127
31333,note_on,0,0,0,,1,,,73,127
31486,note_off,153,0,0,,1,,,73,127
31486,note_off,0,0,0,,4,,,76,127
31486,note_off,0,0,0,,10,,,57,127
31486,note_off,0,0,0,,10,,,45,127
31487,note_on,1,0,0,,2,,,50,127
31487,note_on,0,0,0,,2,,,74,127
31487,note_on,0,0,0,,6,,,78,127
31640,note_off,153,0,0,,6,,,78,127
31640,note_off,0,0,0,,2,,,74,127
31640,note_off,0,0,0,,2,,,50,127
31641,note_on,1,0,0,,2,,,62,127
31641,note_on,0,0,0,,2,,,74,127
31641,note_on,0,0,0,,6,,,78,127
31794,note_off,153,0,0,,6,,,78,127
31794,note_off,0,0,0,,2,,,74,127
31794,note_off,0,0,0,,2,,,62,127
31795,note_on,1,0,0,,4,,,64,127
31795,note_on,0,0,0,,7,,,79,127
31795,note_on,0,0,0,,1,,,73,127
31948,note_off,153,0,0,,1,,,73,127
31948,note_off,0,0,0,,4,,,64,127
31949,note_on,1,0,0,,2,,,62,127
31949,note_on,0,0,0,,12,,,71,127
32099,note_off,150,0,0,,7,,,79,127
32101,note_off,2,0,0,,12,,,71,127
32101,note_off,0,0,0,,2,,,62,127
32102,note_on,1,0,0,,1,,,61,127
32102,note_on,0,0,0,,10,,,69,127
32255,note_off,153,0,0,,10,,,69,127
32255,note_off,0,0,0,,1,,,61,127
32256,note_on,1,0,0,,10,,,57,127
32256,note_on,0,0,0,,1,,,73,127
32256,note_on,0,0,0,,4,,,76,127
32409,note_off,153,0,0,,4,,,76,127
32409,note_off,0,0,0,,1,,,73,127
32409,note_off,0,0,0,,10,,,57,127
32410,note_on,1,0,0,,2,,,50,127
32410,note_on,0,0,0,,6,,,78,127
32410,note_on,0,0,0,,2,,,74,127
32563,note_off,153,0,0,,2,,,74,127
32563,note_off,0,0,0,,6,,,78,127
32563,note_off,0,0,0,,2,,,50,127
32564,note_on,1,0,0,,2,,,62,127
32564,note_on,0,0,0,,6,,,78,127
32564,note_on,0,0,0,,2,,,74,127
32717,note_off,153,0,0,,2,,,74,127
32717,note_off,0,0,0,,6,,,78,127
32717,note_off,0,0,0,,2,,,62,127
32718,note_on,1,0,0,,4,,,64,127
32718,note_on,0,0,0,,1,,,73,127
32718,note_on,0,0,0,,7,,,79,127
32871,note_off,153,0,0,,1,,,73,127
32871,note_off,0,0,0,,4,,,64,127
32872,note_on,1,0,0,,2,,,62,127
32872,note_on,0,0,0,,12,,,71,127
33022,note_off,150,0,0,,7,,,79,127
33024,note_off,2,0,0,,12,,,71,127
33024,note_off,0,0,0,,2,,,62,127
33025,note_on,1,0,0,,1,,,61,127
33025,note_on,0,0,0,,10,,,69,127
33178,note_off,153,0,0,,10,,,69,127
33178,note_off,0,0,0,,1,,,61,127
33179,note_on,1,0,0,,10,,,57,127
33179,note_on,0,0,0,,4,,,76,127
33179,note_on,0,0,0,,1,,,73,127
33332,note_off,153,0,0,,1,,,73,127
33332,note_off,0,0,0,,4,,,76,127
33332,note_off,0,0,0,,10,,,57,127
33333,note_on,1,0,0,,2,,,50,127
33333,note_on,0,0,0,,6,,,78,127
33333,note_on,0,0,0,,2,,,74,127
33486,note_off,153,0,0,,2,,,74,127
33486,note_off,0,0,0,,6,,,78,127
33486,note_off,0,0,0,,2,,,50,127
33487,note_on,1,0,0,,6,,,54,127
33487,note_on,0,0,0,,2,,,86,127
33640,note_off,153,0,0,,2,,,86,127
33640,note_off,0,0,0,,6,,,54,127
33641,note_on,1,0,0,,7,,,55,127
33641,note_on,0,0,0,,12,,,83,127
33794,note_off,153,0,0,,12,,,83,127
33795,note_on,1,0,0,,7,,,79,127
33795,note_on,0,0,0,,4,,,76,127
33948,note_off,153,0,0,,4,,,76,127
33948,note_off,0,0,0,,7,,,79,127
33948,note_off,0,0,0,,7,,,55,127
33949,note_on,1,0,0,,10,,,45,127
33949,note_on,0,0,0,,10,,,57,127
33949,note_on,0,0,0,,6,,,78,127
33949,note_on,0,0,0,,2,,,74,127
34102,note_off,153,0,0,,2,,,74,127
34102,note_off,0,0,0,,6,,,78,127
34103,note_on,1,0,0,,4,,,76,127
34103,note_on,0,0,0,,1,,,73,127
34256,note_off,153,0,0,,1,,,73,127
34256,note_off,0,0,0,,4,,,76,127
34256,note_off,0,0,0,,10,,,57,127
34256,note_off,0,0,0,,10,,,45,127
34257,note_on,1,0,0,,2,,,50,127
34257,note_on,0,0,0,,2,,,74,127
34410,note_off,153,0,0,,2,,,74,127
34410,note_off,0,0,0,,2,,,50,127
34411,note_on,1,0,0,,6,,,54,127
34411,note_on,0,0,0,,2,,,74,127
34564,note_off,153,0,0,,2,,,74,127
34564,note_off,0,0,0,,6,,,54,127
34565,note_on,1,0,0,,7,,,55,127
34565,note_on,0,0,0,,12,,,71,127
34718,note_off,153,0,0,,12,,,71,127
34719,note_on,1,0,0,,4,,,64,127
34719,note_on,0,0,0,,7,,,67,127
34872,note_off,153,0,0,,7,,,67,127
34872,note_off,0,0,0,,4,,,64,127
34872,note_off,0,0,0,,7,,,55,127
34873,note_on,1,0,0,,10,,,45,127
34873,note_on,0,0,0,,10,,,57,127
34873,note_on,0,0,0,,6,,,66,127
34873,note_on,0,0,0,,2,,,62,127
35026,note_off,153,0,0,,2,,,62,127
35026,note_off,0,0,0,,6,,,66,127
35027,note_on,1,0,0,,1,,,61,127
35027,note_on,0,0,0,,4,,,64,127
35180,note_off,153,0,0,,4,,,64,127
35180,note_off,0,0,0,,1,,,61,127
35180,note_off,0,0,0,,10,,,57,127
35180,note_off,0,0,0,,10,,,45,127
35181,note_on,1,0,0,,2,,,50,127
35181,note_on,0,0,0,,2,,,38,127
35181,note_on,0,0,0,,2,,,62,127
35795,note_off,614,0,0,,2,,,62,127
36101,note_off,306,0,0,,2,,,38,127
36101,note_off,0,0,0,,2,,,50,127
36103,note_on,2,0,0,,4,,,64,127
36103,note_on,0,0,0,,10,,,69,127
36103,note_on,0,0,0,,1,,,73,127
36257,note_on,154,0,0,,10,,,57,127
36410,note_off,153,0,0,,10,,,57,127
36411,note_on,1,0,0,,10,,,57,127
36564,note_off,153,0,0,,10,,,57,127
36565,note_on,1,0,0,,10,,,45,127
36718,note_off,153,0,0,,10,,,45,127
36719,note_on,1,0,0,,10,,,45,127
36872,note_off,153,0,0,,10,,,45,127
36872,note_off,0,0,0,,1,,,73,127
36872,note_off,0,0,0,,10,,,69,127
36872,note_off,0,0,0,,4,,,64,127
36873,note_on,1,0,0,,12,,,47,127
36873,note_on,0,0,0,,2,,,74,127
37026,note_off,153,0,0,,2,,,74,127
37027,note_on,1,0,0,,10,,,69,127
37027,note_on,0,0,0,,2,,,74,127
37104,note_off,77,0,0,,12,,,47,127
37181,note_on,77,0,0,,1,,,61,127
37334,note_off,153,0,0,,1,,,61,127
37334,note_off,0,0,0,,2,,,74,127
37335,note_on,1,0,0,,1,,,61,127
37335,note_on,0,0,0,,4,,,76,127
37488,note_off,153,0,0,,1,,,61,127
37489,note_on,1,0,0,,1,,,49,127
37642,note_off,153,0,0,,1,,,49,127
37643,note_on,1,0,0,,1,,,49,127
37796,note_off,153,0,0,,1,,,49,127
37796,note_off,0,0,0,,4,,,76,127
37797,note_on,1,0,0,,3,,,51,127
37797,note_on,0,0,0,,6,,,78,127
37950,note_off,153,0,0,,6,,,78,127
37951,note_on,1,0,0,,12,,,71,127
38028,note_off,77,0,0,,3,,,51,127
38105,note_on,77,0,0,,4,,,64,127
38254,note_off,149,0,0,,10,,,69,127
38258,note_off,4,0,0,,4,,,64,127
38259,note_on,1,0,0,,4,,,64,127
38412,note_off,153,0,0,,4,,,64,127
38413,note_on,1,0,0,,4,,,52,127
38413,note_on,0,0,0,,7,,,67,127
38566,note_off,153,0,0,,4,,,52,127
38566,note_off,0,0,0,,12,,,71,127
38567,note_on,1,0,0,,4,,,52,127
38567,note_on,0,0,0,,7,,,79,127
38720,note_off,153,0,0,,7,,,79,127
38720,note_off,0,0,0,,4,,,52,127
38721,note_on,1,0,0,,6,,,54,127
38721,note_on,0,0,0,,6,,,78,127
38874,note_off,153,0,0,,6,,,78,127
38874,note_off,0,0,0,,7,,,67,127
38875,note_on,1,0,0,,12,,,71,127
38875,note_on,0,0,0,,6,,,78,127
38952,note_off,77,0,0,,6,,,54,127
39029,note_on,77,0,0,,7,,,67,127
39182,note_off,153,0,0,,7,,,67,127
39182,note_off,0,0,0,,6,,,78,127
39183,note_on,1,0,0,,7,,,67,127
39183,note_on,0,0,0,,4,,,76,127
39336,note_off,153,0,0,,4,,,76,127
39336,note_off,0,0,0,,7,,,67,127
39337,note_on,1,0,0,,7,,,55,127
39337,note_on,0,0,0,,12,,,83,127
39490,note_off,153,0,0,,7,,,55,127
39490,note_off,0,0,0,,12,,,71,127
39491,note_on,1,0,0,,7,,,55,127
39644,note_off,153,0,0,,7,,,55,127
39645,note_on,1,0,0,,10,,,57,127
39645,note_on,0,0,0,,1,,,73,127
39798,note_off,153,0,0,,1,,,73,127
39798,note_off,0,0,0,,10,,,57,127
39798,note_off,0,0,0,,12,,,83,127
39799,note_on,1,0,0,,12,,,59,127
39799,note_on,0,0,0,,3,,,75,127
39952,note_off,153,0,0,,3,,,75,127
39953,note_on,1,0,0,,12,,,83,127
40106,note_off,153,0,0,,12,,,83,127
40107,note_on,1,0,0,,7,,,67,127
40107,note_on,0,0,0,,12,,,83,127
40260,note_off,153,0,0,,12,,,83,127
40261,note_on,1,0,0,,12,,,71,127
40414,note_off,153,0,0,,12,,,71,127
40414,note_off,0,0,0,,7,,,67,127
40415,note_on,1,0,0,,10,,,69,127
40415,note_on,0,0,0,,12,,,71,127
40568,note_off,153,0,0,,12,,,71,127
40569,note_on,1,0,0,,1,,,73,127
40721,note_off,152,0,0,,12,,,59,127
40722,note_off,1,0,0,,1,,,73,127
40722,note_off,0,0,0,,10,,,69,127
40723,note_on,1,0,0,,12,,,59,127
40723,note_on,0,0,0,,12,,,71,127
40723,note_on,0,0,0,,3,,,75,127
40876,note_off,153,0,0,,3,,,75,127
40877,note_on,1,0,0,,12,,,83,127
41030,note_off,153,0,0,,12,,,83,127
41030,note_off,0,0,0,,12,,,71,127
41031,note_on,1,0,0,,7,,,67,127
41031,note_on,0,0,0,,12,,,83,127
41184,note_off,153,0,0,,12,,,83,127
41185,note_on,1,0,0,,12,,,71,127
41338,note_off,153,0,0,,12,,,71,127
41338,note_off,0,0,0,,7,,,67,127
41339,note_on,1,0,0,,10,,,69,127
41339,note_on,0,0,0,,12,,,71,127
41492,note_off,153,0,0,,12,,,71,127
41493,note_on,1,0,0,,1,,,73,127
41643,note_off,150,0,0,,10,,,69,127
41645,note_off,2,0,0,,12,,,59,127
41646,note_off,1,0,0,,1,,,73,127
41647,note_on,1,0,0,,1,,,73,127
41647,note_on,0,0,0,,12,,,71,127
41801,note_on,154,0,0,,12,,,59,127
41954,note_off,153,0,0,,12,,,59,127
41954,note_off,0,0,0,,1,,,73,127
41955,note_on,1,0,0,,12,,,59,127
41955,note_on,0,0,0,,3,,,75,127
42108,note_off,153,0,0,,12,,,59,127
42109,note_on,1,0,0,,12,,,47,127
42262,note_off,153,0,0,,12,,,47,127
42262,note_off,0,0,0,,12,,,71,127
42263,note_on,1,0,0,,12,,,47,127
42416,note_off,153,0,0,,12,,,47,127
42416,note_off,0,0,0,,3,,,75,127
42417,note_on,1,0,0,,1,,,49,127
42417,note_on,0,0,0,,4,,,76,127
42417,note_on,0,0,0,,1,,,73,127
42569,note_off,152,0,0,,1,,,49,127
42570,note_off,1,0,0,,1,,,73,127
42570,note_off,0,0,0,,4,,,76,127
42571,note_on,1,0,0,,4,,,76,127
42571,note_on,0,0,0,,1,,,73,127
42725,note_on,154,0,0,,3,,,63,127
42878,note_off,153,0,0,,3,,,63,127
42878,note_off,0,0,0,,1,,,73,127
42878,note_off,0,0,0,,4,,,76,127
42879,note_on,1,0,0,,3,,,63,127
42879,note_on,0,0,0,,3,,,75,127
42879,note_on,0,0,0,,6,,,78,127
43032,note_off,153,0,0,,3,,,63,127
43033,note_on,1,0,0,,3,,,51,127
43186,note_off,153,0,0,,3,,,51,127
43187,note_on,1,0,0,,3,,,51,127
43340,note_off,153,0,0,,3,,,51,127
43340,note_off,0,0,0,,6,,,78,127
43340,note_off,0,0,0,,3,,,75,127
43341,note_on,1,0,0,,4,,,52,127
43341,note_on,0,0,0,,7,,,79,127
43341,note_on,0,0,0,,4,,,76,127
43493,note_off,152,0,0,,4,,,52,127
43494,note_off,1,0,0,,4,,,76,127
43494,note_off,0,0,0,,7,,,79,127
43495,note_on,1,0,0,,4,,,76,127
43495,note_on,0,0,0,,7,,,79,127
43649,note_on,154,0,0,,6,,,66,127
43802,note_off,153,0,0,,6,,,66,127
43802,note_off,0,0,0,,7,,,79,127
43802,note_off,0,0,0,,4,,,76,127
43803,note_on,1,0,0,,6,,,66,127
43803,note_on,0,0,0,,6,,,78,127
43803,note_on,0,0,0,,10,,,81,127
43956,note_off,153,0,0,,6,,,66,127
43957,note_on,1,0,0,,6,,,54,127
44110,note_off,153,0,0,,6,,,54,127
44111,note_on,1,0,0,,6,,,54,127
44264,note_off,153,0,0,,6,,,54,127
44264,note_off,0,0,0,,10,,,81,127
44264,note_off,0,0,0,,6,,,78,127
44265,note_on,1,0,0,,7,,,55,127
44265,note_on,0,0,0,,12,,,83,127
44265,note_on,0,0,0,,7,,,79,127
44417,note_off,152,0,0,,7,,,55,127
44418,note_off,1,0,0,,7,,,79,127
44418,note_off,0,0,0,,12,,,83,127
44419,note_on,1,0,0,,12,,,83,127
44419,note_on,0,0,0,,7,,,79,127
44573,note_on,154,0,0,,10,,,69,127
44726,note_off,153,0,0,,10,,,69,127
44726,note_off,0,0,0,,7,,,79,127
44726,note_off,0,0,0,,12,,,83,127
44727,note_on,1,0,0,,10,,,69,127
44727,note_on,0,0,0,,10,,,81,127
44727,note_on,0,0,0,,0,,,84,127
44880,note_off,153,0,0,,10,,,69,127
44881,note_on,1,0,0,,10,,,57,127
45034,note_off,153,0,0,,10,,,57,127
45035,note_on,1,0,0,,10,,,57,127
45188,note_off,153,0,0,,10,,,57,127
45188,note_off,0,0,0,,0,,,84,127
45188,note_off,0,0,0,,10,,,81,127
45189,note_on,1,0,0,,12,,,59,127
45189,note_on,0,0,0,,12,,,83,127
45342,note_off,153,0,0,,12,,,83,127
45342,note_off,0,0,0,,12,,,59,127
45343,note_on,1,0,0,,0,,,72,127
45343,note_on,0,0,0,,10,,,81,127
45496,note_off,153,0,0,,10,,,81,127
45496,note_off,0,0,0,,0,,,72,127
45497,note_on,1,0,0,,10,,,69,127
45497,note_on,0,0,0,,6,,,78,127
45650,note_off,153,0,0,,6,,,78,127
45650,note_off,0,0,0,,10,,,69,127
45651,note_on,1,0,0,,12,,,71,127
45651,note_on,0,0,0,,7,,,79,127
45804,note_off,153,0,0,,7,,,79,127
45804,note_off,0,0,0,,12,,,71,127
45805,note_on,1,0,0,,7,,,67,127
45805,note_on,0,0,0,,4,,,76,127
45958,note_off,153,0,0,,4,,,76,127
45958,note_off,0,0,0,,7,,,67,127
45959,note_on,1,0,0,,10,,,69,127
45959,note_on,0,0,0,,6,,,78,127
46112,note_off,153,0,0,,6,,,78,127
46112,note_off,0,0,0,,10,,,69,127
46113,note_on,1,0,0,,6,,,66,127
46113,note_on,0,0,0,,3,,,75,127
46266,note_off,153,0,0,,3,,,75,127
46266,note_off,0,0,0,,6,,,66,127
46267,note_on,1,0,0,,7,,,67,127
46267,note_on,0,0,0,,4,,,76,127
46420,note_off,153,0,0,,4,,,76,127
46420,note_off,0,0,0,,7,,,67,127
46421,note_on,1,0,0,,4,,,64,127
46421,note_on,0,0,0,,12,,,83,127
46574,note_off,153,0,0,,4,,,64,127
46575,note_on,1,0,0,,10,,,69,127
46575,note_on,0,0,0,,0,,,72,127
46652,note_off,77,0,0,,12,,,83,127
46728,note_off,76,0,0,,10,,,69,127
46729,note_on,1,0,0,,6,,,66,127
46729,note_on,0,0,0,,10,,,81,127
46806,note_off,77,0,0,,0,,,72,127
46882,note_off,76,0,0,,6,,,66,127
46883,note_on,1,0,0,,7,,,67,127
46883,note_on,0,0,0,,12,,,71,127
46960,note_off,77,0,0,,10,,,81,127
47036,note_off,76,0,0,,7,,,67,127
47037,note_on,1,0,0,,4,,,64,127
47037,note_on,0,0,0,,7,,,79,127
47114,note_off,77,0,0,,12,,,71,127
47190,note_off,76,0,0,,4,,,64,127
47191,note_on,1,0,0,,6,,,66,127
47191,note_on,0,0,0,,10,,,69,127
47268,note_off,77,0,0,,7,,,79,127
47344,note_off,76,0,0,,6,,,66,127
47345,note_on,1,0,0,,3,,,63,127
47345,note_on,0,0,0,,6,,,78,127
47422,note_off,77,0,0,,10,,,69,127
47498,note_off,76,0,0,,3,,,63,127
47499,note_on,1,0,0,,4,,,64,127
47499,note_on,0,0,0,,7,,,67,127
47576,note_off,77,0,0,,6,,,78,127
47652,note_off,76,0,0,,4,,,64,127
47653,note_on,1,0,0,,7,,,55,127
47653,note_on,0,0,0,,7,,,79,127
47803,note_off,150,0,0,,7,,,67,127
47805,note_off,2,0,0,,7,,,79,127
47805,note_off,0,0,0,,7,,,55,127
47806,note_on,1,0,0,,10,,,57,127
47806,note_on,0,0,0,,6,,,78,127
47959,note_off,153,0,0,,6,,,78,127
47959,note_off,0,0,0,,10,,,57,127
47960,note_on,1,0,0,,0,,,60,127
47960,note_on,0,0,0,,4,,,76,127
48113,note_off,153,0,0,,4,,,76,127
48113,note_off,0,0,0,,0,,,60,127
48114,note_on,1,0,0,,12,,,59,127
48114,note_on,0,0,0,,3,,,75,127
48267,note_off,153,0,0,,3,,,75,127
48267,note_off,0,0,0,,12,,,59,127
48268,note_on,1,0,0,,10,,,57,127
48268,note_on,0,0,0,,6,,,78,127
48421,note_off,153,0,0,,6,,,78,127
48421,note_off,0,0,0,,10,,,57,127
48422,note_on,1,0,0,,7,,,55,127
48422,note_on,0,0,0,,12,,,71,127
48575,note_off,153,0,0,,12,,,71,127
48575,note_off,0,0,0,,7,,,55,127
48576,note_on,1,0,0,,6,,,54,127
48576,note_on,0,0,0,,3,,,75,127
48729,note_off,153,0,0,,3,,,75,127
48729,note_off,0,0,0,,6,,,54,127
48730,note_on,1,0,0,,7,,,55,127
48730,note_on,0,0,0,,4,,,76,127
48883,note_off,153,0,0,,4,,,76,127
48883,note_off,0,0,0,,7,,,55,127
48884,note_on,1,0,0,,4,,,52,127
48884,note_on,0,0,0,,7,,,79,127
49037,note_off,153,0,0,,7,,,79,127
49037,note_off,0,0,0,,4,,,52,127
49038,note_on,1,0,0,,10,,,57,127
49038,note_on,0,0,0,,10,,,45,127
49038,note_on,0,0,0,,6,,,78,127
49191,note_off,153,0,0,,6,,,78,127
49192,note_on,1,0,0,,10,,,81,127
49345,note_off,153,0,0,,10,,,81,127
49345,note_off,0,0,0,,10,,,45,127
49345,note_off,0,0,0,,10,,,57,127
49346,note_on,1,0,0,,12,,,59,127
49346,note_on,0,0,0,,7,,,79,127
49346,note_on,0,0,0,,10,,,81,127
49499,note_off,153,0,0,,10,,,81,127
49499,note_off,0,0,0,,7,,,79,127
49500,note_on,1,0,0,,6,,,78,127
49653,note_off,153,0,0,,6,,,78,127
49653,note_off,0,0,0,,12,,,59,127
49654,note_on,1,0,0,,12,,,47,127
49654,note_on,0,0,0,,4,,,76,127
49654,note_on,0,0,0,,6,,,78,127
49807,note_off,153,0,0,,6,,,78,127
49807,note_off,0,0,0,,4,,,76,127
49808,note_on,1,0,0,,3,,,75,127
49961,note_off,153,0,0,,3,,,75,127
49961,note_off,0,0,0,,12,,,47,127
49962,note_on,1,0,0,,4,,,52,127
49962,note_on,0,0,0,,4,,,76,127
50115,note_off,153,0,0,,4,,,76,127
50116,note_on,1,0,0,,12,,,83,127
50269,note_off,153,0,0,,12,,,83,127
50269,note_off,0,0,0,,4,,,52,127
50270,note_on,1,0,0,,7,,,67,127
50270,note_on,0,0,0,,12,,,83,127
50423,note_off,153,0,0,,12,,,83,127
50424,note_on,1,0,0,,12,,,71,127
50577,note_off,153,0,0,,12,,,71,127
50578,note_on,1,0,0,,12,,,71,127
50731,note_off,153,0,0,,12,,,71,127
50731,note_off,0,0,0,,7,,,67,127
50732,note_on,1,0,0,,6,,,66,127
50732,note_on,0,0,0,,1,,,73,127
50808,note_off,76,0,0,,6,,,66,127
50809,note_on,1,0,0,,4,,,64,127
50885,note_off,76,0,0,,4,,,64,127
50885,note_off,0,0,0,,1,,,73,127
50886,note_on,1,0,0,,6,,,54,127
50886,note_on,0,0,0,,2,,,74,127
51039,note_off,153,0,0,,2,,,74,127
51040,note_on,1,0,0,,10,,,81,127
51193,note_off,153,0,0,,10,,,81,127
51193,note_off,0,0,0,,6,,,54,127
51194,note_on,1,0,0,,6,,,66,127
51194,note_on,0,0,0,,10,,,81,127
51347,note_off,153,0,0,,10,,,81,127
51348,note_on,1,0,0,,10,,,69,127
51501,note_off,153,0,0,,10,,,69,127
51502,note_on,1,0,0,,10,,,69,127
51655,note_off,153,0,0,,10,,,69,127
51655,note_off,0,0,0,,6,,,66,127
51656,note_on,1,0,0,,4,,,64,127
51656,note_on,0,0,0,,12,,,71,127
51732,note_off,76,0,0,,4,,,64,127
51733,note_on,1,0,0,,2,,,62,127
51809,note_off,76,0,0,,2,,,62,127
51809,note_off,0,0,0,,12,,,71,127
51810,note_on,1,0,0,,4,,,52,127
51810,note_on,0,0,0,,1,,,73,127
51963,note_off,153,0,0,,1,,,73,127
51964,note_on,1,0,0,,7,,,79,127
52117,note_off,153,0,0,,7,,,79,127
52117,note_off,0,0,0,,4,,,52,127
52118,note_on,1,0,0,,4,,,64,127
52118,note_on,0,0,0,,7,,,79,127
52271,note_off,153,0,0,,7,,,79,127
52272,note_on,1,0,0,,7,,,67,127
52425,note_off,153,0,0,,7,,,67,127
52426,note_on,1,0,0,,7,,,67,127
52579,note_off,153,0,0,,7,,,67,127
52579,note_off,0,0,0,,4,,,64,127
52580,note_on,1,0,0,,2,,,62,127
52580,note_on,0,0,0,,11,,,70,127
52656,note_off,76,0,0,,2,,,62,127
52657,note_on,1,0,0,,1,,,61,127
52733,note_off,76,0,0,,1,,,61,127
52733,note_off,0,0,0,,11,,,70,127
52734,note_on,1,0,0,,2,,,62,127
52734,note_on,0,0,0,,12,,,71,127
52887,note_off,153,0,0,,12,,,71,127
52888,note_on,1,0,0,,7,,,79,127
53041,note_off,153,0,0,,7,,,79,127
53042,note_on,1,0,0,,6,,,78,127
53195,note_off,153,0,0,,6,,,78,127
53195,note_off,0,0,0,,2,,,62,127
53196,note_on,1,0,0,,1,,,61,127
53196,note_on,0,0,0,,4,,,76,127
53349,note_off,153,0,0,,4,,,76,127
53349,note_off,0,0,0,,1,,,61,127
53350,note_on,1,0,0,,12,,,59,127
53350,note_on,0,0,0,,2,,,74,127
53503,note_off,153,0,0,,2,,,74,127
53503,note_off,0,0,0,,12,,,59,127
53504,note_on,1,0,0,,10,,,57,127
53504,note_on,0,0,0,,1,,,73,127
53657,note_off,153,0,0,,1,,,73,127
53657,note_off,0,0,0,,10,,,57,127
53658,note_on,1,0,0,,7,,,55,127
53658,note_on,0,0,0,,12,,,71,127
53811,note_off,153,0,0,,12,,,71,127
53812,note_on,1,0,0,,6,,,78,127
53965,note_off,153,0,0,,6,,,78,127
53965,note_off,0,0,0,,7,,,55,127
53966,note_on,1,0,0,,6,,,54,127
53966,note_on,0,0,0,,4,,,76,127
54119,note_off,153,0,0,,4,,,76,127
54120,note_on,1,0,0,,2,,,74,127
54273,note_off,153,0,0,,2,,,74,127
54273,note_off,0,0,0,,6,,,54,127
54274,note_on,1,0,0,,4,,,52,127
54274,note_on,0,0,0,,1,,,73,127
54427,note_off,153,0,0,,1,,,73,127
54428,note_on,1,0,0,,12,,,71,127
54578,note_off,150,0,0,,4,,,52,127
54580,note_off,2,0,0,,12,,,71,127
54581,note_on,1,0,0,,12,,,71,127
54735,note_on,154,0,0,,6,,,66,127
54888,note_off,153,0,0,,6,,,66,127
54889,note_on,1,0,0,,6,,,66,127
55042,note_off,153,0,0,,6,,,66,127
55042,note_off,0,0,0,,12,,,71,127
55043,note_on,1,0,0,,6,,,54,127
55043,note_on,0,0,0,,11,,,70,127
55196,note_off,153,0,0,,11,,,70,127
55196,note_off,0,0,0,,6,,,54,127
55197,note_on,1,0,0,,7,,,55,127
55197,note_on,0,0,0,,1,,,73,127
55273,note_off,76,0,0,,1,,,73,127
55274,note_on,1,0,0,,12,,,71,127
55350,note_off,76,0,0,,12,,,71,127
55350,note_off,0,0,0,,7,,,55,127
55351,note_on,1,0,0,,7,,,67,127
55351,note_on,0,0,0,,11,,,70,127
55427,note_off,76,0,0,,11,,,70,127
55428,note_on,1,0,0,,12,,,71,127
55503,note_off,75,0,0,,7,,,67,127
55504,note_off,1,0,0,,12,,,71,127
55505,note_on,1,0,0,,12,,,71,127
55659,note_on,154,0,0,,6,,,54,127
55812,note_off,153,0,0,,6,,,54,127
55812,note_off,0,0,0,,12,,,71,127
55813,note_on,1,0,0,,6,,,54,127
55813,note_on,0,0,0,,1,,,73,127
55966,note_off,153,0,0,,1,,,73,127
55966,note_off,0,0,0,,6,,,54,127
55967,note_on,1,0,0,,6,,,42,127
55967,note_on,0,0,0,,11,,,70,127
56120,note_off,153,0,0,,11,,,70,127
56120,note_off,0,0,0,,6,,,42,127
56121,note_on,1,0,0,,7,,,43,127
56121,note_on,0,0,0,,1,,,73,127
56197,note_off,76,0,0,,1,,,73,127
56198,note_on,1,0,0,,12,,,71,127
56274,note_off,76,0,0,,12,,,71,127
56274,note_off,0,0,0,,7,,,43,127
56275,note_on,1,0,0,,7,,,55,127
56275,note_on,0,0,0,,11,,,70,127
56351,note_off,76,0,0,,11,,,70,127
56352,note_on,1,0,0,,12,,,71,127
56428,note_off,76,0,0,,12,,,71,127
56429,note_on,1,0,0,,12,,,71,127
56467,note_off,38,0,0,,7,,,55,127
56582,note_on,115,0,0,,6,,,54,127
56735,note_off,153,0,0,,6,,,54,127
56735,note_off,0,0,0,,12,,,71,127
56736,note_on,1,0,0,,6,,,54,127
56736,note_on,0,0,0,,1,,,73,127
56889,note_off,153,0,0,,1,,,73,127
56889,note_off,0,0,0,,6,,,54,127
56890,note_on,1,0,0,,6,,,42,127
56890,note_on,0,0,0,,11,,,70,127
57043,note_off,153,0,0,,11,,,70,127
57043,note_off,0,0,0,,6,,,42,127
57044,note_on,1,0,0,,7,,,43,127
57044,note_on,0,0,0,,1,,,73,127
57120,note_off,76,0,0,,1,,,73,127
57121,note_on,1,0,0,,12,,,71,127
57197,note_off,76,0,0,,12,,,71,127
57197,note_off,0,0,0,,7,,,43,127
57198,note_on,1,0,0,,7,,,55,127
57198,note_on,0,0,0,,11,,,70,127
57274,note_off,76,0,0,,11,,,70,127
57275,note_on,1,0,0,,12,,,71,127
57350,note_off,75,0,0,,7,,,55,127
57351,note_off,1,0,0,,12,,,71,127
57352,note_on,1,0,0,,12,,,71,127
57506,note_on,154,0,0,,6,,,66,127
57659,note_off,153,0,0,,6,,,66,127
57659,note_off,0,0,0,,12,,,71,127
57660,note_on,1,0,0,,6,,,66,127
57660,note_on,0,0,0,,1,,,73,127
57813,note_off,153,0,0,,1,,,73,127
57813,note_off,0,0,0,,6,,,66,127
57814,note_on,1,0,0,,2,,,62,127
57814,note_on,0,0,0,,6,,,78,127
57967,note_off,153,0,0,,2,,,62,127
57968,note_on,1,0,0,,4,,,64,127
57968,note_on,0,0,0,,7,,,67,127
58045,note_off,77,0,0,,6,,,78,127
58121,note_off,76,0,0,,4,,,64,127
58122,note_on,1,0,0,,1,,,61,127
58122,note_on,0,0,0,,4,,,76,127
58199,note_off,77,0,0,,7,,,67,127
58275,note_off,76,0,0,,1,,,61,127
58276,note_on,1,0,0,,2,,,62,127
58276,note_on,0,0,0,,6,,,66,127
58353,note_off,77,0,0,,4,,,76,127
58429,note_off,76,0,0,,2,,,62,127
58430,note_on,1,0,0,,12,,,59,127
58430,note_on,0,0,0,,2,,,74,127
58507,note_off,77,0,0,,6,,,66,127
58583,note_off,76,0,0,,12,,,59,127
58584,note_on,1,0,0,,1,,,61,127
58584,note_on,0,0,0,,4,,,64,127
58661,note_off,77,0,0,,2,,,74,127
58737,note_off,76,0,0,,1,,,61,127
58738,note_on,1,0,0,,11,,,58,127
58738,note_on,0,0,0,,1,,,73,127
58815,note_off,77,0,0,,4,,,64,127
58891,note_off,76,0,0,,11,,,58,127
58892,note_on,1,0,0,,12,,,59,127
58892,note_on,0,0,0,,2,,,62,127
58969,note_off,77,0,0,,1,,,73,127
59045,note_off,76,0,0,,12,,,59,127
59046,note_on,1,0,0,,7,,,55,127
59046,note_on,0,0,0,,12,,,71,127
59123,note_off,77,0,0,,2,,,62,127
59199,note_off,76,0,0,,12,,,71,127
59199,note_off,0,0,0,,7,,,55,127
59200,note_on,1,0,0,,6,,,54,127
59200,note_on,0,0,0,,11,,,70,127
59353,note_off,153,0,0,,11,,,70,127
59353,note_off,0,0,0,,6,,,54,127
59354,note_on,1,0,0,,4,,,52,127
59354,note_on,0,0,0,,1,,,73,127
59507,note_off,153,0,0,,1,,,73,127
59507,note_off,0,0,0,,4,,,52,127
59508,note_on,1,0,0,,2,,,50,127
59508,note_on,0,0,0,,6,,,66,127
59661,note_off,153,0,0,,2,,,50,127
59662,note_on,1,0,0,,1,,,49,127
59662,note_on,0,0,0,,11,,,70,127
59815,note_off,153,0,0,,11,,,70,127
59815,note_off,0,0,0,,1,,,49,127
59816,note_on,1,0,0,,2,,,50,127
59816,note_on,0,0,0,,12,,,71,127
59969,note_off,153,0,0,,12,,,71,127
59969,note_off,0,0,0,,2,,,50,127
59970,note_on,1,0,0,,12,,,47,127
59970,note_on,0,0,0,,2,,,74,127
60123,note_off,153,0,0,,2,,,74,127
60123,note_off,0,0,0,,12,,,47,127
60123,note_off,0,0,0,,6,,,66,127
60124,note_on,1,0,0,,4,,,52,127
60124,note_on,0,0,0,,7,,,67,127
60124,note_on,0,0,0,,1,,,73,127
60277,note_off,153,0,0,,1,,,73,127
60277,note_off,0,0,0,,7,,,67,127
60278,note_on,1,0,0,,4,,,76,127
60431,note_off,153,0,0,,4,,,76,127
60431,note_off,0,0,0,,4,,,52,127
60432,note_on,1,0,0,,6,,,54,127
60432,note_on,0,0,0,,2,,,74,127
60432,note_on,0,0,0,,4,,,76,127
60585,note_off,153,0,0,,4,,,76,127
60585,note_off,0,0,0,,2,,,74,127
60586,note_on,1,0,0,,1,,,73,127
60739,note_off,153,0,0,,1,,,73,127
60739,note_off,0,0,0,,6,,,54,127
60740,note_on,1,0,0,,6,,,42,127
60740,note_on,0,0,0,,12,,,71,127
60740,note_on,0,0,0,,1,,,73,127
60893,note_off,153,0,0,,1,,,73,127
60893,note_off,0,0,0,,12,,,71,127
60894,note_on,1,0,0,,11,,,70,127
61047,note_off,153,0,0,,11,,,70,127
61047,note_off,0,0,0,,6,,,42,127
61048,note_on,1,0,0,,12,,,47,127
61048,note_on,0,0,0,,11,,,70,127
61200,note_off,152,0,0,,11,,,70,127
61201,note_off,1,0,0,,12,,,47,127
61202,note_on,1,0,0,,6,,,66,127
61202,note_on,0,0,0,,12,,,71,127
61355,note_off,153,0,0,,12,,,71,127
61355,note_off,0,0,0,,6,,,66,127
61356,note_on,1,0,0,,1,,,61,127
61509,note_off,153,0,0,,1,,,61,127
61510,note_on,1,0,0,,4,,,64,127
61510,note_on,0,0,0,,6,,,78,127
61663,note_off,153,0,0,,6,,,78,127
61663,note_off,0,0,0,,4,,,64,127
61664,note_on,1,0,0,,2,,,62,127
61664,note_on,0,0,0,,6,,,66,127
61817,note_off,153,0,0,,6,,,66,127
61817,note_off,0,0,0,,2,,,62,127
61818,note_on,1,0,0,,12,,,59,127
61818,note_on,0,0,0,,12,,,71,127
61971,note_off,153,0,0,,12,,,71,127
61971,note_off,0,0,0,,12,,,59,127
61972,note_on,1,0,0,,6,,,54,127
61972,note_on,0,0,0,,12,,,71,127
61972,note_on,0,0,0,,1,,,73,127
62125,note_off,153,0,0,,1,,,73,127
62125,note_off,0,0,0,,12,,,71,127
62125,note_off,0,0,0,,6,,,54,127
62126,note_on,1,0,0,,6,,,66,127
62126,note_on,0,0,0,,11,,,70,127
62279,note_off,153,0,0,,6,,,66,127
62280,note_on,1,0,0,,1,,,61,127
62433,note_off,153,0,0,,1,,,61,127
62433,note_off,0,0,0,,11,,,70,127
62434,note_on,1,0,0,,4,,,64,127
62434,note_on,0,0,0,,6,,,78,127
62587,note_off,153,0,0,,6,,,78,127
62587,note_off,0,0,0,,4,,,64,127
62588,note_on,1,0,0,,2,,,62,127
62588,note_on,0,0,0,,6,,,66,127
62741,note_off,153,0,0,,6,,,66,127
62741,note_off,0,0,0,,2,,,62,127
62742,note_on,1,0,0,,12,,,59,127
62742,note_on,0,0,0,,12,,,71,127
62895,note_off,153,0,0,,12,,,71,127
62895,note_off,0,0,0,,12,,,59,127
62896,note_on,1,0,0,,6,,,54,127
62896,note_on,0,0,0,,12,,,71,127
62896,note_on,0,0,0,,1,,,73,127
63049,note_off,153,0,0,,1,,,73,127
63049,note_off,0,0,0,,12,,,71,127
63049,note_off,0,0,0,,6,,,54,127
63050,note_on,1,0,0,,6,,,66,127
63050,note_on,0,0,0,,11,,,70,127
63202,note_off,152,0,0,,11,,,70,127
63203,note_off,1,0,0,,6,,,66,127
63204,note_on,1,0,0,,3,,,63,127
63357,note_off,153,0,0,,3,,,63,127
63358,note_on,1,0,0,,12,,,59,127
63358,note_on,0,0,0,,6,,,78,127
63511,note_off,153,0,0,,6,,,78,127
63511,note_off,0,0,0,,12,,,59,127
63512,note_on,1,0,0,,3,,,51,127
63512,note_on,0,0,0,,12,,,71,127
63665,note_off,153,0,0,,12,,,71,127
63665,note_off,0,0,0,,3,,,51,127
63666,note_on,1,0,0,,12,,,47,127
63666,note_on,0,0,0,,6,,,78,127
63666,note_on,0,0,0,,10,,,81,127
63819,note_off,153,0,0,,12,,,47,127
63820,note_on,1,0,0,,4,,,52,127
63820,note_on,0,0,0,,4,,,40,127
63973,note_off,153,0,0,,10,,,81,127
63973,note_off,0,0,0,,6,,,78,127
63974,note_on,1,0,0,,4,,,76,127
63974,note_on,0,0,0,,7,,,79,127
64127,note_off,153,0,0,,7,,,79,127
64127,note_off,0,0,0,,4,,,76,127
64127,note_off,0,0,0,,4,,,40,127
64127,note_off,0,0,0,,4,,,52,127
64128,note_on,1,0,0,,6,,,54,127
64128,note_on,0,0,0,,6,,,78,127
64128,note_on,0,0,0,,2,,,74,127
64281,note_off,153,0,0,,2,,,74,127
64281,note_off,0,0,0,,6,,,78,127
64282,note_on,1,0,0,,1,,,73,127
64282,note_on,0,0,0,,4,,,76,127
64435,note_off,153,0,0,,4,,,76,127
64435,note_off,0,0,0,,1,,,73,127
64435,note_off,0,0,0,,6,,,54,127
64436,note_on,1,0,0,,6,,,42,127
64436,note_on,0,0,0,,2,,,74,127
64436,note_on,0,0,0,,12,,,71,127
64589,note_off,153,0,0,,12,,,71,127
64589,note_off,0,0,0,,2,,,74,127
64590,note_on,1,0,0,,11,,,70,127
64590,note_on,0,0,0,,1,,,73,127
64743,note_off,153,0,0,,1,,,73,127
64743,note_off,0,0,0,,11,,,70,127
64743,note_off,0,0,0,,6,,,42,127
64744,note_on,1,0,0,,12,,,47,127
64744,note_on,0,0,0,,12,,,71,127
64897,note_off,153,0,0,,12,,,47,127
64898,note_on,1,0,0,,6,,,66,127
65048,note_off,150,0,0,,12,,,71,127
65050,note_off,2,0,0,,6,,,66,127
65051,note_on,1,0,0,,1,,,61,127
65204,note_off,153,0,0,,1,,,61,127
65205,note_on,1,0,0,,4,,,64,127
65205,note_on,0,0,0,,6,,,78,127
65358,note_off,153,0,0,,6,,,78,127
65358,note_off,0,0,0,,4,,,64,127
65359,note_on,1,0,0,,2,,,62,127
65359,note_on,0,0,0,,6,,,66,127
65512,note_off,153,0,0,,6,,,66,127
65512,note_off,0,0,0,,2,,,62,127
65513,note_on,1,0,0,,12,,,59,127
65513,note_on,0,0,0,,12,,,71,127
65666,note_off,153,0,0,,12,,,71,127
65666,note_off,0,0,0,,12,,,59,127
65667,note_on,1,0,0,,6,,,54,127
65667,note_on,0,0,0,,12,,,71,127
65820,note_off,153,0,0,,12,,,71,127
65820,note_off,0,0,0,,6,,,54,127
65821,note_on,1,0,0,,6,,,66,127
65821,note_on,0,0,0,,11,,,70,127
65974,note_off,153,0,0,,6,,,66,127
65975,note_on,1,0,0,,1,,,61,127
66128,note_off,153,0,0,,1,,,61,127
66128,note_off,0,0,0,,11,,,70,127
66129,note_on,1,0,0,,4,,,64,127
66129,note_on,0,0,0,,6,,,78,127
66282,note_off,153,0,0,,6,,,78,127
66282,note_off,0,0,0,,4,,,64,127
66283,note_on,1,0,0,,2,,,62,127
66283,note_on,0,0,0,,6,,,66,127
66436,note_off,153,0,0,,6,,,66,127
66436,note_off,0,0,0,,2,,,62,127
66437,note_on,1,0,0,,12,,,59,127
66437,note_on,0,0,0,,12,,,71,127
66590,note_off,153,0,0,,12,,,71,127
66590,note_off,0,0,0,,12,,,59,127
66591,note_on,1,0,0,,6,,,54,127
66591,note_on,0,0,0,,12,,,71,127
66744,note_off,153,0,0,,12,,,71,127
66744,note_off,0,0,0,,6,,,54,127
66745,note_on,1,0,0,,6,,,66,127
66745,note_on,0,0,0,,11,,,70,127
66897,note_off,152,0,0,,11,,,70,127
66898,note_off,1,0,0,,6,,,66,127
66899,note_on,1,0,0,,3,,,63,127
67052,note_off,153,0,0,,3,,,63,127
67053,note_on,1,0,0,,12,,,59,127
67053,note_on,0,0,0,,6,,,78,127
67206,note_off,153,0,0,,6,,,78,127
67206,note_off,0,0,0,,12,,,59,127
67207,note_on,1,0,0,,3,,,51,127
67207,note_on,0,0,0,,12,,,71,127
67360,note_off,153,0,0,,12,,,71,127
67360,note_off,0,0,0,,3,,,51,127
67361,note_on,1,0,0,,12,,,47,127
67361,note_on,0,0,0,,10,,,81,127
67361,note_on,0,0,0,,6,,,78,127
67514,note_off,153,0,0,,12,,,47,127
67515,note_on,1,0,0,,4,,,40,127
67515,note_on,0,0,0,,4,,,52,127
67668,note_off,153,0,0,,6,,,78,127
67668,note_off,0,0,0,,10,,,81,127
67669,note_on,1,0,0,,7,,,79,127
67669,note_on,0,0,0,,4,,,76,127
67822,note_off,153,0,0,,4,,,76,127
67822,note_off,0,0,0,,7,,,79,127
67822,note_off,0,0,0,,4,,,52,127
67822,note_off,0,0,0,,4,,,40,127
67823,note_on,1,0,0,,6,,,54,127
67823,note_on,0,0,0,,6,,,78,127
67823,note_on,0,0,0,,2,,,74,127
67976,note_off,153,0,0,,2,,,74,127
67976,note_off,0,0,0,,6,,,78,127
67977,note_on,1,0,0,,1,,,73,127
67977,note_on,0,0,0,,4,,,76,127
68130,note_off,153,0,0,,4,,,76,127
68130,note_off,0,0,0,,1,,,73,127
68130,note_off,0,0,0,,6,,,54,127
68131,note_on,1,0,0,,6,,,42,127
68131,note_on,0,0,0,,12,,,71,127
68131,note_on,0,0,0,,2,,,74,127
68284,note_off,153,0,0,,2,,,74,127
68284,note_off,0,0,0,,12,,,71,127
68285,note_on,1,0,0,,11,,,70,127
68285,note_on,0,0,0,,1,,,73,127
68438,note_off,153,0,0,,1,,,73,127
68438,note_off,0,0,0,,11,,,70,127
68438,note_off,0,0,0,,6,,,42,127
68439,note_on,1,0,0,,12,,,47,127
68439,note_on,0,0,0,,12,,,71,127
68439,note_on,0,0,0,,2,,,74,127
68592,note_off,153,0,0,,2,,,74,127
68592,note_off,0,0,0,,12,,,71,127
68592,note_off,0,0,0,,12,,,47,127
68593,note_on,1,0,0,,12,,,59,127
68593,note_on,0,0,0,,2,,,74,127
68593,note_on,0,0,0,,12,,,71,127
68746,note_off,153,0,0,,12,,,71,127
68746,note_off,0,0,0,,2,,,74,127
68746,note_off,0,0,0,,12,,,59,127
68747,note_on,1,0,0,,1,,,61,127
68747,note_on,0,0,0,,11,,,70,127
68747,note_on,0,0,0,,4,,,76,127
68900,note_off,153,0,0,,11,,,70,127
68900,note_off,0,0,0,,1,,,61,127
68901,note_on,1,0,0,,12,,,59,127
68901,note_on,0,0,0,,7,,,67,127
69054,note_off,153,0,0,,7,,,67,127
69054,note_off,0,0,0,,12,,,59,127
69055,note_on,1,0,0,,11,,,58,127
69055,note_on,0,0,0,,6,,,66,127
69208,note_off,153,0,0,,6,,,66,127
69208,note_off,0,0,0,,11,,,58,127
69208,note_off,0,0,0,,4,,,76,127
69209,note_on,1,0,0,,6,,,54,127
69209,note_on,0,0,0,,1,,,73,127
69209,note_on,0,0,0,,11,,,70,127
69362,note_off,153,0,0,,11,,,70,127
69362,note_off,0,0,0,,1,,,73,127
69362,note_off,0,0,0,,6,,,54,127
69363,note_on,1,0,0,,12,,,47,127
69363,note_on,0,0,0,,2,,,74,127
69363,note_on,0,0,0,,12,,,71,127
69516,note_off,153,0,0,,12,,,71,127
69516,note_off,0,0,0,,2,,,74,127
69516,note_off,0,0,0,,12,,,47,127
69517,note_on,1,0,0,,12,,,59,127
69517,note_on,0,0,0,,12,,,71,127
69517,note_on,0,0,0,,2,,,74,127
69670,note_off,153,0,0,,2,,,74,127
69670,note_off,0,0,0,,12,,,71,127
69670,note_off,0,0,0,,12,,,59,127
69671,note_on,1,0,0,,1,,,61,127
69671,note_on,0,0,0,,11,,,70,127
69671,note_on,0,0,0,,4,,,76,127
69824,note_off,153,0,0,,11,,,70,127
69824,note_off,0,0,0,,1,,,61,127
69825,note_on,1,0,0,,12,,,59,127
69825,note_on,0,0,0,,7,,,67,127
69978,note_off,153,0,0,,7,,,67,127
69978,note_off,0,0,0,,12,,,59,127
69979,note_on,1,0,0,,11,,,58,127
69979,note_on,0,0,0,,6,,,66,127
70132,note_off,153,0,0,,6,,,66,127
70132,note_off,0,0,0,,11,,,58,127
70132,note_off,0,0,0,,4,,,76,127
70133,note_on,1,0,0,,6,,,54,127
70133,note_on,0,0,0,,1,,,73,127
70133,note_on,0,0,0,,11,,,70,127
70286,note_off,153,0,0,,11,,,70,127
70286,note_off,0,0,0,,1,,,73,127
70286,note_off,0,0,0,,6,,,54,127
70287,note_on,1,0,0,,12,,,47,127
70287,note_on,0,0,0,,2,,,74,127
70287,note_on,0,0,0,,12,,,71,127
70440,note_off,153,0,0,,2,,,74,127
70440,note_off,0,0,0,,12,,,47,127
70441,note_on,1,0,0,,2,,,50,127
70441,note_on,0,0,0,,12,,,83,127
70594,note_off,153,0,0,,12,,,83,127
70594,note_off,0,0,0,,2,,,50,127
70595,note_on,1,0,0,,4,,,40,127
70595,note_on,0,0,0,,4,,,52,127
70595,note_on,0,0,0,,7,,,79,127
70748,note_off,153,0,0,,7,,,79,127
70748,note_off,0,0,0,,12,,,71,127
70749,note_on,1,0,0,,4,,,76,127
70749,note_on,0,0,0,,1,,,73,127
70902,note_off,153,0,0,,1,,,73,127
70902,note_off,0,0,0,,4,,,76,127
70902,note_off,0,0,0,,4,,,52,127
70902,note_off,0,0,0,,4,,,40,127
70903,note_on,1,0,0,,6,,,42,127
70903,note_on,0,0,0,,6,,,54,127
70903,note_on,0,0,0,,2,,,74,127
70903,note_on,0,0,0,,12,,,71,127
71056,note_off,153,0,0,,12,,,71,127
71056,note_off,0,0,0,,2,,,74,127
71057,note_on,1,0,0,,11,,,70,127
71057,note_on,0,0,0,,1,,,73,127
71210,note_off,153,0,0,,1,,,73,127
71210,note_off,0,0,0,,11,,,70,127
71210,note_off,0,0,0,,6,,,54,127
71210,note_off,0,0,0,,6,,,42,127
71211,note_on,1,0,0,,12,,,47,127
71211,note_on,0,0,0,,12,,,71,127
71211,note_on,0,0,0,,2,,,74,127
71364,note_off,153,0,0,,2,,,74,127
71364,note_off,0,0,0,,12,,,71,127
71364,note_off,0,0,0,,12,,,47,127
71365,note_on,1,0,0,,12,,,59,127
71365,note_on,0,0,0,,12,,,71,127
71365,note_on,0,0,0,,2,,,74,127
71518,note_off,153,0,0,,2,,,74,127
71518,note_off,0,0,0,,12,,,71,127
71518,note_off,0,0,0,,12,,,59,127
71519,note_on,1,0,0,,1,,,61,127
71519,note_on,0,0,0,,11,,,70,127
71519,note_on,0,0,0,,4,,,76,127
71672,note_off,153,0,0,,11,,,70,127
71672,note_off,0,0,0,,1,,,61,127
71673,note_on,1,0,0,,12,,,59,127
71673,note_on,0,0,0,,7,,,67,127
71750,note_off,77,0,0,,4,,,76,127
71826,note_off,76,0,0,,7,,,67,127
71826,note_off,0,0,0,,12,,,59,127
71827,note_on,1,0,0,,11,,,58,127
71827,note_on,0,0,0,,6,,,66,127
71980,note_off,153,0,0,,6,,,66,127
71980,note_off,0,0,0,,11,,,58,127
71981,note_on,1,0,0,,6,,,54,127
71981,note_on,0,0,0,,1,,,73,127
71981,note_on,0,0,0,,11,,,70,127
72134,note_off,153,0,0,,11,,,70,127
72134,note_off,0,0,0,,1,,,73,127
72134,note_off,0,0,0,,6,,,54,127
72135,note_on,1,0,0,,12,,,47,127
72135,note_on,0,0,0,,12,,,71,127
72135,note_on,0,0,0,,2,,,74,127
72288,note_off,153,0,0,,2,,,74,127
72288,note_off,0,0,0,,12,,,71,127
72288,note_off,0,0,0,,12,,,47,127
72289,note_on,1,0,0,,12,,,59,127
72289,note_on,0,0,0,,2,,,74,127
72289,note_on,0,0,0,,12,,,71,127
72442,note_off,153,0,0,,12,,,71,127
72442,note_off,0,0,0,,2,,,74,127
72442,note_off,0,0,0,,12,,,59,127
72443,note_on,1,0,0,,1,,,61,127
72443,note_on,0,0,0,,11,,,70,127
72443,note_on,0,0,0,,4,,,76,127
72596,note_off,153,0,0,,11,,,70,127
72596,note_off,0,0,0,,1,,,61,127
72597,note_on,1,0,0,,12,,,59,127
72597,note_on,0,0,0,,7,,,67,127
72674,note_off,77,0,0,,4,,,76,127
72750,note_off,76,0,0,,7,,,67,127
72750,note_off,0,0,0,,12,,,59,127
72751,note_on,1,0,0,,11,,,58,127
72751,note_on,0,0,0,,6,,,66,127
72904,note_off,153,0,0,,6,,,66,127
72904,note_off,0,0,0,,11,,,58,127
72905,note_on,1,0,0,,6,,,54,127
72905,note_on,0,0,0,,1,,,73,127
72905,note_on,0,0,0,,11,,,70,127
73058,note_off,153,0,0,,11,,,70,127
73058,note_off,0,0,0,,1,,,73,127
73058,note_off,0,0,0,,6,,,54,127
73059,note_on,1,0,0,,12,,,47,127
73059,note_on,0,0,0,,12,,,71,127
73059,note_on,0,0,0,,2,,,74,127
73212,note_off,153,0,0,,2,,,74,127
73212,note_off,0,0,0,,12,,,47,127
73213,note_on,1,0,0,,2,,,50,127
73213,note_on,0,0,0,,12,,,83,127
73363,note_off,150,0,0,,12,,,71,127
73365,note_off,2,0,0,,12,,,83,127
73365,note_off,0,0,0,,2,,,50,127
73366,note_on,1,0,0,,4,,,52,127
73366,note_on,0,0,0,,4,,,40,127
73366,note_on,0,0,0,,7,,,79,127
73519,note_off,153,0,0,,7,,,79,127
73520,note_on,1,0,0,,1,,,73,127
73520,note_on,0,0,0,,4,,,76,127
73673,note_off,153,0,0,,4,,,76,127
73673,note_off,0,0,0,,1,,,73,127
73673,note_off,0,0,0,,4,,,40,127
73673,note_off,0,0,0,,4,,,52,127
73674,note_on,1,0,0,,6,,,42,127
73674,note_on,0,0,0,,6,,,54,127
73674,note_on,0,0,0,,12,,,71,127
73674,note_on,0,0,0,,2,,,74,127
73827,note_off,153,0,0,,2,,,74,127
73827,note_off,0,0,0,,12,,,71,127
73828,note_on,1,0,0,,11,,,70,127
73828,note_on,0,0,0,,1,,,73,127
73981,note_off,153,0,0,,1,,,73,127
73981,note_off,0,0,0,,11,,,70,127
73981,note_off,0,0,0,,6,,,54,127
73981,note_off,0,0,0,,6,,,42,127
73982,note_on,1,0,0,,12,,,47,127
73982,note_on,0,0,0,,12,,,71,127
74135,note_off,153,0,0,,12,,,71,127
74135,note_off,0,0,0,,12,,,47,127
74136,note_on,1,0,0,,2,,,38,127
74136,note_on,0,0,0,,12,,,71,127
74289,note_off,153,0,0,,12,,,71,127
74289,note_off,0,0,0,,2,,,38,127
74290,note_on,1,0,0,,4,,,40,127
74290,note_on,0,0,0,,7,,,67,127
74443,note_off,153,0,0,,7,,,67,127
74444,note_on,1,0,0,,1,,,61,127
74444,note_on,0,0,0,,4,,,64,127
74597,note_off,153,0,0,,4,,,64,127
74597,note_off,0,0,0,,1,,,61,127
74597,note_off,0,0,0,,4,,,40,127
74598,note_on,1,0,0,,6,,,42,127
74598,note_on,0,0,0,,2,,,62,127
74598,note_on,0,0,0,,12,,,59,127
74751,note_off,153,0,0,,12,,,59,127
74751,note_off,0,0,0,,2,,,62,127
74752,note_on,1,0,0,,11,,,58,127
74752,note_on,0,0,0,,1,,,61,127
74905,note_off,153,0,0,,1,,,61,127
74905,note_off,0,0,0,,11,,,58,127
74905,note_off,0,0,0,,6,,,42,127
74906,note_on,1,0,0,,12,,,47,127
74906,note_on,0,0,0,,11,,,58,127
75290,note_off,384,0,0,,12,,,47,127
75290,note_on,0,0,0,,12,,,35,127
75674,note_off,384,0,0,,11,,,58,127
75674,note_on,0,0,0,,12,,,59,127
77364,note_off,1690,0,0,,12,,,59,127
77364,note_off,0,0,0,,12,,,35,127
81408,end_of_track,4044,1,0,,,,,,
