tick,type,time,meta,track,program,channel,pitch,tempo,note,velocity
0,copyright,0,1,0,,,,,,
0,program_change,0,0,0,6,0,,,,
0,pitchwheel,0,0,0,,0,0,,,
0,program_change,0,0,0,6,1,,,,
0,pitchwheel,0,0,0,,1,-590,,,
0,program_change,0,0,0,6,2,,,,
0,pitchwheel,0,0,0,,2,-272,,,
0,program_change,0,0,0,6,3,,,,
0,pitchwheel,0,0,0,,3,-353,,,
0,program_change,0,0,0,6,4,,,,
0,pitchwheel,0,0,0,,4,-560,,,
0,program_change,0,0,0,6,5,,,,
0,pitchwheel,0,0,0,,5,-80,,,
0,program_change,0,0,0,6,6,,,,
0,pitchwheel,0,0,0,,6,-625,,,
0,program_change,0,0,0,6,7,,,,
0,pitchwheel,0,0,0,,7,-130,,,
0,program_change,0,0,0,6,8,,,,
0,pitchwheel,0,0,0,,8,-512,,,
0,program_change,0,0,0,6,10,,,,
0,pitchwheel,0,0,0,,10,-464,,,
0,program_change,0,0,0,6,11,,,,
0,pitchwheel,0,0,0,,11,-208,,,
0,program_change,0,0,0,6,12,,,,
0,pitchwheel,0,0,0,,12,-553,,,
0,set_tempo,0,1,0,,,,500000,,
82,note_on,82,0,0,,10,,,69,127
397,note_off,315,0,0,,10,,,69,127
411,note_on,14,0,0,,10,,,69,127
650,note_off,239,0,0,,10,,,69,127
658,note_on,8,0,0,,10,,,69,127
720,note_off,62,0,0,,10,,,69,127
741,note_on,21,0,0,,10,,,69,127
1060,note_off,319,0,0,,10,,,69,127
1070,note_on,10,0,0,,4,,,64,127
1070,note_on,0,0,0,,12,,,71,127
1389,note_off,319,0,0,,12,,,71,127
1389,note_off,0,0,0,,4,,,64,127
1399,note_on,10,0,0,,10,,,69,127
1399,note_on,0,0,0,,1,,,73,127
1718,note_off,319,0,0,,1,,,73,127
1718,note_off,0,0,0,,10,,,69,127
1728,note_on,10,0,0,,12,,,71,127
1728,note_on,0,0,0,,2,,,74,127
2047,note_off,319,0,0,,2,,,74,127
2047,note_off,0,0,0,,12,,,71,127
2057,note_on,10,0,0,,1,,,73,127
2057,note_on,0,0,0,,4,,,76,127
2376,note_off,319,0,0,,4,,,76,127
2376,note_off,0,0,0,,1,,,73,127
2386,note_on,10,0,0,,6,,,78,127
2386,note_on,0,0,0,,2,,,74,127
2705,note_off,319,0,0,,2,,,74,127
2705,note_off,0,0,0,,6,,,78,127
2715,note_on,10,0,0,,1,,,73,127
2715,note_on,0,0,0,,4,,,76,127
3036,note_off,321,0,0,,4,,,76,127
3036,note_off,0,0,0,,1,,,73,127
3044,note_on,8,0,0,,2,,,74,127
3044,note_on,0,0,0,,12,,,71,127
3196,note_off,152,0,0,,12,,,71,127
3196,note_off,0,0,0,,2,,,74,127
3209,note_on,13,0,0,,10,,,69,127
3209,note_on,0,0,0,,1,,,73,127
3361,note_off,152,0,0,,1,,,73,127
3361,note_off,0,0,0,,10,,,69,127
3374,note_on,13,0,0,,2,,,74,127
3374,note_on,0,0,0,,12,,,71,127
3695,note_off,321,0,0,,12,,,71,127
3695,note_off,0,0,0,,2,,,74,127
3703,note_on,8,0,0,,4,,,64,127
3703,note_on,0,0,0,,4,,,76,127
3988,note_off,285,0,0,,4,,,64,127
4025,note_off,37,0,0,,4,,,76,127
4033,note_on,8,0,0,,10,,,69,127
4033,note_on,0,0,0,,2,,,74,127
4114,note_off,81,0,0,,2,,,74,127
4115,note_on,1,0,0,,1,,,73,127
4196,note_off,81,0,0,,1,,,73,127
4197,note_on,1,0,0,,2,,,74,127
4278,note_off,81,0,0,,2,,,74,127
4279,note_on,1,0,0,,1,,,73,127
4360,note_off,81,0,0,,1,,,73,127
4361,note_on,1,0,0,,12,,,71,127
4518,note_off,157,0,0,,12,,,71,127
4526,note_on,8,0,0,,1,,,73,127
4683,note_off,157,0,0,,1,,,73,127
4683,note_off,0,0,0,,10,,,69,127
4691,note_on,8,0,0,,12,,,71,127
4691,note_on,0,0,0,,2,,,74,127
5012,note_off,321,0,0,,2,,,74,127
5012,note_off,0,0,0,,12,,,71,127
5020,note_on,8,0,0,,4,,,64,127
5020,note_on,0,0,0,,4,,,76,127
5305,note_off,285,0,0,,4,,,64,127
5342,note_off,37,0,0,,4,,,76,127
5350,note_on,8,0,0,,10,,,69,127
5350,note_on,0,0,0,,2,,,74,127
5431,note_off,81,0,0,,2,,,74,127
5432,note_on,1,0,0,,1,,,73,127
5513,note_off,81,0,0,,1,,,73,127
5514,note_on,1,0,0,,2,,,74,127
5595,note_off,81,0,0,,2,,,74,127
5596,note_on,1,0,0,,1,,,73,127
5677,note_off,81,0,0,,1,,,73,127
5678,note_on,1,0,0,,12,,,71,127
5835,note_off,157,0,0,,12,,,71,127
5843,note_on,8,0,0,,1,,,73,127
6000,note_off,157,0,0,,1,,,73,127
6000,note_off,0,0,0,,10,,,69,127
6008,note_on,8,0,0,,12,,,71,127
6008,note_on,0,0,0,,2,,,74,127
6329,note_off,321,0,0,,2,,,74,127
6329,note_off,0,0,0,,12,,,71,127
6337,note_on,8,0,0,,4,,,64,127
6337,note_on,0,0,0,,4,,,76,127
6658,note_off,321,0,0,,4,,,76,127
6658,note_off,0,0,0,,4,,,64,127
6666,note_on,8,0,0,,10,,,57,127
6666,note_on,0,0,0,,1,,,73,127
6987,note_off,321,0,0,,1,,,73,127
6987,note_off,0,0,0,,10,,,57,127
6995,note_on,8,0,0,,10,,,57,127
6995,note_on,0,0,0,,4,,,76,127
7234,note_off,239,0,0,,10,,,57,127
7242,note_on,8,0,0,,10,,,57,127
7323,note_off,81,0,0,,10,,,57,127
7324,note_on,1,0,0,,10,,,57,127
7645,note_off,321,0,0,,10,,,57,127
7645,note_off,0,0,0,,4,,,76,127
7653,note_on,8,0,0,,4,,,52,127
7653,note_on,0,0,0,,12,,,59,127
7653,note_on,0,0,0,,4,,,76,127
7734,note_off,81,0,0,,4,,,76,127
7735,note_on,1,0,0,,2,,,74,127
7816,note_off,81,0,0,,2,,,74,127
7817,note_on,1,0,0,,1,,,73,127
7898,note_off,81,0,0,,1,,,73,127
7899,note_on,1,0,0,,2,,,74,127
7974,note_off,75,0,0,,12,,,59,127
7974,note_off,0,0,0,,4,,,52,127
7981,note_off,7,0,0,,2,,,74,127
7982,note_on,1,0,0,,1,,,61,127
7982,note_on,0,0,0,,10,,,57,127
7982,note_on,0,0,0,,1,,,73,127
8303,note_off,321,0,0,,1,,,73,127
8303,note_off,0,0,0,,10,,,57,127
8303,note_off,0,0,0,,1,,,61,127
8311,note_on,8,0,0,,12,,,59,127
8311,note_on,0,0,0,,2,,,62,127
8311,note_on,0,0,0,,12,,,71,127
8632,note_off,321,0,0,,12,,,71,127
8632,note_off,0,0,0,,2,,,62,127
8632,note_off,0,0,0,,12,,,59,127
8640,note_on,8,0,0,,1,,,61,127
8640,note_on,0,0,0,,4,,,64,127
8640,note_on,0,0,0,,12,,,71,127
8721,note_off,81,0,0,,12,,,71,127
8722,note_on,1,0,0,,10,,,69,127
8803,note_off,81,0,0,,10,,,69,127
8804,note_on,1,0,0,,12,,,71,127
8885,note_off,81,0,0,,12,,,71,127
8886,note_on,1,0,0,,10,,,69,127
8961,note_off,75,0,0,,4,,,64,127
8961,note_off,0,0,0,,1,,,61,127
8968,note_off,7,0,0,,10,,,69,127
8969,note_on,1,0,0,,6,,,66,127
8969,note_on,0,0,0,,2,,,62,127
8969,note_on,0,0,0,,12,,,71,127
9050,note_off,81,0,0,,12,,,71,127
9051,note_on,1,0,0,,10,,,69,127
9132,note_off,81,0,0,,10,,,69,127
9133,note_on,1,0,0,,12,,,71,127
9214,note_off,81,0,0,,12,,,71,127
9215,note_on,1,0,0,,10,,,69,127
9290,note_off,75,0,0,,2,,,62,127
9290,note_off,0,0,0,,6,,,66,127
9297,note_off,7,0,0,,10,,,69,127
9298,note_on,1,0,0,,1,,,61,127
9298,note_on,0,0,0,,4,,,64,127
9298,note_on,0,0,0,,12,,,71,127
9379,note_off,81,0,0,,12,,,71,127
9380,note_on,1,0,0,,10,,,69,127
9461,note_off,81,0,0,,10,,,69,127
9462,note_on,1,0,0,,12,,,71,127
9543,note_off,81,0,0,,12,,,71,127
9544,note_on,1,0,0,,10,,,69,127
9619,note_off,75,0,0,,4,,,64,127
9619,note_off,0,0,0,,1,,,61,127
9627,note_on,8,0,0,,2,,,62,127
9627,note_on,0,0,0,,12,,,59,127
9784,note_off,157,0,0,,12,,,59,127
9784,note_off,0,0,0,,2,,,62,127
9785,note_off,1,0,0,,10,,,69,127
9792,note_on,7,0,0,,1,,,61,127
9792,note_on,0,0,0,,10,,,57,127
9949,note_off,157,0,0,,10,,,57,127
9949,note_off,0,0,0,,1,,,61,127
9957,note_on,8,0,0,,2,,,62,127
9957,note_on,0,0,0,,12,,,59,127
10278,note_off,321,0,0,,12,,,59,127
10278,note_off,0,0,0,,2,,,62,127
10286,note_on,8,0,0,,4,,,52,127
10286,note_on,0,0,0,,4,,,64,127
10596,note_off,310,0,0,,4,,,64,127
10596,note_off,0,0,0,,4,,,52,127
10615,note_on,19,0,0,,10,,,57,127
10615,note_on,0,0,0,,2,,,62,127
10696,note_off,81,0,0,,2,,,62,127
10697,note_on,1,0,0,,1,,,61,127
10778,note_off,81,0,0,,1,,,61,127
10779,note_on,1,0,0,,2,,,62,127
10860,note_off,81,0,0,,2,,,62,127
10861,note_on,1,0,0,,1,,,61,127
10942,note_off,81,0,0,,1,,,61,127
10943,note_on,1,0,0,,2,,,62,127
11024,note_off,81,0,0,,2,,,62,127
11025,note_on,1,0,0,,1,,,61,127
11106,note_off,81,0,0,,1,,,61,127
11107,note_on,1,0,0,,12,,,59,127
11188,note_off,81,0,0,,12,,,59,127
11189,note_on,1,0,0,,1,,,61,127
11264,note_off,75,0,0,,10,,,57,127
11271,note_off,7,0,0,,1,,,61,127
11272,note_on,1,0,0,,12,,,59,127
11272,note_on,0,0,0,,2,,,62,127
11593,note_off,321,0,0,,2,,,62,127
11593,note_off,0,0,0,,12,,,59,127
11601,note_on,8,0,0,,4,,,52,127
11601,note_on,0,0,0,,4,,,64,127
11911,note_off,310,0,0,,4,,,64,127
11911,note_off,0,0,0,,4,,,52,127
11930,note_on,19,0,0,,10,,,57,127
11930,note_on,0,0,0,,2,,,62,127
12011,note_off,81,0,0,,2,,,62,127
12012,note_on,1,0,0,,1,,,61,127
12093,note_off,81,0,0,,1,,,61,127
12094,note_on,1,0,0,,2,,,62,127
12175,note_off,81,0,0,,2,,,62,127
12176,note_on,1,0,0,,1,,,61,127
12257,note_off,81,0,0,,1,,,61,127
12258,note_on,1,0,0,,2,,,62,127
12339,note_off,81,0,0,,2,,,62,127
12340,note_on,1,0,0,,1,,,61,127
12421,note_off,81,0,0,,1,,,61,127
12422,note_on,1,0,0,,12,,,59,127
12503,note_off,81,0,0,,12,,,59,127
12504,note_on,1,0,0,,1,,,61,127
12579,note_off,75,0,0,,10,,,57,127
12586,note_off,7,0,0,,1,,,61,127
12587,note_on,1,0,0,,12,,,59,127
12587,note_on,0,0,0,,2,,,62,127
12908,note_off,321,0,0,,2,,,62,127
12908,note_off,0,0,0,,12,,,59,127
12916,note_on,8,0,0,,4,,,52,127
12916,note_on,0,0,0,,4,,,64,127
13237,note_off,321,0,0,,4,,,64,127
13237,note_off,0,0,0,,4,,,52,127
13245,note_on,8,0,0,,1,,,61,127
13245,note_on,0,0,0,,10,,,57,127
13588,note_on,343,0,0,,4,,,76,127
13916,note_off,328,0,0,,4,,,76,127
13917,note_on,1,0,0,,10,,,69,127
14145,note_off,228,0,0,,10,,,57,127
14145,note_off,0,0,0,,1,,,61,127
14245,note_off,100,0,0,,10,,,69,127
14246,note_on,1,0,0,,4,,,76,127
14246,note_on,0,0,0,,10,,,57,127
14246,note_on,0,0,0,,1,,,49,127
14574,note_off,328,0,0,,1,,,49,127
14574,note_off,0,0,0,,10,,,57,127
14574,note_off,0,0,0,,4,,,76,127
14575,note_on,1,0,0,,6,,,78,127
14575,note_on,0,0,0,,10,,,57,127
14575,note_on,0,0,0,,2,,,50,127
14684,note_off,109,0,0,,6,,,78,127
14685,note_on,1,0,0,,4,,,76,127
14794,note_off,109,0,0,,4,,,76,127
14795,note_on,1,0,0,,2,,,74,127
14904,note_off,109,0,0,,2,,,74,127
14905,note_on,1,0,0,,1,,,73,127
15014,note_off,109,0,0,,1,,,73,127
15015,note_on,1,0,0,,12,,,71,127
15124,note_off,109,0,0,,12,,,71,127
15125,note_on,1,0,0,,10,,,69,127
15234,note_off,109,0,0,,10,,,69,127
15234,note_off,0,0,0,,2,,,50,127
15234,note_off,0,0,0,,10,,,57,127
15235,note_on,1,0,0,,8,,,68,127
15235,note_on,0,0,0,,4,,,52,127
15563,note_off,328,0,0,,4,,,52,127
15563,note_off,0,0,0,,8,,,68,127
15564,note_on,1,0,0,,12,,,71,127
15564,note_on,0,0,0,,6,,,54,127
15645,note_off,81,0,0,,12,,,71,127
15646,note_on,1,0,0,,10,,,69,127
15727,note_off,81,0,0,,10,,,69,127
15728,note_on,1,0,0,,8,,,68,127
15809,note_off,81,0,0,,8,,,68,127
15810,note_on,1,0,0,,10,,,69,127
15891,note_off,81,0,0,,6,,,54,127
15897,note_off,6,0,0,,10,,,69,127
15898,note_on,1,0,0,,4,,,52,127
15898,note_on,0,0,0,,12,,,71,127
16249,note_on,351,0,0,,4,,,76,127
16249,note_on,0,0,0,,4,,,64,127
16252,note_off,3,0,0,,12,,,71,127
16275,note_off,23,0,0,,4,,,52,127
16577,note_off,302,0,0,,4,,,64,127
16578,note_on,1,0,0,,10,,,57,127
16906,note_off,328,0,0,,10,,,57,127
16906,note_off,0,0,0,,4,,,76,127
16907,note_on,1,0,0,,4,,,76,127
16907,note_on,0,0,0,,4,,,64,127
17235,note_off,328,0,0,,4,,,64,127
17235,note_off,0,0,0,,4,,,76,127
17236,note_on,1,0,0,,10,,,69,127
17236,note_on,0,0,0,,6,,,66,127
17345,note_off,109,0,0,,6,,,66,127
17346,note_on,1,0,0,,4,,,64,127
17455,note_off,109,0,0,,4,,,64,127
17456,note_on,1,0,0,,2,,,62,127
17565,note_off,109,0,0,,2,,,62,127
17565,note_off,0,0,0,,10,,,69,127
17566,note_on,1,0,0,,4,,,76,127
17566,note_on,0,0,0,,1,,,61,127
17675,note_off,109,0,0,,1,,,61,127
17676,note_on,1,0,0,,12,,,59,127
17785,note_off,109,0,0,,12,,,59,127
17786,note_on,1,0,0,,10,,,57,127
17895,note_off,109,0,0,,10,,,57,127
17895,note_off,0,0,0,,4,,,76,127
17896,note_on,1,0,0,,2,,,74,127
17896,note_on,0,0,0,,8,,,56,127
17977,note_off,81,0,0,,2,,,74,127
17978,note_on,1,0,0,,4,,,76,127
18059,note_off,81,0,0,,4,,,76,127
18060,note_on,1,0,0,,2,,,74,127
18141,note_off,81,0,0,,2,,,74,127
18142,note_on,1,0,0,,1,,,73,127
18223,note_off,81,0,0,,8,,,56,127
18224,note_on,1,0,0,,12,,,59,127
18305,note_off,81,0,0,,12,,,59,127
18306,note_on,1,0,0,,10,,,57,127
18387,note_off,81,0,0,,10,,,57,127
18388,note_on,1,0,0,,8,,,56,127
18469,note_off,81,0,0,,8,,,56,127
18470,note_on,1,0,0,,10,,,57,127
18545,note_off,75,0,0,,1,,,73,127
18551,note_off,6,0,0,,10,,,57,127
18552,note_on,1,0,0,,1,,,73,127
18552,note_on,0,0,0,,4,,,52,127
18880,note_off,328,0,0,,1,,,73,127
18883,note_on,3,0,0,,12,,,71,127
18964,note_on,81,0,0,,1,,,73,127
18965,note_off,1,0,0,,12,,,71,127
19045,note_on,80,0,0,,12,,,71,127
19046,note_off,1,0,0,,1,,,73,127
19201,note_on,155,0,0,,4,,,40,127
19496,note_off,295,0,0,,4,,,52,127
19538,note_off,42,0,0,,12,,,71,127
19578,note_off,40,0,0,,4,,,40,127
19595,note_on,17,0,0,,4,,,76,127
19923,note_off,328,0,0,,4,,,76,127
19924,note_on,1,0,0,,4,,,76,127
19924,note_on,0,0,0,,10,,,69,127
20033,note_off,109,0,0,,10,,,69,127
20034,note_on,1,0,0,,4,,,64,127
20143,note_off,109,0,0,,4,,,64,127
20144,note_on,1,0,0,,1,,,61,127
20253,note_off,109,0,0,,1,,,61,127
20253,note_off,0,0,0,,4,,,76,127
20254,note_on,1,0,0,,1,,,73,127
20254,note_on,0,0,0,,10,,,57,127
20363,note_off,109,0,0,,10,,,57,127
20364,note_on,1,0,0,,4,,,52,127
20473,note_off,109,0,0,,4,,,52,127
20474,note_on,1,0,0,,1,,,49,127
20583,note_off,109,0,0,,1,,,49,127
20584,note_on,1,0,0,,10,,,45,127
20910,note_off,326,0,0,,10,,,45,127
20913,note_off,3,0,0,,1,,,73,127
20914,note_on,1,0,0,,4,,,76,127
21242,note_off,328,0,0,,4,,,76,127
21243,note_on,1,0,0,,4,,,76,127
21243,note_on,0,0,0,,8,,,68,127
21352,note_off,109,0,0,,8,,,68,127
21353,note_on,1,0,0,,4,,,64,127
21462,note_off,109,0,0,,4,,,64,127
21463,note_on,1,0,0,,12,,,59,127
21572,note_off,109,0,0,,12,,,59,127
21572,note_off,0,0,0,,4,,,76,127
21573,note_on,1,0,0,,12,,,71,127
21573,note_on,0,0,0,,8,,,56,127
21682,note_off,109,0,0,,8,,,56,127
21683,note_on,1,0,0,,4,,,52,127
21792,note_off,109,0,0,,4,,,52,127
21793,note_on,1,0,0,,12,,,47,127
21902,note_off,109,0,0,,12,,,47,127
21903,note_on,1,0,0,,8,,,44,127
22229,note_off,326,0,0,,8,,,44,127
22232,note_off,3,0,0,,12,,,71,127
22233,note_on,1,0,0,,4,,,76,127
22561,note_off,328,0,0,,4,,,76,127
22562,note_on,1,0,0,,4,,,76,127
22562,note_on,0,0,0,,6,,,66,127
22671,note_off,109,0,0,,6,,,66,127
22672,note_on,1,0,0,,3,,,63,127
22781,note_off,109,0,0,,3,,,63,127
22782,note_on,1,0,0,,12,,,59,127
22891,note_off,109,0,0,,12,,,59,127
22891,note_off,0,0,0,,4,,,76,127
22892,note_on,1,0,0,,10,,,69,127
22892,note_on,0,0,0,,6,,,54,127
23001,note_off,109,0,0,,6,,,54,127
23002,note_on,1,0,0,,3,,,51,127
23111,note_off,109,0,0,,3,,,51,127
23112,note_on,1,0,0,,12,,,47,127
23221,note_off,109,0,0,,12,,,47,127
23222,note_on,1,0,0,,6,,,42,127
23548,note_off,326,0,0,,6,,,42,127
23551,note_off,3,0,0,,10,,,69,127
23552,note_on,1,0,0,,4,,,76,127
23880,note_off,328,0,0,,4,,,76,127
23881,note_on,1,0,0,,4,,,76,127
23881,note_on,0,0,0,,4,,,64,127
23990,note_off,109,0,0,,4,,,64,127
23991,note_on,1,0,0,,12,,,59,127
24100,note_off,109,0,0,,12,,,59,127
24101,note_on,1,0,0,,8,,,56,127
24210,note_off,109,0,0,,8,,,56,127
24210,note_off,0,0,0,,4,,,76,127
24211,note_on,1,0,0,,8,,,68,127
24211,note_on,0,0,0,,4,,,52,127
24320,note_off,109,0,0,,4,,,52,127
24321,note_on,1,0,0,,12,,,47,127
24430,note_off,109,0,0,,12,,,47,127
24431,note_on,1,0,0,,8,,,44,127
24540,note_off,109,0,0,,8,,,44,127
24541,note_on,1,0,0,,4,,,40,127
24869,note_off,328,0,0,,4,,,40,127
24869,note_off,0,0,0,,8,,,68,127
24870,note_on,1,0,0,,4,,,76,127
24870,note_on,0,0,0,,8,,,44,127
25198,note_off,328,0,0,,8,,,44,127
25198,note_off,0,0,0,,4,,,76,127
25199,note_on,1,0,0,,3,,,75,127
25199,note_on,0,0,0,,10,,,45,127
25280,note_off,81,0,0,,3,,,75,127
25281,note_on,1,0,0,,1,,,73,127
25527,note_off,246,0,0,,1,,,73,127
25528,note_on,1,0,0,,1,,,85,127
25856,note_off,328,0,0,,1,,,85,127
25856,note_off,0,0,0,,10,,,45,127
25857,note_on,1,0,0,,12,,,83,127
25857,note_on,0,0,0,,10,,,33,127
25938,note_off,81,0,0,,12,,,83,127
25939,note_on,1,0,0,,10,,,81,127
26185,note_off,246,0,0,,10,,,81,127
26186,note_on,1,0,0,,8,,,80,127
26267,note_off,81,0,0,,8,,,80,127
26268,note_on,1,0,0,,6,,,78,127
26514,note_off,246,0,0,,6,,,78,127
26514,note_off,0,0,0,,10,,,33,127
26515,note_on,1,0,0,,6,,,78,127
26515,note_on,0,0,0,,12,,,47,127
26688,note_on,173,0,0,,4,,,76,127
26691,note_off,3,0,0,,6,,,78,127
26978,note_on,287,0,0,,3,,,75,127
26985,note_off,7,0,0,,4,,,76,127
27074,note_off,89,0,0,,3,,,75,127
27076,note_on,2,0,0,,1,,,73,127
27172,note_off,96,0,0,,1,,,73,127
27174,note_on,2,0,0,,12,,,71,127
27174,note_on,0,0,0,,12,,,35,127
27500,note_off,326,0,0,,12,,,35,127
27502,note_off,2,0,0,,12,,,47,127
27517,note_on,15,0,0,,12,,,83,127
27586,note_off,69,0,0,,12,,,71,127
27846,note_off,260,0,0,,12,,,83,127
27847,note_on,1,0,0,,12,,,71,127
27847,note_on,0,0,0,,12,,,83,127
27956,note_off,109,0,0,,12,,,71,127
27957,note_on,1,0,0,,6,,,66,127
28066,note_off,109,0,0,,6,,,66,127
28067,note_on,1,0,0,,3,,,63,127
28176,note_off,109,0,0,,3,,,63,127
28176,note_off,0,0,0,,12,,,83,127
28177,note_on,1,0,0,,12,,,59,127
28177,note_on,0,0,0,,6,,,78,127
28286,note_off,109,0,0,,12,,,59,127
28287,note_on,1,0,0,,6,,,54,127
28396,note_off,109,0,0,,6,,,54,127
28397,note_on,1,0,0,,3,,,51,127
28506,note_off,109,0,0,,3,,,51,127
28507,note_on,1,0,0,,12,,,35,127
28835,note_off,328,0,0,,6,,,78,127
28836,note_on,1,0,0,,12,,,83,127
29000,note_off,164,0,0,,12,,,35,127
29165,note_off,165,0,0,,12,,,83,127
29166,note_on,1,0,0,,12,,,71,127
29166,note_on,0,0,0,,12,,,83,127
29275,note_off,109,0,0,,12,,,71,127
29276,note_on,1,0,0,,8,,,68,127
29385,note_off,109,0,0,,8,,,68,127
29386,note_on,1,0,0,,4,,,64,127
29495,note_off,109,0,0,,4,,,64,127
29495,note_off,0,0,0,,12,,,83,127
29496,note_on,1,0,0,,12,,,59,127
29496,note_on,0,0,0,,4,,,76,127
29496,note_on,0,0,0,,8,,,80,127
29605,note_off,109,0,0,,12,,,59,127
29606,note_on,1,0,0,,8,,,56,127
29715,note_off,109,0,0,,8,,,56,127
29716,note_on,1,0,0,,4,,,52,127
29825,note_off,109,0,0,,4,,,52,127
29826,note_on,1,0,0,,12,,,35,127
30154,note_off,328,0,0,,8,,,80,127
30154,note_off,0,0,0,,4,,,76,127
30155,note_on,1,0,0,,12,,,83,127
30319,note_off,164,0,0,,12,,,35,127
30484,note_off,165,0,0,,12,,,83,127
30485,note_on,1,0,0,,12,,,71,127
30485,note_on,0,0,0,,12,,,83,127
30594,note_off,109,0,0,,12,,,71,127
30595,note_on,1,0,0,,6,,,66,127
30704,note_off,109,0,0,,6,,,66,127
30705,note_on,1,0,0,,3,,,63,127
30814,note_off,109,0,0,,3,,,63,127
30814,note_off,0,0,0,,12,,,83,127
30815,note_on,1,0,0,,12,,,59,127
30815,note_on,0,0,0,,6,,,78,127
30815,note_on,0,0,0,,3,,,75,127
30924,note_off,109,0,0,,12,,,59,127
30925,note_on,1,0,0,,6,,,54,127
31034,note_off,109,0,0,,6,,,54,127
31035,note_on,1,0,0,,3,,,51,127
31144,note_off,109,0,0,,3,,,51,127
31145,note_on,1,0,0,,12,,,35,127
31473,note_off,328,0,0,,12,,,35,127
31473,note_off,0,0,0,,3,,,75,127
31473,note_off,0,0,0,,6,,,78,127
31488,note_on,15,0,0,,12,,,71,127
31488,note_on,0,0,0,,10,,,81,127
31488,note_on,0,0,0,,6,,,78,127
31488,note_on,0,0,0,,3,,,39,127
31816,note_off,328,0,0,,3,,,39,127
31816,note_off,0,0,0,,6,,,78,127
31816,note_off,0,0,0,,10,,,81,127
31816,note_off,0,0,0,,12,,,71,127
31817,note_on,1,0,0,,4,,,76,127
31817,note_on,0,0,0,,8,,,80,127
31817,note_on,0,0,0,,4,,,40,127
32145,note_off,328,0,0,,4,,,40,127
32145,note_off,0,0,0,,8,,,80,127
32145,note_off,0,0,0,,4,,,76,127
32146,note_on,1,0,0,,12,,,83,127
32146,note_on,0,0,0,,12,,,71,127
32146,note_on,0,0,0,,8,,,44,127
32474,note_off,328,0,0,,8,,,44,127
32474,note_off,0,0,0,,12,,,71,127
32475,note_on,1,0,0,,1,,,73,127
32475,note_on,0,0,0,,10,,,45,127
32803,note_off,328,0,0,,10,,,45,127
32803,note_off,0,0,0,,12,,,83,127
32804,note_on,1,0,0,,10,,,81,127
32804,note_on,0,0,0,,10,,,33,127
33132,note_off,328,0,0,,10,,,33,127
33132,note_off,0,0,0,,10,,,81,127
33132,note_off,0,0,0,,1,,,73,127
33133,note_on,1,0,0,,8,,,80,127
33133,note_on,0,0,0,,12,,,47,127
33242,note_off,109,0,0,,8,,,80,127
33243,note_on,1,0,0,,6,,,78,127
33352,note_off,109,0,0,,6,,,78,127
33353,note_on,1,0,0,,4,,,76,127
33462,note_off,109,0,0,,4,,,76,127
33463,note_on,1,0,0,,3,,,75,127
33572,note_off,109,0,0,,3,,,75,127
33573,note_on,1,0,0,,1,,,73,127
33682,note_off,109,0,0,,1,,,73,127
33683,note_on,1,0,0,,12,,,71,127
33792,note_off,109,0,0,,12,,,71,127
33792,note_off,0,0,0,,12,,,47,127
33793,note_on,1,0,0,,8,,,80,127
33793,note_on,0,0,0,,12,,,35,127
33874,note_off,81,0,0,,8,,,80,127
33875,note_on,1,0,0,,6,,,78,127
33956,note_off,81,0,0,,6,,,78,127
33957,note_on,1,0,0,,8,,,80,127
34038,note_off,81,0,0,,8,,,80,127
34039,note_on,1,0,0,,6,,,78,127
34120,note_off,81,0,0,,6,,,78,127
34121,note_on,1,0,0,,8,,,80,127
34202,note_off,81,0,0,,8,,,80,127
34203,note_on,1,0,0,,6,,,78,127
34284,note_off,81,0,0,,6,,,78,127
34285,note_on,1,0,0,,4,,,76,127
34449,note_off,164,0,0,,4,,,76,127
34449,note_off,0,0,0,,12,,,35,127
34455,note_on,6,0,0,,4,,,52,127
34455,note_on,0,0,0,,4,,,76,127
34848,note_on,393,0,0,,4,,,40,127
35113,note_off,265,0,0,,4,,,52,127
35201,note_off,88,0,0,,4,,,76,127
35568,note_off,367,0,0,,4,,,40,127
35705,note_on,137,0,0,,4,,,76,127
36033,note_off,328,0,0,,4,,,76,127
36034,note_on,1,0,0,,4,,,76,127
36116,note_on,82,0,0,,1,,,73,127
36363,note_on,247,0,0,,4,,,64,127
36363,note_on,0,0,0,,10,,,69,127
36691,note_off,328,0,0,,10,,,69,127
36691,note_off,0,0,0,,4,,,64,127
36692,note_on,1,0,0,,10,,,69,127
36692,note_on,0,0,0,,4,,,64,127
37019,note_off,327,0,0,,4,,,76,127
37020,note_off,1,0,0,,4,,,64,127
37020,note_off,0,0,0,,10,,,69,127
37020,note_off,0,0,0,,1,,,73,127
37021,note_on,1,0,0,,4,,,64,127
37021,note_on,0,0,0,,10,,,69,127
37021,note_on,0,0,0,,4,,,76,127
37349,note_off,328,0,0,,4,,,76,127
37350,note_on,1,0,0,,4,,,76,127
37432,note_on,82,0,0,,12,,,71,127
37513,note_off,81,0,0,,10,,,69,127
37513,note_off,0,0,0,,4,,,64,127
37678,note_on,165,0,0,,4,,,64,127
37678,note_on,0,0,0,,7,,,67,127
38006,note_off,328,0,0,,7,,,67,127
38006,note_off,0,0,0,,4,,,64,127
38007,note_on,1,0,0,,4,,,64,127
38007,note_on,0,0,0,,7,,,67,127
38334,note_off,327,0,0,,4,,,76,127
38335,note_off,1,0,0,,7,,,67,127
38335,note_off,0,0,0,,4,,,64,127
38335,note_off,0,0,0,,12,,,71,127
38336,note_on,1,0,0,,7,,,67,127
38336,note_on,0,0,0,,4,,,64,127
38336,note_on,0,0,0,,4,,,76,127
38664,note_off,328,0,0,,4,,,76,127
38665,note_on,1,0,0,,4,,,76,127
38747,note_on,82,0,0,,10,,,69,127
38828,note_off,81,0,0,,4,,,64,127
38828,note_off,0,0,0,,7,,,67,127
38993,note_on,165,0,0,,0,,,60,127
38993,note_on,0,0,0,,4,,,64,127
39321,note_off,328,0,0,,4,,,64,127
39321,note_off,0,0,0,,0,,,60,127
39322,note_on,1,0,0,,0,,,60,127
39322,note_on,0,0,0,,4,,,64,127
39649,note_off,327,0,0,,4,,,76,127
39650,note_off,1,0,0,,4,,,64,127
39650,note_off,0,0,0,,0,,,60,127
39650,note_off,0,0,0,,10,,,69,127
39651,note_on,1,0,0,,4,,,64,127
39651,note_on,0,0,0,,0,,,60,127
39651,note_on,0,0,0,,4,,,76,127
39979,note_off,328,0,0,,4,,,76,127
39980,note_on,1,0,0,,4,,,76,127
40062,note_on,82,0,0,,12,,,71,127
40143,note_off,81,0,0,,0,,,60,127
40143,note_off,0,0,0,,4,,,64,127
40308,note_on,165,0,0,,12,,,59,127
40308,note_on,0,0,0,,7,,,55,127
40308,note_on,0,0,0,,4,,,64,127
40636,note_off,328,0,0,,4,,,64,127
40636,note_off,0,0,0,,7,,,55,127
40636,note_off,0,0,0,,12,,,59,127
40636,note_off,0,0,0,,4,,,76,127
40637,note_on,1,0,0,,12,,,59,127
40637,note_on,0,0,0,,7,,,55,127
40637,note_on,0,0,0,,4,,,64,127
40965,note_off,328,0,0,,4,,,64,127
40965,note_off,0,0,0,,7,,,55,127
40965,note_off,0,0,0,,12,,,59,127
40965,note_off,0,0,0,,12,,,71,127
40966,note_on,1,0,0,,12,,,59,127
40966,note_on,0,0,0,,4,,,64,127
40966,note_on,0,0,0,,7,,,55,127
40966,note_on,0,0,0,,7,,,79,127
41292,note_off,326,0,0,,7,,,55,127
41292,note_off,0,0,0,,4,,,64,127
41292,note_off,0,0,0,,12,,,59,127
41295,note_off,3,0,0,,7,,,79,127
41296,note_on,1,0,0,,6,,,78,127
41296,note_on,0,0,0,,0,,,72,127
41377,note_off,81,0,0,,6,,,78,127
41378,note_on,1,0,0,,4,,,76,127
41624,note_off,246,0,0,,4,,,76,127
41625,note_on,1,0,0,,0,,,60,127
41625,note_on,0,0,0,,10,,,57,127
41625,note_on,0,0,0,,4,,,64,127
41625,note_on,0,0,0,,7,,,79,127
41953,note_off,328,0,0,,7,,,79,127
41953,note_off,0,0,0,,0,,,72,127
41954,note_on,1,0,0,,12,,,71,127
41954,note_on,0,0,0,,6,,,78,127
42035,note_off,81,0,0,,6,,,78,127
42036,note_off,1,0,0,,4,,,64,127
42036,note_off,0,0,0,,10,,,57,127
42036,note_off,0,0,0,,0,,,60,127
42036,note_on,0,0,0,,4,,,76,127
42282,note_off,246,0,0,,4,,,76,127
42283,note_on,1,0,0,,12,,,59,127
42283,note_on,0,0,0,,4,,,64,127
42283,note_on,0,0,0,,7,,,79,127
42611,note_off,328,0,0,,7,,,79,127
42611,note_off,0,0,0,,12,,,71,127
42612,note_on,1,0,0,,10,,,69,127
42612,note_on,0,0,0,,6,,,78,127
42693,note_off,81,0,0,,6,,,78,127
42694,note_on,1,0,0,,4,,,76,127
42775,note_off,81,0,0,,4,,,64,127
42775,note_off,0,0,0,,12,,,59,127
42940,note_off,165,0,0,,4,,,76,127
42941,note_on,1,0,0,,0,,,60,127
42941,note_on,0,0,0,,4,,,64,127
42941,note_on,0,0,0,,7,,,79,127
43269,note_off,328,0,0,,7,,,79,127
43269,note_off,0,0,0,,10,,,69,127
43270,note_on,1,0,0,,12,,,71,127
43270,note_on,0,0,0,,6,,,78,127
43351,note_off,81,0,0,,6,,,78,127
43352,note_on,1,0,0,,4,,,76,127
43433,note_off,81,0,0,,4,,,64,127
43433,note_off,0,0,0,,0,,,60,127
43598,note_off,165,0,0,,4,,,76,127
43599,note_on,1,0,0,,12,,,59,127
43599,note_on,0,0,0,,7,,,55,127
43599,note_on,0,0,0,,4,,,64,127
43599,note_on,0,0,0,,12,,,83,127
43927,note_off,328,0,0,,4,,,64,127
43927,note_off,0,0,0,,7,,,55,127
43927,note_off,0,0,0,,12,,,59,127
43927,note_off,0,0,0,,12,,,71,127
43928,note_on,1,0,0,,4,,,64,127
43928,note_on,0,0,0,,0,,,60,127
43928,note_on,0,0,0,,10,,,57,127
43928,note_on,0,0,0,,0,,,72,127
44256,note_off,328,0,0,,12,,,83,127
44257,note_on,1,0,0,,12,,,83,127
44257,note_on,0,0,0,,10,,,81,127
44338,note_off,81,0,0,,10,,,81,127
44338,note_off,0,0,0,,12,,,83,127
44339,note_on,1,0,0,,7,,,79,127
44585,note_off,246,0,0,,7,,,79,127
44585,note_off,0,0,0,,10,,,57,127
44585,note_off,0,0,0,,0,,,60,127
44585,note_off,0,0,0,,4,,,64,127
44586,note_on,1,0,0,,0,,,60,127
44586,note_on,0,0,0,,4,,,64,127
44586,note_on,0,0,0,,10,,,81,127
44586,note_on,0,0,0,,7,,,79,127
44667,note_off,81,0,0,,7,,,79,127
44667,note_off,0,0,0,,10,,,81,127
44668,note_on,1,0,0,,6,,,78,127
44914,note_off,246,0,0,,6,,,78,127
44915,note_on,1,0,0,,7,,,79,127
44915,note_on,0,0,0,,6,,,78,127
44996,note_off,81,0,0,,6,,,78,127
44996,note_off,0,0,0,,7,,,79,127
44997,note_on,1,0,0,,4,,,76,127
45239,note_off,242,0,0,,0,,,72,127
45243,note_off,4,0,0,,4,,,76,127
45243,note_off,0,0,0,,4,,,64,127
45243,note_off,0,0,0,,0,,,60,127
45244,note_on,1,0,0,,12,,,59,127
45244,note_on,0,0,0,,4,,,76,127
45682,note_off,438,0,0,,4,,,76,127
45683,note_on,1,0,0,,3,,,75,127
45792,note_off,109,0,0,,3,,,75,127
45793,note_on,1,0,0,,1,,,73,127
45902,note_off,109,0,0,,1,,,73,127
45903,note_on,1,0,0,,12,,,47,127
45903,note_on,0,0,0,,12,,,71,127
46145,note_off,242,0,0,,12,,,59,127
46150,note_off,5,0,0,,12,,,47,127
46267,note_on,117,0,0,,12,,,83,127
46396,note_off,129,0,0,,12,,,71,127
46595,note_off,199,0,0,,12,,,83,127
46596,note_on,1,0,0,,12,,,71,127
46596,note_on,0,0,0,,12,,,83,127
46705,note_off,109,0,0,,12,,,71,127
46706,note_on,1,0,0,,6,,,66,127
46815,note_off,109,0,0,,6,,,66,127
46816,note_on,1,0,0,,3,,,63,127
46925,note_off,109,0,0,,3,,,63,127
46925,note_off,0,0,0,,12,,,83,127
46926,note_on,1,0,0,,12,,,59,127
46926,note_on,0,0,0,,6,,,78,127
47035,note_off,109,0,0,,12,,,59,127
47036,note_on,1,0,0,,6,,,54,127
47145,note_off,109,0,0,,6,,,54,127
47146,note_on,1,0,0,,3,,,51,127
47255,note_off,109,0,0,,3,,,51,127
47256,note_on,1,0,0,,12,,,35,127
47584,note_off,328,0,0,,6,,,78,127
47585,note_on,1,0,0,,12,,,83,127
47749,note_off,164,0,0,,12,,,35,127
47914,note_off,165,0,0,,12,,,83,127
47915,note_on,1,0,0,,12,,,71,127
47915,note_on,0,0,0,,12,,,83,127
48024,note_off,109,0,0,,12,,,71,127
48025,note_on,1,0,0,,8,,,68,127
48134,note_off,109,0,0,,8,,,68,127
48135,note_on,1,0,0,,4,,,64,127
48244,note_off,109,0,0,,4,,,64,127
48244,note_off,0,0,0,,12,,,83,127
48245,note_on,1,0,0,,12,,,59,127
48245,note_on,0,0,0,,4,,,76,127
48245,note_on,0,0,0,,8,,,80,127
48354,note_off,109,0,0,,12,,,59,127
48355,note_on,1,0,0,,8,,,56,127
48464,note_off,109,0,0,,8,,,56,127
48465,note_on,1,0,0,,4,,,52,127
48574,note_off,109,0,0,,4,,,52,127
48575,note_on,1,0,0,,12,,,35,127
48903,note_off,328,0,0,,8,,,80,127
48903,note_off,0,0,0,,4,,,76,127
48904,note_on,1,0,0,,12,,,83,127
49068,note_off,164,0,0,,12,,,35,127
49233,note_off,165,0,0,,12,,,83,127
49234,note_on,1,0,0,,12,,,71,127
49234,note_on,0,0,0,,12,,,83,127
49343,note_off,109,0,0,,12,,,71,127
49344,note_on,1,0,0,,6,,,66,127
49453,note_off,109,0,0,,6,,,66,127
49454,note_on,1,0,0,,3,,,63,127
49563,note_off,109,0,0,,3,,,63,127
49563,note_off,0,0,0,,12,,,83,127
49564,note_on,1,0,0,,12,,,59,127
49564,note_on,0,0,0,,6,,,78,127
49564,note_on,0,0,0,,3,,,75,127
49673,note_off,109,0,0,,12,,,59,127
49674,note_on,1,0,0,,6,,,54,127
49783,note_off,109,0,0,,6,,,54,127
49784,note_on,1,0,0,,3,,,51,127
49893,note_off,109,0,0,,3,,,51,127
49894,note_on,1,0,0,,12,,,35,127
50222,note_off,328,0,0,,12,,,35,127
50222,note_off,0,0,0,,3,,,75,127
50222,note_off,0,0,0,,6,,,78,127
50237,note_on,15,0,0,,10,,,81,127
50237,note_on,0,0,0,,12,,,71,127
50237,note_on,0,0,0,,6,,,78,127
50237,note_on,0,0,0,,3,,,39,127
50565,note_off,328,0,0,,3,,,39,127
50565,note_off,0,0,0,,6,,,78,127
50565,note_off,0,0,0,,12,,,71,127
50565,note_off,0,0,0,,10,,,81,127
50566,note_on,1,0,0,,4,,,76,127
50566,note_on,0,0,0,,8,,,80,127
50566,note_on,0,0,0,,4,,,40,127
50894,note_off,328,0,0,,4,,,40,127
50894,note_off,0,0,0,,8,,,80,127
50894,note_off,0,0,0,,4,,,76,127
50895,note_on,1,0,0,,12,,,71,127
50895,note_on,0,0,0,,12,,,83,127
50895,note_on,0,0,0,,8,,,44,127
51223,note_off,328,0,0,,8,,,44,127
51223,note_off,0,0,0,,12,,,71,127
51224,note_on,1,0,0,,1,,,73,127
51224,note_on,0,0,0,,10,,,45,127
51552,note_off,328,0,0,,12,,,83,127
51553,note_on,1,0,0,,10,,,81,127
51553,note_on,0,0,0,,10,,,33,127
51721,note_off,168,0,0,,10,,,45,127
51881,note_off,160,0,0,,10,,,33,127
51881,note_off,0,0,0,,10,,,81,127
51881,note_off,0,0,0,,1,,,73,127
51882,note_on,1,0,0,,8,,,80,127
51882,note_on,0,0,0,,12,,,47,127
51991,note_off,109,0,0,,8,,,80,127
51992,note_on,1,0,0,,6,,,78,127
52101,note_off,109,0,0,,6,,,78,127
52102,note_on,1,0,0,,4,,,76,127
52211,note_off,109,0,0,,4,,,76,127
52212,note_on,1,0,0,,3,,,75,127
52321,note_off,109,0,0,,3,,,75,127
52322,note_on,1,0,0,,1,,,73,127
52431,note_off,109,0,0,,1,,,73,127
52432,note_on,1,0,0,,12,,,71,127
52541,note_off,109,0,0,,12,,,71,127
52541,note_off,0,0,0,,12,,,47,127
52542,note_on,1,0,0,,8,,,80,127
52542,note_on,0,0,0,,12,,,35,127
52651,note_off,109,0,0,,8,,,80,127
52652,note_on,1,0,0,,6,,,78,127
52761,note_off,109,0,0,,6,,,78,127
52762,note_on,1,0,0,,8,,,80,127
52871,note_off,109,0,0,,8,,,80,127
52872,note_on,1,0,0,,6,,,78,127
52981,note_off,109,0,0,,6,,,78,127
52982,note_on,1,0,0,,4,,,76,127
53091,note_off,109,0,0,,4,,,76,127
53092,note_on,1,0,0,,6,,,78,127
53201,note_off,109,0,0,,6,,,78,127
53201,note_off,0,0,0,,12,,,35,127
53210,note_on,9,0,0,,8,,,80,127
53215,note_on,5,0,0,,4,,,40,127
53319,note_off,104,0,0,,8,,,80,127
53325,note_on,6,0,0,,4,,,76,127
53434,note_off,109,0,0,,4,,,76,127
53435,note_on,1,0,0,,12,,,71,127
53544,note_off,109,0,0,,12,,,71,127
53545,note_on,1,0,0,,8,,,68,127
53654,note_off,109,0,0,,8,,,68,127
53655,note_on,1,0,0,,12,,,71,127
53764,note_off,109,0,0,,12,,,71,127
53765,note_on,1,0,0,,4,,,76,127
53874,note_off,109,0,0,,4,,,76,127
53875,note_on,1,0,0,,12,,,83,127
53984,note_off,109,0,0,,12,,,83,127
53985,note_on,1,0,0,,8,,,80,127
54094,note_off,109,0,0,,8,,,80,127
54095,note_on,1,0,0,,4,,,76,127
54204,note_off,109,0,0,,4,,,76,127
54205,note_on,1,0,0,,12,,,71,127
54314,note_off,109,0,0,,12,,,71,127
54315,note_on,1,0,0,,4,,,76,127
54424,note_off,109,0,0,,4,,,76,127
54425,note_on,1,0,0,,8,,,80,127
54530,note_off,105,0,0,,4,,,40,127
54534,note_off,4,0,0,,8,,,80,127
54535,note_on,1,0,0,,4,,,88,127
54863,note_off,328,0,0,,4,,,88,127
54878,note_on,15,0,0,,4,,,64,127
54878,note_on,0,0,0,,8,,,44,127
55206,note_off,328,0,0,,8,,,44,127
55206,note_off,0,0,0,,4,,,64,127
55207,note_on,1,0,0,,8,,,68,127
55207,note_on,0,0,0,,10,,,45,127
55288,note_off,81,0,0,,8,,,68,127
55289,note_on,1,0,0,,6,,,66,127
55370,note_off,81,0,0,,6,,,66,127
55371,note_on,1,0,0,,8,,,68,127
55452,note_off,81,0,0,,8,,,68,127
55453,note_on,1,0,0,,6,,,66,127
55534,note_off,81,0,0,,6,,,66,127
55534,note_off,0,0,0,,10,,,45,127
55535,note_on,1,0,0,,8,,,68,127
55535,note_on,0,0,0,,12,,,47,127
55616,note_off,81,0,0,,8,,,68,127
55617,note_on,1,0,0,,6,,,66,127
55698,note_off,81,0,0,,6,,,66,127
55699,note_on,1,0,0,,4,,,64,127
55780,note_off,81,0,0,,4,,,64,127
55781,note_on,1,0,0,,6,,,66,127
55862,note_off,81,0,0,,6,,,66,127
55862,note_off,0,0,0,,12,,,47,127
55863,note_on,1,0,0,,8,,,80,127
55863,note_on,0,0,0,,4,,,40,127
55972,note_off,109,0,0,,8,,,80,127
55973,note_on,1,0,0,,4,,,76,127
56082,note_off,109,0,0,,4,,,76,127
56083,note_on,1,0,0,,12,,,71,127
56192,note_off,109,0,0,,12,,,71,127
56193,note_on,1,0,0,,8,,,68,127
56302,note_off,109,0,0,,8,,,68,127
56303,note_on,1,0,0,,12,,,71,127
56412,note_off,109,0,0,,12,,,71,127
56413,note_on,1,0,0,,4,,,76,127
56522,note_off,109,0,0,,4,,,76,127
56523,note_on,1,0,0,,12,,,83,127
56632,note_off,109,0,0,,12,,,83,127
56633,note_on,1,0,0,,8,,,80,127
56742,note_off,109,0,0,,8,,,80,127
56743,note_on,1,0,0,,4,,,76,127
56852,note_off,109,0,0,,4,,,76,127
56853,note_on,1,0,0,,12,,,71,127
56962,note_off,109,0,0,,12,,,71,127
56963,note_on,1,0,0,,4,,,76,127
57072,note_off,109,0,0,,4,,,76,127
57073,note_on,1,0,0,,8,,,80,127
57178,note_off,105,0,0,,4,,,40,127
57182,note_off,4,0,0,,8,,,80,127
57183,note_on,1,0,0,,4,,,88,127
57511,note_off,328,0,0,,4,,,88,127
57526,note_on,15,0,0,,8,,,44,127
57526,note_on,0,0,0,,4,,,64,127
57854,note_off,328,0,0,,4,,,64,127
57854,note_off,0,0,0,,8,,,44,127
57855,note_on,1,0,0,,10,,,45,127
57855,note_on,0,0,0,,8,,,68,127
57936,note_off,81,0,0,,8,,,68,127
57937,note_on,1,0,0,,6,,,66,127
58018,note_off,81,0,0,,6,,,66,127
58019,note_on,1,0,0,,8,,,68,127
58100,note_off,81,0,0,,8,,,68,127
58101,note_on,1,0,0,,6,,,66,127
58182,note_off,81,0,0,,6,,,66,127
58182,note_off,0,0,0,,10,,,45,127
58183,note_on,1,0,0,,12,,,47,127
58183,note_on,0,0,0,,8,,,68,127
58264,note_off,81,0,0,,8,,,68,127
58265,note_on,1,0,0,,6,,,66,127
58346,note_off,81,0,0,,6,,,66,127
58347,note_on,1,0,0,,4,,,64,127
58428,note_off,81,0,0,,4,,,64,127
58429,note_on,1,0,0,,6,,,66,127
58510,note_off,81,0,0,,6,,,66,127
58510,note_off,0,0,0,,12,,,47,127
58511,note_on,1,0,0,,4,,,52,127
58511,note_on,0,0,0,,4,,,64,127
58620,note_off,109,0,0,,4,,,52,127
58621,note_on,1,0,0,,12,,,47,127
58730,note_off,109,0,0,,12,,,47,127
58731,note_on,1,0,0,,8,,,44,127
58840,note_off,109,0,0,,8,,,44,127
58841,note_on,1,0,0,,12,,,47,127
58950,note_off,109,0,0,,12,,,47,127
58951,note_on,1,0,0,,4,,,52,127
59060,note_off,109,0,0,,4,,,52,127
59061,note_on,1,0,0,,8,,,56,127
59170,note_off,109,0,0,,8,,,56,127
59171,note_on,1,0,0,,4,,,52,127
59280,note_off,109,0,0,,4,,,52,127
59281,note_on,1,0,0,,12,,,47,127
59390,note_off,109,0,0,,12,,,47,127
59391,note_on,1,0,0,,8,,,44,127
59499,note_off,108,0,0,,4,,,64,127
59500,note_off,1,0,0,,8,,,44,127
59501,note_on,1,0,0,,12,,,47,127
59610,note_off,109,0,0,,12,,,47,127
59611,note_on,1,0,0,,4,,,52,127
59720,note_off,109,0,0,,4,,,52,127
59721,note_on,1,0,0,,8,,,56,127
59830,note_off,109,0,0,,8,,,56,127
59831,note_on,1,0,0,,4,,,64,127
60159,note_off,328,0,0,,4,,,64,127
60160,note_on,1,0,0,,4,,,40,127
60160,note_on,0,0,0,,12,,,71,127
60269,note_off,109,0,0,,12,,,71,127
60270,note_on,1,0,0,,1,,,73,127
60379,note_off,109,0,0,,1,,,73,127
60380,note_on,1,0,0,,3,,,75,127
60489,note_off,109,0,0,,3,,,75,127
60489,note_off,0,0,0,,4,,,40,127
60490,note_on,1,0,0,,10,,,45,127
60490,note_on,0,0,0,,1,,,73,127
60599,note_off,109,0,0,,1,,,73,127
60600,note_on,1,0,0,,3,,,75,127
60709,note_off,109,0,0,,3,,,75,127
60710,note_on,1,0,0,,4,,,76,127
60819,note_off,109,0,0,,4,,,76,127
60819,note_off,0,0,0,,10,,,45,127
60820,note_on,1,0,0,,12,,,47,127
60820,note_on,0,0,0,,3,,,75,127
60929,note_off,109,0,0,,3,,,75,127
60930,note_on,1,0,0,,4,,,76,127
61039,note_off,109,0,0,,4,,,76,127
61040,note_on,1,0,0,,6,,,78,127
61149,note_off,109,0,0,,6,,,78,127
61149,note_off,0,0,0,,12,,,47,127
61150,note_on,1,0,0,,4,,,52,127
61150,note_on,0,0,0,,4,,,76,127
61259,note_off,109,0,0,,4,,,52,127
61260,note_on,1,0,0,,12,,,47,127
61369,note_off,109,0,0,,12,,,47,127
61370,note_on,1,0,0,,8,,,44,127
61479,note_off,109,0,0,,8,,,44,127
61480,note_on,1,0,0,,12,,,47,127
61589,note_off,109,0,0,,12,,,47,127
61590,note_on,1,0,0,,4,,,52,127
61699,note_off,109,0,0,,4,,,52,127
61700,note_on,1,0,0,,8,,,56,127
61809,note_off,109,0,0,,8,,,56,127
61810,note_on,1,0,0,,4,,,52,127
61919,note_off,109,0,0,,4,,,52,127
61920,note_on,1,0,0,,12,,,47,127
62029,note_off,109,0,0,,12,,,47,127
62030,note_on,1,0,0,,8,,,44,127
62139,note_off,109,0,0,,8,,,44,127
62140,note_on,1,0,0,,12,,,47,127
62249,note_off,109,0,0,,12,,,47,127
62250,note_on,1,0,0,,4,,,52,127
62359,note_off,109,0,0,,4,,,52,127
62360,note_on,1,0,0,,8,,,56,127
62465,note_off,105,0,0,,4,,,76,127
62469,note_off,4,0,0,,8,,,56,127
62470,note_on,1,0,0,,4,,,64,127
62798,note_off,328,0,0,,4,,,64,127
62799,note_on,1,0,0,,4,,,40,127
62799,note_on,0,0,0,,12,,,71,127
62908,note_off,109,0,0,,12,,,71,127
62909,note_on,1,0,0,,1,,,73,127
63018,note_off,109,0,0,,1,,,73,127
63019,note_on,1,0,0,,3,,,75,127
63128,note_off,109,0,0,,3,,,75,127
63128,note_off,0,0,0,,4,,,40,127
63129,note_on,1,0,0,,10,,,45,127
63129,note_on,0,0,0,,1,,,73,127
63238,note_off,109,0,0,,1,,,73,127
63239,note_on,1,0,0,,3,,,75,127
63348,note_off,109,0,0,,3,,,75,127
63349,note_on,1,0,0,,4,,,76,127
63458,note_off,109,0,0,,4,,,76,127
63458,note_off,0,0,0,,10,,,45,127
63459,note_on,1,0,0,,12,,,47,127
63459,note_on,0,0,0,,3,,,75,127
63568,note_off,109,0,0,,3,,,75,127
63569,note_on,1,0,0,,4,,,76,127
63678,note_off,109,0,0,,4,,,76,127
63682,note_on,4,0,0,,6,,,78,127
63796,note_off,114,0,0,,12,,,47,127
63802,note_off,6,0,0,,6,,,78,127
63802,note_on,0,0,0,,4,,,76,127
63802,note_on,0,0,0,,4,,,40,127
63912,note_on,110,0,0,,12,,,71,127
64021,note_off,109,0,0,,12,,,71,127
64022,note_on,1,0,0,,8,,,68,127
64043,note_off,21,0,0,,4,,,76,127
64131,note_off,88,0,0,,8,,,68,127
64131,note_off,0,0,0,,4,,,40,127
64132,note_on,1,0,0,,4,,,64,127
64132,note_on,0,0,0,,8,,,44,127
64241,note_off,109,0,0,,4,,,64,127
64242,note_on,1,0,0,,8,,,68,127
64351,note_off,109,0,0,,8,,,68,127
64352,note_on,1,0,0,,12,,,71,127
64461,note_off,109,0,0,,12,,,71,127
64461,note_off,0,0,0,,8,,,44,127
64462,note_on,1,0,0,,1,,,73,127
64462,note_on,0,0,0,,10,,,45,127
64572,note_on,110,0,0,,10,,,69,127
64681,note_off,109,0,0,,10,,,69,127
64682,note_on,1,0,0,,4,,,64,127
64703,note_off,21,0,0,,1,,,73,127
64791,note_off,88,0,0,,4,,,64,127
64791,note_off,0,0,0,,10,,,45,127
64792,note_on,1,0,0,,1,,,61,127
64792,note_on,0,0,0,,10,,,33,127
64901,note_off,109,0,0,,1,,,61,127
64902,note_on,1,0,0,,4,,,64,127
65011,note_off,109,0,0,,4,,,64,127
65012,note_on,1,0,0,,1,,,73,127
65121,note_off,109,0,0,,1,,,73,127
65121,note_off,0,0,0,,10,,,33,127
65122,note_on,1,0,0,,12,,,71,127
65122,note_on,0,0,0,,8,,,44,127
65231,note_off,109,0,0,,12,,,71,127
65232,note_on,1,0,0,,10,,,69,127
65341,note_off,109,0,0,,10,,,69,127
65342,note_on,1,0,0,,8,,,68,127
65451,note_off,109,0,0,,8,,,68,127
65451,note_off,0,0,0,,8,,,44,127
65452,note_on,1,0,0,,6,,,66,127
65452,note_on,0,0,0,,10,,,45,127
65561,note_off,109,0,0,,6,,,66,127
65562,note_on,1,0,0,,8,,,68,127
65671,note_off,109,0,0,,8,,,68,127
65672,note_on,1,0,0,,10,,,69,127
65781,note_off,109,0,0,,10,,,69,127
65781,note_off,0,0,0,,10,,,45,127
65782,note_on,1,0,0,,4,,,64,127
65782,note_on,0,0,0,,12,,,47,127
65891,note_off,109,0,0,,4,,,64,127
65892,note_on,1,0,0,,10,,,69,127
66001,note_off,109,0,0,,10,,,69,127
66002,note_on,1,0,0,,12,,,71,127
66111,note_off,109,0,0,,12,,,71,127
66111,note_off,0,0,0,,12,,,47,127
66112,note_on,1,0,0,,4,,,64,127
66112,note_on,0,0,0,,12,,,35,127
66221,note_off,109,0,0,,4,,,64,127
66222,note_on,1,0,0,,6,,,66,127
66331,note_off,109,0,0,,6,,,66,127
66332,note_on,1,0,0,,3,,,63,127
66441,note_off,109,0,0,,3,,,63,127
66441,note_off,0,0,0,,12,,,35,127
66442,note_on,1,0,0,,3,,,63,127
66442,note_on,0,0,0,,4,,,40,127
66797,note_on,355,0,0,,4,,,64,127
66810,note_off,13,0,0,,3,,,63,127
67514,note_off,704,0,0,,4,,,40,127
67543,note_off,29,0,0,,4,,,64,127
67924,note_on,381,0,0,,0,,,72,127
67924,note_on,0,0,0,,7,,,43,127
67924,note_on,0,0,0,,0,,,48,127
67924,note_on,0,0,0,,0,,,36,127
68033,note_off,109,0,0,,0,,,72,127
68034,note_on,1,0,0,,7,,,67,127
68143,note_off,109,0,0,,7,,,67,127
68144,note_on,1,0,0,,4,,,64,127
68253,note_off,109,0,0,,4,,,64,127
68254,note_on,1,0,0,,0,,,60,127
68363,note_off,109,0,0,,0,,,60,127
68364,note_on,1,0,0,,4,,,64,127
68473,note_off,109,0,0,,4,,,64,127
68474,note_on,1,0,0,,7,,,67,127
68583,note_off,109,0,0,,7,,,67,127
68583,note_off,0,0,0,,0,,,36,127
68583,note_off,0,0,0,,0,,,48,127
68583,note_off,0,0,0,,7,,,43,127
68584,note_on,1,0,0,,4,,,76,127
68584,note_on,0,0,0,,0,,,48,127
68584,note_on,0,0,0,,7,,,43,127
68584,note_on,0,0,0,,0,,,36,127
68693,note_off,109,0,0,,4,,,76,127
68694,note_on,1,0,0,,0,,,72,127
68803,note_off,109,0,0,,0,,,72,127
68804,note_on,1,0,0,,7,,,67,127
68913,note_off,109,0,0,,7,,,67,127
68914,note_on,1,0,0,,4,,,64,127
69023,note_off,109,0,0,,4,,,64,127
69024,note_on,1,0,0,,7,,,67,127
69133,note_off,109,0,0,,7,,,67,127
69134,note_on,1,0,0,,0,,,72,127
69243,note_off,109,0,0,,0,,,72,127
69243,note_off,0,0,0,,0,,,36,127
69243,note_off,0,0,0,,7,,,43,127
69243,note_off,0,0,0,,0,,,48,127
69244,note_on,1,0,0,,7,,,79,127
69244,note_on,0,0,0,,7,,,43,127
69244,note_on,0,0,0,,0,,,48,127
69244,note_on,0,0,0,,0,,,36,127
69353,note_off,109,0,0,,7,,,79,127
69354,note_on,1,0,0,,4,,,76,127
69463,note_off,109,0,0,,4,,,76,127
69464,note_on,1,0,0,,0,,,72,127
69573,note_off,109,0,0,,0,,,72,127
69574,note_on,1,0,0,,7,,,67,127
69683,note_off,109,0,0,,7,,,67,127
69684,note_on,1,0,0,,0,,,72,127
69793,note_off,109,0,0,,0,,,72,127
69794,note_on,1,0,0,,4,,,76,127
69903,note_off,109,0,0,,4,,,76,127
69903,note_off,0,0,0,,0,,,36,127
69903,note_off,0,0,0,,0,,,48,127
69903,note_off,0,0,0,,7,,,43,127
69904,note_on,1,0,0,,7,,,79,127
69904,note_on,0,0,0,,0,,,84,127
69904,note_on,0,0,0,,4,,,76,127
69904,note_on,0,0,0,,0,,,72,127
69904,note_on,0,0,0,,0,,,48,127
69904,note_on,0,0,0,,7,,,43,127
69904,note_on,0,0,0,,0,,,36,127
70264,note_off,360,0,0,,0,,,36,127
70264,note_off,0,0,0,,7,,,43,127
70264,note_off,0,0,0,,0,,,48,127
70274,note_on,10,0,0,,4,,,52,127
70274,note_on,0,0,0,,0,,,60,127
70383,note_off,109,0,0,,0,,,60,127
70384,note_on,1,0,0,,12,,,59,127
70493,note_off,109,0,0,,12,,,59,127
70494,note_on,1,0,0,,0,,,60,127
70562,note_off,68,0,0,,0,,,72,127
70562,note_off,0,0,0,,4,,,76,127
70562,note_off,0,0,0,,0,,,84,127
70562,note_off,0,0,0,,7,,,79,127
70601,note_off,39,0,0,,4,,,52,127
70604,note_off,3,0,0,,0,,,60,127
70605,note_on,1,0,0,,5,,,53,127
70605,note_on,0,0,0,,2,,,62,127
70714,note_off,109,0,0,,2,,,62,127
70715,note_on,1,0,0,,0,,,60,127
70824,note_off,109,0,0,,0,,,60,127
70825,note_on,1,0,0,,2,,,62,127
70931,note_off,106,0,0,,5,,,53,127
70934,note_off,3,0,0,,2,,,62,127
70935,note_on,1,0,0,,4,,,64,127
70935,note_on,0,0,0,,7,,,55,127
71044,note_off,109,0,0,,4,,,64,127
71045,note_on,1,0,0,,2,,,62,127
71154,note_off,109,0,0,,2,,,62,127
71155,note_on,1,0,0,,4,,,64,127
71261,note_off,106,0,0,,7,,,55,127
71264,note_off,3,0,0,,4,,,64,127
71265,note_on,1,0,0,,5,,,65,127
71265,note_on,0,0,0,,10,,,57,127
71374,note_off,109,0,0,,5,,,65,127
71375,note_on,1,0,0,,4,,,64,127
71484,note_off,109,0,0,,4,,,64,127
71485,note_on,1,0,0,,5,,,65,127
71591,note_off,106,0,0,,10,,,57,127
71594,note_off,3,0,0,,5,,,65,127
71595,note_on,1,0,0,,7,,,67,127
71595,note_on,0,0,0,,12,,,59,127
71704,note_off,109,0,0,,7,,,67,127
71705,note_on,1,0,0,,5,,,65,127
71814,note_off,109,0,0,,5,,,65,127
71815,note_on,1,0,0,,7,,,67,127
71921,note_off,106,0,0,,12,,,59,127
71924,note_off,3,0,0,,7,,,67,127
71925,note_on,1,0,0,,10,,,69,127
71925,note_on,0,0,0,,0,,,60,127
72034,note_off,109,0,0,,10,,,69,127
72035,note_on,1,0,0,,7,,,67,127
72144,note_off,109,0,0,,7,,,67,127
72145,note_on,1,0,0,,10,,,69,127
72251,note_off,106,0,0,,0,,,60,127
72254,note_off,3,0,0,,10,,,69,127
72255,note_on,1,0,0,,12,,,71,127
72255,note_on,0,0,0,,2,,,62,127
72364,note_off,109,0,0,,12,,,71,127
72365,note_on,1,0,0,,10,,,69,127
72474,note_off,109,0,0,,10,,,69,127
72475,note_on,1,0,0,,12,,,71,127
72581,note_off,106,0,0,,2,,,62,127
72584,note_off,3,0,0,,12,,,71,127
72585,note_on,1,0,0,,0,,,72,127
72585,note_on,0,0,0,,4,,,64,127
72942,note_on,357,0,0,,0,,,84,127
73078,note_off,136,0,0,,4,,,64,127
73078,note_off,0,0,0,,0,,,72,127
73270,note_off,192,0,0,,0,,,84,127
73271,note_on,1,0,0,,0,,,84,127
73271,note_on,0,0,0,,6,,,66,127
73271,note_on,0,0,0,,0,,,72,127
73380,note_off,109,0,0,,0,,,84,127
73381,note_on,1,0,0,,11,,,82,127
73490,note_off,109,0,0,,11,,,82,127
73491,note_on,1,0,0,,10,,,81,127
73600,note_off,109,0,0,,10,,,81,127
73601,note_on,1,0,0,,10,,,81,127
73710,note_off,109,0,0,,10,,,81,127
73711,note_on,1,0,0,,7,,,79,127
73820,note_off,109,0,0,,7,,,79,127
73821,note_on,1,0,0,,6,,,78,127
73930,note_off,109,0,0,,6,,,78,127
73930,note_off,0,0,0,,0,,,72,127
73930,note_off,0,0,0,,6,,,66,127
73931,note_on,1,0,0,,6,,,78,127
73931,note_on,0,0,0,,0,,,72,127
73931,note_on,0,0,0,,6,,,66,127
73931,note_on,0,0,0,,10,,,69,127
73931,note_on,0,0,0,,2,,,62,127
74040,note_off,109,0,0,,6,,,78,127
74041,note_on,1,0,0,,7,,,79,127
74150,note_off,109,0,0,,7,,,79,127
74151,note_on,1,0,0,,10,,,81,127
74260,note_off,109,0,0,,10,,,81,127
74261,note_on,1,0,0,,10,,,81,127
74370,note_off,109,0,0,,10,,,81,127
74371,note_on,1,0,0,,11,,,82,127
74480,note_off,109,0,0,,11,,,82,127
74481,note_on,1,0,0,,0,,,84,127
74590,note_off,109,0,0,,0,,,84,127
74590,note_off,0,0,0,,2,,,62,127
74590,note_off,0,0,0,,10,,,69,127
74590,note_off,0,0,0,,6,,,66,127
74590,note_off,0,0,0,,0,,,72,127
74591,note_on,1,0,0,,0,,,84,127
74591,note_on,0,0,0,,7,,,67,127
74672,note_off,81,0,0,,0,,,84,127
74673,note_on,1,0,0,,11,,,82,127
74754,note_off,81,0,0,,11,,,82,127
74755,note_on,1,0,0,,0,,,84,127
74836,note_off,81,0,0,,0,,,84,127
74837,note_on,1,0,0,,11,,,82,127
74918,note_off,81,0,0,,11,,,82,127
74919,note_on,1,0,0,,0,,,84,127
75000,note_off,81,0,0,,0,,,84,127
75001,note_on,1,0,0,,11,,,82,127
75082,note_off,81,0,0,,11,,,82,127
75083,note_on,1,0,0,,10,,,81,127
75247,note_off,164,0,0,,10,,,81,127
75247,note_off,0,0,0,,7,,,67,127
75248,note_on,1,0,0,,7,,,79,127
75248,note_on,0,0,0,,7,,,55,127
75495,note_off,247,0,0,,7,,,79,127
75571,note_off,76,0,0,,7,,,55,127
75598,note_on,27,0,0,,5,,,53,127
75598,note_on,0,0,0,,2,,,62,127
75707,note_off,109,0,0,,2,,,62,127
75708,note_on,1,0,0,,1,,,61,127
75817,note_off,109,0,0,,1,,,61,127
75818,note_on,1,0,0,,2,,,62,127
75924,note_off,106,0,0,,5,,,53,127
75927,note_off,3,0,0,,2,,,62,127
75928,note_on,1,0,0,,7,,,55,127
75928,note_on,0,0,0,,4,,,64,127
76037,note_off,109,0,0,,4,,,64,127
76038,note_on,1,0,0,,2,,,62,127
76147,note_off,109,0,0,,2,,,62,127
76148,note_on,1,0,0,,4,,,64,127
76254,note_off,106,0,0,,7,,,55,127
76257,note_off,3,0,0,,4,,,64,127
76258,note_on,1,0,0,,10,,,57,127
76258,note_on,0,0,0,,5,,,65,127
76367,note_off,109,0,0,,5,,,65,127
76368,note_on,1,0,0,,4,,,64,127
76477,note_off,109,0,0,,4,,,64,127
76478,note_on,1,0,0,,5,,,65,127
76584,note_off,106,0,0,,10,,,57,127
76587,note_off,3,0,0,,5,,,65,127
76588,note_on,1,0,0,,12,,,59,127
76588,note_on,0,0,0,,7,,,67,127
76697,note_off,109,0,0,,7,,,67,127
76698,note_on,1,0,0,,5,,,65,127
76807,note_off,109,0,0,,5,,,65,127
76808,note_on,1,0,0,,7,,,67,127
76914,note_off,106,0,0,,12,,,59,127
76917,note_off,3,0,0,,7,,,67,127
76918,note_on,1,0,0,,1,,,61,127
76918,note_on,0,0,0,,10,,,69,127
77027,note_off,109,0,0,,10,,,69,127
77028,note_on,1,0,0,,7,,,67,127
77137,note_off,109,0,0,,7,,,67,127
77138,note_on,1,0,0,,10,,,69,127
77244,note_off,106,0,0,,1,,,61,127
77247,note_off,3,0,0,,10,,,69,127
77248,note_on,1,0,0,,11,,,70,127
77248,note_on,0,0,0,,2,,,62,127
77357,note_off,109,0,0,,11,,,70,127
77358,note_on,1,0,0,,10,,,69,127
77467,note_off,109,0,0,,10,,,69,127
77468,note_on,1,0,0,,11,,,70,127
77574,note_off,106,0,0,,2,,,62,127
77577,note_off,3,0,0,,11,,,70,127
77578,note_on,1,0,0,,4,,,64,127
77578,note_on,0,0,0,,1,,,73,127
77687,note_off,109,0,0,,1,,,73,127
77688,note_on,1,0,0,,12,,,71,127
77797,note_off,109,0,0,,12,,,71,127
77798,note_on,1,0,0,,1,,,73,127
77904,note_off,106,0,0,,4,,,64,127
77907,note_off,3,0,0,,1,,,73,127
77908,note_on,1,0,0,,5,,,65,127
77908,note_on,0,0,0,,2,,,74,127
78237,note_on,329,0,0,,2,,,86,127
78565,note_off,328,0,0,,2,,,86,127
78565,note_off,0,0,0,,2,,,74,127
78565,note_off,0,0,0,,5,,,65,127
78566,note_on,1,0,0,,10,,,69,127
78566,note_on,0,0,0,,12,,,71,127
78566,note_on,0,0,0,,2,,,74,127
78566,note_on,0,0,0,,4,,,64,127
78566,note_on,0,0,0,,2,,,86,127
78675,note_off,109,0,0,,2,,,86,127
78676,note_on,1,0,0,,0,,,84,127
78785,note_off,109,0,0,,0,,,84,127
78786,note_on,1,0,0,,12,,,83,127
78895,note_off,109,0,0,,12,,,83,127
78896,note_on,1,0,0,,12,,,83,127
79005,note_off,109,0,0,,12,,,83,127
79006,note_on,1,0,0,,10,,,81,127
79115,note_off,109,0,0,,10,,,81,127
79116,note_on,1,0,0,,8,,,80,127
79225,note_off,109,0,0,,8,,,80,127
79225,note_off,0,0,0,,4,,,64,127
79225,note_off,0,0,0,,2,,,74,127
79225,note_off,0,0,0,,12,,,71,127
79225,note_off,0,0,0,,10,,,69,127
79226,note_on,1,0,0,,4,,,64,127
79226,note_on,0,0,0,,10,,,69,127
79226,note_on,0,0,0,,2,,,74,127
79226,note_on,0,0,0,,12,,,71,127
79226,note_on,0,0,0,,8,,,80,127
79335,note_off,109,0,0,,8,,,80,127
79336,note_on,1,0,0,,10,,,81,127
79445,note_off,109,0,0,,10,,,81,127
79446,note_on,1,0,0,,12,,,83,127
79555,note_off,109,0,0,,12,,,83,127
79556,note_on,1,0,0,,12,,,83,127
79665,note_off,109,0,0,,12,,,83,127
79666,note_on,1,0,0,,10,,,81,127
79775,note_off,109,0,0,,10,,,81,127
79776,note_on,1,0,0,,8,,,80,127
79885,note_off,109,0,0,,8,,,80,127
79885,note_off,0,0,0,,12,,,71,127
79885,note_off,0,0,0,,2,,,74,127
79885,note_off,0,0,0,,10,,,69,127
79885,note_off,0,0,0,,4,,,64,127
79886,note_on,1,0,0,,10,,,69,127
79886,note_on,0,0,0,,10,,,81,127
79995,note_off,109,0,0,,10,,,69,127
79996,note_on,1,0,0,,4,,,64,127
80105,note_off,109,0,0,,4,,,64,127
80106,note_on,1,0,0,,1,,,61,127
80215,note_off,109,0,0,,1,,,61,127
80216,note_on,1,0,0,,10,,,57,127
80325,note_off,109,0,0,,10,,,57,127
80326,note_on,1,0,0,,4,,,52,127
80435,note_off,109,0,0,,4,,,52,127
80436,note_on,1,0,0,,1,,,49,127
80545,note_off,109,0,0,,1,,,49,127
80546,note_on,1,0,0,,10,,,33,127
80711,note_off,165,0,0,,10,,,81,127
80872,note_off,161,0,0,,10,,,33,127
80910,note_on,38,0,0,,7,,,79,127
80910,note_on,0,0,0,,10,,,81,127
81019,note_off,109,0,0,,10,,,81,127
81019,note_off,0,0,0,,7,,,79,127
81020,note_on,1,0,0,,6,,,78,127
81129,note_off,109,0,0,,6,,,78,127
81130,note_on,1,0,0,,4,,,76,127
81239,note_off,109,0,0,,4,,,76,127
81240,note_on,1,0,0,,10,,,69,127
81240,note_on,0,0,0,,4,,,76,127
81349,note_off,109,0,0,,10,,,69,127
81350,note_on,1,0,0,,6,,,66,127
81459,note_off,109,0,0,,6,,,66,127
81460,note_on,1,0,0,,2,,,62,127
81569,note_off,109,0,0,,2,,,62,127
81569,note_off,0,0,0,,4,,,76,127
81570,note_on,1,0,0,,10,,,57,127
81570,note_on,0,0,0,,6,,,78,127
81570,note_on,0,0,0,,2,,,74,127
81679,note_off,109,0,0,,10,,,57,127
81680,note_on,1,0,0,,6,,,54,127
81789,note_off,109,0,0,,6,,,54,127
81790,note_on,1,0,0,,2,,,50,127
81899,note_off,109,0,0,,2,,,50,127
81900,note_on,1,0,0,,10,,,33,127
82228,note_off,328,0,0,,2,,,74,127
82228,note_off,0,0,0,,6,,,78,127
82243,note_on,15,0,0,,10,,,81,127
82243,note_on,0,0,0,,12,,,83,127
82352,note_off,109,0,0,,12,,,83,127
82352,note_off,0,0,0,,10,,,81,127
82353,note_on,1,0,0,,7,,,79,127
82393,note_off,40,0,0,,10,,,33,127
82462,note_off,69,0,0,,7,,,79,127
82463,note_on,1,0,0,,6,,,78,127
82572,note_off,109,0,0,,6,,,78,127
82573,note_on,1,0,0,,6,,,78,127
82573,note_on,0,0,0,,2,,,74,127
82573,note_on,0,0,0,,10,,,69,127
82682,note_off,109,0,0,,10,,,69,127
82683,note_on,1,0,0,,4,,,64,127
82792,note_off,109,0,0,,4,,,64,127
82793,note_on,1,0,0,,1,,,61,127
82902,note_off,109,0,0,,1,,,61,127
82902,note_off,0,0,0,,2,,,74,127
82902,note_off,0,0,0,,6,,,78,127
82903,note_on,1,0,0,,1,,,73,127
82903,note_on,0,0,0,,4,,,76,127
82903,note_on,0,0,0,,10,,,57,127
83012,note_off,109,0,0,,10,,,57,127
83013,note_on,1,0,0,,4,,,52,127
83122,note_off,109,0,0,,4,,,52,127
83123,note_on,1,0,0,,1,,,49,127
83232,note_off,109,0,0,,1,,,49,127
83233,note_on,1,0,0,,10,,,33,127
83561,note_off,328,0,0,,4,,,76,127
83561,note_off,0,0,0,,1,,,73,127
83576,note_on,15,0,0,,10,,,81,127
83576,note_on,0,0,0,,7,,,79,127
83685,note_off,109,0,0,,7,,,79,127
83685,note_off,0,0,0,,10,,,81,127
83686,note_on,1,0,0,,6,,,78,127
83726,note_off,40,0,0,,10,,,33,127
83795,note_off,69,0,0,,6,,,78,127
83796,note_on,1,0,0,,4,,,76,127
83905,note_off,109,0,0,,4,,,76,127
83906,note_on,1,0,0,,10,,,69,127
83906,note_on,0,0,0,,4,,,76,127
84015,note_off,109,0,0,,10,,,69,127
84016,note_on,1,0,0,,6,,,66,127
84125,note_off,109,0,0,,6,,,66,127
84126,note_on,1,0,0,,2,,,62,127
84235,note_off,109,0,0,,2,,,62,127
84235,note_off,0,0,0,,4,,,76,127
84236,note_on,1,0,0,,10,,,57,127
84236,note_on,0,0,0,,6,,,78,127
84236,note_on,0,0,0,,2,,,74,127
84345,note_off,109,0,0,,10,,,57,127
84346,note_on,1,0,0,,6,,,54,127
84455,note_off,109,0,0,,6,,,54,127
84456,note_on,1,0,0,,2,,,50,127
84565,note_off,109,0,0,,2,,,50,127
84566,note_on,1,0,0,,10,,,33,127
84894,note_off,328,0,0,,2,,,74,127
84894,note_off,0,0,0,,6,,,78,127
84909,note_on,15,0,0,,12,,,83,127
84909,note_on,0,0,0,,10,,,81,127
85018,note_off,109,0,0,,10,,,81,127
85018,note_off,0,0,0,,12,,,83,127
85019,note_on,1,0,0,,7,,,79,127
85059,note_off,40,0,0,,10,,,33,127
85128,note_off,69,0,0,,7,,,79,127
85129,note_on,1,0,0,,6,,,78,127
85238,note_off,109,0,0,,6,,,78,127
85239,note_on,1,0,0,,2,,,74,127
85239,note_on,0,0,0,,6,,,78,127
85239,note_on,0,0,0,,10,,,69,127
85348,note_off,109,0,0,,10,,,69,127
85349,note_on,1,0,0,,4,,,64,127
85458,note_off,109,0,0,,4,,,64,127
85459,note_on,1,0,0,,1,,,61,127
85568,note_off,109,0,0,,1,,,61,127
85568,note_off,0,0,0,,6,,,78,127
85568,note_off,0,0,0,,2,,,74,127
85569,note_on,1,0,0,,1,,,73,127
85569,note_on,0,0,0,,4,,,76,127
85569,note_on,0,0,0,,10,,,57,127
85678,note_off,109,0,0,,10,,,57,127
85679,note_on,1,0,0,,4,,,52,127
85788,note_off,109,0,0,,4,,,52,127
85789,note_on,1,0,0,,1,,,49,127
85898,note_off,109,0,0,,1,,,49,127
85899,note_on,1,0,0,,10,,,33,127
86148,note_off,249,0,0,,4,,,76,127
86148,note_off,0,0,0,,1,,,73,127
86310,note_off,162,0,0,,10,,,33,127
86310,note_on,0,0,0,,10,,,81,127
86638,note_off,328,0,0,,10,,,81,127
86639,note_on,1,0,0,,10,,,81,127
86721,note_on,82,0,0,,5,,,77,127
86968,note_on,247,0,0,,10,,,69,127
86968,note_on,0,0,0,,2,,,62,127
86968,note_on,0,0,0,,5,,,65,127
87296,note_off,328,0,0,,5,,,65,127
87296,note_off,0,0,0,,2,,,62,127
87296,note_off,0,0,0,,10,,,69,127
87297,note_on,1,0,0,,10,,,69,127
87297,note_on,0,0,0,,2,,,62,127
87297,note_on,0,0,0,,5,,,65,127
87624,note_off,327,0,0,,10,,,81,127
87625,note_off,1,0,0,,5,,,65,127
87625,note_off,0,0,0,,2,,,62,127
87625,note_off,0,0,0,,10,,,69,127
87625,note_off,0,0,0,,5,,,77,127
87626,note_on,1,0,0,,10,,,81,127
87626,note_on,0,0,0,,10,,,69,127
87626,note_on,0,0,0,,2,,,62,127
87626,note_on,0,0,0,,5,,,65,127
87954,note_off,328,0,0,,10,,,81,127
87955,note_on,1,0,0,,10,,,81,127
88037,note_off,82,0,0,,5,,,65,127
88037,note_off,0,0,0,,2,,,62,127
88037,note_off,0,0,0,,10,,,69,127
88037,note_on,0,0,0,,4,,,76,127
88284,note_on,247,0,0,,10,,,69,127
88284,note_on,0,0,0,,0,,,60,127
88284,note_on,0,0,0,,4,,,64,127
88612,note_off,328,0,0,,4,,,64,127
88612,note_off,0,0,0,,0,,,60,127
88612,note_off,0,0,0,,10,,,69,127
88613,note_on,1,0,0,,10,,,69,127
88613,note_on,0,0,0,,0,,,60,127
88613,note_on,0,0,0,,4,,,64,127
88940,note_off,327,0,0,,10,,,81,127
88941,note_off,1,0,0,,4,,,64,127
88941,note_off,0,0,0,,0,,,60,127
88941,note_off,0,0,0,,10,,,69,127
88941,note_off,0,0,0,,4,,,76,127
88942,note_on,1,0,0,,10,,,81,127
88942,note_on,0,0,0,,10,,,69,127
88942,note_on,0,0,0,,4,,,64,127
88942,note_on,0,0,0,,0,,,60,127
89270,note_off,328,0,0,,10,,,81,127
89271,note_on,1,0,0,,10,,,81,127
89353,note_off,82,0,0,,0,,,60,127
89353,note_off,0,0,0,,4,,,64,127
89353,note_off,0,0,0,,10,,,69,127
89353,note_on,0,0,0,,2,,,74,127
89600,note_on,247,0,0,,2,,,62,127
89600,note_on,0,0,0,,5,,,53,127
89600,note_on,0,0,0,,10,,,57,127
89928,note_off,328,0,0,,10,,,57,127
89928,note_off,0,0,0,,5,,,53,127
89928,note_off,0,0,0,,2,,,62,127
89929,note_on,1,0,0,,10,,,57,127
89929,note_on,0,0,0,,2,,,62,127
89929,note_on,0,0,0,,5,,,53,127
90256,note_off,327,0,0,,10,,,81,127
90257,note_off,1,0,0,,5,,,53,127
90257,note_off,0,0,0,,2,,,62,127
90257,note_off,0,0,0,,10,,,57,127
90257,note_off,0,0,0,,2,,,74,127
90258,note_on,1,0,0,,10,,,81,127
90258,note_on,0,0,0,,2,,,62,127
90258,note_on,0,0,0,,5,,,53,127
90258,note_on,0,0,0,,10,,,57,127
90586,note_off,328,0,0,,10,,,81,127
90587,note_on,1,0,0,,10,,,81,127
90669,note_off,82,0,0,,10,,,57,127
90669,note_off,0,0,0,,5,,,53,127
90669,note_off,0,0,0,,2,,,62,127
90669,note_on,0,0,0,,4,,,76,127
90916,note_on,247,0,0,,10,,,57,127
90916,note_on,0,0,0,,0,,,48,127
90916,note_on,0,0,0,,4,,,52,127
91244,note_off,328,0,0,,4,,,52,127
91244,note_off,0,0,0,,0,,,48,127
91244,note_off,0,0,0,,10,,,57,127
91245,note_on,1,0,0,,10,,,57,127
91245,note_on,0,0,0,,0,,,48,127
91245,note_on,0,0,0,,4,,,52,127
91572,note_off,327,0,0,,10,,,81,127
91573,note_off,1,0,0,,4,,,52,127
91573,note_off,0,0,0,,0,,,48,127
91573,note_off,0,0,0,,10,,,57,127
91573,note_off,0,0,0,,4,,,76,127
91574,note_on,1,0,0,,0,,,84,127
91574,note_on,0,0,0,,10,,,57,127
91574,note_on,0,0,0,,0,,,48,127
91574,note_on,0,0,0,,4,,,52,127
91900,note_off,326,0,0,,4,,,52,127
91900,note_off,0,0,0,,0,,,48,127
91900,note_off,0,0,0,,10,,,57,127
91903,note_off,3,0,0,,0,,,84,127
91904,note_on,1,0,0,,5,,,77,127
91904,note_on,0,0,0,,12,,,83,127
91985,note_off,81,0,0,,12,,,83,127
91986,note_on,1,0,0,,10,,,81,127
92232,note_off,246,0,0,,10,,,81,127
92233,note_on,1,0,0,,0,,,84,127
92233,note_on,0,0,0,,2,,,62,127
92233,note_on,0,0,0,,10,,,57,127
92233,note_on,0,0,0,,2,,,50,127
92561,note_off,328,0,0,,0,,,84,127
92561,note_off,0,0,0,,5,,,77,127
92562,note_on,1,0,0,,4,,,76,127
92562,note_on,0,0,0,,12,,,83,127
92643,note_off,81,0,0,,12,,,83,127
92644,note_off,1,0,0,,2,,,50,127
92644,note_off,0,0,0,,10,,,57,127
92644,note_off,0,0,0,,2,,,62,127
92644,note_on,0,0,0,,10,,,81,127
92890,note_off,246,0,0,,10,,,81,127
92891,note_on,1,0,0,,0,,,84,127
92891,note_on,0,0,0,,0,,,60,127
92891,note_on,0,0,0,,10,,,57,127
92891,note_on,0,0,0,,4,,,52,127
93219,note_off,328,0,0,,0,,,84,127
93219,note_off,0,0,0,,4,,,76,127
93220,note_on,1,0,0,,5,,,77,127
93220,note_on,0,0,0,,12,,,83,127
93301,note_off,81,0,0,,12,,,83,127
93302,note_off,1,0,0,,4,,,52,127
93302,note_off,0,0,0,,10,,,57,127
93302,note_off,0,0,0,,0,,,60,127
93302,note_on,0,0,0,,10,,,81,127
93548,note_off,246,0,0,,10,,,81,127
93549,note_on,1,0,0,,0,,,84,127
93549,note_on,0,0,0,,10,,,57,127
93549,note_on,0,0,0,,2,,,62,127
93549,note_on,0,0,0,,5,,,53,127
93877,note_off,328,0,0,,0,,,84,127
93877,note_off,0,0,0,,5,,,77,127
93878,note_on,1,0,0,,4,,,76,127
93878,note_on,0,0,0,,12,,,83,127
93959,note_off,81,0,0,,12,,,83,127
93960,note_off,1,0,0,,5,,,53,127
93960,note_off,0,0,0,,2,,,62,127
93960,note_off,0,0,0,,10,,,57,127
93960,note_on,0,0,0,,10,,,81,127
94206,note_off,246,0,0,,10,,,81,127
94207,note_on,1,0,0,,0,,,84,127
94207,note_on,0,0,0,,10,,,57,127
94207,note_on,0,0,0,,0,,,48,127
94207,note_on,0,0,0,,4,,,52,127
94535,note_off,328,0,0,,4,,,52,127
94535,note_off,0,0,0,,0,,,48,127
94535,note_off,0,0,0,,10,,,57,127
94535,note_off,0,0,0,,0,,,84,127
94535,note_off,0,0,0,,4,,,76,127
94536,note_on,1,0,0,,5,,,77,127
94536,note_on,0,0,0,,0,,,84,127
94536,note_on,0,0,0,,2,,,62,127
94536,note_on,0,0,0,,2,,,50,127
94617,note_off,81,0,0,,0,,,84,127
94618,note_on,1,0,0,,12,,,83,127
94864,note_off,246,0,0,,12,,,83,127
94864,note_off,0,0,0,,2,,,50,127
94865,note_on,1,0,0,,2,,,86,127
94865,note_on,0,0,0,,4,,,52,127
94946,note_off,81,0,0,,2,,,86,127
94947,note_on,1,0,0,,0,,,84,127
95193,note_off,246,0,0,,0,,,84,127
95193,note_off,0,0,0,,4,,,52,127
95193,note_off,0,0,0,,5,,,77,127
95194,note_on,1,0,0,,12,,,83,127
95194,note_on,0,0,0,,5,,,53,127
95275,note_off,81,0,0,,12,,,83,127
95276,note_on,1,0,0,,10,,,81,127
95521,note_off,245,0,0,,2,,,62,127
95522,note_off,1,0,0,,10,,,81,127
95523,note_on,1,0,0,,8,,,80,127
95523,note_on,0,0,0,,2,,,62,127
95604,note_off,81,0,0,,8,,,80,127
95605,note_on,1,0,0,,10,,,81,127
95851,note_off,246,0,0,,10,,,81,127
95851,note_off,0,0,0,,2,,,62,127
95851,note_off,0,0,0,,5,,,53,127
95852,note_on,1,0,0,,10,,,81,127
95852,note_on,0,0,0,,4,,,40,127
96214,note_on,362,0,0,,4,,,52,127
96307,note_on,93,0,0,,8,,,80,127
96310,note_off,3,0,0,,10,,,81,127
96433,note_on,123,0,0,,6,,,78,127
96436,note_off,3,0,0,,8,,,80,127
96582,note_on,146,0,0,,4,,,76,127
96583,note_off,1,0,0,,6,,,78,127
96795,note_off,212,0,0,,4,,,40,127
96871,note_off,76,0,0,,4,,,52,127
97028,note_off,157,0,0,,4,,,76,127
97278,note_on,250,0,0,,4,,,76,127
97278,note_on,0,0,0,,2,,,74,127
97387,note_off,109,0,0,,2,,,74,127
97387,note_off,0,0,0,,4,,,76,127
97388,note_on,1,0,0,,1,,,73,127
97497,note_off,109,0,0,,1,,,73,127
97498,note_on,1,0,0,,2,,,74,127
97607,note_off,109,0,0,,2,,,74,127
97608,note_on,1,0,0,,1,,,73,127
97608,note_on,0,0,0,,10,,,69,127
97717,note_off,109,0,0,,10,,,69,127
97718,note_on,1,0,0,,4,,,64,127
97827,note_off,109,0,0,,4,,,64,127
97828,note_on,1,0,0,,1,,,61,127
97937,note_off,109,0,0,,1,,,61,127
97937,note_off,0,0,0,,1,,,73,127
97938,note_on,1,0,0,,10,,,81,127
97938,note_on,0,0,0,,10,,,57,127
98047,note_off,109,0,0,,10,,,57,127
98048,note_on,1,0,0,,4,,,52,127
98157,note_off,109,0,0,,4,,,52,127
98158,note_on,1,0,0,,1,,,49,127
98267,note_off,109,0,0,,1,,,49,127
98268,note_on,1,0,0,,10,,,33,127
98596,note_off,328,0,0,,10,,,81,127
98597,note_on,1,0,0,,6,,,78,127
98678,note_off,81,0,0,,6,,,78,127
98679,note_on,1,0,0,,4,,,76,127
98760,note_off,81,0,0,,4,,,76,127
98760,note_off,0,0,0,,10,,,33,127
98761,note_on,1,0,0,,2,,,74,127
98842,note_off,81,0,0,,2,,,74,127
98843,note_on,1,0,0,,4,,,76,127
98924,note_off,81,0,0,,4,,,76,127
98925,note_on,1,0,0,,6,,,78,127
98925,note_on,0,0,0,,2,,,74,127
99034,note_off,109,0,0,,2,,,74,127
99035,note_on,1,0,0,,10,,,69,127
99144,note_off,109,0,0,,10,,,69,127
99145,note_on,1,0,0,,6,,,66,127
99254,note_off,109,0,0,,6,,,66,127
99254,note_off,0,0,0,,6,,,78,127
99255,note_on,1,0,0,,2,,,86,127
99255,note_on,0,0,0,,2,,,62,127
99364,note_off,109,0,0,,2,,,62,127
99365,note_on,1,0,0,,10,,,57,127
99474,note_off,109,0,0,,10,,,57,127
99475,note_on,1,0,0,,6,,,54,127
99584,note_off,109,0,0,,6,,,54,127
99585,note_on,1,0,0,,2,,,38,127
99911,note_off,326,0,0,,2,,,38,127
99914,note_off,3,0,0,,2,,,86,127
99915,note_on,1,0,0,,8,,,80,127
99996,note_off,81,0,0,,8,,,80,127
99997,note_on,1,0,0,,6,,,78,127
100078,note_off,81,0,0,,6,,,78,127
100079,note_on,1,0,0,,4,,,76,127
100160,note_off,81,0,0,,4,,,76,127
100161,note_on,1,0,0,,6,,,78,127
100242,note_off,81,0,0,,6,,,78,127
100243,note_on,1,0,0,,4,,,76,127
100243,note_on,0,0,0,,1,,,73,127
100352,note_off,109,0,0,,1,,,73,127
100353,note_on,1,0,0,,10,,,69,127
100462,note_off,109,0,0,,10,,,69,127
100463,note_on,1,0,0,,4,,,64,127
100572,note_off,109,0,0,,4,,,64,127
100572,note_off,0,0,0,,4,,,76,127
100573,note_on,1,0,0,,1,,,85,127
100573,note_on,0,0,0,,1,,,61,127
100682,note_off,109,0,0,,1,,,61,127
100683,note_on,1,0,0,,10,,,57,127
100792,note_off,109,0,0,,10,,,57,127
100793,note_on,1,0,0,,4,,,52,127
100902,note_off,109,0,0,,4,,,52,127
100903,note_on,1,0,0,,1,,,37,127
101229,note_off,326,0,0,,1,,,37,127
101232,note_off,3,0,0,,1,,,85,127
101233,note_on,1,0,0,,6,,,78,127
101314,note_off,81,0,0,,6,,,78,127
101315,note_on,1,0,0,,4,,,76,127
101396,note_off,81,0,0,,4,,,76,127
101397,note_on,1,0,0,,2,,,74,127
101478,note_off,81,0,0,,2,,,74,127
101479,note_on,1,0,0,,4,,,76,127
101560,note_off,81,0,0,,4,,,76,127
101561,note_on,1,0,0,,2,,,74,127
101561,note_on,0,0,0,,12,,,71,127
101670,note_off,109,0,0,,12,,,71,127
101671,note_on,1,0,0,,8,,,68,127
101780,note_off,109,0,0,,8,,,68,127
101781,note_on,1,0,0,,4,,,64,127
101890,note_off,109,0,0,,4,,,64,127
101890,note_off,0,0,0,,2,,,74,127
101891,note_on,1,0,0,,12,,,83,127
101891,note_on,0,0,0,,12,,,59,127
102000,note_off,109,0,0,,12,,,59,127
102001,note_on,1,0,0,,8,,,56,127
102110,note_off,109,0,0,,8,,,56,127
102111,note_on,1,0,0,,4,,,52,127
102220,note_off,109,0,0,,4,,,52,127
102221,note_on,1,0,0,,12,,,35,127
102547,note_off,326,0,0,,12,,,35,127
102550,note_off,3,0,0,,12,,,83,127
102551,note_on,1,0,0,,4,,,76,127
102632,note_off,81,0,0,,4,,,76,127
102633,note_on,1,0,0,,2,,,74,127
102714,note_off,81,0,0,,2,,,74,127
102715,note_on,1,0,0,,1,,,73,127
102796,note_off,81,0,0,,1,,,73,127
102797,note_on,1,0,0,,2,,,74,127
102878,note_off,81,0,0,,2,,,74,127
102879,note_on,1,0,0,,1,,,73,127
102879,note_on,0,0,0,,10,,,69,127
102988,note_off,109,0,0,,10,,,69,127
102989,note_on,1,0,0,,4,,,64,127
103098,note_off,109,0,0,,4,,,64,127
103099,note_on,1,0,0,,1,,,61,127
103208,note_off,109,0,0,,1,,,61,127
103208,note_off,0,0,0,,1,,,73,127
103209,note_on,1,0,0,,10,,,81,127
103209,note_on,0,0,0,,10,,,57,127
103318,note_off,109,0,0,,10,,,57,127
103319,note_on,1,0,0,,4,,,52,127
103428,note_off,109,0,0,,4,,,52,127
103429,note_on,1,0,0,,1,,,49,127
103538,note_off,109,0,0,,1,,,49,127
103539,note_on,1,0,0,,10,,,33,127
103867,note_off,328,0,0,,10,,,81,127
103868,note_on,1,0,0,,10,,,81,127
104032,note_off,164,0,0,,10,,,33,127
104197,note_off,165,0,0,,10,,,81,127
104198,note_on,1,0,0,,8,,,80,127
104198,note_on,0,0,0,,6,,,78,127
104198,note_on,0,0,0,,2,,,38,127
104307,note_off,109,0,0,,6,,,78,127
104307,note_off,0,0,0,,8,,,80,127
104308,note_on,1,0,0,,4,,,76,127
104417,note_off,109,0,0,,4,,,76,127
104418,note_on,1,0,0,,2,,,74,127
104527,note_off,109,0,0,,2,,,74,127
104528,note_on,1,0,0,,1,,,73,127
104637,note_off,109,0,0,,1,,,73,127
104638,note_on,1,0,0,,2,,,74,127
104747,note_off,109,0,0,,2,,,74,127
104748,note_on,1,0,0,,4,,,76,127
104857,note_off,109,0,0,,4,,,76,127
104857,note_off,0,0,0,,2,,,38,127
104858,note_on,1,0,0,,10,,,69,127
104858,note_on,0,0,0,,4,,,40,127
105186,note_off,328,0,0,,4,,,40,127
105186,note_off,0,0,0,,10,,,69,127
105187,note_on,1,0,0,,10,,,69,127
105187,note_on,0,0,0,,4,,,52,127
105268,note_off,81,0,0,,10,,,69,127
105269,note_on,1,0,0,,8,,,68,127
105350,note_off,81,0,0,,8,,,68,127
105351,note_on,1,0,0,,6,,,66,127
105432,note_off,81,0,0,,6,,,66,127
105433,note_on,1,0,0,,8,,,68,127
105514,note_off,81,0,0,,8,,,68,127
105514,note_off,0,0,0,,4,,,52,127
105515,note_on,1,0,0,,10,,,69,127
105625,note_on,110,0,0,,4,,,64,127
105734,note_off,109,0,0,,4,,,64,127
105735,note_on,1,0,0,,1,,,61,127
105844,note_off,109,0,0,,1,,,61,127
105845,note_on,1,0,0,,10,,,57,127
105954,note_off,109,0,0,,10,,,57,127
105955,note_on,1,0,0,,4,,,52,127
106064,note_off,109,0,0,,4,,,52,127
106065,note_on,1,0,0,,1,,,49,127
106174,note_off,109,0,0,,1,,,49,127
106175,note_on,1,0,0,,10,,,33,127
106503,note_off,328,0,0,,10,,,69,127
106524,note_on,21,0,0,,6,,,78,127
106605,note_off,81,0,0,,6,,,78,127
106606,note_on,1,0,0,,4,,,76,127
106667,note_off,61,0,0,,10,,,33,127
106688,note_off,21,0,0,,4,,,76,127
106689,note_on,1,0,0,,2,,,74,127
106770,note_off,81,0,0,,2,,,74,127
106771,note_on,1,0,0,,4,,,76,127
106852,note_off,81,0,0,,4,,,76,127
106853,note_on,1,0,0,,2,,,74,127
106853,note_on,0,0,0,,6,,,78,127
106962,note_off,109,0,0,,2,,,74,127
106963,note_on,1,0,0,,10,,,69,127
107072,note_off,109,0,0,,10,,,69,127
107073,note_on,1,0,0,,6,,,66,127
107182,note_off,109,0,0,,6,,,66,127
107182,note_off,0,0,0,,6,,,78,127
107183,note_on,1,0,0,,2,,,62,127
107183,note_on,0,0,0,,2,,,86,127
107292,note_off,109,0,0,,2,,,62,127
107293,note_on,1,0,0,,10,,,57,127
107402,note_off,109,0,0,,10,,,57,127
107403,note_on,1,0,0,,6,,,54,127
107512,note_off,109,0,0,,6,,,54,127
107513,note_on,1,0,0,,2,,,38,127
107622,note_off,109,0,0,,2,,,86,127
107623,note_on,1,0,0,,1,,,85,127
107732,note_off,109,0,0,,1,,,85,127
107733,note_on,1,0,0,,12,,,83,127
107842,note_off,109,0,0,,12,,,83,127
107843,note_on,1,0,0,,10,,,81,127
107952,note_off,109,0,0,,10,,,81,127
107953,note_on,1,0,0,,8,,,80,127
108007,note_off,54,0,0,,2,,,38,127
108062,note_off,55,0,0,,8,,,80,127
108063,note_on,1,0,0,,6,,,78,127
108172,note_off,109,0,0,,6,,,78,127
108173,note_on,1,0,0,,1,,,73,127
108173,note_on,0,0,0,,4,,,76,127
108282,note_off,109,0,0,,1,,,73,127
108283,note_on,1,0,0,,10,,,69,127
108392,note_off,109,0,0,,10,,,69,127
108393,note_on,1,0,0,,4,,,64,127
108502,note_off,109,0,0,,4,,,64,127
108502,note_off,0,0,0,,4,,,76,127
108503,note_on,1,0,0,,1,,,61,127
108503,note_on,0,0,0,,1,,,85,127
108612,note_off,109,0,0,,1,,,61,127
108613,note_on,1,0,0,,10,,,57,127
108722,note_off,109,0,0,,10,,,57,127
108723,note_on,1,0,0,,4,,,52,127
108832,note_off,109,0,0,,4,,,52,127
108833,note_on,1,0,0,,1,,,37,127
108942,note_off,109,0,0,,1,,,85,127
108943,note_on,1,0,0,,12,,,83,127
109052,note_off,109,0,0,,12,,,83,127
109053,note_on,1,0,0,,10,,,81,127
109162,note_off,109,0,0,,10,,,81,127
109163,note_on,1,0,0,,8,,,80,127
109272,note_off,109,0,0,,8,,,80,127
109273,note_on,1,0,0,,6,,,78,127
109327,note_off,54,0,0,,1,,,37,127
109382,note_off,55,0,0,,6,,,78,127
109383,note_on,1,0,0,,4,,,76,127
109492,note_off,109,0,0,,4,,,76,127
109493,note_on,1,0,0,,12,,,71,127
109493,note_on,0,0,0,,2,,,74,127
109602,note_off,109,0,0,,12,,,71,127
109603,note_on,1,0,0,,8,,,68,127
109712,note_off,109,0,0,,8,,,68,127
109713,note_on,1,0,0,,4,,,64,127
109822,note_off,109,0,0,,4,,,64,127
109822,note_off,0,0,0,,2,,,74,127
109823,note_on,1,0,0,,12,,,59,127
109823,note_on,0,0,0,,12,,,83,127
109932,note_off,109,0,0,,12,,,59,127
109933,note_on,1,0,0,,8,,,56,127
110042,note_off,109,0,0,,8,,,56,127
110043,note_on,1,0,0,,4,,,52,127
110152,note_off,109,0,0,,4,,,52,127
110153,note_on,1,0,0,,12,,,35,127
110262,note_off,109,0,0,,12,,,83,127
110263,note_on,1,0,0,,10,,,81,127
110372,note_off,109,0,0,,10,,,81,127
110373,note_on,1,0,0,,8,,,80,127
110482,note_off,109,0,0,,8,,,80,127
110483,note_on,1,0,0,,6,,,78,127
110592,note_off,109,0,0,,6,,,78,127
110593,note_on,1,0,0,,4,,,76,127
110647,note_off,54,0,0,,12,,,35,127
110702,note_off,55,0,0,,4,,,76,127
110703,note_on,1,0,0,,2,,,74,127
110812,note_off,109,0,0,,2,,,74,127
110813,note_on,1,0,0,,10,,,69,127
110813,note_on,0,0,0,,1,,,73,127
110922,note_off,109,0,0,,10,,,69,127
110923,note_on,1,0,0,,4,,,64,127
111032,note_off,109,0,0,,4,,,64,127
111033,note_on,1,0,0,,1,,,61,127
111142,note_off,109,0,0,,1,,,61,127
111142,note_off,0,0,0,,1,,,73,127
111143,note_on,1,0,0,,10,,,57,127
111143,note_on,0,0,0,,10,,,81,127
111252,note_off,109,0,0,,10,,,57,127
111253,note_on,1,0,0,,4,,,52,127
111362,note_off,109,0,0,,4,,,52,127
111363,note_on,1,0,0,,1,,,49,127
111472,note_off,109,0,0,,1,,,49,127
111473,note_on,1,0,0,,10,,,33,127
111582,note_off,109,0,0,,10,,,81,127
111583,note_on,1,0,0,,8,,,80,127
111692,note_off,109,0,0,,8,,,80,127
111693,note_on,1,0,0,,6,,,78,127
111802,note_off,109,0,0,,6,,,78,127
111803,note_on,1,0,0,,4,,,76,127
111912,note_off,109,0,0,,4,,,76,127
111913,note_on,1,0,0,,2,,,74,127
111967,note_off,54,0,0,,10,,,33,127
112022,note_off,55,0,0,,2,,,74,127
112023,note_on,1,0,0,,1,,,73,127
112132,note_off,109,0,0,,1,,,73,127
112133,note_on,1,0,0,,2,,,38,127
112133,note_on,0,0,0,,6,,,78,127
112242,note_off,109,0,0,,6,,,78,127
112243,note_on,1,0,0,,8,,,80,127
112352,note_off,109,0,0,,8,,,80,127
112353,note_on,1,0,0,,10,,,81,127
112462,note_off,109,0,0,,10,,,81,127
112463,note_on,1,0,0,,1,,,73,127
112572,note_off,109,0,0,,1,,,73,127
112573,note_on,1,0,0,,2,,,74,127
112682,note_off,109,0,0,,2,,,74,127
112683,note_on,1,0,0,,4,,,76,127
112792,note_off,109,0,0,,4,,,76,127
112792,note_off,0,0,0,,2,,,38,127
112793,note_on,1,0,0,,4,,,40,127
112793,note_on,0,0,0,,10,,,69,127
113149,note_off,356,0,0,,10,,,69,127
113157,note_on,8,0,0,,1,,,73,127
113238,note_off,81,0,0,,1,,,73,127
113239,note_on,1,0,0,,12,,,71,127
113320,note_off,81,0,0,,12,,,71,127
113321,note_on,1,0,0,,10,,,69,127
113393,note_off,72,0,0,,4,,,40,127
113402,note_off,9,0,0,,10,,,69,127
113403,note_on,1,0,0,,12,,,71,127
113484,note_off,81,0,0,,12,,,71,127
113485,note_on,1,0,0,,10,,,33,127
113485,note_on,0,0,0,,1,,,73,127
113594,note_off,109,0,0,,1,,,73,127
113595,note_on,1,0,0,,10,,,69,127
113704,note_off,109,0,0,,10,,,69,127
113705,note_on,1,0,0,,4,,,64,127
113814,note_off,109,0,0,,4,,,64,127
113815,note_on,1,0,0,,1,,,61,127
113924,note_off,109,0,0,,1,,,61,127
113925,note_on,1,0,0,,4,,,64,127
114034,note_off,109,0,0,,4,,,64,127
114035,note_on,1,0,0,,10,,,69,127
114144,note_off,109,0,0,,10,,,69,127
114145,note_on,1,0,0,,4,,,76,127
114254,note_off,109,0,0,,4,,,76,127
114255,note_on,1,0,0,,1,,,73,127
114364,note_off,109,0,0,,1,,,73,127
114365,note_on,1,0,0,,10,,,69,127
114474,note_off,109,0,0,,10,,,69,127
114475,note_on,1,0,0,,4,,,64,127
114584,note_off,109,0,0,,4,,,64,127
114585,note_on,1,0,0,,10,,,69,127
114694,note_off,109,0,0,,10,,,69,127
114695,note_on,1,0,0,,1,,,73,127
114800,note_off,105,0,0,,10,,,33,127
114804,note_off,4,0,0,,1,,,73,127
114805,note_on,1,0,0,,10,,,81,127
115133,note_off,328,0,0,,10,,,81,127
115134,note_on,1,0,0,,1,,,37,127
115134,note_on,0,0,0,,10,,,57,127
115462,note_off,328,0,0,,10,,,57,127
115462,note_off,0,0,0,,1,,,37,127
115463,note_on,1,0,0,,2,,,38,127
115463,note_on,0,0,0,,1,,,61,127
115544,note_off,81,0,0,,1,,,61,127
115545,note_on,1,0,0,,12,,,59,127
115626,note_off,81,0,0,,12,,,59,127
115627,note_on,1,0,0,,1,,,61,127
115708,note_off,81,0,0,,1,,,61,127
115709,note_on,1,0,0,,12,,,59,127
115790,note_off,81,0,0,,12,,,59,127
115790,note_off,0,0,0,,2,,,38,127
115791,note_on,1,0,0,,4,,,40,127
115791,note_on,0,0,0,,1,,,61,127
115872,note_off,81,0,0,,1,,,61,127
115873,note_on,1,0,0,,12,,,59,127
115954,note_off,81,0,0,,12,,,59,127
115955,note_on,1,0,0,,10,,,57,127
116036,note_off,81,0,0,,10,,,57,127
116037,note_on,1,0,0,,12,,,59,127
116082,note_off,45,0,0,,4,,,40,127
116119,note_off,37,0,0,,12,,,59,127
116140,note_on,21,0,0,,1,,,73,127
116140,note_on,0,0,0,,10,,,33,127
116249,note_off,109,0,0,,1,,,73,127
116250,note_on,1,0,0,,10,,,69,127
116359,note_off,109,0,0,,10,,,69,127
116360,note_on,1,0,0,,4,,,64,127
116469,note_off,109,0,0,,4,,,64,127
116470,note_on,1,0,0,,1,,,61,127
116579,note_off,109,0,0,,1,,,61,127
116580,note_on,1,0,0,,4,,,64,127
116689,note_off,109,0,0,,4,,,64,127
116690,note_on,1,0,0,,10,,,69,127
116799,note_off,109,0,0,,10,,,69,127
116800,note_on,1,0,0,,4,,,76,127
116909,note_off,109,0,0,,4,,,76,127
116910,note_on,1,0,0,,1,,,73,127
117019,note_off,109,0,0,,1,,,73,127
117020,note_on,1,0,0,,10,,,69,127
117129,note_off,109,0,0,,10,,,69,127
117130,note_on,1,0,0,,4,,,64,127
117239,note_off,109,0,0,,4,,,64,127
117240,note_on,1,0,0,,10,,,69,127
117349,note_off,109,0,0,,10,,,69,127
117350,note_on,1,0,0,,1,,,73,127
117455,note_off,105,0,0,,10,,,33,127
117459,note_off,4,0,0,,1,,,73,127
117460,note_on,1,0,0,,10,,,81,127
117788,note_off,328,0,0,,10,,,81,127
117789,note_on,1,0,0,,10,,,57,127
117789,note_on,0,0,0,,1,,,37,127
118117,note_off,328,0,0,,1,,,37,127
118117,note_off,0,0,0,,10,,,57,127
118132,note_on,15,0,0,,2,,,38,127
118132,note_on,0,0,0,,1,,,61,127
118213,note_off,81,0,0,,1,,,61,127
118214,note_on,1,0,0,,12,,,59,127
118295,note_off,81,0,0,,12,,,59,127
118296,note_on,1,0,0,,1,,,61,127
118377,note_off,81,0,0,,1,,,61,127
118378,note_on,1,0,0,,12,,,59,127
118459,note_off,81,0,0,,12,,,59,127
118459,note_off,0,0,0,,2,,,38,127
118460,note_on,1,0,0,,4,,,40,127
118460,note_on,0,0,0,,1,,,61,127
118541,note_off,81,0,0,,1,,,61,127
118542,note_on,1,0,0,,12,,,59,127
118623,note_off,81,0,0,,12,,,59,127
118624,note_on,1,0,0,,10,,,57,127
118705,note_off,81,0,0,,10,,,57,127
118706,note_on,1,0,0,,12,,,59,127
118787,note_off,81,0,0,,12,,,59,127
118787,note_off,0,0,0,,4,,,40,127
118788,note_on,1,0,0,,10,,,57,127
118788,note_on,0,0,0,,1,,,61,127
118897,note_off,109,0,0,,10,,,57,127
118898,note_on,1,0,0,,4,,,52,127
119007,note_off,109,0,0,,4,,,52,127
119008,note_on,1,0,0,,1,,,49,127
119117,note_off,109,0,0,,1,,,49,127
119118,note_on,1,0,0,,4,,,52,127
119227,note_off,109,0,0,,4,,,52,127
119228,note_off,1,0,0,,1,,,61,127
119228,note_on,0,0,0,,10,,,57,127
119337,note_off,109,0,0,,10,,,57,127
119338,note_on,1,0,0,,1,,,61,127
119447,note_off,109,0,0,,1,,,61,127
119448,note_on,1,0,0,,10,,,57,127
119557,note_off,109,0,0,,10,,,57,127
119558,note_on,1,0,0,,4,,,52,127
119667,note_off,109,0,0,,4,,,52,127
119668,note_on,1,0,0,,1,,,49,127
119777,note_off,109,0,0,,1,,,49,127
119778,note_on,1,0,0,,4,,,52,127
119887,note_off,109,0,0,,4,,,52,127
119888,note_on,1,0,0,,10,,,57,127
119997,note_off,109,0,0,,10,,,57,127
119998,note_on,1,0,0,,1,,,61,127
120107,note_off,109,0,0,,1,,,61,127
120108,note_on,1,0,0,,10,,,69,127
120436,note_off,328,0,0,,10,,,69,127
120437,note_on,1,0,0,,1,,,37,127
120437,note_on,0,0,0,,1,,,73,127
120546,note_off,109,0,0,,1,,,73,127
120547,note_on,1,0,0,,2,,,74,127
120656,note_off,109,0,0,,2,,,74,127
120657,note_on,1,0,0,,4,,,76,127
120766,note_off,109,0,0,,4,,,76,127
120766,note_off,0,0,0,,1,,,37,127
120767,note_on,1,0,0,,2,,,38,127
120767,note_on,0,0,0,,1,,,73,127
120848,note_off,81,0,0,,1,,,73,127
120849,note_on,1,0,0,,12,,,71,127
120930,note_off,81,0,0,,12,,,71,127
120931,note_on,1,0,0,,1,,,73,127
121012,note_off,81,0,0,,1,,,73,127
121013,note_on,1,0,0,,12,,,71,127
121094,note_off,81,0,0,,12,,,71,127
121094,note_off,0,0,0,,2,,,38,127
121095,note_on,1,0,0,,4,,,40,127
121095,note_on,0,0,0,,1,,,73,127
121176,note_off,81,0,0,,1,,,73,127
121177,note_on,1,0,0,,12,,,71,127
121258,note_off,81,0,0,,12,,,71,127
121259,note_on,1,0,0,,10,,,69,127
121340,note_off,81,0,0,,10,,,69,127
121341,note_on,1,0,0,,12,,,71,127
121422,note_off,81,0,0,,12,,,71,127
121422,note_off,0,0,0,,4,,,40,127
121423,note_on,1,0,0,,10,,,57,127
121423,note_on,0,0,0,,10,,,69,127
121532,note_off,109,0,0,,10,,,57,127
121533,note_on,1,0,0,,4,,,52,127
121642,note_off,109,0,0,,4,,,52,127
121643,note_on,1,0,0,,1,,,49,127
121752,note_off,109,0,0,,1,,,49,127
121753,note_on,1,0,0,,4,,,52,127
121862,note_off,109,0,0,,4,,,52,127
121863,note_on,1,0,0,,10,,,57,127
121972,note_off,109,0,0,,10,,,57,127
121973,note_on,1,0,0,,1,,,61,127
122082,note_off,109,0,0,,1,,,61,127
122083,note_on,1,0,0,,10,,,57,127
122192,note_off,109,0,0,,10,,,57,127
122193,note_on,1,0,0,,4,,,52,127
122302,note_off,109,0,0,,4,,,52,127
122303,note_on,1,0,0,,1,,,49,127
122412,note_off,109,0,0,,1,,,49,127
122413,note_on,1,0,0,,4,,,52,127
122522,note_off,109,0,0,,4,,,52,127
122523,note_on,1,0,0,,10,,,57,127
122632,note_off,109,0,0,,10,,,57,127
122633,note_on,1,0,0,,1,,,61,127
122738,note_off,105,0,0,,10,,,69,127
122742,note_off,4,0,0,,1,,,61,127
122743,note_on,1,0,0,,10,,,69,127
123071,note_off,328,0,0,,10,,,69,127
123072,note_on,1,0,0,,10,,,33,127
123072,note_on,0,0,0,,1,,,73,127
123181,note_off,109,0,0,,1,,,73,127
123182,note_on,1,0,0,,2,,,74,127
123291,note_off,109,0,0,,2,,,74,127
123292,note_on,1,0,0,,4,,,76,127
123401,note_off,109,0,0,,4,,,76,127
123401,note_off,0,0,0,,10,,,33,127
123402,note_on,1,0,0,,2,,,38,127
123402,note_on,0,0,0,,1,,,73,127
123480,note_on,78,0,0,,12,,,71,127
123483,note_off,3,0,0,,1,,,73,127
123558,note_on,75,0,0,,1,,,73,127
123561,note_off,3,0,0,,12,,,71,127
123636,note_on,75,0,0,,12,,,71,127
123639,note_off,3,0,0,,1,,,73,127
123714,note_on,75,0,0,,1,,,73,127
123717,note_off,3,0,0,,12,,,71,127
123734,note_off,17,0,0,,2,,,38,127
123736,note_on,2,0,0,,4,,,40,127
123792,note_on,56,0,0,,12,,,71,127
123795,note_off,3,0,0,,1,,,73,127
123870,note_on,75,0,0,,10,,,69,127
123873,note_off,3,0,0,,12,,,71,127
123948,note_on,75,0,0,,12,,,71,127
123951,note_off,3,0,0,,10,,,69,127
124029,note_off,78,0,0,,12,,,71,127
124074,note_on,45,0,0,,4,,,76,127
124074,note_on,0,0,0,,10,,,81,127
124074,note_on,0,0,0,,1,,,73,127
124074,note_on,0,0,0,,10,,,69,127
124074,note_on,0,0,0,,10,,,45,127
124079,note_off,5,0,0,,4,,,40,127
124183,note_off,104,0,0,,4,,,76,127
124184,note_on,1,0,0,,4,,,76,127
124292,note_off,108,0,0,,1,,,73,127
124293,note_off,1,0,0,,4,,,76,127
124294,note_on,1,0,0,,1,,,73,127
124400,note_off,106,0,0,,10,,,69,127
124403,note_off,3,0,0,,1,,,73,127
124403,note_off,0,0,0,,10,,,45,127
124404,note_on,1,0,0,,10,,,69,127
124404,note_on,0,0,0,,1,,,49,127
124404,note_on,0,0,0,,1,,,37,127
124514,note_off,110,0,0,,10,,,81,127
124514,note_on,0,0,0,,1,,,73,127
124623,note_off,109,0,0,,1,,,73,127
124623,note_off,0,0,0,,10,,,69,127
124624,note_on,1,0,0,,4,,,76,127
124733,note_off,109,0,0,,4,,,76,127
124733,note_off,0,0,0,,1,,,37,127
124733,note_off,0,0,0,,1,,,49,127
124734,note_on,1,0,0,,6,,,78,127
124734,note_on,0,0,0,,2,,,50,127
124843,note_off,109,0,0,,6,,,78,127
124844,note_on,1,0,0,,2,,,74,127
124953,note_off,109,0,0,,2,,,74,127
124954,note_on,1,0,0,,10,,,69,127
125063,note_off,109,0,0,,10,,,69,127
125064,note_on,1,0,0,,6,,,66,127
125064,note_on,0,0,0,,2,,,38,127
125173,note_off,109,0,0,,6,,,66,127
125174,note_on,1,0,0,,10,,,69,127
125283,note_off,109,0,0,,10,,,69,127
125284,note_on,1,0,0,,6,,,78,127
125393,note_off,109,0,0,,6,,,78,127
125393,note_off,0,0,0,,2,,,38,127
125393,note_off,0,0,0,,2,,,50,127
125394,note_on,1,0,0,,4,,,76,127
125394,note_on,0,0,0,,1,,,49,127
125394,note_on,0,0,0,,1,,,37,127
125503,note_off,109,0,0,,4,,,76,127
125504,note_on,1,0,0,,2,,,74,127
125613,note_off,109,0,0,,2,,,74,127
125614,note_on,1,0,0,,1,,,73,127
125723,note_off,109,0,0,,1,,,73,127
125723,note_off,0,0,0,,1,,,37,127
125723,note_off,0,0,0,,1,,,49,127
125724,note_on,1,0,0,,12,,,71,127
125724,note_on,0,0,0,,2,,,38,127
125724,note_on,0,0,0,,2,,,50,127
125833,note_off,109,0,0,,12,,,71,127
125834,note_on,1,0,0,,1,,,73,127
125943,note_off,109,0,0,,1,,,73,127
125944,note_on,1,0,0,,2,,,74,127
126053,note_off,109,0,0,,2,,,74,127
126053,note_off,0,0,0,,2,,,50,127
126053,note_off,0,0,0,,2,,,38,127
126054,note_on,1,0,0,,1,,,73,127
126054,note_on,0,0,0,,4,,,52,127
126163,note_off,109,0,0,,1,,,73,127
126164,note_on,1,0,0,,2,,,74,127
126273,note_off,109,0,0,,2,,,74,127
126274,note_on,1,0,0,,4,,,76,127
126383,note_off,109,0,0,,4,,,76,127
126383,note_off,0,0,0,,4,,,52,127
126384,note_on,1,0,0,,10,,,69,127
126384,note_on,0,0,0,,4,,,40,127
126493,note_off,109,0,0,,10,,,69,127
126494,note_on,1,0,0,,12,,,71,127
126603,note_off,109,0,0,,12,,,71,127
126604,note_on,1,0,0,,8,,,68,127
126713,note_off,109,0,0,,8,,,68,127
126713,note_off,0,0,0,,4,,,40,127
126722,note_on,9,0,0,,10,,,33,127
126722,note_on,0,0,0,,8,,,68,127
127060,note_on,338,0,0,,10,,,69,127
127069,note_off,9,0,0,,8,,,68,127
128775,note_off,1706,0,0,,10,,,69,127
128780,note_off,5,0,0,,10,,,33,127
130560,end_of_track,1780,1,0,,,,,,
