tick,type,time,meta,track,program,channel,pitch,tempo,note,velocity
0,copyright,0,1,0,,,,,,
0,program_change,0,0,0,6,0,,,,
0,pitchwheel,0,0,0,,0,0,,,
0,program_change,0,0,0,6,1,,,,
0,pitchwheel,0,0,0,,1,-590,,,
0,program_change,0,0,0,6,2,,,,
0,pitchwheel,0,0,0,,2,-272,,,
0,program_change,0,0,0,6,3,,,,
0,pitchwheel,0,0,0,,3,-353,,,
0,program_change,0,0,0,6,4,,,,
0,pitchwheel,0,0,0,,4,-560,,,
0,program_change,0,0,0,6,5,,,,
0,pitchwheel,0,0,0,,5,-80,,,
0,program_change,0,0,0,6,6,,,,
0,pitchwheel,0,0,0,,6,-625,,,
0,program_change,0,0,0,6,7,,,,
0,pitchwheel,0,0,0,,7,-130,,,
0,program_change,0,0,0,6,8,,,,
0,pitchwheel,0,0,0,,8,-512,,,
0,program_change,0,0,0,6,10,,,,
0,pitchwheel,0,0,0,,10,-464,,,
0,program_change,0,0,0,6,11,,,,
0,pitchwheel,0,0,0,,11,-208,,,
0,program_change,0,0,0,6,12,,,,
0,pitchwheel,0,0,0,,12,-553,,,
0,set_tempo,0,1,0,,,,500000,,
105,note_on,105,0,0,,1,,,61,127
105,note_on,0,0,0,,4,,,64,127
313,note_off,208,0,0,,1,,,61,127
314,note_on,1,0,0,,10,,,57,127
519,note_off,205,0,0,,4,,,64,127
522,note_off,3,0,0,,10,,,57,127
523,note_on,1,0,0,,2,,,62,127
523,note_on,0,0,0,,4,,,52,127
698,note_off,175,0,0,,2,,,62,127
732,note_off,34,0,0,,4,,,52,127
733,note_on,1,0,0,,1,,,61,127
733,note_on,0,0,0,,10,,,57,127
941,note_off,208,0,0,,10,,,57,127
942,note_on,1,0,0,,4,,,52,127
1147,note_off,205,0,0,,1,,,61,127
1150,note_off,3,0,0,,4,,,52,127
1151,note_on,1,0,0,,12,,,59,127
1151,note_on,0,0,0,,2,,,50,127
1326,note_off,175,0,0,,12,,,59,127
1360,note_off,34,0,0,,2,,,50,127
1361,note_on,1,0,0,,1,,,49,127
1361,note_on,0,0,0,,10,,,57,127
1569,note_off,208,0,0,,10,,,57,127
1569,note_off,0,0,0,,1,,,49,127
1570,note_on,1,0,0,,12,,,59,127
1570,note_on,0,0,0,,2,,,50,127
1778,note_off,208,0,0,,2,,,50,127
1778,note_off,0,0,0,,12,,,59,127
1779,note_on,1,0,0,,1,,,61,127
1779,note_on,0,0,0,,4,,,52,127
1987,note_off,208,0,0,,4,,,52,127
1987,note_off,0,0,0,,1,,,61,127
1988,note_on,1,0,0,,2,,,62,127
1988,note_on,0,0,0,,6,,,54,127
2196,note_off,208,0,0,,6,,,54,127
2196,note_off,0,0,0,,2,,,62,127
2197,note_on,1,0,0,,8,,,56,127
2197,note_on,0,0,0,,4,,,64,127
2405,note_off,208,0,0,,4,,,64,127
2405,note_off,0,0,0,,8,,,56,127
2406,note_on,1,0,0,,2,,,62,127
2406,note_on,0,0,0,,4,,,52,127
2614,note_off,208,0,0,,4,,,52,127
2614,note_off,0,0,0,,2,,,62,127
2615,note_on,1,0,0,,10,,,57,127
2615,note_on,0,0,0,,10,,,45,127
2615,note_on,0,0,0,,1,,,73,127
2615,note_on,0,0,0,,4,,,76,127
2823,note_off,208,0,0,,1,,,73,127
2824,note_on,1,0,0,,10,,,69,127
3029,note_off,205,0,0,,4,,,76,127
3032,note_off,3,0,0,,10,,,69,127
3033,note_on,1,0,0,,2,,,74,127
3033,note_on,0,0,0,,4,,,64,127
3208,note_off,175,0,0,,2,,,74,127
3242,note_off,34,0,0,,4,,,64,127
3242,note_off,0,0,0,,10,,,45,127
3242,note_off,0,0,0,,10,,,57,127
3243,note_on,1,0,0,,4,,,52,127
3243,note_on,0,0,0,,4,,,40,127
3243,note_on,0,0,0,,1,,,73,127
3243,note_on,0,0,0,,10,,,69,127
3451,note_off,208,0,0,,10,,,69,127
3452,note_on,1,0,0,,4,,,64,127
3657,note_off,205,0,0,,1,,,73,127
3660,note_off,3,0,0,,4,,,64,127
3661,note_on,1,0,0,,12,,,71,127
3661,note_on,0,0,0,,2,,,62,127
3836,note_off,175,0,0,,12,,,71,127
3870,note_off,34,0,0,,2,,,62,127
3870,note_off,0,0,0,,4,,,40,127
3870,note_off,0,0,0,,4,,,52,127
3871,note_on,1,0,0,,10,,,33,127
3871,note_on,0,0,0,,10,,,45,127
3871,note_on,0,0,0,,1,,,61,127
3871,note_on,0,0,0,,10,,,69,127
4079,note_off,208,0,0,,10,,,69,127
4079,note_off,0,0,0,,1,,,61,127
4080,note_on,1,0,0,,12,,,71,127
4080,note_on,0,0,0,,2,,,62,127
4288,note_off,208,0,0,,2,,,62,127
4288,note_off,0,0,0,,12,,,71,127
4289,note_on,1,0,0,,1,,,73,127
4289,note_on,0,0,0,,4,,,64,127
4497,note_off,208,0,0,,4,,,64,127
4497,note_off,0,0,0,,1,,,73,127
4497,note_off,0,0,0,,10,,,45,127
4497,note_off,0,0,0,,10,,,33,127
4498,note_on,1,0,0,,2,,,50,127
4498,note_on,0,0,0,,2,,,38,127
4498,note_on,0,0,0,,2,,,74,127
4498,note_on,0,0,0,,6,,,66,127
4706,note_off,208,0,0,,6,,,66,127
4706,note_off,0,0,0,,2,,,74,127
4707,note_on,1,0,0,,4,,,76,127
4707,note_on,0,0,0,,8,,,68,127
4915,note_off,208,0,0,,8,,,68,127
4915,note_off,0,0,0,,4,,,76,127
4915,note_off,0,0,0,,2,,,38,127
4915,note_off,0,0,0,,2,,,50,127
4916,note_on,1,0,0,,4,,,52,127
4916,note_on,0,0,0,,4,,,40,127
4916,note_on,0,0,0,,4,,,64,127
4916,note_on,0,0,0,,2,,,74,127
5124,note_off,208,0,0,,2,,,74,127
5124,note_off,0,0,0,,4,,,64,127
5124,note_off,0,0,0,,4,,,40,127
5124,note_off,0,0,0,,4,,,52,127
5125,note_on,1,0,0,,10,,,33,127
5125,note_on,0,0,0,,10,,,45,127
5125,note_on,0,0,0,,1,,,73,127
5230,note_on,105,0,0,,10,,,69,127
5245,note_off,15,0,0,,1,,,73,127
5333,note_off,88,0,0,,10,,,69,127
5334,note_on,1,0,0,,4,,,64,127
5438,note_off,104,0,0,,4,,,64,127
5439,note_on,1,0,0,,10,,,69,127
5543,note_off,104,0,0,,10,,,69,127
5544,note_on,1,0,0,,1,,,73,127
5648,note_off,104,0,0,,1,,,73,127
5649,note_off,1,0,0,,10,,,45,127
5649,note_off,0,0,0,,10,,,33,127
5649,note_on,0,0,0,,4,,,76,127
5753,note_off,104,0,0,,4,,,76,127
5754,note_on,1,0,0,,2,,,74,127
5859,note_on,105,0,0,,12,,,71,127
5874,note_off,15,0,0,,2,,,74,127
5962,note_off,88,0,0,,12,,,71,127
5963,note_on,1,0,0,,8,,,68,127
6067,note_off,104,0,0,,8,,,68,127
6068,note_on,1,0,0,,4,,,64,127
6172,note_off,104,0,0,,4,,,64,127
6173,note_on,1,0,0,,12,,,71,127
6277,note_off,104,0,0,,12,,,71,127
6278,note_on,1,0,0,,2,,,74,127
6382,note_off,104,0,0,,2,,,74,127
6383,note_on,1,0,0,,4,,,64,127
6383,note_on,0,0,0,,1,,,73,127
6487,note_off,104,0,0,,4,,,64,127
6488,note_on,1,0,0,,1,,,61,127
6592,note_off,104,0,0,,1,,,61,127
6593,note_on,1,0,0,,10,,,57,127
6697,note_off,104,0,0,,10,,,57,127
6698,note_on,1,0,0,,4,,,52,127
6798,note_off,100,0,0,,1,,,73,127
6801,note_off,3,0,0,,4,,,52,127
6802,note_on,1,0,0,,10,,,57,127
6906,note_off,104,0,0,,10,,,57,127
6907,note_on,1,0,0,,1,,,61,127
7011,note_off,104,0,0,,1,,,61,127
7012,note_on,1,0,0,,2,,,62,127
7116,note_off,104,0,0,,2,,,62,127
7117,note_on,1,0,0,,12,,,59,127
7221,note_off,104,0,0,,12,,,59,127
7222,note_on,1,0,0,,8,,,56,127
7326,note_off,104,0,0,,8,,,56,127
7327,note_on,1,0,0,,4,,,52,127
7431,note_off,104,0,0,,4,,,52,127
7432,note_on,1,0,0,,12,,,59,127
7536,note_off,104,0,0,,12,,,59,127
7537,note_on,1,0,0,,2,,,62,127
7641,note_off,104,0,0,,2,,,62,127
7642,note_on,1,0,0,,1,,,61,127
7642,note_on,0,0,0,,1,,,73,127
7747,note_on,105,0,0,,10,,,69,127
7850,note_off,103,0,0,,1,,,73,127
7851,note_off,1,0,0,,10,,,69,127
7852,note_on,1,0,0,,4,,,64,127
7948,note_off,96,0,0,,1,,,61,127
7956,note_off,8,0,0,,4,,,64,127
7957,note_on,1,0,0,,1,,,61,127
8061,note_off,104,0,0,,1,,,61,127
8062,note_on,1,0,0,,4,,,64,127
8166,note_off,104,0,0,,4,,,64,127
8167,note_on,1,0,0,,1,,,73,127
8271,note_off,104,0,0,,1,,,73,127
8272,note_on,1,0,0,,12,,,71,127
8377,note_on,105,0,0,,8,,,68,127
8480,note_off,103,0,0,,12,,,71,127
8481,note_off,1,0,0,,8,,,68,127
8482,note_on,1,0,0,,2,,,62,127
8586,note_off,104,0,0,,2,,,62,127
8587,note_on,1,0,0,,12,,,59,127
8691,note_off,104,0,0,,12,,,59,127
8692,note_on,1,0,0,,8,,,68,127
8796,note_off,104,0,0,,8,,,68,127
8797,note_on,1,0,0,,12,,,71,127
8901,note_off,104,0,0,,12,,,71,127
8902,note_on,1,0,0,,1,,,61,127
8902,note_on,0,0,0,,10,,,69,127
9006,note_off,104,0,0,,1,,,61,127
9007,note_on,1,0,0,,10,,,57,127
9111,note_off,104,0,0,,10,,,57,127
9112,note_on,1,0,0,,4,,,52,127
9216,note_off,104,0,0,,4,,,52,127
9217,note_on,1,0,0,,1,,,49,127
9321,note_off,104,0,0,,1,,,49,127
9322,note_on,1,0,0,,10,,,57,127
9426,note_off,104,0,0,,10,,,57,127
9427,note_on,1,0,0,,1,,,61,127
9531,note_off,104,0,0,,1,,,61,127
9531,note_off,0,0,0,,10,,,69,127
9532,note_on,1,0,0,,12,,,59,127
9532,note_on,0,0,0,,8,,,68,127
9532,note_on,0,0,0,,2,,,74,127
9636,note_off,104,0,0,,12,,,59,127
9637,note_on,1,0,0,,8,,,56,127
9741,note_off,104,0,0,,8,,,56,127
9742,note_on,1,0,0,,2,,,50,127
9846,note_off,104,0,0,,2,,,50,127
9847,note_on,1,0,0,,12,,,47,127
9951,note_off,104,0,0,,12,,,47,127
9952,note_on,1,0,0,,8,,,56,127
10056,note_off,104,0,0,,8,,,56,127
10057,note_on,1,0,0,,12,,,59,127
10161,note_off,104,0,0,,12,,,59,127
10161,note_off,0,0,0,,2,,,74,127
10161,note_off,0,0,0,,8,,,68,127
10162,note_on,1,0,0,,10,,,57,127
10162,note_on,0,0,0,,10,,,45,127
10162,note_on,0,0,0,,1,,,73,127
10266,note_off,104,0,0,,1,,,73,127
10267,note_on,1,0,0,,10,,,69,127
10371,note_off,104,0,0,,10,,,69,127
10371,note_off,0,0,0,,10,,,45,127
10372,note_on,1,0,0,,12,,,47,127
10372,note_on,0,0,0,,12,,,71,127
10476,note_off,104,0,0,,12,,,71,127
10477,note_on,1,0,0,,1,,,73,127
10581,note_off,104,0,0,,1,,,73,127
10581,note_off,0,0,0,,12,,,47,127
10582,note_on,1,0,0,,1,,,49,127
10582,note_on,0,0,0,,2,,,74,127
10686,note_off,104,0,0,,2,,,74,127
10687,note_on,1,0,0,,4,,,76,127
10791,note_off,104,0,0,,4,,,76,127
10791,note_off,0,0,0,,1,,,49,127
10791,note_off,0,0,0,,10,,,57,127
10792,note_on,1,0,0,,2,,,50,127
10792,note_on,0,0,0,,8,,,80,127
10792,note_on,0,0,0,,6,,,78,127
10896,note_off,104,0,0,,6,,,78,127
10896,note_off,0,0,0,,8,,,80,127
10897,note_on,1,0,0,,4,,,76,127
11001,note_off,104,0,0,,4,,,76,127
11001,note_off,0,0,0,,2,,,50,127
11002,note_on,1,0,0,,4,,,52,127
11002,note_on,0,0,0,,2,,,74,127
11106,note_off,104,0,0,,2,,,74,127
11107,note_on,1,0,0,,1,,,73,127
11211,note_off,104,0,0,,1,,,73,127
11211,note_off,0,0,0,,4,,,52,127
11212,note_on,1,0,0,,6,,,54,127
11212,note_on,0,0,0,,12,,,71,127
11316,note_off,104,0,0,,12,,,71,127
11317,note_on,1,0,0,,10,,,69,127
11421,note_off,104,0,0,,10,,,69,127
11421,note_off,0,0,0,,6,,,54,127
11422,note_on,1,0,0,,4,,,52,127
11422,note_on,0,0,0,,8,,,68,127
11526,note_off,104,0,0,,8,,,68,127
11527,note_on,1,0,0,,6,,,66,127
11631,note_off,104,0,0,,6,,,66,127
11631,note_off,0,0,0,,4,,,52,127
11632,note_on,1,0,0,,6,,,54,127
11632,note_on,0,0,0,,4,,,64,127
11736,note_off,104,0,0,,4,,,64,127
11737,note_on,1,0,0,,2,,,62,127
11841,note_off,104,0,0,,2,,,62,127
11841,note_off,0,0,0,,6,,,54,127
11842,note_on,1,0,0,,8,,,56,127
11842,note_on,0,0,0,,1,,,61,127
11946,note_off,104,0,0,,1,,,61,127
11947,note_on,1,0,0,,12,,,59,127
12051,note_off,104,0,0,,12,,,59,127
12051,note_off,0,0,0,,8,,,56,127
12052,note_on,1,0,0,,10,,,57,127
12052,note_on,0,0,0,,1,,,61,127
12156,note_off,104,0,0,,1,,,61,127
12156,note_off,0,0,0,,10,,,57,127
12157,note_on,1,0,0,,6,,,54,127
12157,note_on,0,0,0,,6,,,66,127
12261,note_off,104,0,0,,6,,,66,127
12261,note_off,0,0,0,,6,,,54,127
12262,note_on,1,0,0,,12,,,59,127
12262,note_on,0,0,0,,2,,,62,127
12366,note_off,104,0,0,,2,,,62,127
12366,note_off,0,0,0,,12,,,59,127
12367,note_on,1,0,0,,8,,,56,127
12367,note_on,0,0,0,,8,,,68,127
12471,note_off,104,0,0,,8,,,68,127
12471,note_off,0,0,0,,8,,,56,127
12472,note_on,1,0,0,,1,,,61,127
12472,note_on,0,0,0,,4,,,64,127
12576,note_off,104,0,0,,4,,,64,127
12576,note_off,0,0,0,,1,,,61,127
12577,note_on,1,0,0,,10,,,57,127
12577,note_on,0,0,0,,10,,,69,127
12681,note_off,104,0,0,,10,,,69,127
12681,note_off,0,0,0,,10,,,57,127
12682,note_on,1,0,0,,3,,,63,127
12682,note_on,0,0,0,,6,,,66,127
12786,note_off,104,0,0,,6,,,66,127
12786,note_off,0,0,0,,3,,,63,127
12787,note_on,1,0,0,,12,,,59,127
12787,note_on,0,0,0,,12,,,71,127
12891,note_off,104,0,0,,12,,,71,127
12891,note_off,0,0,0,,12,,,59,127
12892,note_on,1,0,0,,4,,,64,127
12892,note_on,0,0,0,,8,,,68,127
12996,note_off,104,0,0,,8,,,68,127
12996,note_off,0,0,0,,4,,,64,127
12997,note_on,1,0,0,,1,,,61,127
12997,note_on,0,0,0,,1,,,73,127
13101,note_off,104,0,0,,1,,,73,127
13101,note_off,0,0,0,,1,,,61,127
13102,note_on,1,0,0,,6,,,66,127
13102,note_on,0,0,0,,10,,,69,127
13206,note_off,104,0,0,,10,,,69,127
13206,note_off,0,0,0,,6,,,66,127
13207,note_on,1,0,0,,2,,,62,127
13207,note_on,0,0,0,,2,,,74,127
13311,note_off,104,0,0,,2,,,74,127
13311,note_off,0,0,0,,2,,,62,127
13312,note_on,1,0,0,,8,,,68,127
13312,note_on,0,0,0,,12,,,71,127
13416,note_off,104,0,0,,12,,,71,127
13416,note_off,0,0,0,,8,,,68,127
13417,note_on,1,0,0,,4,,,64,127
13417,note_on,0,0,0,,4,,,76,127
13521,note_off,104,0,0,,4,,,76,127
13521,note_off,0,0,0,,4,,,64,127
13522,note_on,1,0,0,,10,,,69,127
13522,note_on,0,0,0,,1,,,73,127
13626,note_off,104,0,0,,1,,,73,127
13626,note_off,0,0,0,,10,,,69,127
13627,note_on,1,0,0,,6,,,66,127
13627,note_on,0,0,0,,6,,,78,127
13731,note_off,104,0,0,,6,,,78,127
13731,note_off,0,0,0,,6,,,66,127
13732,note_on,1,0,0,,12,,,71,127
13732,note_on,0,0,0,,2,,,74,127
13836,note_off,104,0,0,,2,,,74,127
13836,note_off,0,0,0,,12,,,71,127
13837,note_on,1,0,0,,8,,,68,127
13837,note_on,0,0,0,,8,,,80,127
13941,note_off,104,0,0,,8,,,80,127
13941,note_off,0,0,0,,8,,,68,127
13942,note_on,1,0,0,,1,,,73,127
13942,note_on,0,0,0,,4,,,76,127
14046,note_off,104,0,0,,4,,,76,127
14046,note_off,0,0,0,,1,,,73,127
14047,note_on,1,0,0,,10,,,69,127
14047,note_on,0,0,0,,10,,,81,127
14151,note_off,104,0,0,,10,,,81,127
14151,note_off,0,0,0,,10,,,69,127
14152,note_on,1,0,0,,3,,,75,127
14152,note_on,0,0,0,,6,,,78,127
14256,note_off,104,0,0,,6,,,78,127
14256,note_off,0,0,0,,3,,,75,127
14257,note_on,1,0,0,,12,,,71,127
14257,note_on,0,0,0,,12,,,83,127
14361,note_off,104,0,0,,12,,,83,127
14361,note_off,0,0,0,,12,,,71,127
14362,note_on,1,0,0,,12,,,59,127
14362,note_on,0,0,0,,10,,,81,127
14466,note_off,104,0,0,,10,,,81,127
14467,note_on,1,0,0,,6,,,78,127
14571,note_off,104,0,0,,6,,,78,127
14571,note_off,0,0,0,,12,,,59,127
14572,note_on,1,0,0,,4,,,64,127
14572,note_on,0,0,0,,8,,,80,127
14676,note_off,104,0,0,,8,,,80,127
14677,note_on,1,0,0,,6,,,78,127
14781,note_off,104,0,0,,6,,,78,127
14781,note_off,0,0,0,,4,,,64,127
14782,note_on,1,0,0,,6,,,66,127
14782,note_on,0,0,0,,4,,,76,127
14886,note_off,104,0,0,,4,,,76,127
14887,note_on,1,0,0,,2,,,74,127
14991,note_off,104,0,0,,2,,,74,127
14991,note_off,0,0,0,,6,,,66,127
14992,note_on,1,0,0,,8,,,68,127
14992,note_on,0,0,0,,1,,,73,127
15096,note_off,104,0,0,,1,,,73,127
15097,note_on,1,0,0,,12,,,71,127
15201,note_off,104,0,0,,12,,,71,127
15201,note_off,0,0,0,,8,,,68,127
15202,note_on,1,0,0,,10,,,57,127
15202,note_on,0,0,0,,1,,,73,127
15306,note_off,104,0,0,,1,,,73,127
15307,note_on,1,0,0,,12,,,71,127
15411,note_off,104,0,0,,12,,,71,127
15411,note_off,0,0,0,,10,,,57,127
15412,note_on,1,0,0,,12,,,59,127
15412,note_on,0,0,0,,10,,,69,127
15516,note_off,104,0,0,,10,,,69,127
15517,note_on,1,0,0,,8,,,68,127
15621,note_off,104,0,0,,8,,,68,127
15621,note_off,0,0,0,,12,,,59,127
15622,note_on,1,0,0,,1,,,61,127
15622,note_on,0,0,0,,6,,,66,127
15726,note_off,104,0,0,,6,,,66,127
15727,note_on,1,0,0,,4,,,64,127
15831,note_off,104,0,0,,4,,,64,127
15831,note_off,0,0,0,,1,,,61,127
15832,note_on,1,0,0,,12,,,47,127
15832,note_on,0,0,0,,1,,,61,127
15883,note_off,51,0,0,,1,,,61,127
15884,note_on,1,0,0,,12,,,59,127
15935,note_off,51,0,0,,12,,,59,127
15936,note_on,1,0,0,,1,,,61,127
15987,note_off,51,0,0,,1,,,61,127
15988,note_on,1,0,0,,12,,,59,127
16512,note_off,524,0,0,,12,,,59,127
16529,note_off,17,0,0,,12,,,47,127
16878,note_on,349,0,0,,4,,,76,127
16878,note_on,0,0,0,,8,,,80,127
16983,note_on,105,0,0,,4,,,64,127
17087,note_off,104,0,0,,4,,,64,127
17088,note_on,1,0,0,,3,,,63,127
17192,note_off,104,0,0,,3,,,63,127
17193,note_on,1,0,0,,4,,,64,127
17297,note_off,104,0,0,,4,,,64,127
17298,note_on,1,0,0,,6,,,66,127
17402,note_off,104,0,0,,6,,,66,127
17403,note_on,1,0,0,,4,,,64,127
17507,note_off,104,0,0,,4,,,64,127
17508,note_on,1,0,0,,12,,,35,127
17612,note_off,104,0,0,,8,,,80,127
17612,note_off,0,0,0,,4,,,76,127
17613,note_on,1,0,0,,8,,,80,127
17613,note_on,0,0,0,,4,,,76,127
17717,note_off,104,0,0,,4,,,76,127
17717,note_off,0,0,0,,8,,,80,127
17718,note_on,1,0,0,,6,,,78,127
17718,note_on,0,0,0,,3,,,75,127
17822,note_off,104,0,0,,3,,,75,127
17822,note_off,0,0,0,,6,,,78,127
17823,note_on,1,0,0,,8,,,80,127
17823,note_on,0,0,0,,4,,,76,127
17927,note_off,104,0,0,,4,,,76,127
17927,note_off,0,0,0,,8,,,80,127
17928,note_on,1,0,0,,10,,,81,127
17928,note_on,0,0,0,,6,,,78,127
18032,note_off,104,0,0,,6,,,78,127
18032,note_off,0,0,0,,10,,,81,127
18033,note_on,1,0,0,,8,,,80,127
18033,note_on,0,0,0,,12,,,83,127
18131,note_off,98,0,0,,12,,,35,127
18136,note_off,5,0,0,,12,,,83,127
18136,note_off,0,0,0,,8,,,80,127
18137,note_on,1,0,0,,10,,,81,127
18137,note_on,0,0,0,,6,,,78,127
18242,note_on,105,0,0,,6,,,66,127
18346,note_off,104,0,0,,6,,,66,127
18346,note_off,0,0,0,,6,,,78,127
18346,note_off,0,0,0,,10,,,81,127
18347,note_on,1,0,0,,4,,,64,127
18347,note_on,0,0,0,,10,,,81,127
18347,note_on,0,0,0,,6,,,78,127
18451,note_off,104,0,0,,4,,,64,127
18452,note_on,1,0,0,,6,,,66,127
18556,note_off,104,0,0,,6,,,66,127
18556,note_off,0,0,0,,6,,,78,127
18556,note_off,0,0,0,,10,,,81,127
18557,note_on,1,0,0,,8,,,68,127
18557,note_on,0,0,0,,6,,,78,127
18557,note_on,0,0,0,,10,,,81,127
18661,note_off,104,0,0,,8,,,68,127
18662,note_on,1,0,0,,6,,,66,127
18766,note_off,104,0,0,,6,,,66,127
18767,note_on,1,0,0,,4,,,40,127
18871,note_off,104,0,0,,10,,,81,127
18871,note_off,0,0,0,,6,,,78,127
18872,note_on,1,0,0,,6,,,78,127
18872,note_on,0,0,0,,10,,,81,127
18976,note_off,104,0,0,,10,,,81,127
18976,note_off,0,0,0,,6,,,78,127
18977,note_on,1,0,0,,8,,,80,127
18977,note_on,0,0,0,,4,,,76,127
19081,note_off,104,0,0,,4,,,76,127
19081,note_off,0,0,0,,8,,,80,127
19082,note_on,1,0,0,,6,,,78,127
19082,note_on,0,0,0,,10,,,81,127
19186,note_off,104,0,0,,10,,,81,127
19186,note_off,0,0,0,,6,,,78,127
19187,note_on,1,0,0,,12,,,83,127
19187,note_on,0,0,0,,8,,,80,127
19291,note_off,104,0,0,,8,,,80,127
19291,note_off,0,0,0,,12,,,83,127
19292,note_on,1,0,0,,10,,,81,127
19292,note_on,0,0,0,,1,,,85,127
19390,note_off,98,0,0,,4,,,40,127
19395,note_off,5,0,0,,1,,,85,127
19395,note_off,0,0,0,,10,,,81,127
19396,note_on,1,0,0,,12,,,83,127
19396,note_on,0,0,0,,8,,,80,127
19501,note_on,105,0,0,,4,,,64,127
19605,note_off,104,0,0,,4,,,64,127
19605,note_off,0,0,0,,8,,,80,127
19605,note_off,0,0,0,,12,,,83,127
19606,note_on,1,0,0,,3,,,63,127
19606,note_on,0,0,0,,8,,,80,127
19606,note_on,0,0,0,,12,,,83,127
19710,note_off,104,0,0,,3,,,63,127
19711,note_on,1,0,0,,4,,,64,127
19815,note_off,104,0,0,,4,,,64,127
19815,note_off,0,0,0,,12,,,83,127
19815,note_off,0,0,0,,8,,,80,127
19816,note_on,1,0,0,,6,,,66,127
19816,note_on,0,0,0,,8,,,80,127
19816,note_on,0,0,0,,12,,,83,127
19920,note_off,104,0,0,,6,,,66,127
19921,note_on,1,0,0,,4,,,64,127
20025,note_off,104,0,0,,4,,,64,127
20026,note_on,1,0,0,,12,,,35,127
20130,note_off,104,0,0,,12,,,83,127
20130,note_off,0,0,0,,8,,,80,127
20131,note_on,1,0,0,,4,,,76,127
20131,note_on,0,0,0,,8,,,80,127
20235,note_off,104,0,0,,8,,,80,127
20235,note_off,0,0,0,,4,,,76,127
20236,note_on,1,0,0,,6,,,78,127
20236,note_on,0,0,0,,3,,,75,127
20340,note_off,104,0,0,,3,,,75,127
20340,note_off,0,0,0,,6,,,78,127
20341,note_on,1,0,0,,8,,,80,127
20341,note_on,0,0,0,,4,,,76,127
20445,note_off,104,0,0,,4,,,76,127
20445,note_off,0,0,0,,8,,,80,127
20446,note_on,1,0,0,,6,,,78,127
20446,note_on,0,0,0,,10,,,81,127
20550,note_off,104,0,0,,10,,,81,127
20550,note_off,0,0,0,,6,,,78,127
20551,note_on,1,0,0,,12,,,83,127
20551,note_on,0,0,0,,8,,,80,127
20649,note_off,98,0,0,,12,,,35,127
20654,note_off,5,0,0,,8,,,80,127
20654,note_off,0,0,0,,12,,,83,127
20655,note_on,1,0,0,,6,,,78,127
20655,note_on,0,0,0,,10,,,81,127
20760,note_on,105,0,0,,6,,,66,127
20864,note_off,104,0,0,,6,,,66,127
20864,note_off,0,0,0,,10,,,81,127
20864,note_off,0,0,0,,6,,,78,127
20865,note_on,1,0,0,,4,,,64,127
20865,note_on,0,0,0,,6,,,78,127
20865,note_on,0,0,0,,10,,,81,127
20969,note_off,104,0,0,,4,,,64,127
20970,note_on,1,0,0,,6,,,66,127
21074,note_off,104,0,0,,6,,,66,127
21074,note_off,0,0,0,,10,,,81,127
21074,note_off,0,0,0,,6,,,78,127
21075,note_on,1,0,0,,8,,,68,127
21075,note_on,0,0,0,,6,,,78,127
21075,note_on,0,0,0,,10,,,81,127
21179,note_off,104,0,0,,8,,,68,127
21180,note_on,1,0,0,,6,,,66,127
21284,note_off,104,0,0,,6,,,66,127
21285,note_on,1,0,0,,4,,,40,127
21389,note_off,104,0,0,,10,,,81,127
21389,note_off,0,0,0,,6,,,78,127
21390,note_on,1,0,0,,10,,,81,127
21390,note_on,0,0,0,,6,,,78,127
21494,note_off,104,0,0,,6,,,78,127
21494,note_off,0,0,0,,10,,,81,127
21495,note_on,1,0,0,,8,,,80,127
21495,note_on,0,0,0,,4,,,76,127
21599,note_off,104,0,0,,4,,,76,127
21599,note_off,0,0,0,,8,,,80,127
21600,note_on,1,0,0,,10,,,81,127
21600,note_on,0,0,0,,6,,,78,127
21704,note_off,104,0,0,,6,,,78,127
21704,note_off,0,0,0,,10,,,81,127
21705,note_on,1,0,0,,8,,,80,127
21705,note_on,0,0,0,,12,,,83,127
21809,note_off,104,0,0,,8,,,80,127
21810,note_off,1,0,0,,4,,,40,127
21810,note_on,0,0,0,,4,,,76,127
21913,note_off,103,0,0,,12,,,83,127
21914,note_off,1,0,0,,4,,,76,127
21915,note_on,1,0,0,,10,,,33,127
21915,note_on,0,0,0,,10,,,45,127
21915,note_on,0,0,0,,1,,,85,127
21915,note_on,0,0,0,,10,,,81,127
22019,note_off,104,0,0,,10,,,81,127
22020,note_on,1,0,0,,4,,,76,127
22123,note_off,103,0,0,,1,,,85,127
22124,note_off,1,0,0,,4,,,76,127
22124,note_off,0,0,0,,10,,,45,127
22124,note_off,0,0,0,,10,,,33,127
22125,note_on,1,0,0,,12,,,47,127
22125,note_on,0,0,0,,8,,,80,127
22125,note_on,0,0,0,,12,,,83,127
22229,note_off,104,0,0,,12,,,83,127
22229,note_off,0,0,0,,8,,,80,127
22230,note_on,1,0,0,,10,,,81,127
22230,note_on,0,0,0,,6,,,78,127
22334,note_off,104,0,0,,6,,,78,127
22334,note_off,0,0,0,,10,,,81,127
22335,note_on,1,0,0,,12,,,35,127
22335,note_on,0,0,0,,8,,,80,127
22335,note_on,0,0,0,,4,,,76,127
22439,note_off,104,0,0,,4,,,76,127
22439,note_off,0,0,0,,8,,,80,127
22440,note_on,1,0,0,,3,,,75,127
22440,note_on,0,0,0,,6,,,78,127
22540,note_off,100,0,0,,12,,,47,127
22542,note_off,2,0,0,,12,,,35,127
22543,note_off,1,0,0,,6,,,78,127
22543,note_off,0,0,0,,3,,,75,127
22544,note_on,1,0,0,,8,,,80,127
22544,note_on,0,0,0,,4,,,76,127
22666,note_on,122,0,0,,4,,,64,127
22770,note_off,104,0,0,,4,,,64,127
22771,note_on,1,0,0,,3,,,63,127
22875,note_off,104,0,0,,3,,,63,127
22876,note_on,1,0,0,,4,,,64,127
22980,note_off,104,0,0,,4,,,64,127
22981,note_on,1,0,0,,6,,,66,127
23085,note_off,104,0,0,,6,,,66,127
23086,note_on,1,0,0,,4,,,64,127
23190,note_off,104,0,0,,4,,,64,127
23191,note_on,1,0,0,,12,,,35,127
23277,note_off,86,0,0,,4,,,76,127
23277,note_off,0,0,0,,8,,,80,127
23296,note_on,19,0,0,,4,,,76,127
23296,note_on,0,0,0,,8,,,80,127
23400,note_off,104,0,0,,8,,,80,127
23400,note_off,0,0,0,,4,,,76,127
23401,note_on,1,0,0,,6,,,78,127
23401,note_on,0,0,0,,3,,,75,127
23505,note_off,104,0,0,,3,,,75,127
23505,note_off,0,0,0,,6,,,78,127
23506,note_on,1,0,0,,4,,,76,127
23506,note_on,0,0,0,,8,,,80,127
23610,note_off,104,0,0,,8,,,80,127
23610,note_off,0,0,0,,4,,,76,127
23611,note_on,1,0,0,,6,,,78,127
23611,note_on,0,0,0,,10,,,81,127
23715,note_off,104,0,0,,10,,,81,127
23715,note_off,0,0,0,,6,,,78,127
23716,note_on,1,0,0,,8,,,80,127
23716,note_on,0,0,0,,12,,,83,127
23814,note_off,98,0,0,,12,,,35,127
23819,note_off,5,0,0,,12,,,83,127
23819,note_off,0,0,0,,8,,,80,127
23820,note_on,1,0,0,,10,,,81,127
23820,note_on,0,0,0,,6,,,78,127
23925,note_on,105,0,0,,6,,,66,127
24029,note_off,104,0,0,,6,,,66,127
24029,note_off,0,0,0,,6,,,78,127
24029,note_off,0,0,0,,10,,,81,127
24030,note_on,1,0,0,,10,,,81,127
24030,note_on,0,0,0,,6,,,78,127
24030,note_on,0,0,0,,4,,,64,127
24134,note_off,104,0,0,,4,,,64,127
24135,note_on,1,0,0,,6,,,66,127
24239,note_off,104,0,0,,6,,,66,127
24239,note_off,0,0,0,,6,,,78,127
24239,note_off,0,0,0,,10,,,81,127
24240,note_on,1,0,0,,10,,,81,127
24240,note_on,0,0,0,,6,,,78,127
24240,note_on,0,0,0,,8,,,68,127
24344,note_off,104,0,0,,8,,,68,127
24345,note_on,1,0,0,,6,,,66,127
24449,note_off,104,0,0,,6,,,66,127
24450,note_on,1,0,0,,4,,,40,127
24554,note_off,104,0,0,,6,,,78,127
24554,note_off,0,0,0,,10,,,81,127
24555,note_on,1,0,0,,6,,,78,127
24555,note_on,0,0,0,,10,,,81,127
24659,note_off,104,0,0,,10,,,81,127
24659,note_off,0,0,0,,6,,,78,127
24660,note_on,1,0,0,,4,,,76,127
24660,note_on,0,0,0,,8,,,80,127
24764,note_off,104,0,0,,8,,,80,127
24764,note_off,0,0,0,,4,,,76,127
24765,note_on,1,0,0,,10,,,81,127
24765,note_on,0,0,0,,6,,,78,127
24869,note_off,104,0,0,,6,,,78,127
24869,note_off,0,0,0,,10,,,81,127
24870,note_on,1,0,0,,8,,,80,127
24870,note_on,0,0,0,,12,,,83,127
24974,note_off,104,0,0,,12,,,83,127
24974,note_off,0,0,0,,8,,,80,127
24975,note_on,1,0,0,,1,,,85,127
24975,note_on,0,0,0,,10,,,81,127
25073,note_off,98,0,0,,4,,,40,127
25078,note_off,5,0,0,,10,,,81,127
25078,note_off,0,0,0,,1,,,85,127
25079,note_on,1,0,0,,8,,,80,127
25079,note_on,0,0,0,,12,,,83,127
25184,note_on,105,0,0,,4,,,64,127
25288,note_off,104,0,0,,4,,,64,127
25288,note_off,0,0,0,,12,,,83,127
25288,note_off,0,0,0,,8,,,80,127
25289,note_on,1,0,0,,8,,,80,127
25289,note_on,0,0,0,,12,,,83,127
25289,note_on,0,0,0,,3,,,63,127
25393,note_off,104,0,0,,3,,,63,127
25394,note_on,1,0,0,,4,,,64,127
25498,note_off,104,0,0,,4,,,64,127
25498,note_off,0,0,0,,12,,,83,127
25498,note_off,0,0,0,,8,,,80,127
25499,note_on,1,0,0,,12,,,83,127
25499,note_on,0,0,0,,8,,,80,127
25499,note_on,0,0,0,,6,,,66,127
25603,note_off,104,0,0,,6,,,66,127
25604,note_on,1,0,0,,4,,,64,127
25708,note_off,104,0,0,,4,,,64,127
25709,note_on,1,0,0,,12,,,35,127
25813,note_off,104,0,0,,8,,,80,127
25813,note_off,0,0,0,,12,,,83,127
25814,note_on,1,0,0,,8,,,80,127
25814,note_on,0,0,0,,4,,,76,127
25918,note_off,104,0,0,,4,,,76,127
25918,note_off,0,0,0,,8,,,80,127
25919,note_on,1,0,0,,6,,,78,127
25919,note_on,0,0,0,,3,,,75,127
26023,note_off,104,0,0,,3,,,75,127
26023,note_off,0,0,0,,6,,,78,127
26024,note_on,1,0,0,,4,,,76,127
26024,note_on,0,0,0,,8,,,80,127
26128,note_off,104,0,0,,8,,,80,127
26128,note_off,0,0,0,,4,,,76,127
26129,note_on,1,0,0,,10,,,81,127
26129,note_on,0,0,0,,6,,,78,127
26233,note_off,104,0,0,,6,,,78,127
26233,note_off,0,0,0,,10,,,81,127
26234,note_on,1,0,0,,8,,,80,127
26234,note_on,0,0,0,,12,,,83,127
26332,note_off,98,0,0,,12,,,35,127
26337,note_off,5,0,0,,12,,,83,127
26337,note_off,0,0,0,,8,,,80,127
26338,note_on,1,0,0,,10,,,81,127
26338,note_on,0,0,0,,6,,,78,127
26443,note_on,105,0,0,,6,,,66,127
26547,note_off,104,0,0,,6,,,66,127
26547,note_off,0,0,0,,6,,,78,127
26547,note_off,0,0,0,,10,,,81,127
26548,note_on,1,0,0,,10,,,81,127
26548,note_on,0,0,0,,6,,,78,127
26548,note_on,0,0,0,,4,,,64,127
26652,note_off,104,0,0,,4,,,64,127
26653,note_on,1,0,0,,6,,,66,127
26757,note_off,104,0,0,,6,,,66,127
26757,note_off,0,0,0,,6,,,78,127
26757,note_off,0,0,0,,10,,,81,127
26758,note_on,1,0,0,,6,,,78,127
26758,note_on,0,0,0,,10,,,81,127
26758,note_on,0,0,0,,8,,,68,127
26862,note_off,104,0,0,,8,,,68,127
26863,note_on,1,0,0,,6,,,66,127
26967,note_off,104,0,0,,6,,,66,127
26968,note_on,1,0,0,,4,,,40,127
27072,note_off,104,0,0,,10,,,81,127
27072,note_off,0,0,0,,6,,,78,127
27073,note_on,1,0,0,,6,,,78,127
27073,note_on,0,0,0,,10,,,81,127
27177,note_off,104,0,0,,10,,,81,127
27177,note_off,0,0,0,,6,,,78,127
27178,note_on,1,0,0,,4,,,76,127
27178,note_on,0,0,0,,8,,,80,127
27282,note_off,104,0,0,,8,,,80,127
27282,note_off,0,0,0,,4,,,76,127
27283,note_on,1,0,0,,10,,,81,127
27283,note_on,0,0,0,,6,,,78,127
27387,note_off,104,0,0,,6,,,78,127
27387,note_off,0,0,0,,10,,,81,127
27388,note_on,1,0,0,,8,,,80,127
27388,note_on,0,0,0,,12,,,83,127
27492,note_off,104,0,0,,8,,,80,127
27493,note_on,1,0,0,,4,,,76,127
27537,note_off,44,0,0,,4,,,40,127
27596,note_off,59,0,0,,12,,,83,127
27597,note_off,1,0,0,,4,,,76,127
27598,note_on,1,0,0,,1,,,85,127
27598,note_on,0,0,0,,10,,,81,127
27598,note_on,0,0,0,,10,,,45,127
27598,note_on,0,0,0,,10,,,33,127
27702,note_off,104,0,0,,10,,,81,127
27703,note_on,1,0,0,,4,,,76,127
27806,note_off,103,0,0,,1,,,85,127
27807,note_off,1,0,0,,4,,,76,127
27807,note_off,0,0,0,,10,,,33,127
27807,note_off,0,0,0,,10,,,45,127
27808,note_on,1,0,0,,12,,,83,127
27808,note_on,0,0,0,,8,,,80,127
27808,note_on,0,0,0,,12,,,47,127
27912,note_off,104,0,0,,8,,,80,127
27912,note_off,0,0,0,,12,,,83,127
27913,note_on,1,0,0,,6,,,78,127
27913,note_on,0,0,0,,10,,,81,127
28017,note_off,104,0,0,,10,,,81,127
28017,note_off,0,0,0,,6,,,78,127
28018,note_on,1,0,0,,4,,,76,127
28018,note_on,0,0,0,,8,,,80,127
28018,note_on,0,0,0,,12,,,35,127
28122,note_off,104,0,0,,8,,,80,127
28122,note_off,0,0,0,,4,,,76,127
28123,note_on,1,0,0,,3,,,75,127
28123,note_on,0,0,0,,6,,,78,127
28223,note_off,100,0,0,,12,,,47,127
28226,note_off,3,0,0,,6,,,78,127
28226,note_off,0,0,0,,3,,,75,127
28226,note_off,0,0,0,,12,,,35,127
28227,note_on,1,0,0,,4,,,76,127
28227,note_on,0,0,0,,4,,,40,127
28331,note_off,104,0,0,,4,,,40,127
28350,note_on,19,0,0,,4,,,64,127
28436,note_off,86,0,0,,4,,,76,127
28453,note_off,17,0,0,,4,,,64,127
28454,note_on,1,0,0,,3,,,63,127
28454,note_on,0,0,0,,12,,,71,127
28558,note_off,104,0,0,,3,,,63,127
28559,note_on,1,0,0,,4,,,64,127
28663,note_off,104,0,0,,4,,,64,127
28663,note_off,0,0,0,,12,,,71,127
28664,note_on,1,0,0,,3,,,63,127
28664,note_on,0,0,0,,12,,,71,127
28768,note_off,104,0,0,,3,,,63,127
28769,note_on,1,0,0,,4,,,64,127
28873,note_off,104,0,0,,4,,,64,127
28873,note_off,0,0,0,,12,,,71,127
28874,note_on,1,0,0,,6,,,66,127
28874,note_on,0,0,0,,12,,,71,127
28978,note_off,104,0,0,,6,,,66,127
28979,note_on,1,0,0,,4,,,64,127
29083,note_off,104,0,0,,4,,,64,127
29083,note_off,0,0,0,,12,,,71,127
29084,note_on,1,0,0,,3,,,63,127
29084,note_on,0,0,0,,12,,,83,127
29084,note_on,0,0,0,,12,,,71,127
29188,note_off,104,0,0,,3,,,63,127
29189,note_on,1,0,0,,1,,,61,127
29293,note_off,104,0,0,,1,,,61,127
29293,note_off,0,0,0,,12,,,71,127
29293,note_off,0,0,0,,12,,,83,127
29294,note_on,1,0,0,,12,,,59,127
29294,note_on,0,0,0,,12,,,83,127
29294,note_on,0,0,0,,12,,,71,127
29398,note_off,104,0,0,,12,,,59,127
29399,note_on,1,0,0,,10,,,57,127
29503,note_off,104,0,0,,10,,,57,127
29503,note_off,0,0,0,,12,,,71,127
29503,note_off,0,0,0,,12,,,83,127
29504,note_on,1,0,0,,8,,,56,127
29504,note_on,0,0,0,,12,,,83,127
29504,note_on,0,0,0,,12,,,71,127
29608,note_off,104,0,0,,8,,,56,127
29609,note_on,1,0,0,,6,,,54,127
29713,note_off,104,0,0,,6,,,54,127
29713,note_off,0,0,0,,12,,,83,127
29714,note_on,1,0,0,,4,,,52,127
29714,note_on,0,0,0,,10,,,81,127
29818,note_off,104,0,0,,4,,,52,127
29819,note_on,1,0,0,,3,,,51,127
29923,note_off,104,0,0,,3,,,51,127
29923,note_off,0,0,0,,10,,,81,127
29924,note_on,1,0,0,,1,,,49,127
29924,note_on,0,0,0,,8,,,80,127
30028,note_off,104,0,0,,1,,,49,127
30029,note_on,1,0,0,,12,,,47,127
30127,note_off,98,0,0,,12,,,71,127
30132,note_off,5,0,0,,12,,,47,127
30132,note_off,0,0,0,,8,,,80,127
30133,note_on,1,0,0,,10,,,45,127
30133,note_on,0,0,0,,6,,,78,127
30273,note_on,140,0,0,,10,,,69,127
30342,note_off,69,0,0,,10,,,69,127
30342,note_off,0,0,0,,10,,,45,127
30343,note_on,1,0,0,,12,,,47,127
30343,note_on,0,0,0,,8,,,68,127
30439,note_off,96,0,0,,6,,,78,127
30448,note_on,9,0,0,,4,,,76,127
30551,note_off,103,0,0,,8,,,68,127
30552,note_off,1,0,0,,12,,,47,127
30553,note_on,1,0,0,,12,,,47,127
30553,note_on,0,0,0,,6,,,66,127
30656,note_off,103,0,0,,4,,,76,127
30658,note_on,2,0,0,,3,,,75,127
30761,note_off,103,0,0,,6,,,66,127
30762,note_off,1,0,0,,3,,,75,127
30762,note_off,0,0,0,,12,,,47,127
30763,note_on,1,0,0,,4,,,40,127
30763,note_on,0,0,0,,4,,,76,127
30763,note_on,0,0,0,,4,,,64,127
30861,note_off,98,0,0,,4,,,64,127
30866,note_off,5,0,0,,4,,,40,127
30885,note_on,19,0,0,,4,,,64,127
30971,note_off,86,0,0,,4,,,76,127
30988,note_off,17,0,0,,4,,,64,127
30989,note_on,1,0,0,,12,,,71,127
30989,note_on,0,0,0,,3,,,63,127
31093,note_off,104,0,0,,3,,,63,127
31094,note_on,1,0,0,,4,,,64,127
31198,note_off,104,0,0,,4,,,64,127
31198,note_off,0,0,0,,12,,,71,127
31199,note_on,1,0,0,,12,,,71,127
31199,note_on,0,0,0,,3,,,63,127
31303,note_off,104,0,0,,3,,,63,127
31304,note_on,1,0,0,,4,,,64,127
31408,note_off,104,0,0,,4,,,64,127
31408,note_off,0,0,0,,12,,,71,127
31409,note_on,1,0,0,,12,,,71,127
31409,note_on,0,0,0,,6,,,66,127
31513,note_off,104,0,0,,6,,,66,127
31514,note_on,1,0,0,,4,,,64,127
31618,note_off,104,0,0,,4,,,64,127
31618,note_off,0,0,0,,12,,,71,127
31619,note_on,1,0,0,,12,,,71,127
31619,note_on,0,0,0,,12,,,83,127
31619,note_on,0,0,0,,3,,,63,127
31723,note_off,104,0,0,,3,,,63,127
31724,note_on,1,0,0,,1,,,61,127
31828,note_off,104,0,0,,1,,,61,127
31828,note_off,0,0,0,,12,,,83,127
31828,note_off,0,0,0,,12,,,71,127
31829,note_on,1,0,0,,12,,,83,127
31829,note_on,0,0,0,,12,,,71,127
31829,note_on,0,0,0,,12,,,59,127
31933,note_off,104,0,0,,12,,,59,127
31934,note_on,1,0,0,,10,,,57,127
32038,note_off,104,0,0,,10,,,57,127
32038,note_off,0,0,0,,12,,,71,127
32038,note_off,0,0,0,,12,,,83,127
32039,note_on,1,0,0,,12,,,71,127
32039,note_on,0,0,0,,12,,,83,127
32039,note_on,0,0,0,,8,,,56,127
32143,note_off,104,0,0,,8,,,56,127
32144,note_on,1,0,0,,6,,,54,127
32248,note_off,104,0,0,,6,,,54,127
32248,note_off,0,0,0,,12,,,83,127
32249,note_on,1,0,0,,10,,,81,127
32249,note_on,0,0,0,,4,,,52,127
32353,note_off,104,0,0,,4,,,52,127
32354,note_on,1,0,0,,3,,,51,127
32458,note_off,104,0,0,,3,,,51,127
32458,note_off,0,0,0,,10,,,81,127
32459,note_on,1,0,0,,8,,,80,127
32459,note_on,0,0,0,,1,,,49,127
32563,note_off,104,0,0,,1,,,49,127
32564,note_on,1,0,0,,12,,,47,127
32662,note_off,98,0,0,,12,,,71,127
32667,note_off,5,0,0,,12,,,47,127
32667,note_off,0,0,0,,8,,,80,127
32668,note_on,1,0,0,,6,,,78,127
32668,note_on,0,0,0,,10,,,45,127
32808,note_on,140,0,0,,10,,,69,127
32877,note_off,69,0,0,,10,,,69,127
32877,note_off,0,0,0,,10,,,45,127
32878,note_on,1,0,0,,8,,,68,127
32878,note_on,0,0,0,,12,,,47,127
32974,note_off,96,0,0,,6,,,78,127
32983,note_on,9,0,0,,4,,,76,127
33086,note_off,103,0,0,,8,,,68,127
33087,note_off,1,0,0,,12,,,47,127
33088,note_on,1,0,0,,6,,,66,127
33088,note_on,0,0,0,,12,,,35,127
33191,note_off,103,0,0,,4,,,76,127
33193,note_on,2,0,0,,3,,,75,127
33296,note_off,103,0,0,,6,,,66,127
33297,note_off,1,0,0,,3,,,75,127
33297,note_off,0,0,0,,12,,,35,127
33298,note_on,1,0,0,,4,,,76,127
33298,note_on,0,0,0,,4,,,40,127
33298,note_on,0,0,0,,4,,,52,127
33402,note_off,104,0,0,,4,,,76,127
33403,note_on,1,0,0,,12,,,71,127
33507,note_off,104,0,0,,12,,,71,127
33507,note_off,0,0,0,,4,,,52,127
33507,note_off,0,0,0,,4,,,40,127
33508,note_on,1,0,0,,1,,,73,127
33508,note_on,0,0,0,,10,,,45,127
33508,note_on,0,0,0,,10,,,33,127
33612,note_off,104,0,0,,1,,,73,127
33613,note_on,1,0,0,,10,,,69,127
33717,note_off,104,0,0,,10,,,69,127
33717,note_off,0,0,0,,10,,,33,127
33717,note_off,0,0,0,,10,,,45,127
33718,note_on,1,0,0,,6,,,66,127
33718,note_on,0,0,0,,12,,,47,127
33718,note_on,0,0,0,,12,,,35,127
33822,note_off,104,0,0,,6,,,66,127
33823,note_on,1,0,0,,3,,,75,127
33927,note_off,104,0,0,,3,,,75,127
33927,note_off,0,0,0,,12,,,35,127
33927,note_off,0,0,0,,12,,,47,127
33928,note_on,1,0,0,,4,,,76,127
33928,note_on,0,0,0,,4,,,40,127
33928,note_on,0,0,0,,4,,,52,127
34032,note_off,104,0,0,,4,,,76,127
34033,note_on,1,0,0,,12,,,71,127
34137,note_off,104,0,0,,12,,,71,127
34137,note_off,0,0,0,,4,,,52,127
34137,note_off,0,0,0,,4,,,40,127
34138,note_on,1,0,0,,1,,,73,127
34138,note_on,0,0,0,,10,,,45,127
34138,note_on,0,0,0,,10,,,33,127
34242,note_off,104,0,0,,1,,,73,127
34243,note_on,1,0,0,,10,,,69,127
34347,note_off,104,0,0,,10,,,69,127
34347,note_off,0,0,0,,10,,,33,127
34347,note_off,0,0,0,,10,,,45,127
34348,note_on,1,0,0,,6,,,66,127
34348,note_on,0,0,0,,12,,,47,127
34348,note_on,0,0,0,,12,,,35,127
34452,note_off,104,0,0,,6,,,66,127
34453,note_on,1,0,0,,3,,,75,127
34557,note_off,104,0,0,,3,,,75,127
34557,note_off,0,0,0,,12,,,35,127
34557,note_off,0,0,0,,12,,,47,127
34558,note_on,1,0,0,,4,,,76,127
34558,note_on,0,0,0,,4,,,40,127
34558,note_on,0,0,0,,4,,,52,127
34662,note_off,104,0,0,,4,,,76,127
34663,note_on,1,0,0,,12,,,71,127
34767,note_off,104,0,0,,12,,,71,127
34767,note_off,0,0,0,,4,,,52,127
34767,note_off,0,0,0,,4,,,40,127
34768,note_on,1,0,0,,1,,,73,127
34768,note_on,0,0,0,,10,,,45,127
34768,note_on,0,0,0,,10,,,33,127
34872,note_off,104,0,0,,1,,,73,127
34873,note_on,1,0,0,,10,,,69,127
34977,note_off,104,0,0,,10,,,69,127
34977,note_off,0,0,0,,10,,,33,127
34977,note_off,0,0,0,,10,,,45,127
34978,note_on,1,0,0,,6,,,66,127
34978,note_on,0,0,0,,12,,,47,127
34978,note_on,0,0,0,,12,,,35,127
35082,note_off,104,0,0,,6,,,66,127
35083,note_on,1,0,0,,12,,,71,127
35187,note_off,104,0,0,,12,,,71,127
35187,note_off,0,0,0,,12,,,35,127
35187,note_off,0,0,0,,12,,,47,127
35188,note_on,1,0,0,,8,,,68,127
35188,note_on,0,0,0,,4,,,52,127
35188,note_on,0,0,0,,4,,,40,127
35292,note_off,104,0,0,,8,,,68,127
35293,note_on,1,0,0,,4,,,64,127
35397,note_off,104,0,0,,4,,,64,127
35397,note_off,0,0,0,,4,,,40,127
35397,note_off,0,0,0,,4,,,52,127
35398,note_on,1,0,0,,1,,,61,127
35398,note_on,0,0,0,,10,,,45,127
35398,note_on,0,0,0,,10,,,33,127
35502,note_off,104,0,0,,1,,,61,127
35503,note_on,1,0,0,,10,,,69,127
35607,note_off,104,0,0,,10,,,69,127
35607,note_off,0,0,0,,10,,,33,127
35607,note_off,0,0,0,,10,,,45,127
35608,note_on,1,0,0,,12,,,59,127
35608,note_on,0,0,0,,12,,,47,127
35608,note_on,0,0,0,,12,,,35,127
35712,note_off,104,0,0,,12,,,59,127
35713,note_on,1,0,0,,3,,,63,127
35817,note_off,104,0,0,,3,,,63,127
35817,note_off,0,0,0,,12,,,35,127
35817,note_off,0,0,0,,12,,,47,127
35818,note_on,1,0,0,,3,,,63,127
35818,note_on,0,0,0,,4,,,40,127
35818,note_on,0,0,0,,4,,,52,127
36236,note_off,418,0,0,,3,,,63,127
36237,note_on,1,0,0,,4,,,64,127
36445,note_off,208,0,0,,4,,,52,127
36445,note_off,0,0,0,,4,,,40,127
36464,note_on,19,0,0,,4,,,52,127
36568,note_off,104,0,0,,4,,,52,127
36569,note_on,1,0,0,,8,,,56,127
36673,note_off,104,0,0,,8,,,56,127
36674,note_on,1,0,0,,12,,,59,127
36761,note_off,87,0,0,,4,,,64,127
36777,note_off,16,0,0,,12,,,59,127
36778,note_on,1,0,0,,4,,,64,127
36882,note_off,104,0,0,,4,,,64,127
36883,note_on,1,0,0,,6,,,54,127
36987,note_off,104,0,0,,6,,,54,127
36988,note_on,1,0,0,,2,,,62,127
37092,note_off,104,0,0,,2,,,62,127
37093,note_on,1,0,0,,4,,,52,127
37197,note_off,104,0,0,,4,,,52,127
37198,note_on,1,0,0,,1,,,61,127
37302,note_off,104,0,0,,1,,,61,127
37303,note_on,1,0,0,,2,,,50,127
37407,note_off,104,0,0,,2,,,50,127
37408,note_on,1,0,0,,12,,,59,127
37512,note_off,104,0,0,,12,,,59,127
37513,note_on,1,0,0,,1,,,49,127
37617,note_off,104,0,0,,1,,,49,127
37618,note_on,1,0,0,,10,,,57,127
37722,note_off,104,0,0,,10,,,57,127
37723,note_on,1,0,0,,12,,,47,127
37827,note_off,104,0,0,,12,,,47,127
37828,note_on,1,0,0,,8,,,56,127
37932,note_off,104,0,0,,8,,,56,127
37933,note_on,1,0,0,,10,,,45,127
38037,note_off,104,0,0,,10,,,45,127
38038,note_on,1,0,0,,6,,,54,127
38142,note_off,104,0,0,,6,,,54,127
38143,note_on,1,0,0,,8,,,44,127
38247,note_off,104,0,0,,8,,,44,127
38248,note_on,1,0,0,,4,,,52,127
38352,note_off,104,0,0,,4,,,52,127
38353,note_on,1,0,0,,6,,,42,127
38457,note_off,104,0,0,,6,,,42,127
38458,note_on,1,0,0,,2,,,50,127
38562,note_off,104,0,0,,2,,,50,127
38563,note_on,1,0,0,,4,,,40,127
38667,note_off,104,0,0,,4,,,40,127
38668,note_on,1,0,0,,1,,,49,127
38772,note_off,104,0,0,,1,,,49,127
38773,note_on,1,0,0,,2,,,38,127
38877,note_off,104,0,0,,2,,,38,127
38878,note_on,1,0,0,,2,,,50,127
38982,note_off,104,0,0,,2,,,50,127
38983,note_on,1,0,0,,10,,,33,127
38983,note_on,0,0,0,,10,,,45,127
38983,note_on,0,0,0,,10,,,69,127
39087,note_off,104,0,0,,10,,,69,127
39088,note_on,1,0,0,,1,,,73,127
39192,note_off,104,0,0,,1,,,73,127
39193,note_on,1,0,0,,4,,,76,127
39297,note_off,104,0,0,,4,,,76,127
39298,note_on,1,0,0,,10,,,81,127
39402,note_off,104,0,0,,10,,,81,127
39403,note_on,1,0,0,,12,,,71,127
39507,note_off,104,0,0,,12,,,71,127
39508,note_on,1,0,0,,7,,,79,127
39612,note_off,104,0,0,,7,,,79,127
39612,note_off,0,0,0,,10,,,45,127
39612,note_off,0,0,0,,10,,,33,127
39613,note_on,1,0,0,,10,,,33,127
39613,note_on,0,0,0,,10,,,45,127
39613,note_on,0,0,0,,10,,,69,127
39717,note_off,104,0,0,,10,,,69,127
39718,note_on,1,0,0,,6,,,78,127
39822,note_off,104,0,0,,6,,,78,127
39823,note_on,1,0,0,,7,,,67,127
39927,note_off,104,0,0,,7,,,67,127
39928,note_on,1,0,0,,4,,,76,127
40032,note_off,104,0,0,,4,,,76,127
40033,note_on,1,0,0,,6,,,66,127
40137,note_off,104,0,0,,6,,,66,127
40138,note_on,1,0,0,,2,,,74,127
40242,note_off,104,0,0,,2,,,74,127
40242,note_off,0,0,0,,10,,,45,127
40242,note_off,0,0,0,,10,,,33,127
40243,note_on,1,0,0,,10,,,33,127
40243,note_on,0,0,0,,10,,,45,127
40243,note_on,0,0,0,,4,,,64,127
40347,note_off,104,0,0,,4,,,64,127
40348,note_on,1,0,0,,1,,,73,127
40452,note_off,104,0,0,,1,,,73,127
40453,note_on,1,0,0,,2,,,62,127
40557,note_off,104,0,0,,2,,,62,127
40558,note_on,1,0,0,,12,,,71,127
40662,note_off,104,0,0,,12,,,71,127
40663,note_on,1,0,0,,1,,,61,127
40767,note_off,104,0,0,,1,,,61,127
40768,note_on,1,0,0,,10,,,69,127
40872,note_off,104,0,0,,10,,,69,127
40872,note_off,0,0,0,,10,,,45,127
40872,note_off,0,0,0,,10,,,33,127
40873,note_on,1,0,0,,10,,,33,127
40873,note_on,0,0,0,,10,,,45,127
40873,note_on,0,0,0,,12,,,59,127
40977,note_off,104,0,0,,12,,,59,127
40978,note_on,1,0,0,,7,,,67,127
41082,note_off,104,0,0,,7,,,67,127
41083,note_on,1,0,0,,1,,,61,127
41187,note_off,104,0,0,,1,,,61,127
41188,note_on,1,0,0,,10,,,69,127
41292,note_off,104,0,0,,10,,,69,127
41293,note_on,1,0,0,,10,,,57,127
41397,note_off,104,0,0,,10,,,57,127
41398,note_on,1,0,0,,7,,,67,127
41502,note_off,104,0,0,,7,,,67,127
41502,note_off,0,0,0,,10,,,45,127
41502,note_off,0,0,0,,10,,,33,127
41521,note_on,19,0,0,,6,,,66,127
41521,note_on,0,0,0,,2,,,50,127
41625,note_off,104,0,0,,2,,,50,127
41626,note_on,1,0,0,,6,,,54,127
41730,note_off,104,0,0,,6,,,54,127
41731,note_on,1,0,0,,10,,,57,127
41835,note_off,104,0,0,,10,,,57,127
41836,note_on,1,0,0,,2,,,62,127
41936,note_off,100,0,0,,6,,,66,127
41939,note_off,3,0,0,,2,,,62,127
41940,note_on,1,0,0,,4,,,52,127
42044,note_off,104,0,0,,4,,,52,127
42045,note_on,1,0,0,,1,,,61,127
42149,note_off,104,0,0,,1,,,61,127
42150,note_on,1,0,0,,2,,,50,127
42254,note_off,104,0,0,,2,,,50,127
42255,note_on,1,0,0,,12,,,59,127
42359,note_off,104,0,0,,12,,,59,127
42360,note_on,1,0,0,,1,,,49,127
42464,note_off,104,0,0,,1,,,49,127
42465,note_on,1,0,0,,10,,,57,127
42569,note_off,104,0,0,,10,,,57,127
42570,note_on,1,0,0,,12,,,47,127
42674,note_off,104,0,0,,12,,,47,127
42675,note_on,1,0,0,,7,,,55,127
42779,note_off,104,0,0,,7,,,55,127
42780,note_on,1,0,0,,6,,,66,127
42780,note_on,0,0,0,,11,,,46,127
42884,note_off,104,0,0,,6,,,66,127
42885,note_on,1,0,0,,11,,,70,127
42989,note_off,104,0,0,,11,,,70,127
42990,note_on,1,0,0,,1,,,73,127
43094,note_off,104,0,0,,1,,,73,127
43095,note_on,1,0,0,,4,,,76,127
43199,note_off,104,0,0,,4,,,76,127
43199,note_off,0,0,0,,11,,,46,127
43200,note_on,1,0,0,,6,,,66,127
43200,note_on,0,0,0,,6,,,42,127
43304,note_off,104,0,0,,6,,,66,127
43305,note_on,1,0,0,,4,,,76,127
43409,note_off,104,0,0,,4,,,76,127
43409,note_off,0,0,0,,6,,,42,127
43410,note_on,1,0,0,,6,,,66,127
43410,note_on,0,0,0,,12,,,59,127
43410,note_on,0,0,0,,12,,,47,127
43514,note_off,104,0,0,,6,,,66,127
43515,note_on,1,0,0,,2,,,74,127
43619,note_off,104,0,0,,2,,,74,127
43619,note_off,0,0,0,,12,,,47,127
43619,note_off,0,0,0,,12,,,59,127
43620,note_on,1,0,0,,4,,,64,127
43620,note_on,0,0,0,,4,,,52,127
43620,note_on,0,0,0,,4,,,40,127
43724,note_off,104,0,0,,4,,,64,127
43725,note_on,1,0,0,,1,,,73,127
43829,note_off,104,0,0,,1,,,73,127
43829,note_off,0,0,0,,4,,,40,127
43829,note_off,0,0,0,,4,,,52,127
43830,note_on,1,0,0,,2,,,62,127
43830,note_on,0,0,0,,7,,,43,127
43830,note_on,0,0,0,,7,,,55,127
43934,note_off,104,0,0,,2,,,62,127
43935,note_on,1,0,0,,12,,,71,127
44039,note_off,104,0,0,,12,,,71,127
44039,note_off,0,0,0,,7,,,55,127
44039,note_off,0,0,0,,7,,,43,127
44040,note_on,1,0,0,,11,,,70,127
44040,note_on,0,0,0,,6,,,66,127
44040,note_on,0,0,0,,6,,,42,127
44144,note_off,104,0,0,,6,,,42,127
44163,note_on,19,0,0,,6,,,54,127
44267,note_off,104,0,0,,6,,,54,127
44268,note_on,1,0,0,,4,,,52,127
44372,note_off,104,0,0,,4,,,52,127
44373,note_on,1,0,0,,6,,,54,127
44477,note_off,104,0,0,,6,,,54,127
44478,note_on,1,0,0,,7,,,55,127
44582,note_off,104,0,0,,7,,,55,127
44583,note_on,1,0,0,,6,,,54,127
44687,note_off,104,0,0,,6,,,54,127
44688,note_on,1,0,0,,4,,,52,127
44762,note_off,74,0,0,,6,,,66,127
44762,note_off,0,0,0,,11,,,70,127
44791,note_off,29,0,0,,4,,,52,127
44792,note_on,1,0,0,,2,,,50,127
44896,note_off,104,0,0,,2,,,50,127
44897,note_on,1,0,0,,1,,,49,127
44897,note_on,0,0,0,,11,,,70,127
44897,note_on,0,0,0,,6,,,66,127
45001,note_off,104,0,0,,1,,,49,127
45002,note_on,1,0,0,,12,,,47,127
45106,note_off,104,0,0,,12,,,47,127
45106,note_off,0,0,0,,6,,,66,127
45106,note_off,0,0,0,,11,,,70,127
45107,note_on,1,0,0,,10,,,45,127
45107,note_on,0,0,0,,7,,,67,127
45107,note_on,0,0,0,,12,,,71,127
45211,note_off,104,0,0,,10,,,45,127
45212,note_on,1,0,0,,7,,,43,127
45316,note_off,104,0,0,,7,,,43,127
45316,note_off,0,0,0,,12,,,71,127
45316,note_off,0,0,0,,7,,,67,127
45317,note_on,1,0,0,,6,,,42,127
45317,note_on,0,0,0,,11,,,70,127
45317,note_on,0,0,0,,1,,,73,127
45421,note_off,104,0,0,,6,,,42,127
45422,note_on,1,0,0,,6,,,54,127
45526,note_off,104,0,0,,6,,,54,127
45526,note_off,0,0,0,,1,,,73,127
45526,note_off,0,0,0,,11,,,70,127
45527,note_on,1,0,0,,4,,,52,127
45527,note_on,0,0,0,,11,,,70,127
45527,note_on,0,0,0,,6,,,66,127
45631,note_off,104,0,0,,4,,,52,127
45632,note_on,1,0,0,,6,,,54,127
45736,note_off,104,0,0,,6,,,54,127
45736,note_off,0,0,0,,6,,,66,127
45736,note_off,0,0,0,,11,,,70,127
45737,note_on,1,0,0,,7,,,55,127
45737,note_on,0,0,0,,11,,,70,127
45737,note_on,0,0,0,,6,,,66,127
45841,note_off,104,0,0,,7,,,55,127
45842,note_on,1,0,0,,6,,,54,127
45946,note_off,104,0,0,,6,,,54,127
45947,note_on,1,0,0,,4,,,52,127
46051,note_off,104,0,0,,4,,,52,127
46052,note_on,1,0,0,,2,,,50,127
46131,note_off,79,0,0,,6,,,66,127
46131,note_off,0,0,0,,11,,,70,127
46156,note_off,25,0,0,,2,,,50,127
46157,note_on,1,0,0,,1,,,49,127
46157,note_on,0,0,0,,11,,,70,127
46157,note_on,0,0,0,,6,,,66,127
46261,note_off,104,0,0,,1,,,49,127
46262,note_on,1,0,0,,12,,,47,127
46366,note_off,104,0,0,,12,,,47,127
46366,note_off,0,0,0,,6,,,66,127
46366,note_off,0,0,0,,11,,,70,127
46367,note_on,1,0,0,,10,,,45,127
46367,note_on,0,0,0,,12,,,71,127
46367,note_on,0,0,0,,7,,,67,127
46471,note_off,104,0,0,,10,,,45,127
46472,note_on,1,0,0,,7,,,43,127
46576,note_off,104,0,0,,7,,,43,127
46576,note_off,0,0,0,,7,,,67,127
46576,note_off,0,0,0,,12,,,71,127
46577,note_on,1,0,0,,6,,,42,127
46577,note_on,0,0,0,,11,,,70,127
46577,note_on,0,0,0,,1,,,73,127
46681,note_off,104,0,0,,6,,,42,127
46682,note_on,1,0,0,,12,,,59,127
46786,note_off,104,0,0,,12,,,59,127
46786,note_off,0,0,0,,1,,,73,127
46786,note_off,0,0,0,,11,,,70,127
46787,note_on,1,0,0,,11,,,58,127
46787,note_on,0,0,0,,1,,,73,127
46787,note_on,0,0,0,,11,,,70,127
46891,note_off,104,0,0,,11,,,58,127
46892,note_on,1,0,0,,12,,,59,127
46996,note_off,104,0,0,,12,,,59,127
46996,note_off,0,0,0,,11,,,70,127
46996,note_off,0,0,0,,1,,,73,127
46997,note_on,1,0,0,,1,,,61,127
46997,note_on,0,0,0,,12,,,71,127
46997,note_on,0,0,0,,2,,,74,127
47101,note_off,104,0,0,,1,,,61,127
47102,note_on,1,0,0,,12,,,59,127
47206,note_off,104,0,0,,12,,,59,127
47206,note_off,0,0,0,,2,,,74,127
47206,note_off,0,0,0,,12,,,71,127
47207,note_on,1,0,0,,11,,,58,127
47207,note_on,0,0,0,,4,,,76,127
47207,note_on,0,0,0,,1,,,73,127
47311,note_off,104,0,0,,11,,,58,127
47312,note_on,1,0,0,,7,,,55,127
47416,note_off,104,0,0,,7,,,55,127
47416,note_off,0,0,0,,1,,,73,127
47416,note_off,0,0,0,,4,,,76,127
47417,note_on,1,0,0,,6,,,54,127
47417,note_on,0,0,0,,12,,,71,127
47417,note_on,0,0,0,,2,,,74,127
47521,note_off,104,0,0,,6,,,54,127
47522,note_on,1,0,0,,4,,,52,127
47626,note_off,104,0,0,,4,,,52,127
47626,note_off,0,0,0,,2,,,74,127
47626,note_off,0,0,0,,12,,,71,127
47627,note_on,1,0,0,,2,,,50,127
47627,note_on,0,0,0,,11,,,70,127
47627,note_on,0,0,0,,1,,,73,127
47731,note_off,104,0,0,,2,,,50,127
47732,note_on,1,0,0,,1,,,49,127
47836,note_off,104,0,0,,1,,,49,127
47836,note_off,0,0,0,,1,,,73,127
47836,note_off,0,0,0,,11,,,70,127
47837,note_on,1,0,0,,12,,,47,127
47837,note_on,0,0,0,,2,,,74,127
47837,note_on,0,0,0,,12,,,71,127
47941,note_off,104,0,0,,12,,,47,127
47942,note_on,1,0,0,,12,,,59,127
48046,note_off,104,0,0,,12,,,59,127
48046,note_off,0,0,0,,12,,,71,127
48046,note_off,0,0,0,,2,,,74,127
48047,note_on,1,0,0,,11,,,58,127
48047,note_on,0,0,0,,1,,,73,127
48047,note_on,0,0,0,,11,,,70,127
48151,note_off,104,0,0,,11,,,58,127
48152,note_on,1,0,0,,12,,,59,127
48256,note_off,104,0,0,,12,,,59,127
48256,note_off,0,0,0,,11,,,70,127
48256,note_off,0,0,0,,1,,,73,127
48257,note_on,1,0,0,,1,,,61,127
48257,note_on,0,0,0,,2,,,74,127
48257,note_on,0,0,0,,12,,,71,127
48361,note_off,104,0,0,,1,,,61,127
48362,note_on,1,0,0,,12,,,59,127
48466,note_off,104,0,0,,12,,,59,127
48466,note_off,0,0,0,,12,,,71,127
48466,note_off,0,0,0,,2,,,74,127
48467,note_on,1,0,0,,11,,,58,127
48467,note_on,0,0,0,,4,,,76,127
48467,note_on,0,0,0,,1,,,73,127
48571,note_off,104,0,0,,11,,,58,127
48572,note_on,1,0,0,,7,,,55,127
48676,note_off,104,0,0,,7,,,55,127
48676,note_off,0,0,0,,1,,,73,127
48676,note_off,0,0,0,,4,,,76,127
48677,note_on,1,0,0,,6,,,54,127
48677,note_on,0,0,0,,12,,,71,127
48677,note_on,0,0,0,,2,,,74,127
48781,note_off,104,0,0,,6,,,54,127
48782,note_on,1,0,0,,4,,,52,127
48886,note_off,104,0,0,,4,,,52,127
48886,note_off,0,0,0,,2,,,74,127
48886,note_off,0,0,0,,12,,,71,127
48887,note_on,1,0,0,,2,,,50,127
48887,note_on,0,0,0,,11,,,70,127
48887,note_on,0,0,0,,1,,,73,127
48991,note_off,104,0,0,,2,,,50,127
48992,note_on,1,0,0,,1,,,49,127
49096,note_off,104,0,0,,1,,,49,127
49096,note_off,0,0,0,,1,,,73,127
49096,note_off,0,0,0,,11,,,70,127
49097,note_on,1,0,0,,12,,,47,127
49097,note_on,0,0,0,,2,,,74,127
49097,note_on,0,0,0,,12,,,71,127
49201,note_off,104,0,0,,12,,,47,127
49202,note_on,1,0,0,,12,,,59,127
49306,note_off,104,0,0,,12,,,59,127
49306,note_off,0,0,0,,12,,,71,127
49306,note_off,0,0,0,,2,,,74,127
49307,note_on,1,0,0,,2,,,62,127
49307,note_on,0,0,0,,2,,,74,127
49307,note_on,0,0,0,,12,,,71,127
49411,note_off,104,0,0,,2,,,62,127
49412,note_on,1,0,0,,1,,,61,127
49516,note_off,104,0,0,,1,,,61,127
49516,note_off,0,0,0,,12,,,71,127
49516,note_off,0,0,0,,2,,,74,127
49517,note_on,1,0,0,,12,,,59,127
49517,note_on,0,0,0,,2,,,74,127
49517,note_on,0,0,0,,12,,,71,127
49621,note_off,104,0,0,,12,,,59,127
49622,note_on,1,0,0,,10,,,57,127
49726,note_off,104,0,0,,10,,,57,127
49726,note_off,0,0,0,,12,,,71,127
49726,note_off,0,0,0,,2,,,74,127
49727,note_on,1,0,0,,8,,,56,127
49727,note_on,0,0,0,,2,,,74,127
49727,note_on,0,0,0,,12,,,71,127
49831,note_off,104,0,0,,8,,,56,127
49832,note_on,1,0,0,,6,,,54,127
49936,note_off,104,0,0,,6,,,54,127
49936,note_off,0,0,0,,12,,,71,127
49936,note_off,0,0,0,,2,,,74,127
49937,note_on,1,0,0,,4,,,52,127
49937,note_on,0,0,0,,1,,,73,127
49937,note_on,0,0,0,,10,,,69,127
50041,note_off,104,0,0,,4,,,52,127
50042,note_on,1,0,0,,2,,,50,127
50146,note_off,104,0,0,,2,,,50,127
50146,note_off,0,0,0,,10,,,69,127
50146,note_off,0,0,0,,1,,,73,127
50147,note_on,1,0,0,,1,,,49,127
50147,note_on,0,0,0,,8,,,68,127
50147,note_on,0,0,0,,12,,,71,127
50251,note_off,104,0,0,,1,,,49,127
50252,note_on,1,0,0,,12,,,47,127
50356,note_off,104,0,0,,12,,,47,127
50356,note_off,0,0,0,,12,,,71,127
50356,note_off,0,0,0,,8,,,68,127
50357,note_on,1,0,0,,10,,,45,127
50357,note_on,0,0,0,,1,,,73,127
50357,note_on,0,0,0,,10,,,69,127
50461,note_off,104,0,0,,10,,,45,127
50473,note_on,12,0,0,,4,,,64,127
50576,note_off,103,0,0,,10,,,69,127
50576,note_off,0,0,0,,1,,,73,127
50577,note_off,1,0,0,,4,,,64,127
50585,note_on,8,0,0,,1,,,73,127
50585,note_on,0,0,0,,4,,,76,127
50585,note_on,0,0,0,,7,,,67,127
50689,note_off,104,0,0,,7,,,67,127
50690,note_on,1,0,0,,6,,,66,127
50794,note_off,104,0,0,,6,,,66,127
50794,note_off,0,0,0,,4,,,76,127
50794,note_off,0,0,0,,1,,,73,127
50795,note_on,1,0,0,,4,,,76,127
50795,note_on,0,0,0,,1,,,73,127
50795,note_on,0,0,0,,4,,,64,127
50899,note_off,104,0,0,,4,,,64,127
50900,note_on,1,0,0,,2,,,62,127
51004,note_off,104,0,0,,2,,,62,127
51004,note_off,0,0,0,,1,,,73,127
51004,note_off,0,0,0,,4,,,76,127
51005,note_on,1,0,0,,4,,,76,127
51005,note_on,0,0,0,,1,,,73,127
51005,note_on,0,0,0,,1,,,61,127
51109,note_off,104,0,0,,1,,,61,127
51110,note_on,1,0,0,,12,,,59,127
51214,note_off,104,0,0,,12,,,59,127
51214,note_off,0,0,0,,1,,,73,127
51214,note_off,0,0,0,,4,,,76,127
51215,note_on,1,0,0,,2,,,74,127
51215,note_on,0,0,0,,6,,,78,127
51215,note_on,0,0,0,,10,,,57,127
51319,note_off,104,0,0,,10,,,57,127
51320,note_on,1,0,0,,7,,,55,127
51424,note_off,104,0,0,,7,,,55,127
51424,note_off,0,0,0,,6,,,78,127
51424,note_off,0,0,0,,2,,,74,127
51425,note_on,1,0,0,,7,,,79,127
51425,note_on,0,0,0,,4,,,76,127
51425,note_on,0,0,0,,6,,,54,127
51529,note_off,104,0,0,,6,,,54,127
51530,note_on,1,0,0,,4,,,52,127
51634,note_off,104,0,0,,4,,,52,127
51634,note_off,0,0,0,,4,,,76,127
51634,note_off,0,0,0,,7,,,79,127
51635,note_on,1,0,0,,2,,,74,127
51635,note_on,0,0,0,,6,,,78,127
51635,note_on,0,0,0,,2,,,50,127
51739,note_off,104,0,0,,2,,,50,127
51740,note_on,1,0,0,,4,,,64,127
51844,note_off,104,0,0,,4,,,64,127
51844,note_off,0,0,0,,6,,,78,127
51844,note_off,0,0,0,,2,,,74,127
51845,note_on,1,0,0,,4,,,76,127
51845,note_on,0,0,0,,1,,,73,127
51845,note_on,0,0,0,,7,,,67,127
51949,note_off,104,0,0,,7,,,67,127
51950,note_on,1,0,0,,6,,,66,127
52054,note_off,104,0,0,,6,,,66,127
52054,note_off,0,0,0,,1,,,73,127
52054,note_off,0,0,0,,4,,,76,127
52055,note_on,1,0,0,,2,,,74,127
52055,note_on,0,0,0,,6,,,78,127
52055,note_on,0,0,0,,4,,,64,127
52159,note_off,104,0,0,,4,,,64,127
52160,note_on,1,0,0,,2,,,62,127
52264,note_off,104,0,0,,2,,,62,127
52264,note_off,0,0,0,,6,,,78,127
52264,note_off,0,0,0,,2,,,74,127
52265,note_on,1,0,0,,7,,,79,127
52265,note_on,0,0,0,,4,,,76,127
52265,note_on,0,0,0,,1,,,61,127
52369,note_off,104,0,0,,1,,,61,127
52370,note_on,1,0,0,,12,,,59,127
52474,note_off,104,0,0,,12,,,59,127
52474,note_off,0,0,0,,4,,,76,127
52474,note_off,0,0,0,,7,,,79,127
52475,note_on,1,0,0,,2,,,74,127
52475,note_on,0,0,0,,6,,,78,127
52475,note_on,0,0,0,,10,,,57,127
52579,note_off,104,0,0,,10,,,57,127
52580,note_on,1,0,0,,7,,,55,127
52684,note_off,104,0,0,,7,,,55,127
52684,note_off,0,0,0,,6,,,78,127
52684,note_off,0,0,0,,2,,,74,127
52685,note_on,1,0,0,,1,,,73,127
52685,note_on,0,0,0,,4,,,76,127
52685,note_on,0,0,0,,6,,,54,127
52789,note_off,104,0,0,,6,,,54,127
52790,note_on,1,0,0,,4,,,52,127
52894,note_off,104,0,0,,4,,,52,127
52894,note_off,0,0,0,,4,,,76,127
52894,note_off,0,0,0,,1,,,73,127
52895,note_on,1,0,0,,6,,,78,127
52895,note_on,0,0,0,,2,,,50,127
52999,note_off,104,0,0,,6,,,78,127
53000,note_on,1,0,0,,4,,,76,127
53104,note_off,104,0,0,,4,,,76,127
53104,note_off,0,0,0,,2,,,50,127
53105,note_on,1,0,0,,2,,,74,127
53105,note_on,0,0,0,,4,,,52,127
53209,note_off,104,0,0,,2,,,74,127
53210,note_on,1,0,0,,1,,,73,127
53314,note_off,104,0,0,,1,,,73,127
53314,note_off,0,0,0,,4,,,52,127
53315,note_on,1,0,0,,12,,,71,127
53315,note_on,0,0,0,,6,,,54,127
53419,note_off,104,0,0,,12,,,71,127
53420,note_on,1,0,0,,10,,,69,127
53524,note_off,104,0,0,,10,,,69,127
53524,note_off,0,0,0,,6,,,54,127
53525,note_on,1,0,0,,12,,,71,127
53525,note_on,0,0,0,,7,,,55,127
53629,note_off,104,0,0,,12,,,71,127
53630,note_on,1,0,0,,10,,,69,127
53734,note_off,104,0,0,,10,,,69,127
53734,note_off,0,0,0,,7,,,55,127
53735,note_on,1,0,0,,7,,,67,127
53735,note_on,0,0,0,,10,,,57,127
53839,note_off,104,0,0,,7,,,67,127
53840,note_on,1,0,0,,6,,,66,127
53944,note_off,104,0,0,,6,,,66,127
53944,note_off,0,0,0,,10,,,57,127
53945,note_on,1,0,0,,4,,,64,127
53945,note_on,0,0,0,,12,,,59,127
54049,note_off,104,0,0,,4,,,64,127
54050,note_on,1,0,0,,2,,,62,127
54154,note_off,104,0,0,,2,,,62,127
54154,note_off,0,0,0,,12,,,59,127
54155,note_on,1,0,0,,1,,,61,127
54155,note_on,0,0,0,,10,,,57,127
54259,note_off,104,0,0,,10,,,57,127
54259,note_off,0,0,0,,1,,,61,127
54260,note_on,1,0,0,,10,,,69,127
54260,note_on,0,0,0,,6,,,54,127
54364,note_off,104,0,0,,6,,,54,127
54364,note_off,0,0,0,,10,,,69,127
54365,note_on,1,0,0,,2,,,62,127
54365,note_on,0,0,0,,12,,,59,127
54469,note_off,104,0,0,,12,,,59,127
54469,note_off,0,0,0,,2,,,62,127
54470,note_on,1,0,0,,7,,,67,127
54470,note_on,0,0,0,,7,,,55,127
54574,note_off,104,0,0,,7,,,55,127
54574,note_off,0,0,0,,7,,,67,127
54575,note_on,1,0,0,,4,,,64,127
54575,note_on,0,0,0,,1,,,61,127
54679,note_off,104,0,0,,1,,,61,127
54679,note_off,0,0,0,,4,,,64,127
54680,note_on,1,0,0,,10,,,69,127
54680,note_on,0,0,0,,10,,,57,127
54784,note_off,104,0,0,,10,,,57,127
54784,note_off,0,0,0,,10,,,69,127
54785,note_on,1,0,0,,6,,,66,127
54785,note_on,0,0,0,,2,,,62,127
54889,note_off,104,0,0,,2,,,62,127
54889,note_off,0,0,0,,6,,,66,127
54890,note_on,1,0,0,,12,,,71,127
54890,note_on,0,0,0,,12,,,59,127
54994,note_off,104,0,0,,12,,,59,127
54994,note_off,0,0,0,,12,,,71,127
54995,note_on,1,0,0,,7,,,67,127
54995,note_on,0,0,0,,4,,,64,127
55099,note_off,104,0,0,,4,,,64,127
55099,note_off,0,0,0,,7,,,67,127
55100,note_on,1,0,0,,1,,,73,127
55100,note_on,0,0,0,,1,,,61,127
55204,note_off,104,0,0,,1,,,61,127
55204,note_off,0,0,0,,1,,,73,127
55205,note_on,1,0,0,,10,,,69,127
55205,note_on,0,0,0,,6,,,66,127
55309,note_off,104,0,0,,6,,,66,127
55309,note_off,0,0,0,,10,,,69,127
55310,note_on,1,0,0,,2,,,74,127
55310,note_on,0,0,0,,2,,,62,127
55414,note_off,104,0,0,,2,,,62,127
55414,note_off,0,0,0,,2,,,74,127
55415,note_on,1,0,0,,12,,,71,127
55415,note_on,0,0,0,,7,,,67,127
55519,note_off,104,0,0,,7,,,67,127
55519,note_off,0,0,0,,12,,,71,127
55520,note_on,1,0,0,,4,,,76,127
55520,note_on,0,0,0,,4,,,64,127
55624,note_off,104,0,0,,4,,,64,127
55624,note_off,0,0,0,,4,,,76,127
55625,note_on,1,0,0,,1,,,73,127
55625,note_on,0,0,0,,10,,,69,127
55729,note_off,104,0,0,,10,,,69,127
55729,note_off,0,0,0,,1,,,73,127
55730,note_on,1,0,0,,6,,,78,127
55730,note_on,0,0,0,,6,,,66,127
55834,note_off,104,0,0,,6,,,66,127
55834,note_off,0,0,0,,6,,,78,127
55835,note_on,1,0,0,,2,,,74,127
55835,note_on,0,0,0,,12,,,71,127
55939,note_off,104,0,0,,12,,,71,127
55939,note_off,0,0,0,,2,,,74,127
55940,note_on,1,0,0,,7,,,79,127
55940,note_on,0,0,0,,7,,,67,127
56044,note_off,104,0,0,,7,,,67,127
56044,note_off,0,0,0,,7,,,79,127
56045,note_on,1,0,0,,4,,,76,127
56045,note_on,0,0,0,,1,,,73,127
56149,note_off,104,0,0,,1,,,73,127
56149,note_off,0,0,0,,4,,,76,127
56150,note_on,1,0,0,,10,,,81,127
56150,note_on,0,0,0,,10,,,69,127
56254,note_off,104,0,0,,10,,,69,127
56254,note_off,0,0,0,,10,,,81,127
56255,note_on,1,0,0,,7,,,79,127
56255,note_on,0,0,0,,12,,,71,127
56359,note_off,104,0,0,,7,,,79,127
56360,note_on,1,0,0,,6,,,78,127
56464,note_off,104,0,0,,6,,,78,127
56464,note_off,0,0,0,,12,,,71,127
56465,note_on,1,0,0,,7,,,79,127
56465,note_on,0,0,0,,1,,,73,127
56569,note_off,104,0,0,,7,,,79,127
56570,note_on,1,0,0,,4,,,76,127
56674,note_off,104,0,0,,4,,,76,127
56674,note_off,0,0,0,,1,,,73,127
56675,note_on,1,0,0,,6,,,78,127
56675,note_on,0,0,0,,2,,,62,127
56779,note_off,104,0,0,,6,,,78,127
56780,note_on,1,0,0,,4,,,76,127
56884,note_off,104,0,0,,4,,,76,127
56884,note_off,0,0,0,,2,,,62,127
56885,note_on,1,0,0,,2,,,74,127
56885,note_on,0,0,0,,4,,,64,127
56989,note_off,104,0,0,,2,,,74,127
56990,note_on,1,0,0,,1,,,73,127
57094,note_off,104,0,0,,1,,,73,127
57094,note_off,0,0,0,,4,,,64,127
57095,note_on,1,0,0,,12,,,71,127
57095,note_on,0,0,0,,6,,,66,127
57199,note_off,104,0,0,,12,,,71,127
57200,note_on,1,0,0,,10,,,69,127
57304,note_off,104,0,0,,10,,,69,127
57304,note_off,0,0,0,,6,,,66,127
57305,note_on,1,0,0,,6,,,66,127
57305,note_on,0,0,0,,4,,,40,127
57356,note_off,51,0,0,,6,,,66,127
57357,note_on,1,0,0,,4,,,64,127
57408,note_off,51,0,0,,4,,,64,127
57409,note_on,1,0,0,,6,,,66,127
57460,note_off,51,0,0,,6,,,66,127
57461,note_on,1,0,0,,4,,,64,127
57980,note_off,519,0,0,,4,,,40,127
57984,note_off,4,0,0,,4,,,64,127
58351,note_on,367,0,0,,10,,,81,127
58351,note_on,0,0,0,,1,,,85,127
58456,note_on,105,0,0,,10,,,69,127
58560,note_off,104,0,0,,10,,,69,127
58561,note_on,1,0,0,,8,,,68,127
58665,note_off,104,0,0,,8,,,68,127
58666,note_on,1,0,0,,10,,,69,127
58770,note_off,104,0,0,,10,,,69,127
58771,note_on,1,0,0,,12,,,71,127
58875,note_off,104,0,0,,12,,,71,127
58876,note_on,1,0,0,,10,,,69,127
58980,note_off,104,0,0,,10,,,69,127
58981,note_on,1,0,0,,4,,,40,127
59085,note_off,104,0,0,,1,,,85,127
59085,note_off,0,0,0,,10,,,81,127
59086,note_on,1,0,0,,10,,,81,127
59086,note_on,0,0,0,,1,,,85,127
59190,note_off,104,0,0,,1,,,85,127
59190,note_off,0,0,0,,10,,,81,127
59191,note_on,1,0,0,,8,,,80,127
59191,note_on,0,0,0,,12,,,83,127
59295,note_off,104,0,0,,12,,,83,127
59295,note_off,0,0,0,,8,,,80,127
59296,note_on,1,0,0,,10,,,81,127
59296,note_on,0,0,0,,1,,,85,127
59400,note_off,104,0,0,,1,,,85,127
59400,note_off,0,0,0,,10,,,81,127
59401,note_on,1,0,0,,2,,,86,127
59401,note_on,0,0,0,,12,,,83,127
59505,note_off,104,0,0,,12,,,83,127
59505,note_off,0,0,0,,2,,,86,127
59506,note_on,1,0,0,,1,,,85,127
59506,note_on,0,0,0,,4,,,88,127
59604,note_off,98,0,0,,4,,,40,127
59609,note_off,5,0,0,,4,,,88,127
59609,note_off,0,0,0,,1,,,85,127
59610,note_on,1,0,0,,12,,,83,127
59610,note_on,0,0,0,,2,,,86,127
59715,note_on,105,0,0,,12,,,71,127
59819,note_off,104,0,0,,12,,,71,127
59819,note_off,0,0,0,,2,,,86,127
59819,note_off,0,0,0,,12,,,83,127
59820,note_on,1,0,0,,2,,,86,127
59820,note_on,0,0,0,,12,,,83,127
59820,note_on,0,0,0,,10,,,69,127
59924,note_off,104,0,0,,10,,,69,127
59925,note_on,1,0,0,,12,,,71,127
60029,note_off,104,0,0,,12,,,71,127
60029,note_off,0,0,0,,12,,,83,127
60029,note_off,0,0,0,,2,,,86,127
60030,note_on,1,0,0,,12,,,83,127
60030,note_on,0,0,0,,2,,,86,127
60030,note_on,0,0,0,,1,,,73,127
60134,note_off,104,0,0,,1,,,73,127
60135,note_on,1,0,0,,12,,,71,127
60239,note_off,104,0,0,,12,,,71,127
60240,note_on,1,0,0,,10,,,33,127
60344,note_off,104,0,0,,2,,,86,127
60344,note_off,0,0,0,,12,,,83,127
60345,note_on,1,0,0,,12,,,83,127
60345,note_on,0,0,0,,2,,,86,127
60449,note_off,104,0,0,,2,,,86,127
60449,note_off,0,0,0,,12,,,83,127
60450,note_on,1,0,0,,10,,,81,127
60450,note_on,0,0,0,,1,,,85,127
60554,note_off,104,0,0,,1,,,85,127
60554,note_off,0,0,0,,10,,,81,127
60555,note_on,1,0,0,,12,,,83,127
60555,note_on,0,0,0,,2,,,86,127
60659,note_off,104,0,0,,2,,,86,127
60659,note_off,0,0,0,,12,,,83,127
60660,note_on,1,0,0,,4,,,88,127
60660,note_on,0,0,0,,1,,,85,127
60764,note_off,104,0,0,,1,,,85,127
60764,note_off,0,0,0,,4,,,88,127
60765,note_on,1,0,0,,6,,,90,127
60765,note_on,0,0,0,,2,,,86,127
60863,note_off,98,0,0,,10,,,33,127
60868,note_off,5,0,0,,2,,,86,127
60868,note_off,0,0,0,,6,,,90,127
60869,note_on,1,0,0,,1,,,85,127
60869,note_on,0,0,0,,4,,,88,127
60974,note_on,105,0,0,,10,,,69,127
61078,note_off,104,0,0,,10,,,69,127
61078,note_off,0,0,0,,4,,,88,127
61078,note_off,0,0,0,,1,,,85,127
61079,note_on,1,0,0,,4,,,88,127
61079,note_on,0,0,0,,1,,,85,127
61079,note_on,0,0,0,,8,,,68,127
61183,note_off,104,0,0,,8,,,68,127
61184,note_on,1,0,0,,10,,,69,127
61288,note_off,104,0,0,,10,,,69,127
61288,note_off,0,0,0,,1,,,85,127
61288,note_off,0,0,0,,4,,,88,127
61289,note_on,1,0,0,,4,,,88,127
61289,note_on,0,0,0,,1,,,85,127
61289,note_on,0,0,0,,12,,,71,127
61393,note_off,104,0,0,,12,,,71,127
61394,note_on,1,0,0,,10,,,69,127
61498,note_off,104,0,0,,10,,,69,127
61499,note_on,1,0,0,,4,,,40,127
61603,note_off,104,0,0,,1,,,85,127
61603,note_off,0,0,0,,4,,,88,127
61604,note_on,1,0,0,,1,,,85,127
61604,note_on,0,0,0,,10,,,81,127
61708,note_off,104,0,0,,10,,,81,127
61708,note_off,0,0,0,,1,,,85,127
61709,note_on,1,0,0,,8,,,80,127
61709,note_on,0,0,0,,12,,,83,127
61813,note_off,104,0,0,,12,,,83,127
61813,note_off,0,0,0,,8,,,80,127
61814,note_on,1,0,0,,10,,,81,127
61814,note_on,0,0,0,,1,,,85,127
61918,note_off,104,0,0,,1,,,85,127
61918,note_off,0,0,0,,10,,,81,127
61919,note_on,1,0,0,,2,,,86,127
61919,note_on,0,0,0,,12,,,83,127
62023,note_off,104,0,0,,12,,,83,127
62023,note_off,0,0,0,,2,,,86,127
62024,note_on,1,0,0,,1,,,85,127
62024,note_on,0,0,0,,4,,,88,127
62122,note_off,98,0,0,,4,,,40,127
62127,note_off,5,0,0,,4,,,88,127
62127,note_off,0,0,0,,1,,,85,127
62128,note_on,1,0,0,,2,,,86,127
62128,note_on,0,0,0,,12,,,83,127
62233,note_on,105,0,0,,12,,,71,127
62337,note_off,104,0,0,,12,,,71,127
62337,note_off,0,0,0,,12,,,83,127
62337,note_off,0,0,0,,2,,,86,127
62338,note_on,1,0,0,,2,,,86,127
62338,note_on,0,0,0,,12,,,83,127
62338,note_on,0,0,0,,10,,,69,127
62442,note_off,104,0,0,,10,,,69,127
62443,note_on,1,0,0,,12,,,71,127
62547,note_off,104,0,0,,12,,,71,127
62547,note_off,0,0,0,,12,,,83,127
62547,note_off,0,0,0,,2,,,86,127
62548,note_on,1,0,0,,12,,,83,127
62548,note_on,0,0,0,,2,,,86,127
62548,note_on,0,0,0,,1,,,73,127
62652,note_off,104,0,0,,1,,,73,127
62653,note_on,1,0,0,,12,,,71,127
62757,note_off,104,0,0,,12,,,71,127
62758,note_on,1,0,0,,10,,,33,127
62862,note_off,104,0,0,,2,,,86,127
62862,note_off,0,0,0,,12,,,83,127
62863,note_on,1,0,0,,12,,,83,127
62863,note_on,0,0,0,,2,,,86,127
62967,note_off,104,0,0,,2,,,86,127
62967,note_off,0,0,0,,12,,,83,127
62968,note_on,1,0,0,,1,,,85,127
62968,note_on,0,0,0,,10,,,81,127
63072,note_off,104,0,0,,10,,,81,127
63072,note_off,0,0,0,,1,,,85,127
63073,note_on,1,0,0,,2,,,86,127
63073,note_on,0,0,0,,12,,,83,127
63177,note_off,104,0,0,,12,,,83,127
63177,note_off,0,0,0,,2,,,86,127
63178,note_on,1,0,0,,4,,,88,127
63178,note_on,0,0,0,,1,,,85,127
63282,note_off,104,0,0,,1,,,85,127
63283,note_on,1,0,0,,10,,,81,127
63386,note_off,103,0,0,,4,,,88,127
63387,note_off,1,0,0,,10,,,81,127
63387,note_off,0,0,0,,10,,,33,127
63388,note_on,1,0,0,,6,,,90,127
63388,note_on,0,0,0,,2,,,86,127
63388,note_on,0,0,0,,2,,,38,127
63388,note_on,0,0,0,,2,,,50,127
63492,note_off,104,0,0,,2,,,86,127
63493,note_on,1,0,0,,10,,,81,127
63596,note_off,103,0,0,,6,,,90,127
63597,note_off,1,0,0,,10,,,81,127
63597,note_off,0,0,0,,2,,,50,127
63597,note_off,0,0,0,,2,,,38,127
63598,note_on,1,0,0,,1,,,85,127
63598,note_on,0,0,0,,4,,,88,127
63598,note_on,0,0,0,,4,,,52,127
63702,note_off,104,0,0,,4,,,88,127
63702,note_off,0,0,0,,1,,,85,127
63703,note_on,1,0,0,,2,,,86,127
63703,note_on,0,0,0,,12,,,83,127
63807,note_off,104,0,0,,12,,,83,127
63807,note_off,0,0,0,,2,,,86,127
63808,note_on,1,0,0,,10,,,81,127
63808,note_on,0,0,0,,1,,,85,127
63808,note_on,0,0,0,,4,,,40,127
63912,note_off,104,0,0,,1,,,85,127
63912,note_off,0,0,0,,10,,,81,127
63913,note_on,1,0,0,,8,,,80,127
63913,note_on,0,0,0,,12,,,83,127
64013,note_off,100,0,0,,4,,,52,127
64015,note_off,2,0,0,,4,,,40,127
64016,note_off,1,0,0,,12,,,83,127
64016,note_off,0,0,0,,8,,,80,127
64017,note_on,1,0,0,,10,,,81,127
64017,note_on,0,0,0,,1,,,85,127
64139,note_on,122,0,0,,10,,,69,127
64243,note_off,104,0,0,,10,,,69,127
64244,note_on,1,0,0,,8,,,68,127
64348,note_off,104,0,0,,8,,,68,127
64349,note_on,1,0,0,,10,,,69,127
64453,note_off,104,0,0,,10,,,69,127
64454,note_on,1,0,0,,12,,,71,127
64558,note_off,104,0,0,,12,,,71,127
64559,note_on,1,0,0,,10,,,69,127
64663,note_off,104,0,0,,10,,,69,127
64664,note_on,1,0,0,,4,,,40,127
64750,note_off,86,0,0,,1,,,85,127
64750,note_off,0,0,0,,10,,,81,127
64769,note_on,19,0,0,,10,,,81,127
64769,note_on,0,0,0,,1,,,85,127
64873,note_off,104,0,0,,1,,,85,127
64873,note_off,0,0,0,,10,,,81,127
64874,note_on,1,0,0,,12,,,83,127
64874,note_on,0,0,0,,8,,,80,127
64978,note_off,104,0,0,,8,,,80,127
64978,note_off,0,0,0,,12,,,83,127
64979,note_on,1,0,0,,1,,,85,127
64979,note_on,0,0,0,,10,,,81,127
65083,note_off,104,0,0,,10,,,81,127
65083,note_off,0,0,0,,1,,,85,127
65084,note_on,1,0,0,,12,,,83,127
65084,note_on,0,0,0,,2,,,86,127
65188,note_off,104,0,0,,2,,,86,127
65188,note_off,0,0,0,,12,,,83,127
65189,note_on,1,0,0,,4,,,88,127
65189,note_on,0,0,0,,1,,,85,127
65287,note_off,98,0,0,,4,,,40,127
65292,note_off,5,0,0,,1,,,85,127
65292,note_off,0,0,0,,4,,,88,127
65293,note_on,1,0,0,,12,,,83,127
65293,note_on,0,0,0,,2,,,86,127
65398,note_on,105,0,0,,12,,,71,127
65502,note_off,104,0,0,,12,,,71,127
65502,note_off,0,0,0,,2,,,86,127
65502,note_off,0,0,0,,12,,,83,127
65503,note_on,1,0,0,,10,,,69,127
65503,note_on,0,0,0,,12,,,83,127
65503,note_on,0,0,0,,2,,,86,127
65607,note_off,104,0,0,,10,,,69,127
65608,note_on,1,0,0,,12,,,71,127
65712,note_off,104,0,0,,12,,,71,127
65712,note_off,0,0,0,,2,,,86,127
65712,note_off,0,0,0,,12,,,83,127
65713,note_on,1,0,0,,1,,,73,127
65713,note_on,0,0,0,,12,,,83,127
65713,note_on,0,0,0,,2,,,86,127
65817,note_off,104,0,0,,1,,,73,127
65818,note_on,1,0,0,,12,,,71,127
65922,note_off,104,0,0,,12,,,71,127
65923,note_on,1,0,0,,10,,,33,127
66027,note_off,104,0,0,,2,,,86,127
66027,note_off,0,0,0,,12,,,83,127
66028,note_on,1,0,0,,2,,,86,127
66028,note_on,0,0,0,,12,,,83,127
66132,note_off,104,0,0,,12,,,83,127
66132,note_off,0,0,0,,2,,,86,127
66133,note_on,1,0,0,,1,,,85,127
66133,note_on,0,0,0,,10,,,81,127
66237,note_off,104,0,0,,10,,,81,127
66237,note_off,0,0,0,,1,,,85,127
66238,note_on,1,0,0,,2,,,86,127
66238,note_on,0,0,0,,12,,,83,127
66342,note_off,104,0,0,,12,,,83,127
66342,note_off,0,0,0,,2,,,86,127
66343,note_on,1,0,0,,1,,,85,127
66343,note_on,0,0,0,,4,,,88,127
66447,note_off,104,0,0,,4,,,88,127
66447,note_off,0,0,0,,1,,,85,127
66448,note_on,1,0,0,,2,,,86,127
66448,note_on,0,0,0,,6,,,90,127
66546,note_off,98,0,0,,10,,,33,127
66551,note_off,5,0,0,,6,,,90,127
66551,note_off,0,0,0,,2,,,86,127
66552,note_on,1,0,0,,4,,,88,127
66552,note_on,0,0,0,,1,,,85,127
66657,note_on,105,0,0,,10,,,69,127
66761,note_off,104,0,0,,10,,,69,127
66761,note_off,0,0,0,,1,,,85,127
66761,note_off,0,0,0,,4,,,88,127
66762,note_on,1,0,0,,8,,,68,127
66762,note_on,0,0,0,,1,,,85,127
66762,note_on,0,0,0,,4,,,88,127
66866,note_off,104,0,0,,8,,,68,127
66867,note_on,1,0,0,,10,,,69,127
66971,note_off,104,0,0,,10,,,69,127
66971,note_off,0,0,0,,4,,,88,127
66971,note_off,0,0,0,,1,,,85,127
66972,note_on,1,0,0,,12,,,71,127
66972,note_on,0,0,0,,4,,,88,127
66972,note_on,0,0,0,,1,,,85,127
67076,note_off,104,0,0,,12,,,71,127
67077,note_on,1,0,0,,10,,,69,127
67181,note_off,104,0,0,,10,,,69,127
67182,note_on,1,0,0,,4,,,40,127
67286,note_off,104,0,0,,1,,,85,127
67286,note_off,0,0,0,,4,,,88,127
67287,note_on,1,0,0,,1,,,85,127
67287,note_on,0,0,0,,10,,,81,127
67391,note_off,104,0,0,,10,,,81,127
67391,note_off,0,0,0,,1,,,85,127
67392,note_on,1,0,0,,12,,,83,127
67392,note_on,0,0,0,,8,,,80,127
67496,note_off,104,0,0,,8,,,80,127
67496,note_off,0,0,0,,12,,,83,127
67497,note_on,1,0,0,,1,,,85,127
67497,note_on,0,0,0,,10,,,81,127
67601,note_off,104,0,0,,10,,,81,127
67601,note_off,0,0,0,,1,,,85,127
67602,note_on,1,0,0,,12,,,83,127
67602,note_on,0,0,0,,2,,,86,127
67706,note_off,104,0,0,,2,,,86,127
67706,note_off,0,0,0,,12,,,83,127
67707,note_on,1,0,0,,4,,,88,127
67707,note_on,0,0,0,,1,,,85,127
67805,note_off,98,0,0,,4,,,40,127
67810,note_off,5,0,0,,1,,,85,127
67810,note_off,0,0,0,,4,,,88,127
67811,note_on,1,0,0,,2,,,86,127
67811,note_on,0,0,0,,12,,,83,127
67916,note_on,105,0,0,,12,,,71,127
68020,note_off,104,0,0,,12,,,71,127
68020,note_off,0,0,0,,12,,,83,127
68020,note_off,0,0,0,,2,,,86,127
68021,note_on,1,0,0,,10,,,69,127
68021,note_on,0,0,0,,12,,,83,127
68021,note_on,0,0,0,,2,,,86,127
68125,note_off,104,0,0,,10,,,69,127
68126,note_on,1,0,0,,12,,,71,127
68230,note_off,104,0,0,,12,,,71,127
68230,note_off,0,0,0,,2,,,86,127
68230,note_off,0,0,0,,12,,,83,127
68231,note_on,1,0,0,,1,,,73,127
68231,note_on,0,0,0,,12,,,83,127
68231,note_on,0,0,0,,2,,,86,127
68335,note_off,104,0,0,,1,,,73,127
68336,note_on,1,0,0,,12,,,71,127
68440,note_off,104,0,0,,12,,,71,127
68441,note_on,1,0,0,,10,,,33,127
68545,note_off,104,0,0,,2,,,86,127
68545,note_off,0,0,0,,12,,,83,127
68546,note_on,1,0,0,,2,,,86,127
68546,note_on,0,0,0,,12,,,83,127
68650,note_off,104,0,0,,12,,,83,127
68650,note_off,0,0,0,,2,,,86,127
68651,note_on,1,0,0,,1,,,85,127
68651,note_on,0,0,0,,10,,,81,127
68755,note_off,104,0,0,,10,,,81,127
68755,note_off,0,0,0,,1,,,85,127
68756,note_on,1,0,0,,12,,,83,127
68756,note_on,0,0,0,,2,,,86,127
68860,note_off,104,0,0,,2,,,86,127
68860,note_off,0,0,0,,12,,,83,127
68861,note_on,1,0,0,,4,,,88,127
68861,note_on,0,0,0,,1,,,85,127
68965,note_off,104,0,0,,1,,,85,127
68966,note_on,1,0,0,,10,,,81,127
69069,note_off,103,0,0,,4,,,88,127
69070,note_off,1,0,0,,10,,,81,127
69070,note_off,0,0,0,,10,,,33,127
69071,note_on,1,0,0,,2,,,38,127
69071,note_on,0,0,0,,2,,,50,127
69071,note_on,0,0,0,,2,,,86,127
69071,note_on,0,0,0,,6,,,90,127
69175,note_off,104,0,0,,2,,,86,127
69176,note_on,1,0,0,,10,,,81,127
69279,note_off,103,0,0,,6,,,90,127
69280,note_off,1,0,0,,10,,,81,127
69280,note_off,0,0,0,,2,,,50,127
69280,note_off,0,0,0,,2,,,38,127
69281,note_on,1,0,0,,4,,,52,127
69281,note_on,0,0,0,,4,,,88,127
69281,note_on,0,0,0,,1,,,85,127
69385,note_off,104,0,0,,1,,,85,127
69385,note_off,0,0,0,,4,,,88,127
69386,note_on,1,0,0,,2,,,86,127
69386,note_on,0,0,0,,12,,,83,127
69490,note_off,104,0,0,,12,,,83,127
69490,note_off,0,0,0,,2,,,86,127
69491,note_on,1,0,0,,4,,,40,127
69491,note_on,0,0,0,,10,,,81,127
69491,note_on,0,0,0,,1,,,85,127
69595,note_off,104,0,0,,1,,,85,127
69595,note_off,0,0,0,,10,,,81,127
69596,note_on,1,0,0,,12,,,83,127
69596,note_on,0,0,0,,8,,,80,127
69696,note_off,100,0,0,,4,,,52,127
69699,note_off,3,0,0,,8,,,80,127
69699,note_off,0,0,0,,12,,,83,127
69699,note_off,0,0,0,,4,,,40,127
69700,note_on,1,0,0,,10,,,45,127
69700,note_on,0,0,0,,10,,,81,127
69804,note_off,104,0,0,,10,,,45,127
69823,note_on,19,0,0,,10,,,69,127
69909,note_off,86,0,0,,10,,,81,127
69926,note_off,17,0,0,,10,,,69,127
69927,note_on,1,0,0,,4,,,76,127
69927,note_on,0,0,0,,8,,,68,127
70031,note_off,104,0,0,,8,,,68,127
70032,note_on,1,0,0,,10,,,69,127
70136,note_off,104,0,0,,10,,,69,127
70136,note_off,0,0,0,,4,,,76,127
70137,note_on,1,0,0,,4,,,76,127
70137,note_on,0,0,0,,8,,,68,127
70241,note_off,104,0,0,,8,,,68,127
70242,note_on,1,0,0,,10,,,69,127
70346,note_off,104,0,0,,10,,,69,127
70346,note_off,0,0,0,,4,,,76,127
70347,note_on,1,0,0,,4,,,76,127
70347,note_on,0,0,0,,12,,,71,127
70451,note_off,104,0,0,,12,,,71,127
70452,note_on,1,0,0,,10,,,69,127
70556,note_off,104,0,0,,10,,,69,127
70556,note_off,0,0,0,,4,,,76,127
70557,note_on,1,0,0,,4,,,76,127
70557,note_on,0,0,0,,4,,,88,127
70557,note_on,0,0,0,,8,,,68,127
70661,note_off,104,0,0,,8,,,68,127
70662,note_on,1,0,0,,6,,,66,127
70766,note_off,104,0,0,,6,,,66,127
70766,note_off,0,0,0,,4,,,88,127
70766,note_off,0,0,0,,4,,,76,127
70767,note_on,1,0,0,,4,,,88,127
70767,note_on,0,0,0,,4,,,76,127
70767,note_on,0,0,0,,4,,,64,127
70871,note_off,104,0,0,,4,,,64,127
70872,note_on,1,0,0,,2,,,62,127
70976,note_off,104,0,0,,2,,,62,127
70976,note_off,0,0,0,,4,,,76,127
70976,note_off,0,0,0,,4,,,88,127
70977,note_on,1,0,0,,4,,,76,127
70977,note_on,0,0,0,,4,,,88,127
70977,note_on,0,0,0,,1,,,61,127
71081,note_off,104,0,0,,1,,,61,127
71082,note_on,1,0,0,,12,,,59,127
71186,note_off,104,0,0,,12,,,59,127
71186,note_off,0,0,0,,4,,,88,127
71187,note_on,1,0,0,,2,,,86,127
71187,note_on,0,0,0,,10,,,57,127
71291,note_off,104,0,0,,10,,,57,127
71292,note_on,1,0,0,,8,,,56,127
71396,note_off,104,0,0,,8,,,56,127
71396,note_off,0,0,0,,2,,,86,127
71397,note_on,1,0,0,,1,,,85,127
71397,note_on,0,0,0,,6,,,54,127
71501,note_off,104,0,0,,6,,,54,127
71502,note_on,1,0,0,,4,,,52,127
71600,note_off,98,0,0,,4,,,76,127
71605,note_off,5,0,0,,4,,,52,127
71605,note_off,0,0,0,,1,,,85,127
71606,note_on,1,0,0,,12,,,83,127
71606,note_on,0,0,0,,2,,,50,127
71746,note_on,140,0,0,,2,,,74,127
71815,note_off,69,0,0,,2,,,74,127
71815,note_off,0,0,0,,2,,,50,127
71816,note_on,1,0,0,,1,,,73,127
71816,note_on,0,0,0,,4,,,52,127
71912,note_off,96,0,0,,12,,,83,127
71921,note_on,9,0,0,,10,,,81,127
72024,note_off,103,0,0,,1,,,73,127
72025,note_off,1,0,0,,4,,,52,127
72026,note_on,1,0,0,,12,,,71,127
72026,note_on,0,0,0,,4,,,40,127
72129,note_off,103,0,0,,10,,,81,127
72131,note_on,2,0,0,,8,,,80,127
72234,note_off,103,0,0,,12,,,71,127
72235,note_off,1,0,0,,8,,,80,127
72235,note_off,0,0,0,,4,,,40,127
72236,note_on,1,0,0,,10,,,69,127
72236,note_on,0,0,0,,10,,,81,127
72236,note_on,0,0,0,,10,,,45,127
72340,note_off,104,0,0,,10,,,45,127
72359,note_on,19,0,0,,10,,,57,127
72445,note_off,86,0,0,,10,,,81,127
72445,note_off,0,0,0,,10,,,69,127
72462,note_off,17,0,0,,10,,,57,127
72463,note_on,1,0,0,,8,,,56,127
72463,note_on,0,0,0,,4,,,64,127
72567,note_off,104,0,0,,8,,,56,127
72568,note_on,1,0,0,,10,,,57,127
72672,note_off,104,0,0,,10,,,57,127
72672,note_off,0,0,0,,4,,,64,127
72673,note_on,1,0,0,,8,,,56,127
72673,note_on,0,0,0,,4,,,64,127
72777,note_off,104,0,0,,8,,,56,127
72778,note_on,1,0,0,,10,,,57,127
72882,note_off,104,0,0,,10,,,57,127
72882,note_off,0,0,0,,4,,,64,127
72883,note_on,1,0,0,,12,,,59,127
72883,note_on,0,0,0,,4,,,64,127
72987,note_off,104,0,0,,12,,,59,127
72988,note_on,1,0,0,,10,,,57,127
73092,note_off,104,0,0,,10,,,57,127
73092,note_off,0,0,0,,4,,,64,127
73093,note_on,1,0,0,,8,,,56,127
73093,note_on,0,0,0,,4,,,64,127
73093,note_on,0,0,0,,4,,,76,127
73197,note_off,104,0,0,,8,,,56,127
73198,note_on,1,0,0,,6,,,54,127
73302,note_off,104,0,0,,6,,,54,127
73302,note_off,0,0,0,,4,,,76,127
73302,note_off,0,0,0,,4,,,64,127
73303,note_on,1,0,0,,4,,,52,127
73303,note_on,0,0,0,,4,,,76,127
73303,note_on,0,0,0,,4,,,64,127
73407,note_off,104,0,0,,4,,,52,127
73408,note_on,1,0,0,,2,,,50,127
73512,note_off,104,0,0,,2,,,50,127
73512,note_off,0,0,0,,4,,,64,127
73512,note_off,0,0,0,,4,,,76,127
73513,note_on,1,0,0,,1,,,49,127
73513,note_on,0,0,0,,4,,,76,127
73513,note_on,0,0,0,,4,,,64,127
73617,note_off,104,0,0,,1,,,49,127
73618,note_on,1,0,0,,12,,,47,127
73722,note_off,104,0,0,,12,,,47,127
73722,note_off,0,0,0,,4,,,76,127
73723,note_on,1,0,0,,10,,,45,127
73723,note_on,0,0,0,,2,,,74,127
73827,note_off,104,0,0,,10,,,45,127
73828,note_on,1,0,0,,8,,,44,127
73932,note_off,104,0,0,,8,,,44,127
73932,note_off,0,0,0,,2,,,74,127
73933,note_on,1,0,0,,6,,,42,127
73933,note_on,0,0,0,,1,,,73,127
74037,note_off,104,0,0,,6,,,42,127
74038,note_on,1,0,0,,4,,,40,127
74136,note_off,98,0,0,,4,,,64,127
74141,note_off,5,0,0,,4,,,40,127
74141,note_off,0,0,0,,1,,,73,127
74142,note_on,1,0,0,,2,,,38,127
74142,note_on,0,0,0,,12,,,71,127
74282,note_on,140,0,0,,2,,,62,127
74351,note_off,69,0,0,,2,,,62,127
74351,note_off,0,0,0,,2,,,38,127
74352,note_on,1,0,0,,4,,,40,127
74352,note_on,0,0,0,,1,,,61,127
74448,note_off,96,0,0,,12,,,71,127
74457,note_on,9,0,0,,10,,,69,127
74560,note_off,103,0,0,,1,,,61,127
74561,note_off,1,0,0,,4,,,40,127
74562,note_on,1,0,0,,4,,,40,127
74562,note_on,0,0,0,,12,,,59,127
74665,note_off,103,0,0,,10,,,69,127
74667,note_on,2,0,0,,8,,,68,127
74771,note_off,104,0,0,,4,,,40,127
74780,note_off,9,0,0,,12,,,59,127
74782,note_off,2,0,0,,8,,,68,127
74790,note_on,8,0,0,,10,,,69,127
74790,note_on,0,0,0,,10,,,45,127
74790,note_on,0,0,0,,10,,,33,127
74894,note_off,104,0,0,,10,,,69,127
74895,note_on,1,0,0,,4,,,64,127
74999,note_off,104,0,0,,4,,,64,127
74999,note_off,0,0,0,,10,,,33,127
74999,note_off,0,0,0,,10,,,45,127
75000,note_on,1,0,0,,6,,,66,127
75000,note_on,0,0,0,,2,,,38,127
75000,note_on,0,0,0,,2,,,50,127
75104,note_off,104,0,0,,6,,,66,127
75105,note_on,1,0,0,,10,,,69,127
75209,note_off,104,0,0,,10,,,69,127
75209,note_off,0,0,0,,2,,,50,127
75209,note_off,0,0,0,,2,,,38,127
75210,note_on,1,0,0,,8,,,68,127
75210,note_on,0,0,0,,4,,,40,127
75210,note_on,0,0,0,,4,,,52,127
75314,note_off,104,0,0,,8,,,68,127
75315,note_on,1,0,0,,12,,,71,127
75419,note_off,104,0,0,,12,,,71,127
75419,note_off,0,0,0,,4,,,52,127
75419,note_off,0,0,0,,4,,,40,127
75427,note_on,8,0,0,,10,,,33,127
75427,note_on,0,0,0,,10,,,45,127
75427,note_on,0,0,0,,10,,,69,127
75531,note_off,104,0,0,,10,,,69,127
75532,note_on,1,0,0,,1,,,73,127
75636,note_off,104,0,0,,1,,,73,127
75636,note_off,0,0,0,,10,,,45,127
75636,note_off,0,0,0,,10,,,33,127
75637,note_on,1,0,0,,2,,,50,127
75637,note_on,0,0,0,,2,,,38,127
75637,note_on,0,0,0,,12,,,71,127
75741,note_off,104,0,0,,12,,,71,127
75742,note_on,1,0,0,,2,,,74,127
75846,note_off,104,0,0,,2,,,74,127
75846,note_off,0,0,0,,2,,,38,127
75846,note_off,0,0,0,,2,,,50,127
75847,note_on,1,0,0,,4,,,52,127
75847,note_on,0,0,0,,4,,,40,127
75847,note_on,0,0,0,,1,,,73,127
75951,note_off,104,0,0,,1,,,73,127
75952,note_on,1,0,0,,12,,,71,127
76056,note_off,104,0,0,,12,,,71,127
76056,note_off,0,0,0,,4,,,40,127
76056,note_off,0,0,0,,4,,,52,127
76064,note_on,8,0,0,,10,,,81,127
76064,note_on,0,0,0,,10,,,69,127
76064,note_on,0,0,0,,10,,,45,127
76064,note_on,0,0,0,,10,,,33,127
76168,note_off,104,0,0,,10,,,69,127
76169,note_on,1,0,0,,4,,,76,127
76273,note_off,104,0,0,,4,,,76,127
76273,note_off,0,0,0,,10,,,33,127
76273,note_off,0,0,0,,10,,,45,127
76274,note_on,1,0,0,,6,,,78,127
76274,note_on,0,0,0,,2,,,38,127
76274,note_on,0,0,0,,2,,,50,127
76378,note_off,104,0,0,,6,,,78,127
76379,note_on,1,0,0,,2,,,74,127
76483,note_off,104,0,0,,2,,,74,127
76483,note_off,0,0,0,,2,,,50,127
76483,note_off,0,0,0,,2,,,38,127
76484,note_on,1,0,0,,12,,,71,127
76484,note_on,0,0,0,,4,,,52,127
76484,note_on,0,0,0,,4,,,40,127
76589,note_off,105,0,0,,10,,,81,127
76589,note_on,0,0,0,,8,,,80,127
76692,note_off,103,0,0,,12,,,71,127
76693,note_off,1,0,0,,8,,,80,127
76693,note_off,0,0,0,,4,,,40,127
76693,note_off,0,0,0,,4,,,52,127
76705,note_on,12,0,0,,10,,,33,127
76705,note_on,0,0,0,,10,,,45,127
76705,note_on,0,0,0,,10,,,81,127
76809,note_off,104,0,0,,10,,,81,127
76810,note_on,1,0,0,,4,,,76,127
76914,note_off,104,0,0,,4,,,76,127
76914,note_off,0,0,0,,10,,,45,127
76914,note_off,0,0,0,,10,,,33,127
76915,note_on,1,0,0,,12,,,35,127
76915,note_on,0,0,0,,12,,,47,127
76915,note_on,0,0,0,,1,,,73,127
77019,note_off,104,0,0,,1,,,73,127
77020,note_on,1,0,0,,10,,,69,127
77124,note_off,104,0,0,,10,,,69,127
77124,note_off,0,0,0,,12,,,47,127
77124,note_off,0,0,0,,12,,,35,127
77125,note_on,1,0,0,,1,,,37,127
77125,note_on,0,0,0,,1,,,49,127
77125,note_on,0,0,0,,4,,,64,127
77229,note_off,104,0,0,,4,,,64,127
77230,note_on,1,0,0,,10,,,69,127
77334,note_off,104,0,0,,10,,,69,127
77334,note_off,0,0,0,,1,,,49,127
77334,note_off,0,0,0,,1,,,37,127
77335,note_on,1,0,0,,2,,,50,127
77335,note_on,0,0,0,,2,,,38,127
77335,note_on,0,0,0,,6,,,66,127
77442,note_off,107,0,0,,6,,,66,127
77444,note_on,2,0,0,,10,,,69,127
77551,note_off,107,0,0,,10,,,69,127
77552,note_off,1,0,0,,2,,,38,127
77552,note_off,0,0,0,,2,,,50,127
77555,note_on,3,0,0,,4,,,52,127
77555,note_on,0,0,0,,1,,,61,127
77662,note_off,107,0,0,,1,,,61,127
77666,note_on,4,0,0,,10,,,69,127
77773,note_off,107,0,0,,10,,,69,127
77777,note_on,4,0,0,,4,,,40,127
77777,note_on,0,0,0,,12,,,59,127
77884,note_off,107,0,0,,12,,,59,127
77888,note_on,4,0,0,,8,,,68,127
77988,note_off,100,0,0,,4,,,52,127
77992,note_off,4,0,0,,8,,,68,127
77993,note_off,1,0,0,,4,,,40,127
77998,note_on,5,0,0,,10,,,45,127
77998,note_on,0,0,0,,8,,,68,127
78324,note_on,326,0,0,,10,,,33,127
78650,note_off,326,0,0,,8,,,68,127
78658,note_on,8,0,0,,10,,,69,127
80363,note_off,1705,0,0,,10,,,69,127
80363,note_off,0,0,0,,10,,,33,127
80363,note_off,0,0,0,,10,,,45,127
84480,end_of_track,4117,1,0,,,,,,
