tick,type,time,meta,track,program,channel,pitch,tempo,note,velocity
0,copyright,0,1,0,,,,,,
0,program_change,0,0,0,6,0,,,,
0,pitchwheel,0,0,0,,0,0,,,
0,program_change,0,0,0,6,1,,,,
0,pitchwheel,0,0,0,,1,-590,,,
0,program_change,0,0,0,6,2,,,,
0,pitchwheel,0,0,0,,2,-272,,,
0,program_change,0,0,0,6,3,,,,
0,pitchwheel,0,0,0,,3,-353,,,
0,program_change,0,0,0,6,4,,,,
0,pitchwheel,0,0,0,,4,-560,,,
0,program_change,0,0,0,6,5,,,,
0,pitchwheel,0,0,0,,5,-80,,,
0,program_change,0,0,0,6,6,,,,
0,pitchwheel,0,0,0,,6,-625,,,
0,program_change,0,0,0,6,7,,,,
0,pitchwheel,0,0,0,,7,-130,,,
0,program_change,0,0,0,6,8,,,,
0,pitchwheel,0,0,0,,8,-512,,,
0,program_change,0,0,0,6,10,,,,
0,pitchwheel,0,0,0,,10,-464,,,
0,program_change,0,0,0,6,11,,,,
0,pitchwheel,0,0,0,,11,-208,,,
0,program_change,0,0,0,6,12,,,,
0,pitchwheel,0,0,0,,12,-553,,,
0,set_tempo,0,1,0,,,,500000,,
68,note_on,68,0,0,,4,,,76,127
158,note_off,90,0,0,,4,,,76,127
159,note_on,1,0,0,,5,,,77,127
249,note_off,90,0,0,,5,,,77,127
250,note_on,1,0,0,,7,,,79,127
340,note_off,90,0,0,,7,,,79,127
341,note_on,1,0,0,,10,,,81,127
431,note_off,90,0,0,,10,,,81,127
432,note_on,1,0,0,,12,,,83,127
522,note_off,90,0,0,,12,,,83,127
523,note_on,1,0,0,,0,,,84,127
793,note_off,270,0,0,,0,,,84,127
794,note_on,1,0,0,,10,,,81,127
794,note_on,0,0,0,,5,,,77,127
1064,note_off,270,0,0,,5,,,77,127
1064,note_off,0,0,0,,10,,,81,127
1065,note_on,1,0,0,,4,,,76,127
1065,note_on,0,0,0,,7,,,79,127
1335,note_off,270,0,0,,7,,,79,127
1335,note_off,0,0,0,,4,,,76,127
1336,note_on,1,0,0,,5,,,77,127
1336,note_on,0,0,0,,2,,,74,127
1606,note_off,270,0,0,,2,,,74,127
1606,note_off,0,0,0,,5,,,77,127
1607,note_on,1,0,0,,0,,,72,127
1607,note_on,0,0,0,,4,,,76,127
1877,note_off,270,0,0,,4,,,76,127
1877,note_off,0,0,0,,0,,,72,127
1878,note_on,1,0,0,,7,,,67,127
1878,note_on,0,0,0,,2,,,74,127
2148,note_off,270,0,0,,2,,,74,127
2148,note_off,0,0,0,,7,,,67,127
2149,note_on,1,0,0,,0,,,72,127
2149,note_on,0,0,0,,4,,,64,127
2237,note_off,88,0,0,,4,,,64,127
2239,note_on,2,0,0,,4,,,64,127
2329,note_off,90,0,0,,4,,,64,127
2330,note_on,1,0,0,,5,,,65,127
2420,note_off,90,0,0,,5,,,65,127
2421,note_on,1,0,0,,7,,,67,127
2511,note_off,90,0,0,,7,,,67,127
2512,note_on,1,0,0,,10,,,69,127
2602,note_off,90,0,0,,10,,,69,127
2603,note_on,1,0,0,,12,,,71,127
2693,note_off,90,0,0,,12,,,71,127
2693,note_off,0,0,0,,0,,,72,127
2694,note_on,1,0,0,,0,,,72,127
2964,note_off,270,0,0,,0,,,72,127
2965,note_on,1,0,0,,10,,,69,127
2965,note_on,0,0,0,,5,,,65,127
3235,note_off,270,0,0,,5,,,65,127
3235,note_off,0,0,0,,10,,,69,127
3236,note_on,1,0,0,,4,,,64,127
3236,note_on,0,0,0,,7,,,67,127
3506,note_off,270,0,0,,7,,,67,127
3506,note_off,0,0,0,,4,,,64,127
3507,note_on,1,0,0,,2,,,62,127
3507,note_on,0,0,0,,5,,,65,127
3777,note_off,270,0,0,,5,,,65,127
3777,note_off,0,0,0,,2,,,62,127
3778,note_on,1,0,0,,4,,,64,127
3778,note_on,0,0,0,,0,,,60,127
4048,note_off,270,0,0,,0,,,60,127
4048,note_off,0,0,0,,4,,,64,127
4049,note_on,1,0,0,,2,,,62,127
4049,note_on,0,0,0,,7,,,55,127
4319,note_off,270,0,0,,7,,,55,127
4319,note_off,0,0,0,,2,,,62,127
4320,note_on,1,0,0,,0,,,60,127
4320,note_on,0,0,0,,4,,,52,127
4602,note_on,282,0,0,,0,,,72,127
4872,note_off,270,0,0,,0,,,72,127
4873,note_on,1,0,0,,2,,,74,127
4926,note_off,53,0,0,,2,,,74,127
4927,note_on,1,0,0,,0,,,72,127
4980,note_off,53,0,0,,0,,,72,127
4981,note_on,1,0,0,,2,,,74,127
5034,note_off,53,0,0,,2,,,74,127
5035,note_on,1,0,0,,0,,,72,127
5060,note_off,25,0,0,,4,,,52,127
5088,note_off,28,0,0,,0,,,72,127
5089,note_on,1,0,0,,2,,,74,127
5131,note_off,42,0,0,,0,,,60,127
5142,note_off,11,0,0,,2,,,74,127
5143,note_on,1,0,0,,4,,,52,127
5143,note_on,0,0,0,,0,,,60,127
5143,note_on,0,0,0,,0,,,72,127
5196,note_off,53,0,0,,0,,,72,127
5197,note_on,1,0,0,,2,,,74,127
5250,note_off,53,0,0,,2,,,74,127
5251,note_on,1,0,0,,0,,,72,127
5304,note_off,53,0,0,,0,,,72,127
5305,note_on,1,0,0,,12,,,71,127
5358,note_off,53,0,0,,12,,,71,127
5359,note_on,1,0,0,,0,,,72,127
5412,note_off,53,0,0,,0,,,72,127
5413,note_off,1,0,0,,0,,,60,127
5413,note_off,0,0,0,,4,,,52,127
5414,note_on,1,0,0,,0,,,60,127
5414,note_on,0,0,0,,5,,,53,127
5414,note_on,0,0,0,,10,,,69,127
5684,note_off,270,0,0,,10,,,69,127
5685,note_on,1,0,0,,0,,,72,127
5955,note_off,270,0,0,,0,,,72,127
5956,note_on,1,0,0,,2,,,74,127
6009,note_off,53,0,0,,2,,,74,127
6010,note_on,1,0,0,,0,,,72,127
6063,note_off,53,0,0,,0,,,72,127
6064,note_on,1,0,0,,2,,,74,127
6117,note_off,53,0,0,,2,,,74,127
6118,note_on,1,0,0,,0,,,72,127
6171,note_off,53,0,0,,0,,,72,127
6172,note_on,1,0,0,,2,,,74,127
6176,note_off,4,0,0,,5,,,53,127
6225,note_off,49,0,0,,2,,,74,127
6226,note_off,1,0,0,,0,,,60,127
6227,note_on,1,0,0,,5,,,53,127
6227,note_on,0,0,0,,0,,,60,127
6227,note_on,0,0,0,,0,,,72,127
6280,note_off,53,0,0,,0,,,72,127
6281,note_on,1,0,0,,2,,,74,127
6334,note_off,53,0,0,,2,,,74,127
6335,note_on,1,0,0,,0,,,72,127
6388,note_off,53,0,0,,0,,,72,127
6389,note_on,1,0,0,,12,,,71,127
6442,note_off,53,0,0,,12,,,71,127
6443,note_on,1,0,0,,0,,,72,127
6496,note_off,53,0,0,,0,,,72,127
6497,note_off,1,0,0,,0,,,60,127
6497,note_off,0,0,0,,5,,,53,127
6498,note_on,1,0,0,,4,,,52,127
6498,note_on,0,0,0,,0,,,60,127
6498,note_on,0,0,0,,7,,,67,127
6768,note_off,270,0,0,,7,,,67,127
6769,note_on,1,0,0,,0,,,72,127
7039,note_off,270,0,0,,0,,,72,127
7040,note_on,1,0,0,,2,,,74,127
7093,note_off,53,0,0,,2,,,74,127
7094,note_on,1,0,0,,0,,,72,127
7147,note_off,53,0,0,,0,,,72,127
7148,note_on,1,0,0,,2,,,74,127
7201,note_off,53,0,0,,2,,,74,127
7202,note_on,1,0,0,,0,,,72,127
7255,note_off,53,0,0,,0,,,72,127
7256,note_on,1,0,0,,2,,,74,127
7281,note_off,25,0,0,,4,,,52,127
7309,note_off,28,0,0,,2,,,74,127
7310,note_off,1,0,0,,0,,,60,127
7311,note_on,1,0,0,,4,,,52,127
7311,note_on,0,0,0,,0,,,60,127
7311,note_on,0,0,0,,0,,,72,127
7364,note_off,53,0,0,,0,,,72,127
7365,note_on,1,0,0,,2,,,74,127
7418,note_off,53,0,0,,2,,,74,127
7419,note_on,1,0,0,,0,,,72,127
7472,note_off,53,0,0,,0,,,72,127
7473,note_on,1,0,0,,12,,,71,127
7526,note_off,53,0,0,,12,,,71,127
7527,note_on,1,0,0,,0,,,72,127
7580,note_off,53,0,0,,0,,,72,127
7581,note_off,1,0,0,,0,,,60,127
7581,note_off,0,0,0,,4,,,52,127
7582,note_on,1,0,0,,0,,,60,127
7582,note_on,0,0,0,,5,,,53,127
7582,note_on,0,0,0,,10,,,69,127
7852,note_off,270,0,0,,10,,,69,127
7852,note_off,0,0,0,,5,,,53,127
7852,note_off,0,0,0,,0,,,60,127
7853,note_on,1,0,0,,5,,,41,127
7853,note_on,0,0,0,,10,,,81,127
8123,note_off,270,0,0,,5,,,41,127
8124,note_on,1,0,0,,7,,,43,127
8394,note_off,270,0,0,,7,,,43,127
8394,note_off,0,0,0,,10,,,81,127
8395,note_on,1,0,0,,7,,,55,127
8395,note_on,0,0,0,,7,,,79,127
8530,note_off,135,0,0,,7,,,79,127
8531,note_on,1,0,0,,2,,,74,127
8666,note_off,135,0,0,,2,,,74,127
8666,note_off,0,0,0,,7,,,55,127
8667,note_on,1,0,0,,0,,,48,127
8667,note_on,0,0,0,,4,,,76,127
8937,note_off,270,0,0,,4,,,76,127
8949,note_on,12,0,0,,0,,,72,127
9219,note_off,270,0,0,,0,,,72,127
9220,note_on,1,0,0,,2,,,74,127
9273,note_off,53,0,0,,2,,,74,127
9274,note_on,1,0,0,,0,,,72,127
9327,note_off,53,0,0,,0,,,72,127
9328,note_on,1,0,0,,2,,,74,127
9358,note_off,30,0,0,,0,,,48,127
9381,note_off,23,0,0,,2,,,74,127
9382,note_on,1,0,0,,0,,,72,127
9435,note_off,53,0,0,,0,,,72,127
9436,note_on,1,0,0,,2,,,74,127
9489,note_off,53,0,0,,2,,,74,127
9490,note_on,1,0,0,,0,,,72,127
9490,note_on,0,0,0,,0,,,60,127
9490,note_on,0,0,0,,4,,,52,127
9543,note_off,53,0,0,,0,,,72,127
9544,note_on,1,0,0,,2,,,74,127
9597,note_off,53,0,0,,2,,,74,127
9598,note_on,1,0,0,,0,,,72,127
9651,note_off,53,0,0,,0,,,72,127
9652,note_on,1,0,0,,12,,,71,127
9705,note_off,53,0,0,,12,,,71,127
9706,note_on,1,0,0,,0,,,72,127
9759,note_off,53,0,0,,0,,,72,127
9760,note_off,1,0,0,,4,,,52,127
9760,note_off,0,0,0,,0,,,60,127
9761,note_on,1,0,0,,10,,,69,127
9761,note_on,0,0,0,,0,,,60,127
9761,note_on,0,0,0,,5,,,53,127
10031,note_off,270,0,0,,5,,,53,127
10031,note_off,0,0,0,,0,,,60,127
10031,note_off,0,0,0,,10,,,69,127
10032,note_on,1,0,0,,10,,,81,127
10032,note_on,0,0,0,,5,,,41,127
10302,note_off,270,0,0,,5,,,41,127
10303,note_on,1,0,0,,7,,,43,127
10573,note_off,270,0,0,,7,,,43,127
10573,note_off,0,0,0,,10,,,81,127
10574,note_on,1,0,0,,7,,,79,127
10574,note_on,0,0,0,,7,,,55,127
10709,note_off,135,0,0,,7,,,79,127
10710,note_on,1,0,0,,2,,,74,127
10845,note_off,135,0,0,,2,,,74,127
10845,note_off,0,0,0,,7,,,55,127
10846,note_on,1,0,0,,4,,,76,127
10846,note_on,0,0,0,,0,,,48,127
11128,note_off,282,0,0,,4,,,76,127
11139,note_on,11,0,0,,0,,,72,127
11149,note_off,10,0,0,,0,,,48,127
11274,note_off,125,0,0,,0,,,72,127
11275,note_on,1,0,0,,7,,,67,127
11410,note_off,135,0,0,,7,,,67,127
11411,note_on,1,0,0,,5,,,77,127
11681,note_off,270,0,0,,5,,,77,127
11682,note_on,1,0,0,,4,,,76,127
11682,note_on,0,0,0,,0,,,60,127
11817,note_off,135,0,0,,0,,,60,127
11818,note_on,1,0,0,,7,,,55,127
11953,note_off,135,0,0,,7,,,55,127
11953,note_off,0,0,0,,4,,,76,127
11954,note_on,1,0,0,,2,,,74,127
11954,note_on,0,0,0,,5,,,65,127
12224,note_off,270,0,0,,5,,,65,127
12224,note_off,0,0,0,,2,,,74,127
12225,note_on,1,0,0,,0,,,72,127
12225,note_on,0,0,0,,4,,,64,127
12495,note_off,270,0,0,,4,,,64,127
12495,note_off,0,0,0,,0,,,72,127
12496,note_on,1,0,0,,4,,,76,127
12496,note_on,0,0,0,,5,,,65,127
12631,note_off,135,0,0,,4,,,76,127
12632,note_on,1,0,0,,2,,,74,127
12767,note_off,135,0,0,,2,,,74,127
12767,note_off,0,0,0,,5,,,65,127
12768,note_on,1,0,0,,0,,,72,127
12768,note_on,0,0,0,,7,,,67,127
12903,note_off,135,0,0,,0,,,72,127
12904,note_on,1,0,0,,12,,,71,127
13039,note_off,135,0,0,,12,,,71,127
13039,note_off,0,0,0,,7,,,67,127
13040,note_on,1,0,0,,0,,,72,127
13040,note_on,0,0,0,,0,,,60,127
13310,note_off,270,0,0,,0,,,72,127
13322,note_on,12,0,0,,0,,,72,127
13457,note_off,135,0,0,,0,,,72,127
13458,note_on,1,0,0,,7,,,67,127
13520,note_off,62,0,0,,0,,,60,127
13593,note_off,73,0,0,,7,,,67,127
13594,note_on,1,0,0,,7,,,79,127
13864,note_off,270,0,0,,7,,,79,127
13865,note_on,1,0,0,,0,,,60,127
13865,note_on,0,0,0,,5,,,77,127
14000,note_off,135,0,0,,0,,,60,127
14001,note_on,1,0,0,,7,,,55,127
14136,note_off,135,0,0,,7,,,55,127
14136,note_off,0,0,0,,5,,,77,127
14137,note_on,1,0,0,,7,,,67,127
14137,note_on,0,0,0,,4,,,76,127
14407,note_off,270,0,0,,4,,,76,127
14407,note_off,0,0,0,,7,,,67,127
14408,note_on,1,0,0,,5,,,65,127
14408,note_on,0,0,0,,2,,,74,127
14678,note_off,270,0,0,,2,,,74,127
14678,note_off,0,0,0,,5,,,65,127
14679,note_on,1,0,0,,7,,,67,127
14679,note_on,0,0,0,,5,,,77,127
14814,note_off,135,0,0,,5,,,77,127
14815,note_on,1,0,0,,4,,,76,127
14950,note_off,135,0,0,,4,,,76,127
14950,note_off,0,0,0,,7,,,67,127
14951,note_on,1,0,0,,10,,,69,127
14951,note_on,0,0,0,,2,,,74,127
15086,note_off,135,0,0,,2,,,74,127
15087,note_on,1,0,0,,1,,,73,127
15222,note_off,135,0,0,,1,,,73,127
15222,note_off,0,0,0,,10,,,69,127
15223,note_on,1,0,0,,2,,,62,127
15223,note_on,0,0,0,,2,,,74,127
15493,note_off,270,0,0,,2,,,74,127
15516,note_on,23,0,0,,10,,,81,127
15628,note_off,112,0,0,,2,,,62,127
15786,note_off,158,0,0,,10,,,81,127
15787,note_on,1,0,0,,7,,,79,127
15787,note_on,0,0,0,,10,,,81,127
15877,note_off,90,0,0,,10,,,81,127
15877,note_off,0,0,0,,7,,,79,127
15878,note_on,1,0,0,,5,,,77,127
15968,note_off,90,0,0,,5,,,77,127
15969,note_on,1,0,0,,4,,,76,127
16059,note_off,90,0,0,,4,,,76,127
16060,note_on,1,0,0,,2,,,62,127
16060,note_on,0,0,0,,11,,,70,127
16060,note_on,0,0,0,,2,,,74,127
16150,note_off,90,0,0,,2,,,74,127
16151,note_on,1,0,0,,1,,,73,127
16241,note_off,90,0,0,,1,,,73,127
16242,note_on,1,0,0,,2,,,74,127
16332,note_off,90,0,0,,2,,,74,127
16332,note_off,0,0,0,,11,,,70,127
16332,note_off,0,0,0,,2,,,62,127
16333,note_on,1,0,0,,10,,,69,127
16333,note_on,0,0,0,,1,,,61,127
16333,note_on,0,0,0,,4,,,76,127
16603,note_off,270,0,0,,4,,,76,127
16604,note_on,1,0,0,,7,,,79,127
16874,note_off,270,0,0,,7,,,79,127
16874,note_off,0,0,0,,1,,,61,127
16875,note_on,1,0,0,,5,,,77,127
16875,note_on,0,0,0,,7,,,79,127
16965,note_off,90,0,0,,7,,,79,127
16965,note_off,0,0,0,,5,,,77,127
16966,note_on,1,0,0,,4,,,76,127
17056,note_off,90,0,0,,4,,,76,127
17057,note_on,1,0,0,,2,,,74,127
17147,note_off,90,0,0,,2,,,74,127
17147,note_off,0,0,0,,10,,,69,127
17148,note_on,1,0,0,,11,,,58,127
17148,note_on,0,0,0,,7,,,67,127
17148,note_on,0,0,0,,2,,,74,127
17148,note_on,0,0,0,,4,,,76,127
17238,note_off,90,0,0,,4,,,76,127
17238,note_off,0,0,0,,2,,,74,127
17239,note_on,1,0,0,,1,,,73,127
17329,note_off,90,0,0,,1,,,73,127
17330,note_on,1,0,0,,2,,,74,127
17420,note_off,90,0,0,,2,,,74,127
17420,note_off,0,0,0,,7,,,67,127
17420,note_off,0,0,0,,11,,,58,127
17421,note_on,1,0,0,,10,,,57,127
17421,note_on,0,0,0,,10,,,69,127
17421,note_on,0,0,0,,4,,,76,127
17691,note_off,270,0,0,,4,,,76,127
17692,note_on,1,0,0,,10,,,81,127
17827,note_off,135,0,0,,10,,,57,127
17963,note_off,136,0,0,,10,,,81,127
17964,note_on,1,0,0,,7,,,79,127
17964,note_on,0,0,0,,10,,,81,127
18054,note_off,90,0,0,,10,,,81,127
18054,note_off,0,0,0,,7,,,79,127
18055,note_on,1,0,0,,5,,,77,127
18145,note_off,90,0,0,,5,,,77,127
18146,note_on,1,0,0,,4,,,76,127
18236,note_off,90,0,0,,4,,,76,127
18236,note_off,0,0,0,,10,,,69,127
18237,note_on,1,0,0,,2,,,62,127
18237,note_on,0,0,0,,11,,,70,127
18237,note_on,0,0,0,,2,,,74,127
18327,note_off,90,0,0,,2,,,74,127
18328,note_on,1,0,0,,1,,,73,127
18418,note_off,90,0,0,,1,,,73,127
18419,note_on,1,0,0,,2,,,74,127
18509,note_off,90,0,0,,2,,,74,127
18509,note_off,0,0,0,,11,,,70,127
18509,note_off,0,0,0,,2,,,62,127
18510,note_on,1,0,0,,1,,,61,127
18510,note_on,0,0,0,,10,,,69,127
18510,note_on,0,0,0,,4,,,76,127
18780,note_off,270,0,0,,4,,,76,127
18781,note_on,1,0,0,,7,,,79,127
19051,note_off,270,0,0,,7,,,79,127
19051,note_off,0,0,0,,1,,,61,127
19052,note_on,1,0,0,,7,,,79,127
19052,note_on,0,0,0,,5,,,77,127
19142,note_off,90,0,0,,5,,,77,127
19142,note_off,0,0,0,,7,,,79,127
19143,note_on,1,0,0,,4,,,76,127
19233,note_off,90,0,0,,4,,,76,127
19234,note_on,1,0,0,,2,,,74,127
19324,note_off,90,0,0,,2,,,74,127
19324,note_off,0,0,0,,10,,,69,127
19325,note_on,1,0,0,,7,,,67,127
19325,note_on,0,0,0,,11,,,58,127
19325,note_on,0,0,0,,4,,,76,127
19325,note_on,0,0,0,,2,,,74,127
19415,note_off,90,0,0,,2,,,74,127
19415,note_off,0,0,0,,4,,,76,127
19416,note_on,1,0,0,,1,,,73,127
19506,note_off,90,0,0,,1,,,73,127
19507,note_on,1,0,0,,2,,,74,127
19597,note_off,90,0,0,,2,,,74,127
19597,note_off,0,0,0,,11,,,58,127
19597,note_off,0,0,0,,7,,,67,127
19598,note_on,1,0,0,,10,,,57,127
19598,note_on,0,0,0,,10,,,69,127
19598,note_on,0,0,0,,4,,,76,127
19868,note_off,270,0,0,,4,,,76,127
19869,note_on,1,0,0,,10,,,81,127
20139,note_off,270,0,0,,10,,,81,127
20151,note_on,12,0,0,,10,,,81,127
20241,note_off,90,0,0,,10,,,81,127
20242,note_on,1,0,0,,8,,,80,127
20332,note_off,90,0,0,,8,,,80,127
20333,note_on,1,0,0,,10,,,81,127
20411,note_off,78,0,0,,10,,,69,127
20411,note_off,0,0,0,,10,,,57,127
20422,note_off,11,0,0,,10,,,81,127
20423,note_on,1,0,0,,7,,,79,127
20423,note_on,0,0,0,,10,,,57,127
20423,note_on,0,0,0,,10,,,45,127
20513,note_off,90,0,0,,7,,,79,127
20514,note_on,1,0,0,,6,,,78,127
20604,note_off,90,0,0,,6,,,78,127
20605,note_on,1,0,0,,7,,,79,127
20695,note_off,90,0,0,,7,,,79,127
20695,note_off,0,0,0,,10,,,45,127
20695,note_off,0,0,0,,10,,,57,127
20696,note_on,1,0,0,,6,,,78,127
20696,note_on,0,0,0,,2,,,62,127
20696,note_on,0,0,0,,2,,,50,127
20786,note_off,90,0,0,,6,,,78,127
20787,note_on,1,0,0,,4,,,76,127
20877,note_off,90,0,0,,4,,,76,127
20878,note_on,1,0,0,,6,,,78,127
20968,note_off,90,0,0,,6,,,78,127
20968,note_off,0,0,0,,2,,,50,127
20968,note_off,0,0,0,,2,,,62,127
20969,note_on,1,0,0,,4,,,76,127
20969,note_on,0,0,0,,0,,,60,127
20969,note_on,0,0,0,,0,,,48,127
21059,note_off,90,0,0,,4,,,76,127
21060,note_on,1,0,0,,2,,,74,127
21150,note_off,90,0,0,,2,,,74,127
21151,note_on,1,0,0,,4,,,76,127
21241,note_off,90,0,0,,4,,,76,127
21241,note_off,0,0,0,,0,,,48,127
21241,note_off,0,0,0,,0,,,60,127
21242,note_on,1,0,0,,2,,,74,127
21242,note_on,0,0,0,,12,,,47,127
21242,note_on,0,0,0,,12,,,59,127
21332,note_off,90,0,0,,2,,,74,127
21333,note_on,1,0,0,,0,,,72,127
21423,note_off,90,0,0,,0,,,72,127
21424,note_on,1,0,0,,2,,,74,127
21514,note_off,90,0,0,,2,,,74,127
21514,note_off,0,0,0,,12,,,59,127
21514,note_off,0,0,0,,12,,,47,127
21515,note_on,1,0,0,,0,,,72,127
21515,note_on,0,0,0,,10,,,57,127
21515,note_on,0,0,0,,10,,,45,127
21605,note_off,90,0,0,,0,,,72,127
21606,note_on,1,0,0,,12,,,71,127
21696,note_off,90,0,0,,12,,,71,127
21697,note_on,1,0,0,,0,,,72,127
21787,note_off,90,0,0,,0,,,72,127
21787,note_off,0,0,0,,10,,,45,127
21787,note_off,0,0,0,,10,,,57,127
21788,note_on,1,0,0,,12,,,71,127
21788,note_on,0,0,0,,7,,,55,127
21788,note_on,0,0,0,,7,,,43,127
22058,note_off,270,0,0,,12,,,71,127
22059,note_on,1,0,0,,7,,,79,127
22329,note_off,270,0,0,,7,,,79,127
22341,note_on,12,0,0,,7,,,79,127
22431,note_off,90,0,0,,7,,,79,127
22432,note_on,1,0,0,,6,,,78,127
22522,note_off,90,0,0,,6,,,78,127
22523,note_on,1,0,0,,7,,,79,127
22601,note_off,78,0,0,,7,,,43,127
22601,note_off,0,0,0,,7,,,55,127
22612,note_off,11,0,0,,7,,,79,127
22613,note_on,1,0,0,,7,,,43,127
22613,note_on,0,0,0,,7,,,55,127
22613,note_on,0,0,0,,6,,,78,127
22703,note_off,90,0,0,,6,,,78,127
22704,note_on,1,0,0,,4,,,76,127
22794,note_off,90,0,0,,4,,,76,127
22795,note_on,1,0,0,,6,,,78,127
22885,note_off,90,0,0,,6,,,78,127
22885,note_off,0,0,0,,7,,,55,127
22885,note_off,0,0,0,,7,,,43,127
22886,note_on,1,0,0,,0,,,48,127
22886,note_on,0,0,0,,0,,,60,127
22886,note_on,0,0,0,,4,,,76,127
22976,note_off,90,0,0,,4,,,76,127
22977,note_on,1,0,0,,2,,,74,127
23067,note_off,90,0,0,,2,,,74,127
23068,note_on,1,0,0,,4,,,76,127
23158,note_off,90,0,0,,4,,,76,127
23158,note_off,0,0,0,,0,,,60,127
23158,note_off,0,0,0,,0,,,48,127
23159,note_on,1,0,0,,12,,,59,127
23159,note_on,0,0,0,,12,,,47,127
23159,note_on,0,0,0,,2,,,74,127
23249,note_off,90,0,0,,2,,,74,127
23250,note_on,1,0,0,,0,,,72,127
23340,note_off,90,0,0,,0,,,72,127
23341,note_on,1,0,0,,2,,,74,127
23431,note_off,90,0,0,,2,,,74,127
23431,note_off,0,0,0,,12,,,47,127
23431,note_off,0,0,0,,12,,,59,127
23432,note_on,1,0,0,,10,,,45,127
23432,note_on,0,0,0,,10,,,57,127
23432,note_on,0,0,0,,0,,,72,127
23522,note_off,90,0,0,,0,,,72,127
23523,note_on,1,0,0,,12,,,71,127
23613,note_off,90,0,0,,12,,,71,127
23614,note_on,1,0,0,,0,,,72,127
23704,note_off,90,0,0,,0,,,72,127
23704,note_off,0,0,0,,10,,,57,127
23704,note_off,0,0,0,,10,,,45,127
23705,note_on,1,0,0,,7,,,43,127
23705,note_on,0,0,0,,7,,,55,127
23705,note_on,0,0,0,,12,,,71,127
23795,note_off,90,0,0,,12,,,71,127
23796,note_on,1,0,0,,10,,,69,127
23886,note_off,90,0,0,,10,,,69,127
23887,note_on,1,0,0,,12,,,71,127
23977,note_off,90,0,0,,12,,,71,127
23977,note_off,0,0,0,,7,,,55,127
23977,note_off,0,0,0,,7,,,43,127
23978,note_on,1,0,0,,2,,,38,127
23978,note_on,0,0,0,,2,,,50,127
23978,note_on,0,0,0,,10,,,69,127
24068,note_off,90,0,0,,10,,,69,127
24069,note_on,1,0,0,,7,,,67,127
24159,note_off,90,0,0,,7,,,67,127
24160,note_on,1,0,0,,10,,,69,127
24250,note_off,90,0,0,,10,,,69,127
24250,note_off,0,0,0,,2,,,50,127
24250,note_off,0,0,0,,2,,,38,127
24251,note_on,1,0,0,,12,,,47,127
24251,note_on,0,0,0,,12,,,59,127
24251,note_on,0,0,0,,7,,,67,127
24341,note_off,90,0,0,,7,,,67,127
24342,note_on,1,0,0,,6,,,66,127
24432,note_off,90,0,0,,6,,,66,127
24433,note_on,1,0,0,,7,,,67,127
24523,note_off,90,0,0,,7,,,67,127
24523,note_off,0,0,0,,12,,,59,127
24523,note_off,0,0,0,,12,,,47,127
24524,note_on,1,0,0,,10,,,45,127
24524,note_on,0,0,0,,10,,,57,127
24524,note_on,0,0,0,,6,,,66,127
24614,note_off,90,0,0,,6,,,66,127
24615,note_on,1,0,0,,7,,,67,127
24705,note_off,90,0,0,,7,,,67,127
24706,note_on,1,0,0,,6,,,66,127
24796,note_off,90,0,0,,6,,,66,127
24796,note_off,0,0,0,,10,,,57,127
24796,note_off,0,0,0,,10,,,45,127
24797,note_on,1,0,0,,7,,,43,127
24797,note_on,0,0,0,,7,,,55,127
24797,note_on,0,0,0,,10,,,69,127
24797,note_on,0,0,0,,7,,,67,127
24887,note_off,90,0,0,,7,,,67,127
24887,note_off,0,0,0,,10,,,69,127
24888,note_on,1,0,0,,6,,,66,127
24978,note_off,90,0,0,,6,,,66,127
24979,note_on,1,0,0,,7,,,67,127
25069,note_off,90,0,0,,7,,,67,127
25069,note_off,0,0,0,,7,,,55,127
25069,note_off,0,0,0,,7,,,43,127
25070,note_on,1,0,0,,2,,,38,127
25070,note_on,0,0,0,,2,,,50,127
25070,note_on,0,0,0,,10,,,69,127
25160,note_off,90,0,0,,10,,,69,127
25161,note_on,1,0,0,,7,,,67,127
25251,note_off,90,0,0,,7,,,67,127
25252,note_on,1,0,0,,10,,,69,127
25342,note_off,90,0,0,,10,,,69,127
25342,note_off,0,0,0,,2,,,50,127
25342,note_off,0,0,0,,2,,,38,127
25343,note_on,1,0,0,,12,,,47,127
25343,note_on,0,0,0,,12,,,35,127
25343,note_on,0,0,0,,7,,,67,127
25433,note_off,90,0,0,,7,,,67,127
25434,note_on,1,0,0,,6,,,66,127
25524,note_off,90,0,0,,6,,,66,127
25525,note_on,1,0,0,,7,,,67,127
25615,note_off,90,0,0,,7,,,67,127
25615,note_off,0,0,0,,12,,,35,127
25615,note_off,0,0,0,,12,,,47,127
25616,note_on,1,0,0,,10,,,45,127
25616,note_on,0,0,0,,10,,,33,127
25616,note_on,0,0,0,,6,,,66,127
25706,note_off,90,0,0,,6,,,66,127
25707,note_on,1,0,0,,7,,,67,127
25797,note_off,90,0,0,,7,,,67,127
25798,note_on,1,0,0,,6,,,66,127
25888,note_off,90,0,0,,6,,,66,127
25888,note_off,0,0,0,,10,,,33,127
25888,note_off,0,0,0,,10,,,45,127
25889,note_on,1,0,0,,7,,,43,127
25889,note_on,0,0,0,,7,,,31,127
25889,note_on,0,0,0,,10,,,69,127
25889,note_on,0,0,0,,7,,,67,127
25979,note_off,90,0,0,,7,,,67,127
25979,note_off,0,0,0,,10,,,69,127
25980,note_on,1,0,0,,6,,,66,127
26070,note_off,90,0,0,,6,,,66,127
26071,note_on,1,0,0,,7,,,67,127
26161,note_off,90,0,0,,7,,,67,127
26161,note_off,0,0,0,,7,,,31,127
26161,note_off,0,0,0,,7,,,43,127
26162,note_on,1,0,0,,2,,,38,127
26162,note_on,0,0,0,,2,,,50,127
26162,note_on,0,0,0,,10,,,69,127
26252,note_off,90,0,0,,10,,,69,127
26253,note_on,1,0,0,,7,,,67,127
26343,note_off,90,0,0,,7,,,67,127
26344,note_on,1,0,0,,10,,,69,127
26434,note_off,90,0,0,,10,,,69,127
26434,note_off,0,0,0,,2,,,50,127
26434,note_off,0,0,0,,2,,,38,127
26435,note_on,1,0,0,,12,,,47,127
26435,note_on,0,0,0,,12,,,35,127
26435,note_on,0,0,0,,7,,,67,127
26525,note_off,90,0,0,,7,,,67,127
26526,note_on,1,0,0,,6,,,66,127
26616,note_off,90,0,0,,6,,,66,127
26617,note_on,1,0,0,,7,,,67,127
26707,note_off,90,0,0,,7,,,67,127
26707,note_off,0,0,0,,12,,,35,127
26707,note_off,0,0,0,,12,,,47,127
26708,note_on,1,0,0,,10,,,45,127
26708,note_on,0,0,0,,10,,,33,127
26708,note_on,0,0,0,,6,,,66,127
26798,note_off,90,0,0,,6,,,66,127
26799,note_on,1,0,0,,7,,,67,127
26889,note_off,90,0,0,,7,,,67,127
26890,note_on,1,0,0,,6,,,66,127
26980,note_off,90,0,0,,6,,,66,127
26980,note_off,0,0,0,,10,,,33,127
26980,note_off,0,0,0,,10,,,45,127
26981,note_on,1,0,0,,7,,,43,127
26981,note_on,0,0,0,,7,,,31,127
26981,note_on,0,0,0,,7,,,67,127
26981,note_on,0,0,0,,10,,,69,127
27071,note_off,90,0,0,,10,,,69,127
27071,note_off,0,0,0,,7,,,67,127
27072,note_on,1,0,0,,6,,,66,127
27162,note_off,90,0,0,,6,,,66,127
27163,note_on,1,0,0,,7,,,67,127
27252,note_off,89,0,0,,7,,,67,127
27253,note_off,1,0,0,,7,,,31,127
27253,note_off,0,0,0,,7,,,43,127
27253,note_on,0,0,0,,12,,,71,127
27254,note_on,1,0,0,,2,,,38,127
27254,note_on,0,0,0,,2,,,50,127
27254,note_on,0,0,0,,10,,,69,127
27274,note_off,20,0,0,,12,,,71,127
27307,note_off,33,0,0,,10,,,69,127
27308,note_on,1,0,0,,7,,,67,127
27361,note_off,53,0,0,,7,,,67,127
27362,note_on,1,0,0,,10,,,69,127
27415,note_off,53,0,0,,10,,,69,127
27416,note_on,1,0,0,,7,,,67,127
27469,note_off,53,0,0,,7,,,67,127
27470,note_on,1,0,0,,10,,,69,127
27523,note_off,53,0,0,,10,,,69,127
27524,note_on,1,0,0,,7,,,67,127
27577,note_off,53,0,0,,7,,,67,127
27578,note_on,1,0,0,,10,,,69,127
27631,note_off,53,0,0,,10,,,69,127
27632,note_on,1,0,0,,7,,,67,127
27685,note_off,53,0,0,,7,,,67,127
27686,note_on,1,0,0,,6,,,66,127
27739,note_off,53,0,0,,6,,,66,127
27740,note_on,1,0,0,,7,,,67,127
27793,note_off,53,0,0,,7,,,67,127
27794,note_on,1,0,0,,10,,,69,127
28335,note_off,541,0,0,,2,,,38,127
28367,note_off,32,0,0,,2,,,50,127
28401,note_off,34,0,0,,10,,,69,127
28438,note_on,37,0,0,,7,,,55,127
28438,note_on,0,0,0,,7,,,43,127
28709,note_on,271,0,0,,7,,,79,127
28844,note_off,135,0,0,,7,,,79,127
28845,note_on,1,0,0,,2,,,74,127
28981,note_on,136,0,0,,11,,,82,127
29116,note_off,135,0,0,,2,,,74,127
29252,note_off,136,0,0,,11,,,82,127
29253,note_on,1,0,0,,10,,,81,127
29253,note_on,0,0,0,,0,,,72,127
29523,note_off,270,0,0,,0,,,72,127
29523,note_off,0,0,0,,10,,,81,127
29523,note_off,0,0,0,,7,,,43,127
29523,note_off,0,0,0,,7,,,55,127
29524,note_on,1,0,0,,11,,,70,127
29524,note_on,0,0,0,,7,,,79,127
29524,note_on,0,0,0,,7,,,55,127
29524,note_on,0,0,0,,7,,,43,127
29794,note_off,270,0,0,,7,,,79,127
29794,note_off,0,0,0,,11,,,70,127
29795,note_on,1,0,0,,0,,,72,127
29931,note_on,136,0,0,,3,,,63,127
30066,note_off,135,0,0,,3,,,63,127
30066,note_off,0,0,0,,0,,,72,127
30067,note_on,1,0,0,,11,,,70,127
30067,note_on,0,0,0,,2,,,62,127
30337,note_off,270,0,0,,2,,,62,127
30337,note_off,0,0,0,,11,,,70,127
30338,note_on,1,0,0,,6,,,66,127
30338,note_on,0,0,0,,10,,,69,127
30608,note_off,270,0,0,,10,,,69,127
30608,note_off,0,0,0,,6,,,66,127
30608,note_off,0,0,0,,7,,,43,127
30608,note_off,0,0,0,,7,,,55,127
30609,note_on,1,0,0,,7,,,67,127
30609,note_on,0,0,0,,7,,,55,127
30609,note_on,0,0,0,,7,,,43,127
30879,note_off,270,0,0,,7,,,67,127
30891,note_on,12,0,0,,7,,,79,127
31026,note_off,135,0,0,,7,,,79,127
31027,note_on,1,0,0,,2,,,74,127
31163,note_on,136,0,0,,11,,,82,127
31298,note_off,135,0,0,,2,,,74,127
31434,note_off,136,0,0,,11,,,82,127
31435,note_on,1,0,0,,0,,,72,127
31435,note_on,0,0,0,,10,,,81,127
31694,note_off,259,0,0,,7,,,43,127
31694,note_off,0,0,0,,7,,,55,127
31705,note_off,11,0,0,,10,,,81,127
31705,note_off,0,0,0,,0,,,72,127
31706,note_on,1,0,0,,7,,,43,127
31706,note_on,0,0,0,,7,,,55,127
31706,note_on,0,0,0,,11,,,70,127
31706,note_on,0,0,0,,7,,,79,127
31976,note_off,270,0,0,,7,,,79,127
31976,note_off,0,0,0,,11,,,70,127
31977,note_on,1,0,0,,0,,,72,127
32113,note_on,136,0,0,,3,,,63,127
32248,note_off,135,0,0,,3,,,63,127
32248,note_off,0,0,0,,0,,,72,127
32249,note_on,1,0,0,,2,,,62,127
32249,note_on,0,0,0,,11,,,70,127
32519,note_off,270,0,0,,11,,,70,127
32519,note_off,0,0,0,,2,,,62,127
32520,note_on,1,0,0,,6,,,66,127
32520,note_on,0,0,0,,10,,,69,127
32790,note_off,270,0,0,,10,,,69,127
32790,note_off,0,0,0,,6,,,66,127
32790,note_off,0,0,0,,7,,,55,127
32790,note_off,0,0,0,,7,,,43,127
32791,note_on,1,0,0,,7,,,43,127
32791,note_on,0,0,0,,7,,,55,127
32791,note_on,0,0,0,,7,,,67,127
33061,note_off,270,0,0,,7,,,67,127
33073,note_on,12,0,0,,7,,,79,127
33209,note_on,136,0,0,,12,,,71,127
33344,note_off,135,0,0,,12,,,71,127
33344,note_off,0,0,0,,7,,,79,127
33345,note_on,1,0,0,,8,,,80,127
33345,note_on,0,0,0,,0,,,72,127
33615,note_off,270,0,0,,0,,,72,127
33615,note_off,0,0,0,,8,,,80,127
33616,note_on,1,0,0,,7,,,79,127
33616,note_on,0,0,0,,11,,,70,127
33875,note_off,259,0,0,,7,,,55,127
33875,note_off,0,0,0,,7,,,43,127
33886,note_off,11,0,0,,11,,,70,127
33886,note_off,0,0,0,,7,,,79,127
33887,note_on,1,0,0,,5,,,77,127
33887,note_on,0,0,0,,8,,,68,127
33887,note_on,0,0,0,,7,,,43,127
33887,note_on,0,0,0,,7,,,55,127
34157,note_off,270,0,0,,8,,,68,127
34157,note_off,0,0,0,,5,,,77,127
34158,note_on,1,0,0,,12,,,71,127
34294,note_on,136,0,0,,2,,,62,127
34429,note_off,135,0,0,,2,,,62,127
34429,note_off,0,0,0,,12,,,71,127
34430,note_on,1,0,0,,0,,,72,127
34430,note_on,0,0,0,,3,,,63,127
34700,note_off,270,0,0,,3,,,63,127
34700,note_off,0,0,0,,0,,,72,127
34701,note_on,1,0,0,,2,,,74,127
34701,note_on,0,0,0,,5,,,65,127
34971,note_off,270,0,0,,5,,,65,127
34971,note_off,0,0,0,,2,,,74,127
34971,note_off,0,0,0,,7,,,55,127
34971,note_off,0,0,0,,7,,,43,127
34972,note_on,1,0,0,,12,,,71,127
34972,note_on,0,0,0,,7,,,67,127
34972,note_on,0,0,0,,7,,,55,127
34972,note_on,0,0,0,,7,,,43,127
35242,note_off,270,0,0,,7,,,67,127
35242,note_off,0,0,0,,12,,,71,127
35254,note_on,12,0,0,,7,,,79,127
35390,note_on,136,0,0,,12,,,71,127
35525,note_off,135,0,0,,12,,,71,127
35525,note_off,0,0,0,,7,,,79,127
35526,note_on,1,0,0,,0,,,72,127
35526,note_on,0,0,0,,8,,,80,127
35796,note_off,270,0,0,,8,,,80,127
35796,note_off,0,0,0,,0,,,72,127
35797,note_on,1,0,0,,11,,,70,127
35797,note_on,0,0,0,,7,,,79,127
36056,note_off,259,0,0,,7,,,43,127
36056,note_off,0,0,0,,7,,,55,127
36067,note_off,11,0,0,,7,,,79,127
36067,note_off,0,0,0,,11,,,70,127
36068,note_on,1,0,0,,7,,,43,127
36068,note_on,0,0,0,,7,,,55,127
36068,note_on,0,0,0,,5,,,77,127
36068,note_on,0,0,0,,8,,,68,127
36338,note_off,270,0,0,,8,,,68,127
36338,note_off,0,0,0,,5,,,77,127
36339,note_on,1,0,0,,12,,,71,127
36475,note_on,136,0,0,,2,,,62,127
36610,note_off,135,0,0,,2,,,62,127
36610,note_off,0,0,0,,12,,,71,127
36611,note_on,1,0,0,,3,,,63,127
36611,note_on,0,0,0,,0,,,72,127
36881,note_off,270,0,0,,0,,,72,127
36881,note_off,0,0,0,,3,,,63,127
36882,note_on,1,0,0,,5,,,65,127
36882,note_on,0,0,0,,2,,,74,127
37152,note_off,270,0,0,,2,,,74,127
37152,note_off,0,0,0,,5,,,65,127
37152,note_off,0,0,0,,7,,,55,127
37152,note_off,0,0,0,,7,,,43,127
37164,note_on,12,0,0,,12,,,71,127
37164,note_on,0,0,0,,7,,,67,127
37164,note_on,0,0,0,,7,,,55,127
37164,note_on,0,0,0,,7,,,43,127
37434,note_off,270,0,0,,7,,,67,127
37434,note_off,0,0,0,,12,,,71,127
37435,note_on,1,0,0,,7,,,67,127
37435,note_on,0,0,0,,12,,,71,127
37705,note_off,270,0,0,,12,,,71,127
37705,note_off,0,0,0,,7,,,67,127
37705,note_off,0,0,0,,7,,,55,127
37706,note_on,1,0,0,,0,,,72,127
37706,note_on,0,0,0,,8,,,68,127
37706,note_on,0,0,0,,5,,,53,127
37977,note_on,271,0,0,,0,,,60,127
38247,note_off,270,0,0,,0,,,60,127
38247,note_off,0,0,0,,5,,,53,127
38247,note_off,0,0,0,,8,,,68,127
38247,note_off,0,0,0,,0,,,72,127
38247,note_off,0,0,0,,7,,,43,127
38248,note_on,1,0,0,,12,,,71,127
38248,note_on,0,0,0,,2,,,62,127
38248,note_on,0,0,0,,7,,,67,127
38248,note_on,0,0,0,,7,,,55,127
38248,note_on,0,0,0,,7,,,43,127
38518,note_off,270,0,0,,7,,,67,127
38518,note_off,0,0,0,,2,,,62,127
38518,note_off,0,0,0,,12,,,71,127
38519,note_on,1,0,0,,12,,,71,127
38519,note_on,0,0,0,,7,,,67,127
38789,note_off,270,0,0,,7,,,67,127
38789,note_off,0,0,0,,12,,,71,127
38789,note_off,0,0,0,,7,,,55,127
38790,note_on,1,0,0,,8,,,68,127
38790,note_on,0,0,0,,0,,,72,127
38790,note_on,0,0,0,,5,,,53,127
39061,note_on,271,0,0,,0,,,60,127
39331,note_off,270,0,0,,0,,,60,127
39331,note_off,0,0,0,,5,,,53,127
39331,note_off,0,0,0,,0,,,72,127
39331,note_off,0,0,0,,8,,,68,127
39331,note_off,0,0,0,,7,,,43,127
39343,note_on,12,0,0,,7,,,43,127
39343,note_on,0,0,0,,7,,,55,127
39343,note_on,0,0,0,,7,,,67,127
39343,note_on,0,0,0,,2,,,62,127
39343,note_on,0,0,0,,12,,,71,127
39613,note_off,270,0,0,,12,,,71,127
39613,note_off,0,0,0,,2,,,62,127
39613,note_off,0,0,0,,7,,,67,127
39614,note_on,1,0,0,,5,,,77,127
39614,note_on,0,0,0,,2,,,74,127
39884,note_off,270,0,0,,2,,,74,127
39884,note_off,0,0,0,,5,,,77,127
39884,note_off,0,0,0,,7,,,55,127
39885,note_on,1,0,0,,8,,,56,127
39885,note_on,0,0,0,,3,,,75,127
39885,note_on,0,0,0,,0,,,72,127
40156,note_on,271,0,0,,5,,,65,127
40156,note_on,0,0,0,,8,,,68,127
40426,note_off,270,0,0,,8,,,68,127
40426,note_off,0,0,0,,5,,,65,127
40426,note_off,0,0,0,,0,,,72,127
40426,note_off,0,0,0,,3,,,75,127
40426,note_off,0,0,0,,8,,,56,127
40426,note_off,0,0,0,,7,,,43,127
40427,note_on,1,0,0,,7,,,55,127
40427,note_on,0,0,0,,7,,,43,127
40427,note_on,0,0,0,,7,,,67,127
40427,note_on,0,0,0,,12,,,71,127
40427,note_on,0,0,0,,2,,,74,127
40697,note_off,270,0,0,,2,,,74,127
40697,note_off,0,0,0,,12,,,71,127
40698,note_on,1,0,0,,2,,,74,127
40698,note_on,0,0,0,,5,,,77,127
40968,note_off,270,0,0,,5,,,77,127
40968,note_off,0,0,0,,2,,,74,127
40968,note_off,0,0,0,,7,,,67,127
40968,note_off,0,0,0,,7,,,55,127
40969,note_on,1,0,0,,8,,,56,127
40969,note_on,0,0,0,,3,,,75,127
40969,note_on,0,0,0,,0,,,72,127
41240,note_on,271,0,0,,8,,,68,127
41240,note_on,0,0,0,,5,,,65,127
41510,note_off,270,0,0,,5,,,65,127
41510,note_off,0,0,0,,8,,,68,127
41511,note_off,1,0,0,,0,,,72,127
41511,note_off,0,0,0,,3,,,75,127
41511,note_off,0,0,0,,8,,,56,127
41511,note_off,0,0,0,,7,,,43,127
41522,note_on,11,0,0,,12,,,71,127
41522,note_on,0,0,0,,2,,,74,127
41522,note_on,0,0,0,,7,,,67,127
41523,note_on,1,0,0,,7,,,55,127
41613,note_off,90,0,0,,7,,,55,127
41614,note_on,1,0,0,,12,,,59,127
41704,note_off,90,0,0,,12,,,59,127
41705,note_on,1,0,0,,0,,,60,127
41795,note_off,90,0,0,,0,,,60,127
41796,note_on,1,0,0,,2,,,62,127
41886,note_off,90,0,0,,2,,,62,127
41887,note_on,1,0,0,,4,,,64,127
41977,note_off,90,0,0,,4,,,64,127
41978,note_on,1,0,0,,6,,,66,127
42067,note_off,89,0,0,,7,,,67,127
42068,note_off,1,0,0,,6,,,66,127
42069,note_on,1,0,0,,7,,,67,127
42159,note_off,90,0,0,,2,,,74,127
42159,note_off,0,0,0,,12,,,71,127
42160,note_on,1,0,0,,12,,,71,127
42250,note_off,90,0,0,,12,,,71,127
42251,note_on,1,0,0,,0,,,72,127
42341,note_off,90,0,0,,0,,,72,127
42342,note_on,1,0,0,,2,,,74,127
42432,note_off,90,0,0,,2,,,74,127
42433,note_on,1,0,0,,4,,,76,127
42523,note_off,90,0,0,,4,,,76,127
42524,note_on,1,0,0,,6,,,78,127
42614,note_off,90,0,0,,6,,,78,127
42615,note_on,1,0,0,,7,,,79,127
42885,note_off,270,0,0,,7,,,79,127
42885,note_off,0,0,0,,7,,,67,127
42886,note_on,1,0,0,,4,,,76,127
42886,note_on,0,0,0,,0,,,72,127
42976,note_off,90,0,0,,4,,,76,127
42977,note_on,1,0,0,,2,,,74,127
43067,note_off,90,0,0,,2,,,74,127
43068,note_on,1,0,0,,4,,,76,127
43158,note_off,90,0,0,,4,,,76,127
43158,note_off,0,0,0,,0,,,72,127
43159,note_on,1,0,0,,2,,,74,127
43159,note_on,0,0,0,,12,,,71,127
43249,note_off,90,0,0,,2,,,74,127
43250,note_on,1,0,0,,0,,,72,127
43340,note_off,90,0,0,,0,,,72,127
43341,note_on,1,0,0,,2,,,74,127
43431,note_off,90,0,0,,2,,,74,127
43431,note_off,0,0,0,,12,,,71,127
43432,note_on,1,0,0,,0,,,72,127
43432,note_on,0,0,0,,10,,,69,127
43522,note_off,90,0,0,,0,,,72,127
43523,note_on,1,0,0,,12,,,71,127
43613,note_off,90,0,0,,12,,,71,127
43614,note_on,1,0,0,,0,,,72,127
43704,note_off,90,0,0,,0,,,72,127
43705,note_on,1,0,0,,7,,,67,127
43705,note_on,0,0,0,,12,,,71,127
43795,note_off,90,0,0,,10,,,69,127
43796,note_on,1,0,0,,12,,,59,127
43886,note_off,90,0,0,,12,,,59,127
43887,note_on,1,0,0,,0,,,60,127
43977,note_off,90,0,0,,0,,,60,127
43978,note_on,1,0,0,,2,,,62,127
44068,note_off,90,0,0,,2,,,62,127
44069,note_on,1,0,0,,4,,,64,127
44159,note_off,90,0,0,,4,,,64,127
44160,note_on,1,0,0,,6,,,66,127
44250,note_off,90,0,0,,6,,,66,127
44250,note_off,0,0,0,,7,,,67,127
44251,note_on,1,0,0,,7,,,67,127
44521,note_off,270,0,0,,7,,,67,127
44521,note_off,0,0,0,,12,,,71,127
44522,note_on,1,0,0,,4,,,64,127
44522,note_on,0,0,0,,0,,,60,127
44612,note_off,90,0,0,,4,,,64,127
44613,note_on,1,0,0,,2,,,62,127
44703,note_off,90,0,0,,2,,,62,127
44704,note_on,1,0,0,,4,,,64,127
44794,note_off,90,0,0,,4,,,64,127
44794,note_off,0,0,0,,0,,,60,127
44795,note_on,1,0,0,,2,,,62,127
44795,note_on,0,0,0,,12,,,59,127
44885,note_off,90,0,0,,2,,,62,127
44886,note_on,1,0,0,,0,,,60,127
44976,note_off,90,0,0,,0,,,60,127
44977,note_on,1,0,0,,2,,,62,127
45067,note_off,90,0,0,,2,,,62,127
45067,note_off,0,0,0,,12,,,59,127
45068,note_on,1,0,0,,0,,,60,127
45068,note_on,0,0,0,,10,,,57,127
45158,note_off,90,0,0,,0,,,60,127
45159,note_on,1,0,0,,12,,,59,127
45249,note_off,90,0,0,,12,,,59,127
45250,note_on,1,0,0,,0,,,60,127
45340,note_off,90,0,0,,0,,,60,127
45340,note_off,0,0,0,,10,,,57,127
45341,note_on,1,0,0,,12,,,59,127
45341,note_on,0,0,0,,7,,,55,127
45431,note_off,90,0,0,,12,,,59,127
45432,note_on,1,0,0,,10,,,57,127
45522,note_off,90,0,0,,10,,,57,127
45523,note_on,1,0,0,,12,,,59,127
45613,note_off,90,0,0,,12,,,59,127
45613,note_off,0,0,0,,7,,,55,127
45614,note_on,1,0,0,,10,,,57,127
45614,note_on,0,0,0,,2,,,50,127
45704,note_off,90,0,0,,10,,,57,127
45705,note_on,1,0,0,,7,,,55,127
45795,note_off,90,0,0,,7,,,55,127
45796,note_on,1,0,0,,10,,,57,127
45886,note_off,90,0,0,,10,,,57,127
45886,note_off,0,0,0,,2,,,50,127
45887,note_on,1,0,0,,7,,,43,127
45977,note_on,90,0,0,,12,,,71,127
46067,note_off,90,0,0,,12,,,71,127
46068,note_on,1,0,0,,0,,,72,127
46158,note_off,90,0,0,,0,,,72,127
46159,note_on,1,0,0,,2,,,74,127
46249,note_off,90,0,0,,2,,,74,127
46250,note_on,1,0,0,,4,,,76,127
46340,note_off,90,0,0,,4,,,76,127
46341,note_on,1,0,0,,6,,,78,127
46431,note_off,90,0,0,,6,,,78,127
46432,note_on,1,0,0,,7,,,79,127
46666,note_off,234,0,0,,7,,,43,127
46702,note_off,36,0,0,,7,,,79,127
46703,note_on,1,0,0,,4,,,76,127
46703,note_on,0,0,0,,0,,,48,127
46793,note_off,90,0,0,,4,,,76,127
46794,note_on,1,0,0,,2,,,74,127
46884,note_off,90,0,0,,2,,,74,127
46885,note_on,1,0,0,,4,,,76,127
46975,note_off,90,0,0,,4,,,76,127
46975,note_off,0,0,0,,0,,,48,127
46976,note_on,1,0,0,,2,,,74,127
46976,note_on,0,0,0,,2,,,50,127
47066,note_off,90,0,0,,2,,,74,127
47067,note_on,1,0,0,,0,,,72,127
47157,note_off,90,0,0,,0,,,72,127
47158,note_on,1,0,0,,2,,,74,127
47248,note_off,90,0,0,,2,,,74,127
47249,note_on,1,0,0,,0,,,72,127
47339,note_off,90,0,0,,0,,,72,127
47340,note_on,1,0,0,,12,,,71,127
47430,note_off,90,0,0,,12,,,71,127
47431,note_on,1,0,0,,0,,,72,127
47521,note_off,90,0,0,,0,,,72,127
47521,note_off,0,0,0,,2,,,50,127
47522,note_on,1,0,0,,12,,,71,127
47522,note_on,0,0,0,,2,,,38,127
47612,note_off,90,0,0,,12,,,71,127
47613,note_on,1,0,0,,10,,,69,127
47703,note_off,90,0,0,,10,,,69,127
47704,note_on,1,0,0,,12,,,71,127
47794,note_off,90,0,0,,12,,,71,127
47795,note_on,1,0,0,,10,,,69,127
47885,note_off,90,0,0,,10,,,69,127
47886,note_on,1,0,0,,7,,,67,127
47976,note_off,90,0,0,,7,,,67,127
47977,note_on,1,0,0,,10,,,69,127
48067,note_off,90,0,0,,10,,,69,127
48067,note_off,0,0,0,,2,,,38,127
48068,note_on,1,0,0,,7,,,67,127
48068,note_on,0,0,0,,7,,,43,127
48181,note_on,113,0,0,,7,,,79,127
48266,note_off,85,0,0,,7,,,67,127
48271,note_off,5,0,0,,7,,,79,127
48272,note_on,1,0,0,,6,,,78,127
48362,note_off,90,0,0,,6,,,78,127
48363,note_on,1,0,0,,4,,,76,127
48453,note_off,90,0,0,,4,,,76,127
48454,note_on,1,0,0,,2,,,74,127
48544,note_off,90,0,0,,2,,,74,127
48545,note_on,1,0,0,,0,,,72,127
48635,note_off,90,0,0,,0,,,72,127
48636,note_on,1,0,0,,12,,,71,127
48726,note_off,90,0,0,,12,,,71,127
48727,note_on,1,0,0,,10,,,69,127
48817,note_off,90,0,0,,10,,,69,127
48818,note_on,1,0,0,,7,,,67,127
48908,note_off,90,0,0,,7,,,67,127
48909,note_on,1,0,0,,6,,,66,127
48999,note_off,90,0,0,,6,,,66,127
49000,note_on,1,0,0,,4,,,64,127
49090,note_off,90,0,0,,4,,,64,127
49091,note_on,1,0,0,,2,,,62,127
49158,note_off,67,0,0,,7,,,43,127
49181,note_off,23,0,0,,2,,,62,127
49182,note_on,1,0,0,,0,,,60,127
49272,note_off,90,0,0,,0,,,60,127
49273,note_on,1,0,0,,12,,,59,127
49363,note_off,90,0,0,,12,,,59,127
49364,note_on,1,0,0,,10,,,57,127
49454,note_off,90,0,0,,10,,,57,127
49455,note_on,1,0,0,,7,,,55,127
49545,note_off,90,0,0,,7,,,55,127
49546,note_on,1,0,0,,6,,,54,127
49636,note_off,90,0,0,,6,,,54,127
49637,note_on,1,0,0,,4,,,52,127
49727,note_off,90,0,0,,4,,,52,127
49728,note_on,1,0,0,,2,,,50,127
49818,note_off,90,0,0,,2,,,50,127
49819,note_on,1,0,0,,0,,,48,127
49909,note_off,90,0,0,,0,,,48,127
49910,note_on,1,0,0,,12,,,47,127
50000,note_off,90,0,0,,12,,,47,127
50001,note_on,1,0,0,,10,,,45,127
50091,note_off,90,0,0,,10,,,45,127
50092,note_on,1,0,0,,7,,,43,127
50182,note_off,90,0,0,,7,,,43,127
50183,note_on,1,0,0,,10,,,45,127
50273,note_off,90,0,0,,10,,,45,127
50274,note_on,1,0,0,,2,,,38,127
50545,note_on,271,0,0,,2,,,62,127
50612,note_off,67,0,0,,2,,,62,127
50613,note_on,1,0,0,,4,,,64,127
50680,note_off,67,0,0,,4,,,64,127
50681,note_on,1,0,0,,6,,,66,127
50748,note_off,67,0,0,,6,,,66,127
50749,note_on,1,0,0,,7,,,67,127
50816,note_off,67,0,0,,7,,,67,127
50817,note_on,1,0,0,,12,,,71,127
50871,note_off,54,0,0,,12,,,71,127
50871,note_on,0,0,0,,10,,,69,127
50924,note_off,53,0,0,,10,,,69,127
50925,note_on,1,0,0,,12,,,71,127
50979,note_off,54,0,0,,12,,,71,127
50980,note_on,1,0,0,,10,,,69,127
51033,note_off,53,0,0,,10,,,69,127
51034,note_on,1,0,0,,12,,,71,127
51087,note_off,53,0,0,,12,,,71,127
51088,note_on,1,0,0,,10,,,69,127
51142,note_off,54,0,0,,10,,,69,127
51142,note_on,0,0,0,,12,,,71,127
51196,note_off,54,0,0,,12,,,71,127
51197,note_on,1,0,0,,10,,,69,127
51250,note_off,53,0,0,,10,,,69,127
51251,note_on,1,0,0,,7,,,67,127
51305,note_off,54,0,0,,7,,,67,127
51306,note_on,1,0,0,,10,,,69,127
51359,note_off,53,0,0,,10,,,69,127
51360,note_off,1,0,0,,2,,,38,127
51361,note_on,1,0,0,,7,,,67,127
51361,note_on,0,0,0,,7,,,43,127
51451,note_off,90,0,0,,7,,,67,127
51463,note_on,12,0,0,,7,,,79,127
51553,note_off,90,0,0,,7,,,79,127
51554,note_on,1,0,0,,6,,,78,127
51644,note_off,90,0,0,,6,,,78,127
51645,note_on,1,0,0,,4,,,76,127
51735,note_off,90,0,0,,4,,,76,127
51736,note_on,1,0,0,,2,,,74,127
51826,note_off,90,0,0,,2,,,74,127
51827,note_on,1,0,0,,0,,,72,127
51917,note_off,90,0,0,,0,,,72,127
51918,note_on,1,0,0,,12,,,71,127
52008,note_off,90,0,0,,12,,,71,127
52009,note_on,1,0,0,,10,,,69,127
52099,note_off,90,0,0,,10,,,69,127
52100,note_on,1,0,0,,7,,,67,127
52190,note_off,90,0,0,,7,,,67,127
52191,note_on,1,0,0,,6,,,66,127
52281,note_off,90,0,0,,6,,,66,127
52282,note_on,1,0,0,,4,,,64,127
52372,note_off,90,0,0,,4,,,64,127
52373,note_on,1,0,0,,2,,,62,127
52451,note_off,78,0,0,,7,,,43,127
52462,note_off,11,0,0,,2,,,62,127
52463,note_on,1,0,0,,0,,,60,127
52553,note_off,90,0,0,,0,,,60,127
52554,note_on,1,0,0,,12,,,59,127
52644,note_off,90,0,0,,12,,,59,127
52645,note_on,1,0,0,,10,,,57,127
52735,note_off,90,0,0,,10,,,57,127
52736,note_on,1,0,0,,7,,,55,127
52826,note_off,90,0,0,,7,,,55,127
52827,note_on,1,0,0,,6,,,54,127
52917,note_off,90,0,0,,6,,,54,127
52918,note_on,1,0,0,,4,,,52,127
53008,note_off,90,0,0,,4,,,52,127
53009,note_on,1,0,0,,2,,,50,127
53099,note_off,90,0,0,,2,,,50,127
53100,note_on,1,0,0,,0,,,48,127
53190,note_off,90,0,0,,0,,,48,127
53191,note_on,1,0,0,,12,,,47,127
53281,note_off,90,0,0,,12,,,47,127
53282,note_on,1,0,0,,10,,,45,127
53372,note_off,90,0,0,,10,,,45,127
53373,note_on,1,0,0,,7,,,43,127
53463,note_off,90,0,0,,7,,,43,127
53464,note_on,1,0,0,,10,,,45,127
53554,note_off,90,0,0,,10,,,45,127
53555,note_on,1,0,0,,2,,,38,127
53826,note_on,271,0,0,,2,,,62,127
53893,note_off,67,0,0,,2,,,62,127
53894,note_on,1,0,0,,4,,,64,127
53961,note_off,67,0,0,,4,,,64,127
53962,note_on,1,0,0,,6,,,66,127
54029,note_off,67,0,0,,6,,,66,127
54030,note_on,1,0,0,,7,,,67,127
54097,note_off,67,0,0,,7,,,67,127
54098,note_on,1,0,0,,12,,,71,127
54151,note_off,53,0,0,,12,,,71,127
54152,note_on,1,0,0,,10,,,69,127
54205,note_off,53,0,0,,10,,,69,127
54206,note_on,1,0,0,,12,,,71,127
54259,note_off,53,0,0,,12,,,71,127
54260,note_on,1,0,0,,10,,,69,127
54313,note_off,53,0,0,,10,,,69,127
54314,note_on,1,0,0,,12,,,71,127
54367,note_off,53,0,0,,12,,,71,127
54368,note_on,1,0,0,,10,,,69,127
54421,note_off,53,0,0,,10,,,69,127
54422,note_on,1,0,0,,12,,,71,127
54473,note_off,51,0,0,,2,,,38,127
54475,note_off,2,0,0,,12,,,71,127
54476,note_on,1,0,0,,10,,,69,127
54529,note_off,53,0,0,,10,,,69,127
54530,note_on,1,0,0,,7,,,67,127
54583,note_off,53,0,0,,7,,,67,127
54584,note_on,1,0,0,,10,,,69,127
54637,note_off,53,0,0,,10,,,69,127
54638,note_on,1,0,0,,7,,,43,127
54638,note_on,0,0,0,,7,,,55,127
54638,note_on,0,0,0,,10,,,69,127
54682,note_off,44,0,0,,10,,,69,127
54683,note_on,1,0,0,,7,,,67,127
54727,note_off,44,0,0,,7,,,67,127
54728,note_on,1,0,0,,10,,,69,127
54772,note_off,44,0,0,,10,,,69,127
54773,note_on,1,0,0,,7,,,67,127
54817,note_off,44,0,0,,7,,,67,127
54818,note_on,1,0,0,,6,,,66,127
54862,note_off,44,0,0,,6,,,66,127
54863,note_on,1,0,0,,7,,,67,127
54907,note_off,44,0,0,,7,,,67,127
54907,note_off,0,0,0,,7,,,55,127
54907,note_off,0,0,0,,7,,,43,127
54908,note_on,1,0,0,,2,,,38,127
54908,note_on,0,0,0,,2,,,50,127
54908,note_on,0,0,0,,12,,,71,127
54952,note_off,44,0,0,,12,,,71,127
54953,note_on,1,0,0,,10,,,69,127
54997,note_off,44,0,0,,10,,,69,127
54998,note_on,1,0,0,,12,,,71,127
55042,note_off,44,0,0,,12,,,71,127
55043,note_on,1,0,0,,10,,,69,127
55087,note_off,44,0,0,,10,,,69,127
55088,note_on,1,0,0,,7,,,67,127
55132,note_off,44,0,0,,7,,,67,127
55133,note_on,1,0,0,,10,,,69,127
55177,note_off,44,0,0,,10,,,69,127
55177,note_off,0,0,0,,2,,,50,127
55177,note_off,0,0,0,,2,,,38,127
55178,note_on,1,0,0,,7,,,43,127
55178,note_on,0,0,0,,7,,,55,127
55178,note_on,0,0,0,,0,,,72,127
55222,note_off,44,0,0,,0,,,72,127
55223,note_on,1,0,0,,12,,,71,127
55267,note_off,44,0,0,,12,,,71,127
55268,note_on,1,0,0,,0,,,72,127
55312,note_off,44,0,0,,0,,,72,127
55313,note_on,1,0,0,,12,,,71,127
55357,note_off,44,0,0,,12,,,71,127
55358,note_on,1,0,0,,10,,,69,127
55402,note_off,44,0,0,,10,,,69,127
55403,note_on,1,0,0,,12,,,71,127
55447,note_off,44,0,0,,12,,,71,127
55447,note_off,0,0,0,,7,,,55,127
55447,note_off,0,0,0,,7,,,43,127
55448,note_on,1,0,0,,10,,,45,127
55448,note_on,0,0,0,,10,,,57,127
55448,note_on,0,0,0,,2,,,74,127
55492,note_off,44,0,0,,2,,,74,127
55493,note_on,1,0,0,,0,,,72,127
55537,note_off,44,0,0,,0,,,72,127
55538,note_on,1,0,0,,2,,,74,127
55582,note_off,44,0,0,,2,,,74,127
55583,note_on,1,0,0,,0,,,72,127
55627,note_off,44,0,0,,0,,,72,127
55628,note_on,1,0,0,,12,,,71,127
55672,note_off,44,0,0,,12,,,71,127
55673,note_on,1,0,0,,0,,,72,127
55717,note_off,44,0,0,,0,,,72,127
55717,note_off,0,0,0,,10,,,57,127
55717,note_off,0,0,0,,10,,,45,127
55718,note_on,1,0,0,,12,,,47,127
55718,note_on,0,0,0,,12,,,59,127
55718,note_on,0,0,0,,4,,,76,127
55762,note_off,44,0,0,,4,,,76,127
55763,note_on,1,0,0,,2,,,74,127
55807,note_off,44,0,0,,2,,,74,127
55808,note_on,1,0,0,,4,,,76,127
55852,note_off,44,0,0,,4,,,76,127
55853,note_on,1,0,0,,2,,,74,127
55897,note_off,44,0,0,,2,,,74,127
55898,note_on,1,0,0,,0,,,72,127
55942,note_off,44,0,0,,0,,,72,127
55943,note_on,1,0,0,,2,,,74,127
55987,note_off,44,0,0,,2,,,74,127
55987,note_off,0,0,0,,12,,,59,127
55987,note_off,0,0,0,,12,,,47,127
55988,note_on,1,0,0,,0,,,48,127
55988,note_on,0,0,0,,0,,,60,127
55988,note_on,0,0,0,,4,,,76,127
56258,note_off,270,0,0,,0,,,60,127
56258,note_off,0,0,0,,0,,,48,127
56259,note_on,1,0,0,,2,,,62,127
56529,note_off,270,0,0,,2,,,62,127
56529,note_off,0,0,0,,4,,,76,127
56530,note_on,1,0,0,,2,,,50,127
56530,note_on,0,0,0,,2,,,74,127
56597,note_off,67,0,0,,2,,,74,127
56598,note_on,1,0,0,,0,,,72,127
56665,note_off,67,0,0,,0,,,72,127
56666,note_on,1,0,0,,12,,,71,127
56733,note_off,67,0,0,,12,,,71,127
56734,note_on,1,0,0,,10,,,69,127
56801,note_off,67,0,0,,10,,,69,127
56801,note_off,0,0,0,,2,,,50,127
56802,note_on,1,0,0,,7,,,43,127
56802,note_on,0,0,0,,7,,,55,127
56802,note_on,0,0,0,,10,,,69,127
56846,note_off,44,0,0,,10,,,69,127
56847,note_on,1,0,0,,7,,,67,127
56891,note_off,44,0,0,,7,,,67,127
56892,note_on,1,0,0,,10,,,69,127
56936,note_off,44,0,0,,10,,,69,127
56937,note_on,1,0,0,,7,,,67,127
56981,note_off,44,0,0,,7,,,67,127
56982,note_on,1,0,0,,6,,,66,127
57026,note_off,44,0,0,,6,,,66,127
57027,note_on,1,0,0,,7,,,67,127
57071,note_off,44,0,0,,7,,,67,127
57071,note_off,0,0,0,,7,,,55,127
57071,note_off,0,0,0,,7,,,43,127
57072,note_on,1,0,0,,2,,,38,127
57072,note_on,0,0,0,,2,,,50,127
57072,note_on,0,0,0,,12,,,71,127
57116,note_off,44,0,0,,12,,,71,127
57117,note_on,1,0,0,,10,,,69,127
57161,note_off,44,0,0,,10,,,69,127
57162,note_on,1,0,0,,12,,,71,127
57206,note_off,44,0,0,,12,,,71,127
57207,note_on,1,0,0,,10,,,69,127
57251,note_off,44,0,0,,10,,,69,127
57252,note_on,1,0,0,,7,,,67,127
57296,note_off,44,0,0,,7,,,67,127
57297,note_on,1,0,0,,10,,,69,127
57341,note_off,44,0,0,,10,,,69,127
57341,note_off,0,0,0,,2,,,50,127
57341,note_off,0,0,0,,2,,,38,127
57342,note_on,1,0,0,,7,,,55,127
57342,note_on,0,0,0,,7,,,43,127
57342,note_on,0,0,0,,0,,,72,127
57386,note_off,44,0,0,,0,,,72,127
57387,note_on,1,0,0,,12,,,71,127
57431,note_off,44,0,0,,12,,,71,127
57432,note_on,1,0,0,,0,,,72,127
57476,note_off,44,0,0,,0,,,72,127
57477,note_on,1,0,0,,12,,,71,127
57521,note_off,44,0,0,,12,,,71,127
57522,note_on,1,0,0,,10,,,69,127
57566,note_off,44,0,0,,10,,,69,127
57567,note_on,1,0,0,,12,,,71,127
57611,note_off,44,0,0,,12,,,71,127
57611,note_off,0,0,0,,7,,,43,127
57611,note_off,0,0,0,,7,,,55,127
57612,note_on,1,0,0,,10,,,45,127
57612,note_on,0,0,0,,10,,,57,127
57612,note_on,0,0,0,,2,,,74,127
57656,note_off,44,0,0,,2,,,74,127
57657,note_on,1,0,0,,0,,,72,127
57701,note_off,44,0,0,,0,,,72,127
57702,note_on,1,0,0,,2,,,74,127
57746,note_off,44,0,0,,2,,,74,127
57747,note_on,1,0,0,,0,,,72,127
57791,note_off,44,0,0,,0,,,72,127
57792,note_on,1,0,0,,12,,,71,127
57836,note_off,44,0,0,,12,,,71,127
57837,note_on,1,0,0,,0,,,72,127
57881,note_off,44,0,0,,0,,,72,127
57881,note_off,0,0,0,,10,,,57,127
57881,note_off,0,0,0,,10,,,45,127
57882,note_on,1,0,0,,12,,,47,127
57882,note_on,0,0,0,,12,,,59,127
57882,note_on,0,0,0,,4,,,76,127
57926,note_off,44,0,0,,4,,,76,127
57927,note_on,1,0,0,,2,,,74,127
57971,note_off,44,0,0,,2,,,74,127
57972,note_on,1,0,0,,4,,,76,127
58016,note_off,44,0,0,,4,,,76,127
58017,note_on,1,0,0,,2,,,74,127
58061,note_off,44,0,0,,2,,,74,127
58062,note_on,1,0,0,,0,,,72,127
58106,note_off,44,0,0,,0,,,72,127
58107,note_on,1,0,0,,2,,,74,127
58151,note_off,44,0,0,,2,,,74,127
58151,note_off,0,0,0,,12,,,59,127
58151,note_off,0,0,0,,12,,,47,127
58152,note_on,1,0,0,,0,,,48,127
58152,note_on,0,0,0,,0,,,60,127
58152,note_on,0,0,0,,4,,,76,127
58422,note_off,270,0,0,,0,,,60,127
58422,note_off,0,0,0,,0,,,48,127
58423,note_on,1,0,0,,2,,,62,127
58693,note_off,270,0,0,,2,,,62,127
58693,note_off,0,0,0,,4,,,76,127
58694,note_on,1,0,0,,2,,,50,127
58694,note_on,0,0,0,,2,,,74,127
58761,note_off,67,0,0,,2,,,74,127
58762,note_on,1,0,0,,0,,,72,127
58829,note_off,67,0,0,,0,,,72,127
58830,note_on,1,0,0,,12,,,71,127
58897,note_off,67,0,0,,12,,,71,127
58898,note_on,1,0,0,,10,,,69,127
58965,note_off,67,0,0,,10,,,69,127
58965,note_off,0,0,0,,2,,,50,127
58966,note_on,1,0,0,,7,,,55,127
58966,note_on,0,0,0,,7,,,43,127
58966,note_on,0,0,0,,10,,,69,127
59010,note_off,44,0,0,,10,,,69,127
59011,note_on,1,0,0,,7,,,67,127
59055,note_off,44,0,0,,7,,,67,127
59056,note_on,1,0,0,,10,,,69,127
59100,note_off,44,0,0,,10,,,69,127
59101,note_on,1,0,0,,7,,,67,127
59145,note_off,44,0,0,,7,,,67,127
59146,note_on,1,0,0,,6,,,66,127
59190,note_off,44,0,0,,6,,,66,127
59191,note_on,1,0,0,,7,,,67,127
59235,note_off,44,0,0,,7,,,67,127
59235,note_off,0,0,0,,7,,,43,127
59235,note_off,0,0,0,,7,,,55,127
59236,note_on,1,0,0,,2,,,38,127
59236,note_on,0,0,0,,2,,,50,127
59236,note_on,0,0,0,,12,,,71,127
59280,note_off,44,0,0,,12,,,71,127
59281,note_on,1,0,0,,10,,,69,127
59325,note_off,44,0,0,,10,,,69,127
59326,note_on,1,0,0,,12,,,71,127
59370,note_off,44,0,0,,12,,,71,127
59371,note_on,1,0,0,,10,,,69,127
59415,note_off,44,0,0,,10,,,69,127
59416,note_on,1,0,0,,7,,,67,127
59460,note_off,44,0,0,,7,,,67,127
59461,note_on,1,0,0,,10,,,69,127
59505,note_off,44,0,0,,10,,,69,127
59505,note_off,0,0,0,,2,,,50,127
59505,note_off,0,0,0,,2,,,38,127
59506,note_on,1,0,0,,7,,,55,127
59506,note_on,0,0,0,,7,,,43,127
59506,note_on,0,0,0,,0,,,72,127
59550,note_off,44,0,0,,0,,,72,127
59551,note_on,1,0,0,,12,,,71,127
59595,note_off,44,0,0,,12,,,71,127
59596,note_on,1,0,0,,0,,,72,127
59640,note_off,44,0,0,,0,,,72,127
59641,note_on,1,0,0,,12,,,71,127
59685,note_off,44,0,0,,12,,,71,127
59686,note_on,1,0,0,,10,,,69,127
59730,note_off,44,0,0,,10,,,69,127
59731,note_on,1,0,0,,12,,,71,127
59775,note_off,44,0,0,,12,,,71,127
59775,note_off,0,0,0,,7,,,43,127
59775,note_off,0,0,0,,7,,,55,127
59776,note_on,1,0,0,,10,,,45,127
59776,note_on,0,0,0,,10,,,57,127
59776,note_on,0,0,0,,2,,,74,127
59820,note_off,44,0,0,,2,,,74,127
59821,note_on,1,0,0,,0,,,72,127
59865,note_off,44,0,0,,0,,,72,127
59866,note_on,1,0,0,,2,,,74,127
59910,note_off,44,0,0,,2,,,74,127
59911,note_on,1,0,0,,0,,,72,127
59955,note_off,44,0,0,,0,,,72,127
59956,note_on,1,0,0,,12,,,71,127
60000,note_off,44,0,0,,12,,,71,127
60001,note_on,1,0,0,,0,,,72,127
60045,note_off,44,0,0,,0,,,72,127
60045,note_off,0,0,0,,10,,,57,127
60045,note_off,0,0,0,,10,,,45,127
60046,note_on,1,0,0,,12,,,47,127
60046,note_on,0,0,0,,12,,,59,127
60046,note_on,0,0,0,,4,,,76,127
60090,note_off,44,0,0,,4,,,76,127
60091,note_on,1,0,0,,2,,,74,127
60135,note_off,44,0,0,,2,,,74,127
60136,note_on,1,0,0,,4,,,76,127
60180,note_off,44,0,0,,4,,,76,127
60181,note_on,1,0,0,,2,,,74,127
60225,note_off,44,0,0,,2,,,74,127
60226,note_on,1,0,0,,0,,,72,127
60270,note_off,44,0,0,,0,,,72,127
60271,note_on,1,0,0,,2,,,74,127
60315,note_off,44,0,0,,2,,,74,127
60315,note_off,0,0,0,,12,,,59,127
60315,note_off,0,0,0,,12,,,47,127
60316,note_on,1,0,0,,0,,,48,127
60316,note_on,0,0,0,,0,,,60,127
60316,note_on,0,0,0,,6,,,78,127
60360,note_off,44,0,0,,6,,,78,127
60361,note_on,1,0,0,,4,,,76,127
60405,note_off,44,0,0,,4,,,76,127
60406,note_on,1,0,0,,6,,,78,127
60450,note_off,44,0,0,,6,,,78,127
60451,note_on,1,0,0,,4,,,76,127
60495,note_off,44,0,0,,4,,,76,127
60496,note_on,1,0,0,,2,,,74,127
60540,note_off,44,0,0,,2,,,74,127
60541,note_on,1,0,0,,4,,,76,127
60585,note_off,44,0,0,,4,,,76,127
60585,note_off,0,0,0,,0,,,60,127
60585,note_off,0,0,0,,0,,,48,127
60586,note_on,1,0,0,,2,,,62,127
60586,note_on,0,0,0,,7,,,79,127
60630,note_off,44,0,0,,7,,,79,127
60631,note_on,1,0,0,,6,,,78,127
60675,note_off,44,0,0,,6,,,78,127
60676,note_on,1,0,0,,7,,,79,127
60720,note_off,44,0,0,,7,,,79,127
60721,note_on,1,0,0,,6,,,78,127
60765,note_off,44,0,0,,6,,,78,127
60766,note_on,1,0,0,,7,,,79,127
60810,note_off,44,0,0,,7,,,79,127
60811,note_on,1,0,0,,6,,,78,127
60855,note_off,44,0,0,,6,,,78,127
60855,note_off,0,0,0,,2,,,62,127
60856,note_on,1,0,0,,2,,,50,127
60856,note_on,0,0,0,,7,,,79,127
60900,note_off,44,0,0,,7,,,79,127
60901,note_on,1,0,0,,6,,,78,127
60945,note_off,44,0,0,,6,,,78,127
60946,note_on,1,0,0,,7,,,79,127
60990,note_off,44,0,0,,7,,,79,127
60991,note_on,1,0,0,,6,,,78,127
61035,note_off,44,0,0,,6,,,78,127
61036,note_on,1,0,0,,4,,,76,127
61080,note_off,44,0,0,,4,,,76,127
61081,note_on,1,0,0,,6,,,78,127
61125,note_off,44,0,0,,6,,,78,127
61125,note_off,0,0,0,,2,,,50,127
61126,note_on,1,0,0,,7,,,43,127
61126,note_on,0,0,0,,7,,,55,127
61126,note_on,0,0,0,,10,,,81,127
61667,note_off,541,0,0,,10,,,81,127
61668,note_on,1,0,0,,7,,,79,127
62209,note_off,541,0,0,,7,,,55,127
62209,note_off,0,0,0,,7,,,43,127
62244,note_on,35,0,0,,7,,,55,127
62244,note_on,0,0,0,,7,,,43,127
62300,note_off,56,0,0,,7,,,79,127
62335,note_on,35,0,0,,12,,,59,127
62425,note_off,90,0,0,,12,,,59,127
62426,note_on,1,0,0,,0,,,60,127
62516,note_off,90,0,0,,0,,,60,127
62517,note_on,1,0,0,,2,,,62,127
62607,note_off,90,0,0,,2,,,62,127
62608,note_on,1,0,0,,4,,,64,127
62698,note_off,90,0,0,,4,,,64,127
62699,note_on,1,0,0,,6,,,66,127
62789,note_off,90,0,0,,6,,,66,127
62790,note_on,1,0,0,,7,,,67,127
63060,note_off,270,0,0,,7,,,43,127
63060,note_off,0,0,0,,7,,,55,127
63072,note_on,12,0,0,,7,,,55,127
63072,note_on,0,0,0,,0,,,60,127
63072,note_on,0,0,0,,4,,,64,127
63342,note_off,270,0,0,,4,,,64,127
63342,note_off,0,0,0,,0,,,60,127
63342,note_off,0,0,0,,7,,,55,127
63343,note_on,1,0,0,,0,,,60,127
63343,note_on,0,0,0,,7,,,55,127
63343,note_on,0,0,0,,4,,,64,127
63387,note_off,44,0,0,,4,,,64,127
63387,note_off,0,0,0,,0,,,60,127
63388,note_on,1,0,0,,12,,,59,127
63388,note_on,0,0,0,,2,,,62,127
63432,note_off,44,0,0,,2,,,62,127
63432,note_off,0,0,0,,12,,,59,127
63433,note_on,1,0,0,,0,,,60,127
63433,note_on,0,0,0,,4,,,64,127
63477,note_off,44,0,0,,4,,,64,127
63477,note_off,0,0,0,,0,,,60,127
63478,note_on,1,0,0,,12,,,59,127
63478,note_on,0,0,0,,2,,,62,127
63522,note_off,44,0,0,,2,,,62,127
63522,note_off,0,0,0,,12,,,59,127
63523,note_on,1,0,0,,0,,,60,127
63523,note_on,0,0,0,,4,,,64,127
63567,note_off,44,0,0,,4,,,64,127
63567,note_off,0,0,0,,0,,,60,127
63568,note_on,1,0,0,,12,,,59,127
63568,note_on,0,0,0,,2,,,62,127
63612,note_off,44,0,0,,2,,,62,127
63612,note_off,0,0,0,,12,,,59,127
63612,note_off,0,0,0,,7,,,55,127
63613,note_on,1,0,0,,10,,,57,127
63613,note_on,0,0,0,,0,,,60,127
63883,note_off,270,0,0,,0,,,60,127
63883,note_off,0,0,0,,10,,,57,127
63884,note_on,1,0,0,,10,,,57,127
63884,note_on,0,0,0,,0,,,60,127
63928,note_off,44,0,0,,0,,,60,127
63928,note_off,0,0,0,,10,,,57,127
63929,note_on,1,0,0,,7,,,55,127
63929,note_on,0,0,0,,12,,,59,127
63973,note_off,44,0,0,,12,,,59,127
63973,note_off,0,0,0,,7,,,55,127
63974,note_on,1,0,0,,10,,,57,127
63974,note_on,0,0,0,,0,,,60,127
64018,note_off,44,0,0,,0,,,60,127
64018,note_off,0,0,0,,10,,,57,127
64019,note_on,1,0,0,,7,,,55,127
64019,note_on,0,0,0,,12,,,59,127
64063,note_off,44,0,0,,12,,,59,127
64063,note_off,0,0,0,,7,,,55,127
64064,note_on,1,0,0,,10,,,57,127
64064,note_on,0,0,0,,0,,,60,127
64108,note_off,44,0,0,,0,,,60,127
64108,note_off,0,0,0,,10,,,57,127
64109,note_on,1,0,0,,7,,,55,127
64109,note_on,0,0,0,,12,,,59,127
64142,note_off,33,0,0,,7,,,67,127
64153,note_off,11,0,0,,12,,,59,127
64153,note_off,0,0,0,,7,,,55,127
64154,note_on,1,0,0,,2,,,50,127
64154,note_on,0,0,0,,10,,,57,127
64154,note_on,0,0,0,,10,,,69,127
64424,note_off,270,0,0,,10,,,69,127
64424,note_off,0,0,0,,10,,,57,127
64424,note_off,0,0,0,,2,,,50,127
64425,note_on,1,0,0,,7,,,43,127
64425,note_on,0,0,0,,7,,,55,127
64425,note_on,0,0,0,,7,,,67,127
64515,note_on,90,0,0,,12,,,59,127
64605,note_off,90,0,0,,12,,,59,127
64606,note_on,1,0,0,,0,,,60,127
64696,note_off,90,0,0,,0,,,60,127
64697,note_on,1,0,0,,2,,,62,127
64787,note_off,90,0,0,,2,,,62,127
64788,note_on,1,0,0,,4,,,64,127
64878,note_off,90,0,0,,4,,,64,127
64879,note_on,1,0,0,,6,,,66,127
64969,note_off,90,0,0,,6,,,66,127
64969,note_off,0,0,0,,7,,,67,127
64970,note_on,1,0,0,,7,,,67,127
65240,note_off,270,0,0,,7,,,55,127
65240,note_off,0,0,0,,7,,,43,127
65252,note_on,12,0,0,,4,,,64,127
65252,note_on,0,0,0,,0,,,60,127
65252,note_on,0,0,0,,7,,,55,127
65522,note_off,270,0,0,,7,,,55,127
65522,note_off,0,0,0,,0,,,60,127
65522,note_off,0,0,0,,4,,,64,127
65523,note_on,1,0,0,,4,,,64,127
65523,note_on,0,0,0,,0,,,60,127
65523,note_on,0,0,0,,7,,,55,127
65567,note_off,44,0,0,,0,,,60,127
65567,note_off,0,0,0,,4,,,64,127
65568,note_on,1,0,0,,2,,,62,127
65568,note_on,0,0,0,,12,,,59,127
65612,note_off,44,0,0,,12,,,59,127
65612,note_off,0,0,0,,2,,,62,127
65613,note_on,1,0,0,,4,,,64,127
65613,note_on,0,0,0,,0,,,60,127
65657,note_off,44,0,0,,0,,,60,127
65657,note_off,0,0,0,,4,,,64,127
65658,note_on,1,0,0,,2,,,62,127
65658,note_on,0,0,0,,12,,,59,127
65702,note_off,44,0,0,,12,,,59,127
65702,note_off,0,0,0,,2,,,62,127
65703,note_on,1,0,0,,4,,,64,127
65703,note_on,0,0,0,,0,,,60,127
65747,note_off,44,0,0,,0,,,60,127
65747,note_off,0,0,0,,4,,,64,127
65748,note_on,1,0,0,,2,,,62,127
65748,note_on,0,0,0,,12,,,59,127
65792,note_off,44,0,0,,12,,,59,127
65792,note_off,0,0,0,,2,,,62,127
65792,note_off,0,0,0,,7,,,55,127
65793,note_on,1,0,0,,0,,,60,127
65793,note_on,0,0,0,,10,,,57,127
66063,note_off,270,0,0,,10,,,57,127
66063,note_off,0,0,0,,0,,,60,127
66064,note_on,1,0,0,,0,,,60,127
66064,note_on,0,0,0,,10,,,57,127
66108,note_off,44,0,0,,10,,,57,127
66108,note_off,0,0,0,,0,,,60,127
66109,note_on,1,0,0,,12,,,59,127
66109,note_on,0,0,0,,7,,,55,127
66153,note_off,44,0,0,,7,,,55,127
66153,note_off,0,0,0,,12,,,59,127
66154,note_on,1,0,0,,0,,,60,127
66154,note_on,0,0,0,,10,,,57,127
66198,note_off,44,0,0,,10,,,57,127
66198,note_off,0,0,0,,0,,,60,127
66199,note_on,1,0,0,,12,,,59,127
66199,note_on,0,0,0,,7,,,55,127
66243,note_off,44,0,0,,7,,,55,127
66243,note_off,0,0,0,,12,,,59,127
66244,note_on,1,0,0,,0,,,60,127
66244,note_on,0,0,0,,10,,,57,127
66288,note_off,44,0,0,,10,,,57,127
66288,note_off,0,0,0,,0,,,60,127
66289,note_on,1,0,0,,12,,,59,127
66289,note_on,0,0,0,,7,,,55,127
66322,note_off,33,0,0,,7,,,67,127
66333,note_off,11,0,0,,7,,,55,127
66333,note_off,0,0,0,,12,,,59,127
66334,note_on,1,0,0,,10,,,57,127
66334,note_on,0,0,0,,2,,,50,127
66604,note_off,270,0,0,,2,,,50,127
66604,note_off,0,0,0,,10,,,57,127
66605,note_on,1,0,0,,7,,,67,127
66605,note_on,0,0,0,,7,,,55,127
66605,note_on,0,0,0,,7,,,43,127
66695,note_off,90,0,0,,7,,,67,127
66707,note_on,12,0,0,,0,,,60,127
66797,note_off,90,0,0,,0,,,60,127
66798,note_on,1,0,0,,2,,,62,127
66876,note_off,78,0,0,,7,,,43,127
66876,note_off,0,0,0,,7,,,55,127
66887,note_off,11,0,0,,2,,,62,127
66888,note_on,1,0,0,,4,,,64,127
66978,note_off,90,0,0,,4,,,64,127
66979,note_on,1,0,0,,6,,,66,127
67069,note_off,90,0,0,,6,,,66,127
67070,note_on,1,0,0,,8,,,68,127
67160,note_off,90,0,0,,8,,,68,127
67161,note_on,1,0,0,,10,,,69,127
67455,note_on,294,0,0,,2,,,62,127
67455,note_on,0,0,0,,10,,,57,127
67455,note_on,0,0,0,,5,,,65,127
67725,note_off,270,0,0,,5,,,65,127
67725,note_off,0,0,0,,10,,,57,127
67725,note_off,0,0,0,,2,,,62,127
67726,note_on,1,0,0,,10,,,57,127
67726,note_on,0,0,0,,2,,,62,127
67726,note_on,0,0,0,,5,,,65,127
67770,note_off,44,0,0,,5,,,65,127
67770,note_off,0,0,0,,2,,,62,127
67771,note_on,1,0,0,,0,,,60,127
67771,note_on,0,0,0,,4,,,64,127
67815,note_off,44,0,0,,4,,,64,127
67815,note_off,0,0,0,,0,,,60,127
67816,note_on,1,0,0,,2,,,62,127
67816,note_on,0,0,0,,5,,,65,127
67860,note_off,44,0,0,,5,,,65,127
67860,note_off,0,0,0,,2,,,62,127
67861,note_on,1,0,0,,0,,,60,127
67861,note_on,0,0,0,,4,,,64,127
67905,note_off,44,0,0,,4,,,64,127
67905,note_off,0,0,0,,0,,,60,127
67906,note_on,1,0,0,,2,,,62,127
67906,note_on,0,0,0,,5,,,65,127
67950,note_off,44,0,0,,5,,,65,127
67950,note_off,0,0,0,,2,,,62,127
67951,note_on,1,0,0,,0,,,60,127
67951,note_on,0,0,0,,4,,,64,127
67995,note_off,44,0,0,,4,,,64,127
67995,note_off,0,0,0,,0,,,60,127
67995,note_off,0,0,0,,10,,,57,127
67996,note_on,1,0,0,,12,,,59,127
67996,note_on,0,0,0,,2,,,62,127
68266,note_off,270,0,0,,2,,,62,127
68266,note_off,0,0,0,,12,,,59,127
68267,note_on,1,0,0,,12,,,59,127
68267,note_on,0,0,0,,2,,,62,127
68311,note_off,44,0,0,,2,,,62,127
68311,note_off,0,0,0,,12,,,59,127
68312,note_on,1,0,0,,10,,,57,127
68312,note_on,0,0,0,,0,,,60,127
68356,note_off,44,0,0,,0,,,60,127
68356,note_off,0,0,0,,10,,,57,127
68357,note_on,1,0,0,,12,,,59,127
68357,note_on,0,0,0,,2,,,62,127
68401,note_off,44,0,0,,2,,,62,127
68401,note_off,0,0,0,,12,,,59,127
68402,note_on,1,0,0,,10,,,57,127
68402,note_on,0,0,0,,0,,,60,127
68446,note_off,44,0,0,,0,,,60,127
68446,note_off,0,0,0,,10,,,57,127
68447,note_on,1,0,0,,12,,,59,127
68447,note_on,0,0,0,,2,,,62,127
68491,note_off,44,0,0,,2,,,62,127
68491,note_off,0,0,0,,12,,,59,127
68492,note_on,1,0,0,,10,,,57,127
68492,note_on,0,0,0,,0,,,60,127
68514,note_off,22,0,0,,10,,,69,127
68537,note_off,23,0,0,,0,,,60,127
68537,note_off,0,0,0,,10,,,57,127
68538,note_on,1,0,0,,4,,,52,127
68538,note_on,0,0,0,,12,,,71,127
68538,note_on,0,0,0,,12,,,59,127
68808,note_off,270,0,0,,12,,,59,127
68808,note_off,0,0,0,,12,,,71,127
68808,note_off,0,0,0,,4,,,52,127
68809,note_on,1,0,0,,10,,,45,127
68809,note_on,0,0,0,,10,,,57,127
68809,note_on,0,0,0,,10,,,69,127
68899,note_on,90,0,0,,0,,,60,127
68989,note_off,90,0,0,,0,,,60,127
68990,note_on,1,0,0,,2,,,62,127
69080,note_off,90,0,0,,2,,,62,127
69081,note_on,1,0,0,,4,,,64,127
69171,note_off,90,0,0,,4,,,64,127
69172,note_on,1,0,0,,6,,,66,127
69262,note_off,90,0,0,,6,,,66,127
69263,note_on,1,0,0,,8,,,68,127
69353,note_off,90,0,0,,8,,,68,127
69353,note_off,0,0,0,,10,,,69,127
69353,note_off,0,0,0,,10,,,57,127
69353,note_off,0,0,0,,10,,,45,127
69354,note_on,1,0,0,,10,,,69,127
69636,note_on,282,0,0,,5,,,65,127
69636,note_on,0,0,0,,2,,,62,127
69636,note_on,0,0,0,,10,,,57,127
69906,note_off,270,0,0,,10,,,57,127
69906,note_off,0,0,0,,2,,,62,127
69906,note_off,0,0,0,,5,,,65,127
69907,note_on,1,0,0,,5,,,65,127
69907,note_on,0,0,0,,2,,,62,127
69907,note_on,0,0,0,,10,,,57,127
69951,note_off,44,0,0,,2,,,62,127
69951,note_off,0,0,0,,5,,,65,127
69952,note_on,1,0,0,,4,,,64,127
69952,note_on,0,0,0,,0,,,60,127
69996,note_off,44,0,0,,0,,,60,127
69996,note_off,0,0,0,,4,,,64,127
69997,note_on,1,0,0,,5,,,65,127
69997,note_on,0,0,0,,2,,,62,127
70041,note_off,44,0,0,,2,,,62,127
70041,note_off,0,0,0,,5,,,65,127
70042,note_on,1,0,0,,4,,,64,127
70042,note_on,0,0,0,,0,,,60,127
70086,note_off,44,0,0,,0,,,60,127
70086,note_off,0,0,0,,4,,,64,127
70087,note_on,1,0,0,,5,,,65,127
70087,note_on,0,0,0,,2,,,62,127
70131,note_off,44,0,0,,2,,,62,127
70131,note_off,0,0,0,,5,,,65,127
70132,note_on,1,0,0,,4,,,64,127
70132,note_on,0,0,0,,0,,,60,127
70176,note_off,44,0,0,,0,,,60,127
70176,note_off,0,0,0,,4,,,64,127
70176,note_off,0,0,0,,10,,,57,127
70177,note_on,1,0,0,,2,,,62,127
70177,note_on,0,0,0,,12,,,59,127
70447,note_off,270,0,0,,12,,,59,127
70447,note_off,0,0,0,,2,,,62,127
70448,note_on,1,0,0,,2,,,62,127
70448,note_on,0,0,0,,12,,,59,127
70492,note_off,44,0,0,,12,,,59,127
70492,note_off,0,0,0,,2,,,62,127
70493,note_on,1,0,0,,0,,,60,127
70493,note_on,0,0,0,,10,,,57,127
70537,note_off,44,0,0,,10,,,57,127
70537,note_off,0,0,0,,0,,,60,127
70538,note_on,1,0,0,,2,,,62,127
70538,note_on,0,0,0,,12,,,59,127
70582,note_off,44,0,0,,12,,,59,127
70582,note_off,0,0,0,,2,,,62,127
70583,note_on,1,0,0,,0,,,60,127
70583,note_on,0,0,0,,10,,,57,127
70627,note_off,44,0,0,,10,,,57,127
70627,note_off,0,0,0,,0,,,60,127
70628,note_on,1,0,0,,2,,,62,127
70628,note_on,0,0,0,,12,,,59,127
70672,note_off,44,0,0,,12,,,59,127
70672,note_off,0,0,0,,2,,,62,127
70673,note_on,1,0,0,,0,,,60,127
70673,note_on,0,0,0,,10,,,57,127
70706,note_off,33,0,0,,10,,,69,127
70717,note_off,11,0,0,,10,,,57,127
70717,note_off,0,0,0,,0,,,60,127
70718,note_on,1,0,0,,12,,,59,127
70718,note_on,0,0,0,,12,,,71,127
70718,note_on,0,0,0,,4,,,52,127
70988,note_off,270,0,0,,4,,,52,127
70988,note_off,0,0,0,,12,,,71,127
70988,note_off,0,0,0,,12,,,59,127
70989,note_on,1,0,0,,10,,,69,127
70989,note_on,0,0,0,,10,,,45,127
70989,note_on,0,0,0,,10,,,57,127
71079,note_off,90,0,0,,10,,,69,127
71080,note_on,1,0,0,,1,,,61,127
71170,note_off,90,0,0,,1,,,61,127
71171,note_on,1,0,0,,2,,,62,127
71261,note_off,90,0,0,,2,,,62,127
71262,note_on,1,0,0,,4,,,64,127
71352,note_off,90,0,0,,4,,,64,127
71353,note_on,1,0,0,,5,,,65,127
71443,note_off,90,0,0,,5,,,65,127
71444,note_on,1,0,0,,7,,,67,127
71534,note_off,90,0,0,,7,,,67,127
71535,note_on,1,0,0,,10,,,69,127
71625,note_off,90,0,0,,10,,,69,127
71626,note_on,1,0,0,,4,,,64,127
71716,note_off,90,0,0,,4,,,64,127
71717,note_on,1,0,0,,5,,,65,127
71807,note_off,90,0,0,,5,,,65,127
71808,note_on,1,0,0,,7,,,67,127
71898,note_off,90,0,0,,7,,,67,127
71899,note_on,1,0,0,,10,,,69,127
71989,note_off,90,0,0,,10,,,69,127
71990,note_on,1,0,0,,12,,,71,127
72080,note_off,90,0,0,,12,,,71,127
72081,note_on,1,0,0,,1,,,73,127
72148,note_off,67,0,0,,1,,,73,127
72149,note_on,1,0,0,,10,,,69,127
72216,note_off,67,0,0,,10,,,69,127
72217,note_on,1,0,0,,12,,,71,127
72284,note_off,67,0,0,,12,,,71,127
72285,note_on,1,0,0,,1,,,73,127
72352,note_off,67,0,0,,1,,,73,127
72353,note_on,1,0,0,,2,,,74,127
72420,note_off,67,0,0,,2,,,74,127
72421,note_on,1,0,0,,4,,,76,127
72488,note_off,67,0,0,,4,,,76,127
72489,note_on,1,0,0,,5,,,77,127
72556,note_off,67,0,0,,5,,,77,127
72557,note_on,1,0,0,,7,,,79,127
72624,note_off,67,0,0,,7,,,79,127
72625,note_on,1,0,0,,10,,,81,127
72644,note_off,19,0,0,,10,,,57,127
72644,note_off,0,0,0,,10,,,45,127
72727,note_on,83,0,0,,10,,,57,127
72817,note_off,90,0,0,,10,,,57,127
72818,note_on,1,0,0,,12,,,59,127
72908,note_off,90,0,0,,12,,,59,127
72909,note_on,1,0,0,,1,,,61,127
72999,note_off,90,0,0,,1,,,61,127
73000,note_on,1,0,0,,2,,,62,127
73090,note_off,90,0,0,,2,,,62,127
73091,note_on,1,0,0,,4,,,64,127
73181,note_off,90,0,0,,4,,,64,127
73182,note_on,1,0,0,,5,,,65,127
73272,note_off,90,0,0,,5,,,65,127
73273,note_on,1,0,0,,2,,,62,127
73363,note_off,90,0,0,,2,,,62,127
73364,note_on,1,0,0,,4,,,64,127
73454,note_off,90,0,0,,4,,,64,127
73455,note_on,1,0,0,,5,,,65,127
73545,note_off,90,0,0,,5,,,65,127
73546,note_on,1,0,0,,7,,,67,127
73636,note_off,90,0,0,,7,,,67,127
73637,note_on,1,0,0,,10,,,69,127
73727,note_off,90,0,0,,10,,,69,127
73728,note_on,1,0,0,,11,,,70,127
73736,note_off,8,0,0,,10,,,81,127
73841,note_on,105,0,0,,2,,,74,127
73931,note_off,90,0,0,,2,,,74,127
73932,note_on,1,0,0,,4,,,76,127
74022,note_off,90,0,0,,4,,,76,127
74023,note_on,1,0,0,,5,,,77,127
74113,note_off,90,0,0,,5,,,77,127
74114,note_on,1,0,0,,7,,,79,127
74204,note_off,90,0,0,,7,,,79,127
74205,note_on,1,0,0,,10,,,81,127
74295,note_off,90,0,0,,10,,,81,127
74296,note_on,1,0,0,,11,,,82,127
74386,note_off,90,0,0,,11,,,82,127
74387,note_on,1,0,0,,2,,,74,127
74477,note_off,90,0,0,,2,,,74,127
74478,note_on,1,0,0,,4,,,76,127
74545,note_off,67,0,0,,11,,,70,127
74568,note_off,23,0,0,,4,,,76,127
74569,note_on,1,0,0,,10,,,69,127
74569,note_on,0,0,0,,5,,,77,127
74659,note_off,90,0,0,,5,,,77,127
74660,note_on,1,0,0,,7,,,79,127
74750,note_off,90,0,0,,7,,,79,127
74751,note_on,1,0,0,,10,,,81,127
74841,note_off,90,0,0,,10,,,81,127
74841,note_off,0,0,0,,10,,,69,127
74842,note_on,1,0,0,,7,,,67,127
74842,note_on,0,0,0,,11,,,82,127
74932,note_off,90,0,0,,11,,,82,127
74933,note_on,1,0,0,,2,,,74,127
75023,note_off,90,0,0,,2,,,74,127
75024,note_on,1,0,0,,4,,,76,127
75114,note_off,90,0,0,,4,,,76,127
75114,note_off,0,0,0,,7,,,67,127
75115,note_on,1,0,0,,5,,,65,127
75115,note_on,0,0,0,,5,,,77,127
75205,note_off,90,0,0,,5,,,77,127
75206,note_on,1,0,0,,7,,,79,127
75296,note_off,90,0,0,,7,,,79,127
75297,note_on,1,0,0,,10,,,81,127
75387,note_off,90,0,0,,10,,,81,127
75387,note_off,0,0,0,,5,,,65,127
75388,note_on,1,0,0,,4,,,64,127
75388,note_on,0,0,0,,11,,,82,127
75478,note_off,90,0,0,,11,,,82,127
75479,note_on,1,0,0,,2,,,74,127
75569,note_off,90,0,0,,2,,,74,127
75570,note_on,1,0,0,,4,,,76,127
75660,note_off,90,0,0,,4,,,76,127
75660,note_off,0,0,0,,4,,,64,127
75661,note_on,1,0,0,,2,,,62,127
75661,note_on,0,0,0,,5,,,77,127
75751,note_off,90,0,0,,5,,,77,127
75752,note_on,1,0,0,,7,,,79,127
75842,note_off,90,0,0,,7,,,79,127
75843,note_on,1,0,0,,10,,,81,127
75933,note_off,90,0,0,,10,,,81,127
75933,note_off,0,0,0,,2,,,62,127
75934,note_on,1,0,0,,0,,,60,127
75934,note_on,0,0,0,,11,,,82,127
76024,note_off,90,0,0,,11,,,82,127
76025,note_on,1,0,0,,0,,,72,127
76115,note_off,90,0,0,,0,,,72,127
76116,note_on,1,0,0,,2,,,74,127
76206,note_off,90,0,0,,2,,,74,127
76207,note_on,1,0,0,,4,,,76,127
76297,note_off,90,0,0,,4,,,76,127
76298,note_on,1,0,0,,5,,,77,127
76388,note_off,90,0,0,,5,,,77,127
76389,note_on,1,0,0,,7,,,79,127
76479,note_off,90,0,0,,7,,,79,127
76479,note_off,0,0,0,,0,,,60,127
76491,note_on,12,0,0,,10,,,81,127
76491,note_on,0,0,0,,5,,,65,127
76491,note_on,0,0,0,,5,,,53,127
76581,note_off,90,0,0,,10,,,81,127
76582,note_on,1,0,0,,7,,,79,127
76672,note_off,90,0,0,,7,,,79,127
76673,note_on,1,0,0,,10,,,81,127
76763,note_off,90,0,0,,10,,,81,127
76763,note_off,0,0,0,,5,,,53,127
76763,note_off,0,0,0,,5,,,65,127
76764,note_on,1,0,0,,7,,,79,127
76764,note_on,0,0,0,,4,,,64,127
76764,note_on,0,0,0,,4,,,52,127
76854,note_off,90,0,0,,7,,,79,127
76855,note_on,1,0,0,,5,,,77,127
76945,note_off,90,0,0,,5,,,77,127
76946,note_on,1,0,0,,7,,,79,127
77036,note_off,90,0,0,,7,,,79,127
77036,note_off,0,0,0,,4,,,52,127
77036,note_off,0,0,0,,4,,,64,127
77037,note_on,1,0,0,,5,,,77,127
77037,note_on,0,0,0,,2,,,62,127
77037,note_on,0,0,0,,2,,,50,127
77127,note_off,90,0,0,,5,,,77,127
77128,note_on,1,0,0,,4,,,76,127
77218,note_off,90,0,0,,4,,,76,127
77219,note_on,1,0,0,,5,,,77,127
77309,note_off,90,0,0,,5,,,77,127
77309,note_off,0,0,0,,2,,,50,127
77309,note_off,0,0,0,,2,,,62,127
77310,note_on,1,0,0,,4,,,76,127
77310,note_on,0,0,0,,0,,,48,127
77310,note_on,0,0,0,,0,,,60,127
77400,note_off,90,0,0,,4,,,76,127
77401,note_on,1,0,0,,2,,,74,127
77491,note_off,90,0,0,,2,,,74,127
77492,note_on,1,0,0,,4,,,76,127
77582,note_off,90,0,0,,4,,,76,127
77582,note_off,0,0,0,,0,,,60,127
77582,note_off,0,0,0,,0,,,48,127
77583,note_on,1,0,0,,2,,,74,127
77583,note_on,0,0,0,,5,,,65,127
77583,note_on,0,0,0,,5,,,53,127
77673,note_off,90,0,0,,2,,,74,127
77674,note_on,1,0,0,,0,,,72,127
77764,note_off,90,0,0,,0,,,72,127
77765,note_on,1,0,0,,2,,,74,127
77855,note_off,90,0,0,,2,,,74,127
77855,note_off,0,0,0,,5,,,53,127
77855,note_off,0,0,0,,5,,,65,127
77856,note_on,1,0,0,,0,,,72,127
77856,note_on,0,0,0,,4,,,64,127
77856,note_on,0,0,0,,4,,,52,127
77946,note_off,90,0,0,,0,,,72,127
77947,note_on,1,0,0,,12,,,71,127
78037,note_off,90,0,0,,12,,,71,127
78038,note_on,1,0,0,,0,,,72,127
78128,note_off,90,0,0,,0,,,72,127
78128,note_off,0,0,0,,4,,,52,127
78128,note_off,0,0,0,,4,,,64,127
78129,note_on,1,0,0,,12,,,71,127
78129,note_on,0,0,0,,2,,,62,127
78129,note_on,0,0,0,,2,,,50,127
78219,note_off,90,0,0,,12,,,71,127
78220,note_on,1,0,0,,0,,,72,127
78310,note_off,90,0,0,,0,,,72,127
78311,note_on,1,0,0,,12,,,71,127
78401,note_off,90,0,0,,12,,,71,127
78401,note_off,0,0,0,,2,,,50,127
78401,note_off,0,0,0,,2,,,62,127
78402,note_on,1,0,0,,0,,,72,127
78402,note_on,0,0,0,,2,,,74,127
78402,note_on,0,0,0,,0,,,60,127
78402,note_on,0,0,0,,0,,,48,127
78492,note_off,90,0,0,,2,,,74,127
78492,note_off,0,0,0,,0,,,72,127
78493,note_on,1,0,0,,12,,,71,127
78583,note_off,90,0,0,,12,,,71,127
78584,note_on,1,0,0,,0,,,72,127
78674,note_off,90,0,0,,0,,,72,127
78674,note_off,0,0,0,,0,,,48,127
78674,note_off,0,0,0,,0,,,60,127
78675,note_on,1,0,0,,2,,,74,127
78675,note_on,0,0,0,,7,,,43,127
78675,note_on,0,0,0,,7,,,55,127
78765,note_off,90,0,0,,2,,,74,127
78766,note_on,1,0,0,,0,,,72,127
78856,note_off,90,0,0,,0,,,72,127
78857,note_on,1,0,0,,2,,,74,127
78947,note_off,90,0,0,,2,,,74,127
78947,note_off,0,0,0,,7,,,55,127
78947,note_off,0,0,0,,7,,,43,127
78948,note_on,1,0,0,,0,,,72,127
78948,note_on,0,0,0,,4,,,52,127
78948,note_on,0,0,0,,4,,,40,127
79038,note_off,90,0,0,,0,,,72,127
79039,note_on,1,0,0,,12,,,71,127
79129,note_off,90,0,0,,12,,,71,127
79130,note_on,1,0,0,,0,,,72,127
79220,note_off,90,0,0,,0,,,72,127
79220,note_off,0,0,0,,4,,,40,127
79220,note_off,0,0,0,,4,,,52,127
79221,note_on,1,0,0,,12,,,71,127
79221,note_on,0,0,0,,2,,,50,127
79221,note_on,0,0,0,,2,,,38,127
79311,note_off,90,0,0,,12,,,71,127
79312,note_on,1,0,0,,0,,,72,127
79402,note_off,90,0,0,,0,,,72,127
79403,note_on,1,0,0,,12,,,71,127
79493,note_off,90,0,0,,12,,,71,127
79493,note_off,0,0,0,,2,,,38,127
79493,note_off,0,0,0,,2,,,50,127
79494,note_on,1,0,0,,2,,,74,127
79494,note_on,0,0,0,,0,,,72,127
79494,note_on,0,0,0,,0,,,48,127
79494,note_on,0,0,0,,0,,,36,127
79584,note_off,90,0,0,,0,,,72,127
79584,note_off,0,0,0,,2,,,74,127
79585,note_on,1,0,0,,12,,,71,127
79675,note_off,90,0,0,,12,,,71,127
79676,note_on,1,0,0,,0,,,72,127
79766,note_off,90,0,0,,0,,,72,127
79766,note_off,0,0,0,,0,,,36,127
79766,note_off,0,0,0,,0,,,48,127
79767,note_on,1,0,0,,2,,,74,127
79767,note_on,0,0,0,,7,,,31,127
79767,note_on,0,0,0,,7,,,43,127
79857,note_off,90,0,0,,2,,,74,127
79858,note_on,1,0,0,,0,,,72,127
79948,note_off,90,0,0,,0,,,72,127
79949,note_on,1,0,0,,2,,,74,127
80039,note_off,90,0,0,,2,,,74,127
80039,note_off,0,0,0,,7,,,43,127
80039,note_off,0,0,0,,7,,,31,127
80040,note_on,1,0,0,,0,,,72,127
80040,note_on,0,0,0,,4,,,52,127
80040,note_on,0,0,0,,4,,,40,127
80130,note_off,90,0,0,,0,,,72,127
80131,note_on,1,0,0,,12,,,71,127
80221,note_off,90,0,0,,12,,,71,127
80222,note_on,1,0,0,,0,,,72,127
80312,note_off,90,0,0,,0,,,72,127
80312,note_off,0,0,0,,4,,,40,127
80312,note_off,0,0,0,,4,,,52,127
80313,note_on,1,0,0,,12,,,71,127
80313,note_on,0,0,0,,2,,,50,127
80313,note_on,0,0,0,,2,,,38,127
80403,note_off,90,0,0,,12,,,71,127
80404,note_on,1,0,0,,0,,,72,127
80494,note_off,90,0,0,,0,,,72,127
80495,note_on,1,0,0,,12,,,71,127
80585,note_off,90,0,0,,12,,,71,127
80585,note_off,0,0,0,,2,,,38,127
80585,note_off,0,0,0,,2,,,50,127
80586,note_on,1,0,0,,0,,,72,127
80586,note_on,0,0,0,,2,,,74,127
80586,note_on,0,0,0,,0,,,48,127
80586,note_on,0,0,0,,0,,,36,127
80676,note_off,90,0,0,,2,,,74,127
80676,note_off,0,0,0,,0,,,72,127
80677,note_on,1,0,0,,12,,,71,127
80767,note_off,90,0,0,,12,,,71,127
80768,note_on,1,0,0,,0,,,72,127
80858,note_off,90,0,0,,0,,,72,127
80858,note_off,0,0,0,,0,,,36,127
80858,note_off,0,0,0,,0,,,48,127
80859,note_on,1,0,0,,2,,,74,127
80859,note_on,0,0,0,,7,,,31,127
80859,note_on,0,0,0,,7,,,43,127
80903,note_off,44,0,0,,2,,,74,127
80904,note_on,1,0,0,,0,,,72,127
80948,note_off,44,0,0,,0,,,72,127
80949,note_on,1,0,0,,2,,,74,127
80993,note_off,44,0,0,,2,,,74,127
80994,note_on,1,0,0,,0,,,72,127
81038,note_off,44,0,0,,0,,,72,127
81039,note_on,1,0,0,,2,,,74,127
81083,note_off,44,0,0,,2,,,74,127
81084,note_on,1,0,0,,0,,,72,127
81128,note_off,44,0,0,,0,,,72,127
81129,note_on,1,0,0,,2,,,74,127
81173,note_off,44,0,0,,2,,,74,127
81174,note_on,1,0,0,,0,,,72,127
81218,note_off,44,0,0,,0,,,72,127
81219,note_on,1,0,0,,2,,,74,127
81263,note_off,44,0,0,,2,,,74,127
81264,note_on,1,0,0,,0,,,72,127
81309,note_on,45,0,0,,4,,,76,127
81394,note_off,85,0,0,,0,,,72,127
81399,note_off,5,0,0,,4,,,76,127
81400,note_on,1,0,0,,2,,,74,127
81941,note_off,541,0,0,,7,,,31,127
81976,note_off,35,0,0,,7,,,43,127
82023,note_off,47,0,0,,2,,,74,127
82067,note_on,44,0,0,,7,,,55,127
82067,note_on,0,0,0,,7,,,67,127
82338,note_on,271,0,0,,7,,,79,127
82473,note_off,135,0,0,,7,,,79,127
82474,note_on,1,0,0,,11,,,82,127
82609,note_off,135,0,0,,11,,,82,127
82610,note_on,1,0,0,,11,,,82,127
82880,note_off,270,0,0,,11,,,82,127
82880,note_off,0,0,0,,7,,,67,127
82881,note_on,1,0,0,,5,,,65,127
82881,note_on,0,0,0,,8,,,80,127
83151,note_off,270,0,0,,7,,,55,127
83152,note_on,1,0,0,,7,,,55,127
83152,note_on,0,0,0,,12,,,71,127
83422,note_off,270,0,0,,12,,,71,127
83422,note_off,0,0,0,,8,,,80,127
83422,note_off,0,0,0,,5,,,65,127
83423,note_on,1,0,0,,3,,,63,127
83423,note_on,0,0,0,,0,,,72,127
83423,note_on,0,0,0,,7,,,79,127
83693,note_off,270,0,0,,7,,,79,127
83693,note_off,0,0,0,,0,,,72,127
83693,note_off,0,0,0,,3,,,63,127
83694,note_on,1,0,0,,2,,,62,127
83694,note_on,0,0,0,,5,,,77,127
83694,note_on,0,0,0,,2,,,74,127
83964,note_off,270,0,0,,2,,,74,127
83964,note_off,0,0,0,,2,,,62,127
83965,note_on,1,0,0,,2,,,62,127
84009,note_off,44,0,0,,2,,,62,127
84010,note_on,1,0,0,,0,,,60,127
84010,note_on,0,0,0,,3,,,75,127
84011,note_off,1,0,0,,5,,,77,127
84054,note_off,43,0,0,,3,,,75,127
84054,note_off,0,0,0,,0,,,60,127
84055,note_on,1,0,0,,2,,,62,127
84055,note_on,0,0,0,,5,,,77,127
84099,note_off,44,0,0,,5,,,77,127
84099,note_off,0,0,0,,2,,,62,127
84100,note_on,1,0,0,,0,,,60,127
84100,note_on,0,0,0,,3,,,75,127
84144,note_off,44,0,0,,3,,,75,127
84144,note_off,0,0,0,,0,,,60,127
84145,note_on,1,0,0,,12,,,59,127
84145,note_on,0,0,0,,2,,,74,127
84189,note_off,44,0,0,,2,,,74,127
84189,note_off,0,0,0,,12,,,59,127
84190,note_on,1,0,0,,0,,,60,127
84190,note_on,0,0,0,,3,,,75,127
84234,note_off,44,0,0,,3,,,75,127
84234,note_off,0,0,0,,0,,,60,127
84234,note_off,0,0,0,,7,,,55,127
84235,note_on,1,0,0,,7,,,55,127
84235,note_on,0,0,0,,12,,,59,127
84235,note_on,0,0,0,,2,,,74,127
84505,note_off,270,0,0,,2,,,74,127
84505,note_off,0,0,0,,12,,,59,127
84517,note_on,12,0,0,,7,,,79,127
84517,note_on,0,0,0,,7,,,67,127
84652,note_off,135,0,0,,7,,,79,127
84653,note_on,1,0,0,,11,,,82,127
84788,note_off,135,0,0,,11,,,82,127
84789,note_on,1,0,0,,11,,,82,127
85059,note_off,270,0,0,,11,,,82,127
85059,note_off,0,0,0,,7,,,67,127
85060,note_on,1,0,0,,8,,,80,127
85060,note_on,0,0,0,,5,,,65,127
85319,note_off,259,0,0,,7,,,55,127
85331,note_on,12,0,0,,12,,,71,127
85331,note_on,0,0,0,,7,,,55,127
85601,note_off,270,0,0,,12,,,71,127
85601,note_off,0,0,0,,5,,,65,127
85601,note_off,0,0,0,,8,,,80,127
85602,note_on,1,0,0,,0,,,72,127
85602,note_on,0,0,0,,7,,,79,127
85602,note_on,0,0,0,,3,,,63,127
85872,note_off,270,0,0,,3,,,63,127
85872,note_off,0,0,0,,7,,,79,127
85872,note_off,0,0,0,,0,,,72,127
85873,note_on,1,0,0,,2,,,74,127
85873,note_on,0,0,0,,5,,,77,127
85873,note_on,0,0,0,,2,,,62,127
86143,note_off,270,0,0,,2,,,62,127
86143,note_off,0,0,0,,2,,,74,127
86144,note_on,1,0,0,,2,,,62,127
86188,note_off,44,0,0,,2,,,62,127
86189,note_on,1,0,0,,3,,,75,127
86189,note_on,0,0,0,,0,,,60,127
86190,note_off,1,0,0,,5,,,77,127
86233,note_off,43,0,0,,0,,,60,127
86233,note_off,0,0,0,,3,,,75,127
86234,note_on,1,0,0,,5,,,77,127
86234,note_on,0,0,0,,2,,,62,127
86278,note_off,44,0,0,,2,,,62,127
86278,note_off,0,0,0,,5,,,77,127
86279,note_on,1,0,0,,3,,,75,127
86279,note_on,0,0,0,,0,,,60,127
86323,note_off,44,0,0,,0,,,60,127
86323,note_off,0,0,0,,3,,,75,127
86324,note_on,1,0,0,,2,,,74,127
86324,note_on,0,0,0,,12,,,59,127
86368,note_off,44,0,0,,12,,,59,127
86368,note_off,0,0,0,,2,,,74,127
86369,note_on,1,0,0,,3,,,75,127
86369,note_on,0,0,0,,0,,,60,127
86413,note_off,44,0,0,,0,,,60,127
86413,note_off,0,0,0,,3,,,75,127
86413,note_off,0,0,0,,7,,,55,127
86414,note_on,1,0,0,,2,,,74,127
86414,note_on,0,0,0,,12,,,59,127
86414,note_on,0,0,0,,7,,,55,127
86684,note_off,270,0,0,,7,,,55,127
86684,note_off,0,0,0,,12,,,59,127
86684,note_off,0,0,0,,2,,,74,127
86696,note_on,12,0,0,,7,,,67,127
86696,note_on,0,0,0,,7,,,55,127
86696,note_on,0,0,0,,12,,,71,127
86696,note_on,0,0,0,,3,,,75,127
86740,note_off,44,0,0,,3,,,75,127
86741,note_on,1,0,0,,2,,,74,127
86785,note_off,44,0,0,,2,,,74,127
86786,note_on,1,0,0,,3,,,75,127
86830,note_off,44,0,0,,3,,,75,127
86831,note_on,1,0,0,,2,,,74,127
86875,note_off,44,0,0,,2,,,74,127
86876,note_on,1,0,0,,3,,,75,127
86920,note_off,44,0,0,,3,,,75,127
86921,note_on,1,0,0,,2,,,74,127
86965,note_off,44,0,0,,12,,,71,127
86965,note_off,0,0,0,,7,,,55,127
86965,note_off,0,0,0,,7,,,67,127
86966,note_on,1,0,0,,8,,,56,127
86966,note_on,0,0,0,,5,,,65,127
86988,note_off,22,0,0,,2,,,74,127
87236,note_off,248,0,0,,5,,,65,127
87236,note_off,0,0,0,,8,,,56,127
87237,note_on,1,0,0,,7,,,67,127
87237,note_on,0,0,0,,7,,,55,127
87237,note_on,0,0,0,,3,,,75,127
87237,note_on,0,0,0,,12,,,71,127
87281,note_off,44,0,0,,3,,,75,127
87282,note_on,1,0,0,,2,,,74,127
87326,note_off,44,0,0,,2,,,74,127
87327,note_on,1,0,0,,3,,,75,127
87371,note_off,44,0,0,,3,,,75,127
87372,note_on,1,0,0,,2,,,74,127
87416,note_off,44,0,0,,2,,,74,127
87417,note_on,1,0,0,,3,,,75,127
87461,note_off,44,0,0,,3,,,75,127
87462,note_on,1,0,0,,2,,,74,127
87506,note_off,44,0,0,,12,,,71,127
87506,note_off,0,0,0,,7,,,55,127
87506,note_off,0,0,0,,7,,,67,127
87507,note_on,1,0,0,,5,,,65,127
87507,note_on,0,0,0,,8,,,56,127
87529,note_off,22,0,0,,2,,,74,127
87777,note_off,248,0,0,,8,,,56,127
87777,note_off,0,0,0,,5,,,65,127
87778,note_on,1,0,0,,7,,,55,127
87778,note_on,0,0,0,,7,,,67,127
87778,note_on,0,0,0,,3,,,75,127
87778,note_on,0,0,0,,12,,,71,127
87822,note_off,44,0,0,,3,,,75,127
87823,note_on,1,0,0,,2,,,74,127
87867,note_off,44,0,0,,2,,,74,127
87868,note_on,1,0,0,,3,,,75,127
87912,note_off,44,0,0,,3,,,75,127
87913,note_on,1,0,0,,2,,,74,127
87957,note_off,44,0,0,,2,,,74,127
87958,note_on,1,0,0,,3,,,75,127
88002,note_off,44,0,0,,3,,,75,127
88003,note_on,1,0,0,,2,,,74,127
88047,note_off,44,0,0,,12,,,71,127
88047,note_off,0,0,0,,7,,,67,127
88047,note_off,0,0,0,,7,,,55,127
88048,note_on,1,0,0,,5,,,65,127
88048,note_on,0,0,0,,8,,,56,127
88070,note_off,22,0,0,,2,,,74,127
88318,note_off,248,0,0,,8,,,56,127
88318,note_off,0,0,0,,5,,,65,127
88319,note_on,1,0,0,,7,,,55,127
88319,note_on,0,0,0,,7,,,67,127
88319,note_on,0,0,0,,3,,,75,127
88319,note_on,0,0,0,,12,,,71,127
88363,note_off,44,0,0,,3,,,75,127
88364,note_on,1,0,0,,2,,,74,127
88408,note_off,44,0,0,,2,,,74,127
88409,note_on,1,0,0,,3,,,75,127
88453,note_off,44,0,0,,3,,,75,127
88454,note_on,1,0,0,,2,,,74,127
88498,note_off,44,0,0,,2,,,74,127
88499,note_on,1,0,0,,3,,,75,127
88543,note_off,44,0,0,,3,,,75,127
88544,note_on,1,0,0,,2,,,74,127
88588,note_off,44,0,0,,12,,,71,127
88588,note_off,0,0,0,,7,,,67,127
88588,note_off,0,0,0,,7,,,55,127
88589,note_on,1,0,0,,5,,,65,127
88589,note_on,0,0,0,,8,,,56,127
88611,note_off,22,0,0,,2,,,74,127
88859,note_off,248,0,0,,8,,,56,127
88859,note_off,0,0,0,,5,,,65,127
88871,note_on,12,0,0,,2,,,74,127
88871,note_on,0,0,0,,7,,,79,127
88871,note_on,0,0,0,,12,,,59,127
88871,note_on,0,0,0,,7,,,67,127
88915,note_off,44,0,0,,7,,,79,127
88916,note_on,1,0,0,,5,,,77,127
88960,note_off,44,0,0,,5,,,77,127
88961,note_on,1,0,0,,7,,,79,127
89005,note_off,44,0,0,,7,,,79,127
89006,note_on,1,0,0,,5,,,77,127
89050,note_off,44,0,0,,5,,,77,127
89051,note_on,1,0,0,,7,,,79,127
89095,note_off,44,0,0,,7,,,79,127
89096,note_on,1,0,0,,5,,,77,127
89140,note_off,44,0,0,,7,,,67,127
89140,note_off,0,0,0,,12,,,59,127
89140,note_off,0,0,0,,2,,,74,127
89141,note_on,1,0,0,,8,,,68,127
89141,note_on,0,0,0,,0,,,60,127
89163,note_off,22,0,0,,5,,,77,127
89411,note_off,248,0,0,,0,,,60,127
89411,note_off,0,0,0,,8,,,68,127
89412,note_on,1,0,0,,7,,,79,127
89412,note_on,0,0,0,,2,,,74,127
89412,note_on,0,0,0,,12,,,59,127
89412,note_on,0,0,0,,7,,,67,127
89456,note_off,44,0,0,,7,,,79,127
89457,note_on,1,0,0,,5,,,77,127
89501,note_off,44,0,0,,5,,,77,127
89502,note_on,1,0,0,,7,,,79,127
89546,note_off,44,0,0,,7,,,79,127
89547,note_on,1,0,0,,5,,,77,127
89591,note_off,44,0,0,,5,,,77,127
89592,note_on,1,0,0,,7,,,79,127
89636,note_off,44,0,0,,7,,,79,127
89637,note_on,1,0,0,,5,,,77,127
89681,note_off,44,0,0,,7,,,67,127
89681,note_off,0,0,0,,12,,,59,127
89681,note_off,0,0,0,,2,,,74,127
89682,note_on,1,0,0,,8,,,68,127
89682,note_on,0,0,0,,0,,,60,127
89704,note_off,22,0,0,,5,,,77,127
89952,note_off,248,0,0,,0,,,60,127
89952,note_off,0,0,0,,8,,,68,127
89953,note_on,1,0,0,,2,,,74,127
89953,note_on,0,0,0,,7,,,79,127
89953,note_on,0,0,0,,12,,,59,127
89953,note_on,0,0,0,,7,,,67,127
89997,note_off,44,0,0,,7,,,79,127
89998,note_on,1,0,0,,5,,,77,127
90042,note_off,44,0,0,,5,,,77,127
90043,note_on,1,0,0,,7,,,79,127
90087,note_off,44,0,0,,7,,,79,127
90088,note_on,1,0,0,,5,,,77,127
90132,note_off,44,0,0,,5,,,77,127
90133,note_on,1,0,0,,7,,,79,127
90177,note_off,44,0,0,,7,,,79,127
90178,note_on,1,0,0,,5,,,77,127
90222,note_off,44,0,0,,7,,,67,127
90222,note_off,0,0,0,,12,,,59,127
90222,note_off,0,0,0,,2,,,74,127
90223,note_on,1,0,0,,0,,,60,127
90223,note_on,0,0,0,,8,,,68,127
90245,note_off,22,0,0,,5,,,77,127
90493,note_off,248,0,0,,8,,,68,127
90493,note_off,0,0,0,,0,,,60,127
90494,note_on,1,0,0,,2,,,74,127
90494,note_on,0,0,0,,7,,,79,127
90494,note_on,0,0,0,,12,,,59,127
90494,note_on,0,0,0,,7,,,67,127
90538,note_off,44,0,0,,7,,,79,127
90539,note_on,1,0,0,,5,,,77,127
90583,note_off,44,0,0,,5,,,77,127
90584,note_on,1,0,0,,7,,,79,127
90628,note_off,44,0,0,,7,,,79,127
90629,note_on,1,0,0,,5,,,77,127
90673,note_off,44,0,0,,5,,,77,127
90674,note_on,1,0,0,,7,,,79,127
90718,note_off,44,0,0,,7,,,79,127
90719,note_on,1,0,0,,5,,,77,127
90763,note_off,44,0,0,,7,,,67,127
90763,note_off,0,0,0,,12,,,59,127
90763,note_off,0,0,0,,2,,,74,127
90764,note_on,1,0,0,,8,,,68,127
90764,note_on,0,0,0,,0,,,60,127
90786,note_off,22,0,0,,5,,,77,127
91034,note_off,248,0,0,,0,,,60,127
91034,note_off,0,0,0,,8,,,68,127
91046,note_on,12,0,0,,5,,,65,127
91046,note_on,0,0,0,,2,,,62,127
91046,note_on,0,0,0,,0,,,84,127
91090,note_off,44,0,0,,0,,,84,127
91091,note_on,1,0,0,,12,,,83,127
91135,note_off,44,0,0,,12,,,83,127
91136,note_on,1,0,0,,0,,,84,127
91180,note_off,44,0,0,,0,,,84,127
91181,note_on,1,0,0,,12,,,83,127
91225,note_off,44,0,0,,12,,,83,127
91226,note_on,1,0,0,,10,,,81,127
91270,note_off,44,0,0,,10,,,81,127
91271,note_on,1,0,0,,12,,,83,127
91315,note_off,44,0,0,,12,,,83,127
91315,note_off,0,0,0,,2,,,62,127
91315,note_off,0,0,0,,5,,,65,127
91316,note_on,1,0,0,,3,,,63,127
91316,note_on,0,0,0,,7,,,67,127
91316,note_on,0,0,0,,0,,,84,127
91586,note_off,270,0,0,,0,,,84,127
91586,note_off,0,0,0,,7,,,67,127
91586,note_off,0,0,0,,3,,,63,127
91587,note_on,1,0,0,,0,,,60,127
91587,note_on,0,0,0,,7,,,79,127
91677,note_off,90,0,0,,7,,,79,127
91678,note_on,1,0,0,,8,,,80,127
91768,note_off,90,0,0,,8,,,80,127
91769,note_on,1,0,0,,11,,,82,127
91859,note_off,90,0,0,,11,,,82,127
91859,note_off,0,0,0,,0,,,60,127
91860,note_on,1,0,0,,5,,,53,127
91860,note_on,0,0,0,,8,,,80,127
91950,note_off,90,0,0,,8,,,80,127
91951,note_on,1,0,0,,7,,,79,127
92041,note_off,90,0,0,,7,,,79,127
92042,note_on,1,0,0,,5,,,77,127
92132,note_off,90,0,0,,5,,,77,127
92132,note_off,0,0,0,,5,,,53,127
92133,note_on,1,0,0,,5,,,65,127
92133,note_on,0,0,0,,3,,,75,127
92223,note_off,90,0,0,,3,,,75,127
92224,note_on,1,0,0,,2,,,74,127
92314,note_off,90,0,0,,2,,,74,127
92315,note_on,1,0,0,,0,,,72,127
92405,note_off,90,0,0,,0,,,72,127
92405,note_off,0,0,0,,5,,,65,127
92406,note_on,1,0,0,,7,,,55,127
92406,note_on,0,0,0,,12,,,71,127
92676,note_off,270,0,0,,12,,,71,127
92676,note_off,0,0,0,,7,,,55,127
92677,note_on,1,0,0,,8,,,56,127
92677,note_on,0,0,0,,2,,,74,127
92721,note_off,44,0,0,,2,,,74,127
92722,note_on,1,0,0,,0,,,72,127
92766,note_off,44,0,0,,0,,,72,127
92767,note_on,1,0,0,,2,,,74,127
92811,note_off,44,0,0,,2,,,74,127
92812,note_on,1,0,0,,0,,,72,127
92856,note_off,44,0,0,,0,,,72,127
92857,note_on,1,0,0,,12,,,71,127
92901,note_off,44,0,0,,12,,,71,127
92902,note_on,1,0,0,,0,,,72,127
92946,note_off,44,0,0,,0,,,72,127
92946,note_off,0,0,0,,8,,,56,127
92947,note_on,1,0,0,,7,,,55,127
92947,note_on,0,0,0,,2,,,74,127
93234,note_off,287,0,0,,2,,,74,127
93234,note_off,0,0,0,,7,,,55,127
93252,note_on,18,0,0,,3,,,75,127
93252,note_on,0,0,0,,12,,,71,127
93252,note_on,0,0,0,,7,,,67,127
93252,note_on,0,0,0,,7,,,55,127
93296,note_off,44,0,0,,3,,,75,127
93297,note_on,1,0,0,,2,,,74,127
93341,note_off,44,0,0,,2,,,74,127
93342,note_on,1,0,0,,3,,,75,127
93386,note_off,44,0,0,,3,,,75,127
93387,note_on,1,0,0,,2,,,74,127
93431,note_off,44,0,0,,2,,,74,127
93432,note_on,1,0,0,,3,,,75,127
93476,note_off,44,0,0,,3,,,75,127
93477,note_on,1,0,0,,2,,,74,127
93521,note_off,44,0,0,,7,,,55,127
93521,note_off,0,0,0,,7,,,67,127
93522,note_on,1,0,0,,8,,,56,127
93522,note_on,0,0,0,,5,,,65,127
93556,note_off,34,0,0,,12,,,71,127
93567,note_off,11,0,0,,2,,,74,127
93792,note_off,225,0,0,,5,,,65,127
93792,note_off,0,0,0,,8,,,56,127
93793,note_on,1,0,0,,12,,,71,127
93793,note_on,0,0,0,,3,,,75,127
93793,note_on,0,0,0,,7,,,55,127
93793,note_on,0,0,0,,7,,,67,127
93837,note_off,44,0,0,,3,,,75,127
93838,note_on,1,0,0,,2,,,74,127
93882,note_off,44,0,0,,2,,,74,127
93883,note_on,1,0,0,,3,,,75,127
93927,note_off,44,0,0,,3,,,75,127
93928,note_on,1,0,0,,2,,,74,127
93972,note_off,44,0,0,,2,,,74,127
93973,note_on,1,0,0,,3,,,75,127
94017,note_off,44,0,0,,3,,,75,127
94018,note_on,1,0,0,,2,,,74,127
94062,note_off,44,0,0,,7,,,67,127
94062,note_off,0,0,0,,7,,,55,127
94063,note_on,1,0,0,,5,,,65,127
94063,note_on,0,0,0,,8,,,56,127
94097,note_off,34,0,0,,12,,,71,127
94108,note_off,11,0,0,,2,,,74,127
94333,note_off,225,0,0,,8,,,56,127
94333,note_off,0,0,0,,5,,,65,127
94334,note_on,1,0,0,,12,,,71,127
94334,note_on,0,0,0,,3,,,75,127
94334,note_on,0,0,0,,7,,,55,127
94334,note_on,0,0,0,,7,,,67,127
94378,note_off,44,0,0,,3,,,75,127
94379,note_on,1,0,0,,2,,,74,127
94423,note_off,44,0,0,,2,,,74,127
94424,note_on,1,0,0,,3,,,75,127
94468,note_off,44,0,0,,3,,,75,127
94469,note_on,1,0,0,,2,,,74,127
94513,note_off,44,0,0,,2,,,74,127
94514,note_on,1,0,0,,3,,,75,127
94558,note_off,44,0,0,,3,,,75,127
94559,note_on,1,0,0,,2,,,74,127
94603,note_off,44,0,0,,7,,,67,127
94603,note_off,0,0,0,,7,,,55,127
94604,note_on,1,0,0,,5,,,65,127
94604,note_on,0,0,0,,8,,,56,127
94638,note_off,34,0,0,,12,,,71,127
94649,note_off,11,0,0,,2,,,74,127
94874,note_off,225,0,0,,8,,,56,127
94874,note_off,0,0,0,,5,,,65,127
94875,note_on,1,0,0,,3,,,75,127
94875,note_on,0,0,0,,12,,,71,127
94875,note_on,0,0,0,,7,,,55,127
94875,note_on,0,0,0,,7,,,67,127
94919,note_off,44,0,0,,3,,,75,127
94920,note_on,1,0,0,,2,,,74,127
94964,note_off,44,0,0,,2,,,74,127
94965,note_on,1,0,0,,3,,,75,127
95009,note_off,44,0,0,,3,,,75,127
95010,note_on,1,0,0,,2,,,74,127
95054,note_off,44,0,0,,2,,,74,127
95055,note_on,1,0,0,,3,,,75,127
95099,note_off,44,0,0,,3,,,75,127
95100,note_on,1,0,0,,2,,,74,127
95144,note_off,44,0,0,,7,,,67,127
95144,note_off,0,0,0,,7,,,55,127
95145,note_on,1,0,0,,5,,,65,127
95145,note_on,0,0,0,,8,,,56,127
95179,note_off,34,0,0,,12,,,71,127
95190,note_off,11,0,0,,2,,,74,127
95415,note_off,225,0,0,,8,,,56,127
95415,note_off,0,0,0,,5,,,65,127
95427,note_on,12,0,0,,12,,,59,127
95427,note_on,0,0,0,,7,,,67,127
95427,note_on,0,0,0,,2,,,74,127
95427,note_on,0,0,0,,7,,,79,127
95471,note_off,44,0,0,,7,,,79,127
95472,note_on,1,0,0,,5,,,77,127
95516,note_off,44,0,0,,5,,,77,127
95517,note_on,1,0,0,,7,,,79,127
95561,note_off,44,0,0,,7,,,79,127
95562,note_on,1,0,0,,5,,,77,127
95606,note_off,44,0,0,,5,,,77,127
95607,note_on,1,0,0,,7,,,79,127
95651,note_off,44,0,0,,7,,,79,127
95652,note_on,1,0,0,,5,,,77,127
95696,note_off,44,0,0,,7,,,67,127
95696,note_off,0,0,0,,12,,,59,127
95697,note_on,1,0,0,,8,,,68,127
95697,note_on,0,0,0,,0,,,60,127
95731,note_off,34,0,0,,2,,,74,127
95742,note_off,11,0,0,,5,,,77,127
95967,note_off,225,0,0,,0,,,60,127
95967,note_off,0,0,0,,8,,,68,127
95968,note_on,1,0,0,,12,,,59,127
95968,note_on,0,0,0,,7,,,67,127
95968,note_on,0,0,0,,2,,,74,127
95968,note_on,0,0,0,,7,,,79,127
96012,note_off,44,0,0,,7,,,79,127
96013,note_on,1,0,0,,5,,,77,127
96057,note_off,44,0,0,,5,,,77,127
96058,note_on,1,0,0,,7,,,79,127
96102,note_off,44,0,0,,7,,,79,127
96103,note_on,1,0,0,,5,,,77,127
96147,note_off,44,0,0,,5,,,77,127
96148,note_on,1,0,0,,7,,,79,127
96192,note_off,44,0,0,,7,,,79,127
96193,note_on,1,0,0,,5,,,77,127
96237,note_off,44,0,0,,7,,,67,127
96237,note_off,0,0,0,,12,,,59,127
96238,note_on,1,0,0,,8,,,68,127
96238,note_on,0,0,0,,0,,,60,127
96272,note_off,34,0,0,,2,,,74,127
96283,note_off,11,0,0,,5,,,77,127
96508,note_off,225,0,0,,0,,,60,127
96508,note_off,0,0,0,,8,,,68,127
96509,note_on,1,0,0,,7,,,67,127
96509,note_on,0,0,0,,12,,,59,127
96509,note_on,0,0,0,,2,,,74,127
96509,note_on,0,0,0,,7,,,79,127
96553,note_off,44,0,0,,7,,,79,127
96554,note_on,1,0,0,,5,,,77,127
96598,note_off,44,0,0,,5,,,77,127
96599,note_on,1,0,0,,7,,,79,127
96643,note_off,44,0,0,,7,,,79,127
96644,note_on,1,0,0,,5,,,77,127
96688,note_off,44,0,0,,5,,,77,127
96689,note_on,1,0,0,,7,,,79,127
96733,note_off,44,0,0,,7,,,79,127
96734,note_on,1,0,0,,5,,,77,127
96778,note_off,44,0,0,,12,,,59,127
96778,note_off,0,0,0,,7,,,67,127
96779,note_on,1,0,0,,0,,,60,127
96779,note_on,0,0,0,,8,,,68,127
96813,note_off,34,0,0,,2,,,74,127
96824,note_off,11,0,0,,5,,,77,127
97049,note_off,225,0,0,,8,,,68,127
97049,note_off,0,0,0,,0,,,60,127
97050,note_on,1,0,0,,12,,,59,127
97050,note_on,0,0,0,,7,,,67,127
97050,note_on,0,0,0,,2,,,74,127
97050,note_on,0,0,0,,7,,,79,127
97094,note_off,44,0,0,,7,,,79,127
97095,note_on,1,0,0,,5,,,77,127
97139,note_off,44,0,0,,5,,,77,127
97140,note_on,1,0,0,,7,,,79,127
97184,note_off,44,0,0,,7,,,79,127
97185,note_on,1,0,0,,5,,,77,127
97229,note_off,44,0,0,,5,,,77,127
97230,note_on,1,0,0,,7,,,79,127
97274,note_off,44,0,0,,7,,,79,127
97275,note_on,1,0,0,,5,,,77,127
97319,note_off,44,0,0,,7,,,67,127
97319,note_off,0,0,0,,12,,,59,127
97320,note_on,1,0,0,,0,,,60,127
97320,note_on,0,0,0,,8,,,68,127
97354,note_off,34,0,0,,2,,,74,127
97365,note_off,11,0,0,,5,,,77,127
97590,note_off,225,0,0,,8,,,68,127
97590,note_off,0,0,0,,0,,,60,127
97602,note_on,12,0,0,,0,,,84,127
97602,note_on,0,0,0,,2,,,62,127
97602,note_on,0,0,0,,5,,,65,127
97646,note_off,44,0,0,,0,,,84,127
97647,note_on,1,0,0,,12,,,83,127
97691,note_off,44,0,0,,12,,,83,127
97692,note_on,1,0,0,,0,,,84,127
97736,note_off,44,0,0,,0,,,84,127
97737,note_on,1,0,0,,12,,,83,127
97781,note_off,44,0,0,,12,,,83,127
97782,note_on,1,0,0,,10,,,81,127
97826,note_off,44,0,0,,10,,,81,127
97827,note_on,1,0,0,,12,,,83,127
97871,note_off,44,0,0,,12,,,83,127
97871,note_off,0,0,0,,5,,,65,127
97871,note_off,0,0,0,,2,,,62,127
97872,note_on,1,0,0,,0,,,84,127
97872,note_on,0,0,0,,7,,,67,127
97872,note_on,0,0,0,,3,,,63,127
98142,note_off,270,0,0,,3,,,63,127
98142,note_off,0,0,0,,7,,,67,127
98142,note_off,0,0,0,,0,,,84,127
98143,note_on,1,0,0,,7,,,79,127
98143,note_on,0,0,0,,0,,,60,127
98233,note_off,90,0,0,,7,,,79,127
98234,note_on,1,0,0,,8,,,80,127
98324,note_off,90,0,0,,8,,,80,127
98325,note_on,1,0,0,,11,,,82,127
98415,note_off,90,0,0,,11,,,82,127
98415,note_off,0,0,0,,0,,,60,127
98416,note_on,1,0,0,,8,,,80,127
98416,note_on,0,0,0,,5,,,65,127
98416,note_on,0,0,0,,5,,,53,127
98506,note_off,90,0,0,,8,,,80,127
98507,note_on,1,0,0,,7,,,79,127
98597,note_off,90,0,0,,7,,,79,127
98598,note_on,1,0,0,,5,,,77,127
98688,note_off,90,0,0,,5,,,77,127
98688,note_off,0,0,0,,5,,,53,127
98688,note_off,0,0,0,,5,,,65,127
98689,note_on,1,0,0,,3,,,75,127
98689,note_on,0,0,0,,8,,,56,127
98779,note_off,90,0,0,,3,,,75,127
98780,note_on,1,0,0,,2,,,74,127
98870,note_off,90,0,0,,2,,,74,127
98871,note_on,1,0,0,,0,,,72,127
98961,note_off,90,0,0,,0,,,72,127
98961,note_off,0,0,0,,8,,,56,127
98962,note_on,1,0,0,,0,,,72,127
98962,note_on,0,0,0,,7,,,55,127
99232,note_off,270,0,0,,7,,,55,127
99232,note_off,0,0,0,,0,,,72,127
99233,note_on,1,0,0,,3,,,75,127
99233,note_on,0,0,0,,7,,,43,127
99277,note_off,44,0,0,,3,,,75,127
99278,note_on,1,0,0,,2,,,74,127
99322,note_off,44,0,0,,2,,,74,127
99323,note_on,1,0,0,,3,,,75,127
99367,note_off,44,0,0,,3,,,75,127
99368,note_on,1,0,0,,2,,,74,127
99412,note_off,44,0,0,,2,,,74,127
99413,note_on,1,0,0,,3,,,75,127
99457,note_off,44,0,0,,3,,,75,127
99458,note_on,1,0,0,,2,,,74,127
99502,note_off,44,0,0,,2,,,74,127
99502,note_off,0,0,0,,7,,,43,127
99503,note_on,1,0,0,,0,,,72,127
99503,note_on,0,0,0,,0,,,36,127
99799,note_off,296,0,0,,0,,,72,127
99819,note_on,20,0,0,,0,,,72,127
99819,note_on,0,0,0,,0,,,84,127
99819,note_on,0,0,0,,11,,,82,127
99909,note_off,90,0,0,,11,,,82,127
99909,note_off,0,0,0,,0,,,84,127
99910,note_on,1,0,0,,10,,,81,127
100000,note_off,90,0,0,,10,,,81,127
100001,note_on,1,0,0,,7,,,79,127
100091,note_off,90,0,0,,7,,,79,127
100092,note_on,1,0,0,,0,,,84,127
100182,note_off,90,0,0,,0,,,36,127
100362,note_off,180,0,0,,0,,,84,127
100363,note_on,1,0,0,,11,,,82,127
100363,note_on,0,0,0,,4,,,64,127
100363,note_on,0,0,0,,0,,,60,127
100633,note_off,270,0,0,,4,,,64,127
100633,note_off,0,0,0,,11,,,82,127
100634,note_on,1,0,0,,10,,,81,127
100634,note_on,0,0,0,,5,,,65,127
100904,note_off,270,0,0,,5,,,65,127
100904,note_off,0,0,0,,10,,,81,127
100904,note_off,0,0,0,,0,,,72,127
100905,note_on,1,0,0,,0,,,72,127
100905,note_on,0,0,0,,0,,,84,127
100905,note_on,0,0,0,,11,,,82,127
100905,note_on,0,0,0,,7,,,67,127
100995,note_off,90,0,0,,11,,,82,127
100995,note_off,0,0,0,,0,,,84,127
100996,note_on,1,0,0,,10,,,81,127
101086,note_off,90,0,0,,10,,,81,127
101087,note_on,1,0,0,,7,,,79,127
101177,note_off,90,0,0,,7,,,79,127
101177,note_off,0,0,0,,0,,,60,127
101178,note_on,1,0,0,,0,,,84,127
101448,note_off,270,0,0,,0,,,84,127
101448,note_off,0,0,0,,7,,,67,127
101449,note_on,1,0,0,,11,,,82,127
101449,note_on,0,0,0,,4,,,64,127
101449,note_on,0,0,0,,0,,,60,127
101719,note_off,270,0,0,,4,,,64,127
101719,note_off,0,0,0,,11,,,82,127
101720,note_on,1,0,0,,10,,,81,127
101720,note_on,0,0,0,,5,,,65,127
101990,note_off,270,0,0,,5,,,65,127
101990,note_off,0,0,0,,10,,,81,127
101990,note_off,0,0,0,,0,,,72,127
101991,note_on,1,0,0,,0,,,72,127
101991,note_on,0,0,0,,0,,,84,127
101991,note_on,0,0,0,,11,,,82,127
101991,note_on,0,0,0,,7,,,67,127
102081,note_off,90,0,0,,11,,,82,127
102081,note_off,0,0,0,,0,,,84,127
102082,note_on,1,0,0,,10,,,81,127
102172,note_off,90,0,0,,10,,,81,127
102173,note_on,1,0,0,,7,,,79,127
102263,note_off,90,0,0,,7,,,79,127
102263,note_off,0,0,0,,0,,,60,127
102264,note_on,1,0,0,,0,,,84,127
102534,note_off,270,0,0,,0,,,84,127
102534,note_off,0,0,0,,7,,,67,127
102535,note_on,1,0,0,,11,,,82,127
102535,note_on,0,0,0,,0,,,60,127
102535,note_on,0,0,0,,4,,,64,127
102805,note_off,270,0,0,,4,,,64,127
102805,note_off,0,0,0,,0,,,60,127
102805,note_off,0,0,0,,11,,,82,127
102805,note_off,0,0,0,,0,,,72,127
102806,note_on,1,0,0,,10,,,81,127
102806,note_on,0,0,0,,5,,,65,127
102896,note_off,90,0,0,,10,,,81,127
102897,note_on,1,0,0,,7,,,79,127
102987,note_off,90,0,0,,7,,,79,127
102988,note_on,1,0,0,,5,,,77,127
103078,note_off,90,0,0,,5,,,77,127
103079,note_on,1,0,0,,4,,,76,127
103079,note_on,0,0,0,,5,,,53,127
103169,note_off,90,0,0,,4,,,76,127
103170,note_on,1,0,0,,5,,,77,127
103260,note_off,90,0,0,,5,,,77,127
103261,note_on,1,0,0,,7,,,79,127
103351,note_off,90,0,0,,7,,,79,127
103351,note_off,0,0,0,,5,,,53,127
103351,note_off,0,0,0,,5,,,65,127
103352,note_on,1,0,0,,0,,,72,127
103352,note_on,0,0,0,,7,,,55,127
103622,note_off,270,0,0,,0,,,72,127
103623,note_on,1,0,0,,4,,,76,127
103623,note_on,0,0,0,,7,,,43,127
103667,note_off,44,0,0,,4,,,76,127
103668,note_on,1,0,0,,2,,,74,127
103712,note_off,44,0,0,,2,,,74,127
103713,note_on,1,0,0,,4,,,76,127
103757,note_off,44,0,0,,4,,,76,127
103758,note_on,1,0,0,,2,,,74,127
103802,note_off,44,0,0,,2,,,74,127
103803,note_on,1,0,0,,4,,,76,127
103847,note_off,44,0,0,,4,,,76,127
103848,note_on,1,0,0,,2,,,74,127
103892,note_off,44,0,0,,2,,,74,127
103892,note_off,0,0,0,,7,,,43,127
103892,note_off,0,0,0,,7,,,55,127
103893,note_on,1,0,0,,0,,,72,127
103893,note_on,0,0,0,,0,,,48,127
104163,note_off,270,0,0,,0,,,72,127
104181,note_on,18,0,0,,0,,,72,127
104181,note_on,0,0,0,,11,,,70,127
104181,note_on,0,0,0,,0,,,60,127
104271,note_off,90,0,0,,11,,,70,127
104271,note_off,0,0,0,,0,,,72,127
104272,note_on,1,0,0,,10,,,69,127
104362,note_off,90,0,0,,10,,,69,127
104363,note_on,1,0,0,,7,,,67,127
104453,note_off,90,0,0,,7,,,67,127
104454,note_on,1,0,0,,0,,,72,127
104707,note_off,253,0,0,,0,,,48,127
104724,note_off,17,0,0,,0,,,72,127
104725,note_on,1,0,0,,0,,,48,127
104725,note_on,0,0,0,,4,,,52,127
104725,note_on,0,0,0,,11,,,70,127
104995,note_off,270,0,0,,11,,,70,127
104995,note_off,0,0,0,,4,,,52,127
104996,note_on,1,0,0,,5,,,53,127
104996,note_on,0,0,0,,10,,,69,127
105266,note_off,270,0,0,,10,,,69,127
105266,note_off,0,0,0,,5,,,53,127
105266,note_off,0,0,0,,0,,,60,127
105267,note_on,1,0,0,,7,,,55,127
105267,note_on,0,0,0,,11,,,70,127
105267,note_on,0,0,0,,0,,,72,127
105267,note_on,0,0,0,,0,,,60,127
105357,note_off,90,0,0,,0,,,72,127
105357,note_off,0,0,0,,11,,,70,127
105358,note_on,1,0,0,,10,,,69,127
105448,note_off,90,0,0,,10,,,69,127
105449,note_on,1,0,0,,7,,,67,127
105539,note_off,90,0,0,,7,,,67,127
105539,note_off,0,0,0,,0,,,48,127
105540,note_on,1,0,0,,0,,,72,127
105810,note_off,270,0,0,,0,,,72,127
105810,note_off,0,0,0,,7,,,55,127
105811,note_on,1,0,0,,0,,,48,127
105811,note_on,0,0,0,,4,,,52,127
105811,note_on,0,0,0,,11,,,70,127
106081,note_off,270,0,0,,11,,,70,127
106081,note_off,0,0,0,,4,,,52,127
106082,note_on,1,0,0,,5,,,53,127
106082,note_on,0,0,0,,10,,,69,127
106352,note_off,270,0,0,,10,,,69,127
106352,note_off,0,0,0,,5,,,53,127
106352,note_off,0,0,0,,0,,,60,127
106353,note_on,1,0,0,,7,,,55,127
106353,note_on,0,0,0,,11,,,70,127
106353,note_on,0,0,0,,0,,,60,127
106353,note_on,0,0,0,,0,,,72,127
106443,note_off,90,0,0,,0,,,72,127
106443,note_off,0,0,0,,11,,,70,127
106444,note_on,1,0,0,,10,,,69,127
106534,note_off,90,0,0,,10,,,69,127
106535,note_on,1,0,0,,7,,,67,127
106625,note_off,90,0,0,,7,,,67,127
106625,note_off,0,0,0,,0,,,48,127
106626,note_on,1,0,0,,0,,,72,127
106896,note_off,270,0,0,,0,,,72,127
106896,note_off,0,0,0,,7,,,55,127
106897,note_on,1,0,0,,4,,,52,127
106897,note_on,0,0,0,,0,,,48,127
106897,note_on,0,0,0,,11,,,70,127
107167,note_off,270,0,0,,11,,,70,127
107167,note_off,0,0,0,,0,,,48,127
107167,note_off,0,0,0,,4,,,52,127
107167,note_off,0,0,0,,0,,,60,127
107168,note_on,1,0,0,,5,,,53,127
107168,note_on,0,0,0,,10,,,69,127
107258,note_off,90,0,0,,10,,,69,127
107259,note_on,1,0,0,,12,,,71,127
107349,note_off,90,0,0,,12,,,71,127
107350,note_on,1,0,0,,0,,,72,127
107440,note_off,90,0,0,,0,,,72,127
107441,note_on,1,0,0,,5,,,41,127
107441,note_on,0,0,0,,2,,,74,127
107531,note_off,90,0,0,,2,,,74,127
107532,note_on,1,0,0,,4,,,76,127
107622,note_off,90,0,0,,4,,,76,127
107623,note_on,1,0,0,,5,,,77,127
107713,note_off,90,0,0,,5,,,77,127
107713,note_off,0,0,0,,5,,,41,127
107713,note_off,0,0,0,,5,,,53,127
107714,note_on,1,0,0,,7,,,55,127
107714,note_on,0,0,0,,0,,,72,127
107714,note_on,0,0,0,,4,,,76,127
107984,note_off,270,0,0,,0,,,72,127
107985,note_on,1,0,0,,7,,,43,127
107985,note_on,0,0,0,,12,,,71,127
108030,note_on,45,0,0,,2,,,74,127
108031,note_off,1,0,0,,4,,,76,127
108074,note_off,43,0,0,,2,,,74,127
108075,note_on,1,0,0,,4,,,76,127
108119,note_off,44,0,0,,4,,,76,127
108120,note_on,1,0,0,,2,,,74,127
108164,note_off,44,0,0,,2,,,74,127
108165,note_on,1,0,0,,4,,,76,127
108209,note_off,44,0,0,,4,,,76,127
108210,note_on,1,0,0,,2,,,74,127
108254,note_off,44,0,0,,2,,,74,127
108254,note_off,0,0,0,,12,,,71,127
108254,note_off,0,0,0,,7,,,43,127
108254,note_off,0,0,0,,7,,,55,127
108255,note_on,1,0,0,,0,,,36,127
108255,note_on,0,0,0,,0,,,72,127
108368,note_on,113,0,0,,0,,,84,127
108453,note_off,85,0,0,,0,,,72,127
108458,note_off,5,0,0,,0,,,84,127
108459,note_on,1,0,0,,12,,,83,127
108549,note_off,90,0,0,,12,,,83,127
108550,note_on,1,0,0,,10,,,81,127
108640,note_off,90,0,0,,10,,,81,127
108641,note_on,1,0,0,,7,,,79,127
108731,note_off,90,0,0,,7,,,79,127
108732,note_on,1,0,0,,5,,,77,127
108822,note_off,90,0,0,,5,,,77,127
108823,note_on,1,0,0,,4,,,76,127
108913,note_off,90,0,0,,4,,,76,127
108914,note_on,1,0,0,,2,,,74,127
109004,note_off,90,0,0,,2,,,74,127
109005,note_on,1,0,0,,0,,,72,127
109095,note_off,90,0,0,,0,,,72,127
109096,note_on,1,0,0,,12,,,71,127
109186,note_off,90,0,0,,12,,,71,127
109187,note_on,1,0,0,,10,,,69,127
109277,note_off,90,0,0,,10,,,69,127
109278,note_on,1,0,0,,7,,,67,127
109345,note_off,67,0,0,,0,,,36,127
109368,note_off,23,0,0,,7,,,67,127
109369,note_on,1,0,0,,5,,,65,127
109459,note_off,90,0,0,,5,,,65,127
109460,note_on,1,0,0,,4,,,64,127
109550,note_off,90,0,0,,4,,,64,127
109551,note_on,1,0,0,,2,,,62,127
109641,note_off,90,0,0,,2,,,62,127
109642,note_on,1,0,0,,0,,,60,127
109732,note_off,90,0,0,,0,,,60,127
109733,note_on,1,0,0,,12,,,59,127
109823,note_off,90,0,0,,12,,,59,127
109824,note_on,1,0,0,,10,,,57,127
109914,note_off,90,0,0,,10,,,57,127
109915,note_on,1,0,0,,7,,,55,127
110005,note_off,90,0,0,,7,,,55,127
110006,note_on,1,0,0,,5,,,53,127
110096,note_off,90,0,0,,5,,,53,127
110097,note_on,1,0,0,,4,,,52,127
110187,note_off,90,0,0,,4,,,52,127
110188,note_on,1,0,0,,2,,,50,127
110278,note_off,90,0,0,,2,,,50,127
110279,note_on,1,0,0,,0,,,48,127
110369,note_off,90,0,0,,0,,,48,127
110370,note_on,1,0,0,,2,,,50,127
110460,note_off,90,0,0,,2,,,50,127
110461,note_on,1,0,0,,7,,,43,127
110732,note_on,271,0,0,,7,,,67,127
110799,note_off,67,0,0,,7,,,67,127
110800,note_on,1,0,0,,10,,,69,127
110867,note_off,67,0,0,,10,,,69,127
110868,note_on,1,0,0,,12,,,71,127
110935,note_off,67,0,0,,12,,,71,127
110936,note_on,1,0,0,,0,,,72,127
111003,note_off,67,0,0,,0,,,72,127
111003,note_off,0,0,0,,7,,,43,127
111004,note_on,1,0,0,,7,,,43,127
111004,note_on,0,0,0,,4,,,76,127
111057,note_off,53,0,0,,4,,,76,127
111058,note_on,1,0,0,,2,,,74,127
111111,note_off,53,0,0,,2,,,74,127
111112,note_on,1,0,0,,4,,,76,127
111165,note_off,53,0,0,,4,,,76,127
111166,note_on,1,0,0,,2,,,74,127
111219,note_off,53,0,0,,2,,,74,127
111220,note_on,1,0,0,,4,,,76,127
111273,note_off,53,0,0,,4,,,76,127
111274,note_on,1,0,0,,2,,,74,127
111327,note_off,53,0,0,,2,,,74,127
111328,note_on,1,0,0,,4,,,76,127
111381,note_off,53,0,0,,4,,,76,127
111382,note_on,1,0,0,,2,,,74,127
111435,note_off,53,0,0,,2,,,74,127
111436,note_on,1,0,0,,0,,,72,127
111489,note_off,53,0,0,,0,,,72,127
111490,note_on,1,0,0,,2,,,74,127
111543,note_off,53,0,0,,2,,,74,127
111544,note_off,1,0,0,,7,,,43,127
111545,note_on,1,0,0,,0,,,36,127
111545,note_on,0,0,0,,0,,,72,127
111644,note_off,99,0,0,,0,,,72,127
111647,note_on,3,0,0,,0,,,84,127
111737,note_off,90,0,0,,0,,,84,127
111738,note_on,1,0,0,,12,,,83,127
111828,note_off,90,0,0,,12,,,83,127
111829,note_on,1,0,0,,10,,,81,127
111919,note_off,90,0,0,,10,,,81,127
111920,note_on,1,0,0,,7,,,79,127
112010,note_off,90,0,0,,7,,,79,127
112011,note_on,1,0,0,,5,,,77,127
112101,note_off,90,0,0,,5,,,77,127
112102,note_on,1,0,0,,4,,,76,127
112192,note_off,90,0,0,,4,,,76,127
112193,note_on,1,0,0,,2,,,74,127
112283,note_off,90,0,0,,2,,,74,127
112284,note_on,1,0,0,,0,,,72,127
112374,note_off,90,0,0,,0,,,72,127
112375,note_on,1,0,0,,12,,,71,127
112465,note_off,90,0,0,,12,,,71,127
112466,note_on,1,0,0,,10,,,69,127
112556,note_off,90,0,0,,10,,,69,127
112557,note_on,1,0,0,,7,,,67,127
112635,note_off,78,0,0,,0,,,36,127
112646,note_off,11,0,0,,7,,,67,127
112647,note_on,1,0,0,,5,,,65,127
112737,note_off,90,0,0,,5,,,65,127
112738,note_on,1,0,0,,4,,,64,127
112828,note_off,90,0,0,,4,,,64,127
112829,note_on,1,0,0,,2,,,62,127
112919,note_off,90,0,0,,2,,,62,127
112920,note_on,1,0,0,,0,,,60,127
113010,note_off,90,0,0,,0,,,60,127
113011,note_on,1,0,0,,12,,,59,127
113101,note_off,90,0,0,,12,,,59,127
113102,note_on,1,0,0,,10,,,57,127
113192,note_off,90,0,0,,10,,,57,127
113193,note_on,1,0,0,,7,,,55,127
113283,note_off,90,0,0,,7,,,55,127
113284,note_on,1,0,0,,5,,,53,127
113374,note_off,90,0,0,,5,,,53,127
113375,note_on,1,0,0,,4,,,52,127
113465,note_off,90,0,0,,4,,,52,127
113466,note_on,1,0,0,,2,,,50,127
113556,note_off,90,0,0,,2,,,50,127
113557,note_on,1,0,0,,0,,,48,127
113647,note_off,90,0,0,,0,,,48,127
113648,note_on,1,0,0,,2,,,50,127
113738,note_off,90,0,0,,2,,,50,127
113739,note_on,1,0,0,,7,,,43,127
114010,note_on,271,0,0,,7,,,67,127
114077,note_off,67,0,0,,7,,,67,127
114078,note_on,1,0,0,,10,,,69,127
114145,note_off,67,0,0,,10,,,69,127
114146,note_on,1,0,0,,12,,,71,127
114213,note_off,67,0,0,,12,,,71,127
114214,note_on,1,0,0,,0,,,72,127
114281,note_off,67,0,0,,0,,,72,127
114281,note_off,0,0,0,,7,,,43,127
114282,note_on,1,0,0,,4,,,76,127
114282,note_on,0,0,0,,7,,,43,127
114335,note_off,53,0,0,,4,,,76,127
114336,note_on,1,0,0,,2,,,74,127
114389,note_off,53,0,0,,2,,,74,127
114390,note_on,1,0,0,,4,,,76,127
114443,note_off,53,0,0,,4,,,76,127
114444,note_on,1,0,0,,2,,,74,127
114497,note_off,53,0,0,,2,,,74,127
114498,note_on,1,0,0,,4,,,76,127
114551,note_off,53,0,0,,4,,,76,127
114552,note_on,1,0,0,,2,,,74,127
114605,note_off,53,0,0,,2,,,74,127
114606,note_on,1,0,0,,4,,,76,127
114659,note_off,53,0,0,,4,,,76,127
114660,note_on,1,0,0,,2,,,74,127
114713,note_off,53,0,0,,2,,,74,127
114714,note_on,1,0,0,,0,,,72,127
114767,note_off,53,0,0,,0,,,72,127
114768,note_on,1,0,0,,2,,,74,127
114821,note_off,53,0,0,,2,,,74,127
114822,note_off,1,0,0,,7,,,43,127
114834,note_on,12,0,0,,0,,,48,127
114834,note_on,0,0,0,,0,,,36,127
114834,note_on,0,0,0,,2,,,74,127
114878,note_off,44,0,0,,2,,,74,127
114879,note_on,1,0,0,,0,,,72,127
114923,note_off,44,0,0,,0,,,72,127
114924,note_on,1,0,0,,2,,,74,127
114968,note_off,44,0,0,,2,,,74,127
114969,note_on,1,0,0,,0,,,72,127
115013,note_off,44,0,0,,0,,,72,127
115014,note_on,1,0,0,,12,,,71,127
115058,note_off,44,0,0,,12,,,71,127
115059,note_on,1,0,0,,0,,,72,127
115103,note_off,44,0,0,,0,,,72,127
115103,note_off,0,0,0,,0,,,36,127
115103,note_off,0,0,0,,0,,,48,127
115104,note_on,1,0,0,,7,,,43,127
115104,note_on,0,0,0,,4,,,76,127
115148,note_off,44,0,0,,4,,,76,127
115149,note_on,1,0,0,,2,,,74,127
115193,note_off,44,0,0,,2,,,74,127
115194,note_on,1,0,0,,4,,,76,127
115238,note_off,44,0,0,,4,,,76,127
115239,note_on,1,0,0,,2,,,74,127
115283,note_off,44,0,0,,2,,,74,127
115284,note_on,1,0,0,,0,,,72,127
115328,note_off,44,0,0,,0,,,72,127
115329,note_on,1,0,0,,2,,,74,127
115373,note_off,44,0,0,,2,,,74,127
115373,note_off,0,0,0,,7,,,43,127
115374,note_on,1,0,0,,0,,,36,127
115374,note_on,0,0,0,,0,,,48,127
115374,note_on,0,0,0,,5,,,77,127
115418,note_off,44,0,0,,5,,,77,127
115419,note_on,1,0,0,,4,,,76,127
115463,note_off,44,0,0,,4,,,76,127
115464,note_on,1,0,0,,5,,,77,127
115508,note_off,44,0,0,,5,,,77,127
115509,note_on,1,0,0,,4,,,76,127
115553,note_off,44,0,0,,4,,,76,127
115554,note_on,1,0,0,,2,,,74,127
115598,note_off,44,0,0,,2,,,74,127
115599,note_on,1,0,0,,4,,,76,127
115643,note_off,44,0,0,,4,,,76,127
115643,note_off,0,0,0,,0,,,48,127
115643,note_off,0,0,0,,0,,,36,127
115644,note_on,1,0,0,,2,,,38,127
115644,note_on,0,0,0,,2,,,50,127
115644,note_on,0,0,0,,7,,,79,127
115688,note_off,44,0,0,,7,,,79,127
115689,note_on,1,0,0,,5,,,77,127
115733,note_off,44,0,0,,5,,,77,127
115734,note_on,1,0,0,,7,,,79,127
115778,note_off,44,0,0,,7,,,79,127
115779,note_on,1,0,0,,5,,,77,127
115823,note_off,44,0,0,,5,,,77,127
115824,note_on,1,0,0,,4,,,76,127
115868,note_off,44,0,0,,4,,,76,127
115869,note_on,1,0,0,,5,,,77,127
115913,note_off,44,0,0,,5,,,77,127
115913,note_off,0,0,0,,2,,,50,127
115913,note_off,0,0,0,,2,,,38,127
115914,note_on,1,0,0,,4,,,40,127
115914,note_on,0,0,0,,4,,,52,127
115914,note_on,0,0,0,,10,,,81,127
115958,note_off,44,0,0,,10,,,81,127
115959,note_on,1,0,0,,7,,,79,127
116003,note_off,44,0,0,,7,,,79,127
116004,note_on,1,0,0,,10,,,81,127
116048,note_off,44,0,0,,10,,,81,127
116049,note_on,1,0,0,,7,,,79,127
116093,note_off,44,0,0,,7,,,79,127
116094,note_on,1,0,0,,5,,,77,127
116138,note_off,44,0,0,,5,,,77,127
116139,note_on,1,0,0,,7,,,79,127
116183,note_off,44,0,0,,7,,,79,127
116183,note_off,0,0,0,,4,,,52,127
116183,note_off,0,0,0,,4,,,40,127
116184,note_on,1,0,0,,5,,,41,127
116184,note_on,0,0,0,,5,,,53,127
116184,note_on,0,0,0,,10,,,81,127
116454,note_off,270,0,0,,5,,,53,127
116454,note_off,0,0,0,,5,,,41,127
116455,note_on,1,0,0,,7,,,55,127
116725,note_off,270,0,0,,10,,,81,127
116726,note_on,1,0,0,,7,,,43,127
116726,note_on,0,0,0,,7,,,79,127
116793,note_off,67,0,0,,7,,,79,127
116794,note_on,1,0,0,,5,,,77,127
116861,note_off,67,0,0,,5,,,77,127
116862,note_on,1,0,0,,4,,,76,127
116929,note_off,67,0,0,,4,,,76,127
116930,note_on,1,0,0,,2,,,74,127
116997,note_off,67,0,0,,2,,,74,127
116997,note_off,0,0,0,,7,,,43,127
116997,note_off,0,0,0,,7,,,55,127
117009,note_on,12,0,0,,2,,,74,127
117009,note_on,0,0,0,,0,,,36,127
117009,note_on,0,0,0,,0,,,48,127
117053,note_off,44,0,0,,2,,,74,127
117054,note_on,1,0,0,,0,,,72,127
117098,note_off,44,0,0,,0,,,72,127
117099,note_on,1,0,0,,2,,,74,127
117143,note_off,44,0,0,,2,,,74,127
117144,note_on,1,0,0,,0,,,72,127
117188,note_off,44,0,0,,0,,,72,127
117189,note_on,1,0,0,,12,,,71,127
117233,note_off,44,0,0,,12,,,71,127
117234,note_on,1,0,0,,0,,,72,127
117278,note_off,44,0,0,,0,,,72,127
117278,note_off,0,0,0,,0,,,48,127
117278,note_off,0,0,0,,0,,,36,127
117279,note_on,1,0,0,,4,,,76,127
117279,note_on,0,0,0,,7,,,31,127
117279,note_on,0,0,0,,7,,,43,127
117323,note_off,44,0,0,,4,,,76,127
117324,note_on,1,0,0,,2,,,74,127
117368,note_off,44,0,0,,2,,,74,127
117369,note_on,1,0,0,,4,,,76,127
117413,note_off,44,0,0,,4,,,76,127
117414,note_on,1,0,0,,2,,,74,127
117458,note_off,44,0,0,,2,,,74,127
117459,note_on,1,0,0,,0,,,72,127
117503,note_off,44,0,0,,0,,,72,127
117504,note_on,1,0,0,,2,,,74,127
117548,note_off,44,0,0,,2,,,74,127
117548,note_off,0,0,0,,7,,,43,127
117548,note_off,0,0,0,,7,,,31,127
117549,note_on,1,0,0,,5,,,77,127
117549,note_on,0,0,0,,0,,,48,127
117549,note_on,0,0,0,,0,,,36,127
117593,note_off,44,0,0,,5,,,77,127
117594,note_on,1,0,0,,4,,,76,127
117638,note_off,44,0,0,,4,,,76,127
117639,note_on,1,0,0,,5,,,77,127
117683,note_off,44,0,0,,5,,,77,127
117684,note_on,1,0,0,,4,,,76,127
117728,note_off,44,0,0,,4,,,76,127
117729,note_on,1,0,0,,2,,,74,127
117773,note_off,44,0,0,,2,,,74,127
117774,note_on,1,0,0,,4,,,76,127
117818,note_off,44,0,0,,4,,,76,127
117818,note_off,0,0,0,,0,,,36,127
117818,note_off,0,0,0,,0,,,48,127
117819,note_on,1,0,0,,7,,,79,127
117819,note_on,0,0,0,,2,,,38,127
117819,note_on,0,0,0,,2,,,50,127
117863,note_off,44,0,0,,7,,,79,127
117864,note_on,1,0,0,,5,,,77,127
117908,note_off,44,0,0,,5,,,77,127
117909,note_on,1,0,0,,7,,,79,127
117953,note_off,44,0,0,,7,,,79,127
117954,note_on,1,0,0,,5,,,77,127
117998,note_off,44,0,0,,5,,,77,127
117999,note_on,1,0,0,,4,,,76,127
118043,note_off,44,0,0,,4,,,76,127
118044,note_on,1,0,0,,5,,,77,127
118088,note_off,44,0,0,,5,,,77,127
118088,note_off,0,0,0,,2,,,50,127
118088,note_off,0,0,0,,2,,,38,127
118089,note_on,1,0,0,,10,,,81,127
118089,note_on,0,0,0,,4,,,52,127
118089,note_on,0,0,0,,4,,,40,127
118133,note_off,44,0,0,,10,,,81,127
118134,note_on,1,0,0,,7,,,79,127
118178,note_off,44,0,0,,7,,,79,127
118179,note_on,1,0,0,,10,,,81,127
118223,note_off,44,0,0,,10,,,81,127
118224,note_on,1,0,0,,7,,,79,127
118268,note_off,44,0,0,,7,,,79,127
118269,note_on,1,0,0,,5,,,77,127
118313,note_off,44,0,0,,5,,,77,127
118314,note_on,1,0,0,,7,,,79,127
118358,note_off,44,0,0,,7,,,79,127
118358,note_off,0,0,0,,4,,,40,127
118358,note_off,0,0,0,,4,,,52,127
118359,note_on,1,0,0,,10,,,81,127
118359,note_on,0,0,0,,5,,,41,127
118359,note_on,0,0,0,,5,,,53,127
118629,note_off,270,0,0,,5,,,53,127
118629,note_off,0,0,0,,5,,,41,127
118630,note_on,1,0,0,,7,,,55,127
118900,note_off,270,0,0,,10,,,81,127
118901,note_on,1,0,0,,7,,,79,127
118901,note_on,0,0,0,,7,,,43,127
118968,note_off,67,0,0,,7,,,79,127
118969,note_on,1,0,0,,5,,,77,127
119036,note_off,67,0,0,,5,,,77,127
119037,note_on,1,0,0,,4,,,76,127
119104,note_off,67,0,0,,4,,,76,127
119105,note_on,1,0,0,,2,,,74,127
119172,note_off,67,0,0,,2,,,74,127
119172,note_off,0,0,0,,7,,,43,127
119172,note_off,0,0,0,,7,,,55,127
119190,note_on,18,0,0,,2,,,74,127
119190,note_on,0,0,0,,0,,,36,127
119190,note_on,0,0,0,,0,,,48,127
119234,note_off,44,0,0,,2,,,74,127
119235,note_on,1,0,0,,0,,,72,127
119279,note_off,44,0,0,,0,,,72,127
119280,note_on,1,0,0,,2,,,74,127
119324,note_off,44,0,0,,2,,,74,127
119325,note_on,1,0,0,,0,,,72,127
119369,note_off,44,0,0,,0,,,72,127
119370,note_on,1,0,0,,12,,,71,127
119414,note_off,44,0,0,,12,,,71,127
119415,note_on,1,0,0,,0,,,72,127
119459,note_off,44,0,0,,0,,,72,127
119459,note_off,0,0,0,,0,,,48,127
119459,note_off,0,0,0,,0,,,36,127
119460,note_on,1,0,0,,4,,,76,127
119460,note_on,0,0,0,,7,,,31,127
119460,note_on,0,0,0,,7,,,43,127
119504,note_off,44,0,0,,4,,,76,127
119505,note_on,1,0,0,,2,,,74,127
119549,note_off,44,0,0,,2,,,74,127
119550,note_on,1,0,0,,4,,,76,127
119594,note_off,44,0,0,,4,,,76,127
119595,note_on,1,0,0,,2,,,74,127
119639,note_off,44,0,0,,2,,,74,127
119640,note_on,1,0,0,,0,,,72,127
119684,note_off,44,0,0,,0,,,72,127
119685,note_on,1,0,0,,2,,,74,127
119729,note_off,44,0,0,,2,,,74,127
119729,note_off,0,0,0,,7,,,43,127
119729,note_off,0,0,0,,7,,,31,127
119730,note_on,1,0,0,,5,,,77,127
119730,note_on,0,0,0,,0,,,36,127
119730,note_on,0,0,0,,0,,,48,127
119774,note_off,44,0,0,,5,,,77,127
119775,note_on,1,0,0,,4,,,76,127
119819,note_off,44,0,0,,4,,,76,127
119820,note_on,1,0,0,,5,,,77,127
119864,note_off,44,0,0,,5,,,77,127
119865,note_on,1,0,0,,4,,,76,127
119909,note_off,44,0,0,,4,,,76,127
119910,note_on,1,0,0,,2,,,74,127
119954,note_off,44,0,0,,2,,,74,127
119955,note_on,1,0,0,,4,,,76,127
119999,note_off,44,0,0,,4,,,76,127
119999,note_off,0,0,0,,0,,,48,127
119999,note_off,0,0,0,,0,,,36,127
120000,note_on,1,0,0,,7,,,79,127
120000,note_on,0,0,0,,2,,,50,127
120000,note_on,0,0,0,,2,,,38,127
120044,note_off,44,0,0,,7,,,79,127
120045,note_on,1,0,0,,5,,,77,127
120089,note_off,44,0,0,,5,,,77,127
120090,note_on,1,0,0,,7,,,79,127
120134,note_off,44,0,0,,7,,,79,127
120135,note_on,1,0,0,,5,,,77,127
120179,note_off,44,0,0,,5,,,77,127
120180,note_on,1,0,0,,4,,,76,127
120224,note_off,44,0,0,,4,,,76,127
120225,note_on,1,0,0,,5,,,77,127
120269,note_off,44,0,0,,5,,,77,127
120269,note_off,0,0,0,,2,,,38,127
120269,note_off,0,0,0,,2,,,50,127
120270,note_on,1,0,0,,10,,,81,127
120270,note_on,0,0,0,,4,,,52,127
120270,note_on,0,0,0,,4,,,40,127
120314,note_off,44,0,0,,10,,,81,127
120315,note_on,1,0,0,,7,,,79,127
120359,note_off,44,0,0,,7,,,79,127
120360,note_on,1,0,0,,10,,,81,127
120404,note_off,44,0,0,,10,,,81,127
120405,note_on,1,0,0,,7,,,79,127
120449,note_off,44,0,0,,7,,,79,127
120450,note_on,1,0,0,,5,,,77,127
120494,note_off,44,0,0,,5,,,77,127
120495,note_on,1,0,0,,7,,,79,127
120539,note_off,44,0,0,,7,,,79,127
120539,note_off,0,0,0,,4,,,40,127
120539,note_off,0,0,0,,4,,,52,127
120540,note_on,1,0,0,,12,,,83,127
120540,note_on,0,0,0,,5,,,53,127
120540,note_on,0,0,0,,5,,,41,127
120584,note_off,44,0,0,,12,,,83,127
120585,note_on,1,0,0,,10,,,81,127
120629,note_off,44,0,0,,10,,,81,127
120630,note_on,1,0,0,,12,,,83,127
120674,note_off,44,0,0,,12,,,83,127
120675,note_on,1,0,0,,10,,,81,127
120719,note_off,44,0,0,,10,,,81,127
120720,note_on,1,0,0,,7,,,79,127
120764,note_off,44,0,0,,7,,,79,127
120765,note_on,1,0,0,,10,,,81,127
120809,note_off,44,0,0,,10,,,81,127
120809,note_off,0,0,0,,5,,,41,127
120809,note_off,0,0,0,,5,,,53,127
120810,note_on,1,0,0,,0,,,84,127
120810,note_on,0,0,0,,7,,,55,127
120854,note_off,44,0,0,,0,,,84,127
120855,note_on,1,0,0,,12,,,83,127
120899,note_off,44,0,0,,12,,,83,127
120900,note_on,1,0,0,,0,,,84,127
120944,note_off,44,0,0,,0,,,84,127
120945,note_on,1,0,0,,12,,,83,127
120989,note_off,44,0,0,,12,,,83,127
120990,note_on,1,0,0,,0,,,84,127
121034,note_off,44,0,0,,0,,,84,127
121035,note_on,1,0,0,,12,,,83,127
121079,note_off,44,0,0,,12,,,83,127
121080,note_on,1,0,0,,0,,,84,127
121080,note_on,0,0,0,,7,,,43,127
121124,note_off,44,0,0,,0,,,84,127
121125,note_on,1,0,0,,12,,,83,127
121169,note_off,44,0,0,,12,,,83,127
121170,note_on,1,0,0,,0,,,84,127
121214,note_off,44,0,0,,0,,,84,127
121215,note_on,1,0,0,,12,,,83,127
121259,note_off,44,0,0,,12,,,83,127
121260,note_on,1,0,0,,10,,,81,127
121304,note_off,44,0,0,,10,,,81,127
121305,note_on,1,0,0,,12,,,83,127
121349,note_off,44,0,0,,12,,,83,127
121349,note_off,0,0,0,,7,,,43,127
121349,note_off,0,0,0,,7,,,55,127
121361,note_on,12,0,0,,0,,,36,127
121361,note_on,0,0,0,,2,,,86,127
121902,note_off,541,0,0,,2,,,86,127
121903,note_on,1,0,0,,0,,,84,127
123337,note_off,1434,0,0,,0,,,36,127
123540,note_off,203,0,0,,0,,,84,127
124416,end_of_track,876,1,0,,,,,,
