tick,type,time,meta,track,program,channel,pitch,tempo,note,velocity
0,copyright,0,1,0,,,,,,
0,program_change,0,0,0,6,0,,,,
0,pitchwheel,0,0,0,,0,0,,,
0,program_change,0,0,0,6,1,,,,
0,pitchwheel,0,0,0,,1,-590,,,
0,program_change,0,0,0,6,2,,,,
0,pitchwheel,0,0,0,,2,-272,,,
0,program_change,0,0,0,6,3,,,,
0,pitchwheel,0,0,0,,3,-353,,,
0,program_change,0,0,0,6,4,,,,
0,pitchwheel,0,0,0,,4,-560,,,
0,program_change,0,0,0,6,5,,,,
0,pitchwheel,0,0,0,,5,-80,,,
0,program_change,0,0,0,6,6,,,,
0,pitchwheel,0,0,0,,6,-625,,,
0,program_change,0,0,0,6,7,,,,
0,pitchwheel,0,0,0,,7,-130,,,
0,program_change,0,0,0,6,8,,,,
0,pitchwheel,0,0,0,,8,-512,,,
0,program_change,0,0,0,6,10,,,,
0,pitchwheel,0,0,0,,10,-464,,,
0,program_change,0,0,0,6,11,,,,
0,pitchwheel,0,0,0,,11,-208,,,
0,program_change,0,0,0,6,12,,,,
0,pitchwheel,0,0,0,,12,-553,,,
0,set_tempo,0,1,0,,,,500000,,
115,note_on,115,0,0,,0,,,36,127
345,note_on,230,0,0,,7,,,79,127
345,note_on,0,0,0,,4,,,76,127
574,note_off,229,0,0,,4,,,76,127
574,note_off,0,0,0,,7,,,79,127
575,note_on,1,0,0,,7,,,79,127
575,note_on,0,0,0,,4,,,76,127
804,note_off,229,0,0,,4,,,76,127
804,note_off,0,0,0,,7,,,79,127
805,note_on,1,0,0,,7,,,79,127
805,note_on,0,0,0,,4,,,76,127
1034,note_off,229,0,0,,4,,,76,127
1034,note_off,0,0,0,,7,,,79,127
1035,note_on,1,0,0,,0,,,72,127
1035,note_on,0,0,0,,4,,,76,127
1264,note_off,229,0,0,,4,,,76,127
1264,note_off,0,0,0,,0,,,72,127
1265,note_on,1,0,0,,7,,,79,127
1265,note_on,0,0,0,,4,,,76,127
1494,note_off,229,0,0,,4,,,76,127
1494,note_off,0,0,0,,7,,,79,127
1495,note_off,1,0,0,,0,,,36,127
1495,note_on,0,0,0,,7,,,79,127
1495,note_on,0,0,0,,4,,,76,127
1724,note_off,229,0,0,,4,,,76,127
1724,note_off,0,0,0,,7,,,79,127
1725,note_on,1,0,0,,4,,,76,127
1725,note_on,0,0,0,,0,,,72,127
1954,note_off,229,0,0,,0,,,72,127
1954,note_off,0,0,0,,4,,,76,127
1955,note_on,1,0,0,,7,,,79,127
1955,note_on,0,0,0,,4,,,76,127
2184,note_off,229,0,0,,4,,,76,127
2184,note_off,0,0,0,,7,,,79,127
2185,note_on,1,0,0,,4,,,76,127
2185,note_on,0,0,0,,7,,,79,127
2415,note_on,230,0,0,,10,,,69,127
2415,note_on,0,0,0,,10,,,81,127
2473,note_off,58,0,0,,7,,,79,127
2473,note_off,0,0,0,,4,,,76,127
2646,note_on,173,0,0,,5,,,77,127
2646,note_on,0,0,0,,2,,,74,127
2704,note_off,58,0,0,,10,,,81,127
2704,note_off,0,0,0,,10,,,69,127
2877,note_on,173,0,0,,7,,,79,127
2877,note_on,0,0,0,,7,,,67,127
2935,note_off,58,0,0,,2,,,74,127
2935,note_off,0,0,0,,5,,,77,127
3108,note_on,173,0,0,,0,,,72,127
3108,note_on,0,0,0,,4,,,76,127
3166,note_off,58,0,0,,7,,,67,127
3166,note_off,0,0,0,,7,,,79,127
3339,note_on,173,0,0,,5,,,77,127
3339,note_on,0,0,0,,5,,,65,127
3397,note_off,58,0,0,,4,,,76,127
3397,note_off,0,0,0,,0,,,72,127
3570,note_on,173,0,0,,12,,,71,127
3570,note_on,0,0,0,,2,,,74,127
3628,note_off,58,0,0,,5,,,65,127
3628,note_off,0,0,0,,5,,,77,127
3801,note_on,173,0,0,,4,,,76,127
3801,note_on,0,0,0,,4,,,64,127
3859,note_off,58,0,0,,2,,,74,127
3859,note_off,0,0,0,,12,,,71,127
4032,note_on,173,0,0,,10,,,69,127
4032,note_on,0,0,0,,0,,,72,127
4090,note_off,58,0,0,,4,,,64,127
4090,note_off,0,0,0,,4,,,76,127
4263,note_on,173,0,0,,5,,,65,127
4263,note_on,0,0,0,,2,,,74,127
4321,note_off,58,0,0,,0,,,72,127
4321,note_off,0,0,0,,10,,,69,127
4494,note_on,173,0,0,,12,,,71,127
4494,note_on,0,0,0,,7,,,67,127
4552,note_off,58,0,0,,2,,,74,127
4552,note_off,0,0,0,,5,,,65,127
4724,note_off,172,0,0,,7,,,67,127
4724,note_off,0,0,0,,12,,,71,127
4725,note_on,1,0,0,,10,,,69,127
4725,note_on,0,0,0,,0,,,72,127
4954,note_off,229,0,0,,0,,,72,127
4954,note_off,0,0,0,,10,,,69,127
4955,note_on,1,0,0,,12,,,71,127
4955,note_on,0,0,0,,7,,,67,127
5183,note_off,228,0,0,,7,,,67,127
5183,note_off,0,0,0,,12,,,71,127
5195,note_on,12,0,0,,7,,,67,127
5195,note_on,0,0,0,,7,,,79,127
5424,note_off,229,0,0,,7,,,79,127
5424,note_off,0,0,0,,7,,,67,127
5425,note_on,1,0,0,,4,,,64,127
5425,note_on,0,0,0,,7,,,79,127
5654,note_off,229,0,0,,7,,,79,127
5654,note_off,0,0,0,,4,,,64,127
5655,note_on,1,0,0,,0,,,60,127
5655,note_on,0,0,0,,7,,,79,127
5884,note_off,229,0,0,,7,,,79,127
5884,note_off,0,0,0,,0,,,60,127
5885,note_on,1,0,0,,10,,,57,127
5885,note_on,0,0,0,,10,,,81,127
5943,note_on,58,0,0,,7,,,79,127
5960,note_off,17,0,0,,10,,,81,127
6001,note_on,41,0,0,,10,,,81,127
6018,note_off,17,0,0,,7,,,79,127
6059,note_on,41,0,0,,7,,,79,127
6076,note_off,17,0,0,,10,,,81,127
6116,note_off,40,0,0,,10,,,57,127
6117,note_on,1,0,0,,5,,,53,127
6117,note_on,0,0,0,,10,,,81,127
6134,note_off,17,0,0,,7,,,79,127
6175,note_on,41,0,0,,7,,,79,127
6192,note_off,17,0,0,,10,,,81,127
6233,note_on,41,0,0,,5,,,77,127
6250,note_off,17,0,0,,7,,,79,127
6291,note_on,41,0,0,,4,,,76,127
6308,note_off,17,0,0,,5,,,77,127
6348,note_off,40,0,0,,5,,,53,127
6349,note_on,1,0,0,,2,,,50,127
6349,note_on,0,0,0,,5,,,77,127
6366,note_off,17,0,0,,4,,,76,127
6578,note_off,212,0,0,,5,,,77,127
6578,note_off,0,0,0,,2,,,50,127
6589,note_on,11,0,0,,5,,,53,127
6589,note_on,0,0,0,,5,,,77,127
6818,note_off,229,0,0,,5,,,77,127
6818,note_off,0,0,0,,5,,,53,127
6819,note_on,1,0,0,,2,,,50,127
6819,note_on,0,0,0,,5,,,77,127
7048,note_off,229,0,0,,5,,,77,127
7048,note_off,0,0,0,,2,,,50,127
7049,note_on,1,0,0,,12,,,47,127
7049,note_on,0,0,0,,5,,,77,127
7278,note_off,229,0,0,,5,,,77,127
7278,note_off,0,0,0,,12,,,47,127
7279,note_on,1,0,0,,7,,,43,127
7279,note_on,0,0,0,,7,,,79,127
7337,note_on,58,0,0,,5,,,77,127
7354,note_off,17,0,0,,7,,,79,127
7395,note_on,41,0,0,,7,,,79,127
7412,note_off,17,0,0,,5,,,77,127
7453,note_on,41,0,0,,5,,,77,127
7470,note_off,17,0,0,,7,,,79,127
7510,note_off,40,0,0,,7,,,43,127
7511,note_on,1,0,0,,4,,,40,127
7511,note_on,0,0,0,,7,,,79,127
7528,note_off,17,0,0,,5,,,77,127
7569,note_on,41,0,0,,5,,,77,127
7586,note_off,17,0,0,,7,,,79,127
7627,note_on,41,0,0,,4,,,76,127
7644,note_off,17,0,0,,5,,,77,127
7685,note_on,41,0,0,,2,,,74,127
7702,note_off,17,0,0,,4,,,76,127
7742,note_off,40,0,0,,4,,,40,127
7743,note_on,1,0,0,,0,,,36,127
7743,note_on,0,0,0,,4,,,76,127
7760,note_off,17,0,0,,2,,,74,127
7972,note_off,212,0,0,,4,,,76,127
7973,note_on,1,0,0,,0,,,84,127
8049,note_off,76,0,0,,0,,,84,127
8050,note_on,1,0,0,,12,,,83,127
8126,note_off,76,0,0,,12,,,83,127
8127,note_on,1,0,0,,10,,,81,127
8203,note_off,76,0,0,,10,,,81,127
8203,note_off,0,0,0,,0,,,36,127
8204,note_on,1,0,0,,4,,,64,127
8204,note_on,0,0,0,,0,,,60,127
8204,note_on,0,0,0,,7,,,67,127
8204,note_on,0,0,0,,7,,,79,127
8433,note_off,229,0,0,,7,,,67,127
8433,note_off,0,0,0,,0,,,60,127
8433,note_off,0,0,0,,4,,,64,127
8434,note_on,1,0,0,,7,,,55,127
8434,note_on,0,0,0,,7,,,67,127
8434,note_on,0,0,0,,2,,,62,127
8663,note_off,229,0,0,,7,,,55,127
8663,note_off,0,0,0,,7,,,79,127
8664,note_on,1,0,0,,10,,,57,127
8664,note_on,0,0,0,,7,,,79,127
8740,note_off,76,0,0,,7,,,79,127
8741,note_on,1,0,0,,5,,,77,127
8817,note_off,76,0,0,,5,,,77,127
8818,note_on,1,0,0,,4,,,76,127
8894,note_off,76,0,0,,4,,,76,127
8894,note_off,0,0,0,,10,,,57,127
8895,note_on,1,0,0,,12,,,59,127
8895,note_on,0,0,0,,2,,,74,127
9124,note_off,229,0,0,,2,,,74,127
9124,note_off,0,0,0,,12,,,59,127
9124,note_off,0,0,0,,2,,,62,127
9124,note_off,0,0,0,,7,,,67,127
9125,note_on,1,0,0,,0,,,60,127
9125,note_on,0,0,0,,7,,,67,127
9125,note_on,0,0,0,,4,,,64,127
9354,note_off,229,0,0,,4,,,64,127
9355,note_on,1,0,0,,2,,,62,127
9355,note_on,0,0,0,,0,,,84,127
9431,note_off,76,0,0,,0,,,84,127
9432,note_on,1,0,0,,12,,,83,127
9508,note_off,76,0,0,,12,,,83,127
9509,note_on,1,0,0,,10,,,81,127
9585,note_off,76,0,0,,10,,,81,127
9585,note_off,0,0,0,,2,,,62,127
9586,note_on,1,0,0,,4,,,64,127
9586,note_on,0,0,0,,7,,,79,127
9815,note_off,229,0,0,,4,,,64,127
9815,note_off,0,0,0,,7,,,67,127
9815,note_off,0,0,0,,0,,,60,127
9816,note_on,1,0,0,,2,,,62,127
9816,note_on,0,0,0,,7,,,55,127
9816,note_on,0,0,0,,7,,,67,127
10045,note_off,229,0,0,,7,,,55,127
10045,note_off,0,0,0,,7,,,79,127
10046,note_on,1,0,0,,10,,,57,127
10046,note_on,0,0,0,,7,,,79,127
10122,note_off,76,0,0,,7,,,79,127
10123,note_on,1,0,0,,5,,,77,127
10199,note_off,76,0,0,,5,,,77,127
10200,note_on,1,0,0,,4,,,76,127
10276,note_off,76,0,0,,4,,,76,127
10276,note_off,0,0,0,,10,,,57,127
10277,note_on,1,0,0,,12,,,59,127
10277,note_on,0,0,0,,2,,,74,127
10506,note_off,229,0,0,,2,,,74,127
10506,note_off,0,0,0,,12,,,59,127
10506,note_off,0,0,0,,7,,,67,127
10506,note_off,0,0,0,,2,,,62,127
10517,note_on,11,0,0,,0,,,60,127
10517,note_on,0,0,0,,7,,,67,127
10517,note_on,0,0,0,,4,,,76,127
10746,note_off,229,0,0,,4,,,76,127
10746,note_off,0,0,0,,7,,,67,127
10746,note_off,0,0,0,,0,,,60,127
10747,note_on,1,0,0,,4,,,64,127
10747,note_on,0,0,0,,4,,,76,127
10747,note_on,0,0,0,,0,,,84,127
10976,note_off,229,0,0,,0,,,84,127
10976,note_off,0,0,0,,4,,,76,127
10976,note_off,0,0,0,,4,,,64,127
10977,note_on,1,0,0,,0,,,60,127
10977,note_on,0,0,0,,0,,,72,127
10977,note_on,0,0,0,,0,,,84,127
11206,note_off,229,0,0,,0,,,84,127
11206,note_off,0,0,0,,0,,,72,127
11206,note_off,0,0,0,,0,,,60,127
11207,note_on,1,0,0,,10,,,57,127
11207,note_on,0,0,0,,10,,,69,127
11207,note_on,0,0,0,,0,,,84,127
11436,note_off,229,0,0,,0,,,84,127
11436,note_off,0,0,0,,10,,,69,127
11436,note_off,0,0,0,,10,,,57,127
11437,note_on,1,0,0,,6,,,54,127
11437,note_on,0,0,0,,6,,,66,127
11437,note_on,0,0,0,,2,,,86,127
11495,note_on,58,0,0,,0,,,84,127
11512,note_off,17,0,0,,2,,,86,127
11553,note_on,41,0,0,,2,,,86,127
11570,note_off,17,0,0,,0,,,84,127
11611,note_on,41,0,0,,0,,,84,127
11628,note_off,17,0,0,,2,,,86,127
11668,note_off,40,0,0,,6,,,66,127
11668,note_off,0,0,0,,6,,,54,127
11669,note_on,1,0,0,,2,,,50,127
11669,note_on,0,0,0,,2,,,62,127
11669,note_on,0,0,0,,2,,,86,127
11686,note_off,17,0,0,,0,,,84,127
11727,note_on,41,0,0,,0,,,84,127
11744,note_off,17,0,0,,2,,,86,127
11785,note_on,41,0,0,,12,,,83,127
11802,note_off,17,0,0,,0,,,84,127
11843,note_on,41,0,0,,0,,,84,127
11860,note_off,17,0,0,,12,,,83,127
11900,note_off,40,0,0,,2,,,62,127
11900,note_off,0,0,0,,2,,,50,127
11901,note_on,1,0,0,,12,,,47,127
11901,note_on,0,0,0,,12,,,59,127
11901,note_on,0,0,0,,2,,,86,127
11918,note_off,17,0,0,,0,,,84,127
12130,note_off,212,0,0,,2,,,86,127
12130,note_off,0,0,0,,12,,,59,127
12130,note_off,0,0,0,,12,,,47,127
12131,note_on,1,0,0,,2,,,62,127
12131,note_on,0,0,0,,2,,,74,127
12131,note_on,0,0,0,,12,,,83,127
12360,note_off,229,0,0,,12,,,83,127
12360,note_off,0,0,0,,2,,,74,127
12360,note_off,0,0,0,,2,,,62,127
12361,note_on,1,0,0,,12,,,59,127
12361,note_on,0,0,0,,12,,,71,127
12361,note_on,0,0,0,,12,,,83,127
12590,note_off,229,0,0,,12,,,83,127
12590,note_off,0,0,0,,12,,,71,127
12590,note_off,0,0,0,,12,,,59,127
12591,note_on,1,0,0,,7,,,55,127
12591,note_on,0,0,0,,7,,,67,127
12591,note_on,0,0,0,,12,,,83,127
12820,note_off,229,0,0,,12,,,83,127
12820,note_off,0,0,0,,7,,,67,127
12820,note_off,0,0,0,,7,,,55,127
12821,note_on,1,0,0,,4,,,52,127
12821,note_on,0,0,0,,4,,,64,127
12821,note_on,0,0,0,,0,,,84,127
12879,note_on,58,0,0,,12,,,83,127
12896,note_off,17,0,0,,0,,,84,127
12937,note_on,41,0,0,,0,,,84,127
12954,note_off,17,0,0,,12,,,83,127
12995,note_on,41,0,0,,12,,,83,127
13012,note_off,17,0,0,,0,,,84,127
13052,note_off,40,0,0,,4,,,64,127
13052,note_off,0,0,0,,4,,,52,127
13053,note_on,1,0,0,,0,,,48,127
13053,note_on,0,0,0,,0,,,60,127
13053,note_on,0,0,0,,0,,,84,127
13070,note_off,17,0,0,,12,,,83,127
13111,note_on,41,0,0,,12,,,83,127
13128,note_off,17,0,0,,0,,,84,127
13169,note_on,41,0,0,,10,,,81,127
13186,note_off,17,0,0,,12,,,83,127
13227,note_on,41,0,0,,12,,,83,127
13244,note_off,17,0,0,,10,,,81,127
13284,note_off,40,0,0,,0,,,60,127
13284,note_off,0,0,0,,0,,,48,127
13285,note_on,1,0,0,,10,,,45,127
13285,note_on,0,0,0,,10,,,57,127
13285,note_on,0,0,0,,0,,,84,127
13302,note_off,17,0,0,,12,,,83,127
13514,note_off,212,0,0,,0,,,84,127
13514,note_off,0,0,0,,10,,,57,127
13514,note_off,0,0,0,,10,,,45,127
13515,note_on,1,0,0,,0,,,60,127
13515,note_on,0,0,0,,0,,,72,127
13515,note_on,0,0,0,,10,,,81,127
13744,note_off,229,0,0,,10,,,81,127
13744,note_off,0,0,0,,0,,,72,127
13744,note_off,0,0,0,,0,,,60,127
13745,note_on,1,0,0,,10,,,57,127
13745,note_on,0,0,0,,10,,,69,127
13745,note_on,0,0,0,,10,,,81,127
13974,note_off,229,0,0,,10,,,81,127
13974,note_off,0,0,0,,10,,,69,127
13974,note_off,0,0,0,,10,,,57,127
13975,note_on,1,0,0,,6,,,54,127
13975,note_on,0,0,0,,6,,,66,127
13975,note_on,0,0,0,,10,,,81,127
14204,note_off,229,0,0,,10,,,81,127
14204,note_off,0,0,0,,6,,,66,127
14204,note_off,0,0,0,,6,,,54,127
14205,note_on,1,0,0,,2,,,50,127
14205,note_on,0,0,0,,2,,,62,127
14205,note_on,0,0,0,,12,,,83,127
14263,note_on,58,0,0,,10,,,81,127
14280,note_off,17,0,0,,12,,,83,127
14321,note_on,41,0,0,,12,,,83,127
14338,note_off,17,0,0,,10,,,81,127
14379,note_on,41,0,0,,10,,,81,127
14396,note_off,17,0,0,,12,,,83,127
14436,note_off,40,0,0,,2,,,62,127
14436,note_off,0,0,0,,2,,,50,127
14437,note_on,1,0,0,,12,,,47,127
14437,note_on,0,0,0,,12,,,59,127
14437,note_on,0,0,0,,12,,,83,127
14454,note_off,17,0,0,,10,,,81,127
14495,note_on,41,0,0,,10,,,81,127
14512,note_off,17,0,0,,12,,,83,127
14553,note_on,41,0,0,,7,,,79,127
14570,note_off,17,0,0,,10,,,81,127
14611,note_on,41,0,0,,10,,,81,127
14628,note_off,17,0,0,,7,,,79,127
14668,note_off,40,0,0,,12,,,59,127
14668,note_off,0,0,0,,12,,,47,127
14669,note_on,1,0,0,,7,,,43,127
14669,note_on,0,0,0,,7,,,55,127
14669,note_on,0,0,0,,12,,,83,127
14686,note_off,17,0,0,,10,,,81,127
14898,note_off,212,0,0,,12,,,83,127
14898,note_off,0,0,0,,7,,,55,127
14909,note_on,11,0,0,,10,,,57,127
14909,note_on,0,0,0,,7,,,79,127
14985,note_off,76,0,0,,7,,,79,127
14986,note_on,1,0,0,,6,,,78,127
15062,note_off,76,0,0,,6,,,78,127
15063,note_on,1,0,0,,4,,,76,127
15139,note_off,76,0,0,,4,,,76,127
15139,note_off,0,0,0,,10,,,57,127
15140,note_on,1,0,0,,12,,,59,127
15140,note_on,0,0,0,,2,,,74,127
15360,note_off,220,0,0,,7,,,43,127
15370,note_off,10,0,0,,12,,,59,127
15371,note_on,1,0,0,,2,,,50,127
15371,note_on,0,0,0,,2,,,62,127
15371,note_on,0,0,0,,10,,,57,127
15600,note_off,229,0,0,,2,,,50,127
15600,note_off,0,0,0,,2,,,74,127
15601,note_on,1,0,0,,4,,,52,127
15601,note_on,0,0,0,,2,,,74,127
15677,note_off,76,0,0,,2,,,74,127
15678,note_on,1,0,0,,0,,,72,127
15754,note_off,76,0,0,,0,,,72,127
15755,note_on,1,0,0,,12,,,71,127
15831,note_off,76,0,0,,12,,,71,127
15831,note_off,0,0,0,,4,,,52,127
15832,note_on,1,0,0,,6,,,54,127
15832,note_on,0,0,0,,10,,,69,127
16061,note_off,229,0,0,,6,,,54,127
16061,note_off,0,0,0,,10,,,57,127
16061,note_off,0,0,0,,2,,,62,127
16062,note_off,1,0,0,,10,,,69,127
16072,note_on,10,0,0,,7,,,55,127
16072,note_on,0,0,0,,12,,,59,127
16072,note_on,0,0,0,,2,,,62,127
16301,note_off,229,0,0,,12,,,59,127
16302,note_on,1,0,0,,10,,,57,127
16302,note_on,0,0,0,,7,,,79,127
16378,note_off,76,0,0,,7,,,79,127
16379,note_on,1,0,0,,6,,,78,127
16455,note_off,76,0,0,,6,,,78,127
16456,note_on,1,0,0,,4,,,76,127
16532,note_off,76,0,0,,4,,,76,127
16532,note_off,0,0,0,,10,,,57,127
16533,note_on,1,0,0,,12,,,59,127
16533,note_on,0,0,0,,2,,,74,127
16762,note_off,229,0,0,,12,,,59,127
16762,note_off,0,0,0,,2,,,62,127
16762,note_off,0,0,0,,7,,,55,127
16763,note_on,1,0,0,,2,,,50,127
16763,note_on,0,0,0,,10,,,57,127
16763,note_on,0,0,0,,2,,,62,127
16992,note_off,229,0,0,,2,,,50,127
16992,note_off,0,0,0,,2,,,74,127
16993,note_on,1,0,0,,4,,,52,127
16993,note_on,0,0,0,,2,,,74,127
17069,note_off,76,0,0,,2,,,74,127
17070,note_on,1,0,0,,0,,,72,127
17146,note_off,76,0,0,,0,,,72,127
17147,note_on,1,0,0,,12,,,71,127
17223,note_off,76,0,0,,12,,,71,127
17223,note_off,0,0,0,,4,,,52,127
17224,note_on,1,0,0,,6,,,54,127
17224,note_on,0,0,0,,10,,,69,127
17453,note_off,229,0,0,,10,,,69,127
17453,note_off,0,0,0,,6,,,54,127
17453,note_off,0,0,0,,2,,,62,127
17453,note_off,0,0,0,,10,,,57,127
17464,note_on,11,0,0,,7,,,55,127
17464,note_on,0,0,0,,12,,,59,127
17464,note_on,0,0,0,,2,,,62,127
17693,note_off,229,0,0,,12,,,59,127
17694,note_on,1,0,0,,10,,,57,127
17694,note_on,0,0,0,,7,,,79,127
17770,note_off,76,0,0,,7,,,79,127
17771,note_on,1,0,0,,6,,,78,127
17847,note_off,76,0,0,,6,,,78,127
17848,note_on,1,0,0,,4,,,76,127
17924,note_off,76,0,0,,4,,,76,127
17924,note_off,0,0,0,,10,,,57,127
17925,note_on,1,0,0,,12,,,59,127
17925,note_on,0,0,0,,2,,,74,127
18154,note_off,229,0,0,,12,,,59,127
18154,note_off,0,0,0,,2,,,62,127
18154,note_off,0,0,0,,7,,,55,127
18155,note_on,1,0,0,,0,,,48,127
18155,note_on,0,0,0,,0,,,60,127
18384,note_off,229,0,0,,0,,,48,127
18384,note_off,0,0,0,,2,,,74,127
18385,note_on,1,0,0,,2,,,50,127
18385,note_on,0,0,0,,4,,,76,127
18461,note_off,76,0,0,,4,,,76,127
18462,note_on,1,0,0,,6,,,78,127
18538,note_off,76,0,0,,6,,,78,127
18539,note_on,1,0,0,,7,,,79,127
18615,note_off,76,0,0,,7,,,79,127
18615,note_off,0,0,0,,2,,,50,127
18616,note_on,1,0,0,,4,,,52,127
18616,note_on,0,0,0,,10,,,81,127
18692,note_off,76,0,0,,10,,,81,127
18693,note_on,1,0,0,,12,,,83,127
18769,note_off,76,0,0,,12,,,83,127
18770,note_on,1,0,0,,0,,,84,127
18846,note_off,76,0,0,,0,,,84,127
18846,note_off,0,0,0,,4,,,52,127
18846,note_off,0,0,0,,0,,,60,127
18847,note_on,1,0,0,,6,,,54,127
18847,note_on,0,0,0,,2,,,74,127
19076,note_off,229,0,0,,2,,,74,127
19076,note_off,0,0,0,,6,,,54,127
19077,note_on,1,0,0,,2,,,50,127
19077,note_on,0,0,0,,0,,,84,127
19306,note_off,229,0,0,,0,,,84,127
19306,note_off,0,0,0,,2,,,50,127
19307,note_on,1,0,0,,7,,,55,127
19307,note_on,0,0,0,,12,,,83,127
19536,note_off,229,0,0,,12,,,83,127
19536,note_off,0,0,0,,7,,,55,127
19537,note_on,1,0,0,,0,,,48,127
19537,note_on,0,0,0,,0,,,72,127
19537,note_on,0,0,0,,10,,,81,127
19766,note_off,229,0,0,,10,,,81,127
19766,note_off,0,0,0,,0,,,72,127
19766,note_off,0,0,0,,0,,,48,127
19767,note_on,1,0,0,,2,,,50,127
19767,note_on,0,0,0,,7,,,79,127
19767,note_on,0,0,0,,12,,,71,127
19996,note_off,229,0,0,,12,,,71,127
19996,note_off,0,0,0,,7,,,79,127
19997,note_on,1,0,0,,2,,,38,127
19997,note_on,0,0,0,,6,,,78,127
19997,note_on,0,0,0,,10,,,69,127
20226,note_off,229,0,0,,10,,,69,127
20226,note_off,0,0,0,,6,,,78,127
20226,note_off,0,0,0,,2,,,38,127
20226,note_off,0,0,0,,2,,,50,127
20227,note_on,1,0,0,,7,,,43,127
20227,note_on,0,0,0,,7,,,79,127
20227,note_on,0,0,0,,7,,,67,127
20456,note_off,229,0,0,,7,,,67,127
20496,note_on,40,0,0,,2,,,74,127
20510,note_off,14,0,0,,7,,,79,127
20725,note_off,215,0,0,,2,,,74,127
20726,note_on,1,0,0,,2,,,74,127
20917,note_off,191,0,0,,7,,,43,127
20955,note_off,38,0,0,,2,,,74,127
20956,note_on,1,0,0,,2,,,74,127
21186,note_on,230,0,0,,7,,,67,127
21186,note_on,0,0,0,,11,,,70,127
21415,note_off,229,0,0,,11,,,70,127
21415,note_off,0,0,0,,7,,,67,127
21415,note_off,0,0,0,,2,,,74,127
21416,note_on,1,0,0,,7,,,67,127
21416,note_on,0,0,0,,2,,,74,127
21645,note_off,229,0,0,,2,,,74,127
21645,note_off,0,0,0,,7,,,67,127
21646,note_on,1,0,0,,7,,,67,127
21646,note_on,0,0,0,,2,,,74,127
21875,note_off,229,0,0,,7,,,67,127
21876,note_on,1,0,0,,7,,,67,127
21876,note_on,0,0,0,,2,,,86,127
22105,note_off,229,0,0,,2,,,86,127
22105,note_off,0,0,0,,7,,,67,127
22106,note_on,1,0,0,,7,,,67,127
22106,note_on,0,0,0,,11,,,82,127
22335,note_off,229,0,0,,11,,,82,127
22335,note_off,0,0,0,,7,,,67,127
22336,note_on,1,0,0,,7,,,67,127
22336,note_on,0,0,0,,6,,,78,127
22565,note_off,229,0,0,,6,,,78,127
22565,note_off,0,0,0,,7,,,67,127
22566,note_on,1,0,0,,3,,,63,127
22566,note_on,0,0,0,,7,,,79,127
22795,note_off,229,0,0,,3,,,63,127
22796,note_off,1,0,0,,2,,,74,127
22796,note_on,0,0,0,,0,,,60,127
22796,note_on,0,0,0,,3,,,75,127
23025,note_off,229,0,0,,3,,,75,127
23025,note_off,0,0,0,,0,,,60,127
23026,note_on,1,0,0,,11,,,58,127
23026,note_on,0,0,0,,1,,,73,127
23255,note_off,229,0,0,,1,,,73,127
23255,note_off,0,0,0,,11,,,58,127
23256,note_on,1,0,0,,7,,,55,127
23256,note_on,0,0,0,,2,,,74,127
23485,note_off,229,0,0,,7,,,79,127
23487,note_off,2,0,0,,2,,,74,127
23495,note_on,8,0,0,,2,,,74,127
23724,note_off,229,0,0,,2,,,74,127
23725,note_on,1,0,0,,2,,,74,127
23945,note_off,220,0,0,,7,,,55,127
23956,note_on,11,0,0,,7,,,67,127
23956,note_on,0,0,0,,11,,,70,127
24185,note_off,229,0,0,,11,,,70,127
24185,note_off,0,0,0,,7,,,67,127
24185,note_off,0,0,0,,2,,,74,127
24186,note_on,1,0,0,,7,,,67,127
24186,note_on,0,0,0,,2,,,74,127
24415,note_off,229,0,0,,2,,,74,127
24415,note_off,0,0,0,,7,,,67,127
24416,note_on,1,0,0,,7,,,67,127
24416,note_on,0,0,0,,2,,,74,127
24645,note_off,229,0,0,,7,,,67,127
24646,note_on,1,0,0,,7,,,67,127
24646,note_on,0,0,0,,2,,,86,127
24875,note_off,229,0,0,,2,,,86,127
24875,note_off,0,0,0,,7,,,67,127
24876,note_on,1,0,0,,7,,,67,127
24876,note_on,0,0,0,,11,,,82,127
25105,note_off,229,0,0,,11,,,82,127
25105,note_off,0,0,0,,7,,,67,127
25106,note_on,1,0,0,,7,,,67,127
25106,note_on,0,0,0,,6,,,78,127
25335,note_off,229,0,0,,6,,,78,127
25335,note_off,0,0,0,,7,,,67,127
25336,note_on,1,0,0,,3,,,63,127
25336,note_on,0,0,0,,7,,,79,127
25565,note_off,229,0,0,,3,,,63,127
25565,note_off,0,0,0,,2,,,74,127
25566,note_on,1,0,0,,0,,,60,127
25566,note_on,0,0,0,,3,,,75,127
25795,note_off,229,0,0,,3,,,75,127
25795,note_off,0,0,0,,0,,,60,127
25796,note_on,1,0,0,,11,,,58,127
25796,note_on,0,0,0,,1,,,73,127
26025,note_off,229,0,0,,1,,,73,127
26025,note_off,0,0,0,,11,,,58,127
26026,note_on,1,0,0,,7,,,55,127
26026,note_on,0,0,0,,2,,,74,127
26255,note_off,229,0,0,,2,,,74,127
26255,note_off,0,0,0,,7,,,55,127
26255,note_off,0,0,0,,7,,,79,127
26256,note_on,1,0,0,,7,,,55,127
26256,note_on,0,0,0,,11,,,82,127
26256,note_on,0,0,0,,2,,,74,127
26485,note_off,229,0,0,,2,,,74,127
26485,note_off,0,0,0,,11,,,82,127
26485,note_off,0,0,0,,7,,,55,127
26496,note_on,11,0,0,,0,,,60,127
26496,note_on,0,0,0,,0,,,48,127
26496,note_on,0,0,0,,10,,,81,127
26496,note_on,0,0,0,,0,,,72,127
26725,note_off,229,0,0,,0,,,72,127
26725,note_off,0,0,0,,10,,,81,127
26725,note_off,0,0,0,,0,,,48,127
26725,note_off,0,0,0,,0,,,60,127
26726,note_on,1,0,0,,2,,,62,127
26726,note_on,0,0,0,,2,,,50,127
26726,note_on,0,0,0,,6,,,78,127
26726,note_on,0,0,0,,10,,,69,127
26955,note_off,229,0,0,,10,,,69,127
26955,note_off,0,0,0,,6,,,78,127
26955,note_off,0,0,0,,2,,,50,127
26955,note_off,0,0,0,,2,,,62,127
26956,note_on,1,0,0,,3,,,63,127
26956,note_on,0,0,0,,3,,,51,127
26956,note_on,0,0,0,,11,,,70,127
26956,note_on,0,0,0,,7,,,79,127
27185,note_off,229,0,0,,7,,,79,127
27185,note_off,0,0,0,,11,,,70,127
27185,note_off,0,0,0,,3,,,51,127
27185,note_off,0,0,0,,3,,,63,127
27196,note_on,11,0,0,,0,,,48,127
27196,note_on,0,0,0,,0,,,60,127
27196,note_on,0,0,0,,10,,,81,127
27196,note_on,0,0,0,,0,,,72,127
27425,note_off,229,0,0,,0,,,72,127
27425,note_off,0,0,0,,10,,,81,127
27425,note_off,0,0,0,,0,,,60,127
27425,note_off,0,0,0,,0,,,48,127
27426,note_on,1,0,0,,2,,,50,127
27426,note_on,0,0,0,,2,,,62,127
27426,note_on,0,0,0,,6,,,78,127
27426,note_on,0,0,0,,10,,,69,127
27655,note_off,229,0,0,,10,,,69,127
27655,note_off,0,0,0,,6,,,78,127
27655,note_off,0,0,0,,2,,,62,127
27655,note_off,0,0,0,,2,,,50,127
27656,note_on,1,0,0,,3,,,63,127
27656,note_on,0,0,0,,3,,,51,127
27656,note_on,0,0,0,,11,,,70,127
27656,note_on,0,0,0,,7,,,79,127
27885,note_off,229,0,0,,7,,,79,127
27885,note_off,0,0,0,,11,,,70,127
27885,note_off,0,0,0,,3,,,51,127
27885,note_off,0,0,0,,3,,,63,127
27896,note_on,11,0,0,,0,,,60,127
27896,note_on,0,0,0,,0,,,48,127
27896,note_on,0,0,0,,10,,,81,127
27896,note_on,0,0,0,,0,,,72,127
28125,note_off,229,0,0,,0,,,72,127
28125,note_off,0,0,0,,10,,,81,127
28125,note_off,0,0,0,,0,,,48,127
28125,note_off,0,0,0,,0,,,60,127
28126,note_on,1,0,0,,2,,,50,127
28126,note_on,0,0,0,,2,,,62,127
28126,note_on,0,0,0,,6,,,78,127
28126,note_on,0,0,0,,10,,,69,127
28355,note_off,229,0,0,,10,,,69,127
28355,note_off,0,0,0,,6,,,78,127
28355,note_off,0,0,0,,2,,,62,127
28355,note_off,0,0,0,,2,,,50,127
28356,note_on,1,0,0,,3,,,63,127
28356,note_on,0,0,0,,3,,,51,127
28356,note_on,0,0,0,,11,,,70,127
28356,note_on,0,0,0,,7,,,79,127
28585,note_off,229,0,0,,11,,,70,127
28585,note_off,0,0,0,,3,,,51,127
28585,note_off,0,0,0,,3,,,63,127
28586,note_off,1,0,0,,7,,,79,127
28596,note_on,10,0,0,,0,,,60,127
28596,note_on,0,0,0,,0,,,48,127
28596,note_on,0,0,0,,10,,,81,127
28596,note_on,0,0,0,,0,,,72,127
28825,note_off,229,0,0,,0,,,72,127
28825,note_off,0,0,0,,10,,,81,127
28825,note_off,0,0,0,,0,,,48,127
28825,note_off,0,0,0,,0,,,60,127
28826,note_on,1,0,0,,2,,,62,127
28826,note_on,0,0,0,,2,,,50,127
28826,note_on,0,0,0,,6,,,78,127
28826,note_on,0,0,0,,10,,,69,127
29055,note_off,229,0,0,,10,,,69,127
29055,note_off,0,0,0,,6,,,78,127
29055,note_off,0,0,0,,2,,,50,127
29055,note_off,0,0,0,,2,,,62,127
29056,note_on,1,0,0,,3,,,51,127
29056,note_on,0,0,0,,3,,,63,127
29056,note_on,0,0,0,,11,,,70,127
29056,note_on,0,0,0,,7,,,79,127
29285,note_off,229,0,0,,7,,,79,127
29285,note_off,0,0,0,,11,,,70,127
29285,note_off,0,0,0,,3,,,63,127
29285,note_off,0,0,0,,3,,,51,127
29296,note_on,11,0,0,,2,,,62,127
29296,note_on,0,0,0,,2,,,50,127
29296,note_on,0,0,0,,10,,,81,127
29525,note_off,229,0,0,,10,,,81,127
29525,note_off,0,0,0,,2,,,50,127
29526,note_on,1,0,0,,4,,,52,127
29526,note_on,0,0,0,,2,,,74,127
29602,note_off,76,0,0,,2,,,74,127
29603,note_on,1,0,0,,0,,,72,127
29679,note_off,76,0,0,,0,,,72,127
29680,note_on,1,0,0,,12,,,71,127
29756,note_off,76,0,0,,12,,,71,127
29756,note_off,0,0,0,,4,,,52,127
29757,note_on,1,0,0,,6,,,54,127
29757,note_on,0,0,0,,10,,,69,127
29986,note_off,229,0,0,,10,,,69,127
29986,note_off,0,0,0,,6,,,54,127
29986,note_off,0,0,0,,2,,,62,127
29987,note_on,1,0,0,,2,,,62,127
29987,note_on,0,0,0,,7,,,55,127
29987,note_on,0,0,0,,12,,,59,127
30216,note_off,229,0,0,,12,,,59,127
30217,note_on,1,0,0,,10,,,57,127
30217,note_on,0,0,0,,7,,,79,127
30293,note_off,76,0,0,,7,,,79,127
30294,note_on,1,0,0,,6,,,78,127
30370,note_off,76,0,0,,6,,,78,127
30371,note_on,1,0,0,,4,,,76,127
30447,note_off,76,0,0,,4,,,76,127
30447,note_off,0,0,0,,10,,,57,127
30448,note_on,1,0,0,,12,,,59,127
30448,note_on,0,0,0,,2,,,74,127
30677,note_off,229,0,0,,12,,,59,127
30677,note_off,0,0,0,,7,,,55,127
30677,note_off,0,0,0,,2,,,62,127
30678,note_on,1,0,0,,2,,,62,127
30678,note_on,0,0,0,,10,,,57,127
30678,note_on,0,0,0,,2,,,50,127
30907,note_off,229,0,0,,2,,,50,127
30907,note_off,0,0,0,,2,,,74,127
30908,note_on,1,0,0,,4,,,52,127
30908,note_on,0,0,0,,2,,,74,127
30984,note_off,76,0,0,,2,,,74,127
30985,note_on,1,0,0,,0,,,72,127
31061,note_off,76,0,0,,0,,,72,127
31062,note_on,1,0,0,,12,,,71,127
31138,note_off,76,0,0,,12,,,71,127
31138,note_off,0,0,0,,4,,,52,127
31139,note_on,1,0,0,,6,,,54,127
31139,note_on,0,0,0,,10,,,69,127
31368,note_off,229,0,0,,10,,,69,127
31368,note_off,0,0,0,,6,,,54,127
31368,note_off,0,0,0,,10,,,57,127
31368,note_off,0,0,0,,2,,,62,127
31369,note_on,1,0,0,,2,,,62,127
31369,note_on,0,0,0,,12,,,59,127
31369,note_on,0,0,0,,7,,,55,127
31598,note_off,229,0,0,,12,,,59,127
31599,note_on,1,0,0,,10,,,57,127
31599,note_on,0,0,0,,7,,,79,127
31675,note_off,76,0,0,,7,,,79,127
31676,note_on,1,0,0,,6,,,78,127
31752,note_off,76,0,0,,6,,,78,127
31753,note_on,1,0,0,,4,,,76,127
31829,note_off,76,0,0,,4,,,76,127
31829,note_off,0,0,0,,10,,,57,127
31830,note_on,1,0,0,,12,,,59,127
31830,note_on,0,0,0,,2,,,74,127
32059,note_off,229,0,0,,12,,,59,127
32059,note_off,0,0,0,,7,,,55,127
32059,note_off,0,0,0,,2,,,62,127
32060,note_on,1,0,0,,0,,,60,127
32060,note_on,0,0,0,,0,,,48,127
32136,note_off,76,0,0,,2,,,74,127
32137,note_on,1,0,0,,7,,,79,127
32213,note_off,76,0,0,,7,,,79,127
32214,note_on,1,0,0,,6,,,78,127
32290,note_off,76,0,0,,6,,,78,127
32290,note_off,0,0,0,,0,,,48,127
32291,note_on,1,0,0,,2,,,50,127
32291,note_on,0,0,0,,4,,,76,127
32367,note_off,76,0,0,,4,,,76,127
32368,note_on,1,0,0,,6,,,78,127
32444,note_off,76,0,0,,6,,,78,127
32445,note_on,1,0,0,,7,,,79,127
32521,note_off,76,0,0,,7,,,79,127
32521,note_off,0,0,0,,2,,,50,127
32522,note_on,1,0,0,,4,,,52,127
32522,note_on,0,0,0,,10,,,81,127
32598,note_off,76,0,0,,10,,,81,127
32599,note_on,1,0,0,,12,,,83,127
32675,note_off,76,0,0,,12,,,83,127
32676,note_on,1,0,0,,0,,,84,127
32752,note_off,76,0,0,,0,,,84,127
32752,note_off,0,0,0,,4,,,52,127
32752,note_off,0,0,0,,0,,,60,127
32753,note_on,1,0,0,,6,,,54,127
32753,note_on,0,0,0,,2,,,74,127
32982,note_off,229,0,0,,6,,,54,127
32983,note_on,1,0,0,,2,,,50,127
32983,note_on,0,0,0,,0,,,84,127
33212,note_off,229,0,0,,0,,,84,127
33212,note_off,0,0,0,,2,,,50,127
33213,note_on,1,0,0,,7,,,55,127
33213,note_on,0,0,0,,12,,,83,127
33442,note_off,229,0,0,,12,,,83,127
33442,note_off,0,0,0,,7,,,55,127
33442,note_off,0,0,0,,2,,,74,127
33443,note_on,1,0,0,,0,,,48,127
33443,note_on,0,0,0,,10,,,81,127
33443,note_on,0,0,0,,0,,,72,127
33672,note_off,229,0,0,,0,,,72,127
33672,note_off,0,0,0,,10,,,81,127
33672,note_off,0,0,0,,0,,,48,127
33673,note_on,1,0,0,,2,,,50,127
33673,note_on,0,0,0,,7,,,79,127
33673,note_on,0,0,0,,12,,,71,127
33902,note_off,229,0,0,,12,,,71,127
33902,note_off,0,0,0,,7,,,79,127
33903,note_on,1,0,0,,2,,,38,127
33903,note_on,0,0,0,,10,,,69,127
33903,note_on,0,0,0,,6,,,78,127
34132,note_off,229,0,0,,2,,,38,127
34132,note_off,0,0,0,,2,,,50,127
34167,note_off,35,0,0,,6,,,78,127
34167,note_off,0,0,0,,10,,,69,127
34172,note_on,5,0,0,,7,,,43,127
34326,note_on,154,0,0,,6,,,78,127
34402,note_off,76,0,0,,6,,,78,127
34403,note_on,1,0,0,,7,,,79,127
34557,note_on,154,0,0,,2,,,74,127
34633,note_off,76,0,0,,2,,,74,127
34633,note_off,0,0,0,,7,,,43,127
34634,note_on,1,0,0,,7,,,67,127
34634,note_on,0,0,0,,4,,,76,127
34786,note_off,152,0,0,,4,,,76,127
34787,note_on,1,0,0,,12,,,71,127
34863,note_off,76,0,0,,12,,,71,127
34863,note_off,0,0,0,,7,,,67,127
34863,note_off,0,0,0,,7,,,79,127
34864,note_on,1,0,0,,7,,,67,127
34864,note_on,0,0,0,,0,,,72,127
35018,note_on,154,0,0,,12,,,83,127
35094,note_off,76,0,0,,12,,,83,127
35094,note_off,0,0,0,,7,,,67,127
35095,note_on,1,0,0,,7,,,67,127
35095,note_on,0,0,0,,12,,,83,127
35133,note_on,38,0,0,,10,,,81,127
35169,note_off,36,0,0,,12,,,83,127
35171,note_on,2,0,0,,12,,,83,127
35207,note_off,36,0,0,,10,,,81,127
35209,note_on,2,0,0,,10,,,81,127
35245,note_off,36,0,0,,12,,,83,127
35323,note_off,78,0,0,,7,,,67,127
35323,note_off,0,0,0,,0,,,72,127
35324,note_on,1,0,0,,6,,,66,127
35553,note_off,229,0,0,,6,,,66,127
35554,note_on,1,0,0,,7,,,55,127
35706,note_off,152,0,0,,10,,,81,127
35707,note_on,1,0,0,,6,,,78,127
35783,note_off,76,0,0,,6,,,78,127
35784,note_on,1,0,0,,7,,,79,127
35938,note_on,154,0,0,,2,,,74,127
36014,note_off,76,0,0,,2,,,74,127
36014,note_off,0,0,0,,7,,,55,127
36015,note_on,1,0,0,,7,,,67,127
36015,note_on,0,0,0,,4,,,76,127
36167,note_off,152,0,0,,4,,,76,127
36168,note_on,1,0,0,,12,,,71,127
36244,note_off,76,0,0,,12,,,71,127
36244,note_off,0,0,0,,7,,,67,127
36244,note_off,0,0,0,,7,,,79,127
36245,note_on,1,0,0,,7,,,67,127
36245,note_on,0,0,0,,0,,,72,127
36399,note_on,154,0,0,,12,,,83,127
36475,note_off,76,0,0,,12,,,83,127
36475,note_off,0,0,0,,7,,,67,127
36476,note_on,1,0,0,,7,,,67,127
36476,note_on,0,0,0,,12,,,83,127
36514,note_on,38,0,0,,10,,,81,127
36550,note_off,36,0,0,,12,,,83,127
36552,note_on,2,0,0,,12,,,83,127
36588,note_off,36,0,0,,10,,,81,127
36590,note_on,2,0,0,,10,,,81,127
36626,note_off,36,0,0,,12,,,83,127
36704,note_off,78,0,0,,7,,,67,127
36704,note_off,0,0,0,,0,,,72,127
36705,note_on,1,0,0,,6,,,66,127
36934,note_off,229,0,0,,6,,,66,127
36935,note_on,1,0,0,,7,,,67,127
36935,note_on,0,0,0,,7,,,55,127
37087,note_off,152,0,0,,10,,,81,127
37088,note_on,1,0,0,,0,,,84,127
37164,note_off,76,0,0,,0,,,84,127
37164,note_off,0,0,0,,7,,,55,127
37165,note_on,1,0,0,,10,,,57,127
37165,note_on,0,0,0,,12,,,83,127
37317,note_off,152,0,0,,12,,,83,127
37318,note_on,1,0,0,,6,,,78,127
37394,note_off,76,0,0,,6,,,78,127
37394,note_off,0,0,0,,10,,,57,127
37395,note_on,1,0,0,,12,,,59,127
37395,note_on,0,0,0,,7,,,79,127
37547,note_off,152,0,0,,7,,,79,127
37548,note_on,1,0,0,,2,,,74,127
37624,note_off,76,0,0,,2,,,74,127
37624,note_off,0,0,0,,12,,,59,127
37624,note_off,0,0,0,,7,,,67,127
37625,note_on,1,0,0,,0,,,60,127
37625,note_on,0,0,0,,0,,,48,127
37625,note_on,0,0,0,,4,,,76,127
37777,note_off,152,0,0,,4,,,76,127
37778,note_on,1,0,0,,12,,,71,127
37854,note_off,76,0,0,,12,,,71,127
37854,note_off,0,0,0,,0,,,48,127
37855,note_on,1,0,0,,2,,,50,127
37855,note_on,0,0,0,,0,,,72,127
38007,note_off,152,0,0,,0,,,72,127
38008,note_on,1,0,0,,7,,,67,127
38084,note_off,76,0,0,,7,,,67,127
38084,note_off,0,0,0,,2,,,50,127
38085,note_on,1,0,0,,4,,,52,127
38085,note_on,0,0,0,,10,,,69,127
38237,note_off,152,0,0,,10,,,69,127
38238,note_on,1,0,0,,4,,,64,127
38314,note_off,76,0,0,,4,,,64,127
38314,note_off,0,0,0,,4,,,52,127
38314,note_off,0,0,0,,0,,,60,127
38315,note_on,1,0,0,,2,,,50,127
38315,note_on,0,0,0,,6,,,66,127
38467,note_off,152,0,0,,6,,,66,127
38468,note_on,1,0,0,,10,,,69,127
38544,note_off,76,0,0,,10,,,69,127
38544,note_off,0,0,0,,2,,,50,127
38545,note_on,1,0,0,,0,,,48,127
38545,note_on,0,0,0,,2,,,62,127
38697,note_off,152,0,0,,2,,,62,127
38698,note_on,1,0,0,,6,,,66,127
38774,note_off,76,0,0,,6,,,66,127
38774,note_off,0,0,0,,0,,,48,127
38775,note_on,1,0,0,,12,,,47,127
38775,note_on,0,0,0,,7,,,67,127
38929,note_on,154,0,0,,12,,,71,127
39005,note_off,76,0,0,,12,,,71,127
39005,note_off,0,0,0,,12,,,47,127
39006,note_on,1,0,0,,0,,,48,127
39006,note_on,0,0,0,,10,,,69,127
39158,note_off,152,0,0,,10,,,69,127
39159,note_on,1,0,0,,0,,,72,127
39235,note_off,76,0,0,,0,,,72,127
39235,note_off,0,0,0,,0,,,48,127
39236,note_on,1,0,0,,2,,,50,127
39236,note_on,0,0,0,,12,,,71,127
39465,note_off,229,0,0,,12,,,71,127
39465,note_off,0,0,0,,7,,,67,127
39466,note_on,1,0,0,,2,,,38,127
39466,note_on,0,0,0,,6,,,66,127
39466,note_on,0,0,0,,12,,,71,127
39504,note_on,38,0,0,,10,,,69,127
39540,note_off,36,0,0,,12,,,71,127
39542,note_on,2,0,0,,12,,,71,127
39578,note_off,36,0,0,,10,,,69,127
39580,note_on,2,0,0,,10,,,69,127
39616,note_off,36,0,0,,12,,,71,127
39621,note_on,5,0,0,,7,,,67,127
39655,note_off,34,0,0,,10,,,69,127
39663,note_on,8,0,0,,10,,,69,127
39694,note_off,31,0,0,,6,,,66,127
39694,note_off,0,0,0,,2,,,38,127
39694,note_off,0,0,0,,2,,,50,127
39695,note_off,1,0,0,,7,,,67,127
39695,note_on,0,0,0,,7,,,55,127
39695,note_on,0,0,0,,7,,,43,127
39795,note_off,100,0,0,,10,,,69,127
39859,note_on,64,0,0,,12,,,71,127
39935,note_off,76,0,0,,12,,,71,127
39935,note_off,0,0,0,,7,,,43,127
39935,note_off,0,0,0,,7,,,55,127
39936,note_on,1,0,0,,0,,,48,127
39936,note_on,0,0,0,,0,,,36,127
39936,note_on,0,0,0,,10,,,69,127
40165,note_off,229,0,0,,10,,,69,127
40165,note_off,0,0,0,,0,,,36,127
40165,note_off,0,0,0,,0,,,48,127
40166,note_on,1,0,0,,2,,,50,127
40166,note_on,0,0,0,,2,,,38,127
40166,note_on,0,0,0,,10,,,69,127
40166,note_on,0,0,0,,7,,,67,127
40395,note_off,229,0,0,,2,,,38,127
40395,note_off,0,0,0,,2,,,50,127
40396,note_on,1,0,0,,4,,,52,127
40396,note_on,0,0,0,,4,,,40,127
40548,note_off,152,0,0,,7,,,67,127
40548,note_off,0,0,0,,10,,,69,127
40549,note_on,1,0,0,,12,,,71,127
40625,note_off,76,0,0,,12,,,71,127
40625,note_off,0,0,0,,4,,,40,127
40625,note_off,0,0,0,,4,,,52,127
40626,note_on,1,0,0,,0,,,48,127
40626,note_on,0,0,0,,0,,,36,127
40626,note_on,0,0,0,,10,,,69,127
40626,note_on,0,0,0,,7,,,67,127
40855,note_off,229,0,0,,7,,,67,127
40855,note_off,0,0,0,,10,,,69,127
40855,note_off,0,0,0,,0,,,36,127
40855,note_off,0,0,0,,0,,,48,127
40856,note_on,1,0,0,,2,,,38,127
40856,note_on,0,0,0,,2,,,50,127
40856,note_on,0,0,0,,10,,,69,127
40856,note_on,0,0,0,,7,,,67,127
41085,note_off,229,0,0,,2,,,50,127
41085,note_off,0,0,0,,2,,,38,127
41086,note_on,1,0,0,,4,,,52,127
41086,note_on,0,0,0,,4,,,40,127
41238,note_off,152,0,0,,7,,,67,127
41238,note_off,0,0,0,,10,,,69,127
41239,note_on,1,0,0,,12,,,71,127
41315,note_off,76,0,0,,12,,,71,127
41315,note_off,0,0,0,,4,,,40,127
41315,note_off,0,0,0,,4,,,52,127
41316,note_on,1,0,0,,0,,,36,127
41316,note_on,0,0,0,,0,,,48,127
41316,note_on,0,0,0,,10,,,69,127
41316,note_on,0,0,0,,7,,,67,127
41545,note_off,229,0,0,,7,,,67,127
41545,note_off,0,0,0,,10,,,69,127
41545,note_off,0,0,0,,0,,,48,127
41545,note_off,0,0,0,,0,,,36,127
41546,note_on,1,0,0,,2,,,50,127
41546,note_on,0,0,0,,2,,,38,127
41546,note_on,0,0,0,,10,,,69,127
41546,note_on,0,0,0,,7,,,67,127
41775,note_off,229,0,0,,7,,,67,127
41775,note_off,0,0,0,,10,,,69,127
41775,note_off,0,0,0,,2,,,38,127
41775,note_off,0,0,0,,2,,,50,127
41776,note_on,1,0,0,,4,,,52,127
41776,note_on,0,0,0,,7,,,67,127
41776,note_on,0,0,0,,10,,,69,127
41852,note_off,76,0,0,,10,,,69,127
41852,note_off,0,0,0,,4,,,52,127
41853,note_on,1,0,0,,2,,,50,127
41853,note_on,0,0,0,,12,,,71,127
41929,note_off,76,0,0,,12,,,71,127
41929,note_off,0,0,0,,2,,,50,127
41930,note_on,1,0,0,,0,,,48,127
41930,note_on,0,0,0,,0,,,72,127
42006,note_off,76,0,0,,0,,,72,127
42006,note_off,0,0,0,,0,,,48,127
42007,note_on,1,0,0,,2,,,50,127
42007,note_on,0,0,0,,12,,,71,127
42236,note_off,229,0,0,,12,,,71,127
42236,note_off,0,0,0,,7,,,67,127
42237,note_on,1,0,0,,2,,,38,127
42237,note_on,0,0,0,,6,,,66,127
42237,note_on,0,0,0,,12,,,71,127
42275,note_on,38,0,0,,10,,,69,127
42311,note_off,36,0,0,,12,,,71,127
42313,note_on,2,0,0,,12,,,71,127
42349,note_off,36,0,0,,10,,,69,127
42351,note_on,2,0,0,,10,,,69,127
42387,note_off,36,0,0,,12,,,71,127
42465,note_off,78,0,0,,10,,,69,127
42465,note_off,0,0,0,,6,,,66,127
42465,note_off,0,0,0,,2,,,38,127
42465,note_off,0,0,0,,2,,,50,127
42485,note_on,20,0,0,,7,,,67,127
42485,note_on,0,0,0,,7,,,79,127
42485,note_on,0,0,0,,7,,,43,127
42714,note_off,229,0,0,,7,,,43,127
42714,note_off,0,0,0,,7,,,79,127
42714,note_off,0,0,0,,7,,,67,127
42715,note_on,1,0,0,,10,,,69,127
42715,note_on,0,0,0,,7,,,67,127
42715,note_on,0,0,0,,0,,,36,127
42715,note_on,0,0,0,,0,,,48,127
42944,note_off,229,0,0,,0,,,48,127
42944,note_off,0,0,0,,0,,,36,127
42944,note_off,0,0,0,,7,,,67,127
42944,note_off,0,0,0,,10,,,69,127
42945,note_on,1,0,0,,7,,,67,127
42945,note_on,0,0,0,,10,,,69,127
42945,note_on,0,0,0,,2,,,38,127
42945,note_on,0,0,0,,2,,,50,127
43174,note_off,229,0,0,,2,,,50,127
43174,note_off,0,0,0,,2,,,38,127
43174,note_off,0,0,0,,10,,,69,127
43174,note_off,0,0,0,,7,,,67,127
43175,note_on,1,0,0,,7,,,79,127
43175,note_on,0,0,0,,4,,,52,127
43175,note_on,0,0,0,,4,,,40,127
43404,note_off,229,0,0,,4,,,40,127
43404,note_off,0,0,0,,4,,,52,127
43404,note_off,0,0,0,,7,,,79,127
43405,note_on,1,0,0,,7,,,67,127
43405,note_on,0,0,0,,10,,,69,127
43405,note_on,0,0,0,,0,,,36,127
43405,note_on,0,0,0,,0,,,48,127
43634,note_off,229,0,0,,0,,,48,127
43634,note_off,0,0,0,,0,,,36,127
43634,note_off,0,0,0,,10,,,69,127
43634,note_off,0,0,0,,7,,,67,127
43635,note_on,1,0,0,,10,,,69,127
43635,note_on,0,0,0,,7,,,67,127
43635,note_on,0,0,0,,2,,,38,127
43635,note_on,0,0,0,,2,,,50,127
43864,note_off,229,0,0,,2,,,50,127
43864,note_off,0,0,0,,2,,,38,127
43864,note_off,0,0,0,,7,,,67,127
43864,note_off,0,0,0,,10,,,69,127
43865,note_on,1,0,0,,7,,,79,127
43865,note_on,0,0,0,,4,,,52,127
43865,note_on,0,0,0,,4,,,40,127
44094,note_off,229,0,0,,4,,,40,127
44094,note_off,0,0,0,,4,,,52,127
44094,note_off,0,0,0,,7,,,79,127
44095,note_on,1,0,0,,7,,,67,127
44095,note_on,0,0,0,,10,,,69,127
44095,note_on,0,0,0,,0,,,48,127
44095,note_on,0,0,0,,0,,,36,127
44324,note_off,229,0,0,,0,,,36,127
44324,note_off,0,0,0,,0,,,48,127
44324,note_off,0,0,0,,10,,,69,127
44324,note_off,0,0,0,,7,,,67,127
44325,note_on,1,0,0,,7,,,67,127
44325,note_on,0,0,0,,10,,,69,127
44325,note_on,0,0,0,,2,,,50,127
44325,note_on,0,0,0,,2,,,38,127
44554,note_off,229,0,0,,2,,,38,127
44554,note_off,0,0,0,,2,,,50,127
44554,note_off,0,0,0,,10,,,69,127
44554,note_off,0,0,0,,7,,,67,127
44555,note_on,1,0,0,,7,,,67,127
44555,note_on,0,0,0,,10,,,69,127
44555,note_on,0,0,0,,4,,,52,127
44631,note_off,76,0,0,,4,,,52,127
44631,note_off,0,0,0,,10,,,69,127
44632,note_on,1,0,0,,12,,,71,127
44632,note_on,0,0,0,,2,,,50,127
44708,note_off,76,0,0,,2,,,50,127
44708,note_off,0,0,0,,12,,,71,127
44709,note_on,1,0,0,,0,,,72,127
44709,note_on,0,0,0,,0,,,48,127
44785,note_off,76,0,0,,0,,,48,127
44785,note_off,0,0,0,,0,,,72,127
44786,note_on,1,0,0,,12,,,71,127
44786,note_on,0,0,0,,2,,,50,127
45015,note_off,229,0,0,,12,,,71,127
45015,note_off,0,0,0,,7,,,67,127
45016,note_on,1,0,0,,12,,,71,127
45016,note_on,0,0,0,,6,,,66,127
45016,note_on,0,0,0,,2,,,38,127
45054,note_on,38,0,0,,10,,,69,127
45090,note_off,36,0,0,,12,,,71,127
45092,note_on,2,0,0,,12,,,71,127
45128,note_off,36,0,0,,10,,,69,127
45130,note_on,2,0,0,,10,,,69,127
45166,note_off,36,0,0,,12,,,71,127
45244,note_off,78,0,0,,10,,,69,127
45244,note_off,0,0,0,,2,,,38,127
45244,note_off,0,0,0,,6,,,66,127
45244,note_off,0,0,0,,2,,,50,127
45245,note_on,1,0,0,,7,,,67,127
45245,note_on,0,0,0,,7,,,43,127
45418,note_on,173,0,0,,6,,,78,127
45494,note_off,76,0,0,,6,,,78,127
45495,note_on,1,0,0,,7,,,79,127
45545,note_off,50,0,0,,7,,,67,127
45647,note_off,102,0,0,,7,,,79,127
45648,note_on,1,0,0,,2,,,74,127
45704,note_off,56,0,0,,7,,,43,127
45723,note_off,19,0,0,,2,,,74,127
45724,note_on,1,0,0,,7,,,55,127
45724,note_on,0,0,0,,4,,,76,127
45876,note_off,152,0,0,,4,,,76,127
45877,note_on,1,0,0,,12,,,71,127
45953,note_off,76,0,0,,12,,,71,127
45954,note_on,1,0,0,,10,,,57,127
45954,note_on,0,0,0,,0,,,72,127
46106,note_off,152,0,0,,0,,,72,127
46107,note_on,1,0,0,,4,,,76,127
46183,note_off,76,0,0,,4,,,76,127
46183,note_off,0,0,0,,7,,,55,127
46184,note_on,1,0,0,,6,,,54,127
46184,note_on,0,0,0,,2,,,74,127
46336,note_off,152,0,0,,2,,,74,127
46337,note_on,1,0,0,,12,,,71,127
46413,note_off,76,0,0,,12,,,71,127
46413,note_off,0,0,0,,6,,,54,127
46414,note_on,1,0,0,,2,,,50,127
46414,note_on,0,0,0,,0,,,72,127
46566,note_off,152,0,0,,0,,,72,127
46567,note_on,1,0,0,,10,,,69,127
46643,note_off,76,0,0,,10,,,69,127
46643,note_off,0,0,0,,2,,,50,127
46643,note_off,0,0,0,,10,,,57,127
46644,note_on,1,0,0,,7,,,55,127
46644,note_on,0,0,0,,7,,,43,127
46644,note_on,0,0,0,,12,,,71,127
46796,note_off,152,0,0,,12,,,71,127
46797,note_on,1,0,0,,2,,,74,127
46873,note_off,76,0,0,,7,,,43,127
46874,note_on,1,0,0,,10,,,45,127
46874,note_on,0,0,0,,6,,,66,127
47026,note_off,152,0,0,,6,,,66,127
47027,note_on,1,0,0,,10,,,69,127
47103,note_off,76,0,0,,10,,,69,127
47103,note_off,0,0,0,,10,,,45,127
47104,note_on,1,0,0,,12,,,47,127
47104,note_on,0,0,0,,7,,,67,127
47142,note_off,38,0,0,,2,,,74,127
47257,note_on,115,0,0,,12,,,71,127
47333,note_off,76,0,0,,12,,,71,127
47333,note_off,0,0,0,,12,,,47,127
47333,note_off,0,0,0,,7,,,55,127
47334,note_on,1,0,0,,0,,,48,127
47334,note_on,0,0,0,,10,,,69,127
47449,note_off,115,0,0,,7,,,67,127
47486,note_off,37,0,0,,10,,,69,127
47487,note_on,1,0,0,,0,,,72,127
47563,note_off,76,0,0,,0,,,72,127
47563,note_off,0,0,0,,0,,,48,127
47564,note_on,1,0,0,,2,,,50,127
47564,note_on,0,0,0,,12,,,71,127
47793,note_off,229,0,0,,12,,,71,127
47794,note_on,1,0,0,,2,,,38,127
47794,note_on,0,0,0,,6,,,66,127
47794,note_on,0,0,0,,12,,,71,127
47832,note_on,38,0,0,,10,,,69,127
47868,note_off,36,0,0,,12,,,71,127
47870,note_on,2,0,0,,12,,,71,127
47906,note_off,36,0,0,,10,,,69,127
47908,note_on,2,0,0,,10,,,69,127
47944,note_off,36,0,0,,12,,,71,127
48022,note_off,78,0,0,,10,,,69,127
48022,note_off,0,0,0,,6,,,66,127
48022,note_off,0,0,0,,2,,,38,127
48022,note_off,0,0,0,,2,,,50,127
48023,note_on,1,0,0,,7,,,43,127
48023,note_on,0,0,0,,7,,,67,127
48713,note_off,690,0,0,,7,,,67,127
48713,note_off,0,0,0,,7,,,43,127
48733,note_on,20,0,0,,7,,,55,127
48963,note_on,230,0,0,,7,,,79,127
48963,note_on,0,0,0,,7,,,67,127
49192,note_off,229,0,0,,7,,,67,127
49193,note_on,1,0,0,,7,,,67,127
49193,note_on,0,0,0,,5,,,65,127
49422,note_off,229,0,0,,5,,,65,127
49422,note_off,0,0,0,,7,,,67,127
49423,note_on,1,0,0,,0,,,72,127
49423,note_on,0,0,0,,4,,,64,127
49652,note_off,229,0,0,,4,,,64,127
49652,note_off,0,0,0,,0,,,72,127
49653,note_on,1,0,0,,2,,,74,127
49653,note_on,0,0,0,,2,,,62,127
49711,note_on,58,0,0,,0,,,72,127
49728,note_off,17,0,0,,2,,,74,127
49769,note_on,41,0,0,,2,,,74,127
49786,note_off,17,0,0,,0,,,72,127
49827,note_on,41,0,0,,0,,,72,127
49844,note_off,17,0,0,,2,,,74,127
49884,note_off,40,0,0,,2,,,62,127
49885,note_on,1,0,0,,2,,,74,127
49885,note_on,0,0,0,,0,,,60,127
49902,note_off,17,0,0,,0,,,72,127
49943,note_on,41,0,0,,0,,,72,127
49960,note_off,17,0,0,,2,,,74,127
50001,note_on,41,0,0,,12,,,71,127
50018,note_off,17,0,0,,0,,,72,127
50059,note_on,41,0,0,,0,,,72,127
50076,note_off,17,0,0,,12,,,71,127
50116,note_off,40,0,0,,0,,,60,127
50116,note_off,0,0,0,,7,,,55,127
50117,note_on,1,0,0,,2,,,74,127
50117,note_on,0,0,0,,7,,,55,127
50134,note_off,17,0,0,,0,,,72,127
50346,note_off,212,0,0,,2,,,74,127
50346,note_off,0,0,0,,7,,,79,127
50357,note_on,11,0,0,,7,,,79,127
50357,note_on,0,0,0,,7,,,67,127
50586,note_off,229,0,0,,7,,,67,127
50587,note_on,1,0,0,,12,,,71,127
50587,note_on,0,0,0,,5,,,65,127
50816,note_off,229,0,0,,5,,,65,127
50816,note_off,0,0,0,,12,,,71,127
50817,note_on,1,0,0,,0,,,72,127
50817,note_on,0,0,0,,4,,,64,127
51046,note_off,229,0,0,,4,,,64,127
51046,note_off,0,0,0,,0,,,72,127
51047,note_on,1,0,0,,2,,,74,127
51047,note_on,0,0,0,,2,,,62,127
51105,note_on,58,0,0,,0,,,72,127
51122,note_off,17,0,0,,2,,,74,127
51163,note_on,41,0,0,,2,,,74,127
51180,note_off,17,0,0,,0,,,72,127
51221,note_on,41,0,0,,0,,,72,127
51238,note_off,17,0,0,,2,,,74,127
51278,note_off,40,0,0,,2,,,62,127
51279,note_on,1,0,0,,2,,,74,127
51279,note_on,0,0,0,,0,,,60,127
51296,note_off,17,0,0,,0,,,72,127
51337,note_on,41,0,0,,0,,,72,127
51354,note_off,17,0,0,,2,,,74,127
51395,note_on,41,0,0,,12,,,71,127
51412,note_off,17,0,0,,0,,,72,127
51453,note_on,41,0,0,,0,,,72,127
51470,note_off,17,0,0,,12,,,71,127
51500,note_off,30,0,0,,7,,,55,127
51510,note_off,10,0,0,,0,,,60,127
51511,note_off,1,0,0,,7,,,79,127
51511,note_on,0,0,0,,2,,,74,127
51511,note_on,0,0,0,,7,,,55,127
51528,note_off,17,0,0,,0,,,72,127
51740,note_off,212,0,0,,7,,,55,127
51740,note_off,0,0,0,,2,,,74,127
51760,note_on,20,0,0,,2,,,62,127
51760,note_on,0,0,0,,12,,,71,127
51760,note_on,0,0,0,,4,,,76,127
51818,note_on,58,0,0,,2,,,74,127
51835,note_off,17,0,0,,4,,,76,127
51876,note_on,41,0,0,,4,,,76,127
51893,note_off,17,0,0,,2,,,74,127
51934,note_on,41,0,0,,2,,,74,127
51951,note_off,17,0,0,,4,,,76,127
51991,note_off,40,0,0,,12,,,71,127
51992,note_on,1,0,0,,10,,,69,127
51992,note_on,0,0,0,,4,,,76,127
52009,note_off,17,0,0,,2,,,74,127
52050,note_on,41,0,0,,2,,,74,127
52067,note_off,17,0,0,,4,,,76,127
52222,note_off,155,0,0,,10,,,69,127
52222,note_off,0,0,0,,2,,,62,127
52223,note_on,1,0,0,,4,,,64,127
52223,note_on,0,0,0,,8,,,68,127
52452,note_off,229,0,0,,8,,,68,127
52452,note_off,0,0,0,,4,,,64,127
52454,note_off,2,0,0,,2,,,74,127
52462,note_on,8,0,0,,2,,,62,127
52462,note_on,0,0,0,,12,,,71,127
52462,note_on,0,0,0,,7,,,79,127
52576,note_off,114,0,0,,7,,,79,127
52577,note_on,1,0,0,,5,,,77,127
52691,note_off,114,0,0,,12,,,71,127
52692,note_on,1,0,0,,10,,,69,127
52806,note_off,114,0,0,,5,,,77,127
52807,note_on,1,0,0,,4,,,76,127
52921,note_off,114,0,0,,4,,,76,127
52921,note_off,0,0,0,,10,,,69,127
52921,note_off,0,0,0,,2,,,62,127
52922,note_on,1,0,0,,8,,,68,127
52922,note_on,0,0,0,,4,,,64,127
52922,note_on,0,0,0,,2,,,74,127
53151,note_off,229,0,0,,2,,,74,127
53151,note_off,0,0,0,,4,,,64,127
53151,note_off,0,0,0,,8,,,68,127
53152,note_on,1,0,0,,12,,,71,127
53152,note_on,0,0,0,,2,,,62,127
53152,note_on,0,0,0,,7,,,79,127
53266,note_off,114,0,0,,7,,,79,127
53267,note_on,1,0,0,,5,,,77,127
53381,note_off,114,0,0,,12,,,71,127
53382,note_on,1,0,0,,10,,,69,127
53496,note_off,114,0,0,,5,,,77,127
53497,note_on,1,0,0,,4,,,76,127
53611,note_off,114,0,0,,4,,,76,127
53611,note_off,0,0,0,,10,,,69,127
53611,note_off,0,0,0,,2,,,62,127
53612,note_on,1,0,0,,4,,,64,127
53612,note_on,0,0,0,,8,,,68,127
53612,note_on,0,0,0,,2,,,74,127
53841,note_off,229,0,0,,2,,,74,127
53841,note_off,0,0,0,,8,,,68,127
53841,note_off,0,0,0,,4,,,64,127
53852,note_on,11,0,0,,12,,,71,127
53852,note_on,0,0,0,,2,,,62,127
53852,note_on,0,0,0,,12,,,83,127
54081,note_off,229,0,0,,12,,,71,127
54082,note_on,1,0,0,,10,,,69,127
54234,note_off,152,0,0,,12,,,83,127
54235,note_on,1,0,0,,10,,,81,127
54311,note_off,76,0,0,,10,,,81,127
54311,note_off,0,0,0,,10,,,69,127
54311,note_off,0,0,0,,2,,,62,127
54312,note_on,1,0,0,,4,,,64,127
54312,note_on,0,0,0,,8,,,68,127
54312,note_on,0,0,0,,8,,,80,127
54464,note_off,152,0,0,,8,,,80,127
54465,note_on,1,0,0,,5,,,77,127
54541,note_off,76,0,0,,5,,,77,127
54541,note_off,0,0,0,,8,,,68,127
54541,note_off,0,0,0,,4,,,64,127
54542,note_on,1,0,0,,4,,,52,127
54542,note_on,0,0,0,,4,,,76,127
54694,note_off,152,0,0,,4,,,76,127
54695,note_on,1,0,0,,2,,,74,127
54771,note_off,76,0,0,,2,,,74,127
54771,note_off,0,0,0,,4,,,52,127
54772,note_on,1,0,0,,8,,,56,127
54772,note_on,0,0,0,,0,,,72,127
54924,note_off,152,0,0,,0,,,72,127
54925,note_on,1,0,0,,12,,,71,127
55001,note_off,76,0,0,,12,,,71,127
55001,note_off,0,0,0,,8,,,56,127
55002,note_on,1,0,0,,10,,,57,127
55002,note_on,0,0,0,,0,,,72,127
55175,note_on,173,0,0,,8,,,80,127
55231,note_off,56,0,0,,10,,,57,127
55250,note_off,19,0,0,,8,,,80,127
55251,note_on,1,0,0,,10,,,81,127
55251,note_on,0,0,0,,10,,,57,127
55251,note_on,0,0,0,,4,,,64,127
55251,note_on,0,0,0,,0,,,60,127
55403,note_off,152,0,0,,10,,,81,127
55404,note_on,1,0,0,,4,,,76,127
55460,note_off,56,0,0,,0,,,72,127
55479,note_off,19,0,0,,4,,,76,127
55479,note_off,0,0,0,,0,,,60,127
55479,note_off,0,0,0,,4,,,64,127
55479,note_off,0,0,0,,10,,,57,127
55480,note_on,1,0,0,,5,,,77,127
55480,note_on,0,0,0,,0,,,60,127
55480,note_on,0,0,0,,10,,,57,127
55480,note_on,0,0,0,,4,,,64,127
55632,note_off,152,0,0,,5,,,77,127
55633,note_on,1,0,0,,0,,,72,127
55709,note_off,76,0,0,,0,,,72,127
55709,note_off,0,0,0,,4,,,64,127
55709,note_off,0,0,0,,10,,,57,127
55709,note_off,0,0,0,,0,,,60,127
55710,note_on,1,0,0,,2,,,74,127
55710,note_on,0,0,0,,4,,,64,127
55710,note_on,0,0,0,,10,,,57,127
55710,note_on,0,0,0,,12,,,59,127
55939,note_off,229,0,0,,10,,,57,127
55939,note_off,0,0,0,,2,,,74,127
55940,note_on,1,0,0,,0,,,84,127
55940,note_on,0,0,0,,8,,,56,127
55998,note_on,58,0,0,,12,,,83,127
56015,note_off,17,0,0,,0,,,84,127
56056,note_on,41,0,0,,0,,,84,127
56073,note_off,17,0,0,,12,,,83,127
56114,note_on,41,0,0,,12,,,83,127
56131,note_off,17,0,0,,0,,,84,127
56171,note_off,40,0,0,,8,,,56,127
56172,note_on,1,0,0,,0,,,84,127
56172,note_on,0,0,0,,4,,,52,127
56189,note_off,17,0,0,,12,,,83,127
56230,note_on,41,0,0,,12,,,83,127
56247,note_off,17,0,0,,0,,,84,127
56288,note_on,41,0,0,,10,,,81,127
56305,note_off,17,0,0,,12,,,83,127
56346,note_on,41,0,0,,12,,,83,127
56363,note_off,17,0,0,,10,,,81,127
56403,note_off,40,0,0,,4,,,52,127
56403,note_off,0,0,0,,12,,,59,127
56403,note_off,0,0,0,,4,,,64,127
56404,note_on,1,0,0,,0,,,84,127
56404,note_on,0,0,0,,0,,,60,127
56404,note_on,0,0,0,,10,,,57,127
56404,note_on,0,0,0,,4,,,64,127
56421,note_off,17,0,0,,12,,,83,127
56557,note_off,136,0,0,,0,,,84,127
56558,note_on,1,0,0,,8,,,80,127
56634,note_off,76,0,0,,8,,,80,127
56634,note_off,0,0,0,,4,,,64,127
56634,note_off,0,0,0,,10,,,57,127
56634,note_off,0,0,0,,0,,,60,127
56635,note_on,1,0,0,,10,,,81,127
56635,note_on,0,0,0,,0,,,60,127
56635,note_on,0,0,0,,10,,,57,127
56635,note_on,0,0,0,,4,,,64,127
56787,note_off,152,0,0,,10,,,81,127
56788,note_on,1,0,0,,4,,,76,127
56864,note_off,76,0,0,,4,,,76,127
56864,note_off,0,0,0,,4,,,64,127
56864,note_off,0,0,0,,10,,,57,127
56864,note_off,0,0,0,,0,,,60,127
56865,note_on,1,0,0,,5,,,77,127
56865,note_on,0,0,0,,0,,,60,127
56865,note_on,0,0,0,,10,,,57,127
56865,note_on,0,0,0,,4,,,64,127
57017,note_off,152,0,0,,5,,,77,127
57018,note_on,1,0,0,,0,,,72,127
57094,note_off,76,0,0,,0,,,72,127
57094,note_off,0,0,0,,4,,,64,127
57094,note_off,0,0,0,,10,,,57,127
57094,note_off,0,0,0,,0,,,60,127
57095,note_on,1,0,0,,2,,,74,127
57095,note_on,0,0,0,,12,,,59,127
57095,note_on,0,0,0,,10,,,57,127
57095,note_on,0,0,0,,4,,,64,127
57324,note_off,229,0,0,,10,,,57,127
57325,note_on,1,0,0,,0,,,84,127
57325,note_on,0,0,0,,8,,,56,127
57383,note_on,58,0,0,,12,,,83,127
57400,note_off,17,0,0,,0,,,84,127
57441,note_on,41,0,0,,0,,,84,127
57458,note_off,17,0,0,,12,,,83,127
57499,note_on,41,0,0,,12,,,83,127
57516,note_off,17,0,0,,0,,,84,127
57556,note_off,40,0,0,,8,,,56,127
57556,note_off,0,0,0,,2,,,74,127
57557,note_on,1,0,0,,0,,,84,127
57557,note_on,0,0,0,,4,,,52,127
57574,note_off,17,0,0,,12,,,83,127
57615,note_on,41,0,0,,12,,,83,127
57632,note_off,17,0,0,,0,,,84,127
57673,note_on,41,0,0,,10,,,81,127
57690,note_off,17,0,0,,12,,,83,127
57731,note_on,41,0,0,,12,,,83,127
57748,note_off,17,0,0,,10,,,81,127
57788,note_off,40,0,0,,4,,,52,127
57788,note_off,0,0,0,,4,,,64,127
57788,note_off,0,0,0,,12,,,59,127
57789,note_on,1,0,0,,0,,,84,127
57789,note_on,0,0,0,,0,,,60,127
57789,note_on,0,0,0,,10,,,57,127
57806,note_off,17,0,0,,12,,,83,127
57942,note_off,136,0,0,,0,,,84,127
57972,note_on,30,0,0,,6,,,78,127
58019,note_off,47,0,0,,10,,,57,127
58019,note_off,0,0,0,,0,,,60,127
58030,note_on,11,0,0,,7,,,79,127
58030,note_on,0,0,0,,0,,,60,127
58030,note_on,0,0,0,,10,,,57,127
58048,note_off,18,0,0,,6,,,78,127
58182,note_off,134,0,0,,7,,,79,127
58183,note_on,1,0,0,,2,,,74,127
58259,note_off,76,0,0,,2,,,74,127
58259,note_off,0,0,0,,10,,,57,127
58259,note_off,0,0,0,,0,,,60,127
58260,note_on,1,0,0,,3,,,75,127
58260,note_on,0,0,0,,0,,,60,127
58260,note_on,0,0,0,,7,,,55,127
58412,note_off,152,0,0,,3,,,75,127
58413,note_on,1,0,0,,0,,,72,127
58489,note_off,76,0,0,,0,,,72,127
58489,note_off,0,0,0,,7,,,55,127
58489,note_off,0,0,0,,0,,,60,127
58490,note_on,1,0,0,,2,,,74,127
58490,note_on,0,0,0,,0,,,60,127
58490,note_on,0,0,0,,6,,,54,127
58719,note_off,229,0,0,,6,,,54,127
58720,note_on,1,0,0,,11,,,82,127
58720,note_on,0,0,0,,4,,,52,127
58778,note_on,58,0,0,,10,,,81,127
58795,note_off,17,0,0,,11,,,82,127
58836,note_on,41,0,0,,11,,,82,127
58853,note_off,17,0,0,,10,,,81,127
58894,note_on,41,0,0,,10,,,81,127
58911,note_off,17,0,0,,11,,,82,127
58951,note_off,40,0,0,,4,,,52,127
58951,note_off,0,0,0,,2,,,74,127
58952,note_on,1,0,0,,11,,,82,127
58952,note_on,0,0,0,,2,,,50,127
58969,note_off,17,0,0,,10,,,81,127
59010,note_on,41,0,0,,10,,,81,127
59027,note_off,17,0,0,,11,,,82,127
59068,note_on,41,0,0,,7,,,79,127
59085,note_off,17,0,0,,10,,,81,127
59126,note_on,41,0,0,,10,,,81,127
59143,note_off,17,0,0,,7,,,79,127
59183,note_off,40,0,0,,2,,,50,127
59183,note_off,0,0,0,,0,,,60,127
59184,note_on,1,0,0,,11,,,82,127
59184,note_on,0,0,0,,7,,,55,127
59184,note_on,0,0,0,,11,,,58,127
59201,note_off,17,0,0,,10,,,81,127
59337,note_off,136,0,0,,11,,,82,127
59338,note_on,1,0,0,,6,,,78,127
59414,note_off,76,0,0,,6,,,78,127
59414,note_off,0,0,0,,11,,,58,127
59414,note_off,0,0,0,,7,,,55,127
59415,note_on,1,0,0,,7,,,79,127
59415,note_on,0,0,0,,11,,,58,127
59415,note_on,0,0,0,,2,,,62,127
59415,note_on,0,0,0,,7,,,55,127
59567,note_off,152,0,0,,7,,,79,127
59568,note_on,1,0,0,,2,,,74,127
59644,note_off,76,0,0,,2,,,74,127
59644,note_off,0,0,0,,7,,,55,127
59644,note_off,0,0,0,,2,,,62,127
59644,note_off,0,0,0,,11,,,58,127
59645,note_on,1,0,0,,3,,,75,127
59645,note_on,0,0,0,,11,,,58,127
59645,note_on,0,0,0,,7,,,55,127
59645,note_on,0,0,0,,2,,,62,127
59797,note_off,152,0,0,,3,,,75,127
59798,note_on,1,0,0,,11,,,70,127
59874,note_off,76,0,0,,11,,,70,127
59874,note_off,0,0,0,,2,,,62,127
59874,note_off,0,0,0,,7,,,55,127
59874,note_off,0,0,0,,11,,,58,127
59875,note_on,1,0,0,,0,,,72,127
59875,note_on,0,0,0,,7,,,55,127
59875,note_on,0,0,0,,2,,,62,127
59875,note_on,0,0,0,,10,,,57,127
60104,note_off,229,0,0,,7,,,55,127
60105,note_on,1,0,0,,11,,,82,127
60105,note_on,0,0,0,,6,,,54,127
60163,note_on,58,0,0,,10,,,81,127
60180,note_off,17,0,0,,11,,,82,127
60221,note_on,41,0,0,,11,,,82,127
60238,note_off,17,0,0,,10,,,81,127
60279,note_on,41,0,0,,10,,,81,127
60296,note_off,17,0,0,,11,,,82,127
60336,note_off,40,0,0,,6,,,54,127
60336,note_off,0,0,0,,0,,,72,127
60337,note_on,1,0,0,,11,,,82,127
60337,note_on,0,0,0,,2,,,50,127
60354,note_off,17,0,0,,10,,,81,127
60395,note_on,41,0,0,,10,,,81,127
60412,note_off,17,0,0,,11,,,82,127
60453,note_on,41,0,0,,7,,,79,127
60470,note_off,17,0,0,,10,,,81,127
60511,note_on,41,0,0,,10,,,81,127
60528,note_off,17,0,0,,7,,,79,127
60568,note_off,40,0,0,,2,,,50,127
60568,note_off,0,0,0,,10,,,57,127
60568,note_off,0,0,0,,2,,,62,127
60569,note_on,1,0,0,,11,,,82,127
60569,note_on,0,0,0,,11,,,58,127
60569,note_on,0,0,0,,7,,,55,127
60586,note_off,17,0,0,,10,,,81,127
60722,note_off,136,0,0,,11,,,82,127
60730,note_on,8,0,0,,4,,,76,127
60798,note_off,68,0,0,,7,,,55,127
60798,note_off,0,0,0,,11,,,58,127
60805,note_off,7,0,0,,4,,,76,127
60806,note_on,1,0,0,,5,,,77,127
60806,note_on,0,0,0,,7,,,55,127
60806,note_on,0,0,0,,11,,,58,127
60958,note_off,152,0,0,,5,,,77,127
60959,note_on,1,0,0,,0,,,72,127
61035,note_off,76,0,0,,0,,,72,127
61035,note_off,0,0,0,,11,,,58,127
61035,note_off,0,0,0,,7,,,55,127
61036,note_on,1,0,0,,2,,,74,127
61036,note_on,0,0,0,,11,,,58,127
61036,note_on,0,0,0,,5,,,53,127
61188,note_off,152,0,0,,2,,,74,127
61189,note_on,1,0,0,,11,,,70,127
61265,note_off,76,0,0,,11,,,70,127
61265,note_off,0,0,0,,5,,,53,127
61265,note_off,0,0,0,,11,,,58,127
61266,note_on,1,0,0,,0,,,72,127
61266,note_on,0,0,0,,4,,,52,127
61266,note_on,0,0,0,,11,,,58,127
61495,note_off,229,0,0,,4,,,52,127
61496,note_on,1,0,0,,10,,,81,127
61496,note_on,0,0,0,,2,,,50,127
61554,note_on,58,0,0,,7,,,79,127
61571,note_off,17,0,0,,10,,,81,127
61612,note_on,41,0,0,,10,,,81,127
61629,note_off,17,0,0,,7,,,79,127
61670,note_on,41,0,0,,7,,,79,127
61687,note_off,17,0,0,,10,,,81,127
61727,note_off,40,0,0,,2,,,50,127
61727,note_off,0,0,0,,0,,,72,127
61728,note_on,1,0,0,,10,,,81,127
61728,note_on,0,0,0,,0,,,48,127
61745,note_off,17,0,0,,7,,,79,127
61786,note_on,41,0,0,,7,,,79,127
61803,note_off,17,0,0,,10,,,81,127
61844,note_on,41,0,0,,5,,,77,127
61861,note_off,17,0,0,,7,,,79,127
61902,note_on,41,0,0,,7,,,79,127
61919,note_off,17,0,0,,5,,,77,127
61959,note_off,40,0,0,,0,,,48,127
61959,note_off,0,0,0,,11,,,58,127
61960,note_on,1,0,0,,10,,,81,127
61960,note_on,0,0,0,,5,,,53,127
61960,note_on,0,0,0,,10,,,57,127
61977,note_off,17,0,0,,7,,,79,127
62113,note_off,136,0,0,,10,,,81,127
62114,note_on,1,0,0,,4,,,76,127
62190,note_off,76,0,0,,4,,,76,127
62190,note_off,0,0,0,,10,,,57,127
62190,note_off,0,0,0,,5,,,53,127
62191,note_on,1,0,0,,5,,,77,127
62191,note_on,0,0,0,,10,,,57,127
62191,note_on,0,0,0,,5,,,53,127
62191,note_on,0,0,0,,0,,,60,127
62343,note_off,152,0,0,,5,,,77,127
62344,note_on,1,0,0,,0,,,72,127
62420,note_off,76,0,0,,0,,,72,127
62420,note_off,0,0,0,,0,,,60,127
62420,note_off,0,0,0,,5,,,53,127
62420,note_off,0,0,0,,10,,,57,127
62421,note_on,1,0,0,,2,,,74,127
62421,note_on,0,0,0,,5,,,53,127
62421,note_on,0,0,0,,0,,,60,127
62421,note_on,0,0,0,,10,,,57,127
62573,note_off,152,0,0,,2,,,74,127
62574,note_on,1,0,0,,10,,,69,127
62650,note_off,76,0,0,,10,,,69,127
62650,note_off,0,0,0,,10,,,57,127
62650,note_off,0,0,0,,0,,,60,127
62650,note_off,0,0,0,,5,,,53,127
62651,note_on,1,0,0,,11,,,70,127
62651,note_on,0,0,0,,5,,,53,127
62651,note_on,0,0,0,,7,,,55,127
62651,note_on,0,0,0,,0,,,60,127
62880,note_off,229,0,0,,5,,,53,127
62881,note_on,1,0,0,,10,,,81,127
62881,note_on,0,0,0,,4,,,52,127
62939,note_on,58,0,0,,7,,,79,127
62956,note_off,17,0,0,,10,,,81,127
62997,note_on,41,0,0,,10,,,81,127
63014,note_off,17,0,0,,7,,,79,127
63055,note_on,41,0,0,,7,,,79,127
63072,note_off,17,0,0,,10,,,81,127
63112,note_off,40,0,0,,4,,,52,127
63112,note_off,0,0,0,,11,,,70,127
63113,note_on,1,0,0,,10,,,81,127
63113,note_on,0,0,0,,0,,,48,127
63130,note_off,17,0,0,,7,,,79,127
63171,note_on,41,0,0,,7,,,79,127
63188,note_off,17,0,0,,10,,,81,127
63229,note_on,41,0,0,,5,,,77,127
63246,note_off,17,0,0,,7,,,79,127
63287,note_on,41,0,0,,7,,,79,127
63304,note_off,17,0,0,,5,,,77,127
63344,note_off,40,0,0,,0,,,48,127
63344,note_off,0,0,0,,0,,,60,127
63344,note_off,0,0,0,,7,,,55,127
63357,note_off,13,0,0,,7,,,79,127
63374,note_on,17,0,0,,5,,,53,127
63374,note_on,0,0,0,,11,,,82,127
63412,note_on,38,0,0,,10,,,81,127
63448,note_off,36,0,0,,11,,,82,127
63450,note_on,2,0,0,,11,,,82,127
63486,note_off,36,0,0,,10,,,81,127
63488,note_on,2,0,0,,10,,,81,127
63524,note_off,36,0,0,,11,,,82,127
63602,note_off,78,0,0,,5,,,53,127
63603,note_on,1,0,0,,5,,,65,127
63717,note_off,114,0,0,,10,,,81,127
63718,note_on,1,0,0,,0,,,84,127
63832,note_off,114,0,0,,0,,,84,127
63832,note_off,0,0,0,,5,,,65,127
63833,note_on,1,0,0,,4,,,52,127
63833,note_on,0,0,0,,10,,,81,127
63871,note_on,38,0,0,,7,,,79,127
63907,note_off,36,0,0,,10,,,81,127
63909,note_on,2,0,0,,10,,,81,127
63945,note_off,36,0,0,,7,,,79,127
63947,note_on,2,0,0,,7,,,79,127
63983,note_off,36,0,0,,10,,,81,127
64061,note_off,78,0,0,,4,,,52,127
64062,note_on,1,0,0,,4,,,64,127
64176,note_off,114,0,0,,7,,,79,127
64177,note_on,1,0,0,,0,,,84,127
64291,note_off,114,0,0,,0,,,84,127
64291,note_off,0,0,0,,4,,,64,127
64292,note_on,1,0,0,,2,,,50,127
64292,note_on,0,0,0,,7,,,79,127
64330,note_on,38,0,0,,5,,,77,127
64366,note_off,36,0,0,,7,,,79,127
64368,note_on,2,0,0,,7,,,79,127
64404,note_off,36,0,0,,5,,,77,127
64406,note_on,2,0,0,,5,,,77,127
64442,note_off,36,0,0,,7,,,79,127
64520,note_off,78,0,0,,2,,,50,127
64521,note_on,1,0,0,,2,,,62,127
64635,note_off,114,0,0,,5,,,77,127
64636,note_on,1,0,0,,0,,,84,127
64750,note_off,114,0,0,,0,,,84,127
64750,note_off,0,0,0,,2,,,62,127
64751,note_on,1,0,0,,0,,,48,127
64751,note_on,0,0,0,,5,,,77,127
64789,note_on,38,0,0,,4,,,76,127
64825,note_off,36,0,0,,5,,,77,127
64827,note_on,2,0,0,,5,,,77,127
64863,note_off,36,0,0,,4,,,76,127
64865,note_on,2,0,0,,4,,,76,127
64901,note_off,36,0,0,,5,,,77,127
64979,note_off,78,0,0,,0,,,48,127
64980,note_on,1,0,0,,0,,,60,127
65094,note_off,114,0,0,,4,,,76,127
65095,note_on,1,0,0,,0,,,84,127
65209,note_off,114,0,0,,0,,,84,127
65209,note_off,0,0,0,,0,,,60,127
65210,note_on,1,0,0,,12,,,47,127
65210,note_on,0,0,0,,4,,,76,127
65248,note_on,38,0,0,,2,,,74,127
65284,note_off,36,0,0,,4,,,76,127
65286,note_on,2,0,0,,4,,,76,127
65322,note_off,36,0,0,,2,,,74,127
65324,note_on,2,0,0,,2,,,74,127
65360,note_off,36,0,0,,4,,,76,127
65438,note_off,78,0,0,,12,,,47,127
65439,note_on,1,0,0,,12,,,59,127
65553,note_off,114,0,0,,2,,,74,127
65554,note_on,1,0,0,,0,,,84,127
65668,note_off,114,0,0,,0,,,84,127
65668,note_off,0,0,0,,12,,,59,127
65669,note_on,1,0,0,,10,,,45,127
65669,note_on,0,0,0,,2,,,74,127
65707,note_on,38,0,0,,0,,,72,127
65743,note_off,36,0,0,,2,,,74,127
65745,note_on,2,0,0,,2,,,74,127
65781,note_off,36,0,0,,0,,,72,127
65783,note_on,2,0,0,,0,,,72,127
65819,note_off,36,0,0,,2,,,74,127
65897,note_off,78,0,0,,10,,,45,127
65898,note_on,1,0,0,,10,,,57,127
66012,note_off,114,0,0,,0,,,72,127
66013,note_on,1,0,0,,0,,,84,127
66127,note_off,114,0,0,,0,,,84,127
66127,note_off,0,0,0,,10,,,57,127
66128,note_on,1,0,0,,7,,,55,127
66128,note_on,0,0,0,,7,,,43,127
66128,note_on,0,0,0,,12,,,71,127
66357,note_off,229,0,0,,12,,,71,127
66357,note_off,0,0,0,,7,,,43,127
66357,note_off,0,0,0,,7,,,55,127
66358,note_on,1,0,0,,7,,,55,127
66358,note_on,0,0,0,,7,,,79,127
66587,note_off,229,0,0,,7,,,79,127
66587,note_off,0,0,0,,7,,,55,127
66588,note_on,1,0,0,,5,,,41,127
66588,note_on,0,0,0,,10,,,81,127
66664,note_off,76,0,0,,10,,,81,127
66665,note_on,1,0,0,,7,,,79,127
66741,note_off,76,0,0,,7,,,79,127
66742,note_on,1,0,0,,5,,,77,127
66818,note_off,76,0,0,,5,,,77,127
66818,note_off,0,0,0,,5,,,41,127
66819,note_on,1,0,0,,5,,,53,127
66819,note_on,0,0,0,,10,,,81,127
67048,note_off,229,0,0,,10,,,81,127
67048,note_off,0,0,0,,5,,,53,127
67049,note_on,1,0,0,,4,,,40,127
67049,note_on,0,0,0,,7,,,79,127
67125,note_off,76,0,0,,7,,,79,127
67126,note_on,1,0,0,,5,,,77,127
67202,note_off,76,0,0,,5,,,77,127
67203,note_on,1,0,0,,4,,,76,127
67279,note_off,76,0,0,,4,,,76,127
67279,note_off,0,0,0,,4,,,40,127
67280,note_on,1,0,0,,4,,,52,127
67280,note_on,0,0,0,,7,,,79,127
67509,note_off,229,0,0,,7,,,79,127
67509,note_off,0,0,0,,4,,,52,127
67510,note_on,1,0,0,,2,,,38,127
67510,note_on,0,0,0,,5,,,77,127
67586,note_off,76,0,0,,5,,,77,127
67587,note_on,1,0,0,,4,,,76,127
67663,note_off,76,0,0,,4,,,76,127
67664,note_on,1,0,0,,2,,,74,127
67740,note_off,76,0,0,,2,,,74,127
67740,note_off,0,0,0,,2,,,38,127
67741,note_on,1,0,0,,2,,,50,127
67741,note_on,0,0,0,,5,,,77,127
67970,note_off,229,0,0,,5,,,77,127
67970,note_off,0,0,0,,2,,,50,127
67971,note_on,1,0,0,,0,,,36,127
67971,note_on,0,0,0,,4,,,76,127
68047,note_off,76,0,0,,4,,,76,127
68048,note_on,1,0,0,,2,,,74,127
68124,note_off,76,0,0,,2,,,74,127
68125,note_on,1,0,0,,0,,,72,127
68201,note_off,76,0,0,,0,,,72,127
68201,note_off,0,0,0,,0,,,36,127
68202,note_on,1,0,0,,0,,,48,127
68202,note_on,0,0,0,,4,,,76,127
68431,note_off,229,0,0,,4,,,76,127
68431,note_off,0,0,0,,0,,,48,127
68432,note_on,1,0,0,,12,,,35,127
68432,note_on,0,0,0,,2,,,74,127
68508,note_off,76,0,0,,2,,,74,127
68509,note_on,1,0,0,,0,,,72,127
68585,note_off,76,0,0,,0,,,72,127
68586,note_on,1,0,0,,12,,,71,127
68662,note_off,76,0,0,,12,,,71,127
68662,note_off,0,0,0,,12,,,35,127
68663,note_on,1,0,0,,12,,,47,127
68663,note_on,0,0,0,,2,,,74,127
68892,note_off,229,0,0,,2,,,74,127
68892,note_off,0,0,0,,12,,,47,127
68893,note_on,1,0,0,,10,,,33,127
68893,note_on,0,0,0,,0,,,72,127
68969,note_off,76,0,0,,0,,,72,127
68970,note_on,1,0,0,,12,,,71,127
69046,note_off,76,0,0,,12,,,71,127
69047,note_on,1,0,0,,10,,,69,127
69123,note_off,76,0,0,,10,,,69,127
69123,note_off,0,0,0,,10,,,33,127
69124,note_on,1,0,0,,10,,,45,127
69124,note_on,0,0,0,,0,,,72,127
69353,note_off,229,0,0,,0,,,72,127
69353,note_off,0,0,0,,10,,,45,127
69354,note_on,1,0,0,,7,,,31,127
69354,note_on,0,0,0,,12,,,71,127
69430,note_off,76,0,0,,12,,,71,127
69431,note_on,1,0,0,,10,,,69,127
69507,note_off,76,0,0,,10,,,69,127
69508,note_on,1,0,0,,7,,,67,127
69584,note_off,76,0,0,,7,,,67,127
69584,note_off,0,0,0,,7,,,31,127
69585,note_on,1,0,0,,7,,,43,127
69585,note_on,0,0,0,,2,,,74,127
69814,note_off,229,0,0,,2,,,74,127
69814,note_off,0,0,0,,7,,,43,127
69837,note_on,23,0,0,,7,,,43,127
69837,note_on,0,0,0,,12,,,71,127
69989,note_off,152,0,0,,12,,,71,127
69990,note_on,1,0,0,,2,,,74,127
70066,note_off,76,0,0,,2,,,74,127
70066,note_off,0,0,0,,7,,,43,127
70067,note_on,1,0,0,,10,,,45,127
70067,note_on,0,0,0,,0,,,72,127
70219,note_off,152,0,0,,0,,,72,127
70220,note_on,1,0,0,,4,,,76,127
70296,note_off,76,0,0,,4,,,76,127
70296,note_off,0,0,0,,10,,,45,127
70297,note_on,1,0,0,,12,,,47,127
70297,note_on,0,0,0,,2,,,74,127
70449,note_off,152,0,0,,2,,,74,127
70450,note_on,1,0,0,,5,,,77,127
70526,note_off,76,0,0,,5,,,77,127
70526,note_off,0,0,0,,12,,,47,127
70527,note_on,1,0,0,,0,,,48,127
70527,note_on,0,0,0,,4,,,76,127
70679,note_off,152,0,0,,4,,,76,127
70680,note_on,1,0,0,,7,,,79,127
70756,note_off,76,0,0,,7,,,79,127
70756,note_off,0,0,0,,0,,,48,127
70757,note_on,1,0,0,,2,,,50,127
70757,note_on,0,0,0,,5,,,77,127
70909,note_off,152,0,0,,5,,,77,127
70910,note_on,1,0,0,,10,,,81,127
70986,note_off,76,0,0,,10,,,81,127
70986,note_off,0,0,0,,2,,,50,127
70987,note_on,1,0,0,,4,,,52,127
70987,note_on,0,0,0,,7,,,79,127
71139,note_off,152,0,0,,7,,,79,127
71140,note_on,1,0,0,,12,,,83,127
71216,note_off,76,0,0,,12,,,83,127
71216,note_off,0,0,0,,4,,,52,127
71217,note_on,1,0,0,,5,,,53,127
71217,note_on,0,0,0,,10,,,81,127
71369,note_off,152,0,0,,10,,,81,127
71370,note_on,1,0,0,,7,,,79,127
71446,note_off,76,0,0,,7,,,79,127
71446,note_off,0,0,0,,5,,,53,127
71447,note_on,1,0,0,,7,,,55,127
71447,note_on,0,0,0,,5,,,77,127
71599,note_off,152,0,0,,5,,,77,127
71600,note_on,1,0,0,,4,,,76,127
71676,note_off,76,0,0,,4,,,76,127
71676,note_off,0,0,0,,7,,,55,127
71677,note_on,1,0,0,,10,,,57,127
71677,note_on,0,0,0,,2,,,74,127
71829,note_off,152,0,0,,2,,,74,127
71830,note_on,1,0,0,,0,,,72,127
71906,note_off,76,0,0,,0,,,72,127
71906,note_off,0,0,0,,10,,,57,127
71907,note_on,1,0,0,,7,,,43,127
71907,note_on,0,0,0,,7,,,55,127
71907,note_on,0,0,0,,4,,,76,127
71945,note_on,38,0,0,,2,,,74,127
71974,note_off,29,0,0,,4,,,76,127
71984,note_on,10,0,0,,4,,,76,127
72013,note_off,29,0,0,,2,,,74,127
72023,note_on,10,0,0,,2,,,74,127
72052,note_off,29,0,0,,4,,,76,127
72062,note_on,10,0,0,,4,,,76,127
72091,note_off,29,0,0,,2,,,74,127
72101,note_on,10,0,0,,2,,,74,127
72130,note_off,29,0,0,,4,,,76,127
72135,note_off,5,0,0,,7,,,55,127
72135,note_off,0,0,0,,7,,,43,127
72140,note_on,5,0,0,,7,,,55,127
72140,note_on,0,0,0,,7,,,67,127
72140,note_on,0,0,0,,4,,,76,127
72169,note_off,29,0,0,,2,,,74,127
72179,note_on,10,0,0,,2,,,74,127
72208,note_off,29,0,0,,4,,,76,127
72218,note_on,10,0,0,,4,,,76,127
72247,note_off,29,0,0,,2,,,74,127
72257,note_on,10,0,0,,2,,,74,127
72286,note_off,29,0,0,,4,,,76,127
72286,note_on,0,0,0,,0,,,72,127
72309,note_off,23,0,0,,2,,,74,127
72315,note_on,6,0,0,,2,,,74,127
72353,note_off,38,0,0,,0,,,72,127
72367,note_off,14,0,0,,7,,,67,127
72367,note_off,0,0,0,,7,,,55,127
72372,note_on,5,0,0,,5,,,41,127
72372,note_on,0,0,0,,5,,,53,127
72372,note_on,0,0,0,,4,,,76,127
72382,note_off,10,0,0,,2,,,74,127
72411,note_on,29,0,0,,2,,,74,127
72440,note_off,29,0,0,,4,,,76,127
72450,note_on,10,0,0,,4,,,76,127
72479,note_off,29,0,0,,2,,,74,127
72489,note_on,10,0,0,,2,,,74,127
72518,note_off,29,0,0,,4,,,76,127
72528,note_on,10,0,0,,4,,,76,127
72557,note_off,29,0,0,,2,,,74,127
72567,note_on,10,0,0,,2,,,74,127
72596,note_off,29,0,0,,4,,,76,127
72601,note_off,5,0,0,,5,,,53,127
72601,note_off,0,0,0,,5,,,41,127
72606,note_on,5,0,0,,5,,,53,127
72606,note_on,0,0,0,,5,,,65,127
72606,note_on,0,0,0,,4,,,76,127
72635,note_off,29,0,0,,2,,,74,127
72645,note_on,10,0,0,,2,,,74,127
72674,note_off,29,0,0,,4,,,76,127
72684,note_on,10,0,0,,4,,,76,127
72713,note_off,29,0,0,,2,,,74,127
72723,note_on,10,0,0,,2,,,74,127
72752,note_off,29,0,0,,4,,,76,127
72752,note_on,0,0,0,,0,,,72,127
72775,note_off,23,0,0,,2,,,74,127
72781,note_on,6,0,0,,2,,,74,127
72810,note_on,29,0,0,,4,,,76,127
72820,note_off,10,0,0,,0,,,72,127
72834,note_off,14,0,0,,5,,,65,127
72834,note_off,0,0,0,,5,,,53,127
72839,note_on,5,0,0,,4,,,40,127
72839,note_on,0,0,0,,4,,,52,127
72849,note_off,10,0,0,,2,,,74,127
72878,note_off,29,0,0,,4,,,76,127
72878,note_on,0,0,0,,2,,,74,127
72916,note_on,38,0,0,,4,,,76,127
72945,note_off,29,0,0,,2,,,74,127
72955,note_on,10,0,0,,2,,,74,127
72984,note_off,29,0,0,,4,,,76,127
72994,note_on,10,0,0,,4,,,76,127
73023,note_off,29,0,0,,2,,,74,127
73033,note_on,10,0,0,,2,,,74,127
73062,note_off,29,0,0,,4,,,76,127
73067,note_off,5,0,0,,4,,,52,127
73067,note_off,0,0,0,,4,,,40,127
73072,note_on,5,0,0,,4,,,52,127
73072,note_on,0,0,0,,4,,,64,127
73072,note_on,0,0,0,,4,,,76,127
73101,note_off,29,0,0,,2,,,74,127
73111,note_on,10,0,0,,2,,,74,127
73140,note_off,29,0,0,,4,,,76,127
73150,note_on,10,0,0,,4,,,76,127
73179,note_off,29,0,0,,2,,,74,127
73189,note_on,10,0,0,,2,,,74,127
73218,note_off,29,0,0,,4,,,76,127
73218,note_on,0,0,0,,0,,,72,127
73241,note_off,23,0,0,,2,,,74,127
73247,note_on,6,0,0,,2,,,74,127
73276,note_on,29,0,0,,4,,,76,127
73286,note_off,10,0,0,,0,,,72,127
73300,note_off,14,0,0,,4,,,64,127
73300,note_off,0,0,0,,4,,,52,127
73305,note_on,5,0,0,,2,,,38,127
73305,note_on,0,0,0,,2,,,50,127
73315,note_off,10,0,0,,2,,,74,127
73344,note_on,29,0,0,,2,,,74,127
73349,note_off,5,0,0,,4,,,76,127
73383,note_on,34,0,0,,4,,,76,127
73412,note_off,29,0,0,,2,,,74,127
73422,note_on,10,0,0,,2,,,74,127
73451,note_off,29,0,0,,4,,,76,127
73461,note_on,10,0,0,,4,,,76,127
73490,note_off,29,0,0,,2,,,74,127
73500,note_on,10,0,0,,2,,,74,127
73529,note_off,29,0,0,,4,,,76,127
73534,note_off,5,0,0,,2,,,50,127
73534,note_off,0,0,0,,2,,,38,127
73539,note_on,5,0,0,,2,,,50,127
73539,note_on,0,0,0,,2,,,62,127
73539,note_on,0,0,0,,4,,,76,127
73568,note_off,29,0,0,,2,,,74,127
73578,note_on,10,0,0,,2,,,74,127
73607,note_off,29,0,0,,4,,,76,127
73617,note_on,10,0,0,,4,,,76,127
73646,note_off,29,0,0,,2,,,74,127
73656,note_on,10,0,0,,2,,,74,127
73685,note_off,29,0,0,,4,,,76,127
73685,note_on,0,0,0,,0,,,72,127
73708,note_off,23,0,0,,2,,,74,127
73714,note_on,6,0,0,,2,,,74,127
73743,note_on,29,0,0,,4,,,76,127
73753,note_off,10,0,0,,0,,,72,127
73767,note_off,14,0,0,,2,,,62,127
73767,note_off,0,0,0,,2,,,50,127
73772,note_on,5,0,0,,0,,,36,127
73772,note_on,0,0,0,,0,,,48,127
73782,note_off,10,0,0,,2,,,74,127
73811,note_off,29,0,0,,4,,,76,127
73811,note_on,0,0,0,,2,,,74,127
73849,note_on,38,0,0,,4,,,76,127
73878,note_off,29,0,0,,2,,,74,127
73888,note_on,10,0,0,,2,,,74,127
73917,note_off,29,0,0,,4,,,76,127
73927,note_on,10,0,0,,4,,,76,127
73956,note_off,29,0,0,,2,,,74,127
73966,note_on,10,0,0,,2,,,74,127
73995,note_off,29,0,0,,4,,,76,127
74000,note_off,5,0,0,,0,,,48,127
74000,note_off,0,0,0,,0,,,36,127
74005,note_on,5,0,0,,0,,,48,127
74005,note_on,0,0,0,,0,,,60,127
74005,note_on,0,0,0,,4,,,76,127
74034,note_off,29,0,0,,2,,,74,127
74044,note_on,10,0,0,,2,,,74,127
74073,note_off,29,0,0,,4,,,76,127
74083,note_on,10,0,0,,4,,,76,127
74112,note_off,29,0,0,,2,,,74,127
74122,note_on,10,0,0,,2,,,74,127
74151,note_off,29,0,0,,4,,,76,127
74151,note_on,0,0,0,,0,,,72,127
74174,note_off,23,0,0,,2,,,74,127
74180,note_on,6,0,0,,2,,,74,127
74209,note_on,29,0,0,,4,,,76,127
74219,note_off,10,0,0,,0,,,72,127
74233,note_off,14,0,0,,0,,,60,127
74233,note_off,0,0,0,,0,,,48,127
74238,note_on,5,0,0,,12,,,35,127
74238,note_on,0,0,0,,12,,,47,127
74248,note_off,10,0,0,,2,,,74,127
74277,note_off,29,0,0,,4,,,76,127
74277,note_on,0,0,0,,2,,,74,127
74315,note_on,38,0,0,,4,,,76,127
74344,note_off,29,0,0,,2,,,74,127
74354,note_on,10,0,0,,2,,,74,127
74383,note_off,29,0,0,,4,,,76,127
74393,note_on,10,0,0,,4,,,76,127
74422,note_off,29,0,0,,2,,,74,127
74432,note_on,10,0,0,,2,,,74,127
74461,note_off,29,0,0,,4,,,76,127
74466,note_off,5,0,0,,12,,,47,127
74466,note_off,0,0,0,,12,,,35,127
74471,note_on,5,0,0,,12,,,47,127
74471,note_on,0,0,0,,12,,,59,127
74471,note_on,0,0,0,,4,,,76,127
74500,note_off,29,0,0,,2,,,74,127
74510,note_on,10,0,0,,2,,,74,127
74539,note_off,29,0,0,,4,,,76,127
74549,note_on,10,0,0,,4,,,76,127
74578,note_off,29,0,0,,2,,,74,127
74588,note_on,10,0,0,,2,,,74,127
74617,note_off,29,0,0,,4,,,76,127
74617,note_on,0,0,0,,0,,,72,127
74640,note_off,23,0,0,,2,,,74,127
74646,note_on,6,0,0,,2,,,74,127
74675,note_on,29,0,0,,4,,,76,127
74685,note_off,10,0,0,,0,,,72,127
74699,note_off,14,0,0,,12,,,59,127
74699,note_off,0,0,0,,12,,,47,127
74704,note_on,5,0,0,,10,,,33,127
74704,note_on,0,0,0,,10,,,45,127
74714,note_off,10,0,0,,2,,,74,127
74743,note_off,29,0,0,,4,,,76,127
74743,note_on,0,0,0,,2,,,74,127
74781,note_on,38,0,0,,4,,,76,127
74810,note_off,29,0,0,,2,,,74,127
74820,note_on,10,0,0,,2,,,74,127
74849,note_off,29,0,0,,4,,,76,127
74859,note_on,10,0,0,,4,,,76,127
74888,note_off,29,0,0,,2,,,74,127
74898,note_on,10,0,0,,2,,,74,127
74927,note_off,29,0,0,,4,,,76,127
74932,note_off,5,0,0,,10,,,45,127
74932,note_off,0,0,0,,10,,,33,127
74937,note_on,5,0,0,,10,,,45,127
74937,note_on,0,0,0,,10,,,57,127
74937,note_on,0,0,0,,4,,,76,127
74966,note_off,29,0,0,,2,,,74,127
74976,note_on,10,0,0,,2,,,74,127
75005,note_off,29,0,0,,4,,,76,127
75015,note_on,10,0,0,,4,,,76,127
75044,note_off,29,0,0,,2,,,74,127
75054,note_on,10,0,0,,2,,,74,127
75083,note_off,29,0,0,,4,,,76,127
75083,note_on,0,0,0,,0,,,72,127
75106,note_off,23,0,0,,2,,,74,127
75112,note_on,6,0,0,,2,,,74,127
75141,note_on,29,0,0,,4,,,76,127
75151,note_off,10,0,0,,0,,,72,127
75165,note_off,14,0,0,,10,,,57,127
75165,note_off,0,0,0,,10,,,45,127
75170,note_on,5,0,0,,7,,,31,127
75170,note_on,0,0,0,,7,,,43,127
75180,note_off,10,0,0,,2,,,74,127
75209,note_off,29,0,0,,4,,,76,127
75209,note_on,0,0,0,,2,,,74,127
75247,note_on,38,0,0,,4,,,76,127
75276,note_off,29,0,0,,2,,,74,127
75286,note_on,10,0,0,,2,,,74,127
75315,note_off,29,0,0,,4,,,76,127
75325,note_on,10,0,0,,4,,,76,127
75354,note_off,29,0,0,,2,,,74,127
75364,note_on,10,0,0,,2,,,74,127
75393,note_off,29,0,0,,4,,,76,127
75398,note_off,5,0,0,,7,,,43,127
75398,note_off,0,0,0,,7,,,31,127
75403,note_on,5,0,0,,7,,,55,127
75403,note_on,0,0,0,,4,,,76,127
75432,note_off,29,0,0,,2,,,74,127
75442,note_on,10,0,0,,2,,,74,127
75471,note_off,29,0,0,,4,,,76,127
75481,note_on,10,0,0,,4,,,76,127
75510,note_off,29,0,0,,2,,,74,127
75520,note_on,10,0,0,,2,,,74,127
75549,note_off,29,0,0,,4,,,76,127
75549,note_on,0,0,0,,0,,,72,127
75572,note_off,23,0,0,,2,,,74,127
75578,note_on,6,0,0,,2,,,74,127
75616,note_off,38,0,0,,0,,,72,127
75630,note_off,14,0,0,,7,,,55,127
75646,note_off,16,0,0,,2,,,74,127
75659,note_on,13,0,0,,12,,,71,127
75659,note_on,0,0,0,,7,,,43,127
75735,note_off,76,0,0,,12,,,71,127
75736,note_on,1,0,0,,0,,,72,127
75812,note_off,76,0,0,,0,,,72,127
75813,note_on,1,0,0,,2,,,74,127
75889,note_off,76,0,0,,2,,,74,127
75889,note_off,0,0,0,,7,,,43,127
75890,note_on,1,0,0,,0,,,72,127
75890,note_on,0,0,0,,10,,,45,127
75966,note_off,76,0,0,,0,,,72,127
75967,note_on,1,0,0,,2,,,74,127
76043,note_off,76,0,0,,2,,,74,127
76044,note_on,1,0,0,,4,,,76,127
76120,note_off,76,0,0,,4,,,76,127
76120,note_off,0,0,0,,10,,,45,127
76121,note_on,1,0,0,,2,,,74,127
76121,note_on,0,0,0,,12,,,47,127
76197,note_off,76,0,0,,2,,,74,127
76198,note_on,1,0,0,,4,,,76,127
76274,note_off,76,0,0,,4,,,76,127
76275,note_on,1,0,0,,5,,,77,127
76351,note_off,76,0,0,,5,,,77,127
76351,note_off,0,0,0,,12,,,47,127
76352,note_on,1,0,0,,4,,,76,127
76352,note_on,0,0,0,,0,,,48,127
76428,note_off,76,0,0,,4,,,76,127
76429,note_on,1,0,0,,5,,,77,127
76505,note_off,76,0,0,,5,,,77,127
76506,note_on,1,0,0,,7,,,79,127
76582,note_off,76,0,0,,0,,,48,127
76583,note_on,1,0,0,,12,,,71,127
76583,note_on,0,0,0,,2,,,50,127
76659,note_off,76,0,0,,12,,,71,127
76660,note_on,1,0,0,,0,,,72,127
76736,note_off,76,0,0,,0,,,72,127
76737,note_on,1,0,0,,2,,,74,127
76813,note_off,76,0,0,,2,,,74,127
76813,note_off,0,0,0,,2,,,50,127
76814,note_on,1,0,0,,0,,,72,127
76814,note_on,0,0,0,,4,,,52,127
76891,note_on,77,0,0,,2,,,74,127
76943,note_off,52,0,0,,7,,,79,127
76967,note_off,24,0,0,,2,,,74,127
76968,note_on,1,0,0,,4,,,76,127
77044,note_off,76,0,0,,4,,,76,127
77044,note_off,0,0,0,,4,,,52,127
77045,note_on,1,0,0,,2,,,74,127
77045,note_on,0,0,0,,5,,,53,127
77121,note_off,76,0,0,,2,,,74,127
77122,note_on,1,0,0,,4,,,76,127
77198,note_off,76,0,0,,4,,,76,127
77199,note_on,1,0,0,,5,,,77,127
77275,note_off,76,0,0,,5,,,77,127
77275,note_off,0,0,0,,5,,,53,127
77276,note_on,1,0,0,,4,,,76,127
77276,note_on,0,0,0,,7,,,55,127
77505,note_off,229,0,0,,4,,,76,127
77505,note_off,0,0,0,,0,,,72,127
77506,note_on,1,0,0,,2,,,74,127
77506,note_on,0,0,0,,12,,,71,127
77506,note_on,0,0,0,,7,,,43,127
77554,note_on,48,0,0,,4,,,76,127
77580,note_off,26,0,0,,2,,,74,127
77602,note_on,22,0,0,,2,,,74,127
77628,note_off,26,0,0,,4,,,76,127
77735,note_off,107,0,0,,7,,,43,127
77735,note_off,0,0,0,,7,,,55,127
77769,note_off,34,0,0,,12,,,71,127
77770,note_off,1,0,0,,2,,,74,127
77775,note_on,5,0,0,,0,,,48,127
77929,note_on,154,0,0,,12,,,83,127
78005,note_off,76,0,0,,12,,,83,127
78006,note_on,1,0,0,,0,,,84,127
78158,note_off,152,0,0,,0,,,84,127
78159,note_on,1,0,0,,7,,,79,127
78235,note_off,76,0,0,,7,,,79,127
78235,note_off,0,0,0,,0,,,48,127
78236,note_on,1,0,0,,10,,,81,127
78236,note_on,0,0,0,,0,,,72,127
78388,note_off,152,0,0,,10,,,81,127
78389,note_on,1,0,0,,4,,,76,127
78465,note_off,76,0,0,,4,,,76,127
78465,note_off,0,0,0,,0,,,72,127
78466,note_on,1,0,0,,5,,,77,127
78466,note_on,0,0,0,,0,,,72,127
78618,note_off,152,0,0,,5,,,77,127
78619,note_on,1,0,0,,4,,,88,127
78695,note_off,76,0,0,,4,,,88,127
78695,note_off,0,0,0,,0,,,72,127
78696,note_on,1,0,0,,4,,,88,127
78696,note_on,0,0,0,,0,,,72,127
78734,note_on,38,0,0,,2,,,86,127
78770,note_off,36,0,0,,4,,,88,127
78772,note_on,2,0,0,,4,,,88,127
78808,note_off,36,0,0,,2,,,86,127
78810,note_on,2,0,0,,2,,,86,127
78846,note_off,36,0,0,,4,,,88,127
78924,note_off,78,0,0,,0,,,72,127
78925,note_on,1,0,0,,12,,,71,127
79154,note_off,229,0,0,,12,,,71,127
79155,note_on,1,0,0,,0,,,60,127
79307,note_off,152,0,0,,2,,,86,127
79308,note_on,1,0,0,,12,,,83,127
79384,note_off,76,0,0,,12,,,83,127
79384,note_off,0,0,0,,0,,,60,127
79385,note_on,1,0,0,,0,,,84,127
79385,note_on,0,0,0,,0,,,72,127
79537,note_off,152,0,0,,0,,,84,127
79538,note_on,1,0,0,,7,,,79,127
79614,note_off,76,0,0,,7,,,79,127
79614,note_off,0,0,0,,0,,,72,127
79615,note_on,1,0,0,,10,,,81,127
79615,note_on,0,0,0,,0,,,72,127
79767,note_off,152,0,0,,10,,,81,127
79768,note_on,1,0,0,,4,,,76,127
79844,note_off,76,0,0,,4,,,76,127
79844,note_off,0,0,0,,0,,,72,127
79845,note_on,1,0,0,,5,,,77,127
79845,note_on,0,0,0,,0,,,72,127
79997,note_off,152,0,0,,5,,,77,127
79998,note_on,1,0,0,,4,,,88,127
80074,note_off,76,0,0,,4,,,88,127
80074,note_off,0,0,0,,0,,,72,127
80075,note_on,1,0,0,,4,,,88,127
80075,note_on,0,0,0,,0,,,72,127
80113,note_on,38,0,0,,2,,,86,127
80149,note_off,36,0,0,,4,,,88,127
80151,note_on,2,0,0,,4,,,88,127
80187,note_off,36,0,0,,2,,,86,127
80189,note_on,2,0,0,,2,,,86,127
80225,note_off,36,0,0,,4,,,88,127
80303,note_off,78,0,0,,0,,,72,127
80304,note_on,1,0,0,,12,,,71,127
80533,note_off,229,0,0,,12,,,71,127
80534,note_on,1,0,0,,0,,,60,127
80534,note_on,0,0,0,,0,,,72,127
80686,note_off,152,0,0,,2,,,86,127
80687,note_on,1,0,0,,5,,,89,127
80763,note_off,76,0,0,,5,,,89,127
80763,note_off,0,0,0,,0,,,60,127
80764,note_on,1,0,0,,4,,,88,127
80764,note_on,0,0,0,,2,,,62,127
80916,note_off,152,0,0,,4,,,88,127
80917,note_on,1,0,0,,12,,,83,127
80993,note_off,76,0,0,,12,,,83,127
80993,note_off,0,0,0,,2,,,62,127
80994,note_on,1,0,0,,0,,,84,127
80994,note_on,0,0,0,,4,,,64,127
81146,note_off,152,0,0,,0,,,84,127
81147,note_on,1,0,0,,7,,,79,127
81223,note_off,76,0,0,,7,,,79,127
81223,note_off,0,0,0,,4,,,64,127
81223,note_off,0,0,0,,0,,,72,127
81224,note_on,1,0,0,,10,,,81,127
81224,note_on,0,0,0,,5,,,53,127
81224,note_on,0,0,0,,5,,,65,127
81376,note_off,152,0,0,,10,,,81,127
81377,note_on,1,0,0,,4,,,76,127
81453,note_off,76,0,0,,4,,,76,127
81453,note_off,0,0,0,,5,,,53,127
81454,note_on,1,0,0,,5,,,77,127
81454,note_on,0,0,0,,7,,,55,127
81606,note_off,152,0,0,,5,,,77,127
81607,note_on,1,0,0,,0,,,72,127
81683,note_off,76,0,0,,0,,,72,127
81683,note_off,0,0,0,,7,,,55,127
81684,note_on,1,0,0,,2,,,74,127
81684,note_on,0,0,0,,10,,,57,127
81836,note_off,152,0,0,,2,,,74,127
81837,note_on,1,0,0,,10,,,69,127
81913,note_off,76,0,0,,10,,,69,127
81913,note_off,0,0,0,,10,,,57,127
81913,note_off,0,0,0,,5,,,65,127
81914,note_on,1,0,0,,12,,,71,127
81914,note_on,0,0,0,,7,,,55,127
82066,note_off,152,0,0,,12,,,71,127
82067,note_on,1,0,0,,2,,,74,127
82143,note_off,76,0,0,,2,,,74,127
82143,note_off,0,0,0,,7,,,55,127
82144,note_on,1,0,0,,7,,,67,127
82144,note_on,0,0,0,,5,,,53,127
82296,note_off,152,0,0,,7,,,67,127
82297,note_on,1,0,0,,12,,,71,127
82373,note_off,76,0,0,,12,,,71,127
82373,note_off,0,0,0,,5,,,53,127
82374,note_on,1,0,0,,0,,,72,127
82374,note_on,0,0,0,,4,,,52,127
82526,note_off,152,0,0,,0,,,72,127
82527,note_on,1,0,0,,4,,,76,127
82603,note_off,76,0,0,,4,,,76,127
82603,note_off,0,0,0,,4,,,52,127
82604,note_on,1,0,0,,2,,,74,127
82604,note_on,0,0,0,,5,,,53,127
82756,note_off,152,0,0,,2,,,74,127
82757,note_on,1,0,0,,5,,,77,127
82833,note_off,76,0,0,,5,,,77,127
82833,note_off,0,0,0,,5,,,53,127
82834,note_on,1,0,0,,4,,,76,127
82834,note_on,0,0,0,,7,,,55,127
82986,note_off,152,0,0,,4,,,76,127
82987,note_on,1,0,0,,2,,,74,127
83063,note_off,76,0,0,,2,,,74,127
83064,note_on,1,0,0,,0,,,72,127
83064,note_on,0,0,0,,7,,,43,127
83216,note_off,152,0,0,,0,,,72,127
83217,note_on,1,0,0,,12,,,71,127
83293,note_off,76,0,0,,12,,,71,127
83293,note_off,0,0,0,,7,,,43,127
83293,note_off,0,0,0,,7,,,55,127
83301,note_on,8,0,0,,0,,,48,127
83301,note_on,0,0,0,,0,,,72,127
83453,note_off,152,0,0,,0,,,72,127
83473,note_on,20,0,0,,4,,,76,127
83529,note_off,56,0,0,,0,,,48,127
83548,note_off,19,0,0,,4,,,76,127
83549,note_on,1,0,0,,2,,,74,127
83549,note_on,0,0,0,,0,,,72,127
83549,note_on,0,0,0,,5,,,53,127
83778,note_off,229,0,0,,5,,,53,127
83778,note_off,0,0,0,,0,,,72,127
83778,note_off,0,0,0,,2,,,74,127
83779,note_on,1,0,0,,0,,,72,127
83779,note_on,0,0,0,,2,,,74,127
83779,note_on,0,0,0,,7,,,55,127
84008,note_off,229,0,0,,7,,,55,127
84009,note_on,1,0,0,,10,,,57,127
84161,note_off,152,0,0,,2,,,74,127
84161,note_off,0,0,0,,0,,,72,127
84162,note_on,1,0,0,,4,,,76,127
84238,note_off,76,0,0,,4,,,76,127
84238,note_off,0,0,0,,10,,,57,127
84239,note_on,1,0,0,,0,,,72,127
84239,note_on,0,0,0,,2,,,74,127
84239,note_on,0,0,0,,5,,,53,127
84468,note_off,229,0,0,,5,,,53,127
84468,note_off,0,0,0,,2,,,74,127
84468,note_off,0,0,0,,0,,,72,127
84469,note_on,1,0,0,,0,,,72,127
84469,note_on,0,0,0,,2,,,74,127
84469,note_on,0,0,0,,7,,,55,127
84698,note_off,229,0,0,,7,,,55,127
84699,note_on,1,0,0,,10,,,57,127
84851,note_off,152,0,0,,2,,,74,127
84851,note_off,0,0,0,,0,,,72,127
84852,note_on,1,0,0,,4,,,76,127
84928,note_off,76,0,0,,4,,,76,127
84928,note_off,0,0,0,,10,,,57,127
84929,note_on,1,0,0,,0,,,72,127
84929,note_on,0,0,0,,2,,,74,127
84929,note_on,0,0,0,,5,,,53,127
85158,note_off,229,0,0,,5,,,53,127
85158,note_off,0,0,0,,2,,,74,127
85158,note_off,0,0,0,,0,,,72,127
85159,note_on,1,0,0,,2,,,74,127
85159,note_on,0,0,0,,0,,,72,127
85159,note_on,0,0,0,,7,,,55,127
85388,note_off,229,0,0,,7,,,55,127
85388,note_off,0,0,0,,0,,,72,127
85388,note_off,0,0,0,,2,,,74,127
85389,note_on,1,0,0,,2,,,74,127
85389,note_on,0,0,0,,10,,,57,127
85465,note_off,76,0,0,,10,,,57,127
85465,note_off,0,0,0,,2,,,74,127
85466,note_on,1,0,0,,4,,,76,127
85466,note_on,0,0,0,,7,,,55,127
85542,note_off,76,0,0,,7,,,55,127
85542,note_off,0,0,0,,4,,,76,127
85543,note_on,1,0,0,,5,,,77,127
85543,note_on,0,0,0,,5,,,53,127
85619,note_off,76,0,0,,5,,,53,127
85619,note_off,0,0,0,,5,,,77,127
85620,note_on,1,0,0,,4,,,76,127
85620,note_on,0,0,0,,7,,,55,127
85849,note_off,229,0,0,,4,,,76,127
85850,note_on,1,0,0,,4,,,76,127
85850,note_on,0,0,0,,12,,,71,127
85850,note_on,0,0,0,,7,,,43,127
85888,note_on,38,0,0,,2,,,74,127
85924,note_off,36,0,0,,4,,,76,127
85926,note_on,2,0,0,,4,,,76,127
85962,note_off,36,0,0,,2,,,74,127
85964,note_on,2,0,0,,2,,,74,127
86000,note_off,36,0,0,,4,,,76,127
86078,note_off,78,0,0,,2,,,74,127
86078,note_off,0,0,0,,7,,,43,127
86078,note_off,0,0,0,,12,,,71,127
86078,note_off,0,0,0,,7,,,55,127
86098,note_on,20,0,0,,0,,,48,127
86098,note_on,0,0,0,,0,,,84,127
86327,note_off,229,0,0,,0,,,84,127
86327,note_off,0,0,0,,0,,,48,127
86328,note_on,1,0,0,,5,,,53,127
86328,note_on,0,0,0,,2,,,74,127
86328,note_on,0,0,0,,0,,,72,127
86557,note_off,229,0,0,,0,,,72,127
86557,note_off,0,0,0,,2,,,74,127
86557,note_off,0,0,0,,5,,,53,127
86558,note_on,1,0,0,,7,,,55,127
86558,note_on,0,0,0,,0,,,72,127
86558,note_on,0,0,0,,2,,,74,127
86787,note_off,229,0,0,,2,,,74,127
86787,note_off,0,0,0,,0,,,72,127
86787,note_off,0,0,0,,7,,,55,127
86788,note_on,1,0,0,,10,,,57,127
86788,note_on,0,0,0,,0,,,84,127
87017,note_off,229,0,0,,0,,,84,127
87017,note_off,0,0,0,,10,,,57,127
87018,note_on,1,0,0,,5,,,53,127
87018,note_on,0,0,0,,0,,,72,127
87018,note_on,0,0,0,,2,,,74,127
87247,note_off,229,0,0,,2,,,74,127
87247,note_off,0,0,0,,0,,,72,127
87247,note_off,0,0,0,,5,,,53,127
87248,note_on,1,0,0,,7,,,55,127
87248,note_on,0,0,0,,2,,,74,127
87248,note_on,0,0,0,,0,,,72,127
87477,note_off,229,0,0,,0,,,72,127
87477,note_off,0,0,0,,2,,,74,127
87477,note_off,0,0,0,,7,,,55,127
87478,note_on,1,0,0,,10,,,57,127
87478,note_on,0,0,0,,0,,,84,127
87707,note_off,229,0,0,,0,,,84,127
87707,note_off,0,0,0,,10,,,57,127
87708,note_on,1,0,0,,5,,,53,127
87708,note_on,0,0,0,,0,,,72,127
87708,note_on,0,0,0,,2,,,74,127
87937,note_off,229,0,0,,2,,,74,127
87937,note_off,0,0,0,,0,,,72,127
87937,note_off,0,0,0,,5,,,53,127
87938,note_on,1,0,0,,7,,,55,127
87938,note_on,0,0,0,,2,,,74,127
87938,note_on,0,0,0,,0,,,72,127
88167,note_off,229,0,0,,0,,,72,127
88167,note_off,0,0,0,,2,,,74,127
88167,note_off,0,0,0,,7,,,55,127
88168,note_on,1,0,0,,10,,,57,127
88168,note_on,0,0,0,,2,,,74,127
88168,note_on,0,0,0,,0,,,72,127
88244,note_off,76,0,0,,2,,,74,127
88244,note_off,0,0,0,,10,,,57,127
88245,note_on,1,0,0,,7,,,55,127
88245,note_on,0,0,0,,4,,,76,127
88321,note_off,76,0,0,,4,,,76,127
88321,note_off,0,0,0,,7,,,55,127
88322,note_on,1,0,0,,5,,,53,127
88322,note_on,0,0,0,,5,,,77,127
88398,note_off,76,0,0,,5,,,77,127
88398,note_off,0,0,0,,5,,,53,127
88399,note_on,1,0,0,,7,,,55,127
88399,note_on,0,0,0,,4,,,76,127
88628,note_off,229,0,0,,4,,,76,127
88628,note_off,0,0,0,,0,,,72,127
88629,note_on,1,0,0,,7,,,43,127
88629,note_on,0,0,0,,12,,,71,127
88629,note_on,0,0,0,,4,,,76,127
88667,note_on,38,0,0,,2,,,74,127
88703,note_off,36,0,0,,4,,,76,127
88705,note_on,2,0,0,,4,,,76,127
88741,note_off,36,0,0,,2,,,74,127
88743,note_on,2,0,0,,2,,,74,127
88779,note_off,36,0,0,,4,,,76,127
88857,note_off,78,0,0,,2,,,74,127
88857,note_off,0,0,0,,12,,,71,127
88857,note_off,0,0,0,,7,,,43,127
88857,note_off,0,0,0,,7,,,55,127
88858,note_on,1,0,0,,0,,,48,127
88858,note_on,0,0,0,,0,,,72,127
89050,note_on,192,0,0,,12,,,83,127
89086,note_off,36,0,0,,0,,,72,127
89126,note_off,40,0,0,,12,,,83,127
89127,note_on,1,0,0,,0,,,84,127
89279,note_off,152,0,0,,0,,,84,127
89280,note_on,1,0,0,,7,,,79,127
89356,note_off,76,0,0,,7,,,79,127
89357,note_on,1,0,0,,0,,,60,127
89357,note_on,0,0,0,,10,,,81,127
89362,note_off,5,0,0,,0,,,48,127
89510,note_off,148,0,0,,10,,,81,127
89511,note_on,1,0,0,,4,,,76,127
89587,note_off,76,0,0,,4,,,76,127
89588,note_on,1,0,0,,2,,,62,127
89588,note_on,0,0,0,,5,,,77,127
89740,note_off,152,0,0,,5,,,77,127
89741,note_on,1,0,0,,10,,,81,127
89817,note_off,76,0,0,,10,,,81,127
89817,note_off,0,0,0,,0,,,60,127
89818,note_on,1,0,0,,12,,,59,127
89818,note_on,0,0,0,,7,,,79,127
89970,note_off,152,0,0,,7,,,79,127
89971,note_on,1,0,0,,5,,,77,127
90047,note_off,76,0,0,,5,,,77,127
90047,note_off,0,0,0,,12,,,59,127
90048,note_on,1,0,0,,7,,,55,127
90048,note_on,0,0,0,,4,,,76,127
90200,note_off,152,0,0,,4,,,76,127
90201,note_on,1,0,0,,2,,,74,127
90277,note_off,76,0,0,,2,,,74,127
90277,note_off,0,0,0,,7,,,55,127
90277,note_off,0,0,0,,2,,,62,127
90278,note_on,1,0,0,,0,,,60,127
90278,note_on,0,0,0,,0,,,48,127
90278,note_on,0,0,0,,4,,,76,127
90430,note_off,152,0,0,,4,,,76,127
90432,note_on,2,0,0,,7,,,79,127
90506,note_off,74,0,0,,0,,,48,127
90507,note_off,1,0,0,,7,,,79,127
90508,note_on,1,0,0,,12,,,71,127
90508,note_on,0,0,0,,2,,,50,127
90660,note_off,152,0,0,,12,,,71,127
90662,note_on,2,0,0,,2,,,74,127
90736,note_off,74,0,0,,2,,,50,127
90737,note_off,1,0,0,,2,,,74,127
90739,note_on,2,0,0,,0,,,72,127
90739,note_on,0,0,0,,4,,,52,127
90891,note_off,152,0,0,,0,,,72,127
90893,note_on,2,0,0,,4,,,76,127
90964,note_off,71,0,0,,0,,,60,127
90968,note_off,4,0,0,,4,,,52,127
90969,note_off,1,0,0,,4,,,76,127
90971,note_on,2,0,0,,2,,,74,127
90971,note_on,0,0,0,,5,,,53,127
91123,note_off,152,0,0,,2,,,74,127
91125,note_on,2,0,0,,5,,,77,127
91199,note_off,74,0,0,,5,,,53,127
91200,note_off,1,0,0,,5,,,77,127
91202,note_on,2,0,0,,4,,,76,127
91202,note_on,0,0,0,,7,,,55,127
91431,note_off,229,0,0,,4,,,76,127
91435,note_on,4,0,0,,7,,,43,127
91435,note_on,0,0,0,,12,,,71,127
91435,note_on,0,0,0,,4,,,76,127
91478,note_on,43,0,0,,2,,,74,127
91509,note_off,31,0,0,,4,,,76,127
91521,note_on,12,0,0,,4,,,76,127
91552,note_off,31,0,0,,2,,,74,127
91563,note_on,11,0,0,,2,,,74,127
91595,note_off,32,0,0,,4,,,76,127
91661,note_off,66,0,0,,7,,,55,127
91663,note_off,2,0,0,,12,,,71,127
91663,note_off,0,0,0,,7,,,43,127
91694,note_off,31,0,0,,2,,,74,127
91711,note_on,17,0,0,,0,,,72,127
91711,note_on,0,0,0,,0,,,36,127
93571,note_off,1860,0,0,,0,,,36,127
93571,note_off,0,0,0,,0,,,72,127
98304,end_of_track,4733,1,0,,,,,,
