tick,type,time,meta,track,program,channel,pitch,tempo,note,velocity
0,copyright,0,1,0,,,,,,
0,program_change,0,0,0,6,0,,,,
0,pitchwheel,0,0,0,,0,0,,,
0,program_change,0,0,0,6,1,,,,
0,pitchwheel,0,0,0,,1,-590,,,
0,program_change,0,0,0,6,2,,,,
0,pitchwheel,0,0,0,,2,-272,,,
0,program_change,0,0,0,6,3,,,,
0,pitchwheel,0,0,0,,3,-353,,,
0,program_change,0,0,0,6,4,,,,
0,pitchwheel,0,0,0,,4,-560,,,
0,program_change,0,0,0,6,5,,,,
0,pitchwheel,0,0,0,,5,-80,,,
0,program_change,0,0,0,6,6,,,,
0,pitchwheel,0,0,0,,6,-625,,,
0,program_change,0,0,0,6,7,,,,
0,pitchwheel,0,0,0,,7,-130,,,
0,program_change,0,0,0,6,8,,,,
0,pitchwheel,0,0,0,,8,-512,,,
0,program_change,0,0,0,6,10,,,,
0,pitchwheel,0,0,0,,10,-464,,,
0,program_change,0,0,0,6,11,,,,
0,pitchwheel,0,0,0,,11,-208,,,
0,program_change,0,0,0,6,12,,,,
0,pitchwheel,0,0,0,,12,-553,,,
0,set_tempo,0,1,0,,,,500000,,
121,note_on,121,0,0,,11,,,82,127
412,note_off,291,0,0,,11,,,82,127
485,note_on,73,0,0,,11,,,82,127
566,note_off,81,0,0,,11,,,82,127
606,note_on,40,0,0,,7,,,79,127
646,note_on,40,0,0,,5,,,77,127
665,note_off,19,0,0,,7,,,79,127
681,note_on,16,0,0,,7,,,79,127
705,note_off,24,0,0,,5,,,77,127
726,note_on,21,0,0,,5,,,77,127
740,note_off,14,0,0,,7,,,79,127
907,note_off,167,0,0,,5,,,77,127
969,note_on,62,0,0,,5,,,77,127
1050,note_off,81,0,0,,5,,,77,127
1090,note_on,40,0,0,,11,,,70,127
1090,note_on,0,0,0,,3,,,75,127
1130,note_on,40,0,0,,2,,,74,127
1149,note_off,19,0,0,,3,,,75,127
1170,note_on,21,0,0,,3,,,75,127
1189,note_off,19,0,0,,2,,,74,127
1210,note_on,21,0,0,,2,,,74,127
1229,note_off,19,0,0,,3,,,75,127
1391,note_off,162,0,0,,2,,,74,127
1452,note_off,61,0,0,,11,,,70,127
1453,note_on,1,0,0,,11,,,70,127
1453,note_on,0,0,0,,2,,,74,127
1534,note_off,81,0,0,,2,,,74,127
1573,note_off,39,0,0,,11,,,70,127
1574,note_on,1,0,0,,5,,,65,127
1574,note_on,0,0,0,,2,,,74,127
1614,note_on,40,0,0,,0,,,72,127
1633,note_off,19,0,0,,2,,,74,127
1654,note_on,21,0,0,,2,,,74,127
1673,note_off,19,0,0,,0,,,72,127
1694,note_on,21,0,0,,0,,,72,127
1713,note_off,19,0,0,,2,,,74,127
1875,note_off,162,0,0,,0,,,72,127
1936,note_off,61,0,0,,5,,,65,127
1937,note_on,1,0,0,,5,,,65,127
1937,note_on,0,0,0,,0,,,72,127
2057,note_off,120,0,0,,0,,,72,127
2057,note_off,0,0,0,,5,,,65,127
2058,note_on,1,0,0,,2,,,62,127
2058,note_on,0,0,0,,11,,,70,127
2179,note_on,121,0,0,,5,,,77,127
2285,note_off,106,0,0,,11,,,70,127
2299,note_off,14,0,0,,5,,,77,127
2299,note_off,0,0,0,,2,,,62,127
2300,note_on,1,0,0,,11,,,58,127
2300,note_on,0,0,0,,2,,,74,127
2420,note_off,120,0,0,,2,,,74,127
2421,note_on,1,0,0,,11,,,70,127
2541,note_off,120,0,0,,11,,,70,127
2541,note_off,0,0,0,,11,,,58,127
2542,note_on,1,0,0,,3,,,63,127
2542,note_on,0,0,0,,7,,,79,127
2662,note_off,120,0,0,,7,,,79,127
2663,note_on,1,0,0,,3,,,75,127
2783,note_off,120,0,0,,3,,,75,127
2783,note_off,0,0,0,,3,,,63,127
2784,note_on,1,0,0,,0,,,60,127
2784,note_on,0,0,0,,0,,,84,127
2904,note_off,120,0,0,,0,,,84,127
2905,note_on,1,0,0,,10,,,81,127
3025,note_off,120,0,0,,10,,,81,127
3025,note_off,0,0,0,,0,,,60,127
3026,note_on,1,0,0,,2,,,62,127
3026,note_on,0,0,0,,11,,,82,127
3146,note_off,120,0,0,,11,,,82,127
3147,note_on,1,0,0,,5,,,77,127
3267,note_off,120,0,0,,5,,,77,127
3267,note_off,0,0,0,,2,,,62,127
3268,note_on,1,0,0,,11,,,58,127
3268,note_on,0,0,0,,2,,,74,127
3388,note_off,120,0,0,,2,,,74,127
3389,note_on,1,0,0,,11,,,70,127
3509,note_off,120,0,0,,11,,,70,127
3509,note_off,0,0,0,,11,,,58,127
3510,note_on,1,0,0,,3,,,63,127
3510,note_on,0,0,0,,7,,,79,127
3630,note_off,120,0,0,,7,,,79,127
3631,note_on,1,0,0,,3,,,75,127
3751,note_off,120,0,0,,3,,,75,127
3751,note_off,0,0,0,,3,,,63,127
3752,note_on,1,0,0,,0,,,60,127
3752,note_on,0,0,0,,0,,,84,127
3872,note_off,120,0,0,,0,,,84,127
3873,note_on,1,0,0,,10,,,81,127
3993,note_off,120,0,0,,10,,,81,127
3993,note_off,0,0,0,,0,,,60,127
3994,note_on,1,0,0,,2,,,62,127
3994,note_on,0,0,0,,11,,,82,127
4114,note_off,120,0,0,,2,,,62,127
4115,note_on,1,0,0,,5,,,65,127
4235,note_off,120,0,0,,5,,,65,127
4236,note_on,1,0,0,,2,,,62,127
4356,note_off,120,0,0,,2,,,62,127
4357,note_off,1,0,0,,11,,,82,127
4357,note_on,0,0,0,,11,,,58,127
4477,note_off,120,0,0,,11,,,58,127
4478,note_on,1,0,0,,7,,,67,127
4598,note_off,120,0,0,,7,,,67,127
4599,note_on,1,0,0,,3,,,63,127
4719,note_off,120,0,0,,3,,,63,127
4720,note_on,1,0,0,,0,,,72,127
4840,note_off,120,0,0,,0,,,72,127
4841,note_on,1,0,0,,10,,,69,127
4961,note_off,120,0,0,,10,,,69,127
4962,note_on,1,0,0,,11,,,70,127
5082,note_off,120,0,0,,11,,,70,127
5083,note_on,1,0,0,,5,,,65,127
5203,note_off,120,0,0,,5,,,65,127
5204,note_on,1,0,0,,2,,,62,127
5324,note_off,120,0,0,,2,,,62,127
5325,note_on,1,0,0,,11,,,58,127
5445,note_off,120,0,0,,11,,,58,127
5446,note_on,1,0,0,,7,,,67,127
5566,note_off,120,0,0,,7,,,67,127
5567,note_on,1,0,0,,3,,,63,127
5687,note_off,120,0,0,,3,,,63,127
5688,note_on,1,0,0,,0,,,72,127
5808,note_off,120,0,0,,0,,,72,127
5809,note_on,1,0,0,,10,,,69,127
5929,note_off,120,0,0,,10,,,69,127
5930,note_on,1,0,0,,11,,,70,127
6050,note_off,120,0,0,,11,,,70,127
6051,note_on,1,0,0,,5,,,65,127
6171,note_off,120,0,0,,5,,,65,127
6172,note_on,1,0,0,,2,,,62,127
6292,note_off,120,0,0,,2,,,62,127
6293,note_on,1,0,0,,11,,,58,127
6413,note_off,120,0,0,,11,,,58,127
6414,note_on,1,0,0,,5,,,53,127
6534,note_off,120,0,0,,5,,,53,127
6535,note_on,1,0,0,,2,,,50,127
6655,note_off,120,0,0,,2,,,50,127
6656,note_on,1,0,0,,11,,,46,127
6776,note_off,120,0,0,,11,,,46,127
6777,note_on,1,0,0,,5,,,41,127
6897,note_off,120,0,0,,5,,,41,127
6898,note_on,1,0,0,,11,,,34,127
7019,note_on,121,0,0,,2,,,74,127
7139,note_off,120,0,0,,2,,,74,127
7139,note_off,0,0,0,,11,,,34,127
7140,note_on,1,0,0,,2,,,62,127
7140,note_on,0,0,0,,11,,,58,127
7140,note_on,0,0,0,,11,,,82,127
7260,note_off,120,0,0,,11,,,82,127
7261,note_on,1,0,0,,10,,,81,127
7381,note_off,120,0,0,,10,,,81,127
7381,note_off,0,0,0,,11,,,58,127
7381,note_off,0,0,0,,2,,,62,127
7382,note_on,1,0,0,,11,,,58,127
7382,note_on,0,0,0,,2,,,62,127
7382,note_on,0,0,0,,7,,,79,127
7502,note_off,120,0,0,,7,,,79,127
7503,note_on,1,0,0,,5,,,77,127
7623,note_off,120,0,0,,5,,,77,127
7623,note_off,0,0,0,,2,,,62,127
7623,note_off,0,0,0,,11,,,58,127
7624,note_on,1,0,0,,2,,,62,127
7624,note_on,0,0,0,,11,,,58,127
7624,note_on,0,0,0,,4,,,76,127
7744,note_off,120,0,0,,4,,,76,127
7745,note_on,1,0,0,,2,,,74,127
7865,note_off,120,0,0,,2,,,74,127
7865,note_off,0,0,0,,11,,,58,127
7865,note_off,0,0,0,,2,,,62,127
7866,note_on,1,0,0,,0,,,60,127
7866,note_on,0,0,0,,10,,,57,127
7866,note_on,0,0,0,,12,,,71,127
7986,note_off,120,0,0,,12,,,71,127
7987,note_on,1,0,0,,0,,,72,127
8107,note_off,120,0,0,,0,,,72,127
8107,note_off,0,0,0,,10,,,57,127
8107,note_off,0,0,0,,0,,,60,127
8108,note_on,1,0,0,,0,,,60,127
8108,note_on,0,0,0,,10,,,57,127
8108,note_on,0,0,0,,10,,,81,127
8228,note_off,120,0,0,,10,,,81,127
8229,note_on,1,0,0,,7,,,79,127
8349,note_off,120,0,0,,7,,,79,127
8349,note_off,0,0,0,,10,,,57,127
8349,note_off,0,0,0,,0,,,60,127
8350,note_on,1,0,0,,10,,,57,127
8350,note_on,0,0,0,,0,,,60,127
8350,note_on,0,0,0,,5,,,77,127
8470,note_off,120,0,0,,5,,,77,127
8471,note_on,1,0,0,,4,,,76,127
8591,note_off,120,0,0,,4,,,76,127
8591,note_off,0,0,0,,0,,,60,127
8591,note_off,0,0,0,,10,,,57,127
8592,note_on,1,0,0,,0,,,60,127
8592,note_on,0,0,0,,10,,,57,127
8592,note_on,0,0,0,,2,,,74,127
8712,note_off,120,0,0,,2,,,74,127
8713,note_on,1,0,0,,0,,,72,127
8833,note_off,120,0,0,,0,,,72,127
8833,note_off,0,0,0,,10,,,57,127
8833,note_off,0,0,0,,0,,,60,127
8834,note_on,1,0,0,,11,,,58,127
8834,note_on,0,0,0,,7,,,55,127
8834,note_on,0,0,0,,10,,,69,127
8954,note_off,120,0,0,,10,,,69,127
8955,note_on,1,0,0,,11,,,70,127
9075,note_off,120,0,0,,11,,,70,127
9075,note_off,0,0,0,,7,,,55,127
9075,note_off,0,0,0,,11,,,58,127
9076,note_on,1,0,0,,11,,,58,127
9076,note_on,0,0,0,,7,,,55,127
9076,note_on,0,0,0,,7,,,79,127
9196,note_off,120,0,0,,7,,,79,127
9197,note_on,1,0,0,,5,,,77,127
9317,note_off,120,0,0,,5,,,77,127
9317,note_off,0,0,0,,7,,,55,127
9317,note_off,0,0,0,,11,,,58,127
9318,note_on,1,0,0,,11,,,58,127
9318,note_on,0,0,0,,7,,,55,127
9318,note_on,0,0,0,,4,,,76,127
9438,note_off,120,0,0,,4,,,76,127
9439,note_on,1,0,0,,2,,,74,127
9559,note_off,120,0,0,,2,,,74,127
9559,note_off,0,0,0,,7,,,55,127
9559,note_off,0,0,0,,11,,,58,127
9560,note_on,1,0,0,,11,,,58,127
9560,note_on,0,0,0,,7,,,55,127
9560,note_on,0,0,0,,0,,,72,127
9680,note_off,120,0,0,,0,,,72,127
9681,note_on,1,0,0,,11,,,70,127
9801,note_off,120,0,0,,11,,,70,127
9801,note_off,0,0,0,,7,,,55,127
9801,note_off,0,0,0,,11,,,58,127
9802,note_on,1,0,0,,5,,,53,127
9802,note_on,0,0,0,,10,,,69,127
9922,note_off,120,0,0,,10,,,69,127
9923,note_on,1,0,0,,0,,,72,127
10043,note_off,120,0,0,,0,,,72,127
10044,note_on,1,0,0,,3,,,63,127
10044,note_on,0,0,0,,10,,,69,127
10164,note_off,120,0,0,,10,,,69,127
10165,note_on,1,0,0,,5,,,65,127
10285,note_off,120,0,0,,5,,,65,127
10285,note_off,0,0,0,,3,,,63,127
10286,note_on,1,0,0,,2,,,62,127
10286,note_on,0,0,0,,11,,,70,127
10406,note_off,120,0,0,,11,,,70,127
10407,note_on,1,0,0,,2,,,74,127
10527,note_off,120,0,0,,2,,,74,127
10527,note_off,0,0,0,,2,,,62,127
10528,note_on,1,0,0,,11,,,58,127
10528,note_on,0,0,0,,11,,,70,127
10648,note_off,120,0,0,,11,,,70,127
10649,note_on,1,0,0,,5,,,65,127
10769,note_off,120,0,0,,5,,,65,127
10769,note_off,0,0,0,,11,,,58,127
10769,note_off,0,0,0,,5,,,53,127
10770,note_on,1,0,0,,10,,,57,127
10770,note_on,0,0,0,,5,,,53,127
10770,note_on,0,0,0,,0,,,72,127
10890,note_off,120,0,0,,0,,,72,127
10891,note_on,1,0,0,,3,,,75,127
11011,note_off,120,0,0,,3,,,75,127
11011,note_off,0,0,0,,5,,,53,127
11012,note_on,1,0,0,,5,,,53,127
11012,note_on,0,0,0,,0,,,72,127
11132,note_off,120,0,0,,0,,,72,127
11133,note_on,1,0,0,,5,,,65,127
11249,note_off,116,0,0,,10,,,57,127
11253,note_off,4,0,0,,5,,,65,127
11253,note_off,0,0,0,,5,,,53,127
11254,note_on,1,0,0,,11,,,58,127
11254,note_on,0,0,0,,2,,,74,127
11374,note_off,120,0,0,,2,,,74,127
11375,note_on,1,0,0,,5,,,77,127
11495,note_off,120,0,0,,5,,,77,127
11496,note_on,1,0,0,,11,,,46,127
11496,note_on,0,0,0,,2,,,74,127
11616,note_off,120,0,0,,2,,,74,127
11617,note_on,1,0,0,,11,,,70,127
11733,note_off,116,0,0,,11,,,58,127
11737,note_off,4,0,0,,11,,,70,127
11737,note_off,0,0,0,,11,,,46,127
11738,note_on,1,0,0,,5,,,53,127
11738,note_on,0,0,0,,0,,,72,127
11858,note_off,120,0,0,,5,,,53,127
11859,note_on,1,0,0,,0,,,60,127
11979,note_off,120,0,0,,0,,,60,127
11979,note_off,0,0,0,,0,,,72,127
11980,note_on,1,0,0,,10,,,57,127
11980,note_on,0,0,0,,0,,,72,127
12100,note_off,120,0,0,,10,,,57,127
12101,note_on,1,0,0,,5,,,53,127
12221,note_off,120,0,0,,5,,,53,127
12221,note_off,0,0,0,,0,,,72,127
12222,note_on,1,0,0,,11,,,58,127
12222,note_on,0,0,0,,2,,,74,127
12342,note_off,120,0,0,,11,,,58,127
12343,note_on,1,0,0,,2,,,62,127
12463,note_off,120,0,0,,2,,,62,127
12463,note_off,0,0,0,,2,,,74,127
12464,note_on,1,0,0,,11,,,58,127
12464,note_on,0,0,0,,11,,,70,127
12584,note_off,120,0,0,,11,,,58,127
12585,note_on,1,0,0,,5,,,53,127
12705,note_off,120,0,0,,5,,,53,127
12705,note_off,0,0,0,,11,,,70,127
12706,note_on,1,0,0,,0,,,60,127
12706,note_on,0,0,0,,3,,,75,127
12826,note_off,120,0,0,,0,,,60,127
12827,note_on,1,0,0,,3,,,63,127
12947,note_off,120,0,0,,3,,,63,127
12947,note_off,0,0,0,,3,,,75,127
12948,note_on,1,0,0,,0,,,60,127
12948,note_on,0,0,0,,0,,,72,127
13068,note_off,120,0,0,,0,,,60,127
13069,note_on,1,0,0,,5,,,53,127
13189,note_off,120,0,0,,5,,,53,127
13189,note_off,0,0,0,,0,,,72,127
13190,note_on,1,0,0,,2,,,62,127
13190,note_on,0,0,0,,5,,,77,127
13310,note_off,120,0,0,,2,,,62,127
13311,note_on,1,0,0,,5,,,65,127
13431,note_off,120,0,0,,5,,,65,127
13431,note_off,0,0,0,,5,,,77,127
13432,note_on,1,0,0,,2,,,62,127
13432,note_on,0,0,0,,2,,,74,127
13552,note_off,120,0,0,,2,,,62,127
13553,note_on,1,0,0,,11,,,58,127
13673,note_off,120,0,0,,11,,,58,127
13673,note_off,0,0,0,,2,,,74,127
13674,note_on,1,0,0,,5,,,53,127
13674,note_on,0,0,0,,0,,,72,127
13794,note_off,120,0,0,,5,,,53,127
13795,note_on,1,0,0,,5,,,65,127
13915,note_off,120,0,0,,5,,,65,127
13916,note_on,1,0,0,,3,,,63,127
14036,note_off,120,0,0,,3,,,63,127
14037,note_on,1,0,0,,2,,,62,127
14153,note_off,116,0,0,,0,,,72,127
14157,note_off,4,0,0,,2,,,62,127
14158,note_on,1,0,0,,0,,,60,127
14278,note_off,120,0,0,,0,,,60,127
14279,note_on,1,0,0,,11,,,58,127
14399,note_off,120,0,0,,11,,,58,127
14400,note_on,1,0,0,,10,,,57,127
14520,note_off,120,0,0,,10,,,57,127
14521,note_on,1,0,0,,7,,,55,127
14641,note_off,120,0,0,,7,,,55,127
14642,note_on,1,0,0,,5,,,53,127
14762,note_off,120,0,0,,5,,,53,127
14763,note_on,1,0,0,,3,,,51,127
14883,note_off,120,0,0,,3,,,51,127
14884,note_on,1,0,0,,2,,,50,127
14884,note_on,0,0,0,,0,,,72,127
15004,note_off,120,0,0,,2,,,50,127
15005,note_on,1,0,0,,0,,,48,127
15125,note_off,120,0,0,,0,,,48,127
15125,note_off,0,0,0,,0,,,72,127
15126,note_on,1,0,0,,11,,,46,127
15126,note_on,0,0,0,,2,,,74,127
15246,note_off,120,0,0,,2,,,74,127
15247,note_on,1,0,0,,11,,,70,127
15367,note_off,120,0,0,,11,,,70,127
15367,note_off,0,0,0,,11,,,46,127
15368,note_on,1,0,0,,5,,,41,127
15368,note_on,0,0,0,,3,,,75,127
15488,note_off,120,0,0,,3,,,75,127
15489,note_on,1,0,0,,0,,,72,127
15609,note_off,120,0,0,,0,,,72,127
15609,note_off,0,0,0,,5,,,41,127
15610,note_on,1,0,0,,11,,,46,127
15610,note_on,0,0,0,,3,,,75,127
15669,note_off,59,0,0,,3,,,75,127
15670,note_on,1,0,0,,2,,,74,127
15729,note_off,59,0,0,,2,,,74,127
15729,note_off,0,0,0,,11,,,46,127
15730,note_on,1,0,0,,5,,,65,127
15730,note_on,0,0,0,,3,,,75,127
15789,note_off,59,0,0,,3,,,75,127
15790,note_on,1,0,0,,2,,,74,127
15849,note_off,59,0,0,,2,,,74,127
15849,note_off,0,0,0,,5,,,65,127
15850,note_on,1,0,0,,3,,,63,127
15850,note_on,0,0,0,,0,,,72,127
15970,note_off,120,0,0,,3,,,63,127
15971,note_on,1,0,0,,2,,,62,127
16090,note_off,119,0,0,,0,,,72,127
16091,note_off,1,0,0,,2,,,62,127
16092,note_on,1,0,0,,0,,,60,127
16212,note_off,120,0,0,,0,,,60,127
16213,note_on,1,0,0,,11,,,58,127
16333,note_off,120,0,0,,11,,,58,127
16334,note_on,1,0,0,,10,,,57,127
16454,note_off,120,0,0,,10,,,57,127
16455,note_on,1,0,0,,7,,,55,127
16575,note_off,120,0,0,,7,,,55,127
16576,note_on,1,0,0,,5,,,53,127
16696,note_off,120,0,0,,5,,,53,127
16697,note_on,1,0,0,,3,,,51,127
16817,note_off,120,0,0,,3,,,51,127
16818,note_on,1,0,0,,2,,,50,127
16818,note_on,0,0,0,,0,,,72,127
16938,note_off,120,0,0,,2,,,50,127
16939,note_on,1,0,0,,0,,,48,127
17059,note_off,120,0,0,,0,,,48,127
17059,note_off,0,0,0,,0,,,72,127
17060,note_on,1,0,0,,11,,,46,127
17060,note_on,0,0,0,,2,,,74,127
17180,note_off,120,0,0,,2,,,74,127
17181,note_on,1,0,0,,11,,,70,127
17301,note_off,120,0,0,,11,,,70,127
17301,note_off,0,0,0,,11,,,46,127
17302,note_on,1,0,0,,5,,,41,127
17302,note_on,0,0,0,,3,,,75,127
17422,note_off,120,0,0,,3,,,75,127
17423,note_on,1,0,0,,0,,,72,127
17543,note_off,120,0,0,,0,,,72,127
17543,note_off,0,0,0,,5,,,41,127
17544,note_on,1,0,0,,11,,,46,127
17544,note_on,0,0,0,,3,,,75,127
17603,note_off,59,0,0,,3,,,75,127
17604,note_on,1,0,0,,2,,,74,127
17663,note_off,59,0,0,,2,,,74,127
17664,note_on,1,0,0,,3,,,75,127
17723,note_off,59,0,0,,3,,,75,127
17724,note_on,1,0,0,,2,,,74,127
17783,note_off,59,0,0,,11,,,46,127
17784,note_on,1,0,0,,11,,,58,127
17784,note_on,0,0,0,,5,,,65,127
18025,note_off,241,0,0,,5,,,65,127
18025,note_off,0,0,0,,11,,,58,127
18026,note_on,1,0,0,,5,,,65,127
18026,note_on,0,0,0,,11,,,58,127
18203,note_off,177,0,0,,2,,,74,127
18267,note_off,64,0,0,,11,,,58,127
18267,note_off,0,0,0,,5,,,65,127
18268,note_on,1,0,0,,5,,,65,127
18268,note_on,0,0,0,,11,,,58,127
18268,note_on,0,0,0,,2,,,74,127
18509,note_off,241,0,0,,2,,,74,127
18509,note_off,0,0,0,,11,,,58,127
18509,note_off,0,0,0,,5,,,65,127
18510,note_on,1,0,0,,5,,,65,127
18510,note_on,0,0,0,,11,,,58,127
18510,note_on,0,0,0,,8,,,68,127
18510,note_on,0,0,0,,5,,,77,127
18569,note_off,59,0,0,,5,,,77,127
18570,note_on,1,0,0,,2,,,74,127
18751,note_off,181,0,0,,8,,,68,127
18751,note_off,0,0,0,,11,,,58,127
18751,note_off,0,0,0,,5,,,65,127
18752,note_on,1,0,0,,5,,,65,127
18752,note_on,0,0,0,,11,,,58,127
18752,note_on,0,0,0,,8,,,68,127
18993,note_off,241,0,0,,8,,,68,127
18993,note_off,0,0,0,,11,,,58,127
18993,note_off,0,0,0,,5,,,65,127
18993,note_off,0,0,0,,2,,,74,127
18994,note_on,1,0,0,,8,,,68,127
18994,note_on,0,0,0,,5,,,65,127
18994,note_on,0,0,0,,11,,,58,127
18994,note_on,0,0,0,,5,,,77,127
19053,note_off,59,0,0,,5,,,77,127
19054,note_on,1,0,0,,2,,,74,127
19235,note_off,181,0,0,,11,,,58,127
19235,note_off,0,0,0,,5,,,65,127
19235,note_off,0,0,0,,8,,,68,127
19236,note_on,1,0,0,,8,,,68,127
19236,note_on,0,0,0,,5,,,65,127
19236,note_on,0,0,0,,11,,,58,127
19477,note_off,241,0,0,,11,,,58,127
19477,note_off,0,0,0,,5,,,65,127
19477,note_off,0,0,0,,8,,,68,127
19477,note_off,0,0,0,,2,,,74,127
19478,note_on,1,0,0,,5,,,65,127
19478,note_on,0,0,0,,11,,,58,127
19478,note_on,0,0,0,,8,,,68,127
19478,note_on,0,0,0,,5,,,77,127
19537,note_off,59,0,0,,5,,,77,127
19538,note_on,1,0,0,,2,,,74,127
19719,note_off,181,0,0,,8,,,68,127
19719,note_off,0,0,0,,11,,,58,127
19719,note_off,0,0,0,,5,,,65,127
19720,note_on,1,0,0,,8,,,68,127
19720,note_on,0,0,0,,11,,,58,127
19720,note_on,0,0,0,,5,,,65,127
19961,note_off,241,0,0,,5,,,65,127
19961,note_off,0,0,0,,11,,,58,127
19961,note_off,0,0,0,,8,,,68,127
19961,note_off,0,0,0,,2,,,74,127
19962,note_on,1,0,0,,8,,,68,127
19962,note_on,0,0,0,,5,,,65,127
19962,note_on,0,0,0,,11,,,58,127
19962,note_on,0,0,0,,11,,,82,127
20203,note_off,241,0,0,,11,,,58,127
20203,note_off,0,0,0,,5,,,65,127
20203,note_off,0,0,0,,8,,,68,127
20204,note_on,1,0,0,,8,,,68,127
20204,note_on,0,0,0,,5,,,65,127
20204,note_on,0,0,0,,11,,,58,127
20445,note_off,241,0,0,,11,,,58,127
20445,note_off,0,0,0,,5,,,65,127
20445,note_off,0,0,0,,8,,,68,127
20446,note_on,1,0,0,,11,,,58,127
20446,note_on,0,0,0,,6,,,66,127
20446,note_on,0,0,0,,3,,,63,127
20687,note_off,241,0,0,,3,,,63,127
20687,note_off,0,0,0,,6,,,66,127
20687,note_off,0,0,0,,11,,,58,127
20687,note_off,0,0,0,,11,,,82,127
20688,note_on,1,0,0,,11,,,58,127
20688,note_on,0,0,0,,6,,,66,127
20688,note_on,0,0,0,,3,,,63,127
20688,note_on,0,0,0,,6,,,78,127
20929,note_off,241,0,0,,6,,,78,127
20929,note_off,0,0,0,,3,,,63,127
20929,note_off,0,0,0,,6,,,66,127
20929,note_off,0,0,0,,11,,,58,127
20930,note_on,1,0,0,,11,,,58,127
20930,note_on,0,0,0,,6,,,66,127
20930,note_on,0,0,0,,3,,,63,127
20930,note_on,0,0,0,,3,,,75,127
21171,note_off,241,0,0,,3,,,75,127
21171,note_off,0,0,0,,3,,,63,127
21171,note_off,0,0,0,,6,,,66,127
21171,note_off,0,0,0,,11,,,58,127
21172,note_on,1,0,0,,3,,,63,127
21172,note_on,0,0,0,,11,,,58,127
21172,note_on,0,0,0,,6,,,66,127
21172,note_on,0,0,0,,11,,,70,127
21413,note_off,241,0,0,,11,,,70,127
21413,note_off,0,0,0,,6,,,66,127
21413,note_off,0,0,0,,11,,,58,127
21413,note_off,0,0,0,,3,,,63,127
21414,note_on,1,0,0,,3,,,63,127
21414,note_on,0,0,0,,11,,,58,127
21414,note_on,0,0,0,,6,,,66,127
21414,note_on,0,0,0,,5,,,77,127
21473,note_off,59,0,0,,5,,,77,127
21474,note_on,1,0,0,,3,,,75,127
21533,note_off,59,0,0,,3,,,75,127
21534,note_on,1,0,0,,5,,,77,127
21593,note_off,59,0,0,,5,,,77,127
21594,note_on,1,0,0,,3,,,75,127
21653,note_off,59,0,0,,3,,,75,127
21653,note_off,0,0,0,,6,,,66,127
21653,note_off,0,0,0,,11,,,58,127
21653,note_off,0,0,0,,3,,,63,127
21654,note_on,1,0,0,,6,,,66,127
21654,note_on,0,0,0,,3,,,63,127
21654,note_on,0,0,0,,11,,,58,127
21654,note_on,0,0,0,,5,,,77,127
21713,note_off,59,0,0,,5,,,77,127
21714,note_on,1,0,0,,3,,,75,127
21773,note_off,59,0,0,,3,,,75,127
21774,note_on,1,0,0,,2,,,74,127
21833,note_off,59,0,0,,2,,,74,127
21834,note_on,1,0,0,,3,,,75,127
21893,note_off,59,0,0,,3,,,75,127
21893,note_off,0,0,0,,11,,,58,127
21893,note_off,0,0,0,,3,,,63,127
21893,note_off,0,0,0,,6,,,66,127
21894,note_on,1,0,0,,3,,,63,127
21894,note_on,0,0,0,,11,,,58,127
21894,note_on,0,0,0,,6,,,66,127
21894,note_on,0,0,0,,0,,,84,127
22135,note_off,241,0,0,,6,,,66,127
22135,note_off,0,0,0,,11,,,58,127
22135,note_off,0,0,0,,3,,,63,127
22136,note_on,1,0,0,,6,,,66,127
22136,note_on,0,0,0,,3,,,63,127
22136,note_on,0,0,0,,11,,,58,127
22377,note_off,241,0,0,,11,,,58,127
22377,note_off,0,0,0,,3,,,63,127
22377,note_off,0,0,0,,6,,,66,127
22378,note_on,1,0,0,,5,,,65,127
22378,note_on,0,0,0,,3,,,63,127
22378,note_on,0,0,0,,10,,,57,127
22619,note_off,241,0,0,,10,,,57,127
22619,note_off,0,0,0,,3,,,63,127
22619,note_off,0,0,0,,5,,,65,127
22619,note_off,0,0,0,,0,,,84,127
22620,note_on,1,0,0,,3,,,63,127
22620,note_on,0,0,0,,10,,,57,127
22620,note_on,0,0,0,,5,,,65,127
22620,note_on,0,0,0,,10,,,81,127
22861,note_off,241,0,0,,10,,,81,127
22861,note_off,0,0,0,,5,,,65,127
22861,note_off,0,0,0,,10,,,57,127
22861,note_off,0,0,0,,3,,,63,127
22862,note_on,1,0,0,,5,,,65,127
22862,note_on,0,0,0,,3,,,63,127
22862,note_on,0,0,0,,10,,,57,127
22862,note_on,0,0,0,,3,,,75,127
23103,note_off,241,0,0,,3,,,75,127
23103,note_off,0,0,0,,10,,,57,127
23103,note_off,0,0,0,,3,,,63,127
23103,note_off,0,0,0,,5,,,65,127
23104,note_on,1,0,0,,3,,,63,127
23104,note_on,0,0,0,,10,,,57,127
23104,note_on,0,0,0,,5,,,65,127
23104,note_on,0,0,0,,0,,,72,127
23306,note_off,202,0,0,,0,,,72,127
23345,note_off,39,0,0,,5,,,65,127
23345,note_off,0,0,0,,10,,,57,127
23345,note_off,0,0,0,,3,,,63,127
23346,note_on,1,0,0,,3,,,63,127
23346,note_on,0,0,0,,8,,,56,127
23346,note_on,0,0,0,,5,,,65,127
23346,note_on,0,0,0,,3,,,75,127
23405,note_off,59,0,0,,3,,,75,127
23406,note_on,1,0,0,,2,,,74,127
23465,note_off,59,0,0,,2,,,74,127
23466,note_on,1,0,0,,3,,,75,127
23525,note_off,59,0,0,,3,,,75,127
23526,note_on,1,0,0,,2,,,74,127
23585,note_off,59,0,0,,2,,,74,127
23585,note_off,0,0,0,,5,,,65,127
23585,note_off,0,0,0,,8,,,56,127
23585,note_off,0,0,0,,3,,,63,127
23586,note_on,1,0,0,,8,,,56,127
23586,note_on,0,0,0,,5,,,65,127
23586,note_on,0,0,0,,3,,,63,127
23586,note_on,0,0,0,,3,,,75,127
23645,note_off,59,0,0,,3,,,75,127
23646,note_on,1,0,0,,2,,,74,127
23705,note_off,59,0,0,,2,,,74,127
23706,note_on,1,0,0,,0,,,72,127
23765,note_off,59,0,0,,0,,,72,127
23766,note_on,1,0,0,,2,,,74,127
23825,note_off,59,0,0,,2,,,74,127
23825,note_off,0,0,0,,3,,,63,127
23825,note_off,0,0,0,,5,,,65,127
23825,note_off,0,0,0,,8,,,56,127
23826,note_on,1,0,0,,8,,,56,127
23826,note_on,0,0,0,,2,,,62,127
23826,note_on,0,0,0,,5,,,65,127
23826,note_on,0,0,0,,5,,,77,127
24067,note_off,241,0,0,,5,,,65,127
24067,note_off,0,0,0,,2,,,62,127
24067,note_off,0,0,0,,8,,,56,127
24068,note_on,1,0,0,,8,,,56,127
24068,note_on,0,0,0,,5,,,65,127
24068,note_on,0,0,0,,2,,,62,127
24309,note_off,241,0,0,,2,,,62,127
24309,note_off,0,0,0,,5,,,65,127
24309,note_off,0,0,0,,8,,,56,127
24310,note_on,1,0,0,,8,,,56,127
24310,note_on,0,0,0,,5,,,65,127
24310,note_on,0,0,0,,2,,,62,127
24551,note_off,241,0,0,,2,,,62,127
24551,note_off,0,0,0,,5,,,65,127
24551,note_off,0,0,0,,8,,,56,127
24551,note_off,0,0,0,,5,,,77,127
24552,note_on,1,0,0,,8,,,56,127
24552,note_on,0,0,0,,2,,,62,127
24552,note_on,0,0,0,,5,,,65,127
24552,note_on,0,0,0,,2,,,74,127
24793,note_off,241,0,0,,2,,,74,127
24793,note_off,0,0,0,,5,,,65,127
24793,note_off,0,0,0,,2,,,62,127
24793,note_off,0,0,0,,8,,,56,127
24794,note_on,1,0,0,,8,,,56,127
24794,note_on,0,0,0,,2,,,62,127
24794,note_on,0,0,0,,5,,,65,127
24794,note_on,0,0,0,,5,,,77,127
24853,note_off,59,0,0,,5,,,77,127
24854,note_on,1,0,0,,2,,,74,127
25035,note_off,181,0,0,,5,,,65,127
25035,note_off,0,0,0,,2,,,62,127
25035,note_off,0,0,0,,8,,,56,127
25036,note_on,1,0,0,,8,,,56,127
25036,note_on,0,0,0,,5,,,65,127
25036,note_on,0,0,0,,2,,,62,127
25277,note_off,241,0,0,,2,,,62,127
25277,note_off,0,0,0,,5,,,65,127
25277,note_off,0,0,0,,8,,,56,127
25277,note_off,0,0,0,,2,,,74,127
25278,note_on,1,0,0,,8,,,56,127
25278,note_on,0,0,0,,5,,,65,127
25278,note_on,0,0,0,,2,,,62,127
25278,note_on,0,0,0,,5,,,77,127
25337,note_off,59,0,0,,5,,,77,127
25338,note_on,1,0,0,,2,,,74,127
25519,note_off,181,0,0,,2,,,62,127
25519,note_off,0,0,0,,5,,,65,127
25519,note_off,0,0,0,,8,,,56,127
25520,note_on,1,0,0,,8,,,56,127
25520,note_on,0,0,0,,5,,,65,127
25520,note_on,0,0,0,,2,,,62,127
25761,note_off,241,0,0,,2,,,62,127
25761,note_off,0,0,0,,5,,,65,127
25761,note_off,0,0,0,,8,,,56,127
25761,note_off,0,0,0,,2,,,74,127
25762,note_on,1,0,0,,2,,,62,127
25762,note_on,0,0,0,,8,,,56,127
25762,note_on,0,0,0,,5,,,65,127
25762,note_on,0,0,0,,5,,,77,127
25821,note_off,59,0,0,,5,,,77,127
25822,note_on,1,0,0,,2,,,74,127
26003,note_off,181,0,0,,5,,,65,127
26003,note_off,0,0,0,,8,,,56,127
26003,note_off,0,0,0,,2,,,62,127
26004,note_on,1,0,0,,2,,,62,127
26004,note_on,0,0,0,,8,,,56,127
26004,note_on,0,0,0,,5,,,65,127
26245,note_off,241,0,0,,5,,,65,127
26245,note_off,0,0,0,,8,,,56,127
26245,note_off,0,0,0,,2,,,62,127
26245,note_off,0,0,0,,2,,,74,127
26246,note_on,1,0,0,,2,,,62,127
26246,note_on,0,0,0,,10,,,57,127
26246,note_on,0,0,0,,5,,,65,127
26246,note_on,0,0,0,,5,,,77,127
26305,note_off,59,0,0,,5,,,77,127
26306,note_on,1,0,0,,2,,,74,127
26487,note_off,181,0,0,,2,,,74,127
26487,note_off,0,0,0,,5,,,65,127
26487,note_off,0,0,0,,10,,,57,127
26487,note_off,0,0,0,,2,,,62,127
26488,note_on,1,0,0,,5,,,65,127
26488,note_on,0,0,0,,2,,,62,127
26488,note_on,0,0,0,,10,,,57,127
26488,note_on,0,0,0,,10,,,81,127
26729,note_off,241,0,0,,10,,,57,127
26729,note_off,0,0,0,,2,,,62,127
26729,note_off,0,0,0,,5,,,65,127
26730,note_on,1,0,0,,5,,,65,127
26730,note_on,0,0,0,,2,,,62,127
26730,note_on,0,0,0,,10,,,57,127
26971,note_off,241,0,0,,10,,,57,127
26971,note_off,0,0,0,,2,,,62,127
26971,note_off,0,0,0,,5,,,65,127
26972,note_on,1,0,0,,2,,,62,127
26972,note_on,0,0,0,,10,,,57,127
26972,note_on,0,0,0,,5,,,65,127
27213,note_off,241,0,0,,5,,,65,127
27213,note_off,0,0,0,,10,,,57,127
27213,note_off,0,0,0,,2,,,62,127
27214,note_on,1,0,0,,2,,,62,127
27214,note_on,0,0,0,,4,,,64,127
27214,note_on,0,0,0,,7,,,55,127
27455,note_off,241,0,0,,7,,,55,127
27455,note_off,0,0,0,,4,,,64,127
27455,note_off,0,0,0,,2,,,62,127
27455,note_off,0,0,0,,10,,,81,127
27456,note_on,1,0,0,,2,,,62,127
27456,note_on,0,0,0,,7,,,55,127
27456,note_on,0,0,0,,4,,,64,127
27456,note_on,0,0,0,,7,,,79,127
27576,note_off,120,0,0,,7,,,79,127
27577,note_on,1,0,0,,5,,,77,127
27697,note_off,120,0,0,,5,,,77,127
27697,note_off,0,0,0,,4,,,64,127
27697,note_off,0,0,0,,7,,,55,127
27697,note_off,0,0,0,,2,,,62,127
27698,note_on,1,0,0,,7,,,55,127
27698,note_on,0,0,0,,2,,,62,127
27698,note_on,0,0,0,,4,,,64,127
27698,note_on,0,0,0,,4,,,76,127
27818,note_off,120,0,0,,4,,,76,127
27819,note_on,1,0,0,,2,,,74,127
27939,note_off,120,0,0,,2,,,74,127
27939,note_off,0,0,0,,4,,,64,127
27939,note_off,0,0,0,,2,,,62,127
27939,note_off,0,0,0,,7,,,55,127
27940,note_on,1,0,0,,7,,,55,127
27940,note_on,0,0,0,,2,,,62,127
27940,note_on,0,0,0,,4,,,64,127
27940,note_on,0,0,0,,1,,,73,127
28060,note_off,120,0,0,,1,,,73,127
28061,note_on,1,0,0,,4,,,76,127
28181,note_off,120,0,0,,4,,,76,127
28181,note_off,0,0,0,,4,,,64,127
28181,note_off,0,0,0,,2,,,62,127
28181,note_off,0,0,0,,7,,,55,127
28182,note_on,1,0,0,,10,,,57,127
28182,note_on,0,0,0,,2,,,62,127
28182,note_on,0,0,0,,5,,,53,127
28182,note_on,0,0,0,,2,,,74,127
28302,note_off,120,0,0,,2,,,74,127
28303,note_on,1,0,0,,10,,,81,127
28423,note_off,120,0,0,,10,,,81,127
28423,note_off,0,0,0,,5,,,53,127
28423,note_off,0,0,0,,2,,,62,127
28423,note_off,0,0,0,,10,,,57,127
28424,note_on,1,0,0,,5,,,53,127
28424,note_on,0,0,0,,10,,,57,127
28424,note_on,0,0,0,,2,,,62,127
28424,note_on,0,0,0,,7,,,79,127
28544,note_off,120,0,0,,7,,,79,127
28545,note_on,1,0,0,,5,,,77,127
28665,note_off,120,0,0,,5,,,77,127
28665,note_off,0,0,0,,2,,,62,127
28665,note_off,0,0,0,,10,,,57,127
28665,note_off,0,0,0,,5,,,53,127
28666,note_on,1,0,0,,7,,,55,127
28666,note_on,0,0,0,,2,,,62,127
28666,note_on,0,0,0,,4,,,76,127
28786,note_off,120,0,0,,4,,,76,127
28787,note_on,1,0,0,,2,,,74,127
28907,note_off,120,0,0,,2,,,74,127
28907,note_off,0,0,0,,7,,,55,127
28908,note_on,1,0,0,,11,,,58,127
28908,note_on,0,0,0,,1,,,73,127
29028,note_off,120,0,0,,1,,,73,127
29029,note_on,1,0,0,,2,,,74,127
29145,note_off,116,0,0,,2,,,62,127
29149,note_off,4,0,0,,2,,,74,127
29149,note_off,0,0,0,,11,,,58,127
29150,note_on,1,0,0,,10,,,57,127
29150,note_on,0,0,0,,2,,,74,127
29270,note_off,120,0,0,,10,,,57,127
29271,note_on,1,0,0,,1,,,61,127
29391,note_off,120,0,0,,1,,,61,127
29391,note_off,0,0,0,,2,,,74,127
29392,note_on,1,0,0,,4,,,64,127
29392,note_on,0,0,0,,4,,,76,127
29512,note_off,120,0,0,,4,,,64,127
29513,note_on,1,0,0,,10,,,69,127
29633,note_off,120,0,0,,10,,,69,127
29634,note_on,1,0,0,,11,,,58,127
29754,note_off,120,0,0,,11,,,58,127
29755,note_on,1,0,0,,2,,,62,127
29871,note_off,116,0,0,,4,,,76,127
29875,note_off,4,0,0,,2,,,62,127
29876,note_on,1,0,0,,7,,,67,127
29996,note_off,120,0,0,,7,,,67,127
29997,note_on,1,0,0,,11,,,70,127
29997,note_on,0,0,0,,2,,,74,127
30117,note_off,120,0,0,,2,,,74,127
30117,note_off,0,0,0,,11,,,70,127
30118,note_on,1,0,0,,10,,,57,127
30118,note_on,0,0,0,,2,,,74,127
30238,note_off,120,0,0,,10,,,57,127
30239,note_on,1,0,0,,1,,,61,127
30359,note_off,120,0,0,,1,,,61,127
30359,note_off,0,0,0,,2,,,74,127
30360,note_on,1,0,0,,4,,,64,127
30360,note_on,0,0,0,,4,,,76,127
30480,note_off,120,0,0,,4,,,64,127
30481,note_on,1,0,0,,10,,,69,127
30601,note_off,120,0,0,,10,,,69,127
30602,note_on,1,0,0,,11,,,58,127
30722,note_off,120,0,0,,11,,,58,127
30723,note_on,1,0,0,,2,,,62,127
30839,note_off,116,0,0,,4,,,76,127
30843,note_off,4,0,0,,2,,,62,127
30844,note_on,1,0,0,,7,,,67,127
30964,note_off,120,0,0,,7,,,67,127
30965,note_on,1,0,0,,11,,,70,127
30965,note_on,0,0,0,,2,,,74,127
31085,note_off,120,0,0,,2,,,74,127
31085,note_off,0,0,0,,11,,,70,127
31086,note_on,1,0,0,,1,,,37,127
31086,note_on,0,0,0,,4,,,76,127
31206,note_off,120,0,0,,4,,,76,127
31207,note_on,1,0,0,,10,,,69,127
31327,note_off,120,0,0,,10,,,69,127
31328,note_on,1,0,0,,7,,,79,127
31448,note_off,120,0,0,,7,,,79,127
31449,note_on,1,0,0,,4,,,76,127
31569,note_off,120,0,0,,4,,,76,127
31569,note_off,0,0,0,,1,,,37,127
31570,note_on,1,0,0,,2,,,38,127
31570,note_on,0,0,0,,5,,,77,127
31690,note_off,120,0,0,,5,,,77,127
31691,note_on,1,0,0,,2,,,74,127
31811,note_off,120,0,0,,2,,,74,127
31812,note_on,1,0,0,,2,,,86,127
31932,note_off,120,0,0,,2,,,86,127
31933,note_on,1,0,0,,10,,,81,127
32053,note_off,120,0,0,,10,,,81,127
32053,note_off,0,0,0,,2,,,38,127
32054,note_on,1,0,0,,7,,,43,127
32054,note_on,0,0,0,,11,,,82,127
32174,note_off,120,0,0,,11,,,82,127
32175,note_on,1,0,0,,5,,,77,127
32295,note_off,120,0,0,,5,,,77,127
32296,note_on,1,0,0,,7,,,79,127
32416,note_off,120,0,0,,7,,,79,127
32417,note_on,1,0,0,,4,,,76,127
32537,note_off,120,0,0,,4,,,76,127
32537,note_off,0,0,0,,7,,,43,127
32538,note_on,1,0,0,,11,,,46,127
32538,note_on,0,0,0,,5,,,77,127
32658,note_off,120,0,0,,5,,,77,127
32659,note_on,1,0,0,,2,,,74,127
32779,note_off,120,0,0,,2,,,74,127
32780,note_on,1,0,0,,1,,,73,127
32900,note_off,120,0,0,,1,,,73,127
32901,note_on,1,0,0,,2,,,74,127
32954,note_off,53,0,0,,11,,,46,127
33021,note_off,67,0,0,,2,,,74,127
33022,note_on,1,0,0,,10,,,57,127
33022,note_on,0,0,0,,2,,,74,127
33142,note_off,120,0,0,,10,,,57,127
33143,note_on,1,0,0,,1,,,61,127
33263,note_off,120,0,0,,1,,,61,127
33263,note_off,0,0,0,,2,,,74,127
33264,note_on,1,0,0,,4,,,64,127
33264,note_on,0,0,0,,4,,,76,127
33384,note_off,120,0,0,,4,,,64,127
33385,note_on,1,0,0,,10,,,69,127
33505,note_off,120,0,0,,10,,,69,127
33506,note_on,1,0,0,,11,,,58,127
33626,note_off,120,0,0,,11,,,58,127
33627,note_off,1,0,0,,4,,,76,127
33627,note_on,0,0,0,,2,,,62,127
33747,note_off,120,0,0,,2,,,62,127
33748,note_on,1,0,0,,7,,,67,127
33868,note_off,120,0,0,,7,,,67,127
33869,note_on,1,0,0,,11,,,70,127
33869,note_on,0,0,0,,2,,,74,127
33989,note_off,120,0,0,,2,,,74,127
33989,note_off,0,0,0,,11,,,70,127
33990,note_on,1,0,0,,10,,,57,127
33990,note_on,0,0,0,,2,,,74,127
34110,note_off,120,0,0,,10,,,57,127
34111,note_on,1,0,0,,1,,,61,127
34231,note_off,120,0,0,,1,,,61,127
34231,note_off,0,0,0,,2,,,74,127
34232,note_on,1,0,0,,4,,,64,127
34232,note_on,0,0,0,,4,,,76,127
34352,note_off,120,0,0,,4,,,64,127
34353,note_on,1,0,0,,10,,,69,127
34473,note_off,120,0,0,,10,,,69,127
34474,note_on,1,0,0,,11,,,58,127
34594,note_off,120,0,0,,11,,,58,127
34595,note_off,1,0,0,,4,,,76,127
34595,note_on,0,0,0,,2,,,62,127
34715,note_off,120,0,0,,2,,,62,127
34716,note_on,1,0,0,,7,,,67,127
34836,note_off,120,0,0,,7,,,67,127
34837,note_on,1,0,0,,11,,,70,127
34837,note_on,0,0,0,,2,,,74,127
34957,note_off,120,0,0,,2,,,74,127
34957,note_off,0,0,0,,11,,,70,127
34958,note_on,1,0,0,,1,,,37,127
34958,note_on,0,0,0,,4,,,76,127
35078,note_off,120,0,0,,4,,,76,127
35079,note_on,1,0,0,,10,,,69,127
35199,note_off,120,0,0,,10,,,69,127
35199,note_off,0,0,0,,1,,,37,127
35200,note_on,1,0,0,,10,,,45,127
35200,note_on,0,0,0,,7,,,79,127
35320,note_off,120,0,0,,7,,,79,127
35321,note_on,1,0,0,,4,,,76,127
35441,note_off,120,0,0,,4,,,76,127
35441,note_off,0,0,0,,10,,,45,127
35442,note_on,1,0,0,,2,,,38,127
35442,note_on,0,0,0,,5,,,77,127
35562,note_off,120,0,0,,5,,,77,127
35563,note_on,1,0,0,,2,,,74,127
35683,note_off,120,0,0,,2,,,74,127
35683,note_off,0,0,0,,2,,,38,127
35684,note_on,1,0,0,,5,,,41,127
35684,note_on,0,0,0,,2,,,86,127
35804,note_off,120,0,0,,2,,,86,127
35805,note_on,1,0,0,,10,,,81,127
35925,note_off,120,0,0,,10,,,81,127
35925,note_off,0,0,0,,5,,,41,127
35926,note_on,1,0,0,,7,,,43,127
35926,note_on,0,0,0,,11,,,82,127
36046,note_off,120,0,0,,11,,,82,127
36047,note_on,1,0,0,,5,,,77,127
36167,note_off,120,0,0,,5,,,77,127
36167,note_off,0,0,0,,7,,,43,127
36168,note_on,1,0,0,,11,,,46,127
36168,note_on,0,0,0,,7,,,79,127
36288,note_off,120,0,0,,7,,,79,127
36289,note_on,1,0,0,,4,,,76,127
36409,note_off,120,0,0,,4,,,76,127
36409,note_off,0,0,0,,11,,,46,127
36410,note_on,1,0,0,,10,,,45,127
36410,note_on,0,0,0,,5,,,77,127
36530,note_off,120,0,0,,5,,,77,127
36531,note_on,1,0,0,,2,,,74,127
36651,note_off,120,0,0,,2,,,74,127
36651,note_off,0,0,0,,10,,,45,127
36652,note_on,1,0,0,,10,,,33,127
36652,note_on,0,0,0,,4,,,76,127
36772,note_off,120,0,0,,4,,,76,127
36773,note_on,1,0,0,,1,,,73,127
36893,note_off,120,0,0,,1,,,73,127
36893,note_off,0,0,0,,10,,,33,127
36894,note_on,1,0,0,,2,,,38,127
36894,note_on,0,0,0,,2,,,74,127
37014,note_off,120,0,0,,2,,,74,127
37015,note_on,1,0,0,,2,,,86,127
37135,note_off,120,0,0,,2,,,86,127
37135,note_off,0,0,0,,2,,,38,127
37136,note_on,1,0,0,,7,,,43,127
37136,note_on,0,0,0,,11,,,82,127
37256,note_off,120,0,0,,11,,,82,127
37257,note_on,1,0,0,,7,,,79,127
37377,note_off,120,0,0,,7,,,79,127
37377,note_off,0,0,0,,7,,,43,127
37378,note_on,1,0,0,,10,,,45,127
37378,note_on,0,0,0,,7,,,79,127
37437,note_off,59,0,0,,7,,,79,127
37438,note_on,1,0,0,,5,,,77,127
37497,note_off,59,0,0,,5,,,77,127
37498,note_on,1,0,0,,4,,,76,127
37557,note_off,59,0,0,,4,,,76,127
37558,note_on,1,0,0,,2,,,74,127
37617,note_off,59,0,0,,10,,,45,127
37618,note_on,1,0,0,,10,,,33,127
37677,note_off,59,0,0,,2,,,74,127
37739,note_on,62,0,0,,1,,,73,127
37739,note_on,0,0,0,,4,,,76,127
37859,note_off,120,0,0,,4,,,76,127
37859,note_off,0,0,0,,1,,,73,127
37859,note_off,0,0,0,,10,,,33,127
37860,note_on,1,0,0,,2,,,38,127
37860,note_on,0,0,0,,5,,,77,127
37860,note_on,0,0,0,,2,,,74,127
37980,note_off,120,0,0,,2,,,74,127
37980,note_off,0,0,0,,5,,,77,127
37981,note_on,1,0,0,,2,,,86,127
38101,note_off,120,0,0,,2,,,86,127
38101,note_off,0,0,0,,2,,,38,127
38102,note_on,1,0,0,,7,,,43,127
38102,note_on,0,0,0,,11,,,82,127
38222,note_off,120,0,0,,11,,,82,127
38223,note_on,1,0,0,,7,,,79,127
38343,note_off,120,0,0,,7,,,79,127
38343,note_off,0,0,0,,7,,,43,127
38344,note_on,1,0,0,,10,,,45,127
38344,note_on,0,0,0,,7,,,79,127
38403,note_off,59,0,0,,7,,,79,127
38404,note_on,1,0,0,,5,,,77,127
38463,note_off,59,0,0,,5,,,77,127
38464,note_on,1,0,0,,4,,,76,127
38523,note_off,59,0,0,,4,,,76,127
38524,note_on,1,0,0,,2,,,74,127
38583,note_off,59,0,0,,10,,,45,127
38584,note_on,1,0,0,,10,,,33,127
38643,note_off,59,0,0,,2,,,74,127
38705,note_on,62,0,0,,1,,,73,127
38705,note_on,0,0,0,,4,,,76,127
38825,note_off,120,0,0,,4,,,76,127
38825,note_off,0,0,0,,1,,,73,127
38825,note_off,0,0,0,,10,,,33,127
38826,note_on,1,0,0,,2,,,38,127
38826,note_on,0,0,0,,5,,,77,127
38826,note_on,0,0,0,,2,,,74,127
38946,note_off,120,0,0,,2,,,74,127
38946,note_off,0,0,0,,5,,,77,127
38947,note_on,1,0,0,,2,,,74,127
39067,note_off,120,0,0,,2,,,74,127
39067,note_off,0,0,0,,2,,,38,127
39068,note_on,1,0,0,,7,,,43,127
39068,note_on,0,0,0,,11,,,70,127
39188,note_off,120,0,0,,11,,,70,127
39189,note_on,1,0,0,,7,,,67,127
39309,note_off,120,0,0,,7,,,67,127
39309,note_off,0,0,0,,7,,,43,127
39310,note_on,1,0,0,,10,,,45,127
39310,note_on,0,0,0,,7,,,67,127
39369,note_off,59,0,0,,7,,,67,127
39370,note_on,1,0,0,,5,,,65,127
39429,note_off,59,0,0,,5,,,65,127
39430,note_on,1,0,0,,4,,,64,127
39489,note_off,59,0,0,,4,,,64,127
39490,note_on,1,0,0,,2,,,62,127
39549,note_off,59,0,0,,10,,,45,127
39550,note_on,1,0,0,,10,,,33,127
39609,note_off,59,0,0,,2,,,62,127
39671,note_on,62,0,0,,1,,,61,127
39671,note_on,0,0,0,,4,,,64,127
39791,note_off,120,0,0,,4,,,64,127
39791,note_off,0,0,0,,1,,,61,127
39791,note_off,0,0,0,,10,,,33,127
39792,note_on,1,0,0,,2,,,38,127
39792,note_on,0,0,0,,2,,,62,127
39912,note_off,120,0,0,,2,,,62,127
39913,note_on,1,0,0,,2,,,74,127
40033,note_off,120,0,0,,2,,,74,127
40033,note_off,0,0,0,,2,,,38,127
40034,note_on,1,0,0,,7,,,43,127
40034,note_on,0,0,0,,11,,,70,127
40154,note_off,120,0,0,,11,,,70,127
40155,note_on,1,0,0,,7,,,67,127
40275,note_off,120,0,0,,7,,,67,127
40275,note_off,0,0,0,,7,,,43,127
40276,note_on,1,0,0,,10,,,45,127
40276,note_on,0,0,0,,7,,,67,127
40335,note_off,59,0,0,,7,,,67,127
40336,note_on,1,0,0,,5,,,65,127
40395,note_off,59,0,0,,5,,,65,127
40396,note_on,1,0,0,,4,,,64,127
40455,note_off,59,0,0,,4,,,64,127
40456,note_on,1,0,0,,2,,,62,127
40515,note_off,59,0,0,,10,,,45,127
40516,note_on,1,0,0,,10,,,33,127
40575,note_off,59,0,0,,2,,,62,127
40637,note_on,62,0,0,,1,,,61,127
40637,note_on,0,0,0,,4,,,64,127
40757,note_off,120,0,0,,4,,,64,127
40757,note_off,0,0,0,,1,,,61,127
40757,note_off,0,0,0,,10,,,33,127
40758,note_on,1,0,0,,2,,,38,127
40758,note_on,0,0,0,,4,,,64,127
40817,note_off,59,0,0,,4,,,64,127
40818,note_on,1,0,0,,2,,,62,127
40877,note_off,59,0,0,,2,,,62,127
40878,note_on,1,0,0,,4,,,64,127
40937,note_off,59,0,0,,4,,,64,127
40938,note_on,1,0,0,,2,,,62,127
41664,note_off,726,0,0,,2,,,62,127
41725,note_off,61,0,0,,2,,,38,127
41726,note_on,1,0,0,,2,,,38,127
41726,note_on,0,0,0,,2,,,50,127
41726,note_on,0,0,0,,2,,,62,127
41726,note_on,0,0,0,,2,,,74,127
42089,note_off,363,0,0,,2,,,74,127
42089,note_off,0,0,0,,2,,,62,127
42090,note_on,1,0,0,,2,,,74,127
42210,note_off,120,0,0,,2,,,74,127
42211,note_on,1,0,0,,12,,,71,127
42270,note_off,59,0,0,,12,,,71,127
42271,note_on,1,0,0,,10,,,69,127
42330,note_off,59,0,0,,10,,,69,127
42331,note_on,1,0,0,,12,,,71,127
42390,note_off,59,0,0,,12,,,71,127
42391,note_on,1,0,0,,10,,,69,127
42572,note_off,181,0,0,,10,,,69,127
42573,note_on,1,0,0,,10,,,69,127
42693,note_off,120,0,0,,10,,,69,127
42693,note_off,0,0,0,,2,,,50,127
42693,note_off,0,0,0,,2,,,38,127
42694,note_on,1,0,0,,2,,,62,127
42694,note_on,0,0,0,,7,,,67,127
42753,note_off,59,0,0,,7,,,67,127
42754,note_on,1,0,0,,6,,,66,127
42813,note_off,59,0,0,,6,,,66,127
42814,note_on,1,0,0,,7,,,67,127
42873,note_off,59,0,0,,7,,,67,127
42874,note_on,1,0,0,,6,,,66,127
43055,note_off,181,0,0,,6,,,66,127
43055,note_off,0,0,0,,2,,,62,127
43056,note_on,1,0,0,,2,,,62,127
43056,note_on,0,0,0,,6,,,66,127
43176,note_off,120,0,0,,6,,,66,127
43176,note_off,0,0,0,,2,,,62,127
43177,note_on,1,0,0,,10,,,57,127
43177,note_on,0,0,0,,6,,,66,127
43236,note_off,59,0,0,,6,,,66,127
43237,note_on,1,0,0,,4,,,64,127
43296,note_off,59,0,0,,4,,,64,127
43297,note_on,1,0,0,,6,,,66,127
43356,note_off,59,0,0,,6,,,66,127
43357,note_on,1,0,0,,4,,,64,127
43538,note_off,181,0,0,,4,,,64,127
43538,note_off,0,0,0,,10,,,57,127
43539,note_on,1,0,0,,10,,,57,127
43539,note_on,0,0,0,,4,,,64,127
43659,note_off,120,0,0,,4,,,64,127
43659,note_off,0,0,0,,10,,,57,127
43660,note_on,1,0,0,,6,,,54,127
43660,note_on,0,0,0,,2,,,62,127
43780,note_off,120,0,0,,2,,,62,127
43781,note_on,1,0,0,,10,,,69,127
43901,note_off,120,0,0,,10,,,69,127
43901,note_off,0,0,0,,6,,,54,127
43902,note_on,1,0,0,,2,,,50,127
43902,note_on,0,0,0,,6,,,66,127
44022,note_off,120,0,0,,6,,,66,127
44023,note_on,1,0,0,,2,,,62,127
44143,note_off,120,0,0,,2,,,62,127
44144,note_on,1,0,0,,7,,,67,127
44264,note_off,120,0,0,,7,,,67,127
44265,note_off,1,0,0,,2,,,50,127
44265,note_on,0,0,0,,11,,,70,127
44385,note_off,120,0,0,,11,,,70,127
44386,note_on,1,0,0,,7,,,55,127
44386,note_on,0,0,0,,7,,,67,127
44506,note_off,120,0,0,,7,,,67,127
44507,note_on,1,0,0,,2,,,62,127
44627,note_off,120,0,0,,2,,,62,127
44627,note_off,0,0,0,,7,,,55,127
44628,note_on,1,0,0,,6,,,54,127
44628,note_on,0,0,0,,10,,,69,127
44748,note_off,120,0,0,,10,,,69,127
44749,note_on,1,0,0,,0,,,72,127
44869,note_off,120,0,0,,0,,,72,127
44869,note_off,0,0,0,,6,,,54,127
44870,note_on,1,0,0,,2,,,50,127
44870,note_on,0,0,0,,10,,,69,127
44990,note_off,120,0,0,,10,,,69,127
44991,note_on,1,0,0,,2,,,62,127
45111,note_off,120,0,0,,2,,,62,127
45111,note_off,0,0,0,,2,,,50,127
45112,note_on,1,0,0,,7,,,55,127
45112,note_on,0,0,0,,11,,,70,127
45232,note_off,120,0,0,,11,,,70,127
45233,note_on,1,0,0,,2,,,74,127
45353,note_off,120,0,0,,2,,,74,127
45353,note_off,0,0,0,,7,,,55,127
45354,note_on,1,0,0,,7,,,43,127
45354,note_on,0,0,0,,11,,,70,127
45474,note_off,120,0,0,,11,,,70,127
45475,note_on,1,0,0,,7,,,67,127
45595,note_off,120,0,0,,7,,,67,127
45595,note_off,0,0,0,,7,,,43,127
45596,note_on,1,0,0,,2,,,50,127
45596,note_on,0,0,0,,10,,,69,127
45716,note_off,120,0,0,,2,,,50,127
45717,note_on,1,0,0,,10,,,57,127
45837,note_off,120,0,0,,10,,,57,127
45837,note_off,0,0,0,,10,,,69,127
45838,note_on,1,0,0,,6,,,54,127
45838,note_on,0,0,0,,10,,,69,127
45958,note_off,120,0,0,,6,,,54,127
45959,note_on,1,0,0,,2,,,50,127
46079,note_off,120,0,0,,2,,,50,127
46079,note_off,0,0,0,,10,,,69,127
46080,note_on,1,0,0,,7,,,55,127
46080,note_on,0,0,0,,11,,,70,127
46200,note_off,120,0,0,,7,,,55,127
46201,note_on,1,0,0,,11,,,58,127
46321,note_off,120,0,0,,11,,,58,127
46321,note_off,0,0,0,,11,,,70,127
46322,note_on,1,0,0,,7,,,55,127
46322,note_on,0,0,0,,7,,,67,127
46442,note_off,120,0,0,,7,,,55,127
46443,note_on,1,0,0,,2,,,50,127
46563,note_off,120,0,0,,2,,,50,127
46563,note_off,0,0,0,,7,,,67,127
46564,note_on,1,0,0,,10,,,57,127
46564,note_on,0,0,0,,0,,,72,127
46684,note_off,120,0,0,,10,,,57,127
46685,note_on,1,0,0,,0,,,60,127
46805,note_off,120,0,0,,0,,,60,127
46805,note_off,0,0,0,,0,,,72,127
46806,note_on,1,0,0,,10,,,57,127
46806,note_on,0,0,0,,10,,,69,127
46926,note_off,120,0,0,,10,,,57,127
46927,note_on,1,0,0,,2,,,50,127
47047,note_off,120,0,0,,2,,,50,127
47047,note_off,0,0,0,,10,,,69,127
47048,note_on,1,0,0,,11,,,58,127
47048,note_on,0,0,0,,2,,,74,127
47168,note_off,120,0,0,,11,,,58,127
47169,note_on,1,0,0,,2,,,62,127
47289,note_off,120,0,0,,2,,,62,127
47289,note_off,0,0,0,,2,,,74,127
47290,note_on,1,0,0,,11,,,58,127
47290,note_on,0,0,0,,11,,,70,127
47410,note_off,120,0,0,,11,,,58,127
47411,note_on,1,0,0,,7,,,55,127
47531,note_off,120,0,0,,7,,,55,127
47531,note_off,0,0,0,,11,,,70,127
47532,note_on,1,0,0,,2,,,50,127
47532,note_on,0,0,0,,10,,,69,127
47773,note_off,241,0,0,,10,,,69,127
47773,note_off,0,0,0,,2,,,50,127
47774,note_on,1,0,0,,2,,,62,127
47774,note_on,0,0,0,,2,,,50,127
47774,note_on,0,0,0,,2,,,74,127
48015,note_off,241,0,0,,2,,,74,127
48015,note_off,0,0,0,,2,,,50,127
48015,note_off,0,0,0,,2,,,62,127
48016,note_on,1,0,0,,2,,,50,127
48016,note_on,0,0,0,,2,,,62,127
48016,note_on,0,0,0,,6,,,66,127
48257,note_off,241,0,0,,2,,,62,127
48257,note_off,0,0,0,,2,,,50,127
48258,note_on,1,0,0,,2,,,50,127
48258,note_on,0,0,0,,2,,,62,127
48258,note_on,0,0,0,,2,,,74,127
48495,note_off,237,0,0,,6,,,66,127
48499,note_off,4,0,0,,2,,,74,127
48499,note_off,0,0,0,,2,,,62,127
48499,note_off,0,0,0,,2,,,50,127
48500,note_on,1,0,0,,0,,,60,127
48500,note_on,0,0,0,,2,,,50,127
48500,note_on,0,0,0,,2,,,74,127
48500,note_on,0,0,0,,6,,,66,127
48559,note_off,59,0,0,,2,,,74,127
48560,note_on,1,0,0,,5,,,77,127
48619,note_off,59,0,0,,5,,,77,127
48620,note_on,1,0,0,,3,,,75,127
48740,note_off,120,0,0,,2,,,50,127
48740,note_off,0,0,0,,0,,,60,127
48741,note_on,1,0,0,,0,,,60,127
48741,note_on,0,0,0,,2,,,50,127
48982,note_off,241,0,0,,2,,,50,127
48982,note_off,0,0,0,,0,,,60,127
48983,note_on,1,0,0,,2,,,50,127
48983,note_on,0,0,0,,0,,,60,127
49224,note_off,241,0,0,,0,,,60,127
49224,note_off,0,0,0,,2,,,50,127
49225,note_on,1,0,0,,0,,,60,127
49225,note_on,0,0,0,,2,,,50,127
49326,note_off,101,0,0,,3,,,75,127
49464,note_off,138,0,0,,2,,,50,127
49467,note_off,3,0,0,,0,,,60,127
49467,note_off,0,0,0,,6,,,66,127
49468,note_on,1,0,0,,0,,,60,127
49468,note_on,0,0,0,,3,,,51,127
49468,note_on,0,0,0,,5,,,77,127
49468,note_on,0,0,0,,3,,,75,127
49468,note_on,0,0,0,,6,,,66,127
49709,note_off,241,0,0,,3,,,75,127
49709,note_off,0,0,0,,5,,,77,127
49709,note_off,0,0,0,,3,,,51,127
49709,note_off,0,0,0,,0,,,60,127
49710,note_on,1,0,0,,0,,,60,127
49710,note_on,0,0,0,,3,,,51,127
49710,note_on,0,0,0,,2,,,74,127
49830,note_off,120,0,0,,2,,,74,127
49831,note_on,1,0,0,,0,,,72,127
49951,note_off,120,0,0,,0,,,72,127
49951,note_off,0,0,0,,3,,,51,127
49951,note_off,0,0,0,,0,,,60,127
49952,note_on,1,0,0,,3,,,51,127
49952,note_on,0,0,0,,0,,,60,127
49952,note_on,0,0,0,,12,,,71,127
50193,note_off,241,0,0,,12,,,71,127
50193,note_off,0,0,0,,0,,,60,127
50193,note_off,0,0,0,,3,,,51,127
50194,note_on,1,0,0,,3,,,51,127
50194,note_on,0,0,0,,0,,,60,127
50194,note_on,0,0,0,,0,,,72,127
50435,note_off,241,0,0,,0,,,72,127
50435,note_off,0,0,0,,0,,,60,127
50435,note_off,0,0,0,,3,,,51,127
50435,note_off,0,0,0,,6,,,66,127
50436,note_on,1,0,0,,11,,,58,127
50436,note_on,0,0,0,,4,,,52,127
50436,note_on,0,0,0,,0,,,60,127
50436,note_on,0,0,0,,7,,,67,127
50436,note_on,0,0,0,,10,,,81,127
50436,note_on,0,0,0,,7,,,79,127
50676,note_off,240,0,0,,10,,,81,127
50677,note_off,1,0,0,,0,,,60,127
50677,note_off,0,0,0,,4,,,52,127
50677,note_off,0,0,0,,11,,,58,127
50678,note_on,1,0,0,,4,,,52,127
50678,note_on,0,0,0,,0,,,60,127
50678,note_on,0,0,0,,11,,,58,127
50919,note_off,241,0,0,,11,,,58,127
50919,note_off,0,0,0,,0,,,60,127
50919,note_off,0,0,0,,4,,,52,127
50919,note_off,0,0,0,,7,,,79,127
50919,note_off,0,0,0,,7,,,67,127
50920,note_on,1,0,0,,11,,,58,127
50920,note_on,0,0,0,,4,,,52,127
50920,note_on,0,0,0,,0,,,60,127
50920,note_on,0,0,0,,0,,,72,127
50979,note_off,59,0,0,,0,,,72,127
50980,note_on,1,0,0,,11,,,70,127
51039,note_off,59,0,0,,11,,,70,127
51040,note_on,1,0,0,,0,,,72,127
51099,note_off,59,0,0,,0,,,72,127
51100,note_on,1,0,0,,11,,,70,127
51159,note_off,59,0,0,,11,,,70,127
51159,note_off,0,0,0,,0,,,60,127
51159,note_off,0,0,0,,4,,,52,127
51159,note_off,0,0,0,,11,,,58,127
51160,note_on,1,0,0,,0,,,60,127
51160,note_on,0,0,0,,11,,,58,127
51160,note_on,0,0,0,,4,,,52,127
51160,note_on,0,0,0,,0,,,72,127
51219,note_off,59,0,0,,0,,,72,127
51220,note_on,1,0,0,,11,,,70,127
51279,note_off,59,0,0,,11,,,70,127
51280,note_on,1,0,0,,10,,,69,127
51339,note_off,59,0,0,,10,,,69,127
51340,note_on,1,0,0,,11,,,70,127
51399,note_off,59,0,0,,11,,,70,127
51399,note_off,0,0,0,,4,,,52,127
51399,note_off,0,0,0,,11,,,58,127
51399,note_off,0,0,0,,0,,,60,127
51400,note_on,1,0,0,,0,,,60,127
51400,note_on,0,0,0,,5,,,53,127
51400,note_on,0,0,0,,10,,,69,127
51641,note_off,241,0,0,,5,,,53,127
51641,note_off,0,0,0,,0,,,60,127
51642,note_on,1,0,0,,5,,,53,127
51642,note_on,0,0,0,,0,,,60,127
51883,note_off,241,0,0,,0,,,60,127
51883,note_off,0,0,0,,5,,,53,127
51883,note_off,0,0,0,,10,,,69,127
51884,note_on,1,0,0,,5,,,53,127
51884,note_on,0,0,0,,0,,,60,127
51884,note_on,0,0,0,,0,,,72,127
52125,note_off,241,0,0,,0,,,60,127
52125,note_off,0,0,0,,5,,,53,127
52126,note_on,1,0,0,,0,,,60,127
52126,note_on,0,0,0,,5,,,53,127
52367,note_off,241,0,0,,5,,,53,127
52367,note_off,0,0,0,,0,,,60,127
52368,note_on,1,0,0,,3,,,63,127
52368,note_on,0,0,0,,0,,,60,127
52368,note_on,0,0,0,,5,,,53,127
52609,note_off,241,0,0,,5,,,53,127
52609,note_off,0,0,0,,0,,,60,127
52609,note_off,0,0,0,,3,,,63,127
52610,note_on,1,0,0,,5,,,53,127
52610,note_on,0,0,0,,3,,,63,127
52610,note_on,0,0,0,,0,,,60,127
52851,note_off,241,0,0,,0,,,60,127
52851,note_off,0,0,0,,3,,,63,127
52851,note_off,0,0,0,,5,,,53,127
52851,note_off,0,0,0,,0,,,72,127
52852,note_on,1,0,0,,0,,,60,127
52852,note_on,0,0,0,,5,,,53,127
52852,note_on,0,0,0,,3,,,63,127
52852,note_on,0,0,0,,0,,,72,127
53093,note_off,241,0,0,,3,,,63,127
53093,note_off,0,0,0,,5,,,53,127
53093,note_off,0,0,0,,0,,,60,127
53094,note_on,1,0,0,,5,,,53,127
53094,note_on,0,0,0,,3,,,63,127
53094,note_on,0,0,0,,0,,,60,127
53335,note_off,241,0,0,,0,,,60,127
53335,note_off,0,0,0,,3,,,63,127
53335,note_off,0,0,0,,5,,,53,127
53336,note_on,1,0,0,,0,,,60,127
53336,note_on,0,0,0,,6,,,54,127
53336,note_on,0,0,0,,3,,,63,127
53577,note_off,241,0,0,,3,,,63,127
53577,note_off,0,0,0,,6,,,54,127
53577,note_off,0,0,0,,0,,,60,127
53578,note_on,1,0,0,,6,,,54,127
53578,note_on,0,0,0,,3,,,63,127
53578,note_on,0,0,0,,0,,,60,127
53819,note_off,241,0,0,,0,,,60,127
53819,note_off,0,0,0,,3,,,63,127
53819,note_off,0,0,0,,6,,,54,127
53819,note_off,0,0,0,,0,,,72,127
53820,note_on,1,0,0,,6,,,54,127
53820,note_on,0,0,0,,3,,,63,127
53820,note_on,0,0,0,,0,,,60,127
53820,note_on,0,0,0,,0,,,72,127
54061,note_off,241,0,0,,0,,,60,127
54061,note_off,0,0,0,,3,,,63,127
54061,note_off,0,0,0,,6,,,54,127
54062,note_on,1,0,0,,6,,,54,127
54062,note_on,0,0,0,,0,,,60,127
54062,note_on,0,0,0,,3,,,63,127
54303,note_off,241,0,0,,3,,,63,127
54303,note_off,0,0,0,,0,,,60,127
54303,note_off,0,0,0,,6,,,54,127
54304,note_on,1,0,0,,10,,,57,127
54304,note_on,0,0,0,,3,,,63,127
54304,note_on,0,0,0,,5,,,65,127
54545,note_off,241,0,0,,5,,,65,127
54545,note_off,0,0,0,,3,,,63,127
54545,note_off,0,0,0,,10,,,57,127
54546,note_on,1,0,0,,10,,,57,127
54546,note_on,0,0,0,,3,,,63,127
54546,note_on,0,0,0,,5,,,65,127
54787,note_off,241,0,0,,5,,,65,127
54787,note_off,0,0,0,,3,,,63,127
54787,note_off,0,0,0,,10,,,57,127
54787,note_off,0,0,0,,0,,,72,127
54788,note_on,1,0,0,,10,,,57,127
54788,note_on,0,0,0,,3,,,63,127
54788,note_on,0,0,0,,5,,,65,127
54788,note_on,0,0,0,,3,,,75,127
55029,note_off,241,0,0,,5,,,65,127
55029,note_off,0,0,0,,3,,,63,127
55029,note_off,0,0,0,,10,,,57,127
55030,note_on,1,0,0,,3,,,63,127
55030,note_on,0,0,0,,5,,,65,127
55030,note_on,0,0,0,,10,,,57,127
55271,note_off,241,0,0,,10,,,57,127
55271,note_off,0,0,0,,5,,,65,127
55271,note_off,0,0,0,,3,,,63,127
55272,note_on,1,0,0,,3,,,63,127
55272,note_on,0,0,0,,6,,,66,127
55272,note_on,0,0,0,,11,,,58,127
55513,note_off,241,0,0,,11,,,58,127
55513,note_off,0,0,0,,6,,,66,127
55513,note_off,0,0,0,,3,,,63,127
55514,note_on,1,0,0,,3,,,63,127
55514,note_on,0,0,0,,11,,,58,127
55514,note_on,0,0,0,,6,,,66,127
55755,note_off,241,0,0,,6,,,66,127
55755,note_off,0,0,0,,11,,,58,127
55755,note_off,0,0,0,,3,,,63,127
55755,note_off,0,0,0,,3,,,75,127
55756,note_on,1,0,0,,6,,,66,127
55756,note_on,0,0,0,,11,,,58,127
55756,note_on,0,0,0,,3,,,63,127
55756,note_on,0,0,0,,6,,,78,127
55997,note_off,241,0,0,,3,,,63,127
55997,note_off,0,0,0,,11,,,58,127
55997,note_off,0,0,0,,6,,,66,127
55998,note_on,1,0,0,,11,,,58,127
55998,note_on,0,0,0,,6,,,66,127
55998,note_on,0,0,0,,3,,,63,127
56239,note_off,241,0,0,,3,,,63,127
56239,note_off,0,0,0,,6,,,66,127
56239,note_off,0,0,0,,11,,,58,127
56240,note_on,1,0,0,,6,,,66,127
56240,note_on,0,0,0,,0,,,60,127
56240,note_on,0,0,0,,10,,,69,127
56240,note_on,0,0,0,,3,,,63,127
56481,note_off,241,0,0,,3,,,63,127
56481,note_off,0,0,0,,10,,,69,127
56481,note_off,0,0,0,,0,,,60,127
56481,note_off,0,0,0,,6,,,66,127
56482,note_on,1,0,0,,10,,,69,127
56482,note_on,0,0,0,,6,,,66,127
56482,note_on,0,0,0,,3,,,63,127
56482,note_on,0,0,0,,0,,,60,127
56723,note_off,241,0,0,,0,,,60,127
56723,note_off,0,0,0,,3,,,63,127
56723,note_off,0,0,0,,6,,,66,127
56723,note_off,0,0,0,,10,,,69,127
56723,note_off,0,0,0,,6,,,78,127
56724,note_on,1,0,0,,6,,,66,127
56724,note_on,0,0,0,,0,,,60,127
56724,note_on,0,0,0,,10,,,69,127
56724,note_on,0,0,0,,3,,,63,127
56724,note_on,0,0,0,,10,,,81,127
56965,note_off,241,0,0,,3,,,63,127
56965,note_off,0,0,0,,10,,,69,127
56965,note_off,0,0,0,,0,,,60,127
56965,note_off,0,0,0,,6,,,66,127
56966,note_on,1,0,0,,6,,,66,127
56966,note_on,0,0,0,,3,,,63,127
56966,note_on,0,0,0,,0,,,60,127
56966,note_on,0,0,0,,10,,,69,127
57207,note_off,241,0,0,,10,,,69,127
57207,note_off,0,0,0,,0,,,60,127
57207,note_off,0,0,0,,3,,,63,127
57207,note_off,0,0,0,,6,,,66,127
57208,note_on,1,0,0,,1,,,61,127
57208,note_on,0,0,0,,11,,,70,127
57208,note_on,0,0,0,,5,,,65,127
57449,note_off,241,0,0,,5,,,65,127
57449,note_off,0,0,0,,11,,,70,127
57449,note_off,0,0,0,,1,,,61,127
57450,note_on,1,0,0,,5,,,65,127
57450,note_on,0,0,0,,1,,,61,127
57450,note_on,0,0,0,,11,,,70,127
57691,note_off,241,0,0,,11,,,70,127
57691,note_off,0,0,0,,1,,,61,127
57691,note_off,0,0,0,,5,,,65,127
57691,note_off,0,0,0,,10,,,81,127
57692,note_on,1,0,0,,11,,,70,127
57692,note_on,0,0,0,,5,,,65,127
57692,note_on,0,0,0,,1,,,61,127
57692,note_on,0,0,0,,11,,,82,127
57933,note_off,241,0,0,,1,,,61,127
57933,note_off,0,0,0,,5,,,65,127
57933,note_off,0,0,0,,11,,,70,127
57934,note_on,1,0,0,,5,,,65,127
57934,note_on,0,0,0,,1,,,61,127
57934,note_on,0,0,0,,11,,,70,127
58175,note_off,241,0,0,,11,,,70,127
58175,note_off,0,0,0,,1,,,61,127
58175,note_off,0,0,0,,5,,,65,127
58176,note_on,1,0,0,,8,,,68,127
58176,note_on,0,0,0,,2,,,62,127
58176,note_on,0,0,0,,11,,,70,127
58296,note_off,120,0,0,,11,,,82,127
58297,note_on,1,0,0,,5,,,77,127
58417,note_off,120,0,0,,5,,,77,127
58417,note_off,0,0,0,,11,,,70,127
58417,note_off,0,0,0,,2,,,62,127
58417,note_off,0,0,0,,8,,,68,127
58418,note_on,1,0,0,,11,,,70,127
58418,note_on,0,0,0,,2,,,62,127
58418,note_on,0,0,0,,8,,,68,127
58418,note_on,0,0,0,,6,,,78,127
58538,note_off,120,0,0,,6,,,78,127
58539,note_on,1,0,0,,8,,,80,127
58659,note_off,120,0,0,,8,,,80,127
58659,note_off,0,0,0,,8,,,68,127
58659,note_off,0,0,0,,2,,,62,127
58659,note_off,0,0,0,,11,,,70,127
58660,note_on,1,0,0,,8,,,68,127
58660,note_on,0,0,0,,2,,,62,127
58660,note_on,0,0,0,,11,,,70,127
58660,note_on,0,0,0,,8,,,80,127
58719,note_off,59,0,0,,8,,,80,127
58720,note_on,1,0,0,,6,,,78,127
58779,note_off,59,0,0,,6,,,78,127
58780,note_on,1,0,0,,8,,,80,127
58839,note_off,59,0,0,,8,,,80,127
58840,note_on,1,0,0,,6,,,78,127
58899,note_off,59,0,0,,6,,,78,127
58899,note_off,0,0,0,,11,,,70,127
58899,note_off,0,0,0,,2,,,62,127
58899,note_off,0,0,0,,8,,,68,127
58900,note_on,1,0,0,,2,,,62,127
58900,note_on,0,0,0,,11,,,70,127
58900,note_on,0,0,0,,8,,,68,127
58900,note_on,0,0,0,,8,,,80,127
58959,note_off,59,0,0,,8,,,80,127
58960,note_on,1,0,0,,6,,,78,127
59019,note_off,59,0,0,,6,,,78,127
59020,note_on,1,0,0,,5,,,77,127
59140,note_off,120,0,0,,5,,,77,127
59140,note_off,0,0,0,,8,,,68,127
59140,note_off,0,0,0,,11,,,70,127
59140,note_off,0,0,0,,2,,,62,127
59141,note_on,1,0,0,,11,,,70,127
59141,note_on,0,0,0,,3,,,63,127
59141,note_on,0,0,0,,6,,,78,127
59141,note_on,0,0,0,,11,,,82,127
59261,note_off,120,0,0,,11,,,82,127
59261,note_off,0,0,0,,6,,,78,127
59262,note_on,1,0,0,,8,,,80,127
59382,note_off,120,0,0,,8,,,80,127
59382,note_off,0,0,0,,3,,,63,127
59382,note_off,0,0,0,,11,,,70,127
59383,note_on,1,0,0,,5,,,65,127
59383,note_on,0,0,0,,6,,,78,127
59503,note_off,120,0,0,,6,,,78,127
59504,note_on,1,0,0,,5,,,77,127
59624,note_off,120,0,0,,5,,,77,127
59624,note_off,0,0,0,,5,,,65,127
59625,note_on,1,0,0,,6,,,66,127
59625,note_on,0,0,0,,3,,,75,127
59745,note_off,120,0,0,,3,,,75,127
59746,note_on,1,0,0,,1,,,73,127
59866,note_off,120,0,0,,1,,,73,127
59866,note_off,0,0,0,,6,,,66,127
59867,note_on,1,0,0,,3,,,63,127
59867,note_on,0,0,0,,0,,,72,127
59987,note_off,120,0,0,,0,,,72,127
59988,note_on,1,0,0,,11,,,70,127
60108,note_off,120,0,0,,11,,,70,127
60108,note_off,0,0,0,,3,,,63,127
60109,note_on,1,0,0,,5,,,53,127
60109,note_on,0,0,0,,11,,,70,127
60229,note_off,120,0,0,,5,,,53,127
60230,note_on,1,0,0,,10,,,57,127
60350,note_off,120,0,0,,10,,,57,127
60350,note_off,0,0,0,,11,,,70,127
60351,note_on,1,0,0,,0,,,60,127
60351,note_on,0,0,0,,10,,,69,127
60471,note_off,120,0,0,,0,,,60,127
60472,note_on,1,0,0,,5,,,65,127
60591,note_off,119,0,0,,10,,,69,127
60592,note_off,1,0,0,,5,,,65,127
60593,note_on,1,0,0,,7,,,55,127
60713,note_off,120,0,0,,7,,,55,127
60714,note_on,1,0,0,,11,,,58,127
60834,note_off,120,0,0,,11,,,58,127
60835,note_on,1,0,0,,0,,,60,127
60955,note_off,120,0,0,,0,,,60,127
60956,note_on,1,0,0,,4,,,64,127
60956,note_on,0,0,0,,11,,,70,127
61076,note_off,120,0,0,,11,,,70,127
61076,note_off,0,0,0,,4,,,64,127
61077,note_on,1,0,0,,5,,,53,127
61077,note_on,0,0,0,,11,,,70,127
61197,note_off,120,0,0,,5,,,53,127
61198,note_on,1,0,0,,10,,,57,127
61318,note_off,120,0,0,,10,,,57,127
61318,note_off,0,0,0,,11,,,70,127
61319,note_on,1,0,0,,0,,,60,127
61319,note_on,0,0,0,,0,,,72,127
61439,note_off,120,0,0,,0,,,60,127
61440,note_on,1,0,0,,5,,,65,127
61560,note_off,120,0,0,,5,,,65,127
61561,note_on,1,0,0,,7,,,55,127
61681,note_off,120,0,0,,7,,,55,127
61682,note_on,1,0,0,,11,,,58,127
61798,note_off,116,0,0,,0,,,72,127
61802,note_off,4,0,0,,11,,,58,127
61803,note_on,1,0,0,,0,,,60,127
61923,note_off,120,0,0,,0,,,60,127
61924,note_on,1,0,0,,4,,,64,127
61924,note_on,0,0,0,,11,,,70,127
62044,note_off,120,0,0,,11,,,70,127
62044,note_off,0,0,0,,4,,,64,127
62045,note_on,1,0,0,,10,,,33,127
62045,note_on,0,0,0,,0,,,72,127
62165,note_off,120,0,0,,0,,,72,127
62166,note_on,1,0,0,,5,,,65,127
62286,note_off,120,0,0,,5,,,65,127
62287,note_on,1,0,0,,3,,,75,127
62407,note_off,120,0,0,,3,,,75,127
62408,note_on,1,0,0,,0,,,72,127
62528,note_off,120,0,0,,0,,,72,127
62528,note_off,0,0,0,,10,,,33,127
62529,note_on,1,0,0,,11,,,34,127
62529,note_on,0,0,0,,2,,,74,127
62649,note_off,120,0,0,,2,,,74,127
62650,note_on,1,0,0,,11,,,70,127
62770,note_off,120,0,0,,11,,,70,127
62770,note_off,0,0,0,,11,,,34,127
62771,note_on,1,0,0,,2,,,38,127
62771,note_on,0,0,0,,11,,,82,127
62891,note_off,120,0,0,,11,,,82,127
62892,note_on,1,0,0,,5,,,77,127
63012,note_off,120,0,0,,5,,,77,127
63012,note_off,0,0,0,,2,,,38,127
63013,note_on,1,0,0,,3,,,39,127
63013,note_on,0,0,0,,7,,,79,127
63133,note_off,120,0,0,,7,,,79,127
63134,note_on,1,0,0,,2,,,74,127
63254,note_off,120,0,0,,2,,,74,127
63255,note_on,1,0,0,,3,,,75,127
63375,note_off,120,0,0,,3,,,75,127
63376,note_on,1,0,0,,0,,,72,127
63496,note_off,120,0,0,,0,,,72,127
63496,note_off,0,0,0,,3,,,39,127
63497,note_on,1,0,0,,7,,,43,127
63497,note_on,0,0,0,,2,,,74,127
63617,note_off,120,0,0,,2,,,74,127
63618,note_on,1,0,0,,11,,,70,127
63738,note_off,120,0,0,,11,,,70,127
63738,note_off,0,0,0,,7,,,43,127
63739,note_on,1,0,0,,7,,,55,127
63739,note_on,0,0,0,,10,,,69,127
63859,note_off,120,0,0,,10,,,69,127
63860,note_on,1,0,0,,11,,,70,127
63980,note_off,120,0,0,,11,,,70,127
63980,note_off,0,0,0,,7,,,55,127
63981,note_on,1,0,0,,5,,,53,127
63981,note_on,0,0,0,,11,,,70,127
64101,note_off,120,0,0,,5,,,53,127
64102,note_on,1,0,0,,10,,,57,127
64222,note_off,120,0,0,,10,,,57,127
64222,note_off,0,0,0,,11,,,70,127
64223,note_on,1,0,0,,0,,,60,127
64223,note_on,0,0,0,,0,,,72,127
64343,note_off,120,0,0,,0,,,60,127
64344,note_on,1,0,0,,5,,,65,127
64464,note_off,120,0,0,,5,,,65,127
64465,note_on,1,0,0,,7,,,55,127
64585,note_off,120,0,0,,7,,,55,127
64586,note_off,1,0,0,,0,,,72,127
64586,note_on,0,0,0,,11,,,58,127
64706,note_off,120,0,0,,11,,,58,127
64707,note_on,1,0,0,,0,,,60,127
64827,note_off,120,0,0,,0,,,60,127
64828,note_on,1,0,0,,4,,,64,127
64828,note_on,0,0,0,,11,,,70,127
64948,note_off,120,0,0,,11,,,70,127
64948,note_off,0,0,0,,4,,,64,127
64949,note_on,1,0,0,,5,,,53,127
64949,note_on,0,0,0,,11,,,70,127
65069,note_off,120,0,0,,5,,,53,127
65070,note_on,1,0,0,,10,,,57,127
65190,note_off,120,0,0,,10,,,57,127
65190,note_off,0,0,0,,11,,,70,127
65191,note_on,1,0,0,,0,,,60,127
65191,note_on,0,0,0,,0,,,72,127
65311,note_off,120,0,0,,0,,,60,127
65312,note_on,1,0,0,,5,,,65,127
65432,note_off,120,0,0,,5,,,65,127
65433,note_on,1,0,0,,7,,,55,127
65553,note_off,120,0,0,,7,,,55,127
65554,note_off,1,0,0,,0,,,72,127
65554,note_on,0,0,0,,11,,,58,127
65674,note_off,120,0,0,,11,,,58,127
65675,note_on,1,0,0,,0,,,60,127
65795,note_off,120,0,0,,0,,,60,127
65796,note_on,1,0,0,,4,,,64,127
65796,note_on,0,0,0,,11,,,70,127
65916,note_off,120,0,0,,11,,,70,127
65916,note_off,0,0,0,,4,,,64,127
65917,note_on,1,0,0,,10,,,33,127
65917,note_on,0,0,0,,0,,,72,127
66037,note_off,120,0,0,,0,,,72,127
66038,note_on,1,0,0,,5,,,65,127
66158,note_off,120,0,0,,5,,,65,127
66159,note_on,1,0,0,,3,,,75,127
66279,note_off,120,0,0,,3,,,75,127
66280,note_on,1,0,0,,0,,,72,127
66400,note_off,120,0,0,,0,,,72,127
66400,note_off,0,0,0,,10,,,33,127
66401,note_on,1,0,0,,11,,,34,127
66401,note_on,0,0,0,,2,,,74,127
66521,note_off,120,0,0,,2,,,74,127
66522,note_on,1,0,0,,11,,,70,127
66642,note_off,120,0,0,,11,,,70,127
66642,note_off,0,0,0,,11,,,34,127
66643,note_on,1,0,0,,2,,,38,127
66643,note_on,0,0,0,,11,,,82,127
66763,note_off,120,0,0,,11,,,82,127
66764,note_on,1,0,0,,5,,,77,127
66884,note_off,120,0,0,,5,,,77,127
66884,note_off,0,0,0,,2,,,38,127
66885,note_on,1,0,0,,3,,,39,127
66885,note_on,0,0,0,,7,,,79,127
67005,note_off,120,0,0,,7,,,79,127
67006,note_on,1,0,0,,2,,,74,127
67126,note_off,120,0,0,,2,,,74,127
67126,note_off,0,0,0,,3,,,39,127
67127,note_on,1,0,0,,3,,,51,127
67127,note_on,0,0,0,,3,,,75,127
67247,note_off,120,0,0,,3,,,75,127
67248,note_on,1,0,0,,0,,,72,127
67368,note_off,120,0,0,,0,,,72,127
67368,note_off,0,0,0,,3,,,51,127
67369,note_on,1,0,0,,5,,,41,127
67369,note_on,0,0,0,,2,,,74,127
67489,note_off,120,0,0,,2,,,74,127
67490,note_on,1,0,0,,11,,,70,127
67610,note_off,120,0,0,,11,,,70,127
67610,note_off,0,0,0,,5,,,41,127
67611,note_on,1,0,0,,5,,,53,127
67611,note_on,0,0,0,,0,,,72,127
67731,note_off,120,0,0,,0,,,72,127
67732,note_on,1,0,0,,10,,,69,127
67852,note_off,120,0,0,,10,,,69,127
67852,note_off,0,0,0,,5,,,53,127
67853,note_on,1,0,0,,11,,,46,127
67853,note_on,0,0,0,,11,,,70,127
67973,note_off,120,0,0,,11,,,70,127
67974,note_on,1,0,0,,11,,,82,127
68094,note_off,120,0,0,,11,,,82,127
68094,note_off,0,0,0,,11,,,46,127
68095,note_on,1,0,0,,3,,,51,127
68095,note_on,0,0,0,,7,,,79,127
68215,note_off,120,0,0,,7,,,79,127
68216,note_on,1,0,0,,3,,,75,127
68336,note_off,120,0,0,,3,,,75,127
68336,note_off,0,0,0,,3,,,51,127
68337,note_on,1,0,0,,5,,,53,127
68337,note_on,0,0,0,,3,,,75,127
68396,note_off,59,0,0,,3,,,75,127
68397,note_on,1,0,0,,2,,,74,127
68456,note_off,59,0,0,,2,,,74,127
68457,note_on,1,0,0,,0,,,72,127
68516,note_off,59,0,0,,0,,,72,127
68517,note_on,1,0,0,,11,,,70,127
68576,note_off,59,0,0,,5,,,53,127
68577,note_on,1,0,0,,5,,,41,127
68636,note_off,59,0,0,,11,,,70,127
68698,note_on,62,0,0,,10,,,69,127
68698,note_on,0,0,0,,0,,,72,127
68818,note_off,120,0,0,,0,,,72,127
68818,note_off,0,0,0,,10,,,69,127
68818,note_off,0,0,0,,5,,,41,127
68819,note_on,1,0,0,,11,,,46,127
68819,note_on,0,0,0,,2,,,74,127
68819,note_on,0,0,0,,11,,,70,127
68939,note_off,120,0,0,,11,,,70,127
68939,note_off,0,0,0,,2,,,74,127
68940,note_on,1,0,0,,11,,,82,127
69060,note_off,120,0,0,,11,,,82,127
69060,note_off,0,0,0,,11,,,46,127
69061,note_on,1,0,0,,3,,,51,127
69061,note_on,0,0,0,,7,,,79,127
69181,note_off,120,0,0,,7,,,79,127
69182,note_on,1,0,0,,3,,,75,127
69302,note_off,120,0,0,,3,,,75,127
69302,note_off,0,0,0,,3,,,51,127
69303,note_on,1,0,0,,5,,,53,127
69303,note_on,0,0,0,,3,,,75,127
69362,note_off,59,0,0,,3,,,75,127
69363,note_on,1,0,0,,2,,,74,127
69422,note_off,59,0,0,,2,,,74,127
69423,note_on,1,0,0,,0,,,72,127
69482,note_off,59,0,0,,0,,,72,127
69483,note_on,1,0,0,,11,,,70,127
69542,note_off,59,0,0,,5,,,53,127
69543,note_on,1,0,0,,5,,,41,127
69602,note_off,59,0,0,,11,,,70,127
69664,note_on,62,0,0,,10,,,69,127
69664,note_on,0,0,0,,0,,,72,127
69784,note_off,120,0,0,,0,,,72,127
69784,note_off,0,0,0,,10,,,69,127
69784,note_off,0,0,0,,5,,,41,127
69785,note_on,1,0,0,,11,,,46,127
69785,note_on,0,0,0,,2,,,74,127
69785,note_on,0,0,0,,11,,,70,127
69905,note_off,120,0,0,,11,,,70,127
69905,note_off,0,0,0,,2,,,74,127
69906,note_on,1,0,0,,11,,,70,127
70026,note_off,120,0,0,,11,,,70,127
70026,note_off,0,0,0,,11,,,46,127
70027,note_on,1,0,0,,3,,,51,127
70027,note_on,0,0,0,,7,,,67,127
70147,note_off,120,0,0,,7,,,67,127
70148,note_on,1,0,0,,3,,,63,127
70268,note_off,120,0,0,,3,,,63,127
70268,note_off,0,0,0,,3,,,51,127
70269,note_on,1,0,0,,5,,,53,127
70269,note_on,0,0,0,,3,,,63,127
70328,note_off,59,0,0,,3,,,63,127
70329,note_on,1,0,0,,2,,,62,127
70388,note_off,59,0,0,,2,,,62,127
70389,note_on,1,0,0,,0,,,60,127
70448,note_off,59,0,0,,0,,,60,127
70449,note_on,1,0,0,,11,,,58,127
70508,note_off,59,0,0,,5,,,53,127
70509,note_on,1,0,0,,5,,,41,127
70568,note_off,59,0,0,,11,,,58,127
70630,note_on,62,0,0,,10,,,57,127
70630,note_on,0,0,0,,0,,,60,127
70750,note_off,120,0,0,,0,,,60,127
70750,note_off,0,0,0,,10,,,57,127
70750,note_off,0,0,0,,5,,,41,127
70751,note_on,1,0,0,,11,,,46,127
70751,note_on,0,0,0,,2,,,62,127
70751,note_on,0,0,0,,11,,,58,127
70871,note_off,120,0,0,,11,,,58,127
70871,note_off,0,0,0,,2,,,62,127
70872,note_on,1,0,0,,11,,,70,127
70992,note_off,120,0,0,,11,,,70,127
70992,note_off,0,0,0,,11,,,46,127
70993,note_on,1,0,0,,3,,,51,127
70993,note_on,0,0,0,,7,,,67,127
71113,note_off,120,0,0,,7,,,67,127
71114,note_on,1,0,0,,3,,,63,127
71234,note_off,120,0,0,,3,,,63,127
71234,note_off,0,0,0,,3,,,51,127
71235,note_on,1,0,0,,5,,,53,127
71235,note_on,0,0,0,,3,,,63,127
71294,note_off,59,0,0,,3,,,63,127
71295,note_on,1,0,0,,2,,,62,127
71354,note_off,59,0,0,,2,,,62,127
71355,note_on,1,0,0,,0,,,60,127
71414,note_off,59,0,0,,0,,,60,127
71415,note_on,1,0,0,,11,,,58,127
71474,note_off,59,0,0,,5,,,53,127
71475,note_on,1,0,0,,5,,,41,127
71534,note_off,59,0,0,,11,,,58,127
71596,note_on,62,0,0,,10,,,57,127
71596,note_on,0,0,0,,0,,,60,127
71716,note_off,120,0,0,,0,,,60,127
71716,note_off,0,0,0,,10,,,57,127
71716,note_off,0,0,0,,5,,,41,127
71717,note_on,1,0,0,,11,,,34,127
71717,note_on,0,0,0,,0,,,60,127
71776,note_off,59,0,0,,0,,,60,127
71777,note_on,1,0,0,,11,,,58,127
71836,note_off,59,0,0,,11,,,58,127
71837,note_on,1,0,0,,0,,,60,127
71896,note_off,59,0,0,,0,,,60,127
71897,note_on,1,0,0,,11,,,58,127
73534,note_off,1637,0,0,,11,,,58,127
73534,note_off,0,0,0,,11,,,34,127
75264,end_of_track,1730,1,0,,,,,,
