tick,type,time,meta,track,program,channel,pitch,tempo,note,velocity
0,copyright,0,1,0,,,,,,
0,program_change,0,0,0,6,0,,,,
0,pitchwheel,0,0,0,,0,0,,,
0,program_change,0,0,0,6,1,,,,
0,pitchwheel,0,0,0,,1,-590,,,
0,program_change,0,0,0,6,2,,,,
0,pitchwheel,0,0,0,,2,-272,,,
0,program_change,0,0,0,6,3,,,,
0,pitchwheel,0,0,0,,3,-353,,,
0,program_change,0,0,0,6,4,,,,
0,pitchwheel,0,0,0,,4,-560,,,
0,program_change,0,0,0,6,5,,,,
0,pitchwheel,0,0,0,,5,-80,,,
0,program_change,0,0,0,6,6,,,,
0,pitchwheel,0,0,0,,6,-625,,,
0,program_change,0,0,0,6,7,,,,
0,pitchwheel,0,0,0,,7,-130,,,
0,program_change,0,0,0,6,8,,,,
0,pitchwheel,0,0,0,,8,-512,,,
0,program_change,0,0,0,6,10,,,,
0,pitchwheel,0,0,0,,10,-464,,,
0,program_change,0,0,0,6,11,,,,
0,pitchwheel,0,0,0,,11,-208,,,
0,program_change,0,0,0,6,12,,,,
0,pitchwheel,0,0,0,,12,-553,,,
0,set_tempo,0,1,0,,,,500000,,
115,note_on,115,0,0,,11,,,82,127
229,note_off,114,0,0,,11,,,82,127
230,note_on,1,0,0,,5,,,77,127
344,note_off,114,0,0,,5,,,77,127
345,note_on,1,0,0,,2,,,74,127
459,note_off,114,0,0,,2,,,74,127
460,note_on,1,0,0,,3,,,75,127
574,note_off,114,0,0,,3,,,75,127
575,note_on,1,0,0,,5,,,77,127
689,note_off,114,0,0,,5,,,77,127
690,note_on,1,0,0,,7,,,79,127
804,note_off,114,0,0,,7,,,79,127
805,note_on,1,0,0,,11,,,70,127
805,note_on,0,0,0,,5,,,77,127
919,note_off,114,0,0,,11,,,70,127
920,note_on,1,0,0,,5,,,65,127
1034,note_off,114,0,0,,5,,,65,127
1035,note_on,1,0,0,,2,,,62,127
1149,note_off,114,0,0,,2,,,62,127
1150,note_on,1,0,0,,3,,,63,127
1264,note_off,114,0,0,,3,,,63,127
1265,note_on,1,0,0,,5,,,65,127
1379,note_off,114,0,0,,5,,,65,127
1380,note_on,1,0,0,,7,,,67,127
1494,note_off,114,0,0,,7,,,67,127
1495,note_on,1,0,0,,5,,,65,127
1609,note_off,114,0,0,,5,,,77,127
1610,note_on,1,0,0,,5,,,77,127
1724,note_off,114,0,0,,5,,,77,127
1725,note_on,1,0,0,,10,,,69,127
1839,note_off,114,0,0,,10,,,69,127
1840,note_on,1,0,0,,11,,,70,127
1954,note_off,114,0,0,,11,,,70,127
1954,note_off,0,0,0,,5,,,65,127
1955,note_on,1,0,0,,5,,,65,127
1955,note_on,0,0,0,,0,,,72,127
2069,note_off,114,0,0,,0,,,72,127
2070,note_on,1,0,0,,2,,,74,127
2184,note_off,114,0,0,,2,,,74,127
2184,note_off,0,0,0,,5,,,65,127
2185,note_on,1,0,0,,7,,,67,127
2185,note_on,0,0,0,,3,,,75,127
2299,note_off,114,0,0,,3,,,75,127
2300,note_on,1,0,0,,5,,,77,127
2414,note_off,114,0,0,,5,,,77,127
2415,note_on,1,0,0,,7,,,79,127
2529,note_off,114,0,0,,7,,,79,127
2530,note_on,1,0,0,,3,,,75,127
2644,note_off,114,0,0,,3,,,75,127
2644,note_off,0,0,0,,7,,,67,127
2645,note_on,1,0,0,,10,,,69,127
2645,note_on,0,0,0,,2,,,74,127
2759,note_off,114,0,0,,2,,,74,127
2760,note_on,1,0,0,,0,,,72,127
2874,note_off,114,0,0,,0,,,72,127
2874,note_off,0,0,0,,10,,,69,127
2875,note_on,1,0,0,,11,,,70,127
2875,note_on,0,0,0,,2,,,74,127
2989,note_off,114,0,0,,2,,,74,127
2990,note_on,1,0,0,,3,,,75,127
3104,note_off,114,0,0,,3,,,75,127
3105,note_on,1,0,0,,5,,,77,127
3219,note_off,114,0,0,,5,,,77,127
3220,note_on,1,0,0,,2,,,74,127
3334,note_off,114,0,0,,2,,,74,127
3334,note_off,0,0,0,,11,,,70,127
3335,note_on,1,0,0,,2,,,62,127
3335,note_on,0,0,0,,0,,,72,127
3449,note_off,114,0,0,,0,,,72,127
3450,note_on,1,0,0,,11,,,70,127
3564,note_off,114,0,0,,11,,,70,127
3564,note_off,0,0,0,,2,,,62,127
3565,note_on,1,0,0,,3,,,63,127
3565,note_on,0,0,0,,0,,,72,127
3679,note_off,114,0,0,,0,,,72,127
3680,note_on,1,0,0,,2,,,74,127
3794,note_off,114,0,0,,2,,,74,127
3795,note_on,1,0,0,,3,,,75,127
3909,note_off,114,0,0,,3,,,75,127
3910,note_on,1,0,0,,0,,,72,127
4024,note_off,114,0,0,,0,,,72,127
4024,note_off,0,0,0,,3,,,63,127
4025,note_on,1,0,0,,5,,,65,127
4025,note_on,0,0,0,,11,,,70,127
4139,note_off,114,0,0,,11,,,70,127
4140,note_on,1,0,0,,10,,,69,127
4254,note_off,114,0,0,,10,,,69,127
4254,note_off,0,0,0,,5,,,65,127
4255,note_on,1,0,0,,2,,,62,127
4255,note_on,0,0,0,,11,,,70,127
4369,note_off,114,0,0,,2,,,62,127
4370,note_on,1,0,0,,3,,,63,127
4484,note_off,114,0,0,,3,,,63,127
4485,note_on,1,0,0,,5,,,65,127
4599,note_off,114,0,0,,5,,,65,127
4600,note_on,1,0,0,,2,,,62,127
4714,note_off,114,0,0,,2,,,62,127
4715,note_on,1,0,0,,0,,,60,127
4829,note_off,114,0,0,,0,,,60,127
4830,note_off,1,0,0,,11,,,70,127
4830,note_on,0,0,0,,11,,,58,127
4944,note_off,114,0,0,,11,,,58,127
4945,note_on,1,0,0,,0,,,60,127
4945,note_on,0,0,0,,3,,,75,127
5059,note_off,114,0,0,,0,,,60,127
5060,note_on,1,0,0,,2,,,62,127
5174,note_off,114,0,0,,2,,,62,127
5175,note_on,1,0,0,,3,,,63,127
5289,note_off,114,0,0,,3,,,63,127
5290,note_on,1,0,0,,0,,,60,127
5404,note_off,114,0,0,,0,,,60,127
5405,note_on,1,0,0,,11,,,58,127
5519,note_off,114,0,0,,11,,,58,127
5520,note_on,1,0,0,,10,,,57,127
5544,note_off,24,0,0,,3,,,75,127
5634,note_off,90,0,0,,10,,,57,127
5635,note_on,1,0,0,,11,,,58,127
5635,note_on,0,0,0,,2,,,74,127
5749,note_off,114,0,0,,2,,,74,127
5750,note_on,1,0,0,,3,,,75,127
5864,note_off,114,0,0,,3,,,75,127
5864,note_off,0,0,0,,11,,,58,127
5865,note_on,1,0,0,,0,,,60,127
5865,note_on,0,0,0,,5,,,77,127
5979,note_off,114,0,0,,5,,,77,127
5980,note_on,1,0,0,,10,,,69,127
6094,note_off,114,0,0,,10,,,69,127
6094,note_off,0,0,0,,0,,,60,127
6095,note_on,1,0,0,,2,,,62,127
6095,note_on,0,0,0,,11,,,70,127
6209,note_off,114,0,0,,11,,,70,127
6210,note_on,1,0,0,,5,,,65,127
6324,note_off,114,0,0,,5,,,65,127
6324,note_off,0,0,0,,2,,,62,127
6325,note_on,1,0,0,,3,,,63,127
6325,note_on,0,0,0,,7,,,67,127
6439,note_off,114,0,0,,7,,,67,127
6440,note_on,1,0,0,,3,,,75,127
6554,note_off,114,0,0,,3,,,75,127
6554,note_off,0,0,0,,3,,,63,127
6555,note_on,1,0,0,,5,,,65,127
6555,note_on,0,0,0,,2,,,74,127
6669,note_off,114,0,0,,2,,,74,127
6670,note_on,1,0,0,,0,,,72,127
6784,note_off,114,0,0,,0,,,72,127
6785,note_on,1,0,0,,5,,,53,127
6785,note_on,0,0,0,,11,,,70,127
6899,note_off,114,0,0,,11,,,70,127
6900,note_on,1,0,0,,10,,,69,127
7014,note_off,114,0,0,,10,,,69,127
7014,note_off,0,0,0,,5,,,53,127
7014,note_off,0,0,0,,5,,,65,127
7015,note_on,1,0,0,,11,,,46,127
7015,note_on,0,0,0,,0,,,72,127
7068,note_on,53,0,0,,11,,,70,127
7084,note_off,16,0,0,,0,,,72,127
7121,note_on,37,0,0,,0,,,72,127
7137,note_off,16,0,0,,11,,,70,127
7174,note_on,37,0,0,,11,,,70,127
7190,note_off,16,0,0,,0,,,72,127
7228,note_on,38,0,0,,0,,,72,127
7242,note_off,14,0,0,,11,,,70,127
7280,note_on,38,0,0,,11,,,70,127
7296,note_off,16,0,0,,0,,,72,127
7334,note_on,38,0,0,,0,,,72,127
7348,note_off,14,0,0,,11,,,70,127
7386,note_on,38,0,0,,11,,,70,127
7402,note_off,16,0,0,,0,,,72,127
7440,note_on,38,0,0,,0,,,72,127
7454,note_off,14,0,0,,11,,,70,127
7492,note_on,38,0,0,,11,,,70,127
7508,note_off,16,0,0,,0,,,72,127
7546,note_on,38,0,0,,10,,,69,127
7560,note_off,14,0,0,,11,,,70,127
7598,note_on,38,0,0,,11,,,70,127
7614,note_off,16,0,0,,10,,,69,127
7651,note_on,37,0,0,,0,,,72,127
7661,note_off,10,0,0,,11,,,46,127
7667,note_off,6,0,0,,11,,,70,127
7704,note_on,37,0,0,,2,,,38,127
7704,note_on,0,0,0,,2,,,74,127
7720,note_off,16,0,0,,0,,,72,127
7820,note_on,100,0,0,,10,,,69,127
7934,note_off,114,0,0,,10,,,69,127
7935,note_on,1,0,0,,6,,,66,127
8049,note_off,114,0,0,,6,,,66,127
8050,note_off,1,0,0,,2,,,74,127
8050,note_on,0,0,0,,2,,,62,127
8164,note_off,114,0,0,,2,,,62,127
8165,note_on,1,0,0,,0,,,72,127
8280,note_on,115,0,0,,10,,,69,127
8394,note_off,114,0,0,,10,,,69,127
8394,note_off,0,0,0,,0,,,72,127
8394,note_off,0,0,0,,2,,,38,127
8395,note_on,1,0,0,,2,,,38,127
8395,note_on,0,0,0,,11,,,70,127
8509,note_off,114,0,0,,11,,,70,127
8510,note_on,1,0,0,,7,,,67,127
8624,note_off,114,0,0,,7,,,67,127
8625,note_on,1,0,0,,7,,,79,127
8739,note_off,114,0,0,,7,,,79,127
8740,note_on,1,0,0,,4,,,76,127
8854,note_off,114,0,0,,4,,,76,127
8855,note_on,1,0,0,,2,,,74,127
8969,note_off,114,0,0,,2,,,74,127
8970,note_on,1,0,0,,1,,,73,127
9084,note_off,114,0,0,,1,,,73,127
9084,note_off,0,0,0,,2,,,38,127
9085,note_on,1,0,0,,2,,,38,127
9085,note_on,0,0,0,,2,,,74,127
9200,note_on,115,0,0,,10,,,69,127
9314,note_off,114,0,0,,10,,,69,127
9315,note_on,1,0,0,,6,,,66,127
9429,note_off,114,0,0,,6,,,66,127
9430,note_off,1,0,0,,2,,,74,127
9430,note_on,0,0,0,,2,,,62,127
9544,note_off,114,0,0,,2,,,62,127
9545,note_on,1,0,0,,0,,,72,127
9660,note_on,115,0,0,,10,,,69,127
9774,note_off,114,0,0,,10,,,69,127
9774,note_off,0,0,0,,0,,,72,127
9774,note_off,0,0,0,,2,,,38,127
9775,note_on,1,0,0,,2,,,38,127
9775,note_on,0,0,0,,11,,,70,127
9889,note_off,114,0,0,,11,,,70,127
9890,note_on,1,0,0,,7,,,67,127
10004,note_off,114,0,0,,7,,,67,127
10005,note_on,1,0,0,,7,,,79,127
10119,note_off,114,0,0,,7,,,79,127
10120,note_on,1,0,0,,4,,,76,127
10234,note_off,114,0,0,,4,,,76,127
10235,note_on,1,0,0,,2,,,74,127
10349,note_off,114,0,0,,2,,,74,127
10350,note_on,1,0,0,,1,,,73,127
10464,note_off,114,0,0,,1,,,73,127
10464,note_off,0,0,0,,2,,,38,127
10465,note_on,1,0,0,,2,,,62,127
10465,note_on,0,0,0,,4,,,76,127
10503,note_on,38,0,0,,2,,,74,127
10533,note_off,30,0,0,,4,,,76,127
10541,note_on,8,0,0,,4,,,76,127
10571,note_off,30,0,0,,2,,,74,127
10579,note_on,8,0,0,,10,,,57,127
10579,note_on,0,0,0,,2,,,74,127
10609,note_off,30,0,0,,4,,,76,127
10617,note_on,8,0,0,,4,,,76,127
10647,note_off,30,0,0,,2,,,74,127
10655,note_on,8,0,0,,2,,,74,127
10685,note_off,30,0,0,,4,,,76,127
10692,note_off,7,0,0,,10,,,57,127
10692,note_off,0,0,0,,2,,,62,127
10693,note_on,1,0,0,,6,,,54,127
10807,note_off,114,0,0,,6,,,54,127
10808,note_on,1,0,0,,2,,,50,127
10922,note_off,114,0,0,,2,,,50,127
10923,note_on,1,0,0,,0,,,60,127
11037,note_off,114,0,0,,0,,,60,127
11038,note_on,1,0,0,,10,,,57,127
11114,note_off,76,0,0,,2,,,74,127
11152,note_off,38,0,0,,10,,,57,127
11153,note_on,1,0,0,,11,,,58,127
11153,note_on,0,0,0,,4,,,76,127
11191,note_on,38,0,0,,2,,,74,127
11221,note_off,30,0,0,,4,,,76,127
11229,note_on,8,0,0,,4,,,76,127
11259,note_off,30,0,0,,2,,,74,127
11266,note_off,7,0,0,,11,,,58,127
11267,note_on,1,0,0,,7,,,55,127
11267,note_on,0,0,0,,2,,,74,127
11297,note_off,30,0,0,,4,,,76,127
11305,note_on,8,0,0,,4,,,76,127
11335,note_off,30,0,0,,2,,,74,127
11343,note_on,8,0,0,,2,,,74,127
11373,note_off,30,0,0,,4,,,76,127
11380,note_off,7,0,0,,7,,,55,127
11381,note_on,1,0,0,,7,,,67,127
11495,note_off,114,0,0,,7,,,67,127
11496,note_on,1,0,0,,4,,,64,127
11610,note_off,114,0,0,,4,,,64,127
11611,note_on,1,0,0,,2,,,62,127
11725,note_off,114,0,0,,2,,,62,127
11726,note_on,1,0,0,,1,,,61,127
11802,note_off,76,0,0,,2,,,74,127
11840,note_off,38,0,0,,1,,,61,127
11841,note_on,1,0,0,,2,,,62,127
11841,note_on,0,0,0,,4,,,76,127
11879,note_on,38,0,0,,2,,,74,127
11909,note_off,30,0,0,,4,,,76,127
11917,note_on,8,0,0,,4,,,76,127
11947,note_off,30,0,0,,2,,,74,127
11955,note_on,8,0,0,,10,,,57,127
11955,note_on,0,0,0,,2,,,74,127
11985,note_off,30,0,0,,4,,,76,127
11993,note_on,8,0,0,,4,,,76,127
12023,note_off,30,0,0,,2,,,74,127
12031,note_on,8,0,0,,2,,,74,127
12061,note_off,30,0,0,,4,,,76,127
12068,note_off,7,0,0,,10,,,57,127
12068,note_off,0,0,0,,2,,,62,127
12069,note_on,1,0,0,,6,,,54,127
12183,note_off,114,0,0,,6,,,54,127
12184,note_on,1,0,0,,2,,,50,127
12298,note_off,114,0,0,,2,,,50,127
12299,note_on,1,0,0,,0,,,60,127
12413,note_off,114,0,0,,0,,,60,127
12414,note_on,1,0,0,,10,,,57,127
12490,note_off,76,0,0,,2,,,74,127
12528,note_off,38,0,0,,10,,,57,127
12529,note_on,1,0,0,,11,,,58,127
12529,note_on,0,0,0,,4,,,76,127
12567,note_on,38,0,0,,2,,,74,127
12597,note_off,30,0,0,,4,,,76,127
12605,note_on,8,0,0,,4,,,76,127
12635,note_off,30,0,0,,2,,,74,127
12642,note_off,7,0,0,,11,,,58,127
12643,note_on,1,0,0,,7,,,55,127
12643,note_on,0,0,0,,2,,,74,127
12673,note_off,30,0,0,,4,,,76,127
12681,note_on,8,0,0,,4,,,76,127
12711,note_off,30,0,0,,2,,,74,127
12719,note_on,8,0,0,,2,,,74,127
12749,note_off,30,0,0,,4,,,76,127
12756,note_off,7,0,0,,7,,,55,127
12757,note_on,1,0,0,,7,,,67,127
12871,note_off,114,0,0,,7,,,67,127
12872,note_on,1,0,0,,4,,,64,127
12986,note_off,114,0,0,,4,,,64,127
12987,note_on,1,0,0,,2,,,62,127
13101,note_off,114,0,0,,2,,,62,127
13102,note_on,1,0,0,,1,,,61,127
13178,note_off,76,0,0,,2,,,74,127
13216,note_off,38,0,0,,1,,,61,127
13217,note_on,1,0,0,,2,,,62,127
13217,note_on,0,0,0,,4,,,76,127
13255,note_on,38,0,0,,2,,,74,127
13285,note_off,30,0,0,,4,,,76,127
13293,note_on,8,0,0,,4,,,76,127
13323,note_off,30,0,0,,2,,,74,127
13331,note_on,8,0,0,,2,,,50,127
13331,note_on,0,0,0,,2,,,74,127
13361,note_off,30,0,0,,4,,,76,127
13369,note_on,8,0,0,,4,,,76,127
13399,note_off,30,0,0,,2,,,74,127
13407,note_on,8,0,0,,2,,,74,127
13437,note_off,30,0,0,,4,,,76,127
13444,note_off,7,0,0,,2,,,50,127
13444,note_off,0,0,0,,2,,,62,127
13445,note_on,1,0,0,,10,,,69,127
13559,note_off,114,0,0,,10,,,69,127
13560,note_on,1,0,0,,6,,,66,127
13674,note_off,114,0,0,,6,,,66,127
13675,note_on,1,0,0,,2,,,62,127
13789,note_off,114,0,0,,2,,,62,127
13790,note_on,1,0,0,,0,,,60,127
13866,note_off,76,0,0,,2,,,74,127
13906,note_on,40,0,0,,5,,,77,127
13947,note_on,41,0,0,,3,,,75,127
13975,note_off,28,0,0,,5,,,77,127
13988,note_on,13,0,0,,5,,,77,127
14016,note_off,28,0,0,,3,,,75,127
14022,note_on,6,0,0,,0,,,48,127
14029,note_on,7,0,0,,3,,,75,127
14057,note_off,28,0,0,,5,,,77,127
14070,note_on,13,0,0,,5,,,77,127
14098,note_off,28,0,0,,3,,,75,127
14111,note_on,13,0,0,,3,,,75,127
14136,note_off,25,0,0,,0,,,48,127
14136,note_off,0,0,0,,0,,,60,127
14137,note_on,1,0,0,,3,,,63,127
14138,note_off,1,0,0,,5,,,77,127
14251,note_off,113,0,0,,3,,,63,127
14252,note_on,1,0,0,,0,,,60,127
14366,note_off,114,0,0,,0,,,60,127
14367,note_on,1,0,0,,11,,,58,127
14481,note_off,114,0,0,,11,,,58,127
14482,note_on,1,0,0,,10,,,57,127
14596,note_off,114,0,0,,10,,,57,127
14597,note_on,1,0,0,,11,,,58,127
14635,note_on,38,0,0,,2,,,74,127
14637,note_off,2,0,0,,3,,,75,127
14675,note_on,38,0,0,,3,,,75,127
14703,note_off,28,0,0,,2,,,74,127
14711,note_on,8,0,0,,11,,,46,127
14716,note_on,5,0,0,,2,,,74,127
14744,note_off,28,0,0,,3,,,75,127
14757,note_on,13,0,0,,3,,,75,127
14785,note_off,28,0,0,,2,,,74,127
14798,note_on,13,0,0,,2,,,74,127
14826,note_off,28,0,0,,3,,,75,127
14826,note_off,0,0,0,,11,,,46,127
14826,note_off,0,0,0,,11,,,58,127
14827,note_on,1,0,0,,2,,,62,127
14941,note_off,114,0,0,,2,,,62,127
14942,note_on,1,0,0,,11,,,58,127
15056,note_off,114,0,0,,11,,,58,127
15057,note_on,1,0,0,,10,,,57,127
15171,note_off,114,0,0,,10,,,57,127
15172,note_on,1,0,0,,7,,,55,127
15286,note_off,114,0,0,,7,,,55,127
15287,note_on,1,0,0,,10,,,57,127
15325,note_on,38,0,0,,0,,,72,127
15335,note_off,10,0,0,,2,,,74,127
15366,note_on,31,0,0,,2,,,74,127
15394,note_off,28,0,0,,0,,,72,127
15402,note_on,8,0,0,,10,,,45,127
15407,note_on,5,0,0,,0,,,72,127
15435,note_off,28,0,0,,2,,,74,127
15448,note_on,13,0,0,,2,,,74,127
15476,note_off,28,0,0,,0,,,72,127
15489,note_on,13,0,0,,0,,,72,127
15517,note_off,28,0,0,,2,,,74,127
15517,note_off,0,0,0,,10,,,45,127
15517,note_off,0,0,0,,10,,,57,127
15518,note_on,1,0,0,,0,,,60,127
15632,note_off,114,0,0,,0,,,60,127
15633,note_on,1,0,0,,10,,,57,127
15747,note_off,114,0,0,,10,,,57,127
15748,note_on,1,0,0,,7,,,55,127
15862,note_off,114,0,0,,7,,,55,127
15863,note_on,1,0,0,,6,,,54,127
15948,note_off,85,0,0,,0,,,72,127
15977,note_off,29,0,0,,6,,,54,127
15978,note_on,1,0,0,,7,,,43,127
15978,note_on,0,0,0,,7,,,55,127
15978,note_on,0,0,0,,11,,,70,127
16092,note_off,114,0,0,,11,,,70,127
16093,note_on,1,0,0,,7,,,67,127
16207,note_off,114,0,0,,7,,,67,127
16207,note_off,0,0,0,,7,,,55,127
16207,note_off,0,0,0,,7,,,43,127
16208,note_on,1,0,0,,10,,,45,127
16208,note_on,0,0,0,,2,,,74,127
16323,note_on,115,0,0,,5,,,65,127
16437,note_off,114,0,0,,5,,,65,127
16437,note_off,0,0,0,,2,,,74,127
16437,note_off,0,0,0,,10,,,45,127
16438,note_on,1,0,0,,11,,,46,127
16438,note_on,0,0,0,,4,,,64,127
16552,note_off,114,0,0,,4,,,64,127
16553,note_on,1,0,0,,2,,,62,127
16667,note_off,114,0,0,,2,,,62,127
16667,note_off,0,0,0,,11,,,46,127
16668,note_on,1,0,0,,0,,,48,127
16668,note_on,0,0,0,,4,,,76,127
16782,note_off,114,0,0,,4,,,76,127
16783,note_on,1,0,0,,0,,,72,127
16897,note_off,114,0,0,,0,,,72,127
16897,note_off,0,0,0,,0,,,48,127
16898,note_on,1,0,0,,2,,,50,127
16898,note_on,0,0,0,,7,,,79,127
17013,note_on,115,0,0,,11,,,70,127
17127,note_off,114,0,0,,11,,,70,127
17127,note_off,0,0,0,,7,,,79,127
17127,note_off,0,0,0,,2,,,50,127
17128,note_on,1,0,0,,4,,,52,127
17128,note_on,0,0,0,,10,,,69,127
17242,note_off,114,0,0,,10,,,69,127
17243,note_on,1,0,0,,7,,,67,127
17357,note_off,114,0,0,,7,,,67,127
17357,note_off,0,0,0,,4,,,52,127
17358,note_on,1,0,0,,5,,,53,127
17358,note_on,0,0,0,,5,,,41,127
17358,note_on,0,0,0,,10,,,69,127
17472,note_off,114,0,0,,10,,,69,127
17473,note_on,1,0,0,,5,,,65,127
17587,note_off,114,0,0,,5,,,65,127
17587,note_off,0,0,0,,5,,,41,127
17587,note_off,0,0,0,,5,,,53,127
17588,note_on,1,0,0,,7,,,43,127
17588,note_on,0,0,0,,0,,,72,127
17703,note_on,115,0,0,,3,,,63,127
17817,note_off,114,0,0,,3,,,63,127
17817,note_off,0,0,0,,0,,,72,127
17817,note_off,0,0,0,,7,,,43,127
17818,note_on,1,0,0,,10,,,45,127
17818,note_on,0,0,0,,2,,,62,127
17932,note_off,114,0,0,,2,,,62,127
17933,note_on,1,0,0,,0,,,60,127
18047,note_off,114,0,0,,0,,,60,127
18047,note_off,0,0,0,,10,,,45,127
18048,note_on,1,0,0,,11,,,46,127
18048,note_on,0,0,0,,2,,,62,127
18162,note_off,114,0,0,,2,,,62,127
18163,note_on,1,0,0,,11,,,70,127
18277,note_off,114,0,0,,11,,,70,127
18277,note_off,0,0,0,,11,,,46,127
18278,note_on,1,0,0,,0,,,48,127
18278,note_on,0,0,0,,4,,,64,127
18392,note_off,114,0,0,,4,,,64,127
18393,note_on,1,0,0,,7,,,67,127
18507,note_off,114,0,0,,7,,,67,127
18507,note_off,0,0,0,,0,,,48,127
18508,note_on,1,0,0,,2,,,50,127
18508,note_on,0,0,0,,5,,,65,127
18622,note_off,114,0,0,,5,,,65,127
18623,note_on,1,0,0,,10,,,69,127
18737,note_off,114,0,0,,10,,,69,127
18737,note_off,0,0,0,,2,,,50,127
18738,note_on,1,0,0,,4,,,52,127
18738,note_on,0,0,0,,7,,,67,127
18852,note_off,114,0,0,,7,,,67,127
18853,note_on,1,0,0,,11,,,70,127
18967,note_off,114,0,0,,11,,,70,127
18967,note_off,0,0,0,,4,,,52,127
18968,note_on,1,0,0,,5,,,53,127
18968,note_on,0,0,0,,10,,,69,127
19082,note_off,114,0,0,,10,,,69,127
19083,note_on,1,0,0,,0,,,72,127
19197,note_off,114,0,0,,0,,,72,127
19198,note_on,1,0,0,,5,,,41,127
19198,note_on,0,0,0,,0,,,72,127
19198,note_on,0,0,0,,11,,,70,127
19312,note_off,114,0,0,,11,,,70,127
19312,note_off,0,0,0,,0,,,72,127
19313,note_off,1,0,0,,5,,,53,127
19313,note_on,0,0,0,,10,,,69,127
19427,note_off,114,0,0,,10,,,69,127
19427,note_off,0,0,0,,5,,,41,127
19428,note_on,1,0,0,,0,,,36,127
19428,note_on,0,0,0,,0,,,72,127
19543,note_on,115,0,0,,7,,,67,127
19657,note_off,114,0,0,,7,,,67,127
19658,note_on,1,0,0,,4,,,64,127
19772,note_off,114,0,0,,4,,,64,127
19773,note_off,1,0,0,,0,,,72,127
19773,note_on,0,0,0,,0,,,60,127
19887,note_off,114,0,0,,0,,,60,127
19888,note_on,1,0,0,,11,,,70,127
20003,note_on,115,0,0,,7,,,67,127
20117,note_off,114,0,0,,7,,,67,127
20117,note_off,0,0,0,,11,,,70,127
20117,note_off,0,0,0,,0,,,36,127
20118,note_on,1,0,0,,0,,,36,127
20118,note_on,0,0,0,,10,,,69,127
20232,note_off,114,0,0,,10,,,69,127
20233,note_on,1,0,0,,5,,,65,127
20347,note_off,114,0,0,,5,,,65,127
20348,note_on,1,0,0,,5,,,77,127
20462,note_off,114,0,0,,5,,,77,127
20463,note_on,1,0,0,,2,,,74,127
20577,note_off,114,0,0,,2,,,74,127
20578,note_on,1,0,0,,0,,,72,127
20692,note_off,114,0,0,,0,,,72,127
20693,note_on,1,0,0,,12,,,71,127
20807,note_off,114,0,0,,12,,,71,127
20807,note_off,0,0,0,,0,,,36,127
20808,note_on,1,0,0,,0,,,60,127
20808,note_on,0,0,0,,2,,,74,127
20846,note_on,38,0,0,,0,,,72,127
20876,note_off,30,0,0,,2,,,74,127
20884,note_on,8,0,0,,2,,,74,127
20914,note_off,30,0,0,,0,,,72,127
20922,note_on,8,0,0,,7,,,55,127
20922,note_on,0,0,0,,0,,,72,127
20952,note_off,30,0,0,,2,,,74,127
20960,note_on,8,0,0,,2,,,74,127
20990,note_off,30,0,0,,0,,,72,127
20998,note_on,8,0,0,,0,,,72,127
21028,note_off,30,0,0,,2,,,74,127
21035,note_off,7,0,0,,7,,,55,127
21035,note_off,0,0,0,,0,,,60,127
21036,note_on,1,0,0,,4,,,52,127
21150,note_off,114,0,0,,4,,,52,127
21151,note_on,1,0,0,,0,,,48,127
21265,note_off,114,0,0,,0,,,48,127
21266,note_on,1,0,0,,11,,,58,127
21380,note_off,114,0,0,,11,,,58,127
21381,note_on,1,0,0,,7,,,55,127
21457,note_off,76,0,0,,0,,,72,127
21495,note_off,38,0,0,,7,,,55,127
21496,note_on,1,0,0,,10,,,57,127
21496,note_on,0,0,0,,2,,,74,127
21534,note_on,38,0,0,,0,,,72,127
21564,note_off,30,0,0,,2,,,74,127
21572,note_on,8,0,0,,2,,,74,127
21602,note_off,30,0,0,,0,,,72,127
21609,note_off,7,0,0,,10,,,57,127
21610,note_on,1,0,0,,5,,,53,127
21610,note_on,0,0,0,,0,,,72,127
21640,note_off,30,0,0,,2,,,74,127
21648,note_on,8,0,0,,2,,,74,127
21678,note_off,30,0,0,,0,,,72,127
21686,note_on,8,0,0,,0,,,72,127
21716,note_off,30,0,0,,2,,,74,127
21723,note_off,7,0,0,,5,,,53,127
21724,note_on,1,0,0,,5,,,65,127
21838,note_off,114,0,0,,5,,,65,127
21839,note_on,1,0,0,,2,,,62,127
21953,note_off,114,0,0,,2,,,62,127
21954,note_on,1,0,0,,0,,,60,127
22068,note_off,114,0,0,,0,,,60,127
22069,note_on,1,0,0,,12,,,59,127
22145,note_off,76,0,0,,0,,,72,127
22183,note_off,38,0,0,,12,,,59,127
22184,note_on,1,0,0,,0,,,36,127
22184,note_on,0,0,0,,0,,,72,127
22299,note_on,115,0,0,,7,,,67,127
22413,note_off,114,0,0,,7,,,67,127
22414,note_on,1,0,0,,4,,,64,127
22528,note_off,114,0,0,,4,,,64,127
22529,note_off,1,0,0,,0,,,72,127
22529,note_on,0,0,0,,0,,,60,127
22643,note_off,114,0,0,,0,,,60,127
22644,note_on,1,0,0,,11,,,70,127
22759,note_on,115,0,0,,7,,,67,127
22873,note_off,114,0,0,,7,,,67,127
22873,note_off,0,0,0,,11,,,70,127
22873,note_off,0,0,0,,0,,,36,127
22874,note_on,1,0,0,,0,,,36,127
22874,note_on,0,0,0,,10,,,69,127
22988,note_off,114,0,0,,10,,,69,127
22989,note_on,1,0,0,,5,,,65,127
23103,note_off,114,0,0,,5,,,65,127
23104,note_on,1,0,0,,5,,,77,127
23218,note_off,114,0,0,,5,,,77,127
23219,note_on,1,0,0,,2,,,74,127
23333,note_off,114,0,0,,2,,,74,127
23334,note_on,1,0,0,,0,,,72,127
23448,note_off,114,0,0,,0,,,72,127
23449,note_on,1,0,0,,12,,,71,127
23563,note_off,114,0,0,,12,,,71,127
23563,note_off,0,0,0,,0,,,36,127
23564,note_on,1,0,0,,0,,,60,127
23564,note_on,0,0,0,,2,,,74,127
23602,note_on,38,0,0,,0,,,72,127
23632,note_off,30,0,0,,2,,,74,127
23640,note_on,8,0,0,,2,,,74,127
23670,note_off,30,0,0,,0,,,72,127
23678,note_on,8,0,0,,7,,,55,127
23678,note_on,0,0,0,,0,,,72,127
23708,note_off,30,0,0,,2,,,74,127
23716,note_on,8,0,0,,2,,,74,127
23746,note_off,30,0,0,,0,,,72,127
23754,note_on,8,0,0,,0,,,72,127
23784,note_off,30,0,0,,2,,,74,127
23791,note_off,7,0,0,,7,,,55,127
23791,note_off,0,0,0,,0,,,60,127
23792,note_on,1,0,0,,4,,,52,127
23906,note_off,114,0,0,,4,,,52,127
23907,note_on,1,0,0,,0,,,48,127
24021,note_off,114,0,0,,0,,,48,127
24022,note_on,1,0,0,,11,,,58,127
24136,note_off,114,0,0,,11,,,58,127
24137,note_on,1,0,0,,7,,,55,127
24213,note_off,76,0,0,,0,,,72,127
24251,note_off,38,0,0,,7,,,55,127
24252,note_on,1,0,0,,10,,,57,127
24252,note_on,0,0,0,,2,,,74,127
24290,note_on,38,0,0,,0,,,72,127
24320,note_off,30,0,0,,2,,,74,127
24328,note_on,8,0,0,,2,,,74,127
24358,note_off,30,0,0,,0,,,72,127
24365,note_off,7,0,0,,10,,,57,127
24366,note_on,1,0,0,,5,,,53,127
24366,note_on,0,0,0,,0,,,72,127
24396,note_off,30,0,0,,2,,,74,127
24404,note_on,8,0,0,,2,,,74,127
24434,note_off,30,0,0,,0,,,72,127
24442,note_on,8,0,0,,0,,,72,127
24472,note_off,30,0,0,,2,,,74,127
24479,note_off,7,0,0,,5,,,53,127
24480,note_on,1,0,0,,5,,,65,127
24594,note_off,114,0,0,,5,,,65,127
24595,note_on,1,0,0,,2,,,62,127
24709,note_off,114,0,0,,2,,,62,127
24710,note_on,1,0,0,,0,,,60,127
24824,note_off,114,0,0,,0,,,60,127
24825,note_on,1,0,0,,12,,,59,127
24901,note_off,76,0,0,,0,,,72,127
24939,note_off,38,0,0,,12,,,59,127
24940,note_on,1,0,0,,0,,,36,127
24940,note_on,0,0,0,,0,,,48,127
24940,note_on,0,0,0,,0,,,72,127
25055,note_on,115,0,0,,7,,,67,127
25169,note_off,114,0,0,,7,,,67,127
25169,note_off,0,0,0,,0,,,48,127
25169,note_off,0,0,0,,0,,,36,127
25170,note_on,1,0,0,,2,,,50,127
25170,note_on,0,0,0,,2,,,38,127
25170,note_on,0,0,0,,4,,,64,127
25284,note_off,114,0,0,,4,,,64,127
25285,note_off,1,0,0,,0,,,72,127
25285,note_on,0,0,0,,0,,,60,127
25399,note_off,114,0,0,,0,,,60,127
25399,note_off,0,0,0,,2,,,38,127
25399,note_off,0,0,0,,2,,,50,127
25400,note_on,1,0,0,,4,,,40,127
25400,note_on,0,0,0,,4,,,52,127
25400,note_on,0,0,0,,11,,,70,127
25515,note_on,115,0,0,,7,,,67,127
25629,note_off,114,0,0,,7,,,67,127
25629,note_off,0,0,0,,11,,,70,127
25629,note_off,0,0,0,,4,,,52,127
25629,note_off,0,0,0,,4,,,40,127
25630,note_on,1,0,0,,5,,,41,127
25630,note_on,0,0,0,,5,,,53,127
25630,note_on,0,0,0,,10,,,69,127
25744,note_off,114,0,0,,10,,,69,127
25745,note_on,1,0,0,,5,,,65,127
25859,note_off,114,0,0,,5,,,65,127
25859,note_off,0,0,0,,5,,,53,127
25859,note_off,0,0,0,,5,,,41,127
25860,note_on,1,0,0,,7,,,55,127
25860,note_on,0,0,0,,7,,,43,127
25860,note_on,0,0,0,,10,,,69,127
25974,note_off,114,0,0,,10,,,69,127
25975,note_on,1,0,0,,0,,,72,127
26089,note_off,114,0,0,,0,,,72,127
26089,note_off,0,0,0,,7,,,43,127
26089,note_off,0,0,0,,7,,,55,127
26090,note_on,1,0,0,,10,,,57,127
26090,note_on,0,0,0,,10,,,45,127
26090,note_on,0,0,0,,5,,,77,127
26204,note_off,114,0,0,,5,,,77,127
26205,note_on,1,0,0,,0,,,72,127
26319,note_off,114,0,0,,0,,,72,127
26319,note_off,0,0,0,,10,,,45,127
26319,note_off,0,0,0,,10,,,57,127
26320,note_on,1,0,0,,11,,,58,127
26320,note_on,0,0,0,,11,,,46,127
26320,note_on,0,0,0,,2,,,74,127
26434,note_off,114,0,0,,2,,,74,127
26435,note_on,1,0,0,,11,,,70,127
26549,note_off,114,0,0,,11,,,70,127
26549,note_off,0,0,0,,11,,,46,127
26549,note_off,0,0,0,,11,,,58,127
26550,note_on,1,0,0,,0,,,60,127
26550,note_on,0,0,0,,10,,,69,127
26664,note_off,114,0,0,,10,,,69,127
26665,note_on,1,0,0,,7,,,67,127
26779,note_off,114,0,0,,7,,,67,127
26780,note_on,1,0,0,,0,,,48,127
26780,note_on,0,0,0,,5,,,65,127
26894,note_off,114,0,0,,5,,,65,127
26895,note_on,1,0,0,,4,,,64,127
27009,note_off,114,0,0,,4,,,64,127
27009,note_off,0,0,0,,0,,,48,127
27009,note_off,0,0,0,,0,,,60,127
27010,note_on,1,0,0,,5,,,53,127
27010,note_on,0,0,0,,5,,,65,127
27125,note_on,115,0,0,,4,,,76,127
27239,note_off,114,0,0,,4,,,76,127
27239,note_off,0,0,0,,5,,,53,127
27240,note_on,1,0,0,,5,,,53,127
27240,note_on,0,0,0,,5,,,77,127
27354,note_off,114,0,0,,5,,,65,127
27355,note_on,1,0,0,,5,,,65,127
27469,note_off,114,0,0,,5,,,77,127
27469,note_off,0,0,0,,5,,,53,127
27470,note_on,1,0,0,,4,,,64,127
27470,note_on,0,0,0,,4,,,52,127
27470,note_on,0,0,0,,4,,,76,127
27584,note_off,114,0,0,,4,,,76,127
27585,note_on,1,0,0,,5,,,77,127
27699,note_off,114,0,0,,4,,,52,127
27699,note_off,0,0,0,,4,,,64,127
27699,note_off,0,0,0,,5,,,65,127
27700,note_on,1,0,0,,2,,,50,127
27700,note_on,0,0,0,,2,,,62,127
27700,note_on,0,0,0,,5,,,65,127
27814,note_off,114,0,0,,5,,,77,127
27815,note_on,1,0,0,,4,,,76,127
27929,note_off,114,0,0,,4,,,76,127
27929,note_off,0,0,0,,2,,,62,127
27929,note_off,0,0,0,,2,,,50,127
27930,note_on,1,0,0,,0,,,60,127
27930,note_on,0,0,0,,0,,,48,127
27930,note_on,0,0,0,,5,,,77,127
28044,note_off,114,0,0,,5,,,65,127
28045,note_on,1,0,0,,5,,,65,127
28159,note_off,114,0,0,,5,,,77,127
28159,note_off,0,0,0,,0,,,48,127
28159,note_off,0,0,0,,0,,,60,127
28160,note_on,1,0,0,,11,,,46,127
28160,note_on,0,0,0,,11,,,58,127
28160,note_on,0,0,0,,4,,,76,127
28274,note_off,114,0,0,,4,,,76,127
28275,note_on,1,0,0,,5,,,77,127
28389,note_off,114,0,0,,11,,,58,127
28389,note_off,0,0,0,,11,,,46,127
28389,note_off,0,0,0,,5,,,65,127
28390,note_on,1,0,0,,10,,,57,127
28390,note_on,0,0,0,,10,,,45,127
28390,note_on,0,0,0,,5,,,65,127
28504,note_off,114,0,0,,5,,,77,127
28505,note_on,1,0,0,,4,,,76,127
28619,note_off,114,0,0,,4,,,76,127
28619,note_off,0,0,0,,10,,,45,127
28619,note_off,0,0,0,,10,,,57,127
28620,note_on,1,0,0,,7,,,43,127
28620,note_on,0,0,0,,7,,,55,127
28620,note_on,0,0,0,,5,,,77,127
28734,note_off,114,0,0,,5,,,65,127
28735,note_on,1,0,0,,5,,,65,127
28849,note_off,114,0,0,,5,,,77,127
28849,note_off,0,0,0,,7,,,55,127
28849,note_off,0,0,0,,7,,,43,127
28850,note_on,1,0,0,,5,,,41,127
28850,note_on,0,0,0,,5,,,53,127
28850,note_on,0,0,0,,4,,,76,127
28964,note_off,114,0,0,,4,,,76,127
28964,note_off,0,0,0,,5,,,65,127
28965,note_on,1,0,0,,5,,,77,127
29079,note_off,114,0,0,,5,,,77,127
29079,note_off,0,0,0,,5,,,53,127
29079,note_off,0,0,0,,5,,,41,127
29080,note_on,1,0,0,,11,,,46,127
29080,note_on,0,0,0,,11,,,58,127
29080,note_on,0,0,0,,4,,,76,127
29194,note_off,114,0,0,,4,,,76,127
29195,note_on,1,0,0,,2,,,74,127
29309,note_off,114,0,0,,2,,,74,127
29309,note_off,0,0,0,,11,,,58,127
29309,note_off,0,0,0,,11,,,46,127
29310,note_on,1,0,0,,0,,,60,127
29310,note_on,0,0,0,,0,,,72,127
29424,note_off,114,0,0,,0,,,72,127
29425,note_on,1,0,0,,11,,,70,127
29539,note_off,114,0,0,,11,,,70,127
29540,note_on,1,0,0,,0,,,48,127
29540,note_on,0,0,0,,10,,,69,127
29654,note_off,114,0,0,,10,,,69,127
29655,note_on,1,0,0,,7,,,67,127
29769,note_off,114,0,0,,7,,,67,127
29769,note_off,0,0,0,,0,,,48,127
29769,note_off,0,0,0,,0,,,60,127
29770,note_on,1,0,0,,5,,,53,127
29770,note_on,0,0,0,,5,,,65,127
29885,note_on,115,0,0,,4,,,76,127
29999,note_off,114,0,0,,4,,,76,127
29999,note_off,0,0,0,,5,,,53,127
30000,note_on,1,0,0,,5,,,53,127
30000,note_on,0,0,0,,5,,,77,127
30114,note_off,114,0,0,,5,,,65,127
30115,note_on,1,0,0,,5,,,65,127
30229,note_off,114,0,0,,5,,,77,127
30229,note_off,0,0,0,,5,,,53,127
30230,note_on,1,0,0,,4,,,64,127
30230,note_on,0,0,0,,4,,,52,127
30230,note_on,0,0,0,,4,,,76,127
30344,note_off,114,0,0,,4,,,76,127
30345,note_on,1,0,0,,5,,,77,127
30459,note_off,114,0,0,,4,,,52,127
30459,note_off,0,0,0,,4,,,64,127
30459,note_off,0,0,0,,5,,,65,127
30460,note_on,1,0,0,,2,,,62,127
30460,note_on,0,0,0,,2,,,50,127
30460,note_on,0,0,0,,5,,,65,127
30574,note_off,114,0,0,,5,,,77,127
30575,note_on,1,0,0,,4,,,76,127
30689,note_off,114,0,0,,4,,,76,127
30689,note_off,0,0,0,,2,,,50,127
30689,note_off,0,0,0,,2,,,62,127
30690,note_on,1,0,0,,0,,,48,127
30690,note_on,0,0,0,,0,,,60,127
30690,note_on,0,0,0,,5,,,77,127
30804,note_off,114,0,0,,5,,,65,127
30805,note_on,1,0,0,,5,,,65,127
30919,note_off,114,0,0,,5,,,77,127
30919,note_off,0,0,0,,0,,,60,127
30919,note_off,0,0,0,,0,,,48,127
30920,note_on,1,0,0,,11,,,46,127
30920,note_on,0,0,0,,11,,,58,127
30920,note_on,0,0,0,,4,,,76,127
31034,note_off,114,0,0,,4,,,76,127
31035,note_on,1,0,0,,5,,,77,127
31149,note_off,114,0,0,,11,,,58,127
31149,note_off,0,0,0,,11,,,46,127
31149,note_off,0,0,0,,5,,,65,127
31150,note_on,1,0,0,,10,,,57,127
31150,note_on,0,0,0,,10,,,45,127
31150,note_on,0,0,0,,5,,,65,127
31264,note_off,114,0,0,,5,,,77,127
31265,note_on,1,0,0,,4,,,76,127
31379,note_off,114,0,0,,4,,,76,127
31379,note_off,0,0,0,,10,,,45,127
31379,note_off,0,0,0,,10,,,57,127
31380,note_on,1,0,0,,7,,,43,127
31380,note_on,0,0,0,,7,,,55,127
31380,note_on,0,0,0,,5,,,77,127
31494,note_off,114,0,0,,5,,,65,127
31495,note_on,1,0,0,,5,,,65,127
31609,note_off,114,0,0,,5,,,77,127
31609,note_off,0,0,0,,7,,,55,127
31609,note_off,0,0,0,,7,,,43,127
31610,note_on,1,0,0,,5,,,41,127
31610,note_on,0,0,0,,5,,,53,127
31610,note_on,0,0,0,,4,,,76,127
31724,note_off,114,0,0,,4,,,76,127
31724,note_off,0,0,0,,5,,,65,127
31725,note_on,1,0,0,,5,,,77,127
31839,note_off,114,0,0,,5,,,77,127
31839,note_off,0,0,0,,5,,,53,127
31839,note_off,0,0,0,,5,,,41,127
31840,note_on,1,0,0,,11,,,46,127
31840,note_on,0,0,0,,4,,,76,127
31954,note_off,114,0,0,,4,,,76,127
31955,note_on,1,0,0,,2,,,74,127
32069,note_off,114,0,0,,2,,,74,127
32069,note_off,0,0,0,,11,,,46,127
32070,note_on,1,0,0,,0,,,48,127
32070,note_on,0,0,0,,0,,,72,127
32184,note_off,114,0,0,,0,,,72,127
32185,note_on,1,0,0,,11,,,70,127
32299,note_off,114,0,0,,11,,,70,127
32300,note_on,1,0,0,,0,,,36,127
32300,note_on,0,0,0,,10,,,69,127
32414,note_off,114,0,0,,10,,,69,127
32415,note_on,1,0,0,,7,,,67,127
32529,note_off,114,0,0,,0,,,36,127
32529,note_off,0,0,0,,0,,,48,127
32530,note_on,1,0,0,,5,,,41,127
32568,note_on,38,0,0,,5,,,65,127
32582,note_off,14,0,0,,7,,,67,127
32611,note_on,29,0,0,,7,,,67,127
32636,note_off,25,0,0,,5,,,65,127
32654,note_on,18,0,0,,5,,,65,127
32679,note_off,25,0,0,,7,,,67,127
33104,note_off,425,0,0,,5,,,65,127
33219,note_off,115,0,0,,5,,,41,127
33220,note_on,1,0,0,,5,,,65,127
33220,note_on,0,0,0,,10,,,81,127
33335,note_on,115,0,0,,5,,,77,127
33449,note_off,114,0,0,,5,,,77,127
33450,note_on,1,0,0,,0,,,72,127
33564,note_off,114,0,0,,0,,,72,127
33565,note_off,1,0,0,,10,,,81,127
33565,note_on,0,0,0,,10,,,69,127
33679,note_off,114,0,0,,10,,,69,127
33679,note_off,0,0,0,,5,,,65,127
33680,note_on,1,0,0,,4,,,64,127
33680,note_on,0,0,0,,7,,,79,127
33680,note_on,0,0,0,,12,,,71,127
33794,note_off,114,0,0,,12,,,71,127
33795,note_on,1,0,0,,1,,,73,127
33909,note_off,114,0,0,,1,,,73,127
33909,note_off,0,0,0,,7,,,79,127
33909,note_off,0,0,0,,4,,,64,127
33910,note_on,1,0,0,,2,,,62,127
33910,note_on,0,0,0,,5,,,77,127
34025,note_on,115,0,0,,2,,,74,127
34139,note_off,114,0,0,,2,,,74,127
34140,note_on,1,0,0,,10,,,69,127
34254,note_off,114,0,0,,10,,,69,127
34255,note_off,1,0,0,,5,,,77,127
34255,note_on,0,0,0,,5,,,65,127
34369,note_off,114,0,0,,5,,,65,127
34369,note_off,0,0,0,,2,,,62,127
34370,note_on,1,0,0,,0,,,60,127
34370,note_on,0,0,0,,7,,,67,127
34370,note_on,0,0,0,,3,,,75,127
34484,note_off,114,0,0,,7,,,67,127
34485,note_on,1,0,0,,10,,,69,127
34599,note_off,114,0,0,,10,,,69,127
34599,note_off,0,0,0,,3,,,75,127
34599,note_off,0,0,0,,0,,,60,127
34600,note_on,1,0,0,,11,,,58,127
34600,note_on,0,0,0,,2,,,74,127
34715,note_on,115,0,0,,11,,,70,127
34829,note_off,114,0,0,,11,,,70,127
34830,note_on,1,0,0,,7,,,67,127
34944,note_off,114,0,0,,7,,,67,127
34945,note_off,1,0,0,,2,,,74,127
34945,note_on,0,0,0,,2,,,62,127
35059,note_off,114,0,0,,2,,,62,127
35059,note_off,0,0,0,,11,,,58,127
35060,note_on,1,0,0,,10,,,57,127
35060,note_on,0,0,0,,0,,,72,127
35060,note_on,0,0,0,,4,,,64,127
35174,note_off,114,0,0,,4,,,64,127
35175,note_on,1,0,0,,6,,,66,127
35289,note_off,114,0,0,,6,,,66,127
35289,note_off,0,0,0,,0,,,72,127
35289,note_off,0,0,0,,10,,,57,127
35290,note_on,1,0,0,,7,,,55,127
35290,note_on,0,0,0,,11,,,70,127
35405,note_on,115,0,0,,1,,,61,127
35519,note_off,114,0,0,,1,,,61,127
35519,note_off,0,0,0,,7,,,55,127
35520,note_on,1,0,0,,5,,,53,127
35520,note_on,0,0,0,,2,,,62,127
35635,note_off,115,0,0,,11,,,70,127
35635,note_on,0,0,0,,10,,,69,127
35749,note_off,114,0,0,,10,,,69,127
35749,note_off,0,0,0,,5,,,53,127
35750,note_on,1,0,0,,4,,,52,127
35750,note_on,0,0,0,,7,,,67,127
35865,note_off,115,0,0,,2,,,62,127
35865,note_on,0,0,0,,4,,,64,127
35979,note_off,114,0,0,,4,,,64,127
35979,note_off,0,0,0,,7,,,67,127
35979,note_off,0,0,0,,4,,,52,127
35980,note_on,1,0,0,,2,,,50,127
35980,note_on,0,0,0,,5,,,65,127
36094,note_off,114,0,0,,5,,,65,127
36095,note_on,1,0,0,,10,,,81,127
36209,note_off,114,0,0,,10,,,81,127
36209,note_off,0,0,0,,2,,,50,127
36210,note_on,1,0,0,,11,,,46,127
36210,note_on,0,0,0,,7,,,79,127
36324,note_off,114,0,0,,7,,,79,127
36325,note_on,1,0,0,,5,,,77,127
36439,note_off,114,0,0,,5,,,77,127
36439,note_off,0,0,0,,11,,,46,127
36440,note_on,1,0,0,,7,,,43,127
36440,note_on,0,0,0,,4,,,76,127
36554,note_off,114,0,0,,4,,,76,127
36555,note_on,1,0,0,,2,,,74,127
36669,note_off,114,0,0,,2,,,74,127
36669,note_off,0,0,0,,7,,,43,127
36670,note_on,1,0,0,,10,,,45,127
36670,note_on,0,0,0,,4,,,76,127
36728,note_on,58,0,0,,2,,,74,127
36739,note_off,11,0,0,,4,,,76,127
36786,note_on,47,0,0,,4,,,76,127
36797,note_off,11,0,0,,2,,,74,127
36844,note_on,47,0,0,,2,,,74,127
36855,note_off,11,0,0,,4,,,76,127
36902,note_on,47,0,0,,4,,,76,127
36913,note_off,11,0,0,,2,,,74,127
36960,note_on,47,0,0,,2,,,74,127
36971,note_off,11,0,0,,4,,,76,127
37018,note_on,47,0,0,,1,,,73,127
37029,note_off,11,0,0,,2,,,74,127
37076,note_on,47,0,0,,12,,,71,127
37087,note_off,11,0,0,,1,,,73,127
37133,note_off,46,0,0,,10,,,45,127
37134,note_on,1,0,0,,10,,,45,127
37134,note_on,0,0,0,,10,,,69,127
37145,note_off,11,0,0,,12,,,71,127
37363,note_off,218,0,0,,10,,,69,127
37363,note_off,0,0,0,,10,,,45,127
37364,note_on,1,0,0,,10,,,45,127
37364,note_on,0,0,0,,10,,,81,127
37479,note_on,115,0,0,,4,,,76,127
37593,note_off,114,0,0,,4,,,76,127
37594,note_on,1,0,0,,1,,,73,127
37708,note_off,114,0,0,,1,,,73,127
37708,note_off,0,0,0,,10,,,81,127
37709,note_on,1,0,0,,10,,,69,127
37823,note_off,114,0,0,,10,,,69,127
37824,note_on,1,0,0,,7,,,79,127
37939,note_on,115,0,0,,4,,,76,127
38053,note_off,114,0,0,,4,,,76,127
38053,note_off,0,0,0,,7,,,79,127
38053,note_off,0,0,0,,10,,,45,127
38054,note_on,1,0,0,,10,,,45,127
38054,note_on,0,0,0,,5,,,77,127
38168,note_off,114,0,0,,5,,,77,127
38169,note_on,1,0,0,,2,,,74,127
38283,note_off,114,0,0,,2,,,74,127
38284,note_on,1,0,0,,2,,,86,127
38398,note_off,114,0,0,,2,,,86,127
38399,note_on,1,0,0,,12,,,83,127
38513,note_off,114,0,0,,12,,,83,127
38514,note_on,1,0,0,,10,,,81,127
38628,note_off,114,0,0,,10,,,81,127
38629,note_on,1,0,0,,8,,,80,127
38743,note_off,114,0,0,,8,,,80,127
38743,note_off,0,0,0,,10,,,45,127
38744,note_on,1,0,0,,10,,,45,127
38744,note_on,0,0,0,,10,,,81,127
38859,note_on,115,0,0,,4,,,76,127
38973,note_off,114,0,0,,4,,,76,127
38974,note_on,1,0,0,,1,,,73,127
39088,note_off,114,0,0,,1,,,73,127
39088,note_off,0,0,0,,10,,,81,127
39089,note_on,1,0,0,,10,,,69,127
39203,note_off,114,0,0,,10,,,69,127
39204,note_on,1,0,0,,7,,,79,127
39319,note_on,115,0,0,,4,,,76,127
39433,note_off,114,0,0,,4,,,76,127
39433,note_off,0,0,0,,7,,,79,127
39433,note_off,0,0,0,,10,,,45,127
39434,note_on,1,0,0,,10,,,45,127
39434,note_on,0,0,0,,5,,,77,127
39548,note_off,114,0,0,,5,,,77,127
39549,note_on,1,0,0,,2,,,74,127
39663,note_off,114,0,0,,2,,,74,127
39664,note_on,1,0,0,,2,,,86,127
39778,note_off,114,0,0,,2,,,86,127
39779,note_on,1,0,0,,12,,,83,127
39893,note_off,114,0,0,,12,,,83,127
39894,note_on,1,0,0,,10,,,81,127
40008,note_off,114,0,0,,10,,,81,127
40009,note_on,1,0,0,,8,,,80,127
40123,note_off,114,0,0,,8,,,80,127
40123,note_off,0,0,0,,10,,,45,127
40124,note_on,1,0,0,,10,,,69,127
40124,note_on,0,0,0,,12,,,83,127
40162,note_on,38,0,0,,10,,,81,127
40192,note_off,30,0,0,,12,,,83,127
40200,note_on,8,0,0,,12,,,83,127
40230,note_off,30,0,0,,10,,,81,127
40238,note_on,8,0,0,,4,,,64,127
40238,note_on,0,0,0,,10,,,81,127
40268,note_off,30,0,0,,12,,,83,127
40276,note_on,8,0,0,,12,,,83,127
40306,note_off,30,0,0,,10,,,81,127
40314,note_on,8,0,0,,10,,,81,127
40344,note_off,30,0,0,,12,,,83,127
40351,note_off,7,0,0,,4,,,64,127
40352,note_on,1,0,0,,1,,,61,127
40466,note_off,114,0,0,,1,,,61,127
40466,note_off,0,0,0,,10,,,69,127
40467,note_on,1,0,0,,10,,,57,127
40581,note_off,114,0,0,,10,,,57,127
40582,note_on,1,0,0,,7,,,67,127
40697,note_on,115,0,0,,4,,,64,127
40773,note_off,76,0,0,,10,,,81,127
40811,note_off,38,0,0,,4,,,64,127
40811,note_off,0,0,0,,7,,,67,127
40812,note_on,1,0,0,,5,,,65,127
40812,note_on,0,0,0,,12,,,83,127
40850,note_on,38,0,0,,10,,,81,127
40880,note_off,30,0,0,,12,,,83,127
40888,note_on,8,0,0,,12,,,83,127
40918,note_off,30,0,0,,10,,,81,127
40925,note_off,7,0,0,,5,,,65,127
40926,note_on,1,0,0,,2,,,62,127
40926,note_on,0,0,0,,10,,,81,127
40956,note_off,30,0,0,,12,,,83,127
40964,note_on,8,0,0,,12,,,83,127
40994,note_off,30,0,0,,10,,,81,127
41002,note_on,8,0,0,,10,,,81,127
41032,note_off,30,0,0,,12,,,83,127
41039,note_off,7,0,0,,2,,,62,127
41040,note_on,1,0,0,,2,,,74,127
41154,note_off,114,0,0,,2,,,74,127
41155,note_on,1,0,0,,12,,,71,127
41269,note_off,114,0,0,,12,,,71,127
41270,note_on,1,0,0,,10,,,69,127
41384,note_off,114,0,0,,10,,,69,127
41385,note_on,1,0,0,,8,,,68,127
41461,note_off,76,0,0,,10,,,81,127
41499,note_off,38,0,0,,8,,,68,127
41500,note_on,1,0,0,,10,,,69,127
41500,note_on,0,0,0,,12,,,83,127
41538,note_on,38,0,0,,10,,,81,127
41568,note_off,30,0,0,,12,,,83,127
41576,note_on,8,0,0,,12,,,83,127
41606,note_off,30,0,0,,10,,,81,127
41614,note_on,8,0,0,,4,,,64,127
41614,note_on,0,0,0,,10,,,81,127
41644,note_off,30,0,0,,12,,,83,127
41652,note_on,8,0,0,,12,,,83,127
41682,note_off,30,0,0,,10,,,81,127
41690,note_on,8,0,0,,10,,,81,127
41720,note_off,30,0,0,,12,,,83,127
41727,note_off,7,0,0,,4,,,64,127
41728,note_on,1,0,0,,1,,,61,127
41842,note_off,114,0,0,,1,,,61,127
41842,note_off,0,0,0,,10,,,69,127
41843,note_on,1,0,0,,10,,,57,127
41957,note_off,114,0,0,,10,,,57,127
41958,note_on,1,0,0,,7,,,67,127
42073,note_on,115,0,0,,4,,,64,127
42149,note_off,76,0,0,,10,,,81,127
42187,note_off,38,0,0,,4,,,64,127
42187,note_off,0,0,0,,7,,,67,127
42188,note_on,1,0,0,,5,,,65,127
42188,note_on,0,0,0,,12,,,83,127
42226,note_on,38,0,0,,10,,,81,127
42256,note_off,30,0,0,,12,,,83,127
42264,note_on,8,0,0,,12,,,83,127
42294,note_off,30,0,0,,10,,,81,127
42301,note_off,7,0,0,,5,,,65,127
42302,note_on,1,0,0,,2,,,62,127
42302,note_on,0,0,0,,10,,,81,127
42332,note_off,30,0,0,,12,,,83,127
42340,note_on,8,0,0,,12,,,83,127
42370,note_off,30,0,0,,10,,,81,127
42378,note_on,8,0,0,,10,,,81,127
42408,note_off,30,0,0,,12,,,83,127
42415,note_off,7,0,0,,2,,,62,127
42416,note_on,1,0,0,,2,,,74,127
42530,note_off,114,0,0,,2,,,74,127
42531,note_on,1,0,0,,12,,,71,127
42645,note_off,114,0,0,,12,,,71,127
42646,note_on,1,0,0,,10,,,69,127
42760,note_off,114,0,0,,10,,,69,127
42761,note_on,1,0,0,,8,,,68,127
42875,note_off,114,0,0,,8,,,68,127
42876,note_on,1,0,0,,10,,,69,127
42984,note_off,108,0,0,,10,,,81,127
42991,note_on,7,0,0,,2,,,86,127
43105,note_off,114,0,0,,2,,,86,127
43106,note_on,1,0,0,,0,,,84,127
43220,note_off,114,0,0,,0,,,84,127
43220,note_off,0,0,0,,10,,,69,127
43221,note_on,1,0,0,,2,,,74,127
43221,note_on,0,0,0,,11,,,82,127
43335,note_off,114,0,0,,11,,,82,127
43335,note_off,0,0,0,,2,,,74,127
43336,note_on,1,0,0,,0,,,72,127
43336,note_on,0,0,0,,10,,,81,127
43450,note_off,114,0,0,,10,,,81,127
43450,note_off,0,0,0,,0,,,72,127
43451,note_on,1,0,0,,11,,,70,127
43451,note_on,0,0,0,,7,,,79,127
43565,note_off,114,0,0,,7,,,79,127
43565,note_off,0,0,0,,11,,,70,127
43566,note_on,1,0,0,,10,,,69,127
43566,note_on,0,0,0,,6,,,78,127
43680,note_off,114,0,0,,6,,,78,127
43680,note_off,0,0,0,,10,,,69,127
43681,note_on,1,0,0,,7,,,67,127
43681,note_on,0,0,0,,3,,,75,127
43795,note_off,114,0,0,,3,,,75,127
43795,note_off,0,0,0,,7,,,67,127
43796,note_on,1,0,0,,6,,,66,127
43796,note_on,0,0,0,,2,,,74,127
43910,note_off,114,0,0,,2,,,74,127
43910,note_off,0,0,0,,6,,,66,127
43911,note_on,1,0,0,,3,,,63,127
43911,note_on,0,0,0,,0,,,72,127
44025,note_off,114,0,0,,0,,,72,127
44025,note_off,0,0,0,,3,,,63,127
44026,note_on,1,0,0,,2,,,62,127
44026,note_on,0,0,0,,11,,,70,127
44140,note_off,114,0,0,,11,,,70,127
44140,note_off,0,0,0,,2,,,62,127
44141,note_on,1,0,0,,0,,,60,127
44141,note_on,0,0,0,,10,,,69,127
44255,note_off,114,0,0,,10,,,69,127
44255,note_off,0,0,0,,0,,,60,127
44256,note_on,1,0,0,,11,,,58,127
44256,note_on,0,0,0,,11,,,70,127
44370,note_off,114,0,0,,11,,,70,127
44371,note_on,1,0,0,,7,,,79,127
44485,note_off,114,0,0,,7,,,79,127
44486,note_on,1,0,0,,5,,,77,127
44600,note_off,114,0,0,,5,,,77,127
44600,note_off,0,0,0,,11,,,58,127
44601,note_on,1,0,0,,7,,,67,127
44601,note_on,0,0,0,,3,,,75,127
44715,note_off,114,0,0,,3,,,75,127
44715,note_off,0,0,0,,7,,,67,127
44716,note_on,1,0,0,,5,,,65,127
44716,note_on,0,0,0,,2,,,74,127
44830,note_off,114,0,0,,2,,,74,127
44830,note_off,0,0,0,,5,,,65,127
44831,note_on,1,0,0,,3,,,63,127
44831,note_on,0,0,0,,0,,,72,127
44945,note_off,114,0,0,,0,,,72,127
44945,note_off,0,0,0,,3,,,63,127
44946,note_on,1,0,0,,2,,,62,127
44946,note_on,0,0,0,,11,,,70,127
45060,note_off,114,0,0,,11,,,70,127
45060,note_off,0,0,0,,2,,,62,127
45061,note_on,1,0,0,,0,,,60,127
45061,note_on,0,0,0,,10,,,69,127
45175,note_off,114,0,0,,10,,,69,127
45175,note_off,0,0,0,,0,,,60,127
45176,note_on,1,0,0,,11,,,58,127
45176,note_on,0,0,0,,7,,,67,127
45290,note_off,114,0,0,,7,,,67,127
45290,note_off,0,0,0,,11,,,58,127
45291,note_on,1,0,0,,10,,,57,127
45291,note_on,0,0,0,,5,,,65,127
45405,note_off,114,0,0,,5,,,65,127
45405,note_off,0,0,0,,10,,,57,127
45406,note_on,1,0,0,,7,,,55,127
45406,note_on,0,0,0,,3,,,63,127
45520,note_off,114,0,0,,3,,,63,127
45520,note_off,0,0,0,,7,,,55,127
45521,note_on,1,0,0,,5,,,53,127
45521,note_on,0,0,0,,2,,,62,127
45635,note_off,114,0,0,,2,,,62,127
45635,note_off,0,0,0,,5,,,53,127
45636,note_on,1,0,0,,7,,,55,127
45636,note_on,0,0,0,,3,,,63,127
45750,note_off,114,0,0,,3,,,63,127
45751,note_on,1,0,0,,7,,,67,127
45865,note_off,114,0,0,,7,,,67,127
45865,note_off,0,0,0,,7,,,55,127
45866,note_on,1,0,0,,10,,,57,127
45866,note_on,0,0,0,,5,,,65,127
45980,note_off,114,0,0,,5,,,65,127
45981,note_on,1,0,0,,3,,,63,127
46095,note_off,114,0,0,,3,,,63,127
46095,note_off,0,0,0,,10,,,57,127
46096,note_on,1,0,0,,5,,,53,127
46096,note_on,0,0,0,,2,,,62,127
46210,note_off,114,0,0,,2,,,62,127
46211,note_on,1,0,0,,0,,,60,127
46325,note_off,114,0,0,,0,,,60,127
46325,note_off,0,0,0,,5,,,53,127
46326,note_on,1,0,0,,11,,,58,127
46326,note_on,0,0,0,,2,,,62,127
46440,note_off,114,0,0,,2,,,62,127
46441,note_on,1,0,0,,5,,,77,127
46555,note_off,114,0,0,,5,,,77,127
46555,note_off,0,0,0,,11,,,58,127
46556,note_on,1,0,0,,7,,,55,127
46556,note_on,0,0,0,,3,,,75,127
46670,note_off,114,0,0,,3,,,75,127
46671,note_on,1,0,0,,2,,,74,127
46785,note_off,114,0,0,,2,,,74,127
46785,note_off,0,0,0,,7,,,55,127
46786,note_on,1,0,0,,3,,,51,127
46786,note_on,0,0,0,,0,,,72,127
46900,note_off,114,0,0,,0,,,72,127
46901,note_on,1,0,0,,11,,,70,127
47015,note_off,114,0,0,,11,,,70,127
47015,note_off,0,0,0,,3,,,51,127
47016,note_on,1,0,0,,5,,,41,127
47016,note_on,0,0,0,,5,,,77,127
47131,note_on,115,0,0,,0,,,72,127
47245,note_off,114,0,0,,0,,,72,127
47246,note_on,1,0,0,,10,,,69,127
47360,note_off,114,0,0,,10,,,69,127
47360,note_off,0,0,0,,5,,,77,127
47361,note_on,1,0,0,,5,,,65,127
47475,note_off,114,0,0,,5,,,65,127
47476,note_on,1,0,0,,3,,,75,127
47591,note_on,115,0,0,,0,,,72,127
47705,note_off,114,0,0,,0,,,72,127
47705,note_off,0,0,0,,3,,,75,127
47705,note_off,0,0,0,,5,,,41,127
47706,note_on,1,0,0,,5,,,41,127
47706,note_on,0,0,0,,2,,,74,127
47820,note_off,114,0,0,,2,,,74,127
47821,note_on,1,0,0,,11,,,70,127
47935,note_off,114,0,0,,11,,,70,127
47936,note_on,1,0,0,,11,,,82,127
48050,note_off,114,0,0,,11,,,82,127
48051,note_on,1,0,0,,7,,,79,127
48165,note_off,114,0,0,,7,,,79,127
48166,note_on,1,0,0,,5,,,77,127
48280,note_off,114,0,0,,5,,,77,127
48281,note_on,1,0,0,,4,,,76,127
48395,note_off,114,0,0,,4,,,76,127
48395,note_off,0,0,0,,5,,,41,127
48396,note_on,1,0,0,,5,,,65,127
48396,note_on,0,0,0,,7,,,79,127
48434,note_on,38,0,0,,5,,,77,127
48464,note_off,30,0,0,,7,,,79,127
48472,note_on,8,0,0,,7,,,79,127
48502,note_off,30,0,0,,5,,,77,127
48510,note_on,8,0,0,,0,,,60,127
48510,note_on,0,0,0,,5,,,77,127
48540,note_off,30,0,0,,7,,,79,127
48548,note_on,8,0,0,,7,,,79,127
48578,note_off,30,0,0,,5,,,77,127
48586,note_on,8,0,0,,5,,,77,127
48616,note_off,30,0,0,,7,,,79,127
48623,note_off,7,0,0,,0,,,60,127
48624,note_on,1,0,0,,10,,,57,127
48738,note_off,114,0,0,,10,,,57,127
48738,note_off,0,0,0,,5,,,65,127
48739,note_on,1,0,0,,5,,,53,127
48853,note_off,114,0,0,,5,,,53,127
48854,note_on,1,0,0,,3,,,63,127
48969,note_on,115,0,0,,0,,,60,127
49045,note_off,76,0,0,,5,,,77,127
49083,note_off,38,0,0,,0,,,60,127
49083,note_off,0,0,0,,3,,,63,127
49084,note_on,1,0,0,,2,,,62,127
49084,note_on,0,0,0,,7,,,79,127
49122,note_on,38,0,0,,5,,,77,127
49152,note_off,30,0,0,,7,,,79,127
49160,note_on,8,0,0,,7,,,79,127
49190,note_off,30,0,0,,5,,,77,127
49197,note_off,7,0,0,,2,,,62,127
49198,note_on,1,0,0,,11,,,58,127
49198,note_on,0,0,0,,5,,,77,127
49228,note_off,30,0,0,,7,,,79,127
49236,note_on,8,0,0,,7,,,79,127
49266,note_off,30,0,0,,5,,,77,127
49274,note_on,8,0,0,,5,,,77,127
49304,note_off,30,0,0,,7,,,79,127
49311,note_off,7,0,0,,11,,,58,127
49312,note_on,1,0,0,,11,,,70,127
49426,note_off,114,0,0,,11,,,70,127
49427,note_on,1,0,0,,7,,,67,127
49541,note_off,114,0,0,,7,,,67,127
49542,note_on,1,0,0,,5,,,65,127
49656,note_off,114,0,0,,5,,,65,127
49657,note_on,1,0,0,,4,,,64,127
49733,note_off,76,0,0,,5,,,77,127
49771,note_off,38,0,0,,4,,,64,127
49772,note_on,1,0,0,,5,,,41,127
49772,note_on,0,0,0,,5,,,77,127
49887,note_on,115,0,0,,0,,,72,127
50001,note_off,114,0,0,,0,,,72,127
50002,note_on,1,0,0,,10,,,69,127
50116,note_off,114,0,0,,10,,,69,127
50116,note_off,0,0,0,,5,,,77,127
50117,note_on,1,0,0,,5,,,65,127
50231,note_off,114,0,0,,5,,,65,127
50232,note_on,1,0,0,,3,,,75,127
50347,note_on,115,0,0,,0,,,72,127
50461,note_off,114,0,0,,0,,,72,127
50461,note_off,0,0,0,,3,,,75,127
50461,note_off,0,0,0,,5,,,41,127
50462,note_on,1,0,0,,5,,,41,127
50462,note_on,0,0,0,,2,,,74,127
50576,note_off,114,0,0,,2,,,74,127
50577,note_on,1,0,0,,11,,,70,127
50691,note_off,114,0,0,,11,,,70,127
50692,note_on,1,0,0,,11,,,82,127
50806,note_off,114,0,0,,11,,,82,127
50807,note_on,1,0,0,,7,,,79,127
50921,note_off,114,0,0,,7,,,79,127
50922,note_on,1,0,0,,5,,,77,127
51036,note_off,114,0,0,,5,,,77,127
51037,note_on,1,0,0,,4,,,76,127
51151,note_off,114,0,0,,4,,,76,127
51151,note_off,0,0,0,,5,,,41,127
51152,note_on,1,0,0,,5,,,65,127
51152,note_on,0,0,0,,7,,,79,127
51190,note_on,38,0,0,,5,,,77,127
51220,note_off,30,0,0,,7,,,79,127
51228,note_on,8,0,0,,7,,,79,127
51258,note_off,30,0,0,,5,,,77,127
51266,note_on,8,0,0,,0,,,60,127
51266,note_on,0,0,0,,5,,,77,127
51296,note_off,30,0,0,,7,,,79,127
51304,note_on,8,0,0,,7,,,79,127
51334,note_off,30,0,0,,5,,,77,127
51342,note_on,8,0,0,,5,,,77,127
51372,note_off,30,0,0,,7,,,79,127
51379,note_off,7,0,0,,0,,,60,127
51380,note_on,1,0,0,,10,,,57,127
51494,note_off,114,0,0,,10,,,57,127
51494,note_off,0,0,0,,5,,,65,127
51495,note_on,1,0,0,,5,,,53,127
51609,note_off,114,0,0,,5,,,53,127
51610,note_on,1,0,0,,3,,,63,127
51725,note_on,115,0,0,,0,,,60,127
51801,note_off,76,0,0,,5,,,77,127
51839,note_off,38,0,0,,0,,,60,127
51839,note_off,0,0,0,,3,,,63,127
51840,note_on,1,0,0,,2,,,62,127
51840,note_on,0,0,0,,7,,,79,127
51878,note_on,38,0,0,,5,,,77,127
51908,note_off,30,0,0,,7,,,79,127
51916,note_on,8,0,0,,7,,,79,127
51946,note_off,30,0,0,,5,,,77,127
51953,note_off,7,0,0,,2,,,62,127
51954,note_on,1,0,0,,11,,,58,127
51954,note_on,0,0,0,,5,,,77,127
51984,note_off,30,0,0,,7,,,79,127
51992,note_on,8,0,0,,7,,,79,127
52022,note_off,30,0,0,,5,,,77,127
52030,note_on,8,0,0,,5,,,77,127
52060,note_off,30,0,0,,7,,,79,127
52067,note_off,7,0,0,,11,,,58,127
52068,note_on,1,0,0,,11,,,70,127
52182,note_off,114,0,0,,11,,,70,127
52183,note_on,1,0,0,,7,,,67,127
52297,note_off,114,0,0,,7,,,67,127
52298,note_on,1,0,0,,5,,,65,127
52412,note_off,114,0,0,,5,,,65,127
52413,note_on,1,0,0,,4,,,64,127
52489,note_off,76,0,0,,5,,,77,127
52527,note_off,38,0,0,,4,,,64,127
52528,note_on,1,0,0,,5,,,53,127
52528,note_on,0,0,0,,5,,,41,127
52528,note_on,0,0,0,,5,,,77,127
52643,note_on,115,0,0,,0,,,72,127
52757,note_off,114,0,0,,0,,,72,127
52757,note_off,0,0,0,,5,,,41,127
52757,note_off,0,0,0,,5,,,53,127
52758,note_on,1,0,0,,7,,,43,127
52758,note_on,0,0,0,,7,,,55,127
52758,note_on,0,0,0,,10,,,69,127
52872,note_off,114,0,0,,10,,,69,127
52872,note_off,0,0,0,,5,,,77,127
52873,note_on,1,0,0,,5,,,65,127
52987,note_off,114,0,0,,5,,,65,127
52987,note_off,0,0,0,,7,,,55,127
52987,note_off,0,0,0,,7,,,43,127
52988,note_on,1,0,0,,10,,,45,127
52988,note_on,0,0,0,,10,,,57,127
52988,note_on,0,0,0,,3,,,75,127
53102,note_off,114,0,0,,3,,,75,127
53103,note_on,1,0,0,,0,,,72,127
53217,note_off,114,0,0,,0,,,72,127
53217,note_off,0,0,0,,10,,,57,127
53217,note_off,0,0,0,,10,,,45,127
53218,note_on,1,0,0,,11,,,46,127
53218,note_on,0,0,0,,11,,,58,127
53218,note_on,0,0,0,,2,,,74,127
53332,note_off,114,0,0,,2,,,74,127
53333,note_on,1,0,0,,11,,,70,127
53447,note_off,114,0,0,,11,,,70,127
53447,note_off,0,0,0,,11,,,58,127
53447,note_off,0,0,0,,11,,,46,127
53448,note_on,1,0,0,,0,,,48,127
53448,note_on,0,0,0,,0,,,60,127
53448,note_on,0,0,0,,2,,,74,127
53562,note_off,114,0,0,,2,,,74,127
53563,note_on,1,0,0,,5,,,77,127
53677,note_off,114,0,0,,5,,,77,127
53677,note_off,0,0,0,,0,,,60,127
53677,note_off,0,0,0,,0,,,48,127
53678,note_on,1,0,0,,2,,,50,127
53678,note_on,0,0,0,,2,,,62,127
53678,note_on,0,0,0,,11,,,82,127
53792,note_off,114,0,0,,11,,,82,127
53793,note_on,1,0,0,,5,,,77,127
53907,note_off,114,0,0,,5,,,77,127
53907,note_off,0,0,0,,2,,,62,127
53907,note_off,0,0,0,,2,,,50,127
53908,note_on,1,0,0,,3,,,51,127
53908,note_on,0,0,0,,3,,,63,127
53908,note_on,0,0,0,,7,,,79,127
54022,note_off,114,0,0,,7,,,79,127
54023,note_on,1,0,0,,3,,,75,127
54137,note_off,114,0,0,,3,,,75,127
54137,note_off,0,0,0,,3,,,63,127
54137,note_off,0,0,0,,3,,,51,127
54138,note_on,1,0,0,,5,,,65,127
54138,note_on,0,0,0,,2,,,74,127
54252,note_off,114,0,0,,2,,,74,127
54253,note_on,1,0,0,,0,,,72,127
54367,note_off,114,0,0,,0,,,72,127
54368,note_on,1,0,0,,5,,,53,127
54368,note_on,0,0,0,,11,,,70,127
54482,note_off,114,0,0,,11,,,70,127
54483,note_off,1,0,0,,5,,,65,127
54483,note_on,0,0,0,,10,,,69,127
54597,note_off,114,0,0,,10,,,69,127
54597,note_off,0,0,0,,5,,,53,127
54598,note_on,1,0,0,,11,,,46,127
54598,note_on,0,0,0,,11,,,58,127
54598,note_on,0,0,0,,11,,,70,127
54713,note_on,115,0,0,,10,,,81,127
54827,note_off,114,0,0,,10,,,81,127
54827,note_off,0,0,0,,11,,,58,127
54827,note_off,0,0,0,,11,,,46,127
54828,note_on,1,0,0,,11,,,58,127
54828,note_on,0,0,0,,11,,,82,127
54942,note_off,114,0,0,,11,,,70,127
54943,note_on,1,0,0,,11,,,70,127
55057,note_off,114,0,0,,11,,,82,127
55057,note_off,0,0,0,,11,,,58,127
55058,note_on,1,0,0,,10,,,69,127
55058,note_on,0,0,0,,10,,,57,127
55058,note_on,0,0,0,,10,,,81,127
55172,note_off,114,0,0,,10,,,81,127
55173,note_on,1,0,0,,11,,,82,127
55287,note_off,114,0,0,,10,,,57,127
55287,note_off,0,0,0,,10,,,69,127
55287,note_off,0,0,0,,11,,,70,127
55288,note_on,1,0,0,,7,,,55,127
55288,note_on,0,0,0,,7,,,67,127
55288,note_on,0,0,0,,11,,,70,127
55402,note_off,114,0,0,,11,,,82,127
55403,note_on,1,0,0,,10,,,81,127
55517,note_off,114,0,0,,10,,,81,127
55517,note_off,0,0,0,,7,,,67,127
55517,note_off,0,0,0,,7,,,55,127
55518,note_on,1,0,0,,5,,,65,127
55518,note_on,0,0,0,,5,,,53,127
55518,note_on,0,0,0,,11,,,82,127
55632,note_off,114,0,0,,11,,,70,127
55633,note_on,1,0,0,,11,,,70,127
55747,note_off,114,0,0,,11,,,82,127
55747,note_off,0,0,0,,5,,,53,127
55747,note_off,0,0,0,,5,,,65,127
55748,note_on,1,0,0,,3,,,51,127
55748,note_on,0,0,0,,3,,,63,127
55748,note_on,0,0,0,,10,,,81,127
55862,note_off,114,0,0,,10,,,81,127
55863,note_on,1,0,0,,11,,,82,127
55977,note_off,114,0,0,,3,,,63,127
55977,note_off,0,0,0,,3,,,51,127
55977,note_off,0,0,0,,11,,,70,127
55978,note_on,1,0,0,,2,,,62,127
55978,note_on,0,0,0,,2,,,50,127
55978,note_on,0,0,0,,11,,,70,127
56092,note_off,114,0,0,,11,,,82,127
56093,note_on,1,0,0,,10,,,81,127
56207,note_off,114,0,0,,10,,,81,127
56207,note_off,0,0,0,,2,,,50,127
56207,note_off,0,0,0,,2,,,62,127
56208,note_on,1,0,0,,0,,,60,127
56208,note_on,0,0,0,,0,,,48,127
56208,note_on,0,0,0,,11,,,82,127
56322,note_off,114,0,0,,11,,,70,127
56323,note_on,1,0,0,,11,,,70,127
56437,note_off,114,0,0,,11,,,82,127
56437,note_off,0,0,0,,0,,,48,127
56437,note_off,0,0,0,,0,,,60,127
56438,note_on,1,0,0,,11,,,58,127
56438,note_on,0,0,0,,11,,,46,127
56438,note_on,0,0,0,,10,,,81,127
56552,note_off,114,0,0,,10,,,81,127
56552,note_off,0,0,0,,11,,,70,127
56553,note_on,1,0,0,,11,,,82,127
56667,note_off,114,0,0,,11,,,82,127
56667,note_off,0,0,0,,11,,,46,127
56667,note_off,0,0,0,,11,,,58,127
56668,note_on,1,0,0,,3,,,51,127
56668,note_on,0,0,0,,10,,,81,127
56668,note_on,0,0,0,,11,,,82,127
56782,note_off,114,0,0,,11,,,82,127
56782,note_off,0,0,0,,10,,,81,127
56783,note_on,1,0,0,,7,,,79,127
56897,note_off,114,0,0,,7,,,79,127
56897,note_off,0,0,0,,3,,,51,127
56898,note_on,1,0,0,,5,,,53,127
56898,note_on,0,0,0,,5,,,77,127
57012,note_off,114,0,0,,5,,,77,127
57013,note_on,1,0,0,,3,,,75,127
57127,note_off,114,0,0,,3,,,75,127
57128,note_on,1,0,0,,5,,,41,127
57128,note_on,0,0,0,,2,,,74,127
57242,note_off,114,0,0,,2,,,74,127
57243,note_on,1,0,0,,0,,,72,127
57357,note_off,114,0,0,,0,,,72,127
57357,note_off,0,0,0,,5,,,41,127
57357,note_off,0,0,0,,5,,,53,127
57358,note_on,1,0,0,,11,,,46,127
57358,note_on,0,0,0,,11,,,58,127
57473,note_on,115,0,0,,10,,,69,127
57587,note_off,114,0,0,,10,,,69,127
57587,note_off,0,0,0,,11,,,58,127
57587,note_off,0,0,0,,11,,,46,127
57588,note_on,1,0,0,,11,,,46,127
57588,note_on,0,0,0,,11,,,70,127
57703,note_on,115,0,0,,11,,,58,127
57817,note_off,114,0,0,,11,,,70,127
57817,note_off,0,0,0,,11,,,46,127
57818,note_on,1,0,0,,10,,,57,127
57818,note_on,0,0,0,,10,,,45,127
57818,note_on,0,0,0,,10,,,69,127
57932,note_off,114,0,0,,10,,,69,127
57932,note_off,0,0,0,,11,,,58,127
57933,note_on,1,0,0,,11,,,70,127
58047,note_off,114,0,0,,10,,,45,127
58047,note_off,0,0,0,,10,,,57,127
58048,note_on,1,0,0,,7,,,43,127
58048,note_on,0,0,0,,7,,,55,127
58048,note_on,0,0,0,,11,,,58,127
58162,note_off,114,0,0,,11,,,70,127
58163,note_on,1,0,0,,10,,,69,127
58277,note_off,114,0,0,,10,,,69,127
58277,note_off,0,0,0,,11,,,58,127
58277,note_off,0,0,0,,7,,,55,127
58277,note_off,0,0,0,,7,,,43,127
58278,note_on,1,0,0,,5,,,41,127
58278,note_on,0,0,0,,5,,,53,127
58278,note_on,0,0,0,,11,,,70,127
58393,note_on,115,0,0,,11,,,58,127
58507,note_off,114,0,0,,11,,,70,127
58507,note_off,0,0,0,,5,,,53,127
58507,note_off,0,0,0,,5,,,41,127
58508,note_on,1,0,0,,3,,,39,127
58508,note_on,0,0,0,,3,,,51,127
58508,note_on,0,0,0,,10,,,69,127
58622,note_off,114,0,0,,10,,,69,127
58622,note_off,0,0,0,,11,,,58,127
58623,note_on,1,0,0,,11,,,70,127
58737,note_off,114,0,0,,3,,,51,127
58737,note_off,0,0,0,,3,,,39,127
58738,note_on,1,0,0,,2,,,38,127
58738,note_on,0,0,0,,2,,,50,127
58738,note_on,0,0,0,,11,,,58,127
58852,note_off,114,0,0,,11,,,70,127
58853,note_on,1,0,0,,10,,,69,127
58967,note_off,114,0,0,,10,,,69,127
58967,note_off,0,0,0,,11,,,58,127
58967,note_off,0,0,0,,2,,,50,127
58967,note_off,0,0,0,,2,,,38,127
58968,note_on,1,0,0,,0,,,48,127
58968,note_on,0,0,0,,0,,,36,127
58968,note_on,0,0,0,,11,,,70,127
59083,note_on,115,0,0,,11,,,58,127
59197,note_off,114,0,0,,11,,,70,127
59197,note_off,0,0,0,,0,,,36,127
59197,note_off,0,0,0,,0,,,48,127
59198,note_on,1,0,0,,11,,,46,127
59198,note_on,0,0,0,,10,,,69,127
59312,note_off,114,0,0,,10,,,69,127
59312,note_off,0,0,0,,11,,,58,127
59313,note_on,1,0,0,,11,,,70,127
59427,note_off,114,0,0,,11,,,70,127
59427,note_off,0,0,0,,11,,,46,127
59428,note_on,1,0,0,,11,,,70,127
59428,note_on,0,0,0,,10,,,69,127
59428,note_on,0,0,0,,3,,,51,127
59544,note_off,116,0,0,,10,,,69,127
59544,note_off,0,0,0,,11,,,70,127
59546,note_on,2,0,0,,7,,,67,127
59662,note_off,116,0,0,,7,,,67,127
59662,note_off,0,0,0,,3,,,51,127
59666,note_on,4,0,0,,5,,,65,127
59666,note_on,0,0,0,,5,,,53,127
59782,note_off,116,0,0,,5,,,65,127
59786,note_on,4,0,0,,3,,,63,127
59902,note_off,116,0,0,,3,,,63,127
59906,note_on,4,0,0,,2,,,62,127
59906,note_on,0,0,0,,5,,,41,127
60022,note_off,116,0,0,,2,,,62,127
60026,note_on,4,0,0,,0,,,60,127
60139,note_off,113,0,0,,5,,,53,127
60141,note_off,2,0,0,,5,,,41,127
60142,note_off,1,0,0,,0,,,60,127
60146,note_on,4,0,0,,0,,,60,127
60146,note_on,0,0,0,,11,,,46,127
60186,note_on,40,0,0,,11,,,58,127
60216,note_off,30,0,0,,0,,,60,127
60226,note_on,10,0,0,,0,,,60,127
60256,note_off,30,0,0,,11,,,58,127
60266,note_on,10,0,0,,11,,,58,127
60296,note_off,30,0,0,,0,,,60,127
61927,note_off,1631,0,0,,11,,,58,127
61927,note_off,0,0,0,,11,,,46,127
66048,end_of_track,4121,1,0,,,,,,
