tick,type,time,meta,track,program,channel,pitch,tempo,note,velocity
0,copyright,0,1,0,,,,,,
0,program_change,0,0,0,6,0,,,,
0,pitchwheel,0,0,0,,0,0,,,
0,program_change,0,0,0,6,1,,,,
0,pitchwheel,0,0,0,,1,-590,,,
0,program_change,0,0,0,6,2,,,,
0,pitchwheel,0,0,0,,2,-272,,,
0,program_change,0,0,0,6,3,,,,
0,pitchwheel,0,0,0,,3,-353,,,
0,program_change,0,0,0,6,4,,,,
0,pitchwheel,0,0,0,,4,-560,,,
0,program_change,0,0,0,6,5,,,,
0,pitchwheel,0,0,0,,5,-80,,,
0,program_change,0,0,0,6,6,,,,
0,pitchwheel,0,0,0,,6,-625,,,
0,program_change,0,0,0,6,7,,,,
0,pitchwheel,0,0,0,,7,-130,,,
0,program_change,0,0,0,6,8,,,,
0,pitchwheel,0,0,0,,8,-512,,,
0,program_change,0,0,0,6,10,,,,
0,pitchwheel,0,0,0,,10,-464,,,
0,program_change,0,0,0,6,11,,,,
0,pitchwheel,0,0,0,,11,-208,,,
0,program_change,0,0,0,6,12,,,,
0,pitchwheel,0,0,0,,12,-553,,,
0,set_tempo,0,1,0,,,,500000,,
115,note_on,115,0,0,,5,,,77,127
344,note_off,229,0,0,,5,,,77,127
345,note_on,1,0,0,,0,,,72,127
574,note_off,229,0,0,,0,,,72,127
575,note_on,1,0,0,,5,,,77,127
804,note_off,229,0,0,,5,,,77,127
805,note_on,1,0,0,,0,,,72,127
1034,note_off,229,0,0,,0,,,72,127
1035,note_on,1,0,0,,5,,,77,127
1264,note_off,229,0,0,,5,,,77,127
1265,note_on,1,0,0,,0,,,72,127
1494,note_off,229,0,0,,0,,,72,127
1495,note_on,1,0,0,,5,,,77,127
1724,note_off,229,0,0,,5,,,77,127
1725,note_on,1,0,0,,7,,,79,127
1839,note_off,114,0,0,,7,,,79,127
1840,note_on,1,0,0,,10,,,81,127
1954,note_off,114,0,0,,10,,,81,127
1955,note_on,1,0,0,,11,,,82,127
2069,note_off,114,0,0,,11,,,82,127
2070,note_on,1,0,0,,7,,,79,127
2184,note_off,114,0,0,,7,,,79,127
2185,note_on,1,0,0,,10,,,81,127
2299,note_off,114,0,0,,10,,,81,127
2300,note_on,1,0,0,,5,,,77,127
2414,note_off,114,0,0,,5,,,77,127
2415,note_on,1,0,0,,7,,,79,127
2529,note_off,114,0,0,,7,,,79,127
2530,note_on,1,0,0,,4,,,76,127
2644,note_off,114,0,0,,4,,,76,127
2645,note_on,1,0,0,,5,,,77,127
2759,note_off,114,0,0,,5,,,77,127
2760,note_on,1,0,0,,2,,,74,127
2874,note_off,114,0,0,,2,,,74,127
2875,note_on,1,0,0,,4,,,76,127
2989,note_off,114,0,0,,4,,,76,127
2990,note_on,1,0,0,,0,,,72,127
3104,note_off,114,0,0,,0,,,72,127
3105,note_on,1,0,0,,2,,,74,127
3219,note_off,114,0,0,,2,,,74,127
3220,note_on,1,0,0,,11,,,70,127
3334,note_off,114,0,0,,11,,,70,127
3335,note_on,1,0,0,,0,,,72,127
3449,note_off,114,0,0,,0,,,72,127
3450,note_on,1,0,0,,10,,,69,127
3564,note_off,114,0,0,,10,,,69,127
3565,note_on,1,0,0,,11,,,70,127
3679,note_off,114,0,0,,11,,,70,127
3680,note_on,1,0,0,,7,,,67,127
3794,note_off,114,0,0,,7,,,67,127
3795,note_on,1,0,0,,5,,,65,127
3795,note_on,0,0,0,,7,,,67,127
4024,note_off,229,0,0,,7,,,67,127
4024,note_off,0,0,0,,5,,,65,127
4025,note_on,1,0,0,,0,,,60,127
4025,note_on,0,0,0,,10,,,69,127
4253,note_off,228,0,0,,10,,,69,127
4254,note_off,1,0,0,,0,,,60,127
4255,note_on,1,0,0,,5,,,65,127
4370,note_on,115,0,0,,2,,,74,127
4484,note_off,114,0,0,,2,,,74,127
4484,note_off,0,0,0,,5,,,65,127
4485,note_on,1,0,0,,0,,,60,127
4485,note_on,0,0,0,,0,,,72,127
4599,note_off,114,0,0,,0,,,72,127
4600,note_on,1,0,0,,11,,,70,127
4714,note_off,114,0,0,,11,,,70,127
4714,note_off,0,0,0,,0,,,60,127
4715,note_on,1,0,0,,5,,,65,127
4715,note_on,0,0,0,,11,,,70,127
4944,note_off,229,0,0,,11,,,70,127
4944,note_off,0,0,0,,5,,,65,127
4945,note_on,1,0,0,,0,,,60,127
4945,note_on,0,0,0,,10,,,69,127
5173,note_off,228,0,0,,10,,,69,127
5174,note_off,1,0,0,,0,,,60,127
5175,note_on,1,0,0,,5,,,65,127
5290,note_on,115,0,0,,7,,,79,127
5404,note_off,114,0,0,,7,,,79,127
5404,note_off,0,0,0,,5,,,65,127
5405,note_on,1,0,0,,7,,,67,127
5405,note_on,0,0,0,,5,,,77,127
5519,note_off,114,0,0,,5,,,77,127
5519,note_off,0,0,0,,7,,,67,127
5520,note_on,1,0,0,,10,,,69,127
5520,note_on,0,0,0,,4,,,76,127
5634,note_off,114,0,0,,4,,,76,127
5634,note_off,0,0,0,,10,,,69,127
5635,note_on,1,0,0,,11,,,70,127
5635,note_on,0,0,0,,2,,,74,127
5749,note_off,114,0,0,,11,,,70,127
5750,note_on,1,0,0,,7,,,67,127
5864,note_off,114,0,0,,7,,,67,127
5864,note_off,0,0,0,,2,,,74,127
5865,note_on,1,0,0,,10,,,69,127
5865,note_on,0,0,0,,0,,,72,127
5979,note_off,114,0,0,,10,,,69,127
5980,note_on,1,0,0,,5,,,65,127
6094,note_off,114,0,0,,5,,,65,127
6094,note_off,0,0,0,,0,,,72,127
6095,note_on,1,0,0,,7,,,67,127
6095,note_on,0,0,0,,11,,,70,127
6209,note_off,114,0,0,,7,,,67,127
6210,note_on,1,0,0,,4,,,64,127
6324,note_off,114,0,0,,4,,,64,127
6324,note_off,0,0,0,,11,,,70,127
6325,note_on,1,0,0,,5,,,65,127
6325,note_on,0,0,0,,10,,,69,127
6439,note_off,114,0,0,,5,,,65,127
6440,note_on,1,0,0,,2,,,62,127
6554,note_off,114,0,0,,2,,,62,127
6554,note_off,0,0,0,,10,,,69,127
6555,note_on,1,0,0,,4,,,64,127
6555,note_on,0,0,0,,7,,,67,127
6669,note_off,114,0,0,,4,,,64,127
6670,note_on,1,0,0,,0,,,60,127
6784,note_off,114,0,0,,0,,,60,127
6784,note_off,0,0,0,,7,,,67,127
6785,note_on,1,0,0,,2,,,62,127
6785,note_on,0,0,0,,5,,,65,127
6899,note_off,114,0,0,,2,,,62,127
6900,note_on,1,0,0,,11,,,58,127
7014,note_off,114,0,0,,11,,,58,127
7014,note_off,0,0,0,,5,,,65,127
7015,note_on,1,0,0,,0,,,60,127
7015,note_on,0,0,0,,4,,,64,127
7129,note_off,114,0,0,,0,,,60,127
7130,note_on,1,0,0,,10,,,57,127
7244,note_off,114,0,0,,10,,,57,127
7244,note_off,0,0,0,,4,,,64,127
7245,note_on,1,0,0,,11,,,58,127
7245,note_on,0,0,0,,2,,,62,127
7359,note_off,114,0,0,,11,,,58,127
7360,note_on,1,0,0,,7,,,55,127
7474,note_off,114,0,0,,7,,,55,127
7474,note_off,0,0,0,,2,,,62,127
7475,note_on,1,0,0,,10,,,57,127
7475,note_on,0,0,0,,0,,,60,127
7590,note_on,115,0,0,,0,,,72,127
7704,note_off,114,0,0,,0,,,72,127
7705,note_on,1,0,0,,0,,,72,127
7705,note_on,0,0,0,,11,,,70,127
7819,note_off,114,0,0,,11,,,70,127
7819,note_off,0,0,0,,0,,,72,127
7820,note_on,1,0,0,,10,,,69,127
7930,note_off,110,0,0,,0,,,60,127
7934,note_off,4,0,0,,10,,,69,127
7934,note_off,0,0,0,,10,,,57,127
7935,note_on,1,0,0,,7,,,55,127
7935,note_on,0,0,0,,11,,,70,127
7935,note_on,0,0,0,,2,,,62,127
8049,note_off,114,0,0,,11,,,70,127
8050,note_on,1,0,0,,2,,,74,127
8163,note_off,113,0,0,,2,,,62,127
8164,note_off,1,0,0,,2,,,74,127
8164,note_off,0,0,0,,7,,,55,127
8165,note_on,1,0,0,,0,,,48,127
8165,note_on,0,0,0,,0,,,72,127
8165,note_on,0,0,0,,4,,,64,127
8279,note_off,114,0,0,,0,,,72,127
8280,note_on,1,0,0,,11,,,70,127
8393,note_off,113,0,0,,4,,,64,127
8394,note_off,1,0,0,,11,,,70,127
8394,note_off,0,0,0,,0,,,48,127
8395,note_on,1,0,0,,5,,,53,127
8395,note_on,0,0,0,,10,,,69,127
8395,note_on,0,0,0,,5,,,65,127
8509,note_off,114,0,0,,10,,,69,127
8510,note_on,1,0,0,,0,,,72,127
8623,note_off,113,0,0,,5,,,65,127
8624,note_off,1,0,0,,0,,,72,127
8624,note_off,0,0,0,,5,,,53,127
8625,note_on,1,0,0,,10,,,57,127
8625,note_on,0,0,0,,0,,,60,127
8625,note_on,0,0,0,,11,,,70,127
8739,note_off,114,0,0,,11,,,70,127
8740,note_on,1,0,0,,10,,,69,127
8853,note_off,113,0,0,,0,,,60,127
8854,note_off,1,0,0,,10,,,69,127
8854,note_off,0,0,0,,10,,,57,127
8855,note_on,1,0,0,,7,,,55,127
8855,note_on,0,0,0,,2,,,62,127
8855,note_on,0,0,0,,11,,,70,127
8969,note_off,114,0,0,,11,,,70,127
8970,note_on,1,0,0,,2,,,74,127
9083,note_off,113,0,0,,2,,,62,127
9084,note_off,1,0,0,,2,,,74,127
9084,note_off,0,0,0,,7,,,55,127
9085,note_on,1,0,0,,0,,,48,127
9085,note_on,0,0,0,,4,,,64,127
9085,note_on,0,0,0,,0,,,72,127
9199,note_off,114,0,0,,0,,,72,127
9200,note_on,1,0,0,,11,,,70,127
9313,note_off,113,0,0,,4,,,64,127
9314,note_off,1,0,0,,11,,,70,127
9314,note_off,0,0,0,,0,,,48,127
9315,note_on,1,0,0,,10,,,57,127
9315,note_on,0,0,0,,5,,,53,127
9315,note_on,0,0,0,,5,,,65,127
9315,note_on,0,0,0,,10,,,69,127
9429,note_off,114,0,0,,10,,,57,127
9430,note_on,1,0,0,,0,,,60,127
9544,note_off,114,0,0,,0,,,60,127
9545,note_on,1,0,0,,11,,,58,127
9545,note_on,0,0,0,,0,,,60,127
9659,note_off,114,0,0,,0,,,60,127
9659,note_off,0,0,0,,11,,,58,127
9660,note_on,1,0,0,,10,,,57,127
9770,note_off,110,0,0,,10,,,69,127
9770,note_off,0,0,0,,5,,,65,127
9770,note_off,0,0,0,,5,,,53,127
9774,note_off,4,0,0,,10,,,57,127
9775,note_on,1,0,0,,11,,,58,127
9775,note_on,0,0,0,,2,,,50,127
9889,note_off,114,0,0,,11,,,58,127
9890,note_on,1,0,0,,2,,,62,127
10003,note_off,113,0,0,,2,,,50,127
10004,note_off,1,0,0,,2,,,62,127
10005,note_on,1,0,0,,0,,,60,127
10005,note_on,0,0,0,,4,,,52,127
10119,note_off,114,0,0,,0,,,60,127
10120,note_on,1,0,0,,11,,,58,127
10233,note_off,113,0,0,,4,,,52,127
10234,note_off,1,0,0,,11,,,58,127
10235,note_on,1,0,0,,5,,,53,127
10235,note_on,0,0,0,,10,,,57,127
10349,note_off,114,0,0,,10,,,57,127
10350,note_on,1,0,0,,0,,,60,127
10464,note_off,114,0,0,,0,,,60,127
10465,note_on,1,0,0,,11,,,58,127
10465,note_on,0,0,0,,0,,,60,127
10579,note_off,114,0,0,,0,,,60,127
10579,note_off,0,0,0,,11,,,58,127
10580,note_on,1,0,0,,10,,,57,127
10690,note_off,110,0,0,,5,,,53,127
10694,note_off,4,0,0,,10,,,57,127
10695,note_on,1,0,0,,11,,,58,127
10695,note_on,0,0,0,,2,,,50,127
10809,note_off,114,0,0,,11,,,58,127
10810,note_on,1,0,0,,2,,,62,127
10923,note_off,113,0,0,,2,,,50,127
10924,note_off,1,0,0,,2,,,62,127
10925,note_on,1,0,0,,4,,,52,127
10925,note_on,0,0,0,,0,,,60,127
11039,note_off,114,0,0,,0,,,60,127
11040,note_on,1,0,0,,11,,,58,127
11153,note_off,113,0,0,,4,,,52,127
11154,note_off,1,0,0,,11,,,58,127
11155,note_on,1,0,0,,10,,,57,127
11155,note_on,0,0,0,,5,,,53,127
11155,note_on,0,0,0,,10,,,69,127
11269,note_off,114,0,0,,10,,,69,127
11270,note_on,1,0,0,,0,,,72,127
11384,note_off,114,0,0,,0,,,72,127
11384,note_off,0,0,0,,5,,,53,127
11384,note_off,0,0,0,,10,,,57,127
11385,note_on,1,0,0,,5,,,65,127
11385,note_on,0,0,0,,12,,,71,127
11385,note_on,0,0,0,,0,,,72,127
11499,note_off,114,0,0,,0,,,72,127
11499,note_off,0,0,0,,12,,,71,127
11500,note_on,1,0,0,,10,,,69,127
11614,note_off,114,0,0,,10,,,69,127
11615,note_on,1,0,0,,2,,,74,127
11729,note_off,114,0,0,,2,,,74,127
11730,note_on,1,0,0,,5,,,77,127
11844,note_off,114,0,0,,5,,,77,127
11844,note_off,0,0,0,,5,,,65,127
11845,note_on,1,0,0,,12,,,59,127
11845,note_on,0,0,0,,5,,,77,127
11845,note_on,0,0,0,,4,,,76,127
11959,note_off,114,0,0,,4,,,76,127
11959,note_off,0,0,0,,5,,,77,127
11960,note_on,1,0,0,,2,,,74,127
12074,note_off,114,0,0,,2,,,74,127
12074,note_off,0,0,0,,12,,,59,127
12075,note_on,1,0,0,,0,,,60,127
12075,note_on,0,0,0,,4,,,76,127
12075,note_on,0,0,0,,0,,,72,127
12189,note_off,114,0,0,,4,,,76,127
12190,note_on,1,0,0,,7,,,79,127
12303,note_off,113,0,0,,0,,,72,127
12304,note_off,1,0,0,,7,,,79,127
12304,note_off,0,0,0,,0,,,60,127
12305,note_on,1,0,0,,0,,,48,127
12305,note_on,0,0,0,,7,,,67,127
12305,note_on,0,0,0,,5,,,77,127
12419,note_off,114,0,0,,5,,,77,127
12420,note_on,1,0,0,,4,,,76,127
12533,note_off,113,0,0,,7,,,67,127
12534,note_off,1,0,0,,4,,,76,127
12534,note_off,0,0,0,,0,,,48,127
12535,note_on,1,0,0,,5,,,53,127
12535,note_on,0,0,0,,5,,,77,127
12535,note_on,0,0,0,,10,,,69,127
12649,note_off,114,0,0,,5,,,77,127
12650,note_on,1,0,0,,10,,,81,127
12763,note_off,113,0,0,,10,,,69,127
12764,note_off,1,0,0,,10,,,81,127
12764,note_off,0,0,0,,5,,,53,127
12765,note_on,1,0,0,,7,,,55,127
12765,note_on,0,0,0,,12,,,71,127
12765,note_on,0,0,0,,7,,,79,127
12879,note_off,114,0,0,,7,,,79,127
12880,note_on,1,0,0,,5,,,77,127
12993,note_off,113,0,0,,12,,,71,127
12994,note_off,1,0,0,,5,,,77,127
12994,note_off,0,0,0,,7,,,55,127
12995,note_on,1,0,0,,0,,,60,127
12995,note_on,0,0,0,,0,,,72,127
12995,note_on,0,0,0,,4,,,76,127
13109,note_off,114,0,0,,4,,,76,127
13110,note_on,1,0,0,,7,,,79,127
13223,note_off,113,0,0,,0,,,72,127
13224,note_off,1,0,0,,7,,,79,127
13224,note_off,0,0,0,,0,,,60,127
13225,note_on,1,0,0,,0,,,48,127
13225,note_on,0,0,0,,7,,,79,127
13225,note_on,0,0,0,,5,,,77,127
13225,note_on,0,0,0,,7,,,67,127
13339,note_off,114,0,0,,5,,,77,127
13339,note_off,0,0,0,,7,,,79,127
13340,note_on,1,0,0,,4,,,76,127
13453,note_off,113,0,0,,7,,,67,127
13454,note_off,1,0,0,,4,,,76,127
13454,note_off,0,0,0,,0,,,48,127
13455,note_on,1,0,0,,5,,,53,127
13455,note_on,0,0,0,,10,,,69,127
13455,note_on,0,0,0,,5,,,77,127
13569,note_off,114,0,0,,5,,,77,127
13570,note_on,1,0,0,,10,,,81,127
13683,note_off,113,0,0,,10,,,69,127
13684,note_off,1,0,0,,10,,,81,127
13684,note_off,0,0,0,,5,,,53,127
13685,note_on,1,0,0,,7,,,55,127
13685,note_on,0,0,0,,7,,,79,127
13685,note_on,0,0,0,,12,,,71,127
13799,note_off,114,0,0,,7,,,79,127
13800,note_on,1,0,0,,5,,,77,127
13913,note_off,113,0,0,,12,,,71,127
13914,note_off,1,0,0,,5,,,77,127
13914,note_off,0,0,0,,7,,,55,127
13915,note_on,1,0,0,,0,,,60,127
13915,note_on,0,0,0,,4,,,64,127
13915,note_on,0,0,0,,0,,,72,127
13915,note_on,0,0,0,,4,,,76,127
14029,note_off,114,0,0,,4,,,64,127
14030,note_on,1,0,0,,7,,,67,127
14144,note_off,114,0,0,,7,,,67,127
14145,note_on,1,0,0,,5,,,65,127
14145,note_on,0,0,0,,7,,,67,127
14259,note_off,114,0,0,,7,,,67,127
14259,note_off,0,0,0,,5,,,65,127
14260,note_on,1,0,0,,4,,,64,127
14370,note_off,110,0,0,,4,,,76,127
14370,note_off,0,0,0,,0,,,72,127
14370,note_off,0,0,0,,0,,,60,127
14374,note_off,4,0,0,,4,,,64,127
14375,note_on,1,0,0,,10,,,57,127
14375,note_on,0,0,0,,5,,,65,127
14489,note_off,114,0,0,,5,,,65,127
14490,note_on,1,0,0,,10,,,69,127
14603,note_off,113,0,0,,10,,,57,127
14604,note_off,1,0,0,,10,,,69,127
14605,note_on,1,0,0,,7,,,67,127
14605,note_on,0,0,0,,12,,,59,127
14719,note_off,114,0,0,,7,,,67,127
14720,note_on,1,0,0,,5,,,65,127
14833,note_off,113,0,0,,12,,,59,127
14834,note_off,1,0,0,,5,,,65,127
14835,note_on,1,0,0,,0,,,60,127
14835,note_on,0,0,0,,4,,,64,127
14949,note_off,114,0,0,,4,,,64,127
14950,note_on,1,0,0,,7,,,67,127
15064,note_off,114,0,0,,7,,,67,127
15065,note_on,1,0,0,,5,,,65,127
15065,note_on,0,0,0,,7,,,67,127
15179,note_off,114,0,0,,7,,,67,127
15179,note_off,0,0,0,,5,,,65,127
15180,note_on,1,0,0,,4,,,64,127
15290,note_off,110,0,0,,0,,,60,127
15294,note_off,4,0,0,,4,,,64,127
15295,note_on,1,0,0,,10,,,57,127
15295,note_on,0,0,0,,5,,,65,127
15409,note_off,114,0,0,,5,,,65,127
15410,note_on,1,0,0,,10,,,69,127
15523,note_off,113,0,0,,10,,,57,127
15524,note_off,1,0,0,,10,,,69,127
15525,note_on,1,0,0,,12,,,59,127
15525,note_on,0,0,0,,7,,,67,127
15639,note_off,114,0,0,,7,,,67,127
15640,note_on,1,0,0,,5,,,65,127
15753,note_off,113,0,0,,12,,,59,127
15754,note_off,1,0,0,,5,,,65,127
15755,note_on,1,0,0,,0,,,60,127
15755,note_on,0,0,0,,4,,,64,127
15870,note_on,115,0,0,,7,,,79,127
15984,note_off,114,0,0,,7,,,79,127
15985,note_on,1,0,0,,5,,,77,127
16099,note_off,114,0,0,,5,,,77,127
16100,note_on,1,0,0,,4,,,76,127
16214,note_off,114,0,0,,4,,,76,127
16215,note_on,1,0,0,,0,,,84,127
16329,note_off,114,0,0,,0,,,84,127
16330,note_off,1,0,0,,4,,,64,127
16330,note_on,0,0,0,,12,,,83,127
16444,note_off,114,0,0,,12,,,83,127
16444,note_off,0,0,0,,0,,,60,127
16445,note_on,1,0,0,,4,,,64,127
16445,note_on,0,0,0,,10,,,81,127
16559,note_off,114,0,0,,10,,,81,127
16560,note_on,1,0,0,,7,,,79,127
16674,note_off,114,0,0,,7,,,79,127
16674,note_off,0,0,0,,4,,,64,127
16675,note_on,1,0,0,,5,,,65,127
16675,note_on,0,0,0,,10,,,81,127
16789,note_off,114,0,0,,10,,,81,127
16790,note_on,1,0,0,,7,,,79,127
16904,note_off,114,0,0,,7,,,79,127
16904,note_off,0,0,0,,5,,,65,127
16905,note_on,1,0,0,,5,,,53,127
16905,note_on,0,0,0,,5,,,77,127
17019,note_off,114,0,0,,5,,,77,127
17020,note_on,1,0,0,,4,,,76,127
17134,note_off,114,0,0,,4,,,76,127
17134,note_off,0,0,0,,5,,,53,127
17135,note_on,1,0,0,,7,,,67,127
17135,note_on,0,0,0,,4,,,76,127
17249,note_off,114,0,0,,4,,,76,127
17250,note_on,1,0,0,,2,,,74,127
17364,note_off,114,0,0,,2,,,74,127
17364,note_off,0,0,0,,7,,,67,127
17365,note_on,1,0,0,,7,,,55,127
17365,note_on,0,0,0,,0,,,72,127
17479,note_off,114,0,0,,0,,,72,127
17480,note_on,1,0,0,,12,,,71,127
17593,note_off,113,0,0,,7,,,55,127
17594,note_off,1,0,0,,12,,,71,127
17595,note_on,1,0,0,,0,,,72,127
17709,note_off,114,0,0,,0,,,72,127
17710,note_on,1,0,0,,7,,,79,127
17824,note_off,114,0,0,,7,,,79,127
17825,note_on,1,0,0,,0,,,60,127
17825,note_on,0,0,0,,4,,,76,127
17939,note_off,114,0,0,,4,,,76,127
17940,note_on,1,0,0,,0,,,72,127
18054,note_off,114,0,0,,0,,,72,127
18054,note_off,0,0,0,,0,,,60,127
18055,note_on,1,0,0,,7,,,67,127
18055,note_on,0,0,0,,2,,,74,127
18163,note_off,108,0,0,,7,,,67,127
18170,note_on,7,0,0,,7,,,67,127
18228,note_off,58,0,0,,2,,,74,127
18284,note_off,56,0,0,,7,,,67,127
18285,note_on,1,0,0,,7,,,43,127
18285,note_on,0,0,0,,5,,,77,127
18399,note_off,114,0,0,,5,,,77,127
18400,note_on,1,0,0,,2,,,74,127
18514,note_off,114,0,0,,2,,,74,127
18514,note_off,0,0,0,,7,,,43,127
18515,note_on,1,0,0,,0,,,36,127
18515,note_on,0,0,0,,4,,,76,127
18629,note_off,114,0,0,,4,,,76,127
18630,note_on,1,0,0,,7,,,79,127
18744,note_off,114,0,0,,7,,,79,127
18744,note_off,0,0,0,,0,,,36,127
18745,note_on,1,0,0,,0,,,60,127
18745,note_on,0,0,0,,4,,,76,127
18859,note_off,114,0,0,,4,,,76,127
18860,note_on,1,0,0,,0,,,72,127
18974,note_off,114,0,0,,0,,,72,127
18974,note_off,0,0,0,,0,,,60,127
18975,note_on,1,0,0,,7,,,67,127
18975,note_on,0,0,0,,2,,,74,127
19083,note_off,108,0,0,,7,,,67,127
19090,note_on,7,0,0,,7,,,67,127
19148,note_off,58,0,0,,2,,,74,127
19204,note_off,56,0,0,,7,,,67,127
19205,note_on,1,0,0,,7,,,43,127
19205,note_on,0,0,0,,5,,,77,127
19319,note_off,114,0,0,,5,,,77,127
19320,note_on,1,0,0,,2,,,74,127
19434,note_off,114,0,0,,2,,,74,127
19434,note_off,0,0,0,,7,,,43,127
19435,note_on,1,0,0,,0,,,36,127
19435,note_on,0,0,0,,4,,,76,127
19549,note_off,114,0,0,,4,,,76,127
19550,note_on,1,0,0,,7,,,79,127
19664,note_off,114,0,0,,7,,,79,127
19664,note_off,0,0,0,,0,,,36,127
19665,note_on,1,0,0,,0,,,60,127
19665,note_on,0,0,0,,4,,,76,127
19779,note_off,114,0,0,,4,,,76,127
19780,note_on,1,0,0,,0,,,72,127
19894,note_off,114,0,0,,0,,,72,127
19894,note_off,0,0,0,,0,,,60,127
19895,note_on,1,0,0,,7,,,55,127
19895,note_on,0,0,0,,2,,,74,127
20009,note_off,114,0,0,,2,,,74,127
20010,note_on,1,0,0,,5,,,77,127
20124,note_off,114,0,0,,5,,,77,127
20124,note_off,0,0,0,,7,,,55,127
20125,note_on,1,0,0,,0,,,36,127
20125,note_on,0,0,0,,4,,,76,127
20239,note_off,114,0,0,,4,,,76,127
20240,note_on,1,0,0,,0,,,72,127
20354,note_off,114,0,0,,0,,,72,127
20354,note_off,0,0,0,,0,,,36,127
20355,note_on,1,0,0,,7,,,31,127
20355,note_on,0,0,0,,2,,,74,127
20469,note_off,114,0,0,,2,,,74,127
20470,note_on,1,0,0,,5,,,77,127
20584,note_off,114,0,0,,5,,,77,127
20584,note_off,0,0,0,,7,,,31,127
20585,note_on,1,0,0,,0,,,60,127
20585,note_on,0,0,0,,4,,,76,127
20699,note_off,114,0,0,,4,,,76,127
20700,note_on,1,0,0,,0,,,72,127
20814,note_off,114,0,0,,0,,,72,127
20814,note_off,0,0,0,,0,,,60,127
20815,note_on,1,0,0,,7,,,55,127
20815,note_on,0,0,0,,2,,,74,127
20929,note_off,114,0,0,,2,,,74,127
20930,note_on,1,0,0,,5,,,77,127
21044,note_off,114,0,0,,5,,,77,127
21044,note_off,0,0,0,,7,,,55,127
21045,note_on,1,0,0,,0,,,36,127
21045,note_on,0,0,0,,4,,,76,127
21159,note_off,114,0,0,,4,,,76,127
21160,note_on,1,0,0,,0,,,72,127
21274,note_off,114,0,0,,0,,,72,127
21274,note_off,0,0,0,,0,,,36,127
21275,note_on,1,0,0,,7,,,31,127
21275,note_on,0,0,0,,2,,,74,127
21389,note_off,114,0,0,,2,,,74,127
21390,note_on,1,0,0,,2,,,74,127
21504,note_off,114,0,0,,2,,,74,127
21504,note_off,0,0,0,,7,,,31,127
21505,note_on,1,0,0,,5,,,41,127
21505,note_on,0,0,0,,4,,,76,127
21619,note_off,114,0,0,,4,,,76,127
21620,note_on,1,0,0,,5,,,77,127
21734,note_off,114,0,0,,5,,,77,127
21734,note_off,0,0,0,,5,,,41,127
21735,note_on,1,0,0,,7,,,43,127
21735,note_on,0,0,0,,4,,,76,127
21849,note_off,114,0,0,,4,,,76,127
21850,note_on,1,0,0,,2,,,74,127
21964,note_off,114,0,0,,2,,,74,127
21964,note_off,0,0,0,,7,,,43,127
21965,note_on,1,0,0,,7,,,31,127
21965,note_on,0,0,0,,0,,,72,127
22079,note_off,114,0,0,,0,,,72,127
22080,note_on,1,0,0,,12,,,71,127
22194,note_off,114,0,0,,12,,,71,127
22194,note_off,0,0,0,,7,,,31,127
22195,note_on,1,0,0,,0,,,36,127
22195,note_on,0,0,0,,0,,,72,127
22309,note_off,114,0,0,,0,,,72,127
22310,note_on,1,0,0,,0,,,72,127
22424,note_off,114,0,0,,0,,,72,127
22424,note_off,0,0,0,,0,,,36,127
22425,note_on,1,0,0,,0,,,36,127
22425,note_on,0,0,0,,0,,,48,127
22425,note_on,0,0,0,,12,,,71,127
22539,note_off,114,0,0,,12,,,71,127
22540,note_on,1,0,0,,0,,,72,127
22654,note_off,114,0,0,,0,,,72,127
22654,note_off,0,0,0,,0,,,48,127
22654,note_off,0,0,0,,0,,,36,127
22655,note_on,1,0,0,,5,,,53,127
22655,note_on,0,0,0,,5,,,41,127
22655,note_on,0,0,0,,2,,,74,127
22769,note_off,114,0,0,,2,,,74,127
22770,note_on,1,0,0,,0,,,72,127
22884,note_off,114,0,0,,0,,,72,127
22884,note_off,0,0,0,,5,,,41,127
22884,note_off,0,0,0,,5,,,53,127
22885,note_on,1,0,0,,6,,,42,127
22885,note_on,0,0,0,,6,,,54,127
22885,note_on,0,0,0,,12,,,71,127
22999,note_off,114,0,0,,12,,,71,127
23000,note_on,1,0,0,,10,,,69,127
23114,note_off,114,0,0,,10,,,69,127
23114,note_off,0,0,0,,6,,,54,127
23114,note_off,0,0,0,,6,,,42,127
23115,note_on,1,0,0,,7,,,43,127
23115,note_on,0,0,0,,7,,,55,127
23115,note_on,0,0,0,,7,,,67,127
23229,note_off,114,0,0,,7,,,67,127
23230,note_on,1,0,0,,0,,,72,127
23344,note_off,114,0,0,,0,,,72,127
23344,note_off,0,0,0,,7,,,55,127
23344,note_off,0,0,0,,7,,,43,127
23345,note_on,1,0,0,,4,,,40,127
23345,note_on,0,0,0,,4,,,52,127
23345,note_on,0,0,0,,12,,,71,127
23459,note_off,114,0,0,,12,,,71,127
23460,note_on,1,0,0,,0,,,72,127
23574,note_off,114,0,0,,0,,,72,127
23574,note_off,0,0,0,,4,,,52,127
23574,note_off,0,0,0,,4,,,40,127
23575,note_on,1,0,0,,5,,,41,127
23575,note_on,0,0,0,,5,,,53,127
23575,note_on,0,0,0,,2,,,74,127
23689,note_off,114,0,0,,2,,,74,127
23690,note_on,1,0,0,,0,,,72,127
23804,note_off,114,0,0,,0,,,72,127
23804,note_off,0,0,0,,5,,,53,127
23804,note_off,0,0,0,,5,,,41,127
23805,note_on,1,0,0,,6,,,42,127
23805,note_on,0,0,0,,6,,,54,127
23805,note_on,0,0,0,,12,,,71,127
23919,note_off,114,0,0,,12,,,71,127
23920,note_on,1,0,0,,10,,,69,127
24034,note_off,114,0,0,,10,,,69,127
24034,note_off,0,0,0,,6,,,54,127
24034,note_off,0,0,0,,6,,,42,127
24035,note_on,1,0,0,,7,,,43,127
24035,note_on,0,0,0,,7,,,55,127
24035,note_on,0,0,0,,7,,,67,127
24149,note_off,114,0,0,,7,,,55,127
24149,note_off,0,0,0,,7,,,43,127
24150,note_on,1,0,0,,0,,,60,127
24264,note_off,114,0,0,,0,,,60,127
24264,note_off,0,0,0,,7,,,67,127
24265,note_on,1,0,0,,12,,,59,127
24265,note_on,0,0,0,,4,,,64,127
24265,note_on,0,0,0,,4,,,76,127
24379,note_off,114,0,0,,12,,,59,127
24380,note_on,1,0,0,,0,,,60,127
24494,note_off,114,0,0,,0,,,60,127
24494,note_off,0,0,0,,4,,,76,127
24494,note_off,0,0,0,,4,,,64,127
24495,note_on,1,0,0,,2,,,62,127
24495,note_on,0,0,0,,5,,,65,127
24495,note_on,0,0,0,,5,,,77,127
24609,note_off,114,0,0,,2,,,62,127
24610,note_on,1,0,0,,0,,,60,127
24724,note_off,114,0,0,,0,,,60,127
24724,note_off,0,0,0,,5,,,77,127
24724,note_off,0,0,0,,5,,,65,127
24725,note_on,1,0,0,,12,,,59,127
24725,note_on,0,0,0,,6,,,78,127
24725,note_on,0,0,0,,6,,,66,127
24839,note_off,114,0,0,,12,,,59,127
24840,note_on,1,0,0,,10,,,57,127
24954,note_off,114,0,0,,10,,,57,127
24954,note_off,0,0,0,,6,,,66,127
24954,note_off,0,0,0,,6,,,78,127
24955,note_on,1,0,0,,7,,,55,127
24955,note_on,0,0,0,,7,,,79,127
24955,note_on,0,0,0,,7,,,67,127
25069,note_off,114,0,0,,7,,,55,127
25070,note_on,1,0,0,,0,,,60,127
25184,note_off,114,0,0,,0,,,60,127
25184,note_off,0,0,0,,7,,,67,127
25184,note_off,0,0,0,,7,,,79,127
25185,note_on,1,0,0,,12,,,59,127
25185,note_on,0,0,0,,4,,,76,127
25185,note_on,0,0,0,,4,,,64,127
25299,note_off,114,0,0,,12,,,59,127
25300,note_on,1,0,0,,0,,,60,127
25414,note_off,114,0,0,,0,,,60,127
25414,note_off,0,0,0,,4,,,64,127
25414,note_off,0,0,0,,4,,,76,127
25415,note_on,1,0,0,,2,,,62,127
25415,note_on,0,0,0,,5,,,65,127
25415,note_on,0,0,0,,5,,,77,127
25529,note_off,114,0,0,,2,,,62,127
25530,note_on,1,0,0,,0,,,60,127
25644,note_off,114,0,0,,0,,,60,127
25644,note_off,0,0,0,,5,,,77,127
25644,note_off,0,0,0,,5,,,65,127
25645,note_on,1,0,0,,12,,,59,127
25645,note_on,0,0,0,,6,,,78,127
25645,note_on,0,0,0,,6,,,66,127
25759,note_off,114,0,0,,12,,,59,127
25760,note_on,1,0,0,,10,,,57,127
25874,note_off,114,0,0,,10,,,57,127
25874,note_off,0,0,0,,6,,,66,127
25874,note_off,0,0,0,,6,,,78,127
25875,note_on,1,0,0,,7,,,55,127
25875,note_on,0,0,0,,7,,,79,127
25875,note_on,0,0,0,,7,,,67,127
25989,note_off,114,0,0,,7,,,55,127
25990,note_on,1,0,0,,5,,,53,127
26104,note_off,114,0,0,,5,,,53,127
26104,note_off,0,0,0,,7,,,67,127
26104,note_off,0,0,0,,7,,,79,127
26105,note_on,1,0,0,,4,,,52,127
26105,note_on,0,0,0,,10,,,69,127
26105,note_on,0,0,0,,10,,,81,127
26219,note_off,114,0,0,,10,,,81,127
26219,note_off,0,0,0,,10,,,69,127
26219,note_off,0,0,0,,4,,,52,127
26220,note_on,1,0,0,,2,,,50,127
26220,note_on,0,0,0,,12,,,71,127
26220,note_on,0,0,0,,12,,,83,127
26334,note_off,114,0,0,,12,,,83,127
26334,note_off,0,0,0,,12,,,71,127
26334,note_off,0,0,0,,2,,,50,127
26335,note_on,1,0,0,,0,,,48,127
26335,note_on,0,0,0,,0,,,72,127
26335,note_on,0,0,0,,0,,,84,127
26449,note_off,114,0,0,,0,,,48,127
26450,note_on,1,0,0,,12,,,47,127
26564,note_off,114,0,0,,12,,,47,127
26565,note_on,1,0,0,,10,,,45,127
26679,note_off,114,0,0,,10,,,45,127
26680,note_on,1,0,0,,7,,,43,127
26794,note_off,114,0,0,,7,,,43,127
26795,note_on,1,0,0,,5,,,41,127
26862,note_off,67,0,0,,0,,,84,127
26910,note_on,48,0,0,,10,,,81,127
27024,note_off,114,0,0,,10,,,81,127
27024,note_off,0,0,0,,5,,,41,127
27025,note_on,1,0,0,,5,,,53,127
27025,note_on,0,0,0,,7,,,79,127
27139,note_off,114,0,0,,7,,,79,127
27140,note_on,1,0,0,,5,,,77,127
27254,note_off,114,0,0,,5,,,77,127
27254,note_off,0,0,0,,5,,,53,127
27254,note_off,0,0,0,,0,,,72,127
27255,note_on,1,0,0,,7,,,55,127
27255,note_on,0,0,0,,4,,,76,127
27369,note_off,114,0,0,,4,,,76,127
27370,note_on,1,0,0,,2,,,74,127
27484,note_off,114,0,0,,2,,,74,127
27484,note_off,0,0,0,,7,,,55,127
27485,note_on,1,0,0,,7,,,43,127
27485,note_on,0,0,0,,0,,,72,127
27485,note_on,0,0,0,,2,,,74,127
27599,note_off,114,0,0,,2,,,74,127
27599,note_off,0,0,0,,0,,,72,127
27600,note_on,1,0,0,,12,,,71,127
27714,note_off,114,0,0,,12,,,71,127
27714,note_off,0,0,0,,7,,,43,127
27715,note_on,1,0,0,,0,,,48,127
27715,note_on,0,0,0,,0,,,72,127
27829,note_off,114,0,0,,0,,,72,127
27830,note_on,1,0,0,,4,,,76,127
27944,note_off,114,0,0,,4,,,76,127
27944,note_off,0,0,0,,0,,,48,127
27945,note_on,1,0,0,,5,,,53,127
27945,note_on,0,0,0,,2,,,74,127
28059,note_off,114,0,0,,2,,,74,127
28060,note_on,1,0,0,,5,,,77,127
28174,note_off,114,0,0,,5,,,77,127
28174,note_off,0,0,0,,5,,,53,127
28175,note_on,1,0,0,,7,,,55,127
28175,note_on,0,0,0,,2,,,74,127
28175,note_on,0,0,0,,4,,,76,127
28289,note_off,114,0,0,,4,,,76,127
28289,note_off,0,0,0,,2,,,74,127
28290,note_on,1,0,0,,0,,,72,127
28404,note_off,114,0,0,,0,,,72,127
28404,note_off,0,0,0,,7,,,55,127
28405,note_on,1,0,0,,7,,,43,127
28405,note_on,0,0,0,,0,,,72,127
28519,note_off,114,0,0,,0,,,72,127
28520,note_on,1,0,0,,12,,,71,127
28634,note_off,114,0,0,,12,,,71,127
28634,note_off,0,0,0,,7,,,43,127
28635,note_on,1,0,0,,0,,,48,127
28635,note_on,0,0,0,,0,,,72,127
28749,note_off,114,0,0,,0,,,72,127
28750,note_on,1,0,0,,4,,,76,127
28864,note_off,114,0,0,,4,,,76,127
28864,note_off,0,0,0,,0,,,48,127
28865,note_on,1,0,0,,5,,,53,127
28865,note_on,0,0,0,,2,,,74,127
28979,note_off,114,0,0,,2,,,74,127
28980,note_on,1,0,0,,5,,,77,127
29094,note_off,114,0,0,,5,,,77,127
29094,note_off,0,0,0,,5,,,53,127
29095,note_on,1,0,0,,7,,,55,127
29095,note_on,0,0,0,,4,,,76,127
29095,note_on,0,0,0,,2,,,74,127
29209,note_off,114,0,0,,2,,,74,127
29209,note_off,0,0,0,,4,,,76,127
29210,note_on,1,0,0,,0,,,72,127
29324,note_off,114,0,0,,0,,,72,127
29324,note_off,0,0,0,,7,,,55,127
29325,note_on,1,0,0,,7,,,43,127
29325,note_on,0,0,0,,0,,,72,127
29439,note_off,114,0,0,,0,,,72,127
29440,note_on,1,0,0,,12,,,71,127
29554,note_off,114,0,0,,12,,,71,127
29554,note_off,0,0,0,,7,,,43,127
29555,note_on,1,0,0,,0,,,48,127
29555,note_on,0,0,0,,0,,,36,127
29555,note_on,0,0,0,,12,,,71,127
30015,note_off,460,0,0,,12,,,71,127
30016,note_on,1,0,0,,0,,,72,127
30472,note_off,456,0,0,,0,,,72,127
30476,note_off,4,0,0,,0,,,36,127
30476,note_off,0,0,0,,0,,,48,127
30477,note_on,1,0,0,,0,,,60,127
30706,note_off,229,0,0,,0,,,60,127
30707,note_on,1,0,0,,7,,,55,127
30936,note_off,229,0,0,,7,,,55,127
30937,note_on,1,0,0,,0,,,60,127
31166,note_off,229,0,0,,0,,,60,127
31167,note_on,1,0,0,,7,,,55,127
31396,note_off,229,0,0,,7,,,55,127
31397,note_on,1,0,0,,0,,,60,127
31511,note_off,114,0,0,,0,,,60,127
31512,note_on,1,0,0,,2,,,62,127
31626,note_off,114,0,0,,2,,,62,127
31627,note_on,1,0,0,,3,,,63,127
31741,note_off,114,0,0,,3,,,63,127
31742,note_on,1,0,0,,2,,,62,127
31856,note_off,114,0,0,,2,,,62,127
31857,note_on,1,0,0,,0,,,60,127
31971,note_off,114,0,0,,0,,,60,127
31972,note_on,1,0,0,,11,,,58,127
32086,note_off,114,0,0,,11,,,58,127
32087,note_on,1,0,0,,8,,,56,127
32201,note_off,114,0,0,,8,,,56,127
32202,note_on,1,0,0,,7,,,55,127
32316,note_off,114,0,0,,7,,,55,127
32317,note_on,1,0,0,,5,,,53,127
32431,note_off,114,0,0,,5,,,53,127
32432,note_on,1,0,0,,3,,,51,127
32546,note_off,114,0,0,,3,,,51,127
32547,note_on,1,0,0,,2,,,50,127
32661,note_off,114,0,0,,2,,,50,127
32662,note_on,1,0,0,,0,,,48,127
32776,note_off,114,0,0,,0,,,48,127
32777,note_on,1,0,0,,12,,,47,127
32891,note_off,114,0,0,,12,,,47,127
32892,note_on,1,0,0,,10,,,45,127
33006,note_off,114,0,0,,10,,,45,127
33007,note_on,1,0,0,,7,,,43,127
33121,note_off,114,0,0,,7,,,43,127
33122,note_on,1,0,0,,5,,,41,127
33236,note_off,114,0,0,,5,,,41,127
33237,note_on,1,0,0,,3,,,39,127
33237,note_on,0,0,0,,0,,,72,127
33466,note_off,229,0,0,,0,,,72,127
33466,note_off,0,0,0,,3,,,39,127
33467,note_on,1,0,0,,3,,,51,127
33467,note_on,0,0,0,,7,,,67,127
33696,note_off,229,0,0,,7,,,67,127
33697,note_on,1,0,0,,0,,,72,127
33811,note_off,114,0,0,,3,,,51,127
33812,note_on,1,0,0,,5,,,53,127
33926,note_off,114,0,0,,5,,,53,127
33926,note_off,0,0,0,,0,,,72,127
33927,note_on,1,0,0,,3,,,51,127
33927,note_on,0,0,0,,7,,,67,127
34041,note_off,114,0,0,,3,,,51,127
34042,note_on,1,0,0,,2,,,50,127
34156,note_off,114,0,0,,2,,,50,127
34156,note_off,0,0,0,,7,,,67,127
34157,note_on,1,0,0,,0,,,48,127
34157,note_on,0,0,0,,0,,,72,127
34271,note_off,114,0,0,,0,,,72,127
34272,note_on,1,0,0,,2,,,74,127
34386,note_off,114,0,0,,2,,,74,127
34386,note_off,0,0,0,,0,,,48,127
34387,note_on,1,0,0,,2,,,50,127
34387,note_on,0,0,0,,3,,,75,127
34501,note_off,114,0,0,,3,,,75,127
34502,note_on,1,0,0,,2,,,74,127
34616,note_off,114,0,0,,2,,,74,127
34616,note_off,0,0,0,,2,,,50,127
34617,note_on,1,0,0,,3,,,51,127
34617,note_on,0,0,0,,0,,,72,127
34731,note_off,114,0,0,,0,,,72,127
34732,note_on,1,0,0,,11,,,70,127
34846,note_off,114,0,0,,11,,,70,127
34846,note_off,0,0,0,,3,,,51,127
34847,note_on,1,0,0,,0,,,48,127
34847,note_on,0,0,0,,8,,,68,127
34961,note_off,114,0,0,,8,,,68,127
34962,note_on,1,0,0,,7,,,67,127
35076,note_off,114,0,0,,7,,,67,127
35076,note_off,0,0,0,,0,,,48,127
35077,note_on,1,0,0,,5,,,53,127
35077,note_on,0,0,0,,5,,,65,127
35191,note_off,114,0,0,,5,,,65,127
35192,note_on,1,0,0,,3,,,63,127
35306,note_off,114,0,0,,3,,,63,127
35306,note_off,0,0,0,,5,,,53,127
35307,note_on,1,0,0,,5,,,41,127
35307,note_on,0,0,0,,2,,,62,127
35421,note_off,114,0,0,,2,,,62,127
35422,note_on,1,0,0,,0,,,60,127
35536,note_off,114,0,0,,0,,,60,127
35536,note_off,0,0,0,,5,,,41,127
35537,note_on,1,0,0,,7,,,55,127
35537,note_on,0,0,0,,12,,,59,127
35651,note_off,114,0,0,,7,,,55,127
35652,note_on,1,0,0,,5,,,53,127
35766,note_off,114,0,0,,5,,,53,127
35766,note_off,0,0,0,,12,,,59,127
35767,note_on,1,0,0,,3,,,51,127
35767,note_on,0,0,0,,0,,,60,127
35881,note_off,114,0,0,,0,,,60,127
35881,note_off,0,0,0,,3,,,51,127
35882,note_on,1,0,0,,2,,,50,127
35882,note_on,0,0,0,,2,,,62,127
35996,note_off,114,0,0,,2,,,62,127
35996,note_off,0,0,0,,2,,,50,127
35997,note_on,1,0,0,,0,,,48,127
35997,note_on,0,0,0,,3,,,63,127
36111,note_off,114,0,0,,0,,,48,127
36112,note_on,1,0,0,,11,,,58,127
36226,note_off,114,0,0,,11,,,58,127
36226,note_off,0,0,0,,3,,,63,127
36227,note_on,1,0,0,,8,,,56,127
36227,note_on,0,0,0,,5,,,65,127
36341,note_off,114,0,0,,5,,,65,127
36341,note_off,0,0,0,,8,,,56,127
36342,note_on,1,0,0,,7,,,55,127
36342,note_on,0,0,0,,7,,,67,127
36456,note_off,114,0,0,,7,,,67,127
36456,note_off,0,0,0,,7,,,55,127
36457,note_on,1,0,0,,5,,,53,127
36457,note_on,0,0,0,,8,,,68,127
36571,note_off,114,0,0,,5,,,53,127
36572,note_on,1,0,0,,3,,,51,127
36686,note_off,114,0,0,,3,,,51,127
36686,note_off,0,0,0,,8,,,68,127
36687,note_on,1,0,0,,2,,,50,127
36687,note_on,0,0,0,,11,,,70,127
36801,note_off,114,0,0,,11,,,70,127
36801,note_off,0,0,0,,2,,,50,127
36802,note_on,1,0,0,,0,,,48,127
36802,note_on,0,0,0,,0,,,72,127
36916,note_off,114,0,0,,0,,,72,127
36916,note_off,0,0,0,,0,,,48,127
36917,note_on,1,0,0,,11,,,46,127
36917,note_on,0,0,0,,2,,,74,127
37031,note_off,114,0,0,,11,,,46,127
37032,note_on,1,0,0,,8,,,44,127
37146,note_off,114,0,0,,8,,,44,127
37146,note_off,0,0,0,,2,,,74,127
37147,note_on,1,0,0,,7,,,43,127
37147,note_on,0,0,0,,3,,,75,127
37261,note_off,114,0,0,,3,,,75,127
37261,note_off,0,0,0,,7,,,43,127
37262,note_on,1,0,0,,5,,,41,127
37262,note_on,0,0,0,,5,,,77,127
37376,note_off,114,0,0,,5,,,77,127
37376,note_off,0,0,0,,5,,,41,127
37377,note_on,1,0,0,,3,,,39,127
37377,note_on,0,0,0,,7,,,79,127
37491,note_off,114,0,0,,7,,,79,127
37492,note_on,1,0,0,,5,,,77,127
37606,note_off,114,0,0,,5,,,77,127
37607,note_on,1,0,0,,3,,,75,127
37721,note_off,114,0,0,,3,,,75,127
37722,note_on,1,0,0,,2,,,74,127
37760,note_off,38,0,0,,3,,,39,127
37836,note_off,76,0,0,,2,,,74,127
37837,note_on,1,0,0,,5,,,41,127
37837,note_on,0,0,0,,0,,,72,127
37951,note_off,114,0,0,,0,,,72,127
37952,note_on,1,0,0,,11,,,70,127
38066,note_off,114,0,0,,11,,,70,127
38067,note_on,1,0,0,,10,,,69,127
38181,note_off,114,0,0,,10,,,69,127
38182,note_on,1,0,0,,7,,,67,127
38296,note_off,114,0,0,,7,,,67,127
38296,note_off,0,0,0,,5,,,41,127
38297,note_on,1,0,0,,5,,,53,127
38297,note_on,0,0,0,,5,,,65,127
38411,note_off,114,0,0,,5,,,65,127
38412,note_on,1,0,0,,3,,,63,127
38526,note_off,114,0,0,,3,,,63,127
38527,note_on,1,0,0,,2,,,62,127
38641,note_off,114,0,0,,2,,,62,127
38642,note_on,1,0,0,,0,,,60,127
38756,note_off,114,0,0,,0,,,60,127
38756,note_off,0,0,0,,5,,,53,127
38757,note_on,1,0,0,,11,,,46,127
38757,note_on,0,0,0,,11,,,58,127
38871,note_off,114,0,0,,11,,,58,127
38872,note_on,1,0,0,,11,,,70,127
38986,note_off,114,0,0,,11,,,70,127
38986,note_off,0,0,0,,11,,,46,127
38987,note_on,1,0,0,,2,,,38,127
38987,note_on,0,0,0,,2,,,50,127
38987,note_on,0,0,0,,10,,,69,127
39101,note_off,114,0,0,,10,,,69,127
39102,note_on,1,0,0,,11,,,70,127
39216,note_off,114,0,0,,11,,,70,127
39216,note_off,0,0,0,,2,,,50,127
39216,note_off,0,0,0,,2,,,38,127
39217,note_on,1,0,0,,3,,,39,127
39217,note_on,0,0,0,,3,,,51,127
39217,note_on,0,0,0,,0,,,72,127
39331,note_off,114,0,0,,0,,,72,127
39332,note_on,1,0,0,,11,,,70,127
39446,note_off,114,0,0,,11,,,70,127
39446,note_off,0,0,0,,3,,,51,127
39446,note_off,0,0,0,,3,,,39,127
39447,note_on,1,0,0,,4,,,40,127
39447,note_on,0,0,0,,4,,,52,127
39447,note_on,0,0,0,,10,,,69,127
39561,note_off,114,0,0,,10,,,69,127
39562,note_on,1,0,0,,11,,,70,127
39676,note_off,114,0,0,,11,,,70,127
39676,note_off,0,0,0,,4,,,52,127
39676,note_off,0,0,0,,4,,,40,127
39677,note_on,1,0,0,,5,,,41,127
39677,note_on,0,0,0,,5,,,53,127
39677,note_on,0,0,0,,5,,,65,127
39791,note_off,114,0,0,,5,,,65,127
39792,note_on,1,0,0,,11,,,70,127
39906,note_off,114,0,0,,11,,,70,127
39906,note_off,0,0,0,,5,,,53,127
39906,note_off,0,0,0,,5,,,41,127
39907,note_on,1,0,0,,2,,,38,127
39907,note_on,0,0,0,,2,,,50,127
39907,note_on,0,0,0,,10,,,69,127
40021,note_off,114,0,0,,10,,,69,127
40022,note_on,1,0,0,,11,,,70,127
40136,note_off,114,0,0,,11,,,70,127
40136,note_off,0,0,0,,2,,,50,127
40136,note_off,0,0,0,,2,,,38,127
40137,note_on,1,0,0,,3,,,39,127
40137,note_on,0,0,0,,3,,,51,127
40137,note_on,0,0,0,,0,,,72,127
40251,note_off,114,0,0,,0,,,72,127
40252,note_on,1,0,0,,11,,,70,127
40366,note_off,114,0,0,,11,,,70,127
40366,note_off,0,0,0,,3,,,51,127
40366,note_off,0,0,0,,3,,,39,127
40367,note_on,1,0,0,,4,,,40,127
40367,note_on,0,0,0,,4,,,52,127
40367,note_on,0,0,0,,10,,,69,127
40481,note_off,114,0,0,,10,,,69,127
40482,note_on,1,0,0,,11,,,70,127
40596,note_off,114,0,0,,11,,,70,127
40596,note_off,0,0,0,,4,,,52,127
40596,note_off,0,0,0,,4,,,40,127
40597,note_on,1,0,0,,5,,,41,127
40597,note_on,0,0,0,,5,,,53,127
40597,note_on,0,0,0,,5,,,65,127
40711,note_off,114,0,0,,5,,,53,127
40711,note_off,0,0,0,,5,,,41,127
40712,note_on,1,0,0,,11,,,58,127
40826,note_off,114,0,0,,11,,,58,127
40826,note_off,0,0,0,,5,,,65,127
40827,note_on,1,0,0,,10,,,57,127
40827,note_on,0,0,0,,2,,,62,127
40827,note_on,0,0,0,,2,,,74,127
40941,note_off,114,0,0,,10,,,57,127
40942,note_on,1,0,0,,11,,,58,127
41056,note_off,114,0,0,,11,,,58,127
41056,note_off,0,0,0,,2,,,74,127
41056,note_off,0,0,0,,2,,,62,127
41057,note_on,1,0,0,,0,,,60,127
41057,note_on,0,0,0,,3,,,63,127
41057,note_on,0,0,0,,3,,,75,127
41171,note_off,114,0,0,,0,,,60,127
41172,note_on,1,0,0,,11,,,58,127
41286,note_off,114,0,0,,11,,,58,127
41286,note_off,0,0,0,,3,,,75,127
41286,note_off,0,0,0,,3,,,63,127
41287,note_on,1,0,0,,10,,,57,127
41287,note_on,0,0,0,,4,,,76,127
41287,note_on,0,0,0,,4,,,64,127
41401,note_off,114,0,0,,10,,,57,127
41402,note_on,1,0,0,,7,,,55,127
41516,note_off,114,0,0,,7,,,55,127
41516,note_off,0,0,0,,4,,,64,127
41516,note_off,0,0,0,,4,,,76,127
41517,note_on,1,0,0,,5,,,53,127
41517,note_on,0,0,0,,5,,,77,127
41517,note_on,0,0,0,,5,,,65,127
41631,note_off,114,0,0,,5,,,53,127
41632,note_on,1,0,0,,11,,,58,127
41746,note_off,114,0,0,,11,,,58,127
41746,note_off,0,0,0,,5,,,65,127
41746,note_off,0,0,0,,5,,,77,127
41747,note_on,1,0,0,,10,,,57,127
41747,note_on,0,0,0,,2,,,74,127
41747,note_on,0,0,0,,2,,,62,127
41861,note_off,114,0,0,,10,,,57,127
41862,note_on,1,0,0,,11,,,58,127
41976,note_off,114,0,0,,11,,,58,127
41976,note_off,0,0,0,,2,,,62,127
41976,note_off,0,0,0,,2,,,74,127
41977,note_on,1,0,0,,0,,,60,127
41977,note_on,0,0,0,,3,,,75,127
41977,note_on,0,0,0,,3,,,63,127
42091,note_off,114,0,0,,0,,,60,127
42092,note_on,1,0,0,,11,,,58,127
42206,note_off,114,0,0,,11,,,58,127
42206,note_off,0,0,0,,3,,,63,127
42206,note_off,0,0,0,,3,,,75,127
42207,note_on,1,0,0,,10,,,57,127
42207,note_on,0,0,0,,4,,,76,127
42207,note_on,0,0,0,,4,,,64,127
42321,note_off,114,0,0,,10,,,57,127
42322,note_on,1,0,0,,7,,,55,127
42436,note_off,114,0,0,,7,,,55,127
42436,note_off,0,0,0,,4,,,64,127
42436,note_off,0,0,0,,4,,,76,127
42437,note_on,1,0,0,,5,,,53,127
42437,note_on,0,0,0,,5,,,65,127
42437,note_on,0,0,0,,5,,,77,127
42551,note_off,114,0,0,,5,,,77,127
42551,note_off,0,0,0,,5,,,65,127
42552,note_on,1,0,0,,3,,,75,127
42666,note_off,114,0,0,,3,,,75,127
42666,note_off,0,0,0,,5,,,53,127
42667,note_on,1,0,0,,5,,,65,127
42667,note_on,0,0,0,,2,,,74,127
42781,note_off,114,0,0,,2,,,74,127
42782,note_on,1,0,0,,0,,,72,127
42896,note_off,114,0,0,,0,,,72,127
42897,note_on,1,0,0,,11,,,70,127
43011,note_off,114,0,0,,11,,,70,127
43012,note_on,1,0,0,,10,,,69,127
43126,note_off,114,0,0,,10,,,69,127
43126,note_off,0,0,0,,5,,,65,127
43127,note_on,1,0,0,,3,,,63,127
43127,note_on,0,0,0,,11,,,70,127
43241,note_off,114,0,0,,11,,,70,127
43242,note_on,1,0,0,,0,,,72,127
43355,note_off,113,0,0,,3,,,63,127
43356,note_off,1,0,0,,0,,,72,127
43357,note_on,1,0,0,,10,,,69,127
43471,note_off,114,0,0,,10,,,69,127
43472,note_on,1,0,0,,0,,,84,127
43586,note_off,114,0,0,,0,,,84,127
43587,note_on,1,0,0,,5,,,65,127
43587,note_on,0,0,0,,10,,,81,127
43701,note_off,114,0,0,,10,,,81,127
43702,note_on,1,0,0,,5,,,77,127
43816,note_off,114,0,0,,5,,,77,127
43816,note_off,0,0,0,,5,,,65,127
43817,note_on,1,0,0,,0,,,60,127
43817,note_on,0,0,0,,7,,,79,127
43931,note_off,114,0,0,,7,,,79,127
43932,note_on,1,0,0,,0,,,72,127
44046,note_off,114,0,0,,0,,,72,127
44046,note_off,0,0,0,,0,,,60,127
44047,note_on,1,0,0,,5,,,41,127
44047,note_on,0,0,0,,10,,,81,127
44161,note_off,114,0,0,,10,,,81,127
44162,note_on,1,0,0,,5,,,77,127
44276,note_off,114,0,0,,5,,,77,127
44276,note_off,0,0,0,,5,,,41,127
44277,note_on,1,0,0,,0,,,36,127
44277,note_on,0,0,0,,7,,,79,127
44391,note_off,114,0,0,,7,,,79,127
44392,note_on,1,0,0,,0,,,84,127
44506,note_off,114,0,0,,0,,,84,127
44506,note_off,0,0,0,,0,,,36,127
44507,note_on,1,0,0,,5,,,65,127
44507,note_on,0,0,0,,10,,,81,127
44621,note_off,114,0,0,,10,,,81,127
44622,note_on,1,0,0,,5,,,77,127
44736,note_off,114,0,0,,5,,,77,127
44736,note_off,0,0,0,,5,,,65,127
44737,note_on,1,0,0,,0,,,60,127
44737,note_on,0,0,0,,7,,,79,127
44851,note_off,114,0,0,,7,,,79,127
44852,note_on,1,0,0,,0,,,72,127
44966,note_off,114,0,0,,0,,,72,127
44966,note_off,0,0,0,,0,,,60,127
44967,note_on,1,0,0,,5,,,41,127
44967,note_on,0,0,0,,10,,,81,127
45081,note_off,114,0,0,,10,,,81,127
45082,note_on,1,0,0,,5,,,77,127
45196,note_off,114,0,0,,5,,,77,127
45196,note_off,0,0,0,,5,,,41,127
45197,note_on,1,0,0,,0,,,36,127
45197,note_on,0,0,0,,7,,,79,127
45311,note_off,114,0,0,,7,,,79,127
45312,note_on,1,0,0,,0,,,72,127
45426,note_off,114,0,0,,0,,,72,127
45426,note_off,0,0,0,,0,,,36,127
45427,note_on,1,0,0,,0,,,60,127
45427,note_on,0,0,0,,11,,,82,127
45541,note_off,114,0,0,,11,,,82,127
45542,note_on,1,0,0,,7,,,79,127
45656,note_off,114,0,0,,7,,,79,127
45656,note_off,0,0,0,,0,,,60,127
45657,note_on,1,0,0,,5,,,65,127
45657,note_on,0,0,0,,10,,,81,127
45771,note_off,114,0,0,,10,,,81,127
45772,note_on,1,0,0,,5,,,77,127
45886,note_off,114,0,0,,5,,,77,127
45886,note_off,0,0,0,,5,,,65,127
45887,note_on,1,0,0,,0,,,36,127
45887,note_on,0,0,0,,11,,,82,127
46001,note_off,114,0,0,,11,,,82,127
46002,note_on,1,0,0,,7,,,79,127
46116,note_off,114,0,0,,7,,,79,127
46116,note_off,0,0,0,,0,,,36,127
46117,note_on,1,0,0,,5,,,41,127
46117,note_on,0,0,0,,10,,,81,127
46231,note_off,114,0,0,,10,,,81,127
46232,note_on,1,0,0,,5,,,77,127
46346,note_off,114,0,0,,5,,,77,127
46346,note_off,0,0,0,,5,,,41,127
46347,note_on,1,0,0,,0,,,60,127
46347,note_on,0,0,0,,11,,,82,127
46461,note_off,114,0,0,,11,,,82,127
46462,note_on,1,0,0,,7,,,79,127
46576,note_off,114,0,0,,7,,,79,127
46576,note_off,0,0,0,,0,,,60,127
46577,note_on,1,0,0,,5,,,65,127
46577,note_on,0,0,0,,10,,,81,127
46691,note_off,114,0,0,,10,,,81,127
46692,note_on,1,0,0,,5,,,77,127
46806,note_off,114,0,0,,5,,,77,127
46806,note_off,0,0,0,,5,,,65,127
46807,note_on,1,0,0,,0,,,36,127
46807,note_on,0,0,0,,11,,,82,127
46921,note_off,114,0,0,,11,,,82,127
46922,note_on,1,0,0,,7,,,79,127
47036,note_off,114,0,0,,7,,,79,127
47036,note_off,0,0,0,,0,,,36,127
47037,note_on,1,0,0,,5,,,41,127
47037,note_on,0,0,0,,10,,,81,127
47151,note_off,114,0,0,,10,,,81,127
47152,note_on,1,0,0,,0,,,84,127
47266,note_off,114,0,0,,0,,,84,127
47266,note_off,0,0,0,,5,,,41,127
47267,note_on,1,0,0,,7,,,43,127
47267,note_on,0,0,0,,4,,,76,127
47381,note_off,114,0,0,,4,,,76,127
47382,note_on,1,0,0,,7,,,79,127
47496,note_off,114,0,0,,7,,,79,127
47496,note_off,0,0,0,,7,,,43,127
47497,note_on,1,0,0,,10,,,45,127
47497,note_on,0,0,0,,5,,,77,127
47611,note_off,114,0,0,,5,,,77,127
47612,note_on,1,0,0,,10,,,81,127
47726,note_off,114,0,0,,10,,,81,127
47726,note_off,0,0,0,,10,,,45,127
47727,note_on,1,0,0,,5,,,41,127
47727,note_on,0,0,0,,0,,,72,127
47841,note_off,114,0,0,,0,,,72,127
47842,note_on,1,0,0,,4,,,76,127
47956,note_off,114,0,0,,4,,,76,127
47956,note_off,0,0,0,,5,,,41,127
47957,note_on,1,0,0,,11,,,46,127
47957,note_on,0,0,0,,2,,,74,127
48071,note_off,114,0,0,,2,,,74,127
48072,note_on,1,0,0,,2,,,86,127
48186,note_off,114,0,0,,2,,,86,127
48186,note_off,0,0,0,,11,,,46,127
48187,note_on,1,0,0,,11,,,34,127
48187,note_on,0,0,0,,0,,,84,127
48301,note_off,114,0,0,,0,,,84,127
48302,note_on,1,0,0,,11,,,82,127
48416,note_off,114,0,0,,11,,,82,127
48416,note_off,0,0,0,,11,,,34,127
48417,note_on,1,0,0,,0,,,48,127
48417,note_on,0,0,0,,10,,,81,127
48531,note_off,114,0,0,,10,,,81,127
48532,note_on,1,0,0,,7,,,79,127
48646,note_off,114,0,0,,7,,,79,127
48646,note_off,0,0,0,,0,,,48,127
48647,note_on,1,0,0,,0,,,36,127
48647,note_on,0,0,0,,5,,,77,127
48761,note_off,114,0,0,,5,,,77,127
48762,note_on,1,0,0,,4,,,76,127
48876,note_off,114,0,0,,4,,,76,127
48876,note_off,0,0,0,,0,,,36,127
48877,note_on,1,0,0,,5,,,41,127
48877,note_on,0,0,0,,5,,,53,127
48877,note_on,0,0,0,,5,,,77,127
48991,note_off,114,0,0,,5,,,77,127
48992,note_on,1,0,0,,5,,,77,127
49106,note_off,114,0,0,,5,,,77,127
49106,note_off,0,0,0,,5,,,53,127
49106,note_off,0,0,0,,5,,,41,127
49107,note_on,1,0,0,,10,,,57,127
49107,note_on,0,0,0,,10,,,45,127
49107,note_on,0,0,0,,4,,,76,127
49221,note_off,114,0,0,,4,,,76,127
49222,note_on,1,0,0,,5,,,77,127
49336,note_off,114,0,0,,5,,,77,127
49336,note_off,0,0,0,,10,,,45,127
49336,note_off,0,0,0,,10,,,57,127
49337,note_on,1,0,0,,11,,,46,127
49337,note_on,0,0,0,,11,,,58,127
49337,note_on,0,0,0,,7,,,79,127
49451,note_off,114,0,0,,7,,,79,127
49452,note_on,1,0,0,,5,,,77,127
49566,note_off,114,0,0,,5,,,77,127
49566,note_off,0,0,0,,11,,,58,127
49566,note_off,0,0,0,,11,,,46,127
49567,note_on,1,0,0,,12,,,59,127
49567,note_on,0,0,0,,12,,,47,127
49567,note_on,0,0,0,,4,,,76,127
49681,note_off,114,0,0,,4,,,76,127
49682,note_on,1,0,0,,2,,,74,127
49796,note_off,114,0,0,,2,,,74,127
49796,note_off,0,0,0,,12,,,47,127
49796,note_off,0,0,0,,12,,,59,127
49797,note_on,1,0,0,,0,,,48,127
49797,note_on,0,0,0,,0,,,60,127
49797,note_on,0,0,0,,0,,,72,127
49911,note_off,114,0,0,,0,,,72,127
49912,note_on,1,0,0,,5,,,77,127
50026,note_off,114,0,0,,5,,,77,127
50026,note_off,0,0,0,,0,,,60,127
50026,note_off,0,0,0,,0,,,48,127
50027,note_on,1,0,0,,10,,,45,127
50027,note_on,0,0,0,,10,,,57,127
50027,note_on,0,0,0,,4,,,76,127
50141,note_off,114,0,0,,4,,,76,127
50142,note_on,1,0,0,,5,,,77,127
50256,note_off,114,0,0,,5,,,77,127
50256,note_off,0,0,0,,10,,,57,127
50256,note_off,0,0,0,,10,,,45,127
50257,note_on,1,0,0,,11,,,46,127
50257,note_on,0,0,0,,11,,,58,127
50257,note_on,0,0,0,,7,,,79,127
50371,note_off,114,0,0,,7,,,79,127
50372,note_on,1,0,0,,5,,,77,127
50486,note_off,114,0,0,,5,,,77,127
50486,note_off,0,0,0,,11,,,58,127
50486,note_off,0,0,0,,11,,,46,127
50487,note_on,1,0,0,,12,,,59,127
50487,note_on,0,0,0,,12,,,47,127
50487,note_on,0,0,0,,4,,,76,127
50601,note_off,114,0,0,,4,,,76,127
50602,note_on,1,0,0,,2,,,74,127
50716,note_off,114,0,0,,2,,,74,127
50716,note_off,0,0,0,,12,,,47,127
50716,note_off,0,0,0,,12,,,59,127
50717,note_on,1,0,0,,0,,,48,127
50717,note_on,0,0,0,,0,,,60,127
50717,note_on,0,0,0,,0,,,72,127
50831,note_off,114,0,0,,0,,,60,127
50831,note_off,0,0,0,,0,,,48,127
50832,note_on,1,0,0,,5,,,65,127
50946,note_off,114,0,0,,5,,,65,127
50946,note_off,0,0,0,,0,,,72,127
50947,note_on,1,0,0,,4,,,64,127
50947,note_on,0,0,0,,10,,,69,127
50947,note_on,0,0,0,,10,,,81,127
51061,note_off,114,0,0,,4,,,64,127
51062,note_on,1,0,0,,5,,,65,127
51176,note_off,114,0,0,,5,,,65,127
51176,note_off,0,0,0,,10,,,81,127
51176,note_off,0,0,0,,10,,,69,127
51177,note_on,1,0,0,,7,,,67,127
51177,note_on,0,0,0,,11,,,82,127
51177,note_on,0,0,0,,11,,,70,127
51291,note_off,114,0,0,,7,,,67,127
51292,note_on,1,0,0,,5,,,65,127
51406,note_off,114,0,0,,5,,,65,127
51406,note_off,0,0,0,,11,,,70,127
51406,note_off,0,0,0,,11,,,82,127
51407,note_on,1,0,0,,4,,,64,127
51407,note_on,0,0,0,,12,,,83,127
51407,note_on,0,0,0,,12,,,71,127
51521,note_off,114,0,0,,4,,,64,127
51522,note_on,1,0,0,,2,,,62,127
51636,note_off,114,0,0,,2,,,62,127
51636,note_off,0,0,0,,12,,,71,127
51636,note_off,0,0,0,,12,,,83,127
51637,note_on,1,0,0,,0,,,60,127
51637,note_on,0,0,0,,0,,,84,127
51637,note_on,0,0,0,,0,,,72,127
51751,note_off,114,0,0,,0,,,60,127
51752,note_on,1,0,0,,5,,,65,127
51866,note_off,114,0,0,,5,,,65,127
51866,note_off,0,0,0,,0,,,72,127
51866,note_off,0,0,0,,0,,,84,127
51867,note_on,1,0,0,,4,,,64,127
51867,note_on,0,0,0,,10,,,81,127
51867,note_on,0,0,0,,10,,,69,127
51981,note_off,114,0,0,,4,,,64,127
51982,note_on,1,0,0,,5,,,65,127
52096,note_off,114,0,0,,5,,,65,127
52096,note_off,0,0,0,,10,,,69,127
52096,note_off,0,0,0,,10,,,81,127
52097,note_on,1,0,0,,7,,,67,127
52097,note_on,0,0,0,,11,,,82,127
52097,note_on,0,0,0,,11,,,70,127
52211,note_off,114,0,0,,7,,,67,127
52212,note_on,1,0,0,,5,,,65,127
52326,note_off,114,0,0,,5,,,65,127
52326,note_off,0,0,0,,11,,,70,127
52326,note_off,0,0,0,,11,,,82,127
52327,note_on,1,0,0,,4,,,64,127
52327,note_on,0,0,0,,12,,,83,127
52327,note_on,0,0,0,,12,,,71,127
52441,note_off,114,0,0,,4,,,64,127
52442,note_on,1,0,0,,2,,,62,127
52556,note_off,114,0,0,,2,,,62,127
52556,note_off,0,0,0,,12,,,71,127
52556,note_off,0,0,0,,12,,,83,127
52557,note_on,1,0,0,,0,,,60,127
52557,note_on,0,0,0,,0,,,84,127
52557,note_on,0,0,0,,0,,,72,127
52671,note_off,114,0,0,,0,,,60,127
52672,note_on,1,0,0,,11,,,58,127
52786,note_off,114,0,0,,11,,,58,127
52786,note_off,0,0,0,,0,,,72,127
52786,note_off,0,0,0,,0,,,84,127
52787,note_on,1,0,0,,10,,,57,127
52787,note_on,0,0,0,,2,,,74,127
52787,note_on,0,0,0,,2,,,86,127
52901,note_off,114,0,0,,2,,,86,127
52901,note_off,0,0,0,,2,,,74,127
52901,note_off,0,0,0,,10,,,57,127
52902,note_on,1,0,0,,7,,,55,127
52902,note_on,0,0,0,,4,,,88,127
52902,note_on,0,0,0,,4,,,76,127
53016,note_off,114,0,0,,4,,,76,127
53016,note_off,0,0,0,,4,,,88,127
53016,note_off,0,0,0,,7,,,55,127
53017,note_on,1,0,0,,5,,,53,127
53017,note_on,0,0,0,,5,,,77,127
53017,note_on,0,0,0,,5,,,89,127
53131,note_off,114,0,0,,5,,,53,127
53132,note_on,1,0,0,,4,,,52,127
53246,note_off,114,0,0,,4,,,52,127
53247,note_on,1,0,0,,2,,,50,127
53361,note_off,114,0,0,,2,,,50,127
53362,note_on,1,0,0,,0,,,48,127
53472,note_off,110,0,0,,5,,,89,127
53476,note_off,4,0,0,,0,,,48,127
53477,note_on,1,0,0,,11,,,46,127
53592,note_on,115,0,0,,2,,,86,127
53706,note_off,114,0,0,,2,,,86,127
53707,note_on,1,0,0,,0,,,84,127
53821,note_off,114,0,0,,0,,,84,127
53822,note_on,1,0,0,,11,,,82,127
53936,note_off,114,0,0,,11,,,82,127
53936,note_off,0,0,0,,11,,,46,127
53936,note_off,0,0,0,,5,,,77,127
53937,note_on,1,0,0,,0,,,48,127
53937,note_on,0,0,0,,10,,,81,127
54051,note_off,114,0,0,,10,,,81,127
54052,note_on,1,0,0,,7,,,79,127
54166,note_off,114,0,0,,7,,,79,127
54166,note_off,0,0,0,,0,,,48,127
54167,note_on,1,0,0,,0,,,36,127
54167,note_on,0,0,0,,7,,,79,127
54167,note_on,0,0,0,,5,,,77,127
54281,note_off,114,0,0,,5,,,77,127
54281,note_off,0,0,0,,7,,,79,127
54282,note_on,1,0,0,,4,,,76,127
54396,note_off,114,0,0,,4,,,76,127
54396,note_off,0,0,0,,0,,,36,127
54397,note_on,1,0,0,,5,,,41,127
54397,note_on,0,0,0,,5,,,77,127
54511,note_off,114,0,0,,5,,,77,127
54512,note_on,1,0,0,,10,,,81,127
54626,note_off,114,0,0,,10,,,81,127
54626,note_off,0,0,0,,5,,,41,127
54627,note_on,1,0,0,,11,,,46,127
54627,note_on,0,0,0,,7,,,79,127
54741,note_off,114,0,0,,7,,,79,127
54742,note_on,1,0,0,,11,,,82,127
54856,note_off,114,0,0,,11,,,82,127
54856,note_off,0,0,0,,11,,,46,127
54857,note_on,1,0,0,,0,,,48,127
54857,note_on,0,0,0,,7,,,79,127
54857,note_on,0,0,0,,10,,,81,127
54971,note_off,114,0,0,,10,,,81,127
54971,note_off,0,0,0,,7,,,79,127
54972,note_on,1,0,0,,5,,,77,127
55086,note_off,114,0,0,,5,,,77,127
55086,note_off,0,0,0,,0,,,48,127
55087,note_on,1,0,0,,0,,,36,127
55087,note_on,0,0,0,,5,,,77,127
55201,note_off,114,0,0,,5,,,77,127
55202,note_on,1,0,0,,4,,,76,127
55316,note_off,114,0,0,,4,,,76,127
55316,note_off,0,0,0,,0,,,36,127
55317,note_on,1,0,0,,5,,,41,127
55317,note_on,0,0,0,,5,,,77,127
55431,note_off,114,0,0,,5,,,77,127
55432,note_on,1,0,0,,10,,,81,127
55546,note_off,114,0,0,,10,,,81,127
55546,note_off,0,0,0,,5,,,41,127
55547,note_on,1,0,0,,11,,,46,127
55547,note_on,0,0,0,,7,,,79,127
55661,note_off,114,0,0,,7,,,79,127
55662,note_on,1,0,0,,11,,,82,127
55776,note_off,114,0,0,,11,,,82,127
55776,note_off,0,0,0,,11,,,46,127
55777,note_on,1,0,0,,0,,,48,127
55777,note_on,0,0,0,,10,,,81,127
55777,note_on,0,0,0,,7,,,79,127
55891,note_off,114,0,0,,7,,,79,127
55891,note_off,0,0,0,,10,,,81,127
55892,note_on,1,0,0,,5,,,77,127
56006,note_off,114,0,0,,5,,,77,127
56006,note_off,0,0,0,,0,,,48,127
56007,note_on,1,0,0,,0,,,36,127
56007,note_on,0,0,0,,5,,,77,127
56121,note_off,114,0,0,,5,,,77,127
56122,note_on,1,0,0,,4,,,76,127
56236,note_off,114,0,0,,4,,,76,127
56236,note_off,0,0,0,,0,,,36,127
56237,note_on,1,0,0,,5,,,41,127
56237,note_on,0,0,0,,4,,,76,127
56928,note_off,691,0,0,,4,,,76,127
56928,note_on,0,0,0,,5,,,77,127
58541,note_off,1613,0,0,,5,,,77,127
58541,note_off,0,0,0,,5,,,41,127
59904,end_of_track,1363,1,0,,,,,,
