tick,type,time,meta,track,program,channel,pitch,tempo,note,velocity
0,copyright,0,1,0,,,,,,
0,program_change,0,0,0,6,0,,,,
0,pitchwheel,0,0,0,,0,0,,,
0,program_change,0,0,0,6,1,,,,
0,pitchwheel,0,0,0,,1,-590,,,
0,program_change,0,0,0,6,2,,,,
0,pitchwheel,0,0,0,,2,-272,,,
0,program_change,0,0,0,6,3,,,,
0,pitchwheel,0,0,0,,3,-353,,,
0,program_change,0,0,0,6,4,,,,
0,pitchwheel,0,0,0,,4,-560,,,
0,program_change,0,0,0,6,5,,,,
0,pitchwheel,0,0,0,,5,-80,,,
0,program_change,0,0,0,6,6,,,,
0,pitchwheel,0,0,0,,6,-625,,,
0,program_change,0,0,0,6,7,,,,
0,pitchwheel,0,0,0,,7,-130,,,
0,program_change,0,0,0,6,8,,,,
0,pitchwheel,0,0,0,,8,-512,,,
0,program_change,0,0,0,6,10,,,,
0,pitchwheel,0,0,0,,10,-464,,,
0,program_change,0,0,0,6,11,,,,
0,pitchwheel,0,0,0,,11,-208,,,
0,program_change,0,0,0,6,12,,,,
0,pitchwheel,0,0,0,,12,-553,,,
0,set_tempo,0,1,0,,,,500000,,
110,note_on,110,0,0,,5,,,77,127
219,note_off,109,0,0,,5,,,77,127
220,note_on,1,0,0,,10,,,81,127
329,note_off,109,0,0,,10,,,81,127
330,note_on,1,0,0,,7,,,79,127
439,note_off,109,0,0,,7,,,79,127
440,note_on,1,0,0,,5,,,77,127
549,note_off,109,0,0,,5,,,77,127
550,note_on,1,0,0,,4,,,76,127
659,note_off,109,0,0,,4,,,76,127
660,note_on,1,0,0,,2,,,74,127
769,note_off,109,0,0,,2,,,74,127
770,note_on,1,0,0,,0,,,72,127
879,note_off,109,0,0,,0,,,72,127
880,note_on,1,0,0,,11,,,70,127
989,note_off,109,0,0,,11,,,70,127
990,note_on,1,0,0,,10,,,69,127
1099,note_off,109,0,0,,10,,,69,127
1100,note_on,1,0,0,,7,,,67,127
1209,note_off,109,0,0,,7,,,67,127
1210,note_on,1,0,0,,5,,,65,127
1319,note_off,109,0,0,,5,,,65,127
1320,note_on,1,0,0,,4,,,64,127
1429,note_off,109,0,0,,4,,,64,127
1430,note_on,1,0,0,,2,,,62,127
1539,note_off,109,0,0,,2,,,62,127
1540,note_on,1,0,0,,0,,,60,127
1649,note_off,109,0,0,,0,,,60,127
1650,note_on,1,0,0,,11,,,58,127
1759,note_off,109,0,0,,11,,,58,127
1760,note_on,1,0,0,,10,,,57,127
1869,note_off,109,0,0,,10,,,57,127
1870,note_on,1,0,0,,7,,,55,127
1979,note_off,109,0,0,,7,,,55,127
1980,note_on,1,0,0,,5,,,53,127
2089,note_off,109,0,0,,5,,,53,127
2090,note_on,1,0,0,,4,,,52,127
2199,note_off,109,0,0,,4,,,52,127
2200,note_on,1,0,0,,2,,,50,127
2309,note_off,109,0,0,,2,,,50,127
2310,note_on,1,0,0,,0,,,48,127
2419,note_off,109,0,0,,0,,,48,127
2420,note_on,1,0,0,,11,,,46,127
2529,note_off,109,0,0,,11,,,46,127
2530,note_on,1,0,0,,10,,,45,127
2639,note_off,109,0,0,,10,,,45,127
2640,note_on,1,0,0,,7,,,43,127
2749,note_off,109,0,0,,7,,,43,127
2750,note_on,1,0,0,,5,,,41,127
2859,note_off,109,0,0,,5,,,41,127
2860,note_on,1,0,0,,7,,,43,127
2969,note_off,109,0,0,,7,,,43,127
2970,note_on,1,0,0,,10,,,45,127
3079,note_off,109,0,0,,10,,,45,127
3080,note_on,1,0,0,,11,,,46,127
3189,note_off,109,0,0,,11,,,46,127
3190,note_on,1,0,0,,0,,,48,127
3299,note_off,109,0,0,,0,,,48,127
3300,note_on,1,0,0,,2,,,50,127
3409,note_off,109,0,0,,2,,,50,127
3410,note_on,1,0,0,,4,,,52,127
3519,note_off,109,0,0,,4,,,52,127
3520,note_on,1,0,0,,5,,,53,127
3629,note_off,109,0,0,,5,,,53,127
3630,note_on,1,0,0,,7,,,55,127
3739,note_off,109,0,0,,7,,,55,127
3740,note_on,1,0,0,,10,,,57,127
3849,note_off,109,0,0,,10,,,57,127
3850,note_on,1,0,0,,11,,,58,127
3959,note_off,109,0,0,,11,,,58,127
3960,note_on,1,0,0,,0,,,60,127
4069,note_off,109,0,0,,0,,,60,127
4070,note_on,1,0,0,,2,,,62,127
4179,note_off,109,0,0,,2,,,62,127
4180,note_on,1,0,0,,4,,,64,127
4289,note_off,109,0,0,,4,,,64,127
4290,note_on,1,0,0,,5,,,65,127
4399,note_off,109,0,0,,5,,,65,127
4400,note_on,1,0,0,,7,,,67,127
4509,note_off,109,0,0,,7,,,67,127
4510,note_on,1,0,0,,10,,,69,127
4619,note_off,109,0,0,,10,,,69,127
4620,note_on,1,0,0,,11,,,70,127
4729,note_off,109,0,0,,11,,,70,127
4730,note_on,1,0,0,,0,,,72,127
4949,note_on,219,0,0,,0,,,84,127
5107,note_off,158,0,0,,0,,,72,127
5168,note_off,61,0,0,,0,,,84,127
5169,note_on,1,0,0,,10,,,69,127
5169,note_on,0,0,0,,5,,,77,127
5387,note_off,218,0,0,,5,,,77,127
5387,note_off,0,0,0,,10,,,69,127
5388,note_on,1,0,0,,11,,,70,127
5388,note_on,0,0,0,,5,,,77,127
5606,note_off,218,0,0,,5,,,77,127
5606,note_off,0,0,0,,11,,,70,127
5607,note_on,1,0,0,,0,,,72,127
5607,note_on,0,0,0,,10,,,81,127
5661,note_off,54,0,0,,10,,,81,127
5662,note_on,1,0,0,,7,,,79,127
5716,note_off,54,0,0,,7,,,79,127
5717,note_on,1,0,0,,10,,,81,127
5771,note_off,54,0,0,,10,,,81,127
5772,note_on,1,0,0,,7,,,79,127
5826,note_off,54,0,0,,7,,,79,127
5827,note_on,1,0,0,,0,,,60,127
5827,note_on,0,0,0,,10,,,81,127
5881,note_off,54,0,0,,10,,,81,127
5882,note_on,1,0,0,,7,,,79,127
5936,note_off,54,0,0,,7,,,79,127
5937,note_on,1,0,0,,5,,,77,127
5991,note_off,54,0,0,,5,,,77,127
5992,note_on,1,0,0,,7,,,79,127
6046,note_off,54,0,0,,7,,,79,127
6046,note_off,0,0,0,,0,,,60,127
6046,note_off,0,0,0,,0,,,72,127
6047,note_on,1,0,0,,5,,,65,127
6047,note_on,0,0,0,,10,,,81,127
6265,note_off,218,0,0,,10,,,81,127
6265,note_off,0,0,0,,5,,,65,127
6266,note_on,1,0,0,,7,,,67,127
6266,note_on,0,0,0,,0,,,84,127
6484,note_off,218,0,0,,0,,,84,127
6484,note_off,0,0,0,,7,,,67,127
6485,note_on,1,0,0,,10,,,69,127
6485,note_on,0,0,0,,5,,,77,127
6703,note_off,218,0,0,,5,,,77,127
6703,note_off,0,0,0,,10,,,69,127
6704,note_on,1,0,0,,11,,,70,127
6704,note_on,0,0,0,,5,,,77,127
6922,note_off,218,0,0,,5,,,77,127
6922,note_off,0,0,0,,11,,,70,127
6923,note_on,1,0,0,,0,,,72,127
6923,note_on,0,0,0,,10,,,81,127
6977,note_off,54,0,0,,10,,,81,127
6978,note_on,1,0,0,,7,,,79,127
7032,note_off,54,0,0,,7,,,79,127
7033,note_on,1,0,0,,10,,,81,127
7087,note_off,54,0,0,,10,,,81,127
7088,note_on,1,0,0,,7,,,79,127
7142,note_off,54,0,0,,7,,,79,127
7143,note_on,1,0,0,,0,,,60,127
7143,note_on,0,0,0,,10,,,81,127
7197,note_off,54,0,0,,10,,,81,127
7198,note_on,1,0,0,,7,,,79,127
7252,note_off,54,0,0,,7,,,79,127
7253,note_on,1,0,0,,5,,,77,127
7307,note_off,54,0,0,,5,,,77,127
7308,note_on,1,0,0,,7,,,79,127
7362,note_off,54,0,0,,7,,,79,127
7362,note_off,0,0,0,,0,,,60,127
7362,note_off,0,0,0,,0,,,72,127
7363,note_on,1,0,0,,5,,,65,127
7363,note_on,0,0,0,,10,,,81,127
7582,note_on,219,0,0,,10,,,69,127
7800,note_off,218,0,0,,10,,,69,127
7801,note_on,1,0,0,,3,,,75,127
7911,note_off,110,0,0,,10,,,81,127
8020,note_off,109,0,0,,5,,,65,127
8021,note_on,1,0,0,,6,,,66,127
8021,note_on,0,0,0,,10,,,81,127
8093,note_off,72,0,0,,10,,,81,127
8094,note_on,1,0,0,,11,,,82,127
8166,note_off,72,0,0,,11,,,82,127
8167,note_on,1,0,0,,0,,,84,127
8239,note_off,72,0,0,,0,,,84,127
8239,note_off,0,0,0,,3,,,75,127
8240,note_on,1,0,0,,2,,,74,127
8240,note_on,0,0,0,,11,,,82,127
8312,note_off,72,0,0,,11,,,82,127
8313,note_on,1,0,0,,0,,,84,127
8385,note_off,72,0,0,,0,,,84,127
8386,note_on,1,0,0,,11,,,82,127
8458,note_off,72,0,0,,2,,,74,127
8459,note_on,1,0,0,,0,,,72,127
8604,note_off,145,0,0,,11,,,82,127
8605,note_on,1,0,0,,10,,,81,127
8677,note_off,72,0,0,,10,,,81,127
8677,note_off,0,0,0,,0,,,72,127
8677,note_off,0,0,0,,6,,,66,127
8678,note_on,1,0,0,,7,,,67,127
8678,note_on,0,0,0,,10,,,81,127
8896,note_off,218,0,0,,10,,,81,127
8897,note_on,1,0,0,,11,,,70,127
8897,note_on,0,0,0,,11,,,82,127
9115,note_off,218,0,0,,11,,,70,127
9116,note_on,1,0,0,,2,,,74,127
9226,note_off,110,0,0,,11,,,82,127
9335,note_off,109,0,0,,7,,,67,127
9336,note_on,1,0,0,,4,,,64,127
9336,note_on,0,0,0,,7,,,79,127
9408,note_off,72,0,0,,7,,,79,127
9409,note_on,1,0,0,,10,,,81,127
9481,note_off,72,0,0,,10,,,81,127
9482,note_on,1,0,0,,11,,,82,127
9554,note_off,72,0,0,,11,,,82,127
9554,note_off,0,0,0,,2,,,74,127
9555,note_on,1,0,0,,0,,,72,127
9555,note_on,0,0,0,,10,,,81,127
9627,note_off,72,0,0,,10,,,81,127
9628,note_on,1,0,0,,11,,,82,127
9700,note_off,72,0,0,,11,,,82,127
9701,note_on,1,0,0,,10,,,81,127
9773,note_off,72,0,0,,0,,,72,127
9774,note_on,1,0,0,,11,,,70,127
9919,note_off,145,0,0,,10,,,81,127
9920,note_on,1,0,0,,7,,,79,127
9992,note_off,72,0,0,,7,,,79,127
9992,note_off,0,0,0,,11,,,70,127
9992,note_off,0,0,0,,4,,,64,127
9993,note_on,1,0,0,,5,,,65,127
9993,note_on,0,0,0,,7,,,79,127
10211,note_off,218,0,0,,7,,,79,127
10212,note_on,1,0,0,,10,,,69,127
10212,note_on,0,0,0,,10,,,81,127
10430,note_off,218,0,0,,10,,,69,127
10431,note_on,1,0,0,,0,,,72,127
10541,note_off,110,0,0,,10,,,81,127
10650,note_off,109,0,0,,5,,,65,127
10651,note_on,1,0,0,,2,,,62,127
10651,note_on,0,0,0,,5,,,77,127
10723,note_off,72,0,0,,5,,,77,127
10724,note_on,1,0,0,,7,,,79,127
10796,note_off,72,0,0,,7,,,79,127
10797,note_on,1,0,0,,10,,,81,127
10869,note_off,72,0,0,,10,,,81,127
10869,note_off,0,0,0,,0,,,72,127
10870,note_on,1,0,0,,11,,,70,127
10870,note_on,0,0,0,,7,,,79,127
10942,note_off,72,0,0,,7,,,79,127
10943,note_on,1,0,0,,10,,,81,127
11015,note_off,72,0,0,,10,,,81,127
11016,note_on,1,0,0,,7,,,79,127
11088,note_off,72,0,0,,11,,,70,127
11089,note_on,1,0,0,,10,,,69,127
11234,note_off,145,0,0,,7,,,79,127
11235,note_on,1,0,0,,5,,,77,127
11307,note_off,72,0,0,,5,,,77,127
11307,note_off,0,0,0,,10,,,69,127
11307,note_off,0,0,0,,2,,,62,127
11308,note_on,1,0,0,,4,,,64,127
11308,note_on,0,0,0,,5,,,77,127
11526,note_off,218,0,0,,5,,,77,127
11527,note_on,1,0,0,,7,,,67,127
11527,note_on,0,0,0,,7,,,79,127
11745,note_off,218,0,0,,7,,,67,127
11746,note_on,1,0,0,,11,,,70,127
11856,note_off,110,0,0,,7,,,79,127
11965,note_off,109,0,0,,4,,,64,127
11966,note_on,1,0,0,,1,,,61,127
11966,note_on,0,0,0,,4,,,76,127
12038,note_off,72,0,0,,4,,,76,127
12039,note_on,1,0,0,,5,,,77,127
12111,note_off,72,0,0,,5,,,77,127
12112,note_on,1,0,0,,7,,,79,127
12184,note_off,72,0,0,,7,,,79,127
12184,note_off,0,0,0,,11,,,70,127
12185,note_on,1,0,0,,10,,,69,127
12185,note_on,0,0,0,,5,,,77,127
12257,note_off,72,0,0,,5,,,77,127
12258,note_on,1,0,0,,7,,,79,127
12330,note_off,72,0,0,,7,,,79,127
12331,note_on,1,0,0,,5,,,77,127
12403,note_off,72,0,0,,10,,,69,127
12404,note_on,1,0,0,,7,,,67,127
12549,note_off,145,0,0,,5,,,77,127
12550,note_on,1,0,0,,4,,,76,127
12622,note_off,72,0,0,,4,,,76,127
12622,note_off,0,0,0,,7,,,67,127
12622,note_off,0,0,0,,1,,,61,127
12623,note_on,1,0,0,,2,,,62,127
12623,note_on,0,0,0,,4,,,76,127
12841,note_off,218,0,0,,4,,,76,127
12842,note_on,1,0,0,,5,,,65,127
12842,note_on,0,0,0,,5,,,77,127
13060,note_off,218,0,0,,5,,,65,127
13061,note_on,1,0,0,,10,,,69,127
13171,note_off,110,0,0,,5,,,77,127
13280,note_off,109,0,0,,2,,,62,127
13281,note_on,1,0,0,,12,,,59,127
13281,note_on,0,0,0,,2,,,74,127
13353,note_off,72,0,0,,2,,,74,127
13354,note_on,1,0,0,,4,,,76,127
13426,note_off,72,0,0,,4,,,76,127
13427,note_on,1,0,0,,5,,,77,127
13499,note_off,72,0,0,,5,,,77,127
13499,note_off,0,0,0,,10,,,69,127
13500,note_on,1,0,0,,7,,,67,127
13500,note_on,0,0,0,,5,,,77,127
13554,note_off,54,0,0,,5,,,77,127
13555,note_on,1,0,0,,4,,,76,127
13609,note_off,54,0,0,,4,,,76,127
13610,note_on,1,0,0,,5,,,77,127
13664,note_off,54,0,0,,5,,,77,127
13665,note_on,1,0,0,,4,,,76,127
13719,note_off,54,0,0,,4,,,76,127
13719,note_off,0,0,0,,7,,,67,127
13720,note_on,1,0,0,,5,,,65,127
13720,note_on,0,0,0,,5,,,77,127
13774,note_off,54,0,0,,5,,,77,127
13775,note_on,1,0,0,,4,,,76,127
13829,note_off,54,0,0,,4,,,76,127
13830,note_on,1,0,0,,2,,,74,127
13939,note_off,109,0,0,,2,,,74,127
13939,note_off,0,0,0,,5,,,65,127
13939,note_off,0,0,0,,12,,,59,127
13940,note_on,1,0,0,,0,,,60,127
13940,note_on,0,0,0,,4,,,76,127
14049,note_off,109,0,0,,0,,,60,127
14050,note_on,1,0,0,,12,,,59,127
14159,note_off,109,0,0,,12,,,59,127
14159,note_off,0,0,0,,4,,,76,127
14160,note_on,1,0,0,,2,,,62,127
14160,note_on,0,0,0,,0,,,84,127
14269,note_off,109,0,0,,2,,,62,127
14270,note_on,1,0,0,,0,,,60,127
14379,note_off,109,0,0,,0,,,60,127
14379,note_off,0,0,0,,0,,,84,127
14380,note_on,1,0,0,,4,,,64,127
14380,note_on,0,0,0,,0,,,72,127
14489,note_off,109,0,0,,4,,,64,127
14490,note_on,1,0,0,,2,,,62,127
14599,note_off,109,0,0,,2,,,62,127
14599,note_off,0,0,0,,0,,,72,127
14600,note_on,1,0,0,,5,,,65,127
14600,note_on,0,0,0,,0,,,72,127
14709,note_off,109,0,0,,5,,,65,127
14710,note_on,1,0,0,,4,,,64,127
14819,note_off,109,0,0,,4,,,64,127
14819,note_off,0,0,0,,0,,,72,127
14820,note_on,1,0,0,,7,,,67,127
14820,note_on,0,0,0,,4,,,76,127
14874,note_off,54,0,0,,4,,,76,127
14875,note_on,1,0,0,,2,,,74,127
14929,note_off,54,0,0,,2,,,74,127
14929,note_off,0,0,0,,7,,,67,127
14930,note_on,1,0,0,,5,,,65,127
14930,note_on,0,0,0,,4,,,76,127
14984,note_off,54,0,0,,4,,,76,127
14985,note_on,1,0,0,,2,,,74,127
15039,note_off,54,0,0,,2,,,74,127
15039,note_off,0,0,0,,5,,,65,127
15040,note_on,1,0,0,,4,,,64,127
15040,note_on,0,0,0,,4,,,76,127
15094,note_off,54,0,0,,4,,,76,127
15095,note_on,1,0,0,,2,,,74,127
15149,note_off,54,0,0,,2,,,74,127
15149,note_off,0,0,0,,4,,,64,127
15150,note_on,1,0,0,,2,,,62,127
15150,note_on,0,0,0,,0,,,72,127
15204,note_off,54,0,0,,0,,,72,127
15205,note_on,1,0,0,,2,,,74,127
15259,note_off,54,0,0,,2,,,74,127
15259,note_off,0,0,0,,2,,,62,127
15260,note_on,1,0,0,,0,,,60,127
15260,note_on,0,0,0,,4,,,76,127
15369,note_off,109,0,0,,0,,,60,127
15370,note_on,1,0,0,,12,,,59,127
15479,note_off,109,0,0,,12,,,59,127
15479,note_off,0,0,0,,4,,,76,127
15480,note_on,1,0,0,,2,,,62,127
15480,note_on,0,0,0,,0,,,84,127
15589,note_off,109,0,0,,2,,,62,127
15590,note_on,1,0,0,,0,,,60,127
15699,note_off,109,0,0,,0,,,60,127
15699,note_off,0,0,0,,0,,,84,127
15700,note_on,1,0,0,,4,,,64,127
15700,note_on,0,0,0,,0,,,72,127
15809,note_off,109,0,0,,4,,,64,127
15810,note_on,1,0,0,,2,,,62,127
15919,note_off,109,0,0,,2,,,62,127
15919,note_off,0,0,0,,0,,,72,127
15920,note_on,1,0,0,,5,,,65,127
15920,note_on,0,0,0,,0,,,72,127
16029,note_off,109,0,0,,5,,,65,127
16030,note_on,1,0,0,,4,,,64,127
16139,note_off,109,0,0,,4,,,64,127
16139,note_off,0,0,0,,0,,,72,127
16140,note_on,1,0,0,,7,,,67,127
16140,note_on,0,0,0,,4,,,76,127
16194,note_off,54,0,0,,4,,,76,127
16195,note_on,1,0,0,,2,,,74,127
16249,note_off,54,0,0,,2,,,74,127
16249,note_off,0,0,0,,7,,,67,127
16250,note_on,1,0,0,,5,,,65,127
16250,note_on,0,0,0,,4,,,76,127
16304,note_off,54,0,0,,4,,,76,127
16305,note_on,1,0,0,,2,,,74,127
16359,note_off,54,0,0,,2,,,74,127
16359,note_off,0,0,0,,5,,,65,127
16360,note_on,1,0,0,,4,,,64,127
16360,note_on,0,0,0,,4,,,76,127
16414,note_off,54,0,0,,4,,,76,127
16415,note_on,1,0,0,,2,,,74,127
16469,note_off,54,0,0,,2,,,74,127
16469,note_off,0,0,0,,4,,,64,127
16470,note_on,1,0,0,,2,,,62,127
16470,note_on,0,0,0,,0,,,72,127
16524,note_off,54,0,0,,0,,,72,127
16525,note_on,1,0,0,,2,,,74,127
16579,note_off,54,0,0,,2,,,74,127
16579,note_off,0,0,0,,2,,,62,127
16580,note_on,1,0,0,,0,,,60,127
16580,note_on,0,0,0,,4,,,76,127
16689,note_off,109,0,0,,4,,,76,127
16690,note_on,1,0,0,,0,,,72,127
16799,note_off,109,0,0,,0,,,72,127
16799,note_off,0,0,0,,0,,,60,127
16800,note_on,1,0,0,,2,,,62,127
16800,note_on,0,0,0,,4,,,76,127
16909,note_off,109,0,0,,4,,,76,127
16910,note_on,1,0,0,,7,,,79,127
17019,note_off,109,0,0,,7,,,79,127
17019,note_off,0,0,0,,2,,,62,127
17020,note_on,1,0,0,,4,,,64,127
17020,note_on,0,0,0,,0,,,84,127
17129,note_off,109,0,0,,0,,,84,127
17130,note_on,1,0,0,,7,,,79,127
17239,note_off,109,0,0,,7,,,79,127
17239,note_off,0,0,0,,4,,,64,127
17240,note_on,1,0,0,,5,,,65,127
17240,note_on,0,0,0,,10,,,81,127
17349,note_off,109,0,0,,10,,,81,127
17350,note_on,1,0,0,,5,,,77,127
17459,note_off,109,0,0,,5,,,77,127
17459,note_off,0,0,0,,5,,,65,127
17460,note_on,1,0,0,,7,,,67,127
17460,note_on,0,0,0,,4,,,76,127
17569,note_off,109,0,0,,4,,,76,127
17570,note_on,1,0,0,,2,,,74,127
17679,note_off,109,0,0,,2,,,74,127
17680,note_on,1,0,0,,7,,,55,127
17680,note_on,0,0,0,,0,,,72,127
17789,note_off,109,0,0,,0,,,72,127
17790,note_on,1,0,0,,12,,,71,127
17899,note_off,109,0,0,,12,,,71,127
17899,note_off,0,0,0,,7,,,55,127
17899,note_off,0,0,0,,7,,,67,127
17900,note_on,1,0,0,,0,,,48,127
17900,note_on,0,0,0,,0,,,72,127
18009,note_off,109,0,0,,0,,,48,127
18010,note_on,1,0,0,,12,,,47,127
18119,note_off,109,0,0,,12,,,47,127
18119,note_off,0,0,0,,0,,,72,127
18120,note_on,1,0,0,,2,,,50,127
18120,note_on,0,0,0,,0,,,72,127
18229,note_off,109,0,0,,2,,,50,127
18230,note_on,1,0,0,,0,,,48,127
18339,note_off,109,0,0,,0,,,48,127
18339,note_off,0,0,0,,0,,,72,127
18340,note_on,1,0,0,,4,,,52,127
18340,note_on,0,0,0,,0,,,60,127
18449,note_off,109,0,0,,4,,,52,127
18450,note_on,1,0,0,,2,,,50,127
18559,note_off,109,0,0,,2,,,50,127
18559,note_off,0,0,0,,0,,,60,127
18560,note_on,1,0,0,,5,,,53,127
18560,note_on,0,0,0,,0,,,60,127
18669,note_off,109,0,0,,5,,,53,127
18670,note_on,1,0,0,,4,,,52,127
18779,note_off,109,0,0,,4,,,52,127
18779,note_off,0,0,0,,0,,,60,127
18780,note_on,1,0,0,,7,,,55,127
18780,note_on,0,0,0,,4,,,64,127
18834,note_off,54,0,0,,4,,,64,127
18835,note_on,1,0,0,,2,,,62,127
18889,note_off,54,0,0,,2,,,62,127
18889,note_off,0,0,0,,7,,,55,127
18890,note_on,1,0,0,,5,,,53,127
18890,note_on,0,0,0,,4,,,64,127
18944,note_off,54,0,0,,4,,,64,127
18945,note_on,1,0,0,,2,,,62,127
18999,note_off,54,0,0,,2,,,62,127
18999,note_off,0,0,0,,5,,,53,127
19000,note_on,1,0,0,,4,,,52,127
19000,note_on,0,0,0,,4,,,64,127
19054,note_off,54,0,0,,4,,,64,127
19055,note_on,1,0,0,,2,,,62,127
19109,note_off,54,0,0,,2,,,62,127
19109,note_off,0,0,0,,4,,,52,127
19110,note_on,1,0,0,,2,,,50,127
19110,note_on,0,0,0,,0,,,60,127
19164,note_off,54,0,0,,0,,,60,127
19165,note_on,1,0,0,,2,,,62,127
19219,note_off,54,0,0,,2,,,62,127
19219,note_off,0,0,0,,2,,,50,127
19220,note_on,1,0,0,,0,,,48,127
19220,note_on,0,0,0,,4,,,64,127
19329,note_off,109,0,0,,0,,,48,127
19330,note_on,1,0,0,,12,,,47,127
19439,note_off,109,0,0,,12,,,47,127
19439,note_off,0,0,0,,4,,,64,127
19440,note_on,1,0,0,,2,,,50,127
19440,note_on,0,0,0,,0,,,72,127
19549,note_off,109,0,0,,2,,,50,127
19550,note_on,1,0,0,,0,,,48,127
19659,note_off,109,0,0,,0,,,48,127
19659,note_off,0,0,0,,0,,,72,127
19660,note_on,1,0,0,,4,,,52,127
19660,note_on,0,0,0,,0,,,60,127
19769,note_off,109,0,0,,4,,,52,127
19770,note_on,1,0,0,,2,,,50,127
19879,note_off,109,0,0,,2,,,50,127
19879,note_off,0,0,0,,0,,,60,127
19880,note_on,1,0,0,,5,,,53,127
19880,note_on,0,0,0,,0,,,60,127
19989,note_off,109,0,0,,5,,,53,127
19990,note_on,1,0,0,,4,,,52,127
20099,note_off,109,0,0,,4,,,52,127
20099,note_off,0,0,0,,0,,,60,127
20100,note_on,1,0,0,,7,,,55,127
20100,note_on,0,0,0,,4,,,64,127
20154,note_off,54,0,0,,4,,,64,127
20155,note_on,1,0,0,,2,,,62,127
20209,note_off,54,0,0,,2,,,62,127
20209,note_off,0,0,0,,7,,,55,127
20210,note_on,1,0,0,,5,,,53,127
20210,note_on,0,0,0,,4,,,64,127
20264,note_off,54,0,0,,4,,,64,127
20265,note_on,1,0,0,,2,,,62,127
20319,note_off,54,0,0,,2,,,62,127
20319,note_off,0,0,0,,5,,,53,127
20320,note_on,1,0,0,,4,,,52,127
20320,note_on,0,0,0,,4,,,64,127
20374,note_off,54,0,0,,4,,,64,127
20375,note_on,1,0,0,,2,,,62,127
20429,note_off,54,0,0,,2,,,62,127
20429,note_off,0,0,0,,4,,,52,127
20430,note_on,1,0,0,,2,,,50,127
20430,note_on,0,0,0,,0,,,60,127
20484,note_off,54,0,0,,0,,,60,127
20485,note_on,1,0,0,,2,,,62,127
20539,note_off,54,0,0,,2,,,62,127
20539,note_off,0,0,0,,2,,,50,127
20540,note_on,1,0,0,,0,,,48,127
20540,note_on,0,0,0,,4,,,64,127
20649,note_off,109,0,0,,4,,,64,127
20650,note_on,1,0,0,,0,,,60,127
20759,note_off,109,0,0,,0,,,60,127
20759,note_off,0,0,0,,0,,,48,127
20760,note_on,1,0,0,,2,,,50,127
20760,note_on,0,0,0,,4,,,64,127
20869,note_off,109,0,0,,4,,,64,127
20870,note_on,1,0,0,,7,,,67,127
20979,note_off,109,0,0,,7,,,67,127
20979,note_off,0,0,0,,2,,,50,127
20980,note_on,1,0,0,,4,,,52,127
20980,note_on,0,0,0,,0,,,72,127
21089,note_off,109,0,0,,0,,,72,127
21090,note_on,1,0,0,,7,,,67,127
21199,note_off,109,0,0,,7,,,67,127
21199,note_off,0,0,0,,4,,,52,127
21200,note_on,1,0,0,,5,,,53,127
21200,note_on,0,0,0,,10,,,69,127
21309,note_off,109,0,0,,10,,,69,127
21310,note_on,1,0,0,,5,,,77,127
21419,note_off,109,0,0,,5,,,77,127
21419,note_off,0,0,0,,5,,,53,127
21420,note_on,1,0,0,,7,,,55,127
21420,note_on,0,0,0,,4,,,76,127
21529,note_off,109,0,0,,4,,,76,127
21530,note_on,1,0,0,,2,,,74,127
21639,note_off,109,0,0,,2,,,74,127
21640,note_on,1,0,0,,7,,,43,127
21640,note_on,0,0,0,,0,,,72,127
21749,note_off,109,0,0,,0,,,72,127
21750,note_on,1,0,0,,12,,,71,127
21859,note_off,109,0,0,,12,,,71,127
21859,note_off,0,0,0,,7,,,43,127
21859,note_off,0,0,0,,7,,,55,127
21860,note_on,1,0,0,,0,,,48,127
21860,note_on,0,0,0,,0,,,72,127
22078,note_off,218,0,0,,0,,,72,127
22078,note_off,0,0,0,,0,,,48,127
22079,note_on,1,0,0,,2,,,50,127
22079,note_on,0,0,0,,0,,,60,127
22133,note_off,54,0,0,,0,,,60,127
22134,note_on,1,0,0,,2,,,62,127
22188,note_off,54,0,0,,2,,,62,127
22189,note_on,1,0,0,,4,,,64,127
22243,note_off,54,0,0,,4,,,64,127
22244,note_on,1,0,0,,5,,,65,127
22298,note_off,54,0,0,,5,,,65,127
22298,note_off,0,0,0,,2,,,50,127
22299,note_on,1,0,0,,4,,,52,127
22299,note_on,0,0,0,,7,,,67,127
22353,note_off,54,0,0,,7,,,67,127
22354,note_on,1,0,0,,10,,,69,127
22408,note_off,54,0,0,,10,,,69,127
22409,note_on,1,0,0,,11,,,70,127
22518,note_off,109,0,0,,11,,,70,127
22518,note_off,0,0,0,,4,,,52,127
22519,note_on,1,0,0,,5,,,53,127
22519,note_on,0,0,0,,10,,,69,127
22737,note_off,218,0,0,,10,,,69,127
22737,note_off,0,0,0,,5,,,53,127
22738,note_on,1,0,0,,7,,,55,127
22738,note_on,0,0,0,,7,,,67,127
22792,note_off,54,0,0,,7,,,67,127
22793,note_on,1,0,0,,10,,,69,127
22847,note_off,54,0,0,,10,,,69,127
22848,note_on,1,0,0,,12,,,71,127
22902,note_off,54,0,0,,12,,,71,127
22903,note_on,1,0,0,,0,,,72,127
22957,note_off,54,0,0,,0,,,72,127
22958,note_on,1,0,0,,7,,,43,127
22958,note_on,0,0,0,,2,,,74,127
23012,note_off,54,0,0,,2,,,74,127
23013,note_on,1,0,0,,4,,,76,127
23067,note_off,54,0,0,,4,,,76,127
23068,note_on,1,0,0,,5,,,77,127
23177,note_off,109,0,0,,5,,,77,127
23177,note_off,0,0,0,,7,,,43,127
23177,note_off,0,0,0,,7,,,55,127
23178,note_on,1,0,0,,0,,,48,127
23178,note_on,0,0,0,,4,,,76,127
23396,note_off,218,0,0,,4,,,76,127
23396,note_off,0,0,0,,0,,,48,127
23397,note_on,1,0,0,,2,,,50,127
23397,note_on,0,0,0,,0,,,72,127
23451,note_off,54,0,0,,0,,,72,127
23452,note_on,1,0,0,,2,,,74,127
23506,note_off,54,0,0,,2,,,74,127
23507,note_on,1,0,0,,4,,,76,127
23561,note_off,54,0,0,,4,,,76,127
23562,note_on,1,0,0,,5,,,77,127
23616,note_off,54,0,0,,5,,,77,127
23616,note_off,0,0,0,,2,,,50,127
23617,note_on,1,0,0,,4,,,52,127
23617,note_on,0,0,0,,7,,,79,127
23671,note_off,54,0,0,,7,,,79,127
23672,note_on,1,0,0,,10,,,81,127
23726,note_off,54,0,0,,10,,,81,127
23727,note_on,1,0,0,,11,,,82,127
23836,note_off,109,0,0,,11,,,82,127
23836,note_off,0,0,0,,4,,,52,127
23837,note_on,1,0,0,,5,,,53,127
23837,note_on,0,0,0,,11,,,82,127
23946,note_off,109,0,0,,11,,,82,127
23947,note_on,1,0,0,,10,,,81,127
24056,note_off,109,0,0,,10,,,81,127
24056,note_off,0,0,0,,5,,,53,127
24057,note_on,1,0,0,,7,,,55,127
24057,note_on,0,0,0,,7,,,79,127
24166,note_off,109,0,0,,7,,,79,127
24167,note_on,1,0,0,,5,,,77,127
24276,note_off,109,0,0,,5,,,77,127
24277,note_on,1,0,0,,7,,,43,127
24277,note_on,0,0,0,,4,,,76,127
24386,note_off,109,0,0,,4,,,76,127
24387,note_on,1,0,0,,2,,,74,127
24496,note_off,109,0,0,,2,,,74,127
24496,note_off,0,0,0,,7,,,43,127
24496,note_off,0,0,0,,7,,,55,127
24497,note_on,1,0,0,,0,,,48,127
24497,note_on,0,0,0,,0,,,72,127
24715,note_off,218,0,0,,0,,,72,127
24715,note_off,0,0,0,,0,,,48,127
24716,note_on,1,0,0,,2,,,50,127
24716,note_on,0,0,0,,0,,,72,127
24716,note_on,0,0,0,,0,,,60,127
24934,note_off,218,0,0,,0,,,72,127
24934,note_off,0,0,0,,2,,,50,127
24935,note_on,1,0,0,,4,,,52,127
24935,note_on,0,0,0,,11,,,70,127
25153,note_off,218,0,0,,11,,,70,127
25153,note_off,0,0,0,,4,,,52,127
25153,note_off,0,0,0,,0,,,60,127
25154,note_on,1,0,0,,5,,,53,127
25154,note_on,0,0,0,,10,,,69,127
25372,note_off,218,0,0,,10,,,69,127
25372,note_off,0,0,0,,5,,,53,127
25373,note_on,1,0,0,,7,,,55,127
25373,note_on,0,0,0,,7,,,67,127
25373,note_on,0,0,0,,7,,,79,127
25591,note_off,218,0,0,,7,,,79,127
25592,note_on,1,0,0,,7,,,43,127
25592,note_on,0,0,0,,5,,,77,127
25810,note_off,218,0,0,,5,,,77,127
25810,note_off,0,0,0,,7,,,43,127
25810,note_off,0,0,0,,7,,,67,127
25810,note_off,0,0,0,,7,,,55,127
25811,note_on,1,0,0,,0,,,48,127
25811,note_on,0,0,0,,4,,,76,127
26029,note_off,218,0,0,,4,,,76,127
26029,note_off,0,0,0,,0,,,48,127
26030,note_on,1,0,0,,2,,,50,127
26030,note_on,0,0,0,,0,,,72,127
26030,note_on,0,0,0,,0,,,84,127
26248,note_off,218,0,0,,0,,,84,127
26248,note_off,0,0,0,,2,,,50,127
26249,note_on,1,0,0,,4,,,52,127
26249,note_on,0,0,0,,11,,,82,127
26467,note_off,218,0,0,,11,,,82,127
26467,note_off,0,0,0,,4,,,52,127
26467,note_off,0,0,0,,0,,,72,127
26468,note_on,1,0,0,,5,,,53,127
26468,note_on,0,0,0,,11,,,82,127
26577,note_off,109,0,0,,11,,,82,127
26578,note_on,1,0,0,,10,,,81,127
26687,note_off,109,0,0,,10,,,81,127
26687,note_off,0,0,0,,5,,,53,127
26688,note_on,1,0,0,,7,,,55,127
26688,note_on,0,0,0,,7,,,79,127
26797,note_off,109,0,0,,7,,,79,127
26798,note_on,1,0,0,,5,,,77,127
26907,note_off,109,0,0,,5,,,77,127
26908,note_on,1,0,0,,7,,,43,127
26908,note_on,0,0,0,,4,,,76,127
27017,note_off,109,0,0,,4,,,76,127
27018,note_on,1,0,0,,2,,,74,127
27127,note_off,109,0,0,,2,,,74,127
27127,note_off,0,0,0,,7,,,43,127
27127,note_off,0,0,0,,7,,,55,127
27128,note_on,1,0,0,,0,,,48,127
27128,note_on,0,0,0,,0,,,72,127
27237,note_off,109,0,0,,0,,,72,127
27238,note_on,1,0,0,,0,,,84,127
27347,note_off,109,0,0,,0,,,84,127
27347,note_off,0,0,0,,0,,,48,127
27348,note_on,1,0,0,,2,,,50,127
27348,note_on,0,0,0,,7,,,79,127
27457,note_off,109,0,0,,7,,,79,127
27458,note_on,1,0,0,,4,,,76,127
27567,note_off,109,0,0,,4,,,76,127
27567,note_off,0,0,0,,2,,,50,127
27568,note_on,1,0,0,,4,,,52,127
27568,note_on,0,0,0,,0,,,72,127
27677,note_off,109,0,0,,0,,,72,127
27678,note_on,1,0,0,,7,,,67,127
27787,note_off,109,0,0,,7,,,67,127
27787,note_off,0,0,0,,4,,,52,127
27788,note_on,1,0,0,,5,,,53,127
27788,note_on,0,0,0,,4,,,64,127
27897,note_off,109,0,0,,4,,,64,127
27898,note_on,1,0,0,,0,,,60,127
28007,note_off,109,0,0,,0,,,60,127
28007,note_off,0,0,0,,5,,,53,127
28008,note_on,1,0,0,,7,,,55,127
28008,note_on,0,0,0,,4,,,64,127
28062,note_off,54,0,0,,4,,,64,127
28063,note_on,1,0,0,,2,,,62,127
28117,note_off,54,0,0,,2,,,62,127
28118,note_on,1,0,0,,4,,,64,127
28172,note_off,54,0,0,,4,,,64,127
28173,note_on,1,0,0,,2,,,62,127
28227,note_off,54,0,0,,2,,,62,127
28228,note_on,1,0,0,,7,,,43,127
28228,note_on,0,0,0,,4,,,64,127
28282,note_off,54,0,0,,4,,,64,127
28283,note_on,1,0,0,,2,,,62,127
28337,note_off,54,0,0,,2,,,62,127
28338,note_on,1,0,0,,0,,,60,127
28392,note_off,54,0,0,,0,,,60,127
28393,note_on,1,0,0,,2,,,62,127
28447,note_off,54,0,0,,2,,,62,127
28447,note_off,0,0,0,,7,,,43,127
28447,note_off,0,0,0,,7,,,55,127
28448,note_on,1,0,0,,0,,,48,127
28448,note_on,0,0,0,,0,,,60,127
28557,note_off,109,0,0,,0,,,60,127
28558,note_on,1,0,0,,0,,,84,127
28667,note_off,109,0,0,,0,,,84,127
28667,note_off,0,0,0,,0,,,48,127
28668,note_on,1,0,0,,2,,,50,127
28668,note_on,0,0,0,,7,,,79,127
28777,note_off,109,0,0,,7,,,79,127
28778,note_on,1,0,0,,4,,,76,127
28887,note_off,109,0,0,,4,,,76,127
28887,note_off,0,0,0,,2,,,50,127
28888,note_on,1,0,0,,4,,,52,127
28888,note_on,0,0,0,,0,,,72,127
28997,note_off,109,0,0,,0,,,72,127
28998,note_on,1,0,0,,7,,,67,127
29107,note_off,109,0,0,,7,,,67,127
29107,note_off,0,0,0,,4,,,52,127
29108,note_on,1,0,0,,5,,,53,127
29108,note_on,0,0,0,,4,,,64,127
29217,note_off,109,0,0,,4,,,64,127
29218,note_on,1,0,0,,0,,,60,127
29327,note_off,109,0,0,,0,,,60,127
29327,note_off,0,0,0,,5,,,53,127
29328,note_on,1,0,0,,7,,,55,127
29328,note_on,0,0,0,,4,,,64,127
29382,note_off,54,0,0,,4,,,64,127
29383,note_on,1,0,0,,2,,,62,127
29437,note_off,54,0,0,,2,,,62,127
29438,note_on,1,0,0,,4,,,64,127
29492,note_off,54,0,0,,4,,,64,127
29493,note_on,1,0,0,,2,,,62,127
29547,note_off,54,0,0,,2,,,62,127
29548,note_on,1,0,0,,7,,,43,127
29548,note_on,0,0,0,,4,,,64,127
29602,note_off,54,0,0,,4,,,64,127
29603,note_on,1,0,0,,2,,,62,127
29657,note_off,54,0,0,,2,,,62,127
29658,note_on,1,0,0,,0,,,60,127
29712,note_off,54,0,0,,0,,,60,127
29713,note_on,1,0,0,,2,,,62,127
29767,note_off,54,0,0,,2,,,62,127
29767,note_off,0,0,0,,7,,,43,127
29767,note_off,0,0,0,,7,,,55,127
29768,note_on,1,0,0,,0,,,48,127
29768,note_on,0,0,0,,0,,,36,127
29768,note_on,0,0,0,,0,,,60,127
30425,note_off,657,0,0,,0,,,60,127
30425,note_off,0,0,0,,0,,,36,127
30425,note_off,0,0,0,,0,,,48,127
30536,note_on,111,0,0,,0,,,84,127
30645,note_off,109,0,0,,0,,,84,127
30646,note_on,1,0,0,,12,,,83,127
30755,note_off,109,0,0,,12,,,83,127
30756,note_on,1,0,0,,10,,,81,127
30865,note_off,109,0,0,,10,,,81,127
30866,note_on,1,0,0,,7,,,79,127
30975,note_off,109,0,0,,7,,,79,127
30976,note_on,1,0,0,,5,,,77,127
31085,note_off,109,0,0,,5,,,77,127
31086,note_on,1,0,0,,4,,,76,127
31195,note_off,109,0,0,,4,,,76,127
31196,note_on,1,0,0,,2,,,74,127
31305,note_off,109,0,0,,2,,,74,127
31306,note_on,1,0,0,,0,,,72,127
31415,note_off,109,0,0,,0,,,72,127
31416,note_on,1,0,0,,12,,,71,127
31525,note_off,109,0,0,,12,,,71,127
31526,note_on,1,0,0,,10,,,69,127
31635,note_off,109,0,0,,10,,,69,127
31636,note_on,1,0,0,,7,,,67,127
31745,note_off,109,0,0,,7,,,67,127
31746,note_on,1,0,0,,5,,,65,127
31855,note_off,109,0,0,,5,,,65,127
31856,note_on,1,0,0,,4,,,64,127
31965,note_off,109,0,0,,4,,,64,127
31966,note_on,1,0,0,,2,,,62,127
32075,note_off,109,0,0,,2,,,62,127
32076,note_on,1,0,0,,0,,,60,127
32185,note_off,109,0,0,,0,,,60,127
32186,note_on,1,0,0,,12,,,59,127
32295,note_off,109,0,0,,12,,,59,127
32296,note_on,1,0,0,,10,,,57,127
32405,note_off,109,0,0,,10,,,57,127
32406,note_on,1,0,0,,7,,,55,127
32515,note_off,109,0,0,,7,,,55,127
32516,note_on,1,0,0,,5,,,53,127
32625,note_off,109,0,0,,5,,,53,127
32626,note_on,1,0,0,,4,,,52,127
32735,note_off,109,0,0,,4,,,52,127
32736,note_on,1,0,0,,2,,,50,127
32845,note_off,109,0,0,,2,,,50,127
32846,note_on,1,0,0,,0,,,48,127
32955,note_off,109,0,0,,0,,,48,127
32956,note_on,1,0,0,,12,,,47,127
33065,note_off,109,0,0,,12,,,47,127
33066,note_on,1,0,0,,10,,,45,127
33175,note_off,109,0,0,,10,,,45,127
33176,note_on,1,0,0,,12,,,47,127
33285,note_off,109,0,0,,12,,,47,127
33286,note_on,1,0,0,,0,,,48,127
33395,note_off,109,0,0,,0,,,48,127
33396,note_on,1,0,0,,2,,,50,127
33505,note_off,109,0,0,,2,,,50,127
33506,note_on,1,0,0,,4,,,52,127
33615,note_off,109,0,0,,4,,,52,127
33616,note_on,1,0,0,,5,,,53,127
33725,note_off,109,0,0,,5,,,53,127
33726,note_on,1,0,0,,7,,,55,127
33835,note_off,109,0,0,,7,,,55,127
33836,note_on,1,0,0,,10,,,57,127
33945,note_off,109,0,0,,10,,,57,127
33946,note_on,1,0,0,,12,,,59,127
34055,note_off,109,0,0,,12,,,59,127
34056,note_on,1,0,0,,0,,,60,127
34165,note_off,109,0,0,,0,,,60,127
34166,note_on,1,0,0,,2,,,62,127
34275,note_off,109,0,0,,2,,,62,127
34276,note_on,1,0,0,,4,,,64,127
34385,note_off,109,0,0,,4,,,64,127
34386,note_on,1,0,0,,5,,,65,127
34495,note_off,109,0,0,,5,,,65,127
34496,note_on,1,0,0,,7,,,67,127
34605,note_off,109,0,0,,7,,,67,127
34606,note_on,1,0,0,,10,,,69,127
34715,note_off,109,0,0,,10,,,69,127
34716,note_on,1,0,0,,12,,,71,127
34825,note_off,109,0,0,,12,,,71,127
34826,note_on,1,0,0,,0,,,72,127
34935,note_off,109,0,0,,0,,,72,127
34936,note_on,1,0,0,,2,,,74,127
35045,note_off,109,0,0,,2,,,74,127
35046,note_on,1,0,0,,4,,,76,127
35265,note_on,219,0,0,,10,,,81,127
35319,note_off,54,0,0,,10,,,81,127
35320,note_on,1,0,0,,7,,,79,127
35374,note_off,54,0,0,,7,,,79,127
35375,note_on,1,0,0,,5,,,77,127
35429,note_off,54,0,0,,5,,,77,127
35430,note_on,1,0,0,,7,,,79,127
35484,note_off,54,0,0,,7,,,79,127
35484,note_off,0,0,0,,4,,,76,127
35485,note_on,1,0,0,,1,,,73,127
35485,note_on,0,0,0,,10,,,81,127
35703,note_off,218,0,0,,10,,,81,127
35703,note_off,0,0,0,,1,,,73,127
35704,note_on,1,0,0,,2,,,74,127
35704,note_on,0,0,0,,7,,,79,127
35704,note_on,0,0,0,,5,,,77,127
35922,note_off,218,0,0,,5,,,77,127
35922,note_off,0,0,0,,7,,,79,127
35922,note_off,0,0,0,,2,,,74,127
35923,note_on,1,0,0,,0,,,72,127
35923,note_on,0,0,0,,4,,,76,127
36141,note_off,218,0,0,,4,,,76,127
36141,note_off,0,0,0,,0,,,72,127
36142,note_on,1,0,0,,11,,,70,127
36142,note_on,0,0,0,,2,,,74,127
36360,note_off,218,0,0,,2,,,74,127
36360,note_off,0,0,0,,11,,,70,127
36361,note_on,1,0,0,,10,,,69,127
36361,note_on,0,0,0,,4,,,76,127
36415,note_off,54,0,0,,4,,,76,127
36416,note_on,1,0,0,,2,,,74,127
36470,note_off,54,0,0,,2,,,74,127
36471,note_on,1,0,0,,4,,,76,127
36525,note_off,54,0,0,,4,,,76,127
36526,note_on,1,0,0,,2,,,74,127
36580,note_off,54,0,0,,2,,,74,127
36580,note_off,0,0,0,,10,,,69,127
36581,note_on,1,0,0,,7,,,67,127
36581,note_on,0,0,0,,1,,,73,127
36799,note_off,218,0,0,,1,,,73,127
36799,note_off,0,0,0,,7,,,67,127
36800,note_on,1,0,0,,5,,,65,127
36800,note_on,0,0,0,,2,,,74,127
37018,note_off,218,0,0,,2,,,74,127
37018,note_off,0,0,0,,5,,,65,127
37019,note_on,1,0,0,,4,,,64,127
37019,note_on,0,0,0,,4,,,76,127
37237,note_off,218,0,0,,4,,,76,127
37237,note_off,0,0,0,,4,,,64,127
37238,note_on,1,0,0,,2,,,62,127
37238,note_on,0,0,0,,7,,,79,127
37292,note_off,54,0,0,,7,,,79,127
37293,note_on,1,0,0,,5,,,77,127
37347,note_off,54,0,0,,5,,,77,127
37348,note_on,1,0,0,,7,,,79,127
37402,note_off,54,0,0,,7,,,79,127
37403,note_on,1,0,0,,5,,,77,127
37457,note_off,54,0,0,,5,,,77,127
37458,note_on,1,0,0,,7,,,79,127
37512,note_off,54,0,0,,7,,,79,127
37513,note_on,1,0,0,,5,,,77,127
37567,note_off,54,0,0,,5,,,77,127
37568,note_on,1,0,0,,4,,,76,127
37622,note_off,54,0,0,,4,,,76,127
37623,note_on,1,0,0,,5,,,77,127
37677,note_off,54,0,0,,5,,,77,127
37677,note_off,0,0,0,,2,,,62,127
37678,note_on,1,0,0,,10,,,57,127
37678,note_on,0,0,0,,4,,,76,127
37896,note_off,218,0,0,,4,,,76,127
37897,note_on,1,0,0,,10,,,81,127
38115,note_off,218,0,0,,10,,,57,127
38116,note_on,1,0,0,,5,,,65,127
38116,note_on,0,0,0,,10,,,69,127
38334,note_off,218,0,0,,10,,,69,127
38335,note_on,1,0,0,,11,,,70,127
38553,note_off,218,0,0,,5,,,65,127
38553,note_off,0,0,0,,10,,,81,127
38554,note_on,1,0,0,,4,,,64,127
38554,note_on,0,0,0,,7,,,79,127
38772,note_off,218,0,0,,4,,,64,127
38773,note_on,1,0,0,,2,,,62,127
38991,note_off,218,0,0,,2,,,62,127
38991,note_off,0,0,0,,11,,,70,127
38992,note_on,1,0,0,,1,,,61,127
38992,note_on,0,0,0,,10,,,69,127
39210,note_off,218,0,0,,1,,,61,127
39210,note_off,0,0,0,,7,,,79,127
39211,note_on,1,0,0,,2,,,62,127
39211,note_on,0,0,0,,5,,,77,127
39429,note_off,218,0,0,,10,,,69,127
39430,note_on,1,0,0,,12,,,71,127
39648,note_off,218,0,0,,12,,,71,127
39648,note_off,0,0,0,,5,,,77,127
39649,note_on,1,0,0,,8,,,68,127
39649,note_on,0,0,0,,4,,,76,127
39867,note_off,218,0,0,,8,,,68,127
39867,note_off,0,0,0,,2,,,62,127
39868,note_on,1,0,0,,0,,,60,127
39868,note_on,0,0,0,,10,,,69,127
40086,note_off,218,0,0,,10,,,69,127
40087,note_on,1,0,0,,4,,,64,127
40305,note_off,218,0,0,,4,,,64,127
40306,note_on,1,0,0,,5,,,65,127
40524,note_off,218,0,0,,0,,,60,127
40524,note_off,0,0,0,,4,,,76,127
40525,note_on,1,0,0,,12,,,59,127
40525,note_on,0,0,0,,2,,,74,127
40743,note_off,218,0,0,,12,,,59,127
40743,note_off,0,0,0,,5,,,65,127
40744,note_on,1,0,0,,10,,,57,127
40744,note_on,0,0,0,,5,,,65,127
40962,note_off,218,0,0,,5,,,65,127
40962,note_off,0,0,0,,10,,,57,127
40963,note_on,1,0,0,,8,,,56,127
40963,note_on,0,0,0,,4,,,64,127
41181,note_off,218,0,0,,8,,,56,127
41181,note_off,0,0,0,,2,,,74,127
41182,note_on,1,0,0,,10,,,57,127
41182,note_on,0,0,0,,0,,,72,127
41400,note_off,218,0,0,,10,,,57,127
41400,note_off,0,0,0,,4,,,64,127
41401,note_on,1,0,0,,7,,,55,127
41401,note_on,0,0,0,,3,,,63,127
41619,note_off,218,0,0,,3,,,63,127
41619,note_off,0,0,0,,7,,,55,127
41620,note_on,1,0,0,,6,,,54,127
41620,note_on,0,0,0,,2,,,62,127
41838,note_off,218,0,0,,6,,,54,127
41838,note_off,0,0,0,,0,,,72,127
41839,note_on,1,0,0,,7,,,55,127
41839,note_on,0,0,0,,11,,,70,127
42057,note_off,218,0,0,,7,,,55,127
42057,note_off,0,0,0,,2,,,62,127
42058,note_on,1,0,0,,5,,,53,127
42058,note_on,0,0,0,,2,,,62,127
42276,note_off,218,0,0,,2,,,62,127
42276,note_off,0,0,0,,5,,,53,127
42277,note_on,1,0,0,,4,,,52,127
42277,note_on,0,0,0,,1,,,61,127
42495,note_off,218,0,0,,1,,,61,127
42495,note_off,0,0,0,,4,,,52,127
42495,note_off,0,0,0,,11,,,70,127
42496,note_on,1,0,0,,2,,,50,127
42496,note_on,0,0,0,,10,,,69,127
42496,note_on,0,0,0,,2,,,62,127
42714,note_off,218,0,0,,2,,,62,127
42714,note_off,0,0,0,,10,,,69,127
42714,note_off,0,0,0,,2,,,50,127
42715,note_on,1,0,0,,1,,,49,127
42715,note_on,0,0,0,,7,,,67,127
42715,note_on,0,0,0,,4,,,64,127
42933,note_off,218,0,0,,4,,,64,127
42933,note_off,0,0,0,,7,,,67,127
42933,note_off,0,0,0,,1,,,49,127
42934,note_on,1,0,0,,2,,,50,127
42934,note_on,0,0,0,,10,,,69,127
42934,note_on,0,0,0,,5,,,65,127
43152,note_off,218,0,0,,5,,,65,127
43152,note_off,0,0,0,,2,,,50,127
43153,note_on,1,0,0,,0,,,48,127
43153,note_on,0,0,0,,4,,,64,127
43371,note_off,218,0,0,,4,,,64,127
43371,note_off,0,0,0,,0,,,48,127
43371,note_off,0,0,0,,10,,,69,127
43372,note_on,1,0,0,,11,,,46,127
43372,note_on,0,0,0,,2,,,62,127
43372,note_on,0,0,0,,7,,,67,127
43590,note_off,218,0,0,,7,,,67,127
43590,note_off,0,0,0,,2,,,62,127
43590,note_off,0,0,0,,11,,,46,127
43591,note_on,1,0,0,,10,,,45,127
43591,note_on,0,0,0,,1,,,61,127
43700,note_off,109,0,0,,1,,,61,127
43701,note_on,1,0,0,,12,,,59,127
43810,note_off,109,0,0,,12,,,59,127
43810,note_off,0,0,0,,10,,,45,127
43811,note_on,1,0,0,,12,,,47,127
43811,note_on,0,0,0,,2,,,62,127
43920,note_off,109,0,0,,2,,,62,127
43921,note_on,1,0,0,,1,,,61,127
44030,note_off,109,0,0,,1,,,61,127
44030,note_off,0,0,0,,12,,,47,127
44031,note_on,1,0,0,,1,,,49,127
44031,note_on,0,0,0,,4,,,64,127
44140,note_off,109,0,0,,4,,,64,127
44141,note_on,1,0,0,,2,,,62,127
44250,note_off,109,0,0,,2,,,62,127
44250,note_off,0,0,0,,1,,,49,127
44251,note_on,1,0,0,,2,,,50,127
44251,note_on,0,0,0,,6,,,66,127
44360,note_off,109,0,0,,6,,,66,127
44361,note_on,1,0,0,,4,,,64,127
44470,note_off,109,0,0,,4,,,64,127
44470,note_off,0,0,0,,2,,,50,127
44471,note_on,1,0,0,,4,,,52,127
44471,note_on,0,0,0,,7,,,67,127
44580,note_off,109,0,0,,7,,,67,127
44581,note_on,1,0,0,,6,,,66,127
44690,note_off,109,0,0,,6,,,66,127
44690,note_off,0,0,0,,4,,,52,127
44691,note_on,1,0,0,,6,,,54,127
44691,note_on,0,0,0,,10,,,69,127
44800,note_off,109,0,0,,10,,,69,127
44801,note_on,1,0,0,,7,,,67,127
44910,note_off,109,0,0,,7,,,67,127
44910,note_off,0,0,0,,6,,,54,127
44911,note_on,1,0,0,,7,,,55,127
44911,note_on,0,0,0,,11,,,70,127
45020,note_off,109,0,0,,11,,,70,127
45021,note_on,1,0,0,,10,,,69,127
45130,note_off,109,0,0,,10,,,69,127
45130,note_off,0,0,0,,7,,,55,127
45131,note_on,1,0,0,,10,,,57,127
45131,note_on,0,0,0,,0,,,72,127
45240,note_off,109,0,0,,0,,,72,127
45241,note_on,1,0,0,,11,,,70,127
45350,note_off,109,0,0,,11,,,70,127
45350,note_off,0,0,0,,10,,,57,127
45351,note_on,1,0,0,,11,,,58,127
45351,note_on,0,0,0,,2,,,74,127
45460,note_off,109,0,0,,2,,,74,127
45461,note_on,1,0,0,,0,,,72,127
45570,note_off,109,0,0,,0,,,72,127
45570,note_off,0,0,0,,11,,,58,127
45571,note_on,1,0,0,,0,,,60,127
45571,note_on,0,0,0,,4,,,76,127
45680,note_off,109,0,0,,4,,,76,127
45681,note_on,1,0,0,,2,,,74,127
45790,note_off,109,0,0,,2,,,74,127
45790,note_off,0,0,0,,0,,,60,127
45791,note_on,1,0,0,,2,,,62,127
45791,note_on,0,0,0,,5,,,77,127
45900,note_off,109,0,0,,5,,,77,127
45901,note_on,1,0,0,,4,,,76,127
46010,note_off,109,0,0,,4,,,76,127
46010,note_off,0,0,0,,2,,,62,127
46011,note_on,1,0,0,,4,,,64,127
46011,note_on,0,0,0,,7,,,79,127
46120,note_off,109,0,0,,7,,,79,127
46121,note_on,1,0,0,,5,,,77,127
46230,note_off,109,0,0,,5,,,77,127
46230,note_off,0,0,0,,4,,,64,127
46231,note_on,1,0,0,,5,,,53,127
46231,note_on,0,0,0,,5,,,65,127
46231,note_on,0,0,0,,10,,,81,127
46340,note_off,109,0,0,,10,,,81,127
46341,note_on,1,0,0,,7,,,79,127
46450,note_off,109,0,0,,7,,,79,127
46450,note_off,0,0,0,,5,,,53,127
46451,note_on,1,0,0,,7,,,55,127
46451,note_on,0,0,0,,11,,,82,127
46560,note_off,109,0,0,,11,,,82,127
46561,note_on,1,0,0,,10,,,81,127
46670,note_off,109,0,0,,10,,,81,127
46670,note_off,0,0,0,,7,,,55,127
46671,note_on,1,0,0,,10,,,57,127
46671,note_on,0,0,0,,0,,,84,127
46780,note_off,109,0,0,,0,,,84,127
46781,note_on,1,0,0,,11,,,82,127
46890,note_off,109,0,0,,11,,,82,127
46890,note_off,0,0,0,,10,,,57,127
46890,note_off,0,0,0,,5,,,65,127
46891,note_on,1,0,0,,11,,,58,127
46891,note_on,0,0,0,,2,,,86,127
47000,note_off,109,0,0,,2,,,86,127
47001,note_on,1,0,0,,0,,,84,127
47110,note_off,109,0,0,,0,,,84,127
47110,note_off,0,0,0,,11,,,58,127
47111,note_on,1,0,0,,0,,,60,127
47111,note_on,0,0,0,,11,,,82,127
47220,note_off,109,0,0,,11,,,82,127
47221,note_on,1,0,0,,10,,,81,127
47330,note_off,109,0,0,,10,,,81,127
47330,note_off,0,0,0,,0,,,60,127
47331,note_on,1,0,0,,2,,,62,127
47331,note_on,0,0,0,,7,,,79,127
47440,note_off,109,0,0,,7,,,79,127
47441,note_on,1,0,0,,5,,,77,127
47550,note_off,109,0,0,,5,,,77,127
47550,note_off,0,0,0,,2,,,62,127
47551,note_on,1,0,0,,0,,,60,127
47551,note_on,0,0,0,,7,,,79,127
47551,note_on,0,0,0,,10,,,81,127
47660,note_off,109,0,0,,10,,,81,127
47660,note_off,0,0,0,,7,,,79,127
47661,note_on,1,0,0,,5,,,77,127
47770,note_off,109,0,0,,5,,,77,127
47770,note_off,0,0,0,,0,,,60,127
47771,note_on,1,0,0,,2,,,62,127
47771,note_on,0,0,0,,4,,,76,127
47880,note_off,109,0,0,,4,,,76,127
47881,note_on,1,0,0,,2,,,74,127
47990,note_off,109,0,0,,2,,,74,127
47990,note_off,0,0,0,,2,,,62,127
47991,note_on,1,0,0,,4,,,64,127
47991,note_on,0,0,0,,0,,,72,127
48100,note_off,109,0,0,,0,,,72,127
48101,note_on,1,0,0,,11,,,70,127
48210,note_off,109,0,0,,11,,,70,127
48210,note_off,0,0,0,,4,,,64,127
48211,note_on,1,0,0,,5,,,65,127
48211,note_on,0,0,0,,10,,,69,127
48320,note_off,109,0,0,,10,,,69,127
48321,note_on,1,0,0,,0,,,72,127
48430,note_off,109,0,0,,0,,,72,127
48430,note_off,0,0,0,,5,,,65,127
48431,note_on,1,0,0,,2,,,62,127
48431,note_on,0,0,0,,11,,,70,127
48540,note_off,109,0,0,,11,,,70,127
48541,note_on,1,0,0,,10,,,69,127
48650,note_off,109,0,0,,10,,,69,127
48650,note_off,0,0,0,,2,,,62,127
48651,note_on,1,0,0,,11,,,58,127
48651,note_on,0,0,0,,7,,,67,127
48760,note_off,109,0,0,,7,,,67,127
48761,note_on,1,0,0,,5,,,65,127
48870,note_off,109,0,0,,5,,,65,127
48870,note_off,0,0,0,,11,,,58,127
48871,note_on,1,0,0,,0,,,60,127
48871,note_on,0,0,0,,7,,,67,127
48980,note_off,109,0,0,,7,,,67,127
48981,note_on,1,0,0,,5,,,65,127
49016,note_off,35,0,0,,5,,,65,127
49017,note_on,1,0,0,,7,,,67,127
49052,note_off,35,0,0,,7,,,67,127
49053,note_on,1,0,0,,5,,,65,127
49088,note_off,35,0,0,,5,,,65,127
49089,note_on,1,0,0,,4,,,64,127
49198,note_off,109,0,0,,4,,,64,127
49199,note_on,1,0,0,,2,,,62,127
49308,note_off,109,0,0,,2,,,62,127
49308,note_off,0,0,0,,0,,,60,127
49309,note_on,1,0,0,,0,,,48,127
49309,note_on,0,0,0,,0,,,60,127
49492,note_off,183,0,0,,0,,,60,127
49527,note_off,35,0,0,,0,,,48,127
49528,note_on,1,0,0,,5,,,65,127
49637,note_off,109,0,0,,5,,,65,127
49638,note_on,1,0,0,,4,,,64,127
49747,note_off,109,0,0,,4,,,64,127
49748,note_on,1,0,0,,7,,,67,127
49748,note_on,0,0,0,,5,,,89,127
49857,note_off,109,0,0,,7,,,67,127
49858,note_on,1,0,0,,5,,,65,127
49967,note_off,109,0,0,,5,,,65,127
49967,note_off,0,0,0,,5,,,89,127
49968,note_on,1,0,0,,10,,,69,127
49968,note_on,0,0,0,,5,,,77,127
50077,note_off,109,0,0,,10,,,69,127
50078,note_on,1,0,0,,7,,,67,127
50187,note_off,109,0,0,,7,,,67,127
50187,note_off,0,0,0,,5,,,77,127
50188,note_on,1,0,0,,11,,,70,127
50188,note_on,0,0,0,,5,,,77,127
50297,note_off,109,0,0,,11,,,70,127
50298,note_on,1,0,0,,10,,,69,127
50407,note_off,109,0,0,,10,,,69,127
50407,note_off,0,0,0,,5,,,77,127
50408,note_on,1,0,0,,0,,,72,127
50408,note_on,0,0,0,,10,,,81,127
50462,note_off,54,0,0,,10,,,81,127
50463,note_on,1,0,0,,7,,,79,127
50517,note_off,54,0,0,,7,,,79,127
50517,note_off,0,0,0,,0,,,72,127
50518,note_on,1,0,0,,11,,,70,127
50518,note_on,0,0,0,,10,,,81,127
50572,note_off,54,0,0,,10,,,81,127
50573,note_on,1,0,0,,7,,,79,127
50627,note_off,54,0,0,,7,,,79,127
50627,note_off,0,0,0,,11,,,70,127
50628,note_on,1,0,0,,10,,,69,127
50628,note_on,0,0,0,,10,,,81,127
50682,note_off,54,0,0,,10,,,81,127
50683,note_on,1,0,0,,7,,,79,127
50737,note_off,54,0,0,,7,,,79,127
50737,note_off,0,0,0,,10,,,69,127
50738,note_on,1,0,0,,7,,,67,127
50738,note_on,0,0,0,,5,,,77,127
50792,note_off,54,0,0,,5,,,77,127
50793,note_on,1,0,0,,7,,,79,127
50847,note_off,54,0,0,,7,,,79,127
50847,note_off,0,0,0,,7,,,67,127
50848,note_on,1,0,0,,5,,,65,127
50848,note_on,0,0,0,,10,,,81,127
50957,note_off,109,0,0,,5,,,65,127
50958,note_on,1,0,0,,4,,,64,127
51067,note_off,109,0,0,,4,,,64,127
51067,note_off,0,0,0,,10,,,81,127
51068,note_on,1,0,0,,7,,,67,127
51068,note_on,0,0,0,,5,,,89,127
51177,note_off,109,0,0,,7,,,67,127
51178,note_on,1,0,0,,5,,,65,127
51287,note_off,109,0,0,,5,,,65,127
51287,note_off,0,0,0,,5,,,89,127
51288,note_on,1,0,0,,10,,,69,127
51288,note_on,0,0,0,,5,,,77,127
51397,note_off,109,0,0,,10,,,69,127
51398,note_on,1,0,0,,7,,,67,127
51507,note_off,109,0,0,,7,,,67,127
51507,note_off,0,0,0,,5,,,77,127
51508,note_on,1,0,0,,11,,,70,127
51508,note_on,0,0,0,,5,,,77,127
51617,note_off,109,0,0,,11,,,70,127
51618,note_on,1,0,0,,10,,,69,127
51727,note_off,109,0,0,,10,,,69,127
51727,note_off,0,0,0,,5,,,77,127
51728,note_on,1,0,0,,0,,,72,127
51728,note_on,0,0,0,,10,,,81,127
51782,note_off,54,0,0,,10,,,81,127
51783,note_on,1,0,0,,7,,,79,127
51837,note_off,54,0,0,,7,,,79,127
51837,note_off,0,0,0,,0,,,72,127
51838,note_on,1,0,0,,11,,,70,127
51838,note_on,0,0,0,,10,,,81,127
51892,note_off,54,0,0,,10,,,81,127
51893,note_on,1,0,0,,7,,,79,127
51947,note_off,54,0,0,,7,,,79,127
51947,note_off,0,0,0,,11,,,70,127
51948,note_on,1,0,0,,10,,,69,127
51948,note_on,0,0,0,,10,,,81,127
52002,note_off,54,0,0,,10,,,81,127
52003,note_on,1,0,0,,7,,,79,127
52057,note_off,54,0,0,,7,,,79,127
52057,note_off,0,0,0,,10,,,69,127
52058,note_on,1,0,0,,7,,,67,127
52058,note_on,0,0,0,,5,,,77,127
52112,note_off,54,0,0,,5,,,77,127
52113,note_on,1,0,0,,7,,,79,127
52167,note_off,54,0,0,,7,,,79,127
52167,note_off,0,0,0,,7,,,67,127
52168,note_on,1,0,0,,5,,,65,127
52168,note_on,0,0,0,,10,,,81,127
52277,note_off,109,0,0,,10,,,81,127
52278,note_on,1,0,0,,0,,,84,127
52387,note_off,109,0,0,,0,,,84,127
52387,note_off,0,0,0,,5,,,65,127
52388,note_on,1,0,0,,7,,,67,127
52388,note_on,0,0,0,,4,,,76,127
52497,note_off,109,0,0,,4,,,76,127
52498,note_on,1,0,0,,7,,,79,127
52607,note_off,109,0,0,,7,,,79,127
52607,note_off,0,0,0,,7,,,67,127
52608,note_on,1,0,0,,10,,,69,127
52608,note_on,0,0,0,,5,,,77,127
52717,note_off,109,0,0,,5,,,77,127
52718,note_on,1,0,0,,0,,,72,127
52827,note_off,109,0,0,,0,,,72,127
52827,note_off,0,0,0,,10,,,69,127
52828,note_on,1,0,0,,11,,,70,127
52828,note_on,0,0,0,,2,,,74,127
52937,note_off,109,0,0,,2,,,74,127
52938,note_on,1,0,0,,11,,,82,127
53047,note_off,109,0,0,,11,,,82,127
53047,note_off,0,0,0,,11,,,70,127
53048,note_on,1,0,0,,0,,,72,127
53048,note_on,0,0,0,,10,,,81,127
53157,note_off,109,0,0,,10,,,81,127
53158,note_on,1,0,0,,7,,,79,127
53267,note_off,109,0,0,,7,,,79,127
53268,note_on,1,0,0,,0,,,60,127
53268,note_on,0,0,0,,5,,,77,127
53377,note_off,109,0,0,,5,,,77,127
53378,note_on,1,0,0,,4,,,76,127
53487,note_off,109,0,0,,4,,,76,127
53487,note_off,0,0,0,,0,,,60,127
53487,note_off,0,0,0,,0,,,72,127
53488,note_on,1,0,0,,5,,,53,127
53488,note_on,0,0,0,,5,,,77,127
53597,note_off,109,0,0,,5,,,53,127
53598,note_on,1,0,0,,4,,,52,127
53707,note_off,109,0,0,,4,,,52,127
53707,note_off,0,0,0,,5,,,77,127
53708,note_on,1,0,0,,7,,,55,127
53708,note_on,0,0,0,,5,,,77,127
53817,note_off,109,0,0,,7,,,55,127
53818,note_on,1,0,0,,5,,,53,127
53927,note_off,109,0,0,,5,,,53,127
53927,note_off,0,0,0,,5,,,77,127
53928,note_on,1,0,0,,10,,,57,127
53928,note_on,0,0,0,,5,,,65,127
54037,note_off,109,0,0,,10,,,57,127
54038,note_on,1,0,0,,7,,,55,127
54147,note_off,109,0,0,,7,,,55,127
54147,note_off,0,0,0,,5,,,65,127
54148,note_on,1,0,0,,11,,,58,127
54148,note_on,0,0,0,,5,,,65,127
54257,note_off,109,0,0,,11,,,58,127
54258,note_on,1,0,0,,10,,,57,127
54367,note_off,109,0,0,,10,,,57,127
54367,note_off,0,0,0,,5,,,65,127
54368,note_on,1,0,0,,0,,,60,127
54368,note_on,0,0,0,,10,,,69,127
54422,note_off,54,0,0,,10,,,69,127
54423,note_on,1,0,0,,7,,,67,127
54477,note_off,54,0,0,,7,,,67,127
54477,note_off,0,0,0,,0,,,60,127
54478,note_on,1,0,0,,11,,,58,127
54478,note_on,0,0,0,,10,,,69,127
54532,note_off,54,0,0,,10,,,69,127
54533,note_on,1,0,0,,7,,,67,127
54587,note_off,54,0,0,,7,,,67,127
54587,note_off,0,0,0,,11,,,58,127
54588,note_on,1,0,0,,10,,,57,127
54588,note_on,0,0,0,,10,,,69,127
54642,note_off,54,0,0,,10,,,69,127
54643,note_on,1,0,0,,7,,,67,127
54697,note_off,54,0,0,,7,,,67,127
54697,note_off,0,0,0,,10,,,57,127
54698,note_on,1,0,0,,7,,,55,127
54698,note_on,0,0,0,,5,,,65,127
54752,note_off,54,0,0,,5,,,65,127
54753,note_on,1,0,0,,7,,,67,127
54807,note_off,54,0,0,,7,,,67,127
54807,note_off,0,0,0,,7,,,55,127
54808,note_on,1,0,0,,5,,,53,127
54808,note_on,0,0,0,,10,,,69,127
54917,note_off,109,0,0,,5,,,53,127
54918,note_on,1,0,0,,4,,,52,127
55027,note_off,109,0,0,,4,,,52,127
55027,note_off,0,0,0,,10,,,69,127
55028,note_on,1,0,0,,7,,,55,127
55028,note_on,0,0,0,,5,,,77,127
55137,note_off,109,0,0,,7,,,55,127
55138,note_on,1,0,0,,5,,,53,127
55247,note_off,109,0,0,,5,,,53,127
55247,note_off,0,0,0,,5,,,77,127
55248,note_on,1,0,0,,10,,,57,127
55248,note_on,0,0,0,,5,,,65,127
55357,note_off,109,0,0,,10,,,57,127
55358,note_on,1,0,0,,7,,,55,127
55467,note_off,109,0,0,,7,,,55,127
55467,note_off,0,0,0,,5,,,65,127
55468,note_on,1,0,0,,11,,,58,127
55468,note_on,0,0,0,,5,,,65,127
55577,note_off,109,0,0,,11,,,58,127
55578,note_on,1,0,0,,10,,,57,127
55687,note_off,109,0,0,,10,,,57,127
55687,note_off,0,0,0,,5,,,65,127
55688,note_on,1,0,0,,0,,,60,127
55688,note_on,0,0,0,,10,,,69,127
55742,note_off,54,0,0,,10,,,69,127
55743,note_on,1,0,0,,7,,,67,127
55797,note_off,54,0,0,,7,,,67,127
55797,note_off,0,0,0,,0,,,60,127
55798,note_on,1,0,0,,11,,,58,127
55798,note_on,0,0,0,,10,,,69,127
55852,note_off,54,0,0,,10,,,69,127
55853,note_on,1,0,0,,7,,,67,127
55907,note_off,54,0,0,,7,,,67,127
55907,note_off,0,0,0,,11,,,58,127
55908,note_on,1,0,0,,10,,,57,127
55908,note_on,0,0,0,,10,,,69,127
55962,note_off,54,0,0,,10,,,69,127
55963,note_on,1,0,0,,7,,,67,127
56017,note_off,54,0,0,,7,,,67,127
56017,note_off,0,0,0,,10,,,57,127
56018,note_on,1,0,0,,7,,,55,127
56018,note_on,0,0,0,,5,,,65,127
56072,note_off,54,0,0,,5,,,65,127
56073,note_on,1,0,0,,7,,,67,127
56127,note_off,54,0,0,,7,,,67,127
56127,note_off,0,0,0,,7,,,55,127
56128,note_on,1,0,0,,5,,,53,127
56128,note_on,0,0,0,,10,,,69,127
56237,note_off,109,0,0,,10,,,69,127
56238,note_on,1,0,0,,5,,,65,127
56347,note_off,109,0,0,,5,,,65,127
56347,note_off,0,0,0,,5,,,53,127
56348,note_on,1,0,0,,7,,,55,127
56348,note_on,0,0,0,,10,,,69,127
56457,note_off,109,0,0,,10,,,69,127
56458,note_on,1,0,0,,0,,,72,127
56567,note_off,109,0,0,,0,,,72,127
56567,note_off,0,0,0,,7,,,55,127
56568,note_on,1,0,0,,10,,,57,127
56568,note_on,0,0,0,,5,,,77,127
56677,note_off,109,0,0,,5,,,77,127
56678,note_on,1,0,0,,0,,,72,127
56787,note_off,109,0,0,,0,,,72,127
56787,note_off,0,0,0,,10,,,57,127
56788,note_on,1,0,0,,11,,,58,127
56788,note_on,0,0,0,,2,,,74,127
56897,note_off,109,0,0,,2,,,74,127
56898,note_on,1,0,0,,11,,,82,127
57007,note_off,109,0,0,,11,,,82,127
57007,note_off,0,0,0,,11,,,58,127
57008,note_on,1,0,0,,0,,,60,127
57008,note_on,0,0,0,,10,,,81,127
57117,note_off,109,0,0,,10,,,81,127
57118,note_on,1,0,0,,7,,,79,127
57227,note_off,109,0,0,,7,,,79,127
57228,note_on,1,0,0,,0,,,48,127
57228,note_on,0,0,0,,5,,,77,127
57337,note_off,109,0,0,,5,,,77,127
57338,note_on,1,0,0,,4,,,76,127
57447,note_off,109,0,0,,4,,,76,127
57447,note_off,0,0,0,,0,,,48,127
57447,note_off,0,0,0,,0,,,60,127
57448,note_on,1,0,0,,5,,,53,127
57448,note_on,0,0,0,,5,,,77,127
57666,note_off,218,0,0,,5,,,77,127
57666,note_off,0,0,0,,5,,,53,127
57667,note_on,1,0,0,,7,,,55,127
57667,note_on,0,0,0,,5,,,65,127
57721,note_off,54,0,0,,5,,,65,127
57722,note_on,1,0,0,,7,,,67,127
57776,note_off,54,0,0,,7,,,67,127
57777,note_on,1,0,0,,10,,,69,127
57831,note_off,54,0,0,,10,,,69,127
57832,note_on,1,0,0,,11,,,70,127
57886,note_off,54,0,0,,11,,,70,127
57886,note_off,0,0,0,,7,,,55,127
57887,note_on,1,0,0,,10,,,57,127
57887,note_on,0,0,0,,0,,,72,127
57941,note_off,54,0,0,,0,,,72,127
57942,note_on,1,0,0,,2,,,74,127
57996,note_off,54,0,0,,2,,,74,127
57997,note_on,1,0,0,,3,,,75,127
58106,note_off,109,0,0,,3,,,75,127
58106,note_off,0,0,0,,10,,,57,127
58107,note_on,1,0,0,,11,,,58,127
58107,note_on,0,0,0,,2,,,74,127
58325,note_off,218,0,0,,2,,,74,127
58325,note_off,0,0,0,,11,,,58,127
58326,note_on,1,0,0,,0,,,60,127
58326,note_on,0,0,0,,0,,,72,127
58380,note_off,54,0,0,,0,,,72,127
58381,note_on,1,0,0,,2,,,74,127
58435,note_off,54,0,0,,2,,,74,127
58436,note_on,1,0,0,,4,,,76,127
58490,note_off,54,0,0,,4,,,76,127
58491,note_on,1,0,0,,5,,,77,127
58545,note_off,54,0,0,,5,,,77,127
58546,note_on,1,0,0,,0,,,48,127
58546,note_on,0,0,0,,7,,,79,127
58600,note_off,54,0,0,,7,,,79,127
58601,note_on,1,0,0,,10,,,81,127
58655,note_off,54,0,0,,10,,,81,127
58656,note_on,1,0,0,,11,,,82,127
58765,note_off,109,0,0,,11,,,82,127
58765,note_off,0,0,0,,0,,,48,127
58765,note_off,0,0,0,,0,,,60,127
58766,note_on,1,0,0,,5,,,53,127
58766,note_on,0,0,0,,10,,,81,127
58984,note_off,218,0,0,,10,,,81,127
58984,note_off,0,0,0,,5,,,53,127
58985,note_on,1,0,0,,7,,,55,127
58985,note_on,0,0,0,,5,,,77,127
59039,note_off,54,0,0,,5,,,77,127
59040,note_on,1,0,0,,7,,,79,127
59094,note_off,54,0,0,,7,,,79,127
59095,note_on,1,0,0,,10,,,81,127
59149,note_off,54,0,0,,10,,,81,127
59150,note_on,1,0,0,,11,,,82,127
59204,note_off,54,0,0,,11,,,82,127
59204,note_off,0,0,0,,7,,,55,127
59205,note_on,1,0,0,,10,,,57,127
59205,note_on,0,0,0,,0,,,84,127
59259,note_off,54,0,0,,0,,,84,127
59260,note_on,1,0,0,,2,,,86,127
59314,note_off,54,0,0,,2,,,86,127
59315,note_on,1,0,0,,3,,,87,127
59424,note_off,109,0,0,,3,,,87,127
59424,note_off,0,0,0,,10,,,57,127
59425,note_on,1,0,0,,11,,,58,127
59425,note_on,0,0,0,,3,,,87,127
59534,note_off,109,0,0,,3,,,87,127
59535,note_on,1,0,0,,2,,,86,127
59644,note_off,109,0,0,,2,,,86,127
59644,note_off,0,0,0,,11,,,58,127
59645,note_on,1,0,0,,0,,,60,127
59645,note_on,0,0,0,,0,,,84,127
59754,note_off,109,0,0,,0,,,84,127
59755,note_on,1,0,0,,11,,,82,127
59864,note_off,109,0,0,,11,,,82,127
59865,note_on,1,0,0,,0,,,48,127
59865,note_on,0,0,0,,10,,,81,127
59974,note_off,109,0,0,,10,,,81,127
59975,note_on,1,0,0,,7,,,79,127
60084,note_off,109,0,0,,7,,,79,127
60084,note_off,0,0,0,,0,,,48,127
60084,note_off,0,0,0,,0,,,60,127
60085,note_on,1,0,0,,5,,,53,127
60085,note_on,0,0,0,,5,,,77,127
60303,note_off,218,0,0,,5,,,77,127
60303,note_off,0,0,0,,5,,,53,127
60304,note_on,1,0,0,,7,,,55,127
60304,note_on,0,0,0,,5,,,77,127
60304,note_on,0,0,0,,5,,,65,127
60522,note_off,218,0,0,,5,,,77,127
60522,note_off,0,0,0,,7,,,55,127
60523,note_on,1,0,0,,10,,,57,127
60523,note_on,0,0,0,,3,,,75,127
60741,note_off,218,0,0,,3,,,75,127
60741,note_off,0,0,0,,10,,,57,127
60741,note_off,0,0,0,,5,,,65,127
60742,note_on,1,0,0,,11,,,58,127
60742,note_on,0,0,0,,2,,,74,127
60960,note_off,218,0,0,,2,,,74,127
60960,note_off,0,0,0,,11,,,58,127
60961,note_on,1,0,0,,0,,,60,127
60961,note_on,0,0,0,,0,,,84,127
60961,note_on,0,0,0,,0,,,72,127
61179,note_off,218,0,0,,0,,,84,127
61180,note_on,1,0,0,,0,,,48,127
61180,note_on,0,0,0,,11,,,82,127
61398,note_off,218,0,0,,11,,,82,127
61398,note_off,0,0,0,,0,,,48,127
61398,note_off,0,0,0,,0,,,72,127
61398,note_off,0,0,0,,0,,,60,127
61399,note_on,1,0,0,,5,,,53,127
61399,note_on,0,0,0,,10,,,81,127
61617,note_off,218,0,0,,10,,,81,127
61617,note_off,0,0,0,,5,,,53,127
61618,note_on,1,0,0,,7,,,55,127
61618,note_on,0,0,0,,5,,,77,127
61618,note_on,0,0,0,,5,,,89,127
61836,note_off,218,0,0,,5,,,89,127
61836,note_off,0,0,0,,7,,,55,127
61837,note_on,1,0,0,,10,,,57,127
61837,note_on,0,0,0,,3,,,87,127
62055,note_off,218,0,0,,3,,,87,127
62055,note_off,0,0,0,,10,,,57,127
62055,note_off,0,0,0,,5,,,77,127
62056,note_on,1,0,0,,11,,,58,127
62056,note_on,0,0,0,,3,,,87,127
62165,note_off,109,0,0,,3,,,87,127
62166,note_on,1,0,0,,2,,,86,127
62275,note_off,109,0,0,,2,,,86,127
62275,note_off,0,0,0,,11,,,58,127
62276,note_on,1,0,0,,0,,,60,127
62276,note_on,0,0,0,,0,,,84,127
62385,note_off,109,0,0,,0,,,84,127
62386,note_on,1,0,0,,11,,,82,127
62495,note_off,109,0,0,,11,,,82,127
62496,note_on,1,0,0,,0,,,48,127
62496,note_on,0,0,0,,10,,,81,127
62605,note_off,109,0,0,,10,,,81,127
62606,note_on,1,0,0,,7,,,79,127
62715,note_off,109,0,0,,7,,,79,127
62715,note_off,0,0,0,,0,,,48,127
62715,note_off,0,0,0,,0,,,60,127
62716,note_on,1,0,0,,5,,,41,127
62716,note_on,0,0,0,,5,,,77,127
62825,note_off,109,0,0,,5,,,77,127
62826,note_on,1,0,0,,0,,,84,127
62935,note_off,109,0,0,,0,,,84,127
62935,note_off,0,0,0,,5,,,41,127
62936,note_on,1,0,0,,7,,,43,127
62936,note_on,0,0,0,,10,,,81,127
63045,note_off,109,0,0,,10,,,81,127
63046,note_on,1,0,0,,5,,,77,127
63155,note_off,109,0,0,,5,,,77,127
63155,note_off,0,0,0,,7,,,43,127
63156,note_on,1,0,0,,10,,,45,127
63156,note_on,0,0,0,,0,,,72,127
63265,note_off,109,0,0,,0,,,72,127
63266,note_on,1,0,0,,10,,,69,127
63375,note_off,109,0,0,,10,,,69,127
63375,note_off,0,0,0,,10,,,45,127
63376,note_on,1,0,0,,11,,,46,127
63376,note_on,0,0,0,,5,,,65,127
63485,note_off,109,0,0,,5,,,65,127
63486,note_on,1,0,0,,0,,,60,127
63595,note_off,109,0,0,,0,,,60,127
63595,note_off,0,0,0,,11,,,46,127
63596,note_on,1,0,0,,0,,,48,127
63596,note_on,0,0,0,,10,,,69,127
63650,note_off,54,0,0,,10,,,69,127
63651,note_on,1,0,0,,7,,,67,127
63705,note_off,54,0,0,,7,,,67,127
63706,note_on,1,0,0,,10,,,69,127
63760,note_off,54,0,0,,10,,,69,127
63761,note_on,1,0,0,,7,,,67,127
63815,note_off,54,0,0,,7,,,67,127
63816,note_on,1,0,0,,0,,,36,127
63816,note_on,0,0,0,,10,,,69,127
63870,note_off,54,0,0,,10,,,69,127
63871,note_on,1,0,0,,7,,,67,127
63925,note_off,54,0,0,,7,,,67,127
63926,note_on,1,0,0,,5,,,65,127
63980,note_off,54,0,0,,5,,,65,127
63981,note_on,1,0,0,,7,,,67,127
64035,note_off,54,0,0,,7,,,67,127
64035,note_off,0,0,0,,0,,,36,127
64035,note_off,0,0,0,,0,,,48,127
64036,note_on,1,0,0,,5,,,65,127
64036,note_on,0,0,0,,5,,,41,127
64145,note_off,109,0,0,,5,,,65,127
64147,note_on,2,0,0,,0,,,84,127
64254,note_off,107,0,0,,5,,,41,127
64255,note_off,1,0,0,,0,,,84,127
64256,note_on,1,0,0,,10,,,81,127
64256,note_on,0,0,0,,7,,,43,127
64365,note_off,109,0,0,,10,,,81,127
64367,note_on,2,0,0,,5,,,77,127
64474,note_off,107,0,0,,7,,,43,127
64475,note_off,1,0,0,,5,,,77,127
64477,note_on,2,0,0,,0,,,72,127
64477,note_on,0,0,0,,10,,,45,127
64586,note_off,109,0,0,,0,,,72,127
64588,note_on,2,0,0,,10,,,69,127
64695,note_off,107,0,0,,10,,,45,127
64696,note_off,1,0,0,,10,,,69,127
64698,note_on,2,0,0,,5,,,65,127
64698,note_on,0,0,0,,11,,,46,127
64807,note_off,109,0,0,,5,,,65,127
64809,note_on,2,0,0,,0,,,60,127
64916,note_off,107,0,0,,11,,,46,127
64917,note_off,1,0,0,,0,,,60,127
64922,note_on,5,0,0,,10,,,69,127
64922,note_on,0,0,0,,0,,,48,127
64976,note_off,54,0,0,,10,,,69,127
64986,note_on,10,0,0,,7,,,67,127
65040,note_off,54,0,0,,7,,,67,127
65050,note_on,10,0,0,,10,,,69,127
65104,note_off,54,0,0,,10,,,69,127
65115,note_on,11,0,0,,7,,,67,127
65169,note_off,54,0,0,,7,,,67,127
65179,note_on,10,0,0,,10,,,69,127
65179,note_on,0,0,0,,0,,,36,127
65233,note_off,54,0,0,,10,,,69,127
65246,note_on,13,0,0,,7,,,67,127
65300,note_off,54,0,0,,7,,,67,127
65310,note_on,10,0,0,,5,,,65,127
65360,note_off,50,0,0,,0,,,48,127
65363,note_off,3,0,0,,5,,,65,127
65374,note_on,11,0,0,,7,,,67,127
65397,note_off,23,0,0,,0,,,36,127
65428,note_off,31,0,0,,7,,,67,127
65447,note_on,19,0,0,,5,,,65,127
65447,note_on,0,0,0,,5,,,41,127
67224,note_off,1777,0,0,,5,,,41,127
67224,note_off,0,0,0,,5,,,65,127
72192,end_of_track,4968,1,0,,,,,,
