tick,type,time,meta,track,program,channel,pitch,tempo,note,velocity
0,copyright,0,1,0,,,,,,
0,program_change,0,0,0,6,0,,,,
0,pitchwheel,0,0,0,,0,0,,,
0,program_change,0,0,0,6,1,,,,
0,pitchwheel,0,0,0,,1,-590,,,
0,program_change,0,0,0,6,2,,,,
0,pitchwheel,0,0,0,,2,-272,,,
0,program_change,0,0,0,6,3,,,,
0,pitchwheel,0,0,0,,3,-353,,,
0,program_change,0,0,0,6,4,,,,
0,pitchwheel,0,0,0,,4,-560,,,
0,program_change,0,0,0,6,5,,,,
0,pitchwheel,0,0,0,,5,-80,,,
0,program_change,0,0,0,6,6,,,,
0,pitchwheel,0,0,0,,6,-625,,,
0,program_change,0,0,0,6,7,,,,
0,pitchwheel,0,0,0,,7,-130,,,
0,program_change,0,0,0,6,8,,,,
0,pitchwheel,0,0,0,,8,-512,,,
0,program_change,0,0,0,6,10,,,,
0,pitchwheel,0,0,0,,10,-464,,,
0,program_change,0,0,0,6,11,,,,
0,pitchwheel,0,0,0,,11,-208,,,
0,program_change,0,0,0,6,12,,,,
0,pitchwheel,0,0,0,,12,-553,,,
0,set_tempo,0,1,0,,,,500000,,
115,note_on,115,0,0,,5,,,53,127
173,note_on,58,0,0,,3,,,51,127
181,note_off,8,0,0,,5,,,53,127
230,note_on,49,0,0,,5,,,53,127
238,note_off,8,0,0,,3,,,51,127
287,note_on,49,0,0,,3,,,51,127
295,note_off,8,0,0,,5,,,53,127
344,note_on,49,0,0,,5,,,53,127
352,note_off,8,0,0,,3,,,51,127
401,note_on,49,0,0,,3,,,51,127
409,note_off,8,0,0,,5,,,53,127
458,note_on,49,0,0,,5,,,53,127
466,note_off,8,0,0,,3,,,51,127
515,note_on,49,0,0,,3,,,51,127
523,note_off,8,0,0,,5,,,53,127
572,note_on,49,0,0,,11,,,46,127
580,note_off,8,0,0,,3,,,51,127
878,note_off,298,0,0,,11,,,46,127
879,note_on,1,0,0,,3,,,51,127
1031,note_off,152,0,0,,3,,,51,127
1032,note_on,1,0,0,,3,,,51,127
1492,note_off,460,0,0,,3,,,51,127
1493,note_on,1,0,0,,3,,,51,127
1953,note_off,460,0,0,,3,,,51,127
1954,note_on,1,0,0,,7,,,55,127
2106,note_off,152,0,0,,7,,,55,127
2107,note_on,1,0,0,,3,,,51,127
2259,note_off,152,0,0,,3,,,51,127
2260,note_on,1,0,0,,7,,,55,127
2412,note_off,152,0,0,,7,,,55,127
2413,note_on,1,0,0,,11,,,58,127
2565,note_off,152,0,0,,11,,,58,127
2566,note_on,1,0,0,,7,,,55,127
2718,note_off,152,0,0,,7,,,55,127
2719,note_on,1,0,0,,11,,,58,127
2871,note_off,152,0,0,,11,,,58,127
2872,note_on,1,0,0,,3,,,63,127
3024,note_off,152,0,0,,3,,,63,127
3025,note_on,1,0,0,,7,,,67,127
3177,note_off,152,0,0,,7,,,67,127
3178,note_on,1,0,0,,5,,,65,127
3330,note_off,152,0,0,,5,,,65,127
3331,note_on,1,0,0,,3,,,63,127
3483,note_off,152,0,0,,3,,,63,127
3484,note_on,1,0,0,,2,,,62,127
3636,note_off,152,0,0,,2,,,62,127
3637,note_on,1,0,0,,0,,,60,127
3789,note_off,152,0,0,,0,,,60,127
3790,note_on,1,0,0,,11,,,58,127
4250,note_off,460,0,0,,11,,,58,127
4251,note_on,1,0,0,,11,,,58,127
4711,note_off,460,0,0,,11,,,58,127
4712,note_on,1,0,0,,11,,,58,127
4770,note_on,58,0,0,,8,,,56,127
4778,note_off,8,0,0,,11,,,58,127
4827,note_on,49,0,0,,11,,,58,127
4835,note_off,8,0,0,,8,,,56,127
4884,note_on,49,0,0,,8,,,56,127
4892,note_off,8,0,0,,11,,,58,127
4941,note_on,49,0,0,,11,,,58,127
4949,note_off,8,0,0,,8,,,56,127
4998,note_on,49,0,0,,8,,,56,127
5006,note_off,8,0,0,,11,,,58,127
5055,note_on,49,0,0,,11,,,58,127
5063,note_off,8,0,0,,8,,,56,127
5112,note_on,49,0,0,,8,,,56,127
5120,note_off,8,0,0,,11,,,58,127
5169,note_on,49,0,0,,11,,,58,127
5177,note_off,8,0,0,,8,,,56,127
5226,note_on,49,0,0,,8,,,56,127
5234,note_off,8,0,0,,11,,,58,127
5283,note_on,49,0,0,,11,,,58,127
5291,note_off,8,0,0,,8,,,56,127
5340,note_on,49,0,0,,8,,,56,127
5348,note_off,8,0,0,,11,,,58,127
5397,note_on,49,0,0,,11,,,58,127
5405,note_off,8,0,0,,8,,,56,127
5454,note_on,49,0,0,,8,,,56,127
5462,note_off,8,0,0,,11,,,58,127
5511,note_on,49,0,0,,7,,,55,127
5519,note_off,8,0,0,,8,,,56,127
5568,note_on,49,0,0,,8,,,56,127
5576,note_off,8,0,0,,7,,,55,127
5625,note_on,49,0,0,,7,,,55,127
5625,note_on,0,0,0,,5,,,65,127
5633,note_off,8,0,0,,8,,,56,127
5682,note_on,49,0,0,,3,,,63,127
5690,note_off,8,0,0,,5,,,65,127
5739,note_on,49,0,0,,5,,,65,127
5747,note_off,8,0,0,,3,,,63,127
5796,note_on,49,0,0,,3,,,63,127
5804,note_off,8,0,0,,5,,,65,127
5853,note_on,49,0,0,,5,,,65,127
5861,note_off,8,0,0,,3,,,63,127
5910,note_on,49,0,0,,3,,,63,127
5918,note_off,8,0,0,,5,,,65,127
5967,note_on,49,0,0,,5,,,65,127
5975,note_off,8,0,0,,3,,,63,127
6024,note_on,49,0,0,,3,,,63,127
6032,note_off,8,0,0,,5,,,65,127
6081,note_on,49,0,0,,11,,,58,127
6089,note_off,8,0,0,,3,,,63,127
6387,note_off,298,0,0,,11,,,58,127
6388,note_on,1,0,0,,3,,,63,127
6540,note_off,152,0,0,,3,,,63,127
6541,note_on,1,0,0,,3,,,63,127
6819,note_off,278,0,0,,7,,,55,127
7000,note_off,181,0,0,,3,,,63,127
7001,note_on,1,0,0,,5,,,53,127
7001,note_on,0,0,0,,3,,,63,127
7461,note_off,460,0,0,,3,,,63,127
7461,note_off,0,0,0,,5,,,53,127
7462,note_on,1,0,0,,3,,,51,127
7462,note_on,0,0,0,,7,,,67,127
7614,note_off,152,0,0,,7,,,67,127
7615,note_on,1,0,0,,3,,,63,127
7767,note_off,152,0,0,,3,,,63,127
7768,note_on,1,0,0,,7,,,67,127
7920,note_off,152,0,0,,7,,,67,127
7921,note_on,1,0,0,,11,,,70,127
8073,note_off,152,0,0,,11,,,70,127
8074,note_on,1,0,0,,7,,,67,127
8226,note_off,152,0,0,,7,,,67,127
8227,note_on,1,0,0,,11,,,70,127
8379,note_off,152,0,0,,11,,,70,127
8380,note_on,1,0,0,,3,,,75,127
8532,note_off,152,0,0,,3,,,75,127
8533,note_on,1,0,0,,7,,,79,127
8685,note_off,152,0,0,,7,,,79,127
8686,note_on,1,0,0,,5,,,77,127
8717,note_off,31,0,0,,3,,,51,127
8838,note_off,121,0,0,,5,,,77,127
8839,note_on,1,0,0,,8,,,56,127
8839,note_on,0,0,0,,3,,,75,127
8991,note_off,152,0,0,,3,,,75,127
8992,note_on,1,0,0,,2,,,74,127
9144,note_off,152,0,0,,2,,,74,127
9145,note_on,1,0,0,,0,,,72,127
9297,note_off,152,0,0,,0,,,72,127
9297,note_off,0,0,0,,8,,,56,127
9298,note_on,1,0,0,,11,,,58,127
9298,note_on,0,0,0,,11,,,70,127
9758,note_off,460,0,0,,11,,,70,127
9758,note_off,0,0,0,,11,,,58,127
9759,note_on,1,0,0,,11,,,46,127
9759,note_on,0,0,0,,11,,,70,127
10219,note_off,460,0,0,,11,,,70,127
10219,note_off,0,0,0,,11,,,46,127
10220,note_on,1,0,0,,0,,,48,127
10220,note_on,0,0,0,,11,,,70,127
10278,note_on,58,0,0,,8,,,68,127
10286,note_off,8,0,0,,11,,,70,127
10335,note_on,49,0,0,,11,,,70,127
10343,note_off,8,0,0,,8,,,68,127
10392,note_on,49,0,0,,8,,,68,127
10400,note_off,8,0,0,,11,,,70,127
10449,note_on,49,0,0,,11,,,70,127
10457,note_off,8,0,0,,8,,,68,127
10506,note_on,49,0,0,,8,,,68,127
10514,note_off,8,0,0,,11,,,70,127
10563,note_on,49,0,0,,11,,,70,127
10571,note_off,8,0,0,,8,,,68,127
10620,note_on,49,0,0,,8,,,68,127
10628,note_off,8,0,0,,11,,,70,127
10676,note_off,48,0,0,,0,,,48,127
10677,note_on,1,0,0,,2,,,50,127
10677,note_on,0,0,0,,11,,,70,127
10685,note_off,8,0,0,,8,,,68,127
10734,note_on,49,0,0,,8,,,68,127
10742,note_off,8,0,0,,11,,,70,127
10791,note_on,49,0,0,,11,,,70,127
10799,note_off,8,0,0,,8,,,68,127
10848,note_on,49,0,0,,8,,,68,127
10856,note_off,8,0,0,,11,,,70,127
10905,note_on,49,0,0,,11,,,70,127
10913,note_off,8,0,0,,8,,,68,127
10962,note_on,49,0,0,,8,,,68,127
10970,note_off,8,0,0,,11,,,70,127
11019,note_on,49,0,0,,7,,,67,127
11027,note_off,8,0,0,,8,,,68,127
11076,note_on,49,0,0,,8,,,68,127
11084,note_off,8,0,0,,7,,,67,127
11132,note_off,48,0,0,,2,,,50,127
11133,note_on,1,0,0,,3,,,51,127
11133,note_on,0,0,0,,7,,,67,127
11141,note_off,8,0,0,,8,,,68,127
11592,note_off,451,0,0,,7,,,67,127
11593,note_on,1,0,0,,11,,,82,127
11745,note_off,152,0,0,,11,,,82,127
11746,note_on,1,0,0,,7,,,79,127
11822,note_off,76,0,0,,3,,,51,127
11899,note_off,77,0,0,,7,,,79,127
11900,note_on,1,0,0,,3,,,75,127
12052,note_off,152,0,0,,3,,,75,127
12053,note_on,1,0,0,,11,,,70,127
12053,note_on,0,0,0,,2,,,74,127
12111,note_on,58,0,0,,3,,,75,127
12119,note_off,8,0,0,,2,,,74,127
12168,note_on,49,0,0,,2,,,74,127
12176,note_off,8,0,0,,3,,,75,127
12225,note_on,49,0,0,,3,,,75,127
12233,note_off,8,0,0,,2,,,74,127
12282,note_on,49,0,0,,2,,,74,127
12290,note_off,8,0,0,,3,,,75,127
12339,note_on,49,0,0,,3,,,75,127
12347,note_off,8,0,0,,2,,,74,127
12396,note_on,49,0,0,,2,,,74,127
12404,note_off,8,0,0,,3,,,75,127
12510,note_off,106,0,0,,2,,,74,127
12510,note_off,0,0,0,,11,,,70,127
12511,note_on,1,0,0,,8,,,68,127
12511,note_on,0,0,0,,11,,,82,127
12663,note_off,152,0,0,,11,,,82,127
12664,note_on,1,0,0,,7,,,79,127
12816,note_off,152,0,0,,7,,,79,127
12817,note_on,1,0,0,,0,,,72,127
12969,note_off,152,0,0,,0,,,72,127
12969,note_off,0,0,0,,8,,,68,127
12970,note_on,1,0,0,,7,,,67,127
12970,note_on,0,0,0,,11,,,70,127
13028,note_on,58,0,0,,0,,,72,127
13036,note_off,8,0,0,,11,,,70,127
13085,note_on,49,0,0,,11,,,70,127
13093,note_off,8,0,0,,0,,,72,127
13142,note_on,49,0,0,,0,,,72,127
13150,note_off,8,0,0,,11,,,70,127
13199,note_on,49,0,0,,11,,,70,127
13207,note_off,8,0,0,,0,,,72,127
13256,note_on,49,0,0,,0,,,72,127
13264,note_off,8,0,0,,11,,,70,127
13313,note_on,49,0,0,,11,,,70,127
13321,note_off,8,0,0,,0,,,72,127
13427,note_off,106,0,0,,11,,,70,127
13427,note_off,0,0,0,,7,,,67,127
13428,note_on,1,0,0,,5,,,65,127
13428,note_on,0,0,0,,11,,,82,127
13580,note_off,152,0,0,,11,,,82,127
13581,note_on,1,0,0,,7,,,79,127
13733,note_off,152,0,0,,7,,,79,127
13734,note_on,1,0,0,,8,,,68,127
13886,note_off,152,0,0,,8,,,68,127
13886,note_off,0,0,0,,5,,,65,127
13887,note_on,1,0,0,,3,,,63,127
13887,note_on,0,0,0,,7,,,67,127
14039,note_off,152,0,0,,7,,,67,127
14040,note_on,1,0,0,,8,,,68,127
14192,note_off,152,0,0,,8,,,68,127
14193,note_on,1,0,0,,11,,,70,127
14345,note_off,152,0,0,,11,,,70,127
14345,note_off,0,0,0,,3,,,63,127
14346,note_on,1,0,0,,11,,,58,127
14346,note_on,0,0,0,,8,,,68,127
14498,note_off,152,0,0,,8,,,68,127
14499,note_on,1,0,0,,7,,,67,127
14651,note_off,152,0,0,,7,,,67,127
14652,note_on,1,0,0,,5,,,65,127
14804,note_off,152,0,0,,5,,,65,127
14804,note_off,0,0,0,,11,,,58,127
14805,note_on,1,0,0,,3,,,51,127
14805,note_on,0,0,0,,8,,,68,127
14881,note_off,76,0,0,,8,,,68,127
14882,note_on,1,0,0,,7,,,67,127
14958,note_off,76,0,0,,7,,,67,127
14959,note_on,1,0,0,,5,,,65,127
15111,note_off,152,0,0,,5,,,65,127
15112,note_on,1,0,0,,3,,,63,127
15264,note_off,152,0,0,,3,,,63,127
15264,note_off,0,0,0,,3,,,51,127
15265,note_on,1,0,0,,7,,,67,127
15265,note_on,0,0,0,,5,,,77,127
15320,note_off,55,0,0,,5,,,77,127
15322,note_on,2,0,0,,3,,,75,127
15377,note_off,55,0,0,,3,,,75,127
15379,note_on,2,0,0,,5,,,77,127
15416,note_off,37,0,0,,7,,,67,127
15417,note_on,1,0,0,,3,,,63,127
15434,note_off,17,0,0,,5,,,77,127
15436,note_on,2,0,0,,3,,,75,127
15569,note_off,133,0,0,,3,,,63,127
15570,note_on,1,0,0,,0,,,60,127
15722,note_off,152,0,0,,0,,,60,127
15722,note_off,0,0,0,,3,,,75,127
15723,note_on,1,0,0,,11,,,58,127
15723,note_on,0,0,0,,5,,,77,127
15778,note_off,55,0,0,,5,,,77,127
15780,note_on,2,0,0,,3,,,75,127
15835,note_off,55,0,0,,3,,,75,127
15837,note_on,2,0,0,,5,,,77,127
15892,note_off,55,0,0,,5,,,77,127
15894,note_on,2,0,0,,3,,,75,127
16181,note_off,287,0,0,,3,,,75,127
16181,note_off,0,0,0,,11,,,58,127
16182,note_on,1,0,0,,7,,,67,127
16182,note_on,0,0,0,,5,,,77,127
16237,note_off,55,0,0,,5,,,77,127
16239,note_on,2,0,0,,3,,,75,127
16294,note_off,55,0,0,,3,,,75,127
16296,note_on,2,0,0,,5,,,77,127
16333,note_off,37,0,0,,7,,,67,127
16334,note_on,1,0,0,,3,,,63,127
16351,note_off,17,0,0,,5,,,77,127
16353,note_on,2,0,0,,3,,,75,127
16486,note_off,133,0,0,,3,,,63,127
16487,note_on,1,0,0,,8,,,56,127
16639,note_off,152,0,0,,8,,,56,127
16639,note_off,0,0,0,,3,,,75,127
16640,note_on,1,0,0,,7,,,55,127
16640,note_on,0,0,0,,5,,,77,127
16695,note_off,55,0,0,,5,,,77,127
16697,note_on,2,0,0,,3,,,75,127
16752,note_off,55,0,0,,3,,,75,127
16754,note_on,2,0,0,,5,,,77,127
16809,note_off,55,0,0,,5,,,77,127
16811,note_on,2,0,0,,3,,,75,127
17098,note_off,287,0,0,,3,,,75,127
17098,note_off,0,0,0,,7,,,55,127
17099,note_on,1,0,0,,7,,,67,127
17099,note_on,0,0,0,,5,,,77,127
17154,note_off,55,0,0,,5,,,77,127
17156,note_on,2,0,0,,3,,,75,127
17211,note_off,55,0,0,,3,,,75,127
17213,note_on,2,0,0,,5,,,77,127
17250,note_off,37,0,0,,7,,,67,127
17251,note_on,1,0,0,,3,,,63,127
17268,note_off,17,0,0,,5,,,77,127
17270,note_on,2,0,0,,3,,,75,127
17403,note_off,133,0,0,,3,,,63,127
17404,note_on,1,0,0,,5,,,53,127
17556,note_off,152,0,0,,5,,,53,127
17557,note_on,1,0,0,,3,,,51,127
17709,note_off,152,0,0,,3,,,75,127
17710,note_on,1,0,0,,5,,,77,127
17862,note_off,152,0,0,,5,,,77,127
17863,note_on,1,0,0,,7,,,79,127
18015,note_off,152,0,0,,7,,,79,127
18015,note_off,0,0,0,,3,,,51,127
18016,note_on,1,0,0,,11,,,46,127
18016,note_on,0,0,0,,5,,,77,127
18168,note_off,152,0,0,,5,,,77,127
18169,note_on,1,0,0,,7,,,79,127
18321,note_off,152,0,0,,7,,,79,127
18322,note_on,1,0,0,,8,,,80,127
18474,note_off,152,0,0,,8,,,80,127
18474,note_off,0,0,0,,11,,,46,127
18475,note_on,1,0,0,,3,,,51,127
18475,note_on,0,0,0,,7,,,79,127
18525,note_off,50,0,0,,7,,,79,127
18525,note_on,0,0,0,,8,,,80,127
18572,note_off,47,0,0,,8,,,80,127
18576,note_on,4,0,0,,7,,,79,127
18629,note_on,53,0,0,,5,,,77,127
18630,note_off,1,0,0,,7,,,79,127
18781,note_off,151,0,0,,5,,,77,127
18782,note_on,1,0,0,,3,,,75,127
18934,note_off,152,0,0,,3,,,75,127
18935,note_on,1,0,0,,7,,,79,127
19087,note_off,152,0,0,,7,,,79,127
19088,note_on,1,0,0,,10,,,81,127
19240,note_off,152,0,0,,10,,,81,127
19241,note_on,1,0,0,,11,,,82,127
19393,note_off,152,0,0,,11,,,82,127
19393,note_off,0,0,0,,3,,,51,127
19394,note_on,1,0,0,,5,,,53,127
19394,note_on,0,0,0,,10,,,81,127
19546,note_off,152,0,0,,10,,,81,127
19547,note_on,1,0,0,,7,,,79,127
19699,note_off,152,0,0,,7,,,79,127
19700,note_on,1,0,0,,5,,,77,127
19852,note_off,152,0,0,,5,,,77,127
19853,note_on,1,0,0,,5,,,65,127
19853,note_on,0,0,0,,3,,,75,127
20005,note_off,152,0,0,,3,,,75,127
20006,note_on,1,0,0,,2,,,74,127
20158,note_off,152,0,0,,2,,,74,127
20159,note_on,1,0,0,,0,,,72,127
20311,note_off,152,0,0,,0,,,72,127
20311,note_off,0,0,0,,5,,,65,127
20311,note_off,0,0,0,,5,,,53,127
20312,note_on,1,0,0,,11,,,58,127
20312,note_on,0,0,0,,2,,,74,127
20464,note_off,152,0,0,,2,,,74,127
20465,note_on,1,0,0,,3,,,75,127
20617,note_off,152,0,0,,3,,,75,127
20618,note_on,1,0,0,,5,,,77,127
20770,note_off,152,0,0,,5,,,77,127
20770,note_off,0,0,0,,11,,,58,127
20771,note_on,1,0,0,,0,,,72,127
20771,note_on,0,0,0,,3,,,75,127
20821,note_on,50,0,0,,11,,,70,127
20821,note_on,0,0,0,,2,,,74,127
20826,note_off,5,0,0,,3,,,75,127
20826,note_off,0,0,0,,0,,,72,127
20872,note_on,46,0,0,,3,,,75,127
20872,note_on,0,0,0,,0,,,72,127
20877,note_off,5,0,0,,2,,,74,127
20877,note_off,0,0,0,,11,,,70,127
20923,note_on,46,0,0,,2,,,74,127
20923,note_on,0,0,0,,11,,,70,127
20928,note_off,5,0,0,,0,,,72,127
20928,note_off,0,0,0,,3,,,75,127
20974,note_on,46,0,0,,10,,,69,127
20974,note_on,0,0,0,,0,,,72,127
20979,note_off,5,0,0,,11,,,70,127
20979,note_off,0,0,0,,2,,,74,127
21104,note_off,125,0,0,,0,,,72,127
21104,note_off,0,0,0,,10,,,69,127
21104,note_on,0,0,0,,7,,,67,127
21104,note_on,0,0,0,,11,,,70,127
21234,note_off,130,0,0,,11,,,70,127
21234,note_off,0,0,0,,7,,,67,127
21234,note_on,0,0,0,,5,,,65,127
21234,note_on,0,0,0,,10,,,69,127
21284,note_on,50,0,0,,11,,,70,127
21284,note_on,0,0,0,,7,,,67,127
21289,note_off,5,0,0,,10,,,69,127
21289,note_off,0,0,0,,5,,,65,127
21335,note_on,46,0,0,,5,,,65,127
21335,note_on,0,0,0,,10,,,69,127
21340,note_off,5,0,0,,7,,,67,127
21340,note_off,0,0,0,,11,,,70,127
21388,note_on,48,0,0,,3,,,63,127
21388,note_on,0,0,0,,7,,,67,127
21390,note_off,2,0,0,,10,,,69,127
21390,note_off,0,0,0,,5,,,65,127
21540,note_off,150,0,0,,7,,,67,127
21540,note_off,0,0,0,,3,,,63,127
21541,note_on,1,0,0,,2,,,62,127
21541,note_on,0,0,0,,5,,,65,127
21693,note_off,152,0,0,,5,,,65,127
21693,note_off,0,0,0,,2,,,62,127
21694,note_on,1,0,0,,0,,,60,127
21694,note_on,0,0,0,,3,,,63,127
21744,note_on,50,0,0,,5,,,65,127
21744,note_on,0,0,0,,2,,,62,127
21749,note_off,5,0,0,,3,,,63,127
21749,note_off,0,0,0,,0,,,60,127
21795,note_on,46,0,0,,0,,,60,127
21795,note_on,0,0,0,,3,,,63,127
21800,note_off,5,0,0,,2,,,62,127
21800,note_off,0,0,0,,5,,,65,127
21848,note_on,48,0,0,,11,,,58,127
21848,note_on,0,0,0,,2,,,62,127
21850,note_off,2,0,0,,3,,,63,127
21850,note_off,0,0,0,,0,,,60,127
22000,note_off,150,0,0,,2,,,62,127
22000,note_off,0,0,0,,11,,,58,127
22001,note_on,1,0,0,,10,,,57,127
22001,note_on,0,0,0,,0,,,60,127
22153,note_off,152,0,0,,0,,,60,127
22153,note_off,0,0,0,,10,,,57,127
22154,note_on,1,0,0,,11,,,58,127
22154,note_on,0,0,0,,2,,,62,127
22306,note_off,152,0,0,,2,,,62,127
22307,note_on,1,0,0,,3,,,63,127
22459,note_off,152,0,0,,3,,,63,127
22460,note_on,1,0,0,,5,,,65,127
22612,note_off,152,0,0,,5,,,65,127
22613,note_on,1,0,0,,2,,,74,127
23073,note_off,460,0,0,,11,,,58,127
23074,note_on,1,0,0,,5,,,53,127
23074,note_on,0,0,0,,8,,,68,127
23534,note_off,460,0,0,,2,,,74,127
23535,note_on,1,0,0,,5,,,65,127
23535,note_on,0,0,0,,0,,,72,127
23585,note_on,50,0,0,,2,,,74,127
23590,note_off,5,0,0,,0,,,72,127
23636,note_on,46,0,0,,0,,,72,127
23641,note_off,5,0,0,,2,,,74,127
23689,note_on,48,0,0,,12,,,71,127
23691,note_off,2,0,0,,0,,,72,127
23841,note_off,150,0,0,,12,,,71,127
23842,note_on,1,0,0,,0,,,72,127
23994,note_off,152,0,0,,0,,,72,127
23994,note_off,0,0,0,,8,,,68,127
23994,note_off,0,0,0,,5,,,53,127
23995,note_on,1,0,0,,7,,,55,127
23995,note_on,0,0,0,,7,,,67,127
23995,note_on,0,0,0,,12,,,71,127
24045,note_on,50,0,0,,0,,,72,127
24050,note_off,5,0,0,,12,,,71,127
24096,note_on,46,0,0,,12,,,71,127
24101,note_off,5,0,0,,0,,,72,127
24149,note_on,48,0,0,,10,,,69,127
24151,note_off,2,0,0,,12,,,71,127
24301,note_off,150,0,0,,10,,,69,127
24302,note_on,1,0,0,,12,,,71,127
24454,note_off,152,0,0,,12,,,71,127
24454,note_off,0,0,0,,5,,,65,127
24455,note_on,1,0,0,,3,,,63,127
24455,note_on,0,0,0,,2,,,74,127
24505,note_on,50,0,0,,0,,,72,127
24510,note_off,5,0,0,,2,,,74,127
24556,note_on,46,0,0,,2,,,74,127
24561,note_off,5,0,0,,0,,,72,127
24607,note_on,46,0,0,,0,,,72,127
24612,note_off,5,0,0,,2,,,74,127
24658,note_on,46,0,0,,12,,,71,127
24663,note_off,5,0,0,,0,,,72,127
24788,note_off,125,0,0,,12,,,71,127
24788,note_on,0,0,0,,0,,,72,127
24916,note_off,128,0,0,,3,,,63,127
24916,note_off,0,0,0,,7,,,67,127
24916,note_off,0,0,0,,7,,,55,127
24917,note_off,1,0,0,,0,,,72,127
24917,note_on,0,0,0,,2,,,62,127
24917,note_on,0,0,0,,7,,,55,127
24917,note_on,0,0,0,,7,,,67,127
24917,note_on,0,0,0,,3,,,75,127
24967,note_on,50,0,0,,2,,,74,127
24972,note_off,5,0,0,,3,,,75,127
25018,note_on,46,0,0,,3,,,75,127
25023,note_off,5,0,0,,2,,,74,127
25069,note_on,46,0,0,,2,,,74,127
25074,note_off,5,0,0,,3,,,75,127
25120,note_on,46,0,0,,0,,,72,127
25125,note_off,5,0,0,,2,,,74,127
25250,note_off,125,0,0,,0,,,72,127
25250,note_on,0,0,0,,2,,,74,127
25378,note_off,128,0,0,,2,,,62,127
25379,note_off,1,0,0,,2,,,74,127
25379,note_on,0,0,0,,0,,,60,127
25379,note_on,0,0,0,,5,,,77,127
25429,note_on,50,0,0,,3,,,75,127
25434,note_off,5,0,0,,5,,,77,127
25480,note_on,46,0,0,,5,,,77,127
25485,note_off,5,0,0,,3,,,75,127
25531,note_on,46,0,0,,3,,,75,127
25536,note_off,5,0,0,,5,,,77,127
25582,note_on,46,0,0,,2,,,74,127
25587,note_off,5,0,0,,3,,,75,127
25712,note_off,125,0,0,,2,,,74,127
25712,note_on,0,0,0,,3,,,75,127
25840,note_off,128,0,0,,0,,,60,127
25840,note_off,0,0,0,,7,,,67,127
25840,note_off,0,0,0,,7,,,55,127
25841,note_off,1,0,0,,3,,,75,127
25841,note_on,0,0,0,,12,,,59,127
25841,note_on,0,0,0,,7,,,55,127
25841,note_on,0,0,0,,2,,,74,127
25841,note_on,0,0,0,,7,,,67,127
26301,note_off,460,0,0,,7,,,67,127
26301,note_off,0,0,0,,2,,,74,127
26302,note_on,1,0,0,,2,,,74,127
26762,note_off,460,0,0,,7,,,55,127
26762,note_off,0,0,0,,12,,,59,127
26763,note_on,1,0,0,,5,,,53,127
26763,note_on,0,0,0,,8,,,68,127
27223,note_off,460,0,0,,2,,,74,127
27224,note_on,1,0,0,,5,,,65,127
27224,note_on,0,0,0,,0,,,72,127
27274,note_on,50,0,0,,2,,,74,127
27279,note_off,5,0,0,,0,,,72,127
27325,note_on,46,0,0,,0,,,72,127
27330,note_off,5,0,0,,2,,,74,127
27378,note_on,48,0,0,,12,,,71,127
27380,note_off,2,0,0,,0,,,72,127
27530,note_off,150,0,0,,12,,,71,127
27531,note_on,1,0,0,,0,,,72,127
27683,note_off,152,0,0,,0,,,72,127
27683,note_off,0,0,0,,8,,,68,127
27683,note_off,0,0,0,,5,,,53,127
27684,note_on,1,0,0,,12,,,71,127
27684,note_on,0,0,0,,7,,,55,127
27684,note_on,0,0,0,,7,,,67,127
27734,note_on,50,0,0,,0,,,72,127
27739,note_off,5,0,0,,12,,,71,127
27785,note_on,46,0,0,,12,,,71,127
27790,note_off,5,0,0,,0,,,72,127
27838,note_on,48,0,0,,10,,,69,127
27840,note_off,2,0,0,,12,,,71,127
27990,note_off,150,0,0,,10,,,69,127
27991,note_on,1,0,0,,12,,,71,127
28143,note_off,152,0,0,,12,,,71,127
28143,note_off,0,0,0,,5,,,65,127
28144,note_on,1,0,0,,3,,,63,127
28144,note_on,0,0,0,,2,,,74,127
28194,note_on,50,0,0,,0,,,72,127
28199,note_off,5,0,0,,2,,,74,127
28245,note_on,46,0,0,,2,,,74,127
28250,note_off,5,0,0,,0,,,72,127
28296,note_on,46,0,0,,0,,,72,127
28301,note_off,5,0,0,,2,,,74,127
28347,note_on,46,0,0,,12,,,71,127
28352,note_off,5,0,0,,0,,,72,127
28477,note_off,125,0,0,,12,,,71,127
28477,note_on,0,0,0,,0,,,72,127
28605,note_off,128,0,0,,3,,,63,127
28605,note_off,0,0,0,,7,,,67,127
28605,note_off,0,0,0,,7,,,55,127
28606,note_off,1,0,0,,0,,,72,127
28606,note_on,0,0,0,,7,,,55,127
28606,note_on,0,0,0,,2,,,62,127
28606,note_on,0,0,0,,3,,,75,127
28606,note_on,0,0,0,,7,,,67,127
28656,note_on,50,0,0,,2,,,74,127
28661,note_off,5,0,0,,3,,,75,127
28707,note_on,46,0,0,,3,,,75,127
28712,note_off,5,0,0,,2,,,74,127
28758,note_on,46,0,0,,2,,,74,127
28763,note_off,5,0,0,,3,,,75,127
28809,note_on,46,0,0,,0,,,72,127
28814,note_off,5,0,0,,2,,,74,127
28939,note_off,125,0,0,,0,,,72,127
28939,note_on,0,0,0,,2,,,74,127
29067,note_off,128,0,0,,2,,,62,127
29068,note_off,1,0,0,,2,,,74,127
29068,note_on,0,0,0,,0,,,60,127
29068,note_on,0,0,0,,0,,,72,127
29068,note_on,0,0,0,,5,,,77,127
29118,note_on,50,0,0,,3,,,75,127
29123,note_off,5,0,0,,5,,,77,127
29123,note_off,0,0,0,,0,,,72,127
29169,note_on,46,0,0,,5,,,77,127
29174,note_off,5,0,0,,3,,,75,127
29220,note_on,46,0,0,,3,,,75,127
29225,note_off,5,0,0,,5,,,77,127
29271,note_on,46,0,0,,2,,,74,127
29276,note_off,5,0,0,,3,,,75,127
29401,note_off,125,0,0,,2,,,74,127
29401,note_on,0,0,0,,3,,,75,127
29529,note_off,128,0,0,,0,,,60,127
29529,note_off,0,0,0,,7,,,67,127
29529,note_off,0,0,0,,7,,,55,127
29530,note_off,1,0,0,,3,,,75,127
29530,note_on,0,0,0,,6,,,54,127
29530,note_on,0,0,0,,2,,,74,127
29530,note_on,0,0,0,,0,,,72,127
29682,note_off,152,0,0,,0,,,72,127
29683,note_on,1,0,0,,11,,,70,127
29835,note_off,152,0,0,,11,,,70,127
29836,note_on,1,0,0,,10,,,69,127
29988,note_off,152,0,0,,10,,,69,127
29988,note_off,0,0,0,,6,,,54,127
29989,note_on,1,0,0,,7,,,55,127
29989,note_on,0,0,0,,0,,,72,127
30039,note_on,50,0,0,,11,,,70,127
30044,note_off,5,0,0,,0,,,72,127
30090,note_on,46,0,0,,0,,,72,127
30095,note_off,5,0,0,,11,,,70,127
30141,note_on,46,0,0,,11,,,70,127
30146,note_off,5,0,0,,0,,,72,127
30192,note_on,46,0,0,,10,,,69,127
30197,note_off,5,0,0,,11,,,70,127
30322,note_off,125,0,0,,10,,,69,127
30322,note_on,0,0,0,,11,,,70,127
30450,note_off,128,0,0,,7,,,55,127
30450,note_off,0,0,0,,2,,,74,127
30451,note_off,1,0,0,,11,,,70,127
30451,note_on,0,0,0,,6,,,54,127
30451,note_on,0,0,0,,0,,,72,127
30451,note_on,0,0,0,,2,,,74,127
30603,note_off,152,0,0,,0,,,72,127
30604,note_on,1,0,0,,11,,,70,127
30756,note_off,152,0,0,,11,,,70,127
30757,note_on,1,0,0,,10,,,69,127
30909,note_off,152,0,0,,10,,,69,127
30909,note_off,0,0,0,,6,,,54,127
30910,note_on,1,0,0,,7,,,55,127
30910,note_on,0,0,0,,0,,,72,127
30960,note_on,50,0,0,,11,,,70,127
30965,note_off,5,0,0,,0,,,72,127
31011,note_on,46,0,0,,0,,,72,127
31016,note_off,5,0,0,,11,,,70,127
31062,note_on,46,0,0,,11,,,70,127
31067,note_off,5,0,0,,0,,,72,127
31113,note_on,46,0,0,,10,,,69,127
31118,note_off,5,0,0,,11,,,70,127
31243,note_off,125,0,0,,10,,,69,127
31243,note_on,0,0,0,,11,,,70,127
31371,note_off,128,0,0,,7,,,55,127
31371,note_off,0,0,0,,2,,,74,127
31372,note_off,1,0,0,,11,,,70,127
31372,note_on,0,0,0,,4,,,52,127
31372,note_on,0,0,0,,11,,,70,127
31372,note_on,0,0,0,,0,,,72,127
31524,note_off,152,0,0,,11,,,70,127
31525,note_on,1,0,0,,10,,,69,127
31677,note_off,152,0,0,,10,,,69,127
31678,note_on,1,0,0,,7,,,67,127
31830,note_off,152,0,0,,7,,,67,127
31830,note_off,0,0,0,,4,,,52,127
31831,note_on,1,0,0,,5,,,53,127
31831,note_on,0,0,0,,11,,,70,127
31881,note_on,50,0,0,,10,,,69,127
31886,note_off,5,0,0,,11,,,70,127
31932,note_on,46,0,0,,11,,,70,127
31937,note_off,5,0,0,,10,,,69,127
31983,note_on,46,0,0,,10,,,69,127
31988,note_off,5,0,0,,11,,,70,127
32034,note_on,46,0,0,,7,,,67,127
32039,note_off,5,0,0,,10,,,69,127
32164,note_off,125,0,0,,7,,,67,127
32164,note_on,0,0,0,,10,,,69,127
32292,note_off,128,0,0,,5,,,53,127
32292,note_off,0,0,0,,0,,,72,127
32293,note_off,1,0,0,,10,,,69,127
32293,note_on,0,0,0,,4,,,52,127
32293,note_on,0,0,0,,11,,,70,127
32293,note_on,0,0,0,,0,,,72,127
32445,note_off,152,0,0,,11,,,70,127
32446,note_on,1,0,0,,10,,,69,127
32598,note_off,152,0,0,,10,,,69,127
32599,note_on,1,0,0,,7,,,67,127
32751,note_off,152,0,0,,7,,,67,127
32751,note_off,0,0,0,,4,,,52,127
32752,note_on,1,0,0,,5,,,53,127
32752,note_on,0,0,0,,10,,,69,127
32904,note_off,152,0,0,,0,,,72,127
32905,note_on,1,0,0,,0,,,72,127
33057,note_off,152,0,0,,0,,,72,127
33058,note_on,1,0,0,,2,,,74,127
33210,note_off,152,0,0,,2,,,74,127
33210,note_off,0,0,0,,10,,,69,127
33210,note_off,0,0,0,,5,,,53,127
33211,note_on,1,0,0,,5,,,53,127
33211,note_on,0,0,0,,10,,,45,127
33211,note_on,0,0,0,,5,,,65,127
33211,note_on,0,0,0,,3,,,75,127
33363,note_off,152,0,0,,3,,,75,127
33364,note_on,1,0,0,,2,,,74,127
33516,note_off,152,0,0,,2,,,74,127
33517,note_on,1,0,0,,3,,,75,127
33669,note_off,152,0,0,,3,,,75,127
33669,note_off,0,0,0,,5,,,65,127
33669,note_off,0,0,0,,10,,,45,127
33670,note_on,1,0,0,,2,,,74,127
33670,note_on,0,0,0,,11,,,46,127
33720,note_on,50,0,0,,3,,,75,127
33725,note_off,5,0,0,,2,,,74,127
33771,note_on,46,0,0,,2,,,74,127
33776,note_off,5,0,0,,3,,,75,127
33824,note_on,48,0,0,,0,,,72,127
33826,note_off,2,0,0,,2,,,74,127
33976,note_off,150,0,0,,0,,,72,127
33977,note_on,1,0,0,,2,,,74,127
34129,note_off,152,0,0,,2,,,74,127
34129,note_off,0,0,0,,11,,,46,127
34129,note_off,0,0,0,,5,,,53,127
34130,note_on,1,0,0,,5,,,53,127
34130,note_on,0,0,0,,10,,,45,127
34130,note_on,0,0,0,,5,,,65,127
34130,note_on,0,0,0,,3,,,75,127
34282,note_off,152,0,0,,3,,,75,127
34283,note_on,1,0,0,,2,,,74,127
34435,note_off,152,0,0,,2,,,74,127
34436,note_on,1,0,0,,3,,,75,127
34588,note_off,152,0,0,,3,,,75,127
34588,note_off,0,0,0,,10,,,45,127
34589,note_on,1,0,0,,11,,,46,127
34589,note_on,0,0,0,,2,,,74,127
34741,note_off,152,0,0,,2,,,74,127
34741,note_off,0,0,0,,5,,,65,127
34742,note_on,1,0,0,,3,,,75,127
34894,note_off,152,0,0,,3,,,75,127
34895,note_on,1,0,0,,5,,,77,127
35047,note_off,152,0,0,,5,,,77,127
35047,note_off,0,0,0,,11,,,46,127
35047,note_off,0,0,0,,5,,,53,127
35048,note_on,1,0,0,,3,,,51,127
35048,note_on,0,0,0,,7,,,79,127
35200,note_off,152,0,0,,7,,,79,127
35201,note_on,1,0,0,,5,,,77,127
35353,note_off,152,0,0,,5,,,77,127
35354,note_on,1,0,0,,3,,,75,127
35506,note_off,152,0,0,,3,,,75,127
35506,note_off,0,0,0,,3,,,51,127
35507,note_on,1,0,0,,2,,,74,127
35507,note_on,0,0,0,,7,,,55,127
35557,note_on,50,0,0,,3,,,75,127
35562,note_off,5,0,0,,2,,,74,127
35608,note_on,46,0,0,,2,,,74,127
35613,note_off,5,0,0,,3,,,75,127
35661,note_on,48,0,0,,0,,,72,127
35663,note_off,2,0,0,,2,,,74,127
35813,note_off,150,0,0,,0,,,72,127
35814,note_on,1,0,0,,11,,,70,127
35966,note_off,152,0,0,,11,,,70,127
35966,note_off,0,0,0,,7,,,55,127
35967,note_on,1,0,0,,5,,,53,127
35967,note_on,0,0,0,,10,,,69,127
36411,note_off,444,0,0,,10,,,69,127
36427,note_off,16,0,0,,5,,,53,127
36428,note_on,1,0,0,,11,,,46,127
36428,note_on,0,0,0,,0,,,72,127
36486,note_on,58,0,0,,11,,,70,127
36494,note_off,8,0,0,,0,,,72,127
36543,note_on,49,0,0,,0,,,72,127
36551,note_off,8,0,0,,11,,,70,127
36600,note_on,49,0,0,,11,,,70,127
36608,note_off,8,0,0,,0,,,72,127
36657,note_on,49,0,0,,0,,,72,127
36665,note_off,8,0,0,,11,,,70,127
36714,note_on,49,0,0,,11,,,70,127
36722,note_off,8,0,0,,0,,,72,127
36771,note_on,49,0,0,,10,,,69,127
36779,note_off,8,0,0,,11,,,70,127
36828,note_on,49,0,0,,11,,,70,127
36836,note_off,8,0,0,,10,,,69,127
36884,note_off,48,0,0,,11,,,46,127
36885,note_on,1,0,0,,5,,,41,127
36885,note_on,0,0,0,,0,,,72,127
36893,note_off,8,0,0,,11,,,70,127
37038,note_on,145,0,0,,10,,,69,127
37190,note_off,152,0,0,,10,,,69,127
37191,note_off,1,0,0,,0,,,72,127
37191,note_on,0,0,0,,11,,,70,127
37343,note_off,152,0,0,,11,,,70,127
37343,note_off,0,0,0,,5,,,41,127
37344,note_on,1,0,0,,3,,,63,127
37344,note_on,0,0,0,,10,,,69,127
37344,note_on,0,0,0,,0,,,72,127
37496,note_off,152,0,0,,3,,,63,127
37497,note_on,1,0,0,,0,,,60,127
37649,note_off,152,0,0,,0,,,60,127
37650,note_on,1,0,0,,5,,,53,127
37802,note_off,152,0,0,,5,,,53,127
37803,note_on,1,0,0,,5,,,41,127
37955,note_off,152,0,0,,0,,,72,127
37955,note_off,0,0,0,,10,,,69,127
37956,note_on,1,0,0,,10,,,69,127
38108,note_off,152,0,0,,10,,,69,127
38109,note_on,1,0,0,,11,,,70,127
38261,note_off,152,0,0,,11,,,70,127
38261,note_off,0,0,0,,5,,,41,127
38262,note_on,1,0,0,,3,,,63,127
38262,note_on,0,0,0,,0,,,72,127
38262,note_on,0,0,0,,10,,,69,127
38414,note_off,152,0,0,,3,,,63,127
38415,note_on,1,0,0,,0,,,60,127
38567,note_off,152,0,0,,0,,,60,127
38568,note_on,1,0,0,,5,,,53,127
38720,note_off,152,0,0,,5,,,53,127
38721,note_on,1,0,0,,5,,,41,127
38873,note_off,152,0,0,,10,,,69,127
38873,note_off,0,0,0,,0,,,72,127
38874,note_on,1,0,0,,2,,,74,127
38874,note_on,0,0,0,,11,,,70,127
39026,note_off,152,0,0,,11,,,70,127
39026,note_off,0,0,0,,2,,,74,127
39027,note_on,1,0,0,,3,,,75,127
39027,note_on,0,0,0,,0,,,72,127
39179,note_off,152,0,0,,0,,,72,127
39179,note_off,0,0,0,,3,,,75,127
39179,note_off,0,0,0,,5,,,41,127
39180,note_on,1,0,0,,5,,,65,127
39180,note_on,0,0,0,,2,,,74,127
39180,note_on,0,0,0,,5,,,77,127
39332,note_off,152,0,0,,5,,,65,127
39333,note_on,1,0,0,,2,,,62,127
39485,note_off,152,0,0,,2,,,62,127
39486,note_on,1,0,0,,11,,,58,127
39638,note_off,152,0,0,,11,,,58,127
39639,note_on,1,0,0,,5,,,41,127
39791,note_off,152,0,0,,5,,,77,127
39791,note_off,0,0,0,,2,,,74,127
39792,note_on,1,0,0,,11,,,70,127
39792,note_on,0,0,0,,2,,,74,127
39944,note_off,152,0,0,,2,,,74,127
39944,note_off,0,0,0,,11,,,70,127
39945,note_on,1,0,0,,3,,,75,127
39945,note_on,0,0,0,,0,,,72,127
40097,note_off,152,0,0,,0,,,72,127
40097,note_off,0,0,0,,3,,,75,127
40097,note_off,0,0,0,,5,,,41,127
40098,note_on,1,0,0,,5,,,65,127
40098,note_on,0,0,0,,5,,,77,127
40098,note_on,0,0,0,,2,,,74,127
40250,note_off,152,0,0,,5,,,65,127
40251,note_on,1,0,0,,2,,,62,127
40403,note_off,152,0,0,,2,,,62,127
40404,note_on,1,0,0,,11,,,58,127
40556,note_off,152,0,0,,11,,,58,127
40557,note_on,1,0,0,,5,,,41,127
40709,note_off,152,0,0,,2,,,74,127
40709,note_off,0,0,0,,5,,,77,127
40710,note_on,1,0,0,,10,,,81,127
40862,note_off,152,0,0,,10,,,81,127
40863,note_on,1,0,0,,11,,,82,127
41015,note_off,152,0,0,,11,,,82,127
41015,note_off,0,0,0,,5,,,41,127
41016,note_on,1,0,0,,10,,,69,127
41016,note_on,0,0,0,,0,,,84,127
41016,note_on,0,0,0,,0,,,72,127
41168,note_off,152,0,0,,10,,,69,127
41169,note_on,1,0,0,,3,,,63,127
41321,note_off,152,0,0,,3,,,63,127
41322,note_on,1,0,0,,0,,,60,127
41474,note_off,152,0,0,,0,,,60,127
41474,note_off,0,0,0,,0,,,72,127
41475,note_on,1,0,0,,5,,,41,127
41475,note_on,0,0,0,,0,,,72,127
41627,note_off,152,0,0,,0,,,84,127
41628,note_on,1,0,0,,10,,,81,127
41780,note_off,152,0,0,,10,,,81,127
41781,note_on,1,0,0,,11,,,82,127
41933,note_off,152,0,0,,11,,,82,127
41933,note_off,0,0,0,,5,,,41,127
41934,note_on,1,0,0,,10,,,69,127
41934,note_on,0,0,0,,0,,,84,127
42086,note_off,152,0,0,,10,,,69,127
42087,note_on,1,0,0,,3,,,63,127
42239,note_off,152,0,0,,3,,,63,127
42240,note_on,1,0,0,,0,,,60,127
42392,note_off,152,0,0,,0,,,60,127
42392,note_off,0,0,0,,0,,,72,127
42393,note_on,1,0,0,,5,,,41,127
42393,note_on,0,0,0,,0,,,72,127
42545,note_off,152,0,0,,0,,,84,127
42546,note_on,1,0,0,,11,,,82,127
42698,note_off,152,0,0,,11,,,82,127
42699,note_on,1,0,0,,10,,,81,127
42851,note_off,152,0,0,,10,,,81,127
42851,note_off,0,0,0,,5,,,41,127
42852,note_on,1,0,0,,10,,,45,127
42852,note_on,0,0,0,,7,,,79,127
43004,note_off,152,0,0,,7,,,79,127
43005,note_on,1,0,0,,5,,,77,127
43157,note_off,152,0,0,,5,,,77,127
43158,note_on,1,0,0,,3,,,75,127
43310,note_off,152,0,0,,3,,,75,127
43310,note_off,0,0,0,,10,,,45,127
43310,note_off,0,0,0,,0,,,72,127
43311,note_on,1,0,0,,11,,,46,127
43311,note_on,0,0,0,,2,,,74,127
43465,note_on,154,0,0,,11,,,82,127
43617,note_off,152,0,0,,11,,,82,127
43617,note_off,0,0,0,,2,,,74,127
43618,note_on,1,0,0,,10,,,81,127
43770,note_off,152,0,0,,10,,,81,127
43770,note_off,0,0,0,,11,,,46,127
43771,note_on,1,0,0,,3,,,51,127
43771,note_on,0,0,0,,7,,,79,127
43923,note_off,152,0,0,,7,,,79,127
43924,note_on,1,0,0,,5,,,77,127
44076,note_off,152,0,0,,5,,,77,127
44077,note_on,1,0,0,,3,,,75,127
44229,note_off,152,0,0,,3,,,75,127
44229,note_off,0,0,0,,3,,,51,127
44230,note_on,1,0,0,,5,,,53,127
44230,note_on,0,0,0,,2,,,74,127
44382,note_off,152,0,0,,2,,,74,127
44383,note_on,1,0,0,,0,,,72,127
44535,note_off,152,0,0,,0,,,72,127
44536,note_on,1,0,0,,2,,,74,127
44688,note_off,152,0,0,,2,,,74,127
44689,note_on,1,0,0,,5,,,41,127
44689,note_on,0,0,0,,3,,,75,127
44841,note_off,152,0,0,,3,,,75,127
44842,note_on,1,0,0,,2,,,74,127
44994,note_off,152,0,0,,2,,,74,127
44995,note_on,1,0,0,,0,,,72,127
45147,note_off,152,0,0,,0,,,72,127
45147,note_off,0,0,0,,5,,,41,127
45147,note_off,0,0,0,,5,,,53,127
45148,note_on,1,0,0,,11,,,70,127
45148,note_on,0,0,0,,11,,,46,127
45198,note_on,50,0,0,,0,,,72,127
45203,note_off,5,0,0,,11,,,70,127
45249,note_on,46,0,0,,11,,,70,127
45254,note_off,5,0,0,,0,,,72,127
45302,note_on,48,0,0,,10,,,69,127
45304,note_off,2,0,0,,11,,,70,127
45454,note_off,150,0,0,,10,,,69,127
45455,note_on,1,0,0,,11,,,70,127
45607,note_off,152,0,0,,11,,,70,127
45607,note_off,0,0,0,,11,,,46,127
45608,note_on,1,0,0,,3,,,63,127
45608,note_on,0,0,0,,0,,,72,127
45608,note_on,0,0,0,,10,,,69,127
45760,note_off,152,0,0,,3,,,63,127
45761,note_on,1,0,0,,0,,,60,127
45913,note_off,152,0,0,,0,,,60,127
45914,note_on,1,0,0,,5,,,53,127
46066,note_off,152,0,0,,5,,,53,127
46067,note_on,1,0,0,,5,,,41,127
46123,note_off,56,0,0,,10,,,69,127
46123,note_off,0,0,0,,0,,,72,127
46124,note_on,1,0,0,,11,,,70,127
46182,note_on,58,0,0,,10,,,69,127
46190,note_off,8,0,0,,11,,,70,127
46239,note_on,49,0,0,,7,,,67,127
46247,note_off,8,0,0,,10,,,69,127
46296,note_on,49,0,0,,10,,,69,127
46304,note_off,8,0,0,,7,,,67,127
46353,note_on,49,0,0,,11,,,70,127
46361,note_off,8,0,0,,10,,,69,127
46410,note_on,49,0,0,,0,,,72,127
46418,note_off,8,0,0,,11,,,70,127
46467,note_on,49,0,0,,2,,,74,127
46475,note_off,8,0,0,,0,,,72,127
46523,note_off,48,0,0,,5,,,41,127
46524,note_on,1,0,0,,3,,,63,127
46524,note_on,0,0,0,,0,,,72,127
46524,note_on,0,0,0,,10,,,69,127
46532,note_off,8,0,0,,2,,,74,127
46676,note_off,144,0,0,,3,,,63,127
46677,note_on,1,0,0,,0,,,60,127
46829,note_off,152,0,0,,0,,,60,127
46830,note_on,1,0,0,,5,,,53,127
46982,note_off,152,0,0,,5,,,53,127
46982,note_off,0,0,0,,10,,,69,127
46982,note_off,0,0,0,,0,,,72,127
46983,note_on,1,0,0,,5,,,41,127
46983,note_on,0,0,0,,2,,,74,127
47041,note_on,58,0,0,,0,,,72,127
47049,note_off,8,0,0,,2,,,74,127
47098,note_on,49,0,0,,11,,,70,127
47106,note_off,8,0,0,,0,,,72,127
47155,note_on,49,0,0,,10,,,69,127
47163,note_off,8,0,0,,11,,,70,127
47212,note_on,49,0,0,,11,,,70,127
47220,note_off,8,0,0,,10,,,69,127
47269,note_on,49,0,0,,0,,,72,127
47277,note_off,8,0,0,,11,,,70,127
47326,note_on,49,0,0,,2,,,74,127
47334,note_off,8,0,0,,0,,,72,127
47383,note_on,49,0,0,,3,,,75,127
47391,note_off,8,0,0,,2,,,74,127
47439,note_off,48,0,0,,5,,,41,127
47440,note_on,1,0,0,,5,,,65,127
47440,note_on,0,0,0,,11,,,70,127
47440,note_on,0,0,0,,2,,,74,127
47448,note_off,8,0,0,,3,,,75,127
47592,note_off,144,0,0,,5,,,65,127
47593,note_on,1,0,0,,2,,,62,127
47745,note_off,152,0,0,,2,,,62,127
47746,note_on,1,0,0,,11,,,58,127
47898,note_off,152,0,0,,11,,,58,127
47899,note_on,1,0,0,,5,,,41,127
47955,note_off,56,0,0,,2,,,74,127
47955,note_off,0,0,0,,11,,,70,127
47956,note_on,1,0,0,,0,,,72,127
48014,note_on,58,0,0,,11,,,70,127
48022,note_off,8,0,0,,0,,,72,127
48071,note_on,49,0,0,,10,,,69,127
48079,note_off,8,0,0,,11,,,70,127
48128,note_on,49,0,0,,11,,,70,127
48136,note_off,8,0,0,,10,,,69,127
48185,note_on,49,0,0,,0,,,72,127
48193,note_off,8,0,0,,11,,,70,127
48242,note_on,49,0,0,,2,,,74,127
48250,note_off,8,0,0,,0,,,72,127
48299,note_on,49,0,0,,3,,,75,127
48307,note_off,8,0,0,,2,,,74,127
48355,note_off,48,0,0,,5,,,41,127
48356,note_on,1,0,0,,5,,,65,127
48356,note_on,0,0,0,,2,,,74,127
48356,note_on,0,0,0,,11,,,70,127
48364,note_off,8,0,0,,3,,,75,127
48508,note_off,144,0,0,,5,,,65,127
48509,note_on,1,0,0,,2,,,62,127
48661,note_off,152,0,0,,2,,,62,127
48662,note_on,1,0,0,,11,,,58,127
48814,note_off,152,0,0,,11,,,58,127
48814,note_off,0,0,0,,11,,,70,127
48814,note_off,0,0,0,,2,,,74,127
48815,note_on,1,0,0,,5,,,41,127
48815,note_on,0,0,0,,3,,,75,127
48873,note_on,58,0,0,,2,,,74,127
48881,note_off,8,0,0,,3,,,75,127
48930,note_on,49,0,0,,0,,,72,127
48938,note_off,8,0,0,,2,,,74,127
48987,note_on,49,0,0,,11,,,70,127
48995,note_off,8,0,0,,0,,,72,127
49044,note_on,49,0,0,,0,,,72,127
49052,note_off,8,0,0,,11,,,70,127
49101,note_on,49,0,0,,2,,,74,127
49109,note_off,8,0,0,,0,,,72,127
49158,note_on,49,0,0,,3,,,75,127
49166,note_off,8,0,0,,2,,,74,127
49215,note_on,49,0,0,,5,,,77,127
49223,note_off,8,0,0,,3,,,75,127
49271,note_off,48,0,0,,5,,,41,127
49272,note_on,1,0,0,,10,,,69,127
49272,note_on,0,0,0,,3,,,75,127
49272,note_on,0,0,0,,0,,,72,127
49280,note_off,8,0,0,,5,,,77,127
49424,note_off,144,0,0,,10,,,69,127
49425,note_on,1,0,0,,3,,,63,127
49577,note_off,152,0,0,,3,,,63,127
49578,note_on,1,0,0,,0,,,60,127
49730,note_off,152,0,0,,0,,,60,127
49731,note_on,1,0,0,,5,,,41,127
49787,note_off,56,0,0,,0,,,72,127
49787,note_off,0,0,0,,3,,,75,127
49788,note_on,1,0,0,,2,,,74,127
49846,note_on,58,0,0,,0,,,72,127
49854,note_off,8,0,0,,2,,,74,127
49903,note_on,49,0,0,,11,,,70,127
49911,note_off,8,0,0,,0,,,72,127
49960,note_on,49,0,0,,0,,,72,127
49968,note_off,8,0,0,,11,,,70,127
50017,note_on,49,0,0,,2,,,74,127
50025,note_off,8,0,0,,0,,,72,127
50074,note_on,49,0,0,,3,,,75,127
50082,note_off,8,0,0,,2,,,74,127
50131,note_on,49,0,0,,5,,,77,127
50139,note_off,8,0,0,,3,,,75,127
50187,note_off,48,0,0,,5,,,41,127
50188,note_on,1,0,0,,10,,,69,127
50188,note_on,0,0,0,,0,,,72,127
50188,note_on,0,0,0,,3,,,75,127
50196,note_off,8,0,0,,5,,,77,127
50340,note_off,144,0,0,,10,,,69,127
50341,note_on,1,0,0,,3,,,63,127
50493,note_off,152,0,0,,3,,,63,127
50494,note_on,1,0,0,,0,,,60,127
50646,note_off,152,0,0,,0,,,60,127
50647,note_on,1,0,0,,5,,,41,127
50799,note_off,152,0,0,,3,,,75,127
50799,note_off,0,0,0,,0,,,72,127
50800,note_on,1,0,0,,7,,,79,127
50952,note_off,152,0,0,,7,,,79,127
50953,note_on,1,0,0,,5,,,77,127
51105,note_off,152,0,0,,5,,,77,127
51105,note_off,0,0,0,,5,,,41,127
51106,note_on,1,0,0,,10,,,45,127
51106,note_on,0,0,0,,3,,,75,127
51258,note_off,152,0,0,,3,,,75,127
51259,note_on,1,0,0,,2,,,74,127
51411,note_off,152,0,0,,2,,,74,127
51412,note_on,1,0,0,,0,,,72,127
51564,note_off,152,0,0,,0,,,72,127
51564,note_off,0,0,0,,10,,,45,127
51565,note_on,1,0,0,,11,,,46,127
51565,note_on,0,0,0,,2,,,74,127
51719,note_on,154,0,0,,11,,,82,127
51795,note_off,76,0,0,,2,,,74,127
51872,note_off,77,0,0,,11,,,82,127
51873,note_on,1,0,0,,10,,,81,127
52025,note_off,152,0,0,,10,,,81,127
52025,note_off,0,0,0,,11,,,46,127
52026,note_on,1,0,0,,3,,,51,127
52026,note_on,0,0,0,,7,,,79,127
52178,note_off,152,0,0,,7,,,79,127
52179,note_on,1,0,0,,5,,,77,127
52331,note_off,152,0,0,,5,,,77,127
52332,note_on,1,0,0,,3,,,75,127
52484,note_off,152,0,0,,3,,,75,127
52484,note_off,0,0,0,,3,,,51,127
52485,note_on,1,0,0,,5,,,53,127
52485,note_on,0,0,0,,2,,,74,127
52485,note_on,0,0,0,,11,,,70,127
52637,note_off,152,0,0,,11,,,70,127
52637,note_off,0,0,0,,2,,,74,127
52638,note_on,1,0,0,,0,,,72,127
52638,note_on,0,0,0,,10,,,69,127
52790,note_off,152,0,0,,10,,,69,127
52790,note_off,0,0,0,,0,,,72,127
52791,note_on,1,0,0,,2,,,74,127
52791,note_on,0,0,0,,11,,,70,127
52943,note_off,152,0,0,,11,,,70,127
52943,note_off,0,0,0,,2,,,74,127
52944,note_on,1,0,0,,5,,,41,127
52944,note_on,0,0,0,,3,,,75,127
52944,note_on,0,0,0,,0,,,72,127
53096,note_off,152,0,0,,0,,,72,127
53096,note_off,0,0,0,,3,,,75,127
53097,note_on,1,0,0,,11,,,70,127
53097,note_on,0,0,0,,2,,,74,127
53249,note_off,152,0,0,,2,,,74,127
53249,note_off,0,0,0,,11,,,70,127
53250,note_on,1,0,0,,0,,,72,127
53250,note_on,0,0,0,,10,,,69,127
53402,note_off,152,0,0,,10,,,69,127
53402,note_off,0,0,0,,0,,,72,127
53402,note_off,0,0,0,,5,,,41,127
53402,note_off,0,0,0,,5,,,53,127
53403,note_on,1,0,0,,11,,,70,127
53403,note_on,0,0,0,,11,,,46,127
53453,note_on,50,0,0,,0,,,72,127
53458,note_off,5,0,0,,11,,,70,127
53504,note_on,46,0,0,,11,,,70,127
53509,note_off,5,0,0,,0,,,72,127
53557,note_on,48,0,0,,10,,,69,127
53559,note_off,2,0,0,,11,,,70,127
53709,note_off,150,0,0,,10,,,69,127
53710,note_on,1,0,0,,11,,,70,127
53862,note_off,152,0,0,,11,,,70,127
53862,note_off,0,0,0,,11,,,46,127
53863,note_on,1,0,0,,11,,,58,127
53863,note_on,0,0,0,,2,,,62,127
54015,note_off,152,0,0,,2,,,62,127
54015,note_off,0,0,0,,11,,,58,127
54016,note_on,1,0,0,,0,,,60,127
54016,note_on,0,0,0,,3,,,63,127
54168,note_off,152,0,0,,3,,,63,127
54168,note_off,0,0,0,,0,,,60,127
54169,note_on,1,0,0,,2,,,62,127
54169,note_on,0,0,0,,5,,,65,127
54321,note_off,152,0,0,,5,,,65,127
54321,note_off,0,0,0,,2,,,62,127
54322,note_on,1,0,0,,3,,,63,127
54322,note_on,0,0,0,,7,,,67,127
54474,note_off,152,0,0,,7,,,67,127
54474,note_off,0,0,0,,3,,,63,127
54475,note_on,1,0,0,,5,,,65,127
54475,note_on,0,0,0,,10,,,69,127
54627,note_off,152,0,0,,10,,,69,127
54627,note_off,0,0,0,,5,,,65,127
54628,note_on,1,0,0,,7,,,67,127
54628,note_on,0,0,0,,11,,,70,127
54780,note_off,152,0,0,,11,,,70,127
54780,note_off,0,0,0,,7,,,67,127
54781,note_on,1,0,0,,5,,,41,127
54781,note_on,0,0,0,,5,,,53,127
54781,note_on,0,0,0,,3,,,75,127
54933,note_off,152,0,0,,3,,,75,127
54934,note_on,1,0,0,,2,,,74,127
55086,note_off,152,0,0,,2,,,74,127
55087,note_on,1,0,0,,0,,,72,127
55239,note_off,152,0,0,,0,,,72,127
55239,note_off,0,0,0,,5,,,53,127
55239,note_off,0,0,0,,5,,,41,127
55240,note_on,1,0,0,,11,,,70,127
55240,note_on,0,0,0,,11,,,46,127
55290,note_on,50,0,0,,0,,,72,127
55295,note_off,5,0,0,,11,,,70,127
55341,note_on,46,0,0,,11,,,70,127
55346,note_off,5,0,0,,0,,,72,127
55394,note_on,48,0,0,,10,,,69,127
55396,note_off,2,0,0,,11,,,70,127
55546,note_off,150,0,0,,10,,,69,127
55547,note_on,1,0,0,,11,,,70,127
55699,note_off,152,0,0,,11,,,70,127
55699,note_off,0,0,0,,11,,,46,127
55700,note_on,1,0,0,,11,,,58,127
55700,note_on,0,0,0,,2,,,62,127
55852,note_off,152,0,0,,2,,,62,127
55852,note_off,0,0,0,,11,,,58,127
55853,note_on,1,0,0,,0,,,60,127
55853,note_on,0,0,0,,3,,,63,127
56005,note_off,152,0,0,,3,,,63,127
56005,note_off,0,0,0,,0,,,60,127
56006,note_on,1,0,0,,2,,,62,127
56006,note_on,0,0,0,,5,,,65,127
56158,note_off,152,0,0,,5,,,65,127
56158,note_off,0,0,0,,2,,,62,127
56159,note_on,1,0,0,,3,,,63,127
56159,note_on,0,0,0,,7,,,67,127
56311,note_off,152,0,0,,7,,,67,127
56311,note_off,0,0,0,,3,,,63,127
56312,note_on,1,0,0,,5,,,65,127
56312,note_on,0,0,0,,10,,,69,127
56464,note_off,152,0,0,,10,,,69,127
56464,note_off,0,0,0,,5,,,65,127
56465,note_on,1,0,0,,7,,,67,127
56465,note_on,0,0,0,,11,,,70,127
56617,note_off,152,0,0,,11,,,70,127
56617,note_off,0,0,0,,7,,,67,127
56618,note_on,1,0,0,,5,,,41,127
56618,note_on,0,0,0,,5,,,53,127
56618,note_on,0,0,0,,3,,,75,127
56770,note_off,152,0,0,,3,,,75,127
56771,note_on,1,0,0,,2,,,74,127
56923,note_off,152,0,0,,2,,,74,127
56924,note_on,1,0,0,,0,,,72,127
57076,note_off,152,0,0,,0,,,72,127
57076,note_off,0,0,0,,5,,,53,127
57076,note_off,0,0,0,,5,,,41,127
57077,note_on,1,0,0,,11,,,46,127
57077,note_on,0,0,0,,11,,,70,127
57231,note_on,154,0,0,,11,,,82,127
57383,note_off,152,0,0,,11,,,82,127
57383,note_off,0,0,0,,11,,,70,127
57384,note_on,1,0,0,,10,,,81,127
57536,note_off,152,0,0,,10,,,81,127
57536,note_off,0,0,0,,11,,,46,127
57537,note_on,1,0,0,,3,,,51,127
57537,note_on,0,0,0,,7,,,79,127
57689,note_off,152,0,0,,7,,,79,127
57690,note_on,1,0,0,,5,,,77,127
57842,note_off,152,0,0,,5,,,77,127
57843,note_on,1,0,0,,3,,,75,127
57995,note_off,152,0,0,,3,,,75,127
57995,note_off,0,0,0,,3,,,51,127
57996,note_on,1,0,0,,5,,,53,127
57996,note_on,0,0,0,,11,,,70,127
57996,note_on,0,0,0,,2,,,74,127
58148,note_off,152,0,0,,2,,,74,127
58148,note_off,0,0,0,,11,,,70,127
58149,note_on,1,0,0,,10,,,69,127
58149,note_on,0,0,0,,0,,,72,127
58301,note_off,152,0,0,,0,,,72,127
58301,note_off,0,0,0,,10,,,69,127
58302,note_on,1,0,0,,2,,,74,127
58302,note_on,0,0,0,,11,,,70,127
58454,note_off,152,0,0,,11,,,70,127
58454,note_off,0,0,0,,2,,,74,127
58455,note_on,1,0,0,,5,,,41,127
58455,note_on,0,0,0,,3,,,75,127
58455,note_on,0,0,0,,0,,,72,127
58607,note_off,152,0,0,,0,,,72,127
58607,note_off,0,0,0,,3,,,75,127
58608,note_on,1,0,0,,11,,,70,127
58608,note_on,0,0,0,,2,,,74,127
58760,note_off,152,0,0,,2,,,74,127
58760,note_off,0,0,0,,11,,,70,127
58761,note_on,1,0,0,,10,,,69,127
58761,note_on,0,0,0,,0,,,72,127
58913,note_off,152,0,0,,0,,,72,127
58913,note_off,0,0,0,,10,,,69,127
58913,note_off,0,0,0,,5,,,41,127
58913,note_off,0,0,0,,5,,,53,127
58914,note_on,1,0,0,,11,,,70,127
58914,note_on,0,0,0,,11,,,46,127
58964,note_on,50,0,0,,0,,,72,127
58969,note_off,5,0,0,,11,,,70,127
59015,note_on,46,0,0,,11,,,70,127
59020,note_off,5,0,0,,0,,,72,127
59068,note_on,48,0,0,,10,,,69,127
59070,note_off,2,0,0,,11,,,70,127
59220,note_off,150,0,0,,10,,,69,127
59221,note_on,1,0,0,,11,,,70,127
59373,note_off,152,0,0,,11,,,70,127
59373,note_off,0,0,0,,11,,,46,127
59374,note_on,1,0,0,,11,,,58,127
59374,note_on,0,0,0,,2,,,62,127
59526,note_off,152,0,0,,2,,,62,127
59526,note_off,0,0,0,,11,,,58,127
59527,note_on,1,0,0,,0,,,60,127
59527,note_on,0,0,0,,3,,,63,127
59679,note_off,152,0,0,,3,,,63,127
59679,note_off,0,0,0,,0,,,60,127
59680,note_on,1,0,0,,2,,,62,127
59680,note_on,0,0,0,,5,,,65,127
59832,note_off,152,0,0,,5,,,65,127
59832,note_off,0,0,0,,2,,,62,127
59833,note_on,1,0,0,,3,,,63,127
59833,note_on,0,0,0,,7,,,67,127
59985,note_off,152,0,0,,7,,,67,127
59985,note_off,0,0,0,,3,,,63,127
59986,note_on,1,0,0,,5,,,65,127
59986,note_on,0,0,0,,10,,,69,127
60138,note_off,152,0,0,,10,,,69,127
60138,note_off,0,0,0,,5,,,65,127
60139,note_on,1,0,0,,7,,,67,127
60139,note_on,0,0,0,,11,,,70,127
60291,note_off,152,0,0,,11,,,70,127
60291,note_off,0,0,0,,7,,,67,127
60292,note_on,1,0,0,,5,,,41,127
60292,note_on,0,0,0,,5,,,53,127
60292,note_on,0,0,0,,3,,,75,127
60444,note_off,152,0,0,,3,,,75,127
60445,note_on,1,0,0,,2,,,74,127
60597,note_off,152,0,0,,2,,,74,127
60598,note_on,1,0,0,,0,,,72,127
60750,note_off,152,0,0,,0,,,72,127
60750,note_off,0,0,0,,5,,,53,127
60750,note_off,0,0,0,,5,,,41,127
60751,note_on,1,0,0,,11,,,70,127
60751,note_on,0,0,0,,11,,,46,127
60801,note_on,50,0,0,,0,,,72,127
60806,note_off,5,0,0,,11,,,70,127
60852,note_on,46,0,0,,11,,,70,127
60857,note_off,5,0,0,,0,,,72,127
60905,note_on,48,0,0,,10,,,69,127
60907,note_off,2,0,0,,11,,,70,127
61057,note_off,150,0,0,,10,,,69,127
61058,note_on,1,0,0,,11,,,70,127
61210,note_off,152,0,0,,11,,,70,127
61210,note_off,0,0,0,,11,,,46,127
61211,note_on,1,0,0,,11,,,58,127
61211,note_on,0,0,0,,2,,,62,127
61363,note_off,152,0,0,,2,,,62,127
61363,note_off,0,0,0,,11,,,58,127
61364,note_on,1,0,0,,0,,,60,127
61364,note_on,0,0,0,,3,,,63,127
61516,note_off,152,0,0,,3,,,63,127
61516,note_off,0,0,0,,0,,,60,127
61517,note_on,1,0,0,,2,,,62,127
61517,note_on,0,0,0,,5,,,65,127
61669,note_off,152,0,0,,5,,,65,127
61669,note_off,0,0,0,,2,,,62,127
61670,note_on,1,0,0,,3,,,63,127
61670,note_on,0,0,0,,7,,,67,127
61822,note_off,152,0,0,,7,,,67,127
61822,note_off,0,0,0,,3,,,63,127
61823,note_on,1,0,0,,5,,,65,127
61823,note_on,0,0,0,,10,,,69,127
61975,note_off,152,0,0,,10,,,69,127
61975,note_off,0,0,0,,5,,,65,127
61976,note_on,1,0,0,,7,,,67,127
61976,note_on,0,0,0,,11,,,70,127
62128,note_off,152,0,0,,11,,,70,127
62128,note_off,0,0,0,,7,,,67,127
62129,note_on,1,0,0,,5,,,53,127
62129,note_on,0,0,0,,5,,,41,127
62129,note_on,0,0,0,,3,,,75,127
62281,note_off,152,0,0,,3,,,75,127
62282,note_on,1,0,0,,2,,,74,127
62434,note_off,152,0,0,,2,,,74,127
62435,note_on,1,0,0,,0,,,72,127
62587,note_off,152,0,0,,0,,,72,127
62587,note_off,0,0,0,,5,,,41,127
62587,note_off,0,0,0,,5,,,53,127
62588,note_on,1,0,0,,11,,,46,127
62588,note_on,0,0,0,,11,,,70,127
62742,note_on,154,0,0,,11,,,82,127
62894,note_off,152,0,0,,11,,,82,127
62894,note_off,0,0,0,,11,,,70,127
62895,note_on,1,0,0,,10,,,81,127
63047,note_off,152,0,0,,10,,,81,127
63047,note_off,0,0,0,,11,,,46,127
63048,note_on,1,0,0,,3,,,51,127
63048,note_on,0,0,0,,7,,,79,127
63200,note_off,152,0,0,,7,,,79,127
63201,note_on,1,0,0,,5,,,77,127
63353,note_off,152,0,0,,5,,,77,127
63354,note_on,1,0,0,,3,,,75,127
63506,note_off,152,0,0,,3,,,75,127
63506,note_off,0,0,0,,3,,,51,127
63507,note_on,1,0,0,,5,,,53,127
63507,note_on,0,0,0,,2,,,74,127
63507,note_on,0,0,0,,11,,,70,127
63659,note_off,152,0,0,,11,,,70,127
63659,note_off,0,0,0,,2,,,74,127
63660,note_on,1,0,0,,0,,,72,127
63660,note_on,0,0,0,,10,,,69,127
63812,note_off,152,0,0,,10,,,69,127
63812,note_off,0,0,0,,0,,,72,127
63813,note_on,1,0,0,,2,,,74,127
63813,note_on,0,0,0,,11,,,70,127
63965,note_off,152,0,0,,11,,,70,127
63965,note_off,0,0,0,,2,,,74,127
63966,note_on,1,0,0,,5,,,41,127
63966,note_on,0,0,0,,0,,,72,127
63966,note_on,0,0,0,,3,,,75,127
64118,note_off,152,0,0,,3,,,75,127
64118,note_off,0,0,0,,0,,,72,127
64119,note_on,1,0,0,,2,,,74,127
64119,note_on,0,0,0,,11,,,70,127
64271,note_off,152,0,0,,11,,,70,127
64271,note_off,0,0,0,,2,,,74,127
64272,note_on,1,0,0,,10,,,69,127
64272,note_on,0,0,0,,0,,,72,127
64424,note_off,152,0,0,,0,,,72,127
64424,note_off,0,0,0,,10,,,69,127
64424,note_off,0,0,0,,5,,,41,127
64424,note_off,0,0,0,,5,,,53,127
64425,note_on,1,0,0,,11,,,46,127
64425,note_on,0,0,0,,11,,,70,127
64577,note_off,152,0,0,,11,,,70,127
64578,note_on,1,0,0,,11,,,70,127
64730,note_off,152,0,0,,11,,,70,127
64731,note_on,1,0,0,,10,,,69,127
64883,note_off,152,0,0,,10,,,69,127
64883,note_off,0,0,0,,11,,,46,127
64884,note_on,1,0,0,,3,,,51,127
64884,note_on,0,0,0,,7,,,67,127
65036,note_off,152,0,0,,7,,,67,127
65037,note_on,1,0,0,,5,,,65,127
65189,note_off,152,0,0,,5,,,65,127
65190,note_on,1,0,0,,3,,,63,127
65342,note_off,152,0,0,,3,,,63,127
65342,note_off,0,0,0,,3,,,51,127
65343,note_on,1,0,0,,5,,,53,127
65343,note_on,0,0,0,,11,,,58,127
65343,note_on,0,0,0,,2,,,62,127
65495,note_off,152,0,0,,2,,,62,127
65495,note_off,0,0,0,,11,,,58,127
65496,note_on,1,0,0,,0,,,60,127
65496,note_on,0,0,0,,10,,,57,127
65648,note_off,152,0,0,,10,,,57,127
65648,note_off,0,0,0,,0,,,60,127
65649,note_on,1,0,0,,2,,,62,127
65649,note_on,0,0,0,,11,,,58,127
65801,note_off,152,0,0,,11,,,58,127
65801,note_off,0,0,0,,2,,,62,127
65802,note_on,1,0,0,,5,,,41,127
65802,note_on,0,0,0,,3,,,63,127
65802,note_on,0,0,0,,0,,,60,127
65954,note_off,152,0,0,,0,,,60,127
65954,note_off,0,0,0,,3,,,63,127
65955,note_on,1,0,0,,11,,,58,127
65955,note_on,0,0,0,,2,,,62,127
66107,note_off,152,0,0,,2,,,62,127
66107,note_off,0,0,0,,11,,,58,127
66108,note_on,1,0,0,,0,,,60,127
66108,note_on,0,0,0,,10,,,57,127
66260,note_off,152,0,0,,10,,,57,127
66260,note_off,0,0,0,,0,,,60,127
66260,note_off,0,0,0,,5,,,41,127
66260,note_off,0,0,0,,5,,,53,127
66261,note_on,1,0,0,,11,,,46,127
66261,note_on,0,0,0,,0,,,60,127
66319,note_on,58,0,0,,11,,,58,127
66327,note_off,8,0,0,,0,,,60,127
66376,note_on,49,0,0,,0,,,60,127
66384,note_off,8,0,0,,11,,,58,127
66433,note_on,49,0,0,,11,,,58,127
66441,note_off,8,0,0,,0,,,60,127
66490,note_on,49,0,0,,0,,,60,127
66498,note_off,8,0,0,,11,,,58,127
66547,note_on,49,0,0,,11,,,58,127
66555,note_off,8,0,0,,0,,,60,127
66604,note_on,49,0,0,,0,,,60,127
66612,note_off,8,0,0,,11,,,58,127
66661,note_on,49,0,0,,11,,,58,127
66669,note_off,8,0,0,,0,,,60,127
66717,note_off,48,0,0,,11,,,46,127
66718,note_on,1,0,0,,5,,,65,127
66718,note_on,0,0,0,,5,,,77,127
66726,note_off,8,0,0,,11,,,58,127
66870,note_off,144,0,0,,5,,,65,127
66871,note_on,1,0,0,,2,,,62,127
67023,note_off,152,0,0,,2,,,62,127
67024,note_on,1,0,0,,11,,,58,127
67176,note_off,152,0,0,,11,,,58,127
67177,note_on,1,0,0,,8,,,56,127
67637,note_off,460,0,0,,8,,,56,127
67637,note_off,0,0,0,,5,,,77,127
67638,note_on,1,0,0,,5,,,65,127
67638,note_on,0,0,0,,5,,,77,127
67790,note_off,152,0,0,,5,,,65,127
67791,note_on,1,0,0,,0,,,60,127
67943,note_off,152,0,0,,0,,,60,127
67944,note_on,1,0,0,,8,,,56,127
68096,note_off,152,0,0,,8,,,56,127
68097,note_on,1,0,0,,7,,,55,127
68557,note_off,460,0,0,,7,,,55,127
68557,note_off,0,0,0,,5,,,77,127
68558,note_on,1,0,0,,4,,,64,127
68558,note_on,0,0,0,,7,,,79,127
68558,note_on,0,0,0,,4,,,76,127
68710,note_off,152,0,0,,4,,,64,127
68711,note_on,1,0,0,,11,,,58,127
68863,note_off,152,0,0,,11,,,58,127
68864,note_on,1,0,0,,7,,,55,127
69016,note_off,152,0,0,,7,,,55,127
69017,note_on,1,0,0,,5,,,53,127
69477,note_off,460,0,0,,5,,,53,127
69477,note_off,0,0,0,,4,,,76,127
69477,note_off,0,0,0,,7,,,79,127
69478,note_on,1,0,0,,1,,,61,127
69478,note_on,0,0,0,,11,,,82,127
69478,note_on,0,0,0,,1,,,73,127
69630,note_off,152,0,0,,1,,,61,127
69631,note_on,1,0,0,,11,,,58,127
69783,note_off,152,0,0,,11,,,58,127
69784,note_on,1,0,0,,5,,,53,127
69936,note_off,152,0,0,,5,,,53,127
69936,note_off,0,0,0,,1,,,73,127
69937,note_on,1,0,0,,0,,,60,127
69937,note_on,0,0,0,,4,,,52,127
69937,note_on,0,0,0,,0,,,72,127
70397,note_off,460,0,0,,4,,,52,127
70397,note_off,0,0,0,,11,,,82,127
70398,note_on,1,0,0,,8,,,80,127
70398,note_on,0,0,0,,5,,,53,127
70448,note_on,50,0,0,,11,,,82,127
70453,note_off,5,0,0,,8,,,80,127
70499,note_on,46,0,0,,8,,,80,127
70504,note_off,5,0,0,,11,,,82,127
70552,note_on,48,0,0,,7,,,79,127
70554,note_off,2,0,0,,8,,,80,127
70704,note_off,150,0,0,,7,,,79,127
70705,note_on,1,0,0,,8,,,80,127
70857,note_off,152,0,0,,8,,,80,127
70857,note_off,0,0,0,,5,,,53,127
70857,note_off,0,0,0,,0,,,72,127
70858,note_on,1,0,0,,7,,,79,127
70858,note_on,0,0,0,,1,,,49,127
70908,note_on,50,0,0,,8,,,80,127
70913,note_off,5,0,0,,7,,,79,127
70959,note_on,46,0,0,,7,,,79,127
70964,note_off,5,0,0,,8,,,80,127
71012,note_on,48,0,0,,5,,,77,127
71014,note_off,2,0,0,,7,,,79,127
71164,note_off,150,0,0,,5,,,77,127
71165,note_on,1,0,0,,7,,,79,127
71317,note_off,152,0,0,,7,,,79,127
71317,note_off,0,0,0,,0,,,60,127
71318,note_on,1,0,0,,5,,,77,127
71318,note_on,0,0,0,,11,,,58,127
71368,note_on,50,0,0,,7,,,79,127
71373,note_off,5,0,0,,5,,,77,127
71419,note_on,46,0,0,,5,,,77,127
71424,note_off,5,0,0,,7,,,79,127
71472,note_on,48,0,0,,4,,,76,127
71474,note_off,2,0,0,,5,,,77,127
71624,note_off,150,0,0,,4,,,76,127
71625,note_on,1,0,0,,5,,,77,127
71777,note_off,152,0,0,,5,,,77,127
71777,note_off,0,0,0,,11,,,58,127
71777,note_off,0,0,0,,1,,,49,127
71778,note_on,1,0,0,,0,,,60,127
71778,note_on,0,0,0,,0,,,48,127
71778,note_on,0,0,0,,7,,,79,127
71930,note_off,152,0,0,,7,,,79,127
71931,note_on,1,0,0,,4,,,76,127
72083,note_off,152,0,0,,4,,,76,127
72084,note_on,1,0,0,,5,,,77,127
72236,note_off,152,0,0,,5,,,77,127
72236,note_off,0,0,0,,0,,,48,127
72236,note_off,0,0,0,,0,,,60,127
72237,note_on,1,0,0,,7,,,67,127
72237,note_on,0,0,0,,7,,,79,127
72389,note_off,152,0,0,,7,,,67,127
72390,note_on,1,0,0,,4,,,64,127
72542,note_off,152,0,0,,4,,,64,127
72543,note_on,1,0,0,,0,,,60,127
72695,note_off,152,0,0,,0,,,60,127
72696,note_on,1,0,0,,11,,,58,127
73156,note_off,460,0,0,,11,,,58,127
73156,note_off,0,0,0,,7,,,79,127
73157,note_on,1,0,0,,7,,,67,127
73157,note_on,0,0,0,,7,,,79,127
73309,note_off,152,0,0,,7,,,67,127
73310,note_on,1,0,0,,2,,,62,127
73462,note_off,152,0,0,,2,,,62,127
73463,note_on,1,0,0,,11,,,58,127
73615,note_off,152,0,0,,11,,,58,127
73616,note_on,1,0,0,,10,,,57,127
74076,note_off,460,0,0,,10,,,57,127
74076,note_off,0,0,0,,7,,,79,127
74077,note_on,1,0,0,,6,,,66,127
74077,note_on,0,0,0,,10,,,81,127
74077,note_on,0,0,0,,6,,,78,127
74229,note_off,152,0,0,,6,,,66,127
74230,note_on,1,0,0,,0,,,60,127
74382,note_off,152,0,0,,0,,,60,127
74383,note_on,1,0,0,,10,,,57,127
74535,note_off,152,0,0,,10,,,57,127
74536,note_on,1,0,0,,7,,,55,127
74996,note_off,460,0,0,,7,,,55,127
74996,note_off,0,0,0,,6,,,78,127
74996,note_off,0,0,0,,10,,,81,127
74997,note_on,1,0,0,,3,,,63,127
74997,note_on,0,0,0,,0,,,84,127
74997,note_on,0,0,0,,3,,,75,127
75149,note_off,152,0,0,,3,,,63,127
75150,note_on,1,0,0,,0,,,60,127
75302,note_off,152,0,0,,0,,,60,127
75303,note_on,1,0,0,,7,,,55,127
75455,note_off,152,0,0,,7,,,55,127
75455,note_off,0,0,0,,3,,,75,127
75456,note_on,1,0,0,,6,,,54,127
75456,note_on,0,0,0,,2,,,62,127
75456,note_on,0,0,0,,2,,,74,127
75916,note_off,460,0,0,,6,,,54,127
75916,note_off,0,0,0,,0,,,84,127
75917,note_on,1,0,0,,11,,,82,127
75917,note_on,0,0,0,,7,,,55,127
75967,note_on,50,0,0,,0,,,84,127
75972,note_off,5,0,0,,11,,,82,127
76018,note_on,46,0,0,,11,,,82,127
76023,note_off,5,0,0,,0,,,84,127
76071,note_on,48,0,0,,10,,,81,127
76073,note_off,2,0,0,,11,,,82,127
76223,note_off,150,0,0,,10,,,81,127
76224,note_on,1,0,0,,11,,,82,127
76376,note_off,152,0,0,,11,,,82,127
76376,note_off,0,0,0,,7,,,55,127
76376,note_off,0,0,0,,2,,,74,127
76377,note_on,1,0,0,,10,,,81,127
76377,note_on,0,0,0,,3,,,51,127
76427,note_on,50,0,0,,11,,,82,127
76432,note_off,5,0,0,,10,,,81,127
76478,note_on,46,0,0,,10,,,81,127
76483,note_off,5,0,0,,11,,,82,127
76531,note_on,48,0,0,,7,,,79,127
76533,note_off,2,0,0,,10,,,81,127
76683,note_off,150,0,0,,7,,,79,127
76684,note_on,1,0,0,,10,,,81,127
76836,note_off,152,0,0,,10,,,81,127
76836,note_off,0,0,0,,2,,,62,127
76837,note_on,1,0,0,,7,,,79,127
76837,note_on,0,0,0,,0,,,60,127
76887,note_on,50,0,0,,10,,,81,127
76892,note_off,5,0,0,,7,,,79,127
76938,note_on,46,0,0,,7,,,79,127
76943,note_off,5,0,0,,10,,,81,127
76991,note_on,48,0,0,,6,,,78,127
76993,note_off,2,0,0,,7,,,79,127
77143,note_off,150,0,0,,6,,,78,127
77144,note_on,1,0,0,,7,,,79,127
77296,note_off,152,0,0,,7,,,79,127
77296,note_off,0,0,0,,0,,,60,127
77296,note_off,0,0,0,,3,,,51,127
77297,note_on,1,0,0,,2,,,50,127
77297,note_on,0,0,0,,2,,,62,127
77297,note_on,0,0,0,,10,,,81,127
77757,note_off,460,0,0,,10,,,81,127
77758,note_on,1,0,0,,10,,,81,127
77987,note_off,229,0,0,,2,,,50,127
78217,note_off,230,0,0,,2,,,62,127
78218,note_on,1,0,0,,0,,,60,127
78218,note_on,0,0,0,,3,,,75,127
78678,note_off,460,0,0,,10,,,81,127
78679,note_on,1,0,0,,7,,,79,127
78679,note_on,0,0,0,,0,,,72,127
78729,note_on,50,0,0,,10,,,81,127
78734,note_off,5,0,0,,7,,,79,127
78780,note_on,46,0,0,,7,,,79,127
78785,note_off,5,0,0,,10,,,81,127
78833,note_on,48,0,0,,6,,,78,127
78835,note_off,2,0,0,,7,,,79,127
78985,note_off,150,0,0,,6,,,78,127
78986,note_on,1,0,0,,7,,,79,127
79138,note_off,152,0,0,,7,,,79,127
79138,note_off,0,0,0,,3,,,75,127
79138,note_off,0,0,0,,0,,,60,127
79139,note_on,1,0,0,,6,,,78,127
79139,note_on,0,0,0,,2,,,62,127
79139,note_on,0,0,0,,2,,,74,127
79189,note_on,50,0,0,,7,,,79,127
79194,note_off,5,0,0,,6,,,78,127
79240,note_on,46,0,0,,6,,,78,127
79245,note_off,5,0,0,,7,,,79,127
79293,note_on,48,0,0,,4,,,76,127
79295,note_off,2,0,0,,6,,,78,127
79445,note_off,150,0,0,,4,,,76,127
79446,note_on,1,0,0,,6,,,78,127
79598,note_off,152,0,0,,6,,,78,127
79598,note_off,0,0,0,,0,,,72,127
79599,note_on,1,0,0,,11,,,70,127
79599,note_on,0,0,0,,10,,,81,127
79649,note_on,50,0,0,,7,,,79,127
79654,note_off,5,0,0,,10,,,81,127
79700,note_on,46,0,0,,10,,,81,127
79705,note_off,5,0,0,,7,,,79,127
79751,note_on,46,0,0,,7,,,79,127
79756,note_off,5,0,0,,10,,,81,127
79802,note_on,46,0,0,,6,,,78,127
79807,note_off,5,0,0,,7,,,79,127
79932,note_off,125,0,0,,6,,,78,127
79932,note_on,0,0,0,,7,,,79,127
80060,note_off,128,0,0,,11,,,70,127
80060,note_off,0,0,0,,2,,,74,127
80060,note_off,0,0,0,,2,,,62,127
80061,note_off,1,0,0,,7,,,79,127
80061,note_on,0,0,0,,2,,,62,127
80061,note_on,0,0,0,,10,,,69,127
80061,note_on,0,0,0,,11,,,82,127
80061,note_on,0,0,0,,2,,,74,127
80111,note_on,50,0,0,,10,,,81,127
80116,note_off,5,0,0,,11,,,82,127
80162,note_on,46,0,0,,11,,,82,127
80167,note_off,5,0,0,,10,,,81,127
80213,note_on,46,0,0,,10,,,81,127
80218,note_off,5,0,0,,11,,,82,127
80264,note_on,46,0,0,,7,,,79,127
80269,note_off,5,0,0,,10,,,81,127
80394,note_off,125,0,0,,7,,,79,127
80394,note_on,0,0,0,,10,,,81,127
80522,note_off,128,0,0,,10,,,69,127
80523,note_off,1,0,0,,10,,,81,127
80523,note_on,0,0,0,,7,,,67,127
80523,note_on,0,0,0,,0,,,84,127
80573,note_on,50,0,0,,11,,,82,127
80578,note_off,5,0,0,,0,,,84,127
80624,note_on,46,0,0,,0,,,84,127
80629,note_off,5,0,0,,11,,,82,127
80675,note_on,46,0,0,,11,,,82,127
80680,note_off,5,0,0,,0,,,84,127
80726,note_on,46,0,0,,10,,,81,127
80731,note_off,5,0,0,,11,,,82,127
80856,note_off,125,0,0,,10,,,81,127
80856,note_on,0,0,0,,11,,,82,127
80984,note_off,128,0,0,,7,,,67,127
80984,note_off,0,0,0,,2,,,74,127
80984,note_off,0,0,0,,2,,,62,127
80985,note_off,1,0,0,,11,,,82,127
80985,note_on,0,0,0,,6,,,66,127
80985,note_on,0,0,0,,2,,,62,127
80985,note_on,0,0,0,,10,,,81,127
80985,note_on,0,0,0,,2,,,74,127
81445,note_off,460,0,0,,2,,,74,127
81445,note_off,0,0,0,,10,,,81,127
81446,note_on,1,0,0,,10,,,69,127
81906,note_off,460,0,0,,2,,,62,127
81906,note_off,0,0,0,,6,,,66,127
81907,note_on,1,0,0,,0,,,48,127
81907,note_on,0,0,0,,3,,,63,127
82367,note_off,460,0,0,,10,,,69,127
82368,note_on,1,0,0,,0,,,60,127
82368,note_on,0,0,0,,7,,,67,127
82520,note_off,152,0,0,,7,,,67,127
82521,note_on,1,0,0,,6,,,66,127
82673,note_off,152,0,0,,6,,,66,127
82674,note_on,1,0,0,,7,,,67,127
82826,note_off,152,0,0,,7,,,67,127
82826,note_off,0,0,0,,3,,,63,127
82826,note_off,0,0,0,,0,,,48,127
82827,note_on,1,0,0,,2,,,50,127
82827,note_on,0,0,0,,2,,,62,127
82827,note_on,0,0,0,,6,,,66,127
82877,note_on,50,0,0,,7,,,67,127
82882,note_off,5,0,0,,6,,,66,127
82928,note_on,46,0,0,,6,,,66,127
82933,note_off,5,0,0,,7,,,67,127
82981,note_on,48,0,0,,4,,,64,127
82983,note_off,2,0,0,,6,,,66,127
83133,note_off,150,0,0,,4,,,64,127
83134,note_on,1,0,0,,6,,,66,127
83286,note_off,152,0,0,,6,,,66,127
83286,note_off,0,0,0,,0,,,60,127
83287,note_on,1,0,0,,11,,,58,127
83287,note_on,0,0,0,,10,,,69,127
83337,note_on,50,0,0,,7,,,67,127
83342,note_off,5,0,0,,10,,,69,127
83388,note_on,46,0,0,,10,,,69,127
83393,note_off,5,0,0,,7,,,67,127
83439,note_on,46,0,0,,7,,,67,127
83444,note_off,5,0,0,,10,,,69,127
83490,note_on,46,0,0,,6,,,66,127
83495,note_off,5,0,0,,7,,,67,127
83620,note_off,125,0,0,,6,,,66,127
83620,note_on,0,0,0,,7,,,67,127
83748,note_off,128,0,0,,11,,,58,127
83748,note_off,0,0,0,,2,,,62,127
83748,note_off,0,0,0,,2,,,50,127
83749,note_off,1,0,0,,7,,,67,127
83749,note_on,0,0,0,,10,,,57,127
83749,note_on,0,0,0,,2,,,50,127
83749,note_on,0,0,0,,11,,,70,127
83749,note_on,0,0,0,,2,,,62,127
83799,note_on,50,0,0,,10,,,69,127
83804,note_off,5,0,0,,11,,,70,127
83850,note_on,46,0,0,,11,,,70,127
83855,note_off,5,0,0,,10,,,69,127
83901,note_on,46,0,0,,10,,,69,127
83906,note_off,5,0,0,,11,,,70,127
83952,note_on,46,0,0,,7,,,67,127
83957,note_off,5,0,0,,10,,,69,127
84082,note_off,125,0,0,,7,,,67,127
84082,note_on,0,0,0,,10,,,69,127
84210,note_off,128,0,0,,10,,,57,127
84211,note_off,1,0,0,,10,,,69,127
84211,note_on,0,0,0,,7,,,55,127
84211,note_on,0,0,0,,7,,,67,127
84211,note_on,0,0,0,,0,,,72,127
84261,note_on,50,0,0,,11,,,70,127
84266,note_off,5,0,0,,0,,,72,127
84312,note_on,46,0,0,,0,,,72,127
84317,note_off,5,0,0,,11,,,70,127
84363,note_on,46,0,0,,11,,,70,127
84368,note_off,5,0,0,,0,,,72,127
84414,note_on,46,0,0,,10,,,69,127
84419,note_off,5,0,0,,11,,,70,127
84544,note_off,125,0,0,,10,,,69,127
84544,note_on,0,0,0,,11,,,70,127
84672,note_off,128,0,0,,7,,,55,127
84672,note_off,0,0,0,,2,,,62,127
84672,note_off,0,0,0,,2,,,50,127
84673,note_off,1,0,0,,11,,,70,127
84673,note_on,0,0,0,,2,,,50,127
84673,note_on,0,0,0,,10,,,69,127
84819,note_off,146,0,0,,7,,,67,127
84826,note_on,7,0,0,,5,,,65,127
84978,note_off,152,0,0,,5,,,65,127
84979,note_on,1,0,0,,4,,,64,127
85131,note_off,152,0,0,,4,,,64,127
85132,note_on,1,0,0,,2,,,62,127
85132,note_on,0,0,0,,5,,,65,127
85284,note_off,152,0,0,,10,,,69,127
85285,note_on,1,0,0,,5,,,77,127
85437,note_off,152,0,0,,5,,,77,127
85438,note_on,1,0,0,,2,,,74,127
85590,note_off,152,0,0,,2,,,74,127
85590,note_off,0,0,0,,2,,,50,127
85591,note_on,1,0,0,,7,,,55,127
85591,note_on,0,0,0,,12,,,71,127
85743,note_off,152,0,0,,5,,,65,127
85744,note_on,1,0,0,,7,,,67,127
85896,note_off,152,0,0,,7,,,67,127
85896,note_off,0,0,0,,2,,,62,127
85897,note_on,1,0,0,,2,,,62,127
86049,note_off,152,0,0,,2,,,62,127
86049,note_off,0,0,0,,7,,,55,127
86050,note_on,1,0,0,,0,,,48,127
86050,note_on,0,0,0,,0,,,60,127
86050,note_on,0,0,0,,3,,,63,127
86202,note_off,152,0,0,,12,,,71,127
86203,note_on,1,0,0,,0,,,72,127
86355,note_off,152,0,0,,0,,,72,127
86356,note_on,1,0,0,,7,,,67,127
86508,note_off,152,0,0,,7,,,67,127
86508,note_off,0,0,0,,0,,,48,127
86509,note_on,1,0,0,,5,,,53,127
86509,note_on,0,0,0,,8,,,68,127
86661,note_off,152,0,0,,3,,,63,127
86662,note_on,1,0,0,,5,,,65,127
86814,note_off,152,0,0,,5,,,65,127
86814,note_off,0,0,0,,0,,,60,127
86815,note_on,1,0,0,,0,,,60,127
86967,note_off,152,0,0,,0,,,60,127
86967,note_off,0,0,0,,5,,,53,127
86968,note_on,1,0,0,,11,,,46,127
86968,note_on,0,0,0,,11,,,58,127
86968,note_on,0,0,0,,2,,,62,127
87120,note_off,152,0,0,,8,,,68,127
87121,note_on,1,0,0,,11,,,70,127
87273,note_off,152,0,0,,11,,,70,127
87274,note_on,1,0,0,,5,,,65,127
87426,note_off,152,0,0,,5,,,65,127
87426,note_off,0,0,0,,2,,,62,127
87426,note_off,0,0,0,,11,,,46,127
87427,note_on,1,0,0,,3,,,51,127
87427,note_on,0,0,0,,7,,,67,127
87579,note_off,152,0,0,,7,,,67,127
87580,note_on,1,0,0,,3,,,75,127
87732,note_off,152,0,0,,3,,,75,127
87733,note_on,1,0,0,,11,,,70,127
87885,note_off,152,0,0,,11,,,70,127
87885,note_off,0,0,0,,3,,,51,127
87885,note_off,0,0,0,,11,,,58,127
87886,note_on,1,0,0,,8,,,56,127
87886,note_on,0,0,0,,0,,,72,127
88038,note_off,152,0,0,,0,,,72,127
88039,note_on,1,0,0,,8,,,80,127
88191,note_off,152,0,0,,8,,,80,127
88192,note_on,1,0,0,,5,,,77,127
88344,note_off,152,0,0,,5,,,77,127
88344,note_off,0,0,0,,8,,,56,127
88345,note_on,1,0,0,,11,,,58,127
88345,note_on,0,0,0,,2,,,74,127
88789,note_off,444,0,0,,2,,,74,127
88806,note_on,17,0,0,,3,,,51,127
88806,note_on,0,0,0,,5,,,77,127
88864,note_on,58,0,0,,3,,,75,127
88872,note_off,8,0,0,,5,,,77,127
88921,note_on,49,0,0,,5,,,77,127
88929,note_off,8,0,0,,3,,,75,127
88978,note_on,49,0,0,,3,,,75,127
88986,note_off,8,0,0,,5,,,77,127
89035,note_on,49,0,0,,5,,,77,127
89043,note_off,8,0,0,,3,,,75,127
89092,note_on,49,0,0,,3,,,75,127
89100,note_off,8,0,0,,5,,,77,127
89149,note_on,49,0,0,,2,,,74,127
89157,note_off,8,0,0,,3,,,75,127
89206,note_on,49,0,0,,3,,,75,127
89214,note_off,8,0,0,,2,,,74,127
89262,note_off,48,0,0,,3,,,51,127
89262,note_off,0,0,0,,11,,,58,127
89263,note_on,1,0,0,,11,,,46,127
89263,note_on,0,0,0,,5,,,77,127
89271,note_off,8,0,0,,3,,,75,127
89416,note_on,145,0,0,,2,,,74,127
89568,note_off,152,0,0,,2,,,74,127
89569,note_off,1,0,0,,5,,,77,127
89569,note_on,0,0,0,,3,,,75,127
89721,note_off,152,0,0,,3,,,75,127
89721,note_off,0,0,0,,11,,,46,127
89722,note_on,1,0,0,,8,,,68,127
89722,note_on,0,0,0,,2,,,74,127
89722,note_on,0,0,0,,5,,,77,127
89874,note_off,152,0,0,,8,,,68,127
89875,note_on,1,0,0,,5,,,65,127
90027,note_off,152,0,0,,5,,,65,127
90028,note_on,1,0,0,,2,,,62,127
90180,note_off,152,0,0,,2,,,62,127
90181,note_on,1,0,0,,11,,,46,127
90333,note_off,152,0,0,,5,,,77,127
90333,note_off,0,0,0,,2,,,74,127
90334,note_on,1,0,0,,2,,,74,127
90486,note_off,152,0,0,,2,,,74,127
90487,note_on,1,0,0,,3,,,75,127
90639,note_off,152,0,0,,3,,,75,127
90639,note_off,0,0,0,,11,,,46,127
90640,note_on,1,0,0,,8,,,68,127
90640,note_on,0,0,0,,5,,,77,127
90640,note_on,0,0,0,,2,,,74,127
90792,note_off,152,0,0,,8,,,68,127
90793,note_on,1,0,0,,5,,,65,127
90945,note_off,152,0,0,,5,,,65,127
90946,note_on,1,0,0,,2,,,62,127
91098,note_off,152,0,0,,2,,,62,127
91099,note_on,1,0,0,,11,,,46,127
91251,note_off,152,0,0,,2,,,74,127
91251,note_off,0,0,0,,5,,,77,127
91252,note_on,1,0,0,,7,,,79,127
91252,note_on,0,0,0,,3,,,75,127
91404,note_off,152,0,0,,3,,,75,127
91404,note_off,0,0,0,,7,,,79,127
91405,note_on,1,0,0,,5,,,77,127
91405,note_on,0,0,0,,8,,,80,127
91557,note_off,152,0,0,,8,,,80,127
91557,note_off,0,0,0,,5,,,77,127
91557,note_off,0,0,0,,11,,,46,127
91558,note_on,1,0,0,,11,,,70,127
91558,note_on,0,0,0,,7,,,79,127
91558,note_on,0,0,0,,11,,,82,127
91710,note_off,152,0,0,,11,,,70,127
91711,note_on,1,0,0,,7,,,67,127
91863,note_off,152,0,0,,7,,,67,127
91864,note_on,1,0,0,,3,,,63,127
92016,note_off,152,0,0,,3,,,63,127
92017,note_on,1,0,0,,11,,,46,127
92169,note_off,152,0,0,,11,,,82,127
92169,note_off,0,0,0,,7,,,79,127
92170,note_on,1,0,0,,7,,,79,127
92170,note_on,0,0,0,,3,,,75,127
92322,note_off,152,0,0,,3,,,75,127
92322,note_off,0,0,0,,7,,,79,127
92323,note_on,1,0,0,,8,,,80,127
92323,note_on,0,0,0,,5,,,77,127
92475,note_off,152,0,0,,5,,,77,127
92475,note_off,0,0,0,,8,,,80,127
92475,note_off,0,0,0,,11,,,46,127
92476,note_on,1,0,0,,11,,,70,127
92476,note_on,0,0,0,,7,,,79,127
92476,note_on,0,0,0,,11,,,82,127
92628,note_off,152,0,0,,11,,,70,127
92629,note_on,1,0,0,,7,,,67,127
92781,note_off,152,0,0,,7,,,67,127
92782,note_on,1,0,0,,3,,,63,127
92934,note_off,152,0,0,,3,,,63,127
92935,note_on,1,0,0,,11,,,46,127
93087,note_off,152,0,0,,11,,,82,127
93087,note_off,0,0,0,,7,,,79,127
93088,note_on,1,0,0,,0,,,84,127
93088,note_on,0,0,0,,8,,,80,127
93240,note_off,152,0,0,,8,,,80,127
93240,note_off,0,0,0,,0,,,84,127
93241,note_on,1,0,0,,11,,,82,127
93241,note_on,0,0,0,,7,,,79,127
93393,note_off,152,0,0,,7,,,79,127
93393,note_off,0,0,0,,11,,,82,127
93393,note_off,0,0,0,,11,,,46,127
93394,note_on,1,0,0,,2,,,74,127
93394,note_on,0,0,0,,5,,,77,127
93394,note_on,0,0,0,,8,,,80,127
93546,note_off,152,0,0,,2,,,74,127
93547,note_on,1,0,0,,8,,,68,127
93699,note_off,152,0,0,,8,,,68,127
93700,note_on,1,0,0,,5,,,65,127
93852,note_off,152,0,0,,5,,,65,127
93853,note_on,1,0,0,,11,,,46,127
94005,note_off,152,0,0,,8,,,80,127
94005,note_off,0,0,0,,5,,,77,127
94006,note_on,1,0,0,,0,,,84,127
94006,note_on,0,0,0,,8,,,80,127
94158,note_off,152,0,0,,8,,,80,127
94158,note_off,0,0,0,,0,,,84,127
94159,note_on,1,0,0,,11,,,82,127
94159,note_on,0,0,0,,7,,,79,127
94311,note_off,152,0,0,,7,,,79,127
94311,note_off,0,0,0,,11,,,82,127
94311,note_off,0,0,0,,11,,,46,127
94312,note_on,1,0,0,,2,,,74,127
94312,note_on,0,0,0,,5,,,77,127
94312,note_on,0,0,0,,8,,,80,127
94464,note_off,152,0,0,,2,,,74,127
94465,note_on,1,0,0,,8,,,68,127
94617,note_off,152,0,0,,8,,,68,127
94618,note_on,1,0,0,,5,,,65,127
94770,note_off,152,0,0,,5,,,65,127
94771,note_on,1,0,0,,11,,,46,127
94923,note_off,152,0,0,,8,,,80,127
94923,note_off,0,0,0,,5,,,77,127
94924,note_on,1,0,0,,0,,,84,127
95076,note_off,152,0,0,,0,,,84,127
95077,note_on,1,0,0,,11,,,82,127
95229,note_off,152,0,0,,11,,,82,127
95229,note_off,0,0,0,,11,,,46,127
95230,note_on,1,0,0,,2,,,50,127
95230,note_on,0,0,0,,8,,,80,127
95382,note_off,152,0,0,,8,,,80,127
95383,note_on,1,0,0,,7,,,79,127
95535,note_off,152,0,0,,7,,,79,127
95536,note_on,1,0,0,,5,,,77,127
95688,note_off,152,0,0,,5,,,77,127
95688,note_off,0,0,0,,2,,,50,127
95689,note_on,1,0,0,,3,,,51,127
95689,note_on,0,0,0,,7,,,79,127
95843,note_on,154,0,0,,3,,,87,127
95919,note_off,76,0,0,,7,,,79,127
95996,note_off,77,0,0,,3,,,87,127
95997,note_on,1,0,0,,2,,,86,127
96149,note_off,152,0,0,,2,,,86,127
96149,note_off,0,0,0,,3,,,51,127
96150,note_on,1,0,0,,8,,,56,127
96150,note_on,0,0,0,,0,,,84,127
96302,note_off,152,0,0,,0,,,84,127
96303,note_on,1,0,0,,11,,,82,127
96455,note_off,152,0,0,,11,,,82,127
96456,note_on,1,0,0,,8,,,80,127
96608,note_off,152,0,0,,8,,,80,127
96608,note_off,0,0,0,,8,,,56,127
96609,note_on,1,0,0,,11,,,58,127
96609,note_on,0,0,0,,7,,,79,127
96761,note_off,152,0,0,,7,,,79,127
96762,note_on,1,0,0,,5,,,77,127
96914,note_off,152,0,0,,5,,,77,127
96915,note_on,1,0,0,,7,,,79,127
97067,note_off,152,0,0,,7,,,79,127
97068,note_on,1,0,0,,11,,,46,127
97068,note_on,0,0,0,,8,,,80,127
97220,note_off,152,0,0,,8,,,80,127
97221,note_on,1,0,0,,7,,,79,127
97373,note_off,152,0,0,,7,,,79,127
97374,note_on,1,0,0,,5,,,77,127
97526,note_off,152,0,0,,5,,,77,127
97526,note_off,0,0,0,,11,,,46,127
97526,note_off,0,0,0,,11,,,58,127
97527,note_on,1,0,0,,3,,,75,127
97527,note_on,0,0,0,,3,,,51,127
97577,note_on,50,0,0,,5,,,77,127
97582,note_off,5,0,0,,3,,,75,127
97628,note_on,46,0,0,,3,,,75,127
97633,note_off,5,0,0,,5,,,77,127
97681,note_on,48,0,0,,2,,,74,127
97683,note_off,2,0,0,,3,,,75,127
97833,note_off,150,0,0,,2,,,74,127
97834,note_on,1,0,0,,3,,,75,127
97986,note_off,152,0,0,,3,,,75,127
97986,note_off,0,0,0,,3,,,51,127
97987,note_on,1,0,0,,8,,,68,127
97987,note_on,0,0,0,,2,,,74,127
97987,note_on,0,0,0,,5,,,77,127
98139,note_off,152,0,0,,8,,,68,127
98140,note_on,1,0,0,,5,,,65,127
98292,note_off,152,0,0,,5,,,65,127
98293,note_on,1,0,0,,2,,,62,127
98445,note_off,152,0,0,,2,,,62,127
98446,note_on,1,0,0,,11,,,46,127
98502,note_off,56,0,0,,5,,,77,127
98502,note_off,0,0,0,,2,,,74,127
98503,note_on,1,0,0,,3,,,75,127
98561,note_on,58,0,0,,2,,,74,127
98569,note_off,8,0,0,,3,,,75,127
98618,note_on,49,0,0,,0,,,72,127
98626,note_off,8,0,0,,2,,,74,127
98675,note_on,49,0,0,,2,,,74,127
98683,note_off,8,0,0,,0,,,72,127
98732,note_on,49,0,0,,3,,,75,127
98740,note_off,8,0,0,,2,,,74,127
98789,note_on,49,0,0,,5,,,77,127
98797,note_off,8,0,0,,3,,,75,127
98846,note_on,49,0,0,,7,,,79,127
98854,note_off,8,0,0,,5,,,77,127
98902,note_off,48,0,0,,11,,,46,127
98903,note_on,1,0,0,,8,,,68,127
98903,note_on,0,0,0,,5,,,77,127
98903,note_on,0,0,0,,2,,,74,127
98911,note_off,8,0,0,,7,,,79,127
99055,note_off,144,0,0,,8,,,68,127
99056,note_on,1,0,0,,5,,,65,127
99208,note_off,152,0,0,,5,,,65,127
99209,note_on,1,0,0,,2,,,62,127
99361,note_off,152,0,0,,2,,,62,127
99361,note_off,0,0,0,,2,,,74,127
99361,note_off,0,0,0,,5,,,77,127
99362,note_on,1,0,0,,11,,,46,127
99362,note_on,0,0,0,,7,,,79,127
99420,note_on,58,0,0,,5,,,77,127
99428,note_off,8,0,0,,7,,,79,127
99477,note_on,49,0,0,,3,,,75,127
99485,note_off,8,0,0,,5,,,77,127
99534,note_on,49,0,0,,2,,,74,127
99542,note_off,8,0,0,,3,,,75,127
99591,note_on,49,0,0,,3,,,75,127
99599,note_off,8,0,0,,2,,,74,127
99648,note_on,49,0,0,,5,,,77,127
99656,note_off,8,0,0,,3,,,75,127
99705,note_on,49,0,0,,7,,,79,127
99713,note_off,8,0,0,,5,,,77,127
99762,note_on,49,0,0,,8,,,80,127
99770,note_off,8,0,0,,7,,,79,127
99818,note_off,48,0,0,,11,,,46,127
99819,note_on,1,0,0,,11,,,70,127
99819,note_on,0,0,0,,3,,,75,127
99819,note_on,0,0,0,,7,,,79,127
99827,note_off,8,0,0,,8,,,80,127
99971,note_off,144,0,0,,11,,,70,127
99972,note_on,1,0,0,,7,,,67,127
100124,note_off,152,0,0,,7,,,67,127
100125,note_on,1,0,0,,3,,,63,127
100277,note_off,152,0,0,,3,,,63,127
100278,note_on,1,0,0,,11,,,46,127
100334,note_off,56,0,0,,7,,,79,127
100334,note_off,0,0,0,,3,,,75,127
100335,note_on,1,0,0,,5,,,77,127
100393,note_on,58,0,0,,3,,,75,127
100401,note_off,8,0,0,,5,,,77,127
100450,note_on,49,0,0,,2,,,74,127
100458,note_off,8,0,0,,3,,,75,127
100507,note_on,49,0,0,,3,,,75,127
100515,note_off,8,0,0,,2,,,74,127
100564,note_on,49,0,0,,5,,,77,127
100572,note_off,8,0,0,,3,,,75,127
100621,note_on,49,0,0,,7,,,79,127
100629,note_off,8,0,0,,5,,,77,127
100678,note_on,49,0,0,,8,,,80,127
100686,note_off,8,0,0,,7,,,79,127
100734,note_off,48,0,0,,11,,,46,127
100735,note_on,1,0,0,,11,,,70,127
100735,note_on,0,0,0,,7,,,79,127
100735,note_on,0,0,0,,3,,,75,127
100743,note_off,8,0,0,,8,,,80,127
100887,note_off,144,0,0,,11,,,70,127
100888,note_on,1,0,0,,7,,,67,127
101040,note_off,152,0,0,,7,,,67,127
101041,note_on,1,0,0,,3,,,63,127
101193,note_off,152,0,0,,3,,,63,127
101193,note_off,0,0,0,,3,,,75,127
101193,note_off,0,0,0,,7,,,79,127
101194,note_on,1,0,0,,11,,,46,127
101194,note_on,0,0,0,,8,,,80,127
101252,note_on,58,0,0,,7,,,79,127
101260,note_off,8,0,0,,8,,,80,127
101309,note_on,49,0,0,,5,,,77,127
101317,note_off,8,0,0,,7,,,79,127
101366,note_on,49,0,0,,3,,,75,127
101374,note_off,8,0,0,,5,,,77,127
101423,note_on,49,0,0,,5,,,77,127
101431,note_off,8,0,0,,3,,,75,127
101480,note_on,49,0,0,,7,,,79,127
101488,note_off,8,0,0,,5,,,77,127
101537,note_on,49,0,0,,8,,,80,127
101545,note_off,8,0,0,,7,,,79,127
101594,note_on,49,0,0,,11,,,82,127
101602,note_off,8,0,0,,8,,,80,127
101650,note_off,48,0,0,,11,,,46,127
101651,note_on,1,0,0,,2,,,74,127
101651,note_on,0,0,0,,5,,,77,127
101651,note_on,0,0,0,,8,,,80,127
101659,note_off,8,0,0,,11,,,82,127
101803,note_off,144,0,0,,2,,,74,127
101804,note_on,1,0,0,,8,,,68,127
101956,note_off,152,0,0,,8,,,68,127
101957,note_on,1,0,0,,5,,,65,127
102109,note_off,152,0,0,,5,,,65,127
102110,note_on,1,0,0,,11,,,46,127
102166,note_off,56,0,0,,8,,,80,127
102166,note_off,0,0,0,,5,,,77,127
102167,note_on,1,0,0,,7,,,79,127
102225,note_on,58,0,0,,5,,,77,127
102233,note_off,8,0,0,,7,,,79,127
102282,note_on,49,0,0,,3,,,75,127
102290,note_off,8,0,0,,5,,,77,127
102339,note_on,49,0,0,,5,,,77,127
102347,note_off,8,0,0,,3,,,75,127
102396,note_on,49,0,0,,7,,,79,127
102404,note_off,8,0,0,,5,,,77,127
102453,note_on,49,0,0,,8,,,80,127
102461,note_off,8,0,0,,7,,,79,127
102510,note_on,49,0,0,,11,,,82,127
102518,note_off,8,0,0,,8,,,80,127
102566,note_off,48,0,0,,11,,,46,127
102567,note_on,1,0,0,,2,,,74,127
102567,note_on,0,0,0,,5,,,77,127
102567,note_on,0,0,0,,8,,,80,127
102575,note_off,8,0,0,,11,,,82,127
102719,note_off,144,0,0,,2,,,74,127
102720,note_on,1,0,0,,8,,,68,127
102872,note_off,152,0,0,,8,,,68,127
102873,note_on,1,0,0,,5,,,65,127
103025,note_off,152,0,0,,5,,,65,127
103026,note_on,1,0,0,,11,,,46,127
103178,note_off,152,0,0,,8,,,80,127
103178,note_off,0,0,0,,5,,,77,127
103179,note_on,1,0,0,,0,,,84,127
103331,note_off,152,0,0,,0,,,84,127
103332,note_on,1,0,0,,11,,,82,127
103484,note_off,152,0,0,,11,,,82,127
103484,note_off,0,0,0,,11,,,46,127
103485,note_on,1,0,0,,2,,,50,127
103485,note_on,0,0,0,,8,,,80,127
103637,note_off,152,0,0,,8,,,80,127
103638,note_on,1,0,0,,7,,,79,127
103790,note_off,152,0,0,,7,,,79,127
103791,note_on,1,0,0,,5,,,77,127
103943,note_off,152,0,0,,5,,,77,127
103943,note_off,0,0,0,,2,,,50,127
103944,note_on,1,0,0,,3,,,51,127
103944,note_on,0,0,0,,7,,,79,127
104098,note_on,154,0,0,,3,,,87,127
104174,note_off,76,0,0,,7,,,79,127
104251,note_off,77,0,0,,3,,,87,127
104252,note_on,1,0,0,,2,,,86,127
104404,note_off,152,0,0,,2,,,86,127
104404,note_off,0,0,0,,3,,,51,127
104405,note_on,1,0,0,,8,,,56,127
104405,note_on,0,0,0,,0,,,84,127
104557,note_off,152,0,0,,0,,,84,127
104558,note_on,1,0,0,,11,,,82,127
104710,note_off,152,0,0,,11,,,82,127
104711,note_on,1,0,0,,8,,,80,127
104863,note_off,152,0,0,,8,,,80,127
104863,note_off,0,0,0,,8,,,56,127
104864,note_on,1,0,0,,11,,,58,127
104864,note_on,0,0,0,,7,,,79,127
105016,note_off,152,0,0,,7,,,79,127
105017,note_on,1,0,0,,5,,,77,127
105169,note_off,152,0,0,,5,,,77,127
105170,note_on,1,0,0,,7,,,79,127
105322,note_off,152,0,0,,7,,,79,127
105323,note_on,1,0,0,,11,,,46,127
105323,note_on,0,0,0,,8,,,80,127
105475,note_off,152,0,0,,8,,,80,127
105476,note_on,1,0,0,,7,,,79,127
105628,note_off,152,0,0,,7,,,79,127
105629,note_on,1,0,0,,5,,,77,127
105781,note_off,152,0,0,,5,,,77,127
105781,note_off,0,0,0,,11,,,46,127
105781,note_off,0,0,0,,11,,,58,127
105782,note_on,1,0,0,,3,,,75,127
105782,note_on,0,0,0,,3,,,51,127
105832,note_on,50,0,0,,5,,,77,127
105837,note_off,5,0,0,,3,,,75,127
105883,note_on,46,0,0,,3,,,75,127
105888,note_off,5,0,0,,5,,,77,127
105936,note_on,48,0,0,,2,,,74,127
105938,note_off,2,0,0,,3,,,75,127
106088,note_off,150,0,0,,2,,,74,127
106089,note_on,1,0,0,,3,,,75,127
106241,note_off,152,0,0,,3,,,75,127
106241,note_off,0,0,0,,3,,,51,127
106242,note_on,1,0,0,,3,,,63,127
106242,note_on,0,0,0,,7,,,67,127
106394,note_off,152,0,0,,7,,,67,127
106394,note_off,0,0,0,,3,,,63,127
106395,note_on,1,0,0,,5,,,65,127
106395,note_on,0,0,0,,8,,,68,127
106547,note_off,152,0,0,,8,,,68,127
106547,note_off,0,0,0,,5,,,65,127
106548,note_on,1,0,0,,7,,,67,127
106548,note_on,0,0,0,,11,,,70,127
106700,note_off,152,0,0,,11,,,70,127
106700,note_off,0,0,0,,7,,,67,127
106701,note_on,1,0,0,,8,,,68,127
106701,note_on,0,0,0,,0,,,72,127
106853,note_off,152,0,0,,0,,,72,127
106853,note_off,0,0,0,,8,,,68,127
106854,note_on,1,0,0,,11,,,70,127
106854,note_on,0,0,0,,2,,,74,127
107006,note_off,152,0,0,,2,,,74,127
107006,note_off,0,0,0,,11,,,70,127
107007,note_on,1,0,0,,0,,,72,127
107007,note_on,0,0,0,,3,,,75,127
107159,note_off,152,0,0,,3,,,75,127
107159,note_off,0,0,0,,0,,,72,127
107160,note_on,1,0,0,,11,,,46,127
107160,note_on,0,0,0,,11,,,58,127
107160,note_on,0,0,0,,8,,,80,127
107312,note_off,152,0,0,,8,,,80,127
107313,note_on,1,0,0,,7,,,79,127
107465,note_off,152,0,0,,7,,,79,127
107466,note_on,1,0,0,,5,,,77,127
107618,note_off,152,0,0,,5,,,77,127
107618,note_off,0,0,0,,11,,,58,127
107618,note_off,0,0,0,,11,,,46,127
107619,note_on,1,0,0,,3,,,75,127
107619,note_on,0,0,0,,3,,,51,127
107669,note_on,50,0,0,,5,,,77,127
107674,note_off,5,0,0,,3,,,75,127
107720,note_on,46,0,0,,3,,,75,127
107725,note_off,5,0,0,,5,,,77,127
107773,note_on,48,0,0,,2,,,74,127
107775,note_off,2,0,0,,3,,,75,127
107925,note_off,150,0,0,,2,,,74,127
107926,note_on,1,0,0,,3,,,75,127
108078,note_off,152,0,0,,3,,,75,127
108078,note_off,0,0,0,,3,,,51,127
108079,note_on,1,0,0,,3,,,63,127
108079,note_on,0,0,0,,7,,,67,127
108231,note_off,152,0,0,,7,,,67,127
108231,note_off,0,0,0,,3,,,63,127
108232,note_on,1,0,0,,5,,,65,127
108232,note_on,0,0,0,,8,,,68,127
108384,note_off,152,0,0,,8,,,68,127
108384,note_off,0,0,0,,5,,,65,127
108385,note_on,1,0,0,,7,,,67,127
108385,note_on,0,0,0,,11,,,70,127
108537,note_off,152,0,0,,11,,,70,127
108537,note_off,0,0,0,,7,,,67,127
108538,note_on,1,0,0,,8,,,68,127
108538,note_on,0,0,0,,0,,,72,127
108690,note_off,152,0,0,,0,,,72,127
108690,note_off,0,0,0,,8,,,68,127
108691,note_on,1,0,0,,11,,,70,127
108691,note_on,0,0,0,,2,,,74,127
108843,note_off,152,0,0,,2,,,74,127
108843,note_off,0,0,0,,11,,,70,127
108844,note_on,1,0,0,,0,,,72,127
108844,note_on,0,0,0,,3,,,75,127
108996,note_off,152,0,0,,3,,,75,127
108996,note_off,0,0,0,,0,,,72,127
108997,note_on,1,0,0,,11,,,46,127
108997,note_on,0,0,0,,11,,,58,127
108997,note_on,0,0,0,,8,,,80,127
109149,note_off,152,0,0,,8,,,80,127
109150,note_on,1,0,0,,7,,,79,127
109302,note_off,152,0,0,,7,,,79,127
109303,note_on,1,0,0,,5,,,77,127
109455,note_off,152,0,0,,5,,,77,127
109455,note_off,0,0,0,,11,,,58,127
109455,note_off,0,0,0,,11,,,46,127
109456,note_on,1,0,0,,3,,,51,127
109456,note_on,0,0,0,,3,,,75,127
109610,note_on,154,0,0,,3,,,87,127
109762,note_off,152,0,0,,3,,,87,127
109762,note_off,0,0,0,,3,,,75,127
109763,note_on,1,0,0,,2,,,86,127
109915,note_off,152,0,0,,2,,,86,127
109915,note_off,0,0,0,,3,,,51,127
109916,note_on,1,0,0,,8,,,56,127
109916,note_on,0,0,0,,0,,,84,127
110068,note_off,152,0,0,,0,,,84,127
110069,note_on,1,0,0,,11,,,82,127
110221,note_off,152,0,0,,11,,,82,127
110222,note_on,1,0,0,,8,,,80,127
110374,note_off,152,0,0,,8,,,80,127
110374,note_off,0,0,0,,8,,,56,127
110375,note_on,1,0,0,,11,,,58,127
110375,note_on,0,0,0,,7,,,79,127
110527,note_off,152,0,0,,7,,,79,127
110528,note_on,1,0,0,,5,,,77,127
110680,note_off,152,0,0,,5,,,77,127
110681,note_on,1,0,0,,7,,,79,127
110833,note_off,152,0,0,,7,,,79,127
110834,note_on,1,0,0,,11,,,46,127
110834,note_on,0,0,0,,8,,,80,127
110986,note_off,152,0,0,,8,,,80,127
110987,note_on,1,0,0,,7,,,79,127
111139,note_off,152,0,0,,7,,,79,127
111140,note_on,1,0,0,,5,,,77,127
111292,note_off,152,0,0,,5,,,77,127
111292,note_off,0,0,0,,11,,,46,127
111292,note_off,0,0,0,,11,,,58,127
111293,note_on,1,0,0,,3,,,75,127
111293,note_on,0,0,0,,3,,,51,127
111343,note_on,50,0,0,,5,,,77,127
111348,note_off,5,0,0,,3,,,75,127
111394,note_on,46,0,0,,3,,,75,127
111399,note_off,5,0,0,,5,,,77,127
111447,note_on,48,0,0,,2,,,74,127
111449,note_off,2,0,0,,3,,,75,127
111599,note_off,150,0,0,,2,,,74,127
111600,note_on,1,0,0,,3,,,75,127
111752,note_off,152,0,0,,3,,,75,127
111752,note_off,0,0,0,,3,,,51,127
111753,note_on,1,0,0,,3,,,63,127
111753,note_on,0,0,0,,7,,,67,127
111905,note_off,152,0,0,,7,,,67,127
111905,note_off,0,0,0,,3,,,63,127
111906,note_on,1,0,0,,5,,,65,127
111906,note_on,0,0,0,,8,,,68,127
112058,note_off,152,0,0,,8,,,68,127
112058,note_off,0,0,0,,5,,,65,127
112059,note_on,1,0,0,,7,,,67,127
112059,note_on,0,0,0,,11,,,70,127
112211,note_off,152,0,0,,11,,,70,127
112211,note_off,0,0,0,,7,,,67,127
112212,note_on,1,0,0,,8,,,68,127
112212,note_on,0,0,0,,0,,,72,127
112364,note_off,152,0,0,,0,,,72,127
112364,note_off,0,0,0,,8,,,68,127
112365,note_on,1,0,0,,11,,,70,127
112365,note_on,0,0,0,,2,,,74,127
112517,note_off,152,0,0,,2,,,74,127
112517,note_off,0,0,0,,11,,,70,127
112518,note_on,1,0,0,,0,,,72,127
112518,note_on,0,0,0,,3,,,75,127
112670,note_off,152,0,0,,3,,,75,127
112670,note_off,0,0,0,,0,,,72,127
112671,note_on,1,0,0,,11,,,46,127
112671,note_on,0,0,0,,11,,,58,127
112671,note_on,0,0,0,,8,,,80,127
112823,note_off,152,0,0,,8,,,80,127
112824,note_on,1,0,0,,7,,,79,127
112976,note_off,152,0,0,,7,,,79,127
112977,note_on,1,0,0,,5,,,77,127
113129,note_off,152,0,0,,5,,,77,127
113129,note_off,0,0,0,,11,,,58,127
113129,note_off,0,0,0,,11,,,46,127
113130,note_on,1,0,0,,3,,,75,127
113130,note_on,0,0,0,,3,,,51,127
113180,note_on,50,0,0,,5,,,77,127
113185,note_off,5,0,0,,3,,,75,127
113231,note_on,46,0,0,,3,,,75,127
113236,note_off,5,0,0,,5,,,77,127
113284,note_on,48,0,0,,2,,,74,127
113286,note_off,2,0,0,,3,,,75,127
113436,note_off,150,0,0,,2,,,74,127
113437,note_on,1,0,0,,3,,,75,127
113589,note_off,152,0,0,,3,,,75,127
113589,note_off,0,0,0,,3,,,51,127
113590,note_on,1,0,0,,3,,,63,127
113590,note_on,0,0,0,,7,,,67,127
113742,note_off,152,0,0,,7,,,67,127
113742,note_off,0,0,0,,3,,,63,127
113743,note_on,1,0,0,,5,,,65,127
113743,note_on,0,0,0,,8,,,68,127
113895,note_off,152,0,0,,8,,,68,127
113895,note_off,0,0,0,,5,,,65,127
113896,note_on,1,0,0,,7,,,67,127
113896,note_on,0,0,0,,11,,,70,127
114048,note_off,152,0,0,,11,,,70,127
114048,note_off,0,0,0,,7,,,67,127
114049,note_on,1,0,0,,8,,,68,127
114049,note_on,0,0,0,,0,,,72,127
114201,note_off,152,0,0,,0,,,72,127
114201,note_off,0,0,0,,8,,,68,127
114202,note_on,1,0,0,,11,,,70,127
114202,note_on,0,0,0,,2,,,74,127
114354,note_off,152,0,0,,2,,,74,127
114354,note_off,0,0,0,,11,,,70,127
114355,note_on,1,0,0,,0,,,72,127
114355,note_on,0,0,0,,3,,,75,127
114507,note_off,152,0,0,,3,,,75,127
114507,note_off,0,0,0,,0,,,72,127
114508,note_on,1,0,0,,11,,,46,127
114508,note_on,0,0,0,,11,,,58,127
114508,note_on,0,0,0,,8,,,80,127
114660,note_off,152,0,0,,8,,,80,127
114661,note_on,1,0,0,,7,,,79,127
114813,note_off,152,0,0,,7,,,79,127
114814,note_on,1,0,0,,5,,,77,127
114966,note_off,152,0,0,,5,,,77,127
114966,note_off,0,0,0,,11,,,58,127
114966,note_off,0,0,0,,11,,,46,127
114967,note_on,1,0,0,,3,,,51,127
114967,note_on,0,0,0,,3,,,75,127
115121,note_on,154,0,0,,3,,,87,127
115273,note_off,152,0,0,,3,,,87,127
115273,note_off,0,0,0,,3,,,75,127
115274,note_on,1,0,0,,2,,,86,127
115426,note_off,152,0,0,,2,,,86,127
115426,note_off,0,0,0,,3,,,51,127
115427,note_on,1,0,0,,8,,,56,127
115427,note_on,0,0,0,,0,,,84,127
115579,note_off,152,0,0,,0,,,84,127
115580,note_on,1,0,0,,11,,,82,127
115732,note_off,152,0,0,,11,,,82,127
115733,note_on,1,0,0,,8,,,80,127
115885,note_off,152,0,0,,8,,,80,127
115885,note_off,0,0,0,,8,,,56,127
115886,note_on,1,0,0,,11,,,58,127
115886,note_on,0,0,0,,7,,,79,127
115886,note_on,0,0,0,,3,,,75,127
116038,note_off,152,0,0,,3,,,75,127
116038,note_off,0,0,0,,7,,,79,127
116039,note_on,1,0,0,,5,,,77,127
116039,note_on,0,0,0,,2,,,74,127
116191,note_off,152,0,0,,2,,,74,127
116191,note_off,0,0,0,,5,,,77,127
116192,note_on,1,0,0,,7,,,79,127
116192,note_on,0,0,0,,3,,,75,127
116344,note_off,152,0,0,,3,,,75,127
116344,note_off,0,0,0,,7,,,79,127
116345,note_on,1,0,0,,11,,,46,127
116345,note_on,0,0,0,,8,,,80,127
116345,note_on,0,0,0,,5,,,77,127
116497,note_off,152,0,0,,5,,,77,127
116497,note_off,0,0,0,,8,,,80,127
116498,note_on,1,0,0,,3,,,75,127
116498,note_on,0,0,0,,7,,,79,127
116650,note_off,152,0,0,,7,,,79,127
116650,note_off,0,0,0,,3,,,75,127
116651,note_on,1,0,0,,2,,,74,127
116651,note_on,0,0,0,,5,,,77,127
116803,note_off,152,0,0,,5,,,77,127
116803,note_off,0,0,0,,2,,,74,127
116803,note_off,0,0,0,,11,,,46,127
116803,note_off,0,0,0,,11,,,58,127
116804,note_on,1,0,0,,3,,,51,127
116804,note_on,0,0,0,,3,,,75,127
116956,note_off,152,0,0,,3,,,75,127
116957,note_on,1,0,0,,3,,,75,127
117109,note_off,152,0,0,,3,,,75,127
117110,note_on,1,0,0,,2,,,74,127
117262,note_off,152,0,0,,2,,,74,127
117262,note_off,0,0,0,,3,,,51,127
117263,note_on,1,0,0,,8,,,56,127
117263,note_on,0,0,0,,0,,,72,127
117415,note_off,152,0,0,,0,,,72,127
117416,note_on,1,0,0,,11,,,70,127
117568,note_off,152,0,0,,11,,,70,127
117569,note_on,1,0,0,,8,,,68,127
117721,note_off,152,0,0,,8,,,68,127
117721,note_off,0,0,0,,8,,,56,127
117722,note_on,1,0,0,,11,,,58,127
117722,note_on,0,0,0,,7,,,67,127
117722,note_on,0,0,0,,3,,,63,127
117874,note_off,152,0,0,,3,,,63,127
117874,note_off,0,0,0,,7,,,67,127
117875,note_on,1,0,0,,5,,,65,127
117875,note_on,0,0,0,,2,,,62,127
118027,note_off,152,0,0,,2,,,62,127
118027,note_off,0,0,0,,5,,,65,127
118028,note_on,1,0,0,,7,,,67,127
118028,note_on,0,0,0,,3,,,63,127
118180,note_off,152,0,0,,3,,,63,127
118180,note_off,0,0,0,,7,,,67,127
118181,note_on,1,0,0,,11,,,46,127
118181,note_on,0,0,0,,8,,,68,127
118181,note_on,0,0,0,,5,,,65,127
118333,note_off,152,0,0,,5,,,65,127
118333,note_off,0,0,0,,8,,,68,127
118334,note_on,1,0,0,,3,,,63,127
118334,note_on,0,0,0,,7,,,67,127
118486,note_off,152,0,0,,7,,,67,127
118486,note_off,0,0,0,,3,,,63,127
118487,note_on,1,0,0,,5,,,65,127
118487,note_on,0,0,0,,2,,,62,127
118639,note_off,152,0,0,,2,,,62,127
118639,note_off,0,0,0,,5,,,65,127
118639,note_off,0,0,0,,11,,,46,127
118639,note_off,0,0,0,,11,,,58,127
118640,note_on,1,0,0,,3,,,39,127
118640,note_on,0,0,0,,3,,,51,127
118640,note_on,0,0,0,,5,,,65,127
118640,note_on,0,0,0,,2,,,62,127
119216,note_off,576,0,0,,2,,,62,127
119216,note_off,0,0,0,,5,,,65,127
119216,note_on,0,0,0,,3,,,63,127
120944,note_off,1728,0,0,,3,,,63,127
120944,note_off,0,0,0,,3,,,51,127
120944,note_off,0,0,0,,3,,,39,127
121344,end_of_track,400,1,0,,,,,,
