tick,type,time,meta,track,program,channel,pitch,tempo,note,velocity
0,copyright,0,1,0,,,,,,
0,program_change,0,0,0,6,0,,,,
0,pitchwheel,0,0,0,,0,0,,,
0,program_change,0,0,0,6,1,,,,
0,pitchwheel,0,0,0,,1,-590,,,
0,program_change,0,0,0,6,2,,,,
0,pitchwheel,0,0,0,,2,-272,,,
0,program_change,0,0,0,6,3,,,,
0,pitchwheel,0,0,0,,3,-353,,,
0,program_change,0,0,0,6,4,,,,
0,pitchwheel,0,0,0,,4,-560,,,
0,program_change,0,0,0,6,5,,,,
0,pitchwheel,0,0,0,,5,-80,,,
0,program_change,0,0,0,6,6,,,,
0,pitchwheel,0,0,0,,6,-625,,,
0,program_change,0,0,0,6,7,,,,
0,pitchwheel,0,0,0,,7,-130,,,
0,program_change,0,0,0,6,8,,,,
0,pitchwheel,0,0,0,,8,-512,,,
0,program_change,0,0,0,6,10,,,,
0,pitchwheel,0,0,0,,10,-464,,,
0,program_change,0,0,0,6,11,,,,
0,pitchwheel,0,0,0,,11,-208,,,
0,program_change,0,0,0,6,12,,,,
0,pitchwheel,0,0,0,,12,-553,,,
0,set_tempo,0,1,0,,,,500000,,
115,note_on,115,0,0,,3,,,75,127
344,note_off,229,0,0,,3,,,75,127
345,note_on,1,0,0,,2,,,74,127
459,note_off,114,0,0,,2,,,74,127
460,note_on,1,0,0,,0,,,72,127
574,note_off,114,0,0,,0,,,72,127
575,note_on,1,0,0,,0,,,72,127
689,note_off,114,0,0,,0,,,72,127
690,note_on,1,0,0,,11,,,70,127
804,note_off,114,0,0,,11,,,70,127
805,note_on,1,0,0,,8,,,68,127
919,note_off,114,0,0,,8,,,68,127
920,note_on,1,0,0,,7,,,67,127
1034,note_off,114,0,0,,7,,,67,127
1035,note_on,1,0,0,,5,,,65,127
1264,note_off,229,0,0,,5,,,65,127
1265,note_on,1,0,0,,7,,,67,127
1379,note_off,114,0,0,,7,,,67,127
1380,note_on,1,0,0,,8,,,68,127
1494,note_off,114,0,0,,8,,,68,127
1495,note_on,1,0,0,,3,,,63,127
1495,note_on,0,0,0,,8,,,68,127
1724,note_off,229,0,0,,3,,,63,127
1725,note_on,1,0,0,,2,,,62,127
1839,note_off,114,0,0,,2,,,62,127
1840,note_on,1,0,0,,0,,,60,127
1954,note_off,114,0,0,,0,,,60,127
1954,note_off,0,0,0,,8,,,68,127
1955,note_on,1,0,0,,0,,,60,127
1955,note_on,0,0,0,,7,,,67,127
2069,note_off,114,0,0,,0,,,60,127
2070,note_on,1,0,0,,11,,,58,127
2184,note_off,114,0,0,,11,,,58,127
2185,note_on,1,0,0,,8,,,56,127
2299,note_off,114,0,0,,8,,,56,127
2300,note_on,1,0,0,,7,,,55,127
2414,note_off,114,0,0,,7,,,55,127
2414,note_off,0,0,0,,7,,,67,127
2415,note_on,1,0,0,,5,,,53,127
2415,note_on,0,0,0,,11,,,70,127
2529,note_off,114,0,0,,11,,,70,127
2530,note_on,1,0,0,,8,,,68,127
2644,note_off,114,0,0,,8,,,68,127
2644,note_off,0,0,0,,5,,,53,127
2645,note_on,1,0,0,,7,,,55,127
2645,note_on,0,0,0,,7,,,67,127
2759,note_off,114,0,0,,7,,,67,127
2759,note_off,0,0,0,,7,,,55,127
2760,note_on,1,0,0,,8,,,56,127
2760,note_on,0,0,0,,8,,,68,127
2874,note_off,114,0,0,,8,,,68,127
2874,note_off,0,0,0,,8,,,56,127
2875,note_on,1,0,0,,7,,,55,127
2875,note_on,0,0,0,,11,,,82,127
2875,note_on,0,0,0,,11,,,70,127
3104,note_off,229,0,0,,11,,,70,127
3104,note_off,0,0,0,,11,,,82,127
3105,note_on,1,0,0,,8,,,80,127
3219,note_off,114,0,0,,8,,,80,127
3220,note_on,1,0,0,,7,,,79,127
3334,note_off,114,0,0,,7,,,79,127
3334,note_off,0,0,0,,7,,,55,127
3335,note_on,1,0,0,,8,,,56,127
3335,note_on,0,0,0,,7,,,79,127
3449,note_off,114,0,0,,7,,,79,127
3450,note_on,1,0,0,,5,,,77,127
3564,note_off,114,0,0,,5,,,77,127
3565,note_on,1,0,0,,3,,,75,127
3679,note_off,114,0,0,,3,,,75,127
3680,note_on,1,0,0,,2,,,74,127
3794,note_off,114,0,0,,2,,,74,127
3794,note_off,0,0,0,,8,,,56,127
3795,note_on,1,0,0,,0,,,60,127
3795,note_on,0,0,0,,0,,,72,127
4024,note_off,229,0,0,,0,,,72,127
4025,note_on,1,0,0,,2,,,74,127
4139,note_off,114,0,0,,2,,,74,127
4140,note_on,1,0,0,,3,,,75,127
4254,note_off,114,0,0,,3,,,75,127
4254,note_off,0,0,0,,0,,,60,127
4255,note_on,1,0,0,,11,,,70,127
4255,note_on,0,0,0,,3,,,75,127
4255,note_on,0,0,0,,11,,,58,127
4484,note_off,229,0,0,,11,,,58,127
4484,note_off,0,0,0,,11,,,70,127
4485,note_on,1,0,0,,8,,,68,127
4599,note_off,114,0,0,,8,,,68,127
4600,note_on,1,0,0,,7,,,67,127
4714,note_off,114,0,0,,7,,,67,127
4714,note_off,0,0,0,,3,,,75,127
4715,note_on,1,0,0,,7,,,67,127
4715,note_on,0,0,0,,2,,,74,127
4829,note_off,114,0,0,,7,,,67,127
4830,note_on,1,0,0,,5,,,65,127
4944,note_off,114,0,0,,5,,,65,127
4945,note_on,1,0,0,,3,,,63,127
5059,note_off,114,0,0,,3,,,63,127
5060,note_on,1,0,0,,2,,,62,127
5174,note_off,114,0,0,,2,,,62,127
5174,note_off,0,0,0,,2,,,74,127
5175,note_on,1,0,0,,0,,,60,127
5175,note_on,0,0,0,,5,,,77,127
5289,note_off,114,0,0,,5,,,77,127
5290,note_on,1,0,0,,3,,,75,127
5404,note_off,114,0,0,,3,,,75,127
5404,note_off,0,0,0,,0,,,60,127
5405,note_on,1,0,0,,2,,,62,127
5405,note_on,0,0,0,,2,,,74,127
5519,note_off,114,0,0,,2,,,74,127
5519,note_off,0,0,0,,2,,,62,127
5520,note_on,1,0,0,,3,,,63,127
5520,note_on,0,0,0,,3,,,75,127
5634,note_off,114,0,0,,3,,,75,127
5634,note_off,0,0,0,,3,,,63,127
5635,note_on,1,0,0,,2,,,62,127
5635,note_on,0,0,0,,5,,,65,127
5635,note_on,0,0,0,,5,,,77,127
5865,note_on,230,0,0,,11,,,70,127
5980,note_off,115,0,0,,5,,,77,127
6094,note_off,114,0,0,,11,,,70,127
6094,note_off,0,0,0,,5,,,65,127
6094,note_off,0,0,0,,2,,,62,127
6095,note_on,1,0,0,,5,,,65,127
6095,note_on,0,0,0,,2,,,62,127
6095,note_on,0,0,0,,11,,,82,127
6209,note_off,114,0,0,,11,,,82,127
6210,note_on,1,0,0,,8,,,80,127
6324,note_off,114,0,0,,8,,,80,127
6325,note_on,1,0,0,,7,,,79,127
6439,note_off,114,0,0,,7,,,79,127
6440,note_on,1,0,0,,5,,,77,127
6554,note_off,114,0,0,,5,,,77,127
6554,note_off,0,0,0,,2,,,62,127
6554,note_off,0,0,0,,5,,,65,127
6555,note_on,1,0,0,,7,,,67,127
6555,note_on,0,0,0,,3,,,63,127
6555,note_on,0,0,0,,5,,,77,127
6669,note_off,114,0,0,,5,,,77,127
6670,note_on,1,0,0,,3,,,75,127
6784,note_off,114,0,0,,3,,,75,127
6785,note_on,1,0,0,,2,,,74,127
6899,note_off,114,0,0,,2,,,74,127
6900,note_on,1,0,0,,3,,,75,127
7014,note_off,114,0,0,,3,,,75,127
7014,note_off,0,0,0,,3,,,63,127
7014,note_off,0,0,0,,7,,,67,127
7015,note_on,1,0,0,,5,,,65,127
7015,note_on,0,0,0,,2,,,62,127
7015,note_on,0,0,0,,5,,,77,127
7245,note_on,230,0,0,,11,,,70,127
7360,note_off,115,0,0,,5,,,77,127
7474,note_off,114,0,0,,11,,,70,127
7474,note_off,0,0,0,,2,,,62,127
7474,note_off,0,0,0,,5,,,65,127
7475,note_on,1,0,0,,5,,,65,127
7475,note_on,0,0,0,,2,,,62,127
7475,note_on,0,0,0,,11,,,82,127
7589,note_off,114,0,0,,11,,,82,127
7590,note_on,1,0,0,,8,,,80,127
7704,note_off,114,0,0,,8,,,80,127
7705,note_on,1,0,0,,7,,,79,127
7819,note_off,114,0,0,,7,,,79,127
7820,note_on,1,0,0,,5,,,77,127
7934,note_off,114,0,0,,5,,,77,127
7934,note_off,0,0,0,,2,,,62,127
7934,note_off,0,0,0,,5,,,65,127
7935,note_on,1,0,0,,3,,,63,127
7935,note_on,0,0,0,,7,,,67,127
7935,note_on,0,0,0,,5,,,77,127
8049,note_off,114,0,0,,5,,,77,127
8050,note_on,1,0,0,,3,,,75,127
8164,note_off,114,0,0,,3,,,75,127
8165,note_on,1,0,0,,2,,,74,127
8279,note_off,114,0,0,,2,,,74,127
8280,note_on,1,0,0,,3,,,75,127
8394,note_off,114,0,0,,3,,,75,127
8394,note_off,0,0,0,,7,,,67,127
8394,note_off,0,0,0,,3,,,63,127
8395,note_on,1,0,0,,5,,,65,127
8395,note_on,0,0,0,,5,,,77,127
8624,note_off,229,0,0,,5,,,65,127
8625,note_on,1,0,0,,11,,,58,127
8854,note_off,229,0,0,,5,,,77,127
8855,note_on,1,0,0,,8,,,68,127
8855,note_on,0,0,0,,2,,,74,127
8855,note_on,0,0,0,,5,,,77,127
9084,note_off,229,0,0,,8,,,68,127
9085,note_on,1,0,0,,7,,,67,127
9199,note_off,114,0,0,,7,,,67,127
9200,note_on,1,0,0,,5,,,65,127
9314,note_off,114,0,0,,5,,,65,127
9314,note_off,0,0,0,,5,,,77,127
9314,note_off,0,0,0,,2,,,74,127
9315,note_on,1,0,0,,5,,,65,127
9315,note_on,0,0,0,,3,,,75,127
9315,note_on,0,0,0,,7,,,79,127
9429,note_off,114,0,0,,5,,,65,127
9430,note_on,1,0,0,,3,,,63,127
9544,note_off,114,0,0,,3,,,63,127
9545,note_on,1,0,0,,2,,,62,127
9659,note_off,114,0,0,,2,,,62,127
9660,note_on,1,0,0,,3,,,63,127
9774,note_off,114,0,0,,3,,,63,127
9774,note_off,0,0,0,,7,,,79,127
9774,note_off,0,0,0,,3,,,75,127
9775,note_on,1,0,0,,5,,,65,127
9775,note_on,0,0,0,,2,,,74,127
9775,note_on,0,0,0,,5,,,77,127
10004,note_off,229,0,0,,5,,,65,127
10004,note_off,0,0,0,,11,,,58,127
10005,note_on,1,0,0,,11,,,58,127
10234,note_off,229,0,0,,5,,,77,127
10234,note_off,0,0,0,,2,,,74,127
10235,note_on,1,0,0,,8,,,68,127
10235,note_on,0,0,0,,2,,,74,127
10235,note_on,0,0,0,,5,,,77,127
10464,note_off,229,0,0,,8,,,68,127
10465,note_on,1,0,0,,7,,,67,127
10579,note_off,114,0,0,,7,,,67,127
10580,note_on,1,0,0,,5,,,65,127
10694,note_off,114,0,0,,5,,,65,127
10694,note_off,0,0,0,,5,,,77,127
10694,note_off,0,0,0,,2,,,74,127
10695,note_on,1,0,0,,5,,,65,127
10695,note_on,0,0,0,,7,,,79,127
10695,note_on,0,0,0,,3,,,75,127
10809,note_off,114,0,0,,5,,,65,127
10810,note_on,1,0,0,,3,,,63,127
10924,note_off,114,0,0,,3,,,63,127
10925,note_on,1,0,0,,2,,,62,127
11039,note_off,114,0,0,,2,,,62,127
11040,note_on,1,0,0,,3,,,63,127
11154,note_off,114,0,0,,3,,,63,127
11154,note_off,0,0,0,,3,,,75,127
11154,note_off,0,0,0,,7,,,79,127
11155,note_on,1,0,0,,5,,,65,127
11155,note_on,0,0,0,,5,,,77,127
11384,note_off,229,0,0,,11,,,58,127
11385,note_on,1,0,0,,11,,,70,127
11500,note_off,115,0,0,,5,,,77,127
11614,note_off,114,0,0,,11,,,70,127
11614,note_off,0,0,0,,5,,,65,127
11615,note_on,1,0,0,,11,,,58,127
11615,note_on,0,0,0,,5,,,65,127
11615,note_on,0,0,0,,5,,,77,127
11844,note_off,229,0,0,,5,,,77,127
11845,note_on,1,0,0,,3,,,75,127
11959,note_off,114,0,0,,3,,,75,127
11960,note_on,1,0,0,,2,,,74,127
12074,note_off,114,0,0,,2,,,74,127
12074,note_off,0,0,0,,5,,,65,127
12074,note_off,0,0,0,,11,,,58,127
12075,note_on,1,0,0,,0,,,60,127
12075,note_on,0,0,0,,8,,,56,127
12075,note_on,0,0,0,,5,,,65,127
12075,note_on,0,0,0,,2,,,74,127
12189,note_off,114,0,0,,2,,,74,127
12190,note_on,1,0,0,,0,,,72,127
12304,note_off,114,0,0,,0,,,72,127
12305,note_on,1,0,0,,12,,,71,127
12419,note_off,114,0,0,,12,,,71,127
12420,note_on,1,0,0,,0,,,72,127
12534,note_off,114,0,0,,0,,,72,127
12534,note_off,0,0,0,,5,,,65,127
12534,note_off,0,0,0,,8,,,56,127
12534,note_off,0,0,0,,0,,,60,127
12535,note_on,1,0,0,,2,,,62,127
12535,note_on,0,0,0,,7,,,55,127
12535,note_on,0,0,0,,5,,,65,127
12535,note_on,0,0,0,,2,,,74,127
12765,note_on,230,0,0,,7,,,67,127
12880,note_off,115,0,0,,2,,,74,127
12994,note_off,114,0,0,,7,,,67,127
12994,note_off,0,0,0,,5,,,65,127
12994,note_off,0,0,0,,7,,,55,127
12994,note_off,0,0,0,,2,,,62,127
12995,note_on,1,0,0,,2,,,62,127
12995,note_on,0,0,0,,7,,,55,127
12995,note_on,0,0,0,,5,,,65,127
12995,note_on,0,0,0,,7,,,79,127
13109,note_off,114,0,0,,7,,,79,127
13110,note_on,1,0,0,,5,,,77,127
13224,note_off,114,0,0,,5,,,77,127
13225,note_on,1,0,0,,3,,,75,127
13339,note_off,114,0,0,,3,,,75,127
13340,note_on,1,0,0,,2,,,74,127
13454,note_off,114,0,0,,2,,,74,127
13454,note_off,0,0,0,,5,,,65,127
13454,note_off,0,0,0,,7,,,55,127
13454,note_off,0,0,0,,2,,,62,127
13455,note_on,1,0,0,,7,,,55,127
13455,note_on,0,0,0,,0,,,60,127
13455,note_on,0,0,0,,3,,,63,127
13455,note_on,0,0,0,,2,,,74,127
13569,note_off,114,0,0,,2,,,74,127
13570,note_on,1,0,0,,0,,,72,127
13684,note_off,114,0,0,,0,,,72,127
13685,note_on,1,0,0,,12,,,71,127
13799,note_off,114,0,0,,12,,,71,127
13800,note_on,1,0,0,,0,,,72,127
13914,note_off,114,0,0,,0,,,72,127
13914,note_off,0,0,0,,3,,,63,127
13914,note_off,0,0,0,,0,,,60,127
13914,note_off,0,0,0,,7,,,55,127
13915,note_on,1,0,0,,7,,,55,127
13915,note_on,0,0,0,,2,,,62,127
13915,note_on,0,0,0,,12,,,59,127
13915,note_on,0,0,0,,2,,,74,127
14145,note_on,230,0,0,,7,,,67,127
14260,note_off,115,0,0,,2,,,74,127
14374,note_off,114,0,0,,7,,,67,127
14374,note_off,0,0,0,,12,,,59,127
14374,note_off,0,0,0,,2,,,62,127
14374,note_off,0,0,0,,7,,,55,127
14375,note_on,1,0,0,,12,,,59,127
14375,note_on,0,0,0,,7,,,55,127
14375,note_on,0,0,0,,2,,,62,127
14375,note_on,0,0,0,,7,,,79,127
14489,note_off,114,0,0,,7,,,79,127
14490,note_on,1,0,0,,5,,,77,127
14604,note_off,114,0,0,,5,,,77,127
14605,note_on,1,0,0,,3,,,75,127
14719,note_off,114,0,0,,3,,,75,127
14720,note_on,1,0,0,,2,,,74,127
14834,note_off,114,0,0,,2,,,74,127
14834,note_off,0,0,0,,2,,,62,127
14834,note_off,0,0,0,,7,,,55,127
14834,note_off,0,0,0,,12,,,59,127
14835,note_on,1,0,0,,0,,,60,127
14835,note_on,0,0,0,,7,,,55,127
14835,note_on,0,0,0,,3,,,63,127
14835,note_on,0,0,0,,2,,,74,127
14949,note_off,114,0,0,,2,,,74,127
14950,note_on,1,0,0,,0,,,72,127
15064,note_off,114,0,0,,0,,,72,127
15065,note_on,1,0,0,,12,,,71,127
15179,note_off,114,0,0,,12,,,71,127
15180,note_on,1,0,0,,0,,,72,127
15294,note_off,114,0,0,,0,,,72,127
15294,note_off,0,0,0,,3,,,63,127
15294,note_off,0,0,0,,7,,,55,127
15294,note_off,0,0,0,,0,,,60,127
15295,note_on,1,0,0,,7,,,55,127
15295,note_on,0,0,0,,2,,,62,127
15295,note_on,0,0,0,,2,,,74,127
15524,note_off,229,0,0,,2,,,62,127
15524,note_off,0,0,0,,7,,,55,127
15525,note_on,1,0,0,,7,,,55,127
15754,note_off,229,0,0,,2,,,74,127
15755,note_on,1,0,0,,5,,,65,127
15755,note_on,0,0,0,,12,,,71,127
15755,note_on,0,0,0,,2,,,74,127
15984,note_off,229,0,0,,5,,,65,127
15985,note_on,1,0,0,,3,,,63,127
16099,note_off,114,0,0,,3,,,63,127
16100,note_on,1,0,0,,2,,,62,127
16214,note_off,114,0,0,,2,,,62,127
16214,note_off,0,0,0,,2,,,74,127
16214,note_off,0,0,0,,12,,,71,127
16215,note_on,1,0,0,,2,,,62,127
16215,note_on,0,0,0,,3,,,75,127
16215,note_on,0,0,0,,0,,,72,127
16329,note_off,114,0,0,,2,,,62,127
16330,note_on,1,0,0,,0,,,60,127
16444,note_off,114,0,0,,0,,,60,127
16445,note_on,1,0,0,,12,,,59,127
16559,note_off,114,0,0,,12,,,59,127
16560,note_on,1,0,0,,0,,,60,127
16674,note_off,114,0,0,,0,,,60,127
16674,note_off,0,0,0,,0,,,72,127
16674,note_off,0,0,0,,3,,,75,127
16675,note_on,1,0,0,,2,,,62,127
16675,note_on,0,0,0,,2,,,74,127
16675,note_on,0,0,0,,12,,,71,127
16904,note_off,229,0,0,,2,,,62,127
16904,note_off,0,0,0,,7,,,55,127
16905,note_on,1,0,0,,7,,,55,127
17134,note_off,229,0,0,,12,,,71,127
17134,note_off,0,0,0,,2,,,74,127
17135,note_on,1,0,0,,5,,,65,127
17135,note_on,0,0,0,,12,,,71,127
17135,note_on,0,0,0,,2,,,74,127
17364,note_off,229,0,0,,5,,,65,127
17365,note_on,1,0,0,,3,,,63,127
17479,note_off,114,0,0,,3,,,63,127
17480,note_on,1,0,0,,2,,,62,127
17594,note_off,114,0,0,,2,,,62,127
17594,note_off,0,0,0,,2,,,74,127
17594,note_off,0,0,0,,12,,,71,127
17595,note_on,1,0,0,,2,,,62,127
17595,note_on,0,0,0,,3,,,75,127
17595,note_on,0,0,0,,0,,,72,127
17709,note_off,114,0,0,,2,,,62,127
17710,note_on,1,0,0,,0,,,60,127
17824,note_off,114,0,0,,0,,,60,127
17825,note_on,1,0,0,,12,,,59,127
17939,note_off,114,0,0,,12,,,59,127
17940,note_on,1,0,0,,0,,,60,127
18054,note_off,114,0,0,,0,,,60,127
18054,note_off,0,0,0,,0,,,72,127
18054,note_off,0,0,0,,3,,,75,127
18055,note_on,1,0,0,,2,,,62,127
18055,note_on,0,0,0,,2,,,74,127
18284,note_off,229,0,0,,7,,,55,127
18285,note_on,1,0,0,,7,,,67,127
18400,note_off,115,0,0,,2,,,74,127
18514,note_off,114,0,0,,7,,,67,127
18514,note_off,0,0,0,,2,,,62,127
18515,note_on,1,0,0,,7,,,55,127
18515,note_on,0,0,0,,2,,,62,127
18515,note_on,0,0,0,,7,,,79,127
18629,note_off,114,0,0,,7,,,79,127
18630,note_on,1,0,0,,5,,,77,127
18744,note_off,114,0,0,,5,,,77,127
18745,note_on,1,0,0,,3,,,75,127
18859,note_off,114,0,0,,3,,,75,127
18860,note_on,1,0,0,,2,,,74,127
18974,note_off,114,0,0,,2,,,74,127
18974,note_off,0,0,0,,2,,,62,127
18974,note_off,0,0,0,,7,,,55,127
18975,note_on,1,0,0,,5,,,65,127
18975,note_on,0,0,0,,8,,,56,127
18975,note_on,0,0,0,,2,,,74,127
19089,note_off,114,0,0,,2,,,74,127
19090,note_on,1,0,0,,0,,,72,127
19204,note_off,114,0,0,,0,,,72,127
19205,note_on,1,0,0,,12,,,71,127
19319,note_off,114,0,0,,12,,,71,127
19320,note_on,1,0,0,,0,,,72,127
19434,note_off,114,0,0,,0,,,72,127
19434,note_off,0,0,0,,8,,,56,127
19434,note_off,0,0,0,,5,,,65,127
19435,note_on,1,0,0,,7,,,55,127
19435,note_on,0,0,0,,5,,,65,127
19435,note_on,0,0,0,,2,,,74,127
19665,note_on,230,0,0,,7,,,67,127
19780,note_off,115,0,0,,2,,,74,127
19894,note_off,114,0,0,,7,,,67,127
19894,note_off,0,0,0,,5,,,65,127
19894,note_off,0,0,0,,7,,,55,127
19895,note_on,1,0,0,,7,,,55,127
19895,note_on,0,0,0,,5,,,65,127
19895,note_on,0,0,0,,7,,,79,127
20009,note_off,114,0,0,,7,,,79,127
20010,note_on,1,0,0,,5,,,77,127
20124,note_off,114,0,0,,5,,,77,127
20125,note_on,1,0,0,,3,,,75,127
20239,note_off,114,0,0,,3,,,75,127
20240,note_on,1,0,0,,2,,,74,127
20354,note_off,114,0,0,,2,,,74,127
20354,note_off,0,0,0,,5,,,65,127
20354,note_off,0,0,0,,7,,,55,127
20355,note_on,1,0,0,,5,,,65,127
20355,note_on,0,0,0,,8,,,56,127
20355,note_on,0,0,0,,2,,,74,127
20355,note_on,0,0,0,,3,,,75,127
20469,note_off,114,0,0,,3,,,75,127
20469,note_off,0,0,0,,2,,,74,127
20470,note_on,1,0,0,,0,,,72,127
20584,note_off,114,0,0,,0,,,72,127
20585,note_on,1,0,0,,12,,,71,127
20699,note_off,114,0,0,,12,,,71,127
20700,note_on,1,0,0,,0,,,72,127
20814,note_off,114,0,0,,0,,,72,127
20814,note_off,0,0,0,,8,,,56,127
20814,note_off,0,0,0,,5,,,65,127
20815,note_on,1,0,0,,7,,,55,127
21333,note_on,518,0,0,,12,,,59,127
21389,note_off,56,0,0,,12,,,59,127
21390,note_on,1,0,0,,10,,,57,127
21446,note_off,56,0,0,,10,,,57,127
21447,note_on,1,0,0,,0,,,60,127
21503,note_off,56,0,0,,0,,,60,127
21504,note_on,1,0,0,,12,,,59,127
21560,note_off,56,0,0,,12,,,59,127
21561,note_on,1,0,0,,2,,,62,127
21617,note_off,56,0,0,,2,,,62,127
21618,note_on,1,0,0,,0,,,60,127
21674,note_off,56,0,0,,0,,,60,127
21675,note_on,1,0,0,,3,,,63,127
21731,note_off,56,0,0,,3,,,63,127
21732,note_on,1,0,0,,2,,,62,127
21788,note_off,56,0,0,,2,,,62,127
21789,note_on,1,0,0,,5,,,65,127
21845,note_off,56,0,0,,5,,,65,127
21846,note_on,1,0,0,,3,,,63,127
21902,note_off,56,0,0,,3,,,63,127
21903,note_on,1,0,0,,7,,,67,127
21959,note_off,56,0,0,,7,,,67,127
21960,note_on,1,0,0,,5,,,65,127
22016,note_off,56,0,0,,5,,,65,127
22017,note_on,1,0,0,,8,,,68,127
22073,note_off,56,0,0,,8,,,68,127
22074,note_on,1,0,0,,7,,,67,127
22130,note_off,56,0,0,,7,,,67,127
22131,note_on,1,0,0,,12,,,71,127
22187,note_off,56,0,0,,12,,,71,127
22188,note_on,1,0,0,,10,,,69,127
22244,note_off,56,0,0,,10,,,69,127
22245,note_on,1,0,0,,0,,,72,127
22301,note_off,56,0,0,,0,,,72,127
22302,note_on,1,0,0,,12,,,71,127
22358,note_off,56,0,0,,12,,,71,127
22359,note_on,1,0,0,,2,,,74,127
22415,note_off,56,0,0,,2,,,74,127
22416,note_on,1,0,0,,0,,,72,127
22472,note_off,56,0,0,,0,,,72,127
22473,note_on,1,0,0,,3,,,75,127
22529,note_off,56,0,0,,3,,,75,127
22530,note_on,1,0,0,,2,,,74,127
22586,note_off,56,0,0,,2,,,74,127
22587,note_on,1,0,0,,5,,,77,127
22643,note_off,56,0,0,,5,,,77,127
22644,note_on,1,0,0,,3,,,75,127
22700,note_off,56,0,0,,3,,,75,127
22701,note_on,1,0,0,,7,,,79,127
22757,note_off,56,0,0,,7,,,79,127
22758,note_on,1,0,0,,7,,,79,127
22814,note_off,56,0,0,,7,,,79,127
22815,note_on,1,0,0,,6,,,78,127
22852,note_off,37,0,0,,6,,,78,127
22853,note_on,1,0,0,,7,,,79,127
22890,note_off,37,0,0,,7,,,79,127
22891,note_on,1,0,0,,6,,,78,127
22928,note_off,37,0,0,,6,,,78,127
22929,note_on,1,0,0,,7,,,79,127
22966,note_off,37,0,0,,7,,,79,127
22967,note_on,1,0,0,,6,,,78,127
23004,note_off,37,0,0,,6,,,78,127
23005,note_on,1,0,0,,7,,,79,127
23042,note_off,37,0,0,,7,,,79,127
23043,note_on,1,0,0,,6,,,78,127
23080,note_off,37,0,0,,6,,,78,127
23081,note_on,1,0,0,,7,,,79,127
23118,note_off,37,0,0,,7,,,79,127
23119,note_on,1,0,0,,6,,,78,127
23156,note_off,37,0,0,,6,,,78,127
23157,note_on,1,0,0,,7,,,79,127
23194,note_off,37,0,0,,7,,,79,127
23195,note_on,1,0,0,,6,,,78,127
23232,note_off,37,0,0,,6,,,78,127
23233,note_on,1,0,0,,7,,,79,127
23270,note_off,37,0,0,,7,,,79,127
23271,note_on,1,0,0,,6,,,78,127
23308,note_off,37,0,0,,6,,,78,127
23309,note_on,1,0,0,,7,,,79,127
23346,note_off,37,0,0,,7,,,79,127
23347,note_on,1,0,0,,6,,,78,127
23384,note_off,37,0,0,,6,,,78,127
23385,note_on,1,0,0,,4,,,76,127
23422,note_off,37,0,0,,4,,,76,127
23423,note_on,1,0,0,,6,,,78,127
23460,note_off,37,0,0,,6,,,78,127
23461,note_on,1,0,0,,7,,,79,127
23498,note_off,37,0,0,,7,,,79,127
23499,note_on,1,0,0,,10,,,81,127
23536,note_off,37,0,0,,10,,,81,127
23537,note_on,1,0,0,,7,,,79,127
23997,note_off,460,0,0,,7,,,79,127
23998,note_on,1,0,0,,2,,,74,127
24112,note_off,114,0,0,,2,,,74,127
24113,note_on,1,0,0,,3,,,75,127
24227,note_off,114,0,0,,3,,,75,127
24228,note_on,1,0,0,,12,,,71,127
24342,note_off,114,0,0,,12,,,71,127
24343,note_on,1,0,0,,0,,,72,127
24457,note_off,114,0,0,,0,,,72,127
24458,note_on,1,0,0,,6,,,66,127
24802,note_off,344,0,0,,6,,,66,127
24803,note_on,1,0,0,,10,,,69,127
24917,note_off,114,0,0,,10,,,69,127
24918,note_on,1,0,0,,7,,,67,127
25166,note_off,248,0,0,,7,,,55,127
25378,note_on,212,0,0,,7,,,43,127
25838,note_off,460,0,0,,7,,,67,127
26761,note_off,923,0,0,,7,,,43,127
26780,note_on,19,0,0,,2,,,86,127
26894,note_off,114,0,0,,2,,,86,127
26895,note_on,1,0,0,,12,,,83,127
27009,note_off,114,0,0,,12,,,83,127
27010,note_on,1,0,0,,8,,,80,127
27124,note_off,114,0,0,,8,,,80,127
27125,note_on,1,0,0,,5,,,77,127
27239,note_off,114,0,0,,5,,,77,127
27240,note_on,1,0,0,,2,,,74,127
27354,note_off,114,0,0,,2,,,74,127
27355,note_on,1,0,0,,12,,,71,127
27469,note_off,114,0,0,,12,,,71,127
27470,note_on,1,0,0,,8,,,68,127
27584,note_off,114,0,0,,8,,,68,127
27585,note_on,1,0,0,,5,,,65,127
27699,note_off,114,0,0,,5,,,65,127
27700,note_on,1,0,0,,2,,,62,127
27814,note_off,114,0,0,,2,,,62,127
27815,note_on,1,0,0,,12,,,59,127
27929,note_off,114,0,0,,12,,,59,127
27930,note_on,1,0,0,,8,,,56,127
28044,note_off,114,0,0,,8,,,56,127
28045,note_on,1,0,0,,5,,,53,127
28159,note_off,114,0,0,,5,,,53,127
28160,note_on,1,0,0,,2,,,50,127
28274,note_off,114,0,0,,2,,,50,127
28275,note_on,1,0,0,,12,,,47,127
28389,note_off,114,0,0,,12,,,47,127
28390,note_on,1,0,0,,8,,,44,127
28504,note_off,114,0,0,,8,,,44,127
28505,note_on,1,0,0,,5,,,41,127
28619,note_off,114,0,0,,5,,,41,127
28620,note_on,1,0,0,,7,,,31,127
29080,note_off,460,0,0,,7,,,31,127
29081,note_on,1,0,0,,7,,,67,127
29081,note_on,0,0,0,,5,,,77,127
29081,note_on,0,0,0,,2,,,74,127
29081,note_on,0,0,0,,12,,,71,127
29081,note_on,0,0,0,,7,,,43,127
29081,note_on,0,0,0,,2,,,38,127
29081,note_on,0,0,0,,0,,,36,127
29081,note_on,0,0,0,,7,,,31,127
29541,note_off,460,0,0,,7,,,31,127
29541,note_off,0,0,0,,0,,,36,127
29541,note_off,0,0,0,,2,,,38,127
29541,note_off,0,0,0,,7,,,43,127
29541,note_off,0,0,0,,12,,,71,127
29541,note_off,0,0,0,,2,,,74,127
29541,note_off,0,0,0,,5,,,77,127
29541,note_off,0,0,0,,7,,,67,127
29542,note_on,1,0,0,,5,,,77,127
29542,note_on,0,0,0,,7,,,67,127
29542,note_on,0,0,0,,3,,,75,127
29542,note_on,0,0,0,,0,,,36,127
29542,note_on,0,0,0,,0,,,48,127
29771,note_off,229,0,0,,3,,,75,127
29771,note_off,0,0,0,,5,,,77,127
29772,note_on,1,0,0,,2,,,74,127
29886,note_off,114,0,0,,2,,,74,127
29887,note_on,1,0,0,,0,,,72,127
30001,note_off,114,0,0,,0,,,72,127
30001,note_off,0,0,0,,0,,,48,127
30001,note_off,0,0,0,,0,,,36,127
30001,note_off,0,0,0,,7,,,67,127
30002,note_on,1,0,0,,2,,,74,127
30002,note_on,0,0,0,,5,,,65,127
30002,note_on,0,0,0,,5,,,41,127
30002,note_on,0,0,0,,5,,,53,127
30231,note_off,229,0,0,,5,,,65,127
30231,note_off,0,0,0,,2,,,74,127
30232,note_on,1,0,0,,3,,,63,127
30232,note_on,0,0,0,,0,,,72,127
30461,note_off,229,0,0,,5,,,53,127
30461,note_off,0,0,0,,5,,,41,127
30462,note_on,1,0,0,,7,,,43,127
30462,note_on,0,0,0,,7,,,55,127
30691,note_off,229,0,0,,0,,,72,127
30691,note_off,0,0,0,,3,,,63,127
30692,note_on,1,0,0,,2,,,62,127
30692,note_on,0,0,0,,12,,,71,127
30921,note_off,229,0,0,,12,,,71,127
30921,note_off,0,0,0,,2,,,62,127
30921,note_off,0,0,0,,7,,,55,127
30921,note_off,0,0,0,,7,,,43,127
30922,note_on,1,0,0,,3,,,63,127
30922,note_on,0,0,0,,0,,,72,127
30922,note_on,0,0,0,,0,,,48,127
30922,note_on,0,0,0,,0,,,36,127
31151,note_off,229,0,0,,0,,,36,127
31151,note_off,0,0,0,,0,,,48,127
31151,note_off,0,0,0,,0,,,72,127
31151,note_off,0,0,0,,3,,,63,127
31152,note_on,1,0,0,,2,,,74,127
31152,note_on,0,0,0,,2,,,62,127
31152,note_on,0,0,0,,7,,,43,127
31152,note_on,0,0,0,,7,,,55,127
31381,note_off,229,0,0,,7,,,55,127
31381,note_off,0,0,0,,7,,,43,127
31381,note_off,0,0,0,,2,,,62,127
31381,note_off,0,0,0,,2,,,74,127
31382,note_on,1,0,0,,3,,,75,127
31382,note_on,0,0,0,,3,,,63,127
31382,note_on,0,0,0,,0,,,48,127
31382,note_on,0,0,0,,0,,,60,127
31611,note_off,229,0,0,,0,,,60,127
31611,note_off,0,0,0,,0,,,48,127
31611,note_off,0,0,0,,3,,,63,127
31611,note_off,0,0,0,,3,,,75,127
31612,note_on,1,0,0,,4,,,64,127
31612,note_on,0,0,0,,4,,,76,127
31612,note_on,0,0,0,,11,,,58,127
31612,note_on,0,0,0,,11,,,46,127
31841,note_off,229,0,0,,11,,,46,127
31841,note_off,0,0,0,,11,,,58,127
31841,note_off,0,0,0,,4,,,76,127
31841,note_off,0,0,0,,4,,,64,127
31842,note_on,1,0,0,,5,,,77,127
31842,note_on,0,0,0,,5,,,65,127
31842,note_on,0,0,0,,8,,,44,127
31842,note_on,0,0,0,,8,,,56,127
32071,note_off,229,0,0,,5,,,65,127
32071,note_off,0,0,0,,5,,,77,127
32072,note_on,1,0,0,,6,,,78,127
32072,note_on,0,0,0,,6,,,66,127
32301,note_off,229,0,0,,6,,,66,127
32301,note_off,0,0,0,,8,,,56,127
32301,note_off,0,0,0,,8,,,44,127
32302,note_on,1,0,0,,7,,,55,127
32302,note_on,0,0,0,,7,,,43,127
32531,note_off,229,0,0,,6,,,78,127
32763,note_on,232,0,0,,10,,,81,127
32819,note_off,56,0,0,,10,,,81,127
32820,note_on,1,0,0,,7,,,79,127
32876,note_off,56,0,0,,7,,,79,127
32877,note_on,1,0,0,,2,,,74,127
32933,note_off,56,0,0,,2,,,74,127
32934,note_on,1,0,0,,3,,,75,127
32990,note_off,56,0,0,,3,,,75,127
32991,note_on,1,0,0,,12,,,71,127
33047,note_off,56,0,0,,12,,,71,127
33048,note_on,1,0,0,,0,,,72,127
33104,note_off,56,0,0,,0,,,72,127
33105,note_on,1,0,0,,6,,,66,127
33161,note_off,56,0,0,,6,,,66,127
33162,note_on,1,0,0,,7,,,67,127
33218,note_off,56,0,0,,7,,,67,127
33218,note_off,0,0,0,,7,,,55,127
33219,note_on,1,0,0,,2,,,62,127
33275,note_off,56,0,0,,2,,,62,127
33276,note_on,1,0,0,,3,,,63,127
33332,note_off,56,0,0,,3,,,63,127
33333,note_on,1,0,0,,12,,,59,127
33389,note_off,56,0,0,,12,,,59,127
33390,note_on,1,0,0,,0,,,60,127
33446,note_off,56,0,0,,0,,,60,127
33447,note_on,1,0,0,,6,,,54,127
33503,note_off,56,0,0,,6,,,54,127
33504,note_on,1,0,0,,7,,,55,127
33560,note_off,56,0,0,,7,,,55,127
33561,note_on,1,0,0,,2,,,50,127
33617,note_off,56,0,0,,2,,,50,127
33618,note_on,1,0,0,,3,,,51,127
33674,note_off,56,0,0,,3,,,51,127
33674,note_off,0,0,0,,7,,,43,127
33675,note_on,1,0,0,,12,,,47,127
33731,note_off,56,0,0,,12,,,47,127
33732,note_on,1,0,0,,0,,,48,127
33788,note_off,56,0,0,,0,,,48,127
33789,note_on,1,0,0,,6,,,42,127
34133,note_off,344,0,0,,6,,,42,127
34134,note_on,1,0,0,,10,,,45,127
34248,note_off,114,0,0,,10,,,45,127
34249,note_on,1,0,0,,7,,,43,127
34710,note_on,461,0,0,,7,,,31,127
35630,note_off,920,0,0,,7,,,31,127
35630,note_off,0,0,0,,7,,,43,127
35977,note_on,347,0,0,,2,,,86,127
36091,note_off,114,0,0,,2,,,86,127
36092,note_on,1,0,0,,12,,,83,127
36206,note_off,114,0,0,,12,,,83,127
36207,note_on,1,0,0,,8,,,80,127
36321,note_off,114,0,0,,8,,,80,127
36322,note_on,1,0,0,,5,,,77,127
36436,note_off,114,0,0,,5,,,77,127
36437,note_on,1,0,0,,2,,,74,127
36551,note_off,114,0,0,,2,,,74,127
36552,note_on,1,0,0,,12,,,71,127
36666,note_off,114,0,0,,12,,,71,127
36667,note_on,1,0,0,,8,,,68,127
36781,note_off,114,0,0,,8,,,68,127
36782,note_on,1,0,0,,5,,,65,127
36896,note_off,114,0,0,,5,,,65,127
36897,note_on,1,0,0,,2,,,62,127
37011,note_off,114,0,0,,2,,,62,127
37012,note_on,1,0,0,,12,,,59,127
37126,note_off,114,0,0,,12,,,59,127
37127,note_on,1,0,0,,8,,,56,127
37241,note_off,114,0,0,,8,,,56,127
37242,note_on,1,0,0,,5,,,53,127
37356,note_off,114,0,0,,5,,,53,127
37357,note_on,1,0,0,,2,,,50,127
37471,note_off,114,0,0,,2,,,50,127
37472,note_on,1,0,0,,12,,,47,127
37586,note_off,114,0,0,,12,,,47,127
37587,note_on,1,0,0,,8,,,44,127
37701,note_off,114,0,0,,8,,,44,127
37702,note_on,1,0,0,,5,,,41,127
37816,note_off,114,0,0,,5,,,41,127
37817,note_on,1,0,0,,7,,,31,127
38277,note_off,460,0,0,,7,,,31,127
38278,note_on,1,0,0,,5,,,77,127
38278,note_on,0,0,0,,12,,,71,127
38278,note_on,0,0,0,,2,,,74,127
38278,note_on,0,0,0,,7,,,67,127
38278,note_on,0,0,0,,7,,,31,127
38278,note_on,0,0,0,,0,,,36,127
38278,note_on,0,0,0,,2,,,38,127
38278,note_on,0,0,0,,7,,,43,127
38738,note_off,460,0,0,,7,,,43,127
38738,note_off,0,0,0,,2,,,38,127
38738,note_off,0,0,0,,0,,,36,127
38738,note_off,0,0,0,,7,,,31,127
38738,note_off,0,0,0,,7,,,67,127
38738,note_off,0,0,0,,2,,,74,127
38738,note_off,0,0,0,,12,,,71,127
38738,note_off,0,0,0,,5,,,77,127
38739,note_on,1,0,0,,7,,,67,127
38739,note_on,0,0,0,,5,,,77,127
38739,note_on,0,0,0,,0,,,48,127
38739,note_on,0,0,0,,0,,,36,127
38853,note_off,114,0,0,,5,,,77,127
38854,note_on,1,0,0,,3,,,75,127
38968,note_off,114,0,0,,3,,,75,127
38969,note_on,1,0,0,,2,,,74,127
39083,note_off,114,0,0,,2,,,74,127
39084,note_on,1,0,0,,0,,,72,127
39198,note_off,114,0,0,,0,,,72,127
39198,note_off,0,0,0,,0,,,36,127
39198,note_off,0,0,0,,0,,,48,127
39198,note_off,0,0,0,,7,,,67,127
39199,note_on,1,0,0,,5,,,65,127
39199,note_on,0,0,0,,2,,,74,127
39199,note_on,0,0,0,,5,,,53,127
39199,note_on,0,0,0,,5,,,41,127
39428,note_off,229,0,0,,2,,,74,127
39428,note_off,0,0,0,,5,,,65,127
39429,note_on,1,0,0,,0,,,72,127
39429,note_on,0,0,0,,3,,,63,127
39658,note_off,229,0,0,,5,,,41,127
39658,note_off,0,0,0,,5,,,53,127
39659,note_on,1,0,0,,7,,,55,127
39659,note_on,0,0,0,,7,,,43,127
39888,note_off,229,0,0,,3,,,63,127
39888,note_off,0,0,0,,0,,,72,127
39889,note_on,1,0,0,,12,,,71,127
39889,note_on,0,0,0,,2,,,62,127
40118,note_off,229,0,0,,2,,,62,127
40118,note_off,0,0,0,,12,,,71,127
40118,note_off,0,0,0,,7,,,43,127
40118,note_off,0,0,0,,7,,,55,127
40119,note_on,1,0,0,,0,,,72,127
40119,note_on,0,0,0,,3,,,63,127
40119,note_on,0,0,0,,0,,,60,127
40119,note_on,0,0,0,,0,,,48,127
40348,note_off,229,0,0,,0,,,48,127
40348,note_off,0,0,0,,0,,,60,127
40348,note_off,0,0,0,,3,,,63,127
40348,note_off,0,0,0,,0,,,72,127
40349,note_on,1,0,0,,2,,,62,127
40349,note_on,0,0,0,,2,,,74,127
40349,note_on,0,0,0,,7,,,55,127
40349,note_on,0,0,0,,7,,,43,127
40578,note_off,229,0,0,,7,,,43,127
40578,note_off,0,0,0,,7,,,55,127
40578,note_off,0,0,0,,2,,,74,127
40578,note_off,0,0,0,,2,,,62,127
40579,note_on,1,0,0,,3,,,63,127
40579,note_on,0,0,0,,3,,,75,127
40579,note_on,0,0,0,,0,,,48,127
40579,note_on,0,0,0,,0,,,60,127
40808,note_off,229,0,0,,0,,,60,127
40808,note_off,0,0,0,,0,,,48,127
40808,note_off,0,0,0,,3,,,75,127
40808,note_off,0,0,0,,3,,,63,127
40809,note_on,1,0,0,,4,,,64,127
40809,note_on,0,0,0,,4,,,76,127
40809,note_on,0,0,0,,11,,,46,127
40809,note_on,0,0,0,,11,,,58,127
41038,note_off,229,0,0,,11,,,58,127
41038,note_off,0,0,0,,11,,,46,127
41038,note_off,0,0,0,,4,,,76,127
41038,note_off,0,0,0,,4,,,64,127
41039,note_on,1,0,0,,5,,,65,127
41039,note_on,0,0,0,,5,,,77,127
41039,note_on,0,0,0,,8,,,56,127
41039,note_on,0,0,0,,8,,,44,127
41268,note_off,229,0,0,,8,,,44,127
41268,note_off,0,0,0,,8,,,56,127
41268,note_off,0,0,0,,5,,,77,127
41268,note_off,0,0,0,,5,,,65,127
41269,note_on,1,0,0,,7,,,67,127
41269,note_on,0,0,0,,7,,,79,127
41269,note_on,0,0,0,,7,,,43,127
41269,note_on,0,0,0,,7,,,55,127
41498,note_off,229,0,0,,7,,,55,127
41498,note_off,0,0,0,,7,,,43,127
41498,note_off,0,0,0,,7,,,79,127
41498,note_off,0,0,0,,7,,,67,127
41499,note_on,1,0,0,,8,,,80,127
41499,note_on,0,0,0,,8,,,68,127
41499,note_on,0,0,0,,5,,,53,127
41499,note_on,0,0,0,,5,,,41,127
41728,note_off,229,0,0,,5,,,41,127
41728,note_off,0,0,0,,5,,,53,127
41728,note_off,0,0,0,,8,,,68,127
41728,note_off,0,0,0,,8,,,80,127
41729,note_on,1,0,0,,12,,,71,127
41729,note_on,0,0,0,,12,,,83,127
41729,note_on,0,0,0,,3,,,51,127
41729,note_on,0,0,0,,3,,,39,127
41958,note_off,229,0,0,,3,,,39,127
41958,note_off,0,0,0,,3,,,51,127
41958,note_off,0,0,0,,12,,,83,127
41958,note_off,0,0,0,,12,,,71,127
41959,note_on,1,0,0,,0,,,84,127
41959,note_on,0,0,0,,0,,,72,127
41959,note_on,0,0,0,,2,,,50,127
41959,note_on,0,0,0,,2,,,38,127
42188,note_off,229,0,0,,2,,,38,127
42188,note_off,0,0,0,,2,,,50,127
42188,note_off,0,0,0,,0,,,72,127
42188,note_off,0,0,0,,0,,,84,127
42189,note_on,1,0,0,,2,,,74,127
42189,note_on,0,0,0,,2,,,86,127
42189,note_on,0,0,0,,0,,,48,127
42189,note_on,0,0,0,,0,,,36,127
42418,note_off,229,0,0,,0,,,36,127
42418,note_off,0,0,0,,0,,,48,127
42418,note_off,0,0,0,,2,,,86,127
42418,note_off,0,0,0,,2,,,74,127
42419,note_on,1,0,0,,7,,,79,127
42419,note_on,0,0,0,,7,,,67,127
42419,note_on,0,0,0,,12,,,35,127
42419,note_on,0,0,0,,12,,,47,127
42648,note_off,229,0,0,,12,,,47,127
42648,note_off,0,0,0,,12,,,35,127
42649,note_on,1,0,0,,7,,,31,127
42649,note_on,0,0,0,,7,,,43,127
42878,note_off,229,0,0,,7,,,43,127
42878,note_off,0,0,0,,7,,,31,127
42879,note_on,1,0,0,,0,,,48,127
42879,note_on,0,0,0,,0,,,36,127
43108,note_off,229,0,0,,7,,,79,127
43109,note_on,1,0,0,,5,,,77,127
43223,note_off,114,0,0,,5,,,77,127
43224,note_on,1,0,0,,3,,,75,127
43338,note_off,114,0,0,,3,,,75,127
43338,note_off,0,0,0,,0,,,36,127
43338,note_off,0,0,0,,0,,,48,127
43338,note_off,0,0,0,,7,,,67,127
43339,note_on,1,0,0,,5,,,65,127
43339,note_on,0,0,0,,2,,,74,127
43339,note_on,0,0,0,,5,,,53,127
43339,note_on,0,0,0,,5,,,41,127
43568,note_off,229,0,0,,2,,,74,127
43568,note_off,0,0,0,,5,,,65,127
43569,note_on,1,0,0,,0,,,72,127
43569,note_on,0,0,0,,3,,,63,127
43798,note_off,229,0,0,,5,,,41,127
43798,note_off,0,0,0,,5,,,53,127
43799,note_on,1,0,0,,7,,,55,127
43799,note_on,0,0,0,,7,,,43,127
44028,note_off,229,0,0,,3,,,63,127
44028,note_off,0,0,0,,0,,,72,127
44029,note_on,1,0,0,,2,,,62,127
44029,note_on,0,0,0,,12,,,71,127
44258,note_off,229,0,0,,12,,,71,127
44258,note_off,0,0,0,,2,,,62,127
44258,note_off,0,0,0,,7,,,43,127
44258,note_off,0,0,0,,7,,,55,127
44259,note_on,1,0,0,,3,,,63,127
44259,note_on,0,0,0,,0,,,72,127
44259,note_on,0,0,0,,0,,,60,127
44259,note_on,0,0,0,,0,,,48,127
44488,note_off,229,0,0,,0,,,48,127
44488,note_off,0,0,0,,0,,,60,127
44488,note_off,0,0,0,,0,,,72,127
44488,note_off,0,0,0,,3,,,63,127
44489,note_on,1,0,0,,2,,,74,127
44489,note_on,0,0,0,,2,,,62,127
44489,note_on,0,0,0,,7,,,43,127
44489,note_on,0,0,0,,7,,,55,127
44718,note_off,229,0,0,,7,,,55,127
44718,note_off,0,0,0,,7,,,43,127
44718,note_off,0,0,0,,2,,,62,127
44718,note_off,0,0,0,,2,,,74,127
44719,note_on,1,0,0,,3,,,75,127
44719,note_on,0,0,0,,3,,,63,127
44719,note_on,0,0,0,,0,,,48,127
44719,note_on,0,0,0,,0,,,60,127
44948,note_off,229,0,0,,0,,,60,127
44948,note_off,0,0,0,,0,,,48,127
44948,note_off,0,0,0,,3,,,63,127
44948,note_off,0,0,0,,3,,,75,127
44949,note_on,1,0,0,,4,,,64,127
44949,note_on,0,0,0,,4,,,76,127
44949,note_on,0,0,0,,11,,,46,127
44949,note_on,0,0,0,,11,,,58,127
45178,note_off,229,0,0,,11,,,58,127
45178,note_off,0,0,0,,11,,,46,127
45178,note_off,0,0,0,,4,,,76,127
45178,note_off,0,0,0,,4,,,64,127
45179,note_on,1,0,0,,5,,,65,127
45179,note_on,0,0,0,,5,,,77,127
45179,note_on,0,0,0,,8,,,44,127
45179,note_on,0,0,0,,8,,,56,127
45408,note_off,229,0,0,,8,,,56,127
45408,note_off,0,0,0,,8,,,44,127
45408,note_off,0,0,0,,5,,,77,127
45408,note_off,0,0,0,,5,,,65,127
45409,note_on,1,0,0,,7,,,79,127
45409,note_on,0,0,0,,7,,,67,127
45409,note_on,0,0,0,,7,,,55,127
45409,note_on,0,0,0,,7,,,43,127
45638,note_off,229,0,0,,7,,,43,127
45638,note_off,0,0,0,,7,,,55,127
45638,note_off,0,0,0,,7,,,67,127
45638,note_off,0,0,0,,7,,,79,127
45639,note_on,1,0,0,,8,,,68,127
45639,note_on,0,0,0,,8,,,80,127
45639,note_on,0,0,0,,5,,,41,127
45639,note_on,0,0,0,,5,,,53,127
45868,note_off,229,0,0,,5,,,53,127
45868,note_off,0,0,0,,5,,,41,127
45868,note_off,0,0,0,,8,,,80,127
45868,note_off,0,0,0,,8,,,68,127
45869,note_on,1,0,0,,12,,,71,127
45869,note_on,0,0,0,,12,,,83,127
45869,note_on,0,0,0,,3,,,51,127
45869,note_on,0,0,0,,3,,,39,127
46098,note_off,229,0,0,,3,,,39,127
46098,note_off,0,0,0,,3,,,51,127
46098,note_off,0,0,0,,12,,,83,127
46098,note_off,0,0,0,,12,,,71,127
46099,note_on,1,0,0,,0,,,84,127
46099,note_on,0,0,0,,0,,,72,127
46099,note_on,0,0,0,,2,,,50,127
46099,note_on,0,0,0,,2,,,38,127
46328,note_off,229,0,0,,2,,,38,127
46328,note_off,0,0,0,,2,,,50,127
46328,note_off,0,0,0,,0,,,72,127
46328,note_off,0,0,0,,0,,,84,127
46329,note_on,1,0,0,,2,,,74,127
46329,note_on,0,0,0,,2,,,86,127
46329,note_on,0,0,0,,0,,,36,127
46329,note_on,0,0,0,,0,,,48,127
46558,note_off,229,0,0,,0,,,48,127
46558,note_off,0,0,0,,0,,,36,127
46558,note_off,0,0,0,,2,,,86,127
46558,note_off,0,0,0,,2,,,74,127
46559,note_on,1,0,0,,7,,,67,127
46559,note_on,0,0,0,,7,,,79,127
46559,note_on,0,0,0,,12,,,35,127
46559,note_on,0,0,0,,12,,,47,127
46788,note_off,229,0,0,,12,,,47,127
46788,note_off,0,0,0,,12,,,35,127
46789,note_on,1,0,0,,7,,,31,127
46789,note_on,0,0,0,,7,,,43,127
47018,note_off,229,0,0,,7,,,43,127
47018,note_off,0,0,0,,7,,,31,127
47019,note_on,1,0,0,,0,,,36,127
47019,note_on,0,0,0,,0,,,48,127
47248,note_off,229,0,0,,7,,,79,127
47249,note_on,1,0,0,,5,,,77,127
47363,note_off,114,0,0,,5,,,77,127
47364,note_on,1,0,0,,3,,,75,127
47478,note_off,114,0,0,,3,,,75,127
47478,note_off,0,0,0,,0,,,48,127
47478,note_off,0,0,0,,0,,,36,127
47478,note_off,0,0,0,,7,,,67,127
47479,note_on,1,0,0,,2,,,74,127
47479,note_on,0,0,0,,5,,,65,127
47479,note_on,0,0,0,,5,,,53,127
47479,note_on,0,0,0,,5,,,41,127
47708,note_off,229,0,0,,5,,,65,127
47708,note_off,0,0,0,,2,,,74,127
47709,note_on,1,0,0,,3,,,63,127
47709,note_on,0,0,0,,0,,,72,127
47938,note_off,229,0,0,,5,,,41,127
47938,note_off,0,0,0,,5,,,53,127
47939,note_on,1,0,0,,7,,,43,127
47939,note_on,0,0,0,,7,,,55,127
48168,note_off,229,0,0,,0,,,72,127
48168,note_off,0,0,0,,3,,,63,127
48169,note_on,1,0,0,,12,,,71,127
48169,note_on,0,0,0,,2,,,62,127
48361,note_off,192,0,0,,12,,,71,127
48373,note_off,12,0,0,,2,,,62,127
48398,note_off,25,0,0,,7,,,55,127
48398,note_off,0,0,0,,7,,,43,127
48399,note_on,1,0,0,,3,,,75,127
48399,note_on,0,0,0,,0,,,72,127
48399,note_on,0,0,0,,0,,,36,127
48399,note_on,0,0,0,,0,,,48,127
48628,note_off,229,0,0,,3,,,75,127
48629,note_on,1,0,0,,2,,,74,127
48743,note_off,114,0,0,,2,,,74,127
48744,note_on,1,0,0,,3,,,75,127
48858,note_off,114,0,0,,3,,,75,127
48858,note_off,0,0,0,,0,,,48,127
48858,note_off,0,0,0,,0,,,36,127
48858,note_off,0,0,0,,0,,,72,127
48859,note_on,1,0,0,,2,,,74,127
48859,note_on,0,0,0,,5,,,77,127
48859,note_on,0,0,0,,5,,,53,127
48859,note_on,0,0,0,,5,,,41,127
49088,note_off,229,0,0,,5,,,77,127
49089,note_on,1,0,0,,7,,,79,127
49318,note_off,229,0,0,,7,,,79,127
49318,note_off,0,0,0,,5,,,41,127
49318,note_off,0,0,0,,5,,,53,127
49318,note_off,0,0,0,,2,,,74,127
49319,note_on,1,0,0,,5,,,77,127
49319,note_on,0,0,0,,0,,,72,127
49319,note_on,0,0,0,,7,,,55,127
49319,note_on,0,0,0,,7,,,43,127
49433,note_off,114,0,0,,5,,,77,127
49434,note_on,1,0,0,,3,,,75,127
49548,note_off,114,0,0,,3,,,75,127
49548,note_off,0,0,0,,0,,,72,127
49549,note_on,1,0,0,,12,,,71,127
49549,note_on,0,0,0,,2,,,74,127
49753,note_off,204,0,0,,2,,,74,127
49753,note_off,0,0,0,,12,,,71,127
49778,note_off,25,0,0,,7,,,43,127
49778,note_off,0,0,0,,7,,,55,127
49779,note_on,1,0,0,,3,,,75,127
49779,note_on,0,0,0,,0,,,72,127
49779,note_on,0,0,0,,0,,,48,127
49779,note_on,0,0,0,,0,,,36,127
50008,note_off,229,0,0,,3,,,75,127
50009,note_on,1,0,0,,2,,,74,127
50123,note_off,114,0,0,,2,,,74,127
50124,note_on,1,0,0,,3,,,75,127
50238,note_off,114,0,0,,3,,,75,127
50238,note_off,0,0,0,,0,,,36,127
50238,note_off,0,0,0,,0,,,48,127
50238,note_off,0,0,0,,0,,,72,127
50239,note_on,1,0,0,,5,,,77,127
50239,note_on,0,0,0,,2,,,74,127
50239,note_on,0,0,0,,5,,,53,127
50239,note_on,0,0,0,,5,,,41,127
50468,note_off,229,0,0,,5,,,77,127
50469,note_on,1,0,0,,7,,,79,127
50698,note_off,229,0,0,,7,,,79,127
50698,note_off,0,0,0,,5,,,41,127
50698,note_off,0,0,0,,5,,,53,127
50698,note_off,0,0,0,,2,,,74,127
50699,note_on,1,0,0,,0,,,72,127
50699,note_on,0,0,0,,5,,,77,127
50699,note_on,0,0,0,,7,,,55,127
50699,note_on,0,0,0,,7,,,43,127
50813,note_off,114,0,0,,5,,,77,127
50814,note_on,1,0,0,,3,,,75,127
50928,note_off,114,0,0,,3,,,75,127
50928,note_off,0,0,0,,0,,,72,127
50929,note_on,1,0,0,,12,,,71,127
50929,note_on,0,0,0,,2,,,74,127
51133,note_off,204,0,0,,2,,,74,127
51133,note_off,0,0,0,,12,,,71,127
51158,note_off,25,0,0,,7,,,43,127
51158,note_off,0,0,0,,7,,,55,127
51159,note_on,1,0,0,,3,,,75,127
51159,note_on,0,0,0,,0,,,72,127
51159,note_on,0,0,0,,0,,,48,127
51159,note_on,0,0,0,,0,,,36,127
51388,note_off,229,0,0,,3,,,75,127
51389,note_on,1,0,0,,2,,,74,127
51503,note_off,114,0,0,,2,,,74,127
51504,note_on,1,0,0,,3,,,75,127
51618,note_off,114,0,0,,3,,,75,127
51618,note_off,0,0,0,,0,,,36,127
51618,note_off,0,0,0,,0,,,48,127
51618,note_off,0,0,0,,0,,,72,127
51619,note_on,1,0,0,,2,,,74,127
51619,note_on,0,0,0,,5,,,77,127
51619,note_on,0,0,0,,5,,,53,127
51619,note_on,0,0,0,,5,,,41,127
51848,note_off,229,0,0,,5,,,77,127
51849,note_on,1,0,0,,7,,,79,127
52078,note_off,229,0,0,,7,,,79,127
52078,note_off,0,0,0,,5,,,41,127
52078,note_off,0,0,0,,5,,,53,127
52078,note_off,0,0,0,,2,,,74,127
52079,note_on,1,0,0,,0,,,72,127
52079,note_on,0,0,0,,5,,,77,127
52079,note_on,0,0,0,,7,,,55,127
52079,note_on,0,0,0,,7,,,43,127
52193,note_off,114,0,0,,5,,,77,127
52194,note_on,1,0,0,,3,,,75,127
52308,note_off,114,0,0,,3,,,75,127
52308,note_off,0,0,0,,0,,,72,127
52309,note_on,1,0,0,,12,,,71,127
52309,note_on,0,0,0,,2,,,74,127
52538,note_off,229,0,0,,2,,,74,127
52538,note_off,0,0,0,,12,,,71,127
52538,note_off,0,0,0,,7,,,43,127
52538,note_off,0,0,0,,7,,,55,127
52539,note_on,1,0,0,,2,,,74,127
52539,note_on,0,0,0,,12,,,71,127
52539,note_on,0,0,0,,0,,,48,127
52539,note_on,0,0,0,,0,,,36,127
52999,note_off,460,0,0,,12,,,71,127
52999,note_off,0,0,0,,2,,,74,127
53000,note_on,1,0,0,,0,,,72,127
53690,note_off,690,0,0,,0,,,72,127
53920,note_off,230,0,0,,0,,,36,127
53920,note_off,0,0,0,,0,,,48,127
53921,note_on,1,0,0,,0,,,84,127
54035,note_off,114,0,0,,0,,,84,127
54036,note_on,1,0,0,,7,,,79,127
54150,note_off,114,0,0,,7,,,79,127
54151,note_on,1,0,0,,4,,,76,127
54265,note_off,114,0,0,,4,,,76,127
54266,note_on,1,0,0,,0,,,72,127
54380,note_off,114,0,0,,0,,,72,127
54381,note_on,1,0,0,,7,,,67,127
54495,note_off,114,0,0,,7,,,67,127
54496,note_on,1,0,0,,4,,,64,127
54610,note_off,114,0,0,,4,,,64,127
54611,note_on,1,0,0,,0,,,60,127
54725,note_off,114,0,0,,0,,,60,127
54726,note_on,1,0,0,,7,,,55,127
54840,note_off,114,0,0,,7,,,55,127
54841,note_on,1,0,0,,4,,,52,127
54955,note_off,114,0,0,,4,,,52,127
54956,note_on,1,0,0,,0,,,48,127
55070,note_off,114,0,0,,0,,,48,127
55071,note_on,1,0,0,,7,,,43,127
55185,note_off,114,0,0,,7,,,43,127
55186,note_on,1,0,0,,4,,,40,127
55300,note_off,114,0,0,,4,,,40,127
55301,note_on,1,0,0,,0,,,48,127
55301,note_on,0,0,0,,0,,,36,127
55531,note_on,230,0,0,,7,,,79,127
55760,note_off,229,0,0,,7,,,79,127
55761,note_on,1,0,0,,4,,,76,127
55761,note_on,0,0,0,,0,,,72,127
55990,note_off,229,0,0,,0,,,72,127
55990,note_off,0,0,0,,4,,,76,127
55991,note_on,1,0,0,,5,,,77,127
55991,note_on,0,0,0,,1,,,73,127
56220,note_off,229,0,0,,1,,,73,127
56220,note_off,0,0,0,,5,,,77,127
56221,note_on,1,0,0,,0,,,72,127
56221,note_on,0,0,0,,7,,,79,127
56450,note_off,229,0,0,,7,,,79,127
56450,note_off,0,0,0,,0,,,72,127
56451,note_on,1,0,0,,5,,,77,127
56451,note_on,0,0,0,,8,,,80,127
56655,note_off,204,0,0,,0,,,36,127
56655,note_off,0,0,0,,0,,,48,127
56680,note_off,25,0,0,,8,,,80,127
56680,note_off,0,0,0,,5,,,77,127
56681,note_on,1,0,0,,11,,,82,127
56681,note_on,0,0,0,,7,,,79,127
56681,note_on,0,0,0,,7,,,31,127
56681,note_on,0,0,0,,7,,,43,127
56910,note_off,229,0,0,,7,,,79,127
56910,note_off,0,0,0,,11,,,82,127
56911,note_on,1,0,0,,0,,,84,127
56911,note_on,0,0,0,,8,,,80,127
57025,note_off,114,0,0,,8,,,80,127
57025,note_off,0,0,0,,0,,,84,127
57026,note_on,1,0,0,,1,,,85,127
57026,note_on,0,0,0,,11,,,82,127
57140,note_off,114,0,0,,11,,,82,127
57140,note_off,0,0,0,,1,,,85,127
57140,note_off,0,0,0,,7,,,43,127
57140,note_off,0,0,0,,7,,,31,127
57141,note_on,1,0,0,,8,,,80,127
57141,note_on,0,0,0,,0,,,84,127
57141,note_on,0,0,0,,0,,,48,127
57370,note_off,229,0,0,,0,,,84,127
57370,note_off,0,0,0,,8,,,80,127
57371,note_on,1,0,0,,11,,,82,127
57371,note_on,0,0,0,,7,,,79,127
57600,note_off,229,0,0,,7,,,79,127
57600,note_off,0,0,0,,11,,,82,127
57600,note_off,0,0,0,,0,,,48,127
57601,note_on,1,0,0,,8,,,80,127
57601,note_on,0,0,0,,5,,,77,127
57601,note_on,0,0,0,,0,,,36,127
57830,note_off,229,0,0,,5,,,77,127
57830,note_off,0,0,0,,8,,,80,127
57831,note_on,1,0,0,,4,,,76,127
57831,note_on,0,0,0,,7,,,79,127
58060,note_off,229,0,0,,7,,,79,127
58060,note_off,0,0,0,,4,,,76,127
58060,note_off,0,0,0,,0,,,36,127
58061,note_on,1,0,0,,7,,,79,127
58061,note_on,0,0,0,,5,,,53,127
58290,note_off,229,0,0,,7,,,79,127
58291,note_on,1,0,0,,5,,,77,127
58405,note_off,114,0,0,,5,,,77,127
58406,note_on,1,0,0,,4,,,76,127
58520,note_off,114,0,0,,4,,,76,127
58521,note_on,1,0,0,,4,,,76,127
58521,note_on,0,0,0,,5,,,41,127
58750,note_off,229,0,0,,4,,,76,127
58751,note_on,1,0,0,,5,,,77,127
58980,note_off,229,0,0,,5,,,53,127
59210,note_off,230,0,0,,5,,,77,127
59440,note_off,230,0,0,,5,,,41,127
59441,note_on,1,0,0,,11,,,82,127
59441,note_on,0,0,0,,11,,,34,127
59555,note_off,114,0,0,,11,,,82,127
59556,note_on,1,0,0,,5,,,77,127
59670,note_off,114,0,0,,5,,,77,127
59671,note_on,1,0,0,,2,,,74,127
59785,note_off,114,0,0,,2,,,74,127
59786,note_on,1,0,0,,11,,,70,127
59900,note_off,114,0,0,,11,,,70,127
59901,note_on,1,0,0,,5,,,65,127
60015,note_off,114,0,0,,5,,,65,127
60016,note_on,1,0,0,,2,,,62,127
60130,note_off,114,0,0,,2,,,62,127
60131,note_on,1,0,0,,11,,,58,127
60245,note_off,114,0,0,,11,,,58,127
60246,note_on,1,0,0,,5,,,53,127
60360,note_off,114,0,0,,5,,,53,127
60361,note_on,1,0,0,,2,,,50,127
60475,note_off,114,0,0,,2,,,50,127
60475,note_off,0,0,0,,11,,,34,127
60476,note_on,1,0,0,,11,,,46,127
60590,note_off,114,0,0,,11,,,46,127
60591,note_on,1,0,0,,5,,,41,127
60705,note_off,114,0,0,,5,,,41,127
60706,note_on,1,0,0,,2,,,38,127
60820,note_off,114,0,0,,2,,,38,127
60821,note_on,1,0,0,,11,,,34,127
60821,note_on,0,0,0,,11,,,46,127
61051,note_on,230,0,0,,5,,,77,127
61280,note_off,229,0,0,,5,,,77,127
61281,note_on,1,0,0,,11,,,70,127
61281,note_on,0,0,0,,2,,,74,127
61510,note_off,229,0,0,,2,,,74,127
61510,note_off,0,0,0,,11,,,70,127
61511,note_on,1,0,0,,3,,,75,127
61511,note_on,0,0,0,,0,,,72,127
61740,note_off,229,0,0,,0,,,72,127
61740,note_off,0,0,0,,3,,,75,127
61741,note_on,1,0,0,,2,,,74,127
61741,note_on,0,0,0,,5,,,77,127
61970,note_off,229,0,0,,5,,,77,127
61970,note_off,0,0,0,,2,,,74,127
61971,note_on,1,0,0,,7,,,79,127
61971,note_on,0,0,0,,3,,,75,127
62163,note_off,192,0,0,,11,,,46,127
62163,note_off,0,0,0,,11,,,34,127
62200,note_off,37,0,0,,3,,,75,127
62200,note_off,0,0,0,,7,,,79,127
62201,note_on,1,0,0,,8,,,80,127
62201,note_on,0,0,0,,5,,,77,127
62201,note_on,0,0,0,,8,,,32,127
62201,note_on,0,0,0,,8,,,44,127
62430,note_off,229,0,0,,5,,,77,127
62430,note_off,0,0,0,,8,,,80,127
62431,note_on,1,0,0,,7,,,79,127
62431,note_on,0,0,0,,11,,,82,127
62545,note_off,114,0,0,,11,,,82,127
62545,note_off,0,0,0,,7,,,79,127
62546,note_on,1,0,0,,8,,,80,127
62546,note_on,0,0,0,,0,,,84,127
62660,note_off,114,0,0,,0,,,84,127
62660,note_off,0,0,0,,8,,,80,127
62660,note_off,0,0,0,,8,,,44,127
62660,note_off,0,0,0,,8,,,32,127
62661,note_on,1,0,0,,7,,,79,127
62661,note_on,0,0,0,,11,,,82,127
62661,note_on,0,0,0,,11,,,46,127
62890,note_off,229,0,0,,11,,,82,127
62890,note_off,0,0,0,,7,,,79,127
62891,note_on,1,0,0,,8,,,80,127
62891,note_on,0,0,0,,5,,,77,127
63120,note_off,229,0,0,,5,,,77,127
63120,note_off,0,0,0,,8,,,80,127
63120,note_off,0,0,0,,11,,,46,127
63121,note_on,1,0,0,,7,,,79,127
63121,note_on,0,0,0,,3,,,75,127
63121,note_on,0,0,0,,11,,,34,127
63350,note_off,229,0,0,,3,,,75,127
63350,note_off,0,0,0,,7,,,79,127
63351,note_on,1,0,0,,2,,,74,127
63351,note_on,0,0,0,,5,,,77,127
63580,note_off,229,0,0,,5,,,77,127
63580,note_off,0,0,0,,2,,,74,127
63580,note_off,0,0,0,,11,,,34,127
63581,note_on,1,0,0,,3,,,75,127
63581,note_on,0,0,0,,3,,,39,127
63811,note_on,230,0,0,,3,,,63,127
64040,note_off,229,0,0,,3,,,63,127
64040,note_off,0,0,0,,3,,,39,127
64040,note_off,0,0,0,,3,,,75,127
64041,note_on,1,0,0,,3,,,75,127
64041,note_on,0,0,0,,7,,,55,127
64041,note_on,0,0,0,,11,,,58,127
64041,note_on,0,0,0,,3,,,51,127
64155,note_off,114,0,0,,3,,,75,127
64156,note_on,1,0,0,,1,,,73,127
64270,note_off,114,0,0,,1,,,73,127
64271,note_on,1,0,0,,0,,,72,127
64385,note_off,114,0,0,,0,,,72,127
64386,note_on,1,0,0,,11,,,70,127
64500,note_off,114,0,0,,11,,,70,127
64500,note_off,0,0,0,,3,,,51,127
64500,note_off,0,0,0,,11,,,58,127
64500,note_off,0,0,0,,7,,,55,127
64501,note_on,1,0,0,,11,,,70,127
64501,note_on,0,0,0,,0,,,60,127
64501,note_on,0,0,0,,3,,,51,127
64501,note_on,0,0,0,,8,,,56,127
64615,note_off,114,0,0,,11,,,70,127
64616,note_on,1,0,0,,8,,,68,127
64730,note_off,114,0,0,,8,,,68,127
64731,note_on,1,0,0,,7,,,67,127
64845,note_off,114,0,0,,7,,,67,127
64846,note_on,1,0,0,,8,,,68,127
64960,note_off,114,0,0,,8,,,68,127
64960,note_off,0,0,0,,8,,,56,127
64960,note_off,0,0,0,,3,,,51,127
64960,note_off,0,0,0,,0,,,60,127
64961,note_on,1,0,0,,11,,,70,127
64961,note_on,0,0,0,,3,,,51,127
64961,note_on,0,0,0,,7,,,55,127
64961,note_on,0,0,0,,11,,,58,127
65191,note_on,230,0,0,,3,,,63,127
65306,note_off,115,0,0,,11,,,70,127
65420,note_off,114,0,0,,3,,,63,127
65420,note_off,0,0,0,,11,,,58,127
65420,note_off,0,0,0,,7,,,55,127
65420,note_off,0,0,0,,3,,,51,127
65421,note_on,1,0,0,,3,,,75,127
65421,note_on,0,0,0,,11,,,58,127
65421,note_on,0,0,0,,3,,,51,127
65421,note_on,0,0,0,,7,,,55,127
65535,note_off,114,0,0,,3,,,75,127
65536,note_on,1,0,0,,1,,,73,127
65650,note_off,114,0,0,,1,,,73,127
65651,note_on,1,0,0,,0,,,72,127
65765,note_off,114,0,0,,0,,,72,127
65766,note_on,1,0,0,,11,,,70,127
65880,note_off,114,0,0,,11,,,70,127
65880,note_off,0,0,0,,7,,,55,127
65880,note_off,0,0,0,,3,,,51,127
65880,note_off,0,0,0,,11,,,58,127
65881,note_on,1,0,0,,11,,,70,127
65881,note_on,0,0,0,,0,,,60,127
65881,note_on,0,0,0,,8,,,56,127
65881,note_on,0,0,0,,3,,,51,127
65995,note_off,114,0,0,,11,,,70,127
65996,note_on,1,0,0,,8,,,68,127
66110,note_off,114,0,0,,8,,,68,127
66111,note_on,1,0,0,,7,,,67,127
66225,note_off,114,0,0,,7,,,67,127
66226,note_on,1,0,0,,8,,,68,127
66340,note_off,114,0,0,,8,,,68,127
66340,note_off,0,0,0,,3,,,51,127
66340,note_off,0,0,0,,8,,,56,127
66340,note_off,0,0,0,,0,,,60,127
66341,note_on,1,0,0,,11,,,70,127
66341,note_on,0,0,0,,11,,,58,127
66570,note_off,229,0,0,,11,,,58,127
66571,note_on,1,0,0,,3,,,51,127
66800,note_off,229,0,0,,11,,,70,127
66801,note_on,1,0,0,,7,,,67,127
66801,note_on,0,0,0,,11,,,70,127
66801,note_on,0,0,0,,1,,,61,127
67030,note_off,229,0,0,,1,,,61,127
67031,note_on,1,0,0,,0,,,60,127
67145,note_off,114,0,0,,0,,,60,127
67146,note_on,1,0,0,,11,,,58,127
67260,note_off,114,0,0,,11,,,58,127
67260,note_off,0,0,0,,11,,,70,127
67260,note_off,0,0,0,,7,,,67,127
67261,note_on,1,0,0,,8,,,68,127
67261,note_on,0,0,0,,0,,,72,127
67261,note_on,0,0,0,,11,,,58,127
67375,note_off,114,0,0,,11,,,58,127
67376,note_on,1,0,0,,8,,,56,127
67490,note_off,114,0,0,,8,,,56,127
67491,note_on,1,0,0,,7,,,55,127
67605,note_off,114,0,0,,7,,,55,127
67606,note_on,1,0,0,,8,,,56,127
67720,note_off,114,0,0,,8,,,56,127
67720,note_off,0,0,0,,0,,,72,127
67720,note_off,0,0,0,,8,,,68,127
67721,note_on,1,0,0,,11,,,70,127
67721,note_on,0,0,0,,7,,,67,127
67721,note_on,0,0,0,,11,,,58,127
67950,note_off,229,0,0,,11,,,58,127
67950,note_off,0,0,0,,3,,,51,127
67951,note_on,1,0,0,,3,,,51,127
68180,note_off,229,0,0,,7,,,67,127
68180,note_off,0,0,0,,11,,,70,127
68181,note_on,1,0,0,,11,,,70,127
68181,note_on,0,0,0,,7,,,67,127
68181,note_on,0,0,0,,1,,,61,127
68410,note_off,229,0,0,,1,,,61,127
68411,note_on,1,0,0,,0,,,60,127
68525,note_off,114,0,0,,0,,,60,127
68526,note_on,1,0,0,,11,,,58,127
68640,note_off,114,0,0,,11,,,58,127
68640,note_off,0,0,0,,7,,,67,127
68640,note_off,0,0,0,,11,,,70,127
68641,note_on,1,0,0,,0,,,72,127
68641,note_on,0,0,0,,8,,,68,127
68641,note_on,0,0,0,,11,,,58,127
68755,note_off,114,0,0,,11,,,58,127
68756,note_on,1,0,0,,8,,,56,127
68870,note_off,114,0,0,,8,,,56,127
68871,note_on,1,0,0,,7,,,55,127
68985,note_off,114,0,0,,7,,,55,127
68986,note_on,1,0,0,,8,,,56,127
69100,note_off,114,0,0,,8,,,56,127
69100,note_off,0,0,0,,8,,,68,127
69100,note_off,0,0,0,,0,,,72,127
69100,note_off,0,0,0,,3,,,51,127
69101,note_on,1,0,0,,11,,,70,127
69101,note_on,0,0,0,,11,,,58,127
69331,note_on,230,0,0,,3,,,63,127
69446,note_off,115,0,0,,11,,,70,127
69560,note_off,114,0,0,,3,,,63,127
69561,note_on,1,0,0,,5,,,77,127
69675,note_off,114,0,0,,5,,,77,127
69676,note_on,1,0,0,,3,,,75,127
69790,note_off,114,0,0,,3,,,75,127
69791,note_on,1,0,0,,1,,,73,127
69905,note_off,114,0,0,,1,,,73,127
69906,note_on,1,0,0,,0,,,72,127
69916,note_off,10,0,0,,11,,,58,127
70020,note_off,104,0,0,,0,,,72,127
70021,note_on,1,0,0,,0,,,72,127
70021,note_on,0,0,0,,6,,,54,127
70135,note_off,114,0,0,,0,,,72,127
70136,note_on,1,0,0,,11,,,70,127
70250,note_off,114,0,0,,11,,,70,127
70251,note_on,1,0,0,,10,,,69,127
70365,note_off,114,0,0,,10,,,69,127
70366,note_on,1,0,0,,11,,,70,127
70480,note_off,114,0,0,,11,,,70,127
70480,note_off,0,0,0,,6,,,54,127
70481,note_on,1,0,0,,0,,,72,127
70481,note_on,0,0,0,,5,,,53,127
70481,note_on,0,0,0,,10,,,57,127
70711,note_on,230,0,0,,5,,,65,127
70940,note_off,229,0,0,,5,,,65,127
70940,note_off,0,0,0,,10,,,57,127
70940,note_off,0,0,0,,5,,,53,127
70940,note_off,0,0,0,,0,,,72,127
70941,note_on,1,0,0,,5,,,77,127
70941,note_on,0,0,0,,5,,,53,127
70941,note_on,0,0,0,,10,,,57,127
70941,note_on,0,0,0,,0,,,60,127
71055,note_off,114,0,0,,5,,,77,127
71056,note_on,1,0,0,,3,,,75,127
71170,note_off,114,0,0,,3,,,75,127
71171,note_on,1,0,0,,1,,,73,127
71285,note_off,114,0,0,,1,,,73,127
71286,note_on,1,0,0,,0,,,72,127
71400,note_off,114,0,0,,0,,,72,127
71400,note_off,0,0,0,,0,,,60,127
71400,note_off,0,0,0,,10,,,57,127
71400,note_off,0,0,0,,5,,,53,127
71401,note_on,1,0,0,,0,,,72,127
71401,note_on,0,0,0,,1,,,61,127
71401,note_on,0,0,0,,5,,,53,127
71401,note_on,0,0,0,,11,,,58,127
71515,note_off,114,0,0,,0,,,72,127
71516,note_on,1,0,0,,11,,,70,127
71630,note_off,114,0,0,,11,,,70,127
71631,note_on,1,0,0,,10,,,69,127
71745,note_off,114,0,0,,10,,,69,127
71746,note_on,1,0,0,,11,,,70,127
71860,note_off,114,0,0,,11,,,70,127
71860,note_off,0,0,0,,11,,,58,127
71860,note_off,0,0,0,,5,,,53,127
71860,note_off,0,0,0,,1,,,61,127
71861,note_on,1,0,0,,0,,,72,127
71861,note_on,0,0,0,,5,,,53,127
71861,note_on,0,0,0,,0,,,60,127
72090,note_off,229,0,0,,0,,,60,127
72090,note_off,0,0,0,,5,,,53,127
72091,note_on,1,0,0,,5,,,53,127
72320,note_off,229,0,0,,0,,,72,127
72321,note_on,1,0,0,,10,,,69,127
72321,note_on,0,0,0,,0,,,72,127
72321,note_on,0,0,0,,3,,,63,127
72550,note_off,229,0,0,,3,,,63,127
72551,note_on,1,0,0,,1,,,61,127
72665,note_off,114,0,0,,1,,,61,127
72666,note_on,1,0,0,,0,,,60,127
72780,note_off,114,0,0,,0,,,60,127
72780,note_off,0,0,0,,0,,,72,127
72780,note_off,0,0,0,,10,,,69,127
72781,note_on,1,0,0,,1,,,73,127
72781,note_on,0,0,0,,11,,,70,127
72781,note_on,0,0,0,,0,,,60,127
72895,note_off,114,0,0,,0,,,60,127
72896,note_on,1,0,0,,11,,,58,127
73010,note_off,114,0,0,,11,,,58,127
73011,note_on,1,0,0,,10,,,57,127
73125,note_off,114,0,0,,10,,,57,127
73126,note_on,1,0,0,,11,,,58,127
73240,note_off,114,0,0,,11,,,58,127
73240,note_off,0,0,0,,11,,,70,127
73240,note_off,0,0,0,,1,,,73,127
73241,note_on,1,0,0,,0,,,72,127
73241,note_on,0,0,0,,10,,,69,127
73241,note_on,0,0,0,,0,,,60,127
73470,note_off,229,0,0,,0,,,60,127
73470,note_off,0,0,0,,5,,,53,127
73471,note_on,1,0,0,,5,,,53,127
73700,note_off,229,0,0,,10,,,69,127
73700,note_off,0,0,0,,0,,,72,127
73701,note_on,1,0,0,,10,,,69,127
73701,note_on,0,0,0,,0,,,72,127
73701,note_on,0,0,0,,3,,,63,127
73930,note_off,229,0,0,,3,,,63,127
73931,note_on,1,0,0,,1,,,61,127
74045,note_off,114,0,0,,1,,,61,127
74046,note_on,1,0,0,,0,,,60,127
74160,note_off,114,0,0,,0,,,60,127
74160,note_off,0,0,0,,0,,,72,127
74160,note_off,0,0,0,,10,,,69,127
74161,note_on,1,0,0,,11,,,70,127
74161,note_on,0,0,0,,1,,,73,127
74161,note_on,0,0,0,,0,,,60,127
74275,note_off,114,0,0,,0,,,60,127
74276,note_on,1,0,0,,11,,,58,127
74390,note_off,114,0,0,,11,,,58,127
74391,note_on,1,0,0,,10,,,57,127
74505,note_off,114,0,0,,10,,,57,127
74506,note_on,1,0,0,,11,,,58,127
74620,note_off,114,0,0,,11,,,58,127
74620,note_off,0,0,0,,1,,,73,127
74620,note_off,0,0,0,,11,,,70,127
74621,note_on,1,0,0,,0,,,72,127
74621,note_on,0,0,0,,0,,,60,127
74850,note_off,229,0,0,,5,,,53,127
74851,note_on,1,0,0,,5,,,65,127
75080,note_off,229,0,0,,5,,,65,127
75080,note_off,0,0,0,,0,,,60,127
75080,note_off,0,0,0,,0,,,72,127
75081,note_on,1,0,0,,5,,,77,127
75081,note_on,0,0,0,,0,,,60,127
75081,note_on,0,0,0,,5,,,53,127
75081,note_on,0,0,0,,10,,,57,127
75195,note_off,114,0,0,,5,,,77,127
75196,note_on,1,0,0,,3,,,75,127
75310,note_off,114,0,0,,3,,,75,127
75311,note_on,1,0,0,,1,,,73,127
75425,note_off,114,0,0,,1,,,73,127
75426,note_on,1,0,0,,0,,,72,127
75540,note_off,114,0,0,,0,,,72,127
75540,note_off,0,0,0,,10,,,57,127
75540,note_off,0,0,0,,5,,,53,127
75540,note_off,0,0,0,,0,,,60,127
75541,note_on,1,0,0,,0,,,72,127
75541,note_on,0,0,0,,11,,,58,127
75541,note_on,0,0,0,,1,,,61,127
75541,note_on,0,0,0,,5,,,53,127
75655,note_off,114,0,0,,0,,,72,127
75656,note_on,1,0,0,,11,,,70,127
75770,note_off,114,0,0,,11,,,70,127
75771,note_on,1,0,0,,10,,,69,127
75885,note_off,114,0,0,,10,,,69,127
75886,note_on,1,0,0,,11,,,70,127
76000,note_off,114,0,0,,11,,,70,127
76000,note_off,0,0,0,,5,,,53,127
76000,note_off,0,0,0,,1,,,61,127
76000,note_off,0,0,0,,11,,,58,127
76001,note_on,1,0,0,,7,,,79,127
76001,note_on,0,0,0,,11,,,58,127
76001,note_on,0,0,0,,0,,,60,127
76001,note_on,0,0,0,,4,,,52,127
76231,note_on,230,0,0,,7,,,67,127
76460,note_off,229,0,0,,7,,,67,127
76460,note_off,0,0,0,,4,,,52,127
76460,note_off,0,0,0,,0,,,60,127
76460,note_off,0,0,0,,11,,,58,127
76460,note_off,0,0,0,,7,,,79,127
76461,note_on,1,0,0,,8,,,68,127
76461,note_on,0,0,0,,5,,,53,127
76691,note_on,230,0,0,,0,,,72,127
76920,note_off,229,0,0,,0,,,72,127
76920,note_off,0,0,0,,5,,,53,127
76921,note_on,1,0,0,,1,,,73,127
76921,note_on,0,0,0,,1,,,49,127
77150,note_off,229,0,0,,8,,,68,127
77151,note_on,1,0,0,,5,,,65,127
77380,note_off,229,0,0,,5,,,65,127
77380,note_off,0,0,0,,1,,,49,127
77381,note_on,1,0,0,,7,,,67,127
77381,note_on,0,0,0,,3,,,51,127
77610,note_off,229,0,0,,7,,,67,127
77611,note_on,1,0,0,,11,,,70,127
77840,note_off,229,0,0,,11,,,70,127
77840,note_off,0,0,0,,3,,,51,127
77841,note_on,1,0,0,,8,,,68,127
77841,note_on,0,0,0,,8,,,56,127
78070,note_off,229,0,0,,1,,,73,127
78071,note_on,1,0,0,,3,,,75,127
78300,note_off,229,0,0,,3,,,75,127
78300,note_off,0,0,0,,8,,,56,127
78301,note_on,1,0,0,,2,,,74,127
78301,note_on,0,0,0,,11,,,58,127
78301,note_on,0,0,0,,11,,,46,127
78530,note_off,229,0,0,,8,,,68,127
78531,note_on,1,0,0,,5,,,65,127
78760,note_off,229,0,0,,5,,,65,127
78760,note_off,0,0,0,,11,,,46,127
78760,note_off,0,0,0,,11,,,58,127
78760,note_off,0,0,0,,2,,,74,127
78761,note_on,1,0,0,,8,,,68,127
78761,note_on,0,0,0,,3,,,51,127
78817,note_off,56,0,0,,8,,,68,127
78818,note_on,1,0,0,,7,,,67,127
78874,note_off,56,0,0,,7,,,67,127
78875,note_on,1,0,0,,8,,,68,127
78931,note_off,56,0,0,,8,,,68,127
78932,note_on,1,0,0,,7,,,67,127
78988,note_off,56,0,0,,7,,,67,127
78989,note_on,1,0,0,,3,,,75,127
79218,note_off,229,0,0,,3,,,75,127
79218,note_off,0,0,0,,3,,,51,127
79219,note_on,1,0,0,,11,,,70,127
79219,note_on,0,0,0,,5,,,53,127
79275,note_off,56,0,0,,11,,,70,127
79276,note_on,1,0,0,,8,,,68,127
79332,note_off,56,0,0,,8,,,68,127
79333,note_on,1,0,0,,11,,,70,127
79389,note_off,56,0,0,,11,,,70,127
79390,note_on,1,0,0,,8,,,68,127
79446,note_off,56,0,0,,8,,,68,127
79447,note_on,1,0,0,,5,,,77,127
79676,note_off,229,0,0,,5,,,77,127
79676,note_off,0,0,0,,5,,,53,127
79677,note_on,1,0,0,,0,,,72,127
79677,note_on,0,0,0,,7,,,55,127
79733,note_off,56,0,0,,0,,,72,127
79734,note_on,1,0,0,,11,,,70,127
79790,note_off,56,0,0,,11,,,70,127
79791,note_on,1,0,0,,0,,,72,127
79847,note_off,56,0,0,,0,,,72,127
79848,note_on,1,0,0,,11,,,70,127
79904,note_off,56,0,0,,11,,,70,127
79905,note_on,1,0,0,,7,,,79,127
80134,note_off,229,0,0,,7,,,79,127
80134,note_off,0,0,0,,7,,,55,127
80135,note_on,1,0,0,,0,,,72,127
80135,note_on,0,0,0,,8,,,56,127
80365,note_on,230,0,0,,0,,,84,127
80594,note_off,229,0,0,,8,,,56,127
80594,note_off,0,0,0,,0,,,72,127
80595,note_on,1,0,0,,11,,,58,127
80709,note_off,114,0,0,,0,,,84,127
80710,note_on,1,0,0,,11,,,82,127
80824,note_off,114,0,0,,11,,,82,127
80825,note_on,1,0,0,,8,,,80,127
80939,note_off,114,0,0,,8,,,80,127
80940,note_on,1,0,0,,7,,,79,127
81054,note_off,114,0,0,,7,,,79,127
81054,note_off,0,0,0,,11,,,58,127
81055,note_on,1,0,0,,5,,,77,127
81055,note_on,0,0,0,,0,,,60,127
81169,note_off,114,0,0,,5,,,77,127
81170,note_on,1,0,0,,3,,,75,127
81284,note_off,114,0,0,,3,,,75,127
81285,note_on,1,0,0,,2,,,74,127
81399,note_off,114,0,0,,2,,,74,127
81400,note_on,1,0,0,,3,,,75,127
81514,note_off,114,0,0,,3,,,75,127
81514,note_off,0,0,0,,0,,,60,127
81515,note_on,1,0,0,,5,,,77,127
81515,note_on,0,0,0,,11,,,58,127
81744,note_off,229,0,0,,5,,,77,127
81745,note_on,1,0,0,,3,,,75,127
81974,note_off,229,0,0,,3,,,75,127
81974,note_off,0,0,0,,11,,,58,127
81975,note_on,1,0,0,,3,,,75,127
81975,note_on,0,0,0,,11,,,46,127
82031,note_off,56,0,0,,3,,,75,127
82032,note_on,1,0,0,,2,,,74,127
82088,note_off,56,0,0,,2,,,74,127
82089,note_on,1,0,0,,3,,,75,127
82145,note_off,56,0,0,,3,,,75,127
82146,note_on,1,0,0,,2,,,74,127
82318,note_off,172,0,0,,2,,,74,127
82319,note_on,1,0,0,,0,,,72,127
82433,note_off,114,0,0,,0,,,72,127
82434,note_on,1,0,0,,11,,,70,127
82894,note_off,460,0,0,,11,,,70,127
82894,note_off,0,0,0,,11,,,46,127
82895,note_on,1,0,0,,2,,,86,127
83009,note_off,114,0,0,,2,,,86,127
83010,note_on,1,0,0,,8,,,80,127
83124,note_off,114,0,0,,8,,,80,127
83125,note_on,1,0,0,,5,,,77,127
83239,note_off,114,0,0,,5,,,77,127
83240,note_on,1,0,0,,2,,,74,127
83354,note_off,114,0,0,,2,,,74,127
83355,note_on,1,0,0,,8,,,68,127
83469,note_off,114,0,0,,8,,,68,127
83470,note_on,1,0,0,,5,,,65,127
83584,note_off,114,0,0,,5,,,65,127
83585,note_on,1,0,0,,2,,,62,127
83699,note_off,114,0,0,,2,,,62,127
83700,note_on,1,0,0,,8,,,56,127
83814,note_off,114,0,0,,8,,,56,127
83815,note_on,1,0,0,,5,,,53,127
83929,note_off,114,0,0,,5,,,53,127
83930,note_on,1,0,0,,2,,,50,127
84044,note_off,114,0,0,,2,,,50,127
84045,note_on,1,0,0,,11,,,46,127
84159,note_off,114,0,0,,11,,,46,127
84160,note_on,1,0,0,,5,,,41,127
84274,note_off,114,0,0,,5,,,41,127
84275,note_on,1,0,0,,11,,,34,127
84735,note_off,460,0,0,,11,,,34,127
84736,note_on,1,0,0,,5,,,77,127
84736,note_on,0,0,0,,11,,,46,127
84965,note_off,229,0,0,,5,,,77,127
84966,note_on,1,0,0,,11,,,70,127
85195,note_off,229,0,0,,11,,,70,127
85195,note_off,0,0,0,,11,,,46,127
85196,note_on,1,0,0,,0,,,84,127
85196,note_on,0,0,0,,2,,,38,127
85196,note_on,0,0,0,,2,,,50,127
85425,note_off,229,0,0,,0,,,84,127
85426,note_on,1,0,0,,11,,,82,127
85540,note_off,114,0,0,,11,,,82,127
85541,note_on,1,0,0,,8,,,80,127
85655,note_off,114,0,0,,8,,,80,127
85655,note_off,0,0,0,,2,,,50,127
85655,note_off,0,0,0,,2,,,38,127
85656,note_on,1,0,0,,8,,,80,127
85656,note_on,0,0,0,,3,,,39,127
85656,note_on,0,0,0,,3,,,51,127
85770,note_off,114,0,0,,8,,,80,127
85771,note_on,1,0,0,,7,,,79,127
85885,note_off,114,0,0,,7,,,79,127
85886,note_on,1,0,0,,5,,,77,127
86000,note_off,114,0,0,,5,,,77,127
86001,note_on,1,0,0,,3,,,75,127
86115,note_off,114,0,0,,3,,,75,127
86115,note_off,0,0,0,,3,,,51,127
86115,note_off,0,0,0,,3,,,39,127
86116,note_on,1,0,0,,5,,,77,127
86116,note_on,0,0,0,,8,,,44,127
86116,note_on,0,0,0,,8,,,56,127
86346,note_on,230,0,0,,0,,,72,127
86461,note_off,115,0,0,,5,,,77,127
86575,note_off,114,0,0,,0,,,72,127
86575,note_off,0,0,0,,8,,,56,127
86575,note_off,0,0,0,,8,,,44,127
86576,note_on,1,0,0,,3,,,75,127
86576,note_on,0,0,0,,11,,,46,127
86576,note_on,0,0,0,,11,,,58,127
86632,note_off,56,0,0,,3,,,75,127
86633,note_on,1,0,0,,2,,,74,127
86689,note_off,56,0,0,,2,,,74,127
86690,note_on,1,0,0,,3,,,75,127
86746,note_off,56,0,0,,3,,,75,127
86747,note_on,1,0,0,,2,,,74,127
86803,note_off,56,0,0,,2,,,74,127
86804,note_on,1,0,0,,0,,,72,127
86860,note_off,56,0,0,,0,,,72,127
86861,note_on,1,0,0,,2,,,74,127
86917,note_off,56,0,0,,2,,,74,127
86918,note_on,1,0,0,,3,,,75,127
86974,note_off,56,0,0,,3,,,75,127
86975,note_on,1,0,0,,5,,,77,127
87031,note_off,56,0,0,,5,,,77,127
87031,note_off,0,0,0,,11,,,58,127
87031,note_off,0,0,0,,11,,,46,127
87032,note_on,1,0,0,,3,,,75,127
87032,note_on,0,0,0,,0,,,48,127
87262,note_on,230,0,0,,3,,,63,127
87598,note_off,336,0,0,,0,,,48,127
87608,note_on,10,0,0,,3,,,51,127
87664,note_off,56,0,0,,3,,,51,127
87665,note_on,1,0,0,,5,,,53,127
87721,note_off,56,0,0,,5,,,53,127
87722,note_on,1,0,0,,7,,,55,127
87778,note_off,56,0,0,,7,,,55,127
87779,note_on,1,0,0,,10,,,57,127
87835,note_off,56,0,0,,10,,,57,127
87836,note_on,1,0,0,,11,,,58,127
87892,note_off,56,0,0,,11,,,58,127
87893,note_on,1,0,0,,10,,,57,127
87949,note_off,56,0,0,,3,,,63,127
88238,note_on,289,0,0,,3,,,63,127
88294,note_off,56,0,0,,3,,,63,127
88295,note_on,1,0,0,,5,,,65,127
88351,note_off,56,0,0,,5,,,65,127
88352,note_on,1,0,0,,7,,,67,127
88408,note_off,56,0,0,,7,,,67,127
88409,note_on,1,0,0,,10,,,69,127
88465,note_off,56,0,0,,10,,,69,127
88466,note_on,1,0,0,,11,,,70,127
88522,note_off,56,0,0,,11,,,70,127
88523,note_on,1,0,0,,10,,,69,127
88534,note_off,11,0,0,,10,,,57,127
88754,note_on,220,0,0,,3,,,51,127
88868,note_off,114,0,0,,3,,,51,127
88869,note_off,1,0,0,,3,,,75,127
88869,note_on,0,0,0,,2,,,50,127
88983,note_off,114,0,0,,2,,,50,127
88983,note_off,0,0,0,,10,,,69,127
88984,note_on,1,0,0,,0,,,48,127
89098,note_off,114,0,0,,0,,,48,127
89099,note_on,1,0,0,,11,,,46,127
89214,note_on,115,0,0,,2,,,50,127
89270,note_off,56,0,0,,2,,,50,127
89271,note_on,1,0,0,,3,,,51,127
89327,note_off,56,0,0,,3,,,51,127
89328,note_on,1,0,0,,5,,,53,127
89384,note_off,56,0,0,,5,,,53,127
89385,note_on,1,0,0,,7,,,55,127
89441,note_off,56,0,0,,7,,,55,127
89442,note_on,1,0,0,,10,,,57,127
89498,note_off,56,0,0,,10,,,57,127
89499,note_on,1,0,0,,11,,,58,127
89557,note_on,58,0,0,,0,,,60,127
89613,note_off,56,0,0,,0,,,60,127
89614,note_on,1,0,0,,2,,,62,127
89670,note_off,56,0,0,,2,,,62,127
89671,note_on,1,0,0,,3,,,63,127
89727,note_off,56,0,0,,3,,,63,127
89728,note_on,1,0,0,,5,,,65,127
89784,note_off,56,0,0,,5,,,65,127
89785,note_on,1,0,0,,7,,,67,127
89841,note_off,56,0,0,,7,,,67,127
89842,note_on,1,0,0,,10,,,69,127
89898,note_off,56,0,0,,10,,,69,127
89899,note_on,1,0,0,,11,,,70,127
90128,note_off,229,0,0,,11,,,70,127
90129,note_on,1,0,0,,0,,,72,127
90243,note_off,114,0,0,,0,,,72,127
90244,note_on,1,0,0,,11,,,70,127
90302,note_on,58,0,0,,2,,,74,127
90358,note_off,56,0,0,,2,,,74,127
90359,note_on,1,0,0,,0,,,72,127
90415,note_off,56,0,0,,0,,,72,127
90416,note_on,1,0,0,,3,,,75,127
90472,note_off,56,0,0,,3,,,75,127
90473,note_on,1,0,0,,2,,,74,127
90529,note_off,56,0,0,,2,,,74,127
90530,note_on,1,0,0,,5,,,77,127
90586,note_off,56,0,0,,5,,,77,127
90587,note_on,1,0,0,,4,,,76,127
90643,note_off,56,0,0,,4,,,76,127
90644,note_on,1,0,0,,7,,,79,127
90700,note_off,56,0,0,,7,,,79,127
90700,note_off,0,0,0,,11,,,70,127
90701,note_on,1,0,0,,7,,,79,127
90757,note_off,56,0,0,,7,,,79,127
90758,note_on,1,0,0,,5,,,77,127
90814,note_off,56,0,0,,5,,,77,127
90815,note_on,1,0,0,,7,,,79,127
90871,note_off,56,0,0,,7,,,79,127
90872,note_on,1,0,0,,5,,,77,127
90928,note_off,56,0,0,,5,,,77,127
90929,note_on,1,0,0,,7,,,79,127
90985,note_off,56,0,0,,7,,,79,127
90986,note_on,1,0,0,,5,,,77,127
91042,note_off,56,0,0,,5,,,77,127
91043,note_on,1,0,0,,7,,,79,127
91099,note_off,56,0,0,,7,,,79,127
91100,note_on,1,0,0,,5,,,77,127
91330,note_off,230,0,0,,11,,,58,127
91388,note_off,58,0,0,,11,,,46,127
91790,note_off,402,0,0,,5,,,77,127
91964,note_on,174,0,0,,2,,,86,127
92078,note_off,114,0,0,,2,,,86,127
92079,note_on,1,0,0,,8,,,80,127
92193,note_off,114,0,0,,8,,,80,127
92194,note_on,1,0,0,,5,,,77,127
92308,note_off,114,0,0,,5,,,77,127
92309,note_on,1,0,0,,2,,,74,127
92423,note_off,114,0,0,,2,,,74,127
92424,note_on,1,0,0,,8,,,68,127
92538,note_off,114,0,0,,8,,,68,127
92539,note_on,1,0,0,,5,,,65,127
92653,note_off,114,0,0,,5,,,65,127
92654,note_on,1,0,0,,2,,,62,127
92768,note_off,114,0,0,,2,,,62,127
92769,note_on,1,0,0,,8,,,56,127
92883,note_off,114,0,0,,8,,,56,127
92884,note_on,1,0,0,,5,,,53,127
92998,note_off,114,0,0,,5,,,53,127
92999,note_on,1,0,0,,2,,,50,127
93113,note_off,114,0,0,,2,,,50,127
93114,note_on,1,0,0,,11,,,46,127
93228,note_off,114,0,0,,11,,,46,127
93229,note_on,1,0,0,,5,,,41,127
93343,note_off,114,0,0,,5,,,41,127
93344,note_on,1,0,0,,11,,,34,127
93804,note_off,460,0,0,,11,,,34,127
93805,note_on,1,0,0,,11,,,46,127
93805,note_on,0,0,0,,5,,,77,127
94034,note_off,229,0,0,,5,,,77,127
94035,note_on,1,0,0,,11,,,70,127
94264,note_off,229,0,0,,11,,,70,127
94264,note_off,0,0,0,,11,,,46,127
94265,note_on,1,0,0,,2,,,38,127
94265,note_on,0,0,0,,2,,,50,127
94265,note_on,0,0,0,,0,,,84,127
94494,note_off,229,0,0,,0,,,84,127
94495,note_on,1,0,0,,11,,,82,127
94609,note_off,114,0,0,,11,,,82,127
94610,note_on,1,0,0,,8,,,80,127
94724,note_off,114,0,0,,8,,,80,127
94724,note_off,0,0,0,,2,,,50,127
94724,note_off,0,0,0,,2,,,38,127
94725,note_on,1,0,0,,3,,,39,127
94725,note_on,0,0,0,,3,,,51,127
94725,note_on,0,0,0,,8,,,80,127
94839,note_off,114,0,0,,8,,,80,127
94840,note_on,1,0,0,,7,,,79,127
94954,note_off,114,0,0,,7,,,79,127
94955,note_on,1,0,0,,5,,,77,127
95069,note_off,114,0,0,,5,,,77,127
95070,note_on,1,0,0,,3,,,75,127
95184,note_off,114,0,0,,3,,,75,127
95184,note_off,0,0,0,,3,,,51,127
95184,note_off,0,0,0,,3,,,39,127
95185,note_on,1,0,0,,8,,,44,127
95185,note_on,0,0,0,,8,,,56,127
95185,note_on,0,0,0,,5,,,77,127
95414,note_off,229,0,0,,5,,,77,127
95415,note_on,1,0,0,,0,,,72,127
95644,note_off,229,0,0,,0,,,72,127
95644,note_off,0,0,0,,8,,,56,127
95644,note_off,0,0,0,,8,,,44,127
95645,note_on,1,0,0,,11,,,46,127
95645,note_on,0,0,0,,11,,,58,127
95645,note_on,0,0,0,,3,,,75,127
95759,note_off,114,0,0,,3,,,75,127
95760,note_on,1,0,0,,2,,,74,127
95874,note_off,114,0,0,,2,,,74,127
95875,note_on,1,0,0,,0,,,72,127
95989,note_off,114,0,0,,0,,,72,127
95990,note_on,1,0,0,,2,,,74,127
96104,note_off,114,0,0,,2,,,74,127
96104,note_off,0,0,0,,11,,,58,127
96104,note_off,0,0,0,,11,,,46,127
96105,note_on,1,0,0,,3,,,39,127
96105,note_on,0,0,0,,3,,,51,127
96105,note_on,0,0,0,,3,,,75,127
96334,note_off,229,0,0,,3,,,75,127
96334,note_off,0,0,0,,3,,,51,127
96334,note_off,0,0,0,,3,,,39,127
96335,note_on,1,0,0,,11,,,46,127
96335,note_on,0,0,0,,11,,,58,127
96335,note_on,0,0,0,,5,,,65,127
96335,note_on,0,0,0,,5,,,77,127
96564,note_off,229,0,0,,5,,,77,127
96564,note_off,0,0,0,,5,,,65,127
96564,note_off,0,0,0,,11,,,58,127
96564,note_off,0,0,0,,11,,,46,127
96565,note_on,1,0,0,,3,,,51,127
96565,note_on,0,0,0,,3,,,63,127
96565,note_on,0,0,0,,7,,,67,127
96565,note_on,0,0,0,,7,,,79,127
96794,note_off,229,0,0,,7,,,79,127
96794,note_off,0,0,0,,7,,,67,127
96794,note_off,0,0,0,,3,,,63,127
96794,note_off,0,0,0,,3,,,51,127
96795,note_on,1,0,0,,1,,,61,127
96795,note_on,0,0,0,,1,,,49,127
96795,note_on,0,0,0,,7,,,67,127
96795,note_on,0,0,0,,7,,,79,127
97024,note_off,229,0,0,,7,,,79,127
97024,note_off,0,0,0,,7,,,67,127
97024,note_off,0,0,0,,1,,,49,127
97024,note_off,0,0,0,,1,,,61,127
97025,note_on,1,0,0,,0,,,60,127
97025,note_on,0,0,0,,0,,,48,127
97025,note_on,0,0,0,,8,,,80,127
97025,note_on,0,0,0,,8,,,68,127
97254,note_off,229,0,0,,8,,,68,127
97254,note_off,0,0,0,,8,,,80,127
97254,note_off,0,0,0,,0,,,48,127
97254,note_off,0,0,0,,0,,,60,127
97255,note_on,1,0,0,,11,,,46,127
97255,note_on,0,0,0,,11,,,58,127
97255,note_on,0,0,0,,11,,,82,127
97255,note_on,0,0,0,,11,,,70,127
97484,note_off,229,0,0,,11,,,70,127
97484,note_off,0,0,0,,11,,,82,127
97484,note_off,0,0,0,,11,,,58,127
97484,note_off,0,0,0,,11,,,46,127
97485,note_on,1,0,0,,8,,,56,127
97485,note_on,0,0,0,,8,,,44,127
97485,note_on,0,0,0,,0,,,84,127
97485,note_on,0,0,0,,0,,,72,127
97714,note_off,229,0,0,,0,,,72,127
97714,note_off,0,0,0,,0,,,84,127
97714,note_off,0,0,0,,8,,,44,127
97714,note_off,0,0,0,,8,,,56,127
97715,note_on,1,0,0,,7,,,55,127
97715,note_on,0,0,0,,7,,,43,127
97715,note_on,0,0,0,,0,,,72,127
97715,note_on,0,0,0,,0,,,84,127
97944,note_off,229,0,0,,0,,,84,127
97944,note_off,0,0,0,,0,,,72,127
97944,note_off,0,0,0,,7,,,43,127
97944,note_off,0,0,0,,7,,,55,127
97945,note_on,1,0,0,,5,,,53,127
97945,note_on,0,0,0,,5,,,41,127
97945,note_on,0,0,0,,2,,,74,127
97945,note_on,0,0,0,,2,,,86,127
98174,note_off,229,0,0,,2,,,86,127
98174,note_off,0,0,0,,2,,,74,127
98174,note_off,0,0,0,,5,,,41,127
98174,note_off,0,0,0,,5,,,53,127
98175,note_on,1,0,0,,3,,,39,127
98175,note_on,0,0,0,,3,,,51,127
98175,note_on,0,0,0,,3,,,87,127
98175,note_on,0,0,0,,3,,,75,127
98404,note_off,229,0,0,,3,,,75,127
98404,note_off,0,0,0,,3,,,87,127
98404,note_off,0,0,0,,3,,,51,127
98404,note_off,0,0,0,,3,,,39,127
98405,note_on,1,0,0,,2,,,50,127
98405,note_on,0,0,0,,2,,,38,127
98405,note_on,0,0,0,,11,,,82,127
98405,note_on,0,0,0,,11,,,70,127
98634,note_off,229,0,0,,2,,,38,127
98634,note_off,0,0,0,,2,,,50,127
98635,note_on,1,0,0,,11,,,34,127
98635,note_on,0,0,0,,11,,,46,127
98864,note_off,229,0,0,,11,,,46,127
98864,note_off,0,0,0,,11,,,34,127
98865,note_on,1,0,0,,3,,,39,127
98865,note_on,0,0,0,,3,,,51,127
99094,note_off,229,0,0,,11,,,82,127
99095,note_on,1,0,0,,8,,,80,127
99209,note_off,114,0,0,,8,,,80,127
99210,note_on,1,0,0,,7,,,79,127
99324,note_off,114,0,0,,7,,,79,127
99324,note_off,0,0,0,,3,,,51,127
99324,note_off,0,0,0,,3,,,39,127
99324,note_off,0,0,0,,11,,,70,127
99325,note_on,1,0,0,,8,,,44,127
99325,note_on,0,0,0,,8,,,56,127
99325,note_on,0,0,0,,8,,,68,127
99325,note_on,0,0,0,,5,,,77,127
99554,note_off,229,0,0,,5,,,77,127
99554,note_off,0,0,0,,8,,,68,127
99555,note_on,1,0,0,,7,,,67,127
99555,note_on,0,0,0,,3,,,75,127
99784,note_off,229,0,0,,8,,,56,127
99784,note_off,0,0,0,,8,,,44,127
99785,note_on,1,0,0,,11,,,58,127
99785,note_on,0,0,0,,11,,,46,127
100014,note_off,229,0,0,,3,,,75,127
100014,note_off,0,0,0,,7,,,67,127
100015,note_on,1,0,0,,5,,,65,127
100015,note_on,0,0,0,,2,,,74,127
100244,note_off,229,0,0,,2,,,74,127
100244,note_off,0,0,0,,5,,,65,127
100244,note_off,0,0,0,,11,,,46,127
100244,note_off,0,0,0,,11,,,58,127
100245,note_on,1,0,0,,3,,,51,127
100245,note_on,0,0,0,,3,,,63,127
100245,note_on,0,0,0,,7,,,67,127
100245,note_on,0,0,0,,3,,,75,127
100474,note_off,229,0,0,,3,,,75,127
100474,note_off,0,0,0,,7,,,67,127
100474,note_off,0,0,0,,3,,,63,127
100474,note_off,0,0,0,,3,,,51,127
100475,note_on,1,0,0,,11,,,58,127
100475,note_on,0,0,0,,11,,,46,127
100475,note_on,0,0,0,,5,,,77,127
100475,note_on,0,0,0,,5,,,65,127
100704,note_off,229,0,0,,5,,,65,127
100704,note_off,0,0,0,,5,,,77,127
100704,note_off,0,0,0,,11,,,46,127
100704,note_off,0,0,0,,11,,,58,127
100705,note_on,1,0,0,,3,,,51,127
100705,note_on,0,0,0,,3,,,63,127
100705,note_on,0,0,0,,7,,,67,127
100705,note_on,0,0,0,,7,,,79,127
100934,note_off,229,0,0,,7,,,79,127
100934,note_off,0,0,0,,7,,,67,127
100934,note_off,0,0,0,,3,,,63,127
100934,note_off,0,0,0,,3,,,51,127
100935,note_on,1,0,0,,1,,,61,127
100935,note_on,0,0,0,,1,,,49,127
100935,note_on,0,0,0,,7,,,79,127
100935,note_on,0,0,0,,7,,,67,127
101164,note_off,229,0,0,,7,,,67,127
101164,note_off,0,0,0,,7,,,79,127
101164,note_off,0,0,0,,1,,,49,127
101164,note_off,0,0,0,,1,,,61,127
101165,note_on,1,0,0,,0,,,60,127
101165,note_on,0,0,0,,0,,,48,127
101165,note_on,0,0,0,,8,,,80,127
101165,note_on,0,0,0,,8,,,68,127
101394,note_off,229,0,0,,8,,,68,127
101394,note_off,0,0,0,,8,,,80,127
101394,note_off,0,0,0,,0,,,48,127
101394,note_off,0,0,0,,0,,,60,127
101395,note_on,1,0,0,,11,,,46,127
101395,note_on,0,0,0,,11,,,58,127
101395,note_on,0,0,0,,11,,,70,127
101395,note_on,0,0,0,,11,,,82,127
101624,note_off,229,0,0,,11,,,82,127
101624,note_off,0,0,0,,11,,,70,127
101624,note_off,0,0,0,,11,,,58,127
101624,note_off,0,0,0,,11,,,46,127
101625,note_on,1,0,0,,8,,,44,127
101625,note_on,0,0,0,,8,,,56,127
101625,note_on,0,0,0,,0,,,72,127
101625,note_on,0,0,0,,0,,,84,127
101854,note_off,229,0,0,,0,,,84,127
101854,note_off,0,0,0,,0,,,72,127
101854,note_off,0,0,0,,8,,,56,127
101854,note_off,0,0,0,,8,,,44,127
101855,note_on,1,0,0,,7,,,43,127
101855,note_on,0,0,0,,7,,,55,127
101855,note_on,0,0,0,,0,,,84,127
101855,note_on,0,0,0,,0,,,72,127
102084,note_off,229,0,0,,0,,,72,127
102084,note_off,0,0,0,,0,,,84,127
102084,note_off,0,0,0,,7,,,55,127
102084,note_off,0,0,0,,7,,,43,127
102085,note_on,1,0,0,,5,,,53,127
102085,note_on,0,0,0,,5,,,41,127
102085,note_on,0,0,0,,2,,,86,127
102085,note_on,0,0,0,,2,,,74,127
102314,note_off,229,0,0,,2,,,74,127
102314,note_off,0,0,0,,2,,,86,127
102314,note_off,0,0,0,,5,,,41,127
102314,note_off,0,0,0,,5,,,53,127
102315,note_on,1,0,0,,3,,,39,127
102315,note_on,0,0,0,,3,,,51,127
102315,note_on,0,0,0,,3,,,75,127
102315,note_on,0,0,0,,3,,,87,127
102544,note_off,229,0,0,,3,,,87,127
102544,note_off,0,0,0,,3,,,75,127
102544,note_off,0,0,0,,3,,,51,127
102544,note_off,0,0,0,,3,,,39,127
102545,note_on,1,0,0,,2,,,38,127
102545,note_on,0,0,0,,2,,,50,127
102545,note_on,0,0,0,,11,,,82,127
102545,note_on,0,0,0,,11,,,70,127
102774,note_off,229,0,0,,2,,,50,127
102774,note_off,0,0,0,,2,,,38,127
102775,note_on,1,0,0,,11,,,34,127
102775,note_on,0,0,0,,11,,,46,127
103004,note_off,229,0,0,,11,,,46,127
103004,note_off,0,0,0,,11,,,34,127
103005,note_on,1,0,0,,3,,,39,127
103005,note_on,0,0,0,,3,,,51,127
103234,note_off,229,0,0,,11,,,82,127
103235,note_on,1,0,0,,8,,,80,127
103349,note_off,114,0,0,,8,,,80,127
103350,note_on,1,0,0,,7,,,79,127
103464,note_off,114,0,0,,7,,,79,127
103464,note_off,0,0,0,,3,,,51,127
103464,note_off,0,0,0,,3,,,39,127
103464,note_off,0,0,0,,11,,,70,127
103465,note_on,1,0,0,,8,,,44,127
103465,note_on,0,0,0,,8,,,56,127
103465,note_on,0,0,0,,8,,,68,127
103465,note_on,0,0,0,,5,,,77,127
103694,note_off,229,0,0,,5,,,77,127
103694,note_off,0,0,0,,8,,,68,127
103695,note_on,1,0,0,,3,,,75,127
103695,note_on,0,0,0,,7,,,67,127
103924,note_off,229,0,0,,8,,,56,127
103924,note_off,0,0,0,,8,,,44,127
103925,note_on,1,0,0,,11,,,46,127
103925,note_on,0,0,0,,11,,,58,127
104154,note_off,229,0,0,,7,,,67,127
104154,note_off,0,0,0,,3,,,75,127
104155,note_on,1,0,0,,2,,,74,127
104155,note_on,0,0,0,,5,,,65,127
104335,note_off,180,0,0,,2,,,74,127
104347,note_off,12,0,0,,5,,,65,127
104384,note_off,37,0,0,,11,,,58,127
104384,note_off,0,0,0,,11,,,46,127
104385,note_on,1,0,0,,3,,,39,127
104385,note_on,0,0,0,,3,,,51,127
104385,note_on,0,0,0,,7,,,79,127
104385,note_on,0,0,0,,3,,,75,127
104614,note_off,229,0,0,,3,,,75,127
104614,note_off,0,0,0,,7,,,79,127
104615,note_on,1,0,0,,2,,,74,127
104615,note_on,0,0,0,,5,,,77,127
104729,note_off,114,0,0,,5,,,77,127
104729,note_off,0,0,0,,2,,,74,127
104730,note_on,1,0,0,,7,,,79,127
104730,note_on,0,0,0,,3,,,75,127
104844,note_off,114,0,0,,3,,,75,127
104844,note_off,0,0,0,,7,,,79,127
104844,note_off,0,0,0,,3,,,51,127
104844,note_off,0,0,0,,3,,,39,127
104845,note_on,1,0,0,,8,,,44,127
104845,note_on,0,0,0,,8,,,56,127
104845,note_on,0,0,0,,8,,,80,127
104845,note_on,0,0,0,,5,,,77,127
105074,note_off,229,0,0,,8,,,80,127
105075,note_on,1,0,0,,11,,,82,127
105304,note_off,229,0,0,,11,,,82,127
105304,note_off,0,0,0,,5,,,77,127
105304,note_off,0,0,0,,8,,,56,127
105304,note_off,0,0,0,,8,,,44,127
105305,note_on,1,0,0,,11,,,46,127
105305,note_on,0,0,0,,11,,,58,127
105305,note_on,0,0,0,,8,,,80,127
105305,note_on,0,0,0,,3,,,75,127
105419,note_off,114,0,0,,8,,,80,127
105420,note_on,1,0,0,,7,,,79,127
105534,note_off,114,0,0,,7,,,79,127
105534,note_off,0,0,0,,3,,,75,127
105535,note_on,1,0,0,,5,,,77,127
105535,note_on,0,0,0,,2,,,74,127
105739,note_off,204,0,0,,2,,,74,127
105739,note_off,0,0,0,,5,,,77,127
105764,note_off,25,0,0,,11,,,58,127
105764,note_off,0,0,0,,11,,,46,127
105765,note_on,1,0,0,,3,,,39,127
105765,note_on,0,0,0,,3,,,51,127
105765,note_on,0,0,0,,7,,,79,127
105765,note_on,0,0,0,,3,,,75,127
105994,note_off,229,0,0,,3,,,75,127
105994,note_off,0,0,0,,7,,,79,127
105995,note_on,1,0,0,,2,,,74,127
105995,note_on,0,0,0,,5,,,77,127
106109,note_off,114,0,0,,5,,,77,127
106109,note_off,0,0,0,,2,,,74,127
106110,note_on,1,0,0,,7,,,79,127
106110,note_on,0,0,0,,3,,,75,127
106224,note_off,114,0,0,,3,,,75,127
106224,note_off,0,0,0,,7,,,79,127
106224,note_off,0,0,0,,3,,,51,127
106224,note_off,0,0,0,,3,,,39,127
106225,note_on,1,0,0,,8,,,44,127
106225,note_on,0,0,0,,8,,,56,127
106225,note_on,0,0,0,,5,,,77,127
106225,note_on,0,0,0,,8,,,80,127
106454,note_off,229,0,0,,8,,,80,127
106455,note_on,1,0,0,,11,,,82,127
106684,note_off,229,0,0,,11,,,82,127
106684,note_off,0,0,0,,5,,,77,127
106684,note_off,0,0,0,,8,,,56,127
106684,note_off,0,0,0,,8,,,44,127
106685,note_on,1,0,0,,11,,,46,127
106685,note_on,0,0,0,,11,,,58,127
106685,note_on,0,0,0,,3,,,75,127
106685,note_on,0,0,0,,8,,,80,127
106799,note_off,114,0,0,,8,,,80,127
106800,note_on,1,0,0,,7,,,79,127
106914,note_off,114,0,0,,7,,,79,127
106914,note_off,0,0,0,,3,,,75,127
106915,note_on,1,0,0,,5,,,77,127
106915,note_on,0,0,0,,2,,,74,127
107119,note_off,204,0,0,,2,,,74,127
107119,note_off,0,0,0,,5,,,77,127
107144,note_off,25,0,0,,11,,,58,127
107144,note_off,0,0,0,,11,,,46,127
107150,note_on,6,0,0,,7,,,79,127
107150,note_on,0,0,0,,3,,,75,127
107150,note_on,0,0,0,,3,,,51,127
107150,note_on,0,0,0,,3,,,39,127
107388,note_off,238,0,0,,3,,,75,127
107388,note_off,0,0,0,,7,,,79,127
107393,note_on,5,0,0,,2,,,74,127
107393,note_on,0,0,0,,5,,,77,127
107511,note_off,118,0,0,,5,,,77,127
107511,note_off,0,0,0,,2,,,74,127
107515,note_on,4,0,0,,3,,,75,127
107515,note_on,0,0,0,,7,,,79,127
107629,note_off,114,0,0,,3,,,39,127
107629,note_off,0,0,0,,3,,,51,127
107633,note_off,4,0,0,,7,,,79,127
107633,note_off,0,0,0,,3,,,75,127
107637,note_on,4,0,0,,5,,,77,127
107637,note_on,0,0,0,,8,,,80,127
107637,note_on,0,0,0,,8,,,56,127
107637,note_on,0,0,0,,8,,,44,127
107875,note_off,238,0,0,,8,,,80,127
107879,note_on,4,0,0,,11,,,82,127
108115,note_off,236,0,0,,8,,,44,127
108115,note_off,0,0,0,,8,,,56,127
108115,note_off,0,0,0,,5,,,77,127
108116,note_off,1,0,0,,11,,,82,127
108121,note_on,5,0,0,,8,,,80,127
108121,note_on,0,0,0,,3,,,75,127
108121,note_on,0,0,0,,11,,,58,127
108121,note_on,0,0,0,,11,,,46,127
108239,note_off,118,0,0,,8,,,80,127
108243,note_on,4,0,0,,7,,,79,127
108359,note_off,116,0,0,,3,,,75,127
108360,note_off,1,0,0,,7,,,79,127
108362,note_on,2,0,0,,2,,,74,127
108362,note_on,0,0,0,,5,,,77,127
108598,note_off,236,0,0,,11,,,46,127
108598,note_off,0,0,0,,11,,,58,127
108599,note_off,1,0,0,,5,,,77,127
108599,note_off,0,0,0,,2,,,74,127
108604,note_on,5,0,0,,2,,,74,127
108604,note_on,0,0,0,,5,,,77,127
108604,note_on,0,0,0,,3,,,51,127
108604,note_on,0,0,0,,3,,,39,127
109336,note_off,732,0,0,,5,,,77,127
109336,note_off,0,0,0,,2,,,74,127
109336,note_on,0,0,0,,3,,,75,127
110834,note_off,1498,0,0,,3,,,75,127
110834,note_off,0,0,0,,3,,,39,127
110834,note_off,0,0,0,,3,,,51,127
115200,end_of_track,4366,1,0,,,,,,
