tick,type,time,meta,track,program,channel,pitch,tempo,note,velocity
0,copyright,0,1,0,,,,,,
0,program_change,0,0,0,6,0,,,,
0,pitchwheel,0,0,0,,0,0,,,
0,program_change,0,0,0,6,1,,,,
0,pitchwheel,0,0,0,,1,-590,,,
0,program_change,0,0,0,6,2,,,,
0,pitchwheel,0,0,0,,2,-272,,,
0,program_change,0,0,0,6,3,,,,
0,pitchwheel,0,0,0,,3,-353,,,
0,program_change,0,0,0,6,4,,,,
0,pitchwheel,0,0,0,,4,-560,,,
0,program_change,0,0,0,6,5,,,,
0,pitchwheel,0,0,0,,5,-80,,,
0,program_change,0,0,0,6,6,,,,
0,pitchwheel,0,0,0,,6,-625,,,
0,program_change,0,0,0,6,7,,,,
0,pitchwheel,0,0,0,,7,-130,,,
0,program_change,0,0,0,6,8,,,,
0,pitchwheel,0,0,0,,8,-512,,,
0,program_change,0,0,0,6,10,,,,
0,pitchwheel,0,0,0,,10,-464,,,
0,program_change,0,0,0,6,11,,,,
0,pitchwheel,0,0,0,,11,-208,,,
0,program_change,0,0,0,6,12,,,,
0,pitchwheel,0,0,0,,12,-553,,,
0,set_tempo,0,1,0,,,,500000,,
128,note_on,128,0,0,,10,,,81,127
639,note_off,511,0,0,,10,,,81,127
640,note_on,1,0,0,,10,,,81,127
703,note_off,63,0,0,,10,,,81,127
704,note_on,1,0,0,,7,,,79,127
767,note_off,63,0,0,,7,,,79,127
768,note_on,1,0,0,,10,,,81,127
831,note_off,63,0,0,,10,,,81,127
832,note_on,1,0,0,,7,,,79,127
895,note_off,63,0,0,,7,,,79,127
896,note_on,1,0,0,,6,,,78,127
1023,note_off,127,0,0,,6,,,78,127
1024,note_on,1,0,0,,4,,,76,127
1151,note_off,127,0,0,,4,,,76,127
1152,note_on,1,0,0,,2,,,74,127
1407,note_off,255,0,0,,2,,,74,127
1408,note_on,1,0,0,,10,,,69,127
1663,note_off,255,0,0,,10,,,69,127
1664,note_on,1,0,0,,4,,,76,127
1727,note_off,63,0,0,,4,,,76,127
1728,note_on,1,0,0,,2,,,74,127
1791,note_off,63,0,0,,2,,,74,127
1792,note_on,1,0,0,,4,,,76,127
1855,note_off,63,0,0,,4,,,76,127
1856,note_on,1,0,0,,2,,,74,127
1919,note_off,63,0,0,,2,,,74,127
1920,note_on,1,0,0,,10,,,69,127
2175,note_off,255,0,0,,10,,,69,127
2176,note_on,1,0,0,,4,,,76,127
2239,note_off,63,0,0,,4,,,76,127
2240,note_on,1,0,0,,2,,,74,127
2303,note_off,63,0,0,,2,,,74,127
2304,note_on,1,0,0,,4,,,76,127
2367,note_off,63,0,0,,4,,,76,127
2368,note_on,1,0,0,,2,,,74,127
2431,note_off,63,0,0,,2,,,74,127
2432,note_on,1,0,0,,1,,,73,127
2559,note_off,127,0,0,,1,,,73,127
2560,note_on,1,0,0,,2,,,74,127
2687,note_off,127,0,0,,2,,,74,127
2688,note_on,1,0,0,,4,,,76,127
2943,note_off,255,0,0,,4,,,76,127
2944,note_on,1,0,0,,6,,,78,127
3199,note_off,255,0,0,,6,,,78,127
3200,note_on,1,0,0,,10,,,69,127
3200,note_on,0,0,0,,6,,,78,127
3453,note_off,253,0,0,,6,,,78,127
3456,note_on,3,0,0,,4,,,76,127
3709,note_off,253,0,0,,4,,,76,127
3710,note_off,1,0,0,,10,,,69,127
3711,note_on,1,0,0,,10,,,69,127
3774,note_off,63,0,0,,10,,,69,127
3775,note_on,1,0,0,,7,,,67,127
3838,note_off,63,0,0,,7,,,67,127
3839,note_on,1,0,0,,10,,,69,127
3902,note_off,63,0,0,,10,,,69,127
3903,note_on,1,0,0,,7,,,67,127
3966,note_off,63,0,0,,7,,,67,127
3967,note_on,1,0,0,,6,,,66,127
4094,note_off,127,0,0,,6,,,66,127
4095,note_on,1,0,0,,4,,,64,127
4222,note_off,127,0,0,,4,,,64,127
4223,note_on,1,0,0,,2,,,62,127
4478,note_off,255,0,0,,2,,,62,127
4479,note_on,1,0,0,,10,,,57,127
4479,note_on,0,0,0,,10,,,81,127
4734,note_off,255,0,0,,10,,,57,127
4735,note_on,1,0,0,,4,,,64,127
4798,note_off,63,0,0,,4,,,64,127
4799,note_on,1,0,0,,2,,,62,127
4862,note_off,63,0,0,,2,,,62,127
4863,note_on,1,0,0,,4,,,64,127
4926,note_off,63,0,0,,4,,,64,127
4927,note_on,1,0,0,,2,,,62,127
4990,note_off,63,0,0,,2,,,62,127
4990,note_off,0,0,0,,10,,,81,127
4991,note_on,1,0,0,,10,,,57,127
4991,note_on,0,0,0,,7,,,79,127
5246,note_off,255,0,0,,7,,,79,127
5246,note_off,0,0,0,,10,,,57,127
5247,note_on,1,0,0,,4,,,64,127
5247,note_on,0,0,0,,6,,,78,127
5310,note_off,63,0,0,,4,,,64,127
5311,note_on,1,0,0,,2,,,62,127
5374,note_off,63,0,0,,2,,,62,127
5375,note_on,1,0,0,,4,,,64,127
5438,note_off,63,0,0,,4,,,64,127
5439,note_on,1,0,0,,2,,,62,127
5502,note_off,63,0,0,,2,,,62,127
5502,note_off,0,0,0,,6,,,78,127
5503,note_on,1,0,0,,1,,,61,127
5503,note_on,0,0,0,,4,,,76,127
5630,note_off,127,0,0,,4,,,76,127
5630,note_off,0,0,0,,1,,,61,127
5631,note_on,1,0,0,,2,,,62,127
5631,note_on,0,0,0,,2,,,74,127
5758,note_off,127,0,0,,2,,,74,127
5758,note_off,0,0,0,,2,,,62,127
5759,note_on,1,0,0,,4,,,64,127
5759,note_on,0,0,0,,1,,,73,127
6014,note_off,255,0,0,,1,,,73,127
6014,note_off,0,0,0,,4,,,64,127
6015,note_on,1,0,0,,6,,,66,127
6015,note_on,0,0,0,,2,,,74,127
6270,note_off,255,0,0,,2,,,74,127
6270,note_off,0,0,0,,6,,,66,127
6271,note_on,1,0,0,,10,,,57,127
6271,note_on,0,0,0,,4,,,64,127
6271,note_on,0,0,0,,4,,,76,127
6398,note_off,127,0,0,,4,,,76,127
6399,note_on,1,0,0,,1,,,73,127
6526,note_off,127,0,0,,1,,,73,127
6527,note_on,1,0,0,,1,,,73,127
6654,note_off,127,0,0,,1,,,73,127
6655,note_on,1,0,0,,2,,,74,127
6778,note_off,123,0,0,,4,,,64,127
6782,note_off,4,0,0,,2,,,74,127
6783,note_on,1,0,0,,4,,,76,127
6911,note_on,128,0,0,,4,,,64,127
7038,note_off,127,0,0,,4,,,64,127
7039,note_on,1,0,0,,4,,,64,127
7166,note_off,127,0,0,,4,,,64,127
7167,note_on,1,0,0,,6,,,66,127
7290,note_off,123,0,0,,4,,,76,127
7294,note_off,4,0,0,,6,,,66,127
7294,note_off,0,0,0,,10,,,57,127
7295,note_on,1,0,0,,7,,,67,127
7295,note_on,0,0,0,,10,,,57,127
7423,note_on,128,0,0,,1,,,73,127
7550,note_off,127,0,0,,1,,,73,127
7551,note_on,1,0,0,,1,,,73,127
7678,note_off,127,0,0,,1,,,73,127
7679,note_on,1,0,0,,2,,,74,127
7802,note_off,123,0,0,,7,,,67,127
7806,note_off,4,0,0,,2,,,74,127
7807,note_on,1,0,0,,4,,,76,127
7935,note_on,128,0,0,,4,,,64,127
8062,note_off,127,0,0,,4,,,64,127
8063,note_on,1,0,0,,4,,,64,127
8190,note_off,127,0,0,,4,,,64,127
8191,note_on,1,0,0,,6,,,66,127
8314,note_off,123,0,0,,4,,,76,127
8318,note_off,4,0,0,,6,,,66,127
8318,note_off,0,0,0,,10,,,57,127
8319,note_on,1,0,0,,7,,,67,127
8319,note_on,0,0,0,,10,,,57,127
8447,note_on,128,0,0,,1,,,73,127
8574,note_off,127,0,0,,1,,,73,127
8575,note_on,1,0,0,,1,,,73,127
8702,note_off,127,0,0,,1,,,73,127
8703,note_on,1,0,0,,2,,,74,127
8826,note_off,123,0,0,,7,,,67,127
8830,note_off,4,0,0,,2,,,74,127
8831,note_on,1,0,0,,4,,,76,127
8959,note_on,128,0,0,,4,,,64,127
9086,note_off,127,0,0,,4,,,64,127
9087,note_on,1,0,0,,4,,,64,127
9214,note_off,127,0,0,,4,,,64,127
9215,note_on,1,0,0,,6,,,66,127
9342,note_off,127,0,0,,6,,,66,127
9342,note_off,0,0,0,,10,,,57,127
9343,note_on,1,0,0,,10,,,57,127
9343,note_on,0,0,0,,7,,,67,127
9470,note_off,127,0,0,,7,,,67,127
9471,note_on,1,0,0,,6,,,66,127
9598,note_off,127,0,0,,6,,,66,127
9598,note_off,0,0,0,,4,,,76,127
9599,note_on,1,0,0,,4,,,64,127
9599,note_on,0,0,0,,1,,,73,127
9726,note_off,127,0,0,,1,,,73,127
9726,note_off,0,0,0,,4,,,64,127
9727,note_on,1,0,0,,2,,,62,127
9727,note_on,0,0,0,,2,,,74,127
9854,note_off,127,0,0,,2,,,74,127
9854,note_off,0,0,0,,2,,,62,127
9855,note_on,1,0,0,,1,,,61,127
9855,note_on,0,0,0,,4,,,76,127
9975,note_off,120,0,0,,10,,,57,127
9982,note_off,7,0,0,,1,,,61,127
9983,note_on,1,0,0,,12,,,59,127
10110,note_off,127,0,0,,12,,,59,127
10110,note_off,0,0,0,,4,,,76,127
10111,note_on,1,0,0,,10,,,57,127
10111,note_on,0,0,0,,6,,,78,127
10238,note_off,127,0,0,,6,,,78,127
10238,note_off,0,0,0,,10,,,57,127
10239,note_on,1,0,0,,7,,,55,127
10239,note_on,0,0,0,,7,,,79,127
10366,note_off,127,0,0,,7,,,79,127
10366,note_off,0,0,0,,7,,,55,127
10367,note_on,1,0,0,,6,,,54,127
10367,note_on,0,0,0,,10,,,81,127
10494,note_off,127,0,0,,10,,,81,127
10495,note_on,1,0,0,,7,,,79,127
10622,note_off,127,0,0,,7,,,79,127
10623,note_on,1,0,0,,6,,,78,127
10750,note_off,127,0,0,,6,,,78,127
10751,note_on,1,0,0,,4,,,76,127
10878,note_off,127,0,0,,4,,,76,127
10879,note_on,1,0,0,,2,,,74,127
11006,note_off,127,0,0,,2,,,74,127
11007,note_on,1,0,0,,1,,,73,127
11134,note_off,127,0,0,,1,,,73,127
11134,note_off,0,0,0,,6,,,54,127
11135,note_on,1,0,0,,12,,,71,127
11262,note_off,127,0,0,,12,,,71,127
11263,note_on,1,0,0,,10,,,69,127
11390,note_off,127,0,0,,10,,,69,127
11391,note_on,1,0,0,,7,,,55,127
11391,note_on,0,0,0,,12,,,71,127
11518,note_off,127,0,0,,12,,,71,127
11519,note_on,1,0,0,,12,,,83,127
11646,note_off,127,0,0,,12,,,83,127
11647,note_on,1,0,0,,7,,,79,127
11774,note_off,127,0,0,,7,,,79,127
11775,note_on,1,0,0,,4,,,76,127
11902,note_off,127,0,0,,4,,,76,127
11902,note_off,0,0,0,,7,,,55,127
11903,note_on,1,0,0,,10,,,57,127
11903,note_on,0,0,0,,2,,,74,127
12158,note_off,255,0,0,,2,,,74,127
12158,note_off,0,0,0,,10,,,57,127
12159,note_on,1,0,0,,10,,,45,127
12159,note_on,0,0,0,,2,,,74,127
12222,note_off,63,0,0,,2,,,74,127
12223,note_on,1,0,0,,1,,,73,127
12286,note_off,63,0,0,,1,,,73,127
12287,note_on,1,0,0,,12,,,71,127
12350,note_off,63,0,0,,12,,,71,127
12351,note_on,1,0,0,,1,,,73,127
12414,note_off,63,0,0,,1,,,73,127
12414,note_off,0,0,0,,10,,,45,127
12415,note_on,1,0,0,,2,,,50,127
12415,note_on,0,0,0,,2,,,74,127
12670,note_off,255,0,0,,2,,,74,127
12671,note_on,1,0,0,,2,,,86,127
12799,note_on,128,0,0,,10,,,81,127
12922,note_off,123,0,0,,2,,,50,127
12926,note_off,4,0,0,,10,,,81,127
12927,note_on,1,0,0,,6,,,78,127
13182,note_off,255,0,0,,6,,,78,127
13183,note_on,1,0,0,,12,,,71,127
13183,note_on,0,0,0,,7,,,79,127
13310,note_off,127,0,0,,12,,,71,127
13311,note_on,1,0,0,,7,,,67,127
13438,note_off,127,0,0,,7,,,67,127
13439,note_on,1,0,0,,7,,,43,127
13694,note_off,255,0,0,,7,,,79,127
13694,note_off,0,0,0,,2,,,86,127
13695,note_on,1,0,0,,2,,,86,127
13823,note_on,128,0,0,,7,,,79,127
13950,note_off,127,0,0,,7,,,79,127
13951,note_on,1,0,0,,4,,,76,127
14079,note_off,128,0,0,,7,,,43,127
14206,note_off,127,0,0,,4,,,76,127
14207,note_on,1,0,0,,10,,,69,127
14207,note_on,0,0,0,,6,,,78,127
14334,note_off,127,0,0,,10,,,69,127
14335,note_on,1,0,0,,6,,,66,127
14462,note_off,127,0,0,,6,,,66,127
14463,note_on,1,0,0,,6,,,42,127
14718,note_off,255,0,0,,6,,,78,127
14718,note_off,0,0,0,,2,,,86,127
14719,note_on,1,0,0,,2,,,86,127
14847,note_on,128,0,0,,6,,,78,127
14974,note_off,127,0,0,,6,,,78,127
14975,note_on,1,0,0,,2,,,74,127
15103,note_off,128,0,0,,6,,,42,127
15230,note_off,127,0,0,,2,,,74,127
15231,note_on,1,0,0,,7,,,67,127
15231,note_on,0,0,0,,4,,,76,127
15358,note_off,127,0,0,,7,,,67,127
15359,note_on,1,0,0,,4,,,64,127
15486,note_off,127,0,0,,4,,,64,127
15486,note_off,0,0,0,,2,,,86,127
15487,note_on,1,0,0,,4,,,40,127
15742,note_off,255,0,0,,4,,,76,127
15743,note_on,1,0,0,,7,,,79,127
15871,note_on,128,0,0,,4,,,76,127
15998,note_off,127,0,0,,4,,,76,127
15999,note_on,1,0,0,,12,,,71,127
16127,note_off,128,0,0,,4,,,40,127
16254,note_off,127,0,0,,12,,,71,127
16255,note_on,1,0,0,,7,,,67,127
16255,note_on,0,0,0,,1,,,73,127
16382,note_off,127,0,0,,7,,,67,127
16383,note_on,1,0,0,,4,,,64,127
16508,note_off,125,0,0,,1,,,73,127
16509,note_off,1,0,0,,4,,,64,127
16509,note_off,0,0,0,,7,,,79,127
16510,note_on,1,0,0,,2,,,38,127
16766,note_on,256,0,0,,6,,,78,127
16893,note_off,127,0,0,,6,,,78,127
16894,note_on,1,0,0,,2,,,74,127
17017,note_off,123,0,0,,2,,,38,127
17021,note_off,4,0,0,,2,,,74,127
17022,note_on,1,0,0,,10,,,81,127
17022,note_on,0,0,0,,0,,,72,127
17277,note_off,255,0,0,,0,,,72,127
17277,note_off,0,0,0,,10,,,81,127
17278,note_on,1,0,0,,7,,,79,127
17278,note_on,0,0,0,,12,,,71,127
17533,note_off,255,0,0,,12,,,71,127
17533,note_off,0,0,0,,7,,,79,127
17534,note_on,1,0,0,,6,,,78,127
17534,note_on,0,0,0,,10,,,69,127
17790,note_on,256,0,0,,6,,,66,127
17917,note_off,127,0,0,,6,,,66,127
17918,note_on,1,0,0,,2,,,62,127
18045,note_off,127,0,0,,2,,,62,127
18046,note_on,1,0,0,,0,,,60,127
18301,note_off,255,0,0,,0,,,60,127
18302,note_on,1,0,0,,12,,,59,127
18557,note_off,255,0,0,,12,,,59,127
18557,note_off,0,0,0,,10,,,69,127
18557,note_off,0,0,0,,6,,,78,127
18558,note_on,1,0,0,,10,,,57,127
18558,note_on,0,0,0,,6,,,66,127
18814,note_on,256,0,0,,7,,,79,127
18867,note_off,53,0,0,,7,,,79,127
18867,note_on,0,0,0,,6,,,78,127
18919,note_off,52,0,0,,6,,,78,127
18920,note_on,1,0,0,,4,,,76,127
18973,note_off,53,0,0,,4,,,76,127
18973,note_on,0,0,0,,6,,,78,127
19025,note_off,52,0,0,,6,,,78,127
19026,note_on,1,0,0,,7,,,79,127
19067,note_off,41,0,0,,7,,,79,127
19068,note_on,1,0,0,,0,,,72,127
19068,note_on,0,0,0,,10,,,81,127
19323,note_off,255,0,0,,10,,,81,127
19323,note_off,0,0,0,,0,,,72,127
19323,note_off,0,0,0,,10,,,57,127
19324,note_on,1,0,0,,7,,,79,127
19324,note_on,0,0,0,,12,,,71,127
19579,note_off,255,0,0,,12,,,71,127
19579,note_off,0,0,0,,7,,,79,127
19579,note_off,0,0,0,,6,,,66,127
19580,note_on,1,0,0,,10,,,69,127
19580,note_on,0,0,0,,6,,,78,127
19836,note_on,256,0,0,,7,,,67,127
19889,note_off,53,0,0,,7,,,67,127
19889,note_on,0,0,0,,6,,,66,127
19941,note_off,52,0,0,,6,,,66,127
19942,note_on,1,0,0,,4,,,64,127
19995,note_off,53,0,0,,4,,,64,127
19995,note_on,0,0,0,,6,,,66,127
20047,note_off,52,0,0,,6,,,66,127
20048,note_on,1,0,0,,7,,,67,127
20085,note_off,37,0,0,,10,,,69,127
20089,note_off,4,0,0,,7,,,67,127
20090,note_on,1,0,0,,10,,,69,127
20090,note_on,0,0,0,,0,,,60,127
20345,note_off,255,0,0,,0,,,60,127
20345,note_off,0,0,0,,10,,,69,127
20346,note_on,1,0,0,,12,,,59,127
20346,note_on,0,0,0,,7,,,67,127
20601,note_off,255,0,0,,7,,,67,127
20601,note_off,0,0,0,,12,,,59,127
20601,note_off,0,0,0,,6,,,78,127
20602,note_on,1,0,0,,10,,,57,127
20602,note_on,0,0,0,,6,,,66,127
20857,note_off,255,0,0,,6,,,66,127
20857,note_off,0,0,0,,10,,,57,127
20858,note_on,1,0,0,,7,,,55,127
20858,note_on,0,0,0,,4,,,64,127
20858,note_on,0,0,0,,10,,,81,127
20921,note_off,63,0,0,,10,,,81,127
20922,note_on,1,0,0,,7,,,79,127
20985,note_off,63,0,0,,7,,,79,127
20986,note_on,1,0,0,,6,,,78,127
21049,note_off,63,0,0,,6,,,78,127
21050,note_on,1,0,0,,7,,,79,127
21113,note_off,63,0,0,,7,,,79,127
21113,note_off,0,0,0,,4,,,64,127
21113,note_off,0,0,0,,7,,,55,127
21114,note_on,1,0,0,,6,,,54,127
21114,note_on,0,0,0,,2,,,62,127
21114,note_on,0,0,0,,10,,,81,127
21369,note_off,255,0,0,,2,,,62,127
21369,note_off,0,0,0,,6,,,54,127
21370,note_on,1,0,0,,4,,,52,127
21370,note_on,0,0,0,,0,,,60,127
21625,note_off,255,0,0,,0,,,60,127
21625,note_off,0,0,0,,4,,,52,127
21626,note_on,1,0,0,,12,,,59,127
21626,note_on,0,0,0,,3,,,51,127
21881,note_off,255,0,0,,3,,,51,127
21881,note_off,0,0,0,,12,,,59,127
21882,note_on,1,0,0,,0,,,48,127
21882,note_on,0,0,0,,10,,,57,127
22137,note_off,255,0,0,,10,,,57,127
22137,note_off,0,0,0,,0,,,48,127
22137,note_off,0,0,0,,10,,,81,127
22138,note_on,1,0,0,,12,,,47,127
22138,note_on,0,0,0,,7,,,55,127
22138,note_on,0,0,0,,12,,,83,127
22393,note_off,255,0,0,,7,,,55,127
22393,note_off,0,0,0,,12,,,47,127
22394,note_on,1,0,0,,6,,,54,127
22394,note_on,0,0,0,,10,,,45,127
22649,note_off,255,0,0,,10,,,45,127
22649,note_off,0,0,0,,6,,,54,127
22650,note_on,1,0,0,,8,,,44,127
22650,note_on,0,0,0,,4,,,52,127
22777,note_off,127,0,0,,12,,,83,127
22778,note_on,1,0,0,,10,,,81,127
22905,note_off,127,0,0,,10,,,81,127
22905,note_off,0,0,0,,8,,,44,127
22906,note_on,1,0,0,,4,,,40,127
22906,note_on,0,0,0,,8,,,80,127
23033,note_off,127,0,0,,8,,,80,127
23034,note_on,1,0,0,,6,,,78,127
23157,note_off,123,0,0,,4,,,52,127
23161,note_off,4,0,0,,6,,,78,127
23162,note_on,1,0,0,,4,,,52,127
23162,note_on,0,0,0,,4,,,76,127
23289,note_off,127,0,0,,4,,,76,127
23290,note_on,1,0,0,,2,,,74,127
23413,note_off,123,0,0,,4,,,40,127
23417,note_off,4,0,0,,2,,,74,127
23418,note_on,1,0,0,,8,,,44,127
23418,note_on,0,0,0,,1,,,73,127
23545,note_off,127,0,0,,1,,,73,127
23546,note_on,1,0,0,,12,,,71,127
23669,note_off,123,0,0,,4,,,52,127
23673,note_off,4,0,0,,12,,,71,127
23673,note_off,0,0,0,,8,,,44,127
23674,note_on,1,0,0,,10,,,45,127
23674,note_on,0,0,0,,1,,,73,127
23801,note_off,127,0,0,,1,,,73,127
23802,note_on,1,0,0,,4,,,76,127
23929,note_off,127,0,0,,4,,,76,127
23929,note_off,0,0,0,,10,,,45,127
23930,note_on,1,0,0,,1,,,49,127
23930,note_on,0,0,0,,2,,,74,127
24057,note_off,127,0,0,,2,,,74,127
24058,note_on,1,0,0,,1,,,73,127
24185,note_off,127,0,0,,1,,,73,127
24185,note_off,0,0,0,,1,,,49,127
24186,note_on,1,0,0,,2,,,50,127
24186,note_on,0,0,0,,12,,,71,127
24313,note_off,127,0,0,,12,,,71,127
24314,note_on,1,0,0,,10,,,69,127
24441,note_off,127,0,0,,10,,,69,127
24441,note_off,0,0,0,,2,,,50,127
24442,note_on,1,0,0,,2,,,38,127
24442,note_on,0,0,0,,8,,,68,127
24569,note_off,127,0,0,,8,,,68,127
24570,note_on,1,0,0,,6,,,66,127
24697,note_off,127,0,0,,6,,,66,127
24697,note_off,0,0,0,,2,,,38,127
24698,note_on,1,0,0,,4,,,40,127
24698,note_on,0,0,0,,4,,,64,127
24911,note_off,213,0,0,,4,,,40,127
24952,note_off,41,0,0,,4,,,64,127
24953,note_on,1,0,0,,4,,,52,127
24953,note_on,0,0,0,,2,,,62,127
24953,note_on,0,0,0,,12,,,71,127
25080,note_off,127,0,0,,12,,,71,127
25080,note_off,0,0,0,,2,,,62,127
25081,note_on,1,0,0,,12,,,59,127
25081,note_on,0,0,0,,8,,,68,127
25208,note_off,127,0,0,,8,,,68,127
25208,note_off,0,0,0,,12,,,59,127
25209,note_on,1,0,0,,1,,,61,127
25209,note_on,0,0,0,,10,,,69,127
25464,note_off,255,0,0,,10,,,69,127
25464,note_off,0,0,0,,1,,,61,127
25465,note_on,1,0,0,,2,,,62,127
25465,note_on,0,0,0,,1,,,73,127
25528,note_off,63,0,0,,1,,,73,127
25529,note_on,1,0,0,,12,,,71,127
25592,note_off,63,0,0,,12,,,71,127
25593,note_on,1,0,0,,1,,,73,127
25656,note_off,63,0,0,,1,,,73,127
25657,note_on,1,0,0,,12,,,71,127
25720,note_off,63,0,0,,12,,,71,127
25720,note_off,0,0,0,,2,,,62,127
25720,note_off,0,0,0,,4,,,52,127
25721,note_on,1,0,0,,4,,,40,127
25721,note_on,0,0,0,,2,,,86,127
25976,note_off,255,0,0,,2,,,86,127
25976,note_off,0,0,0,,4,,,40,127
25977,note_on,1,0,0,,4,,,52,127
25977,note_on,0,0,0,,2,,,62,127
25977,note_on,0,0,0,,12,,,71,127
26104,note_off,127,0,0,,12,,,71,127
26104,note_off,0,0,0,,2,,,62,127
26105,note_on,1,0,0,,12,,,59,127
26105,note_on,0,0,0,,8,,,68,127
26232,note_off,127,0,0,,8,,,68,127
26232,note_off,0,0,0,,12,,,59,127
26233,note_on,1,0,0,,1,,,61,127
26233,note_on,0,0,0,,10,,,69,127
26488,note_off,255,0,0,,10,,,69,127
26488,note_off,0,0,0,,1,,,61,127
26489,note_on,1,0,0,,2,,,62,127
26489,note_on,0,0,0,,1,,,73,127
26552,note_off,63,0,0,,1,,,73,127
26553,note_on,1,0,0,,12,,,71,127
26616,note_off,63,0,0,,12,,,71,127
26617,note_on,1,0,0,,1,,,73,127
26680,note_off,63,0,0,,1,,,73,127
26681,note_on,1,0,0,,12,,,71,127
26744,note_off,63,0,0,,12,,,71,127
26744,note_off,0,0,0,,2,,,62,127
26744,note_off,0,0,0,,4,,,52,127
26745,note_on,1,0,0,,4,,,40,127
26745,note_on,0,0,0,,2,,,86,127
27000,note_off,255,0,0,,2,,,86,127
27000,note_off,0,0,0,,4,,,40,127
27001,note_on,1,0,0,,4,,,52,127
27001,note_on,0,0,0,,2,,,62,127
27001,note_on,0,0,0,,12,,,71,127
27128,note_off,127,0,0,,12,,,71,127
27128,note_off,0,0,0,,2,,,62,127
27129,note_on,1,0,0,,12,,,59,127
27129,note_on,0,0,0,,8,,,68,127
27256,note_off,127,0,0,,8,,,68,127
27256,note_off,0,0,0,,12,,,59,127
27257,note_on,1,0,0,,1,,,61,127
27257,note_on,0,0,0,,10,,,69,127
27512,note_off,255,0,0,,10,,,69,127
27512,note_off,0,0,0,,1,,,61,127
27513,note_on,1,0,0,,2,,,62,127
27513,note_on,0,0,0,,1,,,73,127
27576,note_off,63,0,0,,1,,,73,127
27577,note_on,1,0,0,,12,,,71,127
27640,note_off,63,0,0,,12,,,71,127
27641,note_on,1,0,0,,1,,,73,127
27704,note_off,63,0,0,,1,,,73,127
27705,note_on,1,0,0,,12,,,71,127
27768,note_off,63,0,0,,12,,,71,127
27768,note_off,0,0,0,,2,,,62,127
27768,note_off,0,0,0,,4,,,52,127
27769,note_on,1,0,0,,4,,,40,127
27769,note_on,0,0,0,,2,,,86,127
28024,note_off,255,0,0,,2,,,86,127
28024,note_off,0,0,0,,4,,,40,127
28025,note_on,1,0,0,,8,,,44,127
28025,note_on,0,0,0,,4,,,76,127
28152,note_off,127,0,0,,4,,,76,127
28153,note_on,1,0,0,,2,,,86,127
28280,note_off,127,0,0,,2,,,86,127
28280,note_off,0,0,0,,8,,,44,127
28281,note_on,1,0,0,,10,,,45,127
28281,note_on,0,0,0,,1,,,85,127
28408,note_off,127,0,0,,1,,,85,127
28409,note_on,1,0,0,,8,,,80,127
28536,note_off,127,0,0,,8,,,80,127
28536,note_off,0,0,0,,10,,,45,127
28537,note_on,1,0,0,,1,,,49,127
28537,note_on,0,0,0,,10,,,81,127
28664,note_off,127,0,0,,10,,,81,127
28665,note_on,1,0,0,,4,,,76,127
28792,note_off,127,0,0,,4,,,76,127
28792,note_off,0,0,0,,1,,,49,127
28793,note_on,1,0,0,,2,,,50,127
28793,note_on,0,0,0,,6,,,78,127
28920,note_off,127,0,0,,6,,,78,127
28921,note_on,1,0,0,,1,,,73,127
29048,note_off,127,0,0,,1,,,73,127
29048,note_off,0,0,0,,2,,,50,127
29049,note_on,1,0,0,,2,,,38,127
29049,note_on,0,0,0,,2,,,74,127
29176,note_off,127,0,0,,2,,,74,127
29177,note_on,1,0,0,,12,,,71,127
29304,note_off,127,0,0,,12,,,71,127
29304,note_off,0,0,0,,2,,,38,127
29305,note_on,1,0,0,,4,,,52,127
29305,note_on,0,0,0,,10,,,69,127
29560,note_off,255,0,0,,10,,,69,127
29560,note_off,0,0,0,,4,,,52,127
29561,note_on,1,0,0,,4,,,40,127
29561,note_on,0,0,0,,10,,,69,127
29624,note_off,63,0,0,,10,,,69,127
29625,note_on,1,0,0,,8,,,68,127
29688,note_off,63,0,0,,8,,,68,127
29689,note_on,1,0,0,,6,,,66,127
29752,note_off,63,0,0,,6,,,66,127
29753,note_on,1,0,0,,8,,,68,127
29816,note_off,63,0,0,,8,,,68,127
29816,note_off,0,0,0,,4,,,40,127
29817,note_on,1,0,0,,10,,,45,127
29817,note_on,0,0,0,,10,,,69,127
30072,note_off,255,0,0,,10,,,69,127
30072,note_off,0,0,0,,10,,,45,127
30073,note_on,1,0,0,,10,,,57,127
30073,note_on,0,0,0,,4,,,76,127
30073,note_on,0,0,0,,1,,,73,127
30200,note_off,127,0,0,,1,,,73,127
30201,note_on,1,0,0,,1,,,61,127
30201,note_on,0,0,0,,4,,,64,127
30326,note_off,125,0,0,,4,,,76,127
30327,note_off,1,0,0,,4,,,64,127
30327,note_off,0,0,0,,1,,,61,127
30328,note_on,1,0,0,,2,,,62,127
30328,note_on,0,0,0,,2,,,74,127
30328,note_on,0,0,0,,6,,,66,127
30579,note_off,251,0,0,,10,,,57,127
30583,note_off,4,0,0,,6,,,66,127
30583,note_off,0,0,0,,2,,,62,127
30584,note_on,1,0,0,,12,,,59,127
30584,note_on,0,0,0,,8,,,68,127
30835,note_off,251,0,0,,2,,,74,127
30839,note_off,4,0,0,,8,,,68,127
30839,note_off,0,0,0,,12,,,59,127
30840,note_on,1,0,0,,10,,,33,127
30840,note_on,0,0,0,,1,,,85,127
31095,note_off,255,0,0,,1,,,85,127
31095,note_off,0,0,0,,10,,,33,127
31096,note_on,1,0,0,,10,,,57,127
31096,note_on,0,0,0,,4,,,76,127
31096,note_on,0,0,0,,1,,,73,127
31223,note_off,127,0,0,,1,,,73,127
31224,note_on,1,0,0,,1,,,61,127
31224,note_on,0,0,0,,4,,,64,127
31349,note_off,125,0,0,,4,,,76,127
31350,note_off,1,0,0,,4,,,64,127
31350,note_off,0,0,0,,1,,,61,127
31351,note_on,1,0,0,,2,,,62,127
31351,note_on,0,0,0,,2,,,74,127
31351,note_on,0,0,0,,6,,,66,127
31602,note_off,251,0,0,,10,,,57,127
31606,note_off,4,0,0,,6,,,66,127
31606,note_off,0,0,0,,2,,,62,127
31607,note_on,1,0,0,,12,,,59,127
31607,note_on,0,0,0,,8,,,68,127
31858,note_off,251,0,0,,2,,,74,127
31862,note_off,4,0,0,,8,,,68,127
31862,note_off,0,0,0,,12,,,59,127
31863,note_on,1,0,0,,10,,,33,127
31863,note_on,0,0,0,,1,,,85,127
32118,note_off,255,0,0,,1,,,85,127
32118,note_off,0,0,0,,10,,,33,127
32119,note_on,1,0,0,,10,,,57,127
32119,note_on,0,0,0,,4,,,76,127
32119,note_on,0,0,0,,1,,,73,127
32246,note_off,127,0,0,,1,,,73,127
32247,note_on,1,0,0,,1,,,61,127
32247,note_on,0,0,0,,4,,,64,127
32372,note_off,125,0,0,,4,,,76,127
32373,note_off,1,0,0,,4,,,64,127
32373,note_off,0,0,0,,1,,,61,127
32374,note_on,1,0,0,,2,,,62,127
32374,note_on,0,0,0,,2,,,74,127
32374,note_on,0,0,0,,6,,,66,127
32625,note_off,251,0,0,,10,,,57,127
32629,note_off,4,0,0,,6,,,66,127
32629,note_off,0,0,0,,2,,,62,127
32630,note_on,1,0,0,,12,,,59,127
32630,note_on,0,0,0,,8,,,68,127
32881,note_off,251,0,0,,2,,,74,127
32885,note_off,4,0,0,,8,,,68,127
32885,note_off,0,0,0,,12,,,59,127
32886,note_on,1,0,0,,10,,,33,127
32886,note_on,0,0,0,,1,,,85,127
33013,note_off,127,0,0,,1,,,85,127
33014,note_on,1,0,0,,10,,,81,127
33141,note_off,127,0,0,,10,,,81,127
33141,note_off,0,0,0,,10,,,33,127
33142,note_on,1,0,0,,10,,,45,127
33142,note_on,0,0,0,,8,,,80,127
33269,note_off,127,0,0,,8,,,80,127
33270,note_on,1,0,0,,12,,,83,127
33397,note_off,127,0,0,,12,,,83,127
33398,note_on,1,0,0,,10,,,81,127
33525,note_off,127,0,0,,10,,,81,127
33526,note_off,1,0,0,,10,,,45,127
33526,note_on,0,0,0,,6,,,78,127
33653,note_off,127,0,0,,6,,,78,127
33654,note_on,1,0,0,,1,,,37,127
33654,note_on,0,0,0,,4,,,76,127
33781,note_off,127,0,0,,4,,,76,127
33782,note_on,1,0,0,,7,,,79,127
33909,note_off,127,0,0,,7,,,79,127
33909,note_off,0,0,0,,1,,,37,127
33910,note_on,1,0,0,,2,,,38,127
33910,note_on,0,0,0,,6,,,78,127
34037,note_off,127,0,0,,6,,,78,127
34038,note_on,1,0,0,,1,,,73,127
34165,note_off,127,0,0,,1,,,73,127
34165,note_off,0,0,0,,2,,,38,127
34166,note_on,1,0,0,,2,,,50,127
34166,note_on,0,0,0,,2,,,74,127
34293,note_off,127,0,0,,2,,,74,127
34294,note_on,1,0,0,,12,,,71,127
34421,note_off,127,0,0,,12,,,71,127
34421,note_off,0,0,0,,2,,,50,127
34422,note_on,1,0,0,,4,,,40,127
34422,note_on,0,0,0,,10,,,69,127
34677,note_off,255,0,0,,10,,,69,127
34677,note_off,0,0,0,,4,,,40,127
34678,note_on,1,0,0,,4,,,52,127
34678,note_on,0,0,0,,10,,,69,127
34741,note_off,63,0,0,,10,,,69,127
34742,note_on,1,0,0,,8,,,68,127
34805,note_off,63,0,0,,8,,,68,127
34806,note_on,1,0,0,,6,,,66,127
34869,note_off,63,0,0,,6,,,66,127
34870,note_on,1,0,0,,8,,,68,127
34933,note_off,63,0,0,,8,,,68,127
34933,note_off,0,0,0,,4,,,52,127
34934,note_on,1,0,0,,10,,,45,127
34934,note_on,0,0,0,,10,,,69,127
35189,note_off,255,0,0,,10,,,69,127
35189,note_off,0,0,0,,10,,,45,127
35190,note_on,1,0,0,,10,,,57,127
35190,note_on,0,0,0,,1,,,73,127
35190,note_on,0,0,0,,4,,,76,127
35317,note_off,127,0,0,,1,,,73,127
35317,note_off,0,0,0,,10,,,57,127
35318,note_on,1,0,0,,1,,,61,127
35318,note_on,0,0,0,,4,,,64,127
35443,note_off,125,0,0,,4,,,76,127
35444,note_off,1,0,0,,4,,,64,127
35444,note_off,0,0,0,,1,,,61,127
35445,note_on,1,0,0,,2,,,62,127
35445,note_on,0,0,0,,2,,,74,127
35445,note_on,0,0,0,,6,,,66,127
35700,note_off,255,0,0,,6,,,66,127
35700,note_off,0,0,0,,2,,,62,127
35701,note_on,1,0,0,,12,,,59,127
35701,note_on,0,0,0,,8,,,68,127
35952,note_off,251,0,0,,2,,,74,127
35956,note_off,4,0,0,,8,,,68,127
35956,note_off,0,0,0,,12,,,59,127
35957,note_on,1,0,0,,10,,,33,127
35957,note_on,0,0,0,,1,,,85,127
36212,note_off,255,0,0,,1,,,85,127
36212,note_off,0,0,0,,10,,,33,127
36213,note_on,1,0,0,,10,,,57,127
36213,note_on,0,0,0,,1,,,73,127
36213,note_on,0,0,0,,4,,,76,127
36340,note_off,127,0,0,,1,,,73,127
36340,note_off,0,0,0,,10,,,57,127
36341,note_on,1,0,0,,1,,,61,127
36341,note_on,0,0,0,,4,,,64,127
36466,note_off,125,0,0,,4,,,76,127
36467,note_off,1,0,0,,4,,,64,127
36467,note_off,0,0,0,,1,,,61,127
36468,note_on,1,0,0,,2,,,62,127
36468,note_on,0,0,0,,2,,,74,127
36468,note_on,0,0,0,,6,,,66,127
36723,note_off,255,0,0,,6,,,66,127
36723,note_off,0,0,0,,2,,,62,127
36724,note_on,1,0,0,,12,,,59,127
36724,note_on,0,0,0,,8,,,68,127
36975,note_off,251,0,0,,2,,,74,127
36979,note_off,4,0,0,,8,,,68,127
36979,note_off,0,0,0,,12,,,59,127
36980,note_on,1,0,0,,10,,,33,127
36980,note_on,0,0,0,,1,,,85,127
37235,note_off,255,0,0,,1,,,85,127
37235,note_off,0,0,0,,10,,,33,127
37236,note_on,1,0,0,,10,,,57,127
37236,note_on,0,0,0,,4,,,76,127
37236,note_on,0,0,0,,1,,,73,127
37363,note_off,127,0,0,,1,,,73,127
37363,note_off,0,0,0,,10,,,57,127
37364,note_on,1,0,0,,1,,,61,127
37364,note_on,0,0,0,,4,,,64,127
37489,note_off,125,0,0,,4,,,76,127
37490,note_off,1,0,0,,4,,,64,127
37490,note_off,0,0,0,,1,,,61,127
37491,note_on,1,0,0,,2,,,62,127
37491,note_on,0,0,0,,2,,,74,127
37491,note_on,0,0,0,,6,,,66,127
37746,note_off,255,0,0,,6,,,66,127
37746,note_off,0,0,0,,2,,,62,127
37747,note_on,1,0,0,,12,,,59,127
37747,note_on,0,0,0,,8,,,68,127
37998,note_off,251,0,0,,2,,,74,127
38002,note_off,4,0,0,,8,,,68,127
38002,note_off,0,0,0,,12,,,59,127
38003,note_on,1,0,0,,10,,,33,127
38003,note_on,0,0,0,,1,,,85,127
38130,note_off,127,0,0,,1,,,85,127
38131,note_on,1,0,0,,10,,,81,127
38258,note_off,127,0,0,,10,,,81,127
38258,note_off,0,0,0,,10,,,33,127
38259,note_on,1,0,0,,10,,,45,127
38259,note_on,0,0,0,,8,,,80,127
38386,note_off,127,0,0,,8,,,80,127
38387,note_on,1,0,0,,12,,,83,127
38514,note_off,127,0,0,,12,,,83,127
38515,note_on,1,0,0,,10,,,81,127
38642,note_off,127,0,0,,10,,,81,127
38643,note_off,1,0,0,,10,,,45,127
38643,note_on,0,0,0,,6,,,78,127
38770,note_off,127,0,0,,6,,,78,127
38771,note_on,1,0,0,,1,,,37,127
38771,note_on,0,0,0,,4,,,76,127
38898,note_off,127,0,0,,4,,,76,127
38899,note_on,1,0,0,,7,,,79,127
39026,note_off,127,0,0,,7,,,79,127
39026,note_off,0,0,0,,1,,,37,127
39027,note_on,1,0,0,,2,,,38,127
39027,note_on,0,0,0,,6,,,78,127
39154,note_off,127,0,0,,6,,,78,127
39155,note_on,1,0,0,,1,,,73,127
39282,note_off,127,0,0,,1,,,73,127
39282,note_off,0,0,0,,2,,,38,127
39283,note_on,1,0,0,,2,,,50,127
39283,note_on,0,0,0,,2,,,74,127
39410,note_off,127,0,0,,2,,,74,127
39411,note_on,1,0,0,,12,,,71,127
39538,note_off,127,0,0,,12,,,71,127
39538,note_off,0,0,0,,2,,,50,127
39539,note_on,1,0,0,,4,,,40,127
39539,note_on,0,0,0,,10,,,69,127
39794,note_off,255,0,0,,10,,,69,127
39794,note_off,0,0,0,,4,,,40,127
39795,note_on,1,0,0,,4,,,52,127
39795,note_on,0,0,0,,10,,,69,127
39858,note_off,63,0,0,,10,,,69,127
39859,note_on,1,0,0,,8,,,68,127
39922,note_off,63,0,0,,8,,,68,127
39923,note_on,1,0,0,,6,,,66,127
39986,note_off,63,0,0,,6,,,66,127
39987,note_on,1,0,0,,8,,,68,127
40050,note_off,63,0,0,,8,,,68,127
40050,note_off,0,0,0,,4,,,52,127
40051,note_on,1,0,0,,10,,,45,127
40051,note_on,0,0,0,,10,,,33,127
40051,note_on,0,0,0,,10,,,69,127
40306,note_off,255,0,0,,10,,,69,127
40307,note_on,1,0,0,,1,,,73,127
40434,note_off,127,0,0,,1,,,73,127
40435,note_on,1,0,0,,10,,,69,127
40558,note_off,123,0,0,,10,,,33,127
40558,note_off,0,0,0,,10,,,45,127
40562,note_off,4,0,0,,10,,,69,127
40563,note_on,1,0,0,,4,,,76,127
40563,note_on,0,0,0,,1,,,73,127
40818,note_off,255,0,0,,1,,,73,127
40818,note_off,0,0,0,,4,,,76,127
40819,note_on,1,0,0,,12,,,71,127
40819,note_on,0,0,0,,2,,,74,127
41072,note_off,253,0,0,,2,,,74,127
41072,note_off,0,0,0,,12,,,71,127
41075,note_on,3,0,0,,4,,,40,127
41075,note_on,0,0,0,,4,,,52,127
41331,note_on,256,0,0,,1,,,73,127
41458,note_off,127,0,0,,1,,,73,127
41459,note_on,1,0,0,,10,,,69,127
41582,note_off,123,0,0,,4,,,52,127
41582,note_off,0,0,0,,4,,,40,127
41586,note_off,4,0,0,,10,,,69,127
41587,note_on,1,0,0,,4,,,64,127
41587,note_on,0,0,0,,1,,,73,127
41842,note_off,255,0,0,,1,,,73,127
41842,note_off,0,0,0,,4,,,64,127
41843,note_on,1,0,0,,12,,,71,127
41843,note_on,0,0,0,,2,,,62,127
42096,note_off,253,0,0,,2,,,62,127
42096,note_off,0,0,0,,12,,,71,127
42099,note_on,3,0,0,,10,,,45,127
42099,note_on,0,0,0,,10,,,33,127
42355,note_on,256,0,0,,1,,,73,127
42482,note_off,127,0,0,,1,,,73,127
42483,note_on,1,0,0,,10,,,69,127
42610,note_off,127,0,0,,10,,,69,127
42611,note_on,1,0,0,,4,,,76,127
42611,note_on,0,0,0,,1,,,73,127
42866,note_off,255,0,0,,1,,,73,127
42866,note_off,0,0,0,,4,,,76,127
42866,note_off,0,0,0,,10,,,33,127
42866,note_off,0,0,0,,10,,,45,127
42867,note_on,1,0,0,,2,,,74,127
42867,note_on,0,0,0,,12,,,71,127
43120,note_off,253,0,0,,12,,,71,127
43120,note_off,0,0,0,,2,,,74,127
43123,note_on,3,0,0,,4,,,40,127
43123,note_on,0,0,0,,4,,,52,127
43379,note_on,256,0,0,,1,,,73,127
43506,note_off,127,0,0,,1,,,73,127
43507,note_on,1,0,0,,10,,,69,127
43634,note_off,127,0,0,,10,,,69,127
43635,note_on,1,0,0,,1,,,73,127
43635,note_on,0,0,0,,4,,,64,127
43890,note_off,255,0,0,,4,,,64,127
43890,note_off,0,0,0,,1,,,73,127
43890,note_off,0,0,0,,4,,,52,127
43890,note_off,0,0,0,,4,,,40,127
43891,note_on,1,0,0,,2,,,62,127
43891,note_on,0,0,0,,12,,,71,127
44146,note_off,255,0,0,,12,,,71,127
44146,note_off,0,0,0,,2,,,62,127
44147,note_on,1,0,0,,10,,,45,127
44147,note_on,0,0,0,,10,,,33,127
44147,note_on,0,0,0,,10,,,69,127
44274,note_off,127,0,0,,10,,,69,127
44275,note_on,1,0,0,,4,,,76,127
44402,note_off,127,0,0,,4,,,76,127
44402,note_off,0,0,0,,10,,,33,127
44402,note_off,0,0,0,,10,,,45,127
44403,note_on,1,0,0,,2,,,38,127
44403,note_on,0,0,0,,2,,,50,127
44403,note_on,0,0,0,,2,,,74,127
44530,note_off,127,0,0,,2,,,74,127
44531,note_on,1,0,0,,12,,,71,127
44658,note_off,127,0,0,,12,,,71,127
44659,note_on,1,0,0,,1,,,73,127
44659,note_on,0,0,0,,10,,,69,127
44787,note_off,128,0,0,,2,,,50,127
44787,note_off,0,0,0,,2,,,38,127
44914,note_off,127,0,0,,10,,,69,127
44914,note_off,0,0,0,,1,,,73,127
44915,note_on,1,0,0,,4,,,40,127
44915,note_on,0,0,0,,4,,,52,127
44915,note_on,0,0,0,,1,,,73,127
44915,note_on,0,0,0,,8,,,68,127
44978,note_off,63,0,0,,1,,,73,127
44979,note_on,1,0,0,,12,,,71,127
45035,note_off,56,0,0,,8,,,68,127
45042,note_off,7,0,0,,12,,,71,127
45043,note_on,1,0,0,,10,,,69,127
45106,note_off,63,0,0,,10,,,69,127
45107,note_on,1,0,0,,12,,,71,127
45170,note_off,63,0,0,,12,,,71,127
45171,note_on,1,0,0,,10,,,69,127
45298,note_off,127,0,0,,10,,,69,127
45299,note_off,1,0,0,,4,,,52,127
45299,note_off,0,0,0,,4,,,40,127
45299,note_on,0,0,0,,4,,,76,127
45426,note_off,127,0,0,,4,,,76,127
45427,note_on,1,0,0,,2,,,50,127
45427,note_on,0,0,0,,2,,,38,127
45427,note_on,0,0,0,,2,,,74,127
45554,note_off,127,0,0,,2,,,74,127
45555,note_on,1,0,0,,12,,,71,127
45682,note_off,127,0,0,,12,,,71,127
45683,note_on,1,0,0,,1,,,73,127
45683,note_on,0,0,0,,10,,,69,127
45811,note_off,128,0,0,,2,,,38,127
45811,note_off,0,0,0,,2,,,50,127
45938,note_off,127,0,0,,10,,,69,127
45938,note_off,0,0,0,,1,,,73,127
45939,note_on,1,0,0,,4,,,52,127
45939,note_on,0,0,0,,4,,,40,127
45939,note_on,0,0,0,,8,,,68,127
45939,note_on,0,0,0,,1,,,73,127
46002,note_off,63,0,0,,1,,,73,127
46003,note_on,1,0,0,,12,,,71,127
46059,note_off,56,0,0,,8,,,68,127
46066,note_off,7,0,0,,12,,,71,127
46067,note_on,1,0,0,,10,,,69,127
46130,note_off,63,0,0,,10,,,69,127
46131,note_on,1,0,0,,12,,,71,127
46194,note_off,63,0,0,,12,,,71,127
46195,note_on,1,0,0,,10,,,69,127
46322,note_off,127,0,0,,10,,,69,127
46323,note_off,1,0,0,,4,,,40,127
46323,note_off,0,0,0,,4,,,52,127
46323,note_on,0,0,0,,10,,,81,127
46450,note_off,127,0,0,,10,,,81,127
46451,note_on,1,0,0,,2,,,38,127
46451,note_on,0,0,0,,2,,,50,127
46451,note_on,0,0,0,,6,,,78,127
46578,note_off,127,0,0,,6,,,78,127
46579,note_on,1,0,0,,2,,,74,127
46706,note_off,127,0,0,,2,,,74,127
46706,note_off,0,0,0,,2,,,50,127
46706,note_off,0,0,0,,2,,,38,127
46707,note_on,1,0,0,,4,,,52,127
46707,note_on,0,0,0,,10,,,69,127
46707,note_on,0,0,0,,1,,,73,127
46962,note_off,255,0,0,,1,,,73,127
46962,note_off,0,0,0,,10,,,69,127
46962,note_off,0,0,0,,4,,,52,127
46963,note_on,1,0,0,,4,,,40,127
46963,note_on,0,0,0,,1,,,73,127
46963,note_on,0,0,0,,8,,,68,127
47026,note_off,63,0,0,,1,,,73,127
47027,note_on,1,0,0,,12,,,71,127
47090,note_off,63,0,0,,12,,,71,127
47091,note_on,1,0,0,,10,,,69,127
47154,note_off,63,0,0,,10,,,69,127
47155,note_on,1,0,0,,12,,,71,127
47216,note_off,61,0,0,,8,,,68,127
47217,note_off,1,0,0,,12,,,71,127
47217,note_off,0,0,0,,4,,,40,127
47218,note_on,1,0,0,,10,,,33,127
47218,note_on,0,0,0,,10,,,69,127
47985,note_off,767,0,0,,10,,,69,127
48241,note_off,256,0,0,,10,,,33,127
48242,note_on,1,0,0,,10,,,33,127
48498,note_on,256,0,0,,1,,,73,127
48625,note_off,127,0,0,,1,,,73,127
48626,note_on,1,0,0,,4,,,64,127
48749,note_off,123,0,0,,10,,,33,127
48754,note_on,5,0,0,,1,,,73,127
48999,note_off,245,0,0,,4,,,64,127
49008,note_off,9,0,0,,1,,,73,127
49009,note_on,1,0,0,,2,,,74,127
49009,note_on,0,0,0,,6,,,66,127
49264,note_off,255,0,0,,6,,,66,127
49264,note_off,0,0,0,,2,,,74,127
49265,note_on,1,0,0,,7,,,67,127
49265,note_on,0,0,0,,4,,,76,127
49521,note_on,256,0,0,,1,,,61,127
49648,note_off,127,0,0,,1,,,61,127
49649,note_on,1,0,0,,4,,,52,127
49772,note_off,123,0,0,,4,,,76,127
49772,note_off,0,0,0,,7,,,67,127
49777,note_on,5,0,0,,1,,,61,127
50022,note_off,245,0,0,,4,,,52,127
50031,note_off,9,0,0,,1,,,61,127
50032,note_on,1,0,0,,6,,,54,127
50032,note_on,0,0,0,,2,,,62,127
50287,note_off,255,0,0,,2,,,62,127
50287,note_off,0,0,0,,6,,,54,127
50288,note_on,1,0,0,,4,,,64,127
50288,note_on,0,0,0,,7,,,55,127
50544,note_on,256,0,0,,4,,,76,127
50671,note_off,127,0,0,,4,,,76,127
50672,note_on,1,0,0,,7,,,67,127
50795,note_off,123,0,0,,7,,,55,127
50795,note_off,0,0,0,,4,,,64,127
50800,note_on,5,0,0,,4,,,76,127
51045,note_off,245,0,0,,7,,,67,127
51054,note_off,9,0,0,,4,,,76,127
51055,note_on,1,0,0,,6,,,78,127
51055,note_on,0,0,0,,10,,,69,127
51310,note_off,255,0,0,,10,,,69,127
51310,note_off,0,0,0,,6,,,78,127
51311,note_on,1,0,0,,7,,,79,127
51311,note_on,0,0,0,,12,,,71,127
51567,note_on,256,0,0,,4,,,64,127
51694,note_off,127,0,0,,4,,,64,127
51695,note_on,1,0,0,,7,,,55,127
51823,note_on,128,0,0,,4,,,64,127
52068,note_off,245,0,0,,7,,,55,127
52077,note_off,9,0,0,,4,,,64,127
52078,note_on,1,0,0,,6,,,66,127
52078,note_on,0,0,0,,10,,,57,127
52333,note_off,255,0,0,,10,,,57,127
52333,note_off,0,0,0,,6,,,66,127
52333,note_off,0,0,0,,12,,,71,127
52333,note_off,0,0,0,,7,,,79,127
52334,note_on,1,0,0,,12,,,59,127
52334,note_on,0,0,0,,7,,,67,127
52334,note_on,0,0,0,,7,,,79,127
52589,note_off,255,0,0,,7,,,79,127
52589,note_off,0,0,0,,7,,,67,127
52589,note_off,0,0,0,,12,,,59,127
52590,note_on,1,0,0,,1,,,61,127
52590,note_on,0,0,0,,10,,,69,127
52590,note_on,0,0,0,,7,,,79,127
52653,note_off,63,0,0,,7,,,79,127
52654,note_on,1,0,0,,6,,,78,127
52717,note_off,63,0,0,,6,,,78,127
52718,note_on,1,0,0,,4,,,76,127
52845,note_off,127,0,0,,4,,,76,127
52845,note_off,0,0,0,,1,,,61,127
52846,note_on,1,0,0,,2,,,62,127
52846,note_on,0,0,0,,6,,,78,127
53097,note_off,251,0,0,,10,,,69,127
53101,note_off,4,0,0,,6,,,78,127
53101,note_off,0,0,0,,2,,,62,127
53102,note_on,1,0,0,,2,,,50,127
53102,note_on,0,0,0,,6,,,78,127
53165,note_off,63,0,0,,6,,,78,127
53166,note_on,1,0,0,,4,,,76,127
53229,note_off,63,0,0,,4,,,76,127
53230,note_on,1,0,0,,2,,,74,127
53357,note_off,127,0,0,,2,,,74,127
53357,note_off,0,0,0,,2,,,50,127
53358,note_on,1,0,0,,10,,,45,127
53358,note_on,0,0,0,,4,,,76,127
53613,note_off,255,0,0,,4,,,76,127
53614,note_on,1,0,0,,10,,,81,127
53742,note_on,128,0,0,,4,,,76,127
53865,note_off,123,0,0,,10,,,45,127
53869,note_off,4,0,0,,4,,,76,127
53870,note_on,1,0,0,,1,,,73,127
54125,note_off,255,0,0,,1,,,73,127
54126,note_on,1,0,0,,6,,,66,127
54126,note_on,0,0,0,,2,,,74,127
54253,note_off,127,0,0,,6,,,66,127
54254,note_on,1,0,0,,2,,,62,127
54381,note_off,127,0,0,,2,,,62,127
54382,note_on,1,0,0,,2,,,38,127
54637,note_off,255,0,0,,2,,,74,127
54637,note_off,0,0,0,,10,,,81,127
54638,note_on,1,0,0,,10,,,81,127
54766,note_on,128,0,0,,2,,,74,127
54889,note_off,123,0,0,,2,,,38,127
54893,note_off,4,0,0,,2,,,74,127
54894,note_on,1,0,0,,12,,,71,127
55149,note_off,255,0,0,,12,,,71,127
55150,note_on,1,0,0,,4,,,64,127
55150,note_on,0,0,0,,1,,,73,127
55277,note_off,127,0,0,,4,,,64,127
55278,note_on,1,0,0,,1,,,61,127
55405,note_off,127,0,0,,1,,,61,127
55406,note_on,1,0,0,,1,,,37,127
55661,note_off,255,0,0,,1,,,73,127
55661,note_off,0,0,0,,10,,,81,127
55662,note_on,1,0,0,,10,,,81,127
55790,note_on,128,0,0,,1,,,73,127
55913,note_off,123,0,0,,1,,,37,127
55917,note_off,4,0,0,,1,,,73,127
55918,note_on,1,0,0,,10,,,69,127
56173,note_off,255,0,0,,10,,,69,127
56174,note_on,1,0,0,,2,,,62,127
56174,note_on,0,0,0,,12,,,71,127
56301,note_off,127,0,0,,2,,,62,127
56302,note_on,1,0,0,,12,,,59,127
56429,note_off,127,0,0,,12,,,59,127
56429,note_off,0,0,0,,10,,,81,127
56430,note_on,1,0,0,,12,,,35,127
56685,note_off,255,0,0,,12,,,71,127
56686,note_on,1,0,0,,2,,,74,127
56814,note_on,128,0,0,,12,,,71,127
56937,note_off,123,0,0,,12,,,35,127
56941,note_off,4,0,0,,12,,,71,127
56942,note_on,1,0,0,,6,,,66,127
57197,note_off,255,0,0,,6,,,66,127
57198,note_on,1,0,0,,2,,,62,127
57198,note_on,0,0,0,,8,,,68,127
57325,note_off,127,0,0,,2,,,62,127
57326,note_on,1,0,0,,12,,,59,127
57453,note_off,127,0,0,,12,,,59,127
57453,note_off,0,0,0,,8,,,68,127
57453,note_off,0,0,0,,2,,,74,127
57454,note_on,1,0,0,,10,,,33,127
57454,note_on,0,0,0,,10,,,69,127
57709,note_off,255,0,0,,10,,,69,127
57710,note_on,1,0,0,,1,,,73,127
57837,note_off,127,0,0,,1,,,73,127
57838,note_on,1,0,0,,10,,,69,127
57965,note_off,127,0,0,,10,,,69,127
57966,note_on,1,0,0,,10,,,81,127
57966,note_on,0,0,0,,1,,,73,127
58221,note_off,255,0,0,,1,,,73,127
58221,note_off,0,0,0,,10,,,81,127
58221,note_off,0,0,0,,10,,,33,127
58222,note_on,1,0,0,,12,,,47,127
58222,note_on,0,0,0,,3,,,75,127
58222,note_on,0,0,0,,10,,,81,127
58477,note_off,255,0,0,,10,,,81,127
58477,note_off,0,0,0,,3,,,75,127
58477,note_off,0,0,0,,12,,,47,127
58478,note_on,1,0,0,,0,,,48,127
58478,note_on,0,0,0,,4,,,76,127
58478,note_on,0,0,0,,10,,,81,127
58478,note_on,0,0,0,,10,,,69,127
58478,note_on,0,0,0,,6,,,78,127
58733,note_off,255,0,0,,6,,,78,127
58733,note_off,0,0,0,,4,,,76,127
58733,note_off,0,0,0,,0,,,48,127
58734,note_on,1,0,0,,12,,,47,127
58734,note_on,0,0,0,,3,,,75,127
58985,note_off,251,0,0,,10,,,69,127
58985,note_off,0,0,0,,10,,,81,127
58989,note_off,4,0,0,,3,,,75,127
58989,note_off,0,0,0,,12,,,47,127
58990,note_on,1,0,0,,0,,,48,127
58990,note_on,0,0,0,,10,,,81,127
58990,note_on,0,0,0,,10,,,69,127
58990,note_on,0,0,0,,4,,,76,127
58990,note_on,0,0,0,,6,,,78,127
59245,note_off,255,0,0,,6,,,78,127
59245,note_off,0,0,0,,4,,,76,127
59245,note_off,0,0,0,,0,,,48,127
59246,note_on,1,0,0,,12,,,47,127
59246,note_on,0,0,0,,3,,,75,127
59497,note_off,251,0,0,,10,,,69,127
59497,note_off,0,0,0,,10,,,81,127
59501,note_off,4,0,0,,3,,,75,127
59501,note_off,0,0,0,,12,,,47,127
59502,note_on,1,0,0,,0,,,36,127
59502,note_on,0,0,0,,0,,,48,127
59502,note_on,0,0,0,,10,,,69,127
59502,note_on,0,0,0,,4,,,76,127
59502,note_on,0,0,0,,10,,,81,127
59757,note_off,255,0,0,,10,,,81,127
59757,note_off,0,0,0,,4,,,76,127
59757,note_off,0,0,0,,10,,,69,127
59757,note_off,0,0,0,,0,,,48,127
59757,note_off,0,0,0,,0,,,36,127
59758,note_on,1,0,0,,3,,,39,127
59758,note_on,0,0,0,,3,,,51,127
59758,note_on,0,0,0,,10,,,81,127
59758,note_on,0,0,0,,0,,,72,127
60013,note_off,255,0,0,,0,,,72,127
60013,note_off,0,0,0,,10,,,81,127
60013,note_off,0,0,0,,3,,,51,127
60013,note_off,0,0,0,,3,,,39,127
60014,note_on,1,0,0,,4,,,40,127
60014,note_on,0,0,0,,4,,,52,127
60014,note_on,0,0,0,,7,,,79,127
60014,note_on,0,0,0,,12,,,71,127
60269,note_off,255,0,0,,12,,,71,127
60269,note_off,0,0,0,,7,,,79,127
60269,note_off,0,0,0,,4,,,52,127
60269,note_off,0,0,0,,4,,,40,127
60270,note_on,1,0,0,,6,,,42,127
60270,note_on,0,0,0,,6,,,54,127
60270,note_on,0,0,0,,10,,,69,127
60270,note_on,0,0,0,,6,,,78,127
60525,note_off,255,0,0,,6,,,78,127
60525,note_off,0,0,0,,10,,,69,127
60525,note_off,0,0,0,,6,,,54,127
60525,note_off,0,0,0,,6,,,42,127
60526,note_on,1,0,0,,7,,,43,127
60526,note_on,0,0,0,,7,,,55,127
60526,note_on,0,0,0,,4,,,76,127
60526,note_on,0,0,0,,7,,,67,127
60781,note_off,255,0,0,,4,,,76,127
60782,note_on,1,0,0,,2,,,74,127
61033,note_off,251,0,0,,7,,,67,127
61037,note_off,4,0,0,,2,,,74,127
61037,note_off,0,0,0,,7,,,55,127
61037,note_off,0,0,0,,7,,,43,127
61038,note_on,1,0,0,,10,,,45,127
61038,note_on,0,0,0,,2,,,74,127
61101,note_off,63,0,0,,2,,,74,127
61102,note_on,1,0,0,,0,,,72,127
61165,note_off,63,0,0,,0,,,72,127
61166,note_on,1,0,0,,2,,,74,127
61229,note_off,63,0,0,,2,,,74,127
61230,note_on,1,0,0,,0,,,72,127
61293,note_off,63,0,0,,0,,,72,127
61293,note_off,0,0,0,,10,,,45,127
61294,note_on,1,0,0,,10,,,57,127
61294,note_on,0,0,0,,2,,,74,127
61357,note_off,63,0,0,,2,,,74,127
61358,note_on,1,0,0,,0,,,72,127
61421,note_off,63,0,0,,0,,,72,127
61422,note_on,1,0,0,,12,,,71,127
61485,note_off,63,0,0,,12,,,71,127
61486,note_on,1,0,0,,0,,,72,127
61549,note_off,63,0,0,,0,,,72,127
61549,note_off,0,0,0,,10,,,57,127
61550,note_on,1,0,0,,12,,,47,127
61550,note_on,0,0,0,,12,,,71,127
61805,note_off,255,0,0,,12,,,71,127
61805,note_off,0,0,0,,12,,,47,127
61806,note_on,1,0,0,,12,,,59,127
61806,note_on,0,0,0,,12,,,71,127
61934,note_on,128,0,0,,3,,,63,127
61934,note_on,0,0,0,,6,,,66,127
62061,note_off,127,0,0,,6,,,66,127
62061,note_off,0,0,0,,3,,,63,127
62062,note_on,1,0,0,,4,,,64,127
62062,note_on,0,0,0,,7,,,67,127
62313,note_off,251,0,0,,12,,,71,127
62313,note_off,0,0,0,,12,,,59,127
62317,note_off,4,0,0,,7,,,67,127
62317,note_off,0,0,0,,4,,,64,127
62318,note_on,1,0,0,,0,,,60,127
62318,note_on,0,0,0,,12,,,71,127
62381,note_off,63,0,0,,12,,,71,127
62382,note_on,1,0,0,,10,,,69,127
62445,note_off,63,0,0,,10,,,69,127
62446,note_on,1,0,0,,12,,,71,127
62509,note_off,63,0,0,,12,,,71,127
62510,note_on,1,0,0,,10,,,69,127
62573,note_off,63,0,0,,10,,,69,127
62573,note_off,0,0,0,,0,,,60,127
62574,note_on,1,0,0,,12,,,35,127
62574,note_on,0,0,0,,12,,,83,127
62829,note_off,255,0,0,,12,,,83,127
62829,note_off,0,0,0,,12,,,35,127
62830,note_on,1,0,0,,12,,,59,127
62830,note_on,0,0,0,,12,,,71,127
62958,note_on,128,0,0,,3,,,63,127
62958,note_on,0,0,0,,6,,,66,127
63085,note_off,127,0,0,,6,,,66,127
63085,note_off,0,0,0,,3,,,63,127
63086,note_on,1,0,0,,4,,,64,127
63086,note_on,0,0,0,,7,,,67,127
63337,note_off,251,0,0,,12,,,71,127
63337,note_off,0,0,0,,12,,,59,127
63341,note_off,4,0,0,,7,,,67,127
63341,note_off,0,0,0,,4,,,64,127
63342,note_on,1,0,0,,0,,,60,127
63342,note_on,0,0,0,,12,,,71,127
63405,note_off,63,0,0,,12,,,71,127
63406,note_on,1,0,0,,10,,,69,127
63469,note_off,63,0,0,,10,,,69,127
63470,note_on,1,0,0,,12,,,71,127
63533,note_off,63,0,0,,12,,,71,127
63534,note_on,1,0,0,,10,,,69,127
63597,note_off,63,0,0,,10,,,69,127
63597,note_off,0,0,0,,0,,,60,127
63598,note_on,1,0,0,,12,,,35,127
63598,note_on,0,0,0,,12,,,83,127
63853,note_off,255,0,0,,12,,,83,127
63853,note_off,0,0,0,,12,,,35,127
63854,note_on,1,0,0,,12,,,59,127
63854,note_on,0,0,0,,12,,,71,127
63982,note_on,128,0,0,,3,,,63,127
63982,note_on,0,0,0,,6,,,66,127
64109,note_off,127,0,0,,6,,,66,127
64109,note_off,0,0,0,,3,,,63,127
64110,note_on,1,0,0,,4,,,64,127
64110,note_on,0,0,0,,7,,,67,127
64361,note_off,251,0,0,,12,,,71,127
64361,note_off,0,0,0,,12,,,59,127
64365,note_off,4,0,0,,7,,,67,127
64365,note_off,0,0,0,,4,,,64,127
64366,note_on,1,0,0,,0,,,60,127
64366,note_on,0,0,0,,12,,,71,127
64429,note_off,63,0,0,,12,,,71,127
64430,note_on,1,0,0,,10,,,69,127
64493,note_off,63,0,0,,10,,,69,127
64494,note_on,1,0,0,,12,,,71,127
64557,note_off,63,0,0,,12,,,71,127
64558,note_on,1,0,0,,10,,,69,127
64621,note_off,63,0,0,,10,,,69,127
64621,note_off,0,0,0,,0,,,60,127
64622,note_on,1,0,0,,12,,,35,127
64622,note_on,0,0,0,,12,,,83,127
64877,note_off,255,0,0,,12,,,83,127
64877,note_off,0,0,0,,12,,,35,127
64878,note_on,1,0,0,,3,,,39,127
64878,note_on,0,0,0,,12,,,83,127
65005,note_off,127,0,0,,12,,,83,127
65006,note_on,1,0,0,,10,,,81,127
65133,note_off,127,0,0,,10,,,81,127
65133,note_off,0,0,0,,3,,,39,127
65134,note_on,1,0,0,,4,,,40,127
65134,note_on,0,0,0,,8,,,80,127
65261,note_off,127,0,0,,8,,,80,127
65262,note_on,1,0,0,,6,,,78,127
65389,note_off,127,0,0,,6,,,78,127
65389,note_off,0,0,0,,4,,,40,127
65390,note_on,1,0,0,,8,,,44,127
65390,note_on,0,0,0,,4,,,76,127
65517,note_off,127,0,0,,4,,,76,127
65518,note_on,1,0,0,,2,,,74,127
65645,note_off,127,0,0,,2,,,74,127
65645,note_off,0,0,0,,8,,,44,127
65646,note_on,1,0,0,,10,,,45,127
65646,note_on,0,0,0,,1,,,73,127
65901,note_off,255,0,0,,1,,,73,127
65901,note_off,0,0,0,,10,,,45,127
65902,note_on,1,0,0,,10,,,57,127
65902,note_on,0,0,0,,10,,,69,127
66030,note_on,128,0,0,,1,,,61,127
66030,note_on,0,0,0,,4,,,64,127
66157,note_off,127,0,0,,4,,,64,127
66157,note_off,0,0,0,,1,,,61,127
66158,note_on,1,0,0,,2,,,62,127
66158,note_on,0,0,0,,6,,,66,127
66409,note_off,251,0,0,,10,,,69,127
66409,note_off,0,0,0,,10,,,57,127
66413,note_off,4,0,0,,6,,,66,127
66413,note_off,0,0,0,,2,,,62,127
66414,note_on,1,0,0,,12,,,59,127
66414,note_on,0,0,0,,10,,,69,127
66477,note_off,63,0,0,,10,,,69,127
66478,note_on,1,0,0,,8,,,68,127
66541,note_off,63,0,0,,8,,,68,127
66542,note_on,1,0,0,,10,,,69,127
66605,note_off,63,0,0,,10,,,69,127
66606,note_on,1,0,0,,8,,,68,127
66669,note_off,63,0,0,,8,,,68,127
66669,note_off,0,0,0,,12,,,59,127
66670,note_on,1,0,0,,10,,,33,127
66670,note_on,0,0,0,,10,,,81,127
66925,note_off,255,0,0,,10,,,81,127
66925,note_off,0,0,0,,10,,,33,127
66926,note_on,1,0,0,,10,,,57,127
66926,note_on,0,0,0,,10,,,69,127
67054,note_on,128,0,0,,1,,,61,127
67054,note_on,0,0,0,,4,,,64,127
67181,note_off,127,0,0,,4,,,64,127
67181,note_off,0,0,0,,1,,,61,127
67182,note_on,1,0,0,,2,,,62,127
67182,note_on,0,0,0,,6,,,66,127
67433,note_off,251,0,0,,10,,,69,127
67433,note_off,0,0,0,,10,,,57,127
67437,note_off,4,0,0,,6,,,66,127
67437,note_off,0,0,0,,2,,,62,127
67438,note_on,1,0,0,,12,,,59,127
67438,note_on,0,0,0,,10,,,69,127
67501,note_off,63,0,0,,10,,,69,127
67502,note_on,1,0,0,,8,,,68,127
67565,note_off,63,0,0,,8,,,68,127
67566,note_on,1,0,0,,10,,,69,127
67629,note_off,63,0,0,,10,,,69,127
67630,note_on,1,0,0,,8,,,68,127
67693,note_off,63,0,0,,8,,,68,127
67693,note_off,0,0,0,,12,,,59,127
67694,note_on,1,0,0,,10,,,33,127
67694,note_on,0,0,0,,10,,,81,127
67949,note_off,255,0,0,,10,,,81,127
67949,note_off,0,0,0,,10,,,33,127
67950,note_on,1,0,0,,10,,,57,127
67950,note_on,0,0,0,,10,,,69,127
68078,note_on,128,0,0,,1,,,61,127
68078,note_on,0,0,0,,4,,,64,127
68205,note_off,127,0,0,,4,,,64,127
68205,note_off,0,0,0,,1,,,61,127
68206,note_on,1,0,0,,2,,,62,127
68206,note_on,0,0,0,,6,,,66,127
68457,note_off,251,0,0,,10,,,69,127
68457,note_off,0,0,0,,10,,,57,127
68461,note_off,4,0,0,,6,,,66,127
68461,note_off,0,0,0,,2,,,62,127
68462,note_on,1,0,0,,12,,,59,127
68462,note_on,0,0,0,,10,,,69,127
68525,note_off,63,0,0,,10,,,69,127
68526,note_on,1,0,0,,8,,,68,127
68589,note_off,63,0,0,,8,,,68,127
68590,note_on,1,0,0,,10,,,69,127
68653,note_off,63,0,0,,10,,,69,127
68654,note_on,1,0,0,,8,,,68,127
68717,note_off,63,0,0,,8,,,68,127
68717,note_off,0,0,0,,12,,,59,127
68718,note_on,1,0,0,,10,,,33,127
68718,note_on,0,0,0,,10,,,81,127
68973,note_off,255,0,0,,10,,,81,127
68973,note_off,0,0,0,,10,,,33,127
68974,note_on,1,0,0,,1,,,37,127
68974,note_on,0,0,0,,10,,,81,127
69101,note_off,127,0,0,,10,,,81,127
69102,note_on,1,0,0,,7,,,79,127
69229,note_off,127,0,0,,7,,,79,127
69229,note_off,0,0,0,,1,,,37,127
69230,note_on,1,0,0,,2,,,38,127
69230,note_on,0,0,0,,6,,,78,127
69357,note_off,127,0,0,,6,,,78,127
69358,note_on,1,0,0,,4,,,76,127
69485,note_off,127,0,0,,4,,,76,127
69485,note_off,0,0,0,,2,,,38,127
69486,note_on,1,0,0,,6,,,42,127
69486,note_on,0,0,0,,2,,,74,127
69613,note_off,127,0,0,,2,,,74,127
69614,note_on,1,0,0,,1,,,73,127
69741,note_off,127,0,0,,1,,,73,127
69741,note_off,0,0,0,,6,,,42,127
69742,note_on,1,0,0,,7,,,43,127
69742,note_on,0,0,0,,12,,,71,127
69869,note_off,127,0,0,,12,,,71,127
69870,note_on,1,0,0,,2,,,74,127
69997,note_off,127,0,0,,2,,,74,127
69997,note_off,0,0,0,,7,,,43,127
69998,note_on,1,0,0,,7,,,55,127
69998,note_on,0,0,0,,1,,,73,127
70125,note_off,127,0,0,,1,,,73,127
70126,note_on,1,0,0,,12,,,71,127
70253,note_off,127,0,0,,12,,,71,127
70253,note_off,0,0,0,,7,,,55,127
70254,note_on,1,0,0,,10,,,45,127
70254,note_on,0,0,0,,10,,,69,127
70381,note_off,127,0,0,,10,,,69,127
70382,note_on,1,0,0,,7,,,67,127
70509,note_off,127,0,0,,7,,,67,127
70509,note_off,0,0,0,,10,,,45,127
70510,note_on,1,0,0,,10,,,57,127
70510,note_on,0,0,0,,6,,,66,127
70637,note_off,127,0,0,,6,,,66,127
70638,note_on,1,0,0,,4,,,64,127
70765,note_off,127,0,0,,4,,,64,127
70765,note_off,0,0,0,,10,,,57,127
70766,note_on,1,0,0,,2,,,50,127
70766,note_on,0,0,0,,2,,,62,127
71021,note_off,255,0,0,,2,,,62,127
71021,note_off,0,0,0,,2,,,50,127
71022,note_on,1,0,0,,6,,,66,127
71022,note_on,0,0,0,,2,,,74,127
71022,note_on,0,0,0,,10,,,69,127
71142,note_off,120,0,0,,6,,,66,127
71149,note_off,7,0,0,,10,,,69,127
71150,note_on,1,0,0,,2,,,62,127
71150,note_on,0,0,0,,6,,,66,127
71277,note_off,127,0,0,,6,,,66,127
71277,note_off,0,0,0,,2,,,62,127
71278,note_on,1,0,0,,4,,,64,127
71278,note_on,0,0,0,,7,,,67,127
71529,note_off,251,0,0,,2,,,74,127
71533,note_off,4,0,0,,7,,,67,127
71533,note_off,0,0,0,,4,,,64,127
71534,note_on,1,0,0,,6,,,66,127
71534,note_on,0,0,0,,12,,,71,127
71597,note_off,63,0,0,,12,,,71,127
71598,note_on,1,0,0,,10,,,69,127
71661,note_off,63,0,0,,10,,,69,127
71662,note_on,1,0,0,,12,,,71,127
71725,note_off,63,0,0,,12,,,71,127
71726,note_on,1,0,0,,10,,,69,127
71789,note_off,63,0,0,,10,,,69,127
71789,note_off,0,0,0,,6,,,66,127
71790,note_on,1,0,0,,7,,,43,127
71790,note_on,0,0,0,,12,,,83,127
72045,note_off,255,0,0,,12,,,83,127
72045,note_off,0,0,0,,7,,,43,127
72046,note_on,1,0,0,,4,,,64,127
72046,note_on,0,0,0,,7,,,67,127
72046,note_on,0,0,0,,2,,,74,127
72166,note_off,120,0,0,,4,,,64,127
72173,note_off,7,0,0,,7,,,67,127
72174,note_on,1,0,0,,1,,,61,127
72174,note_on,0,0,0,,4,,,64,127
72301,note_off,127,0,0,,4,,,64,127
72301,note_off,0,0,0,,1,,,61,127
72302,note_on,1,0,0,,2,,,62,127
72302,note_on,0,0,0,,6,,,66,127
72553,note_off,251,0,0,,2,,,74,127
72557,note_off,4,0,0,,6,,,66,127
72557,note_off,0,0,0,,2,,,62,127
72558,note_on,1,0,0,,4,,,64,127
72558,note_on,0,0,0,,10,,,69,127
72621,note_off,63,0,0,,10,,,69,127
72622,note_on,1,0,0,,7,,,67,127
72685,note_off,63,0,0,,7,,,67,127
72686,note_on,1,0,0,,10,,,69,127
72749,note_off,63,0,0,,10,,,69,127
72750,note_on,1,0,0,,7,,,67,127
72813,note_off,63,0,0,,7,,,67,127
72813,note_off,0,0,0,,4,,,64,127
72814,note_on,1,0,0,,6,,,42,127
72814,note_on,0,0,0,,10,,,81,127
73069,note_off,255,0,0,,10,,,81,127
73069,note_off,0,0,0,,6,,,42,127
73070,note_on,1,0,0,,2,,,62,127
73070,note_on,0,0,0,,2,,,74,127
73070,note_on,0,0,0,,6,,,66,127
73190,note_off,120,0,0,,2,,,62,127
73197,note_off,7,0,0,,6,,,66,127
73198,note_on,1,0,0,,12,,,59,127
73198,note_on,0,0,0,,2,,,62,127
73325,note_off,127,0,0,,2,,,62,127
73325,note_off,0,0,0,,12,,,59,127
73326,note_on,1,0,0,,1,,,61,127
73326,note_on,0,0,0,,4,,,64,127
73577,note_off,251,0,0,,2,,,74,127
73581,note_off,4,0,0,,4,,,64,127
73581,note_off,0,0,0,,1,,,61,127
73582,note_on,1,0,0,,2,,,62,127
73582,note_on,0,0,0,,7,,,67,127
73645,note_off,63,0,0,,7,,,67,127
73646,note_on,1,0,0,,6,,,66,127
73709,note_off,63,0,0,,6,,,66,127
73710,note_on,1,0,0,,7,,,67,127
73773,note_off,63,0,0,,7,,,67,127
73774,note_on,1,0,0,,6,,,66,127
73837,note_off,63,0,0,,6,,,66,127
73837,note_off,0,0,0,,2,,,62,127
73838,note_on,1,0,0,,4,,,40,127
73838,note_on,0,0,0,,7,,,79,127
74093,note_off,255,0,0,,7,,,79,127
74093,note_off,0,0,0,,4,,,40,127
74094,note_on,1,0,0,,1,,,61,127
74094,note_on,0,0,0,,10,,,69,127
74094,note_on,0,0,0,,4,,,64,127
74221,note_off,127,0,0,,4,,,64,127
74221,note_off,0,0,0,,1,,,61,127
74222,note_on,1,0,0,,10,,,57,127
74222,note_on,0,0,0,,1,,,61,127
74349,note_off,127,0,0,,1,,,61,127
74349,note_off,0,0,0,,10,,,57,127
74350,note_on,1,0,0,,12,,,59,127
74350,note_on,0,0,0,,2,,,62,127
74478,note_off,128,0,0,,10,,,69,127
74605,note_off,127,0,0,,2,,,62,127
74605,note_off,0,0,0,,12,,,59,127
74606,note_on,1,0,0,,1,,,61,127
74606,note_on,0,0,0,,6,,,66,127
74669,note_off,63,0,0,,6,,,66,127
74670,note_on,1,0,0,,4,,,64,127
74733,note_off,63,0,0,,4,,,64,127
74734,note_on,1,0,0,,2,,,62,127
74797,note_off,63,0,0,,2,,,62,127
74798,note_on,1,0,0,,4,,,64,127
74861,note_off,63,0,0,,4,,,64,127
74861,note_off,0,0,0,,1,,,61,127
74862,note_on,1,0,0,,2,,,38,127
74862,note_on,0,0,0,,6,,,66,127
74989,note_off,127,0,0,,6,,,66,127
74990,note_on,1,0,0,,2,,,62,127
75117,note_off,127,0,0,,2,,,62,127
75118,note_on,1,0,0,,10,,,69,127
75245,note_off,127,0,0,,10,,,69,127
75246,note_on,1,0,0,,6,,,66,127
75373,note_off,127,0,0,,6,,,66,127
75374,note_on,1,0,0,,2,,,74,127
75501,note_off,127,0,0,,2,,,74,127
75502,note_off,1,0,0,,2,,,38,127
75502,note_on,0,0,0,,10,,,69,127
75629,note_off,127,0,0,,10,,,69,127
75630,note_on,1,0,0,,2,,,50,127
75630,note_on,0,0,0,,6,,,78,127
75757,note_off,127,0,0,,6,,,78,127
75758,note_on,1,0,0,,2,,,74,127
75885,note_off,127,0,0,,2,,,74,127
75885,note_off,0,0,0,,2,,,50,127
75886,note_on,1,0,0,,7,,,43,127
75886,note_on,0,0,0,,12,,,71,127
76013,note_off,127,0,0,,12,,,71,127
76014,note_on,1,0,0,,10,,,81,127
76141,note_off,127,0,0,,10,,,81,127
76141,note_off,0,0,0,,7,,,43,127
76142,note_on,1,0,0,,7,,,55,127
76142,note_on,0,0,0,,7,,,79,127
76269,note_off,127,0,0,,7,,,79,127
76270,note_on,1,0,0,,4,,,76,127
76397,note_off,127,0,0,,4,,,76,127
76397,note_off,0,0,0,,7,,,55,127
76398,note_on,1,0,0,,10,,,45,127
76398,note_on,0,0,0,,2,,,74,127
76653,note_off,255,0,0,,2,,,74,127
76653,note_off,0,0,0,,10,,,45,127
76654,note_on,1,0,0,,10,,,57,127
76654,note_on,0,0,0,,2,,,74,127
76717,note_off,63,0,0,,2,,,74,127
76718,note_on,1,0,0,,1,,,73,127
76781,note_off,63,0,0,,1,,,73,127
76782,note_on,1,0,0,,12,,,71,127
76845,note_off,63,0,0,,12,,,71,127
76846,note_on,1,0,0,,1,,,73,127
76909,note_off,63,0,0,,1,,,73,127
76909,note_off,0,0,0,,10,,,57,127
76910,note_on,1,0,0,,2,,,50,127
76910,note_on,0,0,0,,2,,,74,127
77165,note_off,255,0,0,,2,,,74,127
77165,note_off,0,0,0,,2,,,50,127
77166,note_on,1,0,0,,6,,,66,127
77166,note_on,0,0,0,,2,,,74,127
77166,note_on,0,0,0,,10,,,69,127
77293,note_off,127,0,0,,10,,,69,127
77293,note_off,0,0,0,,6,,,66,127
77294,note_on,1,0,0,,2,,,62,127
77294,note_on,0,0,0,,6,,,66,127
77421,note_off,127,0,0,,6,,,66,127
77421,note_off,0,0,0,,2,,,62,127
77422,note_on,1,0,0,,4,,,64,127
77422,note_on,0,0,0,,7,,,67,127
77673,note_off,251,0,0,,2,,,74,127
77677,note_off,4,0,0,,7,,,67,127
77677,note_off,0,0,0,,4,,,64,127
77678,note_on,1,0,0,,6,,,66,127
77678,note_on,0,0,0,,12,,,71,127
77741,note_off,63,0,0,,12,,,71,127
77742,note_on,1,0,0,,10,,,69,127
77805,note_off,63,0,0,,10,,,69,127
77806,note_on,1,0,0,,12,,,71,127
77869,note_off,63,0,0,,12,,,71,127
77870,note_on,1,0,0,,10,,,69,127
77933,note_off,63,0,0,,10,,,69,127
77933,note_off,0,0,0,,6,,,66,127
77934,note_on,1,0,0,,7,,,43,127
77934,note_on,0,0,0,,12,,,83,127
78189,note_off,255,0,0,,12,,,83,127
78189,note_off,0,0,0,,7,,,43,127
78190,note_on,1,0,0,,4,,,64,127
78190,note_on,0,0,0,,2,,,74,127
78190,note_on,0,0,0,,7,,,67,127
78317,note_off,127,0,0,,7,,,67,127
78317,note_off,0,0,0,,4,,,64,127
78318,note_on,1,0,0,,1,,,61,127
78318,note_on,0,0,0,,4,,,64,127
78445,note_off,127,0,0,,4,,,64,127
78445,note_off,0,0,0,,1,,,61,127
78446,note_on,1,0,0,,2,,,62,127
78446,note_on,0,0,0,,6,,,66,127
78697,note_off,251,0,0,,2,,,74,127
78701,note_off,4,0,0,,6,,,66,127
78701,note_off,0,0,0,,2,,,62,127
78702,note_on,1,0,0,,4,,,64,127
78702,note_on,0,0,0,,10,,,69,127
78765,note_off,63,0,0,,10,,,69,127
78766,note_on,1,0,0,,7,,,67,127
78829,note_off,63,0,0,,7,,,67,127
78830,note_on,1,0,0,,10,,,69,127
78893,note_off,63,0,0,,10,,,69,127
78894,note_on,1,0,0,,7,,,67,127
78957,note_off,63,0,0,,7,,,67,127
78957,note_off,0,0,0,,4,,,64,127
78958,note_on,1,0,0,,6,,,42,127
78958,note_on,0,0,0,,10,,,81,127
79213,note_off,255,0,0,,10,,,81,127
79213,note_off,0,0,0,,6,,,42,127
79214,note_on,1,0,0,,2,,,62,127
79214,note_on,0,0,0,,2,,,74,127
79214,note_on,0,0,0,,6,,,66,127
79341,note_off,127,0,0,,6,,,66,127
79341,note_off,0,0,0,,2,,,62,127
79342,note_on,1,0,0,,12,,,59,127
79342,note_on,0,0,0,,2,,,62,127
79469,note_off,127,0,0,,2,,,62,127
79469,note_off,0,0,0,,12,,,59,127
79470,note_on,1,0,0,,1,,,61,127
79470,note_on,0,0,0,,4,,,64,127
79721,note_off,251,0,0,,2,,,74,127
79725,note_off,4,0,0,,4,,,64,127
79725,note_off,0,0,0,,1,,,61,127
79726,note_on,1,0,0,,2,,,62,127
79726,note_on,0,0,0,,7,,,67,127
79789,note_off,63,0,0,,7,,,67,127
79790,note_on,1,0,0,,6,,,66,127
79853,note_off,63,0,0,,6,,,66,127
79854,note_on,1,0,0,,7,,,67,127
79917,note_off,63,0,0,,7,,,67,127
79918,note_on,1,0,0,,6,,,66,127
79981,note_off,63,0,0,,6,,,66,127
79981,note_off,0,0,0,,2,,,62,127
79982,note_on,1,0,0,,4,,,40,127
79982,note_on,0,0,0,,7,,,79,127
80237,note_off,255,0,0,,7,,,79,127
80237,note_off,0,0,0,,4,,,40,127
80238,note_on,1,0,0,,1,,,61,127
80238,note_on,0,0,0,,10,,,69,127
80238,note_on,0,0,0,,4,,,64,127
80365,note_off,127,0,0,,4,,,64,127
80365,note_off,0,0,0,,1,,,61,127
80366,note_on,1,0,0,,10,,,57,127
80366,note_on,0,0,0,,1,,,61,127
80493,note_off,127,0,0,,1,,,61,127
80493,note_off,0,0,0,,10,,,57,127
80494,note_on,1,0,0,,12,,,59,127
80494,note_on,0,0,0,,2,,,62,127
80622,note_off,128,0,0,,10,,,69,127
80749,note_off,127,0,0,,2,,,62,127
80749,note_off,0,0,0,,12,,,59,127
80750,note_on,1,0,0,,1,,,61,127
80750,note_on,0,0,0,,6,,,66,127
80813,note_off,63,0,0,,6,,,66,127
80814,note_on,1,0,0,,4,,,64,127
80877,note_off,63,0,0,,4,,,64,127
80878,note_on,1,0,0,,2,,,62,127
80941,note_off,63,0,0,,2,,,62,127
80942,note_on,1,0,0,,4,,,64,127
81005,note_off,63,0,0,,4,,,64,127
81005,note_off,0,0,0,,1,,,61,127
81006,note_on,1,0,0,,2,,,38,127
81006,note_on,0,0,0,,6,,,66,127
81133,note_off,127,0,0,,6,,,66,127
81134,note_on,1,0,0,,2,,,62,127
81261,note_off,127,0,0,,2,,,62,127
81262,note_on,1,0,0,,10,,,69,127
81389,note_off,127,0,0,,10,,,69,127
81390,note_on,1,0,0,,6,,,66,127
81517,note_off,127,0,0,,6,,,66,127
81518,note_on,1,0,0,,2,,,74,127
81645,note_off,127,0,0,,2,,,74,127
81646,note_off,1,0,0,,2,,,38,127
81646,note_on,0,0,0,,10,,,69,127
81773,note_off,127,0,0,,10,,,69,127
81774,note_on,1,0,0,,2,,,50,127
81774,note_on,0,0,0,,6,,,78,127
81901,note_off,127,0,0,,6,,,78,127
81902,note_on,1,0,0,,2,,,74,127
82029,note_off,127,0,0,,2,,,74,127
82029,note_off,0,0,0,,2,,,50,127
82030,note_on,1,0,0,,7,,,43,127
82030,note_on,0,0,0,,12,,,71,127
82157,note_off,127,0,0,,12,,,71,127
82158,note_on,1,0,0,,10,,,81,127
82285,note_off,127,0,0,,10,,,81,127
82285,note_off,0,0,0,,7,,,43,127
82286,note_on,1,0,0,,7,,,55,127
82286,note_on,0,0,0,,7,,,79,127
82413,note_off,127,0,0,,7,,,79,127
82414,note_on,1,0,0,,4,,,76,127
82541,note_off,127,0,0,,4,,,76,127
82541,note_off,0,0,0,,7,,,55,127
82542,note_on,1,0,0,,10,,,45,127
82542,note_on,0,0,0,,2,,,74,127
82797,note_off,255,0,0,,2,,,74,127
82797,note_off,0,0,0,,10,,,45,127
82798,note_on,1,0,0,,10,,,57,127
82798,note_on,0,0,0,,2,,,74,127
82861,note_off,63,0,0,,2,,,74,127
82862,note_on,1,0,0,,1,,,73,127
82925,note_off,63,0,0,,1,,,73,127
82926,note_on,1,0,0,,12,,,71,127
82989,note_off,63,0,0,,12,,,71,127
82990,note_on,1,0,0,,1,,,73,127
83053,note_off,63,0,0,,1,,,73,127
83053,note_off,0,0,0,,10,,,57,127
83054,note_on,1,0,0,,2,,,50,127
83054,note_on,0,0,0,,2,,,38,127
83054,note_on,0,0,0,,2,,,74,127
83309,note_off,255,0,0,,2,,,74,127
83310,note_on,1,0,0,,6,,,78,127
83437,note_off,127,0,0,,6,,,78,127
83438,note_on,1,0,0,,2,,,74,127
83561,note_off,123,0,0,,2,,,38,127
83561,note_off,0,0,0,,2,,,50,127
83565,note_off,4,0,0,,2,,,74,127
83566,note_on,1,0,0,,10,,,81,127
83566,note_on,0,0,0,,6,,,78,127
83821,note_off,255,0,0,,6,,,78,127
83821,note_off,0,0,0,,10,,,81,127
83822,note_on,1,0,0,,4,,,76,127
83822,note_on,0,0,0,,7,,,79,127
84075,note_off,253,0,0,,7,,,79,127
84075,note_off,0,0,0,,4,,,76,127
84078,note_on,3,0,0,,10,,,45,127
84078,note_on,0,0,0,,10,,,57,127
84334,note_on,256,0,0,,6,,,78,127
84461,note_off,127,0,0,,6,,,78,127
84462,note_on,1,0,0,,2,,,74,127
84585,note_off,123,0,0,,10,,,57,127
84585,note_off,0,0,0,,10,,,45,127
84589,note_off,4,0,0,,2,,,74,127
84590,note_on,1,0,0,,6,,,78,127
84590,note_on,0,0,0,,10,,,69,127
84845,note_off,255,0,0,,10,,,69,127
84845,note_off,0,0,0,,6,,,78,127
84846,note_on,1,0,0,,4,,,76,127
84846,note_on,0,0,0,,7,,,67,127
85099,note_off,253,0,0,,7,,,67,127
85099,note_off,0,0,0,,4,,,76,127
85102,note_on,3,0,0,,2,,,38,127
85102,note_on,0,0,0,,2,,,50,127
85358,note_on,256,0,0,,6,,,78,127
85485,note_off,127,0,0,,6,,,78,127
85486,note_on,1,0,0,,2,,,74,127
85609,note_off,123,0,0,,2,,,50,127
85609,note_off,0,0,0,,2,,,38,127
85613,note_off,4,0,0,,2,,,74,127
85614,note_on,1,0,0,,10,,,81,127
85614,note_on,0,0,0,,6,,,78,127
85869,note_off,255,0,0,,6,,,78,127
85869,note_off,0,0,0,,10,,,81,127
85870,note_on,1,0,0,,4,,,76,127
85870,note_on,0,0,0,,7,,,79,127
86123,note_off,253,0,0,,7,,,79,127
86123,note_off,0,0,0,,4,,,76,127
86126,note_on,3,0,0,,10,,,45,127
86126,note_on,0,0,0,,10,,,57,127
86382,note_on,256,0,0,,6,,,78,127
86509,note_off,127,0,0,,6,,,78,127
86510,note_on,1,0,0,,2,,,74,127
86637,note_off,127,0,0,,2,,,74,127
86638,note_on,1,0,0,,6,,,78,127
86638,note_on,0,0,0,,10,,,69,127
86893,note_off,255,0,0,,10,,,69,127
86893,note_off,0,0,0,,6,,,78,127
86893,note_off,0,0,0,,10,,,57,127
86893,note_off,0,0,0,,10,,,45,127
86894,note_on,1,0,0,,4,,,76,127
86894,note_on,0,0,0,,7,,,67,127
87149,note_off,255,0,0,,7,,,67,127
87149,note_off,0,0,0,,4,,,76,127
87150,note_on,1,0,0,,2,,,38,127
87150,note_on,0,0,0,,2,,,50,127
87150,note_on,0,0,0,,2,,,74,127
87277,note_off,127,0,0,,2,,,74,127
87278,note_on,1,0,0,,10,,,81,127
87405,note_off,127,0,0,,10,,,81,127
87405,note_off,0,0,0,,2,,,50,127
87405,note_off,0,0,0,,2,,,38,127
87406,note_on,1,0,0,,7,,,43,127
87406,note_on,0,0,0,,7,,,55,127
87406,note_on,0,0,0,,7,,,79,127
87533,note_off,127,0,0,,7,,,79,127
87534,note_on,1,0,0,,4,,,76,127
87661,note_off,127,0,0,,4,,,76,127
87662,note_on,1,0,0,,2,,,74,127
87662,note_on,0,0,0,,6,,,78,127
87790,note_off,128,0,0,,7,,,55,127
87790,note_off,0,0,0,,7,,,43,127
87917,note_off,127,0,0,,6,,,78,127
87917,note_off,0,0,0,,2,,,74,127
87918,note_on,1,0,0,,10,,,57,127
87918,note_on,0,0,0,,10,,,45,127
87918,note_on,0,0,0,,6,,,78,127
87918,note_on,0,0,0,,1,,,73,127
87981,note_off,63,0,0,,6,,,78,127
87982,note_on,1,0,0,,4,,,76,127
88038,note_off,56,0,0,,1,,,73,127
88045,note_off,7,0,0,,4,,,76,127
88046,note_on,1,0,0,,2,,,74,127
88109,note_off,63,0,0,,2,,,74,127
88110,note_on,1,0,0,,4,,,76,127
88173,note_off,63,0,0,,4,,,76,127
88174,note_on,1,0,0,,2,,,74,127
88301,note_off,127,0,0,,2,,,74,127
88302,note_off,1,0,0,,10,,,45,127
88302,note_off,0,0,0,,10,,,57,127
88302,note_on,0,0,0,,10,,,81,127
88429,note_off,127,0,0,,10,,,81,127
88430,note_on,1,0,0,,7,,,43,127
88430,note_on,0,0,0,,7,,,55,127
88430,note_on,0,0,0,,7,,,79,127
88557,note_off,127,0,0,,7,,,79,127
88558,note_on,1,0,0,,4,,,76,127
88685,note_off,127,0,0,,4,,,76,127
88686,note_on,1,0,0,,2,,,74,127
88686,note_on,0,0,0,,6,,,78,127
88814,note_off,128,0,0,,7,,,55,127
88814,note_off,0,0,0,,7,,,43,127
88941,note_off,127,0,0,,6,,,78,127
88941,note_off,0,0,0,,2,,,74,127
88942,note_on,1,0,0,,10,,,45,127
88942,note_on,0,0,0,,10,,,57,127
88942,note_on,0,0,0,,6,,,78,127
88942,note_on,0,0,0,,1,,,73,127
89005,note_off,63,0,0,,6,,,78,127
89006,note_on,1,0,0,,4,,,76,127
89062,note_off,56,0,0,,1,,,73,127
89069,note_off,7,0,0,,4,,,76,127
89070,note_on,1,0,0,,2,,,74,127
89133,note_off,63,0,0,,2,,,74,127
89134,note_on,1,0,0,,4,,,76,127
89197,note_off,63,0,0,,4,,,76,127
89198,note_on,1,0,0,,2,,,74,127
89325,note_off,127,0,0,,2,,,74,127
89326,note_off,1,0,0,,10,,,57,127
89326,note_off,0,0,0,,10,,,45,127
89326,note_on,0,0,0,,12,,,83,127
89453,note_off,127,0,0,,12,,,83,127
89454,note_on,1,0,0,,7,,,43,127
89454,note_on,0,0,0,,7,,,55,127
89454,note_on,0,0,0,,7,,,79,127
89581,note_off,127,0,0,,7,,,79,127
89582,note_on,1,0,0,,4,,,76,127
89709,note_off,127,0,0,,4,,,76,127
89709,note_off,0,0,0,,7,,,55,127
89709,note_off,0,0,0,,7,,,43,127
89710,note_on,1,0,0,,10,,,57,127
89710,note_on,0,0,0,,2,,,74,127
89710,note_on,0,0,0,,6,,,78,127
89965,note_off,255,0,0,,6,,,78,127
89965,note_off,0,0,0,,2,,,74,127
89965,note_off,0,0,0,,10,,,57,127
89966,note_on,1,0,0,,10,,,45,127
89966,note_on,0,0,0,,1,,,73,127
89966,note_on,0,0,0,,6,,,78,127
90029,note_off,63,0,0,,6,,,78,127
90030,note_on,1,0,0,,4,,,76,127
90093,note_off,63,0,0,,4,,,76,127
90094,note_on,1,0,0,,2,,,74,127
90157,note_off,63,0,0,,2,,,74,127
90158,note_on,1,0,0,,4,,,76,127
90219,note_off,61,0,0,,1,,,73,127
90220,note_off,1,0,0,,4,,,76,127
90220,note_off,0,0,0,,10,,,45,127
90221,note_on,1,0,0,,2,,,38,127
90221,note_on,0,0,0,,2,,,50,127
90221,note_on,0,0,0,,2,,,74,127
92397,note_off,2176,0,0,,2,,,74,127
92397,note_off,0,0,0,,2,,,50,127
92397,note_off,0,0,0,,2,,,38,127
93696,end_of_track,1299,1,0,,,,,,
