tick,type,time,meta,track,program,channel,pitch,tempo,note,velocity
0,copyright,0,1,0,,,,,,
0,program_change,0,0,0,6,0,,,,
0,pitchwheel,0,0,0,,0,0,,,
0,program_change,0,0,0,6,1,,,,
0,pitchwheel,0,0,0,,1,-590,,,
0,program_change,0,0,0,6,2,,,,
0,pitchwheel,0,0,0,,2,-272,,,
0,program_change,0,0,0,6,3,,,,
0,pitchwheel,0,0,0,,3,-353,,,
0,program_change,0,0,0,6,4,,,,
0,pitchwheel,0,0,0,,4,-560,,,
0,program_change,0,0,0,6,5,,,,
0,pitchwheel,0,0,0,,5,-80,,,
0,program_change,0,0,0,6,6,,,,
0,pitchwheel,0,0,0,,6,-625,,,
0,program_change,0,0,0,6,7,,,,
0,pitchwheel,0,0,0,,7,-130,,,
0,program_change,0,0,0,6,8,,,,
0,pitchwheel,0,0,0,,8,-512,,,
0,program_change,0,0,0,6,10,,,,
0,pitchwheel,0,0,0,,10,-464,,,
0,program_change,0,0,0,6,11,,,,
0,pitchwheel,0,0,0,,11,-208,,,
0,program_change,0,0,0,6,12,,,,
0,pitchwheel,0,0,0,,12,-553,,,
0,set_tempo,0,1,0,,,,500000,,
100,note_on,100,0,0,,2,,,38,127
300,note_on,200,0,0,,2,,,86,127
496,note_off,196,0,0,,2,,,38,127
499,note_off,3,0,0,,2,,,86,127
500,note_on,1,0,0,,10,,,81,127
699,note_off,199,0,0,,10,,,81,127
700,note_on,1,0,0,,5,,,77,127
899,note_off,199,0,0,,5,,,77,127
900,note_on,1,0,0,,2,,,74,127
1099,note_off,199,0,0,,2,,,74,127
1100,note_on,1,0,0,,10,,,69,127
1299,note_off,199,0,0,,10,,,69,127
1300,note_on,1,0,0,,10,,,69,127
1499,note_off,199,0,0,,10,,,69,127
1500,note_on,1,0,0,,7,,,67,127
1500,note_on,0,0,0,,11,,,70,127
1699,note_off,199,0,0,,11,,,70,127
1699,note_off,0,0,0,,7,,,67,127
1700,note_on,1,0,0,,4,,,64,127
1700,note_on,0,0,0,,4,,,76,127
1899,note_off,199,0,0,,4,,,64,127
1900,note_on,1,0,0,,1,,,61,127
2099,note_off,199,0,0,,1,,,61,127
2100,note_on,1,0,0,,10,,,57,127
2299,note_off,199,0,0,,10,,,57,127
2300,note_on,1,0,0,,1,,,61,127
2366,note_off,66,0,0,,4,,,76,127
2367,note_on,1,0,0,,5,,,77,127
2433,note_off,66,0,0,,5,,,77,127
2434,note_on,1,0,0,,7,,,79,127
2500,note_off,66,0,0,,7,,,79,127
2500,note_off,0,0,0,,1,,,61,127
2501,note_on,1,0,0,,2,,,62,127
2501,note_on,0,0,0,,5,,,77,127
2700,note_off,199,0,0,,5,,,77,127
2700,note_off,0,0,0,,2,,,62,127
2701,note_on,1,0,0,,5,,,65,127
2701,note_on,0,0,0,,2,,,74,127
2900,note_off,199,0,0,,5,,,65,127
2901,note_on,1,0,0,,2,,,62,127
3100,note_off,199,0,0,,2,,,62,127
3101,note_on,1,0,0,,11,,,58,127
3300,note_off,199,0,0,,11,,,58,127
3301,note_on,1,0,0,,7,,,55,127
3500,note_off,199,0,0,,7,,,55,127
3501,note_on,1,0,0,,4,,,52,127
3700,note_off,199,0,0,,4,,,52,127
3701,note_off,1,0,0,,2,,,74,127
3701,note_on,0,0,0,,1,,,49,127
3900,note_off,199,0,0,,1,,,49,127
3901,note_on,1,0,0,,11,,,46,127
3901,note_on,0,0,0,,4,,,76,127
4100,note_off,199,0,0,,11,,,46,127
4101,note_on,1,0,0,,7,,,43,127
4300,note_off,199,0,0,,7,,,43,127
4301,note_on,1,0,0,,4,,,40,127
4500,note_off,199,0,0,,4,,,40,127
4501,note_on,1,0,0,,1,,,37,127
4700,note_off,199,0,0,,1,,,37,127
4701,note_on,1,0,0,,10,,,33,127
4767,note_off,66,0,0,,4,,,76,127
4768,note_on,1,0,0,,5,,,77,127
4834,note_off,66,0,0,,5,,,77,127
4835,note_on,1,0,0,,7,,,79,127
4901,note_off,66,0,0,,7,,,79,127
4901,note_off,0,0,0,,10,,,33,127
4902,note_on,1,0,0,,2,,,38,127
4902,note_on,0,0,0,,5,,,77,127
5101,note_off,199,0,0,,5,,,77,127
5101,note_off,0,0,0,,2,,,38,127
5102,note_on,1,0,0,,5,,,65,127
5102,note_on,0,0,0,,2,,,74,127
5301,note_off,199,0,0,,5,,,65,127
5302,note_on,1,0,0,,2,,,62,127
5501,note_off,199,0,0,,2,,,62,127
5502,note_on,1,0,0,,11,,,58,127
5701,note_off,199,0,0,,11,,,58,127
5702,note_on,1,0,0,,7,,,55,127
5901,note_off,199,0,0,,7,,,55,127
5902,note_on,1,0,0,,4,,,52,127
6101,note_off,199,0,0,,4,,,52,127
6102,note_on,1,0,0,,1,,,49,127
6301,note_off,199,0,0,,1,,,49,127
6301,note_off,0,0,0,,2,,,74,127
6302,note_on,1,0,0,,11,,,46,127
6302,note_on,0,0,0,,4,,,76,127
6501,note_off,199,0,0,,11,,,46,127
6502,note_on,1,0,0,,7,,,43,127
6701,note_off,199,0,0,,7,,,43,127
6702,note_on,1,0,0,,4,,,40,127
6901,note_off,199,0,0,,4,,,40,127
6902,note_on,1,0,0,,1,,,37,127
7101,note_off,199,0,0,,1,,,37,127
7102,note_on,1,0,0,,10,,,33,127
7168,note_off,66,0,0,,4,,,76,127
7169,note_on,1,0,0,,5,,,77,127
7235,note_off,66,0,0,,5,,,77,127
7236,note_on,1,0,0,,7,,,79,127
7302,note_off,66,0,0,,7,,,79,127
7302,note_off,0,0,0,,10,,,33,127
7303,note_on,1,0,0,,2,,,38,127
7303,note_on,0,0,0,,5,,,77,127
7502,note_off,199,0,0,,5,,,77,127
7503,note_on,1,0,0,,2,,,74,127
7702,note_off,199,0,0,,2,,,38,127
7703,note_on,1,0,0,,5,,,65,127
7703,note_on,0,0,0,,2,,,62,127
7703,note_on,0,0,0,,10,,,69,127
7902,note_off,199,0,0,,10,,,69,127
7902,note_off,0,0,0,,5,,,65,127
7903,note_on,1,0,0,,7,,,67,127
7903,note_on,0,0,0,,11,,,70,127
8099,note_off,196,0,0,,2,,,62,127
8102,note_off,3,0,0,,2,,,74,127
8103,note_on,1,0,0,,1,,,61,127
8103,note_on,0,0,0,,4,,,76,127
8404,note_off,301,0,0,,4,,,76,127
8503,note_off,99,0,0,,1,,,61,127
8503,note_off,0,0,0,,11,,,70,127
8503,note_off,0,0,0,,7,,,67,127
8504,note_on,1,0,0,,2,,,62,127
8504,note_on,0,0,0,,7,,,67,127
8504,note_on,0,0,0,,10,,,69,127
8704,note_on,200,0,0,,2,,,74,127
8903,note_off,199,0,0,,7,,,67,127
8904,note_on,1,0,0,,5,,,65,127
9103,note_off,199,0,0,,5,,,65,127
9103,note_off,0,0,0,,10,,,69,127
9104,note_on,1,0,0,,7,,,67,127
9104,note_on,0,0,0,,11,,,70,127
9303,note_off,199,0,0,,2,,,74,127
9303,note_off,0,0,0,,2,,,62,127
9304,note_on,1,0,0,,1,,,61,127
9304,note_on,0,0,0,,4,,,76,127
9605,note_off,301,0,0,,4,,,76,127
9704,note_off,99,0,0,,1,,,61,127
9704,note_off,0,0,0,,11,,,70,127
9704,note_off,0,0,0,,7,,,67,127
9705,note_on,1,0,0,,2,,,62,127
9705,note_on,0,0,0,,7,,,67,127
9705,note_on,0,0,0,,10,,,69,127
9905,note_on,200,0,0,,5,,,77,127
10104,note_off,199,0,0,,7,,,67,127
10105,note_on,1,0,0,,5,,,65,127
10304,note_off,199,0,0,,5,,,65,127
10304,note_off,0,0,0,,10,,,69,127
10305,note_on,1,0,0,,7,,,67,127
10305,note_on,0,0,0,,11,,,70,127
10504,note_off,199,0,0,,5,,,77,127
10504,note_off,0,0,0,,2,,,62,127
10505,note_on,1,0,0,,7,,,79,127
10701,note_off,196,0,0,,7,,,67,127
10705,note_on,4,0,0,,0,,,60,127
10904,note_off,199,0,0,,0,,,60,127
10904,note_off,0,0,0,,7,,,79,127
10904,note_off,0,0,0,,11,,,70,127
10905,note_on,1,0,0,,5,,,65,127
10905,note_on,0,0,0,,10,,,69,127
11105,note_on,200,0,0,,5,,,77,127
11301,note_off,196,0,0,,10,,,69,127
11304,note_off,3,0,0,,5,,,65,127
11305,note_on,1,0,0,,10,,,69,127
11504,note_off,199,0,0,,10,,,69,127
11505,note_on,1,0,0,,7,,,67,127
11505,note_on,0,0,0,,11,,,70,127
11704,note_off,199,0,0,,5,,,77,127
11705,note_on,1,0,0,,7,,,79,127
11904,note_off,199,0,0,,7,,,67,127
11905,note_on,1,0,0,,0,,,60,127
12104,note_off,199,0,0,,0,,,60,127
12104,note_off,0,0,0,,7,,,79,127
12104,note_off,0,0,0,,11,,,70,127
12105,note_on,1,0,0,,7,,,67,127
12105,note_on,0,0,0,,0,,,72,127
12105,note_on,0,0,0,,10,,,81,127
12105,note_on,0,0,0,,5,,,77,127
12154,note_off,49,0,0,,7,,,67,127
12155,note_on,1,0,0,,5,,,65,127
12204,note_off,49,0,0,,5,,,65,127
12205,note_on,1,0,0,,7,,,67,127
12254,note_off,49,0,0,,7,,,67,127
12255,note_on,1,0,0,,5,,,65,127
12304,note_off,49,0,0,,5,,,65,127
12304,note_off,0,0,0,,5,,,77,127
12304,note_off,0,0,0,,10,,,81,127
12305,note_on,1,0,0,,4,,,64,127
12305,note_on,0,0,0,,4,,,76,127
12305,note_on,0,0,0,,7,,,79,127
12504,note_off,199,0,0,,7,,,79,127
12504,note_off,0,0,0,,4,,,76,127
12504,note_off,0,0,0,,4,,,64,127
12505,note_on,1,0,0,,5,,,65,127
12505,note_on,0,0,0,,5,,,77,127
12505,note_on,0,0,0,,10,,,81,127
12704,note_off,199,0,0,,10,,,81,127
12704,note_off,0,0,0,,5,,,77,127
12704,note_off,0,0,0,,5,,,65,127
12704,note_off,0,0,0,,0,,,72,127
12705,note_on,1,0,0,,0,,,72,127
12705,note_on,0,0,0,,7,,,79,127
12705,note_on,0,0,0,,4,,,76,127
12903,note_off,198,0,0,,0,,,72,127
12904,note_off,1,0,0,,4,,,76,127
12905,note_on,1,0,0,,0,,,72,127
13101,note_off,196,0,0,,7,,,79,127
13104,note_off,3,0,0,,0,,,72,127
13105,note_on,1,0,0,,4,,,64,127
13105,note_on,0,0,0,,11,,,82,127
13105,note_on,0,0,0,,7,,,79,127
13304,note_off,199,0,0,,7,,,79,127
13304,note_off,0,0,0,,11,,,82,127
13304,note_off,0,0,0,,4,,,64,127
13305,note_on,1,0,0,,7,,,67,127
13305,note_on,0,0,0,,0,,,72,127
13305,note_on,0,0,0,,10,,,81,127
13305,note_on,0,0,0,,5,,,77,127
13354,note_off,49,0,0,,7,,,67,127
13355,note_on,1,0,0,,5,,,65,127
13404,note_off,49,0,0,,5,,,65,127
13405,note_on,1,0,0,,7,,,67,127
13454,note_off,49,0,0,,7,,,67,127
13455,note_on,1,0,0,,5,,,65,127
13504,note_off,49,0,0,,5,,,65,127
13504,note_off,0,0,0,,5,,,77,127
13504,note_off,0,0,0,,10,,,81,127
13505,note_on,1,0,0,,4,,,64,127
13505,note_on,0,0,0,,4,,,76,127
13505,note_on,0,0,0,,7,,,79,127
13704,note_off,199,0,0,,7,,,79,127
13704,note_off,0,0,0,,4,,,76,127
13704,note_off,0,0,0,,4,,,64,127
13705,note_on,1,0,0,,5,,,65,127
13705,note_on,0,0,0,,10,,,81,127
13705,note_on,0,0,0,,5,,,77,127
13904,note_off,199,0,0,,5,,,77,127
13904,note_off,0,0,0,,10,,,81,127
13904,note_off,0,0,0,,5,,,65,127
13904,note_off,0,0,0,,0,,,72,127
13905,note_on,1,0,0,,0,,,36,127
13905,note_on,0,0,0,,7,,,79,127
13905,note_on,0,0,0,,4,,,76,127
13905,note_on,0,0,0,,0,,,72,127
14104,note_off,199,0,0,,0,,,72,127
14104,note_off,0,0,0,,4,,,76,127
14105,note_on,1,0,0,,0,,,72,127
14301,note_off,196,0,0,,7,,,79,127
14304,note_off,3,0,0,,0,,,72,127
14304,note_off,0,0,0,,0,,,36,127
14305,note_on,1,0,0,,6,,,66,127
14305,note_on,0,0,0,,3,,,75,127
14305,note_on,0,0,0,,0,,,84,127
14305,note_on,0,0,0,,10,,,81,127
14504,note_off,199,0,0,,10,,,81,127
14504,note_off,0,0,0,,0,,,84,127
14504,note_off,0,0,0,,3,,,75,127
14504,note_off,0,0,0,,6,,,66,127
14505,note_on,1,0,0,,10,,,69,127
14505,note_on,0,0,0,,11,,,82,127
14505,note_on,0,0,0,,7,,,79,127
14505,note_on,0,0,0,,2,,,74,127
14554,note_off,49,0,0,,10,,,69,127
14555,note_on,1,0,0,,7,,,67,127
14604,note_off,49,0,0,,7,,,67,127
14605,note_on,1,0,0,,10,,,69,127
14654,note_off,49,0,0,,10,,,69,127
14655,note_on,1,0,0,,7,,,67,127
14704,note_off,49,0,0,,7,,,67,127
14704,note_off,0,0,0,,7,,,79,127
14704,note_off,0,0,0,,11,,,82,127
14705,note_on,1,0,0,,6,,,66,127
14705,note_on,0,0,0,,6,,,78,127
14705,note_on,0,0,0,,10,,,81,127
14904,note_off,199,0,0,,10,,,81,127
14904,note_off,0,0,0,,6,,,78,127
14904,note_off,0,0,0,,6,,,66,127
14905,note_on,1,0,0,,7,,,67,127
14905,note_on,0,0,0,,11,,,82,127
14905,note_on,0,0,0,,7,,,79,127
15104,note_off,199,0,0,,7,,,79,127
15104,note_off,0,0,0,,11,,,82,127
15104,note_off,0,0,0,,7,,,67,127
15104,note_off,0,0,0,,2,,,74,127
15105,note_on,1,0,0,,2,,,38,127
15105,note_on,0,0,0,,6,,,78,127
15105,note_on,0,0,0,,10,,,81,127
15105,note_on,0,0,0,,2,,,74,127
15304,note_off,199,0,0,,2,,,74,127
15304,note_off,0,0,0,,6,,,78,127
15305,note_on,1,0,0,,2,,,74,127
15501,note_off,196,0,0,,10,,,81,127
15504,note_off,3,0,0,,2,,,74,127
15504,note_off,0,0,0,,2,,,38,127
15505,note_on,1,0,0,,6,,,66,127
15505,note_on,0,0,0,,3,,,75,127
15505,note_on,0,0,0,,0,,,84,127
15505,note_on,0,0,0,,10,,,81,127
15704,note_off,199,0,0,,10,,,81,127
15704,note_off,0,0,0,,0,,,84,127
15704,note_off,0,0,0,,3,,,75,127
15704,note_off,0,0,0,,6,,,66,127
15705,note_on,1,0,0,,10,,,69,127
15705,note_on,0,0,0,,2,,,74,127
15705,note_on,0,0,0,,11,,,82,127
15705,note_on,0,0,0,,7,,,79,127
15754,note_off,49,0,0,,10,,,69,127
15755,note_on,1,0,0,,7,,,67,127
15804,note_off,49,0,0,,7,,,67,127
15805,note_on,1,0,0,,10,,,69,127
15854,note_off,49,0,0,,10,,,69,127
15855,note_on,1,0,0,,7,,,67,127
15904,note_off,49,0,0,,7,,,67,127
15904,note_off,0,0,0,,7,,,79,127
15904,note_off,0,0,0,,11,,,82,127
15905,note_on,1,0,0,,6,,,66,127
15905,note_on,0,0,0,,6,,,78,127
15905,note_on,0,0,0,,10,,,81,127
16104,note_off,199,0,0,,10,,,81,127
16104,note_off,0,0,0,,6,,,78,127
16104,note_off,0,0,0,,6,,,66,127
16105,note_on,1,0,0,,7,,,67,127
16105,note_on,0,0,0,,11,,,82,127
16105,note_on,0,0,0,,7,,,79,127
16304,note_off,199,0,0,,7,,,79,127
16304,note_off,0,0,0,,11,,,82,127
16304,note_off,0,0,0,,7,,,67,127
16304,note_off,0,0,0,,2,,,74,127
16305,note_on,1,0,0,,2,,,38,127
16305,note_on,0,0,0,,10,,,81,127
16305,note_on,0,0,0,,6,,,78,127
16305,note_on,0,0,0,,2,,,74,127
16504,note_off,199,0,0,,2,,,74,127
16504,note_off,0,0,0,,6,,,78,127
16505,note_on,1,0,0,,2,,,74,127
16701,note_off,196,0,0,,10,,,81,127
16704,note_off,3,0,0,,2,,,74,127
16704,note_off,0,0,0,,2,,,38,127
16705,note_on,1,0,0,,8,,,68,127
16705,note_on,0,0,0,,5,,,77,127
16705,note_on,0,0,0,,2,,,86,127
16705,note_on,0,0,0,,12,,,83,127
16904,note_off,199,0,0,,12,,,83,127
16904,note_off,0,0,0,,2,,,86,127
16904,note_off,0,0,0,,5,,,77,127
16904,note_off,0,0,0,,8,,,68,127
16905,note_on,1,0,0,,12,,,71,127
16905,note_on,0,0,0,,10,,,81,127
16905,note_on,0,0,0,,4,,,76,127
16905,note_on,0,0,0,,0,,,84,127
16954,note_off,49,0,0,,12,,,71,127
16955,note_on,1,0,0,,10,,,69,127
17004,note_off,49,0,0,,10,,,69,127
17005,note_on,1,0,0,,12,,,71,127
17054,note_off,49,0,0,,12,,,71,127
17055,note_on,1,0,0,,10,,,69,127
17104,note_off,49,0,0,,10,,,69,127
17104,note_off,0,0,0,,0,,,84,127
17104,note_off,0,0,0,,10,,,81,127
17105,note_on,1,0,0,,8,,,68,127
17105,note_on,0,0,0,,8,,,80,127
17105,note_on,0,0,0,,12,,,83,127
17304,note_off,199,0,0,,12,,,83,127
17304,note_off,0,0,0,,8,,,80,127
17304,note_off,0,0,0,,8,,,68,127
17305,note_on,1,0,0,,10,,,69,127
17305,note_on,0,0,0,,0,,,84,127
17305,note_on,0,0,0,,10,,,81,127
17504,note_off,199,0,0,,10,,,81,127
17504,note_off,0,0,0,,0,,,84,127
17504,note_off,0,0,0,,10,,,69,127
17504,note_off,0,0,0,,4,,,76,127
17505,note_on,1,0,0,,4,,,40,127
17505,note_on,0,0,0,,8,,,80,127
17505,note_on,0,0,0,,4,,,76,127
17505,note_on,0,0,0,,12,,,83,127
17704,note_off,199,0,0,,4,,,76,127
17704,note_off,0,0,0,,8,,,80,127
17705,note_on,1,0,0,,4,,,76,127
17901,note_off,196,0,0,,12,,,83,127
17904,note_off,3,0,0,,4,,,76,127
17904,note_off,0,0,0,,4,,,40,127
17905,note_on,1,0,0,,8,,,68,127
17905,note_on,0,0,0,,12,,,83,127
17905,note_on,0,0,0,,5,,,77,127
17905,note_on,0,0,0,,2,,,86,127
18104,note_off,199,0,0,,2,,,86,127
18104,note_off,0,0,0,,5,,,77,127
18104,note_off,0,0,0,,12,,,83,127
18104,note_off,0,0,0,,8,,,68,127
18105,note_on,1,0,0,,12,,,71,127
18105,note_on,0,0,0,,10,,,81,127
18105,note_on,0,0,0,,4,,,76,127
18105,note_on,0,0,0,,0,,,84,127
18154,note_off,49,0,0,,12,,,71,127
18155,note_on,1,0,0,,10,,,69,127
18204,note_off,49,0,0,,10,,,69,127
18205,note_on,1,0,0,,12,,,71,127
18254,note_off,49,0,0,,12,,,71,127
18255,note_on,1,0,0,,10,,,69,127
18304,note_off,49,0,0,,10,,,69,127
18304,note_off,0,0,0,,0,,,84,127
18304,note_off,0,0,0,,10,,,81,127
18305,note_on,1,0,0,,8,,,68,127
18305,note_on,0,0,0,,8,,,80,127
18305,note_on,0,0,0,,12,,,83,127
18504,note_off,199,0,0,,12,,,83,127
18504,note_off,0,0,0,,8,,,80,127
18504,note_off,0,0,0,,8,,,68,127
18505,note_on,1,0,0,,10,,,69,127
18505,note_on,0,0,0,,10,,,81,127
18505,note_on,0,0,0,,0,,,84,127
18704,note_off,199,0,0,,0,,,84,127
18704,note_off,0,0,0,,10,,,81,127
18704,note_off,0,0,0,,10,,,69,127
18704,note_off,0,0,0,,4,,,76,127
18705,note_on,1,0,0,,4,,,40,127
18705,note_on,0,0,0,,12,,,83,127
18705,note_on,0,0,0,,8,,,80,127
18904,note_off,199,0,0,,8,,,80,127
18905,note_on,1,0,0,,4,,,76,127
19104,note_off,199,0,0,,4,,,76,127
19105,note_on,1,0,0,,12,,,71,127
19304,note_off,199,0,0,,12,,,71,127
19304,note_off,0,0,0,,12,,,83,127
19304,note_off,0,0,0,,4,,,40,127
19305,note_on,1,0,0,,10,,,45,127
19305,note_on,0,0,0,,0,,,72,127
19305,note_on,0,0,0,,4,,,76,127
19504,note_off,199,0,0,,0,,,72,127
19505,note_on,1,0,0,,10,,,69,127
19704,note_off,199,0,0,,10,,,69,127
19705,note_on,1,0,0,,4,,,64,127
19904,note_off,199,0,0,,4,,,64,127
19904,note_off,0,0,0,,4,,,76,127
19904,note_off,0,0,0,,10,,,45,127
19905,note_on,1,0,0,,2,,,38,127
19905,note_on,0,0,0,,5,,,65,127
19905,note_on,0,0,0,,10,,,69,127
20104,note_off,199,0,0,,5,,,65,127
20105,note_on,1,0,0,,2,,,62,127
20304,note_off,199,0,0,,2,,,62,127
20305,note_on,1,0,0,,10,,,57,127
20504,note_off,199,0,0,,10,,,57,127
20504,note_off,0,0,0,,10,,,69,127
20504,note_off,0,0,0,,2,,,38,127
20505,note_on,1,0,0,,4,,,40,127
20505,note_on,0,0,0,,10,,,69,127
20505,note_on,0,0,0,,0,,,60,127
20705,note_on,200,0,0,,4,,,64,127
20901,note_off,196,0,0,,0,,,60,127
20901,note_off,0,0,0,,10,,,69,127
20904,note_off,3,0,0,,4,,,64,127
20904,note_off,0,0,0,,4,,,40,127
20905,note_on,1,0,0,,4,,,40,127
20905,note_on,0,0,0,,12,,,59,127
20905,note_on,0,0,0,,8,,,68,127
20905,note_on,0,0,0,,2,,,62,127
21104,note_off,199,0,0,,2,,,62,127
21104,note_off,0,0,0,,8,,,68,127
21104,note_off,0,0,0,,12,,,59,127
21104,note_off,0,0,0,,4,,,40,127
21105,note_on,1,0,0,,10,,,33,127
21105,note_on,0,0,0,,10,,,69,127
21304,note_off,199,0,0,,10,,,69,127
21305,note_on,1,0,0,,12,,,71,127
21405,note_off,100,0,0,,10,,,33,127
21504,note_off,99,0,0,,12,,,71,127
21505,note_on,1,0,0,,10,,,57,127
21505,note_on,0,0,0,,0,,,48,127
21505,note_on,0,0,0,,4,,,64,127
21505,note_on,0,0,0,,0,,,72,127
21704,note_off,199,0,0,,0,,,72,127
21704,note_off,0,0,0,,4,,,64,127
21704,note_off,0,0,0,,0,,,48,127
21704,note_off,0,0,0,,10,,,57,127
21705,note_on,1,0,0,,10,,,57,127
21705,note_on,0,0,0,,2,,,50,127
21705,note_on,0,0,0,,2,,,74,127
21705,note_on,0,0,0,,0,,,72,127
21705,note_on,0,0,0,,5,,,65,127
21904,note_off,199,0,0,,0,,,72,127
21904,note_off,0,0,0,,2,,,74,127
21905,note_on,1,0,0,,12,,,71,127
22101,note_off,196,0,0,,5,,,65,127
22104,note_off,3,0,0,,2,,,50,127
22105,note_on,1,0,0,,4,,,52,127
22105,note_on,0,0,0,,4,,,64,127
22304,note_off,199,0,0,,4,,,64,127
22304,note_off,0,0,0,,4,,,52,127
22304,note_off,0,0,0,,10,,,57,127
22305,note_on,1,0,0,,5,,,53,127
22305,note_on,0,0,0,,10,,,57,127
22305,note_on,0,0,0,,2,,,62,127
22504,note_off,199,0,0,,12,,,71,127
22505,note_on,1,0,0,,10,,,69,127
22701,note_off,196,0,0,,2,,,62,127
22704,note_off,3,0,0,,10,,,69,127
22704,note_off,0,0,0,,5,,,53,127
22705,note_on,1,0,0,,0,,,48,127
22705,note_on,0,0,0,,0,,,72,127
22705,note_on,0,0,0,,4,,,64,127
22904,note_off,199,0,0,,4,,,64,127
22904,note_off,0,0,0,,0,,,72,127
22904,note_off,0,0,0,,0,,,48,127
22904,note_off,0,0,0,,10,,,57,127
22905,note_on,1,0,0,,10,,,57,127
22905,note_on,0,0,0,,2,,,50,127
22905,note_on,0,0,0,,2,,,74,127
22905,note_on,0,0,0,,0,,,72,127
22905,note_on,0,0,0,,5,,,65,127
23104,note_off,199,0,0,,0,,,72,127
23104,note_off,0,0,0,,2,,,74,127
23105,note_on,1,0,0,,12,,,71,127
23301,note_off,196,0,0,,5,,,65,127
23304,note_off,3,0,0,,2,,,50,127
23305,note_on,1,0,0,,4,,,52,127
23305,note_on,0,0,0,,4,,,64,127
23504,note_off,199,0,0,,4,,,64,127
23504,note_off,0,0,0,,4,,,52,127
23504,note_off,0,0,0,,10,,,57,127
23505,note_on,1,0,0,,5,,,53,127
23505,note_on,0,0,0,,10,,,57,127
23505,note_on,0,0,0,,2,,,62,127
23704,note_off,199,0,0,,12,,,71,127
23705,note_on,1,0,0,,10,,,69,127
23901,note_off,196,0,0,,2,,,62,127
23904,note_off,3,0,0,,10,,,69,127
23904,note_off,0,0,0,,5,,,53,127
23905,note_on,1,0,0,,0,,,48,127
23905,note_on,0,0,0,,0,,,72,127
23905,note_on,0,0,0,,4,,,64,127
24104,note_off,199,0,0,,4,,,64,127
24104,note_off,0,0,0,,0,,,72,127
24104,note_off,0,0,0,,0,,,48,127
24104,note_off,0,0,0,,10,,,57,127
24105,note_on,1,0,0,,10,,,57,127
24105,note_on,0,0,0,,2,,,50,127
24105,note_on,0,0,0,,0,,,72,127
24105,note_on,0,0,0,,5,,,65,127
24105,note_on,0,0,0,,2,,,74,127
24304,note_off,199,0,0,,2,,,74,127
24304,note_off,0,0,0,,0,,,72,127
24305,note_on,1,0,0,,12,,,71,127
24501,note_off,196,0,0,,5,,,65,127
24504,note_off,3,0,0,,12,,,71,127
24504,note_off,0,0,0,,2,,,50,127
24504,note_off,0,0,0,,10,,,57,127
24505,note_on,1,0,0,,12,,,47,127
24505,note_on,0,0,0,,8,,,68,127
24505,note_on,0,0,0,,5,,,77,127
24704,note_off,199,0,0,,8,,,68,127
24704,note_off,0,0,0,,12,,,47,127
24705,note_on,1,0,0,,0,,,48,127
24705,note_on,0,0,0,,10,,,69,127
24901,note_off,196,0,0,,5,,,77,127
24905,note_on,4,0,0,,4,,,76,127
25101,note_off,196,0,0,,10,,,69,127
25104,note_off,3,0,0,,4,,,76,127
25104,note_off,0,0,0,,0,,,48,127
25105,note_on,1,0,0,,2,,,50,127
25105,note_on,0,0,0,,2,,,74,127
25105,note_on,0,0,0,,12,,,71,127
25304,note_off,199,0,0,,2,,,50,127
25305,note_on,1,0,0,,4,,,52,127
25504,note_off,199,0,0,,12,,,71,127
25504,note_off,0,0,0,,2,,,74,127
25505,note_on,1,0,0,,10,,,69,127
25505,note_on,0,0,0,,0,,,72,127
25704,note_off,199,0,0,,0,,,72,127
25704,note_off,0,0,0,,10,,,69,127
25704,note_off,0,0,0,,4,,,52,127
25705,note_on,1,0,0,,4,,,40,127
25705,note_on,0,0,0,,12,,,71,127
25705,note_on,0,0,0,,8,,,68,127
25904,note_off,199,0,0,,8,,,68,127
25904,note_off,0,0,0,,12,,,71,127
25904,note_off,0,0,0,,4,,,40,127
25905,note_on,1,0,0,,10,,,45,127
25905,note_on,0,0,0,,10,,,69,127
26206,note_off,301,0,0,,10,,,45,127
26305,note_off,99,0,0,,10,,,69,127
26306,note_on,1,0,0,,10,,,69,127
26306,note_on,0,0,0,,0,,,60,127
26306,note_on,0,0,0,,0,,,84,127
26306,note_on,0,0,0,,4,,,76,127
26505,note_off,199,0,0,,4,,,76,127
26505,note_off,0,0,0,,0,,,84,127
26505,note_off,0,0,0,,0,,,60,127
26506,note_on,1,0,0,,2,,,62,127
26506,note_on,0,0,0,,2,,,86,127
26506,note_on,0,0,0,,0,,,84,127
26506,note_on,0,0,0,,5,,,77,127
26705,note_off,199,0,0,,0,,,84,127
26705,note_off,0,0,0,,2,,,86,127
26706,note_on,1,0,0,,12,,,83,127
26902,note_off,196,0,0,,5,,,77,127
26905,note_off,3,0,0,,2,,,62,127
26906,note_on,1,0,0,,4,,,64,127
26906,note_on,0,0,0,,4,,,76,127
27105,note_off,199,0,0,,4,,,76,127
27105,note_off,0,0,0,,4,,,64,127
27105,note_off,0,0,0,,10,,,69,127
27106,note_on,1,0,0,,10,,,69,127
27106,note_on,0,0,0,,5,,,65,127
27106,note_on,0,0,0,,2,,,74,127
27305,note_off,199,0,0,,12,,,83,127
27306,note_on,1,0,0,,10,,,81,127
27502,note_off,196,0,0,,2,,,74,127
27505,note_off,3,0,0,,10,,,81,127
27505,note_off,0,0,0,,5,,,65,127
27506,note_on,1,0,0,,0,,,60,127
27506,note_on,0,0,0,,4,,,76,127
27506,note_on,0,0,0,,0,,,84,127
27705,note_off,199,0,0,,0,,,84,127
27705,note_off,0,0,0,,4,,,76,127
27705,note_off,0,0,0,,0,,,60,127
27705,note_off,0,0,0,,10,,,69,127
27706,note_on,1,0,0,,10,,,69,127
27706,note_on,0,0,0,,2,,,62,127
27706,note_on,0,0,0,,2,,,86,127
27706,note_on,0,0,0,,5,,,77,127
27706,note_on,0,0,0,,0,,,84,127
27905,note_off,199,0,0,,0,,,84,127
27905,note_off,0,0,0,,2,,,86,127
27906,note_on,1,0,0,,12,,,83,127
28102,note_off,196,0,0,,5,,,77,127
28105,note_off,3,0,0,,2,,,62,127
28106,note_on,1,0,0,,4,,,64,127
28106,note_on,0,0,0,,4,,,76,127
28305,note_off,199,0,0,,4,,,76,127
28305,note_off,0,0,0,,4,,,64,127
28305,note_off,0,0,0,,10,,,69,127
28306,note_on,1,0,0,,5,,,65,127
28306,note_on,0,0,0,,10,,,69,127
28306,note_on,0,0,0,,2,,,74,127
28505,note_off,199,0,0,,12,,,83,127
28506,note_on,1,0,0,,10,,,81,127
28702,note_off,196,0,0,,2,,,74,127
28705,note_off,3,0,0,,10,,,81,127
28705,note_off,0,0,0,,5,,,65,127
28706,note_on,1,0,0,,0,,,60,127
28706,note_on,0,0,0,,0,,,84,127
28706,note_on,0,0,0,,4,,,76,127
28905,note_off,199,0,0,,4,,,76,127
28905,note_off,0,0,0,,0,,,84,127
28905,note_off,0,0,0,,0,,,60,127
28905,note_off,0,0,0,,10,,,69,127
28906,note_on,1,0,0,,2,,,62,127
28906,note_on,0,0,0,,10,,,69,127
28906,note_on,0,0,0,,2,,,86,127
28906,note_on,0,0,0,,0,,,84,127
28906,note_on,0,0,0,,5,,,77,127
29105,note_off,199,0,0,,0,,,84,127
29105,note_off,0,0,0,,2,,,86,127
29106,note_on,1,0,0,,12,,,83,127
29302,note_off,196,0,0,,5,,,77,127
29305,note_off,3,0,0,,12,,,83,127
29305,note_off,0,0,0,,10,,,69,127
29305,note_off,0,0,0,,2,,,62,127
29306,note_on,1,0,0,,12,,,59,127
29306,note_on,0,0,0,,8,,,80,127
29505,note_off,199,0,0,,12,,,59,127
29506,note_on,1,0,0,,0,,,60,127
29705,note_off,199,0,0,,8,,,80,127
29706,note_on,1,0,0,,10,,,81,127
29905,note_off,199,0,0,,10,,,81,127
29905,note_off,0,0,0,,0,,,60,127
29906,note_on,1,0,0,,2,,,62,127
29906,note_on,0,0,0,,4,,,76,127
30105,note_off,199,0,0,,4,,,76,127
30105,note_off,0,0,0,,2,,,62,127
30106,note_on,1,0,0,,4,,,64,127
30106,note_on,0,0,0,,2,,,74,127
30106,note_on,0,0,0,,12,,,71,127
30305,note_off,199,0,0,,12,,,71,127
30305,note_off,0,0,0,,2,,,74,127
30306,note_on,1,0,0,,10,,,69,127
30306,note_on,0,0,0,,0,,,72,127
30505,note_off,199,0,0,,0,,,72,127
30505,note_off,0,0,0,,10,,,69,127
30505,note_off,0,0,0,,4,,,64,127
30506,note_on,1,0,0,,4,,,52,127
30506,note_on,0,0,0,,8,,,68,127
30506,note_on,0,0,0,,12,,,71,127
30705,note_off,199,0,0,,12,,,71,127
30705,note_off,0,0,0,,8,,,68,127
30705,note_off,0,0,0,,4,,,52,127
30706,note_on,1,0,0,,0,,,60,127
30706,note_on,0,0,0,,10,,,57,127
30706,note_on,0,0,0,,10,,,69,127
30905,note_off,199,0,0,,0,,,60,127
30906,note_on,1,0,0,,12,,,59,127
30906,note_on,0,0,0,,2,,,62,127
31105,note_off,199,0,0,,2,,,62,127
31105,note_off,0,0,0,,12,,,59,127
31105,note_off,0,0,0,,10,,,69,127
31106,note_on,1,0,0,,0,,,60,127
31106,note_on,0,0,0,,4,,,64,127
31106,note_on,0,0,0,,0,,,72,127
31106,note_on,0,0,0,,0,,,84,127
31305,note_off,199,0,0,,0,,,72,127
31305,note_off,0,0,0,,4,,,64,127
31305,note_off,0,0,0,,0,,,60,127
31305,note_off,0,0,0,,10,,,57,127
31306,note_on,1,0,0,,12,,,59,127
31306,note_on,0,0,0,,2,,,62,127
31306,note_on,0,0,0,,2,,,74,127
31502,note_off,196,0,0,,0,,,84,127
31506,note_on,4,0,0,,8,,,56,127
31506,note_on,0,0,0,,2,,,86,127
31702,note_off,196,0,0,,2,,,74,127
31705,note_off,3,0,0,,2,,,86,127
31705,note_off,0,0,0,,8,,,56,127
31706,note_on,1,0,0,,4,,,52,127
31706,note_on,0,0,0,,4,,,88,127
31706,note_on,0,0,0,,4,,,76,127
31905,note_off,199,0,0,,4,,,52,127
31905,note_off,0,0,0,,2,,,62,127
31905,note_off,0,0,0,,12,,,59,127
31906,note_on,1,0,0,,10,,,57,127
31906,note_on,0,0,0,,0,,,60,127
32102,note_off,196,0,0,,4,,,76,127
32102,note_off,0,0,0,,4,,,88,127
32105,note_off,3,0,0,,0,,,60,127
32106,note_on,1,0,0,,12,,,59,127
32106,note_on,0,0,0,,2,,,62,127
32305,note_off,199,0,0,,2,,,62,127
32305,note_off,0,0,0,,12,,,59,127
32306,note_on,1,0,0,,0,,,60,127
32306,note_on,0,0,0,,4,,,64,127
32306,note_on,0,0,0,,0,,,84,127
32306,note_on,0,0,0,,0,,,72,127
32505,note_off,199,0,0,,0,,,72,127
32505,note_off,0,0,0,,4,,,64,127
32505,note_off,0,0,0,,0,,,60,127
32505,note_off,0,0,0,,10,,,57,127
32506,note_on,1,0,0,,12,,,59,127
32506,note_on,0,0,0,,2,,,62,127
32506,note_on,0,0,0,,2,,,74,127
32702,note_off,196,0,0,,0,,,84,127
32706,note_on,4,0,0,,8,,,56,127
32706,note_on,0,0,0,,2,,,86,127
32902,note_off,196,0,0,,2,,,74,127
32905,note_off,3,0,0,,2,,,86,127
32905,note_off,0,0,0,,8,,,56,127
32906,note_on,1,0,0,,4,,,52,127
32906,note_on,0,0,0,,4,,,88,127
32906,note_on,0,0,0,,4,,,76,127
33105,note_off,199,0,0,,4,,,52,127
33105,note_off,0,0,0,,2,,,62,127
33105,note_off,0,0,0,,12,,,59,127
33106,note_on,1,0,0,,10,,,45,127
33106,note_on,0,0,0,,10,,,57,127
33305,note_off,199,0,0,,10,,,45,127
33305,note_off,0,0,0,,4,,,76,127
33305,note_off,0,0,0,,4,,,88,127
33306,note_on,1,0,0,,12,,,47,127
33306,note_on,0,0,0,,0,,,72,127
33306,note_on,0,0,0,,0,,,84,127
33505,note_off,199,0,0,,0,,,84,127
33505,note_off,0,0,0,,0,,,72,127
33505,note_off,0,0,0,,12,,,47,127
33506,note_on,1,0,0,,0,,,48,127
33506,note_on,0,0,0,,10,,,81,127
33506,note_on,0,0,0,,10,,,69,127
33705,note_off,199,0,0,,10,,,69,127
33705,note_off,0,0,0,,10,,,81,127
33705,note_off,0,0,0,,0,,,48,127
33705,note_off,0,0,0,,10,,,57,127
33706,note_on,1,0,0,,2,,,50,127
33706,note_on,0,0,0,,2,,,74,127
33706,note_on,0,0,0,,2,,,86,127
33905,note_off,199,0,0,,2,,,86,127
33905,note_off,0,0,0,,2,,,74,127
33905,note_off,0,0,0,,2,,,50,127
33906,note_on,1,0,0,,4,,,52,127
33906,note_on,0,0,0,,0,,,84,127
33906,note_on,0,0,0,,0,,,72,127
34105,note_off,199,0,0,,0,,,72,127
34105,note_off,0,0,0,,0,,,84,127
34105,note_off,0,0,0,,4,,,52,127
34106,note_on,1,0,0,,4,,,40,127
34106,note_on,0,0,0,,12,,,83,127
34106,note_on,0,0,0,,12,,,71,127
34305,note_off,199,0,0,,12,,,71,127
34305,note_off,0,0,0,,12,,,83,127
34305,note_off,0,0,0,,4,,,40,127
34306,note_on,1,0,0,,10,,,45,127
34306,note_on,0,0,0,,10,,,81,127
34306,note_on,0,0,0,,10,,,69,127
34505,note_off,199,0,0,,10,,,45,127
34506,note_on,1,0,0,,4,,,52,127
34606,note_off,100,0,0,,10,,,69,127
34606,note_off,0,0,0,,10,,,81,127
34705,note_off,99,0,0,,4,,,52,127
34706,note_on,1,0,0,,10,,,57,127
34706,note_on,0,0,0,,0,,,72,127
34706,note_on,0,0,0,,0,,,60,127
34905,note_off,199,0,0,,0,,,60,127
34905,note_off,0,0,0,,10,,,57,127
34906,note_on,1,0,0,,12,,,59,127
34906,note_on,0,0,0,,10,,,57,127
34906,note_on,0,0,0,,2,,,62,127
35102,note_off,196,0,0,,0,,,72,127
35105,note_off,3,0,0,,10,,,57,127
35105,note_off,0,0,0,,12,,,59,127
35106,note_on,1,0,0,,8,,,56,127
35106,note_on,0,0,0,,12,,,59,127
35106,note_on,0,0,0,,2,,,74,127
35302,note_off,196,0,0,,2,,,62,127
35305,note_off,3,0,0,,2,,,74,127
35305,note_off,0,0,0,,8,,,56,127
35306,note_on,1,0,0,,4,,,52,127
35306,note_on,0,0,0,,4,,,64,127
35306,note_on,0,0,0,,4,,,76,127
35502,note_off,196,0,0,,12,,,59,127
35505,note_off,3,0,0,,4,,,52,127
35506,note_on,1,0,0,,10,,,45,127
35702,note_off,196,0,0,,4,,,76,127
35702,note_off,0,0,0,,4,,,64,127
35705,note_off,3,0,0,,10,,,45,127
35706,note_on,1,0,0,,4,,,52,127
35905,note_off,199,0,0,,4,,,52,127
35906,note_on,1,0,0,,10,,,57,127
35906,note_on,0,0,0,,0,,,72,127
35906,note_on,0,0,0,,0,,,60,127
36105,note_off,199,0,0,,0,,,60,127
36105,note_off,0,0,0,,10,,,57,127
36106,note_on,1,0,0,,10,,,57,127
36106,note_on,0,0,0,,12,,,59,127
36106,note_on,0,0,0,,2,,,62,127
36302,note_off,196,0,0,,0,,,72,127
36305,note_off,3,0,0,,12,,,59,127
36305,note_off,0,0,0,,10,,,57,127
36306,note_on,1,0,0,,12,,,59,127
36306,note_on,0,0,0,,8,,,56,127
36306,note_on,0,0,0,,2,,,74,127
36502,note_off,196,0,0,,2,,,62,127
36505,note_off,3,0,0,,2,,,74,127
36505,note_off,0,0,0,,8,,,56,127
36506,note_on,1,0,0,,4,,,52,127
36506,note_on,0,0,0,,4,,,76,127
36506,note_on,0,0,0,,4,,,64,127
36702,note_off,196,0,0,,12,,,59,127
36705,note_off,3,0,0,,4,,,52,127
36706,note_on,1,0,0,,10,,,45,127
36905,note_off,199,0,0,,10,,,45,127
36905,note_off,0,0,0,,4,,,64,127
36905,note_off,0,0,0,,4,,,76,127
36906,note_on,1,0,0,,12,,,47,127
36906,note_on,0,0,0,,0,,,72,127
37105,note_off,199,0,0,,0,,,72,127
37105,note_off,0,0,0,,12,,,47,127
37106,note_on,1,0,0,,0,,,48,127
37106,note_on,0,0,0,,10,,,69,127
37305,note_off,199,0,0,,10,,,69,127
37305,note_off,0,0,0,,0,,,48,127
37306,note_on,1,0,0,,2,,,50,127
37306,note_on,0,0,0,,12,,,71,127
37306,note_on,0,0,0,,2,,,74,127
37505,note_off,199,0,0,,2,,,74,127
37505,note_off,0,0,0,,12,,,71,127
37505,note_off,0,0,0,,2,,,50,127
37506,note_on,1,0,0,,4,,,52,127
37506,note_on,0,0,0,,0,,,72,127
37506,note_on,0,0,0,,10,,,69,127
37705,note_off,199,0,0,,10,,,69,127
37705,note_off,0,0,0,,0,,,72,127
37705,note_off,0,0,0,,4,,,52,127
37706,note_on,1,0,0,,4,,,40,127
37706,note_on,0,0,0,,8,,,68,127
37706,note_on,0,0,0,,12,,,71,127
37905,note_off,199,0,0,,12,,,71,127
37905,note_off,0,0,0,,8,,,68,127
37905,note_off,0,0,0,,4,,,40,127
37906,note_on,1,0,0,,10,,,33,127
37906,note_on,0,0,0,,12,,,71,127
37955,note_off,49,0,0,,12,,,71,127
37956,note_on,1,0,0,,10,,,69,127
38005,note_off,49,0,0,,10,,,69,127
38006,note_on,1,0,0,,12,,,71,127
38055,note_off,49,0,0,,12,,,71,127
38056,note_on,1,0,0,,10,,,69,127
38453,note_off,397,0,0,,10,,,69,127
38506,note_off,53,0,0,,10,,,33,127
38507,note_on,1,0,0,,10,,,45,127
38707,note_on,200,0,0,,10,,,81,127
38903,note_off,196,0,0,,10,,,45,127
38906,note_off,3,0,0,,10,,,81,127
38907,note_on,1,0,0,,4,,,76,127
39106,note_off,199,0,0,,4,,,76,127
39107,note_on,1,0,0,,1,,,73,127
39306,note_off,199,0,0,,1,,,73,127
39307,note_on,1,0,0,,10,,,69,127
39506,note_off,199,0,0,,10,,,69,127
39507,note_on,1,0,0,,4,,,64,127
39706,note_off,199,0,0,,4,,,64,127
39707,note_on,1,0,0,,1,,,61,127
39906,note_off,199,0,0,,1,,,61,127
39907,note_on,1,0,0,,10,,,57,127
40106,note_off,199,0,0,,10,,,57,127
40107,note_on,1,0,0,,4,,,52,127
40306,note_off,199,0,0,,4,,,52,127
40307,note_on,1,0,0,,1,,,49,127
40506,note_off,199,0,0,,1,,,49,127
40507,note_on,1,0,0,,10,,,45,127
40706,note_off,199,0,0,,10,,,45,127
40707,note_on,1,0,0,,4,,,40,127
40906,note_off,199,0,0,,4,,,40,127
40907,note_on,1,0,0,,10,,,33,127
41107,note_on,200,0,0,,10,,,81,127
41306,note_off,199,0,0,,10,,,81,127
41307,note_on,1,0,0,,10,,,69,127
41506,note_off,199,0,0,,10,,,69,127
41506,note_off,0,0,0,,10,,,33,127
41507,note_on,1,0,0,,10,,,81,127
41706,note_off,199,0,0,,10,,,81,127
41707,note_on,1,0,0,,7,,,79,127
41906,note_off,199,0,0,,7,,,79,127
41907,note_on,1,0,0,,6,,,78,127
42106,note_off,199,0,0,,6,,,78,127
42107,note_on,1,0,0,,4,,,76,127
42306,note_off,199,0,0,,4,,,76,127
42307,note_on,1,0,0,,10,,,69,127
42307,note_on,0,0,0,,3,,,75,127
42506,note_off,199,0,0,,10,,,69,127
42507,note_on,1,0,0,,10,,,57,127
42706,note_off,199,0,0,,10,,,57,127
42707,note_on,1,0,0,,10,,,69,127
42906,note_off,199,0,0,,10,,,69,127
42906,note_off,0,0,0,,3,,,75,127
42907,note_on,1,0,0,,10,,,69,127
42907,note_on,0,0,0,,6,,,78,127
42956,note_off,49,0,0,,6,,,78,127
42956,note_off,0,0,0,,10,,,69,127
42957,note_on,1,0,0,,7,,,67,127
42957,note_on,0,0,0,,4,,,76,127
43006,note_off,49,0,0,,4,,,76,127
43006,note_off,0,0,0,,7,,,67,127
43007,note_on,1,0,0,,10,,,69,127
43007,note_on,0,0,0,,6,,,78,127
43056,note_off,49,0,0,,6,,,78,127
43056,note_off,0,0,0,,10,,,69,127
43057,note_on,1,0,0,,7,,,67,127
43057,note_on,0,0,0,,4,,,76,127
43106,note_off,49,0,0,,4,,,76,127
43106,note_off,0,0,0,,7,,,67,127
43107,note_on,1,0,0,,6,,,66,127
43107,note_on,0,0,0,,3,,,75,127
43306,note_off,199,0,0,,3,,,75,127
43306,note_off,0,0,0,,6,,,66,127
43307,note_on,1,0,0,,10,,,69,127
43307,note_on,0,0,0,,6,,,78,127
43356,note_off,49,0,0,,6,,,78,127
43356,note_off,0,0,0,,10,,,69,127
43357,note_on,1,0,0,,7,,,67,127
43357,note_on,0,0,0,,4,,,76,127
43406,note_off,49,0,0,,4,,,76,127
43406,note_off,0,0,0,,7,,,67,127
43407,note_on,1,0,0,,10,,,69,127
43407,note_on,0,0,0,,6,,,78,127
43456,note_off,49,0,0,,6,,,78,127
43456,note_off,0,0,0,,10,,,69,127
43457,note_on,1,0,0,,7,,,67,127
43457,note_on,0,0,0,,4,,,76,127
43506,note_off,49,0,0,,4,,,76,127
43506,note_off,0,0,0,,7,,,67,127
43507,note_on,1,0,0,,6,,,66,127
43507,note_on,0,0,0,,6,,,78,127
43706,note_off,199,0,0,,6,,,78,127
43706,note_off,0,0,0,,6,,,66,127
43707,note_on,1,0,0,,4,,,64,127
43707,note_on,0,0,0,,7,,,79,127
43906,note_off,199,0,0,,7,,,79,127
43906,note_off,0,0,0,,4,,,64,127
43907,note_on,1,0,0,,6,,,66,127
43907,note_on,0,0,0,,12,,,83,127
43956,note_off,49,0,0,,12,,,83,127
43957,note_on,1,0,0,,10,,,81,127
44006,note_off,49,0,0,,10,,,81,127
44007,note_on,1,0,0,,12,,,83,127
44056,note_off,49,0,0,,12,,,83,127
44057,note_on,1,0,0,,10,,,81,127
44106,note_off,49,0,0,,10,,,81,127
44106,note_off,0,0,0,,6,,,66,127
44107,note_on,1,0,0,,3,,,63,127
44107,note_on,0,0,0,,12,,,83,127
44306,note_off,199,0,0,,12,,,83,127
44306,note_off,0,0,0,,3,,,63,127
44307,note_on,1,0,0,,4,,,64,127
44307,note_on,0,0,0,,7,,,79,127
44506,note_off,199,0,0,,7,,,79,127
44506,note_off,0,0,0,,4,,,64,127
44507,note_on,1,0,0,,12,,,59,127
44507,note_on,0,0,0,,6,,,78,127
44706,note_off,199,0,0,,6,,,78,127
44707,note_on,1,0,0,,12,,,71,127
44906,note_off,199,0,0,,12,,,71,127
44906,note_off,0,0,0,,12,,,59,127
44907,note_on,1,0,0,,3,,,63,127
44907,note_on,0,0,0,,6,,,78,127
44907,note_on,0,0,0,,10,,,81,127
44907,note_on,0,0,0,,12,,,71,127
45106,note_off,199,0,0,,12,,,71,127
45106,note_off,0,0,0,,10,,,81,127
45106,note_off,0,0,0,,6,,,78,127
45106,note_off,0,0,0,,3,,,63,127
45107,note_on,1,0,0,,6,,,66,127
45107,note_on,0,0,0,,7,,,79,127
45107,note_on,0,0,0,,4,,,76,127
45107,note_on,0,0,0,,12,,,71,127
45156,note_off,49,0,0,,6,,,66,127
45157,note_on,1,0,0,,4,,,64,127
45206,note_off,49,0,0,,4,,,64,127
45207,note_on,1,0,0,,6,,,66,127
45256,note_off,49,0,0,,6,,,66,127
45257,note_on,1,0,0,,4,,,64,127
45306,note_off,49,0,0,,4,,,64,127
45306,note_off,0,0,0,,4,,,76,127
45306,note_off,0,0,0,,7,,,79,127
45307,note_on,1,0,0,,3,,,63,127
45307,note_on,0,0,0,,6,,,78,127
45307,note_on,0,0,0,,3,,,75,127
45506,note_off,199,0,0,,3,,,75,127
45506,note_off,0,0,0,,6,,,78,127
45506,note_off,0,0,0,,3,,,63,127
45507,note_on,1,0,0,,4,,,64,127
45507,note_on,0,0,0,,7,,,79,127
45507,note_on,0,0,0,,4,,,76,127
45706,note_off,199,0,0,,4,,,76,127
45706,note_off,0,0,0,,7,,,79,127
45706,note_off,0,0,0,,4,,,64,127
45706,note_off,0,0,0,,12,,,71,127
45707,note_on,1,0,0,,12,,,35,127
45707,note_on,0,0,0,,3,,,75,127
45707,note_on,0,0,0,,12,,,71,127
45707,note_on,0,0,0,,6,,,78,127
45906,note_off,199,0,0,,12,,,71,127
45906,note_off,0,0,0,,3,,,75,127
45907,note_on,1,0,0,,12,,,71,127
46103,note_off,196,0,0,,6,,,78,127
46106,note_off,3,0,0,,12,,,71,127
46106,note_off,0,0,0,,12,,,35,127
46107,note_on,1,0,0,,3,,,63,127
46107,note_on,0,0,0,,6,,,78,127
46107,note_on,0,0,0,,10,,,81,127
46306,note_off,199,0,0,,10,,,81,127
46306,note_off,0,0,0,,6,,,78,127
46306,note_off,0,0,0,,3,,,63,127
46307,note_on,1,0,0,,6,,,66,127
46307,note_on,0,0,0,,7,,,79,127
46307,note_on,0,0,0,,4,,,76,127
46307,note_on,0,0,0,,12,,,71,127
46356,note_off,49,0,0,,6,,,66,127
46357,note_on,1,0,0,,4,,,64,127
46406,note_off,49,0,0,,4,,,64,127
46407,note_on,1,0,0,,6,,,66,127
46456,note_off,49,0,0,,6,,,66,127
46457,note_on,1,0,0,,4,,,64,127
46506,note_off,49,0,0,,4,,,64,127
46506,note_off,0,0,0,,4,,,76,127
46506,note_off,0,0,0,,7,,,79,127
46507,note_on,1,0,0,,3,,,63,127
46507,note_on,0,0,0,,3,,,75,127
46507,note_on,0,0,0,,6,,,78,127
46706,note_off,199,0,0,,6,,,78,127
46706,note_off,0,0,0,,3,,,75,127
46706,note_off,0,0,0,,3,,,63,127
46707,note_on,1,0,0,,4,,,64,127
46707,note_on,0,0,0,,4,,,76,127
46707,note_on,0,0,0,,7,,,79,127
46906,note_off,199,0,0,,7,,,79,127
46906,note_off,0,0,0,,4,,,76,127
46906,note_off,0,0,0,,4,,,64,127
46906,note_off,0,0,0,,12,,,71,127
46907,note_on,1,0,0,,12,,,35,127
46907,note_on,0,0,0,,6,,,78,127
46907,note_on,0,0,0,,3,,,75,127
46907,note_on,0,0,0,,12,,,71,127
47106,note_off,199,0,0,,12,,,71,127
47106,note_off,0,0,0,,3,,,75,127
47106,note_off,0,0,0,,12,,,35,127
47107,note_on,1,0,0,,3,,,39,127
47107,note_on,0,0,0,,12,,,71,127
47272,note_off,165,0,0,,6,,,78,127
47295,note_off,23,0,0,,12,,,71,127
47306,note_off,11,0,0,,3,,,39,127
47307,note_on,1,0,0,,12,,,35,127
47307,note_on,0,0,0,,12,,,83,127
47506,note_off,199,0,0,,12,,,35,127
47507,note_on,1,0,0,,4,,,40,127
47606,note_off,99,0,0,,12,,,83,127
47607,note_on,1,0,0,,10,,,81,127
47706,note_off,99,0,0,,10,,,81,127
47706,note_off,0,0,0,,4,,,40,127
47707,note_on,1,0,0,,8,,,44,127
47707,note_on,0,0,0,,8,,,80,127
47806,note_off,99,0,0,,8,,,80,127
47807,note_on,1,0,0,,6,,,78,127
47906,note_off,99,0,0,,6,,,78,127
47906,note_off,0,0,0,,8,,,44,127
47907,note_on,1,0,0,,4,,,40,127
47907,note_on,0,0,0,,4,,,76,127
48006,note_off,99,0,0,,4,,,76,127
48007,note_on,1,0,0,,2,,,74,127
48106,note_off,99,0,0,,2,,,74,127
48106,note_off,0,0,0,,4,,,40,127
48107,note_on,1,0,0,,10,,,45,127
48107,note_on,0,0,0,,1,,,73,127
48206,note_off,99,0,0,,1,,,73,127
48207,note_on,1,0,0,,12,,,71,127
48306,note_off,99,0,0,,12,,,71,127
48306,note_off,0,0,0,,10,,,45,127
48307,note_on,1,0,0,,1,,,49,127
48307,note_on,0,0,0,,10,,,69,127
48406,note_off,99,0,0,,10,,,69,127
48407,note_on,1,0,0,,8,,,68,127
48506,note_off,99,0,0,,8,,,68,127
48506,note_off,0,0,0,,1,,,49,127
48507,note_on,1,0,0,,10,,,45,127
48507,note_on,0,0,0,,6,,,66,127
48606,note_off,99,0,0,,6,,,66,127
48607,note_on,1,0,0,,4,,,64,127
48706,note_off,99,0,0,,4,,,64,127
48706,note_off,0,0,0,,10,,,45,127
48707,note_on,1,0,0,,2,,,50,127
48707,note_on,0,0,0,,6,,,66,127
48806,note_off,99,0,0,,6,,,66,127
48807,note_on,1,0,0,,8,,,68,127
48906,note_off,99,0,0,,8,,,68,127
48906,note_off,0,0,0,,2,,,50,127
48907,note_on,1,0,0,,1,,,49,127
48907,note_on,0,0,0,,10,,,69,127
49006,note_off,99,0,0,,10,,,69,127
49007,note_on,1,0,0,,12,,,71,127
49106,note_off,99,0,0,,12,,,71,127
49106,note_off,0,0,0,,1,,,49,127
49107,note_on,1,0,0,,12,,,47,127
49107,note_on,0,0,0,,1,,,73,127
49206,note_off,99,0,0,,1,,,73,127
49207,note_on,1,0,0,,2,,,74,127
49306,note_off,99,0,0,,2,,,74,127
49306,note_off,0,0,0,,12,,,47,127
49307,note_on,1,0,0,,10,,,45,127
49307,note_on,0,0,0,,4,,,76,127
49507,note_on,200,0,0,,10,,,69,127
49557,note_off,50,0,0,,4,,,76,127
49607,note_off,50,0,0,,10,,,45,127
49674,note_off,67,0,0,,10,,,69,127
49707,note_on,33,0,0,,1,,,61,127
49707,note_on,0,0,0,,4,,,76,127
49707,note_on,0,0,0,,10,,,69,127
49707,note_on,0,0,0,,7,,,79,127
49906,note_off,199,0,0,,7,,,79,127
49906,note_off,0,0,0,,10,,,69,127
49906,note_off,0,0,0,,4,,,76,127
49906,note_off,0,0,0,,1,,,61,127
49907,note_on,1,0,0,,4,,,64,127
49907,note_on,0,0,0,,6,,,78,127
49907,note_on,0,0,0,,2,,,74,127
49907,note_on,0,0,0,,10,,,69,127
49956,note_off,49,0,0,,4,,,64,127
49957,note_on,1,0,0,,2,,,62,127
50006,note_off,49,0,0,,2,,,62,127
50007,note_on,1,0,0,,4,,,64,127
50056,note_off,49,0,0,,4,,,64,127
50057,note_on,1,0,0,,2,,,62,127
50106,note_off,49,0,0,,2,,,62,127
50106,note_off,0,0,0,,2,,,74,127
50106,note_off,0,0,0,,6,,,78,127
50107,note_on,1,0,0,,1,,,61,127
50107,note_on,0,0,0,,4,,,76,127
50107,note_on,0,0,0,,1,,,73,127
50306,note_off,199,0,0,,1,,,73,127
50306,note_off,0,0,0,,4,,,76,127
50306,note_off,0,0,0,,1,,,61,127
50307,note_on,1,0,0,,2,,,62,127
50307,note_on,0,0,0,,6,,,78,127
50307,note_on,0,0,0,,2,,,74,127
50506,note_off,199,0,0,,2,,,74,127
50506,note_off,0,0,0,,6,,,78,127
50506,note_off,0,0,0,,2,,,62,127
50506,note_off,0,0,0,,10,,,69,127
50507,note_on,1,0,0,,10,,,33,127
50507,note_on,0,0,0,,1,,,73,127
50507,note_on,0,0,0,,10,,,69,127
50507,note_on,0,0,0,,4,,,76,127
50706,note_off,199,0,0,,10,,,69,127
50706,note_off,0,0,0,,1,,,73,127
50707,note_on,1,0,0,,10,,,69,127
50903,note_off,196,0,0,,4,,,76,127
50906,note_off,3,0,0,,10,,,69,127
50906,note_off,0,0,0,,10,,,33,127
50907,note_on,1,0,0,,1,,,61,127
50907,note_on,0,0,0,,4,,,76,127
50907,note_on,0,0,0,,7,,,79,127
51106,note_off,199,0,0,,7,,,79,127
51106,note_off,0,0,0,,4,,,76,127
51106,note_off,0,0,0,,1,,,61,127
51107,note_on,1,0,0,,4,,,64,127
51107,note_on,0,0,0,,6,,,78,127
51107,note_on,0,0,0,,2,,,74,127
51107,note_on,0,0,0,,10,,,69,127
51156,note_off,49,0,0,,4,,,64,127
51157,note_on,1,0,0,,2,,,62,127
51206,note_off,49,0,0,,2,,,62,127
51207,note_on,1,0,0,,4,,,64,127
51256,note_off,49,0,0,,4,,,64,127
51257,note_on,1,0,0,,2,,,62,127
51306,note_off,49,0,0,,2,,,62,127
51306,note_off,0,0,0,,2,,,74,127
51306,note_off,0,0,0,,6,,,78,127
51307,note_on,1,0,0,,1,,,61,127
51307,note_on,0,0,0,,1,,,73,127
51307,note_on,0,0,0,,4,,,76,127
51506,note_off,199,0,0,,4,,,76,127
51506,note_off,0,0,0,,1,,,73,127
51506,note_off,0,0,0,,1,,,61,127
51507,note_on,1,0,0,,2,,,62,127
51507,note_on,0,0,0,,6,,,78,127
51507,note_on,0,0,0,,2,,,74,127
51706,note_off,199,0,0,,2,,,74,127
51706,note_off,0,0,0,,6,,,78,127
51706,note_off,0,0,0,,2,,,62,127
51706,note_off,0,0,0,,10,,,69,127
51707,note_on,1,0,0,,10,,,33,127
51707,note_on,0,0,0,,4,,,76,127
51707,note_on,0,0,0,,1,,,73,127
51707,note_on,0,0,0,,10,,,69,127
51906,note_off,199,0,0,,10,,,69,127
51906,note_off,0,0,0,,1,,,73,127
51906,note_off,0,0,0,,10,,,33,127
51907,note_on,1,0,0,,1,,,37,127
51907,note_on,0,0,0,,10,,,69,127
52103,note_off,196,0,0,,4,,,76,127
52106,note_off,3,0,0,,10,,,69,127
52106,note_off,0,0,0,,1,,,37,127
52107,note_on,1,0,0,,10,,,33,127
52107,note_on,0,0,0,,10,,,81,127
52306,note_off,199,0,0,,10,,,33,127
52307,note_on,1,0,0,,2,,,38,127
52406,note_off,99,0,0,,10,,,81,127
52407,note_on,1,0,0,,7,,,79,127
52506,note_off,99,0,0,,7,,,79,127
52506,note_off,0,0,0,,2,,,38,127
52507,note_on,1,0,0,,6,,,42,127
52507,note_on,0,0,0,,6,,,78,127
52606,note_off,99,0,0,,6,,,78,127
52607,note_on,1,0,0,,4,,,76,127
52706,note_off,99,0,0,,4,,,76,127
52706,note_off,0,0,0,,6,,,42,127
52707,note_on,1,0,0,,2,,,38,127
52707,note_on,0,0,0,,2,,,74,127
52806,note_off,99,0,0,,2,,,74,127
52807,note_on,1,0,0,,1,,,73,127
52906,note_off,99,0,0,,1,,,73,127
52906,note_off,0,0,0,,2,,,38,127
52907,note_on,1,0,0,,7,,,43,127
52907,note_on,0,0,0,,12,,,71,127
53006,note_off,99,0,0,,12,,,71,127
53007,note_on,1,0,0,,10,,,69,127
53106,note_off,99,0,0,,10,,,69,127
53106,note_off,0,0,0,,7,,,43,127
53107,note_on,1,0,0,,12,,,47,127
53107,note_on,0,0,0,,7,,,67,127
53206,note_off,99,0,0,,7,,,67,127
53207,note_on,1,0,0,,6,,,66,127
53306,note_off,99,0,0,,6,,,66,127
53306,note_off,0,0,0,,12,,,47,127
53307,note_on,1,0,0,,7,,,43,127
53307,note_on,0,0,0,,4,,,64,127
53406,note_off,99,0,0,,4,,,64,127
53407,note_on,1,0,0,,2,,,62,127
53506,note_off,99,0,0,,2,,,62,127
53506,note_off,0,0,0,,7,,,43,127
53507,note_on,1,0,0,,10,,,45,127
53507,note_on,0,0,0,,1,,,61,127
53606,note_off,99,0,0,,1,,,61,127
53607,note_on,1,0,0,,12,,,59,127
53706,note_off,99,0,0,,12,,,59,127
53706,note_off,0,0,0,,10,,,45,127
53707,note_on,1,0,0,,1,,,49,127
53707,note_on,0,0,0,,10,,,57,127
53806,note_off,99,0,0,,10,,,57,127
53807,note_on,1,0,0,,7,,,55,127
53906,note_off,99,0,0,,7,,,55,127
53906,note_off,0,0,0,,1,,,49,127
53907,note_on,1,0,0,,10,,,45,127
53907,note_on,0,0,0,,6,,,54,127
54006,note_off,99,0,0,,6,,,54,127
54007,note_on,1,0,0,,4,,,52,127
54106,note_off,99,0,0,,4,,,52,127
54106,note_off,0,0,0,,10,,,45,127
54107,note_on,1,0,0,,2,,,50,127
54107,note_on,0,0,0,,6,,,54,127
54206,note_off,99,0,0,,6,,,54,127
54207,note_on,1,0,0,,7,,,55,127
54306,note_off,99,0,0,,7,,,55,127
54306,note_off,0,0,0,,2,,,50,127
54307,note_on,1,0,0,,1,,,49,127
54307,note_on,0,0,0,,10,,,57,127
54406,note_off,99,0,0,,10,,,57,127
54407,note_on,1,0,0,,12,,,59,127
54506,note_off,99,0,0,,12,,,59,127
54506,note_off,0,0,0,,1,,,49,127
54507,note_on,1,0,0,,12,,,47,127
54507,note_on,0,0,0,,1,,,61,127
54606,note_off,99,0,0,,1,,,61,127
54607,note_on,1,0,0,,2,,,62,127
54706,note_off,99,0,0,,2,,,62,127
54706,note_off,0,0,0,,12,,,47,127
54707,note_on,1,0,0,,10,,,45,127
54707,note_on,0,0,0,,4,,,64,127
54806,note_off,99,0,0,,4,,,64,127
54807,note_on,1,0,0,,6,,,66,127
54906,note_off,99,0,0,,6,,,66,127
54907,note_on,1,0,0,,7,,,67,127
55006,note_off,99,0,0,,7,,,67,127
55007,note_on,1,0,0,,4,,,64,127
55106,note_off,99,0,0,,4,,,64,127
55106,note_off,0,0,0,,10,,,45,127
55107,note_on,1,0,0,,2,,,38,127
55107,note_on,0,0,0,,6,,,66,127
55206,note_off,99,0,0,,6,,,66,127
55207,note_on,1,0,0,,2,,,62,127
55306,note_off,99,0,0,,2,,,62,127
55306,note_off,0,0,0,,2,,,38,127
55307,note_on,1,0,0,,10,,,33,127
55307,note_on,0,0,0,,6,,,66,127
55356,note_off,49,0,0,,6,,,66,127
55357,note_on,1,0,0,,4,,,64,127
55406,note_off,49,0,0,,4,,,64,127
55407,note_on,1,0,0,,6,,,66,127
55456,note_off,49,0,0,,6,,,66,127
55457,note_on,1,0,0,,4,,,64,127
55874,note_off,417,0,0,,4,,,64,127
55906,note_off,32,0,0,,10,,,33,127
56508,note_on,602,0,0,,5,,,77,127
56508,note_on,0,0,0,,5,,,65,127
56508,note_on,0,0,0,,2,,,62,127
56706,note_off,198,0,0,,5,,,65,127
56707,note_off,1,0,0,,2,,,62,127
56708,note_on,1,0,0,,7,,,67,127
56708,note_on,0,0,0,,4,,,64,127
56708,note_on,0,0,0,,2,,,62,127
56907,note_off,199,0,0,,2,,,62,127
56907,note_off,0,0,0,,4,,,64,127
56907,note_off,0,0,0,,5,,,77,127
56908,note_on,1,0,0,,7,,,79,127
56908,note_on,0,0,0,,4,,,64,127
56908,note_on,0,0,0,,1,,,61,127
57104,note_off,196,0,0,,7,,,67,127
57107,note_off,3,0,0,,1,,,61,127
57107,note_off,0,0,0,,7,,,79,127
57108,note_on,1,0,0,,10,,,69,127
57108,note_on,0,0,0,,10,,,81,127
57108,note_on,0,0,0,,10,,,57,127
57304,note_off,196,0,0,,4,,,64,127
57307,note_off,3,0,0,,10,,,57,127
57308,note_on,1,0,0,,2,,,50,127
57504,note_off,196,0,0,,10,,,81,127
57504,note_off,0,0,0,,10,,,69,127
57507,note_off,3,0,0,,2,,,50,127
57508,note_on,1,0,0,,10,,,57,127
57707,note_off,199,0,0,,10,,,57,127
57708,note_on,1,0,0,,5,,,77,127
57708,note_on,0,0,0,,5,,,65,127
57708,note_on,0,0,0,,2,,,62,127
57907,note_off,199,0,0,,2,,,62,127
57907,note_off,0,0,0,,5,,,65,127
57908,note_on,1,0,0,,7,,,67,127
57908,note_on,0,0,0,,2,,,62,127
57908,note_on,0,0,0,,4,,,64,127
58104,note_off,196,0,0,,5,,,77,127
58107,note_off,3,0,0,,4,,,64,127
58107,note_off,0,0,0,,2,,,62,127
58108,note_on,1,0,0,,7,,,79,127
58108,note_on,0,0,0,,4,,,64,127
58108,note_on,0,0,0,,1,,,61,127
58304,note_off,196,0,0,,7,,,67,127
58307,note_off,3,0,0,,1,,,61,127
58307,note_off,0,0,0,,7,,,79,127
58308,note_on,1,0,0,,10,,,81,127
58308,note_on,0,0,0,,10,,,69,127
58308,note_on,0,0,0,,10,,,57,127
58504,note_off,196,0,0,,4,,,64,127
58507,note_off,3,0,0,,10,,,57,127
58508,note_on,1,0,0,,2,,,50,127
58707,note_off,199,0,0,,2,,,50,127
58707,note_off,0,0,0,,10,,,69,127
58707,note_off,0,0,0,,10,,,81,127
58708,note_on,1,0,0,,5,,,77,127
58708,note_on,0,0,0,,4,,,52,127
58907,note_off,199,0,0,,4,,,52,127
58907,note_off,0,0,0,,5,,,77,127
58908,note_on,1,0,0,,2,,,74,127
58908,note_on,0,0,0,,5,,,53,127
59107,note_off,199,0,0,,5,,,53,127
59107,note_off,0,0,0,,2,,,74,127
59108,note_on,1,0,0,,4,,,76,127
59108,note_on,0,0,0,,7,,,79,127
59108,note_on,0,0,0,,7,,,55,127
59307,note_off,199,0,0,,7,,,55,127
59307,note_off,0,0,0,,7,,,79,127
59307,note_off,0,0,0,,4,,,76,127
59308,note_on,1,0,0,,5,,,77,127
59308,note_on,0,0,0,,2,,,74,127
59308,note_on,0,0,0,,10,,,57,127
59507,note_off,199,0,0,,10,,,57,127
59507,note_off,0,0,0,,2,,,74,127
59507,note_off,0,0,0,,5,,,77,127
59508,note_on,1,0,0,,4,,,76,127
59508,note_on,0,0,0,,1,,,73,127
59508,note_on,0,0,0,,10,,,45,127
59707,note_off,199,0,0,,10,,,45,127
59707,note_off,0,0,0,,1,,,73,127
59707,note_off,0,0,0,,4,,,76,127
59708,note_on,1,0,0,,2,,,74,127
59708,note_on,0,0,0,,2,,,50,127
59907,note_off,199,0,0,,2,,,74,127
59908,note_on,1,0,0,,4,,,76,127
60107,note_off,199,0,0,,4,,,76,127
60107,note_off,0,0,0,,2,,,50,127
60108,note_on,1,0,0,,5,,,77,127
60108,note_on,0,0,0,,10,,,69,127
60108,note_on,0,0,0,,2,,,62,127
60108,note_on,0,0,0,,5,,,53,127
60307,note_off,199,0,0,,5,,,53,127
60307,note_off,0,0,0,,10,,,69,127
60307,note_off,0,0,0,,5,,,77,127
60308,note_on,1,0,0,,5,,,77,127
60308,note_on,0,0,0,,11,,,70,127
60308,note_on,0,0,0,,7,,,79,127
60308,note_on,0,0,0,,7,,,55,127
60507,note_off,199,0,0,,7,,,79,127
60507,note_off,0,0,0,,5,,,77,127
60508,note_on,1,0,0,,4,,,76,127
60704,note_off,196,0,0,,11,,,70,127
60707,note_off,3,0,0,,7,,,55,127
60708,note_on,1,0,0,,10,,,69,127
60708,note_on,0,0,0,,10,,,57,127
60907,note_off,199,0,0,,10,,,57,127
60907,note_off,0,0,0,,10,,,69,127
60907,note_off,0,0,0,,2,,,62,127
60908,note_on,1,0,0,,7,,,67,127
60908,note_on,0,0,0,,2,,,62,127
60908,note_on,0,0,0,,11,,,58,127
61107,note_off,199,0,0,,4,,,76,127
61108,note_on,1,0,0,,2,,,74,127
61304,note_off,196,0,0,,7,,,67,127
61307,note_off,3,0,0,,2,,,74,127
61307,note_off,0,0,0,,11,,,58,127
61308,note_on,1,0,0,,10,,,69,127
61308,note_on,0,0,0,,5,,,77,127
61308,note_on,0,0,0,,5,,,53,127
61507,note_off,199,0,0,,5,,,53,127
61507,note_off,0,0,0,,5,,,77,127
61507,note_off,0,0,0,,10,,,69,127
61507,note_off,0,0,0,,2,,,62,127
61508,note_on,1,0,0,,7,,,79,127
61508,note_on,0,0,0,,11,,,70,127
61508,note_on,0,0,0,,5,,,77,127
61508,note_on,0,0,0,,2,,,62,127
61508,note_on,0,0,0,,7,,,55,127
61707,note_off,199,0,0,,5,,,77,127
61707,note_off,0,0,0,,7,,,79,127
61708,note_on,1,0,0,,4,,,76,127
61904,note_off,196,0,0,,11,,,70,127
61907,note_off,3,0,0,,7,,,55,127
61908,note_on,1,0,0,,10,,,69,127
61908,note_on,0,0,0,,10,,,57,127
62107,note_off,199,0,0,,10,,,57,127
62107,note_off,0,0,0,,10,,,69,127
62107,note_off,0,0,0,,2,,,62,127
62108,note_on,1,0,0,,7,,,67,127
62108,note_on,0,0,0,,2,,,62,127
62108,note_on,0,0,0,,11,,,58,127
62307,note_off,199,0,0,,4,,,76,127
62308,note_on,1,0,0,,2,,,74,127
62504,note_off,196,0,0,,7,,,67,127
62507,note_off,3,0,0,,2,,,74,127
62507,note_off,0,0,0,,11,,,58,127
62508,note_on,1,0,0,,5,,,77,127
62508,note_on,0,0,0,,10,,,69,127
62508,note_on,0,0,0,,5,,,53,127
62707,note_off,199,0,0,,5,,,53,127
62707,note_off,0,0,0,,10,,,69,127
62707,note_off,0,0,0,,5,,,77,127
62707,note_off,0,0,0,,2,,,62,127
62708,note_on,1,0,0,,7,,,79,127
62708,note_on,0,0,0,,11,,,70,127
62708,note_on,0,0,0,,5,,,77,127
62708,note_on,0,0,0,,2,,,62,127
62708,note_on,0,0,0,,7,,,55,127
62907,note_off,199,0,0,,5,,,77,127
62907,note_off,0,0,0,,7,,,79,127
62908,note_on,1,0,0,,4,,,76,127
63104,note_off,196,0,0,,11,,,70,127
63107,note_off,3,0,0,,4,,,76,127
63107,note_off,0,0,0,,7,,,55,127
63107,note_off,0,0,0,,2,,,62,127
63108,note_on,1,0,0,,11,,,82,127
63108,note_on,0,0,0,,1,,,73,127
63108,note_on,0,0,0,,4,,,52,127
63307,note_off,199,0,0,,4,,,52,127
63307,note_off,0,0,0,,1,,,73,127
63308,note_on,1,0,0,,2,,,74,127
63308,note_on,0,0,0,,5,,,53,127
63504,note_off,196,0,0,,11,,,82,127
63508,note_on,4,0,0,,10,,,81,127
63704,note_off,196,0,0,,2,,,74,127
63707,note_off,3,0,0,,10,,,81,127
63707,note_off,0,0,0,,5,,,53,127
63708,note_on,1,0,0,,4,,,76,127
63708,note_on,0,0,0,,7,,,79,127
63708,note_on,0,0,0,,7,,,55,127
63907,note_off,199,0,0,,7,,,55,127
63908,note_on,1,0,0,,10,,,57,127
64107,note_off,199,0,0,,7,,,79,127
64107,note_off,0,0,0,,4,,,76,127
64108,note_on,1,0,0,,5,,,77,127
64108,note_on,0,0,0,,2,,,74,127
64307,note_off,199,0,0,,2,,,74,127
64307,note_off,0,0,0,,5,,,77,127
64307,note_off,0,0,0,,10,,,57,127
64308,note_on,1,0,0,,1,,,73,127
64308,note_on,0,0,0,,4,,,76,127
64308,note_on,0,0,0,,10,,,45,127
64507,note_off,199,0,0,,10,,,45,127
64507,note_off,0,0,0,,4,,,76,127
64507,note_off,0,0,0,,1,,,73,127
64508,note_on,1,0,0,,2,,,74,127
64508,note_on,0,0,0,,2,,,50,127
64706,note_off,198,0,0,,2,,,74,127
64707,note_off,1,0,0,,2,,,50,127
64708,note_on,1,0,0,,10,,,57,127
64907,note_off,199,0,0,,10,,,57,127
64908,note_on,1,0,0,,6,,,66,127
64908,note_on,0,0,0,,6,,,78,127
64908,note_on,0,0,0,,2,,,62,127
65107,note_off,199,0,0,,2,,,62,127
65107,note_off,0,0,0,,6,,,66,127
65108,note_on,1,0,0,,7,,,67,127
65108,note_on,0,0,0,,4,,,64,127
65108,note_on,0,0,0,,2,,,62,127
65304,note_off,196,0,0,,6,,,78,127
65307,note_off,3,0,0,,2,,,62,127
65307,note_off,0,0,0,,4,,,64,127
65308,note_on,1,0,0,,7,,,79,127
65308,note_on,0,0,0,,4,,,64,127
65308,note_on,0,0,0,,1,,,61,127
65504,note_off,196,0,0,,7,,,67,127
65507,note_off,3,0,0,,1,,,61,127
65507,note_off,0,0,0,,7,,,79,127
65508,note_on,1,0,0,,10,,,69,127
65508,note_on,0,0,0,,10,,,81,127
65508,note_on,0,0,0,,10,,,57,127
65704,note_off,196,0,0,,4,,,64,127
65707,note_off,3,0,0,,10,,,57,127
65708,note_on,1,0,0,,2,,,50,127
65904,note_off,196,0,0,,10,,,81,127
65904,note_off,0,0,0,,10,,,69,127
65907,note_off,3,0,0,,2,,,50,127
65908,note_on,1,0,0,,10,,,57,127
66107,note_off,199,0,0,,10,,,57,127
66108,note_on,1,0,0,,6,,,78,127
66108,note_on,0,0,0,,6,,,66,127
66108,note_on,0,0,0,,2,,,62,127
66307,note_off,199,0,0,,2,,,62,127
66307,note_off,0,0,0,,6,,,66,127
66308,note_on,1,0,0,,7,,,67,127
66308,note_on,0,0,0,,4,,,64,127
66308,note_on,0,0,0,,2,,,62,127
66504,note_off,196,0,0,,6,,,78,127
66507,note_off,3,0,0,,2,,,62,127
66507,note_off,0,0,0,,4,,,64,127
66508,note_on,1,0,0,,7,,,79,127
66508,note_on,0,0,0,,4,,,64,127
66508,note_on,0,0,0,,1,,,61,127
66704,note_off,196,0,0,,7,,,67,127
66707,note_off,3,0,0,,1,,,61,127
66707,note_off,0,0,0,,7,,,79,127
66708,note_on,1,0,0,,10,,,69,127
66708,note_on,0,0,0,,10,,,81,127
66708,note_on,0,0,0,,10,,,57,127
66904,note_off,196,0,0,,4,,,64,127
66907,note_off,3,0,0,,10,,,57,127
66908,note_on,1,0,0,,2,,,50,127
67008,note_off,100,0,0,,10,,,81,127
67008,note_off,0,0,0,,10,,,69,127
67108,note_on,100,0,0,,10,,,81,127
67307,note_off,199,0,0,,2,,,50,127
67308,note_on,1,0,0,,10,,,69,127
67308,note_on,0,0,0,,6,,,54,127
67504,note_off,196,0,0,,10,,,81,127
67507,note_off,3,0,0,,6,,,54,127
67507,note_off,0,0,0,,10,,,69,127
67508,note_on,1,0,0,,12,,,71,127
67508,note_on,0,0,0,,7,,,55,127
67707,note_off,199,0,0,,12,,,71,127
67708,note_on,1,0,0,,12,,,83,127
67907,note_off,199,0,0,,7,,,55,127
67908,note_on,1,0,0,,12,,,71,127
67908,note_on,0,0,0,,7,,,43,127
68104,note_off,196,0,0,,12,,,83,127
68107,note_off,3,0,0,,7,,,43,127
68107,note_off,0,0,0,,12,,,71,127
68108,note_on,1,0,0,,1,,,73,127
68108,note_on,0,0,0,,10,,,45,127
68307,note_off,199,0,0,,10,,,45,127
68307,note_off,0,0,0,,1,,,73,127
68308,note_on,1,0,0,,1,,,85,127
68308,note_on,0,0,0,,10,,,57,127
68507,note_off,199,0,0,,10,,,57,127
68507,note_off,0,0,0,,1,,,85,127
68508,note_on,1,0,0,,2,,,86,127
68508,note_on,0,0,0,,6,,,54,127
68707,note_off,199,0,0,,6,,,54,127
68707,note_off,0,0,0,,2,,,86,127
68708,note_on,1,0,0,,2,,,62,127
68708,note_on,0,0,0,,7,,,55,127
68907,note_off,199,0,0,,7,,,55,127
68908,note_on,1,0,0,,10,,,57,127
69107,note_off,199,0,0,,10,,,57,127
69107,note_off,0,0,0,,2,,,62,127
69108,note_on,1,0,0,,2,,,62,127
69108,note_on,0,0,0,,10,,,45,127
69157,note_off,49,0,0,,2,,,62,127
69158,note_on,1,0,0,,1,,,61,127
69207,note_off,49,0,0,,1,,,61,127
69208,note_on,1,0,0,,12,,,59,127
69257,note_off,49,0,0,,12,,,59,127
69258,note_on,1,0,0,,1,,,61,127
69307,note_off,49,0,0,,1,,,61,127
69307,note_off,0,0,0,,10,,,45,127
69308,note_on,1,0,0,,2,,,62,127
69308,note_on,0,0,0,,2,,,50,127
69507,note_off,199,0,0,,2,,,62,127
69508,note_on,1,0,0,,10,,,81,127
69707,note_off,199,0,0,,2,,,50,127
69708,note_on,1,0,0,,10,,,69,127
69708,note_on,0,0,0,,6,,,54,127
69904,note_off,196,0,0,,10,,,81,127
69907,note_off,3,0,0,,6,,,54,127
69907,note_off,0,0,0,,10,,,69,127
69908,note_on,1,0,0,,12,,,71,127
69908,note_on,0,0,0,,7,,,55,127
70107,note_off,199,0,0,,12,,,71,127
70108,note_on,1,0,0,,12,,,83,127
70307,note_off,199,0,0,,7,,,55,127
70308,note_on,1,0,0,,12,,,71,127
70308,note_on,0,0,0,,7,,,43,127
70504,note_off,196,0,0,,12,,,83,127
70507,note_off,3,0,0,,7,,,43,127
70507,note_off,0,0,0,,12,,,71,127
70508,note_on,1,0,0,,1,,,73,127
70508,note_on,0,0,0,,10,,,45,127
70707,note_off,199,0,0,,10,,,45,127
70707,note_off,0,0,0,,1,,,73,127
70708,note_on,1,0,0,,1,,,85,127
70708,note_on,0,0,0,,10,,,57,127
70907,note_off,199,0,0,,10,,,57,127
70907,note_off,0,0,0,,1,,,85,127
70908,note_on,1,0,0,,2,,,86,127
70908,note_on,0,0,0,,6,,,54,127
71107,note_off,199,0,0,,6,,,54,127
71107,note_off,0,0,0,,2,,,86,127
71115,note_on,8,0,0,,7,,,55,127
71115,note_on,0,0,0,,2,,,62,127
71326,note_off,211,0,0,,7,,,55,127
71331,note_on,5,0,0,,10,,,57,127
71538,note_off,207,0,0,,2,,,62,127
71547,note_on,9,0,0,,10,,,45,127
71547,note_on,0,0,0,,2,,,62,127
71598,note_off,51,0,0,,2,,,62,127
71601,note_on,3,0,0,,1,,,61,127
71649,note_off,48,0,0,,10,,,57,127
71652,note_off,3,0,0,,1,,,61,127
71655,note_on,3,0,0,,12,,,59,127
71706,note_off,51,0,0,,12,,,59,127
71709,note_on,3,0,0,,1,,,61,127
71757,note_off,48,0,0,,10,,,45,127
71760,note_off,3,0,0,,1,,,61,127
71767,note_on,7,0,0,,2,,,38,127
71767,note_on,0,0,0,,2,,,62,127
74016,note_off,2249,0,0,,2,,,62,127
74016,note_off,0,0,0,,2,,,38,127
75264,end_of_track,1248,1,0,,,,,,
