tick,type,time,meta,track,program,channel,pitch,tempo,note,velocity
0,copyright,0,1,0,,,,,,
0,program_change,0,0,0,6,0,,,,
0,pitchwheel,0,0,0,,0,0,,,
0,program_change,0,0,0,6,1,,,,
0,pitchwheel,0,0,0,,1,-590,,,
0,program_change,0,0,0,6,2,,,,
0,pitchwheel,0,0,0,,2,-272,,,
0,program_change,0,0,0,6,3,,,,
0,pitchwheel,0,0,0,,3,-353,,,
0,program_change,0,0,0,6,4,,,,
0,pitchwheel,0,0,0,,4,-560,,,
0,program_change,0,0,0,6,5,,,,
0,pitchwheel,0,0,0,,5,-80,,,
0,program_change,0,0,0,6,6,,,,
0,pitchwheel,0,0,0,,6,-625,,,
0,program_change,0,0,0,6,7,,,,
0,pitchwheel,0,0,0,,7,-130,,,
0,program_change,0,0,0,6,8,,,,
0,pitchwheel,0,0,0,,8,-512,,,
0,program_change,0,0,0,6,10,,,,
0,pitchwheel,0,0,0,,10,-464,,,
0,program_change,0,0,0,6,11,,,,
0,pitchwheel,0,0,0,,11,-208,,,
0,program_change,0,0,0,6,12,,,,
0,pitchwheel,0,0,0,,12,-553,,,
0,set_tempo,0,1,0,,,,500000,,
110,note_on,110,0,0,,2,,,62,127
110,note_on,0,0,0,,2,,,50,127
110,note_on,0,0,0,,7,,,79,127
182,note_off,72,0,0,,7,,,79,127
183,note_on,1,0,0,,6,,,78,127
255,note_off,72,0,0,,6,,,78,127
256,note_on,1,0,0,,7,,,79,127
328,note_off,72,0,0,,7,,,79,127
328,note_off,0,0,0,,2,,,62,127
329,note_on,1,0,0,,10,,,57,127
329,note_on,0,0,0,,6,,,78,127
401,note_off,72,0,0,,6,,,78,127
402,note_on,1,0,0,,4,,,76,127
474,note_off,72,0,0,,4,,,76,127
475,note_on,1,0,0,,6,,,78,127
547,note_off,72,0,0,,6,,,78,127
547,note_off,0,0,0,,10,,,57,127
548,note_on,1,0,0,,12,,,59,127
548,note_on,0,0,0,,7,,,79,127
766,note_off,218,0,0,,7,,,79,127
766,note_off,0,0,0,,12,,,59,127
767,note_on,1,0,0,,1,,,61,127
767,note_on,0,0,0,,7,,,79,127
985,note_off,218,0,0,,7,,,79,127
985,note_off,0,0,0,,1,,,61,127
985,note_off,0,0,0,,2,,,50,127
986,note_on,1,0,0,,2,,,50,127
986,note_on,0,0,0,,2,,,62,127
986,note_on,0,0,0,,7,,,79,127
1058,note_off,72,0,0,,7,,,79,127
1059,note_on,1,0,0,,6,,,78,127
1131,note_off,72,0,0,,6,,,78,127
1132,note_on,1,0,0,,7,,,79,127
1204,note_off,72,0,0,,7,,,79,127
1204,note_off,0,0,0,,2,,,62,127
1205,note_on,1,0,0,,10,,,57,127
1205,note_on,0,0,0,,6,,,78,127
1277,note_off,72,0,0,,6,,,78,127
1278,note_on,1,0,0,,4,,,76,127
1350,note_off,72,0,0,,4,,,76,127
1351,note_on,1,0,0,,6,,,78,127
1423,note_off,72,0,0,,6,,,78,127
1423,note_off,0,0,0,,10,,,57,127
1424,note_on,1,0,0,,12,,,59,127
1424,note_on,0,0,0,,7,,,79,127
1642,note_off,218,0,0,,7,,,79,127
1642,note_off,0,0,0,,12,,,59,127
1643,note_on,1,0,0,,1,,,61,127
1643,note_on,0,0,0,,7,,,79,127
1861,note_off,218,0,0,,7,,,79,127
1861,note_off,0,0,0,,1,,,61,127
1861,note_off,0,0,0,,2,,,50,127
1862,note_on,1,0,0,,2,,,50,127
1862,note_on,0,0,0,,2,,,62,127
1862,note_on,0,0,0,,7,,,79,127
1934,note_off,72,0,0,,7,,,79,127
1935,note_on,1,0,0,,6,,,78,127
2007,note_off,72,0,0,,6,,,78,127
2008,note_on,1,0,0,,7,,,79,127
2080,note_off,72,0,0,,7,,,79,127
2080,note_off,0,0,0,,2,,,62,127
2081,note_on,1,0,0,,10,,,57,127
2081,note_on,0,0,0,,6,,,78,127
2153,note_off,72,0,0,,6,,,78,127
2154,note_on,1,0,0,,4,,,76,127
2226,note_off,72,0,0,,4,,,76,127
2227,note_on,1,0,0,,6,,,78,127
2299,note_off,72,0,0,,6,,,78,127
2299,note_off,0,0,0,,10,,,57,127
2300,note_on,1,0,0,,12,,,59,127
2300,note_on,0,0,0,,7,,,79,127
2518,note_off,218,0,0,,7,,,79,127
2518,note_off,0,0,0,,12,,,59,127
2519,note_on,1,0,0,,1,,,61,127
2519,note_on,0,0,0,,7,,,79,127
2737,note_off,218,0,0,,7,,,79,127
2737,note_off,0,0,0,,1,,,61,127
2737,note_off,0,0,0,,2,,,50,127
2738,note_on,1,0,0,,2,,,50,127
2738,note_on,0,0,0,,2,,,62,127
2738,note_on,0,0,0,,6,,,78,127
2847,note_off,109,0,0,,6,,,78,127
2848,note_on,1,0,0,,10,,,81,127
2957,note_off,109,0,0,,10,,,81,127
2958,note_on,1,0,0,,1,,,73,127
3067,note_off,109,0,0,,1,,,73,127
3068,note_on,1,0,0,,4,,,76,127
3177,note_off,109,0,0,,4,,,76,127
3178,note_on,1,0,0,,2,,,74,127
3287,note_off,109,0,0,,2,,,74,127
3288,note_off,1,0,0,,2,,,62,127
3288,note_off,0,0,0,,2,,,50,127
3288,note_on,0,0,0,,6,,,78,127
3397,note_off,109,0,0,,6,,,78,127
3398,note_on,1,0,0,,6,,,42,127
3398,note_on,0,0,0,,6,,,54,127
3398,note_on,0,0,0,,10,,,69,127
3507,note_off,109,0,0,,10,,,69,127
3508,note_on,1,0,0,,1,,,73,127
3617,note_off,109,0,0,,1,,,73,127
3617,note_off,0,0,0,,6,,,54,127
3617,note_off,0,0,0,,6,,,42,127
3618,note_on,1,0,0,,7,,,55,127
3618,note_on,0,0,0,,7,,,43,127
3618,note_on,0,0,0,,12,,,71,127
3727,note_off,109,0,0,,12,,,71,127
3728,note_on,1,0,0,,7,,,79,127
3837,note_off,109,0,0,,7,,,79,127
3838,note_on,1,0,0,,6,,,78,127
3947,note_off,109,0,0,,6,,,78,127
3948,note_on,1,0,0,,4,,,76,127
4057,note_off,109,0,0,,4,,,76,127
4057,note_off,0,0,0,,7,,,43,127
4057,note_off,0,0,0,,7,,,55,127
4058,note_on,1,0,0,,10,,,57,127
4058,note_on,0,0,0,,10,,,45,127
4058,note_on,0,0,0,,2,,,74,127
4167,note_off,109,0,0,,2,,,74,127
4168,note_on,1,0,0,,4,,,76,127
4277,note_off,109,0,0,,4,,,76,127
4278,note_on,1,0,0,,10,,,69,127
4387,note_off,109,0,0,,10,,,69,127
4388,note_on,1,0,0,,1,,,73,127
4497,note_off,109,0,0,,1,,,73,127
4497,note_off,0,0,0,,10,,,45,127
4497,note_off,0,0,0,,10,,,57,127
4498,note_on,1,0,0,,2,,,38,127
4498,note_on,0,0,0,,2,,,50,127
4498,note_on,0,0,0,,2,,,74,127
4607,note_off,109,0,0,,2,,,74,127
4608,note_on,1,0,0,,10,,,81,127
4717,note_off,109,0,0,,10,,,81,127
4718,note_on,1,0,0,,1,,,73,127
4827,note_off,109,0,0,,1,,,73,127
4828,note_on,1,0,0,,4,,,76,127
4937,note_off,109,0,0,,4,,,76,127
4938,note_on,1,0,0,,2,,,74,127
5047,note_off,109,0,0,,2,,,74,127
5048,note_off,1,0,0,,2,,,50,127
5048,note_off,0,0,0,,2,,,38,127
5048,note_on,0,0,0,,6,,,78,127
5157,note_off,109,0,0,,6,,,78,127
5158,note_on,1,0,0,,6,,,42,127
5158,note_on,0,0,0,,6,,,54,127
5158,note_on,0,0,0,,10,,,69,127
5267,note_off,109,0,0,,10,,,69,127
5268,note_on,1,0,0,,1,,,73,127
5377,note_off,109,0,0,,1,,,73,127
5377,note_off,0,0,0,,6,,,54,127
5377,note_off,0,0,0,,6,,,42,127
5378,note_on,1,0,0,,7,,,43,127
5378,note_on,0,0,0,,7,,,55,127
5378,note_on,0,0,0,,12,,,71,127
5487,note_off,109,0,0,,12,,,71,127
5488,note_on,1,0,0,,7,,,79,127
5597,note_off,109,0,0,,7,,,79,127
5598,note_on,1,0,0,,6,,,78,127
5707,note_off,109,0,0,,6,,,78,127
5708,note_on,1,0,0,,4,,,76,127
5817,note_off,109,0,0,,4,,,76,127
5817,note_off,0,0,0,,7,,,55,127
5817,note_off,0,0,0,,7,,,43,127
5818,note_on,1,0,0,,10,,,57,127
5818,note_on,0,0,0,,10,,,45,127
5818,note_on,0,0,0,,2,,,74,127
5927,note_off,109,0,0,,2,,,74,127
5928,note_on,1,0,0,,4,,,76,127
6037,note_off,109,0,0,,4,,,76,127
6038,note_on,1,0,0,,10,,,69,127
6147,note_off,109,0,0,,10,,,69,127
6148,note_on,1,0,0,,1,,,73,127
6257,note_off,109,0,0,,1,,,73,127
6257,note_off,0,0,0,,10,,,45,127
6257,note_off,0,0,0,,10,,,57,127
6258,note_on,1,0,0,,2,,,62,127
6258,note_on,0,0,0,,2,,,74,127
6367,note_off,109,0,0,,2,,,62,127
6368,note_on,1,0,0,,10,,,69,127
6423,note_off,55,0,0,,2,,,74,127
6477,note_off,54,0,0,,10,,,69,127
6478,note_on,1,0,0,,6,,,66,127
6478,note_on,0,0,0,,10,,,81,127
6587,note_off,109,0,0,,6,,,66,127
6588,note_on,1,0,0,,4,,,64,127
6697,note_off,109,0,0,,4,,,64,127
6698,note_on,1,0,0,,2,,,62,127
6807,note_off,109,0,0,,2,,,62,127
6808,note_on,1,0,0,,6,,,66,127
6917,note_off,109,0,0,,6,,,66,127
6917,note_off,0,0,0,,10,,,81,127
6918,note_on,1,0,0,,2,,,62,127
6918,note_on,0,0,0,,6,,,78,127
7027,note_off,109,0,0,,2,,,62,127
7028,note_on,1,0,0,,1,,,61,127
7137,note_off,109,0,0,,1,,,61,127
7138,note_on,1,0,0,,12,,,59,127
7247,note_off,109,0,0,,12,,,59,127
7248,note_on,1,0,0,,2,,,62,127
7357,note_off,109,0,0,,2,,,62,127
7357,note_off,0,0,0,,6,,,78,127
7358,note_on,1,0,0,,12,,,59,127
7358,note_on,0,0,0,,2,,,74,127
7467,note_off,109,0,0,,12,,,59,127
7468,note_on,1,0,0,,10,,,57,127
7577,note_off,109,0,0,,10,,,57,127
7578,note_on,1,0,0,,7,,,55,127
7687,note_off,109,0,0,,7,,,55,127
7688,note_on,1,0,0,,12,,,59,127
7797,note_off,109,0,0,,12,,,59,127
7797,note_off,0,0,0,,2,,,74,127
7798,note_on,1,0,0,,7,,,55,127
7798,note_on,0,0,0,,12,,,71,127
7907,note_off,109,0,0,,7,,,55,127
7908,note_on,1,0,0,,6,,,54,127
8017,note_off,109,0,0,,6,,,54,127
8018,note_on,1,0,0,,4,,,52,127
8127,note_off,109,0,0,,4,,,52,127
8128,note_on,1,0,0,,7,,,55,127
8237,note_off,109,0,0,,7,,,55,127
8237,note_off,0,0,0,,12,,,71,127
8238,note_on,1,0,0,,4,,,52,127
8238,note_on,0,0,0,,7,,,79,127
8347,note_off,109,0,0,,4,,,52,127
8348,note_on,1,0,0,,2,,,50,127
8457,note_off,109,0,0,,2,,,50,127
8458,note_on,1,0,0,,1,,,49,127
8567,note_off,109,0,0,,1,,,49,127
8568,note_on,1,0,0,,4,,,52,127
8677,note_off,109,0,0,,4,,,52,127
8677,note_off,0,0,0,,7,,,79,127
8678,note_on,1,0,0,,1,,,49,127
8678,note_on,0,0,0,,4,,,76,127
8787,note_off,109,0,0,,1,,,49,127
8788,note_on,1,0,0,,12,,,47,127
8897,note_off,109,0,0,,12,,,47,127
8898,note_on,1,0,0,,10,,,45,127
9007,note_off,109,0,0,,4,,,76,127
9008,note_on,1,0,0,,2,,,74,127
9117,note_off,109,0,0,,2,,,74,127
9118,note_on,1,0,0,,1,,,73,127
9227,note_off,109,0,0,,1,,,73,127
9228,note_on,1,0,0,,12,,,71,127
9337,note_off,109,0,0,,12,,,71,127
9338,note_on,1,0,0,,10,,,69,127
9447,note_off,109,0,0,,10,,,69,127
9448,note_off,1,0,0,,10,,,45,127
9448,note_on,0,0,0,,7,,,67,127
9557,note_off,109,0,0,,7,,,67,127
9558,note_on,1,0,0,,10,,,45,127
9558,note_on,0,0,0,,6,,,66,127
9667,note_off,109,0,0,,6,,,66,127
9668,note_on,1,0,0,,4,,,64,127
9777,note_off,109,0,0,,4,,,64,127
9777,note_off,0,0,0,,10,,,45,127
9778,note_on,1,0,0,,2,,,38,127
9778,note_on,0,0,0,,2,,,50,127
9778,note_on,0,0,0,,6,,,66,127
9887,note_off,109,0,0,,6,,,66,127
9888,note_on,1,0,0,,2,,,74,127
9997,note_off,109,0,0,,2,,,74,127
9998,note_on,1,0,0,,12,,,71,127
10107,note_off,109,0,0,,12,,,71,127
10108,note_on,1,0,0,,10,,,69,127
10217,note_off,109,0,0,,10,,,69,127
10217,note_off,0,0,0,,2,,,50,127
10217,note_off,0,0,0,,2,,,38,127
10218,note_on,1,0,0,,4,,,52,127
10218,note_on,0,0,0,,4,,,40,127
10218,note_on,0,0,0,,8,,,68,127
10327,note_off,109,0,0,,8,,,68,127
10328,note_on,1,0,0,,4,,,76,127
10437,note_off,109,0,0,,4,,,76,127
10438,note_on,1,0,0,,1,,,73,127
10547,note_off,109,0,0,,1,,,73,127
10548,note_on,1,0,0,,12,,,71,127
10657,note_off,109,0,0,,12,,,71,127
10657,note_off,0,0,0,,4,,,40,127
10657,note_off,0,0,0,,4,,,52,127
10658,note_on,1,0,0,,6,,,54,127
10658,note_on,0,0,0,,6,,,42,127
10658,note_on,0,0,0,,10,,,69,127
10767,note_off,109,0,0,,10,,,69,127
10768,note_on,1,0,0,,6,,,78,127
10877,note_off,109,0,0,,6,,,78,127
10878,note_on,1,0,0,,2,,,74,127
10987,note_off,109,0,0,,2,,,74,127
10988,note_on,1,0,0,,1,,,73,127
11097,note_off,109,0,0,,1,,,73,127
11097,note_off,0,0,0,,6,,,42,127
11097,note_off,0,0,0,,6,,,54,127
11098,note_on,1,0,0,,8,,,56,127
11098,note_on,0,0,0,,8,,,44,127
11098,note_on,0,0,0,,12,,,71,127
11207,note_off,109,0,0,,12,,,71,127
11208,note_on,1,0,0,,12,,,83,127
11317,note_off,109,0,0,,12,,,83,127
11318,note_on,1,0,0,,4,,,76,127
11427,note_off,109,0,0,,4,,,76,127
11428,note_on,1,0,0,,2,,,74,127
11537,note_off,109,0,0,,2,,,74,127
11537,note_off,0,0,0,,8,,,44,127
11537,note_off,0,0,0,,8,,,56,127
11538,note_on,1,0,0,,10,,,57,127
11538,note_on,0,0,0,,1,,,73,127
11647,note_off,109,0,0,,10,,,57,127
11648,note_on,1,0,0,,4,,,64,127
11703,note_off,55,0,0,,1,,,73,127
11757,note_off,54,0,0,,4,,,64,127
11758,note_on,1,0,0,,1,,,61,127
11758,note_on,0,0,0,,4,,,76,127
11867,note_off,109,0,0,,1,,,61,127
11868,note_on,1,0,0,,12,,,59,127
11977,note_off,109,0,0,,12,,,59,127
11978,note_on,1,0,0,,10,,,57,127
12087,note_off,109,0,0,,10,,,57,127
12088,note_on,1,0,0,,1,,,61,127
12197,note_off,109,0,0,,1,,,61,127
12197,note_off,0,0,0,,4,,,76,127
12198,note_on,1,0,0,,10,,,57,127
12198,note_on,0,0,0,,10,,,81,127
12307,note_off,109,0,0,,10,,,57,127
12308,note_on,1,0,0,,8,,,56,127
12417,note_off,109,0,0,,8,,,56,127
12418,note_on,1,0,0,,6,,,54,127
12527,note_off,109,0,0,,6,,,54,127
12528,note_on,1,0,0,,10,,,57,127
12637,note_off,109,0,0,,10,,,57,127
12637,note_off,0,0,0,,10,,,81,127
12638,note_on,1,0,0,,6,,,54,127
12638,note_on,0,0,0,,6,,,78,127
12747,note_off,109,0,0,,6,,,54,127
12748,note_on,1,0,0,,4,,,52,127
12857,note_off,109,0,0,,4,,,52,127
12858,note_on,1,0,0,,2,,,50,127
12967,note_off,109,0,0,,2,,,50,127
12968,note_on,1,0,0,,6,,,54,127
13077,note_off,109,0,0,,6,,,54,127
13077,note_off,0,0,0,,6,,,78,127
13078,note_on,1,0,0,,2,,,50,127
13078,note_on,0,0,0,,2,,,74,127
13187,note_off,109,0,0,,2,,,50,127
13188,note_on,1,0,0,,1,,,49,127
13297,note_off,109,0,0,,1,,,49,127
13298,note_on,1,0,0,,12,,,47,127
13407,note_off,109,0,0,,2,,,74,127
13408,note_on,1,0,0,,12,,,71,127
13517,note_off,109,0,0,,12,,,71,127
13517,note_off,0,0,0,,12,,,47,127
13518,note_on,1,0,0,,10,,,45,127
13518,note_on,0,0,0,,1,,,73,127
13518,note_on,0,0,0,,10,,,69,127
13627,note_off,109,0,0,,1,,,73,127
13628,note_on,1,0,0,,2,,,74,127
13737,note_off,109,0,0,,2,,,74,127
13737,note_off,0,0,0,,10,,,45,127
13738,note_on,1,0,0,,4,,,52,127
13738,note_on,0,0,0,,1,,,73,127
13953,note_off,215,0,0,,10,,,69,127
13956,note_off,3,0,0,,1,,,73,127
13956,note_off,0,0,0,,4,,,52,127
13957,note_on,1,0,0,,4,,,40,127
13957,note_on,0,0,0,,8,,,68,127
13957,note_on,0,0,0,,12,,,71,127
14175,note_off,218,0,0,,12,,,71,127
14175,note_off,0,0,0,,8,,,68,127
14175,note_off,0,0,0,,4,,,40,127
14176,note_on,1,0,0,,10,,,45,127
14176,note_on,0,0,0,,10,,,69,127
14286,note_on,110,0,0,,4,,,76,127
14395,note_off,109,0,0,,4,,,76,127
14396,note_on,1,0,0,,0,,,72,127
14505,note_off,109,0,0,,0,,,72,127
14506,note_off,1,0,0,,10,,,69,127
14506,note_on,0,0,0,,12,,,71,127
14615,note_off,109,0,0,,12,,,71,127
14616,note_on,1,0,0,,10,,,69,127
14725,note_off,109,0,0,,10,,,69,127
14726,note_on,1,0,0,,4,,,76,127
14835,note_off,109,0,0,,4,,,76,127
14836,note_on,1,0,0,,0,,,72,127
14945,note_off,109,0,0,,0,,,72,127
14946,note_on,1,0,0,,12,,,71,127
14978,note_off,32,0,0,,10,,,45,127
15055,note_off,77,0,0,,12,,,71,127
15056,note_on,1,0,0,,5,,,65,127
15056,note_on,0,0,0,,10,,,57,127
15056,note_on,0,0,0,,10,,,69,127
15166,note_on,110,0,0,,5,,,77,127
15273,note_off,107,0,0,,10,,,69,127
15274,note_off,1,0,0,,5,,,77,127
15275,note_on,1,0,0,,2,,,74,127
15384,note_off,109,0,0,,2,,,74,127
15385,note_on,1,0,0,,0,,,72,127
15494,note_off,109,0,0,,0,,,72,127
15495,note_on,1,0,0,,12,,,71,127
15604,note_off,109,0,0,,12,,,71,127
15605,note_on,1,0,0,,5,,,77,127
15714,note_off,109,0,0,,5,,,77,127
15715,note_on,1,0,0,,2,,,74,127
15824,note_off,109,0,0,,2,,,74,127
15825,note_on,1,0,0,,0,,,72,127
15934,note_off,109,0,0,,0,,,72,127
15934,note_off,0,0,0,,10,,,57,127
15934,note_off,0,0,0,,5,,,65,127
15935,note_on,1,0,0,,8,,,68,127
15935,note_on,0,0,0,,10,,,57,127
15935,note_on,0,0,0,,12,,,71,127
16045,note_on,110,0,0,,12,,,83,127
16152,note_off,107,0,0,,12,,,71,127
16153,note_off,1,0,0,,12,,,83,127
16154,note_on,1,0,0,,5,,,77,127
16263,note_off,109,0,0,,5,,,77,127
16264,note_on,1,0,0,,4,,,76,127
16373,note_off,109,0,0,,4,,,76,127
16374,note_on,1,0,0,,2,,,74,127
16483,note_off,109,0,0,,2,,,74,127
16484,note_on,1,0,0,,12,,,83,127
16593,note_off,109,0,0,,12,,,83,127
16594,note_on,1,0,0,,4,,,76,127
16703,note_off,109,0,0,,4,,,76,127
16704,note_on,1,0,0,,2,,,74,127
16813,note_off,109,0,0,,2,,,74,127
16813,note_off,0,0,0,,10,,,57,127
16813,note_off,0,0,0,,8,,,68,127
16814,note_on,1,0,0,,10,,,45,127
16814,note_on,0,0,0,,0,,,72,127
16923,note_off,109,0,0,,0,,,72,127
16924,note_on,1,0,0,,4,,,76,127
17033,note_off,109,0,0,,4,,,76,127
17034,note_on,1,0,0,,0,,,72,127
17143,note_off,109,0,0,,0,,,72,127
17144,note_on,1,0,0,,12,,,71,127
17253,note_off,109,0,0,,12,,,71,127
17254,note_on,1,0,0,,10,,,69,127
17364,note_on,110,0,0,,4,,,76,127
17471,note_off,107,0,0,,10,,,69,127
17472,note_off,1,0,0,,4,,,76,127
17473,note_on,1,0,0,,0,,,72,127
17582,note_off,109,0,0,,0,,,72,127
17583,note_on,1,0,0,,12,,,71,127
17692,note_off,109,0,0,,12,,,71,127
17692,note_off,0,0,0,,10,,,45,127
17693,note_on,1,0,0,,5,,,65,127
17693,note_on,0,0,0,,10,,,57,127
17693,note_on,0,0,0,,10,,,69,127
17803,note_on,110,0,0,,5,,,77,127
17910,note_off,107,0,0,,10,,,69,127
17911,note_off,1,0,0,,5,,,77,127
17912,note_on,1,0,0,,2,,,74,127
18021,note_off,109,0,0,,2,,,74,127
18022,note_on,1,0,0,,0,,,72,127
18131,note_off,109,0,0,,0,,,72,127
18132,note_on,1,0,0,,12,,,71,127
18241,note_off,109,0,0,,12,,,71,127
18242,note_on,1,0,0,,5,,,77,127
18351,note_off,109,0,0,,5,,,77,127
18352,note_on,1,0,0,,2,,,74,127
18461,note_off,109,0,0,,2,,,74,127
18462,note_on,1,0,0,,0,,,72,127
18571,note_off,109,0,0,,0,,,72,127
18571,note_off,0,0,0,,10,,,57,127
18571,note_off,0,0,0,,5,,,65,127
18572,note_on,1,0,0,,8,,,68,127
18572,note_on,0,0,0,,10,,,57,127
18572,note_on,0,0,0,,12,,,71,127
18682,note_on,110,0,0,,12,,,83,127
18789,note_off,107,0,0,,12,,,71,127
18790,note_off,1,0,0,,12,,,83,127
18791,note_on,1,0,0,,5,,,77,127
18900,note_off,109,0,0,,5,,,77,127
18901,note_on,1,0,0,,4,,,76,127
19010,note_off,109,0,0,,4,,,76,127
19011,note_on,1,0,0,,2,,,74,127
19120,note_off,109,0,0,,2,,,74,127
19121,note_on,1,0,0,,12,,,83,127
19230,note_off,109,0,0,,12,,,83,127
19231,note_on,1,0,0,,4,,,76,127
19340,note_off,109,0,0,,4,,,76,127
19341,note_on,1,0,0,,2,,,74,127
19450,note_off,109,0,0,,2,,,74,127
19450,note_off,0,0,0,,10,,,57,127
19450,note_off,0,0,0,,8,,,68,127
19451,note_on,1,0,0,,10,,,69,127
19451,note_on,0,0,0,,10,,,57,127
19451,note_on,0,0,0,,0,,,72,127
19560,note_off,109,0,0,,0,,,72,127
19561,note_on,1,0,0,,4,,,76,127
19670,note_off,109,0,0,,4,,,76,127
19671,note_on,1,0,0,,0,,,72,127
19780,note_off,109,0,0,,0,,,72,127
19781,note_on,1,0,0,,12,,,71,127
19886,note_off,105,0,0,,10,,,69,127
19889,note_off,3,0,0,,12,,,71,127
19890,note_on,1,0,0,,10,,,69,127
19981,note_off,91,0,0,,10,,,69,127
19999,note_on,18,0,0,,5,,,77,127
20108,note_off,109,0,0,,5,,,77,127
20109,note_on,1,0,0,,2,,,74,127
20218,note_off,109,0,0,,2,,,74,127
20219,note_on,1,0,0,,0,,,72,127
20328,note_off,109,0,0,,0,,,72,127
20328,note_off,0,0,0,,10,,,57,127
20329,note_on,1,0,0,,5,,,65,127
20329,note_on,0,0,0,,7,,,55,127
20329,note_on,0,0,0,,12,,,71,127
20439,note_on,110,0,0,,5,,,77,127
20546,note_off,107,0,0,,12,,,71,127
20547,note_off,1,0,0,,5,,,77,127
20548,note_on,1,0,0,,2,,,74,127
20657,note_off,109,0,0,,2,,,74,127
20658,note_on,1,0,0,,0,,,72,127
20767,note_off,109,0,0,,0,,,72,127
20768,note_on,1,0,0,,12,,,71,127
20878,note_on,110,0,0,,5,,,77,127
20985,note_off,107,0,0,,12,,,71,127
20986,note_off,1,0,0,,5,,,77,127
20987,note_on,1,0,0,,2,,,74,127
21096,note_off,109,0,0,,2,,,74,127
21097,note_on,1,0,0,,0,,,72,127
21206,note_off,109,0,0,,0,,,72,127
21206,note_off,0,0,0,,7,,,55,127
21206,note_off,0,0,0,,5,,,65,127
21207,note_on,1,0,0,,7,,,55,127
21207,note_on,0,0,0,,5,,,65,127
21207,note_on,0,0,0,,12,,,71,127
21316,note_off,109,0,0,,12,,,71,127
21317,note_on,1,0,0,,5,,,77,127
21426,note_off,109,0,0,,5,,,77,127
21427,note_on,1,0,0,,2,,,74,127
21536,note_off,109,0,0,,2,,,74,127
21537,note_on,1,0,0,,0,,,72,127
21646,note_off,109,0,0,,0,,,72,127
21647,note_on,1,0,0,,12,,,71,127
21738,note_off,91,0,0,,12,,,71,127
21756,note_on,18,0,0,,7,,,79,127
21865,note_off,109,0,0,,7,,,79,127
21866,note_on,1,0,0,,6,,,78,127
21975,note_off,109,0,0,,6,,,78,127
21976,note_on,1,0,0,,4,,,76,127
22085,note_off,109,0,0,,4,,,76,127
22085,note_off,0,0,0,,5,,,65,127
22085,note_off,0,0,0,,7,,,55,127
22086,note_on,1,0,0,,10,,,57,127
22086,note_on,0,0,0,,6,,,54,127
22086,note_on,0,0,0,,3,,,75,127
22196,note_on,110,0,0,,10,,,81,127
22303,note_off,107,0,0,,3,,,75,127
22304,note_off,1,0,0,,10,,,81,127
22305,note_on,1,0,0,,6,,,78,127
22414,note_off,109,0,0,,6,,,78,127
22415,note_on,1,0,0,,4,,,76,127
22524,note_off,109,0,0,,4,,,76,127
22525,note_on,1,0,0,,3,,,75,127
22635,note_on,110,0,0,,10,,,81,127
22742,note_off,107,0,0,,3,,,75,127
22743,note_off,1,0,0,,10,,,81,127
22744,note_on,1,0,0,,6,,,78,127
22853,note_off,109,0,0,,6,,,78,127
22854,note_on,1,0,0,,4,,,76,127
22963,note_off,109,0,0,,4,,,76,127
22963,note_off,0,0,0,,6,,,54,127
22963,note_off,0,0,0,,10,,,57,127
22964,note_on,1,0,0,,6,,,54,127
22964,note_on,0,0,0,,10,,,57,127
22964,note_on,0,0,0,,3,,,75,127
23074,note_on,110,0,0,,10,,,81,127
23181,note_off,107,0,0,,3,,,75,127
23182,note_off,1,0,0,,10,,,81,127
23183,note_on,1,0,0,,6,,,78,127
23292,note_off,109,0,0,,6,,,78,127
23293,note_on,1,0,0,,4,,,76,127
23402,note_off,109,0,0,,4,,,76,127
23403,note_on,1,0,0,,3,,,75,127
23513,note_on,110,0,0,,10,,,81,127
23620,note_off,107,0,0,,3,,,75,127
23621,note_off,1,0,0,,10,,,81,127
23622,note_on,1,0,0,,5,,,77,127
23731,note_off,109,0,0,,5,,,77,127
23732,note_on,1,0,0,,4,,,76,127
23841,note_off,109,0,0,,4,,,76,127
23841,note_off,0,0,0,,10,,,57,127
23841,note_off,0,0,0,,6,,,54,127
23842,note_on,1,0,0,,5,,,53,127
23842,note_on,0,0,0,,2,,,62,127
23842,note_on,0,0,0,,10,,,57,127
23842,note_on,0,0,0,,2,,,74,127
23952,note_on,110,0,0,,10,,,81,127
24059,note_off,107,0,0,,2,,,74,127
24060,note_off,1,0,0,,10,,,81,127
24061,note_on,1,0,0,,5,,,77,127
24170,note_off,109,0,0,,5,,,77,127
24171,note_on,1,0,0,,4,,,76,127
24280,note_off,109,0,0,,4,,,76,127
24281,note_on,1,0,0,,2,,,74,127
24391,note_on,110,0,0,,10,,,81,127
24498,note_off,107,0,0,,2,,,74,127
24499,note_off,1,0,0,,10,,,81,127
24500,note_on,1,0,0,,5,,,77,127
24609,note_off,109,0,0,,5,,,77,127
24610,note_on,1,0,0,,4,,,76,127
24719,note_off,109,0,0,,4,,,76,127
24719,note_off,0,0,0,,10,,,57,127
24719,note_off,0,0,0,,2,,,62,127
24719,note_off,0,0,0,,5,,,53,127
24720,note_on,1,0,0,,5,,,53,127
24720,note_on,0,0,0,,10,,,57,127
24720,note_on,0,0,0,,2,,,62,127
24720,note_on,0,0,0,,2,,,74,127
24830,note_on,110,0,0,,10,,,81,127
24937,note_off,107,0,0,,2,,,74,127
24938,note_off,1,0,0,,10,,,81,127
24939,note_on,1,0,0,,5,,,77,127
25048,note_off,109,0,0,,5,,,77,127
25049,note_on,1,0,0,,4,,,76,127
25158,note_off,109,0,0,,4,,,76,127
25159,note_on,1,0,0,,2,,,74,127
25250,note_off,91,0,0,,2,,,74,127
25268,note_on,18,0,0,,0,,,84,127
25377,note_off,109,0,0,,0,,,84,127
25378,note_on,1,0,0,,12,,,83,127
25487,note_off,109,0,0,,12,,,83,127
25488,note_on,1,0,0,,10,,,81,127
25597,note_off,109,0,0,,10,,,81,127
25597,note_off,0,0,0,,2,,,62,127
25597,note_off,0,0,0,,10,,,57,127
25597,note_off,0,0,0,,5,,,53,127
25598,note_on,1,0,0,,4,,,52,127
25598,note_on,0,0,0,,8,,,80,127
25707,note_off,109,0,0,,8,,,80,127
25708,note_on,1,0,0,,12,,,83,127
25817,note_off,109,0,0,,12,,,83,127
25818,note_on,1,0,0,,4,,,76,127
25927,note_off,109,0,0,,4,,,76,127
25928,note_on,1,0,0,,2,,,74,127
26037,note_off,109,0,0,,2,,,74,127
26037,note_off,0,0,0,,4,,,52,127
26038,note_on,1,0,0,,10,,,57,127
26038,note_on,0,0,0,,0,,,72,127
26147,note_off,109,0,0,,0,,,72,127
26148,note_on,1,0,0,,4,,,76,127
26257,note_off,109,0,0,,4,,,76,127
26258,note_on,1,0,0,,2,,,74,127
26367,note_off,109,0,0,,2,,,74,127
26368,note_on,1,0,0,,0,,,72,127
26477,note_off,109,0,0,,0,,,72,127
26477,note_off,0,0,0,,10,,,57,127
26478,note_on,1,0,0,,2,,,50,127
26478,note_on,0,0,0,,12,,,71,127
26587,note_off,109,0,0,,12,,,71,127
26588,note_on,1,0,0,,2,,,74,127
26697,note_off,109,0,0,,2,,,74,127
26698,note_on,1,0,0,,0,,,72,127
26807,note_off,109,0,0,,0,,,72,127
26808,note_on,1,0,0,,12,,,71,127
26917,note_off,109,0,0,,12,,,71,127
26917,note_off,0,0,0,,2,,,50,127
26918,note_on,1,0,0,,3,,,51,127
26918,note_on,0,0,0,,10,,,69,127
27027,note_off,109,0,0,,10,,,69,127
27028,note_on,1,0,0,,0,,,72,127
27137,note_off,109,0,0,,0,,,72,127
27138,note_on,1,0,0,,12,,,71,127
27247,note_off,109,0,0,,12,,,71,127
27248,note_on,1,0,0,,10,,,69,127
27357,note_off,109,0,0,,10,,,69,127
27357,note_off,0,0,0,,3,,,51,127
27358,note_on,1,0,0,,4,,,52,127
27358,note_on,0,0,0,,8,,,68,127
27467,note_off,109,0,0,,4,,,52,127
27468,note_on,1,0,0,,4,,,64,127
27523,note_off,55,0,0,,8,,,68,127
27577,note_off,54,0,0,,4,,,64,127
27578,note_on,1,0,0,,1,,,61,127
27578,note_on,0,0,0,,4,,,76,127
27687,note_off,109,0,0,,1,,,61,127
27688,note_on,1,0,0,,12,,,59,127
27797,note_off,109,0,0,,12,,,59,127
27798,note_on,1,0,0,,10,,,57,127
27907,note_off,109,0,0,,10,,,57,127
27908,note_on,1,0,0,,1,,,61,127
28017,note_off,109,0,0,,1,,,61,127
28017,note_off,0,0,0,,4,,,76,127
28018,note_on,1,0,0,,10,,,57,127
28018,note_on,0,0,0,,1,,,73,127
28127,note_off,109,0,0,,10,,,57,127
28128,note_on,1,0,0,,8,,,56,127
28237,note_off,109,0,0,,8,,,56,127
28238,note_on,1,0,0,,6,,,54,127
28347,note_off,109,0,0,,6,,,54,127
28348,note_on,1,0,0,,10,,,57,127
28457,note_off,109,0,0,,10,,,57,127
28457,note_off,0,0,0,,1,,,73,127
28458,note_on,1,0,0,,6,,,54,127
28458,note_on,0,0,0,,10,,,81,127
28567,note_off,109,0,0,,6,,,54,127
28568,note_on,1,0,0,,4,,,52,127
28677,note_off,109,0,0,,4,,,52,127
28678,note_on,1,0,0,,2,,,50,127
28787,note_off,109,0,0,,2,,,50,127
28788,note_on,1,0,0,,6,,,54,127
28897,note_off,109,0,0,,6,,,54,127
28897,note_off,0,0,0,,10,,,81,127
28898,note_on,1,0,0,,2,,,50,127
28898,note_on,0,0,0,,6,,,78,127
29007,note_off,109,0,0,,2,,,50,127
29008,note_on,1,0,0,,1,,,49,127
29117,note_off,109,0,0,,1,,,49,127
29118,note_on,1,0,0,,12,,,47,127
29227,note_off,109,0,0,,12,,,47,127
29228,note_on,1,0,0,,2,,,50,127
29337,note_off,109,0,0,,2,,,50,127
29337,note_off,0,0,0,,6,,,78,127
29338,note_on,1,0,0,,12,,,47,127
29338,note_on,0,0,0,,2,,,86,127
29447,note_off,109,0,0,,12,,,47,127
29448,note_on,1,0,0,,10,,,45,127
29557,note_off,109,0,0,,10,,,45,127
29558,note_on,1,0,0,,8,,,44,127
29667,note_off,109,0,0,,8,,,44,127
29668,note_on,1,0,0,,12,,,47,127
29777,note_off,109,0,0,,12,,,47,127
29777,note_off,0,0,0,,2,,,86,127
29778,note_on,1,0,0,,8,,,44,127
29778,note_on,0,0,0,,12,,,83,127
29887,note_off,109,0,0,,8,,,44,127
29888,note_on,1,0,0,,6,,,42,127
29997,note_off,109,0,0,,6,,,42,127
29998,note_on,1,0,0,,4,,,40,127
30107,note_off,109,0,0,,4,,,40,127
30108,note_on,1,0,0,,8,,,44,127
30217,note_off,109,0,0,,8,,,44,127
30217,note_off,0,0,0,,12,,,83,127
30218,note_on,1,0,0,,4,,,40,127
30218,note_on,0,0,0,,8,,,80,127
30327,note_off,109,0,0,,4,,,40,127
30328,note_on,1,0,0,,2,,,38,127
30437,note_off,109,0,0,,2,,,38,127
30438,note_on,1,0,0,,1,,,37,127
30547,note_off,109,0,0,,1,,,37,127
30548,note_on,1,0,0,,4,,,40,127
30607,note_off,59,0,0,,8,,,80,127
30656,note_off,49,0,0,,4,,,40,127
30657,note_on,1,0,0,,1,,,37,127
30657,note_on,0,0,0,,10,,,81,127
30766,note_off,109,0,0,,10,,,81,127
30766,note_off,0,0,0,,1,,,37,127
30767,note_on,1,0,0,,12,,,35,127
30767,note_on,0,0,0,,8,,,80,127
30876,note_off,109,0,0,,8,,,80,127
30876,note_off,0,0,0,,12,,,35,127
30877,note_on,1,0,0,,10,,,33,127
30877,note_on,0,0,0,,10,,,81,127
30986,note_off,109,0,0,,10,,,81,127
30987,note_on,1,0,0,,4,,,76,127
31096,note_off,109,0,0,,4,,,76,127
31096,note_off,0,0,0,,10,,,33,127
31097,note_on,1,0,0,,2,,,38,127
31097,note_on,0,0,0,,6,,,78,127
31206,note_off,109,0,0,,6,,,78,127
31207,note_on,1,0,0,,2,,,74,127
31316,note_off,109,0,0,,2,,,74,127
31316,note_off,0,0,0,,2,,,38,127
31317,note_on,1,0,0,,4,,,40,127
31317,note_on,0,0,0,,1,,,73,127
31426,note_off,109,0,0,,1,,,73,127
31427,note_on,1,0,0,,12,,,71,127
31536,note_off,109,0,0,,12,,,71,127
31536,note_off,0,0,0,,4,,,40,127
31537,note_on,1,0,0,,4,,,40,127
31537,note_on,0,0,0,,10,,,69,127
31646,note_off,109,0,0,,10,,,69,127
31647,note_on,1,0,0,,8,,,68,127
31756,note_off,109,0,0,,8,,,68,127
31756,note_off,0,0,0,,4,,,40,127
31757,note_on,1,0,0,,10,,,57,127
31757,note_on,0,0,0,,10,,,69,127
31866,note_off,109,0,0,,10,,,57,127
31867,note_on,1,0,0,,4,,,64,127
31922,note_off,55,0,0,,10,,,69,127
31976,note_off,54,0,0,,4,,,64,127
31977,note_on,1,0,0,,1,,,61,127
31977,note_on,0,0,0,,4,,,76,127
32086,note_off,109,0,0,,1,,,61,127
32087,note_on,1,0,0,,12,,,59,127
32196,note_off,109,0,0,,12,,,59,127
32197,note_on,1,0,0,,10,,,57,127
32306,note_off,109,0,0,,10,,,57,127
32307,note_on,1,0,0,,1,,,61,127
32416,note_off,109,0,0,,1,,,61,127
32416,note_off,0,0,0,,4,,,76,127
32417,note_on,1,0,0,,10,,,57,127
32417,note_on,0,0,0,,1,,,73,127
32526,note_off,109,0,0,,10,,,57,127
32527,note_on,1,0,0,,8,,,56,127
32636,note_off,109,0,0,,8,,,56,127
32637,note_on,1,0,0,,6,,,54,127
32746,note_off,109,0,0,,6,,,54,127
32747,note_on,1,0,0,,10,,,57,127
32856,note_off,109,0,0,,10,,,57,127
32856,note_off,0,0,0,,1,,,73,127
32857,note_on,1,0,0,,6,,,54,127
32857,note_on,0,0,0,,10,,,81,127
32966,note_off,109,0,0,,6,,,54,127
32967,note_on,1,0,0,,4,,,52,127
33076,note_off,109,0,0,,4,,,52,127
33077,note_on,1,0,0,,2,,,50,127
33186,note_off,109,0,0,,2,,,50,127
33187,note_on,1,0,0,,6,,,54,127
33296,note_off,109,0,0,,6,,,54,127
33296,note_off,0,0,0,,10,,,81,127
33297,note_on,1,0,0,,2,,,50,127
33297,note_on,0,0,0,,6,,,78,127
33406,note_off,109,0,0,,2,,,50,127
33407,note_on,1,0,0,,1,,,49,127
33516,note_off,109,0,0,,1,,,49,127
33517,note_on,1,0,0,,12,,,47,127
33626,note_off,109,0,0,,12,,,47,127
33627,note_on,1,0,0,,2,,,50,127
33736,note_off,109,0,0,,2,,,50,127
33736,note_off,0,0,0,,6,,,78,127
33737,note_on,1,0,0,,12,,,47,127
33737,note_on,0,0,0,,2,,,86,127
33846,note_off,109,0,0,,12,,,47,127
33847,note_on,1,0,0,,10,,,45,127
33956,note_off,109,0,0,,10,,,45,127
33957,note_on,1,0,0,,8,,,44,127
34066,note_off,109,0,0,,8,,,44,127
34067,note_on,1,0,0,,12,,,47,127
34176,note_off,109,0,0,,12,,,47,127
34176,note_off,0,0,0,,2,,,86,127
34177,note_on,1,0,0,,8,,,44,127
34177,note_on,0,0,0,,12,,,83,127
34286,note_off,109,0,0,,8,,,44,127
34287,note_on,1,0,0,,6,,,42,127
34396,note_off,109,0,0,,6,,,42,127
34397,note_on,1,0,0,,4,,,40,127
34506,note_off,109,0,0,,4,,,40,127
34507,note_on,1,0,0,,8,,,44,127
34616,note_off,109,0,0,,8,,,44,127
34616,note_off,0,0,0,,12,,,83,127
34617,note_on,1,0,0,,4,,,40,127
34617,note_on,0,0,0,,8,,,80,127
34726,note_off,109,0,0,,4,,,40,127
34727,note_on,1,0,0,,2,,,38,127
34836,note_off,109,0,0,,2,,,38,127
34837,note_on,1,0,0,,1,,,37,127
34946,note_off,109,0,0,,1,,,37,127
34947,note_on,1,0,0,,4,,,40,127
35006,note_off,59,0,0,,8,,,80,127
35055,note_off,49,0,0,,4,,,40,127
35056,note_on,1,0,0,,1,,,37,127
35056,note_on,0,0,0,,10,,,81,127
35165,note_off,109,0,0,,10,,,81,127
35165,note_off,0,0,0,,1,,,37,127
35166,note_on,1,0,0,,12,,,35,127
35166,note_on,0,0,0,,8,,,80,127
35275,note_off,109,0,0,,8,,,80,127
35275,note_off,0,0,0,,12,,,35,127
35276,note_on,1,0,0,,10,,,33,127
35276,note_on,0,0,0,,10,,,81,127
35385,note_off,109,0,0,,10,,,81,127
35386,note_on,1,0,0,,4,,,76,127
35495,note_off,109,0,0,,4,,,76,127
35495,note_off,0,0,0,,10,,,33,127
35496,note_on,1,0,0,,2,,,38,127
35496,note_on,0,0,0,,6,,,78,127
35605,note_off,109,0,0,,6,,,78,127
35606,note_on,1,0,0,,2,,,74,127
35715,note_off,109,0,0,,2,,,74,127
35715,note_off,0,0,0,,2,,,38,127
35716,note_on,1,0,0,,4,,,40,127
35716,note_on,0,0,0,,1,,,73,127
35825,note_off,109,0,0,,1,,,73,127
35826,note_on,1,0,0,,12,,,71,127
35935,note_off,109,0,0,,12,,,71,127
35935,note_off,0,0,0,,4,,,40,127
35936,note_on,1,0,0,,4,,,40,127
35936,note_on,0,0,0,,10,,,69,127
36045,note_off,109,0,0,,10,,,69,127
36046,note_on,1,0,0,,8,,,68,127
36155,note_off,109,0,0,,8,,,68,127
36155,note_off,0,0,0,,4,,,40,127
36156,note_on,1,0,0,,10,,,33,127
36156,note_on,0,0,0,,10,,,69,127
36266,note_on,110,0,0,,4,,,76,127
36373,note_off,107,0,0,,10,,,69,127
36374,note_off,1,0,0,,4,,,76,127
36375,note_on,1,0,0,,1,,,73,127
36484,note_off,109,0,0,,1,,,73,127
36485,note_on,1,0,0,,12,,,71,127
36594,note_off,109,0,0,,12,,,71,127
36595,note_on,1,0,0,,10,,,69,127
36705,note_off,110,0,0,,10,,,33,127
36705,note_on,0,0,0,,4,,,76,127
36812,note_off,107,0,0,,10,,,69,127
36813,note_off,1,0,0,,4,,,76,127
36814,note_on,1,0,0,,1,,,49,127
36814,note_on,0,0,0,,1,,,37,127
36814,note_on,0,0,0,,10,,,69,127
36923,note_off,109,0,0,,10,,,69,127
36924,note_on,1,0,0,,8,,,68,127
37033,note_off,109,0,0,,8,,,68,127
37033,note_off,0,0,0,,1,,,37,127
37033,note_off,0,0,0,,1,,,49,127
37034,note_on,1,0,0,,2,,,50,127
37034,note_on,0,0,0,,2,,,38,127
37034,note_on,0,0,0,,6,,,66,127
37144,note_on,110,0,0,,2,,,74,127
37251,note_off,107,0,0,,6,,,66,127
37252,note_off,1,0,0,,2,,,74,127
37253,note_on,1,0,0,,1,,,73,127
37362,note_off,109,0,0,,1,,,73,127
37363,note_on,1,0,0,,12,,,71,127
37472,note_off,109,0,0,,12,,,71,127
37472,note_off,0,0,0,,2,,,38,127
37472,note_off,0,0,0,,2,,,50,127
37473,note_on,1,0,0,,4,,,40,127
37473,note_on,0,0,0,,4,,,52,127
37473,note_on,0,0,0,,10,,,69,127
37582,note_off,109,0,0,,10,,,69,127
37583,note_on,1,0,0,,12,,,71,127
37692,note_off,109,0,0,,12,,,71,127
37693,note_on,1,0,0,,4,,,64,127
37802,note_off,109,0,0,,4,,,64,127
37803,note_on,1,0,0,,8,,,68,127
37912,note_off,109,0,0,,8,,,68,127
37912,note_off,0,0,0,,4,,,52,127
37912,note_off,0,0,0,,4,,,40,127
37913,note_on,1,0,0,,10,,,33,127
37913,note_on,0,0,0,,10,,,69,127
38023,note_on,110,0,0,,4,,,76,127
38130,note_off,107,0,0,,10,,,69,127
38131,note_off,1,0,0,,4,,,76,127
38132,note_on,1,0,0,,1,,,73,127
38241,note_off,109,0,0,,1,,,73,127
38242,note_on,1,0,0,,12,,,71,127
38351,note_off,109,0,0,,12,,,71,127
38352,note_on,1,0,0,,10,,,69,127
38462,note_off,110,0,0,,10,,,33,127
38462,note_on,0,0,0,,4,,,76,127
38569,note_off,107,0,0,,10,,,69,127
38570,note_off,1,0,0,,4,,,76,127
38571,note_on,1,0,0,,1,,,37,127
38571,note_on,0,0,0,,1,,,49,127
38571,note_on,0,0,0,,10,,,69,127
38680,note_off,109,0,0,,10,,,69,127
38681,note_on,1,0,0,,8,,,68,127
38790,note_off,109,0,0,,8,,,68,127
38790,note_off,0,0,0,,1,,,49,127
38790,note_off,0,0,0,,1,,,37,127
38791,note_on,1,0,0,,2,,,38,127
38791,note_on,0,0,0,,2,,,50,127
38791,note_on,0,0,0,,6,,,66,127
38901,note_on,110,0,0,,2,,,74,127
39008,note_off,107,0,0,,6,,,66,127
39009,note_off,1,0,0,,2,,,74,127
39010,note_on,1,0,0,,1,,,73,127
39119,note_off,109,0,0,,1,,,73,127
39120,note_on,1,0,0,,12,,,71,127
39229,note_off,109,0,0,,12,,,71,127
39229,note_off,0,0,0,,2,,,50,127
39229,note_off,0,0,0,,2,,,38,127
39230,note_on,1,0,0,,4,,,40,127
39230,note_on,0,0,0,,4,,,52,127
39230,note_on,0,0,0,,10,,,69,127
39339,note_off,109,0,0,,10,,,69,127
39340,note_on,1,0,0,,12,,,71,127
39449,note_off,109,0,0,,12,,,71,127
39450,note_on,1,0,0,,4,,,64,127
39559,note_off,109,0,0,,4,,,64,127
39560,note_on,1,0,0,,8,,,68,127
39669,note_off,109,0,0,,8,,,68,127
39669,note_off,0,0,0,,4,,,52,127
39669,note_off,0,0,0,,4,,,40,127
39670,note_on,1,0,0,,10,,,45,127
39670,note_on,0,0,0,,10,,,33,127
39670,note_on,0,0,0,,10,,,69,127
40327,note_off,657,0,0,,10,,,69,127
40546,note_off,219,0,0,,10,,,33,127
40546,note_off,0,0,0,,10,,,45,127
40547,note_on,1,0,0,,10,,,57,127
40547,note_on,0,0,0,,4,,,64,127
40657,note_on,110,0,0,,4,,,76,127
40766,note_off,109,0,0,,4,,,76,127
40767,note_on,1,0,0,,1,,,73,127
40876,note_off,109,0,0,,1,,,73,127
40877,note_on,1,0,0,,12,,,71,127
40986,note_off,109,0,0,,12,,,71,127
40987,note_on,1,0,0,,10,,,69,127
41096,note_off,109,0,0,,10,,,69,127
41097,note_on,1,0,0,,4,,,76,127
41206,note_off,109,0,0,,4,,,76,127
41207,note_on,1,0,0,,1,,,73,127
41316,note_off,109,0,0,,1,,,73,127
41317,note_on,1,0,0,,12,,,71,127
41426,note_off,109,0,0,,12,,,71,127
41426,note_off,0,0,0,,4,,,64,127
41426,note_off,0,0,0,,10,,,57,127
41427,note_on,1,0,0,,10,,,57,127
41427,note_on,0,0,0,,4,,,64,127
41427,note_on,0,0,0,,10,,,69,127
41536,note_off,109,0,0,,10,,,69,127
41537,note_on,1,0,0,,4,,,76,127
41646,note_off,109,0,0,,4,,,76,127
41647,note_on,1,0,0,,1,,,73,127
41756,note_off,109,0,0,,1,,,73,127
41757,note_on,1,0,0,,12,,,71,127
41866,note_off,109,0,0,,12,,,71,127
41867,note_on,1,0,0,,10,,,69,127
41976,note_off,109,0,0,,10,,,69,127
41977,note_on,1,0,0,,4,,,76,127
42086,note_off,109,0,0,,4,,,76,127
42087,note_on,1,0,0,,1,,,73,127
42196,note_off,109,0,0,,1,,,73,127
42197,note_on,1,0,0,,12,,,71,127
42306,note_off,109,0,0,,12,,,71,127
42306,note_off,0,0,0,,4,,,64,127
42306,note_off,0,0,0,,10,,,57,127
42307,note_on,1,0,0,,7,,,55,127
42307,note_on,0,0,0,,4,,,64,127
42307,note_on,0,0,0,,11,,,70,127
42416,note_off,109,0,0,,11,,,70,127
42417,note_on,1,0,0,,4,,,76,127
42526,note_off,109,0,0,,4,,,76,127
42527,note_on,1,0,0,,1,,,73,127
42636,note_off,109,0,0,,1,,,73,127
42637,note_on,1,0,0,,12,,,71,127
42746,note_off,109,0,0,,12,,,71,127
42747,note_on,1,0,0,,11,,,70,127
42856,note_off,109,0,0,,11,,,70,127
42857,note_on,1,0,0,,4,,,76,127
42966,note_off,109,0,0,,4,,,76,127
42967,note_on,1,0,0,,1,,,73,127
43076,note_off,109,0,0,,1,,,73,127
43077,note_on,1,0,0,,12,,,71,127
43186,note_off,109,0,0,,12,,,71,127
43186,note_off,0,0,0,,4,,,64,127
43186,note_off,0,0,0,,7,,,55,127
43187,note_on,1,0,0,,4,,,64,127
43187,note_on,0,0,0,,7,,,55,127
43187,note_on,0,0,0,,11,,,70,127
43296,note_off,109,0,0,,11,,,70,127
43297,note_on,1,0,0,,4,,,76,127
43406,note_off,109,0,0,,4,,,76,127
43407,note_on,1,0,0,,1,,,73,127
43516,note_off,109,0,0,,1,,,73,127
43517,note_on,1,0,0,,12,,,71,127
43626,note_off,109,0,0,,12,,,71,127
43627,note_on,1,0,0,,11,,,70,127
43736,note_off,109,0,0,,11,,,70,127
43737,note_on,1,0,0,,4,,,76,127
43846,note_off,109,0,0,,4,,,76,127
43847,note_on,1,0,0,,1,,,73,127
43956,note_off,109,0,0,,1,,,73,127
43957,note_on,1,0,0,,12,,,71,127
44066,note_off,109,0,0,,12,,,71,127
44066,note_off,0,0,0,,7,,,55,127
44066,note_off,0,0,0,,4,,,64,127
44067,note_on,1,0,0,,6,,,54,127
44067,note_on,0,0,0,,1,,,61,127
44067,note_on,0,0,0,,4,,,64,127
44067,note_on,0,0,0,,11,,,70,127
44176,note_off,109,0,0,,11,,,70,127
44177,note_on,1,0,0,,4,,,76,127
44286,note_off,109,0,0,,4,,,76,127
44287,note_on,1,0,0,,1,,,73,127
44396,note_off,109,0,0,,1,,,73,127
44397,note_on,1,0,0,,12,,,71,127
44506,note_off,109,0,0,,12,,,71,127
44507,note_on,1,0,0,,11,,,70,127
44616,note_off,109,0,0,,11,,,70,127
44617,note_on,1,0,0,,4,,,76,127
44726,note_off,109,0,0,,4,,,76,127
44727,note_on,1,0,0,,1,,,73,127
44836,note_off,109,0,0,,1,,,73,127
44837,note_on,1,0,0,,12,,,71,127
44946,note_off,109,0,0,,12,,,71,127
44946,note_off,0,0,0,,4,,,64,127
44946,note_off,0,0,0,,1,,,61,127
44946,note_off,0,0,0,,6,,,54,127
44947,note_on,1,0,0,,6,,,54,127
44947,note_on,0,0,0,,1,,,61,127
44947,note_on,0,0,0,,4,,,64,127
44947,note_on,0,0,0,,11,,,70,127
45056,note_off,109,0,0,,11,,,70,127
45057,note_on,1,0,0,,4,,,76,127
45166,note_off,109,0,0,,4,,,76,127
45167,note_on,1,0,0,,1,,,73,127
45276,note_off,109,0,0,,1,,,73,127
45277,note_on,1,0,0,,12,,,71,127
45386,note_off,109,0,0,,12,,,71,127
45387,note_on,1,0,0,,11,,,70,127
45496,note_off,109,0,0,,11,,,70,127
45497,note_on,1,0,0,,4,,,76,127
45606,note_off,109,0,0,,4,,,76,127
45607,note_on,1,0,0,,3,,,75,127
45716,note_off,109,0,0,,3,,,75,127
45717,note_on,1,0,0,,1,,,73,127
45826,note_off,109,0,0,,1,,,73,127
45826,note_off,0,0,0,,4,,,64,127
45826,note_off,0,0,0,,1,,,61,127
45826,note_off,0,0,0,,6,,,54,127
45827,note_on,1,0,0,,6,,,54,127
45827,note_on,0,0,0,,3,,,63,127
45827,note_on,0,0,0,,10,,,57,127
45827,note_on,0,0,0,,0,,,60,127
45827,note_on,0,0,0,,0,,,72,127
45936,note_off,109,0,0,,0,,,72,127
45937,note_on,1,0,0,,6,,,78,127
46046,note_off,109,0,0,,6,,,78,127
46047,note_on,1,0,0,,3,,,75,127
46156,note_off,109,0,0,,3,,,75,127
46157,note_on,1,0,0,,1,,,73,127
46266,note_off,109,0,0,,1,,,73,127
46267,note_on,1,0,0,,0,,,72,127
46376,note_off,109,0,0,,0,,,72,127
46377,note_on,1,0,0,,6,,,78,127
46486,note_off,109,0,0,,6,,,78,127
46487,note_on,1,0,0,,3,,,75,127
46596,note_off,109,0,0,,3,,,75,127
46597,note_on,1,0,0,,1,,,73,127
46706,note_off,109,0,0,,1,,,73,127
46706,note_off,0,0,0,,0,,,60,127
46706,note_off,0,0,0,,10,,,57,127
46706,note_off,0,0,0,,3,,,63,127
46706,note_off,0,0,0,,6,,,54,127
46707,note_on,1,0,0,,3,,,63,127
46707,note_on,0,0,0,,6,,,54,127
46707,note_on,0,0,0,,0,,,60,127
46707,note_on,0,0,0,,10,,,57,127
46707,note_on,0,0,0,,0,,,72,127
46816,note_off,109,0,0,,0,,,72,127
46817,note_on,1,0,0,,6,,,78,127
46926,note_off,109,0,0,,6,,,78,127
46927,note_on,1,0,0,,3,,,75,127
47036,note_off,109,0,0,,3,,,75,127
47037,note_on,1,0,0,,1,,,73,127
47146,note_off,109,0,0,,1,,,73,127
47147,note_on,1,0,0,,0,,,72,127
47256,note_off,109,0,0,,0,,,72,127
47257,note_on,1,0,0,,6,,,78,127
47366,note_off,109,0,0,,6,,,78,127
47367,note_on,1,0,0,,5,,,77,127
47476,note_off,109,0,0,,5,,,77,127
47477,note_on,1,0,0,,3,,,75,127
47586,note_off,109,0,0,,3,,,75,127
47586,note_off,0,0,0,,10,,,57,127
47586,note_off,0,0,0,,0,,,60,127
47586,note_off,0,0,0,,6,,,54,127
47586,note_off,0,0,0,,3,,,63,127
47587,note_on,1,0,0,,12,,,59,127
47587,note_on,0,0,0,,8,,,56,127
47587,note_on,0,0,0,,5,,,53,127
47587,note_on,0,0,0,,2,,,62,127
47587,note_on,0,0,0,,2,,,74,127
47696,note_off,109,0,0,,2,,,74,127
47697,note_on,1,0,0,,8,,,80,127
47806,note_off,109,0,0,,8,,,80,127
47807,note_on,1,0,0,,5,,,77,127
47916,note_off,109,0,0,,5,,,77,127
47917,note_on,1,0,0,,3,,,75,127
48026,note_off,109,0,0,,3,,,75,127
48027,note_on,1,0,0,,2,,,74,127
48136,note_off,109,0,0,,2,,,74,127
48137,note_on,1,0,0,,8,,,80,127
48246,note_off,109,0,0,,8,,,80,127
48247,note_on,1,0,0,,5,,,77,127
48356,note_off,109,0,0,,5,,,77,127
48357,note_on,1,0,0,,3,,,75,127
48466,note_off,109,0,0,,3,,,75,127
48466,note_off,0,0,0,,2,,,62,127
48466,note_off,0,0,0,,5,,,53,127
48466,note_off,0,0,0,,8,,,56,127
48466,note_off,0,0,0,,12,,,59,127
48467,note_on,1,0,0,,8,,,56,127
48467,note_on,0,0,0,,5,,,53,127
48467,note_on,0,0,0,,2,,,62,127
48467,note_on,0,0,0,,12,,,59,127
48467,note_on,0,0,0,,2,,,74,127
48576,note_off,109,0,0,,2,,,74,127
48577,note_on,1,0,0,,8,,,80,127
48686,note_off,109,0,0,,8,,,80,127
48687,note_on,1,0,0,,5,,,77,127
48796,note_off,109,0,0,,5,,,77,127
48797,note_on,1,0,0,,3,,,75,127
48906,note_off,109,0,0,,3,,,75,127
48907,note_on,1,0,0,,2,,,74,127
49016,note_off,109,0,0,,2,,,74,127
49017,note_on,1,0,0,,8,,,80,127
49126,note_off,109,0,0,,8,,,80,127
49127,note_on,1,0,0,,5,,,77,127
49236,note_off,109,0,0,,5,,,77,127
49237,note_on,1,0,0,,4,,,76,127
49346,note_off,109,0,0,,4,,,76,127
49346,note_off,0,0,0,,12,,,59,127
49346,note_off,0,0,0,,2,,,62,127
49346,note_off,0,0,0,,5,,,53,127
49346,note_off,0,0,0,,8,,,56,127
49347,note_on,1,0,0,,4,,,52,127
49347,note_on,0,0,0,,12,,,59,127
49347,note_on,0,0,0,,10,,,57,127
49347,note_on,0,0,0,,2,,,62,127
49347,note_on,0,0,0,,2,,,74,127
49456,note_off,109,0,0,,2,,,74,127
49457,note_on,1,0,0,,12,,,83,127
49566,note_off,109,0,0,,12,,,83,127
49567,note_on,1,0,0,,5,,,77,127
49676,note_off,109,0,0,,5,,,77,127
49677,note_on,1,0,0,,4,,,76,127
49786,note_off,109,0,0,,4,,,76,127
49787,note_on,1,0,0,,2,,,74,127
49896,note_off,109,0,0,,2,,,74,127
49897,note_on,1,0,0,,12,,,83,127
50006,note_off,109,0,0,,12,,,83,127
50007,note_on,1,0,0,,5,,,77,127
50116,note_off,109,0,0,,5,,,77,127
50117,note_on,1,0,0,,4,,,76,127
50226,note_off,109,0,0,,4,,,76,127
50226,note_off,0,0,0,,2,,,62,127
50226,note_off,0,0,0,,10,,,57,127
50226,note_off,0,0,0,,12,,,59,127
50226,note_off,0,0,0,,4,,,52,127
50227,note_on,1,0,0,,10,,,57,127
50227,note_on,0,0,0,,4,,,52,127
50227,note_on,0,0,0,,12,,,59,127
50227,note_on,0,0,0,,2,,,62,127
50227,note_on,0,0,0,,2,,,74,127
50336,note_off,109,0,0,,2,,,74,127
50337,note_on,1,0,0,,12,,,83,127
50446,note_off,109,0,0,,12,,,83,127
50447,note_on,1,0,0,,5,,,77,127
50556,note_off,109,0,0,,5,,,77,127
50557,note_on,1,0,0,,4,,,76,127
50666,note_off,109,0,0,,4,,,76,127
50666,note_off,0,0,0,,2,,,62,127
50666,note_off,0,0,0,,12,,,59,127
50666,note_off,0,0,0,,4,,,52,127
50666,note_off,0,0,0,,10,,,57,127
50667,note_on,1,0,0,,2,,,50,127
50667,note_on,0,0,0,,7,,,55,127
50667,note_on,0,0,0,,5,,,53,127
50667,note_on,0,0,0,,12,,,59,127
50667,note_on,0,0,0,,2,,,74,127
50776,note_off,109,0,0,,2,,,74,127
50777,note_on,1,0,0,,2,,,86,127
50886,note_off,109,0,0,,2,,,86,127
50887,note_on,1,0,0,,7,,,79,127
50996,note_off,109,0,0,,7,,,79,127
50997,note_on,1,0,0,,5,,,77,127
51106,note_off,109,0,0,,5,,,77,127
51106,note_off,0,0,0,,12,,,59,127
51106,note_off,0,0,0,,5,,,53,127
51106,note_off,0,0,0,,7,,,55,127
51106,note_off,0,0,0,,2,,,50,127
51107,note_on,1,0,0,,0,,,48,127
51107,note_on,0,0,0,,0,,,60,127
51107,note_on,0,0,0,,7,,,55,127
51107,note_on,0,0,0,,4,,,76,127
51216,note_off,109,0,0,,4,,,76,127
51217,note_on,1,0,0,,0,,,84,127
51326,note_off,109,0,0,,0,,,84,127
51327,note_on,1,0,0,,7,,,79,127
51436,note_off,109,0,0,,7,,,79,127
51437,note_on,1,0,0,,5,,,77,127
51546,note_off,109,0,0,,5,,,77,127
51547,note_on,1,0,0,,4,,,76,127
51656,note_off,109,0,0,,4,,,76,127
51657,note_on,1,0,0,,0,,,84,127
51766,note_off,109,0,0,,0,,,84,127
51767,note_on,1,0,0,,7,,,79,127
51876,note_off,109,0,0,,7,,,79,127
51877,note_on,1,0,0,,5,,,77,127
51986,note_off,109,0,0,,5,,,77,127
51986,note_off,0,0,0,,7,,,55,127
51986,note_off,0,0,0,,0,,,60,127
51986,note_off,0,0,0,,0,,,48,127
51987,note_on,1,0,0,,0,,,60,127
51987,note_on,0,0,0,,7,,,67,127
51987,note_on,0,0,0,,4,,,76,127
52096,note_off,109,0,0,,4,,,76,127
52097,note_on,1,0,0,,0,,,84,127
52206,note_off,109,0,0,,0,,,84,127
52207,note_on,1,0,0,,7,,,79,127
52316,note_off,109,0,0,,7,,,79,127
52317,note_on,1,0,0,,5,,,77,127
52426,note_off,109,0,0,,5,,,77,127
52427,note_on,1,0,0,,4,,,76,127
52536,note_off,109,0,0,,4,,,76,127
52537,note_on,1,0,0,,0,,,84,127
52646,note_off,109,0,0,,0,,,84,127
52647,note_on,1,0,0,,7,,,79,127
52756,note_off,109,0,0,,7,,,79,127
52757,note_on,1,0,0,,5,,,77,127
52866,note_off,109,0,0,,5,,,77,127
52866,note_off,0,0,0,,7,,,67,127
52866,note_off,0,0,0,,0,,,60,127
52867,note_on,1,0,0,,0,,,60,127
52867,note_on,0,0,0,,7,,,67,127
52867,note_on,0,0,0,,4,,,76,127
52976,note_off,109,0,0,,4,,,76,127
52977,note_on,1,0,0,,0,,,84,127
53086,note_off,109,0,0,,0,,,84,127
53087,note_on,1,0,0,,7,,,79,127
53196,note_off,109,0,0,,7,,,79,127
53197,note_on,1,0,0,,5,,,77,127
53306,note_off,109,0,0,,5,,,77,127
53307,note_on,1,0,0,,4,,,76,127
53416,note_off,109,0,0,,4,,,76,127
53417,note_on,1,0,0,,0,,,84,127
53526,note_off,109,0,0,,0,,,84,127
53527,note_on,1,0,0,,7,,,79,127
53636,note_off,109,0,0,,7,,,79,127
53637,note_on,1,0,0,,5,,,77,127
53746,note_off,109,0,0,,5,,,77,127
53746,note_off,0,0,0,,7,,,67,127
53746,note_off,0,0,0,,0,,,60,127
53747,note_on,1,0,0,,11,,,58,127
53747,note_on,0,0,0,,4,,,64,127
53747,note_on,0,0,0,,7,,,67,127
53747,note_on,0,0,0,,4,,,76,127
53856,note_off,109,0,0,,4,,,76,127
53857,note_on,1,0,0,,11,,,82,127
53966,note_off,109,0,0,,11,,,82,127
53967,note_on,1,0,0,,7,,,79,127
54076,note_off,109,0,0,,7,,,79,127
54077,note_on,1,0,0,,5,,,77,127
54186,note_off,109,0,0,,5,,,77,127
54187,note_on,1,0,0,,4,,,76,127
54296,note_off,109,0,0,,4,,,76,127
54297,note_on,1,0,0,,11,,,82,127
54406,note_off,109,0,0,,11,,,82,127
54407,note_on,1,0,0,,7,,,79,127
54516,note_off,109,0,0,,7,,,79,127
54517,note_on,1,0,0,,5,,,77,127
54626,note_off,109,0,0,,5,,,77,127
54626,note_off,0,0,0,,7,,,67,127
54626,note_off,0,0,0,,4,,,64,127
54626,note_off,0,0,0,,11,,,58,127
54627,note_on,1,0,0,,7,,,67,127
54627,note_on,0,0,0,,10,,,57,127
54627,note_on,0,0,0,,4,,,64,127
54627,note_on,0,0,0,,4,,,76,127
54736,note_off,109,0,0,,4,,,76,127
54737,note_on,1,0,0,,1,,,85,127
54846,note_off,109,0,0,,1,,,85,127
54847,note_on,1,0,0,,7,,,79,127
54956,note_off,109,0,0,,7,,,79,127
54957,note_on,1,0,0,,5,,,77,127
55066,note_off,109,0,0,,5,,,77,127
55067,note_on,1,0,0,,4,,,76,127
55176,note_off,109,0,0,,4,,,76,127
55177,note_on,1,0,0,,1,,,85,127
55286,note_off,109,0,0,,1,,,85,127
55287,note_on,1,0,0,,7,,,79,127
55396,note_off,109,0,0,,7,,,79,127
55397,note_on,1,0,0,,5,,,77,127
55506,note_off,109,0,0,,5,,,77,127
55506,note_off,0,0,0,,4,,,64,127
55506,note_off,0,0,0,,10,,,57,127
55506,note_off,0,0,0,,7,,,67,127
55507,note_on,1,0,0,,10,,,57,127
55507,note_on,0,0,0,,4,,,64,127
55507,note_on,0,0,0,,7,,,67,127
55507,note_on,0,0,0,,4,,,76,127
55616,note_off,109,0,0,,4,,,76,127
55617,note_on,1,0,0,,1,,,85,127
55726,note_off,109,0,0,,1,,,85,127
55727,note_on,1,0,0,,11,,,82,127
55836,note_off,109,0,0,,11,,,82,127
55837,note_on,1,0,0,,10,,,81,127
55946,note_off,109,0,0,,10,,,81,127
55947,note_on,1,0,0,,7,,,79,127
56056,note_off,109,0,0,,7,,,79,127
56057,note_on,1,0,0,,4,,,88,127
56166,note_off,109,0,0,,4,,,88,127
56167,note_on,1,0,0,,10,,,81,127
56276,note_off,109,0,0,,10,,,81,127
56277,note_on,1,0,0,,7,,,79,127
56386,note_off,109,0,0,,7,,,79,127
56386,note_off,0,0,0,,7,,,67,127
56386,note_off,0,0,0,,4,,,64,127
56386,note_off,0,0,0,,10,,,57,127
56387,note_on,1,0,0,,10,,,57,127
56387,note_on,0,0,0,,5,,,65,127
56387,note_on,0,0,0,,2,,,62,127
56387,note_on,0,0,0,,5,,,77,127
56496,note_off,109,0,0,,5,,,77,127
56497,note_on,1,0,0,,2,,,86,127
56606,note_off,109,0,0,,2,,,86,127
56607,note_on,1,0,0,,10,,,81,127
56716,note_off,109,0,0,,10,,,81,127
56717,note_on,1,0,0,,7,,,79,127
56826,note_off,109,0,0,,7,,,79,127
56827,note_on,1,0,0,,5,,,77,127
56936,note_off,109,0,0,,5,,,77,127
56937,note_on,1,0,0,,10,,,81,127
57046,note_off,109,0,0,,10,,,81,127
57047,note_on,1,0,0,,7,,,79,127
57156,note_off,109,0,0,,7,,,79,127
57157,note_on,1,0,0,,5,,,77,127
57266,note_off,109,0,0,,5,,,77,127
57266,note_off,0,0,0,,2,,,62,127
57266,note_off,0,0,0,,5,,,65,127
57266,note_off,0,0,0,,10,,,57,127
57267,note_on,1,0,0,,10,,,57,127
57267,note_on,0,0,0,,7,,,67,127
57267,note_on,0,0,0,,4,,,76,127
57376,note_off,109,0,0,,4,,,76,127
57377,note_on,1,0,0,,7,,,79,127
57486,note_off,109,0,0,,7,,,79,127
57487,note_on,1,0,0,,5,,,77,127
57596,note_off,109,0,0,,5,,,77,127
57597,note_on,1,0,0,,4,,,76,127
57706,note_off,109,0,0,,4,,,76,127
57706,note_off,0,0,0,,7,,,67,127
57706,note_off,0,0,0,,10,,,57,127
57707,note_on,1,0,0,,8,,,68,127
57707,note_on,0,0,0,,10,,,57,127
57707,note_on,0,0,0,,2,,,74,127
57816,note_off,109,0,0,,2,,,74,127
57817,note_on,1,0,0,,5,,,77,127
57926,note_off,109,0,0,,5,,,77,127
57927,note_on,1,0,0,,4,,,76,127
58036,note_off,109,0,0,,4,,,76,127
58037,note_on,1,0,0,,2,,,74,127
58146,note_off,109,0,0,,2,,,74,127
58146,note_off,0,0,0,,10,,,57,127
58146,note_off,0,0,0,,8,,,68,127
58147,note_on,1,0,0,,10,,,57,127
58147,note_on,0,0,0,,1,,,73,127
58256,note_off,109,0,0,,10,,,57,127
58257,note_on,1,0,0,,10,,,69,127
58312,note_off,55,0,0,,1,,,73,127
58366,note_off,54,0,0,,10,,,69,127
58367,note_on,1,0,0,,6,,,66,127
58367,note_on,0,0,0,,10,,,81,127
58476,note_off,109,0,0,,6,,,66,127
58477,note_on,1,0,0,,4,,,64,127
58586,note_off,109,0,0,,4,,,64,127
58587,note_on,1,0,0,,2,,,62,127
58696,note_off,109,0,0,,2,,,62,127
58697,note_on,1,0,0,,6,,,66,127
58806,note_off,109,0,0,,6,,,66,127
58806,note_off,0,0,0,,10,,,81,127
58807,note_on,1,0,0,,2,,,62,127
58807,note_on,0,0,0,,2,,,86,127
58916,note_off,109,0,0,,2,,,62,127
58917,note_on,1,0,0,,1,,,61,127
59026,note_off,109,0,0,,1,,,61,127
59027,note_on,1,0,0,,12,,,59,127
59136,note_off,109,0,0,,12,,,59,127
59137,note_on,1,0,0,,2,,,62,127
59246,note_off,109,0,0,,2,,,62,127
59246,note_off,0,0,0,,2,,,86,127
59247,note_on,1,0,0,,12,,,59,127
59247,note_on,0,0,0,,2,,,74,127
59356,note_off,109,0,0,,12,,,59,127
59357,note_on,1,0,0,,10,,,57,127
59466,note_off,109,0,0,,10,,,57,127
59467,note_on,1,0,0,,7,,,55,127
59576,note_off,109,0,0,,7,,,55,127
59577,note_on,1,0,0,,12,,,59,127
59686,note_off,109,0,0,,12,,,59,127
59686,note_off,0,0,0,,2,,,74,127
59687,note_on,1,0,0,,7,,,55,127
59687,note_on,0,0,0,,12,,,83,127
59796,note_off,109,0,0,,7,,,55,127
59797,note_on,1,0,0,,6,,,54,127
59906,note_off,109,0,0,,6,,,54,127
59907,note_on,1,0,0,,4,,,52,127
60016,note_off,109,0,0,,4,,,52,127
60017,note_on,1,0,0,,7,,,55,127
60126,note_off,109,0,0,,7,,,55,127
60126,note_off,0,0,0,,12,,,83,127
60127,note_on,1,0,0,,4,,,52,127
60127,note_on,0,0,0,,7,,,79,127
60236,note_off,109,0,0,,4,,,52,127
60237,note_on,1,0,0,,2,,,50,127
60346,note_off,109,0,0,,2,,,50,127
60347,note_on,1,0,0,,1,,,49,127
60456,note_off,109,0,0,,1,,,49,127
60457,note_on,1,0,0,,4,,,52,127
60566,note_off,109,0,0,,4,,,52,127
60566,note_off,0,0,0,,7,,,79,127
60567,note_on,1,0,0,,1,,,49,127
60567,note_on,0,0,0,,4,,,76,127
60676,note_off,109,0,0,,1,,,49,127
60677,note_on,1,0,0,,12,,,47,127
60786,note_off,109,0,0,,12,,,47,127
60787,note_on,1,0,0,,10,,,45,127
60896,note_off,109,0,0,,10,,,45,127
60897,note_on,1,0,0,,1,,,49,127
61006,note_off,109,0,0,,1,,,49,127
61006,note_off,0,0,0,,4,,,76,127
61007,note_on,1,0,0,,10,,,45,127
61007,note_on,0,0,0,,10,,,81,127
61116,note_off,109,0,0,,10,,,45,127
61117,note_on,1,0,0,,7,,,43,127
61226,note_off,109,0,0,,7,,,43,127
61227,note_on,1,0,0,,6,,,42,127
61336,note_off,109,0,0,,6,,,42,127
61337,note_off,1,0,0,,10,,,81,127
61337,note_on,0,0,0,,10,,,45,127
61446,note_off,109,0,0,,10,,,45,127
61447,note_on,1,0,0,,6,,,42,127
61447,note_on,0,0,0,,2,,,86,127
61556,note_off,109,0,0,,2,,,86,127
61556,note_off,0,0,0,,6,,,42,127
61557,note_on,1,0,0,,4,,,40,127
61557,note_on,0,0,0,,1,,,85,127
61666,note_off,109,0,0,,1,,,85,127
61666,note_off,0,0,0,,4,,,40,127
61667,note_on,1,0,0,,2,,,38,127
61667,note_on,0,0,0,,2,,,86,127
61776,note_off,109,0,0,,2,,,86,127
61777,note_on,1,0,0,,10,,,81,127
61886,note_off,109,0,0,,10,,,81,127
61886,note_off,0,0,0,,2,,,38,127
61887,note_on,1,0,0,,7,,,43,127
61887,note_on,0,0,0,,12,,,83,127
61996,note_off,109,0,0,,12,,,83,127
61997,note_on,1,0,0,,7,,,79,127
62106,note_off,109,0,0,,7,,,79,127
62106,note_off,0,0,0,,7,,,43,127
62107,note_on,1,0,0,,10,,,45,127
62107,note_on,0,0,0,,6,,,78,127
62216,note_off,109,0,0,,6,,,78,127
62217,note_on,1,0,0,,4,,,76,127
62326,note_off,109,0,0,,4,,,76,127
62326,note_off,0,0,0,,10,,,45,127
62327,note_on,1,0,0,,10,,,33,127
62327,note_on,0,0,0,,2,,,74,127
62436,note_off,109,0,0,,2,,,74,127
62437,note_on,1,0,0,,1,,,73,127
62546,note_off,109,0,0,,1,,,73,127
62546,note_off,0,0,0,,10,,,33,127
62547,note_on,1,0,0,,2,,,62,127
62547,note_on,0,0,0,,2,,,74,127
62656,note_off,109,0,0,,2,,,62,127
62657,note_on,1,0,0,,10,,,69,127
62712,note_off,55,0,0,,2,,,74,127
62766,note_off,54,0,0,,10,,,69,127
62767,note_on,1,0,0,,6,,,66,127
62767,note_on,0,0,0,,10,,,81,127
62876,note_off,109,0,0,,6,,,66,127
62877,note_on,1,0,0,,4,,,64,127
62986,note_off,109,0,0,,4,,,64,127
62987,note_on,1,0,0,,2,,,62,127
63096,note_off,109,0,0,,2,,,62,127
63097,note_on,1,0,0,,6,,,66,127
63206,note_off,109,0,0,,6,,,66,127
63206,note_off,0,0,0,,10,,,81,127
63207,note_on,1,0,0,,2,,,62,127
63207,note_on,0,0,0,,2,,,86,127
63316,note_off,109,0,0,,2,,,62,127
63317,note_on,1,0,0,,1,,,61,127
63426,note_off,109,0,0,,1,,,61,127
63427,note_on,1,0,0,,12,,,59,127
63536,note_off,109,0,0,,12,,,59,127
63537,note_on,1,0,0,,2,,,62,127
63646,note_off,109,0,0,,2,,,62,127
63646,note_off,0,0,0,,2,,,86,127
63647,note_on,1,0,0,,12,,,59,127
63647,note_on,0,0,0,,2,,,74,127
63756,note_off,109,0,0,,12,,,59,127
63757,note_on,1,0,0,,10,,,57,127
63866,note_off,109,0,0,,10,,,57,127
63867,note_on,1,0,0,,7,,,55,127
63976,note_off,109,0,0,,7,,,55,127
63977,note_on,1,0,0,,12,,,59,127
64086,note_off,109,0,0,,12,,,59,127
64086,note_off,0,0,0,,2,,,74,127
64087,note_on,1,0,0,,7,,,55,127
64087,note_on,0,0,0,,12,,,83,127
64196,note_off,109,0,0,,7,,,55,127
64197,note_on,1,0,0,,6,,,54,127
64306,note_off,109,0,0,,6,,,54,127
64307,note_on,1,0,0,,4,,,52,127
64416,note_off,109,0,0,,4,,,52,127
64417,note_on,1,0,0,,7,,,55,127
64526,note_off,109,0,0,,7,,,55,127
64526,note_off,0,0,0,,12,,,83,127
64527,note_on,1,0,0,,4,,,52,127
64527,note_on,0,0,0,,7,,,79,127
64636,note_off,109,0,0,,4,,,52,127
64637,note_on,1,0,0,,2,,,50,127
64746,note_off,109,0,0,,2,,,50,127
64747,note_on,1,0,0,,1,,,49,127
64856,note_off,109,0,0,,1,,,49,127
64857,note_on,1,0,0,,4,,,52,127
64966,note_off,109,0,0,,4,,,52,127
64966,note_off,0,0,0,,7,,,79,127
64967,note_on,1,0,0,,1,,,49,127
64967,note_on,0,0,0,,4,,,76,127
65076,note_off,109,0,0,,1,,,49,127
65077,note_on,1,0,0,,12,,,47,127
65186,note_off,109,0,0,,12,,,47,127
65187,note_on,1,0,0,,10,,,45,127
65296,note_off,109,0,0,,10,,,45,127
65297,note_on,1,0,0,,1,,,49,127
65406,note_off,109,0,0,,1,,,49,127
65406,note_off,0,0,0,,4,,,76,127
65407,note_on,1,0,0,,10,,,45,127
65407,note_on,0,0,0,,10,,,81,127
65516,note_off,109,0,0,,10,,,45,127
65517,note_on,1,0,0,,7,,,43,127
65626,note_off,109,0,0,,7,,,43,127
65627,note_on,1,0,0,,6,,,42,127
65736,note_off,109,0,0,,6,,,42,127
65737,note_off,1,0,0,,10,,,81,127
65737,note_on,0,0,0,,10,,,45,127
65846,note_off,109,0,0,,10,,,45,127
65847,note_on,1,0,0,,6,,,42,127
65847,note_on,0,0,0,,2,,,86,127
65956,note_off,109,0,0,,2,,,86,127
65956,note_off,0,0,0,,6,,,42,127
65957,note_on,1,0,0,,4,,,40,127
65957,note_on,0,0,0,,1,,,85,127
66066,note_off,109,0,0,,1,,,85,127
66066,note_off,0,0,0,,4,,,40,127
66067,note_on,1,0,0,,2,,,38,127
66067,note_on,0,0,0,,2,,,86,127
66176,note_off,109,0,0,,2,,,86,127
66177,note_on,1,0,0,,10,,,81,127
66286,note_off,109,0,0,,10,,,81,127
66286,note_off,0,0,0,,2,,,38,127
66287,note_on,1,0,0,,7,,,43,127
66287,note_on,0,0,0,,12,,,83,127
66396,note_off,109,0,0,,12,,,83,127
66397,note_on,1,0,0,,7,,,79,127
66506,note_off,109,0,0,,7,,,79,127
66506,note_off,0,0,0,,7,,,43,127
66507,note_on,1,0,0,,10,,,45,127
66507,note_on,0,0,0,,6,,,78,127
66616,note_off,109,0,0,,6,,,78,127
66617,note_on,1,0,0,,4,,,76,127
66726,note_off,109,0,0,,4,,,76,127
66726,note_off,0,0,0,,10,,,45,127
66727,note_on,1,0,0,,10,,,33,127
66727,note_on,0,0,0,,2,,,74,127
66836,note_off,109,0,0,,2,,,74,127
66837,note_on,1,0,0,,1,,,73,127
66946,note_off,109,0,0,,1,,,73,127
66946,note_off,0,0,0,,10,,,33,127
66947,note_on,1,0,0,,2,,,38,127
66947,note_on,0,0,0,,2,,,74,127
67056,note_off,109,0,0,,2,,,74,127
67057,note_on,1,0,0,,10,,,81,127
67166,note_off,109,0,0,,10,,,81,127
67167,note_on,1,0,0,,6,,,78,127
67276,note_off,109,0,0,,6,,,78,127
67277,note_on,1,0,0,,4,,,76,127
67386,note_off,109,0,0,,4,,,76,127
67387,note_on,1,0,0,,2,,,74,127
67496,note_off,109,0,0,,2,,,74,127
67497,note_off,1,0,0,,2,,,38,127
67497,note_on,0,0,0,,10,,,81,127
67606,note_off,109,0,0,,10,,,81,127
67607,note_on,1,0,0,,6,,,42,127
67607,note_on,0,0,0,,6,,,54,127
67607,note_on,0,0,0,,2,,,74,127
67716,note_off,109,0,0,,2,,,74,127
67717,note_on,1,0,0,,1,,,73,127
67826,note_off,109,0,0,,1,,,73,127
67826,note_off,0,0,0,,6,,,54,127
67826,note_off,0,0,0,,6,,,42,127
67827,note_on,1,0,0,,7,,,43,127
67827,note_on,0,0,0,,7,,,55,127
67827,note_on,0,0,0,,12,,,71,127
67936,note_off,109,0,0,,12,,,71,127
67937,note_on,1,0,0,,7,,,79,127
68046,note_off,109,0,0,,7,,,79,127
68047,note_on,1,0,0,,6,,,78,127
68156,note_off,109,0,0,,6,,,78,127
68157,note_on,1,0,0,,4,,,76,127
68266,note_off,109,0,0,,4,,,76,127
68266,note_off,0,0,0,,7,,,55,127
68266,note_off,0,0,0,,7,,,43,127
68267,note_on,1,0,0,,10,,,45,127
68267,note_on,0,0,0,,10,,,57,127
68267,note_on,0,0,0,,2,,,74,127
68376,note_off,109,0,0,,2,,,74,127
68377,note_on,1,0,0,,4,,,76,127
68486,note_off,109,0,0,,4,,,76,127
68487,note_on,1,0,0,,10,,,69,127
68596,note_off,109,0,0,,10,,,69,127
68597,note_on,1,0,0,,1,,,73,127
68706,note_off,109,0,0,,1,,,73,127
68706,note_off,0,0,0,,10,,,57,127
68706,note_off,0,0,0,,10,,,45,127
68707,note_on,1,0,0,,2,,,50,127
68707,note_on,0,0,0,,2,,,38,127
68707,note_on,0,0,0,,2,,,74,127
68816,note_off,109,0,0,,2,,,74,127
68817,note_on,1,0,0,,10,,,69,127
68926,note_off,109,0,0,,10,,,69,127
68927,note_on,1,0,0,,6,,,66,127
69036,note_off,109,0,0,,6,,,66,127
69037,note_on,1,0,0,,4,,,64,127
69146,note_off,109,0,0,,4,,,64,127
69147,note_on,1,0,0,,2,,,62,127
69256,note_off,109,0,0,,2,,,62,127
69257,note_off,1,0,0,,2,,,38,127
69257,note_off,0,0,0,,2,,,50,127
69257,note_on,0,0,0,,10,,,69,127
69366,note_off,109,0,0,,10,,,69,127
69367,note_on,1,0,0,,6,,,42,127
69367,note_on,0,0,0,,6,,,54,127
69367,note_on,0,0,0,,2,,,62,127
69476,note_off,109,0,0,,2,,,62,127
69477,note_on,1,0,0,,1,,,61,127
69586,note_off,109,0,0,,1,,,61,127
69586,note_off,0,0,0,,6,,,54,127
69586,note_off,0,0,0,,6,,,42,127
69587,note_on,1,0,0,,7,,,55,127
69587,note_on,0,0,0,,7,,,43,127
69587,note_on,0,0,0,,12,,,59,127
69696,note_off,109,0,0,,12,,,59,127
69697,note_on,1,0,0,,7,,,67,127
69806,note_off,109,0,0,,7,,,67,127
69807,note_on,1,0,0,,6,,,66,127
69916,note_off,109,0,0,,6,,,66,127
69917,note_on,1,0,0,,4,,,64,127
70026,note_off,109,0,0,,4,,,64,127
70026,note_off,0,0,0,,7,,,43,127
70026,note_off,0,0,0,,7,,,55,127
70027,note_on,1,0,0,,10,,,57,127
70027,note_on,0,0,0,,10,,,45,127
70027,note_on,0,0,0,,2,,,62,127
70136,note_off,109,0,0,,2,,,62,127
70137,note_on,1,0,0,,4,,,64,127
70244,note_off,107,0,0,,10,,,57,127
70245,note_off,1,0,0,,4,,,64,127
70246,note_on,1,0,0,,10,,,57,127
70355,note_off,109,0,0,,10,,,57,127
70356,note_on,1,0,0,,1,,,61,127
70465,note_off,109,0,0,,1,,,61,127
70465,note_off,0,0,0,,10,,,45,127
70474,note_on,9,0,0,,2,,,38,127
70474,note_on,0,0,0,,2,,,50,127
70474,note_on,0,0,0,,2,,,62,127
72668,note_off,2194,0,0,,2,,,62,127
72668,note_off,0,0,0,,2,,,50,127
72668,note_off,0,0,0,,2,,,38,127
73728,end_of_track,1060,1,0,,,,,,
