tick,type,time,meta,track,program,channel,pitch,tempo,note,velocity
0,copyright,0,1,0,,,,,,
0,program_change,0,0,0,6,0,,,,
0,pitchwheel,0,0,0,,0,0,,,
0,program_change,0,0,0,6,1,,,,
0,pitchwheel,0,0,0,,1,-590,,,
0,program_change,0,0,0,6,2,,,,
0,pitchwheel,0,0,0,,2,-272,,,
0,program_change,0,0,0,6,3,,,,
0,pitchwheel,0,0,0,,3,-353,,,
0,program_change,0,0,0,6,4,,,,
0,pitchwheel,0,0,0,,4,-560,,,
0,program_change,0,0,0,6,5,,,,
0,pitchwheel,0,0,0,,5,-80,,,
0,program_change,0,0,0,6,6,,,,
0,pitchwheel,0,0,0,,6,-625,,,
0,program_change,0,0,0,6,7,,,,
0,pitchwheel,0,0,0,,7,-130,,,
0,program_change,0,0,0,6,8,,,,
0,pitchwheel,0,0,0,,8,-512,,,
0,program_change,0,0,0,6,10,,,,
0,pitchwheel,0,0,0,,10,-464,,,
0,program_change,0,0,0,6,11,,,,
0,pitchwheel,0,0,0,,11,-208,,,
0,program_change,0,0,0,6,12,,,,
0,pitchwheel,0,0,0,,12,-553,,,
0,set_tempo,0,1,0,,,,500000,,
110,note_on,110,0,0,,2,,,38,127
110,note_on,0,0,0,,2,,,50,127
329,note_on,219,0,0,,10,,,81,127
438,note_off,109,0,0,,10,,,81,127
439,note_off,1,0,0,,2,,,50,127
439,note_off,0,0,0,,2,,,38,127
439,note_on,0,0,0,,7,,,79,127
548,note_off,109,0,0,,7,,,79,127
549,note_on,1,0,0,,6,,,78,127
658,note_off,109,0,0,,6,,,78,127
659,note_on,1,0,0,,4,,,76,127
768,note_off,109,0,0,,4,,,76,127
769,note_on,1,0,0,,2,,,74,127
987,note_off,218,0,0,,2,,,74,127
988,note_on,1,0,0,,10,,,69,127
1206,note_off,218,0,0,,10,,,69,127
1207,note_on,1,0,0,,10,,,69,127
1425,note_off,218,0,0,,10,,,69,127
1426,note_on,1,0,0,,2,,,74,127
1632,note_off,206,0,0,,2,,,74,127
1646,note_on,14,0,0,,6,,,78,127
1646,note_on,0,0,0,,7,,,79,127
1755,note_off,109,0,0,,7,,,79,127
1755,note_off,0,0,0,,6,,,78,127
1756,note_on,1,0,0,,4,,,76,127
1865,note_off,109,0,0,,4,,,76,127
1866,note_on,1,0,0,,2,,,74,127
1975,note_off,109,0,0,,2,,,74,127
1976,note_on,1,0,0,,1,,,73,127
2085,note_off,109,0,0,,1,,,73,127
2086,note_on,1,0,0,,2,,,74,127
2292,note_off,206,0,0,,2,,,74,127
2306,note_on,14,0,0,,6,,,78,127
2306,note_on,0,0,0,,7,,,79,127
2415,note_off,109,0,0,,7,,,79,127
2415,note_off,0,0,0,,6,,,78,127
2416,note_on,1,0,0,,4,,,76,127
2525,note_off,109,0,0,,4,,,76,127
2526,note_on,1,0,0,,2,,,74,127
2635,note_off,109,0,0,,2,,,74,127
2636,note_on,1,0,0,,1,,,73,127
2745,note_off,109,0,0,,1,,,73,127
2746,note_on,1,0,0,,2,,,74,127
2940,note_off,194,0,0,,2,,,74,127
2965,note_on,25,0,0,,2,,,62,127
2965,note_on,0,0,0,,0,,,72,127
2965,note_on,0,0,0,,2,,,74,127
3074,note_off,109,0,0,,2,,,62,127
3075,note_on,1,0,0,,4,,,64,127
3184,note_off,109,0,0,,4,,,64,127
3184,note_off,0,0,0,,2,,,74,127
3184,note_off,0,0,0,,0,,,72,127
3185,note_on,1,0,0,,6,,,66,127
3185,note_on,0,0,0,,0,,,72,127
3185,note_on,0,0,0,,2,,,74,127
3294,note_off,109,0,0,,6,,,66,127
3295,note_on,1,0,0,,2,,,62,127
3404,note_off,109,0,0,,2,,,62,127
3404,note_off,0,0,0,,2,,,74,127
3404,note_off,0,0,0,,0,,,72,127
3405,note_on,1,0,0,,7,,,67,127
3405,note_on,0,0,0,,12,,,71,127
3405,note_on,0,0,0,,2,,,74,127
3623,note_off,218,0,0,,2,,,74,127
3623,note_off,0,0,0,,12,,,71,127
3623,note_off,0,0,0,,7,,,67,127
3624,note_on,1,0,0,,10,,,69,127
3624,note_on,0,0,0,,1,,,73,127
3624,note_on,0,0,0,,7,,,79,127
3733,note_off,109,0,0,,10,,,69,127
3734,note_on,1,0,0,,7,,,67,127
3843,note_off,109,0,0,,7,,,67,127
3843,note_off,0,0,0,,7,,,79,127
3843,note_off,0,0,0,,1,,,73,127
3844,note_on,1,0,0,,6,,,66,127
3844,note_on,0,0,0,,1,,,73,127
3844,note_on,0,0,0,,7,,,79,127
3953,note_off,109,0,0,,6,,,66,127
3954,note_on,1,0,0,,4,,,64,127
4063,note_off,109,0,0,,4,,,64,127
4063,note_off,0,0,0,,7,,,79,127
4063,note_off,0,0,0,,1,,,73,127
4064,note_on,1,0,0,,2,,,62,127
4064,note_on,0,0,0,,6,,,78,127
4064,note_on,0,0,0,,2,,,74,127
4282,note_off,218,0,0,,2,,,74,127
4282,note_off,0,0,0,,6,,,78,127
4282,note_off,0,0,0,,2,,,62,127
4283,note_on,1,0,0,,2,,,62,127
4283,note_on,0,0,0,,2,,,74,127
4283,note_on,0,0,0,,0,,,72,127
4392,note_off,109,0,0,,2,,,62,127
4393,note_on,1,0,0,,4,,,64,127
4502,note_off,109,0,0,,4,,,64,127
4502,note_off,0,0,0,,0,,,72,127
4502,note_off,0,0,0,,2,,,74,127
4503,note_on,1,0,0,,6,,,66,127
4503,note_on,0,0,0,,0,,,72,127
4503,note_on,0,0,0,,2,,,74,127
4612,note_off,109,0,0,,6,,,66,127
4613,note_on,1,0,0,,2,,,62,127
4722,note_off,109,0,0,,2,,,62,127
4722,note_off,0,0,0,,2,,,74,127
4722,note_off,0,0,0,,0,,,72,127
4723,note_on,1,0,0,,7,,,67,127
4723,note_on,0,0,0,,2,,,74,127
4723,note_on,0,0,0,,12,,,71,127
4941,note_off,218,0,0,,12,,,71,127
4941,note_off,0,0,0,,2,,,74,127
4941,note_off,0,0,0,,7,,,67,127
4942,note_on,1,0,0,,10,,,69,127
4942,note_on,0,0,0,,1,,,73,127
4942,note_on,0,0,0,,7,,,79,127
5051,note_off,109,0,0,,10,,,69,127
5052,note_on,1,0,0,,7,,,67,127
5161,note_off,109,0,0,,7,,,67,127
5161,note_off,0,0,0,,7,,,79,127
5161,note_off,0,0,0,,1,,,73,127
5162,note_on,1,0,0,,6,,,66,127
5162,note_on,0,0,0,,1,,,73,127
5162,note_on,0,0,0,,7,,,79,127
5271,note_off,109,0,0,,6,,,66,127
5272,note_on,1,0,0,,4,,,64,127
5381,note_off,109,0,0,,4,,,64,127
5381,note_off,0,0,0,,7,,,79,127
5381,note_off,0,0,0,,1,,,73,127
5382,note_on,1,0,0,,2,,,62,127
5382,note_on,0,0,0,,6,,,78,127
5492,note_on,110,0,0,,10,,,81,127
5588,note_off,96,0,0,,6,,,78,127
5601,note_off,13,0,0,,10,,,81,127
5601,note_off,0,0,0,,2,,,62,127
5602,note_on,1,0,0,,1,,,61,127
5602,note_on,0,0,0,,4,,,76,127
5712,note_on,110,0,0,,10,,,81,127
5808,note_off,96,0,0,,4,,,76,127
5821,note_off,13,0,0,,10,,,81,127
5821,note_off,0,0,0,,1,,,61,127
5822,note_on,1,0,0,,12,,,59,127
5822,note_on,0,0,0,,2,,,74,127
5932,note_on,110,0,0,,10,,,81,127
6028,note_off,96,0,0,,2,,,74,127
6041,note_off,13,0,0,,10,,,81,127
6041,note_off,0,0,0,,12,,,59,127
6042,note_on,1,0,0,,10,,,57,127
6042,note_on,0,0,0,,1,,,73,127
6152,note_on,110,0,0,,10,,,81,127
6248,note_off,96,0,0,,1,,,73,127
6261,note_off,13,0,0,,10,,,81,127
6261,note_off,0,0,0,,10,,,57,127
6262,note_on,1,0,0,,7,,,55,127
6262,note_on,0,0,0,,12,,,71,127
6372,note_on,110,0,0,,10,,,81,127
6457,note_off,85,0,0,,12,,,71,127
6481,note_off,24,0,0,,10,,,81,127
6481,note_off,0,0,0,,7,,,55,127
6482,note_on,1,0,0,,6,,,54,127
6482,note_on,0,0,0,,10,,,69,127
6592,note_on,110,0,0,,10,,,81,127
6699,note_off,107,0,0,,10,,,69,127
6700,note_off,1,0,0,,10,,,81,127
6700,note_off,0,0,0,,6,,,54,127
6701,note_on,1,0,0,,7,,,55,127
6701,note_on,0,0,0,,12,,,71,127
6810,note_off,109,0,0,,12,,,71,127
6811,note_on,1,0,0,,7,,,79,127
6920,note_off,109,0,0,,7,,,79,127
6920,note_off,0,0,0,,7,,,55,127
6921,note_on,1,0,0,,10,,,57,127
6921,note_on,0,0,0,,6,,,78,127
7030,note_off,109,0,0,,6,,,78,127
7031,note_on,1,0,0,,4,,,76,127
7140,note_off,109,0,0,,4,,,76,127
7140,note_off,0,0,0,,10,,,57,127
7141,note_on,1,0,0,,10,,,45,127
7141,note_on,0,0,0,,2,,,74,127
7250,note_off,109,0,0,,2,,,74,127
7251,note_on,1,0,0,,1,,,73,127
7360,note_off,109,0,0,,1,,,73,127
7360,note_off,0,0,0,,10,,,45,127
7382,note_on,22,0,0,,6,,,78,127
7382,note_on,0,0,0,,2,,,62,127
7491,note_off,109,0,0,,6,,,78,127
7492,note_on,1,0,0,,10,,,81,127
7601,note_off,109,0,0,,2,,,62,127
7602,note_on,1,0,0,,4,,,76,127
7602,note_on,0,0,0,,1,,,61,127
7709,note_off,107,0,0,,10,,,81,127
7710,note_off,1,0,0,,4,,,76,127
7711,note_on,1,0,0,,10,,,81,127
7820,note_off,109,0,0,,1,,,61,127
7821,note_on,1,0,0,,2,,,74,127
7821,note_on,0,0,0,,12,,,59,127
7928,note_off,107,0,0,,10,,,81,127
7929,note_off,1,0,0,,2,,,74,127
7930,note_on,1,0,0,,10,,,81,127
8039,note_off,109,0,0,,12,,,59,127
8040,note_on,1,0,0,,1,,,73,127
8040,note_on,0,0,0,,10,,,57,127
8147,note_off,107,0,0,,10,,,81,127
8148,note_off,1,0,0,,1,,,73,127
8149,note_on,1,0,0,,10,,,81,127
8258,note_off,109,0,0,,10,,,57,127
8259,note_on,1,0,0,,12,,,71,127
8259,note_on,0,0,0,,7,,,55,127
8366,note_off,107,0,0,,10,,,81,127
8367,note_off,1,0,0,,12,,,71,127
8368,note_on,1,0,0,,10,,,81,127
8477,note_off,109,0,0,,7,,,55,127
8478,note_on,1,0,0,,10,,,69,127
8478,note_on,0,0,0,,6,,,54,127
8585,note_off,107,0,0,,10,,,81,127
8587,note_on,2,0,0,,10,,,81,127
8614,note_off,27,0,0,,10,,,69,127
8695,note_off,81,0,0,,6,,,54,127
8696,note_on,1,0,0,,12,,,71,127
8696,note_on,0,0,0,,7,,,55,127
8803,note_off,107,0,0,,10,,,81,127
8804,note_off,1,0,0,,12,,,71,127
8805,note_on,1,0,0,,7,,,79,127
8914,note_off,109,0,0,,7,,,79,127
8914,note_off,0,0,0,,7,,,55,127
8915,note_on,1,0,0,,6,,,78,127
8915,note_on,0,0,0,,10,,,57,127
9024,note_off,109,0,0,,6,,,78,127
9025,note_on,1,0,0,,4,,,76,127
9134,note_off,109,0,0,,4,,,76,127
9134,note_off,0,0,0,,10,,,57,127
9135,note_on,1,0,0,,2,,,74,127
9135,note_on,0,0,0,,10,,,45,127
9244,note_off,109,0,0,,2,,,74,127
9245,note_on,1,0,0,,1,,,73,127
9354,note_off,109,0,0,,1,,,73,127
9354,note_off,0,0,0,,10,,,45,127
9355,note_on,1,0,0,,2,,,74,127
9355,note_on,0,0,0,,2,,,50,127
9464,note_off,109,0,0,,2,,,74,127
9465,note_on,1,0,0,,10,,,69,127
9574,note_off,109,0,0,,10,,,69,127
9575,note_on,1,0,0,,6,,,66,127
9684,note_off,109,0,0,,6,,,66,127
9685,note_on,1,0,0,,2,,,62,127
9794,note_off,109,0,0,,2,,,62,127
9794,note_off,0,0,0,,2,,,50,127
9795,note_on,1,0,0,,10,,,57,127
9904,note_off,109,0,0,,10,,,57,127
9905,note_on,1,0,0,,6,,,54,127
10014,note_off,109,0,0,,6,,,54,127
10015,note_on,1,0,0,,2,,,50,127
10125,note_on,110,0,0,,2,,,74,127
10234,note_off,109,0,0,,2,,,74,127
10235,note_on,1,0,0,,6,,,66,127
10344,note_off,109,0,0,,6,,,66,127
10345,note_off,1,0,0,,2,,,50,127
10345,note_on,0,0,0,,8,,,68,127
10454,note_off,109,0,0,,8,,,68,127
10455,note_on,1,0,0,,10,,,69,127
10455,note_on,0,0,0,,2,,,62,127
10564,note_off,109,0,0,,10,,,69,127
10565,note_on,1,0,0,,12,,,71,127
10674,note_off,109,0,0,,12,,,71,127
10674,note_off,0,0,0,,2,,,62,127
10675,note_on,1,0,0,,1,,,73,127
10675,note_on,0,0,0,,1,,,61,127
10784,note_off,109,0,0,,1,,,73,127
10785,note_on,1,0,0,,2,,,74,127
10894,note_off,109,0,0,,2,,,74,127
10894,note_off,0,0,0,,1,,,61,127
10895,note_on,1,0,0,,4,,,76,127
10895,note_on,0,0,0,,12,,,59,127
11004,note_off,109,0,0,,4,,,76,127
11005,note_on,1,0,0,,6,,,78,127
11114,note_off,109,0,0,,6,,,78,127
11114,note_off,0,0,0,,12,,,59,127
11115,note_on,1,0,0,,8,,,80,127
11115,note_on,0,0,0,,10,,,57,127
11224,note_off,109,0,0,,8,,,80,127
11225,note_on,1,0,0,,10,,,81,127
11334,note_off,109,0,0,,10,,,81,127
11334,note_off,0,0,0,,10,,,57,127
11335,note_on,1,0,0,,12,,,83,127
11335,note_on,0,0,0,,8,,,56,127
11444,note_off,109,0,0,,12,,,83,127
11445,note_on,1,0,0,,1,,,85,127
11554,note_off,109,0,0,,1,,,85,127
11554,note_off,0,0,0,,8,,,56,127
11555,note_on,1,0,0,,2,,,86,127
11555,note_on,0,0,0,,6,,,54,127
11665,note_on,110,0,0,,2,,,74,127
11772,note_off,107,0,0,,2,,,86,127
11773,note_off,1,0,0,,6,,,54,127
11774,note_on,1,0,0,,2,,,86,127
11774,note_on,0,0,0,,4,,,52,127
11824,note_off,50,0,0,,2,,,74,127
11883,note_on,59,0,0,,2,,,74,127
11974,note_off,91,0,0,,2,,,74,127
11990,note_off,16,0,0,,2,,,86,127
11991,note_off,1,0,0,,4,,,52,127
11992,note_on,1,0,0,,1,,,85,127
11992,note_on,0,0,0,,10,,,45,127
11992,note_on,0,0,0,,10,,,57,127
12102,note_on,110,0,0,,1,,,73,127
12209,note_off,107,0,0,,1,,,85,127
12210,note_off,1,0,0,,10,,,45,127
12211,note_on,1,0,0,,1,,,85,127
12211,note_on,0,0,0,,12,,,47,127
12261,note_off,50,0,0,,1,,,73,127
12320,note_on,59,0,0,,1,,,73,127
12427,note_off,107,0,0,,1,,,85,127
12428,note_off,1,0,0,,12,,,47,127
12429,note_on,1,0,0,,1,,,85,127
12429,note_on,0,0,0,,1,,,49,127
12479,note_off,50,0,0,,1,,,73,127
12538,note_on,59,0,0,,1,,,73,127
12629,note_off,91,0,0,,1,,,73,127
12645,note_off,16,0,0,,1,,,85,127
12646,note_off,1,0,0,,1,,,49,127
12646,note_off,0,0,0,,10,,,57,127
12647,note_on,1,0,0,,12,,,83,127
12647,note_on,0,0,0,,2,,,50,127
12757,note_on,110,0,0,,12,,,71,127
12864,note_off,107,0,0,,12,,,83,127
12865,note_off,1,0,0,,12,,,71,127
12865,note_off,0,0,0,,2,,,50,127
12866,note_on,1,0,0,,10,,,81,127
12866,note_on,0,0,0,,4,,,52,127
12976,note_on,110,0,0,,10,,,69,127
13083,note_off,107,0,0,,10,,,81,127
13084,note_off,1,0,0,,10,,,69,127
13084,note_off,0,0,0,,4,,,52,127
13085,note_on,1,0,0,,8,,,80,127
13085,note_on,0,0,0,,4,,,40,127
13195,note_on,110,0,0,,8,,,68,127
13302,note_off,107,0,0,,8,,,80,127
13303,note_off,1,0,0,,8,,,68,127
13303,note_off,0,0,0,,4,,,40,127
13304,note_on,1,0,0,,10,,,81,127
13304,note_on,0,0,0,,10,,,45,127
13414,note_on,110,0,0,,10,,,69,127
13521,note_off,107,0,0,,10,,,81,127
13522,note_off,1,0,0,,10,,,45,127
13523,note_on,1,0,0,,10,,,81,127
13523,note_on,0,0,0,,12,,,47,127
13550,note_off,27,0,0,,10,,,69,127
13631,note_off,81,0,0,,10,,,81,127
13632,note_on,1,0,0,,8,,,80,127
13741,note_off,109,0,0,,8,,,80,127
13741,note_off,0,0,0,,12,,,47,127
13742,note_on,1,0,0,,6,,,78,127
13742,note_on,0,0,0,,1,,,49,127
13851,note_off,109,0,0,,6,,,78,127
13852,note_on,1,0,0,,4,,,76,127
13961,note_off,109,0,0,,4,,,76,127
13961,note_off,0,0,0,,1,,,49,127
13962,note_on,1,0,0,,6,,,78,127
13962,note_on,0,0,0,,2,,,50,127
14071,note_off,109,0,0,,6,,,78,127
14072,note_on,1,0,0,,4,,,76,127
14181,note_off,109,0,0,,4,,,76,127
14181,note_off,0,0,0,,2,,,50,127
14182,note_on,1,0,0,,2,,,74,127
14182,note_on,0,0,0,,4,,,52,127
14291,note_off,109,0,0,,2,,,74,127
14292,note_on,1,0,0,,1,,,73,127
14401,note_off,109,0,0,,1,,,73,127
14401,note_off,0,0,0,,4,,,52,127
14402,note_on,1,0,0,,12,,,71,127
14402,note_on,0,0,0,,6,,,54,127
14511,note_off,109,0,0,,12,,,71,127
14512,note_on,1,0,0,,10,,,69,127
14621,note_off,109,0,0,,10,,,69,127
14621,note_off,0,0,0,,6,,,54,127
14622,note_on,1,0,0,,12,,,71,127
14622,note_on,0,0,0,,4,,,52,127
14731,note_off,109,0,0,,12,,,71,127
14732,note_on,1,0,0,,10,,,69,127
14841,note_off,109,0,0,,10,,,69,127
14841,note_off,0,0,0,,4,,,52,127
14842,note_on,1,0,0,,8,,,68,127
14842,note_on,0,0,0,,4,,,40,127
14896,note_off,54,0,0,,8,,,68,127
14897,note_on,1,0,0,,10,,,69,127
14951,note_off,54,0,0,,10,,,69,127
14952,note_on,1,0,0,,8,,,68,127
15006,note_off,54,0,0,,8,,,68,127
15007,note_on,1,0,0,,6,,,66,127
15061,note_off,54,0,0,,6,,,66,127
15062,note_on,1,0,0,,4,,,64,127
15280,note_off,218,0,0,,4,,,40,127
15299,note_on,19,0,0,,4,,,52,127
15389,note_off,90,0,0,,4,,,64,127
15408,note_on,19,0,0,,4,,,76,127
15517,note_off,109,0,0,,4,,,76,127
15518,note_on,1,0,0,,4,,,64,127
15627,note_off,109,0,0,,4,,,64,127
15628,note_on,1,0,0,,6,,,66,127
15737,note_off,109,0,0,,6,,,66,127
15738,note_on,1,0,0,,2,,,62,127
15738,note_on,0,0,0,,8,,,68,127
15847,note_off,109,0,0,,8,,,68,127
15848,note_on,1,0,0,,4,,,64,127
15957,note_off,109,0,0,,4,,,64,127
15957,note_off,0,0,0,,2,,,62,127
15957,note_off,0,0,0,,4,,,52,127
15958,note_on,1,0,0,,4,,,52,127
15958,note_on,0,0,0,,1,,,61,127
15958,note_on,0,0,0,,10,,,69,127
16067,note_off,109,0,0,,10,,,69,127
16068,note_on,1,0,0,,12,,,71,127
16177,note_off,109,0,0,,12,,,71,127
16177,note_off,0,0,0,,1,,,61,127
16178,note_on,1,0,0,,12,,,59,127
16178,note_on,0,0,0,,1,,,73,127
16287,note_off,109,0,0,,1,,,73,127
16288,note_on,1,0,0,,2,,,74,127
16397,note_off,109,0,0,,2,,,74,127
16397,note_off,0,0,0,,12,,,59,127
16398,note_on,1,0,0,,10,,,57,127
16398,note_on,0,0,0,,3,,,75,127
16507,note_off,109,0,0,,3,,,75,127
16508,note_on,1,0,0,,4,,,76,127
16617,note_off,109,0,0,,10,,,57,127
16617,note_off,0,0,0,,4,,,52,127
16618,note_on,1,0,0,,4,,,52,127
16727,note_off,109,0,0,,4,,,76,127
16728,note_on,1,0,0,,4,,,76,127
16837,note_off,109,0,0,,4,,,76,127
16838,note_on,1,0,0,,4,,,64,127
16947,note_off,109,0,0,,4,,,64,127
16948,note_on,1,0,0,,6,,,66,127
17057,note_off,109,0,0,,6,,,66,127
17058,note_on,1,0,0,,2,,,62,127
17058,note_on,0,0,0,,8,,,68,127
17167,note_off,109,0,0,,8,,,68,127
17168,note_on,1,0,0,,4,,,64,127
17277,note_off,109,0,0,,4,,,64,127
17277,note_off,0,0,0,,2,,,62,127
17277,note_off,0,0,0,,4,,,52,127
17278,note_on,1,0,0,,4,,,52,127
17278,note_on,0,0,0,,1,,,61,127
17278,note_on,0,0,0,,10,,,69,127
17387,note_off,109,0,0,,10,,,69,127
17388,note_on,1,0,0,,12,,,71,127
17497,note_off,109,0,0,,12,,,71,127
17497,note_off,0,0,0,,1,,,61,127
17498,note_on,1,0,0,,12,,,59,127
17498,note_on,0,0,0,,1,,,73,127
17607,note_off,109,0,0,,1,,,73,127
17608,note_on,1,0,0,,2,,,74,127
17717,note_off,109,0,0,,2,,,74,127
17717,note_off,0,0,0,,12,,,59,127
17718,note_on,1,0,0,,10,,,57,127
17718,note_on,0,0,0,,3,,,75,127
17827,note_off,109,0,0,,3,,,75,127
17828,note_on,1,0,0,,4,,,76,127
17937,note_off,109,0,0,,10,,,57,127
17937,note_off,0,0,0,,4,,,52,127
17938,note_on,1,0,0,,2,,,50,127
17993,note_off,55,0,0,,4,,,76,127
18048,note_on,55,0,0,,5,,,77,127
18157,note_off,109,0,0,,5,,,77,127
18157,note_off,0,0,0,,2,,,50,127
18158,note_on,1,0,0,,2,,,50,127
18158,note_on,0,0,0,,6,,,78,127
18267,note_off,109,0,0,,6,,,78,127
18268,note_on,1,0,0,,8,,,80,127
18377,note_off,109,0,0,,8,,,80,127
18377,note_off,0,0,0,,2,,,50,127
18378,note_on,1,0,0,,2,,,50,127
18378,note_on,0,0,0,,10,,,81,127
18487,note_off,109,0,0,,10,,,81,127
18488,note_on,1,0,0,,6,,,78,127
18597,note_off,109,0,0,,2,,,50,127
18598,note_on,1,0,0,,1,,,49,127
18653,note_off,55,0,0,,6,,,78,127
18708,note_on,55,0,0,,4,,,76,127
18817,note_off,109,0,0,,4,,,76,127
18817,note_off,0,0,0,,1,,,49,127
18818,note_on,1,0,0,,1,,,49,127
18818,note_on,0,0,0,,6,,,78,127
18927,note_off,109,0,0,,6,,,78,127
18928,note_on,1,0,0,,8,,,80,127
19037,note_off,109,0,0,,8,,,80,127
19037,note_off,0,0,0,,1,,,49,127
19038,note_on,1,0,0,,1,,,49,127
19038,note_on,0,0,0,,10,,,81,127
19147,note_off,109,0,0,,10,,,81,127
19148,note_on,1,0,0,,4,,,76,127
19257,note_off,109,0,0,,4,,,76,127
19257,note_off,0,0,0,,1,,,49,127
19258,note_on,1,0,0,,2,,,50,127
19258,note_on,0,0,0,,2,,,74,127
19367,note_off,109,0,0,,2,,,74,127
19368,note_on,1,0,0,,6,,,78,127
19477,note_off,109,0,0,,6,,,78,127
19477,note_off,0,0,0,,2,,,50,127
19478,note_on,1,0,0,,4,,,52,127
19478,note_on,0,0,0,,4,,,76,127
19587,note_off,109,0,0,,4,,,76,127
19588,note_on,1,0,0,,2,,,74,127
19697,note_off,109,0,0,,2,,,74,127
19697,note_off,0,0,0,,4,,,52,127
19698,note_on,1,0,0,,4,,,40,127
19698,note_on,0,0,0,,1,,,73,127
19807,note_off,109,0,0,,1,,,73,127
19808,note_on,1,0,0,,12,,,71,127
19917,note_off,109,0,0,,12,,,71,127
19917,note_off,0,0,0,,4,,,40,127
19918,note_on,1,0,0,,10,,,45,127
19918,note_on,0,0,0,,10,,,33,127
19918,note_on,0,0,0,,10,,,69,127
20136,note_off,218,0,0,,10,,,69,127
20137,note_on,1,0,0,,10,,,69,127
20352,note_off,215,0,0,,10,,,33,127
20352,note_off,0,0,0,,10,,,45,127
20355,note_off,3,0,0,,10,,,69,127
20356,note_on,1,0,0,,10,,,69,127
20574,note_off,218,0,0,,10,,,69,127
20575,note_on,1,0,0,,8,,,80,127
20794,note_on,219,0,0,,10,,,57,127
20794,note_on,0,0,0,,5,,,65,127
20794,note_on,0,0,0,,2,,,62,127
20794,note_on,0,0,0,,5,,,77,127
21012,note_off,218,0,0,,2,,,62,127
21012,note_off,0,0,0,,5,,,65,127
21013,note_on,1,0,0,,2,,,62,127
21013,note_on,0,0,0,,5,,,65,127
21228,note_off,215,0,0,,10,,,57,127
21231,note_off,3,0,0,,5,,,65,127
21231,note_off,0,0,0,,2,,,62,127
21231,note_off,0,0,0,,5,,,77,127
21231,note_off,0,0,0,,8,,,80,127
21232,note_on,1,0,0,,10,,,57,127
21232,note_on,0,0,0,,4,,,64,127
21232,note_on,0,0,0,,0,,,60,127
21232,note_on,0,0,0,,10,,,81,127
21341,note_off,109,0,0,,10,,,81,127
21342,note_on,1,0,0,,4,,,76,127
21451,note_off,109,0,0,,4,,,76,127
21452,note_on,1,0,0,,2,,,74,127
21561,note_off,109,0,0,,2,,,74,127
21562,note_on,1,0,0,,0,,,72,127
21671,note_off,109,0,0,,0,,,72,127
21672,note_on,1,0,0,,12,,,71,127
21781,note_off,109,0,0,,12,,,71,127
21782,note_on,1,0,0,,10,,,69,127
21891,note_off,109,0,0,,10,,,69,127
21891,note_off,0,0,0,,0,,,60,127
21891,note_off,0,0,0,,4,,,64,127
21891,note_off,0,0,0,,10,,,57,127
21892,note_on,1,0,0,,8,,,80,127
22110,note_off,218,0,0,,8,,,80,127
22111,note_on,1,0,0,,10,,,57,127
22111,note_on,0,0,0,,2,,,62,127
22111,note_on,0,0,0,,5,,,65,127
22111,note_on,0,0,0,,5,,,77,127
22329,note_off,218,0,0,,5,,,65,127
22329,note_off,0,0,0,,2,,,62,127
22330,note_on,1,0,0,,5,,,65,127
22330,note_on,0,0,0,,2,,,62,127
22545,note_off,215,0,0,,10,,,57,127
22548,note_off,3,0,0,,2,,,62,127
22548,note_off,0,0,0,,5,,,65,127
22548,note_off,0,0,0,,5,,,77,127
22549,note_on,1,0,0,,10,,,57,127
22549,note_on,0,0,0,,0,,,60,127
22549,note_on,0,0,0,,4,,,64,127
22549,note_on,0,0,0,,10,,,81,127
22658,note_off,109,0,0,,10,,,81,127
22659,note_on,1,0,0,,4,,,76,127
22768,note_off,109,0,0,,4,,,76,127
22769,note_on,1,0,0,,2,,,74,127
22878,note_off,109,0,0,,2,,,74,127
22879,note_on,1,0,0,,0,,,72,127
22988,note_off,109,0,0,,0,,,72,127
22989,note_on,1,0,0,,12,,,71,127
23098,note_off,109,0,0,,12,,,71,127
23099,note_on,1,0,0,,10,,,69,127
23208,note_off,109,0,0,,10,,,69,127
23208,note_off,0,0,0,,4,,,64,127
23208,note_off,0,0,0,,0,,,60,127
23208,note_off,0,0,0,,10,,,57,127
23209,note_on,1,0,0,,12,,,71,127
23427,note_off,218,0,0,,12,,,71,127
23428,note_on,1,0,0,,12,,,59,127
23428,note_on,0,0,0,,8,,,56,127
23428,note_on,0,0,0,,12,,,83,127
23646,note_off,218,0,0,,8,,,56,127
23647,note_on,1,0,0,,4,,,52,127
23862,note_off,215,0,0,,12,,,59,127
23865,note_off,3,0,0,,4,,,52,127
23865,note_off,0,0,0,,12,,,83,127
23866,note_on,1,0,0,,10,,,57,127
23866,note_on,0,0,0,,0,,,84,127
23975,note_off,109,0,0,,0,,,84,127
23976,note_on,1,0,0,,12,,,83,127
24085,note_off,109,0,0,,12,,,83,127
24085,note_off,0,0,0,,10,,,57,127
24086,note_on,1,0,0,,12,,,59,127
24086,note_on,0,0,0,,10,,,81,127
24195,note_off,109,0,0,,10,,,81,127
24196,note_on,1,0,0,,7,,,79,127
24305,note_off,109,0,0,,7,,,79,127
24305,note_off,0,0,0,,12,,,59,127
24306,note_on,1,0,0,,0,,,60,127
24306,note_on,0,0,0,,5,,,77,127
24415,note_off,109,0,0,,5,,,77,127
24416,note_on,1,0,0,,4,,,76,127
24525,note_off,109,0,0,,4,,,76,127
24525,note_off,0,0,0,,0,,,60,127
24526,note_on,1,0,0,,2,,,50,127
24526,note_on,0,0,0,,5,,,77,127
24635,note_off,109,0,0,,5,,,77,127
24636,note_on,1,0,0,,4,,,76,127
24745,note_off,109,0,0,,4,,,76,127
24745,note_off,0,0,0,,2,,,50,127
24746,note_on,1,0,0,,4,,,52,127
24746,note_on,0,0,0,,2,,,74,127
24855,note_off,109,0,0,,2,,,74,127
24856,note_on,1,0,0,,0,,,72,127
24965,note_off,109,0,0,,0,,,72,127
24965,note_off,0,0,0,,4,,,52,127
24966,note_on,1,0,0,,5,,,53,127
24966,note_on,0,0,0,,12,,,71,127
25075,note_off,109,0,0,,12,,,71,127
25076,note_on,1,0,0,,10,,,69,127
25185,note_off,109,0,0,,10,,,69,127
25185,note_off,0,0,0,,5,,,53,127
25186,note_on,1,0,0,,4,,,52,127
25186,note_on,0,0,0,,12,,,71,127
25295,note_off,109,0,0,,12,,,71,127
25296,note_on,1,0,0,,10,,,69,127
25405,note_off,109,0,0,,10,,,69,127
25405,note_off,0,0,0,,4,,,52,127
25406,note_on,1,0,0,,4,,,40,127
25406,note_on,0,0,0,,8,,,68,127
25460,note_off,54,0,0,,8,,,68,127
25461,note_on,1,0,0,,10,,,69,127
25515,note_off,54,0,0,,10,,,69,127
25516,note_on,1,0,0,,8,,,68,127
25570,note_off,54,0,0,,8,,,68,127
25571,note_on,1,0,0,,6,,,66,127
25625,note_off,54,0,0,,6,,,66,127
25626,note_on,1,0,0,,4,,,64,127
25843,note_off,217,0,0,,4,,,64,127
25844,note_off,1,0,0,,4,,,40,127
25859,note_on,15,0,0,,4,,,52,127
25969,note_on,110,0,0,,4,,,76,127
26078,note_off,109,0,0,,4,,,76,127
26079,note_on,1,0,0,,4,,,64,127
26188,note_off,109,0,0,,4,,,64,127
26189,note_on,1,0,0,,6,,,66,127
26298,note_off,109,0,0,,6,,,66,127
26299,note_on,1,0,0,,8,,,68,127
26299,note_on,0,0,0,,2,,,62,127
26408,note_off,109,0,0,,8,,,68,127
26409,note_on,1,0,0,,4,,,64,127
26518,note_off,109,0,0,,4,,,64,127
26518,note_off,0,0,0,,2,,,62,127
26518,note_off,0,0,0,,4,,,52,127
26519,note_on,1,0,0,,10,,,69,127
26519,note_on,0,0,0,,4,,,52,127
26519,note_on,0,0,0,,1,,,61,127
26628,note_off,109,0,0,,10,,,69,127
26629,note_on,1,0,0,,12,,,71,127
26738,note_off,109,0,0,,12,,,71,127
26738,note_off,0,0,0,,1,,,61,127
26739,note_on,1,0,0,,1,,,73,127
26739,note_on,0,0,0,,12,,,59,127
26848,note_off,109,0,0,,1,,,73,127
26849,note_on,1,0,0,,2,,,74,127
26958,note_off,109,0,0,,2,,,74,127
26958,note_off,0,0,0,,12,,,59,127
26959,note_on,1,0,0,,3,,,75,127
26959,note_on,0,0,0,,10,,,57,127
27068,note_off,109,0,0,,3,,,75,127
27069,note_on,1,0,0,,4,,,76,127
27178,note_off,109,0,0,,10,,,57,127
27178,note_off,0,0,0,,4,,,52,127
27179,note_on,1,0,0,,4,,,52,127
27288,note_off,109,0,0,,4,,,76,127
27289,note_on,1,0,0,,4,,,76,127
27398,note_off,109,0,0,,4,,,76,127
27399,note_on,1,0,0,,4,,,64,127
27508,note_off,109,0,0,,4,,,64,127
27509,note_on,1,0,0,,6,,,66,127
27618,note_off,109,0,0,,6,,,66,127
27619,note_on,1,0,0,,8,,,68,127
27619,note_on,0,0,0,,2,,,62,127
27728,note_off,109,0,0,,8,,,68,127
27729,note_on,1,0,0,,4,,,64,127
27838,note_off,109,0,0,,4,,,64,127
27838,note_off,0,0,0,,2,,,62,127
27838,note_off,0,0,0,,4,,,52,127
27839,note_on,1,0,0,,10,,,69,127
27839,note_on,0,0,0,,1,,,61,127
27839,note_on,0,0,0,,4,,,52,127
27948,note_off,109,0,0,,10,,,69,127
27949,note_on,1,0,0,,12,,,71,127
28058,note_off,109,0,0,,12,,,71,127
28058,note_off,0,0,0,,1,,,61,127
28059,note_on,1,0,0,,1,,,73,127
28059,note_on,0,0,0,,12,,,59,127
28168,note_off,109,0,0,,1,,,73,127
28169,note_on,1,0,0,,2,,,74,127
28278,note_off,109,0,0,,2,,,74,127
28278,note_off,0,0,0,,12,,,59,127
28279,note_on,1,0,0,,3,,,75,127
28279,note_on,0,0,0,,10,,,57,127
28388,note_off,109,0,0,,3,,,75,127
28389,note_on,1,0,0,,4,,,76,127
28498,note_off,109,0,0,,10,,,57,127
28498,note_off,0,0,0,,4,,,52,127
28499,note_on,1,0,0,,2,,,50,127
28554,note_off,55,0,0,,4,,,76,127
28609,note_on,55,0,0,,5,,,77,127
28718,note_off,109,0,0,,5,,,77,127
28718,note_off,0,0,0,,2,,,50,127
28719,note_on,1,0,0,,6,,,78,127
28719,note_on,0,0,0,,2,,,50,127
28828,note_off,109,0,0,,6,,,78,127
28829,note_on,1,0,0,,8,,,80,127
28938,note_off,109,0,0,,8,,,80,127
28938,note_off,0,0,0,,2,,,50,127
28939,note_on,1,0,0,,10,,,81,127
28939,note_on,0,0,0,,2,,,50,127
29048,note_off,109,0,0,,10,,,81,127
29049,note_on,1,0,0,,6,,,78,127
29158,note_off,109,0,0,,2,,,50,127
29159,note_on,1,0,0,,1,,,49,127
29214,note_off,55,0,0,,6,,,78,127
29269,note_on,55,0,0,,4,,,76,127
29378,note_off,109,0,0,,4,,,76,127
29378,note_off,0,0,0,,1,,,49,127
29379,note_on,1,0,0,,6,,,78,127
29379,note_on,0,0,0,,1,,,49,127
29488,note_off,109,0,0,,6,,,78,127
29489,note_on,1,0,0,,8,,,80,127
29598,note_off,109,0,0,,8,,,80,127
29598,note_off,0,0,0,,1,,,49,127
29599,note_on,1,0,0,,10,,,81,127
29599,note_on,0,0,0,,1,,,49,127
29708,note_off,109,0,0,,10,,,81,127
29709,note_on,1,0,0,,4,,,76,127
29818,note_off,109,0,0,,4,,,76,127
29818,note_off,0,0,0,,1,,,49,127
29819,note_on,1,0,0,,2,,,74,127
29819,note_on,0,0,0,,2,,,50,127
29928,note_off,109,0,0,,2,,,74,127
29929,note_on,1,0,0,,6,,,78,127
30038,note_off,109,0,0,,6,,,78,127
30038,note_off,0,0,0,,2,,,50,127
30039,note_on,1,0,0,,4,,,76,127
30039,note_on,0,0,0,,4,,,52,127
30148,note_off,109,0,0,,4,,,76,127
30149,note_on,1,0,0,,2,,,74,127
30258,note_off,109,0,0,,2,,,74,127
30258,note_off,0,0,0,,4,,,52,127
30259,note_on,1,0,0,,1,,,73,127
30259,note_on,0,0,0,,4,,,40,127
30368,note_off,109,0,0,,1,,,73,127
30369,note_on,1,0,0,,12,,,71,127
30478,note_off,109,0,0,,12,,,71,127
30478,note_off,0,0,0,,4,,,40,127
30479,note_on,1,0,0,,10,,,69,127
30479,note_on,0,0,0,,10,,,45,127
30588,note_off,109,0,0,,10,,,69,127
30589,note_on,1,0,0,,10,,,81,127
30698,note_off,109,0,0,,10,,,81,127
30698,note_off,0,0,0,,10,,,45,127
30699,note_on,1,0,0,,4,,,76,127
30699,note_on,0,0,0,,12,,,47,127
30808,note_off,109,0,0,,4,,,76,127
30809,note_on,1,0,0,,1,,,73,127
30918,note_off,109,0,0,,1,,,73,127
30918,note_off,0,0,0,,12,,,47,127
30919,note_on,1,0,0,,10,,,69,127
30919,note_on,0,0,0,,1,,,49,127
31028,note_off,109,0,0,,10,,,69,127
31029,note_on,1,0,0,,4,,,76,127
31138,note_off,109,0,0,,4,,,76,127
31138,note_off,0,0,0,,1,,,49,127
31139,note_on,1,0,0,,2,,,74,127
31139,note_on,0,0,0,,2,,,50,127
31248,note_off,109,0,0,,2,,,74,127
31249,note_on,1,0,0,,6,,,78,127
31358,note_off,109,0,0,,6,,,78,127
31358,note_off,0,0,0,,2,,,50,127
31359,note_on,1,0,0,,4,,,76,127
31359,note_on,0,0,0,,4,,,52,127
31468,note_off,109,0,0,,4,,,76,127
31469,note_on,1,0,0,,2,,,74,127
31578,note_off,109,0,0,,2,,,74,127
31578,note_off,0,0,0,,4,,,52,127
31579,note_on,1,0,0,,1,,,73,127
31579,note_on,0,0,0,,4,,,40,127
31688,note_off,109,0,0,,1,,,73,127
31689,note_on,1,0,0,,12,,,71,127
31798,note_off,109,0,0,,12,,,71,127
31798,note_off,0,0,0,,4,,,40,127
31799,note_on,1,0,0,,10,,,69,127
31799,note_on,0,0,0,,10,,,45,127
32233,note_off,434,0,0,,10,,,69,127
32456,note_off,223,0,0,,10,,,45,127
32457,note_on,1,0,0,,10,,,57,127
32567,note_on,110,0,0,,10,,,81,127
32676,note_off,109,0,0,,10,,,81,127
32677,note_on,1,0,0,,10,,,69,127
32786,note_off,109,0,0,,10,,,69,127
32787,note_on,1,0,0,,12,,,71,127
32896,note_off,109,0,0,,12,,,71,127
32896,note_off,0,0,0,,10,,,57,127
32897,note_on,1,0,0,,1,,,73,127
32897,note_on,0,0,0,,10,,,69,127
33006,note_off,109,0,0,,1,,,73,127
33007,note_on,1,0,0,,2,,,74,127
33116,note_off,109,0,0,,2,,,74,127
33116,note_off,0,0,0,,10,,,69,127
33117,note_on,1,0,0,,4,,,76,127
33117,note_on,0,0,0,,7,,,67,127
33226,note_off,109,0,0,,4,,,76,127
33227,note_on,1,0,0,,6,,,78,127
33336,note_off,109,0,0,,6,,,78,127
33336,note_off,0,0,0,,7,,,67,127
33337,note_on,1,0,0,,7,,,79,127
33337,note_on,0,0,0,,6,,,66,127
33446,note_off,109,0,0,,7,,,79,127
33447,note_on,1,0,0,,10,,,81,127
33556,note_off,109,0,0,,10,,,81,127
33556,note_off,0,0,0,,6,,,66,127
33557,note_on,1,0,0,,12,,,83,127
33557,note_on,0,0,0,,4,,,64,127
33666,note_off,109,0,0,,12,,,83,127
33667,note_on,1,0,0,,1,,,85,127
33776,note_off,109,0,0,,1,,,85,127
33776,note_off,0,0,0,,4,,,64,127
33777,note_on,1,0,0,,2,,,86,127
33777,note_on,0,0,0,,2,,,62,127
33886,note_off,109,0,0,,2,,,86,127
33887,note_on,1,0,0,,1,,,85,127
33996,note_off,109,0,0,,1,,,85,127
33996,note_off,0,0,0,,2,,,62,127
33997,note_on,1,0,0,,12,,,83,127
33997,note_on,0,0,0,,4,,,64,127
34106,note_off,109,0,0,,12,,,83,127
34107,note_on,1,0,0,,10,,,81,127
34216,note_off,109,0,0,,10,,,81,127
34216,note_off,0,0,0,,4,,,64,127
34217,note_on,1,0,0,,7,,,79,127
34217,note_on,0,0,0,,6,,,66,127
34326,note_off,109,0,0,,7,,,79,127
34327,note_on,1,0,0,,6,,,78,127
34436,note_off,109,0,0,,6,,,78,127
34436,note_off,0,0,0,,6,,,66,127
34437,note_on,1,0,0,,4,,,76,127
34437,note_on,0,0,0,,7,,,67,127
34546,note_off,109,0,0,,4,,,76,127
34547,note_on,1,0,0,,6,,,78,127
34656,note_off,109,0,0,,6,,,78,127
34656,note_off,0,0,0,,7,,,67,127
34657,note_on,1,0,0,,7,,,79,127
34657,note_on,0,0,0,,6,,,66,127
34766,note_off,109,0,0,,7,,,79,127
34767,note_on,1,0,0,,10,,,81,127
34876,note_off,109,0,0,,10,,,81,127
34876,note_off,0,0,0,,6,,,66,127
34877,note_on,1,0,0,,12,,,83,127
34877,note_on,0,0,0,,4,,,64,127
34986,note_off,109,0,0,,12,,,83,127
34987,note_on,1,0,0,,1,,,85,127
35096,note_off,109,0,0,,1,,,85,127
35096,note_off,0,0,0,,4,,,64,127
35097,note_on,1,0,0,,2,,,86,127
35097,note_on,0,0,0,,2,,,62,127
35206,note_off,109,0,0,,2,,,86,127
35207,note_on,1,0,0,,1,,,85,127
35316,note_off,109,0,0,,1,,,85,127
35316,note_off,0,0,0,,2,,,62,127
35317,note_on,1,0,0,,12,,,83,127
35317,note_on,0,0,0,,4,,,64,127
35426,note_off,109,0,0,,12,,,83,127
35427,note_on,1,0,0,,10,,,81,127
35536,note_off,109,0,0,,10,,,81,127
35536,note_off,0,0,0,,4,,,64,127
35537,note_on,1,0,0,,7,,,79,127
35537,note_on,0,0,0,,6,,,66,127
35646,note_off,109,0,0,,7,,,79,127
35647,note_on,1,0,0,,6,,,78,127
35756,note_off,109,0,0,,6,,,78,127
35756,note_off,0,0,0,,6,,,66,127
35757,note_on,1,0,0,,4,,,76,127
35757,note_on,0,0,0,,7,,,55,127
35757,note_on,0,0,0,,7,,,67,127
35866,note_off,109,0,0,,4,,,76,127
35867,note_on,1,0,0,,2,,,74,127
35976,note_off,109,0,0,,2,,,74,127
35976,note_off,0,0,0,,7,,,67,127
35976,note_off,0,0,0,,7,,,55,127
35977,note_on,1,0,0,,1,,,73,127
35977,note_on,0,0,0,,10,,,57,127
36086,note_off,109,0,0,,1,,,73,127
36087,note_on,1,0,0,,12,,,71,127
36196,note_off,109,0,0,,12,,,71,127
36196,note_off,0,0,0,,10,,,57,127
36197,note_on,1,0,0,,10,,,69,127
36197,note_on,0,0,0,,10,,,45,127
36306,note_off,109,0,0,,10,,,69,127
36307,note_on,1,0,0,,7,,,67,127
36416,note_off,109,0,0,,7,,,67,127
36416,note_off,0,0,0,,10,,,45,127
36417,note_on,1,0,0,,10,,,69,127
36417,note_on,0,0,0,,2,,,50,127
36526,note_off,109,0,0,,10,,,69,127
36527,note_on,1,0,0,,7,,,67,127
36636,note_off,109,0,0,,7,,,67,127
36636,note_off,0,0,0,,2,,,50,127
36637,note_on,1,0,0,,6,,,66,127
36637,note_on,0,0,0,,2,,,38,127
36691,note_off,54,0,0,,6,,,66,127
36692,note_on,1,0,0,,7,,,67,127
36746,note_off,54,0,0,,7,,,67,127
36747,note_on,1,0,0,,6,,,66,127
36801,note_off,54,0,0,,6,,,66,127
36802,note_on,1,0,0,,4,,,64,127
36856,note_off,54,0,0,,4,,,64,127
36857,note_on,1,0,0,,2,,,62,127
37074,note_off,217,0,0,,2,,,62,127
37075,note_off,1,0,0,,2,,,38,127
37076,note_on,1,0,0,,2,,,62,127
37294,note_off,218,0,0,,2,,,62,127
37295,note_on,1,0,0,,0,,,72,127
37295,note_on,0,0,0,,2,,,74,127
37295,note_on,0,0,0,,2,,,62,127
37404,note_off,109,0,0,,2,,,62,127
37405,note_on,1,0,0,,4,,,64,127
37514,note_off,109,0,0,,4,,,64,127
37514,note_off,0,0,0,,2,,,74,127
37514,note_off,0,0,0,,0,,,72,127
37515,note_on,1,0,0,,0,,,72,127
37515,note_on,0,0,0,,2,,,74,127
37515,note_on,0,0,0,,6,,,66,127
37624,note_off,109,0,0,,6,,,66,127
37625,note_on,1,0,0,,2,,,62,127
37734,note_off,109,0,0,,2,,,62,127
37734,note_off,0,0,0,,2,,,74,127
37734,note_off,0,0,0,,0,,,72,127
37735,note_on,1,0,0,,12,,,71,127
37735,note_on,0,0,0,,2,,,74,127
37735,note_on,0,0,0,,7,,,67,127
37953,note_off,218,0,0,,7,,,67,127
37953,note_off,0,0,0,,2,,,74,127
37953,note_off,0,0,0,,12,,,71,127
37954,note_on,1,0,0,,2,,,74,127
37954,note_on,0,0,0,,0,,,72,127
37954,note_on,0,0,0,,6,,,66,127
38063,note_off,109,0,0,,6,,,66,127
38064,note_on,1,0,0,,4,,,64,127
38173,note_off,109,0,0,,4,,,64,127
38173,note_off,0,0,0,,0,,,72,127
38173,note_off,0,0,0,,2,,,74,127
38174,note_on,1,0,0,,2,,,74,127
38174,note_on,0,0,0,,0,,,72,127
38174,note_on,0,0,0,,6,,,66,127
38283,note_off,109,0,0,,6,,,66,127
38284,note_on,1,0,0,,2,,,62,127
38393,note_off,109,0,0,,2,,,62,127
38393,note_off,0,0,0,,0,,,72,127
38393,note_off,0,0,0,,2,,,74,127
38394,note_on,1,0,0,,12,,,71,127
38394,note_on,0,0,0,,2,,,74,127
38394,note_on,0,0,0,,7,,,67,127
38612,note_off,218,0,0,,7,,,67,127
38612,note_off,0,0,0,,2,,,74,127
38612,note_off,0,0,0,,12,,,71,127
38613,note_on,1,0,0,,2,,,74,127
38613,note_on,0,0,0,,0,,,72,127
38613,note_on,0,0,0,,6,,,66,127
38722,note_off,109,0,0,,6,,,66,127
38723,note_on,1,0,0,,4,,,64,127
38832,note_off,109,0,0,,4,,,64,127
38832,note_off,0,0,0,,0,,,72,127
38832,note_off,0,0,0,,2,,,74,127
38833,note_on,1,0,0,,2,,,74,127
38833,note_on,0,0,0,,0,,,72,127
38833,note_on,0,0,0,,6,,,66,127
38942,note_off,109,0,0,,6,,,66,127
38943,note_on,1,0,0,,2,,,62,127
39052,note_off,109,0,0,,2,,,62,127
39052,note_off,0,0,0,,0,,,72,127
39052,note_off,0,0,0,,2,,,74,127
39053,note_on,1,0,0,,12,,,71,127
39053,note_on,0,0,0,,7,,,67,127
39162,note_off,109,0,0,,12,,,71,127
39163,note_on,1,0,0,,10,,,69,127
39272,note_off,109,0,0,,10,,,69,127
39273,note_on,1,0,0,,12,,,71,127
39382,note_off,109,0,0,,12,,,71,127
39383,note_off,1,0,0,,7,,,67,127
39383,note_on,0,0,0,,0,,,72,127
39492,note_off,109,0,0,,0,,,72,127
39493,note_on,1,0,0,,2,,,74,127
39602,note_off,109,0,0,,2,,,74,127
39603,note_on,1,0,0,,12,,,71,127
39712,note_off,109,0,0,,12,,,71,127
39713,note_on,1,0,0,,4,,,76,127
39931,note_off,218,0,0,,4,,,76,127
39932,note_on,1,0,0,,2,,,74,127
39932,note_on,0,0,0,,4,,,76,127
39932,note_on,0,0,0,,4,,,64,127
40041,note_off,109,0,0,,4,,,64,127
40042,note_on,1,0,0,,6,,,66,127
40151,note_off,109,0,0,,6,,,66,127
40151,note_off,0,0,0,,4,,,76,127
40151,note_off,0,0,0,,2,,,74,127
40152,note_on,1,0,0,,4,,,76,127
40152,note_on,0,0,0,,2,,,74,127
40152,note_on,0,0,0,,8,,,68,127
40261,note_off,109,0,0,,8,,,68,127
40262,note_on,1,0,0,,4,,,64,127
40371,note_off,109,0,0,,4,,,64,127
40371,note_off,0,0,0,,2,,,74,127
40371,note_off,0,0,0,,4,,,76,127
40372,note_on,1,0,0,,1,,,73,127
40372,note_on,0,0,0,,4,,,76,127
40372,note_on,0,0,0,,10,,,69,127
40590,note_off,218,0,0,,10,,,69,127
40590,note_off,0,0,0,,4,,,76,127
40590,note_off,0,0,0,,1,,,73,127
40591,note_on,1,0,0,,4,,,76,127
40591,note_on,0,0,0,,2,,,74,127
40591,note_on,0,0,0,,8,,,68,127
40700,note_off,109,0,0,,8,,,68,127
40701,note_on,1,0,0,,6,,,66,127
40810,note_off,109,0,0,,6,,,66,127
40810,note_off,0,0,0,,2,,,74,127
40810,note_off,0,0,0,,4,,,76,127
40811,note_on,1,0,0,,2,,,74,127
40811,note_on,0,0,0,,4,,,76,127
40811,note_on,0,0,0,,8,,,68,127
40920,note_off,109,0,0,,8,,,68,127
40921,note_on,1,0,0,,4,,,64,127
41030,note_off,109,0,0,,4,,,64,127
41030,note_off,0,0,0,,4,,,76,127
41030,note_off,0,0,0,,2,,,74,127
41031,note_on,1,0,0,,1,,,73,127
41031,note_on,0,0,0,,4,,,76,127
41031,note_on,0,0,0,,10,,,69,127
41249,note_off,218,0,0,,10,,,69,127
41249,note_off,0,0,0,,4,,,76,127
41249,note_off,0,0,0,,1,,,73,127
41250,note_on,1,0,0,,2,,,74,127
41250,note_on,0,0,0,,4,,,76,127
41250,note_on,0,0,0,,8,,,68,127
41359,note_off,109,0,0,,8,,,68,127
41360,note_on,1,0,0,,6,,,66,127
41469,note_off,109,0,0,,6,,,66,127
41469,note_off,0,0,0,,4,,,76,127
41469,note_off,0,0,0,,2,,,74,127
41470,note_on,1,0,0,,4,,,76,127
41470,note_on,0,0,0,,2,,,74,127
41470,note_on,0,0,0,,8,,,68,127
41579,note_off,109,0,0,,8,,,68,127
41580,note_on,1,0,0,,4,,,64,127
41689,note_off,109,0,0,,4,,,64,127
41689,note_off,0,0,0,,2,,,74,127
41689,note_off,0,0,0,,4,,,76,127
41690,note_on,1,0,0,,1,,,73,127
41690,note_on,0,0,0,,10,,,69,127
41799,note_off,109,0,0,,1,,,73,127
41800,note_on,1,0,0,,12,,,71,127
41909,note_off,109,0,0,,12,,,71,127
41910,note_on,1,0,0,,1,,,73,127
42019,note_off,109,0,0,,1,,,73,127
42020,note_off,1,0,0,,10,,,69,127
42020,note_on,0,0,0,,2,,,74,127
42129,note_off,109,0,0,,2,,,74,127
42130,note_on,1,0,0,,4,,,76,127
42239,note_off,109,0,0,,4,,,76,127
42240,note_on,1,0,0,,1,,,73,127
42349,note_off,109,0,0,,1,,,73,127
42350,note_on,1,0,0,,6,,,78,127
42568,note_off,218,0,0,,6,,,78,127
42569,note_on,1,0,0,,4,,,76,127
42569,note_on,0,0,0,,6,,,78,127
42569,note_on,0,0,0,,6,,,66,127
42678,note_off,109,0,0,,6,,,66,127
42679,note_on,1,0,0,,8,,,68,127
42788,note_off,109,0,0,,8,,,68,127
42788,note_off,0,0,0,,6,,,78,127
42788,note_off,0,0,0,,4,,,76,127
42789,note_on,1,0,0,,4,,,76,127
42789,note_on,0,0,0,,6,,,78,127
42789,note_on,0,0,0,,11,,,70,127
42898,note_off,109,0,0,,11,,,70,127
42899,note_on,1,0,0,,6,,,66,127
43008,note_off,109,0,0,,6,,,66,127
43008,note_off,0,0,0,,6,,,78,127
43008,note_off,0,0,0,,4,,,76,127
43009,note_on,1,0,0,,6,,,78,127
43009,note_on,0,0,0,,2,,,74,127
43009,note_on,0,0,0,,12,,,71,127
43227,note_off,218,0,0,,12,,,71,127
43227,note_off,0,0,0,,2,,,74,127
43227,note_off,0,0,0,,6,,,78,127
43228,note_on,1,0,0,,4,,,76,127
43228,note_on,0,0,0,,6,,,78,127
43228,note_on,0,0,0,,11,,,70,127
43337,note_off,109,0,0,,11,,,70,127
43338,note_on,1,0,0,,8,,,68,127
43447,note_off,109,0,0,,8,,,68,127
43447,note_off,0,0,0,,6,,,78,127
43447,note_off,0,0,0,,4,,,76,127
43448,note_on,1,0,0,,6,,,78,127
43448,note_on,0,0,0,,4,,,76,127
43448,note_on,0,0,0,,11,,,70,127
43557,note_off,109,0,0,,11,,,70,127
43558,note_on,1,0,0,,6,,,66,127
43667,note_off,109,0,0,,6,,,66,127
43667,note_off,0,0,0,,4,,,76,127
43667,note_off,0,0,0,,6,,,78,127
43668,note_on,1,0,0,,2,,,74,127
43668,note_on,0,0,0,,6,,,78,127
43668,note_on,0,0,0,,12,,,71,127
43886,note_off,218,0,0,,12,,,71,127
43886,note_off,0,0,0,,6,,,78,127
43886,note_off,0,0,0,,2,,,74,127
43887,note_on,1,0,0,,4,,,76,127
43887,note_on,0,0,0,,6,,,78,127
43887,note_on,0,0,0,,11,,,70,127
43996,note_off,109,0,0,,11,,,70,127
43997,note_on,1,0,0,,8,,,68,127
44106,note_off,109,0,0,,8,,,68,127
44106,note_off,0,0,0,,6,,,78,127
44106,note_off,0,0,0,,4,,,76,127
44107,note_on,1,0,0,,4,,,76,127
44107,note_on,0,0,0,,6,,,78,127
44107,note_on,0,0,0,,11,,,70,127
44216,note_off,109,0,0,,11,,,70,127
44217,note_on,1,0,0,,6,,,66,127
44313,note_off,96,0,0,,6,,,78,127
44313,note_off,0,0,0,,4,,,76,127
44326,note_off,13,0,0,,6,,,66,127
44337,note_on,11,0,0,,12,,,59,127
44447,note_on,110,0,0,,12,,,83,127
44556,note_off,109,0,0,,12,,,83,127
44557,note_on,1,0,0,,12,,,71,127
44666,note_off,109,0,0,,12,,,71,127
44667,note_on,1,0,0,,1,,,73,127
44776,note_off,109,0,0,,1,,,73,127
44777,note_on,1,0,0,,10,,,69,127
44777,note_on,0,0,0,,3,,,75,127
44886,note_off,109,0,0,,3,,,75,127
44887,note_on,1,0,0,,12,,,71,127
44996,note_off,109,0,0,,12,,,71,127
44996,note_off,0,0,0,,10,,,69,127
44996,note_off,0,0,0,,12,,,59,127
44997,note_on,1,0,0,,12,,,59,127
44997,note_on,0,0,0,,7,,,67,127
44997,note_on,0,0,0,,4,,,76,127
45106,note_off,109,0,0,,4,,,76,127
45107,note_on,1,0,0,,6,,,78,127
45216,note_off,109,0,0,,6,,,78,127
45216,note_off,0,0,0,,7,,,67,127
45217,note_on,1,0,0,,6,,,66,127
45217,note_on,0,0,0,,7,,,79,127
45326,note_off,109,0,0,,7,,,79,127
45327,note_on,1,0,0,,10,,,81,127
45436,note_off,109,0,0,,10,,,81,127
45436,note_off,0,0,0,,6,,,66,127
45437,note_on,1,0,0,,4,,,64,127
45437,note_on,0,0,0,,11,,,82,127
45546,note_off,109,0,0,,11,,,82,127
45547,note_on,1,0,0,,12,,,83,127
45656,note_off,109,0,0,,4,,,64,127
45656,note_off,0,0,0,,12,,,59,127
45657,note_on,1,0,0,,12,,,59,127
45766,note_off,109,0,0,,12,,,83,127
45767,note_on,1,0,0,,12,,,83,127
45876,note_off,109,0,0,,12,,,83,127
45877,note_on,1,0,0,,12,,,71,127
45986,note_off,109,0,0,,12,,,71,127
45987,note_on,1,0,0,,1,,,73,127
46096,note_off,109,0,0,,1,,,73,127
46097,note_on,1,0,0,,10,,,69,127
46097,note_on,0,0,0,,3,,,75,127
46206,note_off,109,0,0,,3,,,75,127
46207,note_on,1,0,0,,12,,,71,127
46316,note_off,109,0,0,,12,,,71,127
46316,note_off,0,0,0,,10,,,69,127
46316,note_off,0,0,0,,12,,,59,127
46317,note_on,1,0,0,,12,,,59,127
46317,note_on,0,0,0,,7,,,67,127
46317,note_on,0,0,0,,4,,,76,127
46426,note_off,109,0,0,,4,,,76,127
46427,note_on,1,0,0,,6,,,78,127
46536,note_off,109,0,0,,6,,,78,127
46536,note_off,0,0,0,,7,,,67,127
46537,note_on,1,0,0,,6,,,66,127
46537,note_on,0,0,0,,7,,,79,127
46646,note_off,109,0,0,,7,,,79,127
46647,note_on,1,0,0,,10,,,81,127
46756,note_off,109,0,0,,10,,,81,127
46756,note_off,0,0,0,,6,,,66,127
46757,note_on,1,0,0,,4,,,64,127
46757,note_on,0,0,0,,11,,,82,127
46866,note_off,109,0,0,,11,,,82,127
46867,note_on,1,0,0,,12,,,83,127
46970,note_off,103,0,0,,12,,,83,127
46976,note_off,6,0,0,,4,,,64,127
46976,note_off,0,0,0,,12,,,59,127
46985,note_on,9,0,0,,2,,,62,127
46985,note_on,0,0,0,,12,,,59,127
47095,note_on,110,0,0,,2,,,86,127
47204,note_off,109,0,0,,2,,,86,127
47204,note_off,0,0,0,,12,,,59,127
47204,note_off,0,0,0,,2,,,62,127
47205,note_on,1,0,0,,0,,,84,127
47205,note_on,0,0,0,,2,,,62,127
47205,note_on,0,0,0,,12,,,59,127
47314,note_off,109,0,0,,0,,,84,127
47315,note_on,1,0,0,,12,,,83,127
47424,note_off,109,0,0,,12,,,83,127
47424,note_off,0,0,0,,12,,,59,127
47424,note_off,0,0,0,,2,,,62,127
47425,note_on,1,0,0,,10,,,81,127
47425,note_on,0,0,0,,12,,,59,127
47425,note_on,0,0,0,,2,,,62,127
47534,note_off,109,0,0,,10,,,81,127
47535,note_on,1,0,0,,8,,,80,127
47644,note_off,109,0,0,,2,,,62,127
47644,note_off,0,0,0,,12,,,59,127
47645,note_on,1,0,0,,4,,,64,127
47645,note_on,0,0,0,,0,,,60,127
47661,note_off,16,0,0,,8,,,80,127
47755,note_on,94,0,0,,0,,,84,127
47864,note_off,109,0,0,,0,,,84,127
47864,note_off,0,0,0,,0,,,60,127
47864,note_off,0,0,0,,4,,,64,127
47865,note_on,1,0,0,,12,,,83,127
47865,note_on,0,0,0,,0,,,60,127
47865,note_on,0,0,0,,4,,,64,127
47974,note_off,109,0,0,,12,,,83,127
47975,note_on,1,0,0,,10,,,81,127
48084,note_off,109,0,0,,10,,,81,127
48084,note_off,0,0,0,,4,,,64,127
48084,note_off,0,0,0,,0,,,60,127
48085,note_on,1,0,0,,7,,,79,127
48085,note_on,0,0,0,,4,,,64,127
48085,note_on,0,0,0,,0,,,60,127
48194,note_off,109,0,0,,7,,,79,127
48195,note_on,1,0,0,,6,,,78,127
48304,note_off,109,0,0,,0,,,60,127
48304,note_off,0,0,0,,4,,,64,127
48305,note_on,1,0,0,,2,,,62,127
48305,note_on,0,0,0,,12,,,59,127
48332,note_off,27,0,0,,6,,,78,127
48414,note_on,82,0,0,,12,,,83,127
48523,note_off,109,0,0,,12,,,83,127
48523,note_off,0,0,0,,12,,,59,127
48523,note_off,0,0,0,,2,,,62,127
48524,note_on,1,0,0,,10,,,81,127
48524,note_on,0,0,0,,12,,,59,127
48524,note_on,0,0,0,,2,,,62,127
48633,note_off,109,0,0,,10,,,81,127
48634,note_on,1,0,0,,7,,,79,127
48743,note_off,109,0,0,,7,,,79,127
48743,note_off,0,0,0,,2,,,62,127
48743,note_off,0,0,0,,12,,,59,127
48744,note_on,1,0,0,,6,,,78,127
48744,note_on,0,0,0,,12,,,59,127
48744,note_on,0,0,0,,2,,,62,127
48853,note_off,109,0,0,,6,,,78,127
48854,note_on,1,0,0,,4,,,76,127
48963,note_off,109,0,0,,2,,,62,127
48963,note_off,0,0,0,,12,,,59,127
48964,note_on,1,0,0,,10,,,57,127
48964,note_on,0,0,0,,0,,,60,127
49003,note_off,39,0,0,,4,,,76,127
49074,note_on,71,0,0,,10,,,81,127
49183,note_off,109,0,0,,10,,,81,127
49183,note_off,0,0,0,,0,,,60,127
49183,note_off,0,0,0,,10,,,57,127
49184,note_on,1,0,0,,7,,,79,127
49184,note_on,0,0,0,,10,,,57,127
49184,note_on,0,0,0,,0,,,60,127
49293,note_off,109,0,0,,7,,,79,127
49294,note_on,1,0,0,,6,,,78,127
49403,note_off,109,0,0,,6,,,78,127
49403,note_off,0,0,0,,0,,,60,127
49403,note_off,0,0,0,,10,,,57,127
49404,note_on,1,0,0,,4,,,76,127
49404,note_on,0,0,0,,10,,,57,127
49404,note_on,0,0,0,,0,,,60,127
49513,note_off,109,0,0,,4,,,76,127
49514,note_on,1,0,0,,3,,,75,127
49623,note_off,109,0,0,,0,,,60,127
49623,note_off,0,0,0,,10,,,57,127
49624,note_on,1,0,0,,7,,,55,127
49624,note_on,0,0,0,,12,,,59,127
49674,note_off,50,0,0,,3,,,75,127
49733,note_on,59,0,0,,7,,,79,127
49842,note_off,109,0,0,,7,,,79,127
49842,note_off,0,0,0,,12,,,59,127
49842,note_off,0,0,0,,7,,,55,127
49843,note_on,1,0,0,,6,,,78,127
49843,note_on,0,0,0,,7,,,55,127
49843,note_on,0,0,0,,12,,,59,127
49952,note_off,109,0,0,,6,,,78,127
49953,note_on,1,0,0,,4,,,76,127
50062,note_off,109,0,0,,4,,,76,127
50062,note_off,0,0,0,,12,,,59,127
50062,note_off,0,0,0,,7,,,55,127
50063,note_on,1,0,0,,2,,,74,127
50063,note_on,0,0,0,,7,,,55,127
50063,note_on,0,0,0,,12,,,59,127
50172,note_off,109,0,0,,2,,,74,127
50173,note_on,1,0,0,,1,,,73,127
50282,note_off,109,0,0,,12,,,59,127
50282,note_off,0,0,0,,7,,,55,127
50283,note_on,1,0,0,,10,,,57,127
50283,note_on,0,0,0,,6,,,54,127
50345,note_off,62,0,0,,1,,,73,127
50393,note_on,48,0,0,,10,,,81,127
50502,note_off,109,0,0,,10,,,81,127
50503,note_on,1,0,0,,7,,,79,127
50612,note_off,109,0,0,,7,,,79,127
50613,note_on,1,0,0,,6,,,78,127
50722,note_off,109,0,0,,6,,,78,127
50722,note_off,0,0,0,,6,,,54,127
50722,note_off,0,0,0,,10,,,57,127
50723,note_on,1,0,0,,4,,,76,127
50723,note_on,0,0,0,,7,,,55,127
50832,note_off,109,0,0,,4,,,76,127
50833,note_on,1,0,0,,2,,,74,127
50942,note_off,109,0,0,,2,,,74,127
50942,note_off,0,0,0,,7,,,55,127
50943,note_on,1,0,0,,4,,,76,127
50943,note_on,0,0,0,,10,,,57,127
51052,note_off,109,0,0,,4,,,76,127
51053,note_on,1,0,0,,2,,,74,127
51162,note_off,109,0,0,,2,,,74,127
51162,note_off,0,0,0,,10,,,57,127
51163,note_on,1,0,0,,1,,,73,127
51163,note_on,0,0,0,,10,,,45,127
51217,note_off,54,0,0,,1,,,73,127
51218,note_on,1,0,0,,2,,,74,127
51272,note_off,54,0,0,,2,,,74,127
51273,note_on,1,0,0,,1,,,73,127
51327,note_off,54,0,0,,1,,,73,127
51328,note_on,1,0,0,,12,,,71,127
51382,note_off,54,0,0,,12,,,71,127
51383,note_on,1,0,0,,10,,,69,127
51600,note_off,217,0,0,,10,,,69,127
51601,note_off,1,0,0,,10,,,45,127
51616,note_on,15,0,0,,10,,,57,127
51726,note_on,110,0,0,,10,,,81,127
51835,note_off,109,0,0,,10,,,81,127
51836,note_on,1,0,0,,10,,,69,127
51945,note_off,109,0,0,,10,,,69,127
51946,note_on,1,0,0,,12,,,71,127
52055,note_off,109,0,0,,12,,,71,127
52056,note_on,1,0,0,,7,,,67,127
52056,note_on,0,0,0,,1,,,73,127
52165,note_off,109,0,0,,1,,,73,127
52166,note_on,1,0,0,,10,,,69,127
52275,note_off,109,0,0,,10,,,69,127
52275,note_off,0,0,0,,7,,,67,127
52275,note_off,0,0,0,,10,,,57,127
52276,note_on,1,0,0,,10,,,57,127
52276,note_on,0,0,0,,6,,,66,127
52276,note_on,0,0,0,,2,,,74,127
52385,note_off,109,0,0,,2,,,74,127
52386,note_on,1,0,0,,4,,,76,127
52495,note_off,109,0,0,,4,,,76,127
52495,note_off,0,0,0,,6,,,66,127
52496,note_on,1,0,0,,4,,,64,127
52496,note_on,0,0,0,,6,,,78,127
52605,note_off,109,0,0,,6,,,78,127
52606,note_on,1,0,0,,7,,,79,127
52715,note_off,109,0,0,,7,,,79,127
52715,note_off,0,0,0,,4,,,64,127
52716,note_on,1,0,0,,2,,,62,127
52716,note_on,0,0,0,,8,,,80,127
52825,note_off,109,0,0,,8,,,80,127
52826,note_on,1,0,0,,10,,,81,127
52935,note_off,109,0,0,,2,,,62,127
52935,note_off,0,0,0,,10,,,57,127
52936,note_on,1,0,0,,10,,,57,127
53045,note_off,109,0,0,,10,,,81,127
53046,note_on,1,0,0,,10,,,81,127
53155,note_off,109,0,0,,10,,,81,127
53156,note_on,1,0,0,,10,,,69,127
53265,note_off,109,0,0,,10,,,69,127
53266,note_on,1,0,0,,12,,,71,127
53375,note_off,109,0,0,,12,,,71,127
53376,note_on,1,0,0,,7,,,67,127
53376,note_on,0,0,0,,1,,,73,127
53485,note_off,109,0,0,,1,,,73,127
53486,note_on,1,0,0,,10,,,69,127
53595,note_off,109,0,0,,10,,,69,127
53595,note_off,0,0,0,,7,,,67,127
53595,note_off,0,0,0,,10,,,57,127
53596,note_on,1,0,0,,10,,,57,127
53596,note_on,0,0,0,,6,,,66,127
53596,note_on,0,0,0,,2,,,74,127
53705,note_off,109,0,0,,2,,,74,127
53706,note_on,1,0,0,,4,,,76,127
53815,note_off,109,0,0,,4,,,76,127
53815,note_off,0,0,0,,6,,,66,127
53816,note_on,1,0,0,,4,,,64,127
53816,note_on,0,0,0,,6,,,78,127
53925,note_off,109,0,0,,6,,,78,127
53926,note_on,1,0,0,,7,,,79,127
54035,note_off,109,0,0,,7,,,79,127
54035,note_off,0,0,0,,4,,,64,127
54036,note_on,1,0,0,,2,,,62,127
54036,note_on,0,0,0,,8,,,80,127
54145,note_off,109,0,0,,8,,,80,127
54146,note_on,1,0,0,,10,,,81,127
54255,note_off,109,0,0,,2,,,62,127
54255,note_off,0,0,0,,10,,,57,127
54256,note_on,1,0,0,,7,,,55,127
54311,note_off,55,0,0,,10,,,81,127
54366,note_on,55,0,0,,11,,,82,127
54475,note_off,109,0,0,,11,,,82,127
54475,note_off,0,0,0,,7,,,55,127
54476,note_on,1,0,0,,7,,,55,127
54476,note_on,0,0,0,,12,,,83,127
54585,note_off,109,0,0,,12,,,83,127
54586,note_on,1,0,0,,1,,,85,127
54695,note_off,109,0,0,,1,,,85,127
54695,note_off,0,0,0,,7,,,55,127
54696,note_on,1,0,0,,7,,,55,127
54696,note_on,0,0,0,,2,,,86,127
54805,note_off,109,0,0,,2,,,86,127
54806,note_on,1,0,0,,12,,,83,127
54915,note_off,109,0,0,,7,,,55,127
54916,note_on,1,0,0,,6,,,54,127
54971,note_off,55,0,0,,12,,,83,127
55026,note_on,55,0,0,,10,,,81,127
55135,note_off,109,0,0,,10,,,81,127
55135,note_off,0,0,0,,6,,,54,127
55136,note_on,1,0,0,,6,,,54,127
55136,note_on,0,0,0,,12,,,83,127
55245,note_off,109,0,0,,12,,,83,127
55246,note_on,1,0,0,,1,,,85,127
55355,note_off,109,0,0,,1,,,85,127
55355,note_off,0,0,0,,6,,,54,127
55356,note_on,1,0,0,,6,,,54,127
55356,note_on,0,0,0,,2,,,86,127
55465,note_off,109,0,0,,2,,,86,127
55466,note_on,1,0,0,,10,,,81,127
55575,note_off,109,0,0,,10,,,81,127
55575,note_off,0,0,0,,6,,,54,127
55576,note_on,1,0,0,,7,,,55,127
55576,note_on,0,0,0,,7,,,79,127
55685,note_off,109,0,0,,7,,,79,127
55686,note_on,1,0,0,,12,,,83,127
55795,note_off,109,0,0,,12,,,83,127
55795,note_off,0,0,0,,7,,,55,127
55796,note_on,1,0,0,,10,,,57,127
55796,note_on,0,0,0,,10,,,81,127
55905,note_off,109,0,0,,10,,,81,127
55906,note_on,1,0,0,,7,,,79,127
56015,note_off,109,0,0,,7,,,79,127
56015,note_off,0,0,0,,10,,,57,127
56016,note_on,1,0,0,,10,,,45,127
56016,note_on,0,0,0,,6,,,78,127
56125,note_off,109,0,0,,6,,,78,127
56126,note_on,1,0,0,,4,,,76,127
56235,note_off,109,0,0,,4,,,76,127
56235,note_off,0,0,0,,10,,,45,127
56236,note_on,1,0,0,,2,,,50,127
56236,note_on,0,0,0,,2,,,74,127
56454,note_off,218,0,0,,2,,,74,127
56455,note_on,1,0,0,,2,,,74,127
56670,note_off,215,0,0,,2,,,50,127
56673,note_off,3,0,0,,2,,,74,127
56674,note_on,1,0,0,,2,,,74,127
56892,note_off,218,0,0,,2,,,74,127
56893,note_on,1,0,0,,1,,,85,127
57112,note_on,219,0,0,,2,,,62,127
57112,note_on,0,0,0,,11,,,70,127
57112,note_on,0,0,0,,7,,,67,127
57112,note_on,0,0,0,,11,,,82,127
57330,note_off,218,0,0,,7,,,67,127
57330,note_off,0,0,0,,11,,,70,127
57331,note_on,1,0,0,,11,,,70,127
57331,note_on,0,0,0,,7,,,67,127
57546,note_off,215,0,0,,2,,,62,127
57549,note_off,3,0,0,,7,,,67,127
57549,note_off,0,0,0,,11,,,70,127
57549,note_off,0,0,0,,11,,,82,127
57549,note_off,0,0,0,,1,,,85,127
57550,note_on,1,0,0,,10,,,69,127
57550,note_on,0,0,0,,5,,,65,127
57550,note_on,0,0,0,,2,,,62,127
57550,note_on,0,0,0,,2,,,86,127
57659,note_off,109,0,0,,2,,,86,127
57660,note_on,1,0,0,,10,,,81,127
57769,note_off,109,0,0,,10,,,81,127
57770,note_on,1,0,0,,7,,,79,127
57879,note_off,109,0,0,,7,,,79,127
57880,note_on,1,0,0,,5,,,77,127
57989,note_off,109,0,0,,5,,,77,127
57990,note_on,1,0,0,,4,,,76,127
58099,note_off,109,0,0,,4,,,76,127
58100,note_on,1,0,0,,2,,,74,127
58209,note_off,109,0,0,,2,,,74,127
58209,note_off,0,0,0,,2,,,62,127
58209,note_off,0,0,0,,5,,,65,127
58209,note_off,0,0,0,,10,,,69,127
58210,note_on,1,0,0,,1,,,85,127
58429,note_on,219,0,0,,2,,,62,127
58429,note_on,0,0,0,,11,,,70,127
58429,note_on,0,0,0,,7,,,67,127
58429,note_on,0,0,0,,11,,,82,127
58647,note_off,218,0,0,,7,,,67,127
58647,note_off,0,0,0,,11,,,70,127
58648,note_on,1,0,0,,7,,,67,127
58648,note_on,0,0,0,,11,,,70,127
58863,note_off,215,0,0,,2,,,62,127
58866,note_off,3,0,0,,11,,,70,127
58866,note_off,0,0,0,,7,,,67,127
58866,note_off,0,0,0,,11,,,82,127
58866,note_off,0,0,0,,1,,,85,127
58867,note_on,1,0,0,,2,,,62,127
58867,note_on,0,0,0,,10,,,69,127
58867,note_on,0,0,0,,5,,,65,127
58867,note_on,0,0,0,,2,,,86,127
58976,note_off,109,0,0,,2,,,86,127
58977,note_on,1,0,0,,10,,,81,127
59086,note_off,109,0,0,,10,,,81,127
59087,note_on,1,0,0,,7,,,79,127
59196,note_off,109,0,0,,7,,,79,127
59197,note_on,1,0,0,,5,,,77,127
59306,note_off,109,0,0,,5,,,77,127
59307,note_on,1,0,0,,4,,,76,127
59416,note_off,109,0,0,,4,,,76,127
59417,note_on,1,0,0,,2,,,74,127
59526,note_off,109,0,0,,2,,,74,127
59526,note_off,0,0,0,,5,,,65,127
59526,note_off,0,0,0,,10,,,69,127
59526,note_off,0,0,0,,2,,,62,127
59527,note_on,1,0,0,,4,,,76,127
59745,note_off,218,0,0,,4,,,76,127
59746,note_on,1,0,0,,1,,,61,127
59746,note_on,0,0,0,,4,,,64,127
59746,note_on,0,0,0,,4,,,88,127
59964,note_off,218,0,0,,1,,,61,127
59965,note_on,1,0,0,,10,,,57,127
60180,note_off,215,0,0,,4,,,64,127
60183,note_off,3,0,0,,10,,,57,127
60183,note_off,0,0,0,,4,,,88,127
60184,note_on,1,0,0,,2,,,62,127
60184,note_on,0,0,0,,5,,,89,127
60293,note_off,109,0,0,,5,,,89,127
60294,note_on,1,0,0,,4,,,88,127
60403,note_off,109,0,0,,4,,,88,127
60403,note_off,0,0,0,,2,,,62,127
60404,note_on,1,0,0,,4,,,64,127
60404,note_on,0,0,0,,2,,,86,127
60513,note_off,109,0,0,,2,,,86,127
60514,note_on,1,0,0,,0,,,84,127
60623,note_off,109,0,0,,0,,,84,127
60623,note_off,0,0,0,,4,,,64,127
60624,note_on,1,0,0,,5,,,65,127
60624,note_on,0,0,0,,11,,,82,127
60733,note_off,109,0,0,,11,,,82,127
60734,note_on,1,0,0,,10,,,81,127
60843,note_off,109,0,0,,10,,,81,127
60843,note_off,0,0,0,,5,,,65,127
60844,note_on,1,0,0,,7,,,55,127
60844,note_on,0,0,0,,7,,,67,127
60844,note_on,0,0,0,,11,,,82,127
60953,note_off,109,0,0,,11,,,82,127
60954,note_on,1,0,0,,10,,,81,127
61063,note_off,109,0,0,,10,,,81,127
61063,note_off,0,0,0,,7,,,67,127
61063,note_off,0,0,0,,7,,,55,127
61064,note_on,1,0,0,,10,,,57,127
61064,note_on,0,0,0,,7,,,79,127
61173,note_off,109,0,0,,7,,,79,127
61174,note_on,1,0,0,,5,,,77,127
61283,note_off,109,0,0,,5,,,77,127
61283,note_off,0,0,0,,10,,,57,127
61284,note_on,1,0,0,,11,,,58,127
61284,note_on,0,0,0,,4,,,76,127
61393,note_off,109,0,0,,4,,,76,127
61394,note_on,1,0,0,,2,,,74,127
61503,note_off,109,0,0,,2,,,74,127
61503,note_off,0,0,0,,11,,,58,127
61504,note_on,1,0,0,,10,,,57,127
61504,note_on,0,0,0,,4,,,76,127
61613,note_off,109,0,0,,4,,,76,127
61614,note_on,1,0,0,,2,,,74,127
61723,note_off,109,0,0,,2,,,74,127
61723,note_off,0,0,0,,10,,,57,127
61724,note_on,1,0,0,,10,,,45,127
61724,note_on,0,0,0,,1,,,73,127
61778,note_off,54,0,0,,1,,,73,127
61779,note_on,1,0,0,,2,,,74,127
61833,note_off,54,0,0,,2,,,74,127
61834,note_on,1,0,0,,1,,,73,127
61888,note_off,54,0,0,,1,,,73,127
61889,note_on,1,0,0,,12,,,71,127
61943,note_off,54,0,0,,12,,,71,127
61944,note_on,1,0,0,,10,,,69,127
62162,note_off,218,0,0,,10,,,45,127
62172,note_on,10,0,0,,10,,,57,127
62271,note_off,99,0,0,,10,,,69,127
62281,note_on,10,0,0,,10,,,81,127
62390,note_off,109,0,0,,10,,,81,127
62391,note_on,1,0,0,,10,,,69,127
62500,note_off,109,0,0,,10,,,69,127
62501,note_on,1,0,0,,12,,,71,127
62610,note_off,109,0,0,,12,,,71,127
62611,note_on,1,0,0,,1,,,73,127
62611,note_on,0,0,0,,7,,,67,127
62720,note_off,109,0,0,,1,,,73,127
62721,note_on,1,0,0,,10,,,69,127
62830,note_off,109,0,0,,10,,,69,127
62830,note_off,0,0,0,,7,,,67,127
62830,note_off,0,0,0,,10,,,57,127
62831,note_on,1,0,0,,2,,,74,127
62831,note_on,0,0,0,,10,,,57,127
62831,note_on,0,0,0,,6,,,66,127
62940,note_off,109,0,0,,2,,,74,127
62941,note_on,1,0,0,,4,,,76,127
63050,note_off,109,0,0,,4,,,76,127
63050,note_off,0,0,0,,6,,,66,127
63051,note_on,1,0,0,,6,,,78,127
63051,note_on,0,0,0,,4,,,64,127
63160,note_off,109,0,0,,6,,,78,127
63161,note_on,1,0,0,,7,,,79,127
63270,note_off,109,0,0,,7,,,79,127
63270,note_off,0,0,0,,4,,,64,127
63271,note_on,1,0,0,,8,,,80,127
63271,note_on,0,0,0,,2,,,62,127
63380,note_off,109,0,0,,8,,,80,127
63381,note_on,1,0,0,,10,,,81,127
63490,note_off,109,0,0,,2,,,62,127
63490,note_off,0,0,0,,10,,,57,127
63491,note_on,1,0,0,,10,,,57,127
63600,note_off,109,0,0,,10,,,81,127
63601,note_on,1,0,0,,10,,,81,127
63710,note_off,109,0,0,,10,,,81,127
63711,note_on,1,0,0,,10,,,69,127
63820,note_off,109,0,0,,10,,,69,127
63821,note_on,1,0,0,,12,,,71,127
63930,note_off,109,0,0,,12,,,71,127
63931,note_on,1,0,0,,1,,,73,127
63931,note_on,0,0,0,,7,,,67,127
64040,note_off,109,0,0,,1,,,73,127
64041,note_on,1,0,0,,10,,,69,127
64150,note_off,109,0,0,,10,,,69,127
64150,note_off,0,0,0,,7,,,67,127
64150,note_off,0,0,0,,10,,,57,127
64151,note_on,1,0,0,,2,,,74,127
64151,note_on,0,0,0,,10,,,57,127
64151,note_on,0,0,0,,6,,,66,127
64260,note_off,109,0,0,,2,,,74,127
64261,note_on,1,0,0,,4,,,76,127
64370,note_off,109,0,0,,4,,,76,127
64370,note_off,0,0,0,,6,,,66,127
64371,note_on,1,0,0,,6,,,78,127
64371,note_on,0,0,0,,4,,,64,127
64480,note_off,109,0,0,,6,,,78,127
64481,note_on,1,0,0,,7,,,79,127
64590,note_off,109,0,0,,7,,,79,127
64590,note_off,0,0,0,,4,,,64,127
64591,note_on,1,0,0,,8,,,80,127
64591,note_on,0,0,0,,2,,,62,127
64700,note_off,109,0,0,,8,,,80,127
64701,note_on,1,0,0,,10,,,81,127
64810,note_off,109,0,0,,2,,,62,127
64810,note_off,0,0,0,,10,,,57,127
64811,note_on,1,0,0,,7,,,55,127
64866,note_off,55,0,0,,10,,,81,127
64921,note_on,55,0,0,,11,,,82,127
65030,note_off,109,0,0,,11,,,82,127
65030,note_off,0,0,0,,7,,,55,127
65031,note_on,1,0,0,,12,,,83,127
65031,note_on,0,0,0,,7,,,55,127
65140,note_off,109,0,0,,12,,,83,127
65141,note_on,1,0,0,,1,,,85,127
65250,note_off,109,0,0,,1,,,85,127
65250,note_off,0,0,0,,7,,,55,127
65251,note_on,1,0,0,,2,,,86,127
65251,note_on,0,0,0,,7,,,55,127
65360,note_off,109,0,0,,2,,,86,127
65361,note_on,1,0,0,,12,,,83,127
65470,note_off,109,0,0,,7,,,55,127
65471,note_on,1,0,0,,6,,,54,127
65526,note_off,55,0,0,,12,,,83,127
65581,note_on,55,0,0,,10,,,81,127
65690,note_off,109,0,0,,10,,,81,127
65690,note_off,0,0,0,,6,,,54,127
65691,note_on,1,0,0,,12,,,83,127
65691,note_on,0,0,0,,6,,,54,127
65800,note_off,109,0,0,,12,,,83,127
65801,note_on,1,0,0,,1,,,85,127
65910,note_off,109,0,0,,1,,,85,127
65910,note_off,0,0,0,,6,,,54,127
65911,note_on,1,0,0,,2,,,86,127
65911,note_on,0,0,0,,6,,,54,127
66020,note_off,109,0,0,,2,,,86,127
66021,note_on,1,0,0,,10,,,81,127
66130,note_off,109,0,0,,10,,,81,127
66130,note_off,0,0,0,,6,,,54,127
66131,note_on,1,0,0,,7,,,79,127
66131,note_on,0,0,0,,7,,,55,127
66240,note_off,109,0,0,,7,,,79,127
66241,note_on,1,0,0,,12,,,83,127
66350,note_off,109,0,0,,12,,,83,127
66350,note_off,0,0,0,,7,,,55,127
66351,note_on,1,0,0,,10,,,81,127
66351,note_on,0,0,0,,10,,,57,127
66460,note_off,109,0,0,,10,,,81,127
66461,note_on,1,0,0,,7,,,79,127
66570,note_off,109,0,0,,7,,,79,127
66570,note_off,0,0,0,,10,,,57,127
66571,note_on,1,0,0,,6,,,78,127
66571,note_on,0,0,0,,10,,,45,127
66680,note_off,109,0,0,,6,,,78,127
66681,note_on,1,0,0,,4,,,76,127
66790,note_off,109,0,0,,4,,,76,127
66790,note_off,0,0,0,,10,,,45,127
66791,note_on,1,0,0,,2,,,74,127
66791,note_on,0,0,0,,2,,,50,127
66901,note_on,110,0,0,,2,,,86,127
67008,note_off,107,0,0,,2,,,74,127
67009,note_off,1,0,0,,2,,,86,127
67009,note_off,0,0,0,,2,,,50,127
67010,note_on,1,0,0,,10,,,81,127
67010,note_on,0,0,0,,4,,,52,127
67119,note_off,109,0,0,,10,,,81,127
67120,note_on,1,0,0,,6,,,78,127
67229,note_off,109,0,0,,6,,,78,127
67229,note_off,0,0,0,,4,,,52,127
67230,note_on,1,0,0,,2,,,74,127
67230,note_on,0,0,0,,6,,,54,127
67339,note_off,109,0,0,,2,,,74,127
67340,note_on,1,0,0,,10,,,81,127
67449,note_off,109,0,0,,10,,,81,127
67449,note_off,0,0,0,,6,,,54,127
67450,note_on,1,0,0,,7,,,79,127
67450,note_on,0,0,0,,7,,,55,127
67559,note_off,109,0,0,,7,,,79,127
67560,note_on,1,0,0,,12,,,83,127
67669,note_off,109,0,0,,12,,,83,127
67669,note_off,0,0,0,,7,,,55,127
67670,note_on,1,0,0,,10,,,81,127
67670,note_on,0,0,0,,10,,,57,127
67779,note_off,109,0,0,,10,,,81,127
67780,note_on,1,0,0,,7,,,79,127
67889,note_off,109,0,0,,7,,,79,127
67889,note_off,0,0,0,,10,,,57,127
67890,note_on,1,0,0,,6,,,78,127
67890,note_on,0,0,0,,10,,,45,127
67999,note_off,109,0,0,,6,,,78,127
68000,note_on,1,0,0,,4,,,76,127
68103,note_off,103,0,0,,4,,,76,127
68109,note_off,6,0,0,,10,,,45,127
68110,note_on,1,0,0,,2,,,50,127
68225,note_on,115,0,0,,2,,,74,127
68328,note_off,103,0,0,,2,,,50,127
68338,note_off,10,0,0,,2,,,74,127
68340,note_on,2,0,0,,4,,,52,127
68340,note_on,0,0,0,,10,,,69,127
68453,note_off,113,0,0,,10,,,69,127
68456,note_on,3,0,0,,6,,,66,127
68568,note_off,112,0,0,,4,,,52,127
68569,note_off,1,0,0,,6,,,66,127
68572,note_on,3,0,0,,6,,,54,127
68572,note_on,0,0,0,,2,,,62,127
68685,note_off,113,0,0,,2,,,62,127
68688,note_on,3,0,0,,10,,,69,127
68800,note_off,112,0,0,,6,,,54,127
68801,note_off,1,0,0,,10,,,69,127
68803,note_on,2,0,0,,7,,,55,127
68803,note_on,0,0,0,,7,,,67,127
68916,note_off,113,0,0,,7,,,67,127
68919,note_on,3,0,0,,12,,,71,127
69031,note_off,112,0,0,,7,,,55,127
69032,note_off,1,0,0,,12,,,71,127
69035,note_on,3,0,0,,10,,,57,127
69035,note_on,0,0,0,,10,,,69,127
69148,note_off,113,0,0,,10,,,69,127
69151,note_on,3,0,0,,7,,,67,127
69263,note_off,112,0,0,,10,,,57,127
69264,note_off,1,0,0,,7,,,67,127
69266,note_on,2,0,0,,10,,,45,127
69266,note_on,0,0,0,,6,,,66,127
69379,note_off,113,0,0,,6,,,66,127
69382,note_on,3,0,0,,4,,,64,127
69494,note_off,112,0,0,,10,,,45,127
69510,note_off,16,0,0,,4,,,64,127
69517,note_on,7,0,0,,2,,,38,127
69517,note_on,0,0,0,,2,,,62,127
72054,note_off,2537,0,0,,2,,,62,127
72054,note_off,0,0,0,,2,,,38,127
76800,end_of_track,4746,1,0,,,,,,
