tick,type,time,meta,track,program,channel,pitch,tempo,note,velocity
0,copyright,0,1,0,,,,,,
0,program_change,0,0,0,6,0,,,,
0,pitchwheel,0,0,0,,0,0,,,
0,program_change,0,0,0,6,1,,,,
0,pitchwheel,0,0,0,,1,-590,,,
0,program_change,0,0,0,6,2,,,,
0,pitchwheel,0,0,0,,2,-272,,,
0,program_change,0,0,0,6,3,,,,
0,pitchwheel,0,0,0,,3,-353,,,
0,program_change,0,0,0,6,4,,,,
0,pitchwheel,0,0,0,,4,-560,,,
0,program_change,0,0,0,6,5,,,,
0,pitchwheel,0,0,0,,5,-80,,,
0,program_change,0,0,0,6,6,,,,
0,pitchwheel,0,0,0,,6,-625,,,
0,program_change,0,0,0,6,7,,,,
0,pitchwheel,0,0,0,,7,-130,,,
0,program_change,0,0,0,6,8,,,,
0,pitchwheel,0,0,0,,8,-512,,,
0,program_change,0,0,0,6,10,,,,
0,pitchwheel,0,0,0,,10,-464,,,
0,program_change,0,0,0,6,11,,,,
0,pitchwheel,0,0,0,,11,-208,,,
0,program_change,0,0,0,6,12,,,,
0,pitchwheel,0,0,0,,12,-553,,,
0,set_tempo,0,1,0,,,,500000,,
124,note_on,124,0,0,,4,,,76,127
455,note_off,331,0,0,,4,,,76,127
457,note_on,2,0,0,,5,,,77,127
622,note_off,165,0,0,,5,,,77,127
624,note_on,2,0,0,,4,,,76,127
872,note_off,248,0,0,,4,,,76,127
873,note_on,1,0,0,,7,,,79,127
1370,note_off,497,0,0,,7,,,79,127
1372,note_on,2,0,0,,7,,,79,127
1620,note_off,248,0,0,,7,,,79,127
1622,note_on,2,0,0,,7,,,79,127
1622,note_on,0,0,0,,4,,,64,127
1953,note_off,331,0,0,,4,,,64,127
1955,note_on,2,0,0,,5,,,65,127
2120,note_off,165,0,0,,5,,,65,127
2121,note_on,1,0,0,,4,,,64,127
2369,note_off,248,0,0,,4,,,64,127
2369,note_off,0,0,0,,7,,,79,127
2371,note_on,2,0,0,,7,,,67,127
2868,note_off,497,0,0,,7,,,67,127
2870,note_on,2,0,0,,7,,,79,127
2870,note_on,0,0,0,,7,,,67,127
3118,note_off,248,0,0,,7,,,79,127
3120,note_on,2,0,0,,12,,,71,127
3367,note_off,247,0,0,,7,,,67,127
3617,note_off,250,0,0,,12,,,71,127
3619,note_on,2,0,0,,0,,,72,127
3619,note_on,0,0,0,,7,,,67,127
3867,note_off,248,0,0,,7,,,67,127
3867,note_off,0,0,0,,0,,,72,127
3868,note_on,1,0,0,,2,,,74,127
3868,note_on,0,0,0,,12,,,59,127
4365,note_off,497,0,0,,12,,,59,127
4365,note_off,0,0,0,,2,,,74,127
4368,note_on,3,0,0,,4,,,76,127
4368,note_on,0,0,0,,0,,,60,127
4616,note_off,248,0,0,,0,,,60,127
4616,note_off,0,0,0,,4,,,76,127
4617,note_on,1,0,0,,10,,,81,127
4617,note_on,0,0,0,,5,,,65,127
4617,note_on,0,0,0,,5,,,53,127
5114,note_off,497,0,0,,5,,,65,127
5114,note_off,0,0,0,,10,,,81,127
5116,note_on,2,0,0,,7,,,79,127
5116,note_on,0,0,0,,4,,,64,127
5364,note_off,248,0,0,,4,,,64,127
5364,note_off,0,0,0,,7,,,79,127
5364,note_off,0,0,0,,5,,,53,127
5366,note_on,2,0,0,,7,,,79,127
5366,note_on,0,0,0,,7,,,55,127
5366,note_on,0,0,0,,2,,,62,127
5427,note_off,61,0,0,,7,,,79,127
5428,note_on,1,0,0,,5,,,77,127
5489,note_off,61,0,0,,5,,,77,127
5491,note_on,2,0,0,,7,,,79,127
5552,note_off,61,0,0,,7,,,79,127
5553,note_on,1,0,0,,5,,,77,127
5697,note_off,144,0,0,,5,,,77,127
5697,note_off,0,0,0,,2,,,62,127
5699,note_on,2,0,0,,4,,,76,127
5699,note_on,0,0,0,,0,,,60,127
5864,note_off,165,0,0,,0,,,60,127
5864,note_off,0,0,0,,4,,,76,127
5865,note_on,1,0,0,,2,,,74,127
5865,note_on,0,0,0,,12,,,59,127
6107,note_off,242,0,0,,2,,,74,127
6113,note_off,6,0,0,,12,,,59,127
6113,note_off,0,0,0,,7,,,55,127
6115,note_on,2,0,0,,2,,,74,127
6115,note_on,0,0,0,,0,,,60,127
6176,note_off,61,0,0,,2,,,74,127
6177,note_on,1,0,0,,0,,,72,127
6238,note_off,61,0,0,,0,,,72,127
6240,note_on,2,0,0,,2,,,74,127
6301,note_off,61,0,0,,2,,,74,127
6302,note_on,1,0,0,,0,,,72,127
6487,note_off,185,0,0,,0,,,72,127
6489,note_on,2,0,0,,12,,,71,127
6622,note_on,133,0,0,,0,,,72,127
6622,note_on,0,0,0,,0,,,48,127
6624,note_off,2,0,0,,12,,,71,127
6665,note_off,41,0,0,,0,,,60,127
6943,note_on,278,0,0,,0,,,36,127
7102,note_off,159,0,0,,0,,,48,127
7389,note_off,287,0,0,,0,,,72,127
7943,note_off,554,0,0,,0,,,36,127
8339,note_on,396,0,0,,2,,,74,127
8670,note_off,331,0,0,,2,,,74,127
8672,note_on,2,0,0,,3,,,75,127
8837,note_off,165,0,0,,3,,,75,127
8838,note_on,1,0,0,,2,,,74,127
9086,note_off,248,0,0,,2,,,74,127
9088,note_on,2,0,0,,5,,,77,127
9585,note_off,497,0,0,,5,,,77,127
9587,note_on,2,0,0,,5,,,77,127
9835,note_off,248,0,0,,5,,,77,127
9836,note_on,1,0,0,,2,,,62,127
9836,note_on,0,0,0,,5,,,77,127
10167,note_off,331,0,0,,2,,,62,127
10169,note_on,2,0,0,,3,,,63,127
10334,note_off,165,0,0,,3,,,63,127
10336,note_on,2,0,0,,2,,,62,127
10583,note_off,247,0,0,,5,,,77,127
10584,note_off,1,0,0,,2,,,62,127
10585,note_on,1,0,0,,5,,,65,127
11082,note_off,497,0,0,,5,,,65,127
11084,note_on,2,0,0,,5,,,65,127
11084,note_on,0,0,0,,5,,,77,127
11332,note_off,248,0,0,,5,,,77,127
11334,note_on,2,0,0,,10,,,69,127
11581,note_off,247,0,0,,5,,,65,127
11831,note_off,250,0,0,,10,,,69,127
11833,note_on,2,0,0,,5,,,65,127
11833,note_on,0,0,0,,11,,,70,127
12081,note_off,248,0,0,,11,,,70,127
12081,note_off,0,0,0,,5,,,65,127
12083,note_on,2,0,0,,10,,,57,127
12083,note_on,0,0,0,,0,,,72,127
12580,note_off,497,0,0,,0,,,72,127
12580,note_off,0,0,0,,10,,,57,127
12582,note_on,2,0,0,,11,,,58,127
12582,note_on,0,0,0,,2,,,74,127
12830,note_off,248,0,0,,2,,,74,127
12830,note_off,0,0,0,,11,,,58,127
12832,note_on,2,0,0,,3,,,63,127
12832,note_on,0,0,0,,3,,,51,127
12832,note_on,0,0,0,,7,,,79,127
13329,note_off,497,0,0,,7,,,79,127
13329,note_off,0,0,0,,3,,,63,127
13331,note_on,2,0,0,,2,,,62,127
13331,note_on,0,0,0,,5,,,77,127
13579,note_off,248,0,0,,5,,,77,127
13579,note_off,0,0,0,,2,,,62,127
13579,note_off,0,0,0,,3,,,51,127
13580,note_on,1,0,0,,0,,,60,127
13580,note_on,0,0,0,,5,,,53,127
13580,note_on,0,0,0,,5,,,77,127
13641,note_off,61,0,0,,5,,,77,127
13643,note_on,2,0,0,,3,,,75,127
13704,note_off,61,0,0,,3,,,75,127
13705,note_on,1,0,0,,5,,,77,127
13766,note_off,61,0,0,,5,,,77,127
13768,note_on,2,0,0,,3,,,75,127
13911,note_off,143,0,0,,0,,,60,127
13912,note_off,1,0,0,,3,,,75,127
13913,note_on,1,0,0,,11,,,58,127
13913,note_on,0,0,0,,2,,,74,127
14078,note_off,165,0,0,,2,,,74,127
14078,note_off,0,0,0,,11,,,58,127
14080,note_on,2,0,0,,10,,,57,127
14080,note_on,0,0,0,,0,,,72,127
14327,note_off,247,0,0,,5,,,53,127
14328,note_off,1,0,0,,0,,,72,127
14328,note_off,0,0,0,,10,,,57,127
14329,note_on,1,0,0,,11,,,58,127
14329,note_on,0,0,0,,0,,,72,127
14390,note_off,61,0,0,,0,,,72,127
14392,note_on,2,0,0,,11,,,70,127
14453,note_off,61,0,0,,11,,,70,127
14454,note_on,1,0,0,,0,,,72,127
14515,note_off,61,0,0,,0,,,72,127
14516,note_on,1,0,0,,11,,,70,127
14660,note_off,144,0,0,,11,,,70,127
14662,note_on,2,0,0,,10,,,69,127
14826,note_off,164,0,0,,11,,,58,127
14827,note_off,1,0,0,,10,,,69,127
14828,note_on,1,0,0,,11,,,46,127
14828,note_on,0,0,0,,11,,,70,127
15078,note_on,250,0,0,,11,,,34,127
15208,note_off,130,0,0,,11,,,46,127
15508,note_off,300,0,0,,11,,,70,127
15575,note_off,67,0,0,,11,,,34,127
15625,note_on,50,0,0,,8,,,68,127
15625,note_on,0,0,0,,5,,,77,127
15625,note_on,0,0,0,,0,,,72,127
15873,note_off,248,0,0,,0,,,72,127
15873,note_off,0,0,0,,5,,,77,127
15873,note_off,0,0,0,,8,,,68,127
15875,note_on,2,0,0,,0,,,60,127
15875,note_on,0,0,0,,7,,,67,127
15875,note_on,0,0,0,,4,,,76,127
15875,note_on,0,0,0,,11,,,70,127
16372,note_off,497,0,0,,11,,,70,127
16372,note_off,0,0,0,,4,,,76,127
16372,note_off,0,0,0,,7,,,67,127
16374,note_on,2,0,0,,8,,,68,127
16374,note_on,0,0,0,,0,,,72,127
16374,note_on,0,0,0,,5,,,77,127
16499,note_off,125,0,0,,0,,,60,127
16622,note_off,123,0,0,,5,,,77,127
16622,note_off,0,0,0,,0,,,72,127
16622,note_off,0,0,0,,8,,,68,127
16624,note_on,2,0,0,,0,,,60,127
16624,note_on,0,0,0,,7,,,67,127
16624,note_on,0,0,0,,4,,,76,127
16624,note_on,0,0,0,,11,,,70,127
17121,note_off,497,0,0,,11,,,70,127
17121,note_off,0,0,0,,4,,,76,127
17121,note_off,0,0,0,,7,,,67,127
17123,note_on,2,0,0,,8,,,68,127
17123,note_on,0,0,0,,0,,,72,127
17123,note_on,0,0,0,,5,,,77,127
17248,note_off,125,0,0,,0,,,60,127
17371,note_off,123,0,0,,5,,,77,127
17371,note_off,0,0,0,,0,,,72,127
17371,note_off,0,0,0,,8,,,68,127
17372,note_on,1,0,0,,7,,,67,127
17372,note_on,0,0,0,,0,,,60,127
17372,note_on,0,0,0,,4,,,76,127
17372,note_on,0,0,0,,11,,,70,127
17620,note_off,248,0,0,,4,,,76,127
17622,note_on,2,0,0,,7,,,79,127
17745,note_off,123,0,0,,7,,,79,127
17747,note_on,2,0,0,,5,,,77,127
17870,note_off,123,0,0,,5,,,77,127
17872,note_on,2,0,0,,4,,,76,127
18369,note_off,497,0,0,,4,,,76,127
18369,note_off,0,0,0,,11,,,70,127
18369,note_off,0,0,0,,0,,,60,127
18369,note_off,0,0,0,,7,,,67,127
18620,note_on,251,0,0,,8,,,68,127
18620,note_on,0,0,0,,5,,,77,127
18620,note_on,0,0,0,,0,,,72,127
18868,note_off,248,0,0,,0,,,72,127
18868,note_off,0,0,0,,5,,,77,127
18868,note_off,0,0,0,,8,,,68,127
18870,note_on,2,0,0,,0,,,60,127
18870,note_on,0,0,0,,7,,,67,127
18870,note_on,0,0,0,,4,,,76,127
19120,note_on,250,0,0,,11,,,70,127
19367,note_off,247,0,0,,4,,,76,127
19367,note_off,0,0,0,,7,,,67,127
19368,note_off,1,0,0,,11,,,70,127
19369,note_on,1,0,0,,8,,,68,127
19369,note_on,0,0,0,,5,,,77,127
19617,note_off,248,0,0,,5,,,77,127
19617,note_off,0,0,0,,8,,,68,127
19617,note_off,0,0,0,,0,,,60,127
19619,note_on,2,0,0,,0,,,60,127
19619,note_on,0,0,0,,7,,,67,127
19619,note_on,0,0,0,,4,,,76,127
19868,note_on,249,0,0,,11,,,70,127
20116,note_off,248,0,0,,11,,,70,127
20116,note_off,0,0,0,,4,,,76,127
20116,note_off,0,0,0,,7,,,67,127
20118,note_on,2,0,0,,8,,,68,127
20118,note_on,0,0,0,,5,,,77,127
20366,note_off,248,0,0,,5,,,77,127
20366,note_off,0,0,0,,8,,,68,127
20366,note_off,0,0,0,,0,,,60,127
20368,note_on,2,0,0,,0,,,60,127
20368,note_on,0,0,0,,7,,,67,127
20368,note_on,0,0,0,,4,,,76,127
20588,note_off,220,0,0,,4,,,76,127
20617,note_on,29,0,0,,7,,,79,127
20740,note_off,123,0,0,,7,,,79,127
20742,note_on,2,0,0,,5,,,77,127
20865,note_off,123,0,0,,5,,,77,127
20867,note_on,2,0,0,,4,,,76,127
21115,note_off,248,0,0,,4,,,76,127
21116,note_on,1,0,0,,7,,,79,127
21486,note_off,370,0,0,,0,,,60,127
21616,note_on,130,0,0,,11,,,58,127
21616,note_on,0,0,0,,2,,,74,127
21864,note_off,248,0,0,,2,,,74,127
21864,note_off,0,0,0,,11,,,58,127
21865,note_on,1,0,0,,10,,,57,127
21865,note_on,0,0,0,,1,,,73,127
22362,note_off,497,0,0,,1,,,73,127
22362,note_off,0,0,0,,10,,,57,127
22362,note_off,0,0,0,,7,,,79,127
22363,note_off,1,0,0,,7,,,67,127
22364,note_on,1,0,0,,5,,,65,127
22364,note_on,0,0,0,,2,,,62,127
22364,note_on,0,0,0,,5,,,77,127
22364,note_on,0,0,0,,2,,,74,127
22612,note_off,248,0,0,,2,,,74,127
22612,note_off,0,0,0,,5,,,77,127
22612,note_off,0,0,0,,2,,,62,127
22612,note_off,0,0,0,,5,,,65,127
22614,note_on,2,0,0,,7,,,55,127
22614,note_on,0,0,0,,4,,,76,127
22614,note_on,0,0,0,,11,,,70,127
22862,note_off,248,0,0,,11,,,70,127
22864,note_on,2,0,0,,10,,,69,127
23111,note_off,247,0,0,,4,,,76,127
23111,note_off,0,0,0,,7,,,55,127
23112,note_off,1,0,0,,10,,,69,127
23113,note_on,1,0,0,,11,,,58,127
23113,note_on,0,0,0,,7,,,67,127
23113,note_on,0,0,0,,2,,,74,127
23361,note_off,248,0,0,,2,,,74,127
23361,note_off,0,0,0,,7,,,67,127
23361,note_off,0,0,0,,11,,,58,127
23363,note_on,2,0,0,,10,,,57,127
23363,note_on,0,0,0,,2,,,74,127
23424,note_off,61,0,0,,2,,,74,127
23425,note_on,1,0,0,,1,,,73,127
23486,note_off,61,0,0,,1,,,73,127
23488,note_on,2,0,0,,2,,,74,127
23549,note_off,61,0,0,,2,,,74,127
23550,note_on,1,0,0,,1,,,73,127
23694,note_off,144,0,0,,1,,,73,127
23696,note_on,2,0,0,,12,,,71,127
23860,note_off,164,0,0,,10,,,57,127
23861,note_off,1,0,0,,12,,,71,127
23862,note_on,1,0,0,,10,,,45,127
23862,note_on,0,0,0,,10,,,69,127
24133,note_on,271,0,0,,10,,,33,127
24242,note_off,109,0,0,,10,,,45,127
24359,note_off,117,0,0,,10,,,69,127
24683,note_off,324,0,0,,10,,,33,127
24723,note_on,40,0,0,,10,,,81,127
24723,note_on,0,0,0,,2,,,74,127
24723,note_on,0,0,0,,10,,,69,127
24723,note_on,0,0,0,,5,,,65,127
24971,note_off,248,0,0,,5,,,65,127
24971,note_off,0,0,0,,10,,,69,127
24971,note_off,0,0,0,,2,,,74,127
24971,note_off,0,0,0,,10,,,81,127
24972,note_on,1,0,0,,7,,,79,127
24972,note_on,0,0,0,,1,,,73,127
24972,note_on,0,0,0,,4,,,64,127
24972,note_on,0,0,0,,7,,,67,127
25469,note_off,497,0,0,,7,,,67,127
25469,note_off,0,0,0,,4,,,64,127
25469,note_off,0,0,0,,1,,,73,127
25469,note_off,0,0,0,,7,,,79,127
25472,note_on,3,0,0,,10,,,81,127
25472,note_on,0,0,0,,2,,,74,127
25472,note_on,0,0,0,,5,,,65,127
25472,note_on,0,0,0,,10,,,69,127
25720,note_off,248,0,0,,10,,,69,127
25720,note_off,0,0,0,,5,,,65,127
25720,note_off,0,0,0,,2,,,74,127
25720,note_off,0,0,0,,10,,,81,127
25721,note_on,1,0,0,,7,,,79,127
25721,note_on,0,0,0,,1,,,73,127
25721,note_on,0,0,0,,4,,,64,127
25721,note_on,0,0,0,,7,,,67,127
26218,note_off,497,0,0,,7,,,67,127
26218,note_off,0,0,0,,4,,,64,127
26218,note_off,0,0,0,,1,,,73,127
26218,note_off,0,0,0,,7,,,79,127
26220,note_on,2,0,0,,10,,,81,127
26220,note_on,0,0,0,,2,,,74,127
26220,note_on,0,0,0,,5,,,65,127
26220,note_on,0,0,0,,10,,,69,127
26468,note_off,248,0,0,,10,,,69,127
26468,note_off,0,0,0,,5,,,65,127
26468,note_off,0,0,0,,2,,,74,127
26468,note_off,0,0,0,,10,,,81,127
26470,note_on,2,0,0,,7,,,79,127
26470,note_on,0,0,0,,1,,,73,127
26470,note_on,0,0,0,,4,,,64,127
26470,note_on,0,0,0,,7,,,67,127
26718,note_off,248,0,0,,7,,,79,127
26720,note_on,2,0,0,,11,,,82,127
26843,note_off,123,0,0,,11,,,82,127
26844,note_on,1,0,0,,10,,,81,127
26967,note_off,123,0,0,,10,,,81,127
26969,note_on,2,0,0,,7,,,79,127
27466,note_off,497,0,0,,7,,,79,127
27467,note_off,1,0,0,,7,,,67,127
27467,note_off,0,0,0,,4,,,64,127
27467,note_off,0,0,0,,1,,,73,127
27718,note_on,251,0,0,,2,,,74,127
27718,note_on,0,0,0,,10,,,81,127
27718,note_on,0,0,0,,5,,,65,127
27718,note_on,0,0,0,,10,,,69,127
27966,note_off,248,0,0,,10,,,69,127
27966,note_off,0,0,0,,5,,,65,127
27966,note_off,0,0,0,,10,,,81,127
27966,note_off,0,0,0,,2,,,74,127
27968,note_on,2,0,0,,7,,,79,127
27968,note_on,0,0,0,,4,,,64,127
27968,note_on,0,0,0,,7,,,67,127
28217,note_on,249,0,0,,1,,,73,127
28465,note_off,248,0,0,,1,,,73,127
28465,note_off,0,0,0,,7,,,67,127
28465,note_off,0,0,0,,4,,,64,127
28465,note_off,0,0,0,,7,,,79,127
28467,note_on,2,0,0,,10,,,81,127
28467,note_on,0,0,0,,5,,,65,127
28467,note_on,0,0,0,,10,,,69,127
28715,note_off,248,0,0,,10,,,69,127
28715,note_off,0,0,0,,5,,,65,127
28715,note_off,0,0,0,,10,,,81,127
28716,note_on,1,0,0,,7,,,79,127
28716,note_on,0,0,0,,7,,,67,127
28716,note_on,0,0,0,,4,,,64,127
28966,note_on,250,0,0,,1,,,73,127
29213,note_off,247,0,0,,4,,,64,127
29213,note_off,0,0,0,,7,,,67,127
29213,note_off,0,0,0,,7,,,79,127
29214,note_off,1,0,0,,1,,,73,127
29216,note_on,2,0,0,,10,,,81,127
29216,note_on,0,0,0,,5,,,65,127
29216,note_on,0,0,0,,10,,,69,127
29464,note_off,248,0,0,,10,,,69,127
29464,note_off,0,0,0,,5,,,65,127
29464,note_off,0,0,0,,10,,,81,127
29465,note_on,1,0,0,,8,,,80,127
29465,note_on,0,0,0,,4,,,64,127
29465,note_on,0,0,0,,12,,,71,127
29713,note_off,248,0,0,,8,,,80,127
29715,note_on,2,0,0,,12,,,83,127
29838,note_off,123,0,0,,12,,,83,127
29840,note_on,2,0,0,,10,,,81,127
29963,note_off,123,0,0,,10,,,81,127
29964,note_on,1,0,0,,8,,,80,127
30212,note_off,248,0,0,,8,,,80,127
30214,note_on,2,0,0,,5,,,77,127
30609,note_off,395,0,0,,4,,,64,127
30711,note_off,102,0,0,,12,,,71,127
30713,note_on,2,0,0,,2,,,86,127
30713,note_on,0,0,0,,12,,,71,127
30713,note_on,0,0,0,,8,,,68,127
30961,note_off,248,0,0,,8,,,68,127
30961,note_off,0,0,0,,12,,,71,127
30961,note_off,0,0,0,,5,,,77,127
30963,note_on,2,0,0,,4,,,76,127
30963,note_on,0,0,0,,0,,,72,127
30963,note_on,0,0,0,,10,,,69,127
31210,note_off,247,0,0,,2,,,86,127
31212,note_on,2,0,0,,0,,,84,127
31460,note_off,248,0,0,,0,,,84,127
31460,note_off,0,0,0,,10,,,69,127
31460,note_off,0,0,0,,0,,,72,127
31460,note_off,0,0,0,,4,,,76,127
31462,note_on,2,0,0,,12,,,83,127
31462,note_on,0,0,0,,2,,,74,127
31462,note_on,0,0,0,,2,,,62,127
31710,note_off,248,0,0,,2,,,62,127
31710,note_off,0,0,0,,2,,,74,127
31712,note_on,2,0,0,,0,,,72,127
31712,note_on,0,0,0,,4,,,64,127
31959,note_off,247,0,0,,12,,,83,127
31961,note_on,2,0,0,,10,,,81,127
32209,note_off,248,0,0,,10,,,81,127
32209,note_off,0,0,0,,4,,,64,127
32209,note_off,0,0,0,,0,,,72,127
32211,note_on,2,0,0,,12,,,71,127
32211,note_on,0,0,0,,8,,,80,127
32211,note_on,0,0,0,,4,,,52,127
32459,note_off,248,0,0,,4,,,52,127
32459,note_off,0,0,0,,8,,,80,127
32459,note_off,0,0,0,,12,,,71,127
32460,note_on,1,0,0,,0,,,84,127
32460,note_on,0,0,0,,10,,,57,127
32957,note_off,497,0,0,,0,,,84,127
32960,note_on,3,0,0,,12,,,83,127
32960,note_on,0,0,0,,10,,,69,127
33208,note_off,248,0,0,,12,,,83,127
33209,note_on,1,0,0,,10,,,81,127
33630,note_off,421,0,0,,10,,,57,127
33706,note_off,76,0,0,,10,,,81,127
33708,note_on,2,0,0,,7,,,79,127
33708,note_on,0,0,0,,12,,,59,127
33956,note_off,248,0,0,,12,,,59,127
33956,note_off,0,0,0,,7,,,79,127
33958,note_on,2,0,0,,6,,,78,127
33958,note_on,0,0,0,,0,,,60,127
34206,note_off,248,0,0,,6,,,78,127
34206,note_off,0,0,0,,10,,,69,127
34208,note_on,2,0,0,,3,,,75,127
34208,note_on,0,0,0,,6,,,66,127
34456,note_off,248,0,0,,6,,,66,127
34456,note_off,0,0,0,,3,,,75,127
34457,note_on,1,0,0,,4,,,76,127
34457,note_on,0,0,0,,7,,,67,127
34705,note_off,248,0,0,,0,,,60,127
34707,note_on,2,0,0,,12,,,59,127
35204,note_off,497,0,0,,7,,,67,127
35204,note_off,0,0,0,,4,,,76,127
35206,note_on,2,0,0,,3,,,75,127
35206,note_on,0,0,0,,6,,,66,127
35454,note_off,248,0,0,,6,,,66,127
35454,note_off,0,0,0,,3,,,75,127
35454,note_off,0,0,0,,12,,,59,127
35456,note_on,2,0,0,,12,,,71,127
35456,note_on,0,0,0,,12,,,83,127
35456,note_on,0,0,0,,4,,,64,127
35953,note_off,497,0,0,,12,,,83,127
35953,note_off,0,0,0,,12,,,71,127
35955,note_on,2,0,0,,10,,,81,127
35955,note_on,0,0,0,,4,,,52,127
36203,note_off,248,0,0,,10,,,81,127
36204,note_on,1,0,0,,7,,,79,127
36675,note_off,471,0,0,,4,,,52,127
36701,note_off,26,0,0,,7,,,79,127
36704,note_on,3,0,0,,6,,,78,127
36704,note_on,0,0,0,,6,,,54,127
36952,note_off,248,0,0,,6,,,54,127
36952,note_off,0,0,0,,6,,,78,127
36953,note_on,1,0,0,,4,,,76,127
36953,note_on,0,0,0,,7,,,55,127
37201,note_off,248,0,0,,4,,,76,127
37203,note_on,2,0,0,,1,,,73,127
37451,note_off,248,0,0,,1,,,73,127
37451,note_off,0,0,0,,4,,,64,127
37452,note_on,1,0,0,,2,,,74,127
37452,note_on,0,0,0,,7,,,67,127
37700,note_off,248,0,0,,7,,,67,127
37700,note_off,0,0,0,,7,,,55,127
37702,note_on,2,0,0,,6,,,66,127
37702,note_on,0,0,0,,10,,,57,127
38199,note_off,497,0,0,,6,,,66,127
38199,note_off,0,0,0,,2,,,74,127
38201,note_on,2,0,0,,1,,,73,127
38201,note_on,0,0,0,,4,,,64,127
38449,note_off,248,0,0,,4,,,64,127
38449,note_off,0,0,0,,1,,,73,127
38449,note_off,0,0,0,,10,,,57,127
38451,note_on,2,0,0,,4,,,76,127
38451,note_on,0,0,0,,2,,,50,127
38512,note_off,61,0,0,,4,,,76,127
38518,note_on,6,0,0,,2,,,74,127
38579,note_off,61,0,0,,2,,,74,127
38586,note_on,7,0,0,,4,,,76,127
38647,note_off,61,0,0,,4,,,76,127
38653,note_on,6,0,0,,2,,,74,127
38714,note_off,61,0,0,,2,,,74,127
38720,note_on,6,0,0,,4,,,76,127
38781,note_off,61,0,0,,4,,,76,127
38788,note_on,7,0,0,,2,,,74,127
38854,note_off,66,0,0,,2,,,74,127
38860,note_on,6,0,0,,1,,,73,127
38915,note_off,55,0,0,,1,,,73,127
38923,note_on,8,0,0,,2,,,38,127
38923,note_on,0,0,0,,2,,,74,127
39198,note_off,275,0,0,,2,,,50,127
39218,note_on,20,0,0,,10,,,69,127
39233,note_off,15,0,0,,2,,,74,127
39294,note_off,61,0,0,,10,,,69,127
39296,note_on,2,0,0,,12,,,71,127
39372,note_off,76,0,0,,12,,,71,127
39375,note_on,3,0,0,,10,,,69,127
39451,note_off,76,0,0,,10,,,69,127
39453,note_on,2,0,0,,7,,,67,127
39529,note_off,76,0,0,,7,,,67,127
39531,note_on,2,0,0,,6,,,66,127
39607,note_off,76,0,0,,6,,,66,127
39611,note_on,4,0,0,,4,,,64,127
39687,note_off,76,0,0,,4,,,64,127
39689,note_on,2,0,0,,2,,,62,127
39920,note_off,231,0,0,,2,,,38,127
39922,note_off,2,0,0,,2,,,62,127
39924,note_on,2,0,0,,12,,,71,127
39924,note_on,0,0,0,,2,,,38,127
39990,note_off,66,0,0,,12,,,71,127
39992,note_on,2,0,0,,0,,,72,127
40058,note_off,66,0,0,,0,,,72,127
40059,note_on,1,0,0,,12,,,71,127
40125,note_off,66,0,0,,12,,,71,127
40127,note_on,2,0,0,,10,,,69,127
40191,note_off,64,0,0,,10,,,69,127
40193,note_on,2,0,0,,7,,,67,127
40259,note_off,66,0,0,,7,,,67,127
40261,note_on,2,0,0,,6,,,66,127
40327,note_off,66,0,0,,6,,,66,127
40328,note_on,1,0,0,,4,,,64,127
40394,note_off,66,0,0,,4,,,64,127
40395,note_on,1,0,0,,2,,,62,127
40628,note_off,233,0,0,,2,,,62,127
40628,note_off,0,0,0,,2,,,38,127
40630,note_on,2,0,0,,0,,,72,127
40630,note_on,0,0,0,,2,,,38,127
40687,note_off,57,0,0,,0,,,72,127
40690,note_on,3,0,0,,2,,,74,127
40747,note_off,57,0,0,,2,,,74,127
40748,note_on,1,0,0,,0,,,72,127
40805,note_off,57,0,0,,0,,,72,127
40807,note_on,2,0,0,,12,,,71,127
40864,note_off,57,0,0,,12,,,71,127
40866,note_on,2,0,0,,10,,,69,127
40923,note_off,57,0,0,,10,,,69,127
40925,note_on,2,0,0,,7,,,67,127
40982,note_off,57,0,0,,7,,,67,127
40984,note_on,2,0,0,,6,,,66,127
41041,note_off,57,0,0,,6,,,66,127
41043,note_on,2,0,0,,4,,,64,127
41100,note_off,57,0,0,,4,,,64,127
41101,note_on,1,0,0,,2,,,62,127
41334,note_off,233,0,0,,2,,,62,127
41334,note_off,0,0,0,,2,,,38,127
41337,note_on,3,0,0,,1,,,73,127
41337,note_on,0,0,0,,4,,,64,127
41337,note_on,0,0,0,,2,,,38,127
41805,note_off,468,0,0,,4,,,64,127
41805,note_off,0,0,0,,1,,,73,127
41808,note_on,3,0,0,,2,,,74,127
41808,note_on,0,0,0,,6,,,66,127
42041,note_off,233,0,0,,6,,,66,127
42041,note_off,0,0,0,,2,,,74,127
42041,note_off,0,0,0,,2,,,38,127
42044,note_on,3,0,0,,10,,,69,127
42044,note_on,0,0,0,,2,,,38,127
42120,note_off,76,0,0,,10,,,69,127
42122,note_on,2,0,0,,12,,,71,127
42198,note_off,76,0,0,,12,,,71,127
42200,note_on,2,0,0,,10,,,69,127
42276,note_off,76,0,0,,10,,,69,127
42278,note_on,2,0,0,,7,,,67,127
42354,note_off,76,0,0,,7,,,67,127
42358,note_on,4,0,0,,6,,,66,127
42434,note_off,76,0,0,,6,,,66,127
42436,note_on,2,0,0,,4,,,64,127
42512,note_off,76,0,0,,4,,,64,127
42514,note_on,2,0,0,,2,,,62,127
42747,note_off,233,0,0,,2,,,62,127
42748,note_off,1,0,0,,2,,,38,127
42750,note_on,2,0,0,,12,,,71,127
42750,note_on,0,0,0,,2,,,38,127
42816,note_off,66,0,0,,12,,,71,127
42817,note_on,1,0,0,,0,,,72,127
42883,note_off,66,0,0,,0,,,72,127
42885,note_on,2,0,0,,12,,,71,127
42951,note_off,66,0,0,,12,,,71,127
42952,note_on,1,0,0,,10,,,69,127
43016,note_off,64,0,0,,10,,,69,127
43018,note_on,2,0,0,,7,,,67,127
43084,note_off,66,0,0,,7,,,67,127
43086,note_on,2,0,0,,6,,,66,127
43152,note_off,66,0,0,,6,,,66,127
43153,note_on,1,0,0,,4,,,64,127
43219,note_off,66,0,0,,4,,,64,127
43221,note_on,2,0,0,,2,,,62,127
43454,note_off,233,0,0,,2,,,62,127
43454,note_off,0,0,0,,2,,,38,127
43456,note_on,2,0,0,,0,,,72,127
43456,note_on,0,0,0,,2,,,38,127
43513,note_off,57,0,0,,0,,,72,127
43515,note_on,2,0,0,,2,,,74,127
43572,note_off,57,0,0,,2,,,74,127
43574,note_on,2,0,0,,0,,,72,127
43631,note_off,57,0,0,,0,,,72,127
43633,note_on,2,0,0,,12,,,71,127
43690,note_off,57,0,0,,12,,,71,127
43692,note_on,2,0,0,,10,,,69,127
43749,note_off,57,0,0,,10,,,69,127
43750,note_on,1,0,0,,7,,,67,127
43807,note_off,57,0,0,,7,,,67,127
43810,note_on,3,0,0,,6,,,66,127
43867,note_off,57,0,0,,6,,,66,127
43868,note_on,1,0,0,,4,,,64,127
43925,note_off,57,0,0,,4,,,64,127
43928,note_on,3,0,0,,2,,,62,127
44160,note_off,232,0,0,,2,,,38,127
44161,note_off,1,0,0,,2,,,62,127
44162,note_on,1,0,0,,4,,,64,127
44162,note_on,0,0,0,,1,,,73,127
44162,note_on,0,0,0,,2,,,38,127
44630,note_off,468,0,0,,1,,,73,127
44630,note_off,0,0,0,,4,,,64,127
44633,note_on,3,0,0,,6,,,66,127
44633,note_on,0,0,0,,2,,,74,127
44866,note_off,233,0,0,,2,,,74,127
44866,note_off,0,0,0,,6,,,66,127
44866,note_off,0,0,0,,2,,,38,127
44917,note_on,51,0,0,,0,,,72,127
44917,note_on,0,0,0,,10,,,81,127
45388,note_on,471,0,0,,6,,,54,127
45621,note_off,233,0,0,,6,,,54,127
45621,note_off,0,0,0,,10,,,81,127
45621,note_off,0,0,0,,0,,,72,127
45624,note_on,3,0,0,,7,,,79,127
45624,note_on,0,0,0,,12,,,71,127
45624,note_on,0,0,0,,7,,,55,127
45857,note_off,233,0,0,,7,,,79,127
45859,note_on,2,0,0,,2,,,74,127
46092,note_off,233,0,0,,2,,,74,127
46092,note_off,0,0,0,,7,,,55,127
46092,note_off,0,0,0,,12,,,71,127
46094,note_on,2,0,0,,10,,,69,127
46094,note_on,0,0,0,,0,,,72,127
46094,note_on,0,0,0,,0,,,48,127
46327,note_off,233,0,0,,0,,,48,127
46327,note_off,0,0,0,,0,,,72,127
46327,note_off,0,0,0,,10,,,69,127
46330,note_on,3,0,0,,12,,,71,127
46330,note_on,0,0,0,,7,,,67,127
46330,note_on,0,0,0,,2,,,50,127
46798,note_off,468,0,0,,2,,,50,127
46798,note_off,0,0,0,,7,,,67,127
46798,note_off,0,0,0,,12,,,71,127
46801,note_on,3,0,0,,6,,,66,127
46801,note_on,0,0,0,,10,,,69,127
46801,note_on,0,0,0,,2,,,38,127
47034,note_off,233,0,0,,10,,,69,127
47034,note_off,0,0,0,,6,,,66,127
47084,note_on,50,0,0,,2,,,74,127
47141,note_off,57,0,0,,2,,,74,127
47143,note_on,2,0,0,,0,,,72,127
47200,note_off,57,0,0,,0,,,72,127
47202,note_on,2,0,0,,2,,,74,127
47259,note_off,57,0,0,,2,,,74,127
47261,note_on,2,0,0,,0,,,72,127
47269,note_off,8,0,0,,2,,,38,127
47396,note_off,127,0,0,,0,,,72,127
47398,note_on,2,0,0,,12,,,71,127
47553,note_off,155,0,0,,12,,,71,127
47556,note_on,3,0,0,,0,,,72,127
47789,note_off,233,0,0,,0,,,72,127
47790,note_on,1,0,0,,10,,,81,127
48261,note_on,471,0,0,,0,,,72,127
48261,note_on,0,0,0,,6,,,54,127
48494,note_off,233,0,0,,6,,,54,127
48494,note_off,0,0,0,,0,,,72,127
48494,note_off,0,0,0,,10,,,81,127
48497,note_on,3,0,0,,7,,,79,127
48497,note_on,0,0,0,,12,,,71,127
48497,note_on,0,0,0,,7,,,55,127
48730,note_off,233,0,0,,7,,,79,127
48733,note_on,3,0,0,,2,,,74,127
48965,note_off,232,0,0,,7,,,55,127
48965,note_off,0,0,0,,12,,,71,127
48966,note_off,1,0,0,,2,,,74,127
48968,note_on,2,0,0,,0,,,72,127
48968,note_on,0,0,0,,10,,,69,127
48968,note_on,0,0,0,,0,,,48,127
49201,note_off,233,0,0,,0,,,48,127
49201,note_off,0,0,0,,10,,,69,127
49201,note_off,0,0,0,,0,,,72,127
49204,note_on,3,0,0,,12,,,71,127
49204,note_on,0,0,0,,7,,,67,127
49204,note_on,0,0,0,,2,,,50,127
49672,note_off,468,0,0,,2,,,50,127
49672,note_off,0,0,0,,7,,,67,127
49672,note_off,0,0,0,,12,,,71,127
49674,note_on,2,0,0,,10,,,69,127
49674,note_on,0,0,0,,6,,,66,127
49674,note_on,0,0,0,,2,,,38,127
49935,note_off,261,0,0,,2,,,38,127
49974,note_off,39,0,0,,6,,,66,127
49974,note_off,0,0,0,,10,,,69,127
49992,note_on,18,0,0,,7,,,43,127
49992,note_on,0,0,0,,7,,,79,127
49992,note_on,0,0,0,,7,,,67,127
50375,note_off,383,0,0,,7,,,79,127
50384,note_on,9,0,0,,2,,,74,127
50567,note_off,183,0,0,,7,,,67,127
50567,note_off,0,0,0,,7,,,43,127
50575,note_off,8,0,0,,2,,,74,127
50576,note_on,1,0,0,,7,,,43,127
50576,note_on,0,0,0,,7,,,55,127
50576,note_on,0,0,0,,12,,,71,127
50959,note_off,383,0,0,,12,,,71,127
50960,note_on,1,0,0,,2,,,74,127
50960,note_on,0,0,0,,12,,,71,127
51151,note_off,191,0,0,,12,,,71,127
51151,note_off,0,0,0,,2,,,74,127
51151,note_off,0,0,0,,7,,,55,127
51151,note_off,0,0,0,,7,,,43,127
51152,note_on,1,0,0,,7,,,55,127
51152,note_on,0,0,0,,0,,,48,127
51152,note_on,0,0,0,,7,,,43,127
51152,note_on,0,0,0,,0,,,72,127
51152,note_on,0,0,0,,4,,,76,127
51469,note_off,317,0,0,,4,,,76,127
51472,note_on,3,0,0,,2,,,74,127
51535,note_off,63,0,0,,2,,,74,127
51536,note_on,1,0,0,,4,,,76,127
51727,note_off,191,0,0,,4,,,76,127
51727,note_off,0,0,0,,0,,,72,127
51727,note_off,0,0,0,,7,,,43,127
51727,note_off,0,0,0,,0,,,48,127
51727,note_off,0,0,0,,7,,,55,127
51728,note_on,1,0,0,,7,,,43,127
51728,note_on,0,0,0,,7,,,55,127
51728,note_on,0,0,0,,2,,,50,127
51728,note_on,0,0,0,,10,,,69,127
51728,note_on,0,0,0,,6,,,78,127
52047,note_off,319,0,0,,6,,,78,127
52048,note_on,1,0,0,,4,,,76,127
52111,note_off,63,0,0,,4,,,76,127
52112,note_on,1,0,0,,6,,,78,127
52303,note_off,191,0,0,,6,,,78,127
52303,note_off,0,0,0,,10,,,69,127
52303,note_off,0,0,0,,2,,,50,127
52303,note_off,0,0,0,,7,,,55,127
52303,note_off,0,0,0,,7,,,43,127
52304,note_on,1,0,0,,7,,,43,127
52304,note_on,0,0,0,,2,,,50,127
52304,note_on,0,0,0,,7,,,55,127
52304,note_on,0,0,0,,7,,,79,127
52304,note_on,0,0,0,,12,,,71,127
52687,note_off,383,0,0,,7,,,79,127
52688,note_on,1,0,0,,2,,,74,127
52879,note_off,191,0,0,,2,,,74,127
52879,note_off,0,0,0,,12,,,71,127
52879,note_off,0,0,0,,7,,,55,127
52879,note_off,0,0,0,,2,,,50,127
52879,note_off,0,0,0,,7,,,43,127
52880,note_on,1,0,0,,7,,,43,127
52880,note_on,0,0,0,,2,,,50,127
52880,note_on,0,0,0,,7,,,55,127
52880,note_on,0,0,0,,12,,,71,127
53263,note_off,383,0,0,,12,,,71,127
53264,note_on,1,0,0,,2,,,62,127
53264,note_on,0,0,0,,2,,,74,127
53455,note_off,191,0,0,,2,,,74,127
53455,note_off,0,0,0,,2,,,62,127
53455,note_off,0,0,0,,7,,,55,127
53455,note_off,0,0,0,,2,,,50,127
53455,note_off,0,0,0,,7,,,43,127
53456,note_on,1,0,0,,0,,,48,127
53456,note_on,0,0,0,,7,,,43,127
53456,note_on,0,0,0,,7,,,55,127
53456,note_on,0,0,0,,0,,,72,127
53456,note_on,0,0,0,,4,,,64,127
53775,note_off,319,0,0,,4,,,64,127
53776,note_on,1,0,0,,2,,,62,127
53839,note_off,63,0,0,,2,,,62,127
53840,note_on,1,0,0,,4,,,64,127
54031,note_off,191,0,0,,4,,,64,127
54031,note_off,0,0,0,,0,,,72,127
54031,note_off,0,0,0,,7,,,55,127
54031,note_off,0,0,0,,7,,,43,127
54031,note_off,0,0,0,,0,,,48,127
54032,note_on,1,0,0,,2,,,50,127
54032,note_on,0,0,0,,7,,,43,127
54032,note_on,0,0,0,,7,,,55,127
54032,note_on,0,0,0,,10,,,69,127
54032,note_on,0,0,0,,6,,,66,127
54351,note_off,319,0,0,,6,,,66,127
54352,note_on,1,0,0,,4,,,64,127
54415,note_off,63,0,0,,4,,,64,127
54416,note_on,1,0,0,,6,,,66,127
54607,note_off,191,0,0,,6,,,66,127
54607,note_off,0,0,0,,10,,,69,127
54607,note_off,0,0,0,,7,,,55,127
54607,note_off,0,0,0,,7,,,43,127
54607,note_off,0,0,0,,2,,,50,127
54608,note_on,1,0,0,,2,,,50,127
54608,note_on,0,0,0,,7,,,43,127
54608,note_on,0,0,0,,7,,,55,127
54608,note_on,0,0,0,,7,,,67,127
54608,note_on,0,0,0,,12,,,71,127
54991,note_off,383,0,0,,7,,,67,127
54992,note_on,1,0,0,,2,,,62,127
55183,note_off,191,0,0,,2,,,62,127
55183,note_off,0,0,0,,12,,,71,127
55183,note_off,0,0,0,,7,,,55,127
55183,note_off,0,0,0,,7,,,43,127
55183,note_off,0,0,0,,2,,,50,127
55184,note_on,1,0,0,,7,,,43,127
55184,note_on,0,0,0,,7,,,67,127
55184,note_on,0,0,0,,2,,,74,127
55184,note_on,0,0,0,,12,,,71,127
55568,note_on,384,0,0,,2,,,50,127
55759,note_off,191,0,0,,2,,,50,127
55759,note_off,0,0,0,,12,,,71,127
55759,note_off,0,0,0,,2,,,74,127
55759,note_off,0,0,0,,7,,,67,127
55759,note_off,0,0,0,,7,,,43,127
55760,note_on,1,0,0,,7,,,43,127
55760,note_on,0,0,0,,4,,,52,127
55760,note_on,0,0,0,,0,,,72,127
55760,note_on,0,0,0,,7,,,67,127
56079,note_off,319,0,0,,4,,,52,127
56080,note_on,1,0,0,,2,,,50,127
56143,note_off,63,0,0,,2,,,50,127
56144,note_on,1,0,0,,4,,,52,127
56335,note_off,191,0,0,,4,,,52,127
56335,note_off,0,0,0,,7,,,67,127
56335,note_off,0,0,0,,0,,,72,127
56335,note_off,0,0,0,,7,,,43,127
56336,note_on,1,0,0,,7,,,43,127
56336,note_on,0,0,0,,6,,,54,127
56336,note_on,0,0,0,,10,,,69,127
56336,note_on,0,0,0,,0,,,72,127
56655,note_off,319,0,0,,6,,,54,127
56656,note_on,1,0,0,,4,,,52,127
56719,note_off,63,0,0,,4,,,52,127
56720,note_on,1,0,0,,6,,,54,127
56911,note_off,191,0,0,,6,,,54,127
56911,note_off,0,0,0,,0,,,72,127
56911,note_off,0,0,0,,10,,,69,127
56911,note_off,0,0,0,,7,,,43,127
56912,note_on,1,0,0,,7,,,55,127
56912,note_on,0,0,0,,7,,,43,127
56912,note_on,0,0,0,,7,,,67,127
56912,note_on,0,0,0,,12,,,71,127
57231,note_off,319,0,0,,12,,,71,127
57231,note_off,0,0,0,,7,,,67,127
57232,note_on,1,0,0,,0,,,72,127
57232,note_on,0,0,0,,10,,,69,127
57295,note_off,63,0,0,,10,,,69,127
57295,note_off,0,0,0,,0,,,72,127
57296,note_on,1,0,0,,12,,,71,127
57296,note_on,0,0,0,,2,,,74,127
57487,note_off,191,0,0,,2,,,74,127
57487,note_off,0,0,0,,12,,,71,127
57487,note_off,0,0,0,,7,,,43,127
57487,note_off,0,0,0,,7,,,55,127
57488,note_on,1,0,0,,7,,,43,127
57488,note_on,0,0,0,,7,,,55,127
57488,note_on,0,0,0,,0,,,72,127
57488,note_on,0,0,0,,4,,,76,127
57871,note_off,383,0,0,,4,,,76,127
57871,note_off,0,0,0,,0,,,72,127
57872,note_on,1,0,0,,2,,,74,127
57872,note_on,0,0,0,,12,,,71,127
58063,note_off,191,0,0,,12,,,71,127
58063,note_off,0,0,0,,2,,,74,127
58063,note_off,0,0,0,,7,,,55,127
58063,note_off,0,0,0,,7,,,43,127
58064,note_on,1,0,0,,7,,,43,127
58064,note_on,0,0,0,,10,,,57,127
58064,note_on,0,0,0,,10,,,69,127
58064,note_on,0,0,0,,0,,,72,127
58447,note_off,383,0,0,,0,,,72,127
58447,note_off,0,0,0,,10,,,69,127
58448,note_on,1,0,0,,12,,,71,127
58448,note_on,0,0,0,,7,,,67,127
58639,note_off,191,0,0,,7,,,67,127
58639,note_off,0,0,0,,12,,,71,127
58639,note_off,0,0,0,,10,,,57,127
58639,note_off,0,0,0,,7,,,43,127
58640,note_on,1,0,0,,7,,,43,127
58640,note_on,0,0,0,,10,,,57,127
58640,note_on,0,0,0,,10,,,69,127
58640,note_on,0,0,0,,6,,,66,127
58959,note_off,319,0,0,,6,,,66,127
58959,note_off,0,0,0,,10,,,69,127
58960,note_on,1,0,0,,12,,,71,127
58960,note_on,0,0,0,,7,,,67,127
59023,note_off,63,0,0,,7,,,67,127
59023,note_off,0,0,0,,12,,,71,127
59024,note_on,1,0,0,,0,,,72,127
59024,note_on,0,0,0,,10,,,69,127
59215,note_off,191,0,0,,10,,,69,127
59215,note_off,0,0,0,,0,,,72,127
59215,note_off,0,0,0,,10,,,57,127
59215,note_off,0,0,0,,7,,,43,127
59216,note_on,1,0,0,,7,,,43,127
59216,note_on,0,0,0,,7,,,55,127
59216,note_on,0,0,0,,12,,,71,127
59216,note_on,0,0,0,,7,,,67,127
59535,note_off,319,0,0,,7,,,67,127
59535,note_off,0,0,0,,12,,,71,127
59536,note_on,1,0,0,,10,,,69,127
59536,note_on,0,0,0,,0,,,72,127
59599,note_off,63,0,0,,0,,,72,127
59599,note_off,0,0,0,,10,,,69,127
59600,note_on,1,0,0,,2,,,74,127
59600,note_on,0,0,0,,12,,,71,127
59791,note_off,191,0,0,,12,,,71,127
59791,note_off,0,0,0,,2,,,74,127
59791,note_off,0,0,0,,7,,,55,127
59791,note_off,0,0,0,,7,,,43,127
59792,note_on,1,0,0,,7,,,43,127
59792,note_on,0,0,0,,7,,,55,127
59792,note_on,0,0,0,,4,,,76,127
59792,note_on,0,0,0,,0,,,72,127
60175,note_off,383,0,0,,0,,,72,127
60175,note_off,0,0,0,,4,,,76,127
60176,note_on,1,0,0,,2,,,74,127
60176,note_on,0,0,0,,12,,,71,127
60367,note_off,191,0,0,,12,,,71,127
60367,note_off,0,0,0,,2,,,74,127
60367,note_off,0,0,0,,7,,,55,127
60367,note_off,0,0,0,,7,,,43,127
60368,note_on,1,0,0,,0,,,36,127
60368,note_on,0,0,0,,0,,,48,127
60368,note_on,0,0,0,,4,,,64,127
60368,note_on,0,0,0,,0,,,72,127
60751,note_off,383,0,0,,0,,,72,127
60751,note_off,0,0,0,,4,,,64,127
60752,note_on,1,0,0,,12,,,71,127
60752,note_on,0,0,0,,2,,,62,127
60943,note_off,191,0,0,,2,,,62,127
60943,note_off,0,0,0,,12,,,71,127
60943,note_off,0,0,0,,0,,,48,127
60943,note_off,0,0,0,,0,,,36,127
60944,note_on,1,0,0,,2,,,38,127
60944,note_on,0,0,0,,2,,,50,127
60944,note_on,0,0,0,,10,,,69,127
60944,note_on,0,0,0,,0,,,60,127
61263,note_off,319,0,0,,0,,,60,127
61263,note_off,0,0,0,,10,,,69,127
61264,note_on,1,0,0,,12,,,59,127
61264,note_on,0,0,0,,7,,,67,127
61327,note_off,63,0,0,,7,,,67,127
61327,note_off,0,0,0,,12,,,59,127
61328,note_on,1,0,0,,6,,,66,127
61328,note_on,0,0,0,,10,,,57,127
61519,note_off,191,0,0,,10,,,57,127
61519,note_off,0,0,0,,6,,,66,127
61519,note_off,0,0,0,,2,,,50,127
61519,note_off,0,0,0,,2,,,38,127
61520,note_on,1,0,0,,7,,,43,127
61520,note_on,0,0,0,,7,,,67,127
61520,note_on,0,0,0,,12,,,59,127
61903,note_off,383,0,0,,12,,,59,127
61904,note_on,1,0,0,,2,,,62,127
62095,note_off,191,0,0,,2,,,62,127
62095,note_off,0,0,0,,7,,,67,127
62096,note_on,1,0,0,,7,,,67,127
62479,note_off,383,0,0,,7,,,67,127
62480,note_off,1,0,0,,7,,,43,127
62480,note_on,0,0,0,,2,,,74,127
62480,note_on,0,0,0,,12,,,71,127
62671,note_off,191,0,0,,12,,,71,127
62671,note_off,0,0,0,,2,,,74,127
62672,note_on,1,0,0,,2,,,74,127
62672,note_on,0,0,0,,12,,,71,127
63055,note_off,383,0,0,,12,,,71,127
63055,note_off,0,0,0,,2,,,74,127
63056,note_on,1,0,0,,0,,,72,127
63056,note_on,0,0,0,,10,,,69,127
63247,note_off,191,0,0,,10,,,69,127
63247,note_off,0,0,0,,0,,,72,127
63248,note_on,1,0,0,,12,,,71,127
63248,note_on,0,0,0,,7,,,67,127
63631,note_off,383,0,0,,7,,,67,127
63631,note_off,0,0,0,,12,,,71,127
63632,note_on,1,0,0,,6,,,66,127
63632,note_on,0,0,0,,10,,,69,127
63823,note_off,191,0,0,,10,,,69,127
63823,note_off,0,0,0,,6,,,66,127
63824,note_on,1,0,0,,7,,,55,127
63824,note_on,0,0,0,,7,,,67,127
63824,note_on,0,0,0,,12,,,71,127
64207,note_off,383,0,0,,7,,,55,127
64208,note_on,1,0,0,,2,,,50,127
64399,note_off,191,0,0,,2,,,50,127
64400,note_on,1,0,0,,7,,,43,127
64783,note_off,383,0,0,,12,,,71,127
64783,note_off,0,0,0,,7,,,67,127
64784,note_on,1,0,0,,0,,,72,127
64784,note_on,0,0,0,,10,,,69,127
64975,note_off,191,0,0,,10,,,69,127
64975,note_off,0,0,0,,0,,,72,127
64975,note_off,0,0,0,,7,,,43,127
64976,note_on,1,0,0,,7,,,55,127
64976,note_on,0,0,0,,12,,,71,127
64976,note_on,0,0,0,,2,,,74,127
65359,note_off,383,0,0,,2,,,74,127
65359,note_off,0,0,0,,12,,,71,127
65360,note_on,1,0,0,,10,,,69,127
65360,note_on,0,0,0,,0,,,72,127
65551,note_off,191,0,0,,0,,,72,127
65551,note_off,0,0,0,,10,,,69,127
65551,note_off,0,0,0,,7,,,55,127
65552,note_on,1,0,0,,7,,,43,127
65552,note_on,0,0,0,,7,,,67,127
65552,note_on,0,0,0,,12,,,71,127
65871,note_off,319,0,0,,12,,,71,127
65871,note_off,0,0,0,,7,,,67,127
65872,note_on,1,0,0,,10,,,69,127
65872,note_on,0,0,0,,6,,,66,127
65935,note_off,63,0,0,,6,,,66,127
65935,note_off,0,0,0,,10,,,69,127
65936,note_on,1,0,0,,4,,,64,127
65936,note_on,0,0,0,,7,,,67,127
66112,note_off,176,0,0,,7,,,43,127
66127,note_off,15,0,0,,7,,,67,127
66127,note_off,0,0,0,,4,,,64,127
66128,note_on,1,0,0,,2,,,50,127
66128,note_on,0,0,0,,10,,,69,127
66128,note_on,0,0,0,,6,,,66,127
66511,note_off,383,0,0,,2,,,50,127
66512,note_on,1,0,0,,10,,,45,127
66703,note_off,191,0,0,,10,,,45,127
66704,note_on,1,0,0,,2,,,38,127
67087,note_off,383,0,0,,6,,,66,127
67087,note_off,0,0,0,,10,,,69,127
67088,note_on,1,0,0,,2,,,74,127
67264,note_off,176,0,0,,2,,,38,127
67279,note_off,15,0,0,,2,,,74,127
67280,note_on,1,0,0,,2,,,50,127
67280,note_on,0,0,0,,10,,,69,127
67280,note_on,0,0,0,,6,,,66,127
67663,note_off,383,0,0,,10,,,69,127
67664,note_on,1,0,0,,2,,,74,127
67855,note_off,191,0,0,,2,,,74,127
67855,note_off,0,0,0,,6,,,66,127
67855,note_off,0,0,0,,2,,,50,127
67856,note_on,1,0,0,,2,,,38,127
67856,note_on,0,0,0,,6,,,66,127
67856,note_on,0,0,0,,10,,,69,127
68239,note_off,383,0,0,,10,,,69,127
68240,note_on,1,0,0,,2,,,74,127
68431,note_off,191,0,0,,2,,,74,127
68431,note_off,0,0,0,,6,,,66,127
68431,note_off,0,0,0,,2,,,38,127
68432,note_on,1,0,0,,2,,,50,127
68432,note_on,0,0,0,,10,,,69,127
68432,note_on,0,0,0,,6,,,66,127
68815,note_off,383,0,0,,6,,,66,127
68815,note_off,0,0,0,,10,,,69,127
68816,note_on,1,0,0,,7,,,67,127
68816,note_on,0,0,0,,12,,,71,127
69007,note_off,191,0,0,,12,,,71,127
69007,note_off,0,0,0,,7,,,67,127
69007,note_off,0,0,0,,2,,,50,127
69008,note_on,1,0,0,,2,,,38,127
69008,note_on,0,0,0,,0,,,72,127
69008,note_on,0,0,0,,10,,,69,127
69391,note_off,383,0,0,,10,,,69,127
69391,note_off,0,0,0,,0,,,72,127
69392,note_on,1,0,0,,12,,,71,127
69392,note_on,0,0,0,,2,,,74,127
69583,note_off,191,0,0,,2,,,74,127
69583,note_off,0,0,0,,12,,,71,127
69583,note_off,0,0,0,,2,,,38,127
69584,note_on,1,0,0,,0,,,36,127
69584,note_on,0,0,0,,0,,,48,127
69584,note_on,0,0,0,,4,,,76,127
69584,note_on,0,0,0,,0,,,72,127
69967,note_off,383,0,0,,0,,,72,127
69967,note_off,0,0,0,,4,,,76,127
69968,note_on,1,0,0,,2,,,74,127
69968,note_on,0,0,0,,12,,,71,127
70159,note_off,191,0,0,,12,,,71,127
70159,note_off,0,0,0,,2,,,74,127
70159,note_off,0,0,0,,0,,,48,127
70159,note_off,0,0,0,,0,,,36,127
70160,note_on,1,0,0,,2,,,50,127
70160,note_on,0,0,0,,2,,,38,127
70160,note_on,0,0,0,,0,,,72,127
70160,note_on,0,0,0,,10,,,69,127
70479,note_off,319,0,0,,10,,,69,127
70479,note_off,0,0,0,,0,,,72,127
70480,note_on,1,0,0,,7,,,67,127
70480,note_on,0,0,0,,12,,,71,127
70543,note_off,63,0,0,,12,,,71,127
70543,note_off,0,0,0,,7,,,67,127
70544,note_on,1,0,0,,10,,,69,127
70544,note_on,0,0,0,,6,,,66,127
70735,note_off,191,0,0,,6,,,66,127
70735,note_off,0,0,0,,10,,,69,127
70735,note_off,0,0,0,,2,,,38,127
70735,note_off,0,0,0,,2,,,50,127
70736,note_on,1,0,0,,7,,,55,127
70736,note_on,0,0,0,,7,,,67,127
71119,note_off,383,0,0,,7,,,55,127
71120,note_on,1,0,0,,2,,,50,127
71311,note_off,191,0,0,,2,,,50,127
71312,note_on,1,0,0,,7,,,43,127
71695,note_off,383,0,0,,7,,,67,127
71696,note_on,1,0,0,,2,,,74,127
71792,note_off,96,0,0,,7,,,43,127
71887,note_off,95,0,0,,2,,,74,127
71888,note_on,1,0,0,,2,,,50,127
71888,note_on,0,0,0,,10,,,69,127
71888,note_on,0,0,0,,6,,,66,127
72271,note_off,383,0,0,,10,,,69,127
72272,note_on,1,0,0,,2,,,74,127
72463,note_off,191,0,0,,2,,,74,127
72463,note_off,0,0,0,,6,,,66,127
72463,note_off,0,0,0,,2,,,50,127
72464,note_on,1,0,0,,2,,,38,127
72464,note_on,0,0,0,,6,,,66,127
72464,note_on,0,0,0,,10,,,69,127
72847,note_off,383,0,0,,10,,,69,127
72848,note_on,1,0,0,,2,,,74,127
73039,note_off,191,0,0,,2,,,74,127
73039,note_off,0,0,0,,6,,,66,127
73039,note_off,0,0,0,,2,,,38,127
73040,note_on,1,0,0,,2,,,50,127
73040,note_on,0,0,0,,6,,,66,127
73040,note_on,0,0,0,,10,,,69,127
73423,note_off,383,0,0,,10,,,69,127
73423,note_off,0,0,0,,6,,,66,127
73424,note_on,1,0,0,,7,,,67,127
73424,note_on,0,0,0,,12,,,71,127
73615,note_off,191,0,0,,12,,,71,127
73615,note_off,0,0,0,,7,,,67,127
73615,note_off,0,0,0,,2,,,50,127
73616,note_on,1,0,0,,2,,,38,127
73616,note_on,0,0,0,,0,,,72,127
73616,note_on,0,0,0,,10,,,69,127
73999,note_off,383,0,0,,10,,,69,127
73999,note_off,0,0,0,,0,,,72,127
74000,note_on,1,0,0,,2,,,74,127
74000,note_on,0,0,0,,12,,,71,127
74191,note_off,191,0,0,,12,,,71,127
74191,note_off,0,0,0,,2,,,74,127
74191,note_off,0,0,0,,2,,,38,127
74192,note_on,1,0,0,,0,,,36,127
74192,note_on,0,0,0,,0,,,48,127
74192,note_on,0,0,0,,0,,,72,127
74192,note_on,0,0,0,,4,,,76,127
74575,note_off,383,0,0,,4,,,76,127
74575,note_off,0,0,0,,0,,,72,127
74576,note_on,1,0,0,,2,,,74,127
74576,note_on,0,0,0,,12,,,71,127
74767,note_off,191,0,0,,12,,,71,127
74767,note_off,0,0,0,,2,,,74,127
74767,note_off,0,0,0,,0,,,48,127
74767,note_off,0,0,0,,0,,,36,127
74768,note_on,1,0,0,,2,,,38,127
74768,note_on,0,0,0,,2,,,50,127
74768,note_on,0,0,0,,10,,,69,127
74768,note_on,0,0,0,,0,,,72,127
75087,note_off,319,0,0,,0,,,72,127
75087,note_off,0,0,0,,10,,,69,127
75088,note_on,1,0,0,,7,,,67,127
75088,note_on,0,0,0,,12,,,71,127
75151,note_off,63,0,0,,12,,,71,127
75151,note_off,0,0,0,,7,,,67,127
75152,note_on,1,0,0,,10,,,69,127
75152,note_on,0,0,0,,6,,,66,127
75333,note_off,181,0,0,,2,,,50,127
75333,note_off,0,0,0,,2,,,38,127
75343,note_off,10,0,0,,6,,,66,127
75343,note_off,0,0,0,,10,,,69,127
75344,note_on,1,0,0,,7,,,43,127
75344,note_on,0,0,0,,7,,,55,127
75344,note_on,0,0,0,,7,,,67,127
75727,note_off,383,0,0,,7,,,67,127
75736,note_on,9,0,0,,10,,,81,127
75736,note_on,0,0,0,,0,,,72,127
75919,note_off,183,0,0,,7,,,55,127
75919,note_off,0,0,0,,7,,,43,127
75927,note_off,8,0,0,,0,,,72,127
75927,note_off,0,0,0,,10,,,81,127
75928,note_on,1,0,0,,7,,,55,127
75928,note_on,0,0,0,,7,,,43,127
75928,note_on,0,0,0,,7,,,79,127
75928,note_on,0,0,0,,12,,,71,127
76311,note_off,383,0,0,,12,,,71,127
76311,note_off,0,0,0,,7,,,79,127
76312,note_on,1,0,0,,6,,,78,127
76312,note_on,0,0,0,,10,,,69,127
76503,note_off,191,0,0,,10,,,69,127
76503,note_off,0,0,0,,6,,,78,127
76503,note_off,0,0,0,,7,,,43,127
76503,note_off,0,0,0,,7,,,55,127
76504,note_on,1,0,0,,7,,,43,127
76504,note_on,0,0,0,,7,,,55,127
76504,note_on,0,0,0,,7,,,67,127
76504,note_on,0,0,0,,4,,,76,127
76887,note_off,383,0,0,,4,,,76,127
76887,note_off,0,0,0,,7,,,67,127
76888,note_on,1,0,0,,6,,,66,127
76888,note_on,0,0,0,,2,,,74,127
77079,note_off,191,0,0,,2,,,74,127
77079,note_off,0,0,0,,6,,,66,127
77079,note_off,0,0,0,,7,,,55,127
77079,note_off,0,0,0,,7,,,43,127
77080,note_on,1,0,0,,7,,,43,127
77080,note_on,0,0,0,,7,,,55,127
77080,note_on,0,0,0,,0,,,72,127
77080,note_on,0,0,0,,4,,,64,127
77399,note_off,319,0,0,,0,,,72,127
77400,note_on,1,0,0,,12,,,71,127
77463,note_off,63,0,0,,12,,,71,127
77463,note_off,0,0,0,,4,,,64,127
77464,note_on,1,0,0,,10,,,69,127
77464,note_on,0,0,0,,6,,,66,127
77655,note_off,191,0,0,,6,,,66,127
77655,note_off,0,0,0,,10,,,69,127
77655,note_off,0,0,0,,7,,,55,127
77655,note_off,0,0,0,,7,,,43,127
77656,note_on,1,0,0,,7,,,43,127
77656,note_on,0,0,0,,7,,,55,127
77656,note_on,0,0,0,,12,,,71,127
77656,note_on,0,0,0,,7,,,67,127
78039,note_off,383,0,0,,7,,,67,127
78039,note_off,0,0,0,,12,,,71,127
78040,note_on,1,0,0,,4,,,76,127
78040,note_on,0,0,0,,0,,,72,127
78231,note_off,191,0,0,,0,,,72,127
78231,note_off,0,0,0,,4,,,76,127
78231,note_off,0,0,0,,7,,,55,127
78231,note_off,0,0,0,,7,,,43,127
78232,note_on,1,0,0,,7,,,43,127
78232,note_on,0,0,0,,7,,,55,127
78232,note_on,0,0,0,,2,,,74,127
78232,note_on,0,0,0,,12,,,71,127
78615,note_off,383,0,0,,12,,,71,127
78615,note_off,0,0,0,,2,,,74,127
78616,note_on,1,0,0,,0,,,72,127
78616,note_on,0,0,0,,10,,,69,127
78807,note_off,191,0,0,,10,,,69,127
78807,note_off,0,0,0,,0,,,72,127
78807,note_off,0,0,0,,7,,,55,127
78807,note_off,0,0,0,,7,,,43,127
78808,note_on,1,0,0,,7,,,43,127
78808,note_on,0,0,0,,7,,,55,127
78808,note_on,0,0,0,,12,,,71,127
78808,note_on,0,0,0,,7,,,67,127
79191,note_off,383,0,0,,7,,,67,127
79191,note_off,0,0,0,,12,,,71,127
79192,note_on,1,0,0,,10,,,69,127
79192,note_on,0,0,0,,6,,,66,127
79383,note_off,191,0,0,,6,,,66,127
79383,note_off,0,0,0,,10,,,69,127
79383,note_off,0,0,0,,7,,,55,127
79383,note_off,0,0,0,,7,,,43,127
79384,note_on,1,0,0,,7,,,43,127
79384,note_on,0,0,0,,7,,,55,127
79384,note_on,0,0,0,,4,,,64,127
79384,note_on,0,0,0,,7,,,67,127
79703,note_off,319,0,0,,7,,,67,127
79703,note_off,0,0,0,,4,,,64,127
79704,note_on,1,0,0,,2,,,62,127
79704,note_on,0,0,0,,6,,,66,127
79767,note_off,63,0,0,,6,,,66,127
79767,note_off,0,0,0,,2,,,62,127
79768,note_on,1,0,0,,4,,,64,127
79768,note_on,0,0,0,,0,,,60,127
79959,note_off,191,0,0,,0,,,60,127
79959,note_off,0,0,0,,4,,,64,127
79959,note_off,0,0,0,,7,,,55,127
79959,note_off,0,0,0,,7,,,43,127
79960,note_on,1,0,0,,7,,,43,127
79960,note_on,0,0,0,,7,,,55,127
79960,note_on,0,0,0,,12,,,59,127
79960,note_on,0,0,0,,2,,,62,127
80343,note_off,383,0,0,,2,,,62,127
80343,note_off,0,0,0,,12,,,59,127
80344,note_on,1,0,0,,10,,,57,127
80344,note_on,0,0,0,,0,,,60,127
80535,note_off,191,0,0,,0,,,60,127
80535,note_off,0,0,0,,10,,,57,127
80535,note_off,0,0,0,,7,,,55,127
80535,note_off,0,0,0,,7,,,43,127
80536,note_on,1,0,0,,7,,,43,127
80536,note_on,0,0,0,,7,,,55,127
80536,note_on,0,0,0,,12,,,59,127
80536,note_on,0,0,0,,2,,,62,127
80919,note_off,383,0,0,,7,,,55,127
80920,note_on,1,0,0,,6,,,54,127
81111,note_off,191,0,0,,6,,,54,127
81111,note_off,0,0,0,,2,,,62,127
81111,note_off,0,0,0,,12,,,59,127
81111,note_off,0,0,0,,7,,,43,127
81112,note_on,1,0,0,,4,,,52,127
81112,note_on,0,0,0,,7,,,43,127
81112,note_on,0,0,0,,0,,,60,127
81112,note_on,0,0,0,,4,,,64,127
81495,note_off,383,0,0,,4,,,52,127
81496,note_on,1,0,0,,2,,,50,127
81687,note_off,191,0,0,,2,,,50,127
81687,note_off,0,0,0,,4,,,64,127
81687,note_off,0,0,0,,0,,,60,127
81687,note_off,0,0,0,,7,,,43,127
81688,note_on,1,0,0,,0,,,48,127
81688,note_on,0,0,0,,7,,,43,127
81688,note_on,0,0,0,,6,,,66,127
81688,note_on,0,0,0,,2,,,62,127
82007,note_off,319,0,0,,0,,,48,127
82008,note_on,1,0,0,,12,,,47,127
82071,note_off,63,0,0,,12,,,47,127
82072,note_on,1,0,0,,10,,,45,127
82263,note_off,191,0,0,,10,,,45,127
82263,note_off,0,0,0,,2,,,62,127
82263,note_off,0,0,0,,6,,,66,127
82263,note_off,0,0,0,,7,,,43,127
82264,note_on,1,0,0,,7,,,43,127
82264,note_on,0,0,0,,7,,,67,127
82264,note_on,0,0,0,,12,,,59,127
82647,note_off,383,0,0,,12,,,59,127
82647,note_off,0,0,0,,7,,,67,127
82648,note_on,1,0,0,,0,,,60,127
82648,note_on,0,0,0,,10,,,69,127
82839,note_off,191,0,0,,10,,,69,127
82839,note_off,0,0,0,,0,,,60,127
82839,note_off,0,0,0,,7,,,43,127
82840,note_on,1,0,0,,7,,,43,127
82840,note_on,0,0,0,,7,,,55,127
82840,note_on,0,0,0,,12,,,71,127
82840,note_on,0,0,0,,2,,,62,127
83159,note_off,319,0,0,,12,,,71,127
83160,note_on,1,0,0,,0,,,72,127
83223,note_off,63,0,0,,0,,,72,127
83224,note_on,1,0,0,,2,,,74,127
83415,note_off,191,0,0,,2,,,74,127
83415,note_off,0,0,0,,2,,,62,127
83415,note_off,0,0,0,,7,,,55,127
83415,note_off,0,0,0,,7,,,43,127
83416,note_on,1,0,0,,0,,,36,127
83416,note_on,0,0,0,,0,,,48,127
83416,note_on,0,0,0,,0,,,72,127
83416,note_on,0,0,0,,4,,,64,127
83735,note_off,319,0,0,,4,,,64,127
83736,note_on,1,0,0,,6,,,66,127
83799,note_off,63,0,0,,6,,,66,127
83799,note_off,0,0,0,,0,,,72,127
83800,note_on,1,0,0,,12,,,71,127
83800,note_on,0,0,0,,7,,,67,127
83991,note_off,191,0,0,,0,,,48,127
83991,note_off,0,0,0,,0,,,36,127
83992,note_on,1,0,0,,2,,,38,127
83992,note_on,0,0,0,,2,,,50,127
84375,note_off,383,0,0,,7,,,67,127
84375,note_off,0,0,0,,12,,,71,127
84376,note_on,1,0,0,,10,,,69,127
84376,note_on,0,0,0,,6,,,66,127
84567,note_off,191,0,0,,6,,,66,127
84567,note_off,0,0,0,,10,,,69,127
84567,note_off,0,0,0,,2,,,50,127
84567,note_off,0,0,0,,2,,,38,127
84568,note_on,1,0,0,,7,,,43,127
84568,note_on,0,0,0,,7,,,67,127
84951,note_off,383,0,0,,7,,,43,127
84952,note_on,1,0,0,,2,,,50,127
85143,note_off,191,0,0,,2,,,50,127
85144,note_on,1,0,0,,7,,,55,127
85335,note_off,191,0,0,,7,,,67,127
85527,note_off,192,0,0,,7,,,55,127
85544,note_on,17,0,0,,12,,,71,127
85544,note_on,0,0,0,,2,,,50,127
85735,note_off,191,0,0,,2,,,50,127
85735,note_off,0,0,0,,12,,,71,127
85736,note_on,1,0,0,,1,,,73,127
85736,note_on,0,0,0,,7,,,43,127
86119,note_off,383,0,0,,7,,,43,127
86119,note_off,0,0,0,,1,,,73,127
86120,note_on,1,0,0,,2,,,74,127
86120,note_on,0,0,0,,2,,,50,127
86311,note_off,191,0,0,,2,,,50,127
86312,note_on,1,0,0,,7,,,55,127
86503,note_off,191,0,0,,2,,,74,127
86695,note_off,192,0,0,,7,,,55,127
86696,note_on,1,0,0,,4,,,76,127
86696,note_on,0,0,0,,2,,,50,127
86887,note_off,191,0,0,,2,,,50,127
86887,note_off,0,0,0,,4,,,76,127
86888,note_on,1,0,0,,6,,,78,127
86888,note_on,0,0,0,,7,,,43,127
87271,note_off,383,0,0,,7,,,43,127
87271,note_off,0,0,0,,6,,,78,127
87272,note_on,1,0,0,,7,,,79,127
87272,note_on,0,0,0,,2,,,50,127
87463,note_off,191,0,0,,2,,,50,127
87464,note_on,1,0,0,,7,,,55,127
87655,note_off,191,0,0,,7,,,79,127
87847,note_off,192,0,0,,7,,,55,127
87848,note_on,1,0,0,,12,,,71,127
87848,note_on,0,0,0,,2,,,50,127
88039,note_off,191,0,0,,2,,,50,127
88039,note_off,0,0,0,,12,,,71,127
88040,note_on,1,0,0,,1,,,73,127
88040,note_on,0,0,0,,7,,,43,127
88423,note_off,383,0,0,,7,,,43,127
88423,note_off,0,0,0,,1,,,73,127
88424,note_on,1,0,0,,2,,,74,127
88424,note_on,0,0,0,,2,,,50,127
88615,note_off,191,0,0,,2,,,50,127
88616,note_on,1,0,0,,7,,,55,127
88807,note_off,191,0,0,,2,,,74,127
88999,note_off,192,0,0,,7,,,55,127
89000,note_on,1,0,0,,4,,,76,127
89000,note_on,0,0,0,,2,,,50,127
89191,note_off,191,0,0,,2,,,50,127
89191,note_off,0,0,0,,4,,,76,127
89192,note_on,1,0,0,,6,,,78,127
89192,note_on,0,0,0,,7,,,43,127
89575,note_off,383,0,0,,6,,,78,127
89576,note_on,1,0,0,,7,,,79,127
89767,note_off,191,0,0,,7,,,43,127
89768,note_on,1,0,0,,7,,,31,127
89959,note_off,191,0,0,,7,,,79,127
90200,note_on,241,0,0,,4,,,76,127
90344,note_off,144,0,0,,7,,,31,127
90391,note_off,47,0,0,,4,,,76,127
90392,note_on,1,0,0,,6,,,78,127
90775,note_off,383,0,0,,6,,,78,127
90776,note_on,1,0,0,,7,,,79,127
90968,note_on,192,0,0,,7,,,31,127
91171,note_off,203,0,0,,7,,,79,127
91416,note_on,245,0,0,,4,,,76,127
91543,note_off,127,0,0,,7,,,31,127
91619,note_off,76,0,0,,4,,,76,127
91619,note_on,0,0,0,,6,,,78,127
92050,note_off,431,0,0,,6,,,78,127
92070,note_on,20,0,0,,7,,,79,127
92314,note_on,244,0,0,,7,,,31,127
92453,note_off,139,0,0,,7,,,79,127
93314,note_off,861,0,0,,7,,,31,127
93390,note_on,76,0,0,,7,,,79,127
93390,note_on,0,0,0,,7,,,55,127
93482,note_on,92,0,0,,2,,,74,127
93571,note_off,89,0,0,,2,,,74,127
93574,note_on,3,0,0,,12,,,71,127
93663,note_off,89,0,0,,12,,,71,127
93667,note_on,4,0,0,,7,,,67,127
93756,note_off,89,0,0,,7,,,67,127
93759,note_on,3,0,0,,12,,,71,127
93759,note_on,0,0,0,,5,,,65,127
93848,note_off,89,0,0,,12,,,71,127
93851,note_on,3,0,0,,7,,,67,127
93940,note_off,89,0,0,,7,,,67,127
93940,note_off,0,0,0,,5,,,65,127
93944,note_on,4,0,0,,0,,,72,127
93944,note_on,0,0,0,,4,,,64,127
94033,note_off,89,0,0,,0,,,72,127
94036,note_on,3,0,0,,7,,,67,127
94125,note_off,89,0,0,,7,,,67,127
94125,note_off,0,0,0,,4,,,64,127
94128,note_on,3,0,0,,2,,,74,127
94128,note_on,0,0,0,,2,,,62,127
94217,note_off,89,0,0,,2,,,74,127
94220,note_on,3,0,0,,7,,,67,127
94309,note_off,89,0,0,,7,,,67,127
94309,note_off,0,0,0,,2,,,62,127
94313,note_on,4,0,0,,4,,,76,127
94313,note_on,0,0,0,,0,,,60,127
94402,note_off,89,0,0,,4,,,76,127
94405,note_on,3,0,0,,7,,,67,127
94494,note_off,89,0,0,,7,,,67,127
94494,note_off,0,0,0,,0,,,60,127
94494,note_off,0,0,0,,7,,,55,127
94494,note_off,0,0,0,,7,,,79,127
94497,note_on,3,0,0,,7,,,79,127
94497,note_on,0,0,0,,7,,,55,127
94590,note_on,93,0,0,,2,,,74,127
94679,note_off,89,0,0,,2,,,74,127
94682,note_on,3,0,0,,12,,,71,127
94771,note_off,89,0,0,,12,,,71,127
94774,note_on,3,0,0,,7,,,67,127
94863,note_off,89,0,0,,7,,,67,127
94867,note_on,4,0,0,,12,,,71,127
94867,note_on,0,0,0,,5,,,65,127
94956,note_off,89,0,0,,12,,,71,127
94959,note_on,3,0,0,,7,,,67,127
95048,note_off,89,0,0,,7,,,67,127
95048,note_off,0,0,0,,5,,,65,127
95051,note_on,3,0,0,,0,,,72,127
95051,note_on,0,0,0,,4,,,64,127
95140,note_off,89,0,0,,0,,,72,127
95144,note_on,4,0,0,,7,,,67,127
95232,note_off,88,0,0,,4,,,64,127
95233,note_off,1,0,0,,7,,,67,127
95236,note_on,3,0,0,,2,,,74,127
95236,note_on,0,0,0,,2,,,62,127
95325,note_off,89,0,0,,2,,,74,127
95328,note_on,3,0,0,,7,,,67,127
95417,note_off,89,0,0,,7,,,67,127
95417,note_off,0,0,0,,2,,,62,127
95420,note_on,3,0,0,,4,,,76,127
95420,note_on,0,0,0,,0,,,60,127
95509,note_off,89,0,0,,4,,,76,127
95513,note_on,4,0,0,,7,,,67,127
95601,note_off,88,0,0,,0,,,60,127
95601,note_off,0,0,0,,7,,,55,127
95601,note_off,0,0,0,,7,,,79,127
95602,note_off,1,0,0,,7,,,67,127
95609,note_on,7,0,0,,7,,,67,127
95609,note_on,0,0,0,,7,,,79,127
95698,note_off,89,0,0,,7,,,67,127
95701,note_on,3,0,0,,2,,,62,127
95790,note_off,89,0,0,,2,,,62,127
95794,note_on,4,0,0,,12,,,59,127
95883,note_off,89,0,0,,12,,,59,127
95886,note_on,3,0,0,,7,,,55,127
95975,note_off,89,0,0,,7,,,55,127
95978,note_on,3,0,0,,12,,,59,127
95978,note_on,0,0,0,,5,,,77,127
96067,note_off,89,0,0,,12,,,59,127
96070,note_on,3,0,0,,7,,,55,127
96159,note_off,89,0,0,,7,,,55,127
96159,note_off,0,0,0,,5,,,77,127
96163,note_on,4,0,0,,0,,,60,127
96163,note_on,0,0,0,,4,,,76,127
96252,note_off,89,0,0,,0,,,60,127
96255,note_on,3,0,0,,7,,,55,127
96344,note_off,89,0,0,,7,,,55,127
96344,note_off,0,0,0,,4,,,76,127
96347,note_on,3,0,0,,2,,,62,127
96347,note_on,0,0,0,,2,,,74,127
96436,note_off,89,0,0,,2,,,62,127
96440,note_on,4,0,0,,7,,,55,127
96528,note_off,88,0,0,,2,,,74,127
96529,note_off,1,0,0,,7,,,55,127
96532,note_on,3,0,0,,4,,,64,127
96532,note_on,0,0,0,,0,,,72,127
96621,note_off,89,0,0,,4,,,64,127
96624,note_on,3,0,0,,7,,,55,127
96713,note_off,89,0,0,,7,,,55,127
96713,note_off,0,0,0,,0,,,72,127
96713,note_off,0,0,0,,7,,,79,127
96717,note_on,4,0,0,,7,,,67,127
96717,note_on,0,0,0,,7,,,79,127
96806,note_off,89,0,0,,7,,,67,127
96809,note_on,3,0,0,,2,,,62,127
96898,note_off,89,0,0,,2,,,62,127
96901,note_on,3,0,0,,12,,,59,127
96990,note_off,89,0,0,,12,,,59,127
96994,note_on,4,0,0,,7,,,55,127
97083,note_off,89,0,0,,7,,,55,127
97086,note_on,3,0,0,,12,,,59,127
97086,note_on,0,0,0,,5,,,77,127
97175,note_off,89,0,0,,12,,,59,127
97178,note_on,3,0,0,,7,,,55,127
97267,note_off,89,0,0,,7,,,55,127
97267,note_off,0,0,0,,5,,,77,127
97270,note_on,3,0,0,,0,,,60,127
97270,note_on,0,0,0,,4,,,76,127
97359,note_off,89,0,0,,0,,,60,127
97363,note_on,4,0,0,,7,,,55,127
97451,note_off,88,0,0,,4,,,76,127
97452,note_off,1,0,0,,7,,,55,127
97455,note_on,3,0,0,,2,,,62,127
97455,note_on,0,0,0,,2,,,74,127
97544,note_off,89,0,0,,2,,,62,127
97547,note_on,3,0,0,,7,,,55,127
97636,note_off,89,0,0,,7,,,55,127
97636,note_off,0,0,0,,2,,,74,127
97640,note_on,4,0,0,,4,,,64,127
97640,note_on,0,0,0,,0,,,72,127
97729,note_off,89,0,0,,4,,,64,127
97732,note_on,3,0,0,,7,,,55,127
97821,note_off,89,0,0,,7,,,55,127
97821,note_off,0,0,0,,0,,,72,127
97821,note_off,0,0,0,,7,,,79,127
97829,note_on,8,0,0,,7,,,79,127
97829,note_on,0,0,0,,7,,,55,127
97921,note_on,92,0,0,,2,,,74,127
98010,note_off,89,0,0,,2,,,74,127
98014,note_on,4,0,0,,12,,,71,127
98103,note_off,89,0,0,,12,,,71,127
98106,note_on,3,0,0,,7,,,67,127
98195,note_off,89,0,0,,7,,,67,127
98195,note_off,0,0,0,,7,,,79,127
98198,note_on,3,0,0,,10,,,69,127
98198,note_on,0,0,0,,5,,,65,127
98287,note_off,89,0,0,,10,,,69,127
98291,note_on,4,0,0,,10,,,81,127
98379,note_off,88,0,0,,5,,,65,127
98380,note_off,1,0,0,,10,,,81,127
98383,note_on,3,0,0,,7,,,79,127
98383,note_on,0,0,0,,4,,,64,127
98475,note_on,92,0,0,,4,,,76,127
98564,note_off,89,0,0,,4,,,76,127
98568,note_on,4,0,0,,0,,,72,127
98657,note_off,89,0,0,,0,,,72,127
98660,note_on,3,0,0,,7,,,67,127
98749,note_off,89,0,0,,7,,,67,127
98749,note_off,0,0,0,,4,,,64,127
98749,note_off,0,0,0,,7,,,79,127
98752,note_on,3,0,0,,5,,,65,127
98752,note_on,0,0,0,,2,,,62,127
98841,note_off,89,0,0,,5,,,65,127
98844,note_on,3,0,0,,5,,,77,127
98933,note_off,89,0,0,,5,,,77,127
98933,note_off,0,0,0,,2,,,62,127
98933,note_off,0,0,0,,7,,,55,127
98937,note_on,4,0,0,,4,,,76,127
98937,note_on,0,0,0,,0,,,60,127
99026,note_off,89,0,0,,0,,,60,127
99029,note_on,3,0,0,,7,,,55,127
99118,note_off,89,0,0,,7,,,55,127
99121,note_on,3,0,0,,4,,,52,127
99210,note_off,89,0,0,,4,,,52,127
99214,note_on,4,0,0,,0,,,48,127
99303,note_off,89,0,0,,0,,,48,127
99303,note_off,0,0,0,,4,,,76,127
99306,note_on,3,0,0,,2,,,74,127
99306,note_on,0,0,0,,12,,,47,127
99395,note_off,89,0,0,,12,,,47,127
99398,note_on,3,0,0,,12,,,59,127
99487,note_off,89,0,0,,12,,,59,127
99487,note_off,0,0,0,,2,,,74,127
99491,note_on,4,0,0,,2,,,74,127
99491,note_on,0,0,0,,10,,,45,127
99522,note_off,31,0,0,,2,,,74,127
99523,note_on,1,0,0,,0,,,72,127
99554,note_off,31,0,0,,0,,,72,127
99556,note_on,2,0,0,,2,,,74,127
99580,note_off,24,0,0,,10,,,45,127
99583,note_on,3,0,0,,10,,,57,127
99587,note_off,4,0,0,,2,,,74,127
99589,note_on,2,0,0,,0,,,72,127
99672,note_off,83,0,0,,10,,,57,127
99675,note_on,3,0,0,,4,,,52,127
99764,note_off,89,0,0,,4,,,52,127
99768,note_on,4,0,0,,0,,,48,127
99856,note_off,88,0,0,,0,,,72,127
99857,note_off,1,0,0,,0,,,48,127
99860,note_on,3,0,0,,12,,,71,127
99860,note_on,0,0,0,,7,,,43,127
99949,note_off,89,0,0,,7,,,43,127
99952,note_on,3,0,0,,7,,,55,127
100041,note_off,89,0,0,,7,,,55,127
100041,note_off,0,0,0,,12,,,71,127
100044,note_on,3,0,0,,12,,,71,127
100044,note_on,0,0,0,,5,,,41,127
100075,note_off,31,0,0,,12,,,71,127
100077,note_on,2,0,0,,10,,,69,127
100108,note_off,31,0,0,,10,,,69,127
100110,note_on,2,0,0,,12,,,71,127
100133,note_off,23,0,0,,5,,,41,127
100137,note_on,4,0,0,,5,,,53,127
100141,note_off,4,0,0,,12,,,71,127
100143,note_on,2,0,0,,10,,,69,127
100226,note_off,83,0,0,,5,,,53,127
100229,note_on,3,0,0,,0,,,48,127
100318,note_off,89,0,0,,0,,,48,127
100321,note_on,3,0,0,,10,,,45,127
100410,note_off,89,0,0,,10,,,45,127
100410,note_off,0,0,0,,10,,,69,127
100414,note_on,4,0,0,,7,,,67,127
100414,note_on,0,0,0,,4,,,40,127
100503,note_off,89,0,0,,4,,,40,127
100506,note_on,3,0,0,,4,,,52,127
100595,note_off,89,0,0,,4,,,52,127
100595,note_off,0,0,0,,7,,,67,127
100598,note_on,3,0,0,,7,,,67,127
100598,note_on,0,0,0,,2,,,38,127
100629,note_off,31,0,0,,7,,,67,127
100631,note_on,2,0,0,,5,,,65,127
100662,note_off,31,0,0,,5,,,65,127
100664,note_on,2,0,0,,7,,,67,127
100687,note_off,23,0,0,,2,,,38,127
100691,note_on,4,0,0,,2,,,50,127
100695,note_off,4,0,0,,7,,,67,127
100696,note_on,1,0,0,,5,,,65,127
100780,note_off,84,0,0,,2,,,50,127
100783,note_on,3,0,0,,12,,,47,127
100872,note_off,89,0,0,,12,,,47,127
100875,note_on,3,0,0,,7,,,43,127
100963,note_off,88,0,0,,5,,,65,127
100964,note_off,1,0,0,,7,,,43,127
100968,note_on,4,0,0,,4,,,64,127
100968,note_on,0,0,0,,0,,,36,127
101057,note_off,89,0,0,,0,,,36,127
101060,note_on,3,0,0,,0,,,48,127
101149,note_off,89,0,0,,4,,,64,127
101158,note_off,9,0,0,,0,,,48,127
101164,note_on,6,0,0,,7,,,31,127
101164,note_on,0,0,0,,2,,,62,127
101253,note_off,89,0,0,,2,,,62,127
101256,note_on,3,0,0,,5,,,65,127
101345,note_off,89,0,0,,5,,,65,127
101348,note_on,3,0,0,,12,,,71,127
101437,note_off,89,0,0,,12,,,71,127
101441,note_on,4,0,0,,2,,,74,127
101530,note_off,89,0,0,,2,,,74,127
101533,note_on,3,0,0,,5,,,77,127
101622,note_off,89,0,0,,5,,,77,127
101625,note_on,3,0,0,,2,,,74,127
101714,note_off,89,0,0,,2,,,74,127
101714,note_off,0,0,0,,7,,,31,127
101718,note_on,4,0,0,,7,,,31,127
101718,note_on,0,0,0,,4,,,64,127
101807,note_off,89,0,0,,4,,,64,127
101810,note_on,3,0,0,,7,,,67,127
101899,note_off,89,0,0,,7,,,67,127
101902,note_on,3,0,0,,0,,,72,127
101991,note_off,89,0,0,,0,,,72,127
101994,note_on,3,0,0,,4,,,76,127
102083,note_off,89,0,0,,4,,,76,127
102087,note_on,4,0,0,,7,,,79,127
102176,note_off,89,0,0,,7,,,79,127
102179,note_on,3,0,0,,4,,,76,127
102268,note_off,89,0,0,,4,,,76,127
102268,note_off,0,0,0,,7,,,31,127
102279,note_on,11,0,0,,7,,,31,127
102279,note_on,0,0,0,,2,,,62,127
102368,note_off,89,0,0,,2,,,62,127
102371,note_on,3,0,0,,5,,,65,127
102460,note_off,89,0,0,,5,,,65,127
102464,note_on,4,0,0,,12,,,71,127
102553,note_off,89,0,0,,12,,,71,127
102556,note_on,3,0,0,,2,,,74,127
102645,note_off,89,0,0,,2,,,74,127
102648,note_on,3,0,0,,5,,,77,127
102737,note_off,89,0,0,,5,,,77,127
102741,note_on,4,0,0,,2,,,74,127
102829,note_off,88,0,0,,7,,,31,127
102830,note_off,1,0,0,,2,,,74,127
102833,note_on,3,0,0,,7,,,31,127
102833,note_on,0,0,0,,4,,,64,127
102922,note_off,89,0,0,,4,,,64,127
102925,note_on,3,0,0,,7,,,67,127
103014,note_off,89,0,0,,7,,,67,127
103018,note_on,4,0,0,,0,,,72,127
103107,note_off,89,0,0,,0,,,72,127
103110,note_on,3,0,0,,4,,,76,127
103199,note_off,89,0,0,,4,,,76,127
103202,note_on,3,0,0,,7,,,79,127
103291,note_off,89,0,0,,7,,,79,127
103294,note_on,3,0,0,,4,,,76,127
103383,note_off,89,0,0,,4,,,76,127
103383,note_off,0,0,0,,7,,,31,127
103387,note_on,4,0,0,,7,,,43,127
103387,note_on,0,0,0,,4,,,76,127
103414,note_off,27,0,0,,4,,,76,127
103418,note_on,4,0,0,,2,,,74,127
103445,note_off,27,0,0,,2,,,74,127
103448,note_on,3,0,0,,4,,,76,127
103475,note_off,27,0,0,,4,,,76,127
103476,note_off,1,0,0,,7,,,43,127
103479,note_on,3,0,0,,12,,,47,127
103479,note_on,0,0,0,,2,,,74,127
103506,note_off,27,0,0,,2,,,74,127
103510,note_on,4,0,0,,4,,,76,127
103537,note_off,27,0,0,,4,,,76,127
103541,note_on,4,0,0,,2,,,74,127
103568,note_off,27,0,0,,12,,,47,127
103571,note_on,3,0,0,,2,,,50,127
103660,note_off,89,0,0,,2,,,50,127
103664,note_on,4,0,0,,7,,,55,127
103753,note_off,89,0,0,,7,,,55,127
103756,note_on,3,0,0,,12,,,59,127
103845,note_off,89,0,0,,12,,,59,127
103848,note_on,3,0,0,,2,,,62,127
103937,note_off,89,0,0,,2,,,62,127
103938,note_off,1,0,0,,2,,,74,127
103956,note_on,18,0,0,,0,,,84,127
103956,note_on,0,0,0,,0,,,72,127
103956,note_on,0,0,0,,10,,,57,127
104045,note_off,89,0,0,,10,,,57,127
104048,note_on,3,0,0,,5,,,65,127
104137,note_off,89,0,0,,5,,,65,127
104137,note_off,0,0,0,,0,,,72,127
104137,note_off,0,0,0,,0,,,84,127
104141,note_on,4,0,0,,0,,,72,127
104141,note_on,0,0,0,,0,,,84,127
104141,note_on,0,0,0,,7,,,55,127
104230,note_off,89,0,0,,7,,,55,127
104233,note_on,3,0,0,,4,,,64,127
104322,note_off,89,0,0,,4,,,64,127
104322,note_off,0,0,0,,0,,,84,127
104322,note_off,0,0,0,,0,,,72,127
104325,note_on,3,0,0,,0,,,72,127
104325,note_on,0,0,0,,0,,,84,127
104325,note_on,0,0,0,,5,,,53,127
104414,note_off,89,0,0,,5,,,53,127
104418,note_on,4,0,0,,2,,,62,127
104506,note_off,88,0,0,,0,,,84,127
104506,note_off,0,0,0,,0,,,72,127
104507,note_off,1,0,0,,2,,,62,127
104510,note_on,3,0,0,,0,,,72,127
104510,note_on,0,0,0,,0,,,84,127
104510,note_on,0,0,0,,4,,,52,127
104510,note_on,0,0,0,,0,,,60,127
104599,note_off,89,0,0,,0,,,84,127
104602,note_on,3,0,0,,7,,,79,127
104691,note_off,89,0,0,,7,,,79,127
104694,note_on,3,0,0,,4,,,76,127
104783,note_off,89,0,0,,4,,,76,127
104784,note_off,1,0,0,,0,,,72,127
104787,note_on,3,0,0,,0,,,72,127
104876,note_off,89,0,0,,0,,,72,127
104879,note_on,3,0,0,,4,,,76,127
104968,note_off,89,0,0,,4,,,76,127
104971,note_on,3,0,0,,7,,,79,127
105060,note_off,89,0,0,,7,,,79,127
105060,note_off,0,0,0,,0,,,60,127
105060,note_off,0,0,0,,4,,,52,127
105064,note_on,4,0,0,,0,,,72,127
105064,note_on,0,0,0,,0,,,84,127
105064,note_on,0,0,0,,10,,,57,127
105153,note_off,89,0,0,,10,,,57,127
105156,note_on,3,0,0,,5,,,65,127
105245,note_off,89,0,0,,5,,,65,127
105245,note_off,0,0,0,,0,,,84,127
105245,note_off,0,0,0,,0,,,72,127
105248,note_on,3,0,0,,0,,,72,127
105248,note_on,0,0,0,,0,,,84,127
105248,note_on,0,0,0,,7,,,55,127
105337,note_off,89,0,0,,7,,,55,127
105341,note_on,4,0,0,,4,,,64,127
105429,note_off,88,0,0,,0,,,84,127
105429,note_off,0,0,0,,0,,,72,127
105430,note_off,1,0,0,,4,,,64,127
105433,note_on,3,0,0,,0,,,72,127
105433,note_on,0,0,0,,0,,,84,127
105433,note_on,0,0,0,,5,,,53,127
105522,note_off,89,0,0,,5,,,53,127
105525,note_on,3,0,0,,2,,,62,127
105614,note_off,89,0,0,,2,,,62,127
105614,note_off,0,0,0,,0,,,84,127
105614,note_off,0,0,0,,0,,,72,127
105618,note_on,4,0,0,,0,,,72,127
105618,note_on,0,0,0,,0,,,84,127
105618,note_on,0,0,0,,4,,,52,127
105618,note_on,0,0,0,,0,,,60,127
105707,note_off,89,0,0,,0,,,84,127
105710,note_on,3,0,0,,7,,,79,127
105799,note_off,89,0,0,,7,,,79,127
105802,note_on,3,0,0,,4,,,76,127
105891,note_off,89,0,0,,4,,,76,127
105892,note_off,1,0,0,,0,,,72,127
105894,note_on,2,0,0,,0,,,72,127
105983,note_off,89,0,0,,0,,,72,127
105987,note_on,4,0,0,,4,,,76,127
106076,note_off,89,0,0,,4,,,76,127
106079,note_on,3,0,0,,7,,,79,127
106168,note_off,89,0,0,,7,,,79,127
106168,note_off,0,0,0,,0,,,60,127
106168,note_off,0,0,0,,4,,,52,127
106171,note_on,3,0,0,,10,,,81,127
106171,note_on,0,0,0,,5,,,53,127
106260,note_off,89,0,0,,5,,,53,127
106260,note_off,0,0,0,,10,,,81,127
106264,note_on,4,0,0,,5,,,77,127
106264,note_on,0,0,0,,2,,,62,127
106353,note_off,89,0,0,,2,,,62,127
106353,note_off,0,0,0,,5,,,77,127
106356,note_on,3,0,0,,7,,,79,127
106356,note_on,0,0,0,,4,,,52,127
106445,note_off,89,0,0,,4,,,52,127
106445,note_off,0,0,0,,7,,,79,127
106448,note_on,3,0,0,,4,,,76,127
106448,note_on,0,0,0,,0,,,60,127
106537,note_off,89,0,0,,0,,,60,127
106537,note_off,0,0,0,,4,,,76,127
106541,note_on,4,0,0,,5,,,77,127
106541,note_on,0,0,0,,2,,,50,127
106630,note_off,89,0,0,,2,,,50,127
106630,note_off,0,0,0,,5,,,77,127
106633,note_on,3,0,0,,2,,,74,127
106633,note_on,0,0,0,,12,,,59,127
106722,note_off,89,0,0,,12,,,59,127
106722,note_off,0,0,0,,2,,,74,127
106725,note_on,3,0,0,,4,,,76,127
106725,note_on,0,0,0,,4,,,52,127
106814,note_off,89,0,0,,4,,,52,127
106814,note_off,0,0,0,,4,,,76,127
106818,note_on,4,0,0,,7,,,79,127
106818,note_on,0,0,0,,0,,,60,127
106907,note_off,89,0,0,,0,,,60,127
106907,note_off,0,0,0,,7,,,79,127
106910,note_on,3,0,0,,12,,,71,127
106910,note_on,0,0,0,,2,,,50,127
106999,note_off,89,0,0,,2,,,50,127
106999,note_off,0,0,0,,12,,,71,127
107002,note_on,3,0,0,,2,,,74,127
107002,note_on,0,0,0,,12,,,59,127
107091,note_off,89,0,0,,12,,,59,127
107091,note_off,0,0,0,,2,,,74,127
107094,note_on,3,0,0,,0,,,72,127
107094,note_on,0,0,0,,0,,,48,127
107183,note_off,89,0,0,,0,,,48,127
107183,note_off,0,0,0,,0,,,72,127
107187,note_on,4,0,0,,4,,,76,127
107187,note_on,0,0,0,,0,,,60,127
107276,note_off,89,0,0,,0,,,60,127
107276,note_off,0,0,0,,4,,,76,127
107279,note_on,3,0,0,,2,,,74,127
107279,note_on,0,0,0,,5,,,53,127
107368,note_off,89,0,0,,2,,,74,127
107371,note_on,3,0,0,,5,,,77,127
107460,note_off,89,0,0,,5,,,77,127
107460,note_off,0,0,0,,5,,,53,127
107464,note_on,4,0,0,,4,,,76,127
107464,note_on,0,0,0,,7,,,55,127
107553,note_off,89,0,0,,4,,,76,127
107556,note_on,3,0,0,,2,,,74,127
107645,note_off,89,0,0,,2,,,74,127
107645,note_off,0,0,0,,7,,,55,127
107648,note_on,3,0,0,,0,,,72,127
107648,note_on,0,0,0,,7,,,43,127
107737,note_off,89,0,0,,0,,,72,127
107741,note_on,4,0,0,,12,,,71,127
107829,note_off,88,0,0,,7,,,43,127
107830,note_off,1,0,0,,12,,,71,127
107833,note_on,3,0,0,,0,,,72,127
107833,note_on,0,0,0,,0,,,36,127
107922,note_off,89,0,0,,0,,,72,127
107925,note_on,3,0,0,,2,,,74,127
108014,note_off,89,0,0,,2,,,74,127
108018,note_on,4,0,0,,4,,,76,127
108107,note_off,89,0,0,,4,,,76,127
108110,note_on,3,0,0,,5,,,77,127
108199,note_off,89,0,0,,5,,,77,127
108202,note_on,3,0,0,,7,,,79,127
108294,note_on,92,0,0,,0,,,72,127
108334,note_off,40,0,0,,7,,,79,127
108383,note_off,49,0,0,,0,,,36,127
108392,note_off,9,0,0,,0,,,72,127
108394,note_on,2,0,0,,0,,,72,127
108394,note_on,0,0,0,,0,,,84,127
108394,note_on,0,0,0,,10,,,57,127
108483,note_off,89,0,0,,10,,,57,127
108487,note_on,4,0,0,,5,,,65,127
108575,note_off,88,0,0,,0,,,84,127
108575,note_off,0,0,0,,0,,,72,127
108576,note_off,1,0,0,,5,,,65,127
108579,note_on,3,0,0,,0,,,84,127
108579,note_on,0,0,0,,0,,,72,127
108579,note_on,0,0,0,,7,,,55,127
108668,note_off,89,0,0,,7,,,55,127
108671,note_on,3,0,0,,4,,,64,127
108760,note_off,89,0,0,,4,,,64,127
108760,note_off,0,0,0,,0,,,72,127
108760,note_off,0,0,0,,0,,,84,127
108764,note_on,4,0,0,,0,,,72,127
108764,note_on,0,0,0,,0,,,84,127
108764,note_on,0,0,0,,5,,,53,127
108853,note_off,89,0,0,,5,,,53,127
108856,note_on,3,0,0,,2,,,62,127
108945,note_off,89,0,0,,2,,,62,127
108945,note_off,0,0,0,,0,,,84,127
108945,note_off,0,0,0,,0,,,72,127
108948,note_on,3,0,0,,0,,,72,127
108948,note_on,0,0,0,,0,,,84,127
108948,note_on,0,0,0,,0,,,60,127
108948,note_on,0,0,0,,4,,,52,127
109037,note_off,89,0,0,,0,,,84,127
109041,note_on,4,0,0,,7,,,79,127
109130,note_off,89,0,0,,7,,,79,127
109133,note_on,3,0,0,,4,,,76,127
109222,note_off,89,0,0,,4,,,76,127
109222,note_off,0,0,0,,0,,,72,127
109225,note_on,3,0,0,,0,,,72,127
109314,note_off,89,0,0,,0,,,72,127
109318,note_on,4,0,0,,4,,,76,127
109407,note_off,89,0,0,,4,,,76,127
109410,note_on,3,0,0,,7,,,79,127
109498,note_off,88,0,0,,4,,,52,127
109498,note_off,0,0,0,,0,,,60,127
109499,note_off,1,0,0,,7,,,79,127
109502,note_on,3,0,0,,0,,,72,127
109502,note_on,0,0,0,,0,,,84,127
109502,note_on,0,0,0,,10,,,57,127
109591,note_off,89,0,0,,10,,,57,127
109594,note_on,3,0,0,,5,,,65,127
109683,note_off,89,0,0,,5,,,65,127
109683,note_off,0,0,0,,0,,,84,127
109683,note_off,0,0,0,,0,,,72,127
109687,note_on,4,0,0,,0,,,72,127
109687,note_on,0,0,0,,0,,,84,127
109687,note_on,0,0,0,,7,,,55,127
109776,note_off,89,0,0,,7,,,55,127
109779,note_on,3,0,0,,4,,,64,127
109868,note_off,89,0,0,,4,,,64,127
109868,note_off,0,0,0,,0,,,84,127
109868,note_off,0,0,0,,0,,,72,127
109871,note_on,3,0,0,,0,,,72,127
109871,note_on,0,0,0,,0,,,84,127
109871,note_on,0,0,0,,5,,,53,127
109960,note_off,89,0,0,,5,,,53,127
109964,note_on,4,0,0,,2,,,62,127
110052,note_off,88,0,0,,0,,,84,127
110052,note_off,0,0,0,,0,,,72,127
110053,note_off,1,0,0,,2,,,62,127
110056,note_on,3,0,0,,0,,,72,127
110056,note_on,0,0,0,,0,,,84,127
110056,note_on,0,0,0,,4,,,52,127
110056,note_on,0,0,0,,0,,,60,127
110145,note_off,89,0,0,,0,,,84,127
110148,note_on,3,0,0,,7,,,79,127
110237,note_off,89,0,0,,7,,,79,127
110241,note_on,4,0,0,,4,,,76,127
110330,note_off,89,0,0,,4,,,76,127
110330,note_off,0,0,0,,0,,,72,127
110333,note_on,3,0,0,,0,,,72,127
110422,note_off,89,0,0,,0,,,72,127
110425,note_on,3,0,0,,4,,,76,127
110514,note_off,89,0,0,,4,,,76,127
110518,note_on,4,0,0,,7,,,79,127
110606,note_off,88,0,0,,0,,,60,127
110606,note_off,0,0,0,,4,,,52,127
110607,note_off,1,0,0,,7,,,79,127
110618,note_on,11,0,0,,10,,,81,127
110618,note_on,0,0,0,,5,,,53,127
110707,note_off,89,0,0,,5,,,53,127
110707,note_off,0,0,0,,10,,,81,127
110710,note_on,3,0,0,,5,,,77,127
110710,note_on,0,0,0,,2,,,62,127
110799,note_off,89,0,0,,2,,,62,127
110799,note_off,0,0,0,,5,,,77,127
110802,note_on,3,0,0,,7,,,79,127
110802,note_on,0,0,0,,4,,,52,127
110891,note_off,89,0,0,,4,,,52,127
110891,note_off,0,0,0,,7,,,79,127
110894,note_on,3,0,0,,4,,,76,127
110894,note_on,0,0,0,,0,,,60,127
110983,note_off,89,0,0,,0,,,60,127
110983,note_off,0,0,0,,4,,,76,127
110987,note_on,4,0,0,,5,,,77,127
110987,note_on,0,0,0,,2,,,50,127
111076,note_off,89,0,0,,2,,,50,127
111076,note_off,0,0,0,,5,,,77,127
111079,note_on,3,0,0,,2,,,74,127
111079,note_on,0,0,0,,12,,,59,127
111168,note_off,89,0,0,,12,,,59,127
111168,note_off,0,0,0,,2,,,74,127
111171,note_on,3,0,0,,4,,,76,127
111171,note_on,0,0,0,,4,,,52,127
111260,note_off,89,0,0,,4,,,52,127
111260,note_off,0,0,0,,4,,,76,127
111264,note_on,4,0,0,,7,,,79,127
111264,note_on,0,0,0,,0,,,60,127
111353,note_off,89,0,0,,0,,,60,127
111353,note_off,0,0,0,,7,,,79,127
111356,note_on,3,0,0,,12,,,71,127
111356,note_on,0,0,0,,2,,,50,127
111445,note_off,89,0,0,,2,,,50,127
111445,note_off,0,0,0,,12,,,71,127
111448,note_on,3,0,0,,2,,,74,127
111448,note_on,0,0,0,,12,,,59,127
111537,note_off,89,0,0,,12,,,59,127
111537,note_off,0,0,0,,2,,,74,127
111541,note_on,4,0,0,,0,,,72,127
111541,note_on,0,0,0,,0,,,48,127
111630,note_off,89,0,0,,0,,,48,127
111630,note_off,0,0,0,,0,,,72,127
111633,note_on,3,0,0,,4,,,76,127
111633,note_on,0,0,0,,0,,,60,127
111722,note_off,89,0,0,,0,,,60,127
111722,note_off,0,0,0,,4,,,76,127
111725,note_on,3,0,0,,2,,,74,127
111725,note_on,0,0,0,,5,,,53,127
111814,note_off,89,0,0,,2,,,74,127
111818,note_on,4,0,0,,5,,,77,127
111906,note_off,88,0,0,,5,,,53,127
111907,note_off,1,0,0,,5,,,77,127
111910,note_on,3,0,0,,4,,,76,127
111910,note_on,0,0,0,,7,,,55,127
111999,note_off,89,0,0,,4,,,76,127
112002,note_on,3,0,0,,2,,,74,127
112091,note_off,89,0,0,,2,,,74,127
112091,note_off,0,0,0,,7,,,55,127
112094,note_on,3,0,0,,0,,,72,127
112094,note_on,0,0,0,,7,,,43,127
112183,note_off,89,0,0,,0,,,72,127
112187,note_on,4,0,0,,12,,,71,127
112275,note_off,88,0,0,,7,,,43,127
112278,note_off,3,0,0,,12,,,71,127
112287,note_on,9,0,0,,0,,,72,127
112287,note_on,0,0,0,,0,,,60,127
112294,note_on,7,0,0,,0,,,48,127
112376,note_off,82,0,0,,0,,,72,127
112387,note_on,11,0,0,,2,,,74,127
112475,note_off,88,0,0,,0,,,48,127
112476,note_off,1,0,0,,2,,,74,127
112479,note_on,3,0,0,,4,,,76,127
112479,note_on,0,0,0,,2,,,50,127
112568,note_off,89,0,0,,4,,,76,127
112571,note_on,3,0,0,,5,,,77,127
112660,note_off,89,0,0,,5,,,77,127
112660,note_off,0,0,0,,2,,,50,127
112664,note_on,4,0,0,,7,,,79,127
112664,note_on,0,0,0,,4,,,52,127
112753,note_off,89,0,0,,7,,,79,127
112756,note_on,3,0,0,,10,,,81,127
112837,note_off,81,0,0,,0,,,60,127
112845,note_off,8,0,0,,10,,,81,127
112845,note_off,0,0,0,,4,,,52,127
112848,note_on,3,0,0,,8,,,68,127
112848,note_on,0,0,0,,5,,,53,127
112848,note_on,0,0,0,,0,,,60,127
112937,note_off,89,0,0,,8,,,68,127
112941,note_on,4,0,0,,10,,,69,127
113029,note_off,88,0,0,,5,,,53,127
113030,note_off,1,0,0,,10,,,69,127
113033,note_on,3,0,0,,12,,,71,127
113033,note_on,0,0,0,,4,,,52,127
113122,note_off,89,0,0,,12,,,71,127
113125,note_on,3,0,0,,0,,,72,127
113214,note_off,89,0,0,,0,,,72,127
113214,note_off,0,0,0,,4,,,52,127
113218,note_on,4,0,0,,2,,,74,127
113218,note_on,0,0,0,,2,,,50,127
113307,note_off,89,0,0,,2,,,74,127
113310,note_on,3,0,0,,4,,,76,127
113398,note_off,88,0,0,,0,,,60,127
113399,note_off,1,0,0,,4,,,76,127
113399,note_off,0,0,0,,2,,,50,127
113402,note_on,3,0,0,,6,,,66,127
113402,note_on,0,0,0,,0,,,60,127
113402,note_on,0,0,0,,4,,,52,127
113491,note_off,89,0,0,,6,,,66,127
113494,note_on,3,0,0,,7,,,67,127
113583,note_off,89,0,0,,7,,,67,127
113583,note_off,0,0,0,,4,,,52,127
113587,note_on,4,0,0,,10,,,69,127
113587,note_on,0,0,0,,2,,,50,127
113676,note_off,89,0,0,,10,,,69,127
113679,note_on,3,0,0,,12,,,71,127
113768,note_off,89,0,0,,12,,,71,127
113768,note_off,0,0,0,,2,,,50,127
113771,note_on,3,0,0,,0,,,72,127
113771,note_on,0,0,0,,0,,,48,127
113860,note_off,89,0,0,,0,,,72,127
113864,note_on,4,0,0,,2,,,74,127
113952,note_off,88,0,0,,0,,,48,127
113952,note_off,0,0,0,,0,,,60,127
113956,note_on,4,0,0,,5,,,65,127
113956,note_on,0,0,0,,5,,,53,127
114044,note_off,88,0,0,,2,,,74,127
114045,note_off,1,0,0,,5,,,65,127
114048,note_on,3,0,0,,2,,,74,127
114137,note_off,89,0,0,,2,,,74,127
114137,note_off,0,0,0,,5,,,53,127
114141,note_on,4,0,0,,4,,,64,127
114141,note_on,0,0,0,,7,,,55,127
114230,note_off,89,0,0,,4,,,64,127
114233,note_on,3,0,0,,0,,,72,127
114322,note_off,89,0,0,,0,,,72,127
114322,note_off,0,0,0,,7,,,55,127
114325,note_on,3,0,0,,2,,,62,127
114325,note_on,0,0,0,,7,,,43,127
114414,note_off,89,0,0,,2,,,62,127
114418,note_on,4,0,0,,12,,,71,127
114506,note_off,88,0,0,,7,,,43,127
114507,note_off,1,0,0,,12,,,71,127
114525,note_on,18,0,0,,0,,,48,127
114525,note_on,0,0,0,,0,,,60,127
114525,note_on,0,0,0,,0,,,72,127
114614,note_off,89,0,0,,0,,,72,127
114618,note_on,4,0,0,,2,,,74,127
114706,note_off,88,0,0,,0,,,48,127
114707,note_off,1,0,0,,2,,,74,127
114710,note_on,3,0,0,,2,,,50,127
114710,note_on,0,0,0,,4,,,76,127
114799,note_off,89,0,0,,4,,,76,127
114802,note_on,3,0,0,,5,,,77,127
114891,note_off,89,0,0,,5,,,77,127
114891,note_off,0,0,0,,2,,,50,127
114894,note_on,3,0,0,,4,,,52,127
114894,note_on,0,0,0,,7,,,79,127
114983,note_off,89,0,0,,7,,,79,127
114987,note_on,4,0,0,,10,,,81,127
115075,note_off,88,0,0,,4,,,52,127
115075,note_off,0,0,0,,0,,,60,127
115076,note_off,1,0,0,,10,,,81,127
115085,note_on,9,0,0,,0,,,60,127
115085,note_on,0,0,0,,8,,,68,127
115087,note_on,2,0,0,,5,,,53,127
115174,note_off,87,0,0,,8,,,68,127
115179,note_on,5,0,0,,10,,,69,127
115268,note_off,89,0,0,,10,,,69,127
115268,note_off,0,0,0,,5,,,53,127
115271,note_on,3,0,0,,4,,,52,127
115271,note_on,0,0,0,,12,,,71,127
115360,note_off,89,0,0,,12,,,71,127
115364,note_on,4,0,0,,0,,,72,127
115452,note_off,88,0,0,,4,,,52,127
115453,note_off,1,0,0,,0,,,72,127
115456,note_on,3,0,0,,2,,,50,127
115456,note_on,0,0,0,,2,,,74,127
115545,note_off,89,0,0,,2,,,74,127
115548,note_on,3,0,0,,4,,,76,127
115635,note_off,87,0,0,,0,,,60,127
115637,note_off,2,0,0,,4,,,76,127
115637,note_off,0,0,0,,2,,,50,127
115648,note_on,11,0,0,,4,,,52,127
115648,note_on,0,0,0,,0,,,60,127
115648,note_on,0,0,0,,6,,,66,127
115737,note_off,89,0,0,,6,,,66,127
115741,note_on,4,0,0,,7,,,67,127
115829,note_off,88,0,0,,4,,,52,127
115830,note_off,1,0,0,,7,,,67,127
115833,note_on,3,0,0,,2,,,50,127
115833,note_on,0,0,0,,10,,,69,127
115922,note_off,89,0,0,,10,,,69,127
115925,note_on,3,0,0,,12,,,71,127
116014,note_off,89,0,0,,12,,,71,127
116014,note_off,0,0,0,,2,,,50,127
116018,note_on,4,0,0,,0,,,48,127
116018,note_on,0,0,0,,0,,,72,127
116107,note_off,89,0,0,,0,,,72,127
116110,note_on,3,0,0,,2,,,74,127
116198,note_off,88,0,0,,0,,,60,127
116199,note_off,1,0,0,,2,,,74,127
116199,note_off,0,0,0,,0,,,48,127
116202,note_on,3,0,0,,5,,,53,127
116202,note_on,0,0,0,,5,,,65,127
116294,note_on,92,0,0,,2,,,74,127
116338,note_off,44,0,0,,5,,,65,127
116383,note_off,45,0,0,,2,,,74,127
116383,note_off,0,0,0,,5,,,53,127
116387,note_on,4,0,0,,7,,,55,127
116387,note_on,0,0,0,,4,,,64,127
116479,note_on,92,0,0,,0,,,72,127
116523,note_off,44,0,0,,4,,,64,127
116568,note_off,45,0,0,,0,,,72,127
116571,note_on,3,0,0,,7,,,43,127
116571,note_on,0,0,0,,2,,,62,127
116664,note_on,93,0,0,,12,,,71,127
116707,note_off,43,0,0,,2,,,62,127
116752,note_off,45,0,0,,7,,,43,127
116753,note_off,1,0,0,,12,,,71,127
116753,note_off,0,0,0,,7,,,55,127
116767,note_on,14,0,0,,0,,,60,127
116767,note_on,0,0,0,,4,,,64,127
116860,note_on,93,0,0,,0,,,72,127
116948,note_off,88,0,0,,4,,,64,127
116948,note_off,0,0,0,,0,,,60,127
116949,note_off,1,0,0,,0,,,72,127
116953,note_on,4,0,0,,5,,,53,127
116953,note_on,0,0,0,,5,,,65,127
117047,note_on,94,0,0,,2,,,74,127
117134,note_off,87,0,0,,5,,,65,127
117134,note_off,0,0,0,,5,,,53,127
117136,note_off,2,0,0,,2,,,74,127
117140,note_on,4,0,0,,7,,,55,127
117140,note_on,0,0,0,,2,,,62,127
117233,note_on,93,0,0,,12,,,71,127
117321,note_off,88,0,0,,2,,,62,127
117321,note_off,0,0,0,,7,,,55,127
117322,note_off,1,0,0,,12,,,71,127
117336,note_on,14,0,0,,0,,,60,127
117336,note_on,0,0,0,,4,,,64,127
117429,note_on,93,0,0,,0,,,72,127
117517,note_off,88,0,0,,4,,,64,127
117517,note_off,0,0,0,,0,,,60,127
117523,note_on,6,0,0,,5,,,53,127
117523,note_on,0,0,0,,5,,,65,127
117565,note_off,42,0,0,,0,,,72,127
117616,note_on,51,0,0,,2,,,74,127
117704,note_off,88,0,0,,5,,,65,127
117704,note_off,0,0,0,,5,,,53,127
117709,note_on,5,0,0,,7,,,55,127
117709,note_on,0,0,0,,2,,,62,127
117752,note_off,43,0,0,,2,,,74,127
117803,note_on,51,0,0,,12,,,71,127
117890,note_off,87,0,0,,2,,,62,127
117890,note_off,0,0,0,,7,,,55,127
117892,note_off,2,0,0,,12,,,71,127
117906,note_on,14,0,0,,7,,,67,127
117906,note_on,0,0,0,,0,,,48,127
118000,note_on,94,0,0,,4,,,76,127
118087,note_off,87,0,0,,0,,,48,127
118087,note_off,0,0,0,,7,,,67,127
118094,note_on,7,0,0,,5,,,65,127
118094,note_on,0,0,0,,5,,,41,127
118181,note_off,87,0,0,,4,,,76,127
118188,note_on,7,0,0,,2,,,74,127
118275,note_off,87,0,0,,5,,,41,127
118275,note_off,0,0,0,,5,,,65,127
118283,note_on,8,0,0,,2,,,62,127
118283,note_on,0,0,0,,7,,,43,127
118369,note_off,86,0,0,,2,,,74,127
118382,note_on,13,0,0,,12,,,71,127
118464,note_off,82,0,0,,7,,,43,127
118464,note_off,0,0,0,,2,,,62,127
118485,note_off,21,0,0,,12,,,71,127
118514,note_on,29,0,0,,0,,,72,127
118514,note_on,0,0,0,,0,,,36,127
120242,note_off,1728,0,0,,0,,,36,127
120242,note_off,0,0,0,,0,,,72,127
121344,end_of_track,1102,1,0,,,,,,
