tick,type,time,meta,track,program,channel,pitch,tempo,note,velocity
0,copyright,0,1,0,,,,,,
0,program_change,0,0,0,6,0,,,,
0,pitchwheel,0,0,0,,0,0,,,
0,program_change,0,0,0,6,1,,,,
0,pitchwheel,0,0,0,,1,-590,,,
0,program_change,0,0,0,6,2,,,,
0,pitchwheel,0,0,0,,2,-272,,,
0,program_change,0,0,0,6,3,,,,
0,pitchwheel,0,0,0,,3,-353,,,
0,program_change,0,0,0,6,4,,,,
0,pitchwheel,0,0,0,,4,-560,,,
0,program_change,0,0,0,6,5,,,,
0,pitchwheel,0,0,0,,5,-80,,,
0,program_change,0,0,0,6,6,,,,
0,pitchwheel,0,0,0,,6,-625,,,
0,program_change,0,0,0,6,7,,,,
0,pitchwheel,0,0,0,,7,-130,,,
0,program_change,0,0,0,6,8,,,,
0,pitchwheel,0,0,0,,8,-512,,,
0,program_change,0,0,0,6,10,,,,
0,pitchwheel,0,0,0,,10,-464,,,
0,program_change,0,0,0,6,11,,,,
0,pitchwheel,0,0,0,,11,-208,,,
0,program_change,0,0,0,6,12,,,,
0,pitchwheel,0,0,0,,12,-553,,,
0,set_tempo,0,1,0,,,,500000,,
125,note_on,125,0,0,,0,,,48,127
250,note_on,125,0,0,,0,,,72,127
374,note_off,124,0,0,,0,,,72,127
375,note_on,1,0,0,,4,,,76,127
499,note_off,124,0,0,,4,,,76,127
500,note_on,1,0,0,,7,,,79,127
624,note_off,124,0,0,,7,,,79,127
625,note_on,1,0,0,,0,,,84,127
749,note_off,124,0,0,,0,,,48,127
750,note_on,1,0,0,,7,,,67,127
874,note_off,124,0,0,,7,,,67,127
875,note_on,1,0,0,,4,,,64,127
999,note_off,124,0,0,,4,,,64,127
1000,note_on,1,0,0,,0,,,60,127
1094,note_off,94,0,0,,0,,,60,127
1125,note_on,31,0,0,,0,,,36,127
1250,note_on,125,0,0,,0,,,72,127
1374,note_off,124,0,0,,0,,,72,127
1374,note_off,0,0,0,,0,,,84,127
1375,note_on,1,0,0,,4,,,76,127
1499,note_off,124,0,0,,4,,,76,127
1500,note_on,1,0,0,,7,,,79,127
1624,note_off,124,0,0,,7,,,79,127
1625,note_on,1,0,0,,0,,,84,127
1749,note_off,124,0,0,,0,,,36,127
1750,note_on,1,0,0,,7,,,67,127
1874,note_off,124,0,0,,7,,,67,127
1875,note_on,1,0,0,,4,,,64,127
1999,note_off,124,0,0,,4,,,64,127
2000,note_on,1,0,0,,0,,,60,127
2094,note_off,94,0,0,,0,,,60,127
2125,note_on,31,0,0,,0,,,36,127
2250,note_on,125,0,0,,0,,,72,127
2374,note_off,124,0,0,,0,,,72,127
2374,note_off,0,0,0,,0,,,84,127
2375,note_on,1,0,0,,4,,,76,127
2499,note_off,124,0,0,,4,,,76,127
2500,note_on,1,0,0,,7,,,79,127
2624,note_off,124,0,0,,7,,,79,127
2625,note_on,1,0,0,,0,,,84,127
2749,note_off,124,0,0,,0,,,36,127
2750,note_on,1,0,0,,7,,,67,127
2874,note_off,124,0,0,,7,,,67,127
2875,note_on,1,0,0,,4,,,64,127
2999,note_off,124,0,0,,4,,,64,127
3000,note_on,1,0,0,,0,,,60,127
3094,note_off,94,0,0,,0,,,60,127
3124,note_off,30,0,0,,0,,,84,127
3125,note_on,1,0,0,,5,,,41,127
3125,note_on,0,0,0,,10,,,81,127
3374,note_off,249,0,0,,5,,,41,127
3375,note_on,1,0,0,,5,,,53,127
3624,note_off,249,0,0,,5,,,53,127
3624,note_off,0,0,0,,10,,,81,127
3625,note_on,1,0,0,,7,,,55,127
3625,note_on,0,0,0,,4,,,76,127
3675,note_on,50,0,0,,2,,,74,127
3687,note_off,12,0,0,,4,,,76,127
3725,note_on,38,0,0,,4,,,76,127
3737,note_off,12,0,0,,2,,,74,127
3776,note_on,39,0,0,,2,,,74,127
3786,note_off,10,0,0,,4,,,76,127
3825,note_on,39,0,0,,4,,,76,127
3837,note_off,12,0,0,,2,,,74,127
3876,note_on,39,0,0,,7,,,43,127
3876,note_on,0,0,0,,2,,,74,127
3886,note_off,10,0,0,,4,,,76,127
3925,note_on,39,0,0,,4,,,76,127
3937,note_off,12,0,0,,2,,,74,127
3975,note_on,38,0,0,,2,,,74,127
3987,note_off,12,0,0,,4,,,76,127
4026,note_on,39,0,0,,4,,,76,127
4036,note_off,10,0,0,,2,,,74,127
4075,note_on,39,0,0,,2,,,74,127
4087,note_off,12,0,0,,4,,,76,127
4116,note_off,29,0,0,,2,,,74,127
4125,note_off,9,0,0,,7,,,43,127
4125,note_off,0,0,0,,7,,,55,127
4126,note_on,1,0,0,,0,,,36,127
4126,note_on,0,0,0,,0,,,72,127
4250,note_off,124,0,0,,0,,,72,127
4251,note_on,1,0,0,,0,,,72,127
4375,note_off,124,0,0,,0,,,72,127
4376,note_on,1,0,0,,4,,,76,127
4500,note_off,124,0,0,,4,,,76,127
4501,note_on,1,0,0,,7,,,79,127
4625,note_off,124,0,0,,7,,,79,127
4626,note_on,1,0,0,,0,,,84,127
4750,note_off,124,0,0,,0,,,36,127
4751,note_on,1,0,0,,7,,,67,127
4875,note_off,124,0,0,,7,,,67,127
4876,note_on,1,0,0,,4,,,64,127
5000,note_off,124,0,0,,4,,,64,127
5001,note_on,1,0,0,,0,,,60,127
5084,note_off,83,0,0,,0,,,60,127
5124,note_off,40,0,0,,0,,,84,127
5125,note_on,1,0,0,,5,,,41,127
5125,note_on,0,0,0,,10,,,81,127
5374,note_off,249,0,0,,5,,,41,127
5375,note_on,1,0,0,,5,,,53,127
5624,note_off,249,0,0,,5,,,53,127
5624,note_off,0,0,0,,10,,,81,127
5625,note_on,1,0,0,,7,,,55,127
5625,note_on,0,0,0,,4,,,76,127
5675,note_on,50,0,0,,2,,,74,127
5687,note_off,12,0,0,,4,,,76,127
5725,note_on,38,0,0,,4,,,76,127
5737,note_off,12,0,0,,2,,,74,127
5776,note_on,39,0,0,,2,,,74,127
5786,note_off,10,0,0,,4,,,76,127
5825,note_on,39,0,0,,4,,,76,127
5837,note_off,12,0,0,,2,,,74,127
5876,note_on,39,0,0,,7,,,43,127
5876,note_on,0,0,0,,2,,,74,127
5886,note_off,10,0,0,,4,,,76,127
5925,note_on,39,0,0,,4,,,76,127
5937,note_off,12,0,0,,2,,,74,127
5975,note_on,38,0,0,,2,,,74,127
5987,note_off,12,0,0,,4,,,76,127
6026,note_on,39,0,0,,4,,,76,127
6036,note_off,10,0,0,,2,,,74,127
6075,note_on,39,0,0,,2,,,74,127
6087,note_off,12,0,0,,4,,,76,127
6116,note_off,29,0,0,,2,,,74,127
6125,note_off,9,0,0,,7,,,43,127
6125,note_off,0,0,0,,7,,,55,127
6126,note_on,1,0,0,,0,,,36,127
6126,note_on,0,0,0,,0,,,72,127
6376,note_on,250,0,0,,0,,,84,127
6501,note_off,125,0,0,,0,,,36,127
6601,note_off,100,0,0,,0,,,72,127
6610,note_off,9,0,0,,0,,,84,127
6636,note_on,26,0,0,,2,,,62,127
6636,note_on,0,0,0,,5,,,65,127
6686,note_on,50,0,0,,0,,,60,127
6686,note_on,0,0,0,,4,,,64,127
6698,note_off,12,0,0,,5,,,65,127
6698,note_off,0,0,0,,2,,,62,127
6736,note_on,38,0,0,,2,,,62,127
6736,note_on,0,0,0,,5,,,65,127
6748,note_off,12,0,0,,4,,,64,127
6748,note_off,0,0,0,,0,,,60,127
6787,note_on,39,0,0,,0,,,60,127
6787,note_on,0,0,0,,4,,,64,127
6797,note_off,10,0,0,,5,,,65,127
6797,note_off,0,0,0,,2,,,62,127
6836,note_on,39,0,0,,2,,,62,127
6836,note_on,0,0,0,,5,,,65,127
6848,note_off,12,0,0,,4,,,64,127
6848,note_off,0,0,0,,0,,,60,127
6887,note_on,39,0,0,,0,,,60,127
6887,note_on,0,0,0,,4,,,64,127
6897,note_off,10,0,0,,5,,,65,127
6897,note_off,0,0,0,,2,,,62,127
6936,note_on,39,0,0,,2,,,62,127
6936,note_on,0,0,0,,5,,,65,127
6948,note_off,12,0,0,,4,,,64,127
6948,note_off,0,0,0,,0,,,60,127
6986,note_on,38,0,0,,0,,,60,127
6986,note_on,0,0,0,,4,,,64,127
6998,note_off,12,0,0,,5,,,65,127
6998,note_off,0,0,0,,2,,,62,127
7037,note_on,39,0,0,,2,,,62,127
7037,note_on,0,0,0,,5,,,65,127
7047,note_off,10,0,0,,4,,,64,127
7047,note_off,0,0,0,,0,,,60,127
7086,note_on,39,0,0,,0,,,60,127
7086,note_on,0,0,0,,4,,,64,127
7098,note_off,12,0,0,,5,,,65,127
7098,note_off,0,0,0,,2,,,62,127
7127,note_off,29,0,0,,4,,,64,127
7127,note_off,0,0,0,,0,,,60,127
7137,note_on,10,0,0,,12,,,59,127
7137,note_on,0,0,0,,2,,,62,127
7325,note_off,188,0,0,,2,,,62,127
7325,note_off,0,0,0,,12,,,59,127
7388,note_on,63,0,0,,12,,,47,127
7388,note_on,0,0,0,,2,,,86,127
7576,note_off,188,0,0,,2,,,86,127
7576,note_off,0,0,0,,12,,,47,127
7639,note_on,63,0,0,,0,,,60,127
7639,note_on,0,0,0,,4,,,64,127
7689,note_on,50,0,0,,12,,,59,127
7689,note_on,0,0,0,,2,,,62,127
7701,note_off,12,0,0,,4,,,64,127
7701,note_off,0,0,0,,0,,,60,127
7739,note_on,38,0,0,,0,,,60,127
7739,note_on,0,0,0,,4,,,64,127
7751,note_off,12,0,0,,2,,,62,127
7751,note_off,0,0,0,,12,,,59,127
7790,note_on,39,0,0,,12,,,59,127
7790,note_on,0,0,0,,2,,,62,127
7800,note_off,10,0,0,,4,,,64,127
7800,note_off,0,0,0,,0,,,60,127
7839,note_on,39,0,0,,0,,,60,127
7839,note_on,0,0,0,,4,,,64,127
7851,note_off,12,0,0,,2,,,62,127
7851,note_off,0,0,0,,12,,,59,127
7890,note_on,39,0,0,,12,,,59,127
7890,note_on,0,0,0,,2,,,62,127
7900,note_off,10,0,0,,4,,,64,127
7900,note_off,0,0,0,,0,,,60,127
7939,note_on,39,0,0,,0,,,60,127
7939,note_on,0,0,0,,4,,,64,127
7951,note_off,12,0,0,,2,,,62,127
7951,note_off,0,0,0,,12,,,59,127
7989,note_on,38,0,0,,12,,,59,127
7989,note_on,0,0,0,,2,,,62,127
8001,note_off,12,0,0,,4,,,64,127
8001,note_off,0,0,0,,0,,,60,127
8040,note_on,39,0,0,,0,,,60,127
8040,note_on,0,0,0,,4,,,64,127
8050,note_off,10,0,0,,2,,,62,127
8050,note_off,0,0,0,,12,,,59,127
8089,note_on,39,0,0,,12,,,59,127
8089,note_on,0,0,0,,2,,,62,127
8101,note_off,12,0,0,,4,,,64,127
8101,note_off,0,0,0,,0,,,60,127
8130,note_off,29,0,0,,2,,,62,127
8130,note_off,0,0,0,,12,,,59,127
8140,note_on,10,0,0,,10,,,57,127
8140,note_on,0,0,0,,0,,,60,127
8328,note_off,188,0,0,,0,,,60,127
8328,note_off,0,0,0,,10,,,57,127
8391,note_on,63,0,0,,10,,,45,127
8391,note_on,0,0,0,,0,,,84,127
8579,note_off,188,0,0,,0,,,84,127
8579,note_off,0,0,0,,10,,,45,127
8642,note_on,63,0,0,,12,,,59,127
8642,note_on,0,0,0,,2,,,62,127
8692,note_on,50,0,0,,10,,,57,127
8692,note_on,0,0,0,,0,,,60,127
8704,note_off,12,0,0,,2,,,62,127
8704,note_off,0,0,0,,12,,,59,127
8742,note_on,38,0,0,,12,,,59,127
8742,note_on,0,0,0,,2,,,62,127
8754,note_off,12,0,0,,0,,,60,127
8754,note_off,0,0,0,,10,,,57,127
8793,note_on,39,0,0,,10,,,57,127
8793,note_on,0,0,0,,0,,,60,127
8803,note_off,10,0,0,,2,,,62,127
8803,note_off,0,0,0,,12,,,59,127
8842,note_on,39,0,0,,12,,,59,127
8842,note_on,0,0,0,,2,,,62,127
8854,note_off,12,0,0,,0,,,60,127
8854,note_off,0,0,0,,10,,,57,127
8893,note_on,39,0,0,,10,,,57,127
8893,note_on,0,0,0,,0,,,60,127
8903,note_off,10,0,0,,2,,,62,127
8903,note_off,0,0,0,,12,,,59,127
8942,note_on,39,0,0,,12,,,59,127
8942,note_on,0,0,0,,2,,,62,127
8954,note_off,12,0,0,,0,,,60,127
8954,note_off,0,0,0,,10,,,57,127
8992,note_on,38,0,0,,10,,,57,127
8992,note_on,0,0,0,,0,,,60,127
9004,note_off,12,0,0,,2,,,62,127
9004,note_off,0,0,0,,12,,,59,127
9043,note_on,39,0,0,,12,,,59,127
9043,note_on,0,0,0,,2,,,62,127
9053,note_off,10,0,0,,0,,,60,127
9053,note_off,0,0,0,,10,,,57,127
9092,note_on,39,0,0,,10,,,57,127
9092,note_on,0,0,0,,0,,,60,127
9104,note_off,12,0,0,,2,,,62,127
9104,note_off,0,0,0,,12,,,59,127
9133,note_off,29,0,0,,0,,,60,127
9133,note_off,0,0,0,,10,,,57,127
9143,note_on,10,0,0,,7,,,55,127
9143,note_on,0,0,0,,12,,,59,127
9331,note_off,188,0,0,,12,,,59,127
9331,note_off,0,0,0,,7,,,55,127
9394,note_on,63,0,0,,7,,,43,127
9394,note_on,0,0,0,,12,,,83,127
9582,note_off,188,0,0,,12,,,83,127
9582,note_off,0,0,0,,7,,,43,127
9645,note_on,63,0,0,,10,,,57,127
9645,note_on,0,0,0,,0,,,60,127
9695,note_on,50,0,0,,7,,,55,127
9695,note_on,0,0,0,,12,,,59,127
9707,note_off,12,0,0,,0,,,60,127
9707,note_off,0,0,0,,10,,,57,127
9745,note_on,38,0,0,,10,,,57,127
9745,note_on,0,0,0,,0,,,60,127
9757,note_off,12,0,0,,12,,,59,127
9757,note_off,0,0,0,,7,,,55,127
9796,note_on,39,0,0,,7,,,55,127
9796,note_on,0,0,0,,12,,,59,127
9806,note_off,10,0,0,,0,,,60,127
9806,note_off,0,0,0,,10,,,57,127
9845,note_on,39,0,0,,10,,,57,127
9845,note_on,0,0,0,,0,,,60,127
9857,note_off,12,0,0,,12,,,59,127
9857,note_off,0,0,0,,7,,,55,127
9896,note_on,39,0,0,,7,,,55,127
9896,note_on,0,0,0,,12,,,59,127
9906,note_off,10,0,0,,0,,,60,127
9906,note_off,0,0,0,,10,,,57,127
9945,note_on,39,0,0,,10,,,57,127
9945,note_on,0,0,0,,0,,,60,127
9957,note_off,12,0,0,,12,,,59,127
9957,note_off,0,0,0,,7,,,55,127
9995,note_on,38,0,0,,7,,,55,127
9995,note_on,0,0,0,,12,,,59,127
10007,note_off,12,0,0,,0,,,60,127
10007,note_off,0,0,0,,10,,,57,127
10152,note_off,145,0,0,,12,,,59,127
10152,note_off,0,0,0,,7,,,55,127
10189,note_on,37,0,0,,2,,,86,127
10189,note_on,0,0,0,,7,,,79,127
10438,note_off,249,0,0,,7,,,79,127
10439,note_on,1,0,0,,7,,,43,127
10688,note_off,249,0,0,,7,,,43,127
10689,note_on,1,0,0,,2,,,38,127
10771,note_off,82,0,0,,2,,,86,127
10772,note_on,1,0,0,,0,,,84,127
10854,note_off,82,0,0,,0,,,84,127
10855,note_on,1,0,0,,12,,,83,127
10937,note_off,82,0,0,,12,,,83,127
10938,note_on,1,0,0,,10,,,81,127
11020,note_off,82,0,0,,10,,,81,127
11021,note_on,1,0,0,,12,,,83,127
11103,note_off,82,0,0,,12,,,83,127
11104,note_on,1,0,0,,0,,,84,127
11186,note_off,82,0,0,,0,,,84,127
11186,note_off,0,0,0,,2,,,38,127
11187,note_on,1,0,0,,12,,,83,127
11187,note_on,0,0,0,,7,,,79,127
11269,note_off,82,0,0,,12,,,83,127
11270,note_on,1,0,0,,0,,,84,127
11352,note_off,82,0,0,,0,,,84,127
11353,note_on,1,0,0,,2,,,86,127
11435,note_off,82,0,0,,2,,,86,127
11435,note_off,0,0,0,,7,,,79,127
11436,note_on,1,0,0,,2,,,86,127
11436,note_on,0,0,0,,7,,,43,127
11685,note_off,249,0,0,,7,,,43,127
11686,note_on,1,0,0,,2,,,38,127
11768,note_off,82,0,0,,2,,,86,127
11769,note_on,1,0,0,,0,,,84,127
11851,note_off,82,0,0,,0,,,84,127
11852,note_on,1,0,0,,12,,,83,127
11934,note_off,82,0,0,,12,,,83,127
11935,note_on,1,0,0,,10,,,81,127
12017,note_off,82,0,0,,10,,,81,127
12018,note_on,1,0,0,,12,,,83,127
12100,note_off,82,0,0,,12,,,83,127
12101,note_on,1,0,0,,0,,,84,127
12183,note_off,82,0,0,,0,,,84,127
12183,note_off,0,0,0,,2,,,38,127
12184,note_on,1,0,0,,12,,,83,127
12184,note_on,0,0,0,,7,,,79,127
12266,note_off,82,0,0,,12,,,83,127
12267,note_on,1,0,0,,0,,,84,127
12349,note_off,82,0,0,,0,,,84,127
12350,note_on,1,0,0,,2,,,86,127
12432,note_off,82,0,0,,2,,,86,127
12432,note_off,0,0,0,,7,,,79,127
12433,note_on,1,0,0,,2,,,86,127
12433,note_on,0,0,0,,7,,,43,127
12682,note_off,249,0,0,,7,,,43,127
12683,note_on,1,0,0,,2,,,38,127
12765,note_off,82,0,0,,2,,,86,127
12766,note_on,1,0,0,,0,,,84,127
12848,note_off,82,0,0,,0,,,84,127
12849,note_on,1,0,0,,12,,,83,127
12931,note_off,82,0,0,,12,,,83,127
12932,note_on,1,0,0,,10,,,81,127
13014,note_off,82,0,0,,10,,,81,127
13015,note_on,1,0,0,,12,,,83,127
13097,note_off,82,0,0,,12,,,83,127
13098,note_on,1,0,0,,0,,,84,127
13180,note_off,82,0,0,,0,,,84,127
13180,note_off,0,0,0,,2,,,38,127
13181,note_on,1,0,0,,12,,,83,127
13181,note_on,0,0,0,,7,,,43,127
13263,note_off,82,0,0,,12,,,83,127
13264,note_on,1,0,0,,0,,,84,127
13346,note_off,82,0,0,,0,,,84,127
13347,note_on,1,0,0,,2,,,86,127
13429,note_off,82,0,0,,2,,,86,127
13430,note_on,1,0,0,,2,,,86,127
13512,note_off,82,0,0,,2,,,86,127
13513,note_on,1,0,0,,4,,,88,127
13595,note_off,82,0,0,,4,,,88,127
13596,note_on,1,0,0,,6,,,90,127
13678,note_off,82,0,0,,6,,,90,127
13678,note_off,0,0,0,,7,,,43,127
13679,note_on,1,0,0,,7,,,91,127
13679,note_on,0,0,0,,7,,,31,127
13761,note_off,82,0,0,,7,,,91,127
13762,note_on,1,0,0,,6,,,90,127
13844,note_off,82,0,0,,6,,,90,127
13845,note_on,1,0,0,,4,,,88,127
13927,note_off,82,0,0,,4,,,88,127
13928,note_on,1,0,0,,2,,,86,127
14010,note_off,82,0,0,,2,,,86,127
14011,note_on,1,0,0,,0,,,84,127
14093,note_off,82,0,0,,0,,,84,127
14094,note_on,1,0,0,,12,,,83,127
14176,note_off,82,0,0,,12,,,83,127
14176,note_off,0,0,0,,7,,,31,127
14177,note_on,1,0,0,,4,,,88,127
14177,note_on,0,0,0,,0,,,36,127
14259,note_off,82,0,0,,4,,,88,127
14260,note_on,1,0,0,,2,,,86,127
14342,note_off,82,0,0,,2,,,86,127
14343,note_on,1,0,0,,0,,,84,127
14425,note_off,82,0,0,,0,,,84,127
14426,note_on,1,0,0,,12,,,83,127
14508,note_off,82,0,0,,12,,,83,127
14509,note_on,1,0,0,,10,,,81,127
14591,note_off,82,0,0,,10,,,81,127
14592,note_on,1,0,0,,7,,,79,127
14674,note_off,82,0,0,,7,,,79,127
14674,note_off,0,0,0,,0,,,36,127
14675,note_on,1,0,0,,0,,,84,127
14675,note_on,0,0,0,,0,,,48,127
14757,note_off,82,0,0,,0,,,84,127
14758,note_on,1,0,0,,12,,,83,127
14840,note_off,82,0,0,,12,,,83,127
14841,note_on,1,0,0,,10,,,81,127
14923,note_off,82,0,0,,10,,,81,127
14924,note_on,1,0,0,,7,,,79,127
15006,note_off,82,0,0,,7,,,79,127
15007,note_on,1,0,0,,6,,,78,127
15089,note_off,82,0,0,,6,,,78,127
15090,note_on,1,0,0,,4,,,76,127
15172,note_off,82,0,0,,4,,,76,127
15172,note_off,0,0,0,,0,,,48,127
15173,note_on,1,0,0,,2,,,74,127
15173,note_on,0,0,0,,2,,,50,127
15506,note_off,333,0,0,,2,,,74,127
15507,note_on,1,0,0,,4,,,76,127
15547,note_off,40,0,0,,4,,,76,127
15548,note_on,1,0,0,,6,,,78,127
15588,note_off,40,0,0,,6,,,78,127
15589,note_on,1,0,0,,7,,,79,127
15629,note_off,40,0,0,,7,,,79,127
15630,note_on,1,0,0,,10,,,81,127
15670,note_off,40,0,0,,10,,,81,127
15671,note_on,1,0,0,,12,,,83,127
15671,note_on,0,0,0,,2,,,38,127
15721,note_on,50,0,0,,10,,,81,127
15733,note_off,12,0,0,,12,,,83,127
15771,note_on,38,0,0,,12,,,83,127
15783,note_off,12,0,0,,10,,,81,127
15822,note_on,39,0,0,,10,,,81,127
15832,note_off,10,0,0,,12,,,83,127
15871,note_on,39,0,0,,12,,,83,127
15883,note_off,12,0,0,,10,,,81,127
15922,note_on,39,0,0,,10,,,81,127
15932,note_off,10,0,0,,12,,,83,127
15971,note_on,39,0,0,,12,,,83,127
15983,note_off,12,0,0,,10,,,81,127
16021,note_on,38,0,0,,10,,,81,127
16033,note_off,12,0,0,,12,,,83,127
16072,note_on,39,0,0,,12,,,83,127
16082,note_off,10,0,0,,10,,,81,127
16121,note_on,39,0,0,,10,,,81,127
16133,note_off,12,0,0,,12,,,83,127
16162,note_off,29,0,0,,10,,,81,127
16171,note_off,9,0,0,,2,,,38,127
16171,note_off,0,0,0,,2,,,50,127
16172,note_on,1,0,0,,7,,,79,127
16172,note_on,0,0,0,,7,,,43,127
16672,note_off,500,0,0,,7,,,43,127
16673,note_on,1,0,0,,5,,,65,127
16673,note_on,0,0,0,,7,,,55,127
16922,note_off,249,0,0,,7,,,55,127
16922,note_off,0,0,0,,5,,,65,127
16923,note_on,1,0,0,,7,,,55,127
16923,note_on,0,0,0,,5,,,65,127
17172,note_off,249,0,0,,5,,,65,127
17172,note_off,0,0,0,,7,,,55,127
17173,note_on,1,0,0,,7,,,55,127
17173,note_on,0,0,0,,4,,,64,127
17422,note_off,249,0,0,,4,,,64,127
17422,note_off,0,0,0,,7,,,55,127
17423,note_on,1,0,0,,7,,,55,127
17423,note_on,0,0,0,,4,,,64,127
17672,note_off,249,0,0,,4,,,64,127
17672,note_off,0,0,0,,7,,,55,127
17672,note_off,0,0,0,,7,,,79,127
17673,note_on,1,0,0,,12,,,83,127
17673,note_on,0,0,0,,7,,,55,127
17673,note_on,0,0,0,,6,,,66,127
17723,note_on,50,0,0,,10,,,81,127
17735,note_off,12,0,0,,12,,,83,127
17773,note_on,38,0,0,,12,,,83,127
17785,note_off,12,0,0,,10,,,81,127
17824,note_on,39,0,0,,10,,,81,127
17834,note_off,10,0,0,,12,,,83,127
17873,note_on,39,0,0,,12,,,83,127
17885,note_off,12,0,0,,10,,,81,127
17923,note_off,38,0,0,,6,,,66,127
17923,note_off,0,0,0,,7,,,55,127
17924,note_on,1,0,0,,10,,,81,127
17924,note_on,0,0,0,,7,,,55,127
17924,note_on,0,0,0,,6,,,66,127
17934,note_off,10,0,0,,12,,,83,127
17973,note_on,39,0,0,,12,,,83,127
17985,note_off,12,0,0,,10,,,81,127
18023,note_on,38,0,0,,10,,,81,127
18035,note_off,12,0,0,,12,,,83,127
18074,note_on,39,0,0,,12,,,83,127
18084,note_off,10,0,0,,10,,,81,127
18123,note_on,39,0,0,,10,,,81,127
18135,note_off,12,0,0,,12,,,83,127
18164,note_off,29,0,0,,10,,,81,127
18173,note_off,9,0,0,,6,,,66,127
18173,note_off,0,0,0,,7,,,55,127
18174,note_on,1,0,0,,7,,,79,127
18174,note_on,0,0,0,,7,,,55,127
18174,note_on,0,0,0,,7,,,67,127
18674,note_off,500,0,0,,7,,,67,127
18674,note_off,0,0,0,,7,,,55,127
18675,note_on,1,0,0,,7,,,55,127
18675,note_on,0,0,0,,5,,,65,127
18924,note_off,249,0,0,,5,,,65,127
18924,note_off,0,0,0,,7,,,55,127
18925,note_on,1,0,0,,5,,,65,127
18925,note_on,0,0,0,,7,,,55,127
19174,note_off,249,0,0,,7,,,55,127
19174,note_off,0,0,0,,5,,,65,127
19175,note_on,1,0,0,,4,,,64,127
19175,note_on,0,0,0,,7,,,55,127
19424,note_off,249,0,0,,7,,,55,127
19424,note_off,0,0,0,,4,,,64,127
19425,note_on,1,0,0,,7,,,55,127
19425,note_on,0,0,0,,4,,,64,127
19674,note_off,249,0,0,,4,,,64,127
19674,note_off,0,0,0,,7,,,55,127
19674,note_off,0,0,0,,7,,,79,127
19675,note_on,1,0,0,,12,,,83,127
19675,note_on,0,0,0,,6,,,66,127
19675,note_on,0,0,0,,7,,,55,127
19725,note_on,50,0,0,,10,,,81,127
19737,note_off,12,0,0,,12,,,83,127
19775,note_on,38,0,0,,12,,,83,127
19787,note_off,12,0,0,,10,,,81,127
19826,note_on,39,0,0,,10,,,81,127
19836,note_off,10,0,0,,12,,,83,127
19875,note_on,39,0,0,,12,,,83,127
19887,note_off,12,0,0,,10,,,81,127
19925,note_off,38,0,0,,7,,,55,127
19925,note_off,0,0,0,,6,,,66,127
19926,note_on,1,0,0,,10,,,81,127
19926,note_on,0,0,0,,6,,,66,127
19926,note_on,0,0,0,,7,,,55,127
19936,note_off,10,0,0,,12,,,83,127
19975,note_on,39,0,0,,12,,,83,127
19987,note_off,12,0,0,,10,,,81,127
20025,note_on,38,0,0,,10,,,81,127
20037,note_off,12,0,0,,12,,,83,127
20076,note_on,39,0,0,,12,,,83,127
20086,note_off,10,0,0,,10,,,81,127
20125,note_on,39,0,0,,10,,,81,127
20137,note_off,12,0,0,,12,,,83,127
20166,note_off,29,0,0,,10,,,81,127
20175,note_off,9,0,0,,7,,,55,127
20175,note_off,0,0,0,,6,,,66,127
20176,note_on,1,0,0,,7,,,79,127
20176,note_on,0,0,0,,7,,,55,127
20176,note_on,0,0,0,,7,,,67,127
20258,note_off,82,0,0,,7,,,79,127
20259,note_on,1,0,0,,7,,,91,127
20341,note_off,82,0,0,,7,,,91,127
20342,note_on,1,0,0,,2,,,86,127
20424,note_off,82,0,0,,2,,,86,127
20425,note_on,1,0,0,,12,,,83,127
20507,note_off,82,0,0,,12,,,83,127
20508,note_on,1,0,0,,7,,,79,127
20590,note_off,82,0,0,,7,,,79,127
20591,note_on,1,0,0,,2,,,74,127
20673,note_off,82,0,0,,2,,,74,127
20673,note_off,0,0,0,,7,,,67,127
20674,note_on,1,0,0,,7,,,67,127
20756,note_off,82,0,0,,7,,,55,127
20757,note_on,1,0,0,,2,,,62,127
20839,note_off,82,0,0,,2,,,62,127
20840,note_on,1,0,0,,12,,,59,127
20922,note_off,82,0,0,,7,,,67,127
20923,note_on,1,0,0,,7,,,55,127
21005,note_off,82,0,0,,12,,,59,127
21006,note_on,1,0,0,,2,,,50,127
21088,note_off,82,0,0,,2,,,50,127
21089,note_on,1,0,0,,7,,,43,127
21110,note_off,21,0,0,,7,,,55,127
21171,note_off,61,0,0,,7,,,43,127
21172,note_on,1,0,0,,4,,,88,127
21172,note_on,0,0,0,,0,,,36,127
21421,note_off,249,0,0,,0,,,36,127
21422,note_on,1,0,0,,0,,,48,127
21671,note_off,249,0,0,,0,,,48,127
21671,note_off,0,0,0,,4,,,88,127
21672,note_on,1,0,0,,12,,,83,127
21672,note_on,0,0,0,,2,,,50,127
21722,note_on,50,0,0,,10,,,81,127
21734,note_off,12,0,0,,12,,,83,127
21772,note_on,38,0,0,,12,,,83,127
21784,note_off,12,0,0,,10,,,81,127
21823,note_on,39,0,0,,10,,,81,127
21833,note_off,10,0,0,,12,,,83,127
21872,note_on,39,0,0,,12,,,83,127
21884,note_off,12,0,0,,10,,,81,127
21923,note_on,39,0,0,,10,,,81,127
21923,note_on,0,0,0,,2,,,38,127
21933,note_off,10,0,0,,12,,,83,127
21972,note_on,39,0,0,,12,,,83,127
21984,note_off,12,0,0,,10,,,81,127
22022,note_on,38,0,0,,10,,,81,127
22034,note_off,12,0,0,,12,,,83,127
22073,note_on,39,0,0,,12,,,83,127
22083,note_off,10,0,0,,10,,,81,127
22122,note_on,39,0,0,,10,,,81,127
22134,note_off,12,0,0,,12,,,83,127
22163,note_off,29,0,0,,10,,,81,127
22172,note_off,9,0,0,,2,,,38,127
22172,note_off,0,0,0,,2,,,50,127
22173,note_on,1,0,0,,7,,,79,127
22173,note_on,0,0,0,,7,,,31,127
22673,note_off,500,0,0,,7,,,31,127
22673,note_off,0,0,0,,7,,,79,127
22674,note_on,1,0,0,,5,,,77,127
22674,note_on,0,0,0,,7,,,67,127
22674,note_on,0,0,0,,7,,,31,127
22923,note_off,249,0,0,,7,,,67,127
22923,note_off,0,0,0,,5,,,77,127
22924,note_on,1,0,0,,5,,,77,127
22924,note_on,0,0,0,,7,,,67,127
23173,note_off,249,0,0,,7,,,67,127
23173,note_off,0,0,0,,5,,,77,127
23173,note_off,0,0,0,,7,,,31,127
23174,note_on,1,0,0,,7,,,67,127
23174,note_on,0,0,0,,4,,,76,127
23174,note_on,0,0,0,,7,,,31,127
23423,note_off,249,0,0,,4,,,76,127
23423,note_off,0,0,0,,7,,,67,127
23424,note_on,1,0,0,,4,,,76,127
23424,note_on,0,0,0,,7,,,67,127
23673,note_off,249,0,0,,7,,,67,127
23673,note_off,0,0,0,,4,,,76,127
23673,note_off,0,0,0,,7,,,31,127
23674,note_on,1,0,0,,2,,,74,127
23674,note_on,0,0,0,,6,,,78,127
23674,note_on,0,0,0,,7,,,31,127
23724,note_on,50,0,0,,0,,,72,127
23736,note_off,12,0,0,,2,,,74,127
23774,note_on,38,0,0,,2,,,74,127
23786,note_off,12,0,0,,0,,,72,127
23825,note_on,39,0,0,,0,,,72,127
23835,note_off,10,0,0,,2,,,74,127
23874,note_on,39,0,0,,2,,,74,127
23886,note_off,12,0,0,,0,,,72,127
23925,note_on,39,0,0,,0,,,72,127
23935,note_off,10,0,0,,2,,,74,127
23974,note_on,39,0,0,,2,,,74,127
23986,note_off,12,0,0,,0,,,72,127
24024,note_on,38,0,0,,0,,,72,127
24036,note_off,12,0,0,,2,,,74,127
24075,note_on,39,0,0,,2,,,74,127
24085,note_off,10,0,0,,0,,,72,127
24124,note_on,39,0,0,,0,,,72,127
24136,note_off,12,0,0,,2,,,74,127
24165,note_off,29,0,0,,0,,,72,127
24174,note_off,9,0,0,,7,,,31,127
24174,note_off,0,0,0,,6,,,78,127
24175,note_on,1,0,0,,7,,,79,127
24175,note_on,0,0,0,,12,,,71,127
24175,note_on,0,0,0,,7,,,31,127
24675,note_off,500,0,0,,7,,,31,127
24675,note_off,0,0,0,,12,,,71,127
24675,note_off,0,0,0,,7,,,79,127
24676,note_on,1,0,0,,5,,,77,127
24676,note_on,0,0,0,,7,,,67,127
24676,note_on,0,0,0,,7,,,31,127
24925,note_off,249,0,0,,7,,,67,127
24925,note_off,0,0,0,,5,,,77,127
24926,note_on,1,0,0,,5,,,77,127
24926,note_on,0,0,0,,7,,,67,127
25175,note_off,249,0,0,,7,,,67,127
25175,note_off,0,0,0,,5,,,77,127
25175,note_off,0,0,0,,7,,,31,127
25176,note_on,1,0,0,,7,,,67,127
25176,note_on,0,0,0,,4,,,76,127
25176,note_on,0,0,0,,7,,,31,127
25425,note_off,249,0,0,,4,,,76,127
25425,note_off,0,0,0,,7,,,67,127
25426,note_on,1,0,0,,4,,,76,127
25426,note_on,0,0,0,,7,,,67,127
25675,note_off,249,0,0,,7,,,67,127
25675,note_off,0,0,0,,4,,,76,127
25675,note_off,0,0,0,,7,,,31,127
25676,note_on,1,0,0,,2,,,74,127
25676,note_on,0,0,0,,6,,,78,127
25676,note_on,0,0,0,,7,,,31,127
25726,note_on,50,0,0,,0,,,72,127
25738,note_off,12,0,0,,2,,,74,127
25776,note_on,38,0,0,,2,,,74,127
25788,note_off,12,0,0,,0,,,72,127
25827,note_on,39,0,0,,0,,,72,127
25837,note_off,10,0,0,,2,,,74,127
25876,note_on,39,0,0,,2,,,74,127
25888,note_off,12,0,0,,0,,,72,127
25927,note_on,39,0,0,,0,,,72,127
25937,note_off,10,0,0,,2,,,74,127
25976,note_on,39,0,0,,2,,,74,127
25988,note_off,12,0,0,,0,,,72,127
26026,note_on,38,0,0,,0,,,72,127
26038,note_off,12,0,0,,2,,,74,127
26077,note_on,39,0,0,,2,,,74,127
26087,note_off,10,0,0,,0,,,72,127
26126,note_on,39,0,0,,0,,,72,127
26138,note_off,12,0,0,,2,,,74,127
26167,note_off,29,0,0,,0,,,72,127
26176,note_off,9,0,0,,7,,,31,127
26176,note_off,0,0,0,,6,,,78,127
26177,note_on,1,0,0,,12,,,71,127
26177,note_on,0,0,0,,7,,,43,127
26259,note_off,82,0,0,,12,,,71,127
26260,note_on,1,0,0,,7,,,79,127
26342,note_off,82,0,0,,7,,,79,127
26343,note_on,1,0,0,,2,,,74,127
26425,note_off,82,0,0,,2,,,74,127
26426,note_on,1,0,0,,12,,,71,127
26508,note_off,82,0,0,,12,,,71,127
26509,note_on,1,0,0,,7,,,67,127
26591,note_off,82,0,0,,7,,,67,127
26592,note_on,1,0,0,,2,,,62,127
26674,note_off,82,0,0,,2,,,62,127
26674,note_off,0,0,0,,7,,,43,127
26675,note_on,1,0,0,,7,,,55,127
26758,note_on,83,0,0,,2,,,50,127
26840,note_off,82,0,0,,2,,,50,127
26841,note_on,1,0,0,,12,,,47,127
26923,note_off,82,0,0,,7,,,55,127
26924,note_on,1,0,0,,7,,,43,127
27006,note_off,82,0,0,,12,,,47,127
27007,note_on,1,0,0,,2,,,38,127
27089,note_off,82,0,0,,2,,,38,127
27090,note_on,1,0,0,,7,,,31,127
27111,note_off,21,0,0,,7,,,43,127
27164,note_off,53,0,0,,7,,,31,127
27194,note_on,30,0,0,,4,,,88,127
27194,note_on,0,0,0,,0,,,36,127
27443,note_off,249,0,0,,0,,,36,127
27444,note_on,1,0,0,,0,,,48,127
27693,note_off,249,0,0,,0,,,48,127
27693,note_off,0,0,0,,4,,,88,127
27694,note_on,1,0,0,,12,,,83,127
27694,note_on,0,0,0,,2,,,50,127
27744,note_on,50,0,0,,10,,,81,127
27756,note_off,12,0,0,,12,,,83,127
27794,note_on,38,0,0,,12,,,83,127
27806,note_off,12,0,0,,10,,,81,127
27845,note_on,39,0,0,,10,,,81,127
27855,note_off,10,0,0,,12,,,83,127
27894,note_on,39,0,0,,12,,,83,127
27906,note_off,12,0,0,,10,,,81,127
27945,note_on,39,0,0,,10,,,81,127
27945,note_on,0,0,0,,2,,,38,127
27955,note_off,10,0,0,,12,,,83,127
27994,note_on,39,0,0,,12,,,83,127
28006,note_off,12,0,0,,10,,,81,127
28044,note_on,38,0,0,,10,,,81,127
28056,note_off,12,0,0,,12,,,83,127
28095,note_on,39,0,0,,12,,,83,127
28105,note_off,10,0,0,,10,,,81,127
28144,note_on,39,0,0,,10,,,81,127
28156,note_off,12,0,0,,12,,,83,127
28185,note_off,29,0,0,,10,,,81,127
28194,note_off,9,0,0,,2,,,38,127
28194,note_off,0,0,0,,2,,,50,127
28195,note_on,1,0,0,,7,,,79,127
28195,note_on,0,0,0,,7,,,31,127
28277,note_off,82,0,0,,7,,,79,127
28278,note_on,1,0,0,,7,,,91,127
28360,note_off,82,0,0,,7,,,91,127
28361,note_on,1,0,0,,2,,,86,127
28443,note_off,82,0,0,,2,,,86,127
28444,note_on,1,0,0,,12,,,83,127
28526,note_off,82,0,0,,12,,,83,127
28527,note_on,1,0,0,,7,,,79,127
28609,note_off,82,0,0,,7,,,79,127
28610,note_on,1,0,0,,2,,,74,127
28692,note_off,82,0,0,,2,,,74,127
28693,note_on,1,0,0,,7,,,67,127
28775,note_off,82,0,0,,7,,,31,127
28776,note_on,1,0,0,,2,,,62,127
28858,note_off,82,0,0,,2,,,62,127
28859,note_on,1,0,0,,12,,,59,127
28941,note_off,82,0,0,,7,,,67,127
28942,note_on,1,0,0,,7,,,55,127
29024,note_off,82,0,0,,12,,,59,127
29025,note_on,1,0,0,,2,,,50,127
29107,note_off,82,0,0,,2,,,50,127
29108,note_on,1,0,0,,7,,,43,127
29129,note_off,21,0,0,,7,,,55,127
29190,note_off,61,0,0,,7,,,43,127
29191,note_on,1,0,0,,4,,,76,127
29191,note_on,0,0,0,,0,,,36,127
29440,note_off,249,0,0,,0,,,36,127
29441,note_on,1,0,0,,0,,,48,127
29690,note_off,249,0,0,,0,,,48,127
29690,note_off,0,0,0,,4,,,76,127
29691,note_on,1,0,0,,12,,,71,127
29691,note_on,0,0,0,,2,,,50,127
29741,note_on,50,0,0,,10,,,69,127
29753,note_off,12,0,0,,12,,,71,127
29791,note_on,38,0,0,,12,,,71,127
29803,note_off,12,0,0,,10,,,69,127
29842,note_on,39,0,0,,10,,,69,127
29852,note_off,10,0,0,,12,,,71,127
29891,note_on,39,0,0,,12,,,71,127
29903,note_off,12,0,0,,10,,,69,127
29942,note_on,39,0,0,,10,,,69,127
29942,note_on,0,0,0,,2,,,38,127
29952,note_off,10,0,0,,12,,,71,127
29991,note_on,39,0,0,,12,,,71,127
30003,note_off,12,0,0,,10,,,69,127
30041,note_on,38,0,0,,10,,,69,127
30053,note_off,12,0,0,,12,,,71,127
30092,note_on,39,0,0,,12,,,71,127
30102,note_off,10,0,0,,10,,,69,127
30141,note_on,39,0,0,,10,,,69,127
30153,note_off,12,0,0,,12,,,71,127
30182,note_off,29,0,0,,10,,,69,127
30191,note_off,9,0,0,,2,,,38,127
30191,note_off,0,0,0,,2,,,50,127
30192,note_on,1,0,0,,7,,,67,127
30192,note_on,0,0,0,,7,,,31,127
30942,note_off,750,0,0,,7,,,67,127
31144,note_off,202,0,0,,7,,,31,127
31194,note_on,50,0,0,,7,,,55,127
31194,note_on,0,0,0,,7,,,67,127
31443,note_off,249,0,0,,7,,,67,127
31443,note_off,0,0,0,,7,,,55,127
31444,note_on,1,0,0,,7,,,67,127
31444,note_on,0,0,0,,7,,,55,127
31693,note_off,249,0,0,,7,,,55,127
31693,note_off,0,0,0,,7,,,67,127
31694,note_on,1,0,0,,7,,,55,127
31694,note_on,0,0,0,,5,,,65,127
31943,note_off,249,0,0,,5,,,65,127
31943,note_off,0,0,0,,7,,,55,127
31944,note_on,1,0,0,,7,,,55,127
31944,note_on,0,0,0,,5,,,65,127
32193,note_off,249,0,0,,5,,,65,127
32193,note_off,0,0,0,,7,,,55,127
32194,note_on,1,0,0,,4,,,64,127
32194,note_on,0,0,0,,7,,,55,127
32443,note_off,249,0,0,,7,,,55,127
32443,note_off,0,0,0,,4,,,64,127
32444,note_on,1,0,0,,4,,,64,127
32444,note_on,0,0,0,,7,,,55,127
32693,note_off,249,0,0,,7,,,55,127
32693,note_off,0,0,0,,4,,,64,127
32694,note_on,1,0,0,,7,,,55,127
32694,note_on,0,0,0,,2,,,62,127
32943,note_off,249,0,0,,2,,,62,127
32943,note_off,0,0,0,,7,,,55,127
32944,note_on,1,0,0,,7,,,55,127
32944,note_on,0,0,0,,2,,,62,127
33193,note_off,249,0,0,,2,,,62,127
33193,note_off,0,0,0,,7,,,55,127
33194,note_on,1,0,0,,10,,,81,127
33194,note_on,0,0,0,,7,,,55,127
33194,note_on,0,0,0,,1,,,61,127
33194,note_on,0,0,0,,10,,,57,127
33444,note_on,250,0,0,,10,,,69,127
34146,note_off,702,0,0,,10,,,57,127
34146,note_off,0,0,0,,1,,,61,127
34146,note_off,0,0,0,,7,,,55,127
34194,note_off,48,0,0,,10,,,69,127
34194,note_off,0,0,0,,10,,,81,127
34258,note_on,64,0,0,,10,,,57,127
34258,note_on,0,0,0,,10,,,69,127
34507,note_off,249,0,0,,10,,,69,127
34507,note_off,0,0,0,,10,,,57,127
34508,note_on,1,0,0,,10,,,57,127
34508,note_on,0,0,0,,10,,,69,127
34757,note_off,249,0,0,,10,,,69,127
34757,note_off,0,0,0,,10,,,57,127
34758,note_on,1,0,0,,10,,,57,127
34758,note_on,0,0,0,,7,,,67,127
35007,note_off,249,0,0,,7,,,67,127
35007,note_off,0,0,0,,10,,,57,127
35008,note_on,1,0,0,,10,,,57,127
35008,note_on,0,0,0,,7,,,67,127
35257,note_off,249,0,0,,7,,,67,127
35257,note_off,0,0,0,,10,,,57,127
35258,note_on,1,0,0,,10,,,57,127
35258,note_on,0,0,0,,5,,,65,127
35507,note_off,249,0,0,,5,,,65,127
35507,note_off,0,0,0,,10,,,57,127
35508,note_on,1,0,0,,10,,,57,127
35508,note_on,0,0,0,,5,,,65,127
35757,note_off,249,0,0,,5,,,65,127
35757,note_off,0,0,0,,10,,,57,127
35758,note_on,1,0,0,,4,,,64,127
35758,note_on,0,0,0,,10,,,57,127
36007,note_off,249,0,0,,10,,,57,127
36007,note_off,0,0,0,,4,,,64,127
36008,note_on,1,0,0,,4,,,64,127
36008,note_on,0,0,0,,10,,,57,127
36257,note_off,249,0,0,,10,,,57,127
36257,note_off,0,0,0,,4,,,64,127
36258,note_on,1,0,0,,12,,,83,127
36258,note_on,0,0,0,,10,,,57,127
36258,note_on,0,0,0,,12,,,59,127
36258,note_on,0,0,0,,3,,,63,127
36508,note_on,250,0,0,,12,,,71,127
37008,note_off,500,0,0,,3,,,63,127
37093,note_off,85,0,0,,12,,,59,127
37093,note_off,0,0,0,,10,,,57,127
37128,note_off,35,0,0,,12,,,71,127
37128,note_off,0,0,0,,12,,,83,127
37385,note_on,257,0,0,,0,,,60,127
37385,note_on,0,0,0,,0,,,72,127
37634,note_off,249,0,0,,0,,,72,127
37634,note_off,0,0,0,,0,,,60,127
37635,note_on,1,0,0,,0,,,60,127
37635,note_on,0,0,0,,0,,,72,127
37884,note_off,249,0,0,,0,,,72,127
37884,note_off,0,0,0,,0,,,60,127
37885,note_on,1,0,0,,12,,,71,127
37885,note_on,0,0,0,,0,,,60,127
38134,note_off,249,0,0,,0,,,60,127
38134,note_off,0,0,0,,12,,,71,127
38135,note_on,1,0,0,,12,,,71,127
38135,note_on,0,0,0,,0,,,60,127
38384,note_off,249,0,0,,0,,,60,127
38384,note_off,0,0,0,,12,,,71,127
38385,note_on,1,0,0,,10,,,69,127
38385,note_on,0,0,0,,0,,,60,127
38634,note_off,249,0,0,,0,,,60,127
38634,note_off,0,0,0,,10,,,69,127
38635,note_on,1,0,0,,0,,,60,127
38635,note_on,0,0,0,,10,,,69,127
38884,note_off,249,0,0,,10,,,69,127
38884,note_off,0,0,0,,0,,,60,127
38885,note_on,1,0,0,,0,,,60,127
38885,note_on,0,0,0,,7,,,67,127
39134,note_off,249,0,0,,7,,,67,127
39134,note_off,0,0,0,,0,,,60,127
39135,note_on,1,0,0,,7,,,67,127
39135,note_on,0,0,0,,0,,,60,127
39384,note_off,249,0,0,,0,,,60,127
39384,note_off,0,0,0,,7,,,67,127
39385,note_on,1,0,0,,2,,,86,127
39385,note_on,0,0,0,,5,,,65,127
39385,note_on,0,0,0,,2,,,62,127
39385,note_on,0,0,0,,0,,,60,127
39634,note_off,249,0,0,,0,,,60,127
39634,note_off,0,0,0,,2,,,62,127
39634,note_off,0,0,0,,5,,,65,127
39635,note_on,1,0,0,,2,,,74,127
39635,note_on,0,0,0,,2,,,62,127
39635,note_on,0,0,0,,0,,,60,127
39635,note_on,0,0,0,,5,,,65,127
39884,note_off,249,0,0,,5,,,65,127
39884,note_off,0,0,0,,0,,,60,127
39884,note_off,0,0,0,,2,,,62,127
39885,note_on,1,0,0,,0,,,60,127
39885,note_on,0,0,0,,2,,,62,127
39885,note_on,0,0,0,,5,,,65,127
40134,note_off,249,0,0,,5,,,65,127
40134,note_off,0,0,0,,2,,,62,127
40134,note_off,0,0,0,,0,,,60,127
40135,note_on,1,0,0,,2,,,62,127
40135,note_on,0,0,0,,0,,,60,127
40135,note_on,0,0,0,,5,,,65,127
40384,note_off,249,0,0,,5,,,65,127
40384,note_off,0,0,0,,0,,,60,127
40384,note_off,0,0,0,,2,,,62,127
40384,note_off,0,0,0,,2,,,86,127
40385,note_on,1,0,0,,2,,,86,127
40385,note_on,0,0,0,,12,,,59,127
40385,note_on,0,0,0,,2,,,62,127
40385,note_on,0,0,0,,5,,,65,127
40634,note_off,249,0,0,,5,,,65,127
40634,note_off,0,0,0,,2,,,62,127
40634,note_off,0,0,0,,12,,,59,127
40634,note_off,0,0,0,,2,,,74,127
40635,note_on,1,0,0,,2,,,74,127
40635,note_on,0,0,0,,2,,,62,127
40635,note_on,0,0,0,,12,,,59,127
40635,note_on,0,0,0,,5,,,65,127
40884,note_off,249,0,0,,5,,,65,127
40884,note_off,0,0,0,,12,,,59,127
40884,note_off,0,0,0,,2,,,62,127
40885,note_on,1,0,0,,2,,,62,127
40885,note_on,0,0,0,,12,,,59,127
40885,note_on,0,0,0,,5,,,65,127
41134,note_off,249,0,0,,5,,,65,127
41134,note_off,0,0,0,,12,,,59,127
41134,note_off,0,0,0,,2,,,62,127
41135,note_on,1,0,0,,2,,,62,127
41135,note_on,0,0,0,,12,,,59,127
41135,note_on,0,0,0,,5,,,65,127
41384,note_off,249,0,0,,5,,,65,127
41384,note_off,0,0,0,,12,,,59,127
41384,note_off,0,0,0,,2,,,62,127
41384,note_off,0,0,0,,2,,,86,127
41385,note_on,1,0,0,,2,,,86,127
41385,note_on,0,0,0,,2,,,62,127
41385,note_on,0,0,0,,10,,,57,127
41385,note_on,0,0,0,,5,,,65,127
41634,note_off,249,0,0,,5,,,65,127
41634,note_off,0,0,0,,10,,,57,127
41634,note_off,0,0,0,,2,,,62,127
41634,note_off,0,0,0,,2,,,74,127
41635,note_on,1,0,0,,2,,,74,127
41635,note_on,0,0,0,,2,,,62,127
41635,note_on,0,0,0,,10,,,57,127
41635,note_on,0,0,0,,5,,,65,127
41884,note_off,249,0,0,,5,,,65,127
41884,note_off,0,0,0,,10,,,57,127
41884,note_off,0,0,0,,2,,,62,127
41885,note_on,1,0,0,,2,,,62,127
41885,note_on,0,0,0,,10,,,57,127
41885,note_on,0,0,0,,5,,,65,127
42134,note_off,249,0,0,,5,,,65,127
42134,note_off,0,0,0,,10,,,57,127
42134,note_off,0,0,0,,2,,,62,127
42135,note_on,1,0,0,,2,,,62,127
42135,note_on,0,0,0,,10,,,57,127
42135,note_on,0,0,0,,5,,,65,127
42384,note_off,249,0,0,,5,,,65,127
42384,note_off,0,0,0,,10,,,57,127
42384,note_off,0,0,0,,2,,,62,127
42384,note_off,0,0,0,,2,,,86,127
42385,note_on,1,0,0,,2,,,86,127
42385,note_on,0,0,0,,7,,,55,127
42385,note_on,0,0,0,,2,,,62,127
42385,note_on,0,0,0,,5,,,65,127
42634,note_off,249,0,0,,5,,,65,127
42634,note_off,0,0,0,,2,,,62,127
42634,note_off,0,0,0,,7,,,55,127
42634,note_off,0,0,0,,2,,,74,127
42635,note_on,1,0,0,,2,,,74,127
42635,note_on,0,0,0,,2,,,62,127
42635,note_on,0,0,0,,7,,,55,127
42635,note_on,0,0,0,,5,,,65,127
42884,note_off,249,0,0,,5,,,65,127
42884,note_off,0,0,0,,7,,,55,127
42884,note_off,0,0,0,,2,,,62,127
42885,note_on,1,0,0,,7,,,55,127
42885,note_on,0,0,0,,5,,,65,127
42885,note_on,0,0,0,,2,,,62,127
43134,note_off,249,0,0,,2,,,62,127
43134,note_off,0,0,0,,5,,,65,127
43134,note_off,0,0,0,,7,,,55,127
43134,note_off,0,0,0,,2,,,86,127
43135,note_on,1,0,0,,5,,,65,127
43135,note_on,0,0,0,,2,,,62,127
43135,note_on,0,0,0,,7,,,55,127
43336,note_off,201,0,0,,2,,,74,127
43384,note_off,48,0,0,,7,,,55,127
43384,note_off,0,0,0,,2,,,62,127
43384,note_off,0,0,0,,5,,,65,127
43385,note_on,1,0,0,,0,,,72,127
43385,note_on,0,0,0,,4,,,64,127
43385,note_on,0,0,0,,7,,,55,127
43634,note_off,249,0,0,,7,,,55,127
43634,note_off,0,0,0,,4,,,64,127
43635,note_on,1,0,0,,0,,,84,127
43635,note_on,0,0,0,,7,,,55,127
43635,note_on,0,0,0,,4,,,64,127
43884,note_off,249,0,0,,4,,,64,127
43884,note_off,0,0,0,,7,,,55,127
43884,note_off,0,0,0,,0,,,72,127
43885,note_on,1,0,0,,0,,,72,127
43885,note_on,0,0,0,,7,,,55,127
43885,note_on,0,0,0,,6,,,66,127
44134,note_off,249,0,0,,6,,,66,127
44134,note_off,0,0,0,,7,,,55,127
44134,note_off,0,0,0,,0,,,84,127
44135,note_on,1,0,0,,0,,,84,127
44135,note_on,0,0,0,,6,,,66,127
44135,note_on,0,0,0,,7,,,55,127
44384,note_off,249,0,0,,7,,,55,127
44384,note_off,0,0,0,,6,,,66,127
44384,note_off,0,0,0,,0,,,84,127
44384,note_off,0,0,0,,0,,,72,127
44385,note_on,1,0,0,,12,,,83,127
44385,note_on,0,0,0,,7,,,55,127
44385,note_on,0,0,0,,7,,,67,127
44467,note_off,82,0,0,,12,,,83,127
44468,note_on,1,0,0,,10,,,81,127
44550,note_off,82,0,0,,10,,,81,127
44551,note_on,1,0,0,,7,,,79,127
44633,note_off,82,0,0,,7,,,79,127
44633,note_off,0,0,0,,7,,,67,127
44633,note_off,0,0,0,,7,,,55,127
44634,note_on,1,0,0,,7,,,79,127
44634,note_on,0,0,0,,7,,,55,127
44634,note_on,0,0,0,,7,,,67,127
44883,note_off,249,0,0,,7,,,67,127
44883,note_off,0,0,0,,7,,,55,127
44883,note_off,0,0,0,,7,,,79,127
44895,note_on,12,0,0,,0,,,72,127
44895,note_on,0,0,0,,7,,,55,127
44895,note_on,0,0,0,,6,,,66,127
45144,note_off,249,0,0,,6,,,66,127
45144,note_off,0,0,0,,7,,,55,127
45145,note_on,1,0,0,,0,,,84,127
45145,note_on,0,0,0,,6,,,66,127
45145,note_on,0,0,0,,7,,,55,127
45394,note_off,249,0,0,,7,,,55,127
45394,note_off,0,0,0,,6,,,66,127
45394,note_off,0,0,0,,0,,,84,127
45394,note_off,0,0,0,,0,,,72,127
45395,note_on,1,0,0,,12,,,83,127
45395,note_on,0,0,0,,7,,,55,127
45395,note_on,0,0,0,,7,,,67,127
45477,note_off,82,0,0,,12,,,83,127
45478,note_on,1,0,0,,10,,,81,127
45560,note_off,82,0,0,,10,,,81,127
45561,note_on,1,0,0,,7,,,79,127
45643,note_off,82,0,0,,7,,,79,127
45643,note_off,0,0,0,,7,,,67,127
45643,note_off,0,0,0,,7,,,55,127
45644,note_on,1,0,0,,7,,,79,127
45644,note_on,0,0,0,,7,,,55,127
45644,note_on,0,0,0,,7,,,67,127
45893,note_off,249,0,0,,7,,,67,127
45893,note_off,0,0,0,,7,,,55,127
45893,note_off,0,0,0,,7,,,79,127
45905,note_on,12,0,0,,0,,,72,127
45905,note_on,0,0,0,,7,,,55,127
45905,note_on,0,0,0,,6,,,66,127
46154,note_off,249,0,0,,6,,,66,127
46154,note_off,0,0,0,,7,,,55,127
46155,note_on,1,0,0,,0,,,84,127
46155,note_on,0,0,0,,6,,,66,127
46155,note_on,0,0,0,,7,,,55,127
46404,note_off,249,0,0,,7,,,55,127
46404,note_off,0,0,0,,6,,,66,127
46404,note_off,0,0,0,,0,,,84,127
46404,note_off,0,0,0,,0,,,72,127
46405,note_on,1,0,0,,12,,,83,127
46405,note_on,0,0,0,,7,,,67,127
46405,note_on,0,0,0,,7,,,55,127
46405,note_on,0,0,0,,0,,,84,127
46487,note_off,82,0,0,,0,,,84,127
46487,note_off,0,0,0,,12,,,83,127
46488,note_on,1,0,0,,10,,,81,127
46570,note_off,82,0,0,,10,,,81,127
46571,note_on,1,0,0,,7,,,79,127
46653,note_off,82,0,0,,7,,,79,127
46654,note_on,1,0,0,,7,,,79,127
47339,note_off,685,0,0,,7,,,79,127
47339,note_off,0,0,0,,7,,,67,127
47404,note_off,65,0,0,,7,,,55,127
47437,note_on,33,0,0,,0,,,72,127
47437,note_on,0,0,0,,4,,,88,127
47437,note_on,0,0,0,,0,,,84,127
47625,note_off,188,0,0,,0,,,72,127
47688,note_on,63,0,0,,0,,,36,127
47937,note_off,249,0,0,,0,,,36,127
47938,note_on,1,0,0,,7,,,31,127
48020,note_off,82,0,0,,0,,,84,127
48020,note_off,0,0,0,,4,,,88,127
48021,note_on,1,0,0,,2,,,86,127
48103,note_off,82,0,0,,2,,,86,127
48104,note_on,1,0,0,,4,,,88,127
48186,note_off,82,0,0,,4,,,88,127
48187,note_on,1,0,0,,5,,,89,127
48269,note_off,82,0,0,,5,,,89,127
48270,note_on,1,0,0,,4,,,88,127
48352,note_off,82,0,0,,4,,,88,127
48353,note_on,1,0,0,,2,,,86,127
48435,note_off,82,0,0,,2,,,86,127
48435,note_off,0,0,0,,7,,,31,127
48436,note_on,1,0,0,,0,,,72,127
48436,note_on,0,0,0,,4,,,88,127
48436,note_on,0,0,0,,0,,,84,127
48624,note_off,188,0,0,,0,,,72,127
48687,note_on,63,0,0,,0,,,36,127
48936,note_off,249,0,0,,0,,,36,127
48937,note_on,1,0,0,,7,,,31,127
49019,note_off,82,0,0,,0,,,84,127
49019,note_off,0,0,0,,4,,,88,127
49020,note_on,1,0,0,,2,,,86,127
49102,note_off,82,0,0,,2,,,86,127
49103,note_on,1,0,0,,4,,,88,127
49185,note_off,82,0,0,,4,,,88,127
49186,note_on,1,0,0,,5,,,89,127
49268,note_off,82,0,0,,5,,,89,127
49269,note_on,1,0,0,,4,,,88,127
49351,note_off,82,0,0,,4,,,88,127
49352,note_on,1,0,0,,2,,,86,127
49434,note_off,82,0,0,,2,,,86,127
49434,note_off,0,0,0,,7,,,31,127
49435,note_on,1,0,0,,0,,,72,127
49435,note_on,0,0,0,,4,,,88,127
49435,note_on,0,0,0,,0,,,84,127
49623,note_off,188,0,0,,0,,,72,127
49686,note_on,63,0,0,,0,,,36,127
49935,note_off,249,0,0,,0,,,36,127
49936,note_on,1,0,0,,7,,,31,127
50018,note_off,82,0,0,,0,,,84,127
50018,note_off,0,0,0,,4,,,88,127
50019,note_on,1,0,0,,2,,,86,127
50101,note_off,82,0,0,,2,,,86,127
50102,note_on,1,0,0,,4,,,88,127
50184,note_off,82,0,0,,4,,,88,127
50185,note_on,1,0,0,,5,,,89,127
50267,note_off,82,0,0,,5,,,89,127
50268,note_on,1,0,0,,4,,,88,127
50350,note_off,82,0,0,,4,,,88,127
50351,note_on,1,0,0,,2,,,86,127
50433,note_off,82,0,0,,2,,,86,127
50433,note_off,0,0,0,,7,,,31,127
50434,note_on,1,0,0,,0,,,36,127
50434,note_on,0,0,0,,4,,,88,127
50516,note_off,82,0,0,,4,,,88,127
50517,note_on,1,0,0,,7,,,91,127
50599,note_off,82,0,0,,7,,,91,127
50600,note_on,1,0,0,,5,,,89,127
50682,note_off,82,0,0,,5,,,89,127
50683,note_on,1,0,0,,4,,,88,127
50765,note_off,82,0,0,,4,,,88,127
50766,note_on,1,0,0,,2,,,86,127
50848,note_off,82,0,0,,2,,,86,127
50849,note_on,1,0,0,,0,,,84,127
50931,note_off,82,0,0,,0,,,84,127
50931,note_off,0,0,0,,0,,,36,127
50932,note_on,1,0,0,,0,,,48,127
50932,note_on,0,0,0,,11,,,82,127
51014,note_off,82,0,0,,11,,,82,127
51015,note_on,1,0,0,,2,,,86,127
51097,note_off,82,0,0,,2,,,86,127
51098,note_on,1,0,0,,0,,,84,127
51180,note_off,82,0,0,,0,,,84,127
51181,note_on,1,0,0,,11,,,82,127
51263,note_off,82,0,0,,11,,,82,127
51264,note_on,1,0,0,,10,,,81,127
51346,note_off,82,0,0,,10,,,81,127
51347,note_on,1,0,0,,7,,,79,127
51429,note_off,82,0,0,,7,,,79,127
51429,note_off,0,0,0,,0,,,48,127
51430,note_on,1,0,0,,5,,,41,127
51430,note_on,0,0,0,,10,,,81,127
51512,note_off,82,0,0,,10,,,81,127
51513,note_on,1,0,0,,0,,,84,127
51595,note_off,82,0,0,,0,,,84,127
51596,note_on,1,0,0,,12,,,83,127
51678,note_off,82,0,0,,12,,,83,127
51679,note_on,1,0,0,,10,,,81,127
51761,note_off,82,0,0,,10,,,81,127
51762,note_on,1,0,0,,7,,,79,127
51844,note_off,82,0,0,,7,,,79,127
51845,note_on,1,0,0,,5,,,77,127
51927,note_off,82,0,0,,5,,,77,127
51927,note_off,0,0,0,,5,,,41,127
51928,note_on,1,0,0,,5,,,53,127
51928,note_on,0,0,0,,5,,,77,127
52010,note_off,82,0,0,,5,,,77,127
52011,note_on,1,0,0,,10,,,81,127
52093,note_off,82,0,0,,10,,,81,127
52094,note_on,1,0,0,,7,,,79,127
52176,note_off,82,0,0,,7,,,79,127
52177,note_on,1,0,0,,5,,,77,127
52259,note_off,82,0,0,,5,,,77,127
52260,note_on,1,0,0,,4,,,76,127
52342,note_off,82,0,0,,4,,,76,127
52343,note_on,1,0,0,,2,,,74,127
52425,note_off,82,0,0,,2,,,74,127
52425,note_off,0,0,0,,5,,,53,127
52426,note_on,1,0,0,,7,,,55,127
52426,note_on,0,0,0,,0,,,72,127
52717,note_off,291,0,0,,0,,,72,127
52718,note_on,1,0,0,,2,,,74,127
52758,note_off,40,0,0,,2,,,74,127
52759,note_on,1,0,0,,0,,,72,127
52799,note_off,40,0,0,,0,,,72,127
52800,note_on,1,0,0,,12,,,71,127
52840,note_off,40,0,0,,12,,,71,127
52841,note_on,1,0,0,,0,,,72,127
52881,note_off,40,0,0,,0,,,72,127
52882,note_on,1,0,0,,2,,,74,127
52922,note_off,40,0,0,,2,,,74,127
52923,note_on,1,0,0,,7,,,43,127
52923,note_on,0,0,0,,4,,,76,127
52973,note_on,50,0,0,,2,,,74,127
52985,note_off,12,0,0,,4,,,76,127
53023,note_on,38,0,0,,4,,,76,127
53035,note_off,12,0,0,,2,,,74,127
53074,note_on,39,0,0,,2,,,74,127
53084,note_off,10,0,0,,4,,,76,127
53123,note_on,39,0,0,,4,,,76,127
53135,note_off,12,0,0,,2,,,74,127
53174,note_on,39,0,0,,2,,,74,127
53184,note_off,10,0,0,,4,,,76,127
53223,note_on,39,0,0,,4,,,76,127
53235,note_off,12,0,0,,2,,,74,127
53273,note_on,38,0,0,,2,,,74,127
53285,note_off,12,0,0,,4,,,76,127
53324,note_on,39,0,0,,4,,,76,127
53334,note_off,10,0,0,,2,,,74,127
53373,note_on,39,0,0,,2,,,74,127
53385,note_off,12,0,0,,4,,,76,127
53414,note_off,29,0,0,,2,,,74,127
53423,note_off,9,0,0,,7,,,43,127
53423,note_off,0,0,0,,7,,,55,127
53424,note_on,1,0,0,,0,,,36,127
53424,note_on,0,0,0,,0,,,72,127
53924,note_off,500,0,0,,0,,,36,127
53925,note_on,1,0,0,,11,,,70,127
53925,note_on,0,0,0,,0,,,60,127
54174,note_off,249,0,0,,0,,,60,127
54174,note_off,0,0,0,,11,,,70,127
54175,note_on,1,0,0,,0,,,60,127
54175,note_on,0,0,0,,11,,,70,127
54424,note_off,249,0,0,,11,,,70,127
54424,note_off,0,0,0,,0,,,60,127
54425,note_on,1,0,0,,10,,,69,127
54425,note_on,0,0,0,,0,,,60,127
54674,note_off,249,0,0,,0,,,60,127
54674,note_off,0,0,0,,10,,,69,127
54675,note_on,1,0,0,,10,,,69,127
54675,note_on,0,0,0,,0,,,60,127
54924,note_off,249,0,0,,0,,,60,127
54924,note_off,0,0,0,,10,,,69,127
54924,note_off,0,0,0,,0,,,72,127
54925,note_on,1,0,0,,12,,,71,127
54925,note_on,0,0,0,,0,,,60,127
54925,note_on,0,0,0,,4,,,88,127
54975,note_on,50,0,0,,2,,,86,127
54987,note_off,12,0,0,,4,,,88,127
55025,note_on,38,0,0,,4,,,88,127
55037,note_off,12,0,0,,2,,,86,127
55076,note_on,39,0,0,,2,,,86,127
55086,note_off,10,0,0,,4,,,88,127
55125,note_on,39,0,0,,4,,,88,127
55137,note_off,12,0,0,,2,,,86,127
55175,note_off,38,0,0,,0,,,60,127
55175,note_off,0,0,0,,12,,,71,127
55176,note_on,1,0,0,,12,,,71,127
55176,note_on,0,0,0,,0,,,60,127
55176,note_on,0,0,0,,2,,,86,127
55186,note_off,10,0,0,,4,,,88,127
55225,note_on,39,0,0,,4,,,88,127
55237,note_off,12,0,0,,2,,,86,127
55275,note_on,38,0,0,,2,,,86,127
55287,note_off,12,0,0,,4,,,88,127
55326,note_on,39,0,0,,4,,,88,127
55336,note_off,10,0,0,,2,,,86,127
55375,note_on,39,0,0,,2,,,86,127
55387,note_off,12,0,0,,4,,,88,127
55416,note_off,29,0,0,,2,,,86,127
55425,note_off,9,0,0,,0,,,60,127
55425,note_off,0,0,0,,12,,,71,127
55426,note_on,1,0,0,,0,,,60,127
55426,note_on,0,0,0,,0,,,72,127
55426,note_on,0,0,0,,0,,,84,127
55926,note_off,500,0,0,,0,,,72,127
55926,note_off,0,0,0,,0,,,60,127
55927,note_on,1,0,0,,11,,,70,127
55927,note_on,0,0,0,,0,,,60,127
56176,note_off,249,0,0,,0,,,60,127
56176,note_off,0,0,0,,11,,,70,127
56177,note_on,1,0,0,,11,,,70,127
56177,note_on,0,0,0,,0,,,60,127
56426,note_off,249,0,0,,0,,,60,127
56426,note_off,0,0,0,,11,,,70,127
56427,note_on,1,0,0,,10,,,69,127
56427,note_on,0,0,0,,0,,,60,127
56676,note_off,249,0,0,,0,,,60,127
56676,note_off,0,0,0,,10,,,69,127
56677,note_on,1,0,0,,10,,,69,127
56677,note_on,0,0,0,,0,,,60,127
56926,note_off,249,0,0,,0,,,60,127
56926,note_off,0,0,0,,10,,,69,127
56926,note_off,0,0,0,,0,,,84,127
56927,note_on,1,0,0,,12,,,71,127
56927,note_on,0,0,0,,0,,,60,127
56927,note_on,0,0,0,,4,,,88,127
56977,note_on,50,0,0,,2,,,86,127
56989,note_off,12,0,0,,4,,,88,127
57027,note_on,38,0,0,,4,,,88,127
57039,note_off,12,0,0,,2,,,86,127
57078,note_on,39,0,0,,2,,,86,127
57088,note_off,10,0,0,,4,,,88,127
57127,note_on,39,0,0,,4,,,88,127
57139,note_off,12,0,0,,2,,,86,127
57177,note_off,38,0,0,,0,,,60,127
57177,note_off,0,0,0,,12,,,71,127
57178,note_on,1,0,0,,12,,,71,127
57178,note_on,0,0,0,,0,,,60,127
57178,note_on,0,0,0,,2,,,86,127
57188,note_off,10,0,0,,4,,,88,127
57227,note_on,39,0,0,,4,,,88,127
57239,note_off,12,0,0,,2,,,86,127
57277,note_on,38,0,0,,2,,,86,127
57289,note_off,12,0,0,,4,,,88,127
57328,note_on,39,0,0,,4,,,88,127
57338,note_off,10,0,0,,2,,,86,127
57377,note_on,39,0,0,,2,,,86,127
57389,note_off,12,0,0,,4,,,88,127
57418,note_off,29,0,0,,2,,,86,127
57427,note_off,9,0,0,,0,,,60,127
57427,note_off,0,0,0,,12,,,71,127
57428,note_on,1,0,0,,0,,,72,127
57428,note_on,0,0,0,,0,,,60,127
57428,note_on,0,0,0,,0,,,84,127
57510,note_off,82,0,0,,0,,,84,127
57511,note_on,1,0,0,,0,,,84,127
57593,note_off,82,0,0,,0,,,84,127
57594,note_on,1,0,0,,7,,,79,127
57676,note_off,82,0,0,,7,,,79,127
57677,note_on,1,0,0,,4,,,76,127
57759,note_off,82,0,0,,4,,,76,127
57759,note_off,0,0,0,,0,,,72,127
57760,note_on,1,0,0,,0,,,72,127
57842,note_off,82,0,0,,0,,,72,127
57843,note_on,1,0,0,,7,,,67,127
57925,note_off,82,0,0,,7,,,67,127
57925,note_off,0,0,0,,0,,,60,127
57926,note_on,1,0,0,,0,,,60,127
58009,note_on,83,0,0,,7,,,55,127
58091,note_off,82,0,0,,7,,,55,127
58092,note_on,1,0,0,,4,,,52,127
58174,note_off,82,0,0,,0,,,60,127
58175,note_on,1,0,0,,0,,,48,127
58257,note_off,82,0,0,,4,,,52,127
58258,note_on,1,0,0,,7,,,43,127
58340,note_off,82,0,0,,7,,,43,127
58340,note_off,0,0,0,,0,,,48,127
58341,note_on,1,0,0,,0,,,36,127
58422,note_off,81,0,0,,0,,,36,127
58435,note_on,13,0,0,,5,,,41,127
58435,note_on,0,0,0,,10,,,81,127
58684,note_off,249,0,0,,5,,,41,127
58685,note_on,1,0,0,,5,,,53,127
58934,note_off,249,0,0,,5,,,53,127
58934,note_off,0,0,0,,10,,,81,127
58935,note_on,1,0,0,,7,,,55,127
58935,note_on,0,0,0,,4,,,76,127
58985,note_on,50,0,0,,2,,,74,127
58997,note_off,12,0,0,,4,,,76,127
59035,note_on,38,0,0,,4,,,76,127
59047,note_off,12,0,0,,2,,,74,127
59086,note_on,39,0,0,,2,,,74,127
59096,note_off,10,0,0,,4,,,76,127
59135,note_on,39,0,0,,4,,,76,127
59147,note_off,12,0,0,,2,,,74,127
59186,note_on,39,0,0,,7,,,43,127
59186,note_on,0,0,0,,2,,,74,127
59196,note_off,10,0,0,,4,,,76,127
59235,note_on,39,0,0,,4,,,76,127
59247,note_off,12,0,0,,2,,,74,127
59285,note_on,38,0,0,,2,,,74,127
59297,note_off,12,0,0,,4,,,76,127
59336,note_on,39,0,0,,4,,,76,127
59346,note_off,10,0,0,,2,,,74,127
59385,note_on,39,0,0,,2,,,74,127
59397,note_off,12,0,0,,4,,,76,127
59426,note_off,29,0,0,,2,,,74,127
59435,note_off,9,0,0,,7,,,43,127
59435,note_off,0,0,0,,7,,,55,127
59436,note_on,1,0,0,,0,,,36,127
59436,note_on,0,0,0,,0,,,72,127
59936,note_off,500,0,0,,0,,,72,127
59936,note_off,0,0,0,,0,,,36,127
59937,note_on,1,0,0,,0,,,36,127
59937,note_on,0,0,0,,0,,,72,127
59937,note_on,0,0,0,,11,,,82,127
60186,note_off,249,0,0,,11,,,82,127
60186,note_off,0,0,0,,0,,,72,127
60187,note_on,1,0,0,,0,,,72,127
60187,note_on,0,0,0,,11,,,82,127
60436,note_off,249,0,0,,11,,,82,127
60436,note_off,0,0,0,,0,,,72,127
60436,note_off,0,0,0,,0,,,36,127
60437,note_on,1,0,0,,0,,,36,127
60437,note_on,0,0,0,,0,,,72,127
60437,note_on,0,0,0,,10,,,81,127
60686,note_off,249,0,0,,10,,,81,127
60686,note_off,0,0,0,,0,,,72,127
60687,note_on,1,0,0,,10,,,81,127
60687,note_on,0,0,0,,0,,,72,127
60936,note_off,249,0,0,,0,,,72,127
60936,note_off,0,0,0,,10,,,81,127
60936,note_off,0,0,0,,0,,,36,127
60937,note_on,1,0,0,,7,,,79,127
60937,note_on,0,0,0,,12,,,83,127
60937,note_on,0,0,0,,0,,,36,127
60987,note_on,50,0,0,,5,,,77,127
60999,note_off,12,0,0,,7,,,79,127
61037,note_on,38,0,0,,7,,,79,127
61049,note_off,12,0,0,,5,,,77,127
61088,note_on,39,0,0,,5,,,77,127
61098,note_off,10,0,0,,7,,,79,127
61137,note_on,39,0,0,,7,,,79,127
61149,note_off,12,0,0,,5,,,77,127
61188,note_on,39,0,0,,5,,,77,127
61198,note_off,10,0,0,,7,,,79,127
61237,note_on,39,0,0,,7,,,79,127
61249,note_off,12,0,0,,5,,,77,127
61287,note_on,38,0,0,,5,,,77,127
61299,note_off,12,0,0,,7,,,79,127
61338,note_on,39,0,0,,7,,,79,127
61348,note_off,10,0,0,,5,,,77,127
61387,note_on,39,0,0,,5,,,77,127
61399,note_off,12,0,0,,7,,,79,127
61428,note_off,29,0,0,,5,,,77,127
61437,note_off,9,0,0,,0,,,36,127
61437,note_off,0,0,0,,12,,,83,127
61438,note_on,1,0,0,,0,,,84,127
61438,note_on,0,0,0,,4,,,76,127
61438,note_on,0,0,0,,0,,,36,127
61938,note_off,500,0,0,,0,,,36,127
61938,note_off,0,0,0,,4,,,76,127
61938,note_off,0,0,0,,0,,,84,127
61950,note_on,12,0,0,,11,,,82,127
61950,note_on,0,0,0,,0,,,72,127
61950,note_on,0,0,0,,0,,,36,127
62199,note_off,249,0,0,,0,,,72,127
62199,note_off,0,0,0,,11,,,82,127
62200,note_on,1,0,0,,11,,,82,127
62200,note_on,0,0,0,,0,,,72,127
62449,note_off,249,0,0,,0,,,72,127
62449,note_off,0,0,0,,11,,,82,127
62449,note_off,0,0,0,,0,,,36,127
62450,note_on,1,0,0,,0,,,72,127
62450,note_on,0,0,0,,10,,,81,127
62450,note_on,0,0,0,,0,,,36,127
62699,note_off,249,0,0,,10,,,81,127
62699,note_off,0,0,0,,0,,,72,127
62700,note_on,1,0,0,,10,,,81,127
62700,note_on,0,0,0,,0,,,72,127
62949,note_off,249,0,0,,0,,,72,127
62949,note_off,0,0,0,,10,,,81,127
62949,note_off,0,0,0,,0,,,36,127
62950,note_on,1,0,0,,7,,,79,127
62950,note_on,0,0,0,,12,,,83,127
62950,note_on,0,0,0,,0,,,36,127
63000,note_on,50,0,0,,5,,,77,127
63012,note_off,12,0,0,,7,,,79,127
63050,note_on,38,0,0,,7,,,79,127
63062,note_off,12,0,0,,5,,,77,127
63101,note_on,39,0,0,,5,,,77,127
63111,note_off,10,0,0,,7,,,79,127
63150,note_on,39,0,0,,7,,,79,127
63162,note_off,12,0,0,,5,,,77,127
63201,note_on,39,0,0,,5,,,77,127
63211,note_off,10,0,0,,7,,,79,127
63250,note_on,39,0,0,,7,,,79,127
63262,note_off,12,0,0,,5,,,77,127
63300,note_on,38,0,0,,5,,,77,127
63312,note_off,12,0,0,,7,,,79,127
63351,note_on,39,0,0,,7,,,79,127
63361,note_off,10,0,0,,5,,,77,127
63400,note_on,39,0,0,,5,,,77,127
63412,note_off,12,0,0,,7,,,79,127
63441,note_off,29,0,0,,5,,,77,127
63450,note_off,9,0,0,,0,,,36,127
63450,note_off,0,0,0,,12,,,83,127
63451,note_on,1,0,0,,4,,,76,127
63451,note_on,0,0,0,,0,,,36,127
63533,note_off,82,0,0,,4,,,76,127
63534,note_on,1,0,0,,0,,,84,127
63616,note_off,82,0,0,,0,,,84,127
63617,note_on,1,0,0,,7,,,79,127
63699,note_off,82,0,0,,7,,,79,127
63700,note_on,1,0,0,,4,,,76,127
63782,note_off,82,0,0,,4,,,76,127
63783,note_on,1,0,0,,0,,,72,127
63865,note_off,82,0,0,,0,,,72,127
63866,note_on,1,0,0,,7,,,67,127
63948,note_off,82,0,0,,7,,,67,127
63948,note_off,0,0,0,,0,,,36,127
63949,note_on,1,0,0,,0,,,60,127
64032,note_on,83,0,0,,7,,,55,127
64114,note_off,82,0,0,,7,,,55,127
64115,note_on,1,0,0,,4,,,52,127
64197,note_off,82,0,0,,0,,,60,127
64198,note_on,1,0,0,,0,,,48,127
64280,note_off,82,0,0,,4,,,52,127
64281,note_on,1,0,0,,7,,,43,127
64363,note_off,82,0,0,,7,,,43,127
64363,note_off,0,0,0,,0,,,48,127
64364,note_on,1,0,0,,0,,,36,127
64445,note_off,81,0,0,,0,,,36,127
64458,note_on,13,0,0,,10,,,81,127
64458,note_on,0,0,0,,5,,,41,127
64707,note_off,249,0,0,,5,,,41,127
64708,note_on,1,0,0,,5,,,53,127
64957,note_off,249,0,0,,5,,,53,127
64957,note_off,0,0,0,,10,,,81,127
64958,note_on,1,0,0,,4,,,76,127
64958,note_on,0,0,0,,7,,,55,127
65008,note_on,50,0,0,,2,,,74,127
65020,note_off,12,0,0,,4,,,76,127
65058,note_on,38,0,0,,4,,,76,127
65070,note_off,12,0,0,,2,,,74,127
65109,note_on,39,0,0,,2,,,74,127
65119,note_off,10,0,0,,4,,,76,127
65158,note_on,39,0,0,,4,,,76,127
65170,note_off,12,0,0,,2,,,74,127
65209,note_on,39,0,0,,2,,,74,127
65209,note_on,0,0,0,,7,,,43,127
65219,note_off,10,0,0,,4,,,76,127
65258,note_on,39,0,0,,4,,,76,127
65270,note_off,12,0,0,,2,,,74,127
65308,note_on,38,0,0,,2,,,74,127
65320,note_off,12,0,0,,4,,,76,127
65359,note_on,39,0,0,,4,,,76,127
65369,note_off,10,0,0,,2,,,74,127
65408,note_on,39,0,0,,2,,,74,127
65420,note_off,12,0,0,,4,,,76,127
65449,note_off,29,0,0,,2,,,74,127
65458,note_off,9,0,0,,7,,,43,127
65458,note_off,0,0,0,,7,,,55,127
65459,note_on,1,0,0,,0,,,72,127
65459,note_on,0,0,0,,0,,,36,127
65541,note_off,82,0,0,,0,,,72,127
65542,note_on,1,0,0,,0,,,84,127
65624,note_off,82,0,0,,0,,,84,127
65625,note_on,1,0,0,,7,,,79,127
65707,note_off,82,0,0,,7,,,79,127
65708,note_on,1,0,0,,4,,,76,127
65790,note_off,82,0,0,,4,,,76,127
65791,note_on,1,0,0,,0,,,72,127
65873,note_off,82,0,0,,0,,,72,127
65874,note_on,1,0,0,,7,,,67,127
65956,note_off,82,0,0,,7,,,67,127
65956,note_off,0,0,0,,0,,,36,127
65957,note_on,1,0,0,,0,,,60,127
66040,note_on,83,0,0,,7,,,55,127
66122,note_off,82,0,0,,7,,,55,127
66123,note_on,1,0,0,,4,,,52,127
66206,note_on,83,0,0,,0,,,48,127
66288,note_off,82,0,0,,4,,,52,127
66289,note_on,1,0,0,,7,,,43,127
66331,note_off,42,0,0,,0,,,60,127
66371,note_off,40,0,0,,0,,,48,127
66378,note_off,7,0,0,,7,,,43,127
66378,note_on,0,0,0,,0,,,36,127
66477,note_off,99,0,0,,0,,,36,127
66487,note_on,10,0,0,,10,,,69,127
66487,note_on,0,0,0,,5,,,41,127
66745,note_off,258,0,0,,5,,,41,127
66749,note_on,4,0,0,,5,,,53,127
67006,note_off,257,0,0,,10,,,69,127
67007,note_off,1,0,0,,5,,,53,127
67012,note_on,5,0,0,,4,,,64,127
67012,note_on,0,0,0,,7,,,55,127
67064,note_on,52,0,0,,2,,,62,127
67074,note_off,10,0,0,,4,,,64,127
67116,note_on,42,0,0,,4,,,64,127
67126,note_off,10,0,0,,2,,,62,127
67168,note_on,42,0,0,,2,,,62,127
67178,note_off,10,0,0,,4,,,64,127
67220,note_on,42,0,0,,4,,,64,127
67230,note_off,10,0,0,,2,,,62,127
67273,note_on,43,0,0,,2,,,62,127
67273,note_on,0,0,0,,7,,,43,127
67282,note_off,9,0,0,,4,,,64,127
67325,note_on,43,0,0,,4,,,64,127
67335,note_off,10,0,0,,2,,,62,127
67377,note_on,42,0,0,,2,,,62,127
67387,note_off,10,0,0,,4,,,64,127
67430,note_on,43,0,0,,4,,,64,127
67439,note_off,9,0,0,,2,,,62,127
67482,note_on,43,0,0,,2,,,62,127
67492,note_off,10,0,0,,4,,,64,127
67529,note_off,37,0,0,,7,,,55,127
67530,note_off,1,0,0,,7,,,43,127
67533,note_off,3,0,0,,2,,,62,127
67556,note_on,23,0,0,,0,,,36,127
67556,note_on,0,0,0,,0,,,60,127
69382,note_off,1826,0,0,,0,,,60,127
69382,note_off,0,0,0,,0,,,36,127
70656,end_of_track,1274,1,0,,,,,,
