tick,type,time,meta,track,program,channel,pitch,tempo,note,velocity
0,copyright,0,1,0,,,,,,
0,program_change,0,0,0,6,0,,,,
0,pitchwheel,0,0,0,,0,0,,,
0,program_change,0,0,0,6,1,,,,
0,pitchwheel,0,0,0,,1,-590,,,
0,program_change,0,0,0,6,2,,,,
0,pitchwheel,0,0,0,,2,-272,,,
0,program_change,0,0,0,6,3,,,,
0,pitchwheel,0,0,0,,3,-353,,,
0,program_change,0,0,0,6,4,,,,
0,pitchwheel,0,0,0,,4,-560,,,
0,program_change,0,0,0,6,5,,,,
0,pitchwheel,0,0,0,,5,-80,,,
0,program_change,0,0,0,6,6,,,,
0,pitchwheel,0,0,0,,6,-625,,,
0,program_change,0,0,0,6,7,,,,
0,pitchwheel,0,0,0,,7,-130,,,
0,program_change,0,0,0,6,8,,,,
0,pitchwheel,0,0,0,,8,-512,,,
0,program_change,0,0,0,6,10,,,,
0,pitchwheel,0,0,0,,10,-464,,,
0,program_change,0,0,0,6,11,,,,
0,pitchwheel,0,0,0,,11,-208,,,
0,program_change,0,0,0,6,12,,,,
0,pitchwheel,0,0,0,,12,-553,,,
0,set_tempo,0,1,0,,,,500000,,
111,note_on,111,0,0,,0,,,84,127
219,note_off,108,0,0,,0,,,84,127
221,note_on,2,0,0,,7,,,79,127
329,note_off,108,0,0,,7,,,79,127
331,note_on,2,0,0,,4,,,76,127
439,note_off,108,0,0,,4,,,76,127
441,note_on,2,0,0,,0,,,72,127
549,note_off,108,0,0,,0,,,72,127
551,note_on,2,0,0,,7,,,67,127
659,note_off,108,0,0,,7,,,67,127
661,note_on,2,0,0,,4,,,64,127
769,note_off,108,0,0,,4,,,64,127
771,note_on,2,0,0,,0,,,60,127
875,note_off,104,0,0,,0,,,60,127
882,note_on,7,0,0,,7,,,55,127
986,note_off,104,0,0,,7,,,55,127
993,note_on,7,0,0,,4,,,52,127
1097,note_off,104,0,0,,4,,,52,127
1104,note_on,7,0,0,,0,,,48,127
1208,note_off,104,0,0,,0,,,48,127
1215,note_on,7,0,0,,7,,,43,127
1319,note_off,104,0,0,,7,,,43,127
1326,note_on,7,0,0,,4,,,40,127
1430,note_off,104,0,0,,4,,,40,127
1437,note_on,7,0,0,,0,,,36,127
1659,note_on,222,0,0,,7,,,79,127
1830,note_off,171,0,0,,0,,,36,127
1878,note_off,48,0,0,,7,,,79,127
1880,note_on,2,0,0,,4,,,52,127
1880,note_on,0,0,0,,7,,,67,127
2095,note_off,215,0,0,,4,,,52,127
2100,note_off,5,0,0,,7,,,67,127
2102,note_on,2,0,0,,5,,,53,127
2102,note_on,0,0,0,,10,,,69,127
2317,note_off,215,0,0,,5,,,53,127
2322,note_off,5,0,0,,10,,,69,127
2324,note_on,2,0,0,,7,,,55,127
2324,note_on,0,0,0,,0,,,72,127
2396,note_off,72,0,0,,0,,,72,127
2398,note_on,2,0,0,,12,,,71,127
2470,note_off,72,0,0,,12,,,71,127
2472,note_on,2,0,0,,0,,,72,127
2539,note_off,67,0,0,,7,,,55,127
2544,note_off,5,0,0,,0,,,72,127
2546,note_on,2,0,0,,5,,,53,127
2546,note_on,0,0,0,,12,,,71,127
2618,note_off,72,0,0,,12,,,71,127
2620,note_on,2,0,0,,10,,,69,127
2692,note_off,72,0,0,,10,,,69,127
2694,note_on,2,0,0,,12,,,71,127
2761,note_off,67,0,0,,5,,,53,127
2766,note_off,5,0,0,,12,,,71,127
2768,note_on,2,0,0,,4,,,52,127
2768,note_on,0,0,0,,0,,,72,127
2983,note_off,215,0,0,,4,,,52,127
2988,note_off,5,0,0,,0,,,72,127
2990,note_on,2,0,0,,2,,,50,127
2990,note_on,0,0,0,,2,,,74,127
3205,note_off,215,0,0,,2,,,50,127
3210,note_off,5,0,0,,2,,,74,127
3212,note_on,2,0,0,,0,,,48,127
3212,note_on,0,0,0,,4,,,76,127
3427,note_off,215,0,0,,0,,,48,127
3432,note_off,5,0,0,,4,,,76,127
3434,note_on,2,0,0,,5,,,53,127
3434,note_on,0,0,0,,7,,,79,127
3434,note_on,0,0,0,,5,,,77,127
3506,note_off,72,0,0,,5,,,77,127
3506,note_off,0,0,0,,7,,,79,127
3508,note_on,2,0,0,,4,,,76,127
3580,note_off,72,0,0,,4,,,76,127
3582,note_on,2,0,0,,2,,,74,127
3649,note_off,67,0,0,,5,,,53,127
3654,note_off,5,0,0,,2,,,74,127
3656,note_on,2,0,0,,7,,,55,127
3656,note_on,0,0,0,,0,,,72,127
3871,note_off,215,0,0,,7,,,55,127
3878,note_on,7,0,0,,5,,,53,127
3878,note_on,0,0,0,,12,,,71,127
3886,note_off,8,0,0,,0,,,72,127
4093,note_off,207,0,0,,5,,,53,127
4098,note_off,5,0,0,,12,,,71,127
4100,note_on,2,0,0,,4,,,52,127
4100,note_on,0,0,0,,0,,,72,127
4315,note_off,215,0,0,,4,,,52,127
4320,note_off,5,0,0,,0,,,72,127
4322,note_on,2,0,0,,2,,,50,127
4322,note_on,0,0,0,,7,,,79,127
4537,note_off,215,0,0,,2,,,50,127
4542,note_off,5,0,0,,7,,,79,127
4544,note_on,2,0,0,,0,,,48,127
4544,note_on,0,0,0,,7,,,67,127
4759,note_off,215,0,0,,0,,,48,127
4764,note_off,5,0,0,,7,,,67,127
4766,note_on,2,0,0,,5,,,53,127
4766,note_on,0,0,0,,10,,,69,127
4981,note_off,215,0,0,,5,,,53,127
4986,note_off,5,0,0,,10,,,69,127
4988,note_on,2,0,0,,7,,,55,127
4988,note_on,0,0,0,,0,,,72,127
5060,note_off,72,0,0,,0,,,72,127
5062,note_on,2,0,0,,12,,,71,127
5134,note_off,72,0,0,,12,,,71,127
5136,note_on,2,0,0,,0,,,72,127
5203,note_off,67,0,0,,7,,,55,127
5208,note_off,5,0,0,,0,,,72,127
5210,note_on,2,0,0,,5,,,53,127
5210,note_on,0,0,0,,12,,,71,127
5282,note_off,72,0,0,,12,,,71,127
5284,note_on,2,0,0,,10,,,69,127
5356,note_off,72,0,0,,10,,,69,127
5358,note_on,2,0,0,,12,,,71,127
5425,note_off,67,0,0,,5,,,53,127
5430,note_off,5,0,0,,12,,,71,127
5432,note_on,2,0,0,,4,,,52,127
5432,note_on,0,0,0,,0,,,72,127
5647,note_off,215,0,0,,4,,,52,127
5652,note_off,5,0,0,,0,,,72,127
5654,note_on,2,0,0,,2,,,50,127
5654,note_on,0,0,0,,2,,,74,127
5869,note_off,215,0,0,,2,,,50,127
5874,note_off,5,0,0,,2,,,74,127
5876,note_on,2,0,0,,0,,,48,127
5876,note_on,0,0,0,,4,,,76,127
6091,note_off,215,0,0,,0,,,48,127
6096,note_off,5,0,0,,4,,,76,127
6098,note_on,2,0,0,,5,,,53,127
6098,note_on,0,0,0,,5,,,77,127
6098,note_on,0,0,0,,7,,,79,127
6170,note_off,72,0,0,,7,,,79,127
6170,note_off,0,0,0,,5,,,77,127
6172,note_on,2,0,0,,4,,,76,127
6244,note_off,72,0,0,,4,,,76,127
6246,note_on,2,0,0,,2,,,74,127
6313,note_off,67,0,0,,5,,,53,127
6318,note_off,5,0,0,,2,,,74,127
6320,note_on,2,0,0,,7,,,55,127
6320,note_on,0,0,0,,0,,,72,127
6535,note_off,215,0,0,,7,,,55,127
6540,note_off,5,0,0,,0,,,72,127
6542,note_on,2,0,0,,7,,,43,127
6542,note_on,0,0,0,,12,,,71,127
6757,note_off,215,0,0,,7,,,43,127
6762,note_off,5,0,0,,12,,,71,127
6764,note_on,2,0,0,,0,,,36,127
6764,note_on,0,0,0,,2,,,74,127
6819,note_on,55,0,0,,0,,,72,127
6835,note_off,16,0,0,,2,,,74,127
6874,note_on,39,0,0,,2,,,74,127
6890,note_off,16,0,0,,0,,,72,127
6929,note_on,39,0,0,,0,,,72,127
6945,note_off,16,0,0,,2,,,74,127
7317,note_off,372,0,0,,0,,,36,127
7425,note_off,108,0,0,,0,,,72,127
7427,note_on,2,0,0,,0,,,48,127
7630,note_off,203,0,0,,0,,,48,127
7648,note_on,18,0,0,,0,,,72,127
7851,note_off,203,0,0,,0,,,72,127
7869,note_on,18,0,0,,0,,,48,127
7869,note_on,0,0,0,,10,,,81,127
7869,note_on,0,0,0,,7,,,79,127
7941,note_off,72,0,0,,7,,,79,127
7941,note_off,0,0,0,,10,,,81,127
7943,note_on,2,0,0,,6,,,78,127
8015,note_off,72,0,0,,6,,,78,127
8017,note_on,2,0,0,,7,,,79,127
8072,note_off,55,0,0,,0,,,48,127
8088,note_off,16,0,0,,7,,,79,127
8090,note_on,2,0,0,,12,,,47,127
8090,note_on,0,0,0,,2,,,74,127
8293,note_off,203,0,0,,12,,,47,127
8311,note_on,18,0,0,,12,,,71,127
8514,note_off,203,0,0,,12,,,71,127
8530,note_off,16,0,0,,2,,,74,127
8532,note_on,2,0,0,,12,,,47,127
8532,note_on,0,0,0,,7,,,79,127
8604,note_off,72,0,0,,7,,,79,127
8606,note_on,2,0,0,,6,,,78,127
8678,note_off,72,0,0,,6,,,78,127
8680,note_on,2,0,0,,7,,,79,127
8735,note_off,55,0,0,,12,,,47,127
8751,note_off,16,0,0,,7,,,79,127
8753,note_on,2,0,0,,10,,,45,127
8753,note_on,0,0,0,,0,,,72,127
8956,note_off,203,0,0,,10,,,45,127
8974,note_on,18,0,0,,10,,,69,127
9177,note_off,203,0,0,,10,,,69,127
9193,note_off,16,0,0,,0,,,72,127
9195,note_on,2,0,0,,10,,,45,127
9195,note_on,0,0,0,,7,,,79,127
9267,note_off,72,0,0,,7,,,79,127
9269,note_on,2,0,0,,6,,,78,127
9341,note_off,72,0,0,,6,,,78,127
9343,note_on,2,0,0,,7,,,79,127
9398,note_off,55,0,0,,10,,,45,127
9414,note_off,16,0,0,,7,,,79,127
9416,note_on,2,0,0,,7,,,43,127
9416,note_on,0,0,0,,12,,,71,127
9619,note_off,203,0,0,,7,,,43,127
9637,note_on,18,0,0,,7,,,67,127
9840,note_off,203,0,0,,7,,,67,127
9856,note_off,16,0,0,,12,,,71,127
9858,note_on,2,0,0,,7,,,43,127
9858,note_on,0,0,0,,7,,,79,127
9930,note_off,72,0,0,,7,,,79,127
9932,note_on,2,0,0,,6,,,78,127
10004,note_off,72,0,0,,6,,,78,127
10006,note_on,2,0,0,,7,,,79,127
10061,note_off,55,0,0,,7,,,43,127
10077,note_off,16,0,0,,7,,,79,127
10079,note_on,2,0,0,,0,,,48,127
10079,note_on,0,0,0,,4,,,76,127
10282,note_off,203,0,0,,0,,,48,127
10300,note_on,18,0,0,,0,,,72,127
10503,note_off,203,0,0,,0,,,72,127
10519,note_off,16,0,0,,4,,,76,127
10521,note_on,2,0,0,,0,,,48,127
10521,note_on,0,0,0,,10,,,81,127
10521,note_on,0,0,0,,7,,,79,127
10593,note_off,72,0,0,,7,,,79,127
10593,note_off,0,0,0,,10,,,81,127
10595,note_on,2,0,0,,6,,,78,127
10667,note_off,72,0,0,,6,,,78,127
10669,note_on,2,0,0,,7,,,79,127
10724,note_off,55,0,0,,0,,,48,127
10740,note_off,16,0,0,,7,,,79,127
10742,note_on,2,0,0,,12,,,47,127
10742,note_on,0,0,0,,2,,,74,127
10945,note_off,203,0,0,,12,,,47,127
10963,note_on,18,0,0,,12,,,71,127
11166,note_off,203,0,0,,12,,,71,127
11182,note_off,16,0,0,,2,,,74,127
11184,note_on,2,0,0,,12,,,47,127
11184,note_on,0,0,0,,7,,,79,127
11256,note_off,72,0,0,,7,,,79,127
11258,note_on,2,0,0,,6,,,78,127
11330,note_off,72,0,0,,6,,,78,127
11332,note_on,2,0,0,,7,,,79,127
11387,note_off,55,0,0,,12,,,47,127
11403,note_off,16,0,0,,7,,,79,127
11405,note_on,2,0,0,,10,,,45,127
11405,note_on,0,0,0,,0,,,72,127
11608,note_off,203,0,0,,10,,,45,127
11626,note_on,18,0,0,,10,,,69,127
11829,note_off,203,0,0,,10,,,69,127
11845,note_off,16,0,0,,0,,,72,127
11847,note_on,2,0,0,,10,,,45,127
11847,note_on,0,0,0,,7,,,79,127
11919,note_off,72,0,0,,7,,,79,127
11921,note_on,2,0,0,,6,,,78,127
11993,note_off,72,0,0,,6,,,78,127
11995,note_on,2,0,0,,7,,,79,127
12050,note_off,55,0,0,,10,,,45,127
12066,note_off,16,0,0,,7,,,79,127
12068,note_on,2,0,0,,7,,,43,127
12068,note_on,0,0,0,,12,,,71,127
12271,note_off,203,0,0,,7,,,43,127
12289,note_on,18,0,0,,7,,,67,127
12492,note_off,203,0,0,,7,,,67,127
12508,note_off,16,0,0,,12,,,71,127
12510,note_on,2,0,0,,7,,,43,127
12510,note_on,0,0,0,,7,,,79,127
12582,note_off,72,0,0,,7,,,79,127
12584,note_on,2,0,0,,6,,,78,127
12656,note_off,72,0,0,,6,,,78,127
12658,note_on,2,0,0,,7,,,79,127
12713,note_off,55,0,0,,7,,,43,127
12729,note_off,16,0,0,,7,,,79,127
12731,note_on,2,0,0,,0,,,36,127
12731,note_on,0,0,0,,4,,,76,127
12803,note_off,72,0,0,,4,,,76,127
12805,note_on,2,0,0,,7,,,79,127
12877,note_off,72,0,0,,7,,,79,127
12879,note_on,2,0,0,,6,,,78,127
12951,note_off,72,0,0,,6,,,78,127
12953,note_on,2,0,0,,4,,,76,127
13025,note_off,72,0,0,,4,,,76,127
13027,note_on,2,0,0,,2,,,74,127
13099,note_off,72,0,0,,2,,,74,127
13101,note_on,2,0,0,,0,,,72,127
13168,note_off,67,0,0,,0,,,36,127
13173,note_off,5,0,0,,0,,,72,127
13175,note_on,2,0,0,,0,,,48,127
13175,note_on,0,0,0,,12,,,71,127
13247,note_off,72,0,0,,12,,,71,127
13249,note_on,2,0,0,,10,,,69,127
13321,note_off,72,0,0,,10,,,69,127
13323,note_on,2,0,0,,7,,,67,127
13390,note_off,67,0,0,,0,,,48,127
13395,note_off,5,0,0,,7,,,67,127
13397,note_on,2,0,0,,2,,,50,127
13397,note_on,0,0,0,,7,,,67,127
13450,note_off,53,0,0,,7,,,67,127
13452,note_on,2,0,0,,6,,,66,127
13505,note_off,53,0,0,,6,,,66,127
13507,note_on,2,0,0,,7,,,67,127
13560,note_off,53,0,0,,7,,,67,127
13562,note_on,2,0,0,,6,,,66,127
13610,note_off,48,0,0,,2,,,50,127
13617,note_on,7,0,0,,2,,,38,127
13725,note_off,108,0,0,,6,,,66,127
13727,note_on,2,0,0,,4,,,64,127
13835,note_off,108,0,0,,4,,,64,127
13837,note_on,2,0,0,,2,,,62,127
14052,note_off,215,0,0,,2,,,38,127
14057,note_off,5,0,0,,2,,,62,127
14078,note_on,21,0,0,,7,,,31,127
14293,note_off,215,0,0,,7,,,31,127
14300,note_on,7,0,0,,12,,,71,127
14300,note_on,0,0,0,,7,,,67,127
14372,note_off,72,0,0,,12,,,71,127
14374,note_on,2,0,0,,10,,,69,127
14446,note_off,72,0,0,,10,,,69,127
14448,note_on,2,0,0,,12,,,71,127
14515,note_off,67,0,0,,7,,,67,127
14520,note_off,5,0,0,,12,,,71,127
14522,note_on,2,0,0,,0,,,72,127
14522,note_on,0,0,0,,10,,,69,127
14594,note_off,72,0,0,,0,,,72,127
14596,note_on,2,0,0,,12,,,71,127
14668,note_off,72,0,0,,12,,,71,127
14670,note_on,2,0,0,,0,,,72,127
14737,note_off,67,0,0,,10,,,69,127
14742,note_off,5,0,0,,0,,,72,127
14744,note_on,2,0,0,,2,,,74,127
14744,note_on,0,0,0,,12,,,71,127
14816,note_off,72,0,0,,2,,,74,127
14818,note_on,2,0,0,,0,,,72,127
14890,note_off,72,0,0,,0,,,72,127
14892,note_on,2,0,0,,2,,,74,127
14959,note_off,67,0,0,,12,,,71,127
14964,note_off,5,0,0,,2,,,74,127
14966,note_on,2,0,0,,4,,,76,127
14966,note_on,0,0,0,,0,,,72,127
15038,note_off,72,0,0,,4,,,76,127
15040,note_on,2,0,0,,2,,,74,127
15112,note_off,72,0,0,,2,,,74,127
15114,note_on,2,0,0,,4,,,76,127
15181,note_off,67,0,0,,0,,,72,127
15186,note_off,5,0,0,,4,,,76,127
15188,note_on,2,0,0,,6,,,78,127
15188,note_on,0,0,0,,2,,,74,127
15260,note_off,72,0,0,,6,,,78,127
15262,note_on,2,0,0,,4,,,76,127
15334,note_off,72,0,0,,4,,,76,127
15336,note_on,2,0,0,,6,,,78,127
15408,note_off,72,0,0,,6,,,78,127
15410,note_on,2,0,0,,7,,,79,127
15410,note_on,0,0,0,,10,,,81,127
15482,note_off,72,0,0,,10,,,81,127
15482,note_off,0,0,0,,7,,,79,127
15484,note_on,2,0,0,,6,,,78,127
15556,note_off,72,0,0,,6,,,78,127
15558,note_on,2,0,0,,7,,,79,127
15625,note_off,67,0,0,,2,,,74,127
15632,note_on,7,0,0,,7,,,67,127
15699,note_off,67,0,0,,7,,,67,127
15706,note_on,7,0,0,,6,,,66,127
15773,note_off,67,0,0,,6,,,66,127
15780,note_on,7,0,0,,7,,,67,127
15801,note_off,21,0,0,,7,,,79,127
15854,note_on,53,0,0,,7,,,55,127
15921,note_off,67,0,0,,7,,,55,127
15928,note_on,7,0,0,,6,,,54,127
15995,note_off,67,0,0,,6,,,54,127
16002,note_on,7,0,0,,7,,,55,127
16023,note_off,21,0,0,,7,,,67,127
16076,note_on,53,0,0,,7,,,31,127
16244,note_off,168,0,0,,7,,,55,127
16290,note_off,46,0,0,,7,,,31,127
16315,note_on,25,0,0,,7,,,67,127
16315,note_on,0,0,0,,12,,,71,127
16387,note_off,72,0,0,,12,,,71,127
16389,note_on,2,0,0,,10,,,69,127
16461,note_off,72,0,0,,10,,,69,127
16463,note_on,2,0,0,,12,,,71,127
16530,note_off,67,0,0,,7,,,67,127
16535,note_off,5,0,0,,12,,,71,127
16537,note_on,2,0,0,,10,,,69,127
16537,note_on,0,0,0,,0,,,72,127
16609,note_off,72,0,0,,0,,,72,127
16611,note_on,2,0,0,,12,,,71,127
16683,note_off,72,0,0,,12,,,71,127
16685,note_on,2,0,0,,0,,,72,127
16752,note_off,67,0,0,,10,,,69,127
16757,note_off,5,0,0,,0,,,72,127
16759,note_on,2,0,0,,12,,,71,127
16759,note_on,0,0,0,,2,,,74,127
16831,note_off,72,0,0,,2,,,74,127
16833,note_on,2,0,0,,0,,,72,127
16905,note_off,72,0,0,,0,,,72,127
16907,note_on,2,0,0,,2,,,74,127
16974,note_off,67,0,0,,12,,,71,127
16979,note_off,5,0,0,,2,,,74,127
16981,note_on,2,0,0,,0,,,72,127
16981,note_on,0,0,0,,4,,,76,127
17053,note_off,72,0,0,,4,,,76,127
17055,note_on,2,0,0,,2,,,74,127
17127,note_off,72,0,0,,2,,,74,127
17129,note_on,2,0,0,,4,,,76,127
17196,note_off,67,0,0,,0,,,72,127
17201,note_off,5,0,0,,4,,,76,127
17203,note_on,2,0,0,,2,,,74,127
17203,note_on,0,0,0,,6,,,78,127
17275,note_off,72,0,0,,6,,,78,127
17277,note_on,2,0,0,,4,,,76,127
17349,note_off,72,0,0,,4,,,76,127
17351,note_on,2,0,0,,6,,,78,127
17423,note_off,72,0,0,,6,,,78,127
17425,note_on,2,0,0,,10,,,81,127
17425,note_on,0,0,0,,7,,,79,127
17497,note_off,72,0,0,,7,,,79,127
17497,note_off,0,0,0,,10,,,81,127
17499,note_on,2,0,0,,6,,,78,127
17571,note_off,72,0,0,,6,,,78,127
17573,note_on,2,0,0,,7,,,79,127
17640,note_off,67,0,0,,2,,,74,127
17647,note_on,7,0,0,,7,,,67,127
17714,note_off,67,0,0,,7,,,67,127
17721,note_on,7,0,0,,6,,,66,127
17788,note_off,67,0,0,,6,,,66,127
17795,note_on,7,0,0,,7,,,67,127
17816,note_off,21,0,0,,7,,,79,127
17869,note_on,53,0,0,,7,,,55,127
17936,note_off,67,0,0,,7,,,55,127
17943,note_on,7,0,0,,6,,,54,127
18010,note_off,67,0,0,,6,,,54,127
18017,note_on,7,0,0,,7,,,55,127
18038,note_off,21,0,0,,7,,,67,127
18091,note_on,53,0,0,,7,,,31,127
18259,note_off,168,0,0,,7,,,55,127
18312,note_on,53,0,0,,7,,,79,127
18529,note_off,217,0,0,,7,,,31,127
18531,note_off,2,0,0,,7,,,79,127
18533,note_on,2,0,0,,6,,,78,127
18533,note_on,0,0,0,,7,,,79,127
18752,note_off,219,0,0,,7,,,79,127
18752,note_off,0,0,0,,6,,,78,127
18754,note_on,2,0,0,,4,,,76,127
18754,note_on,0,0,0,,7,,,79,127
18973,note_off,219,0,0,,7,,,79,127
18973,note_off,0,0,0,,4,,,76,127
18975,note_on,2,0,0,,6,,,54,127
18975,note_on,0,0,0,,2,,,74,127
18975,note_on,0,0,0,,10,,,81,127
19190,note_off,215,0,0,,6,,,54,127
19195,note_off,5,0,0,,2,,,74,127
19197,note_on,2,0,0,,2,,,50,127
19197,note_on,0,0,0,,0,,,72,127
19412,note_off,215,0,0,,2,,,50,127
19414,note_off,2,0,0,,10,,,81,127
19416,note_off,2,0,0,,0,,,72,127
19418,note_on,2,0,0,,7,,,55,127
19418,note_on,0,0,0,,12,,,71,127
19418,note_on,0,0,0,,12,,,83,127
19490,note_off,72,0,0,,12,,,83,127
19490,note_off,0,0,0,,12,,,71,127
19492,note_on,2,0,0,,10,,,81,127
19564,note_off,72,0,0,,10,,,81,127
19566,note_on,2,0,0,,7,,,79,127
19633,note_off,67,0,0,,7,,,55,127
19638,note_off,5,0,0,,7,,,79,127
19640,note_on,2,0,0,,10,,,57,127
19640,note_on,0,0,0,,6,,,78,127
19712,note_off,72,0,0,,6,,,78,127
19714,note_on,2,0,0,,4,,,76,127
19786,note_off,72,0,0,,4,,,76,127
19788,note_on,2,0,0,,2,,,74,127
19855,note_off,67,0,0,,10,,,57,127
19860,note_off,5,0,0,,2,,,74,127
19862,note_on,2,0,0,,12,,,59,127
19862,note_on,0,0,0,,7,,,79,127
20077,note_off,215,0,0,,12,,,59,127
20082,note_off,5,0,0,,7,,,79,127
20084,note_on,2,0,0,,0,,,60,127
20084,note_on,0,0,0,,2,,,74,127
20084,note_on,0,0,0,,0,,,72,127
20156,note_off,72,0,0,,0,,,72,127
20156,note_off,0,0,0,,2,,,74,127
20158,note_on,2,0,0,,12,,,71,127
20230,note_off,72,0,0,,12,,,71,127
20232,note_on,2,0,0,,10,,,69,127
20299,note_off,67,0,0,,0,,,60,127
20304,note_off,5,0,0,,10,,,69,127
20306,note_on,2,0,0,,2,,,62,127
20306,note_on,0,0,0,,7,,,67,127
20306,note_on,0,0,0,,12,,,71,127
20521,note_off,215,0,0,,2,,,62,127
20526,note_off,5,0,0,,12,,,71,127
20526,note_off,0,0,0,,7,,,67,127
20528,note_on,2,0,0,,2,,,50,127
20528,note_on,0,0,0,,6,,,66,127
20528,note_on,0,0,0,,10,,,69,127
20743,note_off,215,0,0,,2,,,50,127
20748,note_off,5,0,0,,10,,,69,127
20748,note_off,0,0,0,,6,,,66,127
20750,note_on,2,0,0,,7,,,43,127
20750,note_on,0,0,0,,7,,,67,127
20969,note_off,219,0,0,,7,,,67,127
20971,note_on,2,0,0,,7,,,79,127
20992,note_off,21,0,0,,7,,,43,127
21043,note_off,51,0,0,,7,,,79,127
21045,note_on,2,0,0,,6,,,78,127
21117,note_off,72,0,0,,6,,,78,127
21119,note_on,2,0,0,,7,,,79,127
21193,note_on,74,0,0,,7,,,67,127
21265,note_off,72,0,0,,7,,,67,127
21267,note_on,2,0,0,,6,,,66,127
21339,note_off,72,0,0,,6,,,66,127
21341,note_on,2,0,0,,7,,,67,127
21362,note_off,21,0,0,,7,,,79,127
21415,note_on,53,0,0,,7,,,31,127
21634,note_off,219,0,0,,7,,,31,127
21634,note_off,0,0,0,,7,,,67,127
21636,note_on,2,0,0,,7,,,79,127
21708,note_off,72,0,0,,7,,,79,127
21710,note_on,2,0,0,,6,,,78,127
21782,note_off,72,0,0,,6,,,78,127
21784,note_on,2,0,0,,7,,,79,127
21858,note_on,74,0,0,,7,,,67,127
21930,note_off,72,0,0,,7,,,67,127
21932,note_on,2,0,0,,6,,,66,127
22004,note_off,72,0,0,,6,,,66,127
22006,note_on,2,0,0,,7,,,67,127
22027,note_off,21,0,0,,7,,,79,127
22080,note_on,53,0,0,,7,,,31,127
22248,note_off,168,0,0,,7,,,67,127
22320,note_on,72,0,0,,7,,,79,127
22518,note_off,198,0,0,,7,,,31,127
22539,note_off,21,0,0,,7,,,79,127
22541,note_on,2,0,0,,6,,,78,127
22541,note_on,0,0,0,,7,,,79,127
22760,note_off,219,0,0,,7,,,79,127
22760,note_off,0,0,0,,6,,,78,127
22762,note_on,2,0,0,,7,,,79,127
22762,note_on,0,0,0,,4,,,76,127
22981,note_off,219,0,0,,4,,,76,127
22981,note_off,0,0,0,,7,,,79,127
22983,note_on,2,0,0,,2,,,74,127
22983,note_on,0,0,0,,10,,,81,127
22983,note_on,0,0,0,,6,,,54,127
23198,note_off,215,0,0,,6,,,54,127
23203,note_off,5,0,0,,2,,,74,127
23205,note_on,2,0,0,,0,,,72,127
23205,note_on,0,0,0,,2,,,50,127
23420,note_off,215,0,0,,2,,,50,127
23422,note_off,2,0,0,,10,,,81,127
23424,note_off,2,0,0,,0,,,72,127
23426,note_on,2,0,0,,12,,,71,127
23426,note_on,0,0,0,,12,,,83,127
23426,note_on,0,0,0,,7,,,55,127
23498,note_off,72,0,0,,12,,,83,127
23498,note_off,0,0,0,,12,,,71,127
23500,note_on,2,0,0,,10,,,81,127
23572,note_off,72,0,0,,10,,,81,127
23574,note_on,2,0,0,,7,,,79,127
23641,note_off,67,0,0,,7,,,55,127
23646,note_off,5,0,0,,7,,,79,127
23648,note_on,2,0,0,,6,,,78,127
23648,note_on,0,0,0,,10,,,57,127
23720,note_off,72,0,0,,6,,,78,127
23722,note_on,2,0,0,,4,,,76,127
23794,note_off,72,0,0,,4,,,76,127
23796,note_on,2,0,0,,2,,,74,127
23863,note_off,67,0,0,,10,,,57,127
23868,note_off,5,0,0,,2,,,74,127
23870,note_on,2,0,0,,7,,,79,127
23870,note_on,0,0,0,,12,,,59,127
24085,note_off,215,0,0,,12,,,59,127
24090,note_off,5,0,0,,7,,,79,127
24092,note_on,2,0,0,,0,,,72,127
24092,note_on,0,0,0,,2,,,74,127
24092,note_on,0,0,0,,0,,,60,127
24164,note_off,72,0,0,,2,,,74,127
24164,note_off,0,0,0,,0,,,72,127
24166,note_on,2,0,0,,12,,,71,127
24238,note_off,72,0,0,,12,,,71,127
24240,note_on,2,0,0,,10,,,69,127
24307,note_off,67,0,0,,0,,,60,127
24312,note_off,5,0,0,,10,,,69,127
24314,note_on,2,0,0,,7,,,67,127
24314,note_on,0,0,0,,12,,,71,127
24314,note_on,0,0,0,,2,,,62,127
24529,note_off,215,0,0,,2,,,62,127
24534,note_off,5,0,0,,12,,,71,127
24534,note_off,0,0,0,,7,,,67,127
24536,note_on,2,0,0,,6,,,66,127
24536,note_on,0,0,0,,10,,,69,127
24536,note_on,0,0,0,,2,,,50,127
24751,note_off,215,0,0,,2,,,50,127
24756,note_off,5,0,0,,10,,,69,127
24756,note_off,0,0,0,,6,,,66,127
24758,note_on,2,0,0,,7,,,67,127
24758,note_on,0,0,0,,7,,,55,127
24830,note_off,72,0,0,,7,,,67,127
24832,note_on,2,0,0,,2,,,74,127
24904,note_off,72,0,0,,2,,,74,127
24906,note_on,2,0,0,,0,,,72,127
24978,note_off,72,0,0,,0,,,72,127
24980,note_on,2,0,0,,12,,,71,127
25052,note_off,72,0,0,,12,,,71,127
25054,note_on,2,0,0,,10,,,69,127
25126,note_off,72,0,0,,10,,,69,127
25128,note_on,2,0,0,,7,,,67,127
25151,note_off,23,0,0,,7,,,55,127
25199,note_off,48,0,0,,7,,,67,127
25201,note_on,2,0,0,,10,,,69,127
25201,note_on,0,0,0,,2,,,50,127
25273,note_off,72,0,0,,10,,,69,127
25275,note_on,2,0,0,,12,,,71,127
25347,note_off,72,0,0,,12,,,71,127
25349,note_on,2,0,0,,0,,,72,127
25416,note_off,67,0,0,,2,,,50,127
25421,note_off,5,0,0,,0,,,72,127
25423,note_on,2,0,0,,12,,,71,127
25423,note_on,0,0,0,,7,,,43,127
25495,note_off,72,0,0,,12,,,71,127
25497,note_on,2,0,0,,2,,,74,127
25569,note_off,72,0,0,,2,,,74,127
25571,note_on,2,0,0,,0,,,72,127
25643,note_off,72,0,0,,0,,,72,127
25645,note_on,2,0,0,,12,,,71,127
25717,note_off,72,0,0,,12,,,71,127
25719,note_on,2,0,0,,10,,,69,127
25791,note_off,72,0,0,,10,,,69,127
25793,note_on,2,0,0,,7,,,67,127
25860,note_off,67,0,0,,7,,,43,127
25865,note_off,5,0,0,,7,,,67,127
25867,note_on,2,0,0,,10,,,69,127
25867,note_on,0,0,0,,2,,,38,127
25939,note_off,72,0,0,,10,,,69,127
25941,note_on,2,0,0,,12,,,71,127
26013,note_off,72,0,0,,12,,,71,127
26015,note_on,2,0,0,,0,,,72,127
26082,note_off,67,0,0,,2,,,38,127
26087,note_off,5,0,0,,0,,,72,127
26089,note_on,2,0,0,,12,,,71,127
26089,note_on,0,0,0,,7,,,31,127
26161,note_off,72,0,0,,12,,,71,127
26163,note_on,2,0,0,,2,,,74,127
26235,note_off,72,0,0,,2,,,74,127
26237,note_on,2,0,0,,0,,,72,127
26309,note_off,72,0,0,,0,,,72,127
26311,note_on,2,0,0,,12,,,71,127
26383,note_off,72,0,0,,12,,,71,127
26385,note_on,2,0,0,,10,,,69,127
26457,note_off,72,0,0,,10,,,69,127
26459,note_on,2,0,0,,7,,,67,127
26526,note_off,67,0,0,,7,,,31,127
26531,note_off,5,0,0,,7,,,67,127
26533,note_on,2,0,0,,6,,,66,127
26533,note_on,0,0,0,,2,,,50,127
26605,note_off,72,0,0,,6,,,66,127
26607,note_on,2,0,0,,4,,,64,127
26679,note_off,72,0,0,,4,,,64,127
26681,note_on,2,0,0,,2,,,62,127
26748,note_off,67,0,0,,2,,,50,127
26753,note_off,5,0,0,,2,,,62,127
26755,note_on,2,0,0,,0,,,72,127
26755,note_on,0,0,0,,0,,,48,127
26827,note_off,72,0,0,,0,,,72,127
26829,note_on,2,0,0,,12,,,71,127
26901,note_off,72,0,0,,12,,,71,127
26903,note_on,2,0,0,,10,,,69,127
26970,note_off,67,0,0,,0,,,48,127
26975,note_off,5,0,0,,10,,,69,127
26977,note_on,2,0,0,,7,,,67,127
26977,note_on,0,0,0,,12,,,71,127
26977,note_on,0,0,0,,2,,,50,127
27192,note_off,215,0,0,,2,,,50,127
27197,note_off,5,0,0,,12,,,71,127
27197,note_off,0,0,0,,7,,,67,127
27199,note_on,2,0,0,,10,,,69,127
27199,note_on,0,0,0,,6,,,66,127
27199,note_on,0,0,0,,2,,,38,127
27414,note_off,215,0,0,,2,,,38,127
27419,note_off,5,0,0,,6,,,66,127
27419,note_off,0,0,0,,10,,,69,127
27421,note_on,2,0,0,,7,,,67,127
27421,note_on,0,0,0,,7,,,55,127
27493,note_off,72,0,0,,7,,,67,127
27495,note_on,2,0,0,,2,,,74,127
27567,note_off,72,0,0,,2,,,74,127
27569,note_on,2,0,0,,0,,,72,127
27641,note_off,72,0,0,,0,,,72,127
27643,note_on,2,0,0,,12,,,71,127
27715,note_off,72,0,0,,12,,,71,127
27717,note_on,2,0,0,,10,,,69,127
27789,note_off,72,0,0,,10,,,69,127
27791,note_on,2,0,0,,7,,,67,127
27814,note_off,23,0,0,,7,,,55,127
27862,note_off,48,0,0,,7,,,67,127
27864,note_on,2,0,0,,10,,,69,127
27864,note_on,0,0,0,,2,,,50,127
27936,note_off,72,0,0,,10,,,69,127
27938,note_on,2,0,0,,12,,,71,127
28010,note_off,72,0,0,,12,,,71,127
28012,note_on,2,0,0,,0,,,72,127
28079,note_off,67,0,0,,2,,,50,127
28084,note_off,5,0,0,,0,,,72,127
28086,note_on,2,0,0,,12,,,71,127
28086,note_on,0,0,0,,7,,,43,127
28158,note_off,72,0,0,,12,,,71,127
28160,note_on,2,0,0,,2,,,74,127
28232,note_off,72,0,0,,2,,,74,127
28234,note_on,2,0,0,,0,,,72,127
28306,note_off,72,0,0,,0,,,72,127
28308,note_on,2,0,0,,12,,,71,127
28380,note_off,72,0,0,,12,,,71,127
28382,note_on,2,0,0,,10,,,69,127
28454,note_off,72,0,0,,10,,,69,127
28456,note_on,2,0,0,,7,,,67,127
28523,note_off,67,0,0,,7,,,43,127
28528,note_off,5,0,0,,7,,,67,127
28530,note_on,2,0,0,,10,,,69,127
28530,note_on,0,0,0,,2,,,38,127
28602,note_off,72,0,0,,10,,,69,127
28604,note_on,2,0,0,,12,,,71,127
28676,note_off,72,0,0,,12,,,71,127
28678,note_on,2,0,0,,0,,,72,127
28745,note_off,67,0,0,,2,,,38,127
28750,note_off,5,0,0,,0,,,72,127
28752,note_on,2,0,0,,12,,,71,127
28752,note_on,0,0,0,,7,,,31,127
28824,note_off,72,0,0,,12,,,71,127
28826,note_on,2,0,0,,2,,,74,127
28898,note_off,72,0,0,,2,,,74,127
28900,note_on,2,0,0,,0,,,72,127
28972,note_off,72,0,0,,0,,,72,127
28974,note_on,2,0,0,,12,,,71,127
29046,note_off,72,0,0,,12,,,71,127
29048,note_on,2,0,0,,10,,,69,127
29120,note_off,72,0,0,,10,,,69,127
29122,note_on,2,0,0,,7,,,67,127
29189,note_off,67,0,0,,7,,,31,127
29194,note_off,5,0,0,,7,,,67,127
29196,note_on,2,0,0,,6,,,66,127
29196,note_on,0,0,0,,2,,,50,127
29268,note_off,72,0,0,,6,,,66,127
29270,note_on,2,0,0,,4,,,64,127
29342,note_off,72,0,0,,4,,,64,127
29344,note_on,2,0,0,,2,,,62,127
29411,note_off,67,0,0,,2,,,50,127
29416,note_off,5,0,0,,2,,,62,127
29418,note_on,2,0,0,,0,,,72,127
29418,note_on,0,0,0,,0,,,48,127
29490,note_off,72,0,0,,0,,,72,127
29492,note_on,2,0,0,,12,,,71,127
29564,note_off,72,0,0,,12,,,71,127
29566,note_on,2,0,0,,10,,,69,127
29633,note_off,67,0,0,,0,,,48,127
29638,note_off,5,0,0,,10,,,69,127
29640,note_on,2,0,0,,7,,,67,127
29640,note_on,0,0,0,,12,,,71,127
29640,note_on,0,0,0,,2,,,50,127
29855,note_off,215,0,0,,2,,,50,127
29860,note_off,5,0,0,,12,,,71,127
29860,note_off,0,0,0,,7,,,67,127
29862,note_on,2,0,0,,6,,,66,127
29862,note_on,0,0,0,,10,,,69,127
29862,note_on,0,0,0,,2,,,38,127
30077,note_off,215,0,0,,2,,,38,127
30082,note_off,5,0,0,,10,,,69,127
30082,note_off,0,0,0,,6,,,66,127
30084,note_on,2,0,0,,10,,,69,127
30084,note_on,0,0,0,,7,,,31,127
30137,note_off,53,0,0,,10,,,69,127
30139,note_on,2,0,0,,7,,,67,127
30192,note_off,53,0,0,,7,,,67,127
30194,note_on,2,0,0,,10,,,69,127
30247,note_off,53,0,0,,10,,,69,127
30249,note_on,2,0,0,,7,,,67,127
30741,note_off,492,0,0,,7,,,31,127
30757,note_off,16,0,0,,7,,,67,127
30775,note_on,18,0,0,,7,,,67,127
30990,note_off,215,0,0,,7,,,67,127
30997,note_on,7,0,0,,4,,,64,127
31212,note_off,215,0,0,,4,,,64,127
31219,note_on,7,0,0,,1,,,61,127
31434,note_off,215,0,0,,1,,,61,127
31441,note_on,7,0,0,,11,,,58,127
31656,note_off,215,0,0,,11,,,58,127
31663,note_on,7,0,0,,7,,,55,127
31878,note_off,215,0,0,,7,,,55,127
31885,note_on,7,0,0,,4,,,52,127
32100,note_off,215,0,0,,4,,,52,127
32107,note_on,7,0,0,,1,,,49,127
32322,note_off,215,0,0,,1,,,49,127
32329,note_on,7,0,0,,10,,,45,127
32329,note_on,0,0,0,,10,,,81,127
32401,note_off,72,0,0,,10,,,81,127
32403,note_on,2,0,0,,7,,,79,127
32475,note_off,72,0,0,,7,,,79,127
32477,note_on,2,0,0,,5,,,77,127
32544,note_off,67,0,0,,10,,,45,127
32549,note_off,5,0,0,,5,,,77,127
32551,note_on,2,0,0,,10,,,33,127
32551,note_on,0,0,0,,7,,,79,127
32623,note_off,72,0,0,,7,,,79,127
32625,note_on,2,0,0,,5,,,77,127
32697,note_off,72,0,0,,5,,,77,127
32699,note_on,2,0,0,,4,,,76,127
32766,note_off,67,0,0,,10,,,33,127
32771,note_off,5,0,0,,4,,,76,127
32773,note_on,2,0,0,,2,,,38,127
32773,note_on,0,0,0,,7,,,79,127
32826,note_off,53,0,0,,7,,,79,127
32828,note_on,2,0,0,,5,,,77,127
32881,note_off,53,0,0,,5,,,77,127
32883,note_on,2,0,0,,7,,,79,127
32936,note_off,53,0,0,,7,,,79,127
32938,note_on,2,0,0,,5,,,77,127
32991,note_off,53,0,0,,5,,,77,127
32993,note_on,2,0,0,,4,,,76,127
33212,note_off,219,0,0,,4,,,76,127
33214,note_on,2,0,0,,2,,,74,127
33445,note_off,231,0,0,,2,,,74,127
33454,note_on,9,0,0,,2,,,74,127
33463,note_off,9,0,0,,2,,,38,127
33668,note_off,205,0,0,,2,,,74,127
33675,note_on,7,0,0,,11,,,70,127
33890,note_off,215,0,0,,11,,,70,127
33897,note_on,7,0,0,,7,,,67,127
34112,note_off,215,0,0,,7,,,67,127
34119,note_on,7,0,0,,4,,,64,127
34334,note_off,215,0,0,,4,,,64,127
34341,note_on,7,0,0,,11,,,58,127
34556,note_off,215,0,0,,11,,,58,127
34563,note_on,7,0,0,,7,,,55,127
34778,note_off,215,0,0,,7,,,55,127
34785,note_on,7,0,0,,4,,,52,127
35000,note_off,215,0,0,,4,,,52,127
35007,note_on,7,0,0,,0,,,84,127
35007,note_on,0,0,0,,0,,,48,127
35079,note_off,72,0,0,,0,,,84,127
35081,note_on,2,0,0,,11,,,82,127
35153,note_off,72,0,0,,11,,,82,127
35155,note_on,2,0,0,,10,,,81,127
35222,note_off,67,0,0,,0,,,48,127
35227,note_off,5,0,0,,10,,,81,127
35229,note_on,2,0,0,,11,,,82,127
35229,note_on,0,0,0,,0,,,36,127
35301,note_off,72,0,0,,11,,,82,127
35303,note_on,2,0,0,,10,,,81,127
35375,note_off,72,0,0,,10,,,81,127
35377,note_on,2,0,0,,7,,,79,127
35444,note_off,67,0,0,,0,,,36,127
35449,note_off,5,0,0,,7,,,79,127
35451,note_on,2,0,0,,11,,,82,127
35451,note_on,0,0,0,,5,,,41,127
35504,note_off,53,0,0,,11,,,82,127
35506,note_on,2,0,0,,10,,,81,127
35559,note_off,53,0,0,,10,,,81,127
35561,note_on,2,0,0,,11,,,82,127
35614,note_off,53,0,0,,11,,,82,127
35616,note_on,2,0,0,,10,,,81,127
35669,note_off,53,0,0,,10,,,81,127
35671,note_on,2,0,0,,7,,,79,127
35890,note_off,219,0,0,,7,,,79,127
35892,note_on,2,0,0,,5,,,77,127
36141,note_off,249,0,0,,5,,,41,127
36150,note_on,9,0,0,,5,,,53,127
36213,note_off,63,0,0,,5,,,77,127
36353,note_off,140,0,0,,5,,,53,127
36371,note_on,18,0,0,,5,,,77,127
36574,note_off,203,0,0,,5,,,77,127
36592,note_on,18,0,0,,2,,,86,127
36592,note_on,0,0,0,,0,,,84,127
36592,note_on,0,0,0,,5,,,53,127
36664,note_off,72,0,0,,0,,,84,127
36664,note_off,0,0,0,,2,,,86,127
36666,note_on,2,0,0,,12,,,83,127
36738,note_off,72,0,0,,12,,,83,127
36740,note_on,2,0,0,,0,,,84,127
36795,note_off,55,0,0,,5,,,53,127
36811,note_off,16,0,0,,0,,,84,127
36813,note_on,2,0,0,,7,,,79,127
36813,note_on,0,0,0,,4,,,52,127
37016,note_off,203,0,0,,4,,,52,127
37034,note_on,18,0,0,,4,,,76,127
37237,note_off,203,0,0,,4,,,76,127
37253,note_off,16,0,0,,7,,,79,127
37255,note_on,2,0,0,,0,,,84,127
37255,note_on,0,0,0,,4,,,52,127
37327,note_off,72,0,0,,0,,,84,127
37329,note_on,2,0,0,,12,,,83,127
37401,note_off,72,0,0,,12,,,83,127
37403,note_on,2,0,0,,0,,,84,127
37458,note_off,55,0,0,,4,,,52,127
37474,note_off,16,0,0,,0,,,84,127
37476,note_on,2,0,0,,5,,,77,127
37476,note_on,0,0,0,,2,,,50,127
37679,note_off,203,0,0,,2,,,50,127
37697,note_on,18,0,0,,2,,,74,127
37900,note_off,203,0,0,,2,,,74,127
37916,note_off,16,0,0,,5,,,77,127
37918,note_on,2,0,0,,0,,,84,127
37918,note_on,0,0,0,,2,,,50,127
37990,note_off,72,0,0,,0,,,84,127
37992,note_on,2,0,0,,12,,,83,127
38064,note_off,72,0,0,,12,,,83,127
38066,note_on,2,0,0,,0,,,84,127
38121,note_off,55,0,0,,2,,,50,127
38137,note_off,16,0,0,,0,,,84,127
38139,note_on,2,0,0,,4,,,76,127
38139,note_on,0,0,0,,0,,,48,127
38342,note_off,203,0,0,,0,,,48,127
38360,note_on,18,0,0,,0,,,72,127
38563,note_off,203,0,0,,0,,,72,127
38579,note_off,16,0,0,,4,,,76,127
38581,note_on,2,0,0,,0,,,84,127
38581,note_on,0,0,0,,0,,,48,127
38653,note_off,72,0,0,,0,,,84,127
38655,note_on,2,0,0,,12,,,83,127
38727,note_off,72,0,0,,12,,,83,127
38729,note_on,2,0,0,,0,,,84,127
38784,note_off,55,0,0,,0,,,48,127
38800,note_off,16,0,0,,0,,,84,127
38812,note_on,12,0,0,,10,,,81,127
38812,note_on,0,0,0,,5,,,41,127
39015,note_off,203,0,0,,5,,,41,127
39033,note_on,18,0,0,,5,,,77,127
39236,note_off,203,0,0,,5,,,77,127
39252,note_off,16,0,0,,10,,,81,127
39254,note_on,2,0,0,,2,,,86,127
39254,note_on,0,0,0,,0,,,84,127
39254,note_on,0,0,0,,5,,,41,127
39326,note_off,72,0,0,,0,,,84,127
39326,note_off,0,0,0,,2,,,86,127
39328,note_on,2,0,0,,12,,,83,127
39400,note_off,72,0,0,,12,,,83,127
39402,note_on,2,0,0,,0,,,84,127
39457,note_off,55,0,0,,5,,,41,127
39473,note_off,16,0,0,,0,,,84,127
39475,note_on,2,0,0,,7,,,79,127
39475,note_on,0,0,0,,4,,,40,127
39678,note_off,203,0,0,,4,,,40,127
39696,note_on,18,0,0,,4,,,76,127
39899,note_off,203,0,0,,4,,,76,127
39915,note_off,16,0,0,,7,,,79,127
39917,note_on,2,0,0,,0,,,84,127
39917,note_on,0,0,0,,4,,,40,127
39989,note_off,72,0,0,,0,,,84,127
39991,note_on,2,0,0,,12,,,83,127
40063,note_off,72,0,0,,12,,,83,127
40065,note_on,2,0,0,,0,,,84,127
40120,note_off,55,0,0,,4,,,40,127
40136,note_off,16,0,0,,0,,,84,127
40138,note_on,2,0,0,,5,,,77,127
40138,note_on,0,0,0,,2,,,38,127
40341,note_off,203,0,0,,2,,,38,127
40359,note_on,18,0,0,,2,,,74,127
40562,note_off,203,0,0,,2,,,74,127
40578,note_off,16,0,0,,5,,,77,127
40580,note_on,2,0,0,,0,,,84,127
40580,note_on,0,0,0,,2,,,38,127
40652,note_off,72,0,0,,0,,,84,127
40654,note_on,2,0,0,,12,,,83,127
40726,note_off,72,0,0,,12,,,83,127
40728,note_on,2,0,0,,0,,,84,127
40783,note_off,55,0,0,,2,,,38,127
40799,note_off,16,0,0,,0,,,84,127
40801,note_on,2,0,0,,4,,,76,127
40801,note_on,0,0,0,,0,,,36,127
41004,note_off,203,0,0,,0,,,36,127
41022,note_on,18,0,0,,0,,,72,127
41225,note_off,203,0,0,,0,,,72,127
41241,note_off,16,0,0,,4,,,76,127
41243,note_on,2,0,0,,0,,,84,127
41243,note_on,0,0,0,,0,,,36,127
41315,note_off,72,0,0,,0,,,84,127
41317,note_on,2,0,0,,12,,,83,127
41389,note_off,72,0,0,,12,,,83,127
41391,note_on,2,0,0,,0,,,84,127
41446,note_off,55,0,0,,0,,,36,127
41462,note_off,16,0,0,,0,,,84,127
41472,note_on,10,0,0,,5,,,41,127
41472,note_on,0,0,0,,10,,,81,127
41544,note_off,72,0,0,,10,,,81,127
41547,note_on,3,0,0,,0,,,84,127
41619,note_off,72,0,0,,0,,,84,127
41621,note_on,2,0,0,,12,,,83,127
41693,note_off,72,0,0,,12,,,83,127
41695,note_on,2,0,0,,10,,,81,127
41767,note_off,72,0,0,,10,,,81,127
41769,note_on,2,0,0,,7,,,79,127
41841,note_off,72,0,0,,7,,,79,127
41843,note_on,2,0,0,,5,,,77,127
41909,note_off,66,0,0,,5,,,41,127
41915,note_off,6,0,0,,5,,,77,127
41917,note_on,2,0,0,,4,,,76,127
41917,note_on,0,0,0,,5,,,41,127
41989,note_off,72,0,0,,4,,,76,127
41991,note_on,2,0,0,,2,,,74,127
42063,note_off,72,0,0,,2,,,74,127
42065,note_on,2,0,0,,0,,,72,127
42132,note_off,67,0,0,,5,,,41,127
42137,note_off,5,0,0,,0,,,72,127
42139,note_on,2,0,0,,0,,,72,127
42139,note_on,0,0,0,,7,,,43,127
42192,note_off,53,0,0,,0,,,72,127
42194,note_on,2,0,0,,12,,,71,127
42247,note_off,53,0,0,,12,,,71,127
42249,note_on,2,0,0,,0,,,72,127
42302,note_off,53,0,0,,0,,,72,127
42304,note_on,2,0,0,,12,,,71,127
42468,note_off,164,0,0,,12,,,71,127
42470,note_on,2,0,0,,10,,,69,127
42578,note_off,108,0,0,,10,,,69,127
42580,note_on,2,0,0,,7,,,67,127
42795,note_off,215,0,0,,7,,,43,127
42834,note_off,39,0,0,,7,,,67,127
42844,note_on,10,0,0,,0,,,36,127
43059,note_off,215,0,0,,0,,,36,127
43066,note_on,7,0,0,,4,,,76,127
43066,note_on,0,0,0,,0,,,72,127
43138,note_off,72,0,0,,4,,,76,127
43140,note_on,2,0,0,,2,,,74,127
43212,note_off,72,0,0,,2,,,74,127
43214,note_on,2,0,0,,4,,,76,127
43281,note_off,67,0,0,,0,,,72,127
43286,note_off,5,0,0,,4,,,76,127
43288,note_on,2,0,0,,5,,,77,127
43288,note_on,0,0,0,,2,,,74,127
43360,note_off,72,0,0,,5,,,77,127
43362,note_on,2,0,0,,4,,,76,127
43434,note_off,72,0,0,,4,,,76,127
43436,note_on,2,0,0,,5,,,77,127
43503,note_off,67,0,0,,2,,,74,127
43508,note_off,5,0,0,,5,,,77,127
43510,note_on,2,0,0,,7,,,79,127
43510,note_on,0,0,0,,4,,,76,127
43582,note_off,72,0,0,,7,,,79,127
43584,note_on,2,0,0,,5,,,77,127
43656,note_off,72,0,0,,5,,,77,127
43658,note_on,2,0,0,,7,,,79,127
43725,note_off,67,0,0,,4,,,76,127
43730,note_off,5,0,0,,7,,,79,127
43732,note_on,2,0,0,,10,,,81,127
43732,note_on,0,0,0,,5,,,77,127
43804,note_off,72,0,0,,10,,,81,127
43806,note_on,2,0,0,,7,,,79,127
43878,note_off,72,0,0,,7,,,79,127
43880,note_on,2,0,0,,10,,,81,127
43947,note_off,67,0,0,,5,,,77,127
43952,note_off,5,0,0,,10,,,81,127
43954,note_on,2,0,0,,12,,,83,127
43954,note_on,0,0,0,,7,,,79,127
44026,note_off,72,0,0,,12,,,83,127
44028,note_on,2,0,0,,10,,,81,127
44100,note_off,72,0,0,,10,,,81,127
44102,note_on,2,0,0,,12,,,83,127
44174,note_off,72,0,0,,12,,,83,127
44174,note_off,0,0,0,,7,,,79,127
44176,note_on,2,0,0,,0,,,84,127
44176,note_on,0,0,0,,2,,,86,127
44248,note_off,72,0,0,,2,,,86,127
44248,note_off,0,0,0,,0,,,84,127
44250,note_on,2,0,0,,12,,,83,127
44322,note_off,72,0,0,,12,,,83,127
44324,note_on,2,0,0,,0,,,84,127
44398,note_on,74,0,0,,0,,,72,127
44465,note_off,67,0,0,,0,,,72,127
44472,note_on,7,0,0,,12,,,71,127
44539,note_off,67,0,0,,12,,,71,127
44546,note_on,7,0,0,,0,,,72,127
44567,note_off,21,0,0,,0,,,84,127
44620,note_on,53,0,0,,0,,,60,127
44692,note_off,72,0,0,,0,,,60,127
44694,note_on,2,0,0,,12,,,59,127
44766,note_off,72,0,0,,12,,,59,127
44768,note_on,2,0,0,,0,,,60,127
44789,note_off,21,0,0,,0,,,72,127
44842,note_on,53,0,0,,0,,,36,127
45010,note_off,168,0,0,,0,,,60,127
45056,note_off,46,0,0,,0,,,36,127
45072,note_on,16,0,0,,4,,,76,127
45072,note_on,0,0,0,,0,,,72,127
45144,note_off,72,0,0,,4,,,76,127
45146,note_on,2,0,0,,2,,,74,127
45218,note_off,72,0,0,,2,,,74,127
45220,note_on,2,0,0,,4,,,76,127
45287,note_off,67,0,0,,0,,,72,127
45292,note_off,5,0,0,,4,,,76,127
45294,note_on,2,0,0,,5,,,77,127
45294,note_on,0,0,0,,2,,,74,127
45366,note_off,72,0,0,,5,,,77,127
45368,note_on,2,0,0,,4,,,76,127
45440,note_off,72,0,0,,4,,,76,127
45442,note_on,2,0,0,,5,,,77,127
45509,note_off,67,0,0,,2,,,74,127
45514,note_off,5,0,0,,5,,,77,127
45516,note_on,2,0,0,,7,,,79,127
45516,note_on,0,0,0,,4,,,76,127
45588,note_off,72,0,0,,7,,,79,127
45590,note_on,2,0,0,,5,,,77,127
45662,note_off,72,0,0,,5,,,77,127
45664,note_on,2,0,0,,7,,,79,127
45731,note_off,67,0,0,,4,,,76,127
45736,note_off,5,0,0,,7,,,79,127
45738,note_on,2,0,0,,10,,,81,127
45738,note_on,0,0,0,,5,,,77,127
45810,note_off,72,0,0,,10,,,81,127
45812,note_on,2,0,0,,7,,,79,127
45884,note_off,72,0,0,,7,,,79,127
45886,note_on,2,0,0,,10,,,81,127
45953,note_off,67,0,0,,5,,,77,127
45958,note_off,5,0,0,,10,,,81,127
45960,note_on,2,0,0,,12,,,83,127
45960,note_on,0,0,0,,7,,,79,127
46032,note_off,72,0,0,,12,,,83,127
46034,note_on,2,0,0,,10,,,81,127
46106,note_off,72,0,0,,10,,,81,127
46108,note_on,2,0,0,,12,,,83,127
46180,note_off,72,0,0,,12,,,83,127
46180,note_off,0,0,0,,7,,,79,127
46182,note_on,2,0,0,,2,,,86,127
46182,note_on,0,0,0,,0,,,84,127
46254,note_off,72,0,0,,0,,,84,127
46254,note_off,0,0,0,,2,,,86,127
46256,note_on,2,0,0,,12,,,83,127
46328,note_off,72,0,0,,12,,,83,127
46330,note_on,2,0,0,,0,,,84,127
46404,note_on,74,0,0,,0,,,72,127
46471,note_off,67,0,0,,0,,,72,127
46478,note_on,7,0,0,,12,,,71,127
46545,note_off,67,0,0,,12,,,71,127
46552,note_on,7,0,0,,0,,,72,127
46573,note_off,21,0,0,,0,,,84,127
46626,note_on,53,0,0,,0,,,60,127
46698,note_off,72,0,0,,0,,,60,127
46700,note_on,2,0,0,,12,,,59,127
46772,note_off,72,0,0,,12,,,59,127
46774,note_on,2,0,0,,0,,,60,127
46795,note_off,21,0,0,,0,,,72,127
46848,note_on,53,0,0,,0,,,36,127
47016,note_off,168,0,0,,0,,,60,127
47097,note_on,81,0,0,,0,,,72,127
47286,note_off,189,0,0,,0,,,36,127
47316,note_off,30,0,0,,0,,,72,127
47318,note_on,2,0,0,,12,,,71,127
47318,note_on,0,0,0,,0,,,72,127
47537,note_off,219,0,0,,0,,,72,127
47537,note_off,0,0,0,,12,,,71,127
47539,note_on,2,0,0,,0,,,72,127
47539,note_on,0,0,0,,10,,,69,127
47758,note_off,219,0,0,,10,,,69,127
47758,note_off,0,0,0,,0,,,72,127
47760,note_on,2,0,0,,12,,,59,127
47760,note_on,0,0,0,,2,,,74,127
47760,note_on,0,0,0,,7,,,67,127
47975,note_off,215,0,0,,12,,,59,127
47980,note_off,5,0,0,,7,,,67,127
47982,note_on,2,0,0,,7,,,55,127
47982,note_on,0,0,0,,5,,,65,127
48197,note_off,215,0,0,,7,,,55,127
48199,note_off,2,0,0,,2,,,74,127
48201,note_off,2,0,0,,5,,,65,127
48203,note_on,2,0,0,,0,,,60,127
48203,note_on,0,0,0,,0,,,48,127
48203,note_on,0,0,0,,4,,,64,127
48203,note_on,0,0,0,,4,,,76,127
48275,note_off,72,0,0,,4,,,76,127
48275,note_off,0,0,0,,4,,,64,127
48277,note_on,2,0,0,,2,,,74,127
48349,note_off,72,0,0,,2,,,74,127
48351,note_on,2,0,0,,0,,,72,127
48418,note_off,67,0,0,,0,,,48,127
48418,note_off,0,0,0,,0,,,60,127
48423,note_off,5,0,0,,0,,,72,127
48425,note_on,2,0,0,,2,,,50,127
48425,note_on,0,0,0,,12,,,71,127
48497,note_off,72,0,0,,12,,,71,127
48499,note_on,2,0,0,,10,,,69,127
48571,note_off,72,0,0,,10,,,69,127
48573,note_on,2,0,0,,7,,,67,127
48640,note_off,67,0,0,,2,,,50,127
48645,note_off,5,0,0,,7,,,67,127
48647,note_on,2,0,0,,4,,,52,127
48647,note_on,0,0,0,,0,,,72,127
48862,note_off,215,0,0,,4,,,52,127
48867,note_off,5,0,0,,0,,,72,127
48869,note_on,2,0,0,,5,,,53,127
48869,note_on,0,0,0,,7,,,67,127
48869,note_on,0,0,0,,5,,,65,127
48941,note_off,72,0,0,,5,,,65,127
48941,note_off,0,0,0,,7,,,67,127
48943,note_on,2,0,0,,4,,,64,127
49015,note_off,72,0,0,,4,,,64,127
49017,note_on,2,0,0,,2,,,62,127
49084,note_off,67,0,0,,5,,,53,127
49089,note_off,5,0,0,,2,,,62,127
49091,note_on,2,0,0,,7,,,55,127
49091,note_on,0,0,0,,4,,,64,127
49091,note_on,0,0,0,,0,,,60,127
49306,note_off,215,0,0,,7,,,55,127
49311,note_off,5,0,0,,0,,,60,127
49311,note_off,0,0,0,,4,,,64,127
49313,note_on,2,0,0,,7,,,43,127
49313,note_on,0,0,0,,2,,,62,127
49313,note_on,0,0,0,,12,,,59,127
49528,note_off,215,0,0,,7,,,43,127
49533,note_off,5,0,0,,12,,,59,127
49533,note_off,0,0,0,,2,,,62,127
49535,note_on,2,0,0,,0,,,36,127
49535,note_on,0,0,0,,0,,,60,127
49754,note_off,219,0,0,,0,,,60,127
49761,note_on,7,0,0,,0,,,84,127
49777,note_off,16,0,0,,0,,,36,127
49832,note_off,55,0,0,,0,,,84,127
49834,note_on,2,0,0,,12,,,83,127
49906,note_off,72,0,0,,12,,,83,127
49908,note_on,2,0,0,,0,,,84,127
49982,note_on,74,0,0,,0,,,72,127
50054,note_off,72,0,0,,0,,,72,127
50056,note_on,2,0,0,,12,,,71,127
50128,note_off,72,0,0,,12,,,71,127
50130,note_on,2,0,0,,0,,,72,127
50151,note_off,21,0,0,,0,,,84,127
50204,note_on,53,0,0,,0,,,36,127
50372,note_off,168,0,0,,0,,,72,127
50425,note_on,53,0,0,,0,,,84,127
50446,note_off,21,0,0,,0,,,36,127
50497,note_off,51,0,0,,0,,,84,127
50499,note_on,2,0,0,,12,,,83,127
50571,note_off,72,0,0,,12,,,83,127
50573,note_on,2,0,0,,0,,,84,127
50647,note_on,74,0,0,,0,,,72,127
50719,note_off,72,0,0,,0,,,72,127
50721,note_on,2,0,0,,12,,,71,127
50793,note_off,72,0,0,,12,,,71,127
50795,note_on,2,0,0,,0,,,72,127
50816,note_off,21,0,0,,0,,,84,127
50869,note_on,53,0,0,,0,,,36,127
51072,note_off,203,0,0,,0,,,72,127
51127,note_on,55,0,0,,0,,,84,127
51307,note_off,180,0,0,,0,,,36,127
51346,note_off,39,0,0,,0,,,84,127
51348,note_on,2,0,0,,12,,,83,127
51348,note_on,0,0,0,,0,,,84,127
51567,note_off,219,0,0,,0,,,84,127
51567,note_off,0,0,0,,12,,,83,127
51569,note_on,2,0,0,,10,,,81,127
51569,note_on,0,0,0,,0,,,84,127
51788,note_off,219,0,0,,0,,,84,127
51788,note_off,0,0,0,,10,,,81,127
51790,note_on,2,0,0,,12,,,59,127
51790,note_on,0,0,0,,7,,,79,127
51790,note_on,0,0,0,,2,,,86,127
52005,note_off,215,0,0,,12,,,59,127
52010,note_off,5,0,0,,7,,,79,127
52012,note_on,2,0,0,,7,,,55,127
52012,note_on,0,0,0,,5,,,77,127
52227,note_off,215,0,0,,7,,,55,127
52229,note_off,2,0,0,,2,,,86,127
52231,note_off,2,0,0,,5,,,77,127
52233,note_on,2,0,0,,0,,,48,127
52233,note_on,0,0,0,,0,,,60,127
52233,note_on,0,0,0,,4,,,88,127
52233,note_on,0,0,0,,4,,,76,127
52305,note_off,72,0,0,,4,,,76,127
52305,note_off,0,0,0,,4,,,88,127
52307,note_on,2,0,0,,2,,,86,127
52379,note_off,72,0,0,,2,,,86,127
52381,note_on,2,0,0,,0,,,84,127
52448,note_off,67,0,0,,0,,,60,127
52448,note_off,0,0,0,,0,,,48,127
52453,note_off,5,0,0,,0,,,84,127
52455,note_on,2,0,0,,2,,,50,127
52455,note_on,0,0,0,,12,,,83,127
52527,note_off,72,0,0,,12,,,83,127
52529,note_on,2,0,0,,10,,,81,127
52601,note_off,72,0,0,,10,,,81,127
52603,note_on,2,0,0,,7,,,79,127
52670,note_off,67,0,0,,2,,,50,127
52675,note_off,5,0,0,,7,,,79,127
52677,note_on,2,0,0,,4,,,52,127
52677,note_on,0,0,0,,0,,,84,127
52892,note_off,215,0,0,,4,,,52,127
52897,note_off,5,0,0,,0,,,84,127
52899,note_on,2,0,0,,5,,,53,127
52899,note_on,0,0,0,,7,,,79,127
52899,note_on,0,0,0,,5,,,77,127
52971,note_off,72,0,0,,5,,,77,127
52971,note_off,0,0,0,,7,,,79,127
52973,note_on,2,0,0,,4,,,76,127
53045,note_off,72,0,0,,4,,,76,127
53047,note_on,2,0,0,,2,,,74,127
53114,note_off,67,0,0,,5,,,53,127
53119,note_off,5,0,0,,2,,,74,127
53121,note_on,2,0,0,,7,,,55,127
53121,note_on,0,0,0,,0,,,72,127
53121,note_on,0,0,0,,4,,,76,127
53336,note_off,215,0,0,,7,,,55,127
53341,note_off,5,0,0,,4,,,76,127
53341,note_off,0,0,0,,0,,,72,127
53343,note_on,2,0,0,,7,,,43,127
53343,note_on,0,0,0,,12,,,71,127
53343,note_on,0,0,0,,2,,,74,127
53558,note_off,215,0,0,,7,,,43,127
53563,note_off,5,0,0,,2,,,74,127
53563,note_off,0,0,0,,12,,,71,127
53584,note_on,21,0,0,,0,,,72,127
53584,note_on,0,0,0,,0,,,48,127
53656,note_off,72,0,0,,0,,,72,127
53658,note_on,2,0,0,,7,,,79,127
53730,note_off,72,0,0,,7,,,79,127
53732,note_on,2,0,0,,5,,,77,127
53804,note_off,72,0,0,,5,,,77,127
53806,note_on,2,0,0,,4,,,76,127
53878,note_off,72,0,0,,4,,,76,127
53880,note_on,2,0,0,,2,,,74,127
53952,note_off,72,0,0,,2,,,74,127
53954,note_on,2,0,0,,0,,,72,127
53977,note_off,23,0,0,,0,,,48,127
54025,note_off,48,0,0,,0,,,72,127
54027,note_on,2,0,0,,2,,,74,127
54027,note_on,0,0,0,,7,,,43,127
54099,note_off,72,0,0,,2,,,74,127
54101,note_on,2,0,0,,4,,,76,127
54173,note_off,72,0,0,,4,,,76,127
54175,note_on,2,0,0,,5,,,77,127
54242,note_off,67,0,0,,7,,,43,127
54247,note_off,5,0,0,,5,,,77,127
54249,note_on,2,0,0,,4,,,76,127
54249,note_on,0,0,0,,0,,,36,127
54321,note_off,72,0,0,,4,,,76,127
54323,note_on,2,0,0,,7,,,79,127
54395,note_off,72,0,0,,7,,,79,127
54397,note_on,2,0,0,,5,,,77,127
54469,note_off,72,0,0,,5,,,77,127
54471,note_on,2,0,0,,4,,,76,127
54543,note_off,72,0,0,,4,,,76,127
54545,note_on,2,0,0,,2,,,74,127
54617,note_off,72,0,0,,2,,,74,127
54619,note_on,2,0,0,,0,,,72,127
54686,note_off,67,0,0,,0,,,36,127
54691,note_off,5,0,0,,0,,,72,127
54693,note_on,2,0,0,,2,,,74,127
54693,note_on,0,0,0,,7,,,43,127
54765,note_off,72,0,0,,2,,,74,127
54767,note_on,2,0,0,,4,,,76,127
54839,note_off,72,0,0,,4,,,76,127
54841,note_on,2,0,0,,5,,,77,127
54908,note_off,67,0,0,,7,,,43,127
54913,note_off,5,0,0,,5,,,77,127
54915,note_on,2,0,0,,4,,,76,127
54915,note_on,0,0,0,,0,,,48,127
54987,note_off,72,0,0,,4,,,76,127
54989,note_on,2,0,0,,7,,,79,127
55061,note_off,72,0,0,,7,,,79,127
55063,note_on,2,0,0,,5,,,77,127
55130,note_off,67,0,0,,0,,,48,127
55135,note_off,5,0,0,,5,,,77,127
55137,note_on,2,0,0,,4,,,76,127
55137,note_on,0,0,0,,2,,,50,127
55209,note_off,72,0,0,,4,,,76,127
55211,note_on,2,0,0,,2,,,74,127
55283,note_off,72,0,0,,2,,,74,127
55285,note_on,2,0,0,,0,,,72,127
55352,note_off,67,0,0,,2,,,50,127
55357,note_off,5,0,0,,0,,,72,127
55359,note_on,2,0,0,,12,,,71,127
55359,note_on,0,0,0,,4,,,52,127
55431,note_off,72,0,0,,12,,,71,127
55433,note_on,2,0,0,,10,,,69,127
55505,note_off,72,0,0,,10,,,69,127
55507,note_on,2,0,0,,7,,,67,127
55574,note_off,67,0,0,,4,,,52,127
55579,note_off,5,0,0,,7,,,67,127
55581,note_on,2,0,0,,5,,,65,127
55581,note_on,0,0,0,,5,,,53,127
55653,note_off,72,0,0,,5,,,65,127
55655,note_on,2,0,0,,4,,,64,127
55727,note_off,72,0,0,,4,,,64,127
55729,note_on,2,0,0,,2,,,62,127
55796,note_off,67,0,0,,5,,,53,127
55801,note_off,5,0,0,,2,,,62,127
55803,note_on,2,0,0,,0,,,60,127
55803,note_on,0,0,0,,4,,,64,127
55803,note_on,0,0,0,,7,,,55,127
56018,note_off,215,0,0,,7,,,55,127
56023,note_off,5,0,0,,4,,,64,127
56023,note_off,0,0,0,,0,,,60,127
56025,note_on,2,0,0,,2,,,62,127
56025,note_on,0,0,0,,12,,,59,127
56025,note_on,0,0,0,,7,,,43,127
56240,note_off,215,0,0,,7,,,43,127
56245,note_off,5,0,0,,12,,,59,127
56245,note_off,0,0,0,,2,,,62,127
56266,note_on,21,0,0,,0,,,48,127
56266,note_on,0,0,0,,0,,,72,127
56338,note_off,72,0,0,,0,,,72,127
56340,note_on,2,0,0,,7,,,79,127
56412,note_off,72,0,0,,7,,,79,127
56414,note_on,2,0,0,,5,,,77,127
56486,note_off,72,0,0,,5,,,77,127
56488,note_on,2,0,0,,4,,,76,127
56560,note_off,72,0,0,,4,,,76,127
56562,note_on,2,0,0,,2,,,74,127
56634,note_off,72,0,0,,2,,,74,127
56636,note_on,2,0,0,,0,,,72,127
56659,note_off,23,0,0,,0,,,48,127
56707,note_off,48,0,0,,0,,,72,127
56709,note_on,2,0,0,,7,,,43,127
56709,note_on,0,0,0,,2,,,74,127
56781,note_off,72,0,0,,2,,,74,127
56783,note_on,2,0,0,,4,,,76,127
56855,note_off,72,0,0,,4,,,76,127
56857,note_on,2,0,0,,5,,,77,127
56924,note_off,67,0,0,,7,,,43,127
56929,note_off,5,0,0,,5,,,77,127
56931,note_on,2,0,0,,0,,,36,127
56931,note_on,0,0,0,,4,,,76,127
57003,note_off,72,0,0,,4,,,76,127
57005,note_on,2,0,0,,7,,,79,127
57077,note_off,72,0,0,,7,,,79,127
57079,note_on,2,0,0,,5,,,77,127
57151,note_off,72,0,0,,5,,,77,127
57153,note_on,2,0,0,,4,,,76,127
57225,note_off,72,0,0,,4,,,76,127
57227,note_on,2,0,0,,2,,,74,127
57299,note_off,72,0,0,,2,,,74,127
57301,note_on,2,0,0,,0,,,72,127
57368,note_off,67,0,0,,0,,,36,127
57373,note_off,5,0,0,,0,,,72,127
57375,note_on,2,0,0,,7,,,43,127
57375,note_on,0,0,0,,2,,,74,127
57447,note_off,72,0,0,,2,,,74,127
57449,note_on,2,0,0,,4,,,76,127
57521,note_off,72,0,0,,4,,,76,127
57523,note_on,2,0,0,,5,,,77,127
57590,note_off,67,0,0,,7,,,43,127
57595,note_off,5,0,0,,5,,,77,127
57597,note_on,2,0,0,,0,,,48,127
57597,note_on,0,0,0,,4,,,76,127
57669,note_off,72,0,0,,4,,,76,127
57671,note_on,2,0,0,,7,,,79,127
57743,note_off,72,0,0,,7,,,79,127
57745,note_on,2,0,0,,5,,,77,127
57812,note_off,67,0,0,,0,,,48,127
57817,note_off,5,0,0,,5,,,77,127
57819,note_on,2,0,0,,2,,,50,127
57819,note_on,0,0,0,,4,,,76,127
57891,note_off,72,0,0,,4,,,76,127
57893,note_on,2,0,0,,2,,,74,127
57965,note_off,72,0,0,,2,,,74,127
57967,note_on,2,0,0,,0,,,72,127
58034,note_off,67,0,0,,2,,,50,127
58039,note_off,5,0,0,,0,,,72,127
58041,note_on,2,0,0,,4,,,52,127
58041,note_on,0,0,0,,12,,,71,127
58113,note_off,72,0,0,,12,,,71,127
58115,note_on,2,0,0,,10,,,69,127
58187,note_off,72,0,0,,10,,,69,127
58189,note_on,2,0,0,,7,,,67,127
58256,note_off,67,0,0,,4,,,52,127
58261,note_off,5,0,0,,7,,,67,127
58263,note_on,2,0,0,,5,,,53,127
58263,note_on,0,0,0,,5,,,65,127
58335,note_off,72,0,0,,5,,,65,127
58337,note_on,2,0,0,,4,,,64,127
58409,note_off,72,0,0,,4,,,64,127
58411,note_on,2,0,0,,2,,,62,127
58478,note_off,67,0,0,,5,,,53,127
58483,note_off,5,0,0,,2,,,62,127
58485,note_on,2,0,0,,7,,,55,127
58485,note_on,0,0,0,,4,,,64,127
58485,note_on,0,0,0,,0,,,60,127
58700,note_off,215,0,0,,7,,,55,127
58705,note_off,5,0,0,,0,,,60,127
58705,note_off,0,0,0,,4,,,64,127
58707,note_on,2,0,0,,7,,,43,127
58707,note_on,0,0,0,,12,,,59,127
58707,note_on,0,0,0,,2,,,62,127
58922,note_off,215,0,0,,7,,,43,127
58927,note_off,5,0,0,,2,,,62,127
58927,note_off,0,0,0,,12,,,59,127
58948,note_on,21,0,0,,2,,,62,127
58948,note_on,0,0,0,,0,,,36,127
59003,note_on,55,0,0,,0,,,60,127
59010,note_off,7,0,0,,2,,,62,127
59058,note_on,48,0,0,,2,,,62,127
59065,note_off,7,0,0,,0,,,60,127
59113,note_off,48,0,0,,2,,,62,127
59113,note_on,0,0,0,,0,,,60,127
60728,note_off,1615,0,0,,0,,,60,127
60735,note_off,7,0,0,,0,,,36,127
64512,end_of_track,3777,1,0,,,,,,
