tick,type,time,meta,track,program,channel,pitch,tempo,note,velocity
0,copyright,0,1,0,,,,,,
0,program_change,0,0,0,6,0,,,,
0,pitchwheel,0,0,0,,0,0,,,
0,program_change,0,0,0,6,1,,,,
0,pitchwheel,0,0,0,,1,-590,,,
0,program_change,0,0,0,6,2,,,,
0,pitchwheel,0,0,0,,2,-272,,,
0,program_change,0,0,0,6,3,,,,
0,pitchwheel,0,0,0,,3,-353,,,
0,program_change,0,0,0,6,4,,,,
0,pitchwheel,0,0,0,,4,-560,,,
0,program_change,0,0,0,6,5,,,,
0,pitchwheel,0,0,0,,5,-80,,,
0,program_change,0,0,0,6,6,,,,
0,pitchwheel,0,0,0,,6,-625,,,
0,program_change,0,0,0,6,7,,,,
0,pitchwheel,0,0,0,,7,-130,,,
0,program_change,0,0,0,6,8,,,,
0,pitchwheel,0,0,0,,8,-512,,,
0,program_change,0,0,0,6,10,,,,
0,pitchwheel,0,0,0,,10,-464,,,
0,program_change,0,0,0,6,11,,,,
0,pitchwheel,0,0,0,,11,-208,,,
0,program_change,0,0,0,6,12,,,,
0,pitchwheel,0,0,0,,12,-553,,,
0,set_tempo,0,1,0,,,,500000,,
110,note_on,110,0,0,,4,,,76,127
164,note_off,54,0,0,,4,,,76,127
165,note_on,1,0,0,,2,,,74,127
219,note_off,54,0,0,,2,,,74,127
220,note_on,1,0,0,,4,,,76,127
274,note_off,54,0,0,,4,,,76,127
275,note_on,1,0,0,,2,,,74,127
329,note_off,54,0,0,,2,,,74,127
330,note_on,1,0,0,,4,,,76,127
384,note_off,54,0,0,,4,,,76,127
385,note_on,1,0,0,,2,,,74,127
768,note_off,383,0,0,,2,,,74,127
769,note_on,1,0,0,,11,,,82,127
823,note_off,54,0,0,,11,,,82,127
824,note_on,1,0,0,,10,,,81,127
878,note_off,54,0,0,,10,,,81,127
879,note_on,1,0,0,,11,,,82,127
933,note_off,54,0,0,,11,,,82,127
934,note_on,1,0,0,,10,,,81,127
988,note_off,54,0,0,,10,,,81,127
989,note_on,1,0,0,,11,,,82,127
1043,note_off,54,0,0,,11,,,82,127
1044,note_on,1,0,0,,10,,,81,127
1427,note_off,383,0,0,,10,,,81,127
1428,note_on,1,0,0,,7,,,79,127
1482,note_off,54,0,0,,7,,,79,127
1483,note_on,1,0,0,,5,,,77,127
1537,note_off,54,0,0,,5,,,77,127
1538,note_on,1,0,0,,7,,,79,127
1592,note_off,54,0,0,,7,,,79,127
1593,note_on,1,0,0,,5,,,77,127
1647,note_off,54,0,0,,5,,,77,127
1648,note_on,1,0,0,,2,,,74,127
1866,note_off,218,0,0,,2,,,74,127
1867,note_on,1,0,0,,10,,,69,127
2085,note_off,218,0,0,,10,,,69,127
2086,note_on,1,0,0,,7,,,67,127
2140,note_off,54,0,0,,7,,,67,127
2141,note_on,1,0,0,,5,,,65,127
2195,note_off,54,0,0,,5,,,65,127
2196,note_on,1,0,0,,7,,,67,127
2250,note_off,54,0,0,,7,,,67,127
2251,note_on,1,0,0,,5,,,65,127
2305,note_off,54,0,0,,5,,,65,127
2306,note_on,1,0,0,,2,,,62,127
2525,note_on,219,0,0,,5,,,77,127
2525,note_on,0,0,0,,12,,,71,127
2557,note_off,32,0,0,,2,,,62,127
2743,note_off,186,0,0,,12,,,71,127
2743,note_off,0,0,0,,5,,,77,127
2744,note_on,1,0,0,,0,,,60,127
2744,note_on,0,0,0,,0,,,72,127
2744,note_on,0,0,0,,5,,,77,127
2798,note_off,54,0,0,,5,,,77,127
2799,note_on,1,0,0,,4,,,76,127
2853,note_off,54,0,0,,4,,,76,127
2854,note_on,1,0,0,,5,,,77,127
2908,note_off,54,0,0,,5,,,77,127
2909,note_on,1,0,0,,4,,,76,127
2963,note_off,54,0,0,,4,,,76,127
2963,note_off,0,0,0,,0,,,72,127
2964,note_on,1,0,0,,2,,,74,127
2964,note_on,0,0,0,,12,,,71,127
3182,note_off,218,0,0,,12,,,71,127
3182,note_off,0,0,0,,2,,,74,127
3183,note_on,1,0,0,,0,,,72,127
3183,note_on,0,0,0,,4,,,76,127
3400,note_off,217,0,0,,4,,,76,127
3401,note_off,1,0,0,,0,,,72,127
3401,note_off,0,0,0,,0,,,60,127
3402,note_on,1,0,0,,4,,,76,127
3402,note_on,0,0,0,,7,,,67,127
3402,note_on,0,0,0,,12,,,71,127
3456,note_on,54,0,0,,2,,,74,127
3475,note_off,19,0,0,,4,,,76,127
3512,note_on,37,0,0,,4,,,76,127
3529,note_off,17,0,0,,2,,,74,127
3567,note_on,38,0,0,,2,,,74,127
3585,note_off,18,0,0,,4,,,76,127
3620,note_off,35,0,0,,2,,,74,127
3620,note_off,0,0,0,,12,,,71,127
3621,note_on,1,0,0,,0,,,72,127
3839,note_off,218,0,0,,0,,,72,127
3840,note_on,1,0,0,,2,,,74,127
4058,note_off,218,0,0,,2,,,74,127
4058,note_off,0,0,0,,7,,,67,127
4059,note_on,1,0,0,,4,,,64,127
4059,note_on,0,0,0,,7,,,67,127
4059,note_on,0,0,0,,0,,,72,127
4277,note_off,218,0,0,,4,,,64,127
4278,note_on,1,0,0,,0,,,60,127
4496,note_off,218,0,0,,0,,,60,127
4497,note_on,1,0,0,,7,,,55,127
4607,note_off,110,0,0,,0,,,72,127
4716,note_off,109,0,0,,7,,,55,127
4716,note_off,0,0,0,,7,,,67,127
4717,note_on,1,0,0,,4,,,52,127
4717,note_on,0,0,0,,7,,,67,127
4717,note_on,0,0,0,,2,,,74,127
4771,note_off,54,0,0,,2,,,74,127
4772,note_on,1,0,0,,0,,,72,127
4826,note_off,54,0,0,,0,,,72,127
4827,note_on,1,0,0,,2,,,74,127
4881,note_off,54,0,0,,2,,,74,127
4882,note_on,1,0,0,,0,,,72,127
4936,note_off,54,0,0,,0,,,72,127
4936,note_off,0,0,0,,4,,,52,127
4937,note_on,1,0,0,,0,,,48,127
4937,note_on,0,0,0,,2,,,74,127
4991,note_off,54,0,0,,2,,,74,127
4992,note_on,1,0,0,,0,,,72,127
5046,note_off,54,0,0,,0,,,72,127
5047,note_on,1,0,0,,12,,,71,127
5101,note_off,54,0,0,,12,,,71,127
5102,note_on,1,0,0,,0,,,72,127
5156,note_off,54,0,0,,0,,,72,127
5156,note_off,0,0,0,,0,,,48,127
5156,note_off,0,0,0,,7,,,67,127
5157,note_on,1,0,0,,6,,,54,127
5157,note_on,0,0,0,,10,,,69,127
5157,note_on,0,0,0,,2,,,74,127
5157,note_on,0,0,0,,0,,,72,127
5375,note_off,218,0,0,,0,,,72,127
5375,note_off,0,0,0,,2,,,74,127
5375,note_off,0,0,0,,10,,,69,127
5375,note_off,0,0,0,,6,,,54,127
5376,note_on,1,0,0,,7,,,55,127
5376,note_on,0,0,0,,2,,,74,127
5376,note_on,0,0,0,,11,,,70,127
5594,note_off,218,0,0,,11,,,70,127
5595,note_on,1,0,0,,10,,,69,127
5813,note_off,218,0,0,,10,,,69,127
5813,note_off,0,0,0,,2,,,74,127
5814,note_on,1,0,0,,11,,,70,127
5814,note_on,0,0,0,,7,,,79,127
6032,note_off,218,0,0,,7,,,79,127
6032,note_off,0,0,0,,11,,,70,127
6033,note_on,1,0,0,,10,,,81,127
6083,note_off,50,0,0,,7,,,55,127
6088,note_on,5,0,0,,6,,,54,127
6142,note_off,54,0,0,,6,,,54,127
6143,note_on,1,0,0,,7,,,55,127
6197,note_off,54,0,0,,7,,,55,127
6198,note_on,1,0,0,,6,,,54,127
6252,note_off,54,0,0,,6,,,54,127
6253,note_on,1,0,0,,7,,,55,127
6253,note_on,0,0,0,,2,,,74,127
6307,note_off,54,0,0,,7,,,55,127
6308,note_on,1,0,0,,6,,,54,127
6362,note_off,54,0,0,,6,,,54,127
6363,note_on,1,0,0,,7,,,55,127
6417,note_off,54,0,0,,7,,,55,127
6418,note_on,1,0,0,,6,,,54,127
6472,note_off,54,0,0,,6,,,54,127
6472,note_off,0,0,0,,2,,,74,127
6473,note_on,1,0,0,,7,,,55,127
6473,note_on,0,0,0,,0,,,72,127
6527,note_off,54,0,0,,7,,,55,127
6528,note_on,1,0,0,,6,,,54,127
6582,note_off,54,0,0,,6,,,54,127
6583,note_on,1,0,0,,4,,,52,127
6637,note_off,54,0,0,,4,,,52,127
6638,note_on,1,0,0,,6,,,54,127
6692,note_off,54,0,0,,6,,,54,127
6692,note_off,0,0,0,,0,,,72,127
6692,note_off,0,0,0,,10,,,81,127
6693,note_on,1,0,0,,7,,,55,127
6693,note_on,0,0,0,,11,,,70,127
6693,note_on,0,0,0,,2,,,74,127
6911,note_off,218,0,0,,11,,,70,127
6912,note_on,1,0,0,,10,,,69,127
7130,note_off,218,0,0,,10,,,69,127
7130,note_off,0,0,0,,2,,,74,127
7131,note_on,1,0,0,,7,,,79,127
7131,note_on,0,0,0,,11,,,70,127
7349,note_off,218,0,0,,11,,,70,127
7349,note_off,0,0,0,,7,,,79,127
7350,note_on,1,0,0,,10,,,81,127
7400,note_off,50,0,0,,7,,,55,127
7405,note_on,5,0,0,,6,,,54,127
7459,note_off,54,0,0,,6,,,54,127
7460,note_on,1,0,0,,7,,,55,127
7514,note_off,54,0,0,,7,,,55,127
7515,note_on,1,0,0,,6,,,54,127
7569,note_off,54,0,0,,6,,,54,127
7570,note_on,1,0,0,,7,,,55,127
7570,note_on,0,0,0,,2,,,74,127
7624,note_off,54,0,0,,7,,,55,127
7625,note_on,1,0,0,,6,,,54,127
7679,note_off,54,0,0,,6,,,54,127
7680,note_on,1,0,0,,7,,,55,127
7734,note_off,54,0,0,,7,,,55,127
7735,note_on,1,0,0,,6,,,54,127
7789,note_off,54,0,0,,6,,,54,127
7789,note_off,0,0,0,,2,,,74,127
7790,note_on,1,0,0,,7,,,55,127
7790,note_on,0,0,0,,0,,,72,127
7844,note_off,54,0,0,,7,,,55,127
7845,note_on,1,0,0,,6,,,54,127
7899,note_off,54,0,0,,6,,,54,127
7900,note_on,1,0,0,,4,,,52,127
7954,note_off,54,0,0,,4,,,52,127
7955,note_on,1,0,0,,6,,,54,127
8009,note_off,54,0,0,,6,,,54,127
8009,note_off,0,0,0,,0,,,72,127
8009,note_off,0,0,0,,10,,,81,127
8010,note_on,1,0,0,,7,,,55,127
8010,note_on,0,0,0,,0,,,72,127
8064,note_off,54,0,0,,0,,,72,127
8065,note_on,1,0,0,,11,,,70,127
8119,note_off,54,0,0,,11,,,70,127
8120,note_on,1,0,0,,0,,,72,127
8174,note_off,54,0,0,,0,,,72,127
8175,note_on,1,0,0,,11,,,70,127
8229,note_off,54,0,0,,11,,,70,127
8230,note_on,1,0,0,,10,,,69,127
8448,note_off,218,0,0,,10,,,69,127
8448,note_off,0,0,0,,7,,,55,127
8449,note_on,1,0,0,,2,,,62,127
8449,note_on,0,0,0,,2,,,74,127
8449,note_on,0,0,0,,11,,,70,127
8667,note_off,218,0,0,,11,,,70,127
8667,note_off,0,0,0,,2,,,74,127
8668,note_on,1,0,0,,4,,,76,127
8723,note_off,55,0,0,,2,,,62,127
8723,note_on,0,0,0,,1,,,61,127
8777,note_off,54,0,0,,1,,,61,127
8778,note_on,1,0,0,,2,,,62,127
8832,note_off,54,0,0,,2,,,62,127
8833,note_on,1,0,0,,1,,,61,127
8887,note_off,54,0,0,,1,,,61,127
8888,note_on,1,0,0,,2,,,62,127
8888,note_on,0,0,0,,10,,,69,127
8942,note_off,54,0,0,,2,,,62,127
8943,note_on,1,0,0,,1,,,61,127
9106,note_off,163,0,0,,10,,,69,127
9107,note_on,1,0,0,,7,,,67,127
9325,note_off,218,0,0,,7,,,67,127
9325,note_off,0,0,0,,1,,,61,127
9325,note_off,0,0,0,,4,,,76,127
9326,note_on,1,0,0,,4,,,64,127
9326,note_on,0,0,0,,5,,,65,127
9380,note_off,54,0,0,,4,,,64,127
9381,note_on,1,0,0,,2,,,62,127
9435,note_off,54,0,0,,2,,,62,127
9436,note_on,1,0,0,,4,,,64,127
9490,note_off,54,0,0,,4,,,64,127
9491,note_on,1,0,0,,2,,,62,127
9545,note_off,54,0,0,,2,,,62,127
9545,note_off,0,0,0,,5,,,65,127
9546,note_on,1,0,0,,4,,,64,127
9601,note_on,55,0,0,,2,,,62,127
9764,note_off,163,0,0,,4,,,64,127
9765,note_on,1,0,0,,2,,,74,127
9765,note_on,0,0,0,,5,,,65,127
9983,note_off,218,0,0,,5,,,65,127
9983,note_off,0,0,0,,2,,,74,127
9984,note_on,1,0,0,,4,,,76,127
10039,note_on,55,0,0,,1,,,61,127
10040,note_off,1,0,0,,2,,,62,127
10093,note_off,53,0,0,,1,,,61,127
10094,note_on,1,0,0,,2,,,62,127
10148,note_off,54,0,0,,2,,,62,127
10149,note_on,1,0,0,,1,,,61,127
10203,note_off,54,0,0,,1,,,61,127
10204,note_on,1,0,0,,2,,,62,127
10204,note_on,0,0,0,,10,,,69,127
10258,note_off,54,0,0,,2,,,62,127
10259,note_on,1,0,0,,1,,,61,127
10422,note_off,163,0,0,,10,,,69,127
10423,note_on,1,0,0,,7,,,67,127
10641,note_off,218,0,0,,7,,,67,127
10641,note_off,0,0,0,,1,,,61,127
10641,note_off,0,0,0,,4,,,76,127
10642,note_on,1,0,0,,2,,,62,127
10642,note_on,0,0,0,,7,,,67,127
10696,note_off,54,0,0,,7,,,67,127
10697,note_on,1,0,0,,5,,,65,127
10751,note_off,54,0,0,,5,,,65,127
10752,note_on,1,0,0,,7,,,67,127
10806,note_off,54,0,0,,7,,,67,127
10807,note_on,1,0,0,,5,,,65,127
10861,note_off,54,0,0,,5,,,65,127
10862,note_on,1,0,0,,4,,,64,127
11080,note_off,218,0,0,,4,,,64,127
11080,note_off,0,0,0,,2,,,62,127
11081,note_on,1,0,0,,2,,,62,127
11081,note_on,0,0,0,,2,,,74,127
11081,note_on,0,0,0,,5,,,65,127
11299,note_off,218,0,0,,5,,,65,127
11299,note_off,0,0,0,,2,,,62,127
11300,note_on,1,0,0,,11,,,58,127
11300,note_on,0,0,0,,7,,,67,127
11518,note_off,218,0,0,,7,,,67,127
11518,note_off,0,0,0,,11,,,58,127
11519,note_on,1,0,0,,10,,,57,127
11519,note_on,0,0,0,,10,,,69,127
11737,note_off,218,0,0,,10,,,69,127
11737,note_off,0,0,0,,10,,,57,127
11737,note_off,0,0,0,,2,,,74,127
11738,note_on,1,0,0,,7,,,55,127
11738,note_on,0,0,0,,11,,,70,127
11738,note_on,0,0,0,,1,,,73,127
11956,note_off,218,0,0,,1,,,73,127
11956,note_off,0,0,0,,11,,,70,127
11956,note_off,0,0,0,,7,,,55,127
11957,note_on,1,0,0,,5,,,53,127
11957,note_on,0,0,0,,10,,,69,127
11957,note_on,0,0,0,,4,,,76,127
12011,note_off,54,0,0,,4,,,76,127
12012,note_on,1,0,0,,2,,,74,127
12066,note_off,54,0,0,,2,,,74,127
12067,note_on,1,0,0,,1,,,73,127
12121,note_off,54,0,0,,1,,,73,127
12122,note_on,1,0,0,,2,,,74,127
12176,note_off,54,0,0,,2,,,74,127
12176,note_off,0,0,0,,5,,,53,127
12177,note_on,1,0,0,,4,,,52,127
12177,note_on,0,0,0,,4,,,76,127
12395,note_off,218,0,0,,4,,,76,127
12395,note_off,0,0,0,,4,,,52,127
12396,note_on,1,0,0,,2,,,50,127
12396,note_on,0,0,0,,5,,,77,127
12614,note_off,218,0,0,,5,,,77,127
12614,note_off,0,0,0,,2,,,50,127
12614,note_off,0,0,0,,10,,,69,127
12615,note_on,1,0,0,,7,,,55,127
12615,note_on,0,0,0,,4,,,76,127
12615,note_on,0,0,0,,7,,,67,127
12833,note_off,218,0,0,,7,,,67,127
12833,note_off,0,0,0,,4,,,76,127
12833,note_off,0,0,0,,7,,,55,127
12834,note_on,1,0,0,,10,,,57,127
12834,note_on,0,0,0,,2,,,74,127
12834,note_on,0,0,0,,5,,,65,127
13052,note_off,218,0,0,,5,,,65,127
13052,note_off,0,0,0,,2,,,74,127
13052,note_off,0,0,0,,10,,,57,127
13053,note_on,1,0,0,,10,,,45,127
13053,note_on,0,0,0,,4,,,64,127
13053,note_on,0,0,0,,1,,,73,127
13271,note_off,218,0,0,,1,,,73,127
13271,note_off,0,0,0,,4,,,64,127
13271,note_off,0,0,0,,10,,,45,127
13272,note_on,1,0,0,,2,,,38,127
13272,note_on,0,0,0,,2,,,50,127
13272,note_on,0,0,0,,5,,,65,127
13272,note_on,0,0,0,,4,,,76,127
13326,note_off,54,0,0,,4,,,76,127
13327,note_on,1,0,0,,2,,,74,127
13381,note_off,54,0,0,,2,,,74,127
13382,note_on,1,0,0,,4,,,76,127
13436,note_off,54,0,0,,4,,,76,127
13437,note_on,1,0,0,,2,,,74,127
13491,note_off,54,0,0,,2,,,74,127
13492,note_on,1,0,0,,5,,,77,127
13710,note_off,218,0,0,,5,,,77,127
13711,note_on,1,0,0,,2,,,74,127
13929,note_off,218,0,0,,2,,,74,127
13929,note_off,0,0,0,,5,,,65,127
13929,note_off,0,0,0,,2,,,50,127
13929,note_off,0,0,0,,2,,,38,127
13930,note_on,1,0,0,,10,,,45,127
13930,note_on,0,0,0,,10,,,57,127
13930,note_on,0,0,0,,10,,,69,127
13930,note_on,0,0,0,,5,,,77,127
13984,note_off,54,0,0,,5,,,77,127
13985,note_on,1,0,0,,4,,,76,127
14039,note_off,54,0,0,,4,,,76,127
14040,note_on,1,0,0,,5,,,77,127
14094,note_off,54,0,0,,5,,,77,127
14095,note_on,1,0,0,,4,,,76,127
14149,note_off,54,0,0,,4,,,76,127
14150,note_on,1,0,0,,10,,,81,127
14368,note_off,218,0,0,,10,,,81,127
14369,note_on,1,0,0,,1,,,73,127
14587,note_off,218,0,0,,1,,,73,127
14587,note_off,0,0,0,,10,,,69,127
14587,note_off,0,0,0,,10,,,57,127
14587,note_off,0,0,0,,10,,,45,127
14588,note_on,1,0,0,,5,,,53,127
14588,note_on,0,0,0,,10,,,69,127
14588,note_on,0,0,0,,4,,,76,127
14642,note_off,54,0,0,,4,,,76,127
14643,note_on,1,0,0,,2,,,74,127
14697,note_off,54,0,0,,2,,,74,127
14698,note_on,1,0,0,,1,,,73,127
14752,note_off,54,0,0,,1,,,73,127
14753,note_on,1,0,0,,2,,,74,127
14807,note_off,54,0,0,,2,,,74,127
14807,note_off,0,0,0,,5,,,53,127
14808,note_on,1,0,0,,2,,,50,127
14808,note_on,0,0,0,,5,,,77,127
15026,note_off,218,0,0,,2,,,50,127
15027,note_on,1,0,0,,10,,,45,127
15245,note_off,218,0,0,,10,,,45,127
15246,note_on,1,0,0,,5,,,41,127
15464,note_off,218,0,0,,5,,,41,127
15465,note_on,1,0,0,,2,,,38,127
15566,note_off,101,0,0,,5,,,77,127
15566,note_off,0,0,0,,10,,,69,127
15684,note_off,118,0,0,,2,,,38,127
15685,note_on,1,0,0,,12,,,47,127
15685,note_on,0,0,0,,5,,,77,127
15685,note_on,0,0,0,,4,,,76,127
15739,note_off,54,0,0,,4,,,76,127
15740,note_on,1,0,0,,2,,,74,127
15794,note_off,54,0,0,,2,,,74,127
15795,note_on,1,0,0,,4,,,76,127
15849,note_off,54,0,0,,4,,,76,127
15850,note_on,1,0,0,,2,,,74,127
15904,note_off,54,0,0,,2,,,74,127
15904,note_off,0,0,0,,5,,,77,127
15904,note_off,0,0,0,,12,,,47,127
15905,note_on,1,0,0,,0,,,36,127
15905,note_on,0,0,0,,0,,,48,127
15905,note_on,0,0,0,,7,,,67,127
15905,note_on,0,0,0,,5,,,77,127
15959,note_off,54,0,0,,5,,,77,127
15960,note_on,1,0,0,,4,,,76,127
16014,note_off,54,0,0,,4,,,76,127
16015,note_on,1,0,0,,5,,,77,127
16069,note_off,54,0,0,,5,,,77,127
16070,note_on,1,0,0,,4,,,76,127
16124,note_off,54,0,0,,4,,,76,127
16125,note_on,1,0,0,,2,,,74,127
16343,note_off,218,0,0,,2,,,74,127
16344,note_on,1,0,0,,4,,,76,127
16562,note_off,218,0,0,,4,,,76,127
16562,note_off,0,0,0,,7,,,67,127
16562,note_off,0,0,0,,0,,,48,127
16562,note_off,0,0,0,,0,,,36,127
16563,note_on,1,0,0,,7,,,43,127
16563,note_on,0,0,0,,7,,,55,127
16563,note_on,0,0,0,,7,,,67,127
16563,note_on,0,0,0,,4,,,76,127
16617,note_off,54,0,0,,4,,,76,127
16618,note_on,1,0,0,,2,,,74,127
16672,note_off,54,0,0,,2,,,74,127
16673,note_on,1,0,0,,4,,,76,127
16727,note_off,54,0,0,,4,,,76,127
16728,note_on,1,0,0,,2,,,74,127
16782,note_off,54,0,0,,2,,,74,127
16783,note_on,1,0,0,,7,,,79,127
17001,note_off,218,0,0,,7,,,79,127
17001,note_off,0,0,0,,7,,,67,127
17002,note_on,1,0,0,,12,,,71,127
17220,note_off,218,0,0,,12,,,71,127
17220,note_off,0,0,0,,7,,,55,127
17220,note_off,0,0,0,,7,,,43,127
17221,note_on,1,0,0,,4,,,52,127
17221,note_on,0,0,0,,7,,,67,127
17221,note_on,0,0,0,,2,,,74,127
17275,note_off,54,0,0,,2,,,74,127
17276,note_on,1,0,0,,0,,,72,127
17330,note_off,54,0,0,,0,,,72,127
17331,note_on,1,0,0,,12,,,71,127
17385,note_off,54,0,0,,12,,,71,127
17386,note_on,1,0,0,,0,,,72,127
17440,note_off,54,0,0,,0,,,72,127
17440,note_off,0,0,0,,4,,,52,127
17441,note_on,1,0,0,,0,,,48,127
17441,note_on,0,0,0,,4,,,76,127
17659,note_off,218,0,0,,0,,,48,127
17660,note_on,1,0,0,,7,,,43,127
17878,note_off,218,0,0,,7,,,43,127
17879,note_on,1,0,0,,4,,,40,127
18097,note_off,218,0,0,,4,,,40,127
18098,note_on,1,0,0,,0,,,36,127
18223,note_off,125,0,0,,7,,,67,127
18225,note_off,2,0,0,,4,,,76,127
18316,note_off,91,0,0,,0,,,36,127
18317,note_on,1,0,0,,10,,,45,127
18317,note_on,0,0,0,,4,,,76,127
18317,note_on,0,0,0,,0,,,72,127
18535,note_off,218,0,0,,0,,,72,127
18535,note_off,0,0,0,,4,,,76,127
18535,note_off,0,0,0,,10,,,45,127
18536,note_on,1,0,0,,11,,,46,127
18536,note_on,0,0,0,,11,,,34,127
18536,note_on,0,0,0,,11,,,70,127
18536,note_on,0,0,0,,2,,,74,127
18754,note_off,218,0,0,,2,,,74,127
18755,note_on,1,0,0,,5,,,77,127
18973,note_off,218,0,0,,5,,,77,127
18973,note_off,0,0,0,,11,,,70,127
18974,note_on,1,0,0,,11,,,70,127
18974,note_on,0,0,0,,2,,,74,127
19192,note_off,218,0,0,,2,,,74,127
19192,note_off,0,0,0,,11,,,70,127
19192,note_off,0,0,0,,11,,,34,127
19192,note_off,0,0,0,,11,,,46,127
19193,note_on,1,0,0,,5,,,41,127
19193,note_on,0,0,0,,5,,,53,127
19193,note_on,0,0,0,,10,,,69,127
19193,note_on,0,0,0,,2,,,74,127
19247,note_off,54,0,0,,2,,,74,127
19248,note_on,1,0,0,,0,,,72,127
19302,note_off,54,0,0,,0,,,72,127
19303,note_on,1,0,0,,2,,,74,127
19357,note_off,54,0,0,,2,,,74,127
19358,note_on,1,0,0,,0,,,72,127
19412,note_off,54,0,0,,0,,,72,127
19413,note_on,1,0,0,,5,,,77,127
19631,note_off,218,0,0,,5,,,77,127
19631,note_off,0,0,0,,10,,,69,127
19632,note_on,1,0,0,,10,,,69,127
19632,note_on,0,0,0,,0,,,72,127
19850,note_off,218,0,0,,0,,,72,127
19850,note_off,0,0,0,,10,,,69,127
19850,note_off,0,0,0,,5,,,53,127
19850,note_off,0,0,0,,5,,,41,127
19851,note_on,1,0,0,,11,,,46,127
19851,note_on,0,0,0,,4,,,76,127
19905,note_off,54,0,0,,4,,,76,127
19906,note_on,1,0,0,,2,,,74,127
19960,note_off,54,0,0,,2,,,74,127
19961,note_on,1,0,0,,4,,,76,127
20015,note_off,54,0,0,,4,,,76,127
20016,note_on,1,0,0,,2,,,74,127
20070,note_off,54,0,0,,2,,,74,127
20071,note_on,1,0,0,,2,,,50,127
20071,note_on,0,0,0,,4,,,76,127
20125,note_off,54,0,0,,4,,,76,127
20126,note_on,1,0,0,,2,,,74,127
20180,note_off,54,0,0,,2,,,74,127
20181,note_on,1,0,0,,4,,,76,127
20235,note_off,54,0,0,,4,,,76,127
20236,note_on,1,0,0,,2,,,74,127
20290,note_off,54,0,0,,2,,,74,127
20290,note_off,0,0,0,,2,,,50,127
20291,note_on,1,0,0,,4,,,52,127
20291,note_on,0,0,0,,4,,,76,127
20345,note_off,54,0,0,,4,,,76,127
20346,note_on,1,0,0,,2,,,74,127
20400,note_off,54,0,0,,2,,,74,127
20401,note_on,1,0,0,,4,,,76,127
20455,note_off,54,0,0,,4,,,76,127
20456,note_on,1,0,0,,2,,,74,127
20510,note_off,54,0,0,,2,,,74,127
20510,note_off,0,0,0,,4,,,52,127
20511,note_on,1,0,0,,5,,,53,127
20511,note_on,0,0,0,,4,,,76,127
20565,note_off,54,0,0,,4,,,76,127
20566,note_on,1,0,0,,2,,,74,127
20620,note_off,54,0,0,,2,,,74,127
20621,note_on,1,0,0,,4,,,76,127
20675,note_off,54,0,0,,4,,,76,127
20676,note_on,1,0,0,,2,,,74,127
20730,note_off,54,0,0,,2,,,74,127
20730,note_off,0,0,0,,5,,,53,127
20731,note_on,1,0,0,,7,,,55,127
20731,note_on,0,0,0,,4,,,76,127
20785,note_off,54,0,0,,4,,,76,127
20786,note_on,1,0,0,,2,,,74,127
20840,note_off,54,0,0,,2,,,74,127
20841,note_on,1,0,0,,4,,,76,127
20895,note_off,54,0,0,,4,,,76,127
20896,note_on,1,0,0,,2,,,74,127
20950,note_off,54,0,0,,2,,,74,127
20950,note_off,0,0,0,,7,,,55,127
20951,note_on,1,0,0,,8,,,56,127
20951,note_on,0,0,0,,4,,,76,127
21005,note_off,54,0,0,,4,,,76,127
21006,note_on,1,0,0,,2,,,74,127
21060,note_off,54,0,0,,2,,,74,127
21061,note_on,1,0,0,,1,,,73,127
21115,note_off,54,0,0,,1,,,73,127
21116,note_on,1,0,0,,2,,,74,127
21170,note_off,54,0,0,,2,,,74,127
21170,note_off,0,0,0,,8,,,56,127
21171,note_off,1,0,0,,11,,,46,127
21171,note_on,0,0,0,,10,,,45,127
21171,note_on,0,0,0,,10,,,57,127
21171,note_on,0,0,0,,4,,,64,127
21171,note_on,0,0,0,,1,,,73,127
21389,note_off,218,0,0,,1,,,73,127
21389,note_off,0,0,0,,4,,,64,127
21390,note_on,1,0,0,,2,,,74,127
21390,note_on,0,0,0,,5,,,65,127
21608,note_off,218,0,0,,5,,,65,127
21608,note_off,0,0,0,,2,,,74,127
21609,note_on,1,0,0,,4,,,76,127
21609,note_on,0,0,0,,7,,,67,127
21827,note_off,218,0,0,,7,,,67,127
21827,note_off,0,0,0,,4,,,76,127
21827,note_off,0,0,0,,10,,,57,127
21827,note_off,0,0,0,,10,,,45,127
21828,note_on,1,0,0,,10,,,45,127
21828,note_on,0,0,0,,10,,,57,127
21828,note_on,0,0,0,,5,,,77,127
21828,note_on,0,0,0,,10,,,69,127
22046,note_off,218,0,0,,5,,,77,127
22047,note_on,1,0,0,,7,,,79,127
22265,note_off,218,0,0,,7,,,79,127
22265,note_off,0,0,0,,10,,,69,127
22266,note_on,1,0,0,,8,,,80,127
22266,note_on,0,0,0,,12,,,71,127
22484,note_off,218,0,0,,12,,,71,127
22484,note_off,0,0,0,,8,,,80,127
22484,note_off,0,0,0,,10,,,57,127
22484,note_off,0,0,0,,10,,,45,127
22485,note_on,1,0,0,,10,,,45,127
22485,note_on,0,0,0,,10,,,57,127
22485,note_on,0,0,0,,1,,,73,127
22485,note_on,0,0,0,,10,,,81,127
22703,note_off,218,0,0,,1,,,73,127
22704,note_on,1,0,0,,2,,,74,127
22922,note_off,218,0,0,,2,,,74,127
22922,note_off,0,0,0,,10,,,57,127
22923,note_on,1,0,0,,7,,,55,127
22923,note_on,0,0,0,,4,,,76,127
23141,note_off,218,0,0,,4,,,76,127
23141,note_off,0,0,0,,7,,,55,127
23141,note_off,0,0,0,,10,,,81,127
23142,note_on,1,0,0,,7,,,55,127
23142,note_on,0,0,0,,10,,,81,127
23142,note_on,0,0,0,,10,,,69,127
23196,note_off,54,0,0,,7,,,55,127
23197,note_on,1,0,0,,5,,,53,127
23251,note_off,54,0,0,,5,,,53,127
23252,note_on,1,0,0,,7,,,55,127
23306,note_off,54,0,0,,7,,,55,127
23307,note_on,1,0,0,,5,,,53,127
23361,note_off,54,0,0,,5,,,53,127
23361,note_off,0,0,0,,10,,,81,127
23362,note_on,1,0,0,,4,,,52,127
23362,note_on,0,0,0,,7,,,79,127
23580,note_off,218,0,0,,7,,,79,127
23580,note_off,0,0,0,,4,,,52,127
23581,note_on,1,0,0,,2,,,50,127
23581,note_on,0,0,0,,5,,,77,127
23799,note_off,218,0,0,,5,,,77,127
23799,note_off,0,0,0,,2,,,50,127
23800,note_on,1,0,0,,10,,,57,127
23800,note_on,0,0,0,,5,,,77,127
23854,note_off,54,0,0,,5,,,77,127
23855,note_on,1,0,0,,4,,,76,127
23909,note_off,54,0,0,,4,,,76,127
23910,note_on,1,0,0,,5,,,77,127
23964,note_off,54,0,0,,5,,,77,127
23965,note_on,1,0,0,,4,,,76,127
24019,note_off,54,0,0,,4,,,76,127
24020,note_on,1,0,0,,2,,,74,127
24238,note_off,218,0,0,,2,,,74,127
24238,note_off,0,0,0,,10,,,57,127
24239,note_on,1,0,0,,7,,,55,127
24239,note_on,0,0,0,,1,,,73,127
24457,note_off,218,0,0,,1,,,73,127
24457,note_off,0,0,0,,7,,,55,127
24458,note_on,1,0,0,,7,,,55,127
24458,note_on,0,0,0,,4,,,76,127
24512,note_off,54,0,0,,4,,,76,127
24512,note_off,0,0,0,,7,,,55,127
24513,note_on,1,0,0,,5,,,53,127
24513,note_on,0,0,0,,2,,,74,127
24567,note_off,54,0,0,,2,,,74,127
24567,note_off,0,0,0,,5,,,53,127
24568,note_on,1,0,0,,7,,,55,127
24568,note_on,0,0,0,,4,,,76,127
24622,note_off,54,0,0,,4,,,76,127
24622,note_off,0,0,0,,7,,,55,127
24623,note_on,1,0,0,,5,,,53,127
24623,note_on,0,0,0,,2,,,74,127
24677,note_off,54,0,0,,2,,,74,127
24677,note_off,0,0,0,,5,,,53,127
24678,note_on,1,0,0,,4,,,52,127
24678,note_on,0,0,0,,1,,,73,127
24896,note_off,218,0,0,,1,,,73,127
24896,note_off,0,0,0,,4,,,52,127
24896,note_off,0,0,0,,10,,,45,127
24897,note_on,1,0,0,,2,,,50,127
24897,note_on,0,0,0,,2,,,74,127
25115,note_off,218,0,0,,2,,,74,127
25115,note_off,0,0,0,,2,,,50,127
25115,note_off,0,0,0,,10,,,69,127
25116,note_on,1,0,0,,10,,,57,127
25116,note_on,0,0,0,,10,,,45,127
25116,note_on,0,0,0,,10,,,69,127
25116,note_on,0,0,0,,2,,,74,127
25334,note_off,218,0,0,,2,,,74,127
25334,note_off,0,0,0,,10,,,69,127
25335,note_on,1,0,0,,4,,,76,127
25773,note_off,438,0,0,,4,,,76,127
25773,note_off,0,0,0,,10,,,45,127
25773,note_off,0,0,0,,10,,,57,127
26323,note_on,550,0,0,,10,,,57,127
26323,note_on,0,0,0,,2,,,62,127
26323,note_on,0,0,0,,10,,,69,127
26323,note_on,0,0,0,,5,,,65,127
26377,note_off,54,0,0,,5,,,65,127
26377,note_off,0,0,0,,2,,,62,127
26378,note_on,1,0,0,,1,,,61,127
26378,note_on,0,0,0,,4,,,64,127
26432,note_off,54,0,0,,4,,,64,127
26432,note_off,0,0,0,,1,,,61,127
26433,note_on,1,0,0,,2,,,62,127
26433,note_on,0,0,0,,5,,,65,127
26487,note_off,54,0,0,,5,,,65,127
26487,note_off,0,0,0,,2,,,62,127
26488,note_on,1,0,0,,1,,,61,127
26488,note_on,0,0,0,,4,,,64,127
26542,note_off,54,0,0,,4,,,64,127
26542,note_off,0,0,0,,1,,,61,127
26543,note_on,1,0,0,,12,,,59,127
26543,note_on,0,0,0,,2,,,62,127
26761,note_off,218,0,0,,2,,,62,127
26761,note_off,0,0,0,,12,,,59,127
26762,note_on,1,0,0,,1,,,61,127
26762,note_on,0,0,0,,4,,,64,127
26980,note_off,218,0,0,,4,,,64,127
26980,note_off,0,0,0,,1,,,61,127
26980,note_off,0,0,0,,10,,,69,127
26980,note_off,0,0,0,,10,,,57,127
26981,note_on,1,0,0,,10,,,57,127
26981,note_on,0,0,0,,4,,,64,127
26981,note_on,0,0,0,,10,,,69,127
26981,note_on,0,0,0,,7,,,67,127
27035,note_off,54,0,0,,7,,,67,127
27035,note_off,0,0,0,,4,,,64,127
27036,note_on,1,0,0,,2,,,62,127
27036,note_on,0,0,0,,5,,,65,127
27090,note_off,54,0,0,,5,,,65,127
27090,note_off,0,0,0,,2,,,62,127
27091,note_on,1,0,0,,4,,,64,127
27091,note_on,0,0,0,,7,,,67,127
27145,note_off,54,0,0,,7,,,67,127
27145,note_off,0,0,0,,4,,,64,127
27146,note_on,1,0,0,,2,,,62,127
27146,note_on,0,0,0,,5,,,65,127
27200,note_off,54,0,0,,5,,,65,127
27200,note_off,0,0,0,,2,,,62,127
27201,note_on,1,0,0,,1,,,61,127
27201,note_on,0,0,0,,4,,,64,127
27419,note_off,218,0,0,,4,,,64,127
27419,note_off,0,0,0,,1,,,61,127
27420,note_on,1,0,0,,2,,,62,127
27420,note_on,0,0,0,,5,,,65,127
27638,note_off,218,0,0,,5,,,65,127
27638,note_off,0,0,0,,2,,,62,127
27638,note_off,0,0,0,,10,,,69,127
27638,note_off,0,0,0,,10,,,57,127
27639,note_on,1,0,0,,10,,,57,127
27639,note_on,0,0,0,,2,,,62,127
27639,note_on,0,0,0,,10,,,69,127
27639,note_on,0,0,0,,5,,,65,127
27693,note_off,54,0,0,,5,,,65,127
27693,note_off,0,0,0,,2,,,62,127
27694,note_on,1,0,0,,1,,,61,127
27694,note_on,0,0,0,,4,,,64,127
27748,note_off,54,0,0,,4,,,64,127
27748,note_off,0,0,0,,1,,,61,127
27749,note_on,1,0,0,,2,,,62,127
27749,note_on,0,0,0,,5,,,65,127
27803,note_off,54,0,0,,5,,,65,127
27803,note_off,0,0,0,,2,,,62,127
27804,note_on,1,0,0,,1,,,61,127
27804,note_on,0,0,0,,4,,,64,127
27858,note_off,54,0,0,,4,,,64,127
27858,note_off,0,0,0,,1,,,61,127
27859,note_on,1,0,0,,12,,,59,127
27859,note_on,0,0,0,,2,,,62,127
28077,note_off,218,0,0,,2,,,62,127
28077,note_off,0,0,0,,12,,,59,127
28078,note_on,1,0,0,,1,,,61,127
28078,note_on,0,0,0,,4,,,64,127
28296,note_off,218,0,0,,4,,,64,127
28296,note_off,0,0,0,,1,,,61,127
28296,note_off,0,0,0,,10,,,69,127
28296,note_off,0,0,0,,10,,,57,127
28297,note_on,1,0,0,,10,,,57,127
28297,note_on,0,0,0,,4,,,64,127
28297,note_on,0,0,0,,10,,,69,127
28297,note_on,0,0,0,,7,,,67,127
28351,note_off,54,0,0,,7,,,67,127
28351,note_off,0,0,0,,4,,,64,127
28352,note_on,1,0,0,,2,,,62,127
28352,note_on,0,0,0,,5,,,65,127
28406,note_off,54,0,0,,5,,,65,127
28406,note_off,0,0,0,,2,,,62,127
28407,note_on,1,0,0,,4,,,64,127
28407,note_on,0,0,0,,7,,,67,127
28461,note_off,54,0,0,,7,,,67,127
28461,note_off,0,0,0,,4,,,64,127
28462,note_on,1,0,0,,2,,,62,127
28462,note_on,0,0,0,,5,,,65,127
28516,note_off,54,0,0,,5,,,65,127
28516,note_off,0,0,0,,2,,,62,127
28517,note_on,1,0,0,,1,,,61,127
28517,note_on,0,0,0,,4,,,64,127
28735,note_off,218,0,0,,4,,,64,127
28735,note_off,0,0,0,,1,,,61,127
28736,note_on,1,0,0,,2,,,62,127
28736,note_on,0,0,0,,5,,,65,127
28954,note_off,218,0,0,,5,,,65,127
28954,note_off,0,0,0,,2,,,62,127
28954,note_off,0,0,0,,10,,,69,127
28954,note_off,0,0,0,,10,,,57,127
28955,note_on,1,0,0,,7,,,55,127
28955,note_on,0,0,0,,4,,,64,127
28955,note_on,0,0,0,,12,,,71,127
28955,note_on,0,0,0,,7,,,67,127
29009,note_off,54,0,0,,7,,,67,127
29009,note_off,0,0,0,,4,,,64,127
29010,note_on,1,0,0,,2,,,62,127
29010,note_on,0,0,0,,5,,,65,127
29064,note_off,54,0,0,,5,,,65,127
29064,note_off,0,0,0,,2,,,62,127
29065,note_on,1,0,0,,4,,,64,127
29065,note_on,0,0,0,,7,,,67,127
29119,note_off,54,0,0,,7,,,67,127
29119,note_off,0,0,0,,4,,,64,127
29120,note_on,1,0,0,,2,,,62,127
29120,note_on,0,0,0,,5,,,65,127
29174,note_off,54,0,0,,5,,,65,127
29174,note_off,0,0,0,,2,,,62,127
29175,note_on,1,0,0,,0,,,60,127
29175,note_on,0,0,0,,4,,,64,127
29393,note_off,218,0,0,,4,,,64,127
29393,note_off,0,0,0,,0,,,60,127
29394,note_on,1,0,0,,2,,,62,127
29394,note_on,0,0,0,,5,,,65,127
29612,note_off,218,0,0,,5,,,65,127
29612,note_off,0,0,0,,2,,,62,127
29612,note_off,0,0,0,,12,,,71,127
29612,note_off,0,0,0,,7,,,55,127
29613,note_on,1,0,0,,7,,,55,127
29613,note_on,0,0,0,,5,,,65,127
29613,note_on,0,0,0,,0,,,72,127
29613,note_on,0,0,0,,10,,,69,127
29667,note_off,54,0,0,,10,,,69,127
29667,note_off,0,0,0,,5,,,65,127
29668,note_on,1,0,0,,4,,,64,127
29668,note_on,0,0,0,,7,,,67,127
29722,note_off,54,0,0,,7,,,67,127
29722,note_off,0,0,0,,4,,,64,127
29723,note_on,1,0,0,,5,,,65,127
29723,note_on,0,0,0,,10,,,69,127
29777,note_off,54,0,0,,10,,,69,127
29777,note_off,0,0,0,,5,,,65,127
29778,note_on,1,0,0,,4,,,64,127
29778,note_on,0,0,0,,7,,,67,127
29832,note_off,54,0,0,,7,,,67,127
29832,note_off,0,0,0,,4,,,64,127
29833,note_on,1,0,0,,2,,,62,127
29833,note_on,0,0,0,,5,,,65,127
30051,note_off,218,0,0,,5,,,65,127
30051,note_off,0,0,0,,2,,,62,127
30052,note_on,1,0,0,,4,,,64,127
30052,note_on,0,0,0,,7,,,67,127
30270,note_off,218,0,0,,7,,,67,127
30270,note_off,0,0,0,,4,,,64,127
30270,note_off,0,0,0,,0,,,72,127
30270,note_off,0,0,0,,7,,,55,127
30271,note_on,1,0,0,,7,,,55,127
30271,note_on,0,0,0,,4,,,64,127
30271,note_on,0,0,0,,2,,,74,127
30271,note_on,0,0,0,,7,,,67,127
30325,note_off,54,0,0,,7,,,67,127
30325,note_off,0,0,0,,4,,,64,127
30326,note_on,1,0,0,,2,,,62,127
30326,note_on,0,0,0,,5,,,65,127
30380,note_off,54,0,0,,5,,,65,127
30380,note_off,0,0,0,,2,,,62,127
30381,note_on,1,0,0,,4,,,64,127
30381,note_on,0,0,0,,7,,,67,127
30435,note_off,54,0,0,,7,,,67,127
30435,note_off,0,0,0,,4,,,64,127
30436,note_on,1,0,0,,2,,,62,127
30436,note_on,0,0,0,,5,,,65,127
30490,note_off,54,0,0,,5,,,65,127
30490,note_off,0,0,0,,2,,,62,127
30491,note_on,1,0,0,,0,,,60,127
30491,note_on,0,0,0,,4,,,64,127
30709,note_off,218,0,0,,4,,,64,127
30709,note_off,0,0,0,,0,,,60,127
30710,note_on,1,0,0,,2,,,62,127
30710,note_on,0,0,0,,5,,,65,127
30928,note_off,218,0,0,,5,,,65,127
30928,note_off,0,0,0,,2,,,62,127
30928,note_off,0,0,0,,2,,,74,127
30928,note_off,0,0,0,,7,,,55,127
30929,note_on,1,0,0,,0,,,60,127
30929,note_on,0,0,0,,0,,,48,127
30929,note_on,0,0,0,,3,,,75,127
30929,note_on,0,0,0,,4,,,64,127
31147,note_off,218,0,0,,4,,,64,127
31147,note_off,0,0,0,,3,,,75,127
31148,note_on,1,0,0,,4,,,76,127
31202,note_off,54,0,0,,4,,,76,127
31203,note_on,1,0,0,,3,,,75,127
31257,note_off,54,0,0,,3,,,75,127
31258,note_on,1,0,0,,4,,,76,127
31586,note_off,328,0,0,,0,,,48,127
31586,note_off,0,0,0,,0,,,60,127
31587,note_off,1,0,0,,4,,,76,127
32245,note_on,658,0,0,,10,,,57,127
32245,note_on,0,0,0,,2,,,62,127
32245,note_on,0,0,0,,10,,,69,127
32245,note_on,0,0,0,,5,,,65,127
32299,note_off,54,0,0,,5,,,65,127
32299,note_off,0,0,0,,2,,,62,127
32300,note_on,1,0,0,,1,,,61,127
32300,note_on,0,0,0,,4,,,64,127
32354,note_off,54,0,0,,4,,,64,127
32354,note_off,0,0,0,,1,,,61,127
32355,note_on,1,0,0,,2,,,62,127
32355,note_on,0,0,0,,5,,,65,127
32409,note_off,54,0,0,,5,,,65,127
32409,note_off,0,0,0,,2,,,62,127
32410,note_on,1,0,0,,1,,,61,127
32410,note_on,0,0,0,,4,,,64,127
32464,note_off,54,0,0,,4,,,64,127
32464,note_off,0,0,0,,1,,,61,127
32465,note_on,1,0,0,,12,,,59,127
32465,note_on,0,0,0,,2,,,62,127
32683,note_off,218,0,0,,2,,,62,127
32683,note_off,0,0,0,,12,,,59,127
32684,note_on,1,0,0,,1,,,61,127
32684,note_on,0,0,0,,4,,,64,127
32902,note_off,218,0,0,,4,,,64,127
32902,note_off,0,0,0,,1,,,61,127
32902,note_off,0,0,0,,10,,,69,127
32902,note_off,0,0,0,,10,,,57,127
32903,note_on,1,0,0,,10,,,57,127
32903,note_on,0,0,0,,4,,,64,127
32903,note_on,0,0,0,,10,,,69,127
32903,note_on,0,0,0,,7,,,67,127
32957,note_off,54,0,0,,7,,,67,127
32957,note_off,0,0,0,,4,,,64,127
32958,note_on,1,0,0,,2,,,62,127
32958,note_on,0,0,0,,5,,,65,127
33012,note_off,54,0,0,,5,,,65,127
33012,note_off,0,0,0,,2,,,62,127
33013,note_on,1,0,0,,4,,,64,127
33013,note_on,0,0,0,,7,,,67,127
33067,note_off,54,0,0,,7,,,67,127
33067,note_off,0,0,0,,4,,,64,127
33068,note_on,1,0,0,,2,,,62,127
33068,note_on,0,0,0,,5,,,65,127
33122,note_off,54,0,0,,5,,,65,127
33122,note_off,0,0,0,,2,,,62,127
33123,note_on,1,0,0,,1,,,61,127
33123,note_on,0,0,0,,4,,,64,127
33341,note_off,218,0,0,,4,,,64,127
33341,note_off,0,0,0,,1,,,61,127
33342,note_on,1,0,0,,2,,,62,127
33342,note_on,0,0,0,,5,,,65,127
33560,note_off,218,0,0,,5,,,65,127
33560,note_off,0,0,0,,2,,,62,127
33560,note_off,0,0,0,,10,,,69,127
33560,note_off,0,0,0,,10,,,57,127
33561,note_on,1,0,0,,2,,,62,127
33561,note_on,0,0,0,,10,,,57,127
33561,note_on,0,0,0,,10,,,69,127
33561,note_on,0,0,0,,5,,,65,127
33615,note_off,54,0,0,,5,,,65,127
33615,note_off,0,0,0,,2,,,62,127
33616,note_on,1,0,0,,1,,,61,127
33616,note_on,0,0,0,,4,,,64,127
33670,note_off,54,0,0,,4,,,64,127
33670,note_off,0,0,0,,1,,,61,127
33671,note_on,1,0,0,,2,,,62,127
33671,note_on,0,0,0,,5,,,65,127
33725,note_off,54,0,0,,5,,,65,127
33725,note_off,0,0,0,,2,,,62,127
33726,note_on,1,0,0,,1,,,61,127
33726,note_on,0,0,0,,4,,,64,127
33780,note_off,54,0,0,,4,,,64,127
33780,note_off,0,0,0,,1,,,61,127
33781,note_on,1,0,0,,12,,,59,127
33781,note_on,0,0,0,,2,,,62,127
33999,note_off,218,0,0,,2,,,62,127
33999,note_off,0,0,0,,12,,,59,127
34000,note_on,1,0,0,,1,,,61,127
34000,note_on,0,0,0,,4,,,64,127
34218,note_off,218,0,0,,4,,,64,127
34218,note_off,0,0,0,,1,,,61,127
34218,note_off,0,0,0,,10,,,69,127
34218,note_off,0,0,0,,10,,,57,127
34219,note_on,1,0,0,,10,,,57,127
34219,note_on,0,0,0,,4,,,64,127
34219,note_on,0,0,0,,10,,,69,127
34219,note_on,0,0,0,,7,,,67,127
34273,note_off,54,0,0,,7,,,67,127
34273,note_off,0,0,0,,4,,,64,127
34274,note_on,1,0,0,,2,,,62,127
34274,note_on,0,0,0,,5,,,65,127
34328,note_off,54,0,0,,5,,,65,127
34328,note_off,0,0,0,,2,,,62,127
34329,note_on,1,0,0,,4,,,64,127
34329,note_on,0,0,0,,7,,,67,127
34383,note_off,54,0,0,,7,,,67,127
34383,note_off,0,0,0,,4,,,64,127
34384,note_on,1,0,0,,2,,,62,127
34384,note_on,0,0,0,,5,,,65,127
34438,note_off,54,0,0,,5,,,65,127
34438,note_off,0,0,0,,2,,,62,127
34439,note_on,1,0,0,,1,,,61,127
34439,note_on,0,0,0,,4,,,64,127
34657,note_off,218,0,0,,4,,,64,127
34657,note_off,0,0,0,,1,,,61,127
34658,note_on,1,0,0,,2,,,62,127
34658,note_on,0,0,0,,5,,,65,127
34876,note_off,218,0,0,,5,,,65,127
34876,note_off,0,0,0,,2,,,62,127
34876,note_off,0,0,0,,10,,,69,127
34876,note_off,0,0,0,,10,,,57,127
34877,note_on,1,0,0,,0,,,60,127
34877,note_on,0,0,0,,10,,,57,127
34877,note_on,0,0,0,,2,,,62,127
34877,note_on,0,0,0,,6,,,66,127
34877,note_on,0,0,0,,11,,,70,127
34931,note_off,54,0,0,,11,,,70,127
34932,note_on,1,0,0,,10,,,69,127
34986,note_off,54,0,0,,10,,,69,127
34987,note_on,1,0,0,,11,,,70,127
35041,note_off,54,0,0,,11,,,70,127
35042,note_on,1,0,0,,10,,,69,127
35096,note_off,54,0,0,,10,,,69,127
35096,note_off,0,0,0,,6,,,66,127
35097,note_on,1,0,0,,4,,,64,127
35097,note_on,0,0,0,,7,,,67,127
35315,note_off,218,0,0,,7,,,67,127
35315,note_off,0,0,0,,4,,,64,127
35316,note_on,1,0,0,,6,,,66,127
35316,note_on,0,0,0,,10,,,69,127
35534,note_off,218,0,0,,10,,,69,127
35534,note_off,0,0,0,,6,,,66,127
35534,note_off,0,0,0,,2,,,62,127
35534,note_off,0,0,0,,10,,,57,127
35534,note_off,0,0,0,,0,,,60,127
35535,note_on,1,0,0,,7,,,55,127
35535,note_on,0,0,0,,2,,,62,127
35535,note_on,0,0,0,,7,,,67,127
35535,note_on,0,0,0,,0,,,72,127
35589,note_off,54,0,0,,0,,,72,127
35590,note_on,1,0,0,,11,,,70,127
35644,note_off,54,0,0,,11,,,70,127
35645,note_on,1,0,0,,0,,,72,127
35699,note_off,54,0,0,,0,,,72,127
35700,note_on,1,0,0,,11,,,70,127
35754,note_off,54,0,0,,11,,,70,127
35754,note_off,0,0,0,,7,,,67,127
35755,note_on,1,0,0,,10,,,69,127
35755,note_on,0,0,0,,6,,,66,127
35973,note_off,218,0,0,,6,,,66,127
35973,note_off,0,0,0,,10,,,69,127
35974,note_on,1,0,0,,11,,,70,127
35974,note_on,0,0,0,,7,,,67,127
36192,note_off,218,0,0,,7,,,67,127
36192,note_off,0,0,0,,11,,,70,127
36192,note_off,0,0,0,,2,,,62,127
36192,note_off,0,0,0,,7,,,55,127
36193,note_on,1,0,0,,2,,,62,127
36193,note_on,0,0,0,,0,,,60,127
36193,note_on,0,0,0,,10,,,57,127
36193,note_on,0,0,0,,10,,,69,127
36193,note_on,0,0,0,,2,,,74,127
36247,note_off,54,0,0,,2,,,74,127
36248,note_on,1,0,0,,0,,,72,127
36302,note_off,54,0,0,,0,,,72,127
36303,note_on,1,0,0,,2,,,74,127
36357,note_off,54,0,0,,2,,,74,127
36358,note_on,1,0,0,,0,,,72,127
36412,note_off,54,0,0,,0,,,72,127
36412,note_off,0,0,0,,10,,,69,127
36413,note_on,1,0,0,,11,,,70,127
36413,note_on,0,0,0,,7,,,67,127
36631,note_off,218,0,0,,7,,,67,127
36631,note_off,0,0,0,,11,,,70,127
36632,note_on,1,0,0,,0,,,72,127
36632,note_on,0,0,0,,10,,,69,127
36850,note_off,218,0,0,,10,,,69,127
36850,note_off,0,0,0,,0,,,72,127
36850,note_off,0,0,0,,10,,,57,127
36850,note_off,0,0,0,,0,,,60,127
36850,note_off,0,0,0,,2,,,62,127
36851,note_on,1,0,0,,7,,,55,127
36851,note_on,0,0,0,,2,,,62,127
36851,note_on,0,0,0,,1,,,73,127
37069,note_off,218,0,0,,1,,,73,127
37070,note_on,1,0,0,,2,,,74,127
37508,note_off,438,0,0,,2,,,62,127
37509,note_off,1,0,0,,2,,,74,127
37509,note_off,0,0,0,,7,,,55,127
37948,note_on,439,0,0,,5,,,65,127
37948,note_on,0,0,0,,10,,,69,127
37948,note_on,0,0,0,,10,,,57,127
37948,note_on,0,0,0,,2,,,62,127
38002,note_off,54,0,0,,2,,,62,127
38002,note_off,0,0,0,,5,,,65,127
38003,note_on,1,0,0,,4,,,64,127
38003,note_on,0,0,0,,1,,,61,127
38057,note_off,54,0,0,,1,,,61,127
38057,note_off,0,0,0,,4,,,64,127
38058,note_on,1,0,0,,5,,,65,127
38058,note_on,0,0,0,,2,,,62,127
38112,note_off,54,0,0,,2,,,62,127
38112,note_off,0,0,0,,5,,,65,127
38113,note_on,1,0,0,,4,,,64,127
38113,note_on,0,0,0,,1,,,61,127
38167,note_off,54,0,0,,1,,,61,127
38167,note_off,0,0,0,,4,,,64,127
38168,note_on,1,0,0,,2,,,62,127
38168,note_on,0,0,0,,12,,,59,127
38386,note_off,218,0,0,,12,,,59,127
38386,note_off,0,0,0,,2,,,62,127
38387,note_on,1,0,0,,4,,,64,127
38387,note_on,0,0,0,,1,,,61,127
38605,note_off,218,0,0,,1,,,61,127
38605,note_off,0,0,0,,4,,,64,127
38605,note_off,0,0,0,,10,,,57,127
38605,note_off,0,0,0,,10,,,69,127
38606,note_on,1,0,0,,7,,,67,127
38606,note_on,0,0,0,,10,,,69,127
38606,note_on,0,0,0,,4,,,64,127
38606,note_on,0,0,0,,10,,,57,127
38660,note_off,54,0,0,,4,,,64,127
38660,note_off,0,0,0,,7,,,67,127
38661,note_on,1,0,0,,5,,,65,127
38661,note_on,0,0,0,,2,,,62,127
38715,note_off,54,0,0,,2,,,62,127
38715,note_off,0,0,0,,5,,,65,127
38716,note_on,1,0,0,,7,,,67,127
38716,note_on,0,0,0,,4,,,64,127
38770,note_off,54,0,0,,4,,,64,127
38770,note_off,0,0,0,,7,,,67,127
38771,note_on,1,0,0,,5,,,65,127
38771,note_on,0,0,0,,2,,,62,127
38825,note_off,54,0,0,,2,,,62,127
38825,note_off,0,0,0,,5,,,65,127
38826,note_on,1,0,0,,4,,,64,127
38826,note_on,0,0,0,,1,,,61,127
39044,note_off,218,0,0,,1,,,61,127
39044,note_off,0,0,0,,4,,,64,127
39045,note_on,1,0,0,,5,,,65,127
39045,note_on,0,0,0,,2,,,62,127
39263,note_off,218,0,0,,2,,,62,127
39263,note_off,0,0,0,,5,,,65,127
39263,note_off,0,0,0,,10,,,57,127
39263,note_off,0,0,0,,10,,,69,127
39264,note_on,1,0,0,,5,,,65,127
39264,note_on,0,0,0,,10,,,69,127
39264,note_on,0,0,0,,10,,,57,127
39264,note_on,0,0,0,,2,,,62,127
39318,note_off,54,0,0,,2,,,62,127
39318,note_off,0,0,0,,5,,,65,127
39319,note_on,1,0,0,,4,,,64,127
39319,note_on,0,0,0,,1,,,61,127
39373,note_off,54,0,0,,1,,,61,127
39373,note_off,0,0,0,,4,,,64,127
39374,note_on,1,0,0,,5,,,65,127
39374,note_on,0,0,0,,2,,,62,127
39428,note_off,54,0,0,,2,,,62,127
39428,note_off,0,0,0,,5,,,65,127
39429,note_on,1,0,0,,4,,,64,127
39429,note_on,0,0,0,,1,,,61,127
39483,note_off,54,0,0,,1,,,61,127
39483,note_off,0,0,0,,4,,,64,127
39484,note_on,1,0,0,,2,,,62,127
39484,note_on,0,0,0,,12,,,59,127
39702,note_off,218,0,0,,12,,,59,127
39702,note_off,0,0,0,,2,,,62,127
39703,note_on,1,0,0,,4,,,64,127
39703,note_on,0,0,0,,1,,,61,127
39921,note_off,218,0,0,,1,,,61,127
39921,note_off,0,0,0,,4,,,64,127
39921,note_off,0,0,0,,10,,,57,127
39921,note_off,0,0,0,,10,,,69,127
39922,note_on,1,0,0,,7,,,67,127
39922,note_on,0,0,0,,10,,,69,127
39922,note_on,0,0,0,,4,,,64,127
39922,note_on,0,0,0,,10,,,57,127
39976,note_off,54,0,0,,4,,,64,127
39976,note_off,0,0,0,,7,,,67,127
39977,note_on,1,0,0,,5,,,65,127
39977,note_on,0,0,0,,2,,,62,127
40031,note_off,54,0,0,,2,,,62,127
40031,note_off,0,0,0,,5,,,65,127
40032,note_on,1,0,0,,7,,,67,127
40032,note_on,0,0,0,,4,,,64,127
40086,note_off,54,0,0,,4,,,64,127
40086,note_off,0,0,0,,7,,,67,127
40087,note_on,1,0,0,,5,,,65,127
40087,note_on,0,0,0,,2,,,62,127
40141,note_off,54,0,0,,2,,,62,127
40141,note_off,0,0,0,,5,,,65,127
40142,note_on,1,0,0,,4,,,64,127
40142,note_on,0,0,0,,1,,,61,127
40360,note_off,218,0,0,,1,,,61,127
40360,note_off,0,0,0,,4,,,64,127
40361,note_on,1,0,0,,5,,,65,127
40361,note_on,0,0,0,,2,,,62,127
40579,note_off,218,0,0,,2,,,62,127
40579,note_off,0,0,0,,5,,,65,127
40579,note_off,0,0,0,,10,,,57,127
40579,note_off,0,0,0,,10,,,69,127
40580,note_on,1,0,0,,12,,,71,127
40580,note_on,0,0,0,,4,,,64,127
40580,note_on,0,0,0,,2,,,62,127
40580,note_on,0,0,0,,10,,,57,127
40634,note_off,54,0,0,,2,,,62,127
40634,note_off,0,0,0,,12,,,71,127
40635,note_on,1,0,0,,10,,,69,127
40635,note_on,0,0,0,,0,,,60,127
40689,note_off,54,0,0,,0,,,60,127
40689,note_off,0,0,0,,10,,,69,127
40690,note_on,1,0,0,,12,,,71,127
40690,note_on,0,0,0,,2,,,62,127
40744,note_off,54,0,0,,2,,,62,127
40744,note_off,0,0,0,,12,,,71,127
40745,note_on,1,0,0,,10,,,69,127
40745,note_on,0,0,0,,0,,,60,127
40799,note_off,54,0,0,,0,,,60,127
40799,note_off,0,0,0,,10,,,69,127
40800,note_on,1,0,0,,8,,,68,127
40800,note_on,0,0,0,,12,,,59,127
41018,note_off,218,0,0,,12,,,59,127
41018,note_off,0,0,0,,8,,,68,127
41019,note_on,1,0,0,,10,,,69,127
41019,note_on,0,0,0,,0,,,60,127
41237,note_off,218,0,0,,0,,,60,127
41237,note_off,0,0,0,,10,,,69,127
41237,note_off,0,0,0,,10,,,57,127
41237,note_off,0,0,0,,4,,,64,127
41238,note_on,1,0,0,,0,,,72,127
41238,note_on,0,0,0,,8,,,68,127
41238,note_on,0,0,0,,12,,,59,127
41238,note_on,0,0,0,,2,,,62,127
41292,note_off,54,0,0,,8,,,68,127
41292,note_off,0,0,0,,0,,,72,127
41293,note_on,1,0,0,,12,,,71,127
41347,note_off,54,0,0,,12,,,71,127
41348,note_on,1,0,0,,0,,,72,127
41402,note_off,54,0,0,,0,,,72,127
41403,note_on,1,0,0,,12,,,71,127
41457,note_off,54,0,0,,12,,,71,127
41457,note_off,0,0,0,,2,,,62,127
41457,note_off,0,0,0,,12,,,59,127
41458,note_on,1,0,0,,10,,,69,127
41458,note_on,0,0,0,,0,,,60,127
41676,note_off,218,0,0,,0,,,60,127
41676,note_off,0,0,0,,10,,,69,127
41677,note_on,1,0,0,,12,,,71,127
41677,note_on,0,0,0,,8,,,68,127
41677,note_on,0,0,0,,12,,,59,127
41895,note_off,218,0,0,,12,,,59,127
41895,note_off,0,0,0,,8,,,68,127
41895,note_off,0,0,0,,12,,,71,127
41896,note_on,1,0,0,,2,,,74,127
41896,note_on,0,0,0,,10,,,69,127
41896,note_on,0,0,0,,10,,,57,127
41950,note_off,54,0,0,,2,,,74,127
41951,note_on,1,0,0,,0,,,72,127
42005,note_off,54,0,0,,0,,,72,127
42006,note_on,1,0,0,,2,,,74,127
42060,note_off,54,0,0,,2,,,74,127
42061,note_on,1,0,0,,0,,,72,127
42115,note_off,54,0,0,,0,,,72,127
42115,note_off,0,0,0,,10,,,57,127
42116,note_on,1,0,0,,12,,,71,127
42116,note_on,0,0,0,,8,,,56,127
42334,note_off,218,0,0,,8,,,56,127
42334,note_off,0,0,0,,12,,,71,127
42335,note_on,1,0,0,,0,,,72,127
42335,note_on,0,0,0,,10,,,57,127
42553,note_off,218,0,0,,10,,,57,127
42553,note_off,0,0,0,,0,,,72,127
42553,note_off,0,0,0,,10,,,69,127
42554,note_on,1,0,0,,12,,,71,127
42554,note_on,0,0,0,,2,,,74,127
42554,note_on,0,0,0,,10,,,57,127
42554,note_on,0,0,0,,5,,,53,127
42608,note_off,54,0,0,,12,,,71,127
42609,note_on,1,0,0,,10,,,69,127
42663,note_off,54,0,0,,10,,,69,127
42664,note_on,1,0,0,,12,,,71,127
42718,note_off,54,0,0,,12,,,71,127
42719,note_on,1,0,0,,10,,,69,127
42773,note_off,54,0,0,,10,,,69,127
42773,note_off,0,0,0,,5,,,53,127
42773,note_off,0,0,0,,2,,,74,127
42774,note_on,1,0,0,,12,,,71,127
42774,note_on,0,0,0,,0,,,72,127
42774,note_on,0,0,0,,4,,,52,127
42828,note_off,54,0,0,,12,,,71,127
42829,note_on,1,0,0,,10,,,69,127
42883,note_off,54,0,0,,10,,,69,127
42884,note_on,1,0,0,,12,,,71,127
42938,note_off,54,0,0,,12,,,71,127
42939,note_on,1,0,0,,10,,,69,127
42993,note_off,54,0,0,,10,,,69,127
42993,note_off,0,0,0,,0,,,72,127
42994,note_on,1,0,0,,12,,,71,127
42994,note_on,0,0,0,,2,,,74,127
43048,note_off,54,0,0,,12,,,71,127
43049,note_on,1,0,0,,10,,,69,127
43103,note_off,54,0,0,,10,,,69,127
43104,note_on,1,0,0,,12,,,71,127
43158,note_off,54,0,0,,12,,,71,127
43159,note_on,1,0,0,,10,,,69,127
43213,note_off,54,0,0,,10,,,69,127
43213,note_off,0,0,0,,2,,,74,127
43213,note_off,0,0,0,,4,,,52,127
43213,note_off,0,0,0,,10,,,57,127
43214,note_on,1,0,0,,5,,,77,127
43214,note_on,0,0,0,,10,,,69,127
43214,note_on,0,0,0,,0,,,48,127
43214,note_on,0,0,0,,10,,,57,127
43268,note_off,54,0,0,,5,,,77,127
43269,note_on,1,0,0,,4,,,76,127
43323,note_off,54,0,0,,4,,,76,127
43324,note_on,1,0,0,,5,,,77,127
43378,note_off,54,0,0,,5,,,77,127
43379,note_on,1,0,0,,4,,,76,127
43433,note_off,54,0,0,,4,,,76,127
43434,note_on,1,0,0,,2,,,74,127
43652,note_off,218,0,0,,2,,,74,127
43653,note_on,1,0,0,,0,,,72,127
43871,note_off,218,0,0,,0,,,72,127
43871,note_off,0,0,0,,10,,,57,127
43871,note_off,0,0,0,,0,,,48,127
43871,note_off,0,0,0,,10,,,69,127
43872,note_on,1,0,0,,0,,,72,127
43872,note_on,0,0,0,,10,,,57,127
43872,note_on,0,0,0,,12,,,59,127
43872,note_on,0,0,0,,2,,,50,127
43926,note_off,54,0,0,,0,,,72,127
43927,note_on,1,0,0,,12,,,71,127
43981,note_off,54,0,0,,12,,,71,127
43982,note_on,1,0,0,,0,,,72,127
44036,note_off,54,0,0,,0,,,72,127
44037,note_on,1,0,0,,12,,,71,127
44091,note_off,54,0,0,,12,,,71,127
44092,note_on,1,0,0,,5,,,77,127
44310,note_off,218,0,0,,5,,,77,127
44311,note_on,1,0,0,,10,,,69,127
44529,note_off,218,0,0,,10,,,69,127
44529,note_off,0,0,0,,2,,,50,127
44529,note_off,0,0,0,,12,,,59,127
44529,note_off,0,0,0,,10,,,57,127
44530,note_on,1,0,0,,8,,,68,127
44530,note_on,0,0,0,,4,,,52,127
44748,note_off,218,0,0,,8,,,68,127
44749,note_on,1,0,0,,4,,,64,127
44967,note_off,218,0,0,,4,,,64,127
44968,note_on,1,0,0,,4,,,64,127
44968,note_on,0,0,0,,2,,,62,127
45186,note_off,218,0,0,,2,,,62,127
45186,note_off,0,0,0,,4,,,64,127
45186,note_off,0,0,0,,4,,,52,127
45187,note_on,1,0,0,,10,,,69,127
45187,note_on,0,0,0,,0,,,72,127
45187,note_on,0,0,0,,4,,,76,127
45187,note_on,0,0,0,,4,,,64,127
45187,note_on,0,0,0,,0,,,60,127
45187,note_on,0,0,0,,4,,,52,127
45405,note_off,218,0,0,,0,,,60,127
45405,note_off,0,0,0,,4,,,64,127
45406,note_on,1,0,0,,4,,,64,127
45406,note_on,0,0,0,,12,,,59,127
45624,note_off,218,0,0,,12,,,59,127
45624,note_off,0,0,0,,4,,,64,127
45625,note_on,1,0,0,,4,,,64,127
45625,note_on,0,0,0,,10,,,57,127
45843,note_off,218,0,0,,10,,,57,127
45843,note_off,0,0,0,,4,,,64,127
45843,note_off,0,0,0,,4,,,52,127
45843,note_off,0,0,0,,4,,,76,127
45843,note_off,0,0,0,,0,,,72,127
45843,note_off,0,0,0,,10,,,69,127
45844,note_on,1,0,0,,12,,,71,127
45844,note_on,0,0,0,,2,,,74,127
45844,note_on,0,0,0,,4,,,64,127
45844,note_on,0,0,0,,4,,,52,127
45844,note_on,0,0,0,,8,,,56,127
46062,note_off,218,0,0,,8,,,56,127
46062,note_off,0,0,0,,4,,,52,127
46062,note_off,0,0,0,,4,,,64,127
46063,note_on,1,0,0,,4,,,64,127
46063,note_on,0,0,0,,4,,,52,127
46281,note_off,218,0,0,,4,,,64,127
46282,note_on,1,0,0,,4,,,64,127
46282,note_on,0,0,0,,2,,,62,127
46500,note_off,218,0,0,,2,,,62,127
46500,note_off,0,0,0,,4,,,64,127
46500,note_off,0,0,0,,4,,,52,127
46500,note_off,0,0,0,,2,,,74,127
46500,note_off,0,0,0,,12,,,71,127
46501,note_on,1,0,0,,0,,,72,127
46501,note_on,0,0,0,,4,,,76,127
46501,note_on,0,0,0,,4,,,64,127
46501,note_on,0,0,0,,10,,,69,127
46501,note_on,0,0,0,,0,,,60,127
46501,note_on,0,0,0,,4,,,52,127
46719,note_off,218,0,0,,0,,,60,127
46719,note_off,0,0,0,,4,,,64,127
46720,note_on,1,0,0,,4,,,64,127
46720,note_on,0,0,0,,12,,,59,127
46938,note_off,218,0,0,,12,,,59,127
46938,note_off,0,0,0,,4,,,64,127
46939,note_on,1,0,0,,4,,,64,127
46939,note_on,0,0,0,,10,,,57,127
47157,note_off,218,0,0,,10,,,57,127
47157,note_off,0,0,0,,4,,,64,127
47157,note_off,0,0,0,,4,,,52,127
47157,note_off,0,0,0,,10,,,69,127
47157,note_off,0,0,0,,4,,,76,127
47157,note_off,0,0,0,,0,,,72,127
47158,note_on,1,0,0,,4,,,64,127
47158,note_on,0,0,0,,12,,,71,127
47158,note_on,0,0,0,,2,,,74,127
47158,note_on,0,0,0,,4,,,52,127
47158,note_on,0,0,0,,8,,,56,127
47376,note_off,218,0,0,,8,,,56,127
47376,note_off,0,0,0,,4,,,52,127
47376,note_off,0,0,0,,4,,,64,127
47377,note_on,1,0,0,,4,,,64,127
47377,note_on,0,0,0,,4,,,52,127
47595,note_off,218,0,0,,4,,,64,127
47596,note_on,1,0,0,,4,,,64,127
47596,note_on,0,0,0,,2,,,62,127
47814,note_off,218,0,0,,2,,,62,127
47814,note_off,0,0,0,,4,,,64,127
47814,note_off,0,0,0,,4,,,52,127
47814,note_off,0,0,0,,2,,,74,127
47814,note_off,0,0,0,,12,,,71,127
47815,note_on,1,0,0,,0,,,72,127
47815,note_on,0,0,0,,4,,,76,127
47815,note_on,0,0,0,,4,,,64,127
47815,note_on,0,0,0,,10,,,69,127
47815,note_on,0,0,0,,4,,,52,127
47815,note_on,0,0,0,,0,,,60,127
48033,note_off,218,0,0,,0,,,60,127
48033,note_off,0,0,0,,4,,,64,127
48034,note_on,1,0,0,,4,,,64,127
48034,note_on,0,0,0,,12,,,59,127
48252,note_off,218,0,0,,12,,,59,127
48252,note_off,0,0,0,,4,,,64,127
48253,note_on,1,0,0,,4,,,64,127
48253,note_on,0,0,0,,10,,,57,127
48471,note_off,218,0,0,,10,,,57,127
48471,note_off,0,0,0,,4,,,64,127
48471,note_off,0,0,0,,4,,,52,127
48471,note_off,0,0,0,,10,,,69,127
48471,note_off,0,0,0,,4,,,76,127
48471,note_off,0,0,0,,0,,,72,127
48472,note_on,1,0,0,,7,,,79,127
48472,note_on,0,0,0,,2,,,50,127
48472,note_on,0,0,0,,10,,,57,127
48472,note_on,0,0,0,,12,,,59,127
48581,note_off,109,0,0,,7,,,79,127
48582,note_on,1,0,0,,5,,,77,127
48691,note_off,109,0,0,,5,,,77,127
48692,note_on,1,0,0,,4,,,76,127
48801,note_off,109,0,0,,4,,,76,127
48802,note_on,1,0,0,,2,,,74,127
48911,note_off,109,0,0,,2,,,74,127
48912,note_on,1,0,0,,0,,,72,127
49021,note_off,109,0,0,,0,,,72,127
49022,note_on,1,0,0,,12,,,71,127
49131,note_off,109,0,0,,12,,,71,127
49131,note_off,0,0,0,,12,,,59,127
49131,note_off,0,0,0,,10,,,57,127
49131,note_off,0,0,0,,2,,,50,127
49132,note_on,1,0,0,,10,,,69,127
49132,note_on,0,0,0,,0,,,60,127
49132,note_on,0,0,0,,4,,,52,127
49132,note_on,0,0,0,,10,,,57,127
49350,note_off,218,0,0,,0,,,60,127
49350,note_off,0,0,0,,10,,,69,127
49351,note_on,1,0,0,,10,,,69,127
49351,note_on,0,0,0,,12,,,59,127
49569,note_off,218,0,0,,12,,,59,127
49569,note_off,0,0,0,,10,,,69,127
49570,note_on,1,0,0,,10,,,69,127
49570,note_on,0,0,0,,2,,,62,127
49624,note_off,54,0,0,,10,,,69,127
49625,note_on,1,0,0,,8,,,68,127
49679,note_off,54,0,0,,8,,,68,127
49680,note_on,1,0,0,,6,,,66,127
49734,note_off,54,0,0,,6,,,66,127
49735,note_on,1,0,0,,8,,,68,127
49789,note_off,54,0,0,,8,,,68,127
49789,note_off,0,0,0,,2,,,62,127
49789,note_off,0,0,0,,10,,,57,127
49789,note_off,0,0,0,,4,,,52,127
49790,note_on,1,0,0,,8,,,68,127
49790,note_on,0,0,0,,10,,,45,127
49899,note_off,109,0,0,,8,,,68,127
49900,note_on,1,0,0,,10,,,69,127
50009,note_off,109,0,0,,10,,,69,127
50010,note_on,1,0,0,,4,,,64,127
50228,note_off,218,0,0,,4,,,64,127
50228,note_off,0,0,0,,10,,,45,127
50229,note_on,1,0,0,,4,,,64,127
50229,note_on,0,0,0,,2,,,62,127
50447,note_off,218,0,0,,2,,,62,127
50447,note_off,0,0,0,,4,,,64,127
50448,note_on,1,0,0,,0,,,72,127
50448,note_on,0,0,0,,4,,,64,127
50448,note_on,0,0,0,,10,,,69,127
50448,note_on,0,0,0,,4,,,76,127
50448,note_on,0,0,0,,4,,,52,127
50448,note_on,0,0,0,,0,,,60,127
50666,note_off,218,0,0,,0,,,60,127
50666,note_off,0,0,0,,4,,,64,127
50667,note_on,1,0,0,,4,,,64,127
50667,note_on,0,0,0,,12,,,59,127
50885,note_off,218,0,0,,12,,,59,127
50885,note_off,0,0,0,,4,,,64,127
50886,note_on,1,0,0,,4,,,64,127
50886,note_on,0,0,0,,10,,,57,127
51104,note_off,218,0,0,,10,,,57,127
51104,note_off,0,0,0,,4,,,64,127
51104,note_off,0,0,0,,4,,,52,127
51104,note_off,0,0,0,,4,,,76,127
51104,note_off,0,0,0,,10,,,69,127
51104,note_off,0,0,0,,0,,,72,127
51105,note_on,1,0,0,,4,,,64,127
51105,note_on,0,0,0,,2,,,74,127
51105,note_on,0,0,0,,12,,,71,127
51105,note_on,0,0,0,,4,,,52,127
51105,note_on,0,0,0,,8,,,56,127
51323,note_off,218,0,0,,8,,,56,127
51323,note_off,0,0,0,,4,,,52,127
51323,note_off,0,0,0,,4,,,64,127
51324,note_on,1,0,0,,4,,,64,127
51324,note_on,0,0,0,,4,,,52,127
51542,note_off,218,0,0,,4,,,64,127
51543,note_on,1,0,0,,4,,,64,127
51543,note_on,0,0,0,,2,,,62,127
51761,note_off,218,0,0,,2,,,62,127
51761,note_off,0,0,0,,4,,,64,127
51761,note_off,0,0,0,,4,,,52,127
51761,note_off,0,0,0,,12,,,71,127
51761,note_off,0,0,0,,2,,,74,127
51762,note_on,1,0,0,,4,,,64,127
51762,note_on,0,0,0,,4,,,76,127
51762,note_on,0,0,0,,10,,,69,127
51762,note_on,0,0,0,,0,,,72,127
51762,note_on,0,0,0,,0,,,60,127
51762,note_on,0,0,0,,4,,,52,127
51980,note_off,218,0,0,,0,,,60,127
51980,note_off,0,0,0,,4,,,64,127
51981,note_on,1,0,0,,4,,,64,127
51981,note_on,0,0,0,,12,,,59,127
52199,note_off,218,0,0,,12,,,59,127
52199,note_off,0,0,0,,4,,,64,127
52200,note_on,1,0,0,,4,,,64,127
52200,note_on,0,0,0,,10,,,57,127
52418,note_off,218,0,0,,10,,,57,127
52418,note_off,0,0,0,,4,,,64,127
52418,note_off,0,0,0,,4,,,52,127
52418,note_off,0,0,0,,0,,,72,127
52418,note_off,0,0,0,,10,,,69,127
52418,note_off,0,0,0,,4,,,76,127
52419,note_on,1,0,0,,2,,,74,127
52419,note_on,0,0,0,,4,,,64,127
52419,note_on,0,0,0,,12,,,71,127
52419,note_on,0,0,0,,4,,,52,127
52419,note_on,0,0,0,,8,,,56,127
52637,note_off,218,0,0,,8,,,56,127
52637,note_off,0,0,0,,4,,,52,127
52637,note_off,0,0,0,,4,,,64,127
52638,note_on,1,0,0,,4,,,64,127
52638,note_on,0,0,0,,4,,,52,127
52856,note_off,218,0,0,,4,,,64,127
52857,note_on,1,0,0,,4,,,64,127
52857,note_on,0,0,0,,2,,,62,127
53075,note_off,218,0,0,,2,,,62,127
53075,note_off,0,0,0,,4,,,64,127
53075,note_off,0,0,0,,4,,,52,127
53075,note_off,0,0,0,,12,,,71,127
53075,note_off,0,0,0,,2,,,74,127
53076,note_on,1,0,0,,4,,,64,127
53076,note_on,0,0,0,,10,,,69,127
53076,note_on,0,0,0,,0,,,72,127
53076,note_on,0,0,0,,4,,,76,127
53076,note_on,0,0,0,,4,,,52,127
53076,note_on,0,0,0,,0,,,60,127
53294,note_off,218,0,0,,0,,,60,127
53294,note_off,0,0,0,,4,,,64,127
53295,note_on,1,0,0,,4,,,64,127
53295,note_on,0,0,0,,12,,,59,127
53513,note_off,218,0,0,,12,,,59,127
53513,note_off,0,0,0,,4,,,64,127
53514,note_on,1,0,0,,4,,,64,127
53514,note_on,0,0,0,,10,,,57,127
53732,note_off,218,0,0,,10,,,57,127
53732,note_off,0,0,0,,4,,,64,127
53732,note_off,0,0,0,,4,,,52,127
53732,note_off,0,0,0,,4,,,76,127
53732,note_off,0,0,0,,0,,,72,127
53732,note_off,0,0,0,,10,,,69,127
53733,note_on,1,0,0,,7,,,79,127
53733,note_on,0,0,0,,10,,,57,127
53733,note_on,0,0,0,,12,,,59,127
53733,note_on,0,0,0,,2,,,50,127
53842,note_off,109,0,0,,7,,,79,127
53843,note_on,1,0,0,,5,,,77,127
53952,note_off,109,0,0,,5,,,77,127
53953,note_on,1,0,0,,4,,,76,127
54062,note_off,109,0,0,,4,,,76,127
54063,note_on,1,0,0,,2,,,74,127
54172,note_off,109,0,0,,2,,,74,127
54173,note_on,1,0,0,,0,,,72,127
54282,note_off,109,0,0,,0,,,72,127
54283,note_on,1,0,0,,12,,,71,127
54392,note_off,109,0,0,,12,,,71,127
54392,note_off,0,0,0,,2,,,50,127
54392,note_off,0,0,0,,12,,,59,127
54392,note_off,0,0,0,,10,,,57,127
54393,note_on,1,0,0,,10,,,69,127
54393,note_on,0,0,0,,10,,,57,127
54393,note_on,0,0,0,,0,,,60,127
54393,note_on,0,0,0,,4,,,52,127
54611,note_off,218,0,0,,0,,,60,127
54611,note_off,0,0,0,,10,,,69,127
54612,note_on,1,0,0,,10,,,69,127
54612,note_on,0,0,0,,12,,,59,127
54830,note_off,218,0,0,,12,,,59,127
54830,note_off,0,0,0,,10,,,69,127
54831,note_on,1,0,0,,10,,,69,127
54831,note_on,0,0,0,,2,,,62,127
54885,note_off,54,0,0,,10,,,69,127
54886,note_on,1,0,0,,8,,,68,127
54940,note_off,54,0,0,,8,,,68,127
54941,note_on,1,0,0,,6,,,66,127
54995,note_off,54,0,0,,6,,,66,127
54996,note_on,1,0,0,,8,,,68,127
55050,note_off,54,0,0,,8,,,68,127
55050,note_off,0,0,0,,2,,,62,127
55050,note_off,0,0,0,,4,,,52,127
55050,note_off,0,0,0,,10,,,57,127
55051,note_on,1,0,0,,8,,,68,127
55051,note_on,0,0,0,,10,,,45,127
55269,note_off,218,0,0,,8,,,68,127
55270,note_on,1,0,0,,10,,,69,127
55488,note_off,218,0,0,,10,,,69,127
55488,note_off,0,0,0,,10,,,45,127
55489,note_on,1,0,0,,10,,,81,127
55489,note_on,0,0,0,,0,,,48,127
55489,note_on,0,0,0,,10,,,57,127
55707,note_off,218,0,0,,10,,,57,127
55707,note_off,0,0,0,,0,,,48,127
55707,note_off,0,0,0,,10,,,81,127
55708,note_on,1,0,0,,12,,,71,127
55708,note_on,0,0,0,,12,,,59,127
55708,note_on,0,0,0,,10,,,57,127
55708,note_on,0,0,0,,2,,,50,127
55926,note_off,218,0,0,,12,,,71,127
55927,note_on,1,0,0,,12,,,71,127
56145,note_off,218,0,0,,12,,,71,127
56145,note_off,0,0,0,,2,,,50,127
56146,note_on,1,0,0,,10,,,81,127
56146,note_on,0,0,0,,4,,,52,127
56364,note_off,218,0,0,,4,,,52,127
56364,note_off,0,0,0,,10,,,81,127
56364,note_off,0,0,0,,10,,,57,127
56364,note_off,0,0,0,,12,,,59,127
56365,note_on,1,0,0,,12,,,71,127
56365,note_on,0,0,0,,12,,,59,127
56365,note_on,0,0,0,,10,,,57,127
56365,note_on,0,0,0,,5,,,53,127
56583,note_off,218,0,0,,12,,,71,127
56584,note_on,1,0,0,,12,,,71,127
56802,note_off,218,0,0,,12,,,71,127
56802,note_off,0,0,0,,5,,,53,127
56802,note_off,0,0,0,,10,,,57,127
56802,note_off,0,0,0,,12,,,59,127
56803,note_on,1,0,0,,10,,,81,127
56803,note_on,0,0,0,,10,,,57,127
56803,note_on,0,0,0,,0,,,48,127
57021,note_off,218,0,0,,0,,,48,127
57021,note_off,0,0,0,,10,,,57,127
57021,note_off,0,0,0,,10,,,81,127
57022,note_on,1,0,0,,12,,,71,127
57022,note_on,0,0,0,,12,,,59,127
57022,note_on,0,0,0,,2,,,50,127
57022,note_on,0,0,0,,10,,,57,127
57240,note_off,218,0,0,,12,,,71,127
57241,note_on,1,0,0,,12,,,71,127
57459,note_off,218,0,0,,12,,,71,127
57459,note_off,0,0,0,,2,,,50,127
57460,note_on,1,0,0,,10,,,81,127
57460,note_on,0,0,0,,4,,,52,127
57678,note_off,218,0,0,,4,,,52,127
57678,note_off,0,0,0,,10,,,81,127
57678,note_off,0,0,0,,10,,,57,127
57678,note_off,0,0,0,,12,,,59,127
57679,note_on,1,0,0,,12,,,71,127
57679,note_on,0,0,0,,12,,,59,127
57679,note_on,0,0,0,,10,,,57,127
57679,note_on,0,0,0,,5,,,53,127
57897,note_off,218,0,0,,12,,,71,127
57898,note_on,1,0,0,,7,,,79,127
58116,note_off,218,0,0,,7,,,79,127
58116,note_off,0,0,0,,5,,,53,127
58117,note_on,1,0,0,,5,,,77,127
58117,note_on,0,0,0,,2,,,50,127
58335,note_off,218,0,0,,2,,,50,127
58335,note_off,0,0,0,,5,,,77,127
58335,note_off,0,0,0,,10,,,57,127
58335,note_off,0,0,0,,12,,,59,127
58336,note_on,1,0,0,,4,,,76,127
58336,note_on,0,0,0,,4,,,52,127
58445,note_off,109,0,0,,4,,,76,127
58446,note_on,1,0,0,,2,,,74,127
58555,note_off,109,0,0,,2,,,74,127
58556,note_on,1,0,0,,0,,,72,127
58665,note_off,109,0,0,,0,,,72,127
58666,note_on,1,0,0,,12,,,71,127
58775,note_off,109,0,0,,12,,,71,127
58776,note_on,1,0,0,,10,,,69,127
58776,note_on,0,0,0,,4,,,40,127
58885,note_off,109,0,0,,10,,,69,127
58886,note_on,1,0,0,,8,,,68,127
58995,note_off,109,0,0,,8,,,68,127
58995,note_off,0,0,0,,4,,,40,127
58995,note_off,0,0,0,,4,,,52,127
58996,note_on,1,0,0,,8,,,68,127
58996,note_on,0,0,0,,10,,,45,127
59214,note_off,218,0,0,,8,,,68,127
59215,note_on,1,0,0,,10,,,69,127
59433,note_off,218,0,0,,10,,,69,127
59433,note_off,0,0,0,,10,,,45,127
59434,note_on,1,0,0,,10,,,69,127
59434,note_on,0,0,0,,10,,,57,127
59434,note_on,0,0,0,,0,,,48,127
59652,note_off,218,0,0,,0,,,48,127
59652,note_off,0,0,0,,10,,,57,127
59652,note_off,0,0,0,,10,,,69,127
59653,note_on,1,0,0,,12,,,59,127
59653,note_on,0,0,0,,2,,,50,127
59653,note_on,0,0,0,,10,,,57,127
59871,note_off,218,0,0,,12,,,59,127
59872,note_on,1,0,0,,12,,,59,127
60090,note_off,218,0,0,,12,,,59,127
60090,note_off,0,0,0,,2,,,50,127
60091,note_on,1,0,0,,10,,,69,127
60091,note_on,0,0,0,,4,,,52,127
60309,note_off,218,0,0,,4,,,52,127
60309,note_off,0,0,0,,10,,,69,127
60309,note_off,0,0,0,,10,,,57,127
60310,note_on,1,0,0,,12,,,59,127
60310,note_on,0,0,0,,10,,,57,127
60310,note_on,0,0,0,,5,,,53,127
60528,note_off,218,0,0,,12,,,59,127
60529,note_on,1,0,0,,12,,,59,127
60747,note_off,218,0,0,,12,,,59,127
60747,note_off,0,0,0,,5,,,53,127
60748,note_on,1,0,0,,10,,,69,127
60748,note_on,0,0,0,,0,,,48,127
60966,note_off,218,0,0,,0,,,48,127
60966,note_off,0,0,0,,10,,,69,127
60966,note_off,0,0,0,,10,,,57,127
60967,note_on,1,0,0,,12,,,59,127
60967,note_on,0,0,0,,10,,,57,127
60967,note_on,0,0,0,,2,,,50,127
61185,note_off,218,0,0,,12,,,59,127
61186,note_on,1,0,0,,12,,,59,127
61404,note_off,218,0,0,,12,,,59,127
61404,note_off,0,0,0,,2,,,50,127
61405,note_on,1,0,0,,10,,,69,127
61405,note_on,0,0,0,,4,,,52,127
61623,note_off,218,0,0,,4,,,52,127
61623,note_off,0,0,0,,10,,,69,127
61623,note_off,0,0,0,,10,,,57,127
61624,note_on,1,0,0,,12,,,59,127
61624,note_on,0,0,0,,10,,,57,127
61624,note_on,0,0,0,,5,,,53,127
61842,note_off,218,0,0,,12,,,59,127
61843,note_on,1,0,0,,5,,,65,127
62061,note_off,218,0,0,,5,,,53,127
62062,note_on,1,0,0,,2,,,50,127
62172,note_off,110,0,0,,5,,,65,127
62281,note_off,109,0,0,,2,,,50,127
62281,note_off,0,0,0,,10,,,57,127
62282,note_on,1,0,0,,4,,,64,127
62282,note_on,0,0,0,,4,,,52,127
62391,note_off,109,0,0,,4,,,64,127
62392,note_on,1,0,0,,2,,,62,127
62501,note_off,109,0,0,,2,,,62,127
62502,note_on,1,0,0,,0,,,60,127
62611,note_off,109,0,0,,0,,,60,127
62612,note_on,1,0,0,,12,,,59,127
62721,note_off,109,0,0,,12,,,59,127
62722,note_on,1,0,0,,10,,,57,127
62722,note_on,0,0,0,,4,,,40,127
62831,note_off,109,0,0,,10,,,57,127
62832,note_on,1,0,0,,8,,,56,127
62941,note_off,109,0,0,,8,,,56,127
62941,note_off,0,0,0,,4,,,40,127
62941,note_off,0,0,0,,4,,,52,127
62942,note_on,1,0,0,,10,,,57,127
62942,note_on,0,0,0,,10,,,45,127
63051,note_off,109,0,0,,10,,,57,127
63052,note_on,1,0,0,,12,,,59,127
63106,note_off,54,0,0,,12,,,59,127
63107,note_on,1,0,0,,0,,,60,127
63161,note_off,54,0,0,,0,,,60,127
63161,note_off,0,0,0,,10,,,45,127
63162,note_on,1,0,0,,2,,,62,127
63162,note_on,0,0,0,,12,,,47,127
63216,note_off,54,0,0,,2,,,62,127
63217,note_on,1,0,0,,4,,,64,127
63271,note_off,54,0,0,,4,,,64,127
63272,note_on,1,0,0,,6,,,66,127
63326,note_off,54,0,0,,6,,,66,127
63327,note_on,1,0,0,,8,,,68,127
63381,note_off,54,0,0,,8,,,68,127
63381,note_off,0,0,0,,12,,,47,127
63382,note_on,1,0,0,,10,,,69,127
63382,note_on,0,0,0,,0,,,48,127
63600,note_off,218,0,0,,0,,,48,127
63600,note_off,0,0,0,,10,,,69,127
63601,note_on,1,0,0,,0,,,72,127
63601,note_on,0,0,0,,2,,,50,127
63655,note_off,54,0,0,,0,,,72,127
63656,note_on,1,0,0,,12,,,71,127
63710,note_off,54,0,0,,12,,,71,127
63711,note_on,1,0,0,,0,,,72,127
63765,note_off,54,0,0,,0,,,72,127
63766,note_on,1,0,0,,12,,,71,127
63820,note_off,54,0,0,,12,,,71,127
63820,note_off,0,0,0,,2,,,50,127
63821,note_on,1,0,0,,0,,,72,127
63821,note_on,0,0,0,,4,,,52,127
63875,note_off,54,0,0,,0,,,72,127
63876,note_on,1,0,0,,12,,,71,127
63930,note_off,54,0,0,,12,,,71,127
63931,note_on,1,0,0,,0,,,72,127
63985,note_off,54,0,0,,0,,,72,127
63986,note_on,1,0,0,,12,,,71,127
64040,note_off,54,0,0,,12,,,71,127
64041,note_on,1,0,0,,0,,,72,127
64041,note_on,0,0,0,,4,,,40,127
64095,note_off,54,0,0,,0,,,72,127
64096,note_on,1,0,0,,12,,,71,127
64150,note_off,54,0,0,,12,,,71,127
64151,note_on,1,0,0,,10,,,69,127
64205,note_off,54,0,0,,10,,,69,127
64206,note_on,1,0,0,,12,,,71,127
64260,note_off,54,0,0,,12,,,71,127
64260,note_off,0,0,0,,4,,,40,127
64260,note_off,0,0,0,,4,,,52,127
64261,note_on,1,0,0,,10,,,69,127
64261,note_on,0,0,0,,10,,,45,127
64370,note_off,109,0,0,,10,,,69,127
64371,note_on,1,0,0,,12,,,71,127
64425,note_off,54,0,0,,12,,,71,127
64426,note_on,1,0,0,,0,,,72,127
64480,note_off,54,0,0,,0,,,72,127
64480,note_off,0,0,0,,10,,,45,127
64481,note_on,1,0,0,,2,,,74,127
64481,note_on,0,0,0,,12,,,47,127
64535,note_off,54,0,0,,2,,,74,127
64536,note_on,1,0,0,,4,,,76,127
64590,note_off,54,0,0,,4,,,76,127
64591,note_on,1,0,0,,6,,,78,127
64645,note_off,54,0,0,,6,,,78,127
64646,note_on,1,0,0,,8,,,80,127
64700,note_off,54,0,0,,8,,,80,127
64700,note_off,0,0,0,,12,,,47,127
64701,note_on,1,0,0,,10,,,81,127
64701,note_on,0,0,0,,0,,,48,127
64919,note_off,218,0,0,,0,,,48,127
64919,note_off,0,0,0,,10,,,81,127
64920,note_on,1,0,0,,0,,,84,127
64920,note_on,0,0,0,,2,,,50,127
64974,note_off,54,0,0,,0,,,84,127
64975,note_on,1,0,0,,12,,,83,127
65029,note_off,54,0,0,,12,,,83,127
65030,note_on,1,0,0,,0,,,84,127
65084,note_off,54,0,0,,0,,,84,127
65085,note_on,1,0,0,,12,,,83,127
65139,note_off,54,0,0,,12,,,83,127
65139,note_off,0,0,0,,2,,,50,127
65140,note_on,1,0,0,,0,,,84,127
65140,note_on,0,0,0,,4,,,52,127
65194,note_off,54,0,0,,0,,,84,127
65195,note_on,1,0,0,,12,,,83,127
65249,note_off,54,0,0,,12,,,83,127
65250,note_on,1,0,0,,0,,,84,127
65304,note_off,54,0,0,,0,,,84,127
65305,note_on,1,0,0,,12,,,83,127
65359,note_off,54,0,0,,12,,,83,127
65359,note_off,0,0,0,,4,,,52,127
65360,note_on,1,0,0,,0,,,84,127
65360,note_on,0,0,0,,4,,,40,127
65414,note_off,54,0,0,,0,,,84,127
65415,note_on,1,0,0,,12,,,83,127
65469,note_off,54,0,0,,12,,,83,127
65470,note_on,1,0,0,,10,,,81,127
65524,note_off,54,0,0,,10,,,81,127
65525,note_on,1,0,0,,12,,,83,127
65579,note_off,54,0,0,,12,,,83,127
65579,note_off,0,0,0,,4,,,40,127
65580,note_on,1,0,0,,12,,,83,127
65580,note_on,0,0,0,,10,,,45,127
65798,note_off,218,0,0,,12,,,83,127
65799,note_on,1,0,0,,10,,,81,127
66237,note_off,438,0,0,,10,,,45,127
66238,note_on,1,0,0,,4,,,64,127
66238,note_on,0,0,0,,10,,,57,127
66238,note_on,0,0,0,,4,,,76,127
66238,note_on,0,0,0,,1,,,73,127
66240,note_off,2,0,0,,10,,,81,127
66456,note_off,216,0,0,,1,,,73,127
66457,note_on,1,0,0,,10,,,69,127
66675,note_off,218,0,0,,10,,,69,127
66676,note_on,1,0,0,,10,,,69,127
66894,note_off,218,0,0,,10,,,69,127
66894,note_off,0,0,0,,4,,,76,127
66894,note_off,0,0,0,,10,,,57,127
66894,note_off,0,0,0,,4,,,64,127
66895,note_on,1,0,0,,7,,,55,127
66895,note_on,0,0,0,,4,,,64,127
66895,note_on,0,0,0,,2,,,62,127
66895,note_on,0,0,0,,11,,,70,127
66895,note_on,0,0,0,,4,,,76,127
67113,note_off,218,0,0,,11,,,70,127
67114,note_on,1,0,0,,7,,,67,127
67332,note_off,218,0,0,,7,,,67,127
67333,note_on,1,0,0,,7,,,67,127
67551,note_off,218,0,0,,7,,,67,127
67551,note_off,0,0,0,,4,,,76,127
67551,note_off,0,0,0,,2,,,62,127
67551,note_off,0,0,0,,4,,,64,127
67551,note_off,0,0,0,,7,,,55,127
67552,note_on,1,0,0,,10,,,57,127
67552,note_on,0,0,0,,4,,,64,127
67552,note_on,0,0,0,,2,,,62,127
67552,note_on,0,0,0,,1,,,73,127
67552,note_on,0,0,0,,4,,,76,127
67770,note_off,218,0,0,,1,,,73,127
67771,note_on,1,0,0,,10,,,69,127
67989,note_off,218,0,0,,10,,,69,127
67990,note_on,1,0,0,,10,,,69,127
68208,note_off,218,0,0,,10,,,69,127
68208,note_off,0,0,0,,4,,,76,127
68208,note_off,0,0,0,,2,,,62,127
68208,note_off,0,0,0,,4,,,64,127
68208,note_off,0,0,0,,10,,,57,127
68209,note_on,1,0,0,,7,,,55,127
68209,note_on,0,0,0,,4,,,64,127
68209,note_on,0,0,0,,2,,,62,127
68209,note_on,0,0,0,,11,,,70,127
68209,note_on,0,0,0,,4,,,76,127
68427,note_off,218,0,0,,11,,,70,127
68428,note_on,1,0,0,,7,,,67,127
68646,note_off,218,0,0,,7,,,67,127
68647,note_on,1,0,0,,7,,,67,127
68865,note_off,218,0,0,,7,,,67,127
68865,note_off,0,0,0,,4,,,76,127
68865,note_off,0,0,0,,2,,,62,127
68865,note_off,0,0,0,,4,,,64,127
68865,note_off,0,0,0,,7,,,55,127
68866,note_on,1,0,0,,7,,,55,127
68866,note_on,0,0,0,,0,,,60,127
68866,note_on,0,0,0,,11,,,58,127
68866,note_on,0,0,0,,4,,,64,127
68866,note_on,0,0,0,,0,,,72,127
68866,note_on,0,0,0,,11,,,70,127
68866,note_on,0,0,0,,4,,,76,127
69084,note_off,218,0,0,,11,,,70,127
69085,note_on,1,0,0,,7,,,67,127
69303,note_off,218,0,0,,7,,,67,127
69304,note_on,1,0,0,,7,,,67,127
69522,note_off,218,0,0,,7,,,67,127
69522,note_off,0,0,0,,4,,,76,127
69522,note_off,0,0,0,,0,,,72,127
69522,note_off,0,0,0,,4,,,64,127
69522,note_off,0,0,0,,11,,,58,127
69522,note_off,0,0,0,,0,,,60,127
69522,note_off,0,0,0,,7,,,55,127
69523,note_on,1,0,0,,5,,,53,127
69523,note_on,0,0,0,,0,,,60,127
69523,note_on,0,0,0,,10,,,57,127
69523,note_on,0,0,0,,0,,,72,127
69523,note_on,0,0,0,,10,,,69,127
69523,note_on,0,0,0,,5,,,65,127
69523,note_on,0,0,0,,5,,,77,127
69741,note_off,218,0,0,,5,,,65,127
69742,note_on,1,0,0,,5,,,65,127
69960,note_off,218,0,0,,5,,,65,127
69961,note_on,1,0,0,,5,,,65,127
70179,note_off,218,0,0,,5,,,65,127
70179,note_off,0,0,0,,5,,,77,127
70179,note_off,0,0,0,,10,,,69,127
70179,note_off,0,0,0,,0,,,72,127
70179,note_off,0,0,0,,10,,,57,127
70179,note_off,0,0,0,,0,,,60,127
70179,note_off,0,0,0,,5,,,53,127
70180,note_on,1,0,0,,4,,,52,127
70180,note_on,0,0,0,,0,,,48,127
70180,note_on,0,0,0,,0,,,60,127
70180,note_on,0,0,0,,7,,,55,127
70180,note_on,0,0,0,,7,,,67,127
70180,note_on,0,0,0,,4,,,76,127
70180,note_on,0,0,0,,11,,,70,127
70180,note_on,0,0,0,,7,,,79,127
70398,note_off,218,0,0,,7,,,67,127
70399,note_on,1,0,0,,7,,,67,127
70617,note_off,218,0,0,,7,,,67,127
70618,note_on,1,0,0,,7,,,67,127
70836,note_off,218,0,0,,7,,,67,127
70836,note_off,0,0,0,,7,,,79,127
70836,note_off,0,0,0,,11,,,70,127
70836,note_off,0,0,0,,4,,,76,127
70836,note_off,0,0,0,,7,,,55,127
70836,note_off,0,0,0,,0,,,60,127
70836,note_off,0,0,0,,0,,,48,127
70836,note_off,0,0,0,,4,,,52,127
70837,note_on,1,0,0,,0,,,60,127
70837,note_on,0,0,0,,5,,,53,127
70837,note_on,0,0,0,,5,,,65,127
70837,note_on,0,0,0,,10,,,57,127
70837,note_on,0,0,0,,10,,,69,127
70837,note_on,0,0,0,,5,,,77,127
70837,note_on,0,0,0,,0,,,72,127
70837,note_on,0,0,0,,10,,,81,127
71055,note_off,218,0,0,,10,,,69,127
71056,note_on,1,0,0,,10,,,69,127
71274,note_off,218,0,0,,10,,,69,127
71275,note_on,1,0,0,,10,,,69,127
71493,note_off,218,0,0,,10,,,69,127
71493,note_off,0,0,0,,10,,,81,127
71493,note_off,0,0,0,,0,,,72,127
71493,note_off,0,0,0,,5,,,77,127
71493,note_off,0,0,0,,10,,,57,127
71493,note_off,0,0,0,,5,,,65,127
71493,note_off,0,0,0,,5,,,53,127
71493,note_off,0,0,0,,0,,,60,127
71494,note_on,1,0,0,,2,,,50,127
71494,note_on,0,0,0,,2,,,62,127
71494,note_on,0,0,0,,11,,,58,127
71494,note_on,0,0,0,,5,,,53,127
71494,note_on,0,0,0,,11,,,82,127
71494,note_on,0,0,0,,5,,,77,127
71494,note_on,0,0,0,,2,,,74,127
71494,note_on,0,0,0,,11,,,70,127
71712,note_off,218,0,0,,11,,,70,127
71713,note_on,1,0,0,,11,,,70,127
71931,note_off,218,0,0,,11,,,70,127
71932,note_on,1,0,0,,11,,,70,127
72150,note_off,218,0,0,,11,,,70,127
72150,note_off,0,0,0,,2,,,74,127
72150,note_off,0,0,0,,5,,,77,127
72150,note_off,0,0,0,,11,,,82,127
72150,note_off,0,0,0,,5,,,53,127
72150,note_off,0,0,0,,11,,,58,127
72150,note_off,0,0,0,,2,,,62,127
72150,note_off,0,0,0,,2,,,50,127
72151,note_on,1,0,0,,3,,,51,127
72151,note_on,0,0,0,,7,,,55,127
72151,note_on,0,0,0,,11,,,58,127
72151,note_on,0,0,0,,3,,,63,127
72151,note_on,0,0,0,,7,,,67,127
72151,note_on,0,0,0,,3,,,75,127
72151,note_on,0,0,0,,11,,,70,127
72151,note_on,0,0,0,,7,,,79,127
72369,note_off,218,0,0,,7,,,67,127
72370,note_on,1,0,0,,7,,,67,127
72588,note_off,218,0,0,,7,,,67,127
72589,note_on,1,0,0,,7,,,67,127
72807,note_off,218,0,0,,7,,,67,127
72807,note_off,0,0,0,,7,,,79,127
72807,note_off,0,0,0,,11,,,70,127
72807,note_off,0,0,0,,3,,,75,127
72807,note_off,0,0,0,,3,,,63,127
72807,note_off,0,0,0,,11,,,58,127
72807,note_off,0,0,0,,7,,,55,127
72807,note_off,0,0,0,,3,,,51,127
72808,note_on,1,0,0,,5,,,53,127
72808,note_on,0,0,0,,3,,,63,127
72808,note_on,0,0,0,,0,,,60,127
72808,note_on,0,0,0,,10,,,57,127
72808,note_on,0,0,0,,10,,,69,127
72808,note_on,0,0,0,,10,,,81,127
72808,note_on,0,0,0,,5,,,77,127
72808,note_on,0,0,0,,0,,,72,127
73026,note_off,218,0,0,,10,,,69,127
73027,note_on,1,0,0,,10,,,69,127
73245,note_off,218,0,0,,10,,,69,127
73246,note_on,1,0,0,,10,,,69,127
73464,note_off,218,0,0,,10,,,69,127
73464,note_off,0,0,0,,0,,,72,127
73464,note_off,0,0,0,,5,,,77,127
73464,note_off,0,0,0,,10,,,81,127
73464,note_off,0,0,0,,10,,,57,127
73464,note_off,0,0,0,,0,,,60,127
73464,note_off,0,0,0,,3,,,63,127
73464,note_off,0,0,0,,5,,,53,127
73465,note_on,1,0,0,,11,,,46,127
73465,note_on,0,0,0,,11,,,58,127
73465,note_on,0,0,0,,5,,,53,127
73465,note_on,0,0,0,,2,,,50,127
73465,note_on,0,0,0,,11,,,82,127
73465,note_on,0,0,0,,5,,,77,127
73465,note_on,0,0,0,,11,,,70,127
73465,note_on,0,0,0,,2,,,74,127
73683,note_off,218,0,0,,11,,,70,127
73684,note_on,1,0,0,,11,,,70,127
73902,note_off,218,0,0,,11,,,70,127
73903,note_on,1,0,0,,11,,,70,127
74121,note_off,218,0,0,,11,,,70,127
74121,note_off,0,0,0,,2,,,74,127
74121,note_off,0,0,0,,5,,,77,127
74121,note_off,0,0,0,,11,,,82,127
74121,note_off,0,0,0,,2,,,50,127
74121,note_off,0,0,0,,5,,,53,127
74121,note_off,0,0,0,,11,,,58,127
74121,note_off,0,0,0,,11,,,46,127
74122,note_on,1,0,0,,2,,,50,127
74122,note_on,0,0,0,,11,,,46,127
74122,note_on,0,0,0,,7,,,43,127
74122,note_on,0,0,0,,7,,,55,127
74122,note_on,0,0,0,,7,,,79,127
74122,note_on,0,0,0,,11,,,82,127
74122,note_on,0,0,0,,2,,,74,127
74122,note_on,0,0,0,,11,,,70,127
74340,note_off,218,0,0,,11,,,70,127
74341,note_on,1,0,0,,11,,,70,127
74559,note_off,218,0,0,,11,,,70,127
74560,note_on,1,0,0,,11,,,70,127
74778,note_off,218,0,0,,11,,,70,127
74778,note_off,0,0,0,,2,,,74,127
74778,note_off,0,0,0,,11,,,82,127
74778,note_off,0,0,0,,7,,,79,127
74778,note_off,0,0,0,,7,,,55,127
74778,note_off,0,0,0,,7,,,43,127
74778,note_off,0,0,0,,11,,,46,127
74778,note_off,0,0,0,,2,,,50,127
74779,note_on,1,0,0,,7,,,55,127
74779,note_on,0,0,0,,3,,,51,127
74779,note_on,0,0,0,,0,,,48,127
74779,note_on,0,0,0,,0,,,60,127
74779,note_on,0,0,0,,10,,,81,127
74779,note_on,0,0,0,,0,,,72,127
74779,note_on,0,0,0,,10,,,69,127
74779,note_on,0,0,0,,3,,,75,127
74997,note_off,218,0,0,,10,,,69,127
74998,note_on,1,0,0,,10,,,69,127
75216,note_off,218,0,0,,10,,,69,127
75217,note_on,1,0,0,,10,,,69,127
75435,note_off,218,0,0,,10,,,69,127
75435,note_off,0,0,0,,3,,,75,127
75435,note_off,0,0,0,,0,,,72,127
75435,note_off,0,0,0,,10,,,81,127
75435,note_off,0,0,0,,0,,,60,127
75435,note_off,0,0,0,,0,,,48,127
75435,note_off,0,0,0,,3,,,51,127
75435,note_off,0,0,0,,7,,,55,127
75436,note_on,1,0,0,,0,,,60,127
75436,note_on,0,0,0,,10,,,57,127
75436,note_on,0,0,0,,7,,,55,127
75436,note_on,0,0,0,,3,,,51,127
75436,note_on,0,0,0,,3,,,75,127
75436,note_on,0,0,0,,0,,,72,127
75436,note_on,0,0,0,,7,,,67,127
75436,note_on,0,0,0,,7,,,79,127
75654,note_off,218,0,0,,7,,,67,127
75655,note_on,1,0,0,,7,,,67,127
75873,note_off,218,0,0,,7,,,67,127
75874,note_on,1,0,0,,7,,,67,127
76092,note_off,218,0,0,,7,,,67,127
76092,note_off,0,0,0,,7,,,79,127
76092,note_off,0,0,0,,0,,,72,127
76092,note_off,0,0,0,,3,,,75,127
76092,note_off,0,0,0,,3,,,51,127
76092,note_off,0,0,0,,7,,,55,127
76092,note_off,0,0,0,,10,,,57,127
76092,note_off,0,0,0,,0,,,60,127
76093,note_on,1,0,0,,2,,,50,127
76093,note_on,0,0,0,,10,,,57,127
76093,note_on,0,0,0,,2,,,62,127
76093,note_on,0,0,0,,6,,,78,127
76093,note_on,0,0,0,,10,,,69,127
76311,note_off,218,0,0,,10,,,69,127
76311,note_off,0,0,0,,6,,,78,127
76311,note_off,0,0,0,,2,,,62,127
76312,note_on,1,0,0,,2,,,62,127
76530,note_off,218,0,0,,2,,,62,127
76530,note_off,0,0,0,,10,,,57,127
76531,note_on,1,0,0,,0,,,60,127
76531,note_on,0,0,0,,2,,,62,127
76749,note_off,218,0,0,,2,,,62,127
76749,note_off,0,0,0,,0,,,60,127
76749,note_off,0,0,0,,2,,,50,127
76750,note_on,1,0,0,,2,,,50,127
76750,note_on,0,0,0,,11,,,58,127
76750,note_on,0,0,0,,2,,,62,127
76750,note_on,0,0,0,,7,,,67,127
76750,note_on,0,0,0,,2,,,74,127
76750,note_on,0,0,0,,11,,,70,127
76968,note_off,218,0,0,,2,,,62,127
76968,note_off,0,0,0,,11,,,58,127
76969,note_on,1,0,0,,10,,,57,127
76969,note_on,0,0,0,,2,,,62,127
77187,note_off,218,0,0,,2,,,62,127
77187,note_off,0,0,0,,10,,,57,127
77188,note_on,1,0,0,,7,,,55,127
77188,note_on,0,0,0,,2,,,62,127
77406,note_off,218,0,0,,2,,,62,127
77406,note_off,0,0,0,,7,,,55,127
77406,note_off,0,0,0,,11,,,70,127
77406,note_off,0,0,0,,2,,,74,127
77406,note_off,0,0,0,,7,,,67,127
77406,note_off,0,0,0,,2,,,50,127
77407,note_on,1,0,0,,6,,,54,127
77407,note_on,0,0,0,,2,,,50,127
77407,note_on,0,0,0,,2,,,62,127
77407,note_on,0,0,0,,0,,,72,127
77407,note_on,0,0,0,,10,,,69,127
77625,note_off,218,0,0,,2,,,62,127
77625,note_off,0,0,0,,2,,,50,127
77625,note_off,0,0,0,,6,,,54,127
77626,note_on,1,0,0,,2,,,50,127
77626,note_on,0,0,0,,2,,,62,127
77844,note_off,218,0,0,,2,,,62,127
77845,note_on,1,0,0,,0,,,60,127
77845,note_on,0,0,0,,2,,,62,127
78063,note_off,218,0,0,,2,,,62,127
78063,note_off,0,0,0,,0,,,60,127
78063,note_off,0,0,0,,2,,,50,127
78063,note_off,0,0,0,,10,,,69,127
78063,note_off,0,0,0,,0,,,72,127
78064,note_on,1,0,0,,11,,,58,127
78064,note_on,0,0,0,,2,,,50,127
78064,note_on,0,0,0,,2,,,62,127
78064,note_on,0,0,0,,2,,,74,127
78064,note_on,0,0,0,,11,,,70,127
78064,note_on,0,0,0,,7,,,67,127
78282,note_off,218,0,0,,2,,,62,127
78282,note_off,0,0,0,,11,,,58,127
78283,note_on,1,0,0,,10,,,57,127
78283,note_on,0,0,0,,2,,,62,127
78501,note_off,218,0,0,,2,,,62,127
78501,note_off,0,0,0,,10,,,57,127
78502,note_on,1,0,0,,7,,,55,127
78502,note_on,0,0,0,,2,,,62,127
78720,note_off,218,0,0,,2,,,62,127
78720,note_off,0,0,0,,7,,,55,127
78720,note_off,0,0,0,,7,,,67,127
78720,note_off,0,0,0,,11,,,70,127
78720,note_off,0,0,0,,2,,,74,127
78720,note_off,0,0,0,,2,,,50,127
78721,note_on,1,0,0,,2,,,50,127
78721,note_on,0,0,0,,6,,,54,127
78721,note_on,0,0,0,,2,,,62,127
78721,note_on,0,0,0,,0,,,72,127
78721,note_on,0,0,0,,10,,,69,127
78939,note_off,218,0,0,,2,,,62,127
78939,note_off,0,0,0,,6,,,54,127
78939,note_off,0,0,0,,2,,,50,127
78940,note_on,1,0,0,,2,,,50,127
78940,note_on,0,0,0,,2,,,62,127
79158,note_off,218,0,0,,2,,,62,127
79159,note_on,1,0,0,,0,,,60,127
79159,note_on,0,0,0,,2,,,62,127
79377,note_off,218,0,0,,2,,,62,127
79377,note_off,0,0,0,,0,,,60,127
79377,note_off,0,0,0,,2,,,50,127
79377,note_off,0,0,0,,10,,,69,127
79377,note_off,0,0,0,,0,,,72,127
79378,note_on,1,0,0,,2,,,50,127
79378,note_on,0,0,0,,11,,,58,127
79378,note_on,0,0,0,,7,,,67,127
79378,note_on,0,0,0,,2,,,74,127
79378,note_on,0,0,0,,11,,,70,127
79378,note_on,0,0,0,,2,,,62,127
79596,note_off,218,0,0,,2,,,62,127
79596,note_off,0,0,0,,11,,,58,127
79597,note_on,1,0,0,,10,,,57,127
79597,note_on,0,0,0,,2,,,62,127
79815,note_off,218,0,0,,2,,,62,127
79815,note_off,0,0,0,,10,,,57,127
79816,note_on,1,0,0,,7,,,55,127
79816,note_on,0,0,0,,2,,,62,127
80034,note_off,218,0,0,,2,,,62,127
80034,note_off,0,0,0,,7,,,55,127
80034,note_off,0,0,0,,11,,,70,127
80034,note_off,0,0,0,,2,,,74,127
80034,note_off,0,0,0,,7,,,67,127
80034,note_off,0,0,0,,2,,,50,127
80035,note_on,1,0,0,,1,,,49,127
80035,note_on,0,0,0,,10,,,57,127
80035,note_on,0,0,0,,1,,,73,127
80035,note_on,0,0,0,,10,,,69,127
80035,note_on,0,0,0,,4,,,64,127
80035,note_on,0,0,0,,4,,,76,127
80253,note_off,218,0,0,,4,,,64,127
80253,note_off,0,0,0,,1,,,49,127
80254,note_on,1,0,0,,10,,,45,127
80254,note_on,0,0,0,,4,,,64,127
80472,note_off,218,0,0,,4,,,64,127
80472,note_off,0,0,0,,10,,,45,127
80473,note_on,1,0,0,,1,,,49,127
80473,note_on,0,0,0,,4,,,64,127
80691,note_off,218,0,0,,4,,,64,127
80691,note_off,0,0,0,,1,,,49,127
80691,note_off,0,0,0,,4,,,76,127
80691,note_off,0,0,0,,10,,,69,127
80691,note_off,0,0,0,,1,,,73,127
80691,note_off,0,0,0,,10,,,57,127
80692,note_on,1,0,0,,2,,,50,127
80692,note_on,0,0,0,,10,,,57,127
80692,note_on,0,0,0,,5,,,65,127
80692,note_on,0,0,0,,5,,,77,127
80692,note_on,0,0,0,,2,,,74,127
80692,note_on,0,0,0,,10,,,69,127
80910,note_off,218,0,0,,10,,,69,127
80910,note_off,0,0,0,,5,,,65,127
80910,note_off,0,0,0,,2,,,50,127
80911,note_on,1,0,0,,5,,,53,127
80911,note_on,0,0,0,,5,,,65,127
80911,note_on,0,0,0,,10,,,69,127
81129,note_off,218,0,0,,5,,,65,127
81129,note_off,0,0,0,,5,,,53,127
81130,note_on,1,0,0,,2,,,50,127
81130,note_on,0,0,0,,5,,,65,127
81348,note_off,218,0,0,,5,,,65,127
81348,note_off,0,0,0,,2,,,50,127
81348,note_off,0,0,0,,10,,,69,127
81348,note_off,0,0,0,,2,,,74,127
81348,note_off,0,0,0,,5,,,77,127
81348,note_off,0,0,0,,10,,,57,127
81349,note_on,1,0,0,,11,,,46,127
81349,note_on,0,0,0,,7,,,55,127
81349,note_on,0,0,0,,11,,,70,127
81349,note_on,0,0,0,,7,,,67,127
81349,note_on,0,0,0,,2,,,74,127
81349,note_on,0,0,0,,7,,,79,127
81567,note_off,218,0,0,,7,,,67,127
81567,note_off,0,0,0,,11,,,46,127
81568,note_on,1,0,0,,2,,,50,127
81568,note_on,0,0,0,,7,,,67,127
81786,note_off,218,0,0,,7,,,67,127
81786,note_off,0,0,0,,2,,,50,127
81787,note_on,1,0,0,,11,,,46,127
81787,note_on,0,0,0,,7,,,67,127
82005,note_off,218,0,0,,7,,,67,127
82005,note_off,0,0,0,,11,,,46,127
82005,note_off,0,0,0,,7,,,79,127
82005,note_off,0,0,0,,2,,,74,127
82005,note_off,0,0,0,,11,,,70,127
82005,note_off,0,0,0,,7,,,55,127
82006,note_on,1,0,0,,5,,,41,127
82006,note_on,0,0,0,,2,,,74,127
82006,note_on,0,0,0,,10,,,69,127
82006,note_on,0,0,0,,10,,,81,127
82006,note_on,0,0,0,,5,,,77,127
82224,note_off,218,0,0,,10,,,69,127
82225,note_on,1,0,0,,2,,,50,127
82225,note_on,0,0,0,,10,,,69,127
82443,note_off,218,0,0,,10,,,69,127
82443,note_off,0,0,0,,2,,,50,127
82444,note_on,1,0,0,,5,,,53,127
82444,note_on,0,0,0,,10,,,69,127
82662,note_off,218,0,0,,10,,,69,127
82662,note_off,0,0,0,,5,,,53,127
82662,note_off,0,0,0,,5,,,77,127
82662,note_off,0,0,0,,10,,,81,127
82662,note_off,0,0,0,,2,,,74,127
82662,note_off,0,0,0,,5,,,41,127
82663,note_on,1,0,0,,7,,,43,127
82663,note_on,0,0,0,,7,,,55,127
82663,note_on,0,0,0,,2,,,74,127
82663,note_on,0,0,0,,11,,,82,127
82881,note_off,218,0,0,,11,,,82,127
82881,note_off,0,0,0,,2,,,74,127
82882,note_on,1,0,0,,10,,,81,127
82882,note_on,0,0,0,,0,,,72,127
83100,note_off,218,0,0,,0,,,72,127
83100,note_off,0,0,0,,10,,,81,127
83101,note_on,1,0,0,,7,,,79,127
83101,note_on,0,0,0,,11,,,70,127
83319,note_off,218,0,0,,11,,,70,127
83319,note_off,0,0,0,,7,,,79,127
83319,note_off,0,0,0,,7,,,55,127
83319,note_off,0,0,0,,7,,,43,127
83320,note_on,1,0,0,,7,,,43,127
83320,note_on,0,0,0,,7,,,55,127
83320,note_on,0,0,0,,5,,,77,127
83320,note_on,0,0,0,,10,,,69,127
83538,note_off,218,0,0,,10,,,69,127
83538,note_off,0,0,0,,5,,,77,127
83539,note_on,1,0,0,,4,,,76,127
83539,note_on,0,0,0,,7,,,67,127
83757,note_off,218,0,0,,7,,,67,127
83757,note_off,0,0,0,,4,,,76,127
83758,note_on,1,0,0,,5,,,65,127
83758,note_on,0,0,0,,2,,,74,127
83976,note_off,218,0,0,,2,,,74,127
83976,note_off,0,0,0,,5,,,65,127
83976,note_off,0,0,0,,7,,,55,127
83976,note_off,0,0,0,,7,,,43,127
83977,note_on,1,0,0,,10,,,45,127
83977,note_on,0,0,0,,10,,,57,127
83977,note_on,0,0,0,,1,,,73,127
83977,note_on,0,0,0,,4,,,64,127
84195,note_off,218,0,0,,1,,,73,127
84196,note_on,1,0,0,,10,,,69,127
84414,note_off,218,0,0,,10,,,69,127
84414,note_off,0,0,0,,4,,,64,127
84414,note_off,0,0,0,,10,,,57,127
84414,note_off,0,0,0,,10,,,45,127
84415,note_on,1,0,0,,7,,,67,127
84415,note_on,0,0,0,,10,,,69,127
84633,note_off,218,0,0,,10,,,69,127
84633,note_off,0,0,0,,7,,,67,127
84634,note_on,1,0,0,,5,,,65,127
84634,note_on,0,0,0,,10,,,57,127
84634,note_on,0,0,0,,10,,,69,127
84634,note_on,0,0,0,,10,,,81,127
84634,note_on,0,0,0,,5,,,77,127
84634,note_on,0,0,0,,2,,,74,127
84852,note_off,218,0,0,,10,,,69,127
84852,note_off,0,0,0,,5,,,65,127
84853,note_on,1,0,0,,4,,,64,127
84853,note_on,0,0,0,,10,,,69,127
85071,note_off,218,0,0,,10,,,69,127
85071,note_off,0,0,0,,4,,,64,127
85072,note_on,1,0,0,,2,,,62,127
85072,note_on,0,0,0,,10,,,69,127
85290,note_off,218,0,0,,10,,,69,127
85290,note_off,0,0,0,,2,,,62,127
85290,note_off,0,0,0,,2,,,74,127
85290,note_off,0,0,0,,5,,,77,127
85290,note_off,0,0,0,,10,,,81,127
85290,note_off,0,0,0,,10,,,57,127
85291,note_on,1,0,0,,1,,,61,127
85291,note_on,0,0,0,,10,,,57,127
85291,note_on,0,0,0,,4,,,76,127
85291,note_on,0,0,0,,10,,,69,127
85291,note_on,0,0,0,,7,,,79,127
85509,note_off,218,0,0,,10,,,69,127
85509,note_off,0,0,0,,10,,,57,127
85509,note_off,0,0,0,,1,,,61,127
85510,note_on,1,0,0,,10,,,57,127
85510,note_on,0,0,0,,10,,,69,127
85728,note_off,218,0,0,,10,,,69,127
85729,note_on,1,0,0,,7,,,67,127
85729,note_on,0,0,0,,10,,,69,127
85947,note_off,218,0,0,,10,,,69,127
85947,note_off,0,0,0,,7,,,67,127
85947,note_off,0,0,0,,10,,,57,127
85947,note_off,0,0,0,,7,,,79,127
85947,note_off,0,0,0,,4,,,76,127
85948,note_on,1,0,0,,5,,,65,127
85948,note_on,0,0,0,,10,,,57,127
85948,note_on,0,0,0,,10,,,69,127
85948,note_on,0,0,0,,10,,,81,127
85948,note_on,0,0,0,,5,,,77,127
85948,note_on,0,0,0,,2,,,74,127
86166,note_off,218,0,0,,10,,,69,127
86166,note_off,0,0,0,,5,,,65,127
86167,note_on,1,0,0,,4,,,64,127
86167,note_on,0,0,0,,10,,,69,127
86385,note_off,218,0,0,,10,,,69,127
86385,note_off,0,0,0,,4,,,64,127
86386,note_on,1,0,0,,2,,,62,127
86386,note_on,0,0,0,,10,,,69,127
86604,note_off,218,0,0,,10,,,69,127
86604,note_off,0,0,0,,2,,,62,127
86604,note_off,0,0,0,,2,,,74,127
86604,note_off,0,0,0,,5,,,77,127
86604,note_off,0,0,0,,10,,,81,127
86604,note_off,0,0,0,,10,,,57,127
86605,note_on,1,0,0,,1,,,61,127
86605,note_on,0,0,0,,10,,,57,127
86605,note_on,0,0,0,,10,,,69,127
86605,note_on,0,0,0,,7,,,79,127
86605,note_on,0,0,0,,4,,,76,127
86823,note_off,218,0,0,,10,,,69,127
86823,note_off,0,0,0,,10,,,57,127
86823,note_off,0,0,0,,1,,,61,127
86824,note_on,1,0,0,,10,,,57,127
86824,note_on,0,0,0,,10,,,69,127
87042,note_off,218,0,0,,10,,,69,127
87043,note_on,1,0,0,,7,,,67,127
87043,note_on,0,0,0,,10,,,69,127
87261,note_off,218,0,0,,10,,,69,127
87261,note_off,0,0,0,,7,,,67,127
87261,note_off,0,0,0,,10,,,57,127
87261,note_off,0,0,0,,4,,,76,127
87261,note_off,0,0,0,,7,,,79,127
87262,note_on,1,0,0,,5,,,65,127
87262,note_on,0,0,0,,10,,,57,127
87262,note_on,0,0,0,,10,,,81,127
87262,note_on,0,0,0,,5,,,77,127
87262,note_on,0,0,0,,2,,,74,127
87262,note_on,0,0,0,,10,,,69,127
87480,note_off,218,0,0,,10,,,69,127
87480,note_off,0,0,0,,5,,,65,127
87481,note_on,1,0,0,,4,,,64,127
87481,note_on,0,0,0,,10,,,69,127
87699,note_off,218,0,0,,10,,,69,127
87699,note_off,0,0,0,,4,,,64,127
87700,note_on,1,0,0,,2,,,62,127
87700,note_on,0,0,0,,10,,,69,127
87918,note_off,218,0,0,,10,,,69,127
87918,note_off,0,0,0,,2,,,62,127
87918,note_off,0,0,0,,2,,,74,127
87918,note_off,0,0,0,,5,,,77,127
87918,note_off,0,0,0,,10,,,81,127
87918,note_off,0,0,0,,10,,,57,127
87919,note_on,1,0,0,,7,,,55,127
87919,note_on,0,0,0,,4,,,64,127
87919,note_on,0,0,0,,0,,,84,127
88028,note_off,109,0,0,,0,,,84,127
88029,note_on,1,0,0,,11,,,82,127
88138,note_off,109,0,0,,11,,,82,127
88139,note_on,1,0,0,,10,,,81,127
88248,note_off,109,0,0,,10,,,81,127
88249,note_on,1,0,0,,7,,,79,127
88358,note_off,109,0,0,,7,,,79,127
88359,note_on,1,0,0,,5,,,77,127
88468,note_off,109,0,0,,5,,,77,127
88469,note_on,1,0,0,,4,,,76,127
88578,note_off,109,0,0,,4,,,76,127
88578,note_off,0,0,0,,4,,,64,127
88578,note_off,0,0,0,,7,,,55,127
88579,note_on,1,0,0,,5,,,65,127
88579,note_on,0,0,0,,10,,,57,127
88579,note_on,0,0,0,,2,,,74,127
88797,note_off,218,0,0,,2,,,74,127
88797,note_off,0,0,0,,5,,,65,127
88798,note_on,1,0,0,,4,,,64,127
88798,note_on,0,0,0,,2,,,74,127
89016,note_off,218,0,0,,4,,,64,127
89017,note_on,1,0,0,,7,,,67,127
89072,note_off,55,0,0,,2,,,74,127
89072,note_on,0,0,0,,1,,,73,127
89126,note_off,54,0,0,,1,,,73,127
89127,note_on,1,0,0,,12,,,71,127
89181,note_off,54,0,0,,12,,,71,127
89182,note_on,1,0,0,,1,,,73,127
89236,note_off,54,0,0,,1,,,73,127
89236,note_off,0,0,0,,7,,,67,127
89236,note_off,0,0,0,,10,,,57,127
89237,note_on,1,0,0,,2,,,50,127
89237,note_on,0,0,0,,1,,,73,127
89346,note_off,109,0,0,,1,,,73,127
89347,note_on,1,0,0,,2,,,74,127
89456,note_off,109,0,0,,2,,,74,127
89457,note_on,1,0,0,,10,,,69,127
89675,note_off,218,0,0,,10,,,69,127
89675,note_off,0,0,0,,2,,,50,127
89676,note_on,1,0,0,,7,,,67,127
89676,note_on,0,0,0,,10,,,69,127
89894,note_off,218,0,0,,10,,,69,127
89894,note_off,0,0,0,,7,,,67,127
89895,note_on,1,0,0,,10,,,57,127
89895,note_on,0,0,0,,5,,,65,127
89895,note_on,0,0,0,,2,,,74,127
89895,note_on,0,0,0,,10,,,81,127
89895,note_on,0,0,0,,5,,,77,127
89895,note_on,0,0,0,,10,,,69,127
90113,note_off,218,0,0,,10,,,69,127
90113,note_off,0,0,0,,5,,,65,127
90114,note_on,1,0,0,,4,,,64,127
90114,note_on,0,0,0,,10,,,69,127
90332,note_off,218,0,0,,10,,,69,127
90332,note_off,0,0,0,,4,,,64,127
90333,note_on,1,0,0,,2,,,62,127
90333,note_on,0,0,0,,10,,,69,127
90551,note_off,218,0,0,,10,,,69,127
90551,note_off,0,0,0,,2,,,62,127
90551,note_off,0,0,0,,5,,,77,127
90551,note_off,0,0,0,,10,,,81,127
90551,note_off,0,0,0,,2,,,74,127
90551,note_off,0,0,0,,10,,,57,127
90552,note_on,1,0,0,,1,,,61,127
90552,note_on,0,0,0,,10,,,57,127
90552,note_on,0,0,0,,4,,,76,127
90552,note_on,0,0,0,,10,,,69,127
90552,note_on,0,0,0,,7,,,79,127
90770,note_off,218,0,0,,10,,,69,127
90770,note_off,0,0,0,,10,,,57,127
90770,note_off,0,0,0,,1,,,61,127
90771,note_on,1,0,0,,10,,,57,127
90771,note_on,0,0,0,,10,,,69,127
90989,note_off,218,0,0,,10,,,69,127
90990,note_on,1,0,0,,7,,,67,127
90990,note_on,0,0,0,,10,,,69,127
91208,note_off,218,0,0,,10,,,69,127
91208,note_off,0,0,0,,7,,,67,127
91208,note_off,0,0,0,,10,,,57,127
91208,note_off,0,0,0,,7,,,79,127
91208,note_off,0,0,0,,4,,,76,127
91209,note_on,1,0,0,,5,,,65,127
91209,note_on,0,0,0,,10,,,57,127
91209,note_on,0,0,0,,10,,,81,127
91209,note_on,0,0,0,,10,,,69,127
91209,note_on,0,0,0,,5,,,77,127
91209,note_on,0,0,0,,2,,,74,127
91427,note_off,218,0,0,,10,,,69,127
91427,note_off,0,0,0,,5,,,65,127
91428,note_on,1,0,0,,4,,,64,127
91428,note_on,0,0,0,,10,,,69,127
91646,note_off,218,0,0,,10,,,69,127
91646,note_off,0,0,0,,4,,,64,127
91647,note_on,1,0,0,,2,,,62,127
91647,note_on,0,0,0,,10,,,69,127
91865,note_off,218,0,0,,10,,,69,127
91865,note_off,0,0,0,,2,,,62,127
91865,note_off,0,0,0,,2,,,74,127
91865,note_off,0,0,0,,5,,,77,127
91865,note_off,0,0,0,,10,,,81,127
91865,note_off,0,0,0,,10,,,57,127
91866,note_on,1,0,0,,1,,,61,127
91866,note_on,0,0,0,,10,,,57,127
91866,note_on,0,0,0,,4,,,76,127
91866,note_on,0,0,0,,10,,,69,127
91866,note_on,0,0,0,,7,,,79,127
92084,note_off,218,0,0,,10,,,69,127
92084,note_off,0,0,0,,10,,,57,127
92084,note_off,0,0,0,,1,,,61,127
92085,note_on,1,0,0,,10,,,57,127
92085,note_on,0,0,0,,10,,,69,127
92303,note_off,218,0,0,,10,,,69,127
92304,note_on,1,0,0,,7,,,67,127
92304,note_on,0,0,0,,10,,,69,127
92522,note_off,218,0,0,,10,,,69,127
92522,note_off,0,0,0,,7,,,67,127
92522,note_off,0,0,0,,10,,,57,127
92522,note_off,0,0,0,,7,,,79,127
92522,note_off,0,0,0,,4,,,76,127
92523,note_on,1,0,0,,10,,,57,127
92523,note_on,0,0,0,,5,,,65,127
92523,note_on,0,0,0,,2,,,74,127
92523,note_on,0,0,0,,10,,,81,127
92523,note_on,0,0,0,,5,,,77,127
92523,note_on,0,0,0,,10,,,69,127
92741,note_off,218,0,0,,10,,,69,127
92741,note_off,0,0,0,,5,,,65,127
92742,note_on,1,0,0,,4,,,64,127
92742,note_on,0,0,0,,10,,,69,127
92960,note_off,218,0,0,,10,,,69,127
92960,note_off,0,0,0,,4,,,64,127
92961,note_on,1,0,0,,2,,,62,127
92961,note_on,0,0,0,,10,,,69,127
93179,note_off,218,0,0,,10,,,69,127
93179,note_off,0,0,0,,2,,,62,127
93179,note_off,0,0,0,,5,,,77,127
93179,note_off,0,0,0,,10,,,81,127
93179,note_off,0,0,0,,2,,,74,127
93179,note_off,0,0,0,,10,,,57,127
93180,note_on,1,0,0,,7,,,55,127
93180,note_on,0,0,0,,4,,,64,127
93180,note_on,0,0,0,,2,,,62,127
93180,note_on,0,0,0,,0,,,84,127
93289,note_off,109,0,0,,0,,,84,127
93290,note_on,1,0,0,,11,,,82,127
93399,note_off,109,0,0,,11,,,82,127
93400,note_on,1,0,0,,10,,,81,127
93509,note_off,109,0,0,,10,,,81,127
93510,note_on,1,0,0,,7,,,79,127
93619,note_off,109,0,0,,7,,,79,127
93620,note_on,1,0,0,,5,,,77,127
93729,note_off,109,0,0,,5,,,77,127
93730,note_on,1,0,0,,4,,,76,127
93839,note_off,109,0,0,,4,,,76,127
93839,note_off,0,0,0,,2,,,62,127
93839,note_off,0,0,0,,4,,,64,127
93839,note_off,0,0,0,,7,,,55,127
93840,note_on,1,0,0,,10,,,57,127
93840,note_on,0,0,0,,5,,,65,127
93840,note_on,0,0,0,,2,,,74,127
94058,note_off,218,0,0,,2,,,74,127
94058,note_off,0,0,0,,5,,,65,127
94059,note_on,1,0,0,,4,,,64,127
94059,note_on,0,0,0,,2,,,74,127
94277,note_off,218,0,0,,4,,,64,127
94278,note_on,1,0,0,,7,,,67,127
94333,note_off,55,0,0,,2,,,74,127
94333,note_on,0,0,0,,1,,,73,127
94387,note_off,54,0,0,,1,,,73,127
94388,note_on,1,0,0,,12,,,71,127
94442,note_off,54,0,0,,12,,,71,127
94443,note_on,1,0,0,,1,,,73,127
94497,note_off,54,0,0,,1,,,73,127
94497,note_off,0,0,0,,7,,,67,127
94497,note_off,0,0,0,,10,,,57,127
94498,note_on,1,0,0,,2,,,50,127
94498,note_on,0,0,0,,1,,,73,127
94716,note_off,218,0,0,,1,,,73,127
94717,note_on,1,0,0,,2,,,74,127
94935,note_off,218,0,0,,2,,,74,127
94935,note_off,0,0,0,,2,,,50,127
94936,note_on,1,0,0,,2,,,62,127
94936,note_on,0,0,0,,5,,,53,127
94936,note_on,0,0,0,,2,,,86,127
95154,note_off,218,0,0,,5,,,53,127
95155,note_on,1,0,0,,7,,,55,127
95155,note_on,0,0,0,,4,,,64,127
95155,note_on,0,0,0,,4,,,76,127
95187,note_off,32,0,0,,2,,,86,127
95373,note_off,186,0,0,,4,,,76,127
95374,note_on,1,0,0,,4,,,76,127
95592,note_off,218,0,0,,4,,,76,127
95592,note_off,0,0,0,,7,,,55,127
95593,note_on,1,0,0,,10,,,57,127
95593,note_on,0,0,0,,2,,,86,127
95811,note_off,218,0,0,,10,,,57,127
95811,note_off,0,0,0,,4,,,64,127
95812,note_off,1,0,0,,2,,,62,127
95812,note_on,0,0,0,,2,,,62,127
95812,note_on,0,0,0,,11,,,58,127
95812,note_on,0,0,0,,4,,,64,127
95812,note_on,0,0,0,,4,,,76,127
95844,note_off,32,0,0,,2,,,86,127
96030,note_off,186,0,0,,4,,,76,127
96031,note_on,1,0,0,,4,,,76,127
96249,note_off,218,0,0,,4,,,76,127
96249,note_off,0,0,0,,4,,,64,127
96249,note_off,0,0,0,,11,,,58,127
96249,note_off,0,0,0,,2,,,62,127
96250,note_on,1,0,0,,5,,,53,127
96250,note_on,0,0,0,,2,,,62,127
96250,note_on,0,0,0,,2,,,86,127
96468,note_off,218,0,0,,5,,,53,127
96469,note_on,1,0,0,,7,,,55,127
96469,note_on,0,0,0,,4,,,64,127
96469,note_on,0,0,0,,4,,,76,127
96501,note_off,32,0,0,,2,,,86,127
96687,note_off,186,0,0,,4,,,76,127
96688,note_on,1,0,0,,4,,,76,127
96906,note_off,218,0,0,,4,,,76,127
96906,note_off,0,0,0,,7,,,55,127
96907,note_on,1,0,0,,10,,,57,127
96907,note_on,0,0,0,,2,,,86,127
97125,note_off,218,0,0,,2,,,86,127
97125,note_off,0,0,0,,10,,,57,127
97125,note_off,0,0,0,,4,,,64,127
97125,note_off,0,0,0,,2,,,62,127
97126,note_on,1,0,0,,11,,,58,127
97126,note_on,0,0,0,,4,,,64,127
97126,note_on,0,0,0,,2,,,62,127
97126,note_on,0,0,0,,4,,,76,127
97344,note_off,218,0,0,,4,,,76,127
97345,note_on,1,0,0,,11,,,82,127
97563,note_off,218,0,0,,11,,,58,127
97564,note_on,1,0,0,,7,,,55,127
97733,note_off,169,0,0,,11,,,82,127
97782,note_off,49,0,0,,7,,,55,127
97782,note_off,0,0,0,,2,,,62,127
97782,note_off,0,0,0,,4,,,64,127
97783,note_on,1,0,0,,2,,,62,127
97783,note_on,0,0,0,,10,,,57,127
97783,note_on,0,0,0,,4,,,64,127
97783,note_on,0,0,0,,10,,,81,127
97892,note_off,109,0,0,,10,,,81,127
97893,note_on,1,0,0,,7,,,79,127
98002,note_off,109,0,0,,7,,,79,127
98003,note_on,1,0,0,,5,,,77,127
98112,note_off,109,0,0,,5,,,77,127
98113,note_on,1,0,0,,4,,,76,127
98222,note_off,109,0,0,,4,,,76,127
98222,note_off,0,0,0,,4,,,64,127
98222,note_off,0,0,0,,10,,,57,127
98222,note_off,0,0,0,,2,,,62,127
98223,note_on,1,0,0,,10,,,45,127
98223,note_on,0,0,0,,2,,,74,127
98332,note_off,109,0,0,,2,,,74,127
98333,note_on,1,0,0,,1,,,73,127
98442,note_off,109,0,0,,1,,,73,127
98442,note_off,0,0,0,,10,,,45,127
98443,note_on,1,0,0,,2,,,50,127
98443,note_on,0,0,0,,1,,,73,127
98661,note_off,218,0,0,,1,,,73,127
98662,note_on,1,0,0,,2,,,74,127
98880,note_off,218,0,0,,2,,,74,127
98880,note_off,0,0,0,,2,,,50,127
98881,note_on,1,0,0,,5,,,53,127
98881,note_on,0,0,0,,2,,,62,127
98881,note_on,0,0,0,,2,,,74,127
99099,note_off,218,0,0,,2,,,74,127
99099,note_off,0,0,0,,5,,,53,127
99100,note_on,1,0,0,,7,,,55,127
99100,note_on,0,0,0,,4,,,64,127
99318,note_off,218,0,0,,4,,,64,127
99319,note_on,1,0,0,,4,,,64,127
99537,note_off,218,0,0,,4,,,64,127
99537,note_off,0,0,0,,7,,,55,127
99538,note_on,1,0,0,,10,,,57,127
99538,note_on,0,0,0,,2,,,74,127
99756,note_off,218,0,0,,2,,,74,127
99756,note_off,0,0,0,,10,,,57,127
99756,note_off,0,0,0,,2,,,62,127
99757,note_on,1,0,0,,11,,,58,127
99757,note_on,0,0,0,,4,,,64,127
99757,note_on,0,0,0,,2,,,62,127
99975,note_off,218,0,0,,4,,,64,127
99976,note_on,1,0,0,,4,,,64,127
100194,note_off,218,0,0,,4,,,64,127
100194,note_off,0,0,0,,11,,,58,127
100195,note_on,1,0,0,,5,,,53,127
100195,note_on,0,0,0,,2,,,74,127
100413,note_off,218,0,0,,2,,,74,127
100413,note_off,0,0,0,,5,,,53,127
100413,note_off,0,0,0,,2,,,62,127
100414,note_on,1,0,0,,7,,,55,127
100414,note_on,0,0,0,,4,,,64,127
100414,note_on,0,0,0,,2,,,62,127
100632,note_off,218,0,0,,4,,,64,127
100633,note_on,1,0,0,,4,,,64,127
100851,note_off,218,0,0,,4,,,64,127
100851,note_off,0,0,0,,7,,,55,127
100852,note_on,1,0,0,,10,,,57,127
100852,note_on,0,0,0,,2,,,74,127
101070,note_off,218,0,0,,2,,,74,127
101070,note_off,0,0,0,,10,,,57,127
101070,note_off,0,0,0,,2,,,62,127
101071,note_on,1,0,0,,11,,,58,127
101071,note_on,0,0,0,,4,,,64,127
101289,note_off,218,0,0,,4,,,64,127
101290,note_on,1,0,0,,0,,,72,127
101508,note_off,218,0,0,,0,,,72,127
101508,note_off,0,0,0,,11,,,58,127
101509,note_on,1,0,0,,2,,,62,127
101509,note_on,0,0,0,,7,,,55,127
101509,note_on,0,0,0,,11,,,70,127
101727,note_off,218,0,0,,11,,,70,127
101727,note_off,0,0,0,,7,,,55,127
101727,note_off,0,0,0,,2,,,62,127
101728,note_on,1,0,0,,10,,,57,127
101728,note_on,0,0,0,,2,,,62,127
101728,note_on,0,0,0,,10,,,69,127
101837,note_off,109,0,0,,10,,,69,127
101838,note_on,1,0,0,,7,,,67,127
101947,note_off,109,0,0,,7,,,67,127
101948,note_on,1,0,0,,5,,,65,127
102057,note_off,109,0,0,,5,,,65,127
102058,note_on,1,0,0,,4,,,64,127
102167,note_off,109,0,0,,4,,,64,127
102167,note_off,0,0,0,,2,,,62,127
102167,note_off,0,0,0,,10,,,57,127
102168,note_on,1,0,0,,10,,,45,127
102168,note_on,0,0,0,,2,,,62,127
102277,note_off,109,0,0,,2,,,62,127
102278,note_on,1,0,0,,1,,,61,127
102387,note_off,109,0,0,,1,,,61,127
102387,note_off,0,0,0,,10,,,45,127
102388,note_on,1,0,0,,2,,,50,127
102388,note_on,0,0,0,,2,,,62,127
102497,note_off,109,0,0,,2,,,62,127
102498,note_on,1,0,0,,4,,,64,127
102552,note_off,54,0,0,,4,,,64,127
102553,note_on,1,0,0,,5,,,65,127
102607,note_off,54,0,0,,5,,,65,127
102607,note_off,0,0,0,,2,,,50,127
102608,note_on,1,0,0,,4,,,52,127
102608,note_on,0,0,0,,7,,,67,127
102662,note_off,54,0,0,,7,,,67,127
102663,note_on,1,0,0,,10,,,69,127
102717,note_off,54,0,0,,10,,,69,127
102718,note_on,1,0,0,,12,,,71,127
102772,note_off,54,0,0,,12,,,71,127
102773,note_on,1,0,0,,1,,,73,127
102827,note_off,54,0,0,,1,,,73,127
102827,note_off,0,0,0,,4,,,52,127
102828,note_on,1,0,0,,5,,,53,127
102828,note_on,0,0,0,,2,,,74,127
103046,note_off,218,0,0,,2,,,74,127
103046,note_off,0,0,0,,5,,,53,127
103047,note_on,1,0,0,,7,,,55,127
103047,note_on,0,0,0,,5,,,77,127
103101,note_off,54,0,0,,5,,,77,127
103102,note_on,1,0,0,,4,,,76,127
103156,note_off,54,0,0,,4,,,76,127
103157,note_on,1,0,0,,5,,,77,127
103211,note_off,54,0,0,,5,,,77,127
103212,note_on,1,0,0,,4,,,76,127
103266,note_off,54,0,0,,4,,,76,127
103266,note_off,0,0,0,,7,,,55,127
103267,note_on,1,0,0,,10,,,57,127
103267,note_on,0,0,0,,5,,,77,127
103321,note_off,54,0,0,,5,,,77,127
103322,note_on,1,0,0,,4,,,76,127
103376,note_off,54,0,0,,4,,,76,127
103377,note_on,1,0,0,,5,,,77,127
103431,note_off,54,0,0,,5,,,77,127
103432,note_on,1,0,0,,4,,,76,127
103486,note_off,54,0,0,,4,,,76,127
103487,note_on,1,0,0,,10,,,45,127
103487,note_on,0,0,0,,5,,,77,127
103541,note_off,54,0,0,,5,,,77,127
103542,note_on,1,0,0,,4,,,76,127
103596,note_off,54,0,0,,4,,,76,127
103597,note_on,1,0,0,,2,,,74,127
103651,note_off,54,0,0,,2,,,74,127
103652,note_on,1,0,0,,4,,,76,127
103706,note_off,54,0,0,,4,,,76,127
103706,note_off,0,0,0,,10,,,45,127
103706,note_off,0,0,0,,10,,,57,127
103707,note_on,1,0,0,,2,,,50,127
103707,note_on,0,0,0,,2,,,74,127
103761,note_off,54,0,0,,2,,,74,127
103762,note_on,1,0,0,,2,,,62,127
103816,note_off,54,0,0,,2,,,62,127
103817,note_on,1,0,0,,4,,,64,127
103871,note_off,54,0,0,,4,,,64,127
103872,note_on,1,0,0,,5,,,65,127
103926,note_off,54,0,0,,5,,,65,127
103926,note_off,0,0,0,,2,,,50,127
103927,note_on,1,0,0,,4,,,52,127
103927,note_on,0,0,0,,7,,,67,127
103981,note_off,54,0,0,,7,,,67,127
103982,note_on,1,0,0,,10,,,69,127
104036,note_off,54,0,0,,10,,,69,127
104037,note_on,1,0,0,,12,,,71,127
104091,note_off,54,0,0,,12,,,71,127
104092,note_on,1,0,0,,1,,,73,127
104146,note_off,54,0,0,,1,,,73,127
104146,note_off,0,0,0,,4,,,52,127
104147,note_on,1,0,0,,5,,,53,127
104147,note_on,0,0,0,,2,,,74,127
104365,note_off,218,0,0,,2,,,74,127
104365,note_off,0,0,0,,5,,,53,127
104366,note_on,1,0,0,,7,,,55,127
104366,note_on,0,0,0,,5,,,77,127
104420,note_off,54,0,0,,5,,,77,127
104421,note_on,1,0,0,,4,,,76,127
104475,note_off,54,0,0,,4,,,76,127
104476,note_on,1,0,0,,5,,,77,127
104530,note_off,54,0,0,,5,,,77,127
104531,note_on,1,0,0,,4,,,76,127
104585,note_off,54,0,0,,4,,,76,127
104585,note_off,0,0,0,,7,,,55,127
104586,note_on,1,0,0,,10,,,57,127
104586,note_on,0,0,0,,5,,,77,127
104640,note_off,54,0,0,,5,,,77,127
104641,note_on,1,0,0,,4,,,76,127
104695,note_off,54,0,0,,4,,,76,127
104696,note_on,1,0,0,,5,,,77,127
104750,note_off,54,0,0,,5,,,77,127
104751,note_on,1,0,0,,4,,,76,127
104805,note_off,54,0,0,,4,,,76,127
104806,note_on,1,0,0,,10,,,45,127
104806,note_on,0,0,0,,5,,,77,127
104860,note_off,54,0,0,,5,,,77,127
104861,note_on,1,0,0,,4,,,76,127
104915,note_off,54,0,0,,4,,,76,127
104916,note_on,1,0,0,,2,,,74,127
104970,note_off,54,0,0,,2,,,74,127
104971,note_on,1,0,0,,4,,,76,127
105025,note_off,54,0,0,,4,,,76,127
105025,note_off,0,0,0,,10,,,45,127
105025,note_off,0,0,0,,10,,,57,127
105039,note_on,14,0,0,,2,,,50,127
105039,note_on,0,0,0,,2,,,74,127
107001,note_off,1962,0,0,,2,,,74,127
107001,note_off,0,0,0,,2,,,50,127
107520,end_of_track,519,1,0,,,,,,
