tick,type,time,meta,track,program,channel,pitch,tempo,note,velocity
0,copyright,0,1,0,,,,,,
0,program_change,0,0,0,6,0,,,,
0,pitchwheel,0,0,0,,0,0,,,
0,program_change,0,0,0,6,1,,,,
0,pitchwheel,0,0,0,,1,-590,,,
0,program_change,0,0,0,6,2,,,,
0,pitchwheel,0,0,0,,2,-272,,,
0,program_change,0,0,0,6,3,,,,
0,pitchwheel,0,0,0,,3,-353,,,
0,program_change,0,0,0,6,4,,,,
0,pitchwheel,0,0,0,,4,-560,,,
0,program_change,0,0,0,6,5,,,,
0,pitchwheel,0,0,0,,5,-80,,,
0,program_change,0,0,0,6,6,,,,
0,pitchwheel,0,0,0,,6,-625,,,
0,program_change,0,0,0,6,7,,,,
0,pitchwheel,0,0,0,,7,-130,,,
0,program_change,0,0,0,6,8,,,,
0,pitchwheel,0,0,0,,8,-512,,,
0,program_change,0,0,0,6,10,,,,
0,pitchwheel,0,0,0,,10,-464,,,
0,program_change,0,0,0,6,11,,,,
0,pitchwheel,0,0,0,,11,-208,,,
0,program_change,0,0,0,6,12,,,,
0,pitchwheel,0,0,0,,12,-553,,,
0,set_tempo,0,1,0,,,,500000,,
79,note_on,79,0,0,,2,,,38,127
395,note_off,316,0,0,,2,,,38,127
397,note_on,2,0,0,,2,,,74,127
472,note_off,75,0,0,,2,,,74,127
476,note_on,4,0,0,,5,,,77,127
551,note_off,75,0,0,,5,,,77,127
555,note_on,4,0,0,,4,,,76,127
630,note_off,75,0,0,,4,,,76,127
634,note_on,4,0,0,,2,,,74,127
709,note_off,75,0,0,,2,,,74,127
713,note_on,4,0,0,,10,,,81,127
788,note_off,75,0,0,,10,,,81,127
792,note_on,4,0,0,,7,,,79,127
867,note_off,75,0,0,,7,,,79,127
871,note_on,4,0,0,,5,,,77,127
946,note_off,75,0,0,,5,,,77,127
950,note_on,4,0,0,,4,,,76,127
1025,note_off,75,0,0,,4,,,76,127
1029,note_on,4,0,0,,2,,,74,127
1104,note_off,75,0,0,,2,,,74,127
1108,note_on,4,0,0,,0,,,72,127
1183,note_off,75,0,0,,0,,,72,127
1187,note_on,4,0,0,,11,,,70,127
1262,note_off,75,0,0,,11,,,70,127
1266,note_on,4,0,0,,10,,,69,127
1341,note_off,75,0,0,,10,,,69,127
1345,note_on,4,0,0,,7,,,67,127
1420,note_off,75,0,0,,7,,,67,127
1424,note_on,4,0,0,,11,,,70,127
1499,note_off,75,0,0,,11,,,70,127
1503,note_on,4,0,0,,10,,,69,127
1578,note_off,75,0,0,,10,,,69,127
1582,note_on,4,0,0,,7,,,67,127
1657,note_off,75,0,0,,7,,,67,127
1661,note_on,4,0,0,,10,,,69,127
1736,note_off,75,0,0,,10,,,69,127
1740,note_on,4,0,0,,7,,,67,127
1815,note_off,75,0,0,,7,,,67,127
1819,note_on,4,0,0,,5,,,65,127
1894,note_off,75,0,0,,5,,,65,127
1898,note_on,4,0,0,,4,,,64,127
1973,note_off,75,0,0,,4,,,64,127
1977,note_on,4,0,0,,2,,,62,127
2052,note_off,75,0,0,,2,,,62,127
2056,note_on,4,0,0,,0,,,60,127
2131,note_off,75,0,0,,0,,,60,127
2135,note_on,4,0,0,,11,,,58,127
2210,note_off,75,0,0,,11,,,58,127
2214,note_on,4,0,0,,10,,,57,127
2289,note_off,75,0,0,,10,,,57,127
2293,note_on,4,0,0,,7,,,55,127
2368,note_off,75,0,0,,7,,,55,127
2372,note_on,4,0,0,,11,,,58,127
2447,note_off,75,0,0,,11,,,58,127
2451,note_on,4,0,0,,10,,,57,127
2526,note_off,75,0,0,,10,,,57,127
2530,note_on,4,0,0,,7,,,55,127
2605,note_off,75,0,0,,7,,,55,127
2609,note_on,4,0,0,,10,,,57,127
2684,note_off,75,0,0,,10,,,57,127
2688,note_on,4,0,0,,7,,,55,127
2763,note_off,75,0,0,,7,,,55,127
2767,note_on,4,0,0,,5,,,53,127
2842,note_off,75,0,0,,5,,,53,127
2846,note_on,4,0,0,,4,,,52,127
2921,note_off,75,0,0,,4,,,52,127
2925,note_on,4,0,0,,2,,,50,127
2925,note_on,0,0,0,,2,,,62,127
3000,note_off,75,0,0,,2,,,62,127
3004,note_on,4,0,0,,5,,,65,127
3079,note_off,75,0,0,,5,,,65,127
3083,note_on,4,0,0,,4,,,64,127
3158,note_off,75,0,0,,4,,,64,127
3162,note_on,4,0,0,,2,,,62,127
3237,note_off,75,0,0,,2,,,62,127
3241,note_on,4,0,0,,10,,,69,127
3316,note_off,75,0,0,,10,,,69,127
3320,note_on,4,0,0,,7,,,67,127
3395,note_off,75,0,0,,7,,,67,127
3399,note_on,4,0,0,,5,,,65,127
3474,note_off,75,0,0,,5,,,65,127
3478,note_on,4,0,0,,4,,,64,127
3553,note_off,75,0,0,,4,,,64,127
3557,note_on,4,0,0,,2,,,62,127
3632,note_off,75,0,0,,2,,,62,127
3636,note_on,4,0,0,,0,,,60,127
3711,note_off,75,0,0,,0,,,60,127
3715,note_on,4,0,0,,11,,,58,127
3790,note_off,75,0,0,,11,,,58,127
3794,note_on,4,0,0,,10,,,57,127
3869,note_off,75,0,0,,10,,,57,127
3869,note_off,0,0,0,,2,,,50,127
3873,note_on,4,0,0,,2,,,74,127
3873,note_on,0,0,0,,7,,,55,127
3948,note_off,75,0,0,,7,,,55,127
3952,note_on,4,0,0,,11,,,58,127
4027,note_off,75,0,0,,11,,,58,127
4031,note_on,4,0,0,,10,,,57,127
4106,note_off,75,0,0,,10,,,57,127
4110,note_on,4,0,0,,7,,,55,127
4185,note_off,75,0,0,,7,,,55,127
4185,note_off,0,0,0,,2,,,74,127
4189,note_on,4,0,0,,4,,,76,127
4189,note_on,0,0,0,,1,,,73,127
4189,note_on,0,0,0,,10,,,57,127
4264,note_off,75,0,0,,10,,,57,127
4268,note_on,4,0,0,,7,,,55,127
4343,note_off,75,0,0,,7,,,55,127
4347,note_on,4,0,0,,5,,,53,127
4422,note_off,75,0,0,,5,,,53,127
4426,note_on,4,0,0,,4,,,52,127
4501,note_off,75,0,0,,4,,,52,127
4501,note_off,0,0,0,,1,,,73,127
4501,note_off,0,0,0,,4,,,76,127
4505,note_on,4,0,0,,5,,,77,127
4505,note_on,0,0,0,,2,,,74,127
4505,note_on,0,0,0,,2,,,50,127
4580,note_off,75,0,0,,2,,,50,127
4584,note_on,4,0,0,,0,,,48,127
4659,note_off,75,0,0,,0,,,48,127
4663,note_on,4,0,0,,11,,,46,127
4738,note_off,75,0,0,,11,,,46,127
4742,note_on,4,0,0,,10,,,45,127
4817,note_off,75,0,0,,10,,,45,127
4817,note_off,0,0,0,,2,,,74,127
4817,note_off,0,0,0,,5,,,77,127
4821,note_on,4,0,0,,7,,,79,127
4821,note_on,0,0,0,,11,,,70,127
4821,note_on,0,0,0,,7,,,43,127
4896,note_off,75,0,0,,7,,,43,127
4900,note_on,4,0,0,,11,,,46,127
4975,note_off,75,0,0,,11,,,46,127
4979,note_on,4,0,0,,10,,,45,127
5054,note_off,75,0,0,,10,,,45,127
5058,note_on,4,0,0,,7,,,43,127
5133,note_off,75,0,0,,7,,,43,127
5133,note_off,0,0,0,,11,,,70,127
5133,note_off,0,0,0,,7,,,79,127
5137,note_on,4,0,0,,10,,,81,127
5137,note_on,0,0,0,,1,,,73,127
5137,note_on,0,0,0,,10,,,45,127
5212,note_off,75,0,0,,10,,,45,127
5216,note_on,4,0,0,,7,,,43,127
5291,note_off,75,0,0,,7,,,43,127
5295,note_on,4,0,0,,5,,,41,127
5370,note_off,75,0,0,,5,,,41,127
5374,note_on,4,0,0,,4,,,40,127
5449,note_off,75,0,0,,4,,,40,127
5449,note_off,0,0,0,,1,,,73,127
5449,note_off,0,0,0,,10,,,81,127
5453,note_on,4,0,0,,2,,,74,127
5453,note_on,0,0,0,,2,,,38,127
5532,note_on,79,0,0,,7,,,79,127
5607,note_off,75,0,0,,7,,,79,127
5611,note_on,4,0,0,,5,,,77,127
5686,note_off,75,0,0,,5,,,77,127
5690,note_on,4,0,0,,4,,,76,127
5765,note_off,75,0,0,,4,,,76,127
5765,note_off,0,0,0,,2,,,38,127
5768,note_off,3,0,0,,2,,,74,127
5769,note_on,1,0,0,,2,,,74,127
5769,note_on,0,0,0,,2,,,62,127
5848,note_on,79,0,0,,0,,,72,127
5923,note_off,75,0,0,,0,,,72,127
5927,note_on,4,0,0,,11,,,70,127
6002,note_off,75,0,0,,11,,,70,127
6006,note_on,4,0,0,,10,,,69,127
6081,note_off,75,0,0,,10,,,69,127
6084,note_off,3,0,0,,2,,,74,127
6085,note_on,1,0,0,,4,,,76,127
6085,note_on,0,0,0,,7,,,67,127
6160,note_off,75,0,0,,7,,,67,127
6164,note_on,4,0,0,,11,,,70,127
6239,note_off,75,0,0,,11,,,70,127
6243,note_on,4,0,0,,10,,,69,127
6318,note_off,75,0,0,,10,,,69,127
6322,note_on,4,0,0,,7,,,67,127
6397,note_off,75,0,0,,7,,,67,127
6397,note_off,0,0,0,,2,,,62,127
6401,note_on,4,0,0,,10,,,69,127
6401,note_on,0,0,0,,1,,,61,127
6476,note_off,75,0,0,,10,,,69,127
6480,note_on,4,0,0,,7,,,67,127
6555,note_off,75,0,0,,7,,,67,127
6559,note_on,4,0,0,,5,,,65,127
6634,note_off,75,0,0,,5,,,65,127
6638,note_on,4,0,0,,4,,,64,127
6713,note_off,75,0,0,,4,,,64,127
6713,note_off,0,0,0,,1,,,61,127
6716,note_off,3,0,0,,4,,,76,127
6717,note_on,1,0,0,,5,,,65,127
6717,note_on,0,0,0,,2,,,62,127
6792,note_off,75,0,0,,2,,,62,127
6796,note_on,4,0,0,,0,,,60,127
6871,note_off,75,0,0,,0,,,60,127
6875,note_on,4,0,0,,11,,,58,127
6950,note_off,75,0,0,,11,,,58,127
6954,note_on,4,0,0,,10,,,57,127
7029,note_off,75,0,0,,10,,,57,127
7033,note_on,4,0,0,,2,,,74,127
7033,note_on,0,0,0,,7,,,55,127
7108,note_off,75,0,0,,7,,,55,127
7112,note_on,4,0,0,,11,,,58,127
7187,note_off,75,0,0,,11,,,58,127
7191,note_on,4,0,0,,10,,,57,127
7266,note_off,75,0,0,,10,,,57,127
7270,note_on,4,0,0,,7,,,55,127
7345,note_off,75,0,0,,7,,,55,127
7345,note_off,0,0,0,,2,,,74,127
7348,note_off,3,0,0,,5,,,65,127
7349,note_on,1,0,0,,1,,,73,127
7349,note_on,0,0,0,,4,,,76,127
7349,note_on,0,0,0,,10,,,57,127
7424,note_off,75,0,0,,10,,,57,127
7428,note_on,4,0,0,,7,,,55,127
7503,note_off,75,0,0,,7,,,55,127
7507,note_on,4,0,0,,5,,,53,127
7582,note_off,75,0,0,,5,,,53,127
7586,note_on,4,0,0,,4,,,52,127
7661,note_off,75,0,0,,4,,,52,127
7661,note_off,0,0,0,,4,,,76,127
7661,note_off,0,0,0,,1,,,73,127
7665,note_on,4,0,0,,2,,,74,127
7665,note_on,0,0,0,,5,,,77,127
7665,note_on,0,0,0,,2,,,50,127
7740,note_off,75,0,0,,2,,,50,127
7744,note_on,4,0,0,,0,,,48,127
7819,note_off,75,0,0,,0,,,48,127
7823,note_on,4,0,0,,11,,,46,127
7898,note_off,75,0,0,,11,,,46,127
7902,note_on,4,0,0,,10,,,45,127
7977,note_off,75,0,0,,10,,,45,127
7977,note_off,0,0,0,,5,,,77,127
7977,note_off,0,0,0,,2,,,74,127
7981,note_on,4,0,0,,11,,,70,127
7981,note_on,0,0,0,,7,,,79,127
7981,note_on,0,0,0,,7,,,43,127
8056,note_off,75,0,0,,7,,,43,127
8060,note_on,4,0,0,,11,,,46,127
8135,note_off,75,0,0,,11,,,46,127
8139,note_on,4,0,0,,10,,,45,127
8214,note_off,75,0,0,,10,,,45,127
8218,note_on,4,0,0,,7,,,43,127
8293,note_off,75,0,0,,7,,,43,127
8293,note_off,0,0,0,,7,,,79,127
8293,note_off,0,0,0,,11,,,70,127
8297,note_on,4,0,0,,10,,,81,127
8297,note_on,0,0,0,,1,,,73,127
8297,note_on,0,0,0,,10,,,45,127
8372,note_off,75,0,0,,10,,,45,127
8376,note_on,4,0,0,,7,,,43,127
8451,note_off,75,0,0,,7,,,43,127
8455,note_on,4,0,0,,5,,,41,127
8530,note_off,75,0,0,,5,,,41,127
8534,note_on,4,0,0,,4,,,40,127
8609,note_off,75,0,0,,4,,,40,127
8612,note_off,3,0,0,,1,,,73,127
8613,note_on,1,0,0,,2,,,38,127
8688,note_off,75,0,0,,10,,,81,127
8692,note_on,4,0,0,,7,,,79,127
8767,note_off,75,0,0,,7,,,79,127
8771,note_on,4,0,0,,5,,,77,127
8846,note_off,75,0,0,,5,,,77,127
8850,note_on,4,0,0,,4,,,76,127
8925,note_off,75,0,0,,4,,,76,127
8925,note_off,0,0,0,,2,,,38,127
8929,note_on,4,0,0,,2,,,74,127
8929,note_on,0,0,0,,2,,,62,127
9004,note_off,75,0,0,,2,,,74,127
9008,note_on,4,0,0,,0,,,72,127
9083,note_off,75,0,0,,0,,,72,127
9087,note_on,4,0,0,,11,,,70,127
9162,note_off,75,0,0,,11,,,70,127
9166,note_on,4,0,0,,10,,,69,127
9241,note_off,75,0,0,,10,,,69,127
9245,note_on,4,0,0,,11,,,70,127
9320,note_off,75,0,0,,11,,,70,127
9324,note_on,4,0,0,,2,,,74,127
9399,note_off,75,0,0,,2,,,74,127
9403,note_on,4,0,0,,0,,,72,127
9478,note_off,75,0,0,,0,,,72,127
9482,note_on,4,0,0,,11,,,70,127
9557,note_off,75,0,0,,11,,,70,127
9557,note_off,0,0,0,,2,,,62,127
9561,note_on,4,0,0,,10,,,69,127
9561,note_on,0,0,0,,4,,,64,127
9636,note_off,75,0,0,,10,,,69,127
9640,note_on,4,0,0,,7,,,67,127
9715,note_off,75,0,0,,7,,,67,127
9719,note_on,4,0,0,,5,,,65,127
9794,note_off,75,0,0,,5,,,65,127
9798,note_off,4,0,0,,4,,,64,127
9798,note_on,0,0,0,,4,,,64,127
9873,note_off,75,0,0,,4,,,64,127
9877,note_on,4,0,0,,10,,,69,127
9877,note_on,0,0,0,,0,,,72,127
9877,note_on,0,0,0,,5,,,65,127
9952,note_off,75,0,0,,5,,,65,127
9956,note_on,4,0,0,,4,,,64,127
10031,note_off,75,0,0,,4,,,64,127
10035,note_on,4,0,0,,2,,,62,127
10110,note_off,75,0,0,,2,,,62,127
10114,note_on,4,0,0,,0,,,60,127
10189,note_off,75,0,0,,0,,,60,127
10189,note_off,0,0,0,,0,,,72,127
10189,note_off,0,0,0,,10,,,69,127
10193,note_on,4,0,0,,2,,,74,127
10193,note_on,0,0,0,,11,,,70,127
10193,note_on,0,0,0,,11,,,58,127
10268,note_off,75,0,0,,11,,,58,127
10272,note_on,4,0,0,,2,,,62,127
10347,note_off,75,0,0,,2,,,62,127
10351,note_on,4,0,0,,0,,,60,127
10426,note_off,75,0,0,,0,,,60,127
10430,note_on,4,0,0,,11,,,58,127
10505,note_off,75,0,0,,11,,,58,127
10505,note_off,0,0,0,,11,,,70,127
10505,note_off,0,0,0,,2,,,74,127
10509,note_on,4,0,0,,7,,,67,127
10509,note_on,0,0,0,,4,,,76,127
10509,note_on,0,0,0,,0,,,60,127
10584,note_off,75,0,0,,0,,,60,127
10588,note_on,4,0,0,,11,,,58,127
10663,note_off,75,0,0,,11,,,58,127
10667,note_on,4,0,0,,10,,,57,127
10742,note_off,75,0,0,,10,,,57,127
10746,note_on,4,0,0,,7,,,55,127
10821,note_off,75,0,0,,7,,,55,127
10821,note_off,0,0,0,,4,,,76,127
10821,note_off,0,0,0,,7,,,67,127
10825,note_on,4,0,0,,10,,,69,127
10825,note_on,0,0,0,,5,,,77,127
10825,note_on,0,0,0,,5,,,53,127
10900,note_off,75,0,0,,5,,,53,127
10904,note_on,4,0,0,,4,,,52,127
10979,note_off,75,0,0,,4,,,52,127
10983,note_on,4,0,0,,2,,,50,127
11058,note_off,75,0,0,,2,,,50,127
11062,note_on,4,0,0,,0,,,48,127
11137,note_off,75,0,0,,0,,,48,127
11140,note_off,3,0,0,,10,,,69,127
11141,note_on,1,0,0,,7,,,67,127
11141,note_on,0,0,0,,11,,,46,127
11216,note_off,75,0,0,,5,,,77,127
11220,note_on,4,0,0,,2,,,74,127
11295,note_off,75,0,0,,2,,,74,127
11299,note_on,4,0,0,,0,,,72,127
11374,note_off,75,0,0,,0,,,72,127
11378,note_on,4,0,0,,11,,,70,127
11453,note_off,75,0,0,,11,,,70,127
11453,note_off,0,0,0,,11,,,46,127
11456,note_off,3,0,0,,7,,,67,127
11457,note_on,1,0,0,,10,,,69,127
11457,note_on,0,0,0,,0,,,48,127
11532,note_off,75,0,0,,10,,,69,127
11536,note_on,4,0,0,,7,,,67,127
11611,note_off,75,0,0,,7,,,67,127
11615,note_on,4,0,0,,5,,,65,127
11690,note_off,75,0,0,,5,,,65,127
11694,note_on,4,0,0,,4,,,64,127
11769,note_off,75,0,0,,4,,,64,127
11769,note_off,0,0,0,,0,,,48,127
11773,note_on,4,0,0,,10,,,69,127
11773,note_on,0,0,0,,5,,,53,127
11773,note_on,0,0,0,,5,,,41,127
11848,note_off,75,0,0,,10,,,69,127
11852,note_on,4,0,0,,7,,,67,127
11927,note_off,75,0,0,,7,,,67,127
11931,note_on,4,0,0,,5,,,65,127
12006,note_off,75,0,0,,5,,,65,127
12010,note_on,4,0,0,,4,,,64,127
12085,note_off,75,0,0,,4,,,64,127
12085,note_off,0,0,0,,5,,,41,127
12085,note_off,0,0,0,,5,,,53,127
12089,note_on,4,0,0,,5,,,65,127
12089,note_on,0,0,0,,2,,,38,127
12089,note_on,0,0,0,,2,,,50,127
12164,note_off,75,0,0,,5,,,65,127
12168,note_on,4,0,0,,7,,,67,127
12243,note_off,75,0,0,,7,,,67,127
12247,note_on,4,0,0,,10,,,69,127
12322,note_off,75,0,0,,10,,,69,127
12326,note_on,4,0,0,,12,,,71,127
12401,note_off,75,0,0,,12,,,71,127
12401,note_off,0,0,0,,2,,,50,127
12401,note_off,0,0,0,,2,,,38,127
12405,note_on,4,0,0,,0,,,72,127
12405,note_on,0,0,0,,0,,,48,127
12405,note_on,0,0,0,,0,,,36,127
12484,note_on,79,0,0,,5,,,65,127
12559,note_off,75,0,0,,5,,,65,127
12563,note_on,4,0,0,,4,,,64,127
12638,note_off,75,0,0,,4,,,64,127
12642,note_on,4,0,0,,2,,,62,127
12712,note_off,70,0,0,,0,,,72,127
12717,note_off,5,0,0,,2,,,62,127
12717,note_off,0,0,0,,0,,,36,127
12717,note_off,0,0,0,,0,,,48,127
12721,note_on,4,0,0,,4,,,64,127
12721,note_on,0,0,0,,10,,,45,127
12721,note_on,0,0,0,,10,,,57,127
12796,note_off,75,0,0,,4,,,64,127
12800,note_on,4,0,0,,7,,,67,127
12875,note_off,75,0,0,,7,,,67,127
12879,note_on,4,0,0,,6,,,66,127
12954,note_off,75,0,0,,6,,,66,127
12958,note_on,4,0,0,,10,,,69,127
13033,note_off,75,0,0,,10,,,69,127
13033,note_off,0,0,0,,10,,,57,127
13033,note_off,0,0,0,,10,,,45,127
13037,note_on,4,0,0,,7,,,67,127
13037,note_on,0,0,0,,7,,,55,127
13037,note_on,0,0,0,,7,,,43,127
13116,note_on,79,0,0,,0,,,72,127
13191,note_off,75,0,0,,0,,,72,127
13195,note_on,4,0,0,,12,,,71,127
13270,note_off,75,0,0,,12,,,71,127
13274,note_on,4,0,0,,10,,,69,127
13344,note_off,70,0,0,,7,,,67,127
13349,note_off,5,0,0,,10,,,69,127
13349,note_off,0,0,0,,7,,,43,127
13349,note_off,0,0,0,,7,,,55,127
13353,note_on,4,0,0,,12,,,71,127
13353,note_on,0,0,0,,4,,,52,127
13353,note_on,0,0,0,,4,,,40,127
13428,note_off,75,0,0,,12,,,71,127
13432,note_on,4,0,0,,2,,,74,127
13507,note_off,75,0,0,,2,,,74,127
13511,note_on,4,0,0,,1,,,73,127
13586,note_off,75,0,0,,1,,,73,127
13590,note_on,4,0,0,,4,,,76,127
13665,note_off,75,0,0,,4,,,76,127
13665,note_off,0,0,0,,4,,,40,127
13665,note_off,0,0,0,,4,,,52,127
13669,note_on,4,0,0,,2,,,74,127
13669,note_on,0,0,0,,2,,,50,127
13669,note_on,0,0,0,,2,,,38,127
13748,note_on,79,0,0,,7,,,67,127
13823,note_off,75,0,0,,7,,,67,127
13827,note_on,4,0,0,,6,,,66,127
13902,note_off,75,0,0,,6,,,66,127
13906,note_on,4,0,0,,4,,,64,127
13981,note_off,75,0,0,,4,,,64,127
13981,note_off,0,0,0,,2,,,38,127
13981,note_off,0,0,0,,2,,,50,127
13981,note_off,0,0,0,,2,,,74,127
13985,note_on,4,0,0,,6,,,66,127
13985,note_on,0,0,0,,12,,,59,127
13985,note_on,0,0,0,,12,,,47,127
14060,note_off,75,0,0,,6,,,66,127
14064,note_on,4,0,0,,10,,,69,127
14139,note_off,75,0,0,,10,,,69,127
14143,note_on,4,0,0,,8,,,68,127
14218,note_off,75,0,0,,8,,,68,127
14222,note_on,4,0,0,,12,,,71,127
14297,note_off,75,0,0,,12,,,71,127
14297,note_off,0,0,0,,12,,,47,127
14297,note_off,0,0,0,,12,,,59,127
14301,note_on,4,0,0,,10,,,69,127
14301,note_on,0,0,0,,10,,,57,127
14301,note_on,0,0,0,,10,,,45,127
14380,note_on,79,0,0,,2,,,74,127
14455,note_off,75,0,0,,2,,,74,127
14459,note_on,4,0,0,,0,,,72,127
14534,note_off,75,0,0,,0,,,72,127
14538,note_on,4,0,0,,12,,,71,127
14611,note_off,73,0,0,,10,,,69,127
14613,note_off,2,0,0,,12,,,71,127
14613,note_off,0,0,0,,10,,,45,127
14613,note_off,0,0,0,,10,,,57,127
14617,note_on,4,0,0,,0,,,72,127
14617,note_on,0,0,0,,10,,,45,127
14617,note_on,0,0,0,,10,,,57,127
14692,note_off,75,0,0,,0,,,72,127
14696,note_on,4,0,0,,2,,,74,127
14771,note_off,75,0,0,,2,,,74,127
14775,note_on,4,0,0,,4,,,76,127
14850,note_off,75,0,0,,4,,,76,127
14854,note_on,4,0,0,,0,,,72,127
14929,note_off,75,0,0,,0,,,72,127
14929,note_off,0,0,0,,10,,,57,127
14929,note_off,0,0,0,,10,,,45,127
14933,note_on,4,0,0,,5,,,77,127
14933,note_on,0,0,0,,2,,,50,127
14933,note_on,0,0,0,,2,,,38,127
15008,note_off,75,0,0,,5,,,77,127
15012,note_on,4,0,0,,4,,,76,127
15087,note_off,75,0,0,,4,,,76,127
15091,note_on,4,0,0,,2,,,74,127
15166,note_off,75,0,0,,2,,,74,127
15170,note_on,4,0,0,,0,,,72,127
15245,note_off,75,0,0,,0,,,72,127
15245,note_off,0,0,0,,2,,,38,127
15245,note_off,0,0,0,,2,,,50,127
15249,note_on,4,0,0,,12,,,71,127
15249,note_on,0,0,0,,2,,,50,127
15249,note_on,0,0,0,,2,,,38,127
15324,note_off,75,0,0,,12,,,71,127
15328,note_on,4,0,0,,10,,,69,127
15403,note_off,75,0,0,,10,,,69,127
15407,note_on,4,0,0,,8,,,68,127
15482,note_off,75,0,0,,8,,,68,127
15486,note_on,4,0,0,,6,,,66,127
15561,note_off,75,0,0,,6,,,66,127
15561,note_off,0,0,0,,2,,,38,127
15561,note_off,0,0,0,,2,,,50,127
15565,note_on,4,0,0,,4,,,64,127
15565,note_on,0,0,0,,4,,,52,127
15565,note_on,0,0,0,,4,,,40,127
15644,note_on,79,0,0,,12,,,71,127
15719,note_off,75,0,0,,12,,,71,127
15723,note_off,4,0,0,,4,,,64,127
15723,note_on,0,0,0,,8,,,68,127
15798,note_off,75,0,0,,8,,,68,127
15802,note_on,4,0,0,,12,,,71,127
15877,note_off,75,0,0,,12,,,71,127
15877,note_off,0,0,0,,4,,,40,127
15877,note_off,0,0,0,,4,,,52,127
15881,note_on,4,0,0,,4,,,64,127
15881,note_on,0,0,0,,4,,,52,127
15881,note_on,0,0,0,,4,,,40,127
15960,note_on,79,0,0,,0,,,72,127
16035,note_off,75,0,0,,0,,,72,127
16039,note_off,4,0,0,,4,,,64,127
16039,note_on,0,0,0,,10,,,69,127
16114,note_off,75,0,0,,10,,,69,127
16118,note_on,4,0,0,,0,,,72,127
16193,note_off,75,0,0,,0,,,72,127
16193,note_off,0,0,0,,4,,,40,127
16193,note_off,0,0,0,,4,,,52,127
16197,note_on,4,0,0,,4,,,64,127
16197,note_on,0,0,0,,4,,,52,127
16197,note_on,0,0,0,,4,,,40,127
16276,note_on,79,0,0,,2,,,74,127
16351,note_off,75,0,0,,2,,,74,127
16355,note_off,4,0,0,,4,,,64,127
16355,note_on,0,0,0,,12,,,71,127
16430,note_off,75,0,0,,12,,,71,127
16434,note_on,4,0,0,,2,,,74,127
16509,note_off,75,0,0,,2,,,74,127
16509,note_off,0,0,0,,4,,,40,127
16509,note_off,0,0,0,,4,,,52,127
16513,note_on,4,0,0,,4,,,64,127
16513,note_on,0,0,0,,4,,,40,127
16513,note_on,0,0,0,,4,,,52,127
16592,note_on,79,0,0,,4,,,76,127
16667,note_off,75,0,0,,4,,,76,127
16671,note_off,4,0,0,,4,,,64,127
16671,note_on,0,0,0,,0,,,72,127
16746,note_off,75,0,0,,0,,,72,127
16750,note_on,4,0,0,,4,,,76,127
16825,note_off,75,0,0,,4,,,76,127
16825,note_off,0,0,0,,4,,,52,127
16825,note_off,0,0,0,,4,,,40,127
16829,note_on,4,0,0,,12,,,71,127
16829,note_on,0,0,0,,4,,,76,127
16829,note_on,0,0,0,,8,,,68,127
16829,note_on,0,0,0,,4,,,52,127
16904,note_off,75,0,0,,4,,,52,127
16908,note_on,4,0,0,,12,,,59,127
16983,note_off,75,0,0,,12,,,59,127
16987,note_on,4,0,0,,8,,,56,127
17062,note_off,75,0,0,,8,,,56,127
17066,note_on,4,0,0,,12,,,59,127
17141,note_off,75,0,0,,12,,,59,127
17141,note_off,0,0,0,,8,,,68,127
17141,note_off,0,0,0,,12,,,71,127
17145,note_on,4,0,0,,10,,,69,127
17145,note_on,0,0,0,,0,,,72,127
17145,note_on,0,0,0,,4,,,52,127
17220,note_off,75,0,0,,4,,,52,127
17224,note_on,4,0,0,,0,,,60,127
17299,note_off,75,0,0,,0,,,60,127
17303,note_on,4,0,0,,10,,,57,127
17378,note_off,75,0,0,,10,,,57,127
17382,note_on,4,0,0,,0,,,60,127
17457,note_off,75,0,0,,0,,,60,127
17457,note_off,0,0,0,,0,,,72,127
17457,note_off,0,0,0,,10,,,69,127
17460,note_off,3,0,0,,4,,,76,127
17461,note_on,1,0,0,,4,,,76,127
17461,note_on,0,0,0,,12,,,71,127
17461,note_on,0,0,0,,8,,,68,127
17461,note_on,0,0,0,,4,,,52,127
17536,note_off,75,0,0,,4,,,52,127
17540,note_on,4,0,0,,2,,,62,127
17615,note_off,75,0,0,,2,,,62,127
17619,note_on,4,0,0,,12,,,59,127
17694,note_off,75,0,0,,12,,,59,127
17698,note_on,4,0,0,,2,,,62,127
17773,note_off,75,0,0,,2,,,62,127
17773,note_off,0,0,0,,8,,,68,127
17773,note_off,0,0,0,,12,,,71,127
17777,note_on,4,0,0,,10,,,69,127
17777,note_on,0,0,0,,0,,,72,127
17777,note_on,0,0,0,,4,,,52,127
17852,note_off,75,0,0,,4,,,52,127
17856,note_on,4,0,0,,4,,,64,127
17931,note_off,75,0,0,,4,,,64,127
17935,note_on,4,0,0,,0,,,60,127
18010,note_off,75,0,0,,0,,,60,127
18014,note_on,4,0,0,,4,,,64,127
18089,note_off,75,0,0,,4,,,64,127
18089,note_off,0,0,0,,0,,,72,127
18089,note_off,0,0,0,,10,,,69,127
18092,note_off,3,0,0,,4,,,76,127
18093,note_on,1,0,0,,4,,,64,127
18093,note_on,0,0,0,,4,,,40,127
18172,note_on,79,0,0,,12,,,71,127
18247,note_off,75,0,0,,12,,,71,127
18251,note_off,4,0,0,,4,,,64,127
18251,note_on,0,0,0,,8,,,68,127
18326,note_off,75,0,0,,8,,,68,127
18330,note_on,4,0,0,,12,,,71,127
18405,note_off,75,0,0,,12,,,71,127
18405,note_off,0,0,0,,4,,,40,127
18409,note_on,4,0,0,,4,,,64,127
18409,note_on,0,0,0,,4,,,40,127
18488,note_on,79,0,0,,0,,,72,127
18563,note_off,75,0,0,,0,,,72,127
18567,note_off,4,0,0,,4,,,64,127
18567,note_on,0,0,0,,10,,,69,127
18642,note_off,75,0,0,,10,,,69,127
18646,note_on,4,0,0,,0,,,72,127
18721,note_off,75,0,0,,0,,,72,127
18721,note_off,0,0,0,,4,,,40,127
18725,note_on,4,0,0,,4,,,64,127
18725,note_on,0,0,0,,4,,,40,127
18804,note_on,79,0,0,,2,,,74,127
18879,note_off,75,0,0,,2,,,74,127
18883,note_off,4,0,0,,4,,,64,127
18883,note_on,0,0,0,,12,,,71,127
18958,note_off,75,0,0,,12,,,71,127
18962,note_on,4,0,0,,2,,,74,127
19037,note_off,75,0,0,,2,,,74,127
19037,note_off,0,0,0,,4,,,40,127
19041,note_on,4,0,0,,4,,,64,127
19041,note_on,0,0,0,,4,,,40,127
19120,note_on,79,0,0,,4,,,76,127
19195,note_off,75,0,0,,4,,,76,127
19199,note_off,4,0,0,,4,,,64,127
19199,note_on,0,0,0,,0,,,72,127
19274,note_off,75,0,0,,0,,,72,127
19278,note_on,4,0,0,,4,,,76,127
19353,note_off,75,0,0,,4,,,76,127
19353,note_off,0,0,0,,4,,,40,127
19357,note_on,4,0,0,,12,,,71,127
19357,note_on,0,0,0,,4,,,76,127
19357,note_on,0,0,0,,8,,,68,127
19357,note_on,0,0,0,,4,,,52,127
19432,note_off,75,0,0,,4,,,52,127
19436,note_on,4,0,0,,12,,,59,127
19511,note_off,75,0,0,,12,,,59,127
19515,note_on,4,0,0,,8,,,56,127
19590,note_off,75,0,0,,8,,,56,127
19594,note_on,4,0,0,,12,,,59,127
19669,note_off,75,0,0,,12,,,59,127
19669,note_off,0,0,0,,8,,,68,127
19669,note_off,0,0,0,,12,,,71,127
19673,note_on,4,0,0,,0,,,72,127
19673,note_on,0,0,0,,10,,,69,127
19673,note_on,0,0,0,,4,,,52,127
19748,note_off,75,0,0,,4,,,52,127
19752,note_on,4,0,0,,0,,,60,127
19827,note_off,75,0,0,,0,,,60,127
19831,note_on,4,0,0,,10,,,57,127
19906,note_off,75,0,0,,10,,,57,127
19910,note_on,4,0,0,,0,,,60,127
19985,note_off,75,0,0,,0,,,60,127
19985,note_off,0,0,0,,10,,,69,127
19985,note_off,0,0,0,,0,,,72,127
19988,note_off,3,0,0,,4,,,76,127
19989,note_on,1,0,0,,12,,,71,127
19989,note_on,0,0,0,,4,,,76,127
19989,note_on,0,0,0,,8,,,68,127
19989,note_on,0,0,0,,4,,,52,127
20064,note_off,75,0,0,,4,,,52,127
20068,note_on,4,0,0,,2,,,62,127
20143,note_off,75,0,0,,2,,,62,127
20147,note_on,4,0,0,,12,,,59,127
20222,note_off,75,0,0,,12,,,59,127
20226,note_on,4,0,0,,2,,,62,127
20301,note_off,75,0,0,,2,,,62,127
20301,note_off,0,0,0,,8,,,68,127
20301,note_off,0,0,0,,12,,,71,127
20305,note_on,4,0,0,,10,,,69,127
20305,note_on,0,0,0,,0,,,72,127
20305,note_on,0,0,0,,4,,,52,127
20380,note_off,75,0,0,,4,,,52,127
20384,note_on,4,0,0,,4,,,64,127
20459,note_off,75,0,0,,4,,,64,127
20463,note_on,4,0,0,,0,,,60,127
20538,note_off,75,0,0,,0,,,60,127
20542,note_on,4,0,0,,4,,,64,127
20617,note_off,75,0,0,,4,,,64,127
20617,note_off,0,0,0,,0,,,72,127
20617,note_off,0,0,0,,10,,,69,127
20620,note_off,3,0,0,,4,,,76,127
20621,note_on,1,0,0,,5,,,77,127
20621,note_on,0,0,0,,2,,,50,127
20696,note_off,75,0,0,,2,,,50,127
20700,note_on,4,0,0,,2,,,62,127
20775,note_off,75,0,0,,2,,,62,127
20779,note_on,4,0,0,,12,,,59,127
20854,note_off,75,0,0,,12,,,59,127
20858,note_on,4,0,0,,2,,,62,127
20933,note_off,75,0,0,,2,,,62,127
20933,note_off,0,0,0,,5,,,77,127
20937,note_on,4,0,0,,4,,,76,127
20937,note_on,0,0,0,,0,,,48,127
21012,note_off,75,0,0,,0,,,48,127
21016,note_on,4,0,0,,0,,,60,127
21091,note_off,75,0,0,,0,,,60,127
21095,note_on,4,0,0,,10,,,57,127
21170,note_off,75,0,0,,10,,,57,127
21174,note_on,4,0,0,,0,,,60,127
21249,note_off,75,0,0,,0,,,60,127
21249,note_off,0,0,0,,4,,,76,127
21253,note_on,4,0,0,,2,,,74,127
21253,note_on,0,0,0,,12,,,47,127
21328,note_off,75,0,0,,12,,,47,127
21332,note_on,4,0,0,,12,,,59,127
21407,note_off,75,0,0,,12,,,59,127
21411,note_on,4,0,0,,8,,,56,127
21486,note_off,75,0,0,,8,,,56,127
21490,note_on,4,0,0,,12,,,59,127
21565,note_off,75,0,0,,12,,,59,127
21565,note_off,0,0,0,,2,,,74,127
21569,note_on,4,0,0,,0,,,72,127
21569,note_on,0,0,0,,10,,,45,127
21644,note_off,75,0,0,,10,,,45,127
21648,note_on,4,0,0,,10,,,57,127
21723,note_off,75,0,0,,10,,,57,127
21727,note_on,4,0,0,,5,,,53,127
21802,note_off,75,0,0,,5,,,53,127
21806,note_on,4,0,0,,10,,,57,127
21881,note_off,75,0,0,,10,,,57,127
21881,note_off,0,0,0,,0,,,72,127
21885,note_on,4,0,0,,12,,,71,127
21885,note_on,0,0,0,,7,,,43,127
21960,note_off,75,0,0,,7,,,43,127
21964,note_on,4,0,0,,7,,,55,127
22039,note_off,75,0,0,,7,,,55,127
22043,note_on,4,0,0,,4,,,52,127
22118,note_off,75,0,0,,4,,,52,127
22122,note_on,4,0,0,,7,,,55,127
22197,note_off,75,0,0,,7,,,55,127
22197,note_off,0,0,0,,12,,,71,127
22201,note_on,4,0,0,,10,,,69,127
22201,note_on,0,0,0,,5,,,41,127
22276,note_off,75,0,0,,5,,,41,127
22280,note_on,4,0,0,,5,,,53,127
22355,note_off,75,0,0,,5,,,53,127
22359,note_on,4,0,0,,2,,,50,127
22434,note_off,75,0,0,,2,,,50,127
22438,note_on,4,0,0,,5,,,53,127
22513,note_off,75,0,0,,5,,,53,127
22513,note_off,0,0,0,,10,,,69,127
22517,note_on,4,0,0,,12,,,71,127
22517,note_on,0,0,0,,4,,,52,127
22517,note_on,0,0,0,,4,,,40,127
22592,note_off,75,0,0,,12,,,71,127
22596,note_on,4,0,0,,4,,,64,127
22671,note_off,75,0,0,,4,,,64,127
22675,note_on,4,0,0,,6,,,66,127
22750,note_off,75,0,0,,6,,,66,127
22754,note_on,4,0,0,,8,,,68,127
22829,note_off,75,0,0,,8,,,68,127
22829,note_off,0,0,0,,4,,,40,127
22829,note_off,0,0,0,,4,,,52,127
22833,note_on,4,0,0,,10,,,69,127
22833,note_on,0,0,0,,0,,,36,127
22833,note_on,0,0,0,,0,,,48,127
22908,note_off,75,0,0,,10,,,69,127
22912,note_on,4,0,0,,12,,,71,127
22987,note_off,75,0,0,,12,,,71,127
22991,note_on,4,0,0,,0,,,72,127
23066,note_off,75,0,0,,0,,,72,127
23070,note_on,4,0,0,,10,,,69,127
23145,note_off,75,0,0,,10,,,69,127
23145,note_off,0,0,0,,0,,,48,127
23145,note_off,0,0,0,,0,,,36,127
23149,note_on,4,0,0,,12,,,71,127
23149,note_on,0,0,0,,2,,,38,127
23149,note_on,0,0,0,,2,,,50,127
23224,note_off,75,0,0,,12,,,71,127
23228,note_on,4,0,0,,5,,,77,127
23303,note_off,75,0,0,,5,,,77,127
23307,note_on,4,0,0,,4,,,76,127
23382,note_off,75,0,0,,4,,,76,127
23386,note_on,4,0,0,,2,,,74,127
23461,note_off,75,0,0,,2,,,74,127
23461,note_off,0,0,0,,2,,,50,127
23461,note_off,0,0,0,,2,,,38,127
23465,note_on,4,0,0,,0,,,72,127
23465,note_on,0,0,0,,4,,,40,127
23465,note_on,0,0,0,,4,,,52,127
23540,note_off,75,0,0,,0,,,72,127
23544,note_on,4,0,0,,12,,,71,127
23619,note_off,75,0,0,,12,,,71,127
23623,note_on,4,0,0,,10,,,69,127
23698,note_off,75,0,0,,10,,,69,127
23702,note_on,4,0,0,,8,,,68,127
23777,note_off,75,0,0,,8,,,68,127
23777,note_off,0,0,0,,4,,,52,127
23777,note_off,0,0,0,,4,,,40,127
23781,note_on,4,0,0,,10,,,69,127
23781,note_on,0,0,0,,10,,,57,127
23781,note_on,0,0,0,,10,,,45,127
23856,note_off,75,0,0,,10,,,69,127
23860,note_on,4,0,0,,4,,,76,127
23935,note_off,75,0,0,,4,,,76,127
23939,note_on,4,0,0,,2,,,74,127
24014,note_off,75,0,0,,2,,,74,127
24018,note_on,4,0,0,,0,,,72,127
24093,note_off,75,0,0,,0,,,72,127
24097,note_on,4,0,0,,12,,,71,127
24172,note_off,75,0,0,,12,,,71,127
24176,note_on,4,0,0,,10,,,69,127
24251,note_off,75,0,0,,10,,,69,127
24255,note_on,4,0,0,,8,,,68,127
24330,note_off,75,0,0,,8,,,68,127
24332,note_off,2,0,0,,10,,,45,127
24332,note_off,0,0,0,,10,,,57,127
24334,note_on,2,0,0,,6,,,66,127
24409,note_off,75,0,0,,6,,,66,127
24413,note_on,4,0,0,,4,,,64,127
24413,note_on,0,0,0,,4,,,40,127
24492,note_on,79,0,0,,12,,,71,127
24567,note_off,75,0,0,,12,,,71,127
24571,note_off,4,0,0,,4,,,64,127
24571,note_on,0,0,0,,8,,,68,127
24646,note_off,75,0,0,,8,,,68,127
24650,note_on,4,0,0,,12,,,71,127
24725,note_off,75,0,0,,12,,,71,127
24725,note_off,0,0,0,,4,,,40,127
24729,note_on,4,0,0,,4,,,64,127
24729,note_on,0,0,0,,4,,,40,127
24808,note_on,79,0,0,,0,,,72,127
24883,note_off,75,0,0,,0,,,72,127
24887,note_off,4,0,0,,4,,,64,127
24887,note_on,0,0,0,,10,,,69,127
24962,note_off,75,0,0,,10,,,69,127
24966,note_on,4,0,0,,0,,,72,127
25041,note_off,75,0,0,,0,,,72,127
25041,note_off,0,0,0,,4,,,40,127
25045,note_on,4,0,0,,4,,,64,127
25045,note_on,0,0,0,,4,,,40,127
25124,note_on,79,0,0,,2,,,74,127
25199,note_off,75,0,0,,2,,,74,127
25203,note_off,4,0,0,,4,,,64,127
25203,note_on,0,0,0,,12,,,71,127
25278,note_off,75,0,0,,12,,,71,127
25282,note_on,4,0,0,,2,,,74,127
25357,note_off,75,0,0,,2,,,74,127
25357,note_off,0,0,0,,4,,,40,127
25361,note_on,4,0,0,,4,,,64,127
25361,note_on,0,0,0,,4,,,40,127
25440,note_on,79,0,0,,4,,,76,127
25515,note_off,75,0,0,,4,,,76,127
25519,note_off,4,0,0,,4,,,64,127
25519,note_on,0,0,0,,0,,,72,127
25594,note_off,75,0,0,,0,,,72,127
25598,note_on,4,0,0,,4,,,76,127
25673,note_off,75,0,0,,4,,,76,127
25673,note_off,0,0,0,,4,,,40,127
25677,note_on,4,0,0,,12,,,71,127
25677,note_on,0,0,0,,4,,,76,127
25677,note_on,0,0,0,,8,,,68,127
25677,note_on,0,0,0,,4,,,52,127
25752,note_off,75,0,0,,4,,,52,127
25756,note_on,4,0,0,,12,,,59,127
25831,note_off,75,0,0,,12,,,59,127
25835,note_on,4,0,0,,8,,,56,127
25910,note_off,75,0,0,,8,,,56,127
25914,note_on,4,0,0,,12,,,59,127
25989,note_off,75,0,0,,12,,,59,127
25989,note_off,0,0,0,,8,,,68,127
25989,note_off,0,0,0,,12,,,71,127
25993,note_on,4,0,0,,10,,,69,127
25993,note_on,0,0,0,,0,,,72,127
25993,note_on,0,0,0,,4,,,52,127
26068,note_off,75,0,0,,4,,,52,127
26072,note_on,4,0,0,,0,,,60,127
26147,note_off,75,0,0,,0,,,60,127
26151,note_on,4,0,0,,10,,,57,127
26226,note_off,75,0,0,,10,,,57,127
26230,note_on,4,0,0,,0,,,60,127
26305,note_off,75,0,0,,0,,,60,127
26305,note_off,0,0,0,,0,,,72,127
26305,note_off,0,0,0,,10,,,69,127
26308,note_off,3,0,0,,4,,,76,127
26309,note_on,1,0,0,,12,,,71,127
26309,note_on,0,0,0,,4,,,76,127
26309,note_on,0,0,0,,8,,,68,127
26309,note_on,0,0,0,,4,,,52,127
26384,note_off,75,0,0,,4,,,52,127
26388,note_on,4,0,0,,2,,,62,127
26463,note_off,75,0,0,,2,,,62,127
26467,note_on,4,0,0,,12,,,59,127
26542,note_off,75,0,0,,12,,,59,127
26546,note_on,4,0,0,,2,,,62,127
26621,note_off,75,0,0,,2,,,62,127
26621,note_off,0,0,0,,8,,,68,127
26621,note_off,0,0,0,,12,,,71,127
26625,note_on,4,0,0,,0,,,72,127
26625,note_on,0,0,0,,10,,,69,127
26625,note_on,0,0,0,,4,,,52,127
26700,note_off,75,0,0,,4,,,52,127
26704,note_on,4,0,0,,4,,,64,127
26779,note_off,75,0,0,,4,,,64,127
26783,note_on,4,0,0,,0,,,60,127
26858,note_off,75,0,0,,0,,,60,127
26862,note_on,4,0,0,,4,,,64,127
26937,note_off,75,0,0,,4,,,64,127
26937,note_off,0,0,0,,10,,,69,127
26937,note_off,0,0,0,,0,,,72,127
26940,note_off,3,0,0,,4,,,76,127
26941,note_on,1,0,0,,4,,,64,127
26941,note_on,0,0,0,,4,,,40,127
27020,note_on,79,0,0,,12,,,71,127
27095,note_off,75,0,0,,12,,,71,127
27099,note_off,4,0,0,,4,,,64,127
27099,note_on,0,0,0,,8,,,68,127
27174,note_off,75,0,0,,8,,,68,127
27178,note_on,4,0,0,,12,,,71,127
27253,note_off,75,0,0,,12,,,71,127
27253,note_off,0,0,0,,4,,,40,127
27257,note_on,4,0,0,,4,,,64,127
27257,note_on,0,0,0,,4,,,40,127
27336,note_on,79,0,0,,0,,,72,127
27411,note_off,75,0,0,,0,,,72,127
27415,note_off,4,0,0,,4,,,64,127
27415,note_on,0,0,0,,10,,,69,127
27490,note_off,75,0,0,,10,,,69,127
27494,note_on,4,0,0,,0,,,72,127
27569,note_off,75,0,0,,0,,,72,127
27569,note_off,0,0,0,,4,,,40,127
27573,note_on,4,0,0,,4,,,64,127
27573,note_on,0,0,0,,4,,,40,127
27652,note_on,79,0,0,,2,,,74,127
27727,note_off,75,0,0,,2,,,74,127
27731,note_off,4,0,0,,4,,,64,127
27731,note_on,0,0,0,,12,,,71,127
27806,note_off,75,0,0,,12,,,71,127
27810,note_on,4,0,0,,2,,,74,127
27885,note_off,75,0,0,,2,,,74,127
27885,note_off,0,0,0,,4,,,40,127
27889,note_on,4,0,0,,4,,,64,127
27889,note_on,0,0,0,,4,,,40,127
27968,note_on,79,0,0,,4,,,76,127
28043,note_off,75,0,0,,4,,,76,127
28047,note_off,4,0,0,,4,,,64,127
28047,note_on,0,0,0,,0,,,72,127
28122,note_off,75,0,0,,0,,,72,127
28126,note_on,4,0,0,,4,,,76,127
28201,note_off,75,0,0,,4,,,76,127
28201,note_off,0,0,0,,4,,,40,127
28205,note_on,4,0,0,,12,,,71,127
28205,note_on,0,0,0,,4,,,76,127
28205,note_on,0,0,0,,8,,,68,127
28205,note_on,0,0,0,,4,,,52,127
28280,note_off,75,0,0,,4,,,52,127
28284,note_on,4,0,0,,12,,,59,127
28359,note_off,75,0,0,,12,,,59,127
28363,note_on,4,0,0,,8,,,56,127
28438,note_off,75,0,0,,8,,,56,127
28442,note_on,4,0,0,,12,,,59,127
28517,note_off,75,0,0,,12,,,59,127
28517,note_off,0,0,0,,8,,,68,127
28517,note_off,0,0,0,,12,,,71,127
28521,note_on,4,0,0,,10,,,69,127
28521,note_on,0,0,0,,0,,,72,127
28521,note_on,0,0,0,,4,,,52,127
28596,note_off,75,0,0,,4,,,52,127
28600,note_on,4,0,0,,0,,,60,127
28675,note_off,75,0,0,,0,,,60,127
28679,note_on,4,0,0,,10,,,57,127
28754,note_off,75,0,0,,10,,,57,127
28758,note_on,4,0,0,,0,,,60,127
28833,note_off,75,0,0,,0,,,60,127
28833,note_off,0,0,0,,0,,,72,127
28833,note_off,0,0,0,,10,,,69,127
28836,note_off,3,0,0,,4,,,76,127
28837,note_on,1,0,0,,12,,,71,127
28837,note_on,0,0,0,,4,,,76,127
28837,note_on,0,0,0,,8,,,68,127
28837,note_on,0,0,0,,4,,,52,127
28912,note_off,75,0,0,,4,,,52,127
28916,note_on,4,0,0,,2,,,62,127
28991,note_off,75,0,0,,2,,,62,127
28995,note_on,4,0,0,,12,,,59,127
29070,note_off,75,0,0,,12,,,59,127
29074,note_on,4,0,0,,2,,,62,127
29149,note_off,75,0,0,,2,,,62,127
29149,note_off,0,0,0,,8,,,68,127
29149,note_off,0,0,0,,12,,,71,127
29153,note_on,4,0,0,,10,,,69,127
29153,note_on,0,0,0,,0,,,72,127
29153,note_on,0,0,0,,4,,,52,127
29228,note_off,75,0,0,,4,,,52,127
29232,note_on,4,0,0,,4,,,64,127
29307,note_off,75,0,0,,4,,,64,127
29311,note_on,4,0,0,,0,,,60,127
29386,note_off,75,0,0,,0,,,60,127
29390,note_on,4,0,0,,4,,,64,127
29465,note_off,75,0,0,,4,,,64,127
29465,note_off,0,0,0,,0,,,72,127
29465,note_off,0,0,0,,10,,,69,127
29468,note_off,3,0,0,,4,,,76,127
29469,note_on,1,0,0,,5,,,77,127
29469,note_on,0,0,0,,2,,,50,127
29544,note_off,75,0,0,,2,,,50,127
29548,note_on,4,0,0,,2,,,62,127
29623,note_off,75,0,0,,2,,,62,127
29627,note_on,4,0,0,,12,,,59,127
29702,note_off,75,0,0,,12,,,59,127
29706,note_on,4,0,0,,2,,,62,127
29781,note_off,75,0,0,,2,,,62,127
29781,note_off,0,0,0,,5,,,77,127
29785,note_on,4,0,0,,4,,,76,127
29785,note_on,0,0,0,,0,,,48,127
29860,note_off,75,0,0,,0,,,48,127
29864,note_on,4,0,0,,0,,,60,127
29939,note_off,75,0,0,,0,,,60,127
29943,note_on,4,0,0,,10,,,57,127
30018,note_off,75,0,0,,10,,,57,127
30022,note_on,4,0,0,,0,,,60,127
30097,note_off,75,0,0,,0,,,60,127
30097,note_off,0,0,0,,4,,,76,127
30101,note_on,4,0,0,,2,,,74,127
30101,note_on,0,0,0,,12,,,47,127
30176,note_off,75,0,0,,12,,,47,127
30180,note_on,4,0,0,,12,,,59,127
30255,note_off,75,0,0,,12,,,59,127
30259,note_on,4,0,0,,7,,,55,127
30334,note_off,75,0,0,,7,,,55,127
30338,note_on,4,0,0,,12,,,59,127
30413,note_off,75,0,0,,12,,,59,127
30413,note_off,0,0,0,,2,,,74,127
30417,note_on,4,0,0,,0,,,72,127
30417,note_on,0,0,0,,10,,,45,127
30492,note_off,75,0,0,,10,,,45,127
30496,note_on,4,0,0,,10,,,57,127
30571,note_off,75,0,0,,10,,,57,127
30575,note_on,4,0,0,,5,,,53,127
30650,note_off,75,0,0,,5,,,53,127
30654,note_on,4,0,0,,10,,,57,127
30729,note_off,75,0,0,,10,,,57,127
30729,note_off,0,0,0,,0,,,72,127
30733,note_on,4,0,0,,12,,,71,127
30733,note_on,0,0,0,,7,,,43,127
30808,note_off,75,0,0,,7,,,43,127
30812,note_on,4,0,0,,7,,,55,127
30887,note_off,75,0,0,,7,,,55,127
30891,note_on,4,0,0,,4,,,52,127
30966,note_off,75,0,0,,4,,,52,127
30970,note_on,4,0,0,,7,,,55,127
31045,note_off,75,0,0,,7,,,55,127
31045,note_off,0,0,0,,12,,,71,127
31049,note_on,4,0,0,,10,,,69,127
31049,note_on,0,0,0,,5,,,41,127
31124,note_off,75,0,0,,5,,,41,127
31128,note_on,4,0,0,,5,,,53,127
31203,note_off,75,0,0,,5,,,53,127
31207,note_on,4,0,0,,2,,,50,127
31282,note_off,75,0,0,,2,,,50,127
31286,note_on,4,0,0,,5,,,53,127
31361,note_off,75,0,0,,5,,,53,127
31361,note_off,0,0,0,,10,,,69,127
31365,note_on,4,0,0,,12,,,71,127
31365,note_on,0,0,0,,4,,,40,127
31365,note_on,0,0,0,,4,,,52,127
31440,note_off,75,0,0,,12,,,71,127
31444,note_on,4,0,0,,4,,,64,127
31519,note_off,75,0,0,,4,,,64,127
31523,note_on,4,0,0,,6,,,66,127
31598,note_off,75,0,0,,6,,,66,127
31602,note_on,4,0,0,,8,,,68,127
31677,note_off,75,0,0,,8,,,68,127
31677,note_off,0,0,0,,4,,,52,127
31677,note_off,0,0,0,,4,,,40,127
31681,note_on,4,0,0,,10,,,69,127
31681,note_on,0,0,0,,0,,,48,127
31681,note_on,0,0,0,,0,,,36,127
31756,note_off,75,0,0,,10,,,69,127
31760,note_on,4,0,0,,12,,,71,127
31835,note_off,75,0,0,,12,,,71,127
31839,note_on,4,0,0,,0,,,72,127
31914,note_off,75,0,0,,0,,,72,127
31918,note_on,4,0,0,,10,,,69,127
31993,note_off,75,0,0,,10,,,69,127
31993,note_off,0,0,0,,0,,,36,127
31993,note_off,0,0,0,,0,,,48,127
31997,note_on,4,0,0,,12,,,71,127
31997,note_on,0,0,0,,2,,,38,127
31997,note_on,0,0,0,,2,,,50,127
32072,note_off,75,0,0,,12,,,71,127
32076,note_on,4,0,0,,5,,,77,127
32151,note_off,75,0,0,,5,,,77,127
32155,note_on,4,0,0,,4,,,76,127
32230,note_off,75,0,0,,4,,,76,127
32234,note_on,4,0,0,,2,,,74,127
32309,note_off,75,0,0,,2,,,74,127
32309,note_off,0,0,0,,2,,,50,127
32309,note_off,0,0,0,,2,,,38,127
32313,note_on,4,0,0,,0,,,72,127
32313,note_on,0,0,0,,4,,,52,127
32313,note_on,0,0,0,,4,,,40,127
32388,note_off,75,0,0,,0,,,72,127
32392,note_on,4,0,0,,12,,,71,127
32467,note_off,75,0,0,,12,,,71,127
32471,note_on,4,0,0,,10,,,69,127
32546,note_off,75,0,0,,10,,,69,127
32550,note_on,4,0,0,,8,,,68,127
32625,note_off,75,0,0,,8,,,68,127
32625,note_off,0,0,0,,4,,,40,127
32625,note_off,0,0,0,,4,,,52,127
32629,note_on,4,0,0,,10,,,69,127
32629,note_on,0,0,0,,10,,,45,127
32704,note_off,75,0,0,,10,,,45,127
32708,note_on,4,0,0,,10,,,57,127
32783,note_off,75,0,0,,10,,,57,127
32787,note_on,4,0,0,,0,,,60,127
32862,note_off,75,0,0,,0,,,60,127
32866,note_on,4,0,0,,10,,,57,127
32941,note_off,75,0,0,,10,,,57,127
32945,note_on,4,0,0,,10,,,81,127
32945,note_on,0,0,0,,5,,,41,127
33020,note_off,75,0,0,,5,,,41,127
33024,note_on,4,0,0,,5,,,53,127
33099,note_off,75,0,0,,5,,,53,127
33103,note_on,4,0,0,,10,,,57,127
33178,note_off,75,0,0,,10,,,57,127
33182,note_on,4,0,0,,5,,,53,127
33257,note_off,75,0,0,,5,,,53,127
33260,note_off,3,0,0,,10,,,69,127
33261,note_on,1,0,0,,2,,,38,127
33336,note_off,75,0,0,,10,,,81,127
33340,note_on,4,0,0,,5,,,77,127
33415,note_off,75,0,0,,5,,,77,127
33419,note_on,4,0,0,,4,,,76,127
33494,note_off,75,0,0,,4,,,76,127
33498,note_on,4,0,0,,2,,,74,127
33573,note_off,75,0,0,,2,,,74,127
33573,note_off,0,0,0,,2,,,38,127
33577,note_on,4,0,0,,0,,,72,127
33577,note_on,0,0,0,,4,,,52,127
33577,note_on,0,0,0,,4,,,40,127
33652,note_off,75,0,0,,0,,,72,127
33656,note_on,4,0,0,,12,,,71,127
33731,note_off,75,0,0,,12,,,71,127
33735,note_on,4,0,0,,10,,,69,127
33810,note_off,75,0,0,,10,,,69,127
33814,note_on,4,0,0,,8,,,68,127
33889,note_off,75,0,0,,8,,,68,127
33889,note_off,0,0,0,,4,,,40,127
33889,note_off,0,0,0,,4,,,52,127
33893,note_on,4,0,0,,10,,,69,127
33893,note_on,0,0,0,,10,,,45,127
33968,note_off,75,0,0,,10,,,45,127
33972,note_on,4,0,0,,10,,,57,127
34047,note_off,75,0,0,,10,,,57,127
34051,note_on,4,0,0,,0,,,60,127
34126,note_off,75,0,0,,0,,,60,127
34130,note_on,4,0,0,,10,,,57,127
34205,note_off,75,0,0,,10,,,57,127
34209,note_on,4,0,0,,10,,,81,127
34209,note_on,0,0,0,,5,,,41,127
34284,note_off,75,0,0,,5,,,41,127
34288,note_on,4,0,0,,5,,,53,127
34363,note_off,75,0,0,,5,,,53,127
34367,note_on,4,0,0,,10,,,57,127
34442,note_off,75,0,0,,10,,,57,127
34446,note_on,4,0,0,,5,,,53,127
34521,note_off,75,0,0,,5,,,53,127
34524,note_off,3,0,0,,10,,,69,127
34525,note_on,1,0,0,,2,,,50,127
34525,note_on,0,0,0,,2,,,38,127
34600,note_off,75,0,0,,10,,,81,127
34604,note_on,4,0,0,,5,,,77,127
34679,note_off,75,0,0,,5,,,77,127
34683,note_on,4,0,0,,4,,,76,127
34758,note_off,75,0,0,,4,,,76,127
34762,note_on,4,0,0,,2,,,74,127
34837,note_off,75,0,0,,2,,,74,127
34837,note_off,0,0,0,,2,,,38,127
34837,note_off,0,0,0,,2,,,50,127
34841,note_on,4,0,0,,0,,,72,127
34841,note_on,0,0,0,,4,,,52,127
34841,note_on,0,0,0,,4,,,40,127
34916,note_off,75,0,0,,0,,,72,127
34920,note_on,4,0,0,,12,,,71,127
34995,note_off,75,0,0,,12,,,71,127
34999,note_on,4,0,0,,10,,,69,127
35074,note_off,75,0,0,,10,,,69,127
35078,note_on,4,0,0,,8,,,68,127
35153,note_off,75,0,0,,8,,,68,127
35153,note_off,0,0,0,,4,,,40,127
35153,note_off,0,0,0,,4,,,52,127
35157,note_on,4,0,0,,8,,,68,127
35157,note_on,0,0,0,,10,,,33,127
35157,note_on,0,0,0,,10,,,45,127
35312,note_off,155,0,0,,8,,,68,127
35316,note_on,4,0,0,,10,,,69,127
35713,note_off,397,0,0,,10,,,69,127
35788,note_off,75,0,0,,10,,,45,127
35788,note_off,0,0,0,,10,,,33,127
35792,note_on,4,0,0,,10,,,69,127
35792,note_on,0,0,0,,10,,,33,127
35792,note_on,0,0,0,,10,,,45,127
35867,note_off,75,0,0,,10,,,69,127
35871,note_on,4,0,0,,1,,,73,127
35946,note_off,75,0,0,,1,,,73,127
35950,note_on,4,0,0,,12,,,71,127
36025,note_off,75,0,0,,12,,,71,127
36029,note_on,4,0,0,,10,,,69,127
36104,note_off,75,0,0,,10,,,69,127
36108,note_on,4,0,0,,10,,,81,127
36183,note_off,75,0,0,,10,,,81,127
36187,note_on,4,0,0,,7,,,79,127
36262,note_off,75,0,0,,7,,,79,127
36266,note_on,4,0,0,,5,,,77,127
36341,note_off,75,0,0,,5,,,77,127
36345,note_on,4,0,0,,4,,,76,127
36420,note_off,75,0,0,,4,,,76,127
36424,note_on,4,0,0,,2,,,74,127
36499,note_off,75,0,0,,2,,,74,127
36503,note_on,4,0,0,,5,,,77,127
36578,note_off,75,0,0,,5,,,77,127
36582,note_on,4,0,0,,4,,,76,127
36657,note_off,75,0,0,,4,,,76,127
36661,note_on,4,0,0,,2,,,74,127
36736,note_off,75,0,0,,2,,,74,127
36740,note_on,4,0,0,,7,,,79,127
36815,note_off,75,0,0,,7,,,79,127
36819,note_on,4,0,0,,5,,,77,127
36894,note_off,75,0,0,,5,,,77,127
36898,note_on,4,0,0,,4,,,76,127
36973,note_off,75,0,0,,4,,,76,127
36977,note_on,4,0,0,,2,,,74,127
37052,note_off,75,0,0,,2,,,74,127
37052,note_off,0,0,0,,10,,,45,127
37052,note_off,0,0,0,,10,,,33,127
37056,note_on,4,0,0,,2,,,74,127
37056,note_on,0,0,0,,10,,,57,127
37131,note_off,75,0,0,,10,,,57,127
37135,note_on,4,0,0,,1,,,61,127
37210,note_off,75,0,0,,1,,,61,127
37210,note_off,0,0,0,,2,,,74,127
37214,note_on,4,0,0,,1,,,73,127
37214,note_on,0,0,0,,12,,,59,127
37289,note_off,75,0,0,,12,,,59,127
37293,note_on,4,0,0,,10,,,57,127
37368,note_off,75,0,0,,10,,,57,127
37372,note_on,4,0,0,,10,,,69,127
37447,note_off,75,0,0,,10,,,69,127
37451,note_on,4,0,0,,7,,,67,127
37526,note_off,75,0,0,,7,,,67,127
37530,note_on,4,0,0,,5,,,65,127
37605,note_off,75,0,0,,5,,,65,127
37609,note_on,4,0,0,,4,,,64,127
37684,note_off,75,0,0,,4,,,64,127
37688,note_on,4,0,0,,2,,,62,127
37763,note_off,75,0,0,,2,,,62,127
37767,note_on,4,0,0,,5,,,65,127
37842,note_off,75,0,0,,5,,,65,127
37846,note_on,4,0,0,,4,,,64,127
37921,note_off,75,0,0,,4,,,64,127
37925,note_on,4,0,0,,2,,,62,127
38000,note_off,75,0,0,,2,,,62,127
38000,note_off,0,0,0,,1,,,73,127
38004,note_on,4,0,0,,2,,,74,127
38004,note_on,0,0,0,,7,,,67,127
38079,note_off,75,0,0,,7,,,67,127
38083,note_on,4,0,0,,5,,,65,127
38158,note_off,75,0,0,,5,,,65,127
38162,note_on,4,0,0,,4,,,64,127
38237,note_off,75,0,0,,4,,,64,127
38241,note_on,4,0,0,,2,,,62,127
38316,note_off,75,0,0,,2,,,62,127
38316,note_off,0,0,0,,2,,,74,127
38320,note_on,4,0,0,,4,,,76,127
38320,note_on,0,0,0,,4,,,64,127
38320,note_on,0,0,0,,1,,,61,127
38395,note_off,75,0,0,,4,,,76,127
38399,note_on,4,0,0,,7,,,79,127
38474,note_off,75,0,0,,7,,,79,127
38478,note_on,4,0,0,,5,,,77,127
38553,note_off,75,0,0,,5,,,77,127
38557,note_on,4,0,0,,4,,,76,127
38632,note_off,75,0,0,,4,,,76,127
38632,note_off,0,0,0,,1,,,61,127
38632,note_off,0,0,0,,4,,,64,127
38636,note_on,4,0,0,,5,,,77,127
38636,note_on,0,0,0,,2,,,62,127
38711,note_off,75,0,0,,5,,,77,127
38715,note_on,4,0,0,,4,,,76,127
38790,note_off,75,0,0,,4,,,76,127
38794,note_on,4,0,0,,2,,,74,127
38869,note_off,75,0,0,,2,,,74,127
38873,note_on,4,0,0,,0,,,72,127
38948,note_off,75,0,0,,0,,,72,127
38952,note_on,4,0,0,,11,,,70,127
38952,note_on,0,0,0,,7,,,55,127
39027,note_off,75,0,0,,11,,,70,127
39031,note_on,4,0,0,,2,,,74,127
39106,note_off,75,0,0,,2,,,74,127
39110,note_on,4,0,0,,0,,,72,127
39185,note_off,75,0,0,,0,,,72,127
39189,note_on,4,0,0,,11,,,70,127
39264,note_off,75,0,0,,11,,,70,127
39267,note_off,3,0,0,,2,,,62,127
39268,note_on,1,0,0,,0,,,72,127
39268,note_on,0,0,0,,4,,,64,127
39343,note_off,75,0,0,,0,,,72,127
39347,note_on,4,0,0,,11,,,70,127
39422,note_off,75,0,0,,11,,,70,127
39426,note_on,4,0,0,,10,,,69,127
39501,note_off,75,0,0,,10,,,69,127
39505,note_on,4,0,0,,7,,,67,127
39580,note_off,75,0,0,,7,,,67,127
39580,note_off,0,0,0,,4,,,64,127
39583,note_off,3,0,0,,7,,,55,127
39584,note_on,1,0,0,,10,,,69,127
39584,note_on,0,0,0,,0,,,72,127
39584,note_on,0,0,0,,5,,,65,127
39584,note_on,0,0,0,,5,,,53,127
39659,note_off,75,0,0,,5,,,65,127
39663,note_on,4,0,0,,4,,,64,127
39738,note_off,75,0,0,,4,,,64,127
39742,note_on,4,0,0,,2,,,62,127
39817,note_off,75,0,0,,2,,,62,127
39821,note_on,4,0,0,,0,,,60,127
39891,note_off,70,0,0,,5,,,53,127
39896,note_off,5,0,0,,0,,,60,127
39896,note_off,0,0,0,,0,,,72,127
39896,note_off,0,0,0,,10,,,69,127
39900,note_on,4,0,0,,11,,,70,127
39900,note_on,0,0,0,,2,,,74,127
39900,note_on,0,0,0,,2,,,62,127
39975,note_off,75,0,0,,2,,,62,127
39979,note_on,4,0,0,,5,,,65,127
40054,note_off,75,0,0,,5,,,65,127
40058,note_on,4,0,0,,4,,,64,127
40133,note_off,75,0,0,,4,,,64,127
40137,note_on,4,0,0,,2,,,62,127
40212,note_off,75,0,0,,2,,,62,127
40212,note_off,0,0,0,,2,,,74,127
40212,note_off,0,0,0,,11,,,70,127
40216,note_on,4,0,0,,0,,,72,127
40216,note_on,0,0,0,,4,,,76,127
40216,note_on,0,0,0,,0,,,60,127
40291,note_off,75,0,0,,0,,,60,127
40295,note_on,4,0,0,,11,,,58,127
40370,note_off,75,0,0,,11,,,58,127
40374,note_on,4,0,0,,10,,,57,127
40449,note_off,75,0,0,,10,,,57,127
40453,note_on,4,0,0,,7,,,55,127
40528,note_off,75,0,0,,7,,,55,127
40528,note_off,0,0,0,,4,,,76,127
40528,note_off,0,0,0,,0,,,72,127
40532,note_on,4,0,0,,5,,,77,127
40532,note_on,0,0,0,,5,,,53,127
40607,note_off,75,0,0,,5,,,77,127
40611,note_on,4,0,0,,4,,,76,127
40686,note_off,75,0,0,,4,,,76,127
40690,note_on,4,0,0,,2,,,74,127
40765,note_off,75,0,0,,2,,,74,127
40769,note_on,4,0,0,,0,,,72,127
40844,note_off,75,0,0,,0,,,72,127
40848,note_on,4,0,0,,11,,,70,127
40848,note_on,0,0,0,,7,,,55,127
40923,note_off,75,0,0,,11,,,70,127
40927,note_on,4,0,0,,2,,,74,127
41002,note_off,75,0,0,,2,,,74,127
41005,note_off,3,0,0,,5,,,53,127
41006,note_on,1,0,0,,0,,,72,127
41081,note_off,75,0,0,,0,,,72,127
41085,note_on,4,0,0,,11,,,70,127
41160,note_off,75,0,0,,11,,,70,127
41164,note_on,4,0,0,,0,,,72,127
41164,note_on,0,0,0,,0,,,48,127
41239,note_off,75,0,0,,0,,,72,127
41243,note_on,4,0,0,,11,,,70,127
41318,note_off,75,0,0,,11,,,70,127
41322,note_on,4,0,0,,10,,,69,127
41397,note_off,75,0,0,,10,,,69,127
41401,note_on,4,0,0,,7,,,67,127
41476,note_off,75,0,0,,7,,,67,127
41476,note_off,0,0,0,,0,,,48,127
41479,note_off,3,0,0,,7,,,55,127
41480,note_on,1,0,0,,10,,,69,127
41480,note_on,0,0,0,,5,,,53,127
41480,note_on,0,0,0,,10,,,57,127
41555,note_off,75,0,0,,10,,,69,127
41559,note_on,4,0,0,,0,,,72,127
41634,note_off,75,0,0,,0,,,72,127
41638,note_on,4,0,0,,11,,,70,127
41713,note_off,75,0,0,,11,,,70,127
41717,note_on,4,0,0,,10,,,69,127
41792,note_off,75,0,0,,10,,,69,127
41792,note_off,0,0,0,,10,,,57,127
41792,note_off,0,0,0,,5,,,53,127
41796,note_on,4,0,0,,11,,,70,127
41796,note_on,0,0,0,,2,,,50,127
41796,note_on,0,0,0,,11,,,58,127
41871,note_off,75,0,0,,11,,,70,127
41875,note_on,4,0,0,,2,,,74,127
41950,note_off,75,0,0,,2,,,74,127
41954,note_on,4,0,0,,0,,,72,127
42029,note_off,75,0,0,,0,,,72,127
42033,note_on,4,0,0,,11,,,70,127
42108,note_off,75,0,0,,11,,,70,127
42108,note_off,0,0,0,,11,,,58,127
42108,note_off,0,0,0,,2,,,50,127
42112,note_on,4,0,0,,0,,,72,127
42112,note_on,0,0,0,,0,,,60,127
42112,note_on,0,0,0,,11,,,58,127
42112,note_on,0,0,0,,3,,,51,127
42187,note_off,75,0,0,,0,,,72,127
42191,note_on,4,0,0,,7,,,79,127
42266,note_off,75,0,0,,7,,,79,127
42270,note_on,4,0,0,,5,,,77,127
42345,note_off,75,0,0,,5,,,77,127
42349,note_on,4,0,0,,3,,,75,127
42424,note_off,75,0,0,,3,,,75,127
42424,note_off,0,0,0,,3,,,51,127
42428,note_on,4,0,0,,2,,,74,127
42428,note_on,0,0,0,,5,,,53,127
42503,note_off,75,0,0,,2,,,74,127
42507,note_on,4,0,0,,0,,,72,127
42582,note_off,75,0,0,,0,,,72,127
42586,note_on,4,0,0,,11,,,70,127
42661,note_off,75,0,0,,11,,,70,127
42665,note_on,4,0,0,,10,,,69,127
42740,note_off,75,0,0,,10,,,69,127
42740,note_off,0,0,0,,5,,,53,127
42743,note_off,3,0,0,,11,,,58,127
42743,note_off,0,0,0,,0,,,60,127
42744,note_on,1,0,0,,2,,,74,127
42744,note_on,0,0,0,,11,,,58,127
42744,note_on,0,0,0,,11,,,46,127
42819,note_off,75,0,0,,2,,,74,127
42823,note_on,4,0,0,,0,,,72,127
42898,note_off,75,0,0,,0,,,72,127
42902,note_on,4,0,0,,11,,,70,127
42977,note_off,75,0,0,,11,,,70,127
42981,note_on,4,0,0,,10,,,69,127
43056,note_off,75,0,0,,10,,,69,127
43056,note_off,0,0,0,,11,,,46,127
43056,note_off,0,0,0,,11,,,58,127
43060,note_on,4,0,0,,11,,,70,127
43060,note_on,0,0,0,,7,,,55,127
43060,note_on,0,0,0,,7,,,43,127
43135,note_off,75,0,0,,11,,,70,127
43139,note_on,4,0,0,,0,,,72,127
43214,note_off,75,0,0,,0,,,72,127
43218,note_on,4,0,0,,2,,,74,127
43293,note_off,75,0,0,,2,,,74,127
43297,note_on,4,0,0,,4,,,76,127
43372,note_off,75,0,0,,4,,,76,127
43372,note_off,0,0,0,,7,,,43,127
43372,note_off,0,0,0,,7,,,55,127
43376,note_on,4,0,0,,5,,,77,127
43376,note_on,0,0,0,,5,,,53,127
43376,note_on,0,0,0,,5,,,41,127
43455,note_on,79,0,0,,11,,,70,127
43530,note_off,75,0,0,,11,,,70,127
43534,note_on,4,0,0,,10,,,69,127
43609,note_off,75,0,0,,10,,,69,127
43613,note_on,4,0,0,,7,,,67,127
43683,note_off,70,0,0,,5,,,77,127
43688,note_off,5,0,0,,7,,,67,127
43688,note_off,0,0,0,,5,,,41,127
43688,note_off,0,0,0,,5,,,53,127
43692,note_on,4,0,0,,10,,,69,127
43692,note_on,0,0,0,,2,,,62,127
43692,note_on,0,0,0,,2,,,50,127
43767,note_off,75,0,0,,10,,,69,127
43771,note_on,4,0,0,,0,,,72,127
43846,note_off,75,0,0,,0,,,72,127
43850,note_on,4,0,0,,12,,,71,127
43925,note_off,75,0,0,,12,,,71,127
43929,note_on,4,0,0,,2,,,74,127
44004,note_off,75,0,0,,2,,,74,127
44004,note_off,0,0,0,,2,,,50,127
44004,note_off,0,0,0,,2,,,62,127
44008,note_on,4,0,0,,0,,,72,127
44008,note_on,0,0,0,,0,,,60,127
44008,note_on,0,0,0,,0,,,48,127
44087,note_on,79,0,0,,5,,,77,127
44162,note_off,75,0,0,,5,,,77,127
44166,note_on,4,0,0,,4,,,76,127
44241,note_off,75,0,0,,4,,,76,127
44245,note_on,4,0,0,,2,,,74,127
44315,note_off,70,0,0,,0,,,72,127
44320,note_off,5,0,0,,2,,,74,127
44320,note_off,0,0,0,,0,,,48,127
44320,note_off,0,0,0,,0,,,60,127
44324,note_on,4,0,0,,4,,,76,127
44324,note_on,0,0,0,,10,,,57,127
44324,note_on,0,0,0,,10,,,45,127
44399,note_off,75,0,0,,4,,,76,127
44403,note_on,4,0,0,,7,,,79,127
44478,note_off,75,0,0,,7,,,79,127
44482,note_on,4,0,0,,6,,,78,127
44557,note_off,75,0,0,,6,,,78,127
44561,note_on,4,0,0,,10,,,81,127
44636,note_off,75,0,0,,10,,,81,127
44636,note_off,0,0,0,,10,,,45,127
44636,note_off,0,0,0,,10,,,57,127
44640,note_on,4,0,0,,7,,,79,127
44640,note_on,0,0,0,,7,,,55,127
44640,note_on,0,0,0,,7,,,43,127
44719,note_on,79,0,0,,0,,,72,127
44794,note_off,75,0,0,,0,,,72,127
44798,note_on,4,0,0,,12,,,71,127
44873,note_off,75,0,0,,12,,,71,127
44877,note_on,4,0,0,,10,,,69,127
44947,note_off,70,0,0,,7,,,79,127
44952,note_off,5,0,0,,10,,,69,127
44952,note_off,0,0,0,,7,,,43,127
44952,note_off,0,0,0,,7,,,55,127
44956,note_on,4,0,0,,12,,,71,127
44956,note_on,0,0,0,,4,,,52,127
44956,note_on,0,0,0,,4,,,64,127
45031,note_off,75,0,0,,12,,,71,127
45035,note_on,4,0,0,,2,,,74,127
45110,note_off,75,0,0,,2,,,74,127
45114,note_on,4,0,0,,1,,,73,127
45189,note_off,75,0,0,,1,,,73,127
45193,note_on,4,0,0,,4,,,76,127
45268,note_off,75,0,0,,4,,,76,127
45268,note_off,0,0,0,,4,,,64,127
45268,note_off,0,0,0,,4,,,52,127
45272,note_on,4,0,0,,2,,,74,127
45272,note_on,0,0,0,,2,,,62,127
45272,note_on,0,0,0,,2,,,50,127
45351,note_on,79,0,0,,7,,,79,127
45426,note_off,75,0,0,,7,,,79,127
45430,note_on,4,0,0,,5,,,77,127
45505,note_off,75,0,0,,5,,,77,127
45509,note_on,4,0,0,,4,,,76,127
45579,note_off,70,0,0,,2,,,74,127
45584,note_off,5,0,0,,4,,,76,127
45584,note_off,0,0,0,,2,,,50,127
45584,note_off,0,0,0,,2,,,62,127
45588,note_on,4,0,0,,5,,,77,127
45588,note_on,0,0,0,,2,,,62,127
45588,note_on,0,0,0,,2,,,50,127
45663,note_off,75,0,0,,5,,,77,127
45667,note_on,4,0,0,,7,,,79,127
45742,note_off,75,0,0,,7,,,79,127
45746,note_on,4,0,0,,10,,,81,127
45821,note_off,75,0,0,,10,,,81,127
45825,note_on,4,0,0,,5,,,77,127
45900,note_off,75,0,0,,5,,,77,127
45900,note_off,0,0,0,,2,,,50,127
45900,note_off,0,0,0,,2,,,62,127
45904,note_on,4,0,0,,11,,,82,127
45904,note_on,0,0,0,,7,,,43,127
45904,note_on,0,0,0,,7,,,55,127
45979,note_off,75,0,0,,11,,,82,127
45983,note_on,4,0,0,,10,,,81,127
46058,note_off,75,0,0,,10,,,81,127
46062,note_on,4,0,0,,7,,,79,127
46137,note_off,75,0,0,,7,,,79,127
46141,note_on,4,0,0,,5,,,77,127
46216,note_off,75,0,0,,5,,,77,127
46216,note_off,0,0,0,,7,,,55,127
46216,note_off,0,0,0,,7,,,43,127
46220,note_on,4,0,0,,4,,,76,127
46220,note_on,0,0,0,,7,,,55,127
46220,note_on,0,0,0,,7,,,43,127
46295,note_off,75,0,0,,4,,,76,127
46299,note_on,4,0,0,,2,,,74,127
46374,note_off,75,0,0,,2,,,74,127
46378,note_on,4,0,0,,1,,,73,127
46453,note_off,75,0,0,,1,,,73,127
46457,note_on,4,0,0,,12,,,71,127
46532,note_off,75,0,0,,12,,,71,127
46532,note_off,0,0,0,,7,,,43,127
46532,note_off,0,0,0,,7,,,55,127
46536,note_on,4,0,0,,10,,,69,127
46536,note_on,0,0,0,,10,,,57,127
46536,note_on,0,0,0,,10,,,45,127
46611,note_off,75,0,0,,10,,,69,127
46615,note_on,4,0,0,,4,,,76,127
46690,note_off,75,0,0,,4,,,76,127
46694,note_on,4,0,0,,1,,,73,127
46769,note_off,75,0,0,,1,,,73,127
46773,note_on,4,0,0,,4,,,76,127
46848,note_off,75,0,0,,4,,,76,127
46848,note_off,0,0,0,,10,,,45,127
46848,note_off,0,0,0,,10,,,57,127
46852,note_on,4,0,0,,10,,,69,127
46852,note_on,0,0,0,,10,,,33,127
46931,note_on,79,0,0,,5,,,77,127
47006,note_off,75,0,0,,5,,,77,127
47010,note_off,4,0,0,,10,,,69,127
47010,note_on,0,0,0,,2,,,74,127
47085,note_off,75,0,0,,2,,,74,127
47089,note_on,4,0,0,,5,,,77,127
47164,note_off,75,0,0,,5,,,77,127
47164,note_off,0,0,0,,10,,,33,127
47168,note_on,4,0,0,,10,,,69,127
47168,note_on,0,0,0,,10,,,33,127
47247,note_on,79,0,0,,7,,,79,127
47322,note_off,75,0,0,,7,,,79,127
47326,note_off,4,0,0,,10,,,69,127
47326,note_on,0,0,0,,4,,,76,127
47401,note_off,75,0,0,,4,,,76,127
47405,note_on,4,0,0,,7,,,79,127
47480,note_off,75,0,0,,7,,,79,127
47480,note_off,0,0,0,,10,,,33,127
47484,note_on,4,0,0,,10,,,69,127
47484,note_on,0,0,0,,10,,,33,127
47563,note_on,79,0,0,,10,,,81,127
47638,note_off,75,0,0,,10,,,81,127
47642,note_off,4,0,0,,10,,,69,127
47642,note_on,0,0,0,,5,,,77,127
47717,note_off,75,0,0,,5,,,77,127
47721,note_on,4,0,0,,10,,,81,127
47796,note_off,75,0,0,,10,,,81,127
47796,note_off,0,0,0,,10,,,33,127
47800,note_on,4,0,0,,10,,,81,127
47800,note_on,0,0,0,,1,,,73,127
47800,note_on,0,0,0,,4,,,76,127
47800,note_on,0,0,0,,10,,,57,127
47875,note_off,75,0,0,,10,,,57,127
47879,note_on,4,0,0,,4,,,64,127
47954,note_off,75,0,0,,4,,,64,127
47958,note_on,4,0,0,,1,,,61,127
48033,note_off,75,0,0,,1,,,61,127
48037,note_on,4,0,0,,4,,,64,127
48112,note_off,75,0,0,,4,,,64,127
48112,note_off,0,0,0,,4,,,76,127
48112,note_off,0,0,0,,1,,,73,127
48116,note_on,4,0,0,,2,,,74,127
48116,note_on,0,0,0,,5,,,77,127
48116,note_on,0,0,0,,10,,,57,127
48191,note_off,75,0,0,,10,,,57,127
48195,note_on,4,0,0,,5,,,65,127
48270,note_off,75,0,0,,5,,,65,127
48274,note_on,4,0,0,,2,,,62,127
48349,note_off,75,0,0,,2,,,62,127
48353,note_on,4,0,0,,5,,,65,127
48428,note_off,75,0,0,,5,,,65,127
48428,note_off,0,0,0,,5,,,77,127
48428,note_off,0,0,0,,2,,,74,127
48431,note_off,3,0,0,,10,,,81,127
48432,note_on,1,0,0,,10,,,81,127
48432,note_on,0,0,0,,4,,,76,127
48432,note_on,0,0,0,,1,,,73,127
48432,note_on,0,0,0,,10,,,57,127
48507,note_off,75,0,0,,10,,,57,127
48511,note_on,4,0,0,,7,,,67,127
48586,note_off,75,0,0,,7,,,67,127
48590,note_on,4,0,0,,4,,,64,127
48665,note_off,75,0,0,,4,,,64,127
48669,note_on,4,0,0,,7,,,67,127
48744,note_off,75,0,0,,7,,,67,127
48744,note_off,0,0,0,,1,,,73,127
48744,note_off,0,0,0,,4,,,76,127
48748,note_on,4,0,0,,5,,,77,127
48748,note_on,0,0,0,,2,,,74,127
48748,note_on,0,0,0,,10,,,57,127
48823,note_off,75,0,0,,10,,,57,127
48827,note_on,4,0,0,,10,,,69,127
48902,note_off,75,0,0,,10,,,69,127
48906,note_on,4,0,0,,5,,,65,127
48981,note_off,75,0,0,,5,,,65,127
48985,note_on,4,0,0,,10,,,69,127
49060,note_off,75,0,0,,10,,,69,127
49060,note_off,0,0,0,,2,,,74,127
49060,note_off,0,0,0,,5,,,77,127
49063,note_off,3,0,0,,10,,,81,127
49064,note_on,1,0,0,,10,,,69,127
49064,note_on,0,0,0,,10,,,33,127
49143,note_on,79,0,0,,4,,,76,127
49218,note_off,75,0,0,,4,,,76,127
49222,note_off,4,0,0,,10,,,69,127
49222,note_on,0,0,0,,1,,,73,127
49297,note_off,75,0,0,,1,,,73,127
49301,note_on,4,0,0,,4,,,76,127
49376,note_off,75,0,0,,4,,,76,127
49376,note_off,0,0,0,,10,,,33,127
49380,note_on,4,0,0,,10,,,69,127
49380,note_on,0,0,0,,10,,,33,127
49459,note_on,79,0,0,,5,,,77,127
49534,note_off,75,0,0,,5,,,77,127
49538,note_off,4,0,0,,10,,,69,127
49538,note_on,0,0,0,,2,,,74,127
49613,note_off,75,0,0,,2,,,74,127
49617,note_on,4,0,0,,5,,,77,127
49692,note_off,75,0,0,,5,,,77,127
49692,note_off,0,0,0,,10,,,33,127
49696,note_on,4,0,0,,10,,,69,127
49696,note_on,0,0,0,,10,,,33,127
49775,note_on,79,0,0,,7,,,79,127
49850,note_off,75,0,0,,7,,,79,127
49854,note_off,4,0,0,,10,,,69,127
49854,note_on,0,0,0,,4,,,76,127
49929,note_off,75,0,0,,4,,,76,127
49933,note_on,4,0,0,,7,,,79,127
50008,note_off,75,0,0,,7,,,79,127
50008,note_off,0,0,0,,10,,,33,127
50012,note_on,4,0,0,,10,,,69,127
50012,note_on,0,0,0,,10,,,33,127
50091,note_on,79,0,0,,10,,,81,127
50166,note_off,75,0,0,,10,,,81,127
50170,note_off,4,0,0,,10,,,69,127
50170,note_on,0,0,0,,5,,,77,127
50245,note_off,75,0,0,,5,,,77,127
50249,note_on,4,0,0,,10,,,81,127
50324,note_off,75,0,0,,10,,,81,127
50324,note_off,0,0,0,,10,,,33,127
50328,note_on,4,0,0,,10,,,81,127
50328,note_on,0,0,0,,4,,,76,127
50328,note_on,0,0,0,,1,,,73,127
50328,note_on,0,0,0,,10,,,57,127
50403,note_off,75,0,0,,10,,,57,127
50407,note_on,4,0,0,,4,,,64,127
50482,note_off,75,0,0,,4,,,64,127
50486,note_on,4,0,0,,1,,,61,127
50561,note_off,75,0,0,,1,,,61,127
50565,note_on,4,0,0,,4,,,64,127
50640,note_off,75,0,0,,4,,,64,127
50640,note_off,0,0,0,,1,,,73,127
50640,note_off,0,0,0,,4,,,76,127
50644,note_on,4,0,0,,2,,,74,127
50644,note_on,0,0,0,,5,,,77,127
50644,note_on,0,0,0,,10,,,57,127
50719,note_off,75,0,0,,10,,,57,127
50723,note_on,4,0,0,,5,,,65,127
50798,note_off,75,0,0,,5,,,65,127
50802,note_on,4,0,0,,2,,,62,127
50877,note_off,75,0,0,,2,,,62,127
50881,note_on,4,0,0,,5,,,65,127
50956,note_off,75,0,0,,5,,,65,127
50956,note_off,0,0,0,,5,,,77,127
50956,note_off,0,0,0,,2,,,74,127
50959,note_off,3,0,0,,10,,,81,127
50960,note_on,1,0,0,,4,,,76,127
50960,note_on,0,0,0,,10,,,81,127
50960,note_on,0,0,0,,1,,,73,127
50960,note_on,0,0,0,,10,,,57,127
51035,note_off,75,0,0,,10,,,57,127
51039,note_on,4,0,0,,7,,,67,127
51114,note_off,75,0,0,,7,,,67,127
51118,note_on,4,0,0,,4,,,64,127
51193,note_off,75,0,0,,4,,,64,127
51197,note_on,4,0,0,,7,,,67,127
51272,note_off,75,0,0,,7,,,67,127
51272,note_off,0,0,0,,1,,,73,127
51272,note_off,0,0,0,,4,,,76,127
51276,note_on,4,0,0,,5,,,77,127
51276,note_on,0,0,0,,2,,,74,127
51276,note_on,0,0,0,,10,,,57,127
51351,note_off,75,0,0,,10,,,57,127
51355,note_on,4,0,0,,10,,,69,127
51430,note_off,75,0,0,,10,,,69,127
51434,note_on,4,0,0,,5,,,65,127
51509,note_off,75,0,0,,5,,,65,127
51513,note_on,4,0,0,,10,,,69,127
51588,note_off,75,0,0,,10,,,69,127
51588,note_off,0,0,0,,2,,,74,127
51588,note_off,0,0,0,,5,,,77,127
51591,note_off,3,0,0,,10,,,81,127
51592,note_on,1,0,0,,11,,,82,127
51592,note_on,0,0,0,,7,,,55,127
51667,note_off,75,0,0,,7,,,55,127
51671,note_on,4,0,0,,7,,,67,127
51746,note_off,75,0,0,,7,,,67,127
51750,note_on,4,0,0,,4,,,64,127
51825,note_off,75,0,0,,4,,,64,127
51829,note_on,4,0,0,,7,,,67,127
51904,note_off,75,0,0,,7,,,67,127
51904,note_off,0,0,0,,11,,,82,127
51908,note_on,4,0,0,,10,,,81,127
51908,note_on,0,0,0,,5,,,53,127
51983,note_off,75,0,0,,5,,,53,127
51987,note_on,4,0,0,,5,,,65,127
52062,note_off,75,0,0,,5,,,65,127
52066,note_on,4,0,0,,2,,,62,127
52141,note_off,75,0,0,,2,,,62,127
52145,note_on,4,0,0,,5,,,65,127
52220,note_off,75,0,0,,5,,,65,127
52220,note_off,0,0,0,,10,,,81,127
52224,note_on,4,0,0,,7,,,79,127
52224,note_on,0,0,0,,4,,,52,127
52299,note_off,75,0,0,,4,,,52,127
52303,note_on,4,0,0,,4,,,64,127
52378,note_off,75,0,0,,4,,,64,127
52382,note_on,4,0,0,,0,,,60,127
52457,note_off,75,0,0,,0,,,60,127
52461,note_on,4,0,0,,4,,,64,127
52536,note_off,75,0,0,,4,,,64,127
52536,note_off,0,0,0,,7,,,79,127
52540,note_on,4,0,0,,5,,,77,127
52540,note_on,0,0,0,,2,,,50,127
52615,note_off,75,0,0,,2,,,50,127
52619,note_on,4,0,0,,2,,,62,127
52694,note_off,75,0,0,,2,,,62,127
52698,note_on,4,0,0,,11,,,58,127
52773,note_off,75,0,0,,11,,,58,127
52777,note_on,4,0,0,,2,,,62,127
52852,note_off,75,0,0,,2,,,62,127
52852,note_off,0,0,0,,5,,,77,127
52856,note_on,4,0,0,,4,,,76,127
52856,note_on,0,0,0,,0,,,48,127
52931,note_off,75,0,0,,0,,,48,127
52935,note_on,4,0,0,,0,,,60,127
53010,note_off,75,0,0,,0,,,60,127
53014,note_on,4,0,0,,10,,,57,127
53089,note_off,75,0,0,,10,,,57,127
53093,note_on,4,0,0,,0,,,60,127
53168,note_off,75,0,0,,0,,,60,127
53168,note_off,0,0,0,,4,,,76,127
53172,note_on,4,0,0,,2,,,74,127
53172,note_on,0,0,0,,11,,,46,127
53247,note_off,75,0,0,,11,,,46,127
53251,note_on,4,0,0,,7,,,55,127
53326,note_off,75,0,0,,7,,,55,127
53330,note_on,4,0,0,,11,,,58,127
53405,note_off,75,0,0,,11,,,58,127
53409,note_on,4,0,0,,7,,,55,127
53484,note_off,75,0,0,,7,,,55,127
53484,note_off,0,0,0,,2,,,74,127
53488,note_on,4,0,0,,0,,,72,127
53488,note_on,0,0,0,,10,,,45,127
53563,note_off,75,0,0,,10,,,45,127
53567,note_on,4,0,0,,10,,,57,127
53642,note_off,75,0,0,,10,,,57,127
53646,note_on,4,0,0,,5,,,53,127
53721,note_off,75,0,0,,5,,,53,127
53725,note_on,4,0,0,,10,,,57,127
53800,note_off,75,0,0,,10,,,57,127
53800,note_off,0,0,0,,0,,,72,127
53804,note_on,4,0,0,,11,,,70,127
53804,note_on,0,0,0,,7,,,43,127
53879,note_off,75,0,0,,7,,,43,127
53883,note_on,4,0,0,,7,,,55,127
53958,note_off,75,0,0,,7,,,55,127
53962,note_on,4,0,0,,4,,,52,127
54037,note_off,75,0,0,,4,,,52,127
54041,note_on,4,0,0,,7,,,55,127
54116,note_off,75,0,0,,7,,,55,127
54116,note_off,0,0,0,,11,,,70,127
54120,note_on,4,0,0,,10,,,69,127
54120,note_on,0,0,0,,5,,,41,127
54195,note_off,75,0,0,,5,,,41,127
54199,note_on,4,0,0,,5,,,53,127
54274,note_off,75,0,0,,5,,,53,127
54278,note_on,4,0,0,,2,,,50,127
54353,note_off,75,0,0,,2,,,50,127
54357,note_on,4,0,0,,5,,,53,127
54432,note_off,75,0,0,,5,,,53,127
54432,note_off,0,0,0,,10,,,69,127
54436,note_on,4,0,0,,7,,,67,127
54436,note_on,0,0,0,,4,,,40,127
54511,note_off,75,0,0,,4,,,40,127
54515,note_on,4,0,0,,4,,,52,127
54590,note_off,75,0,0,,4,,,52,127
54594,note_on,4,0,0,,1,,,49,127
54669,note_off,75,0,0,,1,,,49,127
54673,note_on,4,0,0,,4,,,52,127
54748,note_off,75,0,0,,4,,,52,127
54748,note_off,0,0,0,,7,,,67,127
54752,note_on,4,0,0,,5,,,65,127
54752,note_on,0,0,0,,2,,,38,127
54752,note_on,0,0,0,,2,,,50,127
54827,note_off,75,0,0,,5,,,65,127
54831,note_on,4,0,0,,2,,,62,127
54906,note_off,75,0,0,,2,,,62,127
54910,note_on,4,0,0,,5,,,65,127
54985,note_off,75,0,0,,5,,,65,127
54989,note_on,4,0,0,,10,,,69,127
55064,note_off,75,0,0,,10,,,69,127
55064,note_off,0,0,0,,2,,,50,127
55064,note_off,0,0,0,,2,,,38,127
55068,note_on,4,0,0,,2,,,74,127
55068,note_on,0,0,0,,5,,,41,127
55068,note_on,0,0,0,,5,,,53,127
55143,note_off,75,0,0,,2,,,74,127
55147,note_on,4,0,0,,0,,,72,127
55222,note_off,75,0,0,,0,,,72,127
55226,note_on,4,0,0,,11,,,70,127
55301,note_off,75,0,0,,11,,,70,127
55305,note_on,4,0,0,,10,,,69,127
55380,note_off,75,0,0,,10,,,69,127
55380,note_off,0,0,0,,5,,,53,127
55380,note_off,0,0,0,,5,,,41,127
55384,note_on,4,0,0,,11,,,70,127
55384,note_on,0,0,0,,7,,,55,127
55384,note_on,0,0,0,,7,,,43,127
55459,note_off,75,0,0,,11,,,70,127
55463,note_on,4,0,0,,11,,,82,127
55538,note_off,75,0,0,,11,,,82,127
55542,note_on,4,0,0,,10,,,81,127
55617,note_off,75,0,0,,10,,,81,127
55621,note_on,4,0,0,,7,,,79,127
55696,note_off,75,0,0,,7,,,79,127
55696,note_off,0,0,0,,7,,,43,127
55696,note_off,0,0,0,,7,,,55,127
55700,note_on,4,0,0,,5,,,77,127
55700,note_on,0,0,0,,10,,,57,127
55700,note_on,0,0,0,,10,,,45,127
55775,note_off,75,0,0,,5,,,77,127
55779,note_on,4,0,0,,4,,,76,127
55854,note_off,75,0,0,,4,,,76,127
55858,note_on,4,0,0,,2,,,74,127
55933,note_off,75,0,0,,2,,,74,127
55937,note_on,4,0,0,,1,,,73,127
56012,note_off,75,0,0,,1,,,73,127
56012,note_off,0,0,0,,10,,,45,127
56012,note_off,0,0,0,,10,,,57,127
56016,note_on,4,0,0,,2,,,74,127
56016,note_on,0,0,0,,2,,,50,127
56016,note_on,0,0,0,,2,,,38,127
56091,note_off,75,0,0,,2,,,74,127
56095,note_on,4,0,0,,10,,,81,127
56170,note_off,75,0,0,,10,,,81,127
56174,note_on,4,0,0,,7,,,79,127
56249,note_off,75,0,0,,7,,,79,127
56253,note_on,4,0,0,,5,,,77,127
56328,note_off,75,0,0,,5,,,77,127
56332,note_on,4,0,0,,4,,,76,127
56407,note_off,75,0,0,,4,,,76,127
56411,note_on,4,0,0,,2,,,74,127
56486,note_off,75,0,0,,2,,,74,127
56490,note_on,4,0,0,,1,,,73,127
56565,note_off,75,0,0,,1,,,73,127
56567,note_off,2,0,0,,2,,,38,127
56567,note_off,0,0,0,,2,,,50,127
56569,note_on,2,0,0,,12,,,71,127
56644,note_off,75,0,0,,12,,,71,127
56648,note_on,4,0,0,,10,,,69,127
56648,note_on,0,0,0,,10,,,33,127
56727,note_on,79,0,0,,4,,,76,127
56802,note_off,75,0,0,,4,,,76,127
56806,note_off,4,0,0,,10,,,69,127
56806,note_on,0,0,0,,1,,,73,127
56881,note_off,75,0,0,,1,,,73,127
56885,note_on,4,0,0,,4,,,76,127
56960,note_off,75,0,0,,4,,,76,127
56960,note_off,0,0,0,,10,,,33,127
56964,note_on,4,0,0,,10,,,69,127
56964,note_on,0,0,0,,10,,,33,127
57043,note_on,79,0,0,,5,,,77,127
57118,note_off,75,0,0,,5,,,77,127
57122,note_off,4,0,0,,10,,,69,127
57122,note_on,0,0,0,,2,,,74,127
57197,note_off,75,0,0,,2,,,74,127
57201,note_on,4,0,0,,5,,,77,127
57276,note_off,75,0,0,,5,,,77,127
57276,note_off,0,0,0,,10,,,33,127
57280,note_on,4,0,0,,10,,,69,127
57280,note_on,0,0,0,,10,,,33,127
57359,note_on,79,0,0,,7,,,79,127
57434,note_off,75,0,0,,7,,,79,127
57438,note_off,4,0,0,,10,,,69,127
57438,note_on,0,0,0,,4,,,76,127
57513,note_off,75,0,0,,4,,,76,127
57517,note_on,4,0,0,,7,,,79,127
57592,note_off,75,0,0,,7,,,79,127
57592,note_off,0,0,0,,10,,,33,127
57596,note_on,4,0,0,,10,,,69,127
57596,note_on,0,0,0,,10,,,33,127
57675,note_on,79,0,0,,10,,,81,127
57750,note_off,75,0,0,,10,,,81,127
57754,note_off,4,0,0,,10,,,69,127
57754,note_on,0,0,0,,5,,,77,127
57829,note_off,75,0,0,,5,,,77,127
57833,note_on,4,0,0,,10,,,81,127
57908,note_off,75,0,0,,10,,,81,127
57908,note_off,0,0,0,,10,,,33,127
57912,note_on,4,0,0,,4,,,76,127
57912,note_on,0,0,0,,1,,,73,127
57912,note_on,0,0,0,,10,,,81,127
57912,note_on,0,0,0,,10,,,57,127
57987,note_off,75,0,0,,10,,,57,127
57991,note_on,4,0,0,,4,,,64,127
58066,note_off,75,0,0,,4,,,64,127
58070,note_on,4,0,0,,1,,,61,127
58145,note_off,75,0,0,,1,,,61,127
58149,note_on,4,0,0,,4,,,64,127
58224,note_off,75,0,0,,4,,,64,127
58224,note_off,0,0,0,,1,,,73,127
58224,note_off,0,0,0,,4,,,76,127
58228,note_on,4,0,0,,2,,,74,127
58228,note_on,0,0,0,,5,,,77,127
58228,note_on,0,0,0,,10,,,57,127
58303,note_off,75,0,0,,10,,,57,127
58307,note_on,4,0,0,,5,,,65,127
58382,note_off,75,0,0,,5,,,65,127
58386,note_on,4,0,0,,2,,,62,127
58461,note_off,75,0,0,,2,,,62,127
58465,note_on,4,0,0,,5,,,65,127
58540,note_off,75,0,0,,5,,,65,127
58540,note_off,0,0,0,,5,,,77,127
58540,note_off,0,0,0,,2,,,74,127
58543,note_off,3,0,0,,10,,,81,127
58544,note_on,1,0,0,,10,,,81,127
58544,note_on,0,0,0,,1,,,73,127
58544,note_on,0,0,0,,4,,,76,127
58544,note_on,0,0,0,,10,,,57,127
58619,note_off,75,0,0,,10,,,57,127
58623,note_on,4,0,0,,7,,,67,127
58698,note_off,75,0,0,,7,,,67,127
58702,note_on,4,0,0,,4,,,64,127
58777,note_off,75,0,0,,4,,,64,127
58781,note_on,4,0,0,,7,,,67,127
58856,note_off,75,0,0,,7,,,67,127
58856,note_off,0,0,0,,4,,,76,127
58856,note_off,0,0,0,,1,,,73,127
58860,note_on,4,0,0,,5,,,77,127
58860,note_on,0,0,0,,2,,,74,127
58860,note_on,0,0,0,,10,,,57,127
58935,note_off,75,0,0,,10,,,57,127
58939,note_on,4,0,0,,10,,,69,127
59014,note_off,75,0,0,,10,,,69,127
59018,note_on,4,0,0,,5,,,65,127
59093,note_off,75,0,0,,5,,,65,127
59097,note_on,4,0,0,,10,,,69,127
59172,note_off,75,0,0,,10,,,69,127
59172,note_off,0,0,0,,2,,,74,127
59172,note_off,0,0,0,,5,,,77,127
59175,note_off,3,0,0,,10,,,81,127
59176,note_on,1,0,0,,10,,,69,127
59176,note_on,0,0,0,,10,,,33,127
59255,note_on,79,0,0,,4,,,76,127
59330,note_off,75,0,0,,4,,,76,127
59334,note_off,4,0,0,,10,,,69,127
59334,note_on,0,0,0,,1,,,73,127
59409,note_off,75,0,0,,1,,,73,127
59413,note_on,4,0,0,,4,,,76,127
59488,note_off,75,0,0,,4,,,76,127
59488,note_off,0,0,0,,10,,,33,127
59492,note_on,4,0,0,,10,,,69,127
59492,note_on,0,0,0,,10,,,33,127
59571,note_on,79,0,0,,5,,,77,127
59646,note_off,75,0,0,,5,,,77,127
59650,note_off,4,0,0,,10,,,69,127
59650,note_on,0,0,0,,2,,,74,127
59725,note_off,75,0,0,,2,,,74,127
59729,note_on,4,0,0,,5,,,77,127
59804,note_off,75,0,0,,5,,,77,127
59804,note_off,0,0,0,,10,,,33,127
59808,note_on,4,0,0,,10,,,69,127
59808,note_on,0,0,0,,10,,,33,127
59887,note_on,79,0,0,,7,,,79,127
59962,note_off,75,0,0,,7,,,79,127
59966,note_off,4,0,0,,10,,,69,127
59966,note_on,0,0,0,,4,,,76,127
60041,note_off,75,0,0,,4,,,76,127
60045,note_on,4,0,0,,7,,,79,127
60120,note_off,75,0,0,,7,,,79,127
60120,note_off,0,0,0,,10,,,33,127
60124,note_on,4,0,0,,10,,,69,127
60124,note_on,0,0,0,,10,,,33,127
60203,note_on,79,0,0,,10,,,81,127
60278,note_off,75,0,0,,10,,,81,127
60282,note_off,4,0,0,,10,,,69,127
60282,note_on,0,0,0,,5,,,77,127
60357,note_off,75,0,0,,5,,,77,127
60361,note_on,4,0,0,,10,,,81,127
60436,note_off,75,0,0,,10,,,81,127
60436,note_off,0,0,0,,10,,,33,127
60440,note_on,4,0,0,,10,,,81,127
60440,note_on,0,0,0,,1,,,73,127
60440,note_on,0,0,0,,4,,,76,127
60440,note_on,0,0,0,,10,,,57,127
60515,note_off,75,0,0,,10,,,57,127
60519,note_on,4,0,0,,4,,,64,127
60594,note_off,75,0,0,,4,,,64,127
60598,note_on,4,0,0,,1,,,61,127
60673,note_off,75,0,0,,1,,,61,127
60677,note_on,4,0,0,,4,,,64,127
60752,note_off,75,0,0,,4,,,64,127
60752,note_off,0,0,0,,4,,,76,127
60752,note_off,0,0,0,,1,,,73,127
60756,note_on,4,0,0,,2,,,74,127
60756,note_on,0,0,0,,5,,,77,127
60756,note_on,0,0,0,,10,,,57,127
60831,note_off,75,0,0,,10,,,57,127
60835,note_on,4,0,0,,5,,,65,127
60910,note_off,75,0,0,,5,,,65,127
60914,note_on,4,0,0,,2,,,62,127
60989,note_off,75,0,0,,2,,,62,127
60993,note_on,4,0,0,,5,,,65,127
61068,note_off,75,0,0,,5,,,65,127
61068,note_off,0,0,0,,5,,,77,127
61068,note_off,0,0,0,,2,,,74,127
61071,note_off,3,0,0,,10,,,81,127
61072,note_on,1,0,0,,1,,,73,127
61072,note_on,0,0,0,,4,,,76,127
61072,note_on,0,0,0,,10,,,81,127
61072,note_on,0,0,0,,10,,,57,127
61147,note_off,75,0,0,,10,,,57,127
61151,note_on,4,0,0,,7,,,67,127
61226,note_off,75,0,0,,7,,,67,127
61230,note_on,4,0,0,,4,,,64,127
61305,note_off,75,0,0,,4,,,64,127
61309,note_on,4,0,0,,7,,,67,127
61384,note_off,75,0,0,,7,,,67,127
61384,note_off,0,0,0,,4,,,76,127
61384,note_off,0,0,0,,1,,,73,127
61388,note_on,4,0,0,,2,,,74,127
61388,note_on,0,0,0,,5,,,77,127
61388,note_on,0,0,0,,10,,,57,127
61463,note_off,75,0,0,,10,,,57,127
61467,note_on,4,0,0,,10,,,69,127
61542,note_off,75,0,0,,10,,,69,127
61546,note_on,4,0,0,,5,,,65,127
61621,note_off,75,0,0,,5,,,65,127
61625,note_on,4,0,0,,10,,,69,127
61700,note_off,75,0,0,,10,,,69,127
61700,note_off,0,0,0,,5,,,77,127
61700,note_off,0,0,0,,2,,,74,127
61703,note_off,3,0,0,,10,,,81,127
61704,note_on,1,0,0,,11,,,82,127
61704,note_on,0,0,0,,7,,,55,127
61779,note_off,75,0,0,,7,,,55,127
61783,note_on,4,0,0,,7,,,67,127
61858,note_off,75,0,0,,7,,,67,127
61862,note_on,4,0,0,,4,,,64,127
61937,note_off,75,0,0,,4,,,64,127
61941,note_on,4,0,0,,7,,,67,127
62016,note_off,75,0,0,,7,,,67,127
62016,note_off,0,0,0,,11,,,82,127
62020,note_on,4,0,0,,10,,,81,127
62020,note_on,0,0,0,,5,,,53,127
62095,note_off,75,0,0,,5,,,53,127
62099,note_on,4,0,0,,5,,,65,127
62174,note_off,75,0,0,,5,,,65,127
62178,note_on,4,0,0,,2,,,62,127
62253,note_off,75,0,0,,2,,,62,127
62257,note_on,4,0,0,,5,,,65,127
62332,note_off,75,0,0,,5,,,65,127
62332,note_off,0,0,0,,10,,,81,127
62336,note_on,4,0,0,,7,,,79,127
62336,note_on,0,0,0,,4,,,52,127
62411,note_off,75,0,0,,4,,,52,127
62415,note_on,4,0,0,,4,,,64,127
62490,note_off,75,0,0,,4,,,64,127
62494,note_on,4,0,0,,0,,,60,127
62569,note_off,75,0,0,,0,,,60,127
62573,note_on,4,0,0,,4,,,64,127
62648,note_off,75,0,0,,4,,,64,127
62648,note_off,0,0,0,,7,,,79,127
62652,note_on,4,0,0,,5,,,77,127
62652,note_on,0,0,0,,2,,,50,127
62727,note_off,75,0,0,,2,,,50,127
62731,note_on,4,0,0,,2,,,62,127
62806,note_off,75,0,0,,2,,,62,127
62810,note_on,4,0,0,,11,,,58,127
62885,note_off,75,0,0,,11,,,58,127
62889,note_on,4,0,0,,2,,,62,127
62964,note_off,75,0,0,,2,,,62,127
62964,note_off,0,0,0,,5,,,77,127
62968,note_on,4,0,0,,4,,,76,127
62968,note_on,0,0,0,,0,,,48,127
63043,note_off,75,0,0,,0,,,48,127
63047,note_on,4,0,0,,0,,,60,127
63122,note_off,75,0,0,,0,,,60,127
63126,note_on,4,0,0,,10,,,57,127
63201,note_off,75,0,0,,10,,,57,127
63205,note_on,4,0,0,,0,,,60,127
63280,note_off,75,0,0,,0,,,60,127
63280,note_off,0,0,0,,4,,,76,127
63284,note_on,4,0,0,,2,,,74,127
63284,note_on,0,0,0,,11,,,46,127
63359,note_off,75,0,0,,11,,,46,127
63363,note_on,4,0,0,,7,,,55,127
63438,note_off,75,0,0,,7,,,55,127
63442,note_on,4,0,0,,11,,,58,127
63517,note_off,75,0,0,,11,,,58,127
63521,note_on,4,0,0,,7,,,55,127
63596,note_off,75,0,0,,7,,,55,127
63596,note_off,0,0,0,,2,,,74,127
63600,note_on,4,0,0,,0,,,72,127
63600,note_on,0,0,0,,10,,,45,127
63675,note_off,75,0,0,,10,,,45,127
63679,note_on,4,0,0,,10,,,57,127
63754,note_off,75,0,0,,10,,,57,127
63758,note_on,4,0,0,,5,,,53,127
63833,note_off,75,0,0,,5,,,53,127
63837,note_on,4,0,0,,10,,,57,127
63912,note_off,75,0,0,,10,,,57,127
63912,note_off,0,0,0,,0,,,72,127
63916,note_on,4,0,0,,11,,,70,127
63916,note_on,0,0,0,,7,,,43,127
63991,note_off,75,0,0,,7,,,43,127
63995,note_on,4,0,0,,7,,,55,127
64070,note_off,75,0,0,,7,,,55,127
64074,note_on,4,0,0,,4,,,52,127
64149,note_off,75,0,0,,4,,,52,127
64153,note_on,4,0,0,,7,,,55,127
64228,note_off,75,0,0,,7,,,55,127
64228,note_off,0,0,0,,11,,,70,127
64232,note_on,4,0,0,,10,,,69,127
64232,note_on,0,0,0,,5,,,41,127
64307,note_off,75,0,0,,5,,,41,127
64311,note_on,4,0,0,,5,,,53,127
64386,note_off,75,0,0,,5,,,53,127
64390,note_on,4,0,0,,2,,,50,127
64465,note_off,75,0,0,,2,,,50,127
64469,note_on,4,0,0,,5,,,53,127
64544,note_off,75,0,0,,5,,,53,127
64544,note_off,0,0,0,,10,,,69,127
64548,note_on,4,0,0,,7,,,67,127
64548,note_on,0,0,0,,4,,,40,127
64623,note_off,75,0,0,,4,,,40,127
64627,note_on,4,0,0,,4,,,52,127
64702,note_off,75,0,0,,4,,,52,127
64706,note_on,4,0,0,,1,,,49,127
64781,note_off,75,0,0,,1,,,49,127
64785,note_on,4,0,0,,4,,,52,127
64860,note_off,75,0,0,,4,,,52,127
64860,note_off,0,0,0,,7,,,67,127
64864,note_on,4,0,0,,5,,,65,127
64864,note_on,0,0,0,,2,,,38,127
64864,note_on,0,0,0,,2,,,50,127
64939,note_off,75,0,0,,5,,,65,127
64943,note_on,4,0,0,,2,,,62,127
65018,note_off,75,0,0,,2,,,62,127
65022,note_on,4,0,0,,5,,,65,127
65097,note_off,75,0,0,,5,,,65,127
65101,note_on,4,0,0,,10,,,69,127
65176,note_off,75,0,0,,10,,,69,127
65176,note_off,0,0,0,,2,,,50,127
65176,note_off,0,0,0,,2,,,38,127
65180,note_on,4,0,0,,2,,,74,127
65180,note_on,0,0,0,,5,,,53,127
65180,note_on,0,0,0,,5,,,41,127
65255,note_off,75,0,0,,2,,,74,127
65259,note_on,4,0,0,,0,,,72,127
65334,note_off,75,0,0,,0,,,72,127
65338,note_on,4,0,0,,11,,,70,127
65413,note_off,75,0,0,,11,,,70,127
65417,note_on,4,0,0,,10,,,69,127
65492,note_off,75,0,0,,10,,,69,127
65492,note_off,0,0,0,,5,,,41,127
65492,note_off,0,0,0,,5,,,53,127
65496,note_on,4,0,0,,11,,,70,127
65496,note_on,0,0,0,,7,,,55,127
65496,note_on,0,0,0,,7,,,43,127
65571,note_off,75,0,0,,11,,,70,127
65575,note_on,4,0,0,,11,,,82,127
65650,note_off,75,0,0,,11,,,82,127
65654,note_on,4,0,0,,10,,,81,127
65729,note_off,75,0,0,,10,,,81,127
65733,note_on,4,0,0,,7,,,79,127
65808,note_off,75,0,0,,7,,,79,127
65808,note_off,0,0,0,,7,,,43,127
65808,note_off,0,0,0,,7,,,55,127
65812,note_on,4,0,0,,5,,,77,127
65812,note_on,0,0,0,,10,,,57,127
65812,note_on,0,0,0,,10,,,45,127
65887,note_off,75,0,0,,5,,,77,127
65891,note_on,4,0,0,,4,,,76,127
65966,note_off,75,0,0,,4,,,76,127
65970,note_on,4,0,0,,2,,,74,127
66045,note_off,75,0,0,,2,,,74,127
66049,note_on,4,0,0,,1,,,73,127
66124,note_off,75,0,0,,1,,,73,127
66124,note_off,0,0,0,,10,,,45,127
66124,note_off,0,0,0,,10,,,57,127
66128,note_on,4,0,0,,2,,,74,127
66128,note_on,0,0,0,,2,,,50,127
66203,note_off,75,0,0,,2,,,50,127
66207,note_on,4,0,0,,2,,,62,127
66282,note_off,75,0,0,,2,,,62,127
66286,note_on,4,0,0,,5,,,65,127
66361,note_off,75,0,0,,5,,,65,127
66365,note_on,4,0,0,,2,,,62,127
66440,note_off,75,0,0,,2,,,62,127
66440,note_off,0,0,0,,2,,,74,127
66444,note_on,4,0,0,,2,,,86,127
66444,note_on,0,0,0,,11,,,46,127
66519,note_off,75,0,0,,11,,,46,127
66523,note_on,4,0,0,,11,,,58,127
66598,note_off,75,0,0,,11,,,58,127
66602,note_on,4,0,0,,2,,,62,127
66677,note_off,75,0,0,,2,,,62,127
66681,note_on,4,0,0,,11,,,58,127
66756,note_off,75,0,0,,11,,,58,127
66760,note_on,4,0,0,,7,,,43,127
66835,note_off,75,0,0,,2,,,86,127
66839,note_on,4,0,0,,11,,,82,127
66914,note_off,75,0,0,,11,,,82,127
66918,note_on,4,0,0,,10,,,81,127
66993,note_off,75,0,0,,10,,,81,127
66997,note_on,4,0,0,,7,,,79,127
67072,note_off,75,0,0,,7,,,79,127
67072,note_off,0,0,0,,7,,,43,127
67076,note_on,4,0,0,,5,,,77,127
67076,note_on,0,0,0,,10,,,45,127
67151,note_off,75,0,0,,5,,,77,127
67155,note_on,4,0,0,,4,,,76,127
67230,note_off,75,0,0,,4,,,76,127
67234,note_on,4,0,0,,2,,,74,127
67309,note_off,75,0,0,,2,,,74,127
67313,note_on,4,0,0,,1,,,73,127
67388,note_off,75,0,0,,1,,,73,127
67388,note_off,0,0,0,,10,,,45,127
67392,note_on,4,0,0,,2,,,74,127
67392,note_on,0,0,0,,2,,,38,127
67467,note_off,75,0,0,,2,,,38,127
67472,note_on,5,0,0,,2,,,50,127
67547,note_off,75,0,0,,2,,,50,127
67553,note_on,6,0,0,,5,,,53,127
67628,note_off,75,0,0,,5,,,53,127
67634,note_on,6,0,0,,2,,,50,127
67709,note_off,75,0,0,,2,,,50,127
67715,note_on,6,0,0,,11,,,34,127
67715,note_on,0,0,0,,2,,,62,127
67790,note_off,75,0,0,,11,,,34,127
67796,note_on,6,0,0,,11,,,46,127
67871,note_off,75,0,0,,11,,,46,127
67877,note_on,6,0,0,,2,,,50,127
67952,note_off,75,0,0,,2,,,50,127
67958,note_on,6,0,0,,11,,,46,127
68026,note_off,68,0,0,,2,,,74,127
68033,note_off,7,0,0,,11,,,46,127
68039,note_on,6,0,0,,7,,,31,127
68111,note_off,72,0,0,,2,,,62,127
68126,note_on,15,0,0,,11,,,70,127
68206,note_off,80,0,0,,11,,,70,127
68213,note_on,7,0,0,,10,,,69,127
68293,note_off,80,0,0,,10,,,69,127
68300,note_on,7,0,0,,7,,,67,127
68354,note_off,54,0,0,,7,,,31,127
68380,note_off,26,0,0,,7,,,67,127
68387,note_on,7,0,0,,5,,,65,127
68387,note_on,0,0,0,,10,,,33,127
68467,note_off,80,0,0,,5,,,65,127
68474,note_on,7,0,0,,4,,,64,127
68554,note_off,80,0,0,,4,,,64,127
68561,note_on,7,0,0,,2,,,62,127
68641,note_off,80,0,0,,2,,,62,127
68648,note_on,7,0,0,,1,,,61,127
68723,note_off,75,0,0,,10,,,33,127
68728,note_off,5,0,0,,1,,,61,127
68735,note_on,7,0,0,,1,,,61,127
68735,note_on,0,0,0,,2,,,38,127
69421,note_off,686,0,0,,1,,,61,127
69435,note_on,14,0,0,,2,,,62,127
71122,note_off,1687,0,0,,2,,,62,127
71122,note_off,0,0,0,,2,,,38,127
75264,end_of_track,4142,1,0,,,,,,
