tick,type,time,meta,track,program,channel,pitch,tempo,note,velocity
0,copyright,0,1,0,,,,,,
0,program_change,0,0,0,6,0,,,,
0,pitchwheel,0,0,0,,0,0,,,
0,program_change,0,0,0,6,1,,,,
0,pitchwheel,0,0,0,,1,-590,,,
0,program_change,0,0,0,6,2,,,,
0,pitchwheel,0,0,0,,2,-272,,,
0,program_change,0,0,0,6,3,,,,
0,pitchwheel,0,0,0,,3,-353,,,
0,program_change,0,0,0,6,4,,,,
0,pitchwheel,0,0,0,,4,-560,,,
0,program_change,0,0,0,6,5,,,,
0,pitchwheel,0,0,0,,5,-80,,,
0,program_change,0,0,0,6,6,,,,
0,pitchwheel,0,0,0,,6,-625,,,
0,program_change,0,0,0,6,7,,,,
0,pitchwheel,0,0,0,,7,-130,,,
0,program_change,0,0,0,6,8,,,,
0,pitchwheel,0,0,0,,8,-512,,,
0,program_change,0,0,0,6,10,,,,
0,pitchwheel,0,0,0,,10,-464,,,
0,program_change,0,0,0,6,11,,,,
0,pitchwheel,0,0,0,,11,-208,,,
0,program_change,0,0,0,6,12,,,,
0,pitchwheel,0,0,0,,12,-553,,,
0,set_tempo,0,1,0,,,,500000,,
136,note_on,136,0,0,,5,,,41,127
407,note_on,271,0,0,,10,,,81,127
541,note_off,134,0,0,,10,,,81,127
542,note_on,1,0,0,,5,,,77,127
676,note_off,134,0,0,,5,,,77,127
677,note_on,1,0,0,,10,,,81,127
947,note_off,270,0,0,,10,,,81,127
948,note_on,1,0,0,,0,,,84,127
1218,note_off,270,0,0,,0,,,84,127
1219,note_on,1,0,0,,0,,,72,127
1489,note_off,270,0,0,,0,,,72,127
1490,note_on,1,0,0,,5,,,77,127
1624,note_off,134,0,0,,5,,,77,127
1625,note_on,1,0,0,,0,,,72,127
1759,note_off,134,0,0,,0,,,72,127
1760,note_on,1,0,0,,5,,,77,127
2030,note_off,270,0,0,,5,,,77,127
2031,note_on,1,0,0,,10,,,81,127
2301,note_off,270,0,0,,10,,,81,127
2302,note_on,1,0,0,,10,,,69,127
2572,note_off,270,0,0,,10,,,69,127
2573,note_on,1,0,0,,0,,,72,127
2707,note_off,134,0,0,,0,,,72,127
2708,note_on,1,0,0,,10,,,69,127
2842,note_off,134,0,0,,10,,,69,127
2843,note_on,1,0,0,,0,,,72,127
3113,note_off,270,0,0,,0,,,72,127
3114,note_on,1,0,0,,5,,,77,127
3384,note_off,270,0,0,,5,,,77,127
3385,note_off,1,0,0,,5,,,41,127
3385,note_on,0,0,0,,5,,,65,127
3656,note_on,271,0,0,,10,,,69,127
3790,note_off,134,0,0,,10,,,69,127
3790,note_off,0,0,0,,5,,,65,127
3791,note_on,1,0,0,,5,,,65,127
3925,note_off,134,0,0,,5,,,65,127
3926,note_on,1,0,0,,10,,,69,127
3926,note_on,0,0,0,,0,,,84,127
4196,note_off,270,0,0,,10,,,69,127
4197,note_on,1,0,0,,0,,,72,127
4467,note_off,270,0,0,,0,,,72,127
4468,note_on,1,0,0,,0,,,60,127
4739,note_on,271,0,0,,5,,,65,127
4873,note_off,134,0,0,,5,,,65,127
4873,note_off,0,0,0,,0,,,60,127
4874,note_on,1,0,0,,0,,,60,127
5008,note_off,134,0,0,,0,,,60,127
5008,note_off,0,0,0,,0,,,84,127
5009,note_on,1,0,0,,5,,,65,127
5009,note_on,0,0,0,,10,,,81,127
5279,note_off,270,0,0,,5,,,65,127
5280,note_on,1,0,0,,10,,,69,127
5550,note_off,270,0,0,,10,,,69,127
5551,note_on,1,0,0,,10,,,57,127
5822,note_on,271,0,0,,0,,,60,127
5956,note_off,134,0,0,,0,,,60,127
5956,note_off,0,0,0,,10,,,57,127
5957,note_on,1,0,0,,10,,,57,127
6091,note_off,134,0,0,,10,,,57,127
6091,note_off,0,0,0,,10,,,81,127
6092,note_on,1,0,0,,0,,,60,127
6092,note_on,0,0,0,,5,,,77,127
6362,note_off,270,0,0,,0,,,60,127
6363,note_on,1,0,0,,5,,,65,127
6633,note_off,270,0,0,,5,,,65,127
6634,note_on,1,0,0,,5,,,53,127
6904,note_off,270,0,0,,5,,,77,127
6905,note_on,1,0,0,,10,,,81,127
7039,note_off,134,0,0,,10,,,81,127
7040,note_on,1,0,0,,5,,,77,127
7174,note_off,134,0,0,,5,,,77,127
7175,note_on,1,0,0,,0,,,84,127
7381,note_off,206,0,0,,5,,,53,127
7446,note_on,65,0,0,,10,,,57,127
7446,note_on,0,0,0,,0,,,72,127
7716,note_off,270,0,0,,0,,,72,127
7716,note_off,0,0,0,,10,,,57,127
7717,note_on,1,0,0,,11,,,58,127
7717,note_on,0,0,0,,2,,,74,127
7987,note_off,270,0,0,,2,,,74,127
7987,note_off,0,0,0,,11,,,58,127
7988,note_on,1,0,0,,0,,,60,127
7988,note_on,0,0,0,,4,,,76,127
8258,note_off,270,0,0,,4,,,76,127
8258,note_off,0,0,0,,0,,,60,127
8258,note_off,0,0,0,,0,,,84,127
8259,note_on,1,0,0,,2,,,62,127
8259,note_on,0,0,0,,11,,,82,127
8259,note_on,0,0,0,,5,,,77,127
8529,note_off,270,0,0,,5,,,77,127
8529,note_off,0,0,0,,2,,,62,127
8530,note_on,1,0,0,,4,,,64,127
8530,note_on,0,0,0,,7,,,79,127
8800,note_off,270,0,0,,7,,,79,127
8800,note_off,0,0,0,,4,,,64,127
8801,note_on,1,0,0,,5,,,65,127
8801,note_on,0,0,0,,0,,,72,127
9071,note_off,270,0,0,,11,,,82,127
9072,note_on,1,0,0,,10,,,81,127
9140,note_off,68,0,0,,10,,,81,127
9140,note_on,0,0,0,,11,,,82,127
9208,note_off,68,0,0,,11,,,82,127
9208,note_on,0,0,0,,10,,,81,127
9276,note_off,68,0,0,,10,,,81,127
9276,note_on,0,0,0,,7,,,79,127
9342,note_off,66,0,0,,0,,,72,127
9343,note_off,1,0,0,,7,,,79,127
9343,note_on,0,0,0,,10,,,81,127
9563,note_off,220,0,0,,5,,,65,127
9612,note_off,49,0,0,,10,,,81,127
9613,note_on,1,0,0,,10,,,57,127
9613,note_on,0,0,0,,0,,,84,127
9613,note_on,0,0,0,,0,,,72,127
9883,note_off,270,0,0,,0,,,72,127
9883,note_off,0,0,0,,10,,,57,127
9884,note_on,1,0,0,,11,,,58,127
9884,note_on,0,0,0,,2,,,74,127
10154,note_off,270,0,0,,2,,,74,127
10154,note_off,0,0,0,,11,,,58,127
10155,note_on,1,0,0,,0,,,60,127
10155,note_on,0,0,0,,4,,,76,127
10425,note_off,270,0,0,,4,,,76,127
10425,note_off,0,0,0,,0,,,60,127
10425,note_off,0,0,0,,0,,,84,127
10426,note_on,1,0,0,,2,,,62,127
10426,note_on,0,0,0,,11,,,82,127
10426,note_on,0,0,0,,5,,,77,127
10696,note_off,270,0,0,,5,,,77,127
10696,note_off,0,0,0,,2,,,62,127
10697,note_on,1,0,0,,4,,,64,127
10697,note_on,0,0,0,,7,,,79,127
10967,note_off,270,0,0,,7,,,79,127
10967,note_off,0,0,0,,4,,,64,127
10968,note_on,1,0,0,,5,,,65,127
10968,note_on,0,0,0,,0,,,72,127
11238,note_off,270,0,0,,11,,,82,127
11239,note_on,1,0,0,,10,,,81,127
11307,note_off,68,0,0,,10,,,81,127
11307,note_on,0,0,0,,11,,,82,127
11375,note_off,68,0,0,,11,,,82,127
11375,note_on,0,0,0,,10,,,81,127
11443,note_off,68,0,0,,10,,,81,127
11443,note_on,0,0,0,,7,,,79,127
11509,note_off,66,0,0,,0,,,72,127
11510,note_off,1,0,0,,7,,,79,127
11510,note_on,0,0,0,,10,,,81,127
11744,note_off,234,0,0,,5,,,65,127
11781,note_on,37,0,0,,5,,,53,127
11781,note_on,0,0,0,,10,,,69,127
12051,note_off,270,0,0,,10,,,69,127
12051,note_off,0,0,0,,5,,,53,127
12052,note_on,1,0,0,,7,,,55,127
12052,note_on,0,0,0,,12,,,71,127
12322,note_off,270,0,0,,12,,,71,127
12322,note_off,0,0,0,,7,,,55,127
12323,note_on,1,0,0,,10,,,57,127
12323,note_on,0,0,0,,1,,,73,127
12593,note_off,270,0,0,,1,,,73,127
12593,note_off,0,0,0,,10,,,57,127
12593,note_off,0,0,0,,10,,,81,127
12594,note_on,1,0,0,,12,,,59,127
12594,note_on,0,0,0,,7,,,79,127
12594,note_on,0,0,0,,2,,,74,127
12864,note_off,270,0,0,,2,,,74,127
12864,note_off,0,0,0,,12,,,59,127
12865,note_on,1,0,0,,1,,,61,127
12865,note_on,0,0,0,,4,,,76,127
13135,note_off,270,0,0,,4,,,76,127
13135,note_off,0,0,0,,1,,,61,127
13136,note_on,1,0,0,,2,,,62,127
13136,note_on,0,0,0,,10,,,69,127
13406,note_off,270,0,0,,7,,,79,127
13407,note_on,1,0,0,,5,,,77,127
13475,note_off,68,0,0,,5,,,77,127
13475,note_on,0,0,0,,7,,,79,127
13543,note_off,68,0,0,,7,,,79,127
13543,note_on,0,0,0,,5,,,77,127
13611,note_off,68,0,0,,5,,,77,127
13611,note_on,0,0,0,,4,,,76,127
13677,note_off,66,0,0,,10,,,69,127
13678,note_off,1,0,0,,4,,,76,127
13678,note_on,0,0,0,,5,,,77,127
13948,note_off,270,0,0,,5,,,77,127
13948,note_off,0,0,0,,2,,,62,127
13949,note_on,1,0,0,,5,,,53,127
13949,note_on,0,0,0,,10,,,69,127
13949,note_on,0,0,0,,10,,,81,127
14219,note_off,270,0,0,,10,,,69,127
14219,note_off,0,0,0,,5,,,53,127
14220,note_on,1,0,0,,7,,,55,127
14220,note_on,0,0,0,,12,,,71,127
14490,note_off,270,0,0,,12,,,71,127
14490,note_off,0,0,0,,7,,,55,127
14491,note_on,1,0,0,,10,,,57,127
14491,note_on,0,0,0,,1,,,73,127
14761,note_off,270,0,0,,1,,,73,127
14761,note_off,0,0,0,,10,,,57,127
14761,note_off,0,0,0,,10,,,81,127
14762,note_on,1,0,0,,12,,,59,127
14762,note_on,0,0,0,,2,,,74,127
14762,note_on,0,0,0,,7,,,79,127
15032,note_off,270,0,0,,2,,,74,127
15032,note_off,0,0,0,,12,,,59,127
15033,note_on,1,0,0,,1,,,61,127
15033,note_on,0,0,0,,4,,,76,127
15303,note_off,270,0,0,,4,,,76,127
15303,note_off,0,0,0,,1,,,61,127
15304,note_on,1,0,0,,2,,,62,127
15304,note_on,0,0,0,,10,,,69,127
15574,note_off,270,0,0,,10,,,69,127
15574,note_off,0,0,0,,7,,,79,127
15575,note_on,1,0,0,,0,,,72,127
15575,note_on,0,0,0,,6,,,78,127
15845,note_off,270,0,0,,6,,,78,127
15845,note_off,0,0,0,,0,,,72,127
15846,note_on,1,0,0,,11,,,70,127
15846,note_on,0,0,0,,7,,,79,127
16116,note_off,270,0,0,,7,,,79,127
16116,note_off,0,0,0,,11,,,70,127
16117,note_on,1,0,0,,10,,,69,127
16117,note_on,0,0,0,,10,,,81,127
16387,note_off,270,0,0,,10,,,81,127
16387,note_off,0,0,0,,10,,,69,127
16387,note_off,0,0,0,,2,,,62,127
16388,note_on,1,0,0,,2,,,62,127
16388,note_on,0,0,0,,7,,,67,127
16388,note_on,0,0,0,,11,,,70,127
16388,note_on,0,0,0,,11,,,82,127
16658,note_off,270,0,0,,11,,,82,127
16658,note_off,0,0,0,,11,,,70,127
16658,note_off,0,0,0,,7,,,67,127
16658,note_off,0,0,0,,2,,,62,127
16659,note_on,1,0,0,,0,,,72,127
16659,note_on,0,0,0,,10,,,69,127
16659,note_on,0,0,0,,0,,,60,127
16659,note_on,0,0,0,,0,,,84,127
16793,note_off,134,0,0,,0,,,84,127
16794,note_on,1,0,0,,10,,,81,127
16928,note_off,134,0,0,,10,,,81,127
16928,note_off,0,0,0,,0,,,60,127
16928,note_off,0,0,0,,10,,,69,127
16928,note_off,0,0,0,,0,,,72,127
16929,note_on,1,0,0,,11,,,70,127
16929,note_on,0,0,0,,7,,,67,127
16929,note_on,0,0,0,,2,,,62,127
16929,note_on,0,0,0,,7,,,79,127
17199,note_off,270,0,0,,7,,,79,127
17199,note_off,0,0,0,,7,,,67,127
17199,note_off,0,0,0,,11,,,70,127
17200,note_on,1,0,0,,10,,,69,127
17200,note_on,0,0,0,,6,,,78,127
17470,note_off,270,0,0,,6,,,78,127
17470,note_off,0,0,0,,10,,,69,127
17470,note_off,0,0,0,,2,,,62,127
17471,note_on,1,0,0,,7,,,67,127
17471,note_on,0,0,0,,7,,,79,127
17741,note_off,270,0,0,,7,,,79,127
17741,note_off,0,0,0,,7,,,67,127
17742,note_on,1,0,0,,3,,,63,127
17742,note_on,0,0,0,,3,,,75,127
17876,note_off,134,0,0,,3,,,75,127
17876,note_off,0,0,0,,3,,,63,127
17877,note_on,1,0,0,,0,,,60,127
17877,note_on,0,0,0,,0,,,72,127
18011,note_off,134,0,0,,0,,,72,127
18011,note_off,0,0,0,,0,,,60,127
18012,note_on,1,0,0,,2,,,62,127
18012,note_on,0,0,0,,2,,,74,127
18282,note_off,270,0,0,,2,,,74,127
18282,note_off,0,0,0,,2,,,62,127
18283,note_on,1,0,0,,0,,,60,127
18283,note_on,0,0,0,,0,,,72,127
18417,note_off,134,0,0,,0,,,72,127
18417,note_off,0,0,0,,0,,,60,127
18418,note_on,1,0,0,,10,,,57,127
18418,note_on,0,0,0,,10,,,69,127
18552,note_off,134,0,0,,10,,,69,127
18552,note_off,0,0,0,,10,,,57,127
18553,note_on,1,0,0,,11,,,58,127
18553,note_on,0,0,0,,11,,,70,127
18823,note_off,270,0,0,,11,,,70,127
18823,note_off,0,0,0,,11,,,58,127
18824,note_on,1,0,0,,10,,,57,127
18824,note_on,0,0,0,,10,,,69,127
18958,note_off,134,0,0,,10,,,69,127
18958,note_off,0,0,0,,10,,,57,127
18959,note_on,1,0,0,,6,,,54,127
18959,note_on,0,0,0,,6,,,66,127
19093,note_off,134,0,0,,6,,,66,127
19093,note_off,0,0,0,,6,,,54,127
19094,note_on,1,0,0,,7,,,55,127
19094,note_on,0,0,0,,7,,,67,127
19364,note_off,270,0,0,,7,,,67,127
19364,note_off,0,0,0,,7,,,55,127
19365,note_on,1,0,0,,2,,,50,127
19365,note_on,0,0,0,,2,,,62,127
19635,note_off,270,0,0,,2,,,62,127
19635,note_off,0,0,0,,2,,,50,127
19636,note_on,1,0,0,,7,,,43,127
19636,note_on,0,0,0,,7,,,55,127
19906,note_off,270,0,0,,7,,,55,127
19906,note_off,0,0,0,,7,,,43,127
19907,note_on,1,0,0,,7,,,55,127
19907,note_on,0,0,0,,7,,,79,127
20177,note_off,270,0,0,,7,,,79,127
20177,note_off,0,0,0,,7,,,55,127
20178,note_on,1,0,0,,7,,,79,127
20178,note_on,0,0,0,,10,,,57,127
20232,note_on,54,0,0,,5,,,77,127
20246,note_off,14,0,0,,7,,,79,127
20286,note_on,40,0,0,,7,,,79,127
20300,note_off,14,0,0,,5,,,77,127
20340,note_on,40,0,0,,5,,,77,127
20354,note_off,14,0,0,,7,,,79,127
20394,note_on,40,0,0,,7,,,79,127
20408,note_off,14,0,0,,5,,,77,127
20448,note_on,40,0,0,,5,,,77,127
20449,note_off,1,0,0,,10,,,57,127
20450,note_on,1,0,0,,12,,,59,127
20461,note_off,11,0,0,,7,,,79,127
20501,note_on,40,0,0,,7,,,79,127
20515,note_off,14,0,0,,5,,,77,127
20555,note_on,40,0,0,,5,,,77,127
20569,note_off,14,0,0,,7,,,79,127
20609,note_on,40,0,0,,4,,,76,127
20623,note_off,14,0,0,,5,,,77,127
20663,note_on,40,0,0,,2,,,74,127
20677,note_off,14,0,0,,4,,,76,127
20721,note_off,44,0,0,,12,,,59,127
20722,note_on,1,0,0,,0,,,60,127
20722,note_on,0,0,0,,4,,,76,127
20725,note_off,3,0,0,,2,,,74,127
20992,note_off,267,0,0,,4,,,76,127
20992,note_off,0,0,0,,0,,,60,127
20993,note_on,1,0,0,,4,,,64,127
20993,note_on,0,0,0,,7,,,79,127
21263,note_off,270,0,0,,7,,,79,127
21263,note_off,0,0,0,,4,,,64,127
21264,note_on,1,0,0,,2,,,62,127
21264,note_on,0,0,0,,7,,,79,127
21318,note_on,54,0,0,,5,,,77,127
21332,note_off,14,0,0,,7,,,79,127
21372,note_on,40,0,0,,7,,,79,127
21386,note_off,14,0,0,,5,,,77,127
21426,note_on,40,0,0,,5,,,77,127
21440,note_off,14,0,0,,7,,,79,127
21480,note_on,40,0,0,,7,,,79,127
21494,note_off,14,0,0,,5,,,77,127
21534,note_on,40,0,0,,5,,,77,127
21535,note_off,1,0,0,,2,,,62,127
21536,note_on,1,0,0,,7,,,55,127
21547,note_off,11,0,0,,7,,,79,127
21587,note_on,40,0,0,,7,,,79,127
21601,note_off,14,0,0,,5,,,77,127
21641,note_on,40,0,0,,5,,,77,127
21655,note_off,14,0,0,,7,,,79,127
21695,note_on,40,0,0,,4,,,76,127
21709,note_off,14,0,0,,5,,,77,127
21749,note_on,40,0,0,,2,,,74,127
21763,note_off,14,0,0,,4,,,76,127
21807,note_off,44,0,0,,7,,,55,127
21808,note_on,1,0,0,,0,,,60,127
21808,note_on,0,0,0,,4,,,76,127
21811,note_off,3,0,0,,2,,,74,127
22078,note_off,267,0,0,,4,,,76,127
22078,note_off,0,0,0,,0,,,60,127
22079,note_on,1,0,0,,0,,,60,127
22079,note_on,0,0,0,,0,,,84,127
22349,note_off,270,0,0,,0,,,84,127
22349,note_off,0,0,0,,0,,,60,127
22350,note_on,1,0,0,,0,,,84,127
22350,note_on,0,0,0,,2,,,62,127
22404,note_on,54,0,0,,12,,,83,127
22418,note_off,14,0,0,,0,,,84,127
22458,note_on,40,0,0,,0,,,84,127
22472,note_off,14,0,0,,12,,,83,127
22512,note_on,40,0,0,,12,,,83,127
22526,note_off,14,0,0,,0,,,84,127
22566,note_on,40,0,0,,0,,,84,127
22580,note_off,14,0,0,,12,,,83,127
22620,note_on,40,0,0,,12,,,83,127
22621,note_off,1,0,0,,2,,,62,127
22622,note_on,1,0,0,,4,,,64,127
22633,note_off,11,0,0,,0,,,84,127
22673,note_on,40,0,0,,0,,,84,127
22687,note_off,14,0,0,,12,,,83,127
22727,note_on,40,0,0,,12,,,83,127
22741,note_off,14,0,0,,0,,,84,127
22781,note_on,40,0,0,,10,,,81,127
22795,note_off,14,0,0,,12,,,83,127
22835,note_on,40,0,0,,8,,,80,127
22849,note_off,14,0,0,,10,,,81,127
22893,note_off,44,0,0,,4,,,64,127
22894,note_on,1,0,0,,10,,,69,127
22894,note_on,0,0,0,,5,,,65,127
22894,note_on,0,0,0,,10,,,81,127
22897,note_off,3,0,0,,8,,,80,127
23164,note_off,267,0,0,,10,,,81,127
23164,note_off,0,0,0,,5,,,65,127
23164,note_off,0,0,0,,10,,,69,127
23165,note_on,1,0,0,,12,,,71,127
23165,note_on,0,0,0,,2,,,62,127
23165,note_on,0,0,0,,2,,,86,127
23299,note_off,134,0,0,,2,,,86,127
23300,note_on,1,0,0,,12,,,83,127
23434,note_off,134,0,0,,12,,,83,127
23434,note_off,0,0,0,,2,,,62,127
23434,note_off,0,0,0,,12,,,71,127
23435,note_on,1,0,0,,10,,,69,127
23435,note_on,0,0,0,,0,,,72,127
23435,note_on,0,0,0,,4,,,64,127
23435,note_on,0,0,0,,10,,,81,127
23705,note_off,270,0,0,,10,,,81,127
23705,note_off,0,0,0,,0,,,72,127
23705,note_off,0,0,0,,10,,,69,127
23706,note_on,1,0,0,,12,,,71,127
23706,note_on,0,0,0,,8,,,80,127
23762,note_off,56,0,0,,8,,,80,127
23762,note_on,0,0,0,,10,,,81,127
23818,note_off,56,0,0,,10,,,81,127
23818,note_on,0,0,0,,8,,,80,127
23874,note_off,56,0,0,,8,,,80,127
23874,note_on,0,0,0,,6,,,78,127
23930,note_off,56,0,0,,6,,,78,127
23930,note_on,0,0,0,,8,,,80,127
23974,note_off,44,0,0,,12,,,71,127
23974,note_off,0,0,0,,4,,,64,127
23975,note_on,1,0,0,,10,,,69,127
23975,note_on,0,0,0,,10,,,81,127
23985,note_off,10,0,0,,8,,,80,127
24245,note_off,260,0,0,,10,,,81,127
24245,note_off,0,0,0,,10,,,69,127
24246,note_on,1,0,0,,5,,,65,127
24246,note_on,0,0,0,,5,,,77,127
24380,note_off,134,0,0,,5,,,77,127
24380,note_off,0,0,0,,5,,,65,127
24381,note_on,1,0,0,,2,,,62,127
24381,note_on,0,0,0,,2,,,74,127
24515,note_off,134,0,0,,2,,,74,127
24515,note_off,0,0,0,,2,,,62,127
24516,note_on,1,0,0,,4,,,64,127
24516,note_on,0,0,0,,4,,,76,127
24786,note_off,270,0,0,,4,,,76,127
24786,note_off,0,0,0,,4,,,64,127
24787,note_on,1,0,0,,2,,,62,127
24787,note_on,0,0,0,,2,,,74,127
24921,note_off,134,0,0,,2,,,74,127
24921,note_off,0,0,0,,2,,,62,127
24922,note_on,1,0,0,,12,,,59,127
24922,note_on,0,0,0,,12,,,71,127
25056,note_off,134,0,0,,12,,,71,127
25056,note_off,0,0,0,,12,,,59,127
25057,note_on,1,0,0,,0,,,60,127
25057,note_on,0,0,0,,0,,,72,127
25327,note_off,270,0,0,,0,,,72,127
25327,note_off,0,0,0,,0,,,60,127
25328,note_on,1,0,0,,12,,,59,127
25328,note_on,0,0,0,,12,,,71,127
25462,note_off,134,0,0,,12,,,71,127
25462,note_off,0,0,0,,12,,,59,127
25463,note_on,1,0,0,,8,,,56,127
25463,note_on,0,0,0,,8,,,68,127
25597,note_off,134,0,0,,8,,,68,127
25597,note_off,0,0,0,,8,,,56,127
25598,note_on,1,0,0,,10,,,57,127
25598,note_on,0,0,0,,10,,,69,127
25868,note_off,270,0,0,,10,,,69,127
25868,note_off,0,0,0,,10,,,57,127
25869,note_on,1,0,0,,4,,,52,127
25869,note_on,0,0,0,,4,,,64,127
26139,note_off,270,0,0,,4,,,64,127
26139,note_off,0,0,0,,4,,,52,127
26140,note_on,1,0,0,,10,,,45,127
26140,note_on,0,0,0,,12,,,59,127
26185,note_on,45,0,0,,10,,,57,127
26208,note_off,23,0,0,,12,,,59,127
26231,note_on,23,0,0,,12,,,59,127
26254,note_off,23,0,0,,10,,,57,127
26277,note_on,23,0,0,,10,,,57,127
26300,note_off,23,0,0,,12,,,59,127
27225,note_off,925,0,0,,10,,,57,127
27225,note_off,0,0,0,,10,,,45,127
27769,note_on,544,0,0,,10,,,33,127
27769,note_on,0,0,0,,10,,,45,127
27769,note_on,0,0,0,,4,,,40,127
27769,note_on,0,0,0,,10,,,69,127
27769,note_on,0,0,0,,10,,,81,127
27769,note_on,0,0,0,,1,,,73,127
28039,note_off,270,0,0,,1,,,73,127
28040,note_on,1,0,0,,1,,,73,127
28174,note_off,134,0,0,,1,,,73,127
28175,note_on,1,0,0,,1,,,73,127
28309,note_off,134,0,0,,1,,,73,127
28310,note_on,1,0,0,,1,,,73,127
28580,note_off,270,0,0,,1,,,73,127
28581,note_on,1,0,0,,2,,,74,127
28851,note_off,270,0,0,,2,,,74,127
28851,note_off,0,0,0,,10,,,81,127
28851,note_off,0,0,0,,10,,,69,127
28851,note_off,0,0,0,,4,,,40,127
28851,note_off,0,0,0,,10,,,45,127
28851,note_off,0,0,0,,10,,,33,127
28852,note_on,1,0,0,,10,,,33,127
28852,note_on,0,0,0,,10,,,45,127
28852,note_on,0,0,0,,4,,,40,127
28852,note_on,0,0,0,,10,,,69,127
28852,note_on,0,0,0,,10,,,81,127
28852,note_on,0,0,0,,1,,,73,127
28852,note_on,0,0,0,,4,,,76,127
29122,note_off,270,0,0,,4,,,76,127
29122,note_off,0,0,0,,1,,,73,127
29122,note_off,0,0,0,,10,,,81,127
29123,note_on,1,0,0,,6,,,78,127
29257,note_off,134,0,0,,6,,,78,127
29258,note_on,1,0,0,,8,,,80,127
29392,note_off,134,0,0,,8,,,80,127
29392,note_off,0,0,0,,10,,,69,127
29393,note_on,1,0,0,,10,,,81,127
29527,note_off,134,0,0,,10,,,81,127
29528,note_on,1,0,0,,2,,,74,127
29528,note_on,0,0,0,,12,,,83,127
29662,note_off,134,0,0,,12,,,83,127
29662,note_off,0,0,0,,2,,,74,127
29663,note_on,1,0,0,,10,,,81,127
29663,note_on,0,0,0,,1,,,73,127
29797,note_off,134,0,0,,1,,,73,127
29797,note_off,0,0,0,,10,,,81,127
29798,note_on,1,0,0,,12,,,71,127
29798,note_on,0,0,0,,8,,,80,127
29932,note_off,134,0,0,,8,,,80,127
29932,note_off,0,0,0,,12,,,71,127
29932,note_off,0,0,0,,4,,,40,127
29932,note_off,0,0,0,,10,,,45,127
29932,note_off,0,0,0,,10,,,33,127
29933,note_on,1,0,0,,10,,,33,127
29933,note_on,0,0,0,,10,,,45,127
29933,note_on,0,0,0,,4,,,40,127
29933,note_on,0,0,0,,10,,,81,127
29933,note_on,0,0,0,,1,,,73,127
29933,note_on,0,0,0,,10,,,69,127
30203,note_off,270,0,0,,1,,,73,127
30204,note_on,1,0,0,,1,,,73,127
30338,note_off,134,0,0,,1,,,73,127
30339,note_on,1,0,0,,1,,,73,127
30473,note_off,134,0,0,,1,,,73,127
30474,note_on,1,0,0,,1,,,73,127
30744,note_off,270,0,0,,1,,,73,127
30745,note_on,1,0,0,,2,,,74,127
31015,note_off,270,0,0,,2,,,74,127
31015,note_off,0,0,0,,10,,,69,127
31015,note_off,0,0,0,,10,,,81,127
31015,note_off,0,0,0,,4,,,40,127
31015,note_off,0,0,0,,10,,,45,127
31015,note_off,0,0,0,,10,,,33,127
31016,note_on,1,0,0,,10,,,33,127
31016,note_on,0,0,0,,4,,,40,127
31016,note_on,0,0,0,,10,,,45,127
31016,note_on,0,0,0,,10,,,69,127
31016,note_on,0,0,0,,4,,,76,127
31016,note_on,0,0,0,,10,,,81,127
31016,note_on,0,0,0,,1,,,73,127
31286,note_off,270,0,0,,1,,,73,127
31286,note_off,0,0,0,,10,,,81,127
31286,note_off,0,0,0,,4,,,76,127
31287,note_on,1,0,0,,6,,,78,127
31421,note_off,134,0,0,,6,,,78,127
31422,note_on,1,0,0,,8,,,80,127
31556,note_off,134,0,0,,8,,,80,127
31556,note_off,0,0,0,,10,,,69,127
31557,note_on,1,0,0,,10,,,81,127
31691,note_off,134,0,0,,10,,,81,127
31692,note_on,1,0,0,,12,,,83,127
31692,note_on,0,0,0,,2,,,74,127
31826,note_off,134,0,0,,2,,,74,127
31826,note_off,0,0,0,,12,,,83,127
31827,note_on,1,0,0,,10,,,81,127
31827,note_on,0,0,0,,1,,,73,127
31961,note_off,134,0,0,,1,,,73,127
31961,note_off,0,0,0,,10,,,81,127
31962,note_on,1,0,0,,8,,,80,127
31962,note_on,0,0,0,,12,,,71,127
32096,note_off,134,0,0,,12,,,71,127
32096,note_off,0,0,0,,8,,,80,127
32096,note_off,0,0,0,,10,,,45,127
32096,note_off,0,0,0,,4,,,40,127
32096,note_off,0,0,0,,10,,,33,127
32097,note_on,1,0,0,,10,,,33,127
32097,note_on,0,0,0,,10,,,45,127
32097,note_on,0,0,0,,4,,,40,127
32097,note_on,0,0,0,,1,,,85,127
32097,note_on,0,0,0,,10,,,81,127
32367,note_off,270,0,0,,10,,,81,127
32367,note_off,0,0,0,,1,,,85,127
32368,note_on,1,0,0,,12,,,83,127
32368,note_on,0,0,0,,8,,,80,127
32502,note_off,134,0,0,,8,,,80,127
32502,note_off,0,0,0,,12,,,83,127
32503,note_on,1,0,0,,10,,,81,127
32503,note_on,0,0,0,,6,,,78,127
32637,note_off,134,0,0,,6,,,78,127
32637,note_off,0,0,0,,10,,,81,127
32637,note_off,0,0,0,,4,,,40,127
32637,note_off,0,0,0,,10,,,45,127
32637,note_off,0,0,0,,10,,,33,127
32638,note_on,1,0,0,,12,,,35,127
32638,note_on,0,0,0,,12,,,47,127
32638,note_on,0,0,0,,8,,,80,127
32638,note_on,0,0,0,,4,,,76,127
32908,note_off,270,0,0,,4,,,76,127
32908,note_off,0,0,0,,8,,,80,127
32909,note_on,1,0,0,,6,,,78,127
32909,note_on,0,0,0,,3,,,75,127
33179,note_off,270,0,0,,3,,,75,127
33179,note_off,0,0,0,,6,,,78,127
33179,note_off,0,0,0,,12,,,47,127
33179,note_off,0,0,0,,12,,,35,127
33180,note_on,1,0,0,,4,,,52,127
33180,note_on,0,0,0,,4,,,40,127
33180,note_on,0,0,0,,8,,,80,127
33180,note_on,0,0,0,,4,,,76,127
33450,note_off,270,0,0,,4,,,76,127
33451,note_on,1,0,0,,12,,,71,127
33721,note_off,270,0,0,,12,,,71,127
33722,note_on,1,0,0,,12,,,71,127
33992,note_off,270,0,0,,8,,,80,127
33993,note_on,1,0,0,,12,,,83,127
34225,note_off,232,0,0,,4,,,40,127
34225,note_off,0,0,0,,4,,,52,127
34263,note_off,38,0,0,,12,,,83,127
34263,note_off,0,0,0,,12,,,71,127
34264,note_on,1,0,0,,10,,,57,127
34264,note_on,0,0,0,,10,,,45,127
34264,note_on,0,0,0,,1,,,73,127
34264,note_on,0,0,0,,12,,,83,127
34398,note_off,134,0,0,,12,,,83,127
34399,note_on,1,0,0,,10,,,81,127
34533,note_off,134,0,0,,10,,,81,127
34533,note_off,0,0,0,,1,,,73,127
34534,note_on,1,0,0,,8,,,80,127
34534,note_on,0,0,0,,12,,,71,127
34668,note_off,134,0,0,,12,,,71,127
34668,note_off,0,0,0,,8,,,80,127
34669,note_on,1,0,0,,10,,,69,127
34669,note_on,0,0,0,,6,,,78,127
34803,note_off,134,0,0,,6,,,78,127
34803,note_off,0,0,0,,10,,,69,127
34803,note_off,0,0,0,,10,,,45,127
34803,note_off,0,0,0,,10,,,57,127
34804,note_on,1,0,0,,12,,,59,127
34804,note_on,0,0,0,,12,,,47,127
34804,note_on,0,0,0,,8,,,68,127
34804,note_on,0,0,0,,4,,,76,127
35074,note_off,270,0,0,,4,,,76,127
35074,note_off,0,0,0,,8,,,68,127
35075,note_on,1,0,0,,3,,,75,127
35075,note_on,0,0,0,,6,,,66,127
35345,note_off,270,0,0,,6,,,66,127
35345,note_off,0,0,0,,3,,,75,127
35345,note_off,0,0,0,,12,,,47,127
35345,note_off,0,0,0,,12,,,59,127
35346,note_on,1,0,0,,4,,,76,127
35346,note_on,0,0,0,,4,,,52,127
35346,note_on,0,0,0,,4,,,40,127
35346,note_on,0,0,0,,4,,,64,127
35616,note_off,270,0,0,,4,,,64,127
35616,note_off,0,0,0,,4,,,76,127
35617,note_on,1,0,0,,4,,,76,127
35751,note_off,134,0,0,,4,,,76,127
35752,note_on,1,0,0,,6,,,78,127
35886,note_off,134,0,0,,6,,,78,127
35886,note_off,0,0,0,,4,,,40,127
35886,note_off,0,0,0,,4,,,52,127
35887,note_on,1,0,0,,4,,,52,127
35887,note_on,0,0,0,,10,,,81,127
35941,note_on,54,0,0,,8,,,80,127
35955,note_off,14,0,0,,10,,,81,127
35995,note_on,40,0,0,,10,,,81,127
36009,note_off,14,0,0,,8,,,80,127
36049,note_on,40,0,0,,8,,,80,127
36063,note_off,14,0,0,,10,,,81,127
36103,note_on,40,0,0,,10,,,81,127
36117,note_off,14,0,0,,8,,,80,127
36157,note_on,40,0,0,,8,,,80,127
36160,note_on,3,0,0,,4,,,64,127
36171,note_off,11,0,0,,10,,,81,127
36211,note_on,40,0,0,,10,,,81,127
36225,note_off,14,0,0,,8,,,80,127
36265,note_on,40,0,0,,8,,,80,127
36279,note_off,14,0,0,,10,,,81,127
36319,note_on,40,0,0,,6,,,78,127
36333,note_off,14,0,0,,8,,,80,127
36373,note_on,40,0,0,,8,,,80,127
36387,note_off,14,0,0,,6,,,78,127
36431,note_off,44,0,0,,4,,,64,127
36431,note_off,0,0,0,,4,,,52,127
36432,note_on,1,0,0,,6,,,54,127
36432,note_on,0,0,0,,12,,,83,127
36435,note_off,3,0,0,,8,,,80,127
36566,note_off,131,0,0,,12,,,83,127
36567,note_on,1,0,0,,10,,,81,127
36701,note_off,134,0,0,,10,,,81,127
36702,note_on,1,0,0,,6,,,66,127
36702,note_on,0,0,0,,8,,,80,127
36836,note_off,134,0,0,,8,,,80,127
36837,note_on,1,0,0,,6,,,78,127
36971,note_off,134,0,0,,6,,,78,127
36971,note_off,0,0,0,,6,,,66,127
36971,note_off,0,0,0,,6,,,54,127
36972,note_on,1,0,0,,4,,,64,127
36972,note_on,0,0,0,,8,,,56,127
36972,note_on,0,0,0,,4,,,76,127
37106,note_off,134,0,0,,4,,,76,127
37107,note_on,1,0,0,,3,,,75,127
37241,note_off,134,0,0,,3,,,75,127
37241,note_off,0,0,0,,4,,,64,127
37242,note_on,1,0,0,,3,,,63,127
37242,note_on,0,0,0,,1,,,73,127
37376,note_off,134,0,0,,1,,,73,127
37377,note_on,1,0,0,,0,,,72,127
37511,note_off,134,0,0,,0,,,72,127
37511,note_off,0,0,0,,3,,,63,127
37511,note_off,0,0,0,,8,,,56,127
37512,note_on,1,0,0,,1,,,49,127
37512,note_on,0,0,0,,1,,,73,127
37782,note_off,270,0,0,,1,,,73,127
37783,note_on,1,0,0,,1,,,61,127
37783,note_on,0,0,0,,3,,,75,127
37917,note_off,134,0,0,,3,,,75,127
37918,note_on,1,0,0,,4,,,76,127
38052,note_off,134,0,0,,4,,,76,127
38052,note_off,0,0,0,,1,,,61,127
38052,note_off,0,0,0,,1,,,49,127
38053,note_on,1,0,0,,3,,,51,127
38053,note_on,0,0,0,,8,,,80,127
38107,note_on,54,0,0,,6,,,78,127
38121,note_off,14,0,0,,8,,,80,127
38161,note_on,40,0,0,,8,,,80,127
38175,note_off,14,0,0,,6,,,78,127
38215,note_on,40,0,0,,6,,,78,127
38229,note_off,14,0,0,,8,,,80,127
38269,note_on,40,0,0,,8,,,80,127
38283,note_off,14,0,0,,6,,,78,127
38323,note_on,40,0,0,,6,,,78,127
38326,note_on,3,0,0,,12,,,59,127
38337,note_off,11,0,0,,8,,,80,127
38377,note_on,40,0,0,,8,,,80,127
38391,note_off,14,0,0,,6,,,78,127
38431,note_on,40,0,0,,6,,,78,127
38445,note_off,14,0,0,,8,,,80,127
38485,note_on,40,0,0,,4,,,76,127
38499,note_off,14,0,0,,6,,,78,127
38539,note_on,40,0,0,,6,,,78,127
38553,note_off,14,0,0,,4,,,76,127
38597,note_off,44,0,0,,12,,,59,127
38597,note_off,0,0,0,,3,,,51,127
38598,note_on,1,0,0,,4,,,52,127
38598,note_on,0,0,0,,10,,,81,127
38601,note_off,3,0,0,,6,,,78,127
38732,note_off,131,0,0,,10,,,81,127
38733,note_on,1,0,0,,8,,,80,127
38867,note_off,134,0,0,,8,,,80,127
38868,note_on,1,0,0,,4,,,64,127
38868,note_on,0,0,0,,6,,,78,127
39002,note_off,134,0,0,,6,,,78,127
39003,note_on,1,0,0,,4,,,76,127
39137,note_off,134,0,0,,4,,,76,127
39137,note_off,0,0,0,,4,,,64,127
39137,note_off,0,0,0,,4,,,52,127
39138,note_on,1,0,0,,6,,,54,127
39138,note_on,0,0,0,,3,,,63,127
39138,note_on,0,0,0,,3,,,75,127
39272,note_off,134,0,0,,3,,,75,127
39273,note_on,1,0,0,,1,,,73,127
39407,note_off,134,0,0,,1,,,73,127
39407,note_off,0,0,0,,3,,,63,127
39408,note_on,1,0,0,,1,,,61,127
39408,note_on,0,0,0,,12,,,71,127
39542,note_off,134,0,0,,12,,,71,127
39543,note_on,1,0,0,,11,,,70,127
39677,note_off,134,0,0,,11,,,70,127
39677,note_off,0,0,0,,1,,,61,127
39677,note_off,0,0,0,,6,,,54,127
39678,note_on,1,0,0,,12,,,47,127
39678,note_on,0,0,0,,12,,,71,127
39948,note_off,270,0,0,,12,,,71,127
39949,note_on,1,0,0,,12,,,59,127
39949,note_on,0,0,0,,12,,,71,127
40083,note_off,134,0,0,,12,,,71,127
40084,note_on,1,0,0,,1,,,73,127
40218,note_off,134,0,0,,1,,,73,127
40218,note_off,0,0,0,,12,,,59,127
40218,note_off,0,0,0,,12,,,47,127
40219,note_on,1,0,0,,4,,,76,127
40219,note_on,0,0,0,,12,,,47,127
40273,note_on,54,0,0,,3,,,75,127
40287,note_off,14,0,0,,4,,,76,127
40327,note_on,40,0,0,,4,,,76,127
40341,note_off,14,0,0,,3,,,75,127
40381,note_on,40,0,0,,3,,,75,127
40395,note_off,14,0,0,,4,,,76,127
40435,note_on,40,0,0,,4,,,76,127
40449,note_off,14,0,0,,3,,,75,127
40489,note_on,40,0,0,,3,,,75,127
40492,note_on,3,0,0,,12,,,59,127
40503,note_off,11,0,0,,4,,,76,127
40543,note_on,40,0,0,,4,,,76,127
40557,note_off,14,0,0,,3,,,75,127
40597,note_on,40,0,0,,3,,,75,127
40611,note_off,14,0,0,,4,,,76,127
40651,note_on,40,0,0,,1,,,73,127
40665,note_off,14,0,0,,3,,,75,127
40705,note_on,40,0,0,,3,,,75,127
40719,note_off,14,0,0,,1,,,73,127
40763,note_off,44,0,0,,12,,,59,127
40763,note_off,0,0,0,,12,,,47,127
40764,note_on,1,0,0,,1,,,49,127
40764,note_on,0,0,0,,6,,,78,127
40767,note_off,3,0,0,,3,,,75,127
40898,note_off,131,0,0,,6,,,78,127
40899,note_on,1,0,0,,4,,,76,127
41033,note_off,134,0,0,,4,,,76,127
41034,note_on,1,0,0,,1,,,61,127
41034,note_on,0,0,0,,3,,,75,127
41168,note_off,134,0,0,,3,,,75,127
41169,note_on,1,0,0,,1,,,73,127
41303,note_off,134,0,0,,1,,,73,127
41303,note_off,0,0,0,,1,,,61,127
41303,note_off,0,0,0,,1,,,49,127
41304,note_on,1,0,0,,12,,,59,127
41304,note_on,0,0,0,,3,,,51,127
41304,note_on,0,0,0,,12,,,71,127
41438,note_off,134,0,0,,12,,,71,127
41439,note_on,1,0,0,,11,,,70,127
41573,note_off,134,0,0,,11,,,70,127
41573,note_off,0,0,0,,12,,,59,127
41574,note_on,1,0,0,,11,,,58,127
41574,note_on,0,0,0,,8,,,68,127
41708,note_off,134,0,0,,8,,,68,127
41709,note_on,1,0,0,,7,,,67,127
41843,note_off,134,0,0,,7,,,67,127
41843,note_off,0,0,0,,11,,,58,127
41843,note_off,0,0,0,,3,,,51,127
41844,note_on,1,0,0,,12,,,59,127
41844,note_on,0,0,0,,8,,,56,127
41844,note_on,0,0,0,,8,,,68,127
42114,note_off,270,0,0,,8,,,68,127
42115,note_on,1,0,0,,12,,,71,127
42249,note_off,134,0,0,,12,,,71,127
42250,note_on,1,0,0,,1,,,73,127
42384,note_off,134,0,0,,1,,,73,127
42385,note_on,1,0,0,,12,,,71,127
42655,note_off,270,0,0,,12,,,71,127
42656,note_on,1,0,0,,12,,,71,127
42926,note_off,270,0,0,,8,,,56,127
42926,note_off,0,0,0,,12,,,59,127
42927,note_on,1,0,0,,12,,,59,127
42927,note_on,0,0,0,,10,,,57,127
42927,note_on,0,0,0,,6,,,54,127
42927,note_on,0,0,0,,10,,,81,127
43197,note_off,270,0,0,,12,,,71,127
43198,note_on,1,0,0,,12,,,71,127
43332,note_off,134,0,0,,12,,,71,127
43333,note_on,1,0,0,,1,,,73,127
43467,note_off,134,0,0,,1,,,73,127
43468,note_on,1,0,0,,12,,,71,127
43738,note_off,270,0,0,,12,,,71,127
43739,note_on,1,0,0,,12,,,71,127
44009,note_off,270,0,0,,10,,,81,127
44009,note_off,0,0,0,,6,,,54,127
44009,note_off,0,0,0,,10,,,57,127
44009,note_off,0,0,0,,12,,,59,127
44010,note_on,1,0,0,,12,,,59,127
44010,note_on,0,0,0,,10,,,57,127
44010,note_on,0,0,0,,4,,,52,127
44010,note_on,0,0,0,,8,,,80,127
44280,note_off,270,0,0,,12,,,71,127
44281,note_on,1,0,0,,12,,,71,127
44415,note_off,134,0,0,,12,,,71,127
44416,note_on,1,0,0,,1,,,73,127
44550,note_off,134,0,0,,1,,,73,127
44551,note_on,1,0,0,,12,,,71,127
44821,note_off,270,0,0,,12,,,71,127
44822,note_on,1,0,0,,12,,,71,127
45092,note_off,270,0,0,,8,,,80,127
45092,note_off,0,0,0,,4,,,52,127
45092,note_off,0,0,0,,10,,,57,127
45092,note_off,0,0,0,,12,,,59,127
45093,note_on,1,0,0,,12,,,59,127
45093,note_on,0,0,0,,10,,,57,127
45093,note_on,0,0,0,,2,,,50,127
45093,note_on,0,0,0,,10,,,81,127
45363,note_off,270,0,0,,12,,,71,127
45364,note_on,1,0,0,,12,,,71,127
45498,note_off,134,0,0,,12,,,71,127
45499,note_on,1,0,0,,1,,,73,127
45633,note_off,134,0,0,,1,,,73,127
45634,note_on,1,0,0,,12,,,71,127
45904,note_off,270,0,0,,12,,,71,127
45905,note_on,1,0,0,,12,,,71,127
46175,note_off,270,0,0,,10,,,81,127
46175,note_off,0,0,0,,2,,,50,127
46175,note_off,0,0,0,,10,,,57,127
46175,note_off,0,0,0,,12,,,59,127
46176,note_on,1,0,0,,10,,,57,127
46176,note_on,0,0,0,,12,,,59,127
46176,note_on,0,0,0,,4,,,52,127
46176,note_on,0,0,0,,8,,,80,127
46446,note_off,270,0,0,,12,,,71,127
46447,note_on,1,0,0,,12,,,71,127
46581,note_off,134,0,0,,12,,,71,127
46582,note_on,1,0,0,,0,,,72,127
46716,note_off,134,0,0,,0,,,72,127
46716,note_off,0,0,0,,8,,,80,127
46717,note_on,1,0,0,,2,,,74,127
46987,note_off,270,0,0,,2,,,74,127
46988,note_on,1,0,0,,4,,,76,127
47258,note_off,270,0,0,,4,,,76,127
47258,note_off,0,0,0,,4,,,52,127
47258,note_off,0,0,0,,12,,,59,127
47258,note_off,0,0,0,,10,,,57,127
47259,note_on,1,0,0,,12,,,59,127
47259,note_on,0,0,0,,2,,,50,127
47259,note_on,0,0,0,,8,,,56,127
47259,note_on,0,0,0,,5,,,77,127
47530,note_on,271,0,0,,8,,,68,127
47800,note_off,270,0,0,,8,,,68,127
47801,note_on,1,0,0,,10,,,69,127
48071,note_off,270,0,0,,10,,,69,127
48072,note_on,1,0,0,,12,,,71,127
48342,note_off,270,0,0,,12,,,71,127
48342,note_off,0,0,0,,8,,,56,127
48342,note_off,0,0,0,,2,,,50,127
48342,note_off,0,0,0,,12,,,59,127
48343,note_on,1,0,0,,10,,,57,127
48343,note_on,0,0,0,,0,,,48,127
48343,note_on,0,0,0,,4,,,52,127
48343,note_on,0,0,0,,0,,,72,127
48613,note_off,270,0,0,,0,,,72,127
48613,note_off,0,0,0,,5,,,77,127
48614,note_on,1,0,0,,4,,,76,127
48748,note_off,134,0,0,,4,,,76,127
48749,note_on,1,0,0,,2,,,74,127
48883,note_off,134,0,0,,2,,,74,127
48884,note_on,1,0,0,,0,,,72,127
48884,note_on,0,0,0,,4,,,76,127
49154,note_off,270,0,0,,0,,,72,127
49155,note_on,1,0,0,,12,,,71,127
49425,note_off,270,0,0,,12,,,71,127
49425,note_off,0,0,0,,4,,,52,127
49425,note_off,0,0,0,,0,,,48,127
49425,note_off,0,0,0,,10,,,57,127
49426,note_on,1,0,0,,2,,,62,127
49426,note_on,0,0,0,,10,,,57,127
49426,note_on,0,0,0,,12,,,59,127
49426,note_on,0,0,0,,5,,,53,127
49426,note_on,0,0,0,,10,,,69,127
49696,note_off,270,0,0,,4,,,76,127
49697,note_on,1,0,0,,2,,,74,127
49831,note_off,134,0,0,,2,,,74,127
49832,note_on,1,0,0,,0,,,72,127
49966,note_off,134,0,0,,0,,,72,127
49967,note_on,1,0,0,,12,,,71,127
50237,note_off,270,0,0,,12,,,71,127
50237,note_off,0,0,0,,10,,,69,127
50238,note_on,1,0,0,,10,,,69,127
50508,note_off,270,0,0,,10,,,69,127
50508,note_off,0,0,0,,5,,,53,127
50508,note_off,0,0,0,,12,,,59,127
50508,note_off,0,0,0,,10,,,57,127
50508,note_off,0,0,0,,2,,,62,127
50509,note_on,1,0,0,,4,,,64,127
50509,note_on,0,0,0,,10,,,57,127
50509,note_on,0,0,0,,12,,,59,127
50509,note_on,0,0,0,,4,,,52,127
50509,note_on,0,0,0,,12,,,71,127
50643,note_off,134,0,0,,12,,,71,127
50644,note_on,1,0,0,,10,,,69,127
50778,note_off,134,0,0,,10,,,69,127
50779,note_on,1,0,0,,8,,,68,127
50913,note_off,134,0,0,,8,,,68,127
50914,note_on,1,0,0,,6,,,66,127
51048,note_off,134,0,0,,6,,,66,127
51048,note_off,0,0,0,,4,,,64,127
51049,note_on,1,0,0,,4,,,64,127
51185,note_on,136,0,0,,2,,,62,127
51319,note_off,134,0,0,,2,,,62,127
51320,note_off,1,0,0,,12,,,59,127
51320,note_on,0,0,0,,0,,,60,127
51454,note_off,134,0,0,,0,,,60,127
51455,note_on,1,0,0,,12,,,59,127
51589,note_off,134,0,0,,12,,,59,127
51589,note_off,0,0,0,,4,,,64,127
51589,note_off,0,0,0,,4,,,52,127
51589,note_off,0,0,0,,10,,,57,127
51590,note_on,1,0,0,,10,,,57,127
51861,note_on,271,0,0,,10,,,81,127
51995,note_off,134,0,0,,10,,,81,127
51996,note_on,1,0,0,,12,,,83,127
52130,note_off,134,0,0,,12,,,83,127
52131,note_on,1,0,0,,0,,,84,127
52265,note_off,134,0,0,,10,,,57,127
52266,note_on,1,0,0,,10,,,69,127
52400,note_off,134,0,0,,10,,,69,127
52400,note_off,0,0,0,,0,,,84,127
52401,note_on,1,0,0,,7,,,67,127
52401,note_on,0,0,0,,12,,,83,127
52535,note_off,134,0,0,,7,,,67,127
52536,note_on,1,0,0,,7,,,55,127
52670,note_off,134,0,0,,7,,,55,127
52671,note_on,1,0,0,,5,,,53,127
52922,note_off,251,0,0,,12,,,83,127
52942,note_on,20,0,0,,10,,,81,127
53010,note_off,68,0,0,,10,,,81,127
53010,note_on,0,0,0,,12,,,83,127
53078,note_off,68,0,0,,12,,,83,127
53078,note_on,0,0,0,,10,,,81,127
53146,note_off,68,0,0,,10,,,81,127
53146,note_on,0,0,0,,8,,,80,127
53214,note_off,68,0,0,,8,,,80,127
53214,note_on,0,0,0,,10,,,81,127
53348,note_off,134,0,0,,5,,,53,127
53349,note_on,1,0,0,,5,,,65,127
53483,note_off,134,0,0,,5,,,65,127
53483,note_off,0,0,0,,10,,,81,127
53484,note_on,1,0,0,,4,,,64,127
53484,note_on,0,0,0,,7,,,79,127
53618,note_off,134,0,0,,4,,,64,127
53619,note_on,1,0,0,,4,,,52,127
53753,note_off,134,0,0,,4,,,52,127
53754,note_on,1,0,0,,2,,,50,127
54005,note_off,251,0,0,,7,,,79,127
54025,note_on,20,0,0,,5,,,77,127
54093,note_off,68,0,0,,5,,,77,127
54093,note_on,0,0,0,,7,,,79,127
54161,note_off,68,0,0,,7,,,79,127
54161,note_on,0,0,0,,5,,,77,127
54229,note_off,68,0,0,,5,,,77,127
54229,note_on,0,0,0,,4,,,76,127
54297,note_off,68,0,0,,4,,,76,127
54297,note_on,0,0,0,,5,,,77,127
54431,note_off,134,0,0,,2,,,50,127
54432,note_on,1,0,0,,2,,,62,127
54566,note_off,134,0,0,,2,,,62,127
54566,note_off,0,0,0,,5,,,77,127
54567,note_on,1,0,0,,0,,,60,127
54567,note_on,0,0,0,,4,,,76,127
54701,note_off,134,0,0,,0,,,60,127
54702,note_on,1,0,0,,0,,,48,127
54836,note_off,134,0,0,,0,,,48,127
54837,note_on,1,0,0,,12,,,47,127
55088,note_off,251,0,0,,4,,,76,127
55108,note_on,20,0,0,,2,,,74,127
55176,note_off,68,0,0,,2,,,74,127
55176,note_on,0,0,0,,4,,,76,127
55244,note_off,68,0,0,,4,,,76,127
55244,note_on,0,0,0,,2,,,74,127
55312,note_off,68,0,0,,2,,,74,127
55312,note_on,0,0,0,,0,,,72,127
55380,note_off,68,0,0,,0,,,72,127
55380,note_on,0,0,0,,2,,,74,127
55514,note_off,134,0,0,,12,,,47,127
55515,note_on,1,0,0,,12,,,59,127
55649,note_off,134,0,0,,12,,,59,127
55649,note_off,0,0,0,,2,,,74,127
55650,note_on,1,0,0,,10,,,57,127
55650,note_on,0,0,0,,0,,,72,127
55784,note_off,134,0,0,,10,,,57,127
55785,note_on,1,0,0,,10,,,45,127
55919,note_off,134,0,0,,10,,,45,127
55920,note_on,1,0,0,,4,,,40,127
56054,note_off,134,0,0,,0,,,72,127
56055,note_on,1,0,0,,12,,,71,127
56189,note_off,134,0,0,,12,,,71,127
56189,note_off,0,0,0,,4,,,40,127
56190,note_on,1,0,0,,4,,,52,127
56190,note_on,0,0,0,,10,,,69,127
56324,note_off,134,0,0,,10,,,69,127
56325,note_on,1,0,0,,8,,,68,127
56459,note_off,134,0,0,,8,,,68,127
56459,note_off,0,0,0,,4,,,52,127
56460,note_on,1,0,0,,5,,,53,127
56460,note_on,0,0,0,,10,,,69,127
56594,note_off,134,0,0,,10,,,69,127
56595,note_on,1,0,0,,12,,,71,127
56729,note_off,134,0,0,,12,,,71,127
56729,note_off,0,0,0,,5,,,53,127
56730,note_on,1,0,0,,2,,,50,127
56730,note_on,0,0,0,,0,,,72,127
56864,note_off,134,0,0,,0,,,72,127
56865,note_on,1,0,0,,2,,,74,127
56999,note_off,134,0,0,,2,,,74,127
56999,note_off,0,0,0,,2,,,50,127
57000,note_on,1,0,0,,0,,,48,127
57000,note_on,0,0,0,,4,,,76,127
57134,note_off,134,0,0,,4,,,76,127
57135,note_on,1,0,0,,10,,,69,127
57269,note_off,134,0,0,,10,,,69,127
57269,note_off,0,0,0,,0,,,48,127
57270,note_on,1,0,0,,2,,,50,127
57270,note_on,0,0,0,,2,,,74,127
57404,note_off,134,0,0,,2,,,74,127
57405,note_on,1,0,0,,12,,,71,127
57539,note_off,134,0,0,,12,,,71,127
57539,note_off,0,0,0,,2,,,50,127
57540,note_on,1,0,0,,4,,,52,127
57540,note_on,0,0,0,,10,,,69,127
57540,note_on,0,0,0,,0,,,72,127
57810,note_off,270,0,0,,0,,,72,127
57810,note_off,0,0,0,,10,,,69,127
57810,note_off,0,0,0,,4,,,52,127
57811,note_on,1,0,0,,4,,,40,127
57811,note_on,0,0,0,,8,,,68,127
57811,note_on,0,0,0,,12,,,71,127
57879,note_off,68,0,0,,12,,,71,127
57879,note_on,0,0,0,,0,,,72,127
57947,note_off,68,0,0,,0,,,72,127
57947,note_on,0,0,0,,12,,,71,127
58081,note_off,134,0,0,,8,,,68,127
58081,note_off,0,0,0,,4,,,40,127
58082,note_off,1,0,0,,12,,,71,127
58082,note_on,0,0,0,,10,,,45,127
58353,note_on,271,0,0,,10,,,81,127
58487,note_off,134,0,0,,10,,,81,127
58488,note_on,1,0,0,,12,,,83,127
58622,note_off,134,0,0,,12,,,83,127
58623,note_on,1,0,0,,0,,,84,127
58757,note_off,134,0,0,,10,,,45,127
58758,note_on,1,0,0,,10,,,69,127
58892,note_off,134,0,0,,10,,,69,127
58892,note_off,0,0,0,,0,,,84,127
58893,note_on,1,0,0,,7,,,67,127
58893,note_on,0,0,0,,12,,,83,127
59027,note_off,134,0,0,,7,,,67,127
59028,note_on,1,0,0,,7,,,55,127
59162,note_off,134,0,0,,7,,,55,127
59163,note_on,1,0,0,,5,,,53,127
59299,note_off,136,0,0,,12,,,83,127
59435,note_on,136,0,0,,10,,,81,127
59503,note_off,68,0,0,,10,,,81,127
59503,note_on,0,0,0,,12,,,83,127
59571,note_off,68,0,0,,12,,,83,127
59571,note_on,0,0,0,,10,,,81,127
59639,note_off,68,0,0,,10,,,81,127
59639,note_on,0,0,0,,8,,,80,127
59707,note_off,68,0,0,,8,,,80,127
59707,note_on,0,0,0,,10,,,81,127
59841,note_off,134,0,0,,5,,,53,127
59842,note_on,1,0,0,,5,,,65,127
59976,note_off,134,0,0,,5,,,65,127
59976,note_off,0,0,0,,10,,,81,127
59977,note_on,1,0,0,,4,,,64,127
59977,note_on,0,0,0,,7,,,79,127
60111,note_off,134,0,0,,4,,,64,127
60112,note_on,1,0,0,,4,,,52,127
60246,note_off,134,0,0,,4,,,52,127
60247,note_on,1,0,0,,2,,,50,127
60383,note_off,136,0,0,,7,,,79,127
60519,note_on,136,0,0,,5,,,77,127
60587,note_off,68,0,0,,5,,,77,127
60587,note_on,0,0,0,,7,,,79,127
60655,note_off,68,0,0,,7,,,79,127
60655,note_on,0,0,0,,5,,,77,127
60723,note_off,68,0,0,,5,,,77,127
60723,note_on,0,0,0,,4,,,76,127
60791,note_off,68,0,0,,4,,,76,127
60791,note_on,0,0,0,,5,,,77,127
60925,note_off,134,0,0,,2,,,50,127
60926,note_on,1,0,0,,2,,,62,127
61060,note_off,134,0,0,,2,,,62,127
61060,note_off,0,0,0,,5,,,77,127
61061,note_on,1,0,0,,0,,,60,127
61061,note_on,0,0,0,,4,,,76,127
61195,note_off,134,0,0,,0,,,60,127
61196,note_on,1,0,0,,0,,,48,127
61330,note_off,134,0,0,,0,,,48,127
61331,note_on,1,0,0,,12,,,47,127
61467,note_off,136,0,0,,4,,,76,127
61603,note_on,136,0,0,,2,,,74,127
61671,note_off,68,0,0,,2,,,74,127
61671,note_on,0,0,0,,4,,,76,127
61739,note_off,68,0,0,,4,,,76,127
61739,note_on,0,0,0,,2,,,74,127
61807,note_off,68,0,0,,2,,,74,127
61807,note_on,0,0,0,,0,,,72,127
61875,note_off,68,0,0,,0,,,72,127
61875,note_on,0,0,0,,2,,,74,127
62009,note_off,134,0,0,,12,,,47,127
62010,note_on,1,0,0,,12,,,59,127
62144,note_off,134,0,0,,12,,,59,127
62144,note_off,0,0,0,,2,,,74,127
62145,note_on,1,0,0,,10,,,57,127
62145,note_on,0,0,0,,0,,,72,127
62279,note_off,134,0,0,,10,,,57,127
62280,note_on,1,0,0,,10,,,45,127
62414,note_off,134,0,0,,10,,,45,127
62415,note_on,1,0,0,,4,,,40,127
62549,note_off,134,0,0,,0,,,72,127
62550,note_on,1,0,0,,12,,,71,127
62684,note_off,134,0,0,,12,,,71,127
62684,note_off,0,0,0,,4,,,40,127
62685,note_on,1,0,0,,4,,,52,127
62685,note_on,0,0,0,,10,,,69,127
62819,note_off,134,0,0,,10,,,69,127
62820,note_on,1,0,0,,8,,,68,127
62954,note_off,134,0,0,,8,,,68,127
62954,note_off,0,0,0,,4,,,52,127
62955,note_on,1,0,0,,5,,,53,127
62955,note_on,0,0,0,,10,,,69,127
63089,note_off,134,0,0,,10,,,69,127
63090,note_on,1,0,0,,12,,,71,127
63224,note_off,134,0,0,,12,,,71,127
63224,note_off,0,0,0,,5,,,53,127
63225,note_on,1,0,0,,2,,,50,127
63225,note_on,0,0,0,,0,,,72,127
63359,note_off,134,0,0,,0,,,72,127
63360,note_on,1,0,0,,2,,,74,127
63494,note_off,134,0,0,,2,,,74,127
63494,note_off,0,0,0,,2,,,50,127
63495,note_on,1,0,0,,0,,,48,127
63495,note_on,0,0,0,,4,,,76,127
63631,note_on,136,0,0,,10,,,69,127
63699,note_off,68,0,0,,4,,,76,127
63765,note_off,66,0,0,,10,,,69,127
63765,note_off,0,0,0,,0,,,48,127
63766,note_on,1,0,0,,2,,,50,127
63766,note_on,0,0,0,,2,,,74,127
63900,note_off,134,0,0,,2,,,74,127
63901,note_on,1,0,0,,12,,,71,127
64035,note_off,134,0,0,,12,,,71,127
64035,note_off,0,0,0,,2,,,50,127
64036,note_on,1,0,0,,4,,,52,127
64036,note_on,0,0,0,,10,,,69,127
64036,note_on,0,0,0,,0,,,72,127
64306,note_off,270,0,0,,0,,,72,127
64306,note_off,0,0,0,,10,,,69,127
64306,note_off,0,0,0,,4,,,52,127
64307,note_on,1,0,0,,4,,,40,127
64307,note_on,0,0,0,,8,,,68,127
64307,note_on,0,0,0,,12,,,71,127
64363,note_off,56,0,0,,12,,,71,127
64363,note_on,0,0,0,,0,,,72,127
64419,note_off,56,0,0,,0,,,72,127
64419,note_on,0,0,0,,12,,,71,127
64475,note_off,56,0,0,,12,,,71,127
64475,note_on,0,0,0,,10,,,69,127
64531,note_off,56,0,0,,10,,,69,127
64531,note_on,0,0,0,,12,,,71,127
64575,note_off,44,0,0,,8,,,68,127
64575,note_off,0,0,0,,4,,,40,127
64576,note_on,1,0,0,,10,,,45,127
64576,note_on,0,0,0,,10,,,69,127
64586,note_off,10,0,0,,12,,,71,127
64846,note_off,260,0,0,,10,,,69,127
64847,note_on,1,0,0,,10,,,81,127
64981,note_off,134,0,0,,10,,,81,127
64982,note_on,1,0,0,,5,,,77,127
65116,note_off,134,0,0,,5,,,77,127
65116,note_off,0,0,0,,10,,,45,127
65117,note_on,1,0,0,,4,,,52,127
65117,note_on,0,0,0,,10,,,57,127
65117,note_on,0,0,0,,0,,,48,127
65117,note_on,0,0,0,,4,,,76,127
65387,note_off,270,0,0,,4,,,76,127
65388,note_on,1,0,0,,4,,,76,127
65658,note_off,270,0,0,,0,,,48,127
65658,note_off,0,0,0,,10,,,57,127
65658,note_off,0,0,0,,4,,,52,127
65659,note_on,1,0,0,,10,,,57,127
65659,note_on,0,0,0,,12,,,59,127
65659,note_on,0,0,0,,5,,,53,127
65659,note_on,0,0,0,,2,,,50,127
65929,note_off,270,0,0,,4,,,76,127
65930,note_on,1,0,0,,5,,,77,127
66064,note_off,134,0,0,,5,,,77,127
66065,note_on,1,0,0,,2,,,74,127
66199,note_off,134,0,0,,2,,,74,127
66199,note_off,0,0,0,,2,,,50,127
66199,note_off,0,0,0,,5,,,53,127
66199,note_off,0,0,0,,12,,,59,127
66199,note_off,0,0,0,,10,,,57,127
66200,note_on,1,0,0,,10,,,57,127
66200,note_on,0,0,0,,12,,,59,127
66200,note_on,0,0,0,,4,,,52,127
66200,note_on,0,0,0,,12,,,71,127
66470,note_off,270,0,0,,12,,,71,127
66471,note_on,1,0,0,,12,,,71,127
66741,note_off,270,0,0,,4,,,52,127
66741,note_off,0,0,0,,12,,,59,127
66741,note_off,0,0,0,,10,,,57,127
66742,note_on,1,0,0,,10,,,57,127
66742,note_on,0,0,0,,10,,,45,127
66742,note_on,0,0,0,,4,,,52,127
67012,note_off,270,0,0,,12,,,71,127
67013,note_on,1,0,0,,4,,,76,127
67147,note_off,134,0,0,,4,,,76,127
67148,note_on,1,0,0,,0,,,72,127
67282,note_off,134,0,0,,0,,,72,127
67282,note_off,0,0,0,,4,,,52,127
67282,note_off,0,0,0,,10,,,45,127
67282,note_off,0,0,0,,10,,,57,127
67283,note_on,1,0,0,,0,,,48,127
67283,note_on,0,0,0,,0,,,36,127
67283,note_on,0,0,0,,10,,,69,127
67553,note_off,270,0,0,,10,,,69,127
67554,note_on,1,0,0,,10,,,69,127
67824,note_off,270,0,0,,0,,,36,127
67824,note_off,0,0,0,,0,,,48,127
67825,note_on,1,0,0,,2,,,50,127
67825,note_on,0,0,0,,2,,,38,127
68095,note_off,270,0,0,,10,,,69,127
68096,note_on,1,0,0,,2,,,74,127
68230,note_off,134,0,0,,2,,,74,127
68231,note_on,1,0,0,,12,,,71,127
68365,note_off,134,0,0,,12,,,71,127
68365,note_off,0,0,0,,2,,,38,127
68365,note_off,0,0,0,,2,,,50,127
68366,note_on,1,0,0,,4,,,40,127
68366,note_on,0,0,0,,4,,,52,127
68366,note_on,0,0,0,,10,,,69,127
68636,note_off,270,0,0,,10,,,69,127
68637,note_on,1,0,0,,8,,,68,127
68705,note_off,68,0,0,,8,,,68,127
68705,note_on,0,0,0,,10,,,69,127
68773,note_off,68,0,0,,10,,,69,127
68773,note_on,0,0,0,,8,,,68,127
68907,note_off,134,0,0,,8,,,68,127
68907,note_off,0,0,0,,4,,,52,127
68907,note_off,0,0,0,,4,,,40,127
68908,note_on,1,0,0,,10,,,33,127
68908,note_on,0,0,0,,10,,,45,127
68908,note_on,0,0,0,,10,,,69,127
69178,note_off,270,0,0,,10,,,69,127
69179,note_on,1,0,0,,10,,,81,127
69313,note_off,134,0,0,,10,,,81,127
69314,note_on,1,0,0,,5,,,77,127
69448,note_off,134,0,0,,5,,,77,127
69448,note_off,0,0,0,,10,,,45,127
69448,note_off,0,0,0,,10,,,33,127
69449,note_on,1,0,0,,10,,,57,127
69449,note_on,0,0,0,,4,,,52,127
69449,note_on,0,0,0,,0,,,48,127
69449,note_on,0,0,0,,4,,,76,127
69719,note_off,270,0,0,,4,,,76,127
69720,note_on,1,0,0,,4,,,76,127
69990,note_off,270,0,0,,0,,,48,127
69990,note_off,0,0,0,,4,,,52,127
69990,note_off,0,0,0,,10,,,57,127
69991,note_on,1,0,0,,12,,,59,127
69991,note_on,0,0,0,,10,,,57,127
69991,note_on,0,0,0,,5,,,53,127
69991,note_on,0,0,0,,2,,,50,127
70127,note_off,136,0,0,,4,,,76,127
70263,note_on,136,0,0,,5,,,77,127
70397,note_off,134,0,0,,5,,,77,127
70398,note_on,1,0,0,,2,,,74,127
70532,note_off,134,0,0,,2,,,74,127
70532,note_off,0,0,0,,2,,,50,127
70532,note_off,0,0,0,,5,,,53,127
70532,note_off,0,0,0,,10,,,57,127
70532,note_off,0,0,0,,12,,,59,127
70533,note_on,1,0,0,,12,,,59,127
70533,note_on,0,0,0,,10,,,57,127
70533,note_on,0,0,0,,4,,,52,127
70533,note_on,0,0,0,,12,,,71,127
70803,note_off,270,0,0,,12,,,71,127
70804,note_on,1,0,0,,12,,,71,127
71074,note_off,270,0,0,,4,,,52,127
71074,note_off,0,0,0,,10,,,57,127
71074,note_off,0,0,0,,12,,,59,127
71075,note_on,1,0,0,,10,,,57,127
71075,note_on,0,0,0,,4,,,52,127
71075,note_on,0,0,0,,10,,,45,127
71242,note_off,167,0,0,,12,,,71,127
71346,note_on,104,0,0,,4,,,76,127
71480,note_off,134,0,0,,4,,,76,127
71481,note_on,1,0,0,,0,,,72,127
71615,note_off,134,0,0,,0,,,72,127
71615,note_off,0,0,0,,10,,,45,127
71615,note_off,0,0,0,,4,,,52,127
71615,note_off,0,0,0,,10,,,57,127
71616,note_on,1,0,0,,0,,,48,127
71616,note_on,0,0,0,,0,,,36,127
71616,note_on,0,0,0,,10,,,69,127
71886,note_off,270,0,0,,10,,,69,127
71887,note_on,1,0,0,,10,,,69,127
72157,note_off,270,0,0,,0,,,36,127
72157,note_off,0,0,0,,0,,,48,127
72158,note_on,1,0,0,,2,,,50,127
72158,note_on,0,0,0,,2,,,38,127
72395,note_off,237,0,0,,10,,,69,127
72429,note_on,34,0,0,,2,,,74,127
72563,note_off,134,0,0,,2,,,74,127
72564,note_on,1,0,0,,12,,,71,127
72698,note_off,134,0,0,,12,,,71,127
72698,note_off,0,0,0,,2,,,38,127
72698,note_off,0,0,0,,2,,,50,127
72699,note_on,1,0,0,,4,,,52,127
72699,note_on,0,0,0,,4,,,40,127
72699,note_on,0,0,0,,10,,,69,127
72969,note_off,270,0,0,,10,,,69,127
72970,note_on,1,0,0,,10,,,69,127
73015,note_on,45,0,0,,8,,,68,127
73038,note_off,23,0,0,,10,,,69,127
73061,note_on,23,0,0,,10,,,69,127
73084,note_off,23,0,0,,8,,,68,127
73107,note_on,23,0,0,,8,,,68,127
73130,note_off,23,0,0,,10,,,69,127
73242,note_off,112,0,0,,8,,,68,127
73242,note_off,0,0,0,,4,,,40,127
73242,note_off,0,0,0,,4,,,52,127
73243,note_on,1,0,0,,10,,,33,127
73243,note_on,0,0,0,,10,,,45,127
73243,note_on,0,0,0,,10,,,69,127
74055,note_off,812,0,0,,10,,,69,127
74189,note_off,134,0,0,,10,,,45,127
74189,note_off,0,0,0,,10,,,33,127
74869,note_on,680,0,0,,10,,,57,127
74869,note_on,0,0,0,,4,,,52,127
74869,note_on,0,0,0,,10,,,45,127
74869,note_on,0,0,0,,10,,,81,127
74869,note_on,0,0,0,,10,,,69,127
74869,note_on,0,0,0,,1,,,73,127
75139,note_off,270,0,0,,1,,,73,127
75140,note_on,1,0,0,,1,,,73,127
75274,note_off,134,0,0,,1,,,73,127
75275,note_on,1,0,0,,1,,,73,127
75409,note_off,134,0,0,,1,,,73,127
75410,note_on,1,0,0,,1,,,73,127
75544,note_off,134,0,0,,10,,,45,127
75544,note_off,0,0,0,,4,,,52,127
75544,note_off,0,0,0,,10,,,57,127
75545,note_on,1,0,0,,10,,,57,127
75679,note_off,134,0,0,,10,,,57,127
75679,note_off,0,0,0,,1,,,73,127
75680,note_on,1,0,0,,7,,,55,127
75680,note_on,0,0,0,,2,,,74,127
75814,note_off,134,0,0,,7,,,55,127
75815,note_on,1,0,0,,6,,,54,127
75949,note_off,134,0,0,,6,,,54,127
75949,note_off,0,0,0,,2,,,74,127
75949,note_off,0,0,0,,10,,,69,127
75949,note_off,0,0,0,,10,,,81,127
75950,note_on,1,0,0,,4,,,52,127
75950,note_on,0,0,0,,4,,,76,127
76084,note_off,134,0,0,,4,,,52,127
76085,note_on,1,0,0,,2,,,50,127
76219,note_off,134,0,0,,2,,,50,127
76219,note_off,0,0,0,,4,,,76,127
76220,note_on,1,0,0,,1,,,49,127
76220,note_on,0,0,0,,6,,,78,127
76354,note_off,134,0,0,,6,,,78,127
76354,note_off,0,0,0,,1,,,49,127
76355,note_on,1,0,0,,12,,,47,127
76355,note_on,0,0,0,,7,,,79,127
76489,note_off,134,0,0,,7,,,79,127
76489,note_off,0,0,0,,12,,,47,127
76490,note_on,1,0,0,,10,,,45,127
76490,note_on,0,0,0,,10,,,81,127
76624,note_off,134,0,0,,10,,,45,127
76625,note_on,1,0,0,,7,,,43,127
76759,note_off,134,0,0,,7,,,43,127
76759,note_off,0,0,0,,10,,,81,127
76760,note_on,1,0,0,,6,,,42,127
76760,note_on,0,0,0,,12,,,83,127
76894,note_off,134,0,0,,12,,,83,127
76894,note_off,0,0,0,,6,,,42,127
76895,note_on,1,0,0,,4,,,40,127
76895,note_on,0,0,0,,1,,,85,127
77029,note_off,134,0,0,,1,,,85,127
77029,note_off,0,0,0,,4,,,40,127
77030,note_on,1,0,0,,2,,,38,127
77030,note_on,0,0,0,,1,,,85,127
77300,note_off,270,0,0,,1,,,85,127
77301,note_on,1,0,0,,2,,,86,127
77976,note_off,675,0,0,,2,,,38,127
77979,note_off,3,0,0,,2,,,86,127
78386,note_on,407,0,0,,12,,,59,127
78386,note_on,0,0,0,,12,,,47,127
78386,note_on,0,0,0,,6,,,54,127
78386,note_on,0,0,0,,12,,,71,127
78386,note_on,0,0,0,,12,,,83,127
78386,note_on,0,0,0,,3,,,75,127
78656,note_off,270,0,0,,3,,,75,127
78657,note_on,1,0,0,,3,,,75,127
78791,note_off,134,0,0,,3,,,75,127
78792,note_on,1,0,0,,3,,,75,127
78926,note_off,134,0,0,,3,,,75,127
78927,note_on,1,0,0,,3,,,75,127
79061,note_off,134,0,0,,6,,,54,127
79061,note_off,0,0,0,,12,,,47,127
79061,note_off,0,0,0,,12,,,59,127
79062,note_on,1,0,0,,12,,,59,127
79196,note_off,134,0,0,,12,,,59,127
79196,note_off,0,0,0,,3,,,75,127
79197,note_on,1,0,0,,10,,,57,127
79197,note_on,0,0,0,,4,,,76,127
79331,note_off,134,0,0,,10,,,57,127
79332,note_on,1,0,0,,8,,,56,127
79466,note_off,134,0,0,,8,,,56,127
79466,note_off,0,0,0,,4,,,76,127
79466,note_off,0,0,0,,12,,,83,127
79466,note_off,0,0,0,,12,,,71,127
79467,note_on,1,0,0,,6,,,54,127
79467,note_on,0,0,0,,6,,,78,127
79601,note_off,134,0,0,,6,,,54,127
79602,note_on,1,0,0,,4,,,52,127
79736,note_off,134,0,0,,4,,,52,127
79736,note_off,0,0,0,,6,,,78,127
79737,note_on,1,0,0,,3,,,51,127
79737,note_on,0,0,0,,8,,,80,127
79871,note_off,134,0,0,,8,,,80,127
79871,note_off,0,0,0,,3,,,51,127
79872,note_on,1,0,0,,1,,,49,127
79872,note_on,0,0,0,,10,,,81,127
80006,note_off,134,0,0,,10,,,81,127
80006,note_off,0,0,0,,1,,,49,127
80007,note_on,1,0,0,,12,,,47,127
80007,note_on,0,0,0,,12,,,83,127
80141,note_off,134,0,0,,12,,,47,127
80142,note_on,1,0,0,,10,,,45,127
80276,note_off,134,0,0,,10,,,45,127
80276,note_off,0,0,0,,12,,,83,127
80277,note_on,1,0,0,,8,,,44,127
80277,note_on,0,0,0,,1,,,85,127
80411,note_off,134,0,0,,1,,,85,127
80411,note_off,0,0,0,,8,,,44,127
80412,note_on,1,0,0,,6,,,42,127
80412,note_on,0,0,0,,3,,,87,127
80546,note_off,134,0,0,,3,,,87,127
80546,note_off,0,0,0,,6,,,42,127
80547,note_on,1,0,0,,4,,,40,127
80547,note_on,0,0,0,,3,,,87,127
80817,note_off,270,0,0,,3,,,87,127
80818,note_on,1,0,0,,4,,,88,127
81630,note_off,812,0,0,,4,,,88,127
81630,note_off,0,0,0,,4,,,40,127
81902,note_on,272,0,0,,8,,,56,127
81902,note_on,0,0,0,,1,,,61,127
81902,note_on,0,0,0,,1,,,49,127
81902,note_on,0,0,0,,1,,,85,127
81902,note_on,0,0,0,,1,,,73,127
81902,note_on,0,0,0,,5,,,77,127
82172,note_off,270,0,0,,5,,,77,127
82173,note_on,1,0,0,,5,,,77,127
82307,note_off,134,0,0,,5,,,77,127
82308,note_on,1,0,0,,5,,,77,127
82442,note_off,134,0,0,,5,,,77,127
82443,note_on,1,0,0,,5,,,77,127
82577,note_off,134,0,0,,1,,,49,127
82577,note_off,0,0,0,,1,,,61,127
82577,note_off,0,0,0,,8,,,56,127
82578,note_on,1,0,0,,1,,,61,127
82712,note_off,134,0,0,,1,,,61,127
82712,note_off,0,0,0,,5,,,77,127
82713,note_on,1,0,0,,12,,,59,127
82713,note_on,0,0,0,,6,,,78,127
82847,note_off,134,0,0,,12,,,59,127
82848,note_on,1,0,0,,11,,,58,127
82982,note_off,134,0,0,,11,,,58,127
82982,note_off,0,0,0,,6,,,78,127
82982,note_off,0,0,0,,1,,,73,127
82982,note_off,0,0,0,,1,,,85,127
82983,note_on,1,0,0,,8,,,56,127
82983,note_on,0,0,0,,8,,,80,127
83117,note_off,134,0,0,,8,,,56,127
83118,note_on,1,0,0,,6,,,54,127
83252,note_off,134,0,0,,6,,,54,127
83252,note_off,0,0,0,,8,,,80,127
83253,note_on,1,0,0,,5,,,53,127
83253,note_on,0,0,0,,11,,,82,127
83387,note_off,134,0,0,,11,,,82,127
83387,note_off,0,0,0,,5,,,53,127
83388,note_on,1,0,0,,3,,,51,127
83388,note_on,0,0,0,,0,,,84,127
83522,note_off,134,0,0,,0,,,84,127
83522,note_off,0,0,0,,3,,,51,127
83523,note_on,1,0,0,,1,,,49,127
83523,note_on,0,0,0,,1,,,85,127
83657,note_off,134,0,0,,1,,,49,127
83658,note_on,1,0,0,,12,,,47,127
83792,note_off,134,0,0,,12,,,47,127
83792,note_off,0,0,0,,1,,,85,127
83793,note_on,1,0,0,,11,,,46,127
83793,note_on,0,0,0,,3,,,87,127
83927,note_off,134,0,0,,3,,,87,127
83927,note_off,0,0,0,,11,,,46,127
83928,note_on,1,0,0,,8,,,44,127
83928,note_on,0,0,0,,5,,,89,127
84062,note_off,134,0,0,,5,,,89,127
84062,note_off,0,0,0,,8,,,44,127
84063,note_on,1,0,0,,6,,,42,127
84063,note_on,0,0,0,,5,,,89,127
84333,note_off,270,0,0,,5,,,89,127
84334,note_on,1,0,0,,6,,,90,127
85146,note_off,812,0,0,,6,,,90,127
85146,note_off,0,0,0,,6,,,42,127
85690,note_on,544,0,0,,2,,,62,127
85690,note_on,0,0,0,,6,,,54,127
85690,note_on,0,0,0,,6,,,66,127
85960,note_off,270,0,0,,6,,,54,127
85960,note_off,0,0,0,,2,,,62,127
85961,note_on,1,0,0,,2,,,62,127
85961,note_on,0,0,0,,6,,,54,127
85961,note_on,0,0,0,,6,,,78,127
86231,note_off,270,0,0,,6,,,54,127
86231,note_off,0,0,0,,2,,,62,127
86232,note_on,1,0,0,,2,,,62,127
86232,note_on,0,0,0,,6,,,54,127
86502,note_off,270,0,0,,6,,,54,127
86502,note_off,0,0,0,,2,,,62,127
86502,note_off,0,0,0,,6,,,66,127
86503,note_on,1,0,0,,2,,,62,127
86503,note_on,0,0,0,,6,,,54,127
86503,note_on,0,0,0,,6,,,66,127
86773,note_off,270,0,0,,6,,,66,127
86773,note_off,0,0,0,,6,,,54,127
86773,note_off,0,0,0,,2,,,62,127
86774,note_on,1,0,0,,1,,,61,127
86774,note_on,0,0,0,,4,,,64,127
86774,note_on,0,0,0,,6,,,54,127
86774,note_on,0,0,0,,7,,,67,127
87044,note_off,270,0,0,,6,,,54,127
87044,note_off,0,0,0,,4,,,64,127
87044,note_off,0,0,0,,1,,,61,127
87044,note_off,0,0,0,,6,,,78,127
87045,note_on,1,0,0,,4,,,64,127
87045,note_on,0,0,0,,1,,,61,127
87045,note_on,0,0,0,,6,,,54,127
87045,note_on,0,0,0,,10,,,81,127
87179,note_off,134,0,0,,10,,,81,127
87180,note_on,1,0,0,,7,,,79,127
87314,note_off,134,0,0,,6,,,54,127
87314,note_off,0,0,0,,1,,,61,127
87314,note_off,0,0,0,,4,,,64,127
87315,note_on,1,0,0,,4,,,64,127
87315,note_on,0,0,0,,1,,,61,127
87315,note_on,0,0,0,,6,,,54,127
87585,note_off,270,0,0,,6,,,54,127
87585,note_off,0,0,0,,1,,,61,127
87585,note_off,0,0,0,,4,,,64,127
87585,note_off,0,0,0,,7,,,79,127
87586,note_on,1,0,0,,4,,,64,127
87586,note_on,0,0,0,,1,,,61,127
87586,note_on,0,0,0,,6,,,54,127
87586,note_on,0,0,0,,6,,,78,127
87720,note_off,134,0,0,,6,,,78,127
87721,note_on,1,0,0,,4,,,76,127
87855,note_off,134,0,0,,6,,,54,127
87855,note_off,0,0,0,,1,,,61,127
87855,note_off,0,0,0,,4,,,64,127
87855,note_off,0,0,0,,7,,,67,127
87856,note_on,1,0,0,,1,,,61,127
87856,note_on,0,0,0,,4,,,64,127
87856,note_on,0,0,0,,6,,,54,127
87856,note_on,0,0,0,,7,,,67,127
88126,note_off,270,0,0,,6,,,54,127
88126,note_off,0,0,0,,4,,,64,127
88126,note_off,0,0,0,,1,,,61,127
88126,note_off,0,0,0,,4,,,76,127
88127,note_on,1,0,0,,4,,,64,127
88127,note_on,0,0,0,,1,,,61,127
88127,note_on,0,0,0,,6,,,54,127
88127,note_on,0,0,0,,2,,,74,127
88261,note_off,134,0,0,,2,,,74,127
88262,note_on,1,0,0,,1,,,73,127
88396,note_off,134,0,0,,6,,,54,127
88396,note_off,0,0,0,,1,,,61,127
88396,note_off,0,0,0,,4,,,64,127
88397,note_on,1,0,0,,4,,,64,127
88397,note_on,0,0,0,,1,,,61,127
88397,note_on,0,0,0,,6,,,54,127
88667,note_off,270,0,0,,6,,,54,127
88667,note_off,0,0,0,,1,,,61,127
88667,note_off,0,0,0,,4,,,64,127
88667,note_off,0,0,0,,1,,,73,127
88668,note_on,1,0,0,,4,,,64,127
88668,note_on,0,0,0,,6,,,54,127
88668,note_on,0,0,0,,1,,,61,127
88668,note_on,0,0,0,,12,,,71,127
88802,note_off,134,0,0,,12,,,71,127
88803,note_on,1,0,0,,11,,,70,127
88937,note_off,134,0,0,,1,,,61,127
88937,note_off,0,0,0,,6,,,54,127
88937,note_off,0,0,0,,4,,,64,127
88937,note_off,0,0,0,,7,,,67,127
88938,note_on,1,0,0,,4,,,64,127
88938,note_on,0,0,0,,1,,,61,127
88938,note_on,0,0,0,,7,,,55,127
88938,note_on,0,0,0,,12,,,59,127
89208,note_off,270,0,0,,11,,,70,127
89209,note_on,1,0,0,,12,,,71,127
89884,note_off,675,0,0,,4,,,64,127
89887,note_off,3,0,0,,12,,,71,127
90021,note_off,134,0,0,,12,,,59,127
90021,note_off,0,0,0,,7,,,55,127
90021,note_off,0,0,0,,1,,,61,127
90022,note_on,1,0,0,,4,,,64,127
90022,note_on,0,0,0,,2,,,62,127
90022,note_on,0,0,0,,8,,,56,127
90022,note_on,0,0,0,,12,,,71,127
90292,note_off,270,0,0,,8,,,56,127
90292,note_off,0,0,0,,2,,,62,127
90292,note_off,0,0,0,,4,,,64,127
90293,note_on,1,0,0,,4,,,64,127
90293,note_on,0,0,0,,2,,,62,127
90293,note_on,0,0,0,,8,,,56,127
90293,note_on,0,0,0,,12,,,83,127
90563,note_off,270,0,0,,8,,,56,127
90563,note_off,0,0,0,,2,,,62,127
90563,note_off,0,0,0,,4,,,64,127
90564,note_on,1,0,0,,4,,,64,127
90564,note_on,0,0,0,,2,,,62,127
90564,note_on,0,0,0,,8,,,56,127
90834,note_off,270,0,0,,8,,,56,127
90834,note_off,0,0,0,,2,,,62,127
90834,note_off,0,0,0,,4,,,64,127
90834,note_off,0,0,0,,12,,,71,127
90835,note_on,1,0,0,,4,,,64,127
90835,note_on,0,0,0,,2,,,62,127
90835,note_on,0,0,0,,8,,,56,127
90835,note_on,0,0,0,,12,,,71,127
91105,note_off,270,0,0,,8,,,56,127
91105,note_off,0,0,0,,2,,,62,127
91105,note_off,0,0,0,,4,,,64,127
91106,note_on,1,0,0,,5,,,65,127
91106,note_on,0,0,0,,2,,,62,127
91106,note_on,0,0,0,,10,,,57,127
91376,note_off,270,0,0,,10,,,57,127
91376,note_off,0,0,0,,2,,,62,127
91376,note_off,0,0,0,,5,,,65,127
91376,note_off,0,0,0,,12,,,71,127
91377,note_on,1,0,0,,2,,,62,127
91377,note_on,0,0,0,,5,,,65,127
91377,note_on,0,0,0,,10,,,57,127
91377,note_on,0,0,0,,0,,,72,127
91647,note_off,270,0,0,,0,,,72,127
91647,note_off,0,0,0,,10,,,57,127
91647,note_off,0,0,0,,5,,,65,127
91647,note_off,0,0,0,,2,,,62,127
91647,note_off,0,0,0,,12,,,83,127
91648,note_on,1,0,0,,5,,,65,127
91648,note_on,0,0,0,,10,,,57,127
91648,note_on,0,0,0,,2,,,62,127
91648,note_on,0,0,0,,2,,,74,127
91918,note_off,270,0,0,,2,,,74,127
91918,note_off,0,0,0,,2,,,62,127
91918,note_off,0,0,0,,10,,,57,127
91918,note_off,0,0,0,,5,,,65,127
91919,note_on,1,0,0,,5,,,65,127
91919,note_on,0,0,0,,2,,,62,127
91919,note_on,0,0,0,,10,,,57,127
91919,note_on,0,0,0,,4,,,76,127
92189,note_off,270,0,0,,4,,,76,127
92189,note_off,0,0,0,,10,,,57,127
92189,note_off,0,0,0,,2,,,62,127
92189,note_off,0,0,0,,5,,,65,127
92190,note_on,1,0,0,,8,,,68,127
92190,note_on,0,0,0,,4,,,64,127
92190,note_on,0,0,0,,2,,,62,127
92190,note_on,0,0,0,,12,,,59,127
92190,note_on,0,0,0,,5,,,77,127
92460,note_off,270,0,0,,5,,,77,127
92460,note_off,0,0,0,,12,,,59,127
92460,note_off,0,0,0,,2,,,62,127
92460,note_off,0,0,0,,4,,,64,127
92460,note_off,0,0,0,,8,,,68,127
92461,note_on,1,0,0,,8,,,68,127
92461,note_on,0,0,0,,4,,,64,127
92461,note_on,0,0,0,,2,,,62,127
92461,note_on,0,0,0,,12,,,59,127
92461,note_on,0,0,0,,4,,,76,127
92595,note_off,134,0,0,,4,,,76,127
92596,note_on,1,0,0,,2,,,74,127
92730,note_off,134,0,0,,2,,,74,127
92730,note_off,0,0,0,,12,,,59,127
92730,note_off,0,0,0,,2,,,62,127
92730,note_off,0,0,0,,4,,,64,127
92730,note_off,0,0,0,,8,,,68,127
92731,note_on,1,0,0,,8,,,68,127
92731,note_on,0,0,0,,4,,,64,127
92731,note_on,0,0,0,,2,,,62,127
92731,note_on,0,0,0,,12,,,59,127
92731,note_on,0,0,0,,12,,,71,127
93001,note_off,270,0,0,,12,,,71,127
93001,note_off,0,0,0,,12,,,59,127
93001,note_off,0,0,0,,2,,,62,127
93001,note_off,0,0,0,,4,,,64,127
93001,note_off,0,0,0,,8,,,68,127
93002,note_on,1,0,0,,4,,,64,127
93002,note_on,0,0,0,,2,,,62,127
93002,note_on,0,0,0,,12,,,59,127
93002,note_on,0,0,0,,8,,,68,127
93272,note_off,270,0,0,,12,,,59,127
93272,note_off,0,0,0,,2,,,62,127
93272,note_off,0,0,0,,4,,,64,127
93273,note_on,1,0,0,,0,,,60,127
93273,note_on,0,0,0,,4,,,64,127
93543,note_off,270,0,0,,8,,,68,127
93544,note_on,1,0,0,,10,,,69,127
94222,note_off,678,0,0,,10,,,69,127
94356,note_off,134,0,0,,4,,,64,127
94356,note_off,0,0,0,,0,,,60,127
94357,note_on,1,0,0,,10,,,57,127
94357,note_on,0,0,0,,1,,,49,127
94357,note_on,0,0,0,,7,,,55,127
94357,note_on,0,0,0,,10,,,69,127
94627,note_off,270,0,0,,7,,,55,127
94627,note_off,0,0,0,,1,,,49,127
94627,note_off,0,0,0,,10,,,57,127
94628,note_on,1,0,0,,10,,,57,127
94628,note_on,0,0,0,,7,,,55,127
94628,note_on,0,0,0,,1,,,49,127
94628,note_on,0,0,0,,10,,,81,127
94898,note_off,270,0,0,,1,,,49,127
94898,note_off,0,0,0,,7,,,55,127
94898,note_off,0,0,0,,10,,,57,127
94899,note_on,1,0,0,,10,,,57,127
94899,note_on,0,0,0,,7,,,55,127
94899,note_on,0,0,0,,1,,,49,127
95169,note_off,270,0,0,,1,,,49,127
95169,note_off,0,0,0,,7,,,55,127
95169,note_off,0,0,0,,10,,,57,127
95169,note_off,0,0,0,,10,,,69,127
95170,note_on,1,0,0,,10,,,57,127
95170,note_on,0,0,0,,7,,,55,127
95170,note_on,0,0,0,,1,,,49,127
95170,note_on,0,0,0,,10,,,69,127
95440,note_off,270,0,0,,10,,,69,127
95440,note_off,0,0,0,,1,,,49,127
95440,note_off,0,0,0,,7,,,55,127
95440,note_off,0,0,0,,10,,,57,127
95441,note_on,1,0,0,,11,,,58,127
95441,note_on,0,0,0,,2,,,50,127
95441,note_on,0,0,0,,7,,,55,127
95441,note_on,0,0,0,,11,,,70,127
95711,note_off,270,0,0,,7,,,55,127
95711,note_off,0,0,0,,2,,,50,127
95711,note_off,0,0,0,,11,,,58,127
95711,note_off,0,0,0,,10,,,81,127
95712,note_on,1,0,0,,11,,,58,127
95712,note_on,0,0,0,,7,,,55,127
95712,note_on,0,0,0,,2,,,50,127
95712,note_on,0,0,0,,10,,,81,127
95982,note_off,270,0,0,,2,,,50,127
95982,note_off,0,0,0,,7,,,55,127
95982,note_off,0,0,0,,11,,,58,127
95983,note_on,1,0,0,,11,,,58,127
95983,note_on,0,0,0,,7,,,55,127
95983,note_on,0,0,0,,2,,,50,127
96253,note_off,270,0,0,,2,,,50,127
96253,note_off,0,0,0,,7,,,55,127
96253,note_off,0,0,0,,11,,,58,127
96253,note_off,0,0,0,,10,,,81,127
96254,note_on,1,0,0,,11,,,58,127
96254,note_on,0,0,0,,7,,,55,127
96254,note_on,0,0,0,,2,,,50,127
96254,note_on,0,0,0,,7,,,79,127
96524,note_off,270,0,0,,2,,,50,127
96524,note_off,0,0,0,,7,,,55,127
96524,note_off,0,0,0,,11,,,58,127
96524,note_off,0,0,0,,11,,,70,127
96525,note_on,1,0,0,,11,,,58,127
96525,note_on,0,0,0,,7,,,55,127
96525,note_on,0,0,0,,5,,,53,127
96525,note_on,0,0,0,,2,,,50,127
96795,note_off,270,0,0,,2,,,50,127
96795,note_off,0,0,0,,5,,,53,127
96795,note_off,0,0,0,,7,,,55,127
96795,note_off,0,0,0,,11,,,58,127
96795,note_off,0,0,0,,7,,,79,127
96796,note_on,1,0,0,,11,,,58,127
96796,note_on,0,0,0,,7,,,55,127
96796,note_on,0,0,0,,5,,,53,127
96796,note_on,0,0,0,,2,,,50,127
96796,note_on,0,0,0,,5,,,77,127
97066,note_off,270,0,0,,5,,,77,127
97066,note_off,0,0,0,,2,,,50,127
97066,note_off,0,0,0,,5,,,53,127
97066,note_off,0,0,0,,7,,,55,127
97066,note_off,0,0,0,,11,,,58,127
97067,note_on,1,0,0,,11,,,58,127
97067,note_on,0,0,0,,7,,,55,127
97067,note_on,0,0,0,,5,,,53,127
97067,note_on,0,0,0,,2,,,50,127
97067,note_on,0,0,0,,7,,,79,127
97121,note_on,54,0,0,,5,,,77,127
97135,note_off,14,0,0,,7,,,79,127
97175,note_on,40,0,0,,7,,,79,127
97189,note_off,14,0,0,,5,,,77,127
97229,note_on,40,0,0,,5,,,77,127
97243,note_off,14,0,0,,7,,,79,127
97283,note_on,40,0,0,,7,,,79,127
97297,note_off,14,0,0,,5,,,77,127
97337,note_on,40,0,0,,5,,,77,127
97338,note_off,1,0,0,,2,,,50,127
97338,note_off,0,0,0,,5,,,53,127
97338,note_off,0,0,0,,7,,,55,127
97338,note_off,0,0,0,,11,,,58,127
97339,note_on,1,0,0,,11,,,58,127
97339,note_on,0,0,0,,5,,,53,127
97339,note_on,0,0,0,,7,,,55,127
97339,note_on,0,0,0,,2,,,50,127
97350,note_off,11,0,0,,7,,,79,127
97390,note_on,40,0,0,,7,,,79,127
97404,note_off,14,0,0,,5,,,77,127
97444,note_on,40,0,0,,5,,,77,127
97458,note_off,14,0,0,,7,,,79,127
97498,note_on,40,0,0,,4,,,76,127
97511,note_off,13,0,0,,5,,,77,127
97552,note_on,41,0,0,,5,,,77,127
97566,note_off,14,0,0,,4,,,76,127
97610,note_off,44,0,0,,2,,,50,127
97610,note_off,0,0,0,,7,,,55,127
97610,note_off,0,0,0,,5,,,53,127
97610,note_off,0,0,0,,11,,,58,127
97611,note_on,1,0,0,,11,,,58,127
97611,note_on,0,0,0,,7,,,55,127
97611,note_on,0,0,0,,0,,,48,127
97611,note_on,0,0,0,,5,,,53,127
97611,note_on,0,0,0,,11,,,70,127
97881,note_off,270,0,0,,5,,,53,127
97881,note_off,0,0,0,,0,,,48,127
97881,note_off,0,0,0,,7,,,55,127
97881,note_off,0,0,0,,11,,,58,127
97882,note_on,1,0,0,,11,,,58,127
97882,note_on,0,0,0,,7,,,55,127
97882,note_on,0,0,0,,0,,,48,127
97882,note_on,0,0,0,,5,,,53,127
97882,note_on,0,0,0,,4,,,76,127
97890,note_off,8,0,0,,5,,,77,127
98151,note_off,261,0,0,,5,,,53,127
98151,note_off,0,0,0,,0,,,48,127
98151,note_off,0,0,0,,7,,,55,127
98151,note_off,0,0,0,,11,,,58,127
98152,note_on,1,0,0,,7,,,55,127
98152,note_on,0,0,0,,11,,,58,127
98152,note_on,0,0,0,,5,,,53,127
98152,note_on,0,0,0,,0,,,48,127
98422,note_off,270,0,0,,0,,,48,127
98422,note_off,0,0,0,,5,,,53,127
98422,note_off,0,0,0,,11,,,58,127
98422,note_off,0,0,0,,7,,,55,127
98423,note_on,1,0,0,,11,,,58,127
98423,note_on,0,0,0,,7,,,55,127
98423,note_on,0,0,0,,0,,,48,127
98423,note_on,0,0,0,,5,,,53,127
98559,note_off,136,0,0,,4,,,76,127
98693,note_off,134,0,0,,5,,,53,127
98693,note_off,0,0,0,,0,,,48,127
98693,note_off,0,0,0,,7,,,55,127
98693,note_off,0,0,0,,11,,,58,127
98693,note_off,0,0,0,,11,,,70,127
98694,note_on,1,0,0,,10,,,57,127
98694,note_on,0,0,0,,0,,,48,127
98694,note_on,0,0,0,,5,,,53,127
98694,note_on,0,0,0,,10,,,69,127
98694,note_on,0,0,0,,7,,,79,127
98748,note_on,54,0,0,,5,,,77,127
98762,note_off,14,0,0,,7,,,79,127
98802,note_on,40,0,0,,7,,,79,127
98816,note_off,14,0,0,,5,,,77,127
98856,note_on,40,0,0,,5,,,77,127
98870,note_off,14,0,0,,7,,,79,127
98910,note_on,40,0,0,,7,,,79,127
98924,note_off,14,0,0,,5,,,77,127
98964,note_on,40,0,0,,5,,,77,127
98965,note_off,1,0,0,,5,,,53,127
98965,note_off,0,0,0,,0,,,48,127
98965,note_off,0,0,0,,10,,,57,127
98966,note_on,1,0,0,,10,,,57,127
98966,note_on,0,0,0,,5,,,53,127
98966,note_on,0,0,0,,0,,,48,127
98977,note_off,11,0,0,,7,,,79,127
99017,note_on,40,0,0,,7,,,79,127
99031,note_off,14,0,0,,5,,,77,127
99071,note_on,40,0,0,,5,,,77,127
99085,note_off,14,0,0,,7,,,79,127
99125,note_on,40,0,0,,4,,,76,127
99139,note_off,14,0,0,,5,,,77,127
99179,note_on,40,0,0,,5,,,77,127
99193,note_off,14,0,0,,4,,,76,127
99237,note_off,44,0,0,,0,,,48,127
99237,note_off,0,0,0,,5,,,53,127
99237,note_off,0,0,0,,10,,,57,127
99237,note_off,0,0,0,,10,,,69,127
99238,note_on,1,0,0,,12,,,59,127
99238,note_on,0,0,0,,7,,,55,127
99238,note_on,0,0,0,,0,,,48,127
99238,note_on,0,0,0,,5,,,53,127
99238,note_on,0,0,0,,7,,,67,127
99238,note_on,0,0,0,,7,,,79,127
99241,note_off,3,0,0,,5,,,77,127
99292,note_on,51,0,0,,5,,,77,127
99306,note_off,14,0,0,,7,,,79,127
99346,note_on,40,0,0,,7,,,79,127
99360,note_off,14,0,0,,5,,,77,127
99400,note_on,40,0,0,,5,,,77,127
99414,note_off,14,0,0,,7,,,79,127
99454,note_on,40,0,0,,7,,,79,127
99468,note_off,14,0,0,,5,,,77,127
99508,note_on,40,0,0,,5,,,77,127
99509,note_off,1,0,0,,5,,,53,127
99509,note_off,0,0,0,,0,,,48,127
99509,note_off,0,0,0,,7,,,55,127
99509,note_off,0,0,0,,12,,,59,127
99510,note_on,1,0,0,,12,,,59,127
99510,note_on,0,0,0,,7,,,55,127
99510,note_on,0,0,0,,5,,,53,127
99510,note_on,0,0,0,,0,,,48,127
99521,note_off,11,0,0,,7,,,79,127
99561,note_on,40,0,0,,7,,,79,127
99575,note_off,14,0,0,,5,,,77,127
99615,note_on,40,0,0,,5,,,77,127
99629,note_off,14,0,0,,7,,,79,127
99669,note_on,40,0,0,,4,,,76,127
99683,note_off,14,0,0,,5,,,77,127
99723,note_on,40,0,0,,5,,,77,127
99737,note_off,14,0,0,,4,,,76,127
99781,note_off,44,0,0,,0,,,48,127
99781,note_off,0,0,0,,5,,,53,127
99781,note_off,0,0,0,,7,,,55,127
99781,note_off,0,0,0,,12,,,59,127
99781,note_off,0,0,0,,7,,,67,127
99782,note_on,1,0,0,,0,,,60,127
99782,note_on,0,0,0,,4,,,52,127
99782,note_on,0,0,0,,7,,,55,127
99782,note_on,0,0,0,,0,,,48,127
99782,note_on,0,0,0,,7,,,67,127
100052,note_off,270,0,0,,0,,,48,127
100052,note_off,0,0,0,,7,,,55,127
100052,note_off,0,0,0,,4,,,52,127
100052,note_off,0,0,0,,0,,,60,127
100053,note_on,1,0,0,,7,,,55,127
100053,note_on,0,0,0,,0,,,60,127
100053,note_on,0,0,0,,4,,,52,127
100053,note_on,0,0,0,,0,,,48,127
100053,note_on,0,0,0,,4,,,76,127
100061,note_off,8,0,0,,5,,,77,127
100322,note_off,261,0,0,,4,,,76,127
100322,note_off,0,0,0,,0,,,48,127
100322,note_off,0,0,0,,4,,,52,127
100322,note_off,0,0,0,,0,,,60,127
100322,note_off,0,0,0,,7,,,55,127
100322,note_off,0,0,0,,7,,,67,127
100323,note_on,1,0,0,,0,,,60,127
100323,note_on,0,0,0,,10,,,57,127
100323,note_on,0,0,0,,7,,,79,127
100377,note_on,54,0,0,,5,,,77,127
100391,note_off,14,0,0,,7,,,79,127
100431,note_on,40,0,0,,7,,,79,127
100445,note_off,14,0,0,,5,,,77,127
100485,note_on,40,0,0,,5,,,77,127
100499,note_off,14,0,0,,7,,,79,127
100539,note_on,40,0,0,,7,,,79,127
100553,note_off,14,0,0,,5,,,77,127
100593,note_on,40,0,0,,5,,,77,127
100594,note_off,1,0,0,,10,,,57,127
100594,note_off,0,0,0,,0,,,60,127
100595,note_on,1,0,0,,0,,,60,127
100595,note_on,0,0,0,,10,,,57,127
100606,note_off,11,0,0,,7,,,79,127
100646,note_on,40,0,0,,7,,,79,127
100660,note_off,14,0,0,,5,,,77,127
100700,note_on,40,0,0,,5,,,77,127
100714,note_off,14,0,0,,7,,,79,127
100754,note_on,40,0,0,,4,,,76,127
100768,note_off,14,0,0,,5,,,77,127
100808,note_on,40,0,0,,5,,,77,127
100822,note_off,14,0,0,,4,,,76,127
100866,note_off,44,0,0,,10,,,57,127
100866,note_off,0,0,0,,0,,,60,127
100867,note_on,1,0,0,,7,,,55,127
100867,note_on,0,0,0,,11,,,58,127
100867,note_on,0,0,0,,0,,,60,127
100867,note_on,0,0,0,,10,,,81,127
100870,note_off,3,0,0,,5,,,77,127
100921,note_on,51,0,0,,7,,,79,127
100935,note_off,14,0,0,,10,,,81,127
100975,note_on,40,0,0,,10,,,81,127
100989,note_off,14,0,0,,7,,,79,127
101029,note_on,40,0,0,,7,,,79,127
101043,note_off,14,0,0,,10,,,81,127
101083,note_on,40,0,0,,10,,,81,127
101097,note_off,14,0,0,,7,,,79,127
101137,note_on,40,0,0,,7,,,79,127
101138,note_off,1,0,0,,0,,,60,127
101138,note_off,0,0,0,,11,,,58,127
101138,note_off,0,0,0,,7,,,55,127
101139,note_on,1,0,0,,0,,,60,127
101139,note_on,0,0,0,,7,,,55,127
101139,note_on,0,0,0,,11,,,58,127
101150,note_off,11,0,0,,10,,,81,127
101190,note_on,40,0,0,,10,,,81,127
101204,note_off,14,0,0,,7,,,79,127
101244,note_on,40,0,0,,7,,,79,127
101258,note_off,14,0,0,,10,,,81,127
101298,note_on,40,0,0,,5,,,77,127
101312,note_off,14,0,0,,7,,,79,127
101352,note_on,40,0,0,,7,,,79,127
101366,note_off,14,0,0,,5,,,77,127
101410,note_off,44,0,0,,11,,,58,127
101410,note_off,0,0,0,,7,,,55,127
101410,note_off,0,0,0,,0,,,60,127
101411,note_on,1,0,0,,11,,,82,127
101411,note_on,0,0,0,,0,,,60,127
101411,note_on,0,0,0,,5,,,53,127
101411,note_on,0,0,0,,10,,,57,127
101414,note_off,3,0,0,,7,,,79,127
101465,note_on,51,0,0,,10,,,81,127
101479,note_off,14,0,0,,11,,,82,127
101519,note_on,40,0,0,,11,,,82,127
101533,note_off,14,0,0,,10,,,81,127
101573,note_on,40,0,0,,10,,,81,127
101587,note_off,14,0,0,,11,,,82,127
101627,note_on,40,0,0,,11,,,82,127
101641,note_off,14,0,0,,10,,,81,127
101681,note_on,40,0,0,,10,,,81,127
101682,note_off,1,0,0,,10,,,57,127
101682,note_off,0,0,0,,5,,,53,127
101682,note_off,0,0,0,,0,,,60,127
101683,note_on,1,0,0,,0,,,60,127
101683,note_on,0,0,0,,10,,,57,127
101683,note_on,0,0,0,,5,,,53,127
101694,note_off,11,0,0,,11,,,82,127
101734,note_on,40,0,0,,11,,,82,127
101748,note_off,14,0,0,,10,,,81,127
101788,note_on,40,0,0,,10,,,81,127
101802,note_off,14,0,0,,11,,,82,127
101842,note_on,40,0,0,,7,,,79,127
101856,note_off,14,0,0,,10,,,81,127
101896,note_on,40,0,0,,10,,,81,127
101910,note_off,14,0,0,,7,,,79,127
101954,note_off,44,0,0,,5,,,53,127
101954,note_off,0,0,0,,10,,,57,127
101954,note_off,0,0,0,,0,,,60,127
101955,note_on,1,0,0,,0,,,60,127
101955,note_on,0,0,0,,7,,,55,127
101955,note_on,0,0,0,,0,,,48,127
101955,note_on,0,0,0,,7,,,79,127
101958,note_off,3,0,0,,10,,,81,127
102089,note_off,131,0,0,,7,,,79,127
102090,note_on,1,0,0,,5,,,77,127
102224,note_off,134,0,0,,5,,,77,127
102225,note_on,1,0,0,,4,,,76,127
102359,note_off,134,0,0,,4,,,76,127
102360,note_on,1,0,0,,2,,,74,127
102494,note_off,134,0,0,,2,,,74,127
102495,note_on,1,0,0,,0,,,72,127
102629,note_off,134,0,0,,0,,,48,127
102629,note_off,0,0,0,,7,,,55,127
102629,note_off,0,0,0,,0,,,60,127
102630,note_on,1,0,0,,11,,,70,127
102764,note_off,134,0,0,,11,,,70,127
102765,note_on,1,0,0,,10,,,69,127
102899,note_off,134,0,0,,10,,,69,127
102900,note_on,1,0,0,,7,,,67,127
103034,note_off,134,0,0,,7,,,67,127
103034,note_off,0,0,0,,0,,,72,127
103035,note_on,1,0,0,,5,,,65,127
103306,note_on,271,0,0,,10,,,81,127
103440,note_off,134,0,0,,10,,,81,127
103441,note_on,1,0,0,,7,,,79,127
103575,note_off,134,0,0,,7,,,79,127
103576,note_on,1,0,0,,10,,,81,127
103710,note_off,134,0,0,,5,,,65,127
103711,note_on,1,0,0,,5,,,65,127
103845,note_off,134,0,0,,5,,,65,127
103845,note_off,0,0,0,,10,,,81,127
103846,note_on,1,0,0,,4,,,64,127
103846,note_on,0,0,0,,7,,,79,127
103980,note_off,134,0,0,,4,,,64,127
103981,note_on,1,0,0,,4,,,52,127
104115,note_off,134,0,0,,4,,,52,127
104116,note_on,1,0,0,,2,,,50,127
104386,note_off,270,0,0,,7,,,79,127
104387,note_on,1,0,0,,5,,,77,127
104455,note_off,68,0,0,,5,,,77,127
104455,note_on,0,0,0,,7,,,79,127
104523,note_off,68,0,0,,7,,,79,127
104523,note_on,0,0,0,,5,,,77,127
104591,note_off,68,0,0,,5,,,77,127
104591,note_on,0,0,0,,4,,,76,127
104659,note_off,68,0,0,,4,,,76,127
104659,note_on,0,0,0,,5,,,77,127
104793,note_off,134,0,0,,2,,,50,127
104794,note_on,1,0,0,,2,,,62,127
104928,note_off,134,0,0,,2,,,62,127
104928,note_off,0,0,0,,5,,,77,127
104929,note_on,1,0,0,,0,,,60,127
104929,note_on,0,0,0,,4,,,76,127
105063,note_off,134,0,0,,0,,,60,127
105064,note_on,1,0,0,,0,,,48,127
105198,note_off,134,0,0,,0,,,48,127
105199,note_on,1,0,0,,11,,,46,127
105469,note_off,270,0,0,,4,,,76,127
105470,note_on,1,0,0,,2,,,74,127
105538,note_off,68,0,0,,2,,,74,127
105538,note_on,0,0,0,,4,,,76,127
105606,note_off,68,0,0,,4,,,76,127
105606,note_on,0,0,0,,2,,,74,127
105674,note_off,68,0,0,,2,,,74,127
105674,note_on,0,0,0,,0,,,72,127
105742,note_off,68,0,0,,0,,,72,127
105742,note_on,0,0,0,,2,,,74,127
105876,note_off,134,0,0,,11,,,46,127
105877,note_on,1,0,0,,11,,,58,127
106011,note_off,134,0,0,,11,,,58,127
106011,note_off,0,0,0,,2,,,74,127
106012,note_on,1,0,0,,10,,,57,127
106012,note_on,0,0,0,,0,,,72,127
106146,note_off,134,0,0,,10,,,57,127
106147,note_on,1,0,0,,10,,,45,127
106281,note_off,134,0,0,,10,,,45,127
106282,note_on,1,0,0,,7,,,43,127
106552,note_off,270,0,0,,0,,,72,127
106553,note_on,1,0,0,,11,,,70,127
106621,note_off,68,0,0,,11,,,70,127
106621,note_on,0,0,0,,0,,,72,127
106689,note_off,68,0,0,,0,,,72,127
106689,note_on,0,0,0,,11,,,70,127
106757,note_off,68,0,0,,11,,,70,127
106757,note_on,0,0,0,,10,,,69,127
106825,note_off,68,0,0,,10,,,69,127
106825,note_on,0,0,0,,11,,,70,127
106959,note_off,134,0,0,,7,,,43,127
106960,note_on,1,0,0,,7,,,55,127
107094,note_off,134,0,0,,7,,,55,127
107094,note_off,0,0,0,,11,,,70,127
107095,note_on,1,0,0,,5,,,53,127
107095,note_on,0,0,0,,10,,,69,127
107229,note_off,134,0,0,,5,,,53,127
107230,note_on,1,0,0,,5,,,41,127
107364,note_off,134,0,0,,5,,,41,127
107365,note_on,1,0,0,,0,,,36,127
107499,note_off,134,0,0,,10,,,69,127
107500,note_on,1,0,0,,7,,,67,127
107634,note_off,134,0,0,,7,,,67,127
107634,note_off,0,0,0,,0,,,36,127
107635,note_on,1,0,0,,0,,,48,127
107635,note_on,0,0,0,,5,,,65,127
107769,note_off,134,0,0,,5,,,65,127
107770,note_on,1,0,0,,4,,,64,127
107904,note_off,134,0,0,,4,,,64,127
107904,note_off,0,0,0,,0,,,48,127
107905,note_on,1,0,0,,2,,,50,127
107905,note_on,0,0,0,,5,,,65,127
108039,note_off,134,0,0,,5,,,65,127
108040,note_on,1,0,0,,7,,,67,127
108174,note_off,134,0,0,,7,,,67,127
108174,note_off,0,0,0,,2,,,50,127
108175,note_on,1,0,0,,11,,,46,127
108175,note_on,0,0,0,,10,,,69,127
108309,note_off,134,0,0,,10,,,69,127
108310,note_on,1,0,0,,11,,,70,127
108444,note_off,134,0,0,,11,,,70,127
108444,note_off,0,0,0,,11,,,46,127
108445,note_on,1,0,0,,10,,,45,127
108445,note_on,0,0,0,,0,,,72,127
108579,note_off,134,0,0,,0,,,72,127
108580,note_on,1,0,0,,5,,,65,127
108714,note_off,134,0,0,,5,,,65,127
108714,note_off,0,0,0,,10,,,45,127
108715,note_on,1,0,0,,11,,,46,127
108715,note_on,0,0,0,,2,,,74,127
108849,note_off,134,0,0,,2,,,74,127
108850,note_on,1,0,0,,5,,,65,127
108984,note_off,134,0,0,,5,,,65,127
108984,note_off,0,0,0,,11,,,46,127
108985,note_on,1,0,0,,0,,,48,127
108985,note_on,0,0,0,,10,,,69,127
108985,note_on,0,0,0,,5,,,65,127
109255,note_off,270,0,0,,5,,,65,127
109255,note_off,0,0,0,,10,,,69,127
109255,note_off,0,0,0,,0,,,48,127
109256,note_on,1,0,0,,0,,,36,127
109256,note_on,0,0,0,,4,,,64,127
109256,note_on,0,0,0,,7,,,67,127
109324,note_off,68,0,0,,7,,,67,127
109324,note_off,0,0,0,,4,,,64,127
109324,note_on,0,0,0,,10,,,69,127
109392,note_off,68,0,0,,10,,,69,127
109392,note_on,0,0,0,,7,,,67,127
109526,note_off,134,0,0,,7,,,67,127
109526,note_off,0,0,0,,0,,,36,127
109527,note_on,1,0,0,,5,,,41,127
109527,note_on,0,0,0,,5,,,65,127
109797,note_off,270,0,0,,5,,,65,127
109798,note_on,1,0,0,,10,,,81,127
109932,note_off,134,0,0,,10,,,81,127
109933,note_on,1,0,0,,7,,,79,127
110067,note_off,134,0,0,,7,,,79,127
110068,note_on,1,0,0,,10,,,81,127
110202,note_off,134,0,0,,5,,,41,127
110203,note_on,1,0,0,,5,,,65,127
110337,note_off,134,0,0,,5,,,65,127
110337,note_off,0,0,0,,10,,,81,127
110338,note_on,1,0,0,,4,,,64,127
110338,note_on,0,0,0,,7,,,79,127
110472,note_off,134,0,0,,4,,,64,127
110473,note_on,1,0,0,,4,,,52,127
110607,note_off,134,0,0,,4,,,52,127
110608,note_on,1,0,0,,2,,,50,127
110744,note_off,136,0,0,,7,,,79,127
110880,note_on,136,0,0,,5,,,77,127
110948,note_off,68,0,0,,5,,,77,127
110948,note_on,0,0,0,,7,,,79,127
111016,note_off,68,0,0,,7,,,79,127
111016,note_on,0,0,0,,5,,,77,127
111084,note_off,68,0,0,,5,,,77,127
111084,note_on,0,0,0,,4,,,76,127
111152,note_off,68,0,0,,4,,,76,127
111152,note_on,0,0,0,,5,,,77,127
111286,note_off,134,0,0,,2,,,50,127
111287,note_on,1,0,0,,2,,,62,127
111421,note_off,134,0,0,,2,,,62,127
111421,note_off,0,0,0,,5,,,77,127
111422,note_on,1,0,0,,0,,,60,127
111422,note_on,0,0,0,,4,,,76,127
111556,note_off,134,0,0,,0,,,60,127
111557,note_on,1,0,0,,0,,,48,127
111691,note_off,134,0,0,,0,,,48,127
111692,note_on,1,0,0,,11,,,46,127
111828,note_off,136,0,0,,4,,,76,127
111964,note_on,136,0,0,,2,,,74,127
112032,note_off,68,0,0,,2,,,74,127
112032,note_on,0,0,0,,4,,,76,127
112100,note_off,68,0,0,,4,,,76,127
112100,note_on,0,0,0,,2,,,74,127
112168,note_off,68,0,0,,2,,,74,127
112168,note_on,0,0,0,,0,,,72,127
112236,note_off,68,0,0,,0,,,72,127
112236,note_on,0,0,0,,2,,,74,127
112370,note_off,134,0,0,,11,,,46,127
112371,note_on,1,0,0,,11,,,58,127
112505,note_off,134,0,0,,11,,,58,127
112505,note_off,0,0,0,,2,,,74,127
112506,note_on,1,0,0,,10,,,57,127
112506,note_on,0,0,0,,0,,,72,127
112640,note_off,134,0,0,,10,,,57,127
112641,note_on,1,0,0,,10,,,45,127
112775,note_off,134,0,0,,10,,,45,127
112776,note_on,1,0,0,,7,,,43,127
112957,note_off,181,0,0,,0,,,72,127
113047,note_on,90,0,0,,11,,,70,127
113115,note_off,68,0,0,,11,,,70,127
113115,note_on,0,0,0,,0,,,72,127
113183,note_off,68,0,0,,0,,,72,127
113183,note_on,0,0,0,,11,,,70,127
113251,note_off,68,0,0,,11,,,70,127
113251,note_on,0,0,0,,10,,,69,127
113319,note_off,68,0,0,,10,,,69,127
113319,note_on,0,0,0,,11,,,70,127
113453,note_off,134,0,0,,7,,,43,127
113454,note_on,1,0,0,,7,,,55,127
113588,note_off,134,0,0,,7,,,55,127
113588,note_off,0,0,0,,11,,,70,127
113589,note_on,1,0,0,,5,,,53,127
113589,note_on,0,0,0,,10,,,69,127
113723,note_off,134,0,0,,5,,,53,127
113724,note_on,1,0,0,,5,,,41,127
113858,note_off,134,0,0,,5,,,41,127
113859,note_on,1,0,0,,0,,,36,127
113993,note_off,134,0,0,,10,,,69,127
113994,note_on,1,0,0,,7,,,67,127
114128,note_off,134,0,0,,7,,,67,127
114128,note_off,0,0,0,,0,,,36,127
114129,note_on,1,0,0,,0,,,48,127
114129,note_on,0,0,0,,5,,,65,127
114263,note_off,134,0,0,,5,,,65,127
114264,note_on,1,0,0,,4,,,64,127
114398,note_off,134,0,0,,4,,,64,127
114398,note_off,0,0,0,,0,,,48,127
114399,note_on,1,0,0,,2,,,50,127
114399,note_on,0,0,0,,5,,,65,127
114533,note_off,134,0,0,,5,,,65,127
114534,note_on,1,0,0,,7,,,67,127
114668,note_off,134,0,0,,7,,,67,127
114668,note_off,0,0,0,,2,,,50,127
114669,note_on,1,0,0,,11,,,46,127
114669,note_on,0,0,0,,10,,,69,127
114803,note_off,134,0,0,,10,,,69,127
114804,note_on,1,0,0,,11,,,70,127
114938,note_off,134,0,0,,11,,,70,127
114938,note_off,0,0,0,,11,,,46,127
114939,note_on,1,0,0,,10,,,45,127
114939,note_on,0,0,0,,0,,,72,127
115073,note_off,134,0,0,,0,,,72,127
115074,note_on,1,0,0,,5,,,65,127
115208,note_off,134,0,0,,5,,,65,127
115208,note_off,0,0,0,,10,,,45,127
115209,note_on,1,0,0,,11,,,46,127
115209,note_on,0,0,0,,2,,,74,127
115343,note_off,134,0,0,,2,,,74,127
115344,note_on,1,0,0,,5,,,65,127
115478,note_off,134,0,0,,5,,,65,127
115478,note_off,0,0,0,,11,,,46,127
115479,note_on,1,0,0,,0,,,48,127
115479,note_on,0,0,0,,10,,,69,127
115479,note_on,0,0,0,,5,,,65,127
115749,note_off,270,0,0,,5,,,65,127
115749,note_off,0,0,0,,10,,,69,127
115749,note_off,0,0,0,,0,,,48,127
115750,note_on,1,0,0,,0,,,36,127
115750,note_on,0,0,0,,4,,,64,127
115750,note_on,0,0,0,,7,,,67,127
115806,note_off,56,0,0,,7,,,67,127
115806,note_on,0,0,0,,10,,,69,127
115862,note_off,56,0,0,,10,,,69,127
115862,note_on,0,0,0,,7,,,67,127
115918,note_off,56,0,0,,7,,,67,127
115918,note_on,0,0,0,,5,,,65,127
115974,note_off,56,0,0,,5,,,65,127
115974,note_on,0,0,0,,7,,,67,127
116018,note_off,44,0,0,,4,,,64,127
116018,note_off,0,0,0,,0,,,36,127
116019,note_on,1,0,0,,5,,,41,127
116019,note_on,0,0,0,,5,,,65,127
116029,note_off,10,0,0,,7,,,67,127
116289,note_off,260,0,0,,5,,,65,127
116290,note_on,1,0,0,,10,,,81,127
116424,note_off,134,0,0,,10,,,81,127
116425,note_on,1,0,0,,5,,,77,127
116559,note_off,134,0,0,,5,,,77,127
116559,note_off,0,0,0,,5,,,41,127
116560,note_on,1,0,0,,10,,,57,127
116560,note_on,0,0,0,,0,,,84,127
116831,note_on,271,0,0,,0,,,72,127
117101,note_off,270,0,0,,0,,,72,127
117101,note_off,0,0,0,,10,,,57,127
117102,note_on,1,0,0,,7,,,55,127
117102,note_on,0,0,0,,2,,,74,127
117372,note_off,270,0,0,,0,,,84,127
117373,note_on,1,0,0,,2,,,86,127
117507,note_off,134,0,0,,2,,,86,127
117508,note_on,1,0,0,,10,,,81,127
117642,note_off,134,0,0,,10,,,81,127
117642,note_off,0,0,0,,7,,,55,127
117643,note_on,1,0,0,,0,,,48,127
117643,note_on,0,0,0,,11,,,82,127
117913,note_off,270,0,0,,2,,,74,127
117914,note_on,1,0,0,,4,,,76,127
118184,note_off,270,0,0,,4,,,76,127
118184,note_off,0,0,0,,0,,,48,127
118185,note_on,1,0,0,,5,,,53,127
118185,note_on,0,0,0,,5,,,77,127
118455,note_off,270,0,0,,11,,,82,127
118456,note_on,1,0,0,,0,,,84,127
118590,note_off,134,0,0,,0,,,84,127
118591,note_on,1,0,0,,7,,,79,127
118725,note_off,134,0,0,,7,,,79,127
118725,note_off,0,0,0,,5,,,53,127
118726,note_on,1,0,0,,5,,,41,127
118726,note_on,0,0,0,,10,,,81,127
118996,note_off,270,0,0,,10,,,81,127
118996,note_off,0,0,0,,5,,,77,127
118997,note_on,1,0,0,,0,,,72,127
118997,note_on,0,0,0,,10,,,69,127
119267,note_off,270,0,0,,10,,,69,127
119267,note_off,0,0,0,,0,,,72,127
119267,note_off,0,0,0,,5,,,41,127
119268,note_on,1,0,0,,7,,,43,127
119268,note_on,0,0,0,,11,,,70,127
119539,note_on,271,0,0,,11,,,82,127
119673,note_off,134,0,0,,11,,,82,127
119674,note_on,1,0,0,,5,,,77,127
119808,note_off,134,0,0,,5,,,77,127
119808,note_off,0,0,0,,11,,,70,127
119808,note_off,0,0,0,,7,,,43,127
119809,note_on,1,0,0,,0,,,48,127
119809,note_on,0,0,0,,0,,,36,127
119809,note_on,0,0,0,,7,,,79,127
120080,note_on,271,0,0,,11,,,70,127
120350,note_off,270,0,0,,11,,,70,127
120350,note_off,0,0,0,,0,,,36,127
120350,note_off,0,0,0,,0,,,48,127
120351,note_on,1,0,0,,2,,,38,127
120351,note_on,0,0,0,,2,,,50,127
120351,note_on,0,0,0,,10,,,69,127
120621,note_off,270,0,0,,10,,,69,127
120621,note_off,0,0,0,,7,,,79,127
120622,note_on,1,0,0,,5,,,77,127
120756,note_off,134,0,0,,5,,,77,127
120757,note_on,1,0,0,,4,,,76,127
120891,note_off,134,0,0,,4,,,76,127
120891,note_off,0,0,0,,2,,,50,127
120891,note_off,0,0,0,,2,,,38,127
120892,note_on,1,0,0,,4,,,52,127
120892,note_on,0,0,0,,4,,,40,127
120892,note_on,0,0,0,,4,,,76,127
121026,note_off,134,0,0,,4,,,76,127
121027,note_on,1,0,0,,2,,,74,127
121161,note_off,134,0,0,,2,,,74,127
121162,note_on,1,0,0,,0,,,72,127
121296,note_off,134,0,0,,0,,,72,127
121297,note_on,1,0,0,,11,,,70,127
121431,note_off,134,0,0,,4,,,40,127
121431,note_off,0,0,0,,4,,,52,127
121432,note_on,1,0,0,,5,,,53,127
121432,note_on,0,0,0,,5,,,41,127
121566,note_off,134,0,0,,11,,,70,127
121567,note_on,1,0,0,,10,,,69,127
121701,note_off,134,0,0,,10,,,69,127
121701,note_off,0,0,0,,5,,,41,127
121701,note_off,0,0,0,,5,,,53,127
121702,note_on,1,0,0,,11,,,46,127
121702,note_on,0,0,0,,7,,,67,127
121836,note_off,134,0,0,,7,,,67,127
121837,note_on,1,0,0,,5,,,65,127
121971,note_off,134,0,0,,5,,,65,127
121971,note_off,0,0,0,,11,,,46,127
121972,note_on,1,0,0,,0,,,48,127
121972,note_on,0,0,0,,10,,,69,127
122106,note_off,134,0,0,,10,,,69,127
122107,note_on,1,0,0,,7,,,67,127
122241,note_off,134,0,0,,7,,,67,127
122241,note_off,0,0,0,,0,,,48,127
122242,note_on,1,0,0,,0,,,36,127
122242,note_on,0,0,0,,5,,,65,127
122376,note_off,134,0,0,,5,,,65,127
122377,note_on,1,0,0,,4,,,64,127
122511,note_off,134,0,0,,4,,,64,127
122511,note_off,0,0,0,,0,,,36,127
122512,note_on,1,0,0,,5,,,41,127
122512,note_on,0,0,0,,10,,,69,127
122512,note_on,0,0,0,,5,,,65,127
122646,note_off,134,0,0,,5,,,65,127
122646,note_off,0,0,0,,10,,,69,127
122647,note_on,1,0,0,,7,,,67,127
122647,note_on,0,0,0,,11,,,70,127
122781,note_off,134,0,0,,11,,,70,127
122781,note_off,0,0,0,,7,,,67,127
122781,note_off,0,0,0,,5,,,41,127
122782,note_on,1,0,0,,11,,,46,127
122782,note_on,0,0,0,,10,,,69,127
122782,note_on,0,0,0,,0,,,72,127
122916,note_off,134,0,0,,0,,,72,127
122916,note_off,0,0,0,,10,,,69,127
122917,note_on,1,0,0,,2,,,74,127
122917,note_on,0,0,0,,11,,,70,127
123051,note_off,134,0,0,,11,,,70,127
123051,note_off,0,0,0,,2,,,74,127
123051,note_off,0,0,0,,11,,,46,127
123052,note_on,1,0,0,,0,,,48,127
123052,note_on,0,0,0,,0,,,72,127
123052,note_on,0,0,0,,10,,,69,127
123186,note_off,134,0,0,,10,,,69,127
123186,note_off,0,0,0,,0,,,72,127
123187,note_on,1,0,0,,11,,,70,127
123187,note_on,0,0,0,,7,,,67,127
123321,note_off,134,0,0,,7,,,67,127
123321,note_off,0,0,0,,11,,,70,127
123322,note_on,1,0,0,,0,,,36,127
123322,note_on,0,0,0,,5,,,65,127
123322,note_on,0,0,0,,10,,,69,127
123456,note_off,134,0,0,,10,,,69,127
123456,note_off,0,0,0,,5,,,65,127
123457,note_on,1,0,0,,7,,,67,127
123457,note_on,0,0,0,,4,,,64,127
123591,note_off,134,0,0,,4,,,64,127
123591,note_off,0,0,0,,7,,,67,127
123591,note_off,0,0,0,,0,,,36,127
123591,note_off,0,0,0,,0,,,48,127
123592,note_on,1,0,0,,5,,,41,127
123592,note_on,0,0,0,,10,,,69,127
123592,note_on,0,0,0,,5,,,65,127
123726,note_off,134,0,0,,5,,,65,127
123726,note_off,0,0,0,,10,,,69,127
123727,note_on,1,0,0,,11,,,70,127
123727,note_on,0,0,0,,7,,,67,127
123861,note_off,134,0,0,,7,,,67,127
123861,note_off,0,0,0,,11,,,70,127
123861,note_off,0,0,0,,5,,,41,127
123862,note_on,1,0,0,,11,,,46,127
123862,note_on,0,0,0,,10,,,69,127
123862,note_on,0,0,0,,0,,,72,127
123996,note_off,134,0,0,,0,,,72,127
123996,note_off,0,0,0,,10,,,69,127
123997,note_on,1,0,0,,2,,,74,127
123997,note_on,0,0,0,,11,,,70,127
124131,note_off,134,0,0,,11,,,70,127
124131,note_off,0,0,0,,2,,,74,127
124131,note_off,0,0,0,,11,,,46,127
124132,note_on,1,0,0,,0,,,48,127
124132,note_on,0,0,0,,0,,,72,127
124132,note_on,0,0,0,,10,,,69,127
124266,note_off,134,0,0,,10,,,69,127
124266,note_off,0,0,0,,0,,,72,127
124267,note_on,1,0,0,,11,,,70,127
124267,note_on,0,0,0,,7,,,67,127
124401,note_off,134,0,0,,7,,,67,127
124401,note_off,0,0,0,,11,,,70,127
124402,note_on,1,0,0,,0,,,36,127
124402,note_on,0,0,0,,5,,,65,127
124402,note_on,0,0,0,,10,,,69,127
124536,note_off,134,0,0,,10,,,69,127
124536,note_off,0,0,0,,5,,,65,127
124537,note_on,1,0,0,,7,,,67,127
124537,note_on,0,0,0,,4,,,64,127
124671,note_off,134,0,0,,4,,,64,127
124671,note_off,0,0,0,,7,,,67,127
124671,note_off,0,0,0,,0,,,36,127
124671,note_off,0,0,0,,0,,,48,127
124672,note_on,1,0,0,,5,,,41,127
124672,note_on,0,0,0,,10,,,69,127
124672,note_on,0,0,0,,5,,,65,127
124806,note_off,134,0,0,,5,,,65,127
124806,note_off,0,0,0,,10,,,69,127
124807,note_on,1,0,0,,11,,,70,127
124807,note_on,0,0,0,,7,,,67,127
124941,note_off,134,0,0,,7,,,67,127
124941,note_off,0,0,0,,11,,,70,127
124941,note_off,0,0,0,,5,,,41,127
124942,note_on,1,0,0,,11,,,46,127
124942,note_on,0,0,0,,0,,,72,127
124942,note_on,0,0,0,,10,,,69,127
125076,note_off,134,0,0,,10,,,69,127
125076,note_off,0,0,0,,0,,,72,127
125077,note_on,1,0,0,,2,,,74,127
125077,note_on,0,0,0,,11,,,70,127
125211,note_off,134,0,0,,11,,,70,127
125211,note_off,0,0,0,,2,,,74,127
125211,note_off,0,0,0,,11,,,46,127
125212,note_on,1,0,0,,0,,,48,127
125212,note_on,0,0,0,,10,,,69,127
125212,note_on,0,0,0,,0,,,72,127
125346,note_off,134,0,0,,0,,,72,127
125346,note_off,0,0,0,,10,,,69,127
125347,note_on,1,0,0,,11,,,70,127
125347,note_on,0,0,0,,7,,,67,127
125481,note_off,134,0,0,,7,,,67,127
125481,note_off,0,0,0,,11,,,70,127
125482,note_on,1,0,0,,0,,,36,127
125482,note_on,0,0,0,,10,,,69,127
125482,note_on,0,0,0,,5,,,65,127
125616,note_off,134,0,0,,5,,,65,127
125616,note_off,0,0,0,,10,,,69,127
125617,note_on,1,0,0,,7,,,67,127
125617,note_on,0,0,0,,4,,,64,127
125751,note_off,134,0,0,,4,,,64,127
125751,note_off,0,0,0,,7,,,67,127
125751,note_off,0,0,0,,0,,,36,127
125751,note_off,0,0,0,,0,,,48,127
125752,note_on,1,0,0,,5,,,41,127
125752,note_on,0,0,0,,7,,,67,127
125797,note_on,45,0,0,,5,,,65,127
125820,note_off,23,0,0,,7,,,67,127
125843,note_on,23,0,0,,7,,,67,127
125866,note_off,23,0,0,,5,,,65,127
125889,note_on,23,0,0,,5,,,65,127
125912,note_off,23,0,0,,7,,,67,127
127787,note_off,1875,0,0,,5,,,65,127
127787,note_off,0,0,0,,5,,,41,127
129024,end_of_track,1237,1,0,,,,,,
