tick,type,time,meta,track,program,channel,pitch,tempo,note,velocity
0,copyright,0,1,0,,,,,,
0,program_change,0,0,0,6,0,,,,
0,pitchwheel,0,0,0,,0,0,,,
0,program_change,0,0,0,6,1,,,,
0,pitchwheel,0,0,0,,1,-590,,,
0,program_change,0,0,0,6,2,,,,
0,pitchwheel,0,0,0,,2,-272,,,
0,program_change,0,0,0,6,3,,,,
0,pitchwheel,0,0,0,,3,-353,,,
0,program_change,0,0,0,6,4,,,,
0,pitchwheel,0,0,0,,4,-560,,,
0,program_change,0,0,0,6,5,,,,
0,pitchwheel,0,0,0,,5,-80,,,
0,program_change,0,0,0,6,6,,,,
0,pitchwheel,0,0,0,,6,-625,,,
0,program_change,0,0,0,6,7,,,,
0,pitchwheel,0,0,0,,7,-130,,,
0,program_change,0,0,0,6,8,,,,
0,pitchwheel,0,0,0,,8,-512,,,
0,program_change,0,0,0,6,10,,,,
0,pitchwheel,0,0,0,,10,-464,,,
0,program_change,0,0,0,6,11,,,,
0,pitchwheel,0,0,0,,11,-208,,,
0,program_change,0,0,0,6,12,,,,
0,pitchwheel,0,0,0,,12,-553,,,
0,set_tempo,0,1,0,,,,500000,,
85,note_on,85,0,0,,5,,,77,127
85,note_on,0,0,0,,5,,,65,127
255,note_off,170,0,0,,5,,,65,127
256,note_on,1,0,0,,5,,,65,127
426,note_off,170,0,0,,5,,,65,127
426,note_off,0,0,0,,5,,,77,127
427,note_on,1,0,0,,3,,,75,127
427,note_on,0,0,0,,5,,,65,127
597,note_off,170,0,0,,5,,,65,127
597,note_off,0,0,0,,3,,,75,127
598,note_on,1,0,0,,3,,,75,127
598,note_on,0,0,0,,5,,,65,127
641,note_on,43,0,0,,1,,,73,127
655,note_off,14,0,0,,3,,,75,127
683,note_on,28,0,0,,3,,,75,127
697,note_off,14,0,0,,1,,,73,127
725,note_on,28,0,0,,1,,,73,127
739,note_off,14,0,0,,3,,,75,127
767,note_off,28,0,0,,5,,,65,127
768,note_on,1,0,0,,0,,,72,127
768,note_on,0,0,0,,5,,,65,127
782,note_off,14,0,0,,1,,,73,127
938,note_off,156,0,0,,5,,,65,127
938,note_off,0,0,0,,0,,,72,127
939,note_on,1,0,0,,11,,,70,127
939,note_on,0,0,0,,1,,,73,127
939,note_on,0,0,0,,5,,,65,127
1109,note_off,170,0,0,,5,,,65,127
1109,note_off,0,0,0,,1,,,73,127
1109,note_off,0,0,0,,11,,,70,127
1110,note_on,1,0,0,,0,,,72,127
1110,note_on,0,0,0,,8,,,68,127
1110,note_on,0,0,0,,5,,,65,127
1280,note_off,170,0,0,,5,,,65,127
1280,note_off,0,0,0,,0,,,72,127
1281,note_on,1,0,0,,11,,,70,127
1281,note_on,0,0,0,,5,,,65,127
1451,note_off,170,0,0,,5,,,65,127
1451,note_off,0,0,0,,11,,,70,127
1452,note_on,1,0,0,,0,,,72,127
1452,note_on,0,0,0,,5,,,65,127
1622,note_off,170,0,0,,5,,,65,127
1622,note_off,0,0,0,,0,,,72,127
1622,note_off,0,0,0,,8,,,68,127
1623,note_on,1,0,0,,7,,,67,127
1623,note_on,0,0,0,,11,,,70,127
1623,note_on,0,0,0,,5,,,65,127
1793,note_off,170,0,0,,5,,,65,127
1793,note_off,0,0,0,,11,,,70,127
1794,note_on,1,0,0,,8,,,68,127
1794,note_on,0,0,0,,5,,,65,127
1964,note_off,170,0,0,,5,,,65,127
1964,note_off,0,0,0,,8,,,68,127
1965,note_on,1,0,0,,11,,,70,127
1965,note_on,0,0,0,,5,,,65,127
2135,note_off,170,0,0,,5,,,65,127
2135,note_off,0,0,0,,11,,,70,127
2135,note_off,0,0,0,,7,,,67,127
2136,note_on,1,0,0,,8,,,68,127
2136,note_on,0,0,0,,5,,,65,127
2306,note_off,170,0,0,,5,,,65,127
2306,note_off,0,0,0,,8,,,68,127
2307,note_on,1,0,0,,7,,,67,127
2307,note_on,0,0,0,,5,,,65,127
2477,note_off,170,0,0,,5,,,65,127
2477,note_off,0,0,0,,7,,,67,127
2478,note_on,1,0,0,,8,,,68,127
2478,note_on,0,0,0,,3,,,63,127
2648,note_off,170,0,0,,3,,,63,127
2648,note_off,0,0,0,,8,,,68,127
2649,note_on,1,0,0,,11,,,70,127
2649,note_on,0,0,0,,1,,,61,127
2819,note_off,170,0,0,,1,,,61,127
2819,note_off,0,0,0,,11,,,70,127
2820,note_on,1,0,0,,0,,,72,127
2820,note_on,0,0,0,,0,,,60,127
2990,note_off,170,0,0,,0,,,60,127
2990,note_off,0,0,0,,0,,,72,127
2991,note_on,1,0,0,,4,,,64,127
2991,note_on,0,0,0,,1,,,73,127
2991,note_on,0,0,0,,11,,,58,127
3161,note_off,170,0,0,,11,,,58,127
3161,note_off,0,0,0,,1,,,73,127
3161,note_off,0,0,0,,4,,,64,127
3162,note_on,1,0,0,,5,,,65,127
3162,note_on,0,0,0,,0,,,72,127
3162,note_on,0,0,0,,8,,,56,127
3332,note_off,170,0,0,,8,,,56,127
3332,note_off,0,0,0,,0,,,72,127
3333,note_on,1,0,0,,11,,,70,127
3333,note_on,0,0,0,,7,,,55,127
3503,note_off,170,0,0,,7,,,55,127
3503,note_off,0,0,0,,11,,,70,127
3504,note_on,1,0,0,,8,,,68,127
3504,note_on,0,0,0,,5,,,53,127
3674,note_off,170,0,0,,5,,,53,127
3674,note_off,0,0,0,,8,,,68,127
3675,note_on,1,0,0,,7,,,67,127
3675,note_on,0,0,0,,11,,,58,127
3845,note_off,170,0,0,,11,,,58,127
3845,note_off,0,0,0,,7,,,67,127
3846,note_on,1,0,0,,8,,,68,127
3846,note_on,0,0,0,,0,,,60,127
4016,note_off,170,0,0,,0,,,60,127
4016,note_off,0,0,0,,8,,,68,127
4016,note_off,0,0,0,,5,,,65,127
4017,note_on,1,0,0,,11,,,70,127
4017,note_on,0,0,0,,4,,,64,127
4017,note_on,0,0,0,,0,,,48,127
4159,note_off,142,0,0,,4,,,64,127
4159,note_off,0,0,0,,11,,,70,127
4187,note_off,28,0,0,,0,,,48,127
4188,note_on,1,0,0,,5,,,77,127
4188,note_on,0,0,0,,5,,,65,127
4358,note_off,170,0,0,,5,,,65,127
4359,note_on,1,0,0,,5,,,65,127
4529,note_off,170,0,0,,5,,,65,127
4529,note_off,0,0,0,,5,,,77,127
4530,note_on,1,0,0,,3,,,75,127
4530,note_on,0,0,0,,5,,,65,127
4700,note_off,170,0,0,,5,,,65,127
4700,note_off,0,0,0,,3,,,75,127
4701,note_on,1,0,0,,3,,,75,127
4701,note_on,0,0,0,,5,,,65,127
4744,note_on,43,0,0,,1,,,73,127
4758,note_off,14,0,0,,3,,,75,127
4786,note_on,28,0,0,,3,,,75,127
4800,note_off,14,0,0,,1,,,73,127
4828,note_on,28,0,0,,1,,,73,127
4842,note_off,14,0,0,,3,,,75,127
4870,note_off,28,0,0,,5,,,65,127
4871,note_on,1,0,0,,0,,,72,127
4871,note_on,0,0,0,,5,,,65,127
4885,note_off,14,0,0,,1,,,73,127
5041,note_off,156,0,0,,5,,,65,127
5041,note_off,0,0,0,,0,,,72,127
5042,note_on,1,0,0,,1,,,73,127
5042,note_on,0,0,0,,11,,,70,127
5042,note_on,0,0,0,,5,,,65,127
5212,note_off,170,0,0,,5,,,65,127
5212,note_off,0,0,0,,11,,,70,127
5212,note_off,0,0,0,,1,,,73,127
5213,note_on,1,0,0,,8,,,68,127
5213,note_on,0,0,0,,0,,,72,127
5213,note_on,0,0,0,,5,,,65,127
5383,note_off,170,0,0,,5,,,65,127
5383,note_off,0,0,0,,0,,,72,127
5384,note_on,1,0,0,,11,,,70,127
5384,note_on,0,0,0,,5,,,65,127
5554,note_off,170,0,0,,5,,,65,127
5554,note_off,0,0,0,,11,,,70,127
5555,note_on,1,0,0,,0,,,72,127
5555,note_on,0,0,0,,5,,,65,127
5725,note_off,170,0,0,,5,,,65,127
5725,note_off,0,0,0,,0,,,72,127
5725,note_off,0,0,0,,8,,,68,127
5726,note_on,1,0,0,,7,,,67,127
5726,note_on,0,0,0,,11,,,70,127
5726,note_on,0,0,0,,5,,,65,127
5896,note_off,170,0,0,,5,,,65,127
5896,note_off,0,0,0,,11,,,70,127
5897,note_on,1,0,0,,8,,,68,127
5897,note_on,0,0,0,,5,,,65,127
6067,note_off,170,0,0,,5,,,65,127
6067,note_off,0,0,0,,8,,,68,127
6068,note_on,1,0,0,,11,,,70,127
6068,note_on,0,0,0,,5,,,65,127
6238,note_off,170,0,0,,5,,,65,127
6238,note_off,0,0,0,,11,,,70,127
6238,note_off,0,0,0,,7,,,67,127
6239,note_on,1,0,0,,8,,,68,127
6239,note_on,0,0,0,,5,,,65,127
6409,note_off,170,0,0,,8,,,68,127
6410,note_on,1,0,0,,7,,,67,127
6580,note_off,170,0,0,,7,,,67,127
6580,note_off,0,0,0,,5,,,65,127
6581,note_on,1,0,0,,8,,,68,127
6581,note_on,0,0,0,,3,,,63,127
6751,note_off,170,0,0,,3,,,63,127
6751,note_off,0,0,0,,8,,,68,127
6752,note_on,1,0,0,,7,,,67,127
6752,note_on,0,0,0,,11,,,70,127
6752,note_on,0,0,0,,1,,,61,127
6922,note_off,170,0,0,,1,,,61,127
6922,note_off,0,0,0,,11,,,70,127
6922,note_off,0,0,0,,7,,,67,127
6923,note_on,1,0,0,,8,,,68,127
6923,note_on,0,0,0,,3,,,63,127
7093,note_off,170,0,0,,3,,,63,127
7093,note_off,0,0,0,,8,,,68,127
7094,note_on,1,0,0,,11,,,70,127
7094,note_on,0,0,0,,7,,,67,127
7094,note_on,0,0,0,,1,,,61,127
7264,note_off,170,0,0,,1,,,61,127
7264,note_off,0,0,0,,7,,,67,127
7264,note_off,0,0,0,,11,,,70,127
7265,note_on,1,0,0,,8,,,68,127
7265,note_on,0,0,0,,0,,,72,127
7265,note_on,0,0,0,,0,,,60,127
7435,note_off,170,0,0,,0,,,60,127
7435,note_off,0,0,0,,0,,,72,127
7435,note_off,0,0,0,,8,,,68,127
7436,note_on,1,0,0,,7,,,67,127
7436,note_on,0,0,0,,11,,,70,127
7436,note_on,0,0,0,,1,,,61,127
7606,note_off,170,0,0,,1,,,61,127
7606,note_off,0,0,0,,11,,,70,127
7606,note_off,0,0,0,,7,,,67,127
7607,note_on,1,0,0,,0,,,72,127
7607,note_on,0,0,0,,8,,,68,127
7607,note_on,0,0,0,,0,,,60,127
7777,note_off,170,0,0,,0,,,60,127
7777,note_off,0,0,0,,8,,,68,127
7777,note_off,0,0,0,,0,,,72,127
7778,note_on,1,0,0,,11,,,70,127
7778,note_on,0,0,0,,1,,,73,127
7778,note_on,0,0,0,,11,,,58,127
7948,note_off,170,0,0,,11,,,58,127
7948,note_off,0,0,0,,1,,,73,127
7948,note_off,0,0,0,,11,,,70,127
7949,note_on,1,0,0,,0,,,72,127
7949,note_on,0,0,0,,0,,,60,127
8119,note_off,170,0,0,,0,,,60,127
8119,note_off,0,0,0,,0,,,72,127
8120,note_on,1,0,0,,11,,,70,127
8120,note_on,0,0,0,,1,,,73,127
8120,note_on,0,0,0,,11,,,58,127
8248,note_off,128,0,0,,1,,,73,127
8248,note_off,0,0,0,,11,,,70,127
8286,note_off,38,0,0,,11,,,58,127
8290,note_on,4,0,0,,8,,,80,127
8290,note_on,0,0,0,,8,,,68,127
8290,note_on,0,0,0,,8,,,56,127
8461,note_on,171,0,0,,11,,,58,127
8631,note_off,170,0,0,,11,,,58,127
8631,note_off,0,0,0,,8,,,80,127
8632,note_on,1,0,0,,7,,,79,127
8632,note_on,0,0,0,,0,,,60,127
8802,note_off,170,0,0,,0,,,60,127
8802,note_off,0,0,0,,7,,,79,127
8802,note_off,0,0,0,,8,,,56,127
8802,note_off,0,0,0,,8,,,68,127
8803,note_on,1,0,0,,5,,,77,127
8803,note_on,0,0,0,,8,,,68,127
8803,note_on,0,0,0,,8,,,56,127
8803,note_on,0,0,0,,1,,,61,127
8973,note_off,170,0,0,,1,,,61,127
8973,note_off,0,0,0,,5,,,77,127
8974,note_on,1,0,0,,3,,,75,127
8974,note_on,0,0,0,,3,,,63,127
9144,note_off,170,0,0,,3,,,63,127
9144,note_off,0,0,0,,3,,,75,127
9145,note_on,1,0,0,,1,,,73,127
9145,note_on,0,0,0,,5,,,65,127
9315,note_off,170,0,0,,5,,,65,127
9315,note_off,0,0,0,,1,,,73,127
9315,note_off,0,0,0,,8,,,56,127
9315,note_off,0,0,0,,8,,,68,127
9316,note_on,1,0,0,,3,,,75,127
9316,note_on,0,0,0,,1,,,73,127
9316,note_on,0,0,0,,7,,,67,127
9316,note_on,0,0,0,,8,,,56,127
9486,note_off,170,0,0,,7,,,67,127
9486,note_off,0,0,0,,1,,,73,127
9487,note_on,1,0,0,,0,,,72,127
9487,note_on,0,0,0,,8,,,68,127
9657,note_off,170,0,0,,8,,,68,127
9657,note_off,0,0,0,,0,,,72,127
9658,note_on,1,0,0,,1,,,73,127
9658,note_on,0,0,0,,7,,,67,127
9828,note_off,170,0,0,,7,,,67,127
9828,note_off,0,0,0,,1,,,73,127
9828,note_off,0,0,0,,8,,,56,127
9828,note_off,0,0,0,,3,,,75,127
9829,note_on,1,0,0,,3,,,75,127
9829,note_on,0,0,0,,0,,,72,127
9829,note_on,0,0,0,,8,,,56,127
9829,note_on,0,0,0,,8,,,68,127
9999,note_off,170,0,0,,8,,,68,127
9999,note_off,0,0,0,,0,,,72,127
10000,note_on,1,0,0,,1,,,73,127
10000,note_on,0,0,0,,7,,,67,127
10170,note_off,170,0,0,,7,,,67,127
10170,note_off,0,0,0,,1,,,73,127
10170,note_off,0,0,0,,3,,,75,127
10171,note_on,1,0,0,,3,,,75,127
10171,note_on,0,0,0,,3,,,63,127
10341,note_off,170,0,0,,3,,,63,127
10341,note_off,0,0,0,,3,,,75,127
10341,note_off,0,0,0,,8,,,56,127
10342,note_on,1,0,0,,8,,,80,127
10342,note_on,0,0,0,,8,,,68,127
10342,note_on,0,0,0,,8,,,56,127
10513,note_on,171,0,0,,11,,,58,127
10683,note_off,170,0,0,,11,,,58,127
10683,note_off,0,0,0,,8,,,80,127
10684,note_on,1,0,0,,7,,,79,127
10684,note_on,0,0,0,,0,,,60,127
10854,note_off,170,0,0,,0,,,60,127
10854,note_off,0,0,0,,7,,,79,127
10854,note_off,0,0,0,,8,,,56,127
10854,note_off,0,0,0,,8,,,68,127
10855,note_on,1,0,0,,5,,,77,127
10855,note_on,0,0,0,,8,,,68,127
10855,note_on,0,0,0,,8,,,56,127
10855,note_on,0,0,0,,1,,,61,127
11025,note_off,170,0,0,,1,,,61,127
11025,note_off,0,0,0,,5,,,77,127
11026,note_on,1,0,0,,3,,,75,127
11026,note_on,0,0,0,,3,,,63,127
11196,note_off,170,0,0,,3,,,63,127
11196,note_off,0,0,0,,3,,,75,127
11197,note_on,1,0,0,,1,,,73,127
11197,note_on,0,0,0,,5,,,65,127
11367,note_off,170,0,0,,5,,,65,127
11367,note_off,0,0,0,,1,,,73,127
11367,note_off,0,0,0,,8,,,56,127
11367,note_off,0,0,0,,8,,,68,127
11368,note_on,1,0,0,,1,,,73,127
11368,note_on,0,0,0,,3,,,75,127
11368,note_on,0,0,0,,7,,,67,127
11368,note_on,0,0,0,,8,,,56,127
11538,note_off,170,0,0,,7,,,67,127
11538,note_off,0,0,0,,1,,,73,127
11539,note_on,1,0,0,,0,,,72,127
11539,note_on,0,0,0,,8,,,68,127
11709,note_off,170,0,0,,8,,,68,127
11709,note_off,0,0,0,,0,,,72,127
11710,note_on,1,0,0,,1,,,73,127
11710,note_on,0,0,0,,7,,,67,127
11880,note_off,170,0,0,,7,,,67,127
11880,note_off,0,0,0,,1,,,73,127
11880,note_off,0,0,0,,8,,,56,127
11880,note_off,0,0,0,,3,,,75,127
11881,note_on,1,0,0,,0,,,72,127
11881,note_on,0,0,0,,3,,,75,127
11881,note_on,0,0,0,,8,,,56,127
11881,note_on,0,0,0,,8,,,68,127
12051,note_off,170,0,0,,8,,,68,127
12051,note_off,0,0,0,,0,,,72,127
12052,note_on,1,0,0,,1,,,73,127
12052,note_on,0,0,0,,7,,,67,127
12222,note_off,170,0,0,,7,,,67,127
12222,note_off,0,0,0,,1,,,73,127
12222,note_off,0,0,0,,3,,,75,127
12223,note_on,1,0,0,,3,,,75,127
12223,note_on,0,0,0,,3,,,63,127
12393,note_off,170,0,0,,3,,,63,127
12393,note_off,0,0,0,,3,,,75,127
12393,note_off,0,0,0,,8,,,56,127
12394,note_on,1,0,0,,0,,,72,127
12394,note_on,0,0,0,,8,,,68,127
12564,note_off,170,0,0,,0,,,72,127
12565,note_on,1,0,0,,1,,,73,127
12735,note_off,170,0,0,,1,,,73,127
12735,note_off,0,0,0,,8,,,68,127
12736,note_on,1,0,0,,11,,,70,127
12736,note_on,0,0,0,,3,,,75,127
12736,note_on,0,0,0,,6,,,66,127
12906,note_off,170,0,0,,6,,,66,127
12906,note_off,0,0,0,,3,,,75,127
12906,note_off,0,0,0,,11,,,70,127
12907,note_on,1,0,0,,10,,,69,127
12907,note_on,0,0,0,,5,,,77,127
12907,note_on,0,0,0,,5,,,65,127
13077,note_off,170,0,0,,5,,,65,127
13077,note_off,0,0,0,,10,,,69,127
13078,note_on,1,0,0,,11,,,70,127
13078,note_on,0,0,0,,7,,,67,127
13248,note_off,170,0,0,,7,,,67,127
13248,note_off,0,0,0,,11,,,70,127
13248,note_off,0,0,0,,5,,,77,127
13249,note_on,1,0,0,,3,,,75,127
13249,note_on,0,0,0,,0,,,72,127
13249,note_on,0,0,0,,10,,,69,127
13400,note_off,151,0,0,,0,,,72,127
13400,note_off,0,0,0,,3,,,75,127
13419,note_off,19,0,0,,10,,,69,127
13420,note_on,1,0,0,,11,,,70,127
13420,note_on,0,0,0,,11,,,82,127
13420,note_on,0,0,0,,11,,,58,127
13591,note_on,171,0,0,,0,,,60,127
13761,note_off,170,0,0,,0,,,60,127
13761,note_off,0,0,0,,11,,,82,127
13762,note_on,1,0,0,,8,,,80,127
13762,note_on,0,0,0,,1,,,61,127
13932,note_off,170,0,0,,1,,,61,127
13932,note_off,0,0,0,,8,,,80,127
13932,note_off,0,0,0,,11,,,58,127
13932,note_off,0,0,0,,11,,,70,127
13933,note_on,1,0,0,,6,,,78,127
13933,note_on,0,0,0,,11,,,70,127
13933,note_on,0,0,0,,11,,,58,127
13933,note_on,0,0,0,,3,,,63,127
14103,note_off,170,0,0,,3,,,63,127
14103,note_off,0,0,0,,6,,,78,127
14104,note_on,1,0,0,,5,,,77,127
14104,note_on,0,0,0,,5,,,65,127
14274,note_off,170,0,0,,5,,,65,127
14274,note_off,0,0,0,,5,,,77,127
14275,note_on,1,0,0,,3,,,75,127
14275,note_on,0,0,0,,6,,,66,127
14445,note_off,170,0,0,,6,,,66,127
14445,note_off,0,0,0,,3,,,75,127
14445,note_off,0,0,0,,11,,,58,127
14445,note_off,0,0,0,,11,,,70,127
14446,note_on,1,0,0,,3,,,75,127
14446,note_on,0,0,0,,5,,,77,127
14446,note_on,0,0,0,,10,,,69,127
14446,note_on,0,0,0,,11,,,58,127
14616,note_off,170,0,0,,10,,,69,127
14616,note_off,0,0,0,,3,,,75,127
14617,note_on,1,0,0,,1,,,73,127
14617,note_on,0,0,0,,11,,,70,127
14787,note_off,170,0,0,,11,,,70,127
14787,note_off,0,0,0,,1,,,73,127
14788,note_on,1,0,0,,3,,,75,127
14788,note_on,0,0,0,,10,,,69,127
14958,note_off,170,0,0,,10,,,69,127
14958,note_off,0,0,0,,3,,,75,127
14958,note_off,0,0,0,,11,,,58,127
14958,note_off,0,0,0,,5,,,77,127
14959,note_on,1,0,0,,5,,,77,127
14959,note_on,0,0,0,,1,,,73,127
14959,note_on,0,0,0,,11,,,58,127
14959,note_on,0,0,0,,11,,,70,127
15129,note_off,170,0,0,,11,,,70,127
15129,note_off,0,0,0,,1,,,73,127
15130,note_on,1,0,0,,3,,,75,127
15130,note_on,0,0,0,,10,,,69,127
15299,note_off,169,0,0,,5,,,77,127
15300,note_off,1,0,0,,10,,,69,127
15300,note_off,0,0,0,,3,,,75,127
15301,note_on,1,0,0,,5,,,77,127
15301,note_on,0,0,0,,5,,,65,127
15471,note_off,170,0,0,,5,,,65,127
15471,note_off,0,0,0,,5,,,77,127
15471,note_off,0,0,0,,11,,,58,127
15472,note_on,1,0,0,,11,,,70,127
15472,note_on,0,0,0,,11,,,82,127
15472,note_on,0,0,0,,11,,,58,127
15643,note_on,171,0,0,,0,,,60,127
15813,note_off,170,0,0,,0,,,60,127
15813,note_off,0,0,0,,11,,,82,127
15814,note_on,1,0,0,,8,,,80,127
15814,note_on,0,0,0,,1,,,61,127
15984,note_off,170,0,0,,1,,,61,127
15984,note_off,0,0,0,,8,,,80,127
15984,note_off,0,0,0,,11,,,58,127
15984,note_off,0,0,0,,11,,,70,127
15985,note_on,1,0,0,,6,,,78,127
15985,note_on,0,0,0,,11,,,70,127
15985,note_on,0,0,0,,11,,,58,127
15985,note_on,0,0,0,,3,,,63,127
16155,note_off,170,0,0,,3,,,63,127
16155,note_off,0,0,0,,6,,,78,127
16156,note_on,1,0,0,,5,,,77,127
16156,note_on,0,0,0,,5,,,65,127
16326,note_off,170,0,0,,5,,,65,127
16326,note_off,0,0,0,,5,,,77,127
16327,note_on,1,0,0,,3,,,75,127
16327,note_on,0,0,0,,6,,,66,127
16497,note_off,170,0,0,,6,,,66,127
16497,note_off,0,0,0,,3,,,75,127
16497,note_off,0,0,0,,11,,,58,127
16497,note_off,0,0,0,,11,,,70,127
16498,note_on,1,0,0,,5,,,77,127
16498,note_on,0,0,0,,3,,,75,127
16498,note_on,0,0,0,,10,,,69,127
16498,note_on,0,0,0,,11,,,58,127
16668,note_off,170,0,0,,10,,,69,127
16668,note_off,0,0,0,,3,,,75,127
16669,note_on,1,0,0,,1,,,73,127
16669,note_on,0,0,0,,11,,,70,127
16839,note_off,170,0,0,,11,,,70,127
16839,note_off,0,0,0,,1,,,73,127
16840,note_on,1,0,0,,3,,,75,127
16840,note_on,0,0,0,,10,,,69,127
17010,note_off,170,0,0,,10,,,69,127
17010,note_off,0,0,0,,3,,,75,127
17010,note_off,0,0,0,,11,,,58,127
17010,note_off,0,0,0,,5,,,77,127
17011,note_on,1,0,0,,1,,,73,127
17011,note_on,0,0,0,,5,,,77,127
17011,note_on,0,0,0,,11,,,70,127
17011,note_on,0,0,0,,11,,,58,127
17181,note_off,170,0,0,,11,,,70,127
17181,note_off,0,0,0,,1,,,73,127
17182,note_on,1,0,0,,3,,,75,127
17182,note_on,0,0,0,,10,,,69,127
17352,note_off,170,0,0,,10,,,69,127
17352,note_off,0,0,0,,3,,,75,127
17352,note_off,0,0,0,,5,,,77,127
17353,note_on,1,0,0,,5,,,77,127
17353,note_on,0,0,0,,5,,,65,127
17523,note_off,170,0,0,,5,,,65,127
17523,note_off,0,0,0,,5,,,77,127
17523,note_off,0,0,0,,11,,,58,127
17524,note_on,1,0,0,,1,,,73,127
17524,note_on,0,0,0,,11,,,70,127
17694,note_off,170,0,0,,1,,,73,127
17695,note_on,1,0,0,,3,,,75,127
17865,note_off,170,0,0,,3,,,75,127
17865,note_off,0,0,0,,11,,,70,127
17866,note_on,1,0,0,,5,,,77,127
17866,note_on,0,0,0,,0,,,72,127
17866,note_on,0,0,0,,8,,,68,127
18036,note_off,170,0,0,,8,,,68,127
18036,note_off,0,0,0,,0,,,72,127
18036,note_off,0,0,0,,5,,,77,127
18037,note_on,1,0,0,,7,,,79,127
18037,note_on,0,0,0,,12,,,71,127
18037,note_on,0,0,0,,7,,,67,127
18207,note_off,170,0,0,,7,,,67,127
18207,note_off,0,0,0,,12,,,71,127
18208,note_on,1,0,0,,0,,,72,127
18208,note_on,0,0,0,,10,,,69,127
18378,note_off,170,0,0,,10,,,69,127
18378,note_off,0,0,0,,0,,,72,127
18378,note_off,0,0,0,,7,,,79,127
18379,note_on,1,0,0,,2,,,74,127
18379,note_on,0,0,0,,5,,,77,127
18379,note_on,0,0,0,,12,,,71,127
18530,note_off,151,0,0,,5,,,77,127
18530,note_off,0,0,0,,2,,,74,127
18549,note_off,19,0,0,,12,,,71,127
18550,note_on,1,0,0,,0,,,72,127
18550,note_on,0,0,0,,0,,,84,127
18550,note_on,0,0,0,,0,,,60,127
18721,note_on,171,0,0,,2,,,62,127
18891,note_off,170,0,0,,2,,,62,127
18891,note_off,0,0,0,,0,,,84,127
18892,note_on,1,0,0,,11,,,82,127
18892,note_on,0,0,0,,4,,,64,127
19062,note_off,170,0,0,,4,,,64,127
19062,note_off,0,0,0,,11,,,82,127
19062,note_off,0,0,0,,0,,,60,127
19062,note_off,0,0,0,,0,,,72,127
19063,note_on,1,0,0,,8,,,80,127
19063,note_on,0,0,0,,0,,,72,127
19063,note_on,0,0,0,,0,,,60,127
19063,note_on,0,0,0,,5,,,65,127
19233,note_off,170,0,0,,5,,,65,127
19233,note_off,0,0,0,,8,,,80,127
19234,note_on,1,0,0,,7,,,79,127
19234,note_on,0,0,0,,7,,,67,127
19404,note_off,170,0,0,,7,,,67,127
19404,note_off,0,0,0,,7,,,79,127
19405,note_on,1,0,0,,5,,,77,127
19405,note_on,0,0,0,,8,,,68,127
19575,note_off,170,0,0,,8,,,68,127
19575,note_off,0,0,0,,5,,,77,127
19575,note_off,0,0,0,,0,,,60,127
19575,note_off,0,0,0,,0,,,72,127
19576,note_on,1,0,0,,7,,,79,127
19576,note_on,0,0,0,,5,,,77,127
19576,note_on,0,0,0,,12,,,71,127
19576,note_on,0,0,0,,0,,,60,127
19746,note_off,170,0,0,,12,,,71,127
19746,note_off,0,0,0,,5,,,77,127
19747,note_on,1,0,0,,3,,,75,127
19747,note_on,0,0,0,,0,,,72,127
19917,note_off,170,0,0,,0,,,72,127
19917,note_off,0,0,0,,3,,,75,127
19918,note_on,1,0,0,,5,,,77,127
19918,note_on,0,0,0,,12,,,71,127
20088,note_off,170,0,0,,12,,,71,127
20088,note_off,0,0,0,,5,,,77,127
20088,note_off,0,0,0,,0,,,60,127
20088,note_off,0,0,0,,7,,,79,127
20089,note_on,1,0,0,,7,,,79,127
20089,note_on,0,0,0,,3,,,75,127
20089,note_on,0,0,0,,0,,,72,127
20089,note_on,0,0,0,,0,,,60,127
20259,note_off,170,0,0,,0,,,72,127
20259,note_off,0,0,0,,3,,,75,127
20260,note_on,1,0,0,,5,,,77,127
20260,note_on,0,0,0,,12,,,71,127
20430,note_off,170,0,0,,12,,,71,127
20430,note_off,0,0,0,,5,,,77,127
20430,note_off,0,0,0,,7,,,79,127
20431,note_on,1,0,0,,7,,,79,127
20431,note_on,0,0,0,,7,,,67,127
20601,note_off,170,0,0,,7,,,67,127
20601,note_off,0,0,0,,7,,,79,127
20601,note_off,0,0,0,,0,,,60,127
20602,note_on,1,0,0,,0,,,72,127
20602,note_on,0,0,0,,0,,,84,127
20602,note_on,0,0,0,,0,,,60,127
20773,note_on,171,0,0,,2,,,62,127
20943,note_off,170,0,0,,2,,,62,127
20943,note_off,0,0,0,,0,,,84,127
20944,note_on,1,0,0,,11,,,82,127
20944,note_on,0,0,0,,3,,,63,127
21114,note_off,170,0,0,,3,,,63,127
21114,note_off,0,0,0,,11,,,82,127
21114,note_off,0,0,0,,0,,,60,127
21114,note_off,0,0,0,,0,,,72,127
21115,note_on,1,0,0,,8,,,80,127
21115,note_on,0,0,0,,0,,,72,127
21115,note_on,0,0,0,,0,,,60,127
21115,note_on,0,0,0,,5,,,65,127
21285,note_off,170,0,0,,5,,,65,127
21285,note_off,0,0,0,,8,,,80,127
21286,note_on,1,0,0,,7,,,79,127
21286,note_on,0,0,0,,7,,,67,127
21456,note_off,170,0,0,,7,,,67,127
21456,note_off,0,0,0,,7,,,79,127
21457,note_on,1,0,0,,5,,,77,127
21457,note_on,0,0,0,,8,,,68,127
21627,note_off,170,0,0,,8,,,68,127
21627,note_off,0,0,0,,5,,,77,127
21627,note_off,0,0,0,,0,,,60,127
21627,note_off,0,0,0,,0,,,72,127
21628,note_on,1,0,0,,5,,,77,127
21628,note_on,0,0,0,,7,,,79,127
21628,note_on,0,0,0,,12,,,71,127
21628,note_on,0,0,0,,0,,,60,127
21798,note_off,170,0,0,,12,,,71,127
21798,note_off,0,0,0,,5,,,77,127
21799,note_on,1,0,0,,3,,,75,127
21799,note_on,0,0,0,,0,,,72,127
21969,note_off,170,0,0,,0,,,72,127
21969,note_off,0,0,0,,3,,,75,127
21970,note_on,1,0,0,,5,,,77,127
21970,note_on,0,0,0,,12,,,71,127
22140,note_off,170,0,0,,12,,,71,127
22140,note_off,0,0,0,,5,,,77,127
22140,note_off,0,0,0,,0,,,60,127
22140,note_off,0,0,0,,7,,,79,127
22141,note_on,1,0,0,,3,,,75,127
22141,note_on,0,0,0,,7,,,79,127
22141,note_on,0,0,0,,0,,,60,127
22141,note_on,0,0,0,,0,,,72,127
22311,note_off,170,0,0,,0,,,72,127
22311,note_off,0,0,0,,3,,,75,127
22312,note_on,1,0,0,,5,,,77,127
22312,note_on,0,0,0,,12,,,71,127
22482,note_off,170,0,0,,12,,,71,127
22482,note_off,0,0,0,,5,,,77,127
22482,note_off,0,0,0,,7,,,79,127
22483,note_on,1,0,0,,7,,,79,127
22483,note_on,0,0,0,,7,,,67,127
22653,note_off,170,0,0,,7,,,67,127
22653,note_off,0,0,0,,7,,,79,127
22653,note_off,0,0,0,,0,,,60,127
22654,note_on,1,0,0,,3,,,75,127
22654,note_on,0,0,0,,0,,,72,127
22824,note_off,170,0,0,,3,,,75,127
22825,note_on,1,0,0,,5,,,77,127
22995,note_off,170,0,0,,5,,,77,127
22995,note_off,0,0,0,,0,,,72,127
22996,note_on,1,0,0,,7,,,79,127
22996,note_on,0,0,0,,11,,,70,127
23166,note_off,170,0,0,,11,,,70,127
23166,note_off,0,0,0,,7,,,79,127
23167,note_on,1,0,0,,0,,,72,127
23167,note_on,0,0,0,,8,,,68,127
23337,note_off,170,0,0,,0,,,72,127
23338,note_on,1,0,0,,2,,,74,127
23508,note_off,170,0,0,,2,,,74,127
23508,note_off,0,0,0,,8,,,68,127
23509,note_on,1,0,0,,3,,,75,127
23509,note_on,0,0,0,,7,,,67,127
23679,note_off,170,0,0,,7,,,67,127
23679,note_off,0,0,0,,3,,,75,127
23680,note_on,1,0,0,,2,,,74,127
23680,note_on,0,0,0,,5,,,65,127
23850,note_off,170,0,0,,2,,,74,127
23851,note_on,1,0,0,,3,,,75,127
24021,note_off,170,0,0,,3,,,75,127
24021,note_off,0,0,0,,5,,,65,127
24022,note_on,1,0,0,,5,,,77,127
24022,note_on,0,0,0,,7,,,67,127
24192,note_off,170,0,0,,7,,,67,127
24192,note_off,0,0,0,,5,,,77,127
24193,note_on,1,0,0,,5,,,77,127
24193,note_on,0,0,0,,8,,,56,127
24277,note_off,84,0,0,,5,,,77,127
24278,note_on,1,0,0,,3,,,75,127
24362,note_off,84,0,0,,3,,,75,127
24363,note_on,1,0,0,,2,,,74,127
24533,note_off,170,0,0,,2,,,74,127
24534,note_on,1,0,0,,0,,,72,127
24704,note_off,170,0,0,,0,,,72,127
24704,note_off,0,0,0,,8,,,56,127
24705,note_on,1,0,0,,3,,,75,127
24705,note_on,0,0,0,,7,,,55,127
24761,note_off,56,0,0,,3,,,75,127
24762,note_on,1,0,0,,2,,,74,127
24818,note_off,56,0,0,,2,,,74,127
24819,note_on,1,0,0,,3,,,75,127
24875,note_off,56,0,0,,3,,,75,127
24876,note_on,1,0,0,,2,,,74,127
24932,note_off,56,0,0,,2,,,74,127
24933,note_on,1,0,0,,3,,,75,127
24989,note_off,56,0,0,,3,,,75,127
24990,note_on,1,0,0,,2,,,74,127
25046,note_off,56,0,0,,2,,,74,127
25047,note_on,1,0,0,,0,,,72,127
25089,note_off,42,0,0,,0,,,72,127
25090,note_on,1,0,0,,2,,,74,127
25132,note_off,42,0,0,,2,,,74,127
25133,note_on,1,0,0,,3,,,75,127
25175,note_off,42,0,0,,3,,,75,127
25176,note_on,1,0,0,,5,,,77,127
25218,note_off,42,0,0,,5,,,77,127
25218,note_off,0,0,0,,7,,,55,127
25219,note_on,1,0,0,,2,,,74,127
25219,note_on,0,0,0,,8,,,68,127
25389,note_off,170,0,0,,8,,,68,127
25390,note_on,1,0,0,,5,,,65,127
25560,note_off,170,0,0,,5,,,65,127
25561,note_on,1,0,0,,2,,,62,127
25731,note_off,170,0,0,,2,,,62,127
25732,note_on,1,0,0,,12,,,59,127
25902,note_off,170,0,0,,12,,,59,127
25903,note_on,1,0,0,,8,,,56,127
26073,note_off,170,0,0,,8,,,56,127
26074,note_on,1,0,0,,5,,,53,127
26244,note_off,170,0,0,,5,,,53,127
26245,note_on,1,0,0,,2,,,50,127
26415,note_off,170,0,0,,2,,,50,127
26416,note_on,1,0,0,,12,,,47,127
26586,note_off,170,0,0,,12,,,47,127
26587,note_on,1,0,0,,8,,,44,127
26757,note_off,170,0,0,,8,,,44,127
26757,note_off,0,0,0,,2,,,74,127
26758,note_on,1,0,0,,3,,,75,127
26758,note_on,0,0,0,,7,,,31,127
26758,note_on,0,0,0,,7,,,43,127
26814,note_off,56,0,0,,3,,,75,127
26815,note_on,1,0,0,,2,,,74,127
26871,note_off,56,0,0,,2,,,74,127
26872,note_on,1,0,0,,3,,,75,127
26928,note_off,56,0,0,,3,,,75,127
26929,note_on,1,0,0,,2,,,74,127
26985,note_off,56,0,0,,2,,,74,127
26986,note_on,1,0,0,,3,,,75,127
27042,note_off,56,0,0,,3,,,75,127
27043,note_on,1,0,0,,2,,,74,127
27099,note_off,56,0,0,,2,,,74,127
27100,note_on,1,0,0,,0,,,72,127
27142,note_off,42,0,0,,0,,,72,127
27143,note_on,1,0,0,,2,,,74,127
27185,note_off,42,0,0,,2,,,74,127
27186,note_on,1,0,0,,3,,,75,127
27228,note_off,42,0,0,,3,,,75,127
27229,note_on,1,0,0,,5,,,77,127
27271,note_off,42,0,0,,5,,,77,127
27271,note_off,0,0,0,,7,,,43,127
27271,note_off,0,0,0,,7,,,31,127
27272,note_on,1,0,0,,2,,,74,127
27272,note_on,0,0,0,,8,,,68,127
27442,note_off,170,0,0,,8,,,68,127
27443,note_on,1,0,0,,5,,,65,127
27613,note_off,170,0,0,,5,,,65,127
27614,note_on,1,0,0,,2,,,62,127
27784,note_off,170,0,0,,2,,,62,127
27785,note_on,1,0,0,,12,,,59,127
27955,note_off,170,0,0,,12,,,59,127
27956,note_on,1,0,0,,8,,,56,127
28126,note_off,170,0,0,,8,,,56,127
28127,note_on,1,0,0,,5,,,53,127
28297,note_off,170,0,0,,5,,,53,127
28298,note_on,1,0,0,,2,,,50,127
28468,note_off,170,0,0,,2,,,50,127
28469,note_on,1,0,0,,12,,,47,127
28639,note_off,170,0,0,,12,,,47,127
28640,note_on,1,0,0,,8,,,44,127
28810,note_off,170,0,0,,8,,,44,127
28810,note_off,0,0,0,,2,,,74,127
28811,note_on,1,0,0,,3,,,75,127
28811,note_on,0,0,0,,7,,,31,127
28811,note_on,0,0,0,,7,,,43,127
28867,note_off,56,0,0,,3,,,75,127
28868,note_on,1,0,0,,2,,,74,127
28924,note_off,56,0,0,,2,,,74,127
28925,note_on,1,0,0,,3,,,75,127
28981,note_off,56,0,0,,3,,,75,127
28982,note_on,1,0,0,,2,,,74,127
29038,note_off,56,0,0,,2,,,74,127
29039,note_on,1,0,0,,3,,,75,127
29095,note_off,56,0,0,,3,,,75,127
29096,note_on,1,0,0,,2,,,74,127
29152,note_off,56,0,0,,2,,,74,127
29153,note_on,1,0,0,,0,,,72,127
29195,note_off,42,0,0,,0,,,72,127
29196,note_on,1,0,0,,2,,,74,127
29238,note_off,42,0,0,,2,,,74,127
29239,note_on,1,0,0,,3,,,75,127
29281,note_off,42,0,0,,3,,,75,127
29282,note_on,1,0,0,,5,,,77,127
29324,note_off,42,0,0,,5,,,77,127
29324,note_off,0,0,0,,7,,,43,127
29324,note_off,0,0,0,,7,,,31,127
29325,note_on,1,0,0,,2,,,74,127
29325,note_on,0,0,0,,7,,,31,127
29325,note_on,0,0,0,,7,,,43,127
29495,note_off,170,0,0,,7,,,43,127
29495,note_off,0,0,0,,7,,,31,127
29496,note_on,1,0,0,,7,,,67,127
29496,note_on,0,0,0,,10,,,33,127
29496,note_on,0,0,0,,10,,,45,127
29666,note_off,170,0,0,,10,,,45,127
29666,note_off,0,0,0,,10,,,33,127
29666,note_off,0,0,0,,7,,,67,127
29666,note_off,0,0,0,,2,,,74,127
29667,note_on,1,0,0,,7,,,79,127
29667,note_on,0,0,0,,12,,,35,127
29667,note_on,0,0,0,,12,,,47,127
29837,note_off,170,0,0,,12,,,47,127
29837,note_off,0,0,0,,12,,,35,127
29837,note_off,0,0,0,,7,,,79,127
29838,note_on,1,0,0,,5,,,77,127
29838,note_on,0,0,0,,0,,,36,127
29838,note_on,0,0,0,,0,,,48,127
29922,note_off,84,0,0,,5,,,77,127
29923,note_on,1,0,0,,3,,,75,127
30007,note_off,84,0,0,,3,,,75,127
30007,note_off,0,0,0,,0,,,48,127
30007,note_off,0,0,0,,0,,,36,127
30008,note_on,1,0,0,,2,,,74,127
30008,note_on,0,0,0,,2,,,50,127
30008,note_on,0,0,0,,2,,,38,127
30178,note_off,170,0,0,,2,,,38,127
30178,note_off,0,0,0,,2,,,50,127
30178,note_off,0,0,0,,2,,,74,127
30179,note_on,1,0,0,,0,,,72,127
30179,note_on,0,0,0,,3,,,51,127
30179,note_on,0,0,0,,3,,,39,127
30349,note_off,170,0,0,,3,,,39,127
30349,note_off,0,0,0,,3,,,51,127
30349,note_off,0,0,0,,0,,,72,127
30350,note_on,1,0,0,,2,,,74,127
30350,note_on,0,0,0,,5,,,41,127
30350,note_on,0,0,0,,5,,,53,127
30520,note_off,170,0,0,,5,,,53,127
30520,note_off,0,0,0,,5,,,41,127
30520,note_off,0,0,0,,2,,,74,127
30521,note_on,1,0,0,,0,,,72,127
30521,note_on,0,0,0,,7,,,55,127
30691,note_off,170,0,0,,7,,,55,127
30691,note_off,0,0,0,,0,,,72,127
30692,note_on,1,0,0,,12,,,71,127
30692,note_on,0,0,0,,7,,,43,127
30862,note_off,170,0,0,,7,,,43,127
30862,note_off,0,0,0,,12,,,71,127
30863,note_on,1,0,0,,2,,,74,127
30863,note_on,0,0,0,,0,,,48,127
30863,note_on,0,0,0,,0,,,36,127
30919,note_off,56,0,0,,2,,,74,127
30920,note_on,1,0,0,,0,,,72,127
30976,note_off,56,0,0,,0,,,72,127
30977,note_on,1,0,0,,2,,,74,127
31033,note_off,56,0,0,,2,,,74,127
31034,note_on,1,0,0,,0,,,72,127
31090,note_off,56,0,0,,0,,,72,127
31091,note_on,1,0,0,,2,,,74,127
31147,note_off,56,0,0,,2,,,74,127
31148,note_on,1,0,0,,0,,,72,127
31204,note_off,56,0,0,,0,,,72,127
31205,note_on,1,0,0,,2,,,74,127
31261,note_off,56,0,0,,2,,,74,127
31262,note_on,1,0,0,,3,,,75,127
31290,note_off,28,0,0,,0,,,36,127
31290,note_off,0,0,0,,0,,,48,127
31318,note_off,28,0,0,,3,,,75,127
31319,note_on,1,0,0,,5,,,77,127
31375,note_off,56,0,0,,5,,,77,127
31376,note_on,1,0,0,,2,,,74,127
31376,note_on,0,0,0,,8,,,68,127
31546,note_off,170,0,0,,8,,,68,127
31547,note_on,1,0,0,,5,,,65,127
31717,note_off,170,0,0,,5,,,65,127
31718,note_on,1,0,0,,2,,,62,127
31888,note_off,170,0,0,,2,,,62,127
31889,note_on,1,0,0,,12,,,59,127
32059,note_off,170,0,0,,12,,,59,127
32060,note_on,1,0,0,,8,,,56,127
32230,note_off,170,0,0,,8,,,56,127
32231,note_on,1,0,0,,5,,,53,127
32401,note_off,170,0,0,,5,,,53,127
32402,note_on,1,0,0,,2,,,50,127
32572,note_off,170,0,0,,2,,,50,127
32573,note_on,1,0,0,,12,,,47,127
32743,note_off,170,0,0,,12,,,47,127
32744,note_on,1,0,0,,8,,,44,127
32914,note_off,170,0,0,,8,,,44,127
32914,note_off,0,0,0,,2,,,74,127
32915,note_on,1,0,0,,3,,,75,127
32915,note_on,0,0,0,,7,,,31,127
32915,note_on,0,0,0,,7,,,43,127
32971,note_off,56,0,0,,3,,,75,127
32972,note_on,1,0,0,,2,,,74,127
33028,note_off,56,0,0,,2,,,74,127
33029,note_on,1,0,0,,3,,,75,127
33085,note_off,56,0,0,,3,,,75,127
33086,note_on,1,0,0,,2,,,74,127
33142,note_off,56,0,0,,2,,,74,127
33143,note_on,1,0,0,,3,,,75,127
33199,note_off,56,0,0,,3,,,75,127
33200,note_on,1,0,0,,2,,,74,127
33256,note_off,56,0,0,,2,,,74,127
33257,note_on,1,0,0,,0,,,72,127
33299,note_off,42,0,0,,0,,,72,127
33300,note_on,1,0,0,,2,,,74,127
33342,note_off,42,0,0,,2,,,74,127
33343,note_on,1,0,0,,3,,,75,127
33385,note_off,42,0,0,,3,,,75,127
33386,note_on,1,0,0,,5,,,77,127
33428,note_off,42,0,0,,5,,,77,127
33428,note_off,0,0,0,,7,,,43,127
33428,note_off,0,0,0,,7,,,31,127
33429,note_on,1,0,0,,2,,,74,127
33429,note_on,0,0,0,,8,,,68,127
33599,note_off,170,0,0,,8,,,68,127
33600,note_on,1,0,0,,5,,,65,127
33770,note_off,170,0,0,,5,,,65,127
33771,note_on,1,0,0,,2,,,62,127
33941,note_off,170,0,0,,2,,,62,127
33942,note_on,1,0,0,,12,,,59,127
34112,note_off,170,0,0,,12,,,59,127
34113,note_on,1,0,0,,8,,,56,127
34283,note_off,170,0,0,,8,,,56,127
34284,note_on,1,0,0,,5,,,53,127
34454,note_off,170,0,0,,5,,,53,127
34455,note_on,1,0,0,,2,,,50,127
34625,note_off,170,0,0,,2,,,50,127
34626,note_on,1,0,0,,12,,,47,127
34796,note_off,170,0,0,,12,,,47,127
34797,note_on,1,0,0,,8,,,44,127
34967,note_off,170,0,0,,8,,,44,127
34967,note_off,0,0,0,,2,,,74,127
34968,note_on,1,0,0,,3,,,75,127
34968,note_on,0,0,0,,7,,,31,127
34968,note_on,0,0,0,,7,,,43,127
35024,note_off,56,0,0,,3,,,75,127
35025,note_on,1,0,0,,2,,,74,127
35081,note_off,56,0,0,,2,,,74,127
35082,note_on,1,0,0,,3,,,75,127
35138,note_off,56,0,0,,3,,,75,127
35139,note_on,1,0,0,,2,,,74,127
35195,note_off,56,0,0,,2,,,74,127
35196,note_on,1,0,0,,3,,,75,127
35252,note_off,56,0,0,,3,,,75,127
35253,note_on,1,0,0,,2,,,74,127
35309,note_off,56,0,0,,2,,,74,127
35310,note_on,1,0,0,,0,,,72,127
35352,note_off,42,0,0,,0,,,72,127
35353,note_on,1,0,0,,2,,,74,127
35395,note_off,42,0,0,,2,,,74,127
35396,note_on,1,0,0,,3,,,75,127
35438,note_off,42,0,0,,3,,,75,127
35439,note_on,1,0,0,,5,,,77,127
35481,note_off,42,0,0,,5,,,77,127
35481,note_off,0,0,0,,7,,,43,127
35481,note_off,0,0,0,,7,,,31,127
35482,note_on,1,0,0,,2,,,74,127
35482,note_on,0,0,0,,7,,,31,127
35482,note_on,0,0,0,,7,,,43,127
35652,note_off,170,0,0,,7,,,43,127
35652,note_off,0,0,0,,7,,,31,127
35653,note_on,1,0,0,,7,,,67,127
35653,note_on,0,0,0,,10,,,33,127
35653,note_on,0,0,0,,10,,,45,127
35823,note_off,170,0,0,,10,,,45,127
35823,note_off,0,0,0,,10,,,33,127
35823,note_off,0,0,0,,7,,,67,127
35823,note_off,0,0,0,,2,,,74,127
35824,note_on,1,0,0,,7,,,79,127
35824,note_on,0,0,0,,12,,,35,127
35824,note_on,0,0,0,,12,,,47,127
35994,note_off,170,0,0,,12,,,47,127
35994,note_off,0,0,0,,12,,,35,127
35994,note_off,0,0,0,,7,,,79,127
35995,note_on,1,0,0,,5,,,77,127
35995,note_on,0,0,0,,0,,,48,127
35995,note_on,0,0,0,,0,,,36,127
36079,note_off,84,0,0,,5,,,77,127
36080,note_on,1,0,0,,3,,,75,127
36164,note_off,84,0,0,,3,,,75,127
36164,note_off,0,0,0,,0,,,36,127
36164,note_off,0,0,0,,0,,,48,127
36165,note_on,1,0,0,,2,,,74,127
36165,note_on,0,0,0,,2,,,38,127
36165,note_on,0,0,0,,2,,,50,127
36335,note_off,170,0,0,,2,,,50,127
36335,note_off,0,0,0,,2,,,38,127
36335,note_off,0,0,0,,2,,,74,127
36336,note_on,1,0,0,,0,,,72,127
36336,note_on,0,0,0,,3,,,39,127
36336,note_on,0,0,0,,3,,,51,127
36506,note_off,170,0,0,,3,,,51,127
36506,note_off,0,0,0,,3,,,39,127
36506,note_off,0,0,0,,0,,,72,127
36507,note_on,1,0,0,,2,,,74,127
36507,note_on,0,0,0,,5,,,53,127
36507,note_on,0,0,0,,5,,,41,127
36677,note_off,170,0,0,,5,,,41,127
36677,note_off,0,0,0,,5,,,53,127
36677,note_off,0,0,0,,2,,,74,127
36678,note_on,1,0,0,,0,,,72,127
36678,note_on,0,0,0,,7,,,55,127
36848,note_off,170,0,0,,7,,,55,127
36848,note_off,0,0,0,,0,,,72,127
36849,note_on,1,0,0,,12,,,71,127
36849,note_on,0,0,0,,7,,,43,127
37019,note_off,170,0,0,,7,,,43,127
37019,note_off,0,0,0,,12,,,71,127
37020,note_on,1,0,0,,0,,,72,127
37020,note_on,0,0,0,,0,,,36,127
37148,note_off,128,0,0,,0,,,72,127
37190,note_off,42,0,0,,0,,,36,127
37191,note_on,1,0,0,,4,,,64,127
37191,note_on,0,0,0,,4,,,76,127
37191,note_on,0,0,0,,0,,,60,127
37361,note_off,170,0,0,,0,,,60,127
37361,note_off,0,0,0,,4,,,76,127
37361,note_off,0,0,0,,4,,,64,127
37362,note_on,1,0,0,,2,,,74,127
37362,note_on,0,0,0,,2,,,62,127
37362,note_on,0,0,0,,7,,,55,127
37532,note_off,170,0,0,,7,,,55,127
37532,note_off,0,0,0,,2,,,62,127
37532,note_off,0,0,0,,2,,,74,127
37533,note_on,1,0,0,,4,,,76,127
37533,note_on,0,0,0,,4,,,64,127
37533,note_on,0,0,0,,0,,,60,127
37703,note_off,170,0,0,,0,,,60,127
37703,note_off,0,0,0,,4,,,64,127
37703,note_off,0,0,0,,4,,,76,127
37704,note_on,1,0,0,,2,,,74,127
37704,note_on,0,0,0,,2,,,62,127
37704,note_on,0,0,0,,7,,,55,127
37874,note_off,170,0,0,,7,,,55,127
37874,note_off,0,0,0,,2,,,62,127
37874,note_off,0,0,0,,2,,,74,127
37875,note_on,1,0,0,,4,,,64,127
37875,note_on,0,0,0,,4,,,76,127
37875,note_on,0,0,0,,0,,,60,127
38045,note_off,170,0,0,,0,,,60,127
38045,note_off,0,0,0,,4,,,76,127
38045,note_off,0,0,0,,4,,,64,127
38046,note_on,1,0,0,,2,,,62,127
38046,note_on,0,0,0,,2,,,74,127
38046,note_on,0,0,0,,7,,,55,127
38216,note_off,170,0,0,,7,,,55,127
38216,note_off,0,0,0,,2,,,74,127
38216,note_off,0,0,0,,2,,,62,127
38217,note_on,1,0,0,,4,,,64,127
38217,note_on,0,0,0,,4,,,76,127
38217,note_on,0,0,0,,0,,,60,127
38387,note_off,170,0,0,,0,,,60,127
38387,note_off,0,0,0,,4,,,76,127
38387,note_off,0,0,0,,4,,,64,127
38388,note_on,1,0,0,,2,,,74,127
38388,note_on,0,0,0,,2,,,62,127
38388,note_on,0,0,0,,7,,,55,127
38558,note_off,170,0,0,,7,,,55,127
38558,note_off,0,0,0,,2,,,62,127
38558,note_off,0,0,0,,2,,,74,127
38559,note_on,1,0,0,,4,,,76,127
38559,note_on,0,0,0,,4,,,64,127
38559,note_on,0,0,0,,0,,,60,127
38729,note_off,170,0,0,,0,,,60,127
38729,note_off,0,0,0,,4,,,64,127
38729,note_off,0,0,0,,4,,,76,127
38730,note_on,1,0,0,,2,,,62,127
38730,note_on,0,0,0,,2,,,74,127
38730,note_on,0,0,0,,7,,,55,127
38900,note_off,170,0,0,,7,,,55,127
38900,note_off,0,0,0,,2,,,74,127
38900,note_off,0,0,0,,2,,,62,127
38901,note_on,1,0,0,,4,,,64,127
38901,note_on,0,0,0,,4,,,76,127
38901,note_on,0,0,0,,0,,,60,127
39071,note_off,170,0,0,,0,,,60,127
39071,note_off,0,0,0,,4,,,76,127
39071,note_off,0,0,0,,4,,,64,127
39072,note_on,1,0,0,,2,,,74,127
39072,note_on,0,0,0,,2,,,62,127
39072,note_on,0,0,0,,7,,,55,127
39242,note_off,170,0,0,,7,,,55,127
39242,note_off,0,0,0,,2,,,62,127
39242,note_off,0,0,0,,2,,,74,127
39243,note_on,1,0,0,,7,,,67,127
39243,note_on,0,0,0,,7,,,79,127
39243,note_on,0,0,0,,4,,,52,127
39413,note_off,170,0,0,,4,,,52,127
39413,note_off,0,0,0,,7,,,79,127
39413,note_off,0,0,0,,7,,,67,127
39414,note_on,1,0,0,,10,,,69,127
39414,note_on,0,0,0,,7,,,79,127
39414,note_on,0,0,0,,5,,,53,127
39584,note_off,170,0,0,,5,,,53,127
39584,note_off,0,0,0,,7,,,79,127
39584,note_off,0,0,0,,10,,,69,127
39585,note_on,1,0,0,,12,,,71,127
39585,note_on,0,0,0,,7,,,79,127
39585,note_on,0,0,0,,7,,,55,127
39755,note_off,170,0,0,,7,,,55,127
39755,note_off,0,0,0,,7,,,79,127
39755,note_off,0,0,0,,12,,,71,127
39756,note_on,1,0,0,,7,,,79,127
39756,note_on,0,0,0,,0,,,72,127
39756,note_on,0,0,0,,10,,,57,127
39926,note_off,170,0,0,,10,,,57,127
39926,note_off,0,0,0,,0,,,72,127
39926,note_off,0,0,0,,7,,,79,127
39927,note_on,1,0,0,,2,,,74,127
39927,note_on,0,0,0,,7,,,79,127
39927,note_on,0,0,0,,12,,,59,127
40097,note_off,170,0,0,,12,,,59,127
40097,note_off,0,0,0,,7,,,79,127
40097,note_off,0,0,0,,2,,,74,127
40098,note_on,1,0,0,,4,,,76,127
40098,note_on,0,0,0,,7,,,79,127
40098,note_on,0,0,0,,0,,,60,127
40268,note_off,170,0,0,,7,,,79,127
40268,note_off,0,0,0,,4,,,76,127
40269,note_on,1,0,0,,5,,,77,127
40269,note_on,0,0,0,,2,,,74,127
40439,note_off,170,0,0,,2,,,74,127
40439,note_off,0,0,0,,5,,,77,127
40439,note_off,0,0,0,,0,,,60,127
40440,note_on,1,0,0,,0,,,72,127
40440,note_on,0,0,0,,4,,,76,127
40440,note_on,0,0,0,,0,,,48,127
40610,note_off,170,0,0,,0,,,48,127
40610,note_off,0,0,0,,4,,,76,127
40610,note_off,0,0,0,,0,,,72,127
40611,note_on,1,0,0,,2,,,74,127
40611,note_on,0,0,0,,5,,,77,127
40611,note_on,0,0,0,,5,,,53,127
40781,note_off,170,0,0,,5,,,53,127
40781,note_off,0,0,0,,5,,,77,127
40781,note_off,0,0,0,,2,,,74,127
40782,note_on,1,0,0,,0,,,72,127
40782,note_on,0,0,0,,4,,,76,127
40782,note_on,0,0,0,,7,,,55,127
40952,note_off,170,0,0,,7,,,55,127
40952,note_off,0,0,0,,4,,,76,127
40952,note_off,0,0,0,,0,,,72,127
40953,note_on,1,0,0,,12,,,71,127
40953,note_on,0,0,0,,2,,,74,127
40953,note_on,0,0,0,,7,,,43,127
41123,note_off,170,0,0,,7,,,43,127
41123,note_off,0,0,0,,2,,,74,127
41123,note_off,0,0,0,,12,,,71,127
41124,note_on,1,0,0,,0,,,72,127
41124,note_on,0,0,0,,0,,,48,127
41294,note_off,170,0,0,,0,,,48,127
41295,note_on,1,0,0,,4,,,64,127
41295,note_on,0,0,0,,4,,,76,127
41295,note_on,0,0,0,,0,,,60,127
41380,note_off,85,0,0,,0,,,72,127
41464,note_off,84,0,0,,0,,,60,127
41464,note_off,0,0,0,,4,,,76,127
41464,note_off,0,0,0,,4,,,64,127
41465,note_on,1,0,0,,2,,,62,127
41465,note_on,0,0,0,,2,,,74,127
41465,note_on,0,0,0,,7,,,55,127
41635,note_off,170,0,0,,7,,,55,127
41635,note_off,0,0,0,,2,,,74,127
41635,note_off,0,0,0,,2,,,62,127
41636,note_on,1,0,0,,4,,,76,127
41636,note_on,0,0,0,,4,,,64,127
41636,note_on,0,0,0,,0,,,60,127
41806,note_off,170,0,0,,0,,,60,127
41806,note_off,0,0,0,,4,,,64,127
41806,note_off,0,0,0,,4,,,76,127
41807,note_on,1,0,0,,2,,,74,127
41807,note_on,0,0,0,,2,,,62,127
41807,note_on,0,0,0,,7,,,55,127
41977,note_off,170,0,0,,7,,,55,127
41977,note_off,0,0,0,,2,,,62,127
41977,note_off,0,0,0,,2,,,74,127
41978,note_on,1,0,0,,4,,,76,127
41978,note_on,0,0,0,,4,,,64,127
41978,note_on,0,0,0,,0,,,60,127
42148,note_off,170,0,0,,0,,,60,127
42148,note_off,0,0,0,,4,,,64,127
42148,note_off,0,0,0,,4,,,76,127
42149,note_on,1,0,0,,2,,,62,127
42149,note_on,0,0,0,,2,,,74,127
42149,note_on,0,0,0,,7,,,55,127
42319,note_off,170,0,0,,7,,,55,127
42319,note_off,0,0,0,,2,,,74,127
42319,note_off,0,0,0,,2,,,62,127
42320,note_on,1,0,0,,4,,,64,127
42320,note_on,0,0,0,,4,,,76,127
42320,note_on,0,0,0,,0,,,60,127
42490,note_off,170,0,0,,0,,,60,127
42490,note_off,0,0,0,,4,,,76,127
42490,note_off,0,0,0,,4,,,64,127
42491,note_on,1,0,0,,2,,,62,127
42491,note_on,0,0,0,,2,,,74,127
42491,note_on,0,0,0,,7,,,55,127
42661,note_off,170,0,0,,7,,,55,127
42661,note_off,0,0,0,,2,,,74,127
42661,note_off,0,0,0,,2,,,62,127
42662,note_on,1,0,0,,4,,,76,127
42662,note_on,0,0,0,,4,,,64,127
42662,note_on,0,0,0,,0,,,60,127
42832,note_off,170,0,0,,0,,,60,127
42832,note_off,0,0,0,,4,,,64,127
42832,note_off,0,0,0,,4,,,76,127
42833,note_on,1,0,0,,2,,,74,127
42833,note_on,0,0,0,,2,,,62,127
42833,note_on,0,0,0,,7,,,55,127
43003,note_off,170,0,0,,7,,,55,127
43003,note_off,0,0,0,,2,,,62,127
43003,note_off,0,0,0,,2,,,74,127
43004,note_on,1,0,0,,4,,,76,127
43004,note_on,0,0,0,,4,,,64,127
43004,note_on,0,0,0,,0,,,60,127
43174,note_off,170,0,0,,0,,,60,127
43174,note_off,0,0,0,,4,,,64,127
43174,note_off,0,0,0,,4,,,76,127
43175,note_on,1,0,0,,2,,,62,127
43175,note_on,0,0,0,,2,,,74,127
43175,note_on,0,0,0,,7,,,55,127
43345,note_off,170,0,0,,7,,,55,127
43345,note_off,0,0,0,,2,,,74,127
43345,note_off,0,0,0,,2,,,62,127
43346,note_on,1,0,0,,7,,,79,127
43346,note_on,0,0,0,,7,,,67,127
43346,note_on,0,0,0,,4,,,52,127
43516,note_off,170,0,0,,4,,,52,127
43516,note_off,0,0,0,,7,,,67,127
43516,note_off,0,0,0,,7,,,79,127
43517,note_on,1,0,0,,7,,,79,127
43517,note_on,0,0,0,,10,,,69,127
43517,note_on,0,0,0,,5,,,53,127
43687,note_off,170,0,0,,5,,,53,127
43687,note_off,0,0,0,,10,,,69,127
43687,note_off,0,0,0,,7,,,79,127
43688,note_on,1,0,0,,12,,,71,127
43688,note_on,0,0,0,,7,,,79,127
43688,note_on,0,0,0,,7,,,55,127
43858,note_off,170,0,0,,7,,,55,127
43858,note_off,0,0,0,,7,,,79,127
43858,note_off,0,0,0,,12,,,71,127
43859,note_on,1,0,0,,0,,,72,127
43859,note_on,0,0,0,,7,,,79,127
43859,note_on,0,0,0,,10,,,57,127
44029,note_off,170,0,0,,10,,,57,127
44029,note_off,0,0,0,,7,,,79,127
44029,note_off,0,0,0,,0,,,72,127
44030,note_on,1,0,0,,2,,,74,127
44030,note_on,0,0,0,,7,,,79,127
44030,note_on,0,0,0,,12,,,59,127
44200,note_off,170,0,0,,12,,,59,127
44200,note_off,0,0,0,,7,,,79,127
44200,note_off,0,0,0,,2,,,74,127
44201,note_on,1,0,0,,4,,,76,127
44201,note_on,0,0,0,,7,,,79,127
44201,note_on,0,0,0,,0,,,60,127
44371,note_off,170,0,0,,7,,,79,127
44371,note_off,0,0,0,,4,,,76,127
44372,note_on,1,0,0,,2,,,74,127
44372,note_on,0,0,0,,5,,,77,127
44542,note_off,170,0,0,,5,,,77,127
44542,note_off,0,0,0,,2,,,74,127
44542,note_off,0,0,0,,0,,,60,127
44543,note_on,1,0,0,,4,,,76,127
44543,note_on,0,0,0,,0,,,72,127
44543,note_on,0,0,0,,0,,,48,127
44713,note_off,170,0,0,,0,,,48,127
44713,note_off,0,0,0,,0,,,72,127
44713,note_off,0,0,0,,4,,,76,127
44714,note_on,1,0,0,,2,,,74,127
44714,note_on,0,0,0,,5,,,77,127
44714,note_on,0,0,0,,5,,,53,127
44884,note_off,170,0,0,,5,,,53,127
44884,note_off,0,0,0,,5,,,77,127
44884,note_off,0,0,0,,2,,,74,127
44885,note_on,1,0,0,,0,,,72,127
44885,note_on,0,0,0,,4,,,76,127
44885,note_on,0,0,0,,7,,,55,127
45055,note_off,170,0,0,,7,,,55,127
45055,note_off,0,0,0,,4,,,76,127
45055,note_off,0,0,0,,0,,,72,127
45056,note_on,1,0,0,,2,,,74,127
45056,note_on,0,0,0,,12,,,71,127
45056,note_on,0,0,0,,7,,,43,127
45226,note_off,170,0,0,,7,,,43,127
45226,note_off,0,0,0,,12,,,71,127
45226,note_off,0,0,0,,2,,,74,127
45227,note_on,1,0,0,,2,,,74,127
45227,note_on,0,0,0,,4,,,52,127
45270,note_on,43,0,0,,0,,,72,127
45284,note_off,14,0,0,,2,,,74,127
45312,note_on,28,0,0,,2,,,74,127
45326,note_off,14,0,0,,0,,,72,127
45354,note_on,28,0,0,,0,,,72,127
45368,note_off,14,0,0,,2,,,74,127
45396,note_off,28,0,0,,4,,,52,127
45397,note_off,1,0,0,,0,,,72,127
45397,note_on,0,0,0,,12,,,71,127
45397,note_on,0,0,0,,2,,,50,127
45567,note_off,170,0,0,,2,,,50,127
45567,note_off,0,0,0,,12,,,71,127
45568,note_on,1,0,0,,0,,,72,127
45568,note_on,0,0,0,,0,,,48,127
45738,note_off,170,0,0,,0,,,48,127
45738,note_off,0,0,0,,0,,,72,127
45739,note_on,1,0,0,,2,,,74,127
45739,note_on,0,0,0,,5,,,53,127
45909,note_off,170,0,0,,5,,,53,127
45909,note_off,0,0,0,,2,,,74,127
45910,note_on,1,0,0,,0,,,72,127
45910,note_on,0,0,0,,7,,,55,127
46080,note_off,170,0,0,,7,,,55,127
46080,note_off,0,0,0,,0,,,72,127
46081,note_on,1,0,0,,12,,,71,127
46081,note_on,0,0,0,,7,,,43,127
46251,note_off,170,0,0,,7,,,43,127
46251,note_off,0,0,0,,12,,,71,127
46252,note_on,1,0,0,,2,,,74,127
46252,note_on,0,0,0,,4,,,52,127
46295,note_on,43,0,0,,0,,,72,127
46309,note_off,14,0,0,,2,,,74,127
46337,note_on,28,0,0,,2,,,74,127
46351,note_off,14,0,0,,0,,,72,127
46379,note_on,28,0,0,,0,,,72,127
46393,note_off,14,0,0,,2,,,74,127
46421,note_off,28,0,0,,4,,,52,127
46422,note_off,1,0,0,,0,,,72,127
46422,note_on,0,0,0,,12,,,71,127
46422,note_on,0,0,0,,2,,,50,127
46592,note_off,170,0,0,,2,,,50,127
46592,note_off,0,0,0,,12,,,71,127
46593,note_on,1,0,0,,0,,,72,127
46593,note_on,0,0,0,,0,,,48,127
46763,note_off,170,0,0,,0,,,48,127
46763,note_off,0,0,0,,0,,,72,127
46764,note_on,1,0,0,,2,,,74,127
46764,note_on,0,0,0,,5,,,53,127
46934,note_off,170,0,0,,5,,,53,127
46934,note_off,0,0,0,,2,,,74,127
46935,note_on,1,0,0,,0,,,72,127
46935,note_on,0,0,0,,7,,,55,127
47105,note_off,170,0,0,,7,,,55,127
47105,note_off,0,0,0,,0,,,72,127
47106,note_on,1,0,0,,12,,,71,127
47106,note_on,0,0,0,,7,,,43,127
47276,note_off,170,0,0,,7,,,43,127
47276,note_off,0,0,0,,12,,,71,127
47277,note_on,1,0,0,,2,,,74,127
47277,note_on,0,0,0,,0,,,48,127
47277,note_on,0,0,0,,0,,,36,127
47319,note_off,42,0,0,,2,,,74,127
47320,note_on,1,0,0,,0,,,72,127
47362,note_off,42,0,0,,0,,,72,127
47363,note_on,1,0,0,,2,,,74,127
47405,note_off,42,0,0,,2,,,74,127
47406,note_on,1,0,0,,0,,,72,127
47917,note_off,511,0,0,,0,,,72,127
48130,note_off,213,0,0,,0,,,36,127
48130,note_off,0,0,0,,0,,,48,127
48131,note_on,1,0,0,,0,,,72,127
48131,note_on,0,0,0,,4,,,64,127
48131,note_on,0,0,0,,0,,,60,127
48301,note_off,170,0,0,,0,,,60,127
48302,note_on,1,0,0,,0,,,60,127
48472,note_off,170,0,0,,0,,,60,127
48472,note_off,0,0,0,,0,,,72,127
48473,note_on,1,0,0,,12,,,71,127
48473,note_on,0,0,0,,0,,,60,127
48643,note_off,170,0,0,,0,,,60,127
48643,note_off,0,0,0,,12,,,71,127
48643,note_off,0,0,0,,4,,,64,127
48644,note_on,1,0,0,,12,,,71,127
48644,note_on,0,0,0,,5,,,65,127
48644,note_on,0,0,0,,0,,,60,127
48687,note_on,43,0,0,,10,,,69,127
48701,note_off,14,0,0,,12,,,71,127
48729,note_on,28,0,0,,12,,,71,127
48743,note_off,14,0,0,,10,,,69,127
48771,note_on,28,0,0,,10,,,69,127
48785,note_off,14,0,0,,12,,,71,127
48813,note_off,28,0,0,,0,,,60,127
48814,note_on,1,0,0,,7,,,67,127
48814,note_on,0,0,0,,0,,,60,127
48828,note_off,14,0,0,,10,,,69,127
48984,note_off,156,0,0,,0,,,60,127
48984,note_off,0,0,0,,7,,,67,127
48985,note_on,1,0,0,,10,,,69,127
48985,note_on,0,0,0,,0,,,60,127
49155,note_off,170,0,0,,0,,,60,127
49155,note_off,0,0,0,,10,,,69,127
49155,note_off,0,0,0,,5,,,65,127
49156,note_on,1,0,0,,10,,,69,127
49156,note_on,0,0,0,,4,,,64,127
49156,note_on,0,0,0,,0,,,60,127
49199,note_on,43,0,0,,7,,,67,127
49213,note_off,14,0,0,,10,,,69,127
49241,note_on,28,0,0,,10,,,69,127
49255,note_off,14,0,0,,7,,,67,127
49283,note_on,28,0,0,,7,,,67,127
49297,note_off,14,0,0,,10,,,69,127
49325,note_off,28,0,0,,0,,,60,127
49326,note_on,1,0,0,,5,,,65,127
49326,note_on,0,0,0,,0,,,60,127
49340,note_off,14,0,0,,7,,,67,127
49496,note_off,156,0,0,,0,,,60,127
49496,note_off,0,0,0,,5,,,65,127
49497,note_on,1,0,0,,7,,,67,127
49497,note_on,0,0,0,,0,,,60,127
49667,note_off,170,0,0,,0,,,60,127
49667,note_off,0,0,0,,7,,,67,127
49667,note_off,0,0,0,,4,,,64,127
49668,note_on,1,0,0,,7,,,67,127
49668,note_on,0,0,0,,12,,,71,127
49668,note_on,0,0,0,,0,,,60,127
49711,note_on,43,0,0,,5,,,65,127
49725,note_off,14,0,0,,7,,,67,127
49753,note_on,28,0,0,,7,,,67,127
49767,note_off,14,0,0,,5,,,65,127
49795,note_on,28,0,0,,5,,,65,127
49809,note_off,14,0,0,,7,,,67,127
49837,note_off,28,0,0,,0,,,60,127
49838,note_on,1,0,0,,4,,,64,127
49838,note_on,0,0,0,,0,,,60,127
49852,note_off,14,0,0,,5,,,65,127
50008,note_off,156,0,0,,0,,,60,127
50008,note_off,0,0,0,,4,,,64,127
50009,note_on,1,0,0,,5,,,65,127
50009,note_on,0,0,0,,0,,,60,127
50179,note_off,170,0,0,,0,,,60,127
50179,note_off,0,0,0,,5,,,65,127
50179,note_off,0,0,0,,12,,,71,127
50180,note_on,1,0,0,,4,,,64,127
50180,note_on,0,0,0,,0,,,72,127
50180,note_on,0,0,0,,0,,,60,127
50350,note_off,170,0,0,,0,,,60,127
50351,note_on,1,0,0,,0,,,60,127
50521,note_off,170,0,0,,0,,,60,127
50521,note_off,0,0,0,,0,,,72,127
50522,note_on,1,0,0,,12,,,71,127
50522,note_on,0,0,0,,0,,,60,127
50692,note_off,170,0,0,,0,,,60,127
50692,note_off,0,0,0,,12,,,71,127
50692,note_off,0,0,0,,4,,,64,127
50693,note_on,1,0,0,,12,,,71,127
50693,note_on,0,0,0,,5,,,65,127
50693,note_on,0,0,0,,0,,,60,127
50736,note_on,43,0,0,,10,,,69,127
50750,note_off,14,0,0,,12,,,71,127
50778,note_on,28,0,0,,12,,,71,127
50792,note_off,14,0,0,,10,,,69,127
50820,note_on,28,0,0,,10,,,69,127
50834,note_off,14,0,0,,12,,,71,127
50862,note_off,28,0,0,,0,,,60,127
50863,note_on,1,0,0,,7,,,67,127
50863,note_on,0,0,0,,0,,,60,127
50877,note_off,14,0,0,,10,,,69,127
51033,note_off,156,0,0,,0,,,60,127
51033,note_off,0,0,0,,7,,,67,127
51034,note_on,1,0,0,,10,,,69,127
51034,note_on,0,0,0,,0,,,60,127
51204,note_off,170,0,0,,0,,,60,127
51204,note_off,0,0,0,,10,,,69,127
51204,note_off,0,0,0,,5,,,65,127
51205,note_on,1,0,0,,10,,,69,127
51205,note_on,0,0,0,,4,,,64,127
51205,note_on,0,0,0,,0,,,60,127
51248,note_on,43,0,0,,7,,,67,127
51262,note_off,14,0,0,,10,,,69,127
51290,note_on,28,0,0,,10,,,69,127
51304,note_off,14,0,0,,7,,,67,127
51332,note_on,28,0,0,,7,,,67,127
51346,note_off,14,0,0,,10,,,69,127
51374,note_off,28,0,0,,0,,,60,127
51375,note_on,1,0,0,,5,,,65,127
51375,note_on,0,0,0,,0,,,60,127
51389,note_off,14,0,0,,7,,,67,127
51545,note_off,156,0,0,,0,,,60,127
51545,note_off,0,0,0,,5,,,65,127
51546,note_on,1,0,0,,7,,,67,127
51546,note_on,0,0,0,,0,,,60,127
51716,note_off,170,0,0,,0,,,60,127
51716,note_off,0,0,0,,7,,,67,127
51716,note_off,0,0,0,,4,,,64,127
51717,note_on,1,0,0,,7,,,67,127
51717,note_on,0,0,0,,12,,,71,127
51717,note_on,0,0,0,,0,,,60,127
51760,note_on,43,0,0,,5,,,65,127
51774,note_off,14,0,0,,7,,,67,127
51802,note_on,28,0,0,,7,,,67,127
51816,note_off,14,0,0,,5,,,65,127
51844,note_on,28,0,0,,5,,,65,127
51858,note_off,14,0,0,,7,,,67,127
51886,note_off,28,0,0,,0,,,60,127
51887,note_on,1,0,0,,4,,,64,127
51887,note_on,0,0,0,,0,,,60,127
51901,note_off,14,0,0,,5,,,65,127
52057,note_off,156,0,0,,0,,,60,127
52057,note_off,0,0,0,,4,,,64,127
52058,note_on,1,0,0,,5,,,65,127
52058,note_on,0,0,0,,0,,,60,127
52228,note_off,170,0,0,,0,,,60,127
52228,note_off,0,0,0,,5,,,65,127
52228,note_off,0,0,0,,12,,,71,127
52229,note_on,1,0,0,,4,,,64,127
52229,note_on,0,0,0,,0,,,72,127
52229,note_on,0,0,0,,0,,,60,127
52399,note_off,170,0,0,,0,,,60,127
52399,note_off,0,0,0,,4,,,64,127
52400,note_on,1,0,0,,6,,,66,127
52400,note_on,0,0,0,,2,,,62,127
52567,note_off,167,0,0,,0,,,72,127
52570,note_off,3,0,0,,2,,,62,127
52570,note_off,0,0,0,,6,,,66,127
52571,note_on,1,0,0,,7,,,67,127
52571,note_on,0,0,0,,3,,,63,127
52741,note_off,170,0,0,,3,,,63,127
52741,note_off,0,0,0,,7,,,67,127
52742,note_on,1,0,0,,2,,,74,127
52742,note_on,0,0,0,,6,,,66,127
52742,note_on,0,0,0,,2,,,62,127
52912,note_off,170,0,0,,2,,,62,127
52913,note_on,1,0,0,,2,,,62,127
53083,note_off,170,0,0,,2,,,62,127
53083,note_off,0,0,0,,2,,,74,127
53084,note_on,1,0,0,,0,,,72,127
53084,note_on,0,0,0,,2,,,62,127
53254,note_off,170,0,0,,2,,,62,127
53254,note_off,0,0,0,,0,,,72,127
53254,note_off,0,0,0,,6,,,66,127
53255,note_on,1,0,0,,0,,,72,127
53255,note_on,0,0,0,,7,,,67,127
53255,note_on,0,0,0,,2,,,62,127
53298,note_on,43,0,0,,11,,,70,127
53312,note_off,14,0,0,,0,,,72,127
53340,note_on,28,0,0,,0,,,72,127
53354,note_off,14,0,0,,11,,,70,127
53382,note_on,28,0,0,,11,,,70,127
53396,note_off,14,0,0,,0,,,72,127
53424,note_off,28,0,0,,2,,,62,127
53425,note_on,1,0,0,,10,,,69,127
53425,note_on,0,0,0,,2,,,62,127
53439,note_off,14,0,0,,11,,,70,127
53595,note_off,156,0,0,,2,,,62,127
53595,note_off,0,0,0,,10,,,69,127
53596,note_on,1,0,0,,11,,,70,127
53596,note_on,0,0,0,,2,,,62,127
53766,note_off,170,0,0,,2,,,62,127
53766,note_off,0,0,0,,11,,,70,127
53766,note_off,0,0,0,,7,,,67,127
53767,note_on,1,0,0,,10,,,69,127
53767,note_on,0,0,0,,1,,,73,127
53767,note_on,0,0,0,,2,,,62,127
53810,note_on,43,0,0,,7,,,67,127
53824,note_off,14,0,0,,10,,,69,127
53852,note_on,28,0,0,,10,,,69,127
53866,note_off,14,0,0,,7,,,67,127
53894,note_on,28,0,0,,7,,,67,127
53908,note_off,14,0,0,,10,,,69,127
53936,note_off,28,0,0,,2,,,62,127
53937,note_on,1,0,0,,6,,,66,127
53937,note_on,0,0,0,,2,,,62,127
53951,note_off,14,0,0,,7,,,67,127
54107,note_off,156,0,0,,2,,,62,127
54107,note_off,0,0,0,,6,,,66,127
54108,note_on,1,0,0,,7,,,67,127
54108,note_on,0,0,0,,2,,,62,127
54278,note_off,170,0,0,,2,,,62,127
54278,note_off,0,0,0,,7,,,67,127
54278,note_off,0,0,0,,1,,,73,127
54279,note_on,1,0,0,,6,,,66,127
54279,note_on,0,0,0,,2,,,74,127
54279,note_on,0,0,0,,2,,,62,127
54449,note_off,170,0,0,,2,,,62,127
54450,note_on,1,0,0,,2,,,62,127
54620,note_off,170,0,0,,2,,,62,127
54620,note_off,0,0,0,,2,,,74,127
54621,note_on,1,0,0,,0,,,72,127
54621,note_on,0,0,0,,2,,,62,127
54791,note_off,170,0,0,,2,,,62,127
54791,note_off,0,0,0,,0,,,72,127
54791,note_off,0,0,0,,6,,,66,127
54792,note_on,1,0,0,,0,,,72,127
54792,note_on,0,0,0,,7,,,67,127
54792,note_on,0,0,0,,2,,,62,127
54835,note_on,43,0,0,,11,,,70,127
54849,note_off,14,0,0,,0,,,72,127
54877,note_on,28,0,0,,0,,,72,127
54891,note_off,14,0,0,,11,,,70,127
54919,note_on,28,0,0,,11,,,70,127
54933,note_off,14,0,0,,0,,,72,127
54961,note_off,28,0,0,,2,,,62,127
54962,note_on,1,0,0,,10,,,69,127
54962,note_on,0,0,0,,2,,,62,127
54976,note_off,14,0,0,,11,,,70,127
55132,note_off,156,0,0,,2,,,62,127
55132,note_off,0,0,0,,10,,,69,127
55133,note_on,1,0,0,,11,,,70,127
55133,note_on,0,0,0,,2,,,62,127
55303,note_off,170,0,0,,2,,,62,127
55303,note_off,0,0,0,,11,,,70,127
55303,note_off,0,0,0,,7,,,67,127
55304,note_on,1,0,0,,10,,,69,127
55304,note_on,0,0,0,,1,,,73,127
55304,note_on,0,0,0,,2,,,62,127
55347,note_on,43,0,0,,7,,,67,127
55361,note_off,14,0,0,,10,,,69,127
55389,note_on,28,0,0,,10,,,69,127
55403,note_off,14,0,0,,7,,,67,127
55431,note_on,28,0,0,,7,,,67,127
55445,note_off,14,0,0,,10,,,69,127
55473,note_off,28,0,0,,2,,,62,127
55474,note_on,1,0,0,,6,,,66,127
55474,note_on,0,0,0,,2,,,62,127
55488,note_off,14,0,0,,7,,,67,127
55644,note_off,156,0,0,,2,,,62,127
55644,note_off,0,0,0,,6,,,66,127
55645,note_on,1,0,0,,7,,,67,127
55645,note_on,0,0,0,,2,,,62,127
55815,note_off,170,0,0,,2,,,62,127
55815,note_off,0,0,0,,7,,,67,127
55815,note_off,0,0,0,,1,,,73,127
55816,note_on,1,0,0,,6,,,66,127
55816,note_on,0,0,0,,2,,,74,127
55816,note_on,0,0,0,,2,,,62,127
55986,note_off,170,0,0,,2,,,62,127
55986,note_off,0,0,0,,6,,,66,127
55987,note_on,1,0,0,,7,,,67,127
55987,note_on,0,0,0,,4,,,64,127
56157,note_off,170,0,0,,4,,,64,127
56157,note_off,0,0,0,,7,,,67,127
56158,note_on,1,0,0,,10,,,69,127
56158,note_on,0,0,0,,6,,,66,127
56208,note_off,50,0,0,,2,,,74,127
56328,note_off,120,0,0,,6,,,66,127
56328,note_off,0,0,0,,10,,,69,127
56329,note_on,1,0,0,,7,,,79,127
56329,note_on,0,0,0,,12,,,71,127
56329,note_on,0,0,0,,7,,,67,127
56499,note_off,170,0,0,,7,,,67,127
56500,note_on,1,0,0,,7,,,67,127
56670,note_off,170,0,0,,7,,,67,127
56670,note_off,0,0,0,,7,,,79,127
56671,note_on,1,0,0,,5,,,77,127
56671,note_on,0,0,0,,7,,,67,127
56841,note_off,170,0,0,,7,,,67,127
56841,note_off,0,0,0,,5,,,77,127
56841,note_off,0,0,0,,12,,,71,127
56842,note_on,1,0,0,,5,,,77,127
56842,note_on,0,0,0,,0,,,72,127
56842,note_on,0,0,0,,7,,,67,127
56885,note_on,43,0,0,,3,,,75,127
56899,note_off,14,0,0,,5,,,77,127
56927,note_on,28,0,0,,5,,,77,127
56941,note_off,14,0,0,,3,,,75,127
56969,note_on,28,0,0,,3,,,75,127
56983,note_off,14,0,0,,5,,,77,127
57011,note_off,28,0,0,,7,,,67,127
57012,note_on,1,0,0,,2,,,74,127
57012,note_on,0,0,0,,7,,,67,127
57026,note_off,14,0,0,,3,,,75,127
57182,note_off,156,0,0,,7,,,67,127
57182,note_off,0,0,0,,2,,,74,127
57183,note_on,1,0,0,,3,,,75,127
57183,note_on,0,0,0,,7,,,67,127
57353,note_off,170,0,0,,7,,,67,127
57353,note_off,0,0,0,,3,,,75,127
57353,note_off,0,0,0,,0,,,72,127
57354,note_on,1,0,0,,2,,,74,127
57354,note_on,0,0,0,,6,,,78,127
57354,note_on,0,0,0,,7,,,67,127
57397,note_on,43,0,0,,0,,,72,127
57411,note_off,14,0,0,,2,,,74,127
57439,note_on,28,0,0,,2,,,74,127
57453,note_off,14,0,0,,0,,,72,127
57481,note_on,28,0,0,,0,,,72,127
57495,note_off,14,0,0,,2,,,74,127
57523,note_off,28,0,0,,7,,,67,127
57524,note_on,1,0,0,,12,,,71,127
57524,note_on,0,0,0,,7,,,67,127
57538,note_off,14,0,0,,0,,,72,127
57694,note_off,156,0,0,,7,,,67,127
57694,note_off,0,0,0,,12,,,71,127
57695,note_on,1,0,0,,0,,,72,127
57695,note_on,0,0,0,,7,,,67,127
57865,note_off,170,0,0,,7,,,67,127
57865,note_off,0,0,0,,0,,,72,127
57865,note_off,0,0,0,,6,,,78,127
57866,note_on,1,0,0,,7,,,79,127
57866,note_on,0,0,0,,12,,,71,127
57866,note_on,0,0,0,,7,,,67,127
58036,note_off,170,0,0,,7,,,67,127
58036,note_off,0,0,0,,12,,,71,127
58037,note_on,1,0,0,,0,,,72,127
58037,note_on,0,0,0,,10,,,69,127
58207,note_off,170,0,0,,10,,,69,127
58207,note_off,0,0,0,,0,,,72,127
58208,note_on,1,0,0,,2,,,74,127
58208,note_on,0,0,0,,12,,,71,127
58276,note_off,68,0,0,,7,,,79,127
58378,note_off,102,0,0,,12,,,71,127
58378,note_off,0,0,0,,2,,,74,127
58379,note_on,1,0,0,,4,,,76,127
58379,note_on,0,0,0,,0,,,84,127
58379,note_on,0,0,0,,0,,,72,127
58549,note_off,170,0,0,,0,,,72,127
58550,note_on,1,0,0,,0,,,72,127
58720,note_off,170,0,0,,0,,,72,127
58720,note_off,0,0,0,,0,,,84,127
58721,note_on,1,0,0,,11,,,82,127
58721,note_on,0,0,0,,0,,,72,127
58891,note_off,170,0,0,,0,,,72,127
58891,note_off,0,0,0,,11,,,82,127
58891,note_off,0,0,0,,4,,,76,127
58892,note_on,1,0,0,,11,,,82,127
58892,note_on,0,0,0,,5,,,77,127
58892,note_on,0,0,0,,0,,,72,127
58935,note_on,43,0,0,,8,,,80,127
58949,note_off,14,0,0,,11,,,82,127
58977,note_on,28,0,0,,11,,,82,127
58991,note_off,14,0,0,,8,,,80,127
59019,note_on,28,0,0,,8,,,80,127
59033,note_off,14,0,0,,11,,,82,127
59061,note_off,28,0,0,,0,,,72,127
59062,note_on,1,0,0,,7,,,79,127
59062,note_on,0,0,0,,0,,,72,127
59076,note_off,14,0,0,,8,,,80,127
59232,note_off,156,0,0,,0,,,72,127
59232,note_off,0,0,0,,7,,,79,127
59233,note_on,1,0,0,,8,,,80,127
59233,note_on,0,0,0,,0,,,72,127
59403,note_off,170,0,0,,0,,,72,127
59403,note_off,0,0,0,,8,,,80,127
59403,note_off,0,0,0,,5,,,77,127
59404,note_on,1,0,0,,7,,,79,127
59404,note_on,0,0,0,,12,,,83,127
59404,note_on,0,0,0,,0,,,72,127
59447,note_on,43,0,0,,5,,,77,127
59461,note_off,14,0,0,,7,,,79,127
59489,note_on,28,0,0,,7,,,79,127
59503,note_off,14,0,0,,5,,,77,127
59531,note_on,28,0,0,,5,,,77,127
59545,note_off,14,0,0,,7,,,79,127
59573,note_off,28,0,0,,0,,,72,127
59574,note_on,1,0,0,,4,,,76,127
59574,note_on,0,0,0,,0,,,72,127
59588,note_off,14,0,0,,5,,,77,127
59744,note_off,156,0,0,,0,,,72,127
59744,note_off,0,0,0,,4,,,76,127
59745,note_on,1,0,0,,5,,,77,127
59745,note_on,0,0,0,,0,,,72,127
59915,note_off,170,0,0,,0,,,72,127
59915,note_off,0,0,0,,5,,,77,127
59915,note_off,0,0,0,,12,,,83,127
59916,note_on,1,0,0,,0,,,84,127
59916,note_on,0,0,0,,4,,,76,127
59916,note_on,0,0,0,,0,,,72,127
60086,note_off,170,0,0,,0,,,72,127
60086,note_off,0,0,0,,4,,,76,127
60087,note_on,1,0,0,,5,,,77,127
60087,note_on,0,0,0,,2,,,74,127
60257,note_off,170,0,0,,2,,,74,127
60257,note_off,0,0,0,,5,,,77,127
60257,note_off,0,0,0,,0,,,84,127
60258,note_on,1,0,0,,11,,,82,127
60258,note_on,0,0,0,,7,,,79,127
60258,note_on,0,0,0,,4,,,76,127
60428,note_off,170,0,0,,4,,,76,127
60428,note_off,0,0,0,,7,,,79,127
60428,note_off,0,0,0,,11,,,82,127
60429,note_on,1,0,0,,8,,,80,127
60429,note_on,0,0,0,,5,,,77,127
60599,note_off,170,0,0,,8,,,80,127
60600,note_on,1,0,0,,11,,,82,127
60770,note_off,170,0,0,,11,,,82,127
60770,note_off,0,0,0,,5,,,77,127
60771,note_on,1,0,0,,0,,,84,127
60771,note_on,0,0,0,,3,,,75,127
60941,note_off,170,0,0,,3,,,75,127
60941,note_off,0,0,0,,0,,,84,127
60942,note_on,1,0,0,,11,,,82,127
60942,note_on,0,0,0,,1,,,73,127
61112,note_off,170,0,0,,1,,,73,127
61112,note_off,0,0,0,,11,,,82,127
61113,note_on,1,0,0,,0,,,84,127
61113,note_on,0,0,0,,0,,,72,127
61283,note_off,170,0,0,,0,,,72,127
61283,note_off,0,0,0,,0,,,84,127
61284,note_on,1,0,0,,1,,,85,127
61284,note_on,0,0,0,,11,,,70,127
61454,note_off,170,0,0,,11,,,70,127
61454,note_off,0,0,0,,1,,,85,127
61455,note_on,1,0,0,,4,,,76,127
61455,note_on,0,0,0,,0,,,84,127
61455,note_on,0,0,0,,0,,,72,127
61625,note_off,170,0,0,,0,,,72,127
61625,note_off,0,0,0,,4,,,76,127
61626,note_on,1,0,0,,5,,,77,127
61626,note_on,0,0,0,,2,,,74,127
61796,note_off,170,0,0,,2,,,74,127
61796,note_off,0,0,0,,5,,,77,127
61796,note_off,0,0,0,,0,,,84,127
61797,note_on,1,0,0,,7,,,79,127
61797,note_on,0,0,0,,11,,,82,127
61797,note_on,0,0,0,,4,,,76,127
61967,note_off,170,0,0,,4,,,76,127
61967,note_off,0,0,0,,11,,,82,127
61967,note_off,0,0,0,,7,,,79,127
61968,note_on,1,0,0,,8,,,80,127
61968,note_on,0,0,0,,5,,,77,127
62138,note_off,170,0,0,,8,,,80,127
62139,note_on,1,0,0,,11,,,82,127
62309,note_off,170,0,0,,11,,,82,127
62309,note_off,0,0,0,,5,,,77,127
62310,note_on,1,0,0,,0,,,84,127
62310,note_on,0,0,0,,3,,,75,127
62480,note_off,170,0,0,,3,,,75,127
62480,note_off,0,0,0,,0,,,84,127
62481,note_on,1,0,0,,5,,,77,127
62481,note_on,0,0,0,,1,,,73,127
62651,note_off,170,0,0,,5,,,77,127
62652,note_on,1,0,0,,7,,,79,127
62822,note_off,170,0,0,,7,,,79,127
62822,note_off,0,0,0,,1,,,73,127
62823,note_on,1,0,0,,8,,,80,127
62823,note_on,0,0,0,,0,,,72,127
62993,note_off,170,0,0,,0,,,72,127
62993,note_off,0,0,0,,8,,,80,127
62994,note_on,1,0,0,,7,,,79,127
62994,note_on,0,0,0,,11,,,70,127
63164,note_off,170,0,0,,7,,,79,127
63165,note_on,1,0,0,,8,,,80,127
63335,note_off,170,0,0,,8,,,80,127
63335,note_off,0,0,0,,11,,,70,127
63336,note_on,1,0,0,,11,,,82,127
63336,note_on,0,0,0,,0,,,72,127
63506,note_off,170,0,0,,0,,,72,127
63506,note_off,0,0,0,,11,,,82,127
63507,note_on,1,0,0,,11,,,82,127
63507,note_on,0,0,0,,1,,,61,127
63591,note_off,84,0,0,,11,,,82,127
63592,note_on,1,0,0,,8,,,80,127
63676,note_off,84,0,0,,8,,,80,127
63677,note_on,1,0,0,,7,,,79,127
63847,note_off,170,0,0,,7,,,79,127
63848,note_on,1,0,0,,5,,,77,127
64018,note_off,170,0,0,,5,,,77,127
64018,note_off,0,0,0,,1,,,61,127
64019,note_on,1,0,0,,8,,,80,127
64019,note_on,0,0,0,,0,,,60,127
64075,note_off,56,0,0,,8,,,80,127
64076,note_on,1,0,0,,7,,,79,127
64132,note_off,56,0,0,,7,,,79,127
64133,note_on,1,0,0,,8,,,80,127
64189,note_off,56,0,0,,8,,,80,127
64190,note_on,1,0,0,,7,,,79,127
64246,note_off,56,0,0,,7,,,79,127
64247,note_on,1,0,0,,8,,,80,127
64303,note_off,56,0,0,,8,,,80,127
64304,note_on,1,0,0,,7,,,79,127
64360,note_off,56,0,0,,7,,,79,127
64361,note_on,1,0,0,,5,,,77,127
64403,note_off,42,0,0,,5,,,77,127
64404,note_on,1,0,0,,7,,,79,127
64446,note_off,42,0,0,,7,,,79,127
64447,note_on,1,0,0,,8,,,80,127
64489,note_off,42,0,0,,8,,,80,127
64490,note_on,1,0,0,,11,,,82,127
64532,note_off,42,0,0,,11,,,82,127
64532,note_off,0,0,0,,0,,,60,127
64533,note_on,1,0,0,,7,,,79,127
64533,note_on,0,0,0,,1,,,73,127
64703,note_off,170,0,0,,1,,,73,127
64704,note_on,1,0,0,,11,,,70,127
64874,note_off,170,0,0,,11,,,70,127
64875,note_on,1,0,0,,7,,,67,127
65045,note_off,170,0,0,,7,,,67,127
65046,note_on,1,0,0,,4,,,64,127
65216,note_off,170,0,0,,4,,,64,127
65217,note_on,1,0,0,,1,,,61,127
65387,note_off,170,0,0,,1,,,61,127
65388,note_on,1,0,0,,11,,,58,127
65558,note_off,170,0,0,,11,,,58,127
65559,note_on,1,0,0,,7,,,55,127
65729,note_off,170,0,0,,7,,,55,127
65730,note_on,1,0,0,,4,,,52,127
65900,note_off,170,0,0,,4,,,52,127
65901,note_on,1,0,0,,1,,,49,127
66071,note_off,170,0,0,,1,,,49,127
66071,note_off,0,0,0,,7,,,79,127
66072,note_on,1,0,0,,8,,,80,127
66072,note_on,0,0,0,,0,,,36,127
66072,note_on,0,0,0,,0,,,48,127
66128,note_off,56,0,0,,8,,,80,127
66129,note_on,1,0,0,,7,,,79,127
66185,note_off,56,0,0,,7,,,79,127
66186,note_on,1,0,0,,8,,,80,127
66242,note_off,56,0,0,,8,,,80,127
66243,note_on,1,0,0,,7,,,79,127
66299,note_off,56,0,0,,7,,,79,127
66300,note_on,1,0,0,,8,,,80,127
66356,note_off,56,0,0,,8,,,80,127
66357,note_on,1,0,0,,7,,,79,127
66413,note_off,56,0,0,,7,,,79,127
66414,note_on,1,0,0,,5,,,77,127
66456,note_off,42,0,0,,5,,,77,127
66457,note_on,1,0,0,,7,,,79,127
66499,note_off,42,0,0,,7,,,79,127
66500,note_on,1,0,0,,8,,,80,127
66542,note_off,42,0,0,,8,,,80,127
66543,note_on,1,0,0,,11,,,82,127
66585,note_off,42,0,0,,11,,,82,127
66585,note_off,0,0,0,,0,,,48,127
66585,note_off,0,0,0,,0,,,36,127
66586,note_on,1,0,0,,7,,,79,127
66586,note_on,0,0,0,,1,,,73,127
66756,note_off,170,0,0,,1,,,73,127
66757,note_on,1,0,0,,11,,,70,127
66927,note_off,170,0,0,,11,,,70,127
66928,note_on,1,0,0,,7,,,67,127
67098,note_off,170,0,0,,7,,,67,127
67099,note_on,1,0,0,,4,,,64,127
67269,note_off,170,0,0,,4,,,64,127
67270,note_on,1,0,0,,1,,,61,127
67440,note_off,170,0,0,,1,,,61,127
67441,note_on,1,0,0,,11,,,58,127
67611,note_off,170,0,0,,11,,,58,127
67612,note_on,1,0,0,,7,,,55,127
67782,note_off,170,0,0,,7,,,55,127
67783,note_on,1,0,0,,4,,,52,127
67953,note_off,170,0,0,,4,,,52,127
67954,note_on,1,0,0,,1,,,49,127
68124,note_off,170,0,0,,1,,,49,127
68124,note_off,0,0,0,,7,,,79,127
68125,note_on,1,0,0,,8,,,80,127
68125,note_on,0,0,0,,0,,,48,127
68125,note_on,0,0,0,,0,,,36,127
68181,note_off,56,0,0,,8,,,80,127
68182,note_on,1,0,0,,7,,,79,127
68238,note_off,56,0,0,,7,,,79,127
68239,note_on,1,0,0,,8,,,80,127
68295,note_off,56,0,0,,8,,,80,127
68296,note_on,1,0,0,,7,,,79,127
68352,note_off,56,0,0,,7,,,79,127
68353,note_on,1,0,0,,8,,,80,127
68409,note_off,56,0,0,,8,,,80,127
68410,note_on,1,0,0,,7,,,79,127
68466,note_off,56,0,0,,7,,,79,127
68467,note_on,1,0,0,,5,,,77,127
68509,note_off,42,0,0,,5,,,77,127
68510,note_on,1,0,0,,7,,,79,127
68552,note_off,42,0,0,,7,,,79,127
68553,note_on,1,0,0,,8,,,80,127
68595,note_off,42,0,0,,8,,,80,127
68596,note_on,1,0,0,,11,,,82,127
68638,note_off,42,0,0,,11,,,82,127
68638,note_off,0,0,0,,0,,,36,127
68638,note_off,0,0,0,,0,,,48,127
68639,note_on,1,0,0,,7,,,79,127
68639,note_on,0,0,0,,0,,,36,127
68639,note_on,0,0,0,,0,,,48,127
68809,note_off,170,0,0,,0,,,48,127
68809,note_off,0,0,0,,0,,,36,127
68809,note_off,0,0,0,,7,,,79,127
68810,note_on,1,0,0,,0,,,72,127
68810,note_on,0,0,0,,2,,,50,127
68810,note_on,0,0,0,,2,,,38,127
68980,note_off,170,0,0,,2,,,38,127
68980,note_off,0,0,0,,2,,,50,127
68980,note_off,0,0,0,,0,,,72,127
68981,note_on,1,0,0,,0,,,84,127
68981,note_on,0,0,0,,4,,,40,127
68981,note_on,0,0,0,,4,,,52,127
69151,note_off,170,0,0,,4,,,52,127
69151,note_off,0,0,0,,4,,,40,127
69151,note_off,0,0,0,,0,,,84,127
69152,note_on,1,0,0,,11,,,82,127
69152,note_on,0,0,0,,5,,,53,127
69152,note_on,0,0,0,,5,,,41,127
69236,note_off,84,0,0,,11,,,82,127
69237,note_on,1,0,0,,8,,,80,127
69321,note_off,84,0,0,,8,,,80,127
69321,note_off,0,0,0,,5,,,41,127
69321,note_off,0,0,0,,5,,,53,127
69322,note_on,1,0,0,,7,,,79,127
69322,note_on,0,0,0,,7,,,43,127
69322,note_on,0,0,0,,7,,,55,127
69492,note_off,170,0,0,,7,,,55,127
69492,note_off,0,0,0,,7,,,43,127
69492,note_off,0,0,0,,7,,,79,127
69493,note_on,1,0,0,,5,,,77,127
69493,note_on,0,0,0,,8,,,56,127
69493,note_on,0,0,0,,8,,,44,127
69663,note_off,170,0,0,,8,,,44,127
69663,note_off,0,0,0,,8,,,56,127
69663,note_off,0,0,0,,5,,,77,127
69664,note_on,1,0,0,,8,,,80,127
69664,note_on,0,0,0,,11,,,46,127
69664,note_on,0,0,0,,11,,,58,127
69748,note_off,84,0,0,,8,,,80,127
69749,note_on,1,0,0,,7,,,79,127
69833,note_off,84,0,0,,7,,,79,127
69833,note_off,0,0,0,,11,,,58,127
69833,note_off,0,0,0,,11,,,46,127
69834,note_on,1,0,0,,5,,,77,127
69834,note_on,0,0,0,,0,,,60,127
70004,note_off,170,0,0,,0,,,60,127
70004,note_off,0,0,0,,5,,,77,127
70005,note_on,1,0,0,,4,,,76,127
70005,note_on,0,0,0,,0,,,48,127
70175,note_off,170,0,0,,0,,,48,127
70175,note_off,0,0,0,,4,,,76,127
70176,note_on,1,0,0,,7,,,79,127
70176,note_on,0,0,0,,5,,,41,127
70232,note_off,56,0,0,,7,,,79,127
70233,note_on,1,0,0,,5,,,77,127
70289,note_off,56,0,0,,5,,,77,127
70290,note_on,1,0,0,,7,,,79,127
70346,note_off,56,0,0,,7,,,79,127
70347,note_on,1,0,0,,5,,,77,127
70403,note_off,56,0,0,,5,,,77,127
70404,note_on,1,0,0,,7,,,79,127
70460,note_off,56,0,0,,7,,,79,127
70461,note_on,1,0,0,,5,,,77,127
70517,note_off,56,0,0,,5,,,77,127
70518,note_on,1,0,0,,7,,,79,127
70574,note_off,56,0,0,,7,,,79,127
70575,note_on,1,0,0,,8,,,80,127
70603,note_off,28,0,0,,5,,,41,127
70631,note_off,28,0,0,,8,,,80,127
70632,note_on,1,0,0,,11,,,82,127
70688,note_off,56,0,0,,11,,,82,127
70689,note_on,1,0,0,,7,,,79,127
70689,note_on,0,0,0,,1,,,73,127
70859,note_off,170,0,0,,1,,,73,127
70860,note_on,1,0,0,,11,,,70,127
71030,note_off,170,0,0,,11,,,70,127
71031,note_on,1,0,0,,7,,,67,127
71201,note_off,170,0,0,,7,,,67,127
71202,note_on,1,0,0,,4,,,64,127
71372,note_off,170,0,0,,4,,,64,127
71373,note_on,1,0,0,,1,,,61,127
71543,note_off,170,0,0,,1,,,61,127
71544,note_on,1,0,0,,11,,,58,127
71714,note_off,170,0,0,,11,,,58,127
71715,note_on,1,0,0,,7,,,55,127
71885,note_off,170,0,0,,7,,,55,127
71886,note_on,1,0,0,,4,,,52,127
72056,note_off,170,0,0,,4,,,52,127
72057,note_on,1,0,0,,1,,,49,127
72227,note_off,170,0,0,,1,,,49,127
72227,note_off,0,0,0,,7,,,79,127
72228,note_on,1,0,0,,8,,,80,127
72228,note_on,0,0,0,,0,,,48,127
72228,note_on,0,0,0,,0,,,36,127
72284,note_off,56,0,0,,8,,,80,127
72285,note_on,1,0,0,,7,,,79,127
72341,note_off,56,0,0,,7,,,79,127
72342,note_on,1,0,0,,8,,,80,127
72398,note_off,56,0,0,,8,,,80,127
72399,note_on,1,0,0,,7,,,79,127
72455,note_off,56,0,0,,7,,,79,127
72456,note_on,1,0,0,,8,,,80,127
72512,note_off,56,0,0,,8,,,80,127
72513,note_on,1,0,0,,7,,,79,127
72569,note_off,56,0,0,,7,,,79,127
72570,note_on,1,0,0,,5,,,77,127
72612,note_off,42,0,0,,5,,,77,127
72613,note_on,1,0,0,,7,,,79,127
72655,note_off,42,0,0,,7,,,79,127
72656,note_off,1,0,0,,0,,,36,127
72656,note_off,0,0,0,,0,,,48,127
72656,note_on,0,0,0,,8,,,80,127
72698,note_off,42,0,0,,8,,,80,127
72699,note_on,1,0,0,,11,,,82,127
72741,note_off,42,0,0,,11,,,82,127
72742,note_on,1,0,0,,8,,,80,127
72742,note_on,0,0,0,,1,,,73,127
72912,note_off,170,0,0,,1,,,73,127
72912,note_off,0,0,0,,8,,,80,127
72913,note_on,1,0,0,,11,,,70,127
72913,note_on,0,0,0,,7,,,79,127
73083,note_off,170,0,0,,11,,,70,127
73084,note_on,1,0,0,,7,,,67,127
73254,note_off,170,0,0,,7,,,67,127
73255,note_on,1,0,0,,4,,,64,127
73425,note_off,170,0,0,,4,,,64,127
73426,note_on,1,0,0,,1,,,61,127
73596,note_off,170,0,0,,1,,,61,127
73597,note_on,1,0,0,,11,,,58,127
73767,note_off,170,0,0,,11,,,58,127
73768,note_on,1,0,0,,7,,,55,127
73938,note_off,170,0,0,,7,,,55,127
73939,note_on,1,0,0,,4,,,52,127
74109,note_off,170,0,0,,4,,,52,127
74110,note_on,1,0,0,,1,,,49,127
74280,note_off,170,0,0,,1,,,49,127
74280,note_off,0,0,0,,7,,,79,127
74281,note_on,1,0,0,,8,,,80,127
74281,note_on,0,0,0,,0,,,48,127
74281,note_on,0,0,0,,0,,,36,127
74337,note_off,56,0,0,,8,,,80,127
74338,note_on,1,0,0,,7,,,79,127
74394,note_off,56,0,0,,7,,,79,127
74395,note_on,1,0,0,,8,,,80,127
74451,note_off,56,0,0,,8,,,80,127
74452,note_on,1,0,0,,7,,,79,127
74508,note_off,56,0,0,,7,,,79,127
74509,note_on,1,0,0,,8,,,80,127
74565,note_off,56,0,0,,8,,,80,127
74566,note_on,1,0,0,,7,,,79,127
74622,note_off,56,0,0,,7,,,79,127
74623,note_on,1,0,0,,5,,,77,127
74665,note_off,42,0,0,,5,,,77,127
74666,note_on,1,0,0,,7,,,79,127
74708,note_off,42,0,0,,7,,,79,127
74709,note_on,1,0,0,,8,,,80,127
74751,note_off,42,0,0,,8,,,80,127
74752,note_on,1,0,0,,11,,,82,127
74794,note_off,42,0,0,,11,,,82,127
74794,note_off,0,0,0,,0,,,36,127
74794,note_off,0,0,0,,0,,,48,127
74795,note_on,1,0,0,,7,,,79,127
74795,note_on,0,0,0,,0,,,36,127
74795,note_on,0,0,0,,0,,,48,127
74965,note_off,170,0,0,,0,,,48,127
74965,note_off,0,0,0,,0,,,36,127
74965,note_off,0,0,0,,7,,,79,127
74966,note_on,1,0,0,,0,,,72,127
74966,note_on,0,0,0,,2,,,38,127
74966,note_on,0,0,0,,2,,,50,127
75136,note_off,170,0,0,,2,,,50,127
75136,note_off,0,0,0,,2,,,38,127
75136,note_off,0,0,0,,0,,,72,127
75137,note_on,1,0,0,,0,,,84,127
75137,note_on,0,0,0,,4,,,40,127
75137,note_on,0,0,0,,4,,,52,127
75307,note_off,170,0,0,,4,,,52,127
75307,note_off,0,0,0,,4,,,40,127
75307,note_off,0,0,0,,0,,,84,127
75308,note_on,1,0,0,,11,,,82,127
75308,note_on,0,0,0,,5,,,41,127
75308,note_on,0,0,0,,5,,,53,127
75392,note_off,84,0,0,,11,,,82,127
75393,note_on,1,0,0,,8,,,80,127
75477,note_off,84,0,0,,8,,,80,127
75477,note_off,0,0,0,,5,,,53,127
75477,note_off,0,0,0,,5,,,41,127
75478,note_on,1,0,0,,7,,,79,127
75478,note_on,0,0,0,,7,,,55,127
75478,note_on,0,0,0,,7,,,43,127
75648,note_off,170,0,0,,7,,,43,127
75648,note_off,0,0,0,,7,,,55,127
75648,note_off,0,0,0,,7,,,79,127
75649,note_on,1,0,0,,5,,,77,127
75649,note_on,0,0,0,,8,,,56,127
75649,note_on,0,0,0,,8,,,44,127
75819,note_off,170,0,0,,8,,,44,127
75819,note_off,0,0,0,,8,,,56,127
75819,note_off,0,0,0,,5,,,77,127
75820,note_on,1,0,0,,7,,,79,127
75820,note_on,0,0,0,,11,,,46,127
75820,note_on,0,0,0,,11,,,58,127
75990,note_off,170,0,0,,11,,,58,127
75990,note_off,0,0,0,,11,,,46,127
75990,note_off,0,0,0,,7,,,79,127
75991,note_on,1,0,0,,5,,,77,127
75991,note_on,0,0,0,,0,,,60,127
76161,note_off,170,0,0,,0,,,60,127
76161,note_off,0,0,0,,5,,,77,127
76162,note_on,1,0,0,,4,,,76,127
76162,note_on,0,0,0,,0,,,48,127
76332,note_off,170,0,0,,0,,,48,127
76332,note_off,0,0,0,,4,,,76,127
76333,note_on,1,0,0,,5,,,77,127
76333,note_on,0,0,0,,5,,,53,127
76461,note_off,128,0,0,,5,,,77,127
76503,note_off,42,0,0,,5,,,53,127
76504,note_on,1,0,0,,10,,,81,127
76504,note_on,0,0,0,,10,,,69,127
76504,note_on,0,0,0,,5,,,65,127
76674,note_off,170,0,0,,5,,,65,127
76674,note_off,0,0,0,,10,,,69,127
76674,note_off,0,0,0,,10,,,81,127
76675,note_on,1,0,0,,7,,,67,127
76675,note_on,0,0,0,,7,,,79,127
76675,note_on,0,0,0,,0,,,60,127
76845,note_off,170,0,0,,0,,,60,127
76845,note_off,0,0,0,,7,,,79,127
76845,note_off,0,0,0,,7,,,67,127
76846,note_on,1,0,0,,10,,,69,127
76846,note_on,0,0,0,,10,,,81,127
76846,note_on,0,0,0,,5,,,65,127
77016,note_off,170,0,0,,5,,,65,127
77016,note_off,0,0,0,,10,,,81,127
77016,note_off,0,0,0,,10,,,69,127
77017,note_on,1,0,0,,7,,,79,127
77017,note_on,0,0,0,,7,,,67,127
77017,note_on,0,0,0,,0,,,60,127
77187,note_off,170,0,0,,0,,,60,127
77187,note_off,0,0,0,,7,,,67,127
77187,note_off,0,0,0,,7,,,79,127
77188,note_on,1,0,0,,10,,,69,127
77188,note_on,0,0,0,,10,,,81,127
77188,note_on,0,0,0,,5,,,65,127
77358,note_off,170,0,0,,5,,,65,127
77358,note_off,0,0,0,,10,,,81,127
77358,note_off,0,0,0,,10,,,69,127
77359,note_on,1,0,0,,7,,,79,127
77359,note_on,0,0,0,,7,,,67,127
77359,note_on,0,0,0,,0,,,60,127
77529,note_off,170,0,0,,0,,,60,127
77529,note_off,0,0,0,,7,,,67,127
77529,note_off,0,0,0,,7,,,79,127
77530,note_on,1,0,0,,10,,,69,127
77530,note_on,0,0,0,,10,,,81,127
77530,note_on,0,0,0,,5,,,65,127
77700,note_off,170,0,0,,5,,,65,127
77700,note_off,0,0,0,,10,,,81,127
77700,note_off,0,0,0,,10,,,69,127
77701,note_on,1,0,0,,7,,,67,127
77701,note_on,0,0,0,,7,,,79,127
77701,note_on,0,0,0,,0,,,60,127
77871,note_off,170,0,0,,0,,,60,127
77871,note_off,0,0,0,,7,,,79,127
77871,note_off,0,0,0,,7,,,67,127
77872,note_on,1,0,0,,10,,,69,127
77872,note_on,0,0,0,,10,,,81,127
77872,note_on,0,0,0,,5,,,65,127
78042,note_off,170,0,0,,5,,,65,127
78042,note_off,0,0,0,,10,,,81,127
78042,note_off,0,0,0,,10,,,69,127
78043,note_on,1,0,0,,7,,,67,127
78043,note_on,0,0,0,,7,,,79,127
78043,note_on,0,0,0,,0,,,60,127
78213,note_off,170,0,0,,0,,,60,127
78213,note_off,0,0,0,,7,,,79,127
78213,note_off,0,0,0,,7,,,67,127
78214,note_on,1,0,0,,10,,,69,127
78214,note_on,0,0,0,,10,,,81,127
78214,note_on,0,0,0,,5,,,65,127
78384,note_off,170,0,0,,5,,,65,127
78384,note_off,0,0,0,,10,,,81,127
78384,note_off,0,0,0,,10,,,69,127
78385,note_on,1,0,0,,7,,,79,127
78385,note_on,0,0,0,,7,,,67,127
78385,note_on,0,0,0,,0,,,60,127
78555,note_off,170,0,0,,0,,,60,127
78555,note_off,0,0,0,,7,,,67,127
78555,note_off,0,0,0,,7,,,79,127
78556,note_on,1,0,0,,0,,,84,127
78556,note_on,0,0,0,,0,,,72,127
78556,note_on,0,0,0,,10,,,57,127
78726,note_off,170,0,0,,10,,,57,127
78726,note_off,0,0,0,,0,,,72,127
78726,note_off,0,0,0,,0,,,84,127
78727,note_on,1,0,0,,0,,,84,127
78727,note_on,0,0,0,,2,,,74,127
78727,note_on,0,0,0,,11,,,58,127
78897,note_off,170,0,0,,11,,,58,127
78897,note_off,0,0,0,,2,,,74,127
78897,note_off,0,0,0,,0,,,84,127
78898,note_on,1,0,0,,4,,,76,127
78898,note_on,0,0,0,,0,,,84,127
78898,note_on,0,0,0,,0,,,60,127
79068,note_off,170,0,0,,0,,,60,127
79068,note_off,0,0,0,,0,,,84,127
79068,note_off,0,0,0,,4,,,76,127
79069,note_on,1,0,0,,0,,,84,127
79069,note_on,0,0,0,,5,,,77,127
79069,note_on,0,0,0,,2,,,62,127
79239,note_off,170,0,0,,2,,,62,127
79239,note_off,0,0,0,,5,,,77,127
79239,note_off,0,0,0,,0,,,84,127
79240,note_on,1,0,0,,7,,,79,127
79240,note_on,0,0,0,,0,,,84,127
79240,note_on,0,0,0,,4,,,64,127
79410,note_off,170,0,0,,4,,,64,127
79410,note_off,0,0,0,,0,,,84,127
79410,note_off,0,0,0,,7,,,79,127
79411,note_on,1,0,0,,0,,,84,127
79411,note_on,0,0,0,,10,,,81,127
79411,note_on,0,0,0,,5,,,65,127
79581,note_off,170,0,0,,10,,,81,127
79581,note_off,0,0,0,,0,,,84,127
79582,note_on,1,0,0,,7,,,79,127
79582,note_on,0,0,0,,11,,,82,127
79752,note_off,170,0,0,,11,,,82,127
79752,note_off,0,0,0,,7,,,79,127
79752,note_off,0,0,0,,5,,,65,127
79753,note_on,1,0,0,,5,,,77,127
79753,note_on,0,0,0,,10,,,81,127
79753,note_on,0,0,0,,5,,,53,127
79923,note_off,170,0,0,,5,,,53,127
79923,note_off,0,0,0,,10,,,81,127
79923,note_off,0,0,0,,5,,,77,127
79924,note_on,1,0,0,,7,,,79,127
79924,note_on,0,0,0,,11,,,82,127
79924,note_on,0,0,0,,11,,,58,127
80094,note_off,170,0,0,,11,,,58,127
80094,note_off,0,0,0,,11,,,82,127
80094,note_off,0,0,0,,7,,,79,127
80095,note_on,1,0,0,,10,,,81,127
80095,note_on,0,0,0,,5,,,77,127
80095,note_on,0,0,0,,0,,,60,127
80265,note_off,170,0,0,,0,,,60,127
80265,note_off,0,0,0,,5,,,77,127
80265,note_off,0,0,0,,10,,,81,127
80266,note_on,1,0,0,,4,,,76,127
80266,note_on,0,0,0,,7,,,79,127
80266,note_on,0,0,0,,0,,,48,127
80436,note_off,170,0,0,,0,,,48,127
80436,note_off,0,0,0,,7,,,79,127
80436,note_off,0,0,0,,4,,,76,127
80437,note_on,1,0,0,,5,,,77,127
80437,note_on,0,0,0,,5,,,53,127
80607,note_off,170,0,0,,5,,,53,127
80608,note_on,1,0,0,,10,,,69,127
80608,note_on,0,0,0,,10,,,81,127
80608,note_on,0,0,0,,5,,,65,127
80693,note_off,85,0,0,,5,,,77,127
80777,note_off,84,0,0,,5,,,65,127
80777,note_off,0,0,0,,10,,,81,127
80777,note_off,0,0,0,,10,,,69,127
80778,note_on,1,0,0,,7,,,79,127
80778,note_on,0,0,0,,7,,,67,127
80778,note_on,0,0,0,,0,,,60,127
80948,note_off,170,0,0,,0,,,60,127
80948,note_off,0,0,0,,7,,,67,127
80948,note_off,0,0,0,,7,,,79,127
80949,note_on,1,0,0,,10,,,69,127
80949,note_on,0,0,0,,10,,,81,127
80949,note_on,0,0,0,,5,,,65,127
81119,note_off,170,0,0,,5,,,65,127
81119,note_off,0,0,0,,10,,,81,127
81119,note_off,0,0,0,,10,,,69,127
81120,note_on,1,0,0,,7,,,67,127
81120,note_on,0,0,0,,7,,,79,127
81120,note_on,0,0,0,,0,,,60,127
81290,note_off,170,0,0,,0,,,60,127
81290,note_off,0,0,0,,7,,,79,127
81290,note_off,0,0,0,,7,,,67,127
81291,note_on,1,0,0,,10,,,81,127
81291,note_on,0,0,0,,10,,,69,127
81291,note_on,0,0,0,,5,,,65,127
81461,note_off,170,0,0,,5,,,65,127
81461,note_off,0,0,0,,10,,,69,127
81461,note_off,0,0,0,,10,,,81,127
81462,note_on,1,0,0,,7,,,79,127
81462,note_on,0,0,0,,7,,,67,127
81462,note_on,0,0,0,,0,,,60,127
81632,note_off,170,0,0,,0,,,60,127
81632,note_off,0,0,0,,7,,,67,127
81632,note_off,0,0,0,,7,,,79,127
81633,note_on,1,0,0,,10,,,69,127
81633,note_on,0,0,0,,10,,,81,127
81633,note_on,0,0,0,,5,,,65,127
81803,note_off,170,0,0,,5,,,65,127
81803,note_off,0,0,0,,10,,,81,127
81803,note_off,0,0,0,,10,,,69,127
81804,note_on,1,0,0,,7,,,67,127
81804,note_on,0,0,0,,7,,,79,127
81804,note_on,0,0,0,,0,,,60,127
81974,note_off,170,0,0,,0,,,60,127
81974,note_off,0,0,0,,7,,,79,127
81974,note_off,0,0,0,,7,,,67,127
81975,note_on,1,0,0,,10,,,81,127
81975,note_on,0,0,0,,10,,,69,127
81975,note_on,0,0,0,,5,,,65,127
82145,note_off,170,0,0,,5,,,65,127
82145,note_off,0,0,0,,10,,,69,127
82145,note_off,0,0,0,,10,,,81,127
82146,note_on,1,0,0,,7,,,67,127
82146,note_on,0,0,0,,7,,,79,127
82146,note_on,0,0,0,,0,,,60,127
82316,note_off,170,0,0,,0,,,60,127
82316,note_off,0,0,0,,7,,,79,127
82316,note_off,0,0,0,,7,,,67,127
82317,note_on,1,0,0,,10,,,69,127
82317,note_on,0,0,0,,10,,,81,127
82317,note_on,0,0,0,,5,,,65,127
82487,note_off,170,0,0,,5,,,65,127
82487,note_off,0,0,0,,10,,,81,127
82487,note_off,0,0,0,,10,,,69,127
82488,note_on,1,0,0,,7,,,79,127
82488,note_on,0,0,0,,7,,,67,127
82488,note_on,0,0,0,,0,,,60,127
82658,note_off,170,0,0,,0,,,60,127
82658,note_off,0,0,0,,7,,,67,127
82658,note_off,0,0,0,,7,,,79,127
82659,note_on,1,0,0,,0,,,84,127
82659,note_on,0,0,0,,0,,,72,127
82659,note_on,0,0,0,,10,,,57,127
82829,note_off,170,0,0,,10,,,57,127
82829,note_off,0,0,0,,0,,,72,127
82829,note_off,0,0,0,,0,,,84,127
82830,note_on,1,0,0,,0,,,84,127
82830,note_on,0,0,0,,2,,,74,127
82830,note_on,0,0,0,,11,,,58,127
83000,note_off,170,0,0,,11,,,58,127
83000,note_off,0,0,0,,2,,,74,127
83000,note_off,0,0,0,,0,,,84,127
83001,note_on,1,0,0,,0,,,84,127
83001,note_on,0,0,0,,4,,,76,127
83001,note_on,0,0,0,,0,,,60,127
83171,note_off,170,0,0,,0,,,60,127
83171,note_off,0,0,0,,4,,,76,127
83171,note_off,0,0,0,,0,,,84,127
83172,note_on,1,0,0,,0,,,84,127
83172,note_on,0,0,0,,5,,,77,127
83172,note_on,0,0,0,,2,,,62,127
83342,note_off,170,0,0,,2,,,62,127
83342,note_off,0,0,0,,5,,,77,127
83342,note_off,0,0,0,,0,,,84,127
83343,note_on,1,0,0,,7,,,79,127
83343,note_on,0,0,0,,0,,,84,127
83343,note_on,0,0,0,,4,,,64,127
83513,note_off,170,0,0,,4,,,64,127
83513,note_off,0,0,0,,0,,,84,127
83513,note_off,0,0,0,,7,,,79,127
83514,note_on,1,0,0,,10,,,81,127
83514,note_on,0,0,0,,0,,,84,127
83514,note_on,0,0,0,,5,,,65,127
83684,note_off,170,0,0,,0,,,84,127
83684,note_off,0,0,0,,10,,,81,127
83685,note_on,1,0,0,,7,,,79,127
83685,note_on,0,0,0,,11,,,82,127
83855,note_off,170,0,0,,11,,,82,127
83855,note_off,0,0,0,,7,,,79,127
83855,note_off,0,0,0,,5,,,65,127
83856,note_on,1,0,0,,10,,,81,127
83856,note_on,0,0,0,,5,,,77,127
83856,note_on,0,0,0,,5,,,53,127
84026,note_off,170,0,0,,5,,,53,127
84026,note_off,0,0,0,,5,,,77,127
84026,note_off,0,0,0,,10,,,81,127
84027,note_on,1,0,0,,7,,,79,127
84027,note_on,0,0,0,,11,,,82,127
84027,note_on,0,0,0,,11,,,58,127
84197,note_off,170,0,0,,11,,,58,127
84197,note_off,0,0,0,,11,,,82,127
84197,note_off,0,0,0,,7,,,79,127
84198,note_on,1,0,0,,10,,,81,127
84198,note_on,0,0,0,,5,,,77,127
84198,note_on,0,0,0,,0,,,60,127
84368,note_off,170,0,0,,0,,,60,127
84368,note_off,0,0,0,,5,,,77,127
84368,note_off,0,0,0,,10,,,81,127
84369,note_on,1,0,0,,4,,,76,127
84369,note_on,0,0,0,,7,,,79,127
84369,note_on,0,0,0,,0,,,48,127
84539,note_off,170,0,0,,0,,,48,127
84539,note_off,0,0,0,,7,,,79,127
84539,note_off,0,0,0,,4,,,76,127
84540,note_on,1,0,0,,10,,,81,127
84540,note_on,0,0,0,,5,,,77,127
84540,note_on,0,0,0,,10,,,57,127
84710,note_off,170,0,0,,10,,,57,127
84710,note_off,0,0,0,,5,,,77,127
84710,note_off,0,0,0,,10,,,81,127
84711,note_on,1,0,0,,7,,,79,127
84711,note_on,0,0,0,,11,,,82,127
84711,note_on,0,0,0,,7,,,55,127
84881,note_off,170,0,0,,7,,,55,127
84881,note_off,0,0,0,,11,,,82,127
84881,note_off,0,0,0,,7,,,79,127
84882,note_on,1,0,0,,0,,,84,127
84882,note_on,0,0,0,,10,,,81,127
84882,note_on,0,0,0,,5,,,53,127
85052,note_off,170,0,0,,5,,,53,127
85052,note_off,0,0,0,,10,,,81,127
85052,note_off,0,0,0,,0,,,84,127
85053,note_on,1,0,0,,7,,,79,127
85053,note_on,0,0,0,,11,,,82,127
85053,note_on,0,0,0,,11,,,58,127
85223,note_off,170,0,0,,11,,,58,127
85223,note_off,0,0,0,,11,,,82,127
85223,note_off,0,0,0,,7,,,79,127
85224,note_on,1,0,0,,5,,,77,127
85224,note_on,0,0,0,,10,,,81,127
85224,note_on,0,0,0,,0,,,60,127
85394,note_off,170,0,0,,0,,,60,127
85394,note_off,0,0,0,,10,,,81,127
85394,note_off,0,0,0,,5,,,77,127
85395,note_on,1,0,0,,4,,,76,127
85395,note_on,0,0,0,,7,,,79,127
85395,note_on,0,0,0,,0,,,48,127
85565,note_off,170,0,0,,0,,,48,127
85565,note_off,0,0,0,,7,,,79,127
85565,note_off,0,0,0,,4,,,76,127
85566,note_on,1,0,0,,7,,,79,127
85566,note_on,0,0,0,,10,,,57,127
85609,note_on,43,0,0,,5,,,77,127
85623,note_off,14,0,0,,7,,,79,127
85651,note_on,28,0,0,,7,,,79,127
85665,note_off,14,0,0,,5,,,77,127
85693,note_on,28,0,0,,5,,,77,127
85707,note_off,14,0,0,,7,,,79,127
85735,note_off,28,0,0,,10,,,57,127
85736,note_on,1,0,0,,4,,,76,127
85736,note_on,0,0,0,,7,,,55,127
85750,note_off,14,0,0,,5,,,77,127
85906,note_off,156,0,0,,7,,,55,127
85906,note_off,0,0,0,,4,,,76,127
85907,note_on,1,0,0,,5,,,77,127
85907,note_on,0,0,0,,5,,,53,127
86077,note_off,170,0,0,,5,,,53,127
86077,note_off,0,0,0,,5,,,77,127
86078,note_on,1,0,0,,10,,,81,127
86078,note_on,0,0,0,,11,,,58,127
86121,note_on,43,0,0,,7,,,79,127
86135,note_off,14,0,0,,10,,,81,127
86163,note_on,28,0,0,,10,,,81,127
86177,note_off,14,0,0,,7,,,79,127
86205,note_on,28,0,0,,7,,,79,127
86219,note_off,14,0,0,,10,,,81,127
86247,note_off,28,0,0,,11,,,58,127
86248,note_on,1,0,0,,5,,,77,127
86248,note_on,0,0,0,,0,,,60,127
86262,note_off,14,0,0,,7,,,79,127
86418,note_off,156,0,0,,0,,,60,127
86418,note_off,0,0,0,,5,,,77,127
86419,note_on,1,0,0,,4,,,76,127
86419,note_on,0,0,0,,0,,,48,127
86589,note_off,170,0,0,,0,,,48,127
86589,note_off,0,0,0,,4,,,76,127
86590,note_on,1,0,0,,10,,,57,127
86590,note_on,0,0,0,,7,,,79,127
86633,note_on,43,0,0,,5,,,77,127
86647,note_off,14,0,0,,7,,,79,127
86676,note_on,29,0,0,,7,,,79,127
86689,note_off,13,0,0,,5,,,77,127
86718,note_on,29,0,0,,5,,,77,127
86732,note_off,14,0,0,,7,,,79,127
86760,note_off,28,0,0,,10,,,57,127
86762,note_on,2,0,0,,7,,,55,127
86762,note_on,0,0,0,,4,,,76,127
86775,note_off,13,0,0,,5,,,77,127
86932,note_off,157,0,0,,4,,,76,127
86932,note_off,0,0,0,,7,,,55,127
86934,note_on,2,0,0,,5,,,53,127
86934,note_on,0,0,0,,5,,,77,127
87105,note_off,171,0,0,,5,,,77,127
87105,note_off,0,0,0,,5,,,53,127
87107,note_on,2,0,0,,11,,,58,127
87107,note_on,0,0,0,,10,,,81,127
87150,note_on,43,0,0,,7,,,79,127
87164,note_off,14,0,0,,10,,,81,127
87193,note_on,29,0,0,,10,,,81,127
87206,note_off,13,0,0,,7,,,79,127
87235,note_on,29,0,0,,7,,,79,127
87249,note_off,14,0,0,,10,,,81,127
87277,note_off,28,0,0,,11,,,58,127
87279,note_on,2,0,0,,0,,,60,127
87279,note_on,0,0,0,,5,,,77,127
87292,note_off,13,0,0,,7,,,79,127
87449,note_off,157,0,0,,5,,,77,127
87449,note_off,0,0,0,,0,,,60,127
87451,note_on,2,0,0,,0,,,48,127
87451,note_on,0,0,0,,4,,,76,127
87620,note_off,169,0,0,,4,,,76,127
87622,note_off,2,0,0,,0,,,48,127
87640,note_on,18,0,0,,5,,,53,127
87640,note_on,0,0,0,,5,,,41,127
87640,note_on,0,0,0,,4,,,76,127
88211,note_off,571,0,0,,4,,,76,127
88211,note_on,0,0,0,,5,,,77,127
89662,note_off,1451,0,0,,5,,,41,127
89662,note_off,0,0,0,,5,,,53,127
89747,note_off,85,0,0,,5,,,77,127
93696,end_of_track,3949,1,0,,,,,,
