tick,type,time,meta,track,program,channel,pitch,tempo,note,velocity
0,copyright,0,1,0,,,,,,
0,program_change,0,0,0,6,0,,,,
0,pitchwheel,0,0,0,,0,0,,,
0,program_change,0,0,0,6,1,,,,
0,pitchwheel,0,0,0,,1,-590,,,
0,program_change,0,0,0,6,2,,,,
0,pitchwheel,0,0,0,,2,-272,,,
0,program_change,0,0,0,6,3,,,,
0,pitchwheel,0,0,0,,3,-353,,,
0,program_change,0,0,0,6,4,,,,
0,pitchwheel,0,0,0,,4,-560,,,
0,program_change,0,0,0,6,5,,,,
0,pitchwheel,0,0,0,,5,-80,,,
0,program_change,0,0,0,6,6,,,,
0,pitchwheel,0,0,0,,6,-625,,,
0,program_change,0,0,0,6,7,,,,
0,pitchwheel,0,0,0,,7,-130,,,
0,program_change,0,0,0,6,8,,,,
0,pitchwheel,0,0,0,,8,-512,,,
0,program_change,0,0,0,6,10,,,,
0,pitchwheel,0,0,0,,10,-464,,,
0,program_change,0,0,0,6,11,,,,
0,pitchwheel,0,0,0,,11,-208,,,
0,program_change,0,0,0,6,12,,,,
0,pitchwheel,0,0,0,,12,-553,,,
0,set_tempo,0,1,0,,,,500000,,
115,note_on,115,0,0,,10,,,69,127
171,note_off,56,0,0,,10,,,69,127
172,note_on,1,0,0,,7,,,67,127
228,note_off,56,0,0,,7,,,67,127
229,note_on,1,0,0,,10,,,69,127
285,note_off,56,0,0,,10,,,69,127
286,note_on,1,0,0,,7,,,67,127
342,note_off,56,0,0,,7,,,67,127
343,note_on,1,0,0,,10,,,69,127
399,note_off,56,0,0,,10,,,69,127
400,note_on,1,0,0,,7,,,67,127
456,note_off,56,0,0,,7,,,67,127
457,note_on,1,0,0,,6,,,66,127
513,note_off,56,0,0,,6,,,66,127
514,note_on,1,0,0,,7,,,67,127
570,note_off,56,0,0,,7,,,67,127
571,note_on,1,0,0,,12,,,71,127
800,note_off,229,0,0,,12,,,71,127
801,note_on,1,0,0,,10,,,69,127
1030,note_off,229,0,0,,10,,,69,127
1031,note_on,1,0,0,,7,,,67,127
1260,note_off,229,0,0,,7,,,67,127
1261,note_on,1,0,0,,2,,,62,127
1490,note_off,229,0,0,,2,,,62,127
1491,note_on,1,0,0,,4,,,76,127
1720,note_off,229,0,0,,4,,,76,127
1721,note_on,1,0,0,,2,,,74,127
1913,note_off,192,0,0,,2,,,74,127
1951,note_on,38,0,0,,2,,,74,127
2007,note_off,56,0,0,,2,,,74,127
2008,note_on,1,0,0,,0,,,72,127
2064,note_off,56,0,0,,0,,,72,127
2065,note_on,1,0,0,,2,,,74,127
2121,note_off,56,0,0,,2,,,74,127
2122,note_on,1,0,0,,0,,,72,127
2178,note_off,56,0,0,,0,,,72,127
2179,note_on,1,0,0,,2,,,74,127
2235,note_off,56,0,0,,2,,,74,127
2236,note_on,1,0,0,,0,,,72,127
2292,note_off,56,0,0,,0,,,72,127
2293,note_on,1,0,0,,12,,,71,127
2349,note_off,56,0,0,,12,,,71,127
2350,note_on,1,0,0,,0,,,72,127
2406,note_off,56,0,0,,0,,,72,127
2407,note_on,1,0,0,,4,,,76,127
2636,note_off,229,0,0,,4,,,76,127
2637,note_on,1,0,0,,2,,,74,127
2866,note_off,229,0,0,,2,,,74,127
2867,note_on,1,0,0,,0,,,72,127
3096,note_off,229,0,0,,0,,,72,127
3097,note_on,1,0,0,,6,,,66,127
3326,note_off,229,0,0,,6,,,66,127
3327,note_on,1,0,0,,10,,,81,127
3556,note_off,229,0,0,,10,,,81,127
3557,note_on,1,0,0,,7,,,79,127
3761,note_off,204,0,0,,7,,,79,127
3787,note_on,26,0,0,,7,,,79,127
3843,note_off,56,0,0,,7,,,79,127
3844,note_on,1,0,0,,6,,,78,127
3900,note_off,56,0,0,,6,,,78,127
3901,note_on,1,0,0,,7,,,79,127
3957,note_off,56,0,0,,7,,,79,127
3958,note_on,1,0,0,,6,,,78,127
4014,note_off,56,0,0,,6,,,78,127
4015,note_on,1,0,0,,4,,,76,127
4123,note_off,108,0,0,,4,,,76,127
4130,note_on,7,0,0,,2,,,74,127
4244,note_off,114,0,0,,2,,,74,127
4245,note_on,1,0,0,,2,,,74,127
4301,note_off,56,0,0,,2,,,74,127
4302,note_on,1,0,0,,0,,,72,127
4358,note_off,56,0,0,,0,,,72,127
4359,note_on,1,0,0,,2,,,74,127
4415,note_off,56,0,0,,2,,,74,127
4416,note_on,1,0,0,,0,,,72,127
4472,note_off,56,0,0,,0,,,72,127
4473,note_on,1,0,0,,12,,,71,127
4587,note_off,114,0,0,,12,,,71,127
4588,note_on,1,0,0,,10,,,69,127
4702,note_off,114,0,0,,10,,,69,127
4703,note_on,1,0,0,,10,,,57,127
4703,note_on,0,0,0,,0,,,72,127
4703,note_on,0,0,0,,7,,,67,127
4759,note_off,56,0,0,,0,,,72,127
4759,note_off,0,0,0,,10,,,57,127
4760,note_on,1,0,0,,7,,,55,127
4760,note_on,0,0,0,,12,,,71,127
4816,note_off,56,0,0,,12,,,71,127
4816,note_off,0,0,0,,7,,,55,127
4817,note_on,1,0,0,,10,,,57,127
4817,note_on,0,0,0,,0,,,72,127
4873,note_off,56,0,0,,0,,,72,127
4873,note_off,0,0,0,,10,,,57,127
4874,note_on,1,0,0,,7,,,55,127
4874,note_on,0,0,0,,12,,,71,127
4930,note_off,56,0,0,,12,,,71,127
4930,note_off,0,0,0,,7,,,55,127
4931,note_on,1,0,0,,10,,,57,127
4931,note_on,0,0,0,,0,,,72,127
4987,note_off,56,0,0,,0,,,72,127
4987,note_off,0,0,0,,10,,,57,127
4988,note_on,1,0,0,,7,,,55,127
4988,note_on,0,0,0,,12,,,71,127
5044,note_off,56,0,0,,12,,,71,127
5044,note_off,0,0,0,,7,,,55,127
5045,note_on,1,0,0,,6,,,54,127
5045,note_on,0,0,0,,10,,,69,127
5101,note_off,56,0,0,,10,,,69,127
5101,note_off,0,0,0,,6,,,54,127
5102,note_on,1,0,0,,7,,,55,127
5102,note_on,0,0,0,,12,,,71,127
5158,note_off,56,0,0,,12,,,71,127
5158,note_off,0,0,0,,7,,,55,127
5159,note_on,1,0,0,,12,,,59,127
5159,note_on,0,0,0,,2,,,74,127
5388,note_off,229,0,0,,2,,,74,127
5388,note_off,0,0,0,,12,,,59,127
5389,note_on,1,0,0,,10,,,57,127
5389,note_on,0,0,0,,0,,,72,127
5618,note_off,229,0,0,,0,,,72,127
5618,note_off,0,0,0,,10,,,57,127
5618,note_off,0,0,0,,7,,,67,127
5619,note_on,1,0,0,,7,,,55,127
5619,note_on,0,0,0,,12,,,71,127
5848,note_off,229,0,0,,7,,,55,127
5849,note_on,1,0,0,,2,,,50,127
6078,note_off,229,0,0,,2,,,50,127
6078,note_off,0,0,0,,12,,,71,127
6079,note_on,1,0,0,,4,,,64,127
6079,note_on,0,0,0,,0,,,72,127
6308,note_off,229,0,0,,0,,,72,127
6308,note_off,0,0,0,,4,,,64,127
6309,note_on,1,0,0,,2,,,62,127
6309,note_on,0,0,0,,12,,,71,127
6538,note_off,229,0,0,,12,,,71,127
6538,note_off,0,0,0,,2,,,62,127
6539,note_on,1,0,0,,2,,,62,127
6539,note_on,0,0,0,,12,,,71,127
6595,note_off,56,0,0,,12,,,71,127
6595,note_off,0,0,0,,2,,,62,127
6596,note_on,1,0,0,,0,,,60,127
6596,note_on,0,0,0,,10,,,69,127
6652,note_off,56,0,0,,10,,,69,127
6652,note_off,0,0,0,,0,,,60,127
6653,note_on,1,0,0,,2,,,62,127
6653,note_on,0,0,0,,12,,,71,127
6709,note_off,56,0,0,,12,,,71,127
6709,note_off,0,0,0,,2,,,62,127
6710,note_on,1,0,0,,0,,,60,127
6710,note_on,0,0,0,,10,,,69,127
6766,note_off,56,0,0,,10,,,69,127
6766,note_off,0,0,0,,0,,,60,127
6767,note_on,1,0,0,,2,,,62,127
6767,note_on,0,0,0,,12,,,71,127
6823,note_off,56,0,0,,12,,,71,127
6823,note_off,0,0,0,,2,,,62,127
6824,note_on,1,0,0,,0,,,60,127
6824,note_on,0,0,0,,10,,,69,127
6880,note_off,56,0,0,,10,,,69,127
6880,note_off,0,0,0,,0,,,60,127
6881,note_on,1,0,0,,12,,,59,127
6881,note_on,0,0,0,,7,,,67,127
6937,note_off,56,0,0,,7,,,67,127
6937,note_off,0,0,0,,12,,,59,127
6938,note_on,1,0,0,,0,,,60,127
6938,note_on,0,0,0,,10,,,69,127
6994,note_off,56,0,0,,10,,,69,127
6994,note_off,0,0,0,,0,,,60,127
6995,note_on,1,0,0,,4,,,64,127
6995,note_on,0,0,0,,0,,,72,127
7224,note_off,229,0,0,,0,,,72,127
7224,note_off,0,0,0,,4,,,64,127
7225,note_on,1,0,0,,2,,,62,127
7225,note_on,0,0,0,,12,,,71,127
7454,note_off,229,0,0,,12,,,71,127
7454,note_off,0,0,0,,2,,,62,127
7455,note_on,1,0,0,,0,,,60,127
7455,note_on,0,0,0,,10,,,69,127
7684,note_off,229,0,0,,0,,,60,127
7685,note_on,1,0,0,,6,,,54,127
7685,note_on,0,0,0,,4,,,76,127
7914,note_off,229,0,0,,4,,,76,127
7914,note_off,0,0,0,,6,,,54,127
7914,note_off,0,0,0,,10,,,69,127
7915,note_on,1,0,0,,10,,,69,127
7915,note_on,0,0,0,,2,,,74,127
7915,note_on,0,0,0,,0,,,72,127
8144,note_off,229,0,0,,0,,,72,127
8144,note_off,0,0,0,,2,,,74,127
8144,note_off,0,0,0,,10,,,69,127
8145,note_on,1,0,0,,7,,,67,127
8145,note_on,0,0,0,,12,,,71,127
8374,note_off,229,0,0,,12,,,71,127
8374,note_off,0,0,0,,7,,,67,127
8375,note_on,1,0,0,,7,,,67,127
8375,note_on,0,0,0,,10,,,69,127
8431,note_off,56,0,0,,7,,,67,127
8432,note_on,1,0,0,,6,,,66,127
8488,note_off,56,0,0,,6,,,66,127
8489,note_on,1,0,0,,7,,,67,127
8545,note_off,56,0,0,,7,,,67,127
8546,note_on,1,0,0,,6,,,66,127
8602,note_off,56,0,0,,6,,,66,127
8602,note_off,0,0,0,,10,,,69,127
8603,note_on,1,0,0,,4,,,64,127
8603,note_on,0,0,0,,7,,,67,127
8717,note_off,114,0,0,,7,,,67,127
8717,note_off,0,0,0,,4,,,64,127
8718,note_on,1,0,0,,2,,,62,127
8718,note_on,0,0,0,,6,,,66,127
8832,note_off,114,0,0,,6,,,66,127
8832,note_off,0,0,0,,2,,,62,127
8833,note_on,1,0,0,,2,,,62,127
8833,note_on,0,0,0,,7,,,67,127
8889,note_off,56,0,0,,2,,,62,127
8890,note_on,1,0,0,,0,,,60,127
8946,note_off,56,0,0,,0,,,60,127
8947,note_on,1,0,0,,2,,,62,127
9003,note_off,56,0,0,,2,,,62,127
9004,note_on,1,0,0,,0,,,60,127
9060,note_off,56,0,0,,0,,,60,127
9060,note_off,0,0,0,,7,,,67,127
9061,note_on,1,0,0,,12,,,59,127
9061,note_on,0,0,0,,10,,,69,127
9175,note_off,114,0,0,,12,,,59,127
9176,note_on,1,0,0,,10,,,57,127
9290,note_off,114,0,0,,10,,,57,127
9290,note_off,0,0,0,,10,,,69,127
9291,note_on,1,0,0,,7,,,43,127
9291,note_on,0,0,0,,7,,,55,127
9291,note_on,0,0,0,,12,,,71,127
9521,note_on,230,0,0,,4,,,76,127
9577,note_off,56,0,0,,4,,,76,127
9578,note_on,1,0,0,,2,,,74,127
9634,note_off,56,0,0,,2,,,74,127
9635,note_on,1,0,0,,0,,,72,127
9749,note_off,114,0,0,,0,,,72,127
9750,note_on,1,0,0,,2,,,74,127
9979,note_off,229,0,0,,2,,,74,127
9980,note_on,1,0,0,,4,,,76,127
10209,note_off,229,0,0,,4,,,76,127
10209,note_off,0,0,0,,12,,,71,127
10209,note_off,0,0,0,,7,,,55,127
10209,note_off,0,0,0,,7,,,43,127
10210,note_on,1,0,0,,2,,,38,127
10210,note_on,0,0,0,,2,,,50,127
10210,note_on,0,0,0,,2,,,74,127
10210,note_on,0,0,0,,10,,,69,127
10439,note_off,229,0,0,,2,,,74,127
10440,note_on,1,0,0,,2,,,74,127
10496,note_off,56,0,0,,2,,,74,127
10497,note_on,1,0,0,,0,,,72,127
10553,note_off,56,0,0,,0,,,72,127
10554,note_on,1,0,0,,12,,,71,127
10668,note_off,114,0,0,,12,,,71,127
10669,note_on,1,0,0,,0,,,72,127
10898,note_off,229,0,0,,0,,,72,127
10899,note_on,1,0,0,,2,,,74,127
11128,note_off,229,0,0,,2,,,74,127
11128,note_off,0,0,0,,10,,,69,127
11128,note_off,0,0,0,,2,,,50,127
11128,note_off,0,0,0,,2,,,38,127
11129,note_on,1,0,0,,7,,,43,127
11129,note_on,0,0,0,,7,,,55,127
11129,note_on,0,0,0,,0,,,72,127
11129,note_on,0,0,0,,7,,,67,127
11358,note_off,229,0,0,,0,,,72,127
11359,note_on,1,0,0,,0,,,72,127
11415,note_off,56,0,0,,0,,,72,127
11416,note_on,1,0,0,,12,,,71,127
11472,note_off,56,0,0,,12,,,71,127
11473,note_on,1,0,0,,10,,,69,127
11587,note_off,114,0,0,,10,,,69,127
11588,note_on,1,0,0,,12,,,71,127
11817,note_off,229,0,0,,12,,,71,127
11818,note_on,1,0,0,,0,,,72,127
12047,note_off,229,0,0,,0,,,72,127
12047,note_off,0,0,0,,7,,,67,127
12047,note_off,0,0,0,,7,,,55,127
12047,note_off,0,0,0,,7,,,43,127
12048,note_on,1,0,0,,2,,,50,127
12048,note_on,0,0,0,,2,,,38,127
12048,note_on,0,0,0,,12,,,71,127
12048,note_on,0,0,0,,2,,,62,127
12277,note_off,229,0,0,,12,,,71,127
12278,note_on,1,0,0,,12,,,71,127
12334,note_off,56,0,0,,12,,,71,127
12335,note_on,1,0,0,,10,,,69,127
12391,note_off,56,0,0,,10,,,69,127
12392,note_on,1,0,0,,7,,,67,127
12506,note_off,114,0,0,,7,,,67,127
12507,note_on,1,0,0,,10,,,69,127
12736,note_off,229,0,0,,10,,,69,127
12737,note_on,1,0,0,,12,,,71,127
12966,note_off,229,0,0,,12,,,71,127
12966,note_off,0,0,0,,2,,,62,127
12966,note_off,0,0,0,,2,,,38,127
12966,note_off,0,0,0,,2,,,50,127
12967,note_on,1,0,0,,12,,,59,127
12967,note_on,0,0,0,,7,,,67,127
13197,note_on,230,0,0,,4,,,64,127
13253,note_off,56,0,0,,4,,,64,127
13254,note_on,1,0,0,,2,,,62,127
13310,note_off,56,0,0,,2,,,62,127
13311,note_on,1,0,0,,0,,,60,127
13425,note_off,114,0,0,,0,,,60,127
13425,note_off,0,0,0,,7,,,67,127
13426,note_on,1,0,0,,2,,,62,127
13655,note_off,229,0,0,,2,,,62,127
13656,note_on,1,0,0,,4,,,64,127
13885,note_off,229,0,0,,4,,,64,127
13885,note_off,0,0,0,,12,,,59,127
13886,note_on,1,0,0,,10,,,57,127
13886,note_on,0,0,0,,2,,,62,127
14115,note_off,229,0,0,,2,,,62,127
14116,note_on,1,0,0,,2,,,62,127
14172,note_off,56,0,0,,2,,,62,127
14173,note_on,1,0,0,,0,,,60,127
14229,note_off,56,0,0,,0,,,60,127
14230,note_on,1,0,0,,12,,,59,127
14344,note_off,114,0,0,,12,,,59,127
14345,note_on,1,0,0,,0,,,60,127
14574,note_off,229,0,0,,0,,,60,127
14575,note_on,1,0,0,,2,,,62,127
14804,note_off,229,0,0,,2,,,62,127
14804,note_off,0,0,0,,10,,,57,127
14805,note_on,1,0,0,,0,,,60,127
14805,note_on,0,0,0,,7,,,55,127
15034,note_off,229,0,0,,0,,,60,127
15035,note_on,1,0,0,,0,,,60,127
15091,note_off,56,0,0,,0,,,60,127
15092,note_on,1,0,0,,12,,,59,127
15148,note_off,56,0,0,,12,,,59,127
15149,note_on,1,0,0,,10,,,57,127
15263,note_off,114,0,0,,10,,,57,127
15264,note_on,1,0,0,,12,,,59,127
15493,note_off,229,0,0,,12,,,59,127
15494,note_on,1,0,0,,0,,,60,127
15723,note_off,229,0,0,,0,,,60,127
15723,note_off,0,0,0,,7,,,55,127
15724,note_on,1,0,0,,12,,,59,127
15724,note_on,0,0,0,,2,,,50,127
15953,note_off,229,0,0,,12,,,59,127
15954,note_on,1,0,0,,12,,,59,127
16010,note_off,56,0,0,,12,,,59,127
16011,note_on,1,0,0,,10,,,57,127
16067,note_off,56,0,0,,10,,,57,127
16068,note_on,1,0,0,,7,,,55,127
16182,note_off,114,0,0,,7,,,55,127
16183,note_on,1,0,0,,10,,,57,127
16412,note_off,229,0,0,,10,,,57,127
16413,note_on,1,0,0,,12,,,59,127
16642,note_off,229,0,0,,12,,,59,127
16642,note_off,0,0,0,,2,,,50,127
16643,note_on,1,0,0,,10,,,57,127
16643,note_on,0,0,0,,7,,,55,127
16643,note_on,0,0,0,,1,,,49,127
16873,note_on,230,0,0,,4,,,76,127
17102,note_off,229,0,0,,4,,,76,127
17103,note_on,1,0,0,,10,,,69,127
17333,note_on,230,0,0,,7,,,79,127
17562,note_off,229,0,0,,7,,,79,127
17562,note_off,0,0,0,,1,,,49,127
17562,note_off,0,0,0,,7,,,55,127
17562,note_off,0,0,0,,10,,,57,127
17563,note_on,1,0,0,,10,,,57,127
17563,note_on,0,0,0,,2,,,50,127
17563,note_on,0,0,0,,7,,,55,127
17563,note_on,0,0,0,,6,,,78,127
17792,note_off,229,0,0,,6,,,78,127
17793,note_on,1,0,0,,6,,,78,127
17849,note_off,56,0,0,,6,,,78,127
17850,note_on,1,0,0,,4,,,76,127
17906,note_off,56,0,0,,4,,,76,127
17907,note_on,1,0,0,,2,,,74,127
18021,note_off,114,0,0,,2,,,74,127
18021,note_off,0,0,0,,7,,,55,127
18021,note_off,0,0,0,,2,,,50,127
18021,note_off,0,0,0,,10,,,57,127
18021,note_off,0,0,0,,10,,,69,127
18022,note_on,1,0,0,,10,,,57,127
18022,note_on,0,0,0,,7,,,55,127
18022,note_on,0,0,0,,1,,,49,127
18022,note_on,0,0,0,,4,,,76,127
18022,note_on,0,0,0,,10,,,69,127
18251,note_off,229,0,0,,4,,,76,127
18252,note_on,1,0,0,,7,,,79,127
18481,note_off,229,0,0,,7,,,79,127
18481,note_off,0,0,0,,1,,,49,127
18481,note_off,0,0,0,,7,,,55,127
18481,note_off,0,0,0,,10,,,57,127
18482,note_on,1,0,0,,10,,,57,127
18482,note_on,0,0,0,,7,,,55,127
18482,note_on,0,0,0,,2,,,50,127
18482,note_on,0,0,0,,6,,,78,127
18711,note_off,229,0,0,,6,,,78,127
18712,note_on,1,0,0,,6,,,78,127
18768,note_off,56,0,0,,6,,,78,127
18769,note_on,1,0,0,,4,,,76,127
18825,note_off,56,0,0,,4,,,76,127
18826,note_on,1,0,0,,2,,,74,127
18940,note_off,114,0,0,,2,,,74,127
18940,note_off,0,0,0,,2,,,50,127
18940,note_off,0,0,0,,7,,,55,127
18940,note_off,0,0,0,,10,,,57,127
18940,note_off,0,0,0,,10,,,69,127
18941,note_on,1,0,0,,10,,,57,127
18941,note_on,0,0,0,,7,,,55,127
18941,note_on,0,0,0,,1,,,49,127
18941,note_on,0,0,0,,4,,,76,127
18941,note_on,0,0,0,,10,,,69,127
19170,note_off,229,0,0,,4,,,76,127
19171,note_on,1,0,0,,7,,,79,127
19400,note_off,229,0,0,,7,,,79,127
19400,note_off,0,0,0,,1,,,49,127
19400,note_off,0,0,0,,7,,,55,127
19400,note_off,0,0,0,,10,,,57,127
19401,note_on,1,0,0,,10,,,57,127
19401,note_on,0,0,0,,2,,,50,127
19401,note_on,0,0,0,,7,,,55,127
19401,note_on,0,0,0,,6,,,78,127
19630,note_off,229,0,0,,6,,,78,127
19631,note_on,1,0,0,,7,,,79,127
19745,note_off,114,0,0,,7,,,79,127
19746,note_on,1,0,0,,10,,,81,127
19860,note_off,114,0,0,,10,,,81,127
19860,note_off,0,0,0,,7,,,55,127
19860,note_off,0,0,0,,2,,,50,127
19860,note_off,0,0,0,,10,,,57,127
19860,note_off,0,0,0,,10,,,69,127
19861,note_on,1,0,0,,7,,,55,127
19861,note_on,0,0,0,,7,,,43,127
19861,note_on,0,0,0,,7,,,79,127
19861,note_on,0,0,0,,10,,,81,127
19975,note_off,114,0,0,,10,,,81,127
19975,note_off,0,0,0,,7,,,79,127
19976,note_on,1,0,0,,6,,,78,127
20090,note_off,114,0,0,,6,,,78,127
20091,note_on,1,0,0,,4,,,76,127
20205,note_off,114,0,0,,4,,,76,127
20206,note_on,1,0,0,,2,,,74,127
20320,note_off,114,0,0,,2,,,74,127
20320,note_off,0,0,0,,7,,,43,127
20320,note_off,0,0,0,,7,,,55,127
20321,note_on,1,0,0,,10,,,45,127
20321,note_on,0,0,0,,1,,,73,127
20550,note_off,229,0,0,,1,,,73,127
20551,note_on,1,0,0,,1,,,73,127
20551,note_on,0,0,0,,4,,,76,127
20665,note_off,114,0,0,,4,,,76,127
20665,note_off,0,0,0,,1,,,73,127
20666,note_on,1,0,0,,12,,,71,127
20666,note_on,0,0,0,,2,,,74,127
20780,note_off,114,0,0,,2,,,74,127
20780,note_off,0,0,0,,12,,,71,127
20781,note_on,1,0,0,,4,,,76,127
20781,note_on,0,0,0,,1,,,73,127
20895,note_off,114,0,0,,1,,,73,127
20895,note_off,0,0,0,,4,,,76,127
20896,note_on,1,0,0,,12,,,71,127
20896,note_on,0,0,0,,2,,,74,127
21010,note_off,114,0,0,,2,,,74,127
21010,note_off,0,0,0,,12,,,71,127
21011,note_on,1,0,0,,4,,,76,127
21011,note_on,0,0,0,,1,,,73,127
21125,note_off,114,0,0,,1,,,73,127
21125,note_off,0,0,0,,4,,,76,127
21126,note_on,1,0,0,,6,,,78,127
21126,note_on,0,0,0,,2,,,74,127
21240,note_off,114,0,0,,2,,,74,127
21240,note_off,0,0,0,,6,,,78,127
21240,note_off,0,0,0,,10,,,45,127
21241,note_on,1,0,0,,1,,,73,127
21241,note_on,0,0,0,,4,,,76,127
21355,note_off,114,0,0,,4,,,76,127
21355,note_off,0,0,0,,1,,,73,127
21356,note_on,1,0,0,,2,,,74,127
21356,note_on,0,0,0,,12,,,71,127
21470,note_off,114,0,0,,12,,,71,127
21470,note_off,0,0,0,,2,,,74,127
21471,note_on,1,0,0,,4,,,64,127
21471,note_on,0,0,0,,4,,,76,127
21471,note_on,0,0,0,,1,,,73,127
21585,note_off,114,0,0,,1,,,73,127
21585,note_off,0,0,0,,4,,,76,127
21586,note_on,1,0,0,,2,,,74,127
21586,note_on,0,0,0,,6,,,78,127
21700,note_off,114,0,0,,6,,,78,127
21700,note_off,0,0,0,,2,,,74,127
21700,note_off,0,0,0,,4,,,64,127
21701,note_on,1,0,0,,1,,,61,127
21701,note_on,0,0,0,,1,,,73,127
21701,note_on,0,0,0,,4,,,76,127
21815,note_off,114,0,0,,4,,,76,127
21815,note_off,0,0,0,,1,,,73,127
21816,note_on,1,0,0,,2,,,74,127
21816,note_on,0,0,0,,12,,,71,127
21930,note_off,114,0,0,,12,,,71,127
21930,note_off,0,0,0,,2,,,74,127
21930,note_off,0,0,0,,1,,,61,127
21931,note_on,1,0,0,,10,,,57,127
21931,note_on,0,0,0,,4,,,76,127
21931,note_on,0,0,0,,1,,,73,127
22045,note_off,114,0,0,,1,,,73,127
22045,note_off,0,0,0,,4,,,76,127
22046,note_on,1,0,0,,2,,,74,127
22046,note_on,0,0,0,,6,,,78,127
22160,note_off,114,0,0,,6,,,78,127
22160,note_off,0,0,0,,2,,,74,127
22160,note_off,0,0,0,,10,,,57,127
22161,note_on,1,0,0,,10,,,33,127
22161,note_on,0,0,0,,1,,,73,127
22161,note_on,0,0,0,,4,,,76,127
22390,note_off,229,0,0,,4,,,76,127
22390,note_off,0,0,0,,1,,,73,127
22391,note_on,1,0,0,,2,,,74,127
22391,note_on,0,0,0,,6,,,78,127
22505,note_off,114,0,0,,6,,,78,127
22505,note_off,0,0,0,,2,,,74,127
22506,note_on,1,0,0,,1,,,73,127
22506,note_on,0,0,0,,4,,,76,127
22620,note_off,114,0,0,,4,,,76,127
22620,note_off,0,0,0,,1,,,73,127
22621,note_on,1,0,0,,6,,,78,127
22621,note_on,0,0,0,,2,,,74,127
22735,note_off,114,0,0,,2,,,74,127
22735,note_off,0,0,0,,6,,,78,127
22736,note_on,1,0,0,,4,,,76,127
22736,note_on,0,0,0,,1,,,73,127
22850,note_off,114,0,0,,1,,,73,127
22850,note_off,0,0,0,,4,,,76,127
22851,note_on,1,0,0,,2,,,74,127
22851,note_on,0,0,0,,6,,,78,127
22965,note_off,114,0,0,,6,,,78,127
22965,note_off,0,0,0,,2,,,74,127
22966,note_on,1,0,0,,4,,,76,127
22966,note_on,0,0,0,,7,,,79,127
23080,note_off,114,0,0,,7,,,79,127
23080,note_off,0,0,0,,4,,,76,127
23080,note_off,0,0,0,,10,,,33,127
23081,note_on,1,0,0,,2,,,74,127
23081,note_on,0,0,0,,6,,,78,127
23195,note_off,114,0,0,,6,,,78,127
23195,note_off,0,0,0,,2,,,74,127
23196,note_on,1,0,0,,4,,,76,127
23196,note_on,0,0,0,,1,,,73,127
23310,note_off,114,0,0,,1,,,73,127
23310,note_off,0,0,0,,4,,,76,127
23311,note_on,1,0,0,,6,,,66,127
23311,note_on,0,0,0,,2,,,74,127
23311,note_on,0,0,0,,6,,,78,127
23425,note_off,114,0,0,,6,,,78,127
23425,note_off,0,0,0,,2,,,74,127
23426,note_on,1,0,0,,4,,,76,127
23426,note_on,0,0,0,,7,,,79,127
23540,note_off,114,0,0,,7,,,79,127
23540,note_off,0,0,0,,4,,,76,127
23540,note_off,0,0,0,,6,,,66,127
23541,note_on,1,0,0,,2,,,62,127
23541,note_on,0,0,0,,6,,,78,127
23541,note_on,0,0,0,,2,,,74,127
23655,note_off,114,0,0,,2,,,74,127
23655,note_off,0,0,0,,6,,,78,127
23656,note_on,1,0,0,,1,,,73,127
23656,note_on,0,0,0,,4,,,76,127
23770,note_off,114,0,0,,4,,,76,127
23770,note_off,0,0,0,,1,,,73,127
23770,note_off,0,0,0,,2,,,62,127
23771,note_on,1,0,0,,10,,,57,127
23771,note_on,0,0,0,,6,,,78,127
23771,note_on,0,0,0,,2,,,74,127
23885,note_off,114,0,0,,2,,,74,127
23885,note_off,0,0,0,,6,,,78,127
23886,note_on,1,0,0,,7,,,79,127
23886,note_on,0,0,0,,4,,,76,127
24000,note_off,114,0,0,,4,,,76,127
24000,note_off,0,0,0,,7,,,79,127
24000,note_off,0,0,0,,10,,,57,127
24001,note_on,1,0,0,,10,,,33,127
24001,note_on,0,0,0,,6,,,78,127
24001,note_on,0,0,0,,2,,,74,127
24230,note_off,229,0,0,,2,,,74,127
24230,note_off,0,0,0,,6,,,78,127
24231,note_on,1,0,0,,7,,,79,127
24231,note_on,0,0,0,,4,,,76,127
24345,note_off,114,0,0,,4,,,76,127
24345,note_off,0,0,0,,7,,,79,127
24346,note_on,1,0,0,,6,,,78,127
24346,note_on,0,0,0,,2,,,74,127
24460,note_off,114,0,0,,2,,,74,127
24460,note_off,0,0,0,,6,,,78,127
24461,note_on,1,0,0,,4,,,76,127
24461,note_on,0,0,0,,7,,,79,127
24575,note_off,114,0,0,,7,,,79,127
24575,note_off,0,0,0,,4,,,76,127
24576,note_on,1,0,0,,2,,,74,127
24576,note_on,0,0,0,,6,,,78,127
24690,note_off,114,0,0,,6,,,78,127
24690,note_off,0,0,0,,2,,,74,127
24691,note_on,1,0,0,,7,,,79,127
24691,note_on,0,0,0,,4,,,76,127
24805,note_off,114,0,0,,4,,,76,127
24805,note_off,0,0,0,,7,,,79,127
24806,note_on,1,0,0,,10,,,81,127
24806,note_on,0,0,0,,6,,,78,127
24920,note_off,114,0,0,,6,,,78,127
24920,note_off,0,0,0,,10,,,81,127
24920,note_off,0,0,0,,10,,,33,127
24921,note_on,1,0,0,,7,,,79,127
24921,note_on,0,0,0,,4,,,76,127
25035,note_off,114,0,0,,4,,,76,127
25035,note_off,0,0,0,,7,,,79,127
25036,note_on,1,0,0,,6,,,78,127
25036,note_on,0,0,0,,2,,,74,127
25150,note_off,114,0,0,,2,,,74,127
25150,note_off,0,0,0,,6,,,78,127
25151,note_on,1,0,0,,7,,,67,127
25151,note_on,0,0,0,,7,,,79,127
25151,note_on,0,0,0,,4,,,76,127
25265,note_off,114,0,0,,4,,,76,127
25265,note_off,0,0,0,,7,,,79,127
25266,note_on,1,0,0,,10,,,81,127
25266,note_on,0,0,0,,6,,,78,127
25380,note_off,114,0,0,,6,,,78,127
25380,note_off,0,0,0,,10,,,81,127
25380,note_off,0,0,0,,7,,,67,127
25381,note_on,1,0,0,,4,,,64,127
25381,note_on,0,0,0,,7,,,79,127
25381,note_on,0,0,0,,4,,,76,127
25495,note_off,114,0,0,,4,,,76,127
25495,note_off,0,0,0,,7,,,79,127
25496,note_on,1,0,0,,6,,,78,127
25496,note_on,0,0,0,,2,,,74,127
25610,note_off,114,0,0,,2,,,74,127
25610,note_off,0,0,0,,6,,,78,127
25610,note_off,0,0,0,,4,,,64,127
25611,note_on,1,0,0,,10,,,57,127
25611,note_on,0,0,0,,4,,,76,127
25611,note_on,0,0,0,,7,,,79,127
25725,note_off,114,0,0,,7,,,79,127
25725,note_off,0,0,0,,4,,,76,127
25726,note_on,1,0,0,,6,,,78,127
25726,note_on,0,0,0,,10,,,81,127
25840,note_off,114,0,0,,10,,,81,127
25840,note_off,0,0,0,,6,,,78,127
25840,note_off,0,0,0,,10,,,57,127
25841,note_on,1,0,0,,10,,,33,127
25841,note_on,0,0,0,,6,,,78,127
25841,note_on,0,0,0,,2,,,74,127
25955,note_off,114,0,0,,2,,,74,127
25955,note_off,0,0,0,,6,,,78,127
25956,note_on,1,0,0,,4,,,76,127
25956,note_on,0,0,0,,7,,,79,127
26070,note_off,114,0,0,,7,,,79,127
26070,note_off,0,0,0,,4,,,76,127
26071,note_on,1,0,0,,10,,,81,127
26071,note_on,0,0,0,,6,,,78,127
26185,note_off,114,0,0,,6,,,78,127
26185,note_off,0,0,0,,10,,,81,127
26186,note_on,1,0,0,,7,,,79,127
26186,note_on,0,0,0,,4,,,76,127
26300,note_off,114,0,0,,4,,,76,127
26300,note_off,0,0,0,,7,,,79,127
26301,note_on,1,0,0,,7,,,79,127
26301,note_on,0,0,0,,12,,,83,127
26415,note_off,114,0,0,,12,,,83,127
26415,note_off,0,0,0,,7,,,79,127
26416,note_on,1,0,0,,7,,,79,127
26416,note_on,0,0,0,,4,,,76,127
26530,note_off,114,0,0,,4,,,76,127
26530,note_off,0,0,0,,7,,,79,127
26530,note_off,0,0,0,,10,,,33,127
26531,note_on,1,0,0,,10,,,33,127
26531,note_on,0,0,0,,2,,,74,127
26531,note_on,0,0,0,,6,,,78,127
26645,note_off,114,0,0,,6,,,78,127
26645,note_off,0,0,0,,2,,,74,127
26646,note_on,1,0,0,,1,,,73,127
26646,note_on,0,0,0,,4,,,76,127
26760,note_off,114,0,0,,4,,,76,127
26760,note_off,0,0,0,,1,,,73,127
26760,note_off,0,0,0,,10,,,33,127
26761,note_on,1,0,0,,2,,,38,127
26761,note_on,0,0,0,,2,,,74,127
26761,note_on,0,0,0,,6,,,78,127
26875,note_off,114,0,0,,6,,,78,127
26875,note_off,0,0,0,,2,,,74,127
26876,note_on,1,0,0,,7,,,79,127
26876,note_on,0,0,0,,4,,,76,127
26990,note_off,114,0,0,,4,,,76,127
26990,note_off,0,0,0,,7,,,79,127
26990,note_off,0,0,0,,2,,,38,127
26991,note_on,1,0,0,,7,,,43,127
26991,note_on,0,0,0,,10,,,81,127
26991,note_on,0,0,0,,6,,,78,127
27105,note_off,114,0,0,,6,,,78,127
27105,note_off,0,0,0,,10,,,81,127
27106,note_on,1,0,0,,7,,,79,127
27106,note_on,0,0,0,,4,,,76,127
27220,note_off,114,0,0,,4,,,76,127
27220,note_off,0,0,0,,7,,,79,127
27220,note_off,0,0,0,,7,,,43,127
27221,note_on,1,0,0,,10,,,45,127
27221,note_on,0,0,0,,2,,,74,127
27221,note_on,0,0,0,,6,,,78,127
27450,note_off,229,0,0,,6,,,78,127
27450,note_off,0,0,0,,2,,,74,127
27451,note_on,1,0,0,,10,,,33,127
27451,note_on,0,0,0,,2,,,74,127
27451,note_on,0,0,0,,6,,,78,127
27507,note_off,56,0,0,,6,,,78,127
27507,note_off,0,0,0,,2,,,74,127
27508,note_on,1,0,0,,1,,,73,127
27508,note_on,0,0,0,,4,,,76,127
27564,note_off,56,0,0,,4,,,76,127
27564,note_off,0,0,0,,1,,,73,127
27565,note_on,1,0,0,,6,,,78,127
27565,note_on,0,0,0,,2,,,74,127
27621,note_off,56,0,0,,2,,,74,127
27621,note_off,0,0,0,,6,,,78,127
27622,note_on,1,0,0,,1,,,73,127
27622,note_on,0,0,0,,4,,,76,127
27678,note_off,56,0,0,,4,,,76,127
27678,note_off,0,0,0,,1,,,73,127
27678,note_off,0,0,0,,10,,,33,127
27678,note_off,0,0,0,,10,,,45,127
27679,note_on,1,0,0,,2,,,38,127
27679,note_on,0,0,0,,2,,,74,127
27908,note_off,229,0,0,,2,,,74,127
27909,note_on,1,0,0,,4,,,76,127
27909,note_on,0,0,0,,1,,,73,127
28023,note_off,114,0,0,,1,,,73,127
28023,note_off,0,0,0,,4,,,76,127
28024,note_off,1,0,0,,2,,,38,127
28024,note_on,0,0,0,,12,,,71,127
28024,note_on,0,0,0,,2,,,74,127
28138,note_off,114,0,0,,2,,,74,127
28138,note_off,0,0,0,,12,,,71,127
28139,note_on,1,0,0,,4,,,76,127
28139,note_on,0,0,0,,1,,,73,127
28253,note_off,114,0,0,,1,,,73,127
28253,note_off,0,0,0,,4,,,76,127
28254,note_on,1,0,0,,12,,,71,127
28254,note_on,0,0,0,,2,,,74,127
28368,note_off,114,0,0,,2,,,74,127
28368,note_off,0,0,0,,12,,,71,127
28369,note_on,1,0,0,,1,,,73,127
28369,note_on,0,0,0,,4,,,76,127
28483,note_off,114,0,0,,4,,,76,127
28483,note_off,0,0,0,,1,,,73,127
28484,note_on,1,0,0,,2,,,74,127
28484,note_on,0,0,0,,6,,,78,127
28598,note_off,114,0,0,,6,,,78,127
28598,note_off,0,0,0,,2,,,74,127
28599,note_on,1,0,0,,4,,,76,127
28599,note_on,0,0,0,,1,,,73,127
28713,note_off,114,0,0,,1,,,73,127
28713,note_off,0,0,0,,4,,,76,127
28714,note_on,1,0,0,,2,,,74,127
28714,note_on,0,0,0,,12,,,71,127
28828,note_off,114,0,0,,12,,,71,127
28828,note_off,0,0,0,,2,,,74,127
28829,note_on,1,0,0,,4,,,64,127
28829,note_on,0,0,0,,1,,,73,127
28829,note_on,0,0,0,,4,,,76,127
28943,note_off,114,0,0,,4,,,76,127
28943,note_off,0,0,0,,1,,,73,127
28944,note_on,1,0,0,,2,,,74,127
28944,note_on,0,0,0,,6,,,78,127
29058,note_off,114,0,0,,6,,,78,127
29058,note_off,0,0,0,,2,,,74,127
29058,note_off,0,0,0,,4,,,64,127
29059,note_on,1,0,0,,1,,,61,127
29059,note_on,0,0,0,,4,,,76,127
29059,note_on,0,0,0,,1,,,73,127
29173,note_off,114,0,0,,1,,,73,127
29173,note_off,0,0,0,,4,,,76,127
29174,note_on,1,0,0,,12,,,71,127
29174,note_on,0,0,0,,2,,,74,127
29288,note_off,114,0,0,,2,,,74,127
29288,note_off,0,0,0,,12,,,71,127
29288,note_off,0,0,0,,1,,,61,127
29289,note_on,1,0,0,,10,,,57,127
29289,note_on,0,0,0,,1,,,73,127
29289,note_on,0,0,0,,4,,,76,127
29403,note_off,114,0,0,,4,,,76,127
29403,note_off,0,0,0,,1,,,73,127
29404,note_on,1,0,0,,6,,,78,127
29404,note_on,0,0,0,,2,,,74,127
29518,note_off,114,0,0,,2,,,74,127
29518,note_off,0,0,0,,6,,,78,127
29518,note_off,0,0,0,,10,,,57,127
29519,note_on,1,0,0,,10,,,33,127
29519,note_on,0,0,0,,1,,,73,127
29519,note_on,0,0,0,,4,,,76,127
29748,note_off,229,0,0,,4,,,76,127
29748,note_off,0,0,0,,1,,,73,127
29749,note_on,1,0,0,,2,,,74,127
29749,note_on,0,0,0,,6,,,78,127
29863,note_off,114,0,0,,6,,,78,127
29863,note_off,0,0,0,,2,,,74,127
29864,note_on,1,0,0,,4,,,76,127
29864,note_on,0,0,0,,1,,,73,127
29978,note_off,114,0,0,,1,,,73,127
29978,note_off,0,0,0,,4,,,76,127
29979,note_on,1,0,0,,6,,,78,127
29979,note_on,0,0,0,,2,,,74,127
30093,note_off,114,0,0,,2,,,74,127
30093,note_off,0,0,0,,6,,,78,127
30094,note_on,1,0,0,,4,,,76,127
30094,note_on,0,0,0,,1,,,73,127
30208,note_off,114,0,0,,1,,,73,127
30208,note_off,0,0,0,,4,,,76,127
30209,note_on,1,0,0,,6,,,78,127
30209,note_on,0,0,0,,2,,,74,127
30323,note_off,114,0,0,,2,,,74,127
30323,note_off,0,0,0,,6,,,78,127
30324,note_on,1,0,0,,4,,,76,127
30324,note_on,0,0,0,,7,,,79,127
30438,note_off,114,0,0,,7,,,79,127
30438,note_off,0,0,0,,4,,,76,127
30438,note_off,0,0,0,,10,,,33,127
30439,note_on,1,0,0,,6,,,78,127
30439,note_on,0,0,0,,2,,,74,127
30553,note_off,114,0,0,,2,,,74,127
30553,note_off,0,0,0,,6,,,78,127
30554,note_on,1,0,0,,4,,,76,127
30554,note_on,0,0,0,,1,,,73,127
30668,note_off,114,0,0,,1,,,73,127
30668,note_off,0,0,0,,4,,,76,127
30669,note_on,1,0,0,,6,,,66,127
30669,note_on,0,0,0,,2,,,74,127
30669,note_on,0,0,0,,6,,,78,127
30783,note_off,114,0,0,,6,,,78,127
30783,note_off,0,0,0,,2,,,74,127
30784,note_on,1,0,0,,4,,,76,127
30784,note_on,0,0,0,,7,,,79,127
30898,note_off,114,0,0,,7,,,79,127
30898,note_off,0,0,0,,4,,,76,127
30898,note_off,0,0,0,,6,,,66,127
30899,note_on,1,0,0,,2,,,62,127
30899,note_on,0,0,0,,2,,,74,127
30899,note_on,0,0,0,,6,,,78,127
31013,note_off,114,0,0,,6,,,78,127
31013,note_off,0,0,0,,2,,,74,127
31014,note_on,1,0,0,,4,,,76,127
31014,note_on,0,0,0,,1,,,73,127
31128,note_off,114,0,0,,1,,,73,127
31128,note_off,0,0,0,,4,,,76,127
31128,note_off,0,0,0,,2,,,62,127
31129,note_on,1,0,0,,10,,,57,127
31129,note_on,0,0,0,,6,,,78,127
31129,note_on,0,0,0,,2,,,74,127
31243,note_off,114,0,0,,2,,,74,127
31243,note_off,0,0,0,,6,,,78,127
31244,note_on,1,0,0,,4,,,76,127
31244,note_on,0,0,0,,7,,,79,127
31358,note_off,114,0,0,,7,,,79,127
31358,note_off,0,0,0,,4,,,76,127
31358,note_off,0,0,0,,10,,,57,127
31359,note_on,1,0,0,,10,,,33,127
31359,note_on,0,0,0,,2,,,74,127
31359,note_on,0,0,0,,6,,,78,127
31588,note_off,229,0,0,,6,,,78,127
31588,note_off,0,0,0,,2,,,74,127
31589,note_on,1,0,0,,7,,,79,127
31589,note_on,0,0,0,,4,,,76,127
31703,note_off,114,0,0,,4,,,76,127
31703,note_off,0,0,0,,7,,,79,127
31704,note_on,1,0,0,,2,,,74,127
31704,note_on,0,0,0,,6,,,78,127
31818,note_off,114,0,0,,6,,,78,127
31818,note_off,0,0,0,,2,,,74,127
31819,note_on,1,0,0,,4,,,76,127
31819,note_on,0,0,0,,7,,,79,127
31933,note_off,114,0,0,,7,,,79,127
31933,note_off,0,0,0,,4,,,76,127
31934,note_on,1,0,0,,2,,,74,127
31934,note_on,0,0,0,,6,,,78,127
32048,note_off,114,0,0,,6,,,78,127
32048,note_off,0,0,0,,2,,,74,127
32049,note_on,1,0,0,,7,,,79,127
32049,note_on,0,0,0,,4,,,76,127
32163,note_off,114,0,0,,4,,,76,127
32163,note_off,0,0,0,,7,,,79,127
32164,note_on,1,0,0,,10,,,81,127
32164,note_on,0,0,0,,6,,,78,127
32278,note_off,114,0,0,,6,,,78,127
32278,note_off,0,0,0,,10,,,81,127
32278,note_off,0,0,0,,10,,,33,127
32279,note_on,1,0,0,,4,,,76,127
32279,note_on,0,0,0,,7,,,79,127
32393,note_off,114,0,0,,7,,,79,127
32393,note_off,0,0,0,,4,,,76,127
32394,note_on,1,0,0,,2,,,74,127
32394,note_on,0,0,0,,6,,,78,127
32508,note_off,114,0,0,,6,,,78,127
32508,note_off,0,0,0,,2,,,74,127
32509,note_on,1,0,0,,7,,,67,127
32509,note_on,0,0,0,,7,,,79,127
32509,note_on,0,0,0,,4,,,76,127
32623,note_off,114,0,0,,4,,,76,127
32623,note_off,0,0,0,,7,,,79,127
32624,note_on,1,0,0,,10,,,81,127
32624,note_on,0,0,0,,6,,,78,127
32738,note_off,114,0,0,,6,,,78,127
32738,note_off,0,0,0,,10,,,81,127
32738,note_off,0,0,0,,7,,,67,127
32739,note_on,1,0,0,,4,,,64,127
32739,note_on,0,0,0,,7,,,79,127
32739,note_on,0,0,0,,4,,,76,127
32853,note_off,114,0,0,,4,,,76,127
32853,note_off,0,0,0,,7,,,79,127
32854,note_on,1,0,0,,2,,,74,127
32854,note_on,0,0,0,,6,,,78,127
32968,note_off,114,0,0,,6,,,78,127
32968,note_off,0,0,0,,2,,,74,127
32968,note_off,0,0,0,,4,,,64,127
32969,note_on,1,0,0,,10,,,57,127
32969,note_on,0,0,0,,4,,,76,127
32969,note_on,0,0,0,,7,,,79,127
33083,note_off,114,0,0,,7,,,79,127
33083,note_off,0,0,0,,4,,,76,127
33084,note_on,1,0,0,,10,,,81,127
33084,note_on,0,0,0,,6,,,78,127
33198,note_off,114,0,0,,6,,,78,127
33198,note_off,0,0,0,,10,,,81,127
33198,note_off,0,0,0,,10,,,57,127
33199,note_on,1,0,0,,10,,,33,127
33199,note_on,0,0,0,,6,,,78,127
33199,note_on,0,0,0,,2,,,74,127
33313,note_off,114,0,0,,2,,,74,127
33313,note_off,0,0,0,,6,,,78,127
33314,note_on,1,0,0,,7,,,79,127
33314,note_on,0,0,0,,4,,,76,127
33428,note_off,114,0,0,,4,,,76,127
33428,note_off,0,0,0,,7,,,79,127
33429,note_on,1,0,0,,6,,,78,127
33429,note_on,0,0,0,,10,,,81,127
33543,note_off,114,0,0,,10,,,81,127
33543,note_off,0,0,0,,6,,,78,127
33544,note_on,1,0,0,,4,,,76,127
33544,note_on,0,0,0,,7,,,79,127
33658,note_off,114,0,0,,7,,,79,127
33658,note_off,0,0,0,,4,,,76,127
33659,note_on,1,0,0,,12,,,83,127
33659,note_on,0,0,0,,7,,,79,127
33773,note_off,114,0,0,,7,,,79,127
33773,note_off,0,0,0,,12,,,83,127
33774,note_on,1,0,0,,4,,,76,127
33774,note_on,0,0,0,,7,,,79,127
33888,note_off,114,0,0,,7,,,79,127
33888,note_off,0,0,0,,4,,,76,127
33888,note_off,0,0,0,,10,,,33,127
33889,note_on,1,0,0,,10,,,33,127
33889,note_on,0,0,0,,2,,,74,127
33889,note_on,0,0,0,,6,,,78,127
34003,note_off,114,0,0,,6,,,78,127
34003,note_off,0,0,0,,2,,,74,127
34004,note_on,1,0,0,,4,,,76,127
34004,note_on,0,0,0,,1,,,73,127
34118,note_off,114,0,0,,1,,,73,127
34118,note_off,0,0,0,,4,,,76,127
34118,note_off,0,0,0,,10,,,33,127
34119,note_on,1,0,0,,2,,,38,127
34119,note_on,0,0,0,,2,,,74,127
34119,note_on,0,0,0,,6,,,78,127
34233,note_off,114,0,0,,6,,,78,127
34233,note_off,0,0,0,,2,,,74,127
34234,note_on,1,0,0,,7,,,79,127
34234,note_on,0,0,0,,4,,,76,127
34348,note_off,114,0,0,,4,,,76,127
34348,note_off,0,0,0,,7,,,79,127
34348,note_off,0,0,0,,2,,,38,127
34349,note_on,1,0,0,,7,,,43,127
34349,note_on,0,0,0,,10,,,81,127
34349,note_on,0,0,0,,6,,,78,127
34463,note_off,114,0,0,,6,,,78,127
34463,note_off,0,0,0,,10,,,81,127
34464,note_on,1,0,0,,7,,,79,127
34464,note_on,0,0,0,,4,,,76,127
34578,note_off,114,0,0,,4,,,76,127
34578,note_off,0,0,0,,7,,,79,127
34578,note_off,0,0,0,,7,,,43,127
34579,note_on,1,0,0,,10,,,45,127
34579,note_on,0,0,0,,6,,,78,127
34579,note_on,0,0,0,,2,,,74,127
34808,note_off,229,0,0,,2,,,74,127
34808,note_off,0,0,0,,6,,,78,127
34809,note_on,1,0,0,,10,,,33,127
34809,note_on,0,0,0,,2,,,74,127
34809,note_on,0,0,0,,6,,,78,127
34865,note_off,56,0,0,,6,,,78,127
34865,note_off,0,0,0,,2,,,74,127
34866,note_on,1,0,0,,1,,,73,127
34866,note_on,0,0,0,,4,,,76,127
34922,note_off,56,0,0,,4,,,76,127
34922,note_off,0,0,0,,1,,,73,127
34923,note_on,1,0,0,,6,,,78,127
34923,note_on,0,0,0,,2,,,74,127
34979,note_off,56,0,0,,2,,,74,127
34979,note_off,0,0,0,,6,,,78,127
34980,note_on,1,0,0,,4,,,76,127
34980,note_on,0,0,0,,1,,,73,127
35036,note_off,56,0,0,,1,,,73,127
35036,note_off,0,0,0,,4,,,76,127
35036,note_off,0,0,0,,10,,,33,127
35036,note_off,0,0,0,,10,,,45,127
35037,note_on,1,0,0,,2,,,38,127
35037,note_on,0,0,0,,2,,,74,127
35266,note_off,229,0,0,,2,,,74,127
35267,note_on,1,0,0,,2,,,86,127
35267,note_on,0,0,0,,6,,,78,127
35381,note_off,114,0,0,,6,,,78,127
35381,note_off,0,0,0,,2,,,86,127
35382,note_on,1,0,0,,2,,,86,127
35382,note_on,0,0,0,,6,,,78,127
35496,note_off,114,0,0,,6,,,78,127
35496,note_off,0,0,0,,2,,,86,127
35496,note_off,0,0,0,,2,,,38,127
35497,note_on,1,0,0,,10,,,45,127
35497,note_on,0,0,0,,10,,,33,127
35497,note_on,0,0,0,,1,,,85,127
35497,note_on,0,0,0,,4,,,76,127
35726,note_off,229,0,0,,4,,,76,127
35726,note_off,0,0,0,,1,,,85,127
35727,note_on,1,0,0,,7,,,79,127
35727,note_on,0,0,0,,1,,,73,127
35841,note_off,114,0,0,,1,,,73,127
35841,note_off,0,0,0,,7,,,79,127
35842,note_on,1,0,0,,1,,,73,127
35842,note_on,0,0,0,,7,,,79,127
35956,note_off,114,0,0,,7,,,79,127
35956,note_off,0,0,0,,1,,,73,127
35956,note_off,0,0,0,,10,,,33,127
35956,note_off,0,0,0,,10,,,45,127
35957,note_on,1,0,0,,2,,,38,127
35957,note_on,0,0,0,,6,,,78,127
35957,note_on,0,0,0,,2,,,74,127
36186,note_off,229,0,0,,2,,,74,127
36186,note_off,0,0,0,,6,,,78,127
36187,note_on,1,0,0,,2,,,74,127
36187,note_on,0,0,0,,6,,,66,127
36301,note_off,114,0,0,,6,,,66,127
36301,note_off,0,0,0,,2,,,74,127
36302,note_on,1,0,0,,2,,,74,127
36302,note_on,0,0,0,,6,,,66,127
36416,note_off,114,0,0,,6,,,66,127
36416,note_off,0,0,0,,2,,,74,127
36416,note_off,0,0,0,,2,,,38,127
36417,note_on,1,0,0,,10,,,45,127
36417,note_on,0,0,0,,10,,,33,127
36417,note_on,0,0,0,,1,,,73,127
36417,note_on,0,0,0,,4,,,64,127
36646,note_off,229,0,0,,4,,,64,127
36646,note_off,0,0,0,,1,,,73,127
36647,note_on,1,0,0,,1,,,61,127
36647,note_on,0,0,0,,7,,,67,127
36761,note_off,114,0,0,,7,,,67,127
36761,note_off,0,0,0,,1,,,61,127
36762,note_on,1,0,0,,7,,,67,127
36762,note_on,0,0,0,,1,,,61,127
36876,note_off,114,0,0,,1,,,61,127
36876,note_off,0,0,0,,7,,,67,127
36876,note_off,0,0,0,,10,,,33,127
36876,note_off,0,0,0,,10,,,45,127
36877,note_on,1,0,0,,2,,,38,127
36877,note_on,0,0,0,,6,,,66,127
36877,note_on,0,0,0,,2,,,62,127
37106,note_off,229,0,0,,2,,,62,127
37106,note_off,0,0,0,,6,,,66,127
37107,note_on,1,0,0,,2,,,62,127
37107,note_on,0,0,0,,6,,,54,127
37221,note_off,114,0,0,,6,,,54,127
37221,note_off,0,0,0,,2,,,62,127
37222,note_on,1,0,0,,2,,,62,127
37222,note_on,0,0,0,,6,,,54,127
37336,note_off,114,0,0,,6,,,54,127
37336,note_off,0,0,0,,2,,,62,127
37336,note_off,0,0,0,,2,,,38,127
37337,note_on,1,0,0,,10,,,45,127
37337,note_on,0,0,0,,10,,,33,127
37337,note_on,0,0,0,,4,,,52,127
37337,note_on,0,0,0,,1,,,61,127
37566,note_off,229,0,0,,1,,,61,127
37566,note_off,0,0,0,,4,,,52,127
37567,note_on,1,0,0,,1,,,61,127
37567,note_on,0,0,0,,7,,,67,127
37681,note_off,114,0,0,,7,,,67,127
37681,note_off,0,0,0,,1,,,61,127
37682,note_on,1,0,0,,7,,,67,127
37682,note_on,0,0,0,,1,,,61,127
37796,note_off,114,0,0,,1,,,61,127
37796,note_off,0,0,0,,7,,,67,127
37796,note_off,0,0,0,,10,,,33,127
37796,note_off,0,0,0,,10,,,45,127
37797,note_on,1,0,0,,2,,,38,127
37797,note_on,0,0,0,,6,,,66,127
37797,note_on,0,0,0,,2,,,62,127
37911,note_off,114,0,0,,2,,,62,127
37911,note_off,0,0,0,,6,,,66,127
37912,note_on,1,0,0,,2,,,62,127
38026,note_off,114,0,0,,2,,,62,127
38026,note_off,0,0,0,,2,,,38,127
38027,note_on,1,0,0,,7,,,43,127
38027,note_on,0,0,0,,2,,,74,127
38141,note_off,114,0,0,,2,,,74,127
38142,note_on,1,0,0,,2,,,62,127
38256,note_off,114,0,0,,2,,,62,127
38256,note_off,0,0,0,,7,,,43,127
38257,note_on,1,0,0,,10,,,45,127
38257,note_on,0,0,0,,6,,,66,127
38257,note_on,0,0,0,,2,,,62,127
38486,note_off,229,0,0,,2,,,62,127
38486,note_off,0,0,0,,6,,,66,127
38487,note_on,1,0,0,,10,,,33,127
38487,note_on,0,0,0,,2,,,62,127
38487,note_on,0,0,0,,6,,,66,127
38543,note_off,56,0,0,,6,,,66,127
38543,note_off,0,0,0,,2,,,62,127
38544,note_on,1,0,0,,4,,,64,127
38544,note_on,0,0,0,,1,,,61,127
38600,note_off,56,0,0,,1,,,61,127
38600,note_off,0,0,0,,4,,,64,127
38601,note_on,1,0,0,,2,,,62,127
38601,note_on,0,0,0,,6,,,66,127
38657,note_off,56,0,0,,6,,,66,127
38657,note_off,0,0,0,,2,,,62,127
38658,note_on,1,0,0,,4,,,64,127
38658,note_on,0,0,0,,1,,,61,127
38714,note_off,56,0,0,,1,,,61,127
38714,note_off,0,0,0,,4,,,64,127
38714,note_off,0,0,0,,10,,,33,127
38714,note_off,0,0,0,,10,,,45,127
38715,note_on,1,0,0,,2,,,38,127
38715,note_on,0,0,0,,2,,,62,127
38944,note_off,229,0,0,,2,,,62,127
38945,note_on,1,0,0,,6,,,78,127
38945,note_on,0,0,0,,2,,,86,127
39059,note_off,114,0,0,,2,,,86,127
39059,note_off,0,0,0,,6,,,78,127
39060,note_on,1,0,0,,2,,,86,127
39060,note_on,0,0,0,,6,,,78,127
39174,note_off,114,0,0,,6,,,78,127
39174,note_off,0,0,0,,2,,,86,127
39174,note_off,0,0,0,,2,,,38,127
39175,note_on,1,0,0,,10,,,45,127
39175,note_on,0,0,0,,10,,,33,127
39175,note_on,0,0,0,,1,,,85,127
39175,note_on,0,0,0,,4,,,76,127
39404,note_off,229,0,0,,4,,,76,127
39404,note_off,0,0,0,,1,,,85,127
39405,note_on,1,0,0,,1,,,73,127
39405,note_on,0,0,0,,7,,,79,127
39519,note_off,114,0,0,,7,,,79,127
39519,note_off,0,0,0,,1,,,73,127
39520,note_on,1,0,0,,1,,,73,127
39520,note_on,0,0,0,,7,,,79,127
39634,note_off,114,0,0,,7,,,79,127
39634,note_off,0,0,0,,1,,,73,127
39634,note_off,0,0,0,,10,,,33,127
39634,note_off,0,0,0,,10,,,45,127
39635,note_on,1,0,0,,2,,,38,127
39635,note_on,0,0,0,,6,,,78,127
39635,note_on,0,0,0,,2,,,74,127
39864,note_off,229,0,0,,2,,,74,127
39864,note_off,0,0,0,,6,,,78,127
39865,note_on,1,0,0,,2,,,74,127
39865,note_on,0,0,0,,6,,,66,127
39979,note_off,114,0,0,,6,,,66,127
39979,note_off,0,0,0,,2,,,74,127
39980,note_on,1,0,0,,6,,,66,127
39980,note_on,0,0,0,,2,,,74,127
40094,note_off,114,0,0,,2,,,74,127
40094,note_off,0,0,0,,6,,,66,127
40094,note_off,0,0,0,,2,,,38,127
40095,note_on,1,0,0,,10,,,45,127
40095,note_on,0,0,0,,10,,,33,127
40095,note_on,0,0,0,,1,,,73,127
40095,note_on,0,0,0,,4,,,64,127
40324,note_off,229,0,0,,4,,,64,127
40324,note_off,0,0,0,,1,,,73,127
40325,note_on,1,0,0,,7,,,67,127
40325,note_on,0,0,0,,1,,,61,127
40439,note_off,114,0,0,,1,,,61,127
40439,note_off,0,0,0,,7,,,67,127
40440,note_on,1,0,0,,7,,,67,127
40440,note_on,0,0,0,,1,,,61,127
40554,note_off,114,0,0,,1,,,61,127
40554,note_off,0,0,0,,7,,,67,127
40554,note_off,0,0,0,,10,,,33,127
40554,note_off,0,0,0,,10,,,45,127
40555,note_on,1,0,0,,2,,,38,127
40555,note_on,0,0,0,,2,,,62,127
40555,note_on,0,0,0,,6,,,66,127
40784,note_off,229,0,0,,6,,,66,127
40784,note_off,0,0,0,,2,,,62,127
40785,note_on,1,0,0,,2,,,62,127
40785,note_on,0,0,0,,6,,,54,127
40899,note_off,114,0,0,,6,,,54,127
40899,note_off,0,0,0,,2,,,62,127
40900,note_on,1,0,0,,2,,,62,127
40900,note_on,0,0,0,,6,,,54,127
41014,note_off,114,0,0,,6,,,54,127
41014,note_off,0,0,0,,2,,,62,127
41014,note_off,0,0,0,,2,,,38,127
41015,note_on,1,0,0,,10,,,45,127
41015,note_on,0,0,0,,10,,,33,127
41015,note_on,0,0,0,,1,,,61,127
41015,note_on,0,0,0,,4,,,52,127
41244,note_off,229,0,0,,4,,,52,127
41244,note_off,0,0,0,,1,,,61,127
41245,note_on,1,0,0,,1,,,61,127
41245,note_on,0,0,0,,7,,,67,127
41359,note_off,114,0,0,,7,,,67,127
41359,note_off,0,0,0,,1,,,61,127
41360,note_on,1,0,0,,1,,,61,127
41360,note_on,0,0,0,,7,,,67,127
41474,note_off,114,0,0,,7,,,67,127
41474,note_off,0,0,0,,1,,,61,127
41474,note_off,0,0,0,,10,,,33,127
41474,note_off,0,0,0,,10,,,45,127
41475,note_on,1,0,0,,2,,,38,127
41475,note_on,0,0,0,,6,,,66,127
41475,note_on,0,0,0,,2,,,62,127
41589,note_off,114,0,0,,2,,,62,127
41589,note_off,0,0,0,,6,,,66,127
41590,note_on,1,0,0,,2,,,62,127
41704,note_off,114,0,0,,2,,,62,127
41704,note_off,0,0,0,,2,,,38,127
41705,note_on,1,0,0,,7,,,43,127
41705,note_on,0,0,0,,2,,,74,127
41819,note_off,114,0,0,,2,,,74,127
41820,note_on,1,0,0,,2,,,62,127
41934,note_off,114,0,0,,2,,,62,127
41934,note_off,0,0,0,,7,,,43,127
41935,note_on,1,0,0,,10,,,45,127
41935,note_on,0,0,0,,2,,,62,127
41935,note_on,0,0,0,,6,,,66,127
42164,note_off,229,0,0,,6,,,66,127
42164,note_off,0,0,0,,2,,,62,127
42165,note_on,1,0,0,,10,,,33,127
42165,note_on,0,0,0,,2,,,62,127
42165,note_on,0,0,0,,6,,,66,127
42221,note_off,56,0,0,,6,,,66,127
42221,note_off,0,0,0,,2,,,62,127
42222,note_on,1,0,0,,1,,,61,127
42222,note_on,0,0,0,,4,,,64,127
42278,note_off,56,0,0,,4,,,64,127
42278,note_off,0,0,0,,1,,,61,127
42279,note_on,1,0,0,,6,,,66,127
42279,note_on,0,0,0,,2,,,62,127
42335,note_off,56,0,0,,2,,,62,127
42335,note_off,0,0,0,,6,,,66,127
42336,note_on,1,0,0,,4,,,64,127
42336,note_on,0,0,0,,1,,,61,127
42392,note_off,56,0,0,,1,,,61,127
42392,note_off,0,0,0,,4,,,64,127
42392,note_off,0,0,0,,10,,,33,127
42392,note_off,0,0,0,,10,,,45,127
42393,note_on,1,0,0,,2,,,38,127
42393,note_on,0,0,0,,2,,,62,127
43083,note_off,690,0,0,,2,,,62,127
43313,note_off,230,0,0,,2,,,38,127
43314,note_on,1,0,0,,2,,,50,127
43544,note_on,230,0,0,,2,,,62,127
43544,note_on,0,0,0,,2,,,74,127
43544,note_on,0,0,0,,6,,,66,127
43658,note_off,114,0,0,,6,,,66,127
43658,note_off,0,0,0,,2,,,74,127
43659,note_on,1,0,0,,2,,,74,127
43659,note_on,0,0,0,,6,,,66,127
43773,note_off,114,0,0,,6,,,66,127
43773,note_off,0,0,0,,2,,,74,127
43774,note_on,1,0,0,,7,,,67,127
43774,note_on,0,0,0,,4,,,76,127
44003,note_off,229,0,0,,4,,,76,127
44003,note_off,0,0,0,,7,,,67,127
44003,note_off,0,0,0,,2,,,62,127
44004,note_on,1,0,0,,0,,,60,127
44004,note_on,0,0,0,,7,,,67,127
44004,note_on,0,0,0,,4,,,76,127
44118,note_off,114,0,0,,4,,,76,127
44118,note_off,0,0,0,,7,,,67,127
44119,note_on,1,0,0,,7,,,67,127
44119,note_on,0,0,0,,4,,,76,127
44233,note_off,114,0,0,,4,,,76,127
44233,note_off,0,0,0,,7,,,67,127
44233,note_off,0,0,0,,0,,,60,127
44233,note_off,0,0,0,,2,,,50,127
44234,note_on,1,0,0,,2,,,50,127
44234,note_on,0,0,0,,6,,,78,127
44349,note_on,115,0,0,,10,,,69,127
44463,note_off,114,0,0,,10,,,69,127
44464,note_on,1,0,0,,12,,,59,127
44464,note_on,0,0,0,,12,,,71,127
44578,note_off,114,0,0,,6,,,78,127
44579,note_on,1,0,0,,7,,,79,127
44693,note_off,114,0,0,,7,,,79,127
44693,note_off,0,0,0,,12,,,59,127
44694,note_on,1,0,0,,10,,,57,127
44694,note_on,0,0,0,,10,,,81,127
44808,note_off,114,0,0,,12,,,71,127
44809,note_on,1,0,0,,0,,,72,127
44923,note_off,114,0,0,,0,,,72,127
44923,note_off,0,0,0,,10,,,57,127
44924,note_on,1,0,0,,7,,,55,127
44924,note_on,0,0,0,,2,,,74,127
45038,note_off,114,0,0,,10,,,81,127
45039,note_on,1,0,0,,12,,,83,127
45153,note_off,114,0,0,,12,,,83,127
45153,note_off,0,0,0,,2,,,74,127
45153,note_off,0,0,0,,7,,,55,127
45153,note_off,0,0,0,,2,,,50,127
45154,note_on,1,0,0,,2,,,50,127
45154,note_on,0,0,0,,2,,,74,127
45154,note_on,0,0,0,,10,,,81,127
45384,note_on,230,0,0,,2,,,62,127
45498,note_off,114,0,0,,2,,,62,127
45499,note_on,1,0,0,,2,,,62,127
45613,note_off,114,0,0,,2,,,62,127
45613,note_off,0,0,0,,2,,,50,127
45614,note_on,1,0,0,,2,,,62,127
45614,note_on,0,0,0,,4,,,52,127
45843,note_off,229,0,0,,2,,,62,127
45843,note_off,0,0,0,,10,,,81,127
45843,note_off,0,0,0,,2,,,74,127
45844,note_on,1,0,0,,0,,,60,127
45958,note_off,114,0,0,,0,,,60,127
45959,note_on,1,0,0,,0,,,60,127
46073,note_off,114,0,0,,0,,,60,127
46073,note_off,0,0,0,,4,,,52,127
46074,note_on,1,0,0,,0,,,60,127
46074,note_on,0,0,0,,6,,,54,127
46303,note_off,229,0,0,,6,,,54,127
46303,note_off,0,0,0,,0,,,60,127
46304,note_on,1,0,0,,12,,,59,127
46304,note_on,0,0,0,,7,,,55,127
46418,note_off,114,0,0,,12,,,59,127
46419,note_on,1,0,0,,12,,,59,127
46533,note_off,114,0,0,,12,,,59,127
46533,note_off,0,0,0,,7,,,55,127
46534,note_on,1,0,0,,12,,,59,127
46534,note_on,0,0,0,,1,,,49,127
46763,note_off,229,0,0,,12,,,59,127
46764,note_on,1,0,0,,10,,,57,127
46878,note_off,114,0,0,,10,,,57,127
46879,note_on,1,0,0,,7,,,55,127
46993,note_off,114,0,0,,7,,,55,127
46993,note_off,0,0,0,,1,,,49,127
46994,note_on,1,0,0,,2,,,50,127
46994,note_on,0,0,0,,10,,,57,127
47223,note_off,229,0,0,,10,,,57,127
47224,note_on,1,0,0,,2,,,62,127
47224,note_on,0,0,0,,2,,,74,127
47224,note_on,0,0,0,,6,,,66,127
47338,note_off,114,0,0,,6,,,66,127
47338,note_off,0,0,0,,2,,,74,127
47339,note_on,1,0,0,,2,,,74,127
47339,note_on,0,0,0,,6,,,66,127
47453,note_off,114,0,0,,6,,,66,127
47453,note_off,0,0,0,,2,,,74,127
47454,note_on,1,0,0,,4,,,76,127
47454,note_on,0,0,0,,7,,,67,127
47683,note_off,229,0,0,,7,,,67,127
47683,note_off,0,0,0,,4,,,76,127
47683,note_off,0,0,0,,2,,,62,127
47684,note_on,1,0,0,,0,,,60,127
47684,note_on,0,0,0,,4,,,76,127
47684,note_on,0,0,0,,7,,,67,127
47798,note_off,114,0,0,,7,,,67,127
47798,note_off,0,0,0,,4,,,76,127
47799,note_on,1,0,0,,7,,,67,127
47799,note_on,0,0,0,,4,,,76,127
47913,note_off,114,0,0,,4,,,76,127
47913,note_off,0,0,0,,7,,,67,127
47913,note_off,0,0,0,,0,,,60,127
47913,note_off,0,0,0,,2,,,50,127
47914,note_on,1,0,0,,2,,,50,127
47914,note_on,0,0,0,,6,,,78,127
48029,note_on,115,0,0,,10,,,69,127
48143,note_off,114,0,0,,10,,,69,127
48144,note_on,1,0,0,,12,,,59,127
48144,note_on,0,0,0,,12,,,71,127
48258,note_off,114,0,0,,6,,,78,127
48259,note_on,1,0,0,,7,,,79,127
48373,note_off,114,0,0,,7,,,79,127
48373,note_off,0,0,0,,12,,,71,127
48373,note_off,0,0,0,,12,,,59,127
48373,note_off,0,0,0,,2,,,50,127
48374,note_on,1,0,0,,10,,,57,127
48374,note_on,0,0,0,,12,,,83,127
48374,note_on,0,0,0,,0,,,72,127
48430,note_off,56,0,0,,12,,,83,127
48431,note_on,1,0,0,,10,,,81,127
48487,note_off,56,0,0,,10,,,81,127
48488,note_on,1,0,0,,12,,,83,127
48544,note_off,56,0,0,,12,,,83,127
48545,note_on,1,0,0,,10,,,81,127
48601,note_off,56,0,0,,10,,,81,127
48601,note_off,0,0,0,,10,,,57,127
48602,note_on,1,0,0,,3,,,51,127
48602,note_on,0,0,0,,12,,,83,127
48658,note_off,56,0,0,,12,,,83,127
48659,note_on,1,0,0,,10,,,81,127
48715,note_off,56,0,0,,10,,,81,127
48716,note_on,1,0,0,,8,,,80,127
48772,note_off,56,0,0,,8,,,80,127
48773,note_on,1,0,0,,10,,,81,127
48829,note_off,56,0,0,,10,,,81,127
48829,note_off,0,0,0,,3,,,51,127
48829,note_off,0,0,0,,0,,,72,127
48830,note_on,1,0,0,,4,,,52,127
48830,note_on,0,0,0,,8,,,80,127
48830,note_on,0,0,0,,12,,,71,127
49060,note_on,230,0,0,,4,,,64,127
49174,note_off,114,0,0,,4,,,64,127
49175,note_on,1,0,0,,4,,,64,127
49289,note_off,114,0,0,,4,,,64,127
49289,note_off,0,0,0,,4,,,52,127
49290,note_on,1,0,0,,4,,,64,127
49290,note_on,0,0,0,,6,,,54,127
49519,note_off,229,0,0,,4,,,64,127
49519,note_off,0,0,0,,12,,,71,127
49519,note_off,0,0,0,,8,,,80,127
49520,note_on,1,0,0,,2,,,62,127
49634,note_off,114,0,0,,2,,,62,127
49635,note_on,1,0,0,,2,,,62,127
49749,note_off,114,0,0,,2,,,62,127
49749,note_off,0,0,0,,6,,,54,127
49750,note_on,1,0,0,,2,,,62,127
49750,note_on,0,0,0,,8,,,56,127
49979,note_off,229,0,0,,8,,,56,127
49979,note_off,0,0,0,,2,,,62,127
49980,note_on,1,0,0,,10,,,57,127
49980,note_on,0,0,0,,0,,,60,127
50094,note_off,114,0,0,,0,,,60,127
50095,note_on,1,0,0,,0,,,60,127
50209,note_off,114,0,0,,0,,,60,127
50209,note_off,0,0,0,,10,,,57,127
50210,note_on,1,0,0,,3,,,51,127
50210,note_on,0,0,0,,0,,,60,127
50439,note_off,229,0,0,,0,,,60,127
50440,note_on,1,0,0,,12,,,59,127
50554,note_off,114,0,0,,12,,,59,127
50555,note_on,1,0,0,,10,,,57,127
50669,note_off,114,0,0,,10,,,57,127
50669,note_off,0,0,0,,3,,,51,127
50670,note_on,1,0,0,,12,,,59,127
50670,note_on,0,0,0,,4,,,52,127
50899,note_off,229,0,0,,12,,,59,127
50900,note_on,1,0,0,,4,,,64,127
50900,note_on,0,0,0,,4,,,76,127
50900,note_on,0,0,0,,8,,,68,127
51014,note_off,114,0,0,,8,,,68,127
51014,note_off,0,0,0,,4,,,76,127
51015,note_on,1,0,0,,4,,,76,127
51015,note_on,0,0,0,,8,,,68,127
51129,note_off,114,0,0,,8,,,68,127
51129,note_off,0,0,0,,4,,,76,127
51130,note_on,1,0,0,,10,,,69,127
51130,note_on,0,0,0,,5,,,77,127
51359,note_off,229,0,0,,5,,,77,127
51359,note_off,0,0,0,,10,,,69,127
51359,note_off,0,0,0,,4,,,64,127
51360,note_on,1,0,0,,2,,,62,127
51360,note_on,0,0,0,,10,,,69,127
51360,note_on,0,0,0,,5,,,77,127
51474,note_off,114,0,0,,5,,,77,127
51474,note_off,0,0,0,,10,,,69,127
51475,note_on,1,0,0,,10,,,69,127
51475,note_on,0,0,0,,5,,,77,127
51589,note_off,114,0,0,,5,,,77,127
51589,note_off,0,0,0,,10,,,69,127
51589,note_off,0,0,0,,2,,,62,127
51589,note_off,0,0,0,,4,,,52,127
51590,note_on,1,0,0,,4,,,52,127
51590,note_on,0,0,0,,8,,,80,127
51705,note_on,115,0,0,,12,,,71,127
51819,note_off,114,0,0,,12,,,71,127
51820,note_on,1,0,0,,0,,,60,127
51820,note_on,0,0,0,,0,,,72,127
51934,note_off,114,0,0,,8,,,80,127
51935,note_on,1,0,0,,10,,,81,127
52049,note_off,114,0,0,,10,,,81,127
52049,note_off,0,0,0,,0,,,72,127
52049,note_off,0,0,0,,0,,,60,127
52050,note_on,1,0,0,,12,,,59,127
52050,note_on,0,0,0,,2,,,74,127
52050,note_on,0,0,0,,12,,,83,127
52279,note_off,229,0,0,,12,,,83,127
52279,note_off,0,0,0,,12,,,59,127
52279,note_off,0,0,0,,4,,,52,127
52280,note_on,1,0,0,,4,,,52,127
52280,note_on,0,0,0,,0,,,84,127
52394,note_off,114,0,0,,0,,,84,127
52395,note_on,1,0,0,,2,,,86,127
52509,note_off,114,0,0,,2,,,86,127
52509,note_off,0,0,0,,4,,,52,127
52509,note_off,0,0,0,,2,,,74,127
52510,note_on,1,0,0,,10,,,69,127
52510,note_on,0,0,0,,10,,,57,127
52510,note_on,0,0,0,,0,,,84,127
52510,note_on,0,0,0,,2,,,86,127
52624,note_off,114,0,0,,2,,,86,127
52624,note_off,0,0,0,,0,,,84,127
52625,note_on,1,0,0,,12,,,83,127
52739,note_off,114,0,0,,12,,,83,127
52739,note_off,0,0,0,,10,,,57,127
52739,note_off,0,0,0,,10,,,69,127
52740,note_on,1,0,0,,10,,,69,127
52740,note_on,0,0,0,,10,,,57,127
52740,note_on,0,0,0,,12,,,83,127
52854,note_off,114,0,0,,12,,,83,127
52855,note_on,1,0,0,,10,,,81,127
52969,note_off,114,0,0,,10,,,81,127
52969,note_off,0,0,0,,10,,,57,127
52969,note_off,0,0,0,,10,,,69,127
52970,note_on,1,0,0,,10,,,69,127
52970,note_on,0,0,0,,10,,,57,127
52970,note_on,0,0,0,,10,,,81,127
53084,note_off,114,0,0,,10,,,81,127
53085,note_on,1,0,0,,7,,,79,127
53199,note_off,114,0,0,,7,,,79,127
53199,note_off,0,0,0,,10,,,57,127
53199,note_off,0,0,0,,10,,,69,127
53200,note_on,1,0,0,,10,,,69,127
53200,note_on,0,0,0,,10,,,57,127
53200,note_on,0,0,0,,6,,,78,127
53314,note_off,114,0,0,,6,,,78,127
53315,note_on,1,0,0,,4,,,76,127
53429,note_off,114,0,0,,4,,,76,127
53429,note_off,0,0,0,,10,,,57,127
53429,note_off,0,0,0,,10,,,69,127
53430,note_on,1,0,0,,12,,,59,127
53430,note_on,0,0,0,,10,,,69,127
53430,note_on,0,0,0,,3,,,75,127
53544,note_off,114,0,0,,3,,,75,127
53545,note_on,1,0,0,,0,,,84,127
53659,note_off,114,0,0,,0,,,84,127
53659,note_off,0,0,0,,10,,,69,127
53659,note_off,0,0,0,,12,,,59,127
53660,note_on,1,0,0,,12,,,59,127
53660,note_on,0,0,0,,10,,,69,127
53660,note_on,0,0,0,,0,,,84,127
53774,note_off,114,0,0,,0,,,84,127
53775,note_on,1,0,0,,12,,,83,127
53889,note_off,114,0,0,,12,,,83,127
53889,note_off,0,0,0,,10,,,69,127
53889,note_off,0,0,0,,12,,,59,127
53890,note_on,1,0,0,,7,,,67,127
53890,note_on,0,0,0,,12,,,59,127
53890,note_on,0,0,0,,12,,,83,127
54004,note_off,114,0,0,,12,,,83,127
54005,note_on,1,0,0,,11,,,82,127
54119,note_off,114,0,0,,11,,,82,127
54119,note_off,0,0,0,,12,,,59,127
54119,note_off,0,0,0,,7,,,67,127
54120,note_on,1,0,0,,12,,,59,127
54120,note_on,0,0,0,,6,,,66,127
54120,note_on,0,0,0,,11,,,82,127
54234,note_off,114,0,0,,11,,,82,127
54235,note_on,1,0,0,,12,,,83,127
54349,note_off,114,0,0,,12,,,83,127
54349,note_off,0,0,0,,6,,,66,127
54349,note_off,0,0,0,,12,,,59,127
54350,note_on,1,0,0,,7,,,67,127
54350,note_on,0,0,0,,12,,,59,127
54350,note_on,0,0,0,,12,,,83,127
54464,note_off,114,0,0,,12,,,83,127
54465,note_on,1,0,0,,10,,,81,127
54579,note_off,114,0,0,,10,,,81,127
54579,note_off,0,0,0,,12,,,59,127
54579,note_off,0,0,0,,7,,,67,127
54580,note_on,1,0,0,,7,,,67,127
54580,note_on,0,0,0,,12,,,59,127
54580,note_on,0,0,0,,10,,,81,127
54694,note_off,114,0,0,,10,,,81,127
54695,note_on,1,0,0,,7,,,79,127
54809,note_off,114,0,0,,7,,,79,127
54809,note_off,0,0,0,,12,,,59,127
54809,note_off,0,0,0,,7,,,67,127
54810,note_on,1,0,0,,7,,,67,127
54810,note_on,0,0,0,,12,,,59,127
54810,note_on,0,0,0,,7,,,79,127
54924,note_off,114,0,0,,7,,,79,127
54925,note_on,1,0,0,,6,,,78,127
55039,note_off,114,0,0,,6,,,78,127
55039,note_off,0,0,0,,12,,,59,127
55039,note_off,0,0,0,,7,,,67,127
55040,note_on,1,0,0,,7,,,67,127
55040,note_on,0,0,0,,12,,,59,127
55040,note_on,0,0,0,,4,,,76,127
55154,note_off,114,0,0,,4,,,76,127
55155,note_on,1,0,0,,2,,,74,127
55269,note_off,114,0,0,,2,,,74,127
55269,note_off,0,0,0,,12,,,59,127
55269,note_off,0,0,0,,7,,,67,127
55270,note_on,1,0,0,,7,,,67,127
55270,note_on,0,0,0,,10,,,57,127
55270,note_on,0,0,0,,1,,,73,127
55384,note_off,114,0,0,,1,,,73,127
55385,note_on,1,0,0,,12,,,83,127
55499,note_off,114,0,0,,12,,,83,127
55499,note_off,0,0,0,,10,,,57,127
55499,note_off,0,0,0,,7,,,67,127
55500,note_on,1,0,0,,7,,,67,127
55500,note_on,0,0,0,,10,,,57,127
55500,note_on,0,0,0,,12,,,83,127
55614,note_off,114,0,0,,12,,,83,127
55615,note_on,1,0,0,,10,,,81,127
55729,note_off,114,0,0,,10,,,81,127
55729,note_off,0,0,0,,10,,,57,127
55729,note_off,0,0,0,,7,,,67,127
55730,note_on,1,0,0,,10,,,57,127
55730,note_on,0,0,0,,5,,,65,127
55730,note_on,0,0,0,,10,,,81,127
55844,note_off,114,0,0,,10,,,81,127
55845,note_on,1,0,0,,8,,,80,127
55959,note_off,114,0,0,,8,,,80,127
55959,note_off,0,0,0,,5,,,65,127
55959,note_off,0,0,0,,10,,,57,127
55960,note_on,1,0,0,,4,,,64,127
55960,note_on,0,0,0,,10,,,57,127
55960,note_on,0,0,0,,8,,,80,127
56074,note_off,114,0,0,,8,,,80,127
56075,note_on,1,0,0,,10,,,81,127
56189,note_off,114,0,0,,10,,,81,127
56189,note_off,0,0,0,,10,,,57,127
56189,note_off,0,0,0,,4,,,64,127
56190,note_on,1,0,0,,5,,,65,127
56190,note_on,0,0,0,,10,,,57,127
56190,note_on,0,0,0,,10,,,81,127
56304,note_off,114,0,0,,10,,,81,127
56305,note_on,1,0,0,,7,,,79,127
56419,note_off,114,0,0,,7,,,79,127
56419,note_off,0,0,0,,10,,,57,127
56419,note_off,0,0,0,,5,,,65,127
56420,note_on,1,0,0,,10,,,57,127
56420,note_on,0,0,0,,5,,,65,127
56420,note_on,0,0,0,,7,,,79,127
56534,note_off,114,0,0,,7,,,79,127
56535,note_on,1,0,0,,5,,,77,127
56649,note_off,114,0,0,,5,,,77,127
56649,note_off,0,0,0,,5,,,65,127
56649,note_off,0,0,0,,10,,,57,127
56650,note_on,1,0,0,,5,,,65,127
56650,note_on,0,0,0,,10,,,57,127
56650,note_on,0,0,0,,5,,,77,127
56764,note_off,114,0,0,,5,,,77,127
56765,note_on,1,0,0,,4,,,76,127
56879,note_off,114,0,0,,4,,,76,127
56879,note_off,0,0,0,,10,,,57,127
56879,note_off,0,0,0,,5,,,65,127
56880,note_on,1,0,0,,5,,,65,127
56880,note_on,0,0,0,,10,,,57,127
56880,note_on,0,0,0,,2,,,74,127
56994,note_off,114,0,0,,2,,,74,127
56995,note_on,1,0,0,,0,,,72,127
57109,note_off,114,0,0,,0,,,72,127
57109,note_off,0,0,0,,10,,,57,127
57109,note_off,0,0,0,,5,,,65,127
57110,note_on,1,0,0,,5,,,65,127
57110,note_on,0,0,0,,7,,,55,127
57110,note_on,0,0,0,,12,,,71,127
57224,note_off,114,0,0,,12,,,71,127
57225,note_on,1,0,0,,10,,,81,127
57339,note_off,114,0,0,,10,,,81,127
57339,note_off,0,0,0,,7,,,55,127
57339,note_off,0,0,0,,5,,,65,127
57340,note_on,1,0,0,,7,,,55,127
57340,note_on,0,0,0,,5,,,65,127
57340,note_on,0,0,0,,10,,,81,127
57454,note_off,114,0,0,,10,,,81,127
57455,note_on,1,0,0,,7,,,79,127
57569,note_off,114,0,0,,7,,,79,127
57569,note_off,0,0,0,,5,,,65,127
57569,note_off,0,0,0,,7,,,55,127
57570,note_on,1,0,0,,7,,,55,127
57570,note_on,0,0,0,,4,,,64,127
57570,note_on,0,0,0,,7,,,79,127
57684,note_off,114,0,0,,7,,,79,127
57685,note_on,1,0,0,,6,,,78,127
57799,note_off,114,0,0,,6,,,78,127
57799,note_off,0,0,0,,4,,,64,127
57799,note_off,0,0,0,,7,,,55,127
57800,note_on,1,0,0,,7,,,55,127
57800,note_on,0,0,0,,2,,,62,127
57800,note_on,0,0,0,,6,,,78,127
57914,note_off,114,0,0,,6,,,78,127
57915,note_on,1,0,0,,7,,,79,127
58029,note_off,114,0,0,,7,,,79,127
58029,note_off,0,0,0,,2,,,62,127
58029,note_off,0,0,0,,7,,,55,127
58030,note_on,1,0,0,,4,,,64,127
58030,note_on,0,0,0,,7,,,55,127
58030,note_on,0,0,0,,7,,,79,127
58144,note_off,114,0,0,,7,,,79,127
58145,note_on,1,0,0,,5,,,77,127
58259,note_off,114,0,0,,5,,,77,127
58259,note_off,0,0,0,,7,,,55,127
58259,note_off,0,0,0,,4,,,64,127
58260,note_on,1,0,0,,4,,,64,127
58260,note_on,0,0,0,,7,,,55,127
58260,note_on,0,0,0,,5,,,77,127
58374,note_off,114,0,0,,5,,,77,127
58375,note_on,1,0,0,,4,,,76,127
58489,note_off,114,0,0,,4,,,76,127
58489,note_off,0,0,0,,7,,,55,127
58489,note_off,0,0,0,,4,,,64,127
58490,note_on,1,0,0,,4,,,64,127
58490,note_on,0,0,0,,7,,,55,127
58490,note_on,0,0,0,,4,,,76,127
58604,note_off,114,0,0,,4,,,76,127
58605,note_on,1,0,0,,2,,,74,127
58719,note_off,114,0,0,,2,,,74,127
58719,note_off,0,0,0,,7,,,55,127
58719,note_off,0,0,0,,4,,,64,127
58720,note_on,1,0,0,,4,,,64,127
58720,note_on,0,0,0,,7,,,55,127
58720,note_on,0,0,0,,2,,,74,127
58834,note_off,114,0,0,,2,,,74,127
58835,note_on,1,0,0,,0,,,72,127
58949,note_off,114,0,0,,0,,,72,127
58949,note_off,0,0,0,,7,,,55,127
58949,note_off,0,0,0,,4,,,64,127
58950,note_on,1,0,0,,2,,,62,127
58950,note_on,0,0,0,,0,,,60,127
58950,note_on,0,0,0,,6,,,54,127
58950,note_on,0,0,0,,0,,,72,127
59064,note_off,114,0,0,,0,,,72,127
59065,note_on,1,0,0,,2,,,74,127
59179,note_off,114,0,0,,2,,,74,127
59179,note_off,0,0,0,,6,,,54,127
59179,note_off,0,0,0,,0,,,60,127
59179,note_off,0,0,0,,2,,,62,127
59180,note_on,1,0,0,,2,,,62,127
59180,note_on,0,0,0,,0,,,60,127
59180,note_on,0,0,0,,6,,,54,127
59180,note_on,0,0,0,,4,,,76,127
59294,note_off,114,0,0,,4,,,76,127
59295,note_on,1,0,0,,0,,,72,127
59409,note_off,114,0,0,,0,,,72,127
59409,note_off,0,0,0,,6,,,54,127
59409,note_off,0,0,0,,0,,,60,127
59409,note_off,0,0,0,,2,,,62,127
59410,note_on,1,0,0,,2,,,62,127
59410,note_on,0,0,0,,7,,,55,127
59410,note_on,0,0,0,,0,,,72,127
59524,note_off,114,0,0,,0,,,72,127
59525,note_on,1,0,0,,12,,,71,127
59639,note_off,114,0,0,,12,,,71,127
59639,note_off,0,0,0,,7,,,55,127
59639,note_off,0,0,0,,2,,,62,127
59640,note_on,1,0,0,,7,,,43,127
59640,note_on,0,0,0,,10,,,69,127
59754,note_off,114,0,0,,10,,,69,127
59755,note_on,1,0,0,,7,,,67,127
59869,note_off,114,0,0,,7,,,67,127
59869,note_off,0,0,0,,7,,,43,127
59870,note_on,1,0,0,,2,,,38,127
59870,note_on,0,0,0,,10,,,69,127
60099,note_off,229,0,0,,10,,,69,127
60100,note_on,1,0,0,,10,,,81,127
60100,note_on,0,0,0,,6,,,78,127
60214,note_off,114,0,0,,6,,,78,127
60214,note_off,0,0,0,,10,,,81,127
60215,note_on,1,0,0,,4,,,76,127
60215,note_on,0,0,0,,7,,,79,127
60329,note_off,114,0,0,,7,,,79,127
60329,note_off,0,0,0,,4,,,76,127
60330,note_on,1,0,0,,10,,,81,127
60330,note_on,0,0,0,,6,,,78,127
60444,note_off,114,0,0,,6,,,78,127
60444,note_off,0,0,0,,10,,,81,127
60445,note_on,1,0,0,,7,,,79,127
60445,note_on,0,0,0,,4,,,76,127
60559,note_off,114,0,0,,4,,,76,127
60559,note_off,0,0,0,,7,,,79,127
60560,note_on,1,0,0,,10,,,81,127
60560,note_on,0,0,0,,6,,,78,127
60674,note_off,114,0,0,,6,,,78,127
60674,note_off,0,0,0,,10,,,81,127
60675,note_on,1,0,0,,12,,,83,127
60675,note_on,0,0,0,,7,,,79,127
60789,note_off,114,0,0,,7,,,79,127
60789,note_off,0,0,0,,12,,,83,127
60789,note_off,0,0,0,,2,,,38,127
60790,note_on,1,0,0,,10,,,81,127
60790,note_on,0,0,0,,6,,,78,127
60904,note_off,114,0,0,,6,,,78,127
60904,note_off,0,0,0,,10,,,81,127
60905,note_on,1,0,0,,4,,,76,127
60905,note_on,0,0,0,,7,,,79,127
61019,note_off,114,0,0,,7,,,79,127
61019,note_off,0,0,0,,4,,,76,127
61020,note_on,1,0,0,,10,,,69,127
61020,note_on,0,0,0,,10,,,81,127
61020,note_on,0,0,0,,6,,,78,127
61134,note_off,114,0,0,,6,,,78,127
61134,note_off,0,0,0,,10,,,81,127
61135,note_on,1,0,0,,7,,,79,127
61135,note_on,0,0,0,,12,,,83,127
61249,note_off,114,0,0,,12,,,83,127
61249,note_off,0,0,0,,7,,,79,127
61249,note_off,0,0,0,,10,,,69,127
61250,note_on,1,0,0,,6,,,66,127
61250,note_on,0,0,0,,10,,,81,127
61250,note_on,0,0,0,,6,,,78,127
61364,note_off,114,0,0,,6,,,78,127
61364,note_off,0,0,0,,10,,,81,127
61365,note_on,1,0,0,,4,,,76,127
61365,note_on,0,0,0,,7,,,79,127
61479,note_off,114,0,0,,7,,,79,127
61479,note_off,0,0,0,,4,,,76,127
61479,note_off,0,0,0,,6,,,66,127
61480,note_on,1,0,0,,2,,,62,127
61480,note_on,0,0,0,,10,,,81,127
61480,note_on,0,0,0,,6,,,78,127
61594,note_off,114,0,0,,6,,,78,127
61594,note_off,0,0,0,,10,,,81,127
61595,note_on,1,0,0,,7,,,79,127
61595,note_on,0,0,0,,12,,,83,127
61709,note_off,114,0,0,,12,,,83,127
61709,note_off,0,0,0,,7,,,79,127
61709,note_off,0,0,0,,2,,,62,127
61710,note_on,1,0,0,,2,,,38,127
61710,note_on,0,0,0,,6,,,78,127
61710,note_on,0,0,0,,10,,,81,127
61939,note_off,229,0,0,,10,,,81,127
61939,note_off,0,0,0,,6,,,78,127
61940,note_on,1,0,0,,12,,,83,127
61940,note_on,0,0,0,,7,,,79,127
62054,note_off,114,0,0,,7,,,79,127
62054,note_off,0,0,0,,12,,,83,127
62055,note_on,1,0,0,,6,,,78,127
62055,note_on,0,0,0,,10,,,81,127
62169,note_off,114,0,0,,10,,,81,127
62169,note_off,0,0,0,,6,,,78,127
62170,note_on,1,0,0,,12,,,83,127
62170,note_on,0,0,0,,7,,,79,127
62284,note_off,114,0,0,,7,,,79,127
62284,note_off,0,0,0,,12,,,83,127
62285,note_on,1,0,0,,10,,,81,127
62285,note_on,0,0,0,,6,,,78,127
62399,note_off,114,0,0,,6,,,78,127
62399,note_off,0,0,0,,10,,,81,127
62400,note_on,1,0,0,,7,,,79,127
62400,note_on,0,0,0,,12,,,83,127
62514,note_off,114,0,0,,12,,,83,127
62514,note_off,0,0,0,,7,,,79,127
62515,note_on,1,0,0,,0,,,84,127
62515,note_on,0,0,0,,10,,,81,127
62629,note_off,114,0,0,,10,,,81,127
62629,note_off,0,0,0,,0,,,84,127
62629,note_off,0,0,0,,2,,,38,127
62630,note_on,1,0,0,,7,,,79,127
62630,note_on,0,0,0,,12,,,83,127
62744,note_off,114,0,0,,12,,,83,127
62744,note_off,0,0,0,,7,,,79,127
62745,note_on,1,0,0,,10,,,81,127
62745,note_on,0,0,0,,6,,,78,127
62859,note_off,114,0,0,,6,,,78,127
62859,note_off,0,0,0,,10,,,81,127
62860,note_on,1,0,0,,12,,,71,127
62860,note_on,0,0,0,,7,,,79,127
62860,note_on,0,0,0,,12,,,83,127
62974,note_off,114,0,0,,12,,,83,127
62974,note_off,0,0,0,,7,,,79,127
62975,note_on,1,0,0,,10,,,81,127
62975,note_on,0,0,0,,0,,,84,127
63089,note_off,114,0,0,,0,,,84,127
63089,note_off,0,0,0,,10,,,81,127
63089,note_off,0,0,0,,12,,,71,127
63090,note_on,1,0,0,,7,,,67,127
63090,note_on,0,0,0,,12,,,83,127
63090,note_on,0,0,0,,7,,,79,127
63204,note_off,114,0,0,,7,,,79,127
63204,note_off,0,0,0,,12,,,83,127
63205,note_on,1,0,0,,10,,,81,127
63205,note_on,0,0,0,,6,,,78,127
63319,note_off,114,0,0,,6,,,78,127
63319,note_off,0,0,0,,10,,,81,127
63319,note_off,0,0,0,,7,,,67,127
63320,note_on,1,0,0,,2,,,62,127
63320,note_on,0,0,0,,12,,,83,127
63320,note_on,0,0,0,,7,,,79,127
63434,note_off,114,0,0,,7,,,79,127
63434,note_off,0,0,0,,12,,,83,127
63435,note_on,1,0,0,,10,,,81,127
63435,note_on,0,0,0,,0,,,84,127
63549,note_off,114,0,0,,0,,,84,127
63549,note_off,0,0,0,,10,,,81,127
63549,note_off,0,0,0,,2,,,62,127
63550,note_on,1,0,0,,2,,,38,127
63550,note_on,0,0,0,,12,,,83,127
63550,note_on,0,0,0,,7,,,79,127
63779,note_off,229,0,0,,7,,,79,127
63779,note_off,0,0,0,,12,,,83,127
63780,note_on,1,0,0,,0,,,84,127
63780,note_on,0,0,0,,10,,,81,127
63894,note_off,114,0,0,,10,,,81,127
63894,note_off,0,0,0,,0,,,84,127
63895,note_on,1,0,0,,12,,,83,127
63895,note_on,0,0,0,,7,,,79,127
64009,note_off,114,0,0,,7,,,79,127
64009,note_off,0,0,0,,12,,,83,127
64010,note_on,1,0,0,,10,,,81,127
64010,note_on,0,0,0,,0,,,84,127
64124,note_off,114,0,0,,0,,,84,127
64124,note_off,0,0,0,,10,,,81,127
64125,note_on,1,0,0,,7,,,79,127
64125,note_on,0,0,0,,12,,,83,127
64239,note_off,114,0,0,,12,,,83,127
64239,note_off,0,0,0,,7,,,79,127
64240,note_on,1,0,0,,0,,,84,127
64240,note_on,0,0,0,,10,,,81,127
64354,note_off,114,0,0,,10,,,81,127
64354,note_off,0,0,0,,0,,,84,127
64355,note_on,1,0,0,,2,,,86,127
64355,note_on,0,0,0,,12,,,83,127
64469,note_off,114,0,0,,12,,,83,127
64469,note_off,0,0,0,,2,,,86,127
64469,note_off,0,0,0,,2,,,38,127
64470,note_on,1,0,0,,0,,,84,127
64470,note_on,0,0,0,,10,,,81,127
64584,note_off,114,0,0,,10,,,81,127
64584,note_off,0,0,0,,0,,,84,127
64585,note_on,1,0,0,,12,,,83,127
64585,note_on,0,0,0,,7,,,79,127
64699,note_off,114,0,0,,7,,,79,127
64699,note_off,0,0,0,,12,,,83,127
64700,note_on,1,0,0,,0,,,72,127
64700,note_on,0,0,0,,10,,,81,127
64700,note_on,0,0,0,,0,,,84,127
64814,note_off,114,0,0,,0,,,84,127
64814,note_off,0,0,0,,10,,,81,127
64815,note_on,1,0,0,,12,,,83,127
64815,note_on,0,0,0,,2,,,86,127
64929,note_off,114,0,0,,2,,,86,127
64929,note_off,0,0,0,,12,,,83,127
64929,note_off,0,0,0,,0,,,72,127
64930,note_on,1,0,0,,10,,,69,127
64930,note_on,0,0,0,,0,,,84,127
64930,note_on,0,0,0,,10,,,81,127
65044,note_off,114,0,0,,10,,,81,127
65044,note_off,0,0,0,,0,,,84,127
65045,note_on,1,0,0,,12,,,83,127
65045,note_on,0,0,0,,7,,,79,127
65159,note_off,114,0,0,,7,,,79,127
65159,note_off,0,0,0,,12,,,83,127
65159,note_off,0,0,0,,10,,,69,127
65160,note_on,1,0,0,,2,,,62,127
65160,note_on,0,0,0,,0,,,84,127
65160,note_on,0,0,0,,10,,,81,127
65274,note_off,114,0,0,,10,,,81,127
65274,note_off,0,0,0,,0,,,84,127
65275,note_on,1,0,0,,2,,,86,127
65275,note_on,0,0,0,,12,,,83,127
65389,note_off,114,0,0,,12,,,83,127
65389,note_off,0,0,0,,2,,,86,127
65389,note_off,0,0,0,,2,,,62,127
65390,note_on,1,0,0,,2,,,38,127
65390,note_on,0,0,0,,7,,,79,127
65390,note_on,0,0,0,,12,,,83,127
65504,note_off,114,0,0,,12,,,83,127
65504,note_off,0,0,0,,7,,,79,127
65505,note_on,1,0,0,,0,,,84,127
65505,note_on,0,0,0,,10,,,81,127
65619,note_off,114,0,0,,10,,,81,127
65619,note_off,0,0,0,,0,,,84,127
65620,note_on,1,0,0,,12,,,83,127
65620,note_on,0,0,0,,2,,,86,127
65734,note_off,114,0,0,,2,,,86,127
65734,note_off,0,0,0,,12,,,83,127
65735,note_on,1,0,0,,10,,,81,127
65735,note_on,0,0,0,,0,,,84,127
65849,note_off,114,0,0,,0,,,84,127
65849,note_off,0,0,0,,10,,,81,127
65850,note_on,1,0,0,,4,,,88,127
65850,note_on,0,0,0,,0,,,84,127
65964,note_off,114,0,0,,0,,,84,127
65964,note_off,0,0,0,,4,,,88,127
65965,note_on,1,0,0,,10,,,81,127
65965,note_on,0,0,0,,0,,,84,127
66079,note_off,114,0,0,,0,,,84,127
66079,note_off,0,0,0,,10,,,81,127
66079,note_off,0,0,0,,2,,,38,127
66080,note_on,1,0,0,,2,,,50,127
66080,note_on,0,0,0,,7,,,79,127
66080,note_on,0,0,0,,12,,,83,127
66194,note_off,114,0,0,,12,,,83,127
66194,note_off,0,0,0,,7,,,79,127
66195,note_on,1,0,0,,6,,,78,127
66195,note_on,0,0,0,,10,,,81,127
66309,note_off,114,0,0,,10,,,81,127
66309,note_off,0,0,0,,6,,,78,127
66309,note_off,0,0,0,,2,,,50,127
66310,note_on,1,0,0,,7,,,43,127
66310,note_on,0,0,0,,7,,,79,127
66310,note_on,0,0,0,,12,,,83,127
66424,note_off,114,0,0,,12,,,83,127
66424,note_off,0,0,0,,7,,,79,127
66425,note_on,1,0,0,,10,,,81,127
66425,note_on,0,0,0,,0,,,84,127
66539,note_off,114,0,0,,0,,,84,127
66539,note_off,0,0,0,,10,,,81,127
66539,note_off,0,0,0,,7,,,43,127
66540,note_on,1,0,0,,0,,,48,127
66540,note_on,0,0,0,,12,,,83,127
66540,note_on,0,0,0,,2,,,86,127
66654,note_off,114,0,0,,2,,,86,127
66654,note_off,0,0,0,,12,,,83,127
66655,note_on,1,0,0,,0,,,84,127
66655,note_on,0,0,0,,10,,,81,127
66769,note_off,114,0,0,,10,,,81,127
66769,note_off,0,0,0,,0,,,84,127
66769,note_off,0,0,0,,0,,,48,127
66770,note_on,1,0,0,,2,,,50,127
66770,note_on,0,0,0,,12,,,83,127
66770,note_on,0,0,0,,7,,,79,127
66999,note_off,229,0,0,,7,,,79,127
66999,note_off,0,0,0,,12,,,83,127
66999,note_off,0,0,0,,2,,,50,127
67000,note_on,1,0,0,,2,,,38,127
67000,note_on,0,0,0,,7,,,79,127
67000,note_on,0,0,0,,12,,,83,127
67056,note_off,56,0,0,,12,,,83,127
67056,note_off,0,0,0,,7,,,79,127
67057,note_on,1,0,0,,6,,,78,127
67057,note_on,0,0,0,,10,,,81,127
67113,note_off,56,0,0,,10,,,81,127
67113,note_off,0,0,0,,6,,,78,127
67114,note_on,1,0,0,,12,,,83,127
67114,note_on,0,0,0,,7,,,79,127
67170,note_off,56,0,0,,7,,,79,127
67170,note_off,0,0,0,,12,,,83,127
67171,note_on,1,0,0,,10,,,81,127
67171,note_on,0,0,0,,6,,,78,127
67227,note_off,56,0,0,,6,,,78,127
67227,note_off,0,0,0,,10,,,81,127
67227,note_off,0,0,0,,2,,,38,127
67228,note_on,1,0,0,,7,,,43,127
67228,note_on,0,0,0,,7,,,79,127
67457,note_off,229,0,0,,7,,,79,127
67458,note_on,1,0,0,,10,,,69,127
67458,note_on,0,0,0,,6,,,66,127
67572,note_off,114,0,0,,6,,,66,127
67572,note_off,0,0,0,,10,,,69,127
67573,note_off,1,0,0,,7,,,43,127
67573,note_on,0,0,0,,7,,,67,127
67573,note_on,0,0,0,,4,,,64,127
67687,note_off,114,0,0,,4,,,64,127
67687,note_off,0,0,0,,7,,,67,127
67688,note_on,1,0,0,,10,,,69,127
67688,note_on,0,0,0,,6,,,66,127
67802,note_off,114,0,0,,6,,,66,127
67802,note_off,0,0,0,,10,,,69,127
67803,note_on,1,0,0,,7,,,67,127
67803,note_on,0,0,0,,4,,,64,127
67917,note_off,114,0,0,,4,,,64,127
67917,note_off,0,0,0,,7,,,67,127
67918,note_on,1,0,0,,10,,,69,127
67918,note_on,0,0,0,,6,,,66,127
68032,note_off,114,0,0,,6,,,66,127
68032,note_off,0,0,0,,10,,,69,127
68033,note_on,1,0,0,,12,,,71,127
68033,note_on,0,0,0,,7,,,67,127
68147,note_off,114,0,0,,7,,,67,127
68147,note_off,0,0,0,,12,,,71,127
68148,note_on,1,0,0,,10,,,69,127
68148,note_on,0,0,0,,6,,,66,127
68262,note_off,114,0,0,,6,,,66,127
68262,note_off,0,0,0,,10,,,69,127
68263,note_on,1,0,0,,7,,,67,127
68263,note_on,0,0,0,,4,,,64,127
68377,note_off,114,0,0,,4,,,64,127
68377,note_off,0,0,0,,7,,,67,127
68378,note_on,1,0,0,,10,,,57,127
68378,note_on,0,0,0,,6,,,66,127
68378,note_on,0,0,0,,10,,,69,127
68492,note_off,114,0,0,,10,,,69,127
68492,note_off,0,0,0,,6,,,66,127
68493,note_on,1,0,0,,7,,,67,127
68493,note_on,0,0,0,,12,,,71,127
68607,note_off,114,0,0,,12,,,71,127
68607,note_off,0,0,0,,7,,,67,127
68607,note_off,0,0,0,,10,,,57,127
68608,note_on,1,0,0,,6,,,54,127
68608,note_on,0,0,0,,6,,,66,127
68608,note_on,0,0,0,,10,,,69,127
68722,note_off,114,0,0,,10,,,69,127
68722,note_off,0,0,0,,6,,,66,127
68723,note_on,1,0,0,,7,,,67,127
68723,note_on,0,0,0,,4,,,64,127
68837,note_off,114,0,0,,4,,,64,127
68837,note_off,0,0,0,,7,,,67,127
68837,note_off,0,0,0,,6,,,54,127
68838,note_on,1,0,0,,2,,,50,127
68838,note_on,0,0,0,,10,,,69,127
68838,note_on,0,0,0,,6,,,66,127
68952,note_off,114,0,0,,6,,,66,127
68952,note_off,0,0,0,,10,,,69,127
68953,note_on,1,0,0,,7,,,67,127
68953,note_on,0,0,0,,12,,,71,127
69067,note_off,114,0,0,,12,,,71,127
69067,note_off,0,0,0,,7,,,67,127
69068,note_on,1,0,0,,2,,,38,127
69068,note_on,0,0,0,,10,,,69,127
69068,note_on,0,0,0,,6,,,66,127
69297,note_off,229,0,0,,6,,,66,127
69297,note_off,0,0,0,,10,,,69,127
69298,note_on,1,0,0,,7,,,67,127
69298,note_on,0,0,0,,12,,,71,127
69412,note_off,114,0,0,,12,,,71,127
69412,note_off,0,0,0,,7,,,67,127
69413,note_on,1,0,0,,10,,,69,127
69413,note_on,0,0,0,,6,,,66,127
69527,note_off,114,0,0,,6,,,66,127
69527,note_off,0,0,0,,10,,,69,127
69528,note_on,1,0,0,,12,,,71,127
69528,note_on,0,0,0,,7,,,67,127
69642,note_off,114,0,0,,7,,,67,127
69642,note_off,0,0,0,,12,,,71,127
69643,note_on,1,0,0,,6,,,66,127
69643,note_on,0,0,0,,10,,,69,127
69757,note_off,114,0,0,,10,,,69,127
69757,note_off,0,0,0,,6,,,66,127
69758,note_on,1,0,0,,12,,,71,127
69758,note_on,0,0,0,,7,,,67,127
69872,note_off,114,0,0,,7,,,67,127
69872,note_off,0,0,0,,12,,,71,127
69873,note_on,1,0,0,,0,,,72,127
69873,note_on,0,0,0,,10,,,69,127
69987,note_off,114,0,0,,10,,,69,127
69987,note_off,0,0,0,,0,,,72,127
69987,note_off,0,0,0,,2,,,38,127
69987,note_off,0,0,0,,2,,,50,127
69988,note_on,1,0,0,,7,,,67,127
69988,note_on,0,0,0,,12,,,71,127
70102,note_off,114,0,0,,12,,,71,127
70102,note_off,0,0,0,,7,,,67,127
70103,note_on,1,0,0,,10,,,69,127
70103,note_on,0,0,0,,6,,,66,127
70217,note_off,114,0,0,,6,,,66,127
70217,note_off,0,0,0,,10,,,69,127
70218,note_on,1,0,0,,12,,,59,127
70218,note_on,0,0,0,,12,,,71,127
70218,note_on,0,0,0,,7,,,67,127
70332,note_off,114,0,0,,7,,,67,127
70332,note_off,0,0,0,,12,,,71,127
70333,note_on,1,0,0,,10,,,69,127
70333,note_on,0,0,0,,0,,,72,127
70447,note_off,114,0,0,,0,,,72,127
70447,note_off,0,0,0,,10,,,69,127
70447,note_off,0,0,0,,12,,,59,127
70448,note_on,1,0,0,,7,,,55,127
70448,note_on,0,0,0,,12,,,71,127
70448,note_on,0,0,0,,7,,,67,127
70562,note_off,114,0,0,,7,,,67,127
70562,note_off,0,0,0,,12,,,71,127
70563,note_on,1,0,0,,10,,,69,127
70563,note_on,0,0,0,,6,,,66,127
70677,note_off,114,0,0,,6,,,66,127
70677,note_off,0,0,0,,10,,,69,127
70677,note_off,0,0,0,,7,,,55,127
70678,note_on,1,0,0,,2,,,50,127
70678,note_on,0,0,0,,12,,,71,127
70678,note_on,0,0,0,,7,,,67,127
70792,note_off,114,0,0,,7,,,67,127
70792,note_off,0,0,0,,12,,,71,127
70793,note_on,1,0,0,,10,,,69,127
70793,note_on,0,0,0,,0,,,72,127
70907,note_off,114,0,0,,0,,,72,127
70907,note_off,0,0,0,,10,,,69,127
70908,note_on,1,0,0,,2,,,38,127
70908,note_on,0,0,0,,12,,,71,127
70908,note_on,0,0,0,,7,,,67,127
71137,note_off,229,0,0,,7,,,67,127
71137,note_off,0,0,0,,12,,,71,127
71138,note_on,1,0,0,,10,,,69,127
71138,note_on,0,0,0,,0,,,72,127
71252,note_off,114,0,0,,0,,,72,127
71252,note_off,0,0,0,,10,,,69,127
71253,note_on,1,0,0,,12,,,71,127
71253,note_on,0,0,0,,7,,,67,127
71367,note_off,114,0,0,,7,,,67,127
71367,note_off,0,0,0,,12,,,71,127
71368,note_on,1,0,0,,10,,,69,127
71368,note_on,0,0,0,,0,,,72,127
71482,note_off,114,0,0,,0,,,72,127
71482,note_off,0,0,0,,10,,,69,127
71483,note_on,1,0,0,,7,,,67,127
71483,note_on,0,0,0,,12,,,71,127
71597,note_off,114,0,0,,12,,,71,127
71597,note_off,0,0,0,,7,,,67,127
71598,note_on,1,0,0,,10,,,69,127
71598,note_on,0,0,0,,0,,,72,127
71712,note_off,114,0,0,,0,,,72,127
71712,note_off,0,0,0,,10,,,69,127
71713,note_on,1,0,0,,12,,,71,127
71713,note_on,0,0,0,,2,,,74,127
71827,note_off,114,0,0,,2,,,74,127
71827,note_off,0,0,0,,12,,,71,127
71827,note_off,0,0,0,,2,,,38,127
71827,note_off,0,0,0,,2,,,50,127
71828,note_on,1,0,0,,0,,,72,127
71828,note_on,0,0,0,,10,,,69,127
71942,note_off,114,0,0,,10,,,69,127
71942,note_off,0,0,0,,0,,,72,127
71943,note_on,1,0,0,,12,,,71,127
71943,note_on,0,0,0,,7,,,67,127
72057,note_off,114,0,0,,7,,,67,127
72057,note_off,0,0,0,,12,,,71,127
72058,note_on,1,0,0,,0,,,60,127
72058,note_on,0,0,0,,0,,,72,127
72058,note_on,0,0,0,,10,,,69,127
72172,note_off,114,0,0,,10,,,69,127
72172,note_off,0,0,0,,0,,,72,127
72173,note_on,1,0,0,,2,,,74,127
72173,note_on,0,0,0,,12,,,71,127
72287,note_off,114,0,0,,12,,,71,127
72287,note_off,0,0,0,,2,,,74,127
72287,note_off,0,0,0,,0,,,60,127
72288,note_on,1,0,0,,10,,,57,127
72288,note_on,0,0,0,,0,,,72,127
72288,note_on,0,0,0,,10,,,69,127
72402,note_off,114,0,0,,10,,,69,127
72402,note_off,0,0,0,,0,,,72,127
72403,note_on,1,0,0,,7,,,67,127
72403,note_on,0,0,0,,12,,,71,127
72517,note_off,114,0,0,,12,,,71,127
72517,note_off,0,0,0,,7,,,67,127
72517,note_off,0,0,0,,10,,,57,127
72518,note_on,1,0,0,,2,,,50,127
72518,note_on,0,0,0,,0,,,72,127
72518,note_on,0,0,0,,10,,,69,127
72632,note_off,114,0,0,,10,,,69,127
72632,note_off,0,0,0,,0,,,72,127
72633,note_on,1,0,0,,12,,,71,127
72633,note_on,0,0,0,,2,,,74,127
72747,note_off,114,0,0,,2,,,74,127
72747,note_off,0,0,0,,12,,,71,127
72748,note_on,1,0,0,,2,,,38,127
72748,note_on,0,0,0,,12,,,71,127
72748,note_on,0,0,0,,7,,,67,127
72862,note_off,114,0,0,,7,,,67,127
72862,note_off,0,0,0,,12,,,71,127
72863,note_on,1,0,0,,0,,,72,127
72863,note_on,0,0,0,,10,,,69,127
72977,note_off,114,0,0,,10,,,69,127
72977,note_off,0,0,0,,0,,,72,127
72978,note_on,1,0,0,,12,,,71,127
72978,note_on,0,0,0,,2,,,74,127
73092,note_off,114,0,0,,2,,,74,127
73092,note_off,0,0,0,,12,,,71,127
73093,note_on,1,0,0,,10,,,69,127
73093,note_on,0,0,0,,0,,,72,127
73207,note_off,114,0,0,,0,,,72,127
73207,note_off,0,0,0,,10,,,69,127
73208,note_on,1,0,0,,0,,,72,127
73208,note_on,0,0,0,,4,,,76,127
73322,note_off,114,0,0,,4,,,76,127
73322,note_off,0,0,0,,0,,,72,127
73323,note_on,1,0,0,,10,,,69,127
73323,note_on,0,0,0,,0,,,72,127
73437,note_off,114,0,0,,0,,,72,127
73437,note_off,0,0,0,,10,,,69,127
73437,note_off,0,0,0,,2,,,38,127
73437,note_off,0,0,0,,2,,,50,127
73438,note_on,1,0,0,,2,,,50,127
73438,note_on,0,0,0,,12,,,71,127
73438,note_on,0,0,0,,7,,,67,127
73552,note_off,114,0,0,,7,,,67,127
73552,note_off,0,0,0,,12,,,71,127
73553,note_on,1,0,0,,6,,,66,127
73553,note_on,0,0,0,,10,,,69,127
73667,note_off,114,0,0,,10,,,69,127
73667,note_off,0,0,0,,6,,,66,127
73667,note_off,0,0,0,,2,,,50,127
73668,note_on,1,0,0,,7,,,43,127
73668,note_on,0,0,0,,7,,,67,127
73668,note_on,0,0,0,,12,,,71,127
73782,note_off,114,0,0,,12,,,71,127
73782,note_off,0,0,0,,7,,,67,127
73783,note_on,1,0,0,,10,,,69,127
73783,note_on,0,0,0,,0,,,72,127
73897,note_off,114,0,0,,0,,,72,127
73897,note_off,0,0,0,,10,,,69,127
73897,note_off,0,0,0,,7,,,43,127
73898,note_on,1,0,0,,0,,,48,127
73898,note_on,0,0,0,,2,,,74,127
73898,note_on,0,0,0,,12,,,71,127
74012,note_off,114,0,0,,12,,,71,127
74012,note_off,0,0,0,,2,,,74,127
74013,note_on,1,0,0,,10,,,69,127
74013,note_on,0,0,0,,0,,,72,127
74127,note_off,114,0,0,,0,,,72,127
74127,note_off,0,0,0,,10,,,69,127
74127,note_off,0,0,0,,0,,,48,127
74128,note_on,1,0,0,,2,,,50,127
74128,note_on,0,0,0,,7,,,67,127
74128,note_on,0,0,0,,12,,,71,127
74357,note_off,229,0,0,,12,,,71,127
74357,note_off,0,0,0,,7,,,67,127
74358,note_on,1,0,0,,2,,,38,127
74358,note_on,0,0,0,,7,,,67,127
74358,note_on,0,0,0,,12,,,71,127
74414,note_off,56,0,0,,12,,,71,127
74414,note_off,0,0,0,,7,,,67,127
74415,note_on,1,0,0,,10,,,69,127
74415,note_on,0,0,0,,6,,,66,127
74471,note_off,56,0,0,,6,,,66,127
74471,note_off,0,0,0,,10,,,69,127
74472,note_on,1,0,0,,12,,,71,127
74472,note_on,0,0,0,,7,,,67,127
74528,note_off,56,0,0,,7,,,67,127
74528,note_off,0,0,0,,12,,,71,127
74529,note_on,1,0,0,,10,,,69,127
74529,note_on,0,0,0,,6,,,66,127
74585,note_off,56,0,0,,6,,,66,127
74585,note_off,0,0,0,,10,,,69,127
74585,note_off,0,0,0,,2,,,38,127
74585,note_off,0,0,0,,2,,,50,127
74586,note_on,1,0,0,,7,,,43,127
74586,note_on,0,0,0,,7,,,67,127
74815,note_off,229,0,0,,7,,,67,127
74816,note_on,1,0,0,,2,,,74,127
74816,note_on,0,0,0,,2,,,86,127
74930,note_off,114,0,0,,2,,,86,127
74930,note_off,0,0,0,,2,,,74,127
74931,note_on,1,0,0,,2,,,86,127
74931,note_on,0,0,0,,2,,,74,127
75045,note_off,114,0,0,,2,,,74,127
75045,note_off,0,0,0,,2,,,86,127
75045,note_off,0,0,0,,7,,,43,127
75046,note_on,1,0,0,,2,,,38,127
75046,note_on,0,0,0,,2,,,50,127
75046,note_on,0,0,0,,2,,,86,127
75046,note_on,0,0,0,,2,,,74,127
75275,note_off,229,0,0,,2,,,74,127
75275,note_off,0,0,0,,2,,,86,127
75276,note_on,1,0,0,,0,,,84,127
75276,note_on,0,0,0,,6,,,78,127
75390,note_off,114,0,0,,6,,,78,127
75390,note_off,0,0,0,,0,,,84,127
75391,note_on,1,0,0,,6,,,78,127
75391,note_on,0,0,0,,0,,,84,127
75505,note_off,114,0,0,,0,,,84,127
75505,note_off,0,0,0,,6,,,78,127
75505,note_off,0,0,0,,2,,,50,127
75505,note_off,0,0,0,,2,,,38,127
75506,note_on,1,0,0,,7,,,43,127
75506,note_on,0,0,0,,12,,,83,127
75506,note_on,0,0,0,,7,,,79,127
75735,note_off,229,0,0,,7,,,79,127
75735,note_off,0,0,0,,12,,,83,127
75736,note_on,1,0,0,,12,,,71,127
75736,note_on,0,0,0,,7,,,79,127
75850,note_off,114,0,0,,7,,,79,127
75850,note_off,0,0,0,,12,,,71,127
75851,note_on,1,0,0,,7,,,79,127
75851,note_on,0,0,0,,12,,,71,127
75965,note_off,114,0,0,,12,,,71,127
75965,note_off,0,0,0,,7,,,79,127
75965,note_off,0,0,0,,7,,,43,127
75966,note_on,1,0,0,,2,,,38,127
75966,note_on,0,0,0,,2,,,50,127
75966,note_on,0,0,0,,6,,,78,127
75966,note_on,0,0,0,,10,,,69,127
76195,note_off,229,0,0,,10,,,69,127
76195,note_off,0,0,0,,6,,,78,127
76196,note_on,1,0,0,,0,,,72,127
76196,note_on,0,0,0,,10,,,81,127
76310,note_off,114,0,0,,10,,,81,127
76310,note_off,0,0,0,,0,,,72,127
76311,note_on,1,0,0,,0,,,72,127
76311,note_on,0,0,0,,10,,,81,127
76425,note_off,114,0,0,,10,,,81,127
76425,note_off,0,0,0,,0,,,72,127
76425,note_off,0,0,0,,2,,,50,127
76425,note_off,0,0,0,,2,,,38,127
76426,note_on,1,0,0,,7,,,43,127
76426,note_on,0,0,0,,7,,,79,127
76426,note_on,0,0,0,,12,,,71,127
76655,note_off,229,0,0,,12,,,71,127
76655,note_off,0,0,0,,7,,,79,127
76656,note_on,1,0,0,,2,,,62,127
76656,note_on,0,0,0,,2,,,74,127
76770,note_off,114,0,0,,2,,,74,127
76770,note_off,0,0,0,,2,,,62,127
76771,note_on,1,0,0,,2,,,74,127
76771,note_on,0,0,0,,2,,,62,127
76885,note_off,114,0,0,,2,,,62,127
76885,note_off,0,0,0,,2,,,74,127
76885,note_off,0,0,0,,7,,,43,127
76886,note_on,1,0,0,,2,,,50,127
76886,note_on,0,0,0,,2,,,38,127
76886,note_on,0,0,0,,2,,,62,127
76886,note_on,0,0,0,,2,,,74,127
77115,note_off,229,0,0,,2,,,74,127
77115,note_off,0,0,0,,2,,,62,127
77116,note_on,1,0,0,,0,,,72,127
77116,note_on,0,0,0,,6,,,66,127
77230,note_off,114,0,0,,6,,,66,127
77230,note_off,0,0,0,,0,,,72,127
77231,note_on,1,0,0,,0,,,72,127
77231,note_on,0,0,0,,6,,,66,127
77345,note_off,114,0,0,,6,,,66,127
77345,note_off,0,0,0,,0,,,72,127
77345,note_off,0,0,0,,2,,,38,127
77345,note_off,0,0,0,,2,,,50,127
77346,note_on,1,0,0,,7,,,43,127
77346,note_on,0,0,0,,12,,,71,127
77346,note_on,0,0,0,,7,,,67,127
77575,note_off,229,0,0,,7,,,67,127
77575,note_off,0,0,0,,12,,,71,127
77576,note_on,1,0,0,,7,,,67,127
77576,note_on,0,0,0,,12,,,59,127
77690,note_off,114,0,0,,12,,,59,127
77690,note_off,0,0,0,,7,,,67,127
77691,note_on,1,0,0,,7,,,67,127
77691,note_on,0,0,0,,12,,,59,127
77805,note_off,114,0,0,,12,,,59,127
77805,note_off,0,0,0,,7,,,67,127
77805,note_off,0,0,0,,7,,,43,127
77806,note_on,1,0,0,,2,,,50,127
77806,note_on,0,0,0,,2,,,38,127
77806,note_on,0,0,0,,6,,,66,127
77806,note_on,0,0,0,,10,,,57,127
78035,note_off,229,0,0,,10,,,57,127
78035,note_off,0,0,0,,6,,,66,127
78036,note_on,1,0,0,,0,,,60,127
78036,note_on,0,0,0,,10,,,69,127
78150,note_off,114,0,0,,10,,,69,127
78150,note_off,0,0,0,,0,,,60,127
78151,note_on,1,0,0,,0,,,60,127
78151,note_on,0,0,0,,10,,,69,127
78265,note_off,114,0,0,,10,,,69,127
78265,note_off,0,0,0,,0,,,60,127
78265,note_off,0,0,0,,2,,,38,127
78265,note_off,0,0,0,,2,,,50,127
78266,note_on,1,0,0,,7,,,43,127
78266,note_on,0,0,0,,12,,,59,127
78266,note_on,0,0,0,,7,,,67,127
78380,note_off,114,0,0,,7,,,67,127
78380,note_off,0,0,0,,12,,,59,127
78381,note_on,1,0,0,,2,,,74,127
78495,note_off,114,0,0,,2,,,74,127
78495,note_off,0,0,0,,7,,,43,127
78496,note_on,1,0,0,,0,,,48,127
78496,note_on,0,0,0,,7,,,67,127
78610,note_off,114,0,0,,7,,,67,127
78611,note_on,1,0,0,,4,,,76,127
78725,note_off,114,0,0,,4,,,76,127
78725,note_off,0,0,0,,0,,,48,127
78726,note_on,1,0,0,,2,,,50,127
78726,note_on,0,0,0,,7,,,67,127
78955,note_off,229,0,0,,7,,,67,127
78956,note_on,1,0,0,,2,,,38,127
78956,note_on,0,0,0,,7,,,67,127
79012,note_off,56,0,0,,7,,,67,127
79013,note_on,1,0,0,,6,,,66,127
79069,note_off,56,0,0,,6,,,66,127
79070,note_on,1,0,0,,7,,,67,127
79126,note_off,56,0,0,,7,,,67,127
79127,note_on,1,0,0,,6,,,66,127
79183,note_off,56,0,0,,6,,,66,127
79183,note_off,0,0,0,,2,,,38,127
79183,note_off,0,0,0,,2,,,50,127
79184,note_on,1,0,0,,7,,,43,127
79184,note_on,0,0,0,,7,,,67,127
79413,note_off,229,0,0,,7,,,67,127
79414,note_on,1,0,0,,2,,,74,127
79414,note_on,0,0,0,,2,,,86,127
79528,note_off,114,0,0,,2,,,86,127
79528,note_off,0,0,0,,2,,,74,127
79529,note_on,1,0,0,,2,,,86,127
79529,note_on,0,0,0,,2,,,74,127
79643,note_off,114,0,0,,2,,,74,127
79643,note_off,0,0,0,,2,,,86,127
79643,note_off,0,0,0,,7,,,43,127
79644,note_on,1,0,0,,2,,,38,127
79644,note_on,0,0,0,,2,,,50,127
79644,note_on,0,0,0,,2,,,74,127
79644,note_on,0,0,0,,2,,,86,127
79873,note_off,229,0,0,,2,,,86,127
79873,note_off,0,0,0,,2,,,74,127
79874,note_on,1,0,0,,0,,,84,127
79874,note_on,0,0,0,,6,,,78,127
79988,note_off,114,0,0,,6,,,78,127
79988,note_off,0,0,0,,0,,,84,127
79989,note_on,1,0,0,,0,,,84,127
79989,note_on,0,0,0,,6,,,78,127
80103,note_off,114,0,0,,6,,,78,127
80103,note_off,0,0,0,,0,,,84,127
80103,note_off,0,0,0,,2,,,50,127
80103,note_off,0,0,0,,2,,,38,127
80104,note_on,1,0,0,,7,,,43,127
80104,note_on,0,0,0,,7,,,79,127
80104,note_on,0,0,0,,12,,,83,127
80333,note_off,229,0,0,,12,,,83,127
80333,note_off,0,0,0,,7,,,79,127
80334,note_on,1,0,0,,12,,,71,127
80334,note_on,0,0,0,,7,,,79,127
80448,note_off,114,0,0,,7,,,79,127
80448,note_off,0,0,0,,12,,,71,127
80449,note_on,1,0,0,,12,,,71,127
80449,note_on,0,0,0,,7,,,79,127
80563,note_off,114,0,0,,7,,,79,127
80563,note_off,0,0,0,,12,,,71,127
80563,note_off,0,0,0,,7,,,43,127
80564,note_on,1,0,0,,2,,,38,127
80564,note_on,0,0,0,,2,,,50,127
80564,note_on,0,0,0,,6,,,78,127
80564,note_on,0,0,0,,10,,,69,127
80793,note_off,229,0,0,,10,,,69,127
80793,note_off,0,0,0,,6,,,78,127
80794,note_on,1,0,0,,0,,,72,127
80794,note_on,0,0,0,,10,,,81,127
80908,note_off,114,0,0,,10,,,81,127
80908,note_off,0,0,0,,0,,,72,127
80909,note_on,1,0,0,,0,,,72,127
80909,note_on,0,0,0,,10,,,81,127
81023,note_off,114,0,0,,10,,,81,127
81023,note_off,0,0,0,,0,,,72,127
81023,note_off,0,0,0,,2,,,50,127
81023,note_off,0,0,0,,2,,,38,127
81024,note_on,1,0,0,,7,,,43,127
81024,note_on,0,0,0,,7,,,79,127
81024,note_on,0,0,0,,12,,,71,127
81253,note_off,229,0,0,,12,,,71,127
81253,note_off,0,0,0,,7,,,79,127
81254,note_on,1,0,0,,2,,,62,127
81254,note_on,0,0,0,,2,,,74,127
81368,note_off,114,0,0,,2,,,74,127
81368,note_off,0,0,0,,2,,,62,127
81369,note_on,1,0,0,,2,,,62,127
81369,note_on,0,0,0,,2,,,74,127
81483,note_off,114,0,0,,2,,,74,127
81483,note_off,0,0,0,,2,,,62,127
81483,note_off,0,0,0,,7,,,43,127
81484,note_on,1,0,0,,2,,,38,127
81484,note_on,0,0,0,,2,,,50,127
81484,note_on,0,0,0,,0,,,72,127
81484,note_on,0,0,0,,6,,,66,127
81713,note_off,229,0,0,,6,,,66,127
81713,note_off,0,0,0,,0,,,72,127
81714,note_on,1,0,0,,0,,,72,127
81714,note_on,0,0,0,,6,,,66,127
81828,note_off,114,0,0,,6,,,66,127
81828,note_off,0,0,0,,0,,,72,127
81829,note_on,1,0,0,,0,,,72,127
81829,note_on,0,0,0,,6,,,66,127
81943,note_off,114,0,0,,6,,,66,127
81943,note_off,0,0,0,,0,,,72,127
81943,note_off,0,0,0,,2,,,50,127
81943,note_off,0,0,0,,2,,,38,127
81944,note_on,1,0,0,,7,,,43,127
81944,note_on,0,0,0,,12,,,71,127
81944,note_on,0,0,0,,7,,,67,127
82173,note_off,229,0,0,,7,,,67,127
82173,note_off,0,0,0,,12,,,71,127
82174,note_on,1,0,0,,7,,,67,127
82174,note_on,0,0,0,,12,,,59,127
82288,note_off,114,0,0,,12,,,59,127
82288,note_off,0,0,0,,7,,,67,127
82289,note_on,1,0,0,,7,,,67,127
82289,note_on,0,0,0,,12,,,59,127
82403,note_off,114,0,0,,12,,,59,127
82403,note_off,0,0,0,,7,,,67,127
82403,note_off,0,0,0,,7,,,43,127
82404,note_on,1,0,0,,2,,,50,127
82404,note_on,0,0,0,,2,,,38,127
82404,note_on,0,0,0,,6,,,66,127
82404,note_on,0,0,0,,10,,,57,127
82633,note_off,229,0,0,,10,,,57,127
82633,note_off,0,0,0,,6,,,66,127
82634,note_on,1,0,0,,10,,,69,127
82634,note_on,0,0,0,,0,,,60,127
82748,note_off,114,0,0,,0,,,60,127
82748,note_off,0,0,0,,10,,,69,127
82749,note_on,1,0,0,,10,,,69,127
82749,note_on,0,0,0,,0,,,60,127
82863,note_off,114,0,0,,0,,,60,127
82863,note_off,0,0,0,,10,,,69,127
82863,note_off,0,0,0,,2,,,38,127
82863,note_off,0,0,0,,2,,,50,127
82864,note_on,1,0,0,,7,,,43,127
82864,note_on,0,0,0,,12,,,59,127
82864,note_on,0,0,0,,7,,,67,127
82978,note_off,114,0,0,,7,,,67,127
82978,note_off,0,0,0,,12,,,59,127
82979,note_on,1,0,0,,2,,,74,127
83093,note_off,114,0,0,,2,,,74,127
83093,note_off,0,0,0,,7,,,43,127
83094,note_on,1,0,0,,0,,,48,127
83094,note_on,0,0,0,,7,,,67,127
83208,note_off,114,0,0,,7,,,67,127
83209,note_on,1,0,0,,7,,,79,127
83323,note_off,114,0,0,,7,,,79,127
83323,note_off,0,0,0,,0,,,48,127
83324,note_on,1,0,0,,2,,,50,127
83324,note_on,0,0,0,,7,,,67,127
83553,note_off,229,0,0,,7,,,67,127
83554,note_on,1,0,0,,2,,,38,127
83554,note_on,0,0,0,,7,,,67,127
83610,note_off,56,0,0,,7,,,67,127
83611,note_on,1,0,0,,6,,,66,127
83667,note_off,56,0,0,,6,,,66,127
83668,note_on,1,0,0,,7,,,67,127
83724,note_off,56,0,0,,7,,,67,127
83725,note_on,1,0,0,,6,,,66,127
83781,note_off,56,0,0,,6,,,66,127
83781,note_off,0,0,0,,2,,,38,127
83781,note_off,0,0,0,,2,,,50,127
83782,note_on,1,0,0,,7,,,43,127
83782,note_on,0,0,0,,7,,,67,127
85971,note_off,2189,0,0,,7,,,67,127
85971,note_off,0,0,0,,7,,,43,127
87552,end_of_track,1581,1,0,,,,,,
