tick,type,time,meta,track,program,channel,pitch,tempo,note,velocity
0,copyright,0,1,0,,,,,,
0,program_change,0,0,0,6,0,,,,
0,pitchwheel,0,0,0,,0,0,,,
0,program_change,0,0,0,6,1,,,,
0,pitchwheel,0,0,0,,1,-590,,,
0,program_change,0,0,0,6,2,,,,
0,pitchwheel,0,0,0,,2,-272,,,
0,program_change,0,0,0,6,3,,,,
0,pitchwheel,0,0,0,,3,-353,,,
0,program_change,0,0,0,6,4,,,,
0,pitchwheel,0,0,0,,4,-560,,,
0,program_change,0,0,0,6,5,,,,
0,pitchwheel,0,0,0,,5,-80,,,
0,program_change,0,0,0,6,6,,,,
0,pitchwheel,0,0,0,,6,-625,,,
0,program_change,0,0,0,6,7,,,,
0,pitchwheel,0,0,0,,7,-130,,,
0,program_change,0,0,0,6,8,,,,
0,pitchwheel,0,0,0,,8,-512,,,
0,program_change,0,0,0,6,10,,,,
0,pitchwheel,0,0,0,,10,-464,,,
0,program_change,0,0,0,6,11,,,,
0,pitchwheel,0,0,0,,11,-208,,,
0,program_change,0,0,0,6,12,,,,
0,pitchwheel,0,0,0,,12,-553,,,
0,set_tempo,0,1,0,,,,500000,,
206,note_on,206,0,0,,2,,,74,127
411,note_off,205,0,0,,2,,,74,127
412,note_on,1,0,0,,2,,,74,127
617,note_off,205,0,0,,2,,,74,127
618,note_on,1,0,0,,4,,,76,127
823,note_off,205,0,0,,4,,,76,127
824,note_on,1,0,0,,7,,,79,127
874,note_off,50,0,0,,7,,,79,127
875,note_on,1,0,0,,6,,,78,127
925,note_off,50,0,0,,6,,,78,127
926,note_on,1,0,0,,4,,,76,127
976,note_off,50,0,0,,4,,,76,127
977,note_on,1,0,0,,6,,,78,127
1027,note_off,50,0,0,,6,,,78,127
1028,note_on,1,0,0,,7,,,79,127
1233,note_off,205,0,0,,7,,,79,127
1234,note_on,1,0,0,,2,,,74,127
1440,note_on,206,0,0,,2,,,62,127
1645,note_off,205,0,0,,2,,,62,127
1646,note_on,1,0,0,,2,,,62,127
1851,note_off,205,0,0,,2,,,62,127
1851,note_off,0,0,0,,2,,,74,127
1852,note_on,1,0,0,,0,,,72,127
1852,note_on,0,0,0,,4,,,64,127
2057,note_off,205,0,0,,4,,,64,127
2058,note_on,1,0,0,,6,,,66,127
2263,note_off,205,0,0,,6,,,66,127
2263,note_off,0,0,0,,0,,,72,127
2264,note_on,1,0,0,,12,,,71,127
2264,note_on,0,0,0,,7,,,67,127
2469,note_off,205,0,0,,7,,,67,127
2469,note_off,0,0,0,,12,,,71,127
2470,note_on,1,0,0,,4,,,76,127
2470,note_on,0,0,0,,0,,,60,127
2675,note_off,205,0,0,,4,,,76,127
2676,note_on,1,0,0,,10,,,69,127
2881,note_off,205,0,0,,10,,,69,127
2881,note_off,0,0,0,,0,,,60,127
2882,note_on,1,0,0,,2,,,74,127
2882,note_on,0,0,0,,12,,,59,127
3087,note_off,205,0,0,,12,,,59,127
3087,note_off,0,0,0,,2,,,74,127
3088,note_on,1,0,0,,0,,,72,127
3088,note_on,0,0,0,,2,,,74,127
3088,note_on,0,0,0,,10,,,57,127
3293,note_off,205,0,0,,2,,,74,127
3293,note_off,0,0,0,,0,,,72,127
3294,note_on,1,0,0,,12,,,71,127
3499,note_off,205,0,0,,12,,,71,127
3500,note_on,1,0,0,,0,,,72,127
3500,note_on,0,0,0,,10,,,69,127
3500,note_on,0,0,0,,2,,,50,127
3705,note_off,205,0,0,,2,,,50,127
3705,note_off,0,0,0,,10,,,69,127
3705,note_off,0,0,0,,0,,,72,127
3705,note_off,0,0,0,,10,,,57,127
3706,note_on,1,0,0,,12,,,71,127
3706,note_on,0,0,0,,7,,,67,127
3706,note_on,0,0,0,,7,,,55,127
4048,note_off,342,0,0,,12,,,71,127
4049,note_on,1,0,0,,0,,,72,127
4116,note_off,67,0,0,,0,,,72,127
4116,note_off,0,0,0,,7,,,55,127
4117,note_on,1,0,0,,2,,,74,127
4117,note_on,0,0,0,,12,,,59,127
4322,note_off,205,0,0,,12,,,59,127
4322,note_off,0,0,0,,2,,,74,127
4323,note_on,1,0,0,,0,,,72,127
4323,note_on,0,0,0,,2,,,74,127
4323,note_on,0,0,0,,10,,,57,127
4528,note_off,205,0,0,,2,,,74,127
4528,note_off,0,0,0,,0,,,72,127
4528,note_off,0,0,0,,7,,,67,127
4529,note_on,1,0,0,,12,,,71,127
4734,note_off,205,0,0,,12,,,71,127
4735,note_on,1,0,0,,6,,,66,127
4735,note_on,0,0,0,,0,,,72,127
4735,note_on,0,0,0,,2,,,50,127
4838,note_off,103,0,0,,10,,,57,127
4940,note_off,102,0,0,,2,,,50,127
4940,note_off,0,0,0,,0,,,72,127
4940,note_off,0,0,0,,6,,,66,127
4941,note_on,1,0,0,,7,,,67,127
4941,note_on,0,0,0,,12,,,71,127
4941,note_on,0,0,0,,7,,,55,127
5283,note_off,342,0,0,,12,,,71,127
5284,note_on,1,0,0,,0,,,72,127
5351,note_off,67,0,0,,0,,,72,127
5351,note_off,0,0,0,,7,,,55,127
5352,note_on,1,0,0,,2,,,74,127
5352,note_on,0,0,0,,12,,,59,127
5557,note_off,205,0,0,,12,,,59,127
5557,note_off,0,0,0,,2,,,74,127
5558,note_on,1,0,0,,0,,,72,127
5558,note_on,0,0,0,,2,,,74,127
5558,note_on,0,0,0,,10,,,57,127
5763,note_off,205,0,0,,2,,,74,127
5763,note_off,0,0,0,,0,,,72,127
5763,note_off,0,0,0,,7,,,67,127
5764,note_on,1,0,0,,12,,,71,127
5969,note_off,205,0,0,,12,,,71,127
5969,note_off,0,0,0,,10,,,57,127
5970,note_on,1,0,0,,6,,,66,127
5970,note_on,0,0,0,,0,,,72,127
5970,note_on,0,0,0,,2,,,50,127
6175,note_off,205,0,0,,2,,,50,127
6175,note_off,0,0,0,,0,,,72,127
6175,note_off,0,0,0,,6,,,66,127
6176,note_on,1,0,0,,7,,,67,127
6176,note_on,0,0,0,,12,,,71,127
6176,note_on,0,0,0,,7,,,55,127
6381,note_off,205,0,0,,12,,,71,127
6382,note_on,1,0,0,,2,,,74,127
6583,note_off,201,0,0,,7,,,67,127
6586,note_off,3,0,0,,2,,,74,127
6586,note_off,0,0,0,,7,,,55,127
6587,note_on,1,0,0,,7,,,67,127
6587,note_on,0,0,0,,2,,,62,127
6587,note_on,0,0,0,,12,,,59,127
6792,note_off,205,0,0,,12,,,59,127
6792,note_off,0,0,0,,7,,,67,127
6793,note_on,1,0,0,,7,,,67,127
6793,note_on,0,0,0,,10,,,69,127
6793,note_on,0,0,0,,0,,,60,127
6793,note_on,0,0,0,,10,,,57,127
6998,note_off,205,0,0,,10,,,69,127
6998,note_off,0,0,0,,7,,,67,127
6999,note_on,1,0,0,,6,,,66,127
7204,note_off,205,0,0,,6,,,66,127
7204,note_off,0,0,0,,10,,,57,127
7204,note_off,0,0,0,,0,,,60,127
7205,note_on,1,0,0,,10,,,69,127
7205,note_on,0,0,0,,7,,,55,127
7205,note_on,0,0,0,,12,,,59,127
7255,note_off,50,0,0,,10,,,69,127
7256,note_on,1,0,0,,7,,,67,127
7306,note_off,50,0,0,,7,,,67,127
7307,note_on,1,0,0,,6,,,66,127
7357,note_off,50,0,0,,6,,,66,127
7358,note_on,1,0,0,,7,,,67,127
7408,note_off,50,0,0,,7,,,67,127
7408,note_off,0,0,0,,12,,,59,127
7408,note_off,0,0,0,,7,,,55,127
7408,note_off,0,0,0,,2,,,62,127
7409,note_on,1,0,0,,10,,,69,127
7409,note_on,0,0,0,,2,,,62,127
7409,note_on,0,0,0,,10,,,57,127
7409,note_on,0,0,0,,2,,,50,127
7614,note_off,205,0,0,,10,,,69,127
7615,note_on,1,0,0,,2,,,74,127
7820,note_off,205,0,0,,2,,,74,127
7820,note_off,0,0,0,,2,,,50,127
7820,note_off,0,0,0,,10,,,57,127
7820,note_off,0,0,0,,2,,,62,127
7821,note_on,1,0,0,,7,,,67,127
7821,note_on,0,0,0,,2,,,62,127
7821,note_on,0,0,0,,12,,,59,127
8026,note_off,205,0,0,,12,,,59,127
8026,note_off,0,0,0,,7,,,67,127
8027,note_on,1,0,0,,7,,,67,127
8027,note_on,0,0,0,,10,,,69,127
8027,note_on,0,0,0,,10,,,57,127
8027,note_on,0,0,0,,0,,,60,127
8228,note_off,201,0,0,,2,,,62,127
8231,note_off,3,0,0,,10,,,69,127
8231,note_off,0,0,0,,7,,,67,127
8232,note_on,1,0,0,,6,,,66,127
8437,note_off,205,0,0,,6,,,66,127
8437,note_off,0,0,0,,0,,,60,127
8437,note_off,0,0,0,,10,,,57,127
8438,note_on,1,0,0,,10,,,69,127
8438,note_on,0,0,0,,7,,,55,127
8438,note_on,0,0,0,,12,,,59,127
8488,note_off,50,0,0,,10,,,69,127
8489,note_on,1,0,0,,7,,,67,127
8539,note_off,50,0,0,,7,,,67,127
8540,note_on,1,0,0,,6,,,66,127
8590,note_off,50,0,0,,6,,,66,127
8591,note_on,1,0,0,,7,,,67,127
8641,note_off,50,0,0,,7,,,67,127
8641,note_off,0,0,0,,12,,,59,127
8641,note_off,0,0,0,,7,,,55,127
8642,note_on,1,0,0,,10,,,69,127
8642,note_on,0,0,0,,10,,,57,127
8642,note_on,0,0,0,,2,,,62,127
8642,note_on,0,0,0,,2,,,50,127
8796,note_off,154,0,0,,10,,,69,127
8847,note_on,51,0,0,,7,,,79,127
9052,note_off,205,0,0,,7,,,79,127
9052,note_off,0,0,0,,2,,,50,127
9052,note_off,0,0,0,,2,,,62,127
9052,note_off,0,0,0,,10,,,57,127
9053,note_on,1,0,0,,7,,,67,127
9053,note_on,0,0,0,,2,,,62,127
9053,note_on,0,0,0,,12,,,59,127
9258,note_off,205,0,0,,12,,,59,127
9258,note_off,0,0,0,,2,,,62,127
9258,note_off,0,0,0,,7,,,67,127
9259,note_on,1,0,0,,7,,,67,127
9259,note_on,0,0,0,,10,,,69,127
9259,note_on,0,0,0,,10,,,57,127
9259,note_on,0,0,0,,0,,,60,127
9464,note_off,205,0,0,,10,,,69,127
9464,note_off,0,0,0,,7,,,67,127
9465,note_on,1,0,0,,6,,,66,127
9670,note_off,205,0,0,,6,,,66,127
9670,note_off,0,0,0,,0,,,60,127
9670,note_off,0,0,0,,10,,,57,127
9671,note_on,1,0,0,,10,,,69,127
9671,note_on,0,0,0,,12,,,59,127
9671,note_on,0,0,0,,7,,,55,127
9721,note_off,50,0,0,,10,,,69,127
9722,note_on,1,0,0,,7,,,67,127
9772,note_off,50,0,0,,7,,,67,127
9773,note_on,1,0,0,,6,,,66,127
9823,note_off,50,0,0,,6,,,66,127
9824,note_on,1,0,0,,7,,,67,127
9874,note_off,50,0,0,,7,,,67,127
9874,note_off,0,0,0,,7,,,55,127
9874,note_off,0,0,0,,12,,,59,127
9875,note_on,1,0,0,,10,,,69,127
9875,note_on,0,0,0,,10,,,57,127
9875,note_on,0,0,0,,2,,,62,127
9875,note_on,0,0,0,,2,,,50,127
9977,note_off,102,0,0,,10,,,69,127
9978,note_on,1,0,0,,10,,,81,127
10080,note_off,102,0,0,,10,,,81,127
10081,note_on,1,0,0,,6,,,78,127
10183,note_off,102,0,0,,6,,,78,127
10184,note_on,1,0,0,,2,,,74,127
10286,note_off,102,0,0,,2,,,74,127
10287,note_on,1,0,0,,10,,,69,127
10389,note_off,102,0,0,,10,,,69,127
10390,note_on,1,0,0,,6,,,66,127
10492,note_off,102,0,0,,6,,,66,127
10492,note_off,0,0,0,,2,,,62,127
10492,note_off,0,0,0,,10,,,57,127
10493,note_on,1,0,0,,2,,,62,127
10596,note_on,103,0,0,,10,,,57,127
10698,note_off,102,0,0,,10,,,57,127
10699,note_on,1,0,0,,6,,,54,127
10801,note_off,102,0,0,,6,,,54,127
10801,note_off,0,0,0,,2,,,50,127
10802,note_on,1,0,0,,2,,,50,127
10904,note_off,102,0,0,,2,,,50,127
10905,note_on,1,0,0,,10,,,45,127
11007,note_off,102,0,0,,10,,,45,127
11008,note_on,1,0,0,,6,,,42,127
11110,note_off,102,0,0,,6,,,42,127
11110,note_off,0,0,0,,2,,,62,127
11111,note_on,1,0,0,,2,,,38,127
11933,note_off,822,0,0,,2,,,38,127
12551,note_on,618,0,0,,0,,,72,127
12551,note_on,0,0,0,,10,,,69,127
12551,note_on,0,0,0,,5,,,65,127
12756,note_off,205,0,0,,5,,,65,127
12757,note_on,1,0,0,,5,,,65,127
12962,note_off,205,0,0,,5,,,65,127
12963,note_on,1,0,0,,5,,,65,127
13168,note_off,205,0,0,,5,,,65,127
13168,note_off,0,0,0,,10,,,69,127
13168,note_off,0,0,0,,0,,,72,127
13169,note_on,1,0,0,,7,,,67,127
13169,note_on,0,0,0,,2,,,74,127
13169,note_on,0,0,0,,4,,,64,127
13374,note_off,205,0,0,,4,,,64,127
13375,note_on,1,0,0,,4,,,64,127
13580,note_off,205,0,0,,4,,,64,127
13580,note_off,0,0,0,,2,,,74,127
13581,note_on,1,0,0,,0,,,72,127
13581,note_on,0,0,0,,4,,,64,127
13786,note_off,205,0,0,,4,,,64,127
13786,note_off,0,0,0,,0,,,72,127
13786,note_off,0,0,0,,7,,,67,127
13787,note_on,1,0,0,,4,,,76,127
13787,note_on,0,0,0,,11,,,70,127
13787,note_on,0,0,0,,2,,,62,127
13992,note_off,205,0,0,,2,,,62,127
13993,note_on,1,0,0,,2,,,62,127
14198,note_off,205,0,0,,2,,,62,127
14198,note_off,0,0,0,,4,,,76,127
14199,note_on,1,0,0,,2,,,74,127
14199,note_on,0,0,0,,2,,,62,127
14404,note_off,205,0,0,,2,,,62,127
14404,note_off,0,0,0,,2,,,74,127
14404,note_off,0,0,0,,11,,,70,127
14405,note_on,1,0,0,,10,,,69,127
14405,note_on,0,0,0,,5,,,77,127
14405,note_on,0,0,0,,1,,,61,127
14610,note_off,205,0,0,,1,,,61,127
14611,note_on,1,0,0,,1,,,61,127
14816,note_off,205,0,0,,1,,,61,127
14816,note_off,0,0,0,,5,,,77,127
14817,note_on,1,0,0,,4,,,76,127
14817,note_on,0,0,0,,1,,,61,127
15022,note_off,205,0,0,,1,,,61,127
15022,note_off,0,0,0,,4,,,76,127
15022,note_off,0,0,0,,10,,,69,127
15023,note_on,1,0,0,,7,,,79,127
15023,note_on,0,0,0,,5,,,77,127
15023,note_on,0,0,0,,10,,,69,127
15023,note_on,0,0,0,,2,,,62,127
15228,note_off,205,0,0,,2,,,62,127
15228,note_off,0,0,0,,5,,,77,127
15228,note_off,0,0,0,,7,,,79,127
15229,note_on,1,0,0,,4,,,76,127
15229,note_on,0,0,0,,2,,,62,127
15434,note_off,205,0,0,,2,,,62,127
15434,note_off,0,0,0,,4,,,76,127
15435,note_on,1,0,0,,5,,,77,127
15435,note_on,0,0,0,,2,,,62,127
15640,note_off,205,0,0,,2,,,62,127
15640,note_off,0,0,0,,5,,,77,127
15640,note_off,0,0,0,,10,,,69,127
15641,note_on,1,0,0,,5,,,77,127
15641,note_on,0,0,0,,7,,,79,127
15641,note_on,0,0,0,,11,,,70,127
15641,note_on,0,0,0,,7,,,55,127
15846,note_off,205,0,0,,7,,,55,127
15846,note_off,0,0,0,,7,,,79,127
15846,note_off,0,0,0,,5,,,77,127
15847,note_on,1,0,0,,4,,,76,127
15847,note_on,0,0,0,,7,,,55,127
16048,note_off,201,0,0,,11,,,70,127
16051,note_off,3,0,0,,7,,,55,127
16052,note_on,1,0,0,,10,,,69,127
16052,note_on,0,0,0,,10,,,57,127
16257,note_off,205,0,0,,10,,,57,127
16257,note_off,0,0,0,,10,,,69,127
16258,note_on,1,0,0,,7,,,67,127
16258,note_on,0,0,0,,11,,,58,127
16463,note_off,205,0,0,,11,,,58,127
16463,note_off,0,0,0,,4,,,76,127
16464,note_on,1,0,0,,1,,,73,127
16464,note_on,0,0,0,,11,,,58,127
16669,note_off,205,0,0,,11,,,58,127
16669,note_off,0,0,0,,1,,,73,127
16670,note_on,1,0,0,,2,,,74,127
16670,note_on,0,0,0,,11,,,58,127
16875,note_off,205,0,0,,11,,,58,127
16875,note_off,0,0,0,,2,,,74,127
16875,note_off,0,0,0,,7,,,67,127
16876,note_on,1,0,0,,2,,,74,127
16876,note_on,0,0,0,,10,,,69,127
16876,note_on,0,0,0,,4,,,76,127
16876,note_on,0,0,0,,10,,,57,127
17081,note_off,205,0,0,,4,,,76,127
17081,note_off,0,0,0,,10,,,69,127
17081,note_off,0,0,0,,2,,,74,127
17082,note_on,1,0,0,,1,,,73,127
17132,note_off,50,0,0,,1,,,73,127
17133,note_on,1,0,0,,2,,,74,127
17183,note_off,50,0,0,,2,,,74,127
17184,note_on,1,0,0,,1,,,73,127
17234,note_off,50,0,0,,1,,,73,127
17235,note_on,1,0,0,,12,,,71,127
17285,note_off,50,0,0,,12,,,71,127
17286,note_on,1,0,0,,10,,,69,127
17440,note_off,154,0,0,,10,,,69,127
17490,note_off,50,0,0,,10,,,57,127
17491,note_on,1,0,0,,7,,,67,127
17491,note_on,0,0,0,,5,,,65,127
17558,note_off,67,0,0,,7,,,67,127
17559,note_on,1,0,0,,10,,,69,127
17626,note_off,67,0,0,,10,,,69,127
17627,note_on,1,0,0,,12,,,71,127
17694,note_off,67,0,0,,12,,,71,127
17694,note_off,0,0,0,,5,,,65,127
17695,note_on,1,0,0,,12,,,71,127
17695,note_on,0,0,0,,5,,,65,127
17745,note_off,50,0,0,,12,,,71,127
17746,note_on,1,0,0,,10,,,69,127
17796,note_off,50,0,0,,10,,,69,127
17797,note_on,1,0,0,,12,,,71,127
17847,note_off,50,0,0,,12,,,71,127
17848,note_on,1,0,0,,10,,,69,127
17898,note_off,50,0,0,,10,,,69,127
17898,note_off,0,0,0,,5,,,65,127
17899,note_on,1,0,0,,12,,,71,127
17899,note_on,0,0,0,,5,,,65,127
17949,note_off,50,0,0,,12,,,71,127
17950,note_on,1,0,0,,10,,,69,127
18000,note_off,50,0,0,,10,,,69,127
18001,note_on,1,0,0,,12,,,71,127
18051,note_off,50,0,0,,12,,,71,127
18052,note_on,1,0,0,,10,,,69,127
18102,note_off,50,0,0,,10,,,69,127
18102,note_off,0,0,0,,5,,,65,127
18103,note_on,1,0,0,,12,,,71,127
18103,note_on,0,0,0,,7,,,67,127
18103,note_on,0,0,0,,4,,,64,127
18170,note_off,67,0,0,,12,,,71,127
18171,note_on,1,0,0,,0,,,72,127
18238,note_off,67,0,0,,0,,,72,127
18239,note_on,1,0,0,,2,,,74,127
18306,note_off,67,0,0,,2,,,74,127
18306,note_off,0,0,0,,4,,,64,127
18306,note_off,0,0,0,,7,,,67,127
18307,note_on,1,0,0,,2,,,74,127
18307,note_on,0,0,0,,7,,,67,127
18307,note_on,0,0,0,,4,,,64,127
18357,note_off,50,0,0,,2,,,74,127
18358,note_on,1,0,0,,0,,,72,127
18408,note_off,50,0,0,,0,,,72,127
18409,note_on,1,0,0,,2,,,74,127
18459,note_off,50,0,0,,2,,,74,127
18460,note_on,1,0,0,,0,,,72,127
18510,note_off,50,0,0,,0,,,72,127
18510,note_off,0,0,0,,4,,,64,127
18510,note_off,0,0,0,,7,,,67,127
18511,note_on,1,0,0,,2,,,74,127
18511,note_on,0,0,0,,4,,,64,127
18511,note_on,0,0,0,,7,,,67,127
18561,note_off,50,0,0,,2,,,74,127
18562,note_on,1,0,0,,0,,,72,127
18612,note_off,50,0,0,,0,,,72,127
18613,note_on,1,0,0,,2,,,74,127
18663,note_off,50,0,0,,2,,,74,127
18664,note_on,1,0,0,,0,,,72,127
18714,note_off,50,0,0,,0,,,72,127
18714,note_off,0,0,0,,7,,,67,127
18714,note_off,0,0,0,,4,,,64,127
18715,note_on,1,0,0,,1,,,73,127
18715,note_on,0,0,0,,11,,,70,127
18715,note_on,0,0,0,,7,,,67,127
18715,note_on,0,0,0,,2,,,62,127
18782,note_off,67,0,0,,1,,,73,127
18783,note_on,1,0,0,,2,,,74,127
18850,note_off,67,0,0,,2,,,74,127
18851,note_on,1,0,0,,4,,,76,127
18918,note_off,67,0,0,,4,,,76,127
18918,note_off,0,0,0,,2,,,62,127
18918,note_off,0,0,0,,7,,,67,127
18919,note_on,1,0,0,,4,,,76,127
18919,note_on,0,0,0,,2,,,62,127
18919,note_on,0,0,0,,7,,,67,127
18969,note_off,50,0,0,,4,,,76,127
18970,note_on,1,0,0,,2,,,74,127
19020,note_off,50,0,0,,2,,,74,127
19021,note_on,1,0,0,,4,,,76,127
19071,note_off,50,0,0,,4,,,76,127
19072,note_on,1,0,0,,2,,,74,127
19122,note_off,50,0,0,,2,,,74,127
19122,note_off,0,0,0,,7,,,67,127
19122,note_off,0,0,0,,2,,,62,127
19123,note_on,1,0,0,,4,,,76,127
19123,note_on,0,0,0,,7,,,67,127
19123,note_on,0,0,0,,2,,,62,127
19173,note_off,50,0,0,,4,,,76,127
19174,note_on,1,0,0,,2,,,74,127
19224,note_off,50,0,0,,2,,,74,127
19225,note_on,1,0,0,,4,,,76,127
19275,note_off,50,0,0,,4,,,76,127
19276,note_on,1,0,0,,2,,,74,127
19326,note_off,50,0,0,,2,,,74,127
19326,note_off,0,0,0,,2,,,62,127
19326,note_off,0,0,0,,7,,,67,127
19326,note_off,0,0,0,,11,,,70,127
19327,note_on,1,0,0,,2,,,74,127
19327,note_on,0,0,0,,10,,,69,127
19327,note_on,0,0,0,,7,,,67,127
19327,note_on,0,0,0,,1,,,61,127
19394,note_off,67,0,0,,2,,,74,127
19395,note_on,1,0,0,,4,,,76,127
19462,note_off,67,0,0,,4,,,76,127
19463,note_on,1,0,0,,5,,,77,127
19530,note_off,67,0,0,,5,,,77,127
19530,note_off,0,0,0,,1,,,61,127
19530,note_off,0,0,0,,7,,,67,127
19531,note_on,1,0,0,,5,,,77,127
19531,note_on,0,0,0,,7,,,67,127
19531,note_on,0,0,0,,1,,,61,127
19581,note_off,50,0,0,,5,,,77,127
19582,note_on,1,0,0,,4,,,76,127
19632,note_off,50,0,0,,4,,,76,127
19633,note_on,1,0,0,,5,,,77,127
19683,note_off,50,0,0,,5,,,77,127
19684,note_on,1,0,0,,4,,,76,127
19734,note_off,50,0,0,,4,,,76,127
19734,note_off,0,0,0,,1,,,61,127
19734,note_off,0,0,0,,7,,,67,127
19735,note_on,1,0,0,,5,,,77,127
19735,note_on,0,0,0,,7,,,67,127
19735,note_on,0,0,0,,1,,,61,127
19785,note_off,50,0,0,,5,,,77,127
19786,note_on,1,0,0,,4,,,76,127
19836,note_off,50,0,0,,4,,,76,127
19837,note_on,1,0,0,,5,,,77,127
19887,note_off,50,0,0,,5,,,77,127
19888,note_on,1,0,0,,4,,,76,127
19938,note_off,50,0,0,,4,,,76,127
19938,note_off,0,0,0,,1,,,61,127
19938,note_off,0,0,0,,7,,,67,127
19938,note_off,0,0,0,,10,,,69,127
19939,note_on,1,0,0,,4,,,76,127
19939,note_on,0,0,0,,5,,,65,127
19939,note_on,0,0,0,,10,,,69,127
19939,note_on,0,0,0,,2,,,62,127
20006,note_off,67,0,0,,4,,,76,127
20007,note_on,1,0,0,,5,,,77,127
20074,note_off,67,0,0,,5,,,77,127
20075,note_on,1,0,0,,7,,,79,127
20142,note_off,67,0,0,,7,,,79,127
20142,note_off,0,0,0,,2,,,62,127
20142,note_off,0,0,0,,5,,,65,127
20143,note_on,1,0,0,,7,,,79,127
20143,note_on,0,0,0,,5,,,65,127
20143,note_on,0,0,0,,2,,,62,127
20193,note_off,50,0,0,,7,,,79,127
20194,note_on,1,0,0,,5,,,77,127
20244,note_off,50,0,0,,5,,,77,127
20245,note_on,1,0,0,,7,,,79,127
20295,note_off,50,0,0,,7,,,79,127
20296,note_on,1,0,0,,5,,,77,127
20346,note_off,50,0,0,,5,,,77,127
20346,note_off,0,0,0,,2,,,62,127
20346,note_off,0,0,0,,5,,,65,127
20347,note_on,1,0,0,,7,,,79,127
20347,note_on,0,0,0,,2,,,62,127
20347,note_on,0,0,0,,5,,,65,127
20397,note_off,50,0,0,,7,,,79,127
20398,note_on,1,0,0,,5,,,77,127
20448,note_off,50,0,0,,5,,,77,127
20449,note_on,1,0,0,,4,,,76,127
20499,note_off,50,0,0,,4,,,76,127
20500,note_on,1,0,0,,5,,,77,127
20550,note_off,50,0,0,,5,,,77,127
20550,note_off,0,0,0,,5,,,65,127
20550,note_off,0,0,0,,2,,,62,127
20550,note_off,0,0,0,,10,,,69,127
20551,note_on,1,0,0,,7,,,79,127
20551,note_on,0,0,0,,5,,,77,127
20551,note_on,0,0,0,,11,,,70,127
20551,note_on,0,0,0,,4,,,64,127
20551,note_on,0,0,0,,7,,,55,127
20551,note_on,0,0,0,,2,,,62,127
20756,note_off,205,0,0,,2,,,62,127
20756,note_off,0,0,0,,7,,,55,127
20756,note_off,0,0,0,,4,,,64,127
20756,note_off,0,0,0,,5,,,77,127
20756,note_off,0,0,0,,7,,,79,127
20757,note_on,1,0,0,,4,,,76,127
20757,note_on,0,0,0,,4,,,64,127
20757,note_on,0,0,0,,2,,,62,127
20757,note_on,0,0,0,,7,,,55,127
20958,note_off,201,0,0,,11,,,70,127
20961,note_off,3,0,0,,7,,,55,127
20961,note_off,0,0,0,,2,,,62,127
20961,note_off,0,0,0,,4,,,64,127
20962,note_on,1,0,0,,10,,,69,127
20962,note_on,0,0,0,,4,,,64,127
20962,note_on,0,0,0,,7,,,55,127
20962,note_on,0,0,0,,2,,,62,127
21163,note_off,201,0,0,,4,,,76,127
21166,note_off,3,0,0,,2,,,62,127
21166,note_off,0,0,0,,7,,,55,127
21166,note_off,0,0,0,,4,,,64,127
21166,note_off,0,0,0,,10,,,69,127
21167,note_on,1,0,0,,7,,,67,127
21167,note_on,0,0,0,,4,,,76,127
21167,note_on,0,0,0,,2,,,74,127
21167,note_on,0,0,0,,11,,,58,127
21167,note_on,0,0,0,,2,,,62,127
21372,note_off,205,0,0,,2,,,62,127
21372,note_off,0,0,0,,11,,,58,127
21372,note_off,0,0,0,,2,,,74,127
21372,note_off,0,0,0,,4,,,76,127
21373,note_on,1,0,0,,1,,,73,127
21373,note_on,0,0,0,,2,,,62,127
21373,note_on,0,0,0,,11,,,58,127
21578,note_off,205,0,0,,11,,,58,127
21578,note_off,0,0,0,,2,,,62,127
21578,note_off,0,0,0,,1,,,73,127
21579,note_on,1,0,0,,2,,,74,127
21579,note_on,0,0,0,,11,,,58,127
21579,note_on,0,0,0,,2,,,62,127
21784,note_off,205,0,0,,2,,,62,127
21784,note_off,0,0,0,,11,,,58,127
21784,note_off,0,0,0,,2,,,74,127
21784,note_off,0,0,0,,7,,,67,127
21785,note_on,1,0,0,,10,,,69,127
21785,note_on,0,0,0,,2,,,74,127
21785,note_on,0,0,0,,4,,,76,127
21785,note_on,0,0,0,,10,,,57,127
21990,note_off,205,0,0,,10,,,57,127
21990,note_off,0,0,0,,4,,,76,127
21990,note_off,0,0,0,,2,,,74,127
21990,note_off,0,0,0,,10,,,69,127
21991,note_on,1,0,0,,1,,,73,127
21991,note_on,0,0,0,,10,,,45,127
22041,note_off,50,0,0,,1,,,73,127
22042,note_on,1,0,0,,2,,,74,127
22092,note_off,50,0,0,,2,,,74,127
22093,note_on,1,0,0,,1,,,73,127
22143,note_off,50,0,0,,1,,,73,127
22144,note_on,1,0,0,,12,,,71,127
22194,note_off,50,0,0,,12,,,71,127
22195,note_on,1,0,0,,10,,,69,127
22298,note_off,103,0,0,,10,,,45,127
22400,note_off,102,0,0,,10,,,69,127
22401,note_on,1,0,0,,6,,,78,127
22401,note_on,0,0,0,,10,,,81,127
22401,note_on,0,0,0,,10,,,69,127
22607,note_on,206,0,0,,6,,,66,127
22812,note_off,205,0,0,,6,,,66,127
22813,note_on,1,0,0,,2,,,62,127
23018,note_off,205,0,0,,2,,,62,127
23018,note_off,0,0,0,,10,,,69,127
23018,note_off,0,0,0,,10,,,81,127
23018,note_off,0,0,0,,6,,,78,127
23019,note_on,1,0,0,,7,,,79,127
23019,note_on,0,0,0,,4,,,76,127
23019,note_on,0,0,0,,10,,,69,127
23019,note_on,0,0,0,,4,,,64,127
23224,note_off,205,0,0,,4,,,64,127
23225,note_on,1,0,0,,1,,,61,127
23430,note_off,205,0,0,,1,,,61,127
23431,note_on,1,0,0,,10,,,57,127
23636,note_off,205,0,0,,10,,,57,127
23636,note_off,0,0,0,,10,,,69,127
23636,note_off,0,0,0,,4,,,76,127
23636,note_off,0,0,0,,7,,,79,127
23637,note_on,1,0,0,,6,,,78,127
23637,note_on,0,0,0,,2,,,74,127
23637,note_on,0,0,0,,10,,,69,127
23637,note_on,0,0,0,,2,,,62,127
23842,note_off,205,0,0,,2,,,62,127
23842,note_off,0,0,0,,2,,,74,127
23842,note_off,0,0,0,,6,,,78,127
23843,note_on,1,0,0,,1,,,73,127
23843,note_on,0,0,0,,4,,,76,127
23843,note_on,0,0,0,,6,,,42,127
24048,note_off,205,0,0,,6,,,42,127
24048,note_off,0,0,0,,4,,,76,127
24048,note_off,0,0,0,,1,,,73,127
24049,note_on,1,0,0,,6,,,78,127
24049,note_on,0,0,0,,2,,,74,127
24049,note_on,0,0,0,,2,,,38,127
24254,note_off,205,0,0,,2,,,38,127
24254,note_off,0,0,0,,2,,,74,127
24254,note_off,0,0,0,,6,,,78,127
24254,note_off,0,0,0,,10,,,69,127
24255,note_on,1,0,0,,6,,,78,127
24255,note_on,0,0,0,,10,,,69,127
24255,note_on,0,0,0,,10,,,33,127
24305,note_off,50,0,0,,6,,,78,127
24306,note_on,1,0,0,,4,,,76,127
24356,note_off,50,0,0,,4,,,76,127
24357,note_on,1,0,0,,6,,,78,127
24407,note_off,50,0,0,,6,,,78,127
24408,note_on,1,0,0,,4,,,76,127
24458,note_off,50,0,0,,4,,,76,127
24459,note_on,1,0,0,,2,,,74,127
24660,note_off,201,0,0,,10,,,69,127
24663,note_off,3,0,0,,2,,,74,127
24664,note_on,1,0,0,,4,,,76,127
24869,note_off,205,0,0,,4,,,76,127
24869,note_off,0,0,0,,10,,,33,127
24870,note_on,1,0,0,,10,,,69,127
24870,note_on,0,0,0,,6,,,78,127
24870,note_on,0,0,0,,10,,,81,127
25076,note_on,206,0,0,,6,,,66,127
25281,note_off,205,0,0,,6,,,66,127
25282,note_on,1,0,0,,2,,,62,127
25487,note_off,205,0,0,,2,,,62,127
25487,note_off,0,0,0,,10,,,81,127
25487,note_off,0,0,0,,6,,,78,127
25487,note_off,0,0,0,,10,,,69,127
25488,note_on,1,0,0,,4,,,76,127
25488,note_on,0,0,0,,7,,,79,127
25488,note_on,0,0,0,,10,,,69,127
25488,note_on,0,0,0,,4,,,64,127
25693,note_off,205,0,0,,4,,,64,127
25694,note_on,1,0,0,,1,,,61,127
25899,note_off,205,0,0,,1,,,61,127
25900,note_on,1,0,0,,10,,,57,127
26105,note_off,205,0,0,,10,,,57,127
26105,note_off,0,0,0,,10,,,69,127
26105,note_off,0,0,0,,7,,,79,127
26105,note_off,0,0,0,,4,,,76,127
26106,note_on,1,0,0,,6,,,78,127
26106,note_on,0,0,0,,10,,,69,127
26106,note_on,0,0,0,,2,,,74,127
26106,note_on,0,0,0,,2,,,62,127
26311,note_off,205,0,0,,2,,,62,127
26311,note_off,0,0,0,,2,,,74,127
26311,note_off,0,0,0,,6,,,78,127
26312,note_on,1,0,0,,4,,,76,127
26312,note_on,0,0,0,,1,,,73,127
26312,note_on,0,0,0,,6,,,42,127
26517,note_off,205,0,0,,6,,,42,127
26517,note_off,0,0,0,,1,,,73,127
26517,note_off,0,0,0,,4,,,76,127
26518,note_on,1,0,0,,6,,,78,127
26518,note_on,0,0,0,,2,,,74,127
26518,note_on,0,0,0,,2,,,38,127
26723,note_off,205,0,0,,2,,,38,127
26723,note_off,0,0,0,,2,,,74,127
26723,note_off,0,0,0,,6,,,78,127
26723,note_off,0,0,0,,10,,,69,127
26724,note_on,1,0,0,,6,,,78,127
26724,note_on,0,0,0,,10,,,69,127
26724,note_on,0,0,0,,10,,,33,127
26774,note_off,50,0,0,,6,,,78,127
26775,note_on,1,0,0,,4,,,76,127
26825,note_off,50,0,0,,4,,,76,127
26826,note_on,1,0,0,,6,,,78,127
26876,note_off,50,0,0,,6,,,78,127
26877,note_on,1,0,0,,4,,,76,127
26927,note_off,50,0,0,,4,,,76,127
26928,note_on,1,0,0,,2,,,74,127
27129,note_off,201,0,0,,10,,,69,127
27132,note_off,3,0,0,,2,,,74,127
27133,note_on,1,0,0,,4,,,76,127
27338,note_off,205,0,0,,4,,,76,127
27338,note_off,0,0,0,,10,,,33,127
27339,note_on,1,0,0,,10,,,81,127
27339,note_on,0,0,0,,6,,,42,127
27441,note_off,102,0,0,,10,,,81,127
27442,note_on,1,0,0,,7,,,79,127
27544,note_off,102,0,0,,7,,,79,127
27545,note_on,1,0,0,,6,,,78,127
27647,note_off,102,0,0,,6,,,78,127
27648,note_on,1,0,0,,4,,,76,127
27750,note_off,102,0,0,,4,,,76,127
27751,note_on,1,0,0,,2,,,74,127
27853,note_off,102,0,0,,2,,,74,127
27854,note_on,1,0,0,,1,,,73,127
27956,note_off,102,0,0,,1,,,73,127
27956,note_off,0,0,0,,6,,,42,127
27957,note_on,1,0,0,,12,,,71,127
27957,note_on,0,0,0,,7,,,43,127
28059,note_off,102,0,0,,12,,,71,127
28060,note_on,1,0,0,,10,,,69,127
28162,note_off,102,0,0,,10,,,69,127
28163,note_on,1,0,0,,7,,,67,127
28265,note_off,102,0,0,,7,,,67,127
28266,note_on,1,0,0,,6,,,66,127
28368,note_off,102,0,0,,6,,,66,127
28369,note_on,1,0,0,,4,,,64,127
28471,note_off,102,0,0,,4,,,64,127
28472,note_on,1,0,0,,2,,,62,127
28574,note_off,102,0,0,,2,,,62,127
28574,note_off,0,0,0,,7,,,43,127
28575,note_on,1,0,0,,1,,,61,127
28575,note_on,0,0,0,,10,,,45,127
28677,note_off,102,0,0,,1,,,61,127
28678,note_on,1,0,0,,12,,,59,127
28780,note_off,102,0,0,,12,,,59,127
28781,note_on,1,0,0,,10,,,57,127
28883,note_off,102,0,0,,10,,,57,127
28884,note_on,1,0,0,,7,,,55,127
28986,note_off,102,0,0,,7,,,55,127
28987,note_on,1,0,0,,6,,,54,127
29089,note_off,102,0,0,,6,,,54,127
29090,note_on,1,0,0,,4,,,52,127
29192,note_off,102,0,0,,4,,,52,127
29192,note_off,0,0,0,,10,,,45,127
29193,note_on,1,0,0,,2,,,50,127
29193,note_on,0,0,0,,2,,,38,127
29398,note_off,205,0,0,,2,,,38,127
29398,note_off,0,0,0,,2,,,50,127
29399,note_on,1,0,0,,10,,,81,127
29399,note_on,0,0,0,,10,,,69,127
29399,note_on,0,0,0,,6,,,78,127
29399,note_on,0,0,0,,6,,,66,127
29604,note_off,205,0,0,,6,,,66,127
29605,note_on,1,0,0,,2,,,62,127
29810,note_off,205,0,0,,2,,,62,127
29810,note_off,0,0,0,,6,,,78,127
29810,note_off,0,0,0,,10,,,69,127
29810,note_off,0,0,0,,10,,,81,127
29811,note_on,1,0,0,,4,,,76,127
29811,note_on,0,0,0,,7,,,79,127
29811,note_on,0,0,0,,10,,,69,127
29811,note_on,0,0,0,,4,,,64,127
30016,note_off,205,0,0,,4,,,64,127
30017,note_on,1,0,0,,1,,,61,127
30222,note_off,205,0,0,,1,,,61,127
30223,note_on,1,0,0,,10,,,57,127
30428,note_off,205,0,0,,10,,,57,127
30428,note_off,0,0,0,,10,,,69,127
30428,note_off,0,0,0,,7,,,79,127
30428,note_off,0,0,0,,4,,,76,127
30429,note_on,1,0,0,,10,,,69,127
30429,note_on,0,0,0,,2,,,74,127
30429,note_on,0,0,0,,6,,,78,127
30429,note_on,0,0,0,,2,,,62,127
30634,note_off,205,0,0,,2,,,62,127
30634,note_off,0,0,0,,6,,,78,127
30634,note_off,0,0,0,,2,,,74,127
30635,note_on,1,0,0,,4,,,76,127
30635,note_on,0,0,0,,1,,,73,127
30635,note_on,0,0,0,,6,,,42,127
30840,note_off,205,0,0,,6,,,42,127
30840,note_off,0,0,0,,1,,,73,127
30840,note_off,0,0,0,,4,,,76,127
30841,note_on,1,0,0,,6,,,78,127
30841,note_on,0,0,0,,2,,,74,127
30841,note_on,0,0,0,,2,,,38,127
31046,note_off,205,0,0,,2,,,38,127
31046,note_off,0,0,0,,2,,,74,127
31046,note_off,0,0,0,,6,,,78,127
31046,note_off,0,0,0,,10,,,69,127
31047,note_on,1,0,0,,6,,,78,127
31047,note_on,0,0,0,,10,,,69,127
31047,note_on,0,0,0,,10,,,33,127
31097,note_off,50,0,0,,6,,,78,127
31098,note_on,1,0,0,,4,,,76,127
31148,note_off,50,0,0,,4,,,76,127
31149,note_on,1,0,0,,6,,,78,127
31199,note_off,50,0,0,,6,,,78,127
31200,note_on,1,0,0,,4,,,76,127
31250,note_off,50,0,0,,4,,,76,127
31251,note_on,1,0,0,,2,,,74,127
31456,note_off,205,0,0,,2,,,74,127
31457,note_on,1,0,0,,4,,,76,127
31662,note_off,205,0,0,,4,,,76,127
31662,note_off,0,0,0,,10,,,33,127
31662,note_off,0,0,0,,10,,,69,127
31663,note_on,1,0,0,,10,,,69,127
31663,note_on,0,0,0,,6,,,78,127
31663,note_on,0,0,0,,10,,,81,127
31869,note_on,206,0,0,,6,,,66,127
32074,note_off,205,0,0,,6,,,66,127
32075,note_on,1,0,0,,2,,,62,127
32280,note_off,205,0,0,,2,,,62,127
32280,note_off,0,0,0,,10,,,81,127
32280,note_off,0,0,0,,6,,,78,127
32280,note_off,0,0,0,,10,,,69,127
32281,note_on,1,0,0,,7,,,79,127
32281,note_on,0,0,0,,10,,,69,127
32281,note_on,0,0,0,,4,,,76,127
32281,note_on,0,0,0,,4,,,64,127
32486,note_off,205,0,0,,4,,,64,127
32487,note_on,1,0,0,,1,,,61,127
32692,note_off,205,0,0,,1,,,61,127
32693,note_on,1,0,0,,10,,,57,127
32898,note_off,205,0,0,,10,,,57,127
32898,note_off,0,0,0,,4,,,76,127
32898,note_off,0,0,0,,10,,,69,127
32898,note_off,0,0,0,,7,,,79,127
32899,note_on,1,0,0,,10,,,69,127
32899,note_on,0,0,0,,2,,,74,127
32899,note_on,0,0,0,,6,,,78,127
32899,note_on,0,0,0,,2,,,62,127
33104,note_off,205,0,0,,2,,,62,127
33104,note_off,0,0,0,,6,,,78,127
33104,note_off,0,0,0,,2,,,74,127
33105,note_on,1,0,0,,1,,,73,127
33105,note_on,0,0,0,,4,,,76,127
33105,note_on,0,0,0,,6,,,42,127
33310,note_off,205,0,0,,6,,,42,127
33310,note_off,0,0,0,,4,,,76,127
33310,note_off,0,0,0,,1,,,73,127
33311,note_on,1,0,0,,2,,,74,127
33311,note_on,0,0,0,,6,,,78,127
33311,note_on,0,0,0,,2,,,38,127
33516,note_off,205,0,0,,2,,,38,127
33516,note_off,0,0,0,,6,,,78,127
33516,note_off,0,0,0,,2,,,74,127
33516,note_off,0,0,0,,10,,,69,127
33517,note_on,1,0,0,,10,,,69,127
33517,note_on,0,0,0,,6,,,78,127
33517,note_on,0,0,0,,10,,,33,127
33567,note_off,50,0,0,,6,,,78,127
33568,note_on,1,0,0,,4,,,76,127
33618,note_off,50,0,0,,4,,,76,127
33619,note_on,1,0,0,,6,,,78,127
33669,note_off,50,0,0,,6,,,78,127
33670,note_on,1,0,0,,4,,,76,127
33720,note_off,50,0,0,,4,,,76,127
33721,note_on,1,0,0,,2,,,74,127
33926,note_off,205,0,0,,2,,,74,127
33927,note_on,1,0,0,,4,,,76,127
34132,note_off,205,0,0,,4,,,76,127
34132,note_off,0,0,0,,10,,,33,127
34132,note_off,0,0,0,,10,,,69,127
34133,note_on,1,0,0,,10,,,81,127
34133,note_on,0,0,0,,6,,,42,127
34235,note_off,102,0,0,,10,,,81,127
34236,note_on,1,0,0,,7,,,79,127
34338,note_off,102,0,0,,7,,,79,127
34339,note_on,1,0,0,,6,,,78,127
34441,note_off,102,0,0,,6,,,78,127
34442,note_on,1,0,0,,4,,,76,127
34544,note_off,102,0,0,,4,,,76,127
34545,note_on,1,0,0,,2,,,74,127
34647,note_off,102,0,0,,2,,,74,127
34648,note_on,1,0,0,,1,,,73,127
34750,note_off,102,0,0,,1,,,73,127
34750,note_off,0,0,0,,6,,,42,127
34751,note_on,1,0,0,,12,,,71,127
34751,note_on,0,0,0,,7,,,43,127
34853,note_off,102,0,0,,12,,,71,127
34854,note_on,1,0,0,,10,,,69,127
34956,note_off,102,0,0,,10,,,69,127
34957,note_on,1,0,0,,7,,,67,127
35059,note_off,102,0,0,,7,,,67,127
35060,note_on,1,0,0,,6,,,66,127
35162,note_off,102,0,0,,6,,,66,127
35163,note_on,1,0,0,,4,,,64,127
35265,note_off,102,0,0,,4,,,64,127
35266,note_on,1,0,0,,2,,,62,127
35368,note_off,102,0,0,,2,,,62,127
35368,note_off,0,0,0,,7,,,43,127
35369,note_on,1,0,0,,1,,,61,127
35369,note_on,0,0,0,,10,,,45,127
35471,note_off,102,0,0,,1,,,61,127
35472,note_on,1,0,0,,12,,,59,127
35574,note_off,102,0,0,,12,,,59,127
35575,note_on,1,0,0,,10,,,57,127
35677,note_off,102,0,0,,10,,,57,127
35678,note_on,1,0,0,,7,,,55,127
35780,note_off,102,0,0,,7,,,55,127
35781,note_on,1,0,0,,6,,,54,127
35883,note_off,102,0,0,,6,,,54,127
35884,note_on,1,0,0,,4,,,52,127
35986,note_off,102,0,0,,4,,,52,127
35986,note_off,0,0,0,,10,,,45,127
35987,note_on,1,0,0,,2,,,50,127
35987,note_on,0,0,0,,2,,,38,127
36192,note_off,205,0,0,,2,,,50,127
36193,note_on,1,0,0,,10,,,69,127
36398,note_off,205,0,0,,10,,,69,127
36399,note_on,1,0,0,,6,,,66,127
36399,note_on,0,0,0,,2,,,74,127
36604,note_off,205,0,0,,2,,,38,127
36605,note_on,1,0,0,,10,,,33,127
36605,note_on,0,0,0,,10,,,45,127
36810,note_off,205,0,0,,2,,,74,127
36810,note_off,0,0,0,,6,,,66,127
36811,note_on,1,0,0,,1,,,73,127
37016,note_off,205,0,0,,1,,,73,127
37017,note_on,1,0,0,,4,,,76,127
37222,note_off,205,0,0,,10,,,45,127
37222,note_off,0,0,0,,10,,,33,127
37223,note_on,1,0,0,,2,,,38,127
37428,note_off,205,0,0,,4,,,76,127
37429,note_on,1,0,0,,10,,,69,127
37634,note_off,205,0,0,,10,,,69,127
37635,note_on,1,0,0,,2,,,74,127
37840,note_off,205,0,0,,2,,,38,127
37841,note_on,1,0,0,,10,,,45,127
38046,note_off,205,0,0,,2,,,74,127
38047,note_on,1,0,0,,1,,,73,127
38252,note_off,205,0,0,,1,,,73,127
38253,note_on,1,0,0,,4,,,76,127
38458,note_off,205,0,0,,4,,,76,127
38458,note_off,0,0,0,,10,,,45,127
38459,note_on,1,0,0,,6,,,66,127
38459,note_on,0,0,0,,2,,,50,127
38459,note_on,0,0,0,,2,,,38,127
38664,note_off,205,0,0,,6,,,66,127
38665,note_on,1,0,0,,2,,,74,127
38870,note_off,205,0,0,,2,,,74,127
38870,note_off,0,0,0,,2,,,38,127
38870,note_off,0,0,0,,2,,,50,127
38871,note_on,1,0,0,,12,,,71,127
38871,note_on,0,0,0,,7,,,43,127
38871,note_on,0,0,0,,7,,,55,127
39076,note_off,205,0,0,,12,,,71,127
39077,note_on,1,0,0,,7,,,67,127
39282,note_off,205,0,0,,7,,,55,127
39282,note_off,0,0,0,,7,,,43,127
39283,note_on,1,0,0,,10,,,45,127
39283,note_on,0,0,0,,10,,,57,127
39488,note_off,205,0,0,,7,,,67,127
39489,note_on,1,0,0,,4,,,64,127
39694,note_off,205,0,0,,4,,,64,127
39694,note_off,0,0,0,,10,,,57,127
39694,note_off,0,0,0,,10,,,45,127
39695,note_on,1,0,0,,6,,,66,127
39695,note_on,0,0,0,,2,,,38,127
39695,note_on,0,0,0,,2,,,50,127
39900,note_off,205,0,0,,6,,,66,127
39901,note_on,1,0,0,,2,,,62,127
40106,note_off,205,0,0,,2,,,50,127
40106,note_off,0,0,0,,2,,,38,127
40107,note_on,1,0,0,,7,,,31,127
40107,note_on,0,0,0,,7,,,43,127
40312,note_off,205,0,0,,2,,,62,127
40313,note_on,1,0,0,,12,,,59,127
40518,note_off,205,0,0,,7,,,43,127
40518,note_off,0,0,0,,7,,,31,127
40519,note_on,1,0,0,,10,,,33,127
40519,note_on,0,0,0,,10,,,45,127
40724,note_off,205,0,0,,12,,,59,127
40725,note_on,1,0,0,,2,,,62,127
40775,note_off,50,0,0,,2,,,62,127
40776,note_on,1,0,0,,1,,,61,127
40826,note_off,50,0,0,,1,,,61,127
40827,note_on,1,0,0,,12,,,59,127
40877,note_off,50,0,0,,12,,,59,127
40878,note_on,1,0,0,,1,,,61,127
40882,note_off,4,0,0,,10,,,45,127
40882,note_off,0,0,0,,10,,,33,127
40928,note_off,46,0,0,,1,,,61,127
40929,note_on,1,0,0,,2,,,62,127
40929,note_on,0,0,0,,2,,,50,127
40929,note_on,0,0,0,,2,,,38,127
41134,note_off,205,0,0,,2,,,62,127
41135,note_on,1,0,0,,2,,,74,127
41340,note_off,205,0,0,,2,,,74,127
41340,note_off,0,0,0,,2,,,38,127
41340,note_off,0,0,0,,2,,,50,127
41341,note_on,1,0,0,,12,,,71,127
41341,note_on,0,0,0,,7,,,55,127
41341,note_on,0,0,0,,7,,,43,127
41546,note_off,205,0,0,,12,,,71,127
41547,note_on,1,0,0,,7,,,67,127
41752,note_off,205,0,0,,7,,,43,127
41752,note_off,0,0,0,,7,,,55,127
41753,note_on,1,0,0,,10,,,57,127
41753,note_on,0,0,0,,10,,,45,127
41958,note_off,205,0,0,,7,,,67,127
41959,note_on,1,0,0,,4,,,64,127
42164,note_off,205,0,0,,4,,,64,127
42164,note_off,0,0,0,,10,,,45,127
42164,note_off,0,0,0,,10,,,57,127
42165,note_on,1,0,0,,6,,,66,127
42165,note_on,0,0,0,,2,,,50,127
42165,note_on,0,0,0,,2,,,38,127
42370,note_off,205,0,0,,6,,,66,127
42371,note_on,1,0,0,,2,,,62,127
42576,note_off,205,0,0,,2,,,38,127
42576,note_off,0,0,0,,2,,,50,127
42577,note_on,1,0,0,,7,,,31,127
42577,note_on,0,0,0,,7,,,43,127
42782,note_off,205,0,0,,2,,,62,127
42783,note_on,1,0,0,,12,,,59,127
42988,note_off,205,0,0,,7,,,43,127
42988,note_off,0,0,0,,7,,,31,127
42989,note_on,1,0,0,,10,,,33,127
42989,note_on,0,0,0,,10,,,45,127
43194,note_off,205,0,0,,12,,,59,127
43195,note_on,1,0,0,,2,,,62,127
43245,note_off,50,0,0,,2,,,62,127
43246,note_on,1,0,0,,1,,,61,127
43296,note_off,50,0,0,,1,,,61,127
43297,note_on,1,0,0,,12,,,59,127
43347,note_off,50,0,0,,12,,,59,127
43348,note_on,1,0,0,,1,,,61,127
43398,note_off,50,0,0,,1,,,61,127
43398,note_off,0,0,0,,10,,,45,127
43398,note_off,0,0,0,,10,,,33,127
43399,note_on,1,0,0,,2,,,62,127
43399,note_on,0,0,0,,2,,,38,127
43806,note_off,407,0,0,,2,,,62,127
44015,note_off,209,0,0,,2,,,38,127
44016,note_on,1,0,0,,2,,,50,127
44222,note_on,206,0,0,,10,,,69,127
44427,note_off,205,0,0,,10,,,69,127
44428,note_on,1,0,0,,10,,,69,127
44633,note_off,205,0,0,,10,,,69,127
44634,note_on,1,0,0,,12,,,71,127
44839,note_off,205,0,0,,12,,,71,127
44840,note_on,1,0,0,,2,,,74,127
44890,note_off,50,0,0,,2,,,74,127
44891,note_on,1,0,0,,0,,,72,127
44941,note_off,50,0,0,,0,,,72,127
44942,note_on,1,0,0,,12,,,71,127
44992,note_off,50,0,0,,12,,,71,127
44993,note_on,1,0,0,,0,,,72,127
45043,note_off,50,0,0,,0,,,72,127
45044,note_on,1,0,0,,2,,,74,127
45249,note_off,205,0,0,,2,,,74,127
45249,note_off,0,0,0,,2,,,50,127
45250,note_on,1,0,0,,10,,,69,127
45250,note_on,0,0,0,,2,,,50,127
45456,note_on,206,0,0,,10,,,57,127
45661,note_off,205,0,0,,10,,,57,127
45662,note_on,1,0,0,,10,,,57,127
45867,note_off,205,0,0,,10,,,57,127
45867,note_off,0,0,0,,10,,,69,127
45868,note_on,1,0,0,,2,,,74,127
45868,note_on,0,0,0,,12,,,59,127
46073,note_off,205,0,0,,12,,,59,127
46074,note_on,1,0,0,,0,,,60,127
46279,note_off,205,0,0,,0,,,60,127
46279,note_off,0,0,0,,2,,,74,127
46280,note_on,1,0,0,,7,,,67,127
46280,note_on,0,0,0,,2,,,62,127
46484,note_off,204,0,0,,2,,,50,127
46485,note_off,1,0,0,,2,,,62,127
46485,note_off,0,0,0,,7,,,67,127
46486,note_on,1,0,0,,6,,,66,127
46486,note_on,0,0,0,,10,,,57,127
46486,note_on,0,0,0,,2,,,50,127
46691,note_off,205,0,0,,6,,,66,127
46692,note_on,1,0,0,,2,,,74,127
46897,note_off,205,0,0,,2,,,74,127
46898,note_on,1,0,0,,0,,,72,127
47103,note_off,205,0,0,,0,,,72,127
47103,note_off,0,0,0,,2,,,50,127
47103,note_off,0,0,0,,10,,,57,127
47104,note_on,1,0,0,,0,,,72,127
47104,note_on,0,0,0,,2,,,74,127
47104,note_on,0,0,0,,2,,,62,127
47104,note_on,0,0,0,,5,,,53,127
47309,note_off,205,0,0,,2,,,74,127
47309,note_off,0,0,0,,0,,,72,127
47310,note_on,1,0,0,,12,,,71,127
47515,note_off,205,0,0,,12,,,71,127
47516,note_on,1,0,0,,10,,,69,127
47721,note_off,205,0,0,,10,,,69,127
47721,note_off,0,0,0,,5,,,53,127
47721,note_off,0,0,0,,2,,,62,127
47722,note_on,1,0,0,,8,,,68,127
47722,note_on,0,0,0,,2,,,62,127
47722,note_on,0,0,0,,4,,,52,127
47927,note_off,205,0,0,,8,,,68,127
47928,note_on,1,0,0,,12,,,71,127
48133,note_off,205,0,0,,12,,,71,127
48134,note_on,1,0,0,,12,,,71,127
48339,note_off,205,0,0,,12,,,71,127
48339,note_off,0,0,0,,4,,,52,127
48339,note_off,0,0,0,,2,,,62,127
48340,note_on,1,0,0,,0,,,72,127
48340,note_on,0,0,0,,0,,,60,127
48340,note_on,0,0,0,,4,,,52,127
48545,note_off,205,0,0,,0,,,72,127
48546,note_on,1,0,0,,4,,,76,127
48596,note_off,50,0,0,,4,,,76,127
48597,note_on,1,0,0,,2,,,74,127
48647,note_off,50,0,0,,2,,,74,127
48648,note_on,1,0,0,,0,,,72,127
48698,note_off,50,0,0,,0,,,72,127
48699,note_on,1,0,0,,2,,,74,127
48749,note_off,50,0,0,,2,,,74,127
48750,note_on,1,0,0,,4,,,76,127
48955,note_off,205,0,0,,4,,,76,127
48955,note_off,0,0,0,,4,,,52,127
48955,note_off,0,0,0,,0,,,60,127
48956,note_on,1,0,0,,12,,,71,127
48956,note_on,0,0,0,,4,,,52,127
49162,note_on,206,0,0,,12,,,59,127
49367,note_off,205,0,0,,12,,,59,127
49368,note_on,1,0,0,,12,,,59,127
49573,note_off,205,0,0,,12,,,59,127
49573,note_off,0,0,0,,12,,,71,127
49574,note_on,1,0,0,,4,,,76,127
49574,note_on,0,0,0,,0,,,60,127
49779,note_off,205,0,0,,0,,,60,127
49780,note_on,1,0,0,,2,,,62,127
49985,note_off,205,0,0,,2,,,62,127
49985,note_off,0,0,0,,4,,,76,127
49986,note_on,1,0,0,,10,,,69,127
49986,note_on,0,0,0,,4,,,64,127
50190,note_off,204,0,0,,4,,,52,127
50191,note_off,1,0,0,,4,,,64,127
50191,note_off,0,0,0,,10,,,69,127
50192,note_on,1,0,0,,8,,,68,127
50192,note_on,0,0,0,,12,,,59,127
50192,note_on,0,0,0,,4,,,52,127
50397,note_off,205,0,0,,8,,,68,127
50398,note_on,1,0,0,,4,,,76,127
50603,note_off,205,0,0,,4,,,76,127
50604,note_on,1,0,0,,4,,,76,127
50809,note_off,205,0,0,,4,,,76,127
50809,note_off,0,0,0,,4,,,52,127
50809,note_off,0,0,0,,12,,,59,127
50810,note_on,1,0,0,,4,,,76,127
50810,note_on,0,0,0,,10,,,81,127
50810,note_on,0,0,0,,5,,,53,127
51015,note_off,205,0,0,,4,,,76,127
51016,note_on,1,0,0,,2,,,74,127
51217,note_off,201,0,0,,10,,,81,127
51220,note_off,3,0,0,,2,,,74,127
51221,note_on,1,0,0,,10,,,81,127
51221,note_on,0,0,0,,0,,,72,127
51426,note_off,205,0,0,,0,,,72,127
51426,note_off,0,0,0,,5,,,53,127
51427,note_on,1,0,0,,12,,,71,127
51427,note_on,0,0,0,,7,,,55,127
51427,note_on,0,0,0,,7,,,43,127
51628,note_off,201,0,0,,10,,,81,127
51632,note_on,4,0,0,,7,,,79,127
51837,note_off,205,0,0,,7,,,79,127
51838,note_on,1,0,0,,5,,,77,127
52043,note_off,205,0,0,,5,,,77,127
52043,note_off,0,0,0,,7,,,43,127
52043,note_off,0,0,0,,7,,,55,127
52043,note_off,0,0,0,,12,,,71,127
52044,note_on,1,0,0,,2,,,74,127
52044,note_on,0,0,0,,5,,,77,127
52044,note_on,0,0,0,,7,,,55,127
52044,note_on,0,0,0,,7,,,43,127
52249,note_off,205,0,0,,5,,,77,127
52249,note_off,0,0,0,,2,,,74,127
52250,note_on,1,0,0,,0,,,72,127
52250,note_on,0,0,0,,4,,,76,127
52455,note_off,205,0,0,,4,,,76,127
52455,note_off,0,0,0,,0,,,72,127
52456,note_on,1,0,0,,12,,,71,127
52456,note_on,0,0,0,,2,,,74,127
52661,note_off,205,0,0,,2,,,74,127
52661,note_off,0,0,0,,12,,,71,127
52661,note_off,0,0,0,,7,,,43,127
52661,note_off,0,0,0,,7,,,55,127
52662,note_on,1,0,0,,4,,,76,127
52662,note_on,0,0,0,,0,,,72,127
52662,note_on,0,0,0,,0,,,48,127
52662,note_on,0,0,0,,0,,,36,127
52867,note_off,205,0,0,,0,,,72,127
52867,note_off,0,0,0,,4,,,76,127
52868,note_on,1,0,0,,4,,,76,127
52868,note_on,0,0,0,,0,,,84,127
53073,note_off,205,0,0,,0,,,84,127
53073,note_off,0,0,0,,4,,,76,127
53074,note_on,1,0,0,,2,,,74,127
53074,note_on,0,0,0,,12,,,83,127
53279,note_off,205,0,0,,12,,,83,127
53279,note_off,0,0,0,,2,,,74,127
53279,note_off,0,0,0,,0,,,36,127
53279,note_off,0,0,0,,0,,,48,127
53280,note_on,1,0,0,,2,,,74,127
53280,note_on,0,0,0,,12,,,83,127
53280,note_on,0,0,0,,0,,,36,127
53280,note_on,0,0,0,,0,,,48,127
53485,note_off,205,0,0,,12,,,83,127
53485,note_off,0,0,0,,2,,,74,127
53486,note_on,1,0,0,,0,,,72,127
53486,note_on,0,0,0,,10,,,81,127
53691,note_off,205,0,0,,10,,,81,127
53691,note_off,0,0,0,,0,,,72,127
53692,note_on,1,0,0,,12,,,71,127
53692,note_on,0,0,0,,7,,,79,127
53897,note_off,205,0,0,,7,,,79,127
53897,note_off,0,0,0,,12,,,71,127
53897,note_off,0,0,0,,0,,,48,127
53897,note_off,0,0,0,,0,,,36,127
53898,note_on,1,0,0,,12,,,71,127
53898,note_on,0,0,0,,7,,,79,127
53898,note_on,0,0,0,,2,,,38,127
53898,note_on,0,0,0,,2,,,50,127
54103,note_off,205,0,0,,7,,,79,127
54103,note_off,0,0,0,,12,,,71,127
54104,note_on,1,0,0,,10,,,69,127
54104,note_on,0,0,0,,6,,,78,127
54309,note_off,205,0,0,,6,,,78,127
54309,note_off,0,0,0,,10,,,69,127
54310,note_on,1,0,0,,7,,,67,127
54310,note_on,0,0,0,,4,,,76,127
54515,note_off,205,0,0,,4,,,76,127
54515,note_off,0,0,0,,7,,,67,127
54515,note_off,0,0,0,,2,,,50,127
54515,note_off,0,0,0,,2,,,38,127
54516,note_on,1,0,0,,7,,,67,127
54516,note_on,0,0,0,,4,,,76,127
54516,note_on,0,0,0,,2,,,38,127
54516,note_on,0,0,0,,2,,,50,127
54721,note_off,205,0,0,,4,,,76,127
54721,note_off,0,0,0,,7,,,67,127
54722,note_on,1,0,0,,6,,,66,127
54722,note_on,0,0,0,,2,,,74,127
54927,note_off,205,0,0,,2,,,74,127
54927,note_off,0,0,0,,6,,,66,127
54928,note_on,1,0,0,,0,,,72,127
54928,note_on,0,0,0,,4,,,64,127
55133,note_off,205,0,0,,4,,,64,127
55133,note_off,0,0,0,,0,,,72,127
55133,note_off,0,0,0,,2,,,50,127
55133,note_off,0,0,0,,2,,,38,127
55134,note_on,1,0,0,,4,,,64,127
55134,note_on,0,0,0,,0,,,72,127
55134,note_on,0,0,0,,2,,,38,127
55134,note_on,0,0,0,,2,,,50,127
55339,note_off,205,0,0,,0,,,72,127
55339,note_off,0,0,0,,4,,,64,127
55340,note_on,1,0,0,,2,,,62,127
55340,note_on,0,0,0,,12,,,71,127
55545,note_off,205,0,0,,12,,,71,127
55545,note_off,0,0,0,,2,,,62,127
55546,note_on,1,0,0,,10,,,69,127
55546,note_on,0,0,0,,0,,,60,127
55751,note_off,205,0,0,,0,,,60,127
55751,note_off,0,0,0,,10,,,69,127
55751,note_off,0,0,0,,2,,,50,127
55751,note_off,0,0,0,,2,,,38,127
55752,note_on,1,0,0,,7,,,67,127
55752,note_on,0,0,0,,12,,,59,127
55752,note_on,0,0,0,,2,,,50,127
55752,note_on,0,0,0,,2,,,38,127
55957,note_off,205,0,0,,12,,,59,127
55957,note_off,0,0,0,,7,,,67,127
55958,note_on,1,0,0,,10,,,57,127
55958,note_on,0,0,0,,6,,,66,127
56163,note_off,205,0,0,,6,,,66,127
56163,note_off,0,0,0,,10,,,57,127
56164,note_on,1,0,0,,7,,,67,127
56164,note_on,0,0,0,,7,,,55,127
56369,note_off,205,0,0,,7,,,55,127
56369,note_off,0,0,0,,7,,,67,127
56369,note_off,0,0,0,,2,,,38,127
56369,note_off,0,0,0,,2,,,50,127
56370,note_on,1,0,0,,12,,,71,127
56370,note_on,0,0,0,,2,,,50,127
56370,note_on,0,0,0,,2,,,38,127
56420,note_off,50,0,0,,12,,,71,127
56421,note_on,1,0,0,,10,,,69,127
56471,note_off,50,0,0,,10,,,69,127
56472,note_on,1,0,0,,12,,,71,127
56522,note_off,50,0,0,,12,,,71,127
56523,note_on,1,0,0,,10,,,69,127
57190,note_off,667,0,0,,2,,,38,127
57190,note_off,0,0,0,,2,,,50,127
57263,note_off,73,0,0,,10,,,69,127
57603,note_on,340,0,0,,11,,,70,127
57603,note_on,0,0,0,,5,,,77,127
57603,note_on,0,0,0,,2,,,74,127
57808,note_off,205,0,0,,11,,,70,127
57809,note_on,1,0,0,,11,,,70,127
58014,note_off,205,0,0,,11,,,70,127
58015,note_on,1,0,0,,11,,,70,127
58220,note_off,205,0,0,,11,,,70,127
58220,note_off,0,0,0,,2,,,74,127
58220,note_off,0,0,0,,5,,,77,127
58221,note_on,1,0,0,,10,,,69,127
58221,note_on,0,0,0,,5,,,77,127
58221,note_on,0,0,0,,0,,,72,127
58426,note_off,205,0,0,,10,,,69,127
58427,note_on,1,0,0,,10,,,69,127
58632,note_off,205,0,0,,10,,,69,127
58633,note_on,1,0,0,,10,,,69,127
58838,note_off,205,0,0,,10,,,69,127
58838,note_off,0,0,0,,0,,,72,127
58838,note_off,0,0,0,,5,,,77,127
58839,note_on,1,0,0,,7,,,67,127
58839,note_on,0,0,0,,0,,,72,127
58839,note_on,0,0,0,,7,,,79,127
58839,note_on,0,0,0,,3,,,75,127
59044,note_off,205,0,0,,7,,,67,127
59045,note_on,1,0,0,,7,,,67,127
59250,note_off,205,0,0,,7,,,67,127
59251,note_on,1,0,0,,7,,,67,127
59456,note_off,205,0,0,,7,,,67,127
59456,note_off,0,0,0,,3,,,75,127
59456,note_off,0,0,0,,7,,,79,127
59456,note_off,0,0,0,,0,,,72,127
59457,note_on,1,0,0,,6,,,66,127
59457,note_on,0,0,0,,10,,,81,127
59457,note_on,0,0,0,,0,,,72,127
59457,note_on,0,0,0,,2,,,74,127
59662,note_off,205,0,0,,6,,,66,127
59663,note_on,1,0,0,,6,,,66,127
59868,note_off,205,0,0,,6,,,66,127
59869,note_on,1,0,0,,6,,,66,127
60074,note_off,205,0,0,,6,,,66,127
60074,note_off,0,0,0,,2,,,74,127
60074,note_off,0,0,0,,0,,,72,127
60074,note_off,0,0,0,,10,,,81,127
60075,note_on,1,0,0,,11,,,70,127
60075,note_on,0,0,0,,7,,,67,127
60075,note_on,0,0,0,,2,,,74,127
60075,note_on,0,0,0,,11,,,82,127
60280,note_off,205,0,0,,11,,,82,127
60280,note_off,0,0,0,,7,,,67,127
60281,note_on,1,0,0,,7,,,67,127
60281,note_on,0,0,0,,10,,,81,127
60486,note_off,205,0,0,,10,,,81,127
60486,note_off,0,0,0,,7,,,67,127
60487,note_on,1,0,0,,7,,,67,127
60487,note_on,0,0,0,,11,,,82,127
60692,note_off,205,0,0,,11,,,82,127
60692,note_off,0,0,0,,7,,,67,127
60692,note_off,0,0,0,,2,,,74,127
60692,note_off,0,0,0,,11,,,70,127
60693,note_on,1,0,0,,0,,,60,127
60693,note_on,0,0,0,,10,,,69,127
60693,note_on,0,0,0,,11,,,82,127
60693,note_on,0,0,0,,3,,,75,127
60693,note_on,0,0,0,,10,,,81,127
60898,note_off,205,0,0,,10,,,81,127
60898,note_off,0,0,0,,11,,,82,127
60898,note_off,0,0,0,,0,,,60,127
60899,note_on,1,0,0,,0,,,60,127
60899,note_on,0,0,0,,7,,,79,127
61100,note_off,201,0,0,,3,,,75,127
61103,note_off,3,0,0,,7,,,79,127
61103,note_off,0,0,0,,0,,,60,127
61104,note_on,1,0,0,,2,,,62,127
61104,note_on,0,0,0,,2,,,74,127
61104,note_on,0,0,0,,10,,,81,127
61309,note_off,205,0,0,,10,,,81,127
61309,note_off,0,0,0,,2,,,74,127
61309,note_off,0,0,0,,2,,,62,127
61309,note_off,0,0,0,,10,,,69,127
61310,note_on,1,0,0,,3,,,63,127
61310,note_on,0,0,0,,7,,,67,127
61310,note_on,0,0,0,,0,,,72,127
61310,note_on,0,0,0,,10,,,81,127
61310,note_on,0,0,0,,7,,,79,127
61515,note_off,205,0,0,,7,,,79,127
61515,note_off,0,0,0,,10,,,81,127
61515,note_off,0,0,0,,3,,,63,127
61516,note_on,1,0,0,,3,,,63,127
61516,note_on,0,0,0,,6,,,78,127
61717,note_off,201,0,0,,0,,,72,127
61720,note_off,3,0,0,,6,,,78,127
61720,note_off,0,0,0,,3,,,63,127
61721,note_on,1,0,0,,3,,,63,127
61721,note_on,0,0,0,,7,,,79,127
61926,note_off,205,0,0,,7,,,79,127
61926,note_off,0,0,0,,3,,,63,127
61926,note_off,0,0,0,,7,,,67,127
61927,note_on,1,0,0,,2,,,62,127
61927,note_on,0,0,0,,10,,,81,127
61977,note_off,50,0,0,,10,,,81,127
61978,note_on,1,0,0,,7,,,79,127
62028,note_off,50,0,0,,7,,,79,127
62029,note_on,1,0,0,,10,,,81,127
62079,note_off,50,0,0,,10,,,81,127
62080,note_on,1,0,0,,7,,,79,127
62130,note_off,50,0,0,,2,,,62,127
62131,note_on,1,0,0,,2,,,50,127
62233,note_off,102,0,0,,7,,,79,127
62234,note_on,1,0,0,,6,,,78,127
62284,note_off,50,0,0,,6,,,78,127
62285,note_on,1,0,0,,4,,,76,127
62335,note_off,50,0,0,,4,,,76,127
62336,note_on,1,0,0,,2,,,74,127
62529,note_off,193,0,0,,2,,,74,127
62541,note_off,12,0,0,,2,,,50,127
62542,note_on,1,0,0,,11,,,70,127
62542,note_on,0,0,0,,2,,,74,127
62542,note_on,0,0,0,,5,,,77,127
62747,note_off,205,0,0,,11,,,70,127
62748,note_on,1,0,0,,11,,,70,127
62953,note_off,205,0,0,,11,,,70,127
62954,note_on,1,0,0,,11,,,70,127
63159,note_off,205,0,0,,11,,,70,127
63159,note_off,0,0,0,,5,,,77,127
63159,note_off,0,0,0,,2,,,74,127
63160,note_on,1,0,0,,10,,,69,127
63160,note_on,0,0,0,,0,,,72,127
63160,note_on,0,0,0,,5,,,77,127
63365,note_off,205,0,0,,10,,,69,127
63366,note_on,1,0,0,,10,,,69,127
63571,note_off,205,0,0,,10,,,69,127
63572,note_on,1,0,0,,10,,,69,127
63777,note_off,205,0,0,,10,,,69,127
63777,note_off,0,0,0,,5,,,77,127
63777,note_off,0,0,0,,0,,,72,127
63778,note_on,1,0,0,,7,,,67,127
63778,note_on,0,0,0,,7,,,79,127
63778,note_on,0,0,0,,3,,,75,127
63778,note_on,0,0,0,,0,,,72,127
63983,note_off,205,0,0,,7,,,67,127
63984,note_on,1,0,0,,7,,,67,127
64189,note_off,205,0,0,,7,,,67,127
64190,note_on,1,0,0,,7,,,67,127
64395,note_off,205,0,0,,7,,,67,127
64395,note_off,0,0,0,,0,,,72,127
64395,note_off,0,0,0,,3,,,75,127
64395,note_off,0,0,0,,7,,,79,127
64396,note_on,1,0,0,,6,,,66,127
64396,note_on,0,0,0,,10,,,81,127
64396,note_on,0,0,0,,0,,,72,127
64396,note_on,0,0,0,,2,,,74,127
64601,note_off,205,0,0,,6,,,66,127
64602,note_on,1,0,0,,6,,,66,127
64807,note_off,205,0,0,,6,,,66,127
64808,note_on,1,0,0,,6,,,66,127
65013,note_off,205,0,0,,6,,,66,127
65013,note_off,0,0,0,,2,,,74,127
65013,note_off,0,0,0,,0,,,72,127
65013,note_off,0,0,0,,10,,,81,127
65014,note_on,1,0,0,,7,,,67,127
65014,note_on,0,0,0,,11,,,70,127
65014,note_on,0,0,0,,2,,,74,127
65014,note_on,0,0,0,,11,,,82,127
65219,note_off,205,0,0,,11,,,82,127
65219,note_off,0,0,0,,7,,,67,127
65220,note_on,1,0,0,,7,,,67,127
65220,note_on,0,0,0,,10,,,81,127
65421,note_off,201,0,0,,11,,,70,127
65424,note_off,3,0,0,,10,,,81,127
65424,note_off,0,0,0,,7,,,67,127
65425,note_on,1,0,0,,7,,,67,127
65425,note_on,0,0,0,,11,,,82,127
65630,note_off,205,0,0,,11,,,82,127
65630,note_off,0,0,0,,7,,,67,127
65630,note_off,0,0,0,,2,,,74,127
65631,note_on,1,0,0,,10,,,69,127
65631,note_on,0,0,0,,0,,,60,127
65631,note_on,0,0,0,,10,,,81,127
65631,note_on,0,0,0,,3,,,75,127
65631,note_on,0,0,0,,11,,,82,127
65836,note_off,205,0,0,,11,,,82,127
65836,note_off,0,0,0,,10,,,81,127
65836,note_off,0,0,0,,0,,,60,127
65837,note_on,1,0,0,,0,,,60,127
65837,note_on,0,0,0,,7,,,79,127
66038,note_off,201,0,0,,3,,,75,127
66038,note_off,0,0,0,,10,,,69,127
66041,note_off,3,0,0,,7,,,79,127
66041,note_off,0,0,0,,0,,,60,127
66042,note_on,1,0,0,,2,,,62,127
66042,note_on,0,0,0,,10,,,81,127
66042,note_on,0,0,0,,2,,,74,127
66247,note_off,205,0,0,,2,,,74,127
66247,note_off,0,0,0,,10,,,81,127
66247,note_off,0,0,0,,2,,,62,127
66248,note_on,1,0,0,,3,,,63,127
66248,note_on,0,0,0,,7,,,67,127
66248,note_on,0,0,0,,10,,,81,127
66248,note_on,0,0,0,,0,,,72,127
66248,note_on,0,0,0,,7,,,79,127
66453,note_off,205,0,0,,7,,,79,127
66453,note_off,0,0,0,,10,,,81,127
66453,note_off,0,0,0,,3,,,63,127
66454,note_on,1,0,0,,3,,,63,127
66454,note_on,0,0,0,,6,,,78,127
66655,note_off,201,0,0,,7,,,67,127
66658,note_off,3,0,0,,6,,,78,127
66658,note_off,0,0,0,,3,,,63,127
66659,note_on,1,0,0,,3,,,63,127
66659,note_on,0,0,0,,7,,,79,127
66864,note_off,205,0,0,,7,,,79,127
66864,note_off,0,0,0,,3,,,63,127
66864,note_off,0,0,0,,0,,,72,127
66865,note_on,1,0,0,,2,,,62,127
66865,note_on,0,0,0,,10,,,81,127
66915,note_off,50,0,0,,10,,,81,127
66916,note_on,1,0,0,,7,,,79,127
66966,note_off,50,0,0,,7,,,79,127
66967,note_on,1,0,0,,10,,,81,127
67017,note_off,50,0,0,,10,,,81,127
67018,note_on,1,0,0,,7,,,79,127
67068,note_off,50,0,0,,7,,,79,127
67068,note_off,0,0,0,,2,,,62,127
67069,note_on,1,0,0,,10,,,81,127
67069,note_on,0,0,0,,2,,,50,127
67119,note_off,50,0,0,,10,,,81,127
67120,note_on,1,0,0,,7,,,79,127
67170,note_off,50,0,0,,7,,,79,127
67171,note_on,1,0,0,,6,,,78,127
67221,note_off,50,0,0,,6,,,78,127
67222,note_on,1,0,0,,4,,,76,127
67272,note_off,50,0,0,,4,,,76,127
67273,note_on,1,0,0,,2,,,74,127
67427,note_off,154,0,0,,2,,,74,127
67474,note_off,47,0,0,,2,,,50,127
67478,note_on,4,0,0,,2,,,74,127
67478,note_on,0,0,0,,12,,,83,127
67478,note_on,0,0,0,,2,,,86,127
67684,note_on,206,0,0,,12,,,71,127
67889,note_off,205,0,0,,12,,,71,127
67890,note_on,1,0,0,,7,,,67,127
68095,note_off,205,0,0,,7,,,67,127
68095,note_off,0,0,0,,2,,,86,127
68095,note_off,0,0,0,,12,,,83,127
68095,note_off,0,0,0,,2,,,74,127
68096,note_on,1,0,0,,10,,,69,127
68096,note_on,0,0,0,,10,,,81,127
68096,note_on,0,0,0,,2,,,74,127
68096,note_on,0,0,0,,0,,,84,127
68301,note_off,205,0,0,,10,,,69,127
68302,note_on,1,0,0,,6,,,66,127
68507,note_off,205,0,0,,6,,,66,127
68508,note_on,1,0,0,,2,,,62,127
68713,note_off,205,0,0,,2,,,62,127
68713,note_off,0,0,0,,0,,,84,127
68713,note_off,0,0,0,,2,,,74,127
68713,note_off,0,0,0,,10,,,81,127
68714,note_on,1,0,0,,7,,,67,127
68714,note_on,0,0,0,,12,,,83,127
68714,note_on,0,0,0,,7,,,79,127
68714,note_on,0,0,0,,2,,,74,127
68919,note_off,205,0,0,,7,,,79,127
68919,note_off,0,0,0,,12,,,83,127
68919,note_off,0,0,0,,7,,,67,127
68920,note_on,1,0,0,,12,,,47,127
68920,note_on,0,0,0,,6,,,78,127
68920,note_on,0,0,0,,10,,,81,127
69125,note_off,205,0,0,,10,,,81,127
69125,note_off,0,0,0,,6,,,78,127
69125,note_off,0,0,0,,12,,,47,127
69126,note_on,1,0,0,,7,,,43,127
69126,note_on,0,0,0,,12,,,83,127
69126,note_on,0,0,0,,7,,,79,127
69331,note_off,205,0,0,,7,,,79,127
69331,note_off,0,0,0,,12,,,83,127
69331,note_off,0,0,0,,7,,,43,127
69331,note_off,0,0,0,,2,,,74,127
69332,note_on,1,0,0,,2,,,38,127
69332,note_on,0,0,0,,12,,,83,127
69332,note_on,0,0,0,,2,,,74,127
69382,note_off,50,0,0,,12,,,83,127
69383,note_on,1,0,0,,10,,,81,127
69433,note_off,50,0,0,,10,,,81,127
69434,note_on,1,0,0,,12,,,83,127
69484,note_off,50,0,0,,12,,,83,127
69485,note_on,1,0,0,,10,,,81,127
69535,note_off,50,0,0,,10,,,81,127
69536,note_on,1,0,0,,7,,,79,127
69741,note_off,205,0,0,,7,,,79,127
69742,note_on,1,0,0,,10,,,81,127
69947,note_off,205,0,0,,10,,,81,127
69947,note_off,0,0,0,,2,,,74,127
69947,note_off,0,0,0,,2,,,38,127
69948,note_on,1,0,0,,12,,,83,127
69948,note_on,0,0,0,,2,,,74,127
69948,note_on,0,0,0,,2,,,86,127
70154,note_on,206,0,0,,12,,,71,127
70359,note_off,205,0,0,,12,,,71,127
70360,note_on,1,0,0,,7,,,67,127
70527,note_off,167,0,0,,2,,,74,127
70564,note_off,37,0,0,,7,,,67,127
70564,note_off,0,0,0,,2,,,86,127
70564,note_off,0,0,0,,12,,,83,127
70565,note_on,1,0,0,,10,,,69,127
70565,note_on,0,0,0,,0,,,84,127
70565,note_on,0,0,0,,10,,,81,127
70565,note_on,0,0,0,,2,,,74,127
70770,note_off,205,0,0,,10,,,69,127
70771,note_on,1,0,0,,6,,,66,127
70976,note_off,205,0,0,,6,,,66,127
70977,note_on,1,0,0,,2,,,62,127
71144,note_off,167,0,0,,2,,,74,127
71181,note_off,37,0,0,,2,,,62,127
71181,note_off,0,0,0,,10,,,81,127
71181,note_off,0,0,0,,0,,,84,127
71182,note_on,1,0,0,,7,,,67,127
71182,note_on,0,0,0,,12,,,83,127
71182,note_on,0,0,0,,2,,,74,127
71182,note_on,0,0,0,,7,,,79,127
71387,note_off,205,0,0,,7,,,79,127
71387,note_off,0,0,0,,12,,,83,127
71387,note_off,0,0,0,,7,,,67,127
71388,note_on,1,0,0,,12,,,47,127
71388,note_on,0,0,0,,6,,,78,127
71388,note_on,0,0,0,,10,,,81,127
71593,note_off,205,0,0,,10,,,81,127
71593,note_off,0,0,0,,6,,,78,127
71593,note_off,0,0,0,,12,,,47,127
71594,note_on,1,0,0,,7,,,43,127
71594,note_on,0,0,0,,12,,,83,127
71594,note_on,0,0,0,,7,,,79,127
71761,note_off,167,0,0,,2,,,74,127
71798,note_off,37,0,0,,7,,,79,127
71798,note_off,0,0,0,,12,,,83,127
71798,note_off,0,0,0,,7,,,43,127
71799,note_on,1,0,0,,2,,,38,127
71799,note_on,0,0,0,,2,,,74,127
71799,note_on,0,0,0,,12,,,83,127
71849,note_off,50,0,0,,12,,,83,127
71850,note_on,1,0,0,,10,,,81,127
71900,note_off,50,0,0,,10,,,81,127
71901,note_on,1,0,0,,12,,,83,127
71951,note_off,50,0,0,,12,,,83,127
71952,note_on,1,0,0,,10,,,81,127
72002,note_off,50,0,0,,10,,,81,127
72003,note_on,1,0,0,,7,,,79,127
72208,note_off,205,0,0,,7,,,79,127
72209,note_on,1,0,0,,10,,,81,127
72320,note_off,111,0,0,,2,,,74,127
72413,note_off,93,0,0,,10,,,81,127
72413,note_off,0,0,0,,2,,,38,127
72414,note_on,1,0,0,,12,,,47,127
72414,note_on,0,0,0,,2,,,86,127
72516,note_off,102,0,0,,2,,,86,127
72517,note_on,1,0,0,,0,,,84,127
72619,note_off,102,0,0,,0,,,84,127
72620,note_on,1,0,0,,12,,,83,127
72722,note_off,102,0,0,,12,,,83,127
72723,note_on,1,0,0,,10,,,81,127
72825,note_off,102,0,0,,10,,,81,127
72826,note_on,1,0,0,,7,,,79,127
72928,note_off,102,0,0,,7,,,79,127
72929,note_on,1,0,0,,6,,,78,127
73031,note_off,102,0,0,,6,,,78,127
73031,note_off,0,0,0,,12,,,47,127
73032,note_on,1,0,0,,0,,,48,127
73032,note_on,0,0,0,,4,,,76,127
73134,note_off,102,0,0,,4,,,76,127
73135,note_on,1,0,0,,2,,,74,127
73237,note_off,102,0,0,,2,,,74,127
73238,note_on,1,0,0,,0,,,72,127
73340,note_off,102,0,0,,0,,,72,127
73341,note_on,1,0,0,,12,,,71,127
73443,note_off,102,0,0,,12,,,71,127
73444,note_on,1,0,0,,10,,,69,127
73546,note_off,102,0,0,,10,,,69,127
73547,note_on,1,0,0,,7,,,67,127
73649,note_off,102,0,0,,7,,,67,127
73649,note_off,0,0,0,,0,,,48,127
73650,note_on,1,0,0,,2,,,50,127
73650,note_on,0,0,0,,6,,,66,127
73752,note_off,102,0,0,,6,,,66,127
73753,note_on,1,0,0,,4,,,64,127
73855,note_off,102,0,0,,4,,,64,127
73856,note_on,1,0,0,,2,,,62,127
73958,note_off,102,0,0,,2,,,62,127
73959,note_on,1,0,0,,0,,,60,127
74061,note_off,102,0,0,,0,,,60,127
74062,note_on,1,0,0,,12,,,59,127
74164,note_off,102,0,0,,12,,,59,127
74165,note_on,1,0,0,,10,,,57,127
74267,note_off,102,0,0,,10,,,57,127
74267,note_off,0,0,0,,2,,,50,127
74268,note_on,1,0,0,,7,,,43,127
74268,note_on,0,0,0,,7,,,55,127
74473,note_off,205,0,0,,7,,,55,127
74473,note_off,0,0,0,,7,,,43,127
74474,note_on,1,0,0,,12,,,71,127
74474,note_on,0,0,0,,2,,,74,127
74474,note_on,0,0,0,,12,,,83,127
74474,note_on,0,0,0,,2,,,86,127
74679,note_off,205,0,0,,12,,,71,127
74680,note_on,1,0,0,,7,,,67,127
74885,note_off,205,0,0,,7,,,67,127
74885,note_off,0,0,0,,2,,,86,127
74885,note_off,0,0,0,,12,,,83,127
74885,note_off,0,0,0,,2,,,74,127
74886,note_on,1,0,0,,10,,,69,127
74886,note_on,0,0,0,,0,,,84,127
74886,note_on,0,0,0,,2,,,74,127
74886,note_on,0,0,0,,10,,,81,127
75091,note_off,205,0,0,,10,,,69,127
75092,note_on,1,0,0,,6,,,66,127
75297,note_off,205,0,0,,6,,,66,127
75298,note_on,1,0,0,,2,,,62,127
75401,note_off,103,0,0,,2,,,74,127
75503,note_off,102,0,0,,2,,,62,127
75503,note_off,0,0,0,,10,,,81,127
75503,note_off,0,0,0,,0,,,84,127
75504,note_on,1,0,0,,7,,,67,127
75504,note_on,0,0,0,,12,,,83,127
75504,note_on,0,0,0,,2,,,74,127
75504,note_on,0,0,0,,7,,,79,127
75709,note_off,205,0,0,,7,,,79,127
75709,note_off,0,0,0,,12,,,83,127
75709,note_off,0,0,0,,7,,,67,127
75710,note_on,1,0,0,,12,,,47,127
75710,note_on,0,0,0,,6,,,78,127
75710,note_on,0,0,0,,10,,,81,127
75915,note_off,205,0,0,,10,,,81,127
75915,note_off,0,0,0,,6,,,78,127
75915,note_off,0,0,0,,12,,,47,127
75916,note_on,1,0,0,,7,,,43,127
75916,note_on,0,0,0,,12,,,83,127
75916,note_on,0,0,0,,7,,,79,127
76019,note_off,103,0,0,,2,,,74,127
76121,note_off,102,0,0,,7,,,79,127
76121,note_off,0,0,0,,12,,,83,127
76121,note_off,0,0,0,,7,,,43,127
76122,note_on,1,0,0,,2,,,38,127
76122,note_on,0,0,0,,2,,,74,127
76122,note_on,0,0,0,,12,,,83,127
76172,note_off,50,0,0,,12,,,83,127
76173,note_on,1,0,0,,10,,,81,127
76223,note_off,50,0,0,,10,,,81,127
76224,note_on,1,0,0,,12,,,83,127
76274,note_off,50,0,0,,12,,,83,127
76275,note_on,1,0,0,,10,,,81,127
76325,note_off,50,0,0,,10,,,81,127
76326,note_on,1,0,0,,7,,,79,127
76527,note_off,201,0,0,,2,,,74,127
76530,note_off,3,0,0,,7,,,79,127
76531,note_on,1,0,0,,10,,,81,127
76736,note_off,205,0,0,,10,,,81,127
76736,note_off,0,0,0,,2,,,38,127
76737,note_on,1,0,0,,2,,,74,127
76737,note_on,0,0,0,,2,,,86,127
76737,note_on,0,0,0,,12,,,83,127
76943,note_on,206,0,0,,12,,,71,127
77144,note_off,201,0,0,,2,,,74,127
77147,note_off,3,0,0,,12,,,71,127
77148,note_on,1,0,0,,7,,,67,127
77353,note_off,205,0,0,,7,,,67,127
77353,note_off,0,0,0,,12,,,83,127
77353,note_off,0,0,0,,2,,,86,127
77354,note_on,1,0,0,,10,,,69,127
77354,note_on,0,0,0,,10,,,81,127
77354,note_on,0,0,0,,2,,,74,127
77354,note_on,0,0,0,,0,,,84,127
77559,note_off,205,0,0,,10,,,69,127
77560,note_on,1,0,0,,6,,,66,127
77761,note_off,201,0,0,,2,,,74,127
77764,note_off,3,0,0,,6,,,66,127
77765,note_on,1,0,0,,2,,,62,127
77970,note_off,205,0,0,,2,,,62,127
77970,note_off,0,0,0,,0,,,84,127
77970,note_off,0,0,0,,10,,,81,127
77971,note_on,1,0,0,,7,,,67,127
77971,note_on,0,0,0,,2,,,74,127
77971,note_on,0,0,0,,12,,,83,127
77971,note_on,0,0,0,,7,,,79,127
78176,note_off,205,0,0,,7,,,79,127
78176,note_off,0,0,0,,12,,,83,127
78176,note_off,0,0,0,,7,,,67,127
78177,note_on,1,0,0,,12,,,47,127
78177,note_on,0,0,0,,10,,,81,127
78177,note_on,0,0,0,,6,,,78,127
78378,note_off,201,0,0,,2,,,74,127
78381,note_off,3,0,0,,6,,,78,127
78381,note_off,0,0,0,,10,,,81,127
78381,note_off,0,0,0,,12,,,47,127
78382,note_on,1,0,0,,7,,,43,127
78382,note_on,0,0,0,,12,,,83,127
78382,note_on,0,0,0,,7,,,79,127
78587,note_off,205,0,0,,7,,,79,127
78587,note_off,0,0,0,,12,,,83,127
78587,note_off,0,0,0,,7,,,43,127
78588,note_on,1,0,0,,2,,,38,127
78588,note_on,0,0,0,,2,,,74,127
78588,note_on,0,0,0,,12,,,83,127
78638,note_off,50,0,0,,12,,,83,127
78639,note_on,1,0,0,,10,,,81,127
78689,note_off,50,0,0,,10,,,81,127
78690,note_on,1,0,0,,12,,,83,127
78740,note_off,50,0,0,,12,,,83,127
78741,note_on,1,0,0,,10,,,81,127
78791,note_off,50,0,0,,10,,,81,127
78792,note_on,1,0,0,,7,,,79,127
78895,note_off,103,0,0,,2,,,74,127
78997,note_off,102,0,0,,7,,,79,127
78998,note_on,1,0,0,,10,,,81,127
79203,note_off,205,0,0,,10,,,81,127
79203,note_off,0,0,0,,2,,,38,127
79204,note_on,1,0,0,,12,,,47,127
79204,note_on,0,0,0,,2,,,86,127
79306,note_off,102,0,0,,2,,,86,127
79307,note_on,1,0,0,,0,,,84,127
79409,note_off,102,0,0,,0,,,84,127
79410,note_on,1,0,0,,12,,,83,127
79512,note_off,102,0,0,,12,,,83,127
79513,note_on,1,0,0,,10,,,81,127
79615,note_off,102,0,0,,10,,,81,127
79616,note_on,1,0,0,,7,,,79,127
79718,note_off,102,0,0,,7,,,79,127
79719,note_on,1,0,0,,6,,,78,127
79821,note_off,102,0,0,,6,,,78,127
79821,note_off,0,0,0,,12,,,47,127
79822,note_on,1,0,0,,0,,,48,127
79822,note_on,0,0,0,,4,,,76,127
79924,note_off,102,0,0,,4,,,76,127
79925,note_on,1,0,0,,2,,,74,127
80027,note_off,102,0,0,,2,,,74,127
80028,note_on,1,0,0,,0,,,72,127
80130,note_off,102,0,0,,0,,,72,127
80131,note_on,1,0,0,,12,,,71,127
80233,note_off,102,0,0,,12,,,71,127
80234,note_on,1,0,0,,10,,,69,127
80336,note_off,102,0,0,,10,,,69,127
80337,note_on,1,0,0,,7,,,67,127
80439,note_off,102,0,0,,7,,,67,127
80439,note_off,0,0,0,,0,,,48,127
80440,note_on,1,0,0,,2,,,50,127
80440,note_on,0,0,0,,6,,,66,127
80542,note_off,102,0,0,,6,,,66,127
80543,note_on,1,0,0,,4,,,64,127
80645,note_off,102,0,0,,4,,,64,127
80646,note_on,1,0,0,,2,,,62,127
80748,note_off,102,0,0,,2,,,62,127
80749,note_on,1,0,0,,0,,,60,127
80851,note_off,102,0,0,,0,,,60,127
80852,note_on,1,0,0,,12,,,59,127
80954,note_off,102,0,0,,12,,,59,127
80955,note_on,1,0,0,,10,,,57,127
81057,note_off,102,0,0,,10,,,57,127
81057,note_off,0,0,0,,2,,,50,127
81058,note_on,1,0,0,,7,,,43,127
81058,note_on,0,0,0,,7,,,55,127
81263,note_off,205,0,0,,7,,,55,127
81264,note_on,1,0,0,,2,,,74,127
81469,note_off,205,0,0,,2,,,74,127
81470,note_on,1,0,0,,7,,,79,127
81675,note_off,205,0,0,,7,,,43,127
81676,note_on,1,0,0,,2,,,38,127
81676,note_on,0,0,0,,2,,,50,127
81881,note_off,205,0,0,,7,,,79,127
81882,note_on,1,0,0,,6,,,78,127
82087,note_off,205,0,0,,6,,,78,127
82088,note_on,1,0,0,,10,,,81,127
82293,note_off,205,0,0,,2,,,50,127
82293,note_off,0,0,0,,2,,,38,127
82294,note_on,1,0,0,,7,,,43,127
82499,note_off,205,0,0,,10,,,81,127
82500,note_on,1,0,0,,2,,,74,127
82705,note_off,205,0,0,,2,,,74,127
82706,note_on,1,0,0,,7,,,79,127
82911,note_off,205,0,0,,7,,,43,127
82912,note_on,1,0,0,,2,,,38,127
82912,note_on,0,0,0,,2,,,50,127
83117,note_off,205,0,0,,7,,,79,127
83118,note_on,1,0,0,,6,,,78,127
83323,note_off,205,0,0,,6,,,78,127
83324,note_on,1,0,0,,10,,,81,127
83529,note_off,205,0,0,,10,,,81,127
83529,note_off,0,0,0,,2,,,50,127
83529,note_off,0,0,0,,2,,,38,127
83530,note_on,1,0,0,,7,,,43,127
83530,note_on,0,0,0,,7,,,55,127
83530,note_on,0,0,0,,12,,,71,127
83735,note_off,205,0,0,,12,,,71,127
83736,note_on,1,0,0,,7,,,79,127
83941,note_off,205,0,0,,7,,,79,127
83941,note_off,0,0,0,,7,,,55,127
83941,note_off,0,0,0,,7,,,43,127
83942,note_on,1,0,0,,0,,,60,127
83942,note_on,0,0,0,,0,,,48,127
83942,note_on,0,0,0,,4,,,76,127
84147,note_off,205,0,0,,4,,,76,127
84148,note_on,1,0,0,,0,,,72,127
84353,note_off,205,0,0,,0,,,48,127
84353,note_off,0,0,0,,0,,,60,127
84354,note_on,1,0,0,,2,,,62,127
84354,note_on,0,0,0,,2,,,50,127
84559,note_off,205,0,0,,0,,,72,127
84560,note_on,1,0,0,,10,,,69,127
84765,note_off,205,0,0,,10,,,69,127
84765,note_off,0,0,0,,2,,,50,127
84765,note_off,0,0,0,,2,,,62,127
84766,note_on,1,0,0,,7,,,55,127
84766,note_on,0,0,0,,7,,,43,127
84766,note_on,0,0,0,,12,,,71,127
84971,note_off,205,0,0,,12,,,71,127
84972,note_on,1,0,0,,7,,,67,127
85177,note_off,205,0,0,,7,,,43,127
85177,note_off,0,0,0,,7,,,55,127
85178,note_on,1,0,0,,0,,,48,127
85178,note_on,0,0,0,,0,,,36,127
85383,note_off,205,0,0,,7,,,67,127
85384,note_on,1,0,0,,4,,,64,127
85589,note_off,205,0,0,,0,,,36,127
85589,note_off,0,0,0,,0,,,48,127
85590,note_on,1,0,0,,2,,,38,127
85590,note_on,0,0,0,,2,,,50,127
85795,note_off,205,0,0,,4,,,64,127
85796,note_on,1,0,0,,7,,,67,127
85846,note_off,50,0,0,,7,,,67,127
85847,note_on,1,0,0,,6,,,66,127
85897,note_off,50,0,0,,6,,,66,127
85898,note_on,1,0,0,,4,,,64,127
85948,note_off,50,0,0,,4,,,64,127
85949,note_on,1,0,0,,6,,,66,127
85999,note_off,50,0,0,,6,,,66,127
85999,note_off,0,0,0,,2,,,50,127
85999,note_off,0,0,0,,2,,,38,127
86000,note_on,1,0,0,,7,,,55,127
86000,note_on,0,0,0,,7,,,43,127
86000,note_on,0,0,0,,7,,,67,127
86205,note_off,205,0,0,,7,,,67,127
86206,note_on,1,0,0,,7,,,79,127
86411,note_off,205,0,0,,7,,,79,127
86411,note_off,0,0,0,,7,,,43,127
86411,note_off,0,0,0,,7,,,55,127
86412,note_on,1,0,0,,0,,,60,127
86412,note_on,0,0,0,,0,,,48,127
86412,note_on,0,0,0,,4,,,76,127
86617,note_off,205,0,0,,4,,,76,127
86618,note_on,1,0,0,,0,,,72,127
86823,note_off,205,0,0,,0,,,48,127
86823,note_off,0,0,0,,0,,,60,127
86824,note_on,1,0,0,,2,,,62,127
86824,note_on,0,0,0,,2,,,50,127
87029,note_off,205,0,0,,0,,,72,127
87030,note_on,1,0,0,,10,,,69,127
87235,note_off,205,0,0,,10,,,69,127
87235,note_off,0,0,0,,2,,,50,127
87235,note_off,0,0,0,,2,,,62,127
87236,note_on,1,0,0,,7,,,43,127
87236,note_on,0,0,0,,7,,,55,127
87236,note_on,0,0,0,,12,,,71,127
87441,note_off,205,0,0,,12,,,71,127
87442,note_on,1,0,0,,7,,,67,127
87647,note_off,205,0,0,,7,,,55,127
87647,note_off,0,0,0,,7,,,43,127
87648,note_on,1,0,0,,0,,,48,127
87648,note_on,0,0,0,,0,,,36,127
87853,note_off,205,0,0,,7,,,67,127
87854,note_on,1,0,0,,4,,,64,127
88059,note_off,205,0,0,,0,,,36,127
88059,note_off,0,0,0,,0,,,48,127
88060,note_on,1,0,0,,2,,,50,127
88060,note_on,0,0,0,,2,,,38,127
88265,note_off,205,0,0,,4,,,64,127
88266,note_on,1,0,0,,7,,,67,127
88316,note_off,50,0,0,,7,,,67,127
88317,note_on,1,0,0,,6,,,66,127
88367,note_off,50,0,0,,6,,,66,127
88368,note_on,1,0,0,,4,,,64,127
88418,note_off,50,0,0,,4,,,64,127
88419,note_on,1,0,0,,6,,,66,127
88469,note_off,50,0,0,,6,,,66,127
88469,note_off,0,0,0,,2,,,38,127
88469,note_off,0,0,0,,2,,,50,127
88486,note_on,17,0,0,,7,,,43,127
88486,note_on,0,0,0,,7,,,67,127
90955,note_off,2469,0,0,,7,,,67,127
90955,note_off,0,0,0,,7,,,43,127
92160,end_of_track,1205,1,0,,,,,,
