tick,type,time,meta,track,program,channel,pitch,tempo,note,velocity
0,copyright,0,1,0,,,,,,
0,program_change,0,0,0,6,0,,,,
0,pitchwheel,0,0,0,,0,0,,,
0,program_change,0,0,0,6,1,,,,
0,pitchwheel,0,0,0,,1,-590,,,
0,program_change,0,0,0,6,2,,,,
0,pitchwheel,0,0,0,,2,-272,,,
0,program_change,0,0,0,6,3,,,,
0,pitchwheel,0,0,0,,3,-353,,,
0,program_change,0,0,0,6,4,,,,
0,pitchwheel,0,0,0,,4,-560,,,
0,program_change,0,0,0,6,5,,,,
0,pitchwheel,0,0,0,,5,-80,,,
0,program_change,0,0,0,6,6,,,,
0,pitchwheel,0,0,0,,6,-625,,,
0,program_change,0,0,0,6,7,,,,
0,pitchwheel,0,0,0,,7,-130,,,
0,program_change,0,0,0,6,8,,,,
0,pitchwheel,0,0,0,,8,-512,,,
0,program_change,0,0,0,6,10,,,,
0,pitchwheel,0,0,0,,10,-464,,,
0,program_change,0,0,0,6,11,,,,
0,pitchwheel,0,0,0,,11,-208,,,
0,program_change,0,0,0,6,12,,,,
0,pitchwheel,0,0,0,,12,-553,,,
0,set_tempo,0,1,0,,,,500000,,
121,note_on,121,0,0,,10,,,81,127
180,note_off,59,0,0,,10,,,81,127
181,note_on,1,0,0,,7,,,79,127
240,note_off,59,0,0,,7,,,79,127
241,note_on,1,0,0,,10,,,81,127
300,note_off,59,0,0,,10,,,81,127
301,note_on,1,0,0,,7,,,79,127
360,note_off,59,0,0,,7,,,79,127
361,note_on,1,0,0,,10,,,81,127
420,note_off,59,0,0,,10,,,81,127
421,note_on,1,0,0,,7,,,79,127
480,note_off,59,0,0,,7,,,79,127
481,note_on,1,0,0,,6,,,78,127
540,note_off,59,0,0,,6,,,78,127
541,note_on,1,0,0,,7,,,79,127
600,note_off,59,0,0,,7,,,79,127
601,note_on,1,0,0,,2,,,86,127
842,note_off,241,0,0,,2,,,86,127
843,note_on,1,0,0,,0,,,84,127
1084,note_off,241,0,0,,0,,,84,127
1085,note_on,1,0,0,,12,,,83,127
1326,note_off,241,0,0,,12,,,83,127
1327,note_on,1,0,0,,10,,,81,127
1568,note_off,241,0,0,,10,,,81,127
1569,note_on,1,0,0,,7,,,79,127
1810,note_off,241,0,0,,7,,,79,127
1811,note_on,1,0,0,,6,,,78,127
2052,note_off,241,0,0,,6,,,78,127
2053,note_on,1,0,0,,6,,,78,127
2112,note_off,59,0,0,,6,,,78,127
2113,note_on,1,0,0,,4,,,76,127
2172,note_off,59,0,0,,4,,,76,127
2173,note_on,1,0,0,,6,,,78,127
2232,note_off,59,0,0,,6,,,78,127
2233,note_on,1,0,0,,4,,,76,127
2292,note_off,59,0,0,,4,,,76,127
2293,note_on,1,0,0,,2,,,74,127
2413,note_off,120,0,0,,2,,,74,127
2414,note_on,1,0,0,,0,,,72,127
2534,note_off,120,0,0,,0,,,72,127
2535,note_on,1,0,0,,12,,,71,127
2776,note_off,241,0,0,,12,,,71,127
2777,note_on,1,0,0,,0,,,72,127
3018,note_off,241,0,0,,0,,,72,127
3019,note_on,1,0,0,,2,,,62,127
3019,note_on,0,0,0,,2,,,74,127
3260,note_off,241,0,0,,2,,,74,127
3261,note_on,1,0,0,,0,,,72,127
3502,note_off,241,0,0,,0,,,72,127
3502,note_off,0,0,0,,2,,,62,127
3503,note_on,1,0,0,,7,,,67,127
3503,note_on,0,0,0,,12,,,71,127
3744,note_off,241,0,0,,12,,,71,127
3744,note_off,0,0,0,,7,,,67,127
3745,note_on,1,0,0,,6,,,66,127
3745,note_on,0,0,0,,10,,,69,127
3986,note_off,241,0,0,,10,,,69,127
3986,note_off,0,0,0,,6,,,66,127
3987,note_on,1,0,0,,4,,,64,127
3987,note_on,0,0,0,,7,,,67,127
4228,note_off,241,0,0,,7,,,67,127
4228,note_off,0,0,0,,4,,,64,127
4229,note_on,1,0,0,,2,,,62,127
4229,note_on,0,0,0,,6,,,66,127
4470,note_off,241,0,0,,6,,,66,127
4470,note_off,0,0,0,,2,,,62,127
4471,note_on,1,0,0,,0,,,60,127
4471,note_on,0,0,0,,4,,,64,127
4712,note_off,241,0,0,,4,,,64,127
4712,note_off,0,0,0,,0,,,60,127
4713,note_on,1,0,0,,12,,,59,127
4713,note_on,0,0,0,,2,,,62,127
4954,note_off,241,0,0,,2,,,62,127
4954,note_off,0,0,0,,12,,,59,127
4955,note_on,1,0,0,,12,,,59,127
4955,note_on,0,0,0,,2,,,62,127
5014,note_off,59,0,0,,2,,,62,127
5015,note_on,1,0,0,,0,,,60,127
5074,note_off,59,0,0,,0,,,60,127
5074,note_off,0,0,0,,12,,,59,127
5075,note_on,1,0,0,,10,,,57,127
5075,note_on,0,0,0,,2,,,62,127
5134,note_off,59,0,0,,2,,,62,127
5135,note_on,1,0,0,,0,,,60,127
5194,note_off,59,0,0,,0,,,60,127
5194,note_off,0,0,0,,10,,,57,127
5195,note_on,1,0,0,,7,,,55,127
5195,note_on,0,0,0,,12,,,59,127
5315,note_off,120,0,0,,12,,,59,127
5315,note_off,0,0,0,,7,,,55,127
5316,note_on,1,0,0,,6,,,54,127
5316,note_on,0,0,0,,10,,,57,127
5436,note_off,120,0,0,,10,,,57,127
5436,note_off,0,0,0,,6,,,54,127
5437,note_on,1,0,0,,4,,,52,127
5437,note_on,0,0,0,,7,,,55,127
5678,note_off,241,0,0,,7,,,55,127
5678,note_off,0,0,0,,4,,,52,127
5679,note_on,1,0,0,,6,,,54,127
5679,note_on,0,0,0,,10,,,57,127
5920,note_off,241,0,0,,10,,,57,127
5920,note_off,0,0,0,,6,,,54,127
5921,note_on,1,0,0,,7,,,55,127
5921,note_on,0,0,0,,12,,,59,127
6041,note_off,120,0,0,,12,,,59,127
6042,note_on,1,0,0,,2,,,62,127
6162,note_off,120,0,0,,2,,,62,127
6163,note_on,1,0,0,,7,,,67,127
6283,note_off,120,0,0,,7,,,67,127
6284,note_on,1,0,0,,12,,,71,127
6404,note_off,120,0,0,,12,,,71,127
6404,note_off,0,0,0,,7,,,55,127
6405,note_on,1,0,0,,7,,,55,127
6405,note_on,0,0,0,,2,,,74,127
6525,note_off,120,0,0,,7,,,55,127
6526,note_on,1,0,0,,12,,,59,127
6646,note_off,120,0,0,,12,,,59,127
6647,note_on,1,0,0,,2,,,62,127
6767,note_off,120,0,0,,2,,,62,127
6768,note_on,1,0,0,,7,,,67,127
6888,note_off,120,0,0,,7,,,67,127
6889,note_on,1,0,0,,12,,,71,127
7130,note_off,241,0,0,,12,,,71,127
7130,note_off,0,0,0,,2,,,74,127
7131,note_on,1,0,0,,10,,,69,127
7131,note_on,0,0,0,,0,,,72,127
7372,note_off,241,0,0,,0,,,72,127
7372,note_off,0,0,0,,10,,,69,127
7373,note_on,1,0,0,,7,,,67,127
7373,note_on,0,0,0,,0,,,72,127
7432,note_off,59,0,0,,0,,,72,127
7433,note_on,1,0,0,,12,,,71,127
7492,note_off,59,0,0,,12,,,71,127
7493,note_on,1,0,0,,0,,,72,127
7552,note_off,59,0,0,,0,,,72,127
7553,note_on,1,0,0,,12,,,71,127
7612,note_off,59,0,0,,12,,,71,127
7612,note_off,0,0,0,,7,,,67,127
7613,note_on,1,0,0,,6,,,66,127
7613,note_on,0,0,0,,10,,,69,127
7733,note_off,120,0,0,,10,,,69,127
7733,note_off,0,0,0,,6,,,66,127
7734,note_on,1,0,0,,4,,,64,127
7734,note_on,0,0,0,,7,,,67,127
7854,note_off,120,0,0,,7,,,67,127
7854,note_off,0,0,0,,4,,,64,127
7855,note_on,1,0,0,,2,,,62,127
7855,note_on,0,0,0,,6,,,66,127
7975,note_off,120,0,0,,6,,,66,127
7976,note_on,1,0,0,,10,,,69,127
8096,note_off,120,0,0,,10,,,69,127
8097,note_on,1,0,0,,2,,,74,127
8217,note_off,120,0,0,,2,,,74,127
8218,note_on,1,0,0,,6,,,78,127
8338,note_off,120,0,0,,6,,,78,127
8338,note_off,0,0,0,,2,,,62,127
8339,note_on,1,0,0,,2,,,62,127
8339,note_on,0,0,0,,10,,,81,127
8459,note_off,120,0,0,,2,,,62,127
8460,note_on,1,0,0,,6,,,66,127
8580,note_off,120,0,0,,6,,,66,127
8581,note_on,1,0,0,,10,,,69,127
8701,note_off,120,0,0,,10,,,69,127
8702,note_on,1,0,0,,2,,,74,127
8822,note_off,120,0,0,,2,,,74,127
8823,note_on,1,0,0,,6,,,78,127
9064,note_off,241,0,0,,6,,,78,127
9064,note_off,0,0,0,,10,,,81,127
9065,note_on,1,0,0,,4,,,76,127
9065,note_on,0,0,0,,7,,,79,127
9306,note_off,241,0,0,,7,,,79,127
9306,note_off,0,0,0,,4,,,76,127
9307,note_on,1,0,0,,2,,,74,127
9307,note_on,0,0,0,,7,,,79,127
9366,note_off,59,0,0,,7,,,79,127
9367,note_on,1,0,0,,6,,,78,127
9426,note_off,59,0,0,,6,,,78,127
9427,note_on,1,0,0,,7,,,79,127
9486,note_off,59,0,0,,7,,,79,127
9487,note_on,1,0,0,,6,,,78,127
9546,note_off,59,0,0,,6,,,78,127
9546,note_off,0,0,0,,2,,,74,127
9547,note_on,1,0,0,,0,,,72,127
9547,note_on,0,0,0,,4,,,76,127
9667,note_off,120,0,0,,4,,,76,127
9667,note_off,0,0,0,,0,,,72,127
9668,note_on,1,0,0,,12,,,71,127
9668,note_on,0,0,0,,2,,,74,127
9788,note_off,120,0,0,,2,,,74,127
9788,note_off,0,0,0,,12,,,71,127
9789,note_on,1,0,0,,10,,,69,127
9789,note_on,0,0,0,,2,,,74,127
9848,note_off,59,0,0,,2,,,74,127
9849,note_on,1,0,0,,0,,,72,127
9908,note_off,59,0,0,,0,,,72,127
9909,note_on,1,0,0,,2,,,74,127
9968,note_off,59,0,0,,2,,,74,127
9969,note_on,1,0,0,,0,,,72,127
10028,note_off,59,0,0,,0,,,72,127
10028,note_off,0,0,0,,10,,,69,127
10029,note_on,1,0,0,,7,,,67,127
10029,note_on,0,0,0,,2,,,74,127
10088,note_off,59,0,0,,2,,,74,127
10089,note_on,1,0,0,,0,,,72,127
10148,note_off,59,0,0,,0,,,72,127
10149,note_on,1,0,0,,12,,,71,127
10269,note_off,120,0,0,,12,,,71,127
10269,note_off,0,0,0,,7,,,67,127
10270,note_on,1,0,0,,6,,,66,127
10270,note_on,0,0,0,,0,,,72,127
10511,note_off,241,0,0,,6,,,66,127
10512,note_on,1,0,0,,4,,,64,127
10633,note_off,121,0,0,,0,,,72,127
10753,note_off,120,0,0,,4,,,64,127
10754,note_on,1,0,0,,6,,,66,127
10754,note_on,0,0,0,,2,,,62,127
10754,note_on,0,0,0,,2,,,74,127
10813,note_off,59,0,0,,2,,,74,127
10814,note_on,1,0,0,,0,,,72,127
10873,note_off,59,0,0,,0,,,72,127
10874,note_on,1,0,0,,2,,,74,127
10933,note_off,59,0,0,,2,,,74,127
10934,note_on,1,0,0,,0,,,72,127
10993,note_off,59,0,0,,0,,,72,127
10993,note_off,0,0,0,,2,,,62,127
10993,note_off,0,0,0,,6,,,66,127
10994,note_on,1,0,0,,7,,,67,127
10994,note_on,0,0,0,,4,,,64,127
10994,note_on,0,0,0,,2,,,74,127
11053,note_off,59,0,0,,2,,,74,127
11054,note_on,1,0,0,,0,,,72,127
11113,note_off,59,0,0,,0,,,72,127
11114,note_on,1,0,0,,12,,,71,127
11234,note_off,120,0,0,,12,,,71,127
11234,note_off,0,0,0,,4,,,64,127
11234,note_off,0,0,0,,7,,,67,127
11235,note_on,1,0,0,,6,,,66,127
11235,note_on,0,0,0,,10,,,69,127
11235,note_on,0,0,0,,0,,,72,127
11476,note_off,241,0,0,,10,,,69,127
11476,note_off,0,0,0,,6,,,66,127
11477,note_on,1,0,0,,7,,,67,127
11477,note_on,0,0,0,,4,,,64,127
11598,note_off,121,0,0,,0,,,72,127
11718,note_off,120,0,0,,4,,,64,127
11718,note_off,0,0,0,,7,,,67,127
11719,note_on,1,0,0,,6,,,66,127
11719,note_on,0,0,0,,2,,,62,127
11719,note_on,0,0,0,,2,,,74,127
11778,note_off,59,0,0,,2,,,74,127
11779,note_on,1,0,0,,0,,,72,127
11838,note_off,59,0,0,,0,,,72,127
11839,note_on,1,0,0,,2,,,74,127
11898,note_off,59,0,0,,2,,,74,127
11899,note_on,1,0,0,,0,,,72,127
11958,note_off,59,0,0,,0,,,72,127
11958,note_off,0,0,0,,2,,,62,127
11958,note_off,0,0,0,,6,,,66,127
11959,note_on,1,0,0,,4,,,64,127
11959,note_on,0,0,0,,7,,,67,127
11959,note_on,0,0,0,,2,,,74,127
12018,note_off,59,0,0,,2,,,74,127
12019,note_on,1,0,0,,0,,,72,127
12078,note_off,59,0,0,,0,,,72,127
12079,note_on,1,0,0,,12,,,71,127
12199,note_off,120,0,0,,12,,,71,127
12199,note_off,0,0,0,,7,,,67,127
12199,note_off,0,0,0,,4,,,64,127
12200,note_on,1,0,0,,6,,,66,127
12200,note_on,0,0,0,,10,,,69,127
12200,note_on,0,0,0,,0,,,72,127
12441,note_off,241,0,0,,10,,,69,127
12441,note_off,0,0,0,,6,,,66,127
12442,note_on,1,0,0,,7,,,67,127
12442,note_on,0,0,0,,4,,,64,127
12683,note_off,241,0,0,,4,,,64,127
12683,note_off,0,0,0,,7,,,67,127
12683,note_off,0,0,0,,0,,,72,127
12684,note_on,1,0,0,,6,,,66,127
12684,note_on,0,0,0,,2,,,62,127
12684,note_on,0,0,0,,0,,,72,127
12925,note_off,241,0,0,,2,,,62,127
12925,note_off,0,0,0,,6,,,66,127
12926,note_on,1,0,0,,4,,,64,127
12926,note_on,0,0,0,,7,,,67,127
13167,note_off,241,0,0,,7,,,67,127
13167,note_off,0,0,0,,4,,,64,127
13168,note_on,1,0,0,,10,,,69,127
13168,note_on,0,0,0,,6,,,66,127
13409,note_off,241,0,0,,6,,,66,127
13409,note_off,0,0,0,,10,,,69,127
13409,note_off,0,0,0,,0,,,72,127
13410,note_on,1,0,0,,6,,,66,127
13410,note_on,0,0,0,,2,,,62,127
13410,note_on,0,0,0,,12,,,71,127
13530,note_off,120,0,0,,12,,,71,127
13531,note_on,1,0,0,,10,,,69,127
13651,note_off,120,0,0,,10,,,69,127
13651,note_off,0,0,0,,2,,,62,127
13651,note_off,0,0,0,,6,,,66,127
13652,note_on,1,0,0,,7,,,67,127
13652,note_on,0,0,0,,12,,,71,127
13893,note_off,241,0,0,,12,,,71,127
13893,note_off,0,0,0,,7,,,67,127
13894,note_on,1,0,0,,6,,,66,127
13894,note_on,0,0,0,,10,,,69,127
14135,note_off,241,0,0,,10,,,69,127
14135,note_off,0,0,0,,6,,,66,127
14136,note_on,1,0,0,,7,,,67,127
14136,note_on,0,0,0,,12,,,71,127
14377,note_off,241,0,0,,12,,,71,127
14377,note_off,0,0,0,,7,,,67,127
14378,note_on,1,0,0,,4,,,64,127
14378,note_on,0,0,0,,2,,,74,127
14437,note_off,59,0,0,,2,,,74,127
14438,note_on,1,0,0,,1,,,73,127
14497,note_off,59,0,0,,1,,,73,127
14498,note_on,1,0,0,,12,,,71,127
14557,note_off,59,0,0,,12,,,71,127
14558,note_on,1,0,0,,1,,,73,127
14617,note_off,59,0,0,,1,,,73,127
14617,note_off,0,0,0,,4,,,64,127
14618,note_on,1,0,0,,2,,,50,127
14618,note_on,0,0,0,,2,,,74,127
14861,note_on,243,0,0,,2,,,62,127
15102,note_off,241,0,0,,2,,,74,127
15103,note_on,1,0,0,,4,,,64,127
15344,note_off,241,0,0,,2,,,62,127
15345,note_on,1,0,0,,0,,,60,127
15586,note_off,241,0,0,,4,,,64,127
15587,note_on,1,0,0,,6,,,66,127
15828,note_off,241,0,0,,6,,,66,127
15828,note_off,0,0,0,,0,,,60,127
15829,note_on,1,0,0,,12,,,59,127
15829,note_on,0,0,0,,7,,,67,127
16070,note_off,241,0,0,,7,,,67,127
16070,note_off,0,0,0,,12,,,59,127
16071,note_on,1,0,0,,10,,,57,127
16071,note_on,0,0,0,,12,,,71,127
16130,note_off,59,0,0,,12,,,71,127
16131,note_on,1,0,0,,10,,,69,127
16190,note_off,59,0,0,,10,,,69,127
16191,note_on,1,0,0,,12,,,71,127
16250,note_off,59,0,0,,12,,,71,127
16251,note_on,1,0,0,,10,,,69,127
16302,note_off,51,0,0,,2,,,50,127
16311,note_off,9,0,0,,10,,,69,127
16311,note_off,0,0,0,,10,,,57,127
16312,note_on,1,0,0,,3,,,51,127
16312,note_on,0,0,0,,12,,,71,127
16371,note_off,59,0,0,,12,,,71,127
16372,note_on,1,0,0,,10,,,69,127
16431,note_off,59,0,0,,10,,,69,127
16432,note_on,1,0,0,,12,,,71,127
16491,note_off,59,0,0,,12,,,71,127
16492,note_on,1,0,0,,0,,,72,127
16551,note_off,59,0,0,,0,,,72,127
16551,note_off,0,0,0,,3,,,51,127
16552,note_on,1,0,0,,4,,,52,127
16552,note_on,0,0,0,,12,,,71,127
16795,note_on,243,0,0,,4,,,64,127
17036,note_off,241,0,0,,12,,,71,127
17037,note_on,1,0,0,,6,,,66,127
17278,note_off,241,0,0,,4,,,64,127
17279,note_on,1,0,0,,2,,,62,127
17520,note_off,241,0,0,,6,,,66,127
17521,note_on,1,0,0,,8,,,68,127
17762,note_off,241,0,0,,8,,,68,127
17762,note_off,0,0,0,,2,,,62,127
17763,note_on,1,0,0,,0,,,60,127
17763,note_on,0,0,0,,10,,,69,127
18004,note_off,241,0,0,,10,,,69,127
18004,note_off,0,0,0,,0,,,60,127
18005,note_on,1,0,0,,12,,,59,127
18005,note_on,0,0,0,,0,,,72,127
18064,note_off,59,0,0,,0,,,72,127
18065,note_on,1,0,0,,12,,,71,127
18124,note_off,59,0,0,,12,,,71,127
18125,note_on,1,0,0,,0,,,72,127
18184,note_off,59,0,0,,0,,,72,127
18185,note_on,1,0,0,,12,,,71,127
18236,note_off,51,0,0,,4,,,52,127
18245,note_off,9,0,0,,12,,,71,127
18245,note_off,0,0,0,,12,,,59,127
18246,note_on,1,0,0,,8,,,56,127
18246,note_on,0,0,0,,0,,,72,127
18305,note_off,59,0,0,,0,,,72,127
18306,note_on,1,0,0,,12,,,71,127
18365,note_off,59,0,0,,12,,,71,127
18366,note_on,1,0,0,,0,,,72,127
18425,note_off,59,0,0,,0,,,72,127
18426,note_on,1,0,0,,2,,,74,127
18485,note_off,59,0,0,,2,,,74,127
18485,note_off,0,0,0,,8,,,56,127
18486,note_on,1,0,0,,10,,,57,127
18486,note_on,0,0,0,,0,,,72,127
18727,note_off,241,0,0,,0,,,72,127
18728,note_on,1,0,0,,10,,,81,127
18971,note_on,243,0,0,,10,,,69,127
19212,note_off,241,0,0,,10,,,81,127
19213,note_on,1,0,0,,7,,,79,127
19333,note_off,120,0,0,,7,,,79,127
19334,note_on,1,0,0,,5,,,77,127
19454,note_off,120,0,0,,5,,,77,127
19454,note_off,0,0,0,,10,,,57,127
19455,note_on,1,0,0,,12,,,59,127
19455,note_on,0,0,0,,4,,,76,127
19575,note_off,120,0,0,,4,,,76,127
19576,note_on,1,0,0,,3,,,75,127
19696,note_off,120,0,0,,3,,,75,127
19696,note_off,0,0,0,,10,,,69,127
19697,note_on,1,0,0,,7,,,67,127
19697,note_on,0,0,0,,4,,,76,127
19938,note_off,241,0,0,,4,,,76,127
19938,note_off,0,0,0,,7,,,67,127
19939,note_on,1,0,0,,6,,,66,127
19939,note_on,0,0,0,,7,,,79,127
19998,note_off,59,0,0,,7,,,79,127
19999,note_on,1,0,0,,6,,,78,127
20058,note_off,59,0,0,,6,,,78,127
20059,note_on,1,0,0,,7,,,79,127
20118,note_off,59,0,0,,7,,,79,127
20119,note_on,1,0,0,,6,,,78,127
20178,note_off,59,0,0,,6,,,78,127
20178,note_off,0,0,0,,6,,,66,127
20179,note_on,1,0,0,,3,,,63,127
20179,note_on,0,0,0,,7,,,79,127
20238,note_off,59,0,0,,7,,,79,127
20239,note_on,1,0,0,,6,,,78,127
20298,note_off,59,0,0,,6,,,78,127
20299,note_on,1,0,0,,7,,,79,127
20358,note_off,59,0,0,,7,,,79,127
20359,note_on,1,0,0,,10,,,81,127
20418,note_off,59,0,0,,10,,,81,127
20418,note_off,0,0,0,,3,,,63,127
20418,note_off,0,0,0,,12,,,59,127
20419,note_on,1,0,0,,4,,,52,127
20419,note_on,0,0,0,,4,,,64,127
20419,note_on,0,0,0,,7,,,79,127
20660,note_off,241,0,0,,7,,,79,127
20661,note_on,1,0,0,,7,,,79,127
20902,note_off,241,0,0,,4,,,64,127
20902,note_off,0,0,0,,4,,,52,127
20903,note_on,1,0,0,,7,,,55,127
21144,note_off,241,0,0,,7,,,79,127
21145,note_on,1,0,0,,7,,,67,127
21145,note_on,0,0,0,,6,,,78,127
21265,note_off,120,0,0,,6,,,78,127
21266,note_on,1,0,0,,4,,,76,127
21382,note_off,116,0,0,,7,,,55,127
21386,note_off,4,0,0,,4,,,76,127
21387,note_on,1,0,0,,10,,,57,127
21387,note_on,0,0,0,,2,,,74,127
21387,note_on,0,0,0,,10,,,69,127
21507,note_off,120,0,0,,2,,,74,127
21508,note_on,1,0,0,,1,,,73,127
21624,note_off,116,0,0,,7,,,67,127
21628,note_off,4,0,0,,1,,,73,127
21629,note_on,1,0,0,,6,,,66,127
21629,note_on,0,0,0,,2,,,74,127
21866,note_off,237,0,0,,10,,,69,127
21870,note_off,4,0,0,,2,,,74,127
21870,note_off,0,0,0,,6,,,66,127
21871,note_on,1,0,0,,4,,,64,127
21871,note_on,0,0,0,,6,,,78,127
21930,note_off,59,0,0,,6,,,78,127
21931,note_on,1,0,0,,4,,,76,127
21990,note_off,59,0,0,,4,,,76,127
21991,note_on,1,0,0,,6,,,78,127
22050,note_off,59,0,0,,6,,,78,127
22051,note_on,1,0,0,,4,,,76,127
22110,note_off,59,0,0,,4,,,76,127
22110,note_off,0,0,0,,4,,,64,127
22111,note_on,1,0,0,,1,,,61,127
22111,note_on,0,0,0,,6,,,78,127
22170,note_off,59,0,0,,6,,,78,127
22171,note_on,1,0,0,,4,,,76,127
22230,note_off,59,0,0,,4,,,76,127
22231,note_on,1,0,0,,6,,,78,127
22290,note_off,59,0,0,,6,,,78,127
22291,note_on,1,0,0,,7,,,79,127
22350,note_off,59,0,0,,7,,,79,127
22350,note_off,0,0,0,,1,,,61,127
22350,note_off,0,0,0,,10,,,57,127
22351,note_on,1,0,0,,2,,,50,127
22351,note_on,0,0,0,,10,,,69,127
22351,note_on,0,0,0,,6,,,78,127
22592,note_off,241,0,0,,6,,,78,127
22592,note_off,0,0,0,,2,,,50,127
22593,note_on,1,0,0,,2,,,62,127
22593,note_on,0,0,0,,10,,,81,127
22834,note_off,241,0,0,,2,,,62,127
22835,note_on,1,0,0,,1,,,61,127
23076,note_off,241,0,0,,1,,,61,127
23076,note_off,0,0,0,,10,,,81,127
23076,note_off,0,0,0,,10,,,69,127
23077,note_on,1,0,0,,10,,,57,127
23077,note_on,0,0,0,,7,,,79,127
23077,note_on,0,0,0,,10,,,81,127
23157,note_off,80,0,0,,10,,,81,127
23157,note_off,0,0,0,,7,,,79,127
23158,note_on,1,0,0,,6,,,78,127
23238,note_off,80,0,0,,6,,,78,127
23239,note_on,1,0,0,,4,,,76,127
23319,note_off,80,0,0,,4,,,76,127
23319,note_off,0,0,0,,10,,,57,127
23320,note_on,1,0,0,,2,,,50,127
23320,note_on,0,0,0,,6,,,78,127
23320,note_on,0,0,0,,10,,,69,127
23561,note_off,241,0,0,,6,,,78,127
23561,note_off,0,0,0,,2,,,50,127
23562,note_on,1,0,0,,2,,,62,127
23562,note_on,0,0,0,,10,,,81,127
23803,note_off,241,0,0,,2,,,62,127
23804,note_on,1,0,0,,1,,,61,127
24045,note_off,241,0,0,,1,,,61,127
24045,note_off,0,0,0,,10,,,81,127
24045,note_off,0,0,0,,10,,,69,127
24046,note_on,1,0,0,,10,,,57,127
24046,note_on,0,0,0,,7,,,79,127
24046,note_on,0,0,0,,10,,,81,127
24126,note_off,80,0,0,,10,,,81,127
24126,note_off,0,0,0,,7,,,79,127
24127,note_on,1,0,0,,6,,,78,127
24207,note_off,80,0,0,,6,,,78,127
24208,note_on,1,0,0,,4,,,76,127
24288,note_off,80,0,0,,4,,,76,127
24288,note_off,0,0,0,,10,,,57,127
24289,note_on,1,0,0,,2,,,62,127
24289,note_on,0,0,0,,6,,,78,127
24289,note_on,0,0,0,,10,,,69,127
24530,note_off,241,0,0,,6,,,78,127
24530,note_off,0,0,0,,2,,,62,127
24531,note_on,1,0,0,,6,,,54,127
24531,note_on,0,0,0,,7,,,79,127
24651,note_off,120,0,0,,7,,,79,127
24652,note_on,1,0,0,,10,,,81,127
24768,note_off,116,0,0,,10,,,69,127
24772,note_off,4,0,0,,10,,,81,127
24772,note_off,0,0,0,,6,,,54,127
24773,note_on,1,0,0,,7,,,55,127
24773,note_on,0,0,0,,7,,,79,127
24893,note_off,120,0,0,,7,,,79,127
24894,note_on,1,0,0,,6,,,78,127
25014,note_off,120,0,0,,6,,,78,127
25014,note_off,0,0,0,,7,,,55,127
25015,note_on,1,0,0,,12,,,59,127
25015,note_on,0,0,0,,4,,,76,127
25135,note_off,120,0,0,,4,,,76,127
25136,note_on,1,0,0,,2,,,74,127
25255,note_off,119,0,0,,12,,,59,127
25256,note_off,1,0,0,,2,,,74,127
25257,note_on,1,0,0,,2,,,74,127
25378,note_on,121,0,0,,10,,,33,127
25498,note_off,120,0,0,,10,,,33,127
25499,note_on,1,0,0,,1,,,37,127
25619,note_off,120,0,0,,1,,,37,127
25620,note_on,1,0,0,,4,,,40,127
25740,note_off,120,0,0,,4,,,40,127
25740,note_off,0,0,0,,2,,,74,127
25741,note_on,1,0,0,,10,,,45,127
25741,note_on,0,0,0,,4,,,76,127
25861,note_off,120,0,0,,10,,,45,127
25862,note_on,1,0,0,,1,,,49,127
25982,note_off,120,0,0,,1,,,49,127
25983,note_on,1,0,0,,4,,,52,127
26103,note_off,120,0,0,,4,,,52,127
26104,note_on,1,0,0,,10,,,57,127
26224,note_off,120,0,0,,10,,,57,127
26225,note_on,1,0,0,,10,,,69,127
26346,note_off,121,0,0,,4,,,76,127
26467,note_on,121,0,0,,1,,,73,127
26708,note_off,241,0,0,,1,,,73,127
26709,note_on,1,0,0,,12,,,71,127
26709,note_on,0,0,0,,2,,,74,127
26950,note_off,241,0,0,,2,,,74,127
26950,note_off,0,0,0,,10,,,69,127
26951,note_on,1,0,0,,7,,,67,127
26951,note_on,0,0,0,,4,,,76,127
27188,note_off,237,0,0,,12,,,71,127
27192,note_off,4,0,0,,4,,,76,127
27193,note_on,1,0,0,,10,,,69,127
27434,note_off,241,0,0,,7,,,67,127
27435,note_on,1,0,0,,6,,,66,127
27435,note_on,0,0,0,,10,,,81,127
27556,note_off,121,0,0,,10,,,69,127
27556,note_on,0,0,0,,12,,,71,127
27675,note_off,119,0,0,,10,,,81,127
27676,note_off,1,0,0,,12,,,71,127
27676,note_off,0,0,0,,6,,,66,127
27677,note_on,1,0,0,,4,,,64,127
27677,note_on,0,0,0,,7,,,79,127
27677,note_on,0,0,0,,1,,,73,127
27918,note_off,241,0,0,,1,,,73,127
27918,note_off,0,0,0,,4,,,64,127
27919,note_on,1,0,0,,2,,,62,127
27919,note_on,0,0,0,,2,,,74,127
28040,note_off,121,0,0,,7,,,79,127
28040,note_on,0,0,0,,6,,,78,127
28159,note_off,119,0,0,,2,,,74,127
28160,note_off,1,0,0,,6,,,78,127
28161,note_on,1,0,0,,2,,,74,127
28161,note_on,0,0,0,,6,,,78,127
28281,note_off,120,0,0,,2,,,62,127
28282,note_on,1,0,0,,10,,,33,127
28402,note_off,120,0,0,,10,,,33,127
28403,note_on,1,0,0,,1,,,37,127
28523,note_off,120,0,0,,1,,,37,127
28524,note_on,1,0,0,,4,,,40,127
28644,note_off,120,0,0,,4,,,40,127
28644,note_off,0,0,0,,6,,,78,127
28644,note_off,0,0,0,,2,,,74,127
28645,note_on,1,0,0,,10,,,45,127
28645,note_on,0,0,0,,1,,,73,127
28645,note_on,0,0,0,,4,,,76,127
28765,note_off,120,0,0,,10,,,45,127
28766,note_on,1,0,0,,1,,,49,127
28886,note_off,120,0,0,,1,,,49,127
28887,note_on,1,0,0,,4,,,52,127
29007,note_off,120,0,0,,4,,,52,127
29008,note_on,1,0,0,,10,,,57,127
29128,note_off,120,0,0,,10,,,57,127
29129,note_on,1,0,0,,10,,,69,127
29250,note_off,121,0,0,,4,,,76,127
29250,note_off,0,0,0,,1,,,73,127
29371,note_on,121,0,0,,1,,,73,127
29612,note_off,241,0,0,,1,,,73,127
29613,note_on,1,0,0,,2,,,74,127
29613,note_on,0,0,0,,12,,,71,127
29854,note_off,241,0,0,,2,,,74,127
29854,note_off,0,0,0,,10,,,69,127
29855,note_on,1,0,0,,7,,,67,127
29855,note_on,0,0,0,,4,,,76,127
30092,note_off,237,0,0,,12,,,71,127
30096,note_off,4,0,0,,4,,,76,127
30097,note_on,1,0,0,,10,,,69,127
30338,note_off,241,0,0,,7,,,67,127
30339,note_on,1,0,0,,6,,,66,127
30339,note_on,0,0,0,,10,,,81,127
30460,note_off,121,0,0,,10,,,69,127
30460,note_on,0,0,0,,12,,,71,127
30580,note_off,120,0,0,,12,,,71,127
30580,note_off,0,0,0,,6,,,66,127
30581,note_on,1,0,0,,4,,,64,127
30581,note_on,0,0,0,,1,,,73,127
30702,note_off,121,0,0,,10,,,81,127
30702,note_on,0,0,0,,7,,,79,127
30821,note_off,119,0,0,,1,,,73,127
30822,note_off,1,0,0,,7,,,79,127
30822,note_off,0,0,0,,4,,,64,127
30823,note_on,1,0,0,,10,,,57,127
30823,note_on,0,0,0,,2,,,74,127
30823,note_on,0,0,0,,6,,,78,127
30943,note_off,120,0,0,,6,,,78,127
30943,note_off,0,0,0,,2,,,74,127
30944,note_on,1,0,0,,1,,,73,127
30944,note_on,0,0,0,,4,,,76,127
31064,note_off,120,0,0,,4,,,76,127
31064,note_off,0,0,0,,1,,,73,127
31065,note_on,1,0,0,,2,,,74,127
31065,note_on,0,0,0,,6,,,78,127
31185,note_off,120,0,0,,10,,,57,127
31186,note_on,1,0,0,,2,,,38,127
31306,note_off,120,0,0,,2,,,38,127
31307,note_on,1,0,0,,6,,,42,127
31427,note_off,120,0,0,,6,,,42,127
31428,note_on,1,0,0,,10,,,45,127
31548,note_off,120,0,0,,10,,,45,127
31549,note_on,1,0,0,,2,,,50,127
31669,note_off,120,0,0,,2,,,50,127
31670,note_on,1,0,0,,6,,,54,127
31790,note_off,120,0,0,,6,,,54,127
31791,note_on,1,0,0,,10,,,57,127
31911,note_off,120,0,0,,10,,,57,127
31912,note_on,1,0,0,,2,,,62,127
32032,note_off,120,0,0,,2,,,62,127
32032,note_off,0,0,0,,6,,,78,127
32032,note_off,0,0,0,,2,,,74,127
32033,note_on,1,0,0,,2,,,74,127
32276,note_on,243,0,0,,6,,,78,127
32517,note_off,241,0,0,,6,,,78,127
32518,note_on,1,0,0,,4,,,76,127
32518,note_on,0,0,0,,7,,,79,127
32759,note_off,241,0,0,,7,,,79,127
32759,note_off,0,0,0,,2,,,74,127
32760,note_on,1,0,0,,1,,,73,127
32760,note_on,0,0,0,,10,,,81,127
32997,note_off,237,0,0,,4,,,76,127
33001,note_off,4,0,0,,10,,,81,127
33001,note_off,0,0,0,,1,,,73,127
33002,note_on,1,0,0,,12,,,71,127
33002,note_on,0,0,0,,2,,,74,127
33243,note_off,241,0,0,,2,,,74,127
33243,note_off,0,0,0,,12,,,71,127
33244,note_on,1,0,0,,6,,,66,127
33244,note_on,0,0,0,,2,,,86,127
33364,note_off,120,0,0,,2,,,86,127
33365,note_on,1,0,0,,4,,,76,127
33485,note_off,120,0,0,,4,,,76,127
33485,note_off,0,0,0,,6,,,66,127
33486,note_on,1,0,0,,7,,,67,127
33486,note_on,0,0,0,,4,,,76,127
33606,note_off,120,0,0,,4,,,76,127
33607,note_on,1,0,0,,6,,,78,127
33727,note_off,120,0,0,,6,,,78,127
33727,note_off,0,0,0,,7,,,67,127
33728,note_on,1,0,0,,10,,,69,127
33728,note_on,0,0,0,,6,,,78,127
33848,note_off,120,0,0,,6,,,78,127
33849,note_on,1,0,0,,7,,,79,127
33969,note_off,120,0,0,,7,,,79,127
33970,note_on,1,0,0,,6,,,78,127
34090,note_off,120,0,0,,10,,,69,127
34091,note_on,1,0,0,,2,,,38,127
34211,note_off,120,0,0,,2,,,38,127
34212,note_on,1,0,0,,6,,,42,127
34332,note_off,120,0,0,,6,,,42,127
34333,note_on,1,0,0,,10,,,45,127
34453,note_off,120,0,0,,10,,,45,127
34454,note_on,1,0,0,,2,,,50,127
34574,note_off,120,0,0,,2,,,50,127
34575,note_on,1,0,0,,6,,,54,127
34695,note_off,120,0,0,,6,,,54,127
34696,note_on,1,0,0,,10,,,57,127
34816,note_off,120,0,0,,10,,,57,127
34817,note_on,1,0,0,,2,,,62,127
34937,note_off,120,0,0,,2,,,62,127
34937,note_off,0,0,0,,6,,,78,127
34938,note_on,1,0,0,,2,,,74,127
35181,note_on,243,0,0,,6,,,78,127
35422,note_off,241,0,0,,6,,,78,127
35423,note_on,1,0,0,,4,,,76,127
35423,note_on,0,0,0,,7,,,79,127
35664,note_off,241,0,0,,7,,,79,127
35664,note_off,0,0,0,,2,,,74,127
35665,note_on,1,0,0,,1,,,73,127
35665,note_on,0,0,0,,10,,,81,127
35902,note_off,237,0,0,,4,,,76,127
35906,note_off,4,0,0,,10,,,81,127
35906,note_off,0,0,0,,1,,,73,127
35907,note_on,1,0,0,,12,,,71,127
35907,note_on,0,0,0,,2,,,74,127
36148,note_off,241,0,0,,2,,,74,127
36148,note_off,0,0,0,,12,,,71,127
36149,note_on,1,0,0,,6,,,66,127
36149,note_on,0,0,0,,2,,,86,127
36269,note_off,120,0,0,,2,,,86,127
36270,note_on,1,0,0,,4,,,76,127
36390,note_off,120,0,0,,4,,,76,127
36390,note_off,0,0,0,,6,,,66,127
36391,note_on,1,0,0,,7,,,67,127
36391,note_on,0,0,0,,4,,,76,127
36511,note_off,120,0,0,,4,,,76,127
36512,note_on,1,0,0,,6,,,78,127
36632,note_off,120,0,0,,6,,,78,127
36632,note_off,0,0,0,,7,,,67,127
36633,note_on,1,0,0,,10,,,69,127
36633,note_on,0,0,0,,6,,,78,127
36753,note_off,120,0,0,,6,,,78,127
36754,note_on,1,0,0,,7,,,79,127
36874,note_off,120,0,0,,7,,,79,127
36874,note_off,0,0,0,,10,,,69,127
36875,note_on,1,0,0,,2,,,62,127
36875,note_on,0,0,0,,6,,,78,127
36995,note_off,120,0,0,,6,,,78,127
36996,note_on,1,0,0,,2,,,86,127
37116,note_off,120,0,0,,2,,,86,127
37116,note_off,0,0,0,,2,,,62,127
37117,note_on,1,0,0,,10,,,69,127
37117,note_on,0,0,0,,1,,,85,127
37238,note_on,121,0,0,,1,,,73,127
37357,note_off,119,0,0,,1,,,85,127
37358,note_off,1,0,0,,1,,,73,127
37358,note_off,0,0,0,,10,,,69,127
37359,note_on,1,0,0,,7,,,67,127
37359,note_on,0,0,0,,12,,,71,127
37480,note_on,121,0,0,,12,,,83,127
37541,note_off,61,0,0,,12,,,71,127
37600,note_off,59,0,0,,12,,,83,127
37600,note_off,0,0,0,,7,,,67,127
37601,note_on,1,0,0,,6,,,66,127
37601,note_on,0,0,0,,10,,,81,127
37722,note_on,121,0,0,,10,,,69,127
37841,note_off,119,0,0,,10,,,81,127
37842,note_off,1,0,0,,10,,,69,127
37842,note_off,0,0,0,,6,,,66,127
37843,note_on,1,0,0,,4,,,64,127
37843,note_on,0,0,0,,7,,,67,127
37964,note_on,121,0,0,,7,,,79,127
38025,note_off,61,0,0,,7,,,67,127
38084,note_off,59,0,0,,7,,,79,127
38084,note_off,0,0,0,,4,,,64,127
38085,note_on,1,0,0,,2,,,62,127
38085,note_on,0,0,0,,6,,,78,127
38206,note_on,121,0,0,,6,,,66,127
38325,note_off,119,0,0,,6,,,78,127
38326,note_off,1,0,0,,6,,,66,127
38326,note_off,0,0,0,,2,,,62,127
38327,note_on,1,0,0,,1,,,61,127
38327,note_on,0,0,0,,4,,,64,127
38448,note_on,121,0,0,,4,,,76,127
38509,note_off,61,0,0,,4,,,64,127
38568,note_off,59,0,0,,4,,,76,127
38568,note_off,0,0,0,,1,,,61,127
38569,note_on,1,0,0,,12,,,59,127
38569,note_on,0,0,0,,2,,,74,127
38690,note_on,121,0,0,,2,,,62,127
38809,note_off,119,0,0,,2,,,74,127
38810,note_off,1,0,0,,2,,,62,127
38810,note_off,0,0,0,,12,,,59,127
38811,note_on,1,0,0,,10,,,57,127
38811,note_on,0,0,0,,1,,,73,127
38931,note_off,120,0,0,,10,,,57,127
38932,note_on,1,0,0,,10,,,69,127
39052,note_off,120,0,0,,10,,,69,127
39052,note_off,0,0,0,,1,,,73,127
39053,note_on,1,0,0,,7,,,67,127
39053,note_on,0,0,0,,12,,,71,127
39173,note_off,120,0,0,,7,,,67,127
39174,note_on,1,0,0,,7,,,55,127
39294,note_off,120,0,0,,7,,,55,127
39294,note_off,0,0,0,,12,,,71,127
39295,note_on,1,0,0,,6,,,54,127
39295,note_on,0,0,0,,10,,,69,127
39415,note_off,120,0,0,,6,,,54,127
39416,note_on,1,0,0,,6,,,66,127
39536,note_off,120,0,0,,6,,,66,127
39536,note_off,0,0,0,,10,,,69,127
39537,note_on,1,0,0,,4,,,64,127
39537,note_on,0,0,0,,7,,,67,127
39657,note_off,120,0,0,,4,,,64,127
39658,note_on,1,0,0,,4,,,52,127
39778,note_off,120,0,0,,4,,,52,127
39779,note_on,1,0,0,,2,,,50,127
39899,note_off,120,0,0,,7,,,67,127
39900,note_on,1,0,0,,6,,,66,127
40020,note_off,120,0,0,,6,,,66,127
40020,note_off,0,0,0,,2,,,50,127
40021,note_on,1,0,0,,7,,,55,127
40021,note_on,0,0,0,,7,,,67,127
40181,note_off,160,0,0,,7,,,67,127
40182,note_on,1,0,0,,10,,,69,127
40262,note_off,80,0,0,,7,,,55,127
40263,note_off,1,0,0,,10,,,69,127
40263,note_on,0,0,0,,10,,,57,127
40263,note_on,0,0,0,,2,,,62,127
40504,note_off,241,0,0,,2,,,62,127
40504,note_off,0,0,0,,10,,,57,127
40505,note_on,1,0,0,,10,,,45,127
40505,note_on,0,0,0,,2,,,62,127
40564,note_off,59,0,0,,2,,,62,127
40565,note_on,1,0,0,,1,,,61,127
40624,note_off,59,0,0,,1,,,61,127
40625,note_on,1,0,0,,12,,,59,127
40684,note_off,59,0,0,,12,,,59,127
40685,note_on,1,0,0,,1,,,61,127
40743,note_off,58,0,0,,1,,,61,127
40744,note_off,1,0,0,,10,,,45,127
40745,note_on,1,0,0,,2,,,62,127
40866,note_on,121,0,0,,2,,,86,127
40986,note_off,120,0,0,,2,,,86,127
40986,note_off,0,0,0,,2,,,62,127
40987,note_on,1,0,0,,10,,,69,127
40987,note_on,0,0,0,,1,,,85,127
41107,note_off,120,0,0,,1,,,85,127
41108,note_on,1,0,0,,1,,,73,127
41228,note_off,120,0,0,,1,,,73,127
41228,note_off,0,0,0,,10,,,69,127
41229,note_on,1,0,0,,7,,,67,127
41229,note_on,0,0,0,,12,,,71,127
41349,note_off,120,0,0,,12,,,71,127
41350,note_on,1,0,0,,12,,,83,127
41470,note_off,120,0,0,,12,,,83,127
41470,note_off,0,0,0,,7,,,67,127
41471,note_on,1,0,0,,6,,,66,127
41471,note_on,0,0,0,,10,,,81,127
41591,note_off,120,0,0,,10,,,81,127
41592,note_on,1,0,0,,10,,,69,127
41712,note_off,120,0,0,,10,,,69,127
41712,note_off,0,0,0,,6,,,66,127
41713,note_on,1,0,0,,4,,,64,127
41713,note_on,0,0,0,,7,,,67,127
41833,note_off,120,0,0,,7,,,67,127
41834,note_on,1,0,0,,7,,,79,127
41954,note_off,120,0,0,,7,,,79,127
41954,note_off,0,0,0,,4,,,64,127
41955,note_on,1,0,0,,2,,,62,127
41955,note_on,0,0,0,,6,,,78,127
42075,note_off,120,0,0,,6,,,78,127
42076,note_on,1,0,0,,6,,,66,127
42196,note_off,120,0,0,,6,,,66,127
42196,note_off,0,0,0,,2,,,62,127
42197,note_on,1,0,0,,1,,,61,127
42197,note_on,0,0,0,,4,,,64,127
42317,note_off,120,0,0,,4,,,64,127
42318,note_on,1,0,0,,4,,,76,127
42438,note_off,120,0,0,,4,,,76,127
42438,note_off,0,0,0,,1,,,61,127
42439,note_on,1,0,0,,12,,,59,127
42439,note_on,0,0,0,,2,,,74,127
42559,note_off,120,0,0,,2,,,74,127
42560,note_on,1,0,0,,2,,,62,127
42680,note_off,120,0,0,,2,,,62,127
42680,note_off,0,0,0,,12,,,59,127
42681,note_on,1,0,0,,10,,,57,127
42681,note_on,0,0,0,,1,,,73,127
42802,note_on,121,0,0,,10,,,69,127
42863,note_off,61,0,0,,10,,,57,127
42922,note_off,59,0,0,,10,,,69,127
42922,note_off,0,0,0,,1,,,73,127
42923,note_on,1,0,0,,7,,,67,127
42923,note_on,0,0,0,,12,,,71,127
43044,note_on,121,0,0,,7,,,55,127
43163,note_off,119,0,0,,7,,,67,127
43164,note_off,1,0,0,,7,,,55,127
43164,note_off,0,0,0,,12,,,71,127
43165,note_on,1,0,0,,6,,,54,127
43165,note_on,0,0,0,,10,,,69,127
43286,note_on,121,0,0,,6,,,66,127
43347,note_off,61,0,0,,6,,,54,127
43406,note_off,59,0,0,,6,,,66,127
43406,note_off,0,0,0,,10,,,69,127
43407,note_on,1,0,0,,4,,,64,127
43407,note_on,0,0,0,,7,,,67,127
43528,note_on,121,0,0,,4,,,52,127
43647,note_off,119,0,0,,4,,,64,127
43648,note_off,1,0,0,,4,,,52,127
43649,note_on,1,0,0,,2,,,50,127
43769,note_off,120,0,0,,7,,,67,127
43770,note_on,1,0,0,,6,,,66,127
43890,note_off,120,0,0,,6,,,66,127
43890,note_off,0,0,0,,2,,,50,127
43891,note_on,1,0,0,,7,,,55,127
43891,note_on,0,0,0,,7,,,67,127
44011,note_off,120,0,0,,7,,,67,127
44012,note_on,1,0,0,,10,,,69,127
44132,note_off,120,0,0,,10,,,69,127
44132,note_off,0,0,0,,7,,,55,127
44133,note_on,1,0,0,,10,,,57,127
44133,note_on,0,0,0,,2,,,62,127
44374,note_off,241,0,0,,2,,,62,127
44374,note_off,0,0,0,,10,,,57,127
44375,note_on,1,0,0,,10,,,45,127
44375,note_on,0,0,0,,2,,,62,127
44434,note_off,59,0,0,,2,,,62,127
44435,note_on,1,0,0,,1,,,61,127
44494,note_off,59,0,0,,1,,,61,127
44495,note_on,1,0,0,,12,,,59,127
44554,note_off,59,0,0,,12,,,59,127
44555,note_on,1,0,0,,1,,,61,127
44614,note_off,59,0,0,,1,,,61,127
44614,note_off,0,0,0,,10,,,45,127
44615,note_on,1,0,0,,2,,,50,127
44615,note_on,0,0,0,,2,,,62,127
44716,note_off,101,0,0,,2,,,62,127
44797,note_on,81,0,0,,7,,,79,127
44856,note_off,59,0,0,,7,,,79,127
44857,note_on,1,0,0,,6,,,78,127
44916,note_off,59,0,0,,6,,,78,127
44917,note_on,1,0,0,,4,,,76,127
44976,note_off,59,0,0,,4,,,76,127
44977,note_on,1,0,0,,6,,,78,127
45036,note_off,59,0,0,,6,,,78,127
45037,note_on,1,0,0,,7,,,79,127
45093,note_off,56,0,0,,2,,,50,127
45097,note_off,4,0,0,,7,,,79,127
45098,note_on,1,0,0,,10,,,81,127
45339,note_off,241,0,0,,10,,,81,127
45340,note_on,1,0,0,,6,,,66,127
45340,note_on,0,0,0,,12,,,83,127
45581,note_off,241,0,0,,12,,,83,127
45581,note_off,0,0,0,,6,,,66,127
45582,note_on,1,0,0,,7,,,67,127
45582,note_on,0,0,0,,10,,,81,127
45702,note_off,120,0,0,,10,,,81,127
45703,note_on,1,0,0,,7,,,79,127
45823,note_off,120,0,0,,7,,,79,127
45823,note_off,0,0,0,,7,,,67,127
45824,note_on,1,0,0,,12,,,71,127
45824,note_on,0,0,0,,6,,,78,127
45944,note_off,120,0,0,,6,,,78,127
45945,note_on,1,0,0,,4,,,76,127
46065,note_off,120,0,0,,4,,,76,127
46065,note_off,0,0,0,,12,,,71,127
46066,note_on,1,0,0,,10,,,69,127
46066,note_on,0,0,0,,2,,,74,127
46307,note_off,241,0,0,,2,,,74,127
46307,note_off,0,0,0,,10,,,69,127
46308,note_on,1,0,0,,10,,,57,127
46308,note_on,0,0,0,,1,,,73,127
46549,note_off,241,0,0,,1,,,73,127
46549,note_off,0,0,0,,10,,,57,127
46550,note_on,1,0,0,,2,,,62,127
46550,note_on,0,0,0,,2,,,74,127
46731,note_off,181,0,0,,2,,,74,127
46732,note_on,1,0,0,,7,,,67,127
46791,note_off,59,0,0,,7,,,67,127
46792,note_on,1,0,0,,6,,,66,127
46851,note_off,59,0,0,,6,,,66,127
46852,note_on,1,0,0,,4,,,64,127
46911,note_off,59,0,0,,4,,,64,127
46912,note_on,1,0,0,,6,,,66,127
46971,note_off,59,0,0,,6,,,66,127
46972,note_on,1,0,0,,7,,,67,127
47031,note_off,59,0,0,,7,,,67,127
47032,note_on,1,0,0,,10,,,69,127
47153,note_off,121,0,0,,2,,,62,127
47273,note_off,120,0,0,,10,,,69,127
47274,note_on,1,0,0,,6,,,54,127
47274,note_on,0,0,0,,12,,,71,127
47515,note_off,241,0,0,,12,,,71,127
47515,note_off,0,0,0,,6,,,54,127
47516,note_on,1,0,0,,7,,,55,127
47516,note_on,0,0,0,,10,,,69,127
47636,note_off,120,0,0,,10,,,69,127
47637,note_on,1,0,0,,7,,,67,127
47757,note_off,120,0,0,,7,,,67,127
47757,note_off,0,0,0,,7,,,55,127
47758,note_on,1,0,0,,12,,,59,127
47758,note_on,0,0,0,,6,,,66,127
47878,note_off,120,0,0,,6,,,66,127
47879,note_on,1,0,0,,4,,,64,127
47999,note_off,120,0,0,,4,,,64,127
47999,note_off,0,0,0,,12,,,59,127
48000,note_on,1,0,0,,10,,,57,127
48000,note_on,0,0,0,,2,,,62,127
48241,note_off,241,0,0,,2,,,62,127
48241,note_off,0,0,0,,10,,,57,127
48242,note_on,1,0,0,,10,,,45,127
48242,note_on,0,0,0,,1,,,61,127
48483,note_off,241,0,0,,1,,,61,127
48483,note_off,0,0,0,,10,,,45,127
48484,note_on,1,0,0,,2,,,38,127
48484,note_on,0,0,0,,2,,,62,127
49210,note_off,726,0,0,,2,,,62,127
49453,note_off,243,0,0,,2,,,38,127
49454,note_on,1,0,0,,2,,,62,127
49575,note_on,121,0,0,,2,,,38,127
49695,note_off,120,0,0,,2,,,38,127
49696,note_on,1,0,0,,6,,,42,127
49816,note_off,120,0,0,,6,,,42,127
49817,note_on,1,0,0,,10,,,45,127
49937,note_off,120,0,0,,10,,,45,127
49938,note_on,1,0,0,,2,,,50,127
50058,note_off,120,0,0,,2,,,50,127
50059,note_on,1,0,0,,6,,,54,127
50179,note_off,120,0,0,,6,,,54,127
50180,note_on,1,0,0,,10,,,57,127
50286,note_off,106,0,0,,2,,,62,127
50300,note_off,14,0,0,,10,,,57,127
50301,note_on,1,0,0,,2,,,62,127
50421,note_off,120,0,0,,2,,,62,127
50422,note_on,1,0,0,,2,,,74,127
50665,note_on,243,0,0,,3,,,75,127
50906,note_off,241,0,0,,3,,,75,127
50907,note_on,1,0,0,,4,,,76,127
51148,note_off,241,0,0,,2,,,74,127
51149,note_on,1,0,0,,0,,,72,127
51390,note_off,241,0,0,,4,,,76,127
51391,note_on,1,0,0,,6,,,78,127
51632,note_off,241,0,0,,6,,,78,127
51632,note_off,0,0,0,,0,,,72,127
51633,note_on,1,0,0,,12,,,71,127
51633,note_on,0,0,0,,7,,,79,127
51874,note_off,241,0,0,,7,,,79,127
51874,note_off,0,0,0,,12,,,71,127
51875,note_on,1,0,0,,10,,,69,127
51875,note_on,0,0,0,,0,,,72,127
51875,note_on,0,0,0,,10,,,81,127
52116,note_off,241,0,0,,10,,,81,127
52116,note_off,0,0,0,,0,,,72,127
52116,note_off,0,0,0,,10,,,69,127
52117,note_on,1,0,0,,7,,,67,127
52117,note_on,0,0,0,,12,,,71,127
52117,note_on,0,0,0,,12,,,83,127
52358,note_off,241,0,0,,12,,,83,127
52358,note_off,0,0,0,,12,,,71,127
52358,note_off,0,0,0,,7,,,67,127
52359,note_on,1,0,0,,6,,,66,127
52359,note_on,0,0,0,,10,,,69,127
52359,note_on,0,0,0,,0,,,84,127
52600,note_off,241,0,0,,10,,,69,127
52600,note_off,0,0,0,,6,,,66,127
52601,note_on,1,0,0,,7,,,67,127
52601,note_on,0,0,0,,4,,,64,127
52842,note_off,241,0,0,,4,,,64,127
52842,note_off,0,0,0,,7,,,67,127
52843,note_on,1,0,0,,3,,,63,127
52843,note_on,0,0,0,,6,,,66,127
53084,note_off,241,0,0,,0,,,84,127
53085,note_on,1,0,0,,12,,,83,127
53205,note_off,120,0,0,,12,,,83,127
53206,note_on,1,0,0,,10,,,81,127
53326,note_off,120,0,0,,10,,,81,127
53326,note_off,0,0,0,,6,,,66,127
53326,note_off,0,0,0,,3,,,63,127
53327,note_on,1,0,0,,4,,,64,127
53327,note_on,0,0,0,,7,,,67,127
53327,note_on,0,0,0,,7,,,79,127
53568,note_off,241,0,0,,7,,,79,127
53568,note_off,0,0,0,,7,,,67,127
53568,note_off,0,0,0,,4,,,64,127
53569,note_on,1,0,0,,12,,,59,127
53569,note_on,0,0,0,,12,,,71,127
53569,note_on,0,0,0,,6,,,78,127
53810,note_off,241,0,0,,6,,,78,127
53810,note_off,0,0,0,,12,,,59,127
53811,note_on,1,0,0,,0,,,60,127
53811,note_on,0,0,0,,6,,,78,127
53870,note_off,59,0,0,,6,,,78,127
53871,note_on,1,0,0,,4,,,76,127
53930,note_off,59,0,0,,4,,,76,127
53931,note_off,1,0,0,,12,,,71,127
53931,note_on,0,0,0,,6,,,78,127
53990,note_off,59,0,0,,6,,,78,127
53991,note_on,1,0,0,,4,,,76,127
54050,note_off,59,0,0,,4,,,76,127
54051,note_on,1,0,0,,6,,,78,127
54051,note_on,0,0,0,,10,,,69,127
54110,note_off,59,0,0,,6,,,78,127
54111,note_on,1,0,0,,4,,,76,127
54170,note_off,59,0,0,,4,,,76,127
54171,note_on,1,0,0,,3,,,75,127
54230,note_off,59,0,0,,3,,,75,127
54231,note_off,1,0,0,,10,,,69,127
54231,note_on,0,0,0,,4,,,76,127
54287,note_off,56,0,0,,0,,,60,127
54291,note_off,4,0,0,,4,,,76,127
54292,note_on,1,0,0,,4,,,76,127
54413,note_on,121,0,0,,12,,,35,127
54533,note_off,120,0,0,,12,,,35,127
54534,note_on,1,0,0,,3,,,39,127
54654,note_off,120,0,0,,3,,,39,127
54655,note_on,1,0,0,,6,,,42,127
54775,note_off,120,0,0,,6,,,42,127
54775,note_off,0,0,0,,4,,,76,127
54776,note_on,1,0,0,,12,,,47,127
54776,note_on,0,0,0,,6,,,78,127
54896,note_off,120,0,0,,12,,,47,127
54897,note_on,1,0,0,,3,,,51,127
55017,note_off,120,0,0,,3,,,51,127
55018,note_on,1,0,0,,6,,,54,127
55138,note_off,120,0,0,,6,,,54,127
55139,note_on,1,0,0,,12,,,59,127
55255,note_off,116,0,0,,6,,,78,127
55259,note_off,4,0,0,,12,,,59,127
55260,note_on,1,0,0,,12,,,71,127
55503,note_on,243,0,0,,3,,,75,127
55744,note_off,241,0,0,,3,,,75,127
55745,note_on,1,0,0,,4,,,76,127
55745,note_on,0,0,0,,0,,,72,127
55986,note_off,241,0,0,,4,,,76,127
55986,note_off,0,0,0,,12,,,71,127
55987,note_on,1,0,0,,10,,,69,127
55987,note_on,0,0,0,,6,,,78,127
56224,note_off,237,0,0,,0,,,72,127
56228,note_off,4,0,0,,6,,,78,127
56229,note_on,1,0,0,,12,,,71,127
56470,note_off,241,0,0,,10,,,69,127
56471,note_on,1,0,0,,7,,,67,127
56471,note_on,0,0,0,,12,,,83,127
56592,note_off,121,0,0,,12,,,71,127
56592,note_on,0,0,0,,1,,,73,127
56712,note_off,120,0,0,,1,,,73,127
56712,note_off,0,0,0,,7,,,67,127
56713,note_on,1,0,0,,6,,,66,127
56713,note_on,0,0,0,,3,,,75,127
56834,note_off,121,0,0,,12,,,83,127
56834,note_on,0,0,0,,10,,,81,127
56953,note_off,119,0,0,,3,,,75,127
56954,note_off,1,0,0,,6,,,66,127
56955,note_on,1,0,0,,4,,,64,127
56955,note_on,0,0,0,,4,,,76,127
57074,note_off,119,0,0,,10,,,81,127
57077,note_on,3,0,0,,7,,,79,127
57196,note_off,119,0,0,,4,,,76,127
57196,note_off,0,0,0,,4,,,64,127
57197,note_off,1,0,0,,7,,,79,127
57198,note_on,1,0,0,,4,,,76,127
57198,note_on,0,0,0,,7,,,79,127
57319,note_on,121,0,0,,12,,,35,127
57439,note_off,120,0,0,,12,,,35,127
57440,note_on,1,0,0,,3,,,39,127
57560,note_off,120,0,0,,3,,,39,127
57561,note_on,1,0,0,,6,,,42,127
57681,note_off,120,0,0,,6,,,42,127
57681,note_off,0,0,0,,7,,,79,127
57681,note_off,0,0,0,,4,,,76,127
57682,note_on,1,0,0,,12,,,47,127
57682,note_on,0,0,0,,6,,,78,127
57682,note_on,0,0,0,,3,,,75,127
57802,note_off,120,0,0,,12,,,47,127
57803,note_on,1,0,0,,3,,,51,127
57923,note_off,120,0,0,,3,,,51,127
57924,note_on,1,0,0,,6,,,54,127
58044,note_off,120,0,0,,6,,,54,127
58045,note_on,1,0,0,,12,,,59,127
58161,note_off,116,0,0,,3,,,75,127
58161,note_off,0,0,0,,6,,,78,127
58165,note_off,4,0,0,,12,,,59,127
58166,note_on,1,0,0,,12,,,71,127
58409,note_on,243,0,0,,3,,,75,127
58650,note_off,241,0,0,,3,,,75,127
58651,note_on,1,0,0,,4,,,76,127
58651,note_on,0,0,0,,0,,,72,127
58892,note_off,241,0,0,,4,,,76,127
58892,note_off,0,0,0,,12,,,71,127
58893,note_on,1,0,0,,10,,,69,127
58893,note_on,0,0,0,,6,,,78,127
59130,note_off,237,0,0,,0,,,72,127
59134,note_off,4,0,0,,6,,,78,127
59135,note_on,1,0,0,,12,,,71,127
59376,note_off,241,0,0,,10,,,69,127
59377,note_on,1,0,0,,7,,,67,127
59377,note_on,0,0,0,,12,,,83,127
59498,note_off,121,0,0,,12,,,71,127
59498,note_on,0,0,0,,0,,,72,127
59618,note_off,120,0,0,,0,,,72,127
59618,note_off,0,0,0,,7,,,67,127
59619,note_on,1,0,0,,5,,,65,127
59619,note_on,0,0,0,,2,,,74,127
59740,note_off,121,0,0,,12,,,83,127
59740,note_on,0,0,0,,0,,,84,127
59860,note_off,120,0,0,,0,,,84,127
59861,note_on,1,0,0,,12,,,83,127
59981,note_off,120,0,0,,12,,,83,127
59982,note_off,1,0,0,,2,,,74,127
59982,note_on,0,0,0,,10,,,81,127
60102,note_off,120,0,0,,10,,,81,127
60102,note_off,0,0,0,,5,,,65,127
60103,note_on,1,0,0,,4,,,64,127
60103,note_on,0,0,0,,8,,,80,127
60344,note_off,241,0,0,,8,,,80,127
60345,note_on,1,0,0,,4,,,76,127
60345,note_on,0,0,0,,8,,,80,127
60586,note_off,241,0,0,,8,,,80,127
60586,note_off,0,0,0,,4,,,64,127
60587,note_on,1,0,0,,5,,,65,127
60587,note_on,0,0,0,,12,,,83,127
60646,note_off,59,0,0,,12,,,83,127
60647,note_on,1,0,0,,10,,,81,127
60706,note_off,59,0,0,,10,,,81,127
60707,note_on,1,0,0,,12,,,83,127
60766,note_off,59,0,0,,12,,,83,127
60767,note_on,1,0,0,,10,,,81,127
60823,note_off,56,0,0,,4,,,76,127
60827,note_off,4,0,0,,10,,,81,127
60828,note_on,1,0,0,,2,,,74,127
60828,note_on,0,0,0,,12,,,83,127
60887,note_off,59,0,0,,12,,,83,127
60888,note_on,1,0,0,,10,,,81,127
60947,note_off,59,0,0,,10,,,81,127
60948,note_on,1,0,0,,8,,,80,127
61007,note_off,59,0,0,,8,,,80,127
61008,note_on,1,0,0,,10,,,81,127
61064,note_off,56,0,0,,5,,,65,127
61067,note_off,3,0,0,,2,,,74,127
61068,note_off,1,0,0,,10,,,81,127
61069,note_on,1,0,0,,12,,,83,127
61190,note_on,121,0,0,,4,,,40,127
61310,note_off,120,0,0,,4,,,40,127
61311,note_on,1,0,0,,8,,,44,127
61431,note_off,120,0,0,,8,,,44,127
61432,note_on,1,0,0,,12,,,47,127
61552,note_off,120,0,0,,12,,,47,127
61553,note_on,1,0,0,,4,,,52,127
61673,note_off,120,0,0,,4,,,52,127
61674,note_on,1,0,0,,8,,,56,127
61794,note_off,120,0,0,,8,,,56,127
61795,note_on,1,0,0,,12,,,59,127
61915,note_off,120,0,0,,12,,,59,127
61916,note_on,1,0,0,,4,,,64,127
62036,note_off,120,0,0,,4,,,64,127
62037,note_on,1,0,0,,4,,,76,127
62278,note_off,241,0,0,,12,,,83,127
62279,note_on,1,0,0,,8,,,80,127
62520,note_off,241,0,0,,8,,,80,127
62521,note_on,1,0,0,,5,,,77,127
62521,note_on,0,0,0,,10,,,81,127
62762,note_off,241,0,0,,10,,,81,127
62762,note_off,0,0,0,,4,,,76,127
62763,note_on,1,0,0,,2,,,74,127
62763,note_on,0,0,0,,12,,,83,127
63000,note_off,237,0,0,,5,,,77,127
63004,note_off,4,0,0,,12,,,83,127
63005,note_on,1,0,0,,4,,,76,127
63246,note_off,241,0,0,,4,,,76,127
63246,note_off,0,0,0,,2,,,74,127
63247,note_on,1,0,0,,0,,,72,127
63247,note_on,0,0,0,,10,,,81,127
63488,note_off,241,0,0,,0,,,72,127
63489,note_on,1,0,0,,12,,,71,127
63609,note_off,120,0,0,,10,,,81,127
63610,note_on,1,0,0,,12,,,83,127
63730,note_off,120,0,0,,12,,,83,127
63730,note_off,0,0,0,,12,,,71,127
63731,note_on,1,0,0,,4,,,64,127
63731,note_on,0,0,0,,0,,,84,127
63851,note_off,120,0,0,,0,,,84,127
63852,note_on,1,0,0,,2,,,86,127
63972,note_off,120,0,0,,2,,,86,127
63972,note_off,0,0,0,,4,,,64,127
63973,note_on,1,0,0,,10,,,69,127
63973,note_on,0,0,0,,2,,,86,127
64093,note_off,120,0,0,,2,,,86,127
64094,note_on,1,0,0,,0,,,84,127
64214,note_off,120,0,0,,0,,,84,127
64214,note_off,0,0,0,,10,,,69,127
64215,note_on,1,0,0,,12,,,71,127
64215,note_on,0,0,0,,0,,,84,127
64335,note_off,120,0,0,,0,,,84,127
64336,note_on,1,0,0,,12,,,83,127
64456,note_off,120,0,0,,12,,,83,127
64456,note_off,0,0,0,,12,,,71,127
64457,note_on,1,0,0,,0,,,72,127
64457,note_on,0,0,0,,12,,,83,127
64577,note_off,120,0,0,,12,,,83,127
64578,note_on,1,0,0,,10,,,81,127
64698,note_off,120,0,0,,10,,,81,127
64698,note_off,0,0,0,,0,,,72,127
64699,note_on,1,0,0,,10,,,69,127
64699,note_on,0,0,0,,10,,,81,127
64819,note_off,120,0,0,,10,,,81,127
64820,note_on,1,0,0,,7,,,79,127
64940,note_off,120,0,0,,7,,,79,127
64940,note_off,0,0,0,,10,,,69,127
64941,note_on,1,0,0,,2,,,62,127
64941,note_on,0,0,0,,7,,,79,127
65061,note_off,120,0,0,,7,,,79,127
65062,note_on,1,0,0,,6,,,78,127
65182,note_off,120,0,0,,6,,,78,127
65182,note_off,0,0,0,,2,,,62,127
65183,note_on,1,0,0,,4,,,64,127
65183,note_on,0,0,0,,6,,,78,127
65303,note_off,120,0,0,,6,,,78,127
65304,note_on,1,0,0,,4,,,76,127
65424,note_off,120,0,0,,4,,,76,127
65424,note_off,0,0,0,,4,,,64,127
65425,note_on,1,0,0,,6,,,66,127
65425,note_on,0,0,0,,4,,,76,127
65545,note_off,120,0,0,,4,,,76,127
65546,note_on,1,0,0,,2,,,74,127
65666,note_off,120,0,0,,2,,,74,127
65666,note_off,0,0,0,,6,,,66,127
65667,note_on,1,0,0,,2,,,62,127
65667,note_on,0,0,0,,2,,,74,127
65787,note_off,120,0,0,,2,,,74,127
65788,note_on,1,0,0,,0,,,72,127
65908,note_off,120,0,0,,0,,,72,127
65908,note_off,0,0,0,,2,,,62,127
65909,note_on,1,0,0,,7,,,67,127
65909,note_on,0,0,0,,0,,,72,127
66029,note_off,120,0,0,,0,,,72,127
66030,note_on,1,0,0,,12,,,71,127
66150,note_off,120,0,0,,12,,,71,127
66150,note_off,0,0,0,,7,,,67,127
66151,note_on,1,0,0,,6,,,66,127
66151,note_on,0,0,0,,12,,,71,127
66271,note_off,120,0,0,,12,,,71,127
66272,note_on,1,0,0,,10,,,69,127
66392,note_off,120,0,0,,10,,,69,127
66392,note_off,0,0,0,,6,,,66,127
66393,note_on,1,0,0,,7,,,67,127
66393,note_on,0,0,0,,10,,,69,127
66513,note_off,120,0,0,,10,,,69,127
66514,note_on,1,0,0,,12,,,71,127
66634,note_off,120,0,0,,12,,,71,127
66634,note_off,0,0,0,,7,,,67,127
66635,note_on,1,0,0,,4,,,64,127
66635,note_on,0,0,0,,12,,,71,127
66755,note_off,120,0,0,,12,,,71,127
66756,note_on,1,0,0,,1,,,73,127
66875,note_off,119,0,0,,4,,,64,127
66876,note_off,1,0,0,,1,,,73,127
66877,note_on,1,0,0,,1,,,73,127
66998,note_on,121,0,0,,2,,,38,127
67118,note_off,120,0,0,,2,,,38,127
67119,note_on,1,0,0,,6,,,42,127
67239,note_off,120,0,0,,6,,,42,127
67240,note_on,1,0,0,,10,,,45,127
67360,note_off,120,0,0,,10,,,45,127
67360,note_off,0,0,0,,1,,,73,127
67361,note_on,1,0,0,,2,,,50,127
67361,note_on,0,0,0,,2,,,74,127
67481,note_off,120,0,0,,2,,,50,127
67482,note_on,1,0,0,,6,,,54,127
67602,note_off,120,0,0,,6,,,54,127
67603,note_on,1,0,0,,10,,,57,127
67723,note_off,120,0,0,,10,,,57,127
67724,note_on,1,0,0,,2,,,62,127
67840,note_off,116,0,0,,2,,,74,127
67844,note_off,4,0,0,,2,,,62,127
67845,note_on,1,0,0,,2,,,74,127
68088,note_on,243,0,0,,6,,,78,127
68329,note_off,241,0,0,,6,,,78,127
68330,note_on,1,0,0,,4,,,76,127
68330,note_on,0,0,0,,7,,,79,127
68571,note_off,241,0,0,,7,,,79,127
68571,note_off,0,0,0,,2,,,74,127
68572,note_on,1,0,0,,0,,,72,127
68572,note_on,0,0,0,,10,,,81,127
68809,note_off,237,0,0,,4,,,76,127
68813,note_off,4,0,0,,10,,,81,127
68814,note_on,1,0,0,,2,,,74,127
69055,note_off,241,0,0,,0,,,72,127
69056,note_on,1,0,0,,12,,,71,127
69056,note_on,0,0,0,,2,,,86,127
69177,note_off,121,0,0,,2,,,74,127
69177,note_on,0,0,0,,4,,,76,127
69297,note_off,120,0,0,,4,,,76,127
69297,note_off,0,0,0,,12,,,71,127
69298,note_on,1,0,0,,10,,,69,127
69298,note_on,0,0,0,,6,,,78,127
69419,note_off,121,0,0,,2,,,86,127
69419,note_on,0,0,0,,0,,,84,127
69538,note_off,119,0,0,,6,,,78,127
69539,note_off,1,0,0,,10,,,69,127
69540,note_on,1,0,0,,7,,,67,127
69540,note_on,0,0,0,,7,,,79,127
69659,note_off,119,0,0,,0,,,84,127
69662,note_on,3,0,0,,12,,,83,127
69781,note_off,119,0,0,,7,,,79,127
69781,note_off,0,0,0,,7,,,67,127
69782,note_off,1,0,0,,12,,,83,127
69783,note_on,1,0,0,,7,,,79,127
69783,note_on,0,0,0,,12,,,83,127
69904,note_on,121,0,0,,2,,,38,127
70024,note_off,120,0,0,,2,,,38,127
70025,note_on,1,0,0,,6,,,42,127
70145,note_off,120,0,0,,6,,,42,127
70146,note_on,1,0,0,,10,,,45,127
70266,note_off,120,0,0,,10,,,45,127
70266,note_off,0,0,0,,12,,,83,127
70266,note_off,0,0,0,,7,,,79,127
70267,note_on,1,0,0,,2,,,50,127
70267,note_on,0,0,0,,6,,,78,127
70267,note_on,0,0,0,,10,,,81,127
70387,note_off,120,0,0,,2,,,50,127
70388,note_on,1,0,0,,6,,,54,127
70508,note_off,120,0,0,,6,,,54,127
70509,note_on,1,0,0,,10,,,57,127
70629,note_off,120,0,0,,10,,,57,127
70630,note_on,1,0,0,,2,,,62,127
70746,note_off,116,0,0,,10,,,81,127
70746,note_off,0,0,0,,6,,,78,127
70750,note_off,4,0,0,,2,,,62,127
70751,note_on,1,0,0,,2,,,74,127
70994,note_on,243,0,0,,6,,,78,127
71235,note_off,241,0,0,,6,,,78,127
71236,note_on,1,0,0,,4,,,76,127
71236,note_on,0,0,0,,7,,,79,127
71477,note_off,241,0,0,,7,,,79,127
71477,note_off,0,0,0,,2,,,74,127
71478,note_on,1,0,0,,0,,,72,127
71478,note_on,0,0,0,,10,,,81,127
71715,note_off,237,0,0,,4,,,76,127
71719,note_off,4,0,0,,10,,,81,127
71720,note_on,1,0,0,,2,,,74,127
71961,note_off,241,0,0,,0,,,72,127
71962,note_on,1,0,0,,12,,,71,127
71962,note_on,0,0,0,,2,,,86,127
72083,note_off,121,0,0,,2,,,74,127
72083,note_on,0,0,0,,4,,,76,127
72203,note_off,120,0,0,,4,,,76,127
72203,note_off,0,0,0,,12,,,71,127
72204,note_on,1,0,0,,10,,,69,127
72204,note_on,0,0,0,,6,,,78,127
72325,note_off,121,0,0,,2,,,86,127
72325,note_on,0,0,0,,0,,,84,127
72444,note_off,119,0,0,,6,,,78,127
72445,note_off,1,0,0,,0,,,84,127
72445,note_off,0,0,0,,10,,,69,127
72446,note_on,1,0,0,,2,,,62,127
72446,note_on,0,0,0,,7,,,79,127
72446,note_on,0,0,0,,12,,,83,127
72566,note_off,120,0,0,,12,,,83,127
72566,note_off,0,0,0,,7,,,79,127
72567,note_on,1,0,0,,6,,,78,127
72567,note_on,0,0,0,,10,,,81,127
72687,note_off,120,0,0,,10,,,81,127
72687,note_off,0,0,0,,6,,,78,127
72687,note_off,0,0,0,,2,,,62,127
72688,note_on,1,0,0,,7,,,67,127
72688,note_on,0,0,0,,12,,,83,127
72808,note_off,120,0,0,,12,,,83,127
72809,note_on,1,0,0,,7,,,79,127
72929,note_off,120,0,0,,7,,,79,127
72929,note_off,0,0,0,,7,,,67,127
72930,note_on,1,0,0,,0,,,60,127
72930,note_on,0,0,0,,10,,,81,127
73050,note_off,120,0,0,,10,,,81,127
73051,note_on,1,0,0,,4,,,76,127
73171,note_off,120,0,0,,4,,,76,127
73171,note_off,0,0,0,,0,,,60,127
73172,note_on,1,0,0,,2,,,62,127
73172,note_on,0,0,0,,7,,,79,127
73413,note_off,241,0,0,,7,,,79,127
73413,note_off,0,0,0,,2,,,62,127
73414,note_on,1,0,0,,2,,,50,127
73414,note_on,0,0,0,,7,,,79,127
73473,note_off,59,0,0,,7,,,79,127
73474,note_on,1,0,0,,6,,,78,127
73533,note_off,59,0,0,,6,,,78,127
73534,note_on,1,0,0,,4,,,76,127
73593,note_off,59,0,0,,4,,,76,127
73594,note_on,1,0,0,,6,,,78,127
73653,note_off,59,0,0,,6,,,78,127
73653,note_off,0,0,0,,2,,,50,127
73654,note_on,1,0,0,,7,,,67,127
73654,note_on,0,0,0,,7,,,79,127
73774,note_off,120,0,0,,7,,,79,127
73775,note_on,1,0,0,,12,,,83,127
73895,note_off,120,0,0,,12,,,83,127
73895,note_off,0,0,0,,7,,,67,127
73896,note_on,1,0,0,,6,,,66,127
73896,note_on,0,0,0,,10,,,81,127
74017,note_on,121,0,0,,10,,,69,127
74136,note_off,119,0,0,,10,,,81,127
74137,note_off,1,0,0,,10,,,69,127
74137,note_off,0,0,0,,6,,,66,127
74138,note_on,1,0,0,,4,,,64,127
74138,note_on,0,0,0,,7,,,67,127
74259,note_on,121,0,0,,7,,,79,127
74320,note_off,61,0,0,,7,,,67,127
74379,note_off,59,0,0,,7,,,79,127
74379,note_off,0,0,0,,4,,,64,127
74380,note_on,1,0,0,,2,,,62,127
74380,note_on,0,0,0,,6,,,78,127
74501,note_on,121,0,0,,6,,,66,127
74620,note_off,119,0,0,,6,,,78,127
74621,note_off,1,0,0,,6,,,66,127
74621,note_off,0,0,0,,2,,,62,127
74622,note_on,1,0,0,,0,,,60,127
74622,note_on,0,0,0,,4,,,64,127
74743,note_on,121,0,0,,4,,,76,127
74804,note_off,61,0,0,,4,,,64,127
74863,note_off,59,0,0,,4,,,76,127
74863,note_off,0,0,0,,0,,,60,127
74864,note_on,1,0,0,,12,,,59,127
74864,note_on,0,0,0,,2,,,74,127
74985,note_on,121,0,0,,2,,,62,127
75104,note_off,119,0,0,,2,,,74,127
75105,note_off,1,0,0,,2,,,62,127
75105,note_off,0,0,0,,12,,,59,127
75106,note_on,1,0,0,,10,,,57,127
75106,note_on,0,0,0,,0,,,60,127
75227,note_on,121,0,0,,0,,,72,127
75288,note_off,61,0,0,,0,,,60,127
75347,note_off,59,0,0,,0,,,72,127
75347,note_off,0,0,0,,10,,,57,127
75348,note_on,1,0,0,,7,,,55,127
75348,note_on,0,0,0,,12,,,71,127
75469,note_on,121,0,0,,12,,,59,127
75588,note_off,119,0,0,,12,,,71,127
75589,note_off,1,0,0,,12,,,59,127
75589,note_off,0,0,0,,7,,,55,127
75590,note_on,1,0,0,,2,,,50,127
75590,note_on,0,0,0,,10,,,69,127
75711,note_on,121,0,0,,2,,,62,127
75772,note_off,61,0,0,,2,,,50,127
75831,note_off,59,0,0,,2,,,62,127
75831,note_off,0,0,0,,10,,,69,127
75832,note_on,1,0,0,,0,,,60,127
75832,note_on,0,0,0,,2,,,74,127
75953,note_on,121,0,0,,0,,,48,127
76072,note_off,119,0,0,,0,,,60,127
76073,note_off,1,0,0,,0,,,48,127
76074,note_on,1,0,0,,12,,,47,127
76195,note_on,121,0,0,,12,,,59,127
76256,note_off,61,0,0,,12,,,47,127
76315,note_off,59,0,0,,12,,,59,127
76315,note_off,0,0,0,,2,,,74,127
76316,note_on,1,0,0,,10,,,57,127
76316,note_on,0,0,0,,0,,,72,127
76437,note_on,121,0,0,,10,,,45,127
76543,note_off,106,0,0,,10,,,57,127
76557,note_off,14,0,0,,10,,,45,127
76558,note_on,1,0,0,,7,,,43,127
76678,note_off,120,0,0,,0,,,72,127
76679,note_on,1,0,0,,12,,,71,127
76799,note_off,120,0,0,,12,,,71,127
76799,note_off,0,0,0,,7,,,43,127
76800,note_on,1,0,0,,0,,,48,127
76800,note_on,0,0,0,,0,,,72,127
76960,note_off,160,0,0,,0,,,72,127
76961,note_on,1,0,0,,2,,,74,127
77041,note_off,80,0,0,,0,,,48,127
77042,note_off,1,0,0,,2,,,74,127
77042,note_on,0,0,0,,2,,,50,127
77042,note_on,0,0,0,,7,,,67,127
77283,note_off,241,0,0,,7,,,67,127
77283,note_off,0,0,0,,2,,,50,127
77284,note_on,1,0,0,,2,,,38,127
77284,note_on,0,0,0,,7,,,67,127
77343,note_off,59,0,0,,7,,,67,127
77344,note_on,1,0,0,,6,,,66,127
77403,note_off,59,0,0,,6,,,66,127
77404,note_on,1,0,0,,4,,,64,127
77463,note_off,59,0,0,,4,,,64,127
77464,note_on,1,0,0,,6,,,66,127
77522,note_off,58,0,0,,6,,,66,127
77523,note_off,1,0,0,,2,,,38,127
77524,note_on,1,0,0,,7,,,67,127
77645,note_on,121,0,0,,12,,,83,127
77765,note_off,120,0,0,,12,,,83,127
77765,note_off,0,0,0,,7,,,67,127
77766,note_on,1,0,0,,6,,,66,127
77766,note_on,0,0,0,,10,,,81,127
77886,note_off,120,0,0,,10,,,81,127
77887,note_on,1,0,0,,10,,,69,127
78007,note_off,120,0,0,,10,,,69,127
78007,note_off,0,0,0,,6,,,66,127
78008,note_on,1,0,0,,4,,,64,127
78008,note_on,0,0,0,,7,,,67,127
78128,note_off,120,0,0,,7,,,67,127
78129,note_on,1,0,0,,7,,,79,127
78249,note_off,120,0,0,,7,,,79,127
78249,note_off,0,0,0,,4,,,64,127
78250,note_on,1,0,0,,2,,,62,127
78250,note_on,0,0,0,,6,,,78,127
78370,note_off,120,0,0,,6,,,78,127
78371,note_on,1,0,0,,6,,,66,127
78491,note_off,120,0,0,,6,,,66,127
78491,note_off,0,0,0,,2,,,62,127
78492,note_on,1,0,0,,0,,,60,127
78492,note_on,0,0,0,,4,,,64,127
78612,note_off,120,0,0,,4,,,64,127
78613,note_on,1,0,0,,4,,,76,127
78733,note_off,120,0,0,,4,,,76,127
78733,note_off,0,0,0,,0,,,60,127
78734,note_on,1,0,0,,12,,,59,127
78734,note_on,0,0,0,,2,,,74,127
78854,note_off,120,0,0,,2,,,74,127
78855,note_on,1,0,0,,2,,,62,127
78975,note_off,120,0,0,,2,,,62,127
78975,note_off,0,0,0,,12,,,59,127
78976,note_on,1,0,0,,10,,,57,127
78976,note_on,0,0,0,,0,,,60,127
79096,note_off,120,0,0,,0,,,60,127
79097,note_on,1,0,0,,0,,,72,127
79217,note_off,120,0,0,,0,,,72,127
79217,note_off,0,0,0,,10,,,57,127
79218,note_on,1,0,0,,7,,,55,127
79218,note_on,0,0,0,,12,,,71,127
79338,note_off,120,0,0,,12,,,71,127
79339,note_on,1,0,0,,12,,,59,127
79459,note_off,120,0,0,,12,,,59,127
79459,note_off,0,0,0,,7,,,55,127
79460,note_on,1,0,0,,2,,,50,127
79460,note_on,0,0,0,,10,,,69,127
79580,note_off,120,0,0,,2,,,50,127
79581,note_on,1,0,0,,2,,,62,127
79701,note_off,120,0,0,,2,,,62,127
79701,note_off,0,0,0,,10,,,69,127
79702,note_on,1,0,0,,0,,,60,127
79702,note_on,0,0,0,,2,,,74,127
79822,note_off,120,0,0,,0,,,60,127
79823,note_on,1,0,0,,0,,,48,127
79943,note_off,120,0,0,,0,,,48,127
79944,note_on,1,0,0,,12,,,47,127
80064,note_off,120,0,0,,12,,,47,127
80065,note_on,1,0,0,,12,,,59,127
80185,note_off,120,0,0,,12,,,59,127
80185,note_off,0,0,0,,2,,,74,127
80186,note_on,1,0,0,,10,,,57,127
80186,note_on,0,0,0,,0,,,72,127
80306,note_off,120,0,0,,10,,,57,127
80307,note_on,1,0,0,,10,,,45,127
80427,note_off,120,0,0,,10,,,45,127
80428,note_on,1,0,0,,7,,,43,127
80548,note_off,120,0,0,,0,,,72,127
80549,note_on,1,0,0,,12,,,71,127
80669,note_off,120,0,0,,12,,,71,127
80669,note_off,0,0,0,,7,,,43,127
80670,note_on,1,0,0,,0,,,48,127
80670,note_on,0,0,0,,0,,,72,127
80790,note_off,120,0,0,,0,,,72,127
80791,note_on,1,0,0,,2,,,74,127
80911,note_off,120,0,0,,2,,,74,127
80911,note_off,0,0,0,,0,,,48,127
80912,note_on,1,0,0,,2,,,50,127
80912,note_on,0,0,0,,7,,,67,127
81153,note_off,241,0,0,,7,,,67,127
81153,note_off,0,0,0,,2,,,50,127
81154,note_on,1,0,0,,2,,,38,127
81154,note_on,0,0,0,,7,,,67,127
81213,note_off,59,0,0,,7,,,67,127
81214,note_on,1,0,0,,6,,,66,127
81273,note_off,59,0,0,,6,,,66,127
81274,note_on,1,0,0,,4,,,64,127
81333,note_off,59,0,0,,4,,,64,127
81334,note_on,1,0,0,,6,,,66,127
81393,note_off,59,0,0,,6,,,66,127
81393,note_off,0,0,0,,2,,,38,127
81394,note_on,1,0,0,,7,,,43,127
81394,note_on,0,0,0,,7,,,67,127
81495,note_off,101,0,0,,7,,,67,127
81576,note_on,81,0,0,,0,,,84,127
81635,note_off,59,0,0,,0,,,84,127
81636,note_on,1,0,0,,12,,,83,127
81695,note_off,59,0,0,,12,,,83,127
81696,note_on,1,0,0,,10,,,81,127
81755,note_off,59,0,0,,10,,,81,127
81756,note_on,1,0,0,,12,,,83,127
81815,note_off,59,0,0,,12,,,83,127
81816,note_on,1,0,0,,0,,,84,127
81872,note_off,56,0,0,,7,,,43,127
81876,note_off,4,0,0,,0,,,84,127
81877,note_on,1,0,0,,2,,,86,127
82118,note_off,241,0,0,,2,,,86,127
82119,note_on,1,0,0,,12,,,59,127
82119,note_on,0,0,0,,4,,,88,127
82360,note_off,241,0,0,,4,,,88,127
82360,note_off,0,0,0,,12,,,59,127
82361,note_on,1,0,0,,0,,,60,127
82361,note_on,0,0,0,,2,,,86,127
82481,note_off,120,0,0,,2,,,86,127
82482,note_on,1,0,0,,0,,,84,127
82602,note_off,120,0,0,,0,,,84,127
82602,note_off,0,0,0,,0,,,60,127
82603,note_on,1,0,0,,4,,,64,127
82603,note_on,0,0,0,,12,,,83,127
82723,note_off,120,0,0,,12,,,83,127
82724,note_on,1,0,0,,10,,,81,127
82844,note_off,120,0,0,,10,,,81,127
82844,note_off,0,0,0,,4,,,64,127
82845,note_on,1,0,0,,2,,,62,127
82845,note_on,0,0,0,,7,,,79,127
83086,note_off,241,0,0,,7,,,79,127
83086,note_off,0,0,0,,2,,,62,127
83087,note_on,1,0,0,,2,,,50,127
83087,note_on,0,0,0,,6,,,78,127
83328,note_off,241,0,0,,6,,,78,127
83328,note_off,0,0,0,,2,,,50,127
83329,note_on,1,0,0,,7,,,55,127
83329,note_on,0,0,0,,7,,,79,127
83510,note_off,181,0,0,,7,,,79,127
83514,note_on,4,0,0,,0,,,72,127
83573,note_off,59,0,0,,0,,,72,127
83576,note_on,3,0,0,,12,,,71,127
83635,note_off,59,0,0,,12,,,71,127
83638,note_on,3,0,0,,10,,,69,127
83697,note_off,59,0,0,,10,,,69,127
83700,note_on,3,0,0,,12,,,71,127
83759,note_off,59,0,0,,12,,,71,127
83762,note_on,3,0,0,,0,,,72,127
83810,note_off,48,0,0,,7,,,55,127
83821,note_off,11,0,0,,0,,,72,127
83824,note_on,3,0,0,,2,,,74,127
84067,note_off,243,0,0,,2,,,74,127
84072,note_on,5,0,0,,4,,,76,127
84072,note_on,0,0,0,,12,,,47,127
84315,note_off,243,0,0,,12,,,47,127
84315,note_off,0,0,0,,4,,,76,127
84320,note_on,5,0,0,,2,,,74,127
84320,note_on,0,0,0,,0,,,48,127
84440,note_off,120,0,0,,2,,,74,127
84444,note_on,4,0,0,,0,,,72,127
84563,note_off,119,0,0,,0,,,48,127
84564,note_off,1,0,0,,0,,,72,127
84567,note_on,3,0,0,,12,,,71,127
84567,note_on,0,0,0,,4,,,52,127
84687,note_off,120,0,0,,12,,,71,127
84691,note_on,4,0,0,,10,,,69,127
84810,note_off,119,0,0,,4,,,52,127
84811,note_off,1,0,0,,10,,,69,127
84815,note_on,4,0,0,,7,,,67,127
84815,note_on,0,0,0,,2,,,50,127
85058,note_off,243,0,0,,2,,,50,127
85058,note_off,0,0,0,,7,,,67,127
85063,note_on,5,0,0,,7,,,67,127
85063,note_on,0,0,0,,2,,,38,127
85122,note_off,59,0,0,,7,,,67,127
85125,note_on,3,0,0,,6,,,66,127
85184,note_off,59,0,0,,6,,,66,127
85187,note_on,3,0,0,,4,,,64,127
85246,note_off,59,0,0,,4,,,64,127
85249,note_on,3,0,0,,6,,,66,127
85306,note_off,57,0,0,,2,,,38,127
85309,note_off,3,0,0,,6,,,66,127
85312,note_on,3,0,0,,6,,,66,127
85312,note_on,0,0,0,,7,,,43,127
86123,note_off,811,0,0,,6,,,66,127
86123,note_on,0,0,0,,7,,,67,127
87578,note_off,1455,0,0,,7,,,67,127
87578,note_off,0,0,0,,7,,,43,127
89088,end_of_track,1510,1,0,,,,,,
