tick,type,time,meta,track,program,channel,pitch,tempo,note,velocity
0,copyright,0,1,0,,,,,,
0,program_change,0,0,0,6,0,,,,
0,pitchwheel,0,0,0,,0,0,,,
0,program_change,0,0,0,6,1,,,,
0,pitchwheel,0,0,0,,1,-590,,,
0,program_change,0,0,0,6,2,,,,
0,pitchwheel,0,0,0,,2,-272,,,
0,program_change,0,0,0,6,3,,,,
0,pitchwheel,0,0,0,,3,-353,,,
0,program_change,0,0,0,6,4,,,,
0,pitchwheel,0,0,0,,4,-560,,,
0,program_change,0,0,0,6,5,,,,
0,pitchwheel,0,0,0,,5,-80,,,
0,program_change,0,0,0,6,6,,,,
0,pitchwheel,0,0,0,,6,-625,,,
0,program_change,0,0,0,6,7,,,,
0,pitchwheel,0,0,0,,7,-130,,,
0,program_change,0,0,0,6,8,,,,
0,pitchwheel,0,0,0,,8,-512,,,
0,program_change,0,0,0,6,10,,,,
0,pitchwheel,0,0,0,,10,-464,,,
0,program_change,0,0,0,6,11,,,,
0,pitchwheel,0,0,0,,11,-208,,,
0,program_change,0,0,0,6,12,,,,
0,pitchwheel,0,0,0,,12,-553,,,
0,set_tempo,0,1,0,,,,500000,,
103,note_on,103,0,0,,7,,,55,127
309,note_on,206,0,0,,2,,,86,127
514,note_off,205,0,0,,2,,,86,127
514,note_off,0,0,0,,7,,,55,127
515,note_on,1,0,0,,7,,,67,127
515,note_on,0,0,0,,12,,,71,127
720,note_off,205,0,0,,12,,,71,127
720,note_off,0,0,0,,7,,,67,127
721,note_on,1,0,0,,10,,,69,127
721,note_on,0,0,0,,0,,,72,127
926,note_off,205,0,0,,0,,,72,127
926,note_off,0,0,0,,10,,,69,127
927,note_on,1,0,0,,6,,,66,127
927,note_on,0,0,0,,0,,,84,127
1132,note_off,205,0,0,,0,,,84,127
1132,note_off,0,0,0,,6,,,66,127
1133,note_on,1,0,0,,2,,,62,127
1133,note_on,0,0,0,,10,,,69,127
1338,note_off,205,0,0,,10,,,69,127
1338,note_off,0,0,0,,2,,,62,127
1339,note_on,1,0,0,,7,,,67,127
1339,note_on,0,0,0,,12,,,71,127
1544,note_off,205,0,0,,12,,,71,127
1544,note_off,0,0,0,,7,,,67,127
1545,note_on,1,0,0,,4,,,64,127
1545,note_on,0,0,0,,12,,,83,127
1750,note_off,205,0,0,,12,,,83,127
1750,note_off,0,0,0,,4,,,64,127
1751,note_on,1,0,0,,12,,,59,127
1751,note_on,0,0,0,,7,,,67,127
1956,note_off,205,0,0,,7,,,67,127
1956,note_off,0,0,0,,12,,,59,127
1957,note_on,1,0,0,,0,,,60,127
1957,note_on,0,0,0,,10,,,69,127
2162,note_off,205,0,0,,10,,,69,127
2162,note_off,0,0,0,,0,,,60,127
2163,note_on,1,0,0,,2,,,62,127
2163,note_on,0,0,0,,10,,,81,127
2368,note_off,205,0,0,,10,,,81,127
2368,note_off,0,0,0,,2,,,62,127
2369,note_on,1,0,0,,2,,,50,127
2369,note_on,0,0,0,,6,,,66,127
2574,note_off,205,0,0,,6,,,66,127
2574,note_off,0,0,0,,2,,,50,127
2575,note_on,1,0,0,,7,,,55,127
2575,note_on,0,0,0,,7,,,67,127
2779,note_off,204,0,0,,7,,,67,127
2780,note_off,1,0,0,,7,,,55,127
2781,note_on,1,0,0,,12,,,71,127
2986,note_off,205,0,0,,12,,,71,127
2987,note_on,1,0,0,,7,,,67,127
2987,note_on,0,0,0,,12,,,83,127
2987,note_on,0,0,0,,2,,,74,127
2987,note_on,0,0,0,,7,,,79,127
3192,note_off,205,0,0,,7,,,67,127
3193,note_on,1,0,0,,2,,,38,127
3398,note_off,205,0,0,,7,,,79,127
3398,note_off,0,0,0,,12,,,83,127
3399,note_on,1,0,0,,10,,,81,127
3604,note_off,205,0,0,,10,,,81,127
3604,note_off,0,0,0,,2,,,74,127
3605,note_on,1,0,0,,0,,,84,127
3605,note_on,0,0,0,,6,,,78,127
3810,note_off,205,0,0,,6,,,78,127
3810,note_off,0,0,0,,0,,,84,127
3811,note_on,1,0,0,,0,,,84,127
3811,note_on,0,0,0,,7,,,79,127
3811,note_on,0,0,0,,2,,,74,127
4016,note_off,205,0,0,,2,,,38,127
4017,note_on,1,0,0,,12,,,71,127
4222,note_off,205,0,0,,12,,,71,127
4222,note_off,0,0,0,,0,,,84,127
4223,note_on,1,0,0,,7,,,67,127
4223,note_on,0,0,0,,12,,,83,127
4428,note_off,205,0,0,,7,,,67,127
4429,note_on,1,0,0,,2,,,38,127
4634,note_off,205,0,0,,12,,,83,127
4634,note_off,0,0,0,,7,,,79,127
4635,note_on,1,0,0,,10,,,81,127
4840,note_off,205,0,0,,10,,,81,127
4841,note_off,1,0,0,,2,,,74,127
4841,note_on,0,0,0,,6,,,78,127
4841,note_on,0,0,0,,0,,,84,127
5046,note_off,205,0,0,,0,,,84,127
5046,note_off,0,0,0,,6,,,78,127
5047,note_on,1,0,0,,7,,,79,127
5047,note_on,0,0,0,,2,,,74,127
5047,note_on,0,0,0,,0,,,84,127
5252,note_off,205,0,0,,2,,,38,127
5253,note_on,1,0,0,,12,,,71,127
5458,note_off,205,0,0,,12,,,71,127
5458,note_off,0,0,0,,0,,,84,127
5459,note_on,1,0,0,,7,,,67,127
5459,note_on,0,0,0,,12,,,83,127
5664,note_off,205,0,0,,7,,,67,127
5664,note_off,0,0,0,,2,,,74,127
5664,note_off,0,0,0,,7,,,79,127
5665,note_on,1,0,0,,1,,,37,127
5665,note_on,0,0,0,,4,,,76,127
5866,note_off,201,0,0,,12,,,83,127
5870,note_on,4,0,0,,7,,,79,127
6071,note_off,201,0,0,,4,,,76,127
6074,note_off,3,0,0,,7,,,79,127
6075,note_on,1,0,0,,4,,,76,127
6281,note_on,206,0,0,,10,,,81,127
6331,note_off,50,0,0,,10,,,81,127
6332,note_on,1,0,0,,8,,,80,127
6382,note_off,50,0,0,,8,,,80,127
6383,note_on,1,0,0,,6,,,78,127
6433,note_off,50,0,0,,6,,,78,127
6434,note_on,1,0,0,,8,,,80,127
6481,note_off,47,0,0,,4,,,76,127
6484,note_off,3,0,0,,8,,,80,127
6484,note_off,0,0,0,,1,,,37,127
6485,note_on,1,0,0,,10,,,69,127
6485,note_on,0,0,0,,10,,,81,127
6690,note_off,205,0,0,,10,,,69,127
6691,note_on,1,0,0,,6,,,66,127
6691,note_on,0,0,0,,1,,,73,127
6896,note_off,205,0,0,,1,,,73,127
6896,note_off,0,0,0,,6,,,66,127
6897,note_on,1,0,0,,2,,,74,127
6897,note_on,0,0,0,,12,,,35,127
7102,note_off,205,0,0,,10,,,81,127
7103,note_on,1,0,0,,6,,,78,127
7304,note_off,201,0,0,,2,,,74,127
7307,note_off,3,0,0,,6,,,78,127
7308,note_on,1,0,0,,2,,,74,127
7514,note_on,206,0,0,,7,,,79,127
7564,note_off,50,0,0,,7,,,79,127
7565,note_on,1,0,0,,6,,,78,127
7615,note_off,50,0,0,,6,,,78,127
7616,note_on,1,0,0,,4,,,76,127
7666,note_off,50,0,0,,4,,,76,127
7667,note_on,1,0,0,,6,,,78,127
7714,note_off,47,0,0,,2,,,74,127
7717,note_off,3,0,0,,6,,,78,127
7717,note_off,0,0,0,,12,,,35,127
7718,note_on,1,0,0,,7,,,67,127
7718,note_on,0,0,0,,7,,,79,127
7923,note_off,205,0,0,,7,,,67,127
7924,note_on,1,0,0,,4,,,64,127
7924,note_on,0,0,0,,12,,,71,127
8129,note_off,205,0,0,,12,,,71,127
8129,note_off,0,0,0,,4,,,64,127
8130,note_on,1,0,0,,10,,,33,127
8130,note_on,0,0,0,,1,,,73,127
8130,note_on,0,0,0,,10,,,69,127
8335,note_off,205,0,0,,1,,,73,127
8335,note_off,0,0,0,,10,,,33,127
8336,note_on,1,0,0,,1,,,37,127
8336,note_on,0,0,0,,4,,,76,127
8541,note_off,205,0,0,,1,,,37,127
8541,note_off,0,0,0,,7,,,79,127
8542,note_on,1,0,0,,10,,,33,127
8747,note_off,205,0,0,,10,,,33,127
8748,note_on,1,0,0,,2,,,38,127
8748,note_on,0,0,0,,6,,,78,127
8953,note_off,205,0,0,,6,,,78,127
8953,note_off,0,0,0,,2,,,38,127
8953,note_off,0,0,0,,4,,,76,127
8954,note_on,1,0,0,,6,,,42,127
8954,note_on,0,0,0,,10,,,81,127
8954,note_on,0,0,0,,2,,,74,127
9159,note_off,205,0,0,,6,,,42,127
9160,note_on,1,0,0,,2,,,38,127
9364,note_off,204,0,0,,10,,,69,127
9365,note_off,1,0,0,,2,,,38,127
9365,note_off,0,0,0,,10,,,81,127
9366,note_on,1,0,0,,10,,,45,127
9366,note_on,0,0,0,,10,,,69,127
9366,note_on,0,0,0,,4,,,76,127
9571,note_off,205,0,0,,4,,,76,127
9571,note_off,0,0,0,,10,,,45,127
9571,note_off,0,0,0,,2,,,74,127
9572,note_on,1,0,0,,1,,,49,127
9572,note_on,0,0,0,,1,,,73,127
9572,note_on,0,0,0,,7,,,79,127
9777,note_off,205,0,0,,1,,,73,127
9777,note_off,0,0,0,,1,,,49,127
9778,note_on,1,0,0,,10,,,45,127
9778,note_on,0,0,0,,4,,,76,127
9979,note_off,201,0,0,,7,,,79,127
9982,note_off,3,0,0,,10,,,45,127
9983,note_on,1,0,0,,2,,,50,127
9983,note_on,0,0,0,,6,,,78,127
10184,note_off,201,0,0,,4,,,76,127
10187,note_off,3,0,0,,6,,,78,127
10187,note_off,0,0,0,,2,,,50,127
10188,note_on,1,0,0,,6,,,54,127
10188,note_on,0,0,0,,2,,,74,127
10188,note_on,0,0,0,,10,,,81,127
10393,note_off,205,0,0,,6,,,54,127
10394,note_off,1,0,0,,10,,,69,127
10394,note_on,0,0,0,,2,,,50,127
10595,note_off,201,0,0,,10,,,81,127
10595,note_off,0,0,0,,2,,,74,127
10598,note_off,3,0,0,,2,,,50,127
10599,note_on,1,0,0,,7,,,55,127
10599,note_on,0,0,0,,12,,,83,127
10701,note_off,102,0,0,,12,,,83,127
10702,note_on,1,0,0,,10,,,81,127
10804,note_off,102,0,0,,10,,,81,127
10804,note_off,0,0,0,,7,,,55,127
10805,note_on,1,0,0,,10,,,57,127
10805,note_on,0,0,0,,7,,,79,127
10907,note_off,102,0,0,,7,,,79,127
10908,note_on,1,0,0,,6,,,78,127
11010,note_off,102,0,0,,6,,,78,127
11010,note_off,0,0,0,,10,,,57,127
11011,note_on,1,0,0,,12,,,59,127
11011,note_on,0,0,0,,4,,,76,127
11113,note_off,102,0,0,,4,,,76,127
11114,note_on,1,0,0,,2,,,74,127
11216,note_off,102,0,0,,2,,,74,127
11216,note_off,0,0,0,,12,,,59,127
11217,note_on,1,0,0,,10,,,57,127
11217,note_on,0,0,0,,1,,,73,127
11319,note_off,102,0,0,,1,,,73,127
11320,note_on,1,0,0,,12,,,71,127
11422,note_off,102,0,0,,12,,,71,127
11422,note_off,0,0,0,,10,,,57,127
11423,note_on,1,0,0,,12,,,59,127
11423,note_on,0,0,0,,10,,,69,127
11525,note_off,102,0,0,,10,,,69,127
11526,note_on,1,0,0,,7,,,67,127
11628,note_off,102,0,0,,7,,,67,127
11628,note_off,0,0,0,,12,,,59,127
11629,note_on,1,0,0,,1,,,61,127
11629,note_on,0,0,0,,6,,,66,127
11731,note_off,102,0,0,,6,,,66,127
11732,note_on,1,0,0,,4,,,64,127
11834,note_off,102,0,0,,4,,,64,127
11834,note_off,0,0,0,,1,,,61,127
11835,note_on,1,0,0,,2,,,62,127
11835,note_on,0,0,0,,6,,,66,127
11937,note_off,102,0,0,,6,,,66,127
11938,note_on,1,0,0,,10,,,69,127
12040,note_off,102,0,0,,10,,,69,127
12040,note_off,0,0,0,,2,,,62,127
12041,note_on,1,0,0,,1,,,61,127
12041,note_on,0,0,0,,7,,,67,127
12143,note_off,102,0,0,,7,,,67,127
12144,note_on,1,0,0,,6,,,66,127
12246,note_off,102,0,0,,6,,,66,127
12246,note_off,0,0,0,,1,,,61,127
12247,note_on,1,0,0,,12,,,59,127
12247,note_on,0,0,0,,4,,,64,127
12349,note_off,102,0,0,,4,,,64,127
12350,note_on,1,0,0,,2,,,62,127
12452,note_off,102,0,0,,2,,,62,127
12452,note_off,0,0,0,,12,,,59,127
12453,note_on,1,0,0,,10,,,57,127
12453,note_on,0,0,0,,4,,,64,127
12658,note_off,205,0,0,,4,,,64,127
12658,note_off,0,0,0,,10,,,57,127
12659,note_on,1,0,0,,10,,,45,127
12659,note_on,0,0,0,,10,,,81,127
12864,note_off,205,0,0,,10,,,81,127
12864,note_off,0,0,0,,10,,,45,127
12865,note_on,1,0,0,,1,,,61,127
12865,note_on,0,0,0,,4,,,64,127
13070,note_off,205,0,0,,4,,,64,127
13070,note_off,0,0,0,,1,,,61,127
13071,note_on,1,0,0,,2,,,62,127
13071,note_on,0,0,0,,6,,,66,127
13276,note_off,205,0,0,,6,,,66,127
13276,note_off,0,0,0,,2,,,62,127
13277,note_on,1,0,0,,10,,,45,127
13277,note_on,0,0,0,,10,,,81,127
13482,note_off,205,0,0,,10,,,81,127
13482,note_off,0,0,0,,10,,,45,127
13483,note_on,1,0,0,,4,,,64,127
13483,note_on,0,0,0,,7,,,67,127
13688,note_off,205,0,0,,7,,,67,127
13688,note_off,0,0,0,,4,,,64,127
13689,note_on,1,0,0,,6,,,66,127
13689,note_on,0,0,0,,10,,,69,127
13894,note_off,205,0,0,,10,,,69,127
13894,note_off,0,0,0,,6,,,66,127
13895,note_on,1,0,0,,10,,,45,127
13895,note_on,0,0,0,,10,,,81,127
14100,note_off,205,0,0,,10,,,81,127
14100,note_off,0,0,0,,10,,,45,127
14101,note_on,1,0,0,,1,,,61,127
14101,note_on,0,0,0,,4,,,64,127
14306,note_off,205,0,0,,4,,,64,127
14306,note_off,0,0,0,,1,,,61,127
14307,note_on,1,0,0,,2,,,62,127
14307,note_on,0,0,0,,6,,,66,127
14512,note_off,205,0,0,,6,,,66,127
14512,note_off,0,0,0,,2,,,62,127
14513,note_on,1,0,0,,10,,,45,127
14513,note_on,0,0,0,,10,,,81,127
14718,note_off,205,0,0,,10,,,81,127
14718,note_off,0,0,0,,10,,,45,127
14719,note_on,1,0,0,,4,,,64,127
14719,note_on,0,0,0,,7,,,67,127
14924,note_off,205,0,0,,7,,,67,127
14924,note_off,0,0,0,,4,,,64,127
14925,note_on,1,0,0,,6,,,66,127
14925,note_on,0,0,0,,10,,,69,127
15130,note_off,205,0,0,,10,,,69,127
15130,note_off,0,0,0,,6,,,66,127
15131,note_on,1,0,0,,2,,,62,127
15131,note_on,0,0,0,,2,,,74,127
15336,note_off,205,0,0,,2,,,74,127
15336,note_off,0,0,0,,2,,,62,127
15337,note_on,1,0,0,,6,,,66,127
15337,note_on,0,0,0,,2,,,74,127
15542,note_off,205,0,0,,2,,,74,127
15542,note_off,0,0,0,,6,,,66,127
15543,note_on,1,0,0,,7,,,67,127
15543,note_on,0,0,0,,2,,,74,127
15610,note_off,67,0,0,,2,,,74,127
15611,note_on,1,0,0,,1,,,73,127
15678,note_off,67,0,0,,1,,,73,127
15679,note_on,1,0,0,,2,,,74,127
15746,note_off,67,0,0,,2,,,74,127
15746,note_off,0,0,0,,7,,,67,127
15747,note_on,1,0,0,,4,,,64,127
15747,note_on,0,0,0,,4,,,76,127
15952,note_off,205,0,0,,4,,,76,127
15952,note_off,0,0,0,,4,,,64,127
15953,note_on,1,0,0,,7,,,67,127
15953,note_on,0,0,0,,4,,,76,127
16158,note_off,205,0,0,,4,,,76,127
16158,note_off,0,0,0,,7,,,67,127
16159,note_on,1,0,0,,10,,,69,127
16159,note_on,0,0,0,,6,,,78,127
16209,note_off,50,0,0,,6,,,78,127
16210,note_on,1,0,0,,4,,,76,127
16260,note_off,50,0,0,,4,,,76,127
16261,note_on,1,0,0,,6,,,78,127
16311,note_off,50,0,0,,6,,,78,127
16312,note_on,1,0,0,,4,,,76,127
16362,note_off,50,0,0,,4,,,76,127
16362,note_off,0,0,0,,10,,,69,127
16363,note_on,1,0,0,,1,,,61,127
16363,note_on,0,0,0,,10,,,69,127
16568,note_off,205,0,0,,10,,,69,127
16568,note_off,0,0,0,,1,,,61,127
16569,note_on,1,0,0,,2,,,62,127
16569,note_on,0,0,0,,6,,,78,127
16569,note_on,0,0,0,,2,,,74,127
16774,note_off,205,0,0,,2,,,74,127
16774,note_off,0,0,0,,6,,,78,127
16774,note_off,0,0,0,,2,,,62,127
16775,note_on,1,0,0,,7,,,55,127
16775,note_on,0,0,0,,4,,,76,127
16775,note_on,0,0,0,,7,,,79,127
16980,note_off,205,0,0,,7,,,79,127
16980,note_off,0,0,0,,4,,,76,127
16980,note_off,0,0,0,,7,,,55,127
16981,note_on,1,0,0,,10,,,57,127
16981,note_on,0,0,0,,6,,,78,127
16981,note_on,0,0,0,,2,,,74,127
17186,note_off,205,0,0,,2,,,74,127
17186,note_off,0,0,0,,6,,,78,127
17186,note_off,0,0,0,,10,,,57,127
17187,note_on,1,0,0,,10,,,45,127
17187,note_on,0,0,0,,1,,,73,127
17187,note_on,0,0,0,,4,,,76,127
17392,note_off,205,0,0,,4,,,76,127
17392,note_off,0,0,0,,1,,,73,127
17392,note_off,0,0,0,,10,,,45,127
17393,note_on,1,0,0,,2,,,50,127
17393,note_on,0,0,0,,2,,,74,127
17598,note_off,205,0,0,,2,,,74,127
17598,note_off,0,0,0,,2,,,50,127
17599,note_on,1,0,0,,10,,,45,127
17599,note_on,0,0,0,,10,,,81,127
17804,note_off,205,0,0,,10,,,81,127
17804,note_off,0,0,0,,10,,,45,127
17805,note_on,1,0,0,,1,,,61,127
17805,note_on,0,0,0,,4,,,64,127
18010,note_off,205,0,0,,4,,,64,127
18010,note_off,0,0,0,,1,,,61,127
18011,note_on,1,0,0,,2,,,62,127
18011,note_on,0,0,0,,6,,,66,127
18216,note_off,205,0,0,,6,,,66,127
18216,note_off,0,0,0,,2,,,62,127
18217,note_on,1,0,0,,10,,,45,127
18217,note_on,0,0,0,,10,,,81,127
18422,note_off,205,0,0,,10,,,81,127
18422,note_off,0,0,0,,10,,,45,127
18423,note_on,1,0,0,,4,,,64,127
18423,note_on,0,0,0,,7,,,67,127
18628,note_off,205,0,0,,7,,,67,127
18628,note_off,0,0,0,,4,,,64,127
18629,note_on,1,0,0,,6,,,66,127
18629,note_on,0,0,0,,10,,,69,127
18834,note_off,205,0,0,,10,,,69,127
18834,note_off,0,0,0,,6,,,66,127
18835,note_on,1,0,0,,10,,,45,127
18835,note_on,0,0,0,,10,,,81,127
19040,note_off,205,0,0,,10,,,81,127
19040,note_off,0,0,0,,10,,,45,127
19041,note_on,1,0,0,,1,,,61,127
19041,note_on,0,0,0,,4,,,64,127
19246,note_off,205,0,0,,4,,,64,127
19246,note_off,0,0,0,,1,,,61,127
19247,note_on,1,0,0,,2,,,62,127
19247,note_on,0,0,0,,6,,,66,127
19452,note_off,205,0,0,,6,,,66,127
19452,note_off,0,0,0,,2,,,62,127
19453,note_on,1,0,0,,10,,,45,127
19453,note_on,0,0,0,,10,,,81,127
19658,note_off,205,0,0,,10,,,81,127
19658,note_off,0,0,0,,10,,,45,127
19659,note_on,1,0,0,,4,,,64,127
19659,note_on,0,0,0,,7,,,67,127
19864,note_off,205,0,0,,7,,,67,127
19864,note_off,0,0,0,,4,,,64,127
19865,note_on,1,0,0,,6,,,66,127
19865,note_on,0,0,0,,10,,,69,127
20070,note_off,205,0,0,,10,,,69,127
20070,note_off,0,0,0,,6,,,66,127
20071,note_on,1,0,0,,2,,,62,127
20071,note_on,0,0,0,,2,,,74,127
20276,note_off,205,0,0,,2,,,74,127
20276,note_off,0,0,0,,2,,,62,127
20277,note_on,1,0,0,,6,,,66,127
20277,note_on,0,0,0,,2,,,74,127
20482,note_off,205,0,0,,2,,,74,127
20482,note_off,0,0,0,,6,,,66,127
20483,note_on,1,0,0,,7,,,67,127
20483,note_on,0,0,0,,2,,,74,127
20550,note_off,67,0,0,,2,,,74,127
20551,note_on,1,0,0,,1,,,73,127
20618,note_off,67,0,0,,1,,,73,127
20619,note_on,1,0,0,,2,,,74,127
20686,note_off,67,0,0,,2,,,74,127
20686,note_off,0,0,0,,7,,,67,127
20687,note_on,1,0,0,,4,,,64,127
20687,note_on,0,0,0,,4,,,76,127
20892,note_off,205,0,0,,4,,,76,127
20892,note_off,0,0,0,,4,,,64,127
20893,note_on,1,0,0,,7,,,67,127
20893,note_on,0,0,0,,4,,,76,127
21098,note_off,205,0,0,,4,,,76,127
21098,note_off,0,0,0,,7,,,67,127
21099,note_on,1,0,0,,10,,,69,127
21099,note_on,0,0,0,,6,,,78,127
21149,note_off,50,0,0,,6,,,78,127
21150,note_on,1,0,0,,4,,,76,127
21200,note_off,50,0,0,,4,,,76,127
21201,note_on,1,0,0,,6,,,78,127
21251,note_off,50,0,0,,6,,,78,127
21252,note_on,1,0,0,,4,,,76,127
21302,note_off,50,0,0,,4,,,76,127
21302,note_off,0,0,0,,10,,,69,127
21303,note_on,1,0,0,,1,,,61,127
21303,note_on,0,0,0,,10,,,69,127
21508,note_off,205,0,0,,10,,,69,127
21508,note_off,0,0,0,,1,,,61,127
21509,note_on,1,0,0,,2,,,62,127
21509,note_on,0,0,0,,6,,,78,127
21509,note_on,0,0,0,,2,,,74,127
21714,note_off,205,0,0,,2,,,74,127
21714,note_off,0,0,0,,6,,,78,127
21714,note_off,0,0,0,,2,,,62,127
21715,note_on,1,0,0,,7,,,55,127
21715,note_on,0,0,0,,7,,,79,127
21715,note_on,0,0,0,,4,,,76,127
21920,note_off,205,0,0,,4,,,76,127
21920,note_off,0,0,0,,7,,,79,127
21920,note_off,0,0,0,,7,,,55,127
21921,note_on,1,0,0,,10,,,57,127
21921,note_on,0,0,0,,6,,,78,127
21921,note_on,0,0,0,,2,,,74,127
22126,note_off,205,0,0,,2,,,74,127
22126,note_off,0,0,0,,6,,,78,127
22126,note_off,0,0,0,,10,,,57,127
22127,note_on,1,0,0,,10,,,45,127
22127,note_on,0,0,0,,1,,,73,127
22127,note_on,0,0,0,,4,,,76,127
22332,note_off,205,0,0,,4,,,76,127
22332,note_off,0,0,0,,1,,,73,127
22332,note_off,0,0,0,,10,,,45,127
22333,note_on,1,0,0,,2,,,50,127
22333,note_on,0,0,0,,2,,,74,127
22333,note_on,0,0,0,,6,,,78,127
22435,note_off,102,0,0,,6,,,78,127
22436,note_on,1,0,0,,7,,,79,127
22538,note_off,102,0,0,,7,,,79,127
22538,note_off,0,0,0,,2,,,50,127
22539,note_on,1,0,0,,4,,,52,127
22539,note_on,0,0,0,,10,,,81,127
22740,note_off,201,0,0,,2,,,74,127
22743,note_off,3,0,0,,4,,,52,127
22744,note_on,1,0,0,,6,,,54,127
22949,note_off,205,0,0,,6,,,54,127
22949,note_off,0,0,0,,10,,,81,127
22950,note_on,1,0,0,,7,,,55,127
22950,note_on,0,0,0,,7,,,79,127
23017,note_off,67,0,0,,7,,,79,127
23018,note_on,1,0,0,,6,,,78,127
23085,note_off,67,0,0,,6,,,78,127
23086,note_on,1,0,0,,4,,,76,127
23153,note_off,67,0,0,,4,,,76,127
23153,note_off,0,0,0,,7,,,55,127
23154,note_on,1,0,0,,10,,,57,127
23154,note_on,0,0,0,,6,,,78,127
23221,note_off,67,0,0,,6,,,78,127
23222,note_on,1,0,0,,4,,,76,127
23289,note_off,67,0,0,,4,,,76,127
23290,note_on,1,0,0,,2,,,74,127
23357,note_off,67,0,0,,2,,,74,127
23357,note_off,0,0,0,,10,,,57,127
23358,note_on,1,0,0,,10,,,45,127
23358,note_on,0,0,0,,4,,,76,127
23425,note_off,67,0,0,,4,,,76,127
23426,note_on,1,0,0,,2,,,74,127
23493,note_off,67,0,0,,2,,,74,127
23494,note_on,1,0,0,,1,,,73,127
23561,note_off,67,0,0,,1,,,73,127
23561,note_off,0,0,0,,10,,,45,127
23562,note_on,1,0,0,,2,,,38,127
23562,note_on,0,0,0,,2,,,50,127
23562,note_on,0,0,0,,6,,,66,127
23562,note_on,0,0,0,,2,,,74,127
23664,note_off,102,0,0,,6,,,66,127
23665,note_on,1,0,0,,7,,,67,127
23767,note_off,102,0,0,,7,,,67,127
23767,note_off,0,0,0,,2,,,50,127
23767,note_off,0,0,0,,2,,,38,127
23768,note_on,1,0,0,,4,,,40,127
23768,note_on,0,0,0,,10,,,69,127
23969,note_off,201,0,0,,2,,,74,127
23972,note_off,3,0,0,,4,,,40,127
23973,note_on,1,0,0,,6,,,42,127
24178,note_off,205,0,0,,6,,,42,127
24178,note_off,0,0,0,,10,,,69,127
24179,note_on,1,0,0,,7,,,43,127
24179,note_on,0,0,0,,7,,,67,127
24246,note_off,67,0,0,,7,,,67,127
24247,note_on,1,0,0,,6,,,66,127
24314,note_off,67,0,0,,6,,,66,127
24315,note_on,1,0,0,,4,,,64,127
24382,note_off,67,0,0,,4,,,64,127
24382,note_off,0,0,0,,7,,,43,127
24383,note_on,1,0,0,,10,,,45,127
24383,note_on,0,0,0,,6,,,66,127
24450,note_off,67,0,0,,6,,,66,127
24451,note_on,1,0,0,,4,,,64,127
24518,note_off,67,0,0,,4,,,64,127
24519,note_on,1,0,0,,2,,,62,127
24586,note_off,67,0,0,,2,,,62,127
24586,note_off,0,0,0,,10,,,45,127
24587,note_on,1,0,0,,10,,,33,127
24587,note_on,0,0,0,,4,,,64,127
24654,note_off,67,0,0,,4,,,64,127
24655,note_on,1,0,0,,2,,,62,127
24722,note_off,67,0,0,,2,,,62,127
24723,note_on,1,0,0,,1,,,61,127
24790,note_off,67,0,0,,1,,,61,127
24790,note_off,0,0,0,,10,,,33,127
24791,note_on,1,0,0,,2,,,38,127
24791,note_on,0,0,0,,2,,,62,127
24791,note_on,0,0,0,,6,,,54,127
24893,note_off,102,0,0,,6,,,54,127
24894,note_on,1,0,0,,7,,,55,127
24996,note_off,102,0,0,,7,,,55,127
24996,note_off,0,0,0,,2,,,38,127
24997,note_on,1,0,0,,4,,,40,127
24997,note_on,0,0,0,,10,,,57,127
25198,note_off,201,0,0,,2,,,62,127
25201,note_off,3,0,0,,4,,,40,127
25202,note_on,1,0,0,,6,,,42,127
25407,note_off,205,0,0,,6,,,42,127
25407,note_off,0,0,0,,10,,,57,127
25408,note_on,1,0,0,,7,,,43,127
25408,note_on,0,0,0,,7,,,55,127
25475,note_off,67,0,0,,7,,,55,127
25476,note_on,1,0,0,,6,,,54,127
25543,note_off,67,0,0,,6,,,54,127
25544,note_on,1,0,0,,4,,,52,127
25611,note_off,67,0,0,,4,,,52,127
25611,note_off,0,0,0,,7,,,43,127
25612,note_on,1,0,0,,10,,,45,127
25612,note_on,0,0,0,,6,,,54,127
25679,note_off,67,0,0,,6,,,54,127
25680,note_on,1,0,0,,4,,,52,127
25747,note_off,67,0,0,,4,,,52,127
25748,note_on,1,0,0,,2,,,50,127
25815,note_off,67,0,0,,2,,,50,127
25815,note_off,0,0,0,,10,,,45,127
25816,note_on,1,0,0,,10,,,33,127
25816,note_on,0,0,0,,4,,,52,127
25883,note_off,67,0,0,,4,,,52,127
25884,note_on,1,0,0,,2,,,50,127
25951,note_off,67,0,0,,2,,,50,127
25952,note_on,1,0,0,,1,,,49,127
26019,note_off,67,0,0,,1,,,49,127
26019,note_off,0,0,0,,10,,,33,127
26020,note_on,1,0,0,,2,,,38,127
26020,note_on,0,0,0,,1,,,49,127
26430,note_off,410,0,0,,1,,,49,127
26431,note_on,1,0,0,,2,,,50,127
26635,note_off,204,0,0,,2,,,50,127
26636,note_off,1,0,0,,2,,,38,127
26637,note_on,1,0,0,,2,,,50,127
26843,note_on,206,0,0,,2,,,86,127
27048,note_off,205,0,0,,2,,,86,127
27048,note_off,0,0,0,,2,,,50,127
27049,note_on,1,0,0,,7,,,67,127
27049,note_on,0,0,0,,11,,,70,127
27254,note_off,205,0,0,,11,,,70,127
27254,note_off,0,0,0,,7,,,67,127
27255,note_on,1,0,0,,10,,,69,127
27255,note_on,0,0,0,,0,,,72,127
27460,note_off,205,0,0,,0,,,72,127
27460,note_off,0,0,0,,10,,,69,127
27461,note_on,1,0,0,,6,,,66,127
27461,note_on,0,0,0,,0,,,84,127
27666,note_off,205,0,0,,0,,,84,127
27666,note_off,0,0,0,,6,,,66,127
27667,note_on,1,0,0,,2,,,62,127
27667,note_on,0,0,0,,10,,,69,127
27872,note_off,205,0,0,,10,,,69,127
27872,note_off,0,0,0,,2,,,62,127
27873,note_on,1,0,0,,7,,,67,127
27873,note_on,0,0,0,,11,,,70,127
28078,note_off,205,0,0,,11,,,70,127
28078,note_off,0,0,0,,7,,,67,127
28079,note_on,1,0,0,,3,,,63,127
28079,note_on,0,0,0,,11,,,82,127
28284,note_off,205,0,0,,11,,,82,127
28284,note_off,0,0,0,,3,,,63,127
28285,note_on,1,0,0,,11,,,58,127
28285,note_on,0,0,0,,7,,,67,127
28490,note_off,205,0,0,,7,,,67,127
28490,note_off,0,0,0,,11,,,58,127
28491,note_on,1,0,0,,0,,,60,127
28491,note_on,0,0,0,,10,,,69,127
28696,note_off,205,0,0,,10,,,69,127
28696,note_off,0,0,0,,0,,,60,127
28697,note_on,1,0,0,,10,,,57,127
28697,note_on,0,0,0,,10,,,81,127
28902,note_off,205,0,0,,10,,,81,127
28902,note_off,0,0,0,,10,,,57,127
28903,note_on,1,0,0,,2,,,62,127
28903,note_on,0,0,0,,6,,,66,127
29108,note_off,205,0,0,,6,,,66,127
29108,note_off,0,0,0,,2,,,62,127
29109,note_on,1,0,0,,11,,,58,127
29109,note_on,0,0,0,,7,,,67,127
29314,note_off,205,0,0,,7,,,67,127
29314,note_off,0,0,0,,11,,,58,127
29315,note_on,1,0,0,,10,,,57,127
29315,note_on,0,0,0,,10,,,69,127
29520,note_off,205,0,0,,10,,,69,127
29520,note_off,0,0,0,,10,,,57,127
29521,note_on,1,0,0,,7,,,55,127
29521,note_on,0,0,0,,11,,,70,127
29726,note_off,205,0,0,,11,,,70,127
29726,note_off,0,0,0,,7,,,55,127
29727,note_on,1,0,0,,6,,,54,127
29727,note_on,0,0,0,,0,,,72,127
29932,note_off,205,0,0,,0,,,72,127
29932,note_off,0,0,0,,6,,,54,127
29933,note_on,1,0,0,,7,,,55,127
29933,note_on,0,0,0,,0,,,72,127
30000,note_off,67,0,0,,0,,,72,127
30001,note_on,1,0,0,,11,,,70,127
30068,note_off,67,0,0,,11,,,70,127
30069,note_on,1,0,0,,0,,,72,127
30136,note_off,67,0,0,,0,,,72,127
30136,note_off,0,0,0,,7,,,55,127
30137,note_on,1,0,0,,7,,,43,127
30137,note_on,0,0,0,,11,,,70,127
30204,note_off,67,0,0,,11,,,70,127
30205,note_on,1,0,0,,10,,,69,127
30272,note_off,67,0,0,,10,,,69,127
30273,note_on,1,0,0,,11,,,70,127
30340,note_off,67,0,0,,11,,,70,127
30340,note_off,0,0,0,,7,,,43,127
30341,note_on,1,0,0,,2,,,50,127
30341,note_on,0,0,0,,10,,,69,127
30546,note_off,205,0,0,,2,,,50,127
30547,note_on,1,0,0,,2,,,62,127
30752,note_off,205,0,0,,2,,,62,127
30752,note_off,0,0,0,,10,,,69,127
30753,note_on,1,0,0,,11,,,46,127
30753,note_on,0,0,0,,2,,,74,127
30753,note_on,0,0,0,,11,,,82,127
30958,note_off,205,0,0,,2,,,74,127
30958,note_off,0,0,0,,11,,,46,127
30959,note_on,1,0,0,,0,,,48,127
30959,note_on,0,0,0,,3,,,75,127
31160,note_off,201,0,0,,11,,,82,127
31163,note_off,3,0,0,,0,,,48,127
31164,note_on,1,0,0,,0,,,60,127
31164,note_on,0,0,0,,10,,,81,127
31365,note_off,201,0,0,,3,,,75,127
31368,note_off,3,0,0,,0,,,60,127
31369,note_on,1,0,0,,10,,,45,127
31369,note_on,0,0,0,,0,,,72,127
31574,note_off,205,0,0,,0,,,72,127
31574,note_off,0,0,0,,10,,,45,127
31575,note_on,1,0,0,,11,,,46,127
31575,note_on,0,0,0,,2,,,74,127
31780,note_off,205,0,0,,11,,,46,127
31780,note_off,0,0,0,,10,,,81,127
31781,note_on,1,0,0,,11,,,58,127
31781,note_on,0,0,0,,7,,,79,127
31982,note_off,201,0,0,,2,,,74,127
31985,note_off,3,0,0,,11,,,58,127
31986,note_on,1,0,0,,7,,,43,127
31986,note_on,0,0,0,,11,,,70,127
32191,note_off,205,0,0,,11,,,70,127
32191,note_off,0,0,0,,7,,,43,127
32192,note_on,1,0,0,,10,,,45,127
32192,note_on,0,0,0,,0,,,72,127
32397,note_off,205,0,0,,10,,,45,127
32397,note_off,0,0,0,,7,,,79,127
32398,note_on,1,0,0,,10,,,57,127
32398,note_on,0,0,0,,6,,,78,127
32599,note_off,201,0,0,,0,,,72,127
32602,note_off,3,0,0,,6,,,78,127
32602,note_off,0,0,0,,10,,,57,127
32603,note_on,1,0,0,,6,,,42,127
32603,note_on,0,0,0,,10,,,81,127
32603,note_on,0,0,0,,10,,,69,127
32808,note_off,205,0,0,,10,,,69,127
32808,note_off,0,0,0,,10,,,81,127
32808,note_off,0,0,0,,6,,,42,127
32809,note_on,1,0,0,,7,,,43,127
32809,note_on,0,0,0,,7,,,67,127
32809,note_on,0,0,0,,11,,,70,127
33014,note_off,205,0,0,,11,,,70,127
33014,note_off,0,0,0,,7,,,43,127
33015,note_on,1,0,0,,7,,,55,127
33015,note_on,0,0,0,,0,,,72,127
33216,note_off,201,0,0,,7,,,67,127
33219,note_off,3,0,0,,0,,,72,127
33219,note_off,0,0,0,,7,,,55,127
33220,note_on,1,0,0,,5,,,53,127
33220,note_on,0,0,0,,2,,,74,127
33425,note_off,205,0,0,,2,,,74,127
33425,note_off,0,0,0,,5,,,53,127
33426,note_on,1,0,0,,7,,,55,127
33426,note_on,0,0,0,,0,,,72,127
33426,note_on,0,0,0,,11,,,70,127
33631,note_off,205,0,0,,11,,,70,127
33631,note_off,0,0,0,,0,,,72,127
33631,note_off,0,0,0,,7,,,55,127
33632,note_on,1,0,0,,5,,,53,127
33632,note_on,0,0,0,,10,,,69,127
33837,note_off,205,0,0,,10,,,69,127
33837,note_off,0,0,0,,5,,,53,127
33838,note_on,1,0,0,,3,,,51,127
33838,note_on,0,0,0,,7,,,67,127
34043,note_off,205,0,0,,7,,,67,127
34043,note_off,0,0,0,,3,,,51,127
34044,note_on,1,0,0,,2,,,50,127
34044,note_on,0,0,0,,10,,,69,127
34249,note_off,205,0,0,,10,,,69,127
34250,note_on,1,0,0,,2,,,86,127
34455,note_off,205,0,0,,2,,,86,127
34456,note_on,1,0,0,,2,,,74,127
34661,note_off,205,0,0,,2,,,74,127
34661,note_off,0,0,0,,2,,,50,127
34662,note_on,1,0,0,,8,,,68,127
34662,note_on,0,0,0,,12,,,71,127
34867,note_off,205,0,0,,12,,,71,127
34867,note_off,0,0,0,,8,,,68,127
34868,note_on,1,0,0,,7,,,67,127
34868,note_on,0,0,0,,12,,,71,127
35073,note_off,205,0,0,,12,,,71,127
35073,note_off,0,0,0,,7,,,67,127
35074,note_on,1,0,0,,5,,,65,127
35074,note_on,0,0,0,,12,,,71,127
35279,note_off,205,0,0,,12,,,71,127
35279,note_off,0,0,0,,5,,,65,127
35280,note_on,1,0,0,,3,,,63,127
35280,note_on,0,0,0,,0,,,72,127
35485,note_off,205,0,0,,0,,,72,127
35485,note_off,0,0,0,,3,,,63,127
35486,note_on,1,0,0,,2,,,62,127
35486,note_on,0,0,0,,0,,,84,127
35691,note_off,205,0,0,,0,,,84,127
35691,note_off,0,0,0,,2,,,62,127
35692,note_on,1,0,0,,0,,,60,127
35692,note_on,0,0,0,,0,,,72,127
35897,note_off,205,0,0,,0,,,72,127
35897,note_off,0,0,0,,0,,,60,127
35898,note_on,1,0,0,,7,,,67,127
35898,note_on,0,0,0,,10,,,69,127
36103,note_off,205,0,0,,10,,,69,127
36103,note_off,0,0,0,,7,,,67,127
36104,note_on,1,0,0,,5,,,65,127
36104,note_on,0,0,0,,10,,,69,127
36309,note_off,205,0,0,,10,,,69,127
36309,note_off,0,0,0,,5,,,65,127
36310,note_on,1,0,0,,3,,,63,127
36310,note_on,0,0,0,,10,,,69,127
36515,note_off,205,0,0,,10,,,69,127
36515,note_off,0,0,0,,3,,,63,127
36516,note_on,1,0,0,,2,,,62,127
36516,note_on,0,0,0,,11,,,70,127
36721,note_off,205,0,0,,11,,,70,127
36721,note_off,0,0,0,,2,,,62,127
36722,note_on,1,0,0,,0,,,60,127
36722,note_on,0,0,0,,11,,,82,127
36927,note_off,205,0,0,,11,,,82,127
36927,note_off,0,0,0,,0,,,60,127
36928,note_on,1,0,0,,11,,,58,127
36928,note_on,0,0,0,,11,,,70,127
37133,note_off,205,0,0,,11,,,70,127
37133,note_off,0,0,0,,11,,,58,127
37134,note_on,1,0,0,,5,,,65,127
37134,note_on,0,0,0,,7,,,67,127
37339,note_off,205,0,0,,7,,,67,127
37339,note_off,0,0,0,,5,,,65,127
37340,note_on,1,0,0,,3,,,63,127
37340,note_on,0,0,0,,7,,,67,127
37545,note_off,205,0,0,,7,,,67,127
37545,note_off,0,0,0,,3,,,63,127
37546,note_on,1,0,0,,2,,,62,127
37546,note_on,0,0,0,,7,,,67,127
37751,note_off,205,0,0,,7,,,67,127
37751,note_off,0,0,0,,2,,,62,127
37752,note_on,1,0,0,,0,,,60,127
37752,note_on,0,0,0,,10,,,69,127
37957,note_off,205,0,0,,10,,,69,127
37957,note_off,0,0,0,,0,,,60,127
37958,note_on,1,0,0,,11,,,58,127
37958,note_on,0,0,0,,10,,,81,127
38163,note_off,205,0,0,,10,,,81,127
38163,note_off,0,0,0,,11,,,58,127
38164,note_on,1,0,0,,10,,,57,127
38164,note_on,0,0,0,,10,,,69,127
38369,note_off,205,0,0,,10,,,69,127
38369,note_off,0,0,0,,10,,,57,127
38370,note_on,1,0,0,,3,,,63,127
38370,note_on,0,0,0,,6,,,66,127
38575,note_off,205,0,0,,6,,,66,127
38575,note_off,0,0,0,,3,,,63,127
38576,note_on,1,0,0,,2,,,62,127
38576,note_on,0,0,0,,6,,,66,127
38781,note_off,205,0,0,,6,,,66,127
38781,note_off,0,0,0,,2,,,62,127
38782,note_on,1,0,0,,0,,,60,127
38782,note_on,0,0,0,,6,,,66,127
38987,note_off,205,0,0,,6,,,66,127
38987,note_off,0,0,0,,0,,,60,127
38988,note_on,1,0,0,,11,,,58,127
38988,note_on,0,0,0,,7,,,67,127
39193,note_off,205,0,0,,7,,,67,127
39193,note_off,0,0,0,,11,,,58,127
39194,note_on,1,0,0,,10,,,57,127
39194,note_on,0,0,0,,10,,,69,127
39399,note_off,205,0,0,,10,,,69,127
39399,note_off,0,0,0,,10,,,57,127
39400,note_on,1,0,0,,7,,,55,127
39400,note_on,0,0,0,,11,,,70,127
39605,note_off,205,0,0,,11,,,70,127
39605,note_off,0,0,0,,7,,,55,127
39606,note_on,1,0,0,,6,,,54,127
39606,note_on,0,0,0,,0,,,72,127
39811,note_off,205,0,0,,0,,,72,127
39811,note_off,0,0,0,,6,,,54,127
39812,note_on,1,0,0,,7,,,55,127
39812,note_on,0,0,0,,0,,,72,127
39879,note_off,67,0,0,,0,,,72,127
39880,note_on,1,0,0,,11,,,70,127
39947,note_off,67,0,0,,11,,,70,127
39948,note_on,1,0,0,,0,,,72,127
40015,note_off,67,0,0,,0,,,72,127
40015,note_off,0,0,0,,7,,,55,127
40016,note_on,1,0,0,,7,,,43,127
40016,note_on,0,0,0,,11,,,70,127
40083,note_off,67,0,0,,11,,,70,127
40084,note_on,1,0,0,,10,,,69,127
40151,note_off,67,0,0,,10,,,69,127
40152,note_on,1,0,0,,11,,,70,127
40219,note_off,67,0,0,,11,,,70,127
40219,note_off,0,0,0,,7,,,43,127
40220,note_on,1,0,0,,2,,,50,127
40220,note_on,0,0,0,,10,,,69,127
40424,note_off,204,0,0,,2,,,50,127
40425,note_off,1,0,0,,10,,,69,127
40426,note_on,1,0,0,,2,,,86,127
40630,note_off,204,0,0,,2,,,86,127
40632,note_on,2,0,0,,6,,,66,127
40632,note_on,0,0,0,,10,,,69,127
40837,note_off,205,0,0,,10,,,69,127
40837,note_off,0,0,0,,6,,,66,127
40838,note_on,1,0,0,,7,,,67,127
40838,note_on,0,0,0,,12,,,71,127
41043,note_off,205,0,0,,12,,,71,127
41043,note_off,0,0,0,,7,,,67,127
41044,note_on,1,0,0,,2,,,50,127
41044,note_on,0,0,0,,2,,,86,127
41249,note_off,205,0,0,,2,,,86,127
41249,note_off,0,0,0,,2,,,50,127
41250,note_on,1,0,0,,10,,,69,127
41250,note_on,0,0,0,,0,,,72,127
41455,note_off,205,0,0,,0,,,72,127
41455,note_off,0,0,0,,10,,,69,127
41456,note_on,1,0,0,,12,,,71,127
41456,note_on,0,0,0,,2,,,74,127
41661,note_off,205,0,0,,2,,,74,127
41661,note_off,0,0,0,,12,,,71,127
41662,note_on,1,0,0,,2,,,50,127
41662,note_on,0,0,0,,2,,,86,127
41867,note_off,205,0,0,,2,,,86,127
41867,note_off,0,0,0,,2,,,50,127
41868,note_on,1,0,0,,6,,,66,127
41868,note_on,0,0,0,,10,,,69,127
42073,note_off,205,0,0,,10,,,69,127
42073,note_off,0,0,0,,6,,,66,127
42074,note_on,1,0,0,,7,,,67,127
42074,note_on,0,0,0,,12,,,71,127
42279,note_off,205,0,0,,12,,,71,127
42279,note_off,0,0,0,,7,,,67,127
42280,note_on,1,0,0,,2,,,50,127
42280,note_on,0,0,0,,2,,,86,127
42485,note_off,205,0,0,,2,,,86,127
42485,note_off,0,0,0,,2,,,50,127
42486,note_on,1,0,0,,10,,,69,127
42486,note_on,0,0,0,,0,,,72,127
42691,note_off,205,0,0,,0,,,72,127
42691,note_off,0,0,0,,10,,,69,127
42692,note_on,1,0,0,,12,,,71,127
42692,note_on,0,0,0,,2,,,74,127
42897,note_off,205,0,0,,2,,,74,127
42897,note_off,0,0,0,,12,,,71,127
42898,note_on,1,0,0,,7,,,67,127
42898,note_on,0,0,0,,7,,,79,127
43103,note_off,205,0,0,,7,,,79,127
43103,note_off,0,0,0,,7,,,67,127
43104,note_on,1,0,0,,12,,,71,127
43104,note_on,0,0,0,,7,,,79,127
43309,note_off,205,0,0,,7,,,79,127
43309,note_off,0,0,0,,12,,,71,127
43310,note_on,1,0,0,,0,,,72,127
43310,note_on,0,0,0,,7,,,79,127
43377,note_off,67,0,0,,7,,,79,127
43378,note_on,1,0,0,,6,,,78,127
43445,note_off,67,0,0,,6,,,78,127
43446,note_on,1,0,0,,7,,,79,127
43513,note_off,67,0,0,,7,,,79,127
43513,note_off,0,0,0,,0,,,72,127
43514,note_on,1,0,0,,10,,,69,127
43514,note_on,0,0,0,,10,,,81,127
43719,note_off,205,0,0,,10,,,81,127
43719,note_off,0,0,0,,10,,,69,127
43720,note_on,1,0,0,,0,,,72,127
43720,note_on,0,0,0,,10,,,81,127
43925,note_off,205,0,0,,10,,,81,127
43925,note_off,0,0,0,,0,,,72,127
43926,note_on,1,0,0,,2,,,74,127
43926,note_on,0,0,0,,12,,,83,127
43976,note_off,50,0,0,,12,,,83,127
43977,note_on,1,0,0,,10,,,81,127
44027,note_off,50,0,0,,10,,,81,127
44028,note_on,1,0,0,,12,,,83,127
44078,note_off,50,0,0,,12,,,83,127
44079,note_on,1,0,0,,10,,,81,127
44129,note_off,50,0,0,,10,,,81,127
44129,note_off,0,0,0,,2,,,74,127
44130,note_on,1,0,0,,6,,,66,127
44130,note_on,0,0,0,,2,,,74,127
44335,note_off,205,0,0,,2,,,74,127
44335,note_off,0,0,0,,6,,,66,127
44336,note_on,1,0,0,,7,,,67,127
44336,note_on,0,0,0,,12,,,83,127
44336,note_on,0,0,0,,7,,,79,127
44541,note_off,205,0,0,,7,,,79,127
44541,note_off,0,0,0,,12,,,83,127
44541,note_off,0,0,0,,7,,,67,127
44542,note_on,1,0,0,,0,,,60,127
44542,note_on,0,0,0,,0,,,84,127
44542,note_on,0,0,0,,10,,,81,127
44747,note_off,205,0,0,,10,,,81,127
44747,note_off,0,0,0,,0,,,84,127
44747,note_off,0,0,0,,0,,,60,127
44748,note_on,1,0,0,,2,,,62,127
44748,note_on,0,0,0,,7,,,79,127
44748,note_on,0,0,0,,12,,,83,127
44953,note_off,205,0,0,,12,,,83,127
44953,note_off,0,0,0,,7,,,79,127
44953,note_off,0,0,0,,2,,,62,127
44954,note_on,1,0,0,,2,,,50,127
44954,note_on,0,0,0,,10,,,81,127
44954,note_on,0,0,0,,6,,,78,127
45159,note_off,205,0,0,,6,,,78,127
45159,note_off,0,0,0,,10,,,81,127
45159,note_off,0,0,0,,2,,,50,127
45160,note_on,1,0,0,,7,,,55,127
45160,note_on,0,0,0,,7,,,79,127
45365,note_off,205,0,0,,7,,,79,127
45365,note_off,0,0,0,,7,,,55,127
45366,note_on,1,0,0,,2,,,50,127
45366,note_on,0,0,0,,2,,,86,127
45571,note_off,205,0,0,,2,,,86,127
45571,note_off,0,0,0,,2,,,50,127
45572,note_on,1,0,0,,6,,,66,127
45572,note_on,0,0,0,,10,,,69,127
45777,note_off,205,0,0,,10,,,69,127
45777,note_off,0,0,0,,6,,,66,127
45778,note_on,1,0,0,,7,,,67,127
45778,note_on,0,0,0,,12,,,71,127
45983,note_off,205,0,0,,12,,,71,127
45983,note_off,0,0,0,,7,,,67,127
45984,note_on,1,0,0,,2,,,50,127
45984,note_on,0,0,0,,2,,,86,127
46189,note_off,205,0,0,,2,,,86,127
46189,note_off,0,0,0,,2,,,50,127
46190,note_on,1,0,0,,10,,,69,127
46190,note_on,0,0,0,,0,,,72,127
46395,note_off,205,0,0,,0,,,72,127
46395,note_off,0,0,0,,10,,,69,127
46396,note_on,1,0,0,,12,,,71,127
46396,note_on,0,0,0,,2,,,74,127
46601,note_off,205,0,0,,2,,,74,127
46601,note_off,0,0,0,,12,,,71,127
46602,note_on,1,0,0,,2,,,50,127
46602,note_on,0,0,0,,2,,,86,127
46807,note_off,205,0,0,,2,,,86,127
46807,note_off,0,0,0,,2,,,50,127
46808,note_on,1,0,0,,6,,,66,127
46808,note_on,0,0,0,,10,,,69,127
47013,note_off,205,0,0,,10,,,69,127
47013,note_off,0,0,0,,6,,,66,127
47014,note_on,1,0,0,,7,,,67,127
47014,note_on,0,0,0,,12,,,71,127
47219,note_off,205,0,0,,12,,,71,127
47219,note_off,0,0,0,,7,,,67,127
47220,note_on,1,0,0,,2,,,50,127
47220,note_on,0,0,0,,2,,,86,127
47425,note_off,205,0,0,,2,,,86,127
47425,note_off,0,0,0,,2,,,50,127
47426,note_on,1,0,0,,10,,,69,127
47426,note_on,0,0,0,,0,,,72,127
47631,note_off,205,0,0,,0,,,72,127
47631,note_off,0,0,0,,10,,,69,127
47632,note_on,1,0,0,,12,,,71,127
47632,note_on,0,0,0,,2,,,74,127
47837,note_off,205,0,0,,2,,,74,127
47837,note_off,0,0,0,,12,,,71,127
47838,note_on,1,0,0,,7,,,67,127
47838,note_on,0,0,0,,7,,,79,127
48043,note_off,205,0,0,,7,,,79,127
48043,note_off,0,0,0,,7,,,67,127
48044,note_on,1,0,0,,12,,,71,127
48044,note_on,0,0,0,,7,,,79,127
48249,note_off,205,0,0,,7,,,79,127
48249,note_off,0,0,0,,12,,,71,127
48250,note_on,1,0,0,,0,,,72,127
48250,note_on,0,0,0,,7,,,79,127
48317,note_off,67,0,0,,7,,,79,127
48318,note_on,1,0,0,,6,,,78,127
48385,note_off,67,0,0,,6,,,78,127
48386,note_on,1,0,0,,7,,,79,127
48453,note_off,67,0,0,,7,,,79,127
48453,note_off,0,0,0,,0,,,72,127
48454,note_on,1,0,0,,10,,,69,127
48454,note_on,0,0,0,,10,,,81,127
48659,note_off,205,0,0,,10,,,81,127
48659,note_off,0,0,0,,10,,,69,127
48660,note_on,1,0,0,,0,,,72,127
48660,note_on,0,0,0,,10,,,81,127
48865,note_off,205,0,0,,10,,,81,127
48865,note_off,0,0,0,,0,,,72,127
48866,note_on,1,0,0,,2,,,74,127
48866,note_on,0,0,0,,12,,,83,127
48916,note_off,50,0,0,,12,,,83,127
48917,note_on,1,0,0,,10,,,81,127
48967,note_off,50,0,0,,10,,,81,127
48968,note_on,1,0,0,,12,,,83,127
49018,note_off,50,0,0,,12,,,83,127
49019,note_on,1,0,0,,10,,,81,127
49069,note_off,50,0,0,,10,,,81,127
49069,note_off,0,0,0,,2,,,74,127
49070,note_on,1,0,0,,6,,,66,127
49070,note_on,0,0,0,,2,,,74,127
49275,note_off,205,0,0,,2,,,74,127
49275,note_off,0,0,0,,6,,,66,127
49276,note_on,1,0,0,,7,,,67,127
49276,note_on,0,0,0,,12,,,83,127
49276,note_on,0,0,0,,7,,,79,127
49481,note_off,205,0,0,,7,,,79,127
49481,note_off,0,0,0,,12,,,83,127
49481,note_off,0,0,0,,7,,,67,127
49482,note_on,1,0,0,,0,,,60,127
49482,note_on,0,0,0,,0,,,84,127
49482,note_on,0,0,0,,10,,,81,127
49687,note_off,205,0,0,,10,,,81,127
49687,note_off,0,0,0,,0,,,84,127
49687,note_off,0,0,0,,0,,,60,127
49688,note_on,1,0,0,,2,,,62,127
49688,note_on,0,0,0,,12,,,83,127
49688,note_on,0,0,0,,7,,,79,127
49893,note_off,205,0,0,,7,,,79,127
49893,note_off,0,0,0,,12,,,83,127
49893,note_off,0,0,0,,2,,,62,127
49894,note_on,1,0,0,,2,,,50,127
49894,note_on,0,0,0,,6,,,78,127
49894,note_on,0,0,0,,10,,,81,127
50099,note_off,205,0,0,,10,,,81,127
50099,note_off,0,0,0,,6,,,78,127
50099,note_off,0,0,0,,2,,,50,127
50100,note_on,1,0,0,,7,,,55,127
50100,note_on,0,0,0,,7,,,79,127
50100,note_on,0,0,0,,12,,,83,127
50202,note_off,102,0,0,,12,,,83,127
50203,note_on,1,0,0,,0,,,84,127
50305,note_off,102,0,0,,0,,,84,127
50305,note_off,0,0,0,,7,,,55,127
50306,note_on,1,0,0,,10,,,57,127
50306,note_on,0,0,0,,2,,,86,127
50507,note_off,201,0,0,,7,,,79,127
50510,note_off,3,0,0,,10,,,57,127
50511,note_on,1,0,0,,12,,,59,127
50716,note_off,205,0,0,,12,,,59,127
50716,note_off,0,0,0,,2,,,86,127
50717,note_on,1,0,0,,0,,,60,127
50717,note_on,0,0,0,,0,,,84,127
50784,note_off,67,0,0,,0,,,84,127
50785,note_on,1,0,0,,12,,,83,127
50852,note_off,67,0,0,,12,,,83,127
50853,note_on,1,0,0,,10,,,81,127
50920,note_off,67,0,0,,10,,,81,127
50920,note_off,0,0,0,,0,,,60,127
50921,note_on,1,0,0,,2,,,62,127
50921,note_on,0,0,0,,12,,,83,127
50988,note_off,67,0,0,,12,,,83,127
50989,note_on,1,0,0,,10,,,81,127
51056,note_off,67,0,0,,10,,,81,127
51057,note_on,1,0,0,,7,,,79,127
51124,note_off,67,0,0,,7,,,79,127
51124,note_off,0,0,0,,2,,,62,127
51125,note_on,1,0,0,,2,,,50,127
51125,note_on,0,0,0,,10,,,81,127
51192,note_off,67,0,0,,10,,,81,127
51193,note_on,1,0,0,,7,,,79,127
51260,note_off,67,0,0,,7,,,79,127
51261,note_on,1,0,0,,6,,,78,127
51328,note_off,67,0,0,,6,,,78,127
51328,note_off,0,0,0,,2,,,50,127
51329,note_on,1,0,0,,7,,,43,127
51329,note_on,0,0,0,,7,,,55,127
51329,note_on,0,0,0,,7,,,79,127
51329,note_on,0,0,0,,12,,,71,127
51431,note_off,102,0,0,,12,,,71,127
51433,note_on,2,0,0,,0,,,72,127
51534,note_off,101,0,0,,7,,,55,127
51534,note_off,0,0,0,,7,,,43,127
51536,note_off,2,0,0,,0,,,72,127
51538,note_on,2,0,0,,2,,,74,127
51538,note_on,0,0,0,,10,,,45,127
51736,note_off,198,0,0,,7,,,79,127
51746,note_off,10,0,0,,10,,,45,127
51748,note_on,2,0,0,,12,,,47,127
51956,note_off,208,0,0,,12,,,47,127
51956,note_off,0,0,0,,2,,,74,127
51958,note_on,2,0,0,,0,,,72,127
51958,note_on,0,0,0,,0,,,48,127
52027,note_off,69,0,0,,0,,,72,127
52028,note_on,1,0,0,,12,,,71,127
52097,note_off,69,0,0,,12,,,71,127
52098,note_on,1,0,0,,10,,,69,127
52167,note_off,69,0,0,,10,,,69,127
52167,note_off,0,0,0,,0,,,48,127
52169,note_on,2,0,0,,12,,,71,127
52169,note_on,0,0,0,,2,,,50,127
52238,note_off,69,0,0,,12,,,71,127
52239,note_on,1,0,0,,10,,,69,127
52308,note_off,69,0,0,,10,,,69,127
52309,note_on,1,0,0,,7,,,67,127
52378,note_off,69,0,0,,7,,,67,127
52378,note_off,0,0,0,,2,,,50,127
52379,note_on,1,0,0,,10,,,69,127
52379,note_on,0,0,0,,2,,,38,127
52448,note_off,69,0,0,,10,,,69,127
52450,note_on,2,0,0,,7,,,67,127
52519,note_off,69,0,0,,7,,,67,127
52520,note_on,1,0,0,,6,,,66,127
52587,note_off,67,0,0,,2,,,38,127
52588,note_off,1,0,0,,6,,,66,127
52589,note_on,1,0,0,,7,,,67,127
52589,note_on,0,0,0,,12,,,59,127
52589,note_on,0,0,0,,7,,,43,127
52692,note_off,103,0,0,,12,,,59,127
52696,note_on,4,0,0,,0,,,60,127
52797,note_off,101,0,0,,7,,,43,127
52802,note_off,5,0,0,,0,,,60,127
52805,note_on,3,0,0,,10,,,45,127
52805,note_on,0,0,0,,2,,,62,127
53003,note_off,198,0,0,,7,,,67,127
53020,note_off,17,0,0,,10,,,45,127
53023,note_on,3,0,0,,12,,,47,127
53238,note_off,215,0,0,,12,,,47,127
53238,note_off,0,0,0,,2,,,62,127
53241,note_on,3,0,0,,0,,,48,127
53241,note_on,0,0,0,,0,,,60,127
53312,note_off,71,0,0,,0,,,60,127
53314,note_on,2,0,0,,12,,,59,127
53385,note_off,71,0,0,,12,,,59,127
53387,note_on,2,0,0,,10,,,57,127
53457,note_off,70,0,0,,0,,,48,127
53458,note_off,1,0,0,,10,,,57,127
53459,note_on,1,0,0,,2,,,50,127
53459,note_on,0,0,0,,12,,,59,127
53530,note_off,71,0,0,,12,,,59,127
53533,note_on,3,0,0,,10,,,57,127
53604,note_off,71,0,0,,10,,,57,127
53605,note_on,1,0,0,,7,,,55,127
53675,note_off,70,0,0,,2,,,50,127
53676,note_off,1,0,0,,7,,,55,127
53678,note_on,2,0,0,,2,,,38,127
53678,note_on,0,0,0,,10,,,57,127
53749,note_off,71,0,0,,10,,,57,127
53752,note_on,3,0,0,,7,,,55,127
53823,note_off,71,0,0,,7,,,55,127
53824,note_on,1,0,0,,6,,,54,127
53894,note_off,70,0,0,,2,,,38,127
53895,note_off,1,0,0,,6,,,54,127
53897,note_on,2,0,0,,7,,,43,127
53897,note_on,0,0,0,,6,,,54,127
54687,note_off,790,0,0,,6,,,54,127
54688,note_on,1,0,0,,7,,,55,127
56261,note_off,1573,0,0,,7,,,55,127
56261,note_off,0,0,0,,7,,,43,127
59904,end_of_track,3643,1,0,,,,,,
