tick,type,time,meta,track,program,channel,pitch,tempo,note,velocity
0,copyright,0,1,0,,,,,,
0,program_change,0,0,0,6,0,,,,
0,pitchwheel,0,0,0,,0,0,,,
0,program_change,0,0,0,6,1,,,,
0,pitchwheel,0,0,0,,1,-590,,,
0,program_change,0,0,0,6,2,,,,
0,pitchwheel,0,0,0,,2,-272,,,
0,program_change,0,0,0,6,3,,,,
0,pitchwheel,0,0,0,,3,-353,,,
0,program_change,0,0,0,6,4,,,,
0,pitchwheel,0,0,0,,4,-560,,,
0,program_change,0,0,0,6,5,,,,
0,pitchwheel,0,0,0,,5,-80,,,
0,program_change,0,0,0,6,6,,,,
0,pitchwheel,0,0,0,,6,-625,,,
0,program_change,0,0,0,6,7,,,,
0,pitchwheel,0,0,0,,7,-130,,,
0,program_change,0,0,0,6,8,,,,
0,pitchwheel,0,0,0,,8,-512,,,
0,program_change,0,0,0,6,10,,,,
0,pitchwheel,0,0,0,,10,-464,,,
0,program_change,0,0,0,6,11,,,,
0,pitchwheel,0,0,0,,11,-208,,,
0,program_change,0,0,0,6,12,,,,
0,pitchwheel,0,0,0,,12,-553,,,
0,set_tempo,0,1,0,,,,500000,,
92,note_on,92,0,0,,7,,,67,127
161,note_off,69,0,0,,7,,,67,127
161,note_on,0,0,0,,5,,,65,127
229,note_off,68,0,0,,5,,,65,127
230,note_on,1,0,0,,7,,,67,127
299,note_off,69,0,0,,7,,,67,127
299,note_on,0,0,0,,5,,,65,127
367,note_off,68,0,0,,5,,,65,127
368,note_on,1,0,0,,4,,,64,127
459,note_off,91,0,0,,4,,,64,127
460,note_on,1,0,0,,4,,,64,127
643,note_off,183,0,0,,4,,,64,127
644,note_on,1,0,0,,5,,,65,127
827,note_off,183,0,0,,5,,,65,127
828,note_on,1,0,0,,10,,,57,127
828,note_on,0,0,0,,0,,,84,127
828,note_on,0,0,0,,10,,,81,127
1011,note_off,183,0,0,,10,,,57,127
1012,note_on,1,0,0,,11,,,58,127
1195,note_off,183,0,0,,11,,,58,127
1196,note_on,1,0,0,,0,,,60,127
1379,note_off,183,0,0,,10,,,81,127
1379,note_off,0,0,0,,0,,,84,127
1380,note_on,1,0,0,,7,,,79,127
1380,note_on,0,0,0,,11,,,82,127
1471,note_off,91,0,0,,11,,,82,127
1471,note_off,0,0,0,,7,,,79,127
1472,note_on,1,0,0,,5,,,77,127
1472,note_on,0,0,0,,10,,,81,127
1563,note_off,91,0,0,,10,,,81,127
1563,note_off,0,0,0,,5,,,77,127
1563,note_off,0,0,0,,0,,,60,127
1564,note_on,1,0,0,,0,,,48,127
1564,note_on,0,0,0,,4,,,76,127
1564,note_on,0,0,0,,7,,,79,127
1747,note_off,183,0,0,,7,,,79,127
1747,note_off,0,0,0,,4,,,76,127
1748,note_on,1,0,0,,5,,,77,127
1748,note_on,0,0,0,,2,,,74,127
1931,note_off,183,0,0,,2,,,74,127
1931,note_off,0,0,0,,5,,,77,127
1932,note_on,1,0,0,,5,,,77,127
1932,note_on,0,0,0,,2,,,74,127
2115,note_off,183,0,0,,2,,,74,127
2115,note_off,0,0,0,,5,,,77,127
2116,note_on,1,0,0,,4,,,76,127
2116,note_on,0,0,0,,7,,,79,127
2235,note_off,119,0,0,,0,,,48,127
2298,note_off,63,0,0,,7,,,79,127
2298,note_off,0,0,0,,4,,,76,127
2300,note_on,2,0,0,,4,,,64,127
2369,note_off,69,0,0,,4,,,64,127
2369,note_on,0,0,0,,2,,,62,127
2437,note_off,68,0,0,,2,,,62,127
2438,note_on,1,0,0,,4,,,64,127
2507,note_off,69,0,0,,4,,,64,127
2507,note_on,0,0,0,,2,,,62,127
2575,note_off,68,0,0,,2,,,62,127
2576,note_on,1,0,0,,1,,,61,127
2667,note_off,91,0,0,,1,,,61,127
2668,note_on,1,0,0,,1,,,61,127
2851,note_off,183,0,0,,1,,,61,127
2852,note_on,1,0,0,,2,,,62,127
3035,note_off,183,0,0,,2,,,62,127
3036,note_on,1,0,0,,5,,,53,127
3036,note_on,0,0,0,,10,,,81,127
3036,note_on,0,0,0,,5,,,77,127
3219,note_off,183,0,0,,5,,,53,127
3220,note_on,1,0,0,,7,,,55,127
3403,note_off,183,0,0,,7,,,55,127
3404,note_on,1,0,0,,10,,,57,127
3587,note_off,183,0,0,,5,,,77,127
3587,note_off,0,0,0,,10,,,81,127
3588,note_on,1,0,0,,4,,,76,127
3588,note_on,0,0,0,,7,,,79,127
3679,note_off,91,0,0,,7,,,79,127
3679,note_off,0,0,0,,4,,,76,127
3680,note_on,1,0,0,,2,,,74,127
3680,note_on,0,0,0,,5,,,77,127
3771,note_off,91,0,0,,5,,,77,127
3771,note_off,0,0,0,,2,,,74,127
3771,note_off,0,0,0,,10,,,57,127
3772,note_on,1,0,0,,10,,,45,127
3772,note_on,0,0,0,,0,,,72,127
3772,note_on,0,0,0,,4,,,76,127
3955,note_off,183,0,0,,4,,,76,127
3955,note_off,0,0,0,,0,,,72,127
3956,note_on,1,0,0,,12,,,71,127
3956,note_on,0,0,0,,2,,,74,127
4139,note_off,183,0,0,,2,,,74,127
4139,note_off,0,0,0,,12,,,71,127
4140,note_on,1,0,0,,12,,,71,127
4140,note_on,0,0,0,,2,,,74,127
4323,note_off,183,0,0,,2,,,74,127
4323,note_off,0,0,0,,12,,,71,127
4324,note_on,1,0,0,,0,,,72,127
4324,note_on,0,0,0,,4,,,76,127
4443,note_off,119,0,0,,10,,,45,127
4506,note_off,63,0,0,,4,,,76,127
4506,note_off,0,0,0,,0,,,72,127
4508,note_on,2,0,0,,0,,,60,127
4577,note_off,69,0,0,,0,,,60,127
4577,note_on,0,0,0,,11,,,58,127
4645,note_off,68,0,0,,11,,,58,127
4646,note_on,1,0,0,,0,,,60,127
4715,note_off,69,0,0,,0,,,60,127
4715,note_on,0,0,0,,11,,,58,127
4783,note_off,68,0,0,,11,,,58,127
4784,note_on,1,0,0,,10,,,57,127
4875,note_off,91,0,0,,10,,,57,127
4876,note_on,1,0,0,,10,,,57,127
5059,note_off,183,0,0,,10,,,57,127
5060,note_on,1,0,0,,11,,,58,127
5243,note_off,183,0,0,,11,,,58,127
5244,note_on,1,0,0,,2,,,50,127
5244,note_on,0,0,0,,5,,,77,127
5244,note_on,0,0,0,,2,,,74,127
5427,note_off,183,0,0,,2,,,50,127
5428,note_on,1,0,0,,4,,,52,127
5611,note_off,183,0,0,,4,,,52,127
5612,note_on,1,0,0,,5,,,53,127
5795,note_off,183,0,0,,2,,,74,127
5795,note_off,0,0,0,,5,,,77,127
5796,note_on,1,0,0,,4,,,76,127
5796,note_on,0,0,0,,0,,,72,127
5887,note_off,91,0,0,,0,,,72,127
5887,note_off,0,0,0,,4,,,76,127
5888,note_on,1,0,0,,2,,,74,127
5888,note_on,0,0,0,,11,,,70,127
5979,note_off,91,0,0,,11,,,70,127
5979,note_off,0,0,0,,2,,,74,127
5979,note_off,0,0,0,,5,,,53,127
5980,note_on,1,0,0,,5,,,41,127
5980,note_on,0,0,0,,0,,,72,127
5980,note_on,0,0,0,,10,,,69,127
6163,note_off,183,0,0,,10,,,69,127
6163,note_off,0,0,0,,0,,,72,127
6164,note_on,1,0,0,,7,,,67,127
6164,note_on,0,0,0,,11,,,70,127
6347,note_off,183,0,0,,11,,,70,127
6347,note_off,0,0,0,,7,,,67,127
6347,note_off,0,0,0,,5,,,41,127
6348,note_on,1,0,0,,0,,,60,127
6348,note_on,0,0,0,,11,,,70,127
6348,note_on,0,0,0,,7,,,67,127
6531,note_off,183,0,0,,7,,,67,127
6531,note_off,0,0,0,,11,,,70,127
6532,note_on,1,0,0,,0,,,72,127
6532,note_on,0,0,0,,10,,,69,127
6715,note_off,183,0,0,,10,,,69,127
6715,note_off,0,0,0,,0,,,72,127
6716,note_on,1,0,0,,10,,,69,127
6716,note_on,0,0,0,,0,,,72,127
6899,note_off,183,0,0,,0,,,72,127
6899,note_off,0,0,0,,10,,,69,127
6900,note_on,1,0,0,,11,,,58,127
6900,note_on,0,0,0,,2,,,74,127
6991,note_off,91,0,0,,11,,,58,127
6992,note_on,1,0,0,,10,,,57,127
7083,note_off,91,0,0,,10,,,57,127
7083,note_off,0,0,0,,2,,,74,127
7083,note_off,0,0,0,,0,,,60,127
7084,note_on,1,0,0,,7,,,55,127
7084,note_on,0,0,0,,4,,,76,127
7084,note_on,0,0,0,,2,,,74,127
7267,note_off,183,0,0,,4,,,76,127
7267,note_off,0,0,0,,7,,,55,127
7268,note_on,1,0,0,,5,,,53,127
7268,note_on,0,0,0,,5,,,77,127
7451,note_off,183,0,0,,5,,,77,127
7451,note_off,0,0,0,,5,,,53,127
7452,note_on,1,0,0,,4,,,52,127
7452,note_on,0,0,0,,7,,,79,127
7635,note_off,183,0,0,,7,,,79,127
7635,note_off,0,0,0,,4,,,52,127
7636,note_on,1,0,0,,2,,,50,127
7636,note_on,0,0,0,,10,,,81,127
7819,note_off,183,0,0,,10,,,81,127
7819,note_off,0,0,0,,2,,,50,127
7819,note_off,0,0,0,,2,,,74,127
7820,note_on,1,0,0,,0,,,48,127
7820,note_on,0,0,0,,0,,,60,127
7820,note_on,0,0,0,,0,,,84,127
7912,note_on,92,0,0,,11,,,82,127
7913,note_off,1,0,0,,0,,,84,127
8004,note_on,91,0,0,,0,,,84,127
8005,note_off,1,0,0,,11,,,82,127
8096,note_on,91,0,0,,11,,,82,127
8097,note_off,1,0,0,,0,,,84,127
8187,note_off,90,0,0,,0,,,48,127
8188,note_on,1,0,0,,4,,,52,127
8188,note_on,0,0,0,,0,,,84,127
8189,note_off,1,0,0,,11,,,82,127
8280,note_on,91,0,0,,11,,,82,127
8281,note_off,1,0,0,,0,,,84,127
8372,note_on,91,0,0,,10,,,81,127
8373,note_off,1,0,0,,11,,,82,127
8464,note_on,91,0,0,,7,,,79,127
8465,note_off,1,0,0,,10,,,81,127
8555,note_off,90,0,0,,7,,,79,127
8555,note_off,0,0,0,,4,,,52,127
8556,note_on,1,0,0,,5,,,53,127
8556,note_on,0,0,0,,10,,,81,127
8739,note_off,183,0,0,,10,,,81,127
8740,note_on,1,0,0,,5,,,77,127
8922,note_off,182,0,0,,0,,,60,127
8923,note_off,1,0,0,,5,,,77,127
8923,note_off,0,0,0,,5,,,53,127
8924,note_on,1,0,0,,11,,,58,127
8924,note_on,0,0,0,,7,,,79,127
9107,note_off,183,0,0,,7,,,79,127
9108,note_on,1,0,0,,2,,,74,127
9291,note_off,183,0,0,,2,,,74,127
9291,note_off,0,0,0,,11,,,58,127
9292,note_on,1,0,0,,0,,,60,127
9292,note_on,0,0,0,,2,,,74,127
9660,note_off,368,0,0,,2,,,74,127
9660,note_off,0,0,0,,0,,,60,127
9661,note_on,1,0,0,,0,,,48,127
9661,note_on,0,0,0,,5,,,77,127
9752,note_off,91,0,0,,5,,,77,127
9753,note_on,1,0,0,,4,,,76,127
9844,note_off,91,0,0,,4,,,76,127
9845,note_on,1,0,0,,2,,,74,127
9936,note_off,91,0,0,,2,,,74,127
9937,note_on,1,0,0,,4,,,76,127
10028,note_off,91,0,0,,4,,,76,127
10028,note_off,0,0,0,,0,,,48,127
10029,note_on,1,0,0,,5,,,53,127
10029,note_on,0,0,0,,4,,,76,127
10398,note_on,369,0,0,,5,,,41,127
10766,note_off,368,0,0,,4,,,76,127
10766,note_off,0,0,0,,5,,,53,127
10767,note_on,1,0,0,,5,,,77,127
10974,note_off,207,0,0,,5,,,41,127
11134,note_off,160,0,0,,5,,,77,127
11135,note_on,1,0,0,,5,,,65,127
11135,note_on,0,0,0,,10,,,69,127
11135,note_on,0,0,0,,2,,,86,127
11135,note_on,0,0,0,,0,,,84,127
11318,note_off,183,0,0,,0,,,84,127
11318,note_off,0,0,0,,2,,,86,127
11319,note_on,1,0,0,,12,,,83,127
11502,note_off,183,0,0,,12,,,83,127
11503,note_on,1,0,0,,12,,,83,127
11686,note_off,183,0,0,,12,,,83,127
11687,note_on,1,0,0,,0,,,84,127
11870,note_off,183,0,0,,0,,,84,127
11870,note_off,0,0,0,,10,,,69,127
11870,note_off,0,0,0,,5,,,65,127
11871,note_on,1,0,0,,7,,,67,127
11871,note_on,0,0,0,,4,,,64,127
11871,note_on,0,0,0,,2,,,74,127
12054,note_off,183,0,0,,2,,,74,127
12055,note_on,1,0,0,,4,,,76,127
12238,note_off,183,0,0,,4,,,76,127
12238,note_off,0,0,0,,4,,,64,127
12238,note_off,0,0,0,,7,,,67,127
12239,note_on,1,0,0,,2,,,62,127
12239,note_on,0,0,0,,5,,,65,127
12239,note_on,0,0,0,,5,,,77,127
12239,note_on,0,0,0,,7,,,79,127
12422,note_off,183,0,0,,7,,,79,127
12422,note_off,0,0,0,,5,,,77,127
12423,note_on,1,0,0,,4,,,76,127
12606,note_off,183,0,0,,4,,,76,127
12607,note_on,1,0,0,,4,,,76,127
12790,note_off,183,0,0,,4,,,76,127
12791,note_on,1,0,0,,5,,,77,127
12974,note_off,183,0,0,,5,,,77,127
12974,note_off,0,0,0,,5,,,65,127
12974,note_off,0,0,0,,2,,,62,127
12975,note_on,1,0,0,,4,,,64,127
12975,note_on,0,0,0,,0,,,60,127
12975,note_on,0,0,0,,12,,,71,127
13158,note_off,183,0,0,,12,,,71,127
13159,note_on,1,0,0,,0,,,72,127
13342,note_off,183,0,0,,0,,,72,127
13342,note_off,0,0,0,,0,,,60,127
13342,note_off,0,0,0,,4,,,64,127
13343,note_on,1,0,0,,2,,,62,127
13343,note_on,0,0,0,,12,,,59,127
13343,note_on,0,0,0,,4,,,76,127
13343,note_on,0,0,0,,2,,,74,127
13526,note_off,183,0,0,,2,,,74,127
13526,note_off,0,0,0,,4,,,76,127
13527,note_on,1,0,0,,0,,,72,127
13710,note_off,183,0,0,,0,,,72,127
13711,note_on,1,0,0,,0,,,72,127
13894,note_off,183,0,0,,0,,,72,127
13895,note_on,1,0,0,,2,,,74,127
14078,note_off,183,0,0,,2,,,74,127
14078,note_off,0,0,0,,12,,,59,127
14078,note_off,0,0,0,,2,,,62,127
14079,note_on,1,0,0,,0,,,60,127
14079,note_on,0,0,0,,10,,,57,127
14079,note_on,0,0,0,,4,,,64,127
14262,note_off,183,0,0,,4,,,64,127
14263,note_on,1,0,0,,6,,,66,127
14446,note_off,183,0,0,,6,,,66,127
14446,note_off,0,0,0,,10,,,57,127
14446,note_off,0,0,0,,0,,,60,127
14447,note_on,1,0,0,,7,,,55,127
14447,note_on,0,0,0,,7,,,67,127
14630,note_off,183,0,0,,7,,,67,127
14631,note_on,1,0,0,,0,,,72,127
14814,note_off,183,0,0,,0,,,72,127
14815,note_on,1,0,0,,7,,,43,127
14815,note_on,0,0,0,,12,,,71,127
14998,note_off,183,0,0,,12,,,71,127
14999,note_on,1,0,0,,4,,,76,127
15182,note_off,183,0,0,,4,,,76,127
15182,note_off,0,0,0,,7,,,55,127
15183,note_on,1,0,0,,2,,,74,127
15366,note_off,183,0,0,,2,,,74,127
15367,note_on,1,0,0,,10,,,81,127
15428,note_off,61,0,0,,7,,,43,127
15550,note_off,122,0,0,,10,,,81,127
15551,note_on,1,0,0,,7,,,55,127
15551,note_on,0,0,0,,7,,,79,127
15734,note_off,183,0,0,,7,,,55,127
15735,note_on,1,0,0,,0,,,60,127
15918,note_off,183,0,0,,0,,,60,127
15919,note_on,1,0,0,,12,,,59,127
16102,note_off,183,0,0,,12,,,59,127
16103,note_on,1,0,0,,4,,,64,127
16286,note_off,183,0,0,,4,,,64,127
16287,note_on,1,0,0,,2,,,62,127
16470,note_off,183,0,0,,2,,,62,127
16471,note_on,1,0,0,,10,,,69,127
16654,note_off,183,0,0,,10,,,69,127
16655,note_on,1,0,0,,7,,,67,127
16838,note_off,183,0,0,,7,,,79,127
16839,note_on,1,0,0,,10,,,81,127
17022,note_off,183,0,0,,10,,,81,127
17022,note_off,0,0,0,,7,,,67,127
17023,note_on,1,0,0,,5,,,65,127
17023,note_on,0,0,0,,7,,,79,127
17206,note_off,183,0,0,,7,,,79,127
17207,note_on,1,0,0,,12,,,71,127
17390,note_off,183,0,0,,12,,,71,127
17390,note_off,0,0,0,,5,,,65,127
17391,note_on,1,0,0,,4,,,64,127
17391,note_on,0,0,0,,0,,,72,127
17574,note_off,183,0,0,,0,,,72,127
17575,note_on,1,0,0,,4,,,76,127
17758,note_off,183,0,0,,4,,,76,127
17758,note_off,0,0,0,,4,,,64,127
17759,note_on,1,0,0,,2,,,62,127
17759,note_on,0,0,0,,5,,,77,127
17881,note_off,122,0,0,,5,,,77,127
17882,note_on,1,0,0,,2,,,74,127
18127,note_off,245,0,0,,2,,,62,127
18128,note_on,1,0,0,,5,,,65,127
18247,note_off,119,0,0,,2,,,74,127
18312,note_on,65,0,0,,12,,,71,127
18495,note_off,183,0,0,,12,,,71,127
18495,note_off,0,0,0,,5,,,65,127
18496,note_on,1,0,0,,4,,,64,127
18496,note_on,0,0,0,,0,,,72,127
18679,note_off,183,0,0,,0,,,72,127
18680,note_on,1,0,0,,4,,,76,127
18863,note_off,183,0,0,,4,,,76,127
18863,note_off,0,0,0,,4,,,64,127
18864,note_on,1,0,0,,2,,,62,127
18864,note_on,0,0,0,,5,,,77,127
18986,note_off,122,0,0,,5,,,77,127
18987,note_on,1,0,0,,2,,,74,127
19232,note_off,245,0,0,,2,,,62,127
19233,note_on,1,0,0,,5,,,65,127
19352,note_off,119,0,0,,2,,,74,127
19417,note_on,65,0,0,,12,,,71,127
19600,note_off,183,0,0,,12,,,71,127
19600,note_off,0,0,0,,5,,,65,127
19601,note_on,1,0,0,,4,,,64,127
19601,note_on,0,0,0,,0,,,72,127
19784,note_off,183,0,0,,0,,,72,127
19785,note_on,1,0,0,,7,,,79,127
19968,note_off,183,0,0,,4,,,64,127
19969,note_on,1,0,0,,5,,,65,127
20061,note_off,92,0,0,,7,,,79,127
20153,note_on,92,0,0,,8,,,80,127
20336,note_off,183,0,0,,8,,,80,127
20337,note_on,1,0,0,,10,,,81,127
20520,note_off,183,0,0,,5,,,65,127
20521,note_on,1,0,0,,2,,,62,127
20704,note_off,183,0,0,,2,,,62,127
20705,note_on,1,0,0,,4,,,64,127
20766,note_on,61,0,0,,7,,,79,127
20770,note_off,4,0,0,,10,,,81,127
20828,note_on,58,0,0,,10,,,81,127
20857,note_off,29,0,0,,7,,,79,127
20889,note_off,32,0,0,,4,,,64,127
20890,note_on,1,0,0,,0,,,60,127
20890,note_on,0,0,0,,7,,,79,127
20920,note_off,30,0,0,,10,,,81,127
21073,note_off,153,0,0,,7,,,79,127
21074,note_off,1,0,0,,0,,,60,127
21075,note_on,1,0,0,,2,,,62,127
21259,note_on,184,0,0,,4,,,76,127
21442,note_off,183,0,0,,4,,,76,127
21443,note_on,1,0,0,,5,,,77,127
21626,note_off,183,0,0,,2,,,62,127
21627,note_on,1,0,0,,12,,,59,127
21810,note_off,183,0,0,,12,,,59,127
21811,note_on,1,0,0,,0,,,60,127
21872,note_on,61,0,0,,4,,,76,127
21876,note_off,4,0,0,,5,,,77,127
21934,note_on,58,0,0,,5,,,77,127
21964,note_off,30,0,0,,4,,,76,127
21995,note_off,31,0,0,,0,,,60,127
21996,note_on,1,0,0,,10,,,57,127
21996,note_on,0,0,0,,4,,,76,127
22026,note_off,30,0,0,,5,,,77,127
22179,note_off,153,0,0,,4,,,76,127
22180,note_off,1,0,0,,10,,,57,127
22181,note_on,1,0,0,,12,,,59,127
22365,note_on,184,0,0,,1,,,73,127
22548,note_off,183,0,0,,1,,,73,127
22549,note_on,1,0,0,,2,,,74,127
22732,note_off,183,0,0,,12,,,59,127
22733,note_on,1,0,0,,7,,,55,127
22916,note_off,183,0,0,,7,,,55,127
22917,note_on,1,0,0,,10,,,57,127
22978,note_on,61,0,0,,0,,,72,127
22982,note_off,4,0,0,,2,,,74,127
23040,note_on,58,0,0,,2,,,74,127
23070,note_off,30,0,0,,0,,,72,127
23101,note_off,31,0,0,,10,,,57,127
23102,note_on,1,0,0,,6,,,54,127
23102,note_on,0,0,0,,0,,,72,127
23132,note_off,30,0,0,,2,,,74,127
23285,note_off,153,0,0,,0,,,72,127
23286,note_off,1,0,0,,6,,,54,127
23287,note_on,1,0,0,,7,,,55,127
23287,note_on,0,0,0,,12,,,71,127
23655,note_off,368,0,0,,12,,,71,127
23655,note_off,0,0,0,,7,,,55,127
23656,note_on,1,0,0,,4,,,52,127
23656,note_on,0,0,0,,2,,,74,127
23747,note_off,91,0,0,,2,,,74,127
23748,note_on,1,0,0,,0,,,72,127
23839,note_off,91,0,0,,0,,,72,127
23840,note_on,1,0,0,,2,,,74,127
23931,note_off,91,0,0,,2,,,74,127
23932,note_on,1,0,0,,0,,,72,127
24023,note_off,91,0,0,,0,,,72,127
24023,note_off,0,0,0,,4,,,52,127
24024,note_on,1,0,0,,0,,,48,127
24024,note_on,0,0,0,,2,,,74,127
24115,note_off,91,0,0,,2,,,74,127
24116,note_on,1,0,0,,0,,,72,127
24207,note_off,91,0,0,,0,,,72,127
24208,note_on,1,0,0,,12,,,71,127
24299,note_off,91,0,0,,12,,,71,127
24300,note_on,1,0,0,,0,,,72,127
24391,note_off,91,0,0,,0,,,48,127
24392,note_on,1,0,0,,7,,,55,127
24699,note_on,307,0,0,,4,,,76,127
24759,note_off,60,0,0,,7,,,55,127
24759,note_off,0,0,0,,0,,,72,127
24760,note_on,1,0,0,,7,,,43,127
24760,note_on,0,0,0,,2,,,74,127
24790,note_off,30,0,0,,4,,,76,127
24822,note_on,32,0,0,,4,,,76,127
24852,note_off,30,0,0,,2,,,74,127
24884,note_on,32,0,0,,2,,,74,127
24914,note_off,30,0,0,,4,,,76,127
25129,note_off,215,0,0,,7,,,43,127
25130,note_on,1,0,0,,7,,,31,127
25249,note_off,119,0,0,,2,,,74,127
25498,note_off,249,0,0,,7,,,31,127
25499,note_on,1,0,0,,4,,,64,127
25499,note_on,0,0,0,,4,,,76,127
25499,note_on,0,0,0,,7,,,79,127
25682,note_off,183,0,0,,4,,,76,127
25682,note_off,0,0,0,,4,,,64,127
25683,note_on,1,0,0,,7,,,55,127
25683,note_on,0,0,0,,7,,,67,127
25863,note_off,180,0,0,,7,,,79,127
25866,note_off,3,0,0,,7,,,67,127
25866,note_off,0,0,0,,7,,,55,127
25867,note_on,1,0,0,,2,,,62,127
25867,note_on,0,0,0,,10,,,69,127
25867,note_on,0,0,0,,2,,,74,127
25867,note_on,0,0,0,,5,,,77,127
26050,note_off,183,0,0,,2,,,74,127
26050,note_off,0,0,0,,10,,,69,127
26050,note_off,0,0,0,,2,,,62,127
26051,note_on,1,0,0,,7,,,55,127
26051,note_on,0,0,0,,12,,,71,127
26231,note_off,180,0,0,,5,,,77,127
26234,note_off,3,0,0,,12,,,71,127
26234,note_off,0,0,0,,7,,,55,127
26235,note_on,1,0,0,,0,,,60,127
26235,note_on,0,0,0,,0,,,72,127
26235,note_on,0,0,0,,4,,,76,127
26280,note_off,45,0,0,,0,,,72,127
26280,note_off,0,0,0,,0,,,60,127
26281,note_on,1,0,0,,12,,,59,127
26281,note_on,0,0,0,,12,,,71,127
26326,note_off,45,0,0,,12,,,71,127
26326,note_off,0,0,0,,12,,,59,127
26327,note_on,1,0,0,,0,,,60,127
26327,note_on,0,0,0,,0,,,72,127
26600,note_off,273,0,0,,4,,,76,127
26603,note_off,3,0,0,,0,,,72,127
26603,note_off,0,0,0,,0,,,60,127
26604,note_on,1,0,0,,4,,,64,127
26604,note_on,0,0,0,,4,,,76,127
26604,note_on,0,0,0,,7,,,79,127
26787,note_off,183,0,0,,4,,,76,127
26787,note_off,0,0,0,,4,,,64,127
26788,note_on,1,0,0,,7,,,55,127
26788,note_on,0,0,0,,7,,,67,127
26968,note_off,180,0,0,,7,,,79,127
26971,note_off,3,0,0,,7,,,67,127
26971,note_off,0,0,0,,7,,,55,127
26972,note_on,1,0,0,,2,,,62,127
26972,note_on,0,0,0,,10,,,69,127
26972,note_on,0,0,0,,5,,,77,127
26972,note_on,0,0,0,,2,,,74,127
27155,note_off,183,0,0,,2,,,74,127
27155,note_off,0,0,0,,10,,,69,127
27155,note_off,0,0,0,,2,,,62,127
27156,note_on,1,0,0,,7,,,55,127
27156,note_on,0,0,0,,12,,,71,127
27336,note_off,180,0,0,,5,,,77,127
27339,note_off,3,0,0,,12,,,71,127
27339,note_off,0,0,0,,7,,,55,127
27340,note_on,1,0,0,,0,,,60,127
27340,note_on,0,0,0,,0,,,72,127
27340,note_on,0,0,0,,4,,,76,127
27373,note_off,33,0,0,,0,,,72,127
27385,note_off,12,0,0,,0,,,60,127
27386,note_on,1,0,0,,12,,,59,127
27386,note_on,0,0,0,,12,,,71,127
27431,note_off,45,0,0,,12,,,71,127
27431,note_off,0,0,0,,12,,,59,127
27432,note_on,1,0,0,,0,,,60,127
27432,note_on,0,0,0,,0,,,72,127
27705,note_off,273,0,0,,4,,,76,127
27708,note_off,3,0,0,,0,,,72,127
27708,note_off,0,0,0,,0,,,60,127
27709,note_on,1,0,0,,4,,,64,127
27709,note_on,0,0,0,,4,,,76,127
27709,note_on,0,0,0,,7,,,79,127
27892,note_off,183,0,0,,4,,,76,127
27892,note_off,0,0,0,,4,,,64,127
27893,note_on,1,0,0,,7,,,55,127
27893,note_on,0,0,0,,7,,,67,127
28073,note_off,180,0,0,,7,,,79,127
28076,note_off,3,0,0,,7,,,67,127
28076,note_off,0,0,0,,7,,,55,127
28077,note_on,1,0,0,,2,,,62,127
28077,note_on,0,0,0,,10,,,69,127
28077,note_on,0,0,0,,2,,,74,127
28077,note_on,0,0,0,,5,,,77,127
28260,note_off,183,0,0,,2,,,74,127
28260,note_off,0,0,0,,10,,,69,127
28260,note_off,0,0,0,,2,,,62,127
28261,note_on,1,0,0,,7,,,55,127
28261,note_on,0,0,0,,12,,,71,127
28441,note_off,180,0,0,,5,,,77,127
28444,note_off,3,0,0,,12,,,71,127
28444,note_off,0,0,0,,7,,,55,127
28445,note_on,1,0,0,,0,,,60,127
28445,note_on,0,0,0,,0,,,72,127
28445,note_on,0,0,0,,4,,,76,127
28472,note_off,27,0,0,,0,,,72,127
28490,note_off,18,0,0,,0,,,60,127
28491,note_on,1,0,0,,12,,,59,127
28491,note_on,0,0,0,,12,,,71,127
28536,note_off,45,0,0,,12,,,71,127
28536,note_off,0,0,0,,12,,,59,127
28537,note_on,1,0,0,,0,,,60,127
28537,note_on,0,0,0,,0,,,72,127
28787,note_off,250,0,0,,0,,,72,127
28810,note_off,23,0,0,,4,,,76,127
28813,note_off,3,0,0,,0,,,60,127
28814,note_on,1,0,0,,5,,,65,127
28998,note_on,184,0,0,,10,,,81,127
29181,note_off,183,0,0,,10,,,81,127
29182,note_on,1,0,0,,10,,,69,127
29365,note_off,183,0,0,,10,,,69,127
29365,note_off,0,0,0,,5,,,65,127
29366,note_on,1,0,0,,4,,,64,127
29366,note_on,0,0,0,,12,,,71,127
29549,note_off,183,0,0,,12,,,71,127
29549,note_off,0,0,0,,4,,,64,127
29550,note_on,1,0,0,,2,,,62,127
29550,note_on,0,0,0,,0,,,72,127
29595,note_off,45,0,0,,0,,,72,127
29596,note_on,1,0,0,,12,,,71,127
29641,note_off,45,0,0,,12,,,71,127
29642,note_on,1,0,0,,0,,,72,127
29733,note_off,91,0,0,,0,,,72,127
29734,note_on,1,0,0,,2,,,74,127
29916,note_off,182,0,0,,2,,,74,127
29917,note_off,1,0,0,,2,,,62,127
29918,note_on,1,0,0,,4,,,64,127
30102,note_on,184,0,0,,7,,,79,127
30285,note_off,183,0,0,,7,,,79,127
30286,note_on,1,0,0,,12,,,71,127
30331,note_off,45,0,0,,12,,,71,127
30332,note_on,1,0,0,,0,,,72,127
30377,note_off,45,0,0,,0,,,72,127
30378,note_on,1,0,0,,2,,,74,127
30423,note_off,45,0,0,,2,,,74,127
30424,note_on,1,0,0,,4,,,76,127
30469,note_off,45,0,0,,4,,,76,127
30469,note_off,0,0,0,,4,,,64,127
30470,note_on,1,0,0,,2,,,62,127
30470,note_on,0,0,0,,5,,,77,127
30515,note_off,45,0,0,,5,,,77,127
30516,note_on,1,0,0,,7,,,79,127
30561,note_off,45,0,0,,7,,,79,127
30562,note_on,1,0,0,,10,,,81,127
30607,note_off,45,0,0,,10,,,81,127
30608,note_on,1,0,0,,12,,,83,127
30653,note_off,45,0,0,,12,,,83,127
30653,note_off,0,0,0,,2,,,62,127
30654,note_on,1,0,0,,0,,,60,127
30654,note_on,0,0,0,,0,,,84,127
31022,note_off,368,0,0,,0,,,84,127
31022,note_off,0,0,0,,0,,,60,127
31023,note_on,1,0,0,,5,,,65,127
31023,note_on,0,0,0,,12,,,83,127
31023,note_on,0,0,0,,0,,,72,127
31114,note_off,91,0,0,,12,,,83,127
31115,note_on,1,0,0,,10,,,81,127
31206,note_off,91,0,0,,10,,,81,127
31207,note_on,1,0,0,,7,,,79,127
31298,note_off,91,0,0,,7,,,79,127
31299,note_on,1,0,0,,5,,,77,127
31390,note_off,91,0,0,,5,,,77,127
31390,note_off,0,0,0,,5,,,65,127
31391,note_on,1,0,0,,7,,,67,127
31391,note_on,0,0,0,,4,,,76,127
31759,note_off,368,0,0,,4,,,76,127
31759,note_off,0,0,0,,7,,,67,127
31759,note_off,0,0,0,,0,,,72,127
31760,note_on,1,0,0,,7,,,55,127
31760,note_on,0,0,0,,12,,,71,127
31760,note_on,0,0,0,,4,,,76,127
31851,note_off,91,0,0,,4,,,76,127
31852,note_on,1,0,0,,2,,,74,127
31942,note_off,90,0,0,,12,,,71,127
31943,note_off,1,0,0,,2,,,74,127
31944,note_on,1,0,0,,4,,,76,127
32035,note_off,91,0,0,,4,,,76,127
32036,note_on,1,0,0,,2,,,74,127
32127,note_off,91,0,0,,2,,,74,127
32127,note_off,0,0,0,,7,,,55,127
32128,note_on,1,0,0,,0,,,48,127
32128,note_on,0,0,0,,0,,,72,127
32497,note_on,369,0,0,,0,,,36,127
33050,note_off,553,0,0,,0,,,72,127
33050,note_off,0,0,0,,0,,,48,127
33233,note_off,183,0,0,,0,,,36,127
33234,note_on,1,0,0,,4,,,64,127
33234,note_on,0,0,0,,7,,,79,127
33234,note_on,0,0,0,,4,,,76,127
33417,note_off,183,0,0,,4,,,76,127
33417,note_off,0,0,0,,4,,,64,127
33418,note_on,1,0,0,,7,,,55,127
33418,note_on,0,0,0,,7,,,67,127
33598,note_off,180,0,0,,7,,,79,127
33601,note_off,3,0,0,,7,,,67,127
33601,note_off,0,0,0,,7,,,55,127
33602,note_on,1,0,0,,2,,,62,127
33602,note_on,0,0,0,,5,,,77,127
33602,note_on,0,0,0,,10,,,69,127
33602,note_on,0,0,0,,2,,,74,127
33785,note_off,183,0,0,,2,,,74,127
33785,note_off,0,0,0,,10,,,69,127
33785,note_off,0,0,0,,2,,,62,127
33786,note_on,1,0,0,,7,,,55,127
33786,note_on,0,0,0,,12,,,71,127
33966,note_off,180,0,0,,5,,,77,127
33969,note_off,3,0,0,,12,,,71,127
33969,note_off,0,0,0,,7,,,55,127
33970,note_on,1,0,0,,0,,,36,127
33970,note_on,0,0,0,,0,,,72,127
33970,note_on,0,0,0,,4,,,76,127
33998,note_off,28,0,0,,0,,,72,127
34016,note_on,18,0,0,,12,,,71,127
34061,note_off,45,0,0,,12,,,71,127
34062,note_on,1,0,0,,0,,,72,127
34335,note_off,273,0,0,,4,,,76,127
34338,note_off,3,0,0,,0,,,72,127
34338,note_off,0,0,0,,0,,,36,127
34339,note_on,1,0,0,,4,,,64,127
34339,note_on,0,0,0,,4,,,76,127
34339,note_on,0,0,0,,7,,,79,127
34522,note_off,183,0,0,,4,,,76,127
34522,note_off,0,0,0,,4,,,64,127
34523,note_on,1,0,0,,7,,,55,127
34523,note_on,0,0,0,,7,,,67,127
34703,note_off,180,0,0,,7,,,79,127
34706,note_off,3,0,0,,7,,,67,127
34706,note_off,0,0,0,,7,,,55,127
34707,note_on,1,0,0,,2,,,62,127
34707,note_on,0,0,0,,10,,,69,127
34707,note_on,0,0,0,,5,,,77,127
34707,note_on,0,0,0,,2,,,74,127
34890,note_off,183,0,0,,2,,,74,127
34890,note_off,0,0,0,,10,,,69,127
34890,note_off,0,0,0,,2,,,62,127
34891,note_on,1,0,0,,7,,,55,127
34891,note_on,0,0,0,,12,,,71,127
35071,note_off,180,0,0,,5,,,77,127
35074,note_off,3,0,0,,12,,,71,127
35074,note_off,0,0,0,,7,,,55,127
35075,note_on,1,0,0,,0,,,36,127
35075,note_on,0,0,0,,0,,,72,127
35075,note_on,0,0,0,,4,,,76,127
35108,note_off,33,0,0,,0,,,72,127
35121,note_on,13,0,0,,12,,,71,127
35166,note_off,45,0,0,,12,,,71,127
35167,note_on,1,0,0,,0,,,72,127
35440,note_off,273,0,0,,4,,,76,127
35443,note_off,3,0,0,,0,,,72,127
35443,note_off,0,0,0,,0,,,36,127
35444,note_on,1,0,0,,4,,,64,127
35444,note_on,0,0,0,,4,,,76,127
35444,note_on,0,0,0,,7,,,79,127
35627,note_off,183,0,0,,4,,,76,127
35627,note_off,0,0,0,,4,,,64,127
35628,note_on,1,0,0,,7,,,55,127
35628,note_on,0,0,0,,7,,,67,127
35808,note_off,180,0,0,,7,,,79,127
35811,note_off,3,0,0,,7,,,67,127
35811,note_off,0,0,0,,7,,,55,127
35812,note_on,1,0,0,,2,,,62,127
35812,note_on,0,0,0,,5,,,77,127
35812,note_on,0,0,0,,2,,,74,127
35812,note_on,0,0,0,,10,,,69,127
35995,note_off,183,0,0,,10,,,69,127
35995,note_off,0,0,0,,2,,,74,127
35995,note_off,0,0,0,,2,,,62,127
35996,note_on,1,0,0,,7,,,55,127
35996,note_on,0,0,0,,12,,,71,127
36176,note_off,180,0,0,,5,,,77,127
36179,note_off,3,0,0,,12,,,71,127
36179,note_off,0,0,0,,7,,,55,127
36180,note_on,1,0,0,,0,,,36,127
36180,note_on,0,0,0,,0,,,72,127
36180,note_on,0,0,0,,4,,,76,127
36216,note_off,36,0,0,,0,,,72,127
36227,note_on,11,0,0,,12,,,71,127
36272,note_off,45,0,0,,12,,,71,127
36273,note_on,1,0,0,,0,,,72,127
36542,note_off,269,0,0,,0,,,72,127
36546,note_off,4,0,0,,4,,,76,127
36549,note_off,3,0,0,,0,,,36,127
36550,note_on,1,0,0,,5,,,65,127
36734,note_on,184,0,0,,10,,,81,127
36917,note_off,183,0,0,,10,,,81,127
36918,note_on,1,0,0,,10,,,69,127
37101,note_off,183,0,0,,10,,,69,127
37101,note_off,0,0,0,,5,,,65,127
37102,note_on,1,0,0,,4,,,64,127
37102,note_on,0,0,0,,12,,,71,127
37285,note_off,183,0,0,,12,,,71,127
37285,note_off,0,0,0,,4,,,64,127
37286,note_on,1,0,0,,2,,,62,127
37286,note_on,0,0,0,,0,,,72,127
37331,note_off,45,0,0,,0,,,72,127
37332,note_on,1,0,0,,12,,,71,127
37377,note_off,45,0,0,,12,,,71,127
37378,note_on,1,0,0,,0,,,72,127
37469,note_off,91,0,0,,0,,,72,127
37470,note_on,1,0,0,,2,,,74,127
37652,note_off,182,0,0,,2,,,74,127
37653,note_off,1,0,0,,2,,,62,127
37654,note_on,1,0,0,,4,,,64,127
37838,note_on,184,0,0,,7,,,79,127
38021,note_off,183,0,0,,7,,,79,127
38022,note_on,1,0,0,,12,,,71,127
38067,note_off,45,0,0,,12,,,71,127
38068,note_on,1,0,0,,0,,,72,127
38113,note_off,45,0,0,,0,,,72,127
38114,note_on,1,0,0,,2,,,74,127
38159,note_off,45,0,0,,2,,,74,127
38160,note_on,1,0,0,,4,,,76,127
38205,note_off,45,0,0,,4,,,76,127
38205,note_off,0,0,0,,4,,,64,127
38206,note_on,1,0,0,,2,,,62,127
38206,note_on,0,0,0,,5,,,77,127
38251,note_off,45,0,0,,5,,,77,127
38252,note_on,1,0,0,,7,,,79,127
38297,note_off,45,0,0,,7,,,79,127
38298,note_on,1,0,0,,10,,,81,127
38343,note_off,45,0,0,,10,,,81,127
38344,note_on,1,0,0,,12,,,83,127
38389,note_off,45,0,0,,12,,,83,127
38389,note_off,0,0,0,,2,,,62,127
38390,note_on,1,0,0,,0,,,60,127
38390,note_on,0,0,0,,0,,,84,127
38758,note_off,368,0,0,,0,,,84,127
38758,note_off,0,0,0,,0,,,60,127
38759,note_on,1,0,0,,5,,,53,127
38759,note_on,0,0,0,,12,,,83,127
38759,note_on,0,0,0,,0,,,72,127
38850,note_off,91,0,0,,12,,,83,127
38851,note_on,1,0,0,,10,,,81,127
38942,note_off,91,0,0,,10,,,81,127
38943,note_on,1,0,0,,7,,,79,127
39034,note_off,91,0,0,,7,,,79,127
39035,note_on,1,0,0,,5,,,77,127
39126,note_off,91,0,0,,5,,,77,127
39126,note_off,0,0,0,,5,,,53,127
39127,note_on,1,0,0,,7,,,55,127
39127,note_on,0,0,0,,4,,,76,127
39310,note_off,183,0,0,,0,,,72,127
39494,note_off,184,0,0,,4,,,76,127
39494,note_off,0,0,0,,7,,,55,127
39495,note_on,1,0,0,,7,,,43,127
39495,note_on,0,0,0,,4,,,76,127
39495,note_on,0,0,0,,12,,,71,127
39586,note_off,91,0,0,,4,,,76,127
39587,note_on,1,0,0,,2,,,74,127
39677,note_off,90,0,0,,12,,,71,127
39678,note_off,1,0,0,,2,,,74,127
39679,note_on,1,0,0,,4,,,76,127
39770,note_off,91,0,0,,4,,,76,127
39771,note_on,1,0,0,,2,,,74,127
39862,note_off,91,0,0,,2,,,74,127
39862,note_off,0,0,0,,7,,,43,127
39863,note_on,1,0,0,,0,,,48,127
39863,note_on,0,0,0,,0,,,72,127
40046,note_off,183,0,0,,0,,,72,127
40047,note_on,1,0,0,,7,,,67,127
40230,note_off,183,0,0,,7,,,67,127
40231,note_on,1,0,0,,12,,,59,127
40276,note_off,45,0,0,,12,,,59,127
40277,note_on,1,0,0,,0,,,60,127
40322,note_off,45,0,0,,0,,,60,127
40323,note_off,1,0,0,,0,,,48,127
40323,note_on,0,0,0,,2,,,62,127
40368,note_off,45,0,0,,2,,,62,127
40369,note_on,1,0,0,,4,,,64,127
40414,note_off,45,0,0,,4,,,64,127
40415,note_on,1,0,0,,2,,,50,127
40415,note_on,0,0,0,,5,,,65,127
40460,note_off,45,0,0,,5,,,65,127
40461,note_on,1,0,0,,7,,,67,127
40506,note_off,45,0,0,,7,,,67,127
40507,note_on,1,0,0,,10,,,69,127
40552,note_off,45,0,0,,10,,,69,127
40553,note_on,1,0,0,,12,,,71,127
40598,note_off,45,0,0,,12,,,71,127
40598,note_off,0,0,0,,2,,,50,127
40599,note_on,1,0,0,,4,,,52,127
40599,note_on,0,0,0,,0,,,72,127
40967,note_off,368,0,0,,0,,,72,127
40967,note_off,0,0,0,,4,,,52,127
40968,note_on,1,0,0,,5,,,53,127
40968,note_on,0,0,0,,0,,,60,127
40968,note_on,0,0,0,,12,,,71,127
41059,note_off,91,0,0,,12,,,71,127
41060,note_on,1,0,0,,10,,,69,127
41151,note_off,91,0,0,,10,,,69,127
41152,note_on,1,0,0,,7,,,67,127
41243,note_off,91,0,0,,7,,,67,127
41244,note_on,1,0,0,,5,,,65,127
41335,note_off,91,0,0,,5,,,65,127
41335,note_off,0,0,0,,5,,,53,127
41336,note_on,1,0,0,,7,,,55,127
41336,note_on,0,0,0,,4,,,64,127
41519,note_off,183,0,0,,0,,,60,127
41703,note_off,184,0,0,,4,,,64,127
41703,note_off,0,0,0,,7,,,55,127
41704,note_on,1,0,0,,7,,,43,127
41704,note_on,0,0,0,,4,,,64,127
41793,note_on,89,0,0,,2,,,62,127
41795,note_off,2,0,0,,4,,,64,127
41882,note_on,87,0,0,,4,,,64,127
41884,note_off,2,0,0,,2,,,62,127
41971,note_on,87,0,0,,2,,,62,127
41973,note_off,2,0,0,,4,,,64,127
42071,note_off,98,0,0,,2,,,62,127
42071,note_off,0,0,0,,7,,,43,127
42072,note_on,1,0,0,,0,,,36,127
42072,note_on,0,0,0,,0,,,60,127
42994,note_off,922,0,0,,0,,,60,127
43177,note_off,183,0,0,,0,,,36,127
43178,note_on,1,0,0,,2,,,62,127
43247,note_off,69,0,0,,2,,,62,127
43247,note_on,0,0,0,,0,,,60,127
43315,note_off,68,0,0,,0,,,60,127
43316,note_on,1,0,0,,2,,,62,127
43385,note_off,69,0,0,,2,,,62,127
43385,note_on,0,0,0,,0,,,60,127
43453,note_off,68,0,0,,0,,,60,127
43454,note_on,1,0,0,,12,,,59,127
43545,note_off,91,0,0,,12,,,59,127
43546,note_on,1,0,0,,12,,,59,127
43729,note_off,183,0,0,,12,,,59,127
43730,note_on,1,0,0,,0,,,60,127
43913,note_off,183,0,0,,0,,,60,127
43914,note_on,1,0,0,,4,,,52,127
43914,note_on,0,0,0,,4,,,76,127
43914,note_on,0,0,0,,7,,,79,127
44097,note_off,183,0,0,,4,,,52,127
44098,note_on,1,0,0,,5,,,53,127
44281,note_off,183,0,0,,5,,,53,127
44282,note_on,1,0,0,,7,,,55,127
44465,note_off,183,0,0,,7,,,79,127
44465,note_off,0,0,0,,4,,,76,127
44466,note_on,1,0,0,,5,,,77,127
44466,note_on,0,0,0,,2,,,74,127
44557,note_off,91,0,0,,2,,,74,127
44557,note_off,0,0,0,,5,,,77,127
44558,note_on,1,0,0,,0,,,72,127
44558,note_on,0,0,0,,4,,,76,127
44649,note_off,91,0,0,,4,,,76,127
44649,note_off,0,0,0,,0,,,72,127
44649,note_off,0,0,0,,7,,,55,127
44650,note_on,1,0,0,,7,,,43,127
44650,note_on,0,0,0,,2,,,74,127
44650,note_on,0,0,0,,12,,,71,127
44833,note_off,183,0,0,,12,,,71,127
44833,note_off,0,0,0,,2,,,74,127
44834,note_on,1,0,0,,0,,,72,127
44834,note_on,0,0,0,,10,,,69,127
45017,note_off,183,0,0,,10,,,69,127
45017,note_off,0,0,0,,0,,,72,127
45018,note_on,1,0,0,,0,,,72,127
45018,note_on,0,0,0,,10,,,69,127
45201,note_off,183,0,0,,10,,,69,127
45201,note_off,0,0,0,,0,,,72,127
45202,note_on,1,0,0,,12,,,71,127
45202,note_on,0,0,0,,2,,,74,127
45292,note_off,90,0,0,,7,,,43,127
45375,note_off,83,0,0,,2,,,74,127
45375,note_off,0,0,0,,12,,,71,127
45387,note_on,12,0,0,,4,,,64,127
45456,note_off,69,0,0,,4,,,64,127
45456,note_on,0,0,0,,2,,,62,127
45524,note_off,68,0,0,,2,,,62,127
45525,note_on,1,0,0,,4,,,64,127
45594,note_off,69,0,0,,4,,,64,127
45594,note_on,0,0,0,,2,,,62,127
45662,note_off,68,0,0,,2,,,62,127
45663,note_on,1,0,0,,1,,,61,127
45754,note_off,91,0,0,,1,,,61,127
45755,note_on,1,0,0,,1,,,61,127
45938,note_off,183,0,0,,1,,,61,127
45939,note_on,1,0,0,,2,,,62,127
46122,note_off,183,0,0,,2,,,62,127
46123,note_on,1,0,0,,5,,,53,127
46123,note_on,0,0,0,,5,,,77,127
46123,note_on,0,0,0,,10,,,81,127
46306,note_off,183,0,0,,5,,,53,127
46307,note_on,1,0,0,,7,,,55,127
46490,note_off,183,0,0,,7,,,55,127
46491,note_on,1,0,0,,10,,,57,127
46674,note_off,183,0,0,,10,,,81,127
46674,note_off,0,0,0,,5,,,77,127
46675,note_on,1,0,0,,4,,,76,127
46675,note_on,0,0,0,,7,,,79,127
46766,note_off,91,0,0,,7,,,79,127
46766,note_off,0,0,0,,4,,,76,127
46767,note_on,1,0,0,,2,,,74,127
46767,note_on,0,0,0,,5,,,77,127
46858,note_off,91,0,0,,5,,,77,127
46858,note_off,0,0,0,,2,,,74,127
46858,note_off,0,0,0,,10,,,57,127
46859,note_on,1,0,0,,10,,,45,127
46859,note_on,0,0,0,,0,,,72,127
46859,note_on,0,0,0,,4,,,76,127
47042,note_off,183,0,0,,4,,,76,127
47042,note_off,0,0,0,,0,,,72,127
47043,note_on,1,0,0,,12,,,71,127
47043,note_on,0,0,0,,2,,,74,127
47226,note_off,183,0,0,,2,,,74,127
47226,note_off,0,0,0,,12,,,71,127
47227,note_on,1,0,0,,2,,,74,127
47227,note_on,0,0,0,,12,,,71,127
47410,note_off,183,0,0,,12,,,71,127
47410,note_off,0,0,0,,2,,,74,127
47411,note_on,1,0,0,,0,,,72,127
47411,note_on,0,0,0,,4,,,76,127
47501,note_off,90,0,0,,10,,,45,127
47584,note_off,83,0,0,,4,,,76,127
47584,note_off,0,0,0,,0,,,72,127
47596,note_on,12,0,0,,12,,,71,127
47665,note_off,69,0,0,,12,,,71,127
47665,note_on,0,0,0,,10,,,69,127
47733,note_off,68,0,0,,10,,,69,127
47734,note_on,1,0,0,,12,,,71,127
47803,note_off,69,0,0,,12,,,71,127
47803,note_on,0,0,0,,10,,,69,127
47871,note_off,68,0,0,,10,,,69,127
47872,note_on,1,0,0,,8,,,68,127
47963,note_off,91,0,0,,8,,,68,127
47964,note_on,1,0,0,,8,,,68,127
48147,note_off,183,0,0,,8,,,68,127
48148,note_on,1,0,0,,10,,,69,127
48331,note_off,183,0,0,,10,,,69,127
48332,note_on,1,0,0,,0,,,60,127
48332,note_on,0,0,0,,0,,,84,127
48332,note_on,0,0,0,,10,,,81,127
48515,note_off,183,0,0,,0,,,60,127
48516,note_on,1,0,0,,2,,,62,127
48699,note_off,183,0,0,,2,,,62,127
48700,note_on,1,0,0,,4,,,64,127
48883,note_off,183,0,0,,10,,,81,127
48883,note_off,0,0,0,,0,,,84,127
48884,note_on,1,0,0,,8,,,80,127
48884,note_on,0,0,0,,12,,,83,127
48975,note_off,91,0,0,,12,,,83,127
48975,note_off,0,0,0,,8,,,80,127
48976,note_on,1,0,0,,6,,,78,127
48976,note_on,0,0,0,,10,,,81,127
49067,note_off,91,0,0,,10,,,81,127
49067,note_off,0,0,0,,6,,,78,127
49068,note_on,1,0,0,,4,,,52,127
49068,note_on,0,0,0,,4,,,76,127
49068,note_on,0,0,0,,8,,,80,127
49251,note_off,183,0,0,,4,,,76,127
49252,note_on,1,0,0,,5,,,77,127
49435,note_off,183,0,0,,5,,,77,127
49436,note_on,1,0,0,,4,,,76,127
49619,note_off,183,0,0,,4,,,76,127
49620,note_on,1,0,0,,2,,,74,127
49802,note_off,182,0,0,,4,,,64,127
49803,note_off,1,0,0,,2,,,74,127
49803,note_off,0,0,0,,8,,,80,127
49803,note_off,0,0,0,,4,,,52,127
49804,note_on,1,0,0,,5,,,53,127
49804,note_on,0,0,0,,10,,,81,127
49804,note_on,0,0,0,,0,,,72,127
49987,note_off,183,0,0,,0,,,72,127
49988,note_on,1,0,0,,12,,,71,127
50171,note_off,183,0,0,,12,,,71,127
50172,note_on,1,0,0,,10,,,57,127
50172,note_on,0,0,0,,10,,,69,127
50355,note_off,183,0,0,,10,,,69,127
50356,note_on,1,0,0,,12,,,71,127
50539,note_off,183,0,0,,12,,,71,127
50539,note_off,0,0,0,,5,,,53,127
50540,note_on,1,0,0,,2,,,62,127
50540,note_on,0,0,0,,0,,,72,127
50723,note_off,183,0,0,,0,,,72,127
50724,note_on,1,0,0,,2,,,74,127
50906,note_off,182,0,0,,10,,,81,127
50907,note_off,1,0,0,,2,,,74,127
50907,note_off,0,0,0,,2,,,62,127
50907,note_off,0,0,0,,10,,,57,127
50908,note_on,1,0,0,,4,,,52,127
50908,note_on,0,0,0,,4,,,64,127
50908,note_on,0,0,0,,4,,,76,127
50908,note_on,0,0,0,,8,,,68,127
51076,note_off,168,0,0,,8,,,68,127
51076,note_off,0,0,0,,4,,,76,127
51076,note_off,0,0,0,,4,,,64,127
51076,note_off,0,0,0,,4,,,52,127
51092,note_on,16,0,0,,5,,,53,127
51092,note_on,0,0,0,,5,,,65,127
51092,note_on,0,0,0,,2,,,74,127
51092,note_on,0,0,0,,10,,,69,127
51260,note_off,168,0,0,,10,,,69,127
51260,note_off,0,0,0,,2,,,74,127
51260,note_off,0,0,0,,5,,,65,127
51260,note_off,0,0,0,,5,,,53,127
51276,note_on,16,0,0,,4,,,52,127
51276,note_on,0,0,0,,4,,,64,127
51276,note_on,0,0,0,,8,,,68,127
51276,note_on,0,0,0,,4,,,76,127
51444,note_off,168,0,0,,4,,,76,127
51444,note_off,0,0,0,,8,,,68,127
51444,note_off,0,0,0,,4,,,64,127
51444,note_off,0,0,0,,4,,,52,127
51460,note_on,16,0,0,,2,,,62,127
51460,note_on,0,0,0,,2,,,50,127
51460,note_on,0,0,0,,5,,,77,127
51460,note_on,0,0,0,,10,,,69,127
51628,note_off,168,0,0,,10,,,69,127
51628,note_off,0,0,0,,5,,,77,127
51628,note_off,0,0,0,,2,,,50,127
51628,note_off,0,0,0,,2,,,62,127
51644,note_on,16,0,0,,4,,,52,127
51644,note_on,0,0,0,,4,,,64,127
51644,note_on,0,0,0,,4,,,76,127
51644,note_on,0,0,0,,8,,,68,127
51812,note_off,168,0,0,,8,,,68,127
51812,note_off,0,0,0,,4,,,76,127
51812,note_off,0,0,0,,4,,,64,127
51812,note_off,0,0,0,,4,,,52,127
51828,note_on,16,0,0,,5,,,53,127
51828,note_on,0,0,0,,5,,,65,127
51828,note_on,0,0,0,,2,,,74,127
51828,note_on,0,0,0,,10,,,69,127
51996,note_off,168,0,0,,10,,,69,127
51996,note_off,0,0,0,,2,,,74,127
51996,note_off,0,0,0,,5,,,65,127
51996,note_off,0,0,0,,5,,,53,127
52012,note_on,16,0,0,,4,,,64,127
52012,note_on,0,0,0,,4,,,52,127
52012,note_on,0,0,0,,8,,,68,127
52012,note_on,0,0,0,,4,,,76,127
52180,note_off,168,0,0,,4,,,76,127
52180,note_off,0,0,0,,8,,,68,127
52180,note_off,0,0,0,,4,,,52,127
52180,note_off,0,0,0,,4,,,64,127
52196,note_on,16,0,0,,2,,,62,127
52196,note_on,0,0,0,,2,,,50,127
52196,note_on,0,0,0,,5,,,77,127
52196,note_on,0,0,0,,10,,,69,127
52364,note_off,168,0,0,,10,,,69,127
52364,note_off,0,0,0,,5,,,77,127
52364,note_off,0,0,0,,2,,,50,127
52364,note_off,0,0,0,,2,,,62,127
52380,note_on,16,0,0,,4,,,52,127
52380,note_on,0,0,0,,4,,,64,127
52380,note_on,0,0,0,,4,,,76,127
52380,note_on,0,0,0,,8,,,68,127
52548,note_off,168,0,0,,8,,,68,127
52548,note_off,0,0,0,,4,,,76,127
52548,note_off,0,0,0,,4,,,64,127
52548,note_off,0,0,0,,4,,,52,127
52564,note_on,16,0,0,,5,,,53,127
52564,note_on,0,0,0,,5,,,65,127
52564,note_on,0,0,0,,10,,,69,127
52564,note_on,0,0,0,,2,,,74,127
52732,note_off,168,0,0,,2,,,74,127
52732,note_off,0,0,0,,10,,,69,127
52732,note_off,0,0,0,,5,,,65,127
52732,note_off,0,0,0,,5,,,53,127
52748,note_on,16,0,0,,4,,,52,127
52748,note_on,0,0,0,,4,,,64,127
52748,note_on,0,0,0,,8,,,68,127
52748,note_on,0,0,0,,4,,,76,127
52916,note_off,168,0,0,,4,,,76,127
52916,note_off,0,0,0,,8,,,68,127
52916,note_off,0,0,0,,4,,,64,127
52916,note_off,0,0,0,,4,,,52,127
52932,note_on,16,0,0,,2,,,62,127
52932,note_on,0,0,0,,2,,,50,127
52932,note_on,0,0,0,,5,,,77,127
52932,note_on,0,0,0,,10,,,69,127
53100,note_off,168,0,0,,10,,,69,127
53100,note_off,0,0,0,,5,,,77,127
53100,note_off,0,0,0,,2,,,50,127
53100,note_off,0,0,0,,2,,,62,127
53116,note_on,16,0,0,,4,,,52,127
53116,note_on,0,0,0,,4,,,64,127
53116,note_on,0,0,0,,4,,,76,127
53116,note_on,0,0,0,,8,,,68,127
53284,note_off,168,0,0,,4,,,76,127
53284,note_off,0,0,0,,4,,,64,127
53284,note_off,0,0,0,,4,,,52,127
53300,note_on,16,0,0,,2,,,50,127
53300,note_on,0,0,0,,2,,,62,127
53300,note_on,0,0,0,,5,,,77,127
53468,note_off,168,0,0,,5,,,77,127
53468,note_off,0,0,0,,2,,,62,127
53468,note_off,0,0,0,,2,,,50,127
53473,note_off,5,0,0,,8,,,68,127
53485,note_on,12,0,0,,1,,,49,127
53485,note_on,0,0,0,,1,,,61,127
53485,note_on,0,0,0,,4,,,76,127
53485,note_on,0,0,0,,10,,,69,127
53653,note_off,168,0,0,,4,,,76,127
53653,note_off,0,0,0,,1,,,61,127
53653,note_off,0,0,0,,1,,,49,127
53669,note_on,16,0,0,,12,,,47,127
53669,note_on,0,0,0,,12,,,59,127
53669,note_on,0,0,0,,2,,,74,127
53837,note_off,168,0,0,,2,,,74,127
53837,note_off,0,0,0,,12,,,59,127
53837,note_off,0,0,0,,12,,,47,127
53853,note_on,16,0,0,,10,,,45,127
53853,note_on,0,0,0,,10,,,57,127
53853,note_on,0,0,0,,1,,,73,127
54021,note_off,168,0,0,,10,,,57,127
54021,note_off,0,0,0,,10,,,45,127
54027,note_off,6,0,0,,10,,,69,127
54038,note_on,11,0,0,,7,,,43,127
54038,note_on,0,0,0,,7,,,55,127
54038,note_on,0,0,0,,11,,,70,127
54206,note_off,168,0,0,,11,,,70,127
54206,note_off,0,0,0,,7,,,55,127
54206,note_off,0,0,0,,7,,,43,127
54214,note_off,8,0,0,,1,,,73,127
54223,note_on,9,0,0,,5,,,41,127
54223,note_on,0,0,0,,5,,,53,127
54223,note_on,0,0,0,,2,,,74,127
54223,note_on,0,0,0,,10,,,69,127
54391,note_off,168,0,0,,10,,,69,127
54391,note_off,0,0,0,,5,,,53,127
54391,note_off,0,0,0,,5,,,41,127
54407,note_on,16,0,0,,4,,,40,127
54407,note_on,0,0,0,,4,,,52,127
54407,note_on,0,0,0,,7,,,67,127
54575,note_off,168,0,0,,7,,,67,127
54575,note_off,0,0,0,,4,,,52,127
54575,note_off,0,0,0,,4,,,40,127
54591,note_on,16,0,0,,2,,,38,127
54591,note_on,0,0,0,,2,,,50,127
54591,note_on,0,0,0,,5,,,65,127
54759,note_off,168,0,0,,5,,,65,127
54759,note_off,0,0,0,,2,,,50,127
54759,note_off,0,0,0,,2,,,38,127
54775,note_on,16,0,0,,0,,,36,127
54775,note_on,0,0,0,,0,,,48,127
54775,note_on,0,0,0,,4,,,64,127
54943,note_off,168,0,0,,4,,,64,127
54943,note_off,0,0,0,,0,,,48,127
54943,note_off,0,0,0,,0,,,36,127
54959,note_on,16,0,0,,11,,,34,127
54959,note_on,0,0,0,,11,,,46,127
54959,note_on,0,0,0,,2,,,62,127
55124,note_off,165,0,0,,2,,,74,127
55143,note_on,19,0,0,,2,,,74,127
55311,note_off,168,0,0,,2,,,74,127
55311,note_off,0,0,0,,11,,,46,127
55311,note_off,0,0,0,,11,,,34,127
55314,note_off,3,0,0,,2,,,62,127
55327,note_on,13,0,0,,10,,,33,127
55327,note_on,0,0,0,,10,,,45,127
55327,note_on,0,0,0,,4,,,64,127
55327,note_on,0,0,0,,1,,,73,127
55495,note_off,168,0,0,,1,,,73,127
55495,note_off,0,0,0,,4,,,64,127
55511,note_on,16,0,0,,5,,,65,127
55511,note_on,0,0,0,,2,,,74,127
55679,note_off,168,0,0,,2,,,74,127
55679,note_off,0,0,0,,5,,,65,127
55695,note_on,16,0,0,,4,,,76,127
55695,note_on,0,0,0,,7,,,67,127
55863,note_off,168,0,0,,7,,,67,127
55863,note_off,0,0,0,,4,,,76,127
55879,note_on,16,0,0,,5,,,77,127
55879,note_on,0,0,0,,10,,,69,127
56047,note_off,168,0,0,,10,,,69,127
56047,note_off,0,0,0,,5,,,77,127
56063,note_on,16,0,0,,7,,,79,127
56063,note_on,0,0,0,,12,,,71,127
56231,note_off,168,0,0,,12,,,71,127
56231,note_off,0,0,0,,7,,,79,127
56247,note_on,16,0,0,,1,,,73,127
56247,note_on,0,0,0,,4,,,76,127
56415,note_off,168,0,0,,4,,,76,127
56415,note_off,0,0,0,,1,,,73,127
56429,note_off,14,0,0,,10,,,45,127
56429,note_off,0,0,0,,10,,,33,127
56431,note_on,2,0,0,,10,,,33,127
56431,note_on,0,0,0,,10,,,45,127
56431,note_on,0,0,0,,5,,,77,127
56431,note_on,0,0,0,,2,,,74,127
56599,note_off,168,0,0,,2,,,74,127
56599,note_off,0,0,0,,5,,,77,127
56615,note_on,16,0,0,,0,,,72,127
56615,note_on,0,0,0,,4,,,76,127
56783,note_off,168,0,0,,4,,,76,127
56783,note_off,0,0,0,,0,,,72,127
56799,note_on,16,0,0,,2,,,74,127
56799,note_on,0,0,0,,11,,,70,127
56967,note_off,168,0,0,,11,,,70,127
56967,note_off,0,0,0,,2,,,74,127
56983,note_on,16,0,0,,5,,,77,127
56983,note_on,0,0,0,,10,,,69,127
57151,note_off,168,0,0,,10,,,69,127
57151,note_off,0,0,0,,5,,,77,127
57167,note_on,16,0,0,,4,,,76,127
57167,note_on,0,0,0,,7,,,67,127
57335,note_off,168,0,0,,7,,,67,127
57335,note_off,0,0,0,,4,,,76,127
57351,note_on,16,0,0,,2,,,74,127
57351,note_on,0,0,0,,11,,,70,127
57519,note_off,168,0,0,,11,,,70,127
57519,note_off,0,0,0,,2,,,74,127
57533,note_off,14,0,0,,10,,,45,127
57533,note_off,0,0,0,,10,,,33,127
57535,note_on,2,0,0,,10,,,45,127
57535,note_on,0,0,0,,10,,,33,127
57535,note_on,0,0,0,,4,,,64,127
57535,note_on,0,0,0,,1,,,73,127
57703,note_off,168,0,0,,1,,,73,127
57703,note_off,0,0,0,,4,,,64,127
57719,note_on,16,0,0,,5,,,65,127
57719,note_on,0,0,0,,2,,,74,127
57887,note_off,168,0,0,,2,,,74,127
57887,note_off,0,0,0,,5,,,65,127
57903,note_on,16,0,0,,4,,,76,127
57903,note_on,0,0,0,,7,,,67,127
58071,note_off,168,0,0,,7,,,67,127
58071,note_off,0,0,0,,4,,,76,127
58087,note_on,16,0,0,,5,,,77,127
58087,note_on,0,0,0,,10,,,69,127
58255,note_off,168,0,0,,10,,,69,127
58255,note_off,0,0,0,,5,,,77,127
58271,note_on,16,0,0,,12,,,71,127
58271,note_on,0,0,0,,7,,,79,127
58439,note_off,168,0,0,,7,,,79,127
58439,note_off,0,0,0,,12,,,71,127
58455,note_on,16,0,0,,1,,,73,127
58455,note_on,0,0,0,,4,,,76,127
58623,note_off,168,0,0,,4,,,76,127
58623,note_off,0,0,0,,1,,,73,127
58637,note_off,14,0,0,,10,,,33,127
58637,note_off,0,0,0,,10,,,45,127
58639,note_on,2,0,0,,10,,,45,127
58639,note_on,0,0,0,,10,,,33,127
58639,note_on,0,0,0,,2,,,74,127
58639,note_on,0,0,0,,5,,,77,127
58807,note_off,168,0,0,,5,,,77,127
58807,note_off,0,0,0,,2,,,74,127
58823,note_on,16,0,0,,0,,,72,127
58823,note_on,0,0,0,,4,,,76,127
58991,note_off,168,0,0,,4,,,76,127
58991,note_off,0,0,0,,0,,,72,127
59007,note_on,16,0,0,,2,,,74,127
59007,note_on,0,0,0,,11,,,70,127
59175,note_off,168,0,0,,11,,,70,127
59175,note_off,0,0,0,,2,,,74,127
59191,note_on,16,0,0,,5,,,77,127
59191,note_on,0,0,0,,10,,,69,127
59359,note_off,168,0,0,,10,,,69,127
59359,note_off,0,0,0,,5,,,77,127
59375,note_on,16,0,0,,4,,,76,127
59375,note_on,0,0,0,,7,,,67,127
59543,note_off,168,0,0,,7,,,67,127
59543,note_off,0,0,0,,4,,,76,127
59559,note_on,16,0,0,,11,,,70,127
59559,note_on,0,0,0,,2,,,74,127
59727,note_off,168,0,0,,2,,,74,127
59727,note_off,0,0,0,,11,,,70,127
59727,note_off,0,0,0,,10,,,33,127
59727,note_off,0,0,0,,10,,,45,127
59743,note_on,16,0,0,,10,,,57,127
59743,note_on,0,0,0,,10,,,69,127
59743,note_on,0,0,0,,1,,,73,127
59743,note_on,0,0,0,,10,,,81,127
59911,note_off,168,0,0,,10,,,81,127
59911,note_off,0,0,0,,1,,,73,127
59911,note_off,0,0,0,,10,,,69,127
59911,note_off,0,0,0,,10,,,57,127
59927,note_on,16,0,0,,11,,,58,127
59927,note_on,0,0,0,,11,,,70,127
59927,note_on,0,0,0,,2,,,74,127
59927,note_on,0,0,0,,7,,,79,127
60095,note_off,168,0,0,,7,,,79,127
60095,note_off,0,0,0,,2,,,74,127
60095,note_off,0,0,0,,11,,,70,127
60095,note_off,0,0,0,,11,,,58,127
60111,note_on,16,0,0,,10,,,57,127
60111,note_on,0,0,0,,10,,,69,127
60111,note_on,0,0,0,,10,,,81,127
60111,note_on,0,0,0,,1,,,73,127
60279,note_off,168,0,0,,1,,,73,127
60279,note_off,0,0,0,,10,,,81,127
60279,note_off,0,0,0,,10,,,69,127
60279,note_off,0,0,0,,10,,,57,127
60295,note_on,16,0,0,,7,,,55,127
60295,note_on,0,0,0,,7,,,67,127
60295,note_on,0,0,0,,2,,,74,127
60295,note_on,0,0,0,,11,,,82,127
60463,note_off,168,0,0,,11,,,82,127
60463,note_off,0,0,0,,2,,,74,127
60463,note_off,0,0,0,,7,,,67,127
60463,note_off,0,0,0,,7,,,55,127
60479,note_on,16,0,0,,10,,,57,127
60479,note_on,0,0,0,,10,,,69,127
60479,note_on,0,0,0,,10,,,81,127
60479,note_on,0,0,0,,1,,,73,127
60647,note_off,168,0,0,,1,,,73,127
60647,note_off,0,0,0,,10,,,81,127
60647,note_off,0,0,0,,10,,,69,127
60647,note_off,0,0,0,,10,,,57,127
60663,note_on,16,0,0,,11,,,58,127
60663,note_on,0,0,0,,11,,,70,127
60663,note_on,0,0,0,,2,,,74,127
60663,note_on,0,0,0,,7,,,79,127
60831,note_off,168,0,0,,7,,,79,127
60831,note_off,0,0,0,,2,,,74,127
60831,note_off,0,0,0,,11,,,70,127
60831,note_off,0,0,0,,11,,,58,127
60847,note_on,16,0,0,,10,,,57,127
60847,note_on,0,0,0,,10,,,69,127
60847,note_on,0,0,0,,1,,,73,127
60847,note_on,0,0,0,,10,,,81,127
61015,note_off,168,0,0,,10,,,81,127
61015,note_off,0,0,0,,1,,,73,127
61015,note_off,0,0,0,,10,,,69,127
61015,note_off,0,0,0,,10,,,57,127
61031,note_on,16,0,0,,7,,,67,127
61031,note_on,0,0,0,,7,,,55,127
61031,note_on,0,0,0,,2,,,74,127
61031,note_on,0,0,0,,11,,,82,127
61199,note_off,168,0,0,,11,,,82,127
61199,note_off,0,0,0,,2,,,74,127
61199,note_off,0,0,0,,7,,,55,127
61199,note_off,0,0,0,,7,,,67,127
61215,note_on,16,0,0,,10,,,57,127
61215,note_on,0,0,0,,10,,,69,127
61215,note_on,0,0,0,,1,,,73,127
61215,note_on,0,0,0,,10,,,81,127
61383,note_off,168,0,0,,10,,,81,127
61383,note_off,0,0,0,,1,,,73,127
61383,note_off,0,0,0,,10,,,69,127
61383,note_off,0,0,0,,10,,,57,127
61399,note_on,16,0,0,,11,,,70,127
61399,note_on,0,0,0,,11,,,58,127
61399,note_on,0,0,0,,2,,,74,127
61399,note_on,0,0,0,,7,,,79,127
61567,note_off,168,0,0,,7,,,79,127
61567,note_off,0,0,0,,2,,,74,127
61567,note_off,0,0,0,,11,,,58,127
61567,note_off,0,0,0,,11,,,70,127
61583,note_on,16,0,0,,10,,,69,127
61583,note_on,0,0,0,,10,,,57,127
61583,note_on,0,0,0,,1,,,73,127
61583,note_on,0,0,0,,10,,,81,127
61751,note_off,168,0,0,,10,,,81,127
61751,note_off,0,0,0,,1,,,73,127
61751,note_off,0,0,0,,10,,,57,127
61751,note_off,0,0,0,,10,,,69,127
61767,note_on,16,0,0,,7,,,55,127
61767,note_on,0,0,0,,7,,,67,127
61767,note_on,0,0,0,,11,,,82,127
61767,note_on,0,0,0,,2,,,74,127
61935,note_off,168,0,0,,2,,,74,127
61935,note_off,0,0,0,,11,,,82,127
61935,note_off,0,0,0,,7,,,67,127
61935,note_off,0,0,0,,7,,,55,127
61951,note_on,16,0,0,,10,,,57,127
61951,note_on,0,0,0,,10,,,69,127
61951,note_on,0,0,0,,10,,,81,127
61951,note_on,0,0,0,,1,,,73,127
62119,note_off,168,0,0,,10,,,81,127
62119,note_off,0,0,0,,10,,,69,127
62119,note_off,0,0,0,,10,,,57,127
62135,note_on,16,0,0,,7,,,67,127
62135,note_on,0,0,0,,7,,,55,127
62135,note_on,0,0,0,,11,,,82,127
62303,note_off,168,0,0,,11,,,82,127
62303,note_off,0,0,0,,7,,,55,127
62303,note_off,0,0,0,,7,,,67,127
62306,note_off,3,0,0,,1,,,73,127
62319,note_on,13,0,0,,5,,,65,127
62319,note_on,0,0,0,,5,,,53,127
62319,note_on,0,0,0,,10,,,81,127
62319,note_on,0,0,0,,2,,,74,127
62487,note_off,168,0,0,,10,,,81,127
62487,note_off,0,0,0,,5,,,53,127
62487,note_off,0,0,0,,5,,,65,127
62503,note_on,16,0,0,,4,,,52,127
62503,note_on,0,0,0,,4,,,64,127
62503,note_on,0,0,0,,7,,,79,127
62671,note_off,168,0,0,,7,,,79,127
62671,note_off,0,0,0,,4,,,64,127
62671,note_off,0,0,0,,4,,,52,127
62687,note_on,16,0,0,,2,,,50,127
62687,note_on,0,0,0,,2,,,62,127
62687,note_on,0,0,0,,5,,,77,127
62855,note_off,168,0,0,,5,,,77,127
62855,note_off,0,0,0,,2,,,62,127
62855,note_off,0,0,0,,2,,,50,127
62871,note_on,16,0,0,,0,,,48,127
62871,note_on,0,0,0,,0,,,60,127
62871,note_on,0,0,0,,4,,,76,127
63039,note_off,168,0,0,,4,,,76,127
63039,note_off,0,0,0,,0,,,60,127
63039,note_off,0,0,0,,0,,,48,127
63054,note_off,15,0,0,,2,,,74,127
63055,note_on,1,0,0,,11,,,46,127
63055,note_on,0,0,0,,11,,,58,127
63055,note_on,0,0,0,,2,,,74,127
63223,note_off,168,0,0,,11,,,58,127
63223,note_off,0,0,0,,11,,,46,127
63239,note_on,16,0,0,,10,,,45,127
63239,note_on,0,0,0,,10,,,57,127
63239,note_on,0,0,0,,0,,,72,127
63407,note_off,168,0,0,,0,,,72,127
63407,note_off,0,0,0,,10,,,57,127
63407,note_off,0,0,0,,10,,,45,127
63423,note_on,16,0,0,,7,,,43,127
63423,note_on,0,0,0,,7,,,55,127
63423,note_on,0,0,0,,11,,,70,127
63591,note_off,168,0,0,,11,,,70,127
63591,note_off,0,0,0,,7,,,55,127
63591,note_off,0,0,0,,7,,,43,127
63607,note_on,16,0,0,,5,,,41,127
63607,note_on,0,0,0,,5,,,53,127
63607,note_on,0,0,0,,10,,,69,127
63775,note_off,168,0,0,,10,,,69,127
63775,note_off,0,0,0,,5,,,53,127
63775,note_off,0,0,0,,5,,,41,127
63791,note_on,16,0,0,,4,,,40,127
63791,note_on,0,0,0,,4,,,52,127
63791,note_on,0,0,0,,7,,,67,127
63959,note_off,168,0,0,,7,,,67,127
63959,note_off,0,0,0,,4,,,52,127
63959,note_off,0,0,0,,4,,,40,127
63966,note_off,7,0,0,,2,,,74,127
63976,note_on,10,0,0,,2,,,38,127
63976,note_on,0,0,0,,2,,,50,127
63976,note_on,0,0,0,,5,,,65,127
63976,note_on,0,0,0,,12,,,71,127
64144,note_off,168,0,0,,12,,,71,127
64144,note_off,0,0,0,,5,,,65,127
64144,note_off,0,0,0,,2,,,50,127
64144,note_off,0,0,0,,2,,,38,127
64160,note_on,16,0,0,,0,,,36,127
64160,note_on,0,0,0,,0,,,48,127
64160,note_on,0,0,0,,4,,,64,127
64160,note_on,0,0,0,,0,,,72,127
64328,note_off,168,0,0,,0,,,72,127
64328,note_off,0,0,0,,4,,,64,127
64344,note_on,16,0,0,,5,,,65,127
64344,note_on,0,0,0,,2,,,74,127
64512,note_off,168,0,0,,2,,,74,127
64512,note_off,0,0,0,,5,,,65,127
64528,note_on,16,0,0,,7,,,67,127
64528,note_on,0,0,0,,4,,,76,127
64696,note_off,168,0,0,,4,,,76,127
64696,note_off,0,0,0,,7,,,67,127
64712,note_on,16,0,0,,5,,,77,127
64712,note_on,0,0,0,,10,,,69,127
64880,note_off,168,0,0,,10,,,69,127
64880,note_off,0,0,0,,5,,,77,127
64896,note_on,16,0,0,,11,,,70,127
64896,note_on,0,0,0,,7,,,79,127
65064,note_off,168,0,0,,7,,,79,127
65064,note_off,0,0,0,,11,,,70,127
65080,note_on,16,0,0,,7,,,67,127
65080,note_on,0,0,0,,4,,,76,127
65248,note_off,168,0,0,,4,,,76,127
65248,note_off,0,0,0,,7,,,67,127
65262,note_off,14,0,0,,0,,,48,127
65262,note_off,0,0,0,,0,,,36,127
65264,note_on,2,0,0,,0,,,36,127
65264,note_on,0,0,0,,0,,,48,127
65264,note_on,0,0,0,,5,,,77,127
65264,note_on,0,0,0,,10,,,69,127
65432,note_off,168,0,0,,10,,,69,127
65432,note_off,0,0,0,,5,,,77,127
65448,note_on,16,0,0,,11,,,70,127
65448,note_on,0,0,0,,7,,,79,127
65616,note_off,168,0,0,,7,,,79,127
65616,note_off,0,0,0,,11,,,70,127
65632,note_on,16,0,0,,10,,,81,127
65632,note_on,0,0,0,,0,,,72,127
65800,note_off,168,0,0,,0,,,72,127
65800,note_off,0,0,0,,10,,,81,127
65816,note_on,16,0,0,,2,,,74,127
65816,note_on,0,0,0,,11,,,82,127
65984,note_off,168,0,0,,11,,,82,127
65984,note_off,0,0,0,,2,,,74,127
66000,note_on,16,0,0,,0,,,84,127
66000,note_on,0,0,0,,4,,,76,127
66168,note_off,168,0,0,,4,,,76,127
66168,note_off,0,0,0,,0,,,84,127
66184,note_on,16,0,0,,5,,,77,127
66184,note_on,0,0,0,,10,,,81,127
66352,note_off,168,0,0,,10,,,81,127
66352,note_off,0,0,0,,5,,,77,127
66366,note_off,14,0,0,,0,,,48,127
66366,note_off,0,0,0,,0,,,36,127
66368,note_on,2,0,0,,0,,,36,127
66368,note_on,0,0,0,,0,,,48,127
66368,note_on,0,0,0,,4,,,76,127
66368,note_on,0,0,0,,7,,,79,127
66536,note_off,168,0,0,,7,,,79,127
66536,note_off,0,0,0,,4,,,76,127
66552,note_on,16,0,0,,2,,,74,127
66552,note_on,0,0,0,,5,,,77,127
66720,note_off,168,0,0,,5,,,77,127
66720,note_off,0,0,0,,2,,,74,127
66736,note_on,16,0,0,,4,,,76,127
66736,note_on,0,0,0,,0,,,72,127
66904,note_off,168,0,0,,0,,,72,127
66904,note_off,0,0,0,,4,,,76,127
66920,note_on,16,0,0,,11,,,70,127
66920,note_on,0,0,0,,2,,,74,127
67088,note_off,168,0,0,,2,,,74,127
67088,note_off,0,0,0,,11,,,70,127
67104,note_on,16,0,0,,10,,,69,127
67104,note_on,0,0,0,,0,,,72,127
67272,note_off,168,0,0,,0,,,72,127
67272,note_off,0,0,0,,10,,,69,127
67288,note_on,16,0,0,,11,,,70,127
67288,note_on,0,0,0,,7,,,67,127
67456,note_off,168,0,0,,7,,,67,127
67456,note_off,0,0,0,,11,,,70,127
67470,note_off,14,0,0,,0,,,48,127
67470,note_off,0,0,0,,0,,,36,127
67472,note_on,2,0,0,,0,,,48,127
67472,note_on,0,0,0,,0,,,36,127
67472,note_on,0,0,0,,10,,,69,127
67472,note_on,0,0,0,,5,,,65,127
67640,note_off,168,0,0,,5,,,65,127
67640,note_off,0,0,0,,10,,,69,127
67656,note_on,16,0,0,,4,,,64,127
67656,note_on,0,0,0,,7,,,67,127
67824,note_off,168,0,0,,7,,,67,127
67824,note_off,0,0,0,,4,,,64,127
67840,note_on,16,0,0,,2,,,62,127
67840,note_on,0,0,0,,5,,,65,127
68008,note_off,168,0,0,,5,,,65,127
68008,note_off,0,0,0,,2,,,62,127
68024,note_on,16,0,0,,4,,,64,127
68024,note_on,0,0,0,,7,,,67,127
68192,note_off,168,0,0,,7,,,67,127
68192,note_off,0,0,0,,4,,,64,127
68208,note_on,16,0,0,,5,,,65,127
68208,note_on,0,0,0,,10,,,69,127
68376,note_off,168,0,0,,10,,,69,127
68376,note_off,0,0,0,,5,,,65,127
68392,note_on,16,0,0,,12,,,71,127
68392,note_on,0,0,0,,7,,,67,127
68560,note_off,168,0,0,,7,,,67,127
68560,note_off,0,0,0,,12,,,71,127
68574,note_off,14,0,0,,0,,,36,127
68574,note_off,0,0,0,,0,,,48,127
68576,note_on,2,0,0,,0,,,36,127
68576,note_on,0,0,0,,0,,,48,127
68576,note_on,0,0,0,,0,,,72,127
68576,note_on,0,0,0,,4,,,64,127
68667,note_off,91,0,0,,0,,,72,127
68668,note_on,1,0,0,,7,,,67,127
68941,note_off,273,0,0,,4,,,64,127
68944,note_off,3,0,0,,7,,,67,127
68944,note_off,0,0,0,,0,,,48,127
68944,note_off,0,0,0,,0,,,36,127
68945,note_on,1,0,0,,0,,,36,127
68945,note_on,0,0,0,,0,,,48,127
68945,note_on,0,0,0,,0,,,72,127
68945,note_on,0,0,0,,4,,,64,127
69036,note_off,91,0,0,,0,,,72,127
69037,note_on,1,0,0,,7,,,67,127
69310,note_off,273,0,0,,4,,,64,127
69313,note_off,3,0,0,,7,,,67,127
69313,note_off,0,0,0,,0,,,48,127
69313,note_off,0,0,0,,0,,,36,127
69314,note_on,1,0,0,,0,,,36,127
69314,note_on,0,0,0,,0,,,48,127
69314,note_on,0,0,0,,0,,,72,127
69314,note_on,0,0,0,,4,,,64,127
69405,note_off,91,0,0,,0,,,72,127
69406,note_on,1,0,0,,7,,,67,127
69679,note_off,273,0,0,,4,,,64,127
69682,note_off,3,0,0,,7,,,67,127
69682,note_off,0,0,0,,0,,,48,127
69682,note_off,0,0,0,,0,,,36,127
69683,note_on,1,0,0,,0,,,36,127
69683,note_on,0,0,0,,0,,,48,127
69683,note_on,0,0,0,,2,,,74,127
69728,note_off,45,0,0,,2,,,74,127
69729,note_on,1,0,0,,0,,,72,127
69774,note_off,45,0,0,,0,,,72,127
69775,note_on,1,0,0,,2,,,74,127
69820,note_off,45,0,0,,2,,,74,127
69821,note_on,1,0,0,,0,,,72,127
69866,note_off,45,0,0,,0,,,72,127
69867,note_on,1,0,0,,2,,,74,127
69912,note_off,45,0,0,,2,,,74,127
69913,note_on,1,0,0,,0,,,72,127
69958,note_off,45,0,0,,0,,,72,127
69959,note_on,1,0,0,,2,,,74,127
70004,note_off,45,0,0,,2,,,74,127
70005,note_on,1,0,0,,0,,,72,127
70050,note_off,45,0,0,,0,,,72,127
70051,note_on,1,0,0,,2,,,74,127
70096,note_off,45,0,0,,2,,,74,127
70097,note_on,1,0,0,,0,,,72,127
70142,note_off,45,0,0,,0,,,72,127
70143,note_on,1,0,0,,12,,,71,127
70281,note_off,138,0,0,,12,,,71,127
70281,note_on,0,0,0,,0,,,72,127
70649,note_off,368,0,0,,0,,,72,127
70738,note_off,89,0,0,,0,,,36,127
70787,note_off,49,0,0,,0,,,48,127
71157,note_on,370,0,0,,10,,,69,127
71157,note_on,0,0,0,,10,,,81,127
71157,note_on,0,0,0,,0,,,84,127
71340,note_off,183,0,0,,10,,,81,127
71340,note_off,0,0,0,,10,,,69,127
71341,note_on,1,0,0,,0,,,60,127
71341,note_on,0,0,0,,0,,,72,127
71521,note_off,180,0,0,,0,,,84,127
71524,note_off,3,0,0,,0,,,72,127
71524,note_off,0,0,0,,0,,,60,127
71525,note_on,1,0,0,,7,,,67,127
71525,note_on,0,0,0,,11,,,82,127
71525,note_on,0,0,0,,2,,,74,127
71525,note_on,0,0,0,,7,,,79,127
71708,note_off,183,0,0,,2,,,74,127
71708,note_off,0,0,0,,7,,,67,127
71709,note_on,1,0,0,,0,,,60,127
71709,note_on,0,0,0,,4,,,76,127
71889,note_off,180,0,0,,7,,,79,127
71889,note_off,0,0,0,,11,,,82,127
71892,note_off,3,0,0,,4,,,76,127
71892,note_off,0,0,0,,0,,,60,127
71893,note_on,1,0,0,,5,,,65,127
71893,note_on,0,0,0,,10,,,81,127
71893,note_on,0,0,0,,5,,,77,127
71931,note_off,38,0,0,,5,,,77,127
71938,note_off,7,0,0,,5,,,65,127
71939,note_on,1,0,0,,4,,,64,127
71939,note_on,0,0,0,,4,,,76,127
71984,note_off,45,0,0,,4,,,76,127
71984,note_off,0,0,0,,4,,,64,127
71985,note_on,1,0,0,,5,,,65,127
71985,note_on,0,0,0,,5,,,77,127
72258,note_off,273,0,0,,10,,,81,127
72261,note_off,3,0,0,,5,,,77,127
72261,note_off,0,0,0,,5,,,65,127
72262,note_on,1,0,0,,10,,,69,127
72262,note_on,0,0,0,,0,,,84,127
72262,note_on,0,0,0,,10,,,81,127
72445,note_off,183,0,0,,10,,,81,127
72445,note_off,0,0,0,,10,,,69,127
72446,note_on,1,0,0,,0,,,60,127
72446,note_on,0,0,0,,0,,,72,127
72626,note_off,180,0,0,,0,,,84,127
72629,note_off,3,0,0,,0,,,72,127
72629,note_off,0,0,0,,0,,,60,127
72630,note_on,1,0,0,,7,,,67,127
72630,note_on,0,0,0,,11,,,82,127
72630,note_on,0,0,0,,2,,,74,127
72630,note_on,0,0,0,,7,,,79,127
72813,note_off,183,0,0,,2,,,74,127
72813,note_off,0,0,0,,7,,,67,127
72814,note_on,1,0,0,,0,,,60,127
72814,note_on,0,0,0,,4,,,76,127
72994,note_off,180,0,0,,7,,,79,127
72994,note_off,0,0,0,,11,,,82,127
72997,note_off,3,0,0,,4,,,76,127
72997,note_off,0,0,0,,0,,,60,127
72998,note_on,1,0,0,,5,,,65,127
72998,note_on,0,0,0,,5,,,77,127
72998,note_on,0,0,0,,10,,,81,127
73039,note_off,41,0,0,,5,,,77,127
73043,note_off,4,0,0,,5,,,65,127
73044,note_on,1,0,0,,4,,,64,127
73044,note_on,0,0,0,,4,,,76,127
73089,note_off,45,0,0,,4,,,76,127
73089,note_off,0,0,0,,4,,,64,127
73090,note_on,1,0,0,,5,,,65,127
73090,note_on,0,0,0,,5,,,77,127
73363,note_off,273,0,0,,10,,,81,127
73366,note_off,3,0,0,,5,,,77,127
73366,note_off,0,0,0,,5,,,65,127
73367,note_on,1,0,0,,10,,,69,127
73367,note_on,0,0,0,,10,,,81,127
73367,note_on,0,0,0,,0,,,84,127
73550,note_off,183,0,0,,10,,,81,127
73550,note_off,0,0,0,,10,,,69,127
73551,note_on,1,0,0,,0,,,60,127
73551,note_on,0,0,0,,0,,,72,127
73731,note_off,180,0,0,,0,,,84,127
73734,note_off,3,0,0,,0,,,72,127
73734,note_off,0,0,0,,0,,,60,127
73735,note_on,1,0,0,,7,,,67,127
73735,note_on,0,0,0,,2,,,74,127
73735,note_on,0,0,0,,11,,,82,127
73735,note_on,0,0,0,,7,,,79,127
73918,note_off,183,0,0,,2,,,74,127
73918,note_off,0,0,0,,7,,,67,127
73919,note_on,1,0,0,,0,,,60,127
73919,note_on,0,0,0,,4,,,76,127
74099,note_off,180,0,0,,7,,,79,127
74099,note_off,0,0,0,,11,,,82,127
74102,note_off,3,0,0,,4,,,76,127
74102,note_off,0,0,0,,0,,,60,127
74103,note_on,1,0,0,,5,,,65,127
74103,note_on,0,0,0,,10,,,81,127
74103,note_on,0,0,0,,5,,,77,127
74141,note_off,38,0,0,,5,,,77,127
74148,note_off,7,0,0,,5,,,65,127
74149,note_on,1,0,0,,4,,,64,127
74149,note_on,0,0,0,,4,,,76,127
74194,note_off,45,0,0,,4,,,76,127
74194,note_off,0,0,0,,4,,,64,127
74195,note_on,1,0,0,,5,,,65,127
74195,note_on,0,0,0,,5,,,77,127
74464,note_off,269,0,0,,5,,,77,127
74468,note_off,4,0,0,,10,,,81,127
74471,note_off,3,0,0,,5,,,65,127
74472,note_on,1,0,0,,11,,,70,127
74656,note_on,184,0,0,,2,,,86,127
74839,note_off,183,0,0,,2,,,86,127
74840,note_on,1,0,0,,2,,,74,127
75023,note_off,183,0,0,,2,,,74,127
75023,note_off,0,0,0,,11,,,70,127
75024,note_on,1,0,0,,10,,,69,127
75024,note_on,0,0,0,,4,,,76,127
75207,note_off,183,0,0,,4,,,76,127
75207,note_off,0,0,0,,10,,,69,127
75208,note_on,1,0,0,,7,,,67,127
75208,note_on,0,0,0,,5,,,77,127
75253,note_off,45,0,0,,5,,,77,127
75254,note_on,1,0,0,,4,,,76,127
75299,note_off,45,0,0,,4,,,76,127
75300,note_on,1,0,0,,5,,,77,127
75391,note_off,91,0,0,,5,,,77,127
75392,note_on,1,0,0,,7,,,79,127
75574,note_off,182,0,0,,7,,,79,127
75575,note_off,1,0,0,,7,,,67,127
75576,note_on,1,0,0,,10,,,69,127
75760,note_on,184,0,0,,0,,,84,127
75943,note_off,183,0,0,,0,,,84,127
75944,note_on,1,0,0,,4,,,76,127
75989,note_off,45,0,0,,4,,,76,127
75990,note_on,1,0,0,,5,,,77,127
76035,note_off,45,0,0,,5,,,77,127
76036,note_on,1,0,0,,7,,,79,127
76081,note_off,45,0,0,,7,,,79,127
76082,note_on,1,0,0,,10,,,81,127
76127,note_off,45,0,0,,10,,,81,127
76127,note_off,0,0,0,,10,,,69,127
76128,note_on,1,0,0,,7,,,67,127
76128,note_on,0,0,0,,11,,,82,127
76173,note_off,45,0,0,,11,,,82,127
76174,note_on,1,0,0,,0,,,84,127
76219,note_off,45,0,0,,0,,,84,127
76220,note_on,1,0,0,,2,,,86,127
76265,note_off,45,0,0,,2,,,86,127
76266,note_on,1,0,0,,4,,,88,127
76311,note_off,45,0,0,,4,,,88,127
76311,note_off,0,0,0,,7,,,67,127
76312,note_on,1,0,0,,5,,,65,127
76312,note_on,0,0,0,,5,,,89,127
76680,note_off,368,0,0,,5,,,89,127
76680,note_off,0,0,0,,5,,,65,127
76681,note_on,1,0,0,,11,,,70,127
76681,note_on,0,0,0,,5,,,77,127
76681,note_on,0,0,0,,4,,,88,127
76772,note_off,91,0,0,,4,,,88,127
76773,note_on,1,0,0,,2,,,86,127
76864,note_off,91,0,0,,2,,,86,127
76865,note_on,1,0,0,,0,,,84,127
76956,note_off,91,0,0,,0,,,84,127
76957,note_on,1,0,0,,11,,,82,127
77048,note_off,91,0,0,,11,,,82,127
77048,note_off,0,0,0,,11,,,70,127
77049,note_on,1,0,0,,0,,,72,127
77049,note_on,0,0,0,,10,,,81,127
77417,note_off,368,0,0,,10,,,81,127
77417,note_off,0,0,0,,0,,,72,127
77417,note_off,0,0,0,,5,,,77,127
77418,note_on,1,0,0,,0,,,60,127
77418,note_on,0,0,0,,7,,,79,127
77418,note_on,0,0,0,,4,,,76,127
77786,note_off,368,0,0,,4,,,76,127
77786,note_off,0,0,0,,7,,,79,127
77786,note_off,0,0,0,,0,,,60,127
77787,note_on,1,0,0,,5,,,65,127
77787,note_on,0,0,0,,5,,,77,127
78155,note_off,368,0,0,,5,,,65,127
78156,note_on,1,0,0,,5,,,53,127
78524,note_off,368,0,0,,5,,,53,127
78525,note_on,1,0,0,,5,,,41,127
78709,note_off,184,0,0,,5,,,77,127
78892,note_off,183,0,0,,5,,,41,127
78893,note_on,1,0,0,,10,,,69,127
78893,note_on,0,0,0,,10,,,81,127
78893,note_on,0,0,0,,0,,,84,127
79076,note_off,183,0,0,,10,,,81,127
79076,note_off,0,0,0,,10,,,69,127
79077,note_on,1,0,0,,0,,,60,127
79077,note_on,0,0,0,,0,,,72,127
79257,note_off,180,0,0,,0,,,84,127
79260,note_off,3,0,0,,0,,,72,127
79260,note_off,0,0,0,,0,,,60,127
79261,note_on,1,0,0,,7,,,67,127
79261,note_on,0,0,0,,11,,,82,127
79261,note_on,0,0,0,,2,,,74,127
79261,note_on,0,0,0,,7,,,79,127
79444,note_off,183,0,0,,7,,,79,127
79444,note_off,0,0,0,,2,,,74,127
79444,note_off,0,0,0,,7,,,67,127
79445,note_on,1,0,0,,0,,,60,127
79445,note_on,0,0,0,,4,,,76,127
79625,note_off,180,0,0,,11,,,82,127
79628,note_off,3,0,0,,4,,,76,127
79628,note_off,0,0,0,,0,,,60,127
79629,note_on,1,0,0,,5,,,65,127
79629,note_on,0,0,0,,10,,,81,127
79629,note_on,0,0,0,,5,,,77,127
79674,note_off,45,0,0,,5,,,77,127
79674,note_off,0,0,0,,5,,,65,127
79675,note_on,1,0,0,,4,,,64,127
79675,note_on,0,0,0,,4,,,76,127
79720,note_off,45,0,0,,4,,,76,127
79720,note_off,0,0,0,,4,,,64,127
79721,note_on,1,0,0,,5,,,65,127
79721,note_on,0,0,0,,5,,,77,127
79994,note_off,273,0,0,,10,,,81,127
79997,note_off,3,0,0,,5,,,77,127
79997,note_off,0,0,0,,5,,,65,127
79998,note_on,1,0,0,,10,,,69,127
79998,note_on,0,0,0,,0,,,84,127
79998,note_on,0,0,0,,10,,,81,127
80181,note_off,183,0,0,,10,,,81,127
80181,note_off,0,0,0,,10,,,69,127
80182,note_on,1,0,0,,0,,,60,127
80182,note_on,0,0,0,,0,,,72,127
80362,note_off,180,0,0,,0,,,84,127
80365,note_off,3,0,0,,0,,,72,127
80365,note_off,0,0,0,,0,,,60,127
80366,note_on,1,0,0,,7,,,67,127
80366,note_on,0,0,0,,11,,,82,127
80366,note_on,0,0,0,,2,,,74,127
80366,note_on,0,0,0,,7,,,79,127
80549,note_off,183,0,0,,7,,,79,127
80549,note_off,0,0,0,,2,,,74,127
80549,note_off,0,0,0,,7,,,67,127
80550,note_on,1,0,0,,0,,,60,127
80550,note_on,0,0,0,,4,,,76,127
80730,note_off,180,0,0,,11,,,82,127
80733,note_off,3,0,0,,4,,,76,127
80733,note_off,0,0,0,,0,,,60,127
80734,note_on,1,0,0,,5,,,65,127
80734,note_on,0,0,0,,10,,,81,127
80734,note_on,0,0,0,,5,,,77,127
80779,note_off,45,0,0,,5,,,77,127
80779,note_off,0,0,0,,5,,,65,127
80780,note_on,1,0,0,,4,,,64,127
80780,note_on,0,0,0,,4,,,76,127
80825,note_off,45,0,0,,4,,,76,127
80825,note_off,0,0,0,,4,,,64,127
80826,note_on,1,0,0,,5,,,65,127
80826,note_on,0,0,0,,5,,,77,127
81099,note_off,273,0,0,,10,,,81,127
81102,note_off,3,0,0,,5,,,77,127
81102,note_off,0,0,0,,5,,,65,127
81103,note_on,1,0,0,,10,,,69,127
81103,note_on,0,0,0,,10,,,81,127
81103,note_on,0,0,0,,0,,,84,127
81286,note_off,183,0,0,,10,,,81,127
81286,note_off,0,0,0,,10,,,69,127
81287,note_on,1,0,0,,0,,,60,127
81287,note_on,0,0,0,,0,,,72,127
81467,note_off,180,0,0,,0,,,84,127
81470,note_off,3,0,0,,0,,,72,127
81470,note_off,0,0,0,,0,,,60,127
81471,note_on,1,0,0,,7,,,67,127
81471,note_on,0,0,0,,11,,,82,127
81471,note_on,0,0,0,,2,,,74,127
81471,note_on,0,0,0,,7,,,79,127
81654,note_off,183,0,0,,7,,,79,127
81654,note_off,0,0,0,,2,,,74,127
81654,note_off,0,0,0,,7,,,67,127
81655,note_on,1,0,0,,0,,,60,127
81655,note_on,0,0,0,,4,,,76,127
81835,note_off,180,0,0,,11,,,82,127
81838,note_off,3,0,0,,4,,,76,127
81838,note_off,0,0,0,,0,,,60,127
81839,note_on,1,0,0,,5,,,65,127
81839,note_on,0,0,0,,5,,,77,127
81839,note_on,0,0,0,,10,,,81,127
81884,note_off,45,0,0,,5,,,77,127
81884,note_off,0,0,0,,5,,,65,127
81885,note_on,1,0,0,,4,,,64,127
81885,note_on,0,0,0,,4,,,76,127
81930,note_off,45,0,0,,4,,,76,127
81930,note_off,0,0,0,,4,,,64,127
81931,note_on,1,0,0,,5,,,65,127
81931,note_on,0,0,0,,5,,,77,127
82200,note_off,269,0,0,,5,,,77,127
82204,note_off,4,0,0,,10,,,81,127
82207,note_off,3,0,0,,5,,,65,127
82208,note_on,1,0,0,,11,,,70,127
82392,note_on,184,0,0,,2,,,86,127
82575,note_off,183,0,0,,2,,,86,127
82576,note_on,1,0,0,,2,,,74,127
82759,note_off,183,0,0,,2,,,74,127
82759,note_off,0,0,0,,11,,,70,127
82760,note_on,1,0,0,,10,,,69,127
82760,note_on,0,0,0,,4,,,76,127
82943,note_off,183,0,0,,4,,,76,127
82943,note_off,0,0,0,,10,,,69,127
82944,note_on,1,0,0,,7,,,67,127
82944,note_on,0,0,0,,5,,,77,127
82989,note_off,45,0,0,,5,,,77,127
82990,note_on,1,0,0,,4,,,76,127
83035,note_off,45,0,0,,4,,,76,127
83036,note_on,1,0,0,,5,,,77,127
83127,note_off,91,0,0,,5,,,77,127
83128,note_on,1,0,0,,7,,,79,127
83310,note_off,182,0,0,,7,,,79,127
83311,note_off,1,0,0,,7,,,67,127
83312,note_on,1,0,0,,10,,,69,127
83496,note_on,184,0,0,,0,,,84,127
83679,note_off,183,0,0,,0,,,84,127
83680,note_on,1,0,0,,4,,,76,127
83725,note_off,45,0,0,,4,,,76,127
83726,note_on,1,0,0,,5,,,77,127
83771,note_off,45,0,0,,5,,,77,127
83772,note_on,1,0,0,,7,,,79,127
83817,note_off,45,0,0,,7,,,79,127
83818,note_on,1,0,0,,10,,,81,127
83863,note_off,45,0,0,,10,,,81,127
83863,note_off,0,0,0,,10,,,69,127
83864,note_on,1,0,0,,7,,,67,127
83864,note_on,0,0,0,,11,,,82,127
83909,note_off,45,0,0,,11,,,82,127
83910,note_on,1,0,0,,0,,,84,127
83955,note_off,45,0,0,,0,,,84,127
83956,note_on,1,0,0,,2,,,86,127
84001,note_off,45,0,0,,2,,,86,127
84002,note_on,1,0,0,,4,,,88,127
84047,note_off,45,0,0,,4,,,88,127
84047,note_off,0,0,0,,7,,,67,127
84048,note_on,1,0,0,,5,,,65,127
84048,note_on,0,0,0,,5,,,89,127
84416,note_off,368,0,0,,5,,,89,127
84416,note_off,0,0,0,,5,,,65,127
84417,note_on,1,0,0,,11,,,70,127
84417,note_on,0,0,0,,4,,,88,127
84417,note_on,0,0,0,,5,,,77,127
84508,note_off,91,0,0,,4,,,88,127
84509,note_on,1,0,0,,2,,,86,127
84600,note_off,91,0,0,,2,,,86,127
84601,note_on,1,0,0,,0,,,84,127
84692,note_off,91,0,0,,0,,,84,127
84693,note_on,1,0,0,,11,,,82,127
84784,note_off,91,0,0,,11,,,82,127
84784,note_off,0,0,0,,11,,,70,127
84785,note_on,1,0,0,,0,,,72,127
84785,note_on,0,0,0,,10,,,81,127
85153,note_off,368,0,0,,10,,,81,127
85153,note_off,0,0,0,,0,,,72,127
85153,note_off,0,0,0,,5,,,77,127
85154,note_on,1,0,0,,0,,,60,127
85154,note_on,0,0,0,,10,,,81,127
85154,note_on,0,0,0,,4,,,76,127
85245,note_off,91,0,0,,10,,,81,127
85246,note_on,1,0,0,,7,,,79,127
85336,note_off,90,0,0,,4,,,76,127
85337,note_off,1,0,0,,7,,,79,127
85338,note_on,1,0,0,,10,,,81,127
85429,note_off,91,0,0,,10,,,81,127
85430,note_on,1,0,0,,7,,,79,127
85521,note_off,91,0,0,,7,,,79,127
85521,note_off,0,0,0,,0,,,60,127
85522,note_on,1,0,0,,5,,,41,127
85522,note_on,0,0,0,,5,,,65,127
85705,note_off,183,0,0,,5,,,65,127
85706,note_on,1,0,0,,4,,,64,127
85888,note_off,182,0,0,,4,,,64,127
85890,note_on,2,0,0,,5,,,65,127
85976,note_off,86,0,0,,5,,,65,127
85982,note_on,6,0,0,,7,,,67,127
86027,note_off,45,0,0,,7,,,67,127
86028,note_on,1,0,0,,10,,,69,127
86073,note_off,45,0,0,,10,,,69,127
86073,note_off,0,0,0,,5,,,41,127
86074,note_on,1,0,0,,7,,,43,127
86074,note_on,0,0,0,,11,,,70,127
86119,note_off,45,0,0,,11,,,70,127
86120,note_on,1,0,0,,0,,,72,127
86165,note_off,45,0,0,,0,,,72,127
86166,note_on,1,0,0,,2,,,74,127
86211,note_off,45,0,0,,2,,,74,127
86212,note_on,1,0,0,,4,,,76,127
86257,note_off,45,0,0,,4,,,76,127
86257,note_off,0,0,0,,7,,,43,127
86258,note_on,1,0,0,,10,,,45,127
86258,note_on,0,0,0,,5,,,77,127
86623,note_off,365,0,0,,5,,,77,127
86626,note_off,3,0,0,,10,,,45,127
86627,note_on,1,0,0,,11,,,46,127
86627,note_on,0,0,0,,4,,,76,127
86627,note_on,0,0,0,,5,,,65,127
86718,note_off,91,0,0,,4,,,76,127
86719,note_on,1,0,0,,2,,,74,127
86810,note_off,91,0,0,,2,,,74,127
86811,note_on,1,0,0,,0,,,72,127
86902,note_off,91,0,0,,0,,,72,127
86903,note_on,1,0,0,,11,,,70,127
86994,note_off,91,0,0,,11,,,70,127
86994,note_off,0,0,0,,11,,,46,127
86995,note_on,1,0,0,,0,,,48,127
86995,note_on,0,0,0,,10,,,69,127
87178,note_off,183,0,0,,5,,,65,127
87362,note_off,184,0,0,,10,,,69,127
87363,note_on,1,0,0,,0,,,36,127
87363,note_on,0,0,0,,4,,,64,127
87363,note_on,0,0,0,,10,,,69,127
87454,note_off,91,0,0,,10,,,69,127
87455,note_on,1,0,0,,7,,,67,127
87546,note_off,91,0,0,,7,,,67,127
87547,note_on,1,0,0,,10,,,69,127
87638,note_off,91,0,0,,10,,,69,127
87639,note_off,1,0,0,,4,,,64,127
87639,note_on,0,0,0,,7,,,67,127
87730,note_off,91,0,0,,7,,,67,127
87730,note_off,0,0,0,,0,,,36,127
87730,note_off,0,0,0,,0,,,48,127
87731,note_on,1,0,0,,5,,,41,127
87731,note_on,0,0,0,,5,,,65,127
89943,note_off,2212,0,0,,5,,,65,127
89943,note_off,0,0,0,,5,,,41,127
92160,end_of_track,2217,1,0,,,,,,
