tick,type,time,meta,track,program,channel,pitch,tempo,note,velocity
0,copyright,0,1,0,,,,,,
0,program_change,0,0,0,6,0,,,,
0,pitchwheel,0,0,0,,0,0,,,
0,program_change,0,0,0,6,1,,,,
0,pitchwheel,0,0,0,,1,-590,,,
0,program_change,0,0,0,6,2,,,,
0,pitchwheel,0,0,0,,2,-272,,,
0,program_change,0,0,0,6,3,,,,
0,pitchwheel,0,0,0,,3,-353,,,
0,program_change,0,0,0,6,4,,,,
0,pitchwheel,0,0,0,,4,-560,,,
0,program_change,0,0,0,6,5,,,,
0,pitchwheel,0,0,0,,5,-80,,,
0,program_change,0,0,0,6,6,,,,
0,pitchwheel,0,0,0,,6,-625,,,
0,program_change,0,0,0,6,7,,,,
0,pitchwheel,0,0,0,,7,-130,,,
0,program_change,0,0,0,6,8,,,,
0,pitchwheel,0,0,0,,8,-512,,,
0,program_change,0,0,0,6,10,,,,
0,pitchwheel,0,0,0,,10,-464,,,
0,program_change,0,0,0,6,11,,,,
0,pitchwheel,0,0,0,,11,-208,,,
0,program_change,0,0,0,6,12,,,,
0,pitchwheel,0,0,0,,12,-553,,,
0,set_tempo,0,1,0,,,,500000,,
109,note_on,109,0,0,,0,,,60,127
252,note_off,143,0,0,,0,,,60,127
254,note_on,2,0,0,,5,,,65,127
397,note_off,143,0,0,,5,,,65,127
399,note_on,2,0,0,,5,,,65,127
542,note_off,143,0,0,,5,,,65,127
544,note_on,2,0,0,,4,,,64,127
687,note_off,143,0,0,,4,,,64,127
689,note_on,2,0,0,,2,,,62,127
832,note_off,143,0,0,,2,,,62,127
834,note_on,2,0,0,,2,,,62,127
977,note_off,143,0,0,,2,,,62,127
979,note_on,2,0,0,,0,,,60,127
1122,note_off,143,0,0,,0,,,60,127
1124,note_on,2,0,0,,11,,,58,127
1267,note_off,143,0,0,,11,,,58,127
1269,note_on,2,0,0,,10,,,57,127
1412,note_off,143,0,0,,10,,,57,127
1414,note_on,2,0,0,,11,,,58,127
1557,note_off,143,0,0,,11,,,58,127
1559,note_on,2,0,0,,0,,,60,127
1702,note_off,143,0,0,,0,,,60,127
1704,note_on,2,0,0,,2,,,62,127
1847,note_off,143,0,0,,2,,,62,127
1849,note_on,2,0,0,,0,,,72,127
1849,note_on,0,0,0,,4,,,64,127
1988,note_off,139,0,0,,0,,,72,127
1991,note_off,3,0,0,,4,,,64,127
1993,note_on,2,0,0,,5,,,77,127
1993,note_on,0,0,0,,5,,,65,127
2132,note_off,139,0,0,,5,,,77,127
2138,note_on,6,0,0,,5,,,77,127
2277,note_off,139,0,0,,5,,,77,127
2283,note_on,6,0,0,,4,,,76,127
2422,note_off,139,0,0,,4,,,76,127
2425,note_off,3,0,0,,5,,,65,127
2427,note_on,2,0,0,,2,,,74,127
2427,note_on,0,0,0,,11,,,58,127
2566,note_off,139,0,0,,2,,,74,127
2572,note_on,6,0,0,,2,,,74,127
2711,note_off,139,0,0,,2,,,74,127
2717,note_on,6,0,0,,0,,,72,127
2856,note_off,139,0,0,,0,,,72,127
2859,note_off,3,0,0,,11,,,58,127
2861,note_on,2,0,0,,0,,,72,127
2861,note_on,0,0,0,,11,,,70,127
2861,note_on,0,0,0,,2,,,62,127
3000,note_off,139,0,0,,11,,,70,127
3000,note_off,0,0,0,,0,,,72,127
3006,note_on,6,0,0,,10,,,69,127
3145,note_off,139,0,0,,10,,,69,127
3151,note_on,6,0,0,,11,,,70,127
3290,note_off,139,0,0,,11,,,70,127
3293,note_off,3,0,0,,2,,,62,127
3295,note_on,2,0,0,,0,,,72,127
3295,note_on,0,0,0,,0,,,60,127
3583,note_off,288,0,0,,0,,,60,127
3585,note_on,2,0,0,,0,,,60,127
3725,note_off,140,0,0,,0,,,72,127
3727,note_off,2,0,0,,0,,,60,127
3729,note_on,2,0,0,,11,,,70,127
3872,note_off,143,0,0,,11,,,70,127
3874,note_on,2,0,0,,11,,,70,127
4017,note_off,143,0,0,,11,,,70,127
4019,note_on,2,0,0,,0,,,72,127
4019,note_on,0,0,0,,10,,,69,127
4158,note_off,139,0,0,,0,,,72,127
4161,note_off,3,0,0,,10,,,69,127
4163,note_on,2,0,0,,11,,,82,127
4163,note_on,0,0,0,,7,,,67,127
4302,note_off,139,0,0,,11,,,82,127
4305,note_off,3,0,0,,7,,,67,127
4307,note_on,2,0,0,,11,,,82,127
4307,note_on,0,0,0,,7,,,67,127
4446,note_off,139,0,0,,11,,,82,127
4449,note_off,3,0,0,,7,,,67,127
4451,note_on,2,0,0,,10,,,81,127
4451,note_on,0,0,0,,5,,,65,127
4590,note_off,139,0,0,,10,,,81,127
4593,note_off,3,0,0,,5,,,65,127
4595,note_on,2,0,0,,7,,,79,127
4595,note_on,0,0,0,,11,,,70,127
4734,note_off,139,0,0,,7,,,79,127
4737,note_off,3,0,0,,11,,,70,127
4739,note_on,2,0,0,,7,,,79,127
4739,note_on,0,0,0,,11,,,70,127
4878,note_off,139,0,0,,7,,,79,127
4881,note_off,3,0,0,,11,,,70,127
4883,note_on,2,0,0,,5,,,77,127
4883,note_on,0,0,0,,10,,,69,127
5022,note_off,139,0,0,,5,,,77,127
5025,note_off,3,0,0,,10,,,69,127
5027,note_on,2,0,0,,4,,,76,127
5027,note_on,0,0,0,,7,,,67,127
5166,note_off,139,0,0,,4,,,76,127
5169,note_off,3,0,0,,7,,,67,127
5171,note_on,2,0,0,,4,,,76,127
5171,note_on,0,0,0,,7,,,67,127
5310,note_off,139,0,0,,4,,,76,127
5313,note_off,3,0,0,,7,,,67,127
5315,note_on,2,0,0,,2,,,74,127
5315,note_on,0,0,0,,5,,,65,127
5454,note_off,139,0,0,,2,,,74,127
5457,note_off,3,0,0,,5,,,65,127
5459,note_on,2,0,0,,0,,,72,127
5459,note_on,0,0,0,,4,,,64,127
5598,note_off,139,0,0,,0,,,72,127
5601,note_off,3,0,0,,4,,,64,127
5603,note_on,2,0,0,,0,,,72,127
5603,note_on,0,0,0,,0,,,60,127
5742,note_off,139,0,0,,0,,,72,127
5745,note_off,3,0,0,,0,,,60,127
5747,note_on,2,0,0,,11,,,70,127
5747,note_on,0,0,0,,7,,,67,127
5747,note_on,0,0,0,,4,,,64,127
5886,note_off,139,0,0,,7,,,67,127
5886,note_off,0,0,0,,11,,,70,127
5889,note_off,3,0,0,,4,,,64,127
5891,note_on,2,0,0,,10,,,69,127
5891,note_on,0,0,0,,5,,,65,127
6030,note_off,139,0,0,,10,,,69,127
6036,note_on,6,0,0,,11,,,70,127
6036,note_on,0,0,0,,7,,,67,127
6175,note_off,139,0,0,,7,,,67,127
6175,note_off,0,0,0,,11,,,70,127
6178,note_off,3,0,0,,5,,,65,127
6180,note_on,2,0,0,,0,,,72,127
6180,note_on,0,0,0,,10,,,69,127
6180,note_on,0,0,0,,10,,,57,127
6319,note_off,139,0,0,,10,,,69,127
6319,note_off,0,0,0,,0,,,72,127
6322,note_off,3,0,0,,10,,,57,127
6324,note_on,2,0,0,,11,,,70,127
6324,note_on,0,0,0,,7,,,67,127
6324,note_on,0,0,0,,11,,,58,127
6463,note_off,139,0,0,,7,,,67,127
6463,note_off,0,0,0,,11,,,70,127
6469,note_on,6,0,0,,5,,,65,127
6469,note_on,0,0,0,,10,,,69,127
6608,note_off,139,0,0,,10,,,69,127
6608,note_off,0,0,0,,5,,,65,127
6611,note_off,3,0,0,,11,,,58,127
6613,note_on,2,0,0,,7,,,67,127
6613,note_on,0,0,0,,4,,,64,127
6613,note_on,0,0,0,,0,,,60,127
6752,note_off,139,0,0,,4,,,64,127
6752,note_off,0,0,0,,7,,,67,127
6755,note_off,3,0,0,,0,,,60,127
6757,note_on,2,0,0,,5,,,65,127
6757,note_on,0,0,0,,5,,,53,127
7045,note_off,288,0,0,,5,,,53,127
7047,note_on,2,0,0,,0,,,48,127
7187,note_off,140,0,0,,5,,,65,127
7189,note_off,2,0,0,,0,,,48,127
7191,note_on,2,0,0,,5,,,53,127
7334,note_off,143,0,0,,5,,,53,127
7336,note_on,2,0,0,,5,,,53,127
7479,note_off,143,0,0,,5,,,53,127
7481,note_on,2,0,0,,0,,,60,127
7481,note_on,0,0,0,,4,,,52,127
7620,note_off,139,0,0,,0,,,60,127
7623,note_off,3,0,0,,4,,,52,127
7625,note_on,2,0,0,,5,,,65,127
7625,note_on,0,0,0,,10,,,57,127
7764,note_off,139,0,0,,5,,,65,127
7770,note_on,6,0,0,,5,,,65,127
7909,note_off,139,0,0,,5,,,65,127
7912,note_off,3,0,0,,10,,,57,127
7914,note_on,2,0,0,,4,,,64,127
7914,note_on,0,0,0,,7,,,55,127
8053,note_off,139,0,0,,4,,,64,127
8056,note_off,3,0,0,,7,,,55,127
8058,note_on,2,0,0,,10,,,69,127
8058,note_on,0,0,0,,5,,,53,127
8197,note_off,139,0,0,,10,,,69,127
8203,note_on,6,0,0,,10,,,69,127
8342,note_off,139,0,0,,10,,,69,127
8345,note_off,3,0,0,,5,,,53,127
8347,note_on,2,0,0,,0,,,72,127
8347,note_on,0,0,0,,7,,,67,127
8347,note_on,0,0,0,,0,,,48,127
8486,note_off,139,0,0,,7,,,67,127
8486,note_off,0,0,0,,0,,,72,127
8489,note_off,3,0,0,,0,,,48,127
8491,note_on,2,0,0,,5,,,65,127
8491,note_on,0,0,0,,5,,,77,127
8491,note_on,0,0,0,,10,,,57,127
8630,note_off,139,0,0,,5,,,77,127
8636,note_on,6,0,0,,5,,,77,127
8695,note_off,59,0,0,,5,,,65,127
8775,note_off,80,0,0,,5,,,77,127
8778,note_off,3,0,0,,10,,,57,127
8780,note_on,2,0,0,,4,,,76,127
8780,note_on,0,0,0,,7,,,55,127
8919,note_off,139,0,0,,4,,,76,127
8922,note_off,3,0,0,,7,,,55,127
8924,note_on,2,0,0,,10,,,81,127
8924,note_on,0,0,0,,5,,,53,127
9063,note_off,139,0,0,,10,,,81,127
9069,note_on,6,0,0,,10,,,81,127
9208,note_off,139,0,0,,10,,,81,127
9211,note_off,3,0,0,,5,,,53,127
9213,note_on,2,0,0,,7,,,79,127
9213,note_on,0,0,0,,0,,,48,127
9352,note_off,139,0,0,,7,,,79,127
9355,note_off,3,0,0,,0,,,48,127
9357,note_on,2,0,0,,5,,,77,127
9357,note_on,0,0,0,,5,,,53,127
9357,note_on,0,0,0,,5,,,41,127
9496,note_off,139,0,0,,5,,,77,127
9502,note_on,6,0,0,,10,,,81,127
9502,note_on,0,0,0,,5,,,77,127
9641,note_off,139,0,0,,5,,,77,127
9641,note_off,0,0,0,,10,,,81,127
9647,note_on,6,0,0,,7,,,79,127
9647,note_on,0,0,0,,4,,,76,127
9786,note_off,139,0,0,,4,,,76,127
9786,note_off,0,0,0,,7,,,79,127
9789,note_off,3,0,0,,5,,,41,127
9789,note_off,0,0,0,,5,,,53,127
9791,note_on,2,0,0,,5,,,77,127
9791,note_on,0,0,0,,2,,,74,127
9791,note_on,0,0,0,,7,,,55,127
9791,note_on,0,0,0,,7,,,43,127
9930,note_off,139,0,0,,2,,,74,127
9930,note_off,0,0,0,,5,,,77,127
9936,note_on,6,0,0,,4,,,76,127
9936,note_on,0,0,0,,0,,,72,127
10075,note_off,139,0,0,,0,,,72,127
10075,note_off,0,0,0,,4,,,76,127
10081,note_on,6,0,0,,12,,,71,127
10081,note_on,0,0,0,,2,,,74,127
10220,note_off,139,0,0,,2,,,74,127
10220,note_off,0,0,0,,12,,,71,127
10223,note_off,3,0,0,,7,,,43,127
10223,note_off,0,0,0,,7,,,55,127
10225,note_on,2,0,0,,4,,,76,127
10225,note_on,0,0,0,,0,,,72,127
10225,note_on,0,0,0,,0,,,48,127
10513,note_off,288,0,0,,0,,,48,127
10515,note_on,2,0,0,,7,,,43,127
10655,note_off,140,0,0,,0,,,72,127
10655,note_off,0,0,0,,4,,,76,127
10657,note_off,2,0,0,,7,,,43,127
10659,note_on,2,0,0,,0,,,48,127
10802,note_off,143,0,0,,0,,,48,127
10804,note_on,2,0,0,,0,,,48,127
10947,note_off,143,0,0,,0,,,48,127
10949,note_on,2,0,0,,7,,,55,127
10949,note_on,0,0,0,,12,,,47,127
11088,note_off,139,0,0,,7,,,55,127
11091,note_off,3,0,0,,12,,,47,127
11093,note_on,2,0,0,,0,,,60,127
11093,note_on,0,0,0,,4,,,52,127
11232,note_off,139,0,0,,0,,,60,127
11238,note_on,6,0,0,,0,,,60,127
11377,note_off,139,0,0,,0,,,60,127
11380,note_off,3,0,0,,4,,,52,127
11382,note_on,2,0,0,,12,,,59,127
11382,note_on,0,0,0,,2,,,50,127
11521,note_off,139,0,0,,12,,,59,127
11524,note_off,3,0,0,,2,,,50,127
11526,note_on,2,0,0,,4,,,64,127
11526,note_on,0,0,0,,0,,,48,127
11665,note_off,139,0,0,,4,,,64,127
11671,note_on,6,0,0,,4,,,64,127
11810,note_off,139,0,0,,4,,,64,127
11813,note_off,3,0,0,,0,,,48,127
11815,note_on,2,0,0,,7,,,67,127
11815,note_on,0,0,0,,2,,,62,127
11815,note_on,0,0,0,,7,,,43,127
11954,note_off,139,0,0,,2,,,62,127
11954,note_off,0,0,0,,7,,,67,127
11957,note_off,3,0,0,,7,,,43,127
11959,note_on,2,0,0,,0,,,72,127
11959,note_on,0,0,0,,0,,,60,127
11959,note_on,0,0,0,,4,,,52,127
12098,note_off,139,0,0,,0,,,72,127
12104,note_on,6,0,0,,0,,,72,127
12163,note_off,59,0,0,,0,,,60,127
12243,note_off,80,0,0,,0,,,72,127
12246,note_off,3,0,0,,4,,,52,127
12248,note_on,2,0,0,,12,,,71,127
12248,note_on,0,0,0,,2,,,50,127
12387,note_off,139,0,0,,12,,,71,127
12390,note_off,3,0,0,,2,,,50,127
12392,note_on,2,0,0,,4,,,76,127
12392,note_on,0,0,0,,0,,,48,127
12531,note_off,139,0,0,,4,,,76,127
12537,note_on,6,0,0,,4,,,76,127
12676,note_off,139,0,0,,4,,,76,127
12679,note_off,3,0,0,,0,,,48,127
12681,note_on,2,0,0,,7,,,79,127
12681,note_on,0,0,0,,2,,,74,127
12681,note_on,0,0,0,,7,,,43,127
12820,note_off,139,0,0,,2,,,74,127
12820,note_off,0,0,0,,7,,,79,127
12823,note_off,3,0,0,,7,,,43,127
12825,note_on,2,0,0,,0,,,84,127
12825,note_on,0,0,0,,0,,,72,127
12825,note_on,0,0,0,,4,,,52,127
12964,note_off,139,0,0,,0,,,84,127
12970,note_on,6,0,0,,0,,,84,127
13029,note_off,59,0,0,,0,,,72,127
13109,note_off,80,0,0,,0,,,84,127
13112,note_off,3,0,0,,4,,,52,127
13114,note_on,2,0,0,,12,,,83,127
13114,note_on,0,0,0,,0,,,48,127
13253,note_off,139,0,0,,12,,,83,127
13256,note_off,3,0,0,,0,,,48,127
13258,note_on,2,0,0,,10,,,81,127
13258,note_on,0,0,0,,5,,,53,127
13397,note_off,139,0,0,,10,,,81,127
13403,note_on,6,0,0,,10,,,81,127
13542,note_off,139,0,0,,10,,,81,127
13545,note_off,3,0,0,,5,,,53,127
13547,note_on,2,0,0,,7,,,79,127
13547,note_on,0,0,0,,7,,,55,127
13686,note_off,139,0,0,,7,,,79,127
13689,note_off,3,0,0,,7,,,55,127
13691,note_on,2,0,0,,5,,,77,127
13691,note_on,0,0,0,,10,,,57,127
13830,note_off,139,0,0,,5,,,77,127
13836,note_on,6,0,0,,4,,,76,127
13975,note_off,139,0,0,,4,,,76,127
13978,note_off,3,0,0,,10,,,57,127
13980,note_on,2,0,0,,2,,,74,127
13980,note_on,0,0,0,,12,,,59,127
14119,note_off,139,0,0,,2,,,74,127
14122,note_off,3,0,0,,12,,,59,127
14124,note_on,2,0,0,,0,,,72,127
14124,note_on,0,0,0,,2,,,74,127
14124,note_on,0,0,0,,10,,,57,127
14124,note_on,0,0,0,,0,,,60,127
14263,note_off,139,0,0,,2,,,74,127
14263,note_off,0,0,0,,0,,,72,127
14269,note_on,6,0,0,,12,,,71,127
14408,note_off,139,0,0,,12,,,71,127
14411,note_off,3,0,0,,0,,,60,127
14411,note_off,0,0,0,,10,,,57,127
14413,note_on,2,0,0,,0,,,72,127
14413,note_on,0,0,0,,6,,,78,127
14413,note_on,0,0,0,,10,,,45,127
14552,note_off,139,0,0,,6,,,78,127
14552,note_off,0,0,0,,0,,,72,127
14555,note_off,3,0,0,,10,,,45,127
14557,note_on,2,0,0,,12,,,71,127
14557,note_on,0,0,0,,7,,,79,127
14557,note_on,0,0,0,,7,,,43,127
14829,note_off,272,0,0,,7,,,43,127
14829,note_off,0,0,0,,7,,,79,127
14829,note_off,0,0,0,,12,,,71,127
14847,note_on,18,0,0,,7,,,79,127
14847,note_on,0,0,0,,7,,,55,127
14847,note_on,0,0,0,,7,,,67,127
14990,note_off,143,0,0,,7,,,67,127
14992,note_on,2,0,0,,12,,,71,127
14992,note_on,0,0,0,,5,,,65,127
15131,note_off,139,0,0,,12,,,71,127
15137,note_on,6,0,0,,12,,,71,127
15276,note_off,139,0,0,,12,,,71,127
15279,note_off,3,0,0,,5,,,65,127
15281,note_on,2,0,0,,0,,,72,127
15281,note_on,0,0,0,,4,,,64,127
15420,note_off,139,0,0,,0,,,72,127
15423,note_off,3,0,0,,4,,,64,127
15425,note_on,2,0,0,,2,,,74,127
15425,note_on,0,0,0,,2,,,62,127
15564,note_off,139,0,0,,2,,,74,127
15570,note_on,6,0,0,,2,,,74,127
15709,note_off,139,0,0,,2,,,74,127
15712,note_off,3,0,0,,2,,,62,127
15714,note_on,2,0,0,,4,,,76,127
15714,note_on,0,0,0,,0,,,60,127
15853,note_off,139,0,0,,4,,,76,127
15856,note_off,3,0,0,,0,,,60,127
15858,note_on,2,0,0,,5,,,77,127
15858,note_on,0,0,0,,12,,,59,127
15997,note_off,139,0,0,,5,,,77,127
16003,note_on,6,0,0,,5,,,77,127
16142,note_off,139,0,0,,5,,,77,127
16145,note_off,3,0,0,,12,,,59,127
16147,note_on,2,0,0,,4,,,76,127
16147,note_on,0,0,0,,0,,,60,127
16201,note_off,54,0,0,,7,,,55,127
16201,note_off,0,0,0,,7,,,79,127
16283,note_off,82,0,0,,0,,,60,127
16286,note_off,3,0,0,,4,,,76,127
16310,note_on,24,0,0,,7,,,79,127
16310,note_on,0,0,0,,7,,,31,127
16310,note_on,0,0,0,,12,,,35,127
16310,note_on,0,0,0,,2,,,38,127
16310,note_on,0,0,0,,7,,,43,127
16310,note_on,0,0,0,,7,,,67,127
16310,note_on,0,0,0,,2,,,74,127
16310,note_on,0,0,0,,12,,,71,127
16559,note_off,249,0,0,,12,,,71,127
16559,note_off,0,0,0,,2,,,74,127
16559,note_off,0,0,0,,7,,,67,127
16559,note_off,0,0,0,,7,,,43,127
16559,note_off,0,0,0,,2,,,38,127
16559,note_off,0,0,0,,12,,,35,127
16559,note_off,0,0,0,,7,,,31,127
16559,note_off,0,0,0,,7,,,79,127
16600,note_on,41,0,0,,7,,,55,127
16600,note_on,0,0,0,,7,,,79,127
16745,note_on,145,0,0,,5,,,65,127
16745,note_on,0,0,0,,12,,,71,127
16884,note_off,139,0,0,,12,,,71,127
16890,note_on,6,0,0,,12,,,71,127
17029,note_off,139,0,0,,12,,,71,127
17032,note_off,3,0,0,,5,,,65,127
17034,note_on,2,0,0,,4,,,64,127
17034,note_on,0,0,0,,0,,,72,127
17173,note_off,139,0,0,,0,,,72,127
17176,note_off,3,0,0,,4,,,64,127
17178,note_on,2,0,0,,2,,,62,127
17178,note_on,0,0,0,,2,,,74,127
17317,note_off,139,0,0,,2,,,74,127
17323,note_on,6,0,0,,2,,,74,127
17462,note_off,139,0,0,,2,,,74,127
17465,note_off,3,0,0,,2,,,62,127
17467,note_on,2,0,0,,0,,,60,127
17467,note_on,0,0,0,,4,,,76,127
17606,note_off,139,0,0,,4,,,76,127
17609,note_off,3,0,0,,0,,,60,127
17611,note_on,2,0,0,,12,,,59,127
17611,note_on,0,0,0,,5,,,77,127
17750,note_off,139,0,0,,5,,,77,127
17756,note_on,6,0,0,,5,,,77,127
17895,note_off,139,0,0,,5,,,77,127
17898,note_off,3,0,0,,12,,,59,127
17900,note_on,2,0,0,,0,,,60,127
17900,note_on,0,0,0,,4,,,76,127
17954,note_off,54,0,0,,7,,,79,127
17954,note_off,0,0,0,,7,,,55,127
18039,note_off,85,0,0,,4,,,76,127
18042,note_off,3,0,0,,0,,,60,127
18062,note_on,20,0,0,,10,,,69,127
18062,note_on,0,0,0,,12,,,71,127
18062,note_on,0,0,0,,7,,,67,127
18062,note_on,0,0,0,,7,,,79,127
18062,note_on,0,0,0,,2,,,74,127
18062,note_on,0,0,0,,7,,,43,127
18062,note_on,0,0,0,,2,,,38,127
18062,note_on,0,0,0,,12,,,35,127
18062,note_on,0,0,0,,7,,,31,127
18062,note_on,0,0,0,,0,,,36,127
18134,note_off,72,0,0,,0,,,36,127
18134,note_off,0,0,0,,10,,,69,127
18346,note_off,212,0,0,,2,,,74,127
18346,note_off,0,0,0,,7,,,79,127
18346,note_off,0,0,0,,7,,,67,127
18346,note_off,0,0,0,,12,,,71,127
18349,note_off,3,0,0,,7,,,31,127
18349,note_off,0,0,0,,12,,,35,127
18349,note_off,0,0,0,,2,,,38,127
18349,note_off,0,0,0,,7,,,43,127
18387,note_on,38,0,0,,4,,,64,127
18387,note_on,0,0,0,,0,,,84,127
18526,note_off,139,0,0,,0,,,84,127
18529,note_off,3,0,0,,4,,,64,127
18531,note_on,2,0,0,,5,,,65,127
18531,note_on,0,0,0,,0,,,84,127
18670,note_off,139,0,0,,0,,,84,127
18676,note_on,6,0,0,,2,,,74,127
18815,note_off,139,0,0,,2,,,74,127
18818,note_off,3,0,0,,5,,,65,127
18820,note_on,2,0,0,,10,,,69,127
18820,note_on,0,0,0,,10,,,81,127
18959,note_off,139,0,0,,10,,,81,127
18962,note_off,3,0,0,,10,,,69,127
18964,note_on,2,0,0,,7,,,67,127
18964,note_on,0,0,0,,10,,,81,127
19103,note_off,139,0,0,,10,,,81,127
19109,note_on,6,0,0,,12,,,71,127
19248,note_off,139,0,0,,12,,,71,127
19251,note_off,3,0,0,,7,,,67,127
19253,note_on,2,0,0,,4,,,64,127
19253,note_on,0,0,0,,4,,,76,127
19253,note_on,0,0,0,,0,,,72,127
19392,note_off,139,0,0,,0,,,72,127
19392,note_off,0,0,0,,4,,,76,127
19395,note_off,3,0,0,,4,,,64,127
19397,note_on,2,0,0,,5,,,65,127
19397,note_on,0,0,0,,2,,,74,127
19397,note_on,0,0,0,,5,,,77,127
19536,note_off,139,0,0,,5,,,77,127
19536,note_off,0,0,0,,2,,,74,127
19542,note_on,6,0,0,,0,,,72,127
19542,note_on,0,0,0,,4,,,76,127
19681,note_off,139,0,0,,4,,,76,127
19681,note_off,0,0,0,,0,,,72,127
19684,note_off,3,0,0,,5,,,65,127
19686,note_on,2,0,0,,7,,,67,127
19686,note_on,0,0,0,,12,,,71,127
19686,note_on,0,0,0,,2,,,74,127
19825,note_off,139,0,0,,2,,,74,127
19825,note_off,0,0,0,,12,,,71,127
19828,note_off,3,0,0,,7,,,67,127
19830,note_on,2,0,0,,0,,,60,127
19830,note_on,0,0,0,,0,,,72,127
19830,note_on,0,0,0,,4,,,76,127
20114,note_off,284,0,0,,4,,,76,127
20114,note_off,0,0,0,,0,,,72,127
20117,note_off,3,0,0,,0,,,60,127
20119,note_on,2,0,0,,7,,,55,127
20119,note_on,0,0,0,,7,,,67,127
20119,note_on,0,0,0,,7,,,79,127
20262,note_off,143,0,0,,7,,,67,127
20264,note_on,2,0,0,,5,,,65,127
20264,note_on,0,0,0,,12,,,71,127
20403,note_off,139,0,0,,12,,,71,127
20409,note_on,6,0,0,,12,,,71,127
20548,note_off,139,0,0,,12,,,71,127
20551,note_off,3,0,0,,5,,,65,127
20553,note_on,2,0,0,,4,,,64,127
20553,note_on,0,0,0,,0,,,72,127
20692,note_off,139,0,0,,0,,,72,127
20695,note_off,3,0,0,,4,,,64,127
20697,note_on,2,0,0,,2,,,62,127
20697,note_on,0,0,0,,2,,,74,127
20836,note_off,139,0,0,,2,,,74,127
20842,note_on,6,0,0,,2,,,74,127
20981,note_off,139,0,0,,2,,,74,127
20984,note_off,3,0,0,,2,,,62,127
20986,note_on,2,0,0,,0,,,60,127
20986,note_on,0,0,0,,4,,,76,127
21125,note_off,139,0,0,,4,,,76,127
21128,note_off,3,0,0,,0,,,60,127
21130,note_on,2,0,0,,12,,,59,127
21130,note_on,0,0,0,,5,,,77,127
21269,note_off,139,0,0,,5,,,77,127
21275,note_on,6,0,0,,5,,,77,127
21414,note_off,139,0,0,,5,,,77,127
21417,note_off,3,0,0,,12,,,59,127
21419,note_on,2,0,0,,0,,,60,127
21419,note_on,0,0,0,,4,,,76,127
21473,note_off,54,0,0,,7,,,79,127
21473,note_off,0,0,0,,7,,,55,127
21558,note_off,85,0,0,,4,,,76,127
21561,note_off,3,0,0,,0,,,60,127
21581,note_on,20,0,0,,7,,,79,127
21581,note_on,0,0,0,,2,,,74,127
21581,note_on,0,0,0,,12,,,71,127
21581,note_on,0,0,0,,7,,,67,127
21581,note_on,0,0,0,,7,,,43,127
21581,note_on,0,0,0,,2,,,38,127
21581,note_on,0,0,0,,12,,,35,127
21581,note_on,0,0,0,,7,,,31,127
21796,note_off,215,0,0,,7,,,31,127
21796,note_off,0,0,0,,12,,,35,127
21796,note_off,0,0,0,,2,,,38,127
21796,note_off,0,0,0,,7,,,43,127
21796,note_off,0,0,0,,7,,,67,127
21796,note_off,0,0,0,,12,,,71,127
21796,note_off,0,0,0,,2,,,74,127
21796,note_off,0,0,0,,7,,,79,127
21871,note_on,75,0,0,,7,,,79,127
21871,note_on,0,0,0,,7,,,67,127
21871,note_on,0,0,0,,7,,,55,127
22014,note_off,143,0,0,,7,,,67,127
22015,note_off,1,0,0,,7,,,79,127
22016,note_on,1,0,0,,12,,,71,127
22016,note_on,0,0,0,,5,,,65,127
22155,note_off,139,0,0,,12,,,71,127
22161,note_on,6,0,0,,12,,,71,127
22300,note_off,139,0,0,,12,,,71,127
22303,note_off,3,0,0,,5,,,65,127
22305,note_on,2,0,0,,0,,,72,127
22305,note_on,0,0,0,,4,,,64,127
22444,note_off,139,0,0,,0,,,72,127
22447,note_off,3,0,0,,4,,,64,127
22449,note_on,2,0,0,,2,,,74,127
22449,note_on,0,0,0,,2,,,62,127
22588,note_off,139,0,0,,2,,,74,127
22594,note_on,6,0,0,,2,,,74,127
22733,note_off,139,0,0,,2,,,74,127
22736,note_off,3,0,0,,2,,,62,127
22738,note_on,2,0,0,,4,,,76,127
22738,note_on,0,0,0,,0,,,60,127
22877,note_off,139,0,0,,4,,,76,127
22880,note_off,3,0,0,,0,,,60,127
22882,note_on,2,0,0,,5,,,77,127
22882,note_on,0,0,0,,12,,,59,127
23021,note_off,139,0,0,,5,,,77,127
23027,note_on,6,0,0,,5,,,77,127
23166,note_off,139,0,0,,5,,,77,127
23169,note_off,3,0,0,,12,,,59,127
23171,note_on,2,0,0,,4,,,76,127
23171,note_on,0,0,0,,0,,,60,127
23225,note_off,54,0,0,,7,,,55,127
23310,note_off,85,0,0,,4,,,76,127
23313,note_off,3,0,0,,0,,,60,127
23333,note_on,20,0,0,,7,,,31,127
23333,note_on,0,0,0,,12,,,35,127
23333,note_on,0,0,0,,2,,,38,127
23333,note_on,0,0,0,,7,,,43,127
23333,note_on,0,0,0,,7,,,67,127
23333,note_on,0,0,0,,7,,,79,127
23333,note_on,0,0,0,,12,,,71,127
23333,note_on,0,0,0,,2,,,74,127
23333,note_on,0,0,0,,10,,,33,127
23650,note_off,317,0,0,,10,,,33,127
23650,note_off,0,0,0,,2,,,74,127
23650,note_off,0,0,0,,12,,,71,127
23650,note_off,0,0,0,,7,,,79,127
23650,note_off,0,0,0,,7,,,67,127
23650,note_off,0,0,0,,7,,,43,127
23650,note_off,0,0,0,,2,,,38,127
23650,note_off,0,0,0,,12,,,35,127
23650,note_off,0,0,0,,7,,,31,127
23695,note_on,45,0,0,,4,,,64,127
23695,note_on,0,0,0,,0,,,84,127
23834,note_off,139,0,0,,0,,,84,127
23837,note_off,3,0,0,,4,,,64,127
23839,note_on,2,0,0,,5,,,65,127
23839,note_on,0,0,0,,0,,,84,127
23978,note_off,139,0,0,,0,,,84,127
23984,note_on,6,0,0,,2,,,74,127
24123,note_off,139,0,0,,2,,,74,127
24126,note_off,3,0,0,,5,,,65,127
24128,note_on,2,0,0,,10,,,69,127
24128,note_on,0,0,0,,10,,,81,127
24267,note_off,139,0,0,,10,,,81,127
24270,note_off,3,0,0,,10,,,69,127
24272,note_on,2,0,0,,7,,,67,127
24272,note_on,0,0,0,,10,,,81,127
24411,note_off,139,0,0,,10,,,81,127
24417,note_on,6,0,0,,12,,,71,127
24556,note_off,139,0,0,,12,,,71,127
24559,note_off,3,0,0,,7,,,67,127
24561,note_on,2,0,0,,4,,,64,127
24561,note_on,0,0,0,,4,,,76,127
24561,note_on,0,0,0,,0,,,72,127
24700,note_off,139,0,0,,0,,,72,127
24700,note_off,0,0,0,,4,,,76,127
24703,note_off,3,0,0,,4,,,64,127
24705,note_on,2,0,0,,5,,,65,127
24705,note_on,0,0,0,,2,,,74,127
24705,note_on,0,0,0,,5,,,77,127
24844,note_off,139,0,0,,5,,,77,127
24844,note_off,0,0,0,,2,,,74,127
24850,note_on,6,0,0,,0,,,72,127
24850,note_on,0,0,0,,4,,,76,127
24989,note_off,139,0,0,,4,,,76,127
24989,note_off,0,0,0,,0,,,72,127
24992,note_off,3,0,0,,5,,,65,127
24994,note_on,2,0,0,,7,,,67,127
24994,note_on,0,0,0,,12,,,71,127
24994,note_on,0,0,0,,2,,,74,127
25133,note_off,139,0,0,,2,,,74,127
25133,note_off,0,0,0,,12,,,71,127
25136,note_off,3,0,0,,7,,,67,127
25138,note_on,2,0,0,,0,,,60,127
25138,note_on,0,0,0,,0,,,72,127
25422,note_off,284,0,0,,0,,,72,127
25425,note_off,3,0,0,,0,,,60,127
25427,note_on,2,0,0,,4,,,52,127
25427,note_on,0,0,0,,0,,,72,127
25566,note_off,139,0,0,,0,,,72,127
25569,note_off,3,0,0,,4,,,52,127
25571,note_on,2,0,0,,5,,,53,127
25571,note_on,0,0,0,,0,,,72,127
25710,note_off,139,0,0,,0,,,72,127
25716,note_on,6,0,0,,2,,,62,127
25855,note_off,139,0,0,,2,,,62,127
25858,note_off,3,0,0,,5,,,53,127
25860,note_on,2,0,0,,10,,,57,127
25860,note_on,0,0,0,,10,,,69,127
25999,note_off,139,0,0,,10,,,69,127
26002,note_off,3,0,0,,10,,,57,127
26004,note_on,2,0,0,,7,,,55,127
26004,note_on,0,0,0,,10,,,69,127
26143,note_off,139,0,0,,10,,,69,127
26149,note_on,6,0,0,,12,,,59,127
26288,note_off,139,0,0,,12,,,59,127
26291,note_off,3,0,0,,7,,,55,127
26293,note_on,2,0,0,,4,,,52,127
26293,note_on,0,0,0,,4,,,64,127
26293,note_on,0,0,0,,0,,,60,127
26432,note_off,139,0,0,,0,,,60,127
26432,note_off,0,0,0,,4,,,64,127
26435,note_off,3,0,0,,4,,,52,127
26437,note_on,2,0,0,,5,,,53,127
26437,note_on,0,0,0,,2,,,62,127
26437,note_on,0,0,0,,5,,,65,127
26576,note_off,139,0,0,,5,,,65,127
26576,note_off,0,0,0,,2,,,62,127
26582,note_on,6,0,0,,4,,,64,127
26582,note_on,0,0,0,,0,,,60,127
26721,note_off,139,0,0,,0,,,60,127
26721,note_off,0,0,0,,4,,,64,127
26724,note_off,3,0,0,,5,,,53,127
26726,note_on,2,0,0,,7,,,55,127
26726,note_on,0,0,0,,12,,,59,127
26726,note_on,0,0,0,,2,,,62,127
26865,note_off,139,0,0,,2,,,62,127
26865,note_off,0,0,0,,12,,,59,127
26868,note_off,3,0,0,,7,,,55,127
26870,note_on,2,0,0,,0,,,48,127
26870,note_on,0,0,0,,0,,,36,127
26870,note_on,0,0,0,,0,,,60,127
27527,note_off,657,0,0,,0,,,60,127
27663,note_off,136,0,0,,0,,,36,127
27663,note_off,0,0,0,,0,,,48,127
27704,note_on,41,0,0,,4,,,76,127
27704,note_on,0,0,0,,1,,,73,127
27704,note_on,0,0,0,,10,,,69,127
27704,note_on,0,0,0,,7,,,79,127
27704,note_on,0,0,0,,10,,,57,127
27704,note_on,0,0,0,,10,,,45,127
27704,note_on,0,0,0,,4,,,52,127
27843,note_off,139,0,0,,10,,,69,127
27843,note_off,0,0,0,,1,,,73,127
27849,note_on,6,0,0,,10,,,69,127
27987,note_off,138,0,0,,7,,,79,127
27987,note_off,0,0,0,,4,,,76,127
27994,note_on,7,0,0,,5,,,77,127
27994,note_on,0,0,0,,2,,,74,127
28132,note_off,138,0,0,,10,,,69,127
28133,note_off,1,0,0,,2,,,74,127
28133,note_off,0,0,0,,5,,,77,127
28136,note_off,3,0,0,,4,,,52,127
28136,note_off,0,0,0,,10,,,45,127
28136,note_off,0,0,0,,10,,,57,127
28138,note_on,2,0,0,,1,,,73,127
28138,note_on,0,0,0,,4,,,76,127
28138,note_on,0,0,0,,10,,,69,127
28277,note_off,139,0,0,,4,,,76,127
28277,note_off,0,0,0,,1,,,73,127
28280,note_off,3,0,0,,10,,,69,127
28282,note_on,2,0,0,,10,,,69,127
28427,note_on,145,0,0,,12,,,71,127
28427,note_on,0,0,0,,2,,,74,127
28565,note_off,138,0,0,,10,,,69,127
28566,note_off,1,0,0,,2,,,74,127
28566,note_off,0,0,0,,12,,,71,127
28572,note_on,6,0,0,,1,,,73,127
28572,note_on,0,0,0,,10,,,69,127
28572,note_on,0,0,0,,7,,,67,127
28715,note_off,143,0,0,,7,,,67,127
28717,note_on,2,0,0,,10,,,57,127
28856,note_off,139,0,0,,1,,,73,127
28859,note_off,3,0,0,,10,,,57,127
28861,note_on,2,0,0,,12,,,71,127
28861,note_on,0,0,0,,2,,,74,127
28861,note_on,0,0,0,,5,,,65,127
29000,note_off,139,0,0,,2,,,74,127
29000,note_off,0,0,0,,12,,,71,127
29003,note_off,3,0,0,,5,,,65,127
29005,note_on,2,0,0,,4,,,76,127
29005,note_on,0,0,0,,1,,,73,127
29005,note_on,0,0,0,,4,,,64,127
29148,note_off,143,0,0,,4,,,64,127
29150,note_on,2,0,0,,10,,,57,127
29289,note_off,139,0,0,,1,,,73,127
29289,note_off,0,0,0,,4,,,76,127
29292,note_off,3,0,0,,10,,,57,127
29294,note_on,2,0,0,,5,,,77,127
29294,note_on,0,0,0,,2,,,74,127
29294,note_on,0,0,0,,2,,,62,127
29433,note_off,139,0,0,,2,,,74,127
29433,note_off,0,0,0,,5,,,77,127
29436,note_off,3,0,0,,2,,,62,127
29437,note_off,1,0,0,,10,,,69,127
29438,note_on,1,0,0,,4,,,76,127
29438,note_on,0,0,0,,10,,,69,127
29438,note_on,0,0,0,,7,,,79,127
29438,note_on,0,0,0,,1,,,61,127
29581,note_off,143,0,0,,1,,,61,127
29583,note_on,2,0,0,,10,,,57,127
29722,note_off,139,0,0,,7,,,79,127
29722,note_off,0,0,0,,4,,,76,127
29725,note_off,3,0,0,,10,,,57,127
29727,note_on,2,0,0,,5,,,77,127
29727,note_on,0,0,0,,2,,,74,127
29727,note_on,0,0,0,,2,,,62,127
29866,note_off,139,0,0,,2,,,74,127
29866,note_off,0,0,0,,5,,,77,127
29867,note_off,1,0,0,,10,,,69,127
29869,note_off,2,0,0,,2,,,62,127
29871,note_on,2,0,0,,11,,,70,127
29871,note_on,0,0,0,,7,,,79,127
29871,note_on,0,0,0,,5,,,77,127
29871,note_on,0,0,0,,7,,,55,127
30010,note_off,139,0,0,,5,,,77,127
30010,note_off,0,0,0,,7,,,79,127
30013,note_off,3,0,0,,7,,,55,127
30015,note_on,2,0,0,,4,,,76,127
30015,note_on,0,0,0,,10,,,57,127
30154,note_off,139,0,0,,4,,,76,127
30157,note_off,3,0,0,,10,,,57,127
30159,note_on,2,0,0,,2,,,74,127
30159,note_on,0,0,0,,11,,,58,127
30298,note_off,139,0,0,,2,,,74,127
30299,note_off,1,0,0,,11,,,70,127
30301,note_off,2,0,0,,11,,,58,127
30303,note_on,2,0,0,,10,,,69,127
30303,note_on,0,0,0,,4,,,76,127
30303,note_on,0,0,0,,1,,,73,127
30303,note_on,0,0,0,,10,,,57,127
30446,note_off,143,0,0,,10,,,57,127
30448,note_on,2,0,0,,7,,,55,127
30587,note_off,139,0,0,,1,,,73,127
30587,note_off,0,0,0,,4,,,76,127
30590,note_off,3,0,0,,7,,,55,127
30592,note_on,2,0,0,,2,,,74,127
30592,note_on,0,0,0,,5,,,77,127
30592,note_on,0,0,0,,5,,,53,127
30731,note_off,139,0,0,,5,,,77,127
30731,note_off,0,0,0,,2,,,74,127
30732,note_off,1,0,0,,10,,,69,127
30734,note_off,2,0,0,,5,,,53,127
30736,note_on,2,0,0,,7,,,79,127
30736,note_on,0,0,0,,5,,,77,127
30736,note_on,0,0,0,,11,,,70,127
30736,note_on,0,0,0,,7,,,55,127
30875,note_off,139,0,0,,5,,,77,127
30875,note_off,0,0,0,,7,,,79,127
30878,note_off,3,0,0,,7,,,55,127
30880,note_on,2,0,0,,4,,,76,127
30880,note_on,0,0,0,,10,,,57,127
31019,note_off,139,0,0,,4,,,76,127
31022,note_off,3,0,0,,10,,,57,127
31024,note_on,2,0,0,,2,,,74,127
31024,note_on,0,0,0,,11,,,58,127
31163,note_off,139,0,0,,2,,,74,127
31164,note_off,1,0,0,,11,,,70,127
31166,note_off,2,0,0,,11,,,58,127
31168,note_on,2,0,0,,1,,,73,127
31168,note_on,0,0,0,,10,,,69,127
31168,note_on,0,0,0,,4,,,76,127
31168,note_on,0,0,0,,10,,,57,127
31311,note_off,143,0,0,,10,,,57,127
31313,note_on,2,0,0,,7,,,55,127
31452,note_off,139,0,0,,4,,,76,127
31452,note_off,0,0,0,,1,,,73,127
31455,note_off,3,0,0,,7,,,55,127
31457,note_on,2,0,0,,2,,,74,127
31457,note_on,0,0,0,,5,,,77,127
31457,note_on,0,0,0,,5,,,53,127
31596,note_off,139,0,0,,5,,,77,127
31596,note_off,0,0,0,,2,,,74,127
31597,note_off,1,0,0,,10,,,69,127
31599,note_off,2,0,0,,5,,,53,127
31601,note_on,2,0,0,,11,,,70,127
31601,note_on,0,0,0,,5,,,77,127
31601,note_on,0,0,0,,7,,,79,127
31601,note_on,0,0,0,,7,,,55,127
31740,note_off,139,0,0,,7,,,79,127
31740,note_off,0,0,0,,5,,,77,127
31743,note_off,3,0,0,,7,,,55,127
31745,note_on,2,0,0,,4,,,76,127
31745,note_on,0,0,0,,10,,,57,127
31884,note_off,139,0,0,,4,,,76,127
31887,note_off,3,0,0,,10,,,57,127
31889,note_on,2,0,0,,2,,,74,127
31889,note_on,0,0,0,,11,,,58,127
32028,note_off,139,0,0,,2,,,74,127
32029,note_off,1,0,0,,11,,,70,127
32031,note_off,2,0,0,,11,,,58,127
32033,note_on,2,0,0,,2,,,74,127
32033,note_on,0,0,0,,10,,,57,127
32317,note_off,284,0,0,,2,,,74,127
32323,note_on,6,0,0,,4,,,76,127
32468,note_on,145,0,0,,10,,,45,127
32866,note_off,398,0,0,,4,,,76,127
32916,note_off,50,0,0,,10,,,57,127
32921,note_off,5,0,0,,10,,,45,127
33138,note_on,217,0,0,,11,,,34,127
33138,note_on,0,0,0,,8,,,80,127
33138,note_on,0,0,0,,5,,,77,127
33138,note_on,0,0,0,,11,,,70,127
33138,note_on,0,0,0,,2,,,74,127
33277,note_off,139,0,0,,2,,,74,127
33277,note_off,0,0,0,,11,,,70,127
33283,note_on,6,0,0,,11,,,70,127
33421,note_off,138,0,0,,5,,,77,127
33421,note_off,0,0,0,,8,,,80,127
33422,note_off,1,0,0,,11,,,70,127
33428,note_on,6,0,0,,3,,,75,127
33428,note_on,0,0,0,,7,,,79,127
33567,note_off,139,0,0,,7,,,79,127
33567,note_off,0,0,0,,3,,,75,127
33570,note_off,3,0,0,,11,,,34,127
33572,note_on,2,0,0,,11,,,70,127
33572,note_on,0,0,0,,2,,,74,127
33572,note_on,0,0,0,,5,,,77,127
33708,note_off,136,0,0,,11,,,70,127
33711,note_off,3,0,0,,5,,,77,127
33711,note_off,0,0,0,,2,,,74,127
33717,note_on,6,0,0,,11,,,70,127
33862,note_on,145,0,0,,3,,,75,127
33862,note_on,0,0,0,,0,,,72,127
34000,note_off,138,0,0,,11,,,70,127
34001,note_off,1,0,0,,0,,,72,127
34001,note_off,0,0,0,,3,,,75,127
34007,note_on,6,0,0,,8,,,68,127
34007,note_on,0,0,0,,11,,,70,127
34007,note_on,0,0,0,,2,,,74,127
34150,note_off,143,0,0,,8,,,68,127
34152,note_on,2,0,0,,11,,,58,127
34291,note_off,139,0,0,,2,,,74,127
34294,note_off,3,0,0,,11,,,58,127
34296,note_on,2,0,0,,7,,,67,127
34296,note_on,0,0,0,,0,,,72,127
34296,note_on,0,0,0,,3,,,75,127
34435,note_off,139,0,0,,3,,,75,127
34435,note_off,0,0,0,,0,,,72,127
34438,note_off,3,0,0,,7,,,67,127
34440,note_on,2,0,0,,5,,,65,127
34440,note_on,0,0,0,,2,,,74,127
34440,note_on,0,0,0,,5,,,77,127
34583,note_off,143,0,0,,5,,,65,127
34585,note_on,2,0,0,,11,,,58,127
34724,note_off,139,0,0,,5,,,77,127
34724,note_off,0,0,0,,2,,,74,127
34727,note_off,3,0,0,,11,,,58,127
34729,note_on,2,0,0,,3,,,63,127
34729,note_on,0,0,0,,3,,,75,127
34729,note_on,0,0,0,,7,,,79,127
34868,note_off,139,0,0,,7,,,79,127
34868,note_off,0,0,0,,3,,,75,127
34871,note_off,3,0,0,,3,,,63,127
34872,note_off,1,0,0,,11,,,70,127
34873,note_on,1,0,0,,2,,,62,127
34873,note_on,0,0,0,,11,,,70,127
34873,note_on,0,0,0,,5,,,77,127
34873,note_on,0,0,0,,8,,,80,127
35016,note_off,143,0,0,,2,,,62,127
35018,note_on,2,0,0,,11,,,58,127
35157,note_off,139,0,0,,8,,,80,127
35157,note_off,0,0,0,,5,,,77,127
35160,note_off,3,0,0,,11,,,58,127
35162,note_on,2,0,0,,3,,,63,127
35162,note_on,0,0,0,,3,,,75,127
35162,note_on,0,0,0,,7,,,79,127
35301,note_off,139,0,0,,7,,,79,127
35301,note_off,0,0,0,,3,,,75,127
35302,note_off,1,0,0,,11,,,70,127
35304,note_off,2,0,0,,3,,,63,127
35306,note_on,2,0,0,,8,,,56,127
35306,note_on,0,0,0,,8,,,80,127
35306,note_on,0,0,0,,0,,,72,127
35306,note_on,0,0,0,,7,,,79,127
35445,note_off,139,0,0,,7,,,79,127
35445,note_off,0,0,0,,8,,,80,127
35448,note_off,3,0,0,,8,,,56,127
35450,note_on,2,0,0,,11,,,58,127
35450,note_on,0,0,0,,5,,,77,127
35589,note_off,139,0,0,,5,,,77,127
35592,note_off,3,0,0,,11,,,58,127
35594,note_on,2,0,0,,0,,,60,127
35594,note_on,0,0,0,,3,,,75,127
35733,note_off,139,0,0,,3,,,75,127
35734,note_off,1,0,0,,0,,,72,127
35736,note_off,2,0,0,,0,,,60,127
35738,note_on,2,0,0,,11,,,58,127
35738,note_on,0,0,0,,5,,,77,127
35738,note_on,0,0,0,,2,,,74,127
35881,note_off,143,0,0,,11,,,58,127
35883,note_on,2,0,0,,8,,,56,127
36022,note_off,139,0,0,,2,,,74,127
36022,note_off,0,0,0,,5,,,77,127
36025,note_off,3,0,0,,8,,,56,127
36027,note_on,2,0,0,,7,,,55,127
36027,note_on,0,0,0,,3,,,75,127
36027,note_on,0,0,0,,7,,,79,127
36166,note_off,139,0,0,,7,,,79,127
36166,note_off,0,0,0,,3,,,75,127
36169,note_off,3,0,0,,7,,,55,127
36171,note_on,2,0,0,,8,,,56,127
36171,note_on,0,0,0,,8,,,80,127
36171,note_on,0,0,0,,0,,,72,127
36171,note_on,0,0,0,,7,,,79,127
36310,note_off,139,0,0,,7,,,79,127
36310,note_off,0,0,0,,8,,,80,127
36313,note_off,3,0,0,,8,,,56,127
36315,note_on,2,0,0,,11,,,58,127
36315,note_on,0,0,0,,5,,,77,127
36454,note_off,139,0,0,,5,,,77,127
36457,note_off,3,0,0,,11,,,58,127
36459,note_on,2,0,0,,0,,,60,127
36459,note_on,0,0,0,,3,,,75,127
36598,note_off,139,0,0,,3,,,75,127
36599,note_off,1,0,0,,0,,,72,127
36601,note_off,2,0,0,,0,,,60,127
36603,note_on,2,0,0,,11,,,58,127
36603,note_on,0,0,0,,5,,,77,127
36603,note_on,0,0,0,,2,,,74,127
36746,note_off,143,0,0,,11,,,58,127
36748,note_on,2,0,0,,8,,,56,127
36887,note_off,139,0,0,,2,,,74,127
36887,note_off,0,0,0,,5,,,77,127
36890,note_off,3,0,0,,8,,,56,127
36892,note_on,2,0,0,,7,,,55,127
36892,note_on,0,0,0,,3,,,75,127
36892,note_on,0,0,0,,7,,,79,127
37031,note_off,139,0,0,,7,,,79,127
37031,note_off,0,0,0,,3,,,75,127
37034,note_off,3,0,0,,7,,,55,127
37036,note_on,2,0,0,,8,,,56,127
37036,note_on,0,0,0,,8,,,80,127
37036,note_on,0,0,0,,7,,,79,127
37036,note_on,0,0,0,,0,,,72,127
37175,note_off,139,0,0,,7,,,79,127
37175,note_off,0,0,0,,8,,,80,127
37178,note_off,3,0,0,,8,,,56,127
37180,note_on,2,0,0,,11,,,58,127
37180,note_on,0,0,0,,5,,,77,127
37319,note_off,139,0,0,,5,,,77,127
37322,note_off,3,0,0,,11,,,58,127
37324,note_on,2,0,0,,0,,,60,127
37324,note_on,0,0,0,,3,,,75,127
37463,note_off,139,0,0,,3,,,75,127
37464,note_off,1,0,0,,0,,,72,127
37466,note_off,2,0,0,,0,,,60,127
37468,note_on,2,0,0,,11,,,58,127
37468,note_on,0,0,0,,2,,,74,127
37468,note_on,0,0,0,,5,,,77,127
37756,note_off,288,0,0,,11,,,58,127
37758,note_on,2,0,0,,11,,,46,127
37898,note_off,140,0,0,,5,,,77,127
37898,note_off,0,0,0,,2,,,74,127
37900,note_off,2,0,0,,11,,,46,127
37902,note_on,2,0,0,,3,,,51,127
38045,note_off,143,0,0,,3,,,51,127
38047,note_on,2,0,0,,3,,,51,127
38190,note_off,143,0,0,,3,,,51,127
38192,note_on,2,0,0,,2,,,50,127
38192,note_on,0,0,0,,11,,,58,127
38331,note_off,139,0,0,,11,,,58,127
38334,note_off,3,0,0,,2,,,50,127
38336,note_on,2,0,0,,7,,,55,127
38336,note_on,0,0,0,,3,,,63,127
38475,note_off,139,0,0,,3,,,63,127
38481,note_on,6,0,0,,3,,,63,127
38620,note_off,139,0,0,,3,,,63,127
38623,note_off,3,0,0,,7,,,55,127
38625,note_on,2,0,0,,5,,,53,127
38625,note_on,0,0,0,,2,,,62,127
38764,note_off,139,0,0,,2,,,62,127
38767,note_off,3,0,0,,5,,,53,127
38769,note_on,2,0,0,,3,,,51,127
38769,note_on,0,0,0,,7,,,67,127
38908,note_off,139,0,0,,7,,,67,127
38914,note_on,6,0,0,,7,,,67,127
39053,note_off,139,0,0,,7,,,67,127
39056,note_off,3,0,0,,3,,,51,127
39058,note_on,2,0,0,,2,,,50,127
39058,note_on,0,0,0,,6,,,66,127
39197,note_off,139,0,0,,6,,,66,127
39200,note_off,3,0,0,,2,,,50,127
39202,note_on,2,0,0,,7,,,55,127
39202,note_on,0,0,0,,11,,,70,127
39341,note_off,139,0,0,,11,,,70,127
39347,note_on,6,0,0,,11,,,70,127
39486,note_off,139,0,0,,11,,,70,127
39489,note_off,3,0,0,,7,,,55,127
39491,note_on,2,0,0,,5,,,53,127
39491,note_on,0,0,0,,10,,,69,127
39630,note_off,139,0,0,,10,,,69,127
39633,note_off,3,0,0,,5,,,53,127
39635,note_on,2,0,0,,5,,,53,127
39635,note_on,0,0,0,,5,,,65,127
39635,note_on,0,0,0,,2,,,74,127
39774,note_off,139,0,0,,2,,,74,127
39780,note_on,6,0,0,,2,,,74,127
39919,note_off,139,0,0,,2,,,74,127
39922,note_off,3,0,0,,5,,,65,127
39922,note_off,0,0,0,,5,,,53,127
39924,note_on,2,0,0,,4,,,64,127
39924,note_on,0,0,0,,1,,,73,127
40063,note_off,139,0,0,,1,,,73,127
40066,note_off,3,0,0,,4,,,64,127
40068,note_on,2,0,0,,2,,,62,127
40068,note_on,0,0,0,,5,,,77,127
40207,note_off,139,0,0,,5,,,77,127
40213,note_on,6,0,0,,5,,,77,127
40352,note_off,139,0,0,,5,,,77,127
40355,note_off,3,0,0,,2,,,62,127
40357,note_on,2,0,0,,0,,,60,127
40357,note_on,0,0,0,,4,,,76,127
40496,note_off,139,0,0,,4,,,76,127
40499,note_off,3,0,0,,0,,,60,127
40501,note_on,2,0,0,,0,,,60,127
40501,note_on,0,0,0,,10,,,81,127
40640,note_off,139,0,0,,10,,,81,127
40646,note_on,6,0,0,,10,,,81,127
40785,note_off,139,0,0,,10,,,81,127
40788,note_off,3,0,0,,0,,,60,127
40790,note_on,2,0,0,,12,,,59,127
40790,note_on,0,0,0,,8,,,80,127
40929,note_off,139,0,0,,8,,,80,127
40932,note_off,3,0,0,,12,,,59,127
40934,note_on,2,0,0,,10,,,57,127
40934,note_on,0,0,0,,0,,,84,127
41073,note_off,139,0,0,,0,,,84,127
41079,note_on,6,0,0,,0,,,84,127
41218,note_off,139,0,0,,0,,,84,127
41221,note_off,3,0,0,,10,,,57,127
41223,note_on,2,0,0,,12,,,59,127
41223,note_on,0,0,0,,12,,,83,127
41362,note_off,139,0,0,,12,,,83,127
41365,note_off,3,0,0,,12,,,59,127
41367,note_on,2,0,0,,0,,,60,127
41367,note_on,0,0,0,,10,,,81,127
41506,note_off,139,0,0,,10,,,81,127
41512,note_on,6,0,0,,10,,,81,127
41651,note_off,139,0,0,,10,,,81,127
41654,note_off,3,0,0,,0,,,60,127
41656,note_on,2,0,0,,10,,,57,127
41656,note_on,0,0,0,,7,,,79,127
41795,note_off,139,0,0,,7,,,79,127
41798,note_off,3,0,0,,10,,,57,127
41800,note_on,2,0,0,,2,,,62,127
41800,note_on,0,0,0,,2,,,50,127
41800,note_on,0,0,0,,5,,,77,127
41939,note_off,139,0,0,,5,,,77,127
41945,note_on,6,0,0,,4,,,76,127
42084,note_off,139,0,0,,4,,,76,127
42087,note_off,3,0,0,,2,,,50,127
42089,note_on,2,0,0,,4,,,52,127
42089,note_on,0,0,0,,2,,,74,127
42228,note_off,139,0,0,,2,,,74,127
42229,note_off,1,0,0,,2,,,62,127
42231,note_off,2,0,0,,4,,,52,127
42233,note_on,2,0,0,,12,,,59,127
42233,note_on,0,0,0,,10,,,57,127
42233,note_on,0,0,0,,5,,,53,127
42233,note_on,0,0,0,,0,,,72,127
42372,note_off,139,0,0,,0,,,72,127
42378,note_on,6,0,0,,12,,,71,127
42517,note_off,139,0,0,,12,,,71,127
42523,note_on,6,0,0,,10,,,69,127
42662,note_off,139,0,0,,10,,,69,127
42665,note_off,3,0,0,,5,,,53,127
42665,note_off,0,0,0,,10,,,57,127
42665,note_off,0,0,0,,12,,,59,127
42667,note_on,2,0,0,,12,,,59,127
42667,note_on,0,0,0,,4,,,52,127
42667,note_on,0,0,0,,12,,,71,127
42667,note_on,0,0,0,,4,,,64,127
42955,note_off,288,0,0,,4,,,52,127
42955,note_off,0,0,0,,12,,,59,127
42957,note_on,2,0,0,,4,,,52,127
43097,note_off,140,0,0,,4,,,64,127
43097,note_off,0,0,0,,12,,,71,127
43099,note_off,2,0,0,,4,,,52,127
43101,note_on,2,0,0,,10,,,57,127
43244,note_off,143,0,0,,10,,,57,127
43246,note_on,2,0,0,,10,,,57,127
43389,note_off,143,0,0,,10,,,57,127
43391,note_on,2,0,0,,8,,,56,127
43391,note_on,0,0,0,,4,,,64,127
43530,note_off,139,0,0,,4,,,64,127
43533,note_off,3,0,0,,8,,,56,127
43535,note_on,2,0,0,,0,,,60,127
43535,note_on,0,0,0,,10,,,69,127
43674,note_off,139,0,0,,10,,,69,127
43680,note_on,6,0,0,,10,,,69,127
43819,note_off,139,0,0,,10,,,69,127
43822,note_off,3,0,0,,0,,,60,127
43824,note_on,2,0,0,,12,,,59,127
43824,note_on,0,0,0,,8,,,68,127
43963,note_off,139,0,0,,8,,,68,127
43966,note_off,3,0,0,,12,,,59,127
43968,note_on,2,0,0,,10,,,57,127
43968,note_on,0,0,0,,0,,,72,127
44107,note_off,139,0,0,,0,,,72,127
44113,note_on,6,0,0,,0,,,72,127
44252,note_off,139,0,0,,0,,,72,127
44255,note_off,3,0,0,,10,,,57,127
44257,note_on,2,0,0,,7,,,55,127
44257,note_on,0,0,0,,12,,,71,127
44396,note_off,139,0,0,,12,,,71,127
44399,note_off,3,0,0,,7,,,55,127
44401,note_on,2,0,0,,0,,,60,127
44401,note_on,0,0,0,,4,,,76,127
44540,note_off,139,0,0,,4,,,76,127
44546,note_on,6,0,0,,4,,,76,127
44685,note_off,139,0,0,,4,,,76,127
44688,note_off,3,0,0,,0,,,60,127
44690,note_on,2,0,0,,11,,,58,127
44690,note_on,0,0,0,,2,,,74,127
44829,note_off,139,0,0,,2,,,74,127
44832,note_off,3,0,0,,11,,,58,127
44834,note_on,2,0,0,,11,,,58,127
44834,note_on,0,0,0,,7,,,79,127
44973,note_off,139,0,0,,7,,,79,127
44979,note_on,6,0,0,,7,,,79,127
45118,note_off,139,0,0,,7,,,79,127
45121,note_off,3,0,0,,11,,,58,127
45123,note_on,2,0,0,,10,,,57,127
45123,note_on,0,0,0,,6,,,78,127
45262,note_off,139,0,0,,6,,,78,127
45265,note_off,3,0,0,,10,,,57,127
45267,note_on,2,0,0,,7,,,67,127
45267,note_on,0,0,0,,11,,,82,127
45406,note_off,139,0,0,,11,,,82,127
45412,note_on,6,0,0,,11,,,82,127
45551,note_off,139,0,0,,11,,,82,127
45554,note_off,3,0,0,,7,,,67,127
45556,note_on,2,0,0,,5,,,65,127
45556,note_on,0,0,0,,10,,,81,127
45695,note_off,139,0,0,,10,,,81,127
45698,note_off,3,0,0,,5,,,65,127
45700,note_on,2,0,0,,5,,,65,127
45700,note_on,0,0,0,,2,,,86,127
45839,note_off,139,0,0,,2,,,86,127
45845,note_on,6,0,0,,2,,,86,127
45984,note_off,139,0,0,,2,,,86,127
45987,note_off,3,0,0,,5,,,65,127
45989,note_on,2,0,0,,4,,,64,127
45989,note_on,0,0,0,,1,,,85,127
46128,note_off,139,0,0,,1,,,85,127
46131,note_off,3,0,0,,4,,,64,127
46133,note_on,2,0,0,,2,,,62,127
46133,note_on,0,0,0,,2,,,50,127
46133,note_on,0,0,0,,5,,,89,127
46272,note_off,139,0,0,,5,,,89,127
46278,note_on,6,0,0,,5,,,89,127
46417,note_off,139,0,0,,5,,,89,127
46420,note_off,3,0,0,,2,,,50,127
46422,note_on,2,0,0,,4,,,52,127
46422,note_on,0,0,0,,4,,,88,127
46561,note_off,139,0,0,,4,,,88,127
46564,note_off,3,0,0,,4,,,52,127
46566,note_on,2,0,0,,5,,,53,127
46566,note_on,0,0,0,,2,,,86,127
46705,note_off,139,0,0,,2,,,86,127
46711,note_on,6,0,0,,2,,,86,127
46850,note_off,139,0,0,,2,,,86,127
46853,note_off,3,0,0,,5,,,53,127
46855,note_on,2,0,0,,2,,,50,127
46855,note_on,0,0,0,,0,,,84,127
46994,note_off,139,0,0,,0,,,84,127
46997,note_off,3,0,0,,2,,,50,127
46998,note_off,1,0,0,,2,,,62,127
46999,note_on,1,0,0,,7,,,55,127
46999,note_on,0,0,0,,2,,,62,127
46999,note_on,0,0,0,,11,,,82,127
47138,note_off,139,0,0,,11,,,82,127
47141,note_off,3,0,0,,7,,,55,127
47143,note_on,2,0,0,,10,,,57,127
47143,note_on,0,0,0,,10,,,81,127
47282,note_off,139,0,0,,10,,,81,127
47285,note_off,3,0,0,,10,,,57,127
47287,note_on,2,0,0,,4,,,52,127
47287,note_on,0,0,0,,7,,,79,127
47426,note_off,139,0,0,,7,,,79,127
47427,note_off,1,0,0,,2,,,62,127
47429,note_off,2,0,0,,4,,,52,127
47431,note_on,2,0,0,,2,,,50,127
47431,note_on,0,0,0,,5,,,77,127
47431,note_on,0,0,0,,7,,,79,127
47570,note_off,139,0,0,,7,,,79,127
47570,note_off,0,0,0,,5,,,77,127
47576,note_on,6,0,0,,4,,,76,127
47715,note_off,139,0,0,,4,,,76,127
47718,note_off,3,0,0,,2,,,50,127
47720,note_on,2,0,0,,2,,,50,127
47720,note_on,0,0,0,,12,,,83,127
47720,note_on,0,0,0,,5,,,77,127
47859,note_off,139,0,0,,5,,,77,127
47859,note_off,0,0,0,,12,,,83,127
47862,note_off,3,0,0,,2,,,50,127
47864,note_on,2,0,0,,0,,,48,127
47864,note_on,0,0,0,,0,,,84,127
47864,note_on,0,0,0,,7,,,79,127
48003,note_off,139,0,0,,7,,,79,127
48003,note_off,0,0,0,,0,,,84,127
48009,note_on,6,0,0,,0,,,60,127
48009,note_on,0,0,0,,0,,,72,127
48148,note_off,139,0,0,,0,,,72,127
48151,note_off,3,0,0,,0,,,60,127
48153,note_on,2,0,0,,11,,,58,127
48153,note_on,0,0,0,,4,,,76,127
48292,note_off,139,0,0,,4,,,76,127
48295,note_off,3,0,0,,11,,,58,127
48297,note_on,2,0,0,,10,,,57,127
48297,note_on,0,0,0,,5,,,77,127
48440,note_off,143,0,0,,10,,,57,127
48441,note_off,1,0,0,,5,,,77,127
48442,note_on,1,0,0,,7,,,55,127
48442,note_on,0,0,0,,7,,,79,127
48581,note_off,139,0,0,,7,,,79,127
48584,note_off,3,0,0,,7,,,55,127
48586,note_on,2,0,0,,5,,,53,127
48586,note_on,0,0,0,,10,,,81,127
48725,note_off,139,0,0,,10,,,81,127
48728,note_off,3,0,0,,5,,,53,127
48729,note_off,1,0,0,,0,,,48,127
48730,note_on,1,0,0,,0,,,48,127
48730,note_on,0,0,0,,7,,,79,127
48869,note_off,139,0,0,,7,,,79,127
48875,note_on,6,0,0,,0,,,60,127
48875,note_on,0,0,0,,0,,,72,127
49014,note_off,139,0,0,,0,,,72,127
49017,note_off,3,0,0,,0,,,60,127
49019,note_on,2,0,0,,11,,,58,127
49019,note_on,0,0,0,,4,,,76,127
49158,note_off,139,0,0,,4,,,76,127
49161,note_off,3,0,0,,11,,,58,127
49163,note_on,2,0,0,,10,,,57,127
49163,note_on,0,0,0,,5,,,77,127
49199,note_on,36,0,0,,4,,,76,127
49208,note_off,9,0,0,,5,,,77,127
49235,note_on,27,0,0,,5,,,77,127
49244,note_off,9,0,0,,4,,,76,127
49302,note_off,58,0,0,,5,,,77,127
49305,note_off,3,0,0,,10,,,57,127
49307,note_on,2,0,0,,7,,,55,127
49307,note_on,0,0,0,,7,,,79,127
49446,note_off,139,0,0,,7,,,79,127
49449,note_off,3,0,0,,7,,,55,127
49451,note_on,2,0,0,,5,,,53,127
49451,note_on,0,0,0,,10,,,81,127
49590,note_off,139,0,0,,10,,,81,127
49593,note_off,3,0,0,,5,,,53,127
49594,note_off,1,0,0,,0,,,48,127
49595,note_on,1,0,0,,0,,,48,127
49595,note_on,0,0,0,,7,,,79,127
49879,note_off,284,0,0,,7,,,79,127
49882,note_off,3,0,0,,0,,,48,127
49884,note_on,2,0,0,,0,,,72,127
49884,note_on,0,0,0,,0,,,60,127
49884,note_on,0,0,0,,0,,,84,127
50027,note_off,143,0,0,,0,,,72,127
50029,note_on,2,0,0,,11,,,70,127
50029,note_on,0,0,0,,4,,,76,127
50168,note_off,139,0,0,,4,,,76,127
50174,note_on,6,0,0,,4,,,76,127
50313,note_off,139,0,0,,4,,,76,127
50316,note_off,3,0,0,,11,,,70,127
50318,note_on,2,0,0,,10,,,69,127
50318,note_on,0,0,0,,5,,,77,127
50457,note_off,139,0,0,,5,,,77,127
50460,note_off,3,0,0,,10,,,69,127
50462,note_on,2,0,0,,7,,,67,127
50462,note_on,0,0,0,,7,,,79,127
50601,note_off,139,0,0,,7,,,79,127
50607,note_on,6,0,0,,7,,,79,127
50746,note_off,139,0,0,,7,,,79,127
50749,note_off,3,0,0,,7,,,67,127
50751,note_on,2,0,0,,5,,,65,127
50751,note_on,0,0,0,,10,,,81,127
50890,note_off,139,0,0,,10,,,81,127
50893,note_off,3,0,0,,5,,,65,127
50895,note_on,2,0,0,,4,,,64,127
50895,note_on,0,0,0,,11,,,82,127
51034,note_off,139,0,0,,11,,,82,127
51040,note_on,6,0,0,,11,,,82,127
51179,note_off,139,0,0,,11,,,82,127
51182,note_off,3,0,0,,4,,,64,127
51184,note_on,2,0,0,,5,,,65,127
51184,note_on,0,0,0,,10,,,81,127
51238,note_off,54,0,0,,0,,,84,127
51238,note_off,0,0,0,,0,,,60,127
51323,note_off,85,0,0,,10,,,81,127
51326,note_off,3,0,0,,5,,,65,127
51346,note_on,20,0,0,,7,,,79,127
51346,note_on,0,0,0,,0,,,84,127
51346,note_on,0,0,0,,4,,,76,127
51346,note_on,0,0,0,,0,,,72,127
51346,note_on,0,0,0,,7,,,43,127
51346,note_on,0,0,0,,4,,,40,127
51346,note_on,0,0,0,,0,,,36,127
51346,note_on,0,0,0,,0,,,48,127
51630,note_off,284,0,0,,0,,,72,127
51630,note_off,0,0,0,,4,,,76,127
51630,note_off,0,0,0,,0,,,84,127
51630,note_off,0,0,0,,7,,,79,127
51633,note_off,3,0,0,,0,,,48,127
51633,note_off,0,0,0,,0,,,36,127
51633,note_off,0,0,0,,4,,,40,127
51633,note_off,0,0,0,,7,,,43,127
51653,note_on,20,0,0,,0,,,60,127
51653,note_on,0,0,0,,0,,,84,127
51798,note_on,145,0,0,,11,,,70,127
51798,note_on,0,0,0,,4,,,76,127
51937,note_off,139,0,0,,4,,,76,127
51943,note_on,6,0,0,,4,,,76,127
52082,note_off,139,0,0,,4,,,76,127
52085,note_off,3,0,0,,11,,,70,127
52087,note_on,2,0,0,,10,,,69,127
52087,note_on,0,0,0,,5,,,77,127
52226,note_off,139,0,0,,5,,,77,127
52229,note_off,3,0,0,,10,,,69,127
52231,note_on,2,0,0,,7,,,67,127
52231,note_on,0,0,0,,7,,,79,127
52370,note_off,139,0,0,,7,,,79,127
52376,note_on,6,0,0,,7,,,79,127
52515,note_off,139,0,0,,7,,,79,127
52518,note_off,3,0,0,,7,,,67,127
52520,note_on,2,0,0,,5,,,65,127
52520,note_on,0,0,0,,10,,,81,127
52659,note_off,139,0,0,,10,,,81,127
52662,note_off,3,0,0,,5,,,65,127
52664,note_on,2,0,0,,4,,,64,127
52664,note_on,0,0,0,,11,,,82,127
52803,note_off,139,0,0,,11,,,82,127
52809,note_on,6,0,0,,11,,,82,127
52948,note_off,139,0,0,,11,,,82,127
52951,note_off,3,0,0,,4,,,64,127
52953,note_on,2,0,0,,5,,,65,127
52953,note_on,0,0,0,,10,,,81,127
53007,note_off,54,0,0,,0,,,84,127
53007,note_off,0,0,0,,0,,,60,127
53092,note_off,85,0,0,,10,,,81,127
53095,note_off,3,0,0,,5,,,65,127
53115,note_on,20,0,0,,7,,,79,127
53115,note_on,0,0,0,,0,,,84,127
53115,note_on,0,0,0,,0,,,72,127
53115,note_on,0,0,0,,4,,,76,127
53115,note_on,0,0,0,,0,,,36,127
53115,note_on,0,0,0,,4,,,40,127
53115,note_on,0,0,0,,7,,,43,127
53115,note_on,0,0,0,,0,,,48,127
53115,note_on,0,0,0,,2,,,38,127
53224,note_off,109,0,0,,2,,,38,127
53399,note_off,175,0,0,,4,,,76,127
53399,note_off,0,0,0,,0,,,72,127
53399,note_off,0,0,0,,0,,,84,127
53399,note_off,0,0,0,,7,,,79,127
53402,note_off,3,0,0,,0,,,48,127
53402,note_off,0,0,0,,7,,,43,127
53402,note_off,0,0,0,,4,,,40,127
53402,note_off,0,0,0,,0,,,36,127
53440,note_on,38,0,0,,10,,,69,127
53440,note_on,0,0,0,,5,,,89,127
53579,note_off,139,0,0,,5,,,89,127
53582,note_off,3,0,0,,10,,,69,127
53584,note_on,2,0,0,,11,,,70,127
53584,note_on,0,0,0,,5,,,89,127
53723,note_off,139,0,0,,5,,,89,127
53729,note_on,6,0,0,,7,,,79,127
53868,note_off,139,0,0,,7,,,79,127
53871,note_off,3,0,0,,11,,,70,127
53873,note_on,2,0,0,,2,,,74,127
53873,note_on,0,0,0,,2,,,86,127
54012,note_off,139,0,0,,2,,,86,127
54015,note_off,3,0,0,,2,,,74,127
54017,note_on,2,0,0,,0,,,72,127
54017,note_on,0,0,0,,2,,,86,127
54156,note_off,139,0,0,,2,,,86,127
54162,note_on,6,0,0,,4,,,76,127
54301,note_off,139,0,0,,4,,,76,127
54304,note_off,3,0,0,,0,,,72,127
54306,note_on,2,0,0,,10,,,69,127
54306,note_on,0,0,0,,0,,,84,127
54306,note_on,0,0,0,,10,,,81,127
54445,note_off,139,0,0,,10,,,81,127
54445,note_off,0,0,0,,0,,,84,127
54448,note_off,3,0,0,,10,,,69,127
54450,note_on,2,0,0,,11,,,70,127
54450,note_on,0,0,0,,11,,,82,127
54450,note_on,0,0,0,,7,,,79,127
54589,note_off,139,0,0,,7,,,79,127
54589,note_off,0,0,0,,11,,,82,127
54595,note_on,6,0,0,,5,,,77,127
54595,note_on,0,0,0,,10,,,81,127
54734,note_off,139,0,0,,10,,,81,127
54734,note_off,0,0,0,,5,,,77,127
54737,note_off,3,0,0,,11,,,70,127
54739,note_on,2,0,0,,0,,,72,127
54739,note_on,0,0,0,,4,,,76,127
54739,note_on,0,0,0,,7,,,79,127
54878,note_off,139,0,0,,7,,,79,127
54878,note_off,0,0,0,,4,,,76,127
54881,note_off,3,0,0,,0,,,72,127
54883,note_on,2,0,0,,5,,,65,127
54883,note_on,0,0,0,,5,,,77,127
55167,note_off,284,0,0,,5,,,77,127
55170,note_off,3,0,0,,5,,,65,127
55172,note_on,2,0,0,,0,,,72,127
55172,note_on,0,0,0,,0,,,60,127
55172,note_on,0,0,0,,0,,,84,127
55315,note_off,143,0,0,,0,,,72,127
55317,note_on,2,0,0,,11,,,70,127
55317,note_on,0,0,0,,4,,,76,127
55456,note_off,139,0,0,,4,,,76,127
55462,note_on,6,0,0,,4,,,76,127
55601,note_off,139,0,0,,4,,,76,127
55604,note_off,3,0,0,,11,,,70,127
55606,note_on,2,0,0,,10,,,69,127
55606,note_on,0,0,0,,5,,,77,127
55745,note_off,139,0,0,,5,,,77,127
55748,note_off,3,0,0,,10,,,69,127
55750,note_on,2,0,0,,7,,,67,127
55750,note_on,0,0,0,,7,,,79,127
55889,note_off,139,0,0,,7,,,79,127
55895,note_on,6,0,0,,7,,,79,127
56034,note_off,139,0,0,,7,,,79,127
56037,note_off,3,0,0,,7,,,67,127
56039,note_on,2,0,0,,5,,,65,127
56039,note_on,0,0,0,,10,,,81,127
56178,note_off,139,0,0,,10,,,81,127
56181,note_off,3,0,0,,5,,,65,127
56183,note_on,2,0,0,,4,,,64,127
56183,note_on,0,0,0,,11,,,82,127
56322,note_off,139,0,0,,11,,,82,127
56328,note_on,6,0,0,,11,,,82,127
56467,note_off,139,0,0,,11,,,82,127
56470,note_off,3,0,0,,4,,,64,127
56472,note_on,2,0,0,,5,,,65,127
56472,note_on,0,0,0,,10,,,81,127
56526,note_off,54,0,0,,0,,,84,127
56526,note_off,0,0,0,,0,,,60,127
56611,note_off,85,0,0,,10,,,81,127
56614,note_off,3,0,0,,5,,,65,127
56634,note_on,20,0,0,,0,,,84,127
56634,note_on,0,0,0,,0,,,72,127
56634,note_on,0,0,0,,4,,,76,127
56634,note_on,0,0,0,,7,,,79,127
56634,note_on,0,0,0,,0,,,36,127
56634,note_on,0,0,0,,4,,,40,127
56634,note_on,0,0,0,,7,,,43,127
56634,note_on,0,0,0,,0,,,48,127
56918,note_off,284,0,0,,7,,,79,127
56918,note_off,0,0,0,,4,,,76,127
56918,note_off,0,0,0,,0,,,72,127
56918,note_off,0,0,0,,0,,,84,127
56921,note_off,3,0,0,,0,,,48,127
56921,note_off,0,0,0,,7,,,43,127
56921,note_off,0,0,0,,4,,,40,127
56921,note_off,0,0,0,,0,,,36,127
56941,note_on,20,0,0,,0,,,60,127
56941,note_on,0,0,0,,0,,,84,127
57080,note_off,139,0,0,,0,,,84,127
57086,note_on,6,0,0,,11,,,70,127
57086,note_on,0,0,0,,4,,,76,127
57225,note_off,139,0,0,,4,,,76,127
57231,note_on,6,0,0,,4,,,76,127
57370,note_off,139,0,0,,4,,,76,127
57373,note_off,3,0,0,,11,,,70,127
57375,note_on,2,0,0,,10,,,69,127
57375,note_on,0,0,0,,5,,,77,127
57514,note_off,139,0,0,,5,,,77,127
57517,note_off,3,0,0,,10,,,69,127
57519,note_on,2,0,0,,7,,,67,127
57519,note_on,0,0,0,,7,,,79,127
57658,note_off,139,0,0,,7,,,79,127
57664,note_on,6,0,0,,7,,,79,127
57803,note_off,139,0,0,,7,,,79,127
57806,note_off,3,0,0,,7,,,67,127
57808,note_on,2,0,0,,5,,,65,127
57808,note_on,0,0,0,,10,,,81,127
57947,note_off,139,0,0,,10,,,81,127
57950,note_off,3,0,0,,5,,,65,127
57952,note_on,2,0,0,,4,,,64,127
57952,note_on,0,0,0,,11,,,82,127
58091,note_off,139,0,0,,11,,,82,127
58097,note_on,6,0,0,,11,,,82,127
58236,note_off,139,0,0,,11,,,82,127
58239,note_off,3,0,0,,4,,,64,127
58241,note_on,2,0,0,,5,,,65,127
58241,note_on,0,0,0,,10,,,81,127
58295,note_off,54,0,0,,0,,,60,127
58380,note_off,85,0,0,,10,,,81,127
58383,note_off,3,0,0,,5,,,65,127
58421,note_on,38,0,0,,5,,,41,127
58421,note_on,0,0,0,,7,,,43,127
58421,note_on,0,0,0,,0,,,48,127
58421,note_on,0,0,0,,4,,,40,127
58421,note_on,0,0,0,,0,,,36,127
58421,note_on,0,0,0,,0,,,72,127
58421,note_on,0,0,0,,7,,,79,127
58421,note_on,0,0,0,,4,,,76,127
58421,note_on,0,0,0,,0,,,84,127
58421,note_on,0,0,0,,2,,,38,127
58421,note_on,0,0,0,,10,,,45,127
58421,note_on,0,0,0,,12,,,47,127
58851,note_off,430,0,0,,12,,,47,127
58851,note_off,0,0,0,,10,,,45,127
58851,note_off,0,0,0,,2,,,38,127
58851,note_off,0,0,0,,0,,,84,127
58851,note_off,0,0,0,,4,,,76,127
58851,note_off,0,0,0,,7,,,79,127
58851,note_off,0,0,0,,0,,,72,127
58851,note_off,0,0,0,,5,,,41,127
58964,note_off,113,0,0,,0,,,36,127
58964,note_off,0,0,0,,4,,,40,127
58964,note_off,0,0,0,,0,,,48,127
58964,note_off,0,0,0,,7,,,43,127
59091,note_on,127,0,0,,10,,,69,127
59091,note_on,0,0,0,,5,,,89,127
59230,note_off,139,0,0,,5,,,89,127
59233,note_off,3,0,0,,10,,,69,127
59235,note_on,2,0,0,,11,,,70,127
59235,note_on,0,0,0,,5,,,89,127
59374,note_off,139,0,0,,5,,,89,127
59380,note_on,6,0,0,,7,,,79,127
59519,note_off,139,0,0,,7,,,79,127
59522,note_off,3,0,0,,11,,,70,127
59524,note_on,2,0,0,,2,,,74,127
59524,note_on,0,0,0,,2,,,86,127
59663,note_off,139,0,0,,2,,,86,127
59666,note_off,3,0,0,,2,,,74,127
59668,note_on,2,0,0,,0,,,72,127
59668,note_on,0,0,0,,2,,,86,127
59807,note_off,139,0,0,,2,,,86,127
59813,note_on,6,0,0,,4,,,76,127
59952,note_off,139,0,0,,4,,,76,127
59955,note_off,3,0,0,,0,,,72,127
59957,note_on,2,0,0,,10,,,69,127
59957,note_on,0,0,0,,0,,,84,127
59957,note_on,0,0,0,,10,,,81,127
60096,note_off,139,0,0,,10,,,81,127
60096,note_off,0,0,0,,0,,,84,127
60099,note_off,3,0,0,,10,,,69,127
60101,note_on,2,0,0,,11,,,70,127
60101,note_on,0,0,0,,11,,,82,127
60101,note_on,0,0,0,,7,,,79,127
60240,note_off,139,0,0,,7,,,79,127
60240,note_off,0,0,0,,11,,,82,127
60246,note_on,6,0,0,,10,,,81,127
60246,note_on,0,0,0,,5,,,77,127
60385,note_off,139,0,0,,5,,,77,127
60385,note_off,0,0,0,,10,,,81,127
60388,note_off,3,0,0,,11,,,70,127
60390,note_on,2,0,0,,0,,,72,127
60390,note_on,0,0,0,,4,,,76,127
60390,note_on,0,0,0,,7,,,79,127
60529,note_off,139,0,0,,7,,,79,127
60529,note_off,0,0,0,,4,,,76,127
60532,note_off,3,0,0,,0,,,72,127
60534,note_on,2,0,0,,5,,,65,127
60534,note_on,0,0,0,,5,,,77,127
60818,note_off,284,0,0,,5,,,77,127
60821,note_off,3,0,0,,5,,,65,127
60823,note_on,2,0,0,,10,,,57,127
60823,note_on,0,0,0,,5,,,77,127
60962,note_off,139,0,0,,5,,,77,127
60965,note_off,3,0,0,,10,,,57,127
60967,note_on,2,0,0,,11,,,58,127
60967,note_on,0,0,0,,5,,,77,127
61106,note_off,139,0,0,,5,,,77,127
61112,note_on,6,0,0,,7,,,67,127
61251,note_off,139,0,0,,7,,,67,127
61254,note_off,3,0,0,,11,,,58,127
61256,note_on,2,0,0,,2,,,62,127
61256,note_on,0,0,0,,2,,,74,127
61395,note_off,139,0,0,,2,,,74,127
61398,note_off,3,0,0,,2,,,62,127
61400,note_on,2,0,0,,0,,,60,127
61400,note_on,0,0,0,,2,,,74,127
61539,note_off,139,0,0,,2,,,74,127
61545,note_on,6,0,0,,4,,,64,127
61684,note_off,139,0,0,,4,,,64,127
61687,note_off,3,0,0,,0,,,60,127
61689,note_on,2,0,0,,10,,,57,127
61689,note_on,0,0,0,,0,,,72,127
61689,note_on,0,0,0,,10,,,69,127
61828,note_off,139,0,0,,10,,,69,127
61828,note_off,0,0,0,,0,,,72,127
61831,note_off,3,0,0,,10,,,57,127
61833,note_on,2,0,0,,11,,,58,127
61833,note_on,0,0,0,,11,,,70,127
61833,note_on,0,0,0,,7,,,67,127
61972,note_off,139,0,0,,7,,,67,127
61972,note_off,0,0,0,,11,,,70,127
61978,note_on,6,0,0,,5,,,65,127
61978,note_on,0,0,0,,10,,,69,127
62117,note_off,139,0,0,,10,,,69,127
62117,note_off,0,0,0,,5,,,65,127
62120,note_off,3,0,0,,11,,,58,127
62122,note_on,2,0,0,,0,,,60,127
62122,note_on,0,0,0,,4,,,64,127
62122,note_on,0,0,0,,7,,,67,127
62261,note_off,139,0,0,,4,,,64,127
62263,note_off,2,0,0,,7,,,67,127
62264,note_off,1,0,0,,0,,,60,127
62275,note_on,11,0,0,,5,,,53,127
62275,note_on,0,0,0,,5,,,65,127
62275,note_on,0,0,0,,10,,,69,127
62414,note_off,139,0,0,,10,,,69,127
62420,note_on,6,0,0,,0,,,72,127
62563,note_off,143,0,0,,5,,,53,127
62565,note_on,2,0,0,,0,,,48,127
62565,note_on,0,0,0,,0,,,36,127
62704,note_off,139,0,0,,0,,,72,127
62705,note_off,1,0,0,,5,,,65,127
62707,note_off,2,0,0,,0,,,36,127
62707,note_off,0,0,0,,0,,,48,127
62709,note_on,2,0,0,,5,,,53,127
62709,note_on,0,0,0,,5,,,41,127
62709,note_on,0,0,0,,5,,,65,127
62709,note_on,0,0,0,,10,,,69,127
62709,note_on,0,0,0,,11,,,70,127
62848,note_off,139,0,0,,11,,,70,127
62848,note_off,0,0,0,,10,,,69,127
62854,note_on,6,0,0,,0,,,72,127
62997,note_off,143,0,0,,5,,,41,127
62997,note_off,0,0,0,,5,,,53,127
62999,note_on,2,0,0,,0,,,48,127
62999,note_on,0,0,0,,0,,,36,127
63138,note_off,139,0,0,,0,,,72,127
63139,note_off,1,0,0,,5,,,65,127
63141,note_off,2,0,0,,0,,,36,127
63141,note_off,0,0,0,,0,,,48,127
63143,note_on,2,0,0,,5,,,53,127
63143,note_on,0,0,0,,5,,,41,127
63143,note_on,0,0,0,,11,,,70,127
63143,note_on,0,0,0,,5,,,65,127
63143,note_on,0,0,0,,10,,,69,127
63282,note_off,139,0,0,,10,,,69,127
63282,note_off,0,0,0,,11,,,70,127
63288,note_on,6,0,0,,0,,,72,127
63431,note_off,143,0,0,,5,,,41,127
63431,note_off,0,0,0,,5,,,53,127
63433,note_on,2,0,0,,0,,,48,127
63433,note_on,0,0,0,,0,,,36,127
63572,note_off,139,0,0,,0,,,72,127
63573,note_off,1,0,0,,5,,,65,127
63575,note_off,2,0,0,,0,,,36,127
63575,note_off,0,0,0,,0,,,48,127
63577,note_on,2,0,0,,5,,,53,127
63577,note_on,0,0,0,,5,,,41,127
63577,note_on,0,0,0,,11,,,70,127
63577,note_on,0,0,0,,10,,,69,127
63577,note_on,0,0,0,,5,,,65,127
63716,note_off,139,0,0,,5,,,65,127
63716,note_off,0,0,0,,10,,,69,127
63716,note_off,0,0,0,,11,,,70,127
63722,note_on,6,0,0,,4,,,76,127
63722,note_on,0,0,0,,7,,,67,127
63865,note_off,143,0,0,,5,,,41,127
63865,note_off,0,0,0,,5,,,53,127
63867,note_on,2,0,0,,0,,,36,127
63867,note_on,0,0,0,,0,,,48,127
64006,note_off,139,0,0,,7,,,67,127
64006,note_off,0,0,0,,4,,,76,127
64009,note_off,3,0,0,,0,,,48,127
64009,note_off,0,0,0,,0,,,36,127
64029,note_on,20,0,0,,5,,,41,127
64029,note_on,0,0,0,,5,,,53,127
64029,note_on,0,0,0,,5,,,65,127
64029,note_on,0,0,0,,5,,,77,127
65942,note_off,1913,0,0,,5,,,77,127
65942,note_off,0,0,0,,5,,,65,127
65942,note_off,0,0,0,,5,,,53,127
65942,note_off,0,0,0,,5,,,41,127
70656,end_of_track,4714,1,0,,,,,,
