tick,type,time,meta,track,program,channel,pitch,tempo,note,velocity
0,copyright,0,1,0,,,,,,
0,program_change,0,0,0,6,0,,,,
0,pitchwheel,0,0,0,,0,0,,,
0,program_change,0,0,0,6,1,,,,
0,pitchwheel,0,0,0,,1,-590,,,
0,program_change,0,0,0,6,2,,,,
0,pitchwheel,0,0,0,,2,-272,,,
0,program_change,0,0,0,6,3,,,,
0,pitchwheel,0,0,0,,3,-353,,,
0,program_change,0,0,0,6,4,,,,
0,pitchwheel,0,0,0,,4,-560,,,
0,program_change,0,0,0,6,5,,,,
0,pitchwheel,0,0,0,,5,-80,,,
0,program_change,0,0,0,6,6,,,,
0,pitchwheel,0,0,0,,6,-625,,,
0,program_change,0,0,0,6,7,,,,
0,pitchwheel,0,0,0,,7,-130,,,
0,program_change,0,0,0,6,8,,,,
0,pitchwheel,0,0,0,,8,-512,,,
0,program_change,0,0,0,6,10,,,,
0,pitchwheel,0,0,0,,10,-464,,,
0,program_change,0,0,0,6,11,,,,
0,pitchwheel,0,0,0,,11,-208,,,
0,program_change,0,0,0,6,12,,,,
0,pitchwheel,0,0,0,,12,-553,,,
0,set_tempo,0,1,0,,,,500000,,
128,note_on,128,0,0,,2,,,74,127
212,note_off,84,0,0,,2,,,74,127
213,note_on,1,0,0,,0,,,72,127
297,note_off,84,0,0,,0,,,72,127
298,note_on,1,0,0,,2,,,74,127
382,note_off,84,0,0,,2,,,74,127
383,note_on,1,0,0,,0,,,72,127
467,note_off,84,0,0,,0,,,72,127
468,note_on,1,0,0,,12,,,71,127
552,note_off,84,0,0,,12,,,71,127
553,note_on,1,0,0,,0,,,72,127
637,note_off,84,0,0,,0,,,72,127
638,note_on,1,0,0,,8,,,80,127
722,note_off,84,0,0,,8,,,80,127
723,note_on,1,0,0,,7,,,79,127
807,note_off,84,0,0,,7,,,79,127
808,note_on,1,0,0,,8,,,80,127
892,note_off,84,0,0,,8,,,80,127
893,note_on,1,0,0,,7,,,79,127
977,note_off,84,0,0,,7,,,79,127
978,note_on,1,0,0,,5,,,77,127
1062,note_off,84,0,0,,5,,,77,127
1063,note_on,1,0,0,,7,,,79,127
1147,note_off,84,0,0,,7,,,79,127
1148,note_on,1,0,0,,0,,,72,127
1403,note_off,255,0,0,,0,,,72,127
1404,note_on,1,0,0,,0,,,84,127
1659,note_off,255,0,0,,0,,,84,127
1660,note_on,1,0,0,,8,,,80,127
1915,note_off,255,0,0,,8,,,80,127
1916,note_on,1,0,0,,5,,,77,127
2171,note_off,255,0,0,,5,,,77,127
2172,note_on,1,0,0,,2,,,74,127
2427,note_off,255,0,0,,2,,,74,127
2428,note_on,1,0,0,,12,,,71,127
2683,note_off,255,0,0,,12,,,71,127
2684,note_on,1,0,0,,8,,,68,127
2939,note_off,255,0,0,,8,,,68,127
2940,note_on,1,0,0,,5,,,65,127
3195,note_off,255,0,0,,5,,,65,127
3196,note_on,1,0,0,,0,,,72,127
3196,note_on,0,0,0,,3,,,63,127
3451,note_off,255,0,0,,3,,,63,127
3451,note_off,0,0,0,,0,,,72,127
3452,note_on,1,0,0,,0,,,72,127
3452,note_on,0,0,0,,2,,,62,127
3579,note_off,127,0,0,,2,,,62,127
3580,note_on,1,0,0,,0,,,60,127
3707,note_off,127,0,0,,0,,,60,127
3708,note_on,1,0,0,,2,,,62,127
3959,note_off,251,0,0,,0,,,72,127
3964,note_on,5,0,0,,12,,,71,127
4215,note_off,251,0,0,,2,,,62,127
4219,note_off,4,0,0,,12,,,71,127
4220,note_on,1,0,0,,2,,,62,127
4220,note_on,0,0,0,,0,,,72,127
4304,note_off,84,0,0,,2,,,62,127
4305,note_on,1,0,0,,0,,,60,127
4389,note_off,84,0,0,,0,,,60,127
4390,note_on,1,0,0,,2,,,62,127
4474,note_off,84,0,0,,2,,,62,127
4475,note_on,1,0,0,,0,,,60,127
4559,note_off,84,0,0,,0,,,60,127
4560,note_on,1,0,0,,12,,,59,127
4644,note_off,84,0,0,,12,,,59,127
4645,note_on,1,0,0,,0,,,60,127
4725,note_off,80,0,0,,0,,,72,127
4729,note_off,4,0,0,,0,,,60,127
4730,note_on,1,0,0,,8,,,68,127
4814,note_off,84,0,0,,8,,,68,127
4815,note_on,1,0,0,,7,,,67,127
4899,note_off,84,0,0,,7,,,67,127
4900,note_on,1,0,0,,8,,,68,127
4984,note_off,84,0,0,,8,,,68,127
4985,note_on,1,0,0,,7,,,67,127
5069,note_off,84,0,0,,7,,,67,127
5070,note_on,1,0,0,,5,,,65,127
5154,note_off,84,0,0,,5,,,65,127
5155,note_on,1,0,0,,7,,,67,127
5239,note_off,84,0,0,,7,,,67,127
5240,note_on,1,0,0,,0,,,60,127
5495,note_off,255,0,0,,0,,,60,127
5496,note_on,1,0,0,,0,,,72,127
5496,note_on,0,0,0,,3,,,75,127
5751,note_off,255,0,0,,0,,,72,127
5752,note_on,1,0,0,,8,,,68,127
5976,note_off,224,0,0,,3,,,75,127
6007,note_off,31,0,0,,8,,,68,127
6008,note_on,1,0,0,,5,,,65,127
6008,note_on,0,0,0,,5,,,77,127
6263,note_off,255,0,0,,5,,,65,127
6264,note_on,1,0,0,,2,,,62,127
6495,note_off,231,0,0,,5,,,77,127
6519,note_off,24,0,0,,2,,,62,127
6520,note_on,1,0,0,,12,,,59,127
6520,note_on,0,0,0,,7,,,79,127
6775,note_off,255,0,0,,12,,,59,127
6776,note_on,1,0,0,,8,,,56,127
7020,note_off,244,0,0,,7,,,79,127
7031,note_off,11,0,0,,8,,,56,127
7032,note_on,1,0,0,,5,,,53,127
7032,note_on,0,0,0,,12,,,71,127
7287,note_off,255,0,0,,12,,,71,127
7287,note_off,0,0,0,,5,,,53,127
7288,note_on,1,0,0,,3,,,51,127
7288,note_on,0,0,0,,0,,,72,127
7543,note_off,255,0,0,,3,,,51,127
7544,note_on,1,0,0,,2,,,50,127
7544,note_on,0,0,0,,0,,,60,127
7671,note_off,127,0,0,,2,,,50,127
7672,note_on,1,0,0,,0,,,48,127
7799,note_off,127,0,0,,0,,,48,127
7799,note_off,0,0,0,,0,,,72,127
7800,note_on,1,0,0,,3,,,75,127
7800,note_on,0,0,0,,2,,,50,127
7863,note_off,63,0,0,,3,,,75,127
7864,note_on,1,0,0,,2,,,74,127
7927,note_off,63,0,0,,2,,,74,127
7928,note_on,1,0,0,,3,,,75,127
7991,note_off,63,0,0,,3,,,75,127
7992,note_on,1,0,0,,2,,,74,127
8051,note_off,59,0,0,,0,,,60,127
8055,note_off,4,0,0,,2,,,74,127
8056,note_on,1,0,0,,3,,,75,127
8056,note_on,0,0,0,,12,,,59,127
8119,note_off,63,0,0,,3,,,75,127
8120,note_on,1,0,0,,2,,,74,127
8183,note_off,63,0,0,,2,,,74,127
8184,note_on,1,0,0,,0,,,72,127
8247,note_off,63,0,0,,0,,,72,127
8248,note_on,1,0,0,,2,,,74,127
8307,note_off,59,0,0,,2,,,50,127
8311,note_off,4,0,0,,2,,,74,127
8311,note_off,0,0,0,,12,,,59,127
8312,note_on,1,0,0,,0,,,60,127
8312,note_on,0,0,0,,0,,,48,127
8312,note_on,0,0,0,,3,,,75,127
8567,note_off,255,0,0,,3,,,75,127
8568,note_on,1,0,0,,7,,,67,127
8568,note_on,0,0,0,,3,,,75,127
8823,note_off,255,0,0,,3,,,75,127
8823,note_off,0,0,0,,7,,,67,127
8823,note_off,0,0,0,,0,,,48,127
8824,note_on,1,0,0,,5,,,53,127
8824,note_on,0,0,0,,8,,,68,127
8824,note_on,0,0,0,,5,,,77,127
8951,note_off,127,0,0,,5,,,77,127
8952,note_on,1,0,0,,3,,,75,127
9079,note_off,127,0,0,,3,,,75,127
9079,note_off,0,0,0,,0,,,60,127
9080,note_on,1,0,0,,5,,,65,127
9080,note_on,0,0,0,,2,,,74,127
9207,note_off,127,0,0,,2,,,74,127
9208,note_on,1,0,0,,0,,,72,127
9331,note_off,123,0,0,,8,,,68,127
9331,note_off,0,0,0,,5,,,53,127
9335,note_off,4,0,0,,0,,,72,127
9336,note_on,1,0,0,,7,,,55,127
9336,note_on,0,0,0,,12,,,71,127
9336,note_on,0,0,0,,7,,,67,127
9587,note_off,251,0,0,,5,,,65,127
9591,note_off,4,0,0,,12,,,71,127
9592,note_on,1,0,0,,3,,,63,127
9592,note_on,0,0,0,,0,,,72,127
9847,note_off,255,0,0,,0,,,72,127
9847,note_off,0,0,0,,3,,,63,127
9848,note_on,1,0,0,,2,,,62,127
9848,note_on,0,0,0,,3,,,75,127
9932,note_off,84,0,0,,3,,,75,127
9933,note_on,1,0,0,,2,,,74,127
10017,note_off,84,0,0,,2,,,74,127
10018,note_on,1,0,0,,3,,,75,127
10102,note_off,84,0,0,,3,,,75,127
10103,note_on,1,0,0,,2,,,74,127
10187,note_off,84,0,0,,2,,,74,127
10188,note_on,1,0,0,,3,,,75,127
10272,note_off,84,0,0,,3,,,75,127
10273,note_on,1,0,0,,5,,,77,127
10357,note_off,84,0,0,,5,,,77,127
10357,note_off,0,0,0,,2,,,62,127
10357,note_off,0,0,0,,7,,,67,127
10357,note_off,0,0,0,,7,,,55,127
10358,note_on,1,0,0,,0,,,48,127
10358,note_on,0,0,0,,0,,,60,127
10358,note_on,0,0,0,,3,,,75,127
10358,note_on,0,0,0,,7,,,67,127
10613,note_off,255,0,0,,7,,,67,127
10613,note_off,0,0,0,,3,,,75,127
10614,note_on,1,0,0,,3,,,75,127
10614,note_on,0,0,0,,7,,,67,127
10869,note_off,255,0,0,,7,,,67,127
10869,note_off,0,0,0,,3,,,75,127
10869,note_off,0,0,0,,0,,,48,127
10870,note_on,1,0,0,,5,,,53,127
10870,note_on,0,0,0,,5,,,77,127
10870,note_on,0,0,0,,8,,,68,127
10997,note_off,127,0,0,,5,,,77,127
10998,note_on,1,0,0,,3,,,75,127
11125,note_off,127,0,0,,3,,,75,127
11125,note_off,0,0,0,,0,,,60,127
11126,note_on,1,0,0,,5,,,65,127
11126,note_on,0,0,0,,2,,,74,127
11253,note_off,127,0,0,,2,,,74,127
11254,note_on,1,0,0,,0,,,72,127
11377,note_off,123,0,0,,8,,,68,127
11377,note_off,0,0,0,,5,,,53,127
11381,note_off,4,0,0,,0,,,72,127
11382,note_on,1,0,0,,7,,,55,127
11382,note_on,0,0,0,,12,,,71,127
11382,note_on,0,0,0,,7,,,67,127
11633,note_off,251,0,0,,5,,,65,127
11637,note_off,4,0,0,,12,,,71,127
11638,note_on,1,0,0,,3,,,63,127
11638,note_on,0,0,0,,0,,,72,127
11893,note_off,255,0,0,,0,,,72,127
11893,note_off,0,0,0,,3,,,63,127
11894,note_on,1,0,0,,2,,,62,127
11894,note_on,0,0,0,,0,,,72,127
12149,note_off,255,0,0,,0,,,72,127
12150,note_on,1,0,0,,12,,,71,127
12202,note_off,52,0,0,,12,,,71,127
12203,note_on,1,0,0,,0,,,72,127
12255,note_off,52,0,0,,0,,,72,127
12256,note_on,1,0,0,,12,,,71,127
12308,note_off,52,0,0,,12,,,71,127
12309,note_on,1,0,0,,10,,,69,127
12361,note_off,52,0,0,,10,,,69,127
12362,note_on,1,0,0,,12,,,71,127
12403,note_off,41,0,0,,12,,,71,127
12403,note_off,0,0,0,,2,,,62,127
12403,note_off,0,0,0,,7,,,67,127
12403,note_off,0,0,0,,7,,,55,127
12404,note_on,1,0,0,,0,,,60,127
12404,note_on,0,0,0,,0,,,48,127
12404,note_on,0,0,0,,0,,,72,127
12659,note_off,255,0,0,,0,,,72,127
12660,note_on,1,0,0,,7,,,67,127
12788,note_off,128,0,0,,0,,,48,127
12788,note_off,0,0,0,,0,,,60,127
12915,note_off,127,0,0,,7,,,67,127
12916,note_on,1,0,0,,8,,,68,127
13171,note_off,255,0,0,,8,,,68,127
13172,note_on,1,0,0,,3,,,63,127
13172,note_on,0,0,0,,0,,,60,127
13172,note_on,0,0,0,,10,,,69,127
13225,note_off,53,0,0,,10,,,69,127
13225,note_on,0,0,0,,11,,,70,127
13277,note_off,52,0,0,,11,,,70,127
13278,note_on,1,0,0,,10,,,69,127
13330,note_off,52,0,0,,10,,,69,127
13331,note_on,1,0,0,,7,,,67,127
13383,note_off,52,0,0,,7,,,67,127
13384,note_on,1,0,0,,10,,,69,127
13425,note_off,41,0,0,,10,,,69,127
13425,note_off,0,0,0,,0,,,60,127
13425,note_off,0,0,0,,3,,,63,127
13426,note_on,1,0,0,,2,,,62,127
13426,note_on,0,0,0,,5,,,65,127
13426,note_on,0,0,0,,11,,,70,127
13681,note_off,255,0,0,,11,,,70,127
13681,note_off,0,0,0,,5,,,65,127
13681,note_off,0,0,0,,2,,,62,127
13682,note_on,1,0,0,,0,,,60,127
13682,note_on,0,0,0,,3,,,63,127
13682,note_on,0,0,0,,0,,,72,127
13735,note_on,53,0,0,,2,,,74,127
13747,note_off,12,0,0,,0,,,72,127
13787,note_off,40,0,0,,2,,,74,127
13788,note_on,1,0,0,,0,,,72,127
13840,note_off,52,0,0,,0,,,72,127
13841,note_on,1,0,0,,11,,,70,127
13893,note_off,52,0,0,,11,,,70,127
13894,note_on,1,0,0,,0,,,72,127
13935,note_off,41,0,0,,0,,,72,127
13935,note_off,0,0,0,,3,,,63,127
13935,note_off,0,0,0,,0,,,60,127
13936,note_on,1,0,0,,11,,,58,127
13936,note_on,0,0,0,,2,,,62,127
13936,note_on,0,0,0,,2,,,74,127
14191,note_off,255,0,0,,2,,,74,127
14191,note_off,0,0,0,,2,,,62,127
14191,note_off,0,0,0,,11,,,58,127
14192,note_on,1,0,0,,0,,,60,127
14192,note_on,0,0,0,,8,,,56,127
14192,note_on,0,0,0,,3,,,75,127
14245,note_on,53,0,0,,5,,,77,127
14256,note_off,11,0,0,,3,,,75,127
14297,note_off,41,0,0,,5,,,77,127
14298,note_on,1,0,0,,3,,,75,127
14350,note_off,52,0,0,,3,,,75,127
14351,note_on,1,0,0,,2,,,74,127
14403,note_off,52,0,0,,2,,,74,127
14404,note_on,1,0,0,,3,,,75,127
14445,note_off,41,0,0,,3,,,75,127
14445,note_off,0,0,0,,8,,,56,127
14445,note_off,0,0,0,,0,,,60,127
14446,note_on,1,0,0,,11,,,58,127
14446,note_on,0,0,0,,2,,,62,127
14446,note_on,0,0,0,,2,,,74,127
14701,note_off,255,0,0,,2,,,74,127
14702,note_on,1,0,0,,11,,,70,127
14953,note_off,251,0,0,,2,,,62,127
14957,note_off,4,0,0,,11,,,70,127
14958,note_on,1,0,0,,0,,,72,127
15213,note_off,255,0,0,,0,,,72,127
15214,note_on,1,0,0,,5,,,65,127
15214,note_on,0,0,0,,2,,,74,127
15267,note_on,53,0,0,,3,,,75,127
15275,note_off,8,0,0,,2,,,74,127
15319,note_off,44,0,0,,3,,,75,127
15320,note_on,1,0,0,,2,,,74,127
15372,note_off,52,0,0,,2,,,74,127
15373,note_on,1,0,0,,0,,,72,127
15425,note_off,52,0,0,,0,,,72,127
15426,note_on,1,0,0,,2,,,74,127
15467,note_off,41,0,0,,2,,,74,127
15467,note_off,0,0,0,,5,,,65,127
15468,note_on,1,0,0,,3,,,63,127
15468,note_on,0,0,0,,3,,,75,127
15723,note_off,255,0,0,,3,,,75,127
15723,note_off,0,0,0,,3,,,63,127
15724,note_on,1,0,0,,2,,,62,127
15724,note_on,0,0,0,,5,,,77,127
15777,note_on,53,0,0,,7,,,79,127
15780,note_off,3,0,0,,5,,,77,127
15829,note_off,49,0,0,,7,,,79,127
15830,note_on,1,0,0,,5,,,77,127
15882,note_off,52,0,0,,5,,,77,127
15883,note_on,1,0,0,,3,,,75,127
15935,note_off,52,0,0,,3,,,75,127
15936,note_on,1,0,0,,5,,,77,127
15977,note_off,41,0,0,,5,,,77,127
15977,note_off,0,0,0,,2,,,62,127
15978,note_on,1,0,0,,3,,,63,127
15978,note_on,0,0,0,,7,,,79,127
16233,note_off,255,0,0,,7,,,79,127
16233,note_off,0,0,0,,3,,,63,127
16234,note_on,1,0,0,,2,,,62,127
16234,note_on,0,0,0,,8,,,80,127
16287,note_on,53,0,0,,11,,,82,127
16304,note_off,17,0,0,,8,,,80,127
16339,note_off,35,0,0,,11,,,82,127
16340,note_on,1,0,0,,8,,,80,127
16392,note_off,52,0,0,,8,,,80,127
16393,note_on,1,0,0,,7,,,79,127
16445,note_off,52,0,0,,7,,,79,127
16446,note_on,1,0,0,,8,,,80,127
16481,note_off,35,0,0,,11,,,58,127
16488,note_off,7,0,0,,8,,,80,127
16488,note_off,0,0,0,,2,,,62,127
16489,note_on,1,0,0,,3,,,63,127
16489,note_on,0,0,0,,7,,,67,127
16489,note_on,0,0,0,,7,,,79,127
16744,note_off,255,0,0,,7,,,79,127
16745,note_on,1,0,0,,11,,,70,127
17000,note_off,255,0,0,,11,,,70,127
17001,note_on,1,0,0,,0,,,72,127
17256,note_off,255,0,0,,0,,,72,127
17256,note_off,0,0,0,,7,,,67,127
17256,note_off,0,0,0,,3,,,63,127
17257,note_on,1,0,0,,2,,,62,127
17257,note_on,0,0,0,,5,,,65,127
17257,note_on,0,0,0,,2,,,74,127
17310,note_on,53,0,0,,3,,,75,127
17318,note_off,8,0,0,,2,,,74,127
17362,note_off,44,0,0,,3,,,75,127
17363,note_on,1,0,0,,2,,,74,127
17415,note_off,52,0,0,,2,,,74,127
17416,note_on,1,0,0,,0,,,72,127
17468,note_off,52,0,0,,0,,,72,127
17469,note_on,1,0,0,,2,,,74,127
17510,note_off,41,0,0,,2,,,74,127
17510,note_off,0,0,0,,5,,,65,127
17510,note_off,0,0,0,,2,,,62,127
17511,note_on,1,0,0,,0,,,60,127
17511,note_on,0,0,0,,3,,,63,127
17511,note_on,0,0,0,,3,,,75,127
17766,note_off,255,0,0,,3,,,75,127
17766,note_off,0,0,0,,3,,,63,127
17766,note_off,0,0,0,,0,,,60,127
17767,note_on,1,0,0,,11,,,58,127
17767,note_on,0,0,0,,2,,,62,127
17767,note_on,0,0,0,,0,,,84,127
18022,note_off,255,0,0,,2,,,62,127
18022,note_off,0,0,0,,11,,,58,127
18023,note_on,1,0,0,,0,,,60,127
18023,note_on,0,0,0,,10,,,57,127
18278,note_off,255,0,0,,10,,,57,127
18279,note_on,1,0,0,,5,,,53,127
18279,note_on,0,0,0,,0,,,72,127
18530,note_off,251,0,0,,0,,,60,127
18534,note_off,4,0,0,,0,,,72,127
18534,note_off,0,0,0,,5,,,53,127
18535,note_on,1,0,0,,11,,,58,127
18535,note_on,0,0,0,,2,,,62,127
18535,note_on,0,0,0,,2,,,74,127
18790,note_off,255,0,0,,11,,,58,127
18790,note_off,0,0,0,,0,,,84,127
18791,note_on,1,0,0,,10,,,57,127
18791,note_on,0,0,0,,10,,,81,127
19046,note_off,255,0,0,,10,,,81,127
19046,note_off,0,0,0,,10,,,57,127
19047,note_on,1,0,0,,7,,,55,127
19047,note_on,0,0,0,,11,,,82,127
19302,note_off,255,0,0,,7,,,55,127
19302,note_off,0,0,0,,2,,,74,127
19303,note_on,1,0,0,,3,,,51,127
19303,note_on,0,0,0,,11,,,70,127
19558,note_off,255,0,0,,11,,,70,127
19558,note_off,0,0,0,,3,,,51,127
19558,note_off,0,0,0,,2,,,62,127
19559,note_on,1,0,0,,0,,,60,127
19559,note_on,0,0,0,,10,,,57,127
19559,note_on,0,0,0,,0,,,72,127
19814,note_off,255,0,0,,10,,,57,127
19814,note_off,0,0,0,,11,,,82,127
19815,note_on,1,0,0,,7,,,55,127
19815,note_on,0,0,0,,7,,,79,127
20070,note_off,255,0,0,,7,,,79,127
20070,note_off,0,0,0,,7,,,55,127
20071,note_on,1,0,0,,6,,,54,127
20071,note_on,0,0,0,,10,,,81,127
20326,note_off,255,0,0,,6,,,54,127
20326,note_off,0,0,0,,0,,,72,127
20327,note_on,1,0,0,,2,,,50,127
20327,note_on,0,0,0,,10,,,69,127
20582,note_off,255,0,0,,10,,,69,127
20582,note_off,0,0,0,,2,,,50,127
20582,note_off,0,0,0,,0,,,60,127
20583,note_on,1,0,0,,7,,,55,127
20583,note_on,0,0,0,,11,,,58,127
20583,note_on,0,0,0,,11,,,70,127
20838,note_off,255,0,0,,7,,,55,127
20838,note_off,0,0,0,,10,,,81,127
20839,note_on,1,0,0,,10,,,57,127
20839,note_on,0,0,0,,6,,,78,127
20967,note_off,128,0,0,,11,,,58,127
21090,note_off,123,0,0,,11,,,70,127
21094,note_off,4,0,0,,6,,,78,127
21094,note_off,0,0,0,,10,,,57,127
21095,note_on,1,0,0,,11,,,58,127
21095,note_on,0,0,0,,7,,,79,127
21350,note_off,255,0,0,,7,,,79,127
21350,note_off,0,0,0,,11,,,58,127
21351,note_on,1,0,0,,7,,,55,127
21351,note_on,0,0,0,,2,,,74,127
21606,note_off,255,0,0,,2,,,74,127
21606,note_off,0,0,0,,7,,,55,127
21607,note_on,1,0,0,,0,,,48,127
21607,note_on,0,0,0,,0,,,60,127
21607,note_on,0,0,0,,5,,,77,127
21691,note_off,84,0,0,,5,,,77,127
21692,note_on,1,0,0,,3,,,75,127
21776,note_off,84,0,0,,3,,,75,127
21777,note_on,1,0,0,,5,,,77,127
21861,note_off,84,0,0,,5,,,77,127
21861,note_off,0,0,0,,0,,,48,127
21862,note_on,1,0,0,,2,,,50,127
21862,note_on,0,0,0,,3,,,75,127
21989,note_off,127,0,0,,3,,,75,127
21990,note_on,1,0,0,,2,,,74,127
22117,note_off,127,0,0,,2,,,74,127
22117,note_off,0,0,0,,2,,,50,127
22118,note_on,1,0,0,,3,,,51,127
22118,note_on,0,0,0,,0,,,72,127
22245,note_off,127,0,0,,0,,,72,127
22246,note_on,1,0,0,,11,,,70,127
22373,note_off,127,0,0,,11,,,70,127
22373,note_off,0,0,0,,3,,,51,127
22374,note_on,1,0,0,,0,,,48,127
22374,note_on,0,0,0,,10,,,69,127
22501,note_off,127,0,0,,10,,,69,127
22502,note_on,1,0,0,,7,,,67,127
22629,note_off,127,0,0,,7,,,67,127
22629,note_off,0,0,0,,0,,,48,127
22629,note_off,0,0,0,,0,,,60,127
22630,note_on,1,0,0,,2,,,50,127
22630,note_on,0,0,0,,7,,,67,127
22693,note_off,63,0,0,,7,,,67,127
22694,note_on,1,0,0,,6,,,66,127
22757,note_off,63,0,0,,6,,,66,127
22758,note_on,1,0,0,,7,,,67,127
22821,note_off,63,0,0,,7,,,67,127
22822,note_on,1,0,0,,6,,,66,127
22885,note_off,63,0,0,,6,,,66,127
22886,note_on,1,0,0,,2,,,62,127
23141,note_off,255,0,0,,2,,,62,127
23141,note_off,0,0,0,,2,,,50,127
23142,note_on,1,0,0,,10,,,45,127
23142,note_on,0,0,0,,0,,,72,127
23397,note_off,255,0,0,,0,,,72,127
23398,note_on,1,0,0,,0,,,72,127
23482,note_off,84,0,0,,0,,,72,127
23483,note_on,1,0,0,,11,,,70,127
23567,note_off,84,0,0,,11,,,70,127
23568,note_on,1,0,0,,10,,,69,127
23652,note_off,84,0,0,,10,,,69,127
23652,note_off,0,0,0,,10,,,45,127
23653,note_on,1,0,0,,11,,,46,127
23653,note_on,0,0,0,,2,,,74,127
23908,note_off,255,0,0,,2,,,74,127
23909,note_on,1,0,0,,7,,,67,127
24164,note_off,255,0,0,,7,,,67,127
24164,note_off,0,0,0,,11,,,46,127
24165,note_on,1,0,0,,12,,,47,127
24165,note_on,0,0,0,,5,,,77,127
24420,note_off,255,0,0,,5,,,77,127
24421,note_on,1,0,0,,5,,,77,127
24505,note_off,84,0,0,,5,,,77,127
24506,note_on,1,0,0,,3,,,75,127
24590,note_off,84,0,0,,3,,,75,127
24591,note_on,1,0,0,,2,,,74,127
24675,note_off,84,0,0,,2,,,74,127
24675,note_off,0,0,0,,12,,,47,127
24676,note_on,1,0,0,,0,,,48,127
24676,note_on,0,0,0,,3,,,75,127
24803,note_off,127,0,0,,3,,,75,127
24803,note_off,0,0,0,,0,,,48,127
24804,note_on,1,0,0,,2,,,50,127
24804,note_on,0,0,0,,2,,,74,127
24931,note_off,127,0,0,,2,,,74,127
24931,note_off,0,0,0,,2,,,50,127
24932,note_on,1,0,0,,3,,,51,127
24932,note_on,0,0,0,,0,,,72,127
25059,note_off,127,0,0,,3,,,51,127
25060,note_on,1,0,0,,4,,,52,127
25187,note_off,127,0,0,,4,,,52,127
25188,note_on,1,0,0,,5,,,53,127
25315,note_off,127,0,0,,5,,,53,127
25316,note_on,1,0,0,,6,,,54,127
25443,note_off,127,0,0,,6,,,54,127
25443,note_off,0,0,0,,0,,,72,127
25444,note_on,1,0,0,,7,,,55,127
25444,note_on,0,0,0,,11,,,70,127
25571,note_off,127,0,0,,11,,,70,127
25571,note_off,0,0,0,,7,,,55,127
25572,note_on,1,0,0,,10,,,57,127
25572,note_on,0,0,0,,10,,,69,127
25699,note_off,127,0,0,,10,,,69,127
25699,note_off,0,0,0,,10,,,57,127
25700,note_on,1,0,0,,11,,,58,127
25700,note_on,0,0,0,,7,,,67,127
25827,note_off,127,0,0,,11,,,58,127
25828,note_on,1,0,0,,12,,,59,127
25955,note_off,127,0,0,,12,,,59,127
25956,note_on,1,0,0,,0,,,60,127
26083,note_off,127,0,0,,0,,,60,127
26084,note_on,1,0,0,,2,,,62,127
26211,note_off,127,0,0,,2,,,62,127
26212,note_on,1,0,0,,3,,,63,127
26339,note_off,127,0,0,,3,,,63,127
26340,note_on,1,0,0,,4,,,64,127
26467,note_off,127,0,0,,4,,,64,127
26468,note_on,1,0,0,,5,,,65,127
26595,note_off,127,0,0,,5,,,65,127
26596,note_on,1,0,0,,6,,,66,127
26723,note_off,127,0,0,,6,,,66,127
26723,note_off,0,0,0,,7,,,67,127
26724,note_on,1,0,0,,7,,,67,127
26979,note_off,255,0,0,,7,,,67,127
26980,note_on,1,0,0,,11,,,58,127
26980,note_on,0,0,0,,7,,,79,127
27235,note_off,255,0,0,,7,,,79,127
27235,note_off,0,0,0,,11,,,58,127
27236,note_on,1,0,0,,0,,,60,127
27236,note_on,0,0,0,,5,,,77,127
27320,note_off,84,0,0,,5,,,77,127
27321,note_on,1,0,0,,3,,,75,127
27405,note_off,84,0,0,,3,,,75,127
27406,note_on,1,0,0,,5,,,77,127
27490,note_off,84,0,0,,5,,,77,127
27490,note_off,0,0,0,,0,,,60,127
27491,note_on,1,0,0,,10,,,57,127
27491,note_on,0,0,0,,3,,,75,127
27575,note_off,84,0,0,,3,,,75,127
27576,note_on,1,0,0,,2,,,74,127
27660,note_off,84,0,0,,2,,,74,127
27661,note_on,1,0,0,,0,,,72,127
27745,note_off,84,0,0,,0,,,72,127
27745,note_off,0,0,0,,10,,,57,127
27746,note_on,1,0,0,,11,,,58,127
27746,note_on,0,0,0,,2,,,74,127
27830,note_off,84,0,0,,2,,,74,127
27831,note_on,1,0,0,,0,,,72,127
27915,note_off,84,0,0,,0,,,72,127
27916,note_on,1,0,0,,11,,,70,127
28000,note_off,84,0,0,,11,,,70,127
28000,note_off,0,0,0,,11,,,58,127
28001,note_on,1,0,0,,0,,,60,127
28001,note_on,0,0,0,,0,,,72,127
28085,note_off,84,0,0,,0,,,72,127
28086,note_on,1,0,0,,11,,,70,127
28170,note_off,84,0,0,,11,,,70,127
28171,note_on,1,0,0,,10,,,69,127
28255,note_off,84,0,0,,10,,,69,127
28255,note_off,0,0,0,,0,,,60,127
28256,note_on,1,0,0,,2,,,62,127
28256,note_on,0,0,0,,11,,,70,127
28340,note_off,84,0,0,,11,,,70,127
28341,note_on,1,0,0,,10,,,69,127
28425,note_off,84,0,0,,10,,,69,127
28426,note_on,1,0,0,,7,,,67,127
28510,note_off,84,0,0,,7,,,67,127
28510,note_off,0,0,0,,2,,,62,127
28511,note_on,1,0,0,,2,,,50,127
28511,note_on,0,0,0,,10,,,69,127
28595,note_off,84,0,0,,10,,,69,127
28596,note_on,1,0,0,,7,,,67,127
28680,note_off,84,0,0,,7,,,67,127
28681,note_on,1,0,0,,6,,,66,127
28765,note_off,84,0,0,,6,,,66,127
28765,note_off,0,0,0,,2,,,50,127
28766,note_on,1,0,0,,7,,,55,127
28766,note_on,0,0,0,,7,,,43,127
28766,note_on,0,0,0,,7,,,67,127
29021,note_off,255,0,0,,7,,,67,127
29022,note_on,1,0,0,,2,,,62,127
29277,note_off,255,0,0,,2,,,62,127
29277,note_off,0,0,0,,7,,,43,127
29277,note_off,0,0,0,,7,,,55,127
29278,note_on,1,0,0,,10,,,45,127
29278,note_on,0,0,0,,0,,,72,127
29533,note_off,255,0,0,,0,,,72,127
29534,note_on,1,0,0,,0,,,72,127
29618,note_off,84,0,0,,0,,,72,127
29619,note_on,1,0,0,,11,,,70,127
29703,note_off,84,0,0,,11,,,70,127
29704,note_on,1,0,0,,10,,,69,127
29788,note_off,84,0,0,,10,,,69,127
29788,note_off,0,0,0,,10,,,45,127
29789,note_on,1,0,0,,11,,,46,127
29789,note_on,0,0,0,,2,,,74,127
30044,note_off,255,0,0,,2,,,74,127
30045,note_on,1,0,0,,7,,,67,127
30300,note_off,255,0,0,,7,,,67,127
30300,note_off,0,0,0,,11,,,46,127
30301,note_on,1,0,0,,12,,,47,127
30301,note_on,0,0,0,,5,,,77,127
30556,note_off,255,0,0,,5,,,77,127
30557,note_on,1,0,0,,5,,,77,127
30641,note_off,84,0,0,,5,,,77,127
30642,note_on,1,0,0,,3,,,75,127
30726,note_off,84,0,0,,3,,,75,127
30727,note_on,1,0,0,,2,,,74,127
30811,note_off,84,0,0,,2,,,74,127
30811,note_off,0,0,0,,12,,,47,127
30812,note_on,1,0,0,,0,,,48,127
30812,note_on,0,0,0,,3,,,75,127
30939,note_off,127,0,0,,3,,,75,127
30939,note_off,0,0,0,,0,,,48,127
30940,note_on,1,0,0,,2,,,50,127
30940,note_on,0,0,0,,2,,,74,127
31067,note_off,127,0,0,,2,,,74,127
31067,note_off,0,0,0,,2,,,50,127
31068,note_on,1,0,0,,3,,,51,127
31068,note_on,0,0,0,,0,,,72,127
31195,note_off,127,0,0,,3,,,51,127
31196,note_on,1,0,0,,4,,,52,127
31323,note_off,127,0,0,,4,,,52,127
31324,note_on,1,0,0,,5,,,53,127
31451,note_off,127,0,0,,5,,,53,127
31452,note_on,1,0,0,,6,,,54,127
31579,note_off,127,0,0,,6,,,54,127
31579,note_off,0,0,0,,0,,,72,127
31580,note_on,1,0,0,,7,,,55,127
31580,note_on,0,0,0,,11,,,70,127
31707,note_off,127,0,0,,11,,,70,127
31707,note_off,0,0,0,,7,,,55,127
31708,note_on,1,0,0,,10,,,57,127
31708,note_on,0,0,0,,10,,,69,127
31835,note_off,127,0,0,,10,,,69,127
31835,note_off,0,0,0,,10,,,57,127
31836,note_on,1,0,0,,11,,,58,127
31836,note_on,0,0,0,,7,,,67,127
31963,note_off,127,0,0,,11,,,58,127
31964,note_on,1,0,0,,12,,,59,127
32091,note_off,127,0,0,,12,,,59,127
32092,note_on,1,0,0,,0,,,60,127
32219,note_off,127,0,0,,0,,,60,127
32220,note_on,1,0,0,,2,,,62,127
32347,note_off,127,0,0,,2,,,62,127
32348,note_on,1,0,0,,3,,,63,127
32475,note_off,127,0,0,,3,,,63,127
32476,note_on,1,0,0,,4,,,64,127
32603,note_off,127,0,0,,4,,,64,127
32604,note_on,1,0,0,,5,,,65,127
32731,note_off,127,0,0,,5,,,65,127
32732,note_on,1,0,0,,6,,,66,127
32859,note_off,127,0,0,,6,,,66,127
32859,note_off,0,0,0,,7,,,67,127
32860,note_on,1,0,0,,7,,,67,127
33115,note_off,255,0,0,,7,,,67,127
33116,note_on,1,0,0,,11,,,58,127
33116,note_on,0,0,0,,7,,,79,127
33371,note_off,255,0,0,,7,,,79,127
33371,note_off,0,0,0,,11,,,58,127
33372,note_on,1,0,0,,0,,,60,127
33372,note_on,0,0,0,,5,,,77,127
33456,note_off,84,0,0,,5,,,77,127
33457,note_on,1,0,0,,3,,,75,127
33541,note_off,84,0,0,,3,,,75,127
33542,note_on,1,0,0,,5,,,77,127
33626,note_off,84,0,0,,5,,,77,127
33626,note_off,0,0,0,,0,,,60,127
33627,note_on,1,0,0,,10,,,57,127
33627,note_on,0,0,0,,3,,,75,127
33711,note_off,84,0,0,,3,,,75,127
33712,note_on,1,0,0,,2,,,74,127
33796,note_off,84,0,0,,2,,,74,127
33797,note_on,1,0,0,,0,,,72,127
33881,note_off,84,0,0,,0,,,72,127
33881,note_off,0,0,0,,10,,,57,127
33882,note_on,1,0,0,,11,,,58,127
33882,note_on,0,0,0,,2,,,74,127
33966,note_off,84,0,0,,2,,,74,127
33967,note_on,1,0,0,,0,,,72,127
34051,note_off,84,0,0,,0,,,72,127
34052,note_on,1,0,0,,11,,,70,127
34136,note_off,84,0,0,,11,,,70,127
34136,note_off,0,0,0,,11,,,58,127
34137,note_on,1,0,0,,0,,,60,127
34137,note_on,0,0,0,,0,,,72,127
34221,note_off,84,0,0,,0,,,72,127
34222,note_on,1,0,0,,11,,,70,127
34306,note_off,84,0,0,,11,,,70,127
34307,note_on,1,0,0,,10,,,69,127
34391,note_off,84,0,0,,10,,,69,127
34391,note_off,0,0,0,,0,,,60,127
34392,note_on,1,0,0,,2,,,62,127
34392,note_on,0,0,0,,11,,,70,127
34476,note_off,84,0,0,,11,,,70,127
34477,note_on,1,0,0,,10,,,69,127
34561,note_off,84,0,0,,10,,,69,127
34562,note_on,1,0,0,,7,,,67,127
34646,note_off,84,0,0,,7,,,67,127
34646,note_off,0,0,0,,2,,,62,127
34647,note_on,1,0,0,,2,,,50,127
34647,note_on,0,0,0,,10,,,69,127
34731,note_off,84,0,0,,10,,,69,127
34732,note_on,1,0,0,,7,,,67,127
34816,note_off,84,0,0,,7,,,67,127
34817,note_on,1,0,0,,6,,,66,127
34873,note_off,56,0,0,,2,,,50,127
34881,note_off,8,0,0,,6,,,66,127
34902,note_on,21,0,0,,7,,,55,127
34902,note_on,0,0,0,,7,,,79,127
35029,note_off,127,0,0,,7,,,79,127
35030,note_on,1,0,0,,2,,,74,127
35157,note_off,127,0,0,,2,,,74,127
35157,note_off,0,0,0,,7,,,55,127
35158,note_on,1,0,0,,7,,,67,127
35158,note_on,0,0,0,,11,,,82,127
35285,note_off,127,0,0,,11,,,82,127
35286,note_on,1,0,0,,10,,,81,127
35413,note_off,127,0,0,,10,,,81,127
35414,note_on,1,0,0,,10,,,81,127
35541,note_off,127,0,0,,10,,,81,127
35542,note_on,1,0,0,,7,,,79,127
35669,note_off,127,0,0,,7,,,67,127
35670,note_on,1,0,0,,5,,,65,127
35670,note_on,0,0,0,,3,,,75,127
35797,note_off,127,0,0,,3,,,75,127
35798,note_on,1,0,0,,2,,,74,127
35925,note_off,127,0,0,,2,,,74,127
35925,note_off,0,0,0,,5,,,65,127
35926,note_on,1,0,0,,3,,,63,127
35926,note_on,0,0,0,,7,,,67,127
35926,note_on,0,0,0,,2,,,74,127
36053,note_off,127,0,0,,2,,,74,127
36054,note_on,1,0,0,,0,,,72,127
36182,note_off,128,0,0,,7,,,79,127
36182,note_on,0,0,0,,11,,,82,127
36309,note_off,127,0,0,,11,,,82,127
36310,note_on,1,0,0,,10,,,81,127
36437,note_off,127,0,0,,10,,,81,127
36438,note_on,1,0,0,,10,,,81,127
36565,note_off,127,0,0,,10,,,81,127
36566,note_on,1,0,0,,7,,,79,127
36693,note_off,127,0,0,,7,,,67,127
36693,note_off,0,0,0,,3,,,63,127
36694,note_off,1,0,0,,0,,,72,127
36694,note_on,0,0,0,,2,,,62,127
36694,note_on,0,0,0,,0,,,72,127
36821,note_off,127,0,0,,0,,,72,127
36822,note_on,1,0,0,,11,,,70,127
36949,note_off,127,0,0,,11,,,70,127
36949,note_off,0,0,0,,2,,,62,127
36950,note_on,1,0,0,,6,,,66,127
36950,note_on,0,0,0,,0,,,60,127
36950,note_on,0,0,0,,11,,,70,127
37077,note_off,127,0,0,,11,,,70,127
37078,note_on,1,0,0,,10,,,69,127
37206,note_off,128,0,0,,7,,,79,127
37206,note_on,0,0,0,,3,,,75,127
37333,note_off,127,0,0,,3,,,75,127
37334,note_on,1,0,0,,2,,,74,127
37461,note_off,127,0,0,,2,,,74,127
37462,note_on,1,0,0,,2,,,74,127
37589,note_off,127,0,0,,2,,,74,127
37590,note_on,1,0,0,,0,,,72,127
37717,note_off,127,0,0,,0,,,60,127
37717,note_off,0,0,0,,6,,,66,127
37718,note_off,1,0,0,,10,,,69,127
37718,note_on,0,0,0,,11,,,58,127
37718,note_on,0,0,0,,2,,,62,127
37718,note_on,0,0,0,,10,,,69,127
37845,note_off,127,0,0,,10,,,69,127
37846,note_on,1,0,0,,7,,,67,127
37973,note_off,127,0,0,,7,,,67,127
37973,note_off,0,0,0,,2,,,62,127
37973,note_off,0,0,0,,11,,,58,127
37974,note_on,1,0,0,,10,,,57,127
37974,note_on,0,0,0,,2,,,62,127
37974,note_on,0,0,0,,7,,,67,127
38101,note_off,127,0,0,,7,,,67,127
38102,note_on,1,0,0,,6,,,66,127
38230,note_off,128,0,0,,0,,,72,127
38230,note_on,0,0,0,,3,,,75,127
38357,note_off,127,0,0,,3,,,75,127
38358,note_on,1,0,0,,2,,,74,127
38485,note_off,127,0,0,,2,,,74,127
38486,note_on,1,0,0,,2,,,74,127
38613,note_off,127,0,0,,2,,,74,127
38614,note_on,1,0,0,,0,,,72,127
38741,note_off,127,0,0,,2,,,62,127
38741,note_off,0,0,0,,10,,,57,127
38742,note_off,1,0,0,,6,,,66,127
38742,note_on,0,0,0,,7,,,55,127
38742,note_on,0,0,0,,0,,,60,127
38742,note_on,0,0,0,,5,,,65,127
38869,note_off,127,0,0,,5,,,65,127
38870,note_on,1,0,0,,3,,,63,127
38997,note_off,127,0,0,,3,,,63,127
38997,note_off,0,0,0,,0,,,60,127
38997,note_off,0,0,0,,7,,,55,127
38998,note_on,1,0,0,,10,,,57,127
38998,note_on,0,0,0,,6,,,54,127
38998,note_on,0,0,0,,2,,,62,127
39121,note_off,123,0,0,,0,,,72,127
39125,note_off,4,0,0,,2,,,62,127
39126,note_on,1,0,0,,0,,,72,127
39253,note_off,127,0,0,,0,,,72,127
39253,note_off,0,0,0,,6,,,54,127
39254,note_on,1,0,0,,2,,,50,127
39254,note_on,0,0,0,,11,,,70,127
39381,note_off,127,0,0,,11,,,70,127
39382,note_on,1,0,0,,10,,,69,127
39505,note_off,123,0,0,,10,,,57,127
39509,note_off,4,0,0,,10,,,69,127
39509,note_off,0,0,0,,2,,,50,127
39510,note_on,1,0,0,,3,,,51,127
39510,note_on,0,0,0,,7,,,67,127
39637,note_off,127,0,0,,7,,,67,127
39638,note_on,1,0,0,,3,,,75,127
39765,note_off,127,0,0,,3,,,75,127
39765,note_off,0,0,0,,3,,,51,127
39766,note_on,1,0,0,,0,,,48,127
39766,note_on,0,0,0,,2,,,74,127
39893,note_off,127,0,0,,2,,,74,127
39894,note_on,1,0,0,,0,,,72,127
40021,note_off,127,0,0,,0,,,72,127
40021,note_off,0,0,0,,0,,,48,127
40022,note_on,1,0,0,,11,,,46,127
40022,note_on,0,0,0,,7,,,79,127
40149,note_off,127,0,0,,7,,,79,127
40150,note_on,1,0,0,,2,,,74,127
40277,note_off,127,0,0,,2,,,74,127
40277,note_off,0,0,0,,11,,,46,127
40278,note_on,1,0,0,,0,,,48,127
40278,note_on,0,0,0,,3,,,75,127
40405,note_off,127,0,0,,3,,,75,127
40406,note_on,1,0,0,,0,,,72,127
40533,note_off,127,0,0,,0,,,72,127
40533,note_off,0,0,0,,0,,,48,127
40534,note_on,1,0,0,,2,,,50,127
40534,note_on,0,0,0,,11,,,70,127
40661,note_off,127,0,0,,11,,,70,127
40662,note_on,1,0,0,,7,,,67,127
40789,note_off,127,0,0,,7,,,67,127
40789,note_off,0,0,0,,2,,,50,127
40790,note_on,1,0,0,,2,,,38,127
40790,note_on,0,0,0,,10,,,69,127
40917,note_off,127,0,0,,10,,,69,127
40918,note_on,1,0,0,,6,,,66,127
41045,note_off,127,0,0,,6,,,66,127
41045,note_off,0,0,0,,2,,,38,127
41046,note_on,1,0,0,,7,,,55,127
41046,note_on,0,0,0,,7,,,79,127
41173,note_off,127,0,0,,7,,,79,127
41174,note_on,1,0,0,,2,,,74,127
41301,note_off,127,0,0,,2,,,74,127
41301,note_off,0,0,0,,7,,,55,127
41302,note_on,1,0,0,,7,,,67,127
41302,note_on,0,0,0,,11,,,82,127
41429,note_off,127,0,0,,11,,,82,127
41430,note_on,1,0,0,,10,,,81,127
41557,note_off,127,0,0,,10,,,81,127
41558,note_on,1,0,0,,10,,,81,127
41685,note_off,127,0,0,,10,,,81,127
41686,note_on,1,0,0,,7,,,79,127
41813,note_off,127,0,0,,7,,,67,127
41814,note_on,1,0,0,,5,,,65,127
41814,note_on,0,0,0,,3,,,75,127
41941,note_off,127,0,0,,3,,,75,127
41942,note_on,1,0,0,,2,,,74,127
42069,note_off,127,0,0,,2,,,74,127
42069,note_off,0,0,0,,5,,,65,127
42070,note_off,1,0,0,,7,,,79,127
42070,note_on,0,0,0,,3,,,63,127
42070,note_on,0,0,0,,7,,,67,127
42070,note_on,0,0,0,,2,,,74,127
42197,note_off,127,0,0,,2,,,74,127
42198,note_on,1,0,0,,0,,,72,127
42326,note_on,128,0,0,,11,,,82,127
42453,note_off,127,0,0,,11,,,82,127
42454,note_on,1,0,0,,10,,,81,127
42581,note_off,127,0,0,,10,,,81,127
42582,note_off,1,0,0,,0,,,72,127
42582,note_on,0,0,0,,10,,,81,127
42709,note_off,127,0,0,,10,,,81,127
42710,note_on,1,0,0,,7,,,79,127
42837,note_off,127,0,0,,3,,,63,127
42838,note_on,1,0,0,,2,,,62,127
42838,note_on,0,0,0,,0,,,72,127
42965,note_off,127,0,0,,0,,,72,127
42966,note_on,1,0,0,,11,,,70,127
43093,note_off,127,0,0,,11,,,70,127
43093,note_off,0,0,0,,2,,,62,127
43093,note_off,0,0,0,,7,,,67,127
43094,note_off,1,0,0,,7,,,79,127
43094,note_on,0,0,0,,0,,,60,127
43094,note_on,0,0,0,,6,,,66,127
43094,note_on,0,0,0,,11,,,70,127
43221,note_off,127,0,0,,11,,,70,127
43222,note_on,1,0,0,,10,,,69,127
43350,note_on,128,0,0,,3,,,75,127
43477,note_off,127,0,0,,3,,,75,127
43478,note_on,1,0,0,,2,,,74,127
43605,note_off,127,0,0,,2,,,74,127
43606,note_off,1,0,0,,10,,,69,127
43606,note_on,0,0,0,,2,,,74,127
43733,note_off,127,0,0,,2,,,74,127
43734,note_on,1,0,0,,0,,,72,127
43861,note_off,127,0,0,,6,,,66,127
43861,note_off,0,0,0,,0,,,60,127
43862,note_on,1,0,0,,11,,,58,127
43862,note_on,0,0,0,,2,,,62,127
43862,note_on,0,0,0,,10,,,69,127
43989,note_off,127,0,0,,10,,,69,127
43990,note_on,1,0,0,,7,,,67,127
44117,note_off,127,0,0,,7,,,67,127
44117,note_off,0,0,0,,2,,,62,127
44117,note_off,0,0,0,,11,,,58,127
44118,note_off,1,0,0,,0,,,72,127
44118,note_on,0,0,0,,10,,,57,127
44118,note_on,0,0,0,,2,,,62,127
44118,note_on,0,0,0,,7,,,67,127
44245,note_off,127,0,0,,7,,,67,127
44246,note_on,1,0,0,,6,,,66,127
44374,note_on,128,0,0,,3,,,75,127
44501,note_off,127,0,0,,3,,,75,127
44502,note_on,1,0,0,,2,,,74,127
44629,note_off,127,0,0,,2,,,74,127
44630,note_off,1,0,0,,6,,,66,127
44630,note_on,0,0,0,,2,,,74,127
44757,note_off,127,0,0,,2,,,74,127
44758,note_on,1,0,0,,0,,,72,127
44885,note_off,127,0,0,,2,,,62,127
44885,note_off,0,0,0,,10,,,57,127
44886,note_on,1,0,0,,0,,,60,127
44886,note_on,0,0,0,,7,,,55,127
44886,note_on,0,0,0,,5,,,65,127
45013,note_off,127,0,0,,5,,,65,127
45014,note_on,1,0,0,,3,,,63,127
45141,note_off,127,0,0,,3,,,63,127
45141,note_off,0,0,0,,7,,,55,127
45141,note_off,0,0,0,,0,,,60,127
45142,note_off,1,0,0,,0,,,72,127
45142,note_on,0,0,0,,10,,,57,127
45142,note_on,0,0,0,,6,,,54,127
45142,note_on,0,0,0,,2,,,62,127
45269,note_off,127,0,0,,2,,,62,127
45270,note_on,1,0,0,,0,,,72,127
45397,note_off,127,0,0,,0,,,72,127
45397,note_off,0,0,0,,6,,,54,127
45398,note_on,1,0,0,,2,,,50,127
45398,note_on,0,0,0,,11,,,70,127
45525,note_off,127,0,0,,11,,,70,127
45526,note_on,1,0,0,,10,,,69,127
45649,note_off,123,0,0,,10,,,57,127
45653,note_off,4,0,0,,10,,,69,127
45653,note_off,0,0,0,,2,,,50,127
45654,note_on,1,0,0,,3,,,51,127
45654,note_on,0,0,0,,7,,,67,127
45781,note_off,127,0,0,,7,,,67,127
45782,note_on,1,0,0,,3,,,75,127
45909,note_off,127,0,0,,3,,,75,127
45909,note_off,0,0,0,,3,,,51,127
45910,note_on,1,0,0,,0,,,48,127
45910,note_on,0,0,0,,2,,,74,127
46037,note_off,127,0,0,,2,,,74,127
46038,note_on,1,0,0,,0,,,72,127
46165,note_off,127,0,0,,0,,,72,127
46165,note_off,0,0,0,,0,,,48,127
46166,note_on,1,0,0,,11,,,46,127
46166,note_on,0,0,0,,7,,,79,127
46293,note_off,127,0,0,,7,,,79,127
46294,note_on,1,0,0,,2,,,74,127
46421,note_off,127,0,0,,2,,,74,127
46421,note_off,0,0,0,,11,,,46,127
46422,note_on,1,0,0,,0,,,48,127
46422,note_on,0,0,0,,3,,,75,127
46549,note_off,127,0,0,,3,,,75,127
46550,note_on,1,0,0,,0,,,72,127
46677,note_off,127,0,0,,0,,,72,127
46677,note_off,0,0,0,,0,,,48,127
46678,note_on,1,0,0,,2,,,50,127
46678,note_on,0,0,0,,11,,,70,127
46805,note_off,127,0,0,,11,,,70,127
46806,note_on,1,0,0,,7,,,67,127
46933,note_off,127,0,0,,7,,,67,127
46933,note_off,0,0,0,,2,,,50,127
46934,note_on,1,0,0,,2,,,38,127
46934,note_on,0,0,0,,10,,,69,127
47061,note_off,127,0,0,,10,,,69,127
47062,note_on,1,0,0,,6,,,66,127
47189,note_off,127,0,0,,6,,,66,127
47189,note_off,0,0,0,,2,,,38,127
47190,note_on,1,0,0,,7,,,43,127
47190,note_on,0,0,0,,2,,,50,127
47190,note_on,0,0,0,,7,,,67,127
47275,note_on,85,0,0,,7,,,79,127
47359,note_off,84,0,0,,7,,,79,127
47360,note_on,1,0,0,,2,,,74,127
47443,note_off,83,0,0,,7,,,67,127
47444,note_off,1,0,0,,2,,,74,127
47445,note_on,1,0,0,,11,,,70,127
47529,note_off,84,0,0,,11,,,70,127
47530,note_on,1,0,0,,7,,,67,127
47614,note_off,84,0,0,,7,,,67,127
47615,note_on,1,0,0,,2,,,74,127
47699,note_off,84,0,0,,2,,,74,127
47700,note_on,1,0,0,,2,,,74,127
47784,note_off,84,0,0,,2,,,74,127
47785,note_on,1,0,0,,0,,,72,127
47828,note_off,43,0,0,,2,,,50,127
47828,note_off,0,0,0,,7,,,43,127
47869,note_off,41,0,0,,0,,,72,127
47870,note_on,1,0,0,,2,,,74,127
47954,note_off,84,0,0,,2,,,74,127
47955,note_on,1,0,0,,2,,,38,127
47955,note_on,0,0,0,,2,,,50,127
47955,note_on,0,0,0,,0,,,72,127
48039,note_off,84,0,0,,0,,,72,127
48040,note_on,1,0,0,,11,,,70,127
48124,note_off,84,0,0,,11,,,70,127
48125,note_on,1,0,0,,10,,,69,127
48209,note_off,84,0,0,,10,,,69,127
48209,note_off,0,0,0,,2,,,50,127
48209,note_off,0,0,0,,2,,,38,127
48210,note_on,1,0,0,,7,,,43,127
48210,note_on,0,0,0,,2,,,50,127
48210,note_on,0,0,0,,7,,,67,127
48295,note_on,85,0,0,,7,,,79,127
48379,note_off,84,0,0,,7,,,79,127
48380,note_on,1,0,0,,2,,,74,127
48463,note_off,83,0,0,,7,,,67,127
48464,note_off,1,0,0,,2,,,74,127
48465,note_on,1,0,0,,11,,,70,127
48549,note_off,84,0,0,,11,,,70,127
48550,note_on,1,0,0,,7,,,67,127
48634,note_off,84,0,0,,7,,,67,127
48635,note_on,1,0,0,,11,,,70,127
48719,note_off,84,0,0,,11,,,70,127
48720,note_on,1,0,0,,11,,,70,127
48804,note_off,84,0,0,,11,,,70,127
48805,note_on,1,0,0,,10,,,69,127
48848,note_off,43,0,0,,2,,,50,127
48848,note_off,0,0,0,,7,,,43,127
48889,note_off,41,0,0,,10,,,69,127
48890,note_on,1,0,0,,11,,,70,127
48974,note_off,84,0,0,,11,,,70,127
48975,note_on,1,0,0,,2,,,38,127
48975,note_on,0,0,0,,2,,,50,127
48975,note_on,0,0,0,,10,,,69,127
49059,note_off,84,0,0,,10,,,69,127
49060,note_on,1,0,0,,7,,,67,127
49144,note_off,84,0,0,,7,,,67,127
49145,note_on,1,0,0,,6,,,66,127
49229,note_off,84,0,0,,6,,,66,127
49229,note_off,0,0,0,,2,,,50,127
49229,note_off,0,0,0,,2,,,38,127
49230,note_on,1,0,0,,2,,,50,127
49230,note_on,0,0,0,,7,,,43,127
49230,note_on,0,0,0,,7,,,67,127
49315,note_on,85,0,0,,7,,,79,127
49399,note_off,84,0,0,,7,,,79,127
49400,note_on,1,0,0,,2,,,74,127
49483,note_off,83,0,0,,7,,,67,127
49484,note_off,1,0,0,,2,,,74,127
49485,note_on,1,0,0,,11,,,70,127
49569,note_off,84,0,0,,11,,,70,127
49570,note_on,1,0,0,,7,,,67,127
49654,note_off,84,0,0,,7,,,67,127
49655,note_on,1,0,0,,2,,,74,127
49739,note_off,84,0,0,,2,,,74,127
49740,note_on,1,0,0,,2,,,74,127
49824,note_off,84,0,0,,2,,,74,127
49825,note_on,1,0,0,,0,,,72,127
49868,note_off,43,0,0,,7,,,43,127
49868,note_off,0,0,0,,2,,,50,127
49909,note_off,41,0,0,,0,,,72,127
49910,note_on,1,0,0,,2,,,74,127
49994,note_off,84,0,0,,2,,,74,127
49995,note_on,1,0,0,,2,,,50,127
49995,note_on,0,0,0,,2,,,38,127
49995,note_on,0,0,0,,0,,,72,127
50079,note_off,84,0,0,,0,,,72,127
50080,note_on,1,0,0,,11,,,70,127
50164,note_off,84,0,0,,11,,,70,127
50165,note_on,1,0,0,,10,,,69,127
50249,note_off,84,0,0,,10,,,69,127
50249,note_off,0,0,0,,2,,,38,127
50249,note_off,0,0,0,,2,,,50,127
50250,note_on,1,0,0,,7,,,43,127
50250,note_on,0,0,0,,2,,,50,127
50250,note_on,0,0,0,,7,,,67,127
50335,note_on,85,0,0,,7,,,79,127
50419,note_off,84,0,0,,7,,,79,127
50420,note_on,1,0,0,,2,,,74,127
50503,note_off,83,0,0,,7,,,67,127
50504,note_off,1,0,0,,2,,,74,127
50505,note_on,1,0,0,,11,,,70,127
50589,note_off,84,0,0,,11,,,70,127
50590,note_on,1,0,0,,7,,,67,127
50674,note_off,84,0,0,,7,,,67,127
50675,note_on,1,0,0,,11,,,70,127
50759,note_off,84,0,0,,11,,,70,127
50760,note_on,1,0,0,,11,,,70,127
50844,note_off,84,0,0,,11,,,70,127
50845,note_on,1,0,0,,10,,,69,127
50888,note_off,43,0,0,,2,,,50,127
50888,note_off,0,0,0,,7,,,43,127
50929,note_off,41,0,0,,10,,,69,127
50930,note_on,1,0,0,,11,,,70,127
51014,note_off,84,0,0,,11,,,70,127
51015,note_on,1,0,0,,2,,,38,127
51015,note_on,0,0,0,,2,,,50,127
51015,note_on,0,0,0,,10,,,69,127
51099,note_off,84,0,0,,10,,,69,127
51100,note_on,1,0,0,,7,,,67,127
51184,note_off,84,0,0,,7,,,67,127
51185,note_on,1,0,0,,6,,,66,127
51269,note_off,84,0,0,,6,,,66,127
51269,note_off,0,0,0,,2,,,50,127
51269,note_off,0,0,0,,2,,,38,127
51270,note_on,1,0,0,,7,,,43,127
51270,note_on,0,0,0,,7,,,67,127
51397,note_off,127,0,0,,7,,,67,127
51398,note_on,1,0,0,,2,,,62,127
51525,note_off,127,0,0,,2,,,62,127
51525,note_off,0,0,0,,7,,,43,127
51526,note_on,1,0,0,,0,,,48,127
51526,note_on,0,0,0,,3,,,63,127
51653,note_off,127,0,0,,3,,,63,127
51654,note_on,1,0,0,,0,,,60,127
51781,note_off,127,0,0,,0,,,60,127
51781,note_off,0,0,0,,0,,,48,127
51782,note_on,1,0,0,,2,,,50,127
51782,note_on,0,0,0,,11,,,58,127
51909,note_off,127,0,0,,11,,,58,127
51910,note_on,1,0,0,,7,,,67,127
52037,note_off,127,0,0,,7,,,67,127
52037,note_off,0,0,0,,2,,,50,127
52038,note_on,1,0,0,,2,,,38,127
52038,note_on,0,0,0,,10,,,57,127
52165,note_off,127,0,0,,10,,,57,127
52166,note_on,1,0,0,,6,,,66,127
52293,note_off,127,0,0,,6,,,66,127
52293,note_off,0,0,0,,2,,,38,127
52294,note_on,1,0,0,,7,,,31,127
52294,note_on,0,0,0,,7,,,67,127
53061,note_off,767,0,0,,7,,,67,127
53317,note_off,256,0,0,,7,,,31,127
53318,note_on,1,0,0,,7,,,43,127
53446,note_on,128,0,0,,7,,,79,127
53573,note_off,127,0,0,,7,,,79,127
53574,note_on,1,0,0,,7,,,67,127
53701,note_off,127,0,0,,7,,,67,127
53702,note_on,1,0,0,,10,,,69,127
53829,note_off,127,0,0,,10,,,69,127
53830,note_on,1,0,0,,12,,,71,127
53957,note_off,127,0,0,,12,,,71,127
53958,note_on,1,0,0,,0,,,72,127
54085,note_off,127,0,0,,0,,,72,127
54086,note_on,1,0,0,,2,,,74,127
54213,note_off,127,0,0,,2,,,74,127
54214,note_on,1,0,0,,3,,,75,127
54341,note_off,127,0,0,,3,,,75,127
54342,note_on,1,0,0,,5,,,77,127
54469,note_off,127,0,0,,5,,,77,127
54470,note_on,1,0,0,,7,,,79,127
54597,note_off,127,0,0,,7,,,79,127
54598,note_on,1,0,0,,8,,,80,127
54725,note_off,127,0,0,,8,,,80,127
54726,note_on,1,0,0,,7,,,79,127
54853,note_off,127,0,0,,7,,,79,127
54854,note_on,1,0,0,,5,,,77,127
54981,note_off,127,0,0,,5,,,77,127
54982,note_on,1,0,0,,3,,,75,127
55109,note_off,127,0,0,,3,,,75,127
55110,note_on,1,0,0,,2,,,74,127
55237,note_off,127,0,0,,2,,,74,127
55238,note_on,1,0,0,,0,,,72,127
55358,note_off,120,0,0,,7,,,43,127
55365,note_off,7,0,0,,0,,,72,127
55366,note_on,1,0,0,,12,,,71,127
55494,note_on,128,0,0,,7,,,67,127
55621,note_off,127,0,0,,7,,,67,127
55622,note_on,1,0,0,,7,,,55,127
55749,note_off,127,0,0,,7,,,55,127
55750,note_on,1,0,0,,10,,,57,127
55877,note_off,127,0,0,,10,,,57,127
55878,note_on,1,0,0,,12,,,59,127
56005,note_off,127,0,0,,12,,,59,127
56006,note_on,1,0,0,,0,,,60,127
56133,note_off,127,0,0,,0,,,60,127
56134,note_on,1,0,0,,2,,,62,127
56261,note_off,127,0,0,,2,,,62,127
56262,note_on,1,0,0,,3,,,63,127
56389,note_off,127,0,0,,3,,,63,127
56390,note_on,1,0,0,,5,,,65,127
56517,note_off,127,0,0,,5,,,65,127
56518,note_on,1,0,0,,7,,,67,127
56645,note_off,127,0,0,,7,,,67,127
56646,note_on,1,0,0,,8,,,68,127
56773,note_off,127,0,0,,8,,,68,127
56774,note_on,1,0,0,,7,,,67,127
56901,note_off,127,0,0,,7,,,67,127
56902,note_on,1,0,0,,5,,,65,127
57029,note_off,127,0,0,,5,,,65,127
57030,note_on,1,0,0,,3,,,63,127
57157,note_off,127,0,0,,3,,,63,127
57157,note_off,0,0,0,,12,,,71,127
57158,note_on,1,0,0,,2,,,62,127
57158,note_on,0,0,0,,0,,,72,127
57285,note_off,127,0,0,,2,,,62,127
57286,note_on,1,0,0,,0,,,60,127
57413,note_off,127,0,0,,0,,,60,127
57413,note_off,0,0,0,,0,,,72,127
57414,note_on,1,0,0,,0,,,60,127
57414,note_on,0,0,0,,3,,,75,127
57477,note_off,63,0,0,,3,,,75,127
57477,note_off,0,0,0,,0,,,60,127
57478,note_on,1,0,0,,12,,,59,127
57478,note_on,0,0,0,,2,,,74,127
57541,note_off,63,0,0,,2,,,74,127
57541,note_off,0,0,0,,12,,,59,127
57542,note_on,1,0,0,,0,,,60,127
57542,note_on,0,0,0,,3,,,75,127
57605,note_off,63,0,0,,3,,,75,127
57605,note_off,0,0,0,,0,,,60,127
57606,note_on,1,0,0,,12,,,59,127
57606,note_on,0,0,0,,2,,,74,127
57669,note_off,63,0,0,,2,,,74,127
57669,note_off,0,0,0,,12,,,59,127
57670,note_on,1,0,0,,0,,,60,127
57670,note_on,0,0,0,,3,,,75,127
57733,note_off,63,0,0,,3,,,75,127
57733,note_off,0,0,0,,0,,,60,127
57734,note_on,1,0,0,,12,,,59,127
57734,note_on,0,0,0,,2,,,74,127
57797,note_off,63,0,0,,2,,,74,127
57797,note_off,0,0,0,,12,,,59,127
57798,note_on,1,0,0,,0,,,60,127
57798,note_on,0,0,0,,3,,,75,127
57861,note_off,63,0,0,,3,,,75,127
57861,note_off,0,0,0,,0,,,60,127
57862,note_on,1,0,0,,12,,,59,127
57862,note_on,0,0,0,,2,,,74,127
57925,note_off,63,0,0,,2,,,74,127
57925,note_off,0,0,0,,12,,,59,127
57926,note_on,1,0,0,,12,,,59,127
57926,note_on,0,0,0,,2,,,74,127
58309,note_off,383,0,0,,2,,,74,127
58309,note_off,0,0,0,,12,,,59,127
58310,note_on,1,0,0,,12,,,59,127
58310,note_on,0,0,0,,2,,,74,127
58407,note_off,97,0,0,,2,,,74,127
58407,note_off,0,0,0,,12,,,59,127
58438,note_on,31,0,0,,0,,,60,127
58438,note_on,0,0,0,,3,,,75,127
58501,note_off,63,0,0,,3,,,75,127
58501,note_off,0,0,0,,0,,,60,127
58502,note_on,1,0,0,,12,,,59,127
58502,note_on,0,0,0,,2,,,74,127
58565,note_off,63,0,0,,2,,,74,127
58565,note_off,0,0,0,,12,,,59,127
58566,note_on,1,0,0,,0,,,60,127
58566,note_on,0,0,0,,3,,,75,127
58629,note_off,63,0,0,,3,,,75,127
58629,note_off,0,0,0,,0,,,60,127
58630,note_on,1,0,0,,12,,,59,127
58630,note_on,0,0,0,,2,,,74,127
58693,note_off,63,0,0,,2,,,74,127
58693,note_off,0,0,0,,12,,,59,127
58694,note_on,1,0,0,,0,,,60,127
58694,note_on,0,0,0,,3,,,75,127
58757,note_off,63,0,0,,3,,,75,127
58757,note_off,0,0,0,,0,,,60,127
58758,note_on,1,0,0,,12,,,59,127
58758,note_on,0,0,0,,2,,,74,127
58821,note_off,63,0,0,,2,,,74,127
58821,note_off,0,0,0,,12,,,59,127
58822,note_on,1,0,0,,0,,,60,127
58822,note_on,0,0,0,,3,,,75,127
58885,note_off,63,0,0,,3,,,75,127
58885,note_off,0,0,0,,0,,,60,127
58886,note_on,1,0,0,,12,,,59,127
58886,note_on,0,0,0,,2,,,74,127
58949,note_off,63,0,0,,2,,,74,127
58949,note_off,0,0,0,,12,,,59,127
58950,note_on,1,0,0,,12,,,59,127
58950,note_on,0,0,0,,2,,,74,127
59333,note_off,383,0,0,,2,,,74,127
59333,note_off,0,0,0,,12,,,59,127
59334,note_on,1,0,0,,12,,,59,127
59334,note_on,0,0,0,,2,,,74,127
59419,note_off,85,0,0,,2,,,74,127
59419,note_off,0,0,0,,12,,,59,127
59462,note_on,43,0,0,,12,,,59,127
59462,note_on,0,0,0,,4,,,76,127
59525,note_off,63,0,0,,4,,,76,127
59526,note_on,1,0,0,,2,,,74,127
59589,note_off,63,0,0,,2,,,74,127
59590,note_on,1,0,0,,4,,,76,127
59653,note_off,63,0,0,,4,,,76,127
59654,note_on,1,0,0,,2,,,74,127
59717,note_off,63,0,0,,2,,,74,127
59718,note_on,1,0,0,,2,,,74,127
59969,note_off,251,0,0,,12,,,59,127
59973,note_off,4,0,0,,2,,,74,127
59974,note_on,1,0,0,,2,,,86,127
60486,note_on,512,0,0,,4,,,52,127
60486,note_on,0,0,0,,4,,,40,127
60613,note_off,127,0,0,,2,,,86,127
60614,note_on,1,0,0,,0,,,84,127
60741,note_off,127,0,0,,0,,,84,127
60742,note_on,1,0,0,,12,,,83,127
60869,note_off,127,0,0,,12,,,83,127
60870,note_on,1,0,0,,10,,,81,127
60997,note_off,127,0,0,,10,,,81,127
60998,note_on,1,0,0,,8,,,80,127
61125,note_off,127,0,0,,8,,,80,127
61126,note_on,1,0,0,,5,,,77,127
61253,note_off,127,0,0,,5,,,77,127
61254,note_on,1,0,0,,4,,,76,127
61381,note_off,127,0,0,,4,,,76,127
61382,note_on,1,0,0,,2,,,74,127
61419,note_off,37,0,0,,4,,,40,127
61419,note_off,0,0,0,,4,,,52,127
61508,note_off,89,0,0,,2,,,74,127
61509,note_on,1,0,0,,12,,,59,127
61509,note_on,0,0,0,,2,,,74,127
61572,note_off,63,0,0,,2,,,74,127
61572,note_off,0,0,0,,12,,,59,127
61573,note_on,1,0,0,,10,,,57,127
61573,note_on,0,0,0,,0,,,72,127
61636,note_off,63,0,0,,0,,,72,127
61636,note_off,0,0,0,,10,,,57,127
61637,note_on,1,0,0,,12,,,59,127
61637,note_on,0,0,0,,2,,,74,127
61700,note_off,63,0,0,,2,,,74,127
61700,note_off,0,0,0,,12,,,59,127
61701,note_on,1,0,0,,10,,,57,127
61701,note_on,0,0,0,,0,,,72,127
61764,note_off,63,0,0,,0,,,72,127
61764,note_off,0,0,0,,10,,,57,127
61765,note_on,1,0,0,,12,,,59,127
61765,note_on,0,0,0,,2,,,74,127
61828,note_off,63,0,0,,2,,,74,127
61828,note_off,0,0,0,,12,,,59,127
61829,note_on,1,0,0,,10,,,57,127
61829,note_on,0,0,0,,0,,,72,127
61892,note_off,63,0,0,,0,,,72,127
61892,note_off,0,0,0,,10,,,57,127
61893,note_on,1,0,0,,12,,,59,127
61893,note_on,0,0,0,,2,,,74,127
61956,note_off,63,0,0,,2,,,74,127
61956,note_off,0,0,0,,12,,,59,127
61957,note_on,1,0,0,,10,,,57,127
61957,note_on,0,0,0,,0,,,72,127
62020,note_off,63,0,0,,0,,,72,127
62020,note_off,0,0,0,,10,,,57,127
62021,note_on,1,0,0,,10,,,57,127
62021,note_on,0,0,0,,0,,,72,127
62404,note_off,383,0,0,,0,,,72,127
62404,note_off,0,0,0,,10,,,57,127
62405,note_on,1,0,0,,10,,,57,127
62405,note_on,0,0,0,,0,,,72,127
62512,note_off,107,0,0,,0,,,72,127
62512,note_off,0,0,0,,10,,,57,127
62533,note_on,21,0,0,,12,,,59,127
62533,note_on,0,0,0,,2,,,74,127
62596,note_off,63,0,0,,2,,,74,127
62596,note_off,0,0,0,,12,,,59,127
62597,note_on,1,0,0,,10,,,57,127
62597,note_on,0,0,0,,0,,,72,127
62660,note_off,63,0,0,,0,,,72,127
62660,note_off,0,0,0,,10,,,57,127
62661,note_on,1,0,0,,12,,,59,127
62661,note_on,0,0,0,,2,,,74,127
62724,note_off,63,0,0,,2,,,74,127
62724,note_off,0,0,0,,12,,,59,127
62725,note_on,1,0,0,,10,,,57,127
62725,note_on,0,0,0,,0,,,72,127
62788,note_off,63,0,0,,0,,,72,127
62788,note_off,0,0,0,,10,,,57,127
62789,note_on,1,0,0,,12,,,59,127
62789,note_on,0,0,0,,2,,,74,127
62852,note_off,63,0,0,,2,,,74,127
62852,note_off,0,0,0,,12,,,59,127
62853,note_on,1,0,0,,10,,,57,127
62853,note_on,0,0,0,,0,,,72,127
62916,note_off,63,0,0,,0,,,72,127
62916,note_off,0,0,0,,10,,,57,127
62917,note_on,1,0,0,,12,,,59,127
62917,note_on,0,0,0,,2,,,74,127
62980,note_off,63,0,0,,2,,,74,127
62980,note_off,0,0,0,,12,,,59,127
62981,note_on,1,0,0,,10,,,57,127
62981,note_on,0,0,0,,0,,,72,127
63044,note_off,63,0,0,,0,,,72,127
63044,note_off,0,0,0,,10,,,57,127
63045,note_on,1,0,0,,10,,,57,127
63045,note_on,0,0,0,,0,,,72,127
63428,note_off,383,0,0,,0,,,72,127
63428,note_off,0,0,0,,10,,,57,127
63429,note_on,1,0,0,,10,,,57,127
63429,note_on,0,0,0,,0,,,72,127
63522,note_off,93,0,0,,0,,,72,127
63522,note_off,0,0,0,,10,,,57,127
63557,note_on,35,0,0,,10,,,57,127
63557,note_on,0,0,0,,2,,,74,127
63620,note_off,63,0,0,,2,,,74,127
63621,note_on,1,0,0,,0,,,72,127
63684,note_off,63,0,0,,0,,,72,127
63685,note_on,1,0,0,,2,,,74,127
63748,note_off,63,0,0,,2,,,74,127
63749,note_on,1,0,0,,0,,,72,127
63812,note_off,63,0,0,,0,,,72,127
63813,note_on,1,0,0,,0,,,72,127
64064,note_off,251,0,0,,10,,,57,127
64068,note_off,4,0,0,,0,,,72,127
64069,note_on,1,0,0,,0,,,84,127
64581,note_on,512,0,0,,5,,,41,127
64581,note_on,0,0,0,,5,,,53,127
64708,note_off,127,0,0,,0,,,84,127
64709,note_on,1,0,0,,11,,,82,127
64836,note_off,127,0,0,,11,,,82,127
64837,note_on,1,0,0,,10,,,81,127
64964,note_off,127,0,0,,10,,,81,127
64965,note_on,1,0,0,,7,,,79,127
65092,note_off,127,0,0,,7,,,79,127
65093,note_on,1,0,0,,5,,,77,127
65220,note_off,127,0,0,,5,,,77,127
65221,note_on,1,0,0,,3,,,75,127
65348,note_off,127,0,0,,3,,,75,127
65348,note_off,0,0,0,,5,,,53,127
65348,note_off,0,0,0,,5,,,41,127
65349,note_on,1,0,0,,10,,,57,127
65349,note_on,0,0,0,,5,,,53,127
65349,note_on,0,0,0,,1,,,73,127
65476,note_off,127,0,0,,1,,,73,127
65477,note_on,1,0,0,,0,,,72,127
65604,note_off,127,0,0,,0,,,72,127
65604,note_off,0,0,0,,10,,,57,127
65605,note_on,1,0,0,,11,,,58,127
65605,note_on,0,0,0,,5,,,77,127
65732,note_off,127,0,0,,5,,,77,127
65733,note_on,1,0,0,,3,,,75,127
65860,note_off,127,0,0,,3,,,75,127
65860,note_off,0,0,0,,11,,,58,127
65861,note_on,1,0,0,,0,,,60,127
65861,note_on,0,0,0,,1,,,73,127
65988,note_off,127,0,0,,1,,,73,127
65989,note_on,1,0,0,,0,,,72,127
66116,note_off,127,0,0,,0,,,72,127
66116,note_off,0,0,0,,0,,,60,127
66117,note_on,1,0,0,,1,,,61,127
66117,note_on,0,0,0,,0,,,72,127
66201,note_off,84,0,0,,0,,,72,127
66202,note_on,1,0,0,,11,,,70,127
66286,note_off,84,0,0,,11,,,70,127
66287,note_on,1,0,0,,0,,,72,127
66371,note_off,84,0,0,,0,,,72,127
66371,note_off,0,0,0,,1,,,61,127
66372,note_on,1,0,0,,3,,,63,127
66372,note_on,0,0,0,,11,,,70,127
66456,note_off,84,0,0,,11,,,70,127
66457,note_on,1,0,0,,10,,,69,127
66541,note_off,84,0,0,,10,,,69,127
66542,note_on,1,0,0,,11,,,70,127
66626,note_off,84,0,0,,11,,,70,127
66626,note_off,0,0,0,,3,,,63,127
66627,note_off,1,0,0,,5,,,53,127
66627,note_on,0,0,0,,5,,,65,127
66627,note_on,0,0,0,,10,,,69,127
66754,note_off,127,0,0,,5,,,65,127
66755,note_on,1,0,0,,3,,,63,127
66882,note_off,127,0,0,,3,,,63,127
66882,note_off,0,0,0,,10,,,69,127
66883,note_on,1,0,0,,1,,,61,127
66883,note_on,0,0,0,,11,,,70,127
67010,note_off,127,0,0,,11,,,70,127
67010,note_off,0,0,0,,1,,,61,127
67011,note_on,1,0,0,,0,,,60,127
67011,note_on,0,0,0,,0,,,72,127
67138,note_off,127,0,0,,0,,,72,127
67138,note_off,0,0,0,,0,,,60,127
67139,note_on,1,0,0,,11,,,58,127
67139,note_on,0,0,0,,1,,,73,127
67266,note_off,127,0,0,,11,,,58,127
67267,note_on,1,0,0,,1,,,61,127
67394,note_off,127,0,0,,1,,,61,127
67394,note_off,0,0,0,,1,,,73,127
67395,note_on,1,0,0,,0,,,60,127
67395,note_on,0,0,0,,3,,,75,127
67522,note_off,127,0,0,,0,,,60,127
67523,note_on,1,0,0,,11,,,58,127
67650,note_off,127,0,0,,11,,,58,127
67650,note_off,0,0,0,,3,,,75,127
67651,note_on,1,0,0,,10,,,57,127
67651,note_on,0,0,0,,5,,,77,127
67778,note_off,127,0,0,,5,,,77,127
67779,note_on,1,0,0,,3,,,75,127
67906,note_off,127,0,0,,3,,,75,127
67906,note_off,0,0,0,,10,,,57,127
67907,note_on,1,0,0,,5,,,53,127
67907,note_on,0,0,0,,1,,,73,127
68034,note_off,127,0,0,,1,,,73,127
68035,note_on,1,0,0,,0,,,72,127
68162,note_off,127,0,0,,0,,,72,127
68162,note_off,0,0,0,,5,,,53,127
68163,note_on,1,0,0,,6,,,54,127
68163,note_on,0,0,0,,0,,,72,127
68247,note_off,84,0,0,,0,,,72,127
68248,note_on,1,0,0,,11,,,70,127
68332,note_off,84,0,0,,11,,,70,127
68333,note_on,1,0,0,,0,,,72,127
68417,note_off,84,0,0,,0,,,72,127
68417,note_off,0,0,0,,6,,,54,127
68418,note_on,1,0,0,,3,,,51,127
68418,note_on,0,0,0,,11,,,70,127
68502,note_off,84,0,0,,11,,,70,127
68503,note_on,1,0,0,,10,,,69,127
68587,note_off,84,0,0,,10,,,69,127
68588,note_on,1,0,0,,11,,,70,127
68672,note_off,84,0,0,,11,,,70,127
68672,note_off,0,0,0,,3,,,51,127
68673,note_on,1,0,0,,5,,,53,127
68673,note_on,0,0,0,,10,,,69,127
68800,note_off,127,0,0,,10,,,69,127
68801,note_on,1,0,0,,5,,,65,127
68928,note_off,127,0,0,,5,,,65,127
68928,note_off,0,0,0,,5,,,53,127
68929,note_on,1,0,0,,3,,,63,127
68929,note_on,0,0,0,,6,,,66,127
69056,note_off,127,0,0,,6,,,66,127
69057,note_on,1,0,0,,7,,,67,127
69184,note_off,127,0,0,,7,,,67,127
69184,note_off,0,0,0,,3,,,63,127
69185,note_on,1,0,0,,1,,,61,127
69185,note_on,0,0,0,,8,,,68,127
69312,note_off,127,0,0,,8,,,68,127
69313,note_on,1,0,0,,10,,,69,127
69440,note_off,127,0,0,,10,,,69,127
69440,note_off,0,0,0,,1,,,61,127
69441,note_on,1,0,0,,0,,,60,127
69441,note_on,0,0,0,,11,,,70,127
69568,note_off,127,0,0,,11,,,70,127
69569,note_on,1,0,0,,0,,,72,127
69696,note_off,127,0,0,,0,,,72,127
69696,note_off,0,0,0,,0,,,60,127
69697,note_on,1,0,0,,11,,,58,127
69697,note_on,0,0,0,,1,,,73,127
69824,note_off,127,0,0,,1,,,73,127
69825,note_on,1,0,0,,10,,,69,127
69952,note_off,127,0,0,,10,,,69,127
69952,note_off,0,0,0,,11,,,58,127
69953,note_on,1,0,0,,8,,,56,127
69953,note_on,0,0,0,,11,,,70,127
70080,note_off,127,0,0,,11,,,70,127
70081,note_on,1,0,0,,0,,,72,127
70208,note_off,127,0,0,,0,,,72,127
70208,note_off,0,0,0,,8,,,56,127
70209,note_on,1,0,0,,7,,,55,127
70209,note_on,0,0,0,,1,,,73,127
70336,note_off,127,0,0,,1,,,73,127
70337,note_on,1,0,0,,2,,,74,127
70464,note_off,127,0,0,,2,,,74,127
70464,note_off,0,0,0,,7,,,55,127
70465,note_on,1,0,0,,11,,,58,127
70465,note_on,0,0,0,,3,,,75,127
70592,note_off,127,0,0,,3,,,75,127
70593,note_on,1,0,0,,4,,,76,127
70720,note_off,127,0,0,,4,,,76,127
70720,note_off,0,0,0,,11,,,58,127
70721,note_on,1,0,0,,8,,,56,127
70721,note_on,0,0,0,,5,,,77,127
70848,note_off,127,0,0,,5,,,77,127
70849,note_on,1,0,0,,0,,,72,127
70976,note_off,127,0,0,,0,,,72,127
70976,note_off,0,0,0,,8,,,56,127
70977,note_on,1,0,0,,7,,,55,127
70977,note_on,0,0,0,,2,,,74,127
71104,note_off,127,0,0,,2,,,74,127
71105,note_on,1,0,0,,4,,,76,127
71232,note_off,127,0,0,,4,,,76,127
71232,note_off,0,0,0,,7,,,55,127
71233,note_on,1,0,0,,5,,,53,127
71233,note_on,0,0,0,,5,,,77,127
71360,note_off,127,0,0,,5,,,77,127
71361,note_on,1,0,0,,7,,,79,127
71488,note_off,127,0,0,,7,,,79,127
71488,note_off,0,0,0,,5,,,53,127
71489,note_on,1,0,0,,5,,,65,127
71489,note_on,0,0,0,,8,,,80,127
71616,note_off,127,0,0,,8,,,80,127
71617,note_on,1,0,0,,11,,,82,127
71744,note_off,127,0,0,,11,,,82,127
71744,note_off,0,0,0,,5,,,65,127
71745,note_on,1,0,0,,4,,,64,127
71745,note_on,0,0,0,,0,,,84,127
71872,note_off,127,0,0,,0,,,84,127
71873,note_on,1,0,0,,11,,,82,127
72000,note_off,127,0,0,,11,,,82,127
72000,note_off,0,0,0,,4,,,64,127
72001,note_on,1,0,0,,0,,,60,127
72001,note_on,0,0,0,,11,,,82,127
72128,note_off,127,0,0,,11,,,82,127
72129,note_on,1,0,0,,8,,,80,127
72256,note_off,127,0,0,,8,,,80,127
72256,note_off,0,0,0,,0,,,60,127
72257,note_on,1,0,0,,5,,,65,127
72257,note_on,0,0,0,,5,,,53,127
72257,note_on,0,0,0,,8,,,80,127
72384,note_off,127,0,0,,8,,,80,127
72385,note_on,1,0,0,,7,,,79,127
72512,note_off,127,0,0,,7,,,79,127
72512,note_off,0,0,0,,5,,,53,127
72513,note_on,1,0,0,,7,,,55,127
72513,note_on,0,0,0,,7,,,79,127
72640,note_off,127,0,0,,7,,,79,127
72641,note_on,1,0,0,,5,,,77,127
72768,note_off,127,0,0,,5,,,77,127
72768,note_off,0,0,0,,7,,,55,127
72769,note_on,1,0,0,,8,,,56,127
72769,note_on,0,0,0,,5,,,77,127
72896,note_off,127,0,0,,5,,,77,127
72897,note_on,1,0,0,,3,,,75,127
73024,note_off,127,0,0,,3,,,75,127
73024,note_off,0,0,0,,8,,,56,127
73025,note_on,1,0,0,,7,,,55,127
73025,note_on,0,0,0,,3,,,75,127
73152,note_off,127,0,0,,3,,,75,127
73153,note_on,1,0,0,,2,,,74,127
73280,note_off,127,0,0,,2,,,74,127
73280,note_off,0,0,0,,7,,,55,127
73281,note_on,1,0,0,,5,,,53,127
73281,note_on,0,0,0,,2,,,74,127
73408,note_off,127,0,0,,2,,,74,127
73409,note_on,1,0,0,,0,,,72,127
73536,note_off,127,0,0,,0,,,72,127
73536,note_off,0,0,0,,5,,,53,127
73537,note_on,1,0,0,,8,,,56,127
73537,note_on,0,0,0,,0,,,72,127
73664,note_off,127,0,0,,0,,,72,127
73665,note_on,1,0,0,,12,,,71,127
73790,note_off,125,0,0,,5,,,65,127
73791,note_off,1,0,0,,12,,,71,127
73791,note_off,0,0,0,,8,,,56,127
73792,note_on,1,0,0,,7,,,55,127
73792,note_on,0,0,0,,12,,,71,127
74047,note_off,255,0,0,,12,,,71,127
74048,note_on,1,0,0,,7,,,67,127
74048,note_on,0,0,0,,2,,,74,127
74124,note_off,76,0,0,,2,,,74,127
74125,note_on,1,0,0,,0,,,72,127
74201,note_off,76,0,0,,0,,,72,127
74202,note_on,1,0,0,,2,,,74,127
74278,note_off,76,0,0,,2,,,74,127
74279,note_on,1,0,0,,0,,,72,127
74298,note_off,19,0,0,,7,,,55,127
74303,note_on,5,0,0,,8,,,56,127
74350,note_off,47,0,0,,0,,,72,127
74351,note_on,1,0,0,,2,,,74,127
74427,note_off,76,0,0,,2,,,74,127
74428,note_on,1,0,0,,0,,,72,127
74504,note_off,76,0,0,,0,,,72,127
74505,note_on,1,0,0,,2,,,74,127
74553,note_off,48,0,0,,7,,,67,127
74558,note_on,5,0,0,,5,,,65,127
74578,note_off,20,0,0,,2,,,74,127
74579,note_on,1,0,0,,0,,,72,127
74655,note_off,76,0,0,,0,,,72,127
74656,note_on,1,0,0,,12,,,71,127
74732,note_off,76,0,0,,12,,,71,127
74733,note_on,1,0,0,,0,,,72,127
74808,note_off,75,0,0,,8,,,56,127
74812,note_off,4,0,0,,0,,,72,127
74812,note_off,0,0,0,,5,,,65,127
74813,note_on,1,0,0,,7,,,55,127
74813,note_on,0,0,0,,7,,,67,127
74813,note_on,0,0,0,,2,,,74,127
75066,note_off,253,0,0,,7,,,67,127
75067,note_off,1,0,0,,2,,,74,127
75068,note_on,1,0,0,,7,,,67,127
75323,note_off,255,0,0,,7,,,67,127
75323,note_off,0,0,0,,7,,,55,127
75324,note_on,1,0,0,,2,,,50,127
75324,note_on,0,0,0,,5,,,77,127
75579,note_off,255,0,0,,5,,,77,127
75580,note_on,1,0,0,,5,,,77,127
75664,note_off,84,0,0,,5,,,77,127
75665,note_on,1,0,0,,3,,,75,127
75749,note_off,84,0,0,,3,,,75,127
75750,note_on,1,0,0,,2,,,74,127
75834,note_off,84,0,0,,2,,,74,127
75834,note_off,0,0,0,,2,,,50,127
75835,note_on,1,0,0,,3,,,51,127
75835,note_on,0,0,0,,7,,,79,127
76090,note_off,255,0,0,,7,,,79,127
76091,note_on,1,0,0,,0,,,72,127
76346,note_off,255,0,0,,0,,,72,127
76346,note_off,0,0,0,,3,,,51,127
76347,note_on,1,0,0,,4,,,52,127
76347,note_on,0,0,0,,11,,,82,127
76602,note_off,255,0,0,,11,,,82,127
76603,note_on,1,0,0,,11,,,82,127
76687,note_off,84,0,0,,11,,,82,127
76688,note_on,1,0,0,,8,,,80,127
76772,note_off,84,0,0,,8,,,80,127
76773,note_on,1,0,0,,7,,,79,127
76857,note_off,84,0,0,,7,,,79,127
76857,note_off,0,0,0,,4,,,52,127
76858,note_on,1,0,0,,5,,,53,127
76858,note_on,0,0,0,,8,,,80,127
76985,note_off,127,0,0,,8,,,80,127
76985,note_off,0,0,0,,5,,,53,127
76986,note_on,1,0,0,,7,,,55,127
76986,note_on,0,0,0,,7,,,79,127
77113,note_off,127,0,0,,7,,,79,127
77113,note_off,0,0,0,,7,,,55,127
77114,note_on,1,0,0,,8,,,56,127
77114,note_on,0,0,0,,5,,,77,127
77241,note_off,127,0,0,,8,,,56,127
77242,note_on,1,0,0,,10,,,57,127
77369,note_off,127,0,0,,10,,,57,127
77370,note_on,1,0,0,,11,,,58,127
77497,note_off,127,0,0,,11,,,58,127
77498,note_on,1,0,0,,12,,,59,127
77625,note_off,127,0,0,,12,,,59,127
77625,note_off,0,0,0,,5,,,77,127
77626,note_on,1,0,0,,0,,,60,127
77626,note_on,0,0,0,,3,,,75,127
77753,note_off,127,0,0,,3,,,75,127
77753,note_off,0,0,0,,0,,,60,127
77754,note_on,1,0,0,,2,,,62,127
77754,note_on,0,0,0,,2,,,74,127
77881,note_off,127,0,0,,2,,,74,127
77881,note_off,0,0,0,,2,,,62,127
77882,note_on,1,0,0,,3,,,63,127
77882,note_on,0,0,0,,0,,,72,127
78009,note_off,127,0,0,,3,,,63,127
78010,note_on,1,0,0,,4,,,64,127
78137,note_off,127,0,0,,4,,,64,127
78138,note_on,1,0,0,,5,,,65,127
78265,note_off,127,0,0,,5,,,65,127
78266,note_on,1,0,0,,7,,,67,127
78393,note_off,127,0,0,,7,,,67,127
78394,note_on,1,0,0,,8,,,68,127
78521,note_off,127,0,0,,8,,,68,127
78522,note_on,1,0,0,,10,,,69,127
78649,note_off,127,0,0,,10,,,69,127
78650,note_on,1,0,0,,11,,,70,127
78777,note_off,127,0,0,,11,,,70,127
78778,note_on,1,0,0,,12,,,71,127
78905,note_off,127,0,0,,12,,,71,127
78905,note_off,0,0,0,,0,,,72,127
78906,note_on,1,0,0,,0,,,72,127
79161,note_off,255,0,0,,0,,,72,127
79162,note_on,1,0,0,,3,,,63,127
79162,note_on,0,0,0,,0,,,84,127
79417,note_off,255,0,0,,0,,,84,127
79417,note_off,0,0,0,,3,,,63,127
79418,note_on,1,0,0,,5,,,65,127
79418,note_on,0,0,0,,11,,,82,127
79502,note_off,84,0,0,,11,,,82,127
79503,note_on,1,0,0,,8,,,80,127
79587,note_off,84,0,0,,8,,,80,127
79588,note_on,1,0,0,,11,,,82,127
79672,note_off,84,0,0,,11,,,82,127
79672,note_off,0,0,0,,5,,,65,127
79673,note_on,1,0,0,,2,,,62,127
79673,note_on,0,0,0,,8,,,80,127
79757,note_off,84,0,0,,8,,,80,127
79758,note_on,1,0,0,,7,,,79,127
79842,note_off,84,0,0,,7,,,79,127
79843,note_on,1,0,0,,5,,,77,127
79927,note_off,84,0,0,,5,,,77,127
79927,note_off,0,0,0,,2,,,62,127
79928,note_on,1,0,0,,3,,,63,127
79928,note_on,0,0,0,,7,,,79,127
80012,note_off,84,0,0,,7,,,79,127
80013,note_on,1,0,0,,5,,,77,127
80097,note_off,84,0,0,,5,,,77,127
80098,note_on,1,0,0,,3,,,75,127
80182,note_off,84,0,0,,3,,,75,127
80182,note_off,0,0,0,,3,,,63,127
80183,note_on,1,0,0,,5,,,65,127
80183,note_on,0,0,0,,5,,,77,127
80267,note_off,84,0,0,,5,,,77,127
80268,note_on,1,0,0,,3,,,75,127
80352,note_off,84,0,0,,3,,,75,127
80353,note_on,1,0,0,,2,,,74,127
80437,note_off,84,0,0,,2,,,74,127
80437,note_off,0,0,0,,5,,,65,127
80438,note_on,1,0,0,,7,,,67,127
80438,note_on,0,0,0,,3,,,75,127
80522,note_off,84,0,0,,3,,,75,127
80523,note_on,1,0,0,,2,,,74,127
80607,note_off,84,0,0,,2,,,74,127
80608,note_on,1,0,0,,0,,,72,127
80692,note_off,84,0,0,,0,,,72,127
80692,note_off,0,0,0,,7,,,67,127
80693,note_on,1,0,0,,7,,,55,127
80693,note_on,0,0,0,,2,,,74,127
80777,note_off,84,0,0,,2,,,74,127
80778,note_on,1,0,0,,0,,,72,127
80862,note_off,84,0,0,,0,,,72,127
80863,note_on,1,0,0,,12,,,71,127
80947,note_off,84,0,0,,12,,,71,127
80947,note_off,0,0,0,,7,,,55,127
80948,note_on,1,0,0,,0,,,48,127
80948,note_on,0,0,0,,0,,,60,127
80948,note_on,0,0,0,,0,,,72,127
81203,note_off,255,0,0,,0,,,72,127
81204,note_on,1,0,0,,7,,,67,127
81459,note_off,255,0,0,,7,,,67,127
81459,note_off,0,0,0,,0,,,60,127
81459,note_off,0,0,0,,0,,,48,127
81460,note_on,1,0,0,,2,,,50,127
81460,note_on,0,0,0,,5,,,77,127
81715,note_off,255,0,0,,5,,,77,127
81716,note_on,1,0,0,,5,,,77,127
81800,note_off,84,0,0,,5,,,77,127
81801,note_on,1,0,0,,3,,,75,127
81885,note_off,84,0,0,,3,,,75,127
81886,note_on,1,0,0,,2,,,74,127
81970,note_off,84,0,0,,2,,,74,127
81970,note_off,0,0,0,,2,,,50,127
81971,note_on,1,0,0,,3,,,51,127
81971,note_on,0,0,0,,7,,,79,127
82226,note_off,255,0,0,,7,,,79,127
82227,note_on,1,0,0,,0,,,72,127
82482,note_off,255,0,0,,0,,,72,127
82482,note_off,0,0,0,,3,,,51,127
82483,note_on,1,0,0,,4,,,52,127
82483,note_on,0,0,0,,11,,,82,127
82738,note_off,255,0,0,,11,,,82,127
82739,note_on,1,0,0,,11,,,82,127
82823,note_off,84,0,0,,11,,,82,127
82824,note_on,1,0,0,,8,,,80,127
82908,note_off,84,0,0,,8,,,80,127
82909,note_on,1,0,0,,7,,,79,127
82993,note_off,84,0,0,,7,,,79,127
82993,note_off,0,0,0,,4,,,52,127
82994,note_on,1,0,0,,5,,,53,127
82994,note_on,0,0,0,,8,,,80,127
83121,note_off,127,0,0,,8,,,80,127
83121,note_off,0,0,0,,5,,,53,127
83122,note_on,1,0,0,,7,,,55,127
83122,note_on,0,0,0,,7,,,79,127
83249,note_off,127,0,0,,7,,,79,127
83249,note_off,0,0,0,,7,,,55,127
83250,note_on,1,0,0,,8,,,56,127
83250,note_on,0,0,0,,5,,,77,127
83377,note_off,127,0,0,,8,,,56,127
83378,note_on,1,0,0,,10,,,57,127
83505,note_off,127,0,0,,10,,,57,127
83506,note_on,1,0,0,,11,,,58,127
83633,note_off,127,0,0,,11,,,58,127
83634,note_on,1,0,0,,12,,,59,127
83761,note_off,127,0,0,,12,,,59,127
83761,note_off,0,0,0,,5,,,77,127
83762,note_on,1,0,0,,0,,,60,127
83762,note_on,0,0,0,,3,,,75,127
83889,note_off,127,0,0,,3,,,75,127
83889,note_off,0,0,0,,0,,,60,127
83890,note_on,1,0,0,,2,,,62,127
83890,note_on,0,0,0,,2,,,74,127
84017,note_off,127,0,0,,2,,,74,127
84017,note_off,0,0,0,,2,,,62,127
84018,note_on,1,0,0,,3,,,63,127
84018,note_on,0,0,0,,0,,,72,127
84145,note_off,127,0,0,,3,,,63,127
84146,note_on,1,0,0,,4,,,64,127
84273,note_off,127,0,0,,4,,,64,127
84274,note_on,1,0,0,,5,,,65,127
84401,note_off,127,0,0,,5,,,65,127
84402,note_on,1,0,0,,7,,,67,127
84529,note_off,127,0,0,,7,,,67,127
84530,note_on,1,0,0,,8,,,68,127
84657,note_off,127,0,0,,8,,,68,127
84658,note_on,1,0,0,,10,,,69,127
84785,note_off,127,0,0,,10,,,69,127
84786,note_on,1,0,0,,11,,,70,127
84913,note_off,127,0,0,,11,,,70,127
84914,note_on,1,0,0,,12,,,71,127
85041,note_off,127,0,0,,12,,,71,127
85041,note_off,0,0,0,,0,,,72,127
85042,note_on,1,0,0,,0,,,72,127
85297,note_off,255,0,0,,0,,,72,127
85298,note_on,1,0,0,,3,,,63,127
85298,note_on,0,0,0,,0,,,84,127
85553,note_off,255,0,0,,0,,,84,127
85553,note_off,0,0,0,,3,,,63,127
85554,note_on,1,0,0,,5,,,65,127
85554,note_on,0,0,0,,11,,,82,127
85638,note_off,84,0,0,,11,,,82,127
85639,note_on,1,0,0,,8,,,80,127
85723,note_off,84,0,0,,8,,,80,127
85724,note_on,1,0,0,,11,,,82,127
85808,note_off,84,0,0,,11,,,82,127
85808,note_off,0,0,0,,5,,,65,127
85809,note_on,1,0,0,,2,,,62,127
85809,note_on,0,0,0,,8,,,80,127
85893,note_off,84,0,0,,8,,,80,127
85894,note_on,1,0,0,,7,,,79,127
85978,note_off,84,0,0,,7,,,79,127
85979,note_on,1,0,0,,5,,,77,127
86063,note_off,84,0,0,,5,,,77,127
86063,note_off,0,0,0,,2,,,62,127
86064,note_on,1,0,0,,3,,,63,127
86064,note_on,0,0,0,,7,,,79,127
86148,note_off,84,0,0,,7,,,79,127
86149,note_on,1,0,0,,5,,,77,127
86233,note_off,84,0,0,,5,,,77,127
86234,note_on,1,0,0,,3,,,75,127
86318,note_off,84,0,0,,3,,,75,127
86318,note_off,0,0,0,,3,,,63,127
86319,note_on,1,0,0,,5,,,65,127
86319,note_on,0,0,0,,5,,,77,127
86403,note_off,84,0,0,,5,,,77,127
86404,note_on,1,0,0,,3,,,75,127
86488,note_off,84,0,0,,3,,,75,127
86489,note_on,1,0,0,,2,,,74,127
86573,note_off,84,0,0,,2,,,74,127
86573,note_off,0,0,0,,5,,,65,127
86574,note_on,1,0,0,,7,,,67,127
86574,note_on,0,0,0,,3,,,75,127
86658,note_off,84,0,0,,3,,,75,127
86659,note_on,1,0,0,,2,,,74,127
86743,note_off,84,0,0,,2,,,74,127
86744,note_on,1,0,0,,0,,,72,127
86828,note_off,84,0,0,,0,,,72,127
86828,note_off,0,0,0,,7,,,67,127
86829,note_on,1,0,0,,7,,,55,127
86829,note_on,0,0,0,,2,,,74,127
86913,note_off,84,0,0,,2,,,74,127
86914,note_on,1,0,0,,0,,,72,127
86998,note_off,84,0,0,,0,,,72,127
86999,note_on,1,0,0,,12,,,71,127
87083,note_off,84,0,0,,12,,,71,127
87083,note_off,0,0,0,,7,,,55,127
87084,note_on,1,0,0,,0,,,60,127
87084,note_on,0,0,0,,0,,,72,127
87211,note_off,127,0,0,,0,,,72,127
87212,note_on,1,0,0,,7,,,67,127
87339,note_off,127,0,0,,7,,,67,127
87339,note_off,0,0,0,,0,,,60,127
87340,note_on,1,0,0,,11,,,58,127
87340,note_on,0,0,0,,3,,,75,127
87467,note_off,127,0,0,,3,,,75,127
87468,note_on,1,0,0,,2,,,74,127
87595,note_off,127,0,0,,2,,,74,127
87595,note_off,0,0,0,,11,,,58,127
87596,note_on,1,0,0,,8,,,56,127
87596,note_on,0,0,0,,2,,,74,127
87723,note_off,127,0,0,,2,,,74,127
87724,note_on,1,0,0,,0,,,72,127
87851,note_off,127,0,0,,8,,,56,127
87852,note_on,1,0,0,,7,,,55,127
87852,note_on,0,0,0,,0,,,84,127
87979,note_off,127,0,0,,0,,,84,127
87980,note_on,1,0,0,,11,,,82,127
88107,note_off,127,0,0,,11,,,82,127
88107,note_off,0,0,0,,7,,,55,127
88108,note_on,1,0,0,,5,,,53,127
88108,note_on,0,0,0,,11,,,82,127
88231,note_off,123,0,0,,0,,,72,127
88235,note_off,4,0,0,,11,,,82,127
88236,note_on,1,0,0,,8,,,80,127
88363,note_off,127,0,0,,5,,,53,127
88364,note_on,1,0,0,,3,,,51,127
88364,note_on,0,0,0,,2,,,74,127
88491,note_off,127,0,0,,2,,,74,127
88492,note_on,1,0,0,,0,,,72,127
88619,note_off,127,0,0,,0,,,72,127
88619,note_off,0,0,0,,3,,,51,127
88620,note_on,1,0,0,,2,,,50,127
88620,note_on,0,0,0,,0,,,72,127
88743,note_off,123,0,0,,8,,,80,127
88747,note_off,4,0,0,,0,,,72,127
88748,note_on,1,0,0,,12,,,71,127
88875,note_off,127,0,0,,2,,,50,127
88876,note_on,1,0,0,,0,,,48,127
88876,note_on,0,0,0,,5,,,77,127
89003,note_off,127,0,0,,5,,,77,127
89004,note_on,1,0,0,,3,,,75,127
89131,note_off,127,0,0,,3,,,75,127
89131,note_off,0,0,0,,0,,,48,127
89132,note_on,1,0,0,,12,,,47,127
89132,note_on,0,0,0,,3,,,75,127
89255,note_off,123,0,0,,12,,,71,127
89259,note_off,4,0,0,,3,,,75,127
89260,note_on,1,0,0,,2,,,74,127
89387,note_off,127,0,0,,12,,,47,127
89388,note_on,1,0,0,,8,,,44,127
89388,note_on,0,0,0,,7,,,67,127
89515,note_off,127,0,0,,7,,,67,127
89516,note_on,1,0,0,,5,,,65,127
89643,note_off,127,0,0,,5,,,65,127
89643,note_off,0,0,0,,8,,,44,127
89644,note_on,1,0,0,,7,,,43,127
89644,note_on,0,0,0,,5,,,65,127
89767,note_off,123,0,0,,2,,,74,127
89771,note_off,4,0,0,,5,,,65,127
89772,note_on,1,0,0,,3,,,63,127
89899,note_off,127,0,0,,7,,,43,127
89900,note_on,1,0,0,,5,,,41,127
89900,note_on,0,0,0,,0,,,72,127
90025,note_off,125,0,0,,3,,,63,127
90026,note_off,1,0,0,,0,,,72,127
90027,note_on,1,0,0,,12,,,71,127
90027,note_on,0,0,0,,2,,,62,127
90154,note_off,127,0,0,,2,,,62,127
90154,note_off,0,0,0,,12,,,71,127
90154,note_off,0,0,0,,5,,,41,127
90155,note_on,1,0,0,,3,,,39,127
90155,note_on,0,0,0,,0,,,72,127
90155,note_on,0,0,0,,0,,,60,127
90282,note_off,127,0,0,,0,,,72,127
90283,note_on,1,0,0,,7,,,67,127
90408,note_off,125,0,0,,0,,,60,127
90409,note_off,1,0,0,,7,,,67,127
90409,note_off,0,0,0,,3,,,39,127
90410,note_on,1,0,0,,5,,,41,127
90410,note_on,0,0,0,,8,,,68,127
90537,note_off,127,0,0,,8,,,68,127
90538,note_on,1,0,0,,5,,,65,127
90665,note_off,127,0,0,,5,,,65,127
90665,note_off,0,0,0,,5,,,41,127
90666,note_on,1,0,0,,7,,,43,127
90666,note_on,0,0,0,,3,,,63,127
90794,note_on,128,0,0,,0,,,72,127
90919,note_off,125,0,0,,3,,,63,127
90920,note_off,1,0,0,,0,,,72,127
90920,note_off,0,0,0,,7,,,43,127
90921,note_on,1,0,0,,7,,,31,127
90921,note_on,0,0,0,,2,,,62,127
91049,note_on,128,0,0,,12,,,71,127
91174,note_off,125,0,0,,2,,,62,127
91175,note_off,1,0,0,,12,,,71,127
91175,note_off,0,0,0,,7,,,31,127
91176,note_on,1,0,0,,0,,,60,127
91176,note_on,0,0,0,,0,,,72,127
91303,note_off,127,0,0,,0,,,72,127
91304,note_on,1,0,0,,7,,,67,127
91431,note_off,127,0,0,,7,,,67,127
91431,note_off,0,0,0,,0,,,60,127
91432,note_on,1,0,0,,11,,,58,127
91432,note_on,0,0,0,,3,,,75,127
91559,note_off,127,0,0,,3,,,75,127
91560,note_on,1,0,0,,2,,,74,127
91687,note_off,127,0,0,,2,,,74,127
91687,note_off,0,0,0,,11,,,58,127
91688,note_on,1,0,0,,8,,,56,127
91688,note_on,0,0,0,,2,,,74,127
91815,note_off,127,0,0,,2,,,74,127
91816,note_on,1,0,0,,0,,,72,127
91943,note_off,127,0,0,,8,,,56,127
91944,note_on,1,0,0,,7,,,55,127
91944,note_on,0,0,0,,0,,,84,127
92069,note_off,125,0,0,,0,,,72,127
92070,note_off,1,0,0,,0,,,84,127
92071,note_on,1,0,0,,11,,,82,127
92198,note_off,127,0,0,,11,,,82,127
92198,note_off,0,0,0,,7,,,55,127
92199,note_on,1,0,0,,5,,,53,127
92199,note_on,0,0,0,,11,,,82,127
92326,note_off,127,0,0,,11,,,82,127
92327,note_on,1,0,0,,8,,,80,127
92454,note_off,127,0,0,,5,,,53,127
92455,note_on,1,0,0,,3,,,51,127
92455,note_on,0,0,0,,2,,,74,127
92580,note_off,125,0,0,,8,,,80,127
92581,note_off,1,0,0,,2,,,74,127
92582,note_on,1,0,0,,0,,,72,127
92709,note_off,127,0,0,,0,,,72,127
92709,note_off,0,0,0,,3,,,51,127
92710,note_on,1,0,0,,2,,,50,127
92710,note_on,0,0,0,,0,,,72,127
92837,note_off,127,0,0,,0,,,72,127
92838,note_on,1,0,0,,12,,,71,127
92965,note_off,127,0,0,,2,,,50,127
92966,note_on,1,0,0,,0,,,48,127
92966,note_on,0,0,0,,5,,,77,127
93091,note_off,125,0,0,,12,,,71,127
93092,note_off,1,0,0,,5,,,77,127
93093,note_on,1,0,0,,3,,,75,127
93220,note_off,127,0,0,,3,,,75,127
93220,note_off,0,0,0,,0,,,48,127
93221,note_on,1,0,0,,12,,,47,127
93221,note_on,0,0,0,,3,,,75,127
93348,note_off,127,0,0,,3,,,75,127
93349,note_on,1,0,0,,2,,,74,127
93476,note_off,127,0,0,,12,,,47,127
93477,note_on,1,0,0,,8,,,44,127
93477,note_on,0,0,0,,7,,,67,127
93602,note_off,125,0,0,,2,,,74,127
93603,note_off,1,0,0,,7,,,67,127
93604,note_on,1,0,0,,5,,,65,127
93731,note_off,127,0,0,,5,,,65,127
93731,note_off,0,0,0,,8,,,44,127
93732,note_on,1,0,0,,7,,,43,127
93732,note_on,0,0,0,,5,,,65,127
93859,note_off,127,0,0,,5,,,65,127
93860,note_on,1,0,0,,3,,,63,127
93987,note_off,127,0,0,,7,,,43,127
93988,note_on,1,0,0,,5,,,41,127
93988,note_on,0,0,0,,0,,,72,127
94113,note_off,125,0,0,,3,,,63,127
94114,note_off,1,0,0,,0,,,72,127
94115,note_on,1,0,0,,12,,,71,127
94115,note_on,0,0,0,,2,,,62,127
94242,note_off,127,0,0,,2,,,62,127
94242,note_off,0,0,0,,12,,,71,127
94242,note_off,0,0,0,,5,,,41,127
94243,note_on,1,0,0,,3,,,39,127
94243,note_on,0,0,0,,0,,,72,127
94243,note_on,0,0,0,,0,,,60,127
94370,note_off,127,0,0,,0,,,72,127
94371,note_on,1,0,0,,7,,,67,127
94496,note_off,125,0,0,,0,,,60,127
94497,note_off,1,0,0,,7,,,67,127
94497,note_off,0,0,0,,3,,,39,127
94498,note_on,1,0,0,,5,,,41,127
94498,note_on,0,0,0,,8,,,68,127
94625,note_off,127,0,0,,8,,,68,127
94626,note_on,1,0,0,,5,,,65,127
94753,note_off,127,0,0,,5,,,65,127
94753,note_off,0,0,0,,5,,,41,127
94754,note_on,1,0,0,,7,,,43,127
94754,note_on,0,0,0,,3,,,63,127
94881,note_off,127,0,0,,3,,,63,127
94882,note_on,1,0,0,,0,,,72,127
95009,note_off,127,0,0,,0,,,72,127
95009,note_off,0,0,0,,7,,,43,127
95010,note_on,1,0,0,,7,,,31,127
95010,note_on,0,0,0,,2,,,62,127
95137,note_off,127,0,0,,2,,,62,127
95138,note_on,1,0,0,,12,,,71,127
95265,note_off,127,0,0,,12,,,71,127
95265,note_off,0,0,0,,7,,,31,127
95266,note_on,1,0,0,,7,,,43,127
95266,note_on,0,0,0,,0,,,36,127
95266,note_on,0,0,0,,0,,,72,127
95350,note_off,84,0,0,,0,,,72,127
95351,note_on,1,0,0,,0,,,84,127
95435,note_off,84,0,0,,0,,,84,127
95436,note_on,1,0,0,,7,,,79,127
95520,note_off,84,0,0,,7,,,79,127
95521,note_on,1,0,0,,3,,,75,127
95605,note_off,84,0,0,,3,,,75,127
95606,note_on,1,0,0,,0,,,72,127
95690,note_off,84,0,0,,0,,,72,127
95691,note_on,1,0,0,,7,,,79,127
95775,note_off,84,0,0,,7,,,79,127
95776,note_on,1,0,0,,7,,,67,127
95776,note_on,0,0,0,,7,,,79,127
95860,note_off,84,0,0,,7,,,79,127
95861,note_on,1,0,0,,5,,,77,127
95904,note_off,43,0,0,,0,,,36,127
95904,note_off,0,0,0,,7,,,43,127
95945,note_off,41,0,0,,5,,,77,127
95946,note_on,1,0,0,,7,,,79,127
96030,note_off,84,0,0,,7,,,79,127
96031,note_on,1,0,0,,7,,,43,127
96031,note_on,0,0,0,,7,,,31,127
96031,note_on,0,0,0,,5,,,77,127
96115,note_off,84,0,0,,5,,,77,127
96116,note_on,1,0,0,,3,,,75,127
96200,note_off,84,0,0,,3,,,75,127
96201,note_on,1,0,0,,2,,,74,127
96281,note_off,80,0,0,,7,,,67,127
96285,note_off,4,0,0,,2,,,74,127
96285,note_off,0,0,0,,7,,,31,127
96285,note_off,0,0,0,,7,,,43,127
96286,note_on,1,0,0,,0,,,36,127
96286,note_on,0,0,0,,7,,,43,127
96286,note_on,0,0,0,,0,,,72,127
96371,note_on,85,0,0,,0,,,84,127
96455,note_off,84,0,0,,0,,,84,127
96456,note_on,1,0,0,,7,,,79,127
96540,note_off,84,0,0,,7,,,79,127
96541,note_on,1,0,0,,3,,,75,127
96618,note_off,77,0,0,,0,,,72,127
96625,note_off,7,0,0,,3,,,75,127
96626,note_on,1,0,0,,0,,,72,127
96710,note_off,84,0,0,,0,,,72,127
96711,note_on,1,0,0,,3,,,75,127
96795,note_off,84,0,0,,3,,,75,127
96796,note_on,1,0,0,,7,,,67,127
96796,note_on,0,0,0,,3,,,75,127
96880,note_off,84,0,0,,3,,,75,127
96881,note_on,1,0,0,,2,,,74,127
96924,note_off,43,0,0,,7,,,43,127
96924,note_off,0,0,0,,0,,,36,127
96965,note_off,41,0,0,,2,,,74,127
96966,note_on,1,0,0,,3,,,75,127
97050,note_off,84,0,0,,3,,,75,127
97051,note_on,1,0,0,,7,,,43,127
97051,note_on,0,0,0,,7,,,31,127
97051,note_on,0,0,0,,2,,,74,127
97135,note_off,84,0,0,,2,,,74,127
97136,note_on,1,0,0,,0,,,72,127
97220,note_off,84,0,0,,0,,,72,127
97221,note_on,1,0,0,,12,,,71,127
97301,note_off,80,0,0,,7,,,67,127
97305,note_off,4,0,0,,12,,,71,127
97305,note_off,0,0,0,,7,,,31,127
97305,note_off,0,0,0,,7,,,43,127
97306,note_on,1,0,0,,7,,,43,127
97306,note_on,0,0,0,,0,,,36,127
97306,note_on,0,0,0,,0,,,72,127
97391,note_on,85,0,0,,0,,,84,127
97475,note_off,84,0,0,,0,,,84,127
97476,note_on,1,0,0,,7,,,79,127
97560,note_off,84,0,0,,7,,,79,127
97561,note_on,1,0,0,,3,,,75,127
97638,note_off,77,0,0,,0,,,72,127
97645,note_off,7,0,0,,3,,,75,127
97646,note_on,1,0,0,,0,,,72,127
97730,note_off,84,0,0,,0,,,72,127
97731,note_on,1,0,0,,7,,,79,127
97815,note_off,84,0,0,,7,,,79,127
97816,note_on,1,0,0,,7,,,67,127
97816,note_on,0,0,0,,7,,,79,127
97900,note_off,84,0,0,,7,,,79,127
97901,note_on,1,0,0,,5,,,77,127
97944,note_off,43,0,0,,0,,,36,127
97944,note_off,0,0,0,,7,,,43,127
97985,note_off,41,0,0,,5,,,77,127
97986,note_on,1,0,0,,7,,,79,127
98070,note_off,84,0,0,,7,,,79,127
98071,note_on,1,0,0,,7,,,43,127
98071,note_on,0,0,0,,7,,,31,127
98071,note_on,0,0,0,,5,,,77,127
98155,note_off,84,0,0,,5,,,77,127
98156,note_on,1,0,0,,3,,,75,127
98240,note_off,84,0,0,,3,,,75,127
98241,note_on,1,0,0,,2,,,74,127
98321,note_off,80,0,0,,7,,,67,127
98325,note_off,4,0,0,,2,,,74,127
98325,note_off,0,0,0,,7,,,31,127
98325,note_off,0,0,0,,7,,,43,127
98326,note_on,1,0,0,,7,,,43,127
98326,note_on,0,0,0,,0,,,36,127
98326,note_on,0,0,0,,0,,,72,127
98411,note_on,85,0,0,,0,,,84,127
98495,note_off,84,0,0,,0,,,84,127
98496,note_on,1,0,0,,7,,,79,127
98580,note_off,84,0,0,,7,,,79,127
98581,note_on,1,0,0,,3,,,75,127
98658,note_off,77,0,0,,0,,,72,127
98665,note_off,7,0,0,,3,,,75,127
98666,note_on,1,0,0,,0,,,72,127
98750,note_off,84,0,0,,0,,,72,127
98751,note_on,1,0,0,,3,,,75,127
98835,note_off,84,0,0,,3,,,75,127
98836,note_on,1,0,0,,7,,,67,127
98836,note_on,0,0,0,,3,,,75,127
98920,note_off,84,0,0,,3,,,75,127
98921,note_on,1,0,0,,2,,,74,127
98964,note_off,43,0,0,,0,,,36,127
98964,note_off,0,0,0,,7,,,43,127
99005,note_off,41,0,0,,2,,,74,127
99006,note_on,1,0,0,,3,,,75,127
99090,note_off,84,0,0,,3,,,75,127
99091,note_on,1,0,0,,7,,,43,127
99091,note_on,0,0,0,,7,,,31,127
99091,note_on,0,0,0,,2,,,74,127
99175,note_off,84,0,0,,2,,,74,127
99176,note_on,1,0,0,,0,,,72,127
99260,note_off,84,0,0,,0,,,72,127
99261,note_on,1,0,0,,12,,,71,127
99341,note_off,80,0,0,,7,,,67,127
99345,note_off,4,0,0,,12,,,71,127
99345,note_off,0,0,0,,7,,,31,127
99345,note_off,0,0,0,,7,,,43,127
99346,note_on,1,0,0,,0,,,36,127
99346,note_on,0,0,0,,0,,,72,127
99473,note_off,127,0,0,,0,,,72,127
99481,note_on,8,0,0,,7,,,67,127
99601,note_off,120,0,0,,0,,,36,127
99614,note_off,13,0,0,,7,,,67,127
99618,note_on,4,0,0,,8,,,68,127
99618,note_on,0,0,0,,5,,,41,127
99751,note_off,133,0,0,,8,,,68,127
99755,note_on,4,0,0,,5,,,65,127
99887,note_off,132,0,0,,5,,,41,127
99888,note_off,1,0,0,,5,,,65,127
99892,note_on,4,0,0,,3,,,63,127
99892,note_on,0,0,0,,7,,,43,127
100025,note_off,133,0,0,,3,,,63,127
100028,note_on,3,0,0,,0,,,72,127
100161,note_off,133,0,0,,0,,,72,127
100165,note_on,4,0,0,,2,,,62,127
100165,note_on,0,0,0,,7,,,31,127
100298,note_off,133,0,0,,2,,,62,127
100302,note_on,4,0,0,,12,,,71,127
100427,note_off,125,0,0,,7,,,43,127
100434,note_off,7,0,0,,7,,,31,127
100435,note_off,1,0,0,,12,,,71,127
100454,note_on,19,0,0,,0,,,72,127
100454,note_on,0,0,0,,0,,,36,127
102673,note_off,2219,0,0,,0,,,36,127
102673,note_off,0,0,0,,0,,,72,127
104448,end_of_track,1775,1,0,,,,,,
