tick,type,time,meta,track,program,channel,pitch,tempo,note,velocity
0,copyright,0,1,0,,,,,,
0,program_change,0,0,0,6,0,,,,
0,pitchwheel,0,0,0,,0,0,,,
0,program_change,0,0,0,6,1,,,,
0,pitchwheel,0,0,0,,1,-590,,,
0,program_change,0,0,0,6,2,,,,
0,pitchwheel,0,0,0,,2,-272,,,
0,program_change,0,0,0,6,3,,,,
0,pitchwheel,0,0,0,,3,-353,,,
0,program_change,0,0,0,6,4,,,,
0,pitchwheel,0,0,0,,4,-560,,,
0,program_change,0,0,0,6,5,,,,
0,pitchwheel,0,0,0,,5,-80,,,
0,program_change,0,0,0,6,6,,,,
0,pitchwheel,0,0,0,,6,-625,,,
0,program_change,0,0,0,6,7,,,,
0,pitchwheel,0,0,0,,7,-130,,,
0,program_change,0,0,0,6,8,,,,
0,pitchwheel,0,0,0,,8,-512,,,
0,program_change,0,0,0,6,10,,,,
0,pitchwheel,0,0,0,,10,-464,,,
0,program_change,0,0,0,6,11,,,,
0,pitchwheel,0,0,0,,11,-208,,,
0,program_change,0,0,0,6,12,,,,
0,pitchwheel,0,0,0,,12,-553,,,
0,set_tempo,0,1,0,,,,500000,,
149,note_on,149,0,0,,7,,,79,127
149,note_on,0,0,0,,0,,,48,127
445,note_off,296,0,0,,0,,,48,127
447,note_on,2,0,0,,0,,,60,127
447,note_on,0,0,0,,4,,,64,127
594,note_off,147,0,0,,7,,,79,127
596,note_on,2,0,0,,5,,,77,127
669,note_off,73,0,0,,5,,,77,127
671,note_on,2,0,0,,4,,,76,127
744,note_off,73,0,0,,4,,,76,127
744,note_off,0,0,0,,4,,,64,127
744,note_off,0,0,0,,0,,,60,127
746,note_on,2,0,0,,2,,,74,127
746,note_on,0,0,0,,5,,,65,127
746,note_on,0,0,0,,2,,,62,127
1009,note_off,263,0,0,,2,,,74,127
1042,note_off,33,0,0,,2,,,62,127
1042,note_off,0,0,0,,5,,,65,127
1044,note_on,2,0,0,,5,,,77,127
1044,note_on,0,0,0,,2,,,50,127
1340,note_off,296,0,0,,2,,,50,127
1342,note_on,2,0,0,,2,,,62,127
1342,note_on,0,0,0,,5,,,65,127
1489,note_off,147,0,0,,5,,,77,127
1491,note_on,2,0,0,,4,,,76,127
1564,note_off,73,0,0,,4,,,76,127
1566,note_on,2,0,0,,2,,,74,127
1639,note_off,73,0,0,,2,,,74,127
1639,note_off,0,0,0,,5,,,65,127
1639,note_off,0,0,0,,2,,,62,127
1641,note_on,2,0,0,,0,,,72,127
1641,note_on,0,0,0,,4,,,64,127
1641,note_on,0,0,0,,7,,,67,127
1935,note_off,294,0,0,,0,,,72,127
1937,note_off,2,0,0,,7,,,67,127
1937,note_off,0,0,0,,4,,,64,127
1939,note_on,2,0,0,,0,,,84,127
1939,note_on,0,0,0,,0,,,72,127
1939,note_on,0,0,0,,5,,,53,127
2233,note_off,294,0,0,,5,,,53,127
2235,note_off,2,0,0,,0,,,84,127
2237,note_on,2,0,0,,12,,,83,127
2237,note_on,0,0,0,,5,,,65,127
2384,note_off,147,0,0,,12,,,83,127
2386,note_on,2,0,0,,10,,,81,127
2533,note_off,147,0,0,,10,,,81,127
2533,note_off,0,0,0,,5,,,65,127
2535,note_on,2,0,0,,7,,,79,127
2535,note_on,0,0,0,,4,,,64,127
2831,note_off,296,0,0,,0,,,72,127
2833,note_on,2,0,0,,7,,,55,127
3124,note_off,291,0,0,,4,,,64,127
3129,note_off,5,0,0,,7,,,79,127
3131,note_on,2,0,0,,7,,,79,127
3131,note_on,0,0,0,,2,,,62,127
3204,note_off,73,0,0,,7,,,79,127
3206,note_on,2,0,0,,5,,,77,127
3279,note_off,73,0,0,,5,,,77,127
3281,note_on,2,0,0,,7,,,79,127
3354,note_off,73,0,0,,7,,,79,127
3356,note_on,2,0,0,,5,,,77,127
3424,note_off,68,0,0,,7,,,55,127
3429,note_off,5,0,0,,5,,,77,127
3429,note_off,0,0,0,,2,,,62,127
3431,note_on,2,0,0,,4,,,76,127
3431,note_on,0,0,0,,0,,,60,127
3725,note_off,294,0,0,,4,,,76,127
3727,note_off,2,0,0,,0,,,60,127
3741,note_on,14,0,0,,4,,,64,127
4038,note_on,297,0,0,,7,,,67,127
4038,note_on,0,0,0,,7,,,79,127
4185,note_off,147,0,0,,4,,,64,127
4187,note_on,2,0,0,,2,,,62,127
4260,note_off,73,0,0,,2,,,62,127
4262,note_on,2,0,0,,0,,,60,127
4335,note_off,73,0,0,,0,,,60,127
4335,note_off,0,0,0,,7,,,79,127
4337,note_on,2,0,0,,12,,,59,127
4337,note_on,0,0,0,,5,,,77,127
4628,note_off,291,0,0,,7,,,67,127
4631,note_off,3,0,0,,5,,,77,127
4633,note_off,2,0,0,,12,,,59,127
4635,note_on,2,0,0,,0,,,60,127
4932,note_on,297,0,0,,4,,,76,127
4932,note_on,0,0,0,,7,,,67,127
5079,note_off,147,0,0,,0,,,60,127
5081,note_on,2,0,0,,12,,,59,127
5154,note_off,73,0,0,,12,,,59,127
5156,note_on,2,0,0,,10,,,57,127
5229,note_off,73,0,0,,10,,,57,127
5229,note_off,0,0,0,,4,,,76,127
5231,note_on,2,0,0,,7,,,55,127
5231,note_on,0,0,0,,2,,,74,127
5522,note_off,291,0,0,,7,,,67,127
5525,note_off,3,0,0,,2,,,74,127
5527,note_off,2,0,0,,7,,,55,127
5529,note_on,2,0,0,,4,,,64,127
5826,note_on,297,0,0,,7,,,67,127
5826,note_on,0,0,0,,7,,,79,127
5973,note_off,147,0,0,,4,,,64,127
5975,note_on,2,0,0,,2,,,62,127
6048,note_off,73,0,0,,2,,,62,127
6050,note_on,2,0,0,,0,,,60,127
6123,note_off,73,0,0,,0,,,60,127
6123,note_off,0,0,0,,7,,,79,127
6125,note_on,2,0,0,,12,,,59,127
6125,note_on,0,0,0,,5,,,77,127
6416,note_off,291,0,0,,7,,,67,127
6419,note_off,3,0,0,,5,,,77,127
6421,note_off,2,0,0,,12,,,59,127
6423,note_on,2,0,0,,0,,,60,127
6720,note_on,297,0,0,,4,,,76,127
6720,note_on,0,0,0,,7,,,67,127
6867,note_off,147,0,0,,0,,,60,127
6869,note_on,2,0,0,,12,,,59,127
6942,note_off,73,0,0,,12,,,59,127
6944,note_on,2,0,0,,10,,,57,127
7017,note_off,73,0,0,,10,,,57,127
7017,note_off,0,0,0,,4,,,76,127
7019,note_on,2,0,0,,7,,,55,127
7019,note_on,0,0,0,,2,,,74,127
7310,note_off,291,0,0,,7,,,67,127
7315,note_off,5,0,0,,2,,,74,127
7315,note_off,0,0,0,,7,,,55,127
7317,note_on,2,0,0,,4,,,52,127
7317,note_on,0,0,0,,0,,,60,127
7317,note_on,0,0,0,,10,,,81,127
7390,note_off,73,0,0,,10,,,81,127
7392,note_on,2,0,0,,7,,,79,127
7465,note_off,73,0,0,,7,,,79,127
7467,note_on,2,0,0,,5,,,77,127
7540,note_off,73,0,0,,5,,,77,127
7542,note_on,2,0,0,,7,,,79,127
7615,note_off,73,0,0,,7,,,79,127
7615,note_off,0,0,0,,4,,,52,127
7617,note_on,2,0,0,,5,,,53,127
7617,note_on,0,0,0,,10,,,81,127
7913,note_off,296,0,0,,10,,,81,127
7913,note_off,0,0,0,,5,,,53,127
7915,note_on,2,0,0,,4,,,52,127
7915,note_on,0,0,0,,0,,,72,127
8211,note_off,296,0,0,,0,,,72,127
8211,note_off,0,0,0,,4,,,52,127
8211,note_off,0,0,0,,0,,,60,127
8213,note_on,2,0,0,,5,,,53,127
8213,note_on,0,0,0,,2,,,50,127
8213,note_on,0,0,0,,0,,,72,127
8509,note_off,296,0,0,,0,,,72,127
8511,note_on,2,0,0,,12,,,71,127
8807,note_off,296,0,0,,12,,,71,127
8807,note_off,0,0,0,,2,,,50,127
8807,note_off,0,0,0,,5,,,53,127
8809,note_on,2,0,0,,7,,,55,127
8809,note_on,0,0,0,,4,,,52,127
8809,note_on,0,0,0,,0,,,72,127
9105,note_off,296,0,0,,0,,,72,127
9105,note_off,0,0,0,,4,,,52,127
9107,note_on,2,0,0,,5,,,53,127
9107,note_on,0,0,0,,2,,,50,127
9107,note_on,0,0,0,,12,,,71,127
9403,note_off,296,0,0,,12,,,71,127
9403,note_off,0,0,0,,2,,,50,127
9403,note_off,0,0,0,,5,,,53,127
9405,note_on,2,0,0,,4,,,52,127
9405,note_on,0,0,0,,0,,,48,127
9405,note_on,0,0,0,,2,,,74,127
9478,note_off,73,0,0,,2,,,74,127
9480,note_on,2,0,0,,0,,,72,127
9553,note_off,73,0,0,,0,,,72,127
9555,note_on,2,0,0,,2,,,74,127
9628,note_off,73,0,0,,2,,,74,127
9630,note_on,2,0,0,,0,,,72,127
9703,note_off,73,0,0,,0,,,72,127
9705,note_on,2,0,0,,2,,,74,127
9778,note_off,73,0,0,,2,,,74,127
9780,note_on,2,0,0,,0,,,72,127
9853,note_off,73,0,0,,0,,,72,127
9855,note_on,2,0,0,,12,,,71,127
9928,note_off,73,0,0,,12,,,71,127
9930,note_on,2,0,0,,0,,,72,127
10003,note_off,73,0,0,,0,,,72,127
10003,note_off,0,0,0,,0,,,48,127
10003,note_off,0,0,0,,4,,,52,127
10003,note_off,0,0,0,,7,,,55,127
10005,note_on,2,0,0,,7,,,43,127
10005,note_on,0,0,0,,7,,,55,127
10005,note_on,0,0,0,,2,,,50,127
10005,note_on,0,0,0,,0,,,72,127
10301,note_off,296,0,0,,0,,,72,127
10303,note_on,2,0,0,,2,,,74,127
10749,note_off,446,0,0,,2,,,74,127
10896,note_off,147,0,0,,2,,,50,127
10896,note_off,0,0,0,,7,,,55,127
10896,note_off,0,0,0,,7,,,43,127
10935,note_on,39,0,0,,7,,,79,127
11232,note_on,297,0,0,,7,,,55,127
11379,note_off,147,0,0,,7,,,79,127
11381,note_on,2,0,0,,5,,,77,127
11454,note_off,73,0,0,,5,,,77,127
11456,note_on,2,0,0,,4,,,76,127
11529,note_off,73,0,0,,4,,,76,127
11531,note_on,2,0,0,,2,,,74,127
11678,note_off,147,0,0,,7,,,55,127
11680,note_on,2,0,0,,10,,,57,127
11753,note_off,73,0,0,,10,,,57,127
11755,note_on,2,0,0,,12,,,59,127
11828,note_off,73,0,0,,12,,,59,127
11830,note_on,2,0,0,,0,,,60,127
11977,note_off,147,0,0,,0,,,60,127
11977,note_off,0,0,0,,2,,,74,127
11979,note_on,2,0,0,,4,,,76,127
11979,note_on,0,0,0,,2,,,62,127
12126,note_off,147,0,0,,2,,,62,127
12126,note_off,0,0,0,,4,,,76,127
12128,note_on,2,0,0,,2,,,74,127
12128,note_on,0,0,0,,4,,,64,127
12275,note_off,147,0,0,,4,,,64,127
12275,note_off,0,0,0,,2,,,74,127
12277,note_on,2,0,0,,0,,,72,127
12277,note_on,0,0,0,,6,,,66,127
12424,note_off,147,0,0,,6,,,66,127
12424,note_off,0,0,0,,0,,,72,127
12426,note_on,2,0,0,,12,,,71,127
12426,note_on,0,0,0,,7,,,67,127
12573,note_off,147,0,0,,12,,,71,127
12575,note_on,2,0,0,,10,,,69,127
12584,note_off,9,0,0,,7,,,67,127
12722,note_off,138,0,0,,10,,,69,127
12724,note_on,2,0,0,,12,,,71,127
12724,note_on,0,0,0,,7,,,67,127
13020,note_off,296,0,0,,7,,,67,127
13020,note_off,0,0,0,,12,,,71,127
13022,note_on,2,0,0,,2,,,74,127
13022,note_on,0,0,0,,4,,,64,127
13095,note_off,73,0,0,,2,,,74,127
13097,note_on,2,0,0,,0,,,72,127
13170,note_off,73,0,0,,0,,,72,127
13172,note_on,2,0,0,,2,,,74,127
13245,note_off,73,0,0,,2,,,74,127
13247,note_on,2,0,0,,0,,,72,127
13320,note_off,73,0,0,,0,,,72,127
13320,note_off,0,0,0,,4,,,64,127
13322,note_on,2,0,0,,2,,,74,127
13322,note_on,0,0,0,,0,,,60,127
13395,note_off,73,0,0,,2,,,74,127
13397,note_on,2,0,0,,0,,,72,127
13470,note_off,73,0,0,,0,,,72,127
13472,note_on,2,0,0,,12,,,71,127
13545,note_off,73,0,0,,12,,,71,127
13547,note_on,2,0,0,,0,,,72,127
13620,note_off,73,0,0,,0,,,72,127
13620,note_off,0,0,0,,0,,,60,127
13622,note_on,2,0,0,,2,,,74,127
13622,note_on,0,0,0,,7,,,55,127
13695,note_off,73,0,0,,2,,,74,127
13697,note_on,2,0,0,,0,,,72,127
13770,note_off,73,0,0,,0,,,72,127
13772,note_on,2,0,0,,12,,,71,127
13845,note_off,73,0,0,,12,,,71,127
13847,note_on,2,0,0,,10,,,69,127
13920,note_off,73,0,0,,10,,,69,127
13922,note_on,2,0,0,,7,,,67,127
13995,note_off,73,0,0,,7,,,67,127
13997,note_on,2,0,0,,6,,,66,127
14070,note_off,73,0,0,,6,,,66,127
14072,note_on,2,0,0,,4,,,64,127
14145,note_off,73,0,0,,4,,,64,127
14147,note_on,2,0,0,,2,,,62,127
14220,note_off,73,0,0,,2,,,62,127
14222,note_on,2,0,0,,7,,,67,127
14222,note_on,0,0,0,,7,,,43,127
14516,note_off,294,0,0,,7,,,43,127
14525,note_off,9,0,0,,7,,,55,127
14544,note_on,19,0,0,,7,,,79,127
14667,note_off,123,0,0,,7,,,67,127
14841,note_on,174,0,0,,7,,,55,127
14988,note_off,147,0,0,,7,,,79,127
14990,note_on,2,0,0,,5,,,77,127
15063,note_off,73,0,0,,5,,,77,127
15065,note_on,2,0,0,,4,,,76,127
15138,note_off,73,0,0,,4,,,76,127
15140,note_on,2,0,0,,2,,,74,127
15287,note_off,147,0,0,,7,,,55,127
15289,note_on,2,0,0,,10,,,57,127
15362,note_off,73,0,0,,10,,,57,127
15364,note_on,2,0,0,,12,,,59,127
15437,note_off,73,0,0,,12,,,59,127
15439,note_on,2,0,0,,0,,,60,127
15586,note_off,147,0,0,,0,,,60,127
15586,note_off,0,0,0,,2,,,74,127
15588,note_on,2,0,0,,4,,,76,127
15588,note_on,0,0,0,,2,,,62,127
15735,note_off,147,0,0,,2,,,62,127
15735,note_off,0,0,0,,4,,,76,127
15737,note_on,2,0,0,,2,,,74,127
15737,note_on,0,0,0,,4,,,64,127
15884,note_off,147,0,0,,4,,,64,127
15884,note_off,0,0,0,,2,,,74,127
15886,note_on,2,0,0,,0,,,72,127
15886,note_on,0,0,0,,6,,,66,127
16033,note_off,147,0,0,,6,,,66,127
16033,note_off,0,0,0,,0,,,72,127
16035,note_on,2,0,0,,12,,,71,127
16035,note_on,0,0,0,,7,,,67,127
16182,note_off,147,0,0,,12,,,71,127
16184,note_on,2,0,0,,10,,,69,127
16193,note_off,9,0,0,,7,,,67,127
16331,note_off,138,0,0,,10,,,69,127
16333,note_on,2,0,0,,12,,,71,127
16333,note_on,0,0,0,,7,,,67,127
16629,note_off,296,0,0,,7,,,67,127
16629,note_off,0,0,0,,12,,,71,127
16631,note_on,2,0,0,,2,,,74,127
16631,note_on,0,0,0,,4,,,64,127
16704,note_off,73,0,0,,2,,,74,127
16706,note_on,2,0,0,,1,,,73,127
16779,note_off,73,0,0,,1,,,73,127
16781,note_on,2,0,0,,2,,,74,127
16854,note_off,73,0,0,,2,,,74,127
16856,note_on,2,0,0,,1,,,73,127
16929,note_off,73,0,0,,1,,,73,127
16929,note_off,0,0,0,,4,,,64,127
16931,note_on,2,0,0,,2,,,74,127
16931,note_on,0,0,0,,4,,,52,127
17004,note_off,73,0,0,,2,,,74,127
17006,note_on,2,0,0,,1,,,73,127
17079,note_off,73,0,0,,1,,,73,127
17081,note_on,2,0,0,,12,,,71,127
17154,note_off,73,0,0,,12,,,71,127
17156,note_on,2,0,0,,1,,,73,127
17229,note_off,73,0,0,,1,,,73,127
17229,note_off,0,0,0,,4,,,52,127
17231,note_on,2,0,0,,2,,,74,127
17231,note_on,0,0,0,,2,,,50,127
17304,note_off,73,0,0,,2,,,74,127
17306,note_on,2,0,0,,1,,,73,127
17379,note_off,73,0,0,,1,,,73,127
17381,note_on,2,0,0,,12,,,71,127
17454,note_off,73,0,0,,12,,,71,127
17456,note_on,2,0,0,,10,,,69,127
17529,note_off,73,0,0,,10,,,69,127
17531,note_on,2,0,0,,7,,,67,127
17604,note_off,73,0,0,,7,,,67,127
17606,note_on,2,0,0,,6,,,66,127
17679,note_off,73,0,0,,6,,,66,127
17681,note_on,2,0,0,,4,,,64,127
17754,note_off,73,0,0,,4,,,64,127
17756,note_on,2,0,0,,2,,,62,127
17829,note_off,73,0,0,,2,,,62,127
17831,note_on,2,0,0,,2,,,74,127
17831,note_on,0,0,0,,2,,,38,127
18127,note_off,296,0,0,,2,,,38,127
18135,note_off,8,0,0,,2,,,50,127
18166,note_on,31,0,0,,2,,,62,127
18277,note_off,111,0,0,,2,,,74,127
18313,note_off,36,0,0,,2,,,62,127
18315,note_on,2,0,0,,6,,,66,127
18462,note_off,147,0,0,,6,,,66,127
18464,note_on,2,0,0,,10,,,69,127
18611,note_off,147,0,0,,10,,,69,127
18613,note_on,2,0,0,,2,,,62,127
18760,note_off,147,0,0,,2,,,62,127
18762,note_on,2,0,0,,0,,,60,127
18909,note_off,147,0,0,,0,,,60,127
18911,note_on,2,0,0,,10,,,69,127
18911,note_on,0,0,0,,6,,,78,127
18911,note_on,0,0,0,,12,,,83,127
18947,note_off,36,0,0,,12,,,83,127
18949,note_on,2,0,0,,10,,,81,127
18985,note_off,36,0,0,,10,,,81,127
18987,note_on,2,0,0,,12,,,83,127
19023,note_off,36,0,0,,12,,,83,127
19025,note_on,2,0,0,,10,,,81,127
19061,note_off,36,0,0,,10,,,69,127
19063,note_on,2,0,0,,12,,,59,127
19134,note_off,71,0,0,,6,,,78,127
19137,note_off,3,0,0,,10,,,81,127
19210,note_off,73,0,0,,12,,,59,127
19212,note_on,2,0,0,,7,,,67,127
19212,note_on,0,0,0,,7,,,79,127
19212,note_on,0,0,0,,0,,,84,127
19248,note_off,36,0,0,,0,,,84,127
19250,note_on,2,0,0,,12,,,83,127
19286,note_off,36,0,0,,12,,,83,127
19288,note_on,2,0,0,,0,,,84,127
19324,note_off,36,0,0,,0,,,84,127
19326,note_on,2,0,0,,12,,,83,127
19362,note_off,36,0,0,,7,,,67,127
19364,note_on,2,0,0,,10,,,57,127
19435,note_off,71,0,0,,7,,,79,127
19438,note_off,3,0,0,,12,,,83,127
19511,note_off,73,0,0,,10,,,57,127
19513,note_on,2,0,0,,6,,,66,127
19513,note_on,0,0,0,,2,,,86,127
19513,note_on,0,0,0,,10,,,81,127
19549,note_off,36,0,0,,2,,,86,127
19551,note_on,2,0,0,,0,,,84,127
19587,note_off,36,0,0,,0,,,84,127
19589,note_on,2,0,0,,2,,,86,127
19625,note_off,36,0,0,,2,,,86,127
19627,note_on,2,0,0,,0,,,84,127
19663,note_off,36,0,0,,6,,,66,127
19665,note_on,2,0,0,,7,,,55,127
19736,note_off,71,0,0,,10,,,81,127
19739,note_off,3,0,0,,0,,,84,127
19812,note_off,73,0,0,,7,,,55,127
19814,note_on,2,0,0,,7,,,67,127
19814,note_on,0,0,0,,4,,,88,127
19814,note_on,0,0,0,,12,,,83,127
19850,note_off,36,0,0,,4,,,88,127
19852,note_on,2,0,0,,2,,,86,127
19888,note_off,36,0,0,,2,,,86,127
19890,note_on,2,0,0,,4,,,88,127
19926,note_off,36,0,0,,4,,,88,127
19928,note_on,2,0,0,,2,,,86,127
19964,note_off,36,0,0,,7,,,67,127
19978,note_on,14,0,0,,2,,,62,127
20037,note_off,59,0,0,,12,,,83,127
20040,note_off,3,0,0,,2,,,86,127
20125,note_off,85,0,0,,2,,,62,127
20127,note_on,2,0,0,,6,,,66,127
20274,note_off,147,0,0,,6,,,66,127
20276,note_on,2,0,0,,10,,,69,127
20423,note_off,147,0,0,,10,,,69,127
20425,note_on,2,0,0,,2,,,62,127
20572,note_off,147,0,0,,2,,,62,127
20574,note_on,2,0,0,,0,,,60,127
20721,note_off,147,0,0,,0,,,60,127
20723,note_on,2,0,0,,12,,,83,127
20723,note_on,0,0,0,,6,,,78,127
20723,note_on,0,0,0,,10,,,69,127
20759,note_off,36,0,0,,12,,,83,127
20761,note_on,2,0,0,,10,,,81,127
20797,note_off,36,0,0,,10,,,81,127
20799,note_on,2,0,0,,12,,,83,127
20835,note_off,36,0,0,,12,,,83,127
20837,note_on,2,0,0,,10,,,81,127
20873,note_off,36,0,0,,10,,,69,127
20875,note_on,2,0,0,,12,,,59,127
20946,note_off,71,0,0,,6,,,78,127
20949,note_off,3,0,0,,10,,,81,127
21022,note_off,73,0,0,,12,,,59,127
21024,note_on,2,0,0,,0,,,84,127
21024,note_on,0,0,0,,7,,,79,127
21024,note_on,0,0,0,,7,,,67,127
21060,note_off,36,0,0,,0,,,84,127
21062,note_on,2,0,0,,12,,,83,127
21098,note_off,36,0,0,,12,,,83,127
21100,note_on,2,0,0,,0,,,84,127
21136,note_off,36,0,0,,0,,,84,127
21138,note_on,2,0,0,,12,,,83,127
21174,note_off,36,0,0,,7,,,67,127
21176,note_on,2,0,0,,10,,,57,127
21247,note_off,71,0,0,,7,,,79,127
21250,note_off,3,0,0,,12,,,83,127
21323,note_off,73,0,0,,10,,,57,127
21325,note_on,2,0,0,,2,,,86,127
21325,note_on,0,0,0,,10,,,81,127
21325,note_on,0,0,0,,6,,,66,127
21361,note_off,36,0,0,,2,,,86,127
21363,note_on,2,0,0,,0,,,84,127
21399,note_off,36,0,0,,0,,,84,127
21401,note_on,2,0,0,,2,,,86,127
21437,note_off,36,0,0,,2,,,86,127
21439,note_on,2,0,0,,0,,,84,127
21475,note_off,36,0,0,,6,,,66,127
21477,note_on,2,0,0,,7,,,55,127
21548,note_off,71,0,0,,10,,,81,127
21551,note_off,3,0,0,,0,,,84,127
21624,note_off,73,0,0,,7,,,55,127
21626,note_on,2,0,0,,4,,,88,127
21626,note_on,0,0,0,,12,,,83,127
21626,note_on,0,0,0,,7,,,67,127
21662,note_off,36,0,0,,4,,,88,127
21664,note_on,2,0,0,,2,,,86,127
21700,note_off,36,0,0,,2,,,86,127
21702,note_on,2,0,0,,4,,,88,127
21738,note_off,36,0,0,,4,,,88,127
21740,note_on,2,0,0,,2,,,86,127
21799,note_off,59,0,0,,7,,,67,127
21814,note_on,15,0,0,,0,,,60,127
21864,note_off,50,0,0,,12,,,83,127
21957,note_off,93,0,0,,2,,,86,127
21963,note_on,6,0,0,,3,,,87,127
22110,note_off,147,0,0,,3,,,87,127
22110,note_off,0,0,0,,0,,,60,127
22112,note_on,2,0,0,,8,,,68,127
22112,note_on,0,0,0,,4,,,88,127
22259,note_off,147,0,0,,4,,,88,127
22261,note_on,2,0,0,,8,,,80,127
22408,note_off,147,0,0,,8,,,80,127
22408,note_off,0,0,0,,8,,,68,127
22410,note_on,2,0,0,,10,,,69,127
22410,note_on,0,0,0,,10,,,81,127
22557,note_off,147,0,0,,10,,,81,127
22559,note_on,2,0,0,,2,,,86,127
22596,note_on,37,0,0,,0,,,84,127
22601,note_off,5,0,0,,2,,,86,127
22632,note_off,31,0,0,,0,,,84,127
22634,note_on,2,0,0,,2,,,86,127
22670,note_off,36,0,0,,2,,,86,127
22672,note_on,2,0,0,,0,,,84,127
22708,note_off,36,0,0,,10,,,69,127
22710,note_on,2,0,0,,12,,,59,127
22769,note_off,59,0,0,,0,,,84,127
22859,note_on,90,0,0,,1,,,85,127
23006,note_off,147,0,0,,1,,,85,127
23006,note_off,0,0,0,,12,,,59,127
23008,note_on,2,0,0,,6,,,66,127
23008,note_on,0,0,0,,2,,,86,127
23155,note_off,147,0,0,,2,,,86,127
23157,note_on,2,0,0,,6,,,78,127
23304,note_off,147,0,0,,6,,,78,127
23304,note_off,0,0,0,,6,,,66,127
23306,note_on,2,0,0,,7,,,67,127
23306,note_on,0,0,0,,7,,,79,127
23453,note_off,147,0,0,,7,,,79,127
23455,note_on,2,0,0,,0,,,84,127
23492,note_on,37,0,0,,12,,,83,127
23497,note_off,5,0,0,,0,,,84,127
23528,note_off,31,0,0,,12,,,83,127
23530,note_on,2,0,0,,0,,,84,127
23566,note_off,36,0,0,,0,,,84,127
23568,note_on,2,0,0,,12,,,83,127
23604,note_off,36,0,0,,12,,,83,127
23604,note_off,0,0,0,,7,,,67,127
23606,note_on,2,0,0,,0,,,60,127
23606,note_on,0,0,0,,10,,,81,127
23753,note_off,147,0,0,,10,,,81,127
23755,note_on,2,0,0,,0,,,84,127
23755,note_on,0,0,0,,4,,,88,127
23902,note_off,147,0,0,,4,,,88,127
23902,note_off,0,0,0,,0,,,84,127
23902,note_off,0,0,0,,0,,,60,127
23904,note_on,2,0,0,,2,,,62,127
23904,note_on,0,0,0,,2,,,86,127
23904,note_on,0,0,0,,12,,,83,127
24051,note_off,147,0,0,,12,,,83,127
24051,note_off,0,0,0,,2,,,86,127
24053,note_on,2,0,0,,10,,,81,127
24053,note_on,0,0,0,,0,,,84,127
24200,note_off,147,0,0,,0,,,84,127
24200,note_off,0,0,0,,10,,,81,127
24200,note_off,0,0,0,,2,,,62,127
24202,note_on,2,0,0,,2,,,50,127
24202,note_on,0,0,0,,12,,,83,127
24202,note_on,0,0,0,,7,,,79,127
24349,note_off,147,0,0,,7,,,79,127
24349,note_off,0,0,0,,12,,,83,127
24351,note_on,2,0,0,,6,,,78,127
24351,note_on,0,0,0,,10,,,81,127
24498,note_off,147,0,0,,10,,,81,127
24498,note_off,0,0,0,,6,,,78,127
24498,note_off,0,0,0,,2,,,50,127
24500,note_on,2,0,0,,7,,,55,127
24500,note_on,0,0,0,,6,,,78,127
24500,note_on,0,0,0,,10,,,81,127
24796,note_off,296,0,0,,10,,,81,127
24796,note_off,0,0,0,,6,,,78,127
24798,note_on,2,0,0,,10,,,81,127
24846,note_off,48,0,0,,10,,,81,127
24848,note_on,2,0,0,,7,,,79,127
24896,note_off,48,0,0,,7,,,79,127
24898,note_on,2,0,0,,10,,,81,127
24946,note_off,48,0,0,,10,,,81,127
24948,note_on,2,0,0,,7,,,79,127
25095,note_off,147,0,0,,7,,,55,127
25097,note_on,2,0,0,,7,,,43,127
25289,note_off,192,0,0,,7,,,79,127
25419,note_on,130,0,0,,2,,,50,127
25422,note_off,3,0,0,,7,,,43,127
25566,note_off,144,0,0,,2,,,50,127
25568,note_on,2,0,0,,6,,,54,127
25715,note_off,147,0,0,,6,,,54,127
25717,note_on,2,0,0,,10,,,57,127
25864,note_off,147,0,0,,10,,,57,127
25866,note_on,2,0,0,,2,,,50,127
26013,note_off,147,0,0,,2,,,50,127
26015,note_on,2,0,0,,0,,,48,127
26162,note_off,147,0,0,,0,,,48,127
26164,note_on,2,0,0,,10,,,57,127
26164,note_on,0,0,0,,6,,,66,127
26164,note_on,0,0,0,,12,,,71,127
26200,note_off,36,0,0,,12,,,71,127
26202,note_on,2,0,0,,10,,,69,127
26238,note_off,36,0,0,,10,,,69,127
26240,note_on,2,0,0,,12,,,71,127
26276,note_off,36,0,0,,12,,,71,127
26278,note_on,2,0,0,,10,,,69,127
26314,note_off,36,0,0,,10,,,57,127
26316,note_on,2,0,0,,12,,,47,127
26387,note_off,71,0,0,,6,,,66,127
26390,note_off,3,0,0,,10,,,69,127
26463,note_off,73,0,0,,12,,,47,127
26465,note_on,2,0,0,,7,,,55,127
26465,note_on,0,0,0,,7,,,67,127
26465,note_on,0,0,0,,0,,,72,127
26501,note_off,36,0,0,,0,,,72,127
26503,note_on,2,0,0,,12,,,71,127
26539,note_off,36,0,0,,12,,,71,127
26541,note_on,2,0,0,,0,,,72,127
26577,note_off,36,0,0,,0,,,72,127
26579,note_on,2,0,0,,12,,,71,127
26615,note_off,36,0,0,,7,,,55,127
26617,note_on,2,0,0,,10,,,45,127
26688,note_off,71,0,0,,7,,,67,127
26691,note_off,3,0,0,,12,,,71,127
26764,note_off,73,0,0,,10,,,45,127
26766,note_on,2,0,0,,6,,,54,127
26766,note_on,0,0,0,,10,,,69,127
26766,note_on,0,0,0,,2,,,74,127
26802,note_off,36,0,0,,2,,,74,127
26804,note_on,2,0,0,,0,,,72,127
26840,note_off,36,0,0,,0,,,72,127
26842,note_on,2,0,0,,2,,,74,127
26878,note_off,36,0,0,,2,,,74,127
26880,note_on,2,0,0,,0,,,72,127
26916,note_off,36,0,0,,6,,,54,127
26918,note_on,2,0,0,,7,,,43,127
26989,note_off,71,0,0,,10,,,69,127
26992,note_off,3,0,0,,0,,,72,127
27065,note_off,73,0,0,,7,,,43,127
27067,note_on,2,0,0,,7,,,55,127
27067,note_on,0,0,0,,12,,,71,127
27067,note_on,0,0,0,,4,,,76,127
27103,note_off,36,0,0,,4,,,76,127
27105,note_on,2,0,0,,2,,,74,127
27141,note_off,36,0,0,,2,,,74,127
27143,note_on,2,0,0,,4,,,76,127
27179,note_off,36,0,0,,4,,,76,127
27181,note_on,2,0,0,,2,,,74,127
27231,note_on,50,0,0,,2,,,50,127
27233,note_off,2,0,0,,7,,,55,127
27290,note_off,57,0,0,,12,,,71,127
27293,note_off,3,0,0,,2,,,74,127
27378,note_off,85,0,0,,2,,,50,127
27380,note_on,2,0,0,,6,,,54,127
27527,note_off,147,0,0,,6,,,54,127
27529,note_on,2,0,0,,10,,,57,127
27676,note_off,147,0,0,,10,,,57,127
27678,note_on,2,0,0,,2,,,50,127
27825,note_off,147,0,0,,2,,,50,127
27827,note_on,2,0,0,,0,,,48,127
27974,note_off,147,0,0,,0,,,48,127
27976,note_on,2,0,0,,12,,,71,127
27976,note_on,0,0,0,,6,,,66,127
27976,note_on,0,0,0,,10,,,57,127
28012,note_off,36,0,0,,12,,,71,127
28014,note_on,2,0,0,,10,,,69,127
28050,note_off,36,0,0,,10,,,69,127
28052,note_on,2,0,0,,12,,,71,127
28088,note_off,36,0,0,,12,,,71,127
28090,note_on,2,0,0,,10,,,69,127
28126,note_off,36,0,0,,10,,,57,127
28128,note_on,2,0,0,,12,,,47,127
28199,note_off,71,0,0,,6,,,66,127
28202,note_off,3,0,0,,10,,,69,127
28275,note_off,73,0,0,,12,,,47,127
28277,note_on,2,0,0,,0,,,72,127
28277,note_on,0,0,0,,7,,,67,127
28277,note_on,0,0,0,,7,,,55,127
28313,note_off,36,0,0,,0,,,72,127
28315,note_on,2,0,0,,12,,,71,127
28351,note_off,36,0,0,,12,,,71,127
28353,note_on,2,0,0,,0,,,72,127
28389,note_off,36,0,0,,0,,,72,127
28391,note_on,2,0,0,,12,,,71,127
28427,note_off,36,0,0,,7,,,55,127
28429,note_on,2,0,0,,10,,,45,127
28500,note_off,71,0,0,,7,,,67,127
28503,note_off,3,0,0,,12,,,71,127
28576,note_off,73,0,0,,10,,,45,127
28578,note_on,2,0,0,,2,,,74,127
28578,note_on,0,0,0,,10,,,69,127
28578,note_on,0,0,0,,6,,,54,127
28614,note_off,36,0,0,,2,,,74,127
28616,note_on,2,0,0,,0,,,72,127
28652,note_off,36,0,0,,0,,,72,127
28654,note_on,2,0,0,,2,,,74,127
28690,note_off,36,0,0,,2,,,74,127
28692,note_on,2,0,0,,0,,,72,127
28728,note_off,36,0,0,,6,,,54,127
28730,note_on,2,0,0,,7,,,43,127
28801,note_off,71,0,0,,10,,,69,127
28804,note_off,3,0,0,,0,,,72,127
28877,note_off,73,0,0,,7,,,43,127
28879,note_on,2,0,0,,4,,,76,127
28879,note_on,0,0,0,,12,,,71,127
28879,note_on,0,0,0,,7,,,55,127
28915,note_off,36,0,0,,4,,,76,127
28917,note_on,2,0,0,,2,,,74,127
28953,note_off,36,0,0,,2,,,74,127
28955,note_on,2,0,0,,4,,,76,127
28991,note_off,36,0,0,,4,,,76,127
28993,note_on,2,0,0,,2,,,74,127
29029,note_off,36,0,0,,7,,,55,127
29055,note_on,26,0,0,,0,,,48,127
29109,note_off,54,0,0,,12,,,71,127
29146,note_off,37,0,0,,2,,,74,127
29203,note_on,57,0,0,,3,,,75,127
29350,note_off,147,0,0,,3,,,75,127
29350,note_off,0,0,0,,0,,,48,127
29352,note_on,2,0,0,,4,,,76,127
29352,note_on,0,0,0,,8,,,56,127
29499,note_off,147,0,0,,4,,,76,127
29501,note_on,2,0,0,,8,,,68,127
29648,note_off,147,0,0,,8,,,68,127
29648,note_off,0,0,0,,8,,,56,127
29650,note_on,2,0,0,,10,,,69,127
29650,note_on,0,0,0,,10,,,57,127
29797,note_off,147,0,0,,10,,,69,127
29799,note_on,2,0,0,,2,,,74,127
29836,note_on,37,0,0,,0,,,72,127
29841,note_off,5,0,0,,2,,,74,127
29872,note_off,31,0,0,,0,,,72,127
29874,note_on,2,0,0,,2,,,74,127
29910,note_off,36,0,0,,2,,,74,127
29912,note_on,2,0,0,,0,,,72,127
29948,note_off,36,0,0,,10,,,57,127
29950,note_on,2,0,0,,12,,,47,127
30009,note_off,59,0,0,,0,,,72,127
30099,note_on,90,0,0,,1,,,73,127
30246,note_off,147,0,0,,1,,,73,127
30246,note_off,0,0,0,,12,,,47,127
30248,note_on,2,0,0,,2,,,74,127
30248,note_on,0,0,0,,6,,,54,127
30395,note_off,147,0,0,,2,,,74,127
30397,note_on,2,0,0,,6,,,66,127
30544,note_off,147,0,0,,6,,,66,127
30544,note_off,0,0,0,,6,,,54,127
30546,note_on,2,0,0,,7,,,67,127
30546,note_on,0,0,0,,7,,,55,127
30693,note_off,147,0,0,,7,,,67,127
30695,note_on,2,0,0,,0,,,72,127
30732,note_on,37,0,0,,12,,,71,127
30737,note_off,5,0,0,,0,,,72,127
30768,note_off,31,0,0,,12,,,71,127
30770,note_on,2,0,0,,0,,,72,127
30806,note_off,36,0,0,,0,,,72,127
30808,note_on,2,0,0,,12,,,71,127
30844,note_off,36,0,0,,12,,,71,127
30844,note_off,0,0,0,,7,,,55,127
30846,note_on,2,0,0,,10,,,69,127
30846,note_on,0,0,0,,0,,,48,127
30993,note_off,147,0,0,,10,,,69,127
30995,note_on,2,0,0,,0,,,72,127
30995,note_on,0,0,0,,4,,,76,127
31142,note_off,147,0,0,,4,,,76,127
31142,note_off,0,0,0,,0,,,72,127
31142,note_off,0,0,0,,0,,,48,127
31144,note_on,2,0,0,,12,,,71,127
31144,note_on,0,0,0,,2,,,74,127
31144,note_on,0,0,0,,2,,,50,127
31291,note_off,147,0,0,,2,,,74,127
31291,note_off,0,0,0,,12,,,71,127
31293,note_on,2,0,0,,0,,,72,127
31293,note_on,0,0,0,,10,,,69,127
31440,note_off,147,0,0,,10,,,69,127
31440,note_off,0,0,0,,0,,,72,127
31440,note_off,0,0,0,,2,,,50,127
31442,note_on,2,0,0,,7,,,67,127
31442,note_on,0,0,0,,12,,,71,127
31442,note_on,0,0,0,,2,,,38,127
31589,note_off,147,0,0,,12,,,71,127
31589,note_off,0,0,0,,7,,,67,127
31591,note_on,2,0,0,,10,,,69,127
31591,note_on,0,0,0,,6,,,66,127
31738,note_off,147,0,0,,6,,,66,127
31738,note_off,0,0,0,,10,,,69,127
31738,note_off,0,0,0,,2,,,38,127
31752,note_on,14,0,0,,7,,,43,127
31752,note_on,0,0,0,,12,,,71,127
31825,note_off,73,0,0,,12,,,71,127
31827,note_on,2,0,0,,7,,,67,127
31900,note_off,73,0,0,,7,,,67,127
31902,note_on,2,0,0,,10,,,69,127
31975,note_off,73,0,0,,10,,,69,127
31977,note_on,2,0,0,,12,,,71,127
32050,note_off,73,0,0,,12,,,71,127
32050,note_off,0,0,0,,7,,,43,127
32052,note_on,2,0,0,,10,,,45,127
32052,note_on,0,0,0,,0,,,72,127
32125,note_off,73,0,0,,0,,,72,127
32127,note_on,2,0,0,,2,,,74,127
32200,note_off,73,0,0,,2,,,74,127
32202,note_on,2,0,0,,4,,,76,127
32275,note_off,73,0,0,,4,,,76,127
32277,note_on,2,0,0,,6,,,78,127
32350,note_off,73,0,0,,6,,,78,127
32350,note_off,0,0,0,,10,,,45,127
32352,note_on,2,0,0,,12,,,47,127
32352,note_on,0,0,0,,7,,,79,127
32425,note_off,73,0,0,,7,,,79,127
32427,note_on,2,0,0,,6,,,78,127
32500,note_off,73,0,0,,6,,,78,127
32502,note_on,2,0,0,,4,,,76,127
32575,note_off,73,0,0,,4,,,76,127
32577,note_on,2,0,0,,2,,,74,127
32650,note_off,73,0,0,,2,,,74,127
32650,note_off,0,0,0,,12,,,47,127
32652,note_on,2,0,0,,0,,,48,127
32652,note_on,0,0,0,,0,,,72,127
32725,note_off,73,0,0,,0,,,72,127
32727,note_on,2,0,0,,12,,,71,127
32800,note_off,73,0,0,,12,,,71,127
32802,note_on,2,0,0,,10,,,69,127
32875,note_off,73,0,0,,10,,,69,127
32877,note_on,2,0,0,,7,,,67,127
32950,note_off,73,0,0,,7,,,67,127
32950,note_off,0,0,0,,0,,,48,127
32952,note_on,2,0,0,,2,,,50,127
32952,note_on,0,0,0,,12,,,71,127
33025,note_off,73,0,0,,12,,,71,127
33027,note_on,2,0,0,,10,,,69,127
33100,note_off,73,0,0,,10,,,69,127
33102,note_on,2,0,0,,12,,,71,127
33175,note_off,73,0,0,,12,,,71,127
33177,note_on,2,0,0,,10,,,69,127
33250,note_off,73,0,0,,10,,,69,127
33250,note_off,0,0,0,,2,,,50,127
33252,note_on,2,0,0,,2,,,38,127
33252,note_on,0,0,0,,12,,,71,127
33325,note_off,73,0,0,,12,,,71,127
33327,note_on,2,0,0,,10,,,69,127
33400,note_off,73,0,0,,10,,,69,127
33402,note_on,2,0,0,,7,,,67,127
33475,note_off,73,0,0,,7,,,67,127
33477,note_on,2,0,0,,10,,,69,127
33550,note_off,73,0,0,,10,,,69,127
33550,note_off,0,0,0,,2,,,38,127
33552,note_on,2,0,0,,7,,,43,127
33552,note_on,0,0,0,,12,,,71,127
33625,note_off,73,0,0,,12,,,71,127
33627,note_on,2,0,0,,7,,,67,127
33700,note_off,73,0,0,,7,,,67,127
33702,note_on,2,0,0,,10,,,69,127
33775,note_off,73,0,0,,10,,,69,127
33777,note_on,2,0,0,,12,,,71,127
33850,note_off,73,0,0,,12,,,71,127
33850,note_off,0,0,0,,7,,,43,127
33852,note_on,2,0,0,,10,,,45,127
33852,note_on,0,0,0,,0,,,72,127
33925,note_off,73,0,0,,0,,,72,127
33927,note_on,2,0,0,,2,,,74,127
34000,note_off,73,0,0,,2,,,74,127
34002,note_on,2,0,0,,4,,,76,127
34075,note_off,73,0,0,,4,,,76,127
34077,note_on,2,0,0,,6,,,78,127
34150,note_off,73,0,0,,6,,,78,127
34150,note_off,0,0,0,,10,,,45,127
34152,note_on,2,0,0,,12,,,47,127
34152,note_on,0,0,0,,7,,,79,127
34225,note_off,73,0,0,,7,,,79,127
34227,note_on,2,0,0,,6,,,78,127
34300,note_off,73,0,0,,6,,,78,127
34302,note_on,2,0,0,,4,,,76,127
34375,note_off,73,0,0,,4,,,76,127
34377,note_on,2,0,0,,2,,,74,127
34450,note_off,73,0,0,,2,,,74,127
34450,note_off,0,0,0,,12,,,47,127
34452,note_on,2,0,0,,0,,,48,127
34452,note_on,0,0,0,,0,,,72,127
34525,note_off,73,0,0,,0,,,72,127
34527,note_on,2,0,0,,12,,,71,127
34600,note_off,73,0,0,,12,,,71,127
34602,note_on,2,0,0,,10,,,69,127
34675,note_off,73,0,0,,10,,,69,127
34677,note_on,2,0,0,,7,,,67,127
34750,note_off,73,0,0,,7,,,67,127
34750,note_off,0,0,0,,0,,,48,127
34752,note_on,2,0,0,,2,,,50,127
34752,note_on,0,0,0,,12,,,71,127
34825,note_off,73,0,0,,12,,,71,127
34827,note_on,2,0,0,,10,,,69,127
34900,note_off,73,0,0,,10,,,69,127
34902,note_on,2,0,0,,12,,,71,127
34975,note_off,73,0,0,,12,,,71,127
34977,note_on,2,0,0,,10,,,69,127
35050,note_off,73,0,0,,10,,,69,127
35050,note_off,0,0,0,,2,,,50,127
35052,note_on,2,0,0,,2,,,38,127
35052,note_on,0,0,0,,12,,,71,127
35125,note_off,73,0,0,,12,,,71,127
35127,note_on,2,0,0,,10,,,69,127
35200,note_off,73,0,0,,10,,,69,127
35202,note_on,2,0,0,,7,,,67,127
35275,note_off,73,0,0,,7,,,67,127
35277,note_on,2,0,0,,10,,,69,127
35350,note_off,73,0,0,,10,,,69,127
35350,note_off,0,0,0,,2,,,38,127
35352,note_on,2,0,0,,7,,,43,127
35352,note_on,0,0,0,,7,,,67,127
35673,note_on,321,0,0,,7,,,31,127
35941,note_off,268,0,0,,7,,,67,127
36127,note_off,186,0,0,,7,,,43,127
36266,note_off,139,0,0,,7,,,31,127
36319,note_on,53,0,0,,7,,,55,127
36466,note_off,147,0,0,,7,,,55,127
36468,note_on,2,0,0,,12,,,59,127
36615,note_off,147,0,0,,12,,,59,127
36617,note_on,2,0,0,,2,,,62,127
36764,note_off,147,0,0,,2,,,62,127
36766,note_on,2,0,0,,7,,,55,127
36913,note_off,147,0,0,,7,,,55,127
36915,note_on,2,0,0,,5,,,53,127
37062,note_off,147,0,0,,5,,,53,127
37064,note_on,2,0,0,,2,,,62,127
37064,note_on,0,0,0,,3,,,75,127
37064,note_on,0,0,0,,12,,,71,127
37100,note_off,36,0,0,,3,,,75,127
37102,note_on,2,0,0,,2,,,74,127
37138,note_off,36,0,0,,2,,,74,127
37140,note_on,2,0,0,,3,,,75,127
37176,note_off,36,0,0,,3,,,75,127
37178,note_on,2,0,0,,2,,,74,127
37214,note_off,36,0,0,,2,,,62,127
37216,note_on,2,0,0,,3,,,51,127
37272,note_off,56,0,0,,12,,,71,127
37275,note_off,3,0,0,,2,,,74,127
37363,note_off,88,0,0,,3,,,51,127
37365,note_on,2,0,0,,0,,,60,127
37365,note_on,0,0,0,,5,,,77,127
37365,note_on,0,0,0,,0,,,72,127
37401,note_off,36,0,0,,5,,,77,127
37403,note_on,2,0,0,,3,,,75,127
37439,note_off,36,0,0,,3,,,75,127
37441,note_on,2,0,0,,5,,,77,127
37477,note_off,36,0,0,,5,,,77,127
37479,note_on,2,0,0,,3,,,75,127
37515,note_off,36,0,0,,0,,,60,127
37517,note_on,2,0,0,,2,,,50,127
37573,note_off,56,0,0,,0,,,72,127
37576,note_off,3,0,0,,3,,,75,127
37664,note_off,88,0,0,,2,,,50,127
37666,note_on,2,0,0,,12,,,59,127
37666,note_on,0,0,0,,7,,,79,127
37666,note_on,0,0,0,,2,,,74,127
37702,note_off,36,0,0,,7,,,79,127
37704,note_on,2,0,0,,5,,,77,127
37740,note_off,36,0,0,,5,,,77,127
37742,note_on,2,0,0,,7,,,79,127
37778,note_off,36,0,0,,7,,,79,127
37780,note_on,2,0,0,,5,,,77,127
37816,note_off,36,0,0,,12,,,59,127
37818,note_on,2,0,0,,0,,,48,127
37874,note_off,56,0,0,,2,,,74,127
37877,note_off,3,0,0,,5,,,77,127
37965,note_off,88,0,0,,0,,,48,127
37967,note_on,2,0,0,,0,,,60,127
37967,note_on,0,0,0,,3,,,75,127
37967,note_on,0,0,0,,8,,,80,127
38000,note_off,33,0,0,,8,,,80,127
38005,note_on,5,0,0,,7,,,79,127
38041,note_off,36,0,0,,7,,,79,127
38043,note_on,2,0,0,,8,,,80,127
38079,note_off,36,0,0,,8,,,80,127
38081,note_on,2,0,0,,7,,,79,127
38117,note_off,36,0,0,,0,,,60,127
38150,note_on,33,0,0,,7,,,55,127
38175,note_off,25,0,0,,3,,,75,127
38178,note_off,3,0,0,,7,,,79,127
38297,note_off,119,0,0,,7,,,55,127
38299,note_on,2,0,0,,12,,,59,127
38446,note_off,147,0,0,,12,,,59,127
38448,note_on,2,0,0,,2,,,62,127
38595,note_off,147,0,0,,2,,,62,127
38597,note_on,2,0,0,,7,,,55,127
38744,note_off,147,0,0,,7,,,55,127
38746,note_on,2,0,0,,5,,,53,127
38893,note_off,147,0,0,,5,,,53,127
38895,note_on,2,0,0,,2,,,62,127
38895,note_on,0,0,0,,12,,,71,127
38895,note_on,0,0,0,,3,,,75,127
38931,note_off,36,0,0,,3,,,75,127
38933,note_on,2,0,0,,2,,,74,127
38969,note_off,36,0,0,,2,,,74,127
38971,note_on,2,0,0,,3,,,75,127
39007,note_off,36,0,0,,3,,,75,127
39009,note_on,2,0,0,,2,,,74,127
39045,note_off,36,0,0,,2,,,62,127
39047,note_on,2,0,0,,3,,,51,127
39103,note_off,56,0,0,,12,,,71,127
39106,note_off,3,0,0,,2,,,74,127
39194,note_off,88,0,0,,3,,,51,127
39196,note_on,2,0,0,,0,,,60,127
39196,note_on,0,0,0,,0,,,72,127
39196,note_on,0,0,0,,5,,,77,127
39232,note_off,36,0,0,,5,,,77,127
39234,note_on,2,0,0,,3,,,75,127
39270,note_off,36,0,0,,3,,,75,127
39272,note_on,2,0,0,,5,,,77,127
39308,note_off,36,0,0,,5,,,77,127
39310,note_on,2,0,0,,3,,,75,127
39346,note_off,36,0,0,,0,,,60,127
39348,note_on,2,0,0,,2,,,50,127
39404,note_off,56,0,0,,0,,,72,127
39407,note_off,3,0,0,,3,,,75,127
39495,note_off,88,0,0,,2,,,50,127
39497,note_on,2,0,0,,12,,,59,127
39497,note_on,0,0,0,,2,,,74,127
39497,note_on,0,0,0,,7,,,79,127
39533,note_off,36,0,0,,7,,,79,127
39535,note_on,2,0,0,,5,,,77,127
39571,note_off,36,0,0,,5,,,77,127
39573,note_on,2,0,0,,7,,,79,127
39609,note_off,36,0,0,,7,,,79,127
39611,note_on,2,0,0,,5,,,77,127
39647,note_off,36,0,0,,12,,,59,127
39649,note_on,2,0,0,,0,,,48,127
39705,note_off,56,0,0,,2,,,74,127
39708,note_off,3,0,0,,5,,,77,127
39796,note_off,88,0,0,,0,,,48,127
39798,note_on,2,0,0,,0,,,60,127
39798,note_on,0,0,0,,3,,,75,127
39798,note_on,0,0,0,,8,,,80,127
39831,note_off,33,0,0,,8,,,80,127
39836,note_on,5,0,0,,7,,,79,127
39872,note_off,36,0,0,,7,,,79,127
39874,note_on,2,0,0,,8,,,80,127
39910,note_off,36,0,0,,8,,,80,127
39912,note_on,2,0,0,,7,,,79,127
39986,note_off,74,0,0,,7,,,79,127
39986,note_off,0,0,0,,3,,,75,127
40023,note_off,37,0,0,,0,,,60,127
40692,note_on,669,0,0,,11,,,58,127
40839,note_off,147,0,0,,11,,,58,127
40841,note_on,2,0,0,,2,,,62,127
40988,note_off,147,0,0,,2,,,62,127
40990,note_on,2,0,0,,5,,,65,127
41137,note_off,147,0,0,,5,,,65,127
41139,note_on,2,0,0,,11,,,58,127
41286,note_off,147,0,0,,11,,,58,127
41288,note_on,2,0,0,,8,,,56,127
41435,note_off,147,0,0,,8,,,56,127
41437,note_on,2,0,0,,7,,,79,127
41437,note_on,0,0,0,,2,,,74,127
41437,note_on,0,0,0,,5,,,65,127
41473,note_off,36,0,0,,7,,,79,127
41475,note_on,2,0,0,,5,,,77,127
41511,note_off,36,0,0,,5,,,77,127
41513,note_on,2,0,0,,7,,,79,127
41549,note_off,36,0,0,,7,,,79,127
41551,note_on,2,0,0,,5,,,77,127
41587,note_off,36,0,0,,5,,,65,127
41589,note_on,2,0,0,,7,,,55,127
41645,note_off,56,0,0,,2,,,74,127
41648,note_off,3,0,0,,5,,,77,127
41736,note_off,88,0,0,,7,,,55,127
41738,note_on,2,0,0,,8,,,80,127
41738,note_on,0,0,0,,3,,,75,127
41738,note_on,0,0,0,,3,,,63,127
41774,note_off,36,0,0,,8,,,80,127
41776,note_on,2,0,0,,7,,,79,127
41812,note_off,36,0,0,,7,,,79,127
41814,note_on,2,0,0,,8,,,80,127
41850,note_off,36,0,0,,8,,,80,127
41852,note_on,2,0,0,,7,,,79,127
41888,note_off,36,0,0,,3,,,63,127
41890,note_on,2,0,0,,5,,,53,127
41946,note_off,56,0,0,,3,,,75,127
41949,note_off,3,0,0,,7,,,79,127
42037,note_off,88,0,0,,5,,,53,127
42039,note_on,2,0,0,,11,,,82,127
42039,note_on,0,0,0,,5,,,77,127
42039,note_on,0,0,0,,2,,,62,127
42075,note_off,36,0,0,,11,,,82,127
42077,note_on,2,0,0,,8,,,80,127
42113,note_off,36,0,0,,8,,,80,127
42115,note_on,2,0,0,,11,,,82,127
42151,note_off,36,0,0,,11,,,82,127
42153,note_on,2,0,0,,8,,,80,127
42189,note_off,36,0,0,,2,,,62,127
42191,note_on,2,0,0,,3,,,51,127
42247,note_off,56,0,0,,5,,,77,127
42250,note_off,3,0,0,,8,,,80,127
42338,note_off,88,0,0,,3,,,51,127
42340,note_on,2,0,0,,0,,,84,127
42340,note_on,0,0,0,,7,,,79,127
42340,note_on,0,0,0,,3,,,63,127
42373,note_off,33,0,0,,0,,,84,127
42378,note_on,5,0,0,,11,,,82,127
42414,note_off,36,0,0,,11,,,82,127
42416,note_on,2,0,0,,0,,,84,127
42452,note_off,36,0,0,,0,,,84,127
42454,note_on,2,0,0,,11,,,82,127
42490,note_off,36,0,0,,3,,,63,127
42523,note_on,33,0,0,,11,,,58,127
42548,note_off,25,0,0,,7,,,79,127
42551,note_off,3,0,0,,11,,,82,127
42670,note_off,119,0,0,,11,,,58,127
42672,note_on,2,0,0,,2,,,62,127
42819,note_off,147,0,0,,2,,,62,127
42821,note_on,2,0,0,,5,,,65,127
42968,note_off,147,0,0,,5,,,65,127
42970,note_on,2,0,0,,11,,,58,127
43117,note_off,147,0,0,,11,,,58,127
43119,note_on,2,0,0,,8,,,56,127
43266,note_off,147,0,0,,8,,,56,127
43268,note_on,2,0,0,,7,,,79,127
43268,note_on,0,0,0,,2,,,74,127
43268,note_on,0,0,0,,5,,,65,127
43304,note_off,36,0,0,,7,,,79,127
43306,note_on,2,0,0,,5,,,77,127
43342,note_off,36,0,0,,5,,,77,127
43344,note_on,2,0,0,,7,,,79,127
43380,note_off,36,0,0,,7,,,79,127
43382,note_on,2,0,0,,5,,,77,127
43418,note_off,36,0,0,,5,,,65,127
43420,note_on,2,0,0,,7,,,55,127
43476,note_off,56,0,0,,2,,,74,127
43479,note_off,3,0,0,,5,,,77,127
43567,note_off,88,0,0,,7,,,55,127
43569,note_on,2,0,0,,8,,,80,127
43569,note_on,0,0,0,,3,,,75,127
43569,note_on,0,0,0,,3,,,63,127
43605,note_off,36,0,0,,8,,,80,127
43607,note_on,2,0,0,,7,,,79,127
43643,note_off,36,0,0,,7,,,79,127
43645,note_on,2,0,0,,8,,,80,127
43681,note_off,36,0,0,,8,,,80,127
43683,note_on,2,0,0,,7,,,79,127
43719,note_off,36,0,0,,3,,,63,127
43721,note_on,2,0,0,,5,,,53,127
43777,note_off,56,0,0,,3,,,75,127
43780,note_off,3,0,0,,7,,,79,127
43868,note_off,88,0,0,,5,,,53,127
43870,note_on,2,0,0,,11,,,82,127
43870,note_on,0,0,0,,5,,,77,127
43870,note_on,0,0,0,,2,,,62,127
43906,note_off,36,0,0,,11,,,82,127
43908,note_on,2,0,0,,8,,,80,127
43944,note_off,36,0,0,,8,,,80,127
43946,note_on,2,0,0,,11,,,82,127
43982,note_off,36,0,0,,11,,,82,127
43984,note_on,2,0,0,,8,,,80,127
44020,note_off,36,0,0,,2,,,62,127
44022,note_on,2,0,0,,3,,,51,127
44078,note_off,56,0,0,,5,,,77,127
44081,note_off,3,0,0,,8,,,80,127
44169,note_off,88,0,0,,3,,,51,127
44171,note_on,2,0,0,,0,,,84,127
44171,note_on,0,0,0,,7,,,79,127
44171,note_on,0,0,0,,3,,,63,127
44204,note_off,33,0,0,,0,,,84,127
44209,note_on,5,0,0,,11,,,82,127
44245,note_off,36,0,0,,11,,,82,127
44247,note_on,2,0,0,,0,,,84,127
44283,note_off,36,0,0,,0,,,84,127
44285,note_on,2,0,0,,11,,,82,127
44321,note_off,36,0,0,,3,,,63,127
44378,note_off,57,0,0,,7,,,79,127
44469,note_off,91,0,0,,11,,,82,127
44916,note_on,447,0,0,,7,,,67,127
44916,note_on,0,0,0,,3,,,63,127
44916,note_on,0,0,0,,11,,,70,127
45065,note_on,149,0,0,,7,,,79,127
45212,note_off,147,0,0,,7,,,79,127
45212,note_off,0,0,0,,11,,,70,127
45212,note_off,0,0,0,,3,,,63,127
45212,note_off,0,0,0,,7,,,67,127
45214,note_on,2,0,0,,11,,,70,127
45214,note_on,0,0,0,,3,,,63,127
45214,note_on,0,0,0,,7,,,67,127
45214,note_on,0,0,0,,11,,,82,127
45510,note_off,296,0,0,,7,,,67,127
45510,note_off,0,0,0,,3,,,63,127
45510,note_off,0,0,0,,11,,,70,127
45512,note_on,2,0,0,,3,,,63,127
45512,note_on,0,0,0,,11,,,70,127
45512,note_on,0,0,0,,7,,,67,127
45659,note_off,147,0,0,,11,,,82,127
45661,note_on,2,0,0,,7,,,79,127
45808,note_off,147,0,0,,7,,,79,127
45808,note_off,0,0,0,,7,,,67,127
45808,note_off,0,0,0,,11,,,70,127
45808,note_off,0,0,0,,3,,,63,127
45810,note_on,2,0,0,,11,,,70,127
45810,note_on,0,0,0,,7,,,67,127
45810,note_on,0,0,0,,3,,,63,127
45810,note_on,0,0,0,,11,,,82,127
45957,note_off,147,0,0,,11,,,82,127
45959,note_on,2,0,0,,7,,,79,127
46106,note_off,147,0,0,,7,,,79,127
46106,note_off,0,0,0,,3,,,63,127
46106,note_off,0,0,0,,7,,,67,127
46106,note_off,0,0,0,,11,,,70,127
46108,note_on,2,0,0,,11,,,70,127
46108,note_on,0,0,0,,7,,,67,127
46108,note_on,0,0,0,,3,,,63,127
46108,note_on,0,0,0,,11,,,82,127
46404,note_off,296,0,0,,3,,,63,127
46404,note_off,0,0,0,,7,,,67,127
46404,note_off,0,0,0,,11,,,70,127
46406,note_on,2,0,0,,3,,,63,127
46406,note_on,0,0,0,,11,,,70,127
46406,note_on,0,0,0,,7,,,67,127
46553,note_off,147,0,0,,11,,,82,127
46555,note_on,2,0,0,,7,,,79,127
46702,note_off,147,0,0,,7,,,79,127
46702,note_off,0,0,0,,7,,,67,127
46702,note_off,0,0,0,,11,,,70,127
46702,note_off,0,0,0,,3,,,63,127
46704,note_on,2,0,0,,2,,,62,127
46704,note_on,0,0,0,,11,,,70,127
46704,note_on,0,0,0,,7,,,67,127
46704,note_on,0,0,0,,11,,,82,127
46851,note_off,147,0,0,,11,,,82,127
46853,note_on,2,0,0,,7,,,79,127
47000,note_off,147,0,0,,7,,,79,127
47000,note_off,0,0,0,,7,,,67,127
47000,note_off,0,0,0,,11,,,70,127
47000,note_off,0,0,0,,2,,,62,127
47002,note_on,2,0,0,,7,,,67,127
47002,note_on,0,0,0,,2,,,62,127
47002,note_on,0,0,0,,11,,,70,127
47002,note_on,0,0,0,,11,,,82,127
47298,note_off,296,0,0,,11,,,70,127
47298,note_off,0,0,0,,2,,,62,127
47298,note_off,0,0,0,,7,,,67,127
47300,note_on,2,0,0,,2,,,62,127
47300,note_on,0,0,0,,11,,,70,127
47300,note_on,0,0,0,,7,,,67,127
47447,note_off,147,0,0,,11,,,82,127
47449,note_on,2,0,0,,7,,,79,127
47596,note_off,147,0,0,,7,,,79,127
47596,note_off,0,0,0,,7,,,67,127
47596,note_off,0,0,0,,11,,,70,127
47596,note_off,0,0,0,,2,,,62,127
47598,note_on,2,0,0,,7,,,67,127
47598,note_on,0,0,0,,2,,,62,127
47598,note_on,0,0,0,,11,,,70,127
47598,note_on,0,0,0,,11,,,82,127
47745,note_off,147,0,0,,11,,,82,127
47747,note_on,2,0,0,,7,,,79,127
47894,note_off,147,0,0,,7,,,79,127
47894,note_off,0,0,0,,11,,,70,127
47894,note_off,0,0,0,,2,,,62,127
47894,note_off,0,0,0,,7,,,67,127
47896,note_on,2,0,0,,2,,,62,127
47896,note_on,0,0,0,,11,,,70,127
47896,note_on,0,0,0,,7,,,67,127
47896,note_on,0,0,0,,11,,,82,127
48190,note_off,294,0,0,,11,,,82,127
48192,note_off,2,0,0,,7,,,67,127
48192,note_off,0,0,0,,11,,,70,127
48192,note_off,0,0,0,,2,,,62,127
48194,note_on,2,0,0,,7,,,67,127
48194,note_on,0,0,0,,2,,,62,127
48194,note_on,0,0,0,,11,,,70,127
48355,note_on,161,0,0,,12,,,83,127
48490,note_off,135,0,0,,11,,,70,127
48490,note_off,0,0,0,,2,,,62,127
48490,note_off,0,0,0,,7,,,67,127
48502,note_off,12,0,0,,12,,,83,127
48504,note_on,2,0,0,,0,,,84,127
48504,note_on,0,0,0,,5,,,65,127
48504,note_on,0,0,0,,8,,,68,127
48504,note_on,0,0,0,,0,,,60,127
48651,note_off,147,0,0,,0,,,84,127
48653,note_on,2,0,0,,8,,,80,127
48800,note_off,147,0,0,,8,,,80,127
48800,note_off,0,0,0,,0,,,60,127
48800,note_off,0,0,0,,8,,,68,127
48800,note_off,0,0,0,,5,,,65,127
48802,note_on,2,0,0,,0,,,84,127
48802,note_on,0,0,0,,8,,,68,127
48802,note_on,0,0,0,,5,,,65,127
48802,note_on,0,0,0,,0,,,60,127
49098,note_off,296,0,0,,0,,,60,127
49098,note_off,0,0,0,,5,,,65,127
49098,note_off,0,0,0,,8,,,68,127
49100,note_on,2,0,0,,8,,,68,127
49100,note_on,0,0,0,,5,,,65,127
49100,note_on,0,0,0,,0,,,60,127
49247,note_off,147,0,0,,0,,,84,127
49249,note_on,2,0,0,,8,,,80,127
49396,note_off,147,0,0,,8,,,80,127
49396,note_off,0,0,0,,0,,,60,127
49396,note_off,0,0,0,,5,,,65,127
49396,note_off,0,0,0,,8,,,68,127
49398,note_on,2,0,0,,0,,,84,127
49398,note_on,0,0,0,,8,,,68,127
49398,note_on,0,0,0,,0,,,60,127
49398,note_on,0,0,0,,5,,,65,127
49545,note_off,147,0,0,,0,,,84,127
49547,note_on,2,0,0,,8,,,80,127
49694,note_off,147,0,0,,8,,,80,127
49694,note_off,0,0,0,,5,,,65,127
49694,note_off,0,0,0,,0,,,60,127
49694,note_off,0,0,0,,8,,,68,127
49696,note_on,2,0,0,,0,,,84,127
49696,note_on,0,0,0,,8,,,68,127
49696,note_on,0,0,0,,5,,,65,127
49696,note_on,0,0,0,,0,,,60,127
49992,note_off,296,0,0,,0,,,60,127
49992,note_off,0,0,0,,5,,,65,127
49992,note_off,0,0,0,,8,,,68,127
49994,note_on,2,0,0,,0,,,60,127
49994,note_on,0,0,0,,5,,,65,127
49994,note_on,0,0,0,,8,,,68,127
50141,note_off,147,0,0,,0,,,84,127
50143,note_on,2,0,0,,8,,,80,127
50290,note_off,147,0,0,,8,,,80,127
50290,note_off,0,0,0,,8,,,68,127
50290,note_off,0,0,0,,5,,,65,127
50290,note_off,0,0,0,,0,,,60,127
50304,note_on,14,0,0,,12,,,59,127
50304,note_on,0,0,0,,7,,,67,127
50304,note_on,0,0,0,,5,,,65,127
50304,note_on,0,0,0,,2,,,86,127
50451,note_off,147,0,0,,2,,,86,127
50453,note_on,2,0,0,,8,,,80,127
50600,note_off,147,0,0,,8,,,80,127
50600,note_off,0,0,0,,5,,,65,127
50600,note_off,0,0,0,,7,,,67,127
50600,note_off,0,0,0,,12,,,59,127
50602,note_on,2,0,0,,12,,,59,127
50602,note_on,0,0,0,,7,,,67,127
50602,note_on,0,0,0,,5,,,65,127
50602,note_on,0,0,0,,7,,,79,127
50749,note_off,147,0,0,,7,,,79,127
50751,note_on,2,0,0,,5,,,77,127
50898,note_off,147,0,0,,5,,,77,127
50898,note_off,0,0,0,,5,,,65,127
50898,note_off,0,0,0,,7,,,67,127
50898,note_off,0,0,0,,12,,,59,127
50900,note_on,2,0,0,,12,,,59,127
50900,note_on,0,0,0,,7,,,67,127
50900,note_on,0,0,0,,5,,,65,127
50900,note_on,0,0,0,,3,,,75,127
51047,note_off,147,0,0,,3,,,75,127
51049,note_on,2,0,0,,2,,,74,127
51196,note_off,147,0,0,,2,,,74,127
51196,note_off,0,0,0,,5,,,65,127
51196,note_off,0,0,0,,7,,,67,127
51196,note_off,0,0,0,,12,,,59,127
51198,note_on,2,0,0,,3,,,63,127
51198,note_on,0,0,0,,0,,,60,127
51198,note_on,0,0,0,,7,,,67,127
51198,note_on,0,0,0,,3,,,75,127
51345,note_off,147,0,0,,3,,,75,127
51347,note_on,2,0,0,,5,,,77,127
51420,note_off,73,0,0,,5,,,77,127
51422,note_on,2,0,0,,7,,,79,127
51495,note_off,73,0,0,,7,,,79,127
51495,note_off,0,0,0,,7,,,67,127
51495,note_off,0,0,0,,0,,,60,127
51495,note_off,0,0,0,,3,,,63,127
51497,note_on,2,0,0,,8,,,56,127
51497,note_on,0,0,0,,8,,,68,127
51497,note_on,0,0,0,,5,,,77,127
51644,note_off,147,0,0,,5,,,77,127
51646,note_on,2,0,0,,3,,,75,127
51793,note_off,147,0,0,,3,,,75,127
51793,note_off,0,0,0,,8,,,68,127
51793,note_off,0,0,0,,8,,,56,127
51795,note_on,2,0,0,,5,,,65,127
51795,note_on,0,0,0,,8,,,56,127
51795,note_on,0,0,0,,2,,,74,127
51942,note_off,147,0,0,,2,,,74,127
51944,note_on,2,0,0,,0,,,72,127
52091,note_off,147,0,0,,0,,,72,127
52091,note_off,0,0,0,,8,,,56,127
52091,note_off,0,0,0,,5,,,65,127
52093,note_on,2,0,0,,7,,,55,127
52093,note_on,0,0,0,,7,,,67,127
52093,note_on,0,0,0,,12,,,71,127
52314,note_off,221,0,0,,12,,,71,127
52316,note_on,2,0,0,,0,,,72,127
52389,note_off,73,0,0,,0,,,72,127
52389,note_off,0,0,0,,7,,,55,127
52391,note_on,2,0,0,,8,,,56,127
52391,note_on,0,0,0,,2,,,74,127
52464,note_off,73,0,0,,2,,,74,127
52466,note_on,2,0,0,,0,,,72,127
52539,note_off,73,0,0,,0,,,72,127
52541,note_on,2,0,0,,2,,,74,127
52614,note_off,73,0,0,,2,,,74,127
52616,note_on,2,0,0,,0,,,72,127
52684,note_off,68,0,0,,7,,,67,127
52689,note_off,5,0,0,,0,,,72,127
52691,note_on,2,0,0,,5,,,65,127
52691,note_on,0,0,0,,2,,,74,127
52764,note_off,73,0,0,,2,,,74,127
52766,note_on,2,0,0,,0,,,72,127
52839,note_off,73,0,0,,0,,,72,127
52841,note_on,2,0,0,,12,,,71,127
52914,note_off,73,0,0,,12,,,71,127
52916,note_on,2,0,0,,0,,,72,127
52984,note_off,68,0,0,,8,,,56,127
52989,note_off,5,0,0,,0,,,72,127
52989,note_off,0,0,0,,5,,,65,127
52991,note_on,2,0,0,,7,,,55,127
52991,note_on,0,0,0,,7,,,67,127
52991,note_on,0,0,0,,12,,,71,127
53212,note_off,221,0,0,,12,,,71,127
53214,note_on,2,0,0,,0,,,72,127
53287,note_off,73,0,0,,0,,,72,127
53287,note_off,0,0,0,,7,,,55,127
53289,note_on,2,0,0,,8,,,56,127
53289,note_on,0,0,0,,2,,,74,127
53362,note_off,73,0,0,,2,,,74,127
53364,note_on,2,0,0,,0,,,72,127
53437,note_off,73,0,0,,0,,,72,127
53439,note_on,2,0,0,,2,,,74,127
53512,note_off,73,0,0,,2,,,74,127
53514,note_on,2,0,0,,0,,,72,127
53582,note_off,68,0,0,,7,,,67,127
53587,note_off,5,0,0,,0,,,72,127
53589,note_on,2,0,0,,5,,,65,127
53589,note_on,0,0,0,,2,,,74,127
53662,note_off,73,0,0,,2,,,74,127
53664,note_on,2,0,0,,0,,,72,127
53737,note_off,73,0,0,,0,,,72,127
53739,note_on,2,0,0,,12,,,71,127
53812,note_off,73,0,0,,12,,,71,127
53814,note_on,2,0,0,,0,,,72,127
53882,note_off,68,0,0,,8,,,56,127
53887,note_off,5,0,0,,0,,,72,127
53887,note_off,0,0,0,,5,,,65,127
53889,note_on,2,0,0,,7,,,55,127
53889,note_on,0,0,0,,7,,,67,127
53889,note_on,0,0,0,,0,,,72,127
54185,note_off,296,0,0,,0,,,72,127
54187,note_on,2,0,0,,3,,,75,127
54246,note_on,59,0,0,,2,,,74,127
54260,note_off,14,0,0,,3,,,75,127
54305,note_on,45,0,0,,3,,,75,127
54319,note_off,14,0,0,,2,,,74,127
54364,note_on,45,0,0,,2,,,74,127
54378,note_off,14,0,0,,3,,,75,127
54483,note_off,105,0,0,,7,,,67,127
54485,note_on,2,0,0,,7,,,43,127
54736,note_off,251,0,0,,2,,,74,127
54781,note_off,45,0,0,,7,,,43,127
54924,note_off,143,0,0,,7,,,55,127
54931,note_on,7,0,0,,7,,,55,127
55078,note_off,147,0,0,,7,,,55,127
55080,note_on,2,0,0,,12,,,59,127
55227,note_off,147,0,0,,12,,,59,127
55229,note_on,2,0,0,,2,,,62,127
55376,note_off,147,0,0,,2,,,62,127
55378,note_on,2,0,0,,7,,,55,127
55525,note_off,147,0,0,,7,,,55,127
55527,note_on,2,0,0,,5,,,53,127
55674,note_off,147,0,0,,5,,,53,127
55676,note_on,2,0,0,,2,,,62,127
55676,note_on,0,0,0,,4,,,76,127
55676,note_on,0,0,0,,12,,,71,127
55712,note_off,36,0,0,,4,,,76,127
55714,note_on,2,0,0,,2,,,74,127
55750,note_off,36,0,0,,2,,,74,127
55752,note_on,2,0,0,,4,,,76,127
55788,note_off,36,0,0,,4,,,76,127
55790,note_on,2,0,0,,2,,,74,127
55826,note_off,36,0,0,,2,,,62,127
55828,note_on,2,0,0,,4,,,52,127
55884,note_off,56,0,0,,12,,,71,127
55887,note_off,3,0,0,,2,,,74,127
55975,note_off,88,0,0,,4,,,52,127
55977,note_on,2,0,0,,0,,,60,127
55977,note_on,0,0,0,,5,,,77,127
55977,note_on,0,0,0,,0,,,72,127
56013,note_off,36,0,0,,5,,,77,127
56015,note_on,2,0,0,,4,,,76,127
56051,note_off,36,0,0,,4,,,76,127
56053,note_on,2,0,0,,5,,,77,127
56089,note_off,36,0,0,,5,,,77,127
56091,note_on,2,0,0,,4,,,76,127
56127,note_off,36,0,0,,0,,,60,127
56129,note_on,2,0,0,,2,,,50,127
56185,note_off,56,0,0,,0,,,72,127
56188,note_off,3,0,0,,4,,,76,127
56276,note_off,88,0,0,,2,,,50,127
56278,note_on,2,0,0,,12,,,59,127
56278,note_on,0,0,0,,7,,,79,127
56278,note_on,0,0,0,,2,,,74,127
56314,note_off,36,0,0,,7,,,79,127
56316,note_on,2,0,0,,5,,,77,127
56352,note_off,36,0,0,,5,,,77,127
56354,note_on,2,0,0,,7,,,79,127
56390,note_off,36,0,0,,7,,,79,127
56392,note_on,2,0,0,,5,,,77,127
56428,note_off,36,0,0,,12,,,59,127
56430,note_on,2,0,0,,0,,,48,127
56486,note_off,56,0,0,,2,,,74,127
56489,note_off,3,0,0,,5,,,77,127
56577,note_off,88,0,0,,0,,,48,127
56579,note_on,2,0,0,,0,,,60,127
56579,note_on,0,0,0,,10,,,81,127
56579,note_on,0,0,0,,4,,,76,127
56616,note_off,37,0,0,,10,,,81,127
56616,note_on,0,0,0,,7,,,79,127
56653,note_off,37,0,0,,7,,,79,127
56653,note_on,0,0,0,,10,,,81,127
56690,note_off,37,0,0,,10,,,81,127
56702,note_on,12,0,0,,7,,,79,127
56725,note_off,23,0,0,,0,,,60,127
56739,note_on,14,0,0,,7,,,55,127
56782,note_off,43,0,0,,4,,,76,127
56797,note_off,15,0,0,,7,,,79,127
56885,note_off,88,0,0,,7,,,55,127
56887,note_on,2,0,0,,12,,,59,127
57034,note_off,147,0,0,,12,,,59,127
57036,note_on,2,0,0,,2,,,62,127
57183,note_off,147,0,0,,2,,,62,127
57185,note_on,2,0,0,,7,,,55,127
57332,note_off,147,0,0,,7,,,55,127
57334,note_on,2,0,0,,5,,,53,127
57481,note_off,147,0,0,,5,,,53,127
57483,note_on,2,0,0,,4,,,76,127
57483,note_on,0,0,0,,12,,,71,127
57483,note_on,0,0,0,,2,,,62,127
57519,note_off,36,0,0,,4,,,76,127
57521,note_on,2,0,0,,2,,,74,127
57557,note_off,36,0,0,,2,,,74,127
57559,note_on,2,0,0,,4,,,76,127
57595,note_off,36,0,0,,4,,,76,127
57597,note_on,2,0,0,,2,,,74,127
57633,note_off,36,0,0,,2,,,62,127
57635,note_on,2,0,0,,4,,,52,127
57691,note_off,56,0,0,,12,,,71,127
57694,note_off,3,0,0,,2,,,74,127
57782,note_off,88,0,0,,4,,,52,127
57784,note_on,2,0,0,,5,,,77,127
57784,note_on,0,0,0,,0,,,72,127
57784,note_on,0,0,0,,0,,,60,127
57820,note_off,36,0,0,,5,,,77,127
57822,note_on,2,0,0,,4,,,76,127
57858,note_off,36,0,0,,4,,,76,127
57860,note_on,2,0,0,,5,,,77,127
57896,note_off,36,0,0,,5,,,77,127
57898,note_on,2,0,0,,4,,,76,127
57934,note_off,36,0,0,,0,,,60,127
57936,note_on,2,0,0,,2,,,50,127
57992,note_off,56,0,0,,0,,,72,127
57995,note_off,3,0,0,,4,,,76,127
58083,note_off,88,0,0,,2,,,50,127
58085,note_on,2,0,0,,7,,,79,127
58085,note_on,0,0,0,,2,,,74,127
58085,note_on,0,0,0,,12,,,59,127
58121,note_off,36,0,0,,7,,,79,127
58123,note_on,2,0,0,,5,,,77,127
58159,note_off,36,0,0,,5,,,77,127
58161,note_on,2,0,0,,7,,,79,127
58197,note_off,36,0,0,,7,,,79,127
58199,note_on,2,0,0,,5,,,77,127
58235,note_off,36,0,0,,12,,,59,127
58237,note_on,2,0,0,,0,,,48,127
58293,note_off,56,0,0,,2,,,74,127
58296,note_off,3,0,0,,5,,,77,127
58384,note_off,88,0,0,,0,,,48,127
58386,note_on,2,0,0,,10,,,81,127
58386,note_on,0,0,0,,4,,,76,127
58386,note_on,0,0,0,,0,,,60,127
58423,note_off,37,0,0,,10,,,81,127
58423,note_on,0,0,0,,7,,,79,127
58460,note_off,37,0,0,,7,,,79,127
58460,note_on,0,0,0,,10,,,81,127
58497,note_off,37,0,0,,10,,,81,127
58497,note_on,0,0,0,,7,,,79,127
58533,note_off,36,0,0,,0,,,60,127
58559,note_on,26,0,0,,5,,,53,127
58590,note_off,31,0,0,,4,,,76,127
58699,note_off,109,0,0,,7,,,79,127
58708,note_on,9,0,0,,8,,,80,127
58855,note_off,147,0,0,,8,,,80,127
58857,note_on,2,0,0,,10,,,81,127
58857,note_on,0,0,0,,1,,,61,127
59004,note_off,147,0,0,,10,,,81,127
59006,note_on,2,0,0,,1,,,73,127
59153,note_off,147,0,0,,1,,,73,127
59153,note_off,0,0,0,,1,,,61,127
59155,note_on,2,0,0,,2,,,74,127
59155,note_on,0,0,0,,2,,,62,127
59302,note_off,147,0,0,,2,,,74,127
59304,note_on,2,0,0,,7,,,79,127
59341,note_on,37,0,0,,5,,,77,127
59346,note_off,5,0,0,,7,,,79,127
59379,note_on,33,0,0,,7,,,79,127
59384,note_off,5,0,0,,5,,,77,127
59417,note_on,33,0,0,,5,,,77,127
59422,note_off,5,0,0,,7,,,79,127
59453,note_off,31,0,0,,2,,,62,127
59453,note_off,0,0,0,,5,,,53,127
59455,note_on,2,0,0,,4,,,52,127
59602,note_off,147,0,0,,5,,,77,127
59604,note_on,2,0,0,,6,,,78,127
59751,note_off,147,0,0,,6,,,78,127
59753,note_on,2,0,0,,7,,,79,127
59753,note_on,0,0,0,,12,,,59,127
59900,note_off,147,0,0,,7,,,79,127
59902,note_on,2,0,0,,12,,,71,127
60049,note_off,147,0,0,,12,,,71,127
60049,note_off,0,0,0,,12,,,59,127
60051,note_on,2,0,0,,0,,,72,127
60051,note_on,0,0,0,,0,,,60,127
60198,note_off,147,0,0,,0,,,72,127
60200,note_on,2,0,0,,5,,,77,127
60236,note_off,36,0,0,,5,,,77,127
60238,note_on,2,0,0,,4,,,76,127
60274,note_off,36,0,0,,4,,,76,127
60276,note_on,2,0,0,,5,,,77,127
60312,note_off,36,0,0,,5,,,77,127
60314,note_on,2,0,0,,4,,,76,127
60350,note_off,36,0,0,,4,,,76,127
60350,note_off,0,0,0,,0,,,60,127
60350,note_off,0,0,0,,4,,,52,127
60352,note_on,2,0,0,,2,,,74,127
60352,note_on,0,0,0,,5,,,53,127
60499,note_off,147,0,0,,2,,,74,127
60501,note_on,2,0,0,,5,,,77,127
60501,note_on,0,0,0,,10,,,81,127
60648,note_off,147,0,0,,10,,,81,127
60648,note_off,0,0,0,,5,,,77,127
60648,note_off,0,0,0,,5,,,53,127
60650,note_on,2,0,0,,7,,,79,127
60650,note_on,0,0,0,,4,,,76,127
60650,note_on,0,0,0,,7,,,55,127
60797,note_off,147,0,0,,4,,,76,127
60797,note_off,0,0,0,,7,,,79,127
60799,note_on,2,0,0,,5,,,77,127
60799,note_on,0,0,0,,2,,,74,127
60946,note_off,147,0,0,,2,,,74,127
60946,note_off,0,0,0,,5,,,77,127
60946,note_off,0,0,0,,7,,,55,127
60948,note_on,2,0,0,,0,,,72,127
60948,note_on,0,0,0,,4,,,76,127
60948,note_on,0,0,0,,7,,,43,127
61095,note_off,147,0,0,,4,,,76,127
61095,note_off,0,0,0,,0,,,72,127
61097,note_on,2,0,0,,12,,,71,127
61097,note_on,0,0,0,,2,,,74,127
61244,note_off,147,0,0,,2,,,74,127
61244,note_off,0,0,0,,12,,,71,127
61244,note_off,0,0,0,,7,,,43,127
61246,note_on,2,0,0,,12,,,71,127
61246,note_on,0,0,0,,2,,,74,127
61246,note_on,0,0,0,,0,,,48,127
61542,note_off,296,0,0,,2,,,74,127
61542,note_off,0,0,0,,12,,,71,127
61544,note_on,2,0,0,,2,,,74,127
61617,note_off,73,0,0,,2,,,74,127
61619,note_on,2,0,0,,0,,,72,127
61692,note_off,73,0,0,,0,,,72,127
61694,note_on,2,0,0,,2,,,74,127
61767,note_off,73,0,0,,2,,,74,127
61769,note_on,2,0,0,,0,,,72,127
61843,note_on,74,0,0,,0,,,36,127
62023,note_off,180,0,0,,0,,,48,127
62139,note_off,116,0,0,,0,,,36,127
62141,note_off,2,0,0,,0,,,72,127
62166,note_on,25,0,0,,7,,,55,127
62313,note_off,147,0,0,,7,,,55,127
62315,note_on,2,0,0,,12,,,59,127
62462,note_off,147,0,0,,12,,,59,127
62464,note_on,2,0,0,,2,,,62,127
62611,note_off,147,0,0,,2,,,62,127
62613,note_on,2,0,0,,7,,,55,127
62760,note_off,147,0,0,,7,,,55,127
62762,note_on,2,0,0,,5,,,53,127
62909,note_off,147,0,0,,5,,,53,127
62911,note_on,2,0,0,,4,,,76,127
62911,note_on,0,0,0,,12,,,71,127
62911,note_on,0,0,0,,2,,,62,127
62947,note_off,36,0,0,,4,,,76,127
62949,note_on,2,0,0,,2,,,74,127
62985,note_off,36,0,0,,2,,,74,127
62987,note_on,2,0,0,,4,,,76,127
63023,note_off,36,0,0,,4,,,76,127
63025,note_on,2,0,0,,2,,,74,127
63061,note_off,36,0,0,,2,,,62,127
63063,note_on,2,0,0,,4,,,52,127
63119,note_off,56,0,0,,12,,,71,127
63122,note_off,3,0,0,,2,,,74,127
63210,note_off,88,0,0,,4,,,52,127
63212,note_on,2,0,0,,5,,,77,127
63212,note_on,0,0,0,,0,,,72,127
63212,note_on,0,0,0,,0,,,60,127
63248,note_off,36,0,0,,5,,,77,127
63250,note_on,2,0,0,,4,,,76,127
63286,note_off,36,0,0,,4,,,76,127
63288,note_on,2,0,0,,5,,,77,127
63324,note_off,36,0,0,,5,,,77,127
63326,note_on,2,0,0,,4,,,76,127
63362,note_off,36,0,0,,0,,,60,127
63364,note_on,2,0,0,,2,,,50,127
63420,note_off,56,0,0,,0,,,72,127
63423,note_off,3,0,0,,4,,,76,127
63511,note_off,88,0,0,,2,,,50,127
63513,note_on,2,0,0,,7,,,79,127
63513,note_on,0,0,0,,2,,,74,127
63513,note_on,0,0,0,,12,,,59,127
63549,note_off,36,0,0,,7,,,79,127
63551,note_on,2,0,0,,5,,,77,127
63587,note_off,36,0,0,,5,,,77,127
63589,note_on,2,0,0,,7,,,79,127
63625,note_off,36,0,0,,7,,,79,127
63627,note_on,2,0,0,,5,,,77,127
63663,note_off,36,0,0,,12,,,59,127
63665,note_on,2,0,0,,0,,,48,127
63721,note_off,56,0,0,,2,,,74,127
63724,note_off,3,0,0,,5,,,77,127
63812,note_off,88,0,0,,0,,,48,127
63814,note_on,2,0,0,,10,,,81,127
63814,note_on,0,0,0,,4,,,76,127
63814,note_on,0,0,0,,0,,,60,127
63851,note_off,37,0,0,,10,,,81,127
63851,note_on,0,0,0,,7,,,79,127
63888,note_off,37,0,0,,7,,,79,127
63888,note_on,0,0,0,,10,,,81,127
63925,note_off,37,0,0,,10,,,81,127
63925,note_on,0,0,0,,7,,,79,127
63961,note_off,36,0,0,,0,,,60,127
63975,note_on,14,0,0,,7,,,55,127
64018,note_off,43,0,0,,4,,,76,127
64021,note_off,3,0,0,,7,,,79,127
64122,note_off,101,0,0,,7,,,55,127
64124,note_on,2,0,0,,12,,,59,127
64271,note_off,147,0,0,,12,,,59,127
64273,note_on,2,0,0,,2,,,62,127
64420,note_off,147,0,0,,2,,,62,127
64422,note_on,2,0,0,,7,,,55,127
64569,note_off,147,0,0,,7,,,55,127
64571,note_on,2,0,0,,5,,,53,127
64718,note_off,147,0,0,,5,,,53,127
64720,note_on,2,0,0,,2,,,62,127
64720,note_on,0,0,0,,12,,,71,127
64720,note_on,0,0,0,,4,,,76,127
64756,note_off,36,0,0,,4,,,76,127
64758,note_on,2,0,0,,2,,,74,127
64794,note_off,36,0,0,,2,,,74,127
64796,note_on,2,0,0,,4,,,76,127
64832,note_off,36,0,0,,4,,,76,127
64834,note_on,2,0,0,,2,,,74,127
64870,note_off,36,0,0,,2,,,62,127
64872,note_on,2,0,0,,4,,,52,127
64928,note_off,56,0,0,,12,,,71,127
64931,note_off,3,0,0,,2,,,74,127
65019,note_off,88,0,0,,4,,,52,127
65021,note_on,2,0,0,,0,,,60,127
65021,note_on,0,0,0,,0,,,72,127
65021,note_on,0,0,0,,5,,,77,127
65057,note_off,36,0,0,,5,,,77,127
65059,note_on,2,0,0,,4,,,76,127
65095,note_off,36,0,0,,4,,,76,127
65097,note_on,2,0,0,,5,,,77,127
65133,note_off,36,0,0,,5,,,77,127
65135,note_on,2,0,0,,4,,,76,127
65171,note_off,36,0,0,,0,,,60,127
65173,note_on,2,0,0,,2,,,50,127
65229,note_off,56,0,0,,0,,,72,127
65232,note_off,3,0,0,,4,,,76,127
65320,note_off,88,0,0,,2,,,50,127
65322,note_on,2,0,0,,12,,,59,127
65322,note_on,0,0,0,,2,,,74,127
65322,note_on,0,0,0,,7,,,79,127
65358,note_off,36,0,0,,7,,,79,127
65360,note_on,2,0,0,,5,,,77,127
65396,note_off,36,0,0,,5,,,77,127
65398,note_on,2,0,0,,7,,,79,127
65434,note_off,36,0,0,,7,,,79,127
65436,note_on,2,0,0,,5,,,77,127
65472,note_off,36,0,0,,12,,,59,127
65474,note_on,2,0,0,,0,,,48,127
65530,note_off,56,0,0,,2,,,74,127
65533,note_off,3,0,0,,5,,,77,127
65621,note_off,88,0,0,,0,,,48,127
65623,note_on,2,0,0,,0,,,60,127
65623,note_on,0,0,0,,4,,,76,127
65623,note_on,0,0,0,,10,,,81,127
65660,note_off,37,0,0,,10,,,81,127
65660,note_on,0,0,0,,7,,,79,127
65697,note_off,37,0,0,,7,,,79,127
65697,note_on,0,0,0,,10,,,81,127
65734,note_off,37,0,0,,10,,,81,127
65746,note_on,12,0,0,,7,,,79,127
65769,note_off,23,0,0,,0,,,60,127
65795,note_on,26,0,0,,5,,,53,127
65826,note_off,31,0,0,,4,,,76,127
65934,note_off,108,0,0,,7,,,79,127
65943,note_on,9,0,0,,8,,,80,127
66090,note_off,147,0,0,,8,,,80,127
66092,note_on,2,0,0,,1,,,61,127
66092,note_on,0,0,0,,10,,,81,127
66239,note_off,147,0,0,,10,,,81,127
66241,note_on,2,0,0,,1,,,73,127
66388,note_off,147,0,0,,1,,,73,127
66388,note_off,0,0,0,,1,,,61,127
66390,note_on,2,0,0,,2,,,62,127
66390,note_on,0,0,0,,2,,,74,127
66537,note_off,147,0,0,,2,,,74,127
66539,note_on,2,0,0,,7,,,79,127
66575,note_off,36,0,0,,7,,,79,127
66577,note_on,2,0,0,,5,,,77,127
66613,note_off,36,0,0,,5,,,77,127
66615,note_on,2,0,0,,7,,,79,127
66651,note_off,36,0,0,,7,,,79,127
66653,note_on,2,0,0,,5,,,77,127
66689,note_off,36,0,0,,2,,,62,127
66689,note_off,0,0,0,,5,,,53,127
66691,note_on,2,0,0,,4,,,52,127
66750,note_off,59,0,0,,5,,,77,127
66840,note_on,90,0,0,,6,,,78,127
66987,note_off,147,0,0,,6,,,78,127
66989,note_on,2,0,0,,12,,,59,127
66989,note_on,0,0,0,,7,,,79,127
67136,note_off,147,0,0,,7,,,79,127
67138,note_on,2,0,0,,12,,,71,127
67285,note_off,147,0,0,,12,,,71,127
67285,note_off,0,0,0,,12,,,59,127
67287,note_on,2,0,0,,0,,,60,127
67287,note_on,0,0,0,,0,,,72,127
67434,note_off,147,0,0,,0,,,72,127
67436,note_on,2,0,0,,5,,,77,127
67472,note_off,36,0,0,,5,,,77,127
67474,note_on,2,0,0,,4,,,76,127
67510,note_off,36,0,0,,4,,,76,127
67512,note_on,2,0,0,,5,,,77,127
67548,note_off,36,0,0,,5,,,77,127
67550,note_on,2,0,0,,4,,,76,127
67586,note_off,36,0,0,,4,,,76,127
67586,note_off,0,0,0,,4,,,52,127
67594,note_off,8,0,0,,0,,,60,127
67594,note_on,0,0,0,,5,,,53,127
67594,note_on,0,0,0,,2,,,74,127
67741,note_off,147,0,0,,2,,,74,127
67743,note_on,2,0,0,,10,,,81,127
67743,note_on,0,0,0,,5,,,77,127
67890,note_off,147,0,0,,5,,,77,127
67890,note_off,0,0,0,,10,,,81,127
67890,note_off,0,0,0,,5,,,53,127
67892,note_on,2,0,0,,7,,,55,127
67892,note_on,0,0,0,,4,,,76,127
67892,note_on,0,0,0,,7,,,79,127
68039,note_off,147,0,0,,7,,,79,127
68039,note_off,0,0,0,,4,,,76,127
68041,note_on,2,0,0,,2,,,74,127
68041,note_on,0,0,0,,5,,,77,127
68188,note_off,147,0,0,,5,,,77,127
68188,note_off,0,0,0,,2,,,74,127
68188,note_off,0,0,0,,7,,,55,127
68190,note_on,2,0,0,,7,,,43,127
68190,note_on,0,0,0,,0,,,72,127
68190,note_on,0,0,0,,4,,,76,127
68337,note_off,147,0,0,,4,,,76,127
68337,note_off,0,0,0,,0,,,72,127
68339,note_on,2,0,0,,12,,,71,127
68339,note_on,0,0,0,,2,,,74,127
68486,note_off,147,0,0,,2,,,74,127
68486,note_off,0,0,0,,12,,,71,127
68486,note_off,0,0,0,,7,,,43,127
68500,note_on,14,0,0,,4,,,76,127
68500,note_on,0,0,0,,0,,,48,127
68573,note_off,73,0,0,,4,,,76,127
68575,note_on,2,0,0,,0,,,72,127
68648,note_off,73,0,0,,0,,,72,127
68650,note_on,2,0,0,,2,,,74,127
68723,note_off,73,0,0,,2,,,74,127
68725,note_on,2,0,0,,4,,,76,127
68798,note_off,73,0,0,,4,,,76,127
68798,note_off,0,0,0,,0,,,48,127
68800,note_on,2,0,0,,5,,,77,127
68800,note_on,0,0,0,,2,,,50,127
68873,note_off,73,0,0,,5,,,77,127
68875,note_on,2,0,0,,7,,,79,127
68948,note_off,73,0,0,,7,,,79,127
68950,note_on,2,0,0,,10,,,81,127
69023,note_off,73,0,0,,10,,,81,127
69025,note_on,2,0,0,,12,,,83,127
69098,note_off,73,0,0,,12,,,83,127
69098,note_off,0,0,0,,2,,,50,127
69100,note_on,2,0,0,,0,,,84,127
69100,note_on,0,0,0,,4,,,52,127
69173,note_off,73,0,0,,0,,,84,127
69175,note_on,2,0,0,,12,,,83,127
69248,note_off,73,0,0,,12,,,83,127
69250,note_on,2,0,0,,10,,,81,127
69323,note_off,73,0,0,,10,,,81,127
69325,note_on,2,0,0,,7,,,79,127
69398,note_off,73,0,0,,7,,,79,127
69398,note_off,0,0,0,,4,,,52,127
69400,note_on,2,0,0,,5,,,77,127
69400,note_on,0,0,0,,5,,,53,127
69473,note_off,73,0,0,,5,,,77,127
69475,note_on,2,0,0,,4,,,76,127
69548,note_off,73,0,0,,4,,,76,127
69550,note_on,2,0,0,,2,,,74,127
69623,note_off,73,0,0,,2,,,74,127
69625,note_on,2,0,0,,0,,,72,127
69698,note_off,73,0,0,,0,,,72,127
69698,note_off,0,0,0,,5,,,53,127
69700,note_on,2,0,0,,4,,,76,127
69700,note_on,0,0,0,,7,,,55,127
69773,note_off,73,0,0,,4,,,76,127
69775,note_on,2,0,0,,2,,,74,127
69848,note_off,73,0,0,,2,,,74,127
69850,note_on,2,0,0,,4,,,76,127
69923,note_off,73,0,0,,4,,,76,127
69925,note_on,2,0,0,,2,,,74,127
69998,note_off,73,0,0,,2,,,74,127
69998,note_off,0,0,0,,7,,,55,127
70000,note_on,2,0,0,,4,,,76,127
70000,note_on,0,0,0,,7,,,43,127
70073,note_off,73,0,0,,4,,,76,127
70075,note_on,2,0,0,,2,,,74,127
70148,note_off,73,0,0,,2,,,74,127
70150,note_on,2,0,0,,0,,,72,127
70223,note_off,73,0,0,,0,,,72,127
70225,note_on,2,0,0,,2,,,74,127
70298,note_off,73,0,0,,2,,,74,127
70298,note_off,0,0,0,,7,,,43,127
70300,note_on,2,0,0,,4,,,76,127
70300,note_on,0,0,0,,0,,,48,127
70387,note_on,87,0,0,,0,,,72,127
70391,note_off,4,0,0,,4,,,76,127
70460,note_off,69,0,0,,0,,,72,127
70462,note_on,2,0,0,,2,,,74,127
70535,note_off,73,0,0,,2,,,74,127
70537,note_on,2,0,0,,4,,,76,127
70597,note_off,60,0,0,,0,,,48,127
70609,note_off,12,0,0,,4,,,76,127
70611,note_on,2,0,0,,2,,,50,127
70611,note_on,0,0,0,,5,,,77,127
70684,note_off,73,0,0,,5,,,77,127
70686,note_on,2,0,0,,7,,,79,127
70759,note_off,73,0,0,,7,,,79,127
70761,note_on,2,0,0,,10,,,81,127
70834,note_off,73,0,0,,10,,,81,127
70836,note_on,2,0,0,,12,,,83,127
70909,note_off,73,0,0,,12,,,83,127
70909,note_off,0,0,0,,2,,,50,127
70911,note_on,2,0,0,,4,,,52,127
70911,note_on,0,0,0,,0,,,84,127
70984,note_off,73,0,0,,0,,,84,127
70986,note_on,2,0,0,,12,,,83,127
71059,note_off,73,0,0,,12,,,83,127
71061,note_on,2,0,0,,10,,,81,127
71134,note_off,73,0,0,,10,,,81,127
71136,note_on,2,0,0,,7,,,79,127
71209,note_off,73,0,0,,7,,,79,127
71209,note_off,0,0,0,,4,,,52,127
71211,note_on,2,0,0,,5,,,53,127
71211,note_on,0,0,0,,5,,,77,127
71284,note_off,73,0,0,,5,,,77,127
71286,note_on,2,0,0,,4,,,76,127
71359,note_off,73,0,0,,4,,,76,127
71361,note_on,2,0,0,,2,,,74,127
71434,note_off,73,0,0,,2,,,74,127
71436,note_on,2,0,0,,0,,,72,127
71509,note_off,73,0,0,,5,,,53,127
71517,note_on,8,0,0,,7,,,55,127
71517,note_on,0,0,0,,4,,,76,127
71525,note_off,8,0,0,,0,,,72,127
71590,note_off,65,0,0,,4,,,76,127
71592,note_on,2,0,0,,2,,,74,127
71665,note_off,73,0,0,,2,,,74,127
71667,note_on,2,0,0,,4,,,76,127
71740,note_off,73,0,0,,4,,,76,127
71742,note_on,2,0,0,,2,,,74,127
71815,note_off,73,0,0,,2,,,74,127
71815,note_off,0,0,0,,7,,,55,127
71817,note_on,2,0,0,,7,,,43,127
71817,note_on,0,0,0,,4,,,76,127
71890,note_off,73,0,0,,4,,,76,127
71892,note_on,2,0,0,,2,,,74,127
71965,note_off,73,0,0,,2,,,74,127
71967,note_on,2,0,0,,0,,,72,127
72040,note_off,73,0,0,,0,,,72,127
72045,note_on,5,0,0,,2,,,74,127
72115,note_off,70,0,0,,7,,,43,127
72118,note_off,3,0,0,,2,,,74,127
72129,note_on,11,0,0,,0,,,72,127
72129,note_on,0,0,0,,0,,,48,127
72559,note_on,430,0,0,,0,,,36,127
74293,note_off,1734,0,0,,0,,,36,127
74296,note_off,3,0,0,,0,,,48,127
74296,note_off,0,0,0,,0,,,72,127
78336,end_of_track,4040,1,0,,,,,,
