tick,type,time,meta,track,program,channel,pitch,tempo,note,velocity
0,copyright,0,1,0,,,,,,
0,program_change,0,0,0,6,0,,,,
0,pitchwheel,0,0,0,,0,0,,,
0,program_change,0,0,0,6,1,,,,
0,pitchwheel,0,0,0,,1,-590,,,
0,program_change,0,0,0,6,2,,,,
0,pitchwheel,0,0,0,,2,-272,,,
0,program_change,0,0,0,6,3,,,,
0,pitchwheel,0,0,0,,3,-353,,,
0,program_change,0,0,0,6,4,,,,
0,pitchwheel,0,0,0,,4,-560,,,
0,program_change,0,0,0,6,5,,,,
0,pitchwheel,0,0,0,,5,-80,,,
0,program_change,0,0,0,6,6,,,,
0,pitchwheel,0,0,0,,6,-625,,,
0,program_change,0,0,0,6,7,,,,
0,pitchwheel,0,0,0,,7,-130,,,
0,program_change,0,0,0,6,8,,,,
0,pitchwheel,0,0,0,,8,-512,,,
0,program_change,0,0,0,6,10,,,,
0,pitchwheel,0,0,0,,10,-464,,,
0,program_change,0,0,0,6,11,,,,
0,pitchwheel,0,0,0,,11,-208,,,
0,program_change,0,0,0,6,12,,,,
0,pitchwheel,0,0,0,,12,-553,,,
0,set_tempo,0,1,0,,,,500000,,
121,note_on,121,0,0,,11,,,46,127
364,note_on,243,0,0,,11,,,70,127
607,note_on,243,0,0,,11,,,82,127
848,note_off,241,0,0,,11,,,46,127
849,note_on,1,0,0,,11,,,58,127
1090,note_off,241,0,0,,11,,,70,127
1091,note_on,1,0,0,,11,,,70,127
1328,note_off,237,0,0,,11,,,58,127
1333,note_on,5,0,0,,11,,,58,127
1570,note_off,237,0,0,,11,,,70,127
1574,note_off,4,0,0,,11,,,82,127
1575,note_on,1,0,0,,11,,,70,127
1818,note_on,243,0,0,,11,,,46,127
2059,note_off,241,0,0,,11,,,46,127
2059,note_off,0,0,0,,11,,,58,127
2060,note_on,1,0,0,,11,,,58,127
2181,note_off,121,0,0,,11,,,70,127
2301,note_off,120,0,0,,11,,,58,127
2302,note_on,1,0,0,,2,,,74,127
2302,note_on,0,0,0,,5,,,77,127
2543,note_off,241,0,0,,5,,,77,127
2543,note_off,0,0,0,,2,,,74,127
2544,note_on,1,0,0,,0,,,72,127
2544,note_on,0,0,0,,5,,,77,127
2624,note_off,80,0,0,,5,,,77,127
2625,note_on,1,0,0,,3,,,75,127
2705,note_off,80,0,0,,3,,,75,127
2706,note_on,1,0,0,,5,,,77,127
2786,note_off,80,0,0,,5,,,77,127
2786,note_off,0,0,0,,0,,,72,127
2787,note_on,1,0,0,,5,,,65,127
2787,note_on,0,0,0,,3,,,75,127
2867,note_off,80,0,0,,3,,,75,127
2868,note_on,1,0,0,,2,,,74,127
2948,note_off,80,0,0,,2,,,74,127
2949,note_on,1,0,0,,3,,,75,127
3029,note_off,80,0,0,,3,,,75,127
3029,note_off,0,0,0,,5,,,65,127
3030,note_on,1,0,0,,11,,,70,127
3030,note_on,0,0,0,,2,,,74,127
3271,note_off,241,0,0,,2,,,74,127
3271,note_off,0,0,0,,11,,,70,127
3272,note_on,1,0,0,,2,,,62,127
3272,note_on,0,0,0,,5,,,77,127
3513,note_off,241,0,0,,5,,,77,127
3513,note_off,0,0,0,,2,,,62,127
3514,note_on,1,0,0,,0,,,60,127
3514,note_on,0,0,0,,5,,,77,127
3594,note_off,80,0,0,,5,,,77,127
3595,note_on,1,0,0,,3,,,75,127
3675,note_off,80,0,0,,3,,,75,127
3676,note_on,1,0,0,,5,,,77,127
3756,note_off,80,0,0,,5,,,77,127
3756,note_off,0,0,0,,0,,,60,127
3757,note_on,1,0,0,,5,,,53,127
3757,note_on,0,0,0,,3,,,75,127
3837,note_off,80,0,0,,3,,,75,127
3838,note_on,1,0,0,,2,,,74,127
3918,note_off,80,0,0,,2,,,74,127
3919,note_on,1,0,0,,3,,,75,127
3999,note_off,80,0,0,,3,,,75,127
3999,note_off,0,0,0,,5,,,53,127
4000,note_on,1,0,0,,11,,,58,127
4000,note_on,0,0,0,,2,,,74,127
4241,note_off,241,0,0,,2,,,74,127
4241,note_off,0,0,0,,11,,,58,127
4242,note_on,1,0,0,,2,,,50,127
4242,note_on,0,0,0,,5,,,77,127
4483,note_off,241,0,0,,5,,,77,127
4483,note_off,0,0,0,,2,,,50,127
4484,note_on,1,0,0,,0,,,48,127
4484,note_on,0,0,0,,5,,,77,127
4564,note_off,80,0,0,,5,,,77,127
4565,note_on,1,0,0,,3,,,75,127
4645,note_off,80,0,0,,3,,,75,127
4646,note_on,1,0,0,,5,,,77,127
4726,note_off,80,0,0,,5,,,77,127
4726,note_off,0,0,0,,0,,,48,127
4727,note_on,1,0,0,,5,,,41,127
4727,note_on,0,0,0,,3,,,75,127
4807,note_off,80,0,0,,3,,,75,127
4808,note_on,1,0,0,,2,,,74,127
4888,note_off,80,0,0,,2,,,74,127
4889,note_on,1,0,0,,3,,,75,127
4969,note_off,80,0,0,,3,,,75,127
4969,note_off,0,0,0,,5,,,41,127
4970,note_on,1,0,0,,11,,,46,127
4970,note_on,0,0,0,,2,,,74,127
5211,note_off,241,0,0,,2,,,74,127
5212,note_on,1,0,0,,11,,,82,127
5332,note_off,120,0,0,,11,,,82,127
5333,note_off,1,0,0,,11,,,46,127
5333,note_on,0,0,0,,5,,,77,127
5453,note_off,120,0,0,,5,,,77,127
5454,note_on,1,0,0,,3,,,63,127
5454,note_on,0,0,0,,7,,,79,127
5574,note_off,120,0,0,,7,,,79,127
5575,note_on,1,0,0,,3,,,75,127
5695,note_off,120,0,0,,3,,,75,127
5695,note_off,0,0,0,,3,,,63,127
5696,note_on,1,0,0,,2,,,62,127
5696,note_on,0,0,0,,5,,,77,127
5816,note_off,120,0,0,,5,,,77,127
5817,note_on,1,0,0,,2,,,74,127
5937,note_off,120,0,0,,2,,,74,127
5937,note_off,0,0,0,,2,,,62,127
5938,note_on,1,0,0,,0,,,60,127
5938,note_on,0,0,0,,3,,,75,127
6058,note_off,120,0,0,,3,,,75,127
6059,note_on,1,0,0,,0,,,72,127
6179,note_off,120,0,0,,0,,,72,127
6179,note_off,0,0,0,,0,,,60,127
6180,note_on,1,0,0,,11,,,58,127
6180,note_on,0,0,0,,2,,,74,127
6300,note_off,120,0,0,,2,,,74,127
6301,note_on,1,0,0,,11,,,70,127
6421,note_off,120,0,0,,11,,,70,127
6421,note_off,0,0,0,,11,,,58,127
6422,note_on,1,0,0,,10,,,57,127
6422,note_on,0,0,0,,0,,,72,127
6542,note_off,120,0,0,,0,,,72,127
6543,note_on,1,0,0,,10,,,69,127
6663,note_off,120,0,0,,10,,,69,127
6663,note_off,0,0,0,,10,,,57,127
6664,note_on,1,0,0,,7,,,55,127
6664,note_on,0,0,0,,11,,,70,127
6784,note_off,120,0,0,,11,,,70,127
6785,note_on,1,0,0,,7,,,67,127
6905,note_off,120,0,0,,7,,,67,127
6905,note_off,0,0,0,,7,,,55,127
6906,note_on,1,0,0,,5,,,53,127
6906,note_on,0,0,0,,10,,,69,127
7147,note_off,241,0,0,,10,,,69,127
7147,note_off,0,0,0,,5,,,53,127
7148,note_on,1,0,0,,10,,,69,127
7148,note_on,0,0,0,,0,,,72,127
7389,note_off,241,0,0,,0,,,72,127
7389,note_off,0,0,0,,10,,,69,127
7390,note_on,1,0,0,,7,,,67,127
7390,note_on,0,0,0,,0,,,72,127
7470,note_off,80,0,0,,0,,,72,127
7471,note_on,1,0,0,,11,,,70,127
7551,note_off,80,0,0,,11,,,70,127
7552,note_on,1,0,0,,0,,,72,127
7632,note_off,80,0,0,,0,,,72,127
7632,note_off,0,0,0,,7,,,67,127
7633,note_on,1,0,0,,0,,,60,127
7633,note_on,0,0,0,,11,,,70,127
7713,note_off,80,0,0,,11,,,70,127
7714,note_on,1,0,0,,10,,,69,127
7794,note_off,80,0,0,,10,,,69,127
7795,note_on,1,0,0,,11,,,70,127
7875,note_off,80,0,0,,11,,,70,127
7875,note_off,0,0,0,,0,,,60,127
7876,note_on,1,0,0,,5,,,65,127
7876,note_on,0,0,0,,10,,,69,127
8117,note_off,241,0,0,,10,,,69,127
8117,note_off,0,0,0,,5,,,65,127
8118,note_on,1,0,0,,10,,,57,127
8118,note_on,0,0,0,,0,,,72,127
8359,note_off,241,0,0,,0,,,72,127
8359,note_off,0,0,0,,10,,,57,127
8360,note_on,1,0,0,,7,,,55,127
8360,note_on,0,0,0,,0,,,72,127
8440,note_off,80,0,0,,0,,,72,127
8441,note_on,1,0,0,,11,,,70,127
8521,note_off,80,0,0,,11,,,70,127
8522,note_on,1,0,0,,0,,,72,127
8602,note_off,80,0,0,,0,,,72,127
8602,note_off,0,0,0,,7,,,55,127
8603,note_on,1,0,0,,0,,,48,127
8603,note_on,0,0,0,,11,,,70,127
8683,note_off,80,0,0,,11,,,70,127
8684,note_on,1,0,0,,10,,,69,127
8764,note_off,80,0,0,,10,,,69,127
8765,note_on,1,0,0,,11,,,70,127
8845,note_off,80,0,0,,11,,,70,127
8845,note_off,0,0,0,,0,,,48,127
8846,note_on,1,0,0,,5,,,53,127
8846,note_on,0,0,0,,10,,,69,127
9087,note_off,241,0,0,,10,,,69,127
9087,note_off,0,0,0,,5,,,53,127
9088,note_on,1,0,0,,10,,,45,127
9088,note_on,0,0,0,,0,,,72,127
9329,note_off,241,0,0,,0,,,72,127
9329,note_off,0,0,0,,10,,,45,127
9330,note_on,1,0,0,,7,,,43,127
9330,note_on,0,0,0,,0,,,72,127
9410,note_off,80,0,0,,0,,,72,127
9411,note_on,1,0,0,,11,,,70,127
9491,note_off,80,0,0,,11,,,70,127
9492,note_on,1,0,0,,0,,,72,127
9572,note_off,80,0,0,,0,,,72,127
9572,note_off,0,0,0,,7,,,43,127
9573,note_on,1,0,0,,0,,,36,127
9573,note_on,0,0,0,,11,,,70,127
9653,note_off,80,0,0,,11,,,70,127
9654,note_on,1,0,0,,10,,,69,127
9734,note_off,80,0,0,,10,,,69,127
9735,note_on,1,0,0,,11,,,70,127
9815,note_off,80,0,0,,11,,,70,127
9815,note_off,0,0,0,,0,,,36,127
9816,note_on,1,0,0,,5,,,41,127
9816,note_on,0,0,0,,10,,,69,127
10043,note_off,227,0,0,,10,,,69,127
10056,note_off,13,0,0,,5,,,41,127
10079,note_on,23,0,0,,11,,,82,127
10118,note_off,39,0,0,,11,,,82,127
10119,note_on,1,0,0,,10,,,81,127
10158,note_off,39,0,0,,10,,,81,127
10159,note_on,1,0,0,,7,,,79,127
10198,note_off,39,0,0,,7,,,79,127
10199,note_on,1,0,0,,10,,,81,127
10238,note_off,39,0,0,,10,,,81,127
10239,note_on,1,0,0,,11,,,82,127
10278,note_off,39,0,0,,11,,,82,127
10279,note_on,1,0,0,,0,,,84,127
10318,note_off,39,0,0,,0,,,84,127
10319,note_on,1,0,0,,11,,,82,127
10439,note_off,120,0,0,,11,,,82,127
10440,note_on,1,0,0,,10,,,81,127
10560,note_off,120,0,0,,10,,,81,127
10561,note_on,1,0,0,,7,,,79,127
10681,note_off,120,0,0,,7,,,79,127
10682,note_on,1,0,0,,5,,,77,127
10802,note_off,120,0,0,,5,,,77,127
10803,note_on,1,0,0,,7,,,79,127
10924,note_on,121,0,0,,7,,,67,127
11044,note_off,120,0,0,,7,,,67,127
11044,note_off,0,0,0,,7,,,79,127
11045,note_on,1,0,0,,7,,,79,127
11045,note_on,0,0,0,,4,,,64,127
11165,note_off,120,0,0,,4,,,64,127
11166,note_on,1,0,0,,0,,,60,127
11286,note_off,120,0,0,,0,,,60,127
11286,note_off,0,0,0,,7,,,79,127
11287,note_on,1,0,0,,10,,,81,127
11287,note_on,0,0,0,,5,,,65,127
11407,note_off,120,0,0,,5,,,65,127
11408,note_on,1,0,0,,0,,,60,127
11528,note_off,120,0,0,,0,,,60,127
11528,note_off,0,0,0,,10,,,81,127
11529,note_on,1,0,0,,5,,,77,127
11529,note_on,0,0,0,,10,,,69,127
11649,note_off,120,0,0,,10,,,69,127
11650,note_on,1,0,0,,0,,,60,127
11770,note_off,120,0,0,,0,,,60,127
11770,note_off,0,0,0,,5,,,77,127
11771,note_on,1,0,0,,0,,,36,127
11771,note_on,0,0,0,,0,,,60,127
11891,note_off,120,0,0,,0,,,60,127
11892,note_on,1,0,0,,7,,,67,127
12012,note_off,120,0,0,,7,,,67,127
12012,note_off,0,0,0,,0,,,36,127
12013,note_on,1,0,0,,7,,,79,127
12013,note_on,0,0,0,,4,,,64,127
12133,note_off,120,0,0,,4,,,64,127
12134,note_on,1,0,0,,0,,,60,127
12254,note_off,120,0,0,,0,,,60,127
12254,note_off,0,0,0,,7,,,79,127
12255,note_on,1,0,0,,10,,,81,127
12255,note_on,0,0,0,,5,,,65,127
12375,note_off,120,0,0,,5,,,65,127
12376,note_on,1,0,0,,0,,,60,127
12496,note_off,120,0,0,,0,,,60,127
12496,note_off,0,0,0,,10,,,81,127
12497,note_on,1,0,0,,5,,,77,127
12497,note_on,0,0,0,,10,,,69,127
12617,note_off,120,0,0,,10,,,69,127
12618,note_on,1,0,0,,0,,,60,127
12738,note_off,120,0,0,,0,,,60,127
12738,note_off,0,0,0,,5,,,77,127
12739,note_on,1,0,0,,0,,,36,127
12739,note_on,0,0,0,,0,,,60,127
12859,note_off,120,0,0,,0,,,60,127
12860,note_on,1,0,0,,7,,,67,127
12980,note_off,120,0,0,,7,,,67,127
12980,note_off,0,0,0,,0,,,36,127
12981,note_on,1,0,0,,0,,,84,127
12981,note_on,0,0,0,,4,,,64,127
13101,note_off,120,0,0,,4,,,64,127
13102,note_on,1,0,0,,0,,,60,127
13222,note_off,120,0,0,,0,,,60,127
13222,note_off,0,0,0,,0,,,84,127
13223,note_on,1,0,0,,0,,,36,127
13223,note_on,0,0,0,,0,,,60,127
13343,note_off,120,0,0,,0,,,60,127
13344,note_on,1,0,0,,7,,,67,127
13464,note_off,120,0,0,,7,,,67,127
13464,note_off,0,0,0,,0,,,36,127
13465,note_on,1,0,0,,11,,,82,127
13465,note_on,0,0,0,,4,,,64,127
13585,note_off,120,0,0,,4,,,64,127
13586,note_on,1,0,0,,0,,,60,127
13706,note_off,120,0,0,,0,,,60,127
13706,note_off,0,0,0,,11,,,82,127
13707,note_on,1,0,0,,10,,,81,127
13707,note_on,0,0,0,,5,,,65,127
13948,note_off,241,0,0,,5,,,65,127
13948,note_off,0,0,0,,10,,,81,127
13949,note_on,1,0,0,,11,,,82,127
13949,note_on,0,0,0,,11,,,58,127
14029,note_off,80,0,0,,11,,,82,127
14030,note_on,1,0,0,,10,,,81,127
14110,note_off,80,0,0,,10,,,81,127
14111,note_on,1,0,0,,7,,,79,127
14191,note_off,80,0,0,,7,,,79,127
14191,note_off,0,0,0,,11,,,58,127
14192,note_on,1,0,0,,5,,,77,127
14192,note_on,0,0,0,,10,,,81,127
14192,note_on,0,0,0,,0,,,60,127
14433,note_off,241,0,0,,0,,,60,127
14433,note_off,0,0,0,,10,,,81,127
14433,note_off,0,0,0,,5,,,77,127
14434,note_on,1,0,0,,10,,,81,127
14434,note_on,0,0,0,,4,,,76,127
14434,note_on,0,0,0,,0,,,48,127
14493,note_off,59,0,0,,10,,,81,127
14494,note_on,1,0,0,,7,,,79,127
14547,note_off,53,0,0,,4,,,76,127
14553,note_off,6,0,0,,7,,,79,127
14554,note_on,1,0,0,,10,,,81,127
14613,note_off,59,0,0,,10,,,81,127
14614,note_on,1,0,0,,7,,,79,127
14673,note_off,59,0,0,,7,,,79,127
14673,note_off,0,0,0,,0,,,48,127
14674,note_on,1,0,0,,5,,,77,127
14674,note_on,0,0,0,,5,,,53,127
14794,note_off,120,0,0,,5,,,77,127
14795,note_on,1,0,0,,0,,,60,127
14915,note_off,120,0,0,,0,,,60,127
14915,note_off,0,0,0,,5,,,53,127
14916,note_on,1,0,0,,4,,,64,127
14916,note_on,0,0,0,,7,,,79,127
15036,note_off,120,0,0,,4,,,64,127
15037,note_on,1,0,0,,0,,,60,127
15157,note_off,120,0,0,,0,,,60,127
15157,note_off,0,0,0,,7,,,79,127
15158,note_on,1,0,0,,5,,,65,127
15158,note_on,0,0,0,,10,,,81,127
15278,note_off,120,0,0,,5,,,65,127
15279,note_on,1,0,0,,0,,,60,127
15399,note_off,120,0,0,,0,,,60,127
15399,note_off,0,0,0,,10,,,81,127
15400,note_on,1,0,0,,10,,,69,127
15400,note_on,0,0,0,,5,,,77,127
15520,note_off,120,0,0,,10,,,69,127
15521,note_on,1,0,0,,0,,,60,127
15641,note_off,120,0,0,,0,,,60,127
15641,note_off,0,0,0,,5,,,77,127
15642,note_on,1,0,0,,7,,,67,127
15642,note_on,0,0,0,,0,,,36,127
15762,note_off,120,0,0,,7,,,67,127
15763,note_on,1,0,0,,0,,,60,127
15883,note_off,120,0,0,,0,,,60,127
15883,note_off,0,0,0,,0,,,36,127
15884,note_on,1,0,0,,4,,,64,127
15884,note_on,0,0,0,,7,,,79,127
16004,note_off,120,0,0,,4,,,64,127
16005,note_on,1,0,0,,0,,,60,127
16125,note_off,120,0,0,,0,,,60,127
16125,note_off,0,0,0,,7,,,79,127
16126,note_on,1,0,0,,5,,,65,127
16126,note_on,0,0,0,,10,,,81,127
16246,note_off,120,0,0,,5,,,65,127
16247,note_on,1,0,0,,0,,,60,127
16367,note_off,120,0,0,,0,,,60,127
16367,note_off,0,0,0,,10,,,81,127
16368,note_on,1,0,0,,10,,,69,127
16368,note_on,0,0,0,,5,,,77,127
16488,note_off,120,0,0,,10,,,69,127
16489,note_on,1,0,0,,0,,,60,127
16609,note_off,120,0,0,,0,,,60,127
16609,note_off,0,0,0,,5,,,77,127
16610,note_on,1,0,0,,7,,,67,127
16610,note_on,0,0,0,,0,,,36,127
16730,note_off,120,0,0,,7,,,67,127
16731,note_on,1,0,0,,0,,,60,127
16851,note_off,120,0,0,,0,,,60,127
16851,note_off,0,0,0,,0,,,36,127
16852,note_on,1,0,0,,4,,,64,127
16852,note_on,0,0,0,,0,,,84,127
16972,note_off,120,0,0,,4,,,64,127
16973,note_on,1,0,0,,0,,,60,127
17093,note_off,120,0,0,,0,,,60,127
17093,note_off,0,0,0,,0,,,84,127
17094,note_on,1,0,0,,7,,,67,127
17094,note_on,0,0,0,,0,,,36,127
17214,note_off,120,0,0,,7,,,67,127
17215,note_on,1,0,0,,0,,,60,127
17335,note_off,120,0,0,,0,,,60,127
17336,note_on,1,0,0,,11,,,70,127
17456,note_off,120,0,0,,11,,,70,127
17457,note_on,1,0,0,,0,,,60,127
17577,note_off,120,0,0,,0,,,60,127
17577,note_off,0,0,0,,0,,,36,127
17578,note_on,1,0,0,,10,,,69,127
17578,note_on,0,0,0,,5,,,41,127
17819,note_off,241,0,0,,5,,,41,127
17819,note_off,0,0,0,,10,,,69,127
17820,note_on,1,0,0,,11,,,70,127
17820,note_on,0,0,0,,11,,,46,127
17900,note_off,80,0,0,,11,,,70,127
17901,note_on,1,0,0,,10,,,69,127
17981,note_off,80,0,0,,10,,,69,127
17982,note_on,1,0,0,,7,,,67,127
18062,note_off,80,0,0,,7,,,67,127
18062,note_off,0,0,0,,11,,,46,127
18063,note_on,1,0,0,,5,,,65,127
18063,note_on,0,0,0,,10,,,69,127
18063,note_on,0,0,0,,0,,,48,127
18304,note_off,241,0,0,,0,,,48,127
18304,note_off,0,0,0,,10,,,69,127
18304,note_off,0,0,0,,5,,,65,127
18305,note_on,1,0,0,,10,,,69,127
18305,note_on,0,0,0,,4,,,64,127
18305,note_on,0,0,0,,0,,,36,127
18364,note_off,59,0,0,,10,,,69,127
18365,note_on,1,0,0,,7,,,67,127
18418,note_off,53,0,0,,4,,,64,127
18424,note_off,6,0,0,,7,,,67,127
18425,note_on,1,0,0,,10,,,69,127
18484,note_off,59,0,0,,10,,,69,127
18485,note_on,1,0,0,,7,,,67,127
18543,note_off,58,0,0,,0,,,36,127
18544,note_off,1,0,0,,7,,,67,127
18545,note_on,1,0,0,,5,,,65,127
18666,note_on,121,0,0,,5,,,41,127
18786,note_off,120,0,0,,5,,,41,127
18786,note_off,0,0,0,,5,,,65,127
18787,note_on,1,0,0,,0,,,72,127
18787,note_on,0,0,0,,5,,,53,127
18907,note_off,120,0,0,,5,,,53,127
18908,note_on,1,0,0,,5,,,65,127
19028,note_off,120,0,0,,5,,,65,127
19029,note_on,1,0,0,,0,,,36,127
19270,note_off,241,0,0,,0,,,72,127
19271,note_on,1,0,0,,11,,,70,127
19351,note_off,80,0,0,,11,,,70,127
19352,note_on,1,0,0,,10,,,69,127
19432,note_off,80,0,0,,10,,,69,127
19433,note_on,1,0,0,,7,,,67,127
19509,note_off,76,0,0,,0,,,36,127
19513,note_off,4,0,0,,7,,,67,127
19514,note_on,1,0,0,,10,,,69,127
19635,note_on,121,0,0,,5,,,41,127
19755,note_off,120,0,0,,5,,,41,127
19755,note_off,0,0,0,,10,,,69,127
19756,note_on,1,0,0,,0,,,72,127
19756,note_on,0,0,0,,5,,,53,127
19876,note_off,120,0,0,,5,,,53,127
19877,note_on,1,0,0,,5,,,65,127
19997,note_off,120,0,0,,5,,,65,127
19998,note_on,1,0,0,,0,,,36,127
20239,note_off,241,0,0,,0,,,72,127
20240,note_on,1,0,0,,11,,,70,127
20320,note_off,80,0,0,,11,,,70,127
20321,note_on,1,0,0,,10,,,69,127
20401,note_off,80,0,0,,10,,,69,127
20402,note_on,1,0,0,,7,,,67,127
20482,note_off,80,0,0,,7,,,67,127
20482,note_off,0,0,0,,0,,,36,127
20483,note_on,1,0,0,,10,,,69,127
20483,note_on,0,0,0,,5,,,41,127
20563,note_off,80,0,0,,10,,,69,127
20564,note_on,1,0,0,,11,,,70,127
20644,note_off,80,0,0,,11,,,70,127
20645,note_on,1,0,0,,0,,,72,127
20725,note_off,80,0,0,,0,,,72,127
20725,note_off,0,0,0,,5,,,41,127
20726,note_on,1,0,0,,2,,,74,127
20726,note_on,0,0,0,,11,,,46,127
20806,note_off,80,0,0,,2,,,74,127
20807,note_on,1,0,0,,11,,,70,127
20887,note_off,80,0,0,,11,,,70,127
20888,note_on,1,0,0,,7,,,67,127
20968,note_off,80,0,0,,7,,,67,127
20968,note_off,0,0,0,,11,,,46,127
20969,note_on,1,0,0,,10,,,69,127
20969,note_on,0,0,0,,5,,,65,127
20969,note_on,0,0,0,,0,,,48,127
21210,note_off,241,0,0,,0,,,48,127
21210,note_off,0,0,0,,5,,,65,127
21210,note_off,0,0,0,,10,,,69,127
21211,note_on,1,0,0,,10,,,69,127
21211,note_on,0,0,0,,4,,,64,127
21211,note_on,0,0,0,,0,,,36,127
21270,note_off,59,0,0,,10,,,69,127
21271,note_on,1,0,0,,7,,,67,127
21324,note_off,53,0,0,,4,,,64,127
21330,note_off,6,0,0,,7,,,67,127
21331,note_on,1,0,0,,10,,,69,127
21390,note_off,59,0,0,,10,,,69,127
21391,note_on,1,0,0,,7,,,67,127
21449,note_off,58,0,0,,0,,,36,127
21450,note_off,1,0,0,,7,,,67,127
21451,note_on,1,0,0,,5,,,65,127
21572,note_on,121,0,0,,5,,,41,127
21692,note_off,120,0,0,,5,,,41,127
21692,note_off,0,0,0,,5,,,65,127
21693,note_on,1,0,0,,0,,,72,127
21693,note_on,0,0,0,,5,,,53,127
21813,note_off,120,0,0,,5,,,53,127
21814,note_on,1,0,0,,5,,,65,127
21934,note_off,120,0,0,,5,,,65,127
21935,note_on,1,0,0,,0,,,36,127
22176,note_off,241,0,0,,0,,,72,127
22177,note_on,1,0,0,,11,,,70,127
22257,note_off,80,0,0,,11,,,70,127
22258,note_on,1,0,0,,10,,,69,127
22338,note_off,80,0,0,,10,,,69,127
22339,note_on,1,0,0,,7,,,67,127
22415,note_off,76,0,0,,0,,,36,127
22419,note_off,4,0,0,,7,,,67,127
22420,note_on,1,0,0,,10,,,69,127
22541,note_on,121,0,0,,5,,,41,127
22661,note_off,120,0,0,,5,,,41,127
22661,note_off,0,0,0,,10,,,69,127
22662,note_on,1,0,0,,0,,,72,127
22662,note_on,0,0,0,,5,,,53,127
22782,note_off,120,0,0,,5,,,53,127
22783,note_on,1,0,0,,5,,,65,127
22903,note_off,120,0,0,,5,,,65,127
22904,note_on,1,0,0,,0,,,36,127
23145,note_off,241,0,0,,0,,,72,127
23146,note_on,1,0,0,,11,,,70,127
23226,note_off,80,0,0,,11,,,70,127
23227,note_on,1,0,0,,10,,,69,127
23307,note_off,80,0,0,,10,,,69,127
23308,note_on,1,0,0,,7,,,67,127
23388,note_off,80,0,0,,7,,,67,127
23388,note_off,0,0,0,,0,,,36,127
23389,note_on,1,0,0,,10,,,69,127
23389,note_on,0,0,0,,5,,,41,127
23469,note_off,80,0,0,,10,,,69,127
23470,note_on,1,0,0,,11,,,70,127
23550,note_off,80,0,0,,11,,,70,127
23551,note_on,1,0,0,,0,,,72,127
23631,note_off,80,0,0,,0,,,72,127
23631,note_off,0,0,0,,5,,,41,127
23632,note_on,1,0,0,,2,,,74,127
23632,note_on,0,0,0,,11,,,46,127
23712,note_off,80,0,0,,2,,,74,127
23713,note_on,1,0,0,,11,,,70,127
23793,note_off,80,0,0,,11,,,70,127
23794,note_on,1,0,0,,7,,,67,127
23874,note_off,80,0,0,,7,,,67,127
23874,note_off,0,0,0,,11,,,46,127
23875,note_on,1,0,0,,5,,,65,127
23875,note_on,0,0,0,,10,,,69,127
23875,note_on,0,0,0,,0,,,48,127
24116,note_off,241,0,0,,0,,,48,127
24116,note_off,0,0,0,,10,,,69,127
24116,note_off,0,0,0,,5,,,65,127
24117,note_on,1,0,0,,10,,,69,127
24117,note_on,0,0,0,,4,,,64,127
24117,note_on,0,0,0,,0,,,36,127
24176,note_off,59,0,0,,10,,,69,127
24177,note_on,1,0,0,,7,,,67,127
24230,note_off,53,0,0,,4,,,64,127
24236,note_off,6,0,0,,7,,,67,127
24237,note_on,1,0,0,,10,,,69,127
24296,note_off,59,0,0,,10,,,69,127
24297,note_on,1,0,0,,7,,,67,127
24356,note_off,59,0,0,,7,,,67,127
24356,note_off,0,0,0,,0,,,36,127
24357,note_on,1,0,0,,5,,,65,127
24357,note_on,0,0,0,,5,,,41,127
24598,note_off,241,0,0,,5,,,65,127
24599,note_on,1,0,0,,0,,,84,127
24720,note_on,121,0,0,,0,,,72,127
24750,note_off,30,0,0,,0,,,84,127
24840,note_off,90,0,0,,0,,,72,127
24841,note_on,1,0,0,,10,,,81,127
24962,note_off,121,0,0,,5,,,41,127
24962,note_on,0,0,0,,10,,,69,127
24992,note_off,30,0,0,,10,,,81,127
25082,note_off,90,0,0,,10,,,69,127
25083,note_on,1,0,0,,5,,,77,127
25083,note_on,0,0,0,,10,,,45,127
25204,note_on,121,0,0,,5,,,65,127
25234,note_off,30,0,0,,5,,,77,127
25324,note_off,90,0,0,,5,,,65,127
25324,note_off,0,0,0,,10,,,45,127
25325,note_on,1,0,0,,2,,,74,127
25325,note_on,0,0,0,,11,,,46,127
25446,note_on,121,0,0,,2,,,62,127
25476,note_off,30,0,0,,2,,,74,127
25566,note_off,90,0,0,,2,,,62,127
25566,note_off,0,0,0,,11,,,46,127
25567,note_on,1,0,0,,11,,,70,127
25567,note_on,0,0,0,,2,,,50,127
25647,note_off,80,0,0,,11,,,70,127
25648,note_on,1,0,0,,10,,,69,127
25728,note_off,80,0,0,,10,,,69,127
25729,note_on,1,0,0,,7,,,67,127
25809,note_off,80,0,0,,7,,,67,127
25809,note_off,0,0,0,,2,,,50,127
25810,note_on,1,0,0,,5,,,65,127
25810,note_on,0,0,0,,10,,,69,127
25810,note_on,0,0,0,,0,,,48,127
26051,note_off,241,0,0,,0,,,48,127
26051,note_off,0,0,0,,10,,,69,127
26051,note_off,0,0,0,,5,,,65,127
26052,note_on,1,0,0,,10,,,69,127
26052,note_on,0,0,0,,4,,,64,127
26052,note_on,0,0,0,,0,,,36,127
26111,note_off,59,0,0,,10,,,69,127
26112,note_on,1,0,0,,7,,,67,127
26165,note_off,53,0,0,,4,,,64,127
26171,note_off,6,0,0,,7,,,67,127
26172,note_on,1,0,0,,10,,,69,127
26231,note_off,59,0,0,,10,,,69,127
26232,note_on,1,0,0,,7,,,67,127
26291,note_off,59,0,0,,7,,,67,127
26291,note_off,0,0,0,,0,,,36,127
26292,note_on,1,0,0,,5,,,65,127
26292,note_on,0,0,0,,5,,,41,127
26533,note_off,241,0,0,,5,,,65,127
26534,note_on,1,0,0,,0,,,84,127
26648,note_off,114,0,0,,0,,,84,127
26656,note_on,8,0,0,,0,,,72,127
26770,note_off,114,0,0,,0,,,72,127
26773,note_off,3,0,0,,5,,,41,127
26778,note_on,5,0,0,,10,,,81,127
26892,note_off,114,0,0,,10,,,81,127
26900,note_on,8,0,0,,10,,,69,127
27014,note_off,114,0,0,,10,,,69,127
27022,note_on,8,0,0,,5,,,77,127
27022,note_on,0,0,0,,10,,,45,127
27136,note_off,114,0,0,,5,,,77,127
27144,note_on,8,0,0,,5,,,65,127
27258,note_off,114,0,0,,5,,,65,127
27264,note_off,6,0,0,,10,,,45,127
27265,note_on,1,0,0,,2,,,74,127
27265,note_on,0,0,0,,11,,,46,127
27379,note_off,114,0,0,,2,,,74,127
27387,note_on,8,0,0,,2,,,62,127
27507,note_off,120,0,0,,2,,,62,127
27507,note_off,0,0,0,,11,,,46,127
27508,note_on,1,0,0,,11,,,70,127
27508,note_on,0,0,0,,2,,,50,127
27588,note_off,80,0,0,,11,,,70,127
27589,note_on,1,0,0,,10,,,69,127
27669,note_off,80,0,0,,10,,,69,127
27670,note_on,1,0,0,,7,,,67,127
27750,note_off,80,0,0,,7,,,67,127
27750,note_off,0,0,0,,2,,,50,127
27751,note_on,1,0,0,,10,,,69,127
27751,note_on,0,0,0,,5,,,65,127
27751,note_on,0,0,0,,0,,,48,127
27992,note_off,241,0,0,,0,,,48,127
27992,note_off,0,0,0,,5,,,65,127
27992,note_off,0,0,0,,10,,,69,127
27993,note_on,1,0,0,,4,,,64,127
27993,note_on,0,0,0,,10,,,69,127
27993,note_on,0,0,0,,0,,,36,127
28052,note_off,59,0,0,,10,,,69,127
28053,note_on,1,0,0,,7,,,67,127
28106,note_off,53,0,0,,4,,,64,127
28112,note_off,6,0,0,,7,,,67,127
28113,note_on,1,0,0,,10,,,69,127
28172,note_off,59,0,0,,10,,,69,127
28173,note_on,1,0,0,,7,,,67,127
28232,note_off,59,0,0,,7,,,67,127
28232,note_off,0,0,0,,0,,,36,127
28233,note_on,1,0,0,,7,,,67,127
28233,note_on,0,0,0,,5,,,41,127
28292,note_off,59,0,0,,7,,,67,127
28293,note_on,1,0,0,,5,,,65,127
28352,note_off,59,0,0,,5,,,65,127
28353,note_on,1,0,0,,7,,,67,127
28412,note_off,59,0,0,,7,,,67,127
28413,note_on,1,0,0,,5,,,65,127
29139,note_off,726,0,0,,5,,,65,127
29200,note_off,61,0,0,,5,,,41,127
29201,note_on,1,0,0,,5,,,41,127
29444,note_on,243,0,0,,0,,,84,127
29564,note_off,120,0,0,,0,,,84,127
29565,note_on,1,0,0,,0,,,72,127
29681,note_off,116,0,0,,5,,,41,127
29685,note_off,4,0,0,,0,,,72,127
29686,note_on,1,0,0,,10,,,81,127
29806,note_off,120,0,0,,10,,,81,127
29807,note_on,1,0,0,,10,,,69,127
29927,note_off,120,0,0,,10,,,69,127
29928,note_on,1,0,0,,5,,,77,127
30048,note_off,120,0,0,,5,,,77,127
30049,note_on,1,0,0,,5,,,65,127
30169,note_off,120,0,0,,5,,,65,127
30170,note_on,1,0,0,,12,,,71,127
30413,note_on,243,0,0,,5,,,65,127
30533,note_off,120,0,0,,5,,,65,127
30534,note_on,1,0,0,,5,,,53,127
30654,note_off,120,0,0,,5,,,53,127
30655,note_on,1,0,0,,2,,,62,127
30775,note_off,120,0,0,,2,,,62,127
30776,note_off,1,0,0,,12,,,71,127
30776,note_on,0,0,0,,2,,,50,127
30896,note_off,120,0,0,,2,,,50,127
30897,note_on,1,0,0,,12,,,71,127
30897,note_on,0,0,0,,5,,,77,127
30897,note_on,0,0,0,,7,,,55,127
31017,note_off,120,0,0,,7,,,55,127
31018,note_on,1,0,0,,7,,,43,127
31138,note_off,120,0,0,,7,,,43,127
31138,note_off,0,0,0,,5,,,77,127
31138,note_off,0,0,0,,12,,,71,127
31139,note_on,1,0,0,,4,,,76,127
31139,note_on,0,0,0,,0,,,72,127
31139,note_on,0,0,0,,0,,,48,127
31380,note_off,241,0,0,,0,,,72,127
31380,note_off,0,0,0,,4,,,76,127
31381,note_on,1,0,0,,11,,,82,127
31501,note_off,120,0,0,,11,,,82,127
31502,note_on,1,0,0,,11,,,70,127
31618,note_off,116,0,0,,0,,,48,127
31622,note_off,4,0,0,,11,,,70,127
31623,note_on,1,0,0,,7,,,79,127
31743,note_off,120,0,0,,7,,,79,127
31744,note_on,1,0,0,,7,,,67,127
31864,note_off,120,0,0,,7,,,67,127
31865,note_on,1,0,0,,4,,,76,127
31985,note_off,120,0,0,,4,,,76,127
31986,note_on,1,0,0,,4,,,64,127
32106,note_off,120,0,0,,4,,,64,127
32107,note_on,1,0,0,,1,,,73,127
32350,note_on,243,0,0,,7,,,67,127
32470,note_off,120,0,0,,7,,,67,127
32471,note_on,1,0,0,,7,,,55,127
32591,note_off,120,0,0,,7,,,55,127
32592,note_on,1,0,0,,4,,,64,127
32712,note_off,120,0,0,,4,,,64,127
32713,note_off,1,0,0,,1,,,73,127
32713,note_on,0,0,0,,4,,,52,127
32833,note_off,120,0,0,,4,,,52,127
32834,note_on,1,0,0,,7,,,79,127
32834,note_on,0,0,0,,1,,,73,127
32834,note_on,0,0,0,,10,,,57,127
32954,note_off,120,0,0,,10,,,57,127
32955,note_on,1,0,0,,10,,,45,127
33075,note_off,120,0,0,,10,,,45,127
33075,note_off,0,0,0,,1,,,73,127
33075,note_off,0,0,0,,7,,,79,127
33076,note_on,1,0,0,,6,,,78,127
33076,note_on,0,0,0,,2,,,74,127
33076,note_on,0,0,0,,2,,,50,127
33317,note_off,241,0,0,,2,,,74,127
33317,note_off,0,0,0,,6,,,78,127
33318,note_on,1,0,0,,2,,,86,127
33438,note_off,120,0,0,,2,,,86,127
33439,note_on,1,0,0,,2,,,74,127
33559,note_off,120,0,0,,2,,,74,127
33560,note_on,1,0,0,,11,,,82,127
33680,note_off,120,0,0,,11,,,82,127
33681,note_on,1,0,0,,11,,,70,127
33744,note_off,63,0,0,,2,,,50,127
33801,note_off,57,0,0,,11,,,70,127
33802,note_on,1,0,0,,7,,,79,127
33802,note_on,0,0,0,,3,,,51,127
33922,note_off,120,0,0,,7,,,79,127
33923,note_on,1,0,0,,7,,,67,127
34043,note_off,120,0,0,,7,,,67,127
34043,note_off,0,0,0,,3,,,51,127
34044,note_on,1,0,0,,10,,,69,127
34044,note_on,0,0,0,,2,,,50,127
34285,note_off,241,0,0,,10,,,69,127
34286,note_on,1,0,0,,2,,,86,127
34406,note_off,120,0,0,,2,,,86,127
34407,note_on,1,0,0,,2,,,74,127
34527,note_off,120,0,0,,2,,,74,127
34528,note_on,1,0,0,,11,,,82,127
34648,note_off,120,0,0,,11,,,82,127
34649,note_on,1,0,0,,11,,,70,127
34712,note_off,63,0,0,,2,,,50,127
34769,note_off,57,0,0,,11,,,70,127
34770,note_on,1,0,0,,7,,,79,127
34770,note_on,0,0,0,,3,,,51,127
34890,note_off,120,0,0,,7,,,79,127
34891,note_on,1,0,0,,7,,,67,127
35011,note_off,120,0,0,,7,,,67,127
35011,note_off,0,0,0,,3,,,51,127
35012,note_on,1,0,0,,10,,,69,127
35012,note_on,0,0,0,,2,,,50,127
35253,note_off,241,0,0,,2,,,50,127
35253,note_off,0,0,0,,10,,,69,127
35254,note_on,1,0,0,,2,,,74,127
35254,note_on,0,0,0,,2,,,62,127
35374,note_off,120,0,0,,2,,,62,127
35375,note_on,1,0,0,,2,,,50,127
35495,note_off,120,0,0,,2,,,50,127
35496,note_on,1,0,0,,11,,,58,127
35616,note_off,120,0,0,,11,,,58,127
35617,note_on,1,0,0,,11,,,46,127
35737,note_off,120,0,0,,11,,,46,127
35737,note_off,0,0,0,,2,,,74,127
35738,note_on,1,0,0,,11,,,82,127
35738,note_on,0,0,0,,7,,,55,127
35858,note_off,120,0,0,,7,,,55,127
35859,note_on,1,0,0,,7,,,43,127
35979,note_off,120,0,0,,7,,,43,127
35979,note_off,0,0,0,,11,,,82,127
35980,note_on,1,0,0,,10,,,81,127
35980,note_on,0,0,0,,2,,,38,127
36221,note_off,241,0,0,,2,,,38,127
36221,note_off,0,0,0,,10,,,81,127
36222,note_on,1,0,0,,2,,,74,127
36222,note_on,0,0,0,,2,,,62,127
36342,note_off,120,0,0,,2,,,62,127
36343,note_on,1,0,0,,2,,,50,127
36463,note_off,120,0,0,,2,,,50,127
36464,note_on,1,0,0,,11,,,58,127
36584,note_off,120,0,0,,11,,,58,127
36585,note_on,1,0,0,,11,,,46,127
36705,note_off,120,0,0,,11,,,46,127
36705,note_off,0,0,0,,2,,,74,127
36706,note_on,1,0,0,,11,,,82,127
36706,note_on,0,0,0,,7,,,55,127
36826,note_off,120,0,0,,7,,,55,127
36827,note_on,1,0,0,,7,,,43,127
36947,note_off,120,0,0,,7,,,43,127
36947,note_off,0,0,0,,11,,,82,127
36948,note_on,1,0,0,,10,,,81,127
36948,note_on,0,0,0,,2,,,38,127
37189,note_off,241,0,0,,10,,,81,127
37190,note_on,1,0,0,,2,,,86,127
37310,note_off,120,0,0,,2,,,86,127
37311,note_on,1,0,0,,2,,,74,127
37427,note_off,116,0,0,,2,,,38,127
37431,note_off,4,0,0,,2,,,74,127
37432,note_on,1,0,0,,11,,,82,127
37552,note_off,120,0,0,,11,,,82,127
37553,note_on,1,0,0,,11,,,70,127
37673,note_off,120,0,0,,11,,,70,127
37674,note_on,1,0,0,,7,,,79,127
37674,note_on,0,0,0,,7,,,67,127
37794,note_off,120,0,0,,7,,,67,127
37795,note_on,1,0,0,,7,,,55,127
37915,note_off,120,0,0,,7,,,55,127
37916,note_on,1,0,0,,3,,,63,127
38036,note_off,120,0,0,,3,,,63,127
38037,note_on,1,0,0,,3,,,51,127
38157,note_off,120,0,0,,3,,,51,127
38157,note_off,0,0,0,,7,,,79,127
38158,note_on,1,0,0,,0,,,84,127
38158,note_on,0,0,0,,0,,,60,127
38158,note_on,0,0,0,,0,,,48,127
38278,note_off,120,0,0,,0,,,84,127
38279,note_on,1,0,0,,0,,,72,127
38399,note_off,120,0,0,,0,,,72,127
38400,note_on,1,0,0,,10,,,81,127
38520,note_off,120,0,0,,10,,,81,127
38521,note_on,1,0,0,,10,,,69,127
38641,note_off,120,0,0,,10,,,69,127
38641,note_off,0,0,0,,0,,,48,127
38641,note_off,0,0,0,,0,,,60,127
38642,note_on,1,0,0,,5,,,77,127
38642,note_on,0,0,0,,5,,,65,127
38762,note_off,120,0,0,,5,,,65,127
38763,note_on,1,0,0,,5,,,53,127
38883,note_off,120,0,0,,5,,,53,127
38884,note_on,1,0,0,,2,,,62,127
39004,note_off,120,0,0,,2,,,62,127
39005,note_on,1,0,0,,2,,,50,127
39125,note_off,120,0,0,,2,,,50,127
39125,note_off,0,0,0,,5,,,77,127
39126,note_on,1,0,0,,11,,,82,127
39126,note_on,0,0,0,,11,,,58,127
39126,note_on,0,0,0,,11,,,46,127
39246,note_off,120,0,0,,11,,,82,127
39247,note_on,1,0,0,,5,,,77,127
39367,note_off,120,0,0,,5,,,77,127
39367,note_off,0,0,0,,11,,,46,127
39367,note_off,0,0,0,,11,,,58,127
39368,note_on,1,0,0,,7,,,79,127
39368,note_on,0,0,0,,3,,,63,127
39488,note_off,120,0,0,,7,,,79,127
39489,note_on,1,0,0,,3,,,75,127
39609,note_off,120,0,0,,3,,,75,127
39609,note_off,0,0,0,,3,,,63,127
39610,note_on,1,0,0,,5,,,77,127
39610,note_on,0,0,0,,2,,,62,127
39730,note_off,120,0,0,,5,,,77,127
39731,note_on,1,0,0,,2,,,74,127
39851,note_off,120,0,0,,2,,,74,127
39851,note_off,0,0,0,,2,,,62,127
39852,note_on,1,0,0,,3,,,75,127
39852,note_on,0,0,0,,0,,,60,127
39972,note_off,120,0,0,,3,,,75,127
39973,note_on,1,0,0,,0,,,72,127
40093,note_off,120,0,0,,0,,,72,127
40093,note_off,0,0,0,,0,,,60,127
40094,note_on,1,0,0,,2,,,74,127
40094,note_on,0,0,0,,11,,,58,127
40214,note_off,120,0,0,,2,,,74,127
40215,note_on,1,0,0,,11,,,70,127
40335,note_off,120,0,0,,11,,,70,127
40335,note_off,0,0,0,,11,,,58,127
40336,note_on,1,0,0,,0,,,72,127
40336,note_on,0,0,0,,10,,,57,127
40456,note_off,120,0,0,,0,,,72,127
40457,note_on,1,0,0,,10,,,69,127
40577,note_off,120,0,0,,10,,,69,127
40577,note_off,0,0,0,,10,,,57,127
40578,note_on,1,0,0,,11,,,70,127
40578,note_on,0,0,0,,7,,,55,127
40698,note_off,120,0,0,,11,,,70,127
40699,note_on,1,0,0,,7,,,67,127
40819,note_off,120,0,0,,7,,,67,127
40819,note_off,0,0,0,,7,,,55,127
40820,note_on,1,0,0,,10,,,69,127
40820,note_on,0,0,0,,5,,,53,127
41050,note_off,230,0,0,,10,,,69,127
41060,note_off,10,0,0,,5,,,53,127
41103,note_on,43,0,0,,3,,,87,127
41142,note_off,39,0,0,,3,,,87,127
41143,note_on,1,0,0,,2,,,86,127
41182,note_off,39,0,0,,2,,,86,127
41183,note_on,1,0,0,,0,,,84,127
41222,note_off,39,0,0,,0,,,84,127
41223,note_on,1,0,0,,2,,,86,127
41262,note_off,39,0,0,,2,,,86,127
41263,note_on,1,0,0,,3,,,87,127
41302,note_off,39,0,0,,3,,,87,127
41303,note_on,1,0,0,,5,,,89,127
41342,note_off,39,0,0,,5,,,89,127
41343,note_on,1,0,0,,3,,,87,127
41463,note_off,120,0,0,,3,,,87,127
41464,note_on,1,0,0,,2,,,86,127
41584,note_off,120,0,0,,2,,,86,127
41585,note_on,1,0,0,,0,,,84,127
41705,note_off,120,0,0,,0,,,84,127
41706,note_on,1,0,0,,11,,,82,127
41826,note_off,120,0,0,,11,,,82,127
41827,note_on,1,0,0,,0,,,84,127
41948,note_on,121,0,0,,0,,,72,127
42068,note_off,120,0,0,,0,,,72,127
42068,note_off,0,0,0,,0,,,84,127
42069,note_on,1,0,0,,0,,,84,127
42069,note_on,0,0,0,,10,,,69,127
42189,note_off,120,0,0,,10,,,69,127
42190,note_on,1,0,0,,5,,,65,127
42310,note_off,120,0,0,,5,,,65,127
42310,note_off,0,0,0,,0,,,84,127
42311,note_on,1,0,0,,2,,,86,127
42311,note_on,0,0,0,,11,,,70,127
42431,note_off,120,0,0,,11,,,70,127
42432,note_on,1,0,0,,5,,,65,127
42552,note_off,120,0,0,,5,,,65,127
42552,note_off,0,0,0,,2,,,86,127
42553,note_on,1,0,0,,11,,,82,127
42553,note_on,0,0,0,,2,,,74,127
42673,note_off,120,0,0,,2,,,74,127
42674,note_on,1,0,0,,5,,,65,127
42794,note_off,120,0,0,,5,,,65,127
42794,note_off,0,0,0,,11,,,82,127
42795,note_on,1,0,0,,5,,,41,127
42795,note_on,0,0,0,,5,,,65,127
42915,note_off,120,0,0,,5,,,65,127
42916,note_on,1,0,0,,0,,,72,127
43036,note_off,120,0,0,,0,,,72,127
43036,note_off,0,0,0,,5,,,41,127
43037,note_on,1,0,0,,0,,,84,127
43037,note_on,0,0,0,,10,,,69,127
43157,note_off,120,0,0,,10,,,69,127
43158,note_on,1,0,0,,5,,,65,127
43278,note_off,120,0,0,,5,,,65,127
43278,note_off,0,0,0,,0,,,84,127
43279,note_on,1,0,0,,2,,,86,127
43279,note_on,0,0,0,,11,,,70,127
43399,note_off,120,0,0,,11,,,70,127
43400,note_on,1,0,0,,5,,,65,127
43520,note_off,120,0,0,,5,,,65,127
43520,note_off,0,0,0,,2,,,86,127
43521,note_on,1,0,0,,11,,,82,127
43521,note_on,0,0,0,,2,,,74,127
43641,note_off,120,0,0,,2,,,74,127
43642,note_on,1,0,0,,5,,,65,127
43762,note_off,120,0,0,,5,,,65,127
43762,note_off,0,0,0,,11,,,82,127
43763,note_on,1,0,0,,5,,,41,127
43763,note_on,0,0,0,,5,,,65,127
43883,note_off,120,0,0,,5,,,65,127
43884,note_on,1,0,0,,0,,,72,127
44004,note_off,120,0,0,,0,,,72,127
44004,note_off,0,0,0,,5,,,41,127
44005,note_on,1,0,0,,5,,,89,127
44005,note_on,0,0,0,,10,,,69,127
44125,note_off,120,0,0,,10,,,69,127
44126,note_on,1,0,0,,5,,,65,127
44246,note_off,120,0,0,,5,,,65,127
44246,note_off,0,0,0,,5,,,89,127
44247,note_on,1,0,0,,5,,,41,127
44247,note_on,0,0,0,,5,,,65,127
44367,note_off,120,0,0,,5,,,65,127
44368,note_on,1,0,0,,0,,,72,127
44488,note_off,120,0,0,,0,,,72,127
44488,note_off,0,0,0,,5,,,41,127
44489,note_on,1,0,0,,3,,,87,127
44489,note_on,0,0,0,,10,,,69,127
44609,note_off,120,0,0,,10,,,69,127
44610,note_on,1,0,0,,5,,,65,127
44730,note_off,120,0,0,,5,,,65,127
44730,note_off,0,0,0,,3,,,87,127
44731,note_on,1,0,0,,2,,,86,127
44731,note_on,0,0,0,,11,,,70,127
44972,note_off,241,0,0,,11,,,70,127
44972,note_off,0,0,0,,2,,,86,127
44973,note_on,1,0,0,,3,,,87,127
44973,note_on,0,0,0,,3,,,63,127
45053,note_off,80,0,0,,3,,,87,127
45054,note_on,1,0,0,,2,,,86,127
45134,note_off,80,0,0,,2,,,86,127
45135,note_on,1,0,0,,0,,,84,127
45215,note_off,80,0,0,,0,,,84,127
45215,note_off,0,0,0,,3,,,63,127
45216,note_on,1,0,0,,11,,,82,127
45216,note_on,0,0,0,,2,,,86,127
45216,note_on,0,0,0,,5,,,65,127
45457,note_off,241,0,0,,5,,,65,127
45457,note_off,0,0,0,,2,,,86,127
45457,note_off,0,0,0,,11,,,82,127
45458,note_on,1,0,0,,2,,,86,127
45458,note_on,0,0,0,,10,,,81,127
45458,note_on,0,0,0,,5,,,53,127
45517,note_off,59,0,0,,2,,,86,127
45518,note_on,1,0,0,,0,,,84,127
45571,note_off,53,0,0,,10,,,81,127
45577,note_off,6,0,0,,0,,,84,127
45578,note_on,1,0,0,,2,,,86,127
45637,note_off,59,0,0,,2,,,86,127
45638,note_on,1,0,0,,0,,,84,127
45697,note_off,59,0,0,,0,,,84,127
45697,note_off,0,0,0,,5,,,53,127
45698,note_on,1,0,0,,11,,,82,127
45698,note_on,0,0,0,,11,,,58,127
45818,note_off,120,0,0,,11,,,82,127
45819,note_on,1,0,0,,5,,,65,127
45939,note_off,120,0,0,,5,,,65,127
45939,note_off,0,0,0,,11,,,58,127
45940,note_on,1,0,0,,10,,,69,127
45940,note_on,0,0,0,,0,,,84,127
46060,note_off,120,0,0,,10,,,69,127
46061,note_on,1,0,0,,5,,,65,127
46181,note_off,120,0,0,,5,,,65,127
46181,note_off,0,0,0,,0,,,84,127
46182,note_on,1,0,0,,11,,,70,127
46182,note_on,0,0,0,,2,,,86,127
46302,note_off,120,0,0,,11,,,70,127
46303,note_on,1,0,0,,5,,,65,127
46423,note_off,120,0,0,,5,,,65,127
46423,note_off,0,0,0,,2,,,86,127
46424,note_on,1,0,0,,2,,,74,127
46424,note_on,0,0,0,,11,,,82,127
46544,note_off,120,0,0,,2,,,74,127
46545,note_on,1,0,0,,5,,,65,127
46665,note_off,120,0,0,,5,,,65,127
46665,note_off,0,0,0,,11,,,82,127
46666,note_on,1,0,0,,0,,,72,127
46666,note_on,0,0,0,,5,,,41,127
46786,note_off,120,0,0,,0,,,72,127
46787,note_on,1,0,0,,5,,,65,127
46907,note_off,120,0,0,,5,,,65,127
46907,note_off,0,0,0,,5,,,41,127
46908,note_on,1,0,0,,10,,,69,127
46908,note_on,0,0,0,,0,,,84,127
47028,note_off,120,0,0,,10,,,69,127
47029,note_on,1,0,0,,5,,,65,127
47149,note_off,120,0,0,,5,,,65,127
47149,note_off,0,0,0,,0,,,84,127
47150,note_on,1,0,0,,11,,,70,127
47150,note_on,0,0,0,,2,,,86,127
47270,note_off,120,0,0,,11,,,70,127
47271,note_on,1,0,0,,5,,,65,127
47391,note_off,120,0,0,,5,,,65,127
47391,note_off,0,0,0,,2,,,86,127
47392,note_on,1,0,0,,2,,,74,127
47392,note_on,0,0,0,,11,,,82,127
47512,note_off,120,0,0,,2,,,74,127
47513,note_on,1,0,0,,5,,,65,127
47633,note_off,120,0,0,,5,,,65,127
47633,note_off,0,0,0,,11,,,82,127
47634,note_on,1,0,0,,0,,,72,127
47634,note_on,0,0,0,,5,,,41,127
47754,note_off,120,0,0,,0,,,72,127
47755,note_on,1,0,0,,5,,,65,127
47875,note_off,120,0,0,,5,,,65,127
47875,note_off,0,0,0,,5,,,41,127
47876,note_on,1,0,0,,10,,,69,127
47876,note_on,0,0,0,,5,,,89,127
47996,note_off,120,0,0,,10,,,69,127
47997,note_on,1,0,0,,5,,,65,127
48117,note_off,120,0,0,,5,,,65,127
48117,note_off,0,0,0,,5,,,89,127
48118,note_on,1,0,0,,0,,,72,127
48118,note_on,0,0,0,,5,,,41,127
48238,note_off,120,0,0,,0,,,72,127
48239,note_on,1,0,0,,5,,,65,127
48359,note_off,120,0,0,,5,,,65,127
48360,note_on,1,0,0,,3,,,75,127
48480,note_off,120,0,0,,3,,,75,127
48481,note_on,1,0,0,,5,,,65,127
48601,note_off,120,0,0,,5,,,65,127
48601,note_off,0,0,0,,5,,,41,127
48602,note_on,1,0,0,,2,,,74,127
48602,note_on,0,0,0,,11,,,46,127
48843,note_off,241,0,0,,11,,,46,127
48843,note_off,0,0,0,,2,,,74,127
48844,note_on,1,0,0,,0,,,72,127
48844,note_on,0,0,0,,3,,,75,127
48844,note_on,0,0,0,,3,,,51,127
48924,note_off,80,0,0,,3,,,75,127
48924,note_off,0,0,0,,0,,,72,127
48925,note_on,1,0,0,,2,,,74,127
48925,note_on,0,0,0,,11,,,70,127
49005,note_off,80,0,0,,11,,,70,127
49005,note_off,0,0,0,,2,,,74,127
49006,note_on,1,0,0,,0,,,72,127
49006,note_on,0,0,0,,10,,,69,127
49086,note_off,80,0,0,,10,,,69,127
49086,note_off,0,0,0,,0,,,72,127
49086,note_off,0,0,0,,3,,,51,127
49087,note_on,1,0,0,,2,,,74,127
49087,note_on,0,0,0,,11,,,70,127
49087,note_on,0,0,0,,5,,,53,127
49328,note_off,241,0,0,,5,,,53,127
49328,note_off,0,0,0,,11,,,70,127
49328,note_off,0,0,0,,2,,,74,127
49329,note_on,1,0,0,,2,,,74,127
49329,note_on,0,0,0,,10,,,69,127
49329,note_on,0,0,0,,5,,,41,127
49388,note_off,59,0,0,,2,,,74,127
49389,note_on,1,0,0,,0,,,72,127
49442,note_off,53,0,0,,10,,,69,127
49448,note_off,6,0,0,,0,,,72,127
49449,note_on,1,0,0,,2,,,74,127
49508,note_off,59,0,0,,2,,,74,127
49509,note_on,1,0,0,,0,,,72,127
49567,note_off,58,0,0,,5,,,41,127
49568,note_off,1,0,0,,0,,,72,127
49569,note_on,1,0,0,,11,,,70,127
49690,note_on,121,0,0,,11,,,46,127
49810,note_off,120,0,0,,11,,,46,127
49810,note_off,0,0,0,,11,,,70,127
49811,note_on,1,0,0,,5,,,77,127
49811,note_on,0,0,0,,11,,,58,127
49931,note_off,120,0,0,,11,,,58,127
49932,note_on,1,0,0,,11,,,70,127
50052,note_off,120,0,0,,11,,,70,127
50053,note_on,1,0,0,,5,,,41,127
50294,note_off,241,0,0,,5,,,77,127
50295,note_on,1,0,0,,3,,,75,127
50375,note_off,80,0,0,,3,,,75,127
50376,note_on,1,0,0,,2,,,74,127
50456,note_off,80,0,0,,2,,,74,127
50457,note_on,1,0,0,,0,,,72,127
50533,note_off,76,0,0,,5,,,41,127
50537,note_off,4,0,0,,0,,,72,127
50538,note_on,1,0,0,,2,,,74,127
50659,note_on,121,0,0,,11,,,46,127
50779,note_off,120,0,0,,11,,,46,127
50779,note_off,0,0,0,,2,,,74,127
50780,note_on,1,0,0,,5,,,77,127
50780,note_on,0,0,0,,11,,,58,127
50900,note_off,120,0,0,,11,,,58,127
50901,note_on,1,0,0,,11,,,70,127
51021,note_off,120,0,0,,11,,,70,127
51022,note_on,1,0,0,,5,,,41,127
51263,note_off,241,0,0,,5,,,77,127
51264,note_on,1,0,0,,3,,,75,127
51344,note_off,80,0,0,,3,,,75,127
51345,note_on,1,0,0,,2,,,74,127
51425,note_off,80,0,0,,2,,,74,127
51426,note_on,1,0,0,,0,,,72,127
51506,note_off,80,0,0,,0,,,72,127
51506,note_off,0,0,0,,5,,,41,127
51507,note_on,1,0,0,,2,,,74,127
51507,note_on,0,0,0,,11,,,46,127
51587,note_off,80,0,0,,2,,,74,127
51588,note_on,1,0,0,,3,,,75,127
51668,note_off,80,0,0,,3,,,75,127
51669,note_on,1,0,0,,5,,,77,127
51749,note_off,80,0,0,,5,,,77,127
51749,note_off,0,0,0,,11,,,46,127
51750,note_on,1,0,0,,7,,,79,127
51750,note_on,0,0,0,,3,,,51,127
51830,note_off,80,0,0,,7,,,79,127
51831,note_on,1,0,0,,3,,,75,127
51911,note_off,80,0,0,,3,,,75,127
51912,note_on,1,0,0,,0,,,72,127
51992,note_off,80,0,0,,0,,,72,127
51992,note_off,0,0,0,,3,,,51,127
51993,note_on,1,0,0,,11,,,70,127
51993,note_on,0,0,0,,2,,,74,127
51993,note_on,0,0,0,,5,,,53,127
52234,note_off,241,0,0,,5,,,53,127
52234,note_off,0,0,0,,2,,,74,127
52234,note_off,0,0,0,,11,,,70,127
52235,note_on,1,0,0,,2,,,74,127
52235,note_on,0,0,0,,10,,,69,127
52235,note_on,0,0,0,,5,,,41,127
52294,note_off,59,0,0,,2,,,74,127
52295,note_on,1,0,0,,0,,,72,127
52348,note_off,53,0,0,,10,,,69,127
52354,note_off,6,0,0,,0,,,72,127
52355,note_on,1,0,0,,2,,,74,127
52414,note_off,59,0,0,,2,,,74,127
52415,note_on,1,0,0,,0,,,72,127
52473,note_off,58,0,0,,5,,,41,127
52474,note_off,1,0,0,,0,,,72,127
52475,note_on,1,0,0,,11,,,70,127
52596,note_on,121,0,0,,11,,,46,127
52716,note_off,120,0,0,,11,,,46,127
52716,note_off,0,0,0,,11,,,70,127
52717,note_on,1,0,0,,5,,,77,127
52717,note_on,0,0,0,,11,,,58,127
52837,note_off,120,0,0,,11,,,58,127
52838,note_on,1,0,0,,11,,,70,127
52958,note_off,120,0,0,,11,,,70,127
52959,note_on,1,0,0,,5,,,41,127
53200,note_off,241,0,0,,5,,,77,127
53201,note_on,1,0,0,,3,,,75,127
53281,note_off,80,0,0,,3,,,75,127
53282,note_on,1,0,0,,2,,,74,127
53362,note_off,80,0,0,,2,,,74,127
53363,note_on,1,0,0,,0,,,72,127
53439,note_off,76,0,0,,5,,,41,127
53443,note_off,4,0,0,,0,,,72,127
53444,note_on,1,0,0,,2,,,74,127
53565,note_on,121,0,0,,11,,,46,127
53685,note_off,120,0,0,,11,,,46,127
53685,note_off,0,0,0,,2,,,74,127
53686,note_on,1,0,0,,5,,,77,127
53686,note_on,0,0,0,,11,,,58,127
53806,note_off,120,0,0,,11,,,58,127
53807,note_on,1,0,0,,11,,,70,127
53927,note_off,120,0,0,,11,,,70,127
53928,note_on,1,0,0,,5,,,41,127
54169,note_off,241,0,0,,5,,,77,127
54170,note_on,1,0,0,,3,,,75,127
54250,note_off,80,0,0,,3,,,75,127
54251,note_on,1,0,0,,2,,,74,127
54331,note_off,80,0,0,,2,,,74,127
54332,note_on,1,0,0,,0,,,72,127
54412,note_off,80,0,0,,0,,,72,127
54412,note_off,0,0,0,,5,,,41,127
54413,note_on,1,0,0,,2,,,74,127
54413,note_on,0,0,0,,11,,,46,127
54493,note_off,80,0,0,,2,,,74,127
54494,note_on,1,0,0,,3,,,75,127
54574,note_off,80,0,0,,3,,,75,127
54575,note_on,1,0,0,,5,,,77,127
54655,note_off,80,0,0,,5,,,77,127
54655,note_off,0,0,0,,11,,,46,127
54656,note_on,1,0,0,,7,,,79,127
54656,note_on,0,0,0,,3,,,51,127
54736,note_off,80,0,0,,7,,,79,127
54737,note_on,1,0,0,,3,,,75,127
54817,note_off,80,0,0,,3,,,75,127
54818,note_on,1,0,0,,0,,,72,127
54898,note_off,80,0,0,,0,,,72,127
54898,note_off,0,0,0,,3,,,51,127
54899,note_on,1,0,0,,2,,,74,127
54899,note_on,0,0,0,,11,,,70,127
54899,note_on,0,0,0,,5,,,53,127
55140,note_off,241,0,0,,5,,,53,127
55140,note_off,0,0,0,,11,,,70,127
55140,note_off,0,0,0,,2,,,74,127
55141,note_on,1,0,0,,2,,,74,127
55141,note_on,0,0,0,,10,,,69,127
55141,note_on,0,0,0,,5,,,41,127
55200,note_off,59,0,0,,2,,,74,127
55201,note_on,1,0,0,,0,,,72,127
55254,note_off,53,0,0,,10,,,69,127
55260,note_off,6,0,0,,0,,,72,127
55261,note_on,1,0,0,,2,,,74,127
55320,note_off,59,0,0,,2,,,74,127
55321,note_on,1,0,0,,0,,,72,127
55380,note_off,59,0,0,,0,,,72,127
55380,note_off,0,0,0,,5,,,41,127
55381,note_on,1,0,0,,11,,,70,127
55381,note_on,0,0,0,,11,,,46,127
55622,note_off,241,0,0,,11,,,70,127
55623,note_on,1,0,0,,5,,,89,127
55744,note_on,121,0,0,,5,,,77,127
55774,note_off,30,0,0,,5,,,89,127
55864,note_off,90,0,0,,5,,,77,127
55865,note_on,1,0,0,,2,,,86,127
55986,note_off,121,0,0,,11,,,46,127
55986,note_on,0,0,0,,2,,,74,127
56016,note_off,30,0,0,,2,,,86,127
56106,note_off,90,0,0,,2,,,74,127
56107,note_on,1,0,0,,11,,,82,127
56107,note_on,0,0,0,,2,,,50,127
56228,note_on,121,0,0,,11,,,70,127
56258,note_off,30,0,0,,11,,,82,127
56348,note_off,90,0,0,,11,,,70,127
56348,note_off,0,0,0,,2,,,50,127
56349,note_on,1,0,0,,7,,,79,127
56349,note_on,0,0,0,,3,,,51,127
56470,note_on,121,0,0,,7,,,67,127
56500,note_off,30,0,0,,7,,,79,127
56590,note_off,90,0,0,,7,,,67,127
56590,note_off,0,0,0,,3,,,51,127
56591,note_on,1,0,0,,3,,,75,127
56591,note_on,0,0,0,,7,,,55,127
56671,note_off,80,0,0,,3,,,75,127
56672,note_on,1,0,0,,2,,,74,127
56752,note_off,80,0,0,,2,,,74,127
56753,note_on,1,0,0,,0,,,72,127
56833,note_off,80,0,0,,0,,,72,127
56833,note_off,0,0,0,,7,,,55,127
56834,note_on,1,0,0,,2,,,74,127
56834,note_on,0,0,0,,11,,,70,127
56834,note_on,0,0,0,,5,,,53,127
57075,note_off,241,0,0,,5,,,53,127
57075,note_off,0,0,0,,11,,,70,127
57075,note_off,0,0,0,,2,,,74,127
57076,note_on,1,0,0,,2,,,74,127
57076,note_on,0,0,0,,10,,,69,127
57076,note_on,0,0,0,,5,,,41,127
57135,note_off,59,0,0,,2,,,74,127
57136,note_on,1,0,0,,0,,,72,127
57189,note_off,53,0,0,,10,,,69,127
57195,note_off,6,0,0,,0,,,72,127
57196,note_on,1,0,0,,2,,,74,127
57255,note_off,59,0,0,,2,,,74,127
57256,note_on,1,0,0,,0,,,72,127
57315,note_off,59,0,0,,0,,,72,127
57315,note_off,0,0,0,,5,,,41,127
57316,note_on,1,0,0,,11,,,70,127
57316,note_on,0,0,0,,11,,,46,127
57557,note_off,241,0,0,,11,,,70,127
57558,note_on,1,0,0,,5,,,89,127
57672,note_off,114,0,0,,5,,,89,127
57680,note_on,8,0,0,,5,,,77,127
57794,note_off,114,0,0,,5,,,77,127
57802,note_on,8,0,0,,2,,,86,127
57916,note_off,114,0,0,,2,,,86,127
57924,note_on,8,0,0,,2,,,74,127
57975,note_off,51,0,0,,11,,,46,127
58038,note_off,63,0,0,,2,,,74,127
58046,note_on,8,0,0,,11,,,82,127
58046,note_on,0,0,0,,2,,,50,127
58160,note_off,114,0,0,,11,,,82,127
58168,note_on,8,0,0,,11,,,70,127
58282,note_off,114,0,0,,11,,,70,127
58288,note_off,6,0,0,,2,,,50,127
58289,note_on,1,0,0,,7,,,79,127
58289,note_on,0,0,0,,3,,,51,127
58403,note_off,114,0,0,,7,,,79,127
58411,note_on,8,0,0,,7,,,67,127
58531,note_off,120,0,0,,7,,,67,127
58531,note_off,0,0,0,,3,,,51,127
58532,note_on,1,0,0,,3,,,75,127
58532,note_on,0,0,0,,7,,,55,127
58612,note_off,80,0,0,,3,,,75,127
58613,note_on,1,0,0,,2,,,74,127
58693,note_off,80,0,0,,2,,,74,127
58694,note_on,1,0,0,,0,,,72,127
58774,note_off,80,0,0,,0,,,72,127
58774,note_off,0,0,0,,7,,,55,127
58775,note_on,1,0,0,,2,,,74,127
58775,note_on,0,0,0,,11,,,70,127
58775,note_on,0,0,0,,5,,,53,127
59016,note_off,241,0,0,,5,,,53,127
59016,note_off,0,0,0,,11,,,70,127
59016,note_off,0,0,0,,2,,,74,127
59017,note_on,1,0,0,,2,,,74,127
59017,note_on,0,0,0,,10,,,69,127
59017,note_on,0,0,0,,5,,,41,127
59076,note_off,59,0,0,,2,,,74,127
59077,note_on,1,0,0,,0,,,72,127
59130,note_off,53,0,0,,10,,,69,127
59136,note_off,6,0,0,,0,,,72,127
59137,note_on,1,0,0,,2,,,74,127
59196,note_off,59,0,0,,2,,,74,127
59197,note_on,1,0,0,,0,,,72,127
59256,note_off,59,0,0,,5,,,41,127
59272,note_off,16,0,0,,0,,,72,127
59282,note_on,10,0,0,,0,,,72,127
59282,note_on,0,0,0,,11,,,34,127
59341,note_off,59,0,0,,0,,,72,127
59342,note_on,1,0,0,,11,,,70,127
59401,note_off,59,0,0,,11,,,70,127
59402,note_on,1,0,0,,0,,,72,127
59461,note_off,59,0,0,,0,,,72,127
59462,note_on,1,0,0,,11,,,70,127
61256,note_off,1794,0,0,,11,,,70,127
61256,note_off,0,0,0,,11,,,34,127
62976,end_of_track,1720,1,0,,,,,,
