tick,type,time,meta,track,program,channel,pitch,tempo,note,velocity
0,copyright,0,1,0,,,,,,
0,program_change,0,0,0,6,0,,,,
0,pitchwheel,0,0,0,,0,0,,,
0,program_change,0,0,0,6,1,,,,
0,pitchwheel,0,0,0,,1,-590,,,
0,program_change,0,0,0,6,2,,,,
0,pitchwheel,0,0,0,,2,-272,,,
0,program_change,0,0,0,6,3,,,,
0,pitchwheel,0,0,0,,3,-353,,,
0,program_change,0,0,0,6,4,,,,
0,pitchwheel,0,0,0,,4,-560,,,
0,program_change,0,0,0,6,5,,,,
0,pitchwheel,0,0,0,,5,-80,,,
0,program_change,0,0,0,6,6,,,,
0,pitchwheel,0,0,0,,6,-625,,,
0,program_change,0,0,0,6,7,,,,
0,pitchwheel,0,0,0,,7,-130,,,
0,program_change,0,0,0,6,8,,,,
0,pitchwheel,0,0,0,,8,-512,,,
0,program_change,0,0,0,6,10,,,,
0,pitchwheel,0,0,0,,10,-464,,,
0,program_change,0,0,0,6,11,,,,
0,pitchwheel,0,0,0,,11,-208,,,
0,program_change,0,0,0,6,12,,,,
0,pitchwheel,0,0,0,,12,-553,,,
0,set_tempo,0,1,0,,,,500000,,
77,note_on,77,0,0,,11,,,46,127
230,note_off,153,0,0,,11,,,46,127
231,note_on,1,0,0,,2,,,50,127
384,note_off,153,0,0,,2,,,50,127
385,note_on,1,0,0,,5,,,53,127
538,note_off,153,0,0,,5,,,53,127
539,note_on,1,0,0,,11,,,58,127
692,note_off,153,0,0,,11,,,58,127
693,note_on,1,0,0,,2,,,62,127
846,note_off,153,0,0,,2,,,62,127
847,note_on,1,0,0,,5,,,65,127
1000,note_off,153,0,0,,5,,,65,127
1001,note_on,1,0,0,,11,,,70,127
1155,note_on,154,0,0,,11,,,82,127
1308,note_off,153,0,0,,11,,,82,127
1309,note_on,1,0,0,,10,,,81,127
1462,note_off,153,0,0,,10,,,81,127
1463,note_on,1,0,0,,7,,,79,127
1616,note_off,153,0,0,,7,,,79,127
1617,note_on,1,0,0,,2,,,74,127
1770,note_off,153,0,0,,2,,,74,127
1771,note_off,1,0,0,,11,,,70,127
1771,note_on,0,0,0,,4,,,76,127
1924,note_off,153,0,0,,4,,,76,127
1925,note_on,1,0,0,,10,,,69,127
1925,note_on,0,0,0,,5,,,77,127
2078,note_off,153,0,0,,5,,,77,127
2079,note_on,1,0,0,,0,,,72,127
2232,note_off,153,0,0,,0,,,72,127
2233,note_on,1,0,0,,2,,,74,127
2386,note_off,153,0,0,,2,,,74,127
2386,note_off,0,0,0,,10,,,69,127
2387,note_on,1,0,0,,7,,,67,127
2387,note_on,0,0,0,,3,,,75,127
2540,note_off,153,0,0,,3,,,75,127
2541,note_on,1,0,0,,11,,,70,127
2694,note_off,153,0,0,,11,,,70,127
2695,note_on,1,0,0,,0,,,72,127
2848,note_off,153,0,0,,0,,,72,127
2848,note_off,0,0,0,,7,,,67,127
2849,note_on,1,0,0,,5,,,65,127
2849,note_on,0,0,0,,2,,,74,127
3002,note_off,153,0,0,,2,,,74,127
3003,note_on,1,0,0,,10,,,69,127
3156,note_off,153,0,0,,10,,,69,127
3157,note_on,1,0,0,,11,,,70,127
3310,note_off,153,0,0,,11,,,70,127
3310,note_off,0,0,0,,5,,,65,127
3311,note_on,1,0,0,,3,,,63,127
3311,note_on,0,0,0,,0,,,72,127
3464,note_off,153,0,0,,0,,,72,127
3465,note_on,1,0,0,,7,,,67,127
3618,note_off,153,0,0,,7,,,67,127
3619,note_on,1,0,0,,10,,,69,127
3772,note_off,153,0,0,,10,,,69,127
3772,note_off,0,0,0,,3,,,63,127
3773,note_on,1,0,0,,2,,,62,127
3773,note_on,0,0,0,,11,,,70,127
3926,note_off,153,0,0,,11,,,70,127
3926,note_off,0,0,0,,2,,,62,127
3927,note_on,1,0,0,,0,,,60,127
3927,note_on,0,0,0,,0,,,72,127
4080,note_off,153,0,0,,0,,,72,127
4080,note_off,0,0,0,,0,,,60,127
4081,note_on,1,0,0,,11,,,58,127
4081,note_on,0,0,0,,2,,,74,127
4234,note_off,153,0,0,,2,,,74,127
4234,note_off,0,0,0,,11,,,58,127
4235,note_on,1,0,0,,3,,,51,127
4235,note_on,0,0,0,,2,,,74,127
4273,note_off,38,0,0,,2,,,74,127
4274,note_on,1,0,0,,0,,,72,127
4312,note_off,38,0,0,,0,,,72,127
4313,note_on,1,0,0,,2,,,74,127
4351,note_off,38,0,0,,2,,,74,127
4352,note_on,1,0,0,,0,,,72,127
4390,note_off,38,0,0,,0,,,72,127
4390,note_off,0,0,0,,3,,,51,127
4391,note_on,1,0,0,,5,,,53,127
4391,note_on,0,0,0,,11,,,70,127
4544,note_off,153,0,0,,11,,,70,127
4544,note_off,0,0,0,,5,,,53,127
4545,note_on,1,0,0,,5,,,41,127
4545,note_on,0,0,0,,10,,,69,127
4698,note_off,153,0,0,,10,,,69,127
4698,note_off,0,0,0,,5,,,41,127
4699,note_on,1,0,0,,11,,,46,127
4699,note_on,0,0,0,,11,,,70,127
4852,note_off,153,0,0,,11,,,46,127
4853,note_on,1,0,0,,2,,,50,127
5006,note_off,153,0,0,,2,,,50,127
5007,note_on,1,0,0,,5,,,53,127
5160,note_off,153,0,0,,5,,,53,127
5161,note_on,1,0,0,,11,,,58,127
5314,note_off,153,0,0,,11,,,58,127
5315,note_on,1,0,0,,2,,,62,127
5468,note_off,153,0,0,,2,,,62,127
5469,note_on,1,0,0,,5,,,65,127
5621,note_off,152,0,0,,11,,,70,127
5622,note_off,1,0,0,,5,,,65,127
5623,note_on,1,0,0,,11,,,70,127
5777,note_on,154,0,0,,11,,,82,127
5930,note_off,153,0,0,,11,,,82,127
5931,note_on,1,0,0,,10,,,81,127
6084,note_off,153,0,0,,10,,,81,127
6085,note_on,1,0,0,,7,,,79,127
6238,note_off,153,0,0,,7,,,79,127
6239,note_on,1,0,0,,2,,,74,127
6392,note_off,153,0,0,,2,,,74,127
6393,note_on,1,0,0,,4,,,76,127
6546,note_off,153,0,0,,4,,,76,127
6546,note_off,0,0,0,,11,,,70,127
6547,note_on,1,0,0,,10,,,69,127
6547,note_on,0,0,0,,5,,,77,127
6700,note_off,153,0,0,,5,,,77,127
6701,note_on,1,0,0,,0,,,72,127
6854,note_off,153,0,0,,0,,,72,127
6855,note_on,1,0,0,,2,,,74,127
7008,note_off,153,0,0,,2,,,74,127
7008,note_off,0,0,0,,10,,,69,127
7009,note_on,1,0,0,,7,,,67,127
7009,note_on,0,0,0,,4,,,76,127
7162,note_off,153,0,0,,4,,,76,127
7163,note_on,1,0,0,,11,,,70,127
7316,note_off,153,0,0,,11,,,70,127
7317,note_on,1,0,0,,0,,,72,127
7470,note_off,153,0,0,,0,,,72,127
7470,note_off,0,0,0,,7,,,67,127
7471,note_on,1,0,0,,5,,,65,127
7471,note_on,0,0,0,,2,,,74,127
7624,note_off,153,0,0,,2,,,74,127
7625,note_on,1,0,0,,10,,,69,127
7778,note_off,153,0,0,,10,,,69,127
7779,note_on,1,0,0,,11,,,70,127
7932,note_off,153,0,0,,11,,,70,127
7932,note_off,0,0,0,,5,,,65,127
7933,note_on,1,0,0,,4,,,64,127
7933,note_on,0,0,0,,0,,,72,127
8086,note_off,153,0,0,,4,,,64,127
8087,note_on,1,0,0,,0,,,60,127
8240,note_off,153,0,0,,0,,,60,127
8240,note_off,0,0,0,,0,,,72,127
8241,note_on,1,0,0,,7,,,67,127
8241,note_on,0,0,0,,11,,,70,127
8394,note_off,153,0,0,,11,,,70,127
8394,note_off,0,0,0,,7,,,67,127
8395,note_on,1,0,0,,5,,,65,127
8395,note_on,0,0,0,,10,,,69,127
8548,note_off,153,0,0,,5,,,65,127
8549,note_on,1,0,0,,0,,,60,127
8626,note_off,77,0,0,,10,,,69,127
8702,note_off,76,0,0,,0,,,60,127
8703,note_on,1,0,0,,10,,,69,127
8703,note_on,0,0,0,,0,,,72,127
8856,note_off,153,0,0,,0,,,72,127
8856,note_off,0,0,0,,10,,,69,127
8857,note_on,1,0,0,,7,,,67,127
8857,note_on,0,0,0,,0,,,72,127
8907,note_off,50,0,0,,0,,,72,127
8908,note_on,1,0,0,,11,,,70,127
8958,note_off,50,0,0,,11,,,70,127
8959,note_on,1,0,0,,0,,,72,127
9009,note_off,50,0,0,,0,,,72,127
9009,note_off,0,0,0,,7,,,67,127
9010,note_on,1,0,0,,0,,,60,127
9010,note_on,0,0,0,,11,,,70,127
9060,note_off,50,0,0,,11,,,70,127
9061,note_on,1,0,0,,0,,,72,127
9111,note_off,50,0,0,,0,,,72,127
9112,note_on,1,0,0,,11,,,70,127
9162,note_off,50,0,0,,11,,,70,127
9162,note_off,0,0,0,,0,,,60,127
9163,note_on,1,0,0,,7,,,67,127
9163,note_on,0,0,0,,0,,,72,127
9239,note_off,76,0,0,,0,,,72,127
9240,note_on,1,0,0,,11,,,70,127
9316,note_off,76,0,0,,11,,,70,127
9316,note_off,0,0,0,,7,,,67,127
9317,note_on,1,0,0,,5,,,65,127
9317,note_on,0,0,0,,10,,,69,127
9470,note_off,153,0,0,,5,,,65,127
9471,note_on,1,0,0,,0,,,60,127
9589,note_off,118,0,0,,10,,,69,127
9623,note_off,34,0,0,,0,,,60,127
9624,note_on,1,0,0,,10,,,69,127
9624,note_on,0,0,0,,0,,,72,127
9777,note_off,153,0,0,,0,,,72,127
9777,note_off,0,0,0,,10,,,69,127
9778,note_on,1,0,0,,7,,,67,127
9778,note_on,0,0,0,,0,,,72,127
9828,note_off,50,0,0,,0,,,72,127
9829,note_on,1,0,0,,11,,,70,127
9879,note_off,50,0,0,,11,,,70,127
9880,note_on,1,0,0,,0,,,72,127
9930,note_off,50,0,0,,0,,,72,127
9930,note_off,0,0,0,,7,,,67,127
9931,note_on,1,0,0,,0,,,60,127
9931,note_on,0,0,0,,11,,,70,127
9981,note_off,50,0,0,,11,,,70,127
9982,note_on,1,0,0,,0,,,72,127
10032,note_off,50,0,0,,0,,,72,127
10033,note_on,1,0,0,,11,,,70,127
10083,note_off,50,0,0,,11,,,70,127
10083,note_off,0,0,0,,0,,,60,127
10084,note_on,1,0,0,,7,,,67,127
10084,note_on,0,0,0,,0,,,72,127
10160,note_off,76,0,0,,0,,,72,127
10161,note_on,1,0,0,,11,,,70,127
10237,note_off,76,0,0,,11,,,70,127
10237,note_off,0,0,0,,7,,,67,127
10238,note_on,1,0,0,,5,,,65,127
10238,note_on,0,0,0,,10,,,69,127
10390,note_off,152,0,0,,10,,,69,127
10391,note_off,1,0,0,,5,,,65,127
10392,note_on,1,0,0,,10,,,69,127
10545,note_off,153,0,0,,10,,,69,127
10546,note_on,1,0,0,,0,,,72,127
10546,note_on,0,0,0,,0,,,84,127
10699,note_off,153,0,0,,0,,,72,127
10700,note_on,1,0,0,,0,,,60,127
10853,note_off,153,0,0,,0,,,60,127
10853,note_off,0,0,0,,0,,,84,127
10854,note_on,1,0,0,,4,,,64,127
10854,note_on,0,0,0,,11,,,46,127
11007,note_off,153,0,0,,11,,,46,127
11007,note_off,0,0,0,,4,,,64,127
11008,note_on,1,0,0,,7,,,67,127
11008,note_on,0,0,0,,7,,,43,127
11161,note_off,153,0,0,,7,,,43,127
11161,note_off,0,0,0,,7,,,67,127
11162,note_on,1,0,0,,5,,,65,127
11162,note_on,0,0,0,,5,,,41,127
11315,note_off,153,0,0,,5,,,65,127
11316,note_on,1,0,0,,10,,,69,127
11469,note_off,153,0,0,,10,,,69,127
11469,note_off,0,0,0,,5,,,41,127
11470,note_on,1,0,0,,0,,,72,127
11470,note_on,0,0,0,,0,,,84,127
11623,note_off,153,0,0,,0,,,72,127
11624,note_on,1,0,0,,0,,,60,127
11777,note_off,153,0,0,,0,,,60,127
11777,note_off,0,0,0,,0,,,84,127
11778,note_on,1,0,0,,4,,,64,127
11778,note_on,0,0,0,,11,,,46,127
11931,note_off,153,0,0,,11,,,46,127
11931,note_off,0,0,0,,4,,,64,127
11932,note_on,1,0,0,,7,,,67,127
11932,note_on,0,0,0,,7,,,43,127
12085,note_off,153,0,0,,7,,,43,127
12085,note_off,0,0,0,,7,,,67,127
12086,note_on,1,0,0,,5,,,65,127
12086,note_on,0,0,0,,5,,,41,127
12239,note_off,153,0,0,,5,,,65,127
12240,note_on,1,0,0,,10,,,69,127
12393,note_off,153,0,0,,10,,,69,127
12393,note_off,0,0,0,,5,,,41,127
12394,note_on,1,0,0,,0,,,72,127
12394,note_on,0,0,0,,0,,,84,127
12547,note_off,153,0,0,,0,,,72,127
12548,note_on,1,0,0,,0,,,60,127
12701,note_off,153,0,0,,0,,,60,127
12701,note_off,0,0,0,,0,,,84,127
12702,note_on,1,0,0,,4,,,64,127
12702,note_on,0,0,0,,11,,,46,127
12855,note_off,153,0,0,,11,,,46,127
12855,note_off,0,0,0,,4,,,64,127
12856,note_on,1,0,0,,7,,,67,127
12856,note_on,0,0,0,,7,,,43,127
13009,note_off,153,0,0,,7,,,43,127
13009,note_off,0,0,0,,7,,,67,127
13010,note_on,1,0,0,,5,,,65,127
13010,note_on,0,0,0,,5,,,41,127
13163,note_off,153,0,0,,5,,,41,127
13164,note_on,1,0,0,,10,,,45,127
13317,note_off,153,0,0,,10,,,45,127
13318,note_on,1,0,0,,0,,,48,127
13471,note_off,153,0,0,,0,,,48,127
13472,note_on,1,0,0,,5,,,53,127
13625,note_off,153,0,0,,5,,,53,127
13626,note_on,1,0,0,,10,,,57,127
13779,note_off,153,0,0,,10,,,57,127
13780,note_on,1,0,0,,0,,,60,127
13932,note_off,152,0,0,,5,,,65,127
13933,note_off,1,0,0,,0,,,60,127
13934,note_on,1,0,0,,5,,,65,127
14087,note_off,153,0,0,,5,,,65,127
14088,note_on,1,0,0,,0,,,60,127
14241,note_off,153,0,0,,0,,,60,127
14242,note_on,1,0,0,,11,,,46,127
14242,note_on,0,0,0,,11,,,70,127
14395,note_off,153,0,0,,11,,,70,127
14395,note_off,0,0,0,,11,,,46,127
14396,note_on,1,0,0,,0,,,48,127
14396,note_on,0,0,0,,10,,,69,127
14549,note_off,153,0,0,,10,,,69,127
14550,note_on,1,0,0,,10,,,69,127
14600,note_off,50,0,0,,10,,,69,127
14601,note_on,1,0,0,,7,,,67,127
14651,note_off,50,0,0,,7,,,67,127
14652,note_on,1,0,0,,10,,,69,127
14702,note_off,50,0,0,,10,,,69,127
14702,note_off,0,0,0,,0,,,48,127
14703,note_on,1,0,0,,0,,,36,127
14703,note_on,0,0,0,,7,,,67,127
14753,note_off,50,0,0,,7,,,67,127
14754,note_on,1,0,0,,10,,,69,127
14804,note_off,50,0,0,,10,,,69,127
14805,note_on,1,0,0,,7,,,67,127
14855,note_off,50,0,0,,7,,,67,127
14855,note_off,0,0,0,,0,,,36,127
14856,note_on,1,0,0,,5,,,65,127
15009,note_off,153,0,0,,5,,,65,127
15010,note_on,1,0,0,,10,,,69,127
15163,note_off,153,0,0,,10,,,69,127
15164,note_on,1,0,0,,0,,,72,127
15164,note_on,0,0,0,,0,,,84,127
15317,note_off,153,0,0,,0,,,72,127
15318,note_on,1,0,0,,0,,,60,127
15471,note_off,153,0,0,,0,,,60,127
15471,note_off,0,0,0,,0,,,84,127
15472,note_on,1,0,0,,4,,,64,127
15472,note_on,0,0,0,,11,,,46,127
15625,note_off,153,0,0,,11,,,46,127
15625,note_off,0,0,0,,4,,,64,127
15626,note_on,1,0,0,,7,,,67,127
15626,note_on,0,0,0,,7,,,43,127
15779,note_off,153,0,0,,7,,,43,127
15779,note_off,0,0,0,,7,,,67,127
15780,note_on,1,0,0,,5,,,65,127
15780,note_on,0,0,0,,5,,,41,127
15933,note_off,153,0,0,,5,,,65,127
15934,note_on,1,0,0,,10,,,69,127
16087,note_off,153,0,0,,10,,,69,127
16087,note_off,0,0,0,,5,,,41,127
16088,note_on,1,0,0,,0,,,72,127
16088,note_on,0,0,0,,0,,,84,127
16241,note_off,153,0,0,,0,,,72,127
16242,note_on,1,0,0,,0,,,60,127
16395,note_off,153,0,0,,0,,,60,127
16395,note_off,0,0,0,,0,,,84,127
16396,note_on,1,0,0,,4,,,64,127
16396,note_on,0,0,0,,11,,,46,127
16549,note_off,153,0,0,,11,,,46,127
16549,note_off,0,0,0,,4,,,64,127
16550,note_on,1,0,0,,7,,,67,127
16550,note_on,0,0,0,,7,,,43,127
16703,note_off,153,0,0,,7,,,43,127
16703,note_off,0,0,0,,7,,,67,127
16704,note_on,1,0,0,,5,,,65,127
16704,note_on,0,0,0,,5,,,41,127
16857,note_off,153,0,0,,5,,,65,127
16858,note_on,1,0,0,,10,,,69,127
17011,note_off,153,0,0,,10,,,69,127
17011,note_off,0,0,0,,5,,,41,127
17012,note_on,1,0,0,,0,,,72,127
17012,note_on,0,0,0,,0,,,84,127
17165,note_off,153,0,0,,0,,,72,127
17166,note_on,1,0,0,,0,,,60,127
17319,note_off,153,0,0,,0,,,60,127
17319,note_off,0,0,0,,0,,,84,127
17320,note_on,1,0,0,,4,,,64,127
17320,note_on,0,0,0,,11,,,46,127
17473,note_off,153,0,0,,11,,,46,127
17473,note_off,0,0,0,,4,,,64,127
17474,note_on,1,0,0,,7,,,67,127
17474,note_on,0,0,0,,7,,,43,127
17627,note_off,153,0,0,,7,,,43,127
17627,note_off,0,0,0,,7,,,67,127
17628,note_on,1,0,0,,5,,,65,127
17628,note_on,0,0,0,,5,,,41,127
17781,note_off,153,0,0,,5,,,41,127
17782,note_on,1,0,0,,10,,,45,127
17935,note_off,153,0,0,,10,,,45,127
17936,note_on,1,0,0,,0,,,48,127
18089,note_off,153,0,0,,0,,,48,127
18090,note_on,1,0,0,,5,,,53,127
18243,note_off,153,0,0,,5,,,53,127
18244,note_on,1,0,0,,10,,,57,127
18397,note_off,153,0,0,,10,,,57,127
18398,note_on,1,0,0,,0,,,60,127
18550,note_off,152,0,0,,5,,,65,127
18551,note_off,1,0,0,,0,,,60,127
18552,note_on,1,0,0,,5,,,65,127
18705,note_off,153,0,0,,5,,,65,127
18706,note_on,1,0,0,,0,,,60,127
18859,note_off,153,0,0,,0,,,60,127
18860,note_on,1,0,0,,11,,,46,127
18860,note_on,0,0,0,,11,,,70,127
19013,note_off,153,0,0,,11,,,70,127
19013,note_off,0,0,0,,11,,,46,127
19014,note_on,1,0,0,,0,,,48,127
19014,note_on,0,0,0,,10,,,69,127
19167,note_off,153,0,0,,10,,,69,127
19168,note_on,1,0,0,,10,,,69,127
19218,note_off,50,0,0,,10,,,69,127
19219,note_on,1,0,0,,7,,,67,127
19269,note_off,50,0,0,,7,,,67,127
19270,note_on,1,0,0,,10,,,69,127
19320,note_off,50,0,0,,10,,,69,127
19320,note_off,0,0,0,,0,,,48,127
19321,note_on,1,0,0,,0,,,36,127
19321,note_on,0,0,0,,7,,,67,127
19371,note_off,50,0,0,,7,,,67,127
19372,note_on,1,0,0,,10,,,69,127
19422,note_off,50,0,0,,10,,,69,127
19423,note_on,1,0,0,,7,,,67,127
19473,note_off,50,0,0,,7,,,67,127
19473,note_off,0,0,0,,0,,,36,127
19474,note_on,1,0,0,,5,,,41,127
19474,note_on,0,0,0,,10,,,69,127
19474,note_on,0,0,0,,5,,,65,127
19627,note_off,153,0,0,,5,,,41,127
19628,note_on,1,0,0,,5,,,77,127
19781,note_off,153,0,0,,5,,,77,127
19782,note_on,1,0,0,,10,,,81,127
19935,note_off,153,0,0,,10,,,81,127
19936,note_on,1,0,0,,0,,,84,127
20089,note_off,153,0,0,,0,,,84,127
20089,note_off,0,0,0,,5,,,65,127
20089,note_off,0,0,0,,10,,,69,127
20090,note_on,1,0,0,,0,,,36,127
20090,note_on,0,0,0,,4,,,64,127
20090,note_on,0,0,0,,7,,,67,127
20243,note_off,153,0,0,,7,,,67,127
20243,note_off,0,0,0,,4,,,64,127
20244,note_on,1,0,0,,7,,,67,127
20244,note_on,0,0,0,,11,,,70,127
20394,note_off,150,0,0,,0,,,36,127
20396,note_off,2,0,0,,11,,,70,127
20396,note_off,0,0,0,,7,,,67,127
20397,note_on,1,0,0,,10,,,69,127
20397,note_on,0,0,0,,5,,,65,127
20551,note_on,154,0,0,,5,,,77,127
20704,note_off,153,0,0,,5,,,77,127
20705,note_on,1,0,0,,10,,,81,127
20858,note_off,153,0,0,,10,,,81,127
20859,note_on,1,0,0,,0,,,84,127
21012,note_off,153,0,0,,0,,,84,127
21012,note_off,0,0,0,,5,,,65,127
21012,note_off,0,0,0,,10,,,69,127
21013,note_on,1,0,0,,0,,,36,127
21013,note_on,0,0,0,,4,,,64,127
21013,note_on,0,0,0,,7,,,67,127
21166,note_off,153,0,0,,7,,,67,127
21166,note_off,0,0,0,,4,,,64,127
21167,note_on,1,0,0,,11,,,70,127
21167,note_on,0,0,0,,7,,,67,127
21320,note_off,153,0,0,,7,,,67,127
21320,note_off,0,0,0,,11,,,70,127
21320,note_off,0,0,0,,0,,,36,127
21321,note_on,1,0,0,,5,,,41,127
21321,note_on,0,0,0,,5,,,65,127
21321,note_on,0,0,0,,10,,,69,127
21474,note_off,153,0,0,,10,,,69,127
21474,note_off,0,0,0,,5,,,41,127
21475,note_on,1,0,0,,7,,,43,127
21475,note_on,0,0,0,,11,,,70,127
21628,note_off,153,0,0,,11,,,70,127
21628,note_off,0,0,0,,7,,,43,127
21629,note_on,1,0,0,,10,,,45,127
21629,note_on,0,0,0,,0,,,72,127
21782,note_off,153,0,0,,0,,,72,127
21782,note_off,0,0,0,,10,,,45,127
21782,note_off,0,0,0,,5,,,65,127
21783,note_on,1,0,0,,11,,,46,127
21783,note_on,0,0,0,,11,,,70,127
21783,note_on,0,0,0,,7,,,67,127
21936,note_off,153,0,0,,7,,,67,127
21936,note_off,0,0,0,,11,,,70,127
21936,note_off,0,0,0,,11,,,46,127
21937,note_on,1,0,0,,0,,,48,127
21937,note_on,0,0,0,,10,,,69,127
21937,note_on,0,0,0,,5,,,65,127
22090,note_off,153,0,0,,5,,,65,127
22090,note_off,0,0,0,,10,,,69,127
22090,note_off,0,0,0,,0,,,48,127
22091,note_on,1,0,0,,0,,,36,127
22091,note_on,0,0,0,,4,,,64,127
22091,note_on,0,0,0,,7,,,67,127
22243,note_off,152,0,0,,0,,,36,127
22244,note_off,1,0,0,,7,,,67,127
22244,note_off,0,0,0,,4,,,64,127
22245,note_on,1,0,0,,5,,,65,127
22245,note_on,0,0,0,,10,,,69,127
22399,note_on,154,0,0,,5,,,77,127
22552,note_off,153,0,0,,5,,,77,127
22553,note_on,1,0,0,,10,,,81,127
22706,note_off,153,0,0,,10,,,81,127
22707,note_on,1,0,0,,0,,,84,127
22860,note_off,153,0,0,,0,,,84,127
22860,note_off,0,0,0,,10,,,69,127
22860,note_off,0,0,0,,5,,,65,127
22861,note_on,1,0,0,,0,,,36,127
22861,note_on,0,0,0,,4,,,64,127
22861,note_on,0,0,0,,7,,,67,127
23014,note_off,153,0,0,,7,,,67,127
23014,note_off,0,0,0,,4,,,64,127
23015,note_on,1,0,0,,11,,,70,127
23015,note_on,0,0,0,,7,,,67,127
23165,note_off,150,0,0,,0,,,36,127
23167,note_off,2,0,0,,7,,,67,127
23167,note_off,0,0,0,,11,,,70,127
23168,note_on,1,0,0,,5,,,65,127
23168,note_on,0,0,0,,10,,,69,127
23322,note_on,154,0,0,,5,,,77,127
23475,note_off,153,0,0,,5,,,77,127
23476,note_on,1,0,0,,10,,,81,127
23629,note_off,153,0,0,,10,,,81,127
23630,note_on,1,0,0,,0,,,84,127
23783,note_off,153,0,0,,0,,,84,127
23783,note_off,0,0,0,,10,,,69,127
23783,note_off,0,0,0,,5,,,65,127
23784,note_on,1,0,0,,0,,,36,127
23784,note_on,0,0,0,,4,,,64,127
23784,note_on,0,0,0,,7,,,67,127
23937,note_off,153,0,0,,7,,,67,127
23937,note_off,0,0,0,,4,,,64,127
23938,note_on,1,0,0,,11,,,70,127
23938,note_on,0,0,0,,7,,,67,127
24091,note_off,153,0,0,,7,,,67,127
24091,note_off,0,0,0,,11,,,70,127
24091,note_off,0,0,0,,0,,,36,127
24092,note_on,1,0,0,,5,,,41,127
24092,note_on,0,0,0,,10,,,69,127
24092,note_on,0,0,0,,5,,,65,127
24245,note_off,153,0,0,,10,,,69,127
24245,note_off,0,0,0,,5,,,41,127
24246,note_on,1,0,0,,7,,,43,127
24246,note_on,0,0,0,,11,,,70,127
24399,note_off,153,0,0,,11,,,70,127
24399,note_off,0,0,0,,7,,,43,127
24400,note_on,1,0,0,,10,,,45,127
24400,note_on,0,0,0,,0,,,72,127
24553,note_off,153,0,0,,0,,,72,127
24553,note_off,0,0,0,,10,,,45,127
24553,note_off,0,0,0,,5,,,65,127
24554,note_on,1,0,0,,11,,,46,127
24554,note_on,0,0,0,,11,,,70,127
24554,note_on,0,0,0,,7,,,67,127
24707,note_off,153,0,0,,7,,,67,127
24707,note_off,0,0,0,,11,,,70,127
24707,note_off,0,0,0,,11,,,46,127
24708,note_on,1,0,0,,0,,,48,127
24708,note_on,0,0,0,,5,,,65,127
24708,note_on,0,0,0,,10,,,69,127
24861,note_off,153,0,0,,10,,,69,127
24861,note_off,0,0,0,,5,,,65,127
24861,note_off,0,0,0,,0,,,48,127
24862,note_on,1,0,0,,0,,,36,127
24862,note_on,0,0,0,,7,,,67,127
24862,note_on,0,0,0,,4,,,64,127
25015,note_off,153,0,0,,4,,,64,127
25015,note_off,0,0,0,,7,,,67,127
25015,note_off,0,0,0,,0,,,36,127
25016,note_on,1,0,0,,5,,,41,127
25016,note_on,0,0,0,,5,,,65,127
25169,note_off,153,0,0,,5,,,41,127
25170,note_on,1,0,0,,7,,,43,127
25170,note_on,0,0,0,,5,,,77,127
25320,note_off,150,0,0,,5,,,65,127
25322,note_off,2,0,0,,5,,,77,127
25322,note_off,0,0,0,,7,,,43,127
25323,note_on,1,0,0,,10,,,45,127
25323,note_on,0,0,0,,0,,,72,127
25323,note_on,0,0,0,,10,,,69,127
25476,note_off,153,0,0,,10,,,69,127
25476,note_off,0,0,0,,0,,,72,127
25476,note_off,0,0,0,,10,,,45,127
25477,note_on,1,0,0,,11,,,46,127
25477,note_on,0,0,0,,11,,,70,127
25477,note_on,0,0,0,,7,,,67,127
25630,note_off,153,0,0,,7,,,67,127
25630,note_off,0,0,0,,11,,,70,127
25630,note_off,0,0,0,,11,,,46,127
25631,note_on,1,0,0,,0,,,48,127
25631,note_on,0,0,0,,5,,,65,127
25631,note_on,0,0,0,,10,,,69,127
25784,note_off,153,0,0,,10,,,69,127
25784,note_off,0,0,0,,5,,,65,127
25784,note_off,0,0,0,,0,,,48,127
25785,note_on,1,0,0,,0,,,36,127
25785,note_on,0,0,0,,7,,,67,127
25785,note_on,0,0,0,,4,,,64,127
25938,note_off,153,0,0,,4,,,64,127
25938,note_off,0,0,0,,7,,,67,127
25938,note_off,0,0,0,,0,,,36,127
25939,note_on,1,0,0,,5,,,41,127
25939,note_on,0,0,0,,5,,,65,127
26092,note_off,153,0,0,,5,,,41,127
26093,note_on,1,0,0,,7,,,43,127
26093,note_on,0,0,0,,5,,,77,127
26243,note_off,150,0,0,,5,,,65,127
26245,note_off,2,0,0,,5,,,77,127
26245,note_off,0,0,0,,7,,,43,127
26246,note_on,1,0,0,,10,,,45,127
26246,note_on,0,0,0,,0,,,72,127
26246,note_on,0,0,0,,10,,,69,127
26399,note_off,153,0,0,,10,,,69,127
26399,note_off,0,0,0,,0,,,72,127
26399,note_off,0,0,0,,10,,,45,127
26400,note_on,1,0,0,,11,,,46,127
26400,note_on,0,0,0,,7,,,67,127
26400,note_on,0,0,0,,11,,,70,127
26553,note_off,153,0,0,,11,,,70,127
26553,note_off,0,0,0,,7,,,67,127
26553,note_off,0,0,0,,11,,,46,127
26554,note_on,1,0,0,,0,,,48,127
26554,note_on,0,0,0,,10,,,69,127
26554,note_on,0,0,0,,5,,,65,127
26707,note_off,153,0,0,,5,,,65,127
26707,note_off,0,0,0,,10,,,69,127
26707,note_off,0,0,0,,0,,,48,127
26708,note_on,1,0,0,,0,,,36,127
26708,note_on,0,0,0,,7,,,67,127
26708,note_on,0,0,0,,4,,,64,127
26861,note_off,153,0,0,,4,,,64,127
26861,note_off,0,0,0,,7,,,67,127
26861,note_off,0,0,0,,0,,,36,127
26862,note_on,1,0,0,,5,,,41,127
26862,note_on,0,0,0,,5,,,65,127
27015,note_off,153,0,0,,5,,,41,127
27016,note_on,1,0,0,,7,,,43,127
27016,note_on,0,0,0,,5,,,77,127
27166,note_off,150,0,0,,5,,,65,127
27168,note_off,2,0,0,,5,,,77,127
27168,note_off,0,0,0,,7,,,43,127
27169,note_on,1,0,0,,10,,,45,127
27169,note_on,0,0,0,,0,,,72,127
27169,note_on,0,0,0,,10,,,69,127
27322,note_off,153,0,0,,10,,,69,127
27322,note_off,0,0,0,,0,,,72,127
27322,note_off,0,0,0,,10,,,45,127
27323,note_on,1,0,0,,11,,,46,127
27323,note_on,0,0,0,,7,,,67,127
27323,note_on,0,0,0,,11,,,70,127
27476,note_off,153,0,0,,11,,,70,127
27476,note_off,0,0,0,,7,,,67,127
27476,note_off,0,0,0,,11,,,46,127
27477,note_on,1,0,0,,0,,,48,127
27477,note_on,0,0,0,,5,,,65,127
27477,note_on,0,0,0,,10,,,69,127
27630,note_off,153,0,0,,10,,,69,127
27630,note_off,0,0,0,,5,,,65,127
27630,note_off,0,0,0,,0,,,48,127
27631,note_on,1,0,0,,0,,,36,127
27631,note_on,0,0,0,,4,,,64,127
27631,note_on,0,0,0,,7,,,67,127
27784,note_off,153,0,0,,7,,,67,127
27784,note_off,0,0,0,,4,,,64,127
27784,note_off,0,0,0,,0,,,36,127
27785,note_on,1,0,0,,5,,,41,127
27785,note_on,0,0,0,,7,,,67,127
27823,note_off,38,0,0,,7,,,67,127
27824,note_on,1,0,0,,5,,,65,127
27862,note_off,38,0,0,,5,,,65,127
27863,note_on,1,0,0,,7,,,67,127
27901,note_off,38,0,0,,7,,,67,127
27902,note_on,1,0,0,,5,,,65,127
28244,note_off,342,0,0,,5,,,65,127
28400,note_off,156,0,0,,5,,,41,127
28554,note_on,154,0,0,,2,,,38,127
28554,note_on,0,0,0,,2,,,62,127
28554,note_on,0,0,0,,2,,,74,127
28554,note_on,0,0,0,,6,,,66,127
28554,note_on,0,0,0,,10,,,69,127
28707,note_off,153,0,0,,2,,,38,127
28708,note_on,1,0,0,,10,,,57,127
28861,note_off,153,0,0,,10,,,57,127
28862,note_on,1,0,0,,6,,,54,127
29015,note_off,153,0,0,,6,,,54,127
29016,note_on,1,0,0,,2,,,38,127
29169,note_off,153,0,0,,2,,,38,127
29170,note_on,1,0,0,,2,,,38,127
29323,note_off,153,0,0,,2,,,38,127
29324,note_on,1,0,0,,2,,,38,127
29477,note_off,153,0,0,,10,,,69,127
29477,note_off,0,0,0,,6,,,66,127
29477,note_off,0,0,0,,2,,,74,127
29477,note_off,0,0,0,,2,,,62,127
29478,note_on,1,0,0,,11,,,70,127
29478,note_on,0,0,0,,2,,,62,127
29478,note_on,0,0,0,,2,,,74,127
29478,note_on,0,0,0,,7,,,67,127
29631,note_off,153,0,0,,2,,,38,127
29632,note_on,1,0,0,,11,,,58,127
29785,note_off,153,0,0,,11,,,58,127
29786,note_on,1,0,0,,7,,,55,127
29939,note_off,153,0,0,,7,,,55,127
29940,note_on,1,0,0,,2,,,38,127
30093,note_off,153,0,0,,2,,,38,127
30094,note_on,1,0,0,,2,,,38,127
30247,note_off,153,0,0,,2,,,38,127
30248,note_on,1,0,0,,2,,,38,127
30401,note_off,153,0,0,,7,,,67,127
30401,note_off,0,0,0,,2,,,74,127
30401,note_off,0,0,0,,2,,,62,127
30401,note_off,0,0,0,,11,,,70,127
30402,note_on,1,0,0,,6,,,66,127
30402,note_on,0,0,0,,10,,,69,127
30402,note_on,0,0,0,,2,,,62,127
30402,note_on,0,0,0,,2,,,74,127
30555,note_off,153,0,0,,2,,,38,127
30556,note_on,1,0,0,,0,,,60,127
30709,note_off,153,0,0,,0,,,60,127
30710,note_on,1,0,0,,10,,,57,127
30863,note_off,153,0,0,,10,,,57,127
30864,note_on,1,0,0,,2,,,38,127
31017,note_off,153,0,0,,2,,,38,127
31018,note_on,1,0,0,,2,,,38,127
31171,note_off,153,0,0,,2,,,38,127
31172,note_on,1,0,0,,2,,,38,127
31325,note_off,153,0,0,,2,,,74,127
31325,note_off,0,0,0,,2,,,62,127
31325,note_off,0,0,0,,10,,,69,127
31325,note_off,0,0,0,,6,,,66,127
31326,note_on,1,0,0,,2,,,62,127
31326,note_on,0,0,0,,11,,,70,127
31326,note_on,0,0,0,,7,,,67,127
31326,note_on,0,0,0,,2,,,74,127
31478,note_off,152,0,0,,2,,,62,127
31479,note_off,1,0,0,,2,,,38,127
31480,note_on,1,0,0,,2,,,62,127
31634,note_on,154,0,0,,11,,,58,127
31787,note_off,153,0,0,,11,,,58,127
31788,note_on,1,0,0,,2,,,38,127
31941,note_off,153,0,0,,2,,,38,127
31942,note_on,1,0,0,,2,,,38,127
32095,note_off,153,0,0,,2,,,38,127
32096,note_on,1,0,0,,2,,,38,127
32249,note_off,153,0,0,,2,,,74,127
32249,note_off,0,0,0,,7,,,67,127
32249,note_off,0,0,0,,11,,,70,127
32250,note_off,1,0,0,,2,,,62,127
32250,note_on,0,0,0,,2,,,62,127
32250,note_on,0,0,0,,6,,,66,127
32250,note_on,0,0,0,,10,,,69,127
32250,note_on,0,0,0,,2,,,74,127
32403,note_off,153,0,0,,2,,,38,127
32404,note_on,1,0,0,,0,,,60,127
32557,note_off,153,0,0,,0,,,60,127
32558,note_on,1,0,0,,10,,,57,127
32711,note_off,153,0,0,,10,,,57,127
32711,note_off,0,0,0,,2,,,74,127
32711,note_off,0,0,0,,10,,,69,127
32711,note_off,0,0,0,,6,,,66,127
32711,note_off,0,0,0,,2,,,62,127
32712,note_on,1,0,0,,2,,,38,127
32712,note_on,0,0,0,,2,,,62,127
32712,note_on,0,0,0,,2,,,74,127
32712,note_on,0,0,0,,11,,,70,127
32712,note_on,0,0,0,,7,,,67,127
32864,note_off,152,0,0,,2,,,62,127
32865,note_off,1,0,0,,2,,,38,127
32866,note_on,1,0,0,,2,,,62,127
33020,note_on,154,0,0,,11,,,58,127
33170,note_off,150,0,0,,2,,,62,127
33172,note_off,2,0,0,,11,,,58,127
33172,note_off,0,0,0,,7,,,67,127
33172,note_off,0,0,0,,11,,,70,127
33172,note_off,0,0,0,,2,,,74,127
33173,note_on,1,0,0,,2,,,38,127
33173,note_on,0,0,0,,10,,,69,127
33173,note_on,0,0,0,,6,,,66,127
33173,note_on,0,0,0,,2,,,62,127
33173,note_on,0,0,0,,2,,,74,127
33326,note_off,153,0,0,,2,,,38,127
33327,note_on,1,0,0,,0,,,60,127
33480,note_off,153,0,0,,0,,,60,127
33481,note_on,1,0,0,,10,,,57,127
33634,note_off,153,0,0,,10,,,57,127
33634,note_off,0,0,0,,2,,,74,127
33634,note_off,0,0,0,,2,,,62,127
33634,note_off,0,0,0,,6,,,66,127
33634,note_off,0,0,0,,10,,,69,127
33635,note_on,1,0,0,,2,,,38,127
33635,note_on,0,0,0,,11,,,70,127
33635,note_on,0,0,0,,2,,,62,127
33635,note_on,0,0,0,,7,,,67,127
33635,note_on,0,0,0,,2,,,74,127
33787,note_off,152,0,0,,2,,,62,127
33788,note_off,1,0,0,,2,,,38,127
33789,note_on,1,0,0,,2,,,62,127
33943,note_on,154,0,0,,11,,,58,127
34093,note_off,150,0,0,,2,,,62,127
34095,note_off,2,0,0,,11,,,58,127
34095,note_off,0,0,0,,2,,,74,127
34095,note_off,0,0,0,,7,,,67,127
34095,note_off,0,0,0,,11,,,70,127
34096,note_on,1,0,0,,2,,,38,127
34096,note_on,0,0,0,,10,,,69,127
34172,note_off,76,0,0,,10,,,69,127
34173,note_on,1,0,0,,2,,,74,127
34249,note_off,76,0,0,,2,,,74,127
34250,note_on,1,0,0,,0,,,72,127
34326,note_off,76,0,0,,0,,,72,127
34327,note_on,1,0,0,,11,,,70,127
34403,note_off,76,0,0,,11,,,70,127
34404,note_on,1,0,0,,10,,,69,127
34480,note_off,76,0,0,,10,,,69,127
34481,note_on,1,0,0,,7,,,67,127
34557,note_off,76,0,0,,7,,,67,127
34558,note_on,1,0,0,,6,,,66,127
34634,note_off,76,0,0,,6,,,66,127
34635,note_on,1,0,0,,3,,,63,127
34711,note_off,76,0,0,,3,,,63,127
34711,note_off,0,0,0,,2,,,38,127
34712,note_on,1,0,0,,2,,,62,127
34788,note_off,76,0,0,,2,,,62,127
34789,note_on,1,0,0,,0,,,60,127
34865,note_off,76,0,0,,0,,,60,127
34866,note_on,1,0,0,,12,,,59,127
34942,note_off,76,0,0,,12,,,59,127
34943,note_on,1,0,0,,10,,,57,127
35019,note_off,76,0,0,,10,,,57,127
35020,note_on,1,0,0,,7,,,43,127
35020,note_on,0,0,0,,7,,,67,127
35020,note_on,0,0,0,,7,,,79,127
35020,note_on,0,0,0,,2,,,74,127
35020,note_on,0,0,0,,12,,,71,127
35173,note_off,153,0,0,,7,,,43,127
35174,note_on,1,0,0,,2,,,62,127
35327,note_off,153,0,0,,2,,,62,127
35328,note_on,1,0,0,,12,,,59,127
35481,note_off,153,0,0,,12,,,59,127
35482,note_on,1,0,0,,7,,,43,127
35635,note_off,153,0,0,,7,,,43,127
35636,note_on,1,0,0,,7,,,43,127
35789,note_off,153,0,0,,7,,,43,127
35790,note_on,1,0,0,,7,,,43,127
35943,note_off,153,0,0,,12,,,71,127
35943,note_off,0,0,0,,2,,,74,127
35943,note_off,0,0,0,,7,,,79,127
35943,note_off,0,0,0,,7,,,67,127
35944,note_on,1,0,0,,7,,,79,127
35944,note_on,0,0,0,,3,,,75,127
35944,note_on,0,0,0,,7,,,67,127
35944,note_on,0,0,0,,0,,,72,127
36097,note_off,153,0,0,,7,,,43,127
36098,note_on,1,0,0,,3,,,63,127
36251,note_off,153,0,0,,3,,,63,127
36252,note_on,1,0,0,,0,,,60,127
36405,note_off,153,0,0,,0,,,60,127
36406,note_on,1,0,0,,7,,,43,127
36559,note_off,153,0,0,,7,,,43,127
36560,note_on,1,0,0,,7,,,43,127
36713,note_off,153,0,0,,7,,,43,127
36714,note_on,1,0,0,,7,,,43,127
36867,note_off,153,0,0,,0,,,72,127
36867,note_off,0,0,0,,7,,,67,127
36867,note_off,0,0,0,,3,,,75,127
36867,note_off,0,0,0,,7,,,79,127
36868,note_on,1,0,0,,2,,,74,127
36868,note_on,0,0,0,,7,,,67,127
36868,note_on,0,0,0,,12,,,71,127
36868,note_on,0,0,0,,7,,,79,127
37021,note_off,153,0,0,,7,,,43,127
37022,note_on,1,0,0,,5,,,65,127
37175,note_off,153,0,0,,5,,,65,127
37176,note_on,1,0,0,,2,,,62,127
37329,note_off,153,0,0,,2,,,62,127
37330,note_on,1,0,0,,7,,,43,127
37483,note_off,153,0,0,,7,,,43,127
37484,note_on,1,0,0,,7,,,43,127
37637,note_off,153,0,0,,7,,,43,127
37638,note_on,1,0,0,,7,,,43,127
37791,note_off,153,0,0,,7,,,79,127
37791,note_off,0,0,0,,12,,,71,127
37791,note_off,0,0,0,,7,,,67,127
37791,note_off,0,0,0,,2,,,74,127
37792,note_on,1,0,0,,7,,,79,127
37792,note_on,0,0,0,,3,,,75,127
37792,note_on,0,0,0,,0,,,72,127
37792,note_on,0,0,0,,7,,,67,127
37944,note_off,152,0,0,,7,,,67,127
37945,note_off,1,0,0,,7,,,43,127
37946,note_on,1,0,0,,7,,,67,127
38100,note_on,154,0,0,,3,,,63,127
38253,note_off,153,0,0,,3,,,63,127
38254,note_on,1,0,0,,7,,,43,127
38407,note_off,153,0,0,,7,,,43,127
38408,note_on,1,0,0,,7,,,43,127
38561,note_off,153,0,0,,7,,,43,127
38562,note_on,1,0,0,,7,,,43,127
38715,note_off,153,0,0,,0,,,72,127
38715,note_off,0,0,0,,3,,,75,127
38715,note_off,0,0,0,,7,,,79,127
38716,note_off,1,0,0,,7,,,67,127
38716,note_on,0,0,0,,7,,,79,127
38716,note_on,0,0,0,,2,,,74,127
38716,note_on,0,0,0,,12,,,71,127
38716,note_on,0,0,0,,7,,,67,127
38869,note_off,153,0,0,,7,,,43,127
38870,note_on,1,0,0,,5,,,65,127
39023,note_off,153,0,0,,5,,,65,127
39024,note_on,1,0,0,,2,,,62,127
39177,note_off,153,0,0,,2,,,62,127
39177,note_off,0,0,0,,7,,,67,127
39177,note_off,0,0,0,,12,,,71,127
39177,note_off,0,0,0,,2,,,74,127
39177,note_off,0,0,0,,7,,,79,127
39178,note_on,1,0,0,,7,,,43,127
39178,note_on,0,0,0,,7,,,79,127
39178,note_on,0,0,0,,3,,,75,127
39178,note_on,0,0,0,,7,,,67,127
39178,note_on,0,0,0,,0,,,72,127
39330,note_off,152,0,0,,7,,,67,127
39331,note_off,1,0,0,,7,,,43,127
39332,note_on,1,0,0,,7,,,67,127
39486,note_on,154,0,0,,3,,,63,127
39636,note_off,150,0,0,,7,,,67,127
39638,note_off,2,0,0,,3,,,63,127
39638,note_off,0,0,0,,0,,,72,127
39638,note_off,0,0,0,,3,,,75,127
39638,note_off,0,0,0,,7,,,79,127
39639,note_on,1,0,0,,7,,,43,127
39639,note_on,0,0,0,,7,,,79,127
39639,note_on,0,0,0,,2,,,74,127
39639,note_on,0,0,0,,12,,,71,127
39639,note_on,0,0,0,,7,,,67,127
39792,note_off,153,0,0,,7,,,43,127
39793,note_on,1,0,0,,5,,,65,127
39946,note_off,153,0,0,,5,,,65,127
39947,note_on,1,0,0,,2,,,62,127
40100,note_off,153,0,0,,2,,,62,127
40100,note_off,0,0,0,,7,,,67,127
40100,note_off,0,0,0,,12,,,71,127
40100,note_off,0,0,0,,2,,,74,127
40100,note_off,0,0,0,,7,,,79,127
40101,note_on,1,0,0,,7,,,43,127
40101,note_on,0,0,0,,3,,,75,127
40101,note_on,0,0,0,,7,,,79,127
40101,note_on,0,0,0,,0,,,72,127
40101,note_on,0,0,0,,7,,,67,127
40253,note_off,152,0,0,,7,,,67,127
40254,note_off,1,0,0,,7,,,43,127
40255,note_on,1,0,0,,7,,,67,127
40409,note_on,154,0,0,,3,,,63,127
40559,note_off,150,0,0,,7,,,67,127
40561,note_off,2,0,0,,3,,,63,127
40561,note_off,0,0,0,,0,,,72,127
40561,note_off,0,0,0,,7,,,79,127
40561,note_off,0,0,0,,3,,,75,127
40562,note_on,1,0,0,,7,,,43,127
40562,note_on,0,0,0,,2,,,74,127
40638,note_off,76,0,0,,2,,,74,127
40639,note_on,1,0,0,,7,,,79,127
40715,note_off,76,0,0,,7,,,79,127
40716,note_on,1,0,0,,5,,,77,127
40792,note_off,76,0,0,,5,,,77,127
40793,note_on,1,0,0,,3,,,75,127
40869,note_off,76,0,0,,3,,,75,127
40870,note_on,1,0,0,,2,,,74,127
40946,note_off,76,0,0,,2,,,74,127
40947,note_on,1,0,0,,0,,,72,127
41023,note_off,76,0,0,,0,,,72,127
41024,note_on,1,0,0,,12,,,71,127
41100,note_off,76,0,0,,12,,,71,127
41101,note_on,1,0,0,,10,,,69,127
41177,note_off,76,0,0,,10,,,69,127
41178,note_on,1,0,0,,7,,,67,127
41254,note_off,76,0,0,,7,,,67,127
41255,note_on,1,0,0,,5,,,65,127
41331,note_off,76,0,0,,5,,,65,127
41332,note_on,1,0,0,,3,,,63,127
41408,note_off,76,0,0,,3,,,63,127
41409,note_on,1,0,0,,2,,,62,127
41485,note_off,76,0,0,,2,,,62,127
41485,note_off,0,0,0,,7,,,43,127
41486,note_on,1,0,0,,0,,,48,127
41486,note_on,0,0,0,,0,,,60,127
41639,note_off,153,0,0,,0,,,60,127
41640,note_on,1,0,0,,3,,,75,127
41790,note_off,150,0,0,,0,,,48,127
41792,note_off,2,0,0,,3,,,75,127
41793,note_on,1,0,0,,5,,,77,127
41946,note_off,153,0,0,,5,,,77,127
41947,note_on,1,0,0,,11,,,70,127
41947,note_on,0,0,0,,7,,,79,127
42100,note_off,153,0,0,,7,,,79,127
42101,note_on,1,0,0,,2,,,74,127
42254,note_off,153,0,0,,2,,,74,127
42255,note_on,1,0,0,,3,,,75,127
42408,note_off,153,0,0,,3,,,75,127
42408,note_off,0,0,0,,11,,,70,127
42409,note_on,1,0,0,,10,,,69,127
42409,note_on,0,0,0,,5,,,77,127
42562,note_off,153,0,0,,5,,,77,127
42563,note_on,1,0,0,,0,,,72,127
42716,note_off,153,0,0,,0,,,72,127
42717,note_on,1,0,0,,2,,,74,127
42870,note_off,153,0,0,,2,,,74,127
42870,note_off,0,0,0,,10,,,69,127
42871,note_on,1,0,0,,7,,,67,127
42871,note_on,0,0,0,,3,,,75,127
43024,note_off,153,0,0,,3,,,75,127
43025,note_on,1,0,0,,11,,,70,127
43178,note_off,153,0,0,,11,,,70,127
43179,note_on,1,0,0,,0,,,72,127
43332,note_off,153,0,0,,0,,,72,127
43332,note_off,0,0,0,,7,,,67,127
43333,note_on,1,0,0,,5,,,65,127
43333,note_on,0,0,0,,2,,,74,127
43486,note_off,153,0,0,,2,,,74,127
43487,note_on,1,0,0,,10,,,69,127
43640,note_off,153,0,0,,10,,,69,127
43641,note_on,1,0,0,,11,,,70,127
43794,note_off,153,0,0,,11,,,70,127
43794,note_off,0,0,0,,5,,,65,127
43795,note_on,1,0,0,,3,,,63,127
43795,note_on,0,0,0,,0,,,72,127
43948,note_off,153,0,0,,0,,,72,127
43949,note_on,1,0,0,,7,,,67,127
44102,note_off,153,0,0,,7,,,67,127
44103,note_on,1,0,0,,10,,,69,127
44256,note_off,153,0,0,,10,,,69,127
44256,note_off,0,0,0,,3,,,63,127
44257,note_on,1,0,0,,2,,,62,127
44257,note_on,0,0,0,,11,,,70,127
44410,note_off,153,0,0,,11,,,70,127
44410,note_off,0,0,0,,2,,,62,127
44411,note_on,1,0,0,,0,,,60,127
44411,note_on,0,0,0,,0,,,72,127
44564,note_off,153,0,0,,0,,,72,127
44564,note_off,0,0,0,,0,,,60,127
44565,note_on,1,0,0,,11,,,58,127
44565,note_on,0,0,0,,2,,,74,127
44718,note_off,153,0,0,,2,,,74,127
44718,note_off,0,0,0,,11,,,58,127
44719,note_on,1,0,0,,10,,,57,127
44719,note_on,0,0,0,,5,,,77,127
44769,note_off,50,0,0,,5,,,77,127
44770,note_on,1,0,0,,3,,,75,127
44820,note_off,50,0,0,,3,,,75,127
44821,note_on,1,0,0,,5,,,77,127
44871,note_off,50,0,0,,5,,,77,127
44871,note_off,0,0,0,,10,,,57,127
44872,note_on,1,0,0,,7,,,55,127
44872,note_on,0,0,0,,3,,,75,127
44922,note_off,50,0,0,,3,,,75,127
44923,note_on,1,0,0,,5,,,77,127
44973,note_off,50,0,0,,5,,,77,127
44974,note_on,1,0,0,,3,,,75,127
45024,note_off,50,0,0,,3,,,75,127
45024,note_off,0,0,0,,7,,,55,127
45025,note_on,1,0,0,,5,,,53,127
45025,note_on,0,0,0,,5,,,77,127
45101,note_off,76,0,0,,5,,,77,127
45102,note_on,1,0,0,,3,,,75,127
45178,note_off,76,0,0,,3,,,75,127
45178,note_off,0,0,0,,5,,,53,127
45179,note_on,1,0,0,,11,,,58,127
45179,note_on,0,0,0,,2,,,74,127
45332,note_off,153,0,0,,11,,,58,127
45333,note_on,1,0,0,,2,,,62,127
45486,note_off,153,0,0,,2,,,62,127
45486,note_off,0,0,0,,2,,,74,127
45487,note_on,1,0,0,,5,,,65,127
45487,note_on,0,0,0,,5,,,89,127
45640,note_off,153,0,0,,5,,,65,127
45641,note_on,1,0,0,,5,,,53,127
45794,note_off,153,0,0,,5,,,53,127
45794,note_off,0,0,0,,5,,,89,127
45795,note_on,1,0,0,,10,,,57,127
45795,note_on,0,0,0,,0,,,48,127
45948,note_off,153,0,0,,0,,,48,127
45948,note_off,0,0,0,,10,,,57,127
45949,note_on,1,0,0,,0,,,60,127
45949,note_on,0,0,0,,10,,,45,127
46102,note_off,153,0,0,,10,,,45,127
46102,note_off,0,0,0,,0,,,60,127
46103,note_on,1,0,0,,11,,,58,127
46103,note_on,0,0,0,,11,,,46,127
46256,note_off,153,0,0,,11,,,58,127
46257,note_on,1,0,0,,2,,,62,127
46410,note_off,153,0,0,,2,,,62,127
46410,note_off,0,0,0,,11,,,46,127
46411,note_on,1,0,0,,5,,,65,127
46411,note_on,0,0,0,,5,,,89,127
46564,note_off,153,0,0,,5,,,65,127
46565,note_on,1,0,0,,5,,,53,127
46718,note_off,153,0,0,,5,,,53,127
46718,note_off,0,0,0,,5,,,89,127
46719,note_on,1,0,0,,10,,,57,127
46719,note_on,0,0,0,,3,,,51,127
46872,note_off,153,0,0,,3,,,51,127
46872,note_off,0,0,0,,10,,,57,127
46873,note_on,1,0,0,,0,,,60,127
46873,note_on,0,0,0,,0,,,48,127
47026,note_off,153,0,0,,0,,,48,127
47026,note_off,0,0,0,,0,,,60,127
47027,note_on,1,0,0,,11,,,58,127
47027,note_on,0,0,0,,11,,,46,127
47180,note_off,153,0,0,,11,,,58,127
47181,note_on,1,0,0,,2,,,62,127
47334,note_off,153,0,0,,2,,,62,127
47334,note_off,0,0,0,,11,,,46,127
47335,note_on,1,0,0,,5,,,65,127
47335,note_on,0,0,0,,5,,,89,127
47488,note_off,153,0,0,,5,,,65,127
47489,note_on,1,0,0,,5,,,53,127
47642,note_off,153,0,0,,5,,,53,127
47642,note_off,0,0,0,,5,,,89,127
47643,note_on,1,0,0,,10,,,57,127
47643,note_on,0,0,0,,3,,,51,127
47796,note_off,153,0,0,,3,,,51,127
47796,note_off,0,0,0,,10,,,57,127
47797,note_on,1,0,0,,0,,,60,127
47797,note_on,0,0,0,,0,,,48,127
47950,note_off,153,0,0,,0,,,48,127
47950,note_off,0,0,0,,0,,,60,127
47951,note_on,1,0,0,,11,,,58,127
47951,note_on,0,0,0,,11,,,46,127
48104,note_off,153,0,0,,11,,,46,127
48105,note_on,1,0,0,,2,,,50,127
48258,note_off,153,0,0,,2,,,50,127
48259,note_on,1,0,0,,5,,,53,127
48412,note_off,153,0,0,,5,,,53,127
48412,note_off,0,0,0,,11,,,58,127
48413,note_on,1,0,0,,11,,,58,127
48566,note_off,153,0,0,,11,,,58,127
48567,note_on,1,0,0,,2,,,62,127
48720,note_off,153,0,0,,2,,,62,127
48721,note_on,1,0,0,,5,,,65,127
48874,note_off,153,0,0,,5,,,65,127
48875,note_on,1,0,0,,11,,,70,127
49028,note_off,153,0,0,,11,,,70,127
49029,note_on,1,0,0,,5,,,65,127
49182,note_off,153,0,0,,5,,,65,127
49183,note_on,1,0,0,,3,,,51,127
49183,note_on,0,0,0,,3,,,75,127
49336,note_off,153,0,0,,3,,,75,127
49336,note_off,0,0,0,,3,,,51,127
49337,note_on,1,0,0,,5,,,53,127
49337,note_on,0,0,0,,2,,,74,127
49490,note_off,153,0,0,,2,,,74,127
49491,note_on,1,0,0,,2,,,74,127
49541,note_off,50,0,0,,2,,,74,127
49542,note_on,1,0,0,,0,,,72,127
49592,note_off,50,0,0,,0,,,72,127
49593,note_on,1,0,0,,2,,,74,127
49643,note_off,50,0,0,,2,,,74,127
49643,note_off,0,0,0,,5,,,53,127
49644,note_on,1,0,0,,5,,,41,127
49644,note_on,0,0,0,,0,,,72,127
49694,note_off,50,0,0,,0,,,72,127
49695,note_on,1,0,0,,2,,,74,127
49745,note_off,50,0,0,,2,,,74,127
49746,note_on,1,0,0,,0,,,72,127
49796,note_off,50,0,0,,0,,,72,127
49796,note_off,0,0,0,,5,,,41,127
49797,note_on,1,0,0,,11,,,58,127
49797,note_on,0,0,0,,2,,,74,127
49950,note_off,153,0,0,,11,,,58,127
49951,note_on,1,0,0,,2,,,62,127
50104,note_off,153,0,0,,2,,,62,127
50104,note_off,0,0,0,,2,,,74,127
50105,note_on,1,0,0,,5,,,65,127
50105,note_on,0,0,0,,5,,,89,127
50258,note_off,153,0,0,,5,,,65,127
50259,note_on,1,0,0,,5,,,53,127
50412,note_off,153,0,0,,5,,,53,127
50412,note_off,0,0,0,,5,,,89,127
50413,note_on,1,0,0,,10,,,57,127
50413,note_on,0,0,0,,3,,,51,127
50566,note_off,153,0,0,,3,,,51,127
50566,note_off,0,0,0,,10,,,57,127
50567,note_on,1,0,0,,0,,,60,127
50567,note_on,0,0,0,,0,,,48,127
50720,note_off,153,0,0,,0,,,48,127
50720,note_off,0,0,0,,0,,,60,127
50721,note_on,1,0,0,,11,,,58,127
50721,note_on,0,0,0,,11,,,46,127
50874,note_off,153,0,0,,11,,,58,127
50875,note_on,1,0,0,,2,,,62,127
51028,note_off,153,0,0,,2,,,62,127
51028,note_off,0,0,0,,11,,,46,127
51029,note_on,1,0,0,,5,,,65,127
51029,note_on,0,0,0,,5,,,89,127
51182,note_off,153,0,0,,5,,,65,127
51183,note_on,1,0,0,,5,,,53,127
51336,note_off,153,0,0,,5,,,53,127
51336,note_off,0,0,0,,5,,,89,127
51337,note_on,1,0,0,,10,,,57,127
51337,note_on,0,0,0,,3,,,51,127
51490,note_off,153,0,0,,3,,,51,127
51490,note_off,0,0,0,,10,,,57,127
51491,note_on,1,0,0,,0,,,60,127
51491,note_on,0,0,0,,0,,,48,127
51644,note_off,153,0,0,,0,,,48,127
51644,note_off,0,0,0,,0,,,60,127
51645,note_on,1,0,0,,11,,,58,127
51645,note_on,0,0,0,,11,,,46,127
51798,note_off,153,0,0,,11,,,58,127
51799,note_on,1,0,0,,2,,,62,127
51952,note_off,153,0,0,,2,,,62,127
51952,note_off,0,0,0,,11,,,46,127
51953,note_on,1,0,0,,5,,,65,127
51953,note_on,0,0,0,,5,,,89,127
52106,note_off,153,0,0,,5,,,65,127
52107,note_on,1,0,0,,5,,,53,127
52260,note_off,153,0,0,,5,,,53,127
52260,note_off,0,0,0,,5,,,89,127
52261,note_on,1,0,0,,10,,,57,127
52261,note_on,0,0,0,,3,,,51,127
52414,note_off,153,0,0,,3,,,51,127
52414,note_off,0,0,0,,10,,,57,127
52415,note_on,1,0,0,,0,,,60,127
52415,note_on,0,0,0,,0,,,48,127
52568,note_off,153,0,0,,0,,,48,127
52568,note_off,0,0,0,,0,,,60,127
52569,note_on,1,0,0,,11,,,58,127
52569,note_on,0,0,0,,11,,,46,127
52722,note_off,153,0,0,,11,,,46,127
52723,note_on,1,0,0,,2,,,50,127
52876,note_off,153,0,0,,2,,,50,127
52877,note_on,1,0,0,,5,,,53,127
53030,note_off,153,0,0,,5,,,53,127
53030,note_off,0,0,0,,11,,,58,127
53031,note_on,1,0,0,,11,,,58,127
53184,note_off,153,0,0,,11,,,58,127
53185,note_on,1,0,0,,2,,,62,127
53338,note_off,153,0,0,,2,,,62,127
53339,note_on,1,0,0,,5,,,65,127
53492,note_off,153,0,0,,5,,,65,127
53493,note_on,1,0,0,,11,,,70,127
53646,note_off,153,0,0,,11,,,70,127
53647,note_on,1,0,0,,5,,,65,127
53800,note_off,153,0,0,,5,,,65,127
53801,note_on,1,0,0,,3,,,51,127
53801,note_on,0,0,0,,3,,,75,127
53954,note_off,153,0,0,,3,,,75,127
53954,note_off,0,0,0,,3,,,51,127
53955,note_on,1,0,0,,5,,,53,127
53955,note_on,0,0,0,,2,,,74,127
54108,note_off,153,0,0,,2,,,74,127
54109,note_on,1,0,0,,2,,,74,127
54159,note_off,50,0,0,,2,,,74,127
54160,note_on,1,0,0,,0,,,72,127
54210,note_off,50,0,0,,0,,,72,127
54211,note_on,1,0,0,,2,,,74,127
54261,note_off,50,0,0,,2,,,74,127
54261,note_off,0,0,0,,5,,,53,127
54262,note_on,1,0,0,,5,,,41,127
54262,note_on,0,0,0,,0,,,72,127
54312,note_off,50,0,0,,0,,,72,127
54313,note_on,1,0,0,,2,,,74,127
54363,note_off,50,0,0,,2,,,74,127
54364,note_on,1,0,0,,0,,,72,127
54414,note_off,50,0,0,,5,,,41,127
54415,note_off,1,0,0,,0,,,72,127
54416,note_on,1,0,0,,11,,,70,127
54416,note_on,0,0,0,,2,,,74,127
54570,note_on,154,0,0,,11,,,82,127
54723,note_off,153,0,0,,11,,,82,127
54724,note_on,1,0,0,,2,,,86,127
54877,note_off,153,0,0,,2,,,86,127
54878,note_on,1,0,0,,5,,,89,127
55031,note_off,153,0,0,,5,,,89,127
55031,note_off,0,0,0,,2,,,74,127
55031,note_off,0,0,0,,11,,,70,127
55032,note_on,1,0,0,,5,,,41,127
55032,note_on,0,0,0,,0,,,72,127
55032,note_on,0,0,0,,10,,,69,127
55185,note_off,153,0,0,,10,,,69,127
55185,note_off,0,0,0,,0,,,72,127
55186,note_on,1,0,0,,0,,,72,127
55186,note_on,0,0,0,,3,,,75,127
55336,note_off,150,0,0,,5,,,41,127
55338,note_off,2,0,0,,3,,,75,127
55338,note_off,0,0,0,,0,,,72,127
55339,note_on,1,0,0,,11,,,70,127
55339,note_on,0,0,0,,2,,,74,127
55493,note_on,154,0,0,,11,,,82,127
55646,note_off,153,0,0,,11,,,82,127
55647,note_on,1,0,0,,2,,,86,127
55800,note_off,153,0,0,,2,,,86,127
55801,note_on,1,0,0,,5,,,89,127
55954,note_off,153,0,0,,5,,,89,127
55954,note_off,0,0,0,,2,,,74,127
55954,note_off,0,0,0,,11,,,70,127
55955,note_on,1,0,0,,5,,,41,127
55955,note_on,0,0,0,,10,,,69,127
55955,note_on,0,0,0,,0,,,72,127
56108,note_off,153,0,0,,0,,,72,127
56108,note_off,0,0,0,,10,,,69,127
56109,note_on,1,0,0,,0,,,72,127
56109,note_on,0,0,0,,3,,,75,127
56262,note_off,153,0,0,,3,,,75,127
56262,note_off,0,0,0,,0,,,72,127
56262,note_off,0,0,0,,5,,,41,127
56263,note_on,1,0,0,,11,,,46,127
56263,note_on,0,0,0,,11,,,70,127
56263,note_on,0,0,0,,2,,,74,127
56416,note_off,153,0,0,,2,,,74,127
56416,note_off,0,0,0,,11,,,70,127
56416,note_off,0,0,0,,11,,,46,127
56417,note_on,1,0,0,,0,,,48,127
56417,note_on,0,0,0,,3,,,75,127
56570,note_off,153,0,0,,3,,,75,127
56570,note_off,0,0,0,,0,,,48,127
56571,note_on,1,0,0,,2,,,50,127
56571,note_on,0,0,0,,2,,,74,127
56571,note_on,0,0,0,,5,,,77,127
56724,note_off,153,0,0,,5,,,77,127
56724,note_off,0,0,0,,2,,,74,127
56724,note_off,0,0,0,,2,,,50,127
56725,note_on,1,0,0,,3,,,51,127
56725,note_on,0,0,0,,3,,,75,127
56725,note_on,0,0,0,,0,,,72,127
56878,note_off,153,0,0,,0,,,72,127
56878,note_off,0,0,0,,3,,,75,127
56878,note_off,0,0,0,,3,,,51,127
56879,note_on,1,0,0,,5,,,53,127
56879,note_on,0,0,0,,11,,,70,127
56879,note_on,0,0,0,,2,,,74,127
57032,note_off,153,0,0,,2,,,74,127
57032,note_off,0,0,0,,11,,,70,127
57032,note_off,0,0,0,,5,,,53,127
57033,note_on,1,0,0,,5,,,41,127
57033,note_on,0,0,0,,10,,,69,127
57033,note_on,0,0,0,,0,,,72,127
57185,note_off,152,0,0,,5,,,41,127
57186,note_off,1,0,0,,0,,,72,127
57186,note_off,0,0,0,,10,,,69,127
57187,note_on,1,0,0,,11,,,70,127
57187,note_on,0,0,0,,2,,,74,127
57341,note_on,154,0,0,,11,,,82,127
57494,note_off,153,0,0,,11,,,82,127
57495,note_on,1,0,0,,2,,,86,127
57648,note_off,153,0,0,,2,,,86,127
57649,note_on,1,0,0,,5,,,89,127
57802,note_off,153,0,0,,5,,,89,127
57802,note_off,0,0,0,,2,,,74,127
57802,note_off,0,0,0,,11,,,70,127
57803,note_on,1,0,0,,5,,,41,127
57803,note_on,0,0,0,,0,,,72,127
57803,note_on,0,0,0,,10,,,69,127
57956,note_off,153,0,0,,10,,,69,127
57956,note_off,0,0,0,,0,,,72,127
57957,note_on,1,0,0,,3,,,75,127
57957,note_on,0,0,0,,0,,,72,127
58107,note_off,150,0,0,,5,,,41,127
58109,note_off,2,0,0,,0,,,72,127
58109,note_off,0,0,0,,3,,,75,127
58110,note_on,1,0,0,,11,,,70,127
58110,note_on,0,0,0,,2,,,74,127
58264,note_on,154,0,0,,11,,,82,127
58417,note_off,153,0,0,,11,,,82,127
58418,note_on,1,0,0,,2,,,86,127
58571,note_off,153,0,0,,2,,,86,127
58572,note_on,1,0,0,,5,,,89,127
58725,note_off,153,0,0,,5,,,89,127
58725,note_off,0,0,0,,2,,,74,127
58725,note_off,0,0,0,,11,,,70,127
58726,note_on,1,0,0,,5,,,41,127
58726,note_on,0,0,0,,10,,,69,127
58726,note_on,0,0,0,,0,,,72,127
58879,note_off,153,0,0,,0,,,72,127
58879,note_off,0,0,0,,10,,,69,127
58880,note_on,1,0,0,,0,,,72,127
58880,note_on,0,0,0,,3,,,75,127
59033,note_off,153,0,0,,3,,,75,127
59033,note_off,0,0,0,,0,,,72,127
59033,note_off,0,0,0,,5,,,41,127
59034,note_on,1,0,0,,11,,,46,127
59034,note_on,0,0,0,,2,,,74,127
59034,note_on,0,0,0,,11,,,70,127
59187,note_off,153,0,0,,11,,,70,127
59187,note_off,0,0,0,,2,,,74,127
59187,note_off,0,0,0,,11,,,46,127
59188,note_on,1,0,0,,0,,,48,127
59188,note_on,0,0,0,,3,,,75,127
59341,note_off,153,0,0,,3,,,75,127
59341,note_off,0,0,0,,0,,,48,127
59342,note_on,1,0,0,,2,,,50,127
59342,note_on,0,0,0,,5,,,77,127
59342,note_on,0,0,0,,2,,,74,127
59495,note_off,153,0,0,,2,,,74,127
59495,note_off,0,0,0,,5,,,77,127
59495,note_off,0,0,0,,2,,,50,127
59496,note_on,1,0,0,,3,,,51,127
59496,note_on,0,0,0,,3,,,75,127
59496,note_on,0,0,0,,0,,,72,127
59649,note_off,153,0,0,,0,,,72,127
59649,note_off,0,0,0,,3,,,75,127
59649,note_off,0,0,0,,3,,,51,127
59650,note_on,1,0,0,,5,,,53,127
59650,note_on,0,0,0,,11,,,70,127
59650,note_on,0,0,0,,2,,,74,127
59803,note_off,153,0,0,,2,,,74,127
59803,note_off,0,0,0,,11,,,70,127
59803,note_off,0,0,0,,5,,,53,127
59804,note_on,1,0,0,,5,,,41,127
59804,note_on,0,0,0,,10,,,69,127
59804,note_on,0,0,0,,0,,,72,127
59957,note_off,153,0,0,,0,,,72,127
59957,note_off,0,0,0,,10,,,69,127
59957,note_off,0,0,0,,5,,,41,127
59958,note_on,1,0,0,,11,,,46,127
59958,note_on,0,0,0,,11,,,70,127
60111,note_off,153,0,0,,11,,,46,127
60112,note_on,1,0,0,,0,,,48,127
60112,note_on,0,0,0,,11,,,82,127
60262,note_off,150,0,0,,11,,,70,127
60264,note_off,2,0,0,,11,,,82,127
60264,note_off,0,0,0,,0,,,48,127
60265,note_on,1,0,0,,2,,,50,127
60265,note_on,0,0,0,,5,,,77,127
60265,note_on,0,0,0,,2,,,74,127
60418,note_off,153,0,0,,2,,,74,127
60418,note_off,0,0,0,,5,,,77,127
60418,note_off,0,0,0,,2,,,50,127
60419,note_on,1,0,0,,3,,,51,127
60419,note_on,0,0,0,,0,,,72,127
60419,note_on,0,0,0,,3,,,75,127
60572,note_off,153,0,0,,3,,,75,127
60572,note_off,0,0,0,,0,,,72,127
60572,note_off,0,0,0,,3,,,51,127
60573,note_on,1,0,0,,5,,,53,127
60573,note_on,0,0,0,,11,,,70,127
60573,note_on,0,0,0,,2,,,74,127
60726,note_off,153,0,0,,2,,,74,127
60726,note_off,0,0,0,,11,,,70,127
60726,note_off,0,0,0,,5,,,53,127
60727,note_on,1,0,0,,5,,,41,127
60727,note_on,0,0,0,,10,,,69,127
60727,note_on,0,0,0,,0,,,72,127
60880,note_off,153,0,0,,0,,,72,127
60880,note_off,0,0,0,,10,,,69,127
60880,note_off,0,0,0,,5,,,41,127
60881,note_on,1,0,0,,11,,,46,127
60881,note_on,0,0,0,,11,,,70,127
61034,note_off,153,0,0,,11,,,46,127
61036,note_on,2,0,0,,11,,,82,127
61036,note_on,0,0,0,,0,,,48,127
61185,note_off,149,0,0,,11,,,70,127
61190,note_off,5,0,0,,0,,,48,127
61190,note_off,0,0,0,,11,,,82,127
61193,note_on,3,0,0,,5,,,77,127
61193,note_on,0,0,0,,2,,,74,127
61193,note_on,0,0,0,,2,,,50,127
61347,note_off,154,0,0,,2,,,50,127
61347,note_off,0,0,0,,2,,,74,127
61347,note_off,0,0,0,,5,,,77,127
61349,note_on,2,0,0,,3,,,75,127
61349,note_on,0,0,0,,0,,,72,127
61349,note_on,0,0,0,,3,,,51,127
61503,note_off,154,0,0,,3,,,51,127
61503,note_off,0,0,0,,0,,,72,127
61503,note_off,0,0,0,,3,,,75,127
61506,note_on,3,0,0,,2,,,74,127
61506,note_on,0,0,0,,11,,,70,127
61506,note_on,0,0,0,,5,,,53,127
61660,note_off,154,0,0,,5,,,53,127
61660,note_off,0,0,0,,11,,,70,127
61660,note_off,0,0,0,,2,,,74,127
61663,note_on,3,0,0,,0,,,72,127
61663,note_on,0,0,0,,10,,,69,127
61663,note_on,0,0,0,,5,,,41,127
61817,note_off,154,0,0,,5,,,41,127
61817,note_off,0,0,0,,10,,,69,127
61817,note_off,0,0,0,,0,,,72,127
61822,note_on,5,0,0,,11,,,46,127
61822,note_on,0,0,0,,11,,,70,127
61980,note_off,158,0,0,,11,,,46,127
61984,note_on,4,0,0,,0,,,48,127
61984,note_on,0,0,0,,11,,,82,127
62138,note_off,154,0,0,,11,,,70,127
62142,note_off,4,0,0,,11,,,82,127
62142,note_off,0,0,0,,0,,,48,127
62146,note_on,4,0,0,,2,,,50,127
62146,note_on,0,0,0,,5,,,77,127
62146,note_on,0,0,0,,2,,,74,127
62304,note_off,158,0,0,,2,,,74,127
62304,note_off,0,0,0,,5,,,77,127
62304,note_off,0,0,0,,2,,,50,127
62307,note_on,3,0,0,,3,,,51,127
62307,note_on,0,0,0,,0,,,72,127
62307,note_on,0,0,0,,3,,,75,127
62465,note_off,158,0,0,,3,,,75,127
62465,note_off,0,0,0,,0,,,72,127
62465,note_off,0,0,0,,3,,,51,127
62469,note_on,4,0,0,,5,,,53,127
62469,note_on,0,0,0,,11,,,70,127
62469,note_on,0,0,0,,2,,,74,127
62627,note_off,158,0,0,,2,,,74,127
62627,note_off,0,0,0,,11,,,70,127
62627,note_off,0,0,0,,5,,,53,127
62631,note_on,4,0,0,,5,,,41,127
62631,note_on,0,0,0,,10,,,69,127
62631,note_on,0,0,0,,0,,,72,127
62789,note_off,158,0,0,,0,,,72,127
62789,note_off,0,0,0,,10,,,69,127
62789,note_off,0,0,0,,5,,,41,127
62806,note_on,17,0,0,,0,,,72,127
62806,note_on,0,0,0,,11,,,46,127
62844,note_off,38,0,0,,0,,,72,127
62846,note_on,2,0,0,,11,,,70,127
62884,note_off,38,0,0,,11,,,70,127
62886,note_on,2,0,0,,0,,,72,127
62924,note_off,38,0,0,,0,,,72,127
62926,note_on,2,0,0,,11,,,70,127
64967,note_off,2041,0,0,,11,,,70,127
64967,note_off,0,0,0,,11,,,46,127
69120,end_of_track,4153,1,0,,,,,,
