tick,type,time,meta,track,program,channel,pitch,tempo,note,velocity
0,copyright,0,1,0,,,,,,
0,program_change,0,0,0,6,0,,,,
0,pitchwheel,0,0,0,,0,0,,,
0,program_change,0,0,0,6,1,,,,
0,pitchwheel,0,0,0,,1,-590,,,
0,program_change,0,0,0,6,2,,,,
0,pitchwheel,0,0,0,,2,-272,,,
0,program_change,0,0,0,6,3,,,,
0,pitchwheel,0,0,0,,3,-353,,,
0,program_change,0,0,0,6,4,,,,
0,pitchwheel,0,0,0,,4,-560,,,
0,program_change,0,0,0,6,5,,,,
0,pitchwheel,0,0,0,,5,-80,,,
0,program_change,0,0,0,6,6,,,,
0,pitchwheel,0,0,0,,6,-625,,,
0,program_change,0,0,0,6,7,,,,
0,pitchwheel,0,0,0,,7,-130,,,
0,program_change,0,0,0,6,8,,,,
0,pitchwheel,0,0,0,,8,-512,,,
0,program_change,0,0,0,6,10,,,,
0,pitchwheel,0,0,0,,10,-464,,,
0,program_change,0,0,0,6,11,,,,
0,pitchwheel,0,0,0,,11,-208,,,
0,program_change,0,0,0,6,12,,,,
0,pitchwheel,0,0,0,,12,-553,,,
0,set_tempo,0,1,0,,,,500000,,
70,note_on,70,0,0,,4,,,40,127
210,note_on,140,0,0,,12,,,83,127
349,note_off,139,0,0,,12,,,83,127
350,note_on,1,0,0,,10,,,81,127
350,note_on,0,0,0,,8,,,80,127
489,note_off,139,0,0,,8,,,80,127
489,note_off,0,0,0,,10,,,81,127
490,note_on,1,0,0,,6,,,78,127
629,note_off,139,0,0,,6,,,78,127
630,note_on,1,0,0,,4,,,76,127
769,note_off,139,0,0,,4,,,76,127
770,note_on,1,0,0,,3,,,75,127
909,note_off,139,0,0,,3,,,75,127
910,note_on,1,0,0,,4,,,76,127
1037,note_off,127,0,0,,4,,,76,127
1049,note_on,12,0,0,,12,,,71,127
1189,note_on,140,0,0,,8,,,80,127
1209,note_off,20,0,0,,12,,,71,127
1328,note_off,119,0,0,,8,,,80,127
1329,note_on,1,0,0,,6,,,78,127
1468,note_off,139,0,0,,6,,,78,127
1469,note_on,1,0,0,,4,,,76,127
1608,note_off,139,0,0,,4,,,76,127
1609,note_on,1,0,0,,3,,,75,127
1748,note_off,139,0,0,,3,,,75,127
1749,note_on,1,0,0,,4,,,76,127
1876,note_off,127,0,0,,4,,,76,127
1888,note_on,12,0,0,,12,,,71,127
2028,note_on,140,0,0,,8,,,80,127
2048,note_off,20,0,0,,12,,,71,127
2167,note_off,119,0,0,,8,,,80,127
2168,note_on,1,0,0,,6,,,78,127
2307,note_off,139,0,0,,6,,,78,127
2308,note_on,1,0,0,,4,,,76,127
2447,note_off,139,0,0,,4,,,76,127
2448,note_on,1,0,0,,3,,,75,127
2587,note_off,139,0,0,,3,,,75,127
2588,note_off,1,0,0,,4,,,40,127
2588,note_on,0,0,0,,4,,,76,127
2720,note_off,132,0,0,,4,,,76,127
2727,note_on,7,0,0,,12,,,71,127
2727,note_on,0,0,0,,3,,,75,127
2866,note_off,139,0,0,,3,,,75,127
2866,note_off,0,0,0,,12,,,71,127
2867,note_on,1,0,0,,8,,,68,127
2867,note_on,0,0,0,,4,,,76,127
3006,note_off,139,0,0,,4,,,76,127
3006,note_off,0,0,0,,8,,,68,127
3007,note_on,1,0,0,,6,,,66,127
3007,note_on,0,0,0,,6,,,78,127
3146,note_off,139,0,0,,6,,,78,127
3146,note_off,0,0,0,,6,,,66,127
3147,note_on,1,0,0,,4,,,64,127
3147,note_on,0,0,0,,8,,,80,127
3286,note_off,139,0,0,,8,,,80,127
3286,note_off,0,0,0,,4,,,64,127
3287,note_on,1,0,0,,3,,,63,127
3287,note_on,0,0,0,,10,,,81,127
3426,note_off,139,0,0,,10,,,81,127
3426,note_off,0,0,0,,3,,,63,127
3427,note_on,1,0,0,,4,,,64,127
3427,note_on,0,0,0,,8,,,80,127
3566,note_off,139,0,0,,8,,,80,127
3566,note_off,0,0,0,,4,,,64,127
3567,note_on,1,0,0,,12,,,59,127
3567,note_on,0,0,0,,6,,,78,127
3706,note_off,139,0,0,,6,,,78,127
3706,note_off,0,0,0,,12,,,59,127
3707,note_on,1,0,0,,8,,,68,127
3707,note_on,0,0,0,,4,,,76,127
3846,note_off,139,0,0,,4,,,76,127
3846,note_off,0,0,0,,8,,,68,127
3847,note_on,1,0,0,,6,,,66,127
3847,note_on,0,0,0,,3,,,75,127
3986,note_off,139,0,0,,3,,,75,127
3986,note_off,0,0,0,,6,,,66,127
3987,note_on,1,0,0,,4,,,64,127
3987,note_on,0,0,0,,4,,,76,127
4126,note_off,139,0,0,,4,,,76,127
4126,note_off,0,0,0,,4,,,64,127
4127,note_on,1,0,0,,3,,,63,127
4127,note_on,0,0,0,,6,,,78,127
4266,note_off,139,0,0,,6,,,78,127
4266,note_off,0,0,0,,3,,,63,127
4267,note_on,1,0,0,,4,,,64,127
4267,note_on,0,0,0,,8,,,80,127
4406,note_off,139,0,0,,8,,,80,127
4406,note_off,0,0,0,,4,,,64,127
4407,note_on,1,0,0,,12,,,59,127
4407,note_on,0,0,0,,6,,,78,127
4546,note_off,139,0,0,,6,,,78,127
4546,note_off,0,0,0,,12,,,59,127
4547,note_on,1,0,0,,8,,,68,127
4547,note_on,0,0,0,,4,,,76,127
4686,note_off,139,0,0,,4,,,76,127
4686,note_off,0,0,0,,8,,,68,127
4687,note_on,1,0,0,,6,,,66,127
4687,note_on,0,0,0,,3,,,75,127
4826,note_off,139,0,0,,3,,,75,127
4826,note_off,0,0,0,,6,,,66,127
4827,note_on,1,0,0,,4,,,64,127
4827,note_on,0,0,0,,4,,,76,127
4966,note_off,139,0,0,,4,,,76,127
4966,note_off,0,0,0,,4,,,64,127
4967,note_on,1,0,0,,3,,,63,127
4967,note_on,0,0,0,,6,,,78,127
5106,note_off,139,0,0,,6,,,78,127
5106,note_off,0,0,0,,3,,,63,127
5107,note_on,1,0,0,,4,,,64,127
5107,note_on,0,0,0,,8,,,80,127
5247,note_on,140,0,0,,12,,,83,127
5384,note_off,137,0,0,,8,,,80,127
5386,note_off,2,0,0,,4,,,64,127
5387,note_on,1,0,0,,4,,,52,127
5387,note_on,0,0,0,,8,,,80,127
5388,note_off,1,0,0,,12,,,83,127
5527,note_on,139,0,0,,4,,,76,127
5528,note_off,1,0,0,,8,,,80,127
5666,note_off,138,0,0,,4,,,52,127
5667,note_on,1,0,0,,8,,,56,127
5667,note_on,0,0,0,,12,,,71,127
5668,note_off,1,0,0,,4,,,76,127
5807,note_on,139,0,0,,8,,,68,127
5808,note_off,1,0,0,,12,,,71,127
5924,note_off,116,0,0,,8,,,68,127
5947,note_off,23,0,0,,8,,,56,127
5948,note_on,1,0,0,,10,,,57,127
5948,note_on,0,0,0,,1,,,73,127
6088,note_on,140,0,0,,4,,,76,127
6152,note_off,64,0,0,,1,,,73,127
6227,note_off,75,0,0,,10,,,57,127
6228,note_on,1,0,0,,12,,,59,127
6228,note_on,0,0,0,,1,,,73,127
6229,note_off,1,0,0,,4,,,76,127
6368,note_on,139,0,0,,10,,,69,127
6369,note_off,1,0,0,,1,,,73,127
6508,note_on,139,0,0,,12,,,47,127
6508,note_on,0,0,0,,6,,,66,127
6509,note_off,1,0,0,,10,,,69,127
6648,note_on,139,0,0,,3,,,63,127
6649,note_off,1,0,0,,6,,,66,127
6753,note_off,104,0,0,,3,,,63,127
6787,note_off,34,0,0,,12,,,47,127
6787,note_off,0,0,0,,12,,,59,127
6788,note_on,1,0,0,,4,,,52,127
6788,note_on,0,0,0,,8,,,80,127
6927,note_off,139,0,0,,8,,,80,127
6928,note_on,1,0,0,,12,,,83,127
7067,note_off,139,0,0,,12,,,83,127
7067,note_off,0,0,0,,4,,,52,127
7068,note_on,1,0,0,,6,,,54,127
7068,note_on,0,0,0,,8,,,80,127
7207,note_off,139,0,0,,8,,,80,127
7208,note_on,1,0,0,,4,,,76,127
7347,note_off,139,0,0,,4,,,76,127
7347,note_off,0,0,0,,6,,,54,127
7348,note_on,1,0,0,,8,,,56,127
7348,note_on,0,0,0,,12,,,71,127
7487,note_off,139,0,0,,12,,,71,127
7488,note_on,1,0,0,,8,,,68,127
7612,note_off,124,0,0,,8,,,68,127
7627,note_off,15,0,0,,8,,,56,127
7628,note_on,1,0,0,,10,,,57,127
7628,note_on,0,0,0,,1,,,73,127
7767,note_off,139,0,0,,1,,,73,127
7768,note_on,1,0,0,,4,,,76,127
7907,note_off,139,0,0,,4,,,76,127
7907,note_off,0,0,0,,10,,,57,127
7908,note_on,1,0,0,,12,,,59,127
7908,note_on,0,0,0,,1,,,73,127
8047,note_off,139,0,0,,1,,,73,127
8048,note_on,1,0,0,,10,,,69,127
8187,note_off,139,0,0,,10,,,69,127
8188,note_on,1,0,0,,12,,,47,127
8188,note_on,0,0,0,,6,,,66,127
8327,note_off,139,0,0,,6,,,66,127
8328,note_on,1,0,0,,3,,,63,127
8467,note_off,139,0,0,,3,,,63,127
8467,note_off,0,0,0,,12,,,47,127
8467,note_off,0,0,0,,12,,,59,127
8468,note_on,1,0,0,,4,,,64,127
8608,note_on,140,0,0,,8,,,68,127
8745,note_off,137,0,0,,4,,,64,127
8747,note_off,2,0,0,,8,,,68,127
8748,note_on,1,0,0,,4,,,64,127
8887,note_off,139,0,0,,4,,,64,127
8888,note_on,1,0,0,,12,,,59,127
9027,note_off,139,0,0,,12,,,59,127
9028,note_on,1,0,0,,8,,,56,127
9028,note_on,0,0,0,,12,,,83,127
9167,note_off,139,0,0,,8,,,56,127
9168,note_on,1,0,0,,4,,,52,127
9307,note_off,139,0,0,,4,,,52,127
9307,note_off,0,0,0,,12,,,83,127
9308,note_on,1,0,0,,1,,,61,127
9308,note_on,0,0,0,,4,,,76,127
9447,note_off,139,0,0,,1,,,61,127
9448,note_on,1,0,0,,4,,,64,127
9587,note_off,139,0,0,,4,,,64,127
9588,note_on,1,0,0,,1,,,61,127
9727,note_off,139,0,0,,1,,,61,127
9728,note_on,1,0,0,,10,,,57,127
9867,note_off,139,0,0,,10,,,57,127
9867,note_off,0,0,0,,4,,,76,127
9868,note_on,1,0,0,,3,,,51,127
9868,note_on,0,0,0,,6,,,78,127
9960,note_off,92,0,0,,6,,,78,127
9961,note_on,1,0,0,,8,,,80,127
10007,note_off,46,0,0,,8,,,80,127
10007,note_off,0,0,0,,3,,,51,127
10008,note_on,1,0,0,,12,,,47,127
10008,note_on,0,0,0,,6,,,78,127
10054,note_off,46,0,0,,6,,,78,127
10055,note_on,1,0,0,,4,,,76,127
10101,note_off,46,0,0,,4,,,76,127
10102,note_on,1,0,0,,6,,,78,127
10148,note_off,46,0,0,,6,,,78,127
10148,note_off,0,0,0,,12,,,47,127
10149,note_on,1,0,0,,4,,,52,127
10149,note_on,0,0,0,,8,,,80,127
10288,note_off,139,0,0,,4,,,52,127
10289,note_on,1,0,0,,8,,,56,127
10428,note_off,139,0,0,,8,,,56,127
10429,note_on,1,0,0,,4,,,52,127
10568,note_off,139,0,0,,4,,,52,127
10569,note_on,1,0,0,,12,,,47,127
10637,note_off,68,0,0,,8,,,80,127
10708,note_off,71,0,0,,12,,,47,127
10709,note_on,1,0,0,,8,,,44,127
10709,note_on,0,0,0,,12,,,83,127
10848,note_off,139,0,0,,8,,,44,127
10849,note_on,1,0,0,,4,,,40,127
10988,note_off,139,0,0,,4,,,40,127
10988,note_off,0,0,0,,12,,,83,127
10989,note_on,1,0,0,,1,,,49,127
10989,note_on,0,0,0,,4,,,76,127
11128,note_off,139,0,0,,1,,,49,127
11129,note_on,1,0,0,,4,,,52,127
11268,note_off,139,0,0,,4,,,52,127
11269,note_on,1,0,0,,1,,,49,127
11408,note_off,139,0,0,,1,,,49,127
11409,note_on,1,0,0,,10,,,45,127
11548,note_off,139,0,0,,10,,,45,127
11548,note_off,0,0,0,,4,,,76,127
11549,note_on,1,0,0,,3,,,39,127
11549,note_on,0,0,0,,6,,,78,127
11641,note_off,92,0,0,,6,,,78,127
11642,note_on,1,0,0,,8,,,80,127
11688,note_off,46,0,0,,8,,,80,127
11688,note_off,0,0,0,,3,,,39,127
11689,note_on,1,0,0,,12,,,35,127
11689,note_on,0,0,0,,6,,,78,127
11735,note_off,46,0,0,,6,,,78,127
11736,note_on,1,0,0,,4,,,76,127
11782,note_off,46,0,0,,4,,,76,127
11783,note_on,1,0,0,,6,,,78,127
11829,note_off,46,0,0,,6,,,78,127
11829,note_off,0,0,0,,12,,,35,127
11830,note_on,1,0,0,,4,,,40,127
11830,note_on,0,0,0,,4,,,52,127
11830,note_on,0,0,0,,8,,,80,127
11969,note_off,139,0,0,,8,,,80,127
11970,note_on,1,0,0,,12,,,83,127
12109,note_off,139,0,0,,12,,,83,127
12109,note_off,0,0,0,,4,,,52,127
12109,note_off,0,0,0,,4,,,40,127
12110,note_on,1,0,0,,6,,,42,127
12110,note_on,0,0,0,,6,,,54,127
12110,note_on,0,0,0,,3,,,75,127
12249,note_off,139,0,0,,3,,,75,127
12250,note_on,1,0,0,,6,,,78,127
12389,note_off,139,0,0,,6,,,78,127
12389,note_off,0,0,0,,6,,,54,127
12389,note_off,0,0,0,,6,,,42,127
12390,note_on,1,0,0,,8,,,56,127
12390,note_on,0,0,0,,8,,,44,127
12390,note_on,0,0,0,,4,,,76,127
12529,note_off,139,0,0,,4,,,76,127
12530,note_on,1,0,0,,12,,,71,127
12669,note_off,139,0,0,,12,,,71,127
12669,note_off,0,0,0,,8,,,44,127
12669,note_off,0,0,0,,8,,,56,127
12670,note_on,1,0,0,,10,,,45,127
12670,note_on,0,0,0,,10,,,57,127
12670,note_on,0,0,0,,1,,,73,127
12809,note_off,139,0,0,,1,,,73,127
12810,note_on,1,0,0,,10,,,69,127
12949,note_off,139,0,0,,10,,,69,127
12949,note_off,0,0,0,,10,,,57,127
12949,note_off,0,0,0,,10,,,45,127
12950,note_on,1,0,0,,12,,,59,127
12950,note_on,0,0,0,,8,,,68,127
13089,note_off,139,0,0,,8,,,68,127
13090,note_on,1,0,0,,4,,,76,127
13229,note_off,139,0,0,,4,,,76,127
13230,note_on,1,0,0,,12,,,47,127
13230,note_on,0,0,0,,6,,,66,127
13369,note_off,139,0,0,,6,,,66,127
13370,note_on,1,0,0,,3,,,75,127
13469,note_off,99,0,0,,3,,,75,127
13505,note_off,36,0,0,,12,,,59,127
13506,note_off,1,0,0,,12,,,47,127
13510,note_on,4,0,0,,4,,,52,127
13510,note_on,0,0,0,,4,,,40,127
13510,note_on,0,0,0,,8,,,80,127
13649,note_off,139,0,0,,8,,,80,127
13650,note_on,1,0,0,,12,,,83,127
13789,note_off,139,0,0,,12,,,83,127
13789,note_off,0,0,0,,4,,,40,127
13789,note_off,0,0,0,,4,,,52,127
13790,note_on,1,0,0,,6,,,54,127
13790,note_on,0,0,0,,6,,,42,127
13790,note_on,0,0,0,,3,,,75,127
13929,note_off,139,0,0,,3,,,75,127
13930,note_on,1,0,0,,6,,,78,127
14069,note_off,139,0,0,,6,,,78,127
14069,note_off,0,0,0,,6,,,42,127
14069,note_off,0,0,0,,6,,,54,127
14070,note_on,1,0,0,,8,,,44,127
14070,note_on,0,0,0,,8,,,56,127
14070,note_on,0,0,0,,4,,,76,127
14209,note_off,139,0,0,,4,,,76,127
14210,note_on,1,0,0,,12,,,71,127
14349,note_off,139,0,0,,12,,,71,127
14349,note_off,0,0,0,,8,,,56,127
14349,note_off,0,0,0,,8,,,44,127
14350,note_on,1,0,0,,10,,,45,127
14350,note_on,0,0,0,,10,,,57,127
14350,note_on,0,0,0,,1,,,73,127
14489,note_off,139,0,0,,1,,,73,127
14490,note_on,1,0,0,,10,,,69,127
14629,note_off,139,0,0,,10,,,69,127
14629,note_off,0,0,0,,10,,,57,127
14629,note_off,0,0,0,,10,,,45,127
14630,note_on,1,0,0,,12,,,59,127
14630,note_on,0,0,0,,8,,,68,127
14769,note_off,139,0,0,,8,,,68,127
14770,note_on,1,0,0,,4,,,76,127
14909,note_off,139,0,0,,4,,,76,127
14910,note_on,1,0,0,,12,,,47,127
14910,note_on,0,0,0,,6,,,66,127
15049,note_off,139,0,0,,6,,,66,127
15050,note_on,1,0,0,,3,,,75,127
15189,note_off,139,0,0,,3,,,75,127
15189,note_off,0,0,0,,12,,,47,127
15189,note_off,0,0,0,,12,,,59,127
15190,note_on,1,0,0,,4,,,40,127
15190,note_on,0,0,0,,4,,,64,127
15329,note_off,139,0,0,,4,,,64,127
15330,note_on,1,0,0,,12,,,83,127
15469,note_off,139,0,0,,12,,,83,127
15470,note_on,1,0,0,,8,,,80,127
15609,note_off,139,0,0,,8,,,80,127
15610,note_on,1,0,0,,4,,,76,127
15749,note_off,139,0,0,,4,,,76,127
15750,note_on,1,0,0,,12,,,71,127
15889,note_off,139,0,0,,12,,,71,127
15890,note_off,1,0,0,,4,,,40,127
15890,note_on,0,0,0,,8,,,68,127
16029,note_off,139,0,0,,8,,,68,127
16030,note_on,1,0,0,,4,,,64,127
16170,note_on,140,0,0,,12,,,59,127
16309,note_off,139,0,0,,12,,,59,127
16310,note_on,1,0,0,,8,,,56,127
16449,note_off,139,0,0,,8,,,56,127
16450,note_on,1,0,0,,4,,,52,127
16589,note_off,139,0,0,,4,,,52,127
16589,note_off,0,0,0,,4,,,64,127
16590,note_on,1,0,0,,12,,,47,127
16729,note_off,139,0,0,,12,,,47,127
16730,note_on,1,0,0,,8,,,44,127
16869,note_off,139,0,0,,8,,,44,127
16870,note_on,1,0,0,,4,,,40,127
17568,note_off,698,0,0,,4,,,40,127
17568,note_on,0,0,0,,12,,,83,127
17707,note_off,139,0,0,,12,,,83,127
17708,note_on,1,0,0,,10,,,81,127
17708,note_on,0,0,0,,7,,,79,127
17847,note_off,139,0,0,,7,,,79,127
17847,note_off,0,0,0,,10,,,81,127
17848,note_on,1,0,0,,6,,,78,127
17987,note_off,139,0,0,,6,,,78,127
17988,note_on,1,0,0,,4,,,76,127
18127,note_off,139,0,0,,4,,,76,127
18128,note_on,1,0,0,,2,,,74,127
18267,note_off,139,0,0,,2,,,74,127
18268,note_on,1,0,0,,12,,,71,127
18407,note_off,139,0,0,,12,,,71,127
18408,note_on,1,0,0,,10,,,69,127
18408,note_on,0,0,0,,0,,,72,127
18547,note_off,139,0,0,,10,,,69,127
18548,note_on,1,0,0,,6,,,66,127
18687,note_off,139,0,0,,6,,,66,127
18688,note_on,1,0,0,,3,,,63,127
18827,note_off,139,0,0,,3,,,63,127
18828,note_on,1,0,0,,0,,,60,127
18828,note_on,0,0,0,,10,,,81,127
18967,note_off,139,0,0,,0,,,60,127
18968,note_on,1,0,0,,12,,,59,127
19107,note_off,139,0,0,,12,,,59,127
19107,note_off,0,0,0,,0,,,72,127
19108,note_on,1,0,0,,12,,,35,127
19108,note_on,0,0,0,,12,,,71,127
19247,note_off,139,0,0,,10,,,81,127
19248,note_on,1,0,0,,10,,,81,127
19387,note_off,139,0,0,,10,,,81,127
19388,note_on,1,0,0,,7,,,79,127
19527,note_off,139,0,0,,7,,,79,127
19528,note_on,1,0,0,,6,,,78,127
19667,note_off,139,0,0,,6,,,78,127
19668,note_on,1,0,0,,12,,,83,127
19807,note_off,139,0,0,,12,,,83,127
19808,note_on,1,0,0,,10,,,81,127
19947,note_off,139,0,0,,10,,,81,127
19947,note_off,0,0,0,,12,,,71,127
19947,note_off,0,0,0,,12,,,35,127
19948,note_on,1,0,0,,4,,,40,127
19948,note_on,0,0,0,,7,,,79,127
20064,note_off,116,0,0,,7,,,79,127
20087,note_on,23,0,0,,12,,,83,127
20226,note_off,139,0,0,,12,,,83,127
20227,note_on,1,0,0,,10,,,81,127
20227,note_on,0,0,0,,7,,,79,127
20366,note_off,139,0,0,,7,,,79,127
20366,note_off,0,0,0,,10,,,81,127
20367,note_on,1,0,0,,6,,,78,127
20506,note_off,139,0,0,,6,,,78,127
20507,note_on,1,0,0,,4,,,76,127
20646,note_off,139,0,0,,4,,,76,127
20647,note_off,1,0,0,,4,,,40,127
20647,note_on,0,0,0,,2,,,74,127
20786,note_off,139,0,0,,2,,,74,127
20787,note_on,1,0,0,,12,,,71,127
20926,note_off,139,0,0,,12,,,71,127
20927,note_on,1,0,0,,10,,,69,127
20927,note_on,0,0,0,,0,,,72,127
21066,note_off,139,0,0,,10,,,69,127
21067,note_on,1,0,0,,6,,,66,127
21206,note_off,139,0,0,,6,,,66,127
21207,note_on,1,0,0,,3,,,63,127
21346,note_off,139,0,0,,3,,,63,127
21347,note_on,1,0,0,,0,,,60,127
21347,note_on,0,0,0,,10,,,81,127
21486,note_off,139,0,0,,0,,,60,127
21487,note_on,1,0,0,,12,,,59,127
21626,note_off,139,0,0,,12,,,59,127
21626,note_off,0,0,0,,0,,,72,127
21627,note_on,1,0,0,,2,,,38,127
21627,note_on,0,0,0,,2,,,74,127
21766,note_off,139,0,0,,10,,,81,127
21767,note_on,1,0,0,,0,,,84,127
21906,note_off,139,0,0,,0,,,84,127
21907,note_on,1,0,0,,12,,,83,127
22046,note_off,139,0,0,,12,,,83,127
22047,note_on,1,0,0,,10,,,81,127
22186,note_off,139,0,0,,10,,,81,127
22187,note_on,1,0,0,,2,,,86,127
22326,note_off,139,0,0,,2,,,86,127
22327,note_on,1,0,0,,0,,,84,127
22466,note_off,139,0,0,,0,,,84,127
22466,note_off,0,0,0,,2,,,74,127
22466,note_off,0,0,0,,2,,,38,127
22467,note_on,1,0,0,,7,,,43,127
22467,note_on,0,0,0,,7,,,55,127
22467,note_on,0,0,0,,12,,,83,127
22607,note_on,140,0,0,,10,,,81,127
22746,note_off,139,0,0,,10,,,81,127
22747,note_on,1,0,0,,7,,,79,127
22886,note_off,139,0,0,,7,,,79,127
22887,note_on,1,0,0,,6,,,78,127
23026,note_off,139,0,0,,6,,,78,127
23026,note_off,0,0,0,,12,,,83,127
23026,note_off,0,0,0,,7,,,55,127
23026,note_off,0,0,0,,7,,,43,127
23027,note_on,1,0,0,,7,,,43,127
23027,note_on,0,0,0,,7,,,55,127
23027,note_on,0,0,0,,12,,,83,127
23027,note_on,0,0,0,,4,,,76,127
23166,note_off,139,0,0,,4,,,76,127
23167,note_on,1,0,0,,2,,,74,127
23306,note_off,139,0,0,,2,,,74,127
23306,note_off,0,0,0,,12,,,83,127
23306,note_off,0,0,0,,7,,,55,127
23306,note_off,0,0,0,,7,,,43,127
23307,note_on,1,0,0,,10,,,45,127
23307,note_on,0,0,0,,10,,,57,127
23307,note_on,0,0,0,,10,,,81,127
23307,note_on,0,0,0,,1,,,73,127
23446,note_off,139,0,0,,1,,,73,127
23446,note_off,0,0,0,,10,,,81,127
23447,note_on,1,0,0,,7,,,79,127
23447,note_on,0,0,0,,12,,,71,127
23586,note_off,139,0,0,,12,,,71,127
23586,note_off,0,0,0,,7,,,79,127
23587,note_on,1,0,0,,10,,,69,127
23587,note_on,0,0,0,,6,,,78,127
23726,note_off,139,0,0,,6,,,78,127
23726,note_off,0,0,0,,10,,,69,127
23727,note_on,1,0,0,,4,,,76,127
23727,note_on,0,0,0,,7,,,67,127
23866,note_off,139,0,0,,7,,,67,127
23866,note_off,0,0,0,,4,,,76,127
23866,note_off,0,0,0,,10,,,57,127
23866,note_off,0,0,0,,10,,,45,127
23867,note_on,1,0,0,,10,,,45,127
23867,note_on,0,0,0,,10,,,57,127
23867,note_on,0,0,0,,6,,,66,127
23867,note_on,0,0,0,,2,,,74,127
24006,note_off,139,0,0,,2,,,74,127
24006,note_off,0,0,0,,6,,,66,127
24007,note_on,1,0,0,,4,,,64,127
24007,note_on,0,0,0,,1,,,73,127
24146,note_off,139,0,0,,1,,,73,127
24146,note_off,0,0,0,,4,,,64,127
24146,note_off,0,0,0,,10,,,57,127
24146,note_off,0,0,0,,10,,,45,127
24147,note_on,1,0,0,,2,,,38,127
24147,note_on,0,0,0,,2,,,50,127
24147,note_on,0,0,0,,6,,,66,127
24147,note_on,0,0,0,,2,,,74,127
24263,note_off,116,0,0,,2,,,74,127
24286,note_off,23,0,0,,6,,,66,127
24287,note_on,1,0,0,,6,,,78,127
24426,note_off,139,0,0,,6,,,78,127
24427,note_on,1,0,0,,4,,,76,127
24427,note_on,0,0,0,,2,,,74,127
24566,note_off,139,0,0,,2,,,74,127
24566,note_off,0,0,0,,4,,,76,127
24566,note_off,0,0,0,,2,,,50,127
24566,note_off,0,0,0,,2,,,38,127
24567,note_on,1,0,0,,1,,,73,127
24706,note_off,139,0,0,,1,,,73,127
24707,note_on,1,0,0,,12,,,71,127
24846,note_off,139,0,0,,12,,,71,127
24847,note_on,1,0,0,,10,,,69,127
24986,note_off,139,0,0,,10,,,69,127
24987,note_on,1,0,0,,6,,,66,127
25126,note_off,139,0,0,,6,,,66,127
25127,note_on,1,0,0,,4,,,64,127
25127,note_on,0,0,0,,7,,,67,127
25266,note_off,139,0,0,,4,,,64,127
25267,note_on,1,0,0,,1,,,61,127
25406,note_off,139,0,0,,1,,,61,127
25407,note_on,1,0,0,,10,,,57,127
25546,note_off,139,0,0,,10,,,57,127
25547,note_on,1,0,0,,7,,,55,127
25547,note_on,0,0,0,,4,,,76,127
25686,note_off,139,0,0,,7,,,55,127
25687,note_on,1,0,0,,4,,,52,127
25826,note_off,139,0,0,,4,,,52,127
25826,note_off,0,0,0,,7,,,67,127
25827,note_on,1,0,0,,6,,,42,127
25966,note_off,139,0,0,,4,,,76,127
25967,note_on,1,0,0,,4,,,76,127
26106,note_off,139,0,0,,4,,,76,127
26107,note_on,1,0,0,,2,,,74,127
26246,note_off,139,0,0,,2,,,74,127
26247,note_on,1,0,0,,1,,,73,127
26386,note_off,139,0,0,,1,,,73,127
26387,note_on,1,0,0,,6,,,78,127
26526,note_off,139,0,0,,6,,,78,127
26527,note_on,1,0,0,,4,,,76,127
26666,note_off,139,0,0,,4,,,76,127
26666,note_off,0,0,0,,6,,,42,127
26667,note_on,1,0,0,,12,,,47,127
26667,note_on,0,0,0,,2,,,74,127
26791,note_off,124,0,0,,2,,,74,127
26807,note_on,16,0,0,,6,,,78,127
26946,note_off,139,0,0,,6,,,78,127
26947,note_on,1,0,0,,4,,,76,127
26947,note_on,0,0,0,,2,,,74,127
27086,note_off,139,0,0,,2,,,74,127
27086,note_off,0,0,0,,4,,,76,127
27086,note_off,0,0,0,,12,,,47,127
27087,note_on,1,0,0,,1,,,73,127
27226,note_off,139,0,0,,1,,,73,127
27227,note_on,1,0,0,,12,,,71,127
27366,note_off,139,0,0,,12,,,71,127
27367,note_on,1,0,0,,10,,,69,127
27506,note_off,139,0,0,,10,,,69,127
27507,note_on,1,0,0,,6,,,66,127
27646,note_off,139,0,0,,6,,,66,127
27647,note_on,1,0,0,,4,,,64,127
27647,note_on,0,0,0,,7,,,67,127
27786,note_off,139,0,0,,4,,,64,127
27787,note_on,1,0,0,,1,,,61,127
27926,note_off,139,0,0,,1,,,61,127
27927,note_on,1,0,0,,10,,,57,127
28066,note_off,139,0,0,,10,,,57,127
28067,note_on,1,0,0,,7,,,55,127
28067,note_on,0,0,0,,4,,,76,127
28206,note_off,139,0,0,,7,,,55,127
28207,note_on,1,0,0,,4,,,52,127
28346,note_off,139,0,0,,4,,,52,127
28346,note_off,0,0,0,,7,,,67,127
28347,note_on,1,0,0,,10,,,33,127
28347,note_on,0,0,0,,10,,,69,127
28486,note_off,139,0,0,,4,,,76,127
28487,note_on,1,0,0,,7,,,79,127
28626,note_off,139,0,0,,7,,,79,127
28627,note_on,1,0,0,,6,,,78,127
28766,note_off,139,0,0,,6,,,78,127
28767,note_on,1,0,0,,4,,,76,127
28906,note_off,139,0,0,,4,,,76,127
28907,note_on,1,0,0,,10,,,81,127
29046,note_off,139,0,0,,10,,,81,127
29047,note_on,1,0,0,,7,,,79,127
29171,note_off,124,0,0,,10,,,33,127
29186,note_off,15,0,0,,7,,,79,127
29186,note_off,0,0,0,,10,,,69,127
29187,note_on,1,0,0,,2,,,50,127
29187,note_on,0,0,0,,2,,,38,127
29187,note_on,0,0,0,,7,,,79,127
29187,note_on,0,0,0,,10,,,69,127
29326,note_off,139,0,0,,7,,,79,127
29327,note_on,1,0,0,,6,,,78,127
29466,note_off,139,0,0,,6,,,78,127
29467,note_on,1,0,0,,6,,,78,127
29606,note_off,139,0,0,,6,,,78,127
29607,note_on,1,0,0,,4,,,76,127
29746,note_off,139,0,0,,4,,,76,127
29746,note_off,0,0,0,,2,,,38,127
29746,note_off,0,0,0,,2,,,50,127
29747,note_on,1,0,0,,4,,,40,127
29747,note_on,0,0,0,,4,,,52,127
29747,note_on,0,0,0,,6,,,78,127
29886,note_off,139,0,0,,6,,,78,127
29886,note_off,0,0,0,,10,,,69,127
29887,note_on,1,0,0,,12,,,71,127
29887,note_on,0,0,0,,8,,,80,127
30026,note_off,139,0,0,,8,,,80,127
30026,note_off,0,0,0,,12,,,71,127
30026,note_off,0,0,0,,4,,,52,127
30026,note_off,0,0,0,,4,,,40,127
30027,note_on,1,0,0,,10,,,45,127
30027,note_on,0,0,0,,10,,,33,127
30027,note_on,0,0,0,,1,,,73,127
30027,note_on,0,0,0,,10,,,81,127
30166,note_off,139,0,0,,10,,,81,127
30166,note_off,0,0,0,,1,,,73,127
30167,note_on,1,0,0,,8,,,80,127
30167,note_on,0,0,0,,12,,,71,127
30306,note_off,139,0,0,,12,,,71,127
30306,note_off,0,0,0,,8,,,80,127
30306,note_off,0,0,0,,10,,,33,127
30306,note_off,0,0,0,,10,,,45,127
30307,note_on,1,0,0,,12,,,35,127
30307,note_on,0,0,0,,12,,,47,127
30307,note_on,0,0,0,,10,,,81,127
30307,note_on,0,0,0,,1,,,73,127
30446,note_off,139,0,0,,1,,,73,127
30446,note_off,0,0,0,,10,,,81,127
30447,note_on,1,0,0,,3,,,75,127
30447,note_on,0,0,0,,6,,,78,127
30586,note_off,139,0,0,,6,,,78,127
30586,note_off,0,0,0,,3,,,75,127
30586,note_off,0,0,0,,12,,,47,127
30586,note_off,0,0,0,,12,,,35,127
30587,note_on,1,0,0,,4,,,40,127
30587,note_on,0,0,0,,4,,,52,127
30587,note_on,0,0,0,,4,,,76,127
30587,note_on,0,0,0,,8,,,80,127
30726,note_off,139,0,0,,8,,,80,127
30726,note_off,0,0,0,,4,,,76,127
30727,note_on,1,0,0,,3,,,75,127
30727,note_on,0,0,0,,6,,,78,127
30866,note_off,139,0,0,,6,,,78,127
30866,note_off,0,0,0,,3,,,75,127
30866,note_off,0,0,0,,4,,,52,127
30866,note_off,0,0,0,,4,,,40,127
30867,note_on,1,0,0,,6,,,54,127
30867,note_on,0,0,0,,6,,,42,127
30867,note_on,0,0,0,,4,,,76,127
30867,note_on,0,0,0,,8,,,80,127
31006,note_off,139,0,0,,8,,,80,127
31006,note_off,0,0,0,,4,,,76,127
31007,note_on,1,0,0,,1,,,73,127
31007,note_on,0,0,0,,11,,,82,127
31146,note_off,139,0,0,,11,,,82,127
31146,note_off,0,0,0,,1,,,73,127
31146,note_off,0,0,0,,6,,,42,127
31146,note_off,0,0,0,,6,,,54,127
31147,note_on,1,0,0,,12,,,47,127
31147,note_on,0,0,0,,12,,,35,127
31147,note_on,0,0,0,,3,,,75,127
31147,note_on,0,0,0,,12,,,83,127
31286,note_off,139,0,0,,12,,,83,127
31286,note_off,0,0,0,,3,,,75,127
31287,note_on,1,0,0,,11,,,82,127
31287,note_on,0,0,0,,1,,,73,127
31426,note_off,139,0,0,,1,,,73,127
31426,note_off,0,0,0,,11,,,82,127
31426,note_off,0,0,0,,12,,,35,127
31426,note_off,0,0,0,,12,,,47,127
31427,note_on,1,0,0,,1,,,49,127
31427,note_on,0,0,0,,1,,,37,127
31427,note_on,0,0,0,,12,,,83,127
31427,note_on,0,0,0,,3,,,75,127
31566,note_off,139,0,0,,3,,,75,127
31566,note_off,0,0,0,,12,,,83,127
31567,note_on,1,0,0,,5,,,77,127
31567,note_on,0,0,0,,8,,,80,127
31706,note_off,139,0,0,,8,,,80,127
31706,note_off,0,0,0,,5,,,77,127
31706,note_off,0,0,0,,1,,,37,127
31706,note_off,0,0,0,,1,,,49,127
31707,note_on,1,0,0,,6,,,54,127
31707,note_on,0,0,0,,6,,,42,127
31707,note_on,0,0,0,,11,,,82,127
31707,note_on,0,0,0,,6,,,78,127
31846,note_off,139,0,0,,6,,,78,127
31846,note_off,0,0,0,,11,,,82,127
31847,note_on,1,0,0,,8,,,80,127
31986,note_off,139,0,0,,8,,,80,127
31986,note_off,0,0,0,,6,,,42,127
31986,note_off,0,0,0,,6,,,54,127
31987,note_on,1,0,0,,8,,,44,127
31987,note_on,0,0,0,,8,,,56,127
31987,note_on,0,0,0,,8,,,80,127
31987,note_on,0,0,0,,6,,,78,127
32126,note_off,139,0,0,,6,,,78,127
32126,note_off,0,0,0,,8,,,80,127
32127,note_on,1,0,0,,4,,,76,127
32266,note_off,139,0,0,,4,,,76,127
32266,note_off,0,0,0,,8,,,56,127
32266,note_off,0,0,0,,8,,,44,127
32267,note_on,1,0,0,,11,,,46,127
32267,note_on,0,0,0,,11,,,58,127
32267,note_on,0,0,0,,3,,,75,127
32267,note_on,0,0,0,,4,,,76,127
32406,note_off,139,0,0,,4,,,76,127
32406,note_off,0,0,0,,3,,,75,127
32407,note_on,1,0,0,,1,,,73,127
32546,note_off,139,0,0,,1,,,73,127
32546,note_off,0,0,0,,11,,,58,127
32546,note_off,0,0,0,,11,,,46,127
32547,note_on,1,0,0,,12,,,47,127
32547,note_on,0,0,0,,12,,,59,127
32547,note_on,0,0,0,,3,,,75,127
32687,note_on,140,0,0,,6,,,78,127
32751,note_off,64,0,0,,3,,,75,127
32826,note_off,75,0,0,,6,,,78,127
32826,note_off,0,0,0,,12,,,47,127
32827,note_on,1,0,0,,1,,,49,127
32827,note_on,0,0,0,,11,,,70,127
32966,note_off,139,0,0,,11,,,70,127
32967,note_on,1,0,0,,1,,,73,127
33106,note_off,139,0,0,,1,,,73,127
33106,note_off,0,0,0,,1,,,49,127
33107,note_on,1,0,0,,3,,,51,127
33107,note_on,0,0,0,,12,,,71,127
33246,note_off,139,0,0,,12,,,71,127
33247,note_on,1,0,0,,3,,,75,127
33386,note_off,139,0,0,,3,,,75,127
33386,note_off,0,0,0,,3,,,51,127
33386,note_off,0,0,0,,12,,,59,127
33387,note_on,1,0,0,,4,,,52,127
33387,note_on,0,0,0,,1,,,73,127
33526,note_off,139,0,0,,1,,,73,127
33527,note_on,1,0,0,,4,,,76,127
33666,note_off,139,0,0,,4,,,76,127
33666,note_off,0,0,0,,4,,,52,127
33667,note_on,1,0,0,,6,,,54,127
33667,note_on,0,0,0,,3,,,75,127
33667,note_on,0,0,0,,4,,,76,127
33806,note_off,139,0,0,,4,,,76,127
33806,note_off,0,0,0,,3,,,75,127
33807,note_on,1,0,0,,1,,,73,127
33946,note_off,139,0,0,,1,,,73,127
33947,note_on,1,0,0,,6,,,42,127
33947,note_on,0,0,0,,12,,,71,127
34086,note_off,139,0,0,,12,,,71,127
34087,note_on,1,0,0,,11,,,70,127
34226,note_off,139,0,0,,11,,,70,127
34226,note_off,0,0,0,,6,,,42,127
34226,note_off,0,0,0,,6,,,54,127
34227,note_on,1,0,0,,12,,,47,127
34227,note_on,0,0,0,,12,,,71,127
34343,note_off,116,0,0,,12,,,71,127
34366,note_on,23,0,0,,6,,,78,127
34498,note_off,132,0,0,,12,,,47,127
34505,note_off,7,0,0,,6,,,78,127
34506,note_on,1,0,0,,1,,,37,127
34506,note_on,0,0,0,,1,,,49,127
34506,note_on,0,0,0,,4,,,76,127
34506,note_on,0,0,0,,3,,,75,127
34645,note_off,139,0,0,,3,,,75,127
34645,note_off,0,0,0,,4,,,76,127
34646,note_on,1,0,0,,1,,,73,127
34785,note_off,139,0,0,,1,,,73,127
34785,note_off,0,0,0,,1,,,49,127
34785,note_off,0,0,0,,1,,,37,127
34786,note_on,1,0,0,,3,,,39,127
34786,note_on,0,0,0,,3,,,51,127
34786,note_on,0,0,0,,12,,,71,127
34925,note_off,139,0,0,,12,,,71,127
34926,note_on,1,0,0,,11,,,70,127
35065,note_off,139,0,0,,11,,,70,127
35065,note_off,0,0,0,,3,,,51,127
35065,note_off,0,0,0,,3,,,39,127
35066,note_on,1,0,0,,4,,,52,127
35066,note_on,0,0,0,,4,,,40,127
35066,note_on,0,0,0,,8,,,68,127
35197,note_off,131,0,0,,8,,,68,127
35206,note_on,9,0,0,,8,,,80,127
35345,note_off,139,0,0,,8,,,80,127
35345,note_off,0,0,0,,4,,,40,127
35345,note_off,0,0,0,,4,,,52,127
35346,note_on,1,0,0,,6,,,42,127
35346,note_on,0,0,0,,6,,,54,127
35346,note_on,0,0,0,,6,,,78,127
35346,note_on,0,0,0,,4,,,76,127
35485,note_off,139,0,0,,4,,,76,127
35485,note_off,0,0,0,,6,,,78,127
35486,note_on,1,0,0,,3,,,75,127
35625,note_off,139,0,0,,3,,,75,127
35625,note_off,0,0,0,,6,,,54,127
35625,note_off,0,0,0,,6,,,42,127
35626,note_on,1,0,0,,8,,,44,127
35626,note_on,0,0,0,,8,,,56,127
35626,note_on,0,0,0,,1,,,73,127
35765,note_off,139,0,0,,1,,,73,127
35766,note_on,1,0,0,,12,,,83,127
35905,note_off,139,0,0,,8,,,56,127
35905,note_off,0,0,0,,8,,,44,127
35906,note_on,1,0,0,,6,,,54,127
35906,note_on,0,0,0,,6,,,42,127
36045,note_off,139,0,0,,12,,,83,127
36046,note_on,1,0,0,,11,,,82,127
36115,note_off,69,0,0,,11,,,82,127
36116,note_on,1,0,0,,8,,,80,127
36185,note_off,69,0,0,,8,,,80,127
36185,note_off,0,0,0,,6,,,42,127
36185,note_off,0,0,0,,6,,,54,127
36186,note_on,1,0,0,,4,,,52,127
36186,note_on,0,0,0,,4,,,40,127
36186,note_on,0,0,0,,6,,,78,127
36325,note_off,139,0,0,,6,,,78,127
36326,note_on,1,0,0,,11,,,82,127
36465,note_off,139,0,0,,11,,,82,127
36465,note_off,0,0,0,,4,,,40,127
36465,note_off,0,0,0,,4,,,52,127
36466,note_on,1,0,0,,3,,,39,127
36466,note_on,0,0,0,,3,,,51,127
36466,note_on,0,0,0,,12,,,83,127
36605,note_off,139,0,0,,12,,,83,127
36606,note_on,1,0,0,,4,,,76,127
36675,note_off,69,0,0,,4,,,76,127
36676,note_on,1,0,0,,6,,,78,127
36745,note_off,69,0,0,,6,,,78,127
36745,note_off,0,0,0,,3,,,51,127
36745,note_off,0,0,0,,3,,,39,127
36746,note_on,1,0,0,,4,,,40,127
36746,note_on,0,0,0,,4,,,52,127
36746,note_on,0,0,0,,8,,,80,127
36885,note_off,139,0,0,,8,,,80,127
36886,note_on,1,0,0,,4,,,76,127
37025,note_off,139,0,0,,4,,,76,127
37025,note_off,0,0,0,,4,,,52,127
37025,note_off,0,0,0,,4,,,40,127
37026,note_on,1,0,0,,6,,,54,127
37026,note_on,0,0,0,,3,,,75,127
37026,note_on,0,0,0,,4,,,76,127
37165,note_off,139,0,0,,4,,,76,127
37165,note_off,0,0,0,,3,,,75,127
37166,note_on,1,0,0,,1,,,73,127
37305,note_off,139,0,0,,1,,,73,127
37306,note_on,1,0,0,,6,,,42,127
37306,note_on,0,0,0,,12,,,71,127
37306,note_on,0,0,0,,1,,,73,127
37445,note_off,139,0,0,,1,,,73,127
37445,note_off,0,0,0,,12,,,71,127
37446,note_on,1,0,0,,11,,,70,127
37585,note_off,139,0,0,,11,,,70,127
37585,note_off,0,0,0,,6,,,42,127
37585,note_off,0,0,0,,6,,,54,127
37586,note_on,1,0,0,,12,,,47,127
37586,note_on,0,0,0,,12,,,71,127
37702,note_off,116,0,0,,12,,,71,127
37725,note_on,23,0,0,,5,,,77,127
37864,note_off,139,0,0,,12,,,47,127
37865,note_on,1,0,0,,1,,,37,127
37865,note_on,0,0,0,,1,,,49,127
37997,note_off,132,0,0,,5,,,77,127
38005,note_on,8,0,0,,6,,,78,127
38144,note_off,139,0,0,,1,,,49,127
38144,note_off,0,0,0,,1,,,37,127
38145,note_on,1,0,0,,3,,,51,127
38145,note_on,0,0,0,,3,,,39,127
38277,note_off,132,0,0,,6,,,78,127
38285,note_on,8,0,0,,8,,,80,127
38424,note_off,139,0,0,,3,,,39,127
38424,note_off,0,0,0,,3,,,51,127
38425,note_on,1,0,0,,4,,,40,127
38425,note_on,0,0,0,,4,,,52,127
38557,note_off,132,0,0,,8,,,80,127
38565,note_on,8,0,0,,11,,,82,127
38704,note_off,139,0,0,,4,,,52,127
38704,note_off,0,0,0,,4,,,40,127
38705,note_on,1,0,0,,6,,,42,127
38705,note_on,0,0,0,,6,,,54,127
38837,note_off,132,0,0,,11,,,82,127
38845,note_on,8,0,0,,12,,,83,127
38984,note_off,139,0,0,,6,,,54,127
38984,note_off,0,0,0,,6,,,42,127
38985,note_on,1,0,0,,8,,,44,127
38985,note_on,0,0,0,,8,,,56,127
39124,note_off,139,0,0,,12,,,83,127
39125,note_on,1,0,0,,1,,,73,127
39264,note_off,139,0,0,,8,,,56,127
39264,note_off,0,0,0,,8,,,44,127
39265,note_on,1,0,0,,6,,,42,127
39265,note_on,0,0,0,,6,,,54,127
39397,note_off,132,0,0,,1,,,73,127
39405,note_on,8,0,0,,3,,,75,127
39544,note_off,139,0,0,,6,,,54,127
39544,note_off,0,0,0,,6,,,42,127
39545,note_on,1,0,0,,4,,,52,127
39545,note_on,0,0,0,,4,,,40,127
39677,note_off,132,0,0,,3,,,75,127
39685,note_on,8,0,0,,4,,,76,127
39824,note_off,139,0,0,,4,,,40,127
39824,note_off,0,0,0,,4,,,52,127
39825,note_on,1,0,0,,3,,,39,127
39825,note_on,0,0,0,,3,,,51,127
39957,note_off,132,0,0,,4,,,76,127
39965,note_on,8,0,0,,6,,,78,127
40104,note_off,139,0,0,,3,,,51,127
40104,note_off,0,0,0,,3,,,39,127
40105,note_on,1,0,0,,4,,,40,127
40105,note_on,0,0,0,,4,,,52,127
40198,note_off,93,0,0,,6,,,78,127
40245,note_on,47,0,0,,8,,,80,127
40245,note_on,0,0,0,,4,,,76,127
40384,note_off,139,0,0,,4,,,76,127
40384,note_off,0,0,0,,8,,,80,127
40384,note_off,0,0,0,,4,,,52,127
40384,note_off,0,0,0,,4,,,40,127
40385,note_on,1,0,0,,6,,,54,127
40385,note_on,0,0,0,,6,,,78,127
40385,note_on,0,0,0,,3,,,75,127
40524,note_off,139,0,0,,3,,,75,127
40524,note_off,0,0,0,,6,,,78,127
40525,note_on,1,0,0,,1,,,73,127
40525,note_on,0,0,0,,4,,,76,127
40664,note_off,139,0,0,,4,,,76,127
40664,note_off,0,0,0,,1,,,73,127
40664,note_off,0,0,0,,6,,,54,127
40665,note_on,1,0,0,,6,,,42,127
40665,note_on,0,0,0,,3,,,75,127
40665,note_on,0,0,0,,12,,,71,127
40804,note_off,139,0,0,,12,,,71,127
40804,note_off,0,0,0,,3,,,75,127
40805,note_on,1,0,0,,11,,,70,127
40805,note_on,0,0,0,,1,,,73,127
40944,note_off,139,0,0,,1,,,73,127
40944,note_off,0,0,0,,11,,,70,127
40944,note_off,0,0,0,,6,,,42,127
40945,note_on,1,0,0,,12,,,47,127
40945,note_on,0,0,0,,12,,,71,127
41050,note_off,105,0,0,,12,,,71,127
41085,note_on,35,0,0,,3,,,75,127
41224,note_off,139,0,0,,3,,,75,127
41224,note_off,0,0,0,,12,,,47,127
41225,note_on,1,0,0,,4,,,40,127
41225,note_on,0,0,0,,4,,,52,127
41225,note_on,0,0,0,,4,,,76,127
41364,note_off,139,0,0,,4,,,76,127
41365,note_on,1,0,0,,1,,,73,127
41504,note_off,139,0,0,,4,,,52,127
41504,note_off,0,0,0,,4,,,40,127
41505,note_on,1,0,0,,6,,,42,127
41505,note_on,0,0,0,,6,,,54,127
41644,note_off,139,0,0,,1,,,73,127
41645,note_on,1,0,0,,11,,,70,127
41784,note_off,139,0,0,,11,,,70,127
41784,note_off,0,0,0,,6,,,54,127
41784,note_off,0,0,0,,6,,,42,127
41785,note_on,1,0,0,,12,,,47,127
41785,note_on,0,0,0,,12,,,35,127
41785,note_on,0,0,0,,12,,,71,127
41901,note_off,116,0,0,,12,,,71,127
41924,note_on,23,0,0,,3,,,75,127
42063,note_off,139,0,0,,3,,,75,127
42063,note_off,0,0,0,,12,,,35,127
42063,note_off,0,0,0,,12,,,47,127
42064,note_on,1,0,0,,4,,,40,127
42064,note_on,0,0,0,,4,,,52,127
42064,note_on,0,0,0,,4,,,76,127
42203,note_off,139,0,0,,4,,,76,127
42204,note_on,1,0,0,,1,,,73,127
42343,note_off,139,0,0,,4,,,52,127
42343,note_off,0,0,0,,4,,,40,127
42344,note_on,1,0,0,,6,,,54,127
42344,note_on,0,0,0,,6,,,42,127
42466,note_off,122,0,0,,1,,,73,127
42483,note_on,17,0,0,,11,,,70,127
42622,note_off,139,0,0,,11,,,70,127
42622,note_off,0,0,0,,6,,,42,127
42622,note_off,0,0,0,,6,,,54,127
42623,note_on,1,0,0,,12,,,47,127
42623,note_on,0,0,0,,12,,,35,127
42623,note_on,0,0,0,,12,,,71,127
42747,note_off,124,0,0,,12,,,71,127
42763,note_on,16,0,0,,3,,,75,127
42902,note_off,139,0,0,,3,,,75,127
42902,note_off,0,0,0,,12,,,35,127
42902,note_off,0,0,0,,12,,,47,127
42903,note_on,1,0,0,,4,,,40,127
42903,note_on,0,0,0,,4,,,52,127
42903,note_on,0,0,0,,4,,,76,127
43019,note_off,116,0,0,,4,,,76,127
43042,note_on,23,0,0,,1,,,73,127
43181,note_off,139,0,0,,4,,,52,127
43181,note_off,0,0,0,,4,,,40,127
43182,note_on,1,0,0,,6,,,42,127
43182,note_on,0,0,0,,6,,,54,127
43321,note_off,139,0,0,,1,,,73,127
43322,note_on,1,0,0,,11,,,70,127
43461,note_off,139,0,0,,11,,,70,127
43461,note_off,0,0,0,,6,,,54,127
43461,note_off,0,0,0,,6,,,42,127
43462,note_on,1,0,0,,12,,,47,127
43462,note_on,0,0,0,,12,,,35,127
43462,note_on,0,0,0,,12,,,71,127
43593,note_off,131,0,0,,12,,,71,127
43602,note_on,9,0,0,,3,,,75,127
43741,note_off,139,0,0,,3,,,75,127
43741,note_off,0,0,0,,12,,,35,127
43741,note_off,0,0,0,,12,,,47,127
43742,note_on,1,0,0,,4,,,40,127
43742,note_on,0,0,0,,4,,,52,127
43742,note_on,0,0,0,,4,,,76,127
43881,note_off,139,0,0,,4,,,76,127
43882,note_on,1,0,0,,1,,,73,127
44021,note_off,139,0,0,,4,,,52,127
44021,note_off,0,0,0,,4,,,40,127
44022,note_on,1,0,0,,6,,,42,127
44022,note_on,0,0,0,,6,,,54,127
44161,note_off,139,0,0,,1,,,73,127
44162,note_on,1,0,0,,11,,,70,127
44301,note_off,139,0,0,,11,,,70,127
44301,note_off,0,0,0,,6,,,54,127
44301,note_off,0,0,0,,6,,,42,127
44302,note_on,1,0,0,,12,,,47,127
44302,note_on,0,0,0,,12,,,35,127
44302,note_on,0,0,0,,11,,,70,127
44581,note_off,279,0,0,,11,,,70,127
44582,note_on,1,0,0,,12,,,71,127
45140,note_off,558,0,0,,12,,,71,127
45140,note_off,0,0,0,,12,,,35,127
45140,note_off,0,0,0,,12,,,47,127
45141,note_on,1,0,0,,12,,,47,127
45281,note_on,140,0,0,,6,,,78,127
45420,note_off,139,0,0,,6,,,78,127
45421,note_on,1,0,0,,4,,,76,127
45421,note_on,0,0,0,,3,,,75,127
45560,note_off,139,0,0,,3,,,75,127
45560,note_off,0,0,0,,4,,,76,127
45561,note_on,1,0,0,,1,,,73,127
45700,note_off,139,0,0,,1,,,73,127
45701,note_on,1,0,0,,12,,,71,127
45840,note_off,139,0,0,,12,,,71,127
45841,note_on,1,0,0,,11,,,70,127
45980,note_off,139,0,0,,11,,,70,127
45980,note_off,0,0,0,,12,,,47,127
45981,note_on,1,0,0,,12,,,71,127
46120,note_off,139,0,0,,12,,,71,127
46121,note_on,1,0,0,,6,,,66,127
46121,note_on,0,0,0,,11,,,70,127
46260,note_off,139,0,0,,11,,,70,127
46260,note_off,0,0,0,,6,,,66,127
46261,note_on,1,0,0,,3,,,63,127
46261,note_on,0,0,0,,12,,,71,127
46400,note_off,139,0,0,,12,,,71,127
46400,note_off,0,0,0,,3,,,63,127
46401,note_on,1,0,0,,1,,,61,127
46401,note_on,0,0,0,,1,,,73,127
46540,note_off,139,0,0,,1,,,73,127
46540,note_off,0,0,0,,1,,,61,127
46541,note_on,1,0,0,,12,,,59,127
46541,note_on,0,0,0,,3,,,75,127
46680,note_off,139,0,0,,3,,,75,127
46680,note_off,0,0,0,,12,,,59,127
46681,note_on,1,0,0,,11,,,58,127
46681,note_on,0,0,0,,4,,,76,127
46820,note_off,139,0,0,,4,,,76,127
46820,note_off,0,0,0,,11,,,58,127
46821,note_on,1,0,0,,12,,,59,127
46821,note_on,0,0,0,,3,,,75,127
46952,note_off,131,0,0,,3,,,75,127
46961,note_on,9,0,0,,6,,,78,127
47100,note_off,139,0,0,,6,,,78,127
47100,note_off,0,0,0,,12,,,59,127
47101,note_on,1,0,0,,12,,,47,127
47101,note_on,0,0,0,,4,,,76,127
47101,note_on,0,0,0,,3,,,75,127
47240,note_off,139,0,0,,3,,,75,127
47240,note_off,0,0,0,,4,,,76,127
47241,note_on,1,0,0,,1,,,73,127
47380,note_off,139,0,0,,1,,,73,127
47381,note_on,1,0,0,,12,,,71,127
47520,note_off,139,0,0,,12,,,71,127
47521,note_on,1,0,0,,11,,,70,127
47660,note_off,139,0,0,,11,,,70,127
47660,note_off,0,0,0,,12,,,47,127
47661,note_on,1,0,0,,12,,,71,127
47800,note_off,139,0,0,,12,,,71,127
47801,note_on,1,0,0,,6,,,66,127
47801,note_on,0,0,0,,11,,,70,127
47940,note_off,139,0,0,,11,,,70,127
47940,note_off,0,0,0,,6,,,66,127
47941,note_on,1,0,0,,3,,,63,127
47941,note_on,0,0,0,,12,,,71,127
48080,note_off,139,0,0,,12,,,71,127
48080,note_off,0,0,0,,3,,,63,127
48081,note_on,1,0,0,,1,,,61,127
48081,note_on,0,0,0,,1,,,73,127
48220,note_off,139,0,0,,1,,,73,127
48220,note_off,0,0,0,,1,,,61,127
48221,note_on,1,0,0,,12,,,59,127
48221,note_on,0,0,0,,3,,,75,127
48360,note_off,139,0,0,,3,,,75,127
48360,note_off,0,0,0,,12,,,59,127
48361,note_on,1,0,0,,11,,,58,127
48361,note_on,0,0,0,,4,,,76,127
48500,note_off,139,0,0,,4,,,76,127
48500,note_off,0,0,0,,11,,,58,127
48501,note_on,1,0,0,,12,,,59,127
48501,note_on,0,0,0,,3,,,75,127
48632,note_off,131,0,0,,3,,,75,127
48641,note_on,9,0,0,,6,,,78,127
48780,note_off,139,0,0,,6,,,78,127
48781,note_on,1,0,0,,12,,,47,127
48781,note_on,0,0,0,,4,,,76,127
48781,note_on,0,0,0,,3,,,75,127
48920,note_off,139,0,0,,3,,,75,127
48920,note_off,0,0,0,,4,,,76,127
48921,note_on,1,0,0,,1,,,73,127
49060,note_off,139,0,0,,1,,,73,127
49060,note_off,0,0,0,,12,,,47,127
49060,note_off,0,0,0,,12,,,59,127
49061,note_on,1,0,0,,12,,,59,127
49061,note_on,0,0,0,,12,,,71,127
49200,note_off,139,0,0,,12,,,71,127
49201,note_on,1,0,0,,10,,,69,127
49340,note_off,139,0,0,,10,,,69,127
49340,note_off,0,0,0,,12,,,59,127
49341,note_on,1,0,0,,0,,,60,127
49341,note_on,0,0,0,,8,,,68,127
49480,note_off,139,0,0,,8,,,68,127
49481,note_on,1,0,0,,10,,,81,127
49620,note_off,139,0,0,,10,,,81,127
49620,note_off,0,0,0,,0,,,60,127
49621,note_on,1,0,0,,8,,,56,127
49621,note_on,0,0,0,,8,,,80,127
49760,note_off,139,0,0,,8,,,80,127
49761,note_on,1,0,0,,6,,,78,127
49900,note_off,139,0,0,,6,,,78,127
49900,note_off,0,0,0,,8,,,56,127
49901,note_on,1,0,0,,0,,,60,127
49901,note_on,0,0,0,,4,,,76,127
50040,note_off,139,0,0,,4,,,76,127
50041,note_on,1,0,0,,3,,,75,127
50180,note_off,139,0,0,,3,,,75,127
50180,note_off,0,0,0,,0,,,60,127
50181,note_on,1,0,0,,1,,,61,127
50181,note_on,0,0,0,,4,,,76,127
50297,note_off,116,0,0,,4,,,76,127
50320,note_on,23,0,0,,8,,,80,127
50459,note_off,139,0,0,,8,,,80,127
50460,note_on,1,0,0,,6,,,78,127
50460,note_on,0,0,0,,4,,,76,127
50599,note_off,139,0,0,,4,,,76,127
50599,note_off,0,0,0,,6,,,78,127
50600,note_on,1,0,0,,3,,,75,127
50739,note_off,139,0,0,,3,,,75,127
50740,note_on,1,0,0,,1,,,73,127
50879,note_off,139,0,0,,1,,,73,127
50880,note_on,1,0,0,,0,,,72,127
51019,note_off,139,0,0,,0,,,72,127
51019,note_off,0,0,0,,1,,,61,127
51020,note_on,1,0,0,,1,,,73,127
51159,note_off,139,0,0,,1,,,73,127
51160,note_on,1,0,0,,8,,,68,127
51160,note_on,0,0,0,,0,,,72,127
51299,note_off,139,0,0,,0,,,72,127
51299,note_off,0,0,0,,8,,,68,127
51300,note_on,1,0,0,,4,,,64,127
51300,note_on,0,0,0,,1,,,73,127
51439,note_off,139,0,0,,1,,,73,127
51439,note_off,0,0,0,,4,,,64,127
51440,note_on,1,0,0,,3,,,63,127
51440,note_on,0,0,0,,3,,,75,127
51579,note_off,139,0,0,,3,,,75,127
51579,note_off,0,0,0,,3,,,63,127
51580,note_on,1,0,0,,1,,,61,127
51580,note_on,0,0,0,,4,,,76,127
51719,note_off,139,0,0,,4,,,76,127
51719,note_off,0,0,0,,1,,,61,127
51720,note_on,1,0,0,,0,,,60,127
51720,note_on,0,0,0,,6,,,78,127
51859,note_off,139,0,0,,6,,,78,127
51859,note_off,0,0,0,,0,,,60,127
51860,note_on,1,0,0,,1,,,61,127
51860,note_on,0,0,0,,4,,,76,127
51991,note_off,131,0,0,,4,,,76,127
52000,note_on,9,0,0,,8,,,80,127
52139,note_off,139,0,0,,8,,,80,127
52140,note_on,1,0,0,,1,,,49,127
52140,note_on,0,0,0,,6,,,78,127
52140,note_on,0,0,0,,4,,,76,127
52279,note_off,139,0,0,,4,,,76,127
52279,note_off,0,0,0,,6,,,78,127
52280,note_on,1,0,0,,3,,,75,127
52419,note_off,139,0,0,,3,,,75,127
52419,note_off,0,0,0,,1,,,49,127
52419,note_off,0,0,0,,1,,,61,127
52420,note_on,1,0,0,,1,,,61,127
52420,note_on,0,0,0,,1,,,73,127
52559,note_off,139,0,0,,1,,,73,127
52560,note_on,1,0,0,,12,,,71,127
52699,note_off,139,0,0,,12,,,71,127
52699,note_off,0,0,0,,1,,,61,127
52700,note_on,1,0,0,,2,,,62,127
52700,note_on,0,0,0,,11,,,70,127
52839,note_off,139,0,0,,11,,,70,127
52840,note_on,1,0,0,,12,,,83,127
52979,note_off,139,0,0,,12,,,83,127
52980,note_on,1,0,0,,2,,,50,127
52980,note_on,0,0,0,,11,,,82,127
53119,note_off,139,0,0,,11,,,82,127
53120,note_on,1,0,0,,8,,,80,127
53259,note_off,139,0,0,,8,,,80,127
53259,note_off,0,0,0,,2,,,50,127
53259,note_off,0,0,0,,2,,,62,127
53260,note_on,1,0,0,,2,,,62,127
53260,note_on,0,0,0,,7,,,79,127
53399,note_off,139,0,0,,7,,,79,127
53400,note_on,1,0,0,,5,,,77,127
53539,note_off,139,0,0,,5,,,77,127
53539,note_off,0,0,0,,2,,,62,127
53540,note_on,1,0,0,,3,,,63,127
53540,note_on,0,0,0,,7,,,79,127
53656,note_off,116,0,0,,7,,,79,127
53705,note_on,49,0,0,,11,,,82,127
53844,note_off,139,0,0,,11,,,82,127
53845,note_on,1,0,0,,8,,,80,127
53845,note_on,0,0,0,,7,,,79,127
53984,note_off,139,0,0,,7,,,79,127
53984,note_off,0,0,0,,8,,,80,127
53985,note_on,1,0,0,,5,,,77,127
54124,note_off,139,0,0,,5,,,77,127
54125,note_on,1,0,0,,3,,,75,127
54264,note_off,139,0,0,,3,,,75,127
54265,note_on,1,0,0,,2,,,74,127
54378,note_off,113,0,0,,3,,,63,127
54404,note_off,26,0,0,,2,,,74,127
54405,note_on,1,0,0,,3,,,75,127
54544,note_off,139,0,0,,3,,,75,127
54545,note_on,1,0,0,,11,,,70,127
54545,note_on,0,0,0,,2,,,74,127
54684,note_off,139,0,0,,2,,,74,127
54684,note_off,0,0,0,,11,,,70,127
54685,note_on,1,0,0,,7,,,67,127
54685,note_on,0,0,0,,3,,,75,127
54824,note_off,139,0,0,,3,,,75,127
54824,note_off,0,0,0,,7,,,67,127
54825,note_on,1,0,0,,5,,,65,127
54825,note_on,0,0,0,,5,,,77,127
54964,note_off,139,0,0,,5,,,77,127
54964,note_off,0,0,0,,5,,,65,127
54965,note_on,1,0,0,,3,,,63,127
54965,note_on,0,0,0,,7,,,79,127
55104,note_off,139,0,0,,7,,,79,127
55104,note_off,0,0,0,,3,,,63,127
55105,note_on,1,0,0,,2,,,62,127
55105,note_on,0,0,0,,8,,,80,127
55244,note_off,139,0,0,,8,,,80,127
55244,note_off,0,0,0,,2,,,62,127
55245,note_on,1,0,0,,3,,,63,127
55245,note_on,0,0,0,,7,,,79,127
55332,note_off,87,0,0,,7,,,79,127
55384,note_on,52,0,0,,11,,,82,127
55523,note_off,139,0,0,,11,,,82,127
55523,note_off,0,0,0,,3,,,63,127
55524,note_on,1,0,0,,3,,,51,127
55524,note_on,0,0,0,,8,,,80,127
55524,note_on,0,0,0,,7,,,79,127
55663,note_off,139,0,0,,7,,,79,127
55663,note_off,0,0,0,,8,,,80,127
55664,note_on,1,0,0,,5,,,77,127
55803,note_off,139,0,0,,5,,,77,127
55804,note_on,1,0,0,,3,,,75,127
55943,note_off,139,0,0,,3,,,75,127
55944,note_on,1,0,0,,1,,,73,127
56083,note_off,139,0,0,,1,,,73,127
56083,note_off,0,0,0,,3,,,51,127
56084,note_on,1,0,0,,11,,,70,127
56223,note_off,139,0,0,,11,,,70,127
56224,note_on,1,0,0,,8,,,68,127
56224,note_on,0,0,0,,12,,,71,127
56363,note_off,139,0,0,,8,,,68,127
56364,note_on,1,0,0,,5,,,65,127
56503,note_off,139,0,0,,5,,,65,127
56504,note_on,1,0,0,,2,,,62,127
56643,note_off,139,0,0,,2,,,62,127
56644,note_on,1,0,0,,12,,,59,127
56644,note_on,0,0,0,,8,,,80,127
56783,note_off,139,0,0,,12,,,59,127
56784,note_on,1,0,0,,8,,,56,127
56923,note_off,139,0,0,,8,,,56,127
56923,note_off,0,0,0,,12,,,71,127
56924,note_on,1,0,0,,11,,,34,127
57063,note_off,139,0,0,,8,,,80,127
57064,note_on,1,0,0,,8,,,80,127
57203,note_off,139,0,0,,8,,,80,127
57204,note_on,1,0,0,,6,,,78,127
57343,note_off,139,0,0,,6,,,78,127
57344,note_on,1,0,0,,5,,,77,127
57483,note_off,139,0,0,,5,,,77,127
57484,note_on,1,0,0,,11,,,82,127
57623,note_off,139,0,0,,11,,,82,127
57624,note_on,1,0,0,,8,,,80,127
57763,note_off,139,0,0,,8,,,80,127
57763,note_off,0,0,0,,11,,,34,127
57764,note_on,1,0,0,,3,,,39,127
57764,note_on,0,0,0,,6,,,78,127
57888,note_off,124,0,0,,6,,,78,127
57921,note_on,33,0,0,,11,,,82,127
58060,note_off,139,0,0,,11,,,82,127
58061,note_on,1,0,0,,6,,,78,127
58061,note_on,0,0,0,,8,,,80,127
58200,note_off,139,0,0,,8,,,80,127
58200,note_off,0,0,0,,6,,,78,127
58201,note_on,1,0,0,,5,,,77,127
58340,note_off,139,0,0,,5,,,77,127
58341,note_on,1,0,0,,3,,,75,127
58480,note_off,139,0,0,,3,,,75,127
58481,note_on,1,0,0,,1,,,73,127
58602,note_off,121,0,0,,3,,,39,127
58619,note_off,17,0,0,,1,,,73,127
58620,note_on,1,0,0,,11,,,70,127
58759,note_off,139,0,0,,11,,,70,127
58760,note_on,1,0,0,,12,,,71,127
58760,note_on,0,0,0,,8,,,68,127
58899,note_off,139,0,0,,8,,,68,127
58900,note_on,1,0,0,,5,,,65,127
59039,note_off,139,0,0,,5,,,65,127
59040,note_on,1,0,0,,2,,,62,127
59179,note_off,139,0,0,,2,,,62,127
59180,note_on,1,0,0,,12,,,83,127
59180,note_on,0,0,0,,12,,,59,127
59319,note_off,139,0,0,,12,,,59,127
59320,note_on,1,0,0,,8,,,56,127
59459,note_off,139,0,0,,8,,,56,127
59459,note_off,0,0,0,,12,,,71,127
59460,note_on,1,0,0,,1,,,73,127
59460,note_on,0,0,0,,1,,,37,127
59599,note_off,139,0,0,,12,,,83,127
59600,note_on,1,0,0,,12,,,83,127
59739,note_off,139,0,0,,12,,,83,127
59740,note_on,1,0,0,,11,,,82,127
59879,note_off,139,0,0,,11,,,82,127
59880,note_on,1,0,0,,8,,,80,127
60019,note_off,139,0,0,,8,,,80,127
60020,note_on,1,0,0,,1,,,85,127
60159,note_off,139,0,0,,1,,,85,127
60160,note_on,1,0,0,,12,,,83,127
60299,note_off,139,0,0,,12,,,83,127
60299,note_off,0,0,0,,1,,,37,127
60299,note_off,0,0,0,,1,,,73,127
60300,note_on,1,0,0,,11,,,82,127
60300,note_on,0,0,0,,6,,,42,127
60440,note_on,140,0,0,,7,,,79,127
60579,note_off,139,0,0,,7,,,79,127
60580,note_on,1,0,0,,6,,,78,127
60719,note_off,139,0,0,,6,,,78,127
60720,note_on,1,0,0,,4,,,76,127
60859,note_off,139,0,0,,4,,,76,127
60860,note_on,1,0,0,,2,,,74,127
60999,note_off,139,0,0,,2,,,74,127
61000,note_on,1,0,0,,1,,,73,127
61065,note_off,65,0,0,,11,,,82,127
61124,note_off,59,0,0,,1,,,73,127
61139,note_off,15,0,0,,6,,,42,127
61140,note_on,1,0,0,,12,,,83,127
61140,note_on,0,0,0,,2,,,74,127
61140,note_on,0,0,0,,2,,,62,127
61140,note_on,0,0,0,,6,,,54,127
61279,note_off,139,0,0,,2,,,74,127
61279,note_off,0,0,0,,12,,,83,127
61280,note_on,1,0,0,,1,,,73,127
61280,note_on,0,0,0,,10,,,81,127
61419,note_off,139,0,0,,10,,,81,127
61419,note_off,0,0,0,,1,,,73,127
61419,note_off,0,0,0,,2,,,62,127
61420,note_on,1,0,0,,7,,,79,127
61420,note_on,0,0,0,,12,,,71,127
61420,note_on,0,0,0,,4,,,64,127
61559,note_off,139,0,0,,7,,,79,127
61560,note_on,1,0,0,,6,,,78,127
61699,note_off,139,0,0,,4,,,64,127
61700,note_on,1,0,0,,7,,,67,127
61839,note_off,139,0,0,,6,,,78,127
61840,note_on,1,0,0,,4,,,76,127
61979,note_off,139,0,0,,4,,,76,127
61979,note_off,0,0,0,,7,,,67,127
61979,note_off,0,0,0,,6,,,54,127
61980,note_on,1,0,0,,6,,,78,127
61980,note_on,0,0,0,,6,,,54,127
61980,note_on,0,0,0,,6,,,66,127
62119,note_off,139,0,0,,6,,,66,127
62119,note_off,0,0,0,,12,,,71,127
62120,note_on,1,0,0,,11,,,70,127
62120,note_on,0,0,0,,4,,,64,127
62259,note_off,139,0,0,,4,,,64,127
62259,note_off,0,0,0,,11,,,70,127
62260,note_on,1,0,0,,12,,,71,127
62260,note_on,0,0,0,,2,,,62,127
62399,note_off,139,0,0,,2,,,62,127
62399,note_off,0,0,0,,12,,,71,127
62400,note_on,1,0,0,,1,,,73,127
62400,note_on,0,0,0,,1,,,61,127
62539,note_off,139,0,0,,1,,,61,127
62539,note_off,0,0,0,,1,,,73,127
62540,note_on,1,0,0,,2,,,74,127
62540,note_on,0,0,0,,12,,,59,127
62679,note_off,139,0,0,,12,,,59,127
62679,note_off,0,0,0,,2,,,74,127
62680,note_on,1,0,0,,4,,,76,127
62680,note_on,0,0,0,,11,,,58,127
62819,note_off,139,0,0,,11,,,58,127
62819,note_off,0,0,0,,4,,,76,127
62819,note_off,0,0,0,,6,,,54,127
62820,note_on,1,0,0,,2,,,74,127
62820,note_on,0,0,0,,12,,,59,127
62959,note_off,139,0,0,,12,,,59,127
62959,note_off,0,0,0,,2,,,74,127
62960,note_on,1,0,0,,1,,,73,127
62960,note_on,0,0,0,,10,,,57,127
63099,note_off,139,0,0,,10,,,57,127
63099,note_off,0,0,0,,1,,,73,127
63099,note_off,0,0,0,,6,,,78,127
63100,note_on,1,0,0,,12,,,71,127
63100,note_on,0,0,0,,7,,,55,127
63240,note_on,140,0,0,,1,,,73,127
63379,note_off,139,0,0,,1,,,73,127
63380,note_on,1,0,0,,2,,,74,127
63519,note_off,139,0,0,,2,,,74,127
63520,note_on,1,0,0,,4,,,76,127
63659,note_off,139,0,0,,4,,,76,127
63659,note_off,0,0,0,,7,,,55,127
63659,note_off,0,0,0,,12,,,71,127
63660,note_on,1,0,0,,6,,,78,127
63660,note_on,0,0,0,,6,,,54,127
63799,note_off,139,0,0,,6,,,78,127
63800,note_on,1,0,0,,12,,,83,127
63939,note_off,139,0,0,,12,,,83,127
63940,note_on,1,0,0,,11,,,82,127
64080,note_on,140,0,0,,7,,,79,127
64219,note_off,139,0,0,,7,,,79,127
64220,note_on,1,0,0,,6,,,78,127
64359,note_off,139,0,0,,6,,,78,127
64359,note_off,0,0,0,,11,,,82,127
64360,note_on,1,0,0,,4,,,76,127
64484,note_off,124,0,0,,4,,,76,127
64499,note_off,15,0,0,,6,,,54,127
64500,note_on,1,0,0,,2,,,74,127
64500,note_on,0,0,0,,12,,,83,127
64500,note_on,0,0,0,,2,,,62,127
64500,note_on,0,0,0,,6,,,54,127
64639,note_off,139,0,0,,12,,,83,127
64639,note_off,0,0,0,,2,,,74,127
64640,note_on,1,0,0,,10,,,81,127
64640,note_on,0,0,0,,1,,,73,127
64779,note_off,139,0,0,,1,,,73,127
64779,note_off,0,0,0,,10,,,81,127
64779,note_off,0,0,0,,2,,,62,127
64780,note_on,1,0,0,,7,,,79,127
64780,note_on,0,0,0,,12,,,71,127
64780,note_on,0,0,0,,4,,,64,127
64919,note_off,139,0,0,,7,,,79,127
64920,note_on,1,0,0,,6,,,78,127
65059,note_off,139,0,0,,4,,,64,127
65060,note_on,1,0,0,,7,,,67,127
65199,note_off,139,0,0,,6,,,78,127
65200,note_on,1,0,0,,4,,,76,127
65339,note_off,139,0,0,,4,,,76,127
65339,note_off,0,0,0,,7,,,67,127
65339,note_off,0,0,0,,6,,,54,127
65340,note_on,1,0,0,,6,,,78,127
65340,note_on,0,0,0,,6,,,66,127
65340,note_on,0,0,0,,6,,,54,127
65479,note_off,139,0,0,,6,,,66,127
65479,note_off,0,0,0,,12,,,71,127
65480,note_on,1,0,0,,11,,,70,127
65480,note_on,0,0,0,,4,,,64,127
65619,note_off,139,0,0,,4,,,64,127
65619,note_off,0,0,0,,11,,,70,127
65620,note_on,1,0,0,,12,,,71,127
65620,note_on,0,0,0,,2,,,62,127
65759,note_off,139,0,0,,2,,,62,127
65759,note_off,0,0,0,,12,,,71,127
65760,note_on,1,0,0,,1,,,73,127
65760,note_on,0,0,0,,1,,,61,127
65899,note_off,139,0,0,,1,,,61,127
65899,note_off,0,0,0,,1,,,73,127
65900,note_on,1,0,0,,2,,,74,127
65900,note_on,0,0,0,,12,,,59,127
66039,note_off,139,0,0,,12,,,59,127
66039,note_off,0,0,0,,2,,,74,127
66040,note_on,1,0,0,,4,,,76,127
66040,note_on,0,0,0,,11,,,58,127
66179,note_off,139,0,0,,11,,,58,127
66179,note_off,0,0,0,,4,,,76,127
66179,note_off,0,0,0,,6,,,54,127
66180,note_on,1,0,0,,2,,,74,127
66180,note_on,0,0,0,,12,,,59,127
66319,note_off,139,0,0,,2,,,74,127
66320,note_on,1,0,0,,1,,,73,127
66320,note_on,0,0,0,,10,,,57,127
66459,note_off,139,0,0,,10,,,57,127
66459,note_off,0,0,0,,1,,,73,127
66459,note_off,0,0,0,,6,,,78,127
66460,note_on,1,0,0,,12,,,71,127
66460,note_on,0,0,0,,7,,,55,127
66600,note_on,140,0,0,,1,,,73,127
66739,note_off,139,0,0,,1,,,73,127
66740,note_on,1,0,0,,2,,,74,127
66879,note_off,139,0,0,,2,,,74,127
66880,note_on,1,0,0,,4,,,76,127
67019,note_off,139,0,0,,4,,,76,127
67019,note_off,0,0,0,,7,,,55,127
67019,note_off,0,0,0,,12,,,71,127
67019,note_off,0,0,0,,12,,,59,127
67020,note_on,1,0,0,,6,,,78,127
67020,note_on,0,0,0,,6,,,54,127
67136,note_off,116,0,0,,6,,,78,127
67159,note_on,23,0,0,,10,,,81,127
67298,note_off,139,0,0,,10,,,81,127
67298,note_off,0,0,0,,6,,,54,127
67299,note_on,1,0,0,,3,,,75,127
67299,note_on,0,0,0,,12,,,59,127
67439,note_on,140,0,0,,10,,,57,127
67485,note_off,46,0,0,,3,,,75,127
67486,note_on,1,0,0,,4,,,76,127
67532,note_off,46,0,0,,4,,,76,127
67533,note_on,1,0,0,,3,,,75,127
67579,note_off,46,0,0,,3,,,75,127
67579,note_off,0,0,0,,10,,,57,127
67580,note_on,1,0,0,,4,,,76,127
67580,note_on,0,0,0,,8,,,56,127
67626,note_off,46,0,0,,4,,,76,127
67627,note_on,1,0,0,,3,,,75,127
67673,note_off,46,0,0,,3,,,75,127
67674,note_on,1,0,0,,4,,,76,127
67720,note_off,46,0,0,,4,,,76,127
67720,note_off,0,0,0,,8,,,56,127
67721,note_on,1,0,0,,3,,,75,127
67721,note_on,0,0,0,,6,,,54,127
67767,note_off,46,0,0,,3,,,75,127
67768,note_on,1,0,0,,1,,,73,127
67814,note_off,46,0,0,,1,,,73,127
67815,note_on,1,0,0,,3,,,75,127
67861,note_off,46,0,0,,3,,,75,127
67861,note_off,0,0,0,,6,,,54,127
67861,note_off,0,0,0,,12,,,59,127
67862,note_on,1,0,0,,4,,,76,127
67862,note_on,0,0,0,,4,,,52,127
68001,note_off,139,0,0,,4,,,76,127
68002,note_on,1,0,0,,6,,,78,127
68002,note_on,0,0,0,,4,,,64,127
68141,note_off,139,0,0,,6,,,78,127
68142,note_on,1,0,0,,8,,,80,127
68281,note_off,139,0,0,,4,,,64,127
68282,note_on,1,0,0,,2,,,62,127
68328,note_off,46,0,0,,8,,,80,127
68329,note_on,1,0,0,,10,,,81,127
68375,note_off,46,0,0,,10,,,81,127
68376,note_on,1,0,0,,8,,,80,127
68422,note_off,46,0,0,,8,,,80,127
68422,note_off,0,0,0,,2,,,62,127
68423,note_on,1,0,0,,10,,,81,127
68423,note_on,0,0,0,,1,,,61,127
68469,note_off,46,0,0,,10,,,81,127
68470,note_on,1,0,0,,8,,,80,127
68516,note_off,46,0,0,,8,,,80,127
68517,note_on,1,0,0,,10,,,81,127
68563,note_off,46,0,0,,10,,,81,127
68563,note_off,0,0,0,,1,,,61,127
68564,note_on,1,0,0,,8,,,80,127
68564,note_on,0,0,0,,12,,,59,127
68610,note_off,46,0,0,,8,,,80,127
68611,note_on,1,0,0,,6,,,78,127
68657,note_off,46,0,0,,6,,,78,127
68658,note_on,1,0,0,,8,,,80,127
68704,note_off,46,0,0,,8,,,80,127
68704,note_off,0,0,0,,12,,,59,127
68704,note_off,0,0,0,,4,,,52,127
68705,note_on,1,0,0,,10,,,81,127
68705,note_on,0,0,0,,10,,,57,127
68844,note_off,139,0,0,,10,,,81,127
68845,note_on,1,0,0,,1,,,85,127
68845,note_on,0,0,0,,10,,,69,127
68984,note_off,139,0,0,,10,,,69,127
68984,note_off,0,0,0,,1,,,85,127
68984,note_off,0,0,0,,10,,,57,127
68985,note_on,1,0,0,,3,,,87,127
68985,note_on,0,0,0,,12,,,59,127
68985,note_on,0,0,0,,12,,,71,127
69124,note_off,139,0,0,,12,,,71,127
69125,note_on,1,0,0,,10,,,69,127
69171,note_off,46,0,0,,3,,,87,127
69172,note_on,1,0,0,,4,,,88,127
69218,note_off,46,0,0,,4,,,88,127
69219,note_on,1,0,0,,3,,,87,127
69265,note_off,46,0,0,,3,,,87,127
69265,note_off,0,0,0,,10,,,69,127
69266,note_on,1,0,0,,4,,,88,127
69266,note_on,0,0,0,,8,,,68,127
69312,note_off,46,0,0,,4,,,88,127
69313,note_on,1,0,0,,3,,,87,127
69359,note_off,46,0,0,,3,,,87,127
69360,note_on,1,0,0,,4,,,88,127
69406,note_off,46,0,0,,4,,,88,127
69406,note_off,0,0,0,,8,,,68,127
69407,note_on,1,0,0,,3,,,87,127
69407,note_on,0,0,0,,6,,,66,127
69453,note_off,46,0,0,,3,,,87,127
69454,note_on,1,0,0,,1,,,85,127
69500,note_off,46,0,0,,1,,,85,127
69501,note_on,1,0,0,,3,,,87,127
69547,note_off,46,0,0,,3,,,87,127
69547,note_off,0,0,0,,6,,,66,127
69547,note_off,0,0,0,,12,,,59,127
69548,note_on,1,0,0,,4,,,88,127
69548,note_on,0,0,0,,4,,,52,127
69548,note_on,0,0,0,,4,,,64,127
69687,note_off,139,0,0,,4,,,88,127
69688,note_on,1,0,0,,3,,,87,127
69757,note_off,69,0,0,,3,,,87,127
69758,note_on,1,0,0,,1,,,85,127
69827,note_off,69,0,0,,1,,,85,127
69827,note_off,0,0,0,,4,,,52,127
69828,note_on,1,0,0,,12,,,83,127
69828,note_on,0,0,0,,6,,,54,127
69897,note_off,69,0,0,,12,,,83,127
69898,note_on,1,0,0,,10,,,81,127
69967,note_off,69,0,0,,10,,,81,127
69968,note_on,1,0,0,,8,,,80,127
70037,note_off,69,0,0,,8,,,80,127
70038,note_on,1,0,0,,6,,,78,127
70107,note_off,69,0,0,,6,,,78,127
70107,note_off,0,0,0,,6,,,54,127
70108,note_on,1,0,0,,4,,,76,127
70108,note_on,0,0,0,,8,,,56,127
70177,note_off,69,0,0,,4,,,76,127
70178,note_on,1,0,0,,3,,,75,127
70247,note_off,69,0,0,,3,,,75,127
70248,note_on,1,0,0,,1,,,73,127
70317,note_off,69,0,0,,1,,,73,127
70318,note_on,1,0,0,,12,,,71,127
70387,note_off,69,0,0,,12,,,71,127
70387,note_off,0,0,0,,8,,,56,127
70388,note_on,1,0,0,,10,,,69,127
70388,note_on,0,0,0,,10,,,57,127
70457,note_off,69,0,0,,10,,,69,127
70458,note_on,1,0,0,,1,,,73,127
70527,note_off,69,0,0,,1,,,73,127
70528,note_on,1,0,0,,12,,,71,127
70597,note_off,69,0,0,,12,,,71,127
70598,note_on,1,0,0,,10,,,69,127
70667,note_off,69,0,0,,10,,,69,127
70667,note_off,0,0,0,,10,,,57,127
70667,note_off,0,0,0,,4,,,64,127
70668,note_on,1,0,0,,8,,,68,127
70668,note_on,0,0,0,,12,,,59,127
70807,note_off,139,0,0,,8,,,68,127
70808,note_on,1,0,0,,6,,,66,127
70947,note_off,139,0,0,,6,,,66,127
70948,note_on,1,0,0,,4,,,64,127
70948,note_on,0,0,0,,12,,,47,127
71087,note_off,139,0,0,,4,,,64,127
71088,note_on,1,0,0,,3,,,63,127
71227,note_off,139,0,0,,3,,,63,127
71227,note_off,0,0,0,,12,,,47,127
71227,note_off,0,0,0,,12,,,59,127
71228,note_on,1,0,0,,4,,,64,127
71228,note_on,0,0,0,,4,,,40,127
71228,note_on,0,0,0,,4,,,52,127
71344,note_off,116,0,0,,4,,,64,127
71385,note_on,41,0,0,,11,,,82,127
71506,note_off,121,0,0,,4,,,52,127
71506,note_off,0,0,0,,4,,,40,127
71524,note_on,18,0,0,,6,,,42,127
71524,note_on,0,0,0,,6,,,54,127
71663,note_off,139,0,0,,11,,,82,127
71664,note_on,1,0,0,,12,,,83,127
71803,note_off,139,0,0,,6,,,54,127
71803,note_off,0,0,0,,6,,,42,127
71804,note_on,1,0,0,,8,,,56,127
71804,note_on,0,0,0,,8,,,44,127
71943,note_off,139,0,0,,12,,,83,127
71944,note_on,1,0,0,,12,,,71,127
72083,note_off,139,0,0,,8,,,44,127
72083,note_off,0,0,0,,8,,,56,127
72084,note_on,1,0,0,,10,,,57,127
72223,note_off,139,0,0,,12,,,71,127
72224,note_on,1,0,0,,0,,,72,127
72364,note_on,140,0,0,,10,,,45,127
72503,note_off,139,0,0,,0,,,72,127
72504,note_on,1,0,0,,3,,,75,127
72643,note_off,139,0,0,,10,,,45,127
72643,note_off,0,0,0,,10,,,57,127
72644,note_on,1,0,0,,10,,,57,127
72783,note_off,139,0,0,,3,,,75,127
72784,note_on,1,0,0,,4,,,76,127
72923,note_off,139,0,0,,10,,,57,127
72924,note_on,1,0,0,,12,,,59,127
73063,note_off,139,0,0,,4,,,76,127
73064,note_on,1,0,0,,6,,,66,127
73204,note_on,140,0,0,,12,,,47,127
73343,note_off,139,0,0,,6,,,66,127
73344,note_on,1,0,0,,12,,,71,127
73483,note_off,139,0,0,,12,,,47,127
73483,note_off,0,0,0,,12,,,59,127
73484,note_on,1,0,0,,8,,,56,127
73623,note_off,139,0,0,,12,,,71,127
73624,note_on,1,0,0,,10,,,69,127
73693,note_off,69,0,0,,10,,,69,127
73694,note_on,1,0,0,,12,,,71,127
73763,note_off,69,0,0,,12,,,71,127
73763,note_off,0,0,0,,8,,,56,127
73764,note_on,1,0,0,,10,,,57,127
73764,note_on,0,0,0,,1,,,73,127
73903,note_off,139,0,0,,1,,,73,127
73904,note_on,1,0,0,,10,,,69,127
74043,note_off,139,0,0,,10,,,69,127
74043,note_off,0,0,0,,10,,,57,127
74044,note_on,1,0,0,,12,,,59,127
74044,note_on,0,0,0,,8,,,68,127
74183,note_off,139,0,0,,8,,,68,127
74184,note_on,1,0,0,,6,,,66,127
74323,note_off,139,0,0,,6,,,66,127
74324,note_on,1,0,0,,12,,,47,127
74324,note_on,0,0,0,,4,,,64,127
74463,note_off,139,0,0,,4,,,64,127
74464,note_on,1,0,0,,3,,,63,127
74603,note_off,139,0,0,,3,,,63,127
74603,note_off,0,0,0,,12,,,47,127
74603,note_off,0,0,0,,12,,,59,127
74604,note_on,1,0,0,,4,,,40,127
74604,note_on,0,0,0,,4,,,52,127
74604,note_on,0,0,0,,4,,,64,127
74706,note_off,102,0,0,,4,,,64,127
74744,note_on,38,0,0,,11,,,82,127
74883,note_off,139,0,0,,4,,,52,127
74883,note_off,0,0,0,,4,,,40,127
74884,note_on,1,0,0,,6,,,42,127
74884,note_on,0,0,0,,6,,,54,127
75013,note_off,129,0,0,,11,,,82,127
75023,note_on,10,0,0,,12,,,83,127
75162,note_off,139,0,0,,6,,,54,127
75162,note_off,0,0,0,,6,,,42,127
75163,note_on,1,0,0,,8,,,44,127
75163,note_on,0,0,0,,8,,,56,127
75285,note_off,122,0,0,,12,,,83,127
75302,note_on,17,0,0,,12,,,71,127
75441,note_off,139,0,0,,8,,,56,127
75441,note_off,0,0,0,,8,,,44,127
75442,note_on,1,0,0,,10,,,57,127
75564,note_off,122,0,0,,12,,,71,127
75581,note_on,17,0,0,,0,,,72,127
75721,note_on,140,0,0,,10,,,45,127
75843,note_off,122,0,0,,0,,,72,127
75860,note_on,17,0,0,,1,,,73,127
75999,note_off,139,0,0,,10,,,45,127
75999,note_off,0,0,0,,10,,,57,127
76000,note_on,1,0,0,,10,,,57,127
76122,note_off,122,0,0,,1,,,73,127
76139,note_on,17,0,0,,4,,,76,127
76278,note_off,139,0,0,,10,,,57,127
76279,note_on,1,0,0,,12,,,59,127
76401,note_off,122,0,0,,4,,,76,127
76418,note_on,17,0,0,,6,,,66,127
76558,note_on,140,0,0,,12,,,47,127
76680,note_off,122,0,0,,6,,,66,127
76697,note_on,17,0,0,,12,,,71,127
76836,note_off,139,0,0,,12,,,47,127
76836,note_off,0,0,0,,12,,,59,127
76837,note_on,1,0,0,,8,,,56,127
76976,note_off,139,0,0,,12,,,71,127
76977,note_on,1,0,0,,10,,,69,127
77046,note_off,69,0,0,,10,,,69,127
77047,note_on,1,0,0,,12,,,71,127
77116,note_off,69,0,0,,12,,,71,127
77116,note_off,0,0,0,,8,,,56,127
77117,note_on,1,0,0,,10,,,57,127
77117,note_on,0,0,0,,1,,,73,127
77256,note_off,139,0,0,,1,,,73,127
77257,note_on,1,0,0,,10,,,69,127
77396,note_off,139,0,0,,10,,,69,127
77396,note_off,0,0,0,,10,,,57,127
77397,note_on,1,0,0,,12,,,59,127
77397,note_on,0,0,0,,8,,,68,127
77536,note_off,139,0,0,,8,,,68,127
77537,note_on,1,0,0,,6,,,66,127
77676,note_off,139,0,0,,6,,,66,127
77677,note_on,1,0,0,,12,,,47,127
77677,note_on,0,0,0,,4,,,64,127
77816,note_off,139,0,0,,4,,,64,127
77817,note_on,1,0,0,,3,,,63,127
77956,note_off,139,0,0,,3,,,63,127
77956,note_off,0,0,0,,12,,,47,127
77956,note_off,0,0,0,,12,,,59,127
77957,note_on,1,0,0,,4,,,52,127
77957,note_on,0,0,0,,4,,,40,127
77957,note_on,0,0,0,,4,,,64,127
78059,note_off,102,0,0,,4,,,64,127
78097,note_on,38,0,0,,8,,,80,127
78236,note_off,139,0,0,,8,,,80,127
78236,note_off,0,0,0,,4,,,40,127
78236,note_off,0,0,0,,4,,,52,127
78237,note_on,1,0,0,,10,,,45,127
78237,note_on,0,0,0,,10,,,57,127
78237,note_on,0,0,0,,10,,,81,127
78376,note_off,139,0,0,,10,,,81,127
78377,note_on,1,0,0,,6,,,78,127
78516,note_off,139,0,0,,10,,,57,127
78516,note_off,0,0,0,,10,,,45,127
78517,note_on,1,0,0,,12,,,59,127
78517,note_on,0,0,0,,12,,,47,127
78656,note_off,139,0,0,,6,,,78,127
78657,note_on,1,0,0,,3,,,75,127
78796,note_off,139,0,0,,3,,,75,127
78796,note_off,0,0,0,,12,,,47,127
78796,note_off,0,0,0,,12,,,59,127
78797,note_on,1,0,0,,4,,,40,127
78797,note_on,0,0,0,,4,,,52,127
78797,note_on,0,0,0,,4,,,76,127
78928,note_off,131,0,0,,4,,,76,127
78937,note_on,9,0,0,,8,,,80,127
79076,note_off,139,0,0,,8,,,80,127
79076,note_off,0,0,0,,4,,,52,127
79076,note_off,0,0,0,,4,,,40,127
79077,note_on,1,0,0,,10,,,57,127
79077,note_on,0,0,0,,10,,,45,127
79077,note_on,0,0,0,,10,,,81,127
79216,note_off,139,0,0,,10,,,81,127
79217,note_on,1,0,0,,6,,,78,127
79356,note_off,139,0,0,,10,,,45,127
79356,note_off,0,0,0,,10,,,57,127
79357,note_on,1,0,0,,12,,,59,127
79357,note_on,0,0,0,,12,,,47,127
79496,note_off,139,0,0,,6,,,78,127
79497,note_on,1,0,0,,3,,,75,127
79636,note_off,139,0,0,,3,,,75,127
79636,note_off,0,0,0,,12,,,47,127
79636,note_off,0,0,0,,12,,,59,127
79637,note_on,1,0,0,,4,,,40,127
79637,note_on,0,0,0,,4,,,52,127
79637,note_on,0,0,0,,4,,,76,127
79768,note_off,131,0,0,,4,,,76,127
79777,note_on,9,0,0,,8,,,80,127
79908,note_off,131,0,0,,8,,,80,127
79916,note_off,8,0,0,,4,,,52,127
79916,note_off,0,0,0,,4,,,40,127
79917,note_on,1,0,0,,10,,,45,127
79917,note_on,0,0,0,,10,,,33,127
79917,note_on,0,0,0,,10,,,81,127
80056,note_off,139,0,0,,10,,,81,127
80057,note_on,1,0,0,,6,,,78,127
80196,note_off,139,0,0,,10,,,33,127
80196,note_off,0,0,0,,10,,,45,127
80197,note_on,1,0,0,,12,,,47,127
80197,note_on,0,0,0,,12,,,35,127
80336,note_off,139,0,0,,6,,,78,127
80337,note_on,1,0,0,,3,,,75,127
80476,note_off,139,0,0,,3,,,75,127
80476,note_off,0,0,0,,12,,,35,127
80476,note_off,0,0,0,,12,,,47,127
80477,note_on,1,0,0,,4,,,40,127
80477,note_on,0,0,0,,3,,,75,127
81228,note_off,751,0,0,,3,,,75,127
81228,note_on,0,0,0,,4,,,76,127
82555,note_off,1327,0,0,,4,,,76,127
82555,note_off,0,0,0,,4,,,40,127
84480,end_of_track,1925,1,0,,,,,,
