tick,type,time,meta,track,program,channel,pitch,tempo,note,velocity
0,copyright,0,1,0,,,,,,
0,program_change,0,0,0,6,0,,,,
0,pitchwheel,0,0,0,,0,0,,,
0,program_change,0,0,0,6,1,,,,
0,pitchwheel,0,0,0,,1,-590,,,
0,program_change,0,0,0,6,2,,,,
0,pitchwheel,0,0,0,,2,-272,,,
0,program_change,0,0,0,6,3,,,,
0,pitchwheel,0,0,0,,3,-353,,,
0,program_change,0,0,0,6,4,,,,
0,pitchwheel,0,0,0,,4,-560,,,
0,program_change,0,0,0,6,5,,,,
0,pitchwheel,0,0,0,,5,-80,,,
0,program_change,0,0,0,6,6,,,,
0,pitchwheel,0,0,0,,6,-625,,,
0,program_change,0,0,0,6,7,,,,
0,pitchwheel,0,0,0,,7,-130,,,
0,program_change,0,0,0,6,8,,,,
0,pitchwheel,0,0,0,,8,-512,,,
0,program_change,0,0,0,6,10,,,,
0,pitchwheel,0,0,0,,10,-464,,,
0,program_change,0,0,0,6,11,,,,
0,pitchwheel,0,0,0,,11,-208,,,
0,program_change,0,0,0,6,12,,,,
0,pitchwheel,0,0,0,,12,-553,,,
0,set_tempo,0,1,0,,,,500000,,
110,note_on,110,0,0,,4,,,40,127
110,note_on,0,0,0,,12,,,83,127
220,note_on,110,0,0,,8,,,80,127
320,note_off,100,0,0,,8,,,80,127
329,note_on,9,0,0,,4,,,76,127
429,note_off,100,0,0,,4,,,76,127
435,note_off,6,0,0,,12,,,83,127
438,note_on,3,0,0,,12,,,71,127
548,note_on,110,0,0,,8,,,68,127
602,note_off,54,0,0,,4,,,40,127
648,note_off,46,0,0,,8,,,68,127
652,note_off,4,0,0,,12,,,71,127
657,note_on,5,0,0,,12,,,71,127
757,note_off,100,0,0,,12,,,71,127
766,note_on,9,0,0,,10,,,69,127
766,note_on,0,0,0,,1,,,73,127
866,note_off,100,0,0,,10,,,69,127
875,note_on,9,0,0,,4,,,64,127
975,note_off,100,0,0,,4,,,64,127
984,note_on,9,0,0,,1,,,61,127
1084,note_off,100,0,0,,1,,,61,127
1093,note_off,9,0,0,,1,,,73,127
1094,note_on,1,0,0,,10,,,57,127
1094,note_on,0,0,0,,10,,,81,127
1194,note_off,100,0,0,,10,,,57,127
1203,note_on,9,0,0,,4,,,52,127
1303,note_off,100,0,0,,4,,,52,127
1312,note_on,9,0,0,,1,,,49,127
1412,note_off,100,0,0,,1,,,49,127
1421,note_on,9,0,0,,12,,,35,127
1530,note_off,109,0,0,,10,,,81,127
1531,note_on,1,0,0,,10,,,81,127
1631,note_off,100,0,0,,10,,,81,127
1640,note_on,9,0,0,,8,,,80,127
1740,note_off,100,0,0,,8,,,80,127
1749,note_on,9,0,0,,6,,,78,127
1749,note_on,0,0,0,,8,,,80,127
1849,note_off,100,0,0,,8,,,80,127
1849,note_off,0,0,0,,6,,,78,127
1858,note_on,9,0,0,,4,,,76,127
1958,note_off,100,0,0,,4,,,76,127
1967,note_on,9,0,0,,3,,,75,127
2067,note_off,100,0,0,,3,,,75,127
2076,note_off,9,0,0,,12,,,35,127
2077,note_on,1,0,0,,4,,,40,127
2077,note_on,0,0,0,,4,,,76,127
2177,note_off,100,0,0,,4,,,76,127
2186,note_on,9,0,0,,12,,,71,127
2286,note_off,100,0,0,,12,,,71,127
2295,note_on,9,0,0,,8,,,68,127
2395,note_off,100,0,0,,8,,,68,127
2401,note_off,6,0,0,,4,,,40,127
2404,note_on,3,0,0,,4,,,64,127
2514,note_on,110,0,0,,12,,,59,127
2614,note_off,100,0,0,,12,,,59,127
2623,note_on,9,0,0,,8,,,56,127
2723,note_off,100,0,0,,8,,,56,127
2732,note_off,9,0,0,,4,,,64,127
2733,note_on,1,0,0,,4,,,52,127
2733,note_on,0,0,0,,12,,,83,127
2843,note_off,110,0,0,,12,,,83,127
2843,note_on,0,0,0,,8,,,80,127
2943,note_off,100,0,0,,8,,,80,127
2952,note_on,9,0,0,,4,,,76,127
3052,note_off,100,0,0,,4,,,76,127
3061,note_on,9,0,0,,12,,,71,127
3161,note_off,100,0,0,,12,,,71,127
3170,note_on,9,0,0,,8,,,68,127
3224,note_off,54,0,0,,4,,,52,127
3270,note_off,46,0,0,,8,,,68,127
3279,note_on,9,0,0,,12,,,71,127
3379,note_off,100,0,0,,12,,,71,127
3388,note_on,9,0,0,,10,,,69,127
3388,note_on,0,0,0,,1,,,73,127
3488,note_off,100,0,0,,10,,,69,127
3497,note_on,9,0,0,,4,,,64,127
3597,note_off,100,0,0,,4,,,64,127
3606,note_on,9,0,0,,1,,,61,127
3706,note_off,100,0,0,,1,,,61,127
3715,note_off,9,0,0,,1,,,73,127
3716,note_on,1,0,0,,10,,,81,127
3716,note_on,0,0,0,,10,,,57,127
3816,note_off,100,0,0,,10,,,57,127
3825,note_on,9,0,0,,4,,,52,127
3925,note_off,100,0,0,,4,,,52,127
3934,note_on,9,0,0,,10,,,45,127
4034,note_off,100,0,0,,10,,,45,127
4043,note_on,9,0,0,,12,,,35,127
4152,note_off,109,0,0,,10,,,81,127
4153,note_on,1,0,0,,10,,,81,127
4253,note_off,100,0,0,,10,,,81,127
4262,note_on,9,0,0,,8,,,80,127
4362,note_off,100,0,0,,8,,,80,127
4371,note_on,9,0,0,,8,,,80,127
4371,note_on,0,0,0,,6,,,78,127
4471,note_off,100,0,0,,6,,,78,127
4471,note_off,0,0,0,,8,,,80,127
4480,note_on,9,0,0,,4,,,76,127
4580,note_off,100,0,0,,4,,,76,127
4589,note_on,9,0,0,,3,,,75,127
4689,note_off,100,0,0,,3,,,75,127
4698,note_off,9,0,0,,12,,,35,127
4699,note_on,1,0,0,,4,,,40,127
4699,note_on,0,0,0,,4,,,76,127
4799,note_off,100,0,0,,4,,,76,127
4808,note_on,9,0,0,,12,,,71,127
4908,note_off,100,0,0,,12,,,71,127
4917,note_on,9,0,0,,8,,,68,127
5017,note_off,100,0,0,,8,,,68,127
5026,note_on,9,0,0,,4,,,64,127
5126,note_off,100,0,0,,4,,,64,127
5135,note_on,9,0,0,,12,,,59,127
5235,note_off,100,0,0,,12,,,59,127
5244,note_on,9,0,0,,8,,,56,127
5344,note_off,100,0,0,,8,,,56,127
5353,note_on,9,0,0,,4,,,52,127
5453,note_off,100,0,0,,4,,,52,127
5462,note_on,9,0,0,,12,,,47,127
5562,note_off,100,0,0,,12,,,47,127
5571,note_on,9,0,0,,8,,,44,127
5636,note_off,65,0,0,,4,,,40,127
5671,note_off,35,0,0,,8,,,44,127
5680,note_on,9,0,0,,4,,,40,127
5780,note_off,100,0,0,,4,,,40,127
5789,note_on,9,0,0,,8,,,44,127
5889,note_off,100,0,0,,8,,,44,127
5898,note_on,9,0,0,,12,,,47,127
5998,note_off,100,0,0,,12,,,47,127
6007,note_on,9,0,0,,4,,,52,127
6007,note_on,0,0,0,,4,,,64,127
6117,note_on,110,0,0,,12,,,59,127
6170,note_off,53,0,0,,4,,,64,127
6217,note_off,47,0,0,,12,,,59,127
6226,note_on,9,0,0,,6,,,66,127
6326,note_off,100,0,0,,6,,,66,127
6335,note_on,9,0,0,,8,,,68,127
6445,note_on,110,0,0,,12,,,59,127
6498,note_off,53,0,0,,8,,,68,127
6545,note_off,47,0,0,,12,,,59,127
6554,note_on,9,0,0,,10,,,69,127
6654,note_off,100,0,0,,10,,,69,127
6663,note_off,9,0,0,,4,,,52,127
6664,note_on,1,0,0,,4,,,52,127
6664,note_on,0,0,0,,12,,,71,127
6764,note_off,100,0,0,,4,,,52,127
6773,note_on,9,0,0,,12,,,47,127
6873,note_off,100,0,0,,12,,,47,127
6882,note_on,9,0,0,,6,,,54,127
6982,note_off,100,0,0,,6,,,54,127
6991,note_on,9,0,0,,8,,,56,127
7091,note_off,100,0,0,,8,,,56,127
7100,note_on,9,0,0,,12,,,47,127
7200,note_off,100,0,0,,12,,,47,127
7209,note_on,9,0,0,,10,,,57,127
7260,note_off,51,0,0,,12,,,71,127
7309,note_off,49,0,0,,10,,,57,127
7318,note_on,9,0,0,,12,,,59,127
7318,note_on,0,0,0,,12,,,71,127
7428,note_on,110,0,0,,6,,,66,127
7515,note_off,87,0,0,,12,,,71,127
7528,note_off,13,0,0,,6,,,66,127
7537,note_on,9,0,0,,1,,,73,127
7637,note_off,100,0,0,,1,,,73,127
7646,note_on,9,0,0,,3,,,75,127
7756,note_on,110,0,0,,6,,,66,127
7843,note_off,87,0,0,,3,,,75,127
7856,note_off,13,0,0,,6,,,66,127
7865,note_on,9,0,0,,4,,,76,127
7965,note_off,100,0,0,,4,,,76,127
7974,note_off,9,0,0,,12,,,59,127
7975,note_on,1,0,0,,12,,,59,127
7975,note_on,0,0,0,,6,,,78,127
8075,note_off,100,0,0,,12,,,59,127
8084,note_on,9,0,0,,6,,,54,127
8184,note_off,100,0,0,,6,,,54,127
8193,note_on,9,0,0,,1,,,61,127
8293,note_off,100,0,0,,1,,,61,127
8302,note_on,9,0,0,,3,,,63,127
8402,note_off,100,0,0,,3,,,63,127
8411,note_on,9,0,0,,6,,,54,127
8465,note_off,54,0,0,,6,,,78,127
8511,note_off,46,0,0,,6,,,54,127
8520,note_on,9,0,0,,4,,,64,127
8620,note_off,100,0,0,,4,,,64,127
8629,note_on,9,0,0,,6,,,66,127
8629,note_on,0,0,0,,6,,,78,127
8739,note_on,110,0,0,,10,,,69,127
8839,note_off,100,0,0,,10,,,69,127
8848,note_on,9,0,0,,8,,,68,127
8948,note_off,100,0,0,,8,,,68,127
8957,note_off,9,0,0,,6,,,66,127
8958,note_on,1,0,0,,4,,,64,127
8958,note_on,0,0,0,,10,,,69,127
9058,note_off,100,0,0,,10,,,69,127
9067,note_on,9,0,0,,8,,,68,127
9167,note_off,100,0,0,,8,,,68,127
9176,note_on,9,0,0,,10,,,69,127
9276,note_off,100,0,0,,10,,,69,127
9285,note_off,9,0,0,,4,,,64,127
9285,note_off,0,0,0,,6,,,78,127
9286,note_on,1,0,0,,3,,,63,127
9286,note_on,0,0,0,,6,,,66,127
9286,note_on,0,0,0,,6,,,78,127
9396,note_on,110,0,0,,10,,,69,127
9496,note_off,100,0,0,,10,,,69,127
9505,note_on,9,0,0,,8,,,68,127
9605,note_off,100,0,0,,8,,,68,127
9614,note_off,9,0,0,,3,,,63,127
9615,note_on,1,0,0,,1,,,61,127
9615,note_on,0,0,0,,10,,,69,127
9715,note_off,100,0,0,,10,,,69,127
9724,note_on,9,0,0,,8,,,68,127
9824,note_off,100,0,0,,8,,,68,127
9833,note_on,9,0,0,,10,,,69,127
9933,note_off,100,0,0,,10,,,69,127
9942,note_off,9,0,0,,1,,,61,127
9942,note_off,0,0,0,,6,,,78,127
9942,note_off,0,0,0,,6,,,66,127
9943,note_on,1,0,0,,12,,,59,127
9943,note_on,0,0,0,,6,,,66,127
9943,note_on,0,0,0,,6,,,78,127
10053,note_on,110,0,0,,10,,,69,127
10153,note_off,100,0,0,,10,,,69,127
10162,note_on,9,0,0,,8,,,68,127
10262,note_off,100,0,0,,8,,,68,127
10271,note_on,9,0,0,,10,,,69,127
10371,note_off,100,0,0,,10,,,69,127
10380,note_on,9,0,0,,8,,,68,127
10480,note_off,100,0,0,,8,,,68,127
10489,note_on,9,0,0,,10,,,69,127
10589,note_off,100,0,0,,10,,,69,127
10598,note_off,9,0,0,,6,,,78,127
10598,note_off,0,0,0,,6,,,66,127
10598,note_off,0,0,0,,12,,,59,127
10599,note_on,1,0,0,,12,,,59,127
10599,note_on,0,0,0,,6,,,78,127
10699,note_off,100,0,0,,6,,,78,127
10708,note_on,9,0,0,,0,,,84,127
10808,note_off,100,0,0,,0,,,84,127
10817,note_on,9,0,0,,12,,,83,127
10917,note_off,100,0,0,,12,,,83,127
10926,note_off,9,0,0,,12,,,59,127
10927,note_on,1,0,0,,12,,,83,127
10927,note_on,0,0,0,,10,,,81,127
10927,note_on,0,0,0,,12,,,47,127
11027,note_off,100,0,0,,10,,,81,127
11027,note_off,0,0,0,,12,,,83,127
11036,note_on,9,0,0,,7,,,79,127
11136,note_off,100,0,0,,7,,,79,127
11145,note_on,9,0,0,,6,,,78,127
11245,note_off,100,0,0,,6,,,78,127
11254,note_off,9,0,0,,12,,,47,127
11255,note_on,1,0,0,,4,,,64,127
11255,note_on,0,0,0,,0,,,60,127
11255,note_on,0,0,0,,4,,,76,127
11365,note_on,110,0,0,,7,,,67,127
11465,note_off,100,0,0,,7,,,67,127
11474,note_on,9,0,0,,6,,,66,127
11574,note_off,100,0,0,,6,,,66,127
11583,note_on,9,0,0,,7,,,67,127
11683,note_off,100,0,0,,7,,,67,127
11692,note_on,9,0,0,,6,,,66,127
11792,note_off,100,0,0,,6,,,66,127
11801,note_on,9,0,0,,7,,,67,127
11901,note_off,100,0,0,,7,,,67,127
11910,note_off,9,0,0,,4,,,76,127
11910,note_off,0,0,0,,0,,,60,127
11910,note_off,0,0,0,,4,,,64,127
11911,note_on,1,0,0,,12,,,59,127
11911,note_on,0,0,0,,4,,,64,127
11911,note_on,0,0,0,,4,,,76,127
12021,note_on,110,0,0,,7,,,67,127
12121,note_off,100,0,0,,7,,,67,127
12130,note_on,9,0,0,,6,,,66,127
12230,note_off,100,0,0,,6,,,66,127
12239,note_on,9,0,0,,7,,,67,127
12339,note_off,100,0,0,,7,,,67,127
12348,note_on,9,0,0,,6,,,66,127
12448,note_off,100,0,0,,6,,,66,127
12457,note_on,9,0,0,,7,,,67,127
12557,note_off,100,0,0,,7,,,67,127
12566,note_off,9,0,0,,4,,,76,127
12566,note_off,0,0,0,,4,,,64,127
12566,note_off,0,0,0,,12,,,59,127
12567,note_on,1,0,0,,11,,,58,127
12567,note_on,0,0,0,,4,,,64,127
12567,note_on,0,0,0,,4,,,76,127
12677,note_on,110,0,0,,7,,,67,127
12777,note_off,100,0,0,,7,,,67,127
12786,note_on,9,0,0,,6,,,66,127
12886,note_off,100,0,0,,6,,,66,127
12895,note_on,9,0,0,,7,,,67,127
12995,note_off,100,0,0,,7,,,67,127
13004,note_on,9,0,0,,6,,,66,127
13104,note_off,100,0,0,,6,,,66,127
13113,note_on,9,0,0,,7,,,67,127
13213,note_off,100,0,0,,7,,,67,127
13222,note_off,9,0,0,,4,,,76,127
13222,note_off,0,0,0,,4,,,64,127
13222,note_off,0,0,0,,11,,,58,127
13223,note_on,1,0,0,,6,,,54,127
13223,note_on,0,0,0,,1,,,61,127
13223,note_on,0,0,0,,4,,,64,127
13223,note_on,0,0,0,,4,,,76,127
13323,note_off,100,0,0,,4,,,76,127
13332,note_on,9,0,0,,7,,,79,127
13432,note_off,100,0,0,,7,,,79,127
13441,note_on,9,0,0,,6,,,78,127
13541,note_off,100,0,0,,6,,,78,127
13550,note_on,9,0,0,,4,,,76,127
13550,note_on,0,0,0,,6,,,78,127
13650,note_off,100,0,0,,6,,,78,127
13650,note_off,0,0,0,,4,,,76,127
13659,note_on,9,0,0,,2,,,74,127
13759,note_off,100,0,0,,2,,,74,127
13768,note_on,9,0,0,,1,,,73,127
13868,note_off,100,0,0,,1,,,73,127
13877,note_off,9,0,0,,4,,,64,127
13877,note_off,0,0,0,,1,,,61,127
13877,note_off,0,0,0,,6,,,54,127
13878,note_on,1,0,0,,12,,,59,127
13878,note_on,0,0,0,,7,,,55,127
13878,note_on,0,0,0,,12,,,71,127
13988,note_on,110,0,0,,2,,,62,127
14088,note_off,100,0,0,,2,,,62,127
14097,note_on,9,0,0,,1,,,61,127
14197,note_off,100,0,0,,1,,,61,127
14206,note_on,9,0,0,,2,,,62,127
14306,note_off,100,0,0,,2,,,62,127
14315,note_on,9,0,0,,1,,,61,127
14415,note_off,100,0,0,,1,,,61,127
14424,note_on,9,0,0,,2,,,62,127
14524,note_off,100,0,0,,2,,,62,127
14533,note_off,9,0,0,,12,,,71,127
14533,note_off,0,0,0,,7,,,55,127
14533,note_off,0,0,0,,12,,,59,127
14534,note_on,1,0,0,,6,,,54,127
14534,note_on,0,0,0,,12,,,59,127
14534,note_on,0,0,0,,12,,,71,127
14644,note_on,110,0,0,,2,,,62,127
14744,note_off,100,0,0,,2,,,62,127
14753,note_on,9,0,0,,1,,,61,127
14853,note_off,100,0,0,,1,,,61,127
14862,note_on,9,0,0,,2,,,62,127
14962,note_off,100,0,0,,2,,,62,127
14971,note_on,9,0,0,,1,,,61,127
15071,note_off,100,0,0,,1,,,61,127
15080,note_on,9,0,0,,2,,,62,127
15180,note_off,100,0,0,,2,,,62,127
15189,note_off,9,0,0,,12,,,71,127
15189,note_off,0,0,0,,12,,,59,127
15189,note_off,0,0,0,,6,,,54,127
15190,note_on,1,0,0,,5,,,53,127
15190,note_on,0,0,0,,12,,,59,127
15190,note_on,0,0,0,,12,,,71,127
15300,note_on,110,0,0,,2,,,62,127
15400,note_off,100,0,0,,2,,,62,127
15409,note_on,9,0,0,,1,,,61,127
15509,note_off,100,0,0,,1,,,61,127
15518,note_on,9,0,0,,2,,,62,127
15618,note_off,100,0,0,,2,,,62,127
15627,note_on,9,0,0,,1,,,61,127
15727,note_off,100,0,0,,1,,,61,127
15736,note_on,9,0,0,,2,,,62,127
15836,note_off,100,0,0,,2,,,62,127
15845,note_off,9,0,0,,12,,,71,127
15845,note_off,0,0,0,,12,,,59,127
15845,note_off,0,0,0,,5,,,53,127
15846,note_on,1,0,0,,1,,,49,127
15846,note_on,0,0,0,,8,,,56,127
15846,note_on,0,0,0,,12,,,59,127
15846,note_on,0,0,0,,12,,,71,127
15946,note_off,100,0,0,,12,,,71,127
15955,note_on,9,0,0,,2,,,74,127
16055,note_off,100,0,0,,2,,,74,127
16064,note_on,9,0,0,,1,,,73,127
16164,note_off,100,0,0,,1,,,73,127
16173,note_on,9,0,0,,1,,,73,127
16173,note_on,0,0,0,,12,,,71,127
16273,note_off,100,0,0,,12,,,71,127
16273,note_off,0,0,0,,1,,,73,127
16282,note_on,9,0,0,,11,,,70,127
16382,note_off,100,0,0,,11,,,70,127
16395,note_on,13,0,0,,12,,,71,127
16495,note_off,100,0,0,,12,,,71,127
16500,note_off,5,0,0,,12,,,59,127
16500,note_off,0,0,0,,8,,,56,127
16500,note_off,0,0,0,,1,,,49,127
16501,note_on,1,0,0,,6,,,42,127
16501,note_on,0,0,0,,6,,,54,127
16501,note_on,0,0,0,,1,,,49,127
16501,note_on,0,0,0,,6,,,78,127
16611,note_on,110,0,0,,1,,,73,127
16711,note_off,100,0,0,,1,,,73,127
16720,note_on,9,0,0,,11,,,70,127
16820,note_off,100,0,0,,11,,,70,127
16826,note_off,6,0,0,,6,,,78,127
16829,note_on,3,0,0,,6,,,66,127
16939,note_on,110,0,0,,1,,,61,127
17039,note_off,100,0,0,,1,,,61,127
17048,note_on,9,0,0,,11,,,58,127
17148,note_off,100,0,0,,11,,,58,127
17154,note_off,6,0,0,,6,,,66,127
17157,note_off,3,0,0,,1,,,49,127
17157,note_off,0,0,0,,6,,,54,127
17157,note_off,0,0,0,,6,,,42,127
17158,note_on,1,0,0,,6,,,54,127
17268,note_on,110,0,0,,1,,,49,127
17368,note_off,100,0,0,,1,,,49,127
17377,note_on,9,0,0,,11,,,46,127
17477,note_off,100,0,0,,11,,,46,127
17486,note_on,9,0,0,,6,,,42,127
17586,note_off,100,0,0,,6,,,42,127
17595,note_on,9,0,0,,11,,,46,127
17695,note_off,100,0,0,,11,,,46,127
17704,note_on,9,0,0,,1,,,49,127
17804,note_off,100,0,0,,1,,,49,127
17813,note_off,9,0,0,,6,,,54,127
17814,note_on,1,0,0,,6,,,42,127
17814,note_on,0,0,0,,6,,,54,127
17814,note_on,0,0,0,,6,,,78,127
17914,note_off,100,0,0,,6,,,78,127
17923,note_on,9,0,0,,1,,,73,127
18023,note_off,100,0,0,,1,,,73,127
18032,note_on,9,0,0,,11,,,70,127
18132,note_off,100,0,0,,11,,,70,127
18141,note_on,9,0,0,,6,,,66,127
18241,note_off,100,0,0,,6,,,66,127
18250,note_on,9,0,0,,11,,,70,127
18350,note_off,100,0,0,,11,,,70,127
18359,note_on,9,0,0,,6,,,78,127
18459,note_off,100,0,0,,6,,,78,127
18468,note_off,9,0,0,,6,,,54,127
18468,note_off,0,0,0,,6,,,42,127
18469,note_on,1,0,0,,4,,,52,127
18469,note_on,0,0,0,,7,,,79,127
18579,note_on,110,0,0,,7,,,67,127
18632,note_off,53,0,0,,7,,,79,127
18679,note_off,47,0,0,,7,,,67,127
18688,note_on,9,0,0,,11,,,70,127
18788,note_off,100,0,0,,11,,,70,127
18797,note_off,9,0,0,,4,,,52,127
18798,note_on,1,0,0,,1,,,49,127
18798,note_on,0,0,0,,11,,,82,127
18908,note_on,110,0,0,,11,,,70,127
18961,note_off,53,0,0,,11,,,82,127
19008,note_off,47,0,0,,11,,,70,127
19017,note_on,9,0,0,,1,,,73,127
19117,note_off,100,0,0,,1,,,73,127
19126,note_off,9,0,0,,1,,,49,127
19127,note_on,1,0,0,,2,,,50,127
19127,note_on,0,0,0,,12,,,83,127
19237,note_on,110,0,0,,12,,,71,127
19290,note_off,53,0,0,,12,,,83,127
19337,note_off,47,0,0,,12,,,71,127
19346,note_on,9,0,0,,2,,,74,127
19446,note_off,100,0,0,,2,,,74,127
19455,note_off,9,0,0,,2,,,50,127
19456,note_on,1,0,0,,12,,,47,127
19456,note_on,0,0,0,,6,,,78,127
19556,note_off,100,0,0,,6,,,78,127
19565,note_on,9,0,0,,4,,,76,127
19665,note_off,100,0,0,,4,,,76,127
19674,note_on,9,0,0,,2,,,74,127
19774,note_off,100,0,0,,2,,,74,127
19783,note_off,9,0,0,,12,,,47,127
19784,note_on,1,0,0,,4,,,52,127
19784,note_on,0,0,0,,1,,,73,127
19884,note_off,100,0,0,,1,,,73,127
19893,note_on,9,0,0,,2,,,74,127
19993,note_off,100,0,0,,2,,,74,127
20002,note_on,9,0,0,,4,,,76,127
20102,note_off,100,0,0,,4,,,76,127
20111,note_off,9,0,0,,4,,,52,127
20112,note_on,1,0,0,,2,,,74,127
20112,note_on,0,0,0,,4,,,76,127
20112,note_on,0,0,0,,7,,,55,127
20212,note_off,100,0,0,,4,,,76,127
20212,note_off,0,0,0,,2,,,74,127
20221,note_on,9,0,0,,1,,,73,127
20321,note_off,100,0,0,,1,,,73,127
20330,note_on,9,0,0,,12,,,71,127
20430,note_off,100,0,0,,12,,,71,127
20439,note_off,9,0,0,,7,,,55,127
20440,note_on,1,0,0,,6,,,42,127
20440,note_on,0,0,0,,6,,,78,127
20550,note_on,110,0,0,,1,,,73,127
20650,note_off,100,0,0,,1,,,73,127
20659,note_on,9,0,0,,11,,,70,127
20759,note_off,100,0,0,,11,,,70,127
20765,note_off,6,0,0,,6,,,78,127
20765,note_off,0,0,0,,6,,,42,127
20768,note_on,3,0,0,,6,,,66,127
20878,note_on,110,0,0,,1,,,61,127
20978,note_off,100,0,0,,1,,,61,127
20987,note_on,9,0,0,,11,,,58,127
21087,note_off,100,0,0,,11,,,58,127
21093,note_off,6,0,0,,6,,,66,127
21096,note_on,3,0,0,,6,,,54,127
21206,note_on,110,0,0,,1,,,49,127
21306,note_off,100,0,0,,1,,,49,127
21315,note_on,9,0,0,,11,,,46,127
21415,note_off,100,0,0,,11,,,46,127
21421,note_off,6,0,0,,6,,,54,127
21424,note_on,3,0,0,,6,,,42,127
21534,note_on,110,0,0,,11,,,46,127
21630,note_off,96,0,0,,6,,,42,127
21634,note_off,4,0,0,,11,,,46,127
21643,note_on,9,0,0,,1,,,49,127
21743,note_off,100,0,0,,1,,,49,127
21752,note_on,9,0,0,,6,,,42,127
21752,note_on,0,0,0,,6,,,54,127
21752,note_on,0,0,0,,6,,,78,127
21862,note_on,110,0,0,,1,,,73,127
21962,note_off,100,0,0,,1,,,73,127
21971,note_on,9,0,0,,11,,,70,127
22071,note_off,100,0,0,,11,,,70,127
22080,note_on,9,0,0,,6,,,66,127
22180,note_off,100,0,0,,6,,,66,127
22189,note_off,9,0,0,,6,,,78,127
22189,note_on,0,0,0,,11,,,70,127
22289,note_off,100,0,0,,11,,,70,127
22298,note_on,9,0,0,,6,,,78,127
22398,note_off,100,0,0,,6,,,78,127
22407,note_off,9,0,0,,6,,,54,127
22407,note_off,0,0,0,,6,,,42,127
22408,note_on,1,0,0,,4,,,52,127
22408,note_on,0,0,0,,7,,,79,127
22518,note_on,110,0,0,,7,,,67,127
22618,note_off,100,0,0,,7,,,67,127
22627,note_off,9,0,0,,7,,,79,127
22628,note_on,1,0,0,,11,,,70,127
22728,note_off,100,0,0,,11,,,70,127
22737,note_off,9,0,0,,4,,,52,127
22738,note_on,1,0,0,,1,,,49,127
22738,note_on,0,0,0,,11,,,82,127
22848,note_on,110,0,0,,11,,,70,127
22948,note_off,100,0,0,,11,,,70,127
22957,note_off,9,0,0,,11,,,82,127
22958,note_on,1,0,0,,1,,,73,127
23058,note_off,100,0,0,,1,,,73,127
23067,note_off,9,0,0,,1,,,49,127
23068,note_on,1,0,0,,2,,,50,127
23068,note_on,0,0,0,,12,,,83,127
23178,note_on,110,0,0,,12,,,71,127
23278,note_off,100,0,0,,12,,,71,127
23287,note_off,9,0,0,,12,,,83,127
23288,note_on,1,0,0,,2,,,74,127
23388,note_off,100,0,0,,2,,,74,127
23397,note_off,9,0,0,,2,,,50,127
23398,note_on,1,0,0,,12,,,47,127
23398,note_on,0,0,0,,6,,,78,127
23498,note_off,100,0,0,,6,,,78,127
23507,note_on,9,0,0,,4,,,76,127
23607,note_off,100,0,0,,4,,,76,127
23616,note_on,9,0,0,,2,,,74,127
23716,note_off,100,0,0,,2,,,74,127
23725,note_off,9,0,0,,12,,,47,127
23726,note_on,1,0,0,,4,,,52,127
23726,note_on,0,0,0,,1,,,73,127
23826,note_off,100,0,0,,1,,,73,127
23835,note_on,9,0,0,,2,,,74,127
23935,note_off,100,0,0,,2,,,74,127
23944,note_on,9,0,0,,4,,,76,127
24044,note_off,100,0,0,,4,,,76,127
24053,note_off,9,0,0,,4,,,52,127
24054,note_on,1,0,0,,6,,,54,127
24054,note_on,0,0,0,,2,,,74,127
24154,note_off,100,0,0,,2,,,74,127
24163,note_on,9,0,0,,4,,,76,127
24263,note_off,100,0,0,,4,,,76,127
24272,note_on,9,0,0,,1,,,73,127
24372,note_off,100,0,0,,1,,,73,127
24381,note_off,9,0,0,,6,,,54,127
24382,note_on,1,0,0,,7,,,43,127
24382,note_on,0,0,0,,1,,,73,127
24930,note_off,548,0,0,,1,,,73,127
24931,note_on,1,0,0,,12,,,71,127
25205,note_off,274,0,0,,7,,,43,127
25588,note_off,383,0,0,,12,,,71,127
25918,note_on,330,0,0,,2,,,74,127
25918,note_on,0,0,0,,2,,,62,127
25918,note_on,0,0,0,,7,,,55,127
26028,note_on,110,0,0,,12,,,71,127
26128,note_off,100,0,0,,12,,,71,127
26132,note_off,4,0,0,,2,,,74,127
26137,note_on,5,0,0,,4,,,76,127
26237,note_off,100,0,0,,4,,,76,127
26246,note_on,9,0,0,,2,,,74,127
26356,note_on,110,0,0,,12,,,71,127
26456,note_off,100,0,0,,12,,,71,127
26460,note_off,4,0,0,,2,,,74,127
26465,note_on,5,0,0,,4,,,76,127
26565,note_off,100,0,0,,4,,,76,127
26574,note_off,9,0,0,,7,,,55,127
26574,note_off,0,0,0,,2,,,62,127
26575,note_on,1,0,0,,2,,,74,127
26575,note_on,0,0,0,,2,,,62,127
26575,note_on,0,0,0,,7,,,55,127
26685,note_on,110,0,0,,12,,,71,127
26785,note_off,100,0,0,,12,,,71,127
26789,note_off,4,0,0,,2,,,74,127
26794,note_on,5,0,0,,4,,,76,127
26894,note_off,100,0,0,,4,,,76,127
26903,note_on,9,0,0,,2,,,74,127
27013,note_on,110,0,0,,12,,,71,127
27113,note_off,100,0,0,,12,,,71,127
27117,note_off,4,0,0,,2,,,74,127
27122,note_on,5,0,0,,4,,,76,127
27222,note_off,100,0,0,,4,,,76,127
27231,note_off,9,0,0,,7,,,55,127
27231,note_off,0,0,0,,2,,,62,127
27232,note_on,1,0,0,,2,,,74,127
27232,note_on,0,0,0,,2,,,62,127
27232,note_on,0,0,0,,7,,,55,127
27342,note_on,110,0,0,,12,,,71,127
27442,note_off,100,0,0,,12,,,71,127
27446,note_off,4,0,0,,2,,,74,127
27451,note_on,5,0,0,,4,,,76,127
27551,note_off,100,0,0,,4,,,76,127
27560,note_off,9,0,0,,7,,,55,127
27560,note_off,0,0,0,,2,,,62,127
27561,note_on,1,0,0,,2,,,74,127
27561,note_on,0,0,0,,4,,,64,127
27561,note_on,0,0,0,,7,,,55,127
27671,note_on,110,0,0,,12,,,71,127
27771,note_off,100,0,0,,12,,,71,127
27775,note_off,4,0,0,,2,,,74,127
27780,note_on,5,0,0,,4,,,76,127
27880,note_off,100,0,0,,4,,,76,127
27889,note_off,9,0,0,,7,,,55,127
27889,note_off,0,0,0,,4,,,64,127
27890,note_on,1,0,0,,2,,,74,127
27890,note_on,0,0,0,,6,,,66,127
27890,note_on,0,0,0,,6,,,54,127
28000,note_on,110,0,0,,12,,,71,127
28100,note_off,100,0,0,,12,,,71,127
28104,note_off,4,0,0,,2,,,74,127
28109,note_on,5,0,0,,6,,,78,127
28209,note_off,100,0,0,,6,,,78,127
28218,note_on,9,0,0,,2,,,74,127
28328,note_on,110,0,0,,12,,,71,127
28355,note_off,27,0,0,,2,,,74,127
28428,note_off,73,0,0,,12,,,71,127
28437,note_on,9,0,0,,2,,,74,127
28537,note_off,100,0,0,,2,,,74,127
28546,note_off,9,0,0,,6,,,54,127
28546,note_off,0,0,0,,6,,,66,127
28547,note_on,1,0,0,,1,,,73,127
28547,note_on,0,0,0,,6,,,42,127
28547,note_on,0,0,0,,6,,,54,127
28647,note_off,100,0,0,,1,,,73,127
28656,note_on,9,0,0,,2,,,74,127
28756,note_off,100,0,0,,2,,,74,127
28765,note_on,9,0,0,,4,,,76,127
28865,note_off,100,0,0,,4,,,76,127
28874,note_on,9,0,0,,12,,,71,127
28974,note_off,100,0,0,,12,,,71,127
28983,note_on,9,0,0,,1,,,73,127
29083,note_off,100,0,0,,1,,,73,127
29092,note_on,9,0,0,,11,,,70,127
29192,note_off,100,0,0,,11,,,70,127
29201,note_off,9,0,0,,6,,,54,127
29201,note_off,0,0,0,,6,,,42,127
29202,note_on,1,0,0,,11,,,70,127
29202,note_on,0,0,0,,7,,,43,127
29573,note_off,371,0,0,,11,,,70,127
29574,note_on,1,0,0,,12,,,71,127
30174,note_off,600,0,0,,12,,,71,127
30188,note_off,14,0,0,,7,,,43,127
30519,note_on,331,0,0,,2,,,74,127
30519,note_on,0,0,0,,2,,,62,127
30519,note_on,0,0,0,,7,,,55,127
30619,note_off,100,0,0,,2,,,74,127
30628,note_on,9,0,0,,12,,,71,127
30738,note_on,110,0,0,,4,,,76,127
30838,note_off,100,0,0,,4,,,76,127
30847,note_on,9,0,0,,2,,,74,127
30947,note_off,100,0,0,,2,,,74,127
30953,note_off,6,0,0,,12,,,71,127
30956,note_on,3,0,0,,12,,,71,127
31066,note_on,110,0,0,,4,,,76,127
31166,note_off,100,0,0,,4,,,76,127
31175,note_off,9,0,0,,7,,,55,127
31175,note_off,0,0,0,,2,,,62,127
31176,note_on,1,0,0,,2,,,74,127
31176,note_on,0,0,0,,2,,,62,127
31176,note_on,0,0,0,,7,,,55,127
31276,note_off,100,0,0,,2,,,74,127
31282,note_off,6,0,0,,12,,,71,127
31285,note_on,3,0,0,,12,,,71,127
31395,note_on,110,0,0,,4,,,76,127
31495,note_off,100,0,0,,4,,,76,127
31504,note_on,9,0,0,,2,,,74,127
31604,note_off,100,0,0,,2,,,74,127
31610,note_off,6,0,0,,12,,,71,127
31613,note_on,3,0,0,,12,,,71,127
31723,note_on,110,0,0,,4,,,76,127
31823,note_off,100,0,0,,4,,,76,127
31832,note_off,9,0,0,,7,,,55,127
31832,note_off,0,0,0,,2,,,62,127
31833,note_on,1,0,0,,2,,,74,127
31833,note_on,0,0,0,,2,,,62,127
31833,note_on,0,0,0,,7,,,55,127
31933,note_off,100,0,0,,2,,,74,127
31939,note_off,6,0,0,,12,,,71,127
31942,note_on,3,0,0,,12,,,71,127
32052,note_on,110,0,0,,4,,,76,127
32152,note_off,100,0,0,,4,,,76,127
32161,note_off,9,0,0,,7,,,55,127
32161,note_off,0,0,0,,2,,,62,127
32162,note_on,1,0,0,,2,,,74,127
32162,note_on,0,0,0,,7,,,55,127
32162,note_on,0,0,0,,4,,,64,127
32262,note_off,100,0,0,,2,,,74,127
32268,note_off,6,0,0,,12,,,71,127
32271,note_on,3,0,0,,12,,,71,127
32381,note_on,110,0,0,,4,,,76,127
32481,note_off,100,0,0,,4,,,76,127
32490,note_off,9,0,0,,4,,,64,127
32490,note_off,0,0,0,,7,,,55,127
32491,note_on,1,0,0,,2,,,74,127
32491,note_on,0,0,0,,6,,,66,127
32491,note_on,0,0,0,,6,,,54,127
32591,note_off,100,0,0,,2,,,74,127
32597,note_off,6,0,0,,12,,,71,127
32600,note_on,3,0,0,,12,,,71,127
32710,note_on,110,0,0,,6,,,78,127
32810,note_off,100,0,0,,6,,,78,127
32814,note_off,4,0,0,,12,,,71,127
32819,note_on,5,0,0,,2,,,74,127
32919,note_off,100,0,0,,2,,,74,127
32928,note_on,9,0,0,,12,,,71,127
33028,note_off,100,0,0,,12,,,71,127
33037,note_on,9,0,0,,2,,,74,127
33137,note_off,100,0,0,,2,,,74,127
33146,note_off,9,0,0,,6,,,54,127
33146,note_off,0,0,0,,6,,,66,127
33147,note_on,1,0,0,,1,,,73,127
33147,note_on,0,0,0,,6,,,54,127
33147,note_on,0,0,0,,6,,,42,127
33247,note_off,100,0,0,,1,,,73,127
33256,note_on,9,0,0,,2,,,74,127
33356,note_off,100,0,0,,2,,,74,127
33365,note_on,9,0,0,,4,,,76,127
33465,note_off,100,0,0,,4,,,76,127
33474,note_on,9,0,0,,12,,,71,127
33574,note_off,100,0,0,,12,,,71,127
33583,note_on,9,0,0,,1,,,73,127
33683,note_off,100,0,0,,1,,,73,127
33692,note_off,9,0,0,,6,,,42,127
33692,note_off,0,0,0,,6,,,54,127
33692,note_on,0,0,0,,11,,,70,127
33792,note_off,100,0,0,,11,,,70,127
33801,note_on,9,0,0,,12,,,71,127
33801,note_on,0,0,0,,12,,,47,127
33911,note_on,110,0,0,,12,,,83,127
34011,note_off,100,0,0,,12,,,83,127
34015,note_off,4,0,0,,12,,,71,127
34020,note_on,5,0,0,,6,,,78,127
34120,note_off,100,0,0,,6,,,78,127
34129,note_off,9,0,0,,12,,,47,127
34130,note_on,1,0,0,,8,,,80,127
34130,note_on,0,0,0,,4,,,52,127
34230,note_off,100,0,0,,8,,,80,127
34239,note_on,9,0,0,,4,,,76,127
34339,note_off,100,0,0,,4,,,76,127
34348,note_on,9,0,0,,1,,,73,127
34448,note_off,100,0,0,,1,,,73,127
34457,note_off,9,0,0,,4,,,52,127
34458,note_on,1,0,0,,3,,,75,127
34458,note_on,0,0,0,,6,,,54,127
34558,note_off,100,0,0,,3,,,75,127
34567,note_on,9,0,0,,4,,,76,127
34667,note_off,100,0,0,,4,,,76,127
34676,note_on,9,0,0,,6,,,78,127
34776,note_off,100,0,0,,6,,,78,127
34785,note_off,9,0,0,,6,,,54,127
34786,note_on,1,0,0,,12,,,71,127
34786,note_on,0,0,0,,6,,,42,127
34886,note_off,100,0,0,,12,,,71,127
34895,note_on,9,0,0,,1,,,73,127
34995,note_off,100,0,0,,1,,,73,127
35004,note_on,9,0,0,,11,,,70,127
35104,note_off,100,0,0,,11,,,70,127
35113,note_off,9,0,0,,6,,,42,127
35114,note_on,1,0,0,,12,,,71,127
35114,note_on,0,0,0,,12,,,47,127
35214,note_off,100,0,0,,12,,,71,127
35223,note_on,9,0,0,,12,,,71,127
35323,note_off,100,0,0,,12,,,71,127
35332,note_on,9,0,0,,6,,,66,127
35432,note_off,100,0,0,,6,,,66,127
35441,note_off,9,0,0,,12,,,47,127
35442,note_on,1,0,0,,8,,,68,127
35442,note_on,0,0,0,,4,,,52,127
35542,note_off,100,0,0,,8,,,68,127
35551,note_on,9,0,0,,4,,,64,127
35651,note_off,100,0,0,,4,,,64,127
35660,note_on,9,0,0,,1,,,61,127
35760,note_off,100,0,0,,1,,,61,127
35769,note_off,9,0,0,,4,,,52,127
35770,note_on,1,0,0,,3,,,63,127
35770,note_on,0,0,0,,6,,,54,127
35870,note_off,100,0,0,,3,,,63,127
35879,note_on,9,0,0,,4,,,64,127
35979,note_off,100,0,0,,4,,,64,127
35988,note_on,9,0,0,,6,,,66,127
36088,note_off,100,0,0,,6,,,66,127
36097,note_off,9,0,0,,6,,,54,127
36098,note_on,1,0,0,,12,,,59,127
36098,note_on,0,0,0,,6,,,42,127
36198,note_off,100,0,0,,12,,,59,127
36207,note_on,9,0,0,,1,,,61,127
36307,note_off,100,0,0,,1,,,61,127
36316,note_on,9,0,0,,11,,,58,127
36416,note_off,100,0,0,,11,,,58,127
36425,note_off,9,0,0,,6,,,42,127
36426,note_on,1,0,0,,11,,,58,127
36426,note_on,0,0,0,,12,,,35,127
37080,note_off,654,0,0,,11,,,58,127
37086,note_on,6,0,0,,12,,,59,127
37669,note_off,583,0,0,,12,,,35,127
37812,note_off,143,0,0,,12,,,59,127
37825,note_on,13,0,0,,12,,,59,127
37825,note_on,0,0,0,,6,,,66,127
37935,note_on,110,0,0,,3,,,63,127
38035,note_off,100,0,0,,3,,,63,127
38039,note_off,4,0,0,,6,,,66,127
38044,note_on,5,0,0,,8,,,68,127
38144,note_off,100,0,0,,8,,,68,127
38153,note_on,9,0,0,,6,,,66,127
38263,note_on,110,0,0,,3,,,63,127
38363,note_off,100,0,0,,3,,,63,127
38367,note_off,4,0,0,,6,,,66,127
38372,note_on,5,0,0,,8,,,68,127
38472,note_off,100,0,0,,8,,,68,127
38481,note_off,9,0,0,,12,,,59,127
38482,note_on,1,0,0,,12,,,59,127
38482,note_on,0,0,0,,6,,,66,127
38592,note_on,110,0,0,,3,,,63,127
38692,note_off,100,0,0,,3,,,63,127
38696,note_off,4,0,0,,6,,,66,127
38701,note_on,5,0,0,,8,,,68,127
38801,note_off,100,0,0,,8,,,68,127
38810,note_on,9,0,0,,6,,,66,127
38920,note_on,110,0,0,,3,,,63,127
39020,note_off,100,0,0,,3,,,63,127
39024,note_off,4,0,0,,6,,,66,127
39029,note_on,5,0,0,,8,,,68,127
39129,note_off,100,0,0,,8,,,68,127
39138,note_off,9,0,0,,12,,,59,127
39139,note_on,1,0,0,,1,,,61,127
39139,note_on,0,0,0,,11,,,58,127
39139,note_on,0,0,0,,7,,,67,127
39249,note_on,110,0,0,,4,,,64,127
39328,note_off,79,0,0,,7,,,67,127
39349,note_off,21,0,0,,4,,,64,127
39358,note_on,9,0,0,,8,,,68,127
39458,note_off,100,0,0,,8,,,68,127
39467,note_on,9,0,0,,7,,,67,127
39577,note_on,110,0,0,,4,,,64,127
39656,note_off,79,0,0,,7,,,67,127
39677,note_off,21,0,0,,4,,,64,127
39686,note_on,9,0,0,,8,,,68,127
39786,note_off,100,0,0,,8,,,68,127
39795,note_off,9,0,0,,11,,,58,127
39795,note_off,0,0,0,,1,,,61,127
39796,note_on,1,0,0,,11,,,58,127
39796,note_on,0,0,0,,1,,,61,127
39796,note_on,0,0,0,,7,,,67,127
39906,note_on,110,0,0,,4,,,64,127
39968,note_off,62,0,0,,7,,,67,127
40007,note_off,39,0,0,,4,,,64,127
40016,note_on,9,0,0,,11,,,70,127
40116,note_off,100,0,0,,11,,,70,127
40125,note_off,9,0,0,,1,,,61,127
40125,note_off,0,0,0,,11,,,58,127
40126,note_on,1,0,0,,8,,,56,127
40126,note_on,0,0,0,,12,,,59,127
40126,note_on,0,0,0,,8,,,68,127
40236,note_on,110,0,0,,4,,,64,127
40298,note_off,62,0,0,,8,,,68,127
40337,note_off,39,0,0,,4,,,64,127
40346,note_on,9,0,0,,12,,,71,127
40446,note_off,100,0,0,,12,,,71,127
40455,note_off,9,0,0,,12,,,59,127
40455,note_off,0,0,0,,8,,,56,127
40456,note_on,1,0,0,,11,,,70,127
40456,note_on,0,0,0,,7,,,55,127
40456,note_on,0,0,0,,11,,,58,127
40566,note_on,110,0,0,,3,,,63,127
40611,note_off,45,0,0,,11,,,70,127
40667,note_off,56,0,0,,3,,,63,127
40676,note_on,9,0,0,,12,,,71,127
40776,note_off,100,0,0,,12,,,71,127
40785,note_on,9,0,0,,11,,,70,127
40895,note_on,110,0,0,,3,,,63,127
40940,note_off,45,0,0,,11,,,70,127
40996,note_off,56,0,0,,3,,,63,127
41005,note_on,9,0,0,,12,,,71,127
41105,note_off,100,0,0,,12,,,71,127
41114,note_off,9,0,0,,11,,,58,127
41114,note_off,0,0,0,,7,,,55,127
41115,note_on,1,0,0,,11,,,70,127
41115,note_on,0,0,0,,3,,,51,127
41115,note_on,0,0,0,,11,,,58,127
41225,note_on,110,0,0,,4,,,76,127
41325,note_off,100,0,0,,4,,,76,127
41334,note_on,9,0,0,,3,,,75,127
41434,note_off,100,0,0,,3,,,75,127
41440,note_off,6,0,0,,11,,,70,127
41443,note_on,3,0,0,,1,,,73,127
41443,note_on,0,0,0,,3,,,75,127
41543,note_off,100,0,0,,3,,,75,127
41543,note_off,0,0,0,,1,,,73,127
41552,note_on,9,0,0,,12,,,71,127
41652,note_off,100,0,0,,12,,,71,127
41661,note_on,9,0,0,,11,,,70,127
41687,note_off,26,0,0,,11,,,58,127
41687,note_off,0,0,0,,3,,,51,127
41762,note_off,75,0,0,,11,,,70,127
41771,note_on,9,0,0,,8,,,80,127
41771,note_on,0,0,0,,8,,,68,127
41881,note_on,110,0,0,,12,,,71,127
41981,note_off,100,0,0,,12,,,71,127
41990,note_on,9,0,0,,11,,,70,127
42090,note_off,100,0,0,,11,,,70,127
42099,note_off,9,0,0,,8,,,68,127
42100,note_on,1,0,0,,12,,,71,127
42100,note_on,0,0,0,,6,,,66,127
42200,note_off,100,0,0,,12,,,71,127
42209,note_on,9,0,0,,11,,,70,127
42309,note_off,100,0,0,,11,,,70,127
42318,note_on,9,0,0,,12,,,71,127
42418,note_off,100,0,0,,12,,,71,127
42427,note_off,9,0,0,,6,,,66,127
42427,note_off,0,0,0,,8,,,80,127
42428,note_on,1,0,0,,8,,,80,127
42428,note_on,0,0,0,,5,,,65,127
42538,note_on,110,0,0,,12,,,71,127
42638,note_off,100,0,0,,12,,,71,127
42647,note_on,9,0,0,,11,,,70,127
42747,note_off,100,0,0,,11,,,70,127
42756,note_off,9,0,0,,5,,,65,127
42757,note_on,1,0,0,,12,,,71,127
42757,note_on,0,0,0,,3,,,63,127
42857,note_off,100,0,0,,12,,,71,127
42866,note_on,9,0,0,,11,,,70,127
42966,note_off,100,0,0,,11,,,70,127
42975,note_on,9,0,0,,12,,,71,127
43075,note_off,100,0,0,,12,,,71,127
43084,note_off,9,0,0,,3,,,63,127
43084,note_off,0,0,0,,8,,,80,127
43085,note_on,1,0,0,,8,,,80,127
43085,note_on,0,0,0,,5,,,65,127
43085,note_on,0,0,0,,2,,,62,127
43195,note_on,110,0,0,,12,,,71,127
43295,note_off,100,0,0,,12,,,71,127
43304,note_on,9,0,0,,11,,,70,127
43404,note_off,100,0,0,,11,,,70,127
43413,note_on,9,0,0,,12,,,71,127
43513,note_off,100,0,0,,12,,,71,127
43522,note_on,9,0,0,,11,,,70,127
43622,note_off,100,0,0,,11,,,70,127
43631,note_on,9,0,0,,12,,,71,127
43731,note_off,100,0,0,,12,,,71,127
43740,note_off,9,0,0,,2,,,62,127
43740,note_off,0,0,0,,5,,,65,127
43740,note_off,0,0,0,,8,,,80,127
43741,note_on,1,0,0,,8,,,80,127
43741,note_on,0,0,0,,11,,,58,127
43741,note_on,0,0,0,,5,,,65,127
43741,note_on,0,0,0,,2,,,62,127
43841,note_off,100,0,0,,8,,,80,127
43850,note_on,9,0,0,,12,,,83,127
43950,note_off,100,0,0,,12,,,83,127
43959,note_on,9,0,0,,11,,,82,127
44059,note_off,100,0,0,,11,,,82,127
44068,note_on,9,0,0,,8,,,80,127
44068,note_on,0,0,0,,11,,,82,127
44168,note_off,100,0,0,,11,,,82,127
44168,note_off,0,0,0,,8,,,80,127
44177,note_on,9,0,0,,6,,,78,127
44277,note_off,100,0,0,,6,,,78,127
44286,note_on,9,0,0,,5,,,77,127
44355,note_off,69,0,0,,2,,,62,127
44355,note_off,0,0,0,,5,,,65,127
44387,note_off,32,0,0,,5,,,77,127
44396,note_off,9,0,0,,11,,,58,127
44397,note_on,1,0,0,,3,,,75,127
44397,note_on,0,0,0,,12,,,59,127
44507,note_on,110,0,0,,6,,,66,127
44607,note_off,100,0,0,,6,,,66,127
44616,note_on,9,0,0,,5,,,65,127
44716,note_off,100,0,0,,5,,,65,127
44725,note_on,9,0,0,,6,,,66,127
44825,note_off,100,0,0,,6,,,66,127
44834,note_on,9,0,0,,5,,,65,127
44934,note_off,100,0,0,,5,,,65,127
44943,note_on,9,0,0,,6,,,66,127
45043,note_off,100,0,0,,6,,,66,127
45052,note_off,9,0,0,,12,,,59,127
45052,note_off,0,0,0,,3,,,75,127
45053,note_on,1,0,0,,3,,,75,127
45053,note_on,0,0,0,,11,,,58,127
45163,note_on,110,0,0,,6,,,66,127
45263,note_off,100,0,0,,6,,,66,127
45272,note_on,9,0,0,,5,,,65,127
45372,note_off,100,0,0,,5,,,65,127
45381,note_on,9,0,0,,6,,,66,127
45481,note_off,100,0,0,,6,,,66,127
45490,note_on,9,0,0,,5,,,65,127
45590,note_off,100,0,0,,5,,,65,127
45599,note_on,9,0,0,,6,,,66,127
45699,note_off,100,0,0,,6,,,66,127
45708,note_off,9,0,0,,11,,,58,127
45708,note_off,0,0,0,,3,,,75,127
45709,note_on,1,0,0,,3,,,75,127
45709,note_on,0,0,0,,8,,,56,127
45709,note_on,0,0,0,,12,,,59,127
45819,note_on,110,0,0,,12,,,71,127
45919,note_off,100,0,0,,12,,,71,127
45928,note_on,9,0,0,,11,,,70,127
46028,note_off,100,0,0,,11,,,70,127
46037,note_on,9,0,0,,12,,,71,127
46137,note_off,100,0,0,,12,,,71,127
46146,note_on,9,0,0,,11,,,70,127
46246,note_off,100,0,0,,11,,,70,127
46255,note_on,9,0,0,,12,,,71,127
46355,note_off,100,0,0,,12,,,71,127
46364,note_off,9,0,0,,12,,,59,127
46364,note_off,0,0,0,,8,,,56,127
46364,note_off,0,0,0,,3,,,75,127
46365,note_on,1,0,0,,5,,,77,127
46365,note_on,0,0,0,,2,,,74,127
46365,note_on,0,0,0,,8,,,56,127
46365,note_on,0,0,0,,5,,,65,127
46365,note_on,0,0,0,,12,,,59,127
46475,note_on,110,0,0,,12,,,71,127
46575,note_off,100,0,0,,12,,,71,127
46584,note_on,9,0,0,,11,,,70,127
46684,note_off,100,0,0,,11,,,70,127
46690,note_off,6,0,0,,2,,,74,127
46693,note_on,3,0,0,,12,,,71,127
46793,note_off,100,0,0,,12,,,71,127
46802,note_on,9,0,0,,11,,,70,127
46902,note_off,100,0,0,,11,,,70,127
46911,note_on,9,0,0,,12,,,71,127
47011,note_off,100,0,0,,12,,,71,127
47020,note_off,9,0,0,,12,,,59,127
47020,note_off,0,0,0,,5,,,65,127
47020,note_off,0,0,0,,8,,,56,127
47020,note_off,0,0,0,,5,,,77,127
47021,note_on,1,0,0,,6,,,78,127
47021,note_on,0,0,0,,6,,,54,127
47131,note_on,110,0,0,,1,,,73,127
47231,note_off,100,0,0,,1,,,73,127
47240,note_on,9,0,0,,11,,,70,127
47340,note_off,100,0,0,,11,,,70,127
47346,note_off,6,0,0,,6,,,54,127
47346,note_off,0,0,0,,6,,,78,127
47349,note_on,3,0,0,,6,,,66,127
47459,note_on,110,0,0,,1,,,61,127
47559,note_off,100,0,0,,1,,,61,127
47568,note_on,9,0,0,,11,,,58,127
47668,note_off,100,0,0,,11,,,58,127
47674,note_off,6,0,0,,6,,,66,127
47677,note_on,3,0,0,,6,,,54,127
47787,note_on,110,0,0,,1,,,49,127
47887,note_off,100,0,0,,1,,,49,127
47896,note_on,9,0,0,,11,,,46,127
47996,note_off,100,0,0,,11,,,46,127
48002,note_off,6,0,0,,6,,,54,127
48005,note_on,3,0,0,,6,,,42,127
48115,note_on,110,0,0,,11,,,46,127
48215,note_off,100,0,0,,11,,,46,127
48224,note_on,9,0,0,,1,,,49,127
48279,note_off,55,0,0,,6,,,42,127
48324,note_off,45,0,0,,1,,,49,127
48333,note_on,9,0,0,,6,,,66,127
48333,note_on,0,0,0,,1,,,73,127
48333,note_on,0,0,0,,6,,,42,127
48333,note_on,0,0,0,,6,,,54,127
48443,note_on,110,0,0,,11,,,70,127
48543,note_off,100,0,0,,11,,,70,127
48547,note_off,4,0,0,,1,,,73,127
48552,note_on,5,0,0,,2,,,74,127
48652,note_off,100,0,0,,2,,,74,127
48661,note_on,9,0,0,,1,,,73,127
48771,note_on,110,0,0,,11,,,70,127
48871,note_off,100,0,0,,11,,,70,127
48875,note_off,4,0,0,,1,,,73,127
48880,note_on,5,0,0,,2,,,74,127
48980,note_off,100,0,0,,2,,,74,127
48989,note_off,9,0,0,,6,,,54,127
48989,note_off,0,0,0,,6,,,42,127
48989,note_off,0,0,0,,6,,,66,127
48990,note_on,1,0,0,,6,,,66,127
48990,note_on,0,0,0,,1,,,73,127
48990,note_on,0,0,0,,6,,,42,127
48990,note_on,0,0,0,,6,,,54,127
49100,note_on,110,0,0,,11,,,70,127
49200,note_off,100,0,0,,11,,,70,127
49204,note_off,4,0,0,,1,,,73,127
49209,note_on,5,0,0,,2,,,74,127
49309,note_off,100,0,0,,2,,,74,127
49318,note_on,9,0,0,,1,,,73,127
49428,note_on,110,0,0,,11,,,70,127
49528,note_off,100,0,0,,11,,,70,127
49532,note_off,4,0,0,,1,,,73,127
49537,note_on,5,0,0,,2,,,74,127
49637,note_off,100,0,0,,2,,,74,127
49646,note_off,9,0,0,,6,,,54,127
49646,note_off,0,0,0,,6,,,42,127
49646,note_off,0,0,0,,6,,,66,127
49647,note_on,1,0,0,,7,,,67,127
49647,note_on,0,0,0,,1,,,73,127
49647,note_on,0,0,0,,4,,,40,127
49647,note_on,0,0,0,,4,,,52,127
49757,note_on,110,0,0,,11,,,70,127
49857,note_off,100,0,0,,11,,,70,127
49861,note_off,4,0,0,,1,,,73,127
49866,note_on,5,0,0,,2,,,74,127
49966,note_off,100,0,0,,2,,,74,127
49975,note_on,9,0,0,,1,,,73,127
50085,note_on,110,0,0,,11,,,70,127
50138,note_off,53,0,0,,1,,,73,127
50185,note_off,47,0,0,,11,,,70,127
50194,note_on,9,0,0,,2,,,74,127
50294,note_off,100,0,0,,2,,,74,127
50303,note_off,9,0,0,,4,,,52,127
50303,note_off,0,0,0,,4,,,40,127
50303,note_off,0,0,0,,7,,,67,127
50304,note_on,1,0,0,,1,,,73,127
50304,note_on,0,0,0,,7,,,67,127
50304,note_on,0,0,0,,4,,,40,127
50304,note_on,0,0,0,,4,,,52,127
50414,note_on,110,0,0,,7,,,79,127
50514,note_off,100,0,0,,7,,,79,127
50523,note_on,9,0,0,,6,,,78,127
50623,note_off,100,0,0,,6,,,78,127
50629,note_off,6,0,0,,7,,,67,127
50629,note_off,0,0,0,,1,,,73,127
50632,note_on,3,0,0,,4,,,76,127
50632,note_on,0,0,0,,6,,,78,127
50732,note_off,100,0,0,,6,,,78,127
50732,note_off,0,0,0,,4,,,76,127
50741,note_on,9,0,0,,2,,,74,127
50841,note_off,100,0,0,,2,,,74,127
50850,note_on,9,0,0,,1,,,73,127
50950,note_off,100,0,0,,1,,,73,127
50950,note_off,0,0,0,,4,,,52,127
50950,note_off,0,0,0,,4,,,40,127
50959,note_on,9,0,0,,12,,,71,127
50959,note_on,0,0,0,,2,,,38,127
50959,note_on,0,0,0,,2,,,50,127
51069,note_on,110,0,0,,6,,,66,127
51169,note_off,100,0,0,,6,,,66,127
51173,note_off,4,0,0,,12,,,71,127
51178,note_on,5,0,0,,1,,,73,127
51278,note_off,100,0,0,,1,,,73,127
51287,note_on,9,0,0,,12,,,71,127
51397,note_on,110,0,0,,6,,,66,127
51497,note_off,100,0,0,,6,,,66,127
51501,note_off,4,0,0,,12,,,71,127
51506,note_on,5,0,0,,1,,,73,127
51606,note_off,100,0,0,,1,,,73,127
51615,note_off,9,0,0,,2,,,50,127
51615,note_off,0,0,0,,2,,,38,127
51616,note_on,1,0,0,,12,,,71,127
51616,note_on,0,0,0,,2,,,38,127
51616,note_on,0,0,0,,2,,,50,127
51726,note_on,110,0,0,,6,,,66,127
51826,note_off,100,0,0,,6,,,66,127
51830,note_off,4,0,0,,12,,,71,127
51835,note_on,5,0,0,,0,,,72,127
51935,note_off,100,0,0,,0,,,72,127
51944,note_on,9,0,0,,12,,,71,127
52054,note_on,110,0,0,,5,,,65,127
52154,note_off,100,0,0,,5,,,65,127
52158,note_off,4,0,0,,12,,,71,127
52163,note_on,5,0,0,,0,,,72,127
52263,note_off,100,0,0,,0,,,72,127
52272,note_off,9,0,0,,2,,,50,127
52272,note_off,0,0,0,,2,,,38,127
52273,note_on,1,0,0,,12,,,71,127
52273,note_on,0,0,0,,2,,,38,127
52273,note_on,0,0,0,,2,,,50,127
52383,note_on,110,0,0,,4,,,64,127
52483,note_off,100,0,0,,4,,,64,127
52487,note_off,4,0,0,,12,,,71,127
52492,note_on,5,0,0,,0,,,72,127
52592,note_off,100,0,0,,0,,,72,127
52601,note_on,9,0,0,,12,,,71,127
52711,note_on,110,0,0,,4,,,64,127
52764,note_off,53,0,0,,12,,,71,127
52811,note_off,47,0,0,,4,,,64,127
52820,note_on,9,0,0,,0,,,72,127
52920,note_off,100,0,0,,0,,,72,127
52929,note_off,9,0,0,,2,,,50,127
52929,note_off,0,0,0,,2,,,38,127
52930,note_on,1,0,0,,12,,,71,127
52930,note_on,0,0,0,,2,,,38,127
52930,note_on,0,0,0,,2,,,50,127
53040,note_on,110,0,0,,5,,,77,127
53140,note_off,100,0,0,,5,,,77,127
53149,note_on,9,0,0,,4,,,76,127
53249,note_off,100,0,0,,4,,,76,127
53255,note_off,6,0,0,,12,,,71,127
53258,note_on,3,0,0,,2,,,74,127
53258,note_on,0,0,0,,4,,,76,127
53358,note_off,100,0,0,,4,,,76,127
53358,note_off,0,0,0,,2,,,74,127
53367,note_on,9,0,0,,0,,,72,127
53467,note_off,100,0,0,,0,,,72,127
53476,note_on,9,0,0,,12,,,71,127
53576,note_off,100,0,0,,12,,,71,127
53585,note_off,9,0,0,,2,,,50,127
53585,note_off,0,0,0,,2,,,38,127
53586,note_on,1,0,0,,10,,,69,127
53586,note_on,0,0,0,,0,,,36,127
53586,note_on,0,0,0,,0,,,48,127
53696,note_on,110,0,0,,4,,,64,127
53801,note_off,105,0,0,,10,,,69,127
53806,note_on,5,0,0,,12,,,71,127
53906,note_off,100,0,0,,12,,,71,127
53915,note_on,9,0,0,,10,,,69,127
54021,note_off,106,0,0,,4,,,64,127
54024,note_on,3,0,0,,4,,,64,127
54129,note_off,105,0,0,,10,,,69,127
54134,note_on,5,0,0,,12,,,71,127
54234,note_off,100,0,0,,12,,,71,127
54238,note_off,4,0,0,,4,,,64,127
54242,note_off,4,0,0,,0,,,48,127
54242,note_off,0,0,0,,0,,,36,127
54243,note_on,1,0,0,,10,,,69,127
54243,note_on,0,0,0,,0,,,48,127
54243,note_on,0,0,0,,0,,,36,127
54353,note_on,110,0,0,,10,,,81,127
54453,note_off,100,0,0,,10,,,81,127
54462,note_on,9,0,0,,7,,,79,127
54562,note_off,100,0,0,,7,,,79,127
54568,note_off,6,0,0,,10,,,69,127
54571,note_on,3,0,0,,7,,,79,127
54571,note_on,0,0,0,,10,,,81,127
54671,note_off,100,0,0,,10,,,81,127
54671,note_off,0,0,0,,7,,,79,127
54680,note_on,9,0,0,,6,,,78,127
54780,note_off,100,0,0,,6,,,78,127
54789,note_on,9,0,0,,4,,,76,127
54889,note_off,100,0,0,,4,,,76,127
54898,note_off,9,0,0,,0,,,36,127
54898,note_off,0,0,0,,0,,,48,127
54899,note_on,1,0,0,,3,,,75,127
54899,note_on,0,0,0,,12,,,47,127
54899,note_on,0,0,0,,12,,,35,127
54999,note_off,100,0,0,,3,,,75,127
55008,note_on,9,0,0,,4,,,76,127
55108,note_off,100,0,0,,4,,,76,127
55117,note_on,9,0,0,,3,,,75,127
55217,note_off,100,0,0,,3,,,75,127
55226,note_off,9,0,0,,12,,,35,127
55226,note_off,0,0,0,,12,,,47,127
55227,note_on,1,0,0,,4,,,76,127
55227,note_on,0,0,0,,0,,,36,127
55227,note_on,0,0,0,,0,,,48,127
55327,note_off,100,0,0,,4,,,76,127
55336,note_on,9,0,0,,3,,,75,127
55436,note_off,100,0,0,,3,,,75,127
55445,note_on,9,0,0,,4,,,76,127
55545,note_off,100,0,0,,4,,,76,127
55554,note_off,9,0,0,,0,,,48,127
55554,note_off,0,0,0,,0,,,36,127
55555,note_on,1,0,0,,3,,,75,127
55555,note_on,0,0,0,,12,,,47,127
55555,note_on,0,0,0,,12,,,35,127
55655,note_off,100,0,0,,3,,,75,127
55664,note_on,9,0,0,,4,,,76,127
55764,note_off,100,0,0,,4,,,76,127
55773,note_on,9,0,0,,3,,,75,127
55873,note_off,100,0,0,,3,,,75,127
55882,note_off,9,0,0,,12,,,35,127
55882,note_off,0,0,0,,12,,,47,127
55883,note_on,1,0,0,,4,,,76,127
55883,note_on,0,0,0,,0,,,36,127
55883,note_on,0,0,0,,0,,,48,127
55883,note_on,0,0,0,,6,,,78,127
55983,note_off,100,0,0,,6,,,78,127
55983,note_off,0,0,0,,4,,,76,127
55992,note_on,9,0,0,,3,,,75,127
56092,note_off,100,0,0,,3,,,75,127
56101,note_on,9,0,0,,4,,,76,127
56201,note_off,100,0,0,,4,,,76,127
56210,note_off,9,0,0,,0,,,48,127
56210,note_off,0,0,0,,0,,,36,127
56211,note_on,1,0,0,,12,,,83,127
56211,note_on,0,0,0,,12,,,47,127
56211,note_on,0,0,0,,12,,,35,127
56311,note_off,100,0,0,,12,,,83,127
56320,note_on,9,0,0,,6,,,78,127
56420,note_off,100,0,0,,6,,,78,127
56429,note_on,9,0,0,,3,,,75,127
56529,note_off,100,0,0,,3,,,75,127
56538,note_on,9,0,0,,12,,,71,127
56638,note_off,100,0,0,,12,,,71,127
56647,note_on,9,0,0,,6,,,66,127
56747,note_off,100,0,0,,6,,,66,127
56756,note_on,9,0,0,,3,,,63,127
56856,note_off,100,0,0,,3,,,63,127
56865,note_off,9,0,0,,12,,,47,127
56866,note_on,1,0,0,,12,,,59,127
56966,note_off,100,0,0,,12,,,59,127
56975,note_on,9,0,0,,6,,,54,127
57075,note_off,100,0,0,,6,,,54,127
57084,note_on,9,0,0,,3,,,51,127
57184,note_off,100,0,0,,3,,,51,127
57193,note_on,9,0,0,,12,,,47,127
57293,note_off,100,0,0,,12,,,47,127
57302,note_on,9,0,0,,6,,,42,127
57402,note_off,100,0,0,,6,,,42,127
57405,note_off,3,0,0,,12,,,35,127
57412,note_on,7,0,0,,3,,,39,127
57512,note_off,100,0,0,,3,,,39,127
57521,note_on,9,0,0,,12,,,83,127
57521,note_on,0,0,0,,12,,,35,127
57621,note_off,100,0,0,,12,,,83,127
57630,note_on,9,0,0,,6,,,78,127
57730,note_off,100,0,0,,6,,,78,127
57739,note_on,9,0,0,,3,,,75,127
57839,note_off,100,0,0,,3,,,75,127
57848,note_off,9,0,0,,12,,,35,127
57849,note_on,1,0,0,,12,,,71,127
57849,note_on,0,0,0,,12,,,59,127
57949,note_off,100,0,0,,12,,,71,127
57958,note_on,9,0,0,,3,,,75,127
58058,note_off,100,0,0,,3,,,75,127
58067,note_on,9,0,0,,12,,,83,127
58167,note_off,100,0,0,,12,,,83,127
58176,note_off,9,0,0,,12,,,59,127
58177,note_on,1,0,0,,0,,,84,127
58177,note_on,0,0,0,,10,,,57,127
58287,note_on,110,0,0,,0,,,72,127
58387,note_off,100,0,0,,0,,,72,127
58396,note_off,9,0,0,,0,,,84,127
58397,note_on,1,0,0,,3,,,75,127
58497,note_off,100,0,0,,3,,,75,127
58506,note_off,9,0,0,,10,,,57,127
58507,note_on,1,0,0,,3,,,87,127
58507,note_on,0,0,0,,6,,,54,127
58617,note_on,110,0,0,,3,,,75,127
58717,note_off,100,0,0,,3,,,75,127
58726,note_off,9,0,0,,3,,,87,127
58727,note_on,1,0,0,,6,,,78,127
58827,note_off,100,0,0,,6,,,78,127
58836,note_off,9,0,0,,6,,,54,127
58837,note_on,1,0,0,,4,,,88,127
58837,note_on,0,0,0,,7,,,55,127
58947,note_on,110,0,0,,4,,,76,127
59047,note_off,100,0,0,,4,,,76,127
59056,note_off,9,0,0,,4,,,88,127
59057,note_on,1,0,0,,7,,,79,127
59157,note_off,100,0,0,,7,,,79,127
59166,note_off,9,0,0,,7,,,55,127
59167,note_on,1,0,0,,12,,,83,127
59167,note_on,0,0,0,,4,,,52,127
59267,note_off,100,0,0,,12,,,83,127
59276,note_on,9,0,0,,10,,,81,127
59376,note_off,100,0,0,,10,,,81,127
59385,note_on,9,0,0,,7,,,79,127
59485,note_off,100,0,0,,7,,,79,127
59494,note_off,9,0,0,,4,,,52,127
59495,note_on,1,0,0,,6,,,78,127
59495,note_on,0,0,0,,10,,,57,127
59595,note_off,100,0,0,,6,,,78,127
59604,note_on,9,0,0,,7,,,79,127
59704,note_off,100,0,0,,7,,,79,127
59713,note_on,9,0,0,,10,,,81,127
59813,note_off,100,0,0,,10,,,81,127
59822,note_off,9,0,0,,10,,,57,127
59823,note_on,1,0,0,,7,,,79,127
59823,note_on,0,0,0,,0,,,48,127
59823,note_on,0,0,0,,10,,,81,127
59923,note_off,100,0,0,,10,,,81,127
59923,note_off,0,0,0,,7,,,79,127
59932,note_on,9,0,0,,6,,,78,127
60032,note_off,100,0,0,,6,,,78,127
60041,note_on,9,0,0,,4,,,76,127
60141,note_off,100,0,0,,4,,,76,127
60150,note_off,9,0,0,,0,,,48,127
60151,note_on,1,0,0,,12,,,83,127
60151,note_on,0,0,0,,12,,,47,127
60261,note_on,110,0,0,,6,,,78,127
60361,note_off,100,0,0,,6,,,78,127
60370,note_on,9,0,0,,3,,,75,127
60470,note_off,100,0,0,,3,,,75,127
60476,note_off,6,0,0,,12,,,47,127
60476,note_off,0,0,0,,12,,,83,127
60479,note_on,3,0,0,,12,,,71,127
60589,note_on,110,0,0,,6,,,66,127
60689,note_off,100,0,0,,6,,,66,127
60698,note_on,9,0,0,,3,,,63,127
60798,note_off,100,0,0,,3,,,63,127
60804,note_off,6,0,0,,12,,,71,127
60807,note_on,3,0,0,,12,,,59,127
60917,note_on,110,0,0,,6,,,54,127
61017,note_off,100,0,0,,6,,,54,127
61026,note_on,9,0,0,,3,,,51,127
61126,note_off,100,0,0,,3,,,51,127
61132,note_off,6,0,0,,12,,,59,127
61135,note_on,3,0,0,,12,,,47,127
61245,note_on,110,0,0,,6,,,42,127
61345,note_off,100,0,0,,6,,,42,127
61354,note_on,9,0,0,,3,,,39,127
61454,note_off,100,0,0,,3,,,39,127
61460,note_off,6,0,0,,12,,,47,127
61463,note_on,3,0,0,,12,,,83,127
61463,note_on,0,0,0,,12,,,35,127
61573,note_on,110,0,0,,6,,,78,127
61673,note_off,100,0,0,,6,,,78,127
61682,note_on,9,0,0,,3,,,75,127
61782,note_off,100,0,0,,3,,,75,127
61791,note_off,9,0,0,,12,,,35,127
61792,note_on,1,0,0,,12,,,71,127
61792,note_on,0,0,0,,12,,,59,127
61892,note_off,100,0,0,,12,,,71,127
61901,note_off,9,0,0,,12,,,83,127
61901,note_on,0,0,0,,3,,,75,127
62001,note_off,100,0,0,,3,,,75,127
62010,note_on,9,0,0,,12,,,83,127
62110,note_off,100,0,0,,12,,,83,127
62119,note_off,9,0,0,,12,,,59,127
62120,note_on,1,0,0,,0,,,84,127
62120,note_on,0,0,0,,10,,,57,127
62230,note_on,110,0,0,,0,,,72,127
62330,note_off,100,0,0,,0,,,72,127
62339,note_on,9,0,0,,3,,,75,127
62439,note_off,100,0,0,,3,,,75,127
62445,note_off,6,0,0,,0,,,84,127
62448,note_off,3,0,0,,10,,,57,127
62449,note_on,1,0,0,,3,,,87,127
62449,note_on,0,0,0,,6,,,54,127
62559,note_on,110,0,0,,3,,,75,127
62659,note_off,100,0,0,,3,,,75,127
62668,note_on,9,0,0,,6,,,78,127
62768,note_off,100,0,0,,6,,,78,127
62774,note_off,6,0,0,,3,,,87,127
62777,note_off,3,0,0,,6,,,54,127
62778,note_on,1,0,0,,4,,,88,127
62778,note_on,0,0,0,,7,,,55,127
62888,note_on,110,0,0,,4,,,76,127
62988,note_off,100,0,0,,4,,,76,127
62992,note_off,4,0,0,,4,,,88,127
62997,note_on,5,0,0,,7,,,79,127
63097,note_off,100,0,0,,7,,,79,127
63106,note_off,9,0,0,,7,,,55,127
63107,note_on,1,0,0,,12,,,83,127
63107,note_on,0,0,0,,4,,,52,127
63207,note_off,100,0,0,,12,,,83,127
63216,note_on,9,0,0,,10,,,81,127
63316,note_off,100,0,0,,10,,,81,127
63325,note_on,9,0,0,,7,,,79,127
63425,note_off,100,0,0,,7,,,79,127
63434,note_off,9,0,0,,4,,,52,127
63435,note_on,1,0,0,,6,,,78,127
63435,note_on,0,0,0,,10,,,45,127
63535,note_off,100,0,0,,6,,,78,127
63544,note_on,9,0,0,,7,,,79,127
63644,note_off,100,0,0,,7,,,79,127
63653,note_on,9,0,0,,10,,,81,127
63753,note_off,100,0,0,,10,,,81,127
63762,note_off,9,0,0,,10,,,45,127
63763,note_on,1,0,0,,7,,,79,127
63763,note_on,0,0,0,,12,,,47,127
63863,note_off,100,0,0,,7,,,79,127
63872,note_on,9,0,0,,10,,,81,127
63972,note_off,100,0,0,,10,,,81,127
63981,note_on,9,0,0,,6,,,78,127
64081,note_off,100,0,0,,6,,,78,127
64090,note_off,9,0,0,,12,,,47,127
64091,note_on,1,0,0,,6,,,78,127
64091,note_on,0,0,0,,0,,,48,127
64624,note_on,533,0,0,,4,,,76,127
64628,note_off,4,0,0,,6,,,78,127
64913,note_off,285,0,0,,0,,,48,127
65281,note_off,368,0,0,,4,,,76,127
65654,note_on,373,0,0,,7,,,67,127
65654,note_on,0,0,0,,0,,,60,127
65654,note_on,0,0,0,,7,,,79,127
65764,note_on,110,0,0,,4,,,76,127
65864,note_off,100,0,0,,4,,,76,127
65868,note_off,4,0,0,,7,,,79,127
65873,note_on,5,0,0,,10,,,81,127
65973,note_off,100,0,0,,10,,,81,127
65982,note_on,9,0,0,,7,,,79,127
66092,note_on,110,0,0,,4,,,76,127
66192,note_off,100,0,0,,4,,,76,127
66196,note_off,4,0,0,,7,,,79,127
66201,note_on,5,0,0,,10,,,81,127
66301,note_off,100,0,0,,10,,,81,127
66310,note_off,9,0,0,,0,,,60,127
66310,note_off,0,0,0,,7,,,67,127
66311,note_on,1,0,0,,7,,,67,127
66311,note_on,0,0,0,,0,,,60,127
66311,note_on,0,0,0,,7,,,79,127
66421,note_on,110,0,0,,4,,,76,127
66521,note_off,100,0,0,,4,,,76,127
66525,note_off,4,0,0,,7,,,79,127
66530,note_on,5,0,0,,10,,,81,127
66630,note_off,100,0,0,,10,,,81,127
66639,note_on,9,0,0,,7,,,79,127
66749,note_on,110,0,0,,4,,,76,127
66849,note_off,100,0,0,,4,,,76,127
66853,note_off,4,0,0,,7,,,79,127
66858,note_on,5,0,0,,10,,,81,127
66958,note_off,100,0,0,,10,,,81,127
66967,note_off,9,0,0,,0,,,60,127
66967,note_off,0,0,0,,7,,,67,127
66968,note_on,1,0,0,,7,,,67,127
66968,note_on,0,0,0,,0,,,60,127
66968,note_on,0,0,0,,7,,,79,127
67078,note_on,110,0,0,,4,,,76,127
67178,note_off,100,0,0,,4,,,76,127
67182,note_off,4,0,0,,7,,,79,127
67187,note_on,5,0,0,,10,,,81,127
67287,note_off,100,0,0,,10,,,81,127
67296,note_off,9,0,0,,0,,,60,127
67296,note_off,0,0,0,,7,,,67,127
67297,note_on,1,0,0,,10,,,69,127
67297,note_on,0,0,0,,0,,,60,127
67297,note_on,0,0,0,,7,,,79,127
67407,note_on,110,0,0,,4,,,76,127
67507,note_off,100,0,0,,4,,,76,127
67511,note_off,4,0,0,,7,,,79,127
67516,note_on,5,0,0,,10,,,81,127
67616,note_off,100,0,0,,10,,,81,127
67625,note_off,9,0,0,,0,,,60,127
67625,note_off,0,0,0,,10,,,69,127
67626,note_on,1,0,0,,12,,,71,127
67626,note_on,0,0,0,,12,,,59,127
67626,note_on,0,0,0,,7,,,79,127
67736,note_on,110,0,0,,4,,,76,127
67836,note_off,100,0,0,,4,,,76,127
67840,note_off,4,0,0,,7,,,79,127
67845,note_on,5,0,0,,12,,,83,127
67945,note_off,100,0,0,,12,,,83,127
67954,note_on,9,0,0,,7,,,79,127
68064,note_on,110,0,0,,4,,,76,127
68091,note_off,27,0,0,,7,,,79,127
68164,note_off,73,0,0,,4,,,76,127
68173,note_on,9,0,0,,7,,,79,127
68273,note_off,100,0,0,,7,,,79,127
68282,note_off,9,0,0,,12,,,59,127
68282,note_off,0,0,0,,12,,,71,127
68283,note_on,1,0,0,,12,,,59,127
68283,note_on,0,0,0,,12,,,47,127
68283,note_on,0,0,0,,6,,,78,127
68383,note_off,100,0,0,,6,,,78,127
68392,note_on,9,0,0,,7,,,79,127
68492,note_off,100,0,0,,7,,,79,127
68501,note_on,9,0,0,,10,,,81,127
68601,note_off,100,0,0,,10,,,81,127
68610,note_on,9,0,0,,4,,,76,127
68710,note_off,100,0,0,,4,,,76,127
68719,note_on,9,0,0,,6,,,78,127
68819,note_off,100,0,0,,6,,,78,127
68828,note_on,9,0,0,,3,,,75,127
68928,note_off,100,0,0,,3,,,75,127
68937,note_off,9,0,0,,12,,,47,127
68937,note_off,0,0,0,,12,,,59,127
68938,note_on,1,0,0,,0,,,48,127
68938,note_on,0,0,0,,3,,,75,127
69332,note_on,394,0,0,,4,,,76,127
69335,note_off,3,0,0,,3,,,75,127
69924,note_off,589,0,0,,0,,,48,127
69933,note_off,9,0,0,,4,,,76,127
70255,note_on,322,0,0,,7,,,55,127
70255,note_on,0,0,0,,0,,,48,127
70255,note_on,0,0,0,,7,,,67,127
70355,note_off,100,0,0,,7,,,67,127
70364,note_on,9,0,0,,4,,,64,127
70474,note_on,110,0,0,,10,,,69,127
70574,note_off,100,0,0,,10,,,69,127
70583,note_on,9,0,0,,7,,,67,127
70683,note_off,100,0,0,,7,,,67,127
70689,note_off,6,0,0,,4,,,64,127
70692,note_on,3,0,0,,4,,,64,127
70802,note_on,110,0,0,,10,,,69,127
70902,note_off,100,0,0,,10,,,69,127
70911,note_off,9,0,0,,0,,,48,127
70911,note_off,0,0,0,,7,,,55,127
70912,note_on,1,0,0,,0,,,48,127
70912,note_on,0,0,0,,7,,,55,127
70912,note_on,0,0,0,,7,,,67,127
71012,note_off,100,0,0,,7,,,67,127
71018,note_off,6,0,0,,4,,,64,127
71021,note_on,3,0,0,,4,,,64,127
71131,note_on,110,0,0,,10,,,69,127
71231,note_off,100,0,0,,10,,,69,127
71240,note_on,9,0,0,,7,,,67,127
71340,note_off,100,0,0,,7,,,67,127
71346,note_off,6,0,0,,4,,,64,127
71349,note_on,3,0,0,,4,,,64,127
71459,note_on,110,0,0,,10,,,69,127
71559,note_off,100,0,0,,10,,,69,127
71568,note_off,9,0,0,,7,,,55,127
71568,note_off,0,0,0,,0,,,48,127
71569,note_on,1,0,0,,7,,,55,127
71569,note_on,0,0,0,,0,,,48,127
71569,note_on,0,0,0,,7,,,67,127
71669,note_off,100,0,0,,7,,,67,127
71675,note_off,6,0,0,,4,,,64,127
71678,note_on,3,0,0,,4,,,64,127
71788,note_on,110,0,0,,10,,,69,127
71888,note_off,100,0,0,,10,,,69,127
71897,note_off,9,0,0,,0,,,48,127
71897,note_off,0,0,0,,7,,,55,127
71898,note_on,1,0,0,,10,,,57,127
71898,note_on,0,0,0,,0,,,48,127
71898,note_on,0,0,0,,7,,,67,127
71998,note_off,100,0,0,,7,,,67,127
72004,note_off,6,0,0,,4,,,64,127
72007,note_on,3,0,0,,4,,,64,127
72117,note_on,110,0,0,,10,,,69,127
72217,note_off,100,0,0,,10,,,69,127
72226,note_off,9,0,0,,0,,,48,127
72226,note_off,0,0,0,,10,,,57,127
72227,note_on,1,0,0,,12,,,59,127
72227,note_on,0,0,0,,12,,,47,127
72227,note_on,0,0,0,,7,,,67,127
72327,note_off,100,0,0,,7,,,67,127
72333,note_off,6,0,0,,4,,,64,127
72336,note_on,3,0,0,,4,,,64,127
72446,note_on,110,0,0,,12,,,71,127
72546,note_off,100,0,0,,12,,,71,127
72555,note_on,9,0,0,,7,,,67,127
72655,note_off,100,0,0,,7,,,67,127
72661,note_off,6,0,0,,4,,,64,127
72664,note_on,3,0,0,,4,,,64,127
72764,note_off,100,0,0,,4,,,64,127
72773,note_on,9,0,0,,7,,,67,127
72873,note_off,100,0,0,,7,,,67,127
72882,note_off,9,0,0,,12,,,47,127
72882,note_off,0,0,0,,12,,,59,127
72883,note_on,1,0,0,,12,,,35,127
72883,note_on,0,0,0,,12,,,47,127
72883,note_on,0,0,0,,6,,,66,127
72983,note_off,100,0,0,,6,,,66,127
72992,note_on,9,0,0,,7,,,67,127
73092,note_off,100,0,0,,7,,,67,127
73101,note_on,9,0,0,,10,,,69,127
73201,note_off,100,0,0,,10,,,69,127
73210,note_on,9,0,0,,4,,,64,127
73310,note_off,100,0,0,,4,,,64,127
73319,note_on,9,0,0,,6,,,66,127
73419,note_off,100,0,0,,6,,,66,127
73428,note_on,9,0,0,,3,,,63,127
73454,note_off,26,0,0,,12,,,47,127
73454,note_off,0,0,0,,12,,,35,127
73529,note_off,75,0,0,,3,,,63,127
73538,note_on,9,0,0,,4,,,40,127
73538,note_on,0,0,0,,4,,,64,127
73668,note_on,130,0,0,,4,,,76,127
73768,note_off,100,0,0,,4,,,76,127
73777,note_off,9,0,0,,4,,,64,127
73777,note_on,0,0,0,,12,,,71,127
73865,note_off,88,0,0,,4,,,40,127
73877,note_off,12,0,0,,12,,,71,127
73886,note_on,9,0,0,,10,,,45,127
73886,note_on,0,0,0,,1,,,73,127
73986,note_off,100,0,0,,1,,,73,127
73995,note_on,9,0,0,,10,,,81,127
74095,note_off,100,0,0,,10,,,81,127
74104,note_on,9,0,0,,6,,,78,127
74204,note_off,100,0,0,,6,,,78,127
74213,note_off,9,0,0,,10,,,45,127
74214,note_on,1,0,0,,12,,,47,127
74214,note_on,0,0,0,,8,,,80,127
74314,note_off,100,0,0,,8,,,80,127
74323,note_on,9,0,0,,10,,,81,127
74423,note_off,100,0,0,,10,,,81,127
74432,note_on,9,0,0,,12,,,83,127
74532,note_off,100,0,0,,12,,,83,127
74541,note_off,9,0,0,,12,,,47,127
74542,note_on,1,0,0,,12,,,35,127
74542,note_on,0,0,0,,4,,,76,127
74642,note_off,100,0,0,,4,,,76,127
74651,note_on,9,0,0,,6,,,78,127
74751,note_off,100,0,0,,6,,,78,127
74760,note_on,9,0,0,,3,,,75,127
74860,note_off,100,0,0,,3,,,75,127
74869,note_off,9,0,0,,12,,,35,127
74870,note_on,1,0,0,,4,,,76,127
74870,note_on,0,0,0,,4,,,40,127
74972,note_off,102,0,0,,4,,,76,127
74998,note_on,26,0,0,,4,,,76,127
75100,note_off,102,0,0,,4,,,76,127
75110,note_on,10,0,0,,12,,,71,127
75204,note_off,94,0,0,,4,,,40,127
75212,note_off,8,0,0,,12,,,71,127
75223,note_on,11,0,0,,10,,,45,127
75223,note_on,0,0,0,,1,,,73,127
75325,note_off,102,0,0,,1,,,73,127
75336,note_on,11,0,0,,10,,,69,127
75438,note_off,102,0,0,,10,,,69,127
75449,note_on,11,0,0,,6,,,66,127
75551,note_off,102,0,0,,6,,,66,127
75557,note_off,6,0,0,,10,,,45,127
75562,note_on,5,0,0,,12,,,47,127
75562,note_on,0,0,0,,8,,,68,127
75664,note_off,102,0,0,,8,,,68,127
75675,note_on,11,0,0,,10,,,69,127
75777,note_off,102,0,0,,10,,,69,127
75787,note_on,10,0,0,,12,,,71,127
75889,note_off,102,0,0,,12,,,71,127
75896,note_off,7,0,0,,12,,,47,127
75900,note_on,4,0,0,,12,,,35,127
75900,note_on,0,0,0,,4,,,64,127
76002,note_off,102,0,0,,4,,,64,127
76018,note_on,16,0,0,,6,,,66,127
76144,note_off,126,0,0,,6,,,66,127
76144,note_on,0,0,0,,3,,,63,127
76268,note_off,124,0,0,,3,,,63,127
76283,note_off,15,0,0,,12,,,35,127
76291,note_on,8,0,0,,4,,,40,127
76291,note_on,0,0,0,,3,,,63,127
77072,note_off,781,0,0,,3,,,63,127
77077,note_on,5,0,0,,4,,,64,127
78797,note_off,1720,0,0,,4,,,40,127
78879,note_off,82,0,0,,4,,,64,127
82944,end_of_track,4065,1,0,,,,,,
