tick,type,time,meta,track,program,channel,pitch,tempo,note,velocity
0,copyright,0,1,0,,,,,,
0,program_change,0,0,0,6,0,,,,
0,pitchwheel,0,0,0,,0,0,,,
0,program_change,0,0,0,6,1,,,,
0,pitchwheel,0,0,0,,1,-590,,,
0,program_change,0,0,0,6,2,,,,
0,pitchwheel,0,0,0,,2,-272,,,
0,program_change,0,0,0,6,3,,,,
0,pitchwheel,0,0,0,,3,-353,,,
0,program_change,0,0,0,6,4,,,,
0,pitchwheel,0,0,0,,4,-560,,,
0,program_change,0,0,0,6,5,,,,
0,pitchwheel,0,0,0,,5,-80,,,
0,program_change,0,0,0,6,6,,,,
0,pitchwheel,0,0,0,,6,-625,,,
0,program_change,0,0,0,6,7,,,,
0,pitchwheel,0,0,0,,7,-130,,,
0,program_change,0,0,0,6,8,,,,
0,pitchwheel,0,0,0,,8,-512,,,
0,program_change,0,0,0,6,10,,,,
0,pitchwheel,0,0,0,,10,-464,,,
0,program_change,0,0,0,6,11,,,,
0,pitchwheel,0,0,0,,11,-208,,,
0,program_change,0,0,0,6,12,,,,
0,pitchwheel,0,0,0,,12,-553,,,
0,set_tempo,0,1,0,,,,500000,,
96,note_on,96,0,0,,10,,,81,127
284,note_off,188,0,0,,10,,,81,127
288,note_on,4,0,0,,10,,,81,127
479,note_off,191,0,0,,10,,,81,127
480,note_on,1,0,0,,4,,,76,127
671,note_off,191,0,0,,4,,,76,127
672,note_on,1,0,0,,0,,,72,127
863,note_off,191,0,0,,0,,,72,127
864,note_on,1,0,0,,10,,,69,127
1055,note_off,191,0,0,,10,,,69,127
1056,note_on,1,0,0,,4,,,64,127
1247,note_off,191,0,0,,4,,,64,127
1248,note_on,1,0,0,,10,,,45,127
1248,note_on,0,0,0,,0,,,60,127
1439,note_off,191,0,0,,0,,,60,127
1439,note_off,0,0,0,,10,,,45,127
1440,note_on,1,0,0,,0,,,48,127
1440,note_on,0,0,0,,10,,,57,127
1631,note_off,191,0,0,,0,,,48,127
1632,note_on,1,0,0,,4,,,52,127
1820,note_off,188,0,0,,10,,,57,127
1823,note_off,3,0,0,,4,,,52,127
1824,note_on,1,0,0,,10,,,57,127
2015,note_off,191,0,0,,10,,,57,127
2016,note_on,1,0,0,,0,,,60,127
2207,note_off,191,0,0,,0,,,60,127
2208,note_on,1,0,0,,10,,,57,127
2208,note_on,0,0,0,,10,,,69,127
2208,note_on,0,0,0,,0,,,72,127
2399,note_off,191,0,0,,0,,,72,127
2399,note_off,0,0,0,,10,,,69,127
2399,note_off,0,0,0,,10,,,57,127
2400,note_on,1,0,0,,4,,,64,127
2400,note_on,0,0,0,,0,,,72,127
2400,note_on,0,0,0,,10,,,69,127
2463,note_off,63,0,0,,10,,,69,127
2463,note_off,0,0,0,,0,,,72,127
2464,note_on,1,0,0,,8,,,68,127
2464,note_on,0,0,0,,12,,,71,127
2527,note_off,63,0,0,,12,,,71,127
2527,note_off,0,0,0,,8,,,68,127
2528,note_on,1,0,0,,10,,,69,127
2528,note_on,0,0,0,,0,,,72,127
2591,note_off,63,0,0,,0,,,72,127
2591,note_off,0,0,0,,10,,,69,127
2591,note_off,0,0,0,,4,,,64,127
2592,note_on,1,0,0,,4,,,52,127
2592,note_on,0,0,0,,8,,,68,127
2592,note_on,0,0,0,,12,,,71,127
2655,note_off,63,0,0,,12,,,71,127
2655,note_off,0,0,0,,8,,,68,127
2656,note_on,1,0,0,,10,,,69,127
2656,note_on,0,0,0,,0,,,72,127
2719,note_off,63,0,0,,0,,,72,127
2719,note_off,0,0,0,,10,,,69,127
2720,note_on,1,0,0,,8,,,68,127
2720,note_on,0,0,0,,12,,,71,127
2783,note_off,63,0,0,,12,,,71,127
2783,note_off,0,0,0,,8,,,68,127
2783,note_off,0,0,0,,4,,,52,127
2784,note_on,1,0,0,,3,,,63,127
2784,note_on,0,0,0,,0,,,72,127
2784,note_on,0,0,0,,10,,,69,127
2975,note_off,191,0,0,,10,,,69,127
2975,note_off,0,0,0,,0,,,72,127
2975,note_off,0,0,0,,3,,,63,127
2976,note_on,1,0,0,,4,,,64,127
2976,note_on,0,0,0,,10,,,69,127
2976,note_on,0,0,0,,0,,,72,127
3039,note_off,63,0,0,,0,,,72,127
3039,note_off,0,0,0,,10,,,69,127
3040,note_on,1,0,0,,8,,,68,127
3040,note_on,0,0,0,,12,,,71,127
3103,note_off,63,0,0,,12,,,71,127
3103,note_off,0,0,0,,8,,,68,127
3104,note_on,1,0,0,,10,,,69,127
3104,note_on,0,0,0,,0,,,72,127
3167,note_off,63,0,0,,0,,,72,127
3167,note_off,0,0,0,,10,,,69,127
3167,note_off,0,0,0,,4,,,64,127
3168,note_on,1,0,0,,4,,,52,127
3168,note_on,0,0,0,,8,,,68,127
3168,note_on,0,0,0,,12,,,71,127
3231,note_off,63,0,0,,12,,,71,127
3231,note_off,0,0,0,,8,,,68,127
3232,note_on,1,0,0,,10,,,69,127
3232,note_on,0,0,0,,0,,,72,127
3295,note_off,63,0,0,,0,,,72,127
3295,note_off,0,0,0,,10,,,69,127
3296,note_on,1,0,0,,8,,,68,127
3296,note_on,0,0,0,,12,,,71,127
3359,note_off,63,0,0,,12,,,71,127
3359,note_off,0,0,0,,8,,,68,127
3359,note_off,0,0,0,,4,,,52,127
3360,note_on,1,0,0,,3,,,63,127
3360,note_on,0,0,0,,0,,,72,127
3360,note_on,0,0,0,,10,,,69,127
3551,note_off,191,0,0,,10,,,69,127
3551,note_off,0,0,0,,0,,,72,127
3551,note_off,0,0,0,,3,,,63,127
3552,note_on,1,0,0,,4,,,64,127
3552,note_on,0,0,0,,10,,,69,127
3552,note_on,0,0,0,,0,,,72,127
3599,note_off,47,0,0,,0,,,72,127
3599,note_off,0,0,0,,10,,,69,127
3600,note_on,1,0,0,,8,,,68,127
3600,note_on,0,0,0,,12,,,71,127
3647,note_off,47,0,0,,12,,,71,127
3647,note_off,0,0,0,,8,,,68,127
3648,note_on,1,0,0,,0,,,72,127
3648,note_on,0,0,0,,10,,,69,127
3695,note_off,47,0,0,,10,,,69,127
3695,note_off,0,0,0,,0,,,72,127
3696,note_on,1,0,0,,12,,,71,127
3696,note_on,0,0,0,,8,,,68,127
3743,note_off,47,0,0,,4,,,64,127
3744,note_on,1,0,0,,4,,,52,127
3935,note_off,191,0,0,,4,,,52,127
3936,note_on,1,0,0,,3,,,63,127
4127,note_off,191,0,0,,3,,,63,127
4128,note_off,1,0,0,,8,,,68,127
4128,note_off,0,0,0,,12,,,71,127
4128,note_on,0,0,0,,4,,,64,127
4319,note_off,191,0,0,,4,,,64,127
4320,note_on,1,0,0,,4,,,52,127
4511,note_off,191,0,0,,4,,,52,127
4512,note_on,1,0,0,,3,,,63,127
4512,note_on,0,0,0,,0,,,72,127
4512,note_on,0,0,0,,10,,,69,127
4703,note_off,191,0,0,,10,,,69,127
4703,note_off,0,0,0,,0,,,72,127
4703,note_off,0,0,0,,3,,,63,127
4704,note_on,1,0,0,,4,,,64,127
4704,note_on,0,0,0,,10,,,69,127
4704,note_on,0,0,0,,0,,,72,127
4767,note_off,63,0,0,,0,,,72,127
4767,note_off,0,0,0,,10,,,69,127
4768,note_on,1,0,0,,8,,,68,127
4768,note_on,0,0,0,,12,,,71,127
4831,note_off,63,0,0,,12,,,71,127
4831,note_off,0,0,0,,8,,,68,127
4832,note_on,1,0,0,,10,,,69,127
4832,note_on,0,0,0,,0,,,72,127
4895,note_off,63,0,0,,0,,,72,127
4895,note_off,0,0,0,,10,,,69,127
4895,note_off,0,0,0,,4,,,64,127
4896,note_on,1,0,0,,4,,,52,127
4896,note_on,0,0,0,,8,,,68,127
4896,note_on,0,0,0,,12,,,71,127
4959,note_off,63,0,0,,12,,,71,127
4959,note_off,0,0,0,,8,,,68,127
4960,note_on,1,0,0,,10,,,69,127
4960,note_on,0,0,0,,0,,,72,127
5023,note_off,63,0,0,,0,,,72,127
5023,note_off,0,0,0,,10,,,69,127
5024,note_on,1,0,0,,8,,,68,127
5024,note_on,0,0,0,,12,,,71,127
5087,note_off,63,0,0,,12,,,71,127
5087,note_off,0,0,0,,8,,,68,127
5087,note_off,0,0,0,,4,,,52,127
5088,note_on,1,0,0,,3,,,63,127
5088,note_on,0,0,0,,0,,,72,127
5088,note_on,0,0,0,,10,,,69,127
5279,note_off,191,0,0,,10,,,69,127
5279,note_off,0,0,0,,0,,,72,127
5279,note_off,0,0,0,,3,,,63,127
5280,note_on,1,0,0,,4,,,64,127
5280,note_on,0,0,0,,10,,,69,127
5280,note_on,0,0,0,,0,,,72,127
5343,note_off,63,0,0,,0,,,72,127
5343,note_off,0,0,0,,10,,,69,127
5344,note_on,1,0,0,,8,,,68,127
5344,note_on,0,0,0,,12,,,71,127
5407,note_off,63,0,0,,12,,,71,127
5407,note_off,0,0,0,,8,,,68,127
5408,note_on,1,0,0,,10,,,69,127
5408,note_on,0,0,0,,0,,,72,127
5471,note_off,63,0,0,,0,,,72,127
5471,note_off,0,0,0,,10,,,69,127
5471,note_off,0,0,0,,4,,,64,127
5472,note_on,1,0,0,,4,,,52,127
5472,note_on,0,0,0,,8,,,68,127
5472,note_on,0,0,0,,12,,,71,127
5535,note_off,63,0,0,,12,,,71,127
5535,note_off,0,0,0,,8,,,68,127
5536,note_on,1,0,0,,10,,,69,127
5536,note_on,0,0,0,,0,,,72,127
5599,note_off,63,0,0,,0,,,72,127
5599,note_off,0,0,0,,10,,,69,127
5600,note_on,1,0,0,,8,,,68,127
5600,note_on,0,0,0,,12,,,71,127
5663,note_off,63,0,0,,12,,,71,127
5663,note_off,0,0,0,,8,,,68,127
5663,note_off,0,0,0,,4,,,52,127
5664,note_on,1,0,0,,3,,,63,127
5664,note_on,0,0,0,,0,,,72,127
5664,note_on,0,0,0,,10,,,69,127
5855,note_off,191,0,0,,10,,,69,127
5855,note_off,0,0,0,,0,,,72,127
5855,note_off,0,0,0,,3,,,63,127
5856,note_on,1,0,0,,4,,,64,127
5856,note_on,0,0,0,,0,,,72,127
5856,note_on,0,0,0,,10,,,69,127
5903,note_off,47,0,0,,10,,,69,127
5903,note_off,0,0,0,,0,,,72,127
5904,note_on,1,0,0,,12,,,71,127
5904,note_on,0,0,0,,8,,,68,127
5951,note_off,47,0,0,,8,,,68,127
5951,note_off,0,0,0,,12,,,71,127
5952,note_on,1,0,0,,10,,,69,127
5952,note_on,0,0,0,,0,,,72,127
5999,note_off,47,0,0,,0,,,72,127
5999,note_off,0,0,0,,10,,,69,127
6000,note_on,1,0,0,,8,,,68,127
6000,note_on,0,0,0,,12,,,71,127
6047,note_off,47,0,0,,4,,,64,127
6048,note_on,1,0,0,,4,,,52,127
6239,note_off,191,0,0,,4,,,52,127
6240,note_on,1,0,0,,3,,,63,127
6431,note_off,191,0,0,,3,,,63,127
6432,note_off,1,0,0,,12,,,71,127
6432,note_off,0,0,0,,8,,,68,127
6432,note_on,0,0,0,,4,,,64,127
6623,note_off,191,0,0,,4,,,64,127
6624,note_on,1,0,0,,4,,,52,127
6815,note_off,191,0,0,,4,,,52,127
6816,note_on,1,0,0,,6,,,54,127
6816,note_on,0,0,0,,0,,,72,127
6816,note_on,0,0,0,,10,,,69,127
7007,note_off,191,0,0,,10,,,69,127
7007,note_off,0,0,0,,0,,,72,127
7007,note_off,0,0,0,,6,,,54,127
7008,note_on,1,0,0,,7,,,55,127
7008,note_on,0,0,0,,10,,,69,127
7008,note_on,0,0,0,,0,,,72,127
7071,note_off,63,0,0,,0,,,72,127
7071,note_off,0,0,0,,10,,,69,127
7072,note_on,1,0,0,,7,,,67,127
7072,note_on,0,0,0,,12,,,71,127
7135,note_off,63,0,0,,12,,,71,127
7135,note_off,0,0,0,,7,,,67,127
7136,note_on,1,0,0,,10,,,69,127
7136,note_on,0,0,0,,0,,,72,127
7199,note_off,63,0,0,,0,,,72,127
7199,note_off,0,0,0,,10,,,69,127
7199,note_off,0,0,0,,7,,,55,127
7200,note_on,1,0,0,,7,,,43,127
7200,note_on,0,0,0,,7,,,67,127
7200,note_on,0,0,0,,12,,,71,127
7263,note_off,63,0,0,,12,,,71,127
7263,note_off,0,0,0,,7,,,67,127
7264,note_on,1,0,0,,10,,,69,127
7264,note_on,0,0,0,,0,,,72,127
7327,note_off,63,0,0,,0,,,72,127
7327,note_off,0,0,0,,10,,,69,127
7328,note_on,1,0,0,,7,,,67,127
7328,note_on,0,0,0,,12,,,71,127
7391,note_off,63,0,0,,12,,,71,127
7391,note_off,0,0,0,,7,,,67,127
7391,note_off,0,0,0,,7,,,43,127
7392,note_on,1,0,0,,6,,,54,127
7392,note_on,0,0,0,,0,,,72,127
7392,note_on,0,0,0,,10,,,69,127
7583,note_off,191,0,0,,10,,,69,127
7583,note_off,0,0,0,,0,,,72,127
7583,note_off,0,0,0,,6,,,54,127
7584,note_on,1,0,0,,7,,,55,127
7584,note_on,0,0,0,,10,,,69,127
7584,note_on,0,0,0,,0,,,72,127
7647,note_off,63,0,0,,0,,,72,127
7647,note_off,0,0,0,,10,,,69,127
7648,note_on,1,0,0,,7,,,67,127
7648,note_on,0,0,0,,12,,,71,127
7711,note_off,63,0,0,,12,,,71,127
7711,note_off,0,0,0,,7,,,67,127
7712,note_on,1,0,0,,10,,,69,127
7712,note_on,0,0,0,,0,,,72,127
7775,note_off,63,0,0,,0,,,72,127
7775,note_off,0,0,0,,10,,,69,127
7775,note_off,0,0,0,,7,,,55,127
7776,note_on,1,0,0,,7,,,43,127
7776,note_on,0,0,0,,7,,,67,127
7776,note_on,0,0,0,,12,,,71,127
7839,note_off,63,0,0,,12,,,71,127
7839,note_off,0,0,0,,7,,,67,127
7840,note_on,1,0,0,,10,,,69,127
7840,note_on,0,0,0,,0,,,72,127
7903,note_off,63,0,0,,0,,,72,127
7903,note_off,0,0,0,,10,,,69,127
7904,note_on,1,0,0,,7,,,67,127
7904,note_on,0,0,0,,12,,,71,127
7967,note_off,63,0,0,,12,,,71,127
7967,note_off,0,0,0,,7,,,67,127
7967,note_off,0,0,0,,7,,,43,127
7968,note_on,1,0,0,,6,,,54,127
7968,note_on,0,0,0,,10,,,69,127
7968,note_on,0,0,0,,0,,,72,127
8159,note_off,191,0,0,,0,,,72,127
8159,note_off,0,0,0,,10,,,69,127
8159,note_off,0,0,0,,6,,,54,127
8160,note_on,1,0,0,,7,,,55,127
8160,note_on,0,0,0,,0,,,72,127
8160,note_on,0,0,0,,10,,,69,127
8207,note_off,47,0,0,,10,,,69,127
8207,note_off,0,0,0,,0,,,72,127
8208,note_on,1,0,0,,7,,,67,127
8208,note_on,0,0,0,,12,,,71,127
8255,note_off,47,0,0,,12,,,71,127
8255,note_off,0,0,0,,7,,,67,127
8256,note_on,1,0,0,,0,,,72,127
8256,note_on,0,0,0,,10,,,69,127
8303,note_off,47,0,0,,10,,,69,127
8303,note_off,0,0,0,,0,,,72,127
8304,note_on,1,0,0,,7,,,67,127
8304,note_on,0,0,0,,12,,,71,127
8351,note_off,47,0,0,,7,,,55,127
8352,note_on,1,0,0,,7,,,43,127
8543,note_off,191,0,0,,7,,,43,127
8544,note_on,1,0,0,,6,,,54,127
8735,note_off,191,0,0,,6,,,54,127
8736,note_off,1,0,0,,12,,,71,127
8736,note_off,0,0,0,,7,,,67,127
8736,note_on,0,0,0,,7,,,55,127
8927,note_off,191,0,0,,7,,,55,127
8928,note_on,1,0,0,,7,,,43,127
9119,note_off,191,0,0,,7,,,43,127
9120,note_on,1,0,0,,4,,,52,127
9120,note_on,0,0,0,,4,,,64,127
9120,note_on,0,0,0,,0,,,72,127
9311,note_off,191,0,0,,0,,,72,127
9311,note_off,0,0,0,,4,,,64,127
9311,note_off,0,0,0,,4,,,52,127
9312,note_on,1,0,0,,5,,,53,127
9312,note_on,0,0,0,,2,,,62,127
9312,note_on,0,0,0,,0,,,72,127
9503,note_off,191,0,0,,0,,,72,127
9503,note_off,0,0,0,,5,,,53,127
9504,note_on,1,0,0,,7,,,43,127
9504,note_on,0,0,0,,12,,,71,127
9695,note_off,191,0,0,,12,,,71,127
9695,note_off,0,0,0,,7,,,43,127
9695,note_off,0,0,0,,2,,,62,127
9696,note_on,1,0,0,,4,,,52,127
9696,note_on,0,0,0,,4,,,64,127
9696,note_on,0,0,0,,0,,,72,127
9887,note_off,191,0,0,,0,,,72,127
9887,note_off,0,0,0,,4,,,64,127
9887,note_off,0,0,0,,4,,,52,127
9888,note_on,1,0,0,,5,,,53,127
9888,note_on,0,0,0,,2,,,62,127
9888,note_on,0,0,0,,0,,,72,127
10079,note_off,191,0,0,,0,,,72,127
10079,note_off,0,0,0,,5,,,53,127
10080,note_on,1,0,0,,7,,,43,127
10080,note_on,0,0,0,,12,,,71,127
10271,note_off,191,0,0,,12,,,71,127
10271,note_off,0,0,0,,7,,,43,127
10271,note_off,0,0,0,,2,,,62,127
10272,note_on,1,0,0,,4,,,52,127
10272,note_on,0,0,0,,4,,,64,127
10272,note_on,0,0,0,,0,,,72,127
10463,note_off,191,0,0,,0,,,72,127
10463,note_off,0,0,0,,4,,,64,127
10463,note_off,0,0,0,,4,,,52,127
10464,note_on,1,0,0,,5,,,53,127
10464,note_on,0,0,0,,2,,,62,127
10464,note_on,0,0,0,,0,,,72,127
10655,note_off,191,0,0,,0,,,72,127
10655,note_off,0,0,0,,5,,,53,127
10656,note_on,1,0,0,,7,,,43,127
10656,note_on,0,0,0,,12,,,71,127
10847,note_off,191,0,0,,7,,,43,127
10848,note_on,1,0,0,,4,,,52,127
11039,note_off,191,0,0,,4,,,52,127
11039,note_off,0,0,0,,12,,,71,127
11039,note_off,0,0,0,,2,,,62,127
11040,note_on,1,0,0,,5,,,53,127
11231,note_off,191,0,0,,5,,,53,127
11232,note_on,1,0,0,,7,,,43,127
11423,note_off,191,0,0,,7,,,43,127
11424,note_on,1,0,0,,6,,,54,127
11424,note_on,0,0,0,,0,,,72,127
11424,note_on,0,0,0,,4,,,64,127
11615,note_off,191,0,0,,4,,,64,127
11615,note_off,0,0,0,,0,,,72,127
11615,note_off,0,0,0,,6,,,54,127
11616,note_on,1,0,0,,7,,,55,127
11616,note_on,0,0,0,,2,,,62,127
11616,note_on,0,0,0,,12,,,71,127
11807,note_off,191,0,0,,7,,,55,127
11808,note_on,1,0,0,,7,,,43,127
11976,note_off,168,0,0,,12,,,71,127
11976,note_off,0,0,0,,2,,,62,127
11999,note_off,23,0,0,,7,,,43,127
12000,note_on,1,0,0,,8,,,56,127
12000,note_on,0,0,0,,5,,,65,127
12000,note_on,0,0,0,,2,,,74,127
12191,note_off,191,0,0,,2,,,74,127
12191,note_off,0,0,0,,5,,,65,127
12191,note_off,0,0,0,,8,,,56,127
12192,note_on,1,0,0,,10,,,57,127
12192,note_on,0,0,0,,4,,,64,127
12192,note_on,0,0,0,,1,,,73,127
12383,note_off,191,0,0,,10,,,57,127
12384,note_on,1,0,0,,10,,,45,127
12552,note_off,168,0,0,,1,,,73,127
12552,note_off,0,0,0,,4,,,64,127
12575,note_off,23,0,0,,10,,,45,127
12576,note_on,1,0,0,,11,,,58,127
12576,note_on,0,0,0,,7,,,67,127
12576,note_on,0,0,0,,4,,,76,127
12767,note_off,191,0,0,,7,,,67,127
12767,note_off,0,0,0,,11,,,58,127
12768,note_on,1,0,0,,12,,,59,127
12768,note_on,0,0,0,,6,,,66,127
12959,note_off,191,0,0,,6,,,66,127
12959,note_off,0,0,0,,12,,,59,127
12959,note_off,0,0,0,,4,,,76,127
12960,note_on,1,0,0,,12,,,47,127
12960,note_on,0,0,0,,3,,,75,127
12960,note_on,0,0,0,,4,,,76,127
13055,note_off,95,0,0,,4,,,76,127
13055,note_off,0,0,0,,3,,,75,127
13056,note_on,1,0,0,,1,,,73,127
13151,note_off,95,0,0,,1,,,73,127
13152,note_on,1,0,0,,12,,,71,127
13343,note_off,191,0,0,,12,,,71,127
13343,note_off,0,0,0,,12,,,47,127
13344,note_on,1,0,0,,3,,,63,127
13344,note_on,0,0,0,,12,,,71,127
13440,note_on,96,0,0,,12,,,47,127
13487,note_off,47,0,0,,12,,,47,127
13488,note_on,1,0,0,,1,,,49,127
13535,note_off,47,0,0,,1,,,49,127
13536,note_on,1,0,0,,3,,,51,127
13583,note_off,47,0,0,,3,,,51,127
13584,note_on,1,0,0,,4,,,52,127
13631,note_off,47,0,0,,4,,,52,127
13632,note_on,1,0,0,,6,,,54,127
13679,note_off,47,0,0,,6,,,54,127
13680,note_on,1,0,0,,8,,,56,127
13727,note_off,47,0,0,,8,,,56,127
13727,note_off,0,0,0,,12,,,71,127
13727,note_off,0,0,0,,3,,,63,127
13728,note_on,1,0,0,,10,,,57,127
13728,note_on,0,0,0,,0,,,72,127
13728,note_on,0,0,0,,4,,,64,127
13919,note_off,191,0,0,,4,,,64,127
13919,note_off,0,0,0,,0,,,72,127
13920,note_on,1,0,0,,3,,,63,127
13920,note_on,0,0,0,,12,,,71,127
14015,note_off,95,0,0,,10,,,57,127
14016,note_on,1,0,0,,12,,,47,127
14063,note_off,47,0,0,,12,,,47,127
14064,note_on,1,0,0,,1,,,49,127
14111,note_off,47,0,0,,1,,,49,127
14112,note_on,1,0,0,,3,,,51,127
14159,note_off,47,0,0,,3,,,51,127
14160,note_on,1,0,0,,4,,,52,127
14207,note_off,47,0,0,,4,,,52,127
14208,note_on,1,0,0,,6,,,54,127
14255,note_off,47,0,0,,6,,,54,127
14256,note_on,1,0,0,,8,,,56,127
14303,note_off,47,0,0,,8,,,56,127
14303,note_off,0,0,0,,12,,,71,127
14303,note_off,0,0,0,,3,,,63,127
14304,note_on,1,0,0,,10,,,57,127
14304,note_on,0,0,0,,4,,,64,127
14304,note_on,0,0,0,,0,,,72,127
14495,note_off,191,0,0,,0,,,72,127
14495,note_off,0,0,0,,4,,,64,127
14496,note_on,1,0,0,,12,,,71,127
14496,note_on,0,0,0,,3,,,63,127
14591,note_off,95,0,0,,10,,,57,127
14592,note_on,1,0,0,,12,,,47,127
14639,note_off,47,0,0,,12,,,47,127
14640,note_on,1,0,0,,1,,,49,127
14687,note_off,47,0,0,,1,,,49,127
14688,note_on,1,0,0,,3,,,51,127
14735,note_off,47,0,0,,3,,,51,127
14736,note_on,1,0,0,,4,,,52,127
14783,note_off,47,0,0,,4,,,52,127
14784,note_on,1,0,0,,6,,,54,127
14831,note_off,47,0,0,,6,,,54,127
14832,note_on,1,0,0,,8,,,56,127
14879,note_off,47,0,0,,8,,,56,127
14879,note_off,0,0,0,,3,,,63,127
14879,note_off,0,0,0,,12,,,71,127
14880,note_on,1,0,0,,10,,,57,127
14880,note_on,0,0,0,,0,,,72,127
14880,note_on,0,0,0,,4,,,64,127
15071,note_off,191,0,0,,10,,,57,127
15072,note_on,1,0,0,,12,,,59,127
15072,note_on,0,0,0,,12,,,47,127
15167,note_off,95,0,0,,4,,,64,127
15167,note_off,0,0,0,,0,,,72,127
15168,note_on,1,0,0,,3,,,63,127
15215,note_off,47,0,0,,3,,,63,127
15216,note_on,1,0,0,,4,,,64,127
15263,note_off,47,0,0,,4,,,64,127
15264,note_on,1,0,0,,6,,,66,127
15311,note_off,47,0,0,,6,,,66,127
15312,note_on,1,0,0,,8,,,68,127
15359,note_off,47,0,0,,8,,,68,127
15360,note_on,1,0,0,,10,,,69,127
15407,note_off,47,0,0,,10,,,69,127
15408,note_on,1,0,0,,12,,,71,127
15455,note_off,47,0,0,,12,,,71,127
15455,note_off,0,0,0,,12,,,47,127
15455,note_off,0,0,0,,12,,,59,127
15456,note_on,1,0,0,,10,,,57,127
15456,note_on,0,0,0,,0,,,72,127
15647,note_off,191,0,0,,10,,,57,127
15648,note_on,1,0,0,,12,,,59,127
15648,note_on,0,0,0,,12,,,47,127
15743,note_off,95,0,0,,0,,,72,127
15744,note_on,1,0,0,,3,,,63,127
15791,note_off,47,0,0,,3,,,63,127
15792,note_on,1,0,0,,4,,,64,127
15839,note_off,47,0,0,,4,,,64,127
15840,note_on,1,0,0,,6,,,66,127
15887,note_off,47,0,0,,6,,,66,127
15888,note_on,1,0,0,,8,,,68,127
15935,note_off,47,0,0,,8,,,68,127
15936,note_on,1,0,0,,10,,,69,127
15983,note_off,47,0,0,,10,,,69,127
15984,note_on,1,0,0,,12,,,71,127
16031,note_off,47,0,0,,12,,,71,127
16031,note_off,0,0,0,,12,,,47,127
16031,note_off,0,0,0,,12,,,59,127
16032,note_on,1,0,0,,10,,,57,127
16032,note_on,0,0,0,,0,,,72,127
16223,note_off,191,0,0,,10,,,57,127
16224,note_on,1,0,0,,12,,,59,127
16224,note_on,0,0,0,,12,,,47,127
16319,note_off,95,0,0,,0,,,72,127
16320,note_on,1,0,0,,3,,,63,127
16367,note_off,47,0,0,,3,,,63,127
16368,note_on,1,0,0,,4,,,64,127
16415,note_off,47,0,0,,4,,,64,127
16416,note_on,1,0,0,,6,,,66,127
16463,note_off,47,0,0,,6,,,66,127
16464,note_on,1,0,0,,8,,,68,127
16511,note_off,47,0,0,,8,,,68,127
16512,note_on,1,0,0,,10,,,69,127
16559,note_off,47,0,0,,10,,,69,127
16560,note_on,1,0,0,,12,,,71,127
16607,note_off,47,0,0,,12,,,71,127
16607,note_off,0,0,0,,12,,,47,127
16607,note_off,0,0,0,,12,,,59,127
16608,note_on,1,0,0,,0,,,60,127
16608,note_on,0,0,0,,4,,,76,127
16799,note_off,191,0,0,,0,,,60,127
16800,note_on,1,0,0,,12,,,47,127
16800,note_on,0,0,0,,12,,,59,127
16991,note_off,191,0,0,,4,,,76,127
16992,note_on,1,0,0,,3,,,75,127
17183,note_off,191,0,0,,3,,,75,127
17183,note_off,0,0,0,,12,,,59,127
17183,note_off,0,0,0,,12,,,47,127
17184,note_on,1,0,0,,10,,,57,127
17184,note_on,0,0,0,,12,,,83,127
17375,note_off,191,0,0,,10,,,57,127
17376,note_on,1,0,0,,7,,,55,127
17567,note_off,191,0,0,,7,,,55,127
17567,note_off,0,0,0,,12,,,83,127
17568,note_on,1,0,0,,6,,,54,127
17568,note_on,0,0,0,,7,,,79,127
17759,note_off,191,0,0,,7,,,79,127
17759,note_off,0,0,0,,6,,,54,127
17760,note_on,1,0,0,,4,,,52,127
17760,note_on,0,0,0,,4,,,76,127
17951,note_off,191,0,0,,4,,,76,127
17951,note_off,0,0,0,,4,,,52,127
17952,note_on,1,0,0,,10,,,45,127
17952,note_on,0,0,0,,0,,,72,127
18143,note_off,191,0,0,,0,,,72,127
18144,note_on,1,0,0,,10,,,69,127
18335,note_off,191,0,0,,10,,,69,127
18335,note_off,0,0,0,,10,,,45,127
18336,note_on,1,0,0,,0,,,48,127
18336,note_on,0,0,0,,6,,,66,127
18527,note_off,191,0,0,,6,,,66,127
18527,note_off,0,0,0,,0,,,48,127
18528,note_on,1,0,0,,12,,,47,127
18528,note_on,0,0,0,,4,,,64,127
18719,note_off,191,0,0,,4,,,64,127
18719,note_off,0,0,0,,12,,,47,127
18720,note_on,1,0,0,,12,,,35,127
18720,note_on,0,0,0,,4,,,64,127
18911,note_off,191,0,0,,4,,,64,127
18912,note_on,1,0,0,,3,,,63,127
19103,note_off,191,0,0,,3,,,63,127
19103,note_off,0,0,0,,12,,,35,127
19104,note_on,1,0,0,,4,,,40,127
19104,note_on,0,0,0,,3,,,63,127
19295,note_off,191,0,0,,3,,,63,127
19296,note_on,1,0,0,,4,,,64,127
19584,note_off,288,0,0,,4,,,64,127
19679,note_off,95,0,0,,4,,,40,127
19680,note_on,1,0,0,,3,,,63,127
19680,note_on,0,0,0,,12,,,71,127
19776,note_on,96,0,0,,12,,,47,127
19823,note_off,47,0,0,,12,,,47,127
19824,note_on,1,0,0,,1,,,49,127
19871,note_off,47,0,0,,1,,,49,127
19872,note_on,1,0,0,,3,,,51,127
19919,note_off,47,0,0,,3,,,51,127
19920,note_on,1,0,0,,4,,,52,127
19967,note_off,47,0,0,,4,,,52,127
19968,note_on,1,0,0,,6,,,54,127
20015,note_off,47,0,0,,6,,,54,127
20016,note_on,1,0,0,,8,,,56,127
20063,note_off,47,0,0,,8,,,56,127
20063,note_off,0,0,0,,12,,,71,127
20063,note_off,0,0,0,,3,,,63,127
20064,note_on,1,0,0,,10,,,57,127
20064,note_on,0,0,0,,4,,,64,127
20064,note_on,0,0,0,,0,,,72,127
20255,note_off,191,0,0,,0,,,72,127
20255,note_off,0,0,0,,4,,,64,127
20256,note_on,1,0,0,,12,,,71,127
20256,note_on,0,0,0,,3,,,63,127
20351,note_off,95,0,0,,10,,,57,127
20352,note_on,1,0,0,,12,,,47,127
20399,note_off,47,0,0,,12,,,47,127
20400,note_on,1,0,0,,1,,,49,127
20447,note_off,47,0,0,,1,,,49,127
20448,note_on,1,0,0,,3,,,51,127
20495,note_off,47,0,0,,3,,,51,127
20496,note_on,1,0,0,,4,,,52,127
20543,note_off,47,0,0,,4,,,52,127
20544,note_on,1,0,0,,6,,,54,127
20591,note_off,47,0,0,,6,,,54,127
20592,note_on,1,0,0,,8,,,56,127
20639,note_off,47,0,0,,8,,,56,127
20639,note_off,0,0,0,,3,,,63,127
20639,note_off,0,0,0,,12,,,71,127
20640,note_on,1,0,0,,10,,,57,127
20640,note_on,0,0,0,,4,,,64,127
20640,note_on,0,0,0,,0,,,72,127
20831,note_off,191,0,0,,10,,,57,127
20832,note_on,1,0,0,,12,,,47,127
20832,note_on,0,0,0,,12,,,59,127
20927,note_off,95,0,0,,0,,,72,127
20927,note_off,0,0,0,,4,,,64,127
20928,note_on,1,0,0,,3,,,63,127
20975,note_off,47,0,0,,3,,,63,127
20976,note_on,1,0,0,,4,,,64,127
21023,note_off,47,0,0,,4,,,64,127
21024,note_on,1,0,0,,6,,,66,127
21071,note_off,47,0,0,,6,,,66,127
21072,note_on,1,0,0,,8,,,68,127
21119,note_off,47,0,0,,8,,,68,127
21120,note_on,1,0,0,,10,,,69,127
21167,note_off,47,0,0,,10,,,69,127
21168,note_on,1,0,0,,12,,,71,127
21215,note_off,47,0,0,,12,,,71,127
21215,note_off,0,0,0,,12,,,59,127
21215,note_off,0,0,0,,12,,,47,127
21216,note_on,1,0,0,,10,,,57,127
21216,note_on,0,0,0,,0,,,72,127
21407,note_off,191,0,0,,10,,,57,127
21408,note_on,1,0,0,,12,,,59,127
21408,note_on,0,0,0,,12,,,47,127
21503,note_off,95,0,0,,0,,,72,127
21504,note_on,1,0,0,,3,,,63,127
21551,note_off,47,0,0,,3,,,63,127
21552,note_on,1,0,0,,4,,,64,127
21599,note_off,47,0,0,,4,,,64,127
21600,note_on,1,0,0,,6,,,66,127
21647,note_off,47,0,0,,6,,,66,127
21648,note_on,1,0,0,,8,,,68,127
21695,note_off,47,0,0,,8,,,68,127
21696,note_on,1,0,0,,10,,,69,127
21743,note_off,47,0,0,,10,,,69,127
21744,note_on,1,0,0,,12,,,71,127
21791,note_off,47,0,0,,12,,,71,127
21791,note_off,0,0,0,,12,,,47,127
21791,note_off,0,0,0,,12,,,59,127
21792,note_on,1,0,0,,0,,,60,127
21792,note_on,0,0,0,,4,,,76,127
21983,note_off,191,0,0,,0,,,60,127
21984,note_on,1,0,0,,12,,,47,127
21984,note_on,0,0,0,,12,,,59,127
22175,note_off,191,0,0,,4,,,76,127
22176,note_on,1,0,0,,3,,,75,127
22367,note_off,191,0,0,,3,,,75,127
22367,note_off,0,0,0,,12,,,59,127
22367,note_off,0,0,0,,12,,,47,127
22368,note_on,1,0,0,,10,,,57,127
22368,note_on,0,0,0,,12,,,83,127
22559,note_off,191,0,0,,10,,,57,127
22560,note_on,1,0,0,,7,,,55,127
22751,note_off,191,0,0,,7,,,55,127
22751,note_off,0,0,0,,12,,,83,127
22752,note_on,1,0,0,,6,,,54,127
22752,note_on,0,0,0,,7,,,79,127
22943,note_off,191,0,0,,7,,,79,127
22943,note_off,0,0,0,,6,,,54,127
22944,note_on,1,0,0,,4,,,52,127
22944,note_on,0,0,0,,4,,,76,127
23135,note_off,191,0,0,,4,,,76,127
23135,note_off,0,0,0,,4,,,52,127
23136,note_on,1,0,0,,10,,,45,127
23136,note_on,0,0,0,,0,,,72,127
23327,note_off,191,0,0,,0,,,72,127
23328,note_on,1,0,0,,10,,,69,127
23519,note_off,191,0,0,,10,,,69,127
23519,note_off,0,0,0,,10,,,45,127
23520,note_on,1,0,0,,0,,,48,127
23520,note_on,0,0,0,,6,,,66,127
23711,note_off,191,0,0,,6,,,66,127
23711,note_off,0,0,0,,0,,,48,127
23712,note_on,1,0,0,,12,,,47,127
23712,note_on,0,0,0,,4,,,64,127
23903,note_off,191,0,0,,4,,,64,127
23903,note_off,0,0,0,,12,,,47,127
23904,note_on,1,0,0,,12,,,35,127
23904,note_on,0,0,0,,4,,,64,127
24095,note_off,191,0,0,,4,,,64,127
24096,note_on,1,0,0,,3,,,63,127
24240,note_off,144,0,0,,3,,,63,127
24287,note_off,47,0,0,,12,,,35,127
24288,note_on,1,0,0,,2,,,62,127
24288,note_on,0,0,0,,8,,,68,127
24480,note_on,192,0,0,,4,,,40,127
24671,note_off,191,0,0,,8,,,68,127
24671,note_off,0,0,0,,2,,,62,127
24672,note_on,1,0,0,,0,,,60,127
24672,note_on,0,0,0,,10,,,69,127
24863,note_off,191,0,0,,4,,,40,127
24864,note_on,1,0,0,,4,,,40,127
25055,note_off,191,0,0,,10,,,69,127
25055,note_off,0,0,0,,0,,,60,127
25056,note_on,1,0,0,,12,,,71,127
25056,note_on,0,0,0,,3,,,63,127
25247,note_off,191,0,0,,4,,,40,127
25248,note_on,1,0,0,,4,,,40,127
25439,note_off,191,0,0,,3,,,63,127
25439,note_off,0,0,0,,12,,,71,127
25440,note_on,1,0,0,,0,,,72,127
25440,note_on,0,0,0,,4,,,64,127
25631,note_off,191,0,0,,4,,,40,127
25632,note_on,1,0,0,,4,,,40,127
25823,note_off,191,0,0,,4,,,64,127
25823,note_off,0,0,0,,0,,,72,127
25824,note_on,1,0,0,,3,,,75,127
25824,note_on,0,0,0,,6,,,66,127
26015,note_off,191,0,0,,4,,,40,127
26016,note_on,1,0,0,,6,,,42,127
26207,note_off,191,0,0,,6,,,66,127
26207,note_off,0,0,0,,3,,,75,127
26208,note_on,1,0,0,,7,,,67,127
26208,note_on,0,0,0,,4,,,76,127
26399,note_off,191,0,0,,6,,,42,127
26400,note_on,1,0,0,,7,,,43,127
26591,note_off,191,0,0,,7,,,43,127
26592,note_on,1,0,0,,10,,,45,127
26688,note_off,96,0,0,,7,,,67,127
26783,note_off,95,0,0,,4,,,76,127
26784,note_on,1,0,0,,2,,,74,127
26879,note_off,95,0,0,,2,,,74,127
26880,note_on,1,0,0,,0,,,72,127
26975,note_off,95,0,0,,0,,,72,127
26976,note_on,1,0,0,,10,,,33,127
26976,note_on,0,0,0,,12,,,71,127
27071,note_off,95,0,0,,12,,,71,127
27072,note_on,1,0,0,,10,,,69,127
27167,note_off,95,0,0,,10,,,69,127
27167,note_off,0,0,0,,10,,,33,127
27167,note_off,0,0,0,,10,,,45,127
27168,note_on,1,0,0,,12,,,47,127
27168,note_on,0,0,0,,7,,,67,127
27263,note_off,95,0,0,,7,,,67,127
27264,note_on,1,0,0,,6,,,66,127
27359,note_off,95,0,0,,6,,,66,127
27360,note_on,1,0,0,,7,,,67,127
27455,note_off,95,0,0,,7,,,67,127
27456,note_on,1,0,0,,4,,,64,127
27551,note_off,95,0,0,,4,,,64,127
27552,note_on,1,0,0,,12,,,35,127
27552,note_on,0,0,0,,6,,,66,127
27647,note_off,95,0,0,,6,,,66,127
27648,note_on,1,0,0,,3,,,63,127
27728,note_off,80,0,0,,3,,,63,127
27743,note_off,15,0,0,,12,,,35,127
27743,note_off,0,0,0,,12,,,47,127
27744,note_on,1,0,0,,8,,,68,127
27744,note_on,0,0,0,,2,,,62,127
27936,note_on,192,0,0,,4,,,40,127
28127,note_off,191,0,0,,2,,,62,127
28127,note_off,0,0,0,,8,,,68,127
28128,note_on,1,0,0,,10,,,69,127
28128,note_on,0,0,0,,0,,,60,127
28319,note_off,191,0,0,,4,,,40,127
28320,note_on,1,0,0,,4,,,40,127
28511,note_off,191,0,0,,0,,,60,127
28511,note_off,0,0,0,,10,,,69,127
28512,note_on,1,0,0,,12,,,71,127
28512,note_on,0,0,0,,3,,,63,127
28703,note_off,191,0,0,,4,,,40,127
28704,note_on,1,0,0,,4,,,40,127
28895,note_off,191,0,0,,3,,,63,127
28895,note_off,0,0,0,,12,,,71,127
28896,note_on,1,0,0,,0,,,72,127
28896,note_on,0,0,0,,4,,,64,127
29087,note_off,191,0,0,,4,,,40,127
29088,note_on,1,0,0,,4,,,40,127
29279,note_off,191,0,0,,4,,,64,127
29279,note_off,0,0,0,,0,,,72,127
29280,note_on,1,0,0,,3,,,75,127
29280,note_on,0,0,0,,6,,,66,127
29471,note_off,191,0,0,,4,,,40,127
29472,note_on,1,0,0,,6,,,42,127
29663,note_off,191,0,0,,6,,,66,127
29663,note_off,0,0,0,,3,,,75,127
29664,note_on,1,0,0,,4,,,76,127
29664,note_on,0,0,0,,7,,,67,127
29855,note_off,191,0,0,,6,,,42,127
29856,note_on,1,0,0,,7,,,43,127
30044,note_off,188,0,0,,7,,,67,127
30047,note_off,3,0,0,,7,,,43,127
30048,note_on,1,0,0,,10,,,45,127
30239,note_off,191,0,0,,4,,,76,127
30240,note_on,1,0,0,,2,,,74,127
30335,note_off,95,0,0,,2,,,74,127
30336,note_on,1,0,0,,0,,,72,127
30431,note_off,95,0,0,,0,,,72,127
30431,note_off,0,0,0,,10,,,45,127
30432,note_on,1,0,0,,10,,,33,127
30432,note_on,0,0,0,,12,,,71,127
30527,note_off,95,0,0,,12,,,71,127
30528,note_on,1,0,0,,10,,,69,127
30623,note_off,95,0,0,,10,,,69,127
30623,note_off,0,0,0,,10,,,33,127
30624,note_on,1,0,0,,12,,,47,127
30624,note_on,0,0,0,,7,,,67,127
30719,note_off,95,0,0,,7,,,67,127
30720,note_on,1,0,0,,6,,,66,127
30815,note_off,95,0,0,,6,,,66,127
30816,note_on,1,0,0,,7,,,67,127
30911,note_off,95,0,0,,7,,,67,127
30912,note_on,1,0,0,,4,,,64,127
31007,note_off,95,0,0,,4,,,64,127
31008,note_on,1,0,0,,12,,,35,127
31008,note_on,0,0,0,,6,,,66,127
31103,note_off,95,0,0,,6,,,66,127
31104,note_on,1,0,0,,3,,,63,127
31199,note_off,95,0,0,,3,,,63,127
31199,note_off,0,0,0,,12,,,35,127
31199,note_off,0,0,0,,12,,,47,127
31200,note_on,1,0,0,,4,,,40,127
31200,note_on,0,0,0,,4,,,64,127
31391,note_off,191,0,0,,4,,,64,127
31392,note_on,1,0,0,,0,,,72,127
31583,note_off,191,0,0,,0,,,72,127
31584,note_on,1,0,0,,12,,,71,127
31680,note_off,96,0,0,,4,,,40,127
31776,note_on,96,0,0,,10,,,45,127
31776,note_on,0,0,0,,0,,,60,127
31967,note_off,191,0,0,,0,,,60,127
31967,note_off,0,0,0,,10,,,45,127
31968,note_on,1,0,0,,12,,,47,127
31968,note_on,0,0,0,,12,,,59,127
32159,note_off,191,0,0,,12,,,59,127
32159,note_off,0,0,0,,12,,,47,127
32159,note_off,0,0,0,,12,,,71,127
32160,note_on,1,0,0,,12,,,35,127
32160,note_on,0,0,0,,3,,,63,127
32160,note_on,0,0,0,,6,,,66,127
32160,note_on,0,0,0,,10,,,69,127
32351,note_off,191,0,0,,10,,,69,127
32351,note_off,0,0,0,,6,,,66,127
32351,note_off,0,0,0,,3,,,63,127
32351,note_off,0,0,0,,12,,,35,127
32352,note_on,1,0,0,,4,,,40,127
32352,note_on,0,0,0,,4,,,64,127
32352,note_on,0,0,0,,7,,,67,127
32543,note_off,191,0,0,,7,,,67,127
32543,note_off,0,0,0,,4,,,64,127
32544,note_on,1,0,0,,0,,,72,127
32735,note_off,191,0,0,,0,,,72,127
32736,note_on,1,0,0,,12,,,71,127
32872,note_off,136,0,0,,4,,,40,127
32928,note_on,56,0,0,,10,,,45,127
32928,note_on,0,0,0,,0,,,60,127
33119,note_off,191,0,0,,0,,,60,127
33119,note_off,0,0,0,,10,,,45,127
33120,note_on,1,0,0,,12,,,47,127
33120,note_on,0,0,0,,12,,,59,127
33311,note_off,191,0,0,,12,,,59,127
33311,note_off,0,0,0,,12,,,47,127
33311,note_off,0,0,0,,12,,,71,127
33312,note_on,1,0,0,,12,,,35,127
33312,note_on,0,0,0,,3,,,63,127
33312,note_on,0,0,0,,10,,,69,127
33312,note_on,0,0,0,,6,,,66,127
33503,note_off,191,0,0,,6,,,66,127
33503,note_off,0,0,0,,10,,,69,127
33503,note_off,0,0,0,,3,,,63,127
33503,note_off,0,0,0,,12,,,35,127
33504,note_on,1,0,0,,4,,,52,127
33504,note_on,0,0,0,,4,,,40,127
33504,note_on,0,0,0,,10,,,69,127
33599,note_off,95,0,0,,10,,,69,127
33600,note_on,1,0,0,,7,,,67,127
33695,note_off,95,0,0,,7,,,67,127
33696,note_on,1,0,0,,6,,,66,127
33791,note_off,95,0,0,,6,,,66,127
33792,note_on,1,0,0,,7,,,67,127
33887,note_off,95,0,0,,7,,,67,127
33887,note_off,0,0,0,,4,,,40,127
33887,note_off,0,0,0,,4,,,52,127
33888,note_on,1,0,0,,10,,,45,127
33888,note_on,0,0,0,,10,,,33,127
33888,note_on,0,0,0,,12,,,71,127
33983,note_off,95,0,0,,12,,,71,127
33984,note_on,1,0,0,,10,,,69,127
34079,note_off,95,0,0,,10,,,69,127
34080,note_on,1,0,0,,7,,,67,127
34271,note_off,191,0,0,,7,,,67,127
34271,note_off,0,0,0,,10,,,33,127
34271,note_off,0,0,0,,10,,,45,127
34272,note_on,1,0,0,,12,,,47,127
34272,note_on,0,0,0,,12,,,35,127
34272,note_on,0,0,0,,6,,,66,127
34367,note_off,95,0,0,,6,,,66,127
34368,note_on,1,0,0,,4,,,64,127
34463,note_off,95,0,0,,4,,,64,127
34464,note_on,1,0,0,,3,,,63,127
34527,note_off,63,0,0,,3,,,63,127
34528,note_on,1,0,0,,1,,,61,127
34591,note_off,63,0,0,,1,,,61,127
34592,note_on,1,0,0,,3,,,63,127
34655,note_off,63,0,0,,3,,,63,127
34655,note_off,0,0,0,,12,,,35,127
34655,note_off,0,0,0,,12,,,47,127
34656,note_on,1,0,0,,4,,,40,127
34656,note_on,0,0,0,,4,,,52,127
34656,note_on,0,0,0,,10,,,69,127
34751,note_off,95,0,0,,10,,,69,127
34752,note_on,1,0,0,,7,,,67,127
34847,note_off,95,0,0,,7,,,67,127
34848,note_on,1,0,0,,6,,,66,127
34943,note_off,95,0,0,,6,,,66,127
34944,note_on,1,0,0,,7,,,67,127
35039,note_off,95,0,0,,7,,,67,127
35039,note_off,0,0,0,,4,,,52,127
35039,note_off,0,0,0,,4,,,40,127
35040,note_on,1,0,0,,10,,,45,127
35040,note_on,0,0,0,,12,,,71,127
35135,note_off,95,0,0,,12,,,71,127
35136,note_on,1,0,0,,10,,,69,127
35231,note_off,95,0,0,,10,,,69,127
35232,note_on,1,0,0,,7,,,67,127
35423,note_off,191,0,0,,7,,,67,127
35423,note_off,0,0,0,,10,,,45,127
35424,note_on,1,0,0,,12,,,47,127
35424,note_on,0,0,0,,6,,,66,127
35519,note_off,95,0,0,,6,,,66,127
35520,note_on,1,0,0,,4,,,64,127
35615,note_off,95,0,0,,4,,,64,127
35616,note_on,1,0,0,,3,,,63,127
35679,note_off,63,0,0,,3,,,63,127
35680,note_on,1,0,0,,1,,,61,127
35743,note_off,63,0,0,,1,,,61,127
35744,note_on,1,0,0,,3,,,63,127
35807,note_off,63,0,0,,3,,,63,127
35807,note_off,0,0,0,,12,,,47,127
35808,note_on,1,0,0,,4,,,40,127
35808,note_on,0,0,0,,3,,,63,127
36383,note_off,575,0,0,,3,,,63,127
36384,note_on,1,0,0,,4,,,64,127
36672,note_off,288,0,0,,4,,,64,127
36758,note_off,86,0,0,,4,,,40,127
36768,note_on,10,0,0,,0,,,72,127
36768,note_on,0,0,0,,10,,,69,127
36768,note_on,0,0,0,,3,,,63,127
36959,note_off,191,0,0,,3,,,63,127
36959,note_off,0,0,0,,10,,,69,127
36959,note_off,0,0,0,,0,,,72,127
36960,note_on,1,0,0,,0,,,72,127
36960,note_on,0,0,0,,10,,,69,127
36960,note_on,0,0,0,,4,,,64,127
37023,note_off,63,0,0,,10,,,69,127
37023,note_off,0,0,0,,0,,,72,127
37024,note_on,1,0,0,,8,,,68,127
37024,note_on,0,0,0,,12,,,71,127
37087,note_off,63,0,0,,12,,,71,127
37087,note_off,0,0,0,,8,,,68,127
37088,note_on,1,0,0,,10,,,69,127
37088,note_on,0,0,0,,0,,,72,127
37151,note_off,63,0,0,,0,,,72,127
37151,note_off,0,0,0,,10,,,69,127
37151,note_off,0,0,0,,4,,,64,127
37152,note_on,1,0,0,,8,,,68,127
37152,note_on,0,0,0,,12,,,71,127
37152,note_on,0,0,0,,4,,,52,127
37215,note_off,63,0,0,,12,,,71,127
37215,note_off,0,0,0,,8,,,68,127
37216,note_on,1,0,0,,10,,,69,127
37216,note_on,0,0,0,,0,,,72,127
37279,note_off,63,0,0,,0,,,72,127
37279,note_off,0,0,0,,10,,,69,127
37280,note_on,1,0,0,,8,,,68,127
37280,note_on,0,0,0,,12,,,71,127
37343,note_off,63,0,0,,12,,,71,127
37343,note_off,0,0,0,,8,,,68,127
37343,note_off,0,0,0,,4,,,52,127
37344,note_on,1,0,0,,0,,,72,127
37344,note_on,0,0,0,,10,,,69,127
37344,note_on,0,0,0,,3,,,63,127
37535,note_off,191,0,0,,3,,,63,127
37535,note_off,0,0,0,,10,,,69,127
37535,note_off,0,0,0,,0,,,72,127
37536,note_on,1,0,0,,0,,,72,127
37536,note_on,0,0,0,,10,,,69,127
37536,note_on,0,0,0,,4,,,64,127
37599,note_off,63,0,0,,10,,,69,127
37599,note_off,0,0,0,,0,,,72,127
37600,note_on,1,0,0,,12,,,71,127
37600,note_on,0,0,0,,8,,,68,127
37663,note_off,63,0,0,,8,,,68,127
37663,note_off,0,0,0,,12,,,71,127
37664,note_on,1,0,0,,0,,,72,127
37664,note_on,0,0,0,,10,,,69,127
37727,note_off,63,0,0,,10,,,69,127
37727,note_off,0,0,0,,0,,,72,127
37727,note_off,0,0,0,,4,,,64,127
37728,note_on,1,0,0,,12,,,71,127
37728,note_on,0,0,0,,8,,,68,127
37728,note_on,0,0,0,,4,,,52,127
37791,note_off,63,0,0,,8,,,68,127
37791,note_off,0,0,0,,12,,,71,127
37792,note_on,1,0,0,,0,,,72,127
37792,note_on,0,0,0,,10,,,69,127
37855,note_off,63,0,0,,10,,,69,127
37855,note_off,0,0,0,,0,,,72,127
37856,note_on,1,0,0,,12,,,71,127
37856,note_on,0,0,0,,8,,,68,127
37919,note_off,63,0,0,,8,,,68,127
37919,note_off,0,0,0,,12,,,71,127
37919,note_off,0,0,0,,4,,,52,127
37920,note_on,1,0,0,,0,,,72,127
37920,note_on,0,0,0,,10,,,69,127
37920,note_on,0,0,0,,3,,,63,127
38111,note_off,191,0,0,,3,,,63,127
38111,note_off,0,0,0,,10,,,69,127
38111,note_off,0,0,0,,0,,,72,127
38112,note_on,1,0,0,,10,,,69,127
38112,note_on,0,0,0,,0,,,72,127
38112,note_on,0,0,0,,4,,,64,127
38159,note_off,47,0,0,,0,,,72,127
38159,note_off,0,0,0,,10,,,69,127
38160,note_on,1,0,0,,8,,,68,127
38160,note_on,0,0,0,,12,,,71,127
38207,note_off,47,0,0,,12,,,71,127
38207,note_off,0,0,0,,8,,,68,127
38208,note_on,1,0,0,,10,,,69,127
38208,note_on,0,0,0,,0,,,72,127
38255,note_off,47,0,0,,0,,,72,127
38255,note_off,0,0,0,,10,,,69,127
38256,note_on,1,0,0,,12,,,71,127
38256,note_on,0,0,0,,8,,,68,127
38303,note_off,47,0,0,,4,,,64,127
38304,note_on,1,0,0,,4,,,52,127
38495,note_off,191,0,0,,4,,,52,127
38496,note_on,1,0,0,,3,,,63,127
38687,note_off,191,0,0,,3,,,63,127
38688,note_off,1,0,0,,8,,,68,127
38688,note_off,0,0,0,,12,,,71,127
38688,note_on,0,0,0,,4,,,64,127
38879,note_off,191,0,0,,4,,,64,127
38880,note_on,1,0,0,,4,,,52,127
39071,note_off,191,0,0,,4,,,52,127
39072,note_on,1,0,0,,7,,,67,127
39072,note_on,0,0,0,,4,,,76,127
39072,note_on,0,0,0,,1,,,61,127
39263,note_off,191,0,0,,1,,,61,127
39263,note_off,0,0,0,,4,,,76,127
39263,note_off,0,0,0,,7,,,67,127
39264,note_on,1,0,0,,4,,,76,127
39264,note_on,0,0,0,,7,,,67,127
39264,note_on,0,0,0,,2,,,62,127
39327,note_off,63,0,0,,7,,,67,127
39327,note_off,0,0,0,,4,,,76,127
39328,note_on,1,0,0,,2,,,74,127
39328,note_on,0,0,0,,5,,,65,127
39391,note_off,63,0,0,,5,,,65,127
39391,note_off,0,0,0,,2,,,74,127
39392,note_on,1,0,0,,4,,,76,127
39392,note_on,0,0,0,,7,,,67,127
39455,note_off,63,0,0,,7,,,67,127
39455,note_off,0,0,0,,4,,,76,127
39455,note_off,0,0,0,,2,,,62,127
39456,note_on,1,0,0,,2,,,74,127
39456,note_on,0,0,0,,5,,,65,127
39456,note_on,0,0,0,,4,,,52,127
39519,note_off,63,0,0,,5,,,65,127
39519,note_off,0,0,0,,2,,,74,127
39520,note_on,1,0,0,,4,,,76,127
39520,note_on,0,0,0,,7,,,67,127
39583,note_off,63,0,0,,7,,,67,127
39583,note_off,0,0,0,,4,,,76,127
39584,note_on,1,0,0,,2,,,74,127
39584,note_on,0,0,0,,5,,,65,127
39647,note_off,63,0,0,,5,,,65,127
39647,note_off,0,0,0,,2,,,74,127
39647,note_off,0,0,0,,4,,,52,127
39648,note_on,1,0,0,,4,,,76,127
39648,note_on,0,0,0,,7,,,67,127
39648,note_on,0,0,0,,1,,,61,127
39839,note_off,191,0,0,,1,,,61,127
39839,note_off,0,0,0,,7,,,67,127
39839,note_off,0,0,0,,4,,,76,127
39840,note_on,1,0,0,,4,,,76,127
39840,note_on,0,0,0,,7,,,67,127
39840,note_on,0,0,0,,2,,,62,127
39903,note_off,63,0,0,,7,,,67,127
39903,note_off,0,0,0,,4,,,76,127
39904,note_on,1,0,0,,2,,,74,127
39904,note_on,0,0,0,,5,,,65,127
39967,note_off,63,0,0,,5,,,65,127
39967,note_off,0,0,0,,2,,,74,127
39968,note_on,1,0,0,,4,,,76,127
39968,note_on,0,0,0,,7,,,67,127
40031,note_off,63,0,0,,7,,,67,127
40031,note_off,0,0,0,,4,,,76,127
40031,note_off,0,0,0,,2,,,62,127
40032,note_on,1,0,0,,2,,,74,127
40032,note_on,0,0,0,,5,,,65,127
40032,note_on,0,0,0,,4,,,52,127
40095,note_off,63,0,0,,5,,,65,127
40095,note_off,0,0,0,,2,,,74,127
40096,note_on,1,0,0,,4,,,76,127
40096,note_on,0,0,0,,7,,,67,127
40159,note_off,63,0,0,,7,,,67,127
40159,note_off,0,0,0,,4,,,76,127
40160,note_on,1,0,0,,2,,,74,127
40160,note_on,0,0,0,,5,,,65,127
40223,note_off,63,0,0,,5,,,65,127
40223,note_off,0,0,0,,2,,,74,127
40223,note_off,0,0,0,,4,,,52,127
40224,note_on,1,0,0,,4,,,76,127
40224,note_on,0,0,0,,7,,,67,127
40224,note_on,0,0,0,,1,,,61,127
40415,note_off,191,0,0,,1,,,61,127
40415,note_off,0,0,0,,7,,,67,127
40415,note_off,0,0,0,,4,,,76,127
40416,note_on,1,0,0,,4,,,76,127
40416,note_on,0,0,0,,7,,,67,127
40416,note_on,0,0,0,,2,,,62,127
40463,note_off,47,0,0,,7,,,67,127
40463,note_off,0,0,0,,4,,,76,127
40464,note_on,1,0,0,,2,,,74,127
40464,note_on,0,0,0,,5,,,65,127
40511,note_off,47,0,0,,5,,,65,127
40511,note_off,0,0,0,,2,,,74,127
40512,note_on,1,0,0,,4,,,76,127
40512,note_on,0,0,0,,7,,,67,127
40559,note_off,47,0,0,,7,,,67,127
40559,note_off,0,0,0,,4,,,76,127
40560,note_on,1,0,0,,2,,,74,127
40560,note_on,0,0,0,,5,,,65,127
40607,note_off,47,0,0,,2,,,62,127
40608,note_on,1,0,0,,4,,,52,127
40799,note_off,191,0,0,,4,,,52,127
40800,note_on,1,0,0,,1,,,61,127
40991,note_off,191,0,0,,1,,,61,127
40992,note_off,1,0,0,,5,,,65,127
40992,note_off,0,0,0,,2,,,74,127
40992,note_on,0,0,0,,2,,,62,127
41183,note_off,191,0,0,,2,,,62,127
41184,note_on,1,0,0,,4,,,52,127
41375,note_off,191,0,0,,4,,,52,127
41376,note_on,1,0,0,,2,,,62,127
41376,note_on,0,0,0,,8,,,68,127
41376,note_on,0,0,0,,12,,,59,127
41567,note_off,191,0,0,,12,,,59,127
41567,note_off,0,0,0,,8,,,68,127
41567,note_off,0,0,0,,2,,,62,127
41568,note_on,1,0,0,,12,,,71,127
41568,note_on,0,0,0,,4,,,64,127
41568,note_on,0,0,0,,0,,,60,127
41631,note_off,63,0,0,,12,,,71,127
41632,note_on,1,0,0,,10,,,69,127
41695,note_off,63,0,0,,10,,,69,127
41696,note_on,1,0,0,,12,,,71,127
41759,note_off,63,0,0,,12,,,71,127
41759,note_off,0,0,0,,0,,,60,127
41760,note_on,1,0,0,,10,,,69,127
41760,note_on,0,0,0,,4,,,52,127
41823,note_off,63,0,0,,10,,,69,127
41824,note_on,1,0,0,,12,,,71,127
41887,note_off,63,0,0,,12,,,71,127
41888,note_on,1,0,0,,10,,,69,127
41951,note_off,63,0,0,,10,,,69,127
41951,note_off,0,0,0,,4,,,52,127
41951,note_off,0,0,0,,4,,,64,127
41952,note_on,1,0,0,,2,,,62,127
41952,note_on,0,0,0,,8,,,68,127
41952,note_on,0,0,0,,12,,,59,127
42143,note_off,191,0,0,,12,,,59,127
42143,note_off,0,0,0,,8,,,68,127
42143,note_off,0,0,0,,2,,,62,127
42144,note_on,1,0,0,,12,,,71,127
42144,note_on,0,0,0,,4,,,64,127
42144,note_on,0,0,0,,0,,,60,127
42207,note_off,63,0,0,,12,,,71,127
42208,note_on,1,0,0,,10,,,69,127
42271,note_off,63,0,0,,10,,,69,127
42272,note_on,1,0,0,,12,,,71,127
42335,note_off,63,0,0,,12,,,71,127
42335,note_off,0,0,0,,0,,,60,127
42336,note_on,1,0,0,,10,,,69,127
42336,note_on,0,0,0,,4,,,52,127
42399,note_off,63,0,0,,10,,,69,127
42400,note_on,1,0,0,,12,,,71,127
42463,note_off,63,0,0,,12,,,71,127
42464,note_on,1,0,0,,10,,,69,127
42527,note_off,63,0,0,,10,,,69,127
42527,note_off,0,0,0,,4,,,52,127
42527,note_off,0,0,0,,4,,,64,127
42528,note_on,1,0,0,,8,,,68,127
42528,note_on,0,0,0,,2,,,62,127
42528,note_on,0,0,0,,12,,,59,127
42719,note_off,191,0,0,,12,,,59,127
42719,note_off,0,0,0,,2,,,62,127
42719,note_off,0,0,0,,8,,,68,127
42720,note_on,1,0,0,,12,,,71,127
42720,note_on,0,0,0,,4,,,64,127
42720,note_on,0,0,0,,0,,,60,127
42767,note_off,47,0,0,,12,,,71,127
42768,note_on,1,0,0,,10,,,69,127
42815,note_off,47,0,0,,10,,,69,127
42816,note_on,1,0,0,,12,,,71,127
42863,note_off,47,0,0,,12,,,71,127
42864,note_on,1,0,0,,10,,,69,127
42911,note_off,47,0,0,,0,,,60,127
42912,note_on,1,0,0,,4,,,52,127
43103,note_off,191,0,0,,4,,,52,127
43104,note_on,1,0,0,,12,,,59,127
43295,note_off,191,0,0,,12,,,59,127
43295,note_off,0,0,0,,4,,,64,127
43296,note_off,1,0,0,,10,,,69,127
43296,note_on,0,0,0,,0,,,60,127
43487,note_off,191,0,0,,0,,,60,127
43488,note_on,1,0,0,,4,,,52,127
43679,note_off,191,0,0,,4,,,52,127
43680,note_on,1,0,0,,12,,,71,127
43680,note_on,0,0,0,,12,,,59,127
43871,note_off,191,0,0,,12,,,59,127
43871,note_off,0,0,0,,12,,,71,127
43872,note_on,1,0,0,,0,,,72,127
43872,note_on,0,0,0,,10,,,57,127
44063,note_off,191,0,0,,10,,,57,127
44064,note_on,1,0,0,,10,,,45,127
44255,note_off,191,0,0,,10,,,45,127
44255,note_off,0,0,0,,0,,,72,127
44256,note_on,1,0,0,,12,,,71,127
44256,note_on,0,0,0,,7,,,55,127
44447,note_off,191,0,0,,7,,,55,127
44447,note_off,0,0,0,,12,,,71,127
44448,note_on,1,0,0,,12,,,71,127
44448,note_on,0,0,0,,5,,,53,127
44639,note_off,191,0,0,,5,,,53,127
44639,note_off,0,0,0,,12,,,71,127
44640,note_on,1,0,0,,5,,,41,127
44640,note_on,0,0,0,,10,,,69,127
44703,note_off,63,0,0,,10,,,69,127
44704,note_on,1,0,0,,12,,,71,127
44767,note_off,63,0,0,,12,,,71,127
44768,note_on,1,0,0,,10,,,69,127
44831,note_off,63,0,0,,10,,,69,127
44831,note_off,0,0,0,,5,,,41,127
44832,note_on,1,0,0,,7,,,67,127
44832,note_on,0,0,0,,4,,,52,127
45023,note_off,191,0,0,,4,,,52,127
45023,note_off,0,0,0,,7,,,67,127
45024,note_on,1,0,0,,5,,,65,127
45024,note_on,0,0,0,,5,,,77,127
45024,note_on,0,0,0,,2,,,62,127
45024,note_on,0,0,0,,2,,,50,127
45215,note_off,191,0,0,,2,,,50,127
45215,note_off,0,0,0,,2,,,62,127
45216,note_on,1,0,0,,2,,,50,127
45407,note_off,191,0,0,,2,,,50,127
45407,note_off,0,0,0,,5,,,77,127
45407,note_off,0,0,0,,5,,,65,127
45408,note_on,1,0,0,,4,,,76,127
45408,note_on,0,0,0,,0,,,60,127
45599,note_off,191,0,0,,0,,,60,127
45599,note_off,0,0,0,,4,,,76,127
45600,note_on,1,0,0,,4,,,76,127
45600,note_on,0,0,0,,11,,,58,127
45791,note_off,191,0,0,,11,,,58,127
45791,note_off,0,0,0,,4,,,76,127
45792,note_on,1,0,0,,11,,,46,127
45792,note_on,0,0,0,,2,,,74,127
45855,note_off,63,0,0,,2,,,74,127
45856,note_on,1,0,0,,4,,,76,127
45919,note_off,63,0,0,,4,,,76,127
45920,note_on,1,0,0,,2,,,74,127
45983,note_off,63,0,0,,2,,,74,127
45983,note_off,0,0,0,,11,,,46,127
45984,note_on,1,0,0,,0,,,72,127
45984,note_on,0,0,0,,10,,,57,127
46175,note_off,191,0,0,,10,,,57,127
46175,note_off,0,0,0,,0,,,72,127
46176,note_on,1,0,0,,11,,,70,127
46176,note_on,0,0,0,,11,,,82,127
46176,note_on,0,0,0,,7,,,55,127
46367,note_off,191,0,0,,7,,,55,127
46368,note_on,1,0,0,,7,,,43,127
46559,note_off,191,0,0,,7,,,43,127
46559,note_off,0,0,0,,11,,,82,127
46559,note_off,0,0,0,,11,,,70,127
46560,note_on,1,0,0,,10,,,81,127
46560,note_on,0,0,0,,5,,,53,127
46751,note_off,191,0,0,,5,,,53,127
46751,note_off,0,0,0,,10,,,81,127
46752,note_on,1,0,0,,10,,,81,127
46752,note_on,0,0,0,,4,,,52,127
46943,note_off,191,0,0,,4,,,52,127
46943,note_off,0,0,0,,10,,,81,127
46944,note_on,1,0,0,,4,,,40,127
46944,note_on,0,0,0,,7,,,79,127
47007,note_off,63,0,0,,7,,,79,127
47008,note_on,1,0,0,,10,,,81,127
47071,note_off,63,0,0,,10,,,81,127
47072,note_on,1,0,0,,7,,,79,127
47135,note_off,63,0,0,,7,,,79,127
47135,note_off,0,0,0,,4,,,40,127
47136,note_on,1,0,0,,5,,,77,127
47136,note_on,0,0,0,,2,,,50,127
47327,note_off,191,0,0,,2,,,50,127
47327,note_off,0,0,0,,5,,,77,127
47328,note_on,1,0,0,,5,,,77,127
47328,note_on,0,0,0,,10,,,57,127
47519,note_off,191,0,0,,10,,,57,127
47519,note_off,0,0,0,,5,,,77,127
47520,note_on,1,0,0,,4,,,76,127
47520,note_on,0,0,0,,4,,,52,127
47711,note_off,191,0,0,,4,,,52,127
47712,note_on,1,0,0,,1,,,49,127
47903,note_off,191,0,0,,1,,,49,127
47904,note_on,1,0,0,,10,,,45,127
48095,note_off,191,0,0,,10,,,45,127
48095,note_off,0,0,0,,4,,,76,127
48096,note_on,1,0,0,,10,,,33,127
48287,note_off,191,0,0,,10,,,33,127
48288,note_on,1,0,0,,2,,,74,127
48288,note_on,0,0,0,,5,,,77,127
48288,note_on,0,0,0,,8,,,68,127
48479,note_off,191,0,0,,8,,,68,127
48479,note_off,0,0,0,,5,,,77,127
48479,note_off,0,0,0,,2,,,74,127
48480,note_on,1,0,0,,5,,,77,127
48480,note_on,0,0,0,,2,,,74,127
48480,note_on,0,0,0,,10,,,69,127
48543,note_off,63,0,0,,2,,,74,127
48543,note_off,0,0,0,,5,,,77,127
48544,note_on,1,0,0,,4,,,76,127
48544,note_on,0,0,0,,1,,,73,127
48607,note_off,63,0,0,,1,,,73,127
48607,note_off,0,0,0,,4,,,76,127
48608,note_on,1,0,0,,5,,,77,127
48608,note_on,0,0,0,,2,,,74,127
48671,note_off,63,0,0,,2,,,74,127
48671,note_off,0,0,0,,5,,,77,127
48671,note_off,0,0,0,,10,,,69,127
48672,note_on,1,0,0,,4,,,76,127
48672,note_on,0,0,0,,1,,,73,127
48672,note_on,0,0,0,,10,,,57,127
48735,note_off,63,0,0,,1,,,73,127
48735,note_off,0,0,0,,4,,,76,127
48736,note_on,1,0,0,,5,,,77,127
48736,note_on,0,0,0,,2,,,74,127
48799,note_off,63,0,0,,2,,,74,127
48799,note_off,0,0,0,,5,,,77,127
48800,note_on,1,0,0,,4,,,76,127
48800,note_on,0,0,0,,1,,,73,127
48863,note_off,63,0,0,,1,,,73,127
48863,note_off,0,0,0,,4,,,76,127
48863,note_off,0,0,0,,10,,,57,127
48864,note_on,1,0,0,,2,,,74,127
48864,note_on,0,0,0,,5,,,77,127
48864,note_on,0,0,0,,8,,,68,127
49055,note_off,191,0,0,,8,,,68,127
49055,note_off,0,0,0,,5,,,77,127
49055,note_off,0,0,0,,2,,,74,127
49056,note_on,1,0,0,,5,,,77,127
49056,note_on,0,0,0,,2,,,74,127
49056,note_on,0,0,0,,10,,,69,127
49119,note_off,63,0,0,,2,,,74,127
49119,note_off,0,0,0,,5,,,77,127
49120,note_on,1,0,0,,4,,,76,127
49120,note_on,0,0,0,,1,,,73,127
49183,note_off,63,0,0,,1,,,73,127
49183,note_off,0,0,0,,4,,,76,127
49184,note_on,1,0,0,,5,,,77,127
49184,note_on,0,0,0,,2,,,74,127
49247,note_off,63,0,0,,2,,,74,127
49247,note_off,0,0,0,,5,,,77,127
49247,note_off,0,0,0,,10,,,69,127
49248,note_on,1,0,0,,4,,,76,127
49248,note_on,0,0,0,,1,,,73,127
49248,note_on,0,0,0,,10,,,57,127
49311,note_off,63,0,0,,1,,,73,127
49311,note_off,0,0,0,,4,,,76,127
49312,note_on,1,0,0,,5,,,77,127
49312,note_on,0,0,0,,2,,,74,127
49375,note_off,63,0,0,,2,,,74,127
49375,note_off,0,0,0,,5,,,77,127
49376,note_on,1,0,0,,4,,,76,127
49376,note_on,0,0,0,,1,,,73,127
49439,note_off,63,0,0,,1,,,73,127
49439,note_off,0,0,0,,4,,,76,127
49439,note_off,0,0,0,,10,,,57,127
49440,note_on,1,0,0,,2,,,74,127
49440,note_on,0,0,0,,5,,,77,127
49440,note_on,0,0,0,,8,,,68,127
49631,note_off,191,0,0,,8,,,68,127
49631,note_off,0,0,0,,5,,,77,127
49631,note_off,0,0,0,,2,,,74,127
49632,note_on,1,0,0,,2,,,74,127
49632,note_on,0,0,0,,5,,,77,127
49632,note_on,0,0,0,,10,,,69,127
49679,note_off,47,0,0,,5,,,77,127
49679,note_off,0,0,0,,2,,,74,127
49680,note_on,1,0,0,,1,,,73,127
49680,note_on,0,0,0,,4,,,76,127
49727,note_off,47,0,0,,4,,,76,127
49727,note_off,0,0,0,,1,,,73,127
49728,note_on,1,0,0,,2,,,74,127
49728,note_on,0,0,0,,5,,,77,127
49775,note_off,47,0,0,,5,,,77,127
49775,note_off,0,0,0,,2,,,74,127
49776,note_on,1,0,0,,1,,,73,127
49776,note_on,0,0,0,,4,,,76,127
49823,note_off,47,0,0,,10,,,69,127
49824,note_on,1,0,0,,10,,,57,127
50015,note_off,191,0,0,,10,,,57,127
50016,note_on,1,0,0,,8,,,68,127
50207,note_off,191,0,0,,8,,,68,127
50208,note_off,1,0,0,,4,,,76,127
50208,note_off,0,0,0,,1,,,73,127
50208,note_on,0,0,0,,10,,,69,127
50399,note_off,191,0,0,,10,,,69,127
50400,note_on,1,0,0,,10,,,57,127
50591,note_off,191,0,0,,10,,,57,127
50592,note_on,1,0,0,,0,,,72,127
50592,note_on,0,0,0,,10,,,81,127
50592,note_on,0,0,0,,6,,,66,127
50783,note_off,191,0,0,,6,,,66,127
50783,note_off,0,0,0,,10,,,81,127
50783,note_off,0,0,0,,0,,,72,127
50784,note_on,1,0,0,,10,,,81,127
50784,note_on,0,0,0,,0,,,72,127
50784,note_on,0,0,0,,7,,,67,127
50847,note_off,63,0,0,,0,,,72,127
50847,note_off,0,0,0,,10,,,81,127
50848,note_on,1,0,0,,7,,,79,127
50848,note_on,0,0,0,,11,,,70,127
50911,note_off,63,0,0,,11,,,70,127
50911,note_off,0,0,0,,7,,,79,127
50912,note_on,1,0,0,,10,,,81,127
50912,note_on,0,0,0,,0,,,72,127
50975,note_off,63,0,0,,0,,,72,127
50975,note_off,0,0,0,,10,,,81,127
50975,note_off,0,0,0,,7,,,67,127
50976,note_on,1,0,0,,7,,,79,127
50976,note_on,0,0,0,,11,,,70,127
50976,note_on,0,0,0,,7,,,55,127
51039,note_off,63,0,0,,11,,,70,127
51039,note_off,0,0,0,,7,,,79,127
51040,note_on,1,0,0,,10,,,81,127
51040,note_on,0,0,0,,0,,,72,127
51103,note_off,63,0,0,,0,,,72,127
51103,note_off,0,0,0,,10,,,81,127
51104,note_on,1,0,0,,7,,,79,127
51104,note_on,0,0,0,,11,,,70,127
51167,note_off,63,0,0,,11,,,70,127
51167,note_off,0,0,0,,7,,,79,127
51167,note_off,0,0,0,,7,,,55,127
51168,note_on,1,0,0,,0,,,72,127
51168,note_on,0,0,0,,10,,,81,127
51168,note_on,0,0,0,,6,,,66,127
51359,note_off,191,0,0,,6,,,66,127
51359,note_off,0,0,0,,10,,,81,127
51359,note_off,0,0,0,,0,,,72,127
51360,note_on,1,0,0,,10,,,81,127
51360,note_on,0,0,0,,0,,,72,127
51360,note_on,0,0,0,,7,,,67,127
51423,note_off,63,0,0,,0,,,72,127
51423,note_off,0,0,0,,10,,,81,127
51424,note_on,1,0,0,,7,,,79,127
51424,note_on,0,0,0,,11,,,70,127
51487,note_off,63,0,0,,11,,,70,127
51487,note_off,0,0,0,,7,,,79,127
51488,note_on,1,0,0,,10,,,81,127
51488,note_on,0,0,0,,0,,,72,127
51551,note_off,63,0,0,,0,,,72,127
51551,note_off,0,0,0,,10,,,81,127
51551,note_off,0,0,0,,7,,,67,127
51552,note_on,1,0,0,,7,,,79,127
51552,note_on,0,0,0,,11,,,70,127
51552,note_on,0,0,0,,7,,,55,127
51615,note_off,63,0,0,,11,,,70,127
51615,note_off,0,0,0,,7,,,79,127
51616,note_on,1,0,0,,10,,,81,127
51616,note_on,0,0,0,,0,,,72,127
51679,note_off,63,0,0,,0,,,72,127
51679,note_off,0,0,0,,10,,,81,127
51680,note_on,1,0,0,,7,,,79,127
51680,note_on,0,0,0,,11,,,70,127
51743,note_off,63,0,0,,11,,,70,127
51743,note_off,0,0,0,,7,,,79,127
51743,note_off,0,0,0,,7,,,55,127
51744,note_on,1,0,0,,10,,,81,127
51744,note_on,0,0,0,,0,,,72,127
51744,note_on,0,0,0,,6,,,66,127
51935,note_off,191,0,0,,6,,,66,127
51935,note_off,0,0,0,,0,,,72,127
51935,note_off,0,0,0,,10,,,81,127
51936,note_on,1,0,0,,0,,,72,127
51936,note_on,0,0,0,,10,,,81,127
51936,note_on,0,0,0,,7,,,67,127
51983,note_off,47,0,0,,10,,,81,127
51983,note_off,0,0,0,,0,,,72,127
51984,note_on,1,0,0,,7,,,79,127
51984,note_on,0,0,0,,11,,,70,127
52031,note_off,47,0,0,,11,,,70,127
52031,note_off,0,0,0,,7,,,79,127
52032,note_on,1,0,0,,10,,,81,127
52032,note_on,0,0,0,,0,,,72,127
52079,note_off,47,0,0,,0,,,72,127
52079,note_off,0,0,0,,10,,,81,127
52080,note_on,1,0,0,,11,,,70,127
52080,note_on,0,0,0,,7,,,79,127
52127,note_off,47,0,0,,7,,,67,127
52128,note_on,1,0,0,,7,,,55,127
52319,note_off,191,0,0,,7,,,55,127
52320,note_on,1,0,0,,6,,,66,127
52511,note_off,191,0,0,,6,,,66,127
52512,note_off,1,0,0,,7,,,79,127
52512,note_off,0,0,0,,11,,,70,127
52512,note_on,0,0,0,,7,,,67,127
52703,note_off,191,0,0,,7,,,67,127
52704,note_on,1,0,0,,10,,,57,127
52895,note_off,191,0,0,,10,,,57,127
52896,note_on,1,0,0,,7,,,67,127
52896,note_on,0,0,0,,1,,,73,127
52896,note_on,0,0,0,,4,,,64,127
53087,note_off,191,0,0,,4,,,64,127
53087,note_off,0,0,0,,1,,,73,127
53087,note_off,0,0,0,,7,,,67,127
53088,note_on,1,0,0,,4,,,76,127
53088,note_on,0,0,0,,10,,,69,127
53088,note_on,0,0,0,,5,,,65,127
53151,note_off,63,0,0,,4,,,76,127
53152,note_on,1,0,0,,2,,,74,127
53215,note_off,63,0,0,,2,,,74,127
53216,note_on,1,0,0,,4,,,76,127
53279,note_off,63,0,0,,4,,,76,127
53279,note_off,0,0,0,,5,,,65,127
53280,note_on,1,0,0,,2,,,74,127
53280,note_on,0,0,0,,10,,,57,127
53343,note_off,63,0,0,,2,,,74,127
53344,note_on,1,0,0,,4,,,76,127
53407,note_off,63,0,0,,4,,,76,127
53408,note_on,1,0,0,,2,,,74,127
53471,note_off,63,0,0,,2,,,74,127
53471,note_off,0,0,0,,10,,,57,127
53471,note_off,0,0,0,,10,,,69,127
53472,note_on,1,0,0,,1,,,73,127
53472,note_on,0,0,0,,7,,,67,127
53472,note_on,0,0,0,,4,,,64,127
53663,note_off,191,0,0,,4,,,64,127
53663,note_off,0,0,0,,7,,,67,127
53663,note_off,0,0,0,,1,,,73,127
53664,note_on,1,0,0,,4,,,76,127
53664,note_on,0,0,0,,10,,,69,127
53664,note_on,0,0,0,,5,,,65,127
53727,note_off,63,0,0,,4,,,76,127
53728,note_on,1,0,0,,2,,,74,127
53791,note_off,63,0,0,,2,,,74,127
53792,note_on,1,0,0,,4,,,76,127
53855,note_off,63,0,0,,4,,,76,127
53855,note_off,0,0,0,,5,,,65,127
53856,note_on,1,0,0,,2,,,74,127
53856,note_on,0,0,0,,10,,,57,127
53919,note_off,63,0,0,,2,,,74,127
53920,note_on,1,0,0,,4,,,76,127
53983,note_off,63,0,0,,4,,,76,127
53984,note_on,1,0,0,,2,,,74,127
54047,note_off,63,0,0,,2,,,74,127
54047,note_off,0,0,0,,10,,,57,127
54047,note_off,0,0,0,,10,,,69,127
54048,note_on,1,0,0,,7,,,67,127
54048,note_on,0,0,0,,1,,,73,127
54048,note_on,0,0,0,,4,,,64,127
54239,note_off,191,0,0,,4,,,64,127
54239,note_off,0,0,0,,1,,,73,127
54239,note_off,0,0,0,,7,,,67,127
54240,note_on,1,0,0,,10,,,69,127
54240,note_on,0,0,0,,4,,,76,127
54240,note_on,0,0,0,,5,,,65,127
54287,note_off,47,0,0,,4,,,76,127
54288,note_on,1,0,0,,2,,,74,127
54335,note_off,47,0,0,,2,,,74,127
54336,note_on,1,0,0,,4,,,76,127
54383,note_off,47,0,0,,4,,,76,127
54384,note_on,1,0,0,,2,,,74,127
54431,note_off,47,0,0,,5,,,65,127
54432,note_on,1,0,0,,10,,,57,127
54623,note_off,191,0,0,,10,,,57,127
54624,note_on,1,0,0,,4,,,64,127
54815,note_off,191,0,0,,4,,,64,127
54815,note_off,0,0,0,,10,,,69,127
54816,note_off,1,0,0,,2,,,74,127
54816,note_on,0,0,0,,5,,,65,127
55007,note_off,191,0,0,,5,,,65,127
55008,note_on,1,0,0,,10,,,57,127
55199,note_off,191,0,0,,10,,,57,127
55200,note_on,1,0,0,,2,,,74,127
55200,note_on,0,0,0,,5,,,77,127
55200,note_on,0,0,0,,8,,,56,127
55391,note_off,191,0,0,,8,,,56,127
55391,note_off,0,0,0,,5,,,77,127
55391,note_off,0,0,0,,2,,,74,127
55392,note_on,1,0,0,,5,,,77,127
55392,note_on,0,0,0,,2,,,74,127
55392,note_on,0,0,0,,10,,,57,127
55455,note_off,63,0,0,,2,,,74,127
55455,note_off,0,0,0,,5,,,77,127
55456,note_on,1,0,0,,4,,,76,127
55456,note_on,0,0,0,,1,,,73,127
55519,note_off,63,0,0,,1,,,73,127
55519,note_off,0,0,0,,4,,,76,127
55520,note_on,1,0,0,,5,,,77,127
55520,note_on,0,0,0,,2,,,74,127
55583,note_off,63,0,0,,2,,,74,127
55583,note_off,0,0,0,,5,,,77,127
55583,note_off,0,0,0,,10,,,57,127
55584,note_on,1,0,0,,4,,,76,127
55584,note_on,0,0,0,,1,,,73,127
55584,note_on,0,0,0,,10,,,45,127
55647,note_off,63,0,0,,1,,,73,127
55647,note_off,0,0,0,,4,,,76,127
55648,note_on,1,0,0,,5,,,77,127
55648,note_on,0,0,0,,2,,,74,127
55711,note_off,63,0,0,,2,,,74,127
55711,note_off,0,0,0,,5,,,77,127
55712,note_on,1,0,0,,4,,,76,127
55712,note_on,0,0,0,,1,,,73,127
55775,note_off,63,0,0,,1,,,73,127
55775,note_off,0,0,0,,4,,,76,127
55775,note_off,0,0,0,,10,,,45,127
55776,note_on,1,0,0,,2,,,74,127
55776,note_on,0,0,0,,5,,,77,127
55776,note_on,0,0,0,,8,,,56,127
55967,note_off,191,0,0,,8,,,56,127
55967,note_off,0,0,0,,5,,,77,127
55967,note_off,0,0,0,,2,,,74,127
55968,note_on,1,0,0,,5,,,77,127
55968,note_on,0,0,0,,2,,,74,127
55968,note_on,0,0,0,,10,,,57,127
56031,note_off,63,0,0,,2,,,74,127
56031,note_off,0,0,0,,5,,,77,127
56032,note_on,1,0,0,,4,,,76,127
56032,note_on,0,0,0,,1,,,73,127
56095,note_off,63,0,0,,1,,,73,127
56095,note_off,0,0,0,,4,,,76,127
56096,note_on,1,0,0,,5,,,77,127
56096,note_on,0,0,0,,2,,,74,127
56159,note_off,63,0,0,,2,,,74,127
56159,note_off,0,0,0,,5,,,77,127
56159,note_off,0,0,0,,10,,,57,127
56160,note_on,1,0,0,,4,,,76,127
56160,note_on,0,0,0,,1,,,73,127
56160,note_on,0,0,0,,10,,,45,127
56223,note_off,63,0,0,,1,,,73,127
56223,note_off,0,0,0,,4,,,76,127
56224,note_on,1,0,0,,5,,,77,127
56224,note_on,0,0,0,,2,,,74,127
56287,note_off,63,0,0,,2,,,74,127
56287,note_off,0,0,0,,5,,,77,127
56288,note_on,1,0,0,,4,,,76,127
56288,note_on,0,0,0,,1,,,73,127
56351,note_off,63,0,0,,1,,,73,127
56351,note_off,0,0,0,,4,,,76,127
56351,note_off,0,0,0,,10,,,45,127
56352,note_on,1,0,0,,2,,,74,127
56352,note_on,0,0,0,,5,,,77,127
56352,note_on,0,0,0,,8,,,56,127
56543,note_off,191,0,0,,8,,,56,127
56543,note_off,0,0,0,,5,,,77,127
56543,note_off,0,0,0,,2,,,74,127
56544,note_on,1,0,0,,5,,,77,127
56544,note_on,0,0,0,,2,,,74,127
56544,note_on,0,0,0,,10,,,57,127
56591,note_off,47,0,0,,2,,,74,127
56591,note_off,0,0,0,,5,,,77,127
56592,note_on,1,0,0,,1,,,73,127
56592,note_on,0,0,0,,4,,,76,127
56639,note_off,47,0,0,,4,,,76,127
56639,note_off,0,0,0,,1,,,73,127
56640,note_on,1,0,0,,5,,,77,127
56640,note_on,0,0,0,,2,,,74,127
56687,note_off,47,0,0,,2,,,74,127
56687,note_off,0,0,0,,5,,,77,127
56688,note_on,1,0,0,,4,,,76,127
56688,note_on,0,0,0,,1,,,73,127
56735,note_off,47,0,0,,10,,,57,127
56736,note_on,1,0,0,,10,,,45,127
56927,note_off,191,0,0,,10,,,45,127
56928,note_on,1,0,0,,8,,,56,127
57119,note_off,191,0,0,,8,,,56,127
57120,note_off,1,0,0,,1,,,73,127
57120,note_off,0,0,0,,4,,,76,127
57120,note_on,0,0,0,,10,,,57,127
57311,note_off,191,0,0,,10,,,57,127
57312,note_on,1,0,0,,10,,,45,127
57503,note_off,191,0,0,,10,,,45,127
57504,note_on,1,0,0,,5,,,77,127
57504,note_on,0,0,0,,10,,,69,127
57504,note_on,0,0,0,,10,,,57,127
57695,note_off,191,0,0,,10,,,57,127
57695,note_off,0,0,0,,10,,,69,127
57695,note_off,0,0,0,,5,,,77,127
57696,note_on,1,0,0,,5,,,77,127
57696,note_on,0,0,0,,10,,,69,127
57696,note_on,0,0,0,,11,,,58,127
57759,note_off,63,0,0,,10,,,69,127
57759,note_off,0,0,0,,5,,,77,127
57760,note_on,1,0,0,,4,,,76,127
57760,note_on,0,0,0,,7,,,67,127
57823,note_off,63,0,0,,7,,,67,127
57823,note_off,0,0,0,,4,,,76,127
57824,note_on,1,0,0,,5,,,77,127
57824,note_on,0,0,0,,10,,,69,127
57887,note_off,63,0,0,,10,,,69,127
57887,note_off,0,0,0,,5,,,77,127
57887,note_off,0,0,0,,11,,,58,127
57888,note_on,1,0,0,,4,,,76,127
57888,note_on,0,0,0,,7,,,67,127
57888,note_on,0,0,0,,0,,,48,127
57951,note_off,63,0,0,,7,,,67,127
57951,note_off,0,0,0,,4,,,76,127
57952,note_on,1,0,0,,5,,,77,127
57952,note_on,0,0,0,,10,,,69,127
58015,note_off,63,0,0,,10,,,69,127
58015,note_off,0,0,0,,5,,,77,127
58016,note_on,1,0,0,,4,,,76,127
58016,note_on,0,0,0,,7,,,67,127
58079,note_off,63,0,0,,7,,,67,127
58079,note_off,0,0,0,,4,,,76,127
58079,note_off,0,0,0,,0,,,48,127
58080,note_on,1,0,0,,10,,,69,127
58080,note_on,0,0,0,,5,,,77,127
58080,note_on,0,0,0,,10,,,57,127
58271,note_off,191,0,0,,10,,,57,127
58271,note_off,0,0,0,,5,,,77,127
58271,note_off,0,0,0,,10,,,69,127
58272,note_on,1,0,0,,5,,,77,127
58272,note_on,0,0,0,,10,,,69,127
58272,note_on,0,0,0,,11,,,58,127
58335,note_off,63,0,0,,10,,,69,127
58335,note_off,0,0,0,,5,,,77,127
58336,note_on,1,0,0,,4,,,76,127
58336,note_on,0,0,0,,7,,,67,127
58399,note_off,63,0,0,,7,,,67,127
58399,note_off,0,0,0,,4,,,76,127
58400,note_on,1,0,0,,5,,,77,127
58400,note_on,0,0,0,,10,,,69,127
58463,note_off,63,0,0,,10,,,69,127
58463,note_off,0,0,0,,5,,,77,127
58463,note_off,0,0,0,,11,,,58,127
58464,note_on,1,0,0,,4,,,76,127
58464,note_on,0,0,0,,7,,,67,127
58464,note_on,0,0,0,,0,,,48,127
58527,note_off,63,0,0,,7,,,67,127
58527,note_off,0,0,0,,4,,,76,127
58528,note_on,1,0,0,,5,,,77,127
58528,note_on,0,0,0,,10,,,69,127
58591,note_off,63,0,0,,10,,,69,127
58591,note_off,0,0,0,,5,,,77,127
58592,note_on,1,0,0,,4,,,76,127
58592,note_on,0,0,0,,7,,,67,127
58655,note_off,63,0,0,,7,,,67,127
58655,note_off,0,0,0,,4,,,76,127
58655,note_off,0,0,0,,0,,,48,127
58656,note_on,1,0,0,,10,,,69,127
58656,note_on,0,0,0,,5,,,77,127
58656,note_on,0,0,0,,10,,,57,127
58847,note_off,191,0,0,,10,,,57,127
58847,note_off,0,0,0,,5,,,77,127
58847,note_off,0,0,0,,10,,,69,127
58848,note_on,1,0,0,,10,,,69,127
58848,note_on,0,0,0,,5,,,77,127
58848,note_on,0,0,0,,11,,,58,127
58895,note_off,47,0,0,,5,,,77,127
58895,note_off,0,0,0,,10,,,69,127
58896,note_on,1,0,0,,4,,,76,127
58896,note_on,0,0,0,,7,,,67,127
58943,note_off,47,0,0,,7,,,67,127
58943,note_off,0,0,0,,4,,,76,127
58944,note_on,1,0,0,,10,,,69,127
58944,note_on,0,0,0,,5,,,77,127
58991,note_off,47,0,0,,5,,,77,127
58991,note_off,0,0,0,,10,,,69,127
58992,note_on,1,0,0,,4,,,76,127
58992,note_on,0,0,0,,7,,,67,127
59039,note_off,47,0,0,,11,,,58,127
59040,note_on,1,0,0,,0,,,48,127
59231,note_off,191,0,0,,0,,,48,127
59232,note_on,1,0,0,,10,,,57,127
59423,note_off,191,0,0,,10,,,57,127
59424,note_off,1,0,0,,7,,,67,127
59424,note_off,0,0,0,,4,,,76,127
59424,note_on,0,0,0,,11,,,58,127
59615,note_off,191,0,0,,11,,,58,127
59616,note_on,1,0,0,,0,,,48,127
59807,note_off,191,0,0,,0,,,48,127
59808,note_on,1,0,0,,2,,,74,127
59808,note_on,0,0,0,,5,,,77,127
59808,note_on,0,0,0,,12,,,59,127
59999,note_off,191,0,0,,12,,,59,127
59999,note_off,0,0,0,,5,,,77,127
59999,note_off,0,0,0,,2,,,74,127
60000,note_on,1,0,0,,5,,,77,127
60000,note_on,0,0,0,,2,,,74,127
60000,note_on,0,0,0,,0,,,60,127
60063,note_off,63,0,0,,2,,,74,127
60063,note_off,0,0,0,,5,,,77,127
60064,note_on,1,0,0,,4,,,76,127
60064,note_on,0,0,0,,0,,,72,127
60127,note_off,63,0,0,,0,,,72,127
60127,note_off,0,0,0,,4,,,76,127
60128,note_on,1,0,0,,5,,,77,127
60128,note_on,0,0,0,,2,,,74,127
60191,note_off,63,0,0,,2,,,74,127
60191,note_off,0,0,0,,5,,,77,127
60191,note_off,0,0,0,,0,,,60,127
60192,note_on,1,0,0,,4,,,76,127
60192,note_on,0,0,0,,0,,,72,127
60192,note_on,0,0,0,,0,,,48,127
60255,note_off,63,0,0,,0,,,72,127
60255,note_off,0,0,0,,4,,,76,127
60256,note_on,1,0,0,,5,,,77,127
60256,note_on,0,0,0,,2,,,74,127
60319,note_off,63,0,0,,2,,,74,127
60319,note_off,0,0,0,,5,,,77,127
60320,note_on,1,0,0,,4,,,76,127
60320,note_on,0,0,0,,0,,,72,127
60383,note_off,63,0,0,,0,,,72,127
60383,note_off,0,0,0,,4,,,76,127
60383,note_off,0,0,0,,0,,,48,127
60384,note_on,1,0,0,,2,,,74,127
60384,note_on,0,0,0,,5,,,77,127
60384,note_on,0,0,0,,12,,,59,127
60575,note_off,191,0,0,,12,,,59,127
60575,note_off,0,0,0,,5,,,77,127
60575,note_off,0,0,0,,2,,,74,127
60576,note_on,1,0,0,,5,,,77,127
60576,note_on,0,0,0,,2,,,74,127
60576,note_on,0,0,0,,0,,,60,127
60639,note_off,63,0,0,,2,,,74,127
60639,note_off,0,0,0,,5,,,77,127
60640,note_on,1,0,0,,4,,,76,127
60640,note_on,0,0,0,,0,,,72,127
60703,note_off,63,0,0,,0,,,72,127
60703,note_off,0,0,0,,4,,,76,127
60704,note_on,1,0,0,,5,,,77,127
60704,note_on,0,0,0,,2,,,74,127
60767,note_off,63,0,0,,2,,,74,127
60767,note_off,0,0,0,,5,,,77,127
60767,note_off,0,0,0,,0,,,60,127
60768,note_on,1,0,0,,4,,,76,127
60768,note_on,0,0,0,,0,,,72,127
60768,note_on,0,0,0,,0,,,48,127
60831,note_off,63,0,0,,0,,,72,127
60831,note_off,0,0,0,,4,,,76,127
60832,note_on,1,0,0,,5,,,77,127
60832,note_on,0,0,0,,2,,,74,127
60895,note_off,63,0,0,,2,,,74,127
60895,note_off,0,0,0,,5,,,77,127
60896,note_on,1,0,0,,4,,,76,127
60896,note_on,0,0,0,,0,,,72,127
60959,note_off,63,0,0,,0,,,72,127
60959,note_off,0,0,0,,4,,,76,127
60959,note_off,0,0,0,,0,,,48,127
60960,note_on,1,0,0,,5,,,77,127
60960,note_on,0,0,0,,2,,,74,127
60960,note_on,0,0,0,,12,,,59,127
61151,note_off,191,0,0,,12,,,59,127
61151,note_off,0,0,0,,2,,,74,127
61151,note_off,0,0,0,,5,,,77,127
61152,note_on,1,0,0,,5,,,77,127
61152,note_on,0,0,0,,2,,,74,127
61152,note_on,0,0,0,,0,,,60,127
61199,note_off,47,0,0,,2,,,74,127
61199,note_off,0,0,0,,5,,,77,127
61200,note_on,1,0,0,,0,,,72,127
61200,note_on,0,0,0,,4,,,76,127
61247,note_off,47,0,0,,4,,,76,127
61247,note_off,0,0,0,,0,,,72,127
61248,note_on,1,0,0,,2,,,74,127
61248,note_on,0,0,0,,5,,,77,127
61295,note_off,47,0,0,,5,,,77,127
61295,note_off,0,0,0,,2,,,74,127
61296,note_on,1,0,0,,0,,,72,127
61296,note_on,0,0,0,,4,,,76,127
61343,note_off,47,0,0,,0,,,60,127
61344,note_on,1,0,0,,0,,,48,127
61535,note_off,191,0,0,,0,,,48,127
61536,note_on,1,0,0,,12,,,59,127
61727,note_off,191,0,0,,12,,,59,127
61728,note_off,1,0,0,,4,,,76,127
61728,note_off,0,0,0,,0,,,72,127
61728,note_on,0,0,0,,0,,,60,127
61919,note_off,191,0,0,,0,,,60,127
61920,note_on,1,0,0,,0,,,48,127
62111,note_off,191,0,0,,0,,,48,127
62112,note_on,1,0,0,,5,,,77,127
62112,note_on,0,0,0,,2,,,74,127
62112,note_on,0,0,0,,8,,,68,127
62303,note_off,191,0,0,,8,,,68,127
62303,note_off,0,0,0,,2,,,74,127
62303,note_off,0,0,0,,5,,,77,127
62304,note_on,1,0,0,,5,,,77,127
62304,note_on,0,0,0,,2,,,74,127
62304,note_on,0,0,0,,10,,,69,127
62367,note_off,63,0,0,,2,,,74,127
62367,note_off,0,0,0,,5,,,77,127
62368,note_on,1,0,0,,4,,,76,127
62368,note_on,0,0,0,,0,,,72,127
62431,note_off,63,0,0,,0,,,72,127
62431,note_off,0,0,0,,4,,,76,127
62432,note_on,1,0,0,,5,,,77,127
62432,note_on,0,0,0,,2,,,74,127
62495,note_off,63,0,0,,2,,,74,127
62495,note_off,0,0,0,,5,,,77,127
62495,note_off,0,0,0,,10,,,69,127
62496,note_on,1,0,0,,4,,,76,127
62496,note_on,0,0,0,,0,,,72,127
62496,note_on,0,0,0,,10,,,57,127
62559,note_off,63,0,0,,0,,,72,127
62559,note_off,0,0,0,,4,,,76,127
62560,note_on,1,0,0,,5,,,77,127
62560,note_on,0,0,0,,2,,,74,127
62623,note_off,63,0,0,,2,,,74,127
62623,note_off,0,0,0,,5,,,77,127
62624,note_on,1,0,0,,4,,,76,127
62624,note_on,0,0,0,,0,,,72,127
62687,note_off,63,0,0,,0,,,72,127
62687,note_off,0,0,0,,4,,,76,127
62687,note_off,0,0,0,,10,,,57,127
62688,note_on,1,0,0,,5,,,77,127
62688,note_on,0,0,0,,2,,,74,127
62688,note_on,0,0,0,,8,,,68,127
62879,note_off,191,0,0,,8,,,68,127
62879,note_off,0,0,0,,2,,,74,127
62879,note_off,0,0,0,,5,,,77,127
62880,note_on,1,0,0,,5,,,77,127
62880,note_on,0,0,0,,2,,,74,127
62880,note_on,0,0,0,,10,,,69,127
62943,note_off,63,0,0,,2,,,74,127
62943,note_off,0,0,0,,5,,,77,127
62944,note_on,1,0,0,,4,,,76,127
62944,note_on,0,0,0,,0,,,72,127
63007,note_off,63,0,0,,0,,,72,127
63007,note_off,0,0,0,,4,,,76,127
63008,note_on,1,0,0,,5,,,77,127
63008,note_on,0,0,0,,2,,,74,127
63071,note_off,63,0,0,,2,,,74,127
63071,note_off,0,0,0,,5,,,77,127
63071,note_off,0,0,0,,10,,,69,127
63072,note_on,1,0,0,,4,,,76,127
63072,note_on,0,0,0,,0,,,72,127
63072,note_on,0,0,0,,10,,,57,127
63135,note_off,63,0,0,,0,,,72,127
63135,note_off,0,0,0,,4,,,76,127
63136,note_on,1,0,0,,5,,,77,127
63136,note_on,0,0,0,,2,,,74,127
63199,note_off,63,0,0,,2,,,74,127
63199,note_off,0,0,0,,5,,,77,127
63200,note_on,1,0,0,,4,,,76,127
63200,note_on,0,0,0,,0,,,72,127
63263,note_off,63,0,0,,0,,,72,127
63263,note_off,0,0,0,,4,,,76,127
63263,note_off,0,0,0,,10,,,57,127
63264,note_on,1,0,0,,2,,,74,127
63264,note_on,0,0,0,,5,,,77,127
63264,note_on,0,0,0,,8,,,68,127
63455,note_off,191,0,0,,8,,,68,127
63455,note_off,0,0,0,,5,,,77,127
63455,note_off,0,0,0,,2,,,74,127
63456,note_on,1,0,0,,5,,,77,127
63456,note_on,0,0,0,,2,,,74,127
63456,note_on,0,0,0,,10,,,69,127
63503,note_off,47,0,0,,2,,,74,127
63503,note_off,0,0,0,,5,,,77,127
63504,note_on,1,0,0,,4,,,76,127
63504,note_on,0,0,0,,0,,,72,127
63551,note_off,47,0,0,,0,,,72,127
63551,note_off,0,0,0,,4,,,76,127
63552,note_on,1,0,0,,5,,,77,127
63552,note_on,0,0,0,,2,,,74,127
63599,note_off,47,0,0,,2,,,74,127
63599,note_off,0,0,0,,5,,,77,127
63600,note_on,1,0,0,,4,,,76,127
63600,note_on,0,0,0,,0,,,72,127
63647,note_off,47,0,0,,10,,,69,127
63648,note_on,1,0,0,,10,,,57,127
63839,note_off,191,0,0,,10,,,57,127
63840,note_on,1,0,0,,7,,,67,127
64031,note_off,191,0,0,,7,,,67,127
64031,note_off,0,0,0,,0,,,72,127
64031,note_off,0,0,0,,4,,,76,127
64032,note_on,1,0,0,,10,,,81,127
64032,note_on,0,0,0,,5,,,65,127
64223,note_off,191,0,0,,5,,,65,127
64223,note_off,0,0,0,,10,,,81,127
64224,note_on,1,0,0,,7,,,79,127
64224,note_on,0,0,0,,4,,,64,127
64415,note_off,191,0,0,,4,,,64,127
64415,note_off,0,0,0,,7,,,79,127
64416,note_on,1,0,0,,5,,,77,127
64416,note_on,0,0,0,,2,,,62,127
64607,note_off,191,0,0,,2,,,62,127
64607,note_off,0,0,0,,5,,,77,127
64608,note_on,1,0,0,,4,,,76,127
64608,note_on,0,0,0,,0,,,60,127
64799,note_off,191,0,0,,0,,,60,127
64799,note_off,0,0,0,,4,,,76,127
64800,note_on,1,0,0,,2,,,74,127
64800,note_on,0,0,0,,12,,,59,127
64991,note_off,191,0,0,,12,,,59,127
64991,note_off,0,0,0,,2,,,74,127
64992,note_on,1,0,0,,0,,,72,127
64992,note_on,0,0,0,,10,,,57,127
65183,note_off,191,0,0,,10,,,57,127
65183,note_off,0,0,0,,0,,,72,127
65184,note_on,1,0,0,,12,,,71,127
65184,note_on,0,0,0,,2,,,50,127
65375,note_off,191,0,0,,2,,,50,127
65376,note_on,1,0,0,,4,,,52,127
65434,note_off,58,0,0,,12,,,71,127
65440,note_on,6,0,0,,10,,,69,127
65503,note_off,63,0,0,,10,,,69,127
65504,note_on,1,0,0,,12,,,71,127
65567,note_off,63,0,0,,12,,,71,127
65567,note_off,0,0,0,,4,,,52,127
65568,note_on,1,0,0,,10,,,69,127
65568,note_on,0,0,0,,5,,,53,127
65631,note_off,63,0,0,,10,,,69,127
65632,note_on,1,0,0,,12,,,71,127
65695,note_off,63,0,0,,12,,,71,127
65696,note_on,1,0,0,,10,,,69,127
65759,note_off,63,0,0,,5,,,53,127
65760,note_on,1,0,0,,4,,,52,127
65951,note_off,191,0,0,,4,,,52,127
65951,note_off,0,0,0,,10,,,69,127
65952,note_on,1,0,0,,8,,,68,127
65952,note_on,0,0,0,,4,,,40,127
66047,note_off,95,0,0,,8,,,68,127
66048,note_on,1,0,0,,6,,,66,127
66143,note_off,95,0,0,,6,,,66,127
66144,note_on,1,0,0,,4,,,64,127
66335,note_off,191,0,0,,4,,,64,127
66335,note_off,0,0,0,,4,,,40,127
66336,note_on,1,0,0,,8,,,68,127
66336,note_on,0,0,0,,4,,,76,127
66432,note_on,96,0,0,,4,,,52,127
66479,note_off,47,0,0,,4,,,52,127
66480,note_on,1,0,0,,6,,,54,127
66527,note_off,47,0,0,,6,,,54,127
66528,note_on,1,0,0,,8,,,56,127
66575,note_off,47,0,0,,8,,,56,127
66576,note_on,1,0,0,,10,,,57,127
66623,note_off,47,0,0,,10,,,57,127
66624,note_on,1,0,0,,12,,,59,127
66671,note_off,47,0,0,,12,,,59,127
66672,note_on,1,0,0,,0,,,60,127
66719,note_off,47,0,0,,0,,,60,127
66719,note_off,0,0,0,,4,,,76,127
66719,note_off,0,0,0,,8,,,68,127
66720,note_on,1,0,0,,10,,,69,127
66720,note_on,0,0,0,,5,,,77,127
66720,note_on,0,0,0,,2,,,62,127
66911,note_off,191,0,0,,5,,,77,127
66911,note_off,0,0,0,,10,,,69,127
66912,note_on,1,0,0,,8,,,68,127
66912,note_on,0,0,0,,4,,,76,127
67007,note_off,95,0,0,,2,,,62,127
67008,note_on,1,0,0,,4,,,52,127
67055,note_off,47,0,0,,4,,,52,127
67056,note_on,1,0,0,,6,,,54,127
67103,note_off,47,0,0,,6,,,54,127
67104,note_on,1,0,0,,8,,,56,127
67151,note_off,47,0,0,,8,,,56,127
67152,note_on,1,0,0,,10,,,57,127
67199,note_off,47,0,0,,10,,,57,127
67200,note_on,1,0,0,,12,,,59,127
67247,note_off,47,0,0,,12,,,59,127
67248,note_on,1,0,0,,0,,,60,127
67295,note_off,47,0,0,,0,,,60,127
67295,note_off,0,0,0,,4,,,76,127
67295,note_off,0,0,0,,8,,,68,127
67296,note_on,1,0,0,,5,,,77,127
67296,note_on,0,0,0,,10,,,69,127
67296,note_on,0,0,0,,2,,,62,127
67487,note_off,191,0,0,,10,,,69,127
67487,note_off,0,0,0,,5,,,77,127
67488,note_on,1,0,0,,4,,,76,127
67488,note_on,0,0,0,,8,,,68,127
67583,note_off,95,0,0,,2,,,62,127
67584,note_on,1,0,0,,4,,,52,127
67631,note_off,47,0,0,,4,,,52,127
67632,note_on,1,0,0,,6,,,54,127
67679,note_off,47,0,0,,6,,,54,127
67680,note_on,1,0,0,,8,,,56,127
67727,note_off,47,0,0,,8,,,56,127
67728,note_on,1,0,0,,10,,,57,127
67775,note_off,47,0,0,,10,,,57,127
67776,note_on,1,0,0,,12,,,59,127
67823,note_off,47,0,0,,12,,,59,127
67824,note_on,1,0,0,,0,,,60,127
67871,note_off,47,0,0,,0,,,60,127
67871,note_off,0,0,0,,8,,,68,127
67871,note_off,0,0,0,,4,,,76,127
67872,note_on,1,0,0,,5,,,77,127
67872,note_on,0,0,0,,10,,,69,127
67872,note_on,0,0,0,,2,,,62,127
68063,note_off,191,0,0,,2,,,62,127
68064,note_on,1,0,0,,4,,,64,127
68064,note_on,0,0,0,,4,,,52,127
68159,note_off,95,0,0,,10,,,69,127
68159,note_off,0,0,0,,5,,,77,127
68160,note_on,1,0,0,,8,,,68,127
68207,note_off,47,0,0,,8,,,68,127
68208,note_on,1,0,0,,10,,,69,127
68255,note_off,47,0,0,,10,,,69,127
68256,note_on,1,0,0,,12,,,71,127
68303,note_off,47,0,0,,12,,,71,127
68304,note_on,1,0,0,,0,,,72,127
68351,note_off,47,0,0,,0,,,72,127
68352,note_on,1,0,0,,2,,,74,127
68399,note_off,47,0,0,,2,,,74,127
68400,note_on,1,0,0,,4,,,76,127
68447,note_off,47,0,0,,4,,,76,127
68447,note_off,0,0,0,,4,,,52,127
68447,note_off,0,0,0,,4,,,64,127
68448,note_on,1,0,0,,5,,,77,127
68448,note_on,0,0,0,,2,,,62,127
68639,note_off,191,0,0,,2,,,62,127
68640,note_on,1,0,0,,4,,,52,127
68640,note_on,0,0,0,,4,,,64,127
68735,note_off,95,0,0,,5,,,77,127
68736,note_on,1,0,0,,8,,,68,127
68783,note_off,47,0,0,,8,,,68,127
68784,note_on,1,0,0,,10,,,69,127
68831,note_off,47,0,0,,10,,,69,127
68832,note_on,1,0,0,,12,,,71,127
68879,note_off,47,0,0,,12,,,71,127
68880,note_on,1,0,0,,0,,,72,127
68927,note_off,47,0,0,,0,,,72,127
68928,note_on,1,0,0,,2,,,74,127
68975,note_off,47,0,0,,2,,,74,127
68976,note_on,1,0,0,,4,,,76,127
69023,note_off,47,0,0,,4,,,76,127
69023,note_off,0,0,0,,4,,,64,127
69023,note_off,0,0,0,,4,,,52,127
69024,note_on,1,0,0,,5,,,77,127
69024,note_on,0,0,0,,2,,,62,127
69215,note_off,191,0,0,,2,,,62,127
69216,note_on,1,0,0,,4,,,52,127
69216,note_on,0,0,0,,4,,,64,127
69311,note_off,95,0,0,,5,,,77,127
69312,note_on,1,0,0,,8,,,68,127
69359,note_off,47,0,0,,8,,,68,127
69360,note_on,1,0,0,,10,,,69,127
69407,note_off,47,0,0,,10,,,69,127
69408,note_on,1,0,0,,12,,,71,127
69455,note_off,47,0,0,,12,,,71,127
69456,note_on,1,0,0,,0,,,72,127
69503,note_off,47,0,0,,0,,,72,127
69504,note_on,1,0,0,,2,,,74,127
69551,note_off,47,0,0,,2,,,74,127
69552,note_on,1,0,0,,4,,,76,127
69599,note_off,47,0,0,,4,,,76,127
69599,note_off,0,0,0,,4,,,64,127
69599,note_off,0,0,0,,4,,,52,127
69600,note_on,1,0,0,,10,,,81,127
69600,note_on,0,0,0,,5,,,65,127
69791,note_off,191,0,0,,5,,,65,127
69792,note_on,1,0,0,,4,,,64,127
69792,note_on,0,0,0,,4,,,52,127
69983,note_off,191,0,0,,10,,,81,127
69984,note_on,1,0,0,,8,,,80,127
70175,note_off,191,0,0,,8,,,80,127
70175,note_off,0,0,0,,4,,,52,127
70175,note_off,0,0,0,,4,,,64,127
70176,note_on,1,0,0,,4,,,88,127
70176,note_on,0,0,0,,2,,,62,127
70367,note_off,191,0,0,,2,,,62,127
70368,note_on,1,0,0,,0,,,60,127
70559,note_off,191,0,0,,0,,,60,127
70559,note_off,0,0,0,,4,,,88,127
70560,note_on,1,0,0,,0,,,84,127
70560,note_on,0,0,0,,12,,,59,127
70751,note_off,191,0,0,,12,,,59,127
70751,note_off,0,0,0,,0,,,84,127
70752,note_on,1,0,0,,10,,,81,127
70752,note_on,0,0,0,,10,,,57,127
70943,note_off,191,0,0,,10,,,57,127
70943,note_off,0,0,0,,10,,,81,127
70944,note_on,1,0,0,,5,,,77,127
70944,note_on,0,0,0,,2,,,50,127
71135,note_off,191,0,0,,5,,,77,127
71136,note_on,1,0,0,,2,,,74,127
71327,note_off,191,0,0,,2,,,74,127
71327,note_off,0,0,0,,2,,,50,127
71328,note_on,1,0,0,,12,,,71,127
71328,note_on,0,0,0,,5,,,53,127
71519,note_off,191,0,0,,5,,,53,127
71519,note_off,0,0,0,,12,,,71,127
71520,note_on,1,0,0,,10,,,69,127
71520,note_on,0,0,0,,4,,,52,127
71711,note_off,191,0,0,,4,,,52,127
71711,note_off,0,0,0,,10,,,69,127
71712,note_on,1,0,0,,10,,,69,127
71712,note_on,0,0,0,,4,,,40,127
71903,note_off,191,0,0,,10,,,69,127
71904,note_on,1,0,0,,8,,,68,127
72095,note_off,191,0,0,,8,,,68,127
72095,note_off,0,0,0,,4,,,40,127
72096,note_on,1,0,0,,8,,,68,127
72096,note_on,0,0,0,,10,,,45,127
72287,note_off,191,0,0,,8,,,68,127
72288,note_on,1,0,0,,10,,,69,127
72576,note_off,288,0,0,,10,,,69,127
72661,note_off,85,0,0,,10,,,45,127
72672,note_on,11,0,0,,4,,,76,127
72672,note_on,0,0,0,,8,,,68,127
72768,note_on,96,0,0,,4,,,52,127
72815,note_off,47,0,0,,4,,,52,127
72816,note_on,1,0,0,,6,,,54,127
72863,note_off,47,0,0,,6,,,54,127
72864,note_on,1,0,0,,8,,,56,127
72911,note_off,47,0,0,,8,,,56,127
72912,note_on,1,0,0,,10,,,57,127
72959,note_off,47,0,0,,10,,,57,127
72960,note_on,1,0,0,,12,,,59,127
73007,note_off,47,0,0,,12,,,59,127
73008,note_on,1,0,0,,0,,,60,127
73055,note_off,47,0,0,,0,,,60,127
73055,note_off,0,0,0,,8,,,68,127
73055,note_off,0,0,0,,4,,,76,127
73056,note_on,1,0,0,,5,,,77,127
73056,note_on,0,0,0,,10,,,69,127
73056,note_on,0,0,0,,2,,,62,127
73247,note_off,191,0,0,,10,,,69,127
73247,note_off,0,0,0,,5,,,77,127
73248,note_on,1,0,0,,8,,,68,127
73248,note_on,0,0,0,,4,,,76,127
73343,note_off,95,0,0,,2,,,62,127
73344,note_on,1,0,0,,4,,,52,127
73391,note_off,47,0,0,,4,,,52,127
73392,note_on,1,0,0,,6,,,54,127
73439,note_off,47,0,0,,6,,,54,127
73440,note_on,1,0,0,,8,,,56,127
73487,note_off,47,0,0,,8,,,56,127
73488,note_on,1,0,0,,10,,,57,127
73535,note_off,47,0,0,,10,,,57,127
73536,note_on,1,0,0,,12,,,59,127
73583,note_off,47,0,0,,12,,,59,127
73584,note_on,1,0,0,,0,,,60,127
73631,note_off,47,0,0,,0,,,60,127
73631,note_off,0,0,0,,4,,,76,127
73631,note_off,0,0,0,,8,,,68,127
73632,note_on,1,0,0,,5,,,77,127
73632,note_on,0,0,0,,10,,,69,127
73632,note_on,0,0,0,,2,,,62,127
73823,note_off,191,0,0,,2,,,62,127
73824,note_on,1,0,0,,4,,,52,127
73824,note_on,0,0,0,,4,,,64,127
73919,note_off,95,0,0,,10,,,69,127
73919,note_off,0,0,0,,5,,,77,127
73920,note_on,1,0,0,,8,,,68,127
73967,note_off,47,0,0,,8,,,68,127
73968,note_on,1,0,0,,10,,,69,127
74015,note_off,47,0,0,,10,,,69,127
74016,note_on,1,0,0,,12,,,71,127
74063,note_off,47,0,0,,12,,,71,127
74064,note_on,1,0,0,,0,,,72,127
74111,note_off,47,0,0,,0,,,72,127
74112,note_on,1,0,0,,2,,,74,127
74159,note_off,47,0,0,,2,,,74,127
74160,note_on,1,0,0,,4,,,76,127
74207,note_off,47,0,0,,4,,,76,127
74207,note_off,0,0,0,,4,,,64,127
74207,note_off,0,0,0,,4,,,52,127
74208,note_on,1,0,0,,5,,,77,127
74208,note_on,0,0,0,,2,,,62,127
74399,note_off,191,0,0,,2,,,62,127
74400,note_on,1,0,0,,4,,,64,127
74400,note_on,0,0,0,,4,,,52,127
74495,note_off,95,0,0,,5,,,77,127
74496,note_on,1,0,0,,8,,,68,127
74543,note_off,47,0,0,,8,,,68,127
74544,note_on,1,0,0,,10,,,69,127
74591,note_off,47,0,0,,10,,,69,127
74592,note_on,1,0,0,,12,,,71,127
74639,note_off,47,0,0,,12,,,71,127
74640,note_on,1,0,0,,0,,,72,127
74687,note_off,47,0,0,,0,,,72,127
74688,note_on,1,0,0,,2,,,74,127
74735,note_off,47,0,0,,2,,,74,127
74736,note_on,1,0,0,,4,,,76,127
74783,note_off,47,0,0,,4,,,76,127
74783,note_off,0,0,0,,4,,,52,127
74783,note_off,0,0,0,,4,,,64,127
74784,note_on,1,0,0,,10,,,81,127
74784,note_on,0,0,0,,5,,,65,127
74975,note_off,191,0,0,,5,,,65,127
74976,note_on,1,0,0,,4,,,52,127
74976,note_on,0,0,0,,4,,,64,127
75167,note_off,191,0,0,,10,,,81,127
75168,note_on,1,0,0,,8,,,80,127
75359,note_off,191,0,0,,8,,,80,127
75359,note_off,0,0,0,,4,,,64,127
75359,note_off,0,0,0,,4,,,52,127
75360,note_on,1,0,0,,4,,,88,127
75360,note_on,0,0,0,,2,,,62,127
75551,note_off,191,0,0,,2,,,62,127
75552,note_on,1,0,0,,0,,,60,127
75743,note_off,191,0,0,,0,,,60,127
75743,note_off,0,0,0,,4,,,88,127
75744,note_on,1,0,0,,0,,,84,127
75744,note_on,0,0,0,,12,,,59,127
75935,note_off,191,0,0,,12,,,59,127
75935,note_off,0,0,0,,0,,,84,127
75936,note_on,1,0,0,,10,,,81,127
75936,note_on,0,0,0,,10,,,57,127
76127,note_off,191,0,0,,10,,,57,127
76127,note_off,0,0,0,,10,,,81,127
76128,note_on,1,0,0,,5,,,77,127
76128,note_on,0,0,0,,2,,,50,127
76319,note_off,191,0,0,,5,,,77,127
76320,note_on,1,0,0,,2,,,74,127
76511,note_off,191,0,0,,2,,,74,127
76511,note_off,0,0,0,,2,,,50,127
76512,note_on,1,0,0,,12,,,71,127
76512,note_on,0,0,0,,5,,,53,127
76703,note_off,191,0,0,,5,,,53,127
76703,note_off,0,0,0,,12,,,71,127
76704,note_on,1,0,0,,10,,,69,127
76704,note_on,0,0,0,,4,,,52,127
76895,note_off,191,0,0,,4,,,52,127
76895,note_off,0,0,0,,10,,,69,127
76896,note_on,1,0,0,,10,,,69,127
76896,note_on,0,0,0,,4,,,40,127
77087,note_off,191,0,0,,10,,,69,127
77088,note_on,1,0,0,,8,,,68,127
77248,note_off,160,0,0,,8,,,68,127
77280,note_on,32,0,0,,7,,,67,127
77280,note_on,0,0,0,,1,,,73,127
77376,note_off,96,0,0,,4,,,40,127
77472,note_on,96,0,0,,10,,,33,127
77472,note_on,0,0,0,,10,,,45,127
77663,note_off,191,0,0,,1,,,73,127
77663,note_off,0,0,0,,7,,,67,127
77664,note_on,1,0,0,,2,,,74,127
77664,note_on,0,0,0,,5,,,65,127
77855,note_off,191,0,0,,10,,,45,127
77855,note_off,0,0,0,,10,,,33,127
77856,note_on,1,0,0,,10,,,33,127
77856,note_on,0,0,0,,10,,,45,127
78047,note_off,191,0,0,,5,,,65,127
78047,note_off,0,0,0,,2,,,74,127
78048,note_on,1,0,0,,4,,,76,127
78048,note_on,0,0,0,,8,,,68,127
78239,note_off,191,0,0,,10,,,45,127
78239,note_off,0,0,0,,10,,,33,127
78240,note_on,1,0,0,,10,,,33,127
78240,note_on,0,0,0,,10,,,45,127
78431,note_off,191,0,0,,8,,,68,127
78431,note_off,0,0,0,,4,,,76,127
78432,note_on,1,0,0,,10,,,69,127
78432,note_on,0,0,0,,5,,,77,127
78623,note_off,191,0,0,,10,,,45,127
78623,note_off,0,0,0,,10,,,33,127
78624,note_on,1,0,0,,10,,,33,127
78624,note_on,0,0,0,,10,,,45,127
78815,note_off,191,0,0,,5,,,77,127
78815,note_off,0,0,0,,10,,,69,127
78816,note_on,1,0,0,,8,,,80,127
78816,note_on,0,0,0,,12,,,71,127
79007,note_off,191,0,0,,10,,,45,127
79007,note_off,0,0,0,,10,,,33,127
79008,note_on,1,0,0,,12,,,35,127
79008,note_on,0,0,0,,12,,,47,127
79199,note_off,191,0,0,,12,,,71,127
79199,note_off,0,0,0,,8,,,80,127
79200,note_on,1,0,0,,10,,,81,127
79200,note_on,0,0,0,,0,,,72,127
79391,note_off,191,0,0,,12,,,47,127
79391,note_off,0,0,0,,12,,,35,127
79392,note_on,1,0,0,,0,,,36,127
79392,note_on,0,0,0,,0,,,48,127
79583,note_off,191,0,0,,0,,,48,127
79583,note_off,0,0,0,,0,,,36,127
79584,note_on,1,0,0,,2,,,50,127
79584,note_on,0,0,0,,2,,,38,127
79680,note_off,96,0,0,,0,,,72,127
79775,note_off,95,0,0,,10,,,81,127
79776,note_on,1,0,0,,7,,,79,127
79871,note_off,95,0,0,,7,,,79,127
79872,note_on,1,0,0,,5,,,77,127
79967,note_off,95,0,0,,5,,,77,127
79967,note_off,0,0,0,,2,,,38,127
79967,note_off,0,0,0,,2,,,50,127
79968,note_on,1,0,0,,4,,,76,127
79968,note_on,0,0,0,,2,,,38,127
79968,note_on,0,0,0,,2,,,50,127
80063,note_off,95,0,0,,4,,,76,127
80064,note_on,1,0,0,,2,,,74,127
80159,note_off,95,0,0,,2,,,74,127
80159,note_off,0,0,0,,2,,,50,127
80159,note_off,0,0,0,,2,,,38,127
80160,note_on,1,0,0,,0,,,72,127
80160,note_on,0,0,0,,4,,,52,127
80255,note_off,95,0,0,,0,,,72,127
80256,note_on,1,0,0,,12,,,71,127
80351,note_off,95,0,0,,12,,,71,127
80352,note_on,1,0,0,,0,,,72,127
80447,note_off,95,0,0,,0,,,72,127
80448,note_on,1,0,0,,10,,,69,127
80543,note_off,95,0,0,,10,,,69,127
80543,note_off,0,0,0,,4,,,52,127
80544,note_on,1,0,0,,12,,,71,127
80544,note_on,0,0,0,,4,,,40,127
80639,note_off,95,0,0,,12,,,71,127
80640,note_on,1,0,0,,8,,,68,127
80735,note_off,95,0,0,,8,,,68,127
80736,note_on,1,0,0,,7,,,67,127
80736,note_on,0,0,0,,1,,,73,127
80927,note_off,191,0,0,,4,,,40,127
80928,note_on,1,0,0,,10,,,33,127
80928,note_on,0,0,0,,10,,,45,127
81119,note_off,191,0,0,,1,,,73,127
81119,note_off,0,0,0,,7,,,67,127
81120,note_on,1,0,0,,5,,,65,127
81120,note_on,0,0,0,,2,,,74,127
81311,note_off,191,0,0,,10,,,45,127
81311,note_off,0,0,0,,10,,,33,127
81312,note_on,1,0,0,,10,,,33,127
81312,note_on,0,0,0,,10,,,45,127
81503,note_off,191,0,0,,2,,,74,127
81503,note_off,0,0,0,,5,,,65,127
81504,note_on,1,0,0,,4,,,76,127
81504,note_on,0,0,0,,8,,,68,127
81695,note_off,191,0,0,,10,,,45,127
81695,note_off,0,0,0,,10,,,33,127
81696,note_on,1,0,0,,10,,,33,127
81696,note_on,0,0,0,,10,,,45,127
81887,note_off,191,0,0,,8,,,68,127
81887,note_off,0,0,0,,4,,,76,127
81888,note_on,1,0,0,,10,,,69,127
81888,note_on,0,0,0,,5,,,77,127
82079,note_off,191,0,0,,10,,,45,127
82079,note_off,0,0,0,,10,,,33,127
82080,note_on,1,0,0,,10,,,33,127
82080,note_on,0,0,0,,10,,,45,127
82271,note_off,191,0,0,,5,,,77,127
82271,note_off,0,0,0,,10,,,69,127
82272,note_on,1,0,0,,8,,,80,127
82272,note_on,0,0,0,,12,,,71,127
82463,note_off,191,0,0,,10,,,45,127
82463,note_off,0,0,0,,10,,,33,127
82464,note_on,1,0,0,,12,,,35,127
82464,note_on,0,0,0,,12,,,47,127
82655,note_off,191,0,0,,12,,,71,127
82655,note_off,0,0,0,,8,,,80,127
82656,note_on,1,0,0,,0,,,72,127
82656,note_on,0,0,0,,10,,,81,127
82847,note_off,191,0,0,,12,,,47,127
82847,note_off,0,0,0,,12,,,35,127
82848,note_on,1,0,0,,0,,,36,127
82848,note_on,0,0,0,,0,,,48,127
83036,note_off,188,0,0,,0,,,72,127
83039,note_off,3,0,0,,0,,,48,127
83039,note_off,0,0,0,,0,,,36,127
83040,note_on,1,0,0,,2,,,38,127
83040,note_on,0,0,0,,2,,,50,127
83231,note_off,191,0,0,,10,,,81,127
83232,note_on,1,0,0,,7,,,79,127
83327,note_off,95,0,0,,7,,,79,127
83328,note_on,1,0,0,,5,,,77,127
83423,note_off,95,0,0,,5,,,77,127
83423,note_off,0,0,0,,2,,,50,127
83423,note_off,0,0,0,,2,,,38,127
83424,note_on,1,0,0,,4,,,76,127
83424,note_on,0,0,0,,2,,,50,127
83424,note_on,0,0,0,,2,,,38,127
83519,note_off,95,0,0,,4,,,76,127
83520,note_on,1,0,0,,2,,,74,127
83615,note_off,95,0,0,,2,,,74,127
83615,note_off,0,0,0,,2,,,38,127
83615,note_off,0,0,0,,2,,,50,127
83616,note_on,1,0,0,,0,,,72,127
83616,note_on,0,0,0,,4,,,52,127
83711,note_off,95,0,0,,0,,,72,127
83712,note_on,1,0,0,,12,,,71,127
83807,note_off,95,0,0,,12,,,71,127
83808,note_on,1,0,0,,0,,,72,127
83903,note_off,95,0,0,,0,,,72,127
83904,note_on,1,0,0,,10,,,69,127
83999,note_off,95,0,0,,10,,,69,127
83999,note_off,0,0,0,,4,,,52,127
84000,note_on,1,0,0,,12,,,71,127
84000,note_on,0,0,0,,4,,,40,127
84095,note_off,95,0,0,,12,,,71,127
84096,note_on,1,0,0,,8,,,68,127
84191,note_off,95,0,0,,8,,,68,127
84191,note_off,0,0,0,,4,,,40,127
84192,note_on,1,0,0,,10,,,69,127
84192,note_on,0,0,0,,10,,,45,127
84362,note_off,170,0,0,,10,,,69,127
84384,note_on,22,0,0,,5,,,77,127
84575,note_off,191,0,0,,5,,,77,127
84576,note_on,1,0,0,,4,,,76,127
84672,note_off,96,0,0,,10,,,45,127
84768,note_on,96,0,0,,5,,,65,127
84768,note_on,0,0,0,,2,,,50,127
84959,note_off,191,0,0,,2,,,50,127
84959,note_off,0,0,0,,5,,,65,127
84960,note_on,1,0,0,,4,,,64,127
84960,note_on,0,0,0,,4,,,52,127
85151,note_off,191,0,0,,4,,,52,127
85151,note_off,0,0,0,,4,,,64,127
85151,note_off,0,0,0,,4,,,76,127
85152,note_on,1,0,0,,2,,,74,127
85152,note_on,0,0,0,,8,,,68,127
85152,note_on,0,0,0,,12,,,71,127
85152,note_on,0,0,0,,4,,,40,127
85343,note_off,191,0,0,,4,,,40,127
85343,note_off,0,0,0,,12,,,71,127
85343,note_off,0,0,0,,8,,,68,127
85343,note_off,0,0,0,,2,,,74,127
85344,note_on,1,0,0,,0,,,72,127
85344,note_on,0,0,0,,10,,,69,127
85344,note_on,0,0,0,,10,,,45,127
85535,note_off,191,0,0,,10,,,69,127
85535,note_off,0,0,0,,0,,,72,127
85536,note_on,1,0,0,,5,,,77,127
85727,note_off,191,0,0,,5,,,77,127
85728,note_on,1,0,0,,4,,,76,127
85854,note_off,126,0,0,,10,,,45,127
85920,note_on,66,0,0,,5,,,65,127
85920,note_on,0,0,0,,2,,,50,127
86111,note_off,191,0,0,,2,,,50,127
86111,note_off,0,0,0,,5,,,65,127
86112,note_on,1,0,0,,4,,,64,127
86112,note_on,0,0,0,,4,,,52,127
86303,note_off,191,0,0,,4,,,52,127
86303,note_off,0,0,0,,4,,,64,127
86303,note_off,0,0,0,,4,,,76,127
86304,note_on,1,0,0,,2,,,74,127
86304,note_on,0,0,0,,12,,,71,127
86304,note_on,0,0,0,,8,,,68,127
86304,note_on,0,0,0,,4,,,40,127
86495,note_off,191,0,0,,4,,,40,127
86495,note_off,0,0,0,,8,,,68,127
86495,note_off,0,0,0,,12,,,71,127
86495,note_off,0,0,0,,2,,,74,127
86496,note_on,1,0,0,,2,,,74,127
86496,note_on,0,0,0,,10,,,69,127
86496,note_on,0,0,0,,10,,,33,127
86496,note_on,0,0,0,,10,,,45,127
86591,note_off,95,0,0,,2,,,74,127
86592,note_on,1,0,0,,0,,,72,127
86687,note_off,95,0,0,,0,,,72,127
86687,note_off,0,0,0,,10,,,69,127
86688,note_on,1,0,0,,12,,,71,127
86783,note_off,95,0,0,,12,,,71,127
86784,note_on,1,0,0,,0,,,72,127
86879,note_off,95,0,0,,0,,,72,127
86879,note_off,0,0,0,,10,,,45,127
86879,note_off,0,0,0,,10,,,33,127
86880,note_on,1,0,0,,4,,,76,127
86880,note_on,0,0,0,,2,,,38,127
86880,note_on,0,0,0,,2,,,50,127
86975,note_off,95,0,0,,4,,,76,127
86976,note_on,1,0,0,,2,,,74,127
87071,note_off,95,0,0,,2,,,74,127
87072,note_on,1,0,0,,0,,,72,127
87263,note_off,191,0,0,,0,,,72,127
87263,note_off,0,0,0,,2,,,50,127
87263,note_off,0,0,0,,2,,,38,127
87264,note_on,1,0,0,,12,,,71,127
87264,note_on,0,0,0,,4,,,40,127
87264,note_on,0,0,0,,4,,,52,127
87359,note_off,95,0,0,,12,,,71,127
87360,note_on,1,0,0,,10,,,69,127
87455,note_off,95,0,0,,10,,,69,127
87456,note_on,1,0,0,,8,,,68,127
87519,note_off,63,0,0,,8,,,68,127
87520,note_on,1,0,0,,6,,,66,127
87583,note_off,63,0,0,,6,,,66,127
87584,note_on,1,0,0,,8,,,68,127
87647,note_off,63,0,0,,8,,,68,127
87647,note_off,0,0,0,,4,,,52,127
87647,note_off,0,0,0,,4,,,40,127
87648,note_on,1,0,0,,2,,,74,127
87648,note_on,0,0,0,,10,,,69,127
87648,note_on,0,0,0,,10,,,33,127
87648,note_on,0,0,0,,10,,,45,127
87743,note_off,95,0,0,,2,,,74,127
87744,note_on,1,0,0,,0,,,72,127
87839,note_off,95,0,0,,0,,,72,127
87839,note_off,0,0,0,,10,,,69,127
87840,note_on,1,0,0,,12,,,71,127
87935,note_off,95,0,0,,12,,,71,127
87936,note_on,1,0,0,,0,,,72,127
88031,note_off,95,0,0,,0,,,72,127
88031,note_off,0,0,0,,10,,,45,127
88031,note_off,0,0,0,,10,,,33,127
88032,note_on,1,0,0,,4,,,76,127
88032,note_on,0,0,0,,2,,,38,127
88032,note_on,0,0,0,,2,,,50,127
88127,note_off,95,0,0,,4,,,76,127
88128,note_on,1,0,0,,2,,,74,127
88223,note_off,95,0,0,,2,,,74,127
88224,note_on,1,0,0,,0,,,72,127
88287,note_off,63,0,0,,0,,,72,127
88288,note_on,1,0,0,,12,,,71,127
88351,note_off,63,0,0,,12,,,71,127
88352,note_on,1,0,0,,10,,,69,127
88415,note_off,63,0,0,,10,,,69,127
88415,note_off,0,0,0,,2,,,50,127
88415,note_off,0,0,0,,2,,,38,127
88416,note_on,1,0,0,,10,,,69,127
88416,note_on,0,0,0,,4,,,40,127
88416,note_on,0,0,0,,4,,,52,127
88479,note_off,63,0,0,,10,,,69,127
88480,note_on,1,0,0,,8,,,68,127
88543,note_off,63,0,0,,8,,,68,127
88544,note_on,1,0,0,,10,,,69,127
88607,note_off,63,0,0,,10,,,69,127
88608,note_on,1,0,0,,8,,,68,127
88671,note_off,63,0,0,,8,,,68,127
88672,note_on,1,0,0,,6,,,66,127
88735,note_off,63,0,0,,6,,,66,127
88736,note_on,1,0,0,,8,,,68,127
88799,note_off,63,0,0,,8,,,68,127
88799,note_off,0,0,0,,4,,,52,127
88799,note_off,0,0,0,,4,,,40,127
88800,note_on,1,0,0,,8,,,68,127
88800,note_on,0,0,0,,10,,,45,127
89376,note_off,576,0,0,,8,,,68,127
89376,note_on,0,0,0,,10,,,69,127
90912,note_off,1536,0,0,,10,,,69,127
90912,note_off,0,0,0,,10,,,45,127
93696,end_of_track,2784,1,0,,,,,,
