tick,type,time,meta,track,program,channel,pitch,tempo,note,velocity
0,copyright,0,1,0,,,,,,
0,program_change,0,0,0,6,0,,,,
0,pitchwheel,0,0,0,,0,0,,,
0,program_change,0,0,0,6,1,,,,
0,pitchwheel,0,0,0,,1,-590,,,
0,program_change,0,0,0,6,2,,,,
0,pitchwheel,0,0,0,,2,-272,,,
0,program_change,0,0,0,6,3,,,,
0,pitchwheel,0,0,0,,3,-353,,,
0,program_change,0,0,0,6,4,,,,
0,pitchwheel,0,0,0,,4,-560,,,
0,program_change,0,0,0,6,5,,,,
0,pitchwheel,0,0,0,,5,-80,,,
0,program_change,0,0,0,6,6,,,,
0,pitchwheel,0,0,0,,6,-625,,,
0,program_change,0,0,0,6,7,,,,
0,pitchwheel,0,0,0,,7,-130,,,
0,program_change,0,0,0,6,8,,,,
0,pitchwheel,0,0,0,,8,-512,,,
0,program_change,0,0,0,6,10,,,,
0,pitchwheel,0,0,0,,10,-464,,,
0,program_change,0,0,0,6,11,,,,
0,pitchwheel,0,0,0,,11,-208,,,
0,program_change,0,0,0,6,12,,,,
0,pitchwheel,0,0,0,,12,-553,,,
0,set_tempo,0,1,0,,,,500000,,
105,note_on,105,0,0,,10,,,57,127
209,note_off,104,0,0,,10,,,57,127
210,note_on,1,0,0,,2,,,62,127
314,note_off,104,0,0,,2,,,62,127
315,note_on,1,0,0,,1,,,61,127
419,note_off,104,0,0,,1,,,61,127
420,note_on,1,0,0,,6,,,66,127
524,note_off,104,0,0,,6,,,66,127
525,note_on,1,0,0,,4,,,64,127
629,note_off,104,0,0,,4,,,64,127
630,note_on,1,0,0,,10,,,69,127
734,note_off,104,0,0,,10,,,69,127
735,note_on,1,0,0,,8,,,68,127
839,note_off,104,0,0,,8,,,68,127
840,note_on,1,0,0,,12,,,71,127
944,note_off,104,0,0,,12,,,71,127
945,note_on,1,0,0,,10,,,57,127
945,note_on,0,0,0,,10,,,69,127
1049,note_off,104,0,0,,10,,,69,127
1050,note_on,1,0,0,,2,,,74,127
1154,note_off,104,0,0,,2,,,74,127
1155,note_on,1,0,0,,1,,,73,127
1259,note_off,104,0,0,,1,,,73,127
1260,note_on,1,0,0,,6,,,78,127
1364,note_off,104,0,0,,6,,,78,127
1365,note_on,1,0,0,,4,,,76,127
1469,note_off,104,0,0,,4,,,76,127
1470,note_on,1,0,0,,10,,,81,127
1574,note_off,104,0,0,,10,,,81,127
1575,note_on,1,0,0,,8,,,80,127
1679,note_off,104,0,0,,8,,,80,127
1680,note_on,1,0,0,,12,,,83,127
1784,note_off,104,0,0,,12,,,83,127
1784,note_off,0,0,0,,10,,,57,127
1785,note_on,1,0,0,,10,,,57,127
1785,note_on,0,0,0,,10,,,81,127
1889,note_off,104,0,0,,10,,,57,127
1890,note_on,1,0,0,,4,,,64,127
1894,note_off,4,0,0,,10,,,81,127
1993,note_off,99,0,0,,4,,,64,127
1994,note_on,1,0,0,,1,,,61,127
1994,note_on,0,0,0,,4,,,76,127
2098,note_off,104,0,0,,1,,,61,127
2099,note_on,1,0,0,,4,,,64,127
2103,note_off,4,0,0,,4,,,76,127
2202,note_off,99,0,0,,4,,,64,127
2203,note_on,1,0,0,,12,,,59,127
2203,note_on,0,0,0,,4,,,76,127
2272,note_off,69,0,0,,4,,,76,127
2273,note_on,1,0,0,,2,,,74,127
2307,note_off,34,0,0,,12,,,59,127
2308,note_on,1,0,0,,2,,,62,127
2342,note_off,34,0,0,,2,,,74,127
2343,note_on,1,0,0,,4,,,76,127
2412,note_off,69,0,0,,4,,,76,127
2412,note_off,0,0,0,,2,,,62,127
2413,note_on,1,0,0,,4,,,52,127
2413,note_on,0,0,0,,2,,,74,127
2482,note_off,69,0,0,,2,,,74,127
2483,note_on,1,0,0,,4,,,76,127
2517,note_off,34,0,0,,4,,,52,127
2518,note_on,1,0,0,,2,,,62,127
2552,note_off,34,0,0,,4,,,76,127
2553,note_on,1,0,0,,2,,,74,127
2622,note_off,69,0,0,,2,,,74,127
2622,note_off,0,0,0,,2,,,62,127
2623,note_on,1,0,0,,10,,,57,127
2623,note_on,0,0,0,,1,,,73,127
2727,note_off,104,0,0,,10,,,57,127
2728,note_on,1,0,0,,4,,,64,127
2743,note_off,15,0,0,,1,,,73,127
2831,note_off,88,0,0,,4,,,64,127
2832,note_on,1,0,0,,1,,,61,127
2832,note_on,0,0,0,,4,,,76,127
2936,note_off,104,0,0,,1,,,61,127
2937,note_on,1,0,0,,4,,,64,127
3041,note_off,104,0,0,,4,,,64,127
3041,note_off,0,0,0,,4,,,76,127
3042,note_on,1,0,0,,12,,,59,127
3042,note_on,0,0,0,,4,,,76,127
3111,note_off,69,0,0,,4,,,76,127
3112,note_on,1,0,0,,2,,,74,127
3146,note_off,34,0,0,,12,,,59,127
3147,note_on,1,0,0,,2,,,62,127
3181,note_off,34,0,0,,2,,,74,127
3182,note_on,1,0,0,,4,,,76,127
3251,note_off,69,0,0,,4,,,76,127
3251,note_off,0,0,0,,2,,,62,127
3252,note_on,1,0,0,,4,,,52,127
3252,note_on,0,0,0,,2,,,74,127
3321,note_off,69,0,0,,2,,,74,127
3322,note_on,1,0,0,,4,,,76,127
3356,note_off,34,0,0,,4,,,52,127
3357,note_on,1,0,0,,2,,,62,127
3391,note_off,34,0,0,,4,,,76,127
3392,note_on,1,0,0,,2,,,74,127
3461,note_off,69,0,0,,2,,,74,127
3461,note_off,0,0,0,,2,,,62,127
3462,note_on,1,0,0,,10,,,57,127
3462,note_on,0,0,0,,1,,,73,127
3566,note_off,104,0,0,,10,,,57,127
3567,note_on,1,0,0,,4,,,64,127
3626,note_off,59,0,0,,1,,,73,127
3671,note_off,45,0,0,,4,,,64,127
3672,note_on,1,0,0,,1,,,61,127
3672,note_on,0,0,0,,4,,,76,127
3776,note_off,104,0,0,,1,,,61,127
3777,note_on,1,0,0,,4,,,64,127
3881,note_off,104,0,0,,4,,,64,127
3881,note_off,0,0,0,,4,,,76,127
3882,note_on,1,0,0,,12,,,59,127
3882,note_on,0,0,0,,4,,,76,127
3951,note_off,69,0,0,,4,,,76,127
3952,note_on,1,0,0,,2,,,74,127
3986,note_off,34,0,0,,12,,,59,127
3987,note_on,1,0,0,,2,,,62,127
4021,note_off,34,0,0,,2,,,74,127
4022,note_on,1,0,0,,4,,,76,127
4091,note_off,69,0,0,,4,,,76,127
4091,note_off,0,0,0,,2,,,62,127
4092,note_on,1,0,0,,4,,,52,127
4092,note_on,0,0,0,,2,,,74,127
4161,note_off,69,0,0,,2,,,74,127
4162,note_on,1,0,0,,4,,,76,127
4196,note_off,34,0,0,,4,,,52,127
4197,note_on,1,0,0,,2,,,62,127
4231,note_off,34,0,0,,4,,,76,127
4232,note_on,1,0,0,,2,,,74,127
4301,note_off,69,0,0,,2,,,74,127
4301,note_off,0,0,0,,2,,,62,127
4302,note_on,1,0,0,,10,,,57,127
4302,note_on,0,0,0,,1,,,73,127
4407,note_on,105,0,0,,4,,,76,127
4510,note_off,103,0,0,,1,,,73,127
4511,note_off,1,0,0,,4,,,76,127
4511,note_off,0,0,0,,10,,,57,127
4512,note_on,1,0,0,,1,,,49,127
4512,note_on,0,0,0,,10,,,69,127
4617,note_on,105,0,0,,1,,,73,127
4643,note_off,26,0,0,,10,,,69,127
4720,note_off,77,0,0,,1,,,73,127
4720,note_off,0,0,0,,1,,,49,127
4721,note_on,1,0,0,,2,,,50,127
4721,note_on,0,0,0,,12,,,71,127
4826,note_on,105,0,0,,2,,,74,127
4852,note_off,26,0,0,,12,,,71,127
4929,note_off,77,0,0,,2,,,74,127
4929,note_off,0,0,0,,2,,,50,127
4930,note_on,1,0,0,,4,,,52,127
4930,note_on,0,0,0,,8,,,68,127
5035,note_on,105,0,0,,12,,,71,127
5061,note_off,26,0,0,,8,,,68,127
5105,note_off,44,0,0,,12,,,71,127
5139,note_off,34,0,0,,4,,,52,127
5140,note_on,1,0,0,,10,,,57,127
5140,note_on,0,0,0,,1,,,73,127
5245,note_on,105,0,0,,4,,,76,127
5271,note_off,26,0,0,,1,,,73,127
5348,note_off,77,0,0,,4,,,76,127
5348,note_off,0,0,0,,10,,,57,127
5349,note_on,1,0,0,,1,,,49,127
5349,note_on,0,0,0,,10,,,69,127
5453,note_off,104,0,0,,10,,,69,127
5454,note_on,1,0,0,,1,,,73,127
5558,note_off,104,0,0,,1,,,73,127
5558,note_off,0,0,0,,1,,,49,127
5559,note_on,1,0,0,,2,,,50,127
5559,note_on,0,0,0,,12,,,71,127
5663,note_off,104,0,0,,12,,,71,127
5664,note_on,1,0,0,,2,,,74,127
5768,note_off,104,0,0,,2,,,74,127
5768,note_off,0,0,0,,2,,,50,127
5769,note_on,1,0,0,,4,,,52,127
5769,note_on,0,0,0,,8,,,68,127
5873,note_off,104,0,0,,8,,,68,127
5874,note_on,1,0,0,,12,,,71,127
5978,note_off,104,0,0,,12,,,71,127
5978,note_off,0,0,0,,4,,,52,127
5979,note_on,1,0,0,,10,,,57,127
5979,note_on,0,0,0,,1,,,73,127
6061,note_off,82,0,0,,1,,,73,127
6084,note_on,23,0,0,,4,,,76,127
6166,note_off,82,0,0,,4,,,76,127
6188,note_off,22,0,0,,10,,,57,127
6189,note_on,1,0,0,,1,,,49,127
6189,note_on,0,0,0,,10,,,69,127
6271,note_off,82,0,0,,10,,,69,127
6294,note_on,23,0,0,,1,,,73,127
6376,note_off,82,0,0,,1,,,73,127
6398,note_off,22,0,0,,1,,,49,127
6399,note_on,1,0,0,,2,,,50,127
6399,note_on,0,0,0,,12,,,71,127
6481,note_off,82,0,0,,12,,,71,127
6504,note_on,23,0,0,,2,,,74,127
6586,note_off,82,0,0,,2,,,74,127
6608,note_off,22,0,0,,2,,,50,127
6609,note_on,1,0,0,,4,,,52,127
6609,note_on,0,0,0,,8,,,68,127
6691,note_off,82,0,0,,8,,,68,127
6714,note_on,23,0,0,,12,,,71,127
6796,note_off,82,0,0,,12,,,71,127
6818,note_off,22,0,0,,4,,,52,127
6819,note_on,1,0,0,,10,,,45,127
6819,note_on,0,0,0,,12,,,71,127
6923,note_off,104,0,0,,12,,,71,127
6923,note_off,0,0,0,,10,,,45,127
6924,note_on,1,0,0,,4,,,64,127
6924,note_on,0,0,0,,10,,,69,127
7028,note_off,104,0,0,,4,,,64,127
7029,note_on,1,0,0,,3,,,63,127
7133,note_off,104,0,0,,3,,,63,127
7134,note_on,1,0,0,,6,,,66,127
7238,note_off,104,0,0,,6,,,66,127
7239,note_on,1,0,0,,4,,,64,127
7343,note_off,104,0,0,,4,,,64,127
7344,note_on,1,0,0,,1,,,61,127
7448,note_off,104,0,0,,1,,,61,127
7448,note_off,0,0,0,,10,,,69,127
7449,note_on,1,0,0,,12,,,59,127
7553,note_off,104,0,0,,12,,,59,127
7554,note_on,1,0,0,,2,,,62,127
7667,note_off,113,0,0,,2,,,62,127
7667,note_on,0,0,0,,1,,,61,127
7772,note_on,105,0,0,,10,,,81,127
7876,note_off,104,0,0,,10,,,81,127
7877,note_on,1,0,0,,8,,,80,127
7981,note_off,104,0,0,,8,,,80,127
7982,note_on,1,0,0,,12,,,83,127
8086,note_off,104,0,0,,12,,,83,127
8086,note_off,0,0,0,,1,,,61,127
8087,note_on,1,0,0,,10,,,57,127
8087,note_on,0,0,0,,10,,,81,127
8191,note_off,104,0,0,,10,,,81,127
8192,note_on,1,0,0,,4,,,76,127
8296,note_off,104,0,0,,4,,,76,127
8297,note_on,1,0,0,,3,,,75,127
8401,note_off,104,0,0,,3,,,75,127
8402,note_on,1,0,0,,6,,,78,127
8506,note_off,104,0,0,,6,,,78,127
8506,note_off,0,0,0,,10,,,57,127
8507,note_on,1,0,0,,8,,,56,127
8507,note_on,0,0,0,,4,,,76,127
8611,note_off,104,0,0,,8,,,56,127
8612,note_on,1,0,0,,12,,,59,127
8627,note_off,15,0,0,,4,,,76,127
8715,note_off,88,0,0,,12,,,59,127
8716,note_on,1,0,0,,4,,,52,127
8716,note_on,0,0,0,,12,,,71,127
8820,note_off,104,0,0,,4,,,52,127
8821,note_on,1,0,0,,8,,,56,127
8925,note_off,104,0,0,,8,,,56,127
8925,note_off,0,0,0,,12,,,71,127
8926,note_on,1,0,0,,6,,,54,127
8926,note_on,0,0,0,,12,,,71,127
8995,note_off,69,0,0,,12,,,71,127
8996,note_on,1,0,0,,10,,,69,127
9030,note_off,34,0,0,,6,,,54,127
9031,note_on,1,0,0,,10,,,57,127
9065,note_off,34,0,0,,10,,,69,127
9066,note_on,1,0,0,,12,,,71,127
9135,note_off,69,0,0,,12,,,71,127
9135,note_off,0,0,0,,10,,,57,127
9136,note_on,1,0,0,,12,,,47,127
9136,note_on,0,0,0,,10,,,69,127
9205,note_off,69,0,0,,10,,,69,127
9206,note_on,1,0,0,,12,,,71,127
9240,note_off,34,0,0,,12,,,47,127
9241,note_on,1,0,0,,10,,,57,127
9275,note_off,34,0,0,,12,,,71,127
9276,note_on,1,0,0,,10,,,69,127
9345,note_off,69,0,0,,10,,,69,127
9345,note_off,0,0,0,,10,,,57,127
9346,note_on,1,0,0,,4,,,52,127
9346,note_on,0,0,0,,8,,,68,127
9450,note_off,104,0,0,,8,,,68,127
9450,note_off,0,0,0,,4,,,52,127
9451,note_on,1,0,0,,12,,,59,127
9555,note_off,104,0,0,,12,,,59,127
9556,note_on,1,0,0,,8,,,56,127
9556,note_on,0,0,0,,12,,,71,127
9660,note_off,104,0,0,,8,,,56,127
9661,note_on,1,0,0,,12,,,59,127
9765,note_off,104,0,0,,12,,,59,127
9765,note_off,0,0,0,,12,,,71,127
9766,note_on,1,0,0,,6,,,54,127
9766,note_on,0,0,0,,12,,,71,127
9800,note_off,34,0,0,,6,,,54,127
9801,note_on,1,0,0,,6,,,54,127
9835,note_off,34,0,0,,12,,,71,127
9836,note_on,1,0,0,,10,,,69,127
9870,note_off,34,0,0,,6,,,54,127
9871,note_on,1,0,0,,10,,,57,127
9905,note_off,34,0,0,,10,,,69,127
9906,note_on,1,0,0,,12,,,71,127
9975,note_off,69,0,0,,12,,,71,127
9975,note_off,0,0,0,,10,,,57,127
9976,note_on,1,0,0,,12,,,47,127
9976,note_on,0,0,0,,10,,,69,127
10045,note_off,69,0,0,,10,,,69,127
10046,note_on,1,0,0,,12,,,71,127
10080,note_off,34,0,0,,12,,,47,127
10081,note_on,1,0,0,,10,,,57,127
10115,note_off,34,0,0,,12,,,71,127
10116,note_on,1,0,0,,10,,,69,127
10185,note_off,69,0,0,,10,,,69,127
10185,note_off,0,0,0,,10,,,57,127
10186,note_on,1,0,0,,4,,,52,127
10186,note_on,0,0,0,,8,,,68,127
10290,note_off,104,0,0,,4,,,52,127
10291,note_on,1,0,0,,12,,,59,127
10395,note_off,104,0,0,,12,,,59,127
10396,note_on,1,0,0,,8,,,56,127
10396,note_on,0,0,0,,12,,,71,127
10500,note_off,104,0,0,,8,,,56,127
10501,note_off,1,0,0,,8,,,68,127
10501,note_on,0,0,0,,12,,,59,127
10605,note_off,104,0,0,,12,,,59,127
10605,note_off,0,0,0,,12,,,71,127
10606,note_on,1,0,0,,6,,,54,127
10606,note_on,0,0,0,,12,,,71,127
10675,note_off,69,0,0,,12,,,71,127
10676,note_on,1,0,0,,10,,,69,127
10710,note_off,34,0,0,,6,,,54,127
10711,note_on,1,0,0,,10,,,57,127
10745,note_off,34,0,0,,10,,,69,127
10746,note_on,1,0,0,,12,,,71,127
10815,note_off,69,0,0,,12,,,71,127
10815,note_off,0,0,0,,10,,,57,127
10816,note_on,1,0,0,,12,,,47,127
10816,note_on,0,0,0,,10,,,69,127
10885,note_off,69,0,0,,10,,,69,127
10886,note_on,1,0,0,,12,,,71,127
10920,note_off,34,0,0,,12,,,47,127
10921,note_on,1,0,0,,10,,,57,127
10955,note_off,34,0,0,,12,,,71,127
10956,note_on,1,0,0,,10,,,69,127
11025,note_off,69,0,0,,10,,,69,127
11025,note_off,0,0,0,,10,,,57,127
11026,note_on,1,0,0,,4,,,52,127
11026,note_on,0,0,0,,8,,,68,127
11130,note_off,104,0,0,,4,,,52,127
11131,note_on,1,0,0,,4,,,64,127
11235,note_off,104,0,0,,4,,,64,127
11236,note_on,1,0,0,,3,,,63,127
11340,note_off,104,0,0,,3,,,63,127
11341,note_on,1,0,0,,6,,,66,127
11441,note_off,100,0,0,,8,,,68,127
11444,note_off,3,0,0,,6,,,66,127
11445,note_on,1,0,0,,4,,,64,127
11552,note_on,107,0,0,,8,,,68,127
11554,note_off,2,0,0,,4,,,64,127
11655,note_off,101,0,0,,8,,,68,127
11663,note_on,8,0,0,,1,,,61,127
11663,note_on,0,0,0,,4,,,76,127
11767,note_off,104,0,0,,1,,,61,127
11768,note_on,1,0,0,,4,,,64,127
11872,note_off,104,0,0,,4,,,64,127
11872,note_off,0,0,0,,4,,,76,127
11873,note_on,1,0,0,,3,,,63,127
11873,note_on,0,0,0,,1,,,85,127
11924,note_off,51,0,0,,1,,,85,127
11925,note_on,1,0,0,,12,,,83,127
11976,note_off,51,0,0,,12,,,83,127
11976,note_off,0,0,0,,3,,,63,127
11977,note_on,1,0,0,,6,,,66,127
11977,note_on,0,0,0,,1,,,85,127
12028,note_off,51,0,0,,1,,,85,127
12029,note_on,1,0,0,,12,,,83,127
12080,note_off,51,0,0,,6,,,66,127
12081,note_on,1,0,0,,12,,,59,127
12185,note_off,104,0,0,,12,,,59,127
12186,note_on,1,0,0,,3,,,63,127
12236,note_off,50,0,0,,12,,,83,127
12289,note_off,53,0,0,,3,,,63,127
12290,note_on,1,0,0,,1,,,61,127
12394,note_off,104,0,0,,1,,,61,127
12395,note_on,1,0,0,,4,,,64,127
12499,note_off,104,0,0,,4,,,64,127
12500,note_on,1,0,0,,10,,,57,127
12500,note_on,0,0,0,,4,,,76,127
12604,note_off,104,0,0,,10,,,57,127
12605,note_on,1,0,0,,1,,,61,127
12709,note_off,104,0,0,,1,,,61,127
12709,note_off,0,0,0,,4,,,76,127
12710,note_on,1,0,0,,12,,,59,127
12710,note_on,0,0,0,,1,,,85,127
12761,note_off,51,0,0,,1,,,85,127
12762,note_on,1,0,0,,12,,,83,127
12813,note_off,51,0,0,,12,,,83,127
12813,note_off,0,0,0,,12,,,59,127
12814,note_on,1,0,0,,3,,,63,127
12814,note_on,0,0,0,,1,,,85,127
12865,note_off,51,0,0,,1,,,85,127
12866,note_on,1,0,0,,12,,,83,127
12917,note_off,51,0,0,,3,,,63,127
12918,note_on,1,0,0,,8,,,56,127
13022,note_off,104,0,0,,8,,,56,127
13023,note_on,1,0,0,,12,,,59,127
13073,note_off,50,0,0,,12,,,83,127
13126,note_off,53,0,0,,12,,,59,127
13127,note_on,1,0,0,,10,,,57,127
13231,note_off,104,0,0,,10,,,57,127
13232,note_on,1,0,0,,1,,,61,127
13336,note_off,104,0,0,,1,,,61,127
13337,note_on,1,0,0,,6,,,54,127
13337,note_on,0,0,0,,4,,,76,127
13441,note_off,104,0,0,,6,,,54,127
13442,note_on,1,0,0,,10,,,57,127
13546,note_off,104,0,0,,10,,,57,127
13546,note_off,0,0,0,,4,,,76,127
13547,note_on,1,0,0,,8,,,56,127
13547,note_on,0,0,0,,1,,,85,127
13616,note_off,69,0,0,,1,,,85,127
13617,note_on,1,0,0,,12,,,83,127
13651,note_off,34,0,0,,8,,,56,127
13652,note_on,1,0,0,,12,,,59,127
13686,note_off,34,0,0,,12,,,83,127
13687,note_on,1,0,0,,1,,,85,127
13756,note_off,69,0,0,,1,,,85,127
13756,note_off,0,0,0,,12,,,59,127
13757,note_on,1,0,0,,4,,,52,127
13757,note_on,0,0,0,,12,,,83,127
13861,note_off,104,0,0,,12,,,83,127
13861,note_off,0,0,0,,4,,,52,127
13862,note_on,1,0,0,,8,,,56,127
13862,note_on,0,0,0,,12,,,83,127
13966,note_off,104,0,0,,12,,,83,127
13966,note_off,0,0,0,,8,,,56,127
13967,note_on,1,0,0,,10,,,57,127
13967,note_on,0,0,0,,10,,,81,127
14071,note_off,104,0,0,,10,,,81,127
14072,note_on,1,0,0,,8,,,80,127
14176,note_off,104,0,0,,8,,,80,127
14176,note_off,0,0,0,,10,,,57,127
14177,note_on,1,0,0,,10,,,45,127
14177,note_on,0,0,0,,6,,,78,127
14281,note_off,104,0,0,,6,,,78,127
14282,note_on,1,0,0,,4,,,76,127
14386,note_off,104,0,0,,4,,,76,127
14386,note_off,0,0,0,,10,,,45,127
14387,note_on,1,0,0,,12,,,47,127
14387,note_on,0,0,0,,3,,,75,127
14500,note_off,113,0,0,,3,,,75,127
14500,note_on,0,0,0,,12,,,71,127
14604,note_off,104,0,0,,12,,,71,127
14605,note_on,1,0,0,,10,,,69,127
14709,note_off,104,0,0,,10,,,69,127
14710,note_on,1,0,0,,1,,,73,127
14814,note_off,104,0,0,,1,,,73,127
14815,note_on,1,0,0,,12,,,71,127
14911,note_off,96,0,0,,12,,,47,127
14919,note_off,8,0,0,,12,,,71,127
14920,note_on,1,0,0,,4,,,76,127
15024,note_off,104,0,0,,4,,,76,127
15025,note_on,1,0,0,,12,,,47,127
15025,note_on,0,0,0,,3,,,75,127
15129,note_off,104,0,0,,3,,,75,127
15130,note_on,1,0,0,,10,,,81,127
15234,note_off,104,0,0,,10,,,81,127
15234,note_off,0,0,0,,12,,,47,127
15235,note_on,1,0,0,,4,,,40,127
15235,note_on,0,0,0,,4,,,52,127
15235,note_on,0,0,0,,8,,,80,127
15305,note_off,70,0,0,,8,,,80,127
15340,note_on,35,0,0,,12,,,71,127
15444,note_off,104,0,0,,12,,,71,127
15445,note_on,1,0,0,,10,,,69,127
15549,note_off,104,0,0,,10,,,69,127
15550,note_on,1,0,0,,1,,,73,127
15650,note_off,100,0,0,,4,,,52,127
15650,note_off,0,0,0,,4,,,40,127
15653,note_off,3,0,0,,1,,,73,127
15654,note_on,1,0,0,,12,,,71,127
15758,note_off,104,0,0,,12,,,71,127
15759,note_on,1,0,0,,4,,,76,127
15863,note_off,104,0,0,,4,,,76,127
15864,note_on,1,0,0,,12,,,47,127
15864,note_on,0,0,0,,3,,,75,127
15968,note_off,104,0,0,,3,,,75,127
15969,note_on,1,0,0,,10,,,81,127
16073,note_off,104,0,0,,10,,,81,127
16073,note_off,0,0,0,,12,,,47,127
16074,note_on,1,0,0,,4,,,52,127
16074,note_on,0,0,0,,4,,,40,127
16074,note_on,0,0,0,,8,,,80,127
16178,note_off,104,0,0,,8,,,80,127
16179,note_on,1,0,0,,4,,,76,127
16283,note_off,104,0,0,,4,,,76,127
16283,note_off,0,0,0,,4,,,40,127
16283,note_off,0,0,0,,4,,,52,127
16284,note_on,1,0,0,,10,,,45,127
16284,note_on,0,0,0,,6,,,78,127
16388,note_off,104,0,0,,6,,,78,127
16389,note_on,1,0,0,,1,,,73,127
16493,note_off,104,0,0,,1,,,73,127
16493,note_off,0,0,0,,10,,,45,127
16494,note_on,1,0,0,,12,,,47,127
16494,note_on,0,0,0,,4,,,76,127
16563,note_off,69,0,0,,4,,,76,127
16564,note_on,1,0,0,,3,,,75,127
16633,note_off,69,0,0,,3,,,75,127
16634,note_on,1,0,0,,4,,,76,127
16703,note_off,69,0,0,,4,,,76,127
16703,note_off,0,0,0,,12,,,47,127
16704,note_on,1,0,0,,12,,,47,127
16704,note_on,0,0,0,,3,,,75,127
16773,note_off,69,0,0,,3,,,75,127
16774,note_on,1,0,0,,1,,,73,127
16843,note_off,69,0,0,,1,,,73,127
16844,note_on,1,0,0,,3,,,75,127
16913,note_off,69,0,0,,12,,,47,127
16916,note_on,3,0,0,,4,,,76,127
16918,note_off,2,0,0,,3,,,75,127
16922,note_on,4,0,0,,4,,,40,127
17027,note_on,105,0,0,,12,,,71,127
17123,note_off,96,0,0,,4,,,76,127
17131,note_off,8,0,0,,12,,,71,127
17132,note_on,1,0,0,,10,,,69,127
17236,note_off,104,0,0,,10,,,69,127
17237,note_on,1,0,0,,1,,,73,127
17337,note_off,100,0,0,,4,,,40,127
17340,note_off,3,0,0,,1,,,73,127
17341,note_on,1,0,0,,12,,,71,127
17445,note_off,104,0,0,,12,,,71,127
17446,note_on,1,0,0,,4,,,76,127
17550,note_off,104,0,0,,4,,,76,127
17551,note_on,1,0,0,,12,,,47,127
17551,note_on,0,0,0,,3,,,75,127
17655,note_off,104,0,0,,3,,,75,127
17656,note_on,1,0,0,,10,,,81,127
17760,note_off,104,0,0,,10,,,81,127
17760,note_off,0,0,0,,12,,,47,127
17761,note_on,1,0,0,,4,,,40,127
17761,note_on,0,0,0,,4,,,52,127
17761,note_on,0,0,0,,8,,,80,127
17866,note_on,105,0,0,,12,,,71,127
17969,note_off,103,0,0,,8,,,80,127
17970,note_off,1,0,0,,12,,,71,127
17971,note_on,1,0,0,,10,,,69,127
18075,note_off,104,0,0,,10,,,69,127
18076,note_on,1,0,0,,1,,,73,127
18176,note_off,100,0,0,,4,,,52,127
18176,note_off,0,0,0,,4,,,40,127
18179,note_off,3,0,0,,1,,,73,127
18180,note_on,1,0,0,,12,,,71,127
18284,note_off,104,0,0,,12,,,71,127
18285,note_on,1,0,0,,4,,,76,127
18389,note_off,104,0,0,,4,,,76,127
18390,note_on,1,0,0,,12,,,47,127
18390,note_on,0,0,0,,3,,,75,127
18494,note_off,104,0,0,,3,,,75,127
18495,note_on,1,0,0,,10,,,81,127
18599,note_off,104,0,0,,10,,,81,127
18599,note_off,0,0,0,,12,,,47,127
18600,note_on,1,0,0,,4,,,40,127
18600,note_on,0,0,0,,4,,,52,127
18600,note_on,0,0,0,,8,,,80,127
18704,note_off,104,0,0,,8,,,80,127
18705,note_on,1,0,0,,4,,,76,127
18809,note_off,104,0,0,,4,,,76,127
18809,note_off,0,0,0,,4,,,52,127
18809,note_off,0,0,0,,4,,,40,127
18810,note_on,1,0,0,,10,,,45,127
18810,note_on,0,0,0,,6,,,78,127
18914,note_off,104,0,0,,6,,,78,127
18915,note_on,1,0,0,,1,,,73,127
19019,note_off,104,0,0,,1,,,73,127
19019,note_off,0,0,0,,10,,,45,127
19020,note_on,1,0,0,,12,,,47,127
19020,note_on,0,0,0,,4,,,76,127
19089,note_off,69,0,0,,4,,,76,127
19090,note_on,1,0,0,,3,,,75,127
19159,note_off,69,0,0,,3,,,75,127
19160,note_on,1,0,0,,4,,,76,127
19229,note_off,69,0,0,,4,,,76,127
19229,note_off,0,0,0,,12,,,47,127
19230,note_on,1,0,0,,12,,,47,127
19230,note_on,0,0,0,,3,,,75,127
19299,note_off,69,0,0,,3,,,75,127
19300,note_on,1,0,0,,1,,,73,127
19369,note_off,69,0,0,,1,,,73,127
19370,note_on,1,0,0,,3,,,75,127
19439,note_off,69,0,0,,3,,,75,127
19439,note_off,0,0,0,,12,,,47,127
19440,note_on,1,0,0,,4,,,40,127
19440,note_on,0,0,0,,4,,,76,127
19553,note_on,113,0,0,,4,,,52,127
19560,note_off,7,0,0,,4,,,40,127
19657,note_off,97,0,0,,4,,,52,127
19658,note_on,1,0,0,,3,,,51,127
19762,note_off,104,0,0,,3,,,51,127
19763,note_on,1,0,0,,6,,,54,127
19855,note_off,92,0,0,,4,,,76,127
19867,note_off,12,0,0,,6,,,54,127
19868,note_on,1,0,0,,4,,,52,127
19973,note_on,105,0,0,,4,,,64,127
20077,note_off,104,0,0,,4,,,64,127
20078,note_on,1,0,0,,3,,,63,127
20182,note_off,104,0,0,,3,,,63,127
20183,note_on,1,0,0,,6,,,66,127
20283,note_off,100,0,0,,4,,,52,127
20286,note_off,3,0,0,,6,,,66,127
20287,note_on,1,0,0,,4,,,64,127
20392,note_on,105,0,0,,4,,,76,127
20496,note_off,104,0,0,,4,,,76,127
20497,note_on,1,0,0,,3,,,75,127
20601,note_off,104,0,0,,3,,,75,127
20602,note_on,1,0,0,,6,,,78,127
20702,note_off,100,0,0,,4,,,64,127
20705,note_off,3,0,0,,6,,,78,127
20706,note_on,1,0,0,,4,,,76,127
20811,note_on,105,0,0,,8,,,80,127
20915,note_off,104,0,0,,8,,,80,127
20916,note_on,1,0,0,,12,,,83,127
21020,note_off,104,0,0,,12,,,83,127
21021,note_on,1,0,0,,4,,,88,127
21121,note_off,100,0,0,,4,,,76,127
21125,note_on,4,0,0,,10,,,45,127
21125,note_on,0,0,0,,10,,,33,127
21229,note_off,104,0,0,,4,,,88,127
21230,note_on,1,0,0,,1,,,85,127
21334,note_off,104,0,0,,1,,,85,127
21335,note_on,1,0,0,,12,,,83,127
21439,note_off,104,0,0,,12,,,83,127
21440,note_on,1,0,0,,10,,,81,127
21544,note_off,104,0,0,,10,,,81,127
21544,note_off,0,0,0,,10,,,33,127
21544,note_off,0,0,0,,10,,,45,127
21545,note_on,1,0,0,,12,,,47,127
21545,note_on,0,0,0,,12,,,35,127
21545,note_on,0,0,0,,8,,,80,127
21649,note_off,104,0,0,,8,,,80,127
21650,note_on,1,0,0,,6,,,78,127
21754,note_off,104,0,0,,6,,,78,127
21755,note_on,1,0,0,,4,,,76,127
21859,note_off,104,0,0,,4,,,76,127
21860,note_on,1,0,0,,3,,,75,127
21964,note_off,104,0,0,,3,,,75,127
21964,note_off,0,0,0,,12,,,35,127
21964,note_off,0,0,0,,12,,,47,127
21965,note_on,1,0,0,,4,,,40,127
21965,note_on,0,0,0,,4,,,76,127
22069,note_off,104,0,0,,4,,,40,127
22070,note_on,1,0,0,,4,,,52,127
22174,note_off,104,0,0,,4,,,52,127
22175,note_on,1,0,0,,3,,,51,127
22279,note_off,104,0,0,,3,,,51,127
22280,note_on,1,0,0,,6,,,54,127
22380,note_off,100,0,0,,4,,,76,127
22383,note_off,3,0,0,,6,,,54,127
22384,note_on,1,0,0,,4,,,52,127
22489,note_on,105,0,0,,4,,,64,127
22593,note_off,104,0,0,,4,,,64,127
22594,note_on,1,0,0,,3,,,63,127
22698,note_off,104,0,0,,3,,,63,127
22699,note_on,1,0,0,,6,,,66,127
22799,note_off,100,0,0,,4,,,52,127
22802,note_off,3,0,0,,6,,,66,127
22803,note_on,1,0,0,,4,,,64,127
22908,note_on,105,0,0,,4,,,76,127
23012,note_off,104,0,0,,4,,,76,127
23013,note_on,1,0,0,,3,,,75,127
23117,note_off,104,0,0,,3,,,75,127
23118,note_on,1,0,0,,6,,,78,127
23218,note_off,100,0,0,,4,,,64,127
23221,note_off,3,0,0,,6,,,78,127
23222,note_on,1,0,0,,4,,,76,127
23327,note_on,105,0,0,,8,,,80,127
23431,note_off,104,0,0,,8,,,80,127
23432,note_on,1,0,0,,12,,,83,127
23536,note_off,104,0,0,,12,,,83,127
23537,note_on,1,0,0,,4,,,88,127
23637,note_off,100,0,0,,4,,,76,127
23641,note_on,4,0,0,,10,,,45,127
23641,note_on,0,0,0,,10,,,33,127
23745,note_off,104,0,0,,4,,,88,127
23746,note_on,1,0,0,,1,,,85,127
23850,note_off,104,0,0,,1,,,85,127
23851,note_on,1,0,0,,12,,,83,127
23955,note_off,104,0,0,,12,,,83,127
23956,note_on,1,0,0,,10,,,81,127
24060,note_off,104,0,0,,10,,,81,127
24060,note_off,0,0,0,,10,,,33,127
24060,note_off,0,0,0,,10,,,45,127
24061,note_on,1,0,0,,12,,,47,127
24061,note_on,0,0,0,,12,,,35,127
24061,note_on,0,0,0,,8,,,80,127
24165,note_off,104,0,0,,8,,,80,127
24166,note_on,1,0,0,,6,,,78,127
24270,note_off,104,0,0,,6,,,78,127
24271,note_on,1,0,0,,4,,,76,127
24375,note_off,104,0,0,,4,,,76,127
24376,note_on,1,0,0,,3,,,75,127
24480,note_off,104,0,0,,3,,,75,127
24480,note_off,0,0,0,,12,,,35,127
24480,note_off,0,0,0,,12,,,47,127
24481,note_on,1,0,0,,4,,,40,127
24481,note_on,0,0,0,,4,,,76,127
24638,note_off,157,0,0,,4,,,76,127
24689,note_off,51,0,0,,4,,,40,127
24699,note_on,10,0,0,,8,,,56,127
24699,note_on,0,0,0,,12,,,71,127
24804,note_on,105,0,0,,12,,,83,127
24908,note_off,104,0,0,,12,,,83,127
24908,note_off,0,0,0,,8,,,56,127
24909,note_on,1,0,0,,6,,,54,127
24909,note_on,0,0,0,,12,,,83,127
25013,note_off,104,0,0,,12,,,83,127
25014,note_on,1,0,0,,10,,,81,127
25114,note_off,100,0,0,,12,,,71,127
25117,note_off,3,0,0,,10,,,81,127
25117,note_off,0,0,0,,6,,,54,127
25118,note_on,1,0,0,,12,,,47,127
25118,note_on,0,0,0,,12,,,71,127
25223,note_on,105,0,0,,10,,,81,127
25327,note_off,104,0,0,,10,,,81,127
25327,note_off,0,0,0,,12,,,47,127
25328,note_on,1,0,0,,4,,,52,127
25328,note_on,0,0,0,,10,,,81,127
25432,note_off,104,0,0,,10,,,81,127
25433,note_on,1,0,0,,8,,,80,127
25533,note_off,100,0,0,,12,,,71,127
25536,note_off,3,0,0,,8,,,80,127
25536,note_off,0,0,0,,4,,,52,127
25537,note_on,1,0,0,,8,,,56,127
25537,note_on,0,0,0,,12,,,71,127
25641,note_off,104,0,0,,12,,,71,127
25642,note_on,1,0,0,,12,,,83,127
25746,note_off,104,0,0,,12,,,83,127
25746,note_off,0,0,0,,8,,,56,127
25747,note_on,1,0,0,,6,,,54,127
25747,note_on,0,0,0,,12,,,83,127
25851,note_off,104,0,0,,12,,,83,127
25852,note_on,1,0,0,,10,,,81,127
25956,note_off,104,0,0,,10,,,81,127
25956,note_off,0,0,0,,6,,,54,127
25957,note_on,1,0,0,,12,,,47,127
25957,note_on,0,0,0,,12,,,71,127
26061,note_off,104,0,0,,12,,,71,127
26062,note_on,1,0,0,,10,,,81,127
26166,note_off,104,0,0,,10,,,81,127
26166,note_off,0,0,0,,12,,,47,127
26167,note_on,1,0,0,,4,,,52,127
26167,note_on,0,0,0,,10,,,81,127
26271,note_off,104,0,0,,10,,,81,127
26272,note_on,1,0,0,,8,,,80,127
26376,note_off,104,0,0,,4,,,52,127
26377,note_on,1,0,0,,8,,,56,127
26377,note_on,0,0,0,,12,,,71,127
26480,note_off,103,0,0,,8,,,80,127
26481,note_off,1,0,0,,12,,,71,127
26482,note_on,1,0,0,,12,,,83,127
26586,note_off,104,0,0,,12,,,83,127
26586,note_off,0,0,0,,8,,,56,127
26587,note_on,1,0,0,,6,,,54,127
26587,note_on,0,0,0,,12,,,83,127
26691,note_off,104,0,0,,12,,,83,127
26692,note_on,1,0,0,,10,,,81,127
26796,note_off,104,0,0,,6,,,54,127
26797,note_on,1,0,0,,12,,,47,127
26797,note_on,0,0,0,,12,,,71,127
26900,note_off,103,0,0,,10,,,81,127
26901,note_off,1,0,0,,12,,,71,127
26902,note_on,1,0,0,,10,,,81,127
27006,note_off,104,0,0,,10,,,81,127
27006,note_off,0,0,0,,12,,,47,127
27007,note_on,1,0,0,,4,,,52,127
27007,note_on,0,0,0,,8,,,80,127
27111,note_off,104,0,0,,8,,,80,127
27112,note_on,1,0,0,,4,,,76,127
27216,note_off,104,0,0,,4,,,76,127
27216,note_off,0,0,0,,4,,,52,127
27217,note_on,1,0,0,,10,,,45,127
27217,note_on,0,0,0,,6,,,78,127
27321,note_off,104,0,0,,6,,,78,127
27322,note_on,1,0,0,,1,,,73,127
27426,note_off,104,0,0,,1,,,73,127
27426,note_off,0,0,0,,10,,,45,127
27427,note_on,1,0,0,,12,,,47,127
27427,note_on,0,0,0,,4,,,76,127
27496,note_off,69,0,0,,4,,,76,127
27497,note_on,1,0,0,,3,,,75,127
27566,note_off,69,0,0,,3,,,75,127
27567,note_on,1,0,0,,4,,,76,127
27636,note_off,69,0,0,,4,,,76,127
27637,note_on,1,0,0,,12,,,35,127
27637,note_on,0,0,0,,3,,,75,127
27706,note_off,69,0,0,,3,,,75,127
27707,note_on,1,0,0,,1,,,73,127
27776,note_off,69,0,0,,1,,,73,127
27777,note_on,1,0,0,,3,,,75,127
27842,note_off,65,0,0,,12,,,47,127
27845,note_off,3,0,0,,3,,,75,127
27845,note_off,0,0,0,,12,,,35,127
27846,note_on,1,0,0,,4,,,40,127
27846,note_on,0,0,0,,4,,,76,127
28054,note_off,208,0,0,,4,,,76,127
28054,note_off,0,0,0,,4,,,40,127
28064,note_on,10,0,0,,8,,,56,127
28064,note_on,0,0,0,,12,,,71,127
28146,note_off,82,0,0,,12,,,71,127
28169,note_on,23,0,0,,12,,,83,127
28251,note_off,82,0,0,,12,,,83,127
28273,note_off,22,0,0,,8,,,56,127
28274,note_on,1,0,0,,6,,,54,127
28274,note_on,0,0,0,,12,,,83,127
28378,note_off,104,0,0,,12,,,83,127
28379,note_on,1,0,0,,10,,,81,127
28483,note_off,104,0,0,,6,,,54,127
28484,note_on,1,0,0,,12,,,47,127
28484,note_on,0,0,0,,12,,,71,127
28566,note_off,82,0,0,,12,,,71,127
28587,note_off,21,0,0,,10,,,81,127
28589,note_on,2,0,0,,10,,,81,127
28671,note_off,82,0,0,,10,,,81,127
28693,note_off,22,0,0,,12,,,47,127
28694,note_on,1,0,0,,4,,,52,127
28694,note_on,0,0,0,,10,,,81,127
28798,note_off,104,0,0,,10,,,81,127
28799,note_on,1,0,0,,8,,,80,127
28903,note_off,104,0,0,,4,,,52,127
28904,note_on,1,0,0,,8,,,56,127
28904,note_on,0,0,0,,12,,,71,127
28974,note_off,70,0,0,,12,,,71,127
29007,note_off,33,0,0,,8,,,80,127
29009,note_on,2,0,0,,12,,,83,127
29079,note_off,70,0,0,,12,,,83,127
29113,note_off,34,0,0,,8,,,56,127
29114,note_on,1,0,0,,6,,,54,127
29114,note_on,0,0,0,,12,,,83,127
29184,note_off,70,0,0,,12,,,83,127
29219,note_on,35,0,0,,10,,,81,127
29289,note_off,70,0,0,,10,,,81,127
29323,note_off,34,0,0,,6,,,54,127
29324,note_on,1,0,0,,12,,,47,127
29324,note_on,0,0,0,,12,,,71,127
29394,note_off,70,0,0,,12,,,71,127
29429,note_on,35,0,0,,10,,,81,127
29499,note_off,70,0,0,,10,,,81,127
29533,note_off,34,0,0,,12,,,47,127
29534,note_on,1,0,0,,4,,,52,127
29534,note_on,0,0,0,,10,,,81,127
29604,note_off,70,0,0,,10,,,81,127
29639,note_on,35,0,0,,8,,,80,127
29709,note_off,70,0,0,,8,,,80,127
29743,note_off,34,0,0,,4,,,52,127
29744,note_on,1,0,0,,8,,,56,127
29744,note_on,0,0,0,,12,,,71,127
29848,note_off,104,0,0,,12,,,71,127
29849,note_on,1,0,0,,12,,,83,127
29953,note_off,104,0,0,,12,,,83,127
29953,note_off,0,0,0,,8,,,56,127
29954,note_on,1,0,0,,6,,,54,127
29954,note_on,0,0,0,,12,,,83,127
30058,note_off,104,0,0,,12,,,83,127
30059,note_on,1,0,0,,10,,,81,127
30163,note_off,104,0,0,,6,,,54,127
30164,note_on,1,0,0,,12,,,47,127
30164,note_on,0,0,0,,12,,,71,127
30267,note_off,103,0,0,,10,,,81,127
30268,note_off,1,0,0,,12,,,71,127
30269,note_on,1,0,0,,10,,,81,127
30373,note_off,104,0,0,,10,,,81,127
30373,note_off,0,0,0,,12,,,47,127
30374,note_on,1,0,0,,4,,,52,127
30374,note_on,0,0,0,,8,,,80,127
30478,note_off,104,0,0,,8,,,80,127
30479,note_on,1,0,0,,4,,,76,127
30583,note_off,104,0,0,,4,,,76,127
30583,note_off,0,0,0,,4,,,52,127
30584,note_on,1,0,0,,10,,,45,127
30584,note_on,0,0,0,,6,,,78,127
30688,note_off,104,0,0,,6,,,78,127
30689,note_on,1,0,0,,1,,,73,127
30793,note_off,104,0,0,,1,,,73,127
30793,note_off,0,0,0,,10,,,45,127
30794,note_on,1,0,0,,12,,,47,127
30794,note_on,0,0,0,,4,,,76,127
30863,note_off,69,0,0,,4,,,76,127
30864,note_on,1,0,0,,3,,,75,127
30933,note_off,69,0,0,,3,,,75,127
30934,note_on,1,0,0,,4,,,76,127
31003,note_off,69,0,0,,4,,,76,127
31004,note_on,1,0,0,,12,,,35,127
31004,note_on,0,0,0,,3,,,75,127
31073,note_off,69,0,0,,3,,,75,127
31074,note_on,1,0,0,,1,,,73,127
31143,note_off,69,0,0,,1,,,73,127
31144,note_on,1,0,0,,3,,,75,127
31209,note_off,65,0,0,,12,,,47,127
31212,note_off,3,0,0,,3,,,75,127
31212,note_off,0,0,0,,12,,,35,127
31213,note_on,1,0,0,,4,,,40,127
31213,note_on,0,0,0,,4,,,76,127
31317,note_off,104,0,0,,4,,,76,127
31318,note_on,1,0,0,,12,,,71,127
31422,note_off,104,0,0,,12,,,71,127
31422,note_off,0,0,0,,4,,,40,127
31423,note_on,1,0,0,,10,,,45,127
31423,note_on,0,0,0,,1,,,73,127
31527,note_off,104,0,0,,1,,,73,127
31528,note_on,1,0,0,,10,,,69,127
31632,note_off,104,0,0,,10,,,69,127
31632,note_off,0,0,0,,10,,,45,127
31633,note_on,1,0,0,,8,,,44,127
31633,note_on,0,0,0,,12,,,71,127
31737,note_off,104,0,0,,12,,,71,127
31738,note_on,1,0,0,,8,,,68,127
31842,note_off,104,0,0,,8,,,68,127
31842,note_off,0,0,0,,8,,,44,127
31843,note_on,1,0,0,,6,,,42,127
31843,note_on,0,0,0,,10,,,69,127
31947,note_off,104,0,0,,10,,,69,127
31948,note_on,1,0,0,,6,,,66,127
32052,note_off,104,0,0,,6,,,66,127
32052,note_off,0,0,0,,6,,,42,127
32053,note_on,1,0,0,,4,,,40,127
32053,note_on,0,0,0,,8,,,68,127
32157,note_off,104,0,0,,8,,,68,127
32158,note_on,1,0,0,,4,,,64,127
32262,note_off,104,0,0,,4,,,64,127
32262,note_off,0,0,0,,4,,,40,127
32263,note_on,1,0,0,,10,,,45,127
32263,note_on,0,0,0,,6,,,66,127
32367,note_off,104,0,0,,6,,,66,127
32368,note_on,1,0,0,,1,,,61,127
32472,note_off,104,0,0,,1,,,61,127
32472,note_off,0,0,0,,10,,,45,127
32473,note_on,1,0,0,,12,,,47,127
32473,note_on,0,0,0,,4,,,64,127
32542,note_off,69,0,0,,4,,,64,127
32543,note_on,1,0,0,,3,,,63,127
32612,note_off,69,0,0,,3,,,63,127
32613,note_on,1,0,0,,4,,,64,127
32682,note_off,69,0,0,,4,,,64,127
32683,note_on,1,0,0,,12,,,35,127
32683,note_on,0,0,0,,3,,,63,127
32752,note_off,69,0,0,,3,,,63,127
32753,note_on,1,0,0,,1,,,61,127
32822,note_off,69,0,0,,1,,,61,127
32823,note_on,1,0,0,,3,,,63,127
32888,note_off,65,0,0,,12,,,47,127
32891,note_off,3,0,0,,3,,,63,127
32891,note_off,0,0,0,,12,,,35,127
32892,note_on,1,0,0,,4,,,40,127
32892,note_on,0,0,0,,4,,,64,127
33519,note_off,627,0,0,,4,,,64,127
33728,note_off,209,0,0,,4,,,40,127
33747,note_on,19,0,0,,6,,,66,127
33747,note_on,0,0,0,,4,,,40,127
33816,note_off,69,0,0,,6,,,66,127
33817,note_on,1,0,0,,4,,,64,127
33851,note_off,34,0,0,,4,,,40,127
33852,note_on,1,0,0,,4,,,52,127
33886,note_off,34,0,0,,4,,,64,127
33887,note_on,1,0,0,,6,,,66,127
33956,note_off,69,0,0,,6,,,66,127
33956,note_off,0,0,0,,4,,,52,127
33957,note_on,1,0,0,,4,,,64,127
33957,note_on,0,0,0,,3,,,51,127
34061,note_off,104,0,0,,3,,,51,127
34062,note_on,1,0,0,,6,,,54,127
34166,note_off,104,0,0,,6,,,54,127
34167,note_on,1,0,0,,4,,,52,127
34271,note_off,104,0,0,,4,,,52,127
34272,note_on,1,0,0,,7,,,55,127
34376,note_off,104,0,0,,7,,,55,127
34377,note_on,1,0,0,,6,,,54,127
34481,note_off,104,0,0,,6,,,54,127
34482,note_on,1,0,0,,10,,,57,127
34586,note_off,104,0,0,,10,,,57,127
34587,note_on,1,0,0,,7,,,55,127
34691,note_off,104,0,0,,7,,,55,127
34692,note_on,1,0,0,,12,,,59,127
34796,note_off,104,0,0,,12,,,59,127
34797,note_on,1,0,0,,10,,,57,127
34901,note_off,104,0,0,,10,,,57,127
34902,note_on,1,0,0,,0,,,60,127
35006,note_off,104,0,0,,0,,,60,127
35007,note_on,1,0,0,,12,,,59,127
35111,note_off,104,0,0,,12,,,59,127
35112,note_on,1,0,0,,10,,,57,127
35216,note_off,104,0,0,,10,,,57,127
35217,note_on,1,0,0,,7,,,55,127
35313,note_off,96,0,0,,4,,,64,127
35321,note_off,8,0,0,,7,,,55,127
35322,note_on,1,0,0,,6,,,54,127
35426,note_off,104,0,0,,6,,,54,127
35427,note_on,1,0,0,,4,,,52,127
35532,note_on,105,0,0,,7,,,67,127
35636,note_off,104,0,0,,7,,,67,127
35637,note_on,1,0,0,,6,,,66,127
35741,note_off,104,0,0,,6,,,66,127
35742,note_on,1,0,0,,10,,,69,127
35846,note_off,104,0,0,,10,,,69,127
35847,note_on,1,0,0,,7,,,67,127
35951,note_off,104,0,0,,7,,,67,127
35952,note_off,1,0,0,,4,,,52,127
35952,note_on,0,0,0,,12,,,71,127
36056,note_off,104,0,0,,12,,,71,127
36057,note_on,1,0,0,,10,,,69,127
36057,note_on,0,0,0,,6,,,54,127
36161,note_off,104,0,0,,10,,,69,127
36162,note_on,1,0,0,,0,,,72,127
36266,note_off,104,0,0,,0,,,72,127
36266,note_off,0,0,0,,6,,,54,127
36267,note_on,1,0,0,,12,,,71,127
36267,note_on,0,0,0,,7,,,55,127
36371,note_off,104,0,0,,12,,,71,127
36372,note_on,1,0,0,,2,,,74,127
36476,note_off,104,0,0,,2,,,74,127
36476,note_off,0,0,0,,7,,,55,127
36477,note_on,1,0,0,,0,,,72,127
36477,note_on,0,0,0,,0,,,48,127
36581,note_off,104,0,0,,0,,,72,127
36582,note_on,1,0,0,,4,,,76,127
36686,note_off,104,0,0,,4,,,76,127
36686,note_off,0,0,0,,0,,,48,127
36687,note_on,1,0,0,,2,,,74,127
36687,note_on,0,0,0,,2,,,50,127
36791,note_off,104,0,0,,2,,,74,127
36792,note_on,1,0,0,,0,,,72,127
36896,note_off,104,0,0,,0,,,72,127
36896,note_off,0,0,0,,2,,,50,127
36897,note_on,1,0,0,,12,,,71,127
36897,note_on,0,0,0,,2,,,38,127
37001,note_off,104,0,0,,12,,,71,127
37002,note_on,1,0,0,,10,,,69,127
37106,note_off,104,0,0,,10,,,69,127
37106,note_off,0,0,0,,2,,,38,127
37107,note_on,1,0,0,,10,,,69,127
37107,note_on,0,0,0,,7,,,43,127
37211,note_off,104,0,0,,7,,,43,127
37212,note_on,1,0,0,,7,,,55,127
37316,note_off,104,0,0,,7,,,55,127
37317,note_on,1,0,0,,6,,,54,127
37421,note_off,104,0,0,,6,,,54,127
37421,note_off,0,0,0,,10,,,69,127
37422,note_on,1,0,0,,7,,,67,127
37422,note_on,0,0,0,,10,,,57,127
37526,note_off,104,0,0,,10,,,57,127
37527,note_on,1,0,0,,7,,,55,127
37631,note_off,104,0,0,,7,,,55,127
37632,note_on,1,0,0,,12,,,59,127
37736,note_off,104,0,0,,12,,,59,127
37737,note_on,1,0,0,,11,,,58,127
37837,note_off,100,0,0,,7,,,67,127
37840,note_off,3,0,0,,11,,,58,127
37841,note_on,1,0,0,,1,,,61,127
37945,note_off,104,0,0,,1,,,61,127
37946,note_on,1,0,0,,12,,,59,127
38050,note_off,104,0,0,,12,,,59,127
38051,note_on,1,0,0,,2,,,62,127
38155,note_off,104,0,0,,2,,,62,127
38156,note_on,1,0,0,,1,,,61,127
38260,note_off,104,0,0,,1,,,61,127
38261,note_on,1,0,0,,4,,,64,127
38365,note_off,104,0,0,,4,,,64,127
38366,note_on,1,0,0,,2,,,62,127
38470,note_off,104,0,0,,2,,,62,127
38471,note_on,1,0,0,,1,,,61,127
38575,note_off,104,0,0,,1,,,61,127
38576,note_on,1,0,0,,12,,,59,127
38680,note_off,104,0,0,,12,,,59,127
38681,note_on,1,0,0,,11,,,58,127
38785,note_off,104,0,0,,11,,,58,127
38786,note_on,1,0,0,,12,,,59,127
38891,note_on,105,0,0,,2,,,74,127
38995,note_off,104,0,0,,2,,,74,127
38996,note_on,1,0,0,,1,,,73,127
39100,note_off,104,0,0,,1,,,73,127
39101,note_on,1,0,0,,4,,,76,127
39205,note_off,104,0,0,,4,,,76,127
39206,note_on,1,0,0,,2,,,74,127
39310,note_off,104,0,0,,2,,,74,127
39311,note_off,1,0,0,,12,,,59,127
39311,note_on,0,0,0,,6,,,78,127
39415,note_off,104,0,0,,6,,,78,127
39416,note_on,1,0,0,,4,,,76,127
39416,note_on,0,0,0,,1,,,61,127
39520,note_off,104,0,0,,4,,,76,127
39521,note_on,1,0,0,,7,,,79,127
39625,note_off,104,0,0,,7,,,79,127
39625,note_off,0,0,0,,1,,,61,127
39626,note_on,1,0,0,,6,,,78,127
39626,note_on,0,0,0,,2,,,62,127
39730,note_off,104,0,0,,6,,,78,127
39731,note_on,1,0,0,,10,,,81,127
39835,note_off,104,0,0,,10,,,81,127
39835,note_off,0,0,0,,2,,,62,127
39836,note_on,1,0,0,,7,,,79,127
39836,note_on,0,0,0,,7,,,55,127
39940,note_off,104,0,0,,7,,,79,127
39941,note_on,1,0,0,,12,,,83,127
40045,note_off,104,0,0,,12,,,83,127
40045,note_off,0,0,0,,7,,,55,127
40046,note_on,1,0,0,,10,,,81,127
40046,note_on,0,0,0,,10,,,57,127
40150,note_off,104,0,0,,10,,,81,127
40151,note_on,1,0,0,,7,,,79,127
40255,note_off,104,0,0,,7,,,79,127
40255,note_off,0,0,0,,10,,,57,127
40256,note_on,1,0,0,,6,,,78,127
40256,note_on,0,0,0,,10,,,45,127
40360,note_off,104,0,0,,6,,,78,127
40361,note_on,1,0,0,,4,,,76,127
40465,note_off,104,0,0,,4,,,76,127
40465,note_off,0,0,0,,10,,,45,127
40466,note_on,1,0,0,,2,,,74,127
40466,note_on,0,0,0,,2,,,38,127
40466,note_on,0,0,0,,2,,,50,127
40579,note_on,113,0,0,,7,,,67,127
40596,note_off,17,0,0,,2,,,74,127
40682,note_off,86,0,0,,7,,,67,127
40683,note_on,1,0,0,,6,,,66,127
40787,note_off,104,0,0,,6,,,66,127
40788,note_on,1,0,0,,12,,,71,127
40880,note_off,92,0,0,,2,,,50,127
40880,note_off,0,0,0,,2,,,38,127
40892,note_off,12,0,0,,12,,,71,127
40893,note_on,1,0,0,,10,,,69,127
40997,note_off,104,0,0,,10,,,69,127
40998,note_on,1,0,0,,2,,,74,127
41102,note_off,104,0,0,,2,,,74,127
41103,note_on,1,0,0,,1,,,73,127
41103,note_on,0,0,0,,10,,,45,127
41207,note_off,104,0,0,,1,,,73,127
41208,note_on,1,0,0,,7,,,79,127
41312,note_off,104,0,0,,7,,,79,127
41312,note_off,0,0,0,,10,,,45,127
41313,note_on,1,0,0,,6,,,78,127
41313,note_on,0,0,0,,2,,,50,127
41313,note_on,0,0,0,,2,,,38,127
41417,note_off,104,0,0,,6,,,78,127
41418,note_on,1,0,0,,7,,,67,127
41522,note_off,104,0,0,,7,,,67,127
41523,note_on,1,0,0,,6,,,66,127
41627,note_off,104,0,0,,6,,,66,127
41628,note_on,1,0,0,,12,,,71,127
41732,note_off,104,0,0,,12,,,71,127
41733,note_on,1,0,0,,10,,,69,127
41837,note_off,104,0,0,,10,,,69,127
41838,note_off,1,0,0,,2,,,38,127
41838,note_off,0,0,0,,2,,,50,127
41838,note_on,0,0,0,,2,,,74,127
41942,note_off,104,0,0,,2,,,74,127
41943,note_on,1,0,0,,1,,,73,127
41943,note_on,0,0,0,,10,,,45,127
42047,note_off,104,0,0,,1,,,73,127
42048,note_on,1,0,0,,7,,,79,127
42152,note_off,104,0,0,,7,,,79,127
42152,note_off,0,0,0,,10,,,45,127
42153,note_on,1,0,0,,6,,,78,127
42153,note_on,0,0,0,,2,,,50,127
42153,note_on,0,0,0,,2,,,38,127
42257,note_off,104,0,0,,6,,,78,127
42258,note_on,1,0,0,,4,,,76,127
42362,note_off,104,0,0,,4,,,76,127
42363,note_on,1,0,0,,2,,,74,127
42467,note_off,104,0,0,,2,,,74,127
42468,note_on,1,0,0,,0,,,72,127
42572,note_off,104,0,0,,0,,,72,127
42572,note_off,0,0,0,,2,,,38,127
42572,note_off,0,0,0,,2,,,50,127
42573,note_on,1,0,0,,12,,,71,127
42573,note_on,0,0,0,,3,,,51,127
42677,note_off,104,0,0,,12,,,71,127
42678,note_on,1,0,0,,10,,,69,127
42782,note_off,104,0,0,,10,,,69,127
42783,note_on,1,0,0,,7,,,67,127
42783,note_on,0,0,0,,12,,,47,127
42887,note_off,104,0,0,,7,,,67,127
42888,note_off,1,0,0,,3,,,51,127
42888,note_on,0,0,0,,6,,,66,127
42992,note_off,104,0,0,,6,,,66,127
42992,note_off,0,0,0,,12,,,47,127
42993,note_on,1,0,0,,7,,,67,127
42993,note_on,0,0,0,,4,,,52,127
42993,note_on,0,0,0,,4,,,40,127
43106,note_off,113,0,0,,7,,,67,127
43106,note_on,0,0,0,,10,,,69,127
43210,note_off,104,0,0,,10,,,69,127
43211,note_on,1,0,0,,7,,,67,127
43315,note_off,104,0,0,,7,,,67,127
43316,note_on,1,0,0,,0,,,72,127
43408,note_off,92,0,0,,4,,,40,127
43408,note_off,0,0,0,,4,,,52,127
43420,note_off,12,0,0,,0,,,72,127
43421,note_on,1,0,0,,12,,,71,127
43525,note_off,104,0,0,,12,,,71,127
43526,note_on,1,0,0,,4,,,76,127
43630,note_off,104,0,0,,4,,,76,127
43631,note_on,1,0,0,,3,,,75,127
43631,note_on,0,0,0,,12,,,47,127
43735,note_off,104,0,0,,3,,,75,127
43736,note_on,1,0,0,,10,,,81,127
43840,note_off,104,0,0,,10,,,81,127
43840,note_off,0,0,0,,12,,,47,127
43841,note_on,1,0,0,,7,,,79,127
43841,note_on,0,0,0,,4,,,52,127
43841,note_on,0,0,0,,4,,,40,127
43945,note_off,104,0,0,,7,,,79,127
43946,note_on,1,0,0,,10,,,69,127
44050,note_off,104,0,0,,10,,,69,127
44051,note_on,1,0,0,,7,,,67,127
44155,note_off,104,0,0,,7,,,67,127
44156,note_on,1,0,0,,0,,,72,127
44260,note_off,104,0,0,,0,,,72,127
44261,note_on,1,0,0,,12,,,71,127
44365,note_off,104,0,0,,12,,,71,127
44366,note_off,1,0,0,,4,,,40,127
44366,note_off,0,0,0,,4,,,52,127
44366,note_on,0,0,0,,4,,,76,127
44470,note_off,104,0,0,,4,,,76,127
44471,note_on,1,0,0,,3,,,75,127
44471,note_on,0,0,0,,12,,,47,127
44575,note_off,104,0,0,,3,,,75,127
44576,note_on,1,0,0,,10,,,81,127
44680,note_off,104,0,0,,10,,,81,127
44680,note_off,0,0,0,,12,,,47,127
44681,note_on,1,0,0,,7,,,79,127
44681,note_on,0,0,0,,4,,,52,127
44681,note_on,0,0,0,,4,,,40,127
44785,note_off,104,0,0,,7,,,79,127
44786,note_on,1,0,0,,6,,,78,127
44890,note_off,104,0,0,,6,,,78,127
44891,note_on,1,0,0,,4,,,76,127
44995,note_off,104,0,0,,4,,,76,127
44996,note_on,1,0,0,,2,,,74,127
45100,note_off,104,0,0,,2,,,74,127
45100,note_off,0,0,0,,4,,,40,127
45100,note_off,0,0,0,,4,,,52,127
45101,note_on,1,0,0,,1,,,73,127
45101,note_on,0,0,0,,5,,,53,127
45205,note_off,104,0,0,,1,,,73,127
45206,note_on,1,0,0,,12,,,71,127
45310,note_off,104,0,0,,12,,,71,127
45311,note_on,1,0,0,,10,,,69,127
45311,note_on,0,0,0,,1,,,49,127
45415,note_off,104,0,0,,10,,,69,127
45416,note_off,1,0,0,,5,,,53,127
45416,note_on,0,0,0,,8,,,68,127
45520,note_off,104,0,0,,8,,,68,127
45520,note_off,0,0,0,,1,,,49,127
45521,note_on,1,0,0,,10,,,69,127
45521,note_on,0,0,0,,6,,,54,127
45521,note_on,0,0,0,,6,,,42,127
45631,note_off,110,0,0,,10,,,69,127
45634,note_on,3,0,0,,12,,,71,127
45738,note_off,104,0,0,,12,,,71,127
45739,note_on,1,0,0,,10,,,69,127
45843,note_off,104,0,0,,10,,,69,127
45844,note_on,1,0,0,,2,,,74,127
45936,note_off,92,0,0,,6,,,42,127
45936,note_off,0,0,0,,6,,,54,127
45948,note_off,12,0,0,,2,,,74,127
45949,note_on,1,0,0,,1,,,73,127
46053,note_off,104,0,0,,1,,,73,127
46054,note_on,1,0,0,,6,,,78,127
46158,note_off,104,0,0,,6,,,78,127
46159,note_on,1,0,0,,5,,,77,127
46159,note_on,0,0,0,,1,,,49,127
46263,note_off,104,0,0,,5,,,77,127
46264,note_on,1,0,0,,12,,,83,127
46368,note_off,104,0,0,,12,,,83,127
46368,note_off,0,0,0,,1,,,49,127
46369,note_on,1,0,0,,10,,,81,127
46369,note_on,0,0,0,,6,,,54,127
46369,note_on,0,0,0,,6,,,42,127
46473,note_off,104,0,0,,10,,,81,127
46474,note_on,1,0,0,,12,,,71,127
46578,note_off,104,0,0,,12,,,71,127
46579,note_on,1,0,0,,10,,,69,127
46683,note_off,104,0,0,,10,,,69,127
46684,note_on,1,0,0,,2,,,74,127
46788,note_off,104,0,0,,2,,,74,127
46789,note_on,1,0,0,,1,,,73,127
46893,note_off,104,0,0,,1,,,73,127
46894,note_off,1,0,0,,6,,,42,127
46894,note_off,0,0,0,,6,,,54,127
46894,note_on,0,0,0,,6,,,78,127
46998,note_off,104,0,0,,6,,,78,127
46999,note_on,1,0,0,,5,,,77,127
46999,note_on,0,0,0,,1,,,49,127
47103,note_off,104,0,0,,5,,,77,127
47104,note_on,1,0,0,,12,,,83,127
47208,note_off,104,0,0,,12,,,83,127
47208,note_off,0,0,0,,1,,,49,127
47209,note_on,1,0,0,,10,,,81,127
47209,note_on,0,0,0,,6,,,54,127
47313,note_off,104,0,0,,10,,,81,127
47314,note_on,1,0,0,,8,,,80,127
47418,note_off,104,0,0,,8,,,80,127
47418,note_off,0,0,0,,6,,,54,127
47419,note_on,1,0,0,,6,,,78,127
47419,note_on,0,0,0,,8,,,56,127
47523,note_off,104,0,0,,6,,,78,127
47524,note_on,1,0,0,,4,,,76,127
47628,note_off,104,0,0,,4,,,76,127
47628,note_off,0,0,0,,8,,,56,127
47629,note_on,1,0,0,,2,,,74,127
47629,note_on,0,0,0,,12,,,59,127
47733,note_off,104,0,0,,2,,,74,127
47734,note_on,1,0,0,,1,,,73,127
47838,note_off,104,0,0,,1,,,73,127
47838,note_off,0,0,0,,12,,,59,127
47839,note_on,1,0,0,,2,,,74,127
47839,note_on,0,0,0,,8,,,56,127
47943,note_off,104,0,0,,2,,,74,127
47944,note_on,1,0,0,,4,,,76,127
48048,note_off,104,0,0,,4,,,76,127
48048,note_off,0,0,0,,8,,,56,127
48049,note_on,1,0,0,,1,,,73,127
48049,note_on,0,0,0,,10,,,57,127
48153,note_off,104,0,0,,10,,,57,127
48163,note_on,10,0,0,,1,,,61,127
48267,note_off,104,0,0,,1,,,61,127
48268,note_on,1,0,0,,1,,,85,127
48268,note_on,0,0,0,,6,,,54,127
48372,note_off,104,0,0,,6,,,54,127
48373,note_on,1,0,0,,10,,,57,127
48465,note_off,92,0,0,,1,,,73,127
48477,note_off,12,0,0,,10,,,57,127
48477,note_off,0,0,0,,1,,,85,127
48478,note_on,1,0,0,,12,,,71,127
48478,note_on,0,0,0,,8,,,56,127
48582,note_off,104,0,0,,8,,,56,127
48583,note_on,1,0,0,,12,,,59,127
48687,note_off,104,0,0,,12,,,59,127
48688,note_on,1,0,0,,12,,,83,127
48688,note_on,0,0,0,,5,,,53,127
48792,note_off,104,0,0,,5,,,53,127
48793,note_on,1,0,0,,8,,,56,127
48893,note_off,100,0,0,,12,,,71,127
48896,note_off,3,0,0,,8,,,56,127
48896,note_off,0,0,0,,12,,,83,127
48897,note_on,1,0,0,,10,,,69,127
48897,note_on,0,0,0,,6,,,54,127
49001,note_off,104,0,0,,6,,,54,127
49002,note_on,1,0,0,,10,,,57,127
49106,note_off,104,0,0,,10,,,57,127
49107,note_on,1,0,0,,10,,,81,127
49107,note_on,0,0,0,,2,,,50,127
49211,note_off,104,0,0,,2,,,50,127
49212,note_on,1,0,0,,6,,,54,127
49312,note_off,100,0,0,,10,,,69,127
49315,note_off,3,0,0,,6,,,54,127
49315,note_off,0,0,0,,10,,,81,127
49316,note_on,1,0,0,,8,,,68,127
49316,note_on,0,0,0,,4,,,52,127
49420,note_off,104,0,0,,4,,,52,127
49421,note_on,1,0,0,,8,,,56,127
49525,note_off,104,0,0,,8,,,56,127
49526,note_on,1,0,0,,8,,,80,127
49526,note_on,0,0,0,,1,,,49,127
49630,note_off,104,0,0,,1,,,49,127
49631,note_on,1,0,0,,4,,,52,127
49731,note_off,100,0,0,,8,,,68,127
49734,note_off,3,0,0,,4,,,52,127
49734,note_off,0,0,0,,8,,,80,127
49735,note_on,1,0,0,,6,,,66,127
49735,note_on,0,0,0,,2,,,50,127
49839,note_off,104,0,0,,2,,,50,127
49840,note_on,1,0,0,,6,,,54,127
49944,note_off,104,0,0,,6,,,54,127
49945,note_on,1,0,0,,6,,,78,127
49945,note_on,0,0,0,,12,,,47,127
50049,note_off,104,0,0,,12,,,47,127
50050,note_on,1,0,0,,2,,,50,127
50150,note_off,100,0,0,,6,,,66,127
50153,note_off,3,0,0,,2,,,50,127
50153,note_off,0,0,0,,6,,,78,127
50154,note_on,1,0,0,,4,,,64,127
50154,note_on,0,0,0,,1,,,49,127
50258,note_off,104,0,0,,1,,,49,127
50259,note_on,1,0,0,,4,,,52,127
50363,note_off,104,0,0,,4,,,52,127
50364,note_on,1,0,0,,4,,,76,127
50364,note_on,0,0,0,,10,,,45,127
50468,note_off,104,0,0,,10,,,45,127
50469,note_on,1,0,0,,1,,,49,127
50569,note_off,100,0,0,,4,,,64,127
50572,note_off,3,0,0,,1,,,49,127
50572,note_off,0,0,0,,4,,,76,127
50573,note_on,1,0,0,,2,,,62,127
50573,note_on,0,0,0,,12,,,47,127
50677,note_off,104,0,0,,12,,,47,127
50678,note_on,1,0,0,,2,,,50,127
50782,note_off,104,0,0,,2,,,50,127
50783,note_on,1,0,0,,2,,,74,127
50783,note_on,0,0,0,,8,,,44,127
50887,note_off,104,0,0,,8,,,44,127
50888,note_on,1,0,0,,12,,,47,127
50988,note_off,100,0,0,,2,,,62,127
50991,note_off,3,0,0,,12,,,47,127
50991,note_off,0,0,0,,2,,,74,127
50992,note_on,1,0,0,,1,,,73,127
50992,note_on,0,0,0,,10,,,45,127
51096,note_off,104,0,0,,1,,,73,127
51097,note_on,1,0,0,,12,,,71,127
51201,note_off,104,0,0,,12,,,71,127
51201,note_off,0,0,0,,10,,,45,127
51202,note_on,1,0,0,,1,,,73,127
51202,note_on,0,0,0,,6,,,42,127
51306,note_off,104,0,0,,1,,,73,127
51307,note_on,1,0,0,,3,,,75,127
51411,note_off,104,0,0,,3,,,75,127
51411,note_off,0,0,0,,6,,,42,127
51412,note_on,1,0,0,,4,,,76,127
51412,note_on,0,0,0,,4,,,40,127
51517,note_on,105,0,0,,10,,,69,127
51621,note_off,104,0,0,,10,,,69,127
51622,note_on,1,0,0,,8,,,68,127
51726,note_off,104,0,0,,8,,,68,127
51727,note_on,1,0,0,,12,,,71,127
51827,note_off,100,0,0,,4,,,76,127
51830,note_off,3,0,0,,12,,,71,127
51830,note_off,0,0,0,,4,,,40,127
51831,note_on,1,0,0,,10,,,69,127
51831,note_on,0,0,0,,6,,,42,127
51936,note_on,105,0,0,,12,,,71,127
52040,note_off,104,0,0,,12,,,71,127
52041,note_on,1,0,0,,1,,,73,127
52145,note_off,104,0,0,,1,,,73,127
52146,note_on,1,0,0,,3,,,75,127
52246,note_off,100,0,0,,10,,,69,127
52249,note_off,3,0,0,,3,,,75,127
52249,note_off,0,0,0,,6,,,42,127
52250,note_on,1,0,0,,4,,,76,127
52250,note_on,0,0,0,,4,,,40,127
52354,note_off,104,0,0,,4,,,76,127
52355,note_on,1,0,0,,10,,,69,127
52440,note_off,85,0,0,,10,,,69,127
52460,note_on,20,0,0,,8,,,68,127
52545,note_off,85,0,0,,8,,,68,127
52565,note_on,20,0,0,,12,,,71,127
52650,note_off,85,0,0,,12,,,71,127
52669,note_off,19,0,0,,4,,,40,127
52670,note_on,1,0,0,,10,,,69,127
52670,note_on,0,0,0,,6,,,42,127
52755,note_off,85,0,0,,10,,,69,127
52775,note_on,20,0,0,,12,,,71,127
52860,note_off,85,0,0,,12,,,71,127
52880,note_on,20,0,0,,1,,,73,127
52965,note_off,85,0,0,,1,,,73,127
52985,note_on,20,0,0,,3,,,75,127
53070,note_off,85,0,0,,3,,,75,127
53089,note_off,19,0,0,,6,,,42,127
53090,note_on,1,0,0,,4,,,76,127
53090,note_on,0,0,0,,4,,,40,127
53175,note_off,85,0,0,,4,,,76,127
53212,note_on,37,0,0,,4,,,64,127
53316,note_off,104,0,0,,4,,,64,127
53317,note_on,1,0,0,,3,,,63,127
53421,note_off,104,0,0,,3,,,63,127
53422,note_on,1,0,0,,6,,,66,127
53526,note_off,104,0,0,,6,,,66,127
53527,note_on,1,0,0,,4,,,64,127
53614,note_off,87,0,0,,4,,,40,127
53630,note_off,16,0,0,,4,,,64,127
53631,note_on,1,0,0,,10,,,69,127
53735,note_off,104,0,0,,10,,,69,127
53736,note_on,1,0,0,,8,,,68,127
53736,note_on,0,0,0,,4,,,52,127
53736,note_on,0,0,0,,4,,,40,127
53840,note_off,104,0,0,,8,,,68,127
53841,note_on,1,0,0,,2,,,74,127
53945,note_off,104,0,0,,2,,,74,127
53945,note_off,0,0,0,,4,,,40,127
53945,note_off,0,0,0,,4,,,52,127
53946,note_on,1,0,0,,1,,,73,127
53946,note_on,0,0,0,,10,,,45,127
54050,note_off,104,0,0,,1,,,73,127
54051,note_on,1,0,0,,2,,,62,127
54155,note_off,104,0,0,,2,,,62,127
54156,note_on,1,0,0,,1,,,61,127
54260,note_off,104,0,0,,1,,,61,127
54261,note_on,1,0,0,,6,,,66,127
54365,note_off,104,0,0,,6,,,66,127
54366,note_on,1,0,0,,4,,,64,127
54470,note_off,104,0,0,,4,,,64,127
54471,note_off,1,0,0,,10,,,45,127
54471,note_on,0,0,0,,10,,,69,127
54575,note_off,104,0,0,,10,,,69,127
54576,note_on,1,0,0,,8,,,68,127
54576,note_on,0,0,0,,4,,,52,127
54576,note_on,0,0,0,,4,,,40,127
54680,note_off,104,0,0,,8,,,68,127
54681,note_on,1,0,0,,2,,,74,127
54785,note_off,104,0,0,,2,,,74,127
54785,note_off,0,0,0,,4,,,40,127
54785,note_off,0,0,0,,4,,,52,127
54786,note_on,1,0,0,,1,,,73,127
54786,note_on,0,0,0,,10,,,45,127
54890,note_off,104,0,0,,1,,,73,127
54891,note_on,1,0,0,,10,,,69,127
54995,note_off,104,0,0,,10,,,69,127
54995,note_off,0,0,0,,10,,,45,127
54996,note_on,1,0,0,,12,,,71,127
54996,note_on,0,0,0,,2,,,50,127
55100,note_off,104,0,0,,12,,,71,127
55101,note_on,1,0,0,,6,,,66,127
55205,note_off,104,0,0,,6,,,66,127
55205,note_off,0,0,0,,2,,,50,127
55206,note_on,1,0,0,,10,,,69,127
55206,note_on,0,0,0,,4,,,52,127
55275,note_off,69,0,0,,10,,,69,127
55276,note_on,1,0,0,,8,,,68,127
55345,note_off,69,0,0,,8,,,68,127
55346,note_on,1,0,0,,10,,,69,127
55415,note_off,69,0,0,,10,,,69,127
55415,note_off,0,0,0,,4,,,52,127
55416,note_on,1,0,0,,8,,,68,127
55416,note_on,0,0,0,,4,,,40,127
55485,note_off,69,0,0,,8,,,68,127
55486,note_on,1,0,0,,6,,,66,127
55555,note_off,69,0,0,,6,,,66,127
55556,note_on,1,0,0,,8,,,68,127
55625,note_off,69,0,0,,8,,,68,127
55625,note_off,0,0,0,,4,,,40,127
55626,note_on,1,0,0,,10,,,69,127
55626,note_on,0,0,0,,10,,,45,127
55737,note_off,111,0,0,,10,,,69,127
55739,note_on,2,0,0,,2,,,74,127
55843,note_off,104,0,0,,2,,,74,127
55844,note_on,1,0,0,,1,,,73,127
55948,note_off,104,0,0,,1,,,73,127
55949,note_on,1,0,0,,6,,,78,127
56053,note_off,104,0,0,,6,,,78,127
56054,note_on,1,0,0,,4,,,76,127
56150,note_off,96,0,0,,10,,,45,127
56158,note_off,8,0,0,,4,,,76,127
56159,note_on,1,0,0,,10,,,81,127
56263,note_off,104,0,0,,10,,,81,127
56264,note_on,1,0,0,,8,,,80,127
56264,note_on,0,0,0,,4,,,40,127
56264,note_on,0,0,0,,4,,,52,127
56368,note_off,104,0,0,,8,,,80,127
56369,note_on,1,0,0,,2,,,86,127
56473,note_off,104,0,0,,2,,,86,127
56473,note_off,0,0,0,,4,,,52,127
56473,note_off,0,0,0,,4,,,40,127
56474,note_on,1,0,0,,1,,,85,127
56474,note_on,0,0,0,,10,,,45,127
56578,note_off,104,0,0,,1,,,85,127
56579,note_on,1,0,0,,2,,,74,127
56683,note_off,104,0,0,,2,,,74,127
56684,note_on,1,0,0,,1,,,73,127
56788,note_off,104,0,0,,1,,,73,127
56789,note_on,1,0,0,,6,,,78,127
56893,note_off,104,0,0,,6,,,78,127
56894,note_on,1,0,0,,4,,,76,127
56998,note_off,104,0,0,,4,,,76,127
56999,note_off,1,0,0,,10,,,45,127
56999,note_on,0,0,0,,10,,,81,127
57103,note_off,104,0,0,,10,,,81,127
57104,note_on,1,0,0,,8,,,80,127
57104,note_on,0,0,0,,4,,,52,127
57104,note_on,0,0,0,,4,,,40,127
57208,note_off,104,0,0,,8,,,80,127
57209,note_on,1,0,0,,2,,,86,127
57313,note_off,104,0,0,,2,,,86,127
57313,note_off,0,0,0,,4,,,40,127
57313,note_off,0,0,0,,4,,,52,127
57314,note_on,1,0,0,,1,,,85,127
57314,note_on,0,0,0,,10,,,45,127
57418,note_off,104,0,0,,1,,,85,127
57419,note_on,1,0,0,,10,,,81,127
57523,note_off,104,0,0,,10,,,81,127
57523,note_off,0,0,0,,10,,,45,127
57524,note_on,1,0,0,,12,,,83,127
57524,note_on,0,0,0,,2,,,50,127
57628,note_off,104,0,0,,12,,,83,127
57629,note_on,1,0,0,,6,,,78,127
57733,note_off,104,0,0,,6,,,78,127
57733,note_off,0,0,0,,2,,,50,127
57734,note_on,1,0,0,,10,,,81,127
57734,note_on,0,0,0,,4,,,52,127
57803,note_off,69,0,0,,10,,,81,127
57804,note_on,1,0,0,,8,,,80,127
57873,note_off,69,0,0,,8,,,80,127
57874,note_on,1,0,0,,10,,,81,127
57943,note_off,69,0,0,,10,,,81,127
57943,note_off,0,0,0,,4,,,52,127
57944,note_on,1,0,0,,8,,,80,127
57944,note_on,0,0,0,,4,,,40,127
58013,note_off,69,0,0,,8,,,80,127
58014,note_on,1,0,0,,6,,,78,127
58083,note_off,69,0,0,,6,,,78,127
58084,note_on,1,0,0,,8,,,80,127
58153,note_off,69,0,0,,8,,,80,127
58153,note_off,0,0,0,,4,,,40,127
58154,note_on,1,0,0,,10,,,81,127
58154,note_on,0,0,0,,10,,,45,127
58267,note_on,113,0,0,,10,,,57,127
58284,note_off,17,0,0,,10,,,45,127
58370,note_off,86,0,0,,10,,,57,127
58371,note_on,1,0,0,,8,,,56,127
58475,note_off,104,0,0,,8,,,56,127
58476,note_on,1,0,0,,12,,,59,127
58580,note_off,104,0,0,,12,,,59,127
58581,note_on,1,0,0,,10,,,57,127
58686,note_on,105,0,0,,10,,,69,127
58790,note_off,104,0,0,,10,,,69,127
58791,note_on,1,0,0,,8,,,68,127
58895,note_off,104,0,0,,8,,,68,127
58896,note_on,1,0,0,,12,,,71,127
58991,note_off,95,0,0,,10,,,81,127
58996,note_off,5,0,0,,10,,,57,127
58999,note_off,3,0,0,,12,,,71,127
59000,note_on,1,0,0,,10,,,69,127
59105,note_on,105,0,0,,10,,,81,127
59209,note_off,104,0,0,,10,,,81,127
59210,note_on,1,0,0,,8,,,80,127
59314,note_off,104,0,0,,8,,,80,127
59315,note_on,1,0,0,,12,,,83,127
59419,note_off,104,0,0,,12,,,83,127
59420,note_on,1,0,0,,10,,,81,127
59524,note_off,104,0,0,,10,,,81,127
59525,note_on,1,0,0,,1,,,85,127
59629,note_off,104,0,0,,1,,,85,127
59630,note_on,1,0,0,,4,,,88,127
59734,note_off,104,0,0,,4,,,88,127
59735,note_on,1,0,0,,10,,,81,127
59839,note_off,104,0,0,,10,,,69,127
59840,note_on,1,0,0,,2,,,50,127
59840,note_on,0,0,0,,2,,,38,127
59892,note_off,52,0,0,,10,,,81,127
59944,note_on,52,0,0,,6,,,90,127
60048,note_off,104,0,0,,6,,,90,127
60049,note_on,1,0,0,,4,,,88,127
60153,note_off,104,0,0,,4,,,88,127
60154,note_on,1,0,0,,2,,,86,127
60258,note_off,104,0,0,,2,,,86,127
60258,note_off,0,0,0,,2,,,38,127
60258,note_off,0,0,0,,2,,,50,127
60259,note_on,1,0,0,,1,,,85,127
60259,note_on,0,0,0,,4,,,52,127
60259,note_on,0,0,0,,4,,,40,127
60363,note_off,104,0,0,,1,,,85,127
60364,note_on,1,0,0,,12,,,83,127
60468,note_off,104,0,0,,12,,,83,127
60469,note_on,1,0,0,,10,,,81,127
60573,note_off,104,0,0,,10,,,81,127
60574,note_on,1,0,0,,8,,,80,127
60674,note_off,100,0,0,,4,,,40,127
60674,note_off,0,0,0,,4,,,52,127
60677,note_off,3,0,0,,8,,,80,127
60678,note_on,1,0,0,,10,,,81,127
60809,note_on,131,0,0,,10,,,45,127
60913,note_off,104,0,0,,10,,,45,127
60914,note_on,1,0,0,,8,,,44,127
61018,note_off,104,0,0,,8,,,44,127
61019,note_on,1,0,0,,12,,,47,127
61093,note_off,74,0,0,,10,,,81,127
61122,note_off,29,0,0,,12,,,47,127
61123,note_on,1,0,0,,10,,,45,127
61210,note_on,87,0,0,,10,,,57,127
61214,note_off,4,0,0,,10,,,45,127
61313,note_off,99,0,0,,10,,,57,127
61314,note_on,1,0,0,,8,,,56,127
61418,note_off,104,0,0,,8,,,56,127
61419,note_on,1,0,0,,12,,,59,127
61523,note_off,104,0,0,,12,,,59,127
61524,note_on,1,0,0,,10,,,57,127
61629,note_on,105,0,0,,10,,,69,127
61733,note_off,104,0,0,,10,,,69,127
61734,note_on,1,0,0,,8,,,68,127
61838,note_off,104,0,0,,8,,,68,127
61839,note_on,1,0,0,,12,,,71,127
61939,note_off,100,0,0,,10,,,57,127
61942,note_off,3,0,0,,12,,,71,127
61943,note_on,1,0,0,,10,,,69,127
62048,note_on,105,0,0,,1,,,73,127
62152,note_off,104,0,0,,1,,,73,127
62153,note_on,1,0,0,,4,,,76,127
62257,note_off,104,0,0,,4,,,76,127
62258,note_on,1,0,0,,10,,,81,127
62358,note_off,100,0,0,,10,,,69,127
62362,note_on,4,0,0,,2,,,50,127
62362,note_on,0,0,0,,2,,,38,127
62466,note_off,104,0,0,,10,,,81,127
62467,note_on,1,0,0,,6,,,78,127
62571,note_off,104,0,0,,6,,,78,127
62572,note_on,1,0,0,,4,,,76,127
62676,note_off,104,0,0,,4,,,76,127
62677,note_on,1,0,0,,2,,,74,127
62781,note_off,104,0,0,,2,,,74,127
62781,note_off,0,0,0,,2,,,38,127
62781,note_off,0,0,0,,2,,,50,127
62782,note_on,1,0,0,,1,,,73,127
62782,note_on,0,0,0,,4,,,52,127
62782,note_on,0,0,0,,4,,,40,127
62886,note_off,104,0,0,,1,,,73,127
62887,note_on,1,0,0,,12,,,71,127
62991,note_off,104,0,0,,12,,,71,127
62992,note_on,1,0,0,,10,,,69,127
63096,note_off,104,0,0,,10,,,69,127
63097,note_on,1,0,0,,8,,,68,127
63201,note_off,104,0,0,,8,,,68,127
63201,note_off,0,0,0,,4,,,40,127
63201,note_off,0,0,0,,4,,,52,127
63202,note_on,1,0,0,,10,,,69,127
63202,note_on,0,0,0,,10,,,45,127
63410,note_off,208,0,0,,10,,,45,127
63429,note_on,19,0,0,,4,,,64,127
63429,note_on,0,0,0,,1,,,61,127
63432,note_off,3,0,0,,10,,,69,127
63533,note_on,101,0,0,,4,,,76,127
63637,note_off,104,0,0,,4,,,76,127
63637,note_off,0,0,0,,1,,,61,127
63638,note_on,1,0,0,,4,,,76,127
63638,note_on,0,0,0,,12,,,59,127
63742,note_off,104,0,0,,4,,,76,127
63743,note_on,1,0,0,,2,,,74,127
63843,note_off,100,0,0,,4,,,64,127
63846,note_off,3,0,0,,2,,,74,127
63846,note_off,0,0,0,,12,,,59,127
63847,note_on,1,0,0,,4,,,64,127
63847,note_on,0,0,0,,4,,,52,127
63952,note_on,105,0,0,,2,,,74,127
64056,note_off,104,0,0,,2,,,74,127
64056,note_off,0,0,0,,4,,,52,127
64057,note_on,1,0,0,,2,,,74,127
64057,note_on,0,0,0,,10,,,57,127
64161,note_off,104,0,0,,2,,,74,127
64162,note_on,1,0,0,,1,,,73,127
64262,note_off,100,0,0,,4,,,64,127
64265,note_off,3,0,0,,1,,,73,127
64265,note_off,0,0,0,,10,,,57,127
64266,note_on,1,0,0,,4,,,64,127
64266,note_on,0,0,0,,1,,,61,127
64370,note_off,104,0,0,,4,,,64,127
64371,note_on,1,0,0,,4,,,76,127
64475,note_off,104,0,0,,4,,,76,127
64475,note_off,0,0,0,,1,,,61,127
64476,note_on,1,0,0,,4,,,76,127
64476,note_on,0,0,0,,12,,,59,127
64580,note_off,104,0,0,,4,,,76,127
64581,note_on,1,0,0,,2,,,74,127
64685,note_off,104,0,0,,2,,,74,127
64685,note_off,0,0,0,,12,,,59,127
64686,note_on,1,0,0,,4,,,64,127
64686,note_on,0,0,0,,4,,,52,127
64790,note_off,104,0,0,,4,,,64,127
64791,note_on,1,0,0,,2,,,74,127
64895,note_off,104,0,0,,2,,,74,127
64895,note_off,0,0,0,,4,,,52,127
64896,note_on,1,0,0,,2,,,74,127
64896,note_on,0,0,0,,10,,,57,127
65000,note_off,104,0,0,,2,,,74,127
65001,note_on,1,0,0,,1,,,73,127
65105,note_off,104,0,0,,10,,,57,127
65106,note_on,1,0,0,,4,,,64,127
65106,note_on,0,0,0,,1,,,61,127
65210,note_off,104,0,0,,4,,,64,127
65211,note_on,1,0,0,,4,,,76,127
65315,note_off,104,0,0,,4,,,76,127
65315,note_off,0,0,0,,1,,,61,127
65316,note_on,1,0,0,,4,,,76,127
65316,note_on,0,0,0,,12,,,59,127
65416,note_off,100,0,0,,1,,,73,127
65419,note_off,3,0,0,,4,,,76,127
65420,note_on,1,0,0,,2,,,74,127
65524,note_off,104,0,0,,12,,,59,127
65525,note_on,1,0,0,,4,,,64,127
65525,note_on,0,0,0,,4,,,52,127
65628,note_off,103,0,0,,2,,,74,127
65629,note_off,1,0,0,,4,,,64,127
65630,note_on,1,0,0,,2,,,74,127
65734,note_off,104,0,0,,2,,,74,127
65734,note_off,0,0,0,,4,,,52,127
65735,note_on,1,0,0,,1,,,73,127
65735,note_on,0,0,0,,10,,,57,127
65839,note_off,104,0,0,,1,,,73,127
65840,note_on,1,0,0,,10,,,69,127
65944,note_off,104,0,0,,10,,,69,127
65944,note_off,0,0,0,,10,,,57,127
65945,note_on,1,0,0,,12,,,71,127
65945,note_on,0,0,0,,2,,,50,127
66049,note_off,104,0,0,,12,,,71,127
66050,note_on,1,0,0,,6,,,66,127
66154,note_off,104,0,0,,6,,,66,127
66154,note_off,0,0,0,,2,,,50,127
66155,note_on,1,0,0,,10,,,69,127
66155,note_on,0,0,0,,4,,,52,127
66224,note_off,69,0,0,,10,,,69,127
66225,note_on,1,0,0,,8,,,68,127
66294,note_off,69,0,0,,8,,,68,127
66295,note_on,1,0,0,,10,,,69,127
66364,note_off,69,0,0,,10,,,69,127
66364,note_off,0,0,0,,4,,,52,127
66365,note_on,1,0,0,,8,,,68,127
66365,note_on,0,0,0,,4,,,40,127
66434,note_off,69,0,0,,8,,,68,127
66435,note_on,1,0,0,,6,,,66,127
66504,note_off,69,0,0,,6,,,66,127
66505,note_on,1,0,0,,8,,,68,127
66574,note_off,69,0,0,,8,,,68,127
66574,note_off,0,0,0,,4,,,40,127
66575,note_on,1,0,0,,10,,,69,127
66575,note_on,0,0,0,,10,,,45,127
66783,note_off,208,0,0,,10,,,45,127
66791,note_off,8,0,0,,10,,,69,127
66793,note_on,2,0,0,,4,,,76,127
66793,note_on,0,0,0,,1,,,73,127
66897,note_off,104,0,0,,4,,,76,127
66898,note_on,1,0,0,,4,,,88,127
67002,note_off,104,0,0,,4,,,88,127
67002,note_off,0,0,0,,1,,,73,127
67003,note_on,1,0,0,,4,,,88,127
67003,note_on,0,0,0,,12,,,71,127
67107,note_off,104,0,0,,4,,,88,127
67108,note_on,1,0,0,,2,,,86,127
67212,note_off,104,0,0,,2,,,86,127
67212,note_off,0,0,0,,12,,,71,127
67213,note_on,1,0,0,,4,,,76,127
67213,note_on,0,0,0,,4,,,64,127
67317,note_off,104,0,0,,4,,,76,127
67318,note_on,1,0,0,,2,,,86,127
67422,note_off,104,0,0,,2,,,86,127
67422,note_off,0,0,0,,4,,,64,127
67423,note_on,1,0,0,,2,,,86,127
67423,note_on,0,0,0,,10,,,69,127
67527,note_off,104,0,0,,2,,,86,127
67528,note_on,1,0,0,,1,,,85,127
67632,note_off,104,0,0,,1,,,85,127
67632,note_off,0,0,0,,10,,,69,127
67633,note_on,1,0,0,,4,,,76,127
67633,note_on,0,0,0,,1,,,73,127
67737,note_off,104,0,0,,4,,,76,127
67738,note_on,1,0,0,,4,,,88,127
67842,note_off,104,0,0,,4,,,88,127
67842,note_off,0,0,0,,1,,,73,127
67843,note_on,1,0,0,,4,,,88,127
67843,note_on,0,0,0,,12,,,71,127
67947,note_off,104,0,0,,4,,,88,127
67948,note_on,1,0,0,,2,,,86,127
68052,note_off,104,0,0,,2,,,86,127
68052,note_off,0,0,0,,12,,,71,127
68053,note_on,1,0,0,,4,,,76,127
68053,note_on,0,0,0,,4,,,64,127
68157,note_off,104,0,0,,4,,,76,127
68158,note_on,1,0,0,,2,,,86,127
68262,note_off,104,0,0,,2,,,86,127
68262,note_off,0,0,0,,4,,,64,127
68263,note_on,1,0,0,,2,,,86,127
68263,note_on,0,0,0,,10,,,69,127
68367,note_off,104,0,0,,2,,,86,127
68368,note_on,1,0,0,,1,,,85,127
68472,note_off,104,0,0,,1,,,85,127
68472,note_off,0,0,0,,10,,,69,127
68473,note_on,1,0,0,,4,,,76,127
68473,note_on,0,0,0,,1,,,73,127
68577,note_off,104,0,0,,4,,,76,127
68578,note_on,1,0,0,,4,,,88,127
68682,note_off,104,0,0,,4,,,88,127
68682,note_off,0,0,0,,1,,,73,127
68683,note_on,1,0,0,,4,,,88,127
68683,note_on,0,0,0,,12,,,71,127
68787,note_off,104,0,0,,4,,,88,127
68788,note_on,1,0,0,,2,,,86,127
68892,note_off,104,0,0,,2,,,86,127
68892,note_off,0,0,0,,12,,,71,127
68893,note_on,1,0,0,,4,,,76,127
68893,note_on,0,0,0,,4,,,64,127
68997,note_off,104,0,0,,4,,,76,127
68998,note_on,1,0,0,,2,,,86,127
69102,note_off,104,0,0,,2,,,86,127
69102,note_off,0,0,0,,4,,,64,127
69103,note_on,1,0,0,,1,,,85,127
69103,note_on,0,0,0,,10,,,69,127
69207,note_off,104,0,0,,1,,,85,127
69208,note_on,1,0,0,,10,,,81,127
69312,note_off,104,0,0,,10,,,81,127
69312,note_off,0,0,0,,10,,,69,127
69313,note_on,1,0,0,,12,,,83,127
69313,note_on,0,0,0,,2,,,62,127
69417,note_off,104,0,0,,12,,,83,127
69418,note_on,1,0,0,,6,,,78,127
69522,note_off,104,0,0,,6,,,78,127
69522,note_off,0,0,0,,2,,,62,127
69523,note_on,1,0,0,,10,,,81,127
69523,note_on,0,0,0,,4,,,64,127
69592,note_off,69,0,0,,10,,,81,127
69593,note_on,1,0,0,,8,,,80,127
69662,note_off,69,0,0,,8,,,80,127
69663,note_on,1,0,0,,10,,,81,127
69732,note_off,69,0,0,,10,,,81,127
69732,note_off,0,0,0,,4,,,64,127
69733,note_on,1,0,0,,8,,,80,127
69733,note_on,0,0,0,,4,,,52,127
69802,note_off,69,0,0,,8,,,80,127
69803,note_on,1,0,0,,6,,,78,127
69872,note_off,69,0,0,,6,,,78,127
69873,note_on,1,0,0,,8,,,80,127
69942,note_off,69,0,0,,8,,,80,127
69942,note_off,0,0,0,,4,,,52,127
69943,note_on,1,0,0,,10,,,57,127
69950,note_on,7,0,0,,10,,,81,127
70066,note_on,116,0,0,,4,,,76,127
70081,note_off,15,0,0,,10,,,81,127
70166,note_off,85,0,0,,10,,,57,127
70169,note_off,3,0,0,,4,,,76,127
70170,note_on,1,0,0,,2,,,62,127
70170,note_on,0,0,0,,2,,,50,127
70170,note_on,0,0,0,,6,,,78,127
70275,note_on,105,0,0,,2,,,74,127
70290,note_off,15,0,0,,6,,,78,127
70378,note_off,88,0,0,,2,,,74,127
70378,note_off,0,0,0,,2,,,50,127
70378,note_off,0,0,0,,2,,,62,127
70379,note_on,1,0,0,,1,,,49,127
70379,note_on,0,0,0,,1,,,61,127
70379,note_on,0,0,0,,4,,,76,127
70484,note_on,105,0,0,,1,,,73,127
70499,note_off,15,0,0,,4,,,76,127
70587,note_off,88,0,0,,1,,,73,127
70587,note_off,0,0,0,,1,,,61,127
70587,note_off,0,0,0,,1,,,49,127
70588,note_on,1,0,0,,12,,,47,127
70588,note_on,0,0,0,,12,,,59,127
70588,note_on,0,0,0,,2,,,74,127
70693,note_on,105,0,0,,12,,,71,127
70708,note_off,15,0,0,,2,,,74,127
70796,note_off,88,0,0,,12,,,71,127
70796,note_off,0,0,0,,12,,,59,127
70796,note_off,0,0,0,,12,,,47,127
70797,note_on,1,0,0,,10,,,57,127
70797,note_on,0,0,0,,10,,,45,127
70797,note_on,0,0,0,,1,,,73,127
70902,note_on,105,0,0,,10,,,69,127
70917,note_off,15,0,0,,1,,,73,127
71005,note_off,88,0,0,,10,,,69,127
71005,note_off,0,0,0,,10,,,45,127
71005,note_off,0,0,0,,10,,,57,127
71006,note_on,1,0,0,,2,,,50,127
71006,note_on,0,0,0,,12,,,71,127
71110,note_off,104,0,0,,12,,,71,127
71111,note_on,1,0,0,,6,,,66,127
71215,note_off,104,0,0,,6,,,66,127
71215,note_off,0,0,0,,2,,,50,127
71216,note_on,1,0,0,,4,,,52,127
71216,note_on,0,0,0,,10,,,69,127
71285,note_off,69,0,0,,10,,,69,127
71286,note_on,1,0,0,,8,,,68,127
71355,note_off,69,0,0,,8,,,68,127
71356,note_on,1,0,0,,10,,,69,127
71425,note_off,69,0,0,,10,,,69,127
71425,note_off,0,0,0,,4,,,52,127
71426,note_on,1,0,0,,4,,,40,127
71426,note_on,0,0,0,,8,,,68,127
71495,note_off,69,0,0,,8,,,68,127
71496,note_on,1,0,0,,6,,,66,127
71565,note_off,69,0,0,,6,,,66,127
71566,note_on,1,0,0,,8,,,68,127
71635,note_off,69,0,0,,8,,,68,127
71635,note_off,0,0,0,,4,,,40,127
71649,note_on,14,0,0,,8,,,68,127
71649,note_on,0,0,0,,10,,,45,127
72168,note_on,519,0,0,,10,,,69,127
72181,note_off,13,0,0,,8,,,68,127
73634,note_off,1453,0,0,,10,,,69,127
73647,note_off,13,0,0,,10,,,45,127
78336,end_of_track,4689,1,0,,,,,,
