tick,type,time,meta,track,program,channel,pitch,tempo,note,velocity
0,copyright,0,1,0,,,,,,
0,program_change,0,0,0,6,0,,,,
0,pitchwheel,0,0,0,,0,0,,,
0,program_change,0,0,0,6,1,,,,
0,pitchwheel,0,0,0,,1,-590,,,
0,program_change,0,0,0,6,2,,,,
0,pitchwheel,0,0,0,,2,-272,,,
0,program_change,0,0,0,6,3,,,,
0,pitchwheel,0,0,0,,3,-353,,,
0,program_change,0,0,0,6,4,,,,
0,pitchwheel,0,0,0,,4,-560,,,
0,program_change,0,0,0,6,5,,,,
0,pitchwheel,0,0,0,,5,-80,,,
0,program_change,0,0,0,6,6,,,,
0,pitchwheel,0,0,0,,6,-625,,,
0,program_change,0,0,0,6,7,,,,
0,pitchwheel,0,0,0,,7,-130,,,
0,program_change,0,0,0,6,8,,,,
0,pitchwheel,0,0,0,,8,-512,,,
0,program_change,0,0,0,6,10,,,,
0,pitchwheel,0,0,0,,10,-464,,,
0,program_change,0,0,0,6,11,,,,
0,pitchwheel,0,0,0,,11,-208,,,
0,program_change,0,0,0,6,12,,,,
0,pitchwheel,0,0,0,,12,-553,,,
0,set_tempo,0,1,0,,,,500000,,
136,note_on,136,0,0,,2,,,50,127
812,note_off,676,0,0,,2,,,50,127
813,note_on,1,0,0,,4,,,52,127
879,note_off,66,0,0,,4,,,52,127
880,note_on,1,0,0,,6,,,54,127
946,note_off,66,0,0,,6,,,54,127
947,note_on,1,0,0,,7,,,55,127
1013,note_off,66,0,0,,7,,,55,127
1014,note_on,1,0,0,,10,,,57,127
1080,note_off,66,0,0,,10,,,57,127
1081,note_on,1,0,0,,12,,,59,127
1147,note_off,66,0,0,,12,,,59,127
1148,note_on,1,0,0,,1,,,61,127
1214,note_off,66,0,0,,1,,,61,127
1215,note_on,1,0,0,,2,,,62,127
1756,note_off,541,0,0,,2,,,62,127
1757,note_on,1,0,0,,2,,,62,127
1823,note_off,66,0,0,,2,,,62,127
1824,note_on,1,0,0,,1,,,61,127
1890,note_off,66,0,0,,1,,,61,127
1891,note_on,1,0,0,,2,,,62,127
1957,note_off,66,0,0,,2,,,62,127
1958,note_on,1,0,0,,1,,,61,127
2024,note_off,66,0,0,,1,,,61,127
2025,note_on,1,0,0,,2,,,62,127
2091,note_off,66,0,0,,2,,,62,127
2092,note_on,1,0,0,,1,,,61,127
2158,note_off,66,0,0,,1,,,61,127
2159,note_on,1,0,0,,12,,,59,127
2225,note_off,66,0,0,,12,,,59,127
2226,note_on,1,0,0,,1,,,61,127
2292,note_off,66,0,0,,1,,,61,127
2293,note_on,1,0,0,,2,,,62,127
2835,note_on,542,0,0,,12,,,59,127
2969,note_off,134,0,0,,2,,,62,127
2970,note_on,1,0,0,,4,,,64,127
3036,note_off,66,0,0,,4,,,64,127
3037,note_on,1,0,0,,6,,,66,127
3103,note_off,66,0,0,,6,,,66,127
3104,note_on,1,0,0,,7,,,67,127
3170,note_off,66,0,0,,7,,,67,127
3171,note_on,1,0,0,,10,,,69,127
3237,note_off,66,0,0,,10,,,69,127
3238,note_on,1,0,0,,12,,,71,127
3304,note_off,66,0,0,,12,,,71,127
3305,note_on,1,0,0,,1,,,73,127
3371,note_off,66,0,0,,1,,,73,127
3371,note_off,0,0,0,,12,,,59,127
3372,note_on,1,0,0,,7,,,55,127
3372,note_on,0,0,0,,2,,,74,127
3913,note_off,541,0,0,,2,,,74,127
3913,note_off,0,0,0,,7,,,55,127
3914,note_on,1,0,0,,10,,,57,127
3914,note_on,0,0,0,,2,,,74,127
3980,note_off,66,0,0,,2,,,74,127
3981,note_on,1,0,0,,1,,,73,127
4047,note_off,66,0,0,,1,,,73,127
4048,note_on,1,0,0,,2,,,74,127
4114,note_off,66,0,0,,2,,,74,127
4115,note_on,1,0,0,,1,,,73,127
4181,note_off,66,0,0,,1,,,73,127
4182,note_on,1,0,0,,2,,,74,127
4248,note_off,66,0,0,,2,,,74,127
4249,note_on,1,0,0,,1,,,73,127
4315,note_off,66,0,0,,1,,,73,127
4316,note_on,1,0,0,,12,,,71,127
4382,note_off,66,0,0,,12,,,71,127
4383,note_on,1,0,0,,1,,,73,127
4449,note_off,66,0,0,,1,,,73,127
4449,note_off,0,0,0,,10,,,57,127
4450,note_on,1,0,0,,2,,,50,127
4450,note_on,0,0,0,,4,,,76,127
4584,note_off,134,0,0,,4,,,76,127
4585,note_on,1,0,0,,2,,,74,127
4719,note_off,134,0,0,,2,,,74,127
4720,note_on,1,0,0,,1,,,73,127
4990,note_off,270,0,0,,1,,,73,127
4991,note_on,1,0,0,,2,,,62,127
4991,note_on,0,0,0,,1,,,73,127
5042,note_off,51,0,0,,2,,,50,127
5125,note_off,83,0,0,,1,,,73,127
5126,note_on,1,0,0,,12,,,71,127
5260,note_off,134,0,0,,12,,,71,127
5261,note_on,1,0,0,,10,,,69,127
5531,note_off,270,0,0,,10,,,69,127
5532,note_on,1,0,0,,10,,,69,127
5666,note_off,134,0,0,,10,,,69,127
5667,note_on,1,0,0,,7,,,67,127
5801,note_off,134,0,0,,7,,,67,127
5802,note_on,1,0,0,,6,,,66,127
5936,note_off,134,0,0,,6,,,66,127
5937,note_on,1,0,0,,7,,,67,127
6071,note_off,134,0,0,,7,,,67,127
6071,note_off,0,0,0,,2,,,62,127
6072,note_on,1,0,0,,1,,,61,127
6072,note_on,0,0,0,,12,,,71,127
6206,note_off,134,0,0,,12,,,71,127
6207,note_on,1,0,0,,10,,,69,127
6341,note_off,134,0,0,,10,,,69,127
6342,note_on,1,0,0,,4,,,64,127
6612,note_off,270,0,0,,4,,,64,127
6612,note_off,0,0,0,,1,,,61,127
6613,note_on,1,0,0,,12,,,59,127
6613,note_on,0,0,0,,2,,,62,127
6883,note_off,270,0,0,,2,,,62,127
6884,note_on,1,0,0,,4,,,64,127
7154,note_off,270,0,0,,4,,,64,127
7154,note_off,0,0,0,,12,,,59,127
7155,note_on,1,0,0,,12,,,59,127
7155,note_on,0,0,0,,2,,,74,127
7155,note_on,0,0,0,,6,,,66,127
7425,note_off,270,0,0,,6,,,66,127
7426,note_on,1,0,0,,8,,,68,127
7696,note_off,270,0,0,,8,,,68,127
7696,note_off,0,0,0,,12,,,59,127
7697,note_on,1,0,0,,10,,,57,127
7697,note_on,0,0,0,,10,,,69,127
7967,note_off,270,0,0,,2,,,74,127
7968,note_on,1,0,0,,12,,,71,127
8238,note_off,270,0,0,,12,,,71,127
8238,note_off,0,0,0,,10,,,57,127
8239,note_on,1,0,0,,6,,,54,127
8239,note_on,0,0,0,,1,,,73,127
8509,note_off,270,0,0,,1,,,73,127
8510,note_on,1,0,0,,3,,,75,127
8780,note_off,270,0,0,,3,,,75,127
8780,note_off,0,0,0,,6,,,54,127
8780,note_off,0,0,0,,10,,,69,127
8781,note_on,1,0,0,,4,,,52,127
8781,note_on,0,0,0,,4,,,76,127
9186,note_off,405,0,0,,4,,,76,127
9187,note_on,1,0,0,,3,,,75,127
9253,note_off,66,0,0,,3,,,75,127
9254,note_on,1,0,0,,1,,,73,127
9320,note_off,66,0,0,,1,,,73,127
9321,note_on,1,0,0,,12,,,71,127
9455,note_off,134,0,0,,4,,,52,127
9456,note_on,1,0,0,,6,,,54,127
9522,note_off,66,0,0,,6,,,54,127
9523,note_on,1,0,0,,8,,,56,127
9589,note_off,66,0,0,,8,,,56,127
9590,note_on,1,0,0,,10,,,57,127
9656,note_off,66,0,0,,10,,,57,127
9657,note_on,1,0,0,,12,,,59,127
9723,note_off,66,0,0,,12,,,59,127
9724,note_on,1,0,0,,1,,,61,127
9790,note_off,66,0,0,,1,,,61,127
9791,note_on,1,0,0,,3,,,63,127
9857,note_off,66,0,0,,3,,,63,127
9858,note_on,1,0,0,,4,,,64,127
10399,note_off,541,0,0,,4,,,64,127
10400,note_on,1,0,0,,4,,,64,127
10466,note_off,66,0,0,,4,,,64,127
10467,note_on,1,0,0,,3,,,63,127
10533,note_off,66,0,0,,3,,,63,127
10534,note_on,1,0,0,,4,,,64,127
10600,note_off,66,0,0,,4,,,64,127
10601,note_on,1,0,0,,3,,,63,127
10667,note_off,66,0,0,,3,,,63,127
10668,note_on,1,0,0,,4,,,64,127
10734,note_off,66,0,0,,4,,,64,127
10735,note_on,1,0,0,,3,,,63,127
10801,note_off,66,0,0,,3,,,63,127
10802,note_on,1,0,0,,1,,,61,127
10868,note_off,66,0,0,,1,,,61,127
10869,note_on,1,0,0,,3,,,63,127
10935,note_off,66,0,0,,3,,,63,127
10935,note_off,0,0,0,,12,,,71,127
10936,note_on,1,0,0,,4,,,64,127
11478,note_on,542,0,0,,1,,,61,127
11612,note_off,134,0,0,,4,,,64,127
11613,note_on,1,0,0,,6,,,66,127
11679,note_off,66,0,0,,6,,,66,127
11680,note_on,1,0,0,,8,,,68,127
11746,note_off,66,0,0,,8,,,68,127
11747,note_on,1,0,0,,10,,,69,127
11813,note_off,66,0,0,,10,,,69,127
11814,note_on,1,0,0,,12,,,71,127
11880,note_off,66,0,0,,12,,,71,127
11881,note_on,1,0,0,,1,,,73,127
11947,note_off,66,0,0,,1,,,73,127
11948,note_on,1,0,0,,3,,,75,127
12014,note_off,66,0,0,,3,,,75,127
12014,note_off,0,0,0,,1,,,61,127
12015,note_on,1,0,0,,10,,,57,127
12015,note_on,0,0,0,,4,,,76,127
12556,note_off,541,0,0,,4,,,76,127
12556,note_off,0,0,0,,10,,,57,127
12557,note_on,1,0,0,,12,,,59,127
12557,note_on,0,0,0,,4,,,76,127
12623,note_off,66,0,0,,4,,,76,127
12624,note_on,1,0,0,,3,,,75,127
12690,note_off,66,0,0,,3,,,75,127
12691,note_on,1,0,0,,4,,,76,127
12757,note_off,66,0,0,,4,,,76,127
12758,note_on,1,0,0,,3,,,75,127
12824,note_off,66,0,0,,3,,,75,127
12825,note_on,1,0,0,,4,,,76,127
12891,note_off,66,0,0,,4,,,76,127
12892,note_on,1,0,0,,3,,,75,127
12958,note_off,66,0,0,,3,,,75,127
12959,note_on,1,0,0,,1,,,73,127
13025,note_off,66,0,0,,1,,,73,127
13026,note_on,1,0,0,,3,,,75,127
13092,note_off,66,0,0,,3,,,75,127
13092,note_off,0,0,0,,12,,,59,127
13093,note_on,1,0,0,,4,,,52,127
13093,note_on,0,0,0,,6,,,78,127
13227,note_off,134,0,0,,6,,,78,127
13228,note_on,1,0,0,,4,,,76,127
13362,note_off,134,0,0,,4,,,76,127
13363,note_on,1,0,0,,3,,,75,127
13633,note_off,270,0,0,,3,,,75,127
13634,note_on,1,0,0,,4,,,64,127
13634,note_on,0,0,0,,3,,,75,127
13768,note_off,134,0,0,,3,,,75,127
13769,note_on,1,0,0,,1,,,73,127
13903,note_off,134,0,0,,1,,,73,127
13904,note_on,1,0,0,,12,,,71,127
14174,note_off,270,0,0,,12,,,71,127
14175,note_on,1,0,0,,12,,,71,127
14305,note_off,130,0,0,,4,,,52,127
14309,note_off,4,0,0,,12,,,71,127
14310,note_on,1,0,0,,10,,,69,127
14444,note_off,134,0,0,,10,,,69,127
14445,note_on,1,0,0,,8,,,68,127
14579,note_off,134,0,0,,8,,,68,127
14580,note_on,1,0,0,,10,,,69,127
14714,note_off,134,0,0,,10,,,69,127
14714,note_off,0,0,0,,4,,,64,127
14715,note_on,1,0,0,,2,,,62,127
14715,note_on,0,0,0,,1,,,73,127
14849,note_off,134,0,0,,1,,,73,127
14850,note_on,1,0,0,,12,,,71,127
14984,note_off,134,0,0,,12,,,71,127
14985,note_on,1,0,0,,10,,,69,127
15119,note_off,134,0,0,,10,,,69,127
15120,note_on,1,0,0,,8,,,68,127
15254,note_off,134,0,0,,8,,,68,127
15255,note_on,1,0,0,,6,,,66,127
15525,note_off,270,0,0,,6,,,66,127
15526,note_on,1,0,0,,4,,,64,127
15796,note_off,270,0,0,,2,,,62,127
15797,note_on,1,0,0,,0,,,60,127
16067,note_off,270,0,0,,4,,,64,127
16068,note_on,1,0,0,,4,,,76,127
16305,note_off,237,0,0,,0,,,60,127
16337,note_off,32,0,0,,4,,,76,127
16338,note_on,1,0,0,,2,,,50,127
16338,note_on,0,0,0,,2,,,62,127
16338,note_on,0,0,0,,5,,,77,127
16608,note_off,270,0,0,,5,,,77,127
16609,note_on,1,0,0,,2,,,74,127
16879,note_off,270,0,0,,2,,,74,127
16879,note_off,0,0,0,,2,,,62,127
16879,note_off,0,0,0,,2,,,50,127
16880,note_on,1,0,0,,4,,,64,127
16880,note_on,0,0,0,,4,,,52,127
16880,note_on,0,0,0,,2,,,74,127
17014,note_off,134,0,0,,2,,,74,127
17015,note_on,1,0,0,,0,,,72,127
17149,note_off,134,0,0,,0,,,72,127
17150,note_on,1,0,0,,12,,,71,127
17420,note_off,270,0,0,,12,,,71,127
17420,note_off,0,0,0,,4,,,52,127
17420,note_off,0,0,0,,4,,,64,127
17421,note_on,1,0,0,,5,,,53,127
17421,note_on,0,0,0,,5,,,65,127
17421,note_on,0,0,0,,12,,,71,127
17691,note_off,270,0,0,,12,,,71,127
17691,note_off,0,0,0,,5,,,65,127
17692,note_on,1,0,0,,2,,,62,127
17692,note_on,0,0,0,,10,,,69,127
17962,note_off,270,0,0,,2,,,62,127
17962,note_off,0,0,0,,5,,,53,127
17963,note_on,1,0,0,,4,,,52,127
17963,note_on,0,0,0,,0,,,60,127
18233,note_off,270,0,0,,0,,,60,127
18233,note_off,0,0,0,,4,,,52,127
18234,note_on,1,0,0,,2,,,50,127
18234,note_on,0,0,0,,12,,,59,127
18504,note_off,270,0,0,,12,,,59,127
18504,note_off,0,0,0,,2,,,50,127
18504,note_off,0,0,0,,10,,,69,127
18505,note_on,1,0,0,,10,,,57,127
18505,note_on,0,0,0,,0,,,48,127
18505,note_on,0,0,0,,4,,,76,127
18775,note_off,270,0,0,,4,,,76,127
18776,note_on,1,0,0,,0,,,72,127
19046,note_off,270,0,0,,0,,,72,127
19046,note_off,0,0,0,,0,,,48,127
19046,note_off,0,0,0,,10,,,57,127
19047,note_on,1,0,0,,2,,,50,127
19047,note_on,0,0,0,,12,,,59,127
19047,note_on,0,0,0,,10,,,57,127
19047,note_on,0,0,0,,0,,,72,127
19181,note_off,134,0,0,,0,,,72,127
19182,note_on,1,0,0,,12,,,71,127
19316,note_off,134,0,0,,12,,,71,127
19317,note_on,1,0,0,,10,,,69,127
19587,note_off,270,0,0,,10,,,69,127
19587,note_off,0,0,0,,10,,,57,127
19587,note_off,0,0,0,,12,,,59,127
19587,note_off,0,0,0,,2,,,50,127
19588,note_on,1,0,0,,12,,,59,127
19588,note_on,0,0,0,,4,,,52,127
19588,note_on,0,0,0,,10,,,69,127
19654,note_off,66,0,0,,10,,,69,127
19655,note_on,1,0,0,,8,,,68,127
19721,note_off,66,0,0,,8,,,68,127
19722,note_on,1,0,0,,10,,,69,127
19788,note_off,66,0,0,,10,,,69,127
19789,note_on,1,0,0,,8,,,68,127
19923,note_off,134,0,0,,8,,,68,127
19924,note_on,1,0,0,,6,,,66,127
19990,note_off,66,0,0,,6,,,66,127
19991,note_on,1,0,0,,8,,,68,127
20057,note_off,66,0,0,,8,,,68,127
20058,note_on,1,0,0,,10,,,69,127
20124,note_off,66,0,0,,10,,,69,127
20124,note_off,0,0,0,,4,,,52,127
20124,note_off,0,0,0,,12,,,59,127
20125,note_on,1,0,0,,1,,,61,127
20125,note_on,0,0,0,,12,,,71,127
20191,note_off,66,0,0,,1,,,61,127
20192,note_on,1,0,0,,12,,,59,127
20258,note_off,66,0,0,,12,,,59,127
20259,note_on,1,0,0,,1,,,61,127
20325,note_off,66,0,0,,1,,,61,127
20326,note_on,1,0,0,,12,,,59,127
20460,note_off,134,0,0,,12,,,59,127
20461,note_on,1,0,0,,10,,,57,127
20527,note_off,66,0,0,,10,,,57,127
20528,note_on,1,0,0,,12,,,59,127
20594,note_off,66,0,0,,12,,,59,127
20595,note_on,1,0,0,,1,,,61,127
20661,note_off,66,0,0,,1,,,61,127
20661,note_off,0,0,0,,12,,,71,127
20662,note_on,1,0,0,,2,,,62,127
20662,note_on,0,0,0,,1,,,73,127
20728,note_off,66,0,0,,1,,,73,127
20729,note_on,1,0,0,,12,,,71,127
20795,note_off,66,0,0,,12,,,71,127
20796,note_on,1,0,0,,1,,,73,127
20862,note_off,66,0,0,,1,,,73,127
20863,note_on,1,0,0,,12,,,71,127
20997,note_off,134,0,0,,12,,,71,127
20998,note_on,1,0,0,,10,,,69,127
21064,note_off,66,0,0,,10,,,69,127
21065,note_on,1,0,0,,12,,,71,127
21131,note_off,66,0,0,,12,,,71,127
21132,note_on,1,0,0,,1,,,73,127
21198,note_off,66,0,0,,1,,,73,127
21198,note_off,0,0,0,,2,,,62,127
21199,note_on,1,0,0,,10,,,57,127
21199,note_on,0,0,0,,2,,,74,127
21265,note_off,66,0,0,,10,,,57,127
21266,note_on,1,0,0,,8,,,56,127
21332,note_off,66,0,0,,8,,,56,127
21333,note_on,1,0,0,,10,,,57,127
21399,note_off,66,0,0,,10,,,57,127
21400,note_on,1,0,0,,8,,,56,127
21534,note_off,134,0,0,,8,,,56,127
21535,note_on,1,0,0,,6,,,54,127
21601,note_off,66,0,0,,6,,,54,127
21602,note_on,1,0,0,,8,,,56,127
21668,note_off,66,0,0,,8,,,56,127
21669,note_on,1,0,0,,10,,,57,127
21735,note_off,66,0,0,,10,,,57,127
21735,note_off,0,0,0,,2,,,74,127
21736,note_on,1,0,0,,12,,,59,127
21736,note_on,0,0,0,,4,,,76,127
21802,note_off,66,0,0,,4,,,76,127
21803,note_on,1,0,0,,2,,,74,127
21869,note_off,66,0,0,,2,,,74,127
21870,note_on,1,0,0,,4,,,76,127
21936,note_off,66,0,0,,4,,,76,127
21937,note_on,1,0,0,,2,,,74,127
22071,note_off,134,0,0,,2,,,74,127
22072,note_on,1,0,0,,1,,,73,127
22138,note_off,66,0,0,,1,,,73,127
22139,note_on,1,0,0,,2,,,74,127
22205,note_off,66,0,0,,2,,,74,127
22206,note_on,1,0,0,,4,,,76,127
22272,note_off,66,0,0,,4,,,76,127
22272,note_off,0,0,0,,12,,,59,127
22273,note_on,1,0,0,,4,,,52,127
22273,note_on,0,0,0,,6,,,78,127
22339,note_off,66,0,0,,4,,,52,127
22340,note_on,1,0,0,,2,,,50,127
22406,note_off,66,0,0,,2,,,50,127
22407,note_on,1,0,0,,4,,,52,127
22473,note_off,66,0,0,,4,,,52,127
22474,note_on,1,0,0,,2,,,50,127
22540,note_off,66,0,0,,2,,,50,127
22541,note_on,1,0,0,,1,,,49,127
22607,note_off,66,0,0,,1,,,49,127
22608,note_on,1,0,0,,2,,,50,127
22674,note_off,66,0,0,,2,,,50,127
22675,note_on,1,0,0,,4,,,52,127
22741,note_off,66,0,0,,4,,,52,127
22742,note_on,1,0,0,,6,,,54,127
22808,note_off,66,0,0,,6,,,54,127
22809,note_on,1,0,0,,8,,,56,127
23079,note_off,270,0,0,,6,,,78,127
23080,note_on,1,0,0,,4,,,76,127
23350,note_off,270,0,0,,4,,,76,127
23350,note_off,0,0,0,,8,,,56,127
23351,note_on,1,0,0,,4,,,52,127
23351,note_on,0,0,0,,6,,,78,127
23485,note_off,134,0,0,,6,,,78,127
23486,note_on,1,0,0,,4,,,76,127
23620,note_off,134,0,0,,4,,,76,127
23621,note_on,1,0,0,,2,,,74,127
23891,note_off,270,0,0,,2,,,74,127
23891,note_off,0,0,0,,4,,,52,127
23892,note_on,1,0,0,,10,,,45,127
23892,note_on,0,0,0,,10,,,57,127
23892,note_on,0,0,0,,4,,,76,127
24026,note_off,134,0,0,,4,,,76,127
24027,note_on,1,0,0,,2,,,74,127
24161,note_off,134,0,0,,2,,,74,127
24162,note_on,1,0,0,,1,,,73,127
24432,note_off,270,0,0,,1,,,73,127
24432,note_off,0,0,0,,10,,,57,127
24432,note_off,0,0,0,,10,,,45,127
24433,note_on,1,0,0,,2,,,50,127
24433,note_on,0,0,0,,10,,,57,127
24433,note_on,0,0,0,,12,,,59,127
24433,note_on,0,0,0,,2,,,74,127
24567,note_off,134,0,0,,2,,,74,127
24568,note_on,1,0,0,,1,,,73,127
24702,note_off,134,0,0,,1,,,73,127
24703,note_on,1,0,0,,12,,,71,127
24973,note_off,270,0,0,,12,,,71,127
24973,note_off,0,0,0,,12,,,59,127
24973,note_off,0,0,0,,10,,,57,127
24973,note_off,0,0,0,,2,,,50,127
24974,note_on,1,0,0,,4,,,52,127
24974,note_on,0,0,0,,1,,,61,127
24974,note_on,0,0,0,,10,,,57,127
24974,note_on,0,0,0,,1,,,73,127
25108,note_off,134,0,0,,1,,,73,127
25109,note_on,1,0,0,,12,,,71,127
25243,note_off,134,0,0,,12,,,71,127
25244,note_on,1,0,0,,10,,,69,127
25514,note_off,270,0,0,,10,,,69,127
25514,note_off,0,0,0,,10,,,57,127
25514,note_off,0,0,0,,1,,,61,127
25514,note_off,0,0,0,,4,,,52,127
25515,note_on,1,0,0,,12,,,59,127
25515,note_on,0,0,0,,10,,,57,127
25515,note_on,0,0,0,,4,,,52,127
25515,note_on,0,0,0,,12,,,71,127
25649,note_off,134,0,0,,12,,,71,127
25650,note_on,1,0,0,,10,,,69,127
25784,note_off,134,0,0,,10,,,69,127
25785,note_on,1,0,0,,8,,,68,127
26055,note_off,270,0,0,,8,,,68,127
26055,note_off,0,0,0,,4,,,52,127
26055,note_off,0,0,0,,10,,,57,127
26055,note_off,0,0,0,,12,,,59,127
26056,note_on,1,0,0,,10,,,57,127
26056,note_on,0,0,0,,12,,,71,127
26115,note_on,59,0,0,,10,,,69,127
26122,note_off,7,0,0,,12,,,71,127
26176,note_on,54,0,0,,12,,,71,127
26182,note_off,6,0,0,,10,,,69,127
26237,note_on,55,0,0,,10,,,69,127
26243,note_off,6,0,0,,12,,,71,127
26298,note_on,55,0,0,,12,,,71,127
26304,note_off,6,0,0,,10,,,69,127
26328,note_on,24,0,0,,7,,,67,127
26359,note_on,31,0,0,,10,,,69,127
26365,note_off,6,0,0,,12,,,71,127
26420,note_on,55,0,0,,12,,,71,127
26426,note_off,6,0,0,,10,,,69,127
26481,note_on,55,0,0,,10,,,69,127
26487,note_off,6,0,0,,12,,,71,127
26541,note_on,54,0,0,,12,,,71,127
26548,note_off,7,0,0,,10,,,69,127
26599,note_off,51,0,0,,7,,,67,127
26600,note_on,1,0,0,,5,,,65,127
26601,note_on,1,0,0,,10,,,69,127
26607,note_off,6,0,0,,12,,,71,127
26662,note_on,55,0,0,,12,,,71,127
26668,note_off,6,0,0,,10,,,69,127
26723,note_on,55,0,0,,10,,,69,127
26729,note_off,6,0,0,,12,,,71,127
26784,note_on,55,0,0,,12,,,71,127
26790,note_off,6,0,0,,10,,,69,127
26845,note_on,55,0,0,,10,,,69,127
26851,note_off,6,0,0,,12,,,71,127
26871,note_off,20,0,0,,5,,,65,127
26872,note_on,1,0,0,,4,,,64,127
26906,note_on,34,0,0,,12,,,71,127
26912,note_off,6,0,0,,10,,,69,127
26966,note_on,54,0,0,,10,,,69,127
26973,note_off,7,0,0,,12,,,71,127
27027,note_on,54,0,0,,12,,,71,127
27033,note_off,6,0,0,,10,,,69,127
27088,note_on,55,0,0,,10,,,69,127
27094,note_off,6,0,0,,12,,,71,127
27143,note_off,49,0,0,,4,,,64,127
27144,note_on,1,0,0,,2,,,62,127
27148,note_on,4,0,0,,12,,,71,127
27154,note_off,6,0,0,,10,,,69,127
27209,note_on,55,0,0,,10,,,69,127
27215,note_off,6,0,0,,12,,,71,127
27270,note_on,55,0,0,,12,,,71,127
27276,note_off,6,0,0,,10,,,69,127
27331,note_on,55,0,0,,10,,,69,127
27337,note_off,6,0,0,,12,,,71,127
27391,note_on,54,0,0,,12,,,71,127
27398,note_off,7,0,0,,10,,,69,127
27415,note_off,17,0,0,,2,,,62,127
27416,note_on,1,0,0,,5,,,65,127
27451,note_on,35,0,0,,10,,,69,127
27457,note_off,6,0,0,,12,,,71,127
27512,note_on,55,0,0,,12,,,71,127
27518,note_off,6,0,0,,10,,,69,127
27573,note_on,55,0,0,,10,,,69,127
27579,note_off,6,0,0,,12,,,71,127
27634,note_on,55,0,0,,12,,,71,127
27640,note_off,6,0,0,,10,,,69,127
27687,note_off,47,0,0,,5,,,65,127
27688,note_on,1,0,0,,4,,,64,127
27695,note_on,7,0,0,,10,,,69,127
27701,note_off,6,0,0,,12,,,71,127
27756,note_on,55,0,0,,12,,,71,127
27762,note_off,6,0,0,,10,,,69,127
27816,note_on,54,0,0,,10,,,69,127
27823,note_off,7,0,0,,12,,,71,127
27877,note_on,54,0,0,,12,,,71,127
27883,note_off,6,0,0,,10,,,69,127
27938,note_on,55,0,0,,10,,,69,127
27944,note_off,6,0,0,,12,,,71,127
27960,note_off,16,0,0,,4,,,64,127
27961,note_on,1,0,0,,2,,,62,127
27998,note_on,37,0,0,,12,,,71,127
28005,note_off,7,0,0,,10,,,69,127
28057,note_on,52,0,0,,10,,,69,127
28064,note_off,7,0,0,,12,,,71,127
28231,note_off,167,0,0,,2,,,62,127
28231,note_off,0,0,0,,10,,,57,127
28232,note_on,1,0,0,,0,,,60,127
28232,note_on,0,0,0,,4,,,64,127
28232,note_on,0,0,0,,4,,,76,127
28502,note_off,270,0,0,,4,,,76,127
28502,note_off,0,0,0,,0,,,60,127
28503,note_on,1,0,0,,12,,,59,127
28503,note_on,0,0,0,,2,,,74,127
28598,note_off,95,0,0,,10,,,69,127
28773,note_off,175,0,0,,2,,,74,127
28773,note_off,0,0,0,,12,,,59,127
28774,note_on,1,0,0,,10,,,57,127
28774,note_on,0,0,0,,4,,,76,127
28774,note_on,0,0,0,,2,,,74,127
28908,note_off,134,0,0,,2,,,74,127
28909,note_on,1,0,0,,0,,,72,127
29043,note_off,134,0,0,,0,,,72,127
29043,note_off,0,0,0,,10,,,57,127
29044,note_on,1,0,0,,7,,,55,127
29044,note_on,0,0,0,,12,,,71,127
29314,note_off,270,0,0,,12,,,71,127
29314,note_off,0,0,0,,7,,,55,127
29314,note_off,0,0,0,,4,,,76,127
29315,note_on,1,0,0,,5,,,53,127
29315,note_on,0,0,0,,10,,,69,127
29315,note_on,0,0,0,,4,,,76,127
29449,note_off,134,0,0,,4,,,76,127
29450,note_on,1,0,0,,2,,,74,127
29584,note_off,134,0,0,,2,,,74,127
29585,note_on,1,0,0,,0,,,72,127
29855,note_off,270,0,0,,0,,,72,127
29855,note_off,0,0,0,,4,,,64,127
29856,note_on,1,0,0,,2,,,62,127
29856,note_on,0,0,0,,12,,,71,127
30126,note_off,270,0,0,,12,,,71,127
30126,note_off,0,0,0,,10,,,69,127
30127,note_on,1,0,0,,10,,,69,127
30359,note_off,232,0,0,,5,,,53,127
30379,note_off,20,0,0,,2,,,62,127
30397,note_off,18,0,0,,10,,,69,127
30398,note_on,1,0,0,,4,,,52,127
30398,note_on,0,0,0,,4,,,64,127
30398,note_on,0,0,0,,10,,,69,127
30464,note_off,66,0,0,,10,,,69,127
30465,note_on,1,0,0,,8,,,68,127
30531,note_off,66,0,0,,8,,,68,127
30532,note_on,1,0,0,,10,,,69,127
30598,note_off,66,0,0,,10,,,69,127
30599,note_on,1,0,0,,8,,,68,127
30733,note_off,134,0,0,,8,,,68,127
30734,note_on,1,0,0,,6,,,66,127
30800,note_off,66,0,0,,6,,,66,127
30801,note_on,1,0,0,,8,,,68,127
30867,note_off,66,0,0,,8,,,68,127
30868,note_on,1,0,0,,10,,,69,127
30934,note_off,66,0,0,,10,,,69,127
30934,note_off,0,0,0,,4,,,64,127
30934,note_off,0,0,0,,4,,,52,127
30935,note_on,1,0,0,,1,,,61,127
30935,note_on,0,0,0,,12,,,71,127
31001,note_off,66,0,0,,1,,,61,127
31002,note_on,1,0,0,,12,,,59,127
31068,note_off,66,0,0,,12,,,59,127
31069,note_on,1,0,0,,1,,,61,127
31135,note_off,66,0,0,,1,,,61,127
31136,note_on,1,0,0,,12,,,59,127
31270,note_off,134,0,0,,12,,,59,127
31271,note_on,1,0,0,,10,,,57,127
31337,note_off,66,0,0,,10,,,57,127
31338,note_on,1,0,0,,12,,,59,127
31404,note_off,66,0,0,,12,,,59,127
31405,note_on,1,0,0,,1,,,61,127
31471,note_off,66,0,0,,1,,,61,127
31471,note_off,0,0,0,,12,,,71,127
31472,note_on,1,0,0,,2,,,62,127
31472,note_on,0,0,0,,1,,,73,127
31538,note_off,66,0,0,,1,,,73,127
31539,note_on,1,0,0,,12,,,71,127
31605,note_off,66,0,0,,12,,,71,127
31606,note_on,1,0,0,,1,,,73,127
31672,note_off,66,0,0,,1,,,73,127
31673,note_on,1,0,0,,12,,,71,127
31807,note_off,134,0,0,,12,,,71,127
31808,note_on,1,0,0,,10,,,69,127
31874,note_off,66,0,0,,10,,,69,127
31875,note_on,1,0,0,,12,,,71,127
31941,note_off,66,0,0,,12,,,71,127
31942,note_on,1,0,0,,1,,,73,127
32008,note_off,66,0,0,,1,,,73,127
32008,note_off,0,0,0,,2,,,62,127
32009,note_on,1,0,0,,10,,,57,127
32009,note_on,0,0,0,,2,,,74,127
32075,note_off,66,0,0,,10,,,57,127
32076,note_on,1,0,0,,8,,,56,127
32142,note_off,66,0,0,,8,,,56,127
32143,note_on,1,0,0,,10,,,57,127
32209,note_off,66,0,0,,10,,,57,127
32210,note_on,1,0,0,,8,,,56,127
32344,note_off,134,0,0,,8,,,56,127
32345,note_on,1,0,0,,6,,,54,127
32411,note_off,66,0,0,,6,,,54,127
32412,note_on,1,0,0,,8,,,56,127
32478,note_off,66,0,0,,8,,,56,127
32479,note_on,1,0,0,,10,,,57,127
32545,note_off,66,0,0,,10,,,57,127
32545,note_off,0,0,0,,2,,,74,127
32546,note_on,1,0,0,,12,,,59,127
32546,note_on,0,0,0,,4,,,76,127
32612,note_off,66,0,0,,4,,,76,127
32613,note_on,1,0,0,,2,,,74,127
32679,note_off,66,0,0,,2,,,74,127
32680,note_on,1,0,0,,4,,,76,127
32746,note_off,66,0,0,,4,,,76,127
32747,note_on,1,0,0,,2,,,74,127
32881,note_off,134,0,0,,2,,,74,127
32882,note_on,1,0,0,,1,,,73,127
32948,note_off,66,0,0,,1,,,73,127
32949,note_on,1,0,0,,2,,,74,127
33015,note_off,66,0,0,,2,,,74,127
33016,note_on,1,0,0,,4,,,76,127
33082,note_off,66,0,0,,4,,,76,127
33082,note_off,0,0,0,,12,,,59,127
33083,note_on,1,0,0,,4,,,52,127
33083,note_on,0,0,0,,6,,,78,127
33149,note_off,66,0,0,,4,,,52,127
33150,note_on,1,0,0,,2,,,50,127
33216,note_off,66,0,0,,2,,,50,127
33217,note_on,1,0,0,,4,,,52,127
33283,note_off,66,0,0,,4,,,52,127
33284,note_on,1,0,0,,2,,,50,127
33350,note_off,66,0,0,,2,,,50,127
33351,note_on,1,0,0,,1,,,49,127
33417,note_off,66,0,0,,1,,,49,127
33418,note_on,1,0,0,,2,,,50,127
33484,note_off,66,0,0,,2,,,50,127
33485,note_on,1,0,0,,4,,,52,127
33551,note_off,66,0,0,,4,,,52,127
33552,note_on,1,0,0,,6,,,54,127
33618,note_off,66,0,0,,6,,,54,127
33619,note_on,1,0,0,,8,,,56,127
33889,note_off,270,0,0,,6,,,78,127
33890,note_on,1,0,0,,4,,,76,127
34160,note_off,270,0,0,,4,,,76,127
34160,note_off,0,0,0,,8,,,56,127
34161,note_on,1,0,0,,4,,,52,127
34161,note_on,0,0,0,,6,,,78,127
34295,note_off,134,0,0,,6,,,78,127
34296,note_on,1,0,0,,4,,,76,127
34430,note_off,134,0,0,,4,,,76,127
34431,note_on,1,0,0,,2,,,74,127
34701,note_off,270,0,0,,2,,,74,127
34701,note_off,0,0,0,,4,,,52,127
34702,note_on,1,0,0,,10,,,45,127
34702,note_on,0,0,0,,10,,,57,127
34702,note_on,0,0,0,,4,,,76,127
34836,note_off,134,0,0,,4,,,76,127
34837,note_on,1,0,0,,2,,,74,127
34971,note_off,134,0,0,,2,,,74,127
34972,note_on,1,0,0,,1,,,73,127
35242,note_off,270,0,0,,1,,,73,127
35242,note_off,0,0,0,,10,,,57,127
35242,note_off,0,0,0,,10,,,45,127
35243,note_on,1,0,0,,12,,,59,127
35243,note_on,0,0,0,,10,,,57,127
35243,note_on,0,0,0,,2,,,50,127
35243,note_on,0,0,0,,2,,,74,127
35377,note_off,134,0,0,,2,,,74,127
35378,note_on,1,0,0,,1,,,73,127
35512,note_off,134,0,0,,1,,,73,127
35513,note_on,1,0,0,,12,,,71,127
35783,note_off,270,0,0,,12,,,71,127
35783,note_off,0,0,0,,2,,,50,127
35783,note_off,0,0,0,,10,,,57,127
35783,note_off,0,0,0,,12,,,59,127
35784,note_on,1,0,0,,10,,,57,127
35784,note_on,0,0,0,,4,,,52,127
35784,note_on,0,0,0,,1,,,61,127
35784,note_on,0,0,0,,1,,,73,127
35918,note_off,134,0,0,,1,,,73,127
35919,note_on,1,0,0,,12,,,71,127
36053,note_off,134,0,0,,12,,,71,127
36054,note_on,1,0,0,,10,,,69,127
36324,note_off,270,0,0,,10,,,69,127
36324,note_off,0,0,0,,1,,,61,127
36324,note_off,0,0,0,,4,,,52,127
36324,note_off,0,0,0,,10,,,57,127
36325,note_on,1,0,0,,12,,,59,127
36325,note_on,0,0,0,,10,,,57,127
36325,note_on,0,0,0,,4,,,52,127
36325,note_on,0,0,0,,12,,,71,127
36459,note_off,134,0,0,,12,,,71,127
36460,note_on,1,0,0,,10,,,69,127
36594,note_off,134,0,0,,10,,,69,127
36595,note_on,1,0,0,,8,,,68,127
36865,note_off,270,0,0,,8,,,68,127
36865,note_off,0,0,0,,4,,,52,127
36865,note_off,0,0,0,,10,,,57,127
36865,note_off,0,0,0,,12,,,59,127
36866,note_on,1,0,0,,10,,,57,127
36866,note_on,0,0,0,,2,,,62,127
36866,note_on,0,0,0,,6,,,54,127
36866,note_on,0,0,0,,10,,,69,127
37136,note_off,270,0,0,,10,,,69,127
37137,note_on,1,0,0,,10,,,81,127
37407,note_off,270,0,0,,10,,,81,127
37407,note_off,0,0,0,,6,,,54,127
37407,note_off,0,0,0,,2,,,62,127
37407,note_off,0,0,0,,10,,,57,127
37408,note_on,1,0,0,,10,,,57,127
37408,note_on,0,0,0,,2,,,50,127
37408,note_on,0,0,0,,12,,,59,127
37408,note_on,0,0,0,,8,,,80,127
37542,note_off,134,0,0,,8,,,80,127
37543,note_on,1,0,0,,6,,,78,127
37677,note_off,134,0,0,,6,,,78,127
37678,note_on,1,0,0,,4,,,76,127
37812,note_off,134,0,0,,4,,,76,127
37813,note_on,1,0,0,,2,,,74,127
37947,note_off,134,0,0,,2,,,74,127
37947,note_off,0,0,0,,12,,,59,127
37947,note_off,0,0,0,,2,,,50,127
37947,note_off,0,0,0,,10,,,57,127
37948,note_on,1,0,0,,4,,,52,127
37948,note_on,0,0,0,,2,,,74,127
38082,note_off,134,0,0,,2,,,74,127
38083,note_on,1,0,0,,1,,,73,127
38217,note_off,134,0,0,,1,,,73,127
38218,note_on,1,0,0,,12,,,71,127
38352,note_off,134,0,0,,12,,,71,127
38353,note_on,1,0,0,,10,,,69,127
38487,note_off,134,0,0,,10,,,69,127
38487,note_off,0,0,0,,4,,,52,127
38488,note_on,1,0,0,,4,,,40,127
38488,note_on,0,0,0,,1,,,73,127
38554,note_off,66,0,0,,1,,,73,127
38555,note_on,1,0,0,,12,,,71,127
38621,note_off,66,0,0,,12,,,71,127
38622,note_on,1,0,0,,1,,,73,127
38688,note_off,66,0,0,,1,,,73,127
38689,note_on,1,0,0,,12,,,71,127
38755,note_off,66,0,0,,12,,,71,127
38756,note_on,1,0,0,,1,,,73,127
38822,note_off,66,0,0,,1,,,73,127
38823,note_on,1,0,0,,12,,,71,127
38889,note_off,66,0,0,,12,,,71,127
38890,note_on,1,0,0,,10,,,69,127
38956,note_off,66,0,0,,10,,,69,127
38957,note_on,1,0,0,,12,,,71,127
39023,note_off,66,0,0,,12,,,71,127
39023,note_off,0,0,0,,4,,,40,127
39024,note_on,1,0,0,,10,,,33,127
39024,note_on,0,0,0,,10,,,69,127
39836,note_off,812,0,0,,10,,,69,127
40107,note_off,271,0,0,,10,,,33,127
40108,note_on,1,0,0,,10,,,33,127
40108,note_on,0,0,0,,10,,,69,127
40649,note_off,541,0,0,,10,,,33,127
40650,note_on,1,0,0,,10,,,33,127
40784,note_off,134,0,0,,10,,,69,127
40785,note_on,1,0,0,,12,,,71,127
40851,note_off,66,0,0,,12,,,71,127
40852,note_on,1,0,0,,1,,,73,127
40918,note_off,66,0,0,,1,,,73,127
40919,note_on,1,0,0,,2,,,74,127
40985,note_off,66,0,0,,2,,,74,127
40986,note_on,1,0,0,,4,,,76,127
41052,note_off,66,0,0,,4,,,76,127
41053,note_on,1,0,0,,5,,,77,127
41119,note_off,66,0,0,,5,,,77,127
41120,note_on,1,0,0,,7,,,79,127
41186,note_off,66,0,0,,7,,,79,127
41186,note_off,0,0,0,,10,,,33,127
41187,note_on,1,0,0,,10,,,33,127
41187,note_on,0,0,0,,10,,,81,127
41457,note_off,270,0,0,,10,,,81,127
41458,note_on,1,0,0,,11,,,70,127
41458,note_on,0,0,0,,7,,,79,127
41728,note_off,270,0,0,,7,,,79,127
41728,note_off,0,0,0,,11,,,70,127
41728,note_off,0,0,0,,10,,,33,127
41729,note_on,1,0,0,,10,,,33,127
41729,note_on,0,0,0,,10,,,69,127
41729,note_on,0,0,0,,5,,,77,127
41999,note_off,270,0,0,,5,,,77,127
41999,note_off,0,0,0,,10,,,69,127
42000,note_on,1,0,0,,7,,,67,127
42000,note_on,0,0,0,,4,,,76,127
42270,note_off,270,0,0,,4,,,76,127
42270,note_off,0,0,0,,7,,,67,127
42270,note_off,0,0,0,,10,,,33,127
42271,note_on,1,0,0,,10,,,33,127
42271,note_on,0,0,0,,5,,,65,127
42271,note_on,0,0,0,,2,,,74,127
42541,note_off,270,0,0,,2,,,74,127
42541,note_off,0,0,0,,5,,,65,127
42542,note_on,1,0,0,,4,,,64,127
42542,note_on,0,0,0,,0,,,72,127
42812,note_off,270,0,0,,0,,,72,127
42812,note_off,0,0,0,,4,,,64,127
42812,note_off,0,0,0,,10,,,33,127
42813,note_on,1,0,0,,10,,,33,127
42813,note_on,0,0,0,,11,,,70,127
42813,note_on,0,0,0,,2,,,62,127
43083,note_off,270,0,0,,2,,,62,127
43083,note_off,0,0,0,,11,,,70,127
43084,note_on,1,0,0,,0,,,60,127
43084,note_on,0,0,0,,10,,,69,127
43354,note_off,270,0,0,,10,,,69,127
43354,note_off,0,0,0,,0,,,60,127
43354,note_off,0,0,0,,10,,,33,127
43355,note_on,1,0,0,,10,,,33,127
43355,note_on,0,0,0,,11,,,58,127
43355,note_on,0,0,0,,7,,,67,127
43625,note_off,270,0,0,,7,,,67,127
43625,note_off,0,0,0,,11,,,58,127
43626,note_on,1,0,0,,10,,,57,127
43626,note_on,0,0,0,,5,,,65,127
43896,note_off,270,0,0,,5,,,65,127
43896,note_off,0,0,0,,10,,,57,127
43896,note_off,0,0,0,,10,,,33,127
43897,note_on,1,0,0,,10,,,33,127
43897,note_on,0,0,0,,7,,,55,127
43897,note_on,0,0,0,,4,,,64,127
44167,note_off,270,0,0,,4,,,64,127
44167,note_off,0,0,0,,7,,,55,127
44168,note_on,1,0,0,,5,,,53,127
44168,note_on,0,0,0,,2,,,62,127
44438,note_off,270,0,0,,2,,,62,127
44438,note_off,0,0,0,,5,,,53,127
44438,note_off,0,0,0,,10,,,33,127
44439,note_on,1,0,0,,10,,,33,127
44439,note_on,0,0,0,,4,,,52,127
44439,note_on,0,0,0,,2,,,62,127
44709,note_off,270,0,0,,2,,,62,127
44710,note_on,1,0,0,,12,,,59,127
44980,note_off,270,0,0,,12,,,59,127
44980,note_off,0,0,0,,4,,,52,127
44980,note_off,0,0,0,,10,,,33,127
44981,note_on,1,0,0,,10,,,45,127
44981,note_on,0,0,0,,1,,,61,127
45115,note_off,134,0,0,,10,,,45,127
45116,note_on,1,0,0,,12,,,47,127
45182,note_off,66,0,0,,12,,,47,127
45183,note_on,1,0,0,,1,,,49,127
45249,note_off,66,0,0,,1,,,49,127
45250,note_on,1,0,0,,2,,,50,127
45316,note_off,66,0,0,,2,,,50,127
45317,note_on,1,0,0,,4,,,52,127
45383,note_off,66,0,0,,4,,,52,127
45384,note_on,1,0,0,,6,,,54,127
45450,note_off,66,0,0,,6,,,54,127
45451,note_on,1,0,0,,7,,,55,127
45517,note_off,66,0,0,,7,,,55,127
45518,note_on,1,0,0,,10,,,57,127
46059,note_off,541,0,0,,10,,,57,127
46060,note_on,1,0,0,,10,,,57,127
46126,note_off,66,0,0,,10,,,57,127
46127,note_on,1,0,0,,7,,,55,127
46193,note_off,66,0,0,,7,,,55,127
46194,note_on,1,0,0,,10,,,57,127
46260,note_off,66,0,0,,10,,,57,127
46261,note_on,1,0,0,,7,,,55,127
46327,note_off,66,0,0,,7,,,55,127
46328,note_off,1,0,0,,1,,,61,127
46328,note_on,0,0,0,,10,,,57,127
46394,note_off,66,0,0,,10,,,57,127
46395,note_on,1,0,0,,7,,,55,127
46461,note_off,66,0,0,,7,,,55,127
46462,note_on,1,0,0,,6,,,54,127
46528,note_off,66,0,0,,6,,,54,127
46529,note_on,1,0,0,,7,,,55,127
46595,note_off,66,0,0,,7,,,55,127
46596,note_on,1,0,0,,6,,,54,127
46596,note_on,0,0,0,,2,,,62,127
47137,note_off,541,0,0,,6,,,54,127
47138,note_on,1,0,0,,6,,,54,127
47272,note_off,134,0,0,,2,,,62,127
47273,note_on,1,0,0,,4,,,64,127
47339,note_off,66,0,0,,4,,,64,127
47340,note_on,1,0,0,,6,,,66,127
47406,note_off,66,0,0,,6,,,66,127
47407,note_on,1,0,0,,7,,,67,127
47473,note_off,66,0,0,,7,,,67,127
47474,note_on,1,0,0,,10,,,69,127
47540,note_off,66,0,0,,10,,,69,127
47541,note_on,1,0,0,,12,,,71,127
47607,note_off,66,0,0,,12,,,71,127
47608,note_on,1,0,0,,1,,,73,127
47674,note_off,66,0,0,,1,,,73,127
47674,note_off,0,0,0,,6,,,54,127
47675,note_on,1,0,0,,2,,,62,127
47675,note_on,0,0,0,,5,,,53,127
47675,note_on,0,0,0,,4,,,76,127
47809,note_off,134,0,0,,4,,,76,127
47810,note_on,1,0,0,,2,,,74,127
47944,note_off,134,0,0,,2,,,74,127
47945,note_on,1,0,0,,0,,,72,127
48215,note_off,270,0,0,,0,,,72,127
48215,note_off,0,0,0,,5,,,53,127
48215,note_off,0,0,0,,2,,,62,127
48216,note_on,1,0,0,,2,,,62,127
48216,note_on,0,0,0,,5,,,53,127
48216,note_on,0,0,0,,2,,,74,127
48350,note_off,134,0,0,,2,,,74,127
48351,note_on,1,0,0,,0,,,72,127
48485,note_off,134,0,0,,0,,,72,127
48486,note_on,1,0,0,,12,,,71,127
48756,note_off,270,0,0,,12,,,71,127
48756,note_off,0,0,0,,5,,,53,127
48756,note_off,0,0,0,,2,,,62,127
48757,note_on,1,0,0,,4,,,52,127
48757,note_on,0,0,0,,0,,,60,127
48757,note_on,0,0,0,,0,,,72,127
48997,note_off,240,0,0,,0,,,72,127
49028,note_on,31,0,0,,5,,,77,127
49162,note_off,134,0,0,,5,,,77,127
49163,note_on,1,0,0,,4,,,76,127
49297,note_off,134,0,0,,0,,,60,127
49297,note_off,0,0,0,,4,,,52,127
49298,note_on,1,0,0,,0,,,60,127
49298,note_on,0,0,0,,4,,,52,127
49703,note_off,405,0,0,,4,,,76,127
49704,note_on,1,0,0,,2,,,74,127
49770,note_off,66,0,0,,2,,,74,127
49771,note_on,1,0,0,,0,,,72,127
49837,note_off,66,0,0,,0,,,72,127
49837,note_off,0,0,0,,4,,,52,127
49837,note_off,0,0,0,,0,,,60,127
49838,note_on,1,0,0,,2,,,50,127
49838,note_on,0,0,0,,11,,,58,127
49838,note_on,0,0,0,,11,,,70,127
50088,note_off,250,0,0,,11,,,70,127
50109,note_on,21,0,0,,4,,,76,127
50243,note_off,134,0,0,,4,,,76,127
50244,note_on,1,0,0,,2,,,74,127
50378,note_off,134,0,0,,11,,,58,127
50378,note_off,0,0,0,,2,,,50,127
50379,note_on,1,0,0,,2,,,50,127
50379,note_on,0,0,0,,11,,,58,127
50784,note_off,405,0,0,,2,,,74,127
50785,note_on,1,0,0,,0,,,72,127
50851,note_off,66,0,0,,0,,,72,127
50852,note_on,1,0,0,,11,,,70,127
50918,note_off,66,0,0,,11,,,70,127
50918,note_off,0,0,0,,11,,,58,127
50918,note_off,0,0,0,,2,,,50,127
50919,note_on,1,0,0,,1,,,49,127
50919,note_on,0,0,0,,10,,,57,127
50919,note_on,0,0,0,,10,,,69,127
51190,note_on,271,0,0,,10,,,81,127
51326,note_off,136,0,0,,10,,,69,127
51460,note_off,134,0,0,,10,,,57,127
51460,note_off,0,0,0,,1,,,49,127
51461,note_on,1,0,0,,10,,,57,127
51461,note_on,0,0,0,,2,,,50,127
51731,note_off,270,0,0,,10,,,81,127
51732,note_on,1,0,0,,7,,,79,127
51866,note_off,134,0,0,,7,,,79,127
51867,note_on,1,0,0,,5,,,77,127
52001,note_off,134,0,0,,2,,,50,127
52002,note_on,1,0,0,,11,,,46,127
52272,note_off,270,0,0,,5,,,77,127
52273,note_on,1,0,0,,4,,,76,127
52407,note_off,134,0,0,,4,,,76,127
52408,note_on,1,0,0,,7,,,79,127
52542,note_off,134,0,0,,7,,,79,127
52542,note_off,0,0,0,,10,,,57,127
52543,note_on,1,0,0,,7,,,55,127
52543,note_on,0,0,0,,5,,,77,127
52677,note_off,134,0,0,,5,,,77,127
52678,note_on,1,0,0,,4,,,76,127
52812,note_off,134,0,0,,4,,,76,127
52813,note_on,1,0,0,,2,,,74,127
53083,note_off,270,0,0,,2,,,74,127
53083,note_off,0,0,0,,7,,,55,127
53083,note_off,0,0,0,,11,,,46,127
53084,note_on,1,0,0,,10,,,57,127
53084,note_on,0,0,0,,10,,,45,127
53084,note_on,0,0,0,,2,,,74,127
53150,note_off,66,0,0,,2,,,74,127
53151,note_on,1,0,0,,1,,,73,127
53217,note_off,66,0,0,,1,,,73,127
53218,note_on,1,0,0,,2,,,74,127
53284,note_off,66,0,0,,2,,,74,127
53285,note_on,1,0,0,,1,,,73,127
53419,note_off,134,0,0,,1,,,73,127
53420,note_on,1,0,0,,12,,,71,127
53486,note_off,66,0,0,,12,,,71,127
53487,note_on,1,0,0,,1,,,73,127
53553,note_off,66,0,0,,1,,,73,127
53554,note_on,1,0,0,,2,,,74,127
53620,note_off,66,0,0,,2,,,74,127
53620,note_off,0,0,0,,10,,,45,127
53620,note_off,0,0,0,,10,,,57,127
53621,note_on,1,0,0,,6,,,66,127
53621,note_on,0,0,0,,4,,,76,127
53687,note_off,66,0,0,,6,,,66,127
53688,note_on,1,0,0,,4,,,64,127
53754,note_off,66,0,0,,4,,,64,127
53755,note_on,1,0,0,,6,,,66,127
53821,note_off,66,0,0,,6,,,66,127
53822,note_on,1,0,0,,4,,,64,127
53956,note_off,134,0,0,,4,,,64,127
53957,note_on,1,0,0,,2,,,62,127
54023,note_off,66,0,0,,2,,,62,127
54024,note_on,1,0,0,,4,,,64,127
54090,note_off,66,0,0,,4,,,64,127
54091,note_on,1,0,0,,6,,,66,127
54157,note_off,66,0,0,,6,,,66,127
54157,note_off,0,0,0,,4,,,76,127
54158,note_on,1,0,0,,7,,,67,127
54158,note_on,0,0,0,,6,,,78,127
54224,note_off,66,0,0,,6,,,78,127
54225,note_on,1,0,0,,4,,,76,127
54291,note_off,66,0,0,,4,,,76,127
54292,note_on,1,0,0,,6,,,78,127
54358,note_off,66,0,0,,6,,,78,127
54359,note_on,1,0,0,,4,,,76,127
54493,note_off,134,0,0,,4,,,76,127
54494,note_on,1,0,0,,2,,,74,127
54560,note_off,66,0,0,,2,,,74,127
54561,note_on,1,0,0,,4,,,76,127
54627,note_off,66,0,0,,4,,,76,127
54628,note_on,1,0,0,,6,,,78,127
54694,note_off,66,0,0,,6,,,78,127
54694,note_off,0,0,0,,7,,,67,127
54695,note_on,1,0,0,,2,,,62,127
54695,note_on,0,0,0,,7,,,79,127
54761,note_off,66,0,0,,2,,,62,127
54762,note_on,1,0,0,,1,,,61,127
54828,note_off,66,0,0,,1,,,61,127
54829,note_on,1,0,0,,2,,,62,127
54895,note_off,66,0,0,,2,,,62,127
54896,note_on,1,0,0,,1,,,61,127
55030,note_off,134,0,0,,1,,,61,127
55031,note_on,1,0,0,,12,,,59,127
55097,note_off,66,0,0,,12,,,59,127
55098,note_on,1,0,0,,1,,,61,127
55164,note_off,66,0,0,,1,,,61,127
55165,note_on,1,0,0,,2,,,62,127
55231,note_off,66,0,0,,2,,,62,127
55231,note_off,0,0,0,,7,,,79,127
55232,note_on,1,0,0,,4,,,64,127
55232,note_on,0,0,0,,10,,,81,127
55298,note_off,66,0,0,,10,,,81,127
55299,note_on,1,0,0,,7,,,79,127
55365,note_off,66,0,0,,7,,,79,127
55366,note_on,1,0,0,,10,,,81,127
55432,note_off,66,0,0,,10,,,81,127
55433,note_on,1,0,0,,7,,,79,127
55567,note_off,134,0,0,,7,,,79,127
55568,note_on,1,0,0,,6,,,78,127
55634,note_off,66,0,0,,6,,,78,127
55635,note_on,1,0,0,,7,,,79,127
55701,note_off,66,0,0,,7,,,79,127
55702,note_on,1,0,0,,10,,,81,127
55768,note_off,66,0,0,,10,,,81,127
55768,note_off,0,0,0,,4,,,64,127
55769,note_on,1,0,0,,10,,,57,127
55769,note_on,0,0,0,,12,,,83,127
55835,note_off,66,0,0,,10,,,57,127
55836,note_on,1,0,0,,7,,,55,127
55902,note_off,66,0,0,,7,,,55,127
55903,note_on,1,0,0,,10,,,57,127
55969,note_off,66,0,0,,10,,,57,127
55970,note_on,1,0,0,,7,,,55,127
56036,note_off,66,0,0,,7,,,55,127
56037,note_on,1,0,0,,6,,,54,127
56103,note_off,66,0,0,,6,,,54,127
56104,note_on,1,0,0,,7,,,55,127
56170,note_off,66,0,0,,7,,,55,127
56171,note_on,1,0,0,,10,,,57,127
56237,note_off,66,0,0,,10,,,57,127
56238,note_on,1,0,0,,12,,,59,127
56304,note_off,66,0,0,,12,,,59,127
56305,note_on,1,0,0,,1,,,61,127
56575,note_off,270,0,0,,12,,,83,127
56576,note_on,1,0,0,,10,,,81,127
56846,note_off,270,0,0,,10,,,81,127
56846,note_off,0,0,0,,1,,,61,127
56847,note_on,1,0,0,,10,,,57,127
56847,note_on,0,0,0,,12,,,83,127
56981,note_off,134,0,0,,12,,,83,127
56982,note_on,1,0,0,,10,,,81,127
57116,note_off,134,0,0,,10,,,81,127
57117,note_on,1,0,0,,7,,,79,127
57387,note_off,270,0,0,,7,,,79,127
57387,note_off,0,0,0,,10,,,57,127
57388,note_on,1,0,0,,2,,,62,127
57388,note_on,0,0,0,,2,,,50,127
57388,note_on,0,0,0,,10,,,81,127
57522,note_off,134,0,0,,10,,,81,127
57523,note_on,1,0,0,,7,,,79,127
57657,note_off,134,0,0,,7,,,79,127
57658,note_on,1,0,0,,6,,,78,127
57928,note_off,270,0,0,,6,,,78,127
57928,note_off,0,0,0,,2,,,50,127
57928,note_off,0,0,0,,2,,,62,127
57929,note_on,1,0,0,,7,,,55,127
57929,note_on,0,0,0,,2,,,62,127
57929,note_on,0,0,0,,4,,,64,127
57929,note_on,0,0,0,,7,,,79,127
58063,note_off,134,0,0,,7,,,79,127
58064,note_on,1,0,0,,6,,,78,127
58198,note_off,134,0,0,,6,,,78,127
58199,note_on,1,0,0,,4,,,76,127
58469,note_off,270,0,0,,4,,,76,127
58469,note_off,0,0,0,,4,,,64,127
58469,note_off,0,0,0,,2,,,62,127
58469,note_off,0,0,0,,7,,,55,127
58470,note_on,1,0,0,,10,,,57,127
58470,note_on,0,0,0,,2,,,62,127
58470,note_on,0,0,0,,6,,,66,127
58470,note_on,0,0,0,,6,,,78,127
58604,note_off,134,0,0,,6,,,78,127
58605,note_on,1,0,0,,4,,,76,127
58739,note_off,134,0,0,,4,,,76,127
58740,note_on,1,0,0,,2,,,74,127
59010,note_off,270,0,0,,2,,,74,127
59010,note_off,0,0,0,,6,,,66,127
59010,note_off,0,0,0,,2,,,62,127
59010,note_off,0,0,0,,10,,,57,127
59011,note_on,1,0,0,,4,,,64,127
59011,note_on,0,0,0,,10,,,57,127
59011,note_on,0,0,0,,2,,,62,127
59011,note_on,0,0,0,,4,,,76,127
59145,note_off,134,0,0,,4,,,76,127
59146,note_on,1,0,0,,2,,,74,127
59280,note_off,134,0,0,,2,,,74,127
59281,note_on,1,0,0,,1,,,73,127
59551,note_off,270,0,0,,1,,,73,127
59551,note_off,0,0,0,,2,,,62,127
59551,note_off,0,0,0,,10,,,57,127
59551,note_off,0,0,0,,4,,,64,127
59552,note_on,1,0,0,,2,,,62,127
59552,note_on,0,0,0,,4,,,76,127
59611,note_on,59,0,0,,2,,,74,127
59618,note_off,7,0,0,,4,,,76,127
59672,note_on,54,0,0,,4,,,76,127
59678,note_off,6,0,0,,2,,,74,127
59733,note_on,55,0,0,,2,,,74,127
59739,note_off,6,0,0,,4,,,76,127
59794,note_on,55,0,0,,4,,,76,127
59800,note_off,6,0,0,,2,,,74,127
59824,note_on,24,0,0,,0,,,72,127
59855,note_on,31,0,0,,2,,,74,127
59861,note_off,6,0,0,,4,,,76,127
59916,note_on,55,0,0,,4,,,76,127
59922,note_off,6,0,0,,2,,,74,127
59977,note_on,55,0,0,,2,,,74,127
59983,note_off,6,0,0,,4,,,76,127
60037,note_on,54,0,0,,4,,,76,127
60044,note_off,7,0,0,,2,,,74,127
60095,note_off,51,0,0,,0,,,72,127
60096,note_on,1,0,0,,11,,,70,127
60097,note_on,1,0,0,,2,,,74,127
60103,note_off,6,0,0,,4,,,76,127
60158,note_on,55,0,0,,4,,,76,127
60164,note_off,6,0,0,,2,,,74,127
60219,note_on,55,0,0,,2,,,74,127
60225,note_off,6,0,0,,4,,,76,127
60280,note_on,55,0,0,,4,,,76,127
60286,note_off,6,0,0,,2,,,74,127
60341,note_on,55,0,0,,2,,,74,127
60347,note_off,6,0,0,,4,,,76,127
60367,note_off,20,0,0,,11,,,70,127
60368,note_on,1,0,0,,10,,,69,127
60402,note_on,34,0,0,,4,,,76,127
60408,note_off,6,0,0,,2,,,74,127
60462,note_on,54,0,0,,2,,,74,127
60469,note_off,7,0,0,,4,,,76,127
60523,note_on,54,0,0,,4,,,76,127
60529,note_off,6,0,0,,2,,,74,127
60584,note_on,55,0,0,,2,,,74,127
60590,note_off,6,0,0,,4,,,76,127
60639,note_off,49,0,0,,10,,,69,127
60640,note_on,1,0,0,,7,,,67,127
60644,note_on,4,0,0,,4,,,76,127
60650,note_off,6,0,0,,2,,,74,127
60705,note_on,55,0,0,,2,,,74,127
60711,note_off,6,0,0,,4,,,76,127
60766,note_on,55,0,0,,4,,,76,127
60772,note_off,6,0,0,,2,,,74,127
60827,note_on,55,0,0,,2,,,74,127
60833,note_off,6,0,0,,4,,,76,127
60887,note_on,54,0,0,,4,,,76,127
60894,note_off,7,0,0,,2,,,74,127
60911,note_off,17,0,0,,7,,,67,127
60912,note_on,1,0,0,,11,,,70,127
60947,note_on,35,0,0,,2,,,74,127
60953,note_off,6,0,0,,4,,,76,127
61008,note_on,55,0,0,,4,,,76,127
61014,note_off,6,0,0,,2,,,74,127
61069,note_on,55,0,0,,2,,,74,127
61075,note_off,6,0,0,,4,,,76,127
61130,note_on,55,0,0,,4,,,76,127
61136,note_off,6,0,0,,2,,,74,127
61183,note_off,47,0,0,,11,,,70,127
61184,note_on,1,0,0,,10,,,69,127
61191,note_on,7,0,0,,2,,,74,127
61197,note_off,6,0,0,,4,,,76,127
61252,note_on,55,0,0,,4,,,76,127
61258,note_off,6,0,0,,2,,,74,127
61312,note_on,54,0,0,,2,,,74,127
61319,note_off,7,0,0,,4,,,76,127
61373,note_on,54,0,0,,4,,,76,127
61379,note_off,6,0,0,,2,,,74,127
61434,note_on,55,0,0,,2,,,74,127
61440,note_off,6,0,0,,4,,,76,127
61456,note_off,16,0,0,,10,,,69,127
61457,note_on,1,0,0,,7,,,67,127
61494,note_on,37,0,0,,4,,,76,127
61501,note_off,7,0,0,,2,,,74,127
61553,note_on,52,0,0,,2,,,74,127
61560,note_off,7,0,0,,4,,,76,127
61727,note_off,167,0,0,,7,,,67,127
61727,note_off,0,0,0,,2,,,62,127
61728,note_on,1,0,0,,10,,,69,127
61728,note_on,0,0,0,,5,,,65,127
61728,note_on,0,0,0,,10,,,81,127
61998,note_off,270,0,0,,10,,,81,127
61998,note_off,0,0,0,,5,,,65,127
61999,note_on,1,0,0,,4,,,64,127
61999,note_on,0,0,0,,7,,,79,127
62094,note_off,95,0,0,,2,,,74,127
62269,note_off,175,0,0,,7,,,79,127
62269,note_off,0,0,0,,4,,,64,127
62270,note_on,1,0,0,,2,,,62,127
62270,note_on,0,0,0,,7,,,79,127
62270,note_on,0,0,0,,10,,,81,127
62404,note_off,134,0,0,,10,,,81,127
62404,note_off,0,0,0,,7,,,79,127
62405,note_on,1,0,0,,5,,,77,127
62539,note_off,134,0,0,,5,,,77,127
62539,note_off,0,0,0,,2,,,62,127
62540,note_on,1,0,0,,0,,,60,127
62540,note_on,0,0,0,,4,,,76,127
62810,note_off,270,0,0,,4,,,76,127
62810,note_off,0,0,0,,0,,,60,127
62811,note_on,1,0,0,,11,,,58,127
62811,note_on,0,0,0,,10,,,81,127
62811,note_on,0,0,0,,2,,,74,127
62945,note_off,134,0,0,,10,,,81,127
62946,note_on,1,0,0,,7,,,79,127
63080,note_off,134,0,0,,7,,,79,127
63081,note_on,1,0,0,,5,,,77,127
63351,note_off,270,0,0,,5,,,77,127
63351,note_off,0,0,0,,2,,,74,127
63352,note_off,1,0,0,,10,,,69,127
63352,note_on,0,0,0,,7,,,67,127
63352,note_on,0,0,0,,4,,,76,127
63622,note_off,270,0,0,,4,,,76,127
63623,note_on,1,0,0,,2,,,74,127
63893,note_off,270,0,0,,2,,,74,127
63893,note_off,0,0,0,,7,,,67,127
63893,note_off,0,0,0,,11,,,58,127
63894,note_on,1,0,0,,10,,,57,127
63894,note_on,0,0,0,,10,,,69,127
63894,note_on,0,0,0,,2,,,74,127
63960,note_off,66,0,0,,2,,,74,127
63961,note_on,1,0,0,,1,,,73,127
64027,note_off,66,0,0,,1,,,73,127
64028,note_on,1,0,0,,2,,,74,127
64094,note_off,66,0,0,,2,,,74,127
64095,note_on,1,0,0,,1,,,73,127
64229,note_off,134,0,0,,1,,,73,127
64230,note_on,1,0,0,,12,,,71,127
64296,note_off,66,0,0,,12,,,71,127
64297,note_on,1,0,0,,1,,,73,127
64363,note_off,66,0,0,,1,,,73,127
64364,note_on,1,0,0,,2,,,74,127
64430,note_off,66,0,0,,2,,,74,127
64430,note_off,0,0,0,,10,,,69,127
64430,note_off,0,0,0,,10,,,57,127
64431,note_on,1,0,0,,6,,,66,127
64431,note_on,0,0,0,,4,,,76,127
64497,note_off,66,0,0,,6,,,66,127
64498,note_on,1,0,0,,4,,,64,127
64564,note_off,66,0,0,,4,,,64,127
64565,note_on,1,0,0,,6,,,66,127
64631,note_off,66,0,0,,6,,,66,127
64632,note_on,1,0,0,,4,,,64,127
64766,note_off,134,0,0,,4,,,64,127
64767,note_on,1,0,0,,2,,,62,127
64833,note_off,66,0,0,,2,,,62,127
64834,note_on,1,0,0,,4,,,64,127
64900,note_off,66,0,0,,4,,,64,127
64901,note_on,1,0,0,,6,,,66,127
64967,note_off,66,0,0,,6,,,66,127
64967,note_off,0,0,0,,4,,,76,127
64968,note_on,1,0,0,,7,,,67,127
64968,note_on,0,0,0,,6,,,78,127
65034,note_off,66,0,0,,6,,,78,127
65035,note_on,1,0,0,,4,,,76,127
65101,note_off,66,0,0,,4,,,76,127
65102,note_on,1,0,0,,6,,,78,127
65168,note_off,66,0,0,,6,,,78,127
65169,note_on,1,0,0,,4,,,76,127
65303,note_off,134,0,0,,4,,,76,127
65304,note_on,1,0,0,,2,,,74,127
65370,note_off,66,0,0,,2,,,74,127
65371,note_on,1,0,0,,4,,,76,127
65437,note_off,66,0,0,,4,,,76,127
65438,note_on,1,0,0,,6,,,78,127
65504,note_off,66,0,0,,6,,,78,127
65504,note_off,0,0,0,,7,,,67,127
65505,note_on,1,0,0,,2,,,62,127
65505,note_on,0,0,0,,7,,,79,127
65571,note_off,66,0,0,,2,,,62,127
65572,note_on,1,0,0,,1,,,61,127
65638,note_off,66,0,0,,1,,,61,127
65639,note_on,1,0,0,,2,,,62,127
65705,note_off,66,0,0,,2,,,62,127
65706,note_on,1,0,0,,1,,,61,127
65840,note_off,134,0,0,,1,,,61,127
65841,note_on,1,0,0,,12,,,59,127
65907,note_off,66,0,0,,12,,,59,127
65908,note_on,1,0,0,,1,,,61,127
65974,note_off,66,0,0,,1,,,61,127
65975,note_on,1,0,0,,2,,,62,127
66041,note_off,66,0,0,,2,,,62,127
66041,note_off,0,0,0,,7,,,79,127
66042,note_on,1,0,0,,4,,,64,127
66042,note_on,0,0,0,,10,,,81,127
66108,note_off,66,0,0,,10,,,81,127
66109,note_on,1,0,0,,7,,,79,127
66175,note_off,66,0,0,,7,,,79,127
66176,note_on,1,0,0,,10,,,81,127
66242,note_off,66,0,0,,10,,,81,127
66243,note_on,1,0,0,,7,,,79,127
66377,note_off,134,0,0,,7,,,79,127
66378,note_on,1,0,0,,6,,,78,127
66444,note_off,66,0,0,,6,,,78,127
66445,note_on,1,0,0,,7,,,79,127
66511,note_off,66,0,0,,7,,,79,127
66512,note_on,1,0,0,,10,,,81,127
66578,note_off,66,0,0,,10,,,81,127
66578,note_off,0,0,0,,4,,,64,127
66579,note_on,1,0,0,,10,,,57,127
66579,note_on,0,0,0,,12,,,83,127
66645,note_off,66,0,0,,10,,,57,127
66646,note_on,1,0,0,,7,,,55,127
66712,note_off,66,0,0,,7,,,55,127
66713,note_on,1,0,0,,10,,,57,127
66779,note_off,66,0,0,,10,,,57,127
66780,note_on,1,0,0,,7,,,55,127
66846,note_off,66,0,0,,7,,,55,127
66847,note_on,1,0,0,,6,,,54,127
66913,note_off,66,0,0,,6,,,54,127
66914,note_on,1,0,0,,7,,,55,127
66980,note_off,66,0,0,,7,,,55,127
66981,note_on,1,0,0,,10,,,57,127
67047,note_off,66,0,0,,10,,,57,127
67048,note_on,1,0,0,,12,,,59,127
67114,note_off,66,0,0,,12,,,59,127
67115,note_on,1,0,0,,1,,,61,127
67385,note_off,270,0,0,,12,,,83,127
67386,note_on,1,0,0,,10,,,81,127
67656,note_off,270,0,0,,10,,,81,127
67656,note_off,0,0,0,,1,,,61,127
67657,note_on,1,0,0,,10,,,57,127
67657,note_on,0,0,0,,12,,,83,127
67791,note_off,134,0,0,,12,,,83,127
67792,note_on,1,0,0,,10,,,81,127
67926,note_off,134,0,0,,10,,,81,127
67927,note_on,1,0,0,,7,,,79,127
68197,note_off,270,0,0,,7,,,79,127
68197,note_off,0,0,0,,10,,,57,127
68198,note_on,1,0,0,,2,,,62,127
68198,note_on,0,0,0,,2,,,50,127
68198,note_on,0,0,0,,10,,,81,127
68332,note_off,134,0,0,,10,,,81,127
68333,note_on,1,0,0,,7,,,79,127
68467,note_off,134,0,0,,7,,,79,127
68468,note_on,1,0,0,,6,,,78,127
68738,note_off,270,0,0,,6,,,78,127
68738,note_off,0,0,0,,2,,,50,127
68738,note_off,0,0,0,,2,,,62,127
68739,note_on,1,0,0,,2,,,62,127
68739,note_on,0,0,0,,4,,,64,127
68739,note_on,0,0,0,,7,,,55,127
68739,note_on,0,0,0,,7,,,79,127
68873,note_off,134,0,0,,7,,,79,127
68874,note_on,1,0,0,,6,,,78,127
69008,note_off,134,0,0,,6,,,78,127
69009,note_on,1,0,0,,4,,,76,127
69279,note_off,270,0,0,,4,,,76,127
69279,note_off,0,0,0,,7,,,55,127
69279,note_off,0,0,0,,4,,,64,127
69279,note_off,0,0,0,,2,,,62,127
69280,note_on,1,0,0,,2,,,62,127
69280,note_on,0,0,0,,6,,,66,127
69280,note_on,0,0,0,,10,,,57,127
69280,note_on,0,0,0,,6,,,78,127
69414,note_off,134,0,0,,6,,,78,127
69415,note_on,1,0,0,,4,,,76,127
69549,note_off,134,0,0,,4,,,76,127
69550,note_on,1,0,0,,2,,,74,127
69820,note_off,270,0,0,,2,,,74,127
69820,note_off,0,0,0,,10,,,57,127
69820,note_off,0,0,0,,6,,,66,127
69820,note_off,0,0,0,,2,,,62,127
69821,note_on,1,0,0,,2,,,62,127
69821,note_on,0,0,0,,4,,,64,127
69821,note_on,0,0,0,,10,,,57,127
69821,note_on,0,0,0,,4,,,76,127
69955,note_off,134,0,0,,4,,,76,127
69956,note_on,1,0,0,,2,,,74,127
70090,note_off,134,0,0,,2,,,74,127
70091,note_on,1,0,0,,1,,,73,127
70361,note_off,270,0,0,,1,,,73,127
70361,note_off,0,0,0,,10,,,57,127
70361,note_off,0,0,0,,4,,,64,127
70361,note_off,0,0,0,,2,,,62,127
70362,note_on,1,0,0,,2,,,62,127
70362,note_on,0,0,0,,7,,,67,127
70362,note_on,0,0,0,,12,,,59,127
70362,note_on,0,0,0,,2,,,74,127
70633,note_on,271,0,0,,2,,,86,127
70898,note_off,265,0,0,,2,,,74,127
70902,note_off,4,0,0,,2,,,86,127
70902,note_off,0,0,0,,12,,,59,127
70902,note_off,0,0,0,,7,,,67,127
70902,note_off,0,0,0,,2,,,62,127
70903,note_on,1,0,0,,4,,,64,127
70903,note_on,0,0,0,,2,,,62,127
70903,note_on,0,0,0,,7,,,55,127
70903,note_on,0,0,0,,1,,,85,127
71037,note_off,134,0,0,,1,,,85,127
71038,note_on,1,0,0,,12,,,83,127
71172,note_off,134,0,0,,12,,,83,127
71173,note_on,1,0,0,,10,,,81,127
71307,note_off,134,0,0,,10,,,81,127
71308,note_on,1,0,0,,7,,,79,127
71442,note_off,134,0,0,,7,,,79,127
71442,note_off,0,0,0,,7,,,55,127
71442,note_off,0,0,0,,2,,,62,127
71442,note_off,0,0,0,,4,,,64,127
71443,note_on,1,0,0,,10,,,57,127
71443,note_on,0,0,0,,7,,,79,127
71577,note_off,134,0,0,,7,,,79,127
71578,note_on,1,0,0,,6,,,78,127
71712,note_off,134,0,0,,6,,,78,127
71713,note_on,1,0,0,,4,,,76,127
71847,note_off,134,0,0,,4,,,76,127
71848,note_on,1,0,0,,2,,,74,127
71982,note_off,134,0,0,,2,,,74,127
71982,note_off,0,0,0,,10,,,57,127
71983,note_on,1,0,0,,10,,,45,127
71983,note_on,0,0,0,,6,,,78,127
72049,note_off,66,0,0,,6,,,78,127
72050,note_on,1,0,0,,4,,,76,127
72116,note_off,66,0,0,,4,,,76,127
72117,note_on,1,0,0,,6,,,78,127
72183,note_off,66,0,0,,6,,,78,127
72184,note_on,1,0,0,,4,,,76,127
72250,note_off,66,0,0,,4,,,76,127
72251,note_on,1,0,0,,6,,,78,127
72317,note_off,66,0,0,,6,,,78,127
72318,note_on,1,0,0,,4,,,76,127
72384,note_off,66,0,0,,4,,,76,127
72385,note_on,1,0,0,,2,,,74,127
72451,note_off,66,0,0,,2,,,74,127
72452,note_on,1,0,0,,4,,,76,127
72518,note_off,66,0,0,,4,,,76,127
72518,note_off,0,0,0,,10,,,45,127
72536,note_on,18,0,0,,2,,,38,127
72536,note_on,0,0,0,,2,,,74,127
74702,note_off,2166,0,0,,2,,,74,127
74702,note_off,0,0,0,,2,,,38,127
75264,end_of_track,562,1,0,,,,,,
