tick,type,time,meta,track,program,channel,pitch,tempo,note,velocity
0,copyright,0,1,0,,,,,,
0,program_change,0,0,0,6,0,,,,
0,pitchwheel,0,0,0,,0,0,,,
0,program_change,0,0,0,6,1,,,,
0,pitchwheel,0,0,0,,1,-590,,,
0,program_change,0,0,0,6,2,,,,
0,pitchwheel,0,0,0,,2,-272,,,
0,program_change,0,0,0,6,3,,,,
0,pitchwheel,0,0,0,,3,-353,,,
0,program_change,0,0,0,6,4,,,,
0,pitchwheel,0,0,0,,4,-560,,,
0,program_change,0,0,0,6,5,,,,
0,pitchwheel,0,0,0,,5,-80,,,
0,program_change,0,0,0,6,6,,,,
0,pitchwheel,0,0,0,,6,-625,,,
0,program_change,0,0,0,6,7,,,,
0,pitchwheel,0,0,0,,7,-130,,,
0,program_change,0,0,0,6,8,,,,
0,pitchwheel,0,0,0,,8,-512,,,
0,program_change,0,0,0,6,10,,,,
0,pitchwheel,0,0,0,,10,-464,,,
0,program_change,0,0,0,6,11,,,,
0,pitchwheel,0,0,0,,11,-208,,,
0,program_change,0,0,0,6,12,,,,
0,pitchwheel,0,0,0,,12,-553,,,
0,set_tempo,0,1,0,,,,500000,,
89,note_on,89,0,0,,2,,,62,127
167,note_off,78,0,0,,2,,,62,127
177,note_on,10,0,0,,6,,,66,127
255,note_off,78,0,0,,6,,,66,127
265,note_on,10,0,0,,10,,,69,127
343,note_off,78,0,0,,10,,,69,127
353,note_on,10,0,0,,2,,,74,127
431,note_off,78,0,0,,2,,,74,127
441,note_on,10,0,0,,10,,,81,127
618,note_on,177,0,0,,10,,,69,127
792,note_off,174,0,0,,10,,,81,127
795,note_off,3,0,0,,10,,,69,127
796,note_on,1,0,0,,12,,,71,127
796,note_on,0,0,0,,7,,,79,127
972,note_off,176,0,0,,12,,,71,127
973,note_on,1,0,0,,1,,,73,127
1147,note_off,174,0,0,,7,,,79,127
1150,note_off,3,0,0,,1,,,73,127
1151,note_on,1,0,0,,2,,,50,127
1151,note_on,0,0,0,,6,,,78,127
1151,note_on,0,0,0,,2,,,74,127
1229,note_off,78,0,0,,2,,,50,127
1239,note_on,10,0,0,,6,,,54,127
1317,note_off,78,0,0,,6,,,54,127
1327,note_on,10,0,0,,10,,,57,127
1405,note_off,78,0,0,,10,,,57,127
1415,note_on,10,0,0,,2,,,62,127
1493,note_off,78,0,0,,2,,,62,127
1499,note_off,6,0,0,,2,,,74,127
1499,note_off,0,0,0,,6,,,78,127
1503,note_on,4,0,0,,10,,,69,127
1680,note_on,177,0,0,,10,,,57,127
1854,note_off,174,0,0,,10,,,69,127
1857,note_off,3,0,0,,10,,,57,127
1858,note_on,1,0,0,,7,,,67,127
1858,note_on,0,0,0,,12,,,59,127
2034,note_off,176,0,0,,12,,,59,127
2035,note_on,1,0,0,,1,,,61,127
2209,note_off,174,0,0,,7,,,67,127
2212,note_off,3,0,0,,1,,,61,127
2213,note_on,1,0,0,,6,,,66,127
2213,note_on,0,0,0,,2,,,62,127
2213,note_on,0,0,0,,6,,,78,127
2291,note_off,78,0,0,,6,,,78,127
2301,note_on,10,0,0,,7,,,79,127
2379,note_off,78,0,0,,7,,,79,127
2389,note_on,10,0,0,,10,,,81,127
2467,note_off,78,0,0,,10,,,81,127
2477,note_on,10,0,0,,2,,,74,127
2555,note_off,78,0,0,,2,,,74,127
2564,note_off,9,0,0,,2,,,62,127
2564,note_off,0,0,0,,6,,,66,127
2565,note_on,1,0,0,,7,,,55,127
2565,note_on,0,0,0,,4,,,76,127
2643,note_off,78,0,0,,4,,,76,127
2653,note_on,10,0,0,,6,,,78,127
2731,note_off,78,0,0,,6,,,78,127
2741,note_on,10,0,0,,7,,,79,127
2819,note_off,78,0,0,,7,,,79,127
2829,note_on,10,0,0,,12,,,71,127
2907,note_off,78,0,0,,12,,,71,127
2916,note_off,9,0,0,,7,,,55,127
2917,note_on,1,0,0,,10,,,57,127
2917,note_on,0,0,0,,1,,,73,127
2995,note_off,78,0,0,,1,,,73,127
3005,note_on,10,0,0,,2,,,74,127
3083,note_off,78,0,0,,2,,,74,127
3093,note_on,10,0,0,,4,,,76,127
3171,note_off,78,0,0,,4,,,76,127
3181,note_on,10,0,0,,1,,,73,127
3259,note_off,78,0,0,,1,,,73,127
3268,note_off,9,0,0,,10,,,57,127
3269,note_on,1,0,0,,2,,,62,127
3269,note_on,0,0,0,,2,,,74,127
3347,note_off,78,0,0,,2,,,62,127
3357,note_on,10,0,0,,4,,,64,127
3435,note_off,78,0,0,,4,,,64,127
3445,note_on,10,0,0,,6,,,66,127
3523,note_off,78,0,0,,6,,,66,127
3533,note_on,10,0,0,,10,,,57,127
3611,note_off,78,0,0,,10,,,57,127
3617,note_off,6,0,0,,2,,,74,127
3621,note_on,4,0,0,,12,,,59,127
3699,note_off,78,0,0,,12,,,59,127
3709,note_on,10,0,0,,1,,,61,127
3787,note_off,78,0,0,,1,,,61,127
3797,note_on,10,0,0,,2,,,62,127
3875,note_off,78,0,0,,2,,,62,127
3885,note_on,10,0,0,,4,,,52,127
3963,note_off,78,0,0,,4,,,52,127
3973,note_on,10,0,0,,6,,,54,127
4051,note_off,78,0,0,,6,,,54,127
4061,note_on,10,0,0,,7,,,55,127
4139,note_off,78,0,0,,7,,,55,127
4149,note_on,10,0,0,,10,,,57,127
4227,note_off,78,0,0,,10,,,57,127
4237,note_on,10,0,0,,10,,,45,127
4315,note_off,78,0,0,,10,,,45,127
4325,note_on,10,0,0,,2,,,50,127
4414,note_on,89,0,0,,10,,,81,127
4492,note_off,78,0,0,,10,,,81,127
4502,note_on,10,0,0,,6,,,78,127
4580,note_off,78,0,0,,6,,,78,127
4590,note_on,10,0,0,,2,,,74,127
4668,note_off,78,0,0,,2,,,74,127
4678,note_on,10,0,0,,10,,,69,127
4756,note_off,78,0,0,,10,,,69,127
4766,note_on,10,0,0,,6,,,66,127
4844,note_off,78,0,0,,6,,,66,127
4854,note_on,10,0,0,,2,,,62,127
4932,note_off,78,0,0,,2,,,62,127
4942,note_on,10,0,0,,10,,,57,127
5020,note_off,78,0,0,,10,,,57,127
5029,note_off,9,0,0,,2,,,50,127
5030,note_on,1,0,0,,6,,,54,127
5108,note_off,78,0,0,,6,,,54,127
5118,note_on,10,0,0,,2,,,50,127
5196,note_off,78,0,0,,2,,,50,127
5206,note_on,10,0,0,,10,,,45,127
5284,note_off,78,0,0,,10,,,45,127
5294,note_on,10,0,0,,2,,,38,127
5372,note_off,78,0,0,,2,,,38,127
5382,note_on,10,0,0,,10,,,33,127
5471,note_on,89,0,0,,10,,,81,127
5549,note_off,78,0,0,,10,,,81,127
5559,note_on,10,0,0,,4,,,76,127
5637,note_off,78,0,0,,4,,,76,127
5647,note_on,10,0,0,,1,,,73,127
5725,note_off,78,0,0,,1,,,73,127
5735,note_on,10,0,0,,10,,,69,127
5813,note_off,78,0,0,,10,,,69,127
5823,note_on,10,0,0,,4,,,64,127
5901,note_off,78,0,0,,4,,,64,127
5911,note_on,10,0,0,,1,,,61,127
5989,note_off,78,0,0,,1,,,61,127
5999,note_on,10,0,0,,10,,,57,127
6077,note_off,78,0,0,,10,,,57,127
6086,note_off,9,0,0,,10,,,33,127
6087,note_on,1,0,0,,4,,,52,127
6165,note_off,78,0,0,,4,,,52,127
6175,note_on,10,0,0,,1,,,49,127
6253,note_off,78,0,0,,1,,,49,127
6263,note_on,10,0,0,,10,,,45,127
6341,note_off,78,0,0,,10,,,45,127
6351,note_on,10,0,0,,10,,,33,127
6429,note_off,78,0,0,,10,,,33,127
6439,note_on,10,0,0,,2,,,38,127
6528,note_on,89,0,0,,10,,,81,127
6606,note_off,78,0,0,,10,,,81,127
6616,note_on,10,0,0,,6,,,78,127
6694,note_off,78,0,0,,6,,,78,127
6704,note_on,10,0,0,,2,,,74,127
6782,note_off,78,0,0,,2,,,74,127
6792,note_on,10,0,0,,10,,,69,127
6870,note_off,78,0,0,,10,,,69,127
6880,note_on,10,0,0,,6,,,66,127
6958,note_off,78,0,0,,6,,,66,127
6968,note_on,10,0,0,,2,,,62,127
7046,note_off,78,0,0,,2,,,62,127
7056,note_on,10,0,0,,10,,,57,127
7134,note_off,78,0,0,,10,,,57,127
7143,note_off,9,0,0,,2,,,38,127
7144,note_on,1,0,0,,6,,,54,127
7222,note_off,78,0,0,,6,,,54,127
7232,note_on,10,0,0,,2,,,50,127
7310,note_off,78,0,0,,2,,,50,127
7320,note_on,10,0,0,,10,,,45,127
7398,note_off,78,0,0,,10,,,45,127
7408,note_on,10,0,0,,2,,,38,127
7486,note_off,78,0,0,,2,,,38,127
7496,note_on,10,0,0,,10,,,33,127
7585,note_on,89,0,0,,10,,,81,127
7663,note_off,78,0,0,,10,,,81,127
7673,note_on,10,0,0,,4,,,76,127
7751,note_off,78,0,0,,4,,,76,127
7761,note_on,10,0,0,,1,,,73,127
7839,note_off,78,0,0,,1,,,73,127
7849,note_on,10,0,0,,10,,,69,127
7927,note_off,78,0,0,,10,,,69,127
7937,note_on,10,0,0,,4,,,64,127
8015,note_off,78,0,0,,4,,,64,127
8025,note_on,10,0,0,,1,,,61,127
8103,note_off,78,0,0,,1,,,61,127
8113,note_on,10,0,0,,10,,,57,127
8191,note_off,78,0,0,,10,,,57,127
8200,note_off,9,0,0,,10,,,33,127
8201,note_on,1,0,0,,4,,,52,127
8279,note_off,78,0,0,,4,,,52,127
8289,note_on,10,0,0,,1,,,49,127
8367,note_off,78,0,0,,1,,,49,127
8377,note_on,10,0,0,,10,,,45,127
8455,note_off,78,0,0,,10,,,45,127
8465,note_on,10,0,0,,10,,,33,127
8543,note_off,78,0,0,,10,,,33,127
8553,note_on,10,0,0,,2,,,38,127
8642,note_on,89,0,0,,6,,,78,127
8720,note_off,78,0,0,,6,,,78,127
8730,note_on,10,0,0,,2,,,74,127
8808,note_off,78,0,0,,2,,,74,127
8818,note_on,10,0,0,,10,,,69,127
8896,note_off,78,0,0,,10,,,69,127
8902,note_off,6,0,0,,2,,,38,127
8906,note_on,4,0,0,,6,,,66,127
8995,note_on,89,0,0,,2,,,62,127
9073,note_off,78,0,0,,2,,,62,127
9082,note_off,9,0,0,,6,,,66,127
9083,note_on,1,0,0,,10,,,57,127
9083,note_on,0,0,0,,6,,,78,127
9161,note_off,78,0,0,,10,,,57,127
9171,note_on,10,0,0,,2,,,50,127
9249,note_off,78,0,0,,2,,,50,127
9259,note_on,10,0,0,,1,,,49,127
9294,note_off,35,0,0,,6,,,78,127
9348,note_on,54,0,0,,4,,,76,127
9426,note_off,78,0,0,,4,,,76,127
9436,note_on,10,0,0,,2,,,74,127
9514,note_off,78,0,0,,2,,,74,127
9524,note_on,10,0,0,,1,,,73,127
9612,note_off,88,0,0,,1,,,49,127
9613,note_on,1,0,0,,12,,,47,127
9701,note_off,88,0,0,,1,,,73,127
9702,note_on,1,0,0,,2,,,74,127
9780,note_off,78,0,0,,2,,,74,127
9790,note_on,10,0,0,,12,,,71,127
9868,note_off,78,0,0,,12,,,71,127
9878,note_on,10,0,0,,8,,,68,127
9956,note_off,78,0,0,,8,,,68,127
9962,note_off,6,0,0,,12,,,47,127
9966,note_on,4,0,0,,4,,,64,127
10055,note_on,89,0,0,,12,,,59,127
10133,note_off,78,0,0,,12,,,59,127
10142,note_off,9,0,0,,4,,,64,127
10143,note_on,1,0,0,,8,,,56,127
10143,note_on,0,0,0,,2,,,74,127
10221,note_off,78,0,0,,8,,,56,127
10231,note_on,10,0,0,,12,,,47,127
10309,note_off,78,0,0,,12,,,47,127
10319,note_on,10,0,0,,10,,,45,127
10354,note_off,35,0,0,,2,,,74,127
10408,note_on,54,0,0,,1,,,73,127
10486,note_off,78,0,0,,1,,,73,127
10496,note_on,10,0,0,,2,,,74,127
10574,note_off,78,0,0,,2,,,74,127
10584,note_on,10,0,0,,4,,,76,127
10662,note_off,78,0,0,,4,,,76,127
10671,note_off,9,0,0,,10,,,45,127
10672,note_on,1,0,0,,2,,,38,127
10672,note_on,0,0,0,,6,,,78,127
10750,note_off,78,0,0,,6,,,78,127
10760,note_on,10,0,0,,2,,,74,127
10838,note_off,78,0,0,,2,,,74,127
10848,note_on,10,0,0,,4,,,76,127
10926,note_off,78,0,0,,4,,,76,127
10936,note_on,10,0,0,,1,,,73,127
11014,note_off,78,0,0,,1,,,73,127
11023,note_off,9,0,0,,2,,,38,127
11024,note_on,1,0,0,,2,,,50,127
11024,note_on,0,0,0,,2,,,74,127
11102,note_off,78,0,0,,2,,,74,127
11112,note_on,10,0,0,,12,,,71,127
11190,note_off,78,0,0,,12,,,71,127
11200,note_on,10,0,0,,1,,,73,127
11278,note_off,78,0,0,,1,,,73,127
11288,note_on,10,0,0,,10,,,69,127
11366,note_off,78,0,0,,10,,,69,127
11375,note_off,9,0,0,,2,,,50,127
11376,note_on,1,0,0,,2,,,38,127
11376,note_on,0,0,0,,12,,,71,127
11454,note_off,78,0,0,,12,,,71,127
11464,note_on,10,0,0,,8,,,68,127
11542,note_off,78,0,0,,8,,,68,127
11552,note_on,10,0,0,,10,,,69,127
11630,note_off,78,0,0,,10,,,69,127
11640,note_on,10,0,0,,6,,,66,127
11718,note_off,78,0,0,,6,,,66,127
11727,note_off,9,0,0,,2,,,38,127
11728,note_on,1,0,0,,4,,,40,127
11728,note_on,0,0,0,,8,,,68,127
11806,note_off,78,0,0,,8,,,68,127
11816,note_on,10,0,0,,4,,,64,127
11894,note_off,78,0,0,,4,,,64,127
11904,note_on,10,0,0,,5,,,65,127
11982,note_off,78,0,0,,5,,,65,127
11992,note_on,10,0,0,,8,,,68,127
12070,note_off,78,0,0,,8,,,68,127
12080,note_on,10,0,0,,10,,,69,127
12158,note_off,78,0,0,,10,,,69,127
12168,note_on,10,0,0,,12,,,71,127
12246,note_off,78,0,0,,12,,,71,127
12256,note_on,10,0,0,,0,,,72,127
12334,note_off,78,0,0,,0,,,72,127
12344,note_on,10,0,0,,2,,,74,127
12422,note_off,78,0,0,,2,,,74,127
12432,note_on,10,0,0,,4,,,76,127
12510,note_off,78,0,0,,4,,,76,127
12520,note_on,10,0,0,,5,,,77,127
12598,note_off,78,0,0,,5,,,77,127
12608,note_on,10,0,0,,8,,,80,127
12686,note_off,78,0,0,,8,,,80,127
12696,note_on,10,0,0,,10,,,81,127
12774,note_off,78,0,0,,10,,,81,127
12782,note_off,8,0,0,,4,,,40,127
12784,note_on,2,0,0,,12,,,83,127
12873,note_on,89,0,0,,4,,,52,127
12951,note_off,78,0,0,,4,,,52,127
12961,note_on,10,0,0,,5,,,53,127
13039,note_off,78,0,0,,5,,,53,127
13049,note_on,10,0,0,,8,,,56,127
13127,note_off,78,0,0,,8,,,56,127
13137,note_on,10,0,0,,10,,,57,127
13215,note_off,78,0,0,,10,,,57,127
13225,note_on,10,0,0,,12,,,59,127
13303,note_off,78,0,0,,12,,,59,127
13313,note_on,10,0,0,,0,,,60,127
13391,note_off,78,0,0,,0,,,60,127
13401,note_on,10,0,0,,2,,,62,127
13479,note_off,78,0,0,,2,,,62,127
13489,note_on,10,0,0,,4,,,64,127
13567,note_off,78,0,0,,4,,,64,127
13577,note_on,10,0,0,,5,,,65,127
13655,note_off,78,0,0,,5,,,65,127
13665,note_on,10,0,0,,8,,,68,127
13743,note_off,78,0,0,,8,,,68,127
13753,note_on,10,0,0,,10,,,69,127
13831,note_off,78,0,0,,10,,,69,127
13839,note_off,8,0,0,,12,,,83,127
13841,note_on,2,0,0,,12,,,71,127
13930,note_on,89,0,0,,4,,,64,127
14008,note_off,78,0,0,,4,,,64,127
14018,note_on,10,0,0,,5,,,65,127
14096,note_off,78,0,0,,5,,,65,127
14106,note_on,10,0,0,,8,,,68,127
14184,note_off,78,0,0,,8,,,68,127
14194,note_on,10,0,0,,10,,,69,127
14272,note_off,78,0,0,,10,,,69,127
14273,note_off,1,0,0,,12,,,71,127
14282,note_on,9,0,0,,12,,,71,127
14371,note_on,89,0,0,,0,,,72,127
14449,note_off,78,0,0,,0,,,72,127
14459,note_on,10,0,0,,2,,,74,127
14537,note_off,78,0,0,,2,,,74,127
14547,note_on,10,0,0,,4,,,76,127
14625,note_off,78,0,0,,4,,,76,127
14635,note_on,10,0,0,,5,,,77,127
14713,note_off,78,0,0,,5,,,77,127
14723,note_on,10,0,0,,8,,,80,127
14801,note_off,78,0,0,,8,,,80,127
14811,note_on,10,0,0,,10,,,81,127
14889,note_off,78,0,0,,10,,,81,127
14899,note_on,10,0,0,,12,,,83,127
14906,note_off,7,0,0,,12,,,71,127
14987,note_on,81,0,0,,4,,,52,127
15065,note_off,78,0,0,,4,,,52,127
15075,note_on,10,0,0,,5,,,53,127
15153,note_off,78,0,0,,5,,,53,127
15163,note_on,10,0,0,,8,,,56,127
15241,note_off,78,0,0,,8,,,56,127
15251,note_on,10,0,0,,10,,,57,127
15329,note_off,78,0,0,,10,,,57,127
15339,note_on,10,0,0,,12,,,59,127
15417,note_off,78,0,0,,12,,,59,127
15427,note_on,10,0,0,,0,,,60,127
15505,note_off,78,0,0,,0,,,60,127
15515,note_on,10,0,0,,2,,,62,127
15593,note_off,78,0,0,,2,,,62,127
15603,note_on,10,0,0,,4,,,64,127
15681,note_off,78,0,0,,4,,,64,127
15691,note_on,10,0,0,,5,,,65,127
15769,note_off,78,0,0,,5,,,65,127
15779,note_on,10,0,0,,8,,,68,127
15857,note_off,78,0,0,,8,,,68,127
15867,note_on,10,0,0,,10,,,69,127
15945,note_off,78,0,0,,10,,,69,127
15955,note_on,10,0,0,,12,,,71,127
16043,note_off,88,0,0,,12,,,83,127
16044,note_on,1,0,0,,12,,,83,127
16122,note_off,78,0,0,,12,,,83,127
16132,note_on,10,0,0,,8,,,80,127
16210,note_off,78,0,0,,8,,,80,127
16220,note_on,10,0,0,,1,,,73,127
16298,note_off,78,0,0,,1,,,73,127
16308,note_on,10,0,0,,2,,,74,127
16396,note_off,88,0,0,,12,,,71,127
16397,note_on,1,0,0,,12,,,71,127
16475,note_off,78,0,0,,12,,,71,127
16484,note_off,9,0,0,,2,,,74,127
16485,note_on,1,0,0,,8,,,68,127
16485,note_on,0,0,0,,8,,,80,127
16563,note_off,78,0,0,,8,,,68,127
16573,note_on,10,0,0,,12,,,71,127
16651,note_off,78,0,0,,12,,,71,127
16660,note_off,9,0,0,,8,,,80,127
16661,note_on,1,0,0,,4,,,64,127
16661,note_on,0,0,0,,12,,,83,127
16739,note_off,78,0,0,,4,,,64,127
16749,note_on,10,0,0,,12,,,71,127
16827,note_off,78,0,0,,12,,,71,127
16836,note_off,9,0,0,,12,,,83,127
16837,note_on,1,0,0,,8,,,68,127
16837,note_on,0,0,0,,2,,,86,127
16915,note_off,78,0,0,,8,,,68,127
16925,note_on,10,0,0,,12,,,71,127
17003,note_off,78,0,0,,12,,,71,127
17012,note_off,9,0,0,,2,,,86,127
17013,note_on,1,0,0,,10,,,69,127
17013,note_on,0,0,0,,1,,,85,127
17091,note_off,78,0,0,,1,,,85,127
17101,note_on,10,0,0,,8,,,80,127
17179,note_off,78,0,0,,8,,,80,127
17188,note_off,9,0,0,,10,,,69,127
17189,note_on,1,0,0,,1,,,61,127
17189,note_on,0,0,0,,10,,,81,127
17267,note_off,78,0,0,,10,,,81,127
17277,note_on,10,0,0,,4,,,76,127
17355,note_off,78,0,0,,4,,,76,127
17364,note_off,9,0,0,,1,,,61,127
17365,note_on,1,0,0,,2,,,62,127
17365,note_on,0,0,0,,6,,,78,127
17443,note_off,78,0,0,,6,,,78,127
17453,note_on,10,0,0,,1,,,73,127
17531,note_off,78,0,0,,1,,,73,127
17540,note_off,9,0,0,,2,,,62,127
17541,note_on,1,0,0,,6,,,66,127
17541,note_on,0,0,0,,2,,,74,127
17619,note_off,78,0,0,,2,,,74,127
17629,note_on,10,0,0,,12,,,71,127
17707,note_off,78,0,0,,12,,,71,127
17716,note_off,9,0,0,,6,,,66,127
17717,note_on,1,0,0,,4,,,64,127
17717,note_on,0,0,0,,1,,,73,127
17795,note_off,78,0,0,,1,,,73,127
17805,note_on,10,0,0,,10,,,69,127
17883,note_off,78,0,0,,10,,,69,127
17892,note_off,9,0,0,,4,,,64,127
17893,note_on,1,0,0,,4,,,52,127
17893,note_on,0,0,0,,12,,,71,127
17971,note_off,78,0,0,,12,,,71,127
17981,note_on,10,0,0,,8,,,68,127
18059,note_off,78,0,0,,8,,,68,127
18068,note_off,9,0,0,,4,,,52,127
18069,note_on,1,0,0,,10,,,57,127
18069,note_on,0,0,0,,10,,,69,127
18147,note_off,78,0,0,,10,,,69,127
18157,note_on,10,0,0,,4,,,64,127
18235,note_off,78,0,0,,4,,,64,127
18245,note_on,10,0,0,,5,,,65,127
18323,note_off,78,0,0,,5,,,65,127
18333,note_on,10,0,0,,8,,,68,127
18411,note_off,78,0,0,,8,,,68,127
18420,note_off,9,0,0,,10,,,57,127
18421,note_on,1,0,0,,10,,,45,127
18421,note_on,0,0,0,,10,,,69,127
18499,note_off,78,0,0,,10,,,69,127
18509,note_on,10,0,0,,12,,,71,127
18587,note_off,78,0,0,,12,,,71,127
18597,note_on,10,0,0,,0,,,72,127
18675,note_off,78,0,0,,0,,,72,127
18685,note_on,10,0,0,,2,,,74,127
18763,note_off,78,0,0,,2,,,74,127
18769,note_off,6,0,0,,10,,,45,127
18773,note_on,4,0,0,,4,,,76,127
18851,note_off,78,0,0,,4,,,76,127
18861,note_on,10,0,0,,5,,,77,127
18939,note_off,78,0,0,,5,,,77,127
18949,note_on,10,0,0,,8,,,80,127
19027,note_off,78,0,0,,8,,,80,127
19037,note_on,10,0,0,,10,,,81,127
19115,note_off,78,0,0,,10,,,81,127
19125,note_on,10,0,0,,12,,,83,127
19214,note_on,89,0,0,,4,,,52,127
19292,note_off,78,0,0,,4,,,52,127
19302,note_on,10,0,0,,5,,,53,127
19380,note_off,78,0,0,,5,,,53,127
19390,note_on,10,0,0,,8,,,56,127
19468,note_off,78,0,0,,8,,,56,127
19478,note_on,10,0,0,,10,,,57,127
19556,note_off,78,0,0,,10,,,57,127
19566,note_on,10,0,0,,12,,,59,127
19644,note_off,78,0,0,,12,,,59,127
19654,note_on,10,0,0,,0,,,60,127
19732,note_off,78,0,0,,0,,,60,127
19742,note_on,10,0,0,,2,,,62,127
19820,note_off,78,0,0,,2,,,62,127
19830,note_on,10,0,0,,4,,,64,127
19908,note_off,78,0,0,,4,,,64,127
19918,note_on,10,0,0,,5,,,65,127
19996,note_off,78,0,0,,5,,,65,127
20006,note_on,10,0,0,,8,,,68,127
20084,note_off,78,0,0,,8,,,68,127
20094,note_on,10,0,0,,10,,,69,127
20172,note_off,78,0,0,,10,,,69,127
20180,note_off,8,0,0,,12,,,83,127
20182,note_on,2,0,0,,12,,,71,127
20271,note_on,89,0,0,,4,,,64,127
20349,note_off,78,0,0,,4,,,64,127
20359,note_on,10,0,0,,5,,,65,127
20437,note_off,78,0,0,,5,,,65,127
20447,note_on,10,0,0,,8,,,68,127
20525,note_off,78,0,0,,8,,,68,127
20535,note_on,10,0,0,,10,,,69,127
20613,note_off,78,0,0,,10,,,69,127
20614,note_off,1,0,0,,12,,,71,127
20623,note_on,9,0,0,,12,,,71,127
20712,note_on,89,0,0,,0,,,72,127
20790,note_off,78,0,0,,0,,,72,127
20800,note_on,10,0,0,,2,,,74,127
20878,note_off,78,0,0,,2,,,74,127
20888,note_on,10,0,0,,4,,,76,127
20966,note_off,78,0,0,,4,,,76,127
20976,note_on,10,0,0,,5,,,77,127
21054,note_off,78,0,0,,5,,,77,127
21064,note_on,10,0,0,,8,,,80,127
21142,note_off,78,0,0,,8,,,80,127
21151,note_off,9,0,0,,12,,,71,127
21152,note_on,1,0,0,,10,,,81,127
21230,note_off,78,0,0,,10,,,81,127
21240,note_on,10,0,0,,12,,,83,127
21329,note_on,89,0,0,,4,,,52,127
21407,note_off,78,0,0,,4,,,52,127
21417,note_on,10,0,0,,5,,,53,127
21495,note_off,78,0,0,,5,,,53,127
21505,note_on,10,0,0,,8,,,56,127
21583,note_off,78,0,0,,8,,,56,127
21593,note_on,10,0,0,,10,,,57,127
21671,note_off,78,0,0,,10,,,57,127
21681,note_on,10,0,0,,12,,,59,127
21759,note_off,78,0,0,,12,,,59,127
21769,note_on,10,0,0,,0,,,60,127
21847,note_off,78,0,0,,0,,,60,127
21857,note_on,10,0,0,,2,,,62,127
21935,note_off,78,0,0,,2,,,62,127
21945,note_on,10,0,0,,4,,,64,127
22023,note_off,78,0,0,,4,,,64,127
22033,note_on,10,0,0,,5,,,65,127
22111,note_off,78,0,0,,5,,,65,127
22121,note_on,10,0,0,,8,,,68,127
22199,note_off,78,0,0,,8,,,68,127
22209,note_on,10,0,0,,10,,,69,127
22287,note_off,78,0,0,,10,,,69,127
22297,note_on,10,0,0,,12,,,71,127
22385,note_off,88,0,0,,12,,,83,127
22386,note_on,1,0,0,,12,,,83,127
22464,note_off,78,0,0,,12,,,83,127
22474,note_on,10,0,0,,8,,,80,127
22552,note_off,78,0,0,,8,,,80,127
22562,note_on,10,0,0,,1,,,73,127
22640,note_off,78,0,0,,1,,,73,127
22650,note_on,10,0,0,,2,,,74,127
22738,note_off,88,0,0,,12,,,71,127
22739,note_on,1,0,0,,12,,,71,127
22817,note_off,78,0,0,,12,,,71,127
22826,note_off,9,0,0,,2,,,74,127
22827,note_on,1,0,0,,8,,,68,127
22827,note_on,0,0,0,,8,,,80,127
22905,note_off,78,0,0,,8,,,68,127
22915,note_on,10,0,0,,12,,,71,127
22993,note_off,78,0,0,,12,,,71,127
23002,note_off,9,0,0,,8,,,80,127
23003,note_on,1,0,0,,4,,,64,127
23003,note_on,0,0,0,,12,,,83,127
23081,note_off,78,0,0,,4,,,64,127
23091,note_on,10,0,0,,12,,,71,127
23169,note_off,78,0,0,,12,,,71,127
23178,note_off,9,0,0,,12,,,83,127
23179,note_on,1,0,0,,8,,,68,127
23179,note_on,0,0,0,,2,,,86,127
23257,note_off,78,0,0,,8,,,68,127
23267,note_on,10,0,0,,12,,,71,127
23345,note_off,78,0,0,,12,,,71,127
23354,note_off,9,0,0,,2,,,86,127
23355,note_on,1,0,0,,10,,,69,127
23355,note_on,0,0,0,,1,,,85,127
23433,note_off,78,0,0,,1,,,85,127
23443,note_on,10,0,0,,8,,,80,127
23521,note_off,78,0,0,,8,,,80,127
23530,note_off,9,0,0,,10,,,69,127
23531,note_on,1,0,0,,1,,,61,127
23531,note_on,0,0,0,,10,,,81,127
23609,note_off,78,0,0,,10,,,81,127
23619,note_on,10,0,0,,4,,,76,127
23697,note_off,78,0,0,,4,,,76,127
23706,note_off,9,0,0,,1,,,61,127
23707,note_on,1,0,0,,2,,,62,127
23707,note_on,0,0,0,,6,,,78,127
23785,note_off,78,0,0,,6,,,78,127
23795,note_on,10,0,0,,1,,,73,127
23873,note_off,78,0,0,,1,,,73,127
23882,note_off,9,0,0,,2,,,62,127
23883,note_on,1,0,0,,6,,,66,127
23883,note_on,0,0,0,,2,,,74,127
23961,note_off,78,0,0,,2,,,74,127
23971,note_on,10,0,0,,12,,,71,127
24049,note_off,78,0,0,,12,,,71,127
24058,note_off,9,0,0,,6,,,66,127
24059,note_on,1,0,0,,4,,,64,127
24059,note_on,0,0,0,,1,,,73,127
24137,note_off,78,0,0,,1,,,73,127
24147,note_on,10,0,0,,10,,,69,127
24225,note_off,78,0,0,,10,,,69,127
24234,note_off,9,0,0,,4,,,64,127
24235,note_on,1,0,0,,4,,,52,127
24235,note_on,0,0,0,,12,,,71,127
24313,note_off,78,0,0,,12,,,71,127
24323,note_on,10,0,0,,8,,,68,127
24401,note_off,78,0,0,,8,,,68,127
24410,note_off,9,0,0,,4,,,52,127
24411,note_on,1,0,0,,10,,,45,127
24411,note_on,0,0,0,,10,,,69,127
24489,note_off,78,0,0,,10,,,69,127
24499,note_on,10,0,0,,10,,,81,127
24577,note_off,78,0,0,,10,,,81,127
24587,note_on,10,0,0,,4,,,76,127
24665,note_off,78,0,0,,4,,,76,127
24675,note_on,10,0,0,,1,,,73,127
24753,note_off,78,0,0,,1,,,73,127
24763,note_on,10,0,0,,10,,,69,127
24841,note_off,78,0,0,,10,,,69,127
24851,note_on,10,0,0,,4,,,64,127
24929,note_off,78,0,0,,4,,,64,127
24939,note_on,10,0,0,,1,,,61,127
25017,note_off,78,0,0,,1,,,61,127
25027,note_on,10,0,0,,10,,,57,127
25105,note_off,78,0,0,,10,,,57,127
25114,note_off,9,0,0,,10,,,45,127
25115,note_on,1,0,0,,4,,,52,127
25193,note_off,78,0,0,,4,,,52,127
25203,note_on,10,0,0,,1,,,49,127
25281,note_off,78,0,0,,1,,,49,127
25291,note_on,10,0,0,,10,,,45,127
25369,note_off,78,0,0,,10,,,45,127
25379,note_on,10,0,0,,10,,,33,127
25457,note_off,78,0,0,,10,,,33,127
25467,note_on,10,0,0,,2,,,38,127
25556,note_on,89,0,0,,10,,,81,127
25634,note_off,78,0,0,,10,,,81,127
25644,note_on,10,0,0,,6,,,78,127
25722,note_off,78,0,0,,6,,,78,127
25732,note_on,10,0,0,,2,,,74,127
25810,note_off,78,0,0,,2,,,74,127
25820,note_on,10,0,0,,10,,,69,127
25898,note_off,78,0,0,,10,,,69,127
25908,note_on,10,0,0,,6,,,66,127
25986,note_off,78,0,0,,6,,,66,127
25996,note_on,10,0,0,,2,,,62,127
26074,note_off,78,0,0,,2,,,62,127
26084,note_on,10,0,0,,10,,,57,127
26162,note_off,78,0,0,,10,,,57,127
26171,note_off,9,0,0,,2,,,38,127
26172,note_on,1,0,0,,6,,,54,127
26250,note_off,78,0,0,,6,,,54,127
26260,note_on,10,0,0,,2,,,50,127
26338,note_off,78,0,0,,2,,,50,127
26348,note_on,10,0,0,,10,,,45,127
26426,note_off,78,0,0,,10,,,45,127
26436,note_on,10,0,0,,2,,,38,127
26514,note_off,78,0,0,,2,,,38,127
26524,note_on,10,0,0,,10,,,33,127
26613,note_on,89,0,0,,10,,,81,127
26691,note_off,78,0,0,,10,,,81,127
26701,note_on,10,0,0,,4,,,76,127
26779,note_off,78,0,0,,4,,,76,127
26789,note_on,10,0,0,,1,,,73,127
26867,note_off,78,0,0,,1,,,73,127
26877,note_on,10,0,0,,10,,,69,127
26955,note_off,78,0,0,,10,,,69,127
26965,note_on,10,0,0,,4,,,64,127
27043,note_off,78,0,0,,4,,,64,127
27053,note_on,10,0,0,,1,,,61,127
27131,note_off,78,0,0,,1,,,61,127
27141,note_on,10,0,0,,10,,,57,127
27219,note_off,78,0,0,,10,,,57,127
27228,note_off,9,0,0,,10,,,33,127
27229,note_on,1,0,0,,4,,,52,127
27307,note_off,78,0,0,,4,,,52,127
27317,note_on,10,0,0,,1,,,49,127
27395,note_off,78,0,0,,1,,,49,127
27405,note_on,10,0,0,,10,,,45,127
27483,note_off,78,0,0,,10,,,45,127
27493,note_on,10,0,0,,10,,,33,127
27571,note_off,78,0,0,,10,,,33,127
27581,note_on,10,0,0,,2,,,38,127
27670,note_on,89,0,0,,6,,,78,127
27748,note_off,78,0,0,,6,,,78,127
27757,note_off,9,0,0,,2,,,38,127
27758,note_on,1,0,0,,2,,,50,127
27758,note_on,0,0,0,,2,,,74,127
27836,note_off,78,0,0,,2,,,74,127
27846,note_on,10,0,0,,12,,,71,127
27924,note_off,78,0,0,,12,,,71,127
27933,note_off,9,0,0,,2,,,50,127
27934,note_on,1,0,0,,4,,,52,127
27934,note_on,0,0,0,,1,,,73,127
28012,note_off,78,0,0,,1,,,73,127
28022,note_on,10,0,0,,4,,,76,127
28100,note_off,78,0,0,,4,,,76,127
28110,note_on,10,0,0,,1,,,73,127
28188,note_off,78,0,0,,1,,,73,127
28198,note_on,10,0,0,,10,,,69,127
28276,note_off,78,0,0,,10,,,69,127
28285,note_off,9,0,0,,4,,,52,127
28286,note_on,1,0,0,,4,,,40,127
28286,note_on,0,0,0,,12,,,71,127
28364,note_off,78,0,0,,12,,,71,127
28374,note_on,10,0,0,,2,,,74,127
28452,note_off,78,0,0,,2,,,74,127
28462,note_on,10,0,0,,12,,,71,127
28540,note_off,78,0,0,,12,,,71,127
28550,note_on,10,0,0,,8,,,68,127
28628,note_off,78,0,0,,8,,,68,127
28637,note_off,9,0,0,,4,,,40,127
28638,note_on,1,0,0,,10,,,45,127
28638,note_on,0,0,0,,10,,,69,127
28716,note_off,78,0,0,,10,,,69,127
28726,note_on,10,0,0,,12,,,71,127
28804,note_off,78,0,0,,12,,,71,127
28813,note_off,9,0,0,,10,,,45,127
28814,note_on,1,0,0,,10,,,57,127
28814,note_on,0,0,0,,2,,,62,127
28814,note_on,0,0,0,,6,,,66,127
28814,note_on,0,0,0,,10,,,69,127
28892,note_off,78,0,0,,10,,,69,127
28902,note_on,10,0,0,,8,,,68,127
28980,note_off,78,0,0,,8,,,68,127
28989,note_off,9,0,0,,6,,,66,127
28989,note_off,0,0,0,,2,,,62,127
28990,note_on,1,0,0,,1,,,61,127
28990,note_on,0,0,0,,4,,,64,127
28990,note_on,0,0,0,,10,,,69,127
29068,note_off,78,0,0,,10,,,69,127
29078,note_on,10,0,0,,12,,,71,127
29156,note_off,78,0,0,,12,,,71,127
29165,note_off,9,0,0,,4,,,64,127
29165,note_off,0,0,0,,1,,,61,127
29166,note_on,1,0,0,,12,,,59,127
29166,note_on,0,0,0,,2,,,62,127
29166,note_on,0,0,0,,1,,,73,127
29244,note_off,78,0,0,,1,,,73,127
29254,note_on,10,0,0,,2,,,74,127
29332,note_off,78,0,0,,2,,,74,127
29341,note_off,9,0,0,,2,,,62,127
29341,note_off,0,0,0,,12,,,59,127
29342,note_on,1,0,0,,4,,,64,127
29342,note_on,0,0,0,,1,,,61,127
29342,note_on,0,0,0,,4,,,76,127
29420,note_off,78,0,0,,4,,,76,127
29430,note_on,10,0,0,,6,,,78,127
29508,note_off,78,0,0,,6,,,78,127
29517,note_off,9,0,0,,1,,,61,127
29517,note_off,0,0,0,,4,,,64,127
29518,note_on,1,0,0,,2,,,62,127
29518,note_on,0,0,0,,6,,,66,127
29518,note_on,0,0,0,,8,,,80,127
29596,note_off,78,0,0,,8,,,80,127
29606,note_on,10,0,0,,10,,,81,127
29684,note_off,78,0,0,,10,,,81,127
29693,note_off,9,0,0,,6,,,66,127
29693,note_off,0,0,0,,2,,,62,127
29694,note_off,1,0,0,,10,,,57,127
29694,note_on,0,0,0,,10,,,57,127
29694,note_on,0,0,0,,4,,,64,127
29694,note_on,0,0,0,,1,,,61,127
29694,note_on,0,0,0,,10,,,69,127
29772,note_off,78,0,0,,10,,,69,127
29782,note_on,10,0,0,,12,,,71,127
29860,note_off,78,0,0,,12,,,71,127
29869,note_off,9,0,0,,1,,,61,127
29869,note_off,0,0,0,,4,,,64,127
29870,note_on,1,0,0,,2,,,62,127
29870,note_on,0,0,0,,6,,,66,127
29870,note_on,0,0,0,,10,,,69,127
29948,note_off,78,0,0,,10,,,69,127
29958,note_on,10,0,0,,8,,,68,127
30036,note_off,78,0,0,,8,,,68,127
30045,note_off,9,0,0,,6,,,66,127
30045,note_off,0,0,0,,2,,,62,127
30046,note_on,1,0,0,,1,,,61,127
30046,note_on,0,0,0,,4,,,64,127
30046,note_on,0,0,0,,10,,,69,127
30124,note_off,78,0,0,,10,,,69,127
30134,note_on,10,0,0,,12,,,71,127
30212,note_off,78,0,0,,12,,,71,127
30221,note_off,9,0,0,,4,,,64,127
30221,note_off,0,0,0,,1,,,61,127
30222,note_on,1,0,0,,12,,,59,127
30222,note_on,0,0,0,,2,,,62,127
30222,note_on,0,0,0,,1,,,73,127
30300,note_off,78,0,0,,1,,,73,127
30310,note_on,10,0,0,,2,,,74,127
30388,note_off,78,0,0,,2,,,74,127
30397,note_off,9,0,0,,2,,,62,127
30397,note_off,0,0,0,,12,,,59,127
30398,note_on,1,0,0,,1,,,61,127
30398,note_on,0,0,0,,4,,,64,127
30398,note_on,0,0,0,,4,,,76,127
30476,note_off,78,0,0,,4,,,76,127
30486,note_on,10,0,0,,6,,,78,127
30564,note_off,78,0,0,,6,,,78,127
30573,note_off,9,0,0,,4,,,64,127
30573,note_off,0,0,0,,1,,,61,127
30574,note_on,1,0,0,,2,,,62,127
30574,note_on,0,0,0,,6,,,66,127
30574,note_on,0,0,0,,8,,,80,127
30652,note_off,78,0,0,,8,,,80,127
30662,note_on,10,0,0,,10,,,81,127
30740,note_off,78,0,0,,10,,,81,127
30748,note_off,8,0,0,,10,,,57,127
30749,note_off,1,0,0,,6,,,66,127
30749,note_off,0,0,0,,2,,,62,127
30750,note_on,1,0,0,,1,,,61,127
30750,note_on,0,0,0,,4,,,64,127
30750,note_on,0,0,0,,10,,,57,127
30750,note_on,0,0,0,,10,,,69,127
30828,note_off,78,0,0,,10,,,69,127
30838,note_on,10,0,0,,8,,,80,127
30916,note_off,78,0,0,,8,,,80,127
30925,note_off,9,0,0,,4,,,64,127
30925,note_off,0,0,0,,1,,,61,127
30926,note_on,1,0,0,,6,,,54,127
30926,note_on,0,0,0,,2,,,62,127
30926,note_on,0,0,0,,10,,,81,127
31004,note_off,78,0,0,,10,,,81,127
31014,note_on,10,0,0,,10,,,69,127
31092,note_off,78,0,0,,10,,,69,127
31098,note_off,6,0,0,,10,,,57,127
31101,note_off,3,0,0,,2,,,62,127
31101,note_off,0,0,0,,6,,,54,127
31102,note_on,1,0,0,,4,,,52,127
31102,note_on,0,0,0,,8,,,80,127
31180,note_off,78,0,0,,8,,,80,127
31190,note_on,10,0,0,,10,,,81,127
31268,note_off,78,0,0,,10,,,81,127
31278,note_on,10,0,0,,10,,,69,127
31356,note_off,78,0,0,,10,,,69,127
31366,note_on,10,0,0,,1,,,73,127
31444,note_off,78,0,0,,1,,,73,127
31453,note_off,9,0,0,,4,,,52,127
31454,note_on,1,0,0,,4,,,40,127
31454,note_on,0,0,0,,1,,,73,127
31512,note_off,58,0,0,,1,,,73,127
31513,note_on,1,0,0,,12,,,71,127
31571,note_off,58,0,0,,12,,,71,127
31572,note_on,1,0,0,,1,,,73,127
31630,note_off,58,0,0,,1,,,73,127
31631,note_on,1,0,0,,12,,,71,127
31689,note_off,58,0,0,,12,,,71,127
31690,note_on,1,0,0,,10,,,69,127
31748,note_off,58,0,0,,10,,,69,127
31749,note_on,1,0,0,,12,,,71,127
31807,note_off,58,0,0,,12,,,71,127
31807,note_off,0,0,0,,4,,,40,127
31808,note_on,1,0,0,,10,,,57,127
31808,note_on,0,0,0,,10,,,69,127
31886,note_off,78,0,0,,10,,,69,127
31896,note_on,10,0,0,,12,,,71,127
31974,note_off,78,0,0,,12,,,71,127
31983,note_off,9,0,0,,10,,,57,127
31984,note_on,1,0,0,,10,,,57,127
31984,note_on,0,0,0,,6,,,66,127
31984,note_on,0,0,0,,2,,,62,127
31984,note_on,0,0,0,,10,,,69,127
32062,note_off,78,0,0,,10,,,69,127
32072,note_on,10,0,0,,8,,,68,127
32150,note_off,78,0,0,,8,,,68,127
32159,note_off,9,0,0,,2,,,62,127
32159,note_off,0,0,0,,6,,,66,127
32160,note_on,1,0,0,,4,,,64,127
32160,note_on,0,0,0,,1,,,61,127
32160,note_on,0,0,0,,10,,,69,127
32238,note_off,78,0,0,,10,,,69,127
32248,note_on,10,0,0,,12,,,71,127
32326,note_off,78,0,0,,12,,,71,127
32335,note_off,9,0,0,,1,,,61,127
32335,note_off,0,0,0,,4,,,64,127
32336,note_on,1,0,0,,2,,,62,127
32336,note_on,0,0,0,,12,,,59,127
32336,note_on,0,0,0,,1,,,73,127
32414,note_off,78,0,0,,1,,,73,127
32424,note_on,10,0,0,,2,,,74,127
32502,note_off,78,0,0,,2,,,74,127
32511,note_off,9,0,0,,12,,,59,127
32511,note_off,0,0,0,,2,,,62,127
32512,note_on,1,0,0,,1,,,61,127
32512,note_on,0,0,0,,4,,,64,127
32512,note_on,0,0,0,,4,,,76,127
32590,note_off,78,0,0,,4,,,76,127
32600,note_on,10,0,0,,6,,,78,127
32678,note_off,78,0,0,,6,,,78,127
32687,note_off,9,0,0,,4,,,64,127
32687,note_off,0,0,0,,1,,,61,127
32688,note_on,1,0,0,,6,,,66,127
32688,note_on,0,0,0,,2,,,62,127
32688,note_on,0,0,0,,8,,,80,127
32766,note_off,78,0,0,,8,,,80,127
32776,note_on,10,0,0,,10,,,81,127
32854,note_off,78,0,0,,10,,,81,127
32863,note_off,9,0,0,,2,,,62,127
32863,note_off,0,0,0,,6,,,66,127
32864,note_off,1,0,0,,10,,,57,127
32864,note_on,0,0,0,,1,,,61,127
32864,note_on,0,0,0,,10,,,57,127
32864,note_on,0,0,0,,4,,,64,127
32864,note_on,0,0,0,,10,,,69,127
32942,note_off,78,0,0,,10,,,69,127
32952,note_on,10,0,0,,12,,,71,127
33030,note_off,78,0,0,,12,,,71,127
33039,note_off,9,0,0,,4,,,64,127
33039,note_off,0,0,0,,1,,,61,127
33040,note_on,1,0,0,,6,,,66,127
33040,note_on,0,0,0,,2,,,62,127
33040,note_on,0,0,0,,10,,,69,127
33118,note_off,78,0,0,,10,,,69,127
33128,note_on,10,0,0,,8,,,68,127
33206,note_off,78,0,0,,8,,,68,127
33215,note_off,9,0,0,,2,,,62,127
33215,note_off,0,0,0,,6,,,66,127
33216,note_on,1,0,0,,1,,,61,127
33216,note_on,0,0,0,,4,,,64,127
33216,note_on,0,0,0,,10,,,69,127
33294,note_off,78,0,0,,10,,,69,127
33304,note_on,10,0,0,,12,,,71,127
33382,note_off,78,0,0,,12,,,71,127
33391,note_off,9,0,0,,4,,,64,127
33391,note_off,0,0,0,,1,,,61,127
33392,note_on,1,0,0,,2,,,62,127
33392,note_on,0,0,0,,12,,,59,127
33392,note_on,0,0,0,,1,,,73,127
33470,note_off,78,0,0,,1,,,73,127
33480,note_on,10,0,0,,2,,,74,127
33558,note_off,78,0,0,,2,,,74,127
33567,note_off,9,0,0,,12,,,59,127
33567,note_off,0,0,0,,2,,,62,127
33568,note_on,1,0,0,,1,,,61,127
33568,note_on,0,0,0,,4,,,64,127
33568,note_on,0,0,0,,4,,,76,127
33646,note_off,78,0,0,,4,,,76,127
33656,note_on,10,0,0,,6,,,78,127
33734,note_off,78,0,0,,6,,,78,127
33743,note_off,9,0,0,,4,,,64,127
33743,note_off,0,0,0,,1,,,61,127
33744,note_on,1,0,0,,6,,,66,127
33744,note_on,0,0,0,,2,,,62,127
33744,note_on,0,0,0,,8,,,80,127
33822,note_off,78,0,0,,8,,,80,127
33832,note_on,10,0,0,,10,,,81,127
33919,note_off,87,0,0,,10,,,57,127
33920,note_off,1,0,0,,2,,,62,127
33920,note_off,0,0,0,,6,,,66,127
33921,note_on,1,0,0,,1,,,61,127
33921,note_on,0,0,0,,4,,,64,127
33921,note_on,0,0,0,,10,,,57,127
33921,note_on,0,0,0,,10,,,69,127
34008,note_off,87,0,0,,10,,,81,127
34010,note_on,2,0,0,,8,,,80,127
34088,note_off,78,0,0,,8,,,80,127
34097,note_off,9,0,0,,10,,,57,127
34097,note_off,0,0,0,,4,,,64,127
34097,note_off,0,0,0,,1,,,61,127
34098,note_on,1,0,0,,6,,,54,127
34098,note_on,0,0,0,,2,,,62,127
34098,note_on,0,0,0,,10,,,57,127
34098,note_on,0,0,0,,10,,,81,127
34186,note_off,88,0,0,,10,,,69,127
34187,note_on,1,0,0,,10,,,69,127
34274,note_off,87,0,0,,10,,,81,127
34275,note_off,1,0,0,,10,,,57,127
34275,note_off,0,0,0,,2,,,62,127
34275,note_off,0,0,0,,6,,,54,127
34276,note_on,1,0,0,,4,,,52,127
34276,note_on,0,0,0,,8,,,80,127
34354,note_off,78,0,0,,8,,,80,127
34364,note_on,10,0,0,,10,,,81,127
34442,note_off,78,0,0,,10,,,81,127
34450,note_off,8,0,0,,10,,,69,127
34452,note_on,2,0,0,,10,,,69,127
34530,note_off,78,0,0,,10,,,69,127
34540,note_on,10,0,0,,1,,,73,127
34618,note_off,78,0,0,,1,,,73,127
34627,note_off,9,0,0,,4,,,52,127
34628,note_on,1,0,0,,4,,,40,127
34628,note_on,0,0,0,,1,,,73,127
34686,note_off,58,0,0,,1,,,73,127
34687,note_on,1,0,0,,12,,,71,127
34745,note_off,58,0,0,,12,,,71,127
34746,note_on,1,0,0,,1,,,73,127
34804,note_off,58,0,0,,1,,,73,127
34805,note_on,1,0,0,,12,,,71,127
34863,note_off,58,0,0,,12,,,71,127
34864,note_on,1,0,0,,10,,,69,127
34922,note_off,58,0,0,,10,,,69,127
34923,note_on,1,0,0,,12,,,71,127
34981,note_off,58,0,0,,12,,,71,127
34981,note_off,0,0,0,,4,,,40,127
34982,note_on,1,0,0,,10,,,45,127
34982,note_on,0,0,0,,10,,,69,127
35690,note_off,708,0,0,,10,,,69,127
36044,note_off,354,0,0,,10,,,45,127
36045,note_on,1,0,0,,10,,,45,127
36134,note_on,89,0,0,,10,,,81,127
36212,note_off,78,0,0,,10,,,81,127
36222,note_on,10,0,0,,4,,,76,127
36300,note_off,78,0,0,,4,,,76,127
36310,note_on,10,0,0,,1,,,73,127
36388,note_off,78,0,0,,1,,,73,127
36398,note_on,10,0,0,,10,,,69,127
36476,note_off,78,0,0,,10,,,69,127
36486,note_on,10,0,0,,4,,,64,127
36564,note_off,78,0,0,,4,,,64,127
36574,note_on,10,0,0,,1,,,61,127
36652,note_off,78,0,0,,1,,,61,127
36662,note_on,10,0,0,,10,,,57,127
36740,note_off,78,0,0,,10,,,57,127
36749,note_off,9,0,0,,10,,,45,127
36750,note_on,1,0,0,,4,,,52,127
36828,note_off,78,0,0,,4,,,52,127
36838,note_on,10,0,0,,1,,,49,127
36916,note_off,78,0,0,,1,,,49,127
36926,note_on,10,0,0,,10,,,45,127
37004,note_off,78,0,0,,10,,,45,127
37014,note_on,10,0,0,,10,,,33,127
37092,note_off,78,0,0,,10,,,33,127
37102,note_on,10,0,0,,12,,,35,127
37191,note_on,89,0,0,,10,,,81,127
37269,note_off,78,0,0,,10,,,81,127
37279,note_on,10,0,0,,6,,,78,127
37357,note_off,78,0,0,,6,,,78,127
37367,note_on,10,0,0,,3,,,75,127
37445,note_off,78,0,0,,3,,,75,127
37455,note_on,10,0,0,,10,,,69,127
37533,note_off,78,0,0,,10,,,69,127
37543,note_on,10,0,0,,6,,,66,127
37621,note_off,78,0,0,,6,,,66,127
37631,note_on,10,0,0,,3,,,63,127
37709,note_off,78,0,0,,3,,,63,127
37719,note_on,10,0,0,,10,,,57,127
37797,note_off,78,0,0,,10,,,57,127
37806,note_off,9,0,0,,12,,,35,127
37807,note_on,1,0,0,,6,,,54,127
37885,note_off,78,0,0,,6,,,54,127
37895,note_on,10,0,0,,3,,,51,127
37973,note_off,78,0,0,,3,,,51,127
37983,note_on,10,0,0,,12,,,47,127
38061,note_off,78,0,0,,12,,,47,127
38071,note_on,10,0,0,,12,,,35,127
38149,note_off,78,0,0,,12,,,35,127
38159,note_on,10,0,0,,4,,,40,127
38248,note_on,89,0,0,,8,,,80,127
38326,note_off,78,0,0,,8,,,80,127
38336,note_on,10,0,0,,4,,,76,127
38414,note_off,78,0,0,,4,,,76,127
38424,note_on,10,0,0,,12,,,71,127
38502,note_off,78,0,0,,12,,,71,127
38512,note_on,10,0,0,,8,,,68,127
38590,note_off,78,0,0,,8,,,68,127
38600,note_on,10,0,0,,4,,,64,127
38678,note_off,78,0,0,,4,,,64,127
38688,note_on,10,0,0,,12,,,59,127
38766,note_off,78,0,0,,12,,,59,127
38776,note_on,10,0,0,,8,,,56,127
38854,note_off,78,0,0,,8,,,56,127
38863,note_off,9,0,0,,4,,,40,127
38864,note_on,1,0,0,,4,,,52,127
38942,note_off,78,0,0,,4,,,52,127
38952,note_on,10,0,0,,12,,,47,127
39030,note_off,78,0,0,,12,,,47,127
39040,note_on,10,0,0,,8,,,44,127
39118,note_off,78,0,0,,8,,,44,127
39128,note_on,10,0,0,,4,,,40,127
39206,note_off,78,0,0,,4,,,40,127
39216,note_on,10,0,0,,0,,,36,127
39305,note_on,89,0,0,,0,,,84,127
39383,note_off,78,0,0,,0,,,84,127
39393,note_on,10,0,0,,7,,,79,127
39471,note_off,78,0,0,,7,,,79,127
39481,note_on,10,0,0,,4,,,76,127
39559,note_off,78,0,0,,4,,,76,127
39569,note_on,10,0,0,,0,,,72,127
39647,note_off,78,0,0,,0,,,72,127
39657,note_on,10,0,0,,7,,,67,127
39735,note_off,78,0,0,,7,,,67,127
39745,note_on,10,0,0,,4,,,64,127
39823,note_off,78,0,0,,4,,,64,127
39833,note_on,10,0,0,,0,,,60,127
39911,note_off,78,0,0,,0,,,60,127
39920,note_off,9,0,0,,0,,,36,127
39921,note_on,1,0,0,,7,,,55,127
39999,note_off,78,0,0,,7,,,55,127
40009,note_on,10,0,0,,4,,,52,127
40087,note_off,78,0,0,,4,,,52,127
40097,note_on,10,0,0,,0,,,48,127
40175,note_off,78,0,0,,0,,,48,127
40185,note_on,10,0,0,,0,,,36,127
40263,note_off,78,0,0,,0,,,36,127
40273,note_on,10,0,0,,7,,,43,127
40362,note_on,89,0,0,,2,,,86,127
40440,note_off,78,0,0,,2,,,86,127
40450,note_on,10,0,0,,11,,,82,127
40528,note_off,78,0,0,,11,,,82,127
40538,note_on,10,0,0,,7,,,79,127
40616,note_off,78,0,0,,7,,,79,127
40626,note_on,10,0,0,,2,,,74,127
40704,note_off,78,0,0,,2,,,74,127
40714,note_on,10,0,0,,11,,,70,127
40792,note_off,78,0,0,,11,,,70,127
40802,note_on,10,0,0,,7,,,67,127
40880,note_off,78,0,0,,7,,,67,127
40890,note_on,10,0,0,,2,,,62,127
40968,note_off,78,0,0,,2,,,62,127
40977,note_off,9,0,0,,7,,,43,127
40978,note_on,1,0,0,,11,,,58,127
41056,note_off,78,0,0,,11,,,58,127
41066,note_on,10,0,0,,7,,,55,127
41144,note_off,78,0,0,,7,,,55,127
41154,note_on,10,0,0,,2,,,50,127
41232,note_off,78,0,0,,2,,,50,127
41242,note_on,10,0,0,,7,,,43,127
41320,note_off,78,0,0,,7,,,43,127
41330,note_on,10,0,0,,2,,,38,127
41419,note_on,89,0,0,,2,,,86,127
41497,note_off,78,0,0,,2,,,86,127
41507,note_on,10,0,0,,10,,,81,127
41585,note_off,78,0,0,,10,,,81,127
41595,note_on,10,0,0,,5,,,77,127
41673,note_off,78,0,0,,5,,,77,127
41683,note_on,10,0,0,,2,,,74,127
41761,note_off,78,0,0,,2,,,74,127
41771,note_on,10,0,0,,10,,,69,127
41849,note_off,78,0,0,,10,,,69,127
41859,note_on,10,0,0,,5,,,65,127
41937,note_off,78,0,0,,5,,,65,127
41947,note_on,10,0,0,,2,,,62,127
42025,note_off,78,0,0,,2,,,62,127
42034,note_off,9,0,0,,2,,,38,127
42035,note_on,1,0,0,,10,,,57,127
42113,note_off,78,0,0,,10,,,57,127
42123,note_on,10,0,0,,5,,,53,127
42201,note_off,78,0,0,,5,,,53,127
42211,note_on,10,0,0,,2,,,50,127
42289,note_off,78,0,0,,2,,,50,127
42299,note_on,10,0,0,,2,,,38,127
42377,note_off,78,0,0,,2,,,38,127
42387,note_on,10,0,0,,11,,,46,127
42476,note_on,89,0,0,,10,,,81,127
42554,note_off,78,0,0,,10,,,81,127
42564,note_on,10,0,0,,7,,,79,127
42642,note_off,78,0,0,,7,,,79,127
42652,note_on,10,0,0,,10,,,81,127
42730,note_off,78,0,0,,10,,,81,127
42740,note_on,10,0,0,,11,,,82,127
42818,note_off,78,0,0,,11,,,82,127
42828,note_on,10,0,0,,7,,,79,127
42906,note_off,78,0,0,,7,,,79,127
42916,note_on,10,0,0,,10,,,81,127
42994,note_off,78,0,0,,10,,,81,127
43004,note_on,10,0,0,,5,,,77,127
43082,note_off,78,0,0,,5,,,77,127
43092,note_on,10,0,0,,7,,,79,127
43170,note_off,78,0,0,,7,,,79,127
43180,note_on,10,0,0,,4,,,76,127
43258,note_off,78,0,0,,4,,,76,127
43268,note_on,10,0,0,,5,,,77,127
43346,note_off,78,0,0,,5,,,77,127
43356,note_on,10,0,0,,2,,,74,127
43434,note_off,78,0,0,,2,,,74,127
43443,note_off,9,0,0,,11,,,46,127
43444,note_on,1,0,0,,7,,,55,127
43444,note_on,0,0,0,,11,,,46,127
43444,note_on,0,0,0,,4,,,76,127
43522,note_off,78,0,0,,4,,,76,127
43532,note_on,10,0,0,,10,,,69,127
43610,note_off,78,0,0,,10,,,69,127
43620,note_on,10,0,0,,7,,,67,127
43698,note_off,78,0,0,,7,,,67,127
43708,note_on,10,0,0,,10,,,69,127
43786,note_off,78,0,0,,10,,,69,127
43795,note_off,9,0,0,,11,,,46,127
43796,note_on,1,0,0,,7,,,43,127
43796,note_on,0,0,0,,11,,,70,127
43874,note_off,78,0,0,,11,,,70,127
43884,note_on,10,0,0,,7,,,67,127
43962,note_off,78,0,0,,7,,,67,127
43972,note_on,10,0,0,,10,,,69,127
44050,note_off,78,0,0,,10,,,69,127
44060,note_on,10,0,0,,5,,,65,127
44138,note_off,78,0,0,,5,,,65,127
44148,note_on,10,0,0,,7,,,67,127
44226,note_off,78,0,0,,7,,,67,127
44236,note_on,10,0,0,,4,,,64,127
44314,note_off,78,0,0,,4,,,64,127
44324,note_on,10,0,0,,5,,,65,127
44402,note_off,78,0,0,,5,,,65,127
44412,note_on,10,0,0,,2,,,62,127
44490,note_off,78,0,0,,2,,,62,127
44498,note_off,8,0,0,,7,,,55,127
44499,note_off,1,0,0,,7,,,43,127
44500,note_on,1,0,0,,10,,,45,127
44500,note_on,0,0,0,,1,,,61,127
44578,note_off,78,0,0,,1,,,61,127
44588,note_on,10,0,0,,10,,,57,127
44666,note_off,78,0,0,,10,,,57,127
44676,note_on,10,0,0,,11,,,58,127
44754,note_off,78,0,0,,11,,,58,127
44764,note_on,10,0,0,,1,,,61,127
44842,note_off,78,0,0,,1,,,61,127
44852,note_on,10,0,0,,2,,,62,127
44930,note_off,78,0,0,,2,,,62,127
44940,note_on,10,0,0,,4,,,64,127
45018,note_off,78,0,0,,4,,,64,127
45028,note_on,10,0,0,,5,,,65,127
45106,note_off,78,0,0,,5,,,65,127
45116,note_on,10,0,0,,7,,,67,127
45194,note_off,78,0,0,,7,,,67,127
45204,note_on,10,0,0,,10,,,69,127
45282,note_off,78,0,0,,10,,,69,127
45292,note_on,10,0,0,,11,,,70,127
45370,note_off,78,0,0,,11,,,70,127
45380,note_on,10,0,0,,1,,,73,127
45458,note_off,78,0,0,,1,,,73,127
45468,note_on,10,0,0,,2,,,74,127
45546,note_off,78,0,0,,2,,,74,127
45554,note_off,8,0,0,,10,,,45,127
45556,note_on,2,0,0,,4,,,76,127
45645,note_on,89,0,0,,10,,,45,127
45723,note_off,78,0,0,,10,,,45,127
45733,note_on,10,0,0,,11,,,46,127
45811,note_off,78,0,0,,11,,,46,127
45821,note_on,10,0,0,,1,,,49,127
45899,note_off,78,0,0,,1,,,49,127
45909,note_on,10,0,0,,2,,,50,127
45987,note_off,78,0,0,,2,,,50,127
45997,note_on,10,0,0,,4,,,52,127
46075,note_off,78,0,0,,4,,,52,127
46085,note_on,10,0,0,,5,,,53,127
46163,note_off,78,0,0,,5,,,53,127
46173,note_on,10,0,0,,7,,,55,127
46251,note_off,78,0,0,,7,,,55,127
46261,note_on,10,0,0,,10,,,57,127
46339,note_off,78,0,0,,10,,,57,127
46349,note_on,10,0,0,,11,,,58,127
46427,note_off,78,0,0,,11,,,58,127
46437,note_on,10,0,0,,1,,,61,127
46515,note_off,78,0,0,,1,,,61,127
46525,note_on,10,0,0,,2,,,62,127
46603,note_off,78,0,0,,2,,,62,127
46611,note_off,8,0,0,,4,,,76,127
46613,note_on,2,0,0,,4,,,64,127
46702,note_on,89,0,0,,10,,,57,127
46780,note_off,78,0,0,,10,,,57,127
46790,note_on,10,0,0,,11,,,58,127
46868,note_off,78,0,0,,11,,,58,127
46878,note_on,10,0,0,,1,,,61,127
46956,note_off,78,0,0,,1,,,61,127
46966,note_on,10,0,0,,2,,,62,127
47044,note_off,78,0,0,,2,,,62,127
47045,note_off,1,0,0,,4,,,64,127
47054,note_on,9,0,0,,4,,,64,127
47143,note_on,89,0,0,,5,,,65,127
47221,note_off,78,0,0,,5,,,65,127
47231,note_on,10,0,0,,7,,,67,127
47309,note_off,78,0,0,,7,,,67,127
47319,note_on,10,0,0,,10,,,69,127
47397,note_off,78,0,0,,10,,,69,127
47407,note_on,10,0,0,,11,,,70,127
47485,note_off,78,0,0,,11,,,70,127
47495,note_on,10,0,0,,1,,,73,127
47573,note_off,78,0,0,,1,,,73,127
47583,note_on,10,0,0,,2,,,74,127
47661,note_off,78,0,0,,4,,,64,127
47662,note_off,1,0,0,,2,,,74,127
47672,note_on,10,0,0,,4,,,76,127
47761,note_on,89,0,0,,10,,,45,127
47839,note_off,78,0,0,,10,,,45,127
47849,note_on,10,0,0,,11,,,46,127
47927,note_off,78,0,0,,11,,,46,127
47937,note_on,10,0,0,,1,,,49,127
48015,note_off,78,0,0,,1,,,49,127
48025,note_on,10,0,0,,2,,,50,127
48103,note_off,78,0,0,,2,,,50,127
48113,note_on,10,0,0,,4,,,52,127
48191,note_off,78,0,0,,4,,,52,127
48201,note_on,10,0,0,,5,,,53,127
48279,note_off,78,0,0,,5,,,53,127
48289,note_on,10,0,0,,7,,,55,127
48367,note_off,78,0,0,,7,,,55,127
48377,note_on,10,0,0,,10,,,57,127
48455,note_off,78,0,0,,10,,,57,127
48465,note_on,10,0,0,,11,,,58,127
48543,note_off,78,0,0,,11,,,58,127
48553,note_on,10,0,0,,1,,,61,127
48631,note_off,78,0,0,,1,,,61,127
48641,note_on,10,0,0,,2,,,62,127
48719,note_off,78,0,0,,2,,,62,127
48727,note_off,8,0,0,,4,,,76,127
48729,note_on,2,0,0,,4,,,64,127
48818,note_on,89,0,0,,4,,,76,127
48896,note_off,78,0,0,,4,,,76,127
48906,note_on,10,0,0,,1,,,73,127
48984,note_off,78,0,0,,1,,,73,127
48994,note_on,10,0,0,,6,,,66,127
49072,note_off,78,0,0,,6,,,66,127
49082,note_on,10,0,0,,7,,,67,127
49170,note_off,88,0,0,,4,,,64,127
49171,note_on,1,0,0,,4,,,64,127
49249,note_off,78,0,0,,4,,,64,127
49258,note_off,9,0,0,,7,,,67,127
49259,note_on,1,0,0,,1,,,61,127
49259,note_on,0,0,0,,1,,,73,127
49337,note_off,78,0,0,,1,,,61,127
49347,note_on,10,0,0,,4,,,64,127
49425,note_off,78,0,0,,4,,,64,127
49434,note_off,9,0,0,,1,,,73,127
49435,note_on,1,0,0,,10,,,57,127
49435,note_on,0,0,0,,4,,,76,127
49513,note_off,78,0,0,,10,,,57,127
49523,note_on,10,0,0,,4,,,64,127
49601,note_off,78,0,0,,4,,,64,127
49610,note_off,9,0,0,,4,,,76,127
49611,note_on,1,0,0,,1,,,61,127
49611,note_on,0,0,0,,7,,,79,127
49689,note_off,78,0,0,,1,,,61,127
49699,note_on,10,0,0,,4,,,64,127
49777,note_off,78,0,0,,4,,,64,127
49786,note_off,9,0,0,,7,,,79,127
49787,note_on,1,0,0,,2,,,62,127
49787,note_on,0,0,0,,6,,,78,127
49865,note_off,78,0,0,,6,,,78,127
49875,note_on,10,0,0,,10,,,81,127
49953,note_off,78,0,0,,10,,,81,127
49962,note_off,9,0,0,,2,,,62,127
49963,note_on,1,0,0,,6,,,54,127
49963,note_on,0,0,0,,7,,,79,127
50041,note_off,78,0,0,,7,,,79,127
50051,note_on,10,0,0,,6,,,78,127
50129,note_off,78,0,0,,6,,,78,127
50138,note_off,9,0,0,,6,,,54,127
50139,note_on,1,0,0,,7,,,55,127
50139,note_on,0,0,0,,12,,,83,127
50217,note_off,78,0,0,,12,,,83,127
50227,note_on,10,0,0,,10,,,81,127
50305,note_off,78,0,0,,10,,,81,127
50314,note_off,9,0,0,,7,,,55,127
50315,note_on,1,0,0,,10,,,57,127
50315,note_on,0,0,0,,7,,,79,127
50393,note_off,78,0,0,,7,,,79,127
50403,note_on,10,0,0,,6,,,78,127
50481,note_off,78,0,0,,6,,,78,127
50490,note_off,9,0,0,,10,,,57,127
50491,note_on,1,0,0,,12,,,59,127
50491,note_on,0,0,0,,4,,,76,127
50569,note_off,78,0,0,,4,,,76,127
50579,note_on,10,0,0,,2,,,74,127
50657,note_off,78,0,0,,2,,,74,127
50666,note_off,9,0,0,,12,,,59,127
50667,note_on,1,0,0,,7,,,55,127
50667,note_on,0,0,0,,1,,,73,127
50745,note_off,78,0,0,,1,,,73,127
50755,note_on,10,0,0,,2,,,74,127
50833,note_off,78,0,0,,2,,,74,127
50842,note_off,9,0,0,,7,,,55,127
50843,note_on,1,0,0,,10,,,57,127
50843,note_on,0,0,0,,1,,,73,127
50921,note_off,78,0,0,,1,,,73,127
50931,note_on,10,0,0,,10,,,69,127
51009,note_off,78,0,0,,10,,,69,127
51019,note_on,10,0,0,,11,,,70,127
51097,note_off,78,0,0,,11,,,70,127
51107,note_on,10,0,0,,1,,,73,127
51185,note_off,78,0,0,,1,,,73,127
51195,note_on,10,0,0,,2,,,74,127
51273,note_off,78,0,0,,2,,,74,127
51283,note_on,10,0,0,,4,,,76,127
51361,note_off,78,0,0,,4,,,76,127
51371,note_on,10,0,0,,5,,,77,127
51449,note_off,78,0,0,,5,,,77,127
51459,note_on,10,0,0,,7,,,79,127
51537,note_off,78,0,0,,7,,,79,127
51547,note_on,10,0,0,,10,,,81,127
51625,note_off,78,0,0,,10,,,81,127
51635,note_on,10,0,0,,11,,,82,127
51713,note_off,78,0,0,,11,,,82,127
51723,note_on,10,0,0,,1,,,85,127
51801,note_off,78,0,0,,1,,,85,127
51811,note_on,10,0,0,,2,,,86,127
51889,note_off,78,0,0,,2,,,86,127
51897,note_off,8,0,0,,10,,,57,127
51899,note_on,2,0,0,,4,,,88,127
51988,note_on,89,0,0,,10,,,57,127
52066,note_off,78,0,0,,10,,,57,127
52076,note_on,10,0,0,,11,,,58,127
52154,note_off,78,0,0,,11,,,58,127
52164,note_on,10,0,0,,1,,,61,127
52242,note_off,78,0,0,,1,,,61,127
52252,note_on,10,0,0,,2,,,62,127
52330,note_off,78,0,0,,2,,,62,127
52340,note_on,10,0,0,,4,,,64,127
52418,note_off,78,0,0,,4,,,64,127
52428,note_on,10,0,0,,5,,,65,127
52506,note_off,78,0,0,,5,,,65,127
52516,note_on,10,0,0,,7,,,67,127
52594,note_off,78,0,0,,7,,,67,127
52604,note_on,10,0,0,,10,,,69,127
52682,note_off,78,0,0,,10,,,69,127
52692,note_on,10,0,0,,11,,,70,127
52770,note_off,78,0,0,,11,,,70,127
52780,note_on,10,0,0,,1,,,73,127
52858,note_off,78,0,0,,1,,,73,127
52868,note_on,10,0,0,,2,,,74,127
52946,note_off,78,0,0,,2,,,74,127
52954,note_off,8,0,0,,4,,,88,127
52956,note_on,2,0,0,,4,,,76,127
53045,note_on,89,0,0,,10,,,69,127
53123,note_off,78,0,0,,10,,,69,127
53133,note_on,10,0,0,,11,,,70,127
53211,note_off,78,0,0,,11,,,70,127
53221,note_on,10,0,0,,1,,,73,127
53299,note_off,78,0,0,,1,,,73,127
53309,note_on,10,0,0,,2,,,74,127
53387,note_off,78,0,0,,2,,,74,127
53388,note_off,1,0,0,,4,,,76,127
53397,note_on,9,0,0,,4,,,76,127
53486,note_on,89,0,0,,5,,,77,127
53564,note_off,78,0,0,,5,,,77,127
53574,note_on,10,0,0,,7,,,79,127
53652,note_off,78,0,0,,7,,,79,127
53662,note_on,10,0,0,,10,,,81,127
53740,note_off,78,0,0,,10,,,81,127
53750,note_on,10,0,0,,11,,,82,127
53828,note_off,78,0,0,,11,,,82,127
53838,note_on,10,0,0,,1,,,85,127
53916,note_off,78,0,0,,1,,,85,127
53926,note_on,10,0,0,,2,,,86,127
54004,note_off,78,0,0,,4,,,76,127
54005,note_off,1,0,0,,2,,,86,127
54015,note_on,10,0,0,,4,,,88,127
54104,note_on,89,0,0,,10,,,57,127
54182,note_off,78,0,0,,10,,,57,127
54192,note_on,10,0,0,,11,,,58,127
54270,note_off,78,0,0,,11,,,58,127
54280,note_on,10,0,0,,1,,,61,127
54358,note_off,78,0,0,,1,,,61,127
54368,note_on,10,0,0,,2,,,62,127
54446,note_off,78,0,0,,2,,,62,127
54456,note_on,10,0,0,,4,,,64,127
54534,note_off,78,0,0,,4,,,64,127
54544,note_on,10,0,0,,5,,,65,127
54622,note_off,78,0,0,,5,,,65,127
54632,note_on,10,0,0,,7,,,67,127
54710,note_off,78,0,0,,7,,,67,127
54720,note_on,10,0,0,,10,,,69,127
54798,note_off,78,0,0,,10,,,69,127
54808,note_on,10,0,0,,11,,,70,127
54886,note_off,78,0,0,,11,,,70,127
54896,note_on,10,0,0,,1,,,73,127
54974,note_off,78,0,0,,1,,,73,127
54984,note_on,10,0,0,,2,,,74,127
55062,note_off,78,0,0,,2,,,74,127
55072,note_on,10,0,0,,4,,,76,127
55160,note_off,88,0,0,,4,,,88,127
55161,note_on,1,0,0,,4,,,88,127
55239,note_off,78,0,0,,4,,,88,127
55249,note_on,10,0,0,,1,,,85,127
55327,note_off,78,0,0,,1,,,85,127
55337,note_on,10,0,0,,6,,,78,127
55415,note_off,78,0,0,,6,,,78,127
55425,note_on,10,0,0,,7,,,79,127
55513,note_off,88,0,0,,4,,,76,127
55514,note_on,1,0,0,,4,,,76,127
55592,note_off,78,0,0,,4,,,76,127
55601,note_off,9,0,0,,7,,,79,127
55602,note_on,1,0,0,,1,,,73,127
55602,note_on,0,0,0,,1,,,85,127
55680,note_off,78,0,0,,1,,,73,127
55690,note_on,10,0,0,,4,,,76,127
55768,note_off,78,0,0,,4,,,76,127
55777,note_off,9,0,0,,1,,,85,127
55778,note_on,1,0,0,,10,,,69,127
55778,note_on,0,0,0,,4,,,88,127
55856,note_off,78,0,0,,10,,,69,127
55866,note_on,10,0,0,,4,,,76,127
55944,note_off,78,0,0,,4,,,76,127
55953,note_off,9,0,0,,4,,,88,127
55954,note_on,1,0,0,,1,,,73,127
55954,note_on,0,0,0,,7,,,79,127
56032,note_off,78,0,0,,1,,,73,127
56042,note_on,10,0,0,,4,,,76,127
56120,note_off,78,0,0,,4,,,76,127
56129,note_off,9,0,0,,7,,,79,127
56130,note_on,1,0,0,,2,,,74,127
56130,note_on,0,0,0,,6,,,78,127
56208,note_off,78,0,0,,6,,,78,127
56218,note_on,10,0,0,,10,,,81,127
56296,note_off,78,0,0,,10,,,81,127
56305,note_off,9,0,0,,2,,,74,127
56306,note_on,1,0,0,,6,,,66,127
56306,note_on,0,0,0,,7,,,79,127
56384,note_off,78,0,0,,7,,,79,127
56394,note_on,10,0,0,,6,,,78,127
56472,note_off,78,0,0,,6,,,78,127
56481,note_off,9,0,0,,6,,,66,127
56482,note_on,1,0,0,,7,,,67,127
56482,note_on,0,0,0,,12,,,83,127
56560,note_off,78,0,0,,12,,,83,127
56570,note_on,10,0,0,,7,,,79,127
56648,note_off,78,0,0,,7,,,79,127
56657,note_off,9,0,0,,7,,,67,127
56658,note_on,1,0,0,,12,,,71,127
56658,note_on,0,0,0,,6,,,78,127
56736,note_off,78,0,0,,6,,,78,127
56746,note_on,10,0,0,,4,,,76,127
56824,note_off,78,0,0,,4,,,76,127
56833,note_off,9,0,0,,12,,,71,127
56834,note_on,1,0,0,,10,,,69,127
56834,note_on,0,0,0,,6,,,78,127
56912,note_off,78,0,0,,6,,,78,127
56922,note_on,10,0,0,,4,,,76,127
57000,note_off,78,0,0,,4,,,76,127
57009,note_off,9,0,0,,10,,,69,127
57010,note_on,1,0,0,,10,,,57,127
57010,note_on,0,0,0,,2,,,74,127
57088,note_off,78,0,0,,2,,,74,127
57098,note_on,10,0,0,,1,,,73,127
57176,note_off,78,0,0,,1,,,73,127
57185,note_off,9,0,0,,10,,,57,127
57186,note_on,1,0,0,,2,,,50,127
57186,note_on,0,0,0,,2,,,74,127
57264,note_off,78,0,0,,2,,,74,127
57274,note_on,10,0,0,,10,,,81,127
57352,note_off,78,0,0,,10,,,81,127
57362,note_on,10,0,0,,6,,,78,127
57440,note_off,78,0,0,,6,,,78,127
57450,note_on,10,0,0,,2,,,74,127
57528,note_off,78,0,0,,2,,,74,127
57538,note_on,10,0,0,,10,,,69,127
57616,note_off,78,0,0,,10,,,69,127
57626,note_on,10,0,0,,6,,,66,127
57704,note_off,78,0,0,,6,,,66,127
57714,note_on,10,0,0,,2,,,62,127
57792,note_off,78,0,0,,2,,,62,127
57802,note_on,10,0,0,,10,,,57,127
57880,note_off,78,0,0,,10,,,57,127
57889,note_off,9,0,0,,2,,,50,127
57890,note_on,1,0,0,,6,,,54,127
57968,note_off,78,0,0,,6,,,54,127
57978,note_on,10,0,0,,2,,,50,127
58056,note_off,78,0,0,,2,,,50,127
58066,note_on,10,0,0,,10,,,45,127
58144,note_off,78,0,0,,10,,,45,127
58154,note_on,10,0,0,,2,,,38,127
58232,note_off,78,0,0,,2,,,38,127
58242,note_on,10,0,0,,7,,,31,127
58331,note_on,89,0,0,,12,,,83,127
58409,note_off,78,0,0,,12,,,83,127
58419,note_on,10,0,0,,7,,,79,127
58497,note_off,78,0,0,,7,,,79,127
58507,note_on,10,0,0,,2,,,74,127
58585,note_off,78,0,0,,2,,,74,127
58595,note_on,10,0,0,,12,,,71,127
58673,note_off,78,0,0,,12,,,71,127
58683,note_on,10,0,0,,7,,,67,127
58761,note_off,78,0,0,,7,,,67,127
58771,note_on,10,0,0,,2,,,62,127
58849,note_off,78,0,0,,2,,,62,127
58859,note_on,10,0,0,,12,,,59,127
58937,note_off,78,0,0,,12,,,59,127
58946,note_off,9,0,0,,7,,,31,127
58947,note_on,1,0,0,,7,,,55,127
59025,note_off,78,0,0,,7,,,55,127
59035,note_on,10,0,0,,2,,,50,127
59113,note_off,78,0,0,,2,,,50,127
59123,note_on,10,0,0,,12,,,47,127
59201,note_off,78,0,0,,12,,,47,127
59211,note_on,10,0,0,,7,,,43,127
59289,note_off,78,0,0,,7,,,43,127
59299,note_on,10,0,0,,2,,,38,127
59388,note_on,89,0,0,,10,,,81,127
59466,note_off,78,0,0,,10,,,81,127
59476,note_on,10,0,0,,6,,,78,127
59554,note_off,78,0,0,,6,,,78,127
59564,note_on,10,0,0,,2,,,74,127
59642,note_off,78,0,0,,2,,,74,127
59652,note_on,10,0,0,,10,,,69,127
59730,note_off,78,0,0,,10,,,69,127
59740,note_on,10,0,0,,6,,,66,127
59818,note_off,78,0,0,,6,,,66,127
59828,note_on,10,0,0,,2,,,62,127
59906,note_off,78,0,0,,2,,,62,127
59916,note_on,10,0,0,,10,,,57,127
59994,note_off,78,0,0,,10,,,57,127
60003,note_off,9,0,0,,2,,,38,127
60004,note_on,1,0,0,,6,,,54,127
60082,note_off,78,0,0,,6,,,54,127
60092,note_on,10,0,0,,2,,,50,127
60170,note_off,78,0,0,,2,,,50,127
60180,note_on,10,0,0,,10,,,45,127
60258,note_off,78,0,0,,10,,,45,127
60268,note_on,10,0,0,,2,,,38,127
60346,note_off,78,0,0,,2,,,38,127
60356,note_on,10,0,0,,7,,,43,127
60356,note_on,0,0,0,,7,,,55,127
60445,note_on,89,0,0,,12,,,83,127
60523,note_off,78,0,0,,12,,,83,127
60533,note_on,10,0,0,,7,,,79,127
60611,note_off,78,0,0,,7,,,79,127
60621,note_on,10,0,0,,4,,,76,127
60699,note_off,78,0,0,,4,,,76,127
60708,note_off,9,0,0,,7,,,55,127
60708,note_off,0,0,0,,7,,,43,127
60709,note_on,1,0,0,,10,,,57,127
60709,note_on,0,0,0,,6,,,78,127
60787,note_off,78,0,0,,6,,,78,127
60797,note_on,10,0,0,,10,,,81,127
60875,note_off,78,0,0,,10,,,81,127
60885,note_on,10,0,0,,6,,,78,127
60963,note_off,78,0,0,,6,,,78,127
60973,note_on,10,0,0,,2,,,74,127
61051,note_off,78,0,0,,2,,,74,127
61060,note_off,9,0,0,,10,,,57,127
61061,note_on,1,0,0,,10,,,45,127
61061,note_on,0,0,0,,4,,,76,127
61139,note_off,78,0,0,,4,,,76,127
61149,note_on,10,0,0,,7,,,79,127
61227,note_off,78,0,0,,7,,,79,127
61237,note_on,10,0,0,,4,,,76,127
61315,note_off,78,0,0,,4,,,76,127
61325,note_on,10,0,0,,1,,,73,127
61403,note_off,78,0,0,,1,,,73,127
61412,note_off,9,0,0,,10,,,45,127
61413,note_on,1,0,0,,2,,,50,127
61413,note_on,0,0,0,,2,,,74,127
61491,note_off,78,0,0,,2,,,74,127
61501,note_on,10,0,0,,4,,,76,127
61579,note_off,78,0,0,,4,,,76,127
61588,note_off,9,0,0,,2,,,50,127
61589,note_on,1,0,0,,7,,,55,127
61589,note_on,0,0,0,,12,,,59,127
61589,note_on,0,0,0,,2,,,62,127
61589,note_on,0,0,0,,2,,,74,127
61667,note_off,78,0,0,,2,,,74,127
61677,note_on,10,0,0,,1,,,73,127
61755,note_off,78,0,0,,1,,,73,127
61764,note_off,9,0,0,,12,,,59,127
61764,note_off,0,0,0,,7,,,55,127
61765,note_on,1,0,0,,6,,,54,127
61765,note_on,0,0,0,,10,,,57,127
61765,note_on,0,0,0,,2,,,74,127
61843,note_off,78,0,0,,2,,,74,127
61853,note_on,10,0,0,,4,,,76,127
61931,note_off,78,0,0,,4,,,76,127
61940,note_off,9,0,0,,10,,,57,127
61940,note_off,0,0,0,,6,,,54,127
61941,note_on,1,0,0,,7,,,55,127
61941,note_on,0,0,0,,4,,,52,127
61941,note_on,0,0,0,,6,,,78,127
62019,note_off,78,0,0,,6,,,78,127
62029,note_on,10,0,0,,7,,,79,127
62107,note_off,78,0,0,,7,,,79,127
62116,note_off,9,0,0,,4,,,52,127
62116,note_off,0,0,0,,7,,,55,127
62117,note_on,1,0,0,,10,,,57,127
62117,note_on,0,0,0,,6,,,54,127
62117,note_on,0,0,0,,10,,,81,127
62195,note_off,78,0,0,,10,,,81,127
62205,note_on,10,0,0,,12,,,83,127
62283,note_off,78,0,0,,12,,,83,127
62292,note_off,9,0,0,,6,,,54,127
62292,note_off,0,0,0,,10,,,57,127
62293,note_on,1,0,0,,12,,,59,127
62293,note_on,0,0,0,,7,,,55,127
62293,note_on,0,0,0,,1,,,85,127
62371,note_off,78,0,0,,1,,,85,127
62381,note_on,10,0,0,,2,,,86,127
62459,note_off,78,0,0,,2,,,86,127
62468,note_off,9,0,0,,7,,,55,127
62468,note_off,0,0,0,,12,,,59,127
62469,note_off,1,0,0,,2,,,62,127
62469,note_on,0,0,0,,6,,,54,127
62469,note_on,0,0,0,,2,,,62,127
62469,note_on,0,0,0,,10,,,57,127
62469,note_on,0,0,0,,2,,,74,127
62547,note_off,78,0,0,,2,,,74,127
62557,note_on,10,0,0,,4,,,76,127
62635,note_off,78,0,0,,4,,,76,127
62644,note_off,9,0,0,,10,,,57,127
62644,note_off,0,0,0,,6,,,54,127
62645,note_on,1,0,0,,4,,,52,127
62645,note_on,0,0,0,,7,,,55,127
62645,note_on,0,0,0,,2,,,74,127
62723,note_off,78,0,0,,2,,,74,127
62733,note_on,10,0,0,,1,,,73,127
62811,note_off,78,0,0,,1,,,73,127
62820,note_off,9,0,0,,7,,,55,127
62820,note_off,0,0,0,,4,,,52,127
62821,note_on,1,0,0,,6,,,54,127
62821,note_on,0,0,0,,10,,,57,127
62821,note_on,0,0,0,,2,,,74,127
62899,note_off,78,0,0,,2,,,74,127
62909,note_on,10,0,0,,4,,,76,127
62987,note_off,78,0,0,,4,,,76,127
62996,note_off,9,0,0,,10,,,57,127
62996,note_off,0,0,0,,6,,,54,127
62997,note_on,1,0,0,,7,,,55,127
62997,note_on,0,0,0,,12,,,59,127
62997,note_on,0,0,0,,6,,,78,127
63075,note_off,78,0,0,,6,,,78,127
63085,note_on,10,0,0,,7,,,79,127
63163,note_off,78,0,0,,7,,,79,127
63172,note_off,9,0,0,,12,,,59,127
63172,note_off,0,0,0,,7,,,55,127
63173,note_on,1,0,0,,6,,,54,127
63173,note_on,0,0,0,,10,,,57,127
63173,note_on,0,0,0,,10,,,81,127
63251,note_off,78,0,0,,10,,,81,127
63261,note_on,10,0,0,,12,,,83,127
63339,note_off,78,0,0,,12,,,83,127
63348,note_off,9,0,0,,10,,,57,127
63348,note_off,0,0,0,,6,,,54,127
63349,note_on,1,0,0,,4,,,52,127
63349,note_on,0,0,0,,7,,,55,127
63349,note_on,0,0,0,,1,,,85,127
63427,note_off,78,0,0,,1,,,85,127
63437,note_on,10,0,0,,2,,,86,127
63515,note_off,78,0,0,,2,,,86,127
63523,note_off,8,0,0,,2,,,62,127
63524,note_off,1,0,0,,7,,,55,127
63524,note_off,0,0,0,,4,,,52,127
63525,note_on,1,0,0,,6,,,54,127
63525,note_on,0,0,0,,10,,,57,127
63525,note_on,0,0,0,,2,,,62,127
63525,note_on,0,0,0,,2,,,74,127
63603,note_off,78,0,0,,2,,,74,127
63613,note_on,10,0,0,,1,,,85,127
63691,note_off,78,0,0,,1,,,85,127
63700,note_off,9,0,0,,2,,,62,127
63700,note_off,0,0,0,,10,,,57,127
63700,note_off,0,0,0,,6,,,54,127
63701,note_on,1,0,0,,12,,,59,127
63701,note_on,0,0,0,,12,,,47,127
63701,note_on,0,0,0,,2,,,86,127
63779,note_off,78,0,0,,2,,,86,127
63789,note_on,10,0,0,,2,,,74,127
63867,note_off,78,0,0,,2,,,74,127
63876,note_off,9,0,0,,12,,,47,127
63876,note_off,0,0,0,,12,,,59,127
63877,note_on,1,0,0,,10,,,57,127
63877,note_on,0,0,0,,10,,,45,127
63877,note_on,0,0,0,,1,,,85,127
63955,note_off,78,0,0,,1,,,85,127
63965,note_on,10,0,0,,2,,,86,127
64043,note_off,78,0,0,,2,,,86,127
64053,note_on,10,0,0,,2,,,74,127
64131,note_off,78,0,0,,2,,,74,127
64141,note_on,10,0,0,,6,,,78,127
64219,note_off,78,0,0,,6,,,78,127
64228,note_off,9,0,0,,10,,,45,127
64228,note_off,0,0,0,,10,,,57,127
64229,note_on,1,0,0,,10,,,45,127
64229,note_on,0,0,0,,10,,,57,127
64229,note_on,0,0,0,,6,,,78,127
64287,note_off,58,0,0,,6,,,78,127
64288,note_on,1,0,0,,4,,,76,127
64346,note_off,58,0,0,,4,,,76,127
64347,note_on,1,0,0,,6,,,78,127
64405,note_off,58,0,0,,6,,,78,127
64406,note_on,1,0,0,,4,,,76,127
64464,note_off,58,0,0,,4,,,76,127
64465,note_on,1,0,0,,2,,,74,127
64523,note_off,58,0,0,,2,,,74,127
64524,note_on,1,0,0,,4,,,76,127
64582,note_off,58,0,0,,4,,,76,127
64582,note_off,0,0,0,,10,,,57,127
64582,note_off,0,0,0,,10,,,45,127
64583,note_on,1,0,0,,2,,,50,127
64583,note_on,0,0,0,,2,,,74,127
64661,note_off,78,0,0,,2,,,74,127
64671,note_on,10,0,0,,4,,,76,127
64749,note_off,78,0,0,,4,,,76,127
64758,note_off,9,0,0,,2,,,50,127
64759,note_on,1,0,0,,12,,,59,127
64759,note_on,0,0,0,,7,,,55,127
64759,note_on,0,0,0,,2,,,62,127
64759,note_on,0,0,0,,2,,,74,127
64837,note_off,78,0,0,,2,,,74,127
64847,note_on,10,0,0,,1,,,73,127
64925,note_off,78,0,0,,1,,,73,127
64934,note_off,9,0,0,,7,,,55,127
64934,note_off,0,0,0,,12,,,59,127
64935,note_on,1,0,0,,6,,,54,127
64935,note_on,0,0,0,,10,,,57,127
64935,note_on,0,0,0,,2,,,74,127
65013,note_off,78,0,0,,2,,,74,127
65023,note_on,10,0,0,,4,,,76,127
65101,note_off,78,0,0,,4,,,76,127
65110,note_off,9,0,0,,10,,,57,127
65110,note_off,0,0,0,,6,,,54,127
65111,note_on,1,0,0,,4,,,52,127
65111,note_on,0,0,0,,7,,,55,127
65111,note_on,0,0,0,,6,,,78,127
65189,note_off,78,0,0,,6,,,78,127
65199,note_on,10,0,0,,7,,,79,127
65277,note_off,78,0,0,,7,,,79,127
65286,note_off,9,0,0,,7,,,55,127
65286,note_off,0,0,0,,4,,,52,127
65287,note_on,1,0,0,,6,,,54,127
65287,note_on,0,0,0,,10,,,57,127
65287,note_on,0,0,0,,10,,,81,127
65365,note_off,78,0,0,,10,,,81,127
65375,note_on,10,0,0,,12,,,83,127
65453,note_off,78,0,0,,12,,,83,127
65462,note_off,9,0,0,,10,,,57,127
65462,note_off,0,0,0,,6,,,54,127
65463,note_on,1,0,0,,7,,,55,127
65463,note_on,0,0,0,,12,,,59,127
65463,note_on,0,0,0,,1,,,85,127
65541,note_off,78,0,0,,1,,,85,127
65551,note_on,10,0,0,,2,,,86,127
65629,note_off,78,0,0,,2,,,86,127
65638,note_off,9,0,0,,12,,,59,127
65638,note_off,0,0,0,,7,,,55,127
65639,note_off,1,0,0,,2,,,62,127
65639,note_on,0,0,0,,6,,,54,127
65639,note_on,0,0,0,,10,,,57,127
65639,note_on,0,0,0,,2,,,62,127
65639,note_on,0,0,0,,2,,,74,127
65717,note_off,78,0,0,,2,,,74,127
65727,note_on,10,0,0,,4,,,76,127
65805,note_off,78,0,0,,4,,,76,127
65814,note_off,9,0,0,,10,,,57,127
65814,note_off,0,0,0,,6,,,54,127
65815,note_on,1,0,0,,7,,,55,127
65815,note_on,0,0,0,,4,,,52,127
65815,note_on,0,0,0,,2,,,74,127
65893,note_off,78,0,0,,2,,,74,127
65903,note_on,10,0,0,,1,,,73,127
65981,note_off,78,0,0,,1,,,73,127
65990,note_off,9,0,0,,4,,,52,127
65990,note_off,0,0,0,,7,,,55,127
65991,note_on,1,0,0,,6,,,54,127
65991,note_on,0,0,0,,10,,,57,127
65991,note_on,0,0,0,,2,,,74,127
66069,note_off,78,0,0,,2,,,74,127
66079,note_on,10,0,0,,4,,,76,127
66157,note_off,78,0,0,,4,,,76,127
66166,note_off,9,0,0,,10,,,57,127
66166,note_off,0,0,0,,6,,,54,127
66167,note_on,1,0,0,,7,,,55,127
66167,note_on,0,0,0,,12,,,59,127
66167,note_on,0,0,0,,6,,,78,127
66245,note_off,78,0,0,,6,,,78,127
66255,note_on,10,0,0,,7,,,79,127
66333,note_off,78,0,0,,7,,,79,127
66342,note_off,9,0,0,,12,,,59,127
66342,note_off,0,0,0,,7,,,55,127
66343,note_on,1,0,0,,6,,,54,127
66343,note_on,0,0,0,,10,,,57,127
66343,note_on,0,0,0,,10,,,81,127
66421,note_off,78,0,0,,10,,,81,127
66431,note_on,10,0,0,,12,,,83,127
66509,note_off,78,0,0,,12,,,83,127
66518,note_off,9,0,0,,10,,,57,127
66518,note_off,0,0,0,,6,,,54,127
66519,note_on,1,0,0,,7,,,55,127
66519,note_on,0,0,0,,4,,,52,127
66519,note_on,0,0,0,,1,,,85,127
66597,note_off,78,0,0,,1,,,85,127
66607,note_on,10,0,0,,2,,,86,127
66685,note_off,78,0,0,,2,,,86,127
66693,note_off,8,0,0,,2,,,62,127
66694,note_off,1,0,0,,4,,,52,127
66694,note_off,0,0,0,,7,,,55,127
66695,note_on,1,0,0,,6,,,54,127
66695,note_on,0,0,0,,2,,,62,127
66695,note_on,0,0,0,,10,,,57,127
66695,note_on,0,0,0,,2,,,74,127
66773,note_off,78,0,0,,2,,,74,127
66783,note_on,10,0,0,,1,,,85,127
66861,note_off,78,0,0,,1,,,85,127
66870,note_off,9,0,0,,10,,,57,127
66870,note_off,0,0,0,,2,,,62,127
66870,note_off,0,0,0,,6,,,54,127
66871,note_on,1,0,0,,12,,,59,127
66871,note_on,0,0,0,,12,,,47,127
66871,note_on,0,0,0,,2,,,86,127
66949,note_off,78,0,0,,2,,,86,127
66959,note_on,10,0,0,,2,,,74,127
67037,note_off,78,0,0,,2,,,74,127
67046,note_off,9,0,0,,12,,,47,127
67046,note_off,0,0,0,,12,,,59,127
67047,note_on,1,0,0,,10,,,45,127
67047,note_on,0,0,0,,10,,,57,127
67047,note_on,0,0,0,,1,,,85,127
67125,note_off,78,0,0,,1,,,85,127
67135,note_on,10,0,0,,2,,,86,127
67213,note_off,78,0,0,,2,,,86,127
67223,note_on,10,0,0,,2,,,74,127
67301,note_off,78,0,0,,2,,,74,127
67311,note_on,10,0,0,,6,,,78,127
67389,note_off,78,0,0,,6,,,78,127
67398,note_off,9,0,0,,10,,,57,127
67398,note_off,0,0,0,,10,,,45,127
67399,note_on,1,0,0,,10,,,45,127
67399,note_on,0,0,0,,6,,,78,127
67457,note_off,58,0,0,,6,,,78,127
67458,note_on,1,0,0,,4,,,76,127
67516,note_off,58,0,0,,4,,,76,127
67517,note_on,1,0,0,,6,,,78,127
67575,note_off,58,0,0,,6,,,78,127
67576,note_on,1,0,0,,4,,,76,127
67634,note_off,58,0,0,,4,,,76,127
67635,note_on,1,0,0,,2,,,74,127
67693,note_off,58,0,0,,2,,,74,127
67694,note_on,1,0,0,,4,,,76,127
67752,note_off,58,0,0,,4,,,76,127
67752,note_off,0,0,0,,10,,,45,127
67753,note_on,1,0,0,,2,,,50,127
67753,note_on,0,0,0,,2,,,74,127
67831,note_off,78,0,0,,2,,,74,127
67841,note_on,10,0,0,,2,,,86,127
67919,note_off,78,0,0,,2,,,86,127
67929,note_on,10,0,0,,10,,,81,127
68007,note_off,78,0,0,,10,,,81,127
68017,note_on,10,0,0,,6,,,78,127
68095,note_off,78,0,0,,6,,,78,127
68101,note_off,6,0,0,,2,,,50,127
68105,note_on,4,0,0,,2,,,74,127
68183,note_off,78,0,0,,2,,,74,127
68193,note_on,10,0,0,,10,,,69,127
68271,note_off,78,0,0,,10,,,69,127
68281,note_on,10,0,0,,6,,,66,127
68359,note_off,78,0,0,,6,,,66,127
68369,note_on,10,0,0,,2,,,62,127
68447,note_off,78,0,0,,2,,,62,127
68457,note_on,10,0,0,,10,,,57,127
68535,note_off,78,0,0,,10,,,57,127
68545,note_on,10,0,0,,6,,,54,127
68623,note_off,78,0,0,,6,,,54,127
68633,note_on,10,0,0,,2,,,50,127
68711,note_off,78,0,0,,2,,,50,127
68721,note_on,10,0,0,,10,,,45,127
68799,note_off,78,0,0,,10,,,45,127
68827,note_on,28,0,0,,2,,,38,127
70759,note_off,1932,0,0,,2,,,38,127
75264,end_of_track,4505,1,0,,,,,,
