tick,type,time,meta,track,program,channel,pitch,tempo,note,velocity
0,copyright,0,1,0,,,,,,
0,program_change,0,0,0,6,0,,,,
0,pitchwheel,0,0,0,,0,0,,,
0,program_change,0,0,0,6,1,,,,
0,pitchwheel,0,0,0,,1,-590,,,
0,program_change,0,0,0,6,2,,,,
0,pitchwheel,0,0,0,,2,-272,,,
0,program_change,0,0,0,6,3,,,,
0,pitchwheel,0,0,0,,3,-353,,,
0,program_change,0,0,0,6,4,,,,
0,pitchwheel,0,0,0,,4,-560,,,
0,program_change,0,0,0,6,5,,,,
0,pitchwheel,0,0,0,,5,-80,,,
0,program_change,0,0,0,6,6,,,,
0,pitchwheel,0,0,0,,6,-625,,,
0,program_change,0,0,0,6,7,,,,
0,pitchwheel,0,0,0,,7,-130,,,
0,program_change,0,0,0,6,8,,,,
0,pitchwheel,0,0,0,,8,-512,,,
0,program_change,0,0,0,6,10,,,,
0,pitchwheel,0,0,0,,10,-464,,,
0,program_change,0,0,0,6,11,,,,
0,pitchwheel,0,0,0,,11,-208,,,
0,program_change,0,0,0,6,12,,,,
0,pitchwheel,0,0,0,,12,-553,,,
0,set_tempo,0,1,0,,,,500000,,
89,note_on,89,0,0,,12,,,71,127
167,note_off,78,0,0,,12,,,71,127
168,note_on,1,0,0,,10,,,69,127
246,note_off,78,0,0,,10,,,69,127
247,note_on,1,0,0,,12,,,71,127
325,note_off,78,0,0,,12,,,71,127
326,note_on,1,0,0,,10,,,69,127
404,note_off,78,0,0,,10,,,69,127
405,note_on,1,0,0,,12,,,71,127
483,note_off,78,0,0,,12,,,71,127
484,note_on,1,0,0,,10,,,69,127
562,note_off,78,0,0,,10,,,69,127
563,note_on,1,0,0,,8,,,68,127
641,note_off,78,0,0,,8,,,68,127
642,note_on,1,0,0,,10,,,69,127
720,note_off,78,0,0,,10,,,69,127
721,note_on,1,0,0,,12,,,71,127
801,note_off,80,0,0,,12,,,71,127
802,note_on,1,0,0,,1,,,73,127
1156,note_off,354,0,0,,1,,,73,127
1157,note_on,1,0,0,,1,,,73,127
1511,note_off,354,0,0,,1,,,73,127
1512,note_on,1,0,0,,2,,,74,127
1590,note_off,78,0,0,,2,,,74,127
1591,note_on,1,0,0,,1,,,73,127
1669,note_off,78,0,0,,1,,,73,127
1670,note_on,1,0,0,,2,,,74,127
1748,note_off,78,0,0,,2,,,74,127
1749,note_on,1,0,0,,1,,,73,127
1827,note_off,78,0,0,,1,,,73,127
1828,note_on,1,0,0,,2,,,74,127
1906,note_off,78,0,0,,2,,,74,127
1907,note_on,1,0,0,,1,,,73,127
1985,note_off,78,0,0,,1,,,73,127
1986,note_on,1,0,0,,12,,,71,127
2064,note_off,78,0,0,,12,,,71,127
2065,note_on,1,0,0,,1,,,73,127
2143,note_off,78,0,0,,1,,,73,127
2144,note_on,1,0,0,,2,,,74,127
2224,note_off,80,0,0,,2,,,74,127
2225,note_on,1,0,0,,4,,,76,127
2579,note_off,354,0,0,,4,,,76,127
2580,note_on,1,0,0,,4,,,76,127
2934,note_off,354,0,0,,4,,,76,127
2935,note_on,1,0,0,,6,,,78,127
3052,note_off,117,0,0,,6,,,78,127
3053,note_on,1,0,0,,4,,,76,127
3170,note_off,117,0,0,,4,,,76,127
3171,note_on,1,0,0,,2,,,74,127
3288,note_off,117,0,0,,2,,,74,127
3289,note_on,1,0,0,,1,,,73,127
3406,note_off,117,0,0,,1,,,73,127
3407,note_on,1,0,0,,12,,,71,127
3524,note_off,117,0,0,,12,,,71,127
3525,note_on,1,0,0,,10,,,69,127
3642,note_off,117,0,0,,10,,,69,127
3643,note_on,1,0,0,,8,,,68,127
3760,note_off,117,0,0,,8,,,68,127
3761,note_on,1,0,0,,6,,,66,127
3878,note_off,117,0,0,,6,,,66,127
3879,note_on,1,0,0,,4,,,64,127
3996,note_off,117,0,0,,4,,,64,127
3997,note_on,1,0,0,,2,,,62,127
4114,note_off,117,0,0,,2,,,62,127
4115,note_on,1,0,0,,1,,,61,127
4232,note_off,117,0,0,,1,,,61,127
4233,note_on,1,0,0,,12,,,59,127
4349,note_off,116,0,0,,12,,,59,127
4351,note_on,2,0,0,,12,,,59,127
4429,note_off,78,0,0,,12,,,59,127
4430,note_on,1,0,0,,10,,,57,127
4508,note_off,78,0,0,,10,,,57,127
4509,note_on,1,0,0,,12,,,59,127
4587,note_off,78,0,0,,12,,,59,127
4588,note_on,1,0,0,,10,,,57,127
4666,note_off,78,0,0,,10,,,57,127
4667,note_on,1,0,0,,12,,,59,127
4708,note_on,41,0,0,,4,,,76,127
4745,note_off,37,0,0,,12,,,59,127
4746,note_on,1,0,0,,10,,,57,127
4824,note_off,78,0,0,,10,,,57,127
4825,note_on,1,0,0,,8,,,56,127
4903,note_off,78,0,0,,8,,,56,127
4904,note_on,1,0,0,,10,,,57,127
4982,note_off,78,0,0,,10,,,57,127
4983,note_on,1,0,0,,12,,,59,127
5063,note_off,80,0,0,,12,,,59,127
5063,note_off,0,0,0,,4,,,76,127
5064,note_on,1,0,0,,1,,,61,127
5064,note_on,0,0,0,,1,,,73,127
5418,note_off,354,0,0,,1,,,73,127
5418,note_off,0,0,0,,1,,,61,127
5419,note_on,1,0,0,,1,,,61,127
5419,note_on,0,0,0,,12,,,71,127
5773,note_off,354,0,0,,12,,,71,127
5773,note_off,0,0,0,,1,,,61,127
5774,note_on,1,0,0,,2,,,62,127
5774,note_on,0,0,0,,10,,,69,127
5852,note_off,78,0,0,,2,,,62,127
5853,note_on,1,0,0,,1,,,61,127
5931,note_off,78,0,0,,1,,,61,127
5932,note_on,1,0,0,,2,,,62,127
6010,note_off,78,0,0,,2,,,62,127
6011,note_on,1,0,0,,1,,,61,127
6089,note_off,78,0,0,,1,,,61,127
6090,note_on,1,0,0,,2,,,62,127
6130,note_off,40,0,0,,10,,,69,127
6131,note_on,1,0,0,,4,,,76,127
6168,note_off,37,0,0,,2,,,62,127
6169,note_on,1,0,0,,1,,,61,127
6247,note_off,78,0,0,,1,,,61,127
6248,note_on,1,0,0,,12,,,59,127
6326,note_off,78,0,0,,12,,,59,127
6327,note_on,1,0,0,,1,,,61,127
6405,note_off,78,0,0,,1,,,61,127
6406,note_on,1,0,0,,2,,,62,127
6486,note_off,80,0,0,,2,,,62,127
6486,note_off,0,0,0,,4,,,76,127
6487,note_on,1,0,0,,4,,,64,127
6487,note_on,0,0,0,,1,,,73,127
6841,note_off,354,0,0,,1,,,73,127
6841,note_off,0,0,0,,4,,,64,127
6842,note_on,1,0,0,,4,,,64,127
6842,note_on,0,0,0,,12,,,71,127
7196,note_off,354,0,0,,12,,,71,127
7196,note_off,0,0,0,,4,,,64,127
7197,note_on,1,0,0,,6,,,66,127
7197,note_on,0,0,0,,10,,,69,127
7314,note_off,117,0,0,,6,,,66,127
7315,note_on,1,0,0,,4,,,64,127
7432,note_off,117,0,0,,4,,,64,127
7433,note_on,1,0,0,,2,,,62,127
7550,note_off,117,0,0,,2,,,62,127
7551,note_on,1,0,0,,1,,,61,127
7668,note_off,117,0,0,,1,,,61,127
7669,note_on,1,0,0,,12,,,59,127
7786,note_off,117,0,0,,12,,,59,127
7787,note_on,1,0,0,,10,,,57,127
7904,note_off,117,0,0,,10,,,57,127
7905,note_on,1,0,0,,8,,,56,127
8022,note_off,117,0,0,,8,,,56,127
8023,note_on,1,0,0,,6,,,54,127
8140,note_off,117,0,0,,6,,,54,127
8141,note_on,1,0,0,,4,,,52,127
8165,note_off,24,0,0,,10,,,69,127
8258,note_off,93,0,0,,4,,,52,127
8259,note_on,1,0,0,,2,,,50,127
8259,note_on,0,0,0,,1,,,73,127
8347,note_off,88,0,0,,1,,,73,127
8348,note_on,1,0,0,,12,,,71,127
8377,note_off,29,0,0,,2,,,50,127
8378,note_on,1,0,0,,1,,,49,127
8436,note_off,58,0,0,,12,,,71,127
8437,note_on,1,0,0,,10,,,69,127
8495,note_off,58,0,0,,1,,,49,127
8496,note_on,1,0,0,,12,,,47,127
8525,note_off,29,0,0,,10,,,69,127
8526,note_on,1,0,0,,12,,,71,127
8614,note_off,88,0,0,,12,,,71,127
8614,note_off,0,0,0,,12,,,47,127
8615,note_on,1,0,0,,10,,,45,127
8615,note_on,0,0,0,,1,,,73,127
8969,note_off,354,0,0,,1,,,73,127
8985,note_on,16,0,0,,4,,,64,127
9102,note_off,117,0,0,,4,,,64,127
9103,note_on,1,0,0,,6,,,66,127
9220,note_off,117,0,0,,6,,,66,127
9221,note_on,1,0,0,,8,,,68,127
9338,note_off,117,0,0,,8,,,68,127
9339,note_on,1,0,0,,10,,,69,127
9418,note_off,79,0,0,,10,,,45,127
9456,note_off,38,0,0,,10,,,69,127
9457,note_on,1,0,0,,12,,,71,127
9574,note_off,117,0,0,,12,,,71,127
9575,note_on,1,0,0,,1,,,73,127
9692,note_off,117,0,0,,1,,,73,127
9693,note_on,1,0,0,,1,,,73,127
9693,note_on,0,0,0,,2,,,74,127
9693,note_on,0,0,0,,10,,,57,127
9810,note_off,117,0,0,,2,,,74,127
9810,note_off,0,0,0,,1,,,73,127
9811,note_on,1,0,0,,12,,,71,127
9928,note_off,117,0,0,,12,,,71,127
9929,note_on,1,0,0,,1,,,73,127
10046,note_off,117,0,0,,1,,,73,127
10046,note_off,0,0,0,,10,,,57,127
10047,note_on,1,0,0,,2,,,62,127
10047,note_on,0,0,0,,12,,,59,127
10401,note_off,354,0,0,,12,,,59,127
10401,note_off,0,0,0,,2,,,62,127
10402,note_on,1,0,0,,8,,,68,127
10402,note_on,0,0,0,,12,,,47,127
10519,note_off,117,0,0,,8,,,68,127
10520,note_on,1,0,0,,10,,,69,127
10637,note_off,117,0,0,,10,,,69,127
10638,note_on,1,0,0,,12,,,71,127
10755,note_off,117,0,0,,12,,,71,127
10756,note_on,1,0,0,,12,,,71,127
10873,note_off,117,0,0,,12,,,71,127
10874,note_on,1,0,0,,1,,,73,127
10932,note_off,58,0,0,,12,,,47,127
10991,note_off,59,0,0,,1,,,73,127
10992,note_on,1,0,0,,2,,,74,127
11109,note_off,117,0,0,,2,,,74,127
11110,note_on,1,0,0,,2,,,74,127
11110,note_on,0,0,0,,4,,,76,127
11110,note_on,0,0,0,,12,,,59,127
11227,note_off,117,0,0,,4,,,76,127
11227,note_off,0,0,0,,2,,,74,127
11228,note_on,1,0,0,,1,,,73,127
11345,note_off,117,0,0,,1,,,73,127
11346,note_on,1,0,0,,2,,,74,127
11463,note_off,117,0,0,,2,,,74,127
11463,note_off,0,0,0,,12,,,59,127
11464,note_on,1,0,0,,4,,,64,127
11464,note_on,0,0,0,,1,,,61,127
11818,note_off,354,0,0,,1,,,61,127
11818,note_off,0,0,0,,4,,,64,127
11819,note_on,1,0,0,,10,,,69,127
11819,note_on,0,0,0,,1,,,49,127
11936,note_off,117,0,0,,10,,,69,127
11937,note_on,1,0,0,,12,,,71,127
12054,note_off,117,0,0,,12,,,71,127
12055,note_on,1,0,0,,1,,,73,127
12172,note_off,117,0,0,,1,,,73,127
12173,note_on,1,0,0,,1,,,73,127
12290,note_off,117,0,0,,1,,,73,127
12291,note_on,1,0,0,,2,,,74,127
12349,note_off,58,0,0,,1,,,49,127
12408,note_off,59,0,0,,2,,,74,127
12409,note_on,1,0,0,,4,,,76,127
12526,note_off,117,0,0,,4,,,76,127
12527,note_on,1,0,0,,4,,,76,127
12527,note_on,0,0,0,,6,,,78,127
12527,note_on,0,0,0,,1,,,61,127
12644,note_off,117,0,0,,6,,,78,127
12644,note_off,0,0,0,,4,,,76,127
12645,note_on,1,0,0,,2,,,74,127
12762,note_off,117,0,0,,2,,,74,127
12763,note_on,1,0,0,,4,,,76,127
12880,note_off,117,0,0,,4,,,76,127
12880,note_off,0,0,0,,1,,,61,127
12881,note_on,1,0,0,,6,,,66,127
12881,note_on,0,0,0,,2,,,62,127
13235,note_off,354,0,0,,2,,,62,127
13235,note_off,0,0,0,,6,,,66,127
13236,note_on,1,0,0,,11,,,70,127
13236,note_on,0,0,0,,2,,,50,127
13353,note_off,117,0,0,,11,,,70,127
13354,note_on,1,0,0,,12,,,71,127
13471,note_off,117,0,0,,12,,,71,127
13472,note_on,1,0,0,,1,,,73,127
13589,note_off,117,0,0,,1,,,73,127
13590,note_on,1,0,0,,2,,,74,127
13707,note_off,117,0,0,,2,,,74,127
13708,note_on,1,0,0,,4,,,76,127
13766,note_off,58,0,0,,2,,,50,127
13825,note_off,59,0,0,,4,,,76,127
13826,note_on,1,0,0,,6,,,78,127
13943,note_off,117,0,0,,6,,,78,127
13944,note_on,1,0,0,,8,,,80,127
13944,note_on,0,0,0,,6,,,78,127
13944,note_on,0,0,0,,2,,,62,127
14061,note_off,117,0,0,,6,,,78,127
14061,note_off,0,0,0,,8,,,80,127
14062,note_on,1,0,0,,4,,,76,127
14179,note_off,117,0,0,,4,,,76,127
14180,note_on,1,0,0,,6,,,78,127
14297,note_off,117,0,0,,6,,,78,127
14297,note_off,0,0,0,,2,,,62,127
14298,note_on,1,0,0,,6,,,78,127
14298,note_on,0,0,0,,4,,,76,127
14298,note_on,0,0,0,,2,,,62,127
14474,note_off,176,0,0,,6,,,78,127
14475,note_on,1,0,0,,8,,,68,127
14651,note_off,176,0,0,,8,,,68,127
14651,note_off,0,0,0,,2,,,62,127
14652,note_on,1,0,0,,10,,,69,127
14652,note_on,0,0,0,,1,,,61,127
14652,note_on,0,0,0,,4,,,64,127
14769,note_off,117,0,0,,10,,,69,127
14770,note_on,1,0,0,,12,,,71,127
14887,note_off,117,0,0,,12,,,71,127
14888,note_on,1,0,0,,1,,,73,127
15005,note_off,117,0,0,,1,,,73,127
15005,note_off,0,0,0,,4,,,64,127
15005,note_off,0,0,0,,1,,,61,127
15005,note_off,0,0,0,,4,,,76,127
15006,note_on,1,0,0,,4,,,76,127
15006,note_on,0,0,0,,2,,,74,127
15006,note_on,0,0,0,,12,,,59,127
15006,note_on,0,0,0,,2,,,62,127
15123,note_off,117,0,0,,2,,,74,127
15123,note_off,0,0,0,,4,,,76,127
15124,note_on,1,0,0,,1,,,73,127
15241,note_off,117,0,0,,1,,,73,127
15242,note_on,1,0,0,,2,,,74,127
15359,note_off,117,0,0,,2,,,74,127
15359,note_off,0,0,0,,2,,,62,127
15359,note_off,0,0,0,,12,,,59,127
15360,note_on,1,0,0,,1,,,73,127
15360,note_on,0,0,0,,2,,,74,127
15360,note_on,0,0,0,,4,,,64,127
15360,note_on,0,0,0,,1,,,61,127
15360,note_on,0,0,0,,10,,,57,127
15477,note_off,117,0,0,,2,,,74,127
15477,note_off,0,0,0,,1,,,73,127
15478,note_on,1,0,0,,12,,,71,127
15595,note_off,117,0,0,,12,,,71,127
15596,note_on,1,0,0,,1,,,73,127
15713,note_off,117,0,0,,1,,,73,127
15713,note_off,0,0,0,,10,,,57,127
15713,note_off,0,0,0,,1,,,61,127
15713,note_off,0,0,0,,4,,,64,127
15714,note_on,1,0,0,,1,,,73,127
15714,note_on,0,0,0,,4,,,64,127
15714,note_on,0,0,0,,4,,,52,127
15772,note_off,58,0,0,,1,,,73,127
15773,note_on,1,0,0,,12,,,71,127
15831,note_off,58,0,0,,12,,,71,127
15832,note_on,1,0,0,,1,,,73,127
15890,note_off,58,0,0,,1,,,73,127
15891,note_on,1,0,0,,12,,,71,127
16067,note_off,176,0,0,,4,,,52,127
16067,note_off,0,0,0,,4,,,64,127
16097,note_on,30,0,0,,4,,,64,127
16214,note_off,117,0,0,,4,,,64,127
16215,note_on,1,0,0,,2,,,62,127
16241,note_off,26,0,0,,12,,,71,127
16332,note_off,91,0,0,,2,,,62,127
16333,note_on,1,0,0,,1,,,61,127
16450,note_off,117,0,0,,1,,,61,127
16451,note_on,1,0,0,,12,,,59,127
16568,note_off,117,0,0,,12,,,59,127
16569,note_on,1,0,0,,10,,,57,127
16686,note_off,117,0,0,,10,,,57,127
16687,note_on,1,0,0,,8,,,56,127
16804,note_off,117,0,0,,8,,,56,127
16805,note_on,1,0,0,,4,,,76,127
16805,note_on,0,0,0,,6,,,54,127
16922,note_off,117,0,0,,6,,,54,127
16923,note_on,1,0,0,,4,,,52,127
17040,note_off,117,0,0,,4,,,52,127
17041,note_on,1,0,0,,2,,,50,127
17158,note_off,117,0,0,,2,,,50,127
17158,note_off,0,0,0,,4,,,76,127
17159,note_on,1,0,0,,4,,,76,127
17159,note_on,0,0,0,,1,,,49,127
17276,note_off,117,0,0,,4,,,76,127
17277,note_on,1,0,0,,1,,,73,127
17394,note_off,117,0,0,,1,,,73,127
17395,note_on,1,0,0,,2,,,74,127
17512,note_off,117,0,0,,2,,,74,127
17512,note_off,0,0,0,,1,,,49,127
17513,note_on,1,0,0,,6,,,78,127
17513,note_on,0,0,0,,1,,,61,127
17630,note_off,117,0,0,,1,,,61,127
17631,note_on,1,0,0,,12,,,59,127
17748,note_off,117,0,0,,12,,,59,127
17748,note_off,0,0,0,,6,,,78,127
17749,note_on,1,0,0,,4,,,76,127
17749,note_on,0,0,0,,10,,,57,127
17866,note_off,117,0,0,,10,,,57,127
17867,note_on,1,0,0,,8,,,56,127
17984,note_off,117,0,0,,8,,,56,127
17985,note_on,1,0,0,,6,,,54,127
18102,note_off,117,0,0,,6,,,54,127
18102,note_off,0,0,0,,4,,,76,127
18103,note_on,1,0,0,,4,,,52,127
18220,note_off,117,0,0,,4,,,52,127
18221,note_on,1,0,0,,4,,,76,127
18221,note_on,0,0,0,,2,,,50,127
18338,note_off,117,0,0,,2,,,50,127
18339,note_on,1,0,0,,1,,,49,127
18456,note_off,117,0,0,,1,,,49,127
18457,note_on,1,0,0,,12,,,47,127
18574,note_off,117,0,0,,12,,,47,127
18574,note_off,0,0,0,,4,,,76,127
18575,note_on,1,0,0,,4,,,76,127
18575,note_on,0,0,0,,10,,,45,127
18692,note_off,117,0,0,,4,,,76,127
18693,note_on,1,0,0,,1,,,73,127
18810,note_off,117,0,0,,1,,,73,127
18811,note_on,1,0,0,,2,,,74,127
18928,note_off,117,0,0,,2,,,74,127
18929,note_on,1,0,0,,4,,,76,127
18929,note_on,0,0,0,,1,,,85,127
19046,note_off,117,0,0,,1,,,85,127
19047,note_on,1,0,0,,12,,,83,127
19164,note_off,117,0,0,,12,,,83,127
19165,note_on,1,0,0,,10,,,81,127
19282,note_off,117,0,0,,10,,,81,127
19282,note_off,0,0,0,,10,,,45,127
19283,note_on,1,0,0,,8,,,80,127
19400,note_off,117,0,0,,8,,,80,127
19401,note_on,1,0,0,,6,,,78,127
19518,note_off,117,0,0,,6,,,78,127
19518,note_off,0,0,0,,4,,,76,127
19519,note_on,1,0,0,,4,,,76,127
19636,note_off,117,0,0,,4,,,76,127
19637,note_on,1,0,0,,3,,,75,127
19637,note_on,0,0,0,,10,,,57,127
19754,note_off,117,0,0,,3,,,75,127
19755,note_on,1,0,0,,1,,,73,127
19872,note_off,117,0,0,,1,,,73,127
19873,note_on,1,0,0,,12,,,71,127
19990,note_off,117,0,0,,12,,,71,127
19990,note_off,0,0,0,,10,,,57,127
19991,note_on,1,0,0,,10,,,69,127
19991,note_on,0,0,0,,12,,,71,127
19991,note_on,0,0,0,,3,,,63,127
19991,note_on,0,0,0,,12,,,59,127
20108,note_off,117,0,0,,12,,,71,127
20108,note_off,0,0,0,,10,,,69,127
20109,note_on,1,0,0,,8,,,68,127
20226,note_off,117,0,0,,8,,,68,127
20227,note_on,1,0,0,,10,,,69,127
20344,note_off,117,0,0,,10,,,69,127
20344,note_off,0,0,0,,12,,,59,127
20344,note_off,0,0,0,,3,,,63,127
20345,note_on,1,0,0,,10,,,69,127
20345,note_on,0,0,0,,12,,,71,127
20345,note_on,0,0,0,,4,,,64,127
20345,note_on,0,0,0,,1,,,61,127
20462,note_off,117,0,0,,12,,,71,127
20462,note_off,0,0,0,,10,,,69,127
20463,note_on,1,0,0,,8,,,68,127
20580,note_off,117,0,0,,8,,,68,127
20581,note_on,1,0,0,,10,,,69,127
20698,note_off,117,0,0,,10,,,69,127
20698,note_off,0,0,0,,1,,,61,127
20698,note_off,0,0,0,,4,,,64,127
20699,note_on,1,0,0,,12,,,71,127
20699,note_on,0,0,0,,10,,,69,127
20699,note_on,0,0,0,,3,,,63,127
20699,note_on,0,0,0,,6,,,66,127
20816,note_off,117,0,0,,10,,,69,127
20816,note_off,0,0,0,,12,,,71,127
20817,note_on,1,0,0,,8,,,68,127
20934,note_off,117,0,0,,8,,,68,127
20935,note_on,1,0,0,,10,,,69,127
21052,note_off,117,0,0,,10,,,69,127
21052,note_off,0,0,0,,6,,,66,127
21052,note_off,0,0,0,,3,,,63,127
21053,note_on,1,0,0,,1,,,73,127
21053,note_on,0,0,0,,3,,,63,127
21053,note_on,0,0,0,,12,,,59,127
21170,note_off,117,0,0,,1,,,73,127
21171,note_on,1,0,0,,12,,,71,127
21288,note_off,117,0,0,,12,,,71,127
21289,note_on,1,0,0,,10,,,69,127
21406,note_off,117,0,0,,10,,,69,127
21406,note_off,0,0,0,,12,,,59,127
21406,note_off,0,0,0,,3,,,63,127
21407,note_on,1,0,0,,8,,,68,127
21407,note_on,0,0,0,,4,,,64,127
21407,note_on,0,0,0,,4,,,52,127
21739,note_off,332,0,0,,8,,,68,127
21791,note_on,52,0,0,,12,,,83,127
21908,note_off,117,0,0,,12,,,83,127
21909,note_on,1,0,0,,10,,,81,127
21938,note_off,29,0,0,,4,,,52,127
21938,note_off,0,0,0,,4,,,64,127
22027,note_off,89,0,0,,10,,,81,127
22028,note_on,1,0,0,,8,,,80,127
22145,note_off,117,0,0,,8,,,80,127
22146,note_on,1,0,0,,6,,,78,127
22263,note_off,117,0,0,,6,,,78,127
22264,note_on,1,0,0,,4,,,76,127
22381,note_off,117,0,0,,4,,,76,127
22382,note_on,1,0,0,,3,,,75,127
22499,note_off,117,0,0,,3,,,75,127
22500,note_on,1,0,0,,1,,,73,127
22617,note_off,117,0,0,,1,,,73,127
22618,note_on,1,0,0,,12,,,71,127
22735,note_off,117,0,0,,12,,,71,127
22736,note_on,1,0,0,,10,,,69,127
22853,note_off,117,0,0,,10,,,69,127
22854,note_on,1,0,0,,8,,,68,127
22971,note_off,117,0,0,,8,,,68,127
22972,note_on,1,0,0,,6,,,66,127
23089,note_off,117,0,0,,6,,,66,127
23090,note_on,1,0,0,,4,,,64,127
23207,note_off,117,0,0,,4,,,64,127
23208,note_on,1,0,0,,3,,,63,127
23208,note_on,0,0,0,,12,,,35,127
23208,note_on,0,0,0,,12,,,47,127
23325,note_off,117,0,0,,3,,,63,127
23326,note_on,1,0,0,,4,,,64,127
23443,note_off,117,0,0,,4,,,64,127
23444,note_on,1,0,0,,6,,,66,127
23561,note_off,117,0,0,,6,,,66,127
23562,note_on,1,0,0,,8,,,68,127
23679,note_off,117,0,0,,8,,,68,127
23680,note_on,1,0,0,,11,,,70,127
23797,note_off,117,0,0,,11,,,70,127
23798,note_on,1,0,0,,12,,,71,127
23915,note_off,117,0,0,,12,,,71,127
23915,note_off,0,0,0,,12,,,47,127
23915,note_off,0,0,0,,12,,,35,127
23916,note_on,1,0,0,,1,,,73,127
23916,note_on,0,0,0,,1,,,37,127
23916,note_on,0,0,0,,1,,,49,127
24033,note_off,117,0,0,,1,,,73,127
24034,note_on,1,0,0,,3,,,75,127
24151,note_off,117,0,0,,3,,,75,127
24152,note_on,1,0,0,,4,,,76,127
24269,note_off,117,0,0,,4,,,76,127
24269,note_off,0,0,0,,1,,,49,127
24269,note_off,0,0,0,,1,,,37,127
24270,note_on,1,0,0,,3,,,75,127
24270,note_on,0,0,0,,4,,,76,127
24270,note_on,0,0,0,,12,,,35,127
24270,note_on,0,0,0,,12,,,47,127
24387,note_off,117,0,0,,4,,,76,127
24387,note_off,0,0,0,,3,,,75,127
24388,note_on,1,0,0,,1,,,73,127
24505,note_off,117,0,0,,1,,,73,127
24506,note_on,1,0,0,,12,,,71,127
24624,note_on,118,0,0,,12,,,83,127
24741,note_off,117,0,0,,12,,,83,127
24741,note_off,0,0,0,,12,,,71,127
24742,note_on,1,0,0,,10,,,81,127
24800,note_off,58,0,0,,12,,,47,127
24800,note_off,0,0,0,,12,,,35,127
24859,note_off,59,0,0,,10,,,81,127
24860,note_on,1,0,0,,8,,,80,127
24977,note_off,117,0,0,,8,,,80,127
24978,note_on,1,0,0,,6,,,78,127
25095,note_off,117,0,0,,6,,,78,127
25096,note_on,1,0,0,,4,,,76,127
25213,note_off,117,0,0,,4,,,76,127
25214,note_on,1,0,0,,3,,,75,127
25331,note_off,117,0,0,,3,,,75,127
25332,note_on,1,0,0,,1,,,73,127
25449,note_off,117,0,0,,1,,,73,127
25450,note_on,1,0,0,,12,,,71,127
25567,note_off,117,0,0,,12,,,71,127
25568,note_on,1,0,0,,10,,,69,127
25685,note_off,117,0,0,,10,,,69,127
25686,note_on,1,0,0,,8,,,68,127
25803,note_off,117,0,0,,8,,,68,127
25804,note_on,1,0,0,,6,,,66,127
25921,note_off,117,0,0,,6,,,66,127
25922,note_on,1,0,0,,4,,,64,127
26039,note_off,117,0,0,,4,,,64,127
26040,note_on,1,0,0,,3,,,63,127
26040,note_on,0,0,0,,12,,,35,127
26040,note_on,0,0,0,,12,,,47,127
26157,note_off,117,0,0,,3,,,63,127
26158,note_on,1,0,0,,4,,,64,127
26275,note_off,117,0,0,,4,,,64,127
26276,note_on,1,0,0,,6,,,66,127
26393,note_off,117,0,0,,6,,,66,127
26394,note_on,1,0,0,,8,,,68,127
26511,note_off,117,0,0,,8,,,68,127
26512,note_on,1,0,0,,11,,,70,127
26629,note_off,117,0,0,,11,,,70,127
26630,note_on,1,0,0,,12,,,71,127
26747,note_off,117,0,0,,12,,,71,127
26747,note_off,0,0,0,,12,,,47,127
26747,note_off,0,0,0,,12,,,35,127
26748,note_on,1,0,0,,1,,,73,127
26748,note_on,0,0,0,,1,,,37,127
26748,note_on,0,0,0,,1,,,49,127
26865,note_off,117,0,0,,1,,,73,127
26866,note_on,1,0,0,,3,,,75,127
26983,note_off,117,0,0,,3,,,75,127
26984,note_on,1,0,0,,4,,,76,127
27101,note_off,117,0,0,,4,,,76,127
27101,note_off,0,0,0,,1,,,49,127
27101,note_off,0,0,0,,1,,,37,127
27102,note_on,1,0,0,,4,,,76,127
27102,note_on,0,0,0,,12,,,35,127
27102,note_on,0,0,0,,12,,,47,127
27292,note_off,190,0,0,,4,,,76,127
27294,note_on,2,0,0,,3,,,75,127
27442,note_off,148,0,0,,3,,,75,127
27456,note_off,14,0,0,,12,,,47,127
27456,note_off,0,0,0,,12,,,35,127
27486,note_on,30,0,0,,8,,,80,127
27486,note_on,0,0,0,,12,,,71,127
27529,note_off,43,0,0,,8,,,80,127
27530,note_on,1,0,0,,6,,,78,127
27573,note_off,43,0,0,,6,,,78,127
27574,note_on,1,0,0,,8,,,80,127
27603,note_off,29,0,0,,12,,,71,127
27604,note_on,1,0,0,,10,,,69,127
27618,note_off,14,0,0,,8,,,80,127
27619,note_on,1,0,0,,6,,,78,127
27721,note_off,102,0,0,,10,,,69,127
27722,note_on,1,0,0,,8,,,68,127
27839,note_off,117,0,0,,8,,,68,127
27839,note_off,0,0,0,,6,,,78,127
27840,note_on,1,0,0,,8,,,80,127
27840,note_on,0,0,0,,6,,,66,127
27883,note_off,43,0,0,,8,,,80,127
27884,note_on,1,0,0,,6,,,78,127
27927,note_off,43,0,0,,6,,,78,127
27928,note_on,1,0,0,,8,,,80,127
27957,note_off,29,0,0,,6,,,66,127
27958,note_on,1,0,0,,4,,,64,127
27972,note_off,14,0,0,,8,,,80,127
27973,note_on,1,0,0,,6,,,78,127
28075,note_off,102,0,0,,4,,,64,127
28076,note_on,1,0,0,,3,,,63,127
28193,note_off,117,0,0,,3,,,63,127
28193,note_off,0,0,0,,6,,,78,127
28194,note_on,1,0,0,,8,,,80,127
28194,note_on,0,0,0,,1,,,61,127
28237,note_off,43,0,0,,8,,,80,127
28238,note_on,1,0,0,,6,,,78,127
28281,note_off,43,0,0,,6,,,78,127
28282,note_on,1,0,0,,8,,,80,127
28311,note_off,29,0,0,,1,,,61,127
28312,note_on,1,0,0,,12,,,59,127
28326,note_off,14,0,0,,8,,,80,127
28327,note_on,1,0,0,,6,,,78,127
28429,note_off,102,0,0,,12,,,59,127
28430,note_on,1,0,0,,10,,,57,127
28547,note_off,117,0,0,,10,,,57,127
28547,note_off,0,0,0,,6,,,78,127
28548,note_on,1,0,0,,8,,,80,127
28548,note_on,0,0,0,,8,,,56,127
28591,note_off,43,0,0,,8,,,80,127
28592,note_on,1,0,0,,6,,,78,127
28635,note_off,43,0,0,,6,,,78,127
28636,note_on,1,0,0,,8,,,80,127
28665,note_off,29,0,0,,8,,,56,127
28666,note_on,1,0,0,,6,,,54,127
28680,note_off,14,0,0,,8,,,80,127
28681,note_on,1,0,0,,6,,,78,127
28783,note_off,102,0,0,,6,,,54,127
28784,note_on,1,0,0,,4,,,52,127
28901,note_off,117,0,0,,4,,,52,127
28901,note_off,0,0,0,,6,,,78,127
28902,note_on,1,0,0,,8,,,80,127
28902,note_on,0,0,0,,3,,,51,127
28945,note_off,43,0,0,,8,,,80,127
28946,note_on,1,0,0,,6,,,78,127
28989,note_off,43,0,0,,6,,,78,127
28990,note_on,1,0,0,,8,,,80,127
29019,note_off,29,0,0,,3,,,51,127
29020,note_on,1,0,0,,1,,,49,127
29034,note_off,14,0,0,,8,,,80,127
29035,note_on,1,0,0,,6,,,78,127
29137,note_off,102,0,0,,1,,,49,127
29138,note_on,1,0,0,,12,,,47,127
29255,note_off,117,0,0,,12,,,47,127
29255,note_off,0,0,0,,6,,,78,127
29256,note_on,1,0,0,,8,,,80,127
29256,note_on,0,0,0,,12,,,47,127
29299,note_off,43,0,0,,8,,,80,127
29300,note_on,1,0,0,,6,,,78,127
29343,note_off,43,0,0,,6,,,78,127
29344,note_on,1,0,0,,8,,,80,127
29387,note_off,43,0,0,,8,,,80,127
29388,note_on,1,0,0,,6,,,78,127
29609,note_off,221,0,0,,6,,,78,127
29609,note_off,0,0,0,,12,,,47,127
29610,note_on,1,0,0,,6,,,78,127
29610,note_on,0,0,0,,12,,,47,127
29727,note_off,117,0,0,,6,,,78,127
29728,note_on,1,0,0,,8,,,80,127
29845,note_off,117,0,0,,8,,,80,127
29846,note_on,1,0,0,,10,,,81,127
29963,note_off,117,0,0,,10,,,81,127
29963,note_off,0,0,0,,12,,,47,127
29964,note_on,1,0,0,,8,,,80,127
29964,note_on,0,0,0,,4,,,52,127
30081,note_off,117,0,0,,8,,,80,127
30082,note_on,1,0,0,,10,,,81,127
30199,note_off,117,0,0,,10,,,81,127
30200,note_on,1,0,0,,12,,,83,127
30317,note_off,117,0,0,,12,,,83,127
30317,note_off,0,0,0,,4,,,52,127
30318,note_on,1,0,0,,1,,,85,127
30318,note_on,0,0,0,,10,,,45,127
30435,note_off,117,0,0,,1,,,85,127
30436,note_on,1,0,0,,12,,,83,127
30553,note_off,117,0,0,,12,,,83,127
30554,note_on,1,0,0,,10,,,81,127
30671,note_off,117,0,0,,10,,,81,127
30671,note_off,0,0,0,,10,,,45,127
30672,note_on,1,0,0,,8,,,80,127
30672,note_on,0,0,0,,12,,,47,127
30789,note_off,117,0,0,,8,,,80,127
30790,note_on,1,0,0,,6,,,78,127
30907,note_off,117,0,0,,6,,,78,127
30908,note_on,1,0,0,,4,,,76,127
31025,note_off,117,0,0,,4,,,76,127
31025,note_off,0,0,0,,12,,,47,127
31026,note_on,1,0,0,,3,,,75,127
31026,note_on,0,0,0,,12,,,47,127
31143,note_off,117,0,0,,3,,,75,127
31144,note_on,1,0,0,,4,,,76,127
31261,note_off,117,0,0,,4,,,76,127
31262,note_on,1,0,0,,6,,,78,127
31376,note_off,114,0,0,,12,,,47,127
31379,note_off,3,0,0,,6,,,78,127
31380,note_on,1,0,0,,12,,,71,127
31734,note_off,354,0,0,,12,,,71,127
31750,note_on,16,0,0,,12,,,59,127
31750,note_on,0,0,0,,12,,,71,127
31750,note_on,0,0,0,,8,,,80,127
31808,note_off,58,0,0,,8,,,80,127
31809,note_on,1,0,0,,6,,,78,127
31867,note_off,58,0,0,,6,,,78,127
31867,note_off,0,0,0,,12,,,59,127
31868,note_on,1,0,0,,10,,,57,127
31868,note_on,0,0,0,,8,,,80,127
31926,note_off,58,0,0,,8,,,80,127
31927,note_on,1,0,0,,6,,,78,127
31985,note_off,58,0,0,,10,,,57,127
31986,note_on,1,0,0,,8,,,56,127
32084,note_off,98,0,0,,6,,,78,127
32101,note_off,17,0,0,,12,,,71,127
32104,note_off,3,0,0,,8,,,56,127
32105,note_on,1,0,0,,6,,,54,127
32105,note_on,0,0,0,,12,,,71,127
32105,note_on,0,0,0,,8,,,80,127
32163,note_off,58,0,0,,8,,,80,127
32164,note_on,1,0,0,,6,,,78,127
32222,note_off,58,0,0,,6,,,78,127
32222,note_off,0,0,0,,6,,,54,127
32223,note_on,1,0,0,,4,,,52,127
32223,note_on,0,0,0,,8,,,80,127
32281,note_off,58,0,0,,8,,,80,127
32282,note_on,1,0,0,,6,,,78,127
32340,note_off,58,0,0,,4,,,52,127
32341,note_on,1,0,0,,3,,,51,127
32439,note_off,98,0,0,,6,,,78,127
32456,note_off,17,0,0,,12,,,71,127
32459,note_off,3,0,0,,3,,,51,127
32460,note_on,1,0,0,,1,,,49,127
32460,note_on,0,0,0,,8,,,80,127
32460,note_on,0,0,0,,12,,,71,127
32518,note_off,58,0,0,,8,,,80,127
32519,note_on,1,0,0,,6,,,78,127
32577,note_off,58,0,0,,6,,,78,127
32577,note_off,0,0,0,,1,,,49,127
32578,note_on,1,0,0,,12,,,47,127
32578,note_on,0,0,0,,8,,,80,127
32636,note_off,58,0,0,,8,,,80,127
32637,note_on,1,0,0,,6,,,78,127
32695,note_off,58,0,0,,12,,,47,127
32696,note_on,1,0,0,,10,,,45,127
32794,note_off,98,0,0,,6,,,78,127
32811,note_off,17,0,0,,12,,,71,127
32814,note_off,3,0,0,,10,,,45,127
32815,note_on,1,0,0,,8,,,44,127
32815,note_on,0,0,0,,8,,,80,127
32815,note_on,0,0,0,,12,,,71,127
32873,note_off,58,0,0,,8,,,80,127
32874,note_on,1,0,0,,6,,,78,127
32932,note_off,58,0,0,,6,,,78,127
32932,note_off,0,0,0,,8,,,44,127
32933,note_on,1,0,0,,6,,,42,127
32933,note_on,0,0,0,,8,,,80,127
32991,note_off,58,0,0,,8,,,80,127
32992,note_on,1,0,0,,6,,,78,127
33050,note_off,58,0,0,,6,,,42,127
33051,note_on,1,0,0,,4,,,40,127
33149,note_off,98,0,0,,6,,,78,127
33166,note_off,17,0,0,,12,,,71,127
33169,note_off,3,0,0,,4,,,40,127
33170,note_on,1,0,0,,3,,,39,127
33170,note_on,0,0,0,,12,,,71,127
33170,note_on,0,0,0,,8,,,80,127
33228,note_off,58,0,0,,8,,,80,127
33229,note_on,1,0,0,,6,,,78,127
33287,note_off,58,0,0,,6,,,78,127
33287,note_off,0,0,0,,3,,,39,127
33288,note_on,1,0,0,,1,,,37,127
33288,note_on,0,0,0,,8,,,80,127
33346,note_off,58,0,0,,8,,,80,127
33347,note_on,1,0,0,,6,,,78,127
33405,note_off,58,0,0,,1,,,37,127
33406,note_on,1,0,0,,12,,,35,127
33504,note_off,98,0,0,,6,,,78,127
33521,note_off,17,0,0,,12,,,71,127
33524,note_off,3,0,0,,12,,,35,127
33525,note_on,1,0,0,,12,,,35,127
33525,note_on,0,0,0,,8,,,80,127
33525,note_on,0,0,0,,12,,,71,127
33583,note_off,58,0,0,,8,,,80,127
33584,note_on,1,0,0,,6,,,78,127
33642,note_off,58,0,0,,6,,,78,127
33643,note_on,1,0,0,,8,,,80,127
33701,note_off,58,0,0,,8,,,80,127
33702,note_on,1,0,0,,6,,,78,127
33876,note_off,174,0,0,,12,,,71,127
33879,note_off,3,0,0,,6,,,78,127
33879,note_off,0,0,0,,12,,,35,127
33880,note_on,1,0,0,,12,,,35,127
33880,note_on,0,0,0,,6,,,78,127
33997,note_off,117,0,0,,6,,,78,127
33998,note_on,1,0,0,,8,,,80,127
34115,note_off,117,0,0,,8,,,80,127
34116,note_on,1,0,0,,10,,,81,127
34233,note_off,117,0,0,,10,,,81,127
34233,note_off,0,0,0,,12,,,35,127
34234,note_on,1,0,0,,4,,,40,127
34234,note_on,0,0,0,,8,,,80,127
34234,note_on,0,0,0,,10,,,81,127
34351,note_off,117,0,0,,10,,,81,127
34351,note_off,0,0,0,,8,,,80,127
34352,note_on,1,0,0,,6,,,78,127
34469,note_off,117,0,0,,6,,,78,127
34470,note_on,1,0,0,,8,,,80,127
34587,note_off,117,0,0,,8,,,80,127
34587,note_off,0,0,0,,4,,,40,127
34588,note_on,1,0,0,,10,,,45,127
34588,note_on,0,0,0,,12,,,83,127
34588,note_on,0,0,0,,10,,,81,127
34705,note_off,117,0,0,,10,,,81,127
34705,note_off,0,0,0,,12,,,83,127
34706,note_on,1,0,0,,8,,,80,127
34823,note_off,117,0,0,,8,,,80,127
34824,note_on,1,0,0,,6,,,78,127
34941,note_off,117,0,0,,6,,,78,127
34941,note_off,0,0,0,,10,,,45,127
34942,note_on,1,0,0,,12,,,47,127
34942,note_on,0,0,0,,8,,,80,127
34942,note_on,0,0,0,,4,,,76,127
35296,note_off,354,0,0,,4,,,76,127
35296,note_off,0,0,0,,8,,,80,127
35296,note_off,0,0,0,,12,,,47,127
35297,note_on,1,0,0,,12,,,47,127
35297,note_on,0,0,0,,3,,,75,127
35297,note_on,0,0,0,,8,,,80,127
35385,note_off,88,0,0,,8,,,80,127
35386,note_on,1,0,0,,6,,,78,127
35474,note_off,88,0,0,,6,,,78,127
35475,note_on,1,0,0,,4,,,76,127
35563,note_off,88,0,0,,4,,,76,127
35564,note_on,1,0,0,,6,,,78,127
35649,note_off,85,0,0,,3,,,75,127
35652,note_off,3,0,0,,6,,,78,127
35652,note_off,0,0,0,,12,,,47,127
35653,note_on,1,0,0,,4,,,40,127
35653,note_on,0,0,0,,4,,,76,127
35919,note_off,266,0,0,,4,,,76,127
36007,note_off,88,0,0,,4,,,40,127
36037,note_on,30,0,0,,4,,,52,127
36037,note_on,0,0,0,,2,,,62,127
36037,note_on,0,0,0,,8,,,68,127
36154,note_off,117,0,0,,8,,,68,127
36155,note_on,1,0,0,,10,,,69,127
36272,note_off,117,0,0,,10,,,69,127
36273,note_on,1,0,0,,12,,,71,127
36390,note_off,117,0,0,,2,,,62,127
36391,note_on,1,0,0,,1,,,61,127
36661,note_off,270,0,0,,12,,,71,127
36745,note_off,84,0,0,,1,,,61,127
36745,note_off,0,0,0,,4,,,52,127
36746,note_on,1,0,0,,1,,,61,127
36746,note_on,0,0,0,,10,,,57,127
36746,note_on,0,0,0,,10,,,69,127
36863,note_off,117,0,0,,10,,,69,127
36864,note_on,1,0,0,,12,,,71,127
36981,note_off,117,0,0,,12,,,71,127
36982,note_on,1,0,0,,1,,,73,127
37099,note_off,117,0,0,,10,,,57,127
37099,note_off,0,0,0,,1,,,61,127
37100,note_on,1,0,0,,12,,,59,127
37100,note_on,0,0,0,,8,,,56,127
37370,note_off,270,0,0,,1,,,73,127
37454,note_off,84,0,0,,8,,,56,127
37455,note_on,1,0,0,,4,,,52,127
37455,note_on,0,0,0,,12,,,71,127
37572,note_off,117,0,0,,12,,,71,127
37573,note_on,1,0,0,,1,,,73,127
37690,note_off,117,0,0,,1,,,73,127
37691,note_on,1,0,0,,2,,,74,127
37808,note_off,117,0,0,,4,,,52,127
37808,note_off,0,0,0,,12,,,59,127
37809,note_on,1,0,0,,10,,,45,127
37809,note_on,0,0,0,,10,,,57,127
38023,note_off,214,0,0,,2,,,74,127
38162,note_off,139,0,0,,10,,,57,127
38162,note_off,0,0,0,,10,,,45,127
38163,note_on,1,0,0,,10,,,45,127
38163,note_on,0,0,0,,10,,,57,127
38163,note_on,0,0,0,,1,,,73,127
38280,note_off,117,0,0,,1,,,73,127
38281,note_on,1,0,0,,3,,,75,127
38398,note_off,117,0,0,,3,,,75,127
38399,note_on,1,0,0,,4,,,76,127
38516,note_off,117,0,0,,4,,,76,127
38516,note_off,0,0,0,,10,,,57,127
38516,note_off,0,0,0,,10,,,45,127
38517,note_on,1,0,0,,12,,,59,127
38517,note_on,0,0,0,,12,,,47,127
38517,note_on,0,0,0,,3,,,75,127
38634,note_off,117,0,0,,3,,,75,127
38635,note_on,1,0,0,,6,,,78,127
38752,note_off,117,0,0,,6,,,78,127
38753,note_on,1,0,0,,4,,,76,127
38870,note_off,117,0,0,,4,,,76,127
38871,note_on,1,0,0,,3,,,75,127
38988,note_off,117,0,0,,3,,,75,127
38989,note_on,1,0,0,,10,,,81,127
39106,note_off,117,0,0,,10,,,81,127
39107,note_on,1,0,0,,8,,,80,127
39224,note_off,117,0,0,,8,,,80,127
39224,note_off,0,0,0,,12,,,47,127
39224,note_off,0,0,0,,12,,,59,127
39225,note_on,1,0,0,,6,,,78,127
39342,note_off,117,0,0,,6,,,78,127
39343,note_on,1,0,0,,1,,,85,127
39460,note_off,117,0,0,,1,,,85,127
39461,note_on,1,0,0,,12,,,83,127
39578,note_off,117,0,0,,12,,,83,127
39579,note_on,1,0,0,,12,,,59,127
39579,note_on,0,0,0,,3,,,51,127
39579,note_on,0,0,0,,10,,,81,127
39579,note_on,0,0,0,,12,,,83,127
39696,note_off,117,0,0,,12,,,83,127
39696,note_off,0,0,0,,10,,,81,127
39697,note_on,1,0,0,,8,,,80,127
39814,note_off,117,0,0,,8,,,80,127
39815,note_on,1,0,0,,10,,,81,127
39932,note_off,117,0,0,,10,,,81,127
39932,note_off,0,0,0,,3,,,51,127
39932,note_off,0,0,0,,12,,,59,127
39933,note_on,1,0,0,,4,,,52,127
39933,note_on,0,0,0,,12,,,59,127
39933,note_on,0,0,0,,8,,,80,127
39933,note_on,0,0,0,,10,,,81,127
40050,note_off,117,0,0,,10,,,81,127
40050,note_off,0,0,0,,8,,,80,127
40051,note_on,1,0,0,,6,,,78,127
40168,note_off,117,0,0,,6,,,78,127
40169,note_on,1,0,0,,8,,,80,127
40286,note_off,117,0,0,,8,,,80,127
40286,note_off,0,0,0,,12,,,59,127
40286,note_off,0,0,0,,4,,,52,127
40287,note_on,1,0,0,,10,,,57,127
40287,note_on,0,0,0,,10,,,81,127
40287,note_on,0,0,0,,12,,,83,127
40404,note_off,117,0,0,,12,,,83,127
40404,note_off,0,0,0,,10,,,81,127
40405,note_on,1,0,0,,8,,,80,127
40522,note_off,117,0,0,,8,,,80,127
40523,note_on,1,0,0,,6,,,78,127
40640,note_off,117,0,0,,6,,,78,127
40640,note_off,0,0,0,,10,,,57,127
40641,note_on,1,0,0,,12,,,59,127
40641,note_on,0,0,0,,4,,,76,127
40641,note_on,0,0,0,,8,,,80,127
40995,note_off,354,0,0,,8,,,80,127
40995,note_off,0,0,0,,4,,,76,127
40995,note_off,0,0,0,,12,,,59,127
40996,note_on,1,0,0,,12,,,47,127
40996,note_on,0,0,0,,3,,,75,127
40996,note_on,0,0,0,,8,,,80,127
41084,note_off,88,0,0,,8,,,80,127
41085,note_on,1,0,0,,6,,,78,127
41173,note_off,88,0,0,,6,,,78,127
41174,note_on,1,0,0,,4,,,76,127
41262,note_off,88,0,0,,4,,,76,127
41263,note_off,1,0,0,,3,,,75,127
41263,note_on,0,0,0,,6,,,78,127
41351,note_off,88,0,0,,6,,,78,127
41351,note_off,0,0,0,,12,,,47,127
41352,note_on,1,0,0,,4,,,52,127
41352,note_on,0,0,0,,4,,,76,127
41706,note_off,354,0,0,,4,,,76,127
41706,note_off,0,0,0,,4,,,52,127
41722,note_on,16,0,0,,8,,,68,127
41722,note_on,0,0,0,,2,,,62,127
41722,note_on,0,0,0,,4,,,52,127
41839,note_off,117,0,0,,8,,,68,127
41840,note_on,1,0,0,,10,,,69,127
41957,note_off,117,0,0,,10,,,69,127
41958,note_on,1,0,0,,12,,,71,127
42075,note_off,117,0,0,,2,,,62,127
42076,note_on,1,0,0,,1,,,61,127
42161,note_off,85,0,0,,12,,,71,127
42430,note_off,269,0,0,,1,,,61,127
42430,note_off,0,0,0,,4,,,52,127
42431,note_on,1,0,0,,10,,,69,127
42431,note_on,0,0,0,,1,,,61,127
42431,note_on,0,0,0,,10,,,57,127
42548,note_off,117,0,0,,10,,,69,127
42549,note_on,1,0,0,,12,,,71,127
42666,note_off,117,0,0,,12,,,71,127
42667,note_on,1,0,0,,1,,,73,127
42784,note_off,117,0,0,,10,,,57,127
42784,note_off,0,0,0,,1,,,61,127
42785,note_on,1,0,0,,12,,,59,127
42785,note_on,0,0,0,,8,,,56,127
42851,note_off,66,0,0,,1,,,73,127
43138,note_off,287,0,0,,8,,,56,127
43139,note_on,1,0,0,,12,,,71,127
43139,note_on,0,0,0,,4,,,52,127
43256,note_off,117,0,0,,12,,,71,127
43257,note_on,1,0,0,,1,,,73,127
43374,note_off,117,0,0,,1,,,73,127
43375,note_on,1,0,0,,2,,,74,127
43492,note_off,117,0,0,,4,,,52,127
43492,note_off,0,0,0,,12,,,59,127
43493,note_on,1,0,0,,10,,,57,127
43493,note_on,0,0,0,,10,,,45,127
43541,note_off,48,0,0,,2,,,74,127
43847,note_off,306,0,0,,10,,,45,127
43847,note_off,0,0,0,,10,,,57,127
43848,note_on,1,0,0,,1,,,73,127
43848,note_on,0,0,0,,10,,,45,127
43848,note_on,0,0,0,,10,,,57,127
43965,note_off,117,0,0,,1,,,73,127
43966,note_on,1,0,0,,3,,,75,127
44083,note_off,117,0,0,,3,,,75,127
44084,note_on,1,0,0,,4,,,76,127
44201,note_off,117,0,0,,4,,,76,127
44201,note_off,0,0,0,,10,,,57,127
44201,note_off,0,0,0,,10,,,45,127
44202,note_on,1,0,0,,3,,,75,127
44202,note_on,0,0,0,,12,,,59,127
44202,note_on,0,0,0,,12,,,47,127
44319,note_off,117,0,0,,3,,,75,127
44320,note_on,1,0,0,,6,,,78,127
44437,note_off,117,0,0,,6,,,78,127
44438,note_on,1,0,0,,4,,,76,127
44555,note_off,117,0,0,,4,,,76,127
44556,note_on,1,0,0,,3,,,75,127
44673,note_off,117,0,0,,3,,,75,127
44674,note_on,1,0,0,,10,,,81,127
44791,note_off,117,0,0,,10,,,81,127
44792,note_on,1,0,0,,8,,,80,127
44909,note_off,117,0,0,,8,,,80,127
44909,note_off,0,0,0,,12,,,47,127
44909,note_off,0,0,0,,12,,,59,127
44910,note_on,1,0,0,,6,,,78,127
45027,note_off,117,0,0,,6,,,78,127
45028,note_on,1,0,0,,1,,,85,127
45145,note_off,117,0,0,,1,,,85,127
45146,note_on,1,0,0,,12,,,83,127
45263,note_off,117,0,0,,12,,,83,127
45264,note_on,1,0,0,,10,,,81,127
45264,note_on,0,0,0,,12,,,83,127
45264,note_on,0,0,0,,3,,,51,127
45264,note_on,0,0,0,,12,,,59,127
45381,note_off,117,0,0,,12,,,83,127
45381,note_off,0,0,0,,10,,,81,127
45382,note_on,1,0,0,,8,,,80,127
45499,note_off,117,0,0,,8,,,80,127
45500,note_on,1,0,0,,10,,,81,127
45617,note_off,117,0,0,,10,,,81,127
45617,note_off,0,0,0,,12,,,59,127
45617,note_off,0,0,0,,3,,,51,127
45618,note_on,1,0,0,,8,,,80,127
45618,note_on,0,0,0,,10,,,81,127
45618,note_on,0,0,0,,12,,,59,127
45618,note_on,0,0,0,,4,,,52,127
45735,note_off,117,0,0,,10,,,81,127
45735,note_off,0,0,0,,8,,,80,127
45736,note_on,1,0,0,,6,,,78,127
45853,note_off,117,0,0,,6,,,78,127
45854,note_on,1,0,0,,8,,,80,127
45971,note_off,117,0,0,,8,,,80,127
45971,note_off,0,0,0,,4,,,52,127
45971,note_off,0,0,0,,12,,,59,127
45972,note_on,1,0,0,,10,,,81,127
45972,note_on,0,0,0,,12,,,83,127
45972,note_on,0,0,0,,10,,,57,127
46089,note_off,117,0,0,,12,,,83,127
46089,note_off,0,0,0,,10,,,81,127
46090,note_on,1,0,0,,8,,,80,127
46207,note_off,117,0,0,,8,,,80,127
46208,note_on,1,0,0,,6,,,78,127
46325,note_off,117,0,0,,6,,,78,127
46325,note_off,0,0,0,,10,,,57,127
46326,note_on,1,0,0,,4,,,76,127
46326,note_on,0,0,0,,8,,,80,127
46326,note_on,0,0,0,,12,,,59,127
46680,note_off,354,0,0,,12,,,59,127
46680,note_off,0,0,0,,8,,,80,127
46680,note_off,0,0,0,,4,,,76,127
46681,note_on,1,0,0,,8,,,80,127
46681,note_on,0,0,0,,3,,,75,127
46681,note_on,0,0,0,,12,,,47,127
46769,note_off,88,0,0,,8,,,80,127
46770,note_on,1,0,0,,6,,,78,127
46858,note_off,88,0,0,,6,,,78,127
46859,note_on,1,0,0,,4,,,76,127
46947,note_off,88,0,0,,4,,,76,127
46948,note_off,1,0,0,,3,,,75,127
46948,note_on,0,0,0,,6,,,78,127
47036,note_off,88,0,0,,6,,,78,127
47036,note_off,0,0,0,,12,,,47,127
47037,note_on,1,0,0,,4,,,76,127
47037,note_on,0,0,0,,4,,,52,127
47154,note_off,117,0,0,,4,,,76,127
47155,note_on,1,0,0,,12,,,71,127
47272,note_off,117,0,0,,12,,,71,127
47273,note_on,1,0,0,,3,,,75,127
47390,note_off,117,0,0,,3,,,75,127
47390,note_off,0,0,0,,4,,,52,127
47391,note_on,1,0,0,,1,,,73,127
47391,note_on,0,0,0,,10,,,45,127
47508,note_off,117,0,0,,1,,,73,127
47509,note_on,1,0,0,,10,,,69,127
47626,note_off,117,0,0,,10,,,69,127
47627,note_on,1,0,0,,6,,,66,127
47744,note_off,117,0,0,,6,,,66,127
47744,note_off,0,0,0,,10,,,45,127
47745,note_on,1,0,0,,4,,,64,127
47745,note_on,0,0,0,,8,,,68,127
47745,note_on,0,0,0,,12,,,47,127
48099,note_off,354,0,0,,12,,,47,127
48099,note_off,0,0,0,,8,,,68,127
48099,note_off,0,0,0,,4,,,64,127
48100,note_on,1,0,0,,3,,,63,127
48100,note_on,0,0,0,,8,,,68,127
48100,note_on,0,0,0,,12,,,35,127
48188,note_off,88,0,0,,8,,,68,127
48189,note_on,1,0,0,,6,,,66,127
48277,note_off,88,0,0,,6,,,66,127
48278,note_on,1,0,0,,4,,,64,127
48366,note_off,88,0,0,,4,,,64,127
48367,note_off,1,0,0,,3,,,63,127
48367,note_on,0,0,0,,6,,,66,127
48455,note_off,88,0,0,,6,,,66,127
48455,note_off,0,0,0,,12,,,35,127
48456,note_on,1,0,0,,4,,,64,127
48456,note_on,0,0,0,,4,,,40,127
49518,note_off,1062,0,0,,4,,,64,127
49873,note_off,355,0,0,,4,,,40,127
49889,note_on,16,0,0,,4,,,64,127
50243,note_on,354,0,0,,12,,,83,127
50360,note_off,117,0,0,,12,,,83,127
50361,note_on,1,0,0,,10,,,81,127
50478,note_off,117,0,0,,10,,,81,127
50479,note_on,1,0,0,,8,,,80,127
50596,note_off,117,0,0,,8,,,80,127
50597,note_on,1,0,0,,6,,,78,127
50714,note_off,117,0,0,,6,,,78,127
50715,note_on,1,0,0,,4,,,76,127
50832,note_off,117,0,0,,4,,,76,127
50833,note_on,1,0,0,,2,,,74,127
50950,note_off,117,0,0,,2,,,74,127
50951,note_on,1,0,0,,1,,,73,127
51068,note_off,117,0,0,,1,,,73,127
51069,note_on,1,0,0,,12,,,71,127
51186,note_off,117,0,0,,12,,,71,127
51187,note_on,1,0,0,,10,,,69,127
51301,note_off,114,0,0,,4,,,64,127
51304,note_off,3,0,0,,10,,,69,127
51305,note_on,1,0,0,,8,,,68,127
51422,note_off,117,0,0,,8,,,68,127
51423,note_on,1,0,0,,10,,,69,127
51540,note_off,117,0,0,,10,,,69,127
51541,note_on,1,0,0,,12,,,71,127
51658,note_off,117,0,0,,12,,,71,127
51659,note_on,1,0,0,,4,,,64,127
51659,note_on,0,0,0,,12,,,71,127
51776,note_off,117,0,0,,4,,,64,127
51777,note_on,1,0,0,,3,,,63,127
51894,note_off,117,0,0,,3,,,63,127
51895,note_on,1,0,0,,4,,,64,127
52012,note_off,117,0,0,,4,,,64,127
52013,note_on,1,0,0,,2,,,62,127
52013,note_on,0,0,0,,4,,,64,127
52130,note_off,117,0,0,,4,,,64,127
52130,note_off,0,0,0,,2,,,62,127
52131,note_on,1,0,0,,1,,,61,127
52248,note_off,117,0,0,,1,,,61,127
52249,note_on,1,0,0,,2,,,62,127
52366,note_off,117,0,0,,2,,,62,127
52367,note_on,1,0,0,,1,,,61,127
52484,note_off,117,0,0,,1,,,61,127
52485,note_on,1,0,0,,2,,,62,127
52602,note_off,117,0,0,,2,,,62,127
52603,note_on,1,0,0,,1,,,61,127
52719,note_off,116,0,0,,12,,,71,127
52720,note_off,1,0,0,,1,,,61,127
52721,note_on,1,0,0,,2,,,62,127
52838,note_off,117,0,0,,2,,,62,127
52839,note_on,1,0,0,,1,,,61,127
52956,note_off,117,0,0,,1,,,61,127
52957,note_on,1,0,0,,2,,,62,127
53090,note_on,133,0,0,,12,,,83,127
53207,note_off,117,0,0,,12,,,83,127
53208,note_on,1,0,0,,10,,,81,127
53325,note_off,117,0,0,,10,,,81,127
53326,note_on,1,0,0,,7,,,79,127
53443,note_off,117,0,0,,7,,,79,127
53444,note_on,1,0,0,,6,,,78,127
53561,note_off,117,0,0,,6,,,78,127
53562,note_on,1,0,0,,4,,,76,127
53679,note_off,117,0,0,,4,,,76,127
53680,note_on,1,0,0,,2,,,74,127
53797,note_off,117,0,0,,2,,,74,127
53798,note_on,1,0,0,,0,,,72,127
53915,note_off,117,0,0,,0,,,72,127
53916,note_on,1,0,0,,12,,,71,127
54018,note_off,102,0,0,,2,,,62,127
54034,note_off,16,0,0,,12,,,71,127
54035,note_on,1,0,0,,11,,,70,127
54152,note_off,117,0,0,,11,,,70,127
54153,note_on,1,0,0,,0,,,72,127
54153,note_on,0,0,0,,12,,,71,127
54270,note_off,117,0,0,,12,,,71,127
54270,note_off,0,0,0,,0,,,72,127
54271,note_on,1,0,0,,11,,,70,127
54388,note_off,117,0,0,,11,,,70,127
54389,note_on,1,0,0,,12,,,71,127
54507,note_on,118,0,0,,7,,,67,127
54624,note_off,117,0,0,,7,,,67,127
54625,note_on,1,0,0,,5,,,65,127
54742,note_off,117,0,0,,5,,,65,127
54743,note_on,1,0,0,,4,,,64,127
54860,note_off,117,0,0,,4,,,64,127
54861,note_on,1,0,0,,3,,,63,127
54978,note_off,117,0,0,,3,,,63,127
54979,note_on,1,0,0,,4,,,64,127
55096,note_off,117,0,0,,4,,,64,127
55097,note_on,1,0,0,,3,,,63,127
55214,note_off,117,0,0,,3,,,63,127
55215,note_on,1,0,0,,4,,,64,127
55332,note_off,117,0,0,,4,,,64,127
55333,note_on,1,0,0,,3,,,63,127
55449,note_off,116,0,0,,12,,,71,127
55450,note_off,1,0,0,,3,,,63,127
55451,note_on,1,0,0,,4,,,64,127
55568,note_off,117,0,0,,4,,,64,127
55569,note_on,1,0,0,,3,,,63,127
55938,note_on,369,0,0,,12,,,83,127
56055,note_off,117,0,0,,12,,,83,127
56056,note_on,1,0,0,,10,,,81,127
56173,note_off,117,0,0,,10,,,81,127
56174,note_on,1,0,0,,8,,,80,127
56291,note_off,117,0,0,,8,,,80,127
56292,note_on,1,0,0,,6,,,78,127
56409,note_off,117,0,0,,6,,,78,127
56410,note_on,1,0,0,,4,,,76,127
56527,note_off,117,0,0,,4,,,76,127
56528,note_on,1,0,0,,3,,,75,127
56630,note_off,102,0,0,,3,,,63,127
56645,note_off,15,0,0,,3,,,75,127
56646,note_on,1,0,0,,3,,,63,127
56646,note_on,0,0,0,,8,,,68,127
56646,note_on,0,0,0,,6,,,66,127
56646,note_on,0,0,0,,1,,,73,127
56763,note_off,117,0,0,,1,,,73,127
56764,note_on,1,0,0,,0,,,72,127
56881,note_off,117,0,0,,0,,,72,127
56882,note_on,1,0,0,,3,,,75,127
56999,note_off,117,0,0,,3,,,75,127
56999,note_off,0,0,0,,6,,,66,127
56999,note_off,0,0,0,,8,,,68,127
56999,note_off,0,0,0,,3,,,63,127
57000,note_on,1,0,0,,4,,,64,127
57000,note_on,0,0,0,,8,,,68,127
57000,note_on,0,0,0,,1,,,73,127
57117,note_off,117,0,0,,1,,,73,127
57118,note_on,1,0,0,,0,,,72,127
57235,note_off,117,0,0,,0,,,72,127
57236,note_on,1,0,0,,3,,,75,127
57353,note_off,117,0,0,,3,,,75,127
57353,note_off,0,0,0,,8,,,68,127
57353,note_off,0,0,0,,4,,,64,127
57354,note_on,1,0,0,,3,,,63,127
57354,note_on,0,0,0,,8,,,68,127
57354,note_on,0,0,0,,6,,,66,127
57354,note_on,0,0,0,,1,,,73,127
57471,note_off,117,0,0,,1,,,73,127
57472,note_on,1,0,0,,0,,,72,127
57589,note_off,117,0,0,,0,,,72,127
57590,note_on,1,0,0,,3,,,75,127
57707,note_off,117,0,0,,3,,,75,127
57707,note_off,0,0,0,,6,,,66,127
57707,note_off,0,0,0,,8,,,68,127
57707,note_off,0,0,0,,3,,,63,127
57708,note_on,1,0,0,,4,,,64,127
57708,note_on,0,0,0,,8,,,68,127
57708,note_on,0,0,0,,1,,,73,127
57825,note_off,117,0,0,,1,,,73,127
57826,note_on,1,0,0,,0,,,72,127
57943,note_off,117,0,0,,0,,,72,127
57944,note_on,1,0,0,,1,,,73,127
58061,note_off,117,0,0,,1,,,73,127
58061,note_off,0,0,0,,8,,,68,127
58061,note_off,0,0,0,,4,,,64,127
58062,note_on,1,0,0,,3,,,63,127
58062,note_on,0,0,0,,6,,,66,127
58062,note_on,0,0,0,,8,,,68,127
58062,note_on,0,0,0,,3,,,75,127
58100,note_off,38,0,0,,3,,,75,127
58101,note_on,1,0,0,,1,,,73,127
58139,note_off,38,0,0,,1,,,73,127
58140,note_on,1,0,0,,3,,,75,127
58180,note_off,40,0,0,,3,,,75,127
58181,note_on,1,0,0,,4,,,76,127
58298,note_off,117,0,0,,4,,,76,127
58299,note_on,1,0,0,,6,,,78,127
58416,note_off,117,0,0,,6,,,78,127
58416,note_off,0,0,0,,8,,,68,127
58416,note_off,0,0,0,,6,,,66,127
58416,note_off,0,0,0,,3,,,63,127
58417,note_on,1,0,0,,8,,,68,127
58417,note_on,0,0,0,,4,,,64,127
58417,note_on,0,0,0,,4,,,76,127
58417,note_on,0,0,0,,6,,,78,127
58534,note_off,117,0,0,,6,,,78,127
58534,note_off,0,0,0,,4,,,76,127
58535,note_on,1,0,0,,3,,,75,127
58652,note_off,117,0,0,,3,,,75,127
58653,note_on,1,0,0,,1,,,73,127
58742,note_off,89,0,0,,1,,,73,127
58786,note_on,44,0,0,,7,,,79,127
58903,note_off,117,0,0,,7,,,79,127
58904,note_on,1,0,0,,6,,,78,127
59021,note_off,117,0,0,,6,,,78,127
59022,note_on,1,0,0,,4,,,76,127
59124,note_off,102,0,0,,4,,,64,127
59124,note_off,0,0,0,,8,,,68,127
59139,note_off,15,0,0,,4,,,76,127
59140,note_on,1,0,0,,2,,,74,127
59257,note_off,117,0,0,,2,,,74,127
59258,note_on,1,0,0,,1,,,73,127
59375,note_off,117,0,0,,1,,,73,127
59376,note_on,1,0,0,,12,,,71,127
59493,note_off,117,0,0,,12,,,71,127
59494,note_on,1,0,0,,11,,,70,127
59494,note_on,0,0,0,,7,,,67,127
59494,note_on,0,0,0,,4,,,64,127
59611,note_off,117,0,0,,11,,,70,127
59612,note_on,1,0,0,,12,,,71,127
59729,note_off,117,0,0,,12,,,71,127
59730,note_on,1,0,0,,1,,,73,127
59847,note_off,117,0,0,,1,,,73,127
59847,note_off,0,0,0,,4,,,64,127
59847,note_off,0,0,0,,7,,,67,127
59848,note_on,1,0,0,,12,,,71,127
59848,note_on,0,0,0,,2,,,62,127
59848,note_on,0,0,0,,6,,,66,127
59965,note_off,117,0,0,,12,,,71,127
59966,note_on,1,0,0,,11,,,70,127
60083,note_off,117,0,0,,11,,,70,127
60084,note_on,1,0,0,,1,,,73,127
60201,note_off,117,0,0,,1,,,73,127
60201,note_off,0,0,0,,6,,,66,127
60201,note_off,0,0,0,,2,,,62,127
60202,note_on,1,0,0,,12,,,71,127
60202,note_on,0,0,0,,4,,,64,127
60202,note_on,0,0,0,,7,,,67,127
60319,note_off,117,0,0,,12,,,71,127
60320,note_on,1,0,0,,11,,,70,127
60437,note_off,117,0,0,,11,,,70,127
60438,note_on,1,0,0,,1,,,73,127
60555,note_off,117,0,0,,1,,,73,127
60555,note_off,0,0,0,,7,,,67,127
60555,note_off,0,0,0,,4,,,64,127
60556,note_on,1,0,0,,12,,,71,127
60556,note_on,0,0,0,,2,,,62,127
60556,note_on,0,0,0,,6,,,66,127
60673,note_off,117,0,0,,12,,,71,127
60674,note_on,1,0,0,,11,,,70,127
60791,note_off,117,0,0,,11,,,70,127
60792,note_on,1,0,0,,12,,,71,127
60909,note_off,117,0,0,,12,,,71,127
60909,note_off,0,0,0,,6,,,66,127
60909,note_off,0,0,0,,2,,,62,127
60910,note_on,1,0,0,,1,,,73,127
60910,note_on,0,0,0,,4,,,64,127
60910,note_on,0,0,0,,1,,,61,127
60948,note_off,38,0,0,,1,,,73,127
60949,note_on,1,0,0,,12,,,71,127
60987,note_off,38,0,0,,12,,,71,127
60988,note_on,1,0,0,,1,,,73,127
61028,note_off,40,0,0,,1,,,73,127
61029,note_on,1,0,0,,2,,,74,127
61146,note_off,117,0,0,,2,,,74,127
61147,note_on,1,0,0,,4,,,76,127
61264,note_off,117,0,0,,4,,,76,127
61264,note_off,0,0,0,,1,,,61,127
61264,note_off,0,0,0,,4,,,64,127
61265,note_on,1,0,0,,4,,,76,127
61265,note_on,0,0,0,,2,,,74,127
61265,note_on,0,0,0,,12,,,59,127
61265,note_on,0,0,0,,2,,,62,127
61382,note_off,117,0,0,,2,,,74,127
61382,note_off,0,0,0,,4,,,76,127
61383,note_on,1,0,0,,1,,,73,127
61500,note_off,117,0,0,,1,,,73,127
61501,note_on,1,0,0,,12,,,71,127
61590,note_off,89,0,0,,12,,,71,127
61634,note_on,44,0,0,,6,,,78,127
61751,note_off,117,0,0,,6,,,78,127
61752,note_on,1,0,0,,4,,,76,127
61869,note_off,117,0,0,,4,,,76,127
61870,note_on,1,0,0,,2,,,74,127
61972,note_off,102,0,0,,2,,,62,127
61972,note_off,0,0,0,,12,,,59,127
61987,note_off,15,0,0,,2,,,74,127
61988,note_on,1,0,0,,1,,,73,127
62105,note_off,117,0,0,,1,,,73,127
62106,note_on,1,0,0,,12,,,71,127
62223,note_off,117,0,0,,12,,,71,127
62224,note_on,1,0,0,,10,,,69,127
62341,note_off,117,0,0,,10,,,69,127
62342,note_on,1,0,0,,6,,,66,127
62342,note_on,0,0,0,,2,,,62,127
62342,note_on,0,0,0,,8,,,68,127
62459,note_off,117,0,0,,8,,,68,127
62460,note_on,1,0,0,,10,,,69,127
62577,note_off,117,0,0,,10,,,69,127
62578,note_on,1,0,0,,12,,,71,127
62695,note_off,117,0,0,,12,,,71,127
62695,note_off,0,0,0,,2,,,62,127
62695,note_off,0,0,0,,6,,,66,127
62696,note_on,1,0,0,,1,,,61,127
62696,note_on,0,0,0,,4,,,64,127
62696,note_on,0,0,0,,10,,,69,127
62813,note_off,117,0,0,,10,,,69,127
62814,note_on,1,0,0,,8,,,68,127
62931,note_off,117,0,0,,8,,,68,127
62932,note_on,1,0,0,,12,,,71,127
63049,note_off,117,0,0,,12,,,71,127
63049,note_off,0,0,0,,4,,,64,127
63049,note_off,0,0,0,,1,,,61,127
63050,note_on,1,0,0,,6,,,66,127
63050,note_on,0,0,0,,2,,,62,127
63050,note_on,0,0,0,,10,,,69,127
63167,note_off,117,0,0,,10,,,69,127
63168,note_on,1,0,0,,8,,,68,127
63285,note_off,117,0,0,,8,,,68,127
63286,note_on,1,0,0,,12,,,71,127
63403,note_off,117,0,0,,12,,,71,127
63403,note_off,0,0,0,,2,,,62,127
63403,note_off,0,0,0,,6,,,66,127
63404,note_on,1,0,0,,1,,,61,127
63404,note_on,0,0,0,,4,,,64,127
63404,note_on,0,0,0,,10,,,69,127
63521,note_off,117,0,0,,10,,,69,127
63522,note_on,1,0,0,,8,,,68,127
63639,note_off,117,0,0,,8,,,68,127
63640,note_on,1,0,0,,10,,,69,127
63757,note_off,117,0,0,,10,,,69,127
63757,note_off,0,0,0,,4,,,64,127
63757,note_off,0,0,0,,1,,,61,127
63758,note_on,1,0,0,,2,,,62,127
63758,note_on,0,0,0,,12,,,59,127
63758,note_on,0,0,0,,12,,,71,127
63797,note_on,39,0,0,,10,,,69,127
63809,note_off,12,0,0,,12,,,71,127
63835,note_off,26,0,0,,10,,,69,127
63836,note_on,1,0,0,,12,,,71,127
63876,note_off,40,0,0,,12,,,71,127
63877,note_on,1,0,0,,1,,,73,127
63994,note_off,117,0,0,,1,,,73,127
63995,note_on,1,0,0,,2,,,74,127
64112,note_off,117,0,0,,2,,,74,127
64112,note_off,0,0,0,,12,,,59,127
64112,note_off,0,0,0,,2,,,62,127
64113,note_on,1,0,0,,4,,,64,127
64113,note_on,0,0,0,,10,,,57,127
64113,note_on,0,0,0,,1,,,73,127
64113,note_on,0,0,0,,2,,,74,127
64230,note_off,117,0,0,,2,,,74,127
64230,note_off,0,0,0,,1,,,73,127
64231,note_on,1,0,0,,12,,,71,127
64348,note_off,117,0,0,,12,,,71,127
64349,note_on,1,0,0,,10,,,69,127
64466,note_off,117,0,0,,10,,,69,127
64496,note_on,30,0,0,,4,,,76,127
64613,note_off,117,0,0,,4,,,76,127
64614,note_on,1,0,0,,2,,,74,127
64731,note_off,117,0,0,,2,,,74,127
64732,note_on,1,0,0,,1,,,73,127
64820,note_off,88,0,0,,10,,,57,127
64820,note_off,0,0,0,,4,,,64,127
64850,note_off,30,0,0,,1,,,73,127
64851,note_on,1,0,0,,12,,,71,127
64968,note_off,117,0,0,,12,,,71,127
64969,note_on,1,0,0,,10,,,69,127
65086,note_off,117,0,0,,10,,,69,127
65087,note_on,1,0,0,,8,,,68,127
65204,note_off,117,0,0,,8,,,68,127
65205,note_on,1,0,0,,6,,,66,127
65322,note_off,117,0,0,,6,,,66,127
65323,note_on,1,0,0,,4,,,64,127
65440,note_off,117,0,0,,4,,,64,127
65441,note_on,1,0,0,,2,,,62,127
65558,note_off,117,0,0,,2,,,62,127
65559,note_on,1,0,0,,1,,,61,127
65676,note_off,117,0,0,,1,,,61,127
65677,note_on,1,0,0,,12,,,59,127
65794,note_off,117,0,0,,12,,,59,127
65795,note_on,1,0,0,,10,,,57,127
65912,note_off,117,0,0,,10,,,57,127
65913,note_on,1,0,0,,4,,,40,127
65913,note_on,0,0,0,,4,,,52,127
65913,note_on,0,0,0,,8,,,56,127
66030,note_off,117,0,0,,8,,,56,127
66031,note_on,1,0,0,,10,,,57,127
66148,note_off,117,0,0,,10,,,57,127
66149,note_on,1,0,0,,12,,,59,127
66266,note_off,117,0,0,,12,,,59,127
66267,note_on,1,0,0,,1,,,61,127
66384,note_off,117,0,0,,1,,,61,127
66385,note_on,1,0,0,,3,,,63,127
66502,note_off,117,0,0,,3,,,63,127
66503,note_on,1,0,0,,4,,,64,127
66620,note_off,117,0,0,,4,,,64,127
66620,note_off,0,0,0,,4,,,52,127
66620,note_off,0,0,0,,4,,,40,127
66621,note_on,1,0,0,,6,,,42,127
66621,note_on,0,0,0,,6,,,54,127
66621,note_on,0,0,0,,6,,,66,127
66738,note_off,117,0,0,,6,,,66,127
66739,note_on,1,0,0,,8,,,68,127
66856,note_off,117,0,0,,8,,,68,127
66857,note_on,1,0,0,,10,,,69,127
66974,note_off,117,0,0,,10,,,69,127
66974,note_off,0,0,0,,6,,,54,127
66974,note_off,0,0,0,,6,,,42,127
66975,note_on,1,0,0,,4,,,40,127
66975,note_on,0,0,0,,4,,,52,127
66975,note_on,0,0,0,,10,,,69,127
66975,note_on,0,0,0,,8,,,68,127
67092,note_off,117,0,0,,8,,,68,127
67092,note_off,0,0,0,,10,,,69,127
67093,note_on,1,0,0,,6,,,66,127
67210,note_off,117,0,0,,6,,,66,127
67211,note_on,1,0,0,,4,,,64,127
67328,note_off,117,0,0,,4,,,64,127
67344,note_on,16,0,0,,4,,,76,127
67461,note_off,117,0,0,,4,,,76,127
67462,note_on,1,0,0,,2,,,74,127
67579,note_off,117,0,0,,2,,,74,127
67580,note_on,1,0,0,,1,,,73,127
67682,note_off,102,0,0,,4,,,52,127
67682,note_off,0,0,0,,4,,,40,127
67697,note_off,15,0,0,,1,,,73,127
67698,note_on,1,0,0,,12,,,71,127
67815,note_off,117,0,0,,12,,,71,127
67816,note_on,1,0,0,,10,,,69,127
67933,note_off,117,0,0,,10,,,69,127
67934,note_on,1,0,0,,8,,,68,127
68051,note_off,117,0,0,,8,,,68,127
68052,note_on,1,0,0,,6,,,66,127
68169,note_off,117,0,0,,6,,,66,127
68170,note_on,1,0,0,,4,,,64,127
68287,note_off,117,0,0,,4,,,64,127
68288,note_on,1,0,0,,2,,,62,127
68405,note_off,117,0,0,,2,,,62,127
68406,note_on,1,0,0,,1,,,61,127
68523,note_off,117,0,0,,1,,,61,127
68524,note_on,1,0,0,,12,,,59,127
68641,note_off,117,0,0,,12,,,59,127
68642,note_on,1,0,0,,10,,,57,127
68759,note_off,117,0,0,,10,,,57,127
68760,note_on,1,0,0,,8,,,56,127
68760,note_on,0,0,0,,4,,,40,127
68760,note_on,0,0,0,,4,,,52,127
68877,note_off,117,0,0,,8,,,56,127
68878,note_on,1,0,0,,10,,,57,127
68995,note_off,117,0,0,,10,,,57,127
68996,note_on,1,0,0,,12,,,59,127
69113,note_off,117,0,0,,12,,,59,127
69114,note_on,1,0,0,,1,,,61,127
69231,note_off,117,0,0,,1,,,61,127
69232,note_on,1,0,0,,3,,,63,127
69349,note_off,117,0,0,,3,,,63,127
69350,note_on,1,0,0,,4,,,64,127
69467,note_off,117,0,0,,4,,,64,127
69467,note_off,0,0,0,,4,,,52,127
69467,note_off,0,0,0,,4,,,40,127
69468,note_on,1,0,0,,6,,,66,127
69468,note_on,0,0,0,,6,,,54,127
69468,note_on,0,0,0,,6,,,42,127
69585,note_off,117,0,0,,6,,,66,127
69586,note_on,1,0,0,,8,,,68,127
69703,note_off,117,0,0,,8,,,68,127
69704,note_on,1,0,0,,10,,,69,127
69821,note_off,117,0,0,,10,,,69,127
69821,note_off,0,0,0,,6,,,42,127
69821,note_off,0,0,0,,6,,,54,127
69822,note_on,1,0,0,,8,,,68,127
69822,note_on,0,0,0,,10,,,69,127
69822,note_on,0,0,0,,4,,,52,127
69822,note_on,0,0,0,,4,,,40,127
69939,note_off,117,0,0,,10,,,69,127
69939,note_off,0,0,0,,8,,,68,127
69940,note_on,1,0,0,,6,,,66,127
70057,note_off,117,0,0,,6,,,66,127
70058,note_on,1,0,0,,4,,,64,127
70175,note_off,117,0,0,,4,,,40,127
70191,note_off,16,0,0,,4,,,52,127
70210,note_off,19,0,0,,4,,,64,127
70220,note_on,10,0,0,,4,,,64,127
70220,note_on,0,0,0,,1,,,73,127
70263,note_off,43,0,0,,1,,,73,127
70264,note_on,1,0,0,,12,,,71,127
70308,note_on,44,0,0,,1,,,73,127
70314,note_off,6,0,0,,12,,,71,127
70336,note_off,22,0,0,,4,,,64,127
70337,note_on,1,0,0,,2,,,62,127
70351,note_off,14,0,0,,1,,,73,127
70352,note_on,1,0,0,,12,,,71,127
70454,note_off,102,0,0,,2,,,62,127
70455,note_on,1,0,0,,1,,,61,127
70572,note_off,117,0,0,,1,,,61,127
70572,note_off,0,0,0,,12,,,71,127
70573,note_on,1,0,0,,12,,,59,127
70573,note_on,0,0,0,,1,,,73,127
70616,note_off,43,0,0,,1,,,73,127
70617,note_on,1,0,0,,12,,,71,127
70660,note_off,43,0,0,,12,,,71,127
70661,note_on,1,0,0,,1,,,73,127
70690,note_off,29,0,0,,12,,,59,127
70691,note_on,1,0,0,,10,,,57,127
70705,note_off,14,0,0,,1,,,73,127
70706,note_on,1,0,0,,12,,,71,127
70808,note_off,102,0,0,,10,,,57,127
70809,note_on,1,0,0,,8,,,56,127
70926,note_off,117,0,0,,8,,,56,127
70926,note_off,0,0,0,,12,,,71,127
70927,note_on,1,0,0,,6,,,54,127
70927,note_on,0,0,0,,1,,,73,127
70970,note_off,43,0,0,,1,,,73,127
70971,note_on,1,0,0,,12,,,71,127
71014,note_off,43,0,0,,12,,,71,127
71015,note_on,1,0,0,,1,,,73,127
71044,note_off,29,0,0,,6,,,54,127
71045,note_on,1,0,0,,4,,,52,127
71059,note_off,14,0,0,,1,,,73,127
71060,note_on,1,0,0,,12,,,71,127
71162,note_off,102,0,0,,4,,,52,127
71163,note_on,1,0,0,,2,,,50,127
71280,note_off,117,0,0,,2,,,50,127
71280,note_off,0,0,0,,12,,,71,127
71281,note_on,1,0,0,,1,,,49,127
71281,note_on,0,0,0,,1,,,73,127
71324,note_off,43,0,0,,1,,,73,127
71325,note_on,1,0,0,,12,,,71,127
71368,note_off,43,0,0,,12,,,71,127
71369,note_on,1,0,0,,1,,,73,127
71398,note_off,29,0,0,,1,,,49,127
71399,note_on,1,0,0,,12,,,47,127
71413,note_off,14,0,0,,1,,,73,127
71414,note_on,1,0,0,,12,,,71,127
71516,note_off,102,0,0,,12,,,47,127
71517,note_on,1,0,0,,10,,,45,127
71634,note_off,117,0,0,,10,,,45,127
71634,note_off,0,0,0,,12,,,71,127
71635,note_on,1,0,0,,8,,,44,127
71635,note_on,0,0,0,,1,,,73,127
71678,note_off,43,0,0,,1,,,73,127
71679,note_on,1,0,0,,12,,,71,127
71722,note_off,43,0,0,,12,,,71,127
71723,note_on,1,0,0,,1,,,73,127
71752,note_off,29,0,0,,8,,,44,127
71753,note_on,1,0,0,,6,,,42,127
71767,note_off,14,0,0,,1,,,73,127
71768,note_on,1,0,0,,12,,,71,127
71870,note_off,102,0,0,,6,,,42,127
71871,note_on,1,0,0,,4,,,40,127
71988,note_off,117,0,0,,4,,,40,127
71988,note_off,0,0,0,,12,,,71,127
71989,note_on,1,0,0,,4,,,40,127
71989,note_on,0,0,0,,1,,,73,127
72032,note_off,43,0,0,,1,,,73,127
72033,note_on,1,0,0,,12,,,71,127
72076,note_off,43,0,0,,12,,,71,127
72077,note_on,1,0,0,,1,,,73,127
72120,note_off,43,0,0,,1,,,73,127
72121,note_on,1,0,0,,12,,,71,127
72342,note_off,221,0,0,,12,,,71,127
72342,note_off,0,0,0,,4,,,40,127
72343,note_on,1,0,0,,4,,,40,127
72343,note_on,0,0,0,,12,,,71,127
72460,note_off,117,0,0,,12,,,71,127
72461,note_on,1,0,0,,1,,,73,127
72578,note_off,117,0,0,,1,,,73,127
72579,note_on,1,0,0,,2,,,74,127
72696,note_off,117,0,0,,2,,,74,127
72696,note_off,0,0,0,,4,,,40,127
72697,note_on,1,0,0,,10,,,45,127
72697,note_on,0,0,0,,1,,,73,127
72814,note_off,117,0,0,,1,,,73,127
72815,note_on,1,0,0,,2,,,74,127
72932,note_off,117,0,0,,2,,,74,127
72933,note_on,1,0,0,,4,,,76,127
73050,note_off,117,0,0,,4,,,76,127
73050,note_off,0,0,0,,10,,,45,127
73051,note_on,1,0,0,,2,,,50,127
73051,note_on,0,0,0,,6,,,78,127
73168,note_off,117,0,0,,6,,,78,127
73169,note_on,1,0,0,,4,,,76,127
73286,note_off,117,0,0,,4,,,76,127
73287,note_on,1,0,0,,2,,,74,127
73404,note_off,117,0,0,,2,,,74,127
73404,note_off,0,0,0,,2,,,50,127
73405,note_on,1,0,0,,4,,,52,127
73405,note_on,0,0,0,,1,,,73,127
73522,note_off,117,0,0,,1,,,73,127
73523,note_on,1,0,0,,12,,,71,127
73640,note_off,117,0,0,,12,,,71,127
73641,note_on,1,0,0,,10,,,69,127
73758,note_off,117,0,0,,10,,,69,127
73758,note_off,0,0,0,,4,,,52,127
73759,note_on,1,0,0,,4,,,40,127
73759,note_on,0,0,0,,8,,,68,127
73876,note_off,117,0,0,,8,,,68,127
73877,note_on,1,0,0,,10,,,69,127
73994,note_off,117,0,0,,10,,,69,127
73995,note_on,1,0,0,,12,,,71,127
74109,note_off,114,0,0,,4,,,40,127
74112,note_off,3,0,0,,12,,,71,127
74113,note_on,1,0,0,,4,,,64,127
74436,note_off,323,0,0,,4,,,64,127
74467,note_on,31,0,0,,4,,,64,127
74467,note_on,0,0,0,,1,,,73,127
74525,note_off,58,0,0,,1,,,73,127
74526,note_on,1,0,0,,12,,,71,127
74584,note_off,58,0,0,,12,,,71,127
74584,note_off,0,0,0,,4,,,64,127
74585,note_on,1,0,0,,2,,,62,127
74585,note_on,0,0,0,,1,,,73,127
74643,note_off,58,0,0,,1,,,73,127
74644,note_on,1,0,0,,12,,,71,127
74702,note_off,58,0,0,,2,,,62,127
74703,note_on,1,0,0,,1,,,61,127
74820,note_off,117,0,0,,1,,,61,127
74820,note_off,0,0,0,,12,,,71,127
74821,note_on,1,0,0,,12,,,59,127
74821,note_on,0,0,0,,4,,,64,127
74821,note_on,0,0,0,,1,,,73,127
74879,note_off,58,0,0,,1,,,73,127
74880,note_on,1,0,0,,12,,,71,127
74938,note_off,58,0,0,,12,,,71,127
74938,note_off,0,0,0,,12,,,59,127
74939,note_on,1,0,0,,10,,,57,127
74939,note_on,0,0,0,,1,,,73,127
74997,note_off,58,0,0,,1,,,73,127
74998,note_on,1,0,0,,12,,,71,127
75056,note_off,58,0,0,,10,,,57,127
75057,note_on,1,0,0,,8,,,56,127
75135,note_off,78,0,0,,4,,,64,127
75175,note_off,40,0,0,,8,,,56,127
75175,note_off,0,0,0,,12,,,71,127
75176,note_on,1,0,0,,6,,,54,127
75176,note_on,0,0,0,,1,,,73,127
75176,note_on,0,0,0,,4,,,64,127
75234,note_off,58,0,0,,1,,,73,127
75235,note_on,1,0,0,,12,,,71,127
75293,note_off,58,0,0,,12,,,71,127
75293,note_off,0,0,0,,6,,,54,127
75294,note_on,1,0,0,,4,,,52,127
75294,note_on,0,0,0,,1,,,73,127
75352,note_off,58,0,0,,1,,,73,127
75353,note_on,1,0,0,,12,,,71,127
75411,note_off,58,0,0,,4,,,52,127
75412,note_on,1,0,0,,2,,,50,127
75490,note_off,78,0,0,,4,,,64,127
75530,note_off,40,0,0,,2,,,50,127
75530,note_off,0,0,0,,12,,,71,127
75531,note_on,1,0,0,,1,,,49,127
75531,note_on,0,0,0,,4,,,64,127
75531,note_on,0,0,0,,1,,,73,127
75589,note_off,58,0,0,,1,,,73,127
75590,note_on,1,0,0,,12,,,71,127
75648,note_off,58,0,0,,12,,,71,127
75648,note_off,0,0,0,,1,,,49,127
75649,note_on,1,0,0,,12,,,47,127
75649,note_on,0,0,0,,1,,,73,127
75707,note_off,58,0,0,,1,,,73,127
75708,note_on,1,0,0,,12,,,71,127
75766,note_off,58,0,0,,12,,,47,127
75767,note_on,1,0,0,,10,,,45,127
75845,note_off,78,0,0,,4,,,64,127
75885,note_off,40,0,0,,10,,,45,127
75885,note_off,0,0,0,,12,,,71,127
75886,note_on,1,0,0,,8,,,44,127
75886,note_on,0,0,0,,1,,,73,127
75886,note_on,0,0,0,,4,,,64,127
75944,note_off,58,0,0,,1,,,73,127
75945,note_on,1,0,0,,12,,,71,127
76003,note_off,58,0,0,,12,,,71,127
76003,note_off,0,0,0,,8,,,44,127
76004,note_on,1,0,0,,6,,,42,127
76004,note_on,0,0,0,,1,,,73,127
76062,note_off,58,0,0,,1,,,73,127
76063,note_on,1,0,0,,12,,,71,127
76121,note_off,58,0,0,,6,,,42,127
76122,note_on,1,0,0,,4,,,40,127
76200,note_off,78,0,0,,4,,,64,127
76240,note_off,40,0,0,,4,,,40,127
76240,note_off,0,0,0,,12,,,71,127
76241,note_on,1,0,0,,4,,,40,127
76241,note_on,0,0,0,,1,,,73,127
76241,note_on,0,0,0,,4,,,64,127
76299,note_off,58,0,0,,1,,,73,127
76300,note_on,1,0,0,,12,,,71,127
76358,note_off,58,0,0,,12,,,71,127
76359,note_on,1,0,0,,1,,,73,127
76417,note_off,58,0,0,,1,,,73,127
76418,note_on,1,0,0,,12,,,71,127
76592,note_off,174,0,0,,4,,,64,127
76595,note_off,3,0,0,,12,,,71,127
76595,note_off,0,0,0,,4,,,40,127
76596,note_on,1,0,0,,4,,,40,127
76596,note_on,0,0,0,,12,,,71,127
76713,note_off,117,0,0,,12,,,71,127
76714,note_on,1,0,0,,1,,,73,127
76831,note_off,117,0,0,,1,,,73,127
76832,note_on,1,0,0,,2,,,74,127
76949,note_off,117,0,0,,2,,,74,127
76949,note_off,0,0,0,,4,,,40,127
76950,note_on,1,0,0,,10,,,45,127
76950,note_on,0,0,0,,1,,,73,127
76950,note_on,0,0,0,,2,,,74,127
77067,note_off,117,0,0,,2,,,74,127
77067,note_off,0,0,0,,1,,,73,127
77068,note_on,1,0,0,,12,,,71,127
77185,note_off,117,0,0,,12,,,71,127
77186,note_on,1,0,0,,1,,,73,127
77303,note_off,117,0,0,,1,,,73,127
77303,note_off,0,0,0,,10,,,45,127
77304,note_on,1,0,0,,2,,,50,127
77304,note_on,0,0,0,,4,,,76,127
77304,note_on,0,0,0,,2,,,74,127
77421,note_off,117,0,0,,2,,,74,127
77421,note_off,0,0,0,,4,,,76,127
77422,note_on,1,0,0,,1,,,73,127
77539,note_off,117,0,0,,1,,,73,127
77540,note_on,1,0,0,,12,,,71,127
77657,note_off,117,0,0,,12,,,71,127
77657,note_off,0,0,0,,2,,,50,127
77658,note_on,1,0,0,,4,,,52,127
77658,note_on,0,0,0,,1,,,73,127
77658,note_on,0,0,0,,10,,,69,127
78012,note_off,354,0,0,,10,,,69,127
78012,note_off,0,0,0,,1,,,73,127
78012,note_off,0,0,0,,4,,,52,127
78013,note_on,1,0,0,,4,,,40,127
78013,note_on,0,0,0,,8,,,68,127
78013,note_on,0,0,0,,1,,,73,127
78101,note_off,88,0,0,,1,,,73,127
78102,note_on,1,0,0,,12,,,71,127
78190,note_off,88,0,0,,12,,,71,127
78191,note_on,1,0,0,,10,,,69,127
78279,note_off,88,0,0,,10,,,69,127
78280,note_off,1,0,0,,8,,,68,127
78280,note_on,0,0,0,,12,,,71,127
78368,note_off,88,0,0,,4,,,40,127
78374,note_off,6,0,0,,12,,,71,127
78378,note_on,4,0,0,,10,,,69,127
78378,note_on,0,0,0,,10,,,45,127
78644,note_off,266,0,0,,10,,,69,127
78732,note_off,88,0,0,,10,,,45,127
78769,note_on,37,0,0,,1,,,73,127
78769,note_on,0,0,0,,7,,,67,127
78769,note_on,0,0,0,,10,,,57,127
78886,note_off,117,0,0,,1,,,73,127
78887,note_on,1,0,0,,2,,,74,127
79004,note_off,117,0,0,,2,,,74,127
79005,note_on,1,0,0,,4,,,76,127
79122,note_off,117,0,0,,7,,,67,127
79123,note_on,1,0,0,,6,,,66,127
79477,note_off,354,0,0,,6,,,66,127
79477,note_off,0,0,0,,4,,,76,127
79477,note_off,0,0,0,,10,,,57,127
79478,note_on,1,0,0,,2,,,74,127
79478,note_on,0,0,0,,2,,,62,127
79478,note_on,0,0,0,,6,,,66,127
79595,note_off,117,0,0,,2,,,74,127
79596,note_on,1,0,0,,4,,,76,127
79713,note_off,117,0,0,,4,,,76,127
79714,note_on,1,0,0,,6,,,78,127
79831,note_off,117,0,0,,6,,,66,127
79831,note_off,0,0,0,,2,,,62,127
79832,note_on,1,0,0,,4,,,64,127
79832,note_on,0,0,0,,1,,,61,127
80186,note_off,354,0,0,,1,,,61,127
80186,note_off,0,0,0,,6,,,78,127
80187,note_on,1,0,0,,4,,,76,127
80187,note_on,0,0,0,,10,,,57,127
80304,note_off,117,0,0,,4,,,76,127
80305,note_on,1,0,0,,6,,,78,127
80422,note_off,117,0,0,,6,,,78,127
80423,note_on,1,0,0,,7,,,79,127
80540,note_off,117,0,0,,10,,,57,127
80540,note_off,0,0,0,,4,,,64,127
80541,note_on,1,0,0,,2,,,62,127
80541,note_on,0,0,0,,2,,,50,127
80895,note_off,354,0,0,,2,,,50,127
80895,note_off,0,0,0,,2,,,62,127
80895,note_off,0,0,0,,7,,,79,127
80896,note_on,1,0,0,,6,,,78,127
80896,note_on,0,0,0,,2,,,62,127
80896,note_on,0,0,0,,2,,,50,127
81013,note_off,117,0,0,,6,,,78,127
81014,note_on,1,0,0,,8,,,80,127
81131,note_off,117,0,0,,8,,,80,127
81132,note_on,1,0,0,,10,,,81,127
81249,note_off,117,0,0,,10,,,81,127
81249,note_off,0,0,0,,2,,,50,127
81249,note_off,0,0,0,,2,,,62,127
81250,note_on,1,0,0,,8,,,80,127
81250,note_on,0,0,0,,4,,,52,127
81250,note_on,0,0,0,,4,,,64,127
81367,note_off,117,0,0,,8,,,80,127
81368,note_on,1,0,0,,12,,,83,127
81485,note_off,117,0,0,,12,,,83,127
81486,note_on,1,0,0,,10,,,81,127
81603,note_off,117,0,0,,10,,,81,127
81604,note_on,1,0,0,,8,,,80,127
81721,note_off,117,0,0,,8,,,80,127
81722,note_on,1,0,0,,2,,,86,127
81839,note_off,117,0,0,,2,,,86,127
81840,note_on,1,0,0,,1,,,85,127
81957,note_off,117,0,0,,1,,,85,127
81957,note_off,0,0,0,,4,,,64,127
81957,note_off,0,0,0,,4,,,52,127
81958,note_on,1,0,0,,12,,,83,127
82075,note_off,117,0,0,,12,,,83,127
82076,note_on,1,0,0,,6,,,90,127
82193,note_off,117,0,0,,6,,,90,127
82194,note_on,1,0,0,,4,,,88,127
82311,note_off,117,0,0,,4,,,88,127
82312,note_on,1,0,0,,2,,,86,127
82312,note_on,0,0,0,,4,,,88,127
82312,note_on,0,0,0,,4,,,64,127
82312,note_on,0,0,0,,8,,,56,127
82429,note_off,117,0,0,,4,,,88,127
82429,note_off,0,0,0,,2,,,86,127
82430,note_on,1,0,0,,1,,,85,127
82547,note_off,117,0,0,,1,,,85,127
82548,note_on,1,0,0,,2,,,86,127
82665,note_off,117,0,0,,2,,,86,127
82665,note_off,0,0,0,,8,,,56,127
82665,note_off,0,0,0,,4,,,64,127
82666,note_on,1,0,0,,1,,,85,127
82666,note_on,0,0,0,,2,,,86,127
82666,note_on,0,0,0,,4,,,64,127
82666,note_on,0,0,0,,10,,,57,127
82783,note_off,117,0,0,,2,,,86,127
82783,note_off,0,0,0,,1,,,85,127
82784,note_on,1,0,0,,12,,,83,127
82901,note_off,117,0,0,,12,,,83,127
82902,note_on,1,0,0,,1,,,85,127
83019,note_off,117,0,0,,1,,,85,127
83019,note_off,0,0,0,,10,,,57,127
83019,note_off,0,0,0,,4,,,64,127
83020,note_on,1,0,0,,2,,,86,127
83020,note_on,0,0,0,,4,,,88,127
83020,note_on,0,0,0,,2,,,50,127
83137,note_off,117,0,0,,4,,,88,127
83137,note_off,0,0,0,,2,,,86,127
83138,note_on,1,0,0,,1,,,85,127
83255,note_off,117,0,0,,1,,,85,127
83256,note_on,1,0,0,,12,,,83,127
83373,note_off,117,0,0,,12,,,83,127
83373,note_off,0,0,0,,2,,,50,127
83374,note_on,1,0,0,,1,,,85,127
83374,note_on,0,0,0,,10,,,81,127
83374,note_on,0,0,0,,4,,,52,127
83728,note_off,354,0,0,,4,,,52,127
83728,note_off,0,0,0,,10,,,81,127
83728,note_off,0,0,0,,1,,,85,127
83729,note_on,1,0,0,,1,,,85,127
83729,note_on,0,0,0,,8,,,80,127
83729,note_on,0,0,0,,4,,,40,127
83817,note_off,88,0,0,,1,,,85,127
83818,note_on,1,0,0,,12,,,83,127
83906,note_off,88,0,0,,12,,,83,127
83907,note_on,1,0,0,,10,,,81,127
83995,note_off,88,0,0,,10,,,81,127
83996,note_off,1,0,0,,8,,,80,127
83996,note_on,0,0,0,,12,,,83,127
84084,note_off,88,0,0,,12,,,83,127
84084,note_off,0,0,0,,4,,,40,127
84085,note_on,1,0,0,,10,,,81,127
84085,note_on,0,0,0,,10,,,45,127
84380,note_off,295,0,0,,10,,,81,127
84438,note_off,58,0,0,,10,,,45,127
84454,note_on,16,0,0,,10,,,45,127
84454,note_on,0,0,0,,7,,,55,127
84454,note_on,0,0,0,,1,,,61,127
84571,note_off,117,0,0,,1,,,61,127
84572,note_on,1,0,0,,2,,,62,127
84689,note_off,117,0,0,,2,,,62,127
84690,note_on,1,0,0,,4,,,64,127
84807,note_off,117,0,0,,7,,,55,127
84808,note_on,1,0,0,,6,,,54,127
84911,note_off,103,0,0,,4,,,64,127
85155,note_off,244,0,0,,10,,,45,127
85161,note_off,6,0,0,,6,,,54,127
85162,note_on,1,0,0,,6,,,54,127
85162,note_on,0,0,0,,2,,,50,127
85162,note_on,0,0,0,,2,,,62,127
85279,note_off,117,0,0,,2,,,62,127
85280,note_on,1,0,0,,4,,,64,127
85397,note_off,117,0,0,,4,,,64,127
85398,note_on,1,0,0,,6,,,66,127
85515,note_off,117,0,0,,2,,,50,127
85515,note_off,0,0,0,,6,,,54,127
85516,note_on,1,0,0,,1,,,49,127
85516,note_on,0,0,0,,4,,,52,127
85619,note_off,103,0,0,,6,,,66,127
85869,note_off,250,0,0,,1,,,49,127
85870,note_on,1,0,0,,10,,,45,127
85870,note_on,0,0,0,,4,,,64,127
85987,note_off,117,0,0,,4,,,64,127
85988,note_on,1,0,0,,6,,,66,127
86105,note_off,117,0,0,,6,,,66,127
86106,note_on,1,0,0,,7,,,67,127
86217,note_off,111,0,0,,4,,,52,127
86223,note_off,6,0,0,,10,,,45,127
86224,note_on,1,0,0,,2,,,38,127
86224,note_on,0,0,0,,2,,,50,127
86327,note_off,103,0,0,,7,,,67,127
86577,note_off,250,0,0,,2,,,50,127
86577,note_off,0,0,0,,2,,,38,127
86578,note_on,1,0,0,,2,,,38,127
86578,note_on,0,0,0,,2,,,50,127
86578,note_on,0,0,0,,6,,,66,127
86695,note_off,117,0,0,,6,,,66,127
86696,note_on,1,0,0,,8,,,68,127
86813,note_off,117,0,0,,8,,,68,127
86814,note_on,1,0,0,,10,,,69,127
86931,note_off,117,0,0,,10,,,69,127
86931,note_off,0,0,0,,2,,,50,127
86931,note_off,0,0,0,,2,,,38,127
86932,note_on,1,0,0,,4,,,40,127
86932,note_on,0,0,0,,4,,,52,127
86932,note_on,0,0,0,,8,,,68,127
87049,note_off,117,0,0,,8,,,68,127
87050,note_on,1,0,0,,12,,,71,127
87167,note_off,117,0,0,,12,,,71,127
87168,note_on,1,0,0,,10,,,69,127
87285,note_off,117,0,0,,10,,,69,127
87286,note_on,1,0,0,,8,,,68,127
87403,note_off,117,0,0,,8,,,68,127
87404,note_on,1,0,0,,2,,,74,127
87521,note_off,117,0,0,,2,,,74,127
87522,note_on,1,0,0,,1,,,73,127
87639,note_off,117,0,0,,1,,,73,127
87640,note_on,1,0,0,,12,,,71,127
87725,note_off,85,0,0,,4,,,52,127
87725,note_off,0,0,0,,4,,,40,127
87757,note_off,32,0,0,,12,,,71,127
87758,note_on,1,0,0,,6,,,78,127
87875,note_off,117,0,0,,6,,,78,127
87876,note_on,1,0,0,,4,,,76,127
87993,note_off,117,0,0,,4,,,76,127
87994,note_on,1,0,0,,8,,,44,127
87994,note_on,0,0,0,,4,,,52,127
87994,note_on,0,0,0,,2,,,74,127
87994,note_on,0,0,0,,4,,,76,127
88111,note_off,117,0,0,,4,,,76,127
88111,note_off,0,0,0,,2,,,74,127
88112,note_on,1,0,0,,1,,,73,127
88229,note_off,117,0,0,,1,,,73,127
88230,note_on,1,0,0,,2,,,74,127
88347,note_off,117,0,0,,2,,,74,127
88347,note_off,0,0,0,,4,,,52,127
88347,note_off,0,0,0,,8,,,44,127
88348,note_on,1,0,0,,10,,,45,127
88348,note_on,0,0,0,,2,,,74,127
88348,note_on,0,0,0,,1,,,73,127
88465,note_off,117,0,0,,1,,,73,127
88465,note_off,0,0,0,,2,,,74,127
88466,note_on,1,0,0,,12,,,71,127
88583,note_off,117,0,0,,12,,,71,127
88584,note_on,1,0,0,,1,,,73,127
88701,note_off,117,0,0,,1,,,73,127
88701,note_off,0,0,0,,10,,,45,127
88702,note_on,1,0,0,,2,,,50,127
88702,note_on,0,0,0,,4,,,76,127
88702,note_on,0,0,0,,2,,,74,127
88819,note_off,117,0,0,,2,,,74,127
88819,note_off,0,0,0,,4,,,76,127
88820,note_on,1,0,0,,1,,,73,127
88937,note_off,117,0,0,,1,,,73,127
88938,note_on,1,0,0,,12,,,71,127
89055,note_off,117,0,0,,12,,,71,127
89055,note_off,0,0,0,,2,,,50,127
89056,note_on,1,0,0,,4,,,52,127
89056,note_on,0,0,0,,10,,,69,127
89056,note_on,0,0,0,,1,,,73,127
89410,note_off,354,0,0,,1,,,73,127
89410,note_off,0,0,0,,10,,,69,127
89411,note_on,1,0,0,,4,,,40,127
89411,note_on,0,0,0,,8,,,68,127
89411,note_on,0,0,0,,1,,,73,127
89499,note_off,88,0,0,,1,,,73,127
89500,note_on,1,0,0,,12,,,71,127
89588,note_off,88,0,0,,12,,,71,127
89589,note_on,1,0,0,,10,,,69,127
89677,note_off,88,0,0,,10,,,69,127
89678,note_off,1,0,0,,8,,,68,127
89678,note_on,0,0,0,,12,,,71,127
89766,note_off,88,0,0,,12,,,71,127
89766,note_off,0,0,0,,4,,,40,127
89766,note_off,0,0,0,,4,,,52,127
89767,note_on,1,0,0,,10,,,45,127
89767,note_on,0,0,0,,10,,,69,127
89900,note_on,133,0,0,,10,,,81,127
89952,note_off,52,0,0,,10,,,69,127
90018,note_off,66,0,0,,10,,,81,127
90019,note_on,1,0,0,,4,,,76,127
90121,note_off,102,0,0,,10,,,45,127
90136,note_off,15,0,0,,4,,,76,127
90137,note_on,1,0,0,,6,,,78,127
90137,note_on,0,0,0,,2,,,50,127
90254,note_off,117,0,0,,6,,,78,127
90255,note_on,1,0,0,,2,,,74,127
90372,note_off,117,0,0,,2,,,74,127
90373,note_on,1,0,0,,12,,,71,127
90490,note_off,117,0,0,,12,,,71,127
90490,note_off,0,0,0,,2,,,50,127
90491,note_on,1,0,0,,10,,,69,127
90491,note_on,0,0,0,,1,,,73,127
90491,note_on,0,0,0,,4,,,52,127
90845,note_off,354,0,0,,4,,,52,127
90845,note_off,0,0,0,,1,,,73,127
90845,note_off,0,0,0,,10,,,69,127
90846,note_on,1,0,0,,8,,,68,127
90846,note_on,0,0,0,,1,,,73,127
90846,note_on,0,0,0,,4,,,40,127
90934,note_off,88,0,0,,1,,,73,127
90935,note_on,1,0,0,,12,,,71,127
91023,note_off,88,0,0,,12,,,71,127
91024,note_on,1,0,0,,10,,,69,127
91112,note_off,88,0,0,,10,,,69,127
91113,note_on,1,0,0,,12,,,71,127
91198,note_off,85,0,0,,8,,,68,127
91201,note_off,3,0,0,,12,,,71,127
91201,note_off,0,0,0,,4,,,40,127
91211,note_on,10,0,0,,10,,,45,127
91211,note_on,0,0,0,,10,,,69,127
92873,note_off,1662,0,0,,10,,,69,127
92873,note_off,0,0,0,,10,,,45,127
93696,end_of_track,823,1,0,,,,,,
