tick,type,time,meta,track,program,channel,pitch,tempo,note,velocity
0,copyright,0,1,0,,,,,,
0,program_change,0,0,0,6,0,,,,
0,pitchwheel,0,0,0,,0,0,,,
0,program_change,0,0,0,6,1,,,,
0,pitchwheel,0,0,0,,1,-590,,,
0,program_change,0,0,0,6,2,,,,
0,pitchwheel,0,0,0,,2,-272,,,
0,program_change,0,0,0,6,3,,,,
0,pitchwheel,0,0,0,,3,-353,,,
0,program_change,0,0,0,6,4,,,,
0,pitchwheel,0,0,0,,4,-560,,,
0,program_change,0,0,0,6,5,,,,
0,pitchwheel,0,0,0,,5,-80,,,
0,program_change,0,0,0,6,6,,,,
0,pitchwheel,0,0,0,,6,-625,,,
0,program_change,0,0,0,6,7,,,,
0,pitchwheel,0,0,0,,7,-130,,,
0,program_change,0,0,0,6,8,,,,
0,pitchwheel,0,0,0,,8,-512,,,
0,program_change,0,0,0,6,10,,,,
0,pitchwheel,0,0,0,,10,-464,,,
0,program_change,0,0,0,6,11,,,,
0,pitchwheel,0,0,0,,11,-208,,,
0,program_change,0,0,0,6,12,,,,
0,pitchwheel,0,0,0,,12,-553,,,
0,set_tempo,0,1,0,,,,500000,,
100,note_on,100,0,0,,10,,,69,127
300,note_on,200,0,0,,10,,,81,127
400,note_off,100,0,0,,10,,,69,127
499,note_off,99,0,0,,10,,,81,127
500,note_on,1,0,0,,6,,,78,127
699,note_off,199,0,0,,6,,,78,127
700,note_on,1,0,0,,2,,,74,127
899,note_off,199,0,0,,2,,,74,127
900,note_on,1,0,0,,12,,,71,127
1099,note_off,199,0,0,,12,,,71,127
1100,note_on,1,0,0,,8,,,68,127
1299,note_off,199,0,0,,8,,,68,127
1300,note_on,1,0,0,,4,,,64,127
1500,note_on,200,0,0,,4,,,76,127
1600,note_off,100,0,0,,4,,,64,127
1699,note_off,99,0,0,,4,,,76,127
1700,note_on,1,0,0,,2,,,74,127
1899,note_off,199,0,0,,2,,,74,127
1900,note_on,1,0,0,,1,,,73,127
1900,note_on,0,0,0,,10,,,69,127
2099,note_off,199,0,0,,10,,,69,127
2099,note_off,0,0,0,,1,,,73,127
2100,note_on,1,0,0,,1,,,73,127
2100,note_on,0,0,0,,8,,,68,127
2166,note_off,66,0,0,,1,,,73,127
2167,note_on,1,0,0,,12,,,71,127
2233,note_off,66,0,0,,12,,,71,127
2234,note_on,1,0,0,,1,,,73,127
2300,note_off,66,0,0,,1,,,73,127
2301,note_on,1,0,0,,12,,,71,127
2367,note_off,66,0,0,,12,,,71,127
2368,note_on,1,0,0,,1,,,73,127
2434,note_off,66,0,0,,1,,,73,127
2435,note_on,1,0,0,,12,,,71,127
2498,note_off,63,0,0,,8,,,68,127
2501,note_off,3,0,0,,12,,,71,127
2502,note_on,1,0,0,,10,,,57,127
2502,note_on,0,0,0,,10,,,69,127
2700,note_off,198,0,0,,10,,,69,127
2702,note_on,2,0,0,,10,,,69,127
2802,note_off,100,0,0,,10,,,57,127
2901,note_off,99,0,0,,10,,,69,127
2902,note_on,1,0,0,,6,,,66,127
3101,note_off,199,0,0,,6,,,66,127
3102,note_on,1,0,0,,2,,,62,127
3301,note_off,199,0,0,,2,,,62,127
3302,note_on,1,0,0,,12,,,59,127
3501,note_off,199,0,0,,12,,,59,127
3502,note_on,1,0,0,,8,,,56,127
3701,note_off,199,0,0,,8,,,56,127
3702,note_on,1,0,0,,4,,,52,127
3902,note_on,200,0,0,,4,,,64,127
4002,note_off,100,0,0,,4,,,52,127
4101,note_off,99,0,0,,4,,,64,127
4102,note_on,1,0,0,,2,,,62,127
4301,note_off,199,0,0,,2,,,62,127
4302,note_on,1,0,0,,1,,,61,127
4302,note_on,0,0,0,,10,,,69,127
4501,note_off,199,0,0,,10,,,69,127
4501,note_off,0,0,0,,1,,,61,127
4502,note_on,1,0,0,,12,,,59,127
4502,note_on,0,0,0,,1,,,73,127
4568,note_off,66,0,0,,1,,,73,127
4569,note_on,1,0,0,,12,,,71,127
4635,note_off,66,0,0,,12,,,71,127
4636,note_on,1,0,0,,1,,,73,127
4702,note_off,66,0,0,,1,,,73,127
4703,note_on,1,0,0,,12,,,71,127
4769,note_off,66,0,0,,12,,,71,127
4770,note_on,1,0,0,,10,,,69,127
4836,note_off,66,0,0,,10,,,69,127
4837,note_on,1,0,0,,12,,,71,127
4903,note_off,66,0,0,,12,,,71,127
4903,note_off,0,0,0,,12,,,59,127
4904,note_on,1,0,0,,10,,,57,127
4904,note_on,0,0,0,,1,,,73,127
5103,note_off,199,0,0,,1,,,73,127
5104,note_on,1,0,0,,10,,,69,127
5300,note_off,196,0,0,,10,,,57,127
5303,note_off,3,0,0,,10,,,69,127
5304,note_on,1,0,0,,12,,,71,127
5503,note_off,199,0,0,,12,,,71,127
5504,note_on,1,0,0,,10,,,57,127
5504,note_on,0,0,0,,1,,,73,127
5703,note_off,199,0,0,,1,,,73,127
5703,note_off,0,0,0,,10,,,57,127
5704,note_on,1,0,0,,1,,,61,127
5704,note_on,0,0,0,,4,,,76,127
5770,note_off,66,0,0,,4,,,76,127
5770,note_off,0,0,0,,1,,,61,127
5771,note_on,1,0,0,,12,,,59,127
5771,note_on,0,0,0,,2,,,74,127
5837,note_off,66,0,0,,2,,,74,127
5837,note_off,0,0,0,,12,,,59,127
5838,note_on,1,0,0,,1,,,61,127
5838,note_on,0,0,0,,4,,,76,127
5904,note_off,66,0,0,,4,,,76,127
5904,note_off,0,0,0,,1,,,61,127
5905,note_on,1,0,0,,12,,,59,127
5905,note_on,0,0,0,,2,,,74,127
5971,note_off,66,0,0,,2,,,74,127
5971,note_off,0,0,0,,12,,,59,127
5972,note_on,1,0,0,,10,,,57,127
5972,note_on,0,0,0,,1,,,73,127
6038,note_off,66,0,0,,1,,,73,127
6038,note_off,0,0,0,,10,,,57,127
6039,note_on,1,0,0,,12,,,59,127
6039,note_on,0,0,0,,2,,,74,127
6105,note_off,66,0,0,,2,,,74,127
6105,note_off,0,0,0,,12,,,59,127
6106,note_on,1,0,0,,1,,,61,127
6106,note_on,0,0,0,,4,,,76,127
6305,note_off,199,0,0,,1,,,61,127
6306,note_on,1,0,0,,10,,,57,127
6505,note_off,199,0,0,,10,,,57,127
6505,note_off,0,0,0,,4,,,76,127
6506,note_on,1,0,0,,2,,,62,127
6506,note_on,0,0,0,,6,,,78,127
6705,note_off,199,0,0,,6,,,78,127
6705,note_off,0,0,0,,2,,,62,127
6706,note_on,1,0,0,,4,,,64,127
6706,note_on,0,0,0,,8,,,68,127
6905,note_off,199,0,0,,8,,,68,127
6905,note_off,0,0,0,,4,,,64,127
6906,note_on,1,0,0,,6,,,66,127
6906,note_on,0,0,0,,12,,,71,127
6972,note_off,66,0,0,,12,,,71,127
6973,note_on,1,0,0,,10,,,69,127
7039,note_off,66,0,0,,10,,,69,127
7040,note_on,1,0,0,,12,,,71,127
7106,note_off,66,0,0,,12,,,71,127
7107,note_on,1,0,0,,10,,,69,127
7173,note_off,66,0,0,,10,,,69,127
7174,note_on,1,0,0,,8,,,68,127
7240,note_off,66,0,0,,8,,,68,127
7241,note_on,1,0,0,,10,,,69,127
7307,note_off,66,0,0,,10,,,69,127
7307,note_off,0,0,0,,6,,,66,127
7308,note_on,1,0,0,,4,,,64,127
7308,note_on,0,0,0,,12,,,71,127
7485,note_off,177,0,0,,12,,,71,127
7515,note_off,30,0,0,,4,,,64,127
7524,note_on,9,0,0,,4,,,76,127
7524,note_on,0,0,0,,2,,,74,127
7524,note_on,0,0,0,,6,,,66,127
7723,note_off,199,0,0,,6,,,66,127
7724,note_on,1,0,0,,8,,,68,127
7923,note_off,199,0,0,,8,,,68,127
7923,note_off,0,0,0,,2,,,74,127
7923,note_off,0,0,0,,4,,,76,127
7924,note_on,1,0,0,,1,,,73,127
7924,note_on,0,0,0,,10,,,69,127
8123,note_off,199,0,0,,10,,,69,127
8124,note_on,1,0,0,,4,,,64,127
8224,note_off,100,0,0,,1,,,73,127
8323,note_off,99,0,0,,4,,,64,127
8324,note_on,1,0,0,,4,,,76,127
8324,note_on,0,0,0,,2,,,74,127
8324,note_on,0,0,0,,6,,,66,127
8523,note_off,199,0,0,,6,,,66,127
8524,note_on,1,0,0,,8,,,68,127
8723,note_off,199,0,0,,8,,,68,127
8723,note_off,0,0,0,,2,,,74,127
8723,note_off,0,0,0,,4,,,76,127
8724,note_on,1,0,0,,1,,,73,127
8724,note_on,0,0,0,,10,,,69,127
8923,note_off,199,0,0,,10,,,69,127
8924,note_on,1,0,0,,4,,,64,127
9024,note_off,100,0,0,,1,,,73,127
9123,note_off,99,0,0,,4,,,64,127
9124,note_on,1,0,0,,4,,,76,127
9124,note_on,0,0,0,,2,,,74,127
9124,note_on,0,0,0,,6,,,66,127
9323,note_off,199,0,0,,6,,,66,127
9324,note_on,1,0,0,,8,,,68,127
9523,note_off,199,0,0,,8,,,68,127
9523,note_off,0,0,0,,2,,,74,127
9523,note_off,0,0,0,,4,,,76,127
9524,note_on,1,0,0,,1,,,73,127
9524,note_on,0,0,0,,10,,,69,127
9729,note_on,205,0,0,,12,,,59,127
9742,note_off,13,0,0,,10,,,69,127
9860,note_off,118,0,0,,1,,,73,127
9938,note_on,78,0,0,,1,,,61,127
9938,note_on,0,0,0,,10,,,81,127
9938,note_on,0,0,0,,12,,,71,127
9938,note_on,0,0,0,,12,,,83,127
9954,note_off,16,0,0,,12,,,59,127
10138,note_off,184,0,0,,1,,,61,127
10143,note_on,5,0,0,,3,,,63,127
10338,note_off,195,0,0,,12,,,83,127
10338,note_off,0,0,0,,10,,,81,127
10342,note_off,4,0,0,,3,,,63,127
10343,note_on,1,0,0,,4,,,64,127
10343,note_on,0,0,0,,8,,,80,127
10538,note_off,195,0,0,,12,,,71,127
10542,note_off,4,0,0,,4,,,64,127
10543,note_on,1,0,0,,12,,,59,127
10643,note_off,100,0,0,,8,,,80,127
10742,note_off,99,0,0,,12,,,59,127
10743,note_on,1,0,0,,1,,,61,127
10743,note_on,0,0,0,,10,,,81,127
10743,note_on,0,0,0,,12,,,83,127
10743,note_on,0,0,0,,12,,,71,127
10942,note_off,199,0,0,,1,,,61,127
10943,note_on,1,0,0,,3,,,63,127
11142,note_off,199,0,0,,3,,,63,127
11142,note_off,0,0,0,,12,,,83,127
11142,note_off,0,0,0,,10,,,81,127
11143,note_on,1,0,0,,4,,,64,127
11143,note_on,0,0,0,,8,,,80,127
11342,note_off,199,0,0,,4,,,64,127
11342,note_off,0,0,0,,12,,,71,127
11343,note_on,1,0,0,,12,,,59,127
11443,note_off,100,0,0,,8,,,80,127
11542,note_off,99,0,0,,12,,,59,127
11543,note_on,1,0,0,,1,,,61,127
11543,note_on,0,0,0,,12,,,71,127
11543,note_on,0,0,0,,10,,,81,127
11543,note_on,0,0,0,,12,,,83,127
11742,note_off,199,0,0,,1,,,61,127
11743,note_on,1,0,0,,3,,,63,127
11942,note_off,199,0,0,,3,,,63,127
11942,note_off,0,0,0,,12,,,83,127
11942,note_off,0,0,0,,10,,,81,127
11943,note_on,1,0,0,,4,,,64,127
11943,note_on,0,0,0,,8,,,80,127
12127,note_off,184,0,0,,12,,,71,127
12142,note_off,15,0,0,,4,,,64,127
12151,note_off,9,0,0,,8,,,80,127
12160,note_on,9,0,0,,1,,,85,127
12160,note_on,0,0,0,,10,,,57,127
12259,note_off,99,0,0,,1,,,85,127
12260,note_on,1,0,0,,12,,,83,127
12359,note_off,99,0,0,,12,,,83,127
12359,note_off,0,0,0,,10,,,57,127
12360,note_on,1,0,0,,10,,,81,127
12360,note_on,0,0,0,,12,,,59,127
12459,note_off,99,0,0,,10,,,81,127
12460,note_on,1,0,0,,8,,,80,127
12559,note_off,99,0,0,,8,,,80,127
12559,note_off,0,0,0,,12,,,59,127
12560,note_on,1,0,0,,6,,,78,127
12560,note_on,0,0,0,,1,,,61,127
12659,note_off,99,0,0,,6,,,78,127
12660,note_on,1,0,0,,4,,,76,127
12759,note_off,99,0,0,,4,,,76,127
12759,note_off,0,0,0,,1,,,61,127
12760,note_on,1,0,0,,3,,,75,127
12760,note_on,0,0,0,,12,,,59,127
12859,note_off,99,0,0,,3,,,75,127
12860,note_on,1,0,0,,1,,,73,127
12959,note_off,99,0,0,,1,,,73,127
12959,note_off,0,0,0,,12,,,59,127
12960,note_on,1,0,0,,12,,,71,127
12960,note_on,0,0,0,,1,,,61,127
13059,note_off,99,0,0,,12,,,71,127
13060,note_on,1,0,0,,10,,,69,127
13159,note_off,99,0,0,,10,,,69,127
13159,note_off,0,0,0,,1,,,61,127
13160,note_on,1,0,0,,8,,,68,127
13160,note_on,0,0,0,,3,,,63,127
13259,note_off,99,0,0,,8,,,68,127
13260,note_on,1,0,0,,6,,,66,127
13359,note_off,99,0,0,,6,,,66,127
13359,note_off,0,0,0,,3,,,63,127
13360,note_on,1,0,0,,8,,,68,127
13360,note_on,0,0,0,,4,,,64,127
13559,note_off,199,0,0,,4,,,64,127
13559,note_off,0,0,0,,8,,,68,127
13560,note_on,1,0,0,,6,,,66,127
13560,note_on,0,0,0,,3,,,63,127
13759,note_off,199,0,0,,3,,,63,127
13759,note_off,0,0,0,,6,,,66,127
13760,note_on,1,0,0,,4,,,64,127
13760,note_on,0,0,0,,1,,,61,127
13959,note_off,199,0,0,,1,,,61,127
13959,note_off,0,0,0,,4,,,64,127
13960,note_on,1,0,0,,4,,,64,127
13960,note_on,0,0,0,,12,,,59,127
14159,note_off,199,0,0,,12,,,59,127
14159,note_off,0,0,0,,4,,,64,127
14177,note_on,18,0,0,,12,,,47,127
14177,note_on,0,0,0,,3,,,63,127
14230,note_on,53,0,0,,4,,,64,127
14235,note_off,5,0,0,,3,,,63,127
14283,note_on,48,0,0,,3,,,63,127
14288,note_off,5,0,0,,4,,,64,127
14339,note_on,51,0,0,,1,,,61,127
14341,note_off,2,0,0,,3,,,63,127
14388,note_off,47,0,0,,1,,,61,127
14393,note_on,5,0,0,,12,,,59,127
14784,note_off,391,0,0,,12,,,47,127
14967,note_off,183,0,0,,12,,,59,127
15228,note_on,261,0,0,,12,,,59,127
15228,note_on,0,0,0,,12,,,83,127
15327,note_off,99,0,0,,12,,,59,127
15328,note_on,1,0,0,,10,,,69,127
15427,note_off,99,0,0,,10,,,69,127
15427,note_off,0,0,0,,12,,,83,127
15428,note_on,1,0,0,,8,,,68,127
15428,note_on,0,0,0,,12,,,71,127
15527,note_off,99,0,0,,8,,,68,127
15528,note_on,1,0,0,,6,,,66,127
15627,note_off,99,0,0,,6,,,66,127
15627,note_off,0,0,0,,12,,,71,127
15628,note_on,1,0,0,,8,,,68,127
15628,note_on,0,0,0,,12,,,71,127
15727,note_off,99,0,0,,8,,,68,127
15728,note_on,1,0,0,,4,,,64,127
15827,note_off,99,0,0,,4,,,64,127
15827,note_off,0,0,0,,12,,,71,127
15828,note_on,1,0,0,,10,,,69,127
15828,note_on,0,0,0,,3,,,75,127
15877,note_off,49,0,0,,3,,,75,127
15878,note_on,1,0,0,,1,,,73,127
15927,note_off,49,0,0,,1,,,73,127
15927,note_off,0,0,0,,10,,,69,127
15928,note_on,1,0,0,,8,,,68,127
15928,note_on,0,0,0,,3,,,75,127
15977,note_off,49,0,0,,3,,,75,127
15978,note_on,1,0,0,,1,,,73,127
16027,note_off,49,0,0,,1,,,73,127
16027,note_off,0,0,0,,8,,,68,127
16028,note_on,1,0,0,,6,,,66,127
16028,note_on,0,0,0,,12,,,71,127
16127,note_off,99,0,0,,6,,,66,127
16128,note_on,1,0,0,,4,,,64,127
16227,note_off,99,0,0,,4,,,64,127
16228,note_on,1,0,0,,3,,,63,127
16327,note_off,99,0,0,,3,,,63,127
16328,note_on,1,0,0,,1,,,61,127
16403,note_off,75,0,0,,12,,,71,127
16427,note_off,24,0,0,,1,,,61,127
16428,note_on,1,0,0,,12,,,59,127
16428,note_on,0,0,0,,12,,,83,127
16527,note_off,99,0,0,,12,,,59,127
16528,note_on,1,0,0,,10,,,69,127
16627,note_off,99,0,0,,10,,,69,127
16627,note_off,0,0,0,,12,,,83,127
16628,note_on,1,0,0,,8,,,68,127
16628,note_on,0,0,0,,12,,,71,127
16727,note_off,99,0,0,,8,,,68,127
16728,note_on,1,0,0,,6,,,66,127
16827,note_off,99,0,0,,6,,,66,127
16827,note_off,0,0,0,,12,,,71,127
16828,note_on,1,0,0,,8,,,68,127
16828,note_on,0,0,0,,12,,,71,127
16927,note_off,99,0,0,,8,,,68,127
16928,note_on,1,0,0,,4,,,64,127
17027,note_off,99,0,0,,4,,,64,127
17027,note_off,0,0,0,,12,,,71,127
17028,note_on,1,0,0,,10,,,69,127
17028,note_on,0,0,0,,3,,,75,127
17077,note_off,49,0,0,,3,,,75,127
17078,note_on,1,0,0,,1,,,73,127
17127,note_off,49,0,0,,1,,,73,127
17127,note_off,0,0,0,,10,,,69,127
17128,note_on,1,0,0,,8,,,68,127
17128,note_on,0,0,0,,3,,,75,127
17177,note_off,49,0,0,,3,,,75,127
17178,note_on,1,0,0,,1,,,73,127
17227,note_off,49,0,0,,1,,,73,127
17227,note_off,0,0,0,,8,,,68,127
17228,note_on,1,0,0,,6,,,66,127
17228,note_on,0,0,0,,12,,,71,127
17327,note_off,99,0,0,,6,,,66,127
17328,note_on,1,0,0,,4,,,64,127
17427,note_off,99,0,0,,4,,,64,127
17428,note_on,1,0,0,,3,,,63,127
17527,note_off,99,0,0,,3,,,63,127
17528,note_on,1,0,0,,1,,,61,127
17616,note_off,88,0,0,,12,,,71,127
17627,note_off,11,0,0,,1,,,61,127
17628,note_on,1,0,0,,12,,,59,127
17628,note_on,0,0,0,,12,,,83,127
17727,note_off,99,0,0,,12,,,59,127
17728,note_on,1,0,0,,10,,,69,127
17827,note_off,99,0,0,,10,,,69,127
17827,note_off,0,0,0,,12,,,83,127
17828,note_on,1,0,0,,8,,,68,127
17828,note_on,0,0,0,,12,,,71,127
17927,note_off,99,0,0,,8,,,68,127
17928,note_on,1,0,0,,6,,,66,127
18027,note_off,99,0,0,,6,,,66,127
18027,note_off,0,0,0,,12,,,71,127
18028,note_on,1,0,0,,8,,,68,127
18028,note_on,0,0,0,,12,,,71,127
18127,note_off,99,0,0,,8,,,68,127
18128,note_on,1,0,0,,4,,,64,127
18227,note_off,99,0,0,,4,,,64,127
18227,note_off,0,0,0,,12,,,71,127
18228,note_on,1,0,0,,10,,,69,127
18228,note_on,0,0,0,,1,,,73,127
18327,note_off,99,0,0,,10,,,69,127
18328,note_on,1,0,0,,8,,,68,127
18427,note_off,99,0,0,,8,,,68,127
18427,note_off,0,0,0,,1,,,73,127
18428,note_on,1,0,0,,6,,,66,127
18428,note_on,0,0,0,,3,,,75,127
18527,note_off,99,0,0,,6,,,66,127
18528,note_on,1,0,0,,4,,,64,127
18627,note_off,99,0,0,,4,,,64,127
18627,note_off,0,0,0,,3,,,75,127
18628,note_on,1,0,0,,3,,,63,127
18628,note_on,0,0,0,,4,,,76,127
18727,note_off,99,0,0,,3,,,63,127
18728,note_on,1,0,0,,1,,,61,127
18827,note_off,99,0,0,,1,,,61,127
18827,note_off,0,0,0,,4,,,76,127
18828,note_on,1,0,0,,12,,,59,127
18828,note_on,0,0,0,,3,,,75,127
18828,note_on,0,0,0,,6,,,78,127
18927,note_off,99,0,0,,12,,,59,127
18928,note_on,1,0,0,,10,,,57,127
19027,note_off,99,0,0,,10,,,57,127
19027,note_off,0,0,0,,6,,,78,127
19027,note_off,0,0,0,,3,,,75,127
19028,note_on,1,0,0,,8,,,56,127
19028,note_on,0,0,0,,8,,,80,127
19028,note_on,0,0,0,,4,,,76,127
19127,note_off,99,0,0,,4,,,76,127
19127,note_off,0,0,0,,8,,,80,127
19127,note_off,0,0,0,,8,,,56,127
19128,note_on,1,0,0,,6,,,54,127
19128,note_on,0,0,0,,10,,,81,127
19128,note_on,0,0,0,,6,,,78,127
19227,note_off,99,0,0,,6,,,78,127
19227,note_off,0,0,0,,10,,,81,127
19227,note_off,0,0,0,,6,,,54,127
19228,note_on,1,0,0,,4,,,52,127
19228,note_on,0,0,0,,12,,,83,127
19228,note_on,0,0,0,,8,,,80,127
19418,note_off,190,0,0,,8,,,80,127
19418,note_off,0,0,0,,12,,,83,127
19427,note_off,9,0,0,,4,,,52,127
19428,note_on,1,0,0,,10,,,57,127
19428,note_on,0,0,0,,1,,,85,127
19428,note_on,0,0,0,,10,,,81,127
19627,note_off,199,0,0,,10,,,81,127
19627,note_off,0,0,0,,1,,,85,127
19627,note_off,0,0,0,,10,,,57,127
19628,note_on,1,0,0,,12,,,59,127
19628,note_on,0,0,0,,12,,,83,127
19628,note_on,0,0,0,,8,,,80,127
19727,note_off,99,0,0,,8,,,80,127
19727,note_off,0,0,0,,12,,,83,127
19728,note_on,1,0,0,,10,,,81,127
19728,note_on,0,0,0,,6,,,78,127
19827,note_off,99,0,0,,6,,,78,127
19827,note_off,0,0,0,,10,,,81,127
19827,note_off,0,0,0,,12,,,59,127
19828,note_on,1,0,0,,12,,,47,127
19828,note_on,0,0,0,,4,,,76,127
19828,note_on,0,0,0,,8,,,80,127
19927,note_off,99,0,0,,8,,,80,127
19927,note_off,0,0,0,,4,,,76,127
19928,note_on,1,0,0,,6,,,78,127
19928,note_on,0,0,0,,3,,,75,127
20027,note_off,99,0,0,,3,,,75,127
20027,note_off,0,0,0,,6,,,78,127
20027,note_off,0,0,0,,12,,,47,127
20028,note_on,1,0,0,,4,,,52,127
20028,note_on,0,0,0,,6,,,78,127
20077,note_off,49,0,0,,6,,,78,127
20078,note_on,1,0,0,,4,,,76,127
20127,note_off,49,0,0,,4,,,76,127
20128,note_on,1,0,0,,6,,,78,127
20177,note_off,49,0,0,,6,,,78,127
20178,note_on,1,0,0,,4,,,76,127
20227,note_off,49,0,0,,4,,,52,127
20228,note_on,1,0,0,,4,,,40,127
20729,note_off,501,0,0,,4,,,40,127
20742,note_off,13,0,0,,4,,,76,127
20746,note_on,4,0,0,,12,,,83,127
20746,note_on,0,0,0,,4,,,64,127
20945,note_off,199,0,0,,12,,,83,127
20946,note_on,1,0,0,,12,,,71,127
21145,note_off,199,0,0,,12,,,71,127
21145,note_off,0,0,0,,4,,,64,127
21146,note_on,1,0,0,,12,,,71,127
21146,note_on,0,0,0,,8,,,68,127
21146,note_on,0,0,0,,4,,,64,127
21345,note_off,199,0,0,,4,,,64,127
21345,note_off,0,0,0,,8,,,68,127
21345,note_off,0,0,0,,12,,,71,127
21346,note_on,1,0,0,,2,,,74,127
21346,note_on,0,0,0,,4,,,64,127
21346,note_on,0,0,0,,10,,,69,127
21395,note_off,49,0,0,,2,,,74,127
21396,note_on,1,0,0,,0,,,72,127
21445,note_off,49,0,0,,0,,,72,127
21446,note_on,1,0,0,,2,,,74,127
21495,note_off,49,0,0,,2,,,74,127
21496,note_on,1,0,0,,0,,,72,127
21545,note_off,49,0,0,,0,,,72,127
21546,note_on,1,0,0,,12,,,71,127
21745,note_off,199,0,0,,12,,,71,127
21745,note_off,0,0,0,,10,,,69,127
21745,note_off,0,0,0,,4,,,64,127
21746,note_on,1,0,0,,0,,,72,127
21746,note_on,0,0,0,,4,,,64,127
21746,note_on,0,0,0,,10,,,69,127
21923,note_off,177,0,0,,0,,,72,127
21933,note_off,10,0,0,,10,,,69,127
21933,note_off,0,0,0,,4,,,64,127
21962,note_on,29,0,0,,4,,,64,127
21962,note_on,0,0,0,,12,,,83,127
22161,note_off,199,0,0,,12,,,83,127
22162,note_on,1,0,0,,12,,,71,127
22361,note_off,199,0,0,,12,,,71,127
22361,note_off,0,0,0,,4,,,64,127
22362,note_on,1,0,0,,4,,,64,127
22362,note_on,0,0,0,,8,,,68,127
22362,note_on,0,0,0,,12,,,71,127
22561,note_off,199,0,0,,12,,,71,127
22561,note_off,0,0,0,,8,,,68,127
22561,note_off,0,0,0,,4,,,64,127
22562,note_on,1,0,0,,10,,,69,127
22562,note_on,0,0,0,,4,,,64,127
22562,note_on,0,0,0,,2,,,74,127
22611,note_off,49,0,0,,2,,,74,127
22612,note_on,1,0,0,,0,,,72,127
22661,note_off,49,0,0,,0,,,72,127
22662,note_on,1,0,0,,2,,,74,127
22711,note_off,49,0,0,,2,,,74,127
22712,note_on,1,0,0,,0,,,72,127
22761,note_off,49,0,0,,0,,,72,127
22762,note_on,1,0,0,,12,,,71,127
22961,note_off,199,0,0,,12,,,71,127
22961,note_off,0,0,0,,4,,,64,127
22961,note_off,0,0,0,,10,,,69,127
22962,note_on,1,0,0,,10,,,69,127
22962,note_on,0,0,0,,4,,,64,127
22962,note_on,0,0,0,,0,,,72,127
23150,note_off,188,0,0,,0,,,72,127
23150,note_off,0,0,0,,4,,,64,127
23150,note_off,0,0,0,,10,,,69,127
23179,note_on,29,0,0,,12,,,83,127
23179,note_on,0,0,0,,7,,,67,127
23378,note_off,199,0,0,,12,,,83,127
23379,note_on,1,0,0,,12,,,71,127
23478,note_off,99,0,0,,7,,,67,127
23479,note_on,1,0,0,,5,,,65,127
23578,note_off,99,0,0,,5,,,65,127
23578,note_off,0,0,0,,12,,,71,127
23579,note_on,1,0,0,,12,,,71,127
23579,note_on,0,0,0,,4,,,64,127
23678,note_off,99,0,0,,4,,,64,127
23679,note_on,1,0,0,,2,,,62,127
23778,note_off,99,0,0,,2,,,62,127
23778,note_off,0,0,0,,12,,,71,127
23779,note_on,1,0,0,,2,,,74,127
23779,note_on,0,0,0,,0,,,60,127
23828,note_off,49,0,0,,2,,,74,127
23829,note_on,1,0,0,,0,,,72,127
23878,note_off,49,0,0,,0,,,72,127
23879,note_on,1,0,0,,2,,,74,127
23928,note_off,49,0,0,,2,,,74,127
23929,note_on,1,0,0,,0,,,72,127
23978,note_off,49,0,0,,0,,,72,127
23979,note_on,1,0,0,,12,,,71,127
24178,note_off,199,0,0,,12,,,71,127
24178,note_off,0,0,0,,0,,,60,127
24179,note_on,1,0,0,,0,,,72,127
24179,note_on,0,0,0,,0,,,60,127
24368,note_off,189,0,0,,0,,,60,127
24368,note_off,0,0,0,,0,,,72,127
24396,note_on,28,0,0,,7,,,67,127
24396,note_on,0,0,0,,12,,,83,127
24595,note_off,199,0,0,,12,,,83,127
24596,note_on,1,0,0,,12,,,71,127
24695,note_off,99,0,0,,7,,,67,127
24696,note_on,1,0,0,,5,,,65,127
24795,note_off,99,0,0,,5,,,65,127
24795,note_off,0,0,0,,12,,,71,127
24796,note_on,1,0,0,,4,,,64,127
24796,note_on,0,0,0,,12,,,71,127
24895,note_off,99,0,0,,4,,,64,127
24896,note_on,1,0,0,,2,,,62,127
24995,note_off,99,0,0,,2,,,62,127
24995,note_off,0,0,0,,12,,,71,127
24996,note_on,1,0,0,,0,,,60,127
24996,note_on,0,0,0,,2,,,74,127
25045,note_off,49,0,0,,2,,,74,127
25046,note_on,1,0,0,,0,,,72,127
25095,note_off,49,0,0,,0,,,72,127
25096,note_on,1,0,0,,2,,,74,127
25145,note_off,49,0,0,,2,,,74,127
25146,note_on,1,0,0,,0,,,72,127
25195,note_off,49,0,0,,0,,,72,127
25196,note_on,1,0,0,,12,,,71,127
25395,note_off,199,0,0,,12,,,71,127
25395,note_off,0,0,0,,0,,,60,127
25396,note_on,1,0,0,,0,,,60,127
25396,note_on,0,0,0,,0,,,72,127
25584,note_off,188,0,0,,0,,,60,127
25585,note_off,1,0,0,,0,,,72,127
25613,note_on,28,0,0,,11,,,82,127
25613,note_on,0,0,0,,2,,,62,127
25812,note_off,199,0,0,,11,,,82,127
25813,note_on,1,0,0,,11,,,70,127
26012,note_off,199,0,0,,11,,,70,127
26012,note_off,0,0,0,,2,,,62,127
26013,note_on,1,0,0,,11,,,70,127
26013,note_on,0,0,0,,5,,,65,127
26013,note_on,0,0,0,,2,,,62,127
26212,note_off,199,0,0,,2,,,62,127
26212,note_off,0,0,0,,5,,,65,127
26212,note_off,0,0,0,,11,,,70,127
26213,note_on,1,0,0,,11,,,70,127
26213,note_on,0,0,0,,1,,,61,127
26213,note_on,0,0,0,,4,,,64,127
26262,note_off,49,0,0,,11,,,70,127
26263,note_on,1,0,0,,10,,,69,127
26312,note_off,49,0,0,,10,,,69,127
26313,note_on,1,0,0,,11,,,70,127
26362,note_off,49,0,0,,11,,,70,127
26363,note_on,1,0,0,,10,,,69,127
26412,note_off,49,0,0,,10,,,69,127
26413,note_on,1,0,0,,7,,,67,127
26612,note_off,199,0,0,,7,,,67,127
26612,note_off,0,0,0,,4,,,64,127
26612,note_off,0,0,0,,1,,,61,127
26613,note_on,1,0,0,,10,,,69,127
26613,note_on,0,0,0,,1,,,61,127
26613,note_on,0,0,0,,4,,,64,127
26803,note_off,190,0,0,,4,,,64,127
26803,note_off,0,0,0,,1,,,61,127
26803,note_off,0,0,0,,10,,,69,127
26813,note_on,10,0,0,,7,,,79,127
26813,note_on,0,0,0,,11,,,58,127
26813,note_on,0,0,0,,2,,,62,127
27012,note_off,199,0,0,,7,,,79,127
27013,note_on,1,0,0,,7,,,67,127
27212,note_off,199,0,0,,7,,,67,127
27212,note_off,0,0,0,,2,,,62,127
27212,note_off,0,0,0,,11,,,58,127
27213,note_on,1,0,0,,7,,,67,127
27213,note_on,0,0,0,,2,,,62,127
27213,note_on,0,0,0,,11,,,58,127
27412,note_off,199,0,0,,11,,,58,127
27412,note_off,0,0,0,,2,,,62,127
27412,note_off,0,0,0,,7,,,67,127
27413,note_on,1,0,0,,2,,,74,127
27413,note_on,0,0,0,,10,,,57,127
27413,note_on,0,0,0,,4,,,64,127
27462,note_off,49,0,0,,2,,,74,127
27463,note_on,1,0,0,,1,,,73,127
27512,note_off,49,0,0,,1,,,73,127
27513,note_on,1,0,0,,2,,,74,127
27562,note_off,49,0,0,,2,,,74,127
27563,note_on,1,0,0,,1,,,73,127
27612,note_off,49,0,0,,1,,,73,127
27613,note_on,1,0,0,,12,,,71,127
27812,note_off,199,0,0,,12,,,71,127
27812,note_off,0,0,0,,4,,,64,127
27812,note_off,0,0,0,,10,,,57,127
27813,note_on,1,0,0,,1,,,73,127
27813,note_on,0,0,0,,10,,,57,127
27813,note_on,0,0,0,,4,,,64,127
28053,note_off,240,0,0,,4,,,64,127
28053,note_off,0,0,0,,10,,,57,127
28053,note_off,0,0,0,,1,,,73,127
28055,note_on,2,0,0,,10,,,81,127
28055,note_on,0,0,0,,4,,,76,127
28055,note_on,0,0,0,,11,,,58,127
28104,note_off,49,0,0,,10,,,81,127
28105,note_on,1,0,0,,7,,,79,127
28154,note_off,49,0,0,,7,,,79,127
28155,note_on,1,0,0,,10,,,81,127
28204,note_off,49,0,0,,10,,,81,127
28205,note_on,1,0,0,,7,,,79,127
28255,note_on,50,0,0,,4,,,64,127
28305,note_off,50,0,0,,4,,,76,127
28355,note_off,50,0,0,,7,,,79,127
28454,note_off,99,0,0,,4,,,64,127
28455,note_on,1,0,0,,7,,,67,127
28654,note_off,199,0,0,,7,,,67,127
28654,note_off,0,0,0,,11,,,58,127
28655,note_on,1,0,0,,4,,,76,127
28655,note_on,0,0,0,,10,,,81,127
28655,note_on,0,0,0,,10,,,57,127
28704,note_off,49,0,0,,10,,,81,127
28705,note_on,1,0,0,,7,,,79,127
28754,note_off,49,0,0,,7,,,79,127
28755,note_on,1,0,0,,10,,,81,127
28804,note_off,49,0,0,,10,,,81,127
28805,note_on,1,0,0,,7,,,79,127
28855,note_on,50,0,0,,4,,,64,127
28905,note_off,50,0,0,,4,,,76,127
28955,note_off,50,0,0,,7,,,79,127
29054,note_off,99,0,0,,4,,,64,127
29055,note_on,1,0,0,,7,,,67,127
29254,note_off,199,0,0,,7,,,67,127
29254,note_off,0,0,0,,10,,,57,127
29255,note_on,1,0,0,,10,,,81,127
29255,note_on,0,0,0,,4,,,76,127
29255,note_on,0,0,0,,11,,,58,127
29304,note_off,49,0,0,,10,,,81,127
29305,note_on,1,0,0,,7,,,79,127
29354,note_off,49,0,0,,7,,,79,127
29355,note_on,1,0,0,,10,,,81,127
29404,note_off,49,0,0,,10,,,81,127
29405,note_on,1,0,0,,7,,,79,127
29455,note_on,50,0,0,,4,,,64,127
29505,note_off,50,0,0,,4,,,76,127
29551,note_off,46,0,0,,7,,,79,127
29654,note_off,103,0,0,,4,,,64,127
29655,note_on,1,0,0,,7,,,67,127
29854,note_off,199,0,0,,7,,,67,127
29854,note_off,0,0,0,,11,,,58,127
29855,note_on,1,0,0,,10,,,81,127
29855,note_on,0,0,0,,4,,,76,127
29855,note_on,0,0,0,,10,,,57,127
29904,note_off,49,0,0,,10,,,81,127
29905,note_on,1,0,0,,7,,,79,127
29954,note_off,49,0,0,,7,,,79,127
29955,note_on,1,0,0,,10,,,81,127
30004,note_off,49,0,0,,10,,,81,127
30005,note_on,1,0,0,,7,,,79,127
30055,note_on,50,0,0,,4,,,64,127
30105,note_off,50,0,0,,4,,,76,127
30151,note_off,46,0,0,,7,,,79,127
30254,note_off,103,0,0,,4,,,64,127
30255,note_on,1,0,0,,7,,,67,127
30454,note_off,199,0,0,,7,,,67,127
30454,note_off,0,0,0,,10,,,57,127
30455,note_on,1,0,0,,4,,,76,127
30455,note_on,0,0,0,,10,,,81,127
30455,note_on,0,0,0,,11,,,58,127
30504,note_off,49,0,0,,10,,,81,127
30505,note_on,1,0,0,,7,,,79,127
30554,note_off,49,0,0,,7,,,79,127
30555,note_on,1,0,0,,10,,,81,127
30604,note_off,49,0,0,,10,,,81,127
30605,note_on,1,0,0,,7,,,79,127
30655,note_on,50,0,0,,4,,,64,127
30705,note_off,50,0,0,,4,,,76,127
30751,note_off,46,0,0,,7,,,79,127
30854,note_off,103,0,0,,4,,,64,127
30855,note_on,1,0,0,,7,,,67,127
31054,note_off,199,0,0,,7,,,67,127
31054,note_off,0,0,0,,11,,,58,127
31055,note_on,1,0,0,,10,,,81,127
31055,note_on,0,0,0,,4,,,76,127
31055,note_on,0,0,0,,12,,,59,127
31104,note_off,49,0,0,,10,,,81,127
31105,note_on,1,0,0,,7,,,79,127
31154,note_off,49,0,0,,7,,,79,127
31155,note_on,1,0,0,,10,,,81,127
31204,note_off,49,0,0,,10,,,81,127
31205,note_on,1,0,0,,7,,,79,127
31255,note_on,50,0,0,,4,,,64,127
31305,note_off,50,0,0,,4,,,76,127
31351,note_off,46,0,0,,7,,,79,127
31454,note_off,103,0,0,,4,,,64,127
31455,note_on,1,0,0,,7,,,67,127
31654,note_off,199,0,0,,7,,,67,127
31654,note_off,0,0,0,,12,,,59,127
31655,note_on,1,0,0,,4,,,76,127
31655,note_on,0,0,0,,10,,,81,127
31655,note_on,0,0,0,,0,,,60,127
31704,note_off,49,0,0,,10,,,81,127
31705,note_on,1,0,0,,7,,,79,127
31754,note_off,49,0,0,,7,,,79,127
31755,note_on,1,0,0,,10,,,81,127
31804,note_off,49,0,0,,10,,,81,127
31805,note_on,1,0,0,,7,,,79,127
31855,note_on,50,0,0,,4,,,64,127
31905,note_off,50,0,0,,4,,,76,127
32054,note_off,149,0,0,,4,,,64,127
32055,note_off,1,0,0,,7,,,79,127
32055,note_on,0,0,0,,12,,,83,127
32055,note_on,0,0,0,,10,,,69,127
32104,note_off,49,0,0,,12,,,83,127
32105,note_on,1,0,0,,10,,,81,127
32154,note_off,49,0,0,,10,,,81,127
32155,note_on,1,0,0,,7,,,79,127
32204,note_off,49,0,0,,7,,,79,127
32205,note_on,1,0,0,,10,,,81,127
32254,note_off,49,0,0,,10,,,81,127
32254,note_off,0,0,0,,10,,,69,127
32254,note_off,0,0,0,,0,,,60,127
32255,note_on,1,0,0,,10,,,81,127
32255,note_on,0,0,0,,12,,,59,127
32354,note_off,99,0,0,,10,,,81,127
32355,note_on,1,0,0,,12,,,83,127
32454,note_off,99,0,0,,12,,,83,127
32455,note_on,1,0,0,,12,,,71,127
32852,note_off,397,0,0,,12,,,71,127
33079,note_off,227,0,0,,12,,,59,127
33357,note_on,278,0,0,,12,,,59,127
33357,note_on,0,0,0,,12,,,83,127
33456,note_off,99,0,0,,12,,,59,127
33457,note_on,1,0,0,,10,,,69,127
33555,note_off,98,0,0,,12,,,83,127
33556,note_off,1,0,0,,10,,,69,127
33557,note_on,1,0,0,,8,,,68,127
33557,note_on,0,0,0,,12,,,71,127
33656,note_off,99,0,0,,8,,,68,127
33657,note_on,1,0,0,,6,,,66,127
33756,note_off,99,0,0,,6,,,66,127
33756,note_off,0,0,0,,12,,,71,127
33757,note_on,1,0,0,,8,,,68,127
33757,note_on,0,0,0,,12,,,71,127
33856,note_off,99,0,0,,8,,,68,127
33857,note_on,1,0,0,,4,,,64,127
33956,note_off,99,0,0,,4,,,64,127
33956,note_off,0,0,0,,12,,,71,127
33957,note_on,1,0,0,,10,,,69,127
33957,note_on,0,0,0,,3,,,75,127
34006,note_off,49,0,0,,3,,,75,127
34007,note_on,1,0,0,,1,,,73,127
34056,note_off,49,0,0,,1,,,73,127
34056,note_off,0,0,0,,10,,,69,127
34057,note_on,1,0,0,,8,,,68,127
34057,note_on,0,0,0,,3,,,75,127
34106,note_off,49,0,0,,3,,,75,127
34107,note_on,1,0,0,,1,,,73,127
34156,note_off,49,0,0,,1,,,73,127
34156,note_off,0,0,0,,8,,,68,127
34157,note_on,1,0,0,,6,,,66,127
34157,note_on,0,0,0,,12,,,71,127
34256,note_off,99,0,0,,6,,,66,127
34257,note_on,1,0,0,,4,,,64,127
34356,note_off,99,0,0,,4,,,64,127
34357,note_on,1,0,0,,3,,,63,127
34456,note_off,99,0,0,,3,,,63,127
34457,note_on,1,0,0,,1,,,61,127
34532,note_off,75,0,0,,12,,,71,127
34556,note_off,24,0,0,,1,,,61,127
34557,note_on,1,0,0,,12,,,59,127
34557,note_on,0,0,0,,12,,,83,127
34656,note_off,99,0,0,,12,,,59,127
34657,note_on,1,0,0,,10,,,69,127
34756,note_off,99,0,0,,10,,,69,127
34756,note_off,0,0,0,,12,,,83,127
34757,note_on,1,0,0,,8,,,68,127
34757,note_on,0,0,0,,12,,,71,127
34856,note_off,99,0,0,,8,,,68,127
34857,note_on,1,0,0,,6,,,66,127
34956,note_off,99,0,0,,6,,,66,127
34956,note_off,0,0,0,,12,,,71,127
34957,note_on,1,0,0,,8,,,68,127
34957,note_on,0,0,0,,12,,,71,127
35056,note_off,99,0,0,,8,,,68,127
35057,note_on,1,0,0,,4,,,64,127
35156,note_off,99,0,0,,4,,,64,127
35156,note_off,0,0,0,,12,,,71,127
35157,note_on,1,0,0,,10,,,69,127
35157,note_on,0,0,0,,1,,,73,127
35256,note_off,99,0,0,,10,,,69,127
35257,note_on,1,0,0,,8,,,68,127
35356,note_off,99,0,0,,8,,,68,127
35356,note_off,0,0,0,,1,,,73,127
35357,note_on,1,0,0,,6,,,66,127
35357,note_on,0,0,0,,3,,,75,127
35456,note_off,99,0,0,,6,,,66,127
35457,note_on,1,0,0,,4,,,64,127
35556,note_off,99,0,0,,4,,,64,127
35556,note_off,0,0,0,,3,,,75,127
35557,note_on,1,0,0,,3,,,63,127
35557,note_on,0,0,0,,4,,,76,127
35656,note_off,99,0,0,,3,,,63,127
35657,note_on,1,0,0,,1,,,61,127
35756,note_off,99,0,0,,1,,,61,127
35756,note_off,0,0,0,,4,,,76,127
35757,note_on,1,0,0,,12,,,59,127
35757,note_on,0,0,0,,6,,,78,127
35757,note_on,0,0,0,,3,,,75,127
35856,note_off,99,0,0,,12,,,59,127
35857,note_on,1,0,0,,10,,,57,127
35956,note_off,99,0,0,,10,,,57,127
35956,note_off,0,0,0,,3,,,75,127
35956,note_off,0,0,0,,6,,,78,127
35957,note_on,1,0,0,,8,,,56,127
35957,note_on,0,0,0,,8,,,80,127
35957,note_on,0,0,0,,4,,,76,127
36056,note_off,99,0,0,,4,,,76,127
36056,note_off,0,0,0,,8,,,80,127
36056,note_off,0,0,0,,8,,,56,127
36057,note_on,1,0,0,,6,,,54,127
36057,note_on,0,0,0,,10,,,81,127
36057,note_on,0,0,0,,6,,,78,127
36156,note_off,99,0,0,,6,,,78,127
36156,note_off,0,0,0,,10,,,81,127
36156,note_off,0,0,0,,6,,,54,127
36157,note_on,1,0,0,,4,,,52,127
36157,note_on,0,0,0,,12,,,83,127
36157,note_on,0,0,0,,8,,,80,127
36356,note_off,199,0,0,,8,,,80,127
36356,note_off,0,0,0,,12,,,83,127
36356,note_off,0,0,0,,4,,,52,127
36357,note_on,1,0,0,,10,,,57,127
36357,note_on,0,0,0,,10,,,81,127
36357,note_on,0,0,0,,1,,,85,127
36556,note_off,199,0,0,,1,,,85,127
36556,note_off,0,0,0,,10,,,81,127
36556,note_off,0,0,0,,10,,,57,127
36557,note_on,1,0,0,,12,,,59,127
36557,note_on,0,0,0,,12,,,83,127
36557,note_on,0,0,0,,8,,,80,127
36656,note_off,99,0,0,,8,,,80,127
36656,note_off,0,0,0,,12,,,83,127
36657,note_on,1,0,0,,10,,,81,127
36657,note_on,0,0,0,,6,,,78,127
36756,note_off,99,0,0,,6,,,78,127
36756,note_off,0,0,0,,10,,,81,127
36756,note_off,0,0,0,,12,,,59,127
36757,note_on,1,0,0,,12,,,47,127
36757,note_on,0,0,0,,4,,,76,127
36757,note_on,0,0,0,,8,,,80,127
36856,note_off,99,0,0,,8,,,80,127
36856,note_off,0,0,0,,4,,,76,127
36857,note_on,1,0,0,,6,,,78,127
36857,note_on,0,0,0,,3,,,75,127
36956,note_off,99,0,0,,3,,,75,127
36956,note_off,0,0,0,,6,,,78,127
36956,note_off,0,0,0,,12,,,47,127
36957,note_on,1,0,0,,4,,,52,127
36957,note_on,0,0,0,,4,,,76,127
37056,note_off,99,0,0,,4,,,52,127
37057,note_on,1,0,0,,12,,,59,127
37156,note_off,99,0,0,,12,,,59,127
37156,note_off,0,0,0,,4,,,76,127
37174,note_on,18,0,0,,4,,,76,127
37174,note_on,0,0,0,,8,,,80,127
37174,note_on,0,0,0,,4,,,64,127
37273,note_off,99,0,0,,4,,,64,127
37274,note_on,1,0,0,,3,,,63,127
37373,note_off,99,0,0,,3,,,63,127
37373,note_off,0,0,0,,8,,,80,127
37373,note_off,0,0,0,,4,,,76,127
37374,note_on,1,0,0,,4,,,76,127
37374,note_on,0,0,0,,8,,,80,127
37374,note_on,0,0,0,,1,,,61,127
37473,note_off,99,0,0,,1,,,61,127
37474,note_on,1,0,0,,12,,,59,127
37573,note_off,99,0,0,,12,,,59,127
37573,note_off,0,0,0,,8,,,80,127
37573,note_off,0,0,0,,4,,,76,127
37574,note_on,1,0,0,,4,,,76,127
37574,note_on,0,0,0,,8,,,80,127
37574,note_on,0,0,0,,10,,,57,127
37673,note_off,99,0,0,,10,,,57,127
37674,note_on,1,0,0,,8,,,56,127
37773,note_off,99,0,0,,8,,,56,127
37773,note_off,0,0,0,,8,,,80,127
37773,note_off,0,0,0,,4,,,76,127
37774,note_on,1,0,0,,6,,,78,127
37774,note_on,0,0,0,,10,,,81,127
37774,note_on,0,0,0,,6,,,54,127
37873,note_off,99,0,0,,6,,,54,127
37874,note_on,1,0,0,,4,,,52,127
37973,note_off,99,0,0,,4,,,52,127
37973,note_off,0,0,0,,10,,,81,127
37973,note_off,0,0,0,,6,,,78,127
37974,note_on,1,0,0,,6,,,78,127
37974,note_on,0,0,0,,10,,,81,127
37974,note_on,0,0,0,,3,,,51,127
38073,note_off,99,0,0,,3,,,51,127
38074,note_on,1,0,0,,1,,,49,127
38173,note_off,99,0,0,,1,,,49,127
38173,note_off,0,0,0,,10,,,81,127
38173,note_off,0,0,0,,6,,,78,127
38174,note_on,1,0,0,,6,,,78,127
38174,note_on,0,0,0,,10,,,81,127
38174,note_on,0,0,0,,12,,,47,127
38273,note_off,99,0,0,,12,,,47,127
38274,note_on,1,0,0,,10,,,45,127
38373,note_off,99,0,0,,10,,,45,127
38373,note_off,0,0,0,,10,,,81,127
38373,note_off,0,0,0,,6,,,78,127
38374,note_on,1,0,0,,4,,,76,127
38374,note_on,0,0,0,,8,,,80,127
38374,note_on,0,0,0,,8,,,44,127
38473,note_off,99,0,0,,8,,,44,127
38473,note_off,0,0,0,,8,,,80,127
38473,note_off,0,0,0,,4,,,76,127
38474,note_on,1,0,0,,6,,,78,127
38474,note_on,0,0,0,,10,,,81,127
38474,note_on,0,0,0,,6,,,42,127
38573,note_off,99,0,0,,6,,,42,127
38573,note_off,0,0,0,,10,,,81,127
38573,note_off,0,0,0,,6,,,78,127
38574,note_on,1,0,0,,8,,,80,127
38574,note_on,0,0,0,,12,,,83,127
38574,note_on,0,0,0,,4,,,40,127
38762,note_off,188,0,0,,12,,,83,127
38762,note_off,0,0,0,,8,,,80,127
38773,note_off,11,0,0,,4,,,40,127
38774,note_on,1,0,0,,1,,,85,127
38774,note_on,0,0,0,,10,,,81,127
38774,note_on,0,0,0,,10,,,45,127
38973,note_off,199,0,0,,10,,,45,127
38973,note_off,0,0,0,,10,,,81,127
38973,note_off,0,0,0,,1,,,85,127
38974,note_on,1,0,0,,8,,,80,127
38974,note_on,0,0,0,,12,,,83,127
38974,note_on,0,0,0,,12,,,47,127
39073,note_off,99,0,0,,12,,,83,127
39073,note_off,0,0,0,,8,,,80,127
39074,note_on,1,0,0,,6,,,78,127
39074,note_on,0,0,0,,10,,,81,127
39173,note_off,99,0,0,,10,,,81,127
39173,note_off,0,0,0,,6,,,78,127
39173,note_off,0,0,0,,12,,,47,127
39174,note_on,1,0,0,,4,,,76,127
39174,note_on,0,0,0,,8,,,80,127
39174,note_on,0,0,0,,12,,,35,127
39273,note_off,99,0,0,,8,,,80,127
39273,note_off,0,0,0,,4,,,76,127
39274,note_on,1,0,0,,6,,,78,127
39274,note_on,0,0,0,,3,,,75,127
39373,note_off,99,0,0,,3,,,75,127
39373,note_off,0,0,0,,6,,,78,127
39373,note_off,0,0,0,,12,,,35,127
39374,note_on,1,0,0,,4,,,76,127
39374,note_on,0,0,0,,4,,,40,127
39473,note_off,99,0,0,,4,,,40,127
39483,note_on,10,0,0,,12,,,47,127
39573,note_off,90,0,0,,4,,,76,127
39582,note_off,9,0,0,,12,,,47,127
39590,note_on,8,0,0,,4,,,52,127
39590,note_on,0,0,0,,4,,,76,127
39590,note_on,0,0,0,,8,,,80,127
39689,note_off,99,0,0,,4,,,52,127
39690,note_on,1,0,0,,3,,,63,127
39789,note_off,99,0,0,,3,,,63,127
39789,note_off,0,0,0,,8,,,80,127
39789,note_off,0,0,0,,4,,,76,127
39790,note_on,1,0,0,,1,,,61,127
39790,note_on,0,0,0,,4,,,76,127
39790,note_on,0,0,0,,8,,,80,127
39889,note_off,99,0,0,,1,,,61,127
39890,note_on,1,0,0,,12,,,59,127
39989,note_off,99,0,0,,12,,,59,127
39989,note_off,0,0,0,,8,,,80,127
39989,note_off,0,0,0,,4,,,76,127
39990,note_on,1,0,0,,10,,,57,127
39990,note_on,0,0,0,,4,,,76,127
39990,note_on,0,0,0,,8,,,80,127
40089,note_off,99,0,0,,10,,,57,127
40090,note_on,1,0,0,,8,,,56,127
40189,note_off,99,0,0,,8,,,56,127
40189,note_off,0,0,0,,8,,,80,127
40189,note_off,0,0,0,,4,,,76,127
40190,note_on,1,0,0,,6,,,54,127
40190,note_on,0,0,0,,10,,,81,127
40190,note_on,0,0,0,,6,,,78,127
40289,note_off,99,0,0,,6,,,54,127
40290,note_on,1,0,0,,4,,,52,127
40389,note_off,99,0,0,,4,,,52,127
40389,note_off,0,0,0,,6,,,78,127
40389,note_off,0,0,0,,10,,,81,127
40390,note_on,1,0,0,,3,,,51,127
40390,note_on,0,0,0,,10,,,81,127
40390,note_on,0,0,0,,6,,,78,127
40489,note_off,99,0,0,,3,,,51,127
40490,note_on,1,0,0,,1,,,49,127
40589,note_off,99,0,0,,1,,,49,127
40589,note_off,0,0,0,,6,,,78,127
40589,note_off,0,0,0,,10,,,81,127
40590,note_on,1,0,0,,12,,,47,127
40590,note_on,0,0,0,,6,,,78,127
40590,note_on,0,0,0,,10,,,81,127
40689,note_off,99,0,0,,12,,,47,127
40690,note_on,1,0,0,,10,,,45,127
40789,note_off,99,0,0,,10,,,45,127
40789,note_off,0,0,0,,10,,,81,127
40789,note_off,0,0,0,,6,,,78,127
40790,note_on,1,0,0,,8,,,44,127
40790,note_on,0,0,0,,8,,,80,127
40790,note_on,0,0,0,,4,,,76,127
40889,note_off,99,0,0,,4,,,76,127
40889,note_off,0,0,0,,8,,,80,127
40889,note_off,0,0,0,,8,,,44,127
40890,note_on,1,0,0,,6,,,42,127
40890,note_on,0,0,0,,10,,,81,127
40890,note_on,0,0,0,,6,,,78,127
40989,note_off,99,0,0,,6,,,78,127
40989,note_off,0,0,0,,10,,,81,127
40989,note_off,0,0,0,,6,,,42,127
40990,note_on,1,0,0,,4,,,40,127
40990,note_on,0,0,0,,12,,,83,127
40990,note_on,0,0,0,,8,,,80,127
41189,note_off,199,0,0,,8,,,80,127
41189,note_off,0,0,0,,12,,,83,127
41189,note_off,0,0,0,,4,,,40,127
41190,note_on,1,0,0,,10,,,45,127
41190,note_on,0,0,0,,10,,,81,127
41190,note_on,0,0,0,,1,,,85,127
41389,note_off,199,0,0,,1,,,85,127
41389,note_off,0,0,0,,10,,,81,127
41389,note_off,0,0,0,,10,,,45,127
41390,note_on,1,0,0,,12,,,47,127
41390,note_on,0,0,0,,8,,,80,127
41390,note_on,0,0,0,,12,,,83,127
41489,note_off,99,0,0,,12,,,83,127
41489,note_off,0,0,0,,8,,,80,127
41490,note_on,1,0,0,,10,,,81,127
41490,note_on,0,0,0,,6,,,78,127
41589,note_off,99,0,0,,6,,,78,127
41589,note_off,0,0,0,,10,,,81,127
41589,note_off,0,0,0,,12,,,47,127
41590,note_on,1,0,0,,12,,,35,127
41590,note_on,0,0,0,,8,,,80,127
41590,note_on,0,0,0,,4,,,76,127
41689,note_off,99,0,0,,4,,,76,127
41689,note_off,0,0,0,,8,,,80,127
41690,note_on,1,0,0,,6,,,78,127
41690,note_on,0,0,0,,3,,,75,127
41779,note_off,89,0,0,,3,,,75,127
41779,note_off,0,0,0,,6,,,78,127
41789,note_off,10,0,0,,12,,,35,127
41807,note_on,18,0,0,,8,,,80,127
41807,note_on,0,0,0,,4,,,76,127
41807,note_on,0,0,0,,4,,,40,127
41807,note_on,0,0,0,,4,,,52,127
41995,note_off,188,0,0,,4,,,52,127
41995,note_off,0,0,0,,4,,,40,127
42008,note_on,13,0,0,,10,,,45,127
42008,note_on,0,0,0,,10,,,57,127
42107,note_off,99,0,0,,4,,,76,127
42107,note_off,0,0,0,,8,,,80,127
42108,note_on,1,0,0,,6,,,78,127
42108,note_on,0,0,0,,10,,,81,127
42196,note_off,88,0,0,,10,,,57,127
42196,note_off,0,0,0,,10,,,45,127
42207,note_off,11,0,0,,10,,,81,127
42207,note_off,0,0,0,,6,,,78,127
42208,note_on,1,0,0,,4,,,76,127
42208,note_on,0,0,0,,8,,,80,127
42208,note_on,0,0,0,,12,,,59,127
42208,note_on,0,0,0,,12,,,47,127
42307,note_off,99,0,0,,8,,,80,127
42307,note_off,0,0,0,,4,,,76,127
42308,note_on,1,0,0,,6,,,78,127
42308,note_on,0,0,0,,3,,,75,127
42396,note_off,88,0,0,,12,,,47,127
42396,note_off,0,0,0,,12,,,59,127
42407,note_off,11,0,0,,3,,,75,127
42407,note_off,0,0,0,,6,,,78,127
42408,note_on,1,0,0,,8,,,80,127
42408,note_on,0,0,0,,4,,,76,127
42408,note_on,0,0,0,,4,,,40,127
42408,note_on,0,0,0,,4,,,52,127
42596,note_off,188,0,0,,4,,,52,127
42596,note_off,0,0,0,,4,,,40,127
42609,note_on,13,0,0,,10,,,45,127
42609,note_on,0,0,0,,10,,,57,127
42708,note_off,99,0,0,,4,,,76,127
42708,note_off,0,0,0,,8,,,80,127
42709,note_on,1,0,0,,6,,,78,127
42709,note_on,0,0,0,,10,,,81,127
42797,note_off,88,0,0,,10,,,57,127
42797,note_off,0,0,0,,10,,,45,127
42808,note_off,11,0,0,,10,,,81,127
42808,note_off,0,0,0,,6,,,78,127
42809,note_on,1,0,0,,8,,,80,127
42809,note_on,0,0,0,,4,,,76,127
42809,note_on,0,0,0,,12,,,47,127
42809,note_on,0,0,0,,12,,,59,127
42908,note_off,99,0,0,,4,,,76,127
42908,note_off,0,0,0,,8,,,80,127
42909,note_on,1,0,0,,3,,,75,127
42909,note_on,0,0,0,,6,,,78,127
42997,note_off,88,0,0,,12,,,59,127
42997,note_off,0,0,0,,12,,,47,127
43008,note_off,11,0,0,,6,,,78,127
43008,note_off,0,0,0,,3,,,75,127
43009,note_on,1,0,0,,8,,,80,127
43009,note_on,0,0,0,,4,,,76,127
43009,note_on,0,0,0,,4,,,40,127
43009,note_on,0,0,0,,4,,,52,127
43197,note_off,188,0,0,,4,,,52,127
43197,note_off,0,0,0,,4,,,40,127
43210,note_on,13,0,0,,10,,,45,127
43210,note_on,0,0,0,,10,,,57,127
43309,note_off,99,0,0,,4,,,76,127
43309,note_off,0,0,0,,8,,,80,127
43310,note_on,1,0,0,,10,,,81,127
43310,note_on,0,0,0,,6,,,78,127
43398,note_off,88,0,0,,10,,,57,127
43398,note_off,0,0,0,,10,,,45,127
43409,note_off,11,0,0,,6,,,78,127
43409,note_off,0,0,0,,10,,,81,127
43410,note_on,1,0,0,,8,,,80,127
43410,note_on,0,0,0,,4,,,76,127
43410,note_on,0,0,0,,12,,,59,127
43410,note_on,0,0,0,,12,,,47,127
43509,note_off,99,0,0,,4,,,76,127
43509,note_off,0,0,0,,8,,,80,127
43510,note_on,1,0,0,,3,,,75,127
43510,note_on,0,0,0,,6,,,78,127
43598,note_off,88,0,0,,12,,,47,127
43598,note_off,0,0,0,,12,,,59,127
43609,note_off,11,0,0,,6,,,78,127
43609,note_off,0,0,0,,3,,,75,127
43610,note_on,1,0,0,,8,,,80,127
43610,note_on,0,0,0,,4,,,76,127
43610,note_on,0,0,0,,4,,,40,127
43610,note_on,0,0,0,,4,,,52,127
43709,note_off,99,0,0,,4,,,76,127
43709,note_off,0,0,0,,8,,,80,127
43710,note_on,1,0,0,,10,,,81,127
43710,note_on,0,0,0,,6,,,78,127
43798,note_off,88,0,0,,4,,,52,127
43798,note_off,0,0,0,,4,,,40,127
43809,note_off,11,0,0,,6,,,78,127
43809,note_off,0,0,0,,10,,,81,127
43810,note_on,1,0,0,,8,,,80,127
43810,note_on,0,0,0,,12,,,83,127
43810,note_on,0,0,0,,10,,,45,127
43810,note_on,0,0,0,,10,,,33,127
43909,note_off,99,0,0,,12,,,83,127
43909,note_off,0,0,0,,8,,,80,127
43910,note_on,1,0,0,,6,,,78,127
43910,note_on,0,0,0,,10,,,81,127
43998,note_off,88,0,0,,10,,,33,127
43998,note_off,0,0,0,,10,,,45,127
44009,note_off,11,0,0,,10,,,81,127
44009,note_off,0,0,0,,6,,,78,127
44010,note_on,1,0,0,,4,,,76,127
44010,note_on,0,0,0,,8,,,80,127
44010,note_on,0,0,0,,12,,,47,127
44010,note_on,0,0,0,,12,,,35,127
44109,note_off,99,0,0,,8,,,80,127
44109,note_off,0,0,0,,4,,,76,127
44110,note_on,1,0,0,,6,,,78,127
44110,note_on,0,0,0,,3,,,75,127
44198,note_off,88,0,0,,12,,,35,127
44198,note_off,0,0,0,,12,,,47,127
44209,note_off,11,0,0,,3,,,75,127
44209,note_off,0,0,0,,6,,,78,127
44210,note_on,1,0,0,,4,,,76,127
44210,note_on,0,0,0,,8,,,80,127
44210,note_on,0,0,0,,4,,,52,127
44210,note_on,0,0,0,,4,,,40,127
44309,note_off,99,0,0,,8,,,80,127
44309,note_off,0,0,0,,4,,,76,127
44310,note_on,1,0,0,,6,,,78,127
44310,note_on,0,0,0,,10,,,81,127
44398,note_off,88,0,0,,4,,,40,127
44398,note_off,0,0,0,,4,,,52,127
44409,note_off,11,0,0,,10,,,81,127
44409,note_off,0,0,0,,6,,,78,127
44410,note_on,1,0,0,,8,,,80,127
44410,note_on,0,0,0,,12,,,83,127
44410,note_on,0,0,0,,10,,,45,127
44410,note_on,0,0,0,,10,,,33,127
44509,note_off,99,0,0,,12,,,83,127
44509,note_off,0,0,0,,8,,,80,127
44510,note_on,1,0,0,,6,,,78,127
44510,note_on,0,0,0,,10,,,81,127
44598,note_off,88,0,0,,10,,,33,127
44598,note_off,0,0,0,,10,,,45,127
44609,note_off,11,0,0,,10,,,81,127
44609,note_off,0,0,0,,6,,,78,127
44610,note_on,1,0,0,,4,,,76,127
44610,note_on,0,0,0,,8,,,80,127
44610,note_on,0,0,0,,12,,,47,127
44610,note_on,0,0,0,,12,,,35,127
44709,note_off,99,0,0,,8,,,80,127
44709,note_off,0,0,0,,4,,,76,127
44710,note_on,1,0,0,,6,,,78,127
44710,note_on,0,0,0,,3,,,75,127
44798,note_off,88,0,0,,12,,,35,127
44798,note_off,0,0,0,,12,,,47,127
44809,note_off,11,0,0,,3,,,75,127
44809,note_off,0,0,0,,6,,,78,127
44810,note_on,1,0,0,,4,,,76,127
44810,note_on,0,0,0,,8,,,80,127
44810,note_on,0,0,0,,4,,,40,127
44810,note_on,0,0,0,,4,,,52,127
44909,note_off,99,0,0,,8,,,80,127
44909,note_off,0,0,0,,4,,,76,127
44910,note_on,1,0,0,,6,,,78,127
44910,note_on,0,0,0,,10,,,81,127
44998,note_off,88,0,0,,4,,,52,127
44998,note_off,0,0,0,,4,,,40,127
45009,note_off,11,0,0,,10,,,81,127
45009,note_off,0,0,0,,6,,,78,127
45010,note_on,1,0,0,,8,,,80,127
45010,note_on,0,0,0,,12,,,83,127
45010,note_on,0,0,0,,10,,,45,127
45010,note_on,0,0,0,,10,,,33,127
45109,note_off,99,0,0,,12,,,83,127
45109,note_off,0,0,0,,8,,,80,127
45110,note_on,1,0,0,,6,,,78,127
45110,note_on,0,0,0,,10,,,81,127
45198,note_off,88,0,0,,10,,,33,127
45198,note_off,0,0,0,,10,,,45,127
45209,note_off,11,0,0,,10,,,81,127
45209,note_off,0,0,0,,6,,,78,127
45210,note_on,1,0,0,,8,,,80,127
45210,note_on,0,0,0,,4,,,76,127
45210,note_on,0,0,0,,12,,,47,127
45210,note_on,0,0,0,,12,,,35,127
45309,note_off,99,0,0,,4,,,76,127
45309,note_off,0,0,0,,8,,,80,127
45310,note_on,1,0,0,,3,,,75,127
45310,note_on,0,0,0,,6,,,78,127
45398,note_off,88,0,0,,12,,,35,127
45398,note_off,0,0,0,,12,,,47,127
45409,note_off,11,0,0,,6,,,78,127
45409,note_off,0,0,0,,3,,,75,127
45410,note_on,1,0,0,,6,,,78,127
45410,note_on,0,0,0,,4,,,52,127
45410,note_on,0,0,0,,4,,,40,127
45459,note_off,49,0,0,,6,,,78,127
45460,note_on,1,0,0,,4,,,76,127
45509,note_off,49,0,0,,4,,,76,127
45510,note_on,1,0,0,,6,,,78,127
45559,note_off,49,0,0,,6,,,78,127
45560,note_on,1,0,0,,4,,,76,127
46010,note_off,450,0,0,,4,,,40,127
46044,note_on,34,0,0,,4,,,64,127
46160,note_off,116,0,0,,4,,,76,127
46243,note_off,83,0,0,,4,,,64,127
46244,note_on,1,0,0,,4,,,64,127
46443,note_off,199,0,0,,4,,,64,127
46444,note_on,1,0,0,,4,,,64,127
46610,note_off,166,0,0,,4,,,52,127
46643,note_off,33,0,0,,4,,,64,127
46644,note_on,1,0,0,,5,,,77,127
46644,note_on,0,0,0,,4,,,52,127
46743,note_off,99,0,0,,5,,,77,127
46744,note_on,1,0,0,,4,,,76,127
46843,note_off,99,0,0,,4,,,76,127
46843,note_off,0,0,0,,4,,,52,127
46844,note_on,1,0,0,,2,,,74,127
46844,note_on,0,0,0,,4,,,52,127
46943,note_off,99,0,0,,2,,,74,127
46944,note_on,1,0,0,,0,,,72,127
47043,note_off,99,0,0,,0,,,72,127
47043,note_off,0,0,0,,4,,,52,127
47044,note_on,1,0,0,,12,,,71,127
47044,note_on,0,0,0,,4,,,52,127
47143,note_off,99,0,0,,12,,,71,127
47144,note_on,1,0,0,,10,,,69,127
47243,note_off,99,0,0,,10,,,69,127
47243,note_off,0,0,0,,4,,,52,127
47244,note_on,1,0,0,,10,,,69,127
47244,note_on,0,0,0,,5,,,65,127
47343,note_off,99,0,0,,5,,,65,127
47343,note_off,0,0,0,,10,,,69,127
47344,note_on,1,0,0,,8,,,68,127
47344,note_on,0,0,0,,4,,,64,127
47443,note_off,99,0,0,,4,,,64,127
47443,note_off,0,0,0,,8,,,68,127
47444,note_on,1,0,0,,8,,,68,127
47444,note_on,0,0,0,,2,,,62,127
47543,note_off,99,0,0,,2,,,62,127
47544,note_on,1,0,0,,0,,,60,127
47643,note_off,99,0,0,,0,,,60,127
47643,note_off,0,0,0,,8,,,68,127
47644,note_on,1,0,0,,10,,,69,127
47644,note_on,0,0,0,,12,,,59,127
47743,note_off,99,0,0,,12,,,59,127
47744,note_on,1,0,0,,10,,,57,127
47843,note_off,99,0,0,,10,,,57,127
47843,note_off,0,0,0,,10,,,69,127
47844,note_on,1,0,0,,12,,,71,127
47844,note_on,0,0,0,,8,,,56,127
47918,note_off,74,0,0,,12,,,71,127
47919,note_on,1,0,0,,0,,,72,127
47993,note_off,74,0,0,,0,,,72,127
47994,note_on,1,0,0,,2,,,74,127
48043,note_off,49,0,0,,8,,,56,127
48044,note_on,1,0,0,,6,,,54,127
48068,note_off,24,0,0,,2,,,74,127
48069,note_on,1,0,0,,2,,,74,127
48143,note_off,74,0,0,,2,,,74,127
48144,note_on,1,0,0,,0,,,72,127
48218,note_off,74,0,0,,0,,,72,127
48219,note_on,1,0,0,,2,,,74,127
48243,note_off,24,0,0,,6,,,54,127
48244,note_on,1,0,0,,4,,,52,127
48293,note_off,49,0,0,,2,,,74,127
48294,note_on,1,0,0,,0,,,72,127
48361,note_on,67,0,0,,12,,,71,127
48368,note_off,7,0,0,,0,,,72,127
48435,note_off,67,0,0,,12,,,71,127
48443,note_off,8,0,0,,4,,,52,127
48444,note_on,1,0,0,,10,,,69,127
48444,note_on,0,0,0,,10,,,57,127
48643,note_off,199,0,0,,10,,,69,127
48661,note_on,18,0,0,,10,,,69,127
48844,note_off,183,0,0,,10,,,57,127
48861,note_off,17,0,0,,10,,,69,127
48862,note_on,1,0,0,,10,,,45,127
48862,note_on,0,0,0,,10,,,69,127
49061,note_off,199,0,0,,10,,,69,127
49061,note_off,0,0,0,,10,,,45,127
49062,note_on,1,0,0,,10,,,57,127
49062,note_on,0,0,0,,11,,,82,127
49161,note_off,99,0,0,,11,,,82,127
49162,note_on,1,0,0,,10,,,81,127
49261,note_off,99,0,0,,10,,,81,127
49261,note_off,0,0,0,,10,,,57,127
49262,note_on,1,0,0,,10,,,57,127
49262,note_on,0,0,0,,7,,,79,127
49361,note_off,99,0,0,,7,,,79,127
49362,note_on,1,0,0,,5,,,77,127
49461,note_off,99,0,0,,5,,,77,127
49461,note_off,0,0,0,,10,,,57,127
49462,note_on,1,0,0,,10,,,57,127
49462,note_on,0,0,0,,4,,,76,127
49561,note_off,99,0,0,,4,,,76,127
49562,note_on,1,0,0,,2,,,74,127
49661,note_off,99,0,0,,2,,,74,127
49661,note_off,0,0,0,,10,,,57,127
49662,note_on,1,0,0,,11,,,70,127
49662,note_on,0,0,0,,2,,,74,127
49761,note_off,99,0,0,,2,,,74,127
49761,note_off,0,0,0,,11,,,70,127
49762,note_on,1,0,0,,10,,,69,127
49762,note_on,0,0,0,,1,,,73,127
49861,note_off,99,0,0,,1,,,73,127
49861,note_off,0,0,0,,10,,,69,127
49862,note_on,1,0,0,,7,,,67,127
49862,note_on,0,0,0,,1,,,73,127
49961,note_off,99,0,0,,7,,,67,127
49962,note_on,1,0,0,,5,,,65,127
50061,note_off,99,0,0,,5,,,65,127
50061,note_off,0,0,0,,1,,,73,127
50062,note_on,1,0,0,,4,,,64,127
50062,note_on,0,0,0,,2,,,74,127
50161,note_off,99,0,0,,4,,,64,127
50162,note_on,1,0,0,,2,,,62,127
50261,note_off,99,0,0,,2,,,62,127
50261,note_off,0,0,0,,2,,,74,127
50262,note_on,1,0,0,,1,,,61,127
50262,note_on,0,0,0,,4,,,76,127
50336,note_off,74,0,0,,4,,,76,127
50337,note_on,1,0,0,,5,,,77,127
50411,note_off,74,0,0,,5,,,77,127
50412,note_on,1,0,0,,7,,,79,127
50461,note_off,49,0,0,,1,,,61,127
50462,note_on,1,0,0,,12,,,59,127
50486,note_off,24,0,0,,7,,,79,127
50487,note_on,1,0,0,,7,,,79,127
50561,note_off,74,0,0,,7,,,79,127
50562,note_on,1,0,0,,5,,,77,127
50636,note_off,74,0,0,,5,,,77,127
50637,note_on,1,0,0,,7,,,79,127
50661,note_off,24,0,0,,12,,,59,127
50662,note_on,1,0,0,,10,,,57,127
50711,note_off,49,0,0,,7,,,79,127
50712,note_on,1,0,0,,5,,,77,127
50779,note_on,67,0,0,,4,,,76,127
50786,note_off,7,0,0,,5,,,77,127
50853,note_off,67,0,0,,4,,,76,127
50861,note_off,8,0,0,,10,,,57,127
50862,note_on,1,0,0,,2,,,62,127
50862,note_on,0,0,0,,5,,,77,127
50961,note_off,99,0,0,,5,,,77,127
50962,note_on,1,0,0,,4,,,76,127
51061,note_off,99,0,0,,4,,,76,127
51061,note_off,0,0,0,,2,,,62,127
51062,note_on,1,0,0,,4,,,64,127
51062,note_on,0,0,0,,2,,,74,127
51161,note_off,99,0,0,,2,,,74,127
51162,note_on,1,0,0,,0,,,72,127
51261,note_off,99,0,0,,0,,,72,127
51261,note_off,0,0,0,,4,,,64,127
51262,note_on,1,0,0,,5,,,65,127
51262,note_on,0,0,0,,12,,,71,127
51361,note_off,99,0,0,,12,,,71,127
51362,note_on,1,0,0,,10,,,69,127
51461,note_off,99,0,0,,10,,,69,127
51461,note_off,0,0,0,,5,,,65,127
51462,note_on,1,0,0,,7,,,55,127
51462,note_on,0,0,0,,12,,,71,127
51561,note_off,99,0,0,,12,,,71,127
51562,note_on,1,0,0,,10,,,69,127
51661,note_off,99,0,0,,10,,,69,127
51661,note_off,0,0,0,,7,,,55,127
51662,note_on,1,0,0,,10,,,57,127
51662,note_on,0,0,0,,7,,,67,127
51761,note_off,99,0,0,,7,,,67,127
51762,note_on,1,0,0,,5,,,65,127
51861,note_off,99,0,0,,5,,,65,127
51861,note_off,0,0,0,,10,,,57,127
51862,note_on,1,0,0,,12,,,59,127
51862,note_on,0,0,0,,4,,,64,127
51961,note_off,99,0,0,,4,,,64,127
51965,note_on,4,0,0,,2,,,62,127
52061,note_off,96,0,0,,12,,,59,127
52075,note_off,14,0,0,,2,,,62,127
52079,note_on,4,0,0,,4,,,64,127
52079,note_on,0,0,0,,0,,,60,127
52178,note_off,99,0,0,,4,,,64,127
52179,note_on,1,0,0,,10,,,69,127
52278,note_off,99,0,0,,10,,,69,127
52278,note_off,0,0,0,,0,,,60,127
52279,note_on,1,0,0,,7,,,67,127
52279,note_on,0,0,0,,12,,,59,127
52477,note_off,198,0,0,,7,,,67,127
52478,note_off,1,0,0,,12,,,59,127
52479,note_on,1,0,0,,1,,,61,127
52579,note_on,100,0,0,,4,,,64,127
52678,note_off,99,0,0,,4,,,64,127
52678,note_off,0,0,0,,1,,,61,127
52679,note_on,1,0,0,,6,,,66,127
52679,note_on,0,0,0,,2,,,62,127
52778,note_off,99,0,0,,6,,,66,127
52779,note_on,1,0,0,,12,,,71,127
52878,note_off,99,0,0,,12,,,71,127
52878,note_off,0,0,0,,2,,,62,127
52879,note_on,1,0,0,,10,,,69,127
52879,note_on,0,0,0,,0,,,60,127
53078,note_off,199,0,0,,0,,,60,127
53079,note_on,1,0,0,,2,,,62,127
53087,note_off,8,0,0,,10,,,69,127
53179,note_on,92,0,0,,6,,,66,127
53278,note_off,99,0,0,,6,,,66,127
53278,note_off,0,0,0,,2,,,62,127
53279,note_on,1,0,0,,8,,,68,127
53279,note_on,0,0,0,,4,,,64,127
53378,note_off,99,0,0,,8,,,68,127
53379,note_on,1,0,0,,0,,,72,127
53478,note_off,99,0,0,,0,,,72,127
53478,note_off,0,0,0,,4,,,64,127
53479,note_on,1,0,0,,12,,,71,127
53479,note_on,0,0,0,,2,,,62,127
53678,note_off,199,0,0,,2,,,62,127
53679,note_on,1,0,0,,4,,,64,127
53698,note_off,19,0,0,,12,,,71,127
53779,note_on,81,0,0,,8,,,68,127
53878,note_off,99,0,0,,8,,,68,127
53878,note_off,0,0,0,,4,,,64,127
53879,note_on,1,0,0,,10,,,69,127
53879,note_on,0,0,0,,5,,,65,127
53978,note_off,99,0,0,,10,,,69,127
53979,note_on,1,0,0,,2,,,74,127
54078,note_off,99,0,0,,2,,,74,127
54078,note_off,0,0,0,,5,,,65,127
54079,note_on,1,0,0,,0,,,72,127
54079,note_on,0,0,0,,4,,,64,127
54278,note_off,199,0,0,,4,,,64,127
54279,note_on,1,0,0,,6,,,66,127
54308,note_off,29,0,0,,0,,,72,127
54379,note_on,71,0,0,,10,,,69,127
54478,note_off,99,0,0,,10,,,69,127
54478,note_off,0,0,0,,6,,,66,127
54479,note_on,1,0,0,,12,,,71,127
54479,note_on,0,0,0,,7,,,67,127
54578,note_off,99,0,0,,12,,,71,127
54579,note_on,1,0,0,,4,,,76,127
54678,note_off,99,0,0,,4,,,76,127
54678,note_off,0,0,0,,7,,,67,127
54679,note_on,1,0,0,,2,,,74,127
54679,note_on,0,0,0,,6,,,66,127
54878,note_off,199,0,0,,6,,,66,127
54879,note_on,1,0,0,,8,,,68,127
54919,note_off,40,0,0,,2,,,74,127
54980,note_on,61,0,0,,12,,,71,127
55079,note_off,99,0,0,,12,,,71,127
55079,note_off,0,0,0,,8,,,68,127
55080,note_on,1,0,0,,0,,,72,127
55080,note_on,0,0,0,,10,,,69,127
55179,note_off,99,0,0,,0,,,72,127
55180,note_on,1,0,0,,4,,,76,127
55279,note_off,99,0,0,,4,,,76,127
55280,note_on,1,0,0,,10,,,81,127
55379,note_off,99,0,0,,10,,,81,127
55380,note_on,1,0,0,,7,,,79,127
55479,note_off,99,0,0,,7,,,79,127
55479,note_off,0,0,0,,10,,,69,127
55480,note_on,1,0,0,,5,,,77,127
55480,note_on,0,0,0,,0,,,60,127
55579,note_off,99,0,0,,5,,,77,127
55580,note_on,1,0,0,,4,,,76,127
55679,note_off,99,0,0,,4,,,76,127
55679,note_off,0,0,0,,0,,,60,127
55680,note_on,1,0,0,,5,,,77,127
55680,note_on,0,0,0,,2,,,62,127
55779,note_off,99,0,0,,5,,,77,127
55780,note_on,1,0,0,,4,,,76,127
55879,note_off,99,0,0,,4,,,76,127
55879,note_off,0,0,0,,2,,,62,127
55880,note_on,1,0,0,,2,,,74,127
55880,note_on,0,0,0,,4,,,64,127
55979,note_off,99,0,0,,2,,,74,127
55980,note_on,1,0,0,,0,,,72,127
56079,note_off,99,0,0,,0,,,72,127
56079,note_off,0,0,0,,4,,,64,127
56080,note_on,1,0,0,,12,,,71,127
56080,note_on,0,0,0,,5,,,65,127
56179,note_off,99,0,0,,12,,,71,127
56180,note_on,1,0,0,,10,,,69,127
56279,note_off,99,0,0,,10,,,69,127
56279,note_off,0,0,0,,5,,,65,127
56280,note_on,1,0,0,,8,,,68,127
56280,note_on,0,0,0,,4,,,64,127
56490,note_off,210,0,0,,4,,,64,127
56514,note_on,24,0,0,,4,,,64,127
56529,note_off,15,0,0,,8,,,68,127
56615,note_on,86,0,0,,2,,,62,127
56714,note_off,99,0,0,,2,,,62,127
56714,note_off,0,0,0,,4,,,64,127
56715,note_on,1,0,0,,4,,,64,127
56715,note_on,0,0,0,,0,,,60,127
56814,note_off,99,0,0,,0,,,60,127
56815,note_on,1,0,0,,12,,,59,127
56914,note_off,99,0,0,,12,,,59,127
56914,note_off,0,0,0,,4,,,64,127
56915,note_on,1,0,0,,10,,,69,127
56915,note_on,0,0,0,,10,,,57,127
57014,note_off,99,0,0,,10,,,57,127
57015,note_on,1,0,0,,7,,,55,127
57114,note_off,99,0,0,,7,,,55,127
57114,note_off,0,0,0,,10,,,69,127
57115,note_on,1,0,0,,10,,,69,127
57115,note_on,0,0,0,,5,,,53,127
57214,note_off,99,0,0,,5,,,53,127
57215,note_on,1,0,0,,4,,,52,127
57314,note_off,99,0,0,,4,,,52,127
57314,note_off,0,0,0,,10,,,69,127
57315,note_on,1,0,0,,10,,,69,127
57315,note_on,0,0,0,,2,,,50,127
57414,note_off,99,0,0,,2,,,50,127
57415,note_on,1,0,0,,0,,,48,127
57514,note_off,99,0,0,,0,,,48,127
57514,note_off,0,0,0,,10,,,69,127
57515,note_on,1,0,0,,12,,,71,127
57515,note_on,0,0,0,,12,,,47,127
57614,note_off,99,0,0,,12,,,47,127
57615,note_on,1,0,0,,10,,,45,127
57714,note_off,99,0,0,,10,,,45,127
57714,note_off,0,0,0,,12,,,71,127
57715,note_on,1,0,0,,0,,,72,127
57715,note_on,0,0,0,,8,,,44,127
57814,note_off,99,0,0,,8,,,44,127
57815,note_on,1,0,0,,6,,,42,127
57914,note_off,99,0,0,,6,,,42,127
57914,note_off,0,0,0,,0,,,72,127
57915,note_on,1,0,0,,2,,,74,127
57915,note_on,0,0,0,,4,,,40,127
58014,note_off,99,0,0,,4,,,40,127
58015,note_on,1,0,0,,8,,,44,127
58114,note_off,99,0,0,,8,,,44,127
58114,note_off,0,0,0,,2,,,74,127
58115,note_on,1,0,0,,2,,,74,127
58115,note_on,0,0,0,,10,,,45,127
58214,note_off,99,0,0,,2,,,74,127
58215,note_on,1,0,0,,0,,,72,127
58314,note_off,99,0,0,,0,,,72,127
58314,note_off,0,0,0,,10,,,45,127
58315,note_on,1,0,0,,12,,,71,127
58315,note_on,0,0,0,,2,,,38,127
58514,note_off,199,0,0,,2,,,38,127
58514,note_off,0,0,0,,12,,,71,127
58515,note_on,1,0,0,,10,,,69,127
58515,note_on,0,0,0,,5,,,41,127
58714,note_off,199,0,0,,5,,,41,127
58714,note_off,0,0,0,,10,,,69,127
58715,note_on,1,0,0,,12,,,71,127
58715,note_on,0,0,0,,4,,,40,127
58914,note_off,199,0,0,,12,,,71,127
58932,note_on,18,0,0,,4,,,64,127
59014,note_off,82,0,0,,4,,,40,127
59032,note_on,18,0,0,,2,,,62,127
59131,note_off,99,0,0,,2,,,62,127
59131,note_off,0,0,0,,4,,,64,127
59132,note_on,1,0,0,,0,,,60,127
59132,note_on,0,0,0,,4,,,64,127
59231,note_off,99,0,0,,0,,,60,127
59232,note_on,1,0,0,,12,,,59,127
59331,note_off,99,0,0,,12,,,59,127
59331,note_off,0,0,0,,4,,,64,127
59332,note_on,1,0,0,,10,,,57,127
59332,note_on,0,0,0,,10,,,69,127
59431,note_off,99,0,0,,10,,,57,127
59432,note_on,1,0,0,,7,,,55,127
59531,note_off,99,0,0,,7,,,55,127
59531,note_off,0,0,0,,10,,,69,127
59532,note_on,1,0,0,,5,,,53,127
59532,note_on,0,0,0,,10,,,69,127
59631,note_off,99,0,0,,5,,,53,127
59632,note_on,1,0,0,,4,,,52,127
59731,note_off,99,0,0,,4,,,52,127
59731,note_off,0,0,0,,10,,,69,127
59732,note_on,1,0,0,,2,,,50,127
59732,note_on,0,0,0,,10,,,69,127
59831,note_off,99,0,0,,2,,,50,127
59832,note_on,1,0,0,,0,,,48,127
59931,note_off,99,0,0,,0,,,48,127
59931,note_off,0,0,0,,10,,,69,127
59932,note_on,1,0,0,,12,,,47,127
59932,note_on,0,0,0,,12,,,71,127
60031,note_off,99,0,0,,12,,,47,127
60032,note_on,1,0,0,,10,,,45,127
60131,note_off,99,0,0,,10,,,45,127
60131,note_off,0,0,0,,12,,,71,127
60132,note_on,1,0,0,,8,,,44,127
60132,note_on,0,0,0,,0,,,72,127
60231,note_off,99,0,0,,8,,,44,127
60232,note_on,1,0,0,,6,,,42,127
60331,note_off,99,0,0,,6,,,42,127
60331,note_off,0,0,0,,0,,,72,127
60332,note_on,1,0,0,,4,,,40,127
60332,note_on,0,0,0,,2,,,74,127
60431,note_off,99,0,0,,4,,,40,127
60432,note_on,1,0,0,,8,,,44,127
60531,note_off,99,0,0,,8,,,44,127
60531,note_off,0,0,0,,2,,,74,127
60532,note_on,1,0,0,,10,,,45,127
60532,note_on,0,0,0,,2,,,74,127
60631,note_off,99,0,0,,2,,,74,127
60632,note_on,1,0,0,,0,,,72,127
60731,note_off,99,0,0,,0,,,72,127
60731,note_off,0,0,0,,10,,,45,127
60732,note_on,1,0,0,,2,,,38,127
60732,note_on,0,0,0,,12,,,71,127
60931,note_off,199,0,0,,12,,,71,127
60931,note_off,0,0,0,,2,,,38,127
60932,note_on,1,0,0,,5,,,41,127
60932,note_on,0,0,0,,10,,,69,127
61131,note_off,199,0,0,,10,,,69,127
61131,note_off,0,0,0,,5,,,41,127
61132,note_on,1,0,0,,4,,,40,127
61132,note_on,0,0,0,,12,,,71,127
61332,note_on,200,0,0,,2,,,62,127
61528,note_off,196,0,0,,12,,,71,127
61531,note_off,3,0,0,,4,,,40,127
61549,note_on,18,0,0,,2,,,74,127
61549,note_on,0,0,0,,8,,,56,127
61728,note_off,179,0,0,,2,,,62,127
61748,note_off,20,0,0,,8,,,56,127
61748,note_off,0,0,0,,2,,,74,127
61749,note_on,1,0,0,,1,,,73,127
61749,note_on,0,0,0,,10,,,57,127
61949,note_on,200,0,0,,7,,,67,127
62145,note_off,196,0,0,,1,,,73,127
62148,note_off,3,0,0,,10,,,57,127
62149,note_on,1,0,0,,7,,,79,127
62149,note_on,0,0,0,,1,,,61,127
62345,note_off,196,0,0,,7,,,67,127
62348,note_off,3,0,0,,1,,,61,127
62348,note_off,0,0,0,,7,,,79,127
62349,note_on,1,0,0,,6,,,78,127
62349,note_on,0,0,0,,2,,,62,127
62549,note_on,200,0,0,,10,,,69,127
62745,note_off,196,0,0,,6,,,78,127
62748,note_off,3,0,0,,2,,,62,127
62749,note_on,1,0,0,,10,,,81,127
62749,note_on,0,0,0,,3,,,63,127
62945,note_off,196,0,0,,10,,,69,127
62948,note_off,3,0,0,,3,,,63,127
62948,note_off,0,0,0,,10,,,81,127
62949,note_on,1,0,0,,8,,,80,127
62949,note_on,0,0,0,,4,,,64,127
63149,note_on,200,0,0,,2,,,74,127
63345,note_off,196,0,0,,8,,,80,127
63348,note_off,3,0,0,,4,,,64,127
63349,note_on,1,0,0,,2,,,86,127
63349,note_on,0,0,0,,8,,,68,127
63449,note_off,100,0,0,,2,,,74,127
63548,note_off,99,0,0,,8,,,68,127
63548,note_off,0,0,0,,2,,,86,127
63549,note_on,1,0,0,,1,,,85,127
63549,note_on,0,0,0,,10,,,69,127
63648,note_off,99,0,0,,1,,,85,127
63649,note_on,1,0,0,,12,,,83,127
63748,note_off,99,0,0,,12,,,83,127
63749,note_on,1,0,0,,10,,,81,127
63848,note_off,99,0,0,,10,,,81,127
63849,note_on,1,0,0,,8,,,80,127
63948,note_off,99,0,0,,8,,,80,127
63948,note_off,0,0,0,,10,,,69,127
63949,note_on,1,0,0,,6,,,78,127
63949,note_on,0,0,0,,1,,,61,127
64048,note_off,99,0,0,,6,,,78,127
64049,note_on,1,0,0,,4,,,76,127
64148,note_off,99,0,0,,4,,,76,127
64148,note_off,0,0,0,,1,,,61,127
64149,note_on,1,0,0,,6,,,78,127
64149,note_on,0,0,0,,2,,,62,127
64248,note_off,99,0,0,,6,,,78,127
64249,note_on,1,0,0,,4,,,76,127
64348,note_off,99,0,0,,4,,,76,127
64348,note_off,0,0,0,,2,,,62,127
64349,note_on,1,0,0,,2,,,74,127
64349,note_on,0,0,0,,4,,,64,127
64448,note_off,99,0,0,,2,,,74,127
64449,note_on,1,0,0,,1,,,73,127
64548,note_off,99,0,0,,1,,,73,127
64548,note_off,0,0,0,,4,,,64,127
64549,note_on,1,0,0,,12,,,71,127
64549,note_on,0,0,0,,6,,,66,127
64648,note_off,99,0,0,,12,,,71,127
64649,note_on,1,0,0,,10,,,69,127
64748,note_off,99,0,0,,10,,,69,127
64748,note_off,0,0,0,,6,,,66,127
64749,note_on,1,0,0,,8,,,68,127
64749,note_on,0,0,0,,4,,,64,127
64947,note_off,198,0,0,,4,,,64,127
64966,note_on,19,0,0,,2,,,62,127
65083,note_off,117,0,0,,8,,,68,127
65166,note_on,83,0,0,,8,,,56,127
65166,note_on,0,0,0,,2,,,74,127
65362,note_off,196,0,0,,2,,,62,127
65365,note_off,3,0,0,,2,,,74,127
65365,note_off,0,0,0,,8,,,56,127
65366,note_on,1,0,0,,10,,,57,127
65366,note_on,0,0,0,,1,,,73,127
65566,note_on,200,0,0,,7,,,67,127
65762,note_off,196,0,0,,1,,,73,127
65765,note_off,3,0,0,,10,,,57,127
65766,note_on,1,0,0,,1,,,61,127
65766,note_on,0,0,0,,7,,,79,127
65962,note_off,196,0,0,,7,,,67,127
65965,note_off,3,0,0,,7,,,79,127
65965,note_off,0,0,0,,1,,,61,127
65966,note_on,1,0,0,,2,,,62,127
65966,note_on,0,0,0,,6,,,78,127
66166,note_on,200,0,0,,10,,,69,127
66362,note_off,196,0,0,,6,,,78,127
66365,note_off,3,0,0,,2,,,62,127
66366,note_on,1,0,0,,3,,,63,127
66366,note_on,0,0,0,,10,,,81,127
66562,note_off,196,0,0,,10,,,69,127
66565,note_off,3,0,0,,10,,,81,127
66565,note_off,0,0,0,,3,,,63,127
66566,note_on,1,0,0,,4,,,64,127
66566,note_on,0,0,0,,8,,,80,127
66766,note_on,200,0,0,,2,,,74,127
66962,note_off,196,0,0,,8,,,80,127
66965,note_off,3,0,0,,4,,,64,127
66966,note_on,1,0,0,,8,,,68,127
66966,note_on,0,0,0,,2,,,86,127
67066,note_off,100,0,0,,2,,,74,127
67165,note_off,99,0,0,,2,,,86,127
67165,note_off,0,0,0,,8,,,68,127
67166,note_on,1,0,0,,10,,,69,127
67166,note_on,0,0,0,,1,,,85,127
67265,note_off,99,0,0,,1,,,85,127
67266,note_on,1,0,0,,12,,,83,127
67365,note_off,99,0,0,,12,,,83,127
67366,note_on,1,0,0,,10,,,81,127
67465,note_off,99,0,0,,10,,,81,127
67466,note_on,1,0,0,,8,,,80,127
67565,note_off,99,0,0,,8,,,80,127
67565,note_off,0,0,0,,10,,,69,127
67566,note_on,1,0,0,,1,,,61,127
67566,note_on,0,0,0,,6,,,78,127
67665,note_off,99,0,0,,6,,,78,127
67666,note_on,1,0,0,,4,,,76,127
67765,note_off,99,0,0,,4,,,76,127
67765,note_off,0,0,0,,1,,,61,127
67766,note_on,1,0,0,,2,,,62,127
67766,note_on,0,0,0,,2,,,74,127
67865,note_off,99,0,0,,2,,,74,127
67866,note_on,1,0,0,,1,,,73,127
67965,note_off,99,0,0,,1,,,73,127
67965,note_off,0,0,0,,2,,,62,127
67966,note_on,1,0,0,,4,,,64,127
67966,note_on,0,0,0,,12,,,71,127
68065,note_off,99,0,0,,12,,,71,127
68066,note_on,1,0,0,,10,,,69,127
68165,note_off,99,0,0,,10,,,69,127
68165,note_off,0,0,0,,4,,,64,127
68166,note_on,1,0,0,,4,,,52,127
68166,note_on,0,0,0,,8,,,68,127
68265,note_off,99,0,0,,8,,,68,127
68266,note_on,1,0,0,,12,,,71,127
68365,note_off,99,0,0,,12,,,71,127
68365,note_off,0,0,0,,4,,,52,127
68366,note_on,1,0,0,,10,,,69,127
68369,note_on,3,0,0,,10,,,57,127
68468,note_off,99,0,0,,10,,,57,127
68483,note_on,15,0,0,,4,,,64,127
68565,note_off,82,0,0,,10,,,69,127
68582,note_off,17,0,0,,4,,,64,127
68583,note_on,1,0,0,,1,,,73,127
68583,note_on,0,0,0,,10,,,69,127
68682,note_off,99,0,0,,10,,,69,127
68683,note_on,1,0,0,,8,,,68,127
68782,note_off,99,0,0,,8,,,68,127
68782,note_off,0,0,0,,1,,,73,127
68783,note_on,1,0,0,,10,,,69,127
68783,note_on,0,0,0,,1,,,73,127
68783,note_on,0,0,0,,6,,,66,127
68882,note_off,99,0,0,,6,,,66,127
68883,note_on,1,0,0,,4,,,64,127
68982,note_off,99,0,0,,4,,,64,127
68982,note_off,0,0,0,,1,,,73,127
68982,note_off,0,0,0,,10,,,69,127
68983,note_on,1,0,0,,1,,,73,127
68983,note_on,0,0,0,,10,,,69,127
68983,note_on,0,0,0,,2,,,62,127
69082,note_off,99,0,0,,2,,,62,127
69083,note_on,1,0,0,,1,,,61,127
69182,note_off,99,0,0,,1,,,61,127
69182,note_off,0,0,0,,10,,,69,127
69182,note_off,0,0,0,,1,,,73,127
69183,note_on,1,0,0,,12,,,71,127
69183,note_on,0,0,0,,2,,,74,127
69183,note_on,0,0,0,,12,,,59,127
69282,note_off,99,0,0,,12,,,59,127
69283,note_on,1,0,0,,10,,,57,127
69382,note_off,99,0,0,,10,,,57,127
69382,note_off,0,0,0,,2,,,74,127
69382,note_off,0,0,0,,12,,,71,127
69383,note_on,1,0,0,,12,,,71,127
69383,note_on,0,0,0,,2,,,74,127
69383,note_on,0,0,0,,8,,,56,127
69482,note_off,99,0,0,,8,,,56,127
69483,note_on,1,0,0,,6,,,54,127
69582,note_off,99,0,0,,6,,,54,127
69582,note_off,0,0,0,,2,,,74,127
69582,note_off,0,0,0,,12,,,71,127
69583,note_on,1,0,0,,2,,,74,127
69583,note_on,0,0,0,,12,,,71,127
69583,note_on,0,0,0,,4,,,52,127
69682,note_off,99,0,0,,4,,,52,127
69683,note_on,1,0,0,,2,,,50,127
69782,note_off,99,0,0,,2,,,50,127
69782,note_off,0,0,0,,12,,,71,127
69782,note_off,0,0,0,,2,,,74,127
69783,note_on,1,0,0,,10,,,69,127
69783,note_on,0,0,0,,1,,,73,127
69783,note_on,0,0,0,,1,,,49,127
69882,note_off,99,0,0,,1,,,49,127
69882,note_off,0,0,0,,1,,,73,127
69882,note_off,0,0,0,,10,,,69,127
69883,note_on,1,0,0,,12,,,71,127
69883,note_on,0,0,0,,2,,,74,127
69883,note_on,0,0,0,,12,,,47,127
69982,note_off,99,0,0,,12,,,47,127
69982,note_off,0,0,0,,2,,,74,127
69982,note_off,0,0,0,,12,,,71,127
69983,note_on,1,0,0,,4,,,76,127
69983,note_on,0,0,0,,1,,,73,127
69983,note_on,0,0,0,,10,,,45,127
70182,note_off,199,0,0,,10,,,45,127
70182,note_off,0,0,0,,1,,,73,127
70182,note_off,0,0,0,,4,,,76,127
70183,note_on,1,0,0,,6,,,78,127
70183,note_on,0,0,0,,2,,,74,127
70183,note_on,0,0,0,,2,,,50,127
70382,note_off,199,0,0,,2,,,50,127
70382,note_off,0,0,0,,2,,,74,127
70382,note_off,0,0,0,,6,,,78,127
70383,note_on,1,0,0,,1,,,73,127
70383,note_on,0,0,0,,4,,,76,127
70383,note_on,0,0,0,,4,,,52,127
70482,note_off,99,0,0,,4,,,76,127
70482,note_off,0,0,0,,1,,,73,127
70483,note_on,1,0,0,,12,,,71,127
70483,note_on,0,0,0,,2,,,74,127
70582,note_off,99,0,0,,2,,,74,127
70582,note_off,0,0,0,,12,,,71,127
70582,note_off,0,0,0,,4,,,52,127
70583,note_on,1,0,0,,1,,,73,127
70583,note_on,0,0,0,,10,,,69,127
70583,note_on,0,0,0,,4,,,40,127
70682,note_off,99,0,0,,10,,,69,127
70682,note_off,0,0,0,,1,,,73,127
70683,note_on,1,0,0,,8,,,68,127
70683,note_on,0,0,0,,12,,,71,127
70782,note_off,99,0,0,,12,,,71,127
70782,note_off,0,0,0,,8,,,68,127
70782,note_off,0,0,0,,4,,,40,127
70783,note_on,1,0,0,,10,,,69,127
70783,note_on,0,0,0,,10,,,45,127
70882,note_off,99,0,0,,10,,,45,127
70895,note_on,13,0,0,,4,,,52,127
70971,note_off,76,0,0,,10,,,69,127
70994,note_off,23,0,0,,4,,,52,127
71000,note_on,6,0,0,,10,,,57,127
71000,note_on,0,0,0,,1,,,73,127
71000,note_on,0,0,0,,10,,,69,127
71099,note_off,99,0,0,,10,,,57,127
71100,note_on,1,0,0,,8,,,56,127
71199,note_off,99,0,0,,8,,,56,127
71199,note_off,0,0,0,,10,,,69,127
71199,note_off,0,0,0,,1,,,73,127
71200,note_on,1,0,0,,6,,,54,127
71200,note_on,0,0,0,,10,,,69,127
71200,note_on,0,0,0,,1,,,73,127
71299,note_off,99,0,0,,6,,,54,127
71300,note_on,1,0,0,,4,,,52,127
71399,note_off,99,0,0,,4,,,52,127
71399,note_off,0,0,0,,1,,,73,127
71399,note_off,0,0,0,,10,,,69,127
71400,note_on,1,0,0,,2,,,50,127
71400,note_on,0,0,0,,1,,,73,127
71400,note_on,0,0,0,,10,,,69,127
71499,note_off,99,0,0,,2,,,50,127
71500,note_on,1,0,0,,1,,,49,127
71599,note_off,99,0,0,,1,,,49,127
71599,note_off,0,0,0,,10,,,69,127
71599,note_off,0,0,0,,1,,,73,127
71600,note_on,1,0,0,,12,,,47,127
71600,note_on,0,0,0,,12,,,71,127
71600,note_on,0,0,0,,2,,,74,127
71699,note_off,99,0,0,,12,,,47,127
71700,note_on,1,0,0,,10,,,45,127
71799,note_off,99,0,0,,10,,,45,127
71799,note_off,0,0,0,,2,,,74,127
71799,note_off,0,0,0,,12,,,71,127
71800,note_on,1,0,0,,8,,,44,127
71800,note_on,0,0,0,,12,,,71,127
71800,note_on,0,0,0,,2,,,74,127
71899,note_off,99,0,0,,8,,,44,127
71900,note_on,1,0,0,,6,,,42,127
71999,note_off,99,0,0,,6,,,42,127
71999,note_off,0,0,0,,2,,,74,127
71999,note_off,0,0,0,,12,,,71,127
72000,note_on,1,0,0,,4,,,40,127
72000,note_on,0,0,0,,2,,,74,127
72000,note_on,0,0,0,,12,,,71,127
72099,note_off,99,0,0,,4,,,40,127
72100,note_on,1,0,0,,2,,,38,127
72199,note_off,99,0,0,,2,,,38,127
72199,note_off,0,0,0,,12,,,71,127
72199,note_off,0,0,0,,2,,,74,127
72200,note_on,1,0,0,,1,,,37,127
72200,note_on,0,0,0,,1,,,73,127
72200,note_on,0,0,0,,10,,,69,127
72299,note_off,99,0,0,,10,,,69,127
72299,note_off,0,0,0,,1,,,73,127
72299,note_off,0,0,0,,1,,,37,127
72300,note_on,1,0,0,,12,,,35,127
72300,note_on,0,0,0,,12,,,71,127
72300,note_on,0,0,0,,2,,,74,127
72399,note_off,99,0,0,,2,,,74,127
72399,note_off,0,0,0,,12,,,71,127
72399,note_off,0,0,0,,12,,,35,127
72400,note_on,1,0,0,,10,,,33,127
72400,note_on,0,0,0,,1,,,73,127
72400,note_on,0,0,0,,4,,,76,127
72599,note_off,199,0,0,,4,,,76,127
72599,note_off,0,0,0,,1,,,73,127
72599,note_off,0,0,0,,10,,,33,127
72600,note_on,1,0,0,,2,,,38,127
72600,note_on,0,0,0,,6,,,78,127
72600,note_on,0,0,0,,2,,,74,127
72799,note_off,199,0,0,,2,,,74,127
72799,note_off,0,0,0,,6,,,78,127
72799,note_off,0,0,0,,2,,,38,127
72800,note_on,1,0,0,,4,,,40,127
72800,note_on,0,0,0,,4,,,76,127
72800,note_on,0,0,0,,1,,,73,127
72899,note_off,99,0,0,,1,,,73,127
72899,note_off,0,0,0,,4,,,76,127
72900,note_on,1,0,0,,12,,,71,127
72900,note_on,0,0,0,,2,,,74,127
72999,note_off,99,0,0,,2,,,74,127
72999,note_off,0,0,0,,12,,,71,127
72999,note_off,0,0,0,,4,,,40,127
73003,note_on,4,0,0,,4,,,40,127
73003,note_on,0,0,0,,10,,,69,127
73003,note_on,0,0,0,,1,,,73,127
73115,note_off,112,0,0,,1,,,73,127
73115,note_off,0,0,0,,10,,,69,127
73121,note_on,6,0,0,,8,,,68,127
73121,note_on,0,0,0,,12,,,71,127
73204,note_off,83,0,0,,12,,,71,127
73204,note_off,0,0,0,,8,,,68,127
73221,note_off,17,0,0,,4,,,40,127
73229,note_on,8,0,0,,10,,,45,127
73229,note_on,0,0,0,,10,,,33,127
73229,note_on,0,0,0,,1,,,73,127
73229,note_on,0,0,0,,10,,,81,127
73417,note_off,188,0,0,,10,,,33,127
73417,note_off,0,0,0,,10,,,45,127
73434,note_on,17,0,0,,2,,,50,127
73434,note_on,0,0,0,,2,,,38,127
73529,note_off,95,0,0,,10,,,81,127
73529,note_off,0,0,0,,1,,,73,127
73534,note_on,5,0,0,,12,,,83,127
73534,note_on,0,0,0,,2,,,74,127
73622,note_off,88,0,0,,2,,,38,127
73622,note_off,0,0,0,,2,,,50,127
73633,note_off,11,0,0,,2,,,74,127
73633,note_off,0,0,0,,12,,,83,127
73634,note_on,1,0,0,,4,,,52,127
73634,note_on,0,0,0,,4,,,40,127
73634,note_on,0,0,0,,1,,,73,127
73634,note_on,0,0,0,,10,,,81,127
73733,note_off,99,0,0,,10,,,81,127
73733,note_off,0,0,0,,1,,,73,127
73734,note_on,1,0,0,,12,,,71,127
73734,note_on,0,0,0,,8,,,80,127
73822,note_off,88,0,0,,4,,,40,127
73822,note_off,0,0,0,,4,,,52,127
73833,note_off,11,0,0,,8,,,80,127
73833,note_off,0,0,0,,12,,,71,127
73834,note_on,1,0,0,,10,,,33,127
73834,note_on,0,0,0,,10,,,45,127
73834,note_on,0,0,0,,10,,,81,127
73834,note_on,0,0,0,,1,,,73,127
74022,note_off,188,0,0,,10,,,45,127
74022,note_off,0,0,0,,10,,,33,127
74035,note_on,13,0,0,,2,,,50,127
74035,note_on,0,0,0,,2,,,38,127
74134,note_off,99,0,0,,1,,,73,127
74134,note_off,0,0,0,,10,,,81,127
74135,note_on,1,0,0,,12,,,83,127
74135,note_on,0,0,0,,2,,,74,127
74223,note_off,88,0,0,,2,,,38,127
74223,note_off,0,0,0,,2,,,50,127
74234,note_off,11,0,0,,2,,,74,127
74234,note_off,0,0,0,,12,,,83,127
74235,note_on,1,0,0,,4,,,40,127
74235,note_on,0,0,0,,4,,,52,127
74235,note_on,0,0,0,,1,,,73,127
74235,note_on,0,0,0,,10,,,81,127
74334,note_off,99,0,0,,10,,,81,127
74334,note_off,0,0,0,,1,,,73,127
74335,note_on,1,0,0,,8,,,80,127
74335,note_on,0,0,0,,12,,,71,127
74423,note_off,88,0,0,,4,,,52,127
74423,note_off,0,0,0,,4,,,40,127
74434,note_off,11,0,0,,12,,,71,127
74434,note_off,0,0,0,,8,,,80,127
74435,note_on,1,0,0,,10,,,33,127
74435,note_on,0,0,0,,10,,,45,127
74435,note_on,0,0,0,,10,,,81,127
74435,note_on,0,0,0,,1,,,73,127
74623,note_off,188,0,0,,10,,,45,127
74623,note_off,0,0,0,,10,,,33,127
74636,note_on,13,0,0,,2,,,50,127
74636,note_on,0,0,0,,2,,,38,127
74735,note_off,99,0,0,,1,,,73,127
74735,note_off,0,0,0,,10,,,81,127
74736,note_on,1,0,0,,2,,,74,127
74736,note_on,0,0,0,,12,,,83,127
74824,note_off,88,0,0,,2,,,38,127
74824,note_off,0,0,0,,2,,,50,127
74835,note_off,11,0,0,,12,,,83,127
74835,note_off,0,0,0,,2,,,74,127
74836,note_on,1,0,0,,4,,,40,127
74836,note_on,0,0,0,,4,,,52,127
74836,note_on,0,0,0,,10,,,81,127
74836,note_on,0,0,0,,1,,,73,127
74935,note_off,99,0,0,,1,,,73,127
74935,note_off,0,0,0,,10,,,81,127
74936,note_on,1,0,0,,12,,,71,127
74936,note_on,0,0,0,,8,,,80,127
75024,note_off,88,0,0,,4,,,52,127
75024,note_off,0,0,0,,4,,,40,127
75035,note_off,11,0,0,,8,,,80,127
75035,note_off,0,0,0,,12,,,71,127
75036,note_on,1,0,0,,10,,,33,127
75036,note_on,0,0,0,,10,,,45,127
75036,note_on,0,0,0,,10,,,69,127
75036,note_on,0,0,0,,1,,,73,127
75135,note_off,99,0,0,,1,,,73,127
75135,note_off,0,0,0,,10,,,69,127
75136,note_on,1,0,0,,12,,,71,127
75136,note_on,0,0,0,,2,,,74,127
75224,note_off,88,0,0,,10,,,45,127
75224,note_off,0,0,0,,10,,,33,127
75235,note_off,11,0,0,,2,,,74,127
75235,note_off,0,0,0,,12,,,71,127
75236,note_on,1,0,0,,2,,,38,127
75236,note_on,0,0,0,,2,,,50,127
75236,note_on,0,0,0,,4,,,76,127
75236,note_on,0,0,0,,1,,,73,127
75335,note_off,99,0,0,,1,,,73,127
75335,note_off,0,0,0,,4,,,76,127
75336,note_on,1,0,0,,2,,,74,127
75336,note_on,0,0,0,,12,,,71,127
75424,note_off,88,0,0,,2,,,50,127
75424,note_off,0,0,0,,2,,,38,127
75435,note_off,11,0,0,,12,,,71,127
75435,note_off,0,0,0,,2,,,74,127
75436,note_on,1,0,0,,4,,,40,127
75436,note_on,0,0,0,,4,,,52,127
75436,note_on,0,0,0,,10,,,69,127
75436,note_on,0,0,0,,1,,,73,127
75535,note_off,99,0,0,,1,,,73,127
75535,note_off,0,0,0,,10,,,69,127
75536,note_on,1,0,0,,8,,,68,127
75536,note_on,0,0,0,,12,,,71,127
75624,note_off,88,0,0,,4,,,52,127
75624,note_off,0,0,0,,4,,,40,127
75635,note_off,11,0,0,,12,,,71,127
75635,note_off,0,0,0,,8,,,68,127
75636,note_on,1,0,0,,10,,,33,127
75636,note_on,0,0,0,,10,,,45,127
75636,note_on,0,0,0,,1,,,73,127
75636,note_on,0,0,0,,10,,,69,127
75735,note_off,99,0,0,,10,,,69,127
75735,note_off,0,0,0,,1,,,73,127
75736,note_on,1,0,0,,2,,,74,127
75736,note_on,0,0,0,,12,,,71,127
75824,note_off,88,0,0,,10,,,45,127
75824,note_off,0,0,0,,10,,,33,127
75835,note_off,11,0,0,,12,,,71,127
75835,note_off,0,0,0,,2,,,74,127
75836,note_on,1,0,0,,2,,,38,127
75836,note_on,0,0,0,,2,,,50,127
75836,note_on,0,0,0,,4,,,76,127
75836,note_on,0,0,0,,1,,,73,127
75935,note_off,99,0,0,,1,,,73,127
75935,note_off,0,0,0,,4,,,76,127
75936,note_on,1,0,0,,12,,,71,127
75936,note_on,0,0,0,,2,,,74,127
76024,note_off,88,0,0,,2,,,50,127
76024,note_off,0,0,0,,2,,,38,127
76035,note_off,11,0,0,,2,,,74,127
76035,note_off,0,0,0,,12,,,71,127
76036,note_on,1,0,0,,4,,,52,127
76036,note_on,0,0,0,,4,,,40,127
76036,note_on,0,0,0,,1,,,73,127
76036,note_on,0,0,0,,10,,,69,127
76135,note_off,99,0,0,,10,,,69,127
76135,note_off,0,0,0,,1,,,73,127
76136,note_on,1,0,0,,8,,,68,127
76136,note_on,0,0,0,,12,,,71,127
76224,note_off,88,0,0,,4,,,40,127
76224,note_off,0,0,0,,4,,,52,127
76235,note_off,11,0,0,,12,,,71,127
76235,note_off,0,0,0,,8,,,68,127
76236,note_on,1,0,0,,10,,,33,127
76236,note_on,0,0,0,,10,,,45,127
76236,note_on,0,0,0,,1,,,73,127
76236,note_on,0,0,0,,10,,,69,127
76335,note_off,99,0,0,,10,,,69,127
76335,note_off,0,0,0,,1,,,73,127
76336,note_on,1,0,0,,2,,,74,127
76336,note_on,0,0,0,,12,,,71,127
76424,note_off,88,0,0,,10,,,45,127
76424,note_off,0,0,0,,10,,,33,127
76435,note_off,11,0,0,,12,,,71,127
76435,note_off,0,0,0,,2,,,74,127
76436,note_on,1,0,0,,2,,,38,127
76436,note_on,0,0,0,,2,,,50,127
76436,note_on,0,0,0,,4,,,76,127
76436,note_on,0,0,0,,1,,,73,127
76535,note_off,99,0,0,,1,,,73,127
76535,note_off,0,0,0,,4,,,76,127
76536,note_on,1,0,0,,12,,,71,127
76536,note_on,0,0,0,,2,,,74,127
76624,note_off,88,0,0,,2,,,50,127
76624,note_off,0,0,0,,2,,,38,127
76635,note_off,11,0,0,,2,,,74,127
76635,note_off,0,0,0,,12,,,71,127
76636,note_on,1,0,0,,4,,,40,127
76636,note_on,0,0,0,,4,,,52,127
76636,note_on,0,0,0,,10,,,69,127
76636,note_on,0,0,0,,1,,,73,127
76735,note_off,99,0,0,,1,,,73,127
76735,note_off,0,0,0,,10,,,69,127
76736,note_on,1,0,0,,8,,,68,127
76736,note_on,0,0,0,,12,,,71,127
76824,note_off,88,0,0,,4,,,52,127
76824,note_off,0,0,0,,4,,,40,127
76835,note_off,11,0,0,,12,,,71,127
76835,note_off,0,0,0,,8,,,68,127
76853,note_on,18,0,0,,12,,,71,127
76853,note_on,0,0,0,,10,,,45,127
76853,note_on,0,0,0,,10,,,33,127
76902,note_off,49,0,0,,12,,,71,127
76903,note_on,1,0,0,,10,,,69,127
76952,note_off,49,0,0,,10,,,69,127
76953,note_on,1,0,0,,12,,,71,127
77002,note_off,49,0,0,,12,,,71,127
77003,note_on,1,0,0,,10,,,69,127
78464,note_off,1461,0,0,,10,,,69,127
78470,note_off,6,0,0,,10,,,33,127
78470,note_off,0,0,0,,10,,,45,127
82944,end_of_track,4474,1,0,,,,,,
