tick,type,time,meta,track,program,channel,pitch,tempo,note,velocity
0,copyright,0,1,0,,,,,,
0,program_change,0,0,0,6,0,,,,
0,pitchwheel,0,0,0,,0,0,,,
0,program_change,0,0,0,6,1,,,,
0,pitchwheel,0,0,0,,1,-590,,,
0,program_change,0,0,0,6,2,,,,
0,pitchwheel,0,0,0,,2,-272,,,
0,program_change,0,0,0,6,3,,,,
0,pitchwheel,0,0,0,,3,-353,,,
0,program_change,0,0,0,6,4,,,,
0,pitchwheel,0,0,0,,4,-560,,,
0,program_change,0,0,0,6,5,,,,
0,pitchwheel,0,0,0,,5,-80,,,
0,program_change,0,0,0,6,6,,,,
0,pitchwheel,0,0,0,,6,-625,,,
0,program_change,0,0,0,6,7,,,,
0,pitchwheel,0,0,0,,7,-130,,,
0,program_change,0,0,0,6,8,,,,
0,pitchwheel,0,0,0,,8,-512,,,
0,program_change,0,0,0,6,10,,,,
0,pitchwheel,0,0,0,,10,-464,,,
0,program_change,0,0,0,6,11,,,,
0,pitchwheel,0,0,0,,11,-208,,,
0,program_change,0,0,0,6,12,,,,
0,pitchwheel,0,0,0,,12,-553,,,
0,set_tempo,0,1,0,,,,500000,,
96,note_on,96,0,0,,7,,,79,127
286,note_off,190,0,0,,7,,,79,127
288,note_on,2,0,0,,7,,,67,127
478,note_off,190,0,0,,7,,,67,127
480,note_on,2,0,0,,12,,,71,127
670,note_off,190,0,0,,12,,,71,127
672,note_on,2,0,0,,4,,,76,127
862,note_off,190,0,0,,4,,,76,127
864,note_on,2,0,0,,4,,,64,127
1054,note_off,190,0,0,,4,,,64,127
1056,note_on,2,0,0,,7,,,67,127
1246,note_off,190,0,0,,7,,,67,127
1248,note_on,2,0,0,,0,,,72,127
1438,note_off,190,0,0,,0,,,72,127
1440,note_on,2,0,0,,0,,,60,127
1630,note_off,190,0,0,,0,,,60,127
1632,note_on,2,0,0,,4,,,64,127
1822,note_off,190,0,0,,4,,,64,127
1824,note_on,2,0,0,,2,,,62,127
1824,note_on,0,0,0,,0,,,72,127
2014,note_off,190,0,0,,0,,,72,127
2014,note_off,0,0,0,,2,,,62,127
2016,note_on,2,0,0,,4,,,64,127
2016,note_on,0,0,0,,12,,,71,127
2206,note_off,190,0,0,,12,,,71,127
2206,note_off,0,0,0,,4,,,64,127
2208,note_on,2,0,0,,6,,,66,127
2208,note_on,0,0,0,,10,,,69,127
2398,note_off,190,0,0,,10,,,69,127
2398,note_off,0,0,0,,6,,,66,127
2400,note_on,2,0,0,,7,,,67,127
2400,note_on,0,0,0,,12,,,71,127
2590,note_off,190,0,0,,7,,,67,127
2592,note_on,2,0,0,,7,,,55,127
2782,note_off,190,0,0,,7,,,55,127
2784,note_on,2,0,0,,12,,,59,127
2880,note_off,96,0,0,,12,,,71,127
2974,note_off,94,0,0,,12,,,59,127
2976,note_on,2,0,0,,4,,,64,127
3166,note_off,190,0,0,,4,,,64,127
3168,note_on,2,0,0,,4,,,52,127
3358,note_off,190,0,0,,4,,,52,127
3360,note_on,2,0,0,,7,,,55,127
3550,note_off,190,0,0,,7,,,55,127
3552,note_on,2,0,0,,0,,,60,127
3742,note_off,190,0,0,,0,,,60,127
3744,note_on,2,0,0,,0,,,48,127
3934,note_off,190,0,0,,0,,,48,127
3936,note_on,2,0,0,,4,,,52,127
4126,note_off,190,0,0,,4,,,52,127
4128,note_on,2,0,0,,2,,,50,127
4128,note_on,0,0,0,,0,,,60,127
4318,note_off,190,0,0,,0,,,60,127
4318,note_off,0,0,0,,2,,,50,127
4320,note_on,2,0,0,,12,,,59,127
4320,note_on,0,0,0,,4,,,52,127
4510,note_off,190,0,0,,4,,,52,127
4510,note_off,0,0,0,,12,,,59,127
4512,note_on,2,0,0,,6,,,54,127
4512,note_on,0,0,0,,10,,,57,127
4702,note_off,190,0,0,,10,,,57,127
4702,note_off,0,0,0,,6,,,54,127
4704,note_on,2,0,0,,12,,,59,127
4704,note_on,0,0,0,,7,,,55,127
4896,note_on,192,0,0,,7,,,79,127
5086,note_off,190,0,0,,7,,,79,127
5088,note_on,2,0,0,,12,,,71,127
5278,note_off,190,0,0,,12,,,71,127
5278,note_off,0,0,0,,7,,,55,127
5278,note_off,0,0,0,,12,,,59,127
5280,note_on,2,0,0,,4,,,52,127
5280,note_on,0,0,0,,7,,,55,127
5280,note_on,0,0,0,,12,,,71,127
5470,note_off,190,0,0,,12,,,71,127
5470,note_off,0,0,0,,4,,,52,127
5472,note_on,2,0,0,,2,,,50,127
5472,note_on,0,0,0,,6,,,54,127
5472,note_on,0,0,0,,2,,,74,127
5534,note_off,62,0,0,,2,,,74,127
5536,note_on,2,0,0,,0,,,72,127
5598,note_off,62,0,0,,0,,,72,127
5600,note_on,2,0,0,,2,,,74,127
5662,note_off,62,0,0,,2,,,74,127
5662,note_off,0,0,0,,6,,,54,127
5662,note_off,0,0,0,,2,,,50,127
5664,note_on,2,0,0,,0,,,48,127
5664,note_on,0,0,0,,4,,,52,127
5664,note_on,0,0,0,,0,,,72,127
5726,note_off,62,0,0,,0,,,72,127
5728,note_on,2,0,0,,12,,,71,127
5790,note_off,62,0,0,,12,,,71,127
5792,note_on,2,0,0,,0,,,72,127
5854,note_off,62,0,0,,0,,,72,127
5854,note_off,0,0,0,,4,,,52,127
5854,note_off,0,0,0,,0,,,48,127
5855,note_off,1,0,0,,7,,,55,127
5856,note_on,1,0,0,,12,,,47,127
5856,note_on,0,0,0,,7,,,55,127
5856,note_on,0,0,0,,2,,,50,127
5856,note_on,0,0,0,,2,,,74,127
6046,note_off,190,0,0,,2,,,74,127
6048,note_on,2,0,0,,7,,,79,127
6238,note_off,190,0,0,,7,,,79,127
6240,note_on,2,0,0,,7,,,67,127
6430,note_off,190,0,0,,7,,,67,127
6430,note_off,0,0,0,,2,,,50,127
6430,note_off,0,0,0,,7,,,55,127
6430,note_off,0,0,0,,12,,,47,127
6432,note_on,2,0,0,,0,,,48,127
6432,note_on,0,0,0,,4,,,52,127
6432,note_on,0,0,0,,7,,,55,127
6432,note_on,0,0,0,,7,,,67,127
6622,note_off,190,0,0,,7,,,67,127
6622,note_off,0,0,0,,4,,,52,127
6622,note_off,0,0,0,,0,,,48,127
6624,note_on,2,0,0,,12,,,47,127
6624,note_on,0,0,0,,2,,,50,127
6624,note_on,0,0,0,,12,,,71,127
6686,note_off,62,0,0,,12,,,71,127
6688,note_on,2,0,0,,10,,,69,127
6750,note_off,62,0,0,,10,,,69,127
6752,note_on,2,0,0,,12,,,71,127
6814,note_off,62,0,0,,12,,,71,127
6814,note_off,0,0,0,,2,,,50,127
6814,note_off,0,0,0,,12,,,47,127
6816,note_on,2,0,0,,10,,,45,127
6816,note_on,0,0,0,,0,,,48,127
6816,note_on,0,0,0,,10,,,69,127
6878,note_off,62,0,0,,10,,,69,127
6880,note_on,2,0,0,,7,,,67,127
6942,note_off,62,0,0,,7,,,67,127
6944,note_on,2,0,0,,10,,,69,127
7006,note_off,62,0,0,,10,,,69,127
7006,note_off,0,0,0,,0,,,48,127
7006,note_off,0,0,0,,10,,,45,127
7007,note_off,1,0,0,,7,,,55,127
7008,note_on,1,0,0,,12,,,47,127
7008,note_on,0,0,0,,7,,,43,127
7008,note_on,0,0,0,,7,,,55,127
7008,note_on,0,0,0,,12,,,71,127
7198,note_off,190,0,0,,12,,,71,127
7200,note_on,2,0,0,,7,,,79,127
7390,note_off,190,0,0,,7,,,79,127
7392,note_on,2,0,0,,12,,,71,127
7582,note_off,190,0,0,,12,,,71,127
7582,note_off,0,0,0,,7,,,55,127
7582,note_off,0,0,0,,7,,,43,127
7582,note_off,0,0,0,,12,,,47,127
7584,note_on,2,0,0,,4,,,52,127
7584,note_on,0,0,0,,7,,,55,127
7584,note_on,0,0,0,,12,,,71,127
7774,note_off,190,0,0,,12,,,71,127
7774,note_off,0,0,0,,4,,,52,127
7776,note_on,2,0,0,,6,,,54,127
7776,note_on,0,0,0,,2,,,50,127
7776,note_on,0,0,0,,2,,,74,127
7838,note_off,62,0,0,,2,,,74,127
7840,note_on,2,0,0,,0,,,72,127
7902,note_off,62,0,0,,0,,,72,127
7904,note_on,2,0,0,,2,,,74,127
7966,note_off,62,0,0,,2,,,74,127
7966,note_off,0,0,0,,2,,,50,127
7966,note_off,0,0,0,,6,,,54,127
7968,note_on,2,0,0,,4,,,52,127
7968,note_on,0,0,0,,0,,,48,127
7968,note_on,0,0,0,,0,,,72,127
8030,note_off,62,0,0,,0,,,72,127
8032,note_on,2,0,0,,12,,,71,127
8064,note_off,32,0,0,,7,,,55,127
8094,note_off,30,0,0,,12,,,71,127
8096,note_on,2,0,0,,0,,,72,127
8158,note_off,62,0,0,,0,,,72,127
8158,note_off,0,0,0,,0,,,48,127
8158,note_off,0,0,0,,4,,,52,127
8160,note_on,2,0,0,,12,,,47,127
8160,note_on,0,0,0,,7,,,55,127
8160,note_on,0,0,0,,2,,,50,127
8160,note_on,0,0,0,,2,,,74,127
8350,note_off,190,0,0,,2,,,74,127
8352,note_on,2,0,0,,7,,,79,127
8542,note_off,190,0,0,,7,,,79,127
8544,note_on,2,0,0,,7,,,67,127
8640,note_off,96,0,0,,7,,,55,127
8734,note_off,94,0,0,,7,,,67,127
8734,note_off,0,0,0,,2,,,50,127
8734,note_off,0,0,0,,12,,,47,127
8736,note_on,2,0,0,,0,,,48,127
8736,note_on,0,0,0,,7,,,55,127
8736,note_on,0,0,0,,4,,,52,127
8736,note_on,0,0,0,,7,,,67,127
8926,note_off,190,0,0,,7,,,67,127
8926,note_off,0,0,0,,4,,,52,127
8926,note_off,0,0,0,,0,,,48,127
8928,note_on,2,0,0,,2,,,50,127
8928,note_on,0,0,0,,12,,,47,127
8928,note_on,0,0,0,,12,,,71,127
8990,note_off,62,0,0,,12,,,71,127
8992,note_on,2,0,0,,10,,,69,127
9054,note_off,62,0,0,,10,,,69,127
9056,note_on,2,0,0,,12,,,71,127
9118,note_off,62,0,0,,12,,,71,127
9118,note_off,0,0,0,,12,,,47,127
9118,note_off,0,0,0,,2,,,50,127
9120,note_on,2,0,0,,0,,,48,127
9120,note_on,0,0,0,,10,,,45,127
9120,note_on,0,0,0,,10,,,69,127
9182,note_off,62,0,0,,10,,,69,127
9184,note_on,2,0,0,,7,,,67,127
9216,note_off,32,0,0,,7,,,55,127
9246,note_off,30,0,0,,7,,,67,127
9248,note_on,2,0,0,,10,,,69,127
9310,note_off,62,0,0,,10,,,69,127
9310,note_off,0,0,0,,10,,,45,127
9310,note_off,0,0,0,,0,,,48,127
9312,note_on,2,0,0,,12,,,47,127
9312,note_on,0,0,0,,7,,,43,127
9312,note_on,0,0,0,,7,,,55,127
9312,note_on,0,0,0,,12,,,71,127
9502,note_off,190,0,0,,12,,,71,127
9504,note_on,2,0,0,,2,,,74,127
9504,note_on,0,0,0,,7,,,67,127
9694,note_off,190,0,0,,7,,,67,127
9696,note_on,2,0,0,,6,,,66,127
9792,note_off,96,0,0,,7,,,55,127
9884,note_off,92,0,0,,2,,,74,127
9886,note_off,2,0,0,,6,,,66,127
9886,note_off,0,0,0,,7,,,43,127
9886,note_off,0,0,0,,12,,,47,127
9888,note_on,2,0,0,,7,,,43,127
9888,note_on,0,0,0,,4,,,64,127
9888,note_on,0,0,0,,0,,,72,127
10078,note_off,190,0,0,,0,,,72,127
10078,note_off,0,0,0,,4,,,64,127
10080,note_on,2,0,0,,12,,,71,127
10080,note_on,0,0,0,,2,,,62,127
10270,note_off,190,0,0,,2,,,62,127
10270,note_off,0,0,0,,12,,,71,127
10272,note_on,2,0,0,,0,,,60,127
10272,note_on,0,0,0,,10,,,69,127
10462,note_off,190,0,0,,10,,,69,127
10462,note_off,0,0,0,,0,,,60,127
10462,note_off,0,0,0,,7,,,43,127
10464,note_on,2,0,0,,7,,,43,127
10464,note_on,0,0,0,,12,,,59,127
10464,note_on,0,0,0,,7,,,67,127
10654,note_off,190,0,0,,7,,,67,127
10654,note_off,0,0,0,,12,,,59,127
10656,note_on,2,0,0,,2,,,74,127
10656,note_on,0,0,0,,7,,,67,127
10846,note_off,190,0,0,,7,,,67,127
10848,note_on,2,0,0,,6,,,66,127
11036,note_off,188,0,0,,2,,,74,127
11038,note_off,2,0,0,,6,,,66,127
11038,note_off,0,0,0,,7,,,43,127
11040,note_on,2,0,0,,7,,,43,127
11040,note_on,0,0,0,,0,,,72,127
11040,note_on,0,0,0,,4,,,64,127
11230,note_off,190,0,0,,4,,,64,127
11230,note_off,0,0,0,,0,,,72,127
11232,note_on,2,0,0,,2,,,62,127
11232,note_on,0,0,0,,12,,,71,127
11422,note_off,190,0,0,,12,,,71,127
11422,note_off,0,0,0,,2,,,62,127
11424,note_on,2,0,0,,0,,,60,127
11424,note_on,0,0,0,,10,,,69,127
11614,note_off,190,0,0,,10,,,69,127
11614,note_off,0,0,0,,0,,,60,127
11614,note_off,0,0,0,,7,,,43,127
11616,note_on,2,0,0,,7,,,43,127
11616,note_on,0,0,0,,12,,,59,127
11616,note_on,0,0,0,,7,,,67,127
11806,note_off,190,0,0,,7,,,67,127
11806,note_off,0,0,0,,12,,,59,127
11806,note_off,0,0,0,,7,,,43,127
11808,note_on,2,0,0,,2,,,62,127
11808,note_on,0,0,0,,7,,,55,127
11998,note_off,190,0,0,,7,,,55,127
12000,note_on,2,0,0,,6,,,54,127
12188,note_off,188,0,0,,2,,,62,127
12190,note_off,2,0,0,,6,,,54,127
12192,note_on,2,0,0,,4,,,52,127
12192,note_on,0,0,0,,0,,,60,127
12192,note_on,0,0,0,,10,,,81,127
12254,note_off,62,0,0,,10,,,81,127
12256,note_on,2,0,0,,7,,,79,127
12318,note_off,62,0,0,,7,,,79,127
12320,note_on,2,0,0,,10,,,81,127
12382,note_off,62,0,0,,10,,,81,127
12382,note_off,0,0,0,,0,,,60,127
12382,note_off,0,0,0,,4,,,52,127
12384,note_on,2,0,0,,12,,,59,127
12384,note_on,0,0,0,,2,,,50,127
12384,note_on,0,0,0,,7,,,79,127
12446,note_off,62,0,0,,7,,,79,127
12448,note_on,2,0,0,,10,,,81,127
12510,note_off,62,0,0,,10,,,81,127
12512,note_on,2,0,0,,7,,,79,127
12574,note_off,62,0,0,,7,,,79,127
12574,note_off,0,0,0,,2,,,50,127
12574,note_off,0,0,0,,12,,,59,127
12576,note_on,2,0,0,,0,,,48,127
12576,note_on,0,0,0,,10,,,57,127
12576,note_on,0,0,0,,10,,,81,127
12638,note_off,62,0,0,,10,,,81,127
12640,note_on,2,0,0,,7,,,79,127
12702,note_off,62,0,0,,7,,,79,127
12704,note_on,2,0,0,,10,,,81,127
12766,note_off,62,0,0,,10,,,81,127
12766,note_off,0,0,0,,10,,,57,127
12766,note_off,0,0,0,,0,,,48,127
12768,note_on,2,0,0,,7,,,55,127
12768,note_on,0,0,0,,12,,,47,127
12768,note_on,0,0,0,,7,,,79,127
12830,note_off,62,0,0,,7,,,79,127
12832,note_on,2,0,0,,10,,,81,127
12894,note_off,62,0,0,,10,,,81,127
12896,note_on,2,0,0,,7,,,79,127
12958,note_off,62,0,0,,7,,,79,127
12958,note_off,0,0,0,,12,,,47,127
12958,note_off,0,0,0,,7,,,55,127
12960,note_on,2,0,0,,2,,,62,127
12960,note_on,0,0,0,,7,,,55,127
12960,note_on,0,0,0,,10,,,81,127
13022,note_off,62,0,0,,10,,,81,127
13024,note_on,2,0,0,,7,,,79,127
13086,note_off,62,0,0,,7,,,79,127
13088,note_on,2,0,0,,10,,,81,127
13150,note_off,62,0,0,,10,,,81,127
13150,note_off,0,0,0,,7,,,55,127
13152,note_on,2,0,0,,6,,,54,127
13152,note_on,0,0,0,,7,,,79,127
13214,note_off,62,0,0,,7,,,79,127
13216,note_on,2,0,0,,10,,,81,127
13278,note_off,62,0,0,,10,,,81,127
13280,note_on,2,0,0,,7,,,79,127
13340,note_off,60,0,0,,2,,,62,127
13342,note_off,2,0,0,,7,,,79,127
13342,note_off,0,0,0,,6,,,54,127
13344,note_on,2,0,0,,0,,,60,127
13344,note_on,0,0,0,,4,,,52,127
13344,note_on,0,0,0,,10,,,81,127
13406,note_off,62,0,0,,10,,,81,127
13408,note_on,2,0,0,,7,,,79,127
13470,note_off,62,0,0,,7,,,79,127
13472,note_on,2,0,0,,10,,,81,127
13534,note_off,62,0,0,,10,,,81,127
13534,note_off,0,0,0,,4,,,52,127
13534,note_off,0,0,0,,0,,,60,127
13536,note_on,2,0,0,,12,,,59,127
13536,note_on,0,0,0,,2,,,50,127
13536,note_on,0,0,0,,7,,,79,127
13598,note_off,62,0,0,,7,,,79,127
13600,note_on,2,0,0,,10,,,81,127
13662,note_off,62,0,0,,10,,,81,127
13664,note_on,2,0,0,,7,,,79,127
13726,note_off,62,0,0,,7,,,79,127
13726,note_off,0,0,0,,2,,,50,127
13726,note_off,0,0,0,,12,,,59,127
13728,note_on,2,0,0,,0,,,48,127
13728,note_on,0,0,0,,10,,,57,127
13728,note_on,0,0,0,,10,,,81,127
13790,note_off,62,0,0,,10,,,81,127
13792,note_on,2,0,0,,7,,,79,127
13854,note_off,62,0,0,,7,,,79,127
13856,note_on,2,0,0,,10,,,81,127
13918,note_off,62,0,0,,10,,,81,127
13918,note_off,0,0,0,,10,,,57,127
13918,note_off,0,0,0,,0,,,48,127
13920,note_on,2,0,0,,7,,,55,127
13920,note_on,0,0,0,,12,,,47,127
13920,note_on,0,0,0,,7,,,79,127
14110,note_off,190,0,0,,7,,,79,127
14110,note_off,0,0,0,,12,,,47,127
14110,note_off,0,0,0,,7,,,55,127
14112,note_on,2,0,0,,8,,,80,127
14112,note_on,0,0,0,,5,,,77,127
14302,note_off,190,0,0,,5,,,77,127
14302,note_off,0,0,0,,8,,,80,127
14304,note_on,2,0,0,,10,,,81,127
14304,note_on,0,0,0,,4,,,76,127
14494,note_off,190,0,0,,4,,,76,127
14494,note_off,0,0,0,,10,,,81,127
14496,note_on,2,0,0,,8,,,56,127
14496,note_on,0,0,0,,12,,,47,127
14496,note_on,0,0,0,,12,,,83,127
14496,note_on,0,0,0,,2,,,74,127
14686,note_off,190,0,0,,2,,,74,127
14688,note_on,2,0,0,,0,,,72,127
14878,note_off,190,0,0,,0,,,72,127
14880,note_on,2,0,0,,12,,,71,127
15070,note_off,190,0,0,,12,,,71,127
15070,note_off,0,0,0,,12,,,47,127
15070,note_off,0,0,0,,8,,,56,127
15071,note_off,1,0,0,,12,,,83,127
15072,note_on,1,0,0,,10,,,45,127
15072,note_on,0,0,0,,10,,,57,127
15072,note_on,0,0,0,,0,,,84,127
15072,note_on,0,0,0,,0,,,72,127
15262,note_off,190,0,0,,0,,,72,127
15262,note_off,0,0,0,,0,,,84,127
15264,note_on,2,0,0,,5,,,77,127
15264,note_on,0,0,0,,8,,,80,127
15454,note_off,190,0,0,,8,,,80,127
15454,note_off,0,0,0,,5,,,77,127
15456,note_on,2,0,0,,4,,,76,127
15456,note_on,0,0,0,,10,,,81,127
15552,note_off,96,0,0,,10,,,57,127
15552,note_off,0,0,0,,10,,,45,127
15646,note_off,94,0,0,,10,,,81,127
15646,note_off,0,0,0,,4,,,76,127
15648,note_on,2,0,0,,8,,,56,127
15648,note_on,0,0,0,,12,,,47,127
15648,note_on,0,0,0,,2,,,74,127
15648,note_on,0,0,0,,12,,,83,127
15838,note_off,190,0,0,,2,,,74,127
15840,note_on,2,0,0,,0,,,72,127
16030,note_off,190,0,0,,0,,,72,127
16032,note_on,2,0,0,,12,,,71,127
16222,note_off,190,0,0,,12,,,71,127
16222,note_off,0,0,0,,12,,,47,127
16222,note_off,0,0,0,,8,,,56,127
16223,note_off,1,0,0,,12,,,83,127
16224,note_on,1,0,0,,10,,,45,127
16224,note_on,0,0,0,,10,,,57,127
16224,note_on,0,0,0,,0,,,72,127
16224,note_on,0,0,0,,0,,,84,127
16414,note_off,190,0,0,,0,,,84,127
16414,note_off,0,0,0,,0,,,72,127
16416,note_on,2,0,0,,0,,,72,127
16416,note_on,0,0,0,,3,,,75,127
16606,note_off,190,0,0,,3,,,75,127
16606,note_off,0,0,0,,0,,,72,127
16608,note_on,2,0,0,,4,,,76,127
16608,note_on,0,0,0,,12,,,71,127
16704,note_off,96,0,0,,10,,,57,127
16704,note_off,0,0,0,,10,,,45,127
16798,note_off,94,0,0,,12,,,71,127
16798,note_off,0,0,0,,4,,,76,127
16800,note_on,2,0,0,,6,,,54,127
16800,note_on,0,0,0,,10,,,57,127
16800,note_on,0,0,0,,12,,,59,127
16800,note_on,0,0,0,,6,,,78,127
16800,note_on,0,0,0,,10,,,69,127
16990,note_off,190,0,0,,10,,,69,127
16992,note_on,2,0,0,,7,,,67,127
17182,note_off,190,0,0,,7,,,67,127
17184,note_on,2,0,0,,6,,,66,127
17374,note_off,190,0,0,,6,,,66,127
17374,note_off,0,0,0,,12,,,59,127
17374,note_off,0,0,0,,10,,,57,127
17374,note_off,0,0,0,,6,,,54,127
17375,note_off,1,0,0,,6,,,78,127
17376,note_on,1,0,0,,7,,,55,127
17376,note_on,0,0,0,,4,,,52,127
17376,note_on,0,0,0,,12,,,59,127
17376,note_on,0,0,0,,7,,,79,127
17376,note_on,0,0,0,,7,,,67,127
17566,note_off,190,0,0,,7,,,67,127
17566,note_off,0,0,0,,7,,,79,127
17568,note_on,2,0,0,,3,,,75,127
17568,note_on,0,0,0,,0,,,72,127
17758,note_off,190,0,0,,0,,,72,127
17758,note_off,0,0,0,,3,,,75,127
17760,note_on,2,0,0,,12,,,71,127
17760,note_on,0,0,0,,4,,,76,127
17906,note_off,146,0,0,,12,,,59,127
17906,note_off,0,0,0,,4,,,52,127
17906,note_off,0,0,0,,7,,,55,127
17950,note_off,44,0,0,,4,,,76,127
17950,note_off,0,0,0,,12,,,71,127
17952,note_on,2,0,0,,6,,,54,127
17952,note_on,0,0,0,,12,,,59,127
17952,note_on,0,0,0,,10,,,57,127
17952,note_on,0,0,0,,6,,,78,127
17952,note_on,0,0,0,,10,,,69,127
18142,note_off,190,0,0,,10,,,69,127
18144,note_on,2,0,0,,7,,,67,127
18334,note_off,190,0,0,,7,,,67,127
18336,note_on,2,0,0,,6,,,66,127
18526,note_off,190,0,0,,6,,,66,127
18526,note_off,0,0,0,,10,,,57,127
18526,note_off,0,0,0,,12,,,59,127
18526,note_off,0,0,0,,6,,,54,127
18527,note_off,1,0,0,,6,,,78,127
18528,note_on,1,0,0,,4,,,52,127
18528,note_on,0,0,0,,12,,,59,127
18528,note_on,0,0,0,,7,,,55,127
18528,note_on,0,0,0,,7,,,79,127
18528,note_on,0,0,0,,7,,,67,127
18718,note_off,190,0,0,,7,,,67,127
18718,note_off,0,0,0,,7,,,79,127
18720,note_on,2,0,0,,12,,,71,127
18720,note_on,0,0,0,,1,,,73,127
18910,note_off,190,0,0,,1,,,73,127
18910,note_off,0,0,0,,12,,,71,127
18912,note_on,2,0,0,,2,,,74,127
18912,note_on,0,0,0,,10,,,69,127
19058,note_off,146,0,0,,7,,,55,127
19058,note_off,0,0,0,,12,,,59,127
19058,note_off,0,0,0,,4,,,52,127
19102,note_off,44,0,0,,10,,,69,127
19102,note_off,0,0,0,,2,,,74,127
19104,note_on,2,0,0,,10,,,45,127
19104,note_on,0,0,0,,10,,,57,127
19104,note_on,0,0,0,,4,,,76,127
19104,note_on,0,0,0,,7,,,67,127
19294,note_off,190,0,0,,7,,,67,127
19296,note_on,2,0,0,,6,,,66,127
19486,note_off,190,0,0,,6,,,66,127
19488,note_on,2,0,0,,4,,,64,127
19678,note_off,190,0,0,,4,,,64,127
19678,note_off,0,0,0,,10,,,57,127
19678,note_off,0,0,0,,10,,,45,127
19679,note_off,1,0,0,,4,,,76,127
19680,note_on,1,0,0,,2,,,38,127
19680,note_on,0,0,0,,2,,,50,127
19680,note_on,0,0,0,,6,,,66,127
19680,note_on,0,0,0,,6,,,78,127
19774,note_off,94,0,0,,6,,,78,127
19774,note_off,0,0,0,,6,,,66,127
19776,note_on,2,0,0,,2,,,74,127
19870,note_off,94,0,0,,2,,,74,127
19872,note_on,2,0,0,,2,,,86,127
19966,note_off,94,0,0,,2,,,86,127
19968,note_on,2,0,0,,1,,,85,127
20062,note_off,94,0,0,,1,,,85,127
20064,note_on,2,0,0,,12,,,83,127
20158,note_off,94,0,0,,12,,,83,127
20160,note_on,2,0,0,,10,,,81,127
20254,note_off,94,0,0,,10,,,81,127
20254,note_off,0,0,0,,2,,,50,127
20254,note_off,0,0,0,,2,,,38,127
20256,note_on,2,0,0,,7,,,55,127
20256,note_on,0,0,0,,7,,,43,127
20256,note_on,0,0,0,,7,,,79,127
20350,note_off,94,0,0,,7,,,79,127
20352,note_on,2,0,0,,6,,,78,127
20446,note_off,94,0,0,,6,,,78,127
20448,note_on,2,0,0,,4,,,76,127
20542,note_off,94,0,0,,4,,,76,127
20544,note_on,2,0,0,,2,,,74,127
20638,note_off,94,0,0,,2,,,74,127
20640,note_on,2,0,0,,1,,,73,127
20734,note_off,94,0,0,,1,,,73,127
20736,note_on,2,0,0,,12,,,71,127
20830,note_off,94,0,0,,12,,,71,127
20830,note_off,0,0,0,,7,,,43,127
20830,note_off,0,0,0,,7,,,55,127
20832,note_on,2,0,0,,10,,,33,127
20832,note_on,0,0,0,,10,,,69,127
21024,note_on,192,0,0,,10,,,81,127
21086,note_off,62,0,0,,10,,,81,127
21088,note_on,2,0,0,,7,,,79,127
21150,note_off,62,0,0,,7,,,79,127
21152,note_on,2,0,0,,6,,,78,127
21214,note_off,62,0,0,,6,,,78,127
21216,note_on,2,0,0,,4,,,76,127
21406,note_off,190,0,0,,4,,,76,127
21406,note_off,0,0,0,,10,,,33,127
21407,note_off,1,0,0,,10,,,69,127
21408,note_on,1,0,0,,10,,,33,127
21408,note_on,0,0,0,,10,,,81,127
21408,note_on,0,0,0,,6,,,78,127
21598,note_off,190,0,0,,6,,,78,127
21598,note_off,0,0,0,,10,,,81,127
21600,note_on,2,0,0,,7,,,79,127
21600,note_on,0,0,0,,4,,,76,127
21790,note_off,190,0,0,,4,,,76,127
21790,note_off,0,0,0,,7,,,79,127
21792,note_on,2,0,0,,2,,,74,127
21792,note_on,0,0,0,,6,,,78,127
21982,note_off,190,0,0,,6,,,78,127
21982,note_off,0,0,0,,2,,,74,127
21982,note_off,0,0,0,,10,,,33,127
21984,note_on,2,0,0,,10,,,33,127
21984,note_on,0,0,0,,10,,,69,127
21984,note_on,0,0,0,,4,,,76,127
22174,note_off,190,0,0,,4,,,76,127
22176,note_on,2,0,0,,6,,,78,127
22238,note_off,62,0,0,,6,,,78,127
22240,note_on,2,0,0,,4,,,76,127
22302,note_off,62,0,0,,4,,,76,127
22304,note_on,2,0,0,,2,,,74,127
22364,note_off,60,0,0,,10,,,69,127
22366,note_off,2,0,0,,2,,,74,127
22368,note_on,2,0,0,,7,,,67,127
22368,note_on,0,0,0,,1,,,73,127
22558,note_off,190,0,0,,1,,,73,127
22558,note_off,0,0,0,,7,,,67,127
22558,note_off,0,0,0,,10,,,33,127
22560,note_on,2,0,0,,10,,,33,127
22560,note_on,0,0,0,,2,,,74,127
22560,note_on,0,0,0,,6,,,66,127
22750,note_off,190,0,0,,6,,,66,127
22750,note_off,0,0,0,,2,,,74,127
22752,note_on,2,0,0,,1,,,73,127
22752,note_on,0,0,0,,4,,,64,127
22942,note_off,190,0,0,,4,,,64,127
22942,note_off,0,0,0,,1,,,73,127
22944,note_on,2,0,0,,2,,,62,127
22944,note_on,0,0,0,,2,,,74,127
23134,note_off,190,0,0,,2,,,74,127
23134,note_off,0,0,0,,2,,,62,127
23134,note_off,0,0,0,,10,,,33,127
23136,note_on,2,0,0,,10,,,57,127
23136,note_on,0,0,0,,4,,,76,127
23136,note_on,0,0,0,,10,,,69,127
23326,note_off,190,0,0,,10,,,69,127
23326,note_off,0,0,0,,4,,,76,127
23328,note_on,2,0,0,,10,,,69,127
23390,note_off,62,0,0,,10,,,69,127
23392,note_on,2,0,0,,7,,,67,127
23454,note_off,62,0,0,,7,,,67,127
23456,note_on,2,0,0,,6,,,66,127
23518,note_off,62,0,0,,6,,,66,127
23520,note_on,2,0,0,,4,,,64,127
23710,note_off,190,0,0,,4,,,64,127
23711,note_off,1,0,0,,10,,,57,127
23712,note_on,1,0,0,,6,,,66,127
23712,note_on,0,0,0,,10,,,69,127
23712,note_on,0,0,0,,12,,,83,127
23758,note_off,46,0,0,,12,,,83,127
23760,note_on,2,0,0,,10,,,81,127
23806,note_off,46,0,0,,10,,,81,127
23808,note_on,2,0,0,,12,,,83,127
23854,note_off,46,0,0,,12,,,83,127
23856,note_on,2,0,0,,10,,,81,127
23902,note_off,46,0,0,,10,,,69,127
23902,note_off,0,0,0,,6,,,66,127
23904,note_on,2,0,0,,4,,,64,127
23904,note_on,0,0,0,,7,,,67,127
24094,note_off,190,0,0,,7,,,67,127
24094,note_off,0,0,0,,4,,,64,127
24096,note_on,2,0,0,,6,,,66,127
24096,note_on,0,0,0,,2,,,62,127
24144,note_off,48,0,0,,10,,,81,127
24286,note_off,142,0,0,,2,,,62,127
24286,note_off,0,0,0,,6,,,66,127
24288,note_on,2,0,0,,4,,,64,127
24288,note_on,0,0,0,,10,,,57,127
24288,note_on,0,0,0,,12,,,83,127
24334,note_off,46,0,0,,12,,,83,127
24336,note_on,2,0,0,,10,,,81,127
24382,note_off,46,0,0,,10,,,81,127
24384,note_on,2,0,0,,12,,,83,127
24430,note_off,46,0,0,,12,,,83,127
24432,note_on,2,0,0,,10,,,81,127
24478,note_off,46,0,0,,4,,,64,127
24480,note_on,2,0,0,,6,,,66,127
24542,note_off,62,0,0,,6,,,66,127
24544,note_on,2,0,0,,4,,,64,127
24606,note_off,62,0,0,,4,,,64,127
24608,note_on,2,0,0,,2,,,62,127
24668,note_off,60,0,0,,10,,,57,127
24670,note_off,2,0,0,,2,,,62,127
24672,note_on,2,0,0,,7,,,55,127
24672,note_on,0,0,0,,1,,,61,127
24720,note_off,48,0,0,,10,,,81,127
24862,note_off,142,0,0,,1,,,61,127
24862,note_off,0,0,0,,7,,,55,127
24864,note_on,2,0,0,,6,,,54,127
24864,note_on,0,0,0,,2,,,62,127
24864,note_on,0,0,0,,12,,,83,127
24910,note_off,46,0,0,,12,,,83,127
24912,note_on,2,0,0,,10,,,81,127
24958,note_off,46,0,0,,10,,,81,127
24960,note_on,2,0,0,,12,,,83,127
25006,note_off,46,0,0,,12,,,83,127
25008,note_on,2,0,0,,10,,,81,127
25054,note_off,46,0,0,,2,,,62,127
25054,note_off,0,0,0,,6,,,54,127
25056,note_on,2,0,0,,1,,,61,127
25056,note_on,0,0,0,,4,,,52,127
25246,note_off,190,0,0,,4,,,52,127
25246,note_off,0,0,0,,1,,,61,127
25248,note_on,2,0,0,,2,,,50,127
25248,note_on,0,0,0,,2,,,62,127
25296,note_off,48,0,0,,10,,,81,127
25438,note_off,142,0,0,,2,,,62,127
25438,note_off,0,0,0,,2,,,50,127
25440,note_on,2,0,0,,10,,,45,127
25440,note_on,0,0,0,,10,,,57,127
25440,note_on,0,0,0,,12,,,83,127
25486,note_off,46,0,0,,12,,,83,127
25488,note_on,2,0,0,,10,,,81,127
25534,note_off,46,0,0,,10,,,81,127
25536,note_on,2,0,0,,12,,,83,127
25582,note_off,46,0,0,,12,,,83,127
25584,note_on,2,0,0,,10,,,81,127
25630,note_off,46,0,0,,10,,,81,127
25630,note_off,0,0,0,,10,,,57,127
25630,note_off,0,0,0,,10,,,45,127
25632,note_on,2,0,0,,10,,,57,127
25632,note_on,0,0,0,,10,,,69,127
25632,note_on,0,0,0,,10,,,81,127
25822,note_off,190,0,0,,10,,,81,127
25822,note_off,0,0,0,,10,,,69,127
25822,note_off,0,0,0,,10,,,57,127
25824,note_on,2,0,0,,7,,,67,127
25824,note_on,0,0,0,,7,,,55,127
25824,note_on,0,0,0,,7,,,79,127
26014,note_off,190,0,0,,7,,,79,127
26014,note_off,0,0,0,,7,,,55,127
26014,note_off,0,0,0,,7,,,67,127
26016,note_on,2,0,0,,6,,,66,127
26016,note_on,0,0,0,,6,,,54,127
26016,note_on,0,0,0,,6,,,78,127
26206,note_off,190,0,0,,6,,,78,127
26206,note_off,0,0,0,,6,,,54,127
26206,note_off,0,0,0,,6,,,66,127
26208,note_on,2,0,0,,4,,,52,127
26208,note_on,0,0,0,,4,,,64,127
26208,note_on,0,0,0,,4,,,76,127
26398,note_off,190,0,0,,4,,,76,127
26398,note_off,0,0,0,,4,,,64,127
26398,note_off,0,0,0,,4,,,52,127
26400,note_on,2,0,0,,2,,,50,127
26400,note_on,0,0,0,,2,,,62,127
26400,note_on,0,0,0,,2,,,74,127
26590,note_off,190,0,0,,2,,,74,127
26590,note_off,0,0,0,,2,,,62,127
26590,note_off,0,0,0,,2,,,50,127
26592,note_on,2,0,0,,1,,,61,127
26592,note_on,0,0,0,,1,,,49,127
26592,note_on,0,0,0,,1,,,73,127
26782,note_off,190,0,0,,1,,,73,127
26782,note_off,0,0,0,,1,,,49,127
26782,note_off,0,0,0,,1,,,61,127
26784,note_on,2,0,0,,12,,,47,127
26784,note_on,0,0,0,,12,,,59,127
26784,note_on,0,0,0,,12,,,71,127
26974,note_off,190,0,0,,12,,,71,127
26974,note_off,0,0,0,,12,,,59,127
26974,note_off,0,0,0,,12,,,47,127
26976,note_on,2,0,0,,10,,,45,127
26976,note_on,0,0,0,,10,,,57,127
26976,note_on,0,0,0,,10,,,69,127
27166,note_off,190,0,0,,10,,,69,127
27166,note_off,0,0,0,,10,,,57,127
27166,note_off,0,0,0,,10,,,45,127
27168,note_on,2,0,0,,7,,,43,127
27168,note_on,0,0,0,,7,,,55,127
27168,note_on,0,0,0,,7,,,67,127
27358,note_off,190,0,0,,7,,,67,127
27358,note_off,0,0,0,,7,,,55,127
27358,note_off,0,0,0,,7,,,43,127
27360,note_on,2,0,0,,6,,,54,127
27360,note_on,0,0,0,,6,,,42,127
27360,note_on,0,0,0,,6,,,66,127
27550,note_off,190,0,0,,6,,,66,127
27550,note_off,0,0,0,,6,,,42,127
27550,note_off,0,0,0,,6,,,54,127
27552,note_on,2,0,0,,2,,,38,127
27552,note_on,0,0,0,,2,,,50,127
27552,note_on,0,0,0,,2,,,62,127
27742,note_off,190,0,0,,2,,,62,127
27742,note_off,0,0,0,,2,,,50,127
27742,note_off,0,0,0,,2,,,38,127
27744,note_on,2,0,0,,10,,,33,127
27744,note_on,0,0,0,,10,,,69,127
27936,note_on,192,0,0,,10,,,81,127
27998,note_off,62,0,0,,10,,,81,127
28000,note_on,2,0,0,,7,,,79,127
28062,note_off,62,0,0,,7,,,79,127
28064,note_on,2,0,0,,6,,,78,127
28126,note_off,62,0,0,,6,,,78,127
28128,note_on,2,0,0,,4,,,76,127
28318,note_off,190,0,0,,4,,,76,127
28318,note_off,0,0,0,,10,,,33,127
28319,note_off,1,0,0,,10,,,69,127
28320,note_on,1,0,0,,10,,,33,127
28320,note_on,0,0,0,,10,,,81,127
28320,note_on,0,0,0,,6,,,78,127
28510,note_off,190,0,0,,6,,,78,127
28510,note_off,0,0,0,,10,,,81,127
28512,note_on,2,0,0,,7,,,79,127
28512,note_on,0,0,0,,4,,,76,127
28702,note_off,190,0,0,,4,,,76,127
28702,note_off,0,0,0,,7,,,79,127
28704,note_on,2,0,0,,6,,,78,127
28704,note_on,0,0,0,,2,,,74,127
28894,note_off,190,0,0,,2,,,74,127
28894,note_off,0,0,0,,6,,,78,127
28894,note_off,0,0,0,,10,,,33,127
28896,note_on,2,0,0,,10,,,33,127
28896,note_on,0,0,0,,4,,,76,127
28896,note_on,0,0,0,,10,,,69,127
29086,note_off,190,0,0,,4,,,76,127
29088,note_on,2,0,0,,6,,,78,127
29150,note_off,62,0,0,,6,,,78,127
29152,note_on,2,0,0,,4,,,76,127
29214,note_off,62,0,0,,4,,,76,127
29216,note_on,2,0,0,,2,,,74,127
29276,note_off,60,0,0,,10,,,69,127
29278,note_off,2,0,0,,2,,,74,127
29280,note_on,2,0,0,,7,,,67,127
29280,note_on,0,0,0,,1,,,73,127
29470,note_off,190,0,0,,1,,,73,127
29470,note_off,0,0,0,,7,,,67,127
29470,note_off,0,0,0,,10,,,33,127
29472,note_on,2,0,0,,10,,,33,127
29472,note_on,0,0,0,,6,,,66,127
29472,note_on,0,0,0,,2,,,74,127
29662,note_off,190,0,0,,2,,,74,127
29662,note_off,0,0,0,,6,,,66,127
29664,note_on,2,0,0,,1,,,73,127
29664,note_on,0,0,0,,4,,,64,127
29854,note_off,190,0,0,,4,,,64,127
29854,note_off,0,0,0,,1,,,73,127
29856,note_on,2,0,0,,2,,,62,127
29856,note_on,0,0,0,,2,,,74,127
30046,note_off,190,0,0,,2,,,74,127
30046,note_off,0,0,0,,2,,,62,127
30046,note_off,0,0,0,,10,,,33,127
30048,note_on,2,0,0,,10,,,57,127
30048,note_on,0,0,0,,4,,,76,127
30048,note_on,0,0,0,,10,,,69,127
30238,note_off,190,0,0,,10,,,69,127
30238,note_off,0,0,0,,4,,,76,127
30240,note_on,2,0,0,,10,,,69,127
30302,note_off,62,0,0,,10,,,69,127
30304,note_on,2,0,0,,7,,,67,127
30366,note_off,62,0,0,,7,,,67,127
30368,note_on,2,0,0,,6,,,66,127
30430,note_off,62,0,0,,6,,,66,127
30432,note_on,2,0,0,,4,,,64,127
30622,note_off,190,0,0,,4,,,64,127
30623,note_off,1,0,0,,10,,,57,127
30624,note_on,1,0,0,,6,,,66,127
30624,note_on,0,0,0,,10,,,69,127
30624,note_on,0,0,0,,12,,,83,127
30670,note_off,46,0,0,,12,,,83,127
30672,note_on,2,0,0,,10,,,81,127
30718,note_off,46,0,0,,10,,,81,127
30720,note_on,2,0,0,,12,,,83,127
30766,note_off,46,0,0,,12,,,83,127
30768,note_on,2,0,0,,10,,,81,127
30814,note_off,46,0,0,,10,,,69,127
30814,note_off,0,0,0,,6,,,66,127
30816,note_on,2,0,0,,7,,,67,127
30816,note_on,0,0,0,,4,,,64,127
31006,note_off,190,0,0,,4,,,64,127
31006,note_off,0,0,0,,7,,,67,127
31008,note_on,2,0,0,,6,,,66,127
31008,note_on,0,0,0,,2,,,62,127
31148,note_off,140,0,0,,10,,,81,127
31198,note_off,50,0,0,,2,,,62,127
31198,note_off,0,0,0,,6,,,66,127
31200,note_on,2,0,0,,10,,,57,127
31200,note_on,0,0,0,,4,,,64,127
31200,note_on,0,0,0,,12,,,83,127
31246,note_off,46,0,0,,12,,,83,127
31248,note_on,2,0,0,,10,,,81,127
31294,note_off,46,0,0,,10,,,81,127
31296,note_on,2,0,0,,12,,,83,127
31342,note_off,46,0,0,,12,,,83,127
31344,note_on,2,0,0,,10,,,81,127
31390,note_off,46,0,0,,4,,,64,127
31392,note_on,2,0,0,,6,,,66,127
31454,note_off,62,0,0,,6,,,66,127
31456,note_on,2,0,0,,4,,,64,127
31518,note_off,62,0,0,,4,,,64,127
31520,note_on,2,0,0,,2,,,62,127
31580,note_off,60,0,0,,10,,,57,127
31582,note_off,2,0,0,,2,,,62,127
31584,note_on,2,0,0,,1,,,61,127
31584,note_on,0,0,0,,7,,,55,127
31724,note_off,140,0,0,,10,,,81,127
31774,note_off,50,0,0,,7,,,55,127
31774,note_off,0,0,0,,1,,,61,127
31776,note_on,2,0,0,,6,,,54,127
31776,note_on,0,0,0,,2,,,62,127
31776,note_on,0,0,0,,12,,,83,127
31822,note_off,46,0,0,,12,,,83,127
31824,note_on,2,0,0,,10,,,81,127
31870,note_off,46,0,0,,10,,,81,127
31872,note_on,2,0,0,,12,,,83,127
31918,note_off,46,0,0,,12,,,83,127
31920,note_on,2,0,0,,10,,,81,127
31966,note_off,46,0,0,,2,,,62,127
31966,note_off,0,0,0,,6,,,54,127
31968,note_on,2,0,0,,1,,,61,127
31968,note_on,0,0,0,,4,,,52,127
32158,note_off,190,0,0,,4,,,52,127
32158,note_off,0,0,0,,1,,,61,127
32160,note_on,2,0,0,,2,,,50,127
32160,note_on,0,0,0,,2,,,62,127
32300,note_off,140,0,0,,10,,,81,127
32350,note_off,50,0,0,,2,,,62,127
32350,note_off,0,0,0,,2,,,50,127
32352,note_on,2,0,0,,10,,,57,127
32352,note_on,0,0,0,,10,,,45,127
32352,note_on,0,0,0,,12,,,83,127
32398,note_off,46,0,0,,12,,,83,127
32400,note_on,2,0,0,,10,,,81,127
32446,note_off,46,0,0,,10,,,81,127
32448,note_on,2,0,0,,12,,,83,127
32494,note_off,46,0,0,,12,,,83,127
32496,note_on,2,0,0,,10,,,81,127
32542,note_off,46,0,0,,10,,,45,127
32542,note_off,0,0,0,,10,,,57,127
32544,note_on,2,0,0,,10,,,57,127
32544,note_on,0,0,0,,10,,,69,127
32586,note_off,42,0,0,,10,,,81,127
32734,note_off,148,0,0,,10,,,69,127
32734,note_off,0,0,0,,10,,,57,127
32736,note_on,2,0,0,,6,,,54,127
32736,note_on,0,0,0,,6,,,66,127
32736,note_on,0,0,0,,10,,,81,127
32926,note_off,190,0,0,,10,,,81,127
32926,note_off,0,0,0,,6,,,66,127
32926,note_off,0,0,0,,6,,,54,127
32928,note_on,2,0,0,,2,,,62,127
32928,note_on,0,0,0,,2,,,50,127
32928,note_on,0,0,0,,10,,,81,127
33118,note_off,190,0,0,,10,,,81,127
33118,note_off,0,0,0,,2,,,50,127
33118,note_off,0,0,0,,2,,,62,127
33120,note_on,2,0,0,,10,,,45,127
33120,note_on,0,0,0,,10,,,57,127
33120,note_on,0,0,0,,10,,,81,127
33310,note_off,190,0,0,,10,,,81,127
33310,note_off,0,0,0,,10,,,57,127
33310,note_off,0,0,0,,10,,,45,127
33312,note_on,2,0,0,,6,,,54,127
33312,note_on,0,0,0,,6,,,42,127
33312,note_on,0,0,0,,10,,,81,127
33502,note_off,190,0,0,,10,,,81,127
33502,note_off,0,0,0,,6,,,42,127
33502,note_off,0,0,0,,6,,,54,127
33504,note_on,2,0,0,,2,,,50,127
33504,note_on,0,0,0,,2,,,38,127
33504,note_on,0,0,0,,10,,,81,127
33694,note_off,190,0,0,,10,,,81,127
33694,note_off,0,0,0,,2,,,38,127
33694,note_off,0,0,0,,2,,,50,127
33696,note_on,2,0,0,,6,,,42,127
33696,note_on,0,0,0,,6,,,54,127
33696,note_on,0,0,0,,2,,,86,127
33886,note_off,190,0,0,,6,,,54,127
33886,note_off,0,0,0,,6,,,42,127
33888,note_on,2,0,0,,7,,,43,127
33888,note_on,0,0,0,,7,,,55,127
33888,note_on,0,0,0,,2,,,74,127
34076,note_off,188,0,0,,2,,,86,127
34078,note_off,2,0,0,,7,,,55,127
34078,note_off,0,0,0,,7,,,43,127
34080,note_on,2,0,0,,10,,,57,127
34270,note_off,190,0,0,,2,,,74,127
34272,note_on,2,0,0,,2,,,74,127
34334,note_off,62,0,0,,2,,,74,127
34336,note_on,2,0,0,,1,,,73,127
34398,note_off,62,0,0,,1,,,73,127
34400,note_on,2,0,0,,2,,,74,127
34462,note_off,62,0,0,,2,,,74,127
34462,note_off,0,0,0,,10,,,57,127
34464,note_on,2,0,0,,10,,,45,127
34464,note_on,0,0,0,,1,,,73,127
34526,note_off,62,0,0,,1,,,73,127
34528,note_on,2,0,0,,12,,,71,127
34590,note_off,62,0,0,,12,,,71,127
34592,note_on,2,0,0,,1,,,73,127
34654,note_off,62,0,0,,1,,,73,127
34654,note_off,0,0,0,,10,,,45,127
34656,note_on,2,0,0,,2,,,38,127
34656,note_on,0,0,0,,2,,,74,127
34846,note_off,190,0,0,,2,,,74,127
34848,note_on,2,0,0,,10,,,81,127
34848,note_on,0,0,0,,2,,,74,127
35038,note_off,190,0,0,,2,,,74,127
35040,note_on,2,0,0,,1,,,73,127
35228,note_off,188,0,0,,10,,,81,127
35230,note_off,2,0,0,,1,,,73,127
35230,note_off,0,0,0,,2,,,38,127
35232,note_on,2,0,0,,2,,,38,127
35232,note_on,0,0,0,,7,,,79,127
35232,note_on,0,0,0,,12,,,71,127
35422,note_off,190,0,0,,12,,,71,127
35422,note_off,0,0,0,,7,,,79,127
35424,note_on,2,0,0,,6,,,78,127
35424,note_on,0,0,0,,10,,,69,127
35614,note_off,190,0,0,,10,,,69,127
35614,note_off,0,0,0,,6,,,78,127
35616,note_on,2,0,0,,4,,,76,127
35616,note_on,0,0,0,,7,,,67,127
35806,note_off,190,0,0,,7,,,67,127
35806,note_off,0,0,0,,4,,,76,127
35806,note_off,0,0,0,,2,,,38,127
35808,note_on,2,0,0,,2,,,38,127
35808,note_on,0,0,0,,2,,,74,127
35808,note_on,0,0,0,,6,,,66,127
35998,note_off,190,0,0,,6,,,66,127
35998,note_off,0,0,0,,2,,,74,127
36000,note_on,2,0,0,,10,,,69,127
36000,note_on,0,0,0,,2,,,62,127
36190,note_off,190,0,0,,2,,,62,127
36192,note_on,2,0,0,,1,,,61,127
36380,note_off,188,0,0,,10,,,69,127
36382,note_off,2,0,0,,1,,,61,127
36382,note_off,0,0,0,,2,,,38,127
36384,note_on,2,0,0,,2,,,38,127
36384,note_on,0,0,0,,7,,,67,127
36384,note_on,0,0,0,,12,,,59,127
36574,note_off,190,0,0,,12,,,59,127
36574,note_off,0,0,0,,7,,,67,127
36576,note_on,2,0,0,,6,,,66,127
36576,note_on,0,0,0,,10,,,57,127
36766,note_off,190,0,0,,10,,,57,127
36766,note_off,0,0,0,,6,,,66,127
36768,note_on,2,0,0,,7,,,55,127
36768,note_on,0,0,0,,4,,,64,127
36958,note_off,190,0,0,,4,,,64,127
36958,note_off,0,0,0,,7,,,55,127
36958,note_off,0,0,0,,2,,,38,127
36960,note_on,2,0,0,,2,,,38,127
36960,note_on,0,0,0,,2,,,62,127
36960,note_on,0,0,0,,6,,,54,127
37150,note_off,190,0,0,,6,,,54,127
37150,note_off,0,0,0,,2,,,62,127
37150,note_off,0,0,0,,2,,,38,127
37152,note_on,2,0,0,,2,,,50,127
37152,note_on,0,0,0,,10,,,57,127
37342,note_off,190,0,0,,2,,,50,127
37344,note_on,2,0,0,,1,,,49,127
37532,note_off,188,0,0,,10,,,57,127
37534,note_off,2,0,0,,1,,,49,127
37536,note_on,2,0,0,,12,,,47,127
37536,note_on,0,0,0,,7,,,55,127
37726,note_off,190,0,0,,7,,,55,127
37726,note_off,0,0,0,,12,,,47,127
37728,note_on,2,0,0,,6,,,54,127
37728,note_on,0,0,0,,10,,,45,127
37918,note_off,190,0,0,,10,,,45,127
37918,note_off,0,0,0,,6,,,54,127
37920,note_on,2,0,0,,7,,,43,127
37920,note_on,0,0,0,,4,,,52,127
38110,note_off,190,0,0,,4,,,52,127
38110,note_off,0,0,0,,7,,,43,127
38112,note_on,2,0,0,,6,,,42,127
38112,note_on,0,0,0,,2,,,50,127
38112,note_on,0,0,0,,6,,,54,127
38206,note_off,94,0,0,,6,,,54,127
38208,note_on,2,0,0,,2,,,62,127
38302,note_off,94,0,0,,2,,,62,127
38304,note_on,2,0,0,,7,,,55,127
38398,note_off,94,0,0,,7,,,55,127
38400,note_on,2,0,0,,4,,,64,127
38494,note_off,94,0,0,,4,,,64,127
38496,note_on,2,0,0,,10,,,57,127
38590,note_off,94,0,0,,10,,,57,127
38592,note_on,2,0,0,,6,,,66,127
38686,note_off,94,0,0,,6,,,66,127
38686,note_off,0,0,0,,2,,,50,127
38686,note_off,0,0,0,,6,,,42,127
38688,note_on,2,0,0,,2,,,50,127
38688,note_on,0,0,0,,6,,,42,127
38688,note_on,0,0,0,,12,,,59,127
38782,note_off,94,0,0,,12,,,59,127
38784,note_on,2,0,0,,7,,,67,127
38878,note_off,94,0,0,,7,,,67,127
38880,note_on,2,0,0,,1,,,61,127
38974,note_off,94,0,0,,1,,,61,127
38976,note_on,2,0,0,,10,,,69,127
39070,note_off,94,0,0,,10,,,69,127
39072,note_on,2,0,0,,2,,,62,127
39166,note_off,94,0,0,,2,,,62,127
39168,note_on,2,0,0,,12,,,71,127
39262,note_off,94,0,0,,12,,,71,127
39262,note_off,0,0,0,,6,,,42,127
39262,note_off,0,0,0,,2,,,50,127
39264,note_on,2,0,0,,6,,,42,127
39264,note_on,0,0,0,,2,,,50,127
39264,note_on,0,0,0,,4,,,64,127
39358,note_off,94,0,0,,4,,,64,127
39360,note_on,2,0,0,,1,,,73,127
39454,note_off,94,0,0,,1,,,73,127
39456,note_on,2,0,0,,6,,,66,127
39550,note_off,94,0,0,,6,,,66,127
39552,note_on,2,0,0,,2,,,74,127
39646,note_off,94,0,0,,2,,,74,127
39648,note_on,2,0,0,,10,,,69,127
39838,note_off,190,0,0,,10,,,69,127
39838,note_off,0,0,0,,2,,,50,127
39838,note_off,0,0,0,,6,,,42,127
39840,note_on,2,0,0,,7,,,43,127
39840,note_on,0,0,0,,2,,,62,127
40030,note_off,190,0,0,,7,,,43,127
40032,note_on,2,0,0,,10,,,45,127
40222,note_off,190,0,0,,10,,,45,127
40222,note_off,0,0,0,,2,,,62,127
40224,note_on,2,0,0,,10,,,45,127
40224,note_on,0,0,0,,2,,,62,127
40270,note_off,46,0,0,,2,,,62,127
40272,note_on,2,0,0,,1,,,61,127
40318,note_off,46,0,0,,1,,,61,127
40320,note_on,2,0,0,,12,,,59,127
40366,note_off,46,0,0,,12,,,59,127
40368,note_on,2,0,0,,1,,,61,127
40414,note_off,46,0,0,,1,,,61,127
40414,note_off,0,0,0,,10,,,45,127
40416,note_on,2,0,0,,6,,,42,127
40416,note_on,0,0,0,,2,,,50,127
40416,note_on,0,0,0,,6,,,66,127
40510,note_off,94,0,0,,6,,,66,127
40512,note_on,2,0,0,,2,,,74,127
40606,note_off,94,0,0,,2,,,74,127
40608,note_on,2,0,0,,7,,,67,127
40702,note_off,94,0,0,,7,,,67,127
40704,note_on,2,0,0,,4,,,76,127
40798,note_off,94,0,0,,4,,,76,127
40800,note_on,2,0,0,,10,,,69,127
40894,note_off,94,0,0,,10,,,69,127
40896,note_on,2,0,0,,6,,,78,127
40990,note_off,94,0,0,,6,,,78,127
40990,note_off,0,0,0,,2,,,50,127
40990,note_off,0,0,0,,6,,,42,127
40992,note_on,2,0,0,,6,,,42,127
40992,note_on,0,0,0,,2,,,50,127
40992,note_on,0,0,0,,12,,,71,127
41086,note_off,94,0,0,,12,,,71,127
41088,note_on,2,0,0,,7,,,79,127
41182,note_off,94,0,0,,7,,,79,127
41184,note_on,2,0,0,,1,,,73,127
41278,note_off,94,0,0,,1,,,73,127
41280,note_on,2,0,0,,10,,,81,127
41374,note_off,94,0,0,,10,,,81,127
41376,note_on,2,0,0,,2,,,74,127
41470,note_off,94,0,0,,2,,,74,127
41472,note_on,2,0,0,,12,,,83,127
41566,note_off,94,0,0,,12,,,83,127
41566,note_off,0,0,0,,2,,,50,127
41566,note_off,0,0,0,,6,,,42,127
41568,note_on,2,0,0,,6,,,42,127
41568,note_on,0,0,0,,2,,,50,127
41568,note_on,0,0,0,,4,,,76,127
41662,note_off,94,0,0,,4,,,76,127
41664,note_on,2,0,0,,1,,,85,127
41758,note_off,94,0,0,,1,,,85,127
41760,note_on,2,0,0,,6,,,78,127
41854,note_off,94,0,0,,6,,,78,127
41856,note_on,2,0,0,,2,,,86,127
41950,note_off,94,0,0,,2,,,86,127
41952,note_on,2,0,0,,10,,,81,127
42142,note_off,190,0,0,,10,,,81,127
42142,note_off,0,0,0,,2,,,50,127
42142,note_off,0,0,0,,6,,,42,127
42144,note_on,2,0,0,,7,,,43,127
42144,note_on,0,0,0,,2,,,74,127
42334,note_off,190,0,0,,7,,,43,127
42336,note_on,2,0,0,,10,,,45,127
42526,note_off,190,0,0,,10,,,45,127
42526,note_off,0,0,0,,2,,,74,127
42528,note_on,2,0,0,,10,,,45,127
42528,note_on,0,0,0,,2,,,74,127
42574,note_off,46,0,0,,2,,,74,127
42576,note_on,2,0,0,,1,,,73,127
42622,note_off,46,0,0,,1,,,73,127
42624,note_on,2,0,0,,12,,,71,127
42670,note_off,46,0,0,,12,,,71,127
42672,note_on,2,0,0,,1,,,73,127
42718,note_off,46,0,0,,1,,,73,127
42718,note_off,0,0,0,,10,,,45,127
42720,note_on,2,0,0,,2,,,38,127
42720,note_on,0,0,0,,1,,,73,127
42960,note_on,240,0,0,,2,,,74,127
42970,note_off,10,0,0,,1,,,73,127
43340,note_off,370,0,0,,2,,,74,127
43680,note_on,340,0,0,,10,,,81,127
43680,note_on,0,0,0,,2,,,74,127
43770,note_off,90,0,0,,2,,,38,127
43870,note_off,100,0,0,,2,,,74,127
43872,note_on,2,0,0,,0,,,72,127
44060,note_off,188,0,0,,10,,,81,127
44062,note_off,2,0,0,,0,,,72,127
44064,note_on,2,0,0,,2,,,38,127
44064,note_on,0,0,0,,11,,,70,127
44064,note_on,0,0,0,,7,,,79,127
44254,note_off,190,0,0,,7,,,79,127
44254,note_off,0,0,0,,11,,,70,127
44256,note_on,2,0,0,,10,,,69,127
44256,note_on,0,0,0,,6,,,78,127
44446,note_off,190,0,0,,6,,,78,127
44446,note_off,0,0,0,,10,,,69,127
44448,note_on,2,0,0,,4,,,76,127
44448,note_on,0,0,0,,7,,,67,127
44638,note_off,190,0,0,,7,,,67,127
44638,note_off,0,0,0,,4,,,76,127
44638,note_off,0,0,0,,2,,,38,127
44640,note_on,2,0,0,,2,,,38,127
44640,note_on,0,0,0,,2,,,74,127
44640,note_on,0,0,0,,6,,,66,127
44830,note_off,190,0,0,,6,,,66,127
44830,note_off,0,0,0,,2,,,74,127
44832,note_on,2,0,0,,10,,,69,127
44832,note_on,0,0,0,,2,,,62,127
45022,note_off,190,0,0,,2,,,62,127
45024,note_on,2,0,0,,0,,,60,127
45212,note_off,188,0,0,,10,,,69,127
45214,note_off,2,0,0,,0,,,60,127
45214,note_off,0,0,0,,2,,,38,127
45216,note_on,2,0,0,,2,,,38,127
45216,note_on,0,0,0,,11,,,58,127
45216,note_on,0,0,0,,7,,,67,127
45406,note_off,190,0,0,,7,,,67,127
45406,note_off,0,0,0,,11,,,58,127
45408,note_on,2,0,0,,6,,,66,127
45408,note_on,0,0,0,,10,,,57,127
45598,note_off,190,0,0,,10,,,57,127
45598,note_off,0,0,0,,6,,,66,127
45600,note_on,2,0,0,,4,,,64,127
45600,note_on,0,0,0,,7,,,55,127
45790,note_off,190,0,0,,7,,,55,127
45790,note_off,0,0,0,,4,,,64,127
45790,note_off,0,0,0,,2,,,38,127
45792,note_on,2,0,0,,2,,,38,127
45792,note_on,0,0,0,,6,,,54,127
45792,note_on,0,0,0,,2,,,62,127
45982,note_off,190,0,0,,2,,,62,127
45982,note_off,0,0,0,,6,,,54,127
45982,note_off,0,0,0,,2,,,38,127
45984,note_on,2,0,0,,2,,,50,127
45984,note_on,0,0,0,,10,,,57,127
46174,note_off,190,0,0,,2,,,50,127
46176,note_on,2,0,0,,0,,,48,127
46364,note_off,188,0,0,,10,,,57,127
46366,note_off,2,0,0,,0,,,48,127
46368,note_on,2,0,0,,7,,,55,127
46368,note_on,0,0,0,,11,,,46,127
46558,note_off,190,0,0,,11,,,46,127
46558,note_off,0,0,0,,7,,,55,127
46560,note_on,2,0,0,,6,,,54,127
46560,note_on,0,0,0,,10,,,45,127
46750,note_off,190,0,0,,10,,,45,127
46750,note_off,0,0,0,,6,,,54,127
46752,note_on,2,0,0,,7,,,43,127
46752,note_on,0,0,0,,4,,,52,127
46752,note_on,0,0,0,,11,,,70,127
46752,note_on,0,0,0,,1,,,73,127
46942,note_off,190,0,0,,1,,,73,127
46942,note_off,0,0,0,,11,,,70,127
46942,note_off,0,0,0,,4,,,52,127
46942,note_off,0,0,0,,7,,,43,127
46944,note_on,2,0,0,,6,,,42,127
46944,note_on,0,0,0,,2,,,50,127
46944,note_on,0,0,0,,10,,,69,127
46944,note_on,0,0,0,,2,,,74,127
47134,note_off,190,0,0,,2,,,74,127
47134,note_off,0,0,0,,6,,,42,127
47136,note_on,2,0,0,,4,,,40,127
47136,note_on,0,0,0,,4,,,76,127
47326,note_off,190,0,0,,4,,,76,127
47326,note_off,0,0,0,,4,,,40,127
47328,note_on,2,0,0,,2,,,38,127
47328,note_on,0,0,0,,6,,,78,127
47508,note_off,180,0,0,,2,,,38,127
47509,note_off,1,0,0,,2,,,50,127
47519,note_off,10,0,0,,10,,,69,127
47520,note_on,1,0,0,,7,,,43,127
47520,note_on,0,0,0,,7,,,55,127
47520,note_on,0,0,0,,11,,,70,127
47608,note_off,88,0,0,,6,,,78,127
47712,note_on,104,0,0,,4,,,76,127
47902,note_off,190,0,0,,4,,,76,127
47904,note_on,2,0,0,,2,,,74,127
48094,note_off,190,0,0,,2,,,74,127
48094,note_off,0,0,0,,7,,,55,127
48094,note_off,0,0,0,,7,,,43,127
48095,note_off,1,0,0,,11,,,70,127
48096,note_on,1,0,0,,10,,,45,127
48096,note_on,0,0,0,,10,,,57,127
48096,note_on,0,0,0,,10,,,69,127
48096,note_on,0,0,0,,1,,,73,127
48286,note_off,190,0,0,,1,,,73,127
48286,note_off,0,0,0,,10,,,69,127
48288,note_on,2,0,0,,10,,,81,127
48478,note_off,190,0,0,,10,,,81,127
48480,note_on,2,0,0,,7,,,79,127
48670,note_off,190,0,0,,10,,,57,127
48670,note_off,0,0,0,,10,,,45,127
48672,note_on,2,0,0,,10,,,57,127
48672,note_on,0,0,0,,10,,,69,127
48862,note_off,190,0,0,,7,,,79,127
48864,note_on,2,0,0,,0,,,84,127
48864,note_on,0,0,0,,6,,,78,127
49054,note_off,190,0,0,,6,,,78,127
49056,note_on,2,0,0,,4,,,76,127
49246,note_off,190,0,0,,4,,,76,127
49246,note_off,0,0,0,,10,,,69,127
49246,note_off,0,0,0,,10,,,57,127
49248,note_on,2,0,0,,12,,,59,127
49248,note_on,0,0,0,,3,,,75,127
49438,note_off,190,0,0,,3,,,75,127
49439,note_off,1,0,0,,0,,,84,127
49440,note_on,1,0,0,,7,,,67,127
49440,note_on,0,0,0,,12,,,83,127
49440,note_on,0,0,0,,4,,,76,127
49630,note_off,190,0,0,,4,,,76,127
49630,note_off,0,0,0,,12,,,83,127
49630,note_off,0,0,0,,7,,,67,127
49632,note_on,2,0,0,,6,,,66,127
49632,note_on,0,0,0,,10,,,81,127
49632,note_on,0,0,0,,6,,,78,127
49822,note_off,190,0,0,,6,,,78,127
49822,note_off,0,0,0,,10,,,81,127
49822,note_off,0,0,0,,6,,,66,127
49823,note_off,1,0,0,,12,,,59,127
49824,note_on,1,0,0,,12,,,59,127
49824,note_on,0,0,0,,4,,,64,127
49824,note_on,0,0,0,,10,,,81,127
49824,note_on,0,0,0,,7,,,79,127
49824,note_on,0,0,0,,12,,,71,127
50014,note_off,190,0,0,,7,,,79,127
50014,note_off,0,0,0,,10,,,81,127
50014,note_off,0,0,0,,4,,,64,127
50016,note_on,2,0,0,,3,,,63,127
50016,note_on,0,0,0,,6,,,78,127
50206,note_off,190,0,0,,6,,,78,127
50206,note_off,0,0,0,,3,,,63,127
50208,note_on,2,0,0,,4,,,64,127
50208,note_on,0,0,0,,7,,,79,127
50398,note_off,190,0,0,,7,,,79,127
50398,note_off,0,0,0,,4,,,64,127
50399,note_off,1,0,0,,12,,,71,127
50399,note_off,0,0,0,,12,,,59,127
50400,note_on,1,0,0,,12,,,47,127
50400,note_on,0,0,0,,12,,,59,127
50400,note_on,0,0,0,,6,,,78,127
50400,note_on,0,0,0,,12,,,71,127
50590,note_off,190,0,0,,12,,,71,127
50590,note_off,0,0,0,,6,,,78,127
50592,note_on,2,0,0,,3,,,75,127
50592,note_on,0,0,0,,0,,,72,127
50782,note_off,190,0,0,,0,,,72,127
50782,note_off,0,0,0,,3,,,75,127
50784,note_on,2,0,0,,4,,,76,127
50784,note_on,0,0,0,,12,,,71,127
50974,note_off,190,0,0,,12,,,71,127
50974,note_off,0,0,0,,4,,,76,127
50974,note_off,0,0,0,,12,,,59,127
50974,note_off,0,0,0,,12,,,47,127
50976,note_on,2,0,0,,12,,,47,127
50976,note_on,0,0,0,,12,,,59,127
50976,note_on,0,0,0,,6,,,78,127
50976,note_on,0,0,0,,10,,,69,127
51166,note_off,190,0,0,,10,,,69,127
51168,note_on,2,0,0,,7,,,67,127
51358,note_off,190,0,0,,7,,,67,127
51360,note_on,2,0,0,,6,,,66,127
51550,note_off,190,0,0,,6,,,66,127
51550,note_off,0,0,0,,12,,,59,127
51550,note_off,0,0,0,,12,,,47,127
51551,note_off,1,0,0,,6,,,78,127
51552,note_on,1,0,0,,12,,,47,127
51552,note_on,0,0,0,,12,,,59,127
51552,note_on,0,0,0,,7,,,79,127
51552,note_on,0,0,0,,7,,,67,127
51722,note_off,170,0,0,,7,,,67,127
51722,note_off,0,0,0,,7,,,79,127
51744,note_on,22,0,0,,0,,,72,127
51744,note_on,0,0,0,,3,,,75,127
51934,note_off,190,0,0,,3,,,75,127
51934,note_off,0,0,0,,0,,,72,127
51936,note_on,2,0,0,,12,,,71,127
51936,note_on,0,0,0,,4,,,76,127
52126,note_off,190,0,0,,4,,,76,127
52126,note_off,0,0,0,,12,,,71,127
52126,note_off,0,0,0,,12,,,59,127
52126,note_off,0,0,0,,12,,,47,127
52128,note_on,2,0,0,,12,,,59,127
52128,note_on,0,0,0,,12,,,47,127
52128,note_on,0,0,0,,6,,,78,127
52128,note_on,0,0,0,,10,,,69,127
52318,note_off,190,0,0,,10,,,69,127
52320,note_on,2,0,0,,7,,,67,127
52510,note_off,190,0,0,,7,,,67,127
52512,note_on,2,0,0,,6,,,66,127
52702,note_off,190,0,0,,6,,,66,127
52702,note_off,0,0,0,,12,,,47,127
52702,note_off,0,0,0,,12,,,59,127
52703,note_off,1,0,0,,6,,,78,127
52704,note_on,1,0,0,,4,,,52,127
52704,note_on,0,0,0,,12,,,59,127
52704,note_on,0,0,0,,7,,,67,127
52704,note_on,0,0,0,,7,,,79,127
52874,note_off,170,0,0,,7,,,79,127
52874,note_off,0,0,0,,7,,,67,127
52896,note_on,22,0,0,,7,,,79,127
52896,note_on,0,0,0,,11,,,82,127
53086,note_off,190,0,0,,11,,,82,127
53086,note_off,0,0,0,,7,,,79,127
53088,note_on,2,0,0,,12,,,83,127
53088,note_on,0,0,0,,6,,,78,127
53278,note_off,190,0,0,,6,,,78,127
53278,note_off,0,0,0,,12,,,83,127
53278,note_off,0,0,0,,12,,,59,127
53278,note_off,0,0,0,,4,,,52,127
53280,note_on,2,0,0,,6,,,42,127
53280,note_on,0,0,0,,6,,,54,127
53280,note_on,0,0,0,,4,,,76,127
53280,note_on,0,0,0,,1,,,85,127
53470,note_off,190,0,0,,4,,,76,127
53472,note_on,2,0,0,,2,,,74,127
53662,note_off,190,0,0,,2,,,74,127
53664,note_on,2,0,0,,1,,,73,127
53854,note_off,190,0,0,,1,,,73,127
53854,note_off,0,0,0,,6,,,54,127
53854,note_off,0,0,0,,6,,,42,127
53855,note_off,1,0,0,,1,,,85,127
53856,note_on,1,0,0,,6,,,54,127
53856,note_on,0,0,0,,12,,,47,127
53856,note_on,0,0,0,,2,,,86,127
53856,note_on,0,0,0,,2,,,74,127
54036,note_off,180,0,0,,2,,,74,127
54036,note_off,0,0,0,,2,,,86,127
54048,note_on,12,0,0,,5,,,77,127
54048,note_on,0,0,0,,8,,,80,127
54238,note_off,190,0,0,,8,,,80,127
54238,note_off,0,0,0,,5,,,77,127
54240,note_on,2,0,0,,4,,,76,127
54240,note_on,0,0,0,,10,,,81,127
54430,note_off,190,0,0,,10,,,81,127
54430,note_off,0,0,0,,4,,,76,127
54430,note_off,0,0,0,,12,,,47,127
54430,note_off,0,0,0,,6,,,54,127
54432,note_on,2,0,0,,4,,,40,127
54432,note_on,0,0,0,,4,,,52,127
54432,note_on,0,0,0,,2,,,74,127
54432,note_on,0,0,0,,12,,,83,127
54622,note_off,190,0,0,,2,,,74,127
54624,note_on,2,0,0,,0,,,72,127
54814,note_off,190,0,0,,0,,,72,127
54816,note_on,2,0,0,,12,,,71,127
55006,note_off,190,0,0,,12,,,71,127
55006,note_off,0,0,0,,4,,,52,127
55006,note_off,0,0,0,,4,,,40,127
55007,note_off,1,0,0,,12,,,83,127
55008,note_on,1,0,0,,4,,,52,127
55008,note_on,0,0,0,,10,,,45,127
55008,note_on,0,0,0,,0,,,72,127
55008,note_on,0,0,0,,0,,,84,127
55188,note_off,180,0,0,,0,,,84,127
55188,note_off,0,0,0,,0,,,72,127
55200,note_on,12,0,0,,4,,,76,127
55200,note_on,0,0,0,,6,,,78,127
55390,note_off,190,0,0,,6,,,78,127
55390,note_off,0,0,0,,4,,,76,127
55392,note_on,2,0,0,,2,,,74,127
55392,note_on,0,0,0,,7,,,79,127
55582,note_off,190,0,0,,7,,,79,127
55582,note_off,0,0,0,,2,,,74,127
55582,note_off,0,0,0,,10,,,45,127
55582,note_off,0,0,0,,4,,,52,127
55584,note_on,2,0,0,,2,,,50,127
55584,note_on,0,0,0,,2,,,38,127
55584,note_on,0,0,0,,10,,,81,127
55584,note_on,0,0,0,,0,,,72,127
55774,note_off,190,0,0,,0,,,72,127
55776,note_on,2,0,0,,12,,,71,127
55966,note_off,190,0,0,,12,,,71,127
55968,note_on,2,0,0,,10,,,69,127
56158,note_off,190,0,0,,10,,,69,127
56158,note_off,0,0,0,,2,,,38,127
56158,note_off,0,0,0,,2,,,50,127
56159,note_off,1,0,0,,10,,,81,127
56160,note_on,1,0,0,,7,,,43,127
56160,note_on,0,0,0,,7,,,55,127
56160,note_on,0,0,0,,12,,,83,127
56254,note_off,94,0,0,,12,,,83,127
56256,note_on,2,0,0,,10,,,81,127
56350,note_off,94,0,0,,10,,,81,127
56352,note_on,2,0,0,,7,,,79,127
56446,note_off,94,0,0,,7,,,79,127
56448,note_on,2,0,0,,6,,,78,127
56542,note_off,94,0,0,,6,,,78,127
56544,note_on,2,0,0,,4,,,76,127
56638,note_off,94,0,0,,4,,,76,127
56640,note_on,2,0,0,,2,,,74,127
56734,note_off,94,0,0,,2,,,74,127
56734,note_off,0,0,0,,7,,,55,127
56734,note_off,0,0,0,,7,,,43,127
56736,note_on,2,0,0,,0,,,36,127
56736,note_on,0,0,0,,0,,,48,127
56736,note_on,0,0,0,,0,,,72,127
56830,note_off,94,0,0,,0,,,72,127
56832,note_on,2,0,0,,12,,,71,127
56926,note_off,94,0,0,,12,,,71,127
56928,note_on,2,0,0,,10,,,69,127
57022,note_off,94,0,0,,10,,,69,127
57024,note_on,2,0,0,,7,,,67,127
57118,note_off,94,0,0,,7,,,67,127
57120,note_on,2,0,0,,6,,,66,127
57214,note_off,94,0,0,,6,,,66,127
57216,note_on,2,0,0,,4,,,64,127
57310,note_off,94,0,0,,4,,,64,127
57310,note_off,0,0,0,,0,,,48,127
57310,note_off,0,0,0,,0,,,36,127
57312,note_on,2,0,0,,2,,,38,127
57312,note_on,0,0,0,,2,,,62,127
57502,note_off,190,0,0,,2,,,62,127
57504,note_on,2,0,0,,2,,,86,127
57566,note_off,62,0,0,,2,,,86,127
57568,note_on,2,0,0,,0,,,84,127
57630,note_off,62,0,0,,0,,,84,127
57632,note_on,2,0,0,,12,,,83,127
57694,note_off,62,0,0,,12,,,83,127
57696,note_on,2,0,0,,10,,,81,127
57886,note_off,190,0,0,,10,,,81,127
57886,note_off,0,0,0,,2,,,38,127
57888,note_on,2,0,0,,2,,,38,127
57888,note_on,0,0,0,,2,,,86,127
57888,note_on,0,0,0,,12,,,83,127
58078,note_off,190,0,0,,12,,,83,127
58078,note_off,0,0,0,,2,,,86,127
58080,note_on,2,0,0,,10,,,81,127
58080,note_on,0,0,0,,0,,,84,127
58270,note_off,190,0,0,,0,,,84,127
58270,note_off,0,0,0,,10,,,81,127
58272,note_on,2,0,0,,12,,,83,127
58272,note_on,0,0,0,,7,,,79,127
58462,note_off,190,0,0,,7,,,79,127
58462,note_off,0,0,0,,12,,,83,127
58462,note_off,0,0,0,,2,,,38,127
58464,note_on,2,0,0,,2,,,38,127
58464,note_on,0,0,0,,10,,,81,127
58464,note_on,0,0,0,,2,,,74,127
58654,note_off,190,0,0,,10,,,81,127
58656,note_on,2,0,0,,12,,,83,127
58718,note_off,62,0,0,,12,,,83,127
58720,note_on,2,0,0,,10,,,81,127
58782,note_off,62,0,0,,10,,,81,127
58784,note_on,2,0,0,,7,,,79,127
58844,note_off,60,0,0,,2,,,74,127
58846,note_off,2,0,0,,7,,,79,127
58848,note_on,2,0,0,,0,,,72,127
58848,note_on,0,0,0,,6,,,78,127
59038,note_off,190,0,0,,6,,,78,127
59038,note_off,0,0,0,,0,,,72,127
59038,note_off,0,0,0,,2,,,38,127
59040,note_on,2,0,0,,2,,,38,127
59040,note_on,0,0,0,,7,,,79,127
59040,note_on,0,0,0,,12,,,71,127
59230,note_off,190,0,0,,12,,,71,127
59230,note_off,0,0,0,,7,,,79,127
59232,note_on,2,0,0,,6,,,78,127
59232,note_on,0,0,0,,10,,,69,127
59422,note_off,190,0,0,,10,,,69,127
59422,note_off,0,0,0,,6,,,78,127
59424,note_on,2,0,0,,7,,,67,127
59424,note_on,0,0,0,,7,,,79,127
59614,note_off,190,0,0,,7,,,79,127
59614,note_off,0,0,0,,7,,,67,127
59614,note_off,0,0,0,,2,,,38,127
59616,note_on,2,0,0,,2,,,62,127
59616,note_on,0,0,0,,10,,,81,127
59616,note_on,0,0,0,,2,,,74,127
59806,note_off,190,0,0,,2,,,74,127
59806,note_off,0,0,0,,10,,,81,127
59808,note_on,2,0,0,,2,,,74,127
59870,note_off,62,0,0,,2,,,74,127
59872,note_on,2,0,0,,0,,,72,127
59934,note_off,62,0,0,,0,,,72,127
59936,note_on,2,0,0,,12,,,71,127
59998,note_off,62,0,0,,12,,,71,127
60000,note_on,2,0,0,,10,,,69,127
60190,note_off,190,0,0,,10,,,69,127
60191,note_off,1,0,0,,2,,,62,127
60192,note_on,1,0,0,,12,,,71,127
60192,note_on,0,0,0,,2,,,74,127
60192,note_on,0,0,0,,4,,,88,127
60238,note_off,46,0,0,,4,,,88,127
60240,note_on,2,0,0,,2,,,86,127
60286,note_off,46,0,0,,2,,,86,127
60288,note_on,2,0,0,,4,,,88,127
60334,note_off,46,0,0,,4,,,88,127
60336,note_on,2,0,0,,2,,,86,127
60382,note_off,46,0,0,,2,,,74,127
60382,note_off,0,0,0,,12,,,71,127
60384,note_on,2,0,0,,0,,,72,127
60384,note_on,0,0,0,,10,,,69,127
60574,note_off,190,0,0,,10,,,69,127
60574,note_off,0,0,0,,0,,,72,127
60576,note_on,2,0,0,,7,,,67,127
60576,note_on,0,0,0,,12,,,71,127
60624,note_off,48,0,0,,2,,,86,127
60766,note_off,142,0,0,,12,,,71,127
60766,note_off,0,0,0,,7,,,67,127
60768,note_on,2,0,0,,10,,,69,127
60768,note_on,0,0,0,,2,,,62,127
60768,note_on,0,0,0,,4,,,88,127
60814,note_off,46,0,0,,4,,,88,127
60816,note_on,2,0,0,,2,,,86,127
60862,note_off,46,0,0,,2,,,86,127
60864,note_on,2,0,0,,4,,,88,127
60910,note_off,46,0,0,,4,,,88,127
60912,note_on,2,0,0,,2,,,86,127
60958,note_off,46,0,0,,10,,,69,127
60960,note_on,2,0,0,,12,,,71,127
61022,note_off,62,0,0,,12,,,71,127
61024,note_on,2,0,0,,10,,,69,127
61086,note_off,62,0,0,,10,,,69,127
61088,note_on,2,0,0,,7,,,67,127
61148,note_off,60,0,0,,2,,,62,127
61150,note_off,2,0,0,,7,,,67,127
61152,note_on,2,0,0,,6,,,66,127
61152,note_on,0,0,0,,0,,,60,127
61200,note_off,48,0,0,,2,,,86,127
61342,note_off,142,0,0,,0,,,60,127
61342,note_off,0,0,0,,6,,,66,127
61344,note_on,2,0,0,,12,,,59,127
61344,note_on,0,0,0,,7,,,67,127
61344,note_on,0,0,0,,4,,,88,127
61390,note_off,46,0,0,,4,,,88,127
61392,note_on,2,0,0,,2,,,86,127
61438,note_off,46,0,0,,2,,,86,127
61440,note_on,2,0,0,,4,,,88,127
61486,note_off,46,0,0,,4,,,88,127
61488,note_on,2,0,0,,2,,,86,127
61534,note_off,46,0,0,,7,,,67,127
61534,note_off,0,0,0,,12,,,59,127
61536,note_on,2,0,0,,10,,,57,127
61536,note_on,0,0,0,,6,,,66,127
61726,note_off,190,0,0,,6,,,66,127
61726,note_off,0,0,0,,10,,,57,127
61728,note_on,2,0,0,,7,,,55,127
61728,note_on,0,0,0,,7,,,67,127
61776,note_off,48,0,0,,2,,,86,127
61918,note_off,142,0,0,,7,,,67,127
61918,note_off,0,0,0,,7,,,55,127
61920,note_on,2,0,0,,2,,,50,127
61920,note_on,0,0,0,,2,,,62,127
61920,note_on,0,0,0,,4,,,88,127
61966,note_off,46,0,0,,4,,,88,127
61968,note_on,2,0,0,,2,,,86,127
62014,note_off,46,0,0,,2,,,86,127
62016,note_on,2,0,0,,4,,,88,127
62062,note_off,46,0,0,,4,,,88,127
62064,note_on,2,0,0,,2,,,86,127
62110,note_off,46,0,0,,2,,,86,127
62110,note_off,0,0,0,,2,,,62,127
62110,note_off,0,0,0,,2,,,50,127
62112,note_on,2,0,0,,2,,,62,127
62112,note_on,0,0,0,,2,,,74,127
62112,note_on,0,0,0,,2,,,86,127
62302,note_off,190,0,0,,2,,,86,127
62302,note_off,0,0,0,,2,,,74,127
62302,note_off,0,0,0,,2,,,62,127
62304,note_on,2,0,0,,0,,,72,127
62304,note_on,0,0,0,,0,,,60,127
62304,note_on,0,0,0,,0,,,84,127
62494,note_off,190,0,0,,0,,,84,127
62494,note_off,0,0,0,,0,,,60,127
62494,note_off,0,0,0,,0,,,72,127
62496,note_on,2,0,0,,12,,,59,127
62496,note_on,0,0,0,,12,,,71,127
62496,note_on,0,0,0,,12,,,83,127
62686,note_off,190,0,0,,12,,,83,127
62686,note_off,0,0,0,,12,,,71,127
62686,note_off,0,0,0,,12,,,59,127
62688,note_on,2,0,0,,10,,,57,127
62688,note_on,0,0,0,,10,,,69,127
62688,note_on,0,0,0,,10,,,81,127
62878,note_off,190,0,0,,10,,,81,127
62878,note_off,0,0,0,,10,,,69,127
62878,note_off,0,0,0,,10,,,57,127
62880,note_on,2,0,0,,7,,,55,127
62880,note_on,0,0,0,,7,,,67,127
62880,note_on,0,0,0,,7,,,79,127
63070,note_off,190,0,0,,7,,,79,127
63070,note_off,0,0,0,,7,,,67,127
63070,note_off,0,0,0,,7,,,55,127
63072,note_on,2,0,0,,6,,,54,127
63072,note_on,0,0,0,,6,,,66,127
63072,note_on,0,0,0,,6,,,78,127
63262,note_off,190,0,0,,6,,,78,127
63262,note_off,0,0,0,,6,,,66,127
63262,note_off,0,0,0,,6,,,54,127
63264,note_on,2,0,0,,4,,,52,127
63264,note_on,0,0,0,,4,,,64,127
63264,note_on,0,0,0,,4,,,76,127
63454,note_off,190,0,0,,4,,,76,127
63454,note_off,0,0,0,,4,,,64,127
63454,note_off,0,0,0,,4,,,52,127
63456,note_on,2,0,0,,2,,,50,127
63456,note_on,0,0,0,,2,,,62,127
63456,note_on,0,0,0,,2,,,74,127
63646,note_off,190,0,0,,2,,,74,127
63646,note_off,0,0,0,,2,,,62,127
63646,note_off,0,0,0,,2,,,50,127
63648,note_on,2,0,0,,0,,,48,127
63648,note_on,0,0,0,,0,,,60,127
63648,note_on,0,0,0,,0,,,72,127
63838,note_off,190,0,0,,0,,,72,127
63838,note_off,0,0,0,,0,,,60,127
63838,note_off,0,0,0,,0,,,48,127
63840,note_on,2,0,0,,12,,,47,127
63840,note_on,0,0,0,,12,,,59,127
63840,note_on,0,0,0,,12,,,71,127
64030,note_off,190,0,0,,12,,,71,127
64030,note_off,0,0,0,,12,,,59,127
64030,note_off,0,0,0,,12,,,47,127
64032,note_on,2,0,0,,7,,,43,127
64032,note_on,0,0,0,,7,,,55,127
64032,note_on,0,0,0,,7,,,67,127
64222,note_off,190,0,0,,7,,,67,127
64222,note_off,0,0,0,,7,,,55,127
64222,note_off,0,0,0,,7,,,43,127
64224,note_on,2,0,0,,2,,,38,127
64224,note_on,0,0,0,,2,,,50,127
64224,note_on,0,0,0,,2,,,62,127
64416,note_on,192,0,0,,2,,,74,127
64478,note_off,62,0,0,,2,,,74,127
64480,note_on,2,0,0,,0,,,72,127
64542,note_off,62,0,0,,0,,,72,127
64544,note_on,2,0,0,,12,,,71,127
64606,note_off,62,0,0,,12,,,71,127
64608,note_on,2,0,0,,10,,,69,127
64798,note_off,190,0,0,,10,,,69,127
64798,note_off,0,0,0,,2,,,50,127
64798,note_off,0,0,0,,2,,,38,127
64799,note_off,1,0,0,,2,,,62,127
64800,note_on,1,0,0,,2,,,38,127
64800,note_on,0,0,0,,2,,,74,127
64800,note_on,0,0,0,,12,,,71,127
64990,note_off,190,0,0,,12,,,71,127
64990,note_off,0,0,0,,2,,,74,127
64992,note_on,2,0,0,,10,,,69,127
64992,note_on,0,0,0,,0,,,72,127
65182,note_off,190,0,0,,0,,,72,127
65182,note_off,0,0,0,,10,,,69,127
65184,note_on,2,0,0,,7,,,67,127
65184,note_on,0,0,0,,12,,,71,127
65374,note_off,190,0,0,,12,,,71,127
65374,note_off,0,0,0,,7,,,67,127
65374,note_off,0,0,0,,2,,,38,127
65376,note_on,2,0,0,,2,,,38,127
65376,note_on,0,0,0,,10,,,69,127
65376,note_on,0,0,0,,2,,,62,127
65566,note_off,190,0,0,,10,,,69,127
65568,note_on,2,0,0,,12,,,71,127
65630,note_off,62,0,0,,12,,,71,127
65632,note_on,2,0,0,,10,,,69,127
65694,note_off,62,0,0,,10,,,69,127
65696,note_on,2,0,0,,7,,,67,127
65756,note_off,60,0,0,,2,,,62,127
65758,note_off,2,0,0,,7,,,67,127
65760,note_on,2,0,0,,0,,,60,127
65760,note_on,0,0,0,,6,,,66,127
65950,note_off,190,0,0,,6,,,66,127
65950,note_off,0,0,0,,0,,,60,127
65950,note_off,0,0,0,,2,,,38,127
65952,note_on,2,0,0,,2,,,38,127
65952,note_on,0,0,0,,7,,,67,127
65952,note_on,0,0,0,,12,,,59,127
66142,note_off,190,0,0,,12,,,59,127
66142,note_off,0,0,0,,7,,,67,127
66144,note_on,2,0,0,,10,,,57,127
66144,note_on,0,0,0,,6,,,66,127
66334,note_off,190,0,0,,6,,,66,127
66334,note_off,0,0,0,,10,,,57,127
66336,note_on,2,0,0,,7,,,67,127
66336,note_on,0,0,0,,7,,,55,127
66526,note_off,190,0,0,,7,,,55,127
66526,note_off,0,0,0,,7,,,67,127
66526,note_off,0,0,0,,2,,,38,127
66528,note_on,2,0,0,,2,,,50,127
66528,note_on,0,0,0,,10,,,69,127
66528,note_on,0,0,0,,2,,,62,127
66718,note_off,190,0,0,,2,,,62,127
66718,note_off,0,0,0,,10,,,69,127
66720,note_on,2,0,0,,2,,,62,127
66782,note_off,62,0,0,,2,,,62,127
66784,note_on,2,0,0,,0,,,60,127
66846,note_off,62,0,0,,0,,,60,127
66848,note_on,2,0,0,,12,,,59,127
66910,note_off,62,0,0,,12,,,59,127
66912,note_on,2,0,0,,10,,,57,127
67102,note_off,190,0,0,,10,,,57,127
67103,note_off,1,0,0,,2,,,50,127
67104,note_on,1,0,0,,12,,,59,127
67104,note_on,0,0,0,,2,,,62,127
67104,note_on,0,0,0,,4,,,76,127
67150,note_off,46,0,0,,4,,,76,127
67152,note_on,2,0,0,,2,,,74,127
67198,note_off,46,0,0,,2,,,74,127
67200,note_on,2,0,0,,4,,,76,127
67246,note_off,46,0,0,,4,,,76,127
67248,note_on,2,0,0,,2,,,74,127
67294,note_off,46,0,0,,2,,,62,127
67294,note_off,0,0,0,,12,,,59,127
67296,note_on,2,0,0,,0,,,60,127
67296,note_on,0,0,0,,10,,,57,127
67486,note_off,190,0,0,,10,,,57,127
67486,note_off,0,0,0,,0,,,60,127
67488,note_on,2,0,0,,12,,,59,127
67488,note_on,0,0,0,,7,,,55,127
67528,note_off,40,0,0,,2,,,74,127
67678,note_off,150,0,0,,7,,,55,127
67678,note_off,0,0,0,,12,,,59,127
67680,note_on,2,0,0,,2,,,50,127
67680,note_on,0,0,0,,10,,,57,127
67680,note_on,0,0,0,,4,,,76,127
67726,note_off,46,0,0,,4,,,76,127
67728,note_on,2,0,0,,2,,,74,127
67774,note_off,46,0,0,,2,,,74,127
67776,note_on,2,0,0,,4,,,76,127
67822,note_off,46,0,0,,4,,,76,127
67824,note_on,2,0,0,,2,,,74,127
67870,note_off,46,0,0,,10,,,57,127
67872,note_on,2,0,0,,12,,,59,127
67934,note_off,62,0,0,,12,,,59,127
67936,note_on,2,0,0,,10,,,57,127
67998,note_off,62,0,0,,10,,,57,127
68000,note_on,2,0,0,,7,,,55,127
68060,note_off,60,0,0,,2,,,50,127
68062,note_off,2,0,0,,7,,,55,127
68064,note_on,2,0,0,,6,,,54,127
68064,note_on,0,0,0,,0,,,48,127
68104,note_off,40,0,0,,2,,,74,127
68254,note_off,150,0,0,,0,,,48,127
68254,note_off,0,0,0,,6,,,54,127
68256,note_on,2,0,0,,12,,,47,127
68256,note_on,0,0,0,,7,,,55,127
68256,note_on,0,0,0,,4,,,76,127
68302,note_off,46,0,0,,4,,,76,127
68304,note_on,2,0,0,,2,,,74,127
68350,note_off,46,0,0,,2,,,74,127
68352,note_on,2,0,0,,4,,,76,127
68398,note_off,46,0,0,,4,,,76,127
68400,note_on,2,0,0,,2,,,74,127
68446,note_off,46,0,0,,7,,,55,127
68446,note_off,0,0,0,,12,,,47,127
68448,note_on,2,0,0,,10,,,45,127
68448,note_on,0,0,0,,6,,,54,127
68638,note_off,190,0,0,,6,,,54,127
68638,note_off,0,0,0,,10,,,45,127
68640,note_on,2,0,0,,7,,,55,127
68640,note_on,0,0,0,,7,,,43,127
68680,note_off,40,0,0,,2,,,74,127
68830,note_off,150,0,0,,7,,,43,127
68830,note_off,0,0,0,,7,,,55,127
68832,note_on,2,0,0,,2,,,38,127
68832,note_on,0,0,0,,2,,,50,127
68832,note_on,0,0,0,,4,,,76,127
68878,note_off,46,0,0,,4,,,76,127
68880,note_on,2,0,0,,2,,,74,127
68926,note_off,46,0,0,,2,,,74,127
68928,note_on,2,0,0,,4,,,76,127
68974,note_off,46,0,0,,4,,,76,127
68976,note_on,2,0,0,,2,,,74,127
69022,note_off,46,0,0,,2,,,50,127
69022,note_off,0,0,0,,2,,,38,127
69024,note_on,2,0,0,,2,,,50,127
69024,note_on,0,0,0,,2,,,62,127
69066,note_off,42,0,0,,2,,,74,127
69214,note_off,148,0,0,,2,,,62,127
69214,note_off,0,0,0,,2,,,50,127
69216,note_on,2,0,0,,12,,,47,127
69216,note_on,0,0,0,,12,,,59,127
69216,note_on,0,0,0,,2,,,74,127
69406,note_off,190,0,0,,2,,,74,127
69406,note_off,0,0,0,,12,,,59,127
69406,note_off,0,0,0,,12,,,47,127
69408,note_on,2,0,0,,7,,,43,127
69408,note_on,0,0,0,,7,,,55,127
69408,note_on,0,0,0,,2,,,74,127
69598,note_off,190,0,0,,2,,,74,127
69598,note_off,0,0,0,,7,,,55,127
69598,note_off,0,0,0,,7,,,43,127
69600,note_on,2,0,0,,2,,,38,127
69600,note_on,0,0,0,,2,,,50,127
69600,note_on,0,0,0,,2,,,74,127
69790,note_off,190,0,0,,2,,,74,127
69790,note_off,0,0,0,,2,,,50,127
69790,note_off,0,0,0,,2,,,38,127
69792,note_on,2,0,0,,12,,,47,127
69792,note_on,0,0,0,,12,,,35,127
69792,note_on,0,0,0,,2,,,74,127
69982,note_off,190,0,0,,2,,,74,127
69982,note_off,0,0,0,,12,,,35,127
69982,note_off,0,0,0,,12,,,47,127
69984,note_on,2,0,0,,7,,,43,127
69984,note_on,0,0,0,,7,,,31,127
69984,note_on,0,0,0,,2,,,74,127
70174,note_off,190,0,0,,2,,,74,127
70174,note_off,0,0,0,,7,,,31,127
70174,note_off,0,0,0,,7,,,43,127
70176,note_on,2,0,0,,12,,,47,127
70176,note_on,0,0,0,,12,,,35,127
70176,note_on,0,0,0,,7,,,79,127
70366,note_off,190,0,0,,7,,,79,127
70366,note_off,0,0,0,,12,,,35,127
70366,note_off,0,0,0,,12,,,47,127
70368,note_on,2,0,0,,0,,,48,127
70368,note_on,0,0,0,,0,,,36,127
70368,note_on,0,0,0,,7,,,67,127
70558,note_off,190,0,0,,7,,,67,127
70558,note_off,0,0,0,,0,,,36,127
70558,note_off,0,0,0,,0,,,48,127
70560,note_on,2,0,0,,2,,,50,127
70560,note_on,0,0,0,,7,,,67,127
70750,note_off,190,0,0,,7,,,67,127
70752,note_on,2,0,0,,7,,,67,127
70814,note_off,62,0,0,,7,,,67,127
70816,note_on,2,0,0,,6,,,66,127
70878,note_off,62,0,0,,6,,,66,127
70880,note_on,2,0,0,,7,,,67,127
70942,note_off,62,0,0,,7,,,67,127
70942,note_off,0,0,0,,2,,,50,127
70944,note_on,2,0,0,,2,,,38,127
70944,note_on,0,0,0,,6,,,66,127
71006,note_off,62,0,0,,6,,,66,127
71008,note_on,2,0,0,,4,,,64,127
71070,note_off,62,0,0,,4,,,64,127
71072,note_on,2,0,0,,6,,,66,127
71134,note_off,62,0,0,,6,,,66,127
71134,note_off,0,0,0,,2,,,38,127
71136,note_on,2,0,0,,7,,,43,127
71136,note_on,0,0,0,,7,,,67,127
71326,note_off,190,0,0,,7,,,67,127
71328,note_on,2,0,0,,7,,,79,127
71328,note_on,0,0,0,,2,,,86,127
71518,note_off,190,0,0,,7,,,79,127
71520,note_on,2,0,0,,6,,,78,127
71708,note_off,188,0,0,,2,,,86,127
71710,note_off,2,0,0,,6,,,78,127
71710,note_off,0,0,0,,7,,,43,127
71712,note_on,2,0,0,,7,,,43,127
71712,note_on,0,0,0,,0,,,84,127
71712,note_on,0,0,0,,4,,,76,127
71902,note_off,190,0,0,,4,,,76,127
71902,note_off,0,0,0,,0,,,84,127
71904,note_on,2,0,0,,12,,,83,127
71904,note_on,0,0,0,,2,,,74,127
72094,note_off,190,0,0,,2,,,74,127
72094,note_off,0,0,0,,12,,,83,127
72096,note_on,2,0,0,,10,,,81,127
72096,note_on,0,0,0,,0,,,72,127
72286,note_off,190,0,0,,0,,,72,127
72286,note_off,0,0,0,,10,,,81,127
72286,note_off,0,0,0,,7,,,43,127
72288,note_on,2,0,0,,7,,,43,127
72288,note_on,0,0,0,,7,,,79,127
72288,note_on,0,0,0,,12,,,71,127
72478,note_off,190,0,0,,12,,,71,127
72478,note_off,0,0,0,,7,,,79,127
72480,note_on,2,0,0,,2,,,74,127
72480,note_on,0,0,0,,7,,,67,127
72670,note_off,190,0,0,,7,,,67,127
72672,note_on,2,0,0,,6,,,66,127
72860,note_off,188,0,0,,2,,,74,127
72862,note_off,2,0,0,,6,,,66,127
72862,note_off,0,0,0,,7,,,43,127
72864,note_on,2,0,0,,7,,,43,127
72864,note_on,0,0,0,,0,,,72,127
72864,note_on,0,0,0,,4,,,64,127
73054,note_off,190,0,0,,4,,,64,127
73054,note_off,0,0,0,,0,,,72,127
73056,note_on,2,0,0,,12,,,71,127
73056,note_on,0,0,0,,2,,,62,127
73246,note_off,190,0,0,,2,,,62,127
73246,note_off,0,0,0,,12,,,71,127
73248,note_on,2,0,0,,10,,,69,127
73248,note_on,0,0,0,,0,,,60,127
73438,note_off,190,0,0,,0,,,60,127
73438,note_off,0,0,0,,10,,,69,127
73438,note_off,0,0,0,,7,,,43,127
73440,note_on,2,0,0,,7,,,43,127
73440,note_on,0,0,0,,7,,,67,127
73440,note_on,0,0,0,,12,,,59,127
73630,note_off,190,0,0,,12,,,59,127
73630,note_off,0,0,0,,7,,,67,127
73630,note_off,0,0,0,,7,,,43,127
73632,note_on,2,0,0,,7,,,55,127
73632,note_on,0,0,0,,2,,,62,127
73822,note_off,190,0,0,,7,,,55,127
73824,note_on,2,0,0,,6,,,54,127
74012,note_off,188,0,0,,2,,,62,127
74014,note_off,2,0,0,,6,,,54,127
74016,note_on,2,0,0,,4,,,52,127
74016,note_on,0,0,0,,0,,,60,127
74206,note_off,190,0,0,,0,,,60,127
74206,note_off,0,0,0,,4,,,52,127
74208,note_on,2,0,0,,2,,,50,127
74208,note_on,0,0,0,,12,,,59,127
74398,note_off,190,0,0,,12,,,59,127
74398,note_off,0,0,0,,2,,,50,127
74400,note_on,2,0,0,,0,,,48,127
74400,note_on,0,0,0,,10,,,57,127
74590,note_off,190,0,0,,10,,,57,127
74590,note_off,0,0,0,,0,,,48,127
74592,note_on,2,0,0,,12,,,47,127
74592,note_on,0,0,0,,7,,,55,127
74592,note_on,0,0,0,,12,,,59,127
74686,note_off,94,0,0,,12,,,59,127
74688,note_on,2,0,0,,7,,,67,127
74782,note_off,94,0,0,,7,,,67,127
74784,note_on,2,0,0,,0,,,60,127
74878,note_off,94,0,0,,0,,,60,127
74880,note_on,2,0,0,,10,,,69,127
74974,note_off,94,0,0,,10,,,69,127
74976,note_on,2,0,0,,2,,,62,127
75070,note_off,94,0,0,,2,,,62,127
75072,note_on,2,0,0,,12,,,71,127
75166,note_off,94,0,0,,12,,,71,127
75166,note_off,0,0,0,,7,,,55,127
75166,note_off,0,0,0,,12,,,47,127
75168,note_on,2,0,0,,12,,,47,127
75168,note_on,0,0,0,,7,,,55,127
75168,note_on,0,0,0,,4,,,64,127
75262,note_off,94,0,0,,4,,,64,127
75264,note_on,2,0,0,,0,,,72,127
75358,note_off,94,0,0,,0,,,72,127
75360,note_on,2,0,0,,6,,,66,127
75454,note_off,94,0,0,,6,,,66,127
75456,note_on,2,0,0,,2,,,74,127
75550,note_off,94,0,0,,2,,,74,127
75552,note_on,2,0,0,,7,,,67,127
75646,note_off,94,0,0,,7,,,67,127
75648,note_on,2,0,0,,4,,,76,127
75742,note_off,94,0,0,,4,,,76,127
75742,note_off,0,0,0,,7,,,55,127
75742,note_off,0,0,0,,12,,,47,127
75744,note_on,2,0,0,,12,,,47,127
75744,note_on,0,0,0,,7,,,55,127
75744,note_on,0,0,0,,10,,,69,127
75838,note_off,94,0,0,,10,,,69,127
75840,note_on,2,0,0,,6,,,78,127
75934,note_off,94,0,0,,6,,,78,127
75936,note_on,2,0,0,,12,,,71,127
76030,note_off,94,0,0,,12,,,71,127
76032,note_on,2,0,0,,7,,,79,127
76126,note_off,94,0,0,,7,,,79,127
76128,note_on,2,0,0,,2,,,74,127
76318,note_off,190,0,0,,2,,,74,127
76318,note_off,0,0,0,,7,,,55,127
76318,note_off,0,0,0,,12,,,47,127
76320,note_on,2,0,0,,0,,,48,127
76320,note_on,0,0,0,,7,,,67,127
76510,note_off,190,0,0,,0,,,48,127
76512,note_on,2,0,0,,2,,,50,127
76702,note_off,190,0,0,,2,,,50,127
76702,note_off,0,0,0,,7,,,67,127
76704,note_on,2,0,0,,0,,,48,127
76704,note_on,0,0,0,,7,,,67,127
76750,note_off,46,0,0,,7,,,67,127
76752,note_on,2,0,0,,6,,,66,127
76798,note_off,46,0,0,,6,,,66,127
76800,note_on,2,0,0,,4,,,64,127
76846,note_off,46,0,0,,4,,,64,127
76848,note_on,2,0,0,,6,,,66,127
76894,note_off,46,0,0,,6,,,66,127
76894,note_off,0,0,0,,0,,,48,127
76896,note_on,2,0,0,,12,,,47,127
76896,note_on,0,0,0,,7,,,55,127
76896,note_on,0,0,0,,12,,,71,127
76990,note_off,94,0,0,,12,,,71,127
76992,note_on,2,0,0,,7,,,79,127
77086,note_off,94,0,0,,7,,,79,127
77088,note_on,2,0,0,,0,,,72,127
77182,note_off,94,0,0,,0,,,72,127
77184,note_on,2,0,0,,10,,,81,127
77278,note_off,94,0,0,,10,,,81,127
77280,note_on,2,0,0,,2,,,74,127
77374,note_off,94,0,0,,2,,,74,127
77376,note_on,2,0,0,,12,,,83,127
77470,note_off,94,0,0,,12,,,83,127
77470,note_off,0,0,0,,7,,,55,127
77470,note_off,0,0,0,,12,,,47,127
77472,note_on,2,0,0,,12,,,47,127
77472,note_on,0,0,0,,7,,,55,127
77472,note_on,0,0,0,,4,,,76,127
77566,note_off,94,0,0,,4,,,76,127
77568,note_on,2,0,0,,0,,,84,127
77662,note_off,94,0,0,,0,,,84,127
77664,note_on,2,0,0,,6,,,78,127
77758,note_off,94,0,0,,6,,,78,127
77760,note_on,2,0,0,,2,,,86,127
77854,note_off,94,0,0,,2,,,86,127
77856,note_on,2,0,0,,7,,,79,127
77950,note_off,94,0,0,,7,,,79,127
77952,note_on,2,0,0,,4,,,88,127
78046,note_off,94,0,0,,4,,,88,127
78046,note_off,0,0,0,,7,,,55,127
78046,note_off,0,0,0,,12,,,47,127
78048,note_on,2,0,0,,12,,,47,127
78048,note_on,0,0,0,,7,,,55,127
78048,note_on,0,0,0,,10,,,81,127
78142,note_off,94,0,0,,10,,,81,127
78144,note_on,2,0,0,,6,,,90,127
78238,note_off,94,0,0,,6,,,90,127
78240,note_on,2,0,0,,12,,,83,127
78334,note_off,94,0,0,,12,,,83,127
78336,note_on,2,0,0,,7,,,91,127
78430,note_off,94,0,0,,7,,,91,127
78432,note_on,2,0,0,,2,,,86,127
78622,note_off,190,0,0,,2,,,86,127
78622,note_off,0,0,0,,7,,,55,127
78622,note_off,0,0,0,,12,,,47,127
78624,note_on,2,0,0,,0,,,48,127
78624,note_on,0,0,0,,7,,,79,127
78814,note_off,190,0,0,,0,,,48,127
78816,note_on,2,0,0,,2,,,50,127
79006,note_off,190,0,0,,2,,,50,127
79006,note_off,0,0,0,,7,,,79,127
79008,note_on,2,0,0,,2,,,38,127
79008,note_on,0,0,0,,7,,,79,127
79054,note_off,46,0,0,,7,,,79,127
79056,note_on,2,0,0,,6,,,78,127
79102,note_off,46,0,0,,6,,,78,127
79104,note_on,2,0,0,,4,,,76,127
79150,note_off,46,0,0,,4,,,76,127
79152,note_on,2,0,0,,6,,,78,127
79198,note_off,46,0,0,,6,,,78,127
79198,note_off,0,0,0,,2,,,38,127
79200,note_on,2,0,0,,7,,,43,127
79200,note_on,0,0,0,,6,,,78,127
79584,note_on,384,0,0,,7,,,31,127
79968,note_off,384,0,0,,6,,,78,127
79968,note_off,0,0,0,,7,,,43,127
79968,note_on,0,0,0,,7,,,79,127
81408,note_off,1440,0,0,,7,,,79,127
81408,note_off,0,0,0,,7,,,31,127
82944,end_of_track,1536,1,0,,,,,,
