tick,type,time,meta,track,program,channel,pitch,tempo,note,velocity
0,copyright,0,1,0,,,,,,
0,program_change,0,0,0,6,0,,,,
0,pitchwheel,0,0,0,,0,0,,,
0,program_change,0,0,0,6,1,,,,
0,pitchwheel,0,0,0,,1,-590,,,
0,program_change,0,0,0,6,2,,,,
0,pitchwheel,0,0,0,,2,-272,,,
0,program_change,0,0,0,6,3,,,,
0,pitchwheel,0,0,0,,3,-353,,,
0,program_change,0,0,0,6,4,,,,
0,pitchwheel,0,0,0,,4,-560,,,
0,program_change,0,0,0,6,5,,,,
0,pitchwheel,0,0,0,,5,-80,,,
0,program_change,0,0,0,6,6,,,,
0,pitchwheel,0,0,0,,6,-625,,,
0,program_change,0,0,0,6,7,,,,
0,pitchwheel,0,0,0,,7,-130,,,
0,program_change,0,0,0,6,8,,,,
0,pitchwheel,0,0,0,,8,-512,,,
0,program_change,0,0,0,6,10,,,,
0,pitchwheel,0,0,0,,10,-464,,,
0,program_change,0,0,0,6,11,,,,
0,pitchwheel,0,0,0,,11,-208,,,
0,program_change,0,0,0,6,12,,,,
0,pitchwheel,0,0,0,,12,-553,,,
0,set_tempo,0,1,0,,,,500000,,
107,note_on,107,0,0,,7,,,79,127
319,note_off,212,0,0,,7,,,79,127
320,note_on,1,0,0,,2,,,74,127
498,note_off,178,0,0,,2,,,74,127
534,note_on,36,0,0,,12,,,83,127
746,note_off,212,0,0,,12,,,83,127
747,note_on,1,0,0,,7,,,79,127
925,note_off,178,0,0,,7,,,79,127
961,note_on,36,0,0,,7,,,67,127
961,note_on,0,0,0,,2,,,86,127
1173,note_off,212,0,0,,7,,,67,127
1174,note_on,1,0,0,,2,,,62,127
1386,note_off,212,0,0,,2,,,62,127
1387,note_on,1,0,0,,12,,,71,127
1599,note_off,212,0,0,,12,,,71,127
1600,note_on,1,0,0,,7,,,67,127
1812,note_off,212,0,0,,7,,,67,127
1812,note_off,0,0,0,,2,,,86,127
1813,note_on,1,0,0,,2,,,74,127
2026,note_on,213,0,0,,6,,,78,127
2238,note_off,212,0,0,,6,,,78,127
2239,note_on,1,0,0,,6,,,78,127
2451,note_off,212,0,0,,6,,,78,127
2451,note_off,0,0,0,,2,,,74,127
2452,note_on,1,0,0,,0,,,72,127
2452,note_on,0,0,0,,4,,,76,127
2664,note_off,212,0,0,,4,,,76,127
2665,note_on,1,0,0,,2,,,74,127
2869,note_off,204,0,0,,2,,,74,127
2877,note_off,8,0,0,,0,,,72,127
2878,note_on,1,0,0,,12,,,71,127
2878,note_on,0,0,0,,12,,,83,127
2984,note_off,106,0,0,,12,,,83,127
2985,note_on,1,0,0,,2,,,74,127
3091,note_off,106,0,0,,2,,,74,127
3092,note_on,1,0,0,,2,,,74,127
3144,note_off,52,0,0,,2,,,74,127
3145,note_on,1,0,0,,0,,,72,127
3197,note_off,52,0,0,,0,,,72,127
3198,note_on,1,0,0,,2,,,74,127
3250,note_off,52,0,0,,2,,,74,127
3251,note_on,1,0,0,,0,,,72,127
3303,note_off,52,0,0,,0,,,72,127
3303,note_off,0,0,0,,12,,,71,127
3304,note_on,1,0,0,,10,,,69,127
3304,note_on,0,0,0,,2,,,74,127
3356,note_off,52,0,0,,2,,,74,127
3357,note_on,1,0,0,,0,,,72,127
3409,note_off,52,0,0,,0,,,72,127
3410,note_on,1,0,0,,12,,,71,127
3462,note_off,52,0,0,,12,,,71,127
3463,note_on,1,0,0,,0,,,72,127
3515,note_off,52,0,0,,0,,,72,127
3516,note_on,1,0,0,,12,,,71,127
3720,note_off,204,0,0,,12,,,71,127
3728,note_off,8,0,0,,10,,,69,127
3729,note_on,1,0,0,,7,,,67,127
3729,note_on,0,0,0,,7,,,79,127
3835,note_off,106,0,0,,7,,,79,127
3836,note_on,1,0,0,,12,,,71,127
3942,note_off,106,0,0,,12,,,71,127
3943,note_on,1,0,0,,12,,,71,127
3995,note_off,52,0,0,,12,,,71,127
3996,note_on,1,0,0,,10,,,69,127
4048,note_off,52,0,0,,10,,,69,127
4049,note_on,1,0,0,,12,,,71,127
4101,note_off,52,0,0,,12,,,71,127
4102,note_on,1,0,0,,10,,,69,127
4154,note_off,52,0,0,,10,,,69,127
4154,note_off,0,0,0,,7,,,67,127
4155,note_on,1,0,0,,6,,,66,127
4155,note_on,0,0,0,,12,,,71,127
4207,note_off,52,0,0,,12,,,71,127
4208,note_on,1,0,0,,10,,,69,127
4260,note_off,52,0,0,,10,,,69,127
4261,note_on,1,0,0,,7,,,67,127
4312,note_on,51,0,0,,10,,,69,127
4313,note_off,1,0,0,,7,,,67,127
4362,note_off,49,0,0,,10,,,69,127
4366,note_off,4,0,0,,6,,,66,127
4367,note_on,1,0,0,,7,,,67,127
4367,note_on,0,0,0,,12,,,71,127
4419,note_off,52,0,0,,12,,,71,127
4420,note_on,1,0,0,,0,,,72,127
4472,note_off,52,0,0,,0,,,72,127
4473,note_on,1,0,0,,2,,,74,127
4579,note_off,106,0,0,,7,,,67,127
4580,note_on,1,0,0,,12,,,59,127
4792,note_off,212,0,0,,12,,,59,127
4793,note_on,1,0,0,,0,,,60,127
5005,note_off,212,0,0,,0,,,60,127
5006,note_on,1,0,0,,6,,,66,127
5006,note_on,0,0,0,,2,,,62,127
5206,note_off,200,0,0,,2,,,74,127
5218,note_off,12,0,0,,2,,,62,127
5218,note_off,0,0,0,,6,,,66,127
5219,note_on,1,0,0,,7,,,67,127
5219,note_on,0,0,0,,12,,,71,127
5271,note_off,52,0,0,,12,,,71,127
5272,note_on,1,0,0,,0,,,72,127
5324,note_off,52,0,0,,0,,,72,127
5325,note_on,1,0,0,,2,,,74,127
5431,note_off,106,0,0,,7,,,67,127
5432,note_on,1,0,0,,12,,,59,127
5644,note_off,212,0,0,,12,,,59,127
5645,note_on,1,0,0,,0,,,60,127
5857,note_off,212,0,0,,0,,,60,127
5858,note_on,1,0,0,,6,,,66,127
5858,note_on,0,0,0,,2,,,62,127
6058,note_off,200,0,0,,2,,,74,127
6070,note_off,12,0,0,,2,,,62,127
6070,note_off,0,0,0,,6,,,66,127
6071,note_on,1,0,0,,7,,,67,127
6071,note_on,0,0,0,,12,,,71,127
6123,note_off,52,0,0,,12,,,71,127
6124,note_on,1,0,0,,0,,,72,127
6176,note_off,52,0,0,,0,,,72,127
6177,note_on,1,0,0,,2,,,74,127
6283,note_off,106,0,0,,7,,,67,127
6284,note_on,1,0,0,,12,,,59,127
6496,note_off,212,0,0,,12,,,59,127
6497,note_on,1,0,0,,0,,,60,127
6709,note_off,212,0,0,,0,,,60,127
6709,note_off,0,0,0,,2,,,74,127
6710,note_on,1,0,0,,2,,,62,127
6710,note_on,0,0,0,,6,,,66,127
6710,note_on,0,0,0,,0,,,72,127
6922,note_off,212,0,0,,0,,,72,127
6922,note_off,0,0,0,,6,,,66,127
6922,note_off,0,0,0,,2,,,62,127
6923,note_on,1,0,0,,7,,,55,127
6923,note_on,0,0,0,,12,,,71,127
7029,note_off,106,0,0,,12,,,71,127
7030,note_on,1,0,0,,10,,,69,127
7136,note_off,106,0,0,,10,,,69,127
7137,note_on,1,0,0,,7,,,67,127
7243,note_off,106,0,0,,7,,,67,127
7244,note_on,1,0,0,,6,,,66,127
7350,note_off,106,0,0,,6,,,66,127
7350,note_off,0,0,0,,7,,,55,127
7351,note_on,1,0,0,,7,,,43,127
7351,note_on,0,0,0,,6,,,66,127
7563,note_off,212,0,0,,6,,,66,127
7564,note_on,1,0,0,,7,,,67,127
7776,note_off,212,0,0,,7,,,67,127
7776,note_off,0,0,0,,7,,,43,127
7777,note_on,1,0,0,,4,,,76,127
7825,note_on,48,0,0,,2,,,74,127
7864,note_off,39,0,0,,4,,,76,127
7872,note_on,8,0,0,,4,,,76,127
7912,note_off,40,0,0,,2,,,74,127
7920,note_on,8,0,0,,2,,,74,127
7959,note_off,39,0,0,,4,,,76,127
7968,note_on,9,0,0,,4,,,76,127
8007,note_off,39,0,0,,2,,,74,127
8015,note_on,8,0,0,,2,,,74,127
8055,note_off,40,0,0,,4,,,76,127
8063,note_on,8,0,0,,0,,,72,127
8102,note_off,39,0,0,,2,,,74,127
8111,note_on,9,0,0,,2,,,74,127
8150,note_off,39,0,0,,0,,,72,127
8158,note_on,8,0,0,,4,,,76,127
8198,note_off,40,0,0,,2,,,74,127
8206,note_on,8,0,0,,2,,,74,127
8245,note_off,39,0,0,,4,,,76,127
8418,note_off,173,0,0,,2,,,74,127
8419,note_on,1,0,0,,2,,,74,127
8419,note_on,0,0,0,,12,,,83,127
8631,note_off,212,0,0,,12,,,83,127
8631,note_off,0,0,0,,2,,,74,127
8632,note_on,1,0,0,,10,,,81,127
8632,note_on,0,0,0,,0,,,72,127
8844,note_off,212,0,0,,0,,,72,127
8844,note_off,0,0,0,,10,,,81,127
8845,note_on,1,0,0,,7,,,79,127
8845,note_on,0,0,0,,12,,,71,127
9057,note_off,212,0,0,,12,,,71,127
9057,note_off,0,0,0,,7,,,79,127
9058,note_on,1,0,0,,6,,,78,127
9058,note_on,0,0,0,,10,,,69,127
9270,note_off,212,0,0,,10,,,69,127
9270,note_off,0,0,0,,6,,,78,127
9271,note_on,1,0,0,,4,,,76,127
9271,note_on,0,0,0,,7,,,67,127
9483,note_off,212,0,0,,7,,,67,127
9483,note_off,0,0,0,,4,,,76,127
9484,note_on,1,0,0,,4,,,64,127
9484,note_on,0,0,0,,2,,,74,127
9484,note_on,0,0,0,,6,,,66,127
9532,note_on,48,0,0,,2,,,62,127
9571,note_off,39,0,0,,4,,,64,127
9579,note_on,8,0,0,,4,,,64,127
9619,note_off,40,0,0,,2,,,62,127
9627,note_on,8,0,0,,2,,,62,127
9666,note_off,39,0,0,,4,,,64,127
9675,note_on,9,0,0,,4,,,64,127
9714,note_off,39,0,0,,2,,,62,127
9722,note_on,8,0,0,,2,,,62,127
9762,note_off,40,0,0,,4,,,64,127
9770,note_on,8,0,0,,0,,,60,127
9809,note_off,39,0,0,,2,,,62,127
9818,note_on,9,0,0,,2,,,62,127
9857,note_off,39,0,0,,0,,,60,127
9865,note_on,8,0,0,,4,,,64,127
9905,note_off,40,0,0,,2,,,62,127
9913,note_on,8,0,0,,2,,,62,127
9952,note_off,39,0,0,,4,,,64,127
10125,note_off,173,0,0,,2,,,62,127
10125,note_off,0,0,0,,6,,,66,127
10126,note_on,1,0,0,,12,,,59,127
10126,note_on,0,0,0,,7,,,67,127
10338,note_off,212,0,0,,7,,,67,127
10338,note_off,0,0,0,,12,,,59,127
10339,note_on,1,0,0,,6,,,66,127
10339,note_on,0,0,0,,10,,,57,127
10551,note_off,212,0,0,,10,,,57,127
10551,note_off,0,0,0,,6,,,66,127
10552,note_on,1,0,0,,4,,,64,127
10552,note_on,0,0,0,,7,,,55,127
10764,note_off,212,0,0,,7,,,55,127
10764,note_off,0,0,0,,4,,,64,127
10764,note_off,0,0,0,,2,,,74,127
10765,note_on,1,0,0,,6,,,54,127
10765,note_on,0,0,0,,2,,,62,127
10977,note_off,212,0,0,,2,,,62,127
10977,note_off,0,0,0,,6,,,54,127
10978,note_on,1,0,0,,2,,,50,127
10978,note_on,0,0,0,,0,,,60,127
11190,note_off,212,0,0,,0,,,60,127
11190,note_off,0,0,0,,2,,,50,127
11191,note_on,1,0,0,,7,,,55,127
11191,note_on,0,0,0,,2,,,62,127
11191,note_on,0,0,0,,3,,,75,127
11239,note_on,48,0,0,,2,,,74,127
11278,note_off,39,0,0,,3,,,75,127
11286,note_on,8,0,0,,3,,,75,127
11326,note_off,40,0,0,,2,,,74,127
11334,note_on,8,0,0,,2,,,74,127
11373,note_off,39,0,0,,3,,,75,127
11382,note_on,9,0,0,,3,,,75,127
11421,note_off,39,0,0,,2,,,74,127
11429,note_on,8,0,0,,2,,,74,127
11469,note_off,40,0,0,,3,,,75,127
11477,note_on,8,0,0,,0,,,72,127
11516,note_off,39,0,0,,2,,,74,127
11525,note_on,9,0,0,,2,,,74,127
11564,note_off,39,0,0,,0,,,72,127
11572,note_on,8,0,0,,3,,,75,127
11612,note_off,40,0,0,,2,,,74,127
11620,note_on,8,0,0,,2,,,74,127
11659,note_off,39,0,0,,3,,,75,127
11832,note_off,173,0,0,,2,,,74,127
11832,note_off,0,0,0,,2,,,62,127
11833,note_on,1,0,0,,2,,,74,127
11833,note_on,0,0,0,,11,,,82,127
12045,note_off,212,0,0,,11,,,82,127
12045,note_off,0,0,0,,2,,,74,127
12046,note_on,1,0,0,,10,,,81,127
12046,note_on,0,0,0,,0,,,72,127
12258,note_off,212,0,0,,0,,,72,127
12258,note_off,0,0,0,,10,,,81,127
12259,note_on,1,0,0,,11,,,70,127
12259,note_on,0,0,0,,7,,,79,127
12471,note_off,212,0,0,,7,,,79,127
12471,note_off,0,0,0,,11,,,70,127
12471,note_off,0,0,0,,7,,,55,127
12472,note_on,1,0,0,,5,,,77,127
12472,note_on,0,0,0,,10,,,69,127
12684,note_off,212,0,0,,10,,,69,127
12684,note_off,0,0,0,,5,,,77,127
12685,note_on,1,0,0,,3,,,75,127
12685,note_on,0,0,0,,7,,,67,127
12897,note_off,212,0,0,,7,,,67,127
12897,note_off,0,0,0,,3,,,75,127
12898,note_on,1,0,0,,3,,,63,127
12898,note_on,0,0,0,,2,,,74,127
12898,note_on,0,0,0,,6,,,66,127
12946,note_on,48,0,0,,2,,,62,127
12985,note_off,39,0,0,,3,,,63,127
12993,note_on,8,0,0,,3,,,63,127
13033,note_off,40,0,0,,2,,,62,127
13041,note_on,8,0,0,,2,,,62,127
13080,note_off,39,0,0,,3,,,63,127
13089,note_on,9,0,0,,3,,,63,127
13128,note_off,39,0,0,,2,,,62,127
13136,note_on,8,0,0,,2,,,62,127
13176,note_off,40,0,0,,3,,,63,127
13184,note_on,8,0,0,,0,,,60,127
13223,note_off,39,0,0,,2,,,62,127
13232,note_on,9,0,0,,2,,,62,127
13271,note_off,39,0,0,,0,,,60,127
13279,note_on,8,0,0,,3,,,63,127
13319,note_off,40,0,0,,2,,,62,127
13327,note_on,8,0,0,,2,,,62,127
13366,note_off,39,0,0,,3,,,63,127
13539,note_off,173,0,0,,2,,,62,127
13539,note_off,0,0,0,,6,,,66,127
13540,note_on,1,0,0,,11,,,58,127
13540,note_on,0,0,0,,7,,,67,127
13752,note_off,212,0,0,,7,,,67,127
13752,note_off,0,0,0,,11,,,58,127
13753,note_on,1,0,0,,10,,,57,127
13753,note_on,0,0,0,,6,,,66,127
13965,note_off,212,0,0,,6,,,66,127
13965,note_off,0,0,0,,10,,,57,127
13966,note_on,1,0,0,,7,,,55,127
13966,note_on,0,0,0,,3,,,63,127
14178,note_off,212,0,0,,3,,,63,127
14178,note_off,0,0,0,,7,,,55,127
14178,note_off,0,0,0,,2,,,74,127
14179,note_on,1,0,0,,6,,,54,127
14179,note_on,0,0,0,,2,,,62,127
14391,note_off,212,0,0,,2,,,62,127
14391,note_off,0,0,0,,6,,,54,127
14392,note_on,1,0,0,,2,,,50,127
14392,note_on,0,0,0,,0,,,60,127
14604,note_off,212,0,0,,0,,,60,127
14604,note_off,0,0,0,,2,,,50,127
14605,note_on,1,0,0,,2,,,62,127
14605,note_on,0,0,0,,7,,,55,127
14605,note_on,0,0,0,,3,,,75,127
14653,note_on,48,0,0,,2,,,74,127
14692,note_off,39,0,0,,3,,,75,127
14700,note_on,8,0,0,,3,,,75,127
14740,note_off,40,0,0,,2,,,74,127
14748,note_on,8,0,0,,2,,,74,127
14787,note_off,39,0,0,,3,,,75,127
14796,note_on,9,0,0,,3,,,75,127
14835,note_off,39,0,0,,2,,,74,127
14843,note_on,8,0,0,,2,,,74,127
14883,note_off,40,0,0,,3,,,75,127
14891,note_on,8,0,0,,0,,,72,127
14930,note_off,39,0,0,,2,,,74,127
14939,note_on,9,0,0,,2,,,74,127
14978,note_off,39,0,0,,0,,,72,127
14986,note_on,8,0,0,,3,,,75,127
15026,note_off,40,0,0,,2,,,74,127
15034,note_on,8,0,0,,2,,,74,127
15073,note_off,39,0,0,,3,,,75,127
15246,note_off,173,0,0,,2,,,74,127
15246,note_off,0,0,0,,2,,,62,127
15247,note_on,1,0,0,,2,,,74,127
15247,note_on,0,0,0,,11,,,82,127
15459,note_off,212,0,0,,11,,,82,127
15459,note_off,0,0,0,,2,,,74,127
15460,note_on,1,0,0,,10,,,81,127
15460,note_on,0,0,0,,0,,,72,127
15672,note_off,212,0,0,,0,,,72,127
15672,note_off,0,0,0,,10,,,81,127
15673,note_on,1,0,0,,7,,,79,127
15673,note_on,0,0,0,,11,,,70,127
15885,note_off,212,0,0,,11,,,70,127
15885,note_off,0,0,0,,7,,,79,127
15886,note_on,1,0,0,,5,,,77,127
15886,note_on,0,0,0,,10,,,69,127
16098,note_off,212,0,0,,10,,,69,127
16098,note_off,0,0,0,,5,,,77,127
16099,note_on,1,0,0,,7,,,67,127
16099,note_on,0,0,0,,3,,,75,127
16272,note_off,173,0,0,,7,,,55,127
16311,note_off,39,0,0,,3,,,75,127
16311,note_off,0,0,0,,7,,,67,127
16312,note_on,1,0,0,,0,,,60,127
16312,note_on,0,0,0,,2,,,74,127
16312,note_on,0,0,0,,5,,,65,127
16360,note_on,48,0,0,,11,,,58,127
16399,note_off,39,0,0,,0,,,60,127
16407,note_on,8,0,0,,0,,,60,127
16447,note_off,40,0,0,,11,,,58,127
16455,note_on,8,0,0,,11,,,58,127
16494,note_off,39,0,0,,0,,,60,127
16503,note_on,9,0,0,,0,,,60,127
16542,note_off,39,0,0,,11,,,58,127
16550,note_on,8,0,0,,11,,,58,127
16590,note_off,40,0,0,,0,,,60,127
16598,note_on,8,0,0,,10,,,57,127
16637,note_off,39,0,0,,11,,,58,127
16646,note_on,9,0,0,,11,,,58,127
16685,note_off,39,0,0,,10,,,57,127
16693,note_on,8,0,0,,0,,,60,127
16733,note_off,40,0,0,,11,,,58,127
16741,note_on,8,0,0,,11,,,58,127
16780,note_off,39,0,0,,0,,,60,127
16953,note_off,173,0,0,,11,,,58,127
16953,note_off,0,0,0,,5,,,65,127
16954,note_on,1,0,0,,5,,,53,127
16954,note_on,0,0,0,,2,,,62,127
17166,note_off,212,0,0,,2,,,62,127
17166,note_off,0,0,0,,5,,,53,127
17167,note_on,1,0,0,,4,,,52,127
17167,note_on,0,0,0,,1,,,61,127
17379,note_off,212,0,0,,1,,,61,127
17379,note_off,0,0,0,,4,,,52,127
17379,note_off,0,0,0,,2,,,74,127
17380,note_on,1,0,0,,2,,,50,127
17380,note_on,0,0,0,,11,,,58,127
17380,note_on,0,0,0,,2,,,74,127
17592,note_off,212,0,0,,2,,,74,127
17592,note_off,0,0,0,,11,,,58,127
17592,note_off,0,0,0,,2,,,50,127
17593,note_on,1,0,0,,10,,,57,127
17593,note_on,0,0,0,,1,,,49,127
17593,note_on,0,0,0,,4,,,76,127
17805,note_off,212,0,0,,1,,,49,127
17805,note_off,0,0,0,,10,,,57,127
17806,note_on,1,0,0,,10,,,45,127
17806,note_on,0,0,0,,7,,,55,127
18018,note_off,212,0,0,,7,,,55,127
18018,note_off,0,0,0,,10,,,45,127
18018,note_off,0,0,0,,4,,,76,127
18019,note_on,1,0,0,,2,,,50,127
18019,note_on,0,0,0,,5,,,53,127
18019,note_on,0,0,0,,5,,,77,127
18125,note_off,106,0,0,,5,,,77,127
18126,note_on,1,0,0,,4,,,76,127
18232,note_off,106,0,0,,4,,,76,127
18233,note_on,1,0,0,,2,,,74,127
18339,note_off,106,0,0,,2,,,74,127
18340,note_on,1,0,0,,0,,,72,127
18446,note_off,106,0,0,,0,,,72,127
18447,note_on,1,0,0,,11,,,70,127
18447,note_on,0,0,0,,5,,,77,127
18659,note_off,212,0,0,,11,,,70,127
18660,note_on,1,0,0,,10,,,69,127
18872,note_off,212,0,0,,10,,,69,127
18872,note_off,0,0,0,,5,,,53,127
18872,note_off,0,0,0,,2,,,50,127
18873,note_on,1,0,0,,4,,,40,127
18873,note_on,0,0,0,,4,,,52,127
18873,note_on,0,0,0,,8,,,68,127
19085,note_off,212,0,0,,5,,,77,127
19086,note_on,1,0,0,,4,,,76,127
19298,note_off,212,0,0,,8,,,68,127
19299,note_on,1,0,0,,7,,,67,127
19511,note_off,212,0,0,,4,,,76,127
19512,note_on,1,0,0,,2,,,74,127
19724,note_off,212,0,0,,2,,,74,127
19724,note_off,0,0,0,,4,,,52,127
19724,note_off,0,0,0,,4,,,40,127
19725,note_on,1,0,0,,10,,,45,127
19725,note_on,0,0,0,,10,,,33,127
19725,note_on,0,0,0,,1,,,73,127
19831,note_off,106,0,0,,1,,,73,127
19832,note_on,1,0,0,,12,,,71,127
19938,note_off,106,0,0,,12,,,71,127
19939,note_on,1,0,0,,1,,,73,127
20045,note_off,106,0,0,,1,,,73,127
20046,note_on,1,0,0,,2,,,74,127
20152,note_off,106,0,0,,2,,,74,127
20153,note_on,1,0,0,,4,,,76,127
20365,note_off,212,0,0,,7,,,67,127
20366,note_on,1,0,0,,4,,,64,127
20578,note_off,212,0,0,,4,,,64,127
20578,note_off,0,0,0,,10,,,33,127
20578,note_off,0,0,0,,10,,,45,127
20579,note_on,1,0,0,,2,,,38,127
20579,note_on,0,0,0,,2,,,50,127
20579,note_on,0,0,0,,5,,,65,127
20791,note_off,212,0,0,,4,,,76,127
20792,note_on,1,0,0,,1,,,73,127
21004,note_off,212,0,0,,1,,,73,127
21005,note_on,1,0,0,,2,,,74,127
21217,note_off,212,0,0,,5,,,65,127
21218,note_on,1,0,0,,10,,,69,127
21430,note_off,212,0,0,,10,,,69,127
21430,note_off,0,0,0,,2,,,74,127
21430,note_off,0,0,0,,2,,,50,127
21430,note_off,0,0,0,,2,,,38,127
21431,note_on,1,0,0,,7,,,43,127
21431,note_on,0,0,0,,7,,,55,127
21431,note_on,0,0,0,,11,,,70,127
21537,note_off,106,0,0,,11,,,70,127
21538,note_on,1,0,0,,10,,,69,127
21644,note_off,106,0,0,,10,,,69,127
21645,note_on,1,0,0,,7,,,67,127
21751,note_off,106,0,0,,7,,,67,127
21752,note_on,1,0,0,,5,,,65,127
21858,note_off,106,0,0,,5,,,65,127
21859,note_on,1,0,0,,4,,,64,127
22071,note_off,212,0,0,,4,,,64,127
22072,note_on,1,0,0,,2,,,62,127
22284,note_off,212,0,0,,2,,,62,127
22284,note_off,0,0,0,,7,,,55,127
22284,note_off,0,0,0,,7,,,43,127
22285,note_on,1,0,0,,10,,,57,127
22285,note_on,0,0,0,,4,,,64,127
22337,note_off,52,0,0,,4,,,64,127
22338,note_on,1,0,0,,2,,,62,127
22390,note_off,52,0,0,,2,,,62,127
22391,note_on,1,0,0,,4,,,64,127
22443,note_off,52,0,0,,4,,,64,127
22444,note_on,1,0,0,,2,,,62,127
22496,note_off,52,0,0,,2,,,62,127
22497,note_on,1,0,0,,4,,,64,127
22549,note_off,52,0,0,,4,,,64,127
22550,note_on,1,0,0,,2,,,62,127
22602,note_off,52,0,0,,2,,,62,127
22603,note_on,1,0,0,,1,,,61,127
22655,note_off,52,0,0,,1,,,61,127
22656,note_on,1,0,0,,2,,,62,127
22708,note_off,52,0,0,,2,,,62,127
22709,note_on,1,0,0,,10,,,45,127
22709,note_on,0,0,0,,1,,,61,127
23020,note_off,311,0,0,,1,,,61,127
23134,note_off,114,0,0,,10,,,45,127
23134,note_off,0,0,0,,10,,,57,127
23135,note_on,1,0,0,,7,,,67,127
23135,note_on,0,0,0,,4,,,76,127
23187,note_off,52,0,0,,4,,,76,127
23188,note_on,1,0,0,,2,,,74,127
23240,note_off,52,0,0,,2,,,74,127
23241,note_on,1,0,0,,1,,,73,127
23347,note_off,106,0,0,,7,,,67,127
23348,note_on,1,0,0,,10,,,57,127
23560,note_off,212,0,0,,10,,,57,127
23561,note_on,1,0,0,,5,,,65,127
23773,note_off,212,0,0,,5,,,65,127
23773,note_off,0,0,0,,1,,,73,127
23774,note_on,1,0,0,,10,,,57,127
23774,note_on,0,0,0,,2,,,74,127
23986,note_off,212,0,0,,2,,,74,127
23986,note_off,0,0,0,,10,,,57,127
23987,note_on,1,0,0,,4,,,64,127
23987,note_on,0,0,0,,4,,,76,127
23987,note_on,0,0,0,,2,,,74,127
24199,note_off,212,0,0,,2,,,74,127
24199,note_off,0,0,0,,4,,,76,127
24199,note_off,0,0,0,,4,,,64,127
24200,note_on,1,0,0,,10,,,57,127
24200,note_on,0,0,0,,1,,,73,127
24412,note_off,212,0,0,,10,,,57,127
24413,note_on,1,0,0,,5,,,65,127
24625,note_off,212,0,0,,5,,,65,127
24625,note_off,0,0,0,,1,,,73,127
24626,note_on,1,0,0,,10,,,57,127
24838,note_off,212,0,0,,10,,,57,127
24839,note_on,1,0,0,,7,,,67,127
24839,note_on,0,0,0,,4,,,76,127
24891,note_off,52,0,0,,4,,,76,127
24892,note_on,1,0,0,,2,,,74,127
24944,note_off,52,0,0,,2,,,74,127
24945,note_on,1,0,0,,1,,,73,127
25052,note_on,107,0,0,,10,,,57,127
25083,note_off,31,0,0,,7,,,67,127
25265,note_on,182,0,0,,5,,,65,127
25296,note_off,31,0,0,,10,,,57,127
25477,note_off,181,0,0,,1,,,73,127
25478,note_on,1,0,0,,10,,,57,127
25478,note_on,0,0,0,,2,,,74,127
25509,note_off,31,0,0,,5,,,65,127
25690,note_off,181,0,0,,2,,,74,127
25691,note_on,1,0,0,,4,,,64,127
25691,note_on,0,0,0,,4,,,76,127
25691,note_on,0,0,0,,2,,,74,127
25722,note_off,31,0,0,,10,,,57,127
25903,note_off,181,0,0,,2,,,74,127
25903,note_off,0,0,0,,4,,,76,127
25904,note_on,1,0,0,,10,,,57,127
25904,note_on,0,0,0,,1,,,73,127
25935,note_off,31,0,0,,4,,,64,127
26117,note_on,182,0,0,,5,,,65,127
26148,note_off,31,0,0,,10,,,57,127
26329,note_off,181,0,0,,1,,,73,127
26330,note_on,1,0,0,,10,,,57,127
26361,note_off,31,0,0,,5,,,65,127
26543,note_on,182,0,0,,11,,,70,127
26543,note_on,0,0,0,,7,,,79,127
26574,note_off,31,0,0,,10,,,57,127
26595,note_off,21,0,0,,7,,,79,127
26596,note_on,1,0,0,,5,,,77,127
26648,note_off,52,0,0,,5,,,77,127
26649,note_on,1,0,0,,4,,,76,127
26756,note_on,107,0,0,,11,,,58,127
26824,note_off,68,0,0,,11,,,70,127
26970,note_on,146,0,0,,10,,,69,127
27038,note_off,68,0,0,,11,,,58,127
27182,note_off,144,0,0,,4,,,76,127
27183,note_on,1,0,0,,11,,,58,127
27183,note_on,0,0,0,,5,,,77,127
27251,note_off,68,0,0,,10,,,69,127
27395,note_off,144,0,0,,5,,,77,127
27396,note_on,1,0,0,,7,,,67,127
27396,note_on,0,0,0,,5,,,77,127
27396,note_on,0,0,0,,7,,,79,127
27464,note_off,68,0,0,,11,,,58,127
27608,note_off,144,0,0,,7,,,79,127
27608,note_off,0,0,0,,5,,,77,127
27609,note_on,1,0,0,,11,,,58,127
27609,note_on,0,0,0,,4,,,76,127
27677,note_off,68,0,0,,7,,,67,127
27823,note_on,146,0,0,,10,,,69,127
27891,note_off,68,0,0,,11,,,58,127
28035,note_off,144,0,0,,4,,,76,127
28036,note_on,1,0,0,,11,,,58,127
28104,note_off,68,0,0,,10,,,69,127
28250,note_on,146,0,0,,11,,,70,127
28250,note_on,0,0,0,,7,,,79,127
28302,note_off,52,0,0,,7,,,79,127
28303,note_on,1,0,0,,5,,,77,127
28317,note_off,14,0,0,,11,,,58,127
28355,note_off,38,0,0,,5,,,77,127
28356,note_on,1,0,0,,4,,,76,127
28463,note_on,107,0,0,,11,,,58,127
28573,note_off,110,0,0,,11,,,70,127
28676,note_on,103,0,0,,10,,,69,127
28786,note_off,110,0,0,,11,,,58,127
28888,note_off,102,0,0,,4,,,76,127
28889,note_on,1,0,0,,11,,,58,127
28889,note_on,0,0,0,,5,,,77,127
28999,note_off,110,0,0,,10,,,69,127
29101,note_off,102,0,0,,5,,,77,127
29102,note_on,1,0,0,,7,,,67,127
29102,note_on,0,0,0,,7,,,79,127
29102,note_on,0,0,0,,5,,,77,127
29212,note_off,110,0,0,,11,,,58,127
29314,note_off,102,0,0,,5,,,77,127
29314,note_off,0,0,0,,7,,,79,127
29315,note_on,1,0,0,,11,,,58,127
29315,note_on,0,0,0,,4,,,76,127
29425,note_off,110,0,0,,7,,,67,127
29528,note_on,103,0,0,,7,,,67,127
29638,note_off,110,0,0,,11,,,58,127
29740,note_off,102,0,0,,4,,,76,127
29741,note_on,1,0,0,,11,,,58,127
29853,note_off,112,0,0,,7,,,67,127
29954,note_on,101,0,0,,7,,,67,127
29954,note_on,0,0,0,,11,,,82,127
30006,note_off,52,0,0,,11,,,82,127
30007,note_on,1,0,0,,10,,,81,127
30059,note_off,52,0,0,,10,,,81,127
30060,note_on,1,0,0,,7,,,79,127
30066,note_off,6,0,0,,11,,,58,127
30167,note_on,101,0,0,,7,,,55,127
30325,note_off,158,0,0,,7,,,67,127
30381,note_on,56,0,0,,5,,,65,127
30539,note_off,158,0,0,,7,,,55,127
30593,note_off,54,0,0,,7,,,79,127
30594,note_on,1,0,0,,7,,,55,127
30594,note_on,0,0,0,,10,,,81,127
30752,note_off,158,0,0,,5,,,65,127
30806,note_off,54,0,0,,10,,,81,127
30807,note_on,1,0,0,,4,,,64,127
30807,note_on,0,0,0,,7,,,79,127
30859,note_off,52,0,0,,7,,,79,127
30860,note_on,1,0,0,,5,,,77,127
30912,note_off,52,0,0,,5,,,77,127
30913,note_on,1,0,0,,4,,,76,127
30964,note_off,51,0,0,,7,,,55,127
31020,note_on,56,0,0,,7,,,55,127
31178,note_off,158,0,0,,4,,,64,127
31234,note_on,56,0,0,,2,,,62,127
31392,note_off,158,0,0,,7,,,55,127
31446,note_off,54,0,0,,4,,,76,127
31447,note_on,1,0,0,,7,,,55,127
31447,note_on,0,0,0,,5,,,77,127
31605,note_off,158,0,0,,2,,,62,127
31659,note_off,54,0,0,,5,,,77,127
31660,note_on,1,0,0,,1,,,61,127
31660,note_on,0,0,0,,5,,,77,127
31818,note_off,158,0,0,,7,,,55,127
31872,note_off,54,0,0,,5,,,77,127
31873,note_on,1,0,0,,7,,,55,127
31873,note_on,0,0,0,,4,,,76,127
32085,note_off,212,0,0,,4,,,76,127
32085,note_off,0,0,0,,7,,,55,127
32086,note_on,1,0,0,,5,,,53,127
32086,note_on,0,0,0,,10,,,81,127
32126,note_off,40,0,0,,1,,,61,127
32299,note_on,173,0,0,,2,,,62,127
32511,note_off,212,0,0,,10,,,81,127
32511,note_off,0,0,0,,5,,,53,127
32512,note_on,1,0,0,,4,,,52,127
32512,note_on,0,0,0,,7,,,79,127
32724,note_off,212,0,0,,2,,,62,127
32725,note_on,1,0,0,,0,,,60,127
32937,note_off,212,0,0,,7,,,79,127
32937,note_off,0,0,0,,4,,,52,127
32938,note_on,1,0,0,,2,,,50,127
32938,note_on,0,0,0,,5,,,77,127
33150,note_off,212,0,0,,0,,,60,127
33151,note_on,1,0,0,,11,,,58,127
33363,note_off,212,0,0,,5,,,77,127
33363,note_off,0,0,0,,2,,,50,127
33364,note_on,1,0,0,,0,,,48,127
33364,note_on,0,0,0,,4,,,76,127
33576,note_off,212,0,0,,11,,,58,127
33577,note_on,1,0,0,,10,,,57,127
33789,note_off,212,0,0,,4,,,76,127
33789,note_off,0,0,0,,0,,,48,127
33790,note_on,1,0,0,,11,,,46,127
33790,note_on,0,0,0,,2,,,74,127
34002,note_off,212,0,0,,10,,,57,127
34003,note_on,1,0,0,,7,,,55,127
34215,note_off,212,0,0,,2,,,74,127
34215,note_off,0,0,0,,11,,,46,127
34216,note_on,1,0,0,,10,,,45,127
34216,note_on,0,0,0,,4,,,76,127
34268,note_off,52,0,0,,4,,,76,127
34269,note_on,1,0,0,,2,,,74,127
34321,note_off,52,0,0,,2,,,74,127
34322,note_off,1,0,0,,7,,,55,127
34322,note_on,0,0,0,,1,,,73,127
34429,note_on,107,0,0,,10,,,57,127
34641,note_off,212,0,0,,10,,,45,127
34642,note_on,1,0,0,,11,,,46,127
34784,note_on,142,0,0,,4,,,76,127
34792,note_off,8,0,0,,1,,,73,127
34854,note_off,62,0,0,,10,,,57,127
34855,note_on,1,0,0,,7,,,55,127
34855,note_on,0,0,0,,2,,,74,127
34863,note_off,8,0,0,,4,,,76,127
34926,note_on,63,0,0,,1,,,73,127
34934,note_off,8,0,0,,2,,,74,127
34997,note_on,63,0,0,,2,,,74,127
35005,note_off,8,0,0,,1,,,73,127
35067,note_off,62,0,0,,2,,,74,127
35067,note_off,0,0,0,,7,,,55,127
35067,note_off,0,0,0,,11,,,46,127
35068,note_on,1,0,0,,10,,,45,127
35068,note_on,0,0,0,,2,,,74,127
35494,note_off,426,0,0,,2,,,74,127
35495,note_on,1,0,0,,10,,,57,127
35495,note_on,0,0,0,,4,,,76,127
35851,note_off,356,0,0,,4,,,76,127
35921,note_off,70,0,0,,10,,,57,127
35921,note_off,0,0,0,,10,,,45,127
35922,note_on,1,0,0,,10,,,57,127
35922,note_on,0,0,0,,1,,,61,127
36028,note_off,106,0,0,,1,,,61,127
36028,note_off,0,0,0,,10,,,57,127
36029,note_on,1,0,0,,12,,,59,127
36029,note_on,0,0,0,,2,,,62,127
36135,note_off,106,0,0,,2,,,62,127
36135,note_off,0,0,0,,12,,,59,127
36136,note_on,1,0,0,,1,,,61,127
36136,note_on,0,0,0,,4,,,64,127
36242,note_off,106,0,0,,4,,,64,127
36242,note_off,0,0,0,,1,,,61,127
36243,note_on,1,0,0,,2,,,62,127
36243,note_on,0,0,0,,6,,,66,127
36349,note_off,106,0,0,,6,,,66,127
36349,note_off,0,0,0,,2,,,62,127
36350,note_on,1,0,0,,4,,,64,127
36350,note_on,0,0,0,,7,,,67,127
36456,note_off,106,0,0,,7,,,67,127
36456,note_off,0,0,0,,4,,,64,127
36457,note_on,1,0,0,,6,,,66,127
36457,note_on,0,0,0,,10,,,69,127
36563,note_off,106,0,0,,10,,,69,127
36563,note_off,0,0,0,,6,,,66,127
36564,note_on,1,0,0,,7,,,67,127
36564,note_on,0,0,0,,12,,,71,127
36670,note_off,106,0,0,,12,,,71,127
36670,note_off,0,0,0,,7,,,67,127
36671,note_on,1,0,0,,10,,,69,127
36671,note_on,0,0,0,,1,,,73,127
36777,note_off,106,0,0,,1,,,73,127
36777,note_off,0,0,0,,10,,,69,127
36778,note_on,1,0,0,,7,,,43,127
36778,note_on,0,0,0,,1,,,73,127
36990,note_off,212,0,0,,1,,,73,127
36991,note_on,1,0,0,,4,,,76,127
37203,note_off,212,0,0,,7,,,43,127
37204,note_on,1,0,0,,7,,,55,127
37416,note_off,212,0,0,,4,,,76,127
37417,note_on,1,0,0,,2,,,74,127
37629,note_off,212,0,0,,2,,,74,127
37629,note_off,0,0,0,,7,,,55,127
37630,note_on,1,0,0,,7,,,55,127
37630,note_on,0,0,0,,12,,,59,127
37736,note_off,106,0,0,,12,,,59,127
37736,note_off,0,0,0,,7,,,55,127
37737,note_on,1,0,0,,10,,,57,127
37737,note_on,0,0,0,,1,,,61,127
37843,note_off,106,0,0,,1,,,61,127
37843,note_off,0,0,0,,10,,,57,127
37844,note_on,1,0,0,,12,,,59,127
37844,note_on,0,0,0,,2,,,62,127
37950,note_off,106,0,0,,2,,,62,127
37950,note_off,0,0,0,,12,,,59,127
37951,note_on,1,0,0,,1,,,61,127
37951,note_on,0,0,0,,4,,,64,127
38057,note_off,106,0,0,,4,,,64,127
38057,note_off,0,0,0,,1,,,61,127
38058,note_on,1,0,0,,2,,,62,127
38058,note_on,0,0,0,,6,,,66,127
38164,note_off,106,0,0,,6,,,66,127
38164,note_off,0,0,0,,2,,,62,127
38165,note_on,1,0,0,,4,,,64,127
38165,note_on,0,0,0,,7,,,67,127
38271,note_off,106,0,0,,7,,,67,127
38271,note_off,0,0,0,,4,,,64,127
38272,note_on,1,0,0,,6,,,66,127
38272,note_on,0,0,0,,10,,,69,127
38378,note_off,106,0,0,,10,,,69,127
38378,note_off,0,0,0,,6,,,66,127
38379,note_on,1,0,0,,7,,,67,127
38379,note_on,0,0,0,,12,,,71,127
38485,note_off,106,0,0,,12,,,71,127
38485,note_off,0,0,0,,7,,,67,127
38486,note_on,1,0,0,,6,,,42,127
38486,note_on,0,0,0,,1,,,73,127
38698,note_off,212,0,0,,1,,,73,127
38699,note_on,1,0,0,,4,,,76,127
38911,note_off,212,0,0,,6,,,42,127
38912,note_on,1,0,0,,6,,,54,127
39124,note_off,212,0,0,,4,,,76,127
39125,note_on,1,0,0,,2,,,74,127
39337,note_off,212,0,0,,2,,,74,127
39337,note_off,0,0,0,,6,,,54,127
39338,note_on,1,0,0,,6,,,54,127
39338,note_on,0,0,0,,10,,,57,127
39444,note_off,106,0,0,,10,,,57,127
39444,note_off,0,0,0,,6,,,54,127
39445,note_on,1,0,0,,7,,,55,127
39445,note_on,0,0,0,,12,,,59,127
39551,note_off,106,0,0,,12,,,59,127
39551,note_off,0,0,0,,7,,,55,127
39552,note_on,1,0,0,,10,,,57,127
39552,note_on,0,0,0,,1,,,61,127
39658,note_off,106,0,0,,1,,,61,127
39658,note_off,0,0,0,,10,,,57,127
39659,note_on,1,0,0,,12,,,59,127
39659,note_on,0,0,0,,2,,,62,127
39765,note_off,106,0,0,,2,,,62,127
39765,note_off,0,0,0,,12,,,59,127
39766,note_on,1,0,0,,1,,,61,127
39766,note_on,0,0,0,,4,,,64,127
39872,note_off,106,0,0,,4,,,64,127
39872,note_off,0,0,0,,1,,,61,127
39873,note_on,1,0,0,,2,,,62,127
39873,note_on,0,0,0,,6,,,66,127
39979,note_off,106,0,0,,6,,,66,127
39979,note_off,0,0,0,,2,,,62,127
39980,note_on,1,0,0,,4,,,64,127
39980,note_on,0,0,0,,7,,,67,127
40086,note_off,106,0,0,,7,,,67,127
40086,note_off,0,0,0,,4,,,64,127
40087,note_on,1,0,0,,6,,,66,127
40087,note_on,0,0,0,,10,,,69,127
40193,note_off,106,0,0,,10,,,69,127
40193,note_off,0,0,0,,6,,,66,127
40194,note_on,1,0,0,,4,,,40,127
40194,note_on,0,0,0,,7,,,67,127
40406,note_off,212,0,0,,7,,,67,127
40407,note_on,1,0,0,,6,,,78,127
40619,note_off,212,0,0,,4,,,40,127
40620,note_on,1,0,0,,4,,,52,127
40832,note_off,212,0,0,,6,,,78,127
40833,note_on,1,0,0,,4,,,76,127
41045,note_off,212,0,0,,4,,,76,127
41045,note_off,0,0,0,,4,,,52,127
41046,note_on,1,0,0,,4,,,52,127
41046,note_on,0,0,0,,7,,,55,127
41152,note_off,106,0,0,,7,,,55,127
41152,note_off,0,0,0,,4,,,52,127
41153,note_on,1,0,0,,6,,,54,127
41153,note_on,0,0,0,,10,,,57,127
41259,note_off,106,0,0,,10,,,57,127
41259,note_off,0,0,0,,6,,,54,127
41260,note_on,1,0,0,,7,,,55,127
41260,note_on,0,0,0,,12,,,59,127
41366,note_off,106,0,0,,12,,,59,127
41366,note_off,0,0,0,,7,,,55,127
41367,note_on,1,0,0,,10,,,57,127
41367,note_on,0,0,0,,1,,,61,127
41473,note_off,106,0,0,,1,,,61,127
41473,note_off,0,0,0,,10,,,57,127
41474,note_on,1,0,0,,12,,,59,127
41474,note_on,0,0,0,,2,,,62,127
41580,note_off,106,0,0,,2,,,62,127
41580,note_off,0,0,0,,12,,,59,127
41581,note_on,1,0,0,,1,,,61,127
41581,note_on,0,0,0,,4,,,64,127
41687,note_off,106,0,0,,4,,,64,127
41687,note_off,0,0,0,,1,,,61,127
41688,note_on,1,0,0,,2,,,62,127
41688,note_on,0,0,0,,6,,,66,127
41794,note_off,106,0,0,,6,,,66,127
41794,note_off,0,0,0,,2,,,62,127
41795,note_on,1,0,0,,4,,,64,127
41795,note_on,0,0,0,,7,,,67,127
41862,note_off,67,0,0,,7,,,67,127
41895,note_off,33,0,0,,4,,,64,127
41902,note_on,7,0,0,,2,,,38,127
41902,note_on,0,0,0,,6,,,78,127
42008,note_off,106,0,0,,6,,,78,127
42009,note_on,1,0,0,,4,,,76,127
42115,note_off,106,0,0,,4,,,76,127
42116,note_on,1,0,0,,2,,,74,127
42222,note_off,106,0,0,,2,,,74,127
42223,note_on,1,0,0,,1,,,73,127
42329,note_off,106,0,0,,1,,,73,127
42329,note_off,0,0,0,,2,,,38,127
42330,note_on,1,0,0,,2,,,50,127
42330,note_on,0,0,0,,2,,,74,127
42436,note_off,106,0,0,,2,,,74,127
42437,note_on,1,0,0,,1,,,73,127
42543,note_off,106,0,0,,1,,,73,127
42544,note_on,1,0,0,,12,,,71,127
42650,note_off,106,0,0,,12,,,71,127
42651,note_on,1,0,0,,10,,,69,127
42757,note_off,106,0,0,,10,,,69,127
42757,note_off,0,0,0,,2,,,50,127
42758,note_on,1,0,0,,7,,,43,127
42758,note_on,0,0,0,,7,,,55,127
42758,note_on,0,0,0,,7,,,67,127
42864,note_off,106,0,0,,7,,,67,127
42865,note_on,1,0,0,,12,,,71,127
42971,note_off,106,0,0,,12,,,71,127
42972,note_on,1,0,0,,10,,,69,127
43078,note_off,106,0,0,,10,,,69,127
43079,note_on,1,0,0,,7,,,67,127
43185,note_off,106,0,0,,7,,,67,127
43185,note_off,0,0,0,,7,,,55,127
43185,note_off,0,0,0,,7,,,43,127
43186,note_on,1,0,0,,10,,,45,127
43186,note_on,0,0,0,,10,,,57,127
43186,note_on,0,0,0,,6,,,66,127
43292,note_off,106,0,0,,6,,,66,127
43293,note_on,1,0,0,,4,,,64,127
43399,note_off,106,0,0,,4,,,64,127
43400,note_on,1,0,0,,2,,,62,127
43506,note_off,106,0,0,,2,,,62,127
43507,note_on,1,0,0,,1,,,61,127
43613,note_off,106,0,0,,1,,,61,127
43613,note_off,0,0,0,,10,,,57,127
43613,note_off,0,0,0,,10,,,45,127
43614,note_on,1,0,0,,2,,,38,127
43614,note_on,0,0,0,,4,,,64,127
43666,note_off,52,0,0,,4,,,64,127
43667,note_on,1,0,0,,2,,,62,127
43719,note_off,52,0,0,,2,,,62,127
43720,note_on,1,0,0,,4,,,64,127
43772,note_off,52,0,0,,4,,,64,127
43773,note_on,1,0,0,,2,,,62,127
43825,note_off,52,0,0,,2,,,62,127
43826,note_on,1,0,0,,4,,,64,127
43878,note_off,52,0,0,,4,,,64,127
43879,note_on,1,0,0,,2,,,62,127
43931,note_off,52,0,0,,2,,,62,127
43932,note_on,1,0,0,,4,,,64,127
43984,note_off,52,0,0,,4,,,64,127
43985,note_on,1,0,0,,2,,,62,127
44037,note_off,52,0,0,,2,,,62,127
44038,note_on,1,0,0,,4,,,64,127
44090,note_off,52,0,0,,4,,,64,127
44091,note_on,1,0,0,,2,,,62,127
44143,note_off,52,0,0,,2,,,62,127
44144,note_on,1,0,0,,4,,,64,127
44196,note_off,52,0,0,,4,,,64,127
44197,note_on,1,0,0,,2,,,62,127
44249,note_off,52,0,0,,2,,,62,127
44249,note_off,0,0,0,,2,,,38,127
44250,note_on,1,0,0,,1,,,61,127
44356,note_off,106,0,0,,1,,,61,127
44357,note_on,1,0,0,,12,,,59,127
44463,note_off,106,0,0,,12,,,59,127
44464,note_on,1,0,0,,10,,,57,127
44464,note_on,0,0,0,,1,,,61,127
44570,note_off,106,0,0,,1,,,61,127
44570,note_off,0,0,0,,10,,,57,127
44571,note_on,1,0,0,,12,,,59,127
44571,note_on,0,0,0,,2,,,62,127
44677,note_off,106,0,0,,2,,,62,127
44677,note_off,0,0,0,,12,,,59,127
44678,note_on,1,0,0,,1,,,61,127
44678,note_on,0,0,0,,4,,,64,127
44784,note_off,106,0,0,,4,,,64,127
44784,note_off,0,0,0,,1,,,61,127
44785,note_on,1,0,0,,2,,,62,127
44785,note_on,0,0,0,,6,,,66,127
44891,note_off,106,0,0,,6,,,66,127
44891,note_off,0,0,0,,2,,,62,127
44892,note_on,1,0,0,,4,,,64,127
44892,note_on,0,0,0,,7,,,67,127
44998,note_off,106,0,0,,7,,,67,127
44998,note_off,0,0,0,,4,,,64,127
44999,note_on,1,0,0,,6,,,66,127
44999,note_on,0,0,0,,10,,,69,127
45105,note_off,106,0,0,,10,,,69,127
45105,note_off,0,0,0,,6,,,66,127
45106,note_on,1,0,0,,7,,,67,127
45106,note_on,0,0,0,,12,,,71,127
45212,note_off,106,0,0,,12,,,71,127
45212,note_off,0,0,0,,7,,,67,127
45213,note_on,1,0,0,,10,,,69,127
45213,note_on,0,0,0,,1,,,73,127
45319,note_off,106,0,0,,1,,,73,127
45319,note_off,0,0,0,,10,,,69,127
45320,note_on,1,0,0,,7,,,43,127
45320,note_on,0,0,0,,1,,,73,127
45532,note_off,212,0,0,,1,,,73,127
45533,note_on,1,0,0,,4,,,76,127
45745,note_off,212,0,0,,7,,,43,127
45746,note_on,1,0,0,,7,,,55,127
45958,note_off,212,0,0,,4,,,76,127
45959,note_on,1,0,0,,2,,,74,127
46171,note_off,212,0,0,,2,,,74,127
46171,note_off,0,0,0,,7,,,55,127
46172,note_on,1,0,0,,7,,,55,127
46172,note_on,0,0,0,,12,,,59,127
46278,note_off,106,0,0,,12,,,59,127
46278,note_off,0,0,0,,7,,,55,127
46279,note_on,1,0,0,,10,,,57,127
46279,note_on,0,0,0,,1,,,61,127
46385,note_off,106,0,0,,1,,,61,127
46385,note_off,0,0,0,,10,,,57,127
46386,note_on,1,0,0,,12,,,59,127
46386,note_on,0,0,0,,2,,,62,127
46492,note_off,106,0,0,,2,,,62,127
46492,note_off,0,0,0,,12,,,59,127
46493,note_on,1,0,0,,1,,,61,127
46493,note_on,0,0,0,,4,,,64,127
46599,note_off,106,0,0,,4,,,64,127
46599,note_off,0,0,0,,1,,,61,127
46600,note_on,1,0,0,,2,,,62,127
46600,note_on,0,0,0,,6,,,66,127
46706,note_off,106,0,0,,6,,,66,127
46706,note_off,0,0,0,,2,,,62,127
46707,note_on,1,0,0,,4,,,64,127
46707,note_on,0,0,0,,7,,,67,127
46813,note_off,106,0,0,,7,,,67,127
46813,note_off,0,0,0,,4,,,64,127
46814,note_on,1,0,0,,6,,,66,127
46814,note_on,0,0,0,,10,,,69,127
46920,note_off,106,0,0,,10,,,69,127
46920,note_off,0,0,0,,6,,,66,127
46921,note_on,1,0,0,,7,,,67,127
46921,note_on,0,0,0,,12,,,71,127
47027,note_off,106,0,0,,12,,,71,127
47027,note_off,0,0,0,,7,,,67,127
47028,note_on,1,0,0,,6,,,42,127
47028,note_on,0,0,0,,1,,,73,127
47240,note_off,212,0,0,,1,,,73,127
47241,note_on,1,0,0,,4,,,76,127
47453,note_off,212,0,0,,6,,,42,127
47454,note_on,1,0,0,,6,,,54,127
47666,note_off,212,0,0,,4,,,76,127
47667,note_on,1,0,0,,2,,,74,127
47879,note_off,212,0,0,,2,,,74,127
47879,note_off,0,0,0,,6,,,54,127
47880,note_on,1,0,0,,6,,,54,127
47880,note_on,0,0,0,,10,,,57,127
47986,note_off,106,0,0,,10,,,57,127
47986,note_off,0,0,0,,6,,,54,127
47987,note_on,1,0,0,,7,,,55,127
47987,note_on,0,0,0,,12,,,59,127
48093,note_off,106,0,0,,12,,,59,127
48093,note_off,0,0,0,,7,,,55,127
48094,note_on,1,0,0,,10,,,57,127
48094,note_on,0,0,0,,1,,,61,127
48200,note_off,106,0,0,,1,,,61,127
48200,note_off,0,0,0,,10,,,57,127
48201,note_on,1,0,0,,12,,,59,127
48201,note_on,0,0,0,,2,,,62,127
48307,note_off,106,0,0,,2,,,62,127
48307,note_off,0,0,0,,12,,,59,127
48308,note_on,1,0,0,,1,,,61,127
48308,note_on,0,0,0,,4,,,64,127
48414,note_off,106,0,0,,4,,,64,127
48414,note_off,0,0,0,,1,,,61,127
48415,note_on,1,0,0,,2,,,62,127
48415,note_on,0,0,0,,6,,,66,127
48521,note_off,106,0,0,,6,,,66,127
48521,note_off,0,0,0,,2,,,62,127
48522,note_on,1,0,0,,4,,,64,127
48522,note_on,0,0,0,,7,,,67,127
48628,note_off,106,0,0,,7,,,67,127
48628,note_off,0,0,0,,4,,,64,127
48629,note_on,1,0,0,,6,,,66,127
48629,note_on,0,0,0,,10,,,69,127
48735,note_off,106,0,0,,10,,,69,127
48735,note_off,0,0,0,,6,,,66,127
48736,note_on,1,0,0,,4,,,40,127
48736,note_on,0,0,0,,7,,,67,127
48948,note_off,212,0,0,,7,,,67,127
48949,note_on,1,0,0,,6,,,78,127
49161,note_off,212,0,0,,4,,,40,127
49162,note_on,1,0,0,,4,,,52,127
49374,note_off,212,0,0,,6,,,78,127
49375,note_on,1,0,0,,4,,,76,127
49587,note_off,212,0,0,,4,,,76,127
49587,note_off,0,0,0,,4,,,52,127
49588,note_on,1,0,0,,4,,,52,127
49588,note_on,0,0,0,,7,,,55,127
49694,note_off,106,0,0,,7,,,55,127
49694,note_off,0,0,0,,4,,,52,127
49695,note_on,1,0,0,,6,,,54,127
49695,note_on,0,0,0,,10,,,57,127
49801,note_off,106,0,0,,10,,,57,127
49801,note_off,0,0,0,,6,,,54,127
49802,note_on,1,0,0,,7,,,55,127
49802,note_on,0,0,0,,12,,,59,127
49908,note_off,106,0,0,,12,,,59,127
49908,note_off,0,0,0,,7,,,55,127
49909,note_on,1,0,0,,10,,,57,127
49909,note_on,0,0,0,,1,,,61,127
50015,note_off,106,0,0,,1,,,61,127
50015,note_off,0,0,0,,10,,,57,127
50016,note_on,1,0,0,,12,,,59,127
50016,note_on,0,0,0,,2,,,62,127
50122,note_off,106,0,0,,2,,,62,127
50122,note_off,0,0,0,,12,,,59,127
50123,note_on,1,0,0,,1,,,61,127
50123,note_on,0,0,0,,4,,,64,127
50229,note_off,106,0,0,,4,,,64,127
50229,note_off,0,0,0,,1,,,61,127
50230,note_on,1,0,0,,2,,,62,127
50230,note_on,0,0,0,,6,,,66,127
50336,note_off,106,0,0,,6,,,66,127
50336,note_off,0,0,0,,2,,,62,127
50337,note_on,1,0,0,,4,,,64,127
50337,note_on,0,0,0,,7,,,67,127
50404,note_off,67,0,0,,7,,,67,127
50437,note_off,33,0,0,,4,,,64,127
50444,note_on,7,0,0,,2,,,38,127
50444,note_on,0,0,0,,6,,,78,127
50550,note_off,106,0,0,,6,,,78,127
50551,note_on,1,0,0,,4,,,76,127
50657,note_off,106,0,0,,4,,,76,127
50658,note_on,1,0,0,,2,,,74,127
50764,note_off,106,0,0,,2,,,74,127
50765,note_on,1,0,0,,1,,,73,127
50871,note_off,106,0,0,,1,,,73,127
50871,note_off,0,0,0,,2,,,38,127
50872,note_on,1,0,0,,2,,,50,127
50872,note_on,0,0,0,,2,,,74,127
50978,note_off,106,0,0,,2,,,74,127
50979,note_on,1,0,0,,1,,,73,127
51085,note_off,106,0,0,,1,,,73,127
51086,note_on,1,0,0,,12,,,71,127
51192,note_off,106,0,0,,12,,,71,127
51193,note_on,1,0,0,,10,,,69,127
51299,note_off,106,0,0,,10,,,69,127
51299,note_off,0,0,0,,2,,,50,127
51300,note_on,1,0,0,,7,,,55,127
51300,note_on,0,0,0,,7,,,43,127
51300,note_on,0,0,0,,7,,,67,127
51406,note_off,106,0,0,,7,,,67,127
51407,note_on,1,0,0,,12,,,71,127
51513,note_off,106,0,0,,12,,,71,127
51514,note_on,1,0,0,,10,,,69,127
51620,note_off,106,0,0,,10,,,69,127
51621,note_on,1,0,0,,7,,,67,127
51727,note_off,106,0,0,,7,,,67,127
51727,note_off,0,0,0,,7,,,43,127
51727,note_off,0,0,0,,7,,,55,127
51728,note_on,1,0,0,,10,,,45,127
51728,note_on,0,0,0,,10,,,57,127
51728,note_on,0,0,0,,6,,,66,127
51834,note_off,106,0,0,,6,,,66,127
51835,note_on,1,0,0,,4,,,64,127
51941,note_off,106,0,0,,4,,,64,127
51942,note_on,1,0,0,,2,,,62,127
52048,note_off,106,0,0,,2,,,62,127
52049,note_on,1,0,0,,1,,,61,127
52155,note_off,106,0,0,,1,,,61,127
52156,note_on,1,0,0,,2,,,62,127
52174,note_off,18,0,0,,10,,,57,127
52174,note_off,0,0,0,,10,,,45,127
52368,note_off,194,0,0,,2,,,62,127
52369,note_on,1,0,0,,2,,,62,127
52369,note_on,0,0,0,,6,,,54,127
52581,note_off,212,0,0,,6,,,54,127
52581,note_off,0,0,0,,2,,,62,127
52582,note_on,1,0,0,,4,,,64,127
52582,note_on,0,0,0,,7,,,55,127
52794,note_off,212,0,0,,7,,,55,127
52794,note_off,0,0,0,,4,,,64,127
52795,note_on,1,0,0,,10,,,57,127
52795,note_on,0,0,0,,6,,,66,127
53007,note_off,212,0,0,,6,,,66,127
53007,note_off,0,0,0,,10,,,57,127
53008,note_on,1,0,0,,7,,,67,127
53008,note_on,0,0,0,,12,,,59,127
53220,note_off,212,0,0,,12,,,59,127
53220,note_off,0,0,0,,7,,,67,127
53221,note_on,1,0,0,,1,,,61,127
53221,note_on,0,0,0,,10,,,69,127
53433,note_off,212,0,0,,10,,,69,127
53433,note_off,0,0,0,,1,,,61,127
53434,note_on,1,0,0,,6,,,66,127
53434,note_on,0,0,0,,2,,,62,127
53646,note_off,212,0,0,,2,,,62,127
53646,note_off,0,0,0,,6,,,66,127
53647,note_on,1,0,0,,4,,,64,127
53647,note_on,0,0,0,,7,,,67,127
53859,note_off,212,0,0,,7,,,67,127
53859,note_off,0,0,0,,4,,,64,127
53860,note_on,1,0,0,,6,,,66,127
53860,note_on,0,0,0,,10,,,69,127
53967,note_on,107,0,0,,7,,,79,127
54073,note_off,106,0,0,,7,,,79,127
54074,note_on,1,0,0,,6,,,78,127
54180,note_off,106,0,0,,6,,,78,127
54181,note_on,1,0,0,,4,,,76,127
54287,note_off,106,0,0,,4,,,76,127
54287,note_off,0,0,0,,10,,,69,127
54287,note_off,0,0,0,,6,,,66,127
54288,note_on,1,0,0,,2,,,62,127
54288,note_on,0,0,0,,6,,,54,127
54288,note_on,0,0,0,,2,,,74,127
54394,note_off,106,0,0,,2,,,74,127
54395,note_on,1,0,0,,1,,,73,127
54501,note_off,106,0,0,,1,,,73,127
54502,note_on,1,0,0,,12,,,71,127
54608,note_off,106,0,0,,12,,,71,127
54609,note_on,1,0,0,,10,,,69,127
54715,note_off,106,0,0,,10,,,69,127
54715,note_off,0,0,0,,6,,,54,127
54715,note_off,0,0,0,,2,,,62,127
54716,note_on,1,0,0,,7,,,43,127
54716,note_on,0,0,0,,7,,,55,127
54716,note_on,0,0,0,,12,,,71,127
54822,note_off,106,0,0,,12,,,71,127
54823,note_on,1,0,0,,12,,,83,127
54929,note_off,106,0,0,,12,,,83,127
54930,note_on,1,0,0,,10,,,81,127
55036,note_off,106,0,0,,10,,,81,127
55037,note_on,1,0,0,,7,,,79,127
55143,note_off,106,0,0,,7,,,79,127
55143,note_off,0,0,0,,7,,,55,127
55143,note_off,0,0,0,,7,,,43,127
55144,note_on,1,0,0,,10,,,45,127
55144,note_on,0,0,0,,10,,,57,127
55144,note_on,0,0,0,,6,,,78,127
55250,note_off,106,0,0,,6,,,78,127
55251,note_on,1,0,0,,4,,,76,127
55357,note_off,106,0,0,,4,,,76,127
55358,note_on,1,0,0,,2,,,74,127
55464,note_off,106,0,0,,2,,,74,127
55465,note_on,1,0,0,,1,,,73,127
55571,note_off,106,0,0,,1,,,73,127
55572,note_on,1,0,0,,2,,,74,127
55590,note_off,18,0,0,,10,,,57,127
55590,note_off,0,0,0,,10,,,45,127
55784,note_off,194,0,0,,2,,,74,127
55785,note_on,1,0,0,,6,,,54,127
55785,note_on,0,0,0,,2,,,62,127
55997,note_off,212,0,0,,2,,,62,127
55997,note_off,0,0,0,,6,,,54,127
55998,note_on,1,0,0,,7,,,55,127
55998,note_on,0,0,0,,4,,,64,127
56210,note_off,212,0,0,,4,,,64,127
56210,note_off,0,0,0,,7,,,55,127
56211,note_on,1,0,0,,10,,,57,127
56211,note_on,0,0,0,,6,,,66,127
56423,note_off,212,0,0,,6,,,66,127
56423,note_off,0,0,0,,10,,,57,127
56424,note_on,1,0,0,,12,,,59,127
56424,note_on,0,0,0,,7,,,67,127
56636,note_off,212,0,0,,7,,,67,127
56636,note_off,0,0,0,,12,,,59,127
56637,note_on,1,0,0,,1,,,61,127
56637,note_on,0,0,0,,10,,,69,127
56849,note_off,212,0,0,,10,,,69,127
56849,note_off,0,0,0,,1,,,61,127
56850,note_on,1,0,0,,6,,,66,127
56850,note_on,0,0,0,,2,,,62,127
57062,note_off,212,0,0,,2,,,62,127
57062,note_off,0,0,0,,6,,,66,127
57063,note_on,1,0,0,,7,,,67,127
57063,note_on,0,0,0,,4,,,64,127
57275,note_off,212,0,0,,4,,,64,127
57275,note_off,0,0,0,,7,,,67,127
57276,note_on,1,0,0,,6,,,66,127
57276,note_on,0,0,0,,10,,,69,127
57383,note_on,107,0,0,,7,,,79,127
57489,note_off,106,0,0,,7,,,79,127
57490,note_on,1,0,0,,6,,,78,127
57596,note_off,106,0,0,,6,,,78,127
57597,note_on,1,0,0,,4,,,76,127
57703,note_off,106,0,0,,4,,,76,127
57703,note_off,0,0,0,,10,,,69,127
57703,note_off,0,0,0,,6,,,66,127
57704,note_on,1,0,0,,6,,,54,127
57704,note_on,0,0,0,,2,,,62,127
57704,note_on,0,0,0,,2,,,74,127
57810,note_off,106,0,0,,2,,,74,127
57811,note_on,1,0,0,,1,,,73,127
57917,note_off,106,0,0,,1,,,73,127
57918,note_on,1,0,0,,12,,,71,127
58024,note_off,106,0,0,,12,,,71,127
58025,note_on,1,0,0,,10,,,69,127
58131,note_off,106,0,0,,10,,,69,127
58131,note_off,0,0,0,,2,,,62,127
58131,note_off,0,0,0,,6,,,54,127
58132,note_on,1,0,0,,7,,,55,127
58132,note_on,0,0,0,,7,,,43,127
58132,note_on,0,0,0,,12,,,71,127
58238,note_off,106,0,0,,12,,,71,127
58239,note_on,1,0,0,,12,,,83,127
58345,note_off,106,0,0,,12,,,83,127
58346,note_on,1,0,0,,10,,,81,127
58452,note_off,106,0,0,,10,,,81,127
58453,note_on,1,0,0,,7,,,79,127
58559,note_off,106,0,0,,7,,,79,127
58559,note_off,0,0,0,,7,,,43,127
58559,note_off,0,0,0,,7,,,55,127
58560,note_on,1,0,0,,10,,,45,127
58560,note_on,0,0,0,,10,,,57,127
58560,note_on,0,0,0,,6,,,78,127
58666,note_off,106,0,0,,6,,,78,127
58667,note_on,1,0,0,,4,,,76,127
58773,note_off,106,0,0,,4,,,76,127
58774,note_on,1,0,0,,2,,,74,127
58880,note_off,106,0,0,,2,,,74,127
58881,note_on,1,0,0,,1,,,73,127
58987,note_off,106,0,0,,1,,,73,127
58987,note_off,0,0,0,,10,,,57,127
58987,note_off,0,0,0,,10,,,45,127
58988,note_on,1,0,0,,2,,,38,127
58988,note_on,0,0,0,,2,,,50,127
58988,note_on,0,0,0,,2,,,74,127
59094,note_off,106,0,0,,2,,,74,127
59095,note_on,1,0,0,,10,,,81,127
59201,note_off,106,0,0,,10,,,81,127
59202,note_on,1,0,0,,6,,,78,127
59308,note_off,106,0,0,,6,,,78,127
59309,note_on,1,0,0,,2,,,74,127
59415,note_off,106,0,0,,2,,,74,127
59416,note_on,1,0,0,,10,,,69,127
59522,note_off,106,0,0,,10,,,69,127
59523,note_on,1,0,0,,6,,,66,127
59629,note_off,106,0,0,,6,,,66,127
59630,note_on,1,0,0,,2,,,62,127
59736,note_off,106,0,0,,2,,,62,127
59737,note_on,1,0,0,,10,,,57,127
59843,note_off,106,0,0,,10,,,57,127
59843,note_off,0,0,0,,2,,,50,127
59843,note_off,0,0,0,,2,,,38,127
59844,note_on,1,0,0,,10,,,33,127
60271,note_on,427,0,0,,1,,,73,127
60271,note_on,0,0,0,,10,,,69,127
60271,note_on,0,0,0,,7,,,79,127
60271,note_on,0,0,0,,4,,,76,127
60697,note_off,426,0,0,,4,,,76,127
60697,note_off,0,0,0,,7,,,79,127
60697,note_off,0,0,0,,10,,,69,127
60697,note_off,0,0,0,,1,,,73,127
60697,note_off,0,0,0,,10,,,33,127
60698,note_on,1,0,0,,2,,,38,127
60698,note_on,0,0,0,,6,,,78,127
60804,note_off,106,0,0,,6,,,78,127
60805,note_on,1,0,0,,10,,,81,127
60911,note_off,106,0,0,,10,,,81,127
60912,note_on,1,0,0,,6,,,78,127
61018,note_off,106,0,0,,6,,,78,127
61019,note_on,1,0,0,,2,,,74,127
61125,note_off,106,0,0,,2,,,74,127
61126,note_on,1,0,0,,10,,,69,127
61232,note_off,106,0,0,,10,,,69,127
61233,note_on,1,0,0,,6,,,66,127
61339,note_off,106,0,0,,6,,,66,127
61340,note_on,1,0,0,,2,,,62,127
61446,note_off,106,0,0,,2,,,62,127
61447,note_on,1,0,0,,10,,,57,127
61548,note_off,101,0,0,,10,,,57,127
61552,note_off,4,0,0,,2,,,38,127
61553,note_on,1,0,0,,10,,,33,127
61980,note_on,427,0,0,,6,,,66,127
61980,note_on,0,0,0,,1,,,61,127
62032,note_off,52,0,0,,6,,,66,127
62033,note_on,1,0,0,,4,,,64,127
62085,note_off,52,0,0,,4,,,64,127
62086,note_on,1,0,0,,6,,,66,127
62138,note_off,52,0,0,,6,,,66,127
62139,note_on,1,0,0,,4,,,64,127
62191,note_off,52,0,0,,4,,,64,127
62192,note_on,1,0,0,,6,,,66,127
62244,note_off,52,0,0,,6,,,66,127
62245,note_on,1,0,0,,4,,,64,127
62297,note_off,52,0,0,,4,,,64,127
62298,note_on,1,0,0,,2,,,62,127
62350,note_off,52,0,0,,2,,,62,127
62351,note_on,1,0,0,,4,,,64,127
62403,note_off,52,0,0,,4,,,64,127
62403,note_off,0,0,0,,1,,,61,127
62403,note_off,0,0,0,,10,,,33,127
62404,note_on,1,0,0,,2,,,38,127
62404,note_on,0,0,0,,2,,,62,127
63256,note_off,852,0,0,,2,,,62,127
63256,note_off,0,0,0,,2,,,38,127
63257,note_on,1,0,0,,2,,,50,127
63470,note_on,213,0,0,,2,,,62,127
63470,note_on,0,0,0,,2,,,74,127
63470,note_on,0,0,0,,6,,,66,127
63682,note_off,212,0,0,,6,,,66,127
63682,note_off,0,0,0,,2,,,74,127
63683,note_on,1,0,0,,7,,,67,127
63683,note_on,0,0,0,,4,,,76,127
63895,note_off,212,0,0,,4,,,76,127
63895,note_off,0,0,0,,7,,,67,127
63895,note_off,0,0,0,,2,,,62,127
63896,note_on,1,0,0,,0,,,60,127
63896,note_on,0,0,0,,10,,,69,127
63896,note_on,0,0,0,,6,,,78,127
64108,note_off,212,0,0,,6,,,78,127
64108,note_off,0,0,0,,10,,,69,127
64108,note_off,0,0,0,,0,,,60,127
64108,note_off,0,0,0,,2,,,50,127
64109,note_on,1,0,0,,12,,,59,127
64109,note_on,0,0,0,,2,,,50,127
64109,note_on,0,0,0,,7,,,79,127
64109,note_on,0,0,0,,12,,,71,127
64321,note_off,212,0,0,,12,,,71,127
64321,note_off,0,0,0,,7,,,79,127
64321,note_off,0,0,0,,12,,,59,127
64322,note_on,1,0,0,,10,,,57,127
64322,note_on,0,0,0,,10,,,81,127
64322,note_on,0,0,0,,0,,,72,127
64534,note_off,212,0,0,,0,,,72,127
64534,note_off,0,0,0,,10,,,81,127
64534,note_off,0,0,0,,10,,,57,127
64535,note_on,1,0,0,,7,,,55,127
64535,note_on,0,0,0,,2,,,74,127
64535,note_on,0,0,0,,12,,,83,127
64747,note_off,212,0,0,,2,,,74,127
64747,note_off,0,0,0,,7,,,55,127
64748,note_on,1,0,0,,1,,,61,127
64748,note_on,0,0,0,,4,,,76,127
64960,note_off,212,0,0,,4,,,76,127
64960,note_off,0,0,0,,1,,,61,127
64960,note_off,0,0,0,,12,,,83,127
64960,note_off,0,0,0,,2,,,50,127
64961,note_on,1,0,0,,2,,,62,127
64961,note_on,0,0,0,,2,,,50,127
64961,note_on,0,0,0,,10,,,81,127
64961,note_on,0,0,0,,6,,,78,127
65150,note_off,189,0,0,,6,,,78,127
65150,note_off,0,0,0,,10,,,81,127
65174,note_on,24,0,0,,2,,,74,127
65174,note_on,0,0,0,,6,,,66,127
65386,note_off,212,0,0,,6,,,66,127
65386,note_off,0,0,0,,2,,,74,127
65387,note_on,1,0,0,,4,,,76,127
65387,note_on,0,0,0,,7,,,67,127
65599,note_off,212,0,0,,7,,,67,127
65599,note_off,0,0,0,,4,,,76,127
65599,note_off,0,0,0,,2,,,62,127
65600,note_on,1,0,0,,0,,,60,127
65600,note_on,0,0,0,,10,,,69,127
65600,note_on,0,0,0,,6,,,78,127
65812,note_off,212,0,0,,6,,,78,127
65812,note_off,0,0,0,,10,,,69,127
65812,note_off,0,0,0,,0,,,60,127
65812,note_off,0,0,0,,2,,,50,127
65813,note_on,1,0,0,,12,,,59,127
65813,note_on,0,0,0,,2,,,50,127
65813,note_on,0,0,0,,7,,,79,127
65813,note_on,0,0,0,,12,,,71,127
66025,note_off,212,0,0,,12,,,71,127
66025,note_off,0,0,0,,7,,,79,127
66025,note_off,0,0,0,,12,,,59,127
66026,note_on,1,0,0,,10,,,57,127
66026,note_on,0,0,0,,10,,,81,127
66026,note_on,0,0,0,,0,,,72,127
66238,note_off,212,0,0,,0,,,72,127
66238,note_off,0,0,0,,10,,,81,127
66238,note_off,0,0,0,,10,,,57,127
66239,note_on,1,0,0,,7,,,55,127
66239,note_on,0,0,0,,2,,,74,127
66239,note_on,0,0,0,,12,,,83,127
66451,note_off,212,0,0,,2,,,74,127
66451,note_off,0,0,0,,7,,,55,127
66452,note_on,1,0,0,,1,,,61,127
66452,note_on,0,0,0,,4,,,76,127
66664,note_off,212,0,0,,4,,,76,127
66664,note_off,0,0,0,,1,,,61,127
66664,note_off,0,0,0,,12,,,83,127
66664,note_off,0,0,0,,2,,,50,127
66665,note_on,1,0,0,,2,,,62,127
66665,note_on,0,0,0,,2,,,50,127
66665,note_on,0,0,0,,10,,,81,127
66665,note_on,0,0,0,,6,,,78,127
66859,note_off,194,0,0,,6,,,78,127
66859,note_off,0,0,0,,10,,,81,127
66878,note_on,19,0,0,,2,,,74,127
66878,note_on,0,0,0,,6,,,66,127
67090,note_off,212,0,0,,6,,,66,127
67090,note_off,0,0,0,,2,,,74,127
67091,note_on,1,0,0,,4,,,76,127
67091,note_on,0,0,0,,7,,,67,127
67303,note_off,212,0,0,,7,,,67,127
67303,note_off,0,0,0,,4,,,76,127
67303,note_off,0,0,0,,2,,,62,127
67304,note_on,1,0,0,,0,,,60,127
67304,note_on,0,0,0,,10,,,69,127
67304,note_on,0,0,0,,6,,,78,127
67516,note_off,212,0,0,,6,,,78,127
67516,note_off,0,0,0,,10,,,69,127
67516,note_off,0,0,0,,0,,,60,127
67516,note_off,0,0,0,,2,,,50,127
67517,note_on,1,0,0,,11,,,58,127
67517,note_on,0,0,0,,7,,,79,127
67517,note_on,0,0,0,,11,,,70,127
67729,note_off,212,0,0,,11,,,70,127
67729,note_off,0,0,0,,7,,,79,127
67729,note_off,0,0,0,,11,,,58,127
67730,note_on,1,0,0,,10,,,57,127
67730,note_on,0,0,0,,10,,,81,127
67730,note_on,0,0,0,,0,,,72,127
67942,note_off,212,0,0,,0,,,72,127
67942,note_off,0,0,0,,10,,,81,127
67942,note_off,0,0,0,,10,,,57,127
67943,note_on,1,0,0,,7,,,55,127
67943,note_on,0,0,0,,2,,,74,127
67943,note_on,0,0,0,,11,,,82,127
68155,note_off,212,0,0,,2,,,74,127
68156,note_on,1,0,0,,4,,,76,127
68368,note_off,212,0,0,,4,,,76,127
68368,note_off,0,0,0,,11,,,82,127
68368,note_off,0,0,0,,7,,,55,127
68369,note_on,1,0,0,,5,,,53,127
68369,note_on,0,0,0,,5,,,77,127
68369,note_on,0,0,0,,10,,,81,127
68569,note_off,200,0,0,,10,,,81,127
68569,note_off,0,0,0,,5,,,77,127
68581,note_off,12,0,0,,5,,,53,127
68582,note_on,1,0,0,,5,,,65,127
68582,note_on,0,0,0,,10,,,81,127
68582,note_on,0,0,0,,0,,,72,127
68794,note_off,212,0,0,,0,,,72,127
68794,note_off,0,0,0,,10,,,81,127
68795,note_on,1,0,0,,12,,,83,127
68795,note_on,0,0,0,,2,,,74,127
69007,note_off,212,0,0,,2,,,74,127
69007,note_off,0,0,0,,12,,,83,127
69007,note_off,0,0,0,,5,,,65,127
69008,note_on,1,0,0,,3,,,63,127
69008,note_on,0,0,0,,0,,,84,127
69008,note_on,0,0,0,,3,,,75,127
69220,note_off,212,0,0,,3,,,75,127
69220,note_off,0,0,0,,0,,,84,127
69220,note_off,0,0,0,,3,,,63,127
69221,note_on,1,0,0,,2,,,62,127
69221,note_on,0,0,0,,2,,,86,127
69221,note_on,0,0,0,,5,,,77,127
69433,note_off,212,0,0,,5,,,77,127
69433,note_off,0,0,0,,2,,,86,127
69433,note_off,0,0,0,,2,,,62,127
69434,note_on,1,0,0,,0,,,60,127
69434,note_on,0,0,0,,7,,,79,127
69434,note_on,0,0,0,,3,,,87,127
69646,note_off,212,0,0,,3,,,87,127
69646,note_off,0,0,0,,0,,,60,127
69647,note_on,1,0,0,,12,,,59,127
69647,note_on,0,0,0,,5,,,89,127
69859,note_off,212,0,0,,5,,,89,127
69859,note_off,0,0,0,,12,,,59,127
69860,note_on,1,0,0,,7,,,55,127
69860,note_on,0,0,0,,3,,,87,127
69966,note_off,106,0,0,,3,,,87,127
69967,note_on,1,0,0,,2,,,86,127
70073,note_off,106,0,0,,2,,,86,127
70073,note_off,0,0,0,,7,,,55,127
70074,note_on,1,0,0,,0,,,48,127
70074,note_on,0,0,0,,3,,,87,127
70234,note_off,160,0,0,,7,,,79,127
70252,note_off,18,0,0,,3,,,87,127
70286,note_off,34,0,0,,0,,,48,127
70287,note_on,1,0,0,,0,,,60,127
70287,note_on,0,0,0,,7,,,67,127
70287,note_on,0,0,0,,4,,,76,127
70499,note_off,212,0,0,,4,,,76,127
70499,note_off,0,0,0,,7,,,67,127
70500,note_on,1,0,0,,10,,,69,127
70500,note_on,0,0,0,,6,,,78,127
70712,note_off,212,0,0,,6,,,78,127
70712,note_off,0,0,0,,10,,,69,127
70712,note_off,0,0,0,,0,,,60,127
70713,note_on,1,0,0,,11,,,58,127
70713,note_on,0,0,0,,11,,,70,127
70713,note_on,0,0,0,,7,,,79,127
70925,note_off,212,0,0,,7,,,79,127
70925,note_off,0,0,0,,11,,,70,127
70925,note_off,0,0,0,,11,,,58,127
70926,note_on,1,0,0,,10,,,57,127
70926,note_on,0,0,0,,10,,,81,127
70926,note_on,0,0,0,,0,,,72,127
71138,note_off,212,0,0,,0,,,72,127
71138,note_off,0,0,0,,10,,,81,127
71138,note_off,0,0,0,,10,,,57,127
71139,note_on,1,0,0,,7,,,55,127
71139,note_on,0,0,0,,2,,,74,127
71139,note_on,0,0,0,,11,,,82,127
71351,note_off,212,0,0,,11,,,82,127
71351,note_off,0,0,0,,7,,,55,127
71352,note_on,1,0,0,,6,,,54,127
71352,note_on,0,0,0,,0,,,84,127
71564,note_off,212,0,0,,0,,,84,127
71564,note_off,0,0,0,,6,,,54,127
71565,note_on,1,0,0,,2,,,50,127
71565,note_on,0,0,0,,11,,,82,127
71671,note_off,106,0,0,,11,,,82,127
71672,note_on,1,0,0,,10,,,81,127
71778,note_off,106,0,0,,10,,,81,127
71778,note_off,0,0,0,,2,,,50,127
71778,note_off,0,0,0,,2,,,74,127
71779,note_on,1,0,0,,7,,,55,127
71779,note_on,0,0,0,,11,,,82,127
71885,note_off,106,0,0,,11,,,82,127
71886,note_on,1,0,0,,10,,,81,127
71992,note_off,106,0,0,,10,,,81,127
71993,note_on,1,0,0,,7,,,79,127
72099,note_off,106,0,0,,7,,,79,127
72100,note_on,1,0,0,,5,,,77,127
72206,note_off,106,0,0,,5,,,77,127
72206,note_off,0,0,0,,7,,,55,127
72207,note_on,1,0,0,,7,,,43,127
72207,note_on,0,0,0,,3,,,75,127
72207,note_on,0,0,0,,11,,,82,127
72419,note_off,212,0,0,,3,,,75,127
72420,note_on,1,0,0,,2,,,74,127
72632,note_off,212,0,0,,2,,,74,127
72632,note_off,0,0,0,,7,,,43,127
72633,note_on,1,0,0,,10,,,45,127
72633,note_on,0,0,0,,10,,,57,127
72633,note_on,0,0,0,,1,,,73,127
72845,note_off,212,0,0,,11,,,82,127
72846,note_on,1,0,0,,10,,,81,127
73058,note_off,212,0,0,,1,,,73,127
73059,note_on,1,0,0,,0,,,72,127
73271,note_off,212,0,0,,10,,,81,127
73272,note_on,1,0,0,,7,,,79,127
73463,note_off,191,0,0,,7,,,79,127
73484,note_off,21,0,0,,10,,,57,127
73484,note_off,0,0,0,,10,,,45,127
73485,note_on,1,0,0,,2,,,50,127
73485,note_on,0,0,0,,2,,,38,127
73485,note_on,0,0,0,,6,,,78,127
73591,note_off,106,0,0,,6,,,78,127
73592,note_on,1,0,0,,4,,,76,127
73698,note_off,106,0,0,,4,,,76,127
73699,note_on,1,0,0,,6,,,78,127
73805,note_off,106,0,0,,6,,,78,127
73806,note_on,1,0,0,,7,,,79,127
73912,note_off,106,0,0,,7,,,79,127
73913,note_on,1,0,0,,10,,,81,127
74125,note_off,212,0,0,,0,,,72,127
74126,note_on,1,0,0,,10,,,69,127
74338,note_off,212,0,0,,10,,,69,127
74338,note_off,0,0,0,,2,,,38,127
74338,note_off,0,0,0,,2,,,50,127
74339,note_on,1,0,0,,7,,,43,127
74339,note_on,0,0,0,,7,,,55,127
74339,note_on,0,0,0,,11,,,70,127
74551,note_off,212,0,0,,10,,,81,127
74552,note_on,1,0,0,,6,,,78,127
74764,note_off,212,0,0,,6,,,78,127
74765,note_on,1,0,0,,7,,,79,127
74977,note_off,212,0,0,,11,,,70,127
74978,note_on,1,0,0,,2,,,74,127
75190,note_off,212,0,0,,2,,,74,127
75190,note_off,0,0,0,,7,,,79,127
75190,note_off,0,0,0,,7,,,55,127
75190,note_off,0,0,0,,7,,,43,127
75191,note_on,1,0,0,,0,,,36,127
75191,note_on,0,0,0,,0,,,48,127
75191,note_on,0,0,0,,3,,,75,127
75297,note_off,106,0,0,,3,,,75,127
75298,note_on,1,0,0,,2,,,74,127
75404,note_off,106,0,0,,2,,,74,127
75405,note_on,1,0,0,,0,,,72,127
75511,note_off,106,0,0,,0,,,72,127
75512,note_on,1,0,0,,11,,,70,127
75618,note_off,106,0,0,,11,,,70,127
75619,note_on,1,0,0,,10,,,69,127
75831,note_off,212,0,0,,10,,,69,127
75832,note_on,1,0,0,,7,,,67,127
76044,note_off,212,0,0,,7,,,67,127
76044,note_off,0,0,0,,0,,,48,127
76044,note_off,0,0,0,,0,,,36,127
76045,note_on,1,0,0,,2,,,50,127
76045,note_on,0,0,0,,10,,,69,127
76097,note_off,52,0,0,,10,,,69,127
76098,note_on,1,0,0,,7,,,67,127
76150,note_off,52,0,0,,7,,,67,127
76151,note_on,1,0,0,,10,,,69,127
76203,note_off,52,0,0,,10,,,69,127
76204,note_on,1,0,0,,7,,,67,127
76256,note_off,52,0,0,,7,,,67,127
76257,note_on,1,0,0,,10,,,69,127
76309,note_off,52,0,0,,10,,,69,127
76310,note_on,1,0,0,,7,,,67,127
76362,note_off,52,0,0,,7,,,67,127
76363,note_on,1,0,0,,6,,,66,127
76415,note_off,52,0,0,,6,,,66,127
76416,note_on,1,0,0,,7,,,67,127
76468,note_off,52,0,0,,7,,,67,127
76469,note_on,1,0,0,,2,,,38,127
76469,note_on,0,0,0,,6,,,66,127
76780,note_off,311,0,0,,6,,,66,127
76894,note_off,114,0,0,,2,,,38,127
76894,note_off,0,0,0,,2,,,50,127
76895,note_on,1,0,0,,0,,,72,127
76895,note_on,0,0,0,,10,,,81,127
76947,note_off,52,0,0,,10,,,81,127
76948,note_on,1,0,0,,7,,,79,127
77000,note_off,52,0,0,,7,,,79,127
77001,note_on,1,0,0,,6,,,78,127
77107,note_off,106,0,0,,0,,,72,127
77108,note_on,1,0,0,,2,,,62,127
77320,note_off,212,0,0,,2,,,62,127
77321,note_on,1,0,0,,11,,,70,127
77533,note_off,212,0,0,,11,,,70,127
77533,note_off,0,0,0,,6,,,78,127
77534,note_on,1,0,0,,2,,,62,127
77534,note_on,0,0,0,,7,,,79,127
77746,note_off,212,0,0,,7,,,79,127
77746,note_off,0,0,0,,2,,,62,127
77747,note_on,1,0,0,,10,,,69,127
77747,note_on,0,0,0,,10,,,81,127
77747,note_on,0,0,0,,7,,,79,127
77959,note_off,212,0,0,,7,,,79,127
77959,note_off,0,0,0,,10,,,81,127
77959,note_off,0,0,0,,10,,,69,127
77960,note_on,1,0,0,,2,,,62,127
77960,note_on,0,0,0,,6,,,78,127
78172,note_off,212,0,0,,2,,,62,127
78173,note_on,1,0,0,,11,,,70,127
78385,note_off,212,0,0,,11,,,70,127
78385,note_off,0,0,0,,6,,,78,127
78386,note_on,1,0,0,,2,,,62,127
78598,note_off,212,0,0,,2,,,62,127
78599,note_on,1,0,0,,0,,,72,127
78599,note_on,0,0,0,,10,,,81,127
78651,note_off,52,0,0,,10,,,81,127
78652,note_on,1,0,0,,7,,,79,127
78704,note_off,52,0,0,,7,,,79,127
78705,note_on,1,0,0,,6,,,78,127
78812,note_on,107,0,0,,2,,,62,127
78843,note_off,31,0,0,,0,,,72,127
79025,note_on,182,0,0,,11,,,70,127
79056,note_off,31,0,0,,2,,,62,127
79237,note_off,181,0,0,,6,,,78,127
79238,note_on,1,0,0,,2,,,62,127
79238,note_on,0,0,0,,7,,,79,127
79269,note_off,31,0,0,,11,,,70,127
79450,note_off,181,0,0,,7,,,79,127
79451,note_on,1,0,0,,10,,,69,127
79451,note_on,0,0,0,,10,,,81,127
79451,note_on,0,0,0,,7,,,79,127
79482,note_off,31,0,0,,2,,,62,127
79663,note_off,181,0,0,,7,,,79,127
79663,note_off,0,0,0,,10,,,81,127
79664,note_on,1,0,0,,2,,,62,127
79664,note_on,0,0,0,,6,,,78,127
79695,note_off,31,0,0,,10,,,69,127
79877,note_on,182,0,0,,11,,,70,127
79908,note_off,31,0,0,,2,,,62,127
80089,note_off,181,0,0,,6,,,78,127
80090,note_on,1,0,0,,2,,,62,127
80121,note_off,31,0,0,,11,,,70,127
80303,note_on,182,0,0,,3,,,75,127
80303,note_on,0,0,0,,0,,,84,127
80334,note_off,31,0,0,,2,,,62,127
80355,note_off,21,0,0,,0,,,84,127
80356,note_on,1,0,0,,11,,,82,127
80408,note_off,52,0,0,,11,,,82,127
80409,note_on,1,0,0,,10,,,81,127
80516,note_on,107,0,0,,3,,,63,127
80584,note_off,68,0,0,,3,,,75,127
80730,note_on,146,0,0,,2,,,74,127
80798,note_off,68,0,0,,3,,,63,127
80942,note_off,144,0,0,,10,,,81,127
80943,note_on,1,0,0,,3,,,63,127
80943,note_on,0,0,0,,11,,,82,127
81011,note_off,68,0,0,,2,,,74,127
81155,note_off,144,0,0,,11,,,82,127
81156,note_on,1,0,0,,0,,,72,127
81156,note_on,0,0,0,,11,,,82,127
81156,note_on,0,0,0,,0,,,84,127
81224,note_off,68,0,0,,3,,,63,127
81368,note_off,144,0,0,,0,,,84,127
81368,note_off,0,0,0,,11,,,82,127
81369,note_on,1,0,0,,3,,,63,127
81369,note_on,0,0,0,,10,,,81,127
81437,note_off,68,0,0,,0,,,72,127
81583,note_on,146,0,0,,2,,,74,127
81651,note_off,68,0,0,,3,,,63,127
81795,note_off,144,0,0,,10,,,81,127
81796,note_on,1,0,0,,3,,,63,127
81864,note_off,68,0,0,,2,,,74,127
82010,note_on,146,0,0,,3,,,75,127
82010,note_on,0,0,0,,0,,,84,127
82062,note_off,52,0,0,,0,,,84,127
82063,note_on,1,0,0,,11,,,82,127
82077,note_off,14,0,0,,3,,,63,127
82115,note_off,38,0,0,,11,,,82,127
82116,note_on,1,0,0,,10,,,81,127
82223,note_on,107,0,0,,3,,,63,127
82333,note_off,110,0,0,,3,,,75,127
82436,note_on,103,0,0,,2,,,74,127
82546,note_off,110,0,0,,3,,,63,127
82648,note_off,102,0,0,,10,,,81,127
82649,note_on,1,0,0,,3,,,63,127
82649,note_on,0,0,0,,11,,,82,127
82759,note_off,110,0,0,,2,,,74,127
82861,note_off,102,0,0,,11,,,82,127
82862,note_on,1,0,0,,0,,,72,127
82862,note_on,0,0,0,,0,,,84,127
82862,note_on,0,0,0,,11,,,82,127
82972,note_off,110,0,0,,3,,,63,127
83074,note_off,102,0,0,,11,,,82,127
83074,note_off,0,0,0,,0,,,84,127
83075,note_on,1,0,0,,3,,,63,127
83075,note_on,0,0,0,,10,,,81,127
83185,note_off,110,0,0,,0,,,72,127
83288,note_on,103,0,0,,2,,,74,127
83398,note_off,110,0,0,,3,,,63,127
83500,note_off,102,0,0,,10,,,81,127
83501,note_on,1,0,0,,3,,,63,127
83611,note_off,110,0,0,,2,,,74,127
83714,note_on,103,0,0,,0,,,72,127
83714,note_on,0,0,0,,3,,,87,127
83766,note_off,52,0,0,,3,,,87,127
83767,note_on,1,0,0,,2,,,86,127
83819,note_off,52,0,0,,2,,,86,127
83820,note_on,1,0,0,,0,,,84,127
83823,note_off,3,0,0,,3,,,63,127
83926,note_on,103,0,0,,0,,,60,127
84084,note_off,158,0,0,,0,,,72,127
84140,note_on,56,0,0,,11,,,70,127
84298,note_off,158,0,0,,0,,,60,127
84352,note_off,54,0,0,,0,,,84,127
84353,note_on,1,0,0,,0,,,60,127
84353,note_on,0,0,0,,2,,,86,127
84511,note_off,158,0,0,,11,,,70,127
84565,note_off,54,0,0,,2,,,86,127
84566,note_on,1,0,0,,10,,,69,127
84566,note_on,0,0,0,,0,,,84,127
84618,note_off,52,0,0,,0,,,84,127
84619,note_on,1,0,0,,11,,,82,127
84671,note_off,52,0,0,,11,,,82,127
84672,note_on,1,0,0,,10,,,81,127
84723,note_off,51,0,0,,0,,,60,127
84779,note_on,56,0,0,,0,,,60,127
84937,note_off,158,0,0,,10,,,69,127
84993,note_on,56,0,0,,7,,,67,127
85151,note_off,158,0,0,,0,,,60,127
85205,note_off,54,0,0,,10,,,81,127
85206,note_on,1,0,0,,0,,,60,127
85206,note_on,0,0,0,,11,,,82,127
85364,note_off,158,0,0,,7,,,67,127
85418,note_off,54,0,0,,11,,,82,127
85419,note_on,1,0,0,,6,,,66,127
85419,note_on,0,0,0,,11,,,82,127
85577,note_off,158,0,0,,0,,,60,127
85631,note_off,54,0,0,,11,,,82,127
85632,note_on,1,0,0,,0,,,60,127
85632,note_on,0,0,0,,10,,,81,127
85844,note_off,212,0,0,,10,,,81,127
85844,note_off,0,0,0,,0,,,60,127
85845,note_on,1,0,0,,11,,,58,127
85845,note_on,0,0,0,,2,,,86,127
85885,note_off,40,0,0,,6,,,66,127
86058,note_on,173,0,0,,7,,,67,127
86270,note_off,212,0,0,,2,,,86,127
86270,note_off,0,0,0,,11,,,58,127
86271,note_on,1,0,0,,10,,,57,127
86271,note_on,0,0,0,,0,,,84,127
86483,note_off,212,0,0,,7,,,67,127
86484,note_on,1,0,0,,5,,,65,127
86696,note_off,212,0,0,,0,,,84,127
86696,note_off,0,0,0,,10,,,57,127
86697,note_on,1,0,0,,7,,,55,127
86697,note_on,0,0,0,,11,,,82,127
86909,note_off,212,0,0,,5,,,65,127
86910,note_on,1,0,0,,3,,,63,127
87122,note_off,212,0,0,,11,,,82,127
87122,note_off,0,0,0,,7,,,55,127
87123,note_on,1,0,0,,5,,,53,127
87123,note_on,0,0,0,,10,,,81,127
87335,note_off,212,0,0,,3,,,63,127
87336,note_on,1,0,0,,2,,,62,127
87548,note_off,212,0,0,,10,,,81,127
87548,note_off,0,0,0,,5,,,53,127
87549,note_on,1,0,0,,3,,,51,127
87549,note_on,0,0,0,,7,,,79,127
87761,note_off,212,0,0,,2,,,62,127
87762,note_on,1,0,0,,0,,,60,127
87974,note_off,212,0,0,,7,,,79,127
87974,note_off,0,0,0,,3,,,51,127
87975,note_on,1,0,0,,2,,,50,127
87975,note_on,0,0,0,,10,,,81,127
88027,note_off,52,0,0,,10,,,81,127
88028,note_on,1,0,0,,7,,,79,127
88080,note_off,52,0,0,,7,,,79,127
88081,note_off,1,0,0,,0,,,60,127
88081,note_on,0,0,0,,6,,,78,127
88188,note_on,107,0,0,,2,,,62,127
88400,note_off,212,0,0,,2,,,50,127
88401,note_on,1,0,0,,3,,,51,127
88543,note_on,142,0,0,,10,,,81,127
88551,note_off,8,0,0,,6,,,78,127
88613,note_off,62,0,0,,2,,,62,127
88614,note_on,1,0,0,,0,,,60,127
88614,note_on,0,0,0,,7,,,79,127
88622,note_off,8,0,0,,10,,,81,127
88685,note_on,63,0,0,,6,,,78,127
88693,note_off,8,0,0,,7,,,79,127
88756,note_on,63,0,0,,7,,,79,127
88764,note_off,8,0,0,,6,,,78,127
88826,note_off,62,0,0,,7,,,79,127
88826,note_off,0,0,0,,0,,,60,127
88826,note_off,0,0,0,,3,,,51,127
88827,note_on,1,0,0,,2,,,50,127
88827,note_on,0,0,0,,7,,,79,127
89253,note_off,426,0,0,,7,,,79,127
89254,note_on,1,0,0,,2,,,62,127
89254,note_on,0,0,0,,10,,,81,127
89565,note_off,311,0,0,,10,,,81,127
89679,note_off,114,0,0,,2,,,62,127
89679,note_off,0,0,0,,2,,,50,127
89680,note_on,1,0,0,,2,,,62,127
89680,note_on,0,0,0,,6,,,66,127
89786,note_off,106,0,0,,6,,,66,127
89786,note_off,0,0,0,,2,,,62,127
89787,note_on,1,0,0,,4,,,64,127
89787,note_on,0,0,0,,7,,,67,127
89893,note_off,106,0,0,,7,,,67,127
89893,note_off,0,0,0,,4,,,64,127
89894,note_on,1,0,0,,6,,,66,127
89894,note_on,0,0,0,,10,,,69,127
90000,note_off,106,0,0,,10,,,69,127
90000,note_off,0,0,0,,6,,,66,127
90001,note_on,1,0,0,,7,,,67,127
90001,note_on,0,0,0,,12,,,71,127
90107,note_off,106,0,0,,12,,,71,127
90107,note_off,0,0,0,,7,,,67,127
90108,note_on,1,0,0,,10,,,69,127
90108,note_on,0,0,0,,0,,,72,127
90214,note_off,106,0,0,,0,,,72,127
90214,note_off,0,0,0,,10,,,69,127
90215,note_on,1,0,0,,12,,,71,127
90215,note_on,0,0,0,,2,,,74,127
90321,note_off,106,0,0,,2,,,74,127
90321,note_off,0,0,0,,12,,,71,127
90322,note_on,1,0,0,,0,,,72,127
90322,note_on,0,0,0,,4,,,76,127
90428,note_off,106,0,0,,4,,,76,127
90428,note_off,0,0,0,,0,,,72,127
90429,note_on,1,0,0,,2,,,74,127
90429,note_on,0,0,0,,6,,,78,127
90535,note_off,106,0,0,,6,,,78,127
90535,note_off,0,0,0,,2,,,74,127
90536,note_on,1,0,0,,0,,,48,127
90536,note_on,0,0,0,,6,,,78,127
90748,note_off,212,0,0,,6,,,78,127
90749,note_on,1,0,0,,10,,,81,127
90961,note_off,212,0,0,,0,,,48,127
90962,note_on,1,0,0,,0,,,60,127
91174,note_off,212,0,0,,10,,,81,127
91175,note_on,1,0,0,,7,,,79,127
91387,note_off,212,0,0,,7,,,79,127
91387,note_off,0,0,0,,0,,,60,127
91388,note_on,1,0,0,,0,,,60,127
91388,note_on,0,0,0,,4,,,64,127
91494,note_off,106,0,0,,4,,,64,127
91494,note_off,0,0,0,,0,,,60,127
91495,note_on,1,0,0,,2,,,62,127
91495,note_on,0,0,0,,6,,,66,127
91601,note_off,106,0,0,,6,,,66,127
91601,note_off,0,0,0,,2,,,62,127
91602,note_on,1,0,0,,4,,,64,127
91602,note_on,0,0,0,,7,,,67,127
91708,note_off,106,0,0,,7,,,67,127
91708,note_off,0,0,0,,4,,,64,127
91709,note_on,1,0,0,,6,,,66,127
91709,note_on,0,0,0,,10,,,69,127
91815,note_off,106,0,0,,10,,,69,127
91815,note_off,0,0,0,,6,,,66,127
91816,note_on,1,0,0,,7,,,67,127
91816,note_on,0,0,0,,12,,,71,127
91922,note_off,106,0,0,,12,,,71,127
91922,note_off,0,0,0,,7,,,67,127
91923,note_on,1,0,0,,10,,,69,127
91923,note_on,0,0,0,,0,,,72,127
92029,note_off,106,0,0,,0,,,72,127
92029,note_off,0,0,0,,10,,,69,127
92030,note_on,1,0,0,,12,,,71,127
92030,note_on,0,0,0,,2,,,74,127
92136,note_off,106,0,0,,2,,,74,127
92136,note_off,0,0,0,,12,,,71,127
92137,note_on,1,0,0,,0,,,72,127
92137,note_on,0,0,0,,4,,,76,127
92243,note_off,106,0,0,,4,,,76,127
92243,note_off,0,0,0,,0,,,72,127
92244,note_on,1,0,0,,12,,,47,127
92244,note_on,0,0,0,,6,,,78,127
92456,note_off,212,0,0,,6,,,78,127
92457,note_on,1,0,0,,10,,,81,127
92669,note_off,212,0,0,,12,,,47,127
92670,note_on,1,0,0,,12,,,59,127
92882,note_off,212,0,0,,10,,,81,127
92883,note_on,1,0,0,,7,,,79,127
93095,note_off,212,0,0,,7,,,79,127
93095,note_off,0,0,0,,12,,,59,127
93096,note_on,1,0,0,,12,,,59,127
93096,note_on,0,0,0,,2,,,62,127
93202,note_off,106,0,0,,2,,,62,127
93202,note_off,0,0,0,,12,,,59,127
93203,note_on,1,0,0,,0,,,60,127
93203,note_on,0,0,0,,4,,,64,127
93309,note_off,106,0,0,,4,,,64,127
93309,note_off,0,0,0,,0,,,60,127
93310,note_on,1,0,0,,2,,,62,127
93310,note_on,0,0,0,,6,,,66,127
93416,note_off,106,0,0,,6,,,66,127
93416,note_off,0,0,0,,2,,,62,127
93417,note_on,1,0,0,,4,,,64,127
93417,note_on,0,0,0,,7,,,67,127
93523,note_off,106,0,0,,7,,,67,127
93523,note_off,0,0,0,,4,,,64,127
93524,note_on,1,0,0,,6,,,66,127
93524,note_on,0,0,0,,10,,,69,127
93630,note_off,106,0,0,,10,,,69,127
93630,note_off,0,0,0,,6,,,66,127
93631,note_on,1,0,0,,7,,,67,127
93631,note_on,0,0,0,,12,,,71,127
93737,note_off,106,0,0,,12,,,71,127
93737,note_off,0,0,0,,7,,,67,127
93738,note_on,1,0,0,,10,,,69,127
93738,note_on,0,0,0,,0,,,72,127
93844,note_off,106,0,0,,0,,,72,127
93844,note_off,0,0,0,,10,,,69,127
93845,note_on,1,0,0,,12,,,71,127
93845,note_on,0,0,0,,2,,,74,127
93951,note_off,106,0,0,,2,,,74,127
93951,note_off,0,0,0,,12,,,71,127
93952,note_on,1,0,0,,10,,,45,127
93952,note_on,0,0,0,,0,,,72,127
94164,note_off,212,0,0,,0,,,72,127
94165,note_on,1,0,0,,12,,,83,127
94377,note_off,212,0,0,,10,,,45,127
94378,note_on,1,0,0,,10,,,57,127
94590,note_off,212,0,0,,12,,,83,127
94591,note_on,1,0,0,,10,,,81,127
94803,note_off,212,0,0,,10,,,81,127
94803,note_off,0,0,0,,10,,,57,127
94804,note_on,1,0,0,,10,,,57,127
94804,note_on,0,0,0,,0,,,60,127
94910,note_off,106,0,0,,0,,,60,127
94910,note_off,0,0,0,,10,,,57,127
94911,note_on,1,0,0,,12,,,59,127
94911,note_on,0,0,0,,2,,,62,127
95017,note_off,106,0,0,,2,,,62,127
95017,note_off,0,0,0,,12,,,59,127
95018,note_on,1,0,0,,0,,,60,127
95018,note_on,0,0,0,,4,,,64,127
95124,note_off,106,0,0,,4,,,64,127
95124,note_off,0,0,0,,0,,,60,127
95125,note_on,1,0,0,,2,,,62,127
95125,note_on,0,0,0,,6,,,66,127
95231,note_off,106,0,0,,6,,,66,127
95231,note_off,0,0,0,,2,,,62,127
95232,note_on,1,0,0,,4,,,64,127
95232,note_on,0,0,0,,7,,,67,127
95338,note_off,106,0,0,,7,,,67,127
95338,note_off,0,0,0,,4,,,64,127
95339,note_on,1,0,0,,6,,,66,127
95339,note_on,0,0,0,,10,,,69,127
95445,note_off,106,0,0,,10,,,69,127
95445,note_off,0,0,0,,6,,,66,127
95446,note_on,1,0,0,,7,,,67,127
95446,note_on,0,0,0,,12,,,71,127
95552,note_off,106,0,0,,12,,,71,127
95552,note_off,0,0,0,,7,,,67,127
95553,note_on,1,0,0,,10,,,69,127
95553,note_on,0,0,0,,0,,,72,127
95620,note_off,67,0,0,,0,,,72,127
95653,note_off,33,0,0,,10,,,69,127
95660,note_on,7,0,0,,7,,,43,127
95660,note_on,0,0,0,,12,,,83,127
95766,note_off,106,0,0,,12,,,83,127
95767,note_on,1,0,0,,10,,,81,127
95873,note_off,106,0,0,,10,,,81,127
95874,note_on,1,0,0,,7,,,79,127
95980,note_off,106,0,0,,7,,,79,127
95981,note_on,1,0,0,,6,,,78,127
96087,note_off,106,0,0,,6,,,78,127
96087,note_off,0,0,0,,7,,,43,127
96088,note_on,1,0,0,,7,,,55,127
96088,note_on,0,0,0,,7,,,79,127
96194,note_off,106,0,0,,7,,,79,127
96195,note_on,1,0,0,,6,,,78,127
96301,note_off,106,0,0,,6,,,78,127
96302,note_on,1,0,0,,4,,,76,127
96408,note_off,106,0,0,,4,,,76,127
96409,note_on,1,0,0,,2,,,74,127
96515,note_off,106,0,0,,2,,,74,127
96515,note_off,0,0,0,,7,,,55,127
96516,note_on,1,0,0,,0,,,36,127
96516,note_on,0,0,0,,0,,,48,127
96516,note_on,0,0,0,,0,,,72,127
96622,note_off,106,0,0,,0,,,72,127
96623,note_on,1,0,0,,4,,,76,127
96729,note_off,106,0,0,,4,,,76,127
96730,note_on,1,0,0,,2,,,74,127
96836,note_off,106,0,0,,2,,,74,127
96837,note_on,1,0,0,,0,,,72,127
96943,note_off,106,0,0,,0,,,72,127
96943,note_off,0,0,0,,0,,,48,127
96943,note_off,0,0,0,,0,,,36,127
96944,note_on,1,0,0,,2,,,38,127
96944,note_on,0,0,0,,2,,,50,127
96944,note_on,0,0,0,,12,,,71,127
97050,note_off,106,0,0,,12,,,71,127
97051,note_on,1,0,0,,10,,,69,127
97157,note_off,106,0,0,,10,,,69,127
97158,note_on,1,0,0,,7,,,67,127
97264,note_off,106,0,0,,7,,,67,127
97265,note_on,1,0,0,,6,,,66,127
97371,note_off,106,0,0,,6,,,66,127
97371,note_off,0,0,0,,2,,,50,127
97371,note_off,0,0,0,,2,,,38,127
97372,note_on,1,0,0,,7,,,43,127
97372,note_on,0,0,0,,10,,,69,127
97424,note_off,52,0,0,,10,,,69,127
97425,note_on,1,0,0,,7,,,67,127
97477,note_off,52,0,0,,7,,,67,127
97478,note_on,1,0,0,,10,,,69,127
97530,note_off,52,0,0,,10,,,69,127
97531,note_on,1,0,0,,7,,,67,127
97583,note_off,52,0,0,,7,,,67,127
97584,note_on,1,0,0,,10,,,69,127
97636,note_off,52,0,0,,10,,,69,127
97637,note_on,1,0,0,,7,,,67,127
97689,note_off,52,0,0,,7,,,67,127
97690,note_on,1,0,0,,10,,,69,127
97742,note_off,52,0,0,,10,,,69,127
97743,note_on,1,0,0,,7,,,67,127
97795,note_off,52,0,0,,7,,,67,127
97796,note_on,1,0,0,,10,,,69,127
97848,note_off,52,0,0,,10,,,69,127
97849,note_on,1,0,0,,7,,,67,127
97901,note_off,52,0,0,,7,,,67,127
97902,note_on,1,0,0,,10,,,69,127
97954,note_off,52,0,0,,10,,,69,127
97955,note_on,1,0,0,,7,,,67,127
98007,note_off,52,0,0,,7,,,67,127
98008,note_on,1,0,0,,6,,,66,127
98114,note_off,106,0,0,,6,,,66,127
98115,note_on,1,0,0,,4,,,64,127
98124,note_off,9,0,0,,7,,,43,127
98221,note_off,97,0,0,,4,,,64,127
98222,note_on,1,0,0,,2,,,62,127
98222,note_on,0,0,0,,6,,,66,127
98328,note_off,106,0,0,,6,,,66,127
98328,note_off,0,0,0,,2,,,62,127
98329,note_on,1,0,0,,4,,,64,127
98329,note_on,0,0,0,,7,,,67,127
98435,note_off,106,0,0,,7,,,67,127
98435,note_off,0,0,0,,4,,,64,127
98436,note_on,1,0,0,,6,,,66,127
98436,note_on,0,0,0,,10,,,69,127
98542,note_off,106,0,0,,10,,,69,127
98542,note_off,0,0,0,,6,,,66,127
98543,note_on,1,0,0,,7,,,67,127
98543,note_on,0,0,0,,12,,,71,127
98649,note_off,106,0,0,,12,,,71,127
98649,note_off,0,0,0,,7,,,67,127
98650,note_on,1,0,0,,10,,,69,127
98650,note_on,0,0,0,,0,,,72,127
98756,note_off,106,0,0,,0,,,72,127
98756,note_off,0,0,0,,10,,,69,127
98757,note_on,1,0,0,,12,,,71,127
98757,note_on,0,0,0,,2,,,74,127
98863,note_off,106,0,0,,2,,,74,127
98863,note_off,0,0,0,,12,,,71,127
98864,note_on,1,0,0,,0,,,72,127
98864,note_on,0,0,0,,4,,,76,127
98970,note_off,106,0,0,,4,,,76,127
98970,note_off,0,0,0,,0,,,72,127
98971,note_on,1,0,0,,2,,,74,127
98971,note_on,0,0,0,,6,,,78,127
99077,note_off,106,0,0,,6,,,78,127
99077,note_off,0,0,0,,2,,,74,127
99078,note_on,1,0,0,,0,,,48,127
99078,note_on,0,0,0,,6,,,78,127
99290,note_off,212,0,0,,6,,,78,127
99291,note_on,1,0,0,,10,,,81,127
99503,note_off,212,0,0,,0,,,48,127
99504,note_on,1,0,0,,0,,,60,127
99716,note_off,212,0,0,,10,,,81,127
99717,note_on,1,0,0,,7,,,79,127
99929,note_off,212,0,0,,7,,,79,127
99929,note_off,0,0,0,,0,,,60,127
99930,note_on,1,0,0,,0,,,60,127
99930,note_on,0,0,0,,4,,,64,127
100036,note_off,106,0,0,,4,,,64,127
100036,note_off,0,0,0,,0,,,60,127
100037,note_on,1,0,0,,2,,,62,127
100037,note_on,0,0,0,,6,,,66,127
100143,note_off,106,0,0,,6,,,66,127
100143,note_off,0,0,0,,2,,,62,127
100144,note_on,1,0,0,,4,,,64,127
100144,note_on,0,0,0,,7,,,67,127
100250,note_off,106,0,0,,7,,,67,127
100250,note_off,0,0,0,,4,,,64,127
100251,note_on,1,0,0,,6,,,66,127
100251,note_on,0,0,0,,10,,,69,127
100357,note_off,106,0,0,,10,,,69,127
100357,note_off,0,0,0,,6,,,66,127
100358,note_on,1,0,0,,7,,,67,127
100358,note_on,0,0,0,,12,,,71,127
100464,note_off,106,0,0,,12,,,71,127
100464,note_off,0,0,0,,7,,,67,127
100465,note_on,1,0,0,,10,,,69,127
100465,note_on,0,0,0,,0,,,72,127
100571,note_off,106,0,0,,0,,,72,127
100571,note_off,0,0,0,,10,,,69,127
100572,note_on,1,0,0,,12,,,71,127
100572,note_on,0,0,0,,2,,,74,127
100678,note_off,106,0,0,,2,,,74,127
100678,note_off,0,0,0,,12,,,71,127
100679,note_on,1,0,0,,0,,,72,127
100679,note_on,0,0,0,,4,,,76,127
100785,note_off,106,0,0,,4,,,76,127
100785,note_off,0,0,0,,0,,,72,127
100786,note_on,1,0,0,,12,,,47,127
100786,note_on,0,0,0,,6,,,78,127
100998,note_off,212,0,0,,6,,,78,127
100999,note_on,1,0,0,,10,,,81,127
101211,note_off,212,0,0,,12,,,47,127
101212,note_on,1,0,0,,12,,,59,127
101424,note_off,212,0,0,,10,,,81,127
101425,note_on,1,0,0,,7,,,79,127
101637,note_off,212,0,0,,7,,,79,127
101637,note_off,0,0,0,,12,,,59,127
101638,note_on,1,0,0,,12,,,59,127
101638,note_on,0,0,0,,2,,,62,127
101744,note_off,106,0,0,,2,,,62,127
101744,note_off,0,0,0,,12,,,59,127
101745,note_on,1,0,0,,0,,,60,127
101745,note_on,0,0,0,,4,,,64,127
101851,note_off,106,0,0,,4,,,64,127
101851,note_off,0,0,0,,0,,,60,127
101852,note_on,1,0,0,,2,,,62,127
101852,note_on,0,0,0,,6,,,66,127
101958,note_off,106,0,0,,6,,,66,127
101958,note_off,0,0,0,,2,,,62,127
101959,note_on,1,0,0,,4,,,64,127
101959,note_on,0,0,0,,7,,,67,127
102065,note_off,106,0,0,,7,,,67,127
102065,note_off,0,0,0,,4,,,64,127
102066,note_on,1,0,0,,6,,,66,127
102066,note_on,0,0,0,,10,,,69,127
102172,note_off,106,0,0,,10,,,69,127
102172,note_off,0,0,0,,6,,,66,127
102173,note_on,1,0,0,,7,,,67,127
102173,note_on,0,0,0,,12,,,71,127
102279,note_off,106,0,0,,12,,,71,127
102279,note_off,0,0,0,,7,,,67,127
102280,note_on,1,0,0,,10,,,69,127
102280,note_on,0,0,0,,0,,,72,127
102386,note_off,106,0,0,,0,,,72,127
102386,note_off,0,0,0,,10,,,69,127
102387,note_on,1,0,0,,12,,,71,127
102387,note_on,0,0,0,,2,,,74,127
102493,note_off,106,0,0,,2,,,74,127
102493,note_off,0,0,0,,12,,,71,127
102494,note_on,1,0,0,,10,,,45,127
102494,note_on,0,0,0,,0,,,72,127
102706,note_off,212,0,0,,0,,,72,127
102707,note_on,1,0,0,,12,,,83,127
102919,note_off,212,0,0,,10,,,45,127
102920,note_on,1,0,0,,10,,,57,127
103132,note_off,212,0,0,,12,,,83,127
103133,note_on,1,0,0,,10,,,81,127
103345,note_off,212,0,0,,10,,,81,127
103345,note_off,0,0,0,,10,,,57,127
103346,note_on,1,0,0,,10,,,57,127
103346,note_on,0,0,0,,0,,,60,127
103452,note_off,106,0,0,,0,,,60,127
103452,note_off,0,0,0,,10,,,57,127
103453,note_on,1,0,0,,12,,,59,127
103453,note_on,0,0,0,,2,,,62,127
103559,note_off,106,0,0,,2,,,62,127
103559,note_off,0,0,0,,12,,,59,127
103560,note_on,1,0,0,,0,,,60,127
103560,note_on,0,0,0,,4,,,64,127
103666,note_off,106,0,0,,4,,,64,127
103666,note_off,0,0,0,,0,,,60,127
103667,note_on,1,0,0,,2,,,62,127
103667,note_on,0,0,0,,6,,,66,127
103773,note_off,106,0,0,,6,,,66,127
103773,note_off,0,0,0,,2,,,62,127
103774,note_on,1,0,0,,4,,,64,127
103774,note_on,0,0,0,,7,,,67,127
103880,note_off,106,0,0,,7,,,67,127
103880,note_off,0,0,0,,4,,,64,127
103881,note_on,1,0,0,,6,,,66,127
103881,note_on,0,0,0,,10,,,69,127
103987,note_off,106,0,0,,10,,,69,127
103987,note_off,0,0,0,,6,,,66,127
103988,note_on,1,0,0,,7,,,67,127
103988,note_on,0,0,0,,12,,,71,127
104094,note_off,106,0,0,,12,,,71,127
104094,note_off,0,0,0,,7,,,67,127
104095,note_on,1,0,0,,10,,,69,127
104095,note_on,0,0,0,,0,,,72,127
104162,note_off,67,0,0,,0,,,72,127
104195,note_off,33,0,0,,10,,,69,127
104202,note_on,7,0,0,,7,,,43,127
104202,note_on,0,0,0,,12,,,83,127
104308,note_off,106,0,0,,12,,,83,127
104309,note_on,1,0,0,,10,,,81,127
104415,note_off,106,0,0,,10,,,81,127
104416,note_on,1,0,0,,7,,,79,127
104522,note_off,106,0,0,,7,,,79,127
104523,note_on,1,0,0,,6,,,78,127
104629,note_off,106,0,0,,6,,,78,127
104629,note_off,0,0,0,,7,,,43,127
104630,note_on,1,0,0,,7,,,55,127
104630,note_on,0,0,0,,7,,,79,127
104736,note_off,106,0,0,,7,,,79,127
104737,note_on,1,0,0,,6,,,78,127
104843,note_off,106,0,0,,6,,,78,127
104844,note_on,1,0,0,,4,,,76,127
104950,note_off,106,0,0,,4,,,76,127
104951,note_on,1,0,0,,2,,,74,127
105057,note_off,106,0,0,,2,,,74,127
105057,note_off,0,0,0,,7,,,55,127
105058,note_on,1,0,0,,0,,,36,127
105058,note_on,0,0,0,,0,,,48,127
105058,note_on,0,0,0,,0,,,72,127
105164,note_off,106,0,0,,0,,,72,127
105165,note_on,1,0,0,,4,,,76,127
105271,note_off,106,0,0,,4,,,76,127
105272,note_on,1,0,0,,2,,,74,127
105378,note_off,106,0,0,,2,,,74,127
105379,note_on,1,0,0,,0,,,72,127
105485,note_off,106,0,0,,0,,,72,127
105485,note_off,0,0,0,,0,,,48,127
105485,note_off,0,0,0,,0,,,36,127
105486,note_on,1,0,0,,2,,,38,127
105486,note_on,0,0,0,,2,,,50,127
105486,note_on,0,0,0,,12,,,71,127
105592,note_off,106,0,0,,12,,,71,127
105593,note_on,1,0,0,,10,,,69,127
105699,note_off,106,0,0,,10,,,69,127
105700,note_on,1,0,0,,7,,,67,127
105806,note_off,106,0,0,,7,,,67,127
105807,note_on,1,0,0,,6,,,66,127
105913,note_off,106,0,0,,6,,,66,127
105914,note_on,1,0,0,,7,,,67,127
105932,note_off,18,0,0,,2,,,50,127
105932,note_off,0,0,0,,2,,,38,127
106126,note_off,194,0,0,,7,,,67,127
106127,note_on,1,0,0,,7,,,55,127
106127,note_on,0,0,0,,12,,,47,127
106339,note_off,212,0,0,,12,,,47,127
106339,note_off,0,0,0,,7,,,55,127
106340,note_on,1,0,0,,0,,,48,127
106340,note_on,0,0,0,,10,,,57,127
106552,note_off,212,0,0,,10,,,57,127
106552,note_off,0,0,0,,0,,,48,127
106553,note_on,1,0,0,,12,,,59,127
106553,note_on,0,0,0,,2,,,50,127
106765,note_off,212,0,0,,2,,,50,127
106765,note_off,0,0,0,,12,,,59,127
106766,note_on,1,0,0,,4,,,52,127
106766,note_on,0,0,0,,0,,,60,127
106978,note_off,212,0,0,,0,,,60,127
106978,note_off,0,0,0,,4,,,52,127
106979,note_on,1,0,0,,6,,,54,127
106979,note_on,0,0,0,,2,,,62,127
107191,note_off,212,0,0,,2,,,62,127
107191,note_off,0,0,0,,6,,,54,127
107192,note_on,1,0,0,,7,,,55,127
107192,note_on,0,0,0,,12,,,59,127
107404,note_off,212,0,0,,12,,,59,127
107404,note_off,0,0,0,,7,,,55,127
107405,note_on,1,0,0,,0,,,60,127
107405,note_on,0,0,0,,10,,,57,127
107617,note_off,212,0,0,,10,,,57,127
107617,note_off,0,0,0,,0,,,60,127
107618,note_on,1,0,0,,12,,,59,127
107618,note_on,0,0,0,,2,,,62,127
107725,note_on,107,0,0,,0,,,72,127
107831,note_off,106,0,0,,0,,,72,127
107832,note_on,1,0,0,,12,,,71,127
107938,note_off,106,0,0,,12,,,71,127
107939,note_on,1,0,0,,10,,,69,127
108045,note_off,106,0,0,,10,,,69,127
108045,note_off,0,0,0,,2,,,62,127
108045,note_off,0,0,0,,12,,,59,127
108046,note_on,1,0,0,,7,,,55,127
108046,note_on,0,0,0,,12,,,47,127
108046,note_on,0,0,0,,7,,,67,127
108152,note_off,106,0,0,,7,,,67,127
108153,note_on,1,0,0,,6,,,66,127
108259,note_off,106,0,0,,6,,,66,127
108260,note_on,1,0,0,,4,,,64,127
108366,note_off,106,0,0,,4,,,64,127
108367,note_on,1,0,0,,2,,,62,127
108473,note_off,106,0,0,,2,,,62,127
108473,note_off,0,0,0,,12,,,47,127
108473,note_off,0,0,0,,7,,,55,127
108474,note_on,1,0,0,,0,,,48,127
108474,note_on,0,0,0,,7,,,55,127
108474,note_on,0,0,0,,4,,,64,127
108580,note_off,106,0,0,,4,,,64,127
108581,note_on,1,0,0,,4,,,76,127
108687,note_off,106,0,0,,4,,,76,127
108688,note_on,1,0,0,,2,,,74,127
108794,note_off,106,0,0,,2,,,74,127
108795,note_on,1,0,0,,0,,,72,127
108901,note_off,106,0,0,,0,,,72,127
108901,note_off,0,0,0,,7,,,55,127
108901,note_off,0,0,0,,0,,,48,127
108902,note_on,1,0,0,,2,,,50,127
108902,note_on,0,0,0,,2,,,38,127
108902,note_on,0,0,0,,12,,,71,127
109008,note_off,106,0,0,,12,,,71,127
109009,note_on,1,0,0,,10,,,69,127
109115,note_off,106,0,0,,10,,,69,127
109116,note_on,1,0,0,,7,,,67,127
109222,note_off,106,0,0,,7,,,67,127
109223,note_on,1,0,0,,6,,,66,127
109329,note_off,106,0,0,,6,,,66,127
109330,note_on,1,0,0,,7,,,67,127
109392,note_off,62,0,0,,2,,,38,127
109392,note_off,0,0,0,,2,,,50,127
109542,note_off,150,0,0,,7,,,67,127
109543,note_on,1,0,0,,7,,,67,127
109543,note_on,0,0,0,,12,,,59,127
109755,note_off,212,0,0,,12,,,59,127
109755,note_off,0,0,0,,7,,,67,127
109756,note_on,1,0,0,,10,,,69,127
109756,note_on,0,0,0,,0,,,60,127
109968,note_off,212,0,0,,0,,,60,127
109968,note_off,0,0,0,,10,,,69,127
109969,note_on,1,0,0,,12,,,71,127
109969,note_on,0,0,0,,2,,,62,127
110181,note_off,212,0,0,,2,,,62,127
110181,note_off,0,0,0,,12,,,71,127
110182,note_on,1,0,0,,4,,,64,127
110182,note_on,0,0,0,,0,,,72,127
110394,note_off,212,0,0,,0,,,72,127
110394,note_off,0,0,0,,4,,,64,127
110395,note_on,1,0,0,,6,,,66,127
110395,note_on,0,0,0,,2,,,74,127
110607,note_off,212,0,0,,2,,,74,127
110607,note_off,0,0,0,,6,,,66,127
110608,note_on,1,0,0,,12,,,71,127
110608,note_on,0,0,0,,7,,,67,127
110820,note_off,212,0,0,,7,,,67,127
110820,note_off,0,0,0,,12,,,71,127
110821,note_on,1,0,0,,0,,,72,127
110821,note_on,0,0,0,,10,,,69,127
111033,note_off,212,0,0,,10,,,69,127
111033,note_off,0,0,0,,0,,,72,127
111034,note_on,1,0,0,,12,,,71,127
111034,note_on,0,0,0,,2,,,74,127
111141,note_on,107,0,0,,0,,,84,127
111247,note_off,106,0,0,,0,,,84,127
111248,note_on,1,0,0,,12,,,83,127
111354,note_off,106,0,0,,12,,,83,127
111355,note_on,1,0,0,,10,,,81,127
111461,note_off,106,0,0,,10,,,81,127
111461,note_off,0,0,0,,2,,,74,127
111461,note_off,0,0,0,,12,,,71,127
111462,note_on,1,0,0,,12,,,59,127
111462,note_on,0,0,0,,7,,,67,127
111462,note_on,0,0,0,,7,,,79,127
111568,note_off,106,0,0,,7,,,79,127
111569,note_on,1,0,0,,6,,,78,127
111675,note_off,106,0,0,,6,,,78,127
111676,note_on,1,0,0,,4,,,76,127
111782,note_off,106,0,0,,4,,,76,127
111783,note_on,1,0,0,,2,,,74,127
111889,note_off,106,0,0,,2,,,74,127
111889,note_off,0,0,0,,7,,,67,127
111889,note_off,0,0,0,,12,,,59,127
111890,note_on,1,0,0,,0,,,48,127
111890,note_on,0,0,0,,0,,,60,127
111890,note_on,0,0,0,,4,,,76,127
111996,note_off,106,0,0,,4,,,76,127
111997,note_on,1,0,0,,4,,,88,127
112103,note_off,106,0,0,,4,,,88,127
112104,note_on,1,0,0,,2,,,86,127
112210,note_off,106,0,0,,2,,,86,127
112211,note_on,1,0,0,,0,,,84,127
112317,note_off,106,0,0,,0,,,84,127
112317,note_off,0,0,0,,0,,,60,127
112317,note_off,0,0,0,,0,,,48,127
112318,note_on,1,0,0,,2,,,62,127
112318,note_on,0,0,0,,2,,,50,127
112318,note_on,0,0,0,,12,,,83,127
112424,note_off,106,0,0,,12,,,83,127
112425,note_on,1,0,0,,10,,,81,127
112531,note_off,106,0,0,,10,,,81,127
112532,note_on,1,0,0,,7,,,79,127
112638,note_off,106,0,0,,7,,,79,127
112639,note_on,1,0,0,,6,,,78,127
112745,note_off,106,0,0,,6,,,78,127
112745,note_off,0,0,0,,2,,,50,127
112745,note_off,0,0,0,,2,,,62,127
112746,note_on,1,0,0,,7,,,43,127
112746,note_on,0,0,0,,7,,,55,127
112746,note_on,0,0,0,,7,,,79,127
112852,note_off,106,0,0,,7,,,79,127
112853,note_on,1,0,0,,2,,,86,127
112959,note_off,106,0,0,,2,,,86,127
112960,note_on,1,0,0,,12,,,83,127
113066,note_off,106,0,0,,12,,,83,127
113067,note_on,1,0,0,,7,,,79,127
113173,note_off,106,0,0,,7,,,79,127
113174,note_on,1,0,0,,2,,,74,127
113280,note_off,106,0,0,,2,,,74,127
113281,note_on,1,0,0,,12,,,71,127
113387,note_off,106,0,0,,12,,,71,127
113388,note_on,1,0,0,,7,,,67,127
113494,note_off,106,0,0,,7,,,67,127
113495,note_on,1,0,0,,2,,,62,127
113601,note_off,106,0,0,,2,,,62,127
113601,note_off,0,0,0,,7,,,55,127
113601,note_off,0,0,0,,7,,,43,127
113602,note_on,1,0,0,,2,,,38,127
114029,note_on,427,0,0,,6,,,78,127
114029,note_on,0,0,0,,2,,,74,127
114029,note_on,0,0,0,,0,,,84,127
114029,note_on,0,0,0,,10,,,81,127
114455,note_off,426,0,0,,10,,,81,127
114455,note_off,0,0,0,,0,,,84,127
114455,note_off,0,0,0,,2,,,74,127
114455,note_off,0,0,0,,6,,,78,127
114455,note_off,0,0,0,,2,,,38,127
114456,note_on,1,0,0,,7,,,43,127
114456,note_on,0,0,0,,12,,,83,127
114562,note_off,106,0,0,,12,,,83,127
114563,note_on,1,0,0,,2,,,86,127
114669,note_off,106,0,0,,2,,,86,127
114670,note_on,1,0,0,,12,,,83,127
114776,note_off,106,0,0,,12,,,83,127
114777,note_on,1,0,0,,7,,,79,127
114883,note_off,106,0,0,,7,,,79,127
114884,note_on,1,0,0,,2,,,74,127
114990,note_off,106,0,0,,2,,,74,127
114991,note_on,1,0,0,,12,,,71,127
115097,note_off,106,0,0,,12,,,71,127
115098,note_on,1,0,0,,7,,,67,127
115204,note_off,106,0,0,,7,,,67,127
115205,note_on,1,0,0,,2,,,62,127
115311,note_off,106,0,0,,2,,,62,127
115311,note_off,0,0,0,,7,,,43,127
115312,note_on,1,0,0,,2,,,38,127
115739,note_on,427,0,0,,6,,,66,127
115739,note_on,0,0,0,,12,,,71,127
115791,note_off,52,0,0,,12,,,71,127
115792,note_on,1,0,0,,10,,,69,127
115844,note_off,52,0,0,,10,,,69,127
115845,note_on,1,0,0,,12,,,71,127
115897,note_off,52,0,0,,12,,,71,127
115898,note_on,1,0,0,,10,,,69,127
115950,note_off,52,0,0,,10,,,69,127
115951,note_on,1,0,0,,12,,,71,127
116003,note_off,52,0,0,,12,,,71,127
116004,note_on,1,0,0,,10,,,69,127
116056,note_off,52,0,0,,10,,,69,127
116057,note_on,1,0,0,,7,,,67,127
116109,note_off,52,0,0,,7,,,67,127
116110,note_on,1,0,0,,10,,,69,127
116162,note_off,52,0,0,,10,,,69,127
116162,note_off,0,0,0,,6,,,66,127
116162,note_off,0,0,0,,2,,,38,127
116163,note_on,1,0,0,,7,,,43,127
116163,note_on,0,0,0,,7,,,67,127
117864,note_off,1701,0,0,,7,,,67,127
117864,note_off,0,0,0,,7,,,43,127
124416,end_of_track,6552,1,0,,,,,,
