tick,type,time,meta,track,program,channel,pitch,tempo,note,velocity
0,copyright,0,1,0,,,,,,
0,program_change,0,0,0,6,0,,,,
0,pitchwheel,0,0,0,,0,0,,,
0,program_change,0,0,0,6,1,,,,
0,pitchwheel,0,0,0,,1,-590,,,
0,program_change,0,0,0,6,2,,,,
0,pitchwheel,0,0,0,,2,-272,,,
0,program_change,0,0,0,6,3,,,,
0,pitchwheel,0,0,0,,3,-353,,,
0,program_change,0,0,0,6,4,,,,
0,pitchwheel,0,0,0,,4,-560,,,
0,program_change,0,0,0,6,5,,,,
0,pitchwheel,0,0,0,,5,-80,,,
0,program_change,0,0,0,6,6,,,,
0,pitchwheel,0,0,0,,6,-625,,,
0,program_change,0,0,0,6,7,,,,
0,pitchwheel,0,0,0,,7,-130,,,
0,program_change,0,0,0,6,8,,,,
0,pitchwheel,0,0,0,,8,-512,,,
0,program_change,0,0,0,6,10,,,,
0,pitchwheel,0,0,0,,10,-464,,,
0,program_change,0,0,0,6,11,,,,
0,pitchwheel,0,0,0,,11,-208,,,
0,program_change,0,0,0,6,12,,,,
0,pitchwheel,0,0,0,,12,-553,,,
0,set_tempo,0,1,0,,,,500000,,
121,note_on,121,0,0,,5,,,77,127
361,note_off,240,0,0,,5,,,77,127
364,note_on,3,0,0,,0,,,72,127
604,note_off,240,0,0,,0,,,72,127
607,note_on,3,0,0,,5,,,77,127
847,note_off,240,0,0,,5,,,77,127
850,note_on,3,0,0,,0,,,72,127
1090,note_off,240,0,0,,0,,,72,127
1093,note_on,3,0,0,,5,,,65,127
1093,note_on,0,0,0,,5,,,77,127
1333,note_off,240,0,0,,5,,,65,127
1336,note_on,3,0,0,,0,,,60,127
1576,note_off,240,0,0,,0,,,60,127
1579,note_on,3,0,0,,5,,,65,127
1700,note_off,121,0,0,,5,,,77,127
1819,note_off,119,0,0,,5,,,65,127
1822,note_on,3,0,0,,0,,,60,127
1822,note_on,0,0,0,,7,,,79,127
2062,note_off,240,0,0,,7,,,79,127
2062,note_off,0,0,0,,0,,,60,127
2065,note_on,3,0,0,,5,,,65,127
2065,note_on,0,0,0,,11,,,82,127
2143,note_off,78,0,0,,11,,,82,127
2146,note_on,3,0,0,,10,,,81,127
2224,note_off,78,0,0,,10,,,81,127
2227,note_on,3,0,0,,11,,,82,127
2305,note_off,78,0,0,,11,,,82,127
2308,note_on,3,0,0,,10,,,81,127
2386,note_off,78,0,0,,10,,,81,127
2389,note_on,3,0,0,,7,,,79,127
2467,note_off,78,0,0,,7,,,79,127
2470,note_on,3,0,0,,10,,,81,127
2548,note_off,78,0,0,,10,,,81,127
2551,note_on,3,0,0,,11,,,82,127
2596,note_off,45,0,0,,5,,,65,127
2791,note_off,195,0,0,,11,,,82,127
2794,note_on,3,0,0,,7,,,67,127
2794,note_on,0,0,0,,4,,,76,127
3034,note_off,240,0,0,,4,,,76,127
3034,note_off,0,0,0,,7,,,67,127
3037,note_on,3,0,0,,11,,,70,127
3037,note_on,0,0,0,,5,,,77,127
3115,note_off,78,0,0,,11,,,70,127
3118,note_on,3,0,0,,10,,,69,127
3196,note_off,78,0,0,,10,,,69,127
3199,note_on,3,0,0,,11,,,70,127
3277,note_off,78,0,0,,11,,,70,127
3280,note_on,3,0,0,,10,,,69,127
3358,note_off,78,0,0,,10,,,69,127
3361,note_on,3,0,0,,7,,,67,127
3439,note_off,78,0,0,,7,,,67,127
3442,note_on,3,0,0,,10,,,69,127
3520,note_off,78,0,0,,10,,,69,127
3523,note_on,3,0,0,,11,,,70,127
3644,note_off,121,0,0,,5,,,77,127
3763,note_off,119,0,0,,11,,,70,127
3766,note_on,3,0,0,,4,,,64,127
3766,note_on,0,0,0,,7,,,79,127
4006,note_off,240,0,0,,7,,,79,127
4006,note_off,0,0,0,,4,,,64,127
4009,note_on,3,0,0,,5,,,65,127
4009,note_on,0,0,0,,11,,,82,127
4087,note_off,78,0,0,,11,,,82,127
4090,note_on,3,0,0,,10,,,81,127
4168,note_off,78,0,0,,10,,,81,127
4171,note_on,3,0,0,,11,,,82,127
4249,note_off,78,0,0,,11,,,82,127
4252,note_on,3,0,0,,10,,,81,127
4330,note_off,78,0,0,,10,,,81,127
4333,note_on,3,0,0,,7,,,79,127
4411,note_off,78,0,0,,7,,,79,127
4414,note_on,3,0,0,,10,,,81,127
4492,note_off,78,0,0,,10,,,81,127
4495,note_on,3,0,0,,11,,,82,127
4566,note_off,71,0,0,,5,,,65,127
4735,note_off,169,0,0,,11,,,82,127
4738,note_on,3,0,0,,7,,,67,127
4738,note_on,0,0,0,,4,,,76,127
4978,note_off,240,0,0,,4,,,76,127
4978,note_off,0,0,0,,7,,,67,127
4981,note_on,3,0,0,,11,,,70,127
4981,note_on,0,0,0,,5,,,77,127
5059,note_off,78,0,0,,11,,,70,127
5062,note_on,3,0,0,,10,,,69,127
5140,note_off,78,0,0,,10,,,69,127
5143,note_on,3,0,0,,11,,,70,127
5221,note_off,78,0,0,,11,,,70,127
5224,note_on,3,0,0,,10,,,69,127
5302,note_off,78,0,0,,10,,,69,127
5305,note_on,3,0,0,,7,,,67,127
5383,note_off,78,0,0,,7,,,67,127
5386,note_on,3,0,0,,10,,,69,127
5464,note_off,78,0,0,,10,,,69,127
5467,note_on,3,0,0,,11,,,70,127
5588,note_off,121,0,0,,5,,,77,127
5707,note_off,119,0,0,,11,,,70,127
5710,note_on,3,0,0,,4,,,64,127
5710,note_on,0,0,0,,7,,,79,127
5950,note_off,240,0,0,,7,,,79,127
5950,note_off,0,0,0,,4,,,64,127
5953,note_on,3,0,0,,5,,,65,127
5953,note_on,0,0,0,,11,,,82,127
6031,note_off,78,0,0,,11,,,82,127
6034,note_on,3,0,0,,10,,,81,127
6112,note_off,78,0,0,,10,,,81,127
6115,note_on,3,0,0,,11,,,82,127
6193,note_off,78,0,0,,11,,,82,127
6193,note_off,0,0,0,,5,,,65,127
6196,note_on,3,0,0,,4,,,64,127
6196,note_on,0,0,0,,10,,,81,127
6274,note_off,78,0,0,,10,,,81,127
6277,note_on,3,0,0,,7,,,79,127
6355,note_off,78,0,0,,7,,,79,127
6358,note_on,3,0,0,,10,,,81,127
6436,note_off,78,0,0,,10,,,81,127
6436,note_off,0,0,0,,4,,,64,127
6439,note_on,3,0,0,,2,,,62,127
6439,note_on,0,0,0,,11,,,82,127
6679,note_off,240,0,0,,11,,,82,127
6679,note_off,0,0,0,,2,,,62,127
6682,note_on,3,0,0,,11,,,58,127
6682,note_on,0,0,0,,2,,,86,127
6922,note_off,240,0,0,,2,,,86,127
6922,note_off,0,0,0,,11,,,58,127
6925,note_on,3,0,0,,0,,,60,127
6925,note_on,0,0,0,,11,,,82,127
6983,note_off,58,0,0,,11,,,82,127
6986,note_on,3,0,0,,10,,,81,127
7044,note_off,58,0,0,,10,,,81,127
7047,note_on,3,0,0,,11,,,82,127
7105,note_off,58,0,0,,11,,,82,127
7108,note_on,3,0,0,,10,,,81,127
7166,note_off,58,0,0,,10,,,81,127
7169,note_on,3,0,0,,11,,,58,127
7169,note_on,0,0,0,,7,,,79,127
7409,note_off,240,0,0,,7,,,79,127
7409,note_off,0,0,0,,11,,,58,127
7412,note_on,3,0,0,,10,,,57,127
7652,note_off,240,0,0,,10,,,57,127
7655,note_on,3,0,0,,5,,,53,127
7655,note_on,0,0,0,,7,,,79,127
7713,note_off,58,0,0,,7,,,79,127
7716,note_on,3,0,0,,5,,,77,127
7774,note_off,58,0,0,,5,,,77,127
7777,note_on,3,0,0,,4,,,76,127
7835,note_off,58,0,0,,4,,,76,127
7838,note_on,3,0,0,,5,,,77,127
7896,note_off,58,0,0,,5,,,77,127
7896,note_off,0,0,0,,5,,,53,127
7897,note_off,1,0,0,,0,,,60,127
7898,note_on,1,0,0,,0,,,48,127
7898,note_on,0,0,0,,0,,,60,127
7898,note_on,0,0,0,,7,,,79,127
8138,note_off,240,0,0,,7,,,79,127
8138,note_off,0,0,0,,0,,,48,127
8141,note_on,3,0,0,,10,,,57,127
8141,note_on,0,0,0,,5,,,77,127
8381,note_off,240,0,0,,5,,,77,127
8381,note_off,0,0,0,,10,,,57,127
8384,note_on,3,0,0,,7,,,55,127
8624,note_off,240,0,0,,7,,,55,127
8627,note_on,3,0,0,,5,,,53,127
8627,note_on,0,0,0,,7,,,79,127
8685,note_off,58,0,0,,7,,,79,127
8688,note_on,3,0,0,,5,,,77,127
8746,note_off,58,0,0,,5,,,77,127
8749,note_on,3,0,0,,4,,,76,127
8807,note_off,58,0,0,,4,,,76,127
8810,note_on,3,0,0,,5,,,77,127
8868,note_off,58,0,0,,5,,,77,127
8868,note_off,0,0,0,,5,,,53,127
8869,note_off,1,0,0,,0,,,60,127
8870,note_on,1,0,0,,0,,,48,127
8870,note_on,0,0,0,,0,,,60,127
8870,note_on,0,0,0,,7,,,79,127
9110,note_off,240,0,0,,7,,,79,127
9110,note_off,0,0,0,,0,,,48,127
9113,note_on,3,0,0,,10,,,57,127
9113,note_on,0,0,0,,5,,,77,127
9353,note_off,240,0,0,,5,,,77,127
9353,note_off,0,0,0,,10,,,57,127
9356,note_on,3,0,0,,7,,,55,127
9596,note_off,240,0,0,,7,,,55,127
9599,note_on,3,0,0,,5,,,53,127
9599,note_on,0,0,0,,7,,,79,127
9657,note_off,58,0,0,,7,,,79,127
9660,note_on,3,0,0,,5,,,77,127
9718,note_off,58,0,0,,5,,,77,127
9721,note_on,3,0,0,,4,,,76,127
9779,note_off,58,0,0,,4,,,76,127
9782,note_on,3,0,0,,5,,,77,127
9840,note_off,58,0,0,,5,,,77,127
9840,note_off,0,0,0,,5,,,53,127
9841,note_off,1,0,0,,0,,,60,127
9842,note_on,1,0,0,,4,,,52,127
9842,note_on,0,0,0,,11,,,82,127
10085,note_on,243,0,0,,0,,,60,127
10322,note_off,237,0,0,,4,,,52,127
10325,note_off,3,0,0,,0,,,60,127
10325,note_off,0,0,0,,11,,,82,127
10328,note_on,3,0,0,,5,,,53,127
10328,note_on,0,0,0,,11,,,82,127
10406,note_off,78,0,0,,11,,,82,127
10409,note_on,3,0,0,,10,,,81,127
10487,note_off,78,0,0,,10,,,81,127
10490,note_on,3,0,0,,11,,,82,127
10568,note_off,78,0,0,,11,,,82,127
10571,note_on,3,0,0,,0,,,60,127
10571,note_on,0,0,0,,10,,,81,127
10649,note_off,78,0,0,,10,,,81,127
10652,note_on,3,0,0,,7,,,79,127
10730,note_off,78,0,0,,7,,,79,127
10733,note_on,3,0,0,,10,,,81,127
10809,note_off,76,0,0,,5,,,53,127
10812,note_off,3,0,0,,10,,,81,127
10812,note_off,0,0,0,,0,,,60,127
10815,note_on,3,0,0,,0,,,48,127
10815,note_on,0,0,0,,10,,,81,127
11055,note_off,240,0,0,,10,,,81,127
11058,note_on,3,0,0,,7,,,79,127
11298,note_off,240,0,0,,7,,,79,127
11298,note_off,0,0,0,,0,,,48,127
11301,note_on,3,0,0,,0,,,60,127
11544,note_on,243,0,0,,7,,,79,127
11781,note_off,237,0,0,,0,,,60,127
11784,note_off,3,0,0,,7,,,79,127
11787,note_on,3,0,0,,0,,,84,127
12027,note_off,240,0,0,,0,,,84,127
12030,note_on,3,0,0,,7,,,79,127
12270,note_off,240,0,0,,7,,,79,127
12273,note_on,3,0,0,,4,,,76,127
12513,note_off,240,0,0,,4,,,76,127
12516,note_on,3,0,0,,0,,,72,127
12746,note_off,230,0,0,,0,,,72,127
12759,note_on,13,0,0,,1,,,73,127
12999,note_off,240,0,0,,1,,,73,127
13002,note_on,3,0,0,,2,,,74,127
13223,note_off,221,0,0,,2,,,74,127
13244,note_on,21,0,0,,8,,,80,127
13484,note_off,240,0,0,,8,,,80,127
13487,note_on,3,0,0,,10,,,81,127
13730,note_on,243,0,0,,5,,,65,127
13849,note_off,119,0,0,,10,,,81,127
13852,note_on,3,0,0,,7,,,79,127
13971,note_off,119,0,0,,7,,,79,127
13974,note_on,3,0,0,,5,,,77,127
14093,note_off,119,0,0,,5,,,77,127
14096,note_on,3,0,0,,4,,,76,127
14215,note_off,119,0,0,,4,,,76,127
14218,note_on,3,0,0,,2,,,74,127
14458,note_off,240,0,0,,2,,,74,127
14461,note_on,3,0,0,,0,,,72,127
14701,note_off,240,0,0,,0,,,72,127
14704,note_on,3,0,0,,7,,,55,127
14704,note_on,0,0,0,,0,,,72,127
14944,note_off,240,0,0,,0,,,72,127
14947,note_off,3,0,0,,5,,,65,127
14947,note_on,0,0,0,,2,,,62,127
14947,note_on,0,0,0,,12,,,71,127
15184,note_off,237,0,0,,7,,,55,127
15187,note_off,3,0,0,,12,,,71,127
15187,note_off,0,0,0,,2,,,62,127
15190,note_on,3,0,0,,4,,,64,127
15430,note_off,240,0,0,,4,,,64,127
15433,note_on,3,0,0,,7,,,55,127
15433,note_on,0,0,0,,2,,,74,127
15491,note_off,58,0,0,,2,,,74,127
15494,note_on,3,0,0,,0,,,72,127
15552,note_off,58,0,0,,0,,,72,127
15555,note_on,3,0,0,,12,,,71,127
15613,note_off,58,0,0,,12,,,71,127
15616,note_on,3,0,0,,0,,,72,127
15674,note_off,58,0,0,,0,,,72,127
15674,note_off,0,0,0,,7,,,55,127
15677,note_on,3,0,0,,5,,,65,127
15677,note_on,0,0,0,,2,,,74,127
15917,note_off,240,0,0,,2,,,74,127
15917,note_off,0,0,0,,5,,,65,127
15920,note_on,3,0,0,,7,,,55,127
15920,note_on,0,0,0,,0,,,72,127
16160,note_off,240,0,0,,0,,,72,127
16160,note_off,0,0,0,,7,,,55,127
16163,note_on,3,0,0,,4,,,64,127
16403,note_off,240,0,0,,4,,,64,127
16406,note_on,3,0,0,,7,,,55,127
16406,note_on,0,0,0,,5,,,77,127
16464,note_off,58,0,0,,5,,,77,127
16467,note_on,3,0,0,,4,,,76,127
16525,note_off,58,0,0,,4,,,76,127
16528,note_on,3,0,0,,2,,,74,127
16586,note_off,58,0,0,,2,,,74,127
16589,note_on,3,0,0,,4,,,76,127
16647,note_off,58,0,0,,4,,,76,127
16647,note_off,0,0,0,,7,,,55,127
16650,note_on,3,0,0,,2,,,62,127
16650,note_on,0,0,0,,5,,,77,127
16890,note_off,240,0,0,,5,,,77,127
16890,note_off,0,0,0,,2,,,62,127
16893,note_on,3,0,0,,7,,,55,127
16893,note_on,0,0,0,,4,,,76,127
17133,note_off,240,0,0,,4,,,76,127
17133,note_off,0,0,0,,7,,,55,127
17136,note_on,3,0,0,,0,,,60,127
17376,note_off,240,0,0,,0,,,60,127
17379,note_on,3,0,0,,7,,,55,127
17379,note_on,0,0,0,,10,,,81,127
17437,note_off,58,0,0,,10,,,81,127
17440,note_on,3,0,0,,7,,,79,127
17498,note_off,58,0,0,,7,,,79,127
17501,note_on,3,0,0,,5,,,77,127
17559,note_off,58,0,0,,5,,,77,127
17562,note_on,3,0,0,,7,,,79,127
17620,note_off,58,0,0,,7,,,55,127
17623,note_on,3,0,0,,5,,,53,127
17863,note_off,240,0,0,,7,,,79,127
17866,note_on,3,0,0,,2,,,62,127
17866,note_on,0,0,0,,10,,,81,127
18103,note_off,237,0,0,,5,,,53,127
18106,note_off,3,0,0,,10,,,81,127
18109,note_on,3,0,0,,7,,,55,127
18109,note_on,0,0,0,,0,,,84,127
18187,note_off,78,0,0,,0,,,84,127
18190,note_on,3,0,0,,12,,,83,127
18268,note_off,78,0,0,,12,,,83,127
18271,note_on,3,0,0,,0,,,84,127
18349,note_off,78,0,0,,0,,,84,127
18349,note_off,0,0,0,,7,,,55,127
18352,note_on,3,0,0,,5,,,53,127
18352,note_on,0,0,0,,12,,,83,127
18430,note_off,78,0,0,,12,,,83,127
18433,note_on,3,0,0,,10,,,81,127
18511,note_off,78,0,0,,10,,,81,127
18514,note_on,3,0,0,,12,,,83,127
18592,note_off,78,0,0,,12,,,83,127
18592,note_off,0,0,0,,5,,,53,127
18593,note_off,1,0,0,,2,,,62,127
18594,note_on,1,0,0,,4,,,52,127
18594,note_on,0,0,0,,0,,,60,127
18594,note_on,0,0,0,,0,,,84,127
18834,note_off,240,0,0,,0,,,84,127
18837,note_on,3,0,0,,7,,,79,127
19077,note_off,240,0,0,,7,,,79,127
19080,note_on,3,0,0,,4,,,76,127
19320,note_off,240,0,0,,4,,,76,127
19320,note_off,0,0,0,,4,,,52,127
19323,note_on,3,0,0,,4,,,52,127
19323,note_on,0,0,0,,0,,,72,127
19563,note_off,240,0,0,,0,,,72,127
19563,note_off,0,0,0,,4,,,52,127
19564,note_off,1,0,0,,0,,,60,127
19565,note_on,1,0,0,,5,,,53,127
19565,note_on,0,0,0,,5,,,41,127
19565,note_on,0,0,0,,12,,,83,127
19684,note_off,119,0,0,,12,,,83,127
19687,note_on,3,0,0,,10,,,81,127
19806,note_off,119,0,0,,10,,,81,127
19809,note_on,3,0,0,,7,,,79,127
19928,note_off,119,0,0,,7,,,79,127
19931,note_on,3,0,0,,5,,,77,127
20050,note_off,119,0,0,,5,,,77,127
20050,note_off,0,0,0,,5,,,41,127
20050,note_off,0,0,0,,5,,,53,127
20053,note_on,3,0,0,,7,,,43,127
20053,note_on,0,0,0,,7,,,55,127
20053,note_on,0,0,0,,4,,,76,127
20172,note_off,119,0,0,,4,,,76,127
20175,note_on,3,0,0,,2,,,74,127
20294,note_off,119,0,0,,2,,,74,127
20297,note_on,3,0,0,,0,,,72,127
20416,note_off,119,0,0,,0,,,72,127
20419,note_on,3,0,0,,12,,,71,127
20538,note_off,119,0,0,,12,,,71,127
20538,note_off,0,0,0,,7,,,55,127
20538,note_off,0,0,0,,7,,,43,127
20541,note_on,3,0,0,,0,,,48,127
20541,note_on,0,0,0,,12,,,71,127
20781,note_off,240,0,0,,12,,,71,127
20781,note_off,0,0,0,,0,,,48,127
20784,note_on,3,0,0,,0,,,60,127
20784,note_on,0,0,0,,0,,,72,127
21024,note_off,240,0,0,,0,,,60,127
21027,note_on,3,0,0,,7,,,67,127
21148,note_off,121,0,0,,0,,,72,127
21267,note_off,119,0,0,,7,,,67,127
21270,note_on,3,0,0,,0,,,60,127
21510,note_off,240,0,0,,0,,,60,127
21513,note_on,3,0,0,,10,,,69,127
21753,note_off,240,0,0,,10,,,69,127
21756,note_on,3,0,0,,0,,,60,127
21756,note_on,0,0,0,,5,,,77,127
21996,note_off,240,0,0,,0,,,60,127
21999,note_on,3,0,0,,12,,,71,127
22224,note_off,225,0,0,,5,,,77,127
22239,note_off,15,0,0,,12,,,71,127
22242,note_on,3,0,0,,0,,,60,127
22242,note_on,0,0,0,,10,,,81,127
22482,note_off,240,0,0,,0,,,60,127
22485,note_on,3,0,0,,0,,,72,127
22710,note_off,225,0,0,,10,,,81,127
22725,note_off,15,0,0,,0,,,72,127
22728,note_on,3,0,0,,0,,,60,127
22728,note_on,0,0,0,,7,,,79,127
22847,note_off,119,0,0,,7,,,79,127
22850,note_on,3,0,0,,5,,,77,127
22969,note_off,119,0,0,,5,,,77,127
22969,note_off,0,0,0,,0,,,60,127
22972,note_on,3,0,0,,7,,,67,127
22972,note_on,0,0,0,,4,,,76,127
23212,note_off,240,0,0,,7,,,67,127
23215,note_on,3,0,0,,0,,,60,127
23452,note_off,237,0,0,,4,,,76,127
23455,note_off,3,0,0,,0,,,60,127
23458,note_on,3,0,0,,10,,,69,127
23698,note_off,240,0,0,,10,,,69,127
23701,note_on,3,0,0,,0,,,60,127
23701,note_on,0,0,0,,5,,,77,127
23941,note_off,240,0,0,,0,,,60,127
23944,note_on,3,0,0,,12,,,71,127
24131,note_off,187,0,0,,5,,,77,127
24184,note_off,53,0,0,,12,,,71,127
24187,note_on,3,0,0,,0,,,60,127
24187,note_on,0,0,0,,10,,,81,127
24430,note_on,243,0,0,,0,,,72,127
24670,note_off,240,0,0,,10,,,81,127
24673,note_on,3,0,0,,7,,,79,127
24792,note_off,119,0,0,,7,,,79,127
24795,note_on,3,0,0,,5,,,77,127
24911,note_off,116,0,0,,0,,,72,127
24914,note_off,3,0,0,,5,,,77,127
24915,note_off,1,0,0,,0,,,60,127
24916,note_on,1,0,0,,4,,,76,127
25035,note_off,119,0,0,,4,,,76,127
25038,note_on,3,0,0,,7,,,79,127
25157,note_off,119,0,0,,7,,,79,127
25160,note_on,3,0,0,,5,,,77,127
25279,note_off,119,0,0,,5,,,77,127
25282,note_on,3,0,0,,4,,,76,127
25401,note_off,119,0,0,,4,,,76,127
25404,note_on,3,0,0,,5,,,77,127
25523,note_off,119,0,0,,5,,,77,127
25526,note_on,3,0,0,,6,,,78,127
25645,note_off,119,0,0,,6,,,78,127
25648,note_on,3,0,0,,7,,,79,127
25767,note_off,119,0,0,,7,,,79,127
25770,note_on,3,0,0,,8,,,80,127
25889,note_off,119,0,0,,8,,,80,127
25892,note_on,3,0,0,,10,,,81,127
26011,note_off,119,0,0,,10,,,81,127
26014,note_on,3,0,0,,12,,,83,127
26133,note_off,119,0,0,,12,,,83,127
26136,note_on,3,0,0,,0,,,84,127
26255,note_off,119,0,0,,0,,,84,127
26258,note_on,3,0,0,,2,,,86,127
26377,note_off,119,0,0,,2,,,86,127
26380,note_on,3,0,0,,7,,,79,127
26623,note_on,243,0,0,,7,,,43,127
26623,note_on,0,0,0,,7,,,55,127
26863,note_off,240,0,0,,7,,,55,127
26863,note_off,0,0,0,,7,,,43,127
26866,note_on,3,0,0,,10,,,45,127
26866,note_on,0,0,0,,10,,,57,127
27106,note_off,240,0,0,,10,,,57,127
27106,note_off,0,0,0,,10,,,45,127
27106,note_off,0,0,0,,7,,,79,127
27109,note_on,3,0,0,,12,,,47,127
27109,note_on,0,0,0,,12,,,59,127
27109,note_on,0,0,0,,5,,,77,127
27349,note_off,240,0,0,,5,,,77,127
27349,note_off,0,0,0,,12,,,59,127
27349,note_off,0,0,0,,12,,,47,127
27352,note_on,3,0,0,,0,,,48,127
27352,note_on,0,0,0,,0,,,60,127
27352,note_on,0,0,0,,5,,,77,127
27471,note_off,119,0,0,,5,,,77,127
27474,note_on,3,0,0,,4,,,76,127
27593,note_off,119,0,0,,4,,,76,127
27593,note_off,0,0,0,,0,,,60,127
27593,note_off,0,0,0,,0,,,48,127
27596,note_on,3,0,0,,4,,,52,127
27596,note_on,0,0,0,,2,,,74,127
27715,note_off,119,0,0,,2,,,74,127
27718,note_on,3,0,0,,0,,,72,127
27837,note_off,119,0,0,,0,,,72,127
27837,note_off,0,0,0,,4,,,52,127
27840,note_on,3,0,0,,5,,,53,127
27840,note_on,0,0,0,,4,,,76,127
27918,note_off,78,0,0,,4,,,76,127
27921,note_on,3,0,0,,2,,,74,127
27999,note_off,78,0,0,,2,,,74,127
28002,note_on,3,0,0,,4,,,76,127
28080,note_off,78,0,0,,4,,,76,127
28080,note_off,0,0,0,,5,,,53,127
28083,note_on,3,0,0,,7,,,55,127
28083,note_on,0,0,0,,2,,,74,127
28161,note_off,78,0,0,,2,,,74,127
28164,note_on,3,0,0,,4,,,76,127
28242,note_off,78,0,0,,4,,,76,127
28245,note_on,3,0,0,,2,,,74,127
28323,note_off,78,0,0,,2,,,74,127
28323,note_off,0,0,0,,7,,,55,127
28326,note_on,3,0,0,,0,,,48,127
28326,note_on,0,0,0,,0,,,72,127
28566,note_off,240,0,0,,0,,,48,127
28569,note_on,3,0,0,,0,,,60,127
28806,note_off,237,0,0,,0,,,72,127
28809,note_off,3,0,0,,0,,,60,127
28812,note_on,3,0,0,,0,,,36,127
29055,note_on,243,0,0,,7,,,67,127
29055,note_on,0,0,0,,4,,,76,127
29295,note_off,240,0,0,,4,,,76,127
29295,note_off,0,0,0,,7,,,67,127
29295,note_off,0,0,0,,0,,,36,127
29298,note_on,3,0,0,,0,,,36,127
29298,note_on,0,0,0,,10,,,69,127
29298,note_on,0,0,0,,5,,,77,127
29538,note_off,240,0,0,,10,,,69,127
29541,note_on,3,0,0,,5,,,65,127
29778,note_off,237,0,0,,5,,,77,127
29781,note_off,3,0,0,,5,,,65,127
29781,note_off,0,0,0,,0,,,36,127
29784,note_on,3,0,0,,0,,,36,127
29784,note_on,0,0,0,,12,,,71,127
29784,note_on,0,0,0,,5,,,77,127
30024,note_off,240,0,0,,12,,,71,127
30027,note_on,3,0,0,,7,,,67,127
30264,note_off,237,0,0,,5,,,77,127
30267,note_off,3,0,0,,7,,,67,127
30267,note_off,0,0,0,,0,,,36,127
30270,note_on,3,0,0,,0,,,36,127
30270,note_on,0,0,0,,10,,,81,127
30270,note_on,0,0,0,,0,,,72,127
30591,note_off,321,0,0,,10,,,81,127
30594,note_on,3,0,0,,7,,,79,127
30672,note_off,78,0,0,,7,,,79,127
30675,note_on,3,0,0,,5,,,77,127
30753,note_off,78,0,0,,5,,,77,127
30753,note_off,0,0,0,,0,,,36,127
30756,note_on,3,0,0,,0,,,36,127
30756,note_on,0,0,0,,4,,,76,127
30996,note_off,240,0,0,,4,,,76,127
30997,note_off,1,0,0,,0,,,72,127
30998,note_on,1,0,0,,7,,,67,127
30998,note_on,0,0,0,,4,,,76,127
31238,note_off,240,0,0,,4,,,76,127
31238,note_off,0,0,0,,7,,,67,127
31238,note_off,0,0,0,,0,,,36,127
31241,note_on,3,0,0,,0,,,36,127
31241,note_on,0,0,0,,10,,,69,127
31241,note_on,0,0,0,,5,,,77,127
31481,note_off,240,0,0,,10,,,69,127
31484,note_on,3,0,0,,5,,,65,127
31721,note_off,237,0,0,,5,,,77,127
31724,note_off,3,0,0,,5,,,65,127
31724,note_off,0,0,0,,0,,,36,127
31727,note_on,3,0,0,,0,,,36,127
31727,note_on,0,0,0,,5,,,77,127
31727,note_on,0,0,0,,12,,,71,127
31967,note_off,240,0,0,,12,,,71,127
31970,note_on,3,0,0,,7,,,67,127
32207,note_off,237,0,0,,5,,,77,127
32210,note_off,3,0,0,,7,,,67,127
32210,note_off,0,0,0,,0,,,36,127
32213,note_on,3,0,0,,0,,,36,127
32213,note_on,0,0,0,,10,,,81,127
32213,note_on,0,0,0,,0,,,72,127
32534,note_off,321,0,0,,10,,,81,127
32537,note_on,3,0,0,,7,,,79,127
32615,note_off,78,0,0,,7,,,79,127
32618,note_on,3,0,0,,5,,,77,127
32694,note_off,76,0,0,,0,,,72,127
32694,note_off,0,0,0,,0,,,36,127
32697,note_off,3,0,0,,5,,,77,127
32700,note_on,3,0,0,,4,,,76,127
32819,note_off,119,0,0,,4,,,76,127
32822,note_on,3,0,0,,7,,,79,127
32941,note_off,119,0,0,,7,,,79,127
32944,note_on,3,0,0,,5,,,77,127
33063,note_off,119,0,0,,5,,,77,127
33066,note_on,3,0,0,,4,,,76,127
33185,note_off,119,0,0,,4,,,76,127
33188,note_on,3,0,0,,5,,,77,127
33307,note_off,119,0,0,,5,,,77,127
33310,note_on,3,0,0,,6,,,78,127
33429,note_off,119,0,0,,6,,,78,127
33432,note_on,3,0,0,,7,,,79,127
33551,note_off,119,0,0,,7,,,79,127
33554,note_on,3,0,0,,8,,,80,127
33673,note_off,119,0,0,,8,,,80,127
33676,note_on,3,0,0,,10,,,81,127
33795,note_off,119,0,0,,10,,,81,127
33798,note_on,3,0,0,,12,,,83,127
33917,note_off,119,0,0,,12,,,83,127
33920,note_on,3,0,0,,0,,,84,127
34039,note_off,119,0,0,,0,,,84,127
34042,note_on,3,0,0,,2,,,86,127
34161,note_off,119,0,0,,2,,,86,127
34164,note_on,3,0,0,,7,,,79,127
34407,note_on,243,0,0,,7,,,43,127
34407,note_on,0,0,0,,7,,,55,127
34647,note_off,240,0,0,,7,,,55,127
34647,note_off,0,0,0,,7,,,43,127
34650,note_on,3,0,0,,10,,,45,127
34650,note_on,0,0,0,,10,,,57,127
34890,note_off,240,0,0,,10,,,57,127
34890,note_off,0,0,0,,10,,,45,127
34890,note_off,0,0,0,,7,,,79,127
34893,note_on,3,0,0,,12,,,47,127
34893,note_on,0,0,0,,12,,,59,127
34893,note_on,0,0,0,,5,,,77,127
35133,note_off,240,0,0,,5,,,77,127
35133,note_off,0,0,0,,12,,,59,127
35133,note_off,0,0,0,,12,,,47,127
35136,note_on,3,0,0,,0,,,48,127
35136,note_on,0,0,0,,0,,,60,127
35136,note_on,0,0,0,,5,,,77,127
35255,note_off,119,0,0,,5,,,77,127
35258,note_on,3,0,0,,4,,,76,127
35377,note_off,119,0,0,,4,,,76,127
35377,note_off,0,0,0,,0,,,60,127
35377,note_off,0,0,0,,0,,,48,127
35380,note_on,3,0,0,,4,,,52,127
35380,note_on,0,0,0,,2,,,74,127
35499,note_off,119,0,0,,2,,,74,127
35502,note_on,3,0,0,,0,,,72,127
35621,note_off,119,0,0,,0,,,72,127
35621,note_off,0,0,0,,4,,,52,127
35624,note_on,3,0,0,,5,,,53,127
35624,note_on,0,0,0,,4,,,76,127
35702,note_off,78,0,0,,4,,,76,127
35705,note_on,3,0,0,,2,,,74,127
35783,note_off,78,0,0,,2,,,74,127
35786,note_on,3,0,0,,4,,,76,127
35864,note_off,78,0,0,,4,,,76,127
35864,note_off,0,0,0,,5,,,53,127
35867,note_on,3,0,0,,7,,,55,127
35867,note_on,0,0,0,,2,,,74,127
35945,note_off,78,0,0,,2,,,74,127
35948,note_on,3,0,0,,4,,,76,127
36026,note_off,78,0,0,,4,,,76,127
36029,note_on,3,0,0,,2,,,74,127
36107,note_off,78,0,0,,2,,,74,127
36107,note_off,0,0,0,,7,,,55,127
36110,note_on,3,0,0,,0,,,48,127
36110,note_on,0,0,0,,0,,,72,127
36229,note_off,119,0,0,,0,,,48,127
36232,note_on,3,0,0,,0,,,60,127
36351,note_off,119,0,0,,0,,,60,127
36351,note_off,0,0,0,,0,,,72,127
36354,note_on,3,0,0,,7,,,55,127
36354,note_on,0,0,0,,7,,,79,127
36354,note_on,0,0,0,,7,,,67,127
36473,note_off,119,0,0,,7,,,55,127
36476,note_on,3,0,0,,0,,,48,127
36595,note_off,119,0,0,,0,,,48,127
36598,note_on,3,0,0,,7,,,43,127
36838,note_off,240,0,0,,7,,,67,127
36838,note_off,0,0,0,,7,,,79,127
36841,note_on,3,0,0,,7,,,79,127
36841,note_on,0,0,0,,5,,,77,127
36919,note_off,78,0,0,,5,,,77,127
36919,note_off,0,0,0,,7,,,79,127
36922,note_on,3,0,0,,4,,,76,127
37000,note_off,78,0,0,,4,,,76,127
37003,note_on,3,0,0,,2,,,74,127
37079,note_off,76,0,0,,7,,,43,127
37082,note_off,3,0,0,,2,,,74,127
37085,note_on,3,0,0,,7,,,67,127
37085,note_on,0,0,0,,4,,,76,127
37206,note_on,121,0,0,,0,,,60,127
37325,note_off,119,0,0,,0,,,60,127
37325,note_off,0,0,0,,4,,,76,127
37325,note_off,0,0,0,,7,,,67,127
37328,note_on,3,0,0,,7,,,55,127
37328,note_on,0,0,0,,7,,,67,127
37328,note_on,0,0,0,,7,,,79,127
37447,note_off,119,0,0,,7,,,55,127
37450,note_on,3,0,0,,0,,,48,127
37569,note_off,119,0,0,,0,,,48,127
37572,note_on,3,0,0,,7,,,43,127
37812,note_off,240,0,0,,7,,,79,127
37812,note_off,0,0,0,,7,,,67,127
37815,note_on,3,0,0,,7,,,79,127
37815,note_on,0,0,0,,5,,,77,127
37893,note_off,78,0,0,,5,,,77,127
37893,note_off,0,0,0,,7,,,79,127
37896,note_on,3,0,0,,4,,,76,127
37974,note_off,78,0,0,,4,,,76,127
37977,note_on,3,0,0,,2,,,74,127
38053,note_off,76,0,0,,7,,,43,127
38056,note_off,3,0,0,,2,,,74,127
38059,note_on,3,0,0,,4,,,76,127
38059,note_on,0,0,0,,7,,,67,127
38180,note_on,121,0,0,,0,,,60,127
38299,note_off,119,0,0,,0,,,60,127
38299,note_off,0,0,0,,7,,,67,127
38299,note_off,0,0,0,,4,,,76,127
38302,note_on,3,0,0,,7,,,55,127
38302,note_on,0,0,0,,7,,,67,127
38302,note_on,0,0,0,,7,,,79,127
38421,note_off,119,0,0,,7,,,55,127
38424,note_on,3,0,0,,0,,,48,127
38543,note_off,119,0,0,,0,,,48,127
38546,note_on,3,0,0,,7,,,43,127
38786,note_off,240,0,0,,7,,,79,127
38786,note_off,0,0,0,,7,,,67,127
38789,note_on,3,0,0,,7,,,79,127
38789,note_on,0,0,0,,5,,,77,127
38867,note_off,78,0,0,,5,,,77,127
38867,note_off,0,0,0,,7,,,79,127
38870,note_on,3,0,0,,4,,,76,127
38948,note_off,78,0,0,,4,,,76,127
38951,note_on,3,0,0,,2,,,74,127
38989,note_off,38,0,0,,7,,,43,127
39029,note_off,40,0,0,,2,,,74,127
39032,note_on,3,0,0,,0,,,36,127
39032,note_on,0,0,0,,4,,,76,127
39032,note_on,0,0,0,,7,,,67,127
39110,note_off,78,0,0,,7,,,67,127
39110,note_off,0,0,0,,4,,,76,127
39113,note_on,3,0,0,,2,,,74,127
39191,note_off,78,0,0,,2,,,74,127
39194,note_on,3,0,0,,4,,,76,127
39272,note_off,78,0,0,,4,,,76,127
39272,note_off,0,0,0,,0,,,36,127
39275,note_on,3,0,0,,5,,,41,127
39275,note_on,0,0,0,,5,,,77,127
39353,note_off,78,0,0,,5,,,77,127
39356,note_on,3,0,0,,4,,,76,127
39434,note_off,78,0,0,,4,,,76,127
39437,note_on,3,0,0,,2,,,74,127
39515,note_off,78,0,0,,2,,,74,127
39515,note_off,0,0,0,,5,,,41,127
39518,note_on,3,0,0,,7,,,43,127
39518,note_on,0,0,0,,0,,,72,127
39758,note_off,240,0,0,,0,,,72,127
39758,note_off,0,0,0,,7,,,43,127
39761,note_on,3,0,0,,7,,,43,127
39761,note_on,0,0,0,,0,,,72,127
39819,note_off,58,0,0,,0,,,72,127
39822,note_on,3,0,0,,12,,,71,127
39880,note_off,58,0,0,,12,,,71,127
39883,note_on,3,0,0,,10,,,69,127
39941,note_off,58,0,0,,10,,,69,127
39944,note_on,3,0,0,,12,,,71,127
40002,note_off,58,0,0,,12,,,71,127
40002,note_off,0,0,0,,7,,,43,127
40005,note_on,3,0,0,,0,,,72,127
40126,note_on,121,0,0,,0,,,60,127
40245,note_off,119,0,0,,0,,,60,127
40245,note_off,0,0,0,,0,,,72,127
40248,note_on,3,0,0,,7,,,55,127
40248,note_on,0,0,0,,7,,,79,127
40248,note_on,0,0,0,,7,,,67,127
40367,note_off,119,0,0,,7,,,55,127
40370,note_on,3,0,0,,0,,,48,127
40489,note_off,119,0,0,,0,,,48,127
40492,note_on,3,0,0,,7,,,43,127
40732,note_off,240,0,0,,7,,,67,127
40732,note_off,0,0,0,,7,,,79,127
40735,note_on,3,0,0,,7,,,79,127
40735,note_on,0,0,0,,5,,,77,127
40813,note_off,78,0,0,,5,,,77,127
40813,note_off,0,0,0,,7,,,79,127
40816,note_on,3,0,0,,4,,,76,127
40894,note_off,78,0,0,,4,,,76,127
40897,note_on,3,0,0,,2,,,74,127
40973,note_off,76,0,0,,7,,,43,127
40976,note_off,3,0,0,,2,,,74,127
40979,note_on,3,0,0,,7,,,67,127
40979,note_on,0,0,0,,4,,,76,127
41100,note_on,121,0,0,,0,,,60,127
41219,note_off,119,0,0,,0,,,60,127
41219,note_off,0,0,0,,4,,,76,127
41219,note_off,0,0,0,,7,,,67,127
41222,note_on,3,0,0,,7,,,55,127
41222,note_on,0,0,0,,7,,,79,127
41222,note_on,0,0,0,,7,,,67,127
41341,note_off,119,0,0,,7,,,55,127
41344,note_on,3,0,0,,0,,,48,127
41463,note_off,119,0,0,,0,,,48,127
41466,note_on,3,0,0,,7,,,43,127
41706,note_off,240,0,0,,7,,,67,127
41706,note_off,0,0,0,,7,,,79,127
41709,note_on,3,0,0,,7,,,79,127
41709,note_on,0,0,0,,5,,,77,127
41787,note_off,78,0,0,,5,,,77,127
41787,note_off,0,0,0,,7,,,79,127
41790,note_on,3,0,0,,4,,,76,127
41868,note_off,78,0,0,,4,,,76,127
41871,note_on,3,0,0,,2,,,74,127
41947,note_off,76,0,0,,7,,,43,127
41950,note_off,3,0,0,,2,,,74,127
41953,note_on,3,0,0,,7,,,67,127
41953,note_on,0,0,0,,4,,,76,127
42074,note_on,121,0,0,,0,,,60,127
42193,note_off,119,0,0,,0,,,60,127
42193,note_off,0,0,0,,4,,,76,127
42193,note_off,0,0,0,,7,,,67,127
42196,note_on,3,0,0,,7,,,55,127
42196,note_on,0,0,0,,7,,,67,127
42196,note_on,0,0,0,,7,,,79,127
42315,note_off,119,0,0,,7,,,55,127
42318,note_on,3,0,0,,0,,,48,127
42437,note_off,119,0,0,,0,,,48,127
42440,note_on,3,0,0,,7,,,43,127
42680,note_off,240,0,0,,7,,,79,127
42680,note_off,0,0,0,,7,,,67,127
42683,note_on,3,0,0,,5,,,77,127
42683,note_on,0,0,0,,7,,,79,127
42761,note_off,78,0,0,,7,,,79,127
42761,note_off,0,0,0,,5,,,77,127
42764,note_on,3,0,0,,4,,,76,127
42842,note_off,78,0,0,,4,,,76,127
42845,note_on,3,0,0,,2,,,74,127
42923,note_off,78,0,0,,2,,,74,127
42923,note_off,0,0,0,,7,,,43,127
42926,note_on,3,0,0,,0,,,36,127
42926,note_on,0,0,0,,7,,,67,127
42926,note_on,0,0,0,,4,,,76,127
43004,note_off,78,0,0,,4,,,76,127
43004,note_off,0,0,0,,7,,,67,127
43007,note_on,3,0,0,,2,,,74,127
43085,note_off,78,0,0,,2,,,74,127
43088,note_on,3,0,0,,4,,,76,127
43166,note_off,78,0,0,,4,,,76,127
43166,note_off,0,0,0,,0,,,36,127
43169,note_on,3,0,0,,5,,,41,127
43169,note_on,0,0,0,,5,,,77,127
43247,note_off,78,0,0,,5,,,77,127
43250,note_on,3,0,0,,4,,,76,127
43328,note_off,78,0,0,,4,,,76,127
43331,note_on,3,0,0,,2,,,74,127
43409,note_off,78,0,0,,2,,,74,127
43409,note_off,0,0,0,,5,,,41,127
43412,note_on,3,0,0,,7,,,43,127
43412,note_on,0,0,0,,0,,,72,127
43652,note_off,240,0,0,,0,,,72,127
43652,note_off,0,0,0,,7,,,43,127
43655,note_on,3,0,0,,7,,,43,127
43655,note_on,0,0,0,,0,,,72,127
43713,note_off,58,0,0,,0,,,72,127
43716,note_on,3,0,0,,12,,,71,127
43774,note_off,58,0,0,,12,,,71,127
43777,note_on,3,0,0,,10,,,69,127
43835,note_off,58,0,0,,10,,,69,127
43838,note_on,3,0,0,,12,,,71,127
43896,note_off,58,0,0,,12,,,71,127
43896,note_off,0,0,0,,7,,,43,127
43899,note_on,3,0,0,,0,,,36,127
43899,note_on,0,0,0,,12,,,71,127
44382,note_off,483,0,0,,12,,,71,127
44385,note_on,3,0,0,,0,,,72,127
44749,note_off,364,0,0,,0,,,72,127
44869,note_off,120,0,0,,0,,,36,127
44870,note_on,1,0,0,,0,,,72,127
45110,note_off,240,0,0,,0,,,72,127
45113,note_on,3,0,0,,7,,,67,127
45353,note_off,240,0,0,,7,,,67,127
45356,note_on,3,0,0,,0,,,72,127
45596,note_off,240,0,0,,0,,,72,127
45599,note_on,3,0,0,,7,,,67,127
45839,note_off,240,0,0,,7,,,67,127
45842,note_on,3,0,0,,0,,,60,127
45842,note_on,0,0,0,,0,,,72,127
46082,note_off,240,0,0,,0,,,60,127
46085,note_on,3,0,0,,7,,,55,127
46322,note_off,237,0,0,,0,,,72,127
46325,note_off,3,0,0,,7,,,55,127
46328,note_on,3,0,0,,0,,,60,127
46568,note_off,240,0,0,,0,,,60,127
46571,note_on,3,0,0,,7,,,55,127
46571,note_on,0,0,0,,2,,,74,127
46811,note_off,240,0,0,,2,,,74,127
46811,note_off,0,0,0,,7,,,55,127
46814,note_on,3,0,0,,0,,,60,127
46814,note_on,0,0,0,,3,,,75,127
46933,note_off,119,0,0,,3,,,75,127
46936,note_on,3,0,0,,7,,,79,127
47055,note_off,119,0,0,,7,,,79,127
47058,note_on,3,0,0,,5,,,77,127
47177,note_off,119,0,0,,5,,,77,127
47180,note_on,3,0,0,,3,,,75,127
47246,note_off,66,0,0,,0,,,60,127
47299,note_off,53,0,0,,3,,,75,127
47302,note_on,3,0,0,,2,,,74,127
47421,note_off,119,0,0,,2,,,74,127
47424,note_on,3,0,0,,0,,,72,127
47543,note_off,119,0,0,,0,,,72,127
47546,note_on,3,0,0,,2,,,62,127
47546,note_on,0,0,0,,12,,,71,127
47665,note_off,119,0,0,,12,,,71,127
47668,note_on,3,0,0,,2,,,74,127
47787,note_off,119,0,0,,2,,,74,127
47787,note_off,0,0,0,,2,,,62,127
47790,note_on,3,0,0,,3,,,63,127
47790,note_on,0,0,0,,0,,,72,127
47909,note_off,119,0,0,,3,,,63,127
47912,note_on,3,0,0,,7,,,67,127
48031,note_off,119,0,0,,7,,,67,127
48034,note_on,3,0,0,,5,,,65,127
48153,note_off,119,0,0,,5,,,65,127
48156,note_on,3,0,0,,3,,,63,127
48272,note_off,116,0,0,,0,,,72,127
48275,note_off,3,0,0,,3,,,63,127
48278,note_on,3,0,0,,2,,,62,127
48397,note_off,119,0,0,,2,,,62,127
48400,note_on,3,0,0,,0,,,60,127
48519,note_off,119,0,0,,0,,,60,127
48522,note_on,3,0,0,,12,,,59,127
48522,note_on,0,0,0,,2,,,74,127
48641,note_off,119,0,0,,12,,,59,127
48644,note_on,3,0,0,,2,,,62,127
48763,note_off,119,0,0,,2,,,62,127
48763,note_off,0,0,0,,2,,,74,127
48766,note_on,3,0,0,,0,,,60,127
48766,note_on,0,0,0,,3,,,75,127
48885,note_off,119,0,0,,3,,,75,127
48888,note_on,3,0,0,,7,,,79,127
49007,note_off,119,0,0,,7,,,79,127
49010,note_on,3,0,0,,5,,,77,127
49129,note_off,119,0,0,,5,,,77,127
49132,note_on,3,0,0,,3,,,75,127
49251,note_off,119,0,0,,3,,,75,127
49254,note_on,3,0,0,,2,,,74,127
49373,note_off,119,0,0,,2,,,74,127
49376,note_off,3,0,0,,0,,,60,127
49376,note_on,0,0,0,,0,,,72,127
49495,note_off,119,0,0,,0,,,72,127
49498,note_on,3,0,0,,2,,,62,127
49498,note_on,0,0,0,,11,,,70,127
49617,note_off,119,0,0,,11,,,70,127
49620,note_on,3,0,0,,8,,,68,127
49739,note_off,119,0,0,,8,,,68,127
49739,note_off,0,0,0,,2,,,62,127
49742,note_on,3,0,0,,3,,,63,127
49742,note_on,0,0,0,,7,,,67,127
49861,note_off,119,0,0,,7,,,67,127
49864,note_on,3,0,0,,11,,,70,127
49983,note_off,119,0,0,,11,,,70,127
49983,note_off,0,0,0,,3,,,63,127
49986,note_on,3,0,0,,3,,,63,127
49986,note_on,0,0,0,,10,,,69,127
50105,note_off,119,0,0,,10,,,69,127
50108,note_on,3,0,0,,0,,,72,127
50227,note_off,119,0,0,,0,,,72,127
50227,note_off,0,0,0,,3,,,63,127
50230,note_on,3,0,0,,1,,,61,127
50230,note_on,0,0,0,,11,,,70,127
50349,note_off,119,0,0,,11,,,70,127
50352,note_on,3,0,0,,1,,,73,127
50471,note_off,119,0,0,,1,,,73,127
50471,note_off,0,0,0,,1,,,61,127
50474,note_on,3,0,0,,0,,,60,127
50474,note_on,0,0,0,,0,,,72,127
50593,note_off,119,0,0,,0,,,72,127
50596,note_on,3,0,0,,3,,,75,127
50715,note_off,119,0,0,,3,,,75,127
50715,note_off,0,0,0,,0,,,60,127
50718,note_on,3,0,0,,11,,,58,127
50718,note_on,0,0,0,,1,,,73,127
50837,note_off,119,0,0,,1,,,73,127
50840,note_on,3,0,0,,5,,,77,127
50959,note_off,119,0,0,,5,,,77,127
50959,note_off,0,0,0,,11,,,58,127
50962,note_on,3,0,0,,11,,,58,127
50962,note_on,0,0,0,,4,,,76,127
51081,note_off,119,0,0,,4,,,76,127
51084,note_on,3,0,0,,7,,,79,127
51203,note_off,119,0,0,,7,,,79,127
51203,note_off,0,0,0,,11,,,58,127
51206,note_on,3,0,0,,8,,,56,127
51206,note_on,0,0,0,,5,,,77,127
51325,note_off,119,0,0,,5,,,77,127
51328,note_on,3,0,0,,8,,,80,127
51447,note_off,119,0,0,,8,,,80,127
51447,note_off,0,0,0,,8,,,56,127
51450,note_on,3,0,0,,7,,,55,127
51450,note_on,0,0,0,,7,,,79,127
51569,note_off,119,0,0,,7,,,79,127
51572,note_on,3,0,0,,11,,,82,127
51691,note_off,119,0,0,,11,,,82,127
51691,note_off,0,0,0,,7,,,55,127
51694,note_on,3,0,0,,5,,,53,127
51694,note_on,0,0,0,,8,,,80,127
51813,note_off,119,0,0,,8,,,80,127
51816,note_on,3,0,0,,0,,,72,127
51935,note_off,119,0,0,,0,,,72,127
51935,note_off,0,0,0,,5,,,53,127
51938,note_on,3,0,0,,5,,,65,127
51938,note_on,0,0,0,,12,,,71,127
52057,note_off,119,0,0,,12,,,71,127
52060,note_on,3,0,0,,2,,,74,127
52179,note_off,119,0,0,,2,,,74,127
52179,note_off,0,0,0,,5,,,65,127
52182,note_on,3,0,0,,3,,,63,127
52182,note_on,0,0,0,,0,,,72,127
52301,note_off,119,0,0,,0,,,72,127
52304,note_on,3,0,0,,3,,,75,127
52423,note_off,119,0,0,,3,,,75,127
52423,note_off,0,0,0,,3,,,63,127
52426,note_on,3,0,0,,2,,,62,127
52426,note_on,0,0,0,,2,,,74,127
52545,note_off,119,0,0,,2,,,74,127
52548,note_on,3,0,0,,5,,,77,127
52667,note_off,119,0,0,,5,,,77,127
52667,note_off,0,0,0,,2,,,62,127
52670,note_on,3,0,0,,0,,,60,127
52670,note_on,0,0,0,,3,,,75,127
52789,note_off,119,0,0,,3,,,75,127
52792,note_on,3,0,0,,7,,,79,127
52911,note_off,119,0,0,,7,,,79,127
52911,note_off,0,0,0,,0,,,60,127
52914,note_on,3,0,0,,0,,,60,127
52914,note_on,0,0,0,,6,,,78,127
53033,note_off,119,0,0,,6,,,78,127
53036,note_on,3,0,0,,10,,,81,127
53155,note_off,119,0,0,,10,,,81,127
53155,note_off,0,0,0,,0,,,60,127
53158,note_on,3,0,0,,11,,,58,127
53158,note_on,0,0,0,,7,,,79,127
53277,note_off,119,0,0,,7,,,79,127
53280,note_on,3,0,0,,11,,,82,127
53399,note_off,119,0,0,,11,,,82,127
53399,note_off,0,0,0,,11,,,58,127
53402,note_on,3,0,0,,10,,,57,127
53402,note_on,0,0,0,,10,,,81,127
53521,note_off,119,0,0,,10,,,81,127
53524,note_on,3,0,0,,0,,,84,127
53643,note_off,119,0,0,,0,,,84,127
53643,note_off,0,0,0,,10,,,57,127
53646,note_on,3,0,0,,7,,,55,127
53646,note_on,0,0,0,,11,,,82,127
53765,note_off,119,0,0,,11,,,82,127
53768,note_on,3,0,0,,2,,,74,127
53887,note_off,119,0,0,,2,,,74,127
53887,note_off,0,0,0,,7,,,55,127
53890,note_on,3,0,0,,7,,,67,127
53890,note_on,0,0,0,,1,,,73,127
54009,note_off,119,0,0,,1,,,73,127
54012,note_on,3,0,0,,4,,,76,127
54131,note_off,119,0,0,,4,,,76,127
54131,note_off,0,0,0,,7,,,67,127
54134,note_on,3,0,0,,5,,,65,127
54134,note_on,0,0,0,,2,,,74,127
54253,note_off,119,0,0,,2,,,74,127
54256,note_on,3,0,0,,5,,,77,127
54375,note_off,119,0,0,,5,,,77,127
54375,note_off,0,0,0,,5,,,65,127
54378,note_on,3,0,0,,4,,,64,127
54378,note_on,0,0,0,,4,,,76,127
54497,note_off,119,0,0,,4,,,76,127
54500,note_on,3,0,0,,7,,,79,127
54619,note_off,119,0,0,,7,,,79,127
54619,note_off,0,0,0,,4,,,64,127
54622,note_on,3,0,0,,2,,,62,127
54622,note_on,0,0,0,,5,,,77,127
54741,note_off,119,0,0,,5,,,77,127
54744,note_on,3,0,0,,2,,,74,127
54863,note_off,119,0,0,,2,,,74,127
54863,note_off,0,0,0,,2,,,62,127
54866,note_on,3,0,0,,4,,,64,127
54866,note_on,0,0,0,,5,,,77,127
54985,note_off,119,0,0,,5,,,77,127
54988,note_on,3,0,0,,10,,,81,127
55107,note_off,119,0,0,,10,,,81,127
55107,note_off,0,0,0,,4,,,64,127
55110,note_on,3,0,0,,5,,,65,127
55110,note_on,0,0,0,,2,,,86,127
55229,note_off,119,0,0,,2,,,86,127
55232,note_on,3,0,0,,11,,,82,127
55351,note_off,119,0,0,,11,,,82,127
55351,note_off,0,0,0,,5,,,65,127
55354,note_on,3,0,0,,2,,,62,127
55354,note_on,0,0,0,,0,,,84,127
55473,note_off,119,0,0,,0,,,84,127
55476,note_on,3,0,0,,10,,,81,127
55595,note_off,119,0,0,,10,,,81,127
55595,note_off,0,0,0,,2,,,62,127
55598,note_on,3,0,0,,7,,,55,127
55598,note_on,0,0,0,,7,,,67,127
55598,note_on,0,0,0,,11,,,82,127
55717,note_off,119,0,0,,11,,,82,127
55720,note_on,3,0,0,,7,,,79,127
55839,note_off,119,0,0,,7,,,79,127
55839,note_off,0,0,0,,7,,,55,127
55842,note_on,3,0,0,,10,,,57,127
55842,note_on,0,0,0,,10,,,81,127
55961,note_off,119,0,0,,10,,,81,127
55964,note_on,3,0,0,,5,,,77,127
56083,note_off,119,0,0,,5,,,77,127
56083,note_off,0,0,0,,10,,,57,127
56086,note_on,3,0,0,,11,,,58,127
56086,note_on,0,0,0,,7,,,79,127
56205,note_off,119,0,0,,7,,,79,127
56208,note_on,3,0,0,,4,,,76,127
56327,note_off,119,0,0,,4,,,76,127
56327,note_off,0,0,0,,11,,,58,127
56330,note_on,3,0,0,,7,,,55,127
56330,note_on,0,0,0,,5,,,77,127
56449,note_off,119,0,0,,5,,,77,127
56452,note_on,3,0,0,,2,,,74,127
56571,note_off,119,0,0,,2,,,74,127
56571,note_off,0,0,0,,7,,,55,127
56572,note_off,1,0,0,,7,,,67,127
56573,note_on,1,0,0,,10,,,57,127
56573,note_on,0,0,0,,1,,,73,127
56692,note_off,119,0,0,,10,,,57,127
56695,note_on,3,0,0,,10,,,69,127
56776,note_off,81,0,0,,1,,,73,127
56814,note_off,38,0,0,,10,,,69,127
56817,note_on,3,0,0,,7,,,67,127
56817,note_on,0,0,0,,4,,,76,127
56936,note_off,119,0,0,,7,,,67,127
56939,note_on,3,0,0,,10,,,69,127
57058,note_off,119,0,0,,10,,,69,127
57058,note_off,0,0,0,,4,,,76,127
57061,note_on,3,0,0,,5,,,65,127
57061,note_on,0,0,0,,10,,,81,127
57180,note_off,119,0,0,,5,,,65,127
57183,note_on,3,0,0,,7,,,67,127
57302,note_off,119,0,0,,7,,,67,127
57302,note_off,0,0,0,,10,,,81,127
57305,note_on,3,0,0,,4,,,64,127
57305,note_on,0,0,0,,7,,,79,127
57424,note_off,119,0,0,,4,,,64,127
57427,note_on,3,0,0,,5,,,65,127
57546,note_off,119,0,0,,5,,,65,127
57546,note_off,0,0,0,,7,,,79,127
57549,note_on,3,0,0,,2,,,62,127
57549,note_on,0,0,0,,5,,,77,127
57668,note_off,119,0,0,,2,,,62,127
57671,note_on,3,0,0,,4,,,64,127
57790,note_off,119,0,0,,4,,,64,127
57790,note_off,0,0,0,,5,,,77,127
57793,note_on,3,0,0,,0,,,60,127
57793,note_on,0,0,0,,4,,,76,127
57912,note_off,119,0,0,,0,,,60,127
57915,note_on,3,0,0,,2,,,62,127
58034,note_off,119,0,0,,2,,,62,127
58034,note_off,0,0,0,,4,,,76,127
58037,note_on,3,0,0,,11,,,58,127
58037,note_on,0,0,0,,7,,,79,127
58156,note_off,119,0,0,,11,,,58,127
58159,note_on,3,0,0,,0,,,60,127
58278,note_off,119,0,0,,0,,,60,127
58278,note_off,0,0,0,,7,,,79,127
58281,note_on,3,0,0,,10,,,57,127
58281,note_on,0,0,0,,5,,,77,127
58400,note_off,119,0,0,,10,,,57,127
58403,note_on,3,0,0,,11,,,58,127
58522,note_off,119,0,0,,11,,,58,127
58522,note_off,0,0,0,,5,,,77,127
58525,note_on,3,0,0,,7,,,55,127
58525,note_on,0,0,0,,11,,,82,127
58644,note_off,119,0,0,,7,,,55,127
58647,note_on,3,0,0,,10,,,57,127
58766,note_off,119,0,0,,10,,,57,127
58766,note_off,0,0,0,,11,,,82,127
58769,note_on,3,0,0,,5,,,53,127
58769,note_on,0,0,0,,10,,,81,127
58888,note_off,119,0,0,,5,,,53,127
58891,note_on,3,0,0,,7,,,55,127
59010,note_off,119,0,0,,7,,,55,127
59010,note_off,0,0,0,,10,,,81,127
59013,note_on,3,0,0,,4,,,52,127
59013,note_on,0,0,0,,7,,,79,127
59132,note_off,119,0,0,,4,,,52,127
59135,note_on,3,0,0,,5,,,53,127
59254,note_off,119,0,0,,5,,,53,127
59254,note_off,0,0,0,,7,,,79,127
59257,note_on,3,0,0,,2,,,50,127
59257,note_on,0,0,0,,5,,,77,127
59376,note_off,119,0,0,,2,,,50,127
59379,note_on,3,0,0,,4,,,52,127
59498,note_off,119,0,0,,4,,,52,127
59498,note_off,0,0,0,,5,,,77,127
59501,note_on,3,0,0,,0,,,48,127
59501,note_on,0,0,0,,4,,,76,127
59620,note_off,119,0,0,,0,,,48,127
59623,note_on,3,0,0,,2,,,50,127
59742,note_off,119,0,0,,2,,,50,127
59742,note_off,0,0,0,,4,,,76,127
59745,note_on,3,0,0,,11,,,46,127
59745,note_on,0,0,0,,2,,,74,127
59864,note_off,119,0,0,,11,,,46,127
59867,note_on,3,0,0,,0,,,48,127
59986,note_off,119,0,0,,0,,,48,127
59986,note_off,0,0,0,,2,,,74,127
59989,note_on,3,0,0,,10,,,45,127
59989,note_on,0,0,0,,0,,,72,127
60108,note_off,119,0,0,,10,,,45,127
60111,note_on,3,0,0,,11,,,46,127
60230,note_off,119,0,0,,11,,,46,127
60230,note_off,0,0,0,,0,,,72,127
60233,note_on,3,0,0,,7,,,43,127
60233,note_on,0,0,0,,11,,,70,127
60352,note_off,119,0,0,,7,,,43,127
60355,note_on,3,0,0,,10,,,45,127
60474,note_off,119,0,0,,10,,,45,127
60474,note_off,0,0,0,,11,,,70,127
60477,note_on,3,0,0,,5,,,41,127
60477,note_on,0,0,0,,10,,,69,127
60596,note_off,119,0,0,,5,,,41,127
60599,note_on,3,0,0,,7,,,43,127
60718,note_off,119,0,0,,7,,,43,127
60718,note_off,0,0,0,,10,,,69,127
60721,note_on,3,0,0,,4,,,40,127
60721,note_on,0,0,0,,7,,,67,127
60840,note_off,119,0,0,,4,,,40,127
60843,note_on,3,0,0,,5,,,41,127
60962,note_off,119,0,0,,5,,,41,127
60962,note_off,0,0,0,,7,,,67,127
60965,note_on,3,0,0,,2,,,38,127
60965,note_on,0,0,0,,5,,,65,127
61084,note_off,119,0,0,,2,,,38,127
61087,note_on,3,0,0,,4,,,40,127
61206,note_off,119,0,0,,4,,,40,127
61206,note_off,0,0,0,,5,,,65,127
61209,note_on,3,0,0,,0,,,36,127
61209,note_on,0,0,0,,4,,,64,127
61328,note_off,119,0,0,,0,,,36,127
61331,note_on,3,0,0,,2,,,38,127
61450,note_off,119,0,0,,2,,,38,127
61450,note_off,0,0,0,,4,,,64,127
61453,note_on,3,0,0,,11,,,34,127
61453,note_on,0,0,0,,2,,,62,127
61572,note_off,119,0,0,,2,,,62,127
61575,note_on,3,0,0,,5,,,65,127
61694,note_off,119,0,0,,5,,,65,127
61697,note_on,3,0,0,,4,,,64,127
61816,note_off,119,0,0,,4,,,64,127
61819,note_on,3,0,0,,5,,,65,127
61938,note_off,119,0,0,,5,,,65,127
61941,note_on,3,0,0,,7,,,67,127
62060,note_off,119,0,0,,7,,,67,127
62063,note_on,3,0,0,,5,,,65,127
62182,note_off,119,0,0,,5,,,65,127
62185,note_on,3,0,0,,4,,,64,127
62304,note_off,119,0,0,,4,,,64,127
62307,note_on,3,0,0,,2,,,62,127
62426,note_off,119,0,0,,2,,,62,127
62426,note_off,0,0,0,,11,,,34,127
62429,note_on,3,0,0,,10,,,33,127
62429,note_on,0,0,0,,10,,,69,127
62548,note_off,119,0,0,,10,,,69,127
62553,note_on,5,0,0,,4,,,64,127
62672,note_off,119,0,0,,4,,,64,127
62680,note_on,8,0,0,,1,,,61,127
62804,note_off,124,0,0,,1,,,61,127
62809,note_on,5,0,0,,4,,,64,127
62945,note_off,136,0,0,,4,,,64,127
62955,note_on,10,0,0,,10,,,57,127
63036,note_off,81,0,0,,10,,,33,127
63804,note_off,768,0,0,,10,,,57,127
63925,note_on,121,0,0,,4,,,64,127
64165,note_off,240,0,0,,4,,,64,127
64168,note_on,3,0,0,,5,,,65,127
64408,note_off,240,0,0,,5,,,65,127
64411,note_on,3,0,0,,2,,,74,127
64411,note_on,0,0,0,,10,,,57,127
64651,note_off,240,0,0,,10,,,57,127
64654,note_on,3,0,0,,8,,,68,127
64894,note_off,240,0,0,,8,,,68,127
64894,note_off,0,0,0,,2,,,74,127
64897,note_on,3,0,0,,5,,,77,127
64897,note_on,0,0,0,,10,,,57,127
65140,note_on,243,0,0,,10,,,69,127
65380,note_off,240,0,0,,5,,,77,127
65383,note_on,3,0,0,,4,,,76,127
65502,note_off,119,0,0,,4,,,76,127
65505,note_on,3,0,0,,2,,,74,127
65621,note_off,116,0,0,,10,,,69,127
65624,note_off,3,0,0,,2,,,74,127
65625,note_off,1,0,0,,10,,,57,127
65626,note_on,1,0,0,,1,,,73,127
65869,note_on,243,0,0,,4,,,64,127
66106,note_off,237,0,0,,1,,,73,127
66109,note_off,3,0,0,,4,,,64,127
66112,note_on,3,0,0,,5,,,65,127
66352,note_off,240,0,0,,5,,,65,127
66355,note_on,3,0,0,,2,,,74,127
66355,note_on,0,0,0,,10,,,57,127
66595,note_off,240,0,0,,10,,,57,127
66598,note_on,3,0,0,,8,,,68,127
66838,note_off,240,0,0,,8,,,68,127
66838,note_off,0,0,0,,2,,,74,127
66841,note_on,3,0,0,,5,,,77,127
66841,note_on,0,0,0,,10,,,57,127
67084,note_on,243,0,0,,10,,,69,127
67324,note_off,240,0,0,,5,,,77,127
67327,note_on,3,0,0,,4,,,76,127
67446,note_off,119,0,0,,4,,,76,127
67449,note_on,3,0,0,,2,,,74,127
67565,note_off,116,0,0,,10,,,69,127
67568,note_off,3,0,0,,2,,,74,127
67569,note_off,1,0,0,,10,,,57,127
67570,note_on,1,0,0,,0,,,72,127
67813,note_on,243,0,0,,2,,,62,127
67836,note_off,23,0,0,,0,,,72,127
68053,note_off,217,0,0,,2,,,62,127
68056,note_on,3,0,0,,3,,,63,127
68296,note_off,240,0,0,,3,,,63,127
68299,note_on,3,0,0,,0,,,72,127
68299,note_on,0,0,0,,7,,,55,127
68539,note_off,240,0,0,,7,,,55,127
68542,note_on,3,0,0,,6,,,66,127
68782,note_off,240,0,0,,6,,,66,127
68782,note_off,0,0,0,,0,,,72,127
68785,note_on,3,0,0,,3,,,75,127
68785,note_on,0,0,0,,7,,,55,127
69028,note_on,243,0,0,,7,,,67,127
69268,note_off,240,0,0,,3,,,75,127
69271,note_on,3,0,0,,2,,,74,127
69390,note_off,119,0,0,,2,,,74,127
69393,note_on,3,0,0,,0,,,72,127
69509,note_off,116,0,0,,7,,,67,127
69512,note_off,3,0,0,,0,,,72,127
69513,note_off,1,0,0,,7,,,55,127
69514,note_on,1,0,0,,12,,,71,127
69757,note_on,243,0,0,,2,,,62,127
69878,note_off,121,0,0,,12,,,71,127
69997,note_off,119,0,0,,2,,,62,127
70000,note_on,3,0,0,,3,,,63,127
70240,note_off,240,0,0,,3,,,63,127
70243,note_on,3,0,0,,0,,,72,127
70243,note_on,0,0,0,,7,,,55,127
70483,note_off,240,0,0,,7,,,55,127
70486,note_on,3,0,0,,6,,,66,127
70726,note_off,240,0,0,,6,,,66,127
70726,note_off,0,0,0,,0,,,72,127
70729,note_on,3,0,0,,3,,,75,127
70729,note_on,0,0,0,,7,,,55,127
70972,note_on,243,0,0,,7,,,67,127
71212,note_off,240,0,0,,3,,,75,127
71215,note_on,3,0,0,,2,,,74,127
71334,note_off,119,0,0,,2,,,74,127
71337,note_on,3,0,0,,0,,,72,127
71453,note_off,116,0,0,,7,,,67,127
71456,note_off,3,0,0,,0,,,72,127
71457,note_off,1,0,0,,7,,,55,127
71458,note_on,1,0,0,,11,,,70,127
71701,note_on,243,0,0,,0,,,60,127
71724,note_off,23,0,0,,11,,,70,127
71941,note_off,217,0,0,,0,,,60,127
71944,note_on,3,0,0,,2,,,62,127
72184,note_off,240,0,0,,2,,,62,127
72187,note_on,3,0,0,,11,,,70,127
72187,note_on,0,0,0,,5,,,53,127
72427,note_off,240,0,0,,5,,,53,127
72430,note_on,3,0,0,,4,,,64,127
72670,note_off,240,0,0,,4,,,64,127
72670,note_off,0,0,0,,11,,,70,127
72673,note_on,3,0,0,,2,,,74,127
72673,note_on,0,0,0,,5,,,53,127
72916,note_on,243,0,0,,5,,,65,127
73156,note_off,240,0,0,,2,,,74,127
73159,note_on,3,0,0,,0,,,72,127
73278,note_off,119,0,0,,0,,,72,127
73281,note_on,3,0,0,,11,,,70,127
73397,note_off,116,0,0,,5,,,65,127
73400,note_off,3,0,0,,11,,,70,127
73401,note_off,1,0,0,,5,,,53,127
73402,note_on,1,0,0,,10,,,69,127
73645,note_on,243,0,0,,0,,,60,127
73882,note_off,237,0,0,,10,,,69,127
73885,note_off,3,0,0,,0,,,60,127
73888,note_on,3,0,0,,2,,,62,127
74128,note_off,240,0,0,,2,,,62,127
74131,note_on,3,0,0,,11,,,70,127
74131,note_on,0,0,0,,5,,,53,127
74371,note_off,240,0,0,,5,,,53,127
74374,note_on,3,0,0,,4,,,64,127
74614,note_off,240,0,0,,4,,,64,127
74614,note_off,0,0,0,,11,,,70,127
74617,note_on,3,0,0,,2,,,74,127
74617,note_on,0,0,0,,5,,,53,127
74860,note_on,243,0,0,,5,,,65,127
75100,note_off,240,0,0,,2,,,74,127
75103,note_on,3,0,0,,0,,,72,127
75222,note_off,119,0,0,,0,,,72,127
75225,note_on,3,0,0,,11,,,70,127
75341,note_off,116,0,0,,5,,,65,127
75344,note_off,3,0,0,,11,,,70,127
75345,note_off,1,0,0,,5,,,53,127
75346,note_on,1,0,0,,10,,,69,127
75465,note_off,119,0,0,,10,,,69,127
75468,note_on,3,0,0,,0,,,72,127
75587,note_off,119,0,0,,0,,,72,127
75590,note_on,3,0,0,,11,,,70,127
75709,note_off,119,0,0,,11,,,70,127
75712,note_on,3,0,0,,10,,,69,127
75831,note_off,119,0,0,,10,,,69,127
75834,note_on,3,0,0,,11,,,70,127
75953,note_off,119,0,0,,11,,,70,127
75956,note_on,3,0,0,,12,,,71,127
76075,note_off,119,0,0,,12,,,71,127
76078,note_on,3,0,0,,0,,,72,127
76197,note_off,119,0,0,,0,,,72,127
76200,note_on,3,0,0,,1,,,73,127
76319,note_off,119,0,0,,1,,,73,127
76322,note_on,3,0,0,,2,,,74,127
76441,note_off,119,0,0,,2,,,74,127
76444,note_on,3,0,0,,4,,,76,127
76563,note_off,119,0,0,,4,,,76,127
76566,note_on,3,0,0,,5,,,77,127
76685,note_off,119,0,0,,5,,,77,127
76688,note_on,3,0,0,,7,,,79,127
76807,note_off,119,0,0,,7,,,79,127
76810,note_on,3,0,0,,0,,,72,127
77050,note_off,240,0,0,,0,,,72,127
77053,note_on,3,0,0,,0,,,84,127
77053,note_on,0,0,0,,0,,,60,127
77053,note_on,0,0,0,,0,,,48,127
77293,note_off,240,0,0,,0,,,48,127
77293,note_off,0,0,0,,0,,,60,127
77296,note_on,3,0,0,,2,,,62,127
77296,note_on,0,0,0,,2,,,50,127
77536,note_off,240,0,0,,2,,,50,127
77536,note_off,0,0,0,,2,,,62,127
77536,note_off,0,0,0,,0,,,84,127
77539,note_on,3,0,0,,11,,,82,127
77539,note_on,0,0,0,,4,,,64,127
77539,note_on,0,0,0,,4,,,52,127
77779,note_off,240,0,0,,4,,,52,127
77779,note_off,0,0,0,,4,,,64,127
77779,note_off,0,0,0,,11,,,82,127
77782,note_on,3,0,0,,11,,,82,127
77782,note_on,0,0,0,,5,,,65,127
77782,note_on,0,0,0,,5,,,53,127
77901,note_off,119,0,0,,11,,,82,127
77904,note_on,3,0,0,,10,,,81,127
78023,note_off,119,0,0,,10,,,81,127
78023,note_off,0,0,0,,5,,,53,127
78023,note_off,0,0,0,,5,,,65,127
78026,note_on,3,0,0,,7,,,79,127
78026,note_on,0,0,0,,10,,,57,127
78145,note_off,119,0,0,,7,,,79,127
78148,note_on,3,0,0,,5,,,77,127
78267,note_off,119,0,0,,5,,,77,127
78267,note_off,0,0,0,,10,,,57,127
78270,note_on,3,0,0,,10,,,81,127
78270,note_on,0,0,0,,11,,,58,127
78348,note_off,78,0,0,,10,,,81,127
78351,note_on,3,0,0,,7,,,79,127
78429,note_off,78,0,0,,7,,,79,127
78432,note_on,3,0,0,,10,,,81,127
78510,note_off,78,0,0,,10,,,81,127
78510,note_off,0,0,0,,11,,,58,127
78513,note_on,3,0,0,,7,,,79,127
78513,note_on,0,0,0,,0,,,60,127
78591,note_off,78,0,0,,7,,,79,127
78594,note_on,3,0,0,,10,,,81,127
78672,note_off,78,0,0,,10,,,81,127
78675,note_on,3,0,0,,7,,,79,127
78753,note_off,78,0,0,,7,,,79,127
78753,note_off,0,0,0,,0,,,60,127
78756,note_on,3,0,0,,5,,,77,127
78756,note_on,0,0,0,,5,,,41,127
78996,note_off,240,0,0,,5,,,41,127
78999,note_on,3,0,0,,5,,,53,127
79236,note_off,237,0,0,,5,,,77,127
79239,note_off,3,0,0,,5,,,53,127
79242,note_on,3,0,0,,0,,,60,127
79482,note_off,240,0,0,,0,,,60,127
79485,note_on,3,0,0,,5,,,53,127
79725,note_off,240,0,0,,5,,,53,127
79728,note_on,3,0,0,,2,,,62,127
79968,note_off,240,0,0,,2,,,62,127
79971,note_on,3,0,0,,11,,,70,127
79971,note_on,0,0,0,,5,,,53,127
80211,note_off,240,0,0,,5,,,53,127
80214,note_on,3,0,0,,4,,,64,127
80454,note_off,240,0,0,,4,,,64,127
80454,note_off,0,0,0,,11,,,70,127
80457,note_on,3,0,0,,2,,,74,127
80457,note_on,0,0,0,,5,,,53,127
80697,note_off,240,0,0,,5,,,53,127
80700,note_on,3,0,0,,5,,,41,127
80940,note_off,240,0,0,,5,,,41,127
80940,note_off,0,0,0,,2,,,74,127
80943,note_on,3,0,0,,0,,,72,127
80943,note_on,0,0,0,,5,,,53,127
81062,note_off,119,0,0,,0,,,72,127
81065,note_on,3,0,0,,11,,,70,127
81184,note_off,119,0,0,,11,,,70,127
81184,note_off,0,0,0,,5,,,53,127
81187,note_on,3,0,0,,10,,,69,127
81187,note_on,0,0,0,,0,,,60,127
81427,note_off,240,0,0,,0,,,60,127
81430,note_on,3,0,0,,5,,,53,127
81667,note_off,237,0,0,,10,,,69,127
81670,note_off,3,0,0,,5,,,53,127
81673,note_on,3,0,0,,2,,,62,127
81913,note_off,240,0,0,,2,,,62,127
81916,note_on,3,0,0,,11,,,70,127
81916,note_on,0,0,0,,5,,,53,127
82156,note_off,240,0,0,,5,,,53,127
82159,note_on,3,0,0,,4,,,64,127
82399,note_off,240,0,0,,4,,,64,127
82399,note_off,0,0,0,,11,,,70,127
82402,note_on,3,0,0,,2,,,74,127
82402,note_on,0,0,0,,5,,,53,127
82645,note_on,243,0,0,,5,,,65,127
82885,note_off,240,0,0,,2,,,74,127
82888,note_on,3,0,0,,0,,,72,127
83007,note_off,119,0,0,,0,,,72,127
83010,note_on,3,0,0,,11,,,70,127
83126,note_off,116,0,0,,5,,,65,127
83129,note_off,3,0,0,,11,,,70,127
83130,note_off,1,0,0,,5,,,53,127
83131,note_on,1,0,0,,10,,,69,127
83250,note_off,119,0,0,,10,,,69,127
83253,note_on,3,0,0,,0,,,72,127
83372,note_off,119,0,0,,0,,,72,127
83375,note_on,3,0,0,,11,,,70,127
83494,note_off,119,0,0,,11,,,70,127
83497,note_on,3,0,0,,10,,,69,127
83616,note_off,119,0,0,,10,,,69,127
83619,note_on,3,0,0,,11,,,70,127
83738,note_off,119,0,0,,11,,,70,127
83741,note_on,3,0,0,,12,,,71,127
83860,note_off,119,0,0,,12,,,71,127
83863,note_on,3,0,0,,0,,,72,127
83982,note_off,119,0,0,,0,,,72,127
83985,note_on,3,0,0,,1,,,73,127
84104,note_off,119,0,0,,1,,,73,127
84107,note_on,3,0,0,,2,,,74,127
84226,note_off,119,0,0,,2,,,74,127
84229,note_on,3,0,0,,4,,,76,127
84348,note_off,119,0,0,,4,,,76,127
84351,note_on,3,0,0,,5,,,77,127
84470,note_off,119,0,0,,5,,,77,127
84473,note_on,3,0,0,,7,,,79,127
84592,note_off,119,0,0,,7,,,79,127
84595,note_on,3,0,0,,0,,,72,127
84835,note_off,240,0,0,,0,,,72,127
84838,note_on,3,0,0,,0,,,84,127
84838,note_on,0,0,0,,0,,,60,127
84838,note_on,0,0,0,,0,,,48,127
85078,note_off,240,0,0,,0,,,48,127
85078,note_off,0,0,0,,0,,,60,127
85081,note_on,3,0,0,,2,,,62,127
85081,note_on,0,0,0,,2,,,50,127
85321,note_off,240,0,0,,2,,,50,127
85321,note_off,0,0,0,,2,,,62,127
85321,note_off,0,0,0,,0,,,84,127
85324,note_on,3,0,0,,11,,,82,127
85324,note_on,0,0,0,,4,,,64,127
85324,note_on,0,0,0,,4,,,52,127
85564,note_off,240,0,0,,4,,,52,127
85564,note_off,0,0,0,,4,,,64,127
85564,note_off,0,0,0,,11,,,82,127
85567,note_on,3,0,0,,11,,,82,127
85567,note_on,0,0,0,,5,,,65,127
85567,note_on,0,0,0,,5,,,53,127
85686,note_off,119,0,0,,11,,,82,127
85689,note_on,3,0,0,,10,,,81,127
85808,note_off,119,0,0,,10,,,81,127
85808,note_off,0,0,0,,5,,,53,127
85808,note_off,0,0,0,,5,,,65,127
85811,note_on,3,0,0,,7,,,79,127
85811,note_on,0,0,0,,10,,,57,127
85930,note_off,119,0,0,,7,,,79,127
85933,note_on,3,0,0,,5,,,77,127
86052,note_off,119,0,0,,5,,,77,127
86052,note_off,0,0,0,,10,,,57,127
86055,note_on,3,0,0,,10,,,81,127
86055,note_on,0,0,0,,11,,,58,127
86133,note_off,78,0,0,,10,,,81,127
86136,note_on,3,0,0,,7,,,79,127
86214,note_off,78,0,0,,7,,,79,127
86217,note_on,3,0,0,,10,,,81,127
86295,note_off,78,0,0,,10,,,81,127
86295,note_off,0,0,0,,11,,,58,127
86298,note_on,3,0,0,,7,,,79,127
86298,note_on,0,0,0,,0,,,60,127
86376,note_off,78,0,0,,7,,,79,127
86379,note_on,3,0,0,,10,,,81,127
86457,note_off,78,0,0,,10,,,81,127
86460,note_on,3,0,0,,7,,,79,127
86538,note_off,78,0,0,,7,,,79,127
86538,note_off,0,0,0,,0,,,60,127
86541,note_on,3,0,0,,5,,,77,127
86662,note_on,121,0,0,,5,,,65,127
86781,note_off,119,0,0,,5,,,65,127
86781,note_off,0,0,0,,5,,,77,127
86784,note_on,3,0,0,,0,,,84,127
86784,note_on,0,0,0,,5,,,53,127
86903,note_off,119,0,0,,5,,,53,127
86906,note_on,3,0,0,,5,,,41,127
87025,note_off,119,0,0,,5,,,41,127
87028,note_on,3,0,0,,0,,,36,127
87268,note_off,240,0,0,,0,,,84,127
87271,note_on,3,0,0,,0,,,84,127
87271,note_on,0,0,0,,11,,,82,127
87349,note_off,78,0,0,,11,,,82,127
87349,note_off,0,0,0,,0,,,84,127
87352,note_on,3,0,0,,10,,,81,127
87430,note_off,78,0,0,,10,,,81,127
87433,note_on,3,0,0,,7,,,79,127
87509,note_off,76,0,0,,0,,,36,127
87512,note_off,3,0,0,,7,,,79,127
87515,note_on,3,0,0,,10,,,81,127
87636,note_on,121,0,0,,5,,,65,127
87755,note_off,119,0,0,,5,,,65,127
87755,note_off,0,0,0,,10,,,81,127
87758,note_on,3,0,0,,0,,,84,127
87758,note_on,0,0,0,,5,,,53,127
87877,note_off,119,0,0,,5,,,53,127
87880,note_on,3,0,0,,5,,,41,127
87999,note_off,119,0,0,,5,,,41,127
88002,note_on,3,0,0,,0,,,36,127
88242,note_off,240,0,0,,0,,,84,127
88245,note_on,3,0,0,,0,,,84,127
88245,note_on,0,0,0,,11,,,82,127
88323,note_off,78,0,0,,11,,,82,127
88323,note_off,0,0,0,,0,,,84,127
88326,note_on,3,0,0,,10,,,81,127
88404,note_off,78,0,0,,10,,,81,127
88407,note_on,3,0,0,,7,,,79,127
88483,note_off,76,0,0,,0,,,36,127
88486,note_off,3,0,0,,7,,,79,127
88489,note_on,3,0,0,,10,,,81,127
88610,note_on,121,0,0,,5,,,65,127
88729,note_off,119,0,0,,5,,,65,127
88729,note_off,0,0,0,,10,,,81,127
88732,note_on,3,0,0,,0,,,84,127
88732,note_on,0,0,0,,5,,,53,127
88851,note_off,119,0,0,,5,,,53,127
88854,note_on,3,0,0,,5,,,41,127
88973,note_off,119,0,0,,5,,,41,127
88976,note_on,3,0,0,,0,,,36,127
89216,note_off,240,0,0,,0,,,84,127
89219,note_on,3,0,0,,0,,,84,127
89219,note_on,0,0,0,,11,,,82,127
89297,note_off,78,0,0,,11,,,82,127
89297,note_off,0,0,0,,0,,,84,127
89300,note_on,3,0,0,,10,,,81,127
89378,note_off,78,0,0,,10,,,81,127
89381,note_on,3,0,0,,7,,,79,127
89459,note_off,78,0,0,,7,,,79,127
89459,note_off,0,0,0,,0,,,36,127
89462,note_on,3,0,0,,10,,,81,127
89462,note_on,0,0,0,,5,,,41,127
89540,note_off,78,0,0,,10,,,81,127
89543,note_on,3,0,0,,7,,,79,127
89621,note_off,78,0,0,,7,,,79,127
89624,note_on,3,0,0,,10,,,81,127
89702,note_off,78,0,0,,10,,,81,127
89702,note_off,0,0,0,,5,,,41,127
89705,note_on,3,0,0,,11,,,82,127
89705,note_on,0,0,0,,11,,,46,127
89783,note_off,78,0,0,,11,,,82,127
89786,note_on,3,0,0,,10,,,81,127
89864,note_off,78,0,0,,10,,,81,127
89867,note_on,3,0,0,,7,,,79,127
89945,note_off,78,0,0,,7,,,79,127
89945,note_off,0,0,0,,11,,,46,127
89948,note_on,3,0,0,,5,,,77,127
89948,note_on,0,0,0,,0,,,48,127
90188,note_off,240,0,0,,0,,,48,127
90188,note_off,0,0,0,,5,,,77,127
90191,note_on,3,0,0,,5,,,77,127
90191,note_on,0,0,0,,0,,,36,127
90249,note_off,58,0,0,,5,,,77,127
90252,note_on,3,0,0,,4,,,76,127
90310,note_off,58,0,0,,4,,,76,127
90313,note_on,3,0,0,,2,,,74,127
90371,note_off,58,0,0,,2,,,74,127
90374,note_on,3,0,0,,4,,,76,127
90432,note_off,58,0,0,,4,,,76,127
90432,note_off,0,0,0,,0,,,36,127
90435,note_on,3,0,0,,5,,,77,127
90556,note_on,121,0,0,,5,,,65,127
90675,note_off,119,0,0,,5,,,65,127
90675,note_off,0,0,0,,5,,,77,127
90678,note_on,3,0,0,,0,,,84,127
90678,note_on,0,0,0,,5,,,53,127
90797,note_off,119,0,0,,5,,,53,127
90800,note_on,3,0,0,,5,,,41,127
90919,note_off,119,0,0,,5,,,41,127
90922,note_on,3,0,0,,0,,,36,127
91162,note_off,240,0,0,,0,,,84,127
91165,note_on,3,0,0,,0,,,84,127
91165,note_on,0,0,0,,11,,,82,127
91243,note_off,78,0,0,,11,,,82,127
91243,note_off,0,0,0,,0,,,84,127
91246,note_on,3,0,0,,10,,,81,127
91324,note_off,78,0,0,,10,,,81,127
91327,note_on,3,0,0,,7,,,79,127
91403,note_off,76,0,0,,0,,,36,127
91406,note_off,3,0,0,,7,,,79,127
91409,note_on,3,0,0,,10,,,81,127
91530,note_on,121,0,0,,5,,,65,127
91649,note_off,119,0,0,,5,,,65,127
91649,note_off,0,0,0,,10,,,81,127
91652,note_on,3,0,0,,0,,,84,127
91652,note_on,0,0,0,,5,,,53,127
91771,note_off,119,0,0,,5,,,53,127
91774,note_on,3,0,0,,5,,,41,127
91893,note_off,119,0,0,,5,,,41,127
91896,note_on,3,0,0,,0,,,36,127
92136,note_off,240,0,0,,0,,,84,127
92139,note_on,3,0,0,,11,,,82,127
92139,note_on,0,0,0,,0,,,84,127
92217,note_off,78,0,0,,0,,,84,127
92217,note_off,0,0,0,,11,,,82,127
92220,note_on,3,0,0,,10,,,81,127
92298,note_off,78,0,0,,10,,,81,127
92301,note_on,3,0,0,,7,,,79,127
92377,note_off,76,0,0,,0,,,36,127
92380,note_off,3,0,0,,7,,,79,127
92383,note_on,3,0,0,,10,,,81,127
92504,note_on,121,0,0,,5,,,65,127
92623,note_off,119,0,0,,5,,,65,127
92623,note_off,0,0,0,,10,,,81,127
92626,note_on,3,0,0,,0,,,84,127
92626,note_on,0,0,0,,5,,,53,127
92745,note_off,119,0,0,,5,,,53,127
92748,note_on,3,0,0,,5,,,41,127
92867,note_off,119,0,0,,5,,,41,127
92870,note_on,3,0,0,,0,,,36,127
93110,note_off,240,0,0,,0,,,84,127
93113,note_on,3,0,0,,0,,,84,127
93113,note_on,0,0,0,,11,,,82,127
93191,note_off,78,0,0,,11,,,82,127
93191,note_off,0,0,0,,0,,,84,127
93194,note_on,3,0,0,,10,,,81,127
93272,note_off,78,0,0,,10,,,81,127
93275,note_on,3,0,0,,7,,,79,127
93353,note_off,78,0,0,,7,,,79,127
93353,note_off,0,0,0,,0,,,36,127
93356,note_on,3,0,0,,10,,,81,127
93356,note_on,0,0,0,,5,,,41,127
93434,note_off,78,0,0,,10,,,81,127
93437,note_on,3,0,0,,7,,,79,127
93515,note_off,78,0,0,,7,,,79,127
93518,note_on,3,0,0,,10,,,81,127
93596,note_off,78,0,0,,10,,,81,127
93596,note_off,0,0,0,,5,,,41,127
93599,note_on,3,0,0,,11,,,82,127
93599,note_on,0,0,0,,11,,,46,127
93677,note_off,78,0,0,,11,,,82,127
93680,note_on,3,0,0,,10,,,81,127
93758,note_off,78,0,0,,10,,,81,127
93761,note_on,3,0,0,,7,,,79,127
93839,note_off,78,0,0,,7,,,79,127
93839,note_off,0,0,0,,11,,,46,127
93842,note_on,3,0,0,,5,,,77,127
93842,note_on,0,0,0,,0,,,48,127
94082,note_off,240,0,0,,0,,,48,127
94082,note_off,0,0,0,,5,,,77,127
94085,note_on,3,0,0,,5,,,77,127
94085,note_on,0,0,0,,0,,,36,127
94143,note_off,58,0,0,,5,,,77,127
94146,note_on,3,0,0,,4,,,76,127
94204,note_off,58,0,0,,4,,,76,127
94207,note_on,3,0,0,,2,,,74,127
94265,note_off,58,0,0,,2,,,74,127
94268,note_on,3,0,0,,4,,,76,127
94326,note_off,58,0,0,,4,,,76,127
94326,note_off,0,0,0,,0,,,36,127
94329,note_on,3,0,0,,4,,,76,127
94329,note_on,0,0,0,,5,,,41,127
94814,note_off,485,0,0,,4,,,76,127
94814,note_on,0,0,0,,5,,,77,127
96471,note_off,1657,0,0,,5,,,41,127
96592,note_off,121,0,0,,5,,,77,127
98304,end_of_track,1712,1,0,,,,,,
