tick,type,time,meta,track,program,channel,pitch,tempo,note,velocity
0,copyright,0,1,0,,,,,,
0,program_change,0,0,0,6,0,,,,
0,pitchwheel,0,0,0,,0,0,,,
0,program_change,0,0,0,6,1,,,,
0,pitchwheel,0,0,0,,1,-590,,,
0,program_change,0,0,0,6,2,,,,
0,pitchwheel,0,0,0,,2,-272,,,
0,program_change,0,0,0,6,3,,,,
0,pitchwheel,0,0,0,,3,-353,,,
0,program_change,0,0,0,6,4,,,,
0,pitchwheel,0,0,0,,4,-560,,,
0,program_change,0,0,0,6,5,,,,
0,pitchwheel,0,0,0,,5,-80,,,
0,program_change,0,0,0,6,6,,,,
0,pitchwheel,0,0,0,,6,-625,,,
0,program_change,0,0,0,6,7,,,,
0,pitchwheel,0,0,0,,7,-130,,,
0,program_change,0,0,0,6,8,,,,
0,pitchwheel,0,0,0,,8,-512,,,
0,program_change,0,0,0,6,10,,,,
0,pitchwheel,0,0,0,,10,-464,,,
0,program_change,0,0,0,6,11,,,,
0,pitchwheel,0,0,0,,11,-208,,,
0,program_change,0,0,0,6,12,,,,
0,pitchwheel,0,0,0,,12,-553,,,
0,set_tempo,0,1,0,,,,500000,,
82,note_on,82,0,0,,5,,,77,127
246,note_off,164,0,0,,5,,,77,127
247,note_on,1,0,0,,0,,,72,127
411,note_off,164,0,0,,0,,,72,127
412,note_on,1,0,0,,10,,,69,127
576,note_off,164,0,0,,10,,,69,127
577,note_on,1,0,0,,5,,,65,127
741,note_off,164,0,0,,5,,,65,127
742,note_on,1,0,0,,10,,,69,127
906,note_off,164,0,0,,10,,,69,127
907,note_on,1,0,0,,6,,,78,127
1071,note_off,164,0,0,,6,,,78,127
1072,note_on,1,0,0,,0,,,60,127
1072,note_on,0,0,0,,7,,,79,127
1236,note_off,164,0,0,,0,,,60,127
1237,note_on,1,0,0,,7,,,55,127
1401,note_off,164,0,0,,7,,,55,127
1402,note_on,1,0,0,,4,,,52,127
1566,note_off,164,0,0,,4,,,52,127
1567,note_on,1,0,0,,0,,,48,127
1731,note_off,164,0,0,,0,,,48,127
1732,note_on,1,0,0,,0,,,60,127
1896,note_off,164,0,0,,0,,,60,127
1897,note_on,1,0,0,,4,,,64,127
2061,note_off,164,0,0,,4,,,64,127
2062,note_on,1,0,0,,5,,,65,127
2217,note_off,155,0,0,,7,,,79,127
2226,note_on,9,0,0,,10,,,81,127
2390,note_off,164,0,0,,10,,,81,127
2390,note_off,0,0,0,,5,,,65,127
2391,note_on,1,0,0,,10,,,57,127
2391,note_on,0,0,0,,5,,,77,127
2555,note_off,164,0,0,,10,,,57,127
2556,note_on,1,0,0,,11,,,58,127
2711,note_off,155,0,0,,5,,,77,127
2720,note_on,9,0,0,,7,,,79,127
2884,note_off,164,0,0,,7,,,79,127
2884,note_off,0,0,0,,11,,,58,127
2885,note_on,1,0,0,,0,,,60,127
2885,note_on,0,0,0,,4,,,76,127
3022,note_off,137,0,0,,4,,,76,127
3039,note_off,17,0,0,,0,,,60,127
3049,note_on,10,0,0,,5,,,53,127
3049,note_on,0,0,0,,5,,,77,127
3214,note_on,165,0,0,,0,,,72,127
3296,note_off,82,0,0,,5,,,77,127
3377,note_off,81,0,0,,0,,,72,127
3378,note_on,1,0,0,,10,,,69,127
3542,note_off,164,0,0,,10,,,69,127
3543,note_on,1,0,0,,5,,,65,127
3707,note_off,164,0,0,,5,,,65,127
3707,note_off,0,0,0,,5,,,53,127
3708,note_on,1,0,0,,10,,,69,127
3872,note_off,164,0,0,,10,,,69,127
3873,note_on,1,0,0,,6,,,78,127
4037,note_off,164,0,0,,6,,,78,127
4038,note_on,1,0,0,,0,,,60,127
4038,note_on,0,0,0,,7,,,79,127
4202,note_off,164,0,0,,0,,,60,127
4203,note_on,1,0,0,,7,,,55,127
4367,note_off,164,0,0,,7,,,55,127
4368,note_on,1,0,0,,4,,,52,127
4532,note_off,164,0,0,,4,,,52,127
4533,note_on,1,0,0,,0,,,48,127
4697,note_off,164,0,0,,0,,,48,127
4698,note_on,1,0,0,,0,,,60,127
4862,note_off,164,0,0,,0,,,60,127
4863,note_on,1,0,0,,4,,,64,127
5027,note_off,164,0,0,,4,,,64,127
5028,note_on,1,0,0,,5,,,65,127
5183,note_off,155,0,0,,7,,,79,127
5192,note_on,9,0,0,,10,,,81,127
5356,note_off,164,0,0,,10,,,81,127
5356,note_off,0,0,0,,5,,,65,127
5357,note_on,1,0,0,,10,,,57,127
5357,note_on,0,0,0,,5,,,77,127
5521,note_off,164,0,0,,10,,,57,127
5522,note_on,1,0,0,,11,,,58,127
5677,note_off,155,0,0,,5,,,77,127
5686,note_on,9,0,0,,7,,,79,127
5850,note_off,164,0,0,,7,,,79,127
5850,note_off,0,0,0,,11,,,58,127
5851,note_on,1,0,0,,0,,,60,127
5851,note_on,0,0,0,,4,,,76,127
6005,note_off,154,0,0,,0,,,60,127
6011,note_off,6,0,0,,4,,,76,127
6015,note_on,4,0,0,,5,,,53,127
6015,note_on,0,0,0,,5,,,77,127
6180,note_on,165,0,0,,0,,,72,127
6262,note_off,82,0,0,,5,,,77,127
6343,note_off,81,0,0,,0,,,72,127
6344,note_on,1,0,0,,10,,,69,127
6508,note_off,164,0,0,,10,,,69,127
6509,note_on,1,0,0,,5,,,65,127
6673,note_off,164,0,0,,5,,,65,127
6674,note_on,1,0,0,,0,,,72,127
6838,note_off,164,0,0,,0,,,72,127
6839,note_on,1,0,0,,3,,,75,127
7003,note_off,164,0,0,,3,,,75,127
7003,note_off,0,0,0,,5,,,53,127
7004,note_on,1,0,0,,5,,,53,127
7004,note_on,0,0,0,,11,,,58,127
7004,note_on,0,0,0,,2,,,74,127
7169,note_on,165,0,0,,11,,,70,127
7251,note_off,82,0,0,,2,,,74,127
7332,note_off,81,0,0,,11,,,70,127
7333,note_on,1,0,0,,2,,,74,127
7497,note_off,164,0,0,,2,,,74,127
7497,note_off,0,0,0,,11,,,58,127
7497,note_off,0,0,0,,5,,,53,127
7498,note_on,1,0,0,,7,,,55,127
7498,note_on,0,0,0,,5,,,53,127
7498,note_on,0,0,0,,11,,,58,127
7498,note_on,0,0,0,,4,,,76,127
7663,note_on,165,0,0,,11,,,70,127
7745,note_off,82,0,0,,4,,,76,127
7826,note_off,81,0,0,,11,,,70,127
7827,note_on,1,0,0,,4,,,76,127
7991,note_off,164,0,0,,4,,,76,127
7991,note_off,0,0,0,,11,,,58,127
7991,note_off,0,0,0,,5,,,53,127
7991,note_off,0,0,0,,7,,,55,127
7992,note_on,1,0,0,,10,,,57,127
7992,note_on,0,0,0,,0,,,60,127
7992,note_on,0,0,0,,5,,,53,127
7992,note_on,0,0,0,,5,,,77,127
8157,note_on,165,0,0,,0,,,72,127
8239,note_off,82,0,0,,5,,,77,127
8320,note_off,81,0,0,,0,,,72,127
8321,note_on,1,0,0,,10,,,69,127
8485,note_off,164,0,0,,10,,,69,127
8486,note_on,1,0,0,,5,,,65,127
8650,note_off,164,0,0,,5,,,65,127
8651,note_on,1,0,0,,0,,,72,127
8815,note_off,164,0,0,,0,,,72,127
8816,note_on,1,0,0,,3,,,75,127
8980,note_off,164,0,0,,3,,,75,127
8980,note_off,0,0,0,,5,,,53,127
8980,note_off,0,0,0,,0,,,60,127
8980,note_off,0,0,0,,10,,,57,127
8981,note_on,1,0,0,,11,,,58,127
8981,note_on,0,0,0,,5,,,53,127
8981,note_on,0,0,0,,2,,,74,127
9146,note_on,165,0,0,,11,,,70,127
9228,note_off,82,0,0,,2,,,74,127
9309,note_off,81,0,0,,11,,,70,127
9310,note_on,1,0,0,,2,,,74,127
9474,note_off,164,0,0,,2,,,74,127
9474,note_off,0,0,0,,5,,,53,127
9474,note_off,0,0,0,,11,,,58,127
9475,note_on,1,0,0,,11,,,58,127
9475,note_on,0,0,0,,7,,,55,127
9475,note_on,0,0,0,,5,,,53,127
9475,note_on,0,0,0,,4,,,76,127
9640,note_on,165,0,0,,11,,,70,127
9722,note_off,82,0,0,,4,,,76,127
9803,note_off,81,0,0,,11,,,70,127
9804,note_on,1,0,0,,4,,,76,127
9968,note_off,164,0,0,,4,,,76,127
9968,note_off,0,0,0,,5,,,53,127
9968,note_off,0,0,0,,7,,,55,127
9968,note_off,0,0,0,,11,,,58,127
9969,note_on,1,0,0,,5,,,65,127
9969,note_on,0,0,0,,5,,,77,127
10133,note_off,164,0,0,,5,,,65,127
10134,note_on,1,0,0,,0,,,60,127
10298,note_off,164,0,0,,0,,,60,127
10299,note_on,1,0,0,,10,,,57,127
10463,note_off,164,0,0,,10,,,57,127
10464,note_on,1,0,0,,5,,,53,127
10629,note_on,165,0,0,,0,,,60,127
10793,note_off,164,0,0,,0,,,60,127
10794,note_on,1,0,0,,3,,,63,127
10811,note_off,17,0,0,,5,,,77,127
10958,note_off,147,0,0,,3,,,63,127
10958,note_off,0,0,0,,5,,,53,127
10959,note_on,1,0,0,,2,,,62,127
10959,note_on,0,0,0,,5,,,77,127
11123,note_off,164,0,0,,2,,,62,127
11124,note_on,1,0,0,,11,,,58,127
11288,note_off,164,0,0,,11,,,58,127
11289,note_on,1,0,0,,2,,,62,127
11453,note_off,164,0,0,,2,,,62,127
11453,note_off,0,0,0,,5,,,77,127
11454,note_on,1,0,0,,4,,,64,127
11454,note_on,0,0,0,,0,,,72,127
11502,note_on,48,0,0,,11,,,70,127
11508,note_off,6,0,0,,0,,,72,127
11552,note_on,44,0,0,,0,,,72,127
11556,note_off,4,0,0,,11,,,70,127
11601,note_on,45,0,0,,11,,,70,127
11606,note_off,5,0,0,,0,,,72,127
11618,note_off,12,0,0,,4,,,64,127
11618,note_on,0,0,0,,11,,,58,127
11651,note_on,33,0,0,,0,,,72,127
11655,note_off,4,0,0,,11,,,70,127
11701,note_on,46,0,0,,11,,,70,127
11704,note_off,3,0,0,,0,,,72,127
11749,note_on,45,0,0,,0,,,72,127
11755,note_off,6,0,0,,11,,,70,127
11782,note_off,27,0,0,,11,,,58,127
11783,note_on,1,0,0,,4,,,64,127
11799,note_on,16,0,0,,11,,,70,127
11803,note_off,4,0,0,,0,,,72,127
11848,note_on,45,0,0,,0,,,72,127
11853,note_off,5,0,0,,11,,,70,127
11898,note_on,45,0,0,,11,,,70,127
11902,note_off,4,0,0,,0,,,72,127
11947,note_off,45,0,0,,4,,,64,127
11949,note_on,2,0,0,,5,,,65,127
11949,note_on,0,0,0,,10,,,69,127
11952,note_off,3,0,0,,11,,,70,127
12112,note_off,160,0,0,,5,,,65,127
12113,note_on,1,0,0,,0,,,60,127
12277,note_off,164,0,0,,0,,,60,127
12278,note_on,1,0,0,,10,,,57,127
12442,note_off,164,0,0,,10,,,57,127
12443,note_on,1,0,0,,5,,,53,127
12607,note_off,164,0,0,,10,,,69,127
12608,note_on,1,0,0,,0,,,60,127
12772,note_off,164,0,0,,0,,,60,127
12773,note_on,1,0,0,,3,,,63,127
12937,note_off,164,0,0,,3,,,63,127
12937,note_off,0,0,0,,5,,,53,127
12938,note_on,1,0,0,,2,,,62,127
12938,note_on,0,0,0,,5,,,77,127
13102,note_off,164,0,0,,2,,,62,127
13103,note_on,1,0,0,,11,,,58,127
13267,note_off,164,0,0,,11,,,58,127
13268,note_on,1,0,0,,2,,,62,127
13432,note_off,164,0,0,,2,,,62,127
13432,note_off,0,0,0,,5,,,77,127
13433,note_on,1,0,0,,4,,,64,127
13433,note_on,0,0,0,,0,,,72,127
13481,note_on,48,0,0,,11,,,70,127
13487,note_off,6,0,0,,0,,,72,127
13531,note_on,44,0,0,,0,,,72,127
13535,note_off,4,0,0,,11,,,70,127
13580,note_on,45,0,0,,11,,,70,127
13585,note_off,5,0,0,,0,,,72,127
13597,note_off,12,0,0,,4,,,64,127
13597,note_on,0,0,0,,11,,,58,127
13630,note_on,33,0,0,,0,,,72,127
13634,note_off,4,0,0,,11,,,70,127
13680,note_on,46,0,0,,11,,,70,127
13683,note_off,3,0,0,,0,,,72,127
13728,note_on,45,0,0,,0,,,72,127
13734,note_off,6,0,0,,11,,,70,127
13761,note_off,27,0,0,,11,,,58,127
13762,note_on,1,0,0,,4,,,64,127
13778,note_on,16,0,0,,11,,,70,127
13782,note_off,4,0,0,,0,,,72,127
13827,note_on,45,0,0,,0,,,72,127
13832,note_off,5,0,0,,11,,,70,127
13877,note_on,45,0,0,,11,,,70,127
13881,note_off,4,0,0,,0,,,72,127
13926,note_off,45,0,0,,4,,,64,127
13928,note_on,2,0,0,,5,,,53,127
13928,note_on,0,0,0,,5,,,65,127
13928,note_on,0,0,0,,10,,,69,127
13931,note_off,3,0,0,,11,,,70,127
14091,note_off,160,0,0,,10,,,69,127
14092,note_on,1,0,0,,0,,,72,127
14256,note_off,164,0,0,,0,,,72,127
14257,note_on,1,0,0,,5,,,77,127
14421,note_off,164,0,0,,5,,,77,127
14421,note_off,0,0,0,,5,,,65,127
14421,note_off,0,0,0,,5,,,53,127
14422,note_on,1,0,0,,5,,,65,127
14422,note_on,0,0,0,,10,,,81,127
14587,note_on,165,0,0,,2,,,74,127
14751,note_off,164,0,0,,2,,,74,127
14752,note_on,1,0,0,,12,,,71,127
14916,note_off,164,0,0,,12,,,71,127
14916,note_off,0,0,0,,10,,,81,127
14916,note_off,0,0,0,,5,,,65,127
14917,note_on,1,0,0,,4,,,64,127
14917,note_on,0,0,0,,0,,,72,127
14917,note_on,0,0,0,,7,,,79,127
15081,note_off,164,0,0,,0,,,72,127
15082,note_on,1,0,0,,2,,,74,127
15246,note_off,164,0,0,,2,,,74,127
15247,note_on,1,0,0,,4,,,76,127
15411,note_off,164,0,0,,4,,,76,127
15411,note_off,0,0,0,,7,,,79,127
15411,note_off,0,0,0,,4,,,64,127
15412,note_on,1,0,0,,2,,,62,127
15412,note_on,0,0,0,,7,,,79,127
15453,note_on,41,0,0,,5,,,77,127
15466,note_off,13,0,0,,7,,,79,127
15494,note_on,28,0,0,,7,,,79,127
15507,note_off,13,0,0,,5,,,77,127
15535,note_on,28,0,0,,5,,,77,127
15548,note_off,13,0,0,,7,,,79,127
15576,note_on,28,0,0,,4,,,76,127
15589,note_off,13,0,0,,5,,,77,127
15740,note_off,151,0,0,,4,,,76,127
15741,note_on,1,0,0,,2,,,74,127
15905,note_off,164,0,0,,2,,,74,127
15905,note_off,0,0,0,,2,,,62,127
15906,note_on,1,0,0,,0,,,60,127
15906,note_on,0,0,0,,5,,,77,127
15947,note_on,41,0,0,,4,,,76,127
15960,note_off,13,0,0,,5,,,77,127
15988,note_on,28,0,0,,5,,,77,127
16001,note_off,13,0,0,,4,,,76,127
16029,note_on,28,0,0,,4,,,76,127
16042,note_off,13,0,0,,5,,,77,127
16070,note_on,28,0,0,,2,,,74,127
16083,note_off,13,0,0,,4,,,76,127
16234,note_off,151,0,0,,2,,,74,127
16235,note_on,1,0,0,,0,,,72,127
16399,note_off,164,0,0,,0,,,72,127
16399,note_off,0,0,0,,0,,,60,127
16400,note_on,1,0,0,,4,,,64,127
16400,note_on,0,0,0,,7,,,79,127
16565,note_on,165,0,0,,4,,,76,127
16729,note_off,164,0,0,,4,,,76,127
16729,note_off,0,0,0,,7,,,79,127
16730,note_on,1,0,0,,7,,,67,127
16894,note_off,164,0,0,,7,,,67,127
16894,note_off,0,0,0,,4,,,64,127
16895,note_on,1,0,0,,2,,,62,127
16895,note_on,0,0,0,,5,,,77,127
17060,note_on,165,0,0,,2,,,74,127
17224,note_off,164,0,0,,2,,,74,127
17224,note_off,0,0,0,,5,,,77,127
17225,note_on,1,0,0,,7,,,67,127
17389,note_off,164,0,0,,7,,,67,127
17389,note_off,0,0,0,,2,,,62,127
17390,note_on,1,0,0,,0,,,60,127
17390,note_on,0,0,0,,4,,,76,127
17555,note_on,165,0,0,,0,,,72,127
17719,note_off,164,0,0,,0,,,72,127
17719,note_off,0,0,0,,4,,,76,127
17720,note_on,1,0,0,,7,,,67,127
17884,note_off,164,0,0,,7,,,67,127
17884,note_off,0,0,0,,0,,,60,127
17885,note_on,1,0,0,,7,,,55,127
17885,note_on,0,0,0,,4,,,76,127
17933,note_on,48,0,0,,2,,,74,127
17939,note_off,6,0,0,,4,,,76,127
17983,note_on,44,0,0,,4,,,76,127
17987,note_off,4,0,0,,2,,,74,127
18032,note_on,45,0,0,,2,,,74,127
18037,note_off,5,0,0,,4,,,76,127
18082,note_on,45,0,0,,4,,,76,127
18086,note_off,4,0,0,,2,,,74,127
18132,note_on,46,0,0,,2,,,74,127
18135,note_off,3,0,0,,4,,,76,127
18180,note_on,45,0,0,,4,,,76,127
18186,note_off,6,0,0,,2,,,74,127
18230,note_on,44,0,0,,2,,,74,127
18234,note_off,4,0,0,,4,,,76,127
18279,note_on,45,0,0,,4,,,76,127
18284,note_off,5,0,0,,2,,,74,127
18297,note_off,13,0,0,,7,,,55,127
18329,note_on,32,0,0,,2,,,74,127
18333,note_off,4,0,0,,4,,,76,127
18379,note_on,46,0,0,,4,,,64,127
18452,note_off,73,0,0,,2,,,74,127
18543,note_off,91,0,0,,4,,,64,127
18544,note_on,1,0,0,,0,,,60,127
18708,note_off,164,0,0,,0,,,60,127
18709,note_on,1,0,0,,7,,,55,127
18873,note_off,164,0,0,,7,,,55,127
18874,note_on,1,0,0,,5,,,65,127
19038,note_off,164,0,0,,5,,,65,127
19039,note_on,1,0,0,,2,,,62,127
19203,note_off,164,0,0,,2,,,62,127
19204,note_on,1,0,0,,7,,,55,127
19368,note_off,164,0,0,,7,,,55,127
19369,note_on,1,0,0,,4,,,64,127
19533,note_off,164,0,0,,4,,,64,127
19534,note_on,1,0,0,,0,,,60,127
19698,note_off,164,0,0,,0,,,60,127
19699,note_on,1,0,0,,7,,,55,127
19863,note_off,164,0,0,,7,,,55,127
19864,note_on,1,0,0,,5,,,65,127
19864,note_on,0,0,0,,12,,,83,127
19864,note_on,0,0,0,,2,,,74,127
19864,note_on,0,0,0,,7,,,79,127
19905,note_on,41,0,0,,5,,,77,127
19918,note_off,13,0,0,,7,,,79,127
19946,note_on,28,0,0,,7,,,79,127
19959,note_off,13,0,0,,5,,,77,127
19987,note_on,28,0,0,,5,,,77,127
20000,note_off,13,0,0,,7,,,79,127
20027,note_off,27,0,0,,5,,,65,127
20028,note_on,1,0,0,,2,,,62,127
20028,note_on,0,0,0,,7,,,79,127
20041,note_off,13,0,0,,5,,,77,127
20069,note_on,28,0,0,,5,,,77,127
20082,note_off,13,0,0,,7,,,79,127
20110,note_on,28,0,0,,7,,,79,127
20123,note_off,13,0,0,,5,,,77,127
20151,note_on,28,0,0,,5,,,77,127
20164,note_off,13,0,0,,7,,,79,127
20191,note_off,27,0,0,,2,,,62,127
20192,note_on,1,0,0,,7,,,55,127
20192,note_on,0,0,0,,7,,,79,127
20205,note_off,13,0,0,,5,,,77,127
20233,note_on,28,0,0,,5,,,77,127
20246,note_off,13,0,0,,7,,,79,127
20274,note_on,28,0,0,,7,,,79,127
20287,note_off,13,0,0,,5,,,77,127
20315,note_on,28,0,0,,5,,,77,127
20328,note_off,13,0,0,,7,,,79,127
20355,note_off,27,0,0,,7,,,55,127
20355,note_off,0,0,0,,2,,,74,127
20355,note_off,0,0,0,,12,,,83,127
20356,note_on,1,0,0,,4,,,64,127
20356,note_on,0,0,0,,4,,,76,127
20356,note_on,0,0,0,,0,,,84,127
20356,note_on,0,0,0,,10,,,81,127
20369,note_off,13,0,0,,5,,,77,127
20397,note_on,28,0,0,,7,,,79,127
20410,note_off,13,0,0,,10,,,81,127
20438,note_on,28,0,0,,10,,,81,127
20451,note_off,13,0,0,,7,,,79,127
20479,note_on,28,0,0,,7,,,79,127
20492,note_off,13,0,0,,10,,,81,127
20519,note_off,27,0,0,,4,,,64,127
20520,note_on,1,0,0,,0,,,60,127
20520,note_on,0,0,0,,10,,,81,127
20533,note_off,13,0,0,,7,,,79,127
20561,note_on,28,0,0,,7,,,79,127
20574,note_off,13,0,0,,10,,,81,127
20602,note_on,28,0,0,,10,,,81,127
20615,note_off,13,0,0,,7,,,79,127
20643,note_on,28,0,0,,7,,,79,127
20656,note_off,13,0,0,,10,,,81,127
20683,note_off,27,0,0,,0,,,60,127
20684,note_on,1,0,0,,7,,,55,127
20684,note_on,0,0,0,,10,,,81,127
20697,note_off,13,0,0,,7,,,79,127
20725,note_on,28,0,0,,7,,,79,127
20738,note_off,13,0,0,,10,,,81,127
20766,note_on,28,0,0,,10,,,81,127
20779,note_off,13,0,0,,7,,,79,127
20807,note_on,28,0,0,,7,,,79,127
20820,note_off,13,0,0,,10,,,81,127
20847,note_off,27,0,0,,7,,,55,127
20847,note_off,0,0,0,,0,,,84,127
20847,note_off,0,0,0,,4,,,76,127
20848,note_on,1,0,0,,5,,,65,127
20888,note_off,40,0,0,,7,,,79,127
21011,note_off,123,0,0,,5,,,65,127
21012,note_on,1,0,0,,2,,,62,127
21176,note_off,164,0,0,,2,,,62,127
21177,note_on,1,0,0,,7,,,55,127
21341,note_off,164,0,0,,7,,,55,127
21342,note_on,1,0,0,,4,,,64,127
21506,note_off,164,0,0,,4,,,64,127
21507,note_on,1,0,0,,0,,,60,127
21671,note_off,164,0,0,,0,,,60,127
21672,note_on,1,0,0,,7,,,55,127
21836,note_off,164,0,0,,7,,,55,127
21837,note_on,1,0,0,,5,,,65,127
21837,note_on,0,0,0,,7,,,79,127
21837,note_on,0,0,0,,2,,,74,127
21837,note_on,0,0,0,,12,,,83,127
21878,note_on,41,0,0,,5,,,77,127
21891,note_off,13,0,0,,7,,,79,127
21919,note_on,28,0,0,,7,,,79,127
21932,note_off,13,0,0,,5,,,77,127
21960,note_on,28,0,0,,5,,,77,127
21973,note_off,13,0,0,,7,,,79,127
22000,note_off,27,0,0,,5,,,65,127
22001,note_on,1,0,0,,2,,,62,127
22001,note_on,0,0,0,,7,,,79,127
22014,note_off,13,0,0,,5,,,77,127
22042,note_on,28,0,0,,5,,,77,127
22055,note_off,13,0,0,,7,,,79,127
22083,note_on,28,0,0,,7,,,79,127
22096,note_off,13,0,0,,5,,,77,127
22124,note_on,28,0,0,,5,,,77,127
22137,note_off,13,0,0,,7,,,79,127
22164,note_off,27,0,0,,2,,,62,127
22165,note_on,1,0,0,,7,,,55,127
22165,note_on,0,0,0,,7,,,79,127
22178,note_off,13,0,0,,5,,,77,127
22206,note_on,28,0,0,,5,,,77,127
22219,note_off,13,0,0,,7,,,79,127
22247,note_on,28,0,0,,7,,,79,127
22260,note_off,13,0,0,,5,,,77,127
22288,note_on,28,0,0,,5,,,77,127
22301,note_off,13,0,0,,7,,,79,127
22328,note_off,27,0,0,,7,,,55,127
22328,note_off,0,0,0,,12,,,83,127
22328,note_off,0,0,0,,2,,,74,127
22329,note_on,1,0,0,,4,,,64,127
22329,note_on,0,0,0,,10,,,81,127
22329,note_on,0,0,0,,0,,,84,127
22329,note_on,0,0,0,,4,,,76,127
22342,note_off,13,0,0,,5,,,77,127
22370,note_on,28,0,0,,7,,,79,127
22383,note_off,13,0,0,,10,,,81,127
22411,note_on,28,0,0,,10,,,81,127
22424,note_off,13,0,0,,7,,,79,127
22452,note_on,28,0,0,,7,,,79,127
22465,note_off,13,0,0,,10,,,81,127
22492,note_off,27,0,0,,4,,,64,127
22493,note_on,1,0,0,,0,,,60,127
22493,note_on,0,0,0,,10,,,81,127
22506,note_off,13,0,0,,7,,,79,127
22534,note_on,28,0,0,,7,,,79,127
22547,note_off,13,0,0,,10,,,81,127
22575,note_on,28,0,0,,10,,,81,127
22588,note_off,13,0,0,,7,,,79,127
22616,note_on,28,0,0,,7,,,79,127
22629,note_off,13,0,0,,10,,,81,127
22656,note_off,27,0,0,,0,,,60,127
22657,note_on,1,0,0,,7,,,55,127
22657,note_on,0,0,0,,10,,,81,127
22670,note_off,13,0,0,,7,,,79,127
22698,note_on,28,0,0,,7,,,79,127
22711,note_off,13,0,0,,10,,,81,127
22739,note_on,28,0,0,,10,,,81,127
22752,note_off,13,0,0,,7,,,79,127
22780,note_on,28,0,0,,7,,,79,127
22793,note_off,13,0,0,,10,,,81,127
22820,note_off,27,0,0,,7,,,55,127
22820,note_off,0,0,0,,4,,,76,127
22820,note_off,0,0,0,,0,,,84,127
22821,note_on,1,0,0,,5,,,65,127
22861,note_off,40,0,0,,7,,,79,127
22984,note_off,123,0,0,,5,,,65,127
22985,note_on,1,0,0,,2,,,62,127
23149,note_off,164,0,0,,2,,,62,127
23150,note_on,1,0,0,,7,,,55,127
23314,note_off,164,0,0,,7,,,55,127
23315,note_on,1,0,0,,4,,,64,127
23479,note_off,164,0,0,,4,,,64,127
23480,note_on,1,0,0,,0,,,60,127
23644,note_off,164,0,0,,0,,,60,127
23645,note_on,1,0,0,,7,,,55,127
23809,note_off,164,0,0,,7,,,55,127
23810,note_on,1,0,0,,5,,,65,127
23810,note_on,0,0,0,,2,,,74,127
23810,note_on,0,0,0,,7,,,79,127
23810,note_on,0,0,0,,12,,,83,127
23851,note_on,41,0,0,,5,,,77,127
23864,note_off,13,0,0,,7,,,79,127
23892,note_on,28,0,0,,7,,,79,127
23905,note_off,13,0,0,,5,,,77,127
23933,note_on,28,0,0,,5,,,77,127
23946,note_off,13,0,0,,7,,,79,127
23973,note_off,27,0,0,,5,,,65,127
23974,note_on,1,0,0,,2,,,62,127
23974,note_on,0,0,0,,7,,,79,127
23987,note_off,13,0,0,,5,,,77,127
24015,note_on,28,0,0,,5,,,77,127
24028,note_off,13,0,0,,7,,,79,127
24056,note_on,28,0,0,,7,,,79,127
24069,note_off,13,0,0,,5,,,77,127
24097,note_on,28,0,0,,5,,,77,127
24110,note_off,13,0,0,,7,,,79,127
24137,note_off,27,0,0,,2,,,62,127
24138,note_on,1,0,0,,7,,,55,127
24138,note_on,0,0,0,,7,,,79,127
24151,note_off,13,0,0,,5,,,77,127
24179,note_on,28,0,0,,5,,,77,127
24192,note_off,13,0,0,,7,,,79,127
24220,note_on,28,0,0,,7,,,79,127
24233,note_off,13,0,0,,5,,,77,127
24261,note_on,28,0,0,,5,,,77,127
24274,note_off,13,0,0,,7,,,79,127
24301,note_off,27,0,0,,7,,,55,127
24301,note_off,0,0,0,,12,,,83,127
24301,note_off,0,0,0,,2,,,74,127
24302,note_on,1,0,0,,4,,,64,127
24302,note_on,0,0,0,,10,,,81,127
24302,note_on,0,0,0,,4,,,76,127
24302,note_on,0,0,0,,0,,,84,127
24315,note_off,13,0,0,,5,,,77,127
24343,note_on,28,0,0,,7,,,79,127
24356,note_off,13,0,0,,10,,,81,127
24384,note_on,28,0,0,,10,,,81,127
24397,note_off,13,0,0,,7,,,79,127
24425,note_on,28,0,0,,7,,,79,127
24438,note_off,13,0,0,,10,,,81,127
24465,note_off,27,0,0,,4,,,64,127
24466,note_on,1,0,0,,0,,,60,127
24466,note_on,0,0,0,,10,,,81,127
24479,note_off,13,0,0,,7,,,79,127
24507,note_on,28,0,0,,7,,,79,127
24520,note_off,13,0,0,,10,,,81,127
24548,note_on,28,0,0,,10,,,81,127
24561,note_off,13,0,0,,7,,,79,127
24589,note_on,28,0,0,,7,,,79,127
24602,note_off,13,0,0,,10,,,81,127
24629,note_off,27,0,0,,0,,,60,127
24630,note_on,1,0,0,,7,,,55,127
24630,note_on,0,0,0,,10,,,81,127
24643,note_off,13,0,0,,7,,,79,127
24671,note_on,28,0,0,,7,,,79,127
24684,note_off,13,0,0,,10,,,81,127
24712,note_on,28,0,0,,10,,,81,127
24725,note_off,13,0,0,,7,,,79,127
24753,note_on,28,0,0,,7,,,79,127
24766,note_off,13,0,0,,10,,,81,127
24793,note_off,27,0,0,,7,,,55,127
24793,note_off,0,0,0,,0,,,84,127
24793,note_off,0,0,0,,4,,,76,127
24794,note_on,1,0,0,,5,,,53,127
24958,note_off,164,0,0,,7,,,79,127
24959,note_on,1,0,0,,5,,,77,127
25123,note_off,164,0,0,,5,,,77,127
25124,note_on,1,0,0,,4,,,76,127
25288,note_off,164,0,0,,4,,,76,127
25288,note_off,0,0,0,,5,,,53,127
25289,note_on,1,0,0,,7,,,43,127
25289,note_on,0,0,0,,7,,,55,127
25289,note_on,0,0,0,,4,,,76,127
25330,note_on,41,0,0,,2,,,74,127
25343,note_off,13,0,0,,4,,,76,127
25371,note_on,28,0,0,,4,,,76,127
25384,note_off,13,0,0,,2,,,74,127
25412,note_on,28,0,0,,2,,,74,127
25425,note_off,13,0,0,,4,,,76,127
25453,note_on,28,0,0,,0,,,72,127
25466,note_off,13,0,0,,2,,,74,127
25617,note_off,151,0,0,,0,,,72,127
25618,note_on,1,0,0,,12,,,71,127
25782,note_off,164,0,0,,12,,,71,127
25782,note_off,0,0,0,,7,,,55,127
25782,note_off,0,0,0,,7,,,43,127
25783,note_on,1,0,0,,0,,,48,127
25783,note_on,0,0,0,,12,,,71,127
26111,note_off,328,0,0,,12,,,71,127
26112,note_on,1,0,0,,0,,,72,127
26276,note_off,164,0,0,,0,,,72,127
26276,note_off,0,0,0,,0,,,48,127
26277,note_on,1,0,0,,3,,,63,127
26441,note_off,164,0,0,,3,,,63,127
26442,note_on,1,0,0,,0,,,60,127
26606,note_off,164,0,0,,0,,,60,127
26607,note_on,1,0,0,,7,,,55,127
26771,note_off,164,0,0,,7,,,55,127
26772,note_on,1,0,0,,5,,,65,127
26936,note_off,164,0,0,,5,,,65,127
26937,note_on,1,0,0,,2,,,62,127
27101,note_off,164,0,0,,2,,,62,127
27102,note_on,1,0,0,,7,,,55,127
27266,note_off,164,0,0,,7,,,55,127
27267,note_on,1,0,0,,3,,,63,127
27431,note_off,164,0,0,,3,,,63,127
27432,note_on,1,0,0,,0,,,60,127
27596,note_off,164,0,0,,0,,,60,127
27597,note_on,1,0,0,,7,,,55,127
27761,note_off,164,0,0,,7,,,55,127
27762,note_on,1,0,0,,5,,,65,127
27762,note_on,0,0,0,,7,,,79,127
27762,note_on,0,0,0,,2,,,74,127
27762,note_on,0,0,0,,12,,,83,127
27803,note_on,41,0,0,,5,,,77,127
27816,note_off,13,0,0,,7,,,79,127
27844,note_on,28,0,0,,7,,,79,127
27857,note_off,13,0,0,,5,,,77,127
27885,note_on,28,0,0,,5,,,77,127
27898,note_off,13,0,0,,7,,,79,127
27925,note_off,27,0,0,,5,,,65,127
27926,note_on,1,0,0,,2,,,62,127
27926,note_on,0,0,0,,7,,,79,127
27939,note_off,13,0,0,,5,,,77,127
27967,note_on,28,0,0,,5,,,77,127
27980,note_off,13,0,0,,7,,,79,127
28008,note_on,28,0,0,,7,,,79,127
28021,note_off,13,0,0,,5,,,77,127
28049,note_on,28,0,0,,5,,,77,127
28062,note_off,13,0,0,,7,,,79,127
28089,note_off,27,0,0,,2,,,62,127
28090,note_on,1,0,0,,7,,,55,127
28090,note_on,0,0,0,,7,,,79,127
28103,note_off,13,0,0,,5,,,77,127
28131,note_on,28,0,0,,5,,,77,127
28144,note_off,13,0,0,,7,,,79,127
28172,note_on,28,0,0,,7,,,79,127
28185,note_off,13,0,0,,5,,,77,127
28213,note_on,28,0,0,,5,,,77,127
28226,note_off,13,0,0,,7,,,79,127
28253,note_off,27,0,0,,7,,,55,127
28253,note_off,0,0,0,,12,,,83,127
28253,note_off,0,0,0,,2,,,74,127
28254,note_on,1,0,0,,3,,,63,127
28254,note_on,0,0,0,,8,,,80,127
28254,note_on,0,0,0,,0,,,84,127
28254,note_on,0,0,0,,3,,,75,127
28267,note_off,13,0,0,,5,,,77,127
28295,note_on,28,0,0,,7,,,79,127
28308,note_off,13,0,0,,8,,,80,127
28336,note_on,28,0,0,,8,,,80,127
28349,note_off,13,0,0,,7,,,79,127
28377,note_on,28,0,0,,7,,,79,127
28390,note_off,13,0,0,,8,,,80,127
28417,note_off,27,0,0,,3,,,63,127
28418,note_on,1,0,0,,0,,,60,127
28418,note_on,0,0,0,,8,,,80,127
28431,note_off,13,0,0,,7,,,79,127
28459,note_on,28,0,0,,7,,,79,127
28472,note_off,13,0,0,,8,,,80,127
28500,note_on,28,0,0,,8,,,80,127
28513,note_off,13,0,0,,7,,,79,127
28541,note_on,28,0,0,,7,,,79,127
28554,note_off,13,0,0,,8,,,80,127
28581,note_off,27,0,0,,0,,,60,127
28582,note_on,1,0,0,,7,,,55,127
28582,note_on,0,0,0,,8,,,80,127
28595,note_off,13,0,0,,7,,,79,127
28623,note_on,28,0,0,,7,,,79,127
28636,note_off,13,0,0,,8,,,80,127
28664,note_on,28,0,0,,8,,,80,127
28677,note_off,13,0,0,,7,,,79,127
28705,note_on,28,0,0,,7,,,79,127
28718,note_off,13,0,0,,8,,,80,127
28745,note_off,27,0,0,,7,,,55,127
28745,note_off,0,0,0,,3,,,75,127
28745,note_off,0,0,0,,0,,,84,127
28746,note_on,1,0,0,,5,,,65,127
28786,note_off,40,0,0,,7,,,79,127
28909,note_off,123,0,0,,5,,,65,127
28910,note_on,1,0,0,,2,,,62,127
29074,note_off,164,0,0,,2,,,62,127
29075,note_on,1,0,0,,7,,,55,127
29239,note_off,164,0,0,,7,,,55,127
29240,note_on,1,0,0,,3,,,63,127
29404,note_off,164,0,0,,3,,,63,127
29405,note_on,1,0,0,,0,,,60,127
29569,note_off,164,0,0,,0,,,60,127
29570,note_on,1,0,0,,7,,,55,127
29734,note_off,164,0,0,,7,,,55,127
29735,note_on,1,0,0,,5,,,65,127
29735,note_on,0,0,0,,2,,,74,127
29735,note_on,0,0,0,,7,,,79,127
29735,note_on,0,0,0,,12,,,83,127
29776,note_on,41,0,0,,5,,,77,127
29789,note_off,13,0,0,,7,,,79,127
29817,note_on,28,0,0,,7,,,79,127
29830,note_off,13,0,0,,5,,,77,127
29858,note_on,28,0,0,,5,,,77,127
29871,note_off,13,0,0,,7,,,79,127
29898,note_off,27,0,0,,5,,,65,127
29899,note_on,1,0,0,,2,,,62,127
29899,note_on,0,0,0,,7,,,79,127
29912,note_off,13,0,0,,5,,,77,127
29940,note_on,28,0,0,,5,,,77,127
29953,note_off,13,0,0,,7,,,79,127
29981,note_on,28,0,0,,7,,,79,127
29994,note_off,13,0,0,,5,,,77,127
30022,note_on,28,0,0,,5,,,77,127
30035,note_off,13,0,0,,7,,,79,127
30062,note_off,27,0,0,,2,,,62,127
30063,note_on,1,0,0,,7,,,55,127
30063,note_on,0,0,0,,7,,,79,127
30076,note_off,13,0,0,,5,,,77,127
30104,note_on,28,0,0,,5,,,77,127
30117,note_off,13,0,0,,7,,,79,127
30145,note_on,28,0,0,,7,,,79,127
30158,note_off,13,0,0,,5,,,77,127
30186,note_on,28,0,0,,5,,,77,127
30199,note_off,13,0,0,,7,,,79,127
30226,note_off,27,0,0,,7,,,55,127
30226,note_off,0,0,0,,12,,,83,127
30226,note_off,0,0,0,,2,,,74,127
30227,note_on,1,0,0,,3,,,63,127
30227,note_on,0,0,0,,8,,,80,127
30227,note_on,0,0,0,,0,,,84,127
30227,note_on,0,0,0,,3,,,75,127
30240,note_off,13,0,0,,5,,,77,127
30268,note_on,28,0,0,,7,,,79,127
30281,note_off,13,0,0,,8,,,80,127
30309,note_on,28,0,0,,8,,,80,127
30322,note_off,13,0,0,,7,,,79,127
30350,note_on,28,0,0,,7,,,79,127
30363,note_off,13,0,0,,8,,,80,127
30390,note_off,27,0,0,,3,,,63,127
30391,note_on,1,0,0,,0,,,60,127
30391,note_on,0,0,0,,8,,,80,127
30404,note_off,13,0,0,,7,,,79,127
30432,note_on,28,0,0,,7,,,79,127
30445,note_off,13,0,0,,8,,,80,127
30473,note_on,28,0,0,,8,,,80,127
30486,note_off,13,0,0,,7,,,79,127
30514,note_on,28,0,0,,7,,,79,127
30527,note_off,13,0,0,,8,,,80,127
30554,note_off,27,0,0,,0,,,60,127
30555,note_on,1,0,0,,7,,,55,127
30555,note_on,0,0,0,,8,,,80,127
30568,note_off,13,0,0,,7,,,79,127
30596,note_on,28,0,0,,7,,,79,127
30609,note_off,13,0,0,,8,,,80,127
30637,note_on,28,0,0,,8,,,80,127
30650,note_off,13,0,0,,7,,,79,127
30678,note_on,28,0,0,,7,,,79,127
30691,note_off,13,0,0,,8,,,80,127
30718,note_off,27,0,0,,7,,,55,127
30718,note_off,0,0,0,,3,,,75,127
30718,note_off,0,0,0,,0,,,84,127
30719,note_on,1,0,0,,5,,,65,127
30759,note_off,40,0,0,,7,,,79,127
30882,note_off,123,0,0,,5,,,65,127
30883,note_on,1,0,0,,2,,,62,127
31047,note_off,164,0,0,,2,,,62,127
31048,note_on,1,0,0,,7,,,55,127
31212,note_off,164,0,0,,7,,,55,127
31213,note_on,1,0,0,,3,,,63,127
31377,note_off,164,0,0,,3,,,63,127
31378,note_on,1,0,0,,0,,,60,127
31542,note_off,164,0,0,,0,,,60,127
31543,note_on,1,0,0,,7,,,55,127
31707,note_off,164,0,0,,7,,,55,127
31708,note_on,1,0,0,,5,,,65,127
31708,note_on,0,0,0,,12,,,83,127
31708,note_on,0,0,0,,7,,,79,127
31708,note_on,0,0,0,,2,,,74,127
31749,note_on,41,0,0,,5,,,77,127
31762,note_off,13,0,0,,7,,,79,127
31790,note_on,28,0,0,,7,,,79,127
31803,note_off,13,0,0,,5,,,77,127
31831,note_on,28,0,0,,5,,,77,127
31844,note_off,13,0,0,,7,,,79,127
31871,note_off,27,0,0,,5,,,65,127
31872,note_on,1,0,0,,2,,,62,127
31872,note_on,0,0,0,,7,,,79,127
31885,note_off,13,0,0,,5,,,77,127
31913,note_on,28,0,0,,5,,,77,127
31926,note_off,13,0,0,,7,,,79,127
31954,note_on,28,0,0,,7,,,79,127
31967,note_off,13,0,0,,5,,,77,127
31995,note_on,28,0,0,,5,,,77,127
32008,note_off,13,0,0,,7,,,79,127
32035,note_off,27,0,0,,2,,,62,127
32036,note_on,1,0,0,,7,,,55,127
32036,note_on,0,0,0,,7,,,79,127
32049,note_off,13,0,0,,5,,,77,127
32077,note_on,28,0,0,,5,,,77,127
32090,note_off,13,0,0,,7,,,79,127
32118,note_on,28,0,0,,7,,,79,127
32131,note_off,13,0,0,,5,,,77,127
32159,note_on,28,0,0,,5,,,77,127
32172,note_off,13,0,0,,7,,,79,127
32199,note_off,27,0,0,,7,,,55,127
32199,note_off,0,0,0,,2,,,74,127
32199,note_off,0,0,0,,12,,,83,127
32200,note_on,1,0,0,,3,,,63,127
32200,note_on,0,0,0,,3,,,75,127
32200,note_on,0,0,0,,0,,,84,127
32200,note_on,0,0,0,,8,,,80,127
32213,note_off,13,0,0,,5,,,77,127
32241,note_on,28,0,0,,7,,,79,127
32254,note_off,13,0,0,,8,,,80,127
32282,note_on,28,0,0,,8,,,80,127
32295,note_off,13,0,0,,7,,,79,127
32323,note_on,28,0,0,,7,,,79,127
32336,note_off,13,0,0,,8,,,80,127
32363,note_off,27,0,0,,3,,,63,127
32364,note_on,1,0,0,,0,,,60,127
32364,note_on,0,0,0,,8,,,80,127
32377,note_off,13,0,0,,7,,,79,127
32405,note_on,28,0,0,,7,,,79,127
32418,note_off,13,0,0,,8,,,80,127
32446,note_on,28,0,0,,8,,,80,127
32459,note_off,13,0,0,,7,,,79,127
32487,note_on,28,0,0,,7,,,79,127
32500,note_off,13,0,0,,8,,,80,127
32527,note_off,27,0,0,,0,,,60,127
32528,note_on,1,0,0,,7,,,55,127
32528,note_on,0,0,0,,8,,,80,127
32541,note_off,13,0,0,,7,,,79,127
32569,note_on,28,0,0,,7,,,79,127
32582,note_off,13,0,0,,8,,,80,127
32610,note_on,28,0,0,,8,,,80,127
32623,note_off,13,0,0,,7,,,79,127
32651,note_on,28,0,0,,7,,,79,127
32664,note_off,13,0,0,,8,,,80,127
32691,note_off,27,0,0,,7,,,55,127
32691,note_off,0,0,0,,0,,,84,127
32691,note_off,0,0,0,,3,,,75,127
32692,note_on,1,0,0,,5,,,53,127
32856,note_off,164,0,0,,7,,,79,127
32857,note_on,1,0,0,,5,,,77,127
33021,note_off,164,0,0,,5,,,77,127
33022,note_on,1,0,0,,3,,,75,127
33186,note_off,164,0,0,,3,,,75,127
33186,note_off,0,0,0,,5,,,53,127
33187,note_on,1,0,0,,7,,,43,127
33187,note_on,0,0,0,,7,,,55,127
33187,note_on,0,0,0,,3,,,75,127
33228,note_on,41,0,0,,2,,,74,127
33241,note_off,13,0,0,,3,,,75,127
33269,note_on,28,0,0,,3,,,75,127
33282,note_off,13,0,0,,2,,,74,127
33310,note_on,28,0,0,,2,,,74,127
33323,note_off,13,0,0,,3,,,75,127
33351,note_on,28,0,0,,0,,,72,127
33364,note_off,13,0,0,,2,,,74,127
33515,note_off,151,0,0,,0,,,72,127
33516,note_on,1,0,0,,12,,,71,127
33680,note_off,164,0,0,,12,,,71,127
33680,note_off,0,0,0,,7,,,55,127
33680,note_off,0,0,0,,7,,,43,127
33681,note_on,1,0,0,,0,,,48,127
33681,note_on,0,0,0,,0,,,72,127
34174,note_off,493,0,0,,0,,,72,127
34174,note_off,0,0,0,,0,,,48,127
34175,note_on,1,0,0,,4,,,64,127
34175,note_on,0,0,0,,10,,,81,127
34216,note_on,41,0,0,,7,,,79,127
34229,note_off,13,0,0,,10,,,81,127
34257,note_on,28,0,0,,10,,,81,127
34270,note_off,13,0,0,,7,,,79,127
34298,note_on,28,0,0,,7,,,79,127
34311,note_off,13,0,0,,10,,,81,127
34338,note_off,27,0,0,,4,,,64,127
34339,note_on,1,0,0,,0,,,60,127
34339,note_on,0,0,0,,5,,,77,127
34352,note_off,13,0,0,,7,,,79,127
34503,note_off,151,0,0,,5,,,77,127
34503,note_off,0,0,0,,0,,,60,127
34504,note_on,1,0,0,,4,,,52,127
34504,note_on,0,0,0,,7,,,79,127
34668,note_off,164,0,0,,7,,,79,127
34668,note_off,0,0,0,,4,,,52,127
34669,note_on,1,0,0,,5,,,65,127
34669,note_on,0,0,0,,8,,,80,127
34833,note_off,164,0,0,,5,,,65,127
34834,note_on,1,0,0,,2,,,62,127
34998,note_off,164,0,0,,2,,,62,127
34998,note_off,0,0,0,,8,,,80,127
34999,note_on,1,0,0,,5,,,53,127
34999,note_on,0,0,0,,10,,,81,127
35163,note_off,164,0,0,,10,,,81,127
35163,note_off,0,0,0,,5,,,53,127
35164,note_on,1,0,0,,2,,,62,127
35164,note_on,0,0,0,,7,,,79,127
35205,note_on,41,0,0,,5,,,77,127
35218,note_off,13,0,0,,7,,,79,127
35246,note_on,28,0,0,,7,,,79,127
35259,note_off,13,0,0,,5,,,77,127
35287,note_on,28,0,0,,5,,,77,127
35300,note_off,13,0,0,,7,,,79,127
35327,note_off,27,0,0,,2,,,62,127
35328,note_on,1,0,0,,12,,,59,127
35328,note_on,0,0,0,,4,,,76,127
35341,note_off,13,0,0,,5,,,77,127
35492,note_off,151,0,0,,4,,,76,127
35492,note_off,0,0,0,,12,,,59,127
35493,note_on,1,0,0,,2,,,50,127
35493,note_on,0,0,0,,5,,,77,127
35657,note_off,164,0,0,,5,,,77,127
35657,note_off,0,0,0,,2,,,50,127
35658,note_on,1,0,0,,4,,,64,127
35658,note_on,0,0,0,,6,,,78,127
35822,note_off,164,0,0,,4,,,64,127
35823,note_on,1,0,0,,0,,,60,127
35987,note_off,164,0,0,,0,,,60,127
35987,note_off,0,0,0,,6,,,78,127
35988,note_on,1,0,0,,4,,,52,127
35988,note_on,0,0,0,,7,,,79,127
36152,note_off,164,0,0,,7,,,79,127
36152,note_off,0,0,0,,4,,,52,127
36153,note_on,1,0,0,,0,,,60,127
36153,note_on,0,0,0,,5,,,77,127
36194,note_on,41,0,0,,4,,,76,127
36207,note_off,13,0,0,,5,,,77,127
36235,note_on,28,0,0,,5,,,77,127
36248,note_off,13,0,0,,4,,,76,127
36276,note_on,28,0,0,,4,,,76,127
36289,note_off,13,0,0,,5,,,77,127
36316,note_off,27,0,0,,0,,,60,127
36317,note_on,1,0,0,,7,,,55,127
36317,note_on,0,0,0,,2,,,74,127
36330,note_off,13,0,0,,4,,,76,127
36481,note_off,151,0,0,,2,,,74,127
36481,note_off,0,0,0,,7,,,55,127
36482,note_on,1,0,0,,0,,,48,127
36482,note_on,0,0,0,,4,,,76,127
36646,note_off,164,0,0,,4,,,76,127
36646,note_off,0,0,0,,0,,,48,127
36647,note_on,1,0,0,,5,,,41,127
36647,note_on,0,0,0,,5,,,53,127
36647,note_on,0,0,0,,2,,,74,127
36811,note_off,164,0,0,,2,,,74,127
36812,note_on,1,0,0,,5,,,77,127
36812,note_on,0,0,0,,10,,,81,127
36976,note_off,164,0,0,,10,,,81,127
36976,note_off,0,0,0,,5,,,77,127
36977,note_on,1,0,0,,4,,,76,127
36977,note_on,0,0,0,,7,,,79,127
37141,note_off,164,0,0,,7,,,79,127
37141,note_off,0,0,0,,4,,,76,127
37141,note_off,0,0,0,,5,,,53,127
37141,note_off,0,0,0,,5,,,41,127
37142,note_on,1,0,0,,7,,,55,127
37142,note_on,0,0,0,,7,,,43,127
37142,note_on,0,0,0,,5,,,77,127
37142,note_on,0,0,0,,2,,,74,127
37306,note_off,164,0,0,,2,,,74,127
37306,note_off,0,0,0,,5,,,77,127
37307,note_on,1,0,0,,4,,,76,127
37307,note_on,0,0,0,,0,,,72,127
37471,note_off,164,0,0,,0,,,72,127
37471,note_off,0,0,0,,4,,,76,127
37472,note_on,1,0,0,,2,,,74,127
37472,note_on,0,0,0,,12,,,71,127
37636,note_off,164,0,0,,12,,,71,127
37636,note_off,0,0,0,,2,,,74,127
37636,note_off,0,0,0,,7,,,43,127
37636,note_off,0,0,0,,7,,,55,127
37637,note_on,1,0,0,,0,,,48,127
37637,note_on,0,0,0,,2,,,74,127
37685,note_on,48,0,0,,0,,,72,127
37691,note_off,6,0,0,,2,,,74,127
37735,note_on,44,0,0,,2,,,74,127
37739,note_off,4,0,0,,0,,,72,127
37784,note_on,45,0,0,,0,,,72,127
37789,note_off,5,0,0,,2,,,74,127
37834,note_on,45,0,0,,2,,,74,127
37838,note_off,4,0,0,,0,,,72,127
37884,note_on,46,0,0,,0,,,72,127
37887,note_off,3,0,0,,2,,,74,127
37932,note_on,45,0,0,,2,,,74,127
37938,note_off,6,0,0,,0,,,72,127
37982,note_on,44,0,0,,0,,,72,127
37986,note_off,4,0,0,,2,,,74,127
38031,note_on,45,0,0,,2,,,74,127
38036,note_off,5,0,0,,0,,,72,127
38081,note_on,45,0,0,,0,,,72,127
38085,note_off,4,0,0,,2,,,74,127
38130,note_off,45,0,0,,0,,,48,127
38131,note_on,1,0,0,,4,,,64,127
38131,note_on,0,0,0,,10,,,81,127
38134,note_off,3,0,0,,0,,,72,127
38172,note_on,38,0,0,,7,,,79,127
38185,note_off,13,0,0,,10,,,81,127
38213,note_on,28,0,0,,10,,,81,127
38226,note_off,13,0,0,,7,,,79,127
38254,note_on,28,0,0,,7,,,79,127
38267,note_off,13,0,0,,10,,,81,127
38294,note_off,27,0,0,,4,,,64,127
38295,note_on,1,0,0,,0,,,60,127
38295,note_on,0,0,0,,5,,,77,127
38308,note_off,13,0,0,,7,,,79,127
38459,note_off,151,0,0,,5,,,77,127
38459,note_off,0,0,0,,0,,,60,127
38460,note_on,1,0,0,,4,,,52,127
38460,note_on,0,0,0,,7,,,79,127
38624,note_off,164,0,0,,7,,,79,127
38624,note_off,0,0,0,,4,,,52,127
38625,note_on,1,0,0,,5,,,65,127
38625,note_on,0,0,0,,8,,,80,127
38789,note_off,164,0,0,,5,,,65,127
38790,note_on,1,0,0,,2,,,62,127
38954,note_off,164,0,0,,2,,,62,127
38954,note_off,0,0,0,,8,,,80,127
38955,note_on,1,0,0,,5,,,53,127
38955,note_on,0,0,0,,10,,,81,127
39119,note_off,164,0,0,,10,,,81,127
39119,note_off,0,0,0,,5,,,53,127
39120,note_on,1,0,0,,2,,,62,127
39120,note_on,0,0,0,,7,,,79,127
39161,note_on,41,0,0,,5,,,77,127
39174,note_off,13,0,0,,7,,,79,127
39202,note_on,28,0,0,,7,,,79,127
39215,note_off,13,0,0,,5,,,77,127
39243,note_on,28,0,0,,5,,,77,127
39256,note_off,13,0,0,,7,,,79,127
39283,note_off,27,0,0,,2,,,62,127
39284,note_on,1,0,0,,12,,,59,127
39284,note_on,0,0,0,,4,,,76,127
39297,note_off,13,0,0,,5,,,77,127
39448,note_off,151,0,0,,4,,,76,127
39448,note_off,0,0,0,,12,,,59,127
39449,note_on,1,0,0,,2,,,50,127
39449,note_on,0,0,0,,5,,,77,127
39613,note_off,164,0,0,,5,,,77,127
39613,note_off,0,0,0,,2,,,50,127
39614,note_on,1,0,0,,4,,,64,127
39614,note_on,0,0,0,,6,,,78,127
39778,note_off,164,0,0,,4,,,64,127
39779,note_on,1,0,0,,0,,,60,127
39943,note_off,164,0,0,,0,,,60,127
39943,note_off,0,0,0,,6,,,78,127
39944,note_on,1,0,0,,4,,,52,127
39944,note_on,0,0,0,,7,,,79,127
40108,note_off,164,0,0,,7,,,79,127
40108,note_off,0,0,0,,4,,,52,127
40109,note_on,1,0,0,,0,,,60,127
40109,note_on,0,0,0,,5,,,77,127
40150,note_on,41,0,0,,4,,,76,127
40163,note_off,13,0,0,,5,,,77,127
40191,note_on,28,0,0,,5,,,77,127
40204,note_off,13,0,0,,4,,,76,127
40232,note_on,28,0,0,,4,,,76,127
40245,note_off,13,0,0,,5,,,77,127
40272,note_off,27,0,0,,0,,,60,127
40273,note_on,1,0,0,,7,,,55,127
40273,note_on,0,0,0,,2,,,74,127
40286,note_off,13,0,0,,4,,,76,127
40437,note_off,151,0,0,,2,,,74,127
40437,note_off,0,0,0,,7,,,55,127
40438,note_on,1,0,0,,0,,,48,127
40438,note_on,0,0,0,,4,,,76,127
40602,note_off,164,0,0,,4,,,76,127
40602,note_off,0,0,0,,0,,,48,127
40603,note_on,1,0,0,,5,,,41,127
40603,note_on,0,0,0,,5,,,53,127
40603,note_on,0,0,0,,2,,,74,127
40767,note_off,164,0,0,,2,,,74,127
40768,note_on,1,0,0,,10,,,81,127
40768,note_on,0,0,0,,5,,,77,127
40932,note_off,164,0,0,,5,,,77,127
40932,note_off,0,0,0,,10,,,81,127
40933,note_on,1,0,0,,4,,,76,127
40933,note_on,0,0,0,,7,,,79,127
41097,note_off,164,0,0,,7,,,79,127
41097,note_off,0,0,0,,4,,,76,127
41097,note_off,0,0,0,,5,,,53,127
41097,note_off,0,0,0,,5,,,41,127
41098,note_on,1,0,0,,7,,,43,127
41098,note_on,0,0,0,,7,,,55,127
41098,note_on,0,0,0,,5,,,77,127
41098,note_on,0,0,0,,2,,,74,127
41262,note_off,164,0,0,,2,,,74,127
41262,note_off,0,0,0,,5,,,77,127
41263,note_on,1,0,0,,4,,,76,127
41263,note_on,0,0,0,,0,,,72,127
41427,note_off,164,0,0,,0,,,72,127
41427,note_off,0,0,0,,4,,,76,127
41428,note_on,1,0,0,,2,,,74,127
41428,note_on,0,0,0,,12,,,71,127
41592,note_off,164,0,0,,12,,,71,127
41592,note_off,0,0,0,,2,,,74,127
41592,note_off,0,0,0,,7,,,55,127
41592,note_off,0,0,0,,7,,,43,127
41593,note_on,1,0,0,,0,,,48,127
41593,note_on,0,0,0,,0,,,60,127
41593,note_on,0,0,0,,0,,,72,127
41758,note_on,165,0,0,,0,,,84,127
41840,note_off,82,0,0,,0,,,72,127
41921,note_off,81,0,0,,0,,,84,127
41922,note_on,1,0,0,,7,,,79,127
42086,note_off,164,0,0,,7,,,79,127
42087,note_on,1,0,0,,4,,,76,127
42251,note_off,164,0,0,,4,,,76,127
42252,note_on,1,0,0,,0,,,72,127
42416,note_off,164,0,0,,0,,,72,127
42417,note_off,1,0,0,,0,,,60,127
42417,note_off,0,0,0,,0,,,48,127
42417,note_on,0,0,0,,7,,,67,127
42581,note_off,164,0,0,,7,,,67,127
42582,note_on,1,0,0,,5,,,53,127
42582,note_on,0,0,0,,5,,,41,127
42582,note_on,0,0,0,,10,,,69,127
42663,note_off,81,0,0,,10,,,69,127
42664,note_on,1,0,0,,7,,,79,127
42745,note_off,81,0,0,,7,,,79,127
42746,note_on,1,0,0,,5,,,77,127
43074,note_off,328,0,0,,5,,,41,127
43074,note_off,0,0,0,,5,,,53,127
43075,note_on,1,0,0,,7,,,43,127
43075,note_on,0,0,0,,7,,,55,127
43568,note_off,493,0,0,,7,,,55,127
43568,note_off,0,0,0,,7,,,43,127
43568,note_off,0,0,0,,5,,,77,127
43569,note_on,1,0,0,,0,,,60,127
43569,note_on,0,0,0,,0,,,48,127
43569,note_on,0,0,0,,4,,,76,127
43734,note_on,165,0,0,,0,,,84,127
43816,note_off,82,0,0,,4,,,76,127
43897,note_off,81,0,0,,0,,,84,127
43898,note_on,1,0,0,,7,,,79,127
44062,note_off,164,0,0,,7,,,79,127
44063,note_on,1,0,0,,4,,,76,127
44227,note_off,164,0,0,,4,,,76,127
44228,note_on,1,0,0,,0,,,72,127
44392,note_off,164,0,0,,0,,,72,127
44393,note_on,1,0,0,,7,,,67,127
44470,note_off,77,0,0,,0,,,48,127
44470,note_off,0,0,0,,0,,,60,127
44557,note_off,87,0,0,,7,,,67,127
44558,note_on,1,0,0,,5,,,41,127
44558,note_on,0,0,0,,5,,,53,127
44558,note_on,0,0,0,,10,,,69,127
44639,note_off,81,0,0,,10,,,69,127
44640,note_on,1,0,0,,4,,,76,127
44721,note_off,81,0,0,,4,,,76,127
44722,note_on,1,0,0,,2,,,74,127
45050,note_off,328,0,0,,5,,,53,127
45050,note_off,0,0,0,,5,,,41,127
45051,note_on,1,0,0,,7,,,55,127
45051,note_on,0,0,0,,7,,,43,127
45544,note_off,493,0,0,,7,,,43,127
45544,note_off,0,0,0,,7,,,55,127
45544,note_off,0,0,0,,2,,,74,127
45545,note_on,1,0,0,,0,,,48,127
45545,note_on,0,0,0,,0,,,60,127
45545,note_on,0,0,0,,0,,,72,127
45710,note_on,165,0,0,,0,,,84,127
45792,note_off,82,0,0,,0,,,72,127
45873,note_off,81,0,0,,0,,,84,127
45874,note_on,1,0,0,,7,,,79,127
46038,note_off,164,0,0,,7,,,79,127
46039,note_on,1,0,0,,4,,,76,127
46203,note_off,164,0,0,,4,,,76,127
46204,note_on,1,0,0,,0,,,72,127
46368,note_off,164,0,0,,0,,,72,127
46369,note_on,1,0,0,,7,,,67,127
46489,note_off,120,0,0,,0,,,60,127
46489,note_off,0,0,0,,0,,,48,127
46533,note_off,44,0,0,,7,,,67,127
46534,note_on,1,0,0,,5,,,41,127
46534,note_on,0,0,0,,5,,,53,127
46534,note_on,0,0,0,,10,,,69,127
46615,note_off,81,0,0,,10,,,69,127
46616,note_on,1,0,0,,7,,,79,127
46697,note_off,81,0,0,,7,,,79,127
46698,note_on,1,0,0,,5,,,77,127
47026,note_off,328,0,0,,5,,,53,127
47026,note_off,0,0,0,,5,,,41,127
47027,note_on,1,0,0,,7,,,43,127
47027,note_on,0,0,0,,7,,,55,127
47520,note_off,493,0,0,,7,,,55,127
47520,note_off,0,0,0,,7,,,43,127
47520,note_off,0,0,0,,5,,,77,127
47521,note_on,1,0,0,,0,,,48,127
47521,note_on,0,0,0,,0,,,60,127
47521,note_on,0,0,0,,4,,,76,127
47686,note_on,165,0,0,,0,,,84,127
47768,note_off,82,0,0,,4,,,76,127
47849,note_off,81,0,0,,0,,,84,127
47850,note_on,1,0,0,,7,,,79,127
48014,note_off,164,0,0,,7,,,79,127
48015,note_on,1,0,0,,4,,,76,127
48179,note_off,164,0,0,,4,,,76,127
48180,note_on,1,0,0,,0,,,72,127
48344,note_off,164,0,0,,0,,,72,127
48345,note_on,1,0,0,,7,,,67,127
48465,note_off,120,0,0,,0,,,60,127
48465,note_off,0,0,0,,0,,,48,127
48509,note_off,44,0,0,,7,,,67,127
48510,note_on,1,0,0,,5,,,41,127
48510,note_on,0,0,0,,5,,,53,127
48510,note_on,0,0,0,,10,,,69,127
48591,note_off,81,0,0,,10,,,69,127
48592,note_on,1,0,0,,4,,,76,127
48673,note_off,81,0,0,,4,,,76,127
48674,note_on,1,0,0,,2,,,74,127
49002,note_off,328,0,0,,5,,,53,127
49002,note_off,0,0,0,,5,,,41,127
49003,note_on,1,0,0,,7,,,43,127
49003,note_on,0,0,0,,7,,,55,127
49496,note_off,493,0,0,,7,,,55,127
49496,note_off,0,0,0,,7,,,43,127
49496,note_off,0,0,0,,2,,,74,127
49497,note_on,1,0,0,,0,,,36,127
49497,note_on,0,0,0,,0,,,48,127
49497,note_on,0,0,0,,2,,,74,127
49595,note_on,98,0,0,,0,,,72,127
49600,note_off,5,0,0,,2,,,74,127
49644,note_on,44,0,0,,2,,,74,127
49649,note_off,5,0,0,,0,,,72,127
49694,note_on,45,0,0,,0,,,72,127
49698,note_off,4,0,0,,2,,,74,127
49744,note_on,46,0,0,,2,,,74,127
49747,note_off,3,0,0,,0,,,72,127
49792,note_on,45,0,0,,0,,,72,127
49798,note_off,6,0,0,,2,,,74,127
49842,note_on,44,0,0,,2,,,74,127
49846,note_off,4,0,0,,0,,,72,127
49891,note_on,45,0,0,,0,,,72,127
49896,note_off,5,0,0,,2,,,74,127
49941,note_on,45,0,0,,2,,,74,127
49945,note_off,4,0,0,,0,,,72,127
49991,note_on,46,0,0,,0,,,72,127
49994,note_off,3,0,0,,2,,,74,127
50039,note_on,45,0,0,,2,,,74,127
50045,note_off,6,0,0,,0,,,72,127
50089,note_on,44,0,0,,0,,,72,127
50093,note_off,4,0,0,,2,,,74,127
50138,note_on,45,0,0,,2,,,74,127
50143,note_off,5,0,0,,0,,,72,127
50188,note_on,45,0,0,,0,,,72,127
50192,note_off,4,0,0,,2,,,74,127
50238,note_on,46,0,0,,2,,,74,127
50241,note_off,3,0,0,,0,,,72,127
50286,note_on,45,0,0,,0,,,72,127
50292,note_off,6,0,0,,2,,,74,127
50336,note_on,44,0,0,,2,,,74,127
50340,note_off,4,0,0,,0,,,72,127
50385,note_on,45,0,0,,0,,,72,127
50390,note_off,5,0,0,,2,,,74,127
50435,note_on,45,0,0,,2,,,74,127
50439,note_off,4,0,0,,0,,,72,127
50484,note_off,45,0,0,,0,,,48,127
50484,note_off,0,0,0,,0,,,36,127
50485,note_on,1,0,0,,0,,,48,127
50485,note_on,0,0,0,,0,,,72,127
50488,note_off,3,0,0,,2,,,74,127
50649,note_on,161,0,0,,7,,,67,127
50731,note_off,82,0,0,,0,,,72,127
50812,note_off,81,0,0,,7,,,67,127
50813,note_on,1,0,0,,4,,,64,127
50977,note_off,164,0,0,,4,,,64,127
50978,note_on,1,0,0,,0,,,60,127
51142,note_off,164,0,0,,0,,,60,127
51142,note_off,0,0,0,,0,,,48,127
51143,note_on,1,0,0,,4,,,64,127
51307,note_off,164,0,0,,4,,,64,127
51308,note_on,1,0,0,,10,,,57,127
51308,note_on,0,0,0,,1,,,73,127
51472,note_off,164,0,0,,1,,,73,127
51472,note_off,0,0,0,,10,,,57,127
51473,note_on,1,0,0,,11,,,58,127
51473,note_on,0,0,0,,2,,,74,127
51637,note_off,164,0,0,,11,,,58,127
51638,note_on,1,0,0,,5,,,53,127
51802,note_off,164,0,0,,5,,,53,127
51803,note_on,1,0,0,,2,,,50,127
51967,note_off,164,0,0,,2,,,50,127
51968,note_on,1,0,0,,11,,,46,127
52132,note_off,164,0,0,,11,,,46,127
52133,note_on,1,0,0,,2,,,50,127
52288,note_off,155,0,0,,2,,,74,127
52297,note_off,9,0,0,,2,,,50,127
52298,note_on,1,0,0,,12,,,59,127
52298,note_on,0,0,0,,2,,,74,127
52462,note_off,164,0,0,,2,,,74,127
52462,note_off,0,0,0,,12,,,59,127
52463,note_on,1,0,0,,0,,,60,127
52463,note_on,0,0,0,,4,,,76,127
52628,note_on,165,0,0,,0,,,72,127
52710,note_off,82,0,0,,4,,,76,127
52791,note_off,81,0,0,,0,,,72,127
52792,note_on,1,0,0,,7,,,67,127
52956,note_off,164,0,0,,7,,,67,127
52957,note_on,1,0,0,,4,,,64,127
53121,note_off,164,0,0,,4,,,64,127
53121,note_off,0,0,0,,0,,,60,127
53122,note_on,1,0,0,,7,,,67,127
53286,note_off,164,0,0,,7,,,67,127
53287,note_on,1,0,0,,1,,,61,127
53287,note_on,0,0,0,,4,,,76,127
53451,note_off,164,0,0,,4,,,76,127
53451,note_off,0,0,0,,1,,,61,127
53452,note_on,1,0,0,,2,,,62,127
53452,note_on,0,0,0,,5,,,77,127
53616,note_off,164,0,0,,2,,,62,127
53617,note_on,1,0,0,,11,,,58,127
53781,note_off,164,0,0,,11,,,58,127
53782,note_on,1,0,0,,5,,,53,127
53946,note_off,164,0,0,,5,,,53,127
53947,note_on,1,0,0,,2,,,50,127
54111,note_off,164,0,0,,2,,,50,127
54111,note_off,0,0,0,,5,,,77,127
54112,note_on,1,0,0,,5,,,53,127
54276,note_off,164,0,0,,5,,,53,127
54277,note_on,1,0,0,,2,,,62,127
54277,note_on,0,0,0,,6,,,78,127
54441,note_off,164,0,0,,6,,,78,127
54441,note_off,0,0,0,,2,,,62,127
54442,note_on,1,0,0,,4,,,64,127
54442,note_on,0,0,0,,7,,,79,127
54607,note_on,165,0,0,,4,,,76,127
54689,note_off,82,0,0,,7,,,79,127
54770,note_off,81,0,0,,4,,,76,127
54771,note_on,1,0,0,,0,,,72,127
54935,note_off,164,0,0,,0,,,72,127
54936,note_on,1,0,0,,7,,,67,127
55100,note_off,164,0,0,,7,,,67,127
55100,note_off,0,0,0,,4,,,64,127
55101,note_on,1,0,0,,0,,,72,127
55265,note_off,164,0,0,,0,,,72,127
55266,note_on,1,0,0,,4,,,64,127
55266,note_on,0,0,0,,8,,,80,127
55430,note_off,164,0,0,,8,,,80,127
55430,note_off,0,0,0,,4,,,64,127
55431,note_on,1,0,0,,5,,,65,127
55431,note_on,0,0,0,,10,,,81,127
55595,note_off,164,0,0,,5,,,65,127
55596,note_on,1,0,0,,0,,,60,127
55760,note_off,164,0,0,,0,,,60,127
55761,note_on,1,0,0,,10,,,57,127
55925,note_off,164,0,0,,10,,,57,127
55926,note_on,1,0,0,,5,,,53,127
56090,note_off,164,0,0,,5,,,53,127
56090,note_off,0,0,0,,10,,,81,127
56091,note_on,1,0,0,,10,,,57,127
56255,note_off,164,0,0,,10,,,57,127
56256,note_on,1,0,0,,6,,,66,127
56256,note_on,0,0,0,,10,,,81,127
56420,note_off,164,0,0,,10,,,81,127
56420,note_off,0,0,0,,6,,,66,127
56421,note_on,1,0,0,,7,,,67,127
56421,note_on,0,0,0,,0,,,84,127
56462,note_on,41,0,0,,11,,,82,127
56475,note_off,13,0,0,,0,,,84,127
56503,note_on,28,0,0,,0,,,84,127
56516,note_off,13,0,0,,11,,,82,127
56544,note_on,28,0,0,,11,,,82,127
56557,note_off,13,0,0,,0,,,84,127
56585,note_on,28,0,0,,10,,,81,127
56598,note_off,13,0,0,,11,,,82,127
56749,note_off,151,0,0,,10,,,81,127
56750,note_on,1,0,0,,7,,,79,127
56914,note_off,164,0,0,,7,,,79,127
56914,note_off,0,0,0,,7,,,67,127
56915,note_on,1,0,0,,11,,,58,127
56915,note_on,0,0,0,,7,,,79,127
56956,note_on,41,0,0,,5,,,77,127
56969,note_off,13,0,0,,7,,,79,127
56997,note_on,28,0,0,,7,,,79,127
57010,note_off,13,0,0,,5,,,77,127
57038,note_on,28,0,0,,5,,,77,127
57051,note_off,13,0,0,,7,,,79,127
57079,note_on,28,0,0,,4,,,76,127
57092,note_off,13,0,0,,5,,,77,127
57243,note_off,151,0,0,,4,,,76,127
57244,note_on,1,0,0,,2,,,74,127
57408,note_off,164,0,0,,2,,,74,127
57408,note_off,0,0,0,,11,,,58,127
57409,note_on,1,0,0,,10,,,57,127
57409,note_on,0,0,0,,2,,,74,127
57450,note_on,41,0,0,,1,,,73,127
57463,note_off,13,0,0,,2,,,74,127
57491,note_on,28,0,0,,2,,,74,127
57504,note_off,13,0,0,,1,,,73,127
57532,note_on,28,0,0,,1,,,73,127
57545,note_off,13,0,0,,2,,,74,127
57573,note_on,28,0,0,,12,,,71,127
57586,note_off,13,0,0,,1,,,73,127
57737,note_off,151,0,0,,12,,,71,127
57738,note_on,1,0,0,,10,,,69,127
57902,note_off,164,0,0,,10,,,69,127
57902,note_off,0,0,0,,10,,,57,127
57903,note_on,1,0,0,,5,,,65,127
58067,note_off,164,0,0,,5,,,65,127
58068,note_on,1,0,0,,2,,,62,127
58232,note_off,164,0,0,,2,,,62,127
58233,note_on,1,0,0,,10,,,57,127
58397,note_off,164,0,0,,10,,,57,127
58398,note_on,1,0,0,,7,,,67,127
58562,note_off,164,0,0,,7,,,67,127
58563,note_on,1,0,0,,4,,,64,127
58727,note_off,164,0,0,,4,,,64,127
58728,note_on,1,0,0,,10,,,57,127
58892,note_off,164,0,0,,10,,,57,127
58893,note_on,1,0,0,,5,,,65,127
59057,note_off,164,0,0,,5,,,65,127
59058,note_on,1,0,0,,2,,,62,127
59222,note_off,164,0,0,,2,,,62,127
59223,note_on,1,0,0,,10,,,57,127
59387,note_off,164,0,0,,10,,,57,127
59388,note_on,1,0,0,,7,,,67,127
59388,note_on,0,0,0,,4,,,76,127
59388,note_on,0,0,0,,1,,,85,127
59388,note_on,0,0,0,,10,,,81,127
59429,note_on,41,0,0,,7,,,79,127
59442,note_off,13,0,0,,10,,,81,127
59470,note_on,28,0,0,,10,,,81,127
59483,note_off,13,0,0,,7,,,79,127
59511,note_on,28,0,0,,7,,,79,127
59524,note_off,13,0,0,,10,,,81,127
59551,note_off,27,0,0,,7,,,67,127
59552,note_on,1,0,0,,4,,,64,127
59552,note_on,0,0,0,,10,,,81,127
59565,note_off,13,0,0,,7,,,79,127
59593,note_on,28,0,0,,7,,,79,127
59606,note_off,13,0,0,,10,,,81,127
59634,note_on,28,0,0,,10,,,81,127
59647,note_off,13,0,0,,7,,,79,127
59675,note_on,28,0,0,,7,,,79,127
59688,note_off,13,0,0,,10,,,81,127
59715,note_off,27,0,0,,4,,,64,127
59716,note_on,1,0,0,,10,,,57,127
59716,note_on,0,0,0,,10,,,81,127
59729,note_off,13,0,0,,7,,,79,127
59757,note_on,28,0,0,,7,,,79,127
59770,note_off,13,0,0,,10,,,81,127
59798,note_on,28,0,0,,10,,,81,127
59811,note_off,13,0,0,,7,,,79,127
59839,note_on,28,0,0,,7,,,79,127
59852,note_off,13,0,0,,10,,,81,127
59879,note_off,27,0,0,,10,,,57,127
59879,note_off,0,0,0,,1,,,85,127
59879,note_off,0,0,0,,4,,,76,127
59880,note_on,1,0,0,,5,,,65,127
59880,note_on,0,0,0,,2,,,86,127
59880,note_on,0,0,0,,5,,,77,127
59880,note_on,0,0,0,,11,,,82,127
59893,note_off,13,0,0,,7,,,79,127
59921,note_on,28,0,0,,10,,,81,127
59934,note_off,13,0,0,,11,,,82,127
59962,note_on,28,0,0,,11,,,82,127
59975,note_off,13,0,0,,10,,,81,127
60003,note_on,28,0,0,,10,,,81,127
60016,note_off,13,0,0,,11,,,82,127
60043,note_off,27,0,0,,5,,,65,127
60044,note_on,1,0,0,,2,,,62,127
60044,note_on,0,0,0,,11,,,82,127
60057,note_off,13,0,0,,10,,,81,127
60085,note_on,28,0,0,,10,,,81,127
60098,note_off,13,0,0,,11,,,82,127
60126,note_on,28,0,0,,11,,,82,127
60139,note_off,13,0,0,,10,,,81,127
60167,note_on,28,0,0,,10,,,81,127
60180,note_off,13,0,0,,11,,,82,127
60207,note_off,27,0,0,,2,,,62,127
60208,note_on,1,0,0,,10,,,57,127
60208,note_on,0,0,0,,11,,,82,127
60221,note_off,13,0,0,,10,,,81,127
60249,note_on,28,0,0,,10,,,81,127
60262,note_off,13,0,0,,11,,,82,127
60290,note_on,28,0,0,,11,,,82,127
60303,note_off,13,0,0,,10,,,81,127
60331,note_on,28,0,0,,10,,,81,127
60344,note_off,13,0,0,,11,,,82,127
60371,note_off,27,0,0,,10,,,57,127
60371,note_off,0,0,0,,5,,,77,127
60371,note_off,0,0,0,,2,,,86,127
60372,note_on,1,0,0,,7,,,67,127
60412,note_off,40,0,0,,10,,,81,127
60535,note_off,123,0,0,,7,,,67,127
60536,note_on,1,0,0,,4,,,64,127
60700,note_off,164,0,0,,4,,,64,127
60701,note_on,1,0,0,,10,,,57,127
60865,note_off,164,0,0,,10,,,57,127
60866,note_on,1,0,0,,5,,,65,127
61030,note_off,164,0,0,,5,,,65,127
61031,note_on,1,0,0,,2,,,62,127
61195,note_off,164,0,0,,2,,,62,127
61196,note_on,1,0,0,,10,,,57,127
61360,note_off,164,0,0,,10,,,57,127
61361,note_on,1,0,0,,7,,,67,127
61361,note_on,0,0,0,,1,,,85,127
61361,note_on,0,0,0,,4,,,76,127
61361,note_on,0,0,0,,10,,,81,127
61402,note_on,41,0,0,,7,,,79,127
61415,note_off,13,0,0,,10,,,81,127
61443,note_on,28,0,0,,10,,,81,127
61456,note_off,13,0,0,,7,,,79,127
61484,note_on,28,0,0,,7,,,79,127
61497,note_off,13,0,0,,10,,,81,127
61524,note_off,27,0,0,,7,,,67,127
61525,note_on,1,0,0,,4,,,64,127
61525,note_on,0,0,0,,10,,,81,127
61538,note_off,13,0,0,,7,,,79,127
61566,note_on,28,0,0,,7,,,79,127
61579,note_off,13,0,0,,10,,,81,127
61607,note_on,28,0,0,,10,,,81,127
61620,note_off,13,0,0,,7,,,79,127
61648,note_on,28,0,0,,7,,,79,127
61661,note_off,13,0,0,,10,,,81,127
61688,note_off,27,0,0,,4,,,64,127
61689,note_on,1,0,0,,10,,,57,127
61689,note_on,0,0,0,,10,,,81,127
61702,note_off,13,0,0,,7,,,79,127
61730,note_on,28,0,0,,7,,,79,127
61743,note_off,13,0,0,,10,,,81,127
61771,note_on,28,0,0,,10,,,81,127
61784,note_off,13,0,0,,7,,,79,127
61812,note_on,28,0,0,,7,,,79,127
61825,note_off,13,0,0,,10,,,81,127
61852,note_off,27,0,0,,10,,,57,127
61852,note_off,0,0,0,,4,,,76,127
61852,note_off,0,0,0,,1,,,85,127
61853,note_on,1,0,0,,5,,,65,127
61853,note_on,0,0,0,,5,,,77,127
61853,note_on,0,0,0,,2,,,86,127
61853,note_on,0,0,0,,11,,,82,127
61866,note_off,13,0,0,,7,,,79,127
61894,note_on,28,0,0,,10,,,81,127
61907,note_off,13,0,0,,11,,,82,127
61935,note_on,28,0,0,,11,,,82,127
61948,note_off,13,0,0,,10,,,81,127
61976,note_on,28,0,0,,10,,,81,127
61989,note_off,13,0,0,,11,,,82,127
62016,note_off,27,0,0,,5,,,65,127
62017,note_on,1,0,0,,2,,,62,127
62017,note_on,0,0,0,,11,,,82,127
62030,note_off,13,0,0,,10,,,81,127
62058,note_on,28,0,0,,10,,,81,127
62071,note_off,13,0,0,,11,,,82,127
62099,note_on,28,0,0,,11,,,82,127
62112,note_off,13,0,0,,10,,,81,127
62140,note_on,28,0,0,,10,,,81,127
62153,note_off,13,0,0,,11,,,82,127
62180,note_off,27,0,0,,2,,,62,127
62181,note_on,1,0,0,,10,,,57,127
62181,note_on,0,0,0,,11,,,82,127
62194,note_off,13,0,0,,10,,,81,127
62222,note_on,28,0,0,,10,,,81,127
62235,note_off,13,0,0,,11,,,82,127
62263,note_on,28,0,0,,11,,,82,127
62276,note_off,13,0,0,,10,,,81,127
62304,note_on,28,0,0,,10,,,81,127
62317,note_off,13,0,0,,11,,,82,127
62344,note_off,27,0,0,,10,,,57,127
62344,note_off,0,0,0,,2,,,86,127
62344,note_off,0,0,0,,5,,,77,127
62345,note_on,1,0,0,,7,,,67,127
62385,note_off,40,0,0,,10,,,81,127
62508,note_off,123,0,0,,7,,,67,127
62509,note_on,1,0,0,,4,,,64,127
62673,note_off,164,0,0,,4,,,64,127
62674,note_on,1,0,0,,10,,,57,127
62838,note_off,164,0,0,,10,,,57,127
62839,note_on,1,0,0,,5,,,65,127
63003,note_off,164,0,0,,5,,,65,127
63004,note_on,1,0,0,,2,,,62,127
63168,note_off,164,0,0,,2,,,62,127
63169,note_on,1,0,0,,10,,,57,127
63333,note_off,164,0,0,,10,,,57,127
63334,note_on,1,0,0,,7,,,67,127
63334,note_on,0,0,0,,1,,,85,127
63334,note_on,0,0,0,,10,,,81,127
63334,note_on,0,0,0,,4,,,76,127
63375,note_on,41,0,0,,7,,,79,127
63388,note_off,13,0,0,,10,,,81,127
63416,note_on,28,0,0,,10,,,81,127
63429,note_off,13,0,0,,7,,,79,127
63457,note_on,28,0,0,,7,,,79,127
63470,note_off,13,0,0,,10,,,81,127
63497,note_off,27,0,0,,7,,,67,127
63498,note_on,1,0,0,,4,,,64,127
63498,note_on,0,0,0,,10,,,81,127
63511,note_off,13,0,0,,7,,,79,127
63539,note_on,28,0,0,,7,,,79,127
63552,note_off,13,0,0,,10,,,81,127
63580,note_on,28,0,0,,10,,,81,127
63593,note_off,13,0,0,,7,,,79,127
63621,note_on,28,0,0,,7,,,79,127
63634,note_off,13,0,0,,10,,,81,127
63661,note_off,27,0,0,,4,,,64,127
63662,note_on,1,0,0,,10,,,57,127
63662,note_on,0,0,0,,10,,,81,127
63675,note_off,13,0,0,,7,,,79,127
63703,note_on,28,0,0,,7,,,79,127
63716,note_off,13,0,0,,10,,,81,127
63744,note_on,28,0,0,,10,,,81,127
63757,note_off,13,0,0,,7,,,79,127
63785,note_on,28,0,0,,7,,,79,127
63798,note_off,13,0,0,,10,,,81,127
63825,note_off,27,0,0,,10,,,57,127
63825,note_off,0,0,0,,4,,,76,127
63825,note_off,0,0,0,,1,,,85,127
63826,note_on,1,0,0,,5,,,65,127
63826,note_on,0,0,0,,11,,,82,127
63826,note_on,0,0,0,,2,,,86,127
63826,note_on,0,0,0,,5,,,77,127
63839,note_off,13,0,0,,7,,,79,127
63867,note_on,28,0,0,,10,,,81,127
63880,note_off,13,0,0,,11,,,82,127
63908,note_on,28,0,0,,11,,,82,127
63921,note_off,13,0,0,,10,,,81,127
63949,note_on,28,0,0,,10,,,81,127
63962,note_off,13,0,0,,11,,,82,127
63989,note_off,27,0,0,,5,,,65,127
63990,note_on,1,0,0,,2,,,62,127
63990,note_on,0,0,0,,11,,,82,127
64003,note_off,13,0,0,,10,,,81,127
64031,note_on,28,0,0,,10,,,81,127
64044,note_off,13,0,0,,11,,,82,127
64072,note_on,28,0,0,,11,,,82,127
64085,note_off,13,0,0,,10,,,81,127
64113,note_on,28,0,0,,10,,,81,127
64126,note_off,13,0,0,,11,,,82,127
64153,note_off,27,0,0,,2,,,62,127
64154,note_on,1,0,0,,10,,,57,127
64154,note_on,0,0,0,,11,,,82,127
64167,note_off,13,0,0,,10,,,81,127
64195,note_on,28,0,0,,10,,,81,127
64208,note_off,13,0,0,,11,,,82,127
64236,note_on,28,0,0,,11,,,82,127
64249,note_off,13,0,0,,10,,,81,127
64277,note_on,28,0,0,,10,,,81,127
64290,note_off,13,0,0,,11,,,82,127
64317,note_off,27,0,0,,10,,,57,127
64317,note_off,0,0,0,,5,,,77,127
64317,note_off,0,0,0,,2,,,86,127
64318,note_on,1,0,0,,11,,,58,127
64358,note_off,40,0,0,,10,,,81,127
64481,note_off,123,0,0,,11,,,58,127
64482,note_on,1,0,0,,2,,,62,127
64646,note_off,164,0,0,,2,,,62,127
64647,note_on,1,0,0,,7,,,67,127
64811,note_off,164,0,0,,7,,,67,127
64812,note_on,1,0,0,,10,,,57,127
64976,note_off,164,0,0,,10,,,57,127
64977,note_on,1,0,0,,0,,,60,127
65141,note_off,164,0,0,,0,,,60,127
65142,note_on,1,0,0,,6,,,66,127
65306,note_off,164,0,0,,6,,,66,127
65307,note_on,1,0,0,,7,,,55,127
65472,note_on,165,0,0,,7,,,79,127
65636,note_off,164,0,0,,7,,,79,127
65637,note_on,1,0,0,,2,,,74,127
65801,note_off,164,0,0,,2,,,74,127
65801,note_off,0,0,0,,7,,,55,127
65802,note_on,1,0,0,,7,,,67,127
66295,note_off,493,0,0,,7,,,67,127
67283,note_on,988,0,0,,3,,,63,127
67447,note_off,164,0,0,,3,,,63,127
67448,note_on,1,0,0,,0,,,60,127
67612,note_off,164,0,0,,0,,,60,127
67613,note_on,1,0,0,,7,,,55,127
67777,note_off,164,0,0,,7,,,55,127
67778,note_on,1,0,0,,5,,,65,127
67942,note_off,164,0,0,,5,,,65,127
67943,note_on,1,0,0,,2,,,62,127
68107,note_off,164,0,0,,2,,,62,127
68108,note_on,1,0,0,,7,,,55,127
68272,note_off,164,0,0,,7,,,55,127
68273,note_on,1,0,0,,3,,,63,127
68437,note_off,164,0,0,,3,,,63,127
68438,note_on,1,0,0,,0,,,60,127
68602,note_off,164,0,0,,0,,,60,127
68603,note_on,1,0,0,,7,,,55,127
68767,note_off,164,0,0,,7,,,55,127
68768,note_on,1,0,0,,12,,,83,127
68768,note_on,0,0,0,,7,,,79,127
68768,note_on,0,0,0,,2,,,74,127
68768,note_on,0,0,0,,5,,,65,127
68809,note_on,41,0,0,,5,,,77,127
68822,note_off,13,0,0,,7,,,79,127
68850,note_on,28,0,0,,7,,,79,127
68863,note_off,13,0,0,,5,,,77,127
68891,note_on,28,0,0,,5,,,77,127
68904,note_off,13,0,0,,7,,,79,127
68931,note_off,27,0,0,,5,,,65,127
68932,note_on,1,0,0,,7,,,79,127
68932,note_on,0,0,0,,2,,,62,127
68945,note_off,13,0,0,,5,,,77,127
68973,note_on,28,0,0,,5,,,77,127
68986,note_off,13,0,0,,7,,,79,127
69014,note_on,28,0,0,,7,,,79,127
69027,note_off,13,0,0,,5,,,77,127
69055,note_on,28,0,0,,5,,,77,127
69068,note_off,13,0,0,,7,,,79,127
69095,note_off,27,0,0,,2,,,62,127
69096,note_on,1,0,0,,7,,,79,127
69096,note_on,0,0,0,,7,,,55,127
69109,note_off,13,0,0,,5,,,77,127
69137,note_on,28,0,0,,5,,,77,127
69150,note_off,13,0,0,,7,,,79,127
69178,note_on,28,0,0,,7,,,79,127
69191,note_off,13,0,0,,5,,,77,127
69219,note_on,28,0,0,,5,,,77,127
69232,note_off,13,0,0,,7,,,79,127
69259,note_off,27,0,0,,7,,,55,127
69259,note_off,0,0,0,,2,,,74,127
69259,note_off,0,0,0,,12,,,83,127
69260,note_on,1,0,0,,0,,,84,127
69260,note_on,0,0,0,,3,,,75,127
69260,note_on,0,0,0,,8,,,80,127
69260,note_on,0,0,0,,3,,,63,127
69273,note_off,13,0,0,,5,,,77,127
69301,note_on,28,0,0,,7,,,79,127
69314,note_off,13,0,0,,8,,,80,127
69342,note_on,28,0,0,,8,,,80,127
69355,note_off,13,0,0,,7,,,79,127
69383,note_on,28,0,0,,7,,,79,127
69396,note_off,13,0,0,,8,,,80,127
69423,note_off,27,0,0,,3,,,63,127
69424,note_on,1,0,0,,8,,,80,127
69424,note_on,0,0,0,,0,,,60,127
69437,note_off,13,0,0,,7,,,79,127
69465,note_on,28,0,0,,7,,,79,127
69478,note_off,13,0,0,,8,,,80,127
69506,note_on,28,0,0,,8,,,80,127
69519,note_off,13,0,0,,7,,,79,127
69547,note_on,28,0,0,,7,,,79,127
69560,note_off,13,0,0,,8,,,80,127
69587,note_off,27,0,0,,0,,,60,127
69588,note_on,1,0,0,,8,,,80,127
69588,note_on,0,0,0,,7,,,55,127
69601,note_off,13,0,0,,7,,,79,127
69629,note_on,28,0,0,,7,,,79,127
69642,note_off,13,0,0,,8,,,80,127
69670,note_on,28,0,0,,8,,,80,127
69683,note_off,13,0,0,,7,,,79,127
69711,note_on,28,0,0,,7,,,79,127
69724,note_off,13,0,0,,8,,,80,127
69751,note_off,27,0,0,,7,,,55,127
69751,note_off,0,0,0,,3,,,75,127
69751,note_off,0,0,0,,0,,,84,127
69752,note_on,1,0,0,,5,,,65,127
69792,note_off,40,0,0,,7,,,79,127
69915,note_off,123,0,0,,5,,,65,127
69916,note_on,1,0,0,,2,,,62,127
70080,note_off,164,0,0,,2,,,62,127
70081,note_on,1,0,0,,7,,,55,127
70245,note_off,164,0,0,,7,,,55,127
70246,note_on,1,0,0,,3,,,63,127
70410,note_off,164,0,0,,3,,,63,127
70411,note_on,1,0,0,,0,,,60,127
70575,note_off,164,0,0,,0,,,60,127
70576,note_on,1,0,0,,7,,,55,127
70740,note_off,164,0,0,,7,,,55,127
70741,note_on,1,0,0,,2,,,74,127
70741,note_on,0,0,0,,12,,,83,127
70741,note_on,0,0,0,,7,,,79,127
70741,note_on,0,0,0,,5,,,65,127
70782,note_on,41,0,0,,5,,,77,127
70795,note_off,13,0,0,,7,,,79,127
70823,note_on,28,0,0,,7,,,79,127
70836,note_off,13,0,0,,5,,,77,127
70864,note_on,28,0,0,,5,,,77,127
70877,note_off,13,0,0,,7,,,79,127
70904,note_off,27,0,0,,5,,,65,127
70905,note_on,1,0,0,,7,,,79,127
70905,note_on,0,0,0,,2,,,62,127
70918,note_off,13,0,0,,5,,,77,127
70946,note_on,28,0,0,,5,,,77,127
70959,note_off,13,0,0,,7,,,79,127
70987,note_on,28,0,0,,7,,,79,127
71000,note_off,13,0,0,,5,,,77,127
71028,note_on,28,0,0,,5,,,77,127
71041,note_off,13,0,0,,7,,,79,127
71068,note_off,27,0,0,,2,,,62,127
71069,note_on,1,0,0,,7,,,79,127
71069,note_on,0,0,0,,7,,,55,127
71082,note_off,13,0,0,,5,,,77,127
71110,note_on,28,0,0,,5,,,77,127
71123,note_off,13,0,0,,7,,,79,127
71151,note_on,28,0,0,,7,,,79,127
71164,note_off,13,0,0,,5,,,77,127
71192,note_on,28,0,0,,5,,,77,127
71205,note_off,13,0,0,,7,,,79,127
71232,note_off,27,0,0,,7,,,55,127
71232,note_off,0,0,0,,12,,,83,127
71232,note_off,0,0,0,,2,,,74,127
71233,note_on,1,0,0,,0,,,84,127
71233,note_on,0,0,0,,8,,,80,127
71233,note_on,0,0,0,,3,,,75,127
71233,note_on,0,0,0,,3,,,63,127
71246,note_off,13,0,0,,5,,,77,127
71274,note_on,28,0,0,,7,,,79,127
71287,note_off,13,0,0,,8,,,80,127
71315,note_on,28,0,0,,8,,,80,127
71328,note_off,13,0,0,,7,,,79,127
71356,note_on,28,0,0,,7,,,79,127
71369,note_off,13,0,0,,8,,,80,127
71396,note_off,27,0,0,,3,,,63,127
71397,note_on,1,0,0,,8,,,80,127
71397,note_on,0,0,0,,0,,,60,127
71410,note_off,13,0,0,,7,,,79,127
71438,note_on,28,0,0,,7,,,79,127
71451,note_off,13,0,0,,8,,,80,127
71479,note_on,28,0,0,,8,,,80,127
71492,note_off,13,0,0,,7,,,79,127
71520,note_on,28,0,0,,7,,,79,127
71533,note_off,13,0,0,,8,,,80,127
71560,note_off,27,0,0,,0,,,60,127
71561,note_on,1,0,0,,8,,,80,127
71561,note_on,0,0,0,,7,,,55,127
71574,note_off,13,0,0,,7,,,79,127
71602,note_on,28,0,0,,7,,,79,127
71615,note_off,13,0,0,,8,,,80,127
71643,note_on,28,0,0,,8,,,80,127
71656,note_off,13,0,0,,7,,,79,127
71684,note_on,28,0,0,,7,,,79,127
71697,note_off,13,0,0,,8,,,80,127
71724,note_off,27,0,0,,7,,,55,127
71724,note_off,0,0,0,,3,,,75,127
71724,note_off,0,0,0,,0,,,84,127
71725,note_on,1,0,0,,5,,,65,127
71765,note_off,40,0,0,,7,,,79,127
71888,note_off,123,0,0,,5,,,65,127
71889,note_on,1,0,0,,2,,,62,127
72053,note_off,164,0,0,,2,,,62,127
72054,note_on,1,0,0,,7,,,55,127
72218,note_off,164,0,0,,7,,,55,127
72219,note_on,1,0,0,,3,,,63,127
72383,note_off,164,0,0,,3,,,63,127
72384,note_on,1,0,0,,0,,,60,127
72548,note_off,164,0,0,,0,,,60,127
72549,note_on,1,0,0,,7,,,55,127
72713,note_off,164,0,0,,7,,,55,127
72714,note_on,1,0,0,,12,,,83,127
72714,note_on,0,0,0,,2,,,74,127
72714,note_on,0,0,0,,7,,,79,127
72714,note_on,0,0,0,,5,,,65,127
72755,note_on,41,0,0,,5,,,77,127
72768,note_off,13,0,0,,7,,,79,127
72796,note_on,28,0,0,,7,,,79,127
72809,note_off,13,0,0,,5,,,77,127
72837,note_on,28,0,0,,5,,,77,127
72850,note_off,13,0,0,,7,,,79,127
72877,note_off,27,0,0,,5,,,65,127
72878,note_on,1,0,0,,7,,,79,127
72878,note_on,0,0,0,,2,,,62,127
72891,note_off,13,0,0,,5,,,77,127
72919,note_on,28,0,0,,5,,,77,127
72932,note_off,13,0,0,,7,,,79,127
72960,note_on,28,0,0,,7,,,79,127
72973,note_off,13,0,0,,5,,,77,127
73001,note_on,28,0,0,,5,,,77,127
73014,note_off,13,0,0,,7,,,79,127
73041,note_off,27,0,0,,2,,,62,127
73042,note_on,1,0,0,,7,,,79,127
73042,note_on,0,0,0,,7,,,55,127
73055,note_off,13,0,0,,5,,,77,127
73083,note_on,28,0,0,,5,,,77,127
73096,note_off,13,0,0,,7,,,79,127
73124,note_on,28,0,0,,7,,,79,127
73137,note_off,13,0,0,,5,,,77,127
73165,note_on,28,0,0,,5,,,77,127
73178,note_off,13,0,0,,7,,,79,127
73205,note_off,27,0,0,,7,,,55,127
73205,note_off,0,0,0,,2,,,74,127
73205,note_off,0,0,0,,12,,,83,127
73206,note_on,1,0,0,,3,,,75,127
73206,note_on,0,0,0,,0,,,84,127
73206,note_on,0,0,0,,8,,,80,127
73206,note_on,0,0,0,,3,,,63,127
73219,note_off,13,0,0,,5,,,77,127
73247,note_on,28,0,0,,7,,,79,127
73260,note_off,13,0,0,,8,,,80,127
73288,note_on,28,0,0,,8,,,80,127
73301,note_off,13,0,0,,7,,,79,127
73329,note_on,28,0,0,,7,,,79,127
73342,note_off,13,0,0,,8,,,80,127
73369,note_off,27,0,0,,3,,,63,127
73370,note_on,1,0,0,,8,,,80,127
73370,note_on,0,0,0,,0,,,60,127
73383,note_off,13,0,0,,7,,,79,127
73411,note_on,28,0,0,,7,,,79,127
73424,note_off,13,0,0,,8,,,80,127
73452,note_on,28,0,0,,8,,,80,127
73465,note_off,13,0,0,,7,,,79,127
73493,note_on,28,0,0,,7,,,79,127
73506,note_off,13,0,0,,8,,,80,127
73533,note_off,27,0,0,,0,,,60,127
73534,note_on,1,0,0,,8,,,80,127
73534,note_on,0,0,0,,7,,,55,127
73547,note_off,13,0,0,,7,,,79,127
73575,note_on,28,0,0,,7,,,79,127
73588,note_off,13,0,0,,8,,,80,127
73616,note_on,28,0,0,,8,,,80,127
73629,note_off,13,0,0,,7,,,79,127
73657,note_on,28,0,0,,7,,,79,127
73670,note_off,13,0,0,,8,,,80,127
73697,note_off,27,0,0,,7,,,55,127
73697,note_off,0,0,0,,0,,,84,127
73697,note_off,0,0,0,,3,,,75,127
73698,note_on,1,0,0,,8,,,56,127
73738,note_off,40,0,0,,7,,,79,127
73861,note_off,123,0,0,,8,,,56,127
73862,note_on,1,0,0,,0,,,60,127
74026,note_off,164,0,0,,0,,,60,127
74027,note_on,1,0,0,,5,,,65,127
74191,note_off,164,0,0,,5,,,65,127
74192,note_on,1,0,0,,7,,,55,127
74356,note_off,164,0,0,,7,,,55,127
74357,note_on,1,0,0,,11,,,58,127
74521,note_off,164,0,0,,11,,,58,127
74522,note_on,1,0,0,,4,,,64,127
74686,note_off,164,0,0,,4,,,64,127
74687,note_on,1,0,0,,5,,,53,127
74852,note_on,165,0,0,,5,,,77,127
75016,note_off,164,0,0,,5,,,77,127
75017,note_on,1,0,0,,0,,,72,127
75181,note_off,164,0,0,,0,,,72,127
75181,note_off,0,0,0,,5,,,53,127
75182,note_on,1,0,0,,5,,,65,127
75675,note_off,493,0,0,,5,,,65,127
76663,note_on,988,0,0,,1,,,61,127
76827,note_off,164,0,0,,1,,,61,127
76828,note_on,1,0,0,,11,,,58,127
76992,note_off,164,0,0,,11,,,58,127
76993,note_on,1,0,0,,5,,,53,127
77157,note_off,164,0,0,,5,,,53,127
77158,note_on,1,0,0,,3,,,63,127
77322,note_off,164,0,0,,3,,,63,127
77323,note_on,1,0,0,,0,,,60,127
77487,note_off,164,0,0,,0,,,60,127
77488,note_on,1,0,0,,5,,,53,127
77652,note_off,164,0,0,,5,,,53,127
77653,note_on,1,0,0,,1,,,61,127
77817,note_off,164,0,0,,1,,,61,127
77818,note_on,1,0,0,,11,,,58,127
77982,note_off,164,0,0,,11,,,58,127
77983,note_on,1,0,0,,5,,,53,127
78147,note_off,164,0,0,,5,,,53,127
78148,note_on,1,0,0,,3,,,63,127
78148,note_on,0,0,0,,5,,,77,127
78148,note_on,0,0,0,,0,,,72,127
78148,note_on,0,0,0,,10,,,81,127
78189,note_on,41,0,0,,3,,,75,127
78202,note_off,13,0,0,,5,,,77,127
78230,note_on,28,0,0,,5,,,77,127
78243,note_off,13,0,0,,3,,,75,127
78271,note_on,28,0,0,,3,,,75,127
78284,note_off,13,0,0,,5,,,77,127
78311,note_off,27,0,0,,3,,,63,127
78312,note_on,1,0,0,,0,,,60,127
78312,note_on,0,0,0,,5,,,77,127
78325,note_off,13,0,0,,3,,,75,127
78353,note_on,28,0,0,,3,,,75,127
78366,note_off,13,0,0,,5,,,77,127
78394,note_on,28,0,0,,5,,,77,127
78407,note_off,13,0,0,,3,,,75,127
78435,note_on,28,0,0,,3,,,75,127
78448,note_off,13,0,0,,5,,,77,127
78475,note_off,27,0,0,,0,,,60,127
78476,note_on,1,0,0,,5,,,53,127
78476,note_on,0,0,0,,5,,,77,127
78489,note_off,13,0,0,,3,,,75,127
78517,note_on,28,0,0,,3,,,75,127
78530,note_off,13,0,0,,5,,,77,127
78558,note_on,28,0,0,,5,,,77,127
78571,note_off,13,0,0,,3,,,75,127
78599,note_on,28,0,0,,3,,,75,127
78612,note_off,13,0,0,,5,,,77,127
78639,note_off,27,0,0,,5,,,53,127
78639,note_off,0,0,0,,10,,,81,127
78639,note_off,0,0,0,,0,,,72,127
78640,note_on,1,0,0,,1,,,61,127
78640,note_on,0,0,0,,6,,,78,127
78640,note_on,0,0,0,,1,,,73,127
78640,note_on,0,0,0,,11,,,82,127
78653,note_off,13,0,0,,3,,,75,127
78681,note_on,28,0,0,,5,,,77,127
78694,note_off,13,0,0,,6,,,78,127
78722,note_on,28,0,0,,6,,,78,127
78735,note_off,13,0,0,,5,,,77,127
78763,note_on,28,0,0,,5,,,77,127
78776,note_off,13,0,0,,6,,,78,127
78803,note_off,27,0,0,,1,,,61,127
78804,note_on,1,0,0,,11,,,58,127
78804,note_on,0,0,0,,6,,,78,127
78817,note_off,13,0,0,,5,,,77,127
78845,note_on,28,0,0,,5,,,77,127
78858,note_off,13,0,0,,6,,,78,127
78886,note_on,28,0,0,,6,,,78,127
78899,note_off,13,0,0,,5,,,77,127
78927,note_on,28,0,0,,5,,,77,127
78940,note_off,13,0,0,,6,,,78,127
78967,note_off,27,0,0,,11,,,58,127
78968,note_on,1,0,0,,5,,,53,127
78968,note_on,0,0,0,,6,,,78,127
78981,note_off,13,0,0,,5,,,77,127
79009,note_on,28,0,0,,5,,,77,127
79022,note_off,13,0,0,,6,,,78,127
79050,note_on,28,0,0,,6,,,78,127
79063,note_off,13,0,0,,5,,,77,127
79091,note_on,28,0,0,,5,,,77,127
79104,note_off,13,0,0,,6,,,78,127
79131,note_off,27,0,0,,5,,,53,127
79131,note_off,0,0,0,,11,,,82,127
79131,note_off,0,0,0,,1,,,73,127
79132,note_on,1,0,0,,3,,,63,127
79172,note_off,40,0,0,,5,,,77,127
79295,note_off,123,0,0,,3,,,63,127
79296,note_on,1,0,0,,0,,,60,127
79460,note_off,164,0,0,,0,,,60,127
79461,note_on,1,0,0,,5,,,53,127
79625,note_off,164,0,0,,5,,,53,127
79626,note_on,1,0,0,,1,,,61,127
79790,note_off,164,0,0,,1,,,61,127
79791,note_on,1,0,0,,11,,,58,127
79955,note_off,164,0,0,,11,,,58,127
79956,note_on,1,0,0,,5,,,53,127
80120,note_off,164,0,0,,5,,,53,127
80121,note_on,1,0,0,,3,,,63,127
80121,note_on,0,0,0,,0,,,72,127
80121,note_on,0,0,0,,5,,,77,127
80121,note_on,0,0,0,,10,,,81,127
80162,note_on,41,0,0,,3,,,75,127
80175,note_off,13,0,0,,5,,,77,127
80203,note_on,28,0,0,,5,,,77,127
80216,note_off,13,0,0,,3,,,75,127
80244,note_on,28,0,0,,3,,,75,127
80257,note_off,13,0,0,,5,,,77,127
80284,note_off,27,0,0,,3,,,63,127
80285,note_on,1,0,0,,0,,,60,127
80285,note_on,0,0,0,,5,,,77,127
80298,note_off,13,0,0,,3,,,75,127
80326,note_on,28,0,0,,3,,,75,127
80339,note_off,13,0,0,,5,,,77,127
80367,note_on,28,0,0,,5,,,77,127
80380,note_off,13,0,0,,3,,,75,127
80408,note_on,28,0,0,,3,,,75,127
80421,note_off,13,0,0,,5,,,77,127
80448,note_off,27,0,0,,0,,,60,127
80449,note_on,1,0,0,,5,,,53,127
80449,note_on,0,0,0,,5,,,77,127
80462,note_off,13,0,0,,3,,,75,127
80490,note_on,28,0,0,,3,,,75,127
80503,note_off,13,0,0,,5,,,77,127
80531,note_on,28,0,0,,5,,,77,127
80544,note_off,13,0,0,,3,,,75,127
80572,note_on,28,0,0,,3,,,75,127
80585,note_off,13,0,0,,5,,,77,127
80612,note_off,27,0,0,,5,,,53,127
80612,note_off,0,0,0,,10,,,81,127
80612,note_off,0,0,0,,0,,,72,127
80613,note_on,1,0,0,,1,,,61,127
80613,note_on,0,0,0,,1,,,73,127
80613,note_on,0,0,0,,6,,,78,127
80613,note_on,0,0,0,,11,,,82,127
80626,note_off,13,0,0,,3,,,75,127
80654,note_on,28,0,0,,5,,,77,127
80667,note_off,13,0,0,,6,,,78,127
80695,note_on,28,0,0,,6,,,78,127
80708,note_off,13,0,0,,5,,,77,127
80736,note_on,28,0,0,,5,,,77,127
80749,note_off,13,0,0,,6,,,78,127
80776,note_off,27,0,0,,1,,,61,127
80777,note_on,1,0,0,,11,,,58,127
80777,note_on,0,0,0,,6,,,78,127
80790,note_off,13,0,0,,5,,,77,127
80818,note_on,28,0,0,,5,,,77,127
80831,note_off,13,0,0,,6,,,78,127
80859,note_on,28,0,0,,6,,,78,127
80872,note_off,13,0,0,,5,,,77,127
80900,note_on,28,0,0,,5,,,77,127
80913,note_off,13,0,0,,6,,,78,127
80940,note_off,27,0,0,,11,,,58,127
80941,note_on,1,0,0,,5,,,53,127
80941,note_on,0,0,0,,6,,,78,127
80954,note_off,13,0,0,,5,,,77,127
80982,note_on,28,0,0,,5,,,77,127
80995,note_off,13,0,0,,6,,,78,127
81023,note_on,28,0,0,,6,,,78,127
81036,note_off,13,0,0,,5,,,77,127
81064,note_on,28,0,0,,5,,,77,127
81077,note_off,13,0,0,,6,,,78,127
81104,note_off,27,0,0,,5,,,53,127
81104,note_off,0,0,0,,11,,,82,127
81104,note_off,0,0,0,,1,,,73,127
81105,note_on,1,0,0,,3,,,63,127
81145,note_off,40,0,0,,5,,,77,127
81268,note_off,123,0,0,,3,,,63,127
81269,note_on,1,0,0,,0,,,60,127
81433,note_off,164,0,0,,0,,,60,127
81434,note_on,1,0,0,,5,,,53,127
81598,note_off,164,0,0,,5,,,53,127
81599,note_on,1,0,0,,1,,,61,127
81763,note_off,164,0,0,,1,,,61,127
81764,note_on,1,0,0,,11,,,58,127
81928,note_off,164,0,0,,11,,,58,127
81929,note_on,1,0,0,,5,,,53,127
82093,note_off,164,0,0,,5,,,53,127
82094,note_on,1,0,0,,3,,,63,127
82094,note_on,0,0,0,,0,,,72,127
82094,note_on,0,0,0,,5,,,77,127
82094,note_on,0,0,0,,10,,,81,127
82135,note_on,41,0,0,,3,,,75,127
82148,note_off,13,0,0,,5,,,77,127
82176,note_on,28,0,0,,5,,,77,127
82189,note_off,13,0,0,,3,,,75,127
82217,note_on,28,0,0,,3,,,75,127
82230,note_off,13,0,0,,5,,,77,127
82257,note_off,27,0,0,,3,,,63,127
82258,note_on,1,0,0,,0,,,60,127
82258,note_on,0,0,0,,5,,,77,127
82271,note_off,13,0,0,,3,,,75,127
82299,note_on,28,0,0,,3,,,75,127
82312,note_off,13,0,0,,5,,,77,127
82340,note_on,28,0,0,,5,,,77,127
82353,note_off,13,0,0,,3,,,75,127
82381,note_on,28,0,0,,3,,,75,127
82394,note_off,13,0,0,,5,,,77,127
82421,note_off,27,0,0,,0,,,60,127
82422,note_on,1,0,0,,5,,,53,127
82422,note_on,0,0,0,,5,,,77,127
82435,note_off,13,0,0,,3,,,75,127
82463,note_on,28,0,0,,3,,,75,127
82476,note_off,13,0,0,,5,,,77,127
82504,note_on,28,0,0,,5,,,77,127
82517,note_off,13,0,0,,3,,,75,127
82545,note_on,28,0,0,,3,,,75,127
82558,note_off,13,0,0,,5,,,77,127
82585,note_off,27,0,0,,5,,,53,127
82585,note_off,0,0,0,,10,,,81,127
82585,note_off,0,0,0,,0,,,72,127
82586,note_on,1,0,0,,1,,,61,127
82586,note_on,0,0,0,,1,,,73,127
82586,note_on,0,0,0,,6,,,78,127
82586,note_on,0,0,0,,11,,,82,127
82599,note_off,13,0,0,,3,,,75,127
82627,note_on,28,0,0,,5,,,77,127
82640,note_off,13,0,0,,6,,,78,127
82668,note_on,28,0,0,,6,,,78,127
82681,note_off,13,0,0,,5,,,77,127
82709,note_on,28,0,0,,5,,,77,127
82722,note_off,13,0,0,,6,,,78,127
82749,note_off,27,0,0,,1,,,61,127
82750,note_on,1,0,0,,11,,,58,127
82750,note_on,0,0,0,,6,,,78,127
82763,note_off,13,0,0,,5,,,77,127
82791,note_on,28,0,0,,5,,,77,127
82804,note_off,13,0,0,,6,,,78,127
82832,note_on,28,0,0,,6,,,78,127
82845,note_off,13,0,0,,5,,,77,127
82873,note_on,28,0,0,,5,,,77,127
82886,note_off,13,0,0,,6,,,78,127
82913,note_off,27,0,0,,11,,,58,127
82914,note_on,1,0,0,,5,,,53,127
82914,note_on,0,0,0,,6,,,78,127
82927,note_off,13,0,0,,5,,,77,127
82955,note_on,28,0,0,,5,,,77,127
82968,note_off,13,0,0,,6,,,78,127
82996,note_on,28,0,0,,6,,,78,127
83009,note_off,13,0,0,,5,,,77,127
83037,note_on,28,0,0,,5,,,77,127
83050,note_off,13,0,0,,6,,,78,127
83077,note_off,27,0,0,,5,,,53,127
83077,note_off,0,0,0,,11,,,82,127
83077,note_off,0,0,0,,1,,,73,127
83078,note_on,1,0,0,,4,,,52,127
83118,note_off,40,0,0,,5,,,77,127
83241,note_off,123,0,0,,4,,,52,127
83242,note_on,1,0,0,,11,,,58,127
83406,note_off,164,0,0,,11,,,58,127
83407,note_on,1,0,0,,0,,,60,127
83407,note_on,0,0,0,,0,,,72,127
83407,note_on,0,0,0,,7,,,79,127
83407,note_on,0,0,0,,11,,,82,127
83571,note_off,164,0,0,,0,,,60,127
83572,note_on,1,0,0,,5,,,53,127
83654,note_off,82,0,0,,11,,,82,127
83654,note_off,0,0,0,,7,,,79,127
83654,note_off,0,0,0,,0,,,72,127
83735,note_off,81,0,0,,5,,,53,127
83736,note_on,1,0,0,,8,,,56,127
83900,note_off,164,0,0,,8,,,56,127
83901,note_on,1,0,0,,0,,,60,127
83901,note_on,0,0,0,,0,,,72,127
83901,note_on,0,0,0,,5,,,77,127
83901,note_on,0,0,0,,8,,,80,127
84065,note_off,164,0,0,,0,,,60,127
84066,note_on,1,0,0,,3,,,51,127
84148,note_off,82,0,0,,8,,,80,127
84148,note_off,0,0,0,,5,,,77,127
84148,note_off,0,0,0,,0,,,72,127
84229,note_off,81,0,0,,3,,,51,127
84230,note_on,1,0,0,,5,,,53,127
84394,note_off,164,0,0,,5,,,53,127
84395,note_on,1,0,0,,11,,,58,127
84395,note_on,0,0,0,,1,,,73,127
84395,note_on,0,0,0,,11,,,70,127
84395,note_on,0,0,0,,7,,,79,127
84559,note_off,164,0,0,,11,,,58,127
84560,note_on,1,0,0,,11,,,46,127
84642,note_off,82,0,0,,7,,,79,127
84642,note_off,0,0,0,,11,,,70,127
84642,note_off,0,0,0,,1,,,73,127
84723,note_off,81,0,0,,11,,,46,127
84724,note_on,1,0,0,,1,,,49,127
84888,note_off,164,0,0,,1,,,49,127
84889,note_on,1,0,0,,5,,,53,127
84889,note_on,0,0,0,,8,,,68,127
84889,note_on,0,0,0,,2,,,74,127
84889,note_on,0,0,0,,5,,,77,127
85053,note_off,164,0,0,,5,,,77,127
85053,note_off,0,0,0,,2,,,74,127
85053,note_off,0,0,0,,8,,,68,127
85053,note_off,0,0,0,,5,,,53,127
85054,note_on,1,0,0,,0,,,48,127
85054,note_on,0,0,0,,4,,,76,127
85054,note_on,0,0,0,,7,,,67,127
85054,note_on,0,0,0,,0,,,72,127
85218,note_off,164,0,0,,0,,,48,127
85219,note_on,1,0,0,,7,,,55,127
85383,note_off,164,0,0,,7,,,55,127
85383,note_off,0,0,0,,0,,,72,127
85383,note_off,0,0,0,,7,,,67,127
85383,note_off,0,0,0,,4,,,76,127
85384,note_on,1,0,0,,0,,,60,127
85384,note_on,0,0,0,,4,,,76,127
85548,note_off,164,0,0,,4,,,76,127
85548,note_off,0,0,0,,0,,,60,127
85549,note_on,1,0,0,,1,,,49,127
85549,note_on,0,0,0,,7,,,79,127
85549,note_on,0,0,0,,5,,,77,127
85713,note_off,164,0,0,,5,,,77,127
85713,note_off,0,0,0,,7,,,79,127
85713,note_off,0,0,0,,1,,,49,127
85714,note_on,1,0,0,,5,,,53,127
85714,note_on,0,0,0,,4,,,76,127
85878,note_off,164,0,0,,4,,,76,127
85878,note_off,0,0,0,,5,,,53,127
85879,note_on,1,0,0,,11,,,58,127
85879,note_on,0,0,0,,5,,,77,127
86043,note_off,164,0,0,,5,,,77,127
86043,note_off,0,0,0,,11,,,58,127
86044,note_on,1,0,0,,0,,,36,127
86044,note_on,0,0,0,,7,,,79,127
86092,note_on,48,0,0,,5,,,77,127
86098,note_off,6,0,0,,7,,,79,127
86142,note_on,44,0,0,,7,,,79,127
86146,note_off,4,0,0,,5,,,77,127
86191,note_on,45,0,0,,5,,,77,127
86196,note_off,5,0,0,,7,,,79,127
86241,note_on,45,0,0,,7,,,79,127
86245,note_off,4,0,0,,5,,,77,127
86291,note_on,46,0,0,,5,,,77,127
86294,note_off,3,0,0,,7,,,79,127
86339,note_on,45,0,0,,7,,,79,127
86345,note_off,6,0,0,,5,,,77,127
86389,note_on,44,0,0,,5,,,77,127
86393,note_off,4,0,0,,7,,,79,127
86438,note_on,45,0,0,,7,,,79,127
86443,note_off,5,0,0,,5,,,77,127
86488,note_on,45,0,0,,5,,,77,127
86492,note_off,4,0,0,,7,,,79,127
86538,note_on,46,0,0,,7,,,79,127
86541,note_off,3,0,0,,5,,,77,127
87030,note_off,489,0,0,,7,,,79,127
87031,note_off,1,0,0,,0,,,36,127
88018,note_on,987,0,0,,10,,,57,127
88182,note_off,164,0,0,,10,,,57,127
88183,note_on,1,0,0,,5,,,53,127
88347,note_off,164,0,0,,5,,,53,127
88348,note_on,1,0,0,,0,,,48,127
88512,note_off,164,0,0,,0,,,48,127
88513,note_on,1,0,0,,11,,,58,127
88677,note_off,164,0,0,,11,,,58,127
88678,note_on,1,0,0,,7,,,55,127
88842,note_off,164,0,0,,7,,,55,127
88843,note_on,1,0,0,,0,,,48,127
89007,note_off,164,0,0,,0,,,48,127
89008,note_on,1,0,0,,10,,,57,127
89172,note_off,164,0,0,,10,,,57,127
89173,note_on,1,0,0,,5,,,53,127
89337,note_off,164,0,0,,5,,,53,127
89338,note_on,1,0,0,,0,,,48,127
89502,note_off,164,0,0,,0,,,48,127
89503,note_on,1,0,0,,7,,,67,127
89503,note_on,0,0,0,,4,,,76,127
89503,note_on,0,0,0,,0,,,72,127
89503,note_on,0,0,0,,11,,,58,127
89544,note_on,41,0,0,,11,,,70,127
89557,note_off,13,0,0,,0,,,72,127
89585,note_on,28,0,0,,0,,,72,127
89598,note_off,13,0,0,,11,,,70,127
89626,note_on,28,0,0,,11,,,70,127
89639,note_off,13,0,0,,0,,,72,127
89666,note_off,27,0,0,,11,,,58,127
89667,note_on,1,0,0,,0,,,72,127
89667,note_on,0,0,0,,7,,,55,127
89680,note_off,13,0,0,,11,,,70,127
89708,note_on,28,0,0,,11,,,70,127
89721,note_off,13,0,0,,0,,,72,127
89749,note_on,28,0,0,,0,,,72,127
89762,note_off,13,0,0,,11,,,70,127
89790,note_on,28,0,0,,11,,,70,127
89803,note_off,13,0,0,,0,,,72,127
89830,note_off,27,0,0,,7,,,55,127
89831,note_on,1,0,0,,0,,,72,127
89831,note_on,0,0,0,,0,,,48,127
89844,note_off,13,0,0,,11,,,70,127
89872,note_on,28,0,0,,11,,,70,127
89885,note_off,13,0,0,,0,,,72,127
89913,note_on,28,0,0,,0,,,72,127
89926,note_off,13,0,0,,11,,,70,127
89954,note_on,28,0,0,,11,,,70,127
89967,note_off,13,0,0,,0,,,72,127
89994,note_off,27,0,0,,0,,,48,127
89994,note_off,0,0,0,,4,,,76,127
89994,note_off,0,0,0,,7,,,67,127
89995,note_on,1,0,0,,2,,,74,127
89995,note_on,0,0,0,,10,,,69,127
89995,note_on,0,0,0,,5,,,77,127
89995,note_on,0,0,0,,10,,,57,127
90008,note_off,13,0,0,,11,,,70,127
90036,note_on,28,0,0,,0,,,72,127
90049,note_off,13,0,0,,2,,,74,127
90077,note_on,28,0,0,,2,,,74,127
90090,note_off,13,0,0,,0,,,72,127
90118,note_on,28,0,0,,0,,,72,127
90131,note_off,13,0,0,,2,,,74,127
90158,note_off,27,0,0,,10,,,57,127
90159,note_on,1,0,0,,2,,,74,127
90159,note_on,0,0,0,,5,,,53,127
90172,note_off,13,0,0,,0,,,72,127
90200,note_on,28,0,0,,0,,,72,127
90213,note_off,13,0,0,,2,,,74,127
90241,note_on,28,0,0,,2,,,74,127
90254,note_off,13,0,0,,0,,,72,127
90282,note_on,28,0,0,,0,,,72,127
90295,note_off,13,0,0,,2,,,74,127
90322,note_off,27,0,0,,5,,,53,127
90323,note_on,1,0,0,,2,,,74,127
90323,note_on,0,0,0,,0,,,48,127
90336,note_off,13,0,0,,0,,,72,127
90364,note_on,28,0,0,,0,,,72,127
90377,note_off,13,0,0,,2,,,74,127
90405,note_on,28,0,0,,2,,,74,127
90418,note_off,13,0,0,,0,,,72,127
90446,note_on,28,0,0,,0,,,72,127
90459,note_off,13,0,0,,2,,,74,127
90486,note_off,27,0,0,,0,,,48,127
90486,note_off,0,0,0,,5,,,77,127
90486,note_off,0,0,0,,10,,,69,127
90487,note_on,1,0,0,,11,,,58,127
90527,note_off,40,0,0,,0,,,72,127
90650,note_off,123,0,0,,11,,,58,127
90651,note_on,1,0,0,,7,,,55,127
90815,note_off,164,0,0,,7,,,55,127
90816,note_on,1,0,0,,0,,,48,127
90980,note_off,164,0,0,,0,,,48,127
90981,note_on,1,0,0,,10,,,57,127
91145,note_off,164,0,0,,10,,,57,127
91146,note_on,1,0,0,,5,,,53,127
91310,note_off,164,0,0,,5,,,53,127
91311,note_on,1,0,0,,0,,,48,127
91475,note_off,164,0,0,,0,,,48,127
91476,note_on,1,0,0,,7,,,67,127
91476,note_on,0,0,0,,0,,,72,127
91476,note_on,0,0,0,,4,,,76,127
91476,note_on,0,0,0,,11,,,58,127
91517,note_on,41,0,0,,11,,,70,127
91530,note_off,13,0,0,,0,,,72,127
91558,note_on,28,0,0,,0,,,72,127
91571,note_off,13,0,0,,11,,,70,127
91599,note_on,28,0,0,,11,,,70,127
91612,note_off,13,0,0,,0,,,72,127
91639,note_off,27,0,0,,11,,,58,127
91640,note_on,1,0,0,,0,,,72,127
91640,note_on,0,0,0,,7,,,55,127
91653,note_off,13,0,0,,11,,,70,127
91681,note_on,28,0,0,,11,,,70,127
91694,note_off,13,0,0,,0,,,72,127
91722,note_on,28,0,0,,0,,,72,127
91735,note_off,13,0,0,,11,,,70,127
91763,note_on,28,0,0,,11,,,70,127
91776,note_off,13,0,0,,0,,,72,127
91803,note_off,27,0,0,,7,,,55,127
91804,note_on,1,0,0,,0,,,72,127
91804,note_on,0,0,0,,0,,,48,127
91817,note_off,13,0,0,,11,,,70,127
91845,note_on,28,0,0,,11,,,70,127
91858,note_off,13,0,0,,0,,,72,127
91886,note_on,28,0,0,,0,,,72,127
91899,note_off,13,0,0,,11,,,70,127
91927,note_on,28,0,0,,11,,,70,127
91940,note_off,13,0,0,,0,,,72,127
91967,note_off,27,0,0,,0,,,48,127
91967,note_off,0,0,0,,4,,,76,127
91967,note_off,0,0,0,,7,,,67,127
91968,note_on,1,0,0,,10,,,69,127
91968,note_on,0,0,0,,5,,,77,127
91968,note_on,0,0,0,,2,,,74,127
91968,note_on,0,0,0,,10,,,57,127
91981,note_off,13,0,0,,11,,,70,127
92009,note_on,28,0,0,,0,,,72,127
92022,note_off,13,0,0,,2,,,74,127
92050,note_on,28,0,0,,2,,,74,127
92063,note_off,13,0,0,,0,,,72,127
92091,note_on,28,0,0,,0,,,72,127
92104,note_off,13,0,0,,2,,,74,127
92131,note_off,27,0,0,,10,,,57,127
92132,note_on,1,0,0,,2,,,74,127
92132,note_on,0,0,0,,5,,,53,127
92145,note_off,13,0,0,,0,,,72,127
92173,note_on,28,0,0,,0,,,72,127
92186,note_off,13,0,0,,2,,,74,127
92214,note_on,28,0,0,,2,,,74,127
92227,note_off,13,0,0,,0,,,72,127
92255,note_on,28,0,0,,0,,,72,127
92268,note_off,13,0,0,,2,,,74,127
92295,note_off,27,0,0,,5,,,53,127
92296,note_on,1,0,0,,2,,,74,127
92296,note_on,0,0,0,,0,,,48,127
92309,note_off,13,0,0,,0,,,72,127
92337,note_on,28,0,0,,0,,,72,127
92350,note_off,13,0,0,,2,,,74,127
92378,note_on,28,0,0,,2,,,74,127
92391,note_off,13,0,0,,0,,,72,127
92419,note_on,28,0,0,,0,,,72,127
92432,note_off,13,0,0,,2,,,74,127
92459,note_off,27,0,0,,0,,,48,127
92459,note_off,0,0,0,,5,,,77,127
92459,note_off,0,0,0,,10,,,69,127
92460,note_on,1,0,0,,11,,,58,127
92500,note_off,40,0,0,,0,,,72,127
92623,note_off,123,0,0,,11,,,58,127
92624,note_on,1,0,0,,7,,,55,127
92788,note_off,164,0,0,,7,,,55,127
92789,note_on,1,0,0,,0,,,48,127
92953,note_off,164,0,0,,0,,,48,127
92954,note_on,1,0,0,,10,,,57,127
93118,note_off,164,0,0,,10,,,57,127
93119,note_on,1,0,0,,5,,,53,127
93283,note_off,164,0,0,,5,,,53,127
93284,note_on,1,0,0,,0,,,48,127
93448,note_off,164,0,0,,0,,,48,127
93449,note_on,1,0,0,,4,,,76,127
93449,note_on,0,0,0,,7,,,67,127
93449,note_on,0,0,0,,0,,,72,127
93449,note_on,0,0,0,,11,,,58,127
93490,note_on,41,0,0,,11,,,70,127
93503,note_off,13,0,0,,0,,,72,127
93531,note_on,28,0,0,,0,,,72,127
93544,note_off,13,0,0,,11,,,70,127
93572,note_on,28,0,0,,11,,,70,127
93585,note_off,13,0,0,,0,,,72,127
93612,note_off,27,0,0,,11,,,58,127
93613,note_on,1,0,0,,0,,,72,127
93613,note_on,0,0,0,,7,,,55,127
93626,note_off,13,0,0,,11,,,70,127
93654,note_on,28,0,0,,11,,,70,127
93667,note_off,13,0,0,,0,,,72,127
93695,note_on,28,0,0,,0,,,72,127
93708,note_off,13,0,0,,11,,,70,127
93736,note_on,28,0,0,,11,,,70,127
93749,note_off,13,0,0,,0,,,72,127
93776,note_off,27,0,0,,7,,,55,127
93777,note_on,1,0,0,,0,,,72,127
93777,note_on,0,0,0,,0,,,48,127
93790,note_off,13,0,0,,11,,,70,127
93818,note_on,28,0,0,,11,,,70,127
93831,note_off,13,0,0,,0,,,72,127
93859,note_on,28,0,0,,0,,,72,127
93872,note_off,13,0,0,,11,,,70,127
93900,note_on,28,0,0,,11,,,70,127
93913,note_off,13,0,0,,0,,,72,127
93940,note_off,27,0,0,,0,,,48,127
93940,note_off,0,0,0,,7,,,67,127
93940,note_off,0,0,0,,4,,,76,127
93941,note_on,1,0,0,,10,,,69,127
93941,note_on,0,0,0,,5,,,77,127
93941,note_on,0,0,0,,2,,,74,127
93941,note_on,0,0,0,,10,,,57,127
93954,note_off,13,0,0,,11,,,70,127
93982,note_on,28,0,0,,0,,,72,127
93995,note_off,13,0,0,,2,,,74,127
94023,note_on,28,0,0,,2,,,74,127
94036,note_off,13,0,0,,0,,,72,127
94064,note_on,28,0,0,,0,,,72,127
94077,note_off,13,0,0,,2,,,74,127
94104,note_off,27,0,0,,10,,,57,127
94105,note_on,1,0,0,,2,,,74,127
94105,note_on,0,0,0,,5,,,53,127
94118,note_off,13,0,0,,0,,,72,127
94146,note_on,28,0,0,,0,,,72,127
94159,note_off,13,0,0,,2,,,74,127
94187,note_on,28,0,0,,2,,,74,127
94200,note_off,13,0,0,,0,,,72,127
94228,note_on,28,0,0,,0,,,72,127
94241,note_off,13,0,0,,2,,,74,127
94268,note_off,27,0,0,,5,,,53,127
94269,note_on,1,0,0,,2,,,74,127
94269,note_on,0,0,0,,10,,,45,127
94282,note_off,13,0,0,,0,,,72,127
94310,note_on,28,0,0,,0,,,72,127
94323,note_off,13,0,0,,2,,,74,127
94351,note_on,28,0,0,,2,,,74,127
94364,note_off,13,0,0,,0,,,72,127
94392,note_on,28,0,0,,0,,,72,127
94405,note_off,13,0,0,,2,,,74,127
94432,note_off,27,0,0,,10,,,45,127
94432,note_off,0,0,0,,5,,,77,127
94432,note_off,0,0,0,,10,,,69,127
94433,note_on,1,0,0,,11,,,58,127
94556,note_off,123,0,0,,0,,,72,127
94597,note_off,41,0,0,,11,,,58,127
94598,note_on,1,0,0,,0,,,72,127
94598,note_on,0,0,0,,7,,,55,127
94762,note_off,164,0,0,,7,,,55,127
94762,note_off,0,0,0,,0,,,72,127
94763,note_on,1,0,0,,2,,,74,127
94763,note_on,0,0,0,,11,,,46,127
94927,note_off,164,0,0,,11,,,46,127
94928,note_on,1,0,0,,0,,,60,127
95010,note_off,82,0,0,,2,,,74,127
95091,note_off,81,0,0,,0,,,60,127
95092,note_on,1,0,0,,2,,,74,127
95092,note_on,0,0,0,,10,,,57,127
95256,note_off,164,0,0,,10,,,57,127
95256,note_off,0,0,0,,2,,,74,127
95257,note_on,1,0,0,,4,,,76,127
95257,note_on,0,0,0,,0,,,48,127
95421,note_off,164,0,0,,0,,,48,127
95422,note_on,1,0,0,,2,,,62,127
95504,note_off,82,0,0,,4,,,76,127
95585,note_off,81,0,0,,2,,,62,127
95586,note_on,1,0,0,,4,,,76,127
95586,note_on,0,0,0,,11,,,58,127
95750,note_off,164,0,0,,11,,,58,127
95750,note_off,0,0,0,,4,,,76,127
95751,note_on,1,0,0,,5,,,77,127
95751,note_on,0,0,0,,2,,,50,127
95915,note_off,164,0,0,,2,,,50,127
95916,note_on,1,0,0,,4,,,64,127
95998,note_off,82,0,0,,5,,,77,127
96079,note_off,81,0,0,,4,,,64,127
96080,note_on,1,0,0,,5,,,77,127
96080,note_on,0,0,0,,0,,,60,127
96244,note_off,164,0,0,,0,,,60,127
96244,note_off,0,0,0,,5,,,77,127
96245,note_on,1,0,0,,7,,,79,127
96245,note_on,0,0,0,,4,,,52,127
96409,note_off,164,0,0,,4,,,52,127
96410,note_on,1,0,0,,5,,,65,127
96492,note_off,82,0,0,,7,,,79,127
96574,note_on,82,0,0,,7,,,79,127
96738,note_off,164,0,0,,7,,,79,127
96738,note_off,0,0,0,,5,,,65,127
96739,note_on,1,0,0,,11,,,82,127
96739,note_on,0,0,0,,11,,,58,127
96903,note_off,164,0,0,,11,,,58,127
96903,note_off,0,0,0,,11,,,82,127
96904,note_on,1,0,0,,10,,,81,127
96904,note_on,0,0,0,,0,,,60,127
97068,note_off,164,0,0,,10,,,81,127
97069,note_on,1,0,0,,5,,,77,127
97233,note_off,164,0,0,,5,,,77,127
97233,note_off,0,0,0,,0,,,60,127
97234,note_on,1,0,0,,4,,,76,127
97234,note_on,0,0,0,,0,,,48,127
97398,note_off,164,0,0,,0,,,48,127
97398,note_off,0,0,0,,4,,,76,127
97399,note_on,1,0,0,,4,,,76,127
97399,note_on,0,0,0,,5,,,53,127
97727,note_off,328,0,0,,4,,,76,127
97728,note_on,1,0,0,,5,,,77,127
97892,note_off,164,0,0,,5,,,77,127
97892,note_off,0,0,0,,5,,,53,127
97893,note_on,1,0,0,,10,,,57,127
98057,note_off,164,0,0,,10,,,57,127
98058,note_on,1,0,0,,0,,,72,127
98058,note_on,0,0,0,,5,,,53,127
98222,note_off,164,0,0,,5,,,53,127
98222,note_off,0,0,0,,0,,,72,127
98223,note_on,1,0,0,,0,,,84,127
98223,note_on,0,0,0,,10,,,45,127
98387,note_off,164,0,0,,10,,,45,127
98388,note_on,1,0,0,,11,,,58,127
98552,note_off,164,0,0,,11,,,58,127
98552,note_off,0,0,0,,0,,,84,127
98553,note_on,1,0,0,,2,,,74,127
98553,note_on,0,0,0,,7,,,55,127
98717,note_off,164,0,0,,7,,,55,127
98717,note_off,0,0,0,,2,,,74,127
98718,note_on,1,0,0,,2,,,86,127
98718,note_on,0,0,0,,11,,,46,127
98882,note_off,164,0,0,,11,,,46,127
98883,note_on,1,0,0,,0,,,60,127
99047,note_off,164,0,0,,0,,,60,127
99047,note_off,0,0,0,,2,,,86,127
99048,note_on,1,0,0,,4,,,76,127
99048,note_on,0,0,0,,10,,,57,127
99212,note_off,164,0,0,,10,,,57,127
99212,note_off,0,0,0,,4,,,76,127
99213,note_on,1,0,0,,4,,,88,127
99213,note_on,0,0,0,,0,,,48,127
99377,note_off,164,0,0,,0,,,48,127
99378,note_on,1,0,0,,2,,,62,127
99542,note_off,164,0,0,,2,,,62,127
99542,note_off,0,0,0,,4,,,88,127
99543,note_on,1,0,0,,5,,,77,127
99543,note_on,0,0,0,,11,,,58,127
99707,note_off,164,0,0,,11,,,58,127
99707,note_off,0,0,0,,5,,,77,127
99708,note_on,1,0,0,,5,,,89,127
99708,note_on,0,0,0,,2,,,50,127
99872,note_off,164,0,0,,2,,,50,127
99873,note_on,1,0,0,,4,,,64,127
100037,note_off,164,0,0,,4,,,64,127
100037,note_off,0,0,0,,5,,,89,127
100038,note_on,1,0,0,,7,,,79,127
100038,note_on,0,0,0,,0,,,60,127
100202,note_off,164,0,0,,0,,,60,127
100202,note_off,0,0,0,,7,,,79,127
100203,note_on,1,0,0,,7,,,91,127
100203,note_on,0,0,0,,4,,,52,127
100367,note_off,164,0,0,,4,,,52,127
100367,note_off,0,0,0,,7,,,91,127
100368,note_on,1,0,0,,10,,,81,127
100368,note_on,0,0,0,,5,,,89,127
100368,note_on,0,0,0,,5,,,65,127
100532,note_off,164,0,0,,10,,,81,127
100533,note_on,1,0,0,,11,,,82,127
100697,note_off,164,0,0,,11,,,82,127
100697,note_off,0,0,0,,5,,,65,127
100697,note_off,0,0,0,,5,,,89,127
100698,note_on,1,0,0,,10,,,81,127
100698,note_on,0,0,0,,0,,,84,127
100698,note_on,0,0,0,,11,,,58,127
100862,note_off,164,0,0,,11,,,58,127
100862,note_off,0,0,0,,0,,,84,127
100862,note_off,0,0,0,,10,,,81,127
100863,note_on,1,0,0,,7,,,79,127
100863,note_on,0,0,0,,11,,,82,127
100863,note_on,0,0,0,,0,,,60,127
101027,note_off,164,0,0,,11,,,82,127
101027,note_off,0,0,0,,7,,,79,127
101028,note_on,1,0,0,,5,,,77,127
101028,note_on,0,0,0,,10,,,81,127
101192,note_off,164,0,0,,10,,,81,127
101192,note_off,0,0,0,,5,,,77,127
101192,note_off,0,0,0,,0,,,60,127
101193,note_on,1,0,0,,4,,,76,127
101193,note_on,0,0,0,,7,,,79,127
101193,note_on,0,0,0,,0,,,48,127
101357,note_off,164,0,0,,0,,,48,127
101357,note_off,0,0,0,,7,,,79,127
101357,note_off,0,0,0,,4,,,76,127
101358,note_on,1,0,0,,5,,,77,127
101358,note_on,0,0,0,,5,,,53,127
101358,note_on,0,0,0,,5,,,41,127
101523,note_on,165,0,0,,5,,,89,127
101605,note_off,82,0,0,,5,,,77,127
101686,note_off,81,0,0,,5,,,89,127
101687,note_on,1,0,0,,0,,,84,127
101851,note_off,164,0,0,,0,,,84,127
101852,note_on,1,0,0,,10,,,81,127
102016,note_off,164,0,0,,10,,,81,127
102017,note_on,1,0,0,,5,,,77,127
102181,note_off,164,0,0,,5,,,77,127
102182,note_on,1,0,0,,0,,,72,127
102216,note_off,34,0,0,,5,,,41,127
102216,note_off,0,0,0,,5,,,53,127
102345,note_off,129,0,0,,0,,,72,127
102346,note_on,1,0,0,,2,,,74,127
102346,note_on,0,0,0,,11,,,58,127
102346,note_on,0,0,0,,11,,,46,127
102427,note_off,81,0,0,,2,,,74,127
102428,note_on,1,0,0,,0,,,84,127
102509,note_off,81,0,0,,0,,,84,127
102510,note_on,1,0,0,,11,,,82,127
102838,note_off,328,0,0,,11,,,46,127
102838,note_off,0,0,0,,11,,,58,127
102839,note_on,1,0,0,,0,,,60,127
102839,note_on,0,0,0,,0,,,48,127
103332,note_off,493,0,0,,0,,,48,127
103332,note_off,0,0,0,,0,,,60,127
103332,note_off,0,0,0,,11,,,82,127
103333,note_on,1,0,0,,10,,,81,127
103333,note_on,0,0,0,,5,,,53,127
103333,note_on,0,0,0,,5,,,41,127
103498,note_on,165,0,0,,5,,,89,127
103580,note_off,82,0,0,,10,,,81,127
103661,note_off,81,0,0,,5,,,89,127
103662,note_on,1,0,0,,0,,,84,127
103826,note_off,164,0,0,,0,,,84,127
103827,note_on,1,0,0,,10,,,81,127
103991,note_off,164,0,0,,10,,,81,127
103992,note_on,1,0,0,,5,,,77,127
104156,note_off,164,0,0,,5,,,77,127
104157,note_on,1,0,0,,0,,,72,127
104234,note_off,77,0,0,,5,,,41,127
104234,note_off,0,0,0,,5,,,53,127
104321,note_off,87,0,0,,0,,,72,127
104322,note_on,1,0,0,,2,,,74,127
104322,note_on,0,0,0,,11,,,58,127
104322,note_on,0,0,0,,11,,,46,127
104403,note_off,81,0,0,,2,,,74,127
104404,note_on,1,0,0,,10,,,81,127
104485,note_off,81,0,0,,10,,,81,127
104486,note_on,1,0,0,,7,,,79,127
104814,note_off,328,0,0,,11,,,46,127
104814,note_off,0,0,0,,11,,,58,127
104815,note_on,1,0,0,,0,,,60,127
104815,note_on,0,0,0,,0,,,48,127
105308,note_off,493,0,0,,0,,,48,127
105308,note_off,0,0,0,,0,,,60,127
105308,note_off,0,0,0,,7,,,79,127
105309,note_on,1,0,0,,5,,,77,127
105309,note_on,0,0,0,,5,,,41,127
105309,note_on,0,0,0,,5,,,53,127
105473,note_off,164,0,0,,5,,,77,127
105474,note_on,1,0,0,,5,,,77,127
105638,note_off,164,0,0,,5,,,77,127
105639,note_on,1,0,0,,0,,,72,127
105803,note_off,164,0,0,,0,,,72,127
105804,note_on,1,0,0,,10,,,69,127
105968,note_off,164,0,0,,10,,,69,127
105969,note_on,1,0,0,,5,,,65,127
106133,note_off,164,0,0,,5,,,65,127
106134,note_on,1,0,0,,0,,,60,127
106254,note_off,120,0,0,,5,,,53,127
106254,note_off,0,0,0,,5,,,41,127
106298,note_off,44,0,0,,0,,,60,127
106299,note_on,1,0,0,,2,,,62,127
106299,note_on,0,0,0,,11,,,34,127
106299,note_on,0,0,0,,11,,,46,127
106380,note_off,81,0,0,,2,,,62,127
106381,note_on,1,0,0,,0,,,72,127
106462,note_off,81,0,0,,0,,,72,127
106463,note_on,1,0,0,,11,,,70,127
106791,note_off,328,0,0,,11,,,46,127
106791,note_off,0,0,0,,11,,,34,127
106792,note_on,1,0,0,,0,,,48,127
106792,note_on,0,0,0,,0,,,36,127
107285,note_off,493,0,0,,0,,,36,127
107285,note_off,0,0,0,,0,,,48,127
107285,note_off,0,0,0,,11,,,70,127
107286,note_on,1,0,0,,10,,,69,127
107286,note_on,0,0,0,,5,,,41,127
107286,note_on,0,0,0,,5,,,53,127
107451,note_on,165,0,0,,5,,,77,127
107533,note_off,82,0,0,,10,,,69,127
107614,note_off,81,0,0,,5,,,77,127
107615,note_on,1,0,0,,0,,,72,127
107779,note_off,164,0,0,,0,,,72,127
107780,note_on,1,0,0,,10,,,69,127
107944,note_off,164,0,0,,10,,,69,127
107945,note_on,1,0,0,,5,,,65,127
108109,note_off,164,0,0,,5,,,65,127
108110,note_on,1,0,0,,0,,,60,127
108274,note_off,164,0,0,,0,,,60,127
108274,note_off,0,0,0,,5,,,53,127
108274,note_off,0,0,0,,5,,,41,127
108275,note_on,1,0,0,,2,,,62,127
108275,note_on,0,0,0,,11,,,34,127
108275,note_on,0,0,0,,11,,,46,127
108356,note_off,81,0,0,,2,,,62,127
108357,note_on,1,0,0,,10,,,69,127
108438,note_off,81,0,0,,10,,,69,127
108439,note_on,1,0,0,,7,,,67,127
108767,note_off,328,0,0,,11,,,46,127
108767,note_off,0,0,0,,11,,,34,127
108768,note_on,1,0,0,,0,,,48,127
108768,note_on,0,0,0,,0,,,36,127
109261,note_off,493,0,0,,0,,,36,127
109261,note_off,0,0,0,,0,,,48,127
109261,note_off,0,0,0,,7,,,67,127
109262,note_on,1,0,0,,7,,,67,127
109262,note_on,0,0,0,,5,,,53,127
109262,note_on,0,0,0,,5,,,41,127
109306,note_on,44,0,0,,5,,,65,127
109316,note_off,10,0,0,,7,,,67,127
109349,note_on,33,0,0,,7,,,67,127
109359,note_off,10,0,0,,5,,,65,127
109392,note_on,33,0,0,,5,,,65,127
109402,note_off,10,0,0,,7,,,67,127
111647,note_off,2245,0,0,,5,,,65,127
111647,note_off,0,0,0,,5,,,41,127
111647,note_off,0,0,0,,5,,,53,127
113664,end_of_track,2017,1,0,,,,,,
