tick,type,time,meta,track,program,channel,pitch,tempo,note,velocity
0,copyright,0,1,0,,,,,,
0,program_change,0,0,0,6,0,,,,
0,pitchwheel,0,0,0,,0,0,,,
0,program_change,0,0,0,6,1,,,,
0,pitchwheel,0,0,0,,1,-590,,,
0,program_change,0,0,0,6,2,,,,
0,pitchwheel,0,0,0,,2,-272,,,
0,program_change,0,0,0,6,3,,,,
0,pitchwheel,0,0,0,,3,-353,,,
0,program_change,0,0,0,6,4,,,,
0,pitchwheel,0,0,0,,4,-560,,,
0,program_change,0,0,0,6,5,,,,
0,pitchwheel,0,0,0,,5,-80,,,
0,program_change,0,0,0,6,6,,,,
0,pitchwheel,0,0,0,,6,-625,,,
0,program_change,0,0,0,6,7,,,,
0,pitchwheel,0,0,0,,7,-130,,,
0,program_change,0,0,0,6,8,,,,
0,pitchwheel,0,0,0,,8,-512,,,
0,program_change,0,0,0,6,10,,,,
0,pitchwheel,0,0,0,,10,-464,,,
0,program_change,0,0,0,6,11,,,,
0,pitchwheel,0,0,0,,11,-208,,,
0,program_change,0,0,0,6,12,,,,
0,pitchwheel,0,0,0,,12,-553,,,
0,set_tempo,0,1,0,,,,500000,,
230,note_on,230,0,0,,0,,,72,127
230,note_on,0,0,0,,10,,,69,127
457,note_off,227,0,0,,10,,,69,127
457,note_off,0,0,0,,0,,,72,127
461,note_on,4,0,0,,2,,,74,127
461,note_on,0,0,0,,11,,,70,127
688,note_off,227,0,0,,11,,,70,127
688,note_off,0,0,0,,2,,,74,127
692,note_on,4,0,0,,10,,,69,127
692,note_on,0,0,0,,0,,,72,127
919,note_off,227,0,0,,0,,,72,127
919,note_off,0,0,0,,10,,,69,127
923,note_on,4,0,0,,11,,,70,127
923,note_on,0,0,0,,7,,,67,127
1150,note_off,227,0,0,,7,,,67,127
1154,note_on,4,0,0,,0,,,60,127
1380,note_off,226,0,0,,11,,,70,127
1381,note_off,1,0,0,,0,,,60,127
1385,note_on,4,0,0,,5,,,65,127
1385,note_on,0,0,0,,10,,,69,127
1589,note_off,204,0,0,,10,,,69,127
1601,note_off,12,0,0,,5,,,65,127
1615,note_on,14,0,0,,10,,,69,127
1615,note_on,0,0,0,,0,,,72,127
1842,note_off,227,0,0,,0,,,72,127
1842,note_off,0,0,0,,10,,,69,127
1846,note_on,4,0,0,,11,,,70,127
1846,note_on,0,0,0,,2,,,74,127
2073,note_off,227,0,0,,2,,,74,127
2073,note_off,0,0,0,,11,,,70,127
2077,note_on,4,0,0,,10,,,69,127
2077,note_on,0,0,0,,0,,,72,127
2304,note_off,227,0,0,,0,,,72,127
2304,note_off,0,0,0,,10,,,69,127
2308,note_on,4,0,0,,7,,,67,127
2308,note_on,0,0,0,,11,,,70,127
2535,note_off,227,0,0,,7,,,67,127
2539,note_on,4,0,0,,0,,,60,127
2765,note_off,226,0,0,,11,,,70,127
2766,note_off,1,0,0,,0,,,60,127
2770,note_on,4,0,0,,10,,,69,127
2770,note_on,0,0,0,,5,,,65,127
2998,note_off,228,0,0,,5,,,65,127
2998,note_off,0,0,0,,10,,,69,127
3000,note_on,2,0,0,,10,,,57,127
3000,note_on,0,0,0,,0,,,60,127
3227,note_off,227,0,0,,0,,,60,127
3227,note_off,0,0,0,,10,,,57,127
3231,note_on,4,0,0,,2,,,62,127
3231,note_on,0,0,0,,11,,,58,127
3458,note_off,227,0,0,,11,,,58,127
3458,note_off,0,0,0,,2,,,62,127
3462,note_on,4,0,0,,0,,,60,127
3462,note_on,0,0,0,,10,,,57,127
3689,note_off,227,0,0,,10,,,57,127
3689,note_off,0,0,0,,0,,,60,127
3693,note_on,4,0,0,,5,,,77,127
3693,note_on,0,0,0,,7,,,55,127
3693,note_on,0,0,0,,11,,,58,127
3766,note_off,73,0,0,,5,,,77,127
3770,note_on,4,0,0,,4,,,76,127
3843,note_off,73,0,0,,4,,,76,127
3847,note_on,4,0,0,,5,,,77,127
3920,note_off,73,0,0,,5,,,77,127
3920,note_off,0,0,0,,7,,,55,127
3924,note_on,4,0,0,,4,,,76,127
3924,note_on,0,0,0,,0,,,48,127
3997,note_off,73,0,0,,4,,,76,127
4001,note_on,4,0,0,,2,,,74,127
4074,note_off,73,0,0,,2,,,74,127
4078,note_on,4,0,0,,4,,,76,127
4150,note_off,72,0,0,,11,,,58,127
4151,note_off,1,0,0,,4,,,76,127
4151,note_off,0,0,0,,0,,,48,127
4155,note_on,4,0,0,,5,,,77,127
4155,note_on,0,0,0,,10,,,57,127
4155,note_on,0,0,0,,5,,,53,127
4382,note_off,227,0,0,,5,,,53,127
4382,note_off,0,0,0,,10,,,57,127
4386,note_on,4,0,0,,10,,,57,127
4386,note_on,0,0,0,,0,,,60,127
4613,note_off,227,0,0,,0,,,60,127
4613,note_off,0,0,0,,10,,,57,127
4617,note_on,4,0,0,,2,,,62,127
4617,note_on,0,0,0,,11,,,58,127
4729,note_off,112,0,0,,5,,,77,127
4733,note_on,4,0,0,,4,,,76,127
4845,note_off,112,0,0,,4,,,76,127
4845,note_off,0,0,0,,11,,,58,127
4845,note_off,0,0,0,,2,,,62,127
4849,note_on,4,0,0,,2,,,74,127
4849,note_on,0,0,0,,10,,,57,127
4849,note_on,0,0,0,,0,,,60,127
4961,note_off,112,0,0,,2,,,74,127
4965,note_on,4,0,0,,0,,,72,127
5077,note_off,112,0,0,,0,,,72,127
5077,note_off,0,0,0,,0,,,60,127
5077,note_off,0,0,0,,10,,,57,127
5081,note_on,4,0,0,,0,,,72,127
5081,note_on,0,0,0,,7,,,55,127
5081,note_on,0,0,0,,11,,,58,127
5154,note_off,73,0,0,,0,,,72,127
5158,note_on,4,0,0,,11,,,70,127
5231,note_off,73,0,0,,11,,,70,127
5235,note_on,4,0,0,,0,,,72,127
5308,note_off,73,0,0,,0,,,72,127
5308,note_off,0,0,0,,7,,,55,127
5312,note_on,4,0,0,,11,,,70,127
5312,note_on,0,0,0,,0,,,48,127
5385,note_off,73,0,0,,11,,,70,127
5389,note_on,4,0,0,,10,,,69,127
5462,note_off,73,0,0,,10,,,69,127
5466,note_on,4,0,0,,11,,,70,127
5538,note_off,72,0,0,,11,,,58,127
5539,note_off,1,0,0,,11,,,70,127
5539,note_off,0,0,0,,0,,,48,127
5543,note_on,4,0,0,,10,,,69,127
5543,note_on,0,0,0,,5,,,53,127
5543,note_on,0,0,0,,10,,,57,127
5770,note_off,227,0,0,,10,,,69,127
5774,note_on,4,0,0,,0,,,72,127
5886,note_off,112,0,0,,0,,,72,127
5890,note_on,4,0,0,,10,,,69,127
6000,note_off,110,0,0,,10,,,57,127
6000,note_off,0,0,0,,5,,,53,127
6001,note_off,1,0,0,,10,,,69,127
6005,note_on,4,0,0,,5,,,65,127
6235,note_on,230,0,0,,10,,,57,127
6235,note_on,0,0,0,,0,,,60,127
6462,note_off,227,0,0,,0,,,60,127
6462,note_off,0,0,0,,10,,,57,127
6466,note_on,4,0,0,,2,,,62,127
6466,note_on,0,0,0,,11,,,58,127
6629,note_off,163,0,0,,5,,,65,127
6696,note_on,67,0,0,,2,,,74,127
6808,note_off,112,0,0,,2,,,74,127
6812,note_on,4,0,0,,11,,,70,127
6922,note_off,110,0,0,,11,,,58,127
6922,note_off,0,0,0,,2,,,62,127
6923,note_off,1,0,0,,11,,,70,127
6927,note_on,4,0,0,,7,,,67,127
7157,note_on,230,0,0,,2,,,62,127
7157,note_on,0,0,0,,12,,,59,127
7384,note_off,227,0,0,,12,,,59,127
7384,note_off,0,0,0,,2,,,62,127
7388,note_on,4,0,0,,0,,,60,127
7388,note_on,0,0,0,,4,,,64,127
7575,note_off,187,0,0,,7,,,67,127
7618,note_on,43,0,0,,7,,,79,127
7730,note_off,112,0,0,,7,,,79,127
7734,note_on,4,0,0,,0,,,72,127
7844,note_off,110,0,0,,4,,,64,127
7844,note_off,0,0,0,,0,,,60,127
7845,note_off,1,0,0,,0,,,72,127
7849,note_on,4,0,0,,11,,,70,127
8079,note_on,230,0,0,,7,,,67,127
8079,note_on,0,0,0,,4,,,64,127
8079,note_on,0,0,0,,0,,,60,127
8306,note_off,227,0,0,,0,,,60,127
8306,note_off,0,0,0,,4,,,64,127
8306,note_off,0,0,0,,7,,,67,127
8310,note_on,4,0,0,,5,,,65,127
8537,note_off,227,0,0,,5,,,65,127
8537,note_off,0,0,0,,11,,,70,127
8541,note_on,4,0,0,,10,,,69,127
8541,note_on,0,0,0,,10,,,57,127
8768,note_off,227,0,0,,10,,,57,127
8768,note_off,0,0,0,,10,,,69,127
8772,note_on,4,0,0,,7,,,67,127
8772,note_on,0,0,0,,11,,,58,127
8999,note_off,227,0,0,,11,,,58,127
8999,note_off,0,0,0,,7,,,67,127
9003,note_on,4,0,0,,5,,,65,127
9003,note_on,0,0,0,,2,,,62,127
9230,note_off,227,0,0,,2,,,62,127
9230,note_off,0,0,0,,5,,,65,127
9234,note_on,4,0,0,,10,,,69,127
9234,note_on,0,0,0,,0,,,60,127
9307,note_off,73,0,0,,10,,,69,127
9311,note_on,4,0,0,,7,,,67,127
9384,note_off,73,0,0,,7,,,67,127
9388,note_on,4,0,0,,10,,,69,127
9461,note_off,73,0,0,,10,,,69,127
9461,note_off,0,0,0,,0,,,60,127
9465,note_on,4,0,0,,7,,,67,127
9465,note_on,0,0,0,,0,,,48,127
9538,note_off,73,0,0,,7,,,67,127
9542,note_on,4,0,0,,5,,,65,127
9615,note_off,73,0,0,,5,,,65,127
9619,note_on,4,0,0,,7,,,67,127
9692,note_off,73,0,0,,7,,,67,127
9692,note_off,0,0,0,,0,,,48,127
9696,note_on,4,0,0,,5,,,65,127
9696,note_on,0,0,0,,5,,,41,127
9869,note_off,173,0,0,,5,,,65,127
9927,note_on,58,0,0,,0,,,84,127
10039,note_off,112,0,0,,0,,,84,127
10043,note_off,4,0,0,,5,,,41,127
10043,note_on,0,0,0,,8,,,80,127
10155,note_off,112,0,0,,8,,,80,127
10159,note_on,4,0,0,,5,,,77,127
10389,note_on,230,0,0,,1,,,73,127
10501,note_off,112,0,0,,1,,,73,127
10505,note_on,4,0,0,,11,,,70,127
10617,note_off,112,0,0,,11,,,70,127
10617,note_off,0,0,0,,5,,,77,127
10621,note_on,4,0,0,,8,,,80,127
10621,note_on,0,0,0,,0,,,36,127
10694,note_off,73,0,0,,8,,,80,127
10698,note_on,4,0,0,,7,,,79,127
10771,note_off,73,0,0,,7,,,79,127
10775,note_on,4,0,0,,8,,,80,127
10848,note_off,73,0,0,,8,,,80,127
10852,note_on,4,0,0,,7,,,79,127
10925,note_off,73,0,0,,7,,,79,127
10929,note_on,4,0,0,,8,,,80,127
11002,note_off,73,0,0,,8,,,80,127
11006,note_on,4,0,0,,11,,,82,127
11079,note_off,73,0,0,,11,,,82,127
11079,note_off,0,0,0,,0,,,36,127
11083,note_on,4,0,0,,8,,,80,127
11083,note_on,0,0,0,,5,,,41,127
11310,note_off,227,0,0,,8,,,80,127
11314,note_on,4,0,0,,0,,,84,127
11426,note_off,112,0,0,,0,,,84,127
11430,note_on,4,0,0,,8,,,80,127
11540,note_off,110,0,0,,5,,,41,127
11541,note_off,1,0,0,,8,,,80,127
11545,note_on,4,0,0,,5,,,77,127
11775,note_on,230,0,0,,1,,,73,127
11887,note_off,112,0,0,,1,,,73,127
11891,note_on,4,0,0,,11,,,70,127
12003,note_off,112,0,0,,11,,,70,127
12003,note_off,0,0,0,,5,,,77,127
12007,note_on,4,0,0,,7,,,79,127
12007,note_on,0,0,0,,0,,,36,127
12069,note_off,62,0,0,,7,,,79,127
12073,note_on,4,0,0,,5,,,77,127
12135,note_off,62,0,0,,5,,,77,127
12139,note_on,4,0,0,,7,,,79,127
12201,note_off,62,0,0,,7,,,79,127
12205,note_on,4,0,0,,5,,,77,127
12267,note_off,62,0,0,,5,,,77,127
12271,note_on,4,0,0,,4,,,76,127
12333,note_off,62,0,0,,4,,,76,127
12337,note_on,4,0,0,,5,,,77,127
12399,note_off,62,0,0,,5,,,77,127
12403,note_on,4,0,0,,7,,,79,127
12464,note_off,61,0,0,,7,,,79,127
12464,note_off,0,0,0,,0,,,36,127
12468,note_on,4,0,0,,8,,,80,127
12468,note_on,0,0,0,,5,,,41,127
12580,note_off,112,0,0,,8,,,80,127
12584,note_on,4,0,0,,0,,,84,127
12696,note_off,112,0,0,,0,,,84,127
12700,note_on,4,0,0,,11,,,82,127
12812,note_off,112,0,0,,11,,,82,127
12816,note_on,4,0,0,,8,,,80,127
12928,note_off,112,0,0,,8,,,80,127
12928,note_off,0,0,0,,5,,,41,127
12932,note_on,4,0,0,,11,,,82,127
12932,note_on,0,0,0,,7,,,43,127
13044,note_off,112,0,0,,11,,,82,127
13048,note_on,4,0,0,,8,,,80,127
13160,note_off,112,0,0,,8,,,80,127
13164,note_on,4,0,0,,7,,,79,127
13276,note_off,112,0,0,,7,,,79,127
13280,note_on,4,0,0,,5,,,77,127
13392,note_off,112,0,0,,5,,,77,127
13392,note_off,0,0,0,,7,,,43,127
13396,note_on,4,0,0,,3,,,75,127
13396,note_on,0,0,0,,3,,,39,127
13508,note_off,112,0,0,,3,,,75,127
13512,note_on,4,0,0,,1,,,73,127
13624,note_off,112,0,0,,1,,,73,127
13628,note_on,4,0,0,,0,,,72,127
13740,note_off,112,0,0,,0,,,72,127
13744,note_on,4,0,0,,11,,,70,127
13856,note_off,112,0,0,,11,,,70,127
13856,note_off,0,0,0,,3,,,39,127
13860,note_on,4,0,0,,0,,,72,127
13860,note_on,0,0,0,,8,,,44,127
14087,note_off,227,0,0,,0,,,72,127
14091,note_on,4,0,0,,3,,,75,127
14203,note_off,112,0,0,,3,,,75,127
14207,note_on,4,0,0,,0,,,72,127
14317,note_off,110,0,0,,8,,,44,127
14318,note_off,1,0,0,,0,,,72,127
14322,note_on,4,0,0,,8,,,68,127
14552,note_on,230,0,0,,5,,,65,127
14664,note_off,112,0,0,,5,,,65,127
14668,note_on,4,0,0,,1,,,61,127
14754,note_off,86,0,0,,8,,,68,127
14779,note_off,25,0,0,,1,,,61,127
14783,note_on,4,0,0,,0,,,72,127
14783,note_on,0,0,0,,3,,,39,127
14856,note_off,73,0,0,,0,,,72,127
14860,note_on,4,0,0,,11,,,70,127
14933,note_off,73,0,0,,11,,,70,127
14937,note_on,4,0,0,,0,,,72,127
15010,note_off,73,0,0,,0,,,72,127
15014,note_on,4,0,0,,11,,,70,127
15087,note_off,73,0,0,,11,,,70,127
15091,note_on,4,0,0,,0,,,72,127
15164,note_off,73,0,0,,0,,,72,127
15168,note_on,4,0,0,,1,,,73,127
15241,note_off,73,0,0,,1,,,73,127
15241,note_off,0,0,0,,3,,,39,127
15245,note_on,4,0,0,,0,,,72,127
15245,note_on,0,0,0,,8,,,44,127
15472,note_off,227,0,0,,0,,,72,127
15476,note_on,4,0,0,,3,,,75,127
15588,note_off,112,0,0,,3,,,75,127
15592,note_on,4,0,0,,0,,,72,127
15702,note_off,110,0,0,,8,,,44,127
15703,note_off,1,0,0,,0,,,72,127
15707,note_on,4,0,0,,8,,,68,127
15937,note_on,230,0,0,,5,,,65,127
16049,note_off,112,0,0,,5,,,65,127
16053,note_on,4,0,0,,1,,,61,127
16139,note_off,86,0,0,,8,,,68,127
16164,note_off,25,0,0,,1,,,61,127
16168,note_on,4,0,0,,11,,,70,127
16168,note_on,0,0,0,,3,,,39,127
16230,note_off,62,0,0,,11,,,70,127
16234,note_on,4,0,0,,8,,,68,127
16296,note_off,62,0,0,,8,,,68,127
16300,note_on,4,0,0,,11,,,70,127
16362,note_off,62,0,0,,11,,,70,127
16366,note_on,4,0,0,,8,,,68,127
16428,note_off,62,0,0,,8,,,68,127
16432,note_on,4,0,0,,7,,,67,127
16494,note_off,62,0,0,,7,,,67,127
16498,note_on,4,0,0,,8,,,68,127
16560,note_off,62,0,0,,8,,,68,127
16564,note_on,4,0,0,,11,,,70,127
16625,note_off,61,0,0,,11,,,70,127
16625,note_off,0,0,0,,3,,,39,127
16629,note_on,4,0,0,,0,,,72,127
16629,note_on,0,0,0,,8,,,44,127
16741,note_off,112,0,0,,0,,,72,127
16745,note_on,4,0,0,,11,,,70,127
16857,note_off,112,0,0,,11,,,70,127
16857,note_off,0,0,0,,8,,,44,127
16861,note_on,4,0,0,,0,,,72,127
16861,note_on,0,0,0,,8,,,56,127
16973,note_off,112,0,0,,0,,,72,127
16977,note_on,4,0,0,,1,,,73,127
17089,note_off,112,0,0,,1,,,73,127
17093,note_on,4,0,0,,3,,,75,127
17205,note_off,112,0,0,,3,,,75,127
17209,note_on,4,0,0,,5,,,77,127
17321,note_off,112,0,0,,5,,,77,127
17321,note_off,0,0,0,,8,,,56,127
17325,note_on,4,0,0,,6,,,78,127
17325,note_on,0,0,0,,6,,,54,127
17437,note_off,112,0,0,,6,,,78,127
17441,note_on,4,0,0,,11,,,70,127
17553,note_off,112,0,0,,11,,,70,127
17553,note_off,0,0,0,,6,,,54,127
17557,note_on,4,0,0,,10,,,69,127
17557,note_on,0,0,0,,5,,,53,127
17630,note_off,73,0,0,,10,,,69,127
17634,note_on,4,0,0,,11,,,70,127
17707,note_off,73,0,0,,11,,,70,127
17711,note_on,4,0,0,,0,,,72,127
17784,note_off,73,0,0,,0,,,72,127
17784,note_off,0,0,0,,5,,,53,127
17788,note_on,4,0,0,,0,,,72,127
17788,note_on,0,0,0,,3,,,51,127
17861,note_off,73,0,0,,0,,,72,127
17865,note_on,4,0,0,,11,,,70,127
17938,note_off,73,0,0,,11,,,70,127
17942,note_on,4,0,0,,10,,,69,127
18015,note_off,73,0,0,,10,,,69,127
18015,note_off,0,0,0,,3,,,51,127
18019,note_on,4,0,0,,11,,,70,127
18019,note_on,0,0,0,,1,,,49,127
18192,note_off,173,0,0,,11,,,70,127
18246,note_off,54,0,0,,1,,,49,127
18250,note_on,4,0,0,,5,,,77,127
18250,note_on,0,0,0,,11,,,46,127
18362,note_off,112,0,0,,5,,,77,127
18366,note_on,4,0,0,,1,,,73,127
18478,note_off,112,0,0,,1,,,73,127
18482,note_on,4,0,0,,11,,,70,127
18597,note_off,115,0,0,,11,,,46,127
18712,note_on,115,0,0,,6,,,66,127
18824,note_off,112,0,0,,6,,,66,127
18828,note_on,4,0,0,,3,,,63,127
18920,note_off,92,0,0,,11,,,70,127
18939,note_off,19,0,0,,3,,,63,127
18943,note_on,4,0,0,,1,,,73,127
18943,note_on,0,0,0,,5,,,41,127
19016,note_off,73,0,0,,1,,,73,127
19020,note_on,4,0,0,,0,,,72,127
19093,note_off,73,0,0,,0,,,72,127
19097,note_on,4,0,0,,1,,,73,127
19170,note_off,73,0,0,,1,,,73,127
19174,note_on,4,0,0,,0,,,72,127
19247,note_off,73,0,0,,0,,,72,127
19251,note_on,4,0,0,,1,,,73,127
19324,note_off,73,0,0,,1,,,73,127
19328,note_on,4,0,0,,3,,,75,127
19401,note_off,73,0,0,,3,,,75,127
19401,note_off,0,0,0,,5,,,41,127
19405,note_on,4,0,0,,1,,,73,127
19405,note_on,0,0,0,,11,,,46,127
19632,note_off,227,0,0,,1,,,73,127
19636,note_on,4,0,0,,5,,,77,127
19748,note_off,112,0,0,,5,,,77,127
19752,note_on,4,0,0,,1,,,73,127
19862,note_off,110,0,0,,11,,,46,127
19863,note_off,1,0,0,,1,,,73,127
19867,note_on,4,0,0,,11,,,70,127
20097,note_on,230,0,0,,6,,,66,127
20209,note_off,112,0,0,,6,,,66,127
20213,note_on,4,0,0,,3,,,63,127
20311,note_off,98,0,0,,11,,,70,127
20324,note_off,13,0,0,,3,,,63,127
20328,note_on,4,0,0,,0,,,72,127
20328,note_on,0,0,0,,5,,,41,127
20390,note_off,62,0,0,,0,,,72,127
20394,note_on,4,0,0,,11,,,70,127
20456,note_off,62,0,0,,11,,,70,127
20460,note_on,4,0,0,,0,,,72,127
20522,note_off,62,0,0,,0,,,72,127
20526,note_on,4,0,0,,11,,,70,127
20588,note_off,62,0,0,,11,,,70,127
20592,note_on,4,0,0,,10,,,69,127
20654,note_off,62,0,0,,10,,,69,127
20658,note_on,4,0,0,,11,,,70,127
20720,note_off,62,0,0,,11,,,70,127
20724,note_on,4,0,0,,0,,,72,127
20785,note_off,61,0,0,,0,,,72,127
20785,note_off,0,0,0,,5,,,41,127
20789,note_on,4,0,0,,1,,,73,127
20789,note_on,0,0,0,,11,,,46,127
20901,note_off,112,0,0,,1,,,73,127
20905,note_on,4,0,0,,0,,,72,127
21017,note_off,112,0,0,,0,,,72,127
21017,note_off,0,0,0,,11,,,46,127
21021,note_on,4,0,0,,1,,,73,127
21021,note_on,0,0,0,,11,,,58,127
21133,note_off,112,0,0,,1,,,73,127
21137,note_on,4,0,0,,3,,,75,127
21249,note_off,112,0,0,,3,,,75,127
21253,note_on,4,0,0,,5,,,77,127
21365,note_off,112,0,0,,5,,,77,127
21369,note_on,4,0,0,,7,,,79,127
21481,note_off,112,0,0,,7,,,79,127
21481,note_off,0,0,0,,11,,,58,127
21485,note_on,4,0,0,,8,,,80,127
21485,note_on,0,0,0,,8,,,56,127
21597,note_off,112,0,0,,8,,,80,127
21601,note_on,4,0,0,,0,,,72,127
21713,note_off,112,0,0,,0,,,72,127
21713,note_off,0,0,0,,8,,,56,127
21717,note_on,4,0,0,,12,,,71,127
21717,note_on,0,0,0,,7,,,55,127
21790,note_off,73,0,0,,12,,,71,127
21794,note_on,4,0,0,,0,,,72,127
21867,note_off,73,0,0,,0,,,72,127
21871,note_on,4,0,0,,2,,,74,127
21944,note_off,73,0,0,,2,,,74,127
21944,note_off,0,0,0,,7,,,55,127
21948,note_on,4,0,0,,2,,,74,127
21948,note_on,0,0,0,,5,,,53,127
22021,note_off,73,0,0,,2,,,74,127
22025,note_on,4,0,0,,0,,,72,127
22098,note_off,73,0,0,,0,,,72,127
22102,note_on,4,0,0,,12,,,71,127
22175,note_off,73,0,0,,12,,,71,127
22175,note_off,0,0,0,,5,,,53,127
22179,note_on,4,0,0,,0,,,72,127
22179,note_on,0,0,0,,3,,,51,127
22352,note_off,173,0,0,,0,,,72,127
22406,note_off,54,0,0,,3,,,51,127
22410,note_on,4,0,0,,7,,,79,127
22410,note_on,0,0,0,,0,,,48,127
22522,note_off,112,0,0,,7,,,79,127
22526,note_on,4,0,0,,3,,,75,127
22638,note_off,112,0,0,,3,,,75,127
22642,note_on,4,0,0,,0,,,72,127
22757,note_off,115,0,0,,0,,,48,127
22872,note_on,115,0,0,,7,,,67,127
22984,note_off,112,0,0,,7,,,67,127
22988,note_on,4,0,0,,3,,,63,127
23086,note_off,98,0,0,,0,,,72,127
23099,note_off,13,0,0,,3,,,63,127
23103,note_on,4,0,0,,3,,,75,127
23103,note_on,0,0,0,,7,,,43,127
23176,note_off,73,0,0,,3,,,75,127
23180,note_on,4,0,0,,2,,,74,127
23253,note_off,73,0,0,,2,,,74,127
23257,note_on,4,0,0,,3,,,75,127
23330,note_off,73,0,0,,3,,,75,127
23334,note_on,4,0,0,,2,,,74,127
23407,note_off,73,0,0,,2,,,74,127
23411,note_on,4,0,0,,3,,,75,127
23484,note_off,73,0,0,,3,,,75,127
23488,note_on,4,0,0,,5,,,77,127
23561,note_off,73,0,0,,5,,,77,127
23561,note_off,0,0,0,,7,,,43,127
23565,note_on,4,0,0,,3,,,75,127
23565,note_on,0,0,0,,0,,,48,127
23792,note_off,227,0,0,,3,,,75,127
23796,note_on,4,0,0,,7,,,79,127
23908,note_off,112,0,0,,7,,,79,127
23912,note_on,4,0,0,,3,,,75,127
24022,note_off,110,0,0,,0,,,48,127
24023,note_off,1,0,0,,3,,,75,127
24027,note_on,4,0,0,,0,,,72,127
24257,note_on,230,0,0,,8,,,68,127
24369,note_off,112,0,0,,8,,,68,127
24373,note_on,4,0,0,,5,,,65,127
24471,note_off,98,0,0,,0,,,72,127
24484,note_off,13,0,0,,5,,,65,127
24485,note_on,1,0,0,,2,,,74,127
24487,note_on,2,0,0,,7,,,43,127
24549,note_off,62,0,0,,2,,,74,127
24553,note_on,4,0,0,,0,,,72,127
24615,note_off,62,0,0,,0,,,72,127
24619,note_on,4,0,0,,2,,,74,127
24681,note_off,62,0,0,,2,,,74,127
24685,note_on,4,0,0,,0,,,72,127
24747,note_off,62,0,0,,0,,,72,127
24751,note_on,4,0,0,,12,,,71,127
24813,note_off,62,0,0,,12,,,71,127
24817,note_on,4,0,0,,0,,,72,127
24879,note_off,62,0,0,,0,,,72,127
24883,note_on,4,0,0,,2,,,74,127
24944,note_off,61,0,0,,2,,,74,127
24944,note_off,0,0,0,,7,,,43,127
24948,note_on,4,0,0,,3,,,75,127
24948,note_on,0,0,0,,0,,,48,127
25060,note_off,112,0,0,,3,,,75,127
25064,note_on,4,0,0,,3,,,75,127
25176,note_off,112,0,0,,3,,,75,127
25180,note_on,4,0,0,,5,,,77,127
25292,note_off,112,0,0,,5,,,77,127
25296,note_on,4,0,0,,7,,,79,127
25408,note_off,112,0,0,,7,,,79,127
25408,note_off,0,0,0,,0,,,48,127
25412,note_on,4,0,0,,5,,,77,127
25412,note_on,0,0,0,,5,,,41,127
25524,note_off,112,0,0,,5,,,77,127
25528,note_on,4,0,0,,3,,,75,127
25640,note_off,112,0,0,,3,,,75,127
25644,note_on,4,0,0,,2,,,74,127
25756,note_off,112,0,0,,2,,,74,127
25760,note_on,4,0,0,,3,,,75,127
25872,note_off,112,0,0,,3,,,75,127
25872,note_off,0,0,0,,5,,,41,127
25876,note_on,4,0,0,,2,,,74,127
25876,note_on,0,0,0,,8,,,44,127
25988,note_off,112,0,0,,2,,,74,127
25992,note_on,4,0,0,,0,,,72,127
26104,note_off,112,0,0,,0,,,72,127
26108,note_on,4,0,0,,12,,,71,127
26220,note_off,112,0,0,,12,,,71,127
26224,note_on,4,0,0,,0,,,72,127
26310,note_off,86,0,0,,8,,,44,127
26335,note_off,25,0,0,,0,,,72,127
26339,note_on,4,0,0,,0,,,72,127
26454,note_on,115,0,0,,7,,,43,127
26566,note_off,112,0,0,,7,,,43,127
26566,note_off,0,0,0,,0,,,72,127
26570,note_on,4,0,0,,12,,,71,127
26570,note_on,0,0,0,,12,,,47,127
26682,note_off,112,0,0,,12,,,47,127
26686,note_on,4,0,0,,2,,,50,127
26798,note_off,112,0,0,,2,,,50,127
26802,note_on,4,0,0,,7,,,55,127
26914,note_off,112,0,0,,7,,,55,127
26918,note_off,4,0,0,,12,,,71,127
26918,note_on,0,0,0,,12,,,59,127
27030,note_off,112,0,0,,12,,,59,127
27034,note_on,4,0,0,,7,,,79,127
27034,note_on,0,0,0,,2,,,62,127
27146,note_off,112,0,0,,2,,,62,127
27146,note_off,0,0,0,,7,,,79,127
27150,note_on,4,0,0,,3,,,75,127
27150,note_on,0,0,0,,7,,,67,127
27262,note_off,112,0,0,,7,,,67,127
27262,note_off,0,0,0,,3,,,75,127
27266,note_on,4,0,0,,2,,,74,127
27266,note_on,0,0,0,,8,,,56,127
27493,note_off,227,0,0,,2,,,74,127
27497,note_on,4,0,0,,0,,,72,127
27497,note_on,0,0,0,,5,,,65,127
27723,note_off,226,0,0,,8,,,56,127
27724,note_off,1,0,0,,5,,,65,127
27728,note_on,4,0,0,,3,,,63,127
27728,note_on,0,0,0,,7,,,55,127
27955,note_off,227,0,0,,3,,,63,127
27959,note_on,4,0,0,,2,,,62,127
28071,note_off,112,0,0,,2,,,62,127
28075,note_on,4,0,0,,0,,,60,127
28187,note_off,112,0,0,,0,,,60,127
28187,note_off,0,0,0,,0,,,72,127
28191,note_on,4,0,0,,11,,,70,127
28191,note_on,0,0,0,,2,,,62,127
28418,note_off,227,0,0,,2,,,62,127
28418,note_off,0,0,0,,11,,,70,127
28422,note_on,4,0,0,,8,,,68,127
28422,note_on,0,0,0,,4,,,64,127
28534,note_off,112,0,0,,8,,,68,127
28538,note_on,4,0,0,,7,,,67,127
28650,note_off,112,0,0,,7,,,67,127
28650,note_off,0,0,0,,4,,,64,127
28652,note_off,2,0,0,,7,,,55,127
28653,note_on,1,0,0,,11,,,70,127
28653,note_on,0,0,0,,5,,,65,127
28653,note_on,0,0,0,,5,,,53,127
28765,note_off,112,0,0,,11,,,70,127
28769,note_on,4,0,0,,8,,,68,127
28881,note_off,112,0,0,,8,,,68,127
28885,note_on,4,0,0,,7,,,67,127
28997,note_off,112,0,0,,7,,,67,127
29001,note_on,4,0,0,,8,,,68,127
29111,note_off,110,0,0,,5,,,53,127
29111,note_off,0,0,0,,5,,,65,127
29112,note_off,1,0,0,,8,,,68,127
29116,note_on,4,0,0,,7,,,67,127
29231,note_on,115,0,0,,7,,,43,127
29343,note_off,112,0,0,,7,,,43,127
29347,note_on,4,0,0,,12,,,47,127
29459,note_off,112,0,0,,12,,,47,127
29463,note_on,4,0,0,,2,,,50,127
29573,note_off,110,0,0,,7,,,67,127
29574,note_off,1,0,0,,2,,,50,127
29578,note_on,4,0,0,,7,,,55,127
29690,note_off,112,0,0,,7,,,55,127
29694,note_on,4,0,0,,12,,,59,127
29806,note_off,112,0,0,,12,,,59,127
29810,note_on,4,0,0,,7,,,79,127
29810,note_on,0,0,0,,2,,,62,127
29922,note_off,112,0,0,,2,,,62,127
29922,note_off,0,0,0,,7,,,79,127
29926,note_on,4,0,0,,3,,,75,127
29926,note_on,0,0,0,,7,,,67,127
30038,note_off,112,0,0,,7,,,67,127
30038,note_off,0,0,0,,3,,,75,127
30042,note_on,4,0,0,,2,,,74,127
30042,note_on,0,0,0,,8,,,56,127
30269,note_off,227,0,0,,2,,,74,127
30273,note_on,4,0,0,,0,,,72,127
30273,note_on,0,0,0,,5,,,65,127
30499,note_off,226,0,0,,8,,,56,127
30500,note_off,1,0,0,,5,,,65,127
30504,note_on,4,0,0,,3,,,63,127
30504,note_on,0,0,0,,7,,,55,127
30731,note_off,227,0,0,,3,,,63,127
30735,note_on,4,0,0,,2,,,62,127
30847,note_off,112,0,0,,2,,,62,127
30851,note_on,4,0,0,,0,,,60,127
30963,note_off,112,0,0,,0,,,60,127
30963,note_off,0,0,0,,0,,,72,127
30967,note_on,4,0,0,,11,,,70,127
30967,note_on,0,0,0,,2,,,62,127
31194,note_off,227,0,0,,2,,,62,127
31194,note_off,0,0,0,,11,,,70,127
31198,note_on,4,0,0,,8,,,68,127
31198,note_on,0,0,0,,4,,,64,127
31310,note_off,112,0,0,,8,,,68,127
31314,note_on,4,0,0,,7,,,67,127
31426,note_off,112,0,0,,7,,,67,127
31426,note_off,0,0,0,,4,,,64,127
31428,note_off,2,0,0,,7,,,55,127
31429,note_on,1,0,0,,8,,,68,127
31429,note_on,0,0,0,,5,,,65,127
31429,note_on,0,0,0,,5,,,53,127
31541,note_off,112,0,0,,5,,,65,127
31545,note_on,4,0,0,,3,,,63,127
31657,note_off,112,0,0,,3,,,63,127
31657,note_off,0,0,0,,8,,,68,127
31661,note_on,4,0,0,,5,,,77,127
31661,note_on,0,0,0,,2,,,62,127
31773,note_off,112,0,0,,2,,,62,127
31777,note_on,4,0,0,,0,,,60,127
31887,note_off,110,0,0,,5,,,53,127
31888,note_off,1,0,0,,0,,,60,127
31892,note_on,4,0,0,,7,,,67,127
31892,note_on,0,0,0,,12,,,59,127
32118,note_off,226,0,0,,5,,,77,127
32119,note_off,1,0,0,,12,,,59,127
32123,note_on,4,0,0,,3,,,75,127
32123,note_on,0,0,0,,0,,,60,127
32349,note_off,226,0,0,,7,,,67,127
32350,note_off,1,0,0,,0,,,60,127
32350,note_off,0,0,0,,3,,,75,127
32354,note_on,4,0,0,,2,,,74,127
32354,note_on,0,0,0,,5,,,53,127
32581,note_off,227,0,0,,2,,,74,127
32585,note_on,4,0,0,,12,,,71,127
32812,note_off,227,0,0,,12,,,71,127
32816,note_on,4,0,0,,2,,,74,127
32816,note_on,0,0,0,,8,,,44,127
32889,note_off,73,0,0,,2,,,74,127
32893,note_on,4,0,0,,0,,,72,127
32966,note_off,73,0,0,,0,,,72,127
32970,note_on,4,0,0,,2,,,74,127
33043,note_off,73,0,0,,2,,,74,127
33045,note_off,2,0,0,,5,,,53,127
33046,note_on,1,0,0,,0,,,72,127
33119,note_off,73,0,0,,0,,,72,127
33123,note_on,4,0,0,,12,,,71,127
33196,note_off,73,0,0,,12,,,71,127
33200,note_on,4,0,0,,0,,,72,127
33273,note_off,73,0,0,,0,,,72,127
33273,note_off,0,0,0,,8,,,44,127
33277,note_on,4,0,0,,2,,,74,127
33277,note_on,0,0,0,,7,,,43,127
33389,note_off,112,0,0,,2,,,74,127
33393,note_on,4,0,0,,12,,,71,127
33505,note_off,112,0,0,,12,,,71,127
33509,note_on,4,0,0,,0,,,72,127
33621,note_off,112,0,0,,0,,,72,127
33625,note_on,4,0,0,,10,,,69,127
33737,note_off,112,0,0,,10,,,69,127
33741,note_on,4,0,0,,12,,,71,127
33853,note_off,112,0,0,,12,,,71,127
33857,note_on,4,0,0,,7,,,67,127
33969,note_off,112,0,0,,7,,,67,127
33973,note_on,4,0,0,,10,,,69,127
34085,note_off,112,0,0,,10,,,69,127
34089,note_on,4,0,0,,5,,,65,127
34201,note_off,112,0,0,,5,,,65,127
34205,note_on,4,0,0,,7,,,67,127
34317,note_off,112,0,0,,7,,,67,127
34321,note_on,4,0,0,,4,,,64,127
34433,note_off,112,0,0,,4,,,64,127
34437,note_on,4,0,0,,5,,,65,127
34549,note_off,112,0,0,,5,,,65,127
34553,note_on,4,0,0,,2,,,62,127
34665,note_off,112,0,0,,2,,,62,127
34665,note_off,0,0,0,,7,,,43,127
34669,note_on,4,0,0,,4,,,64,127
34669,note_on,0,0,0,,0,,,48,127
34842,note_off,173,0,0,,4,,,64,127
34900,note_on,58,0,0,,4,,,64,127
34943,note_off,43,0,0,,4,,,64,127
34947,note_on,4,0,0,,5,,,65,127
34994,note_on,47,0,0,,7,,,67,127
34998,note_off,4,0,0,,5,,,65,127
35039,note_off,41,0,0,,7,,,67,127
35041,note_on,2,0,0,,10,,,69,127
35088,note_on,47,0,0,,12,,,71,127
35095,note_off,7,0,0,,10,,,69,127
35127,note_off,32,0,0,,12,,,71,127
35127,note_off,0,0,0,,0,,,48,127
35131,note_on,4,0,0,,0,,,72,127
35131,note_on,0,0,0,,0,,,60,127
35243,note_off,112,0,0,,0,,,60,127
35247,note_on,4,0,0,,0,,,48,127
35359,note_off,112,0,0,,0,,,48,127
35363,note_on,4,0,0,,12,,,47,127
35475,note_off,112,0,0,,12,,,47,127
35479,note_on,4,0,0,,12,,,59,127
35591,note_off,112,0,0,,12,,,59,127
35595,note_on,4,0,0,,10,,,57,127
35707,note_off,112,0,0,,10,,,57,127
35711,note_on,4,0,0,,10,,,45,127
35823,note_off,112,0,0,,10,,,45,127
35827,note_on,4,0,0,,7,,,43,127
35939,note_off,112,0,0,,7,,,43,127
35943,note_on,4,0,0,,7,,,55,127
36055,note_off,112,0,0,,7,,,55,127
36059,note_on,4,0,0,,5,,,53,127
36059,note_on,0,0,0,,5,,,41,127
36217,note_off,158,0,0,,0,,,72,127
36289,note_on,72,0,0,,10,,,69,127
36332,note_off,43,0,0,,10,,,69,127
36336,note_on,4,0,0,,12,,,71,127
36379,note_off,43,0,0,,12,,,71,127
36383,note_on,4,0,0,,0,,,72,127
36426,note_off,43,0,0,,0,,,72,127
36430,note_on,4,0,0,,2,,,74,127
36473,note_off,43,0,0,,2,,,74,127
36477,note_on,4,0,0,,4,,,76,127
36517,note_off,40,0,0,,4,,,76,127
36517,note_off,0,0,0,,5,,,41,127
36517,note_off,0,0,0,,5,,,53,127
36521,note_on,4,0,0,,5,,,77,127
36521,note_on,0,0,0,,5,,,53,127
36633,note_off,112,0,0,,5,,,53,127
36637,note_on,4,0,0,,5,,,41,127
36749,note_off,112,0,0,,5,,,41,127
36753,note_on,4,0,0,,4,,,40,127
36865,note_off,112,0,0,,4,,,40,127
36869,note_on,4,0,0,,4,,,52,127
36981,note_off,112,0,0,,4,,,52,127
36985,note_on,4,0,0,,2,,,50,127
37097,note_off,112,0,0,,2,,,50,127
37101,note_on,4,0,0,,2,,,38,127
37213,note_off,112,0,0,,2,,,38,127
37217,note_on,4,0,0,,0,,,36,127
37329,note_off,112,0,0,,0,,,36,127
37333,note_on,4,0,0,,0,,,48,127
37445,note_off,112,0,0,,0,,,48,127
37449,note_on,4,0,0,,7,,,43,127
37547,note_off,98,0,0,,5,,,77,127
37679,note_on,132,0,0,,2,,,74,127
37722,note_off,43,0,0,,2,,,74,127
37726,note_on,4,0,0,,4,,,76,127
37769,note_off,43,0,0,,4,,,76,127
37773,note_on,4,0,0,,5,,,77,127
37816,note_off,43,0,0,,5,,,77,127
37820,note_on,4,0,0,,7,,,79,127
37863,note_off,43,0,0,,7,,,79,127
37867,note_on,4,0,0,,10,,,81,127
37907,note_off,40,0,0,,10,,,81,127
37907,note_off,0,0,0,,7,,,43,127
37911,note_on,4,0,0,,12,,,83,127
37911,note_on,0,0,0,,7,,,55,127
38023,note_off,112,0,0,,7,,,55,127
38027,note_on,4,0,0,,7,,,43,127
38139,note_off,112,0,0,,7,,,43,127
38143,note_on,4,0,0,,5,,,41,127
38255,note_off,112,0,0,,5,,,41,127
38259,note_on,4,0,0,,5,,,53,127
38371,note_off,112,0,0,,5,,,53,127
38375,note_on,4,0,0,,4,,,52,127
38487,note_off,112,0,0,,4,,,52,127
38491,note_on,4,0,0,,4,,,40,127
38603,note_off,112,0,0,,4,,,40,127
38603,note_off,0,0,0,,12,,,83,127
38607,note_on,4,0,0,,0,,,84,127
38607,note_on,0,0,0,,2,,,38,127
38719,note_off,112,0,0,,2,,,38,127
38719,note_off,0,0,0,,0,,,84,127
38723,note_on,4,0,0,,12,,,83,127
38723,note_on,0,0,0,,2,,,50,127
38835,note_off,112,0,0,,2,,,50,127
38835,note_off,0,0,0,,12,,,83,127
38839,note_on,4,0,0,,0,,,84,127
38839,note_on,0,0,0,,0,,,48,127
38951,note_off,112,0,0,,0,,,84,127
38955,note_on,4,0,0,,7,,,79,127
39067,note_off,112,0,0,,7,,,79,127
39067,note_off,0,0,0,,0,,,48,127
39071,note_on,4,0,0,,10,,,81,127
39071,note_on,0,0,0,,5,,,53,127
39183,note_off,112,0,0,,10,,,81,127
39187,note_on,4,0,0,,5,,,77,127
39299,note_off,112,0,0,,5,,,77,127
39299,note_off,0,0,0,,5,,,53,127
39303,note_on,4,0,0,,7,,,79,127
39303,note_on,0,0,0,,7,,,55,127
39415,note_off,112,0,0,,7,,,79,127
39419,note_on,4,0,0,,4,,,76,127
39531,note_off,112,0,0,,4,,,76,127
39535,note_on,4,0,0,,5,,,77,127
39647,note_off,112,0,0,,5,,,77,127
39651,note_on,4,0,0,,2,,,74,127
39763,note_off,112,0,0,,2,,,74,127
39763,note_off,0,0,0,,7,,,55,127
39767,note_on,4,0,0,,4,,,76,127
39767,note_on,0,0,0,,7,,,43,127
39879,note_off,112,0,0,,4,,,76,127
39883,note_on,4,0,0,,0,,,72,127
39995,note_off,112,0,0,,0,,,72,127
39999,note_on,4,0,0,,2,,,74,127
40111,note_off,112,0,0,,2,,,74,127
40115,note_on,4,0,0,,12,,,71,127
40225,note_off,110,0,0,,7,,,43,127
40226,note_off,1,0,0,,12,,,71,127
40230,note_on,4,0,0,,4,,,64,127
40230,note_on,0,0,0,,0,,,72,127
40230,note_on,0,0,0,,0,,,48,127
40457,note_off,227,0,0,,0,,,72,127
40457,note_off,0,0,0,,4,,,64,127
40461,note_on,4,0,0,,4,,,64,127
40504,note_off,43,0,0,,4,,,64,127
40508,note_on,4,0,0,,5,,,65,127
40551,note_off,43,0,0,,5,,,65,127
40555,note_on,4,0,0,,7,,,67,127
40598,note_off,43,0,0,,7,,,67,127
40602,note_on,4,0,0,,10,,,69,127
40645,note_off,43,0,0,,10,,,69,127
40649,note_on,4,0,0,,12,,,71,127
40687,note_off,38,0,0,,0,,,48,127
40688,note_off,1,0,0,,12,,,71,127
40692,note_on,4,0,0,,0,,,72,127
40692,note_on,0,0,0,,0,,,60,127
40804,note_off,112,0,0,,0,,,60,127
40808,note_on,4,0,0,,0,,,48,127
40920,note_off,112,0,0,,0,,,48,127
40924,note_on,4,0,0,,12,,,47,127
41036,note_off,112,0,0,,12,,,47,127
41040,note_on,4,0,0,,12,,,59,127
41152,note_off,112,0,0,,12,,,59,127
41156,note_on,4,0,0,,10,,,57,127
41268,note_off,112,0,0,,10,,,57,127
41272,note_on,4,0,0,,10,,,45,127
41384,note_off,112,0,0,,10,,,45,127
41388,note_on,4,0,0,,7,,,43,127
41500,note_off,112,0,0,,7,,,43,127
41504,note_on,4,0,0,,7,,,55,127
41616,note_off,112,0,0,,7,,,55,127
41620,note_on,4,0,0,,5,,,53,127
41620,note_on,0,0,0,,5,,,41,127
41778,note_off,158,0,0,,0,,,72,127
41850,note_on,72,0,0,,10,,,69,127
41893,note_off,43,0,0,,10,,,69,127
41897,note_on,4,0,0,,12,,,71,127
41940,note_off,43,0,0,,12,,,71,127
41944,note_on,4,0,0,,0,,,72,127
41987,note_off,43,0,0,,0,,,72,127
41991,note_on,4,0,0,,2,,,74,127
42034,note_off,43,0,0,,2,,,74,127
42038,note_on,4,0,0,,4,,,76,127
42078,note_off,40,0,0,,4,,,76,127
42078,note_off,0,0,0,,5,,,41,127
42078,note_off,0,0,0,,5,,,53,127
42082,note_on,4,0,0,,5,,,77,127
42082,note_on,0,0,0,,5,,,53,127
42194,note_off,112,0,0,,5,,,53,127
42198,note_on,4,0,0,,5,,,41,127
42310,note_off,112,0,0,,5,,,41,127
42314,note_on,4,0,0,,4,,,40,127
42426,note_off,112,0,0,,4,,,40,127
42430,note_on,4,0,0,,4,,,52,127
42542,note_off,112,0,0,,4,,,52,127
42546,note_on,4,0,0,,2,,,50,127
42658,note_off,112,0,0,,2,,,50,127
42662,note_on,4,0,0,,2,,,38,127
42774,note_off,112,0,0,,2,,,38,127
42778,note_on,4,0,0,,0,,,36,127
42890,note_off,112,0,0,,0,,,36,127
42894,note_on,4,0,0,,0,,,48,127
42996,note_off,102,0,0,,5,,,77,127
43006,note_off,10,0,0,,0,,,48,127
43010,note_on,4,0,0,,7,,,43,127
43240,note_on,230,0,0,,2,,,74,127
43283,note_off,43,0,0,,2,,,74,127
43287,note_on,4,0,0,,4,,,76,127
43330,note_off,43,0,0,,4,,,76,127
43334,note_on,4,0,0,,5,,,77,127
43377,note_off,43,0,0,,5,,,77,127
43381,note_on,4,0,0,,7,,,79,127
43424,note_off,43,0,0,,7,,,79,127
43428,note_on,4,0,0,,10,,,81,127
43468,note_off,40,0,0,,10,,,81,127
43468,note_off,0,0,0,,7,,,43,127
43472,note_on,4,0,0,,12,,,83,127
43472,note_on,0,0,0,,7,,,55,127
43584,note_off,112,0,0,,7,,,55,127
43588,note_on,4,0,0,,7,,,43,127
43700,note_off,112,0,0,,7,,,43,127
43704,note_on,4,0,0,,5,,,41,127
43816,note_off,112,0,0,,5,,,41,127
43820,note_on,4,0,0,,5,,,53,127
43932,note_off,112,0,0,,5,,,53,127
43936,note_on,4,0,0,,4,,,52,127
44048,note_off,112,0,0,,4,,,52,127
44052,note_on,4,0,0,,4,,,40,127
44164,note_off,112,0,0,,4,,,40,127
44164,note_off,0,0,0,,12,,,83,127
44168,note_on,4,0,0,,0,,,84,127
44168,note_on,0,0,0,,2,,,38,127
44280,note_off,112,0,0,,2,,,38,127
44280,note_off,0,0,0,,0,,,84,127
44284,note_on,4,0,0,,12,,,83,127
44284,note_on,0,0,0,,2,,,50,127
44396,note_off,112,0,0,,2,,,50,127
44396,note_off,0,0,0,,12,,,83,127
44400,note_on,4,0,0,,0,,,84,127
44400,note_on,0,0,0,,0,,,48,127
44512,note_off,112,0,0,,0,,,84,127
44516,note_on,4,0,0,,7,,,79,127
44628,note_off,112,0,0,,7,,,79,127
44628,note_off,0,0,0,,0,,,48,127
44632,note_on,4,0,0,,10,,,81,127
44632,note_on,0,0,0,,5,,,53,127
44744,note_off,112,0,0,,10,,,81,127
44748,note_on,4,0,0,,5,,,77,127
44860,note_off,112,0,0,,5,,,77,127
44860,note_off,0,0,0,,5,,,53,127
44864,note_on,4,0,0,,7,,,79,127
44864,note_on,0,0,0,,7,,,55,127
44976,note_off,112,0,0,,7,,,79,127
44980,note_on,4,0,0,,4,,,76,127
45092,note_off,112,0,0,,4,,,76,127
45096,note_on,4,0,0,,5,,,77,127
45208,note_off,112,0,0,,5,,,77,127
45212,note_on,4,0,0,,2,,,74,127
45324,note_off,112,0,0,,2,,,74,127
45324,note_off,0,0,0,,7,,,55,127
45328,note_on,4,0,0,,4,,,76,127
45328,note_on,0,0,0,,7,,,43,127
45440,note_off,112,0,0,,4,,,76,127
45444,note_on,4,0,0,,0,,,72,127
45556,note_off,112,0,0,,0,,,72,127
45560,note_on,4,0,0,,2,,,74,127
45672,note_off,112,0,0,,2,,,74,127
45676,note_on,4,0,0,,12,,,71,127
45788,note_off,112,0,0,,12,,,71,127
45788,note_off,0,0,0,,7,,,43,127
45792,note_on,4,0,0,,0,,,72,127
45792,note_on,0,0,0,,0,,,48,127
45792,note_on,0,0,0,,0,,,36,127
46019,note_off,227,0,0,,0,,,36,127
46019,note_off,0,0,0,,0,,,48,127
46019,note_off,0,0,0,,0,,,72,127
46023,note_on,4,0,0,,4,,,64,127
46023,note_on,0,0,0,,0,,,60,127
46135,note_off,112,0,0,,0,,,60,127
46135,note_off,0,0,0,,4,,,64,127
46139,note_on,4,0,0,,5,,,65,127
46139,note_on,0,0,0,,2,,,62,127
46251,note_off,112,0,0,,2,,,62,127
46251,note_off,0,0,0,,5,,,65,127
46255,note_on,4,0,0,,7,,,67,127
46255,note_on,0,0,0,,4,,,64,127
46367,note_off,112,0,0,,4,,,64,127
46367,note_off,0,0,0,,7,,,67,127
46371,note_on,4,0,0,,2,,,74,127
46371,note_on,0,0,0,,5,,,65,127
46483,note_off,112,0,0,,5,,,65,127
46483,note_off,0,0,0,,2,,,74,127
46487,note_on,4,0,0,,0,,,72,127
46487,note_on,0,0,0,,4,,,64,127
46599,note_off,112,0,0,,4,,,64,127
46599,note_off,0,0,0,,0,,,72,127
46603,note_on,4,0,0,,12,,,71,127
46603,note_on,0,0,0,,2,,,62,127
46715,note_off,112,0,0,,2,,,62,127
46715,note_off,0,0,0,,12,,,71,127
46719,note_on,4,0,0,,0,,,72,127
46719,note_on,0,0,0,,0,,,60,127
46923,note_off,204,0,0,,0,,,60,127
46923,note_off,0,0,0,,0,,,72,127
46949,note_on,26,0,0,,7,,,79,127
46949,note_on,0,0,0,,5,,,77,127
46949,note_on,0,0,0,,2,,,74,127
46949,note_on,0,0,0,,12,,,83,127
46949,note_on,0,0,0,,7,,,43,127
47170,note_off,221,0,0,,12,,,83,127
47170,note_off,0,0,0,,2,,,74,127
47170,note_off,0,0,0,,5,,,77,127
47170,note_off,0,0,0,,7,,,79,127
47176,note_off,6,0,0,,7,,,43,127
47180,note_on,4,0,0,,7,,,79,127
47180,note_on,0,0,0,,0,,,84,127
47180,note_on,0,0,0,,4,,,76,127
47180,note_on,0,0,0,,0,,,72,127
47180,note_on,0,0,0,,0,,,48,127
47180,note_on,0,0,0,,0,,,36,127
47407,note_off,227,0,0,,0,,,36,127
47407,note_off,0,0,0,,0,,,48,127
47407,note_off,0,0,0,,0,,,72,127
47407,note_off,0,0,0,,4,,,76,127
47407,note_off,0,0,0,,0,,,84,127
47407,note_off,0,0,0,,7,,,79,127
47411,note_on,4,0,0,,4,,,64,127
47411,note_on,0,0,0,,0,,,60,127
47523,note_off,112,0,0,,0,,,60,127
47523,note_off,0,0,0,,4,,,64,127
47527,note_on,4,0,0,,5,,,65,127
47527,note_on,0,0,0,,2,,,62,127
47639,note_off,112,0,0,,2,,,62,127
47639,note_off,0,0,0,,5,,,65,127
47643,note_on,4,0,0,,7,,,67,127
47643,note_on,0,0,0,,4,,,64,127
47755,note_off,112,0,0,,4,,,64,127
47755,note_off,0,0,0,,7,,,67,127
47759,note_on,4,0,0,,2,,,74,127
47759,note_on,0,0,0,,5,,,65,127
47871,note_off,112,0,0,,5,,,65,127
47871,note_off,0,0,0,,2,,,74,127
47875,note_on,4,0,0,,0,,,72,127
47875,note_on,0,0,0,,4,,,64,127
47987,note_off,112,0,0,,4,,,64,127
47987,note_off,0,0,0,,0,,,72,127
47991,note_on,4,0,0,,12,,,71,127
47991,note_on,0,0,0,,2,,,62,127
48103,note_off,112,0,0,,2,,,62,127
48103,note_off,0,0,0,,12,,,71,127
48107,note_on,4,0,0,,0,,,72,127
48107,note_on,0,0,0,,4,,,64,127
48311,note_off,204,0,0,,4,,,64,127
48311,note_off,0,0,0,,0,,,72,127
48337,note_on,26,0,0,,5,,,77,127
48337,note_on,0,0,0,,7,,,79,127
48337,note_on,0,0,0,,2,,,74,127
48337,note_on,0,0,0,,12,,,83,127
48337,note_on,0,0,0,,7,,,43,127
48558,note_off,221,0,0,,12,,,83,127
48558,note_off,0,0,0,,2,,,74,127
48558,note_off,0,0,0,,7,,,79,127
48558,note_off,0,0,0,,5,,,77,127
48564,note_off,6,0,0,,7,,,43,127
48568,note_on,4,0,0,,0,,,84,127
48568,note_on,0,0,0,,0,,,48,127
48568,note_on,0,0,0,,0,,,36,127
48680,note_off,112,0,0,,0,,,84,127
48684,note_on,4,0,0,,12,,,83,127
48796,note_off,112,0,0,,12,,,83,127
48800,note_on,4,0,0,,10,,,81,127
48912,note_off,112,0,0,,10,,,81,127
48916,note_on,4,0,0,,7,,,79,127
49028,note_off,112,0,0,,7,,,79,127
49028,note_off,0,0,0,,0,,,36,127
49028,note_off,0,0,0,,0,,,48,127
49032,note_on,4,0,0,,5,,,77,127
49032,note_on,0,0,0,,5,,,53,127
49032,note_on,0,0,0,,5,,,41,127
49144,note_off,112,0,0,,5,,,77,127
49148,note_on,4,0,0,,4,,,76,127
49260,note_off,112,0,0,,4,,,76,127
49260,note_off,0,0,0,,5,,,41,127
49260,note_off,0,0,0,,5,,,53,127
49264,note_on,4,0,0,,2,,,74,127
49264,note_on,0,0,0,,10,,,57,127
49264,note_on,0,0,0,,10,,,45,127
49376,note_off,112,0,0,,2,,,74,127
49380,note_on,4,0,0,,0,,,72,127
49492,note_off,112,0,0,,0,,,72,127
49492,note_off,0,0,0,,10,,,45,127
49492,note_off,0,0,0,,10,,,57,127
49496,note_on,4,0,0,,4,,,76,127
49496,note_on,0,0,0,,7,,,55,127
49496,note_on,0,0,0,,7,,,43,127
49569,note_off,73,0,0,,4,,,76,127
49573,note_on,4,0,0,,2,,,74,127
49646,note_off,73,0,0,,2,,,74,127
49650,note_on,4,0,0,,4,,,76,127
49723,note_off,73,0,0,,4,,,76,127
49727,note_on,4,0,0,,2,,,74,127
49800,note_off,73,0,0,,2,,,74,127
49804,note_on,4,0,0,,0,,,72,127
49877,note_off,73,0,0,,0,,,72,127
49881,note_on,4,0,0,,2,,,74,127
49954,note_off,73,0,0,,2,,,74,127
49954,note_off,0,0,0,,7,,,43,127
49954,note_off,0,0,0,,7,,,55,127
49958,note_on,4,0,0,,0,,,72,127
49958,note_on,0,0,0,,0,,,48,127
49958,note_on,0,0,0,,0,,,36,127
50070,note_off,112,0,0,,0,,,72,127
50074,note_on,4,0,0,,12,,,71,127
50186,note_off,112,0,0,,12,,,71,127
50190,note_on,4,0,0,,10,,,69,127
50302,note_off,112,0,0,,10,,,69,127
50306,note_on,4,0,0,,7,,,67,127
50418,note_off,112,0,0,,7,,,67,127
50418,note_off,0,0,0,,0,,,36,127
50418,note_off,0,0,0,,0,,,48,127
50422,note_on,4,0,0,,5,,,65,127
50422,note_on,0,0,0,,5,,,53,127
50422,note_on,0,0,0,,5,,,41,127
50534,note_off,112,0,0,,5,,,65,127
50538,note_on,4,0,0,,4,,,64,127
50650,note_off,112,0,0,,4,,,64,127
50654,note_on,4,0,0,,2,,,62,127
50766,note_off,112,0,0,,2,,,62,127
50770,note_on,4,0,0,,0,,,60,127
50882,note_off,112,0,0,,0,,,60,127
50882,note_off,0,0,0,,5,,,41,127
50882,note_off,0,0,0,,5,,,53,127
50886,note_on,4,0,0,,4,,,64,127
50886,note_on,0,0,0,,7,,,31,127
50886,note_on,0,0,0,,7,,,43,127
50959,note_off,73,0,0,,4,,,64,127
50963,note_on,4,0,0,,2,,,62,127
51036,note_off,73,0,0,,2,,,62,127
51040,note_on,4,0,0,,4,,,64,127
51113,note_off,73,0,0,,4,,,64,127
51117,note_on,4,0,0,,2,,,62,127
51190,note_off,73,0,0,,2,,,62,127
51194,note_on,4,0,0,,0,,,60,127
51267,note_off,73,0,0,,0,,,60,127
51271,note_on,4,0,0,,2,,,62,127
51344,note_off,73,0,0,,2,,,62,127
51344,note_off,0,0,0,,7,,,43,127
51344,note_off,0,0,0,,7,,,31,127
51348,note_on,4,0,0,,0,,,60,127
51348,note_on,0,0,0,,0,,,36,127
52268,note_off,920,0,0,,0,,,60,127
52726,note_off,458,0,0,,0,,,36,127
52730,note_on,4,0,0,,4,,,64,127
52730,note_on,0,0,0,,7,,,67,127
52730,note_on,0,0,0,,0,,,72,127
52730,note_on,0,0,0,,0,,,36,127
52951,note_off,221,0,0,,0,,,72,127
52951,note_off,0,0,0,,7,,,67,127
52951,note_off,0,0,0,,4,,,64,127
52957,note_off,6,0,0,,0,,,36,127
52961,note_on,4,0,0,,4,,,64,127
52961,note_on,0,0,0,,0,,,60,127
53073,note_off,112,0,0,,0,,,60,127
53073,note_off,0,0,0,,4,,,64,127
53077,note_on,4,0,0,,5,,,65,127
53077,note_on,0,0,0,,2,,,62,127
53189,note_off,112,0,0,,2,,,62,127
53189,note_off,0,0,0,,5,,,65,127
53193,note_on,4,0,0,,7,,,67,127
53193,note_on,0,0,0,,4,,,64,127
53305,note_off,112,0,0,,4,,,64,127
53305,note_off,0,0,0,,7,,,67,127
53309,note_on,4,0,0,,10,,,69,127
53309,note_on,0,0,0,,5,,,65,127
53421,note_off,112,0,0,,5,,,65,127
53421,note_off,0,0,0,,10,,,69,127
53425,note_on,4,0,0,,11,,,70,127
53425,note_on,0,0,0,,7,,,67,127
53537,note_off,112,0,0,,7,,,67,127
53537,note_off,0,0,0,,11,,,70,127
53541,note_on,4,0,0,,10,,,69,127
53541,note_on,0,0,0,,5,,,65,127
53653,note_off,112,0,0,,5,,,65,127
53653,note_off,0,0,0,,10,,,69,127
53657,note_on,4,0,0,,11,,,70,127
53657,note_on,0,0,0,,7,,,67,127
53884,note_off,227,0,0,,7,,,67,127
53888,note_on,4,0,0,,7,,,79,127
53888,note_on,0,0,0,,0,,,48,127
53888,note_on,0,0,0,,0,,,36,127
54115,note_off,227,0,0,,0,,,36,127
54115,note_off,0,0,0,,0,,,48,127
54115,note_off,0,0,0,,7,,,79,127
54119,note_on,4,0,0,,4,,,76,127
54119,note_on,0,0,0,,0,,,48,127
54119,note_on,0,0,0,,0,,,36,127
54346,note_off,227,0,0,,0,,,36,127
54346,note_off,0,0,0,,0,,,48,127
54346,note_off,0,0,0,,4,,,76,127
54348,note_off,2,0,0,,11,,,70,127
54349,note_on,1,0,0,,4,,,64,127
54349,note_on,0,0,0,,0,,,60,127
54461,note_off,112,0,0,,0,,,60,127
54461,note_off,0,0,0,,4,,,64,127
54465,note_on,4,0,0,,5,,,65,127
54465,note_on,0,0,0,,2,,,62,127
54577,note_off,112,0,0,,2,,,62,127
54577,note_off,0,0,0,,5,,,65,127
54581,note_on,4,0,0,,7,,,67,127
54581,note_on,0,0,0,,4,,,64,127
54693,note_off,112,0,0,,4,,,64,127
54693,note_off,0,0,0,,7,,,67,127
54697,note_on,4,0,0,,10,,,69,127
54697,note_on,0,0,0,,5,,,65,127
54809,note_off,112,0,0,,5,,,65,127
54809,note_off,0,0,0,,10,,,69,127
54813,note_on,4,0,0,,11,,,70,127
54813,note_on,0,0,0,,7,,,67,127
54925,note_off,112,0,0,,7,,,67,127
54925,note_off,0,0,0,,11,,,70,127
54929,note_on,4,0,0,,10,,,69,127
54929,note_on,0,0,0,,5,,,65,127
55041,note_off,112,0,0,,5,,,65,127
55041,note_off,0,0,0,,10,,,69,127
55045,note_on,4,0,0,,11,,,70,127
55045,note_on,0,0,0,,7,,,67,127
55249,note_off,204,0,0,,7,,,67,127
55249,note_off,0,0,0,,11,,,70,127
55275,note_on,26,0,0,,7,,,79,127
55275,note_on,0,0,0,,0,,,84,127
55275,note_on,0,0,0,,0,,,72,127
55275,note_on,0,0,0,,4,,,76,127
55275,note_on,0,0,0,,0,,,36,127
55275,note_on,0,0,0,,0,,,48,127
55496,note_off,221,0,0,,4,,,76,127
55496,note_off,0,0,0,,0,,,72,127
55496,note_off,0,0,0,,0,,,84,127
55496,note_off,0,0,0,,7,,,79,127
55502,note_off,6,0,0,,0,,,48,127
55502,note_off,0,0,0,,0,,,36,127
55506,note_on,4,0,0,,10,,,81,127
55506,note_on,0,0,0,,5,,,77,127
55506,note_on,0,0,0,,0,,,72,127
55506,note_on,0,0,0,,5,,,53,127
55506,note_on,0,0,0,,5,,,41,127
55733,note_off,227,0,0,,5,,,41,127
55733,note_off,0,0,0,,5,,,53,127
55733,note_off,0,0,0,,0,,,72,127
55733,note_off,0,0,0,,5,,,77,127
55733,note_off,0,0,0,,10,,,81,127
55737,note_on,4,0,0,,6,,,66,127
55737,note_on,0,0,0,,2,,,62,127
55849,note_off,112,0,0,,2,,,62,127
55849,note_off,0,0,0,,6,,,66,127
55853,note_on,4,0,0,,7,,,67,127
55853,note_on,0,0,0,,4,,,64,127
55965,note_off,112,0,0,,4,,,64,127
55965,note_off,0,0,0,,7,,,67,127
55969,note_on,4,0,0,,10,,,69,127
55969,note_on,0,0,0,,6,,,66,127
56081,note_off,112,0,0,,6,,,66,127
56081,note_off,0,0,0,,10,,,69,127
56085,note_on,4,0,0,,11,,,70,127
56085,note_on,0,0,0,,7,,,67,127
56197,note_off,112,0,0,,7,,,67,127
56197,note_off,0,0,0,,11,,,70,127
56201,note_on,4,0,0,,0,,,72,127
56201,note_on,0,0,0,,10,,,69,127
56313,note_off,112,0,0,,10,,,69,127
56313,note_off,0,0,0,,0,,,72,127
56317,note_on,4,0,0,,11,,,70,127
56317,note_on,0,0,0,,7,,,67,127
56429,note_off,112,0,0,,7,,,67,127
56429,note_off,0,0,0,,11,,,70,127
56433,note_on,4,0,0,,0,,,72,127
56433,note_on,0,0,0,,10,,,69,127
56660,note_off,227,0,0,,10,,,69,127
56664,note_on,4,0,0,,10,,,81,127
56664,note_on,0,0,0,,2,,,50,127
56664,note_on,0,0,0,,2,,,38,127
56891,note_off,227,0,0,,2,,,38,127
56891,note_off,0,0,0,,2,,,50,127
56891,note_off,0,0,0,,10,,,81,127
56895,note_on,4,0,0,,6,,,78,127
56895,note_on,0,0,0,,2,,,50,127
56895,note_on,0,0,0,,2,,,38,127
57122,note_off,227,0,0,,2,,,38,127
57122,note_off,0,0,0,,2,,,50,127
57122,note_off,0,0,0,,6,,,78,127
57124,note_off,2,0,0,,0,,,72,127
57125,note_on,1,0,0,,6,,,66,127
57125,note_on,0,0,0,,2,,,62,127
57237,note_off,112,0,0,,2,,,62,127
57237,note_off,0,0,0,,6,,,66,127
57241,note_on,4,0,0,,7,,,67,127
57241,note_on,0,0,0,,4,,,64,127
57353,note_off,112,0,0,,4,,,64,127
57353,note_off,0,0,0,,7,,,67,127
57357,note_on,4,0,0,,10,,,69,127
57357,note_on,0,0,0,,6,,,66,127
57469,note_off,112,0,0,,6,,,66,127
57469,note_off,0,0,0,,10,,,69,127
57473,note_on,4,0,0,,11,,,70,127
57473,note_on,0,0,0,,7,,,67,127
57585,note_off,112,0,0,,7,,,67,127
57585,note_off,0,0,0,,11,,,70,127
57589,note_on,4,0,0,,0,,,72,127
57589,note_on,0,0,0,,10,,,69,127
57701,note_off,112,0,0,,10,,,69,127
57701,note_off,0,0,0,,0,,,72,127
57705,note_on,4,0,0,,11,,,70,127
57705,note_on,0,0,0,,7,,,67,127
57817,note_off,112,0,0,,7,,,67,127
57817,note_off,0,0,0,,11,,,70,127
57821,note_on,4,0,0,,0,,,72,127
57821,note_on,0,0,0,,10,,,69,127
58025,note_off,204,0,0,,10,,,69,127
58025,note_off,0,0,0,,0,,,72,127
58051,note_on,26,0,0,,10,,,81,127
58051,note_on,0,0,0,,2,,,74,127
58051,note_on,0,0,0,,6,,,78,127
58051,note_on,0,0,0,,0,,,84,127
58051,note_on,0,0,0,,2,,,50,127
58051,note_on,0,0,0,,2,,,38,127
58272,note_off,221,0,0,,0,,,84,127
58272,note_off,0,0,0,,6,,,78,127
58272,note_off,0,0,0,,2,,,74,127
58272,note_off,0,0,0,,10,,,81,127
58278,note_off,6,0,0,,2,,,38,127
58278,note_off,0,0,0,,2,,,50,127
58282,note_on,4,0,0,,11,,,82,127
58282,note_on,0,0,0,,7,,,43,127
58282,note_on,0,0,0,,7,,,55,127
58394,note_off,112,0,0,,11,,,82,127
58398,note_on,4,0,0,,10,,,81,127
58510,note_off,112,0,0,,10,,,81,127
58514,note_on,4,0,0,,7,,,79,127
58626,note_off,112,0,0,,7,,,79,127
58630,note_on,4,0,0,,5,,,77,127
58740,note_off,110,0,0,,7,,,55,127
58740,note_off,0,0,0,,7,,,43,127
58741,note_off,1,0,0,,5,,,77,127
58745,note_on,4,0,0,,3,,,75,127
58857,note_off,112,0,0,,3,,,75,127
58861,note_on,4,0,0,,2,,,74,127
58973,note_off,112,0,0,,2,,,74,127
58977,note_on,4,0,0,,1,,,73,127
59089,note_off,112,0,0,,1,,,73,127
59093,note_on,4,0,0,,11,,,70,127
59205,note_off,112,0,0,,11,,,70,127
59209,note_on,4,0,0,,10,,,69,127
59324,note_on,115,0,0,,7,,,67,127
59436,note_off,112,0,0,,7,,,67,127
59440,note_on,4,0,0,,5,,,65,127
59552,note_off,112,0,0,,5,,,65,127
59556,note_on,4,0,0,,4,,,64,127
59668,note_off,112,0,0,,4,,,64,127
59668,note_off,0,0,0,,10,,,69,127
59672,note_on,4,0,0,,10,,,81,127
59672,note_on,0,0,0,,2,,,62,127
59784,note_off,112,0,0,,10,,,81,127
59788,note_on,4,0,0,,7,,,79,127
59900,note_off,112,0,0,,7,,,79,127
59904,note_on,4,0,0,,5,,,77,127
60016,note_off,112,0,0,,5,,,77,127
60020,note_on,4,0,0,,4,,,76,127
60132,note_off,112,0,0,,4,,,76,127
60136,note_on,4,0,0,,2,,,74,127
60136,note_on,0,0,0,,2,,,86,127
60248,note_off,112,0,0,,2,,,62,127
60252,note_on,4,0,0,,0,,,72,127
60364,note_off,112,0,0,,0,,,72,127
60368,note_on,4,0,0,,11,,,70,127
60480,note_off,112,0,0,,11,,,70,127
60484,note_on,4,0,0,,10,,,69,127
60596,note_off,112,0,0,,10,,,69,127
60600,note_on,4,0,0,,7,,,67,127
60712,note_off,112,0,0,,2,,,86,127
60712,note_off,0,0,0,,2,,,74,127
60716,note_on,4,0,0,,11,,,82,127
60828,note_off,112,0,0,,11,,,82,127
60832,note_on,4,0,0,,10,,,81,127
60944,note_off,112,0,0,,10,,,81,127
60948,note_on,4,0,0,,7,,,79,127
61060,note_off,112,0,0,,7,,,79,127
61060,note_off,0,0,0,,7,,,67,127
61064,note_on,4,0,0,,10,,,81,127
61064,note_on,0,0,0,,5,,,65,127
61176,note_off,112,0,0,,10,,,81,127
61180,note_on,4,0,0,,2,,,74,127
61292,note_off,112,0,0,,2,,,74,127
61292,note_off,0,0,0,,5,,,65,127
61296,note_on,4,0,0,,7,,,79,127
61296,note_on,0,0,0,,7,,,67,127
61408,note_off,112,0,0,,7,,,79,127
61412,note_on,4,0,0,,4,,,76,127
61524,note_off,112,0,0,,4,,,76,127
61524,note_off,0,0,0,,7,,,67,127
61528,note_on,4,0,0,,5,,,77,127
61528,note_on,0,0,0,,10,,,69,127
61640,note_off,112,0,0,,5,,,77,127
61644,note_on,4,0,0,,7,,,79,127
61756,note_off,112,0,0,,7,,,79,127
61760,note_on,4,0,0,,10,,,81,127
61872,note_off,112,0,0,,10,,,81,127
61876,note_on,4,0,0,,7,,,79,127
61988,note_off,112,0,0,,7,,,79,127
61988,note_off,0,0,0,,10,,,69,127
61992,note_on,4,0,0,,5,,,77,127
61992,note_on,0,0,0,,10,,,57,127
62104,note_off,112,0,0,,5,,,77,127
62108,note_on,4,0,0,,4,,,76,127
62220,note_off,112,0,0,,4,,,76,127
62224,note_on,4,0,0,,2,,,74,127
62336,note_off,112,0,0,,2,,,74,127
62340,note_on,4,0,0,,1,,,73,127
62452,note_off,112,0,0,,1,,,73,127
62452,note_off,0,0,0,,10,,,57,127
62456,note_on,4,0,0,,2,,,74,127
62456,note_on,0,0,0,,2,,,62,127
62456,note_on,0,0,0,,2,,,50,127
62636,note_off,180,0,0,,2,,,74,127
62686,note_on,50,0,0,,5,,,77,127
62798,note_off,112,0,0,,5,,,77,127
62802,note_on,4,0,0,,2,,,74,127
62914,note_off,112,0,0,,2,,,74,127
62918,note_on,4,0,0,,11,,,70,127
63033,note_off,115,0,0,,2,,,50,127
63033,note_off,0,0,0,,2,,,62,127
63148,note_on,115,0,0,,5,,,65,127
63148,note_on,0,0,0,,2,,,62,127
63374,note_off,226,0,0,,11,,,70,127
63375,note_off,1,0,0,,2,,,62,127
63375,note_off,0,0,0,,5,,,65,127
63379,note_on,4,0,0,,7,,,67,127
63379,note_on,0,0,0,,3,,,63,127
63609,note_on,230,0,0,,7,,,79,127
63721,note_off,112,0,0,,7,,,79,127
63725,note_on,4,0,0,,3,,,75,127
63835,note_off,110,0,0,,3,,,63,127
63835,note_off,0,0,0,,7,,,67,127
63836,note_off,1,0,0,,3,,,75,127
63840,note_on,4,0,0,,0,,,72,127
64070,note_on,230,0,0,,7,,,67,127
64070,note_on,0,0,0,,4,,,64,127
64296,note_off,226,0,0,,0,,,72,127
64297,note_off,1,0,0,,4,,,64,127
64297,note_off,0,0,0,,7,,,67,127
64301,note_on,4,0,0,,5,,,65,127
64301,note_on,0,0,0,,10,,,69,127
64531,note_on,230,0,0,,0,,,84,127
64643,note_off,112,0,0,,0,,,84,127
64647,note_on,4,0,0,,5,,,77,127
64757,note_off,110,0,0,,10,,,69,127
64757,note_off,0,0,0,,5,,,65,127
64758,note_off,1,0,0,,5,,,77,127
64762,note_on,4,0,0,,3,,,75,127
64992,note_on,230,0,0,,0,,,72,127
64992,note_on,0,0,0,,10,,,69,127
65218,note_off,226,0,0,,3,,,75,127
65219,note_off,1,0,0,,10,,,69,127
65219,note_off,0,0,0,,0,,,72,127
65223,note_on,4,0,0,,2,,,74,127
65223,note_on,0,0,0,,11,,,70,127
65453,note_on,230,0,0,,2,,,86,127
65565,note_off,112,0,0,,2,,,86,127
65569,note_on,4,0,0,,7,,,79,127
65679,note_off,110,0,0,,11,,,70,127
65679,note_off,0,0,0,,2,,,74,127
65680,note_off,1,0,0,,7,,,79,127
65684,note_on,4,0,0,,5,,,77,127
65914,note_on,230,0,0,,2,,,74,127
65914,note_on,0,0,0,,12,,,71,127
66141,note_off,227,0,0,,12,,,71,127
66141,note_off,0,0,0,,2,,,74,127
66145,note_on,4,0,0,,0,,,72,127
66372,note_off,227,0,0,,5,,,77,127
66376,note_on,4,0,0,,4,,,76,127
66603,note_off,227,0,0,,4,,,76,127
66603,note_off,0,0,0,,0,,,72,127
66607,note_on,4,0,0,,5,,,77,127
66607,note_on,0,0,0,,10,,,69,127
66719,note_off,112,0,0,,5,,,77,127
66723,note_on,4,0,0,,4,,,76,127
66835,note_off,112,0,0,,4,,,76,127
66835,note_off,0,0,0,,10,,,69,127
66839,note_on,4,0,0,,5,,,77,127
66839,note_on,0,0,0,,7,,,67,127
66951,note_off,112,0,0,,5,,,77,127
66955,note_on,4,0,0,,7,,,79,127
67067,note_off,112,0,0,,7,,,79,127
67067,note_off,0,0,0,,7,,,67,127
67071,note_on,4,0,0,,10,,,81,127
67071,note_on,0,0,0,,5,,,65,127
67183,note_off,112,0,0,,10,,,81,127
67187,note_on,4,0,0,,12,,,83,127
67299,note_off,112,0,0,,12,,,83,127
67299,note_off,0,0,0,,5,,,65,127
67303,note_on,4,0,0,,0,,,84,127
67303,note_on,0,0,0,,4,,,64,127
67415,note_off,112,0,0,,0,,,84,127
67419,note_on,4,0,0,,10,,,81,127
67531,note_off,112,0,0,,10,,,81,127
67531,note_off,0,0,0,,4,,,64,127
67535,note_on,4,0,0,,0,,,84,127
67535,note_on,0,0,0,,2,,,62,127
67608,note_off,73,0,0,,0,,,84,127
67612,note_on,4,0,0,,12,,,83,127
67685,note_off,73,0,0,,12,,,83,127
67689,note_on,4,0,0,,0,,,84,127
67762,note_off,73,0,0,,0,,,84,127
67766,note_on,4,0,0,,12,,,83,127
67839,note_off,73,0,0,,12,,,83,127
67843,note_on,4,0,0,,10,,,81,127
67916,note_off,73,0,0,,10,,,81,127
67920,note_on,4,0,0,,12,,,83,127
67968,note_off,48,0,0,,2,,,62,127
67993,note_off,25,0,0,,12,,,83,127
67997,note_on,4,0,0,,0,,,84,127
68112,note_on,115,0,0,,0,,,48,127
68224,note_off,112,0,0,,0,,,48,127
68228,note_on,4,0,0,,4,,,52,127
68340,note_off,112,0,0,,4,,,52,127
68344,note_on,4,0,0,,7,,,55,127
68454,note_off,110,0,0,,0,,,84,127
68455,note_off,1,0,0,,7,,,55,127
68459,note_on,4,0,0,,0,,,60,127
68571,note_off,112,0,0,,0,,,60,127
68575,note_on,4,0,0,,4,,,64,127
68687,note_off,112,0,0,,4,,,64,127
68691,note_on,4,0,0,,0,,,84,127
68691,note_on,0,0,0,,7,,,67,127
68803,note_off,112,0,0,,7,,,67,127
68803,note_off,0,0,0,,0,,,84,127
68807,note_on,4,0,0,,8,,,80,127
68807,note_on,0,0,0,,0,,,72,127
68919,note_off,112,0,0,,0,,,72,127
68919,note_off,0,0,0,,8,,,80,127
68923,note_on,4,0,0,,7,,,79,127
68923,note_on,0,0,0,,1,,,61,127
69150,note_off,227,0,0,,7,,,79,127
69154,note_on,4,0,0,,5,,,77,127
69154,note_on,0,0,0,,11,,,70,127
69380,note_off,226,0,0,,1,,,61,127
69381,note_off,1,0,0,,11,,,70,127
69385,note_on,4,0,0,,8,,,68,127
69385,note_on,0,0,0,,0,,,60,127
69612,note_off,227,0,0,,8,,,68,127
69616,note_on,4,0,0,,7,,,67,127
69728,note_off,112,0,0,,7,,,67,127
69732,note_on,4,0,0,,5,,,65,127
69844,note_off,112,0,0,,5,,,65,127
69844,note_off,0,0,0,,5,,,77,127
69848,note_on,4,0,0,,3,,,75,127
69848,note_on,0,0,0,,7,,,67,127
70075,note_off,227,0,0,,7,,,67,127
70075,note_off,0,0,0,,3,,,75,127
70079,note_on,4,0,0,,0,,,72,127
70079,note_on,0,0,0,,10,,,69,127
70306,note_off,227,0,0,,10,,,69,127
70306,note_off,0,0,0,,0,,,72,127
70308,note_off,2,0,0,,0,,,60,127
70309,note_on,1,0,0,,3,,,75,127
70309,note_on,0,0,0,,11,,,70,127
70309,note_on,0,0,0,,11,,,58,127
70382,note_off,73,0,0,,3,,,75,127
70386,note_on,4,0,0,,1,,,73,127
70459,note_off,73,0,0,,1,,,73,127
70463,note_on,4,0,0,,3,,,75,127
70536,note_off,73,0,0,,3,,,75,127
70540,note_on,4,0,0,,1,,,73,127
70613,note_off,73,0,0,,1,,,73,127
70617,note_on,4,0,0,,0,,,72,127
70690,note_off,73,0,0,,0,,,72,127
70694,note_on,4,0,0,,1,,,73,127
70766,note_off,72,0,0,,11,,,58,127
70766,note_off,0,0,0,,11,,,70,127
70767,note_off,1,0,0,,1,,,73,127
70771,note_on,4,0,0,,1,,,73,127
70886,note_on,115,0,0,,0,,,48,127
70998,note_off,112,0,0,,0,,,48,127
70998,note_off,0,0,0,,1,,,73,127
71002,note_on,4,0,0,,0,,,72,127
71002,note_on,0,0,0,,4,,,52,127
71114,note_off,112,0,0,,4,,,52,127
71118,note_on,4,0,0,,7,,,55,127
71230,note_off,112,0,0,,7,,,55,127
71234,note_on,4,0,0,,0,,,60,127
71346,note_off,112,0,0,,0,,,60,127
71350,note_off,4,0,0,,0,,,72,127
71350,note_on,0,0,0,,4,,,64,127
71462,note_off,112,0,0,,4,,,64,127
71466,note_on,4,0,0,,0,,,84,127
71466,note_on,0,0,0,,7,,,67,127
71578,note_off,112,0,0,,7,,,67,127
71578,note_off,0,0,0,,0,,,84,127
71582,note_on,4,0,0,,8,,,80,127
71582,note_on,0,0,0,,0,,,72,127
71694,note_off,112,0,0,,0,,,72,127
71694,note_off,0,0,0,,8,,,80,127
71698,note_on,4,0,0,,7,,,79,127
71698,note_on,0,0,0,,1,,,61,127
71925,note_off,227,0,0,,7,,,79,127
71929,note_on,4,0,0,,5,,,77,127
71929,note_on,0,0,0,,11,,,70,127
72155,note_off,226,0,0,,1,,,61,127
72156,note_off,1,0,0,,11,,,70,127
72160,note_on,4,0,0,,8,,,68,127
72160,note_on,0,0,0,,0,,,60,127
72387,note_off,227,0,0,,8,,,68,127
72391,note_on,4,0,0,,7,,,67,127
72503,note_off,112,0,0,,7,,,67,127
72507,note_on,4,0,0,,5,,,65,127
72619,note_off,112,0,0,,5,,,65,127
72619,note_off,0,0,0,,5,,,77,127
72623,note_on,4,0,0,,3,,,75,127
72623,note_on,0,0,0,,7,,,67,127
72850,note_off,227,0,0,,7,,,67,127
72850,note_off,0,0,0,,3,,,75,127
72854,note_on,4,0,0,,0,,,72,127
72854,note_on,0,0,0,,10,,,69,127
73081,note_off,227,0,0,,10,,,69,127
73081,note_off,0,0,0,,0,,,72,127
73083,note_off,2,0,0,,0,,,60,127
73084,note_on,1,0,0,,1,,,73,127
73084,note_on,0,0,0,,11,,,58,127
73084,note_on,0,0,0,,11,,,70,127
73196,note_off,112,0,0,,11,,,70,127
73200,note_on,4,0,0,,8,,,68,127
73312,note_off,112,0,0,,8,,,68,127
73312,note_off,0,0,0,,1,,,73,127
73316,note_on,4,0,0,,11,,,82,127
73316,note_on,0,0,0,,7,,,67,127
73428,note_off,112,0,0,,7,,,67,127
73432,note_on,4,0,0,,5,,,65,127
73542,note_off,110,0,0,,11,,,58,127
73543,note_off,1,0,0,,5,,,65,127
73547,note_on,4,0,0,,0,,,72,127
73547,note_on,0,0,0,,4,,,64,127
73774,note_off,227,0,0,,4,,,64,127
73774,note_off,0,0,0,,11,,,82,127
73778,note_on,4,0,0,,8,,,80,127
73778,note_on,0,0,0,,5,,,65,127
74004,note_off,226,0,0,,0,,,72,127
74005,note_off,1,0,0,,5,,,65,127
74005,note_off,0,0,0,,8,,,80,127
74009,note_on,4,0,0,,7,,,79,127
74009,note_on,0,0,0,,11,,,58,127
74236,note_off,227,0,0,,7,,,79,127
74240,note_on,4,0,0,,4,,,76,127
74467,note_off,227,0,0,,4,,,76,127
74471,note_on,4,0,0,,7,,,79,127
74471,note_on,0,0,0,,1,,,49,127
74544,note_off,73,0,0,,7,,,79,127
74548,note_on,4,0,0,,5,,,77,127
74621,note_off,73,0,0,,5,,,77,127
74625,note_on,4,0,0,,7,,,79,127
74698,note_off,73,0,0,,7,,,79,127
74702,note_on,4,0,0,,5,,,77,127
74775,note_off,73,0,0,,5,,,77,127
74779,note_on,4,0,0,,4,,,76,127
74815,note_off,36,0,0,,11,,,58,127
74852,note_off,37,0,0,,4,,,76,127
74856,note_on,4,0,0,,5,,,77,127
74929,note_off,73,0,0,,5,,,77,127
74929,note_off,0,0,0,,1,,,49,127
74933,note_on,4,0,0,,7,,,79,127
74933,note_on,0,0,0,,0,,,48,127
75045,note_off,112,0,0,,7,,,79,127
75049,note_on,4,0,0,,4,,,76,127
75161,note_off,112,0,0,,4,,,76,127
75165,note_on,4,0,0,,5,,,77,127
75277,note_off,112,0,0,,5,,,77,127
75281,note_on,4,0,0,,2,,,74,127
75393,note_off,112,0,0,,2,,,74,127
75397,note_on,4,0,0,,4,,,76,127
75509,note_off,112,0,0,,4,,,76,127
75513,note_on,4,0,0,,0,,,72,127
75625,note_off,112,0,0,,0,,,72,127
75629,note_on,4,0,0,,2,,,74,127
75741,note_off,112,0,0,,2,,,74,127
75745,note_on,4,0,0,,11,,,70,127
75857,note_off,112,0,0,,11,,,70,127
75861,note_on,4,0,0,,0,,,72,127
75973,note_off,112,0,0,,0,,,72,127
75977,note_on,4,0,0,,10,,,69,127
76089,note_off,112,0,0,,10,,,69,127
76093,note_on,4,0,0,,11,,,70,127
76205,note_off,112,0,0,,11,,,70,127
76209,note_on,4,0,0,,7,,,67,127
76321,note_off,112,0,0,,7,,,67,127
76321,note_off,0,0,0,,0,,,48,127
76325,note_on,4,0,0,,10,,,69,127
76325,note_on,0,0,0,,5,,,53,127
76325,note_on,0,0,0,,5,,,41,127
76498,note_off,173,0,0,,10,,,69,127
76556,note_on,58,0,0,,10,,,69,127
76599,note_off,43,0,0,,10,,,69,127
76603,note_on,4,0,0,,11,,,70,127
76646,note_off,43,0,0,,11,,,70,127
76650,note_on,4,0,0,,0,,,72,127
76693,note_off,43,0,0,,0,,,72,127
76697,note_on,4,0,0,,2,,,74,127
76740,note_off,43,0,0,,2,,,74,127
76744,note_on,4,0,0,,4,,,76,127
76784,note_off,40,0,0,,4,,,76,127
76784,note_off,0,0,0,,5,,,41,127
76784,note_off,0,0,0,,5,,,53,127
76788,note_on,4,0,0,,5,,,77,127
76788,note_on,0,0,0,,5,,,65,127
76900,note_off,112,0,0,,5,,,65,127
76904,note_on,4,0,0,,5,,,53,127
77016,note_off,112,0,0,,5,,,53,127
77020,note_on,4,0,0,,4,,,52,127
77132,note_off,112,0,0,,4,,,52,127
77136,note_on,4,0,0,,4,,,64,127
77248,note_off,112,0,0,,4,,,64,127
77252,note_on,4,0,0,,2,,,62,127
77364,note_off,112,0,0,,2,,,62,127
77368,note_on,4,0,0,,2,,,50,127
77480,note_off,112,0,0,,2,,,50,127
77484,note_on,4,0,0,,0,,,48,127
77596,note_off,112,0,0,,0,,,48,127
77600,note_on,4,0,0,,0,,,60,127
77712,note_off,112,0,0,,0,,,60,127
77716,note_on,4,0,0,,11,,,58,127
77716,note_on,0,0,0,,11,,,46,127
77874,note_off,158,0,0,,5,,,77,127
77946,note_on,72,0,0,,2,,,74,127
77989,note_off,43,0,0,,2,,,74,127
77993,note_on,4,0,0,,4,,,76,127
78036,note_off,43,0,0,,4,,,76,127
78040,note_on,4,0,0,,5,,,77,127
78083,note_off,43,0,0,,5,,,77,127
78087,note_on,4,0,0,,7,,,79,127
78130,note_off,43,0,0,,7,,,79,127
78134,note_on,4,0,0,,10,,,81,127
78174,note_off,40,0,0,,10,,,81,127
78174,note_off,0,0,0,,11,,,46,127
78174,note_off,0,0,0,,11,,,58,127
78178,note_on,4,0,0,,11,,,82,127
78178,note_on,0,0,0,,11,,,58,127
78290,note_off,112,0,0,,11,,,58,127
78294,note_on,4,0,0,,11,,,46,127
78406,note_off,112,0,0,,11,,,46,127
78410,note_on,4,0,0,,10,,,45,127
78522,note_off,112,0,0,,10,,,45,127
78526,note_on,4,0,0,,10,,,57,127
78638,note_off,112,0,0,,10,,,57,127
78642,note_on,4,0,0,,7,,,55,127
78754,note_off,112,0,0,,7,,,55,127
78758,note_on,4,0,0,,7,,,43,127
78870,note_off,112,0,0,,7,,,43,127
78874,note_on,4,0,0,,5,,,41,127
78986,note_off,112,0,0,,5,,,41,127
78990,note_on,4,0,0,,5,,,53,127
79102,note_off,112,0,0,,5,,,53,127
79106,note_on,4,0,0,,0,,,36,127
79106,note_on,0,0,0,,0,,,48,127
79204,note_off,98,0,0,,11,,,82,127
79336,note_on,132,0,0,,4,,,76,127
79379,note_off,43,0,0,,4,,,76,127
79383,note_on,4,0,0,,5,,,77,127
79426,note_off,43,0,0,,5,,,77,127
79430,note_on,4,0,0,,7,,,79,127
79473,note_off,43,0,0,,7,,,79,127
79477,note_on,4,0,0,,10,,,81,127
79520,note_off,43,0,0,,10,,,81,127
79524,note_on,4,0,0,,11,,,82,127
79564,note_off,40,0,0,,0,,,48,127
79564,note_off,0,0,0,,0,,,36,127
79566,note_off,2,0,0,,11,,,82,127
79567,note_on,1,0,0,,0,,,84,127
79567,note_on,0,0,0,,0,,,60,127
79679,note_off,112,0,0,,0,,,60,127
79683,note_on,4,0,0,,0,,,48,127
79795,note_off,112,0,0,,0,,,48,127
79799,note_on,4,0,0,,11,,,46,127
79911,note_off,112,0,0,,11,,,46,127
79915,note_on,4,0,0,,11,,,58,127
80027,note_off,112,0,0,,11,,,58,127
80031,note_on,4,0,0,,10,,,57,127
80143,note_off,112,0,0,,10,,,57,127
80147,note_on,4,0,0,,10,,,45,127
80259,note_off,112,0,0,,10,,,45,127
80259,note_off,0,0,0,,0,,,84,127
80263,note_on,4,0,0,,2,,,86,127
80263,note_on,0,0,0,,7,,,43,127
80375,note_off,112,0,0,,7,,,43,127
80375,note_off,0,0,0,,2,,,86,127
80379,note_on,4,0,0,,4,,,88,127
80379,note_on,0,0,0,,7,,,55,127
80491,note_off,112,0,0,,7,,,55,127
80491,note_off,0,0,0,,4,,,88,127
80495,note_on,4,0,0,,5,,,89,127
80495,note_on,0,0,0,,5,,,41,127
80495,note_on,0,0,0,,5,,,53,127
80607,note_off,112,0,0,,5,,,89,127
80611,note_on,4,0,0,,0,,,84,127
80723,note_off,112,0,0,,0,,,84,127
80723,note_off,0,0,0,,5,,,53,127
80723,note_off,0,0,0,,5,,,41,127
80727,note_on,4,0,0,,2,,,86,127
80727,note_on,0,0,0,,11,,,58,127
80727,note_on,0,0,0,,11,,,46,127
80839,note_off,112,0,0,,2,,,86,127
80843,note_on,4,0,0,,11,,,82,127
80955,note_off,112,0,0,,11,,,82,127
80955,note_off,0,0,0,,11,,,46,127
80955,note_off,0,0,0,,11,,,58,127
80959,note_on,4,0,0,,0,,,84,127
80959,note_on,0,0,0,,0,,,60,127
81071,note_off,112,0,0,,0,,,84,127
81075,note_on,4,0,0,,10,,,81,127
81187,note_off,112,0,0,,10,,,81,127
81191,note_on,4,0,0,,11,,,82,127
81303,note_off,112,0,0,,11,,,82,127
81307,note_on,4,0,0,,7,,,79,127
81419,note_off,112,0,0,,7,,,79,127
81419,note_off,0,0,0,,0,,,60,127
81423,note_on,4,0,0,,10,,,81,127
81423,note_on,0,0,0,,0,,,48,127
81535,note_off,112,0,0,,10,,,81,127
81539,note_on,4,0,0,,5,,,77,127
81651,note_off,112,0,0,,5,,,77,127
81655,note_on,4,0,0,,7,,,79,127
81767,note_off,112,0,0,,7,,,79,127
81771,note_on,4,0,0,,4,,,76,127
81883,note_off,112,0,0,,4,,,76,127
81883,note_off,0,0,0,,0,,,48,127
81887,note_on,4,0,0,,5,,,77,127
81887,note_on,0,0,0,,10,,,69,127
81887,note_on,0,0,0,,5,,,53,127
81887,note_on,0,0,0,,5,,,41,127
82114,note_off,227,0,0,,10,,,69,127
82114,note_off,0,0,0,,5,,,77,127
82118,note_on,4,0,0,,10,,,69,127
82161,note_off,43,0,0,,10,,,69,127
82165,note_on,4,0,0,,11,,,70,127
82208,note_off,43,0,0,,11,,,70,127
82212,note_on,4,0,0,,0,,,72,127
82255,note_off,43,0,0,,0,,,72,127
82259,note_on,4,0,0,,2,,,74,127
82302,note_off,43,0,0,,2,,,74,127
82306,note_on,4,0,0,,4,,,76,127
82346,note_off,40,0,0,,4,,,76,127
82346,note_off,0,0,0,,5,,,41,127
82346,note_off,0,0,0,,5,,,53,127
82350,note_on,4,0,0,,5,,,77,127
82350,note_on,0,0,0,,5,,,65,127
82462,note_off,112,0,0,,5,,,65,127
82466,note_on,4,0,0,,5,,,53,127
82578,note_off,112,0,0,,5,,,53,127
82582,note_on,4,0,0,,4,,,52,127
82694,note_off,112,0,0,,4,,,52,127
82698,note_on,4,0,0,,4,,,64,127
82810,note_off,112,0,0,,4,,,64,127
82814,note_on,4,0,0,,2,,,62,127
82926,note_off,112,0,0,,2,,,62,127
82930,note_on,4,0,0,,2,,,50,127
83042,note_off,112,0,0,,2,,,50,127
83046,note_on,4,0,0,,0,,,48,127
83158,note_off,112,0,0,,0,,,48,127
83162,note_on,4,0,0,,0,,,60,127
83274,note_off,112,0,0,,0,,,60,127
83278,note_on,4,0,0,,11,,,46,127
83278,note_on,0,0,0,,11,,,58,127
83376,note_off,98,0,0,,5,,,77,127
83508,note_on,132,0,0,,2,,,74,127
83551,note_off,43,0,0,,2,,,74,127
83555,note_on,4,0,0,,4,,,76,127
83601,note_off,46,0,0,,4,,,76,127
83602,note_on,1,0,0,,5,,,77,127
83645,note_off,43,0,0,,5,,,77,127
83649,note_on,4,0,0,,7,,,79,127
83692,note_off,43,0,0,,7,,,79,127
83696,note_on,4,0,0,,10,,,81,127
83736,note_off,40,0,0,,10,,,81,127
83736,note_off,0,0,0,,11,,,58,127
83736,note_off,0,0,0,,11,,,46,127
83740,note_on,4,0,0,,11,,,82,127
83740,note_on,0,0,0,,11,,,58,127
83852,note_off,112,0,0,,11,,,58,127
83856,note_on,4,0,0,,11,,,46,127
83968,note_off,112,0,0,,11,,,46,127
83972,note_on,4,0,0,,10,,,45,127
84084,note_off,112,0,0,,10,,,45,127
84088,note_on,4,0,0,,10,,,57,127
84200,note_off,112,0,0,,10,,,57,127
84204,note_on,4,0,0,,7,,,55,127
84316,note_off,112,0,0,,7,,,55,127
84320,note_on,4,0,0,,7,,,43,127
84432,note_off,112,0,0,,7,,,43,127
84436,note_on,4,0,0,,5,,,41,127
84548,note_off,112,0,0,,5,,,41,127
84552,note_on,4,0,0,,5,,,53,127
84664,note_off,112,0,0,,5,,,53,127
84668,note_on,4,0,0,,0,,,48,127
84668,note_on,0,0,0,,0,,,36,127
84706,note_off,38,0,0,,11,,,82,127
84898,note_on,192,0,0,,4,,,76,127
84941,note_off,43,0,0,,4,,,76,127
84945,note_on,4,0,0,,5,,,77,127
84992,note_on,47,0,0,,7,,,79,127
84994,note_off,2,0,0,,5,,,77,127
85035,note_off,41,0,0,,7,,,79,127
85039,note_on,4,0,0,,10,,,81,127
85082,note_off,43,0,0,,10,,,81,127
85086,note_on,4,0,0,,11,,,82,127
85126,note_off,40,0,0,,11,,,82,127
85126,note_off,0,0,0,,0,,,36,127
85126,note_off,0,0,0,,0,,,48,127
85130,note_on,4,0,0,,0,,,84,127
85130,note_on,0,0,0,,0,,,60,127
85242,note_off,112,0,0,,0,,,60,127
85246,note_on,4,0,0,,0,,,48,127
85358,note_off,112,0,0,,0,,,48,127
85362,note_on,4,0,0,,11,,,46,127
85474,note_off,112,0,0,,11,,,46,127
85478,note_on,4,0,0,,11,,,58,127
85590,note_off,112,0,0,,11,,,58,127
85594,note_on,4,0,0,,10,,,57,127
85706,note_off,112,0,0,,10,,,57,127
85710,note_on,4,0,0,,10,,,45,127
85822,note_off,112,0,0,,10,,,45,127
85822,note_off,0,0,0,,0,,,84,127
85826,note_on,4,0,0,,2,,,86,127
85826,note_on,0,0,0,,7,,,43,127
85938,note_off,112,0,0,,7,,,43,127
85938,note_off,0,0,0,,2,,,86,127
85942,note_on,4,0,0,,4,,,88,127
85942,note_on,0,0,0,,7,,,55,127
86054,note_off,112,0,0,,7,,,55,127
86054,note_off,0,0,0,,4,,,88,127
86058,note_on,4,0,0,,5,,,89,127
86058,note_on,0,0,0,,5,,,53,127
86058,note_on,0,0,0,,5,,,41,127
86170,note_off,112,0,0,,5,,,89,127
86174,note_on,4,0,0,,0,,,84,127
86286,note_off,112,0,0,,0,,,84,127
86286,note_off,0,0,0,,5,,,41,127
86286,note_off,0,0,0,,5,,,53,127
86290,note_on,4,0,0,,2,,,86,127
86290,note_on,0,0,0,,11,,,46,127
86290,note_on,0,0,0,,11,,,58,127
86402,note_off,112,0,0,,2,,,86,127
86406,note_on,4,0,0,,11,,,82,127
86518,note_off,112,0,0,,11,,,82,127
86518,note_off,0,0,0,,11,,,58,127
86518,note_off,0,0,0,,11,,,46,127
86522,note_on,4,0,0,,0,,,84,127
86522,note_on,0,0,0,,0,,,60,127
86634,note_off,112,0,0,,0,,,84,127
86638,note_on,4,0,0,,10,,,81,127
86750,note_off,112,0,0,,10,,,81,127
86754,note_on,4,0,0,,11,,,82,127
86866,note_off,112,0,0,,11,,,82,127
86870,note_on,4,0,0,,7,,,79,127
86982,note_off,112,0,0,,7,,,79,127
86982,note_off,0,0,0,,0,,,60,127
86986,note_on,4,0,0,,10,,,81,127
86986,note_on,0,0,0,,0,,,48,127
87098,note_off,112,0,0,,10,,,81,127
87102,note_on,4,0,0,,5,,,77,127
87214,note_off,112,0,0,,5,,,77,127
87218,note_on,4,0,0,,7,,,79,127
87330,note_off,112,0,0,,7,,,79,127
87334,note_on,4,0,0,,4,,,76,127
87446,note_off,112,0,0,,4,,,76,127
87446,note_off,0,0,0,,0,,,48,127
87450,note_on,4,0,0,,5,,,77,127
87450,note_on,0,0,0,,5,,,41,127
87677,note_off,227,0,0,,5,,,41,127
87677,note_off,0,0,0,,5,,,77,127
87681,note_on,4,0,0,,10,,,69,127
87681,note_on,0,0,0,,5,,,65,127
87793,note_off,112,0,0,,5,,,65,127
87793,note_off,0,0,0,,10,,,69,127
87797,note_on,4,0,0,,11,,,70,127
87797,note_on,0,0,0,,7,,,67,127
87909,note_off,112,0,0,,7,,,67,127
87909,note_off,0,0,0,,11,,,70,127
87913,note_on,4,0,0,,0,,,72,127
87913,note_on,0,0,0,,10,,,69,127
88025,note_off,112,0,0,,10,,,69,127
88025,note_off,0,0,0,,0,,,72,127
88029,note_on,4,0,0,,7,,,79,127
88029,note_on,0,0,0,,11,,,70,127
88141,note_off,112,0,0,,11,,,70,127
88141,note_off,0,0,0,,7,,,79,127
88145,note_on,4,0,0,,5,,,77,127
88145,note_on,0,0,0,,10,,,69,127
88257,note_off,112,0,0,,10,,,69,127
88257,note_off,0,0,0,,5,,,77,127
88261,note_on,4,0,0,,4,,,76,127
88261,note_on,0,0,0,,7,,,67,127
88373,note_off,112,0,0,,7,,,67,127
88373,note_off,0,0,0,,4,,,76,127
88377,note_on,4,0,0,,5,,,77,127
88377,note_on,0,0,0,,5,,,65,127
88581,note_off,204,0,0,,5,,,65,127
88581,note_off,0,0,0,,5,,,77,127
88607,note_on,26,0,0,,0,,,84,127
88607,note_on,0,0,0,,11,,,82,127
88607,note_on,0,0,0,,7,,,79,127
88607,note_on,0,0,0,,4,,,88,127
88607,note_on,0,0,0,,0,,,36,127
88607,note_on,0,0,0,,0,,,48,127
88828,note_off,221,0,0,,4,,,88,127
88828,note_off,0,0,0,,7,,,79,127
88828,note_off,0,0,0,,11,,,82,127
88828,note_off,0,0,0,,0,,,84,127
88834,note_off,6,0,0,,0,,,48,127
88834,note_off,0,0,0,,0,,,36,127
88838,note_on,4,0,0,,5,,,89,127
88838,note_on,0,0,0,,10,,,81,127
88838,note_on,0,0,0,,5,,,77,127
88838,note_on,0,0,0,,5,,,41,127
88838,note_on,0,0,0,,5,,,53,127
89065,note_off,227,0,0,,5,,,53,127
89065,note_off,0,0,0,,5,,,41,127
89065,note_off,0,0,0,,5,,,77,127
89065,note_off,0,0,0,,10,,,81,127
89065,note_off,0,0,0,,5,,,89,127
89069,note_on,4,0,0,,10,,,69,127
89069,note_on,0,0,0,,5,,,65,127
89181,note_off,112,0,0,,5,,,65,127
89181,note_off,0,0,0,,10,,,69,127
89185,note_on,4,0,0,,11,,,70,127
89185,note_on,0,0,0,,7,,,67,127
89297,note_off,112,0,0,,7,,,67,127
89297,note_off,0,0,0,,11,,,70,127
89301,note_on,4,0,0,,0,,,72,127
89301,note_on,0,0,0,,10,,,69,127
89413,note_off,112,0,0,,10,,,69,127
89413,note_off,0,0,0,,0,,,72,127
89417,note_on,4,0,0,,7,,,79,127
89417,note_on,0,0,0,,11,,,70,127
89529,note_off,112,0,0,,11,,,70,127
89529,note_off,0,0,0,,7,,,79,127
89533,note_on,4,0,0,,5,,,77,127
89533,note_on,0,0,0,,10,,,69,127
89645,note_off,112,0,0,,10,,,69,127
89645,note_off,0,0,0,,5,,,77,127
89649,note_on,4,0,0,,4,,,76,127
89649,note_on,0,0,0,,7,,,67,127
89761,note_off,112,0,0,,7,,,67,127
89761,note_off,0,0,0,,4,,,76,127
89765,note_on,4,0,0,,5,,,77,127
89765,note_on,0,0,0,,10,,,69,127
89969,note_off,204,0,0,,10,,,69,127
89969,note_off,0,0,0,,5,,,77,127
89995,note_on,26,0,0,,0,,,84,127
89995,note_on,0,0,0,,4,,,88,127
89995,note_on,0,0,0,,7,,,79,127
89995,note_on,0,0,0,,11,,,82,127
89995,note_on,0,0,0,,0,,,36,127
89995,note_on,0,0,0,,0,,,48,127
90216,note_off,221,0,0,,11,,,82,127
90216,note_off,0,0,0,,7,,,79,127
90216,note_off,0,0,0,,4,,,88,127
90216,note_off,0,0,0,,0,,,84,127
90222,note_off,6,0,0,,0,,,48,127
90222,note_off,0,0,0,,0,,,36,127
90226,note_on,4,0,0,,5,,,89,127
90226,note_on,0,0,0,,5,,,41,127
90226,note_on,0,0,0,,5,,,53,127
90338,note_off,112,0,0,,5,,,89,127
90342,note_on,4,0,0,,4,,,88,127
90454,note_off,112,0,0,,4,,,88,127
90458,note_on,4,0,0,,2,,,86,127
90570,note_off,112,0,0,,2,,,86,127
90574,note_on,4,0,0,,0,,,84,127
90686,note_off,112,0,0,,0,,,84,127
90686,note_off,0,0,0,,5,,,53,127
90686,note_off,0,0,0,,5,,,41,127
90690,note_on,4,0,0,,11,,,82,127
90690,note_on,0,0,0,,11,,,58,127
90690,note_on,0,0,0,,11,,,46,127
90802,note_off,112,0,0,,11,,,82,127
90806,note_on,4,0,0,,10,,,81,127
90918,note_off,112,0,0,,10,,,81,127
90918,note_off,0,0,0,,11,,,46,127
90918,note_off,0,0,0,,11,,,58,127
90922,note_on,4,0,0,,7,,,79,127
90922,note_on,0,0,0,,2,,,62,127
90922,note_on,0,0,0,,2,,,50,127
91034,note_off,112,0,0,,7,,,79,127
91038,note_on,4,0,0,,5,,,77,127
91150,note_off,112,0,0,,5,,,77,127
91150,note_off,0,0,0,,2,,,50,127
91150,note_off,0,0,0,,2,,,62,127
91154,note_on,4,0,0,,10,,,81,127
91154,note_on,0,0,0,,0,,,60,127
91154,note_on,0,0,0,,0,,,48,127
91227,note_off,73,0,0,,10,,,81,127
91231,note_on,4,0,0,,7,,,79,127
91304,note_off,73,0,0,,7,,,79,127
91308,note_on,4,0,0,,10,,,81,127
91381,note_off,73,0,0,,10,,,81,127
91385,note_on,4,0,0,,7,,,79,127
91458,note_off,73,0,0,,7,,,79,127
91462,note_on,4,0,0,,5,,,77,127
91535,note_off,73,0,0,,5,,,77,127
91539,note_on,4,0,0,,7,,,79,127
91612,note_off,73,0,0,,7,,,79,127
91612,note_off,0,0,0,,0,,,48,127
91612,note_off,0,0,0,,0,,,60,127
91616,note_on,4,0,0,,5,,,77,127
91616,note_on,0,0,0,,5,,,53,127
91616,note_on,0,0,0,,5,,,41,127
91728,note_off,112,0,0,,5,,,77,127
91732,note_on,4,0,0,,4,,,76,127
91844,note_off,112,0,0,,4,,,76,127
91848,note_on,4,0,0,,2,,,74,127
91960,note_off,112,0,0,,2,,,74,127
91964,note_on,4,0,0,,0,,,72,127
92076,note_off,112,0,0,,0,,,72,127
92076,note_off,0,0,0,,5,,,41,127
92076,note_off,0,0,0,,5,,,53,127
92080,note_on,4,0,0,,11,,,70,127
92080,note_on,0,0,0,,11,,,58,127
92080,note_on,0,0,0,,11,,,46,127
92192,note_off,112,0,0,,11,,,70,127
92196,note_on,4,0,0,,10,,,69,127
92308,note_off,112,0,0,,10,,,69,127
92312,note_on,4,0,0,,7,,,67,127
92424,note_off,112,0,0,,7,,,67,127
92428,note_on,4,0,0,,5,,,65,127
92540,note_off,112,0,0,,5,,,65,127
92540,note_off,0,0,0,,11,,,46,127
92540,note_off,0,0,0,,11,,,58,127
92544,note_on,4,0,0,,10,,,69,127
92544,note_on,0,0,0,,0,,,48,127
92544,note_on,0,0,0,,0,,,36,127
92617,note_off,73,0,0,,10,,,69,127
92621,note_on,4,0,0,,7,,,67,127
92694,note_off,73,0,0,,7,,,67,127
92698,note_on,4,0,0,,10,,,69,127
92771,note_off,73,0,0,,10,,,69,127
92775,note_on,4,0,0,,7,,,67,127
92848,note_off,73,0,0,,7,,,67,127
92852,note_on,4,0,0,,5,,,65,127
92925,note_off,73,0,0,,5,,,65,127
92929,note_on,4,0,0,,7,,,67,127
93002,note_off,73,0,0,,7,,,67,127
93002,note_off,0,0,0,,0,,,36,127
93002,note_off,0,0,0,,0,,,48,127
93016,note_on,14,0,0,,5,,,65,127
93016,note_on,0,0,0,,5,,,41,127
95435,note_off,2419,0,0,,5,,,41,127
95435,note_off,0,0,0,,5,,,65,127
96768,end_of_track,1333,1,0,,,,,,
