tick,type,time,meta,track,program,channel,pitch,tempo,note,velocity
0,copyright,0,1,0,,,,,,
0,program_change,0,0,0,6,0,,,,
0,pitchwheel,0,0,0,,0,0,,,
0,program_change,0,0,0,6,1,,,,
0,pitchwheel,0,0,0,,1,-590,,,
0,program_change,0,0,0,6,2,,,,
0,pitchwheel,0,0,0,,2,-272,,,
0,program_change,0,0,0,6,3,,,,
0,pitchwheel,0,0,0,,3,-353,,,
0,program_change,0,0,0,6,4,,,,
0,pitchwheel,0,0,0,,4,-560,,,
0,program_change,0,0,0,6,5,,,,
0,pitchwheel,0,0,0,,5,-80,,,
0,program_change,0,0,0,6,6,,,,
0,pitchwheel,0,0,0,,6,-625,,,
0,program_change,0,0,0,6,7,,,,
0,pitchwheel,0,0,0,,7,-130,,,
0,program_change,0,0,0,6,8,,,,
0,pitchwheel,0,0,0,,8,-512,,,
0,program_change,0,0,0,6,10,,,,
0,pitchwheel,0,0,0,,10,-464,,,
0,program_change,0,0,0,6,11,,,,
0,pitchwheel,0,0,0,,11,-208,,,
0,program_change,0,0,0,6,12,,,,
0,pitchwheel,0,0,0,,12,-553,,,
0,set_tempo,0,1,0,,,,500000,,
89,note_on,89,0,0,,5,,,77,127
265,note_off,176,0,0,,5,,,77,127
266,note_on,1,0,0,,10,,,81,127
442,note_off,176,0,0,,10,,,81,127
443,note_on,1,0,0,,7,,,79,127
619,note_off,176,0,0,,7,,,79,127
620,note_on,1,0,0,,5,,,77,127
796,note_off,176,0,0,,5,,,77,127
797,note_on,1,0,0,,2,,,74,127
973,note_off,176,0,0,,2,,,74,127
974,note_on,1,0,0,,0,,,72,127
1150,note_off,176,0,0,,0,,,72,127
1151,note_on,1,0,0,,11,,,70,127
1327,note_off,176,0,0,,11,,,70,127
1328,note_on,1,0,0,,7,,,67,127
1504,note_off,176,0,0,,7,,,67,127
1505,note_on,1,0,0,,5,,,65,127
1681,note_off,176,0,0,,5,,,65,127
1682,note_on,1,0,0,,4,,,64,127
1858,note_off,176,0,0,,4,,,64,127
1859,note_on,1,0,0,,0,,,60,127
2035,note_off,176,0,0,,0,,,60,127
2036,note_on,1,0,0,,11,,,58,127
2212,note_off,176,0,0,,11,,,58,127
2213,note_on,1,0,0,,5,,,65,127
2213,note_on,0,0,0,,10,,,57,127
2389,note_off,176,0,0,,5,,,65,127
2390,note_on,1,0,0,,10,,,69,127
2566,note_off,176,0,0,,10,,,69,127
2567,note_on,1,0,0,,7,,,67,127
2743,note_off,176,0,0,,7,,,67,127
2743,note_off,0,0,0,,10,,,57,127
2744,note_on,1,0,0,,5,,,65,127
2920,note_off,176,0,0,,5,,,65,127
2921,note_on,1,0,0,,2,,,62,127
3097,note_off,176,0,0,,2,,,62,127
3098,note_on,1,0,0,,0,,,60,127
3274,note_off,176,0,0,,0,,,60,127
3275,note_on,1,0,0,,11,,,58,127
3451,note_off,176,0,0,,11,,,58,127
3452,note_on,1,0,0,,7,,,55,127
3628,note_off,176,0,0,,7,,,55,127
3629,note_on,1,0,0,,5,,,53,127
3805,note_off,176,0,0,,5,,,53,127
3806,note_on,1,0,0,,4,,,52,127
3982,note_off,176,0,0,,4,,,52,127
3983,note_on,1,0,0,,0,,,48,127
4159,note_off,176,0,0,,0,,,48,127
4160,note_on,1,0,0,,11,,,46,127
4336,note_off,176,0,0,,11,,,46,127
4337,note_on,1,0,0,,10,,,45,127
4514,note_on,177,0,0,,0,,,48,127
4690,note_off,176,0,0,,0,,,48,127
4691,note_on,1,0,0,,5,,,53,127
4868,note_on,177,0,0,,10,,,57,127
4868,note_on,0,0,0,,0,,,72,127
4956,note_off,88,0,0,,0,,,72,127
4957,note_on,1,0,0,,11,,,70,127
5045,note_off,88,0,0,,11,,,70,127
5046,note_on,1,0,0,,10,,,69,127
5134,note_off,88,0,0,,10,,,69,127
5135,note_on,1,0,0,,7,,,67,127
5223,note_off,88,0,0,,7,,,67,127
5224,note_on,1,0,0,,10,,,69,127
5282,note_off,58,0,0,,10,,,69,127
5283,note_on,1,0,0,,11,,,70,127
5341,note_off,58,0,0,,11,,,70,127
5342,note_on,1,0,0,,0,,,72,127
5400,note_off,58,0,0,,0,,,72,127
5400,note_off,0,0,0,,10,,,57,127
5401,note_off,1,0,0,,10,,,45,127
5401,note_on,0,0,0,,11,,,46,127
5401,note_on,0,0,0,,7,,,55,127
5401,note_on,0,0,0,,2,,,74,127
5489,note_off,88,0,0,,2,,,74,127
5490,note_on,1,0,0,,0,,,72,127
5578,note_off,88,0,0,,0,,,72,127
5579,note_on,1,0,0,,11,,,70,127
5667,note_off,88,0,0,,11,,,70,127
5668,note_on,1,0,0,,10,,,69,127
5756,note_off,88,0,0,,10,,,69,127
5757,note_on,1,0,0,,11,,,70,127
5815,note_off,58,0,0,,11,,,70,127
5816,note_on,1,0,0,,0,,,72,127
5874,note_off,58,0,0,,0,,,72,127
5875,note_on,1,0,0,,2,,,74,127
5933,note_off,58,0,0,,2,,,74,127
5933,note_off,0,0,0,,7,,,55,127
5933,note_off,0,0,0,,11,,,46,127
5934,note_off,1,0,0,,5,,,53,127
5934,note_on,0,0,0,,0,,,48,127
5934,note_on,0,0,0,,0,,,60,127
5934,note_on,0,0,0,,7,,,55,127
5934,note_on,0,0,0,,4,,,76,127
6022,note_off,88,0,0,,4,,,76,127
6023,note_on,1,0,0,,2,,,74,127
6111,note_off,88,0,0,,2,,,74,127
6112,note_on,1,0,0,,0,,,72,127
6200,note_off,88,0,0,,0,,,72,127
6201,note_on,1,0,0,,11,,,70,127
6289,note_off,88,0,0,,11,,,70,127
6290,note_on,1,0,0,,0,,,72,127
6348,note_off,58,0,0,,0,,,72,127
6349,note_on,1,0,0,,2,,,74,127
6407,note_off,58,0,0,,2,,,74,127
6408,note_on,1,0,0,,4,,,76,127
6466,note_off,58,0,0,,4,,,76,127
6466,note_off,0,0,0,,7,,,55,127
6466,note_off,0,0,0,,0,,,60,127
6466,note_off,0,0,0,,0,,,48,127
6467,note_on,1,0,0,,5,,,41,127
6467,note_on,0,0,0,,5,,,53,127
6467,note_on,0,0,0,,5,,,77,127
6643,note_off,176,0,0,,5,,,77,127
6644,note_on,1,0,0,,0,,,72,127
6820,note_off,176,0,0,,0,,,72,127
6821,note_on,1,0,0,,10,,,69,127
6983,note_off,162,0,0,,5,,,53,127
6983,note_off,0,0,0,,5,,,41,127
6997,note_off,14,0,0,,10,,,69,127
6998,note_on,1,0,0,,10,,,57,127
6998,note_on,0,0,0,,5,,,65,127
7086,note_off,88,0,0,,10,,,57,127
7087,note_on,1,0,0,,7,,,55,127
7175,note_off,88,0,0,,7,,,55,127
7176,note_on,1,0,0,,5,,,53,127
7264,note_off,88,0,0,,5,,,53,127
7265,note_on,1,0,0,,4,,,52,127
7353,note_off,88,0,0,,4,,,52,127
7354,note_on,1,0,0,,5,,,53,127
7412,note_off,58,0,0,,5,,,53,127
7413,note_on,1,0,0,,7,,,55,127
7471,note_off,58,0,0,,7,,,55,127
7472,note_on,1,0,0,,10,,,57,127
7530,note_off,58,0,0,,10,,,57,127
7530,note_off,0,0,0,,5,,,65,127
7531,note_on,1,0,0,,11,,,58,127
7531,note_on,0,0,0,,2,,,74,127
7619,note_off,88,0,0,,11,,,58,127
7620,note_on,1,0,0,,10,,,57,127
7708,note_off,88,0,0,,10,,,57,127
7709,note_on,1,0,0,,7,,,55,127
7797,note_off,88,0,0,,7,,,55,127
7798,note_on,1,0,0,,5,,,53,127
7886,note_off,88,0,0,,5,,,53,127
7887,note_on,1,0,0,,7,,,55,127
7945,note_off,58,0,0,,7,,,55,127
7946,note_on,1,0,0,,10,,,57,127
8004,note_off,58,0,0,,10,,,57,127
8005,note_on,1,0,0,,11,,,58,127
8063,note_off,58,0,0,,11,,,58,127
8063,note_off,0,0,0,,2,,,74,127
8064,note_on,1,0,0,,0,,,60,127
8064,note_on,0,0,0,,0,,,72,127
8152,note_off,88,0,0,,0,,,60,127
8153,note_on,1,0,0,,11,,,58,127
8241,note_off,88,0,0,,11,,,58,127
8242,note_on,1,0,0,,10,,,57,127
8330,note_off,88,0,0,,10,,,57,127
8331,note_on,1,0,0,,11,,,58,127
8419,note_off,88,0,0,,11,,,58,127
8419,note_off,0,0,0,,0,,,72,127
8420,note_on,1,0,0,,0,,,60,127
8420,note_on,0,0,0,,11,,,70,127
8478,note_off,58,0,0,,0,,,60,127
8479,note_on,1,0,0,,2,,,62,127
8537,note_off,58,0,0,,2,,,62,127
8538,note_on,1,0,0,,4,,,64,127
8596,note_off,58,0,0,,4,,,64,127
8596,note_off,0,0,0,,11,,,70,127
8597,note_on,1,0,0,,5,,,65,127
8597,note_on,0,0,0,,11,,,70,127
8640,note_off,43,0,0,,11,,,70,127
8641,note_on,1,0,0,,10,,,69,127
8684,note_off,43,0,0,,10,,,69,127
8685,note_on,1,0,0,,11,,,70,127
8728,note_off,43,0,0,,11,,,70,127
8729,note_on,1,0,0,,10,,,69,127
8772,note_off,43,0,0,,10,,,69,127
8773,note_on,1,0,0,,7,,,67,127
8947,note_off,174,0,0,,5,,,65,127
8950,note_off,3,0,0,,7,,,67,127
8951,note_on,1,0,0,,5,,,65,127
9108,note_off,157,0,0,,5,,,65,127
9128,note_on,20,0,0,,5,,,65,127
9128,note_on,0,0,0,,10,,,69,127
9128,note_on,0,0,0,,10,,,81,127
9304,note_off,176,0,0,,10,,,81,127
9305,note_on,1,0,0,,0,,,84,127
9348,note_off,43,0,0,,0,,,84,127
9349,note_on,1,0,0,,12,,,83,127
9392,note_off,43,0,0,,12,,,83,127
9393,note_on,1,0,0,,11,,,82,127
9436,note_off,43,0,0,,11,,,82,127
9437,note_on,1,0,0,,12,,,83,127
9480,note_off,43,0,0,,12,,,83,127
9481,note_on,1,0,0,,2,,,74,127
9657,note_off,176,0,0,,2,,,74,127
9657,note_off,0,0,0,,10,,,69,127
9657,note_off,0,0,0,,5,,,65,127
9658,note_on,1,0,0,,10,,,69,127
9658,note_on,0,0,0,,4,,,64,127
9658,note_on,0,0,0,,10,,,81,127
9834,note_off,176,0,0,,10,,,81,127
9835,note_on,1,0,0,,0,,,84,127
9878,note_off,43,0,0,,0,,,84,127
9879,note_on,1,0,0,,12,,,83,127
9922,note_off,43,0,0,,12,,,83,127
9923,note_on,1,0,0,,11,,,82,127
9966,note_off,43,0,0,,11,,,82,127
9967,note_on,1,0,0,,12,,,83,127
10010,note_off,43,0,0,,12,,,83,127
10011,note_on,1,0,0,,0,,,72,127
10187,note_off,176,0,0,,0,,,72,127
10187,note_off,0,0,0,,4,,,64,127
10187,note_off,0,0,0,,10,,,69,127
10188,note_on,1,0,0,,3,,,63,127
10188,note_on,0,0,0,,10,,,69,127
10188,note_on,0,0,0,,10,,,81,127
10364,note_off,176,0,0,,10,,,81,127
10365,note_on,1,0,0,,0,,,84,127
10408,note_off,43,0,0,,0,,,84,127
10409,note_on,1,0,0,,12,,,83,127
10452,note_off,43,0,0,,12,,,83,127
10453,note_on,1,0,0,,11,,,82,127
10496,note_off,43,0,0,,11,,,82,127
10497,note_on,1,0,0,,12,,,83,127
10540,note_off,43,0,0,,12,,,83,127
10541,note_on,1,0,0,,12,,,71,127
10717,note_off,176,0,0,,12,,,71,127
10717,note_off,0,0,0,,10,,,69,127
10717,note_off,0,0,0,,3,,,63,127
10718,note_on,1,0,0,,4,,,64,127
10718,note_on,0,0,0,,7,,,67,127
10718,note_on,0,0,0,,10,,,81,127
10806,note_off,88,0,0,,10,,,81,127
10807,note_on,1,0,0,,7,,,79,127
10895,note_off,88,0,0,,7,,,79,127
10896,note_on,1,0,0,,6,,,78,127
11072,note_off,176,0,0,,6,,,78,127
11073,note_on,1,0,0,,4,,,76,127
11239,note_off,166,0,0,,4,,,76,127
11249,note_off,10,0,0,,7,,,67,127
11249,note_off,0,0,0,,4,,,64,127
11250,note_on,1,0,0,,2,,,62,127
11250,note_on,0,0,0,,7,,,67,127
11250,note_on,0,0,0,,7,,,79,127
11426,note_off,176,0,0,,7,,,79,127
11427,note_on,1,0,0,,11,,,82,127
11470,note_off,43,0,0,,11,,,82,127
11471,note_on,1,0,0,,10,,,81,127
11514,note_off,43,0,0,,10,,,81,127
11515,note_on,1,0,0,,8,,,80,127
11558,note_off,43,0,0,,8,,,80,127
11559,note_on,1,0,0,,10,,,81,127
11602,note_off,43,0,0,,10,,,81,127
11603,note_on,1,0,0,,11,,,70,127
11779,note_off,176,0,0,,11,,,70,127
11779,note_off,0,0,0,,7,,,67,127
11779,note_off,0,0,0,,2,,,62,127
11780,note_on,1,0,0,,1,,,61,127
11780,note_on,0,0,0,,7,,,67,127
11780,note_on,0,0,0,,7,,,79,127
11956,note_off,176,0,0,,7,,,79,127
11957,note_on,1,0,0,,11,,,82,127
12000,note_off,43,0,0,,11,,,82,127
12001,note_on,1,0,0,,10,,,81,127
12044,note_off,43,0,0,,10,,,81,127
12045,note_on,1,0,0,,8,,,80,127
12088,note_off,43,0,0,,8,,,80,127
12089,note_on,1,0,0,,10,,,81,127
12132,note_off,43,0,0,,10,,,81,127
12133,note_on,1,0,0,,10,,,69,127
12309,note_off,176,0,0,,10,,,69,127
12309,note_off,0,0,0,,7,,,67,127
12309,note_off,0,0,0,,1,,,61,127
12310,note_on,1,0,0,,7,,,67,127
12310,note_on,0,0,0,,10,,,57,127
12310,note_on,0,0,0,,7,,,79,127
12486,note_off,176,0,0,,7,,,79,127
12487,note_on,1,0,0,,11,,,82,127
12530,note_off,43,0,0,,11,,,82,127
12531,note_on,1,0,0,,10,,,81,127
12574,note_off,43,0,0,,10,,,81,127
12575,note_on,1,0,0,,8,,,80,127
12618,note_off,43,0,0,,8,,,80,127
12619,note_on,1,0,0,,10,,,81,127
12662,note_off,43,0,0,,10,,,81,127
12663,note_on,1,0,0,,10,,,69,127
12839,note_off,176,0,0,,10,,,69,127
12839,note_off,0,0,0,,10,,,57,127
12839,note_off,0,0,0,,7,,,67,127
12840,note_on,1,0,0,,5,,,65,127
12840,note_on,0,0,0,,2,,,62,127
12840,note_on,0,0,0,,7,,,79,127
12883,note_off,43,0,0,,7,,,79,127
12884,note_on,1,0,0,,5,,,77,127
12927,note_off,43,0,0,,5,,,77,127
12928,note_on,1,0,0,,7,,,79,127
12971,note_off,43,0,0,,7,,,79,127
12972,note_on,1,0,0,,5,,,77,127
13015,note_off,43,0,0,,5,,,77,127
13016,note_on,1,0,0,,4,,,76,127
13192,note_off,176,0,0,,4,,,76,127
13193,note_on,1,0,0,,2,,,74,127
13359,note_off,166,0,0,,2,,,74,127
13369,note_off,10,0,0,,2,,,62,127
13369,note_off,0,0,0,,5,,,65,127
13370,note_on,1,0,0,,0,,,60,127
13370,note_on,0,0,0,,5,,,65,127
13370,note_on,0,0,0,,5,,,77,127
13546,note_off,176,0,0,,5,,,77,127
13547,note_on,1,0,0,,10,,,81,127
13590,note_off,43,0,0,,10,,,81,127
13591,note_on,1,0,0,,7,,,79,127
13634,note_off,43,0,0,,7,,,79,127
13635,note_on,1,0,0,,5,,,77,127
13678,note_off,43,0,0,,5,,,77,127
13679,note_on,1,0,0,,7,,,79,127
13722,note_off,43,0,0,,7,,,79,127
13723,note_on,1,0,0,,10,,,69,127
13899,note_off,176,0,0,,10,,,69,127
13899,note_off,0,0,0,,5,,,65,127
13899,note_off,0,0,0,,0,,,60,127
13900,note_on,1,0,0,,5,,,65,127
13900,note_on,0,0,0,,12,,,59,127
13900,note_on,0,0,0,,5,,,77,127
14076,note_off,176,0,0,,5,,,77,127
14077,note_on,1,0,0,,10,,,81,127
14120,note_off,43,0,0,,10,,,81,127
14121,note_on,1,0,0,,7,,,79,127
14164,note_off,43,0,0,,7,,,79,127
14165,note_on,1,0,0,,5,,,77,127
14208,note_off,43,0,0,,5,,,77,127
14209,note_on,1,0,0,,7,,,79,127
14252,note_off,43,0,0,,7,,,79,127
14253,note_on,1,0,0,,7,,,67,127
14429,note_off,176,0,0,,7,,,67,127
14429,note_off,0,0,0,,12,,,59,127
14429,note_off,0,0,0,,5,,,65,127
14430,note_on,1,0,0,,7,,,55,127
14430,note_on,0,0,0,,5,,,65,127
14430,note_on,0,0,0,,5,,,77,127
14606,note_off,176,0,0,,5,,,77,127
14607,note_on,1,0,0,,10,,,81,127
14650,note_off,43,0,0,,10,,,81,127
14651,note_on,1,0,0,,7,,,79,127
14694,note_off,43,0,0,,7,,,79,127
14695,note_on,1,0,0,,5,,,77,127
14738,note_off,43,0,0,,5,,,77,127
14739,note_on,1,0,0,,7,,,79,127
14782,note_off,43,0,0,,7,,,79,127
14783,note_on,1,0,0,,7,,,67,127
14959,note_off,176,0,0,,7,,,67,127
14959,note_off,0,0,0,,5,,,65,127
14959,note_off,0,0,0,,7,,,55,127
14960,note_on,1,0,0,,4,,,64,127
14960,note_on,0,0,0,,0,,,60,127
14960,note_on,0,0,0,,5,,,77,127
15003,note_off,43,0,0,,5,,,77,127
15004,note_on,1,0,0,,4,,,76,127
15047,note_off,43,0,0,,4,,,76,127
15048,note_on,1,0,0,,5,,,77,127
15091,note_off,43,0,0,,5,,,77,127
15092,note_on,1,0,0,,4,,,76,127
15135,note_off,43,0,0,,4,,,76,127
15136,note_on,1,0,0,,2,,,74,127
15312,note_off,176,0,0,,2,,,74,127
15313,note_on,1,0,0,,0,,,72,127
15489,note_off,176,0,0,,0,,,72,127
15489,note_off,0,0,0,,0,,,60,127
15489,note_off,0,0,0,,4,,,64,127
15490,note_on,1,0,0,,4,,,52,127
15490,note_on,0,0,0,,10,,,69,127
15542,note_off,52,0,0,,10,,,69,127
15543,note_on,1,0,0,,7,,,67,127
15596,note_off,53,0,0,,7,,,67,127
15597,note_on,1,0,0,,10,,,69,127
15649,note_off,52,0,0,,10,,,69,127
15650,note_on,1,0,0,,7,,,67,127
15668,note_off,18,0,0,,4,,,52,127
15669,note_on,1,0,0,,12,,,59,127
15703,note_off,34,0,0,,7,,,67,127
15704,note_on,1,0,0,,10,,,69,127
15757,note_off,53,0,0,,10,,,69,127
15758,note_on,1,0,0,,7,,,67,127
15810,note_off,52,0,0,,7,,,67,127
15811,note_on,1,0,0,,10,,,69,127
15846,note_off,35,0,0,,12,,,59,127
15847,note_on,1,0,0,,0,,,60,127
15864,note_off,17,0,0,,10,,,69,127
15865,note_on,1,0,0,,7,,,67,127
15917,note_off,52,0,0,,7,,,67,127
15918,note_on,1,0,0,,10,,,69,127
15971,note_off,53,0,0,,10,,,69,127
15972,note_on,1,0,0,,7,,,67,127
16025,note_off,53,0,0,,7,,,67,127
16025,note_off,0,0,0,,0,,,60,127
16026,note_on,1,0,0,,5,,,53,127
16026,note_on,0,0,0,,11,,,70,127
16078,note_off,52,0,0,,11,,,70,127
16079,note_on,1,0,0,,10,,,69,127
16132,note_off,53,0,0,,10,,,69,127
16133,note_on,1,0,0,,11,,,70,127
16185,note_off,52,0,0,,11,,,70,127
16186,note_on,1,0,0,,10,,,69,127
16204,note_off,18,0,0,,5,,,53,127
16205,note_on,1,0,0,,0,,,60,127
16239,note_off,34,0,0,,10,,,69,127
16240,note_on,1,0,0,,11,,,70,127
16293,note_off,53,0,0,,11,,,70,127
16294,note_on,1,0,0,,10,,,69,127
16346,note_off,52,0,0,,10,,,69,127
16347,note_on,1,0,0,,11,,,70,127
16382,note_off,35,0,0,,0,,,60,127
16383,note_on,1,0,0,,2,,,62,127
16400,note_off,17,0,0,,11,,,70,127
16401,note_on,1,0,0,,10,,,69,127
16453,note_off,52,0,0,,10,,,69,127
16454,note_on,1,0,0,,11,,,70,127
16507,note_off,53,0,0,,11,,,70,127
16508,note_on,1,0,0,,10,,,69,127
16561,note_off,53,0,0,,10,,,69,127
16561,note_off,0,0,0,,2,,,62,127
16562,note_on,1,0,0,,7,,,55,127
16562,note_on,0,0,0,,0,,,72,127
16614,note_off,52,0,0,,0,,,72,127
16615,note_on,1,0,0,,12,,,71,127
16668,note_off,53,0,0,,12,,,71,127
16669,note_on,1,0,0,,0,,,72,127
16721,note_off,52,0,0,,0,,,72,127
16722,note_on,1,0,0,,12,,,71,127
16740,note_off,18,0,0,,7,,,55,127
16741,note_on,1,0,0,,2,,,62,127
16775,note_off,34,0,0,,12,,,71,127
16776,note_on,1,0,0,,0,,,72,127
16829,note_off,53,0,0,,0,,,72,127
16830,note_on,1,0,0,,12,,,71,127
16882,note_off,52,0,0,,12,,,71,127
16883,note_on,1,0,0,,0,,,72,127
16918,note_off,35,0,0,,2,,,62,127
16919,note_on,1,0,0,,4,,,64,127
16936,note_off,17,0,0,,0,,,72,127
16937,note_on,1,0,0,,12,,,71,127
16989,note_off,52,0,0,,12,,,71,127
16990,note_on,1,0,0,,0,,,72,127
17043,note_off,53,0,0,,0,,,72,127
17044,note_on,1,0,0,,12,,,71,127
17097,note_off,53,0,0,,12,,,71,127
17097,note_off,0,0,0,,4,,,64,127
17098,note_on,1,0,0,,10,,,57,127
17098,note_on,0,0,0,,2,,,74,127
17150,note_off,52,0,0,,2,,,74,127
17151,note_on,1,0,0,,0,,,72,127
17204,note_off,53,0,0,,0,,,72,127
17205,note_on,1,0,0,,2,,,74,127
17257,note_off,52,0,0,,2,,,74,127
17258,note_on,1,0,0,,0,,,72,127
17276,note_off,18,0,0,,10,,,57,127
17277,note_on,1,0,0,,4,,,64,127
17311,note_off,34,0,0,,0,,,72,127
17312,note_on,1,0,0,,2,,,74,127
17365,note_off,53,0,0,,2,,,74,127
17366,note_on,1,0,0,,0,,,72,127
17418,note_off,52,0,0,,0,,,72,127
17419,note_on,1,0,0,,2,,,74,127
17454,note_off,35,0,0,,4,,,64,127
17455,note_on,1,0,0,,5,,,65,127
17472,note_off,17,0,0,,2,,,74,127
17473,note_on,1,0,0,,0,,,72,127
17525,note_off,52,0,0,,0,,,72,127
17526,note_on,1,0,0,,2,,,74,127
17579,note_off,53,0,0,,2,,,74,127
17580,note_on,1,0,0,,0,,,72,127
17633,note_off,53,0,0,,0,,,72,127
17633,note_off,0,0,0,,5,,,65,127
17634,note_on,1,0,0,,12,,,59,127
17634,note_on,0,0,0,,4,,,76,127
17686,note_off,52,0,0,,4,,,76,127
17687,note_on,1,0,0,,2,,,74,127
17740,note_off,53,0,0,,2,,,74,127
17741,note_on,1,0,0,,4,,,76,127
17793,note_off,52,0,0,,4,,,76,127
17794,note_on,1,0,0,,2,,,74,127
17812,note_off,18,0,0,,12,,,59,127
17813,note_on,1,0,0,,6,,,66,127
17847,note_off,34,0,0,,2,,,74,127
17848,note_on,1,0,0,,4,,,76,127
17901,note_off,53,0,0,,4,,,76,127
17902,note_on,1,0,0,,2,,,74,127
17954,note_off,52,0,0,,2,,,74,127
17955,note_on,1,0,0,,4,,,76,127
17990,note_off,35,0,0,,6,,,66,127
17991,note_on,1,0,0,,7,,,67,127
18008,note_off,17,0,0,,4,,,76,127
18009,note_on,1,0,0,,2,,,74,127
18061,note_off,52,0,0,,2,,,74,127
18062,note_on,1,0,0,,4,,,76,127
18115,note_off,53,0,0,,4,,,76,127
18116,note_on,1,0,0,,2,,,74,127
18169,note_off,53,0,0,,2,,,74,127
18169,note_off,0,0,0,,7,,,67,127
18170,note_on,1,0,0,,0,,,60,127
18170,note_on,0,0,0,,5,,,77,127
18222,note_off,52,0,0,,5,,,77,127
18223,note_on,1,0,0,,4,,,76,127
18276,note_off,53,0,0,,4,,,76,127
18277,note_on,1,0,0,,5,,,77,127
18329,note_off,52,0,0,,5,,,77,127
18330,note_on,1,0,0,,4,,,76,127
18348,note_off,18,0,0,,0,,,60,127
18349,note_on,1,0,0,,4,,,64,127
18383,note_off,34,0,0,,4,,,76,127
18384,note_on,1,0,0,,5,,,77,127
18437,note_off,53,0,0,,5,,,77,127
18438,note_on,1,0,0,,4,,,76,127
18490,note_off,52,0,0,,4,,,76,127
18491,note_on,1,0,0,,5,,,77,127
18526,note_off,35,0,0,,4,,,64,127
18527,note_on,1,0,0,,7,,,67,127
18544,note_off,17,0,0,,5,,,77,127
18545,note_on,1,0,0,,4,,,76,127
18597,note_off,52,0,0,,4,,,76,127
18598,note_on,1,0,0,,5,,,77,127
18651,note_off,53,0,0,,5,,,77,127
18652,note_on,1,0,0,,4,,,76,127
18705,note_off,53,0,0,,4,,,76,127
18705,note_off,0,0,0,,7,,,67,127
18706,note_on,1,0,0,,10,,,57,127
18706,note_on,0,0,0,,0,,,60,127
18706,note_on,0,0,0,,2,,,62,127
18706,note_on,0,0,0,,6,,,66,127
18706,note_on,0,0,0,,7,,,79,127
18749,note_off,43,0,0,,7,,,79,127
18750,note_on,1,0,0,,6,,,78,127
18793,note_off,43,0,0,,6,,,78,127
18794,note_on,1,0,0,,7,,,79,127
18837,note_off,43,0,0,,7,,,79,127
18838,note_on,1,0,0,,6,,,78,127
18881,note_off,43,0,0,,6,,,78,127
18882,note_on,1,0,0,,4,,,76,127
19058,note_off,176,0,0,,4,,,76,127
19059,note_on,1,0,0,,6,,,78,127
19235,note_off,176,0,0,,6,,,78,127
19235,note_off,0,0,0,,6,,,66,127
19235,note_off,0,0,0,,2,,,62,127
19235,note_off,0,0,0,,0,,,60,127
19235,note_off,0,0,0,,10,,,57,127
19236,note_on,1,0,0,,7,,,55,127
19236,note_on,0,0,0,,7,,,67,127
19236,note_on,0,0,0,,2,,,62,127
19236,note_on,0,0,0,,7,,,79,127
19412,note_off,176,0,0,,7,,,79,127
19413,note_on,1,0,0,,10,,,81,127
19589,note_off,176,0,0,,10,,,81,127
19590,note_on,1,0,0,,12,,,83,127
19766,note_off,176,0,0,,12,,,83,127
19766,note_off,0,0,0,,2,,,62,127
19766,note_off,0,0,0,,7,,,67,127
19766,note_off,0,0,0,,7,,,55,127
19767,note_on,1,0,0,,0,,,60,127
19767,note_on,0,0,0,,10,,,57,127
19767,note_on,0,0,0,,0,,,84,127
19943,note_off,176,0,0,,0,,,84,127
19944,note_on,1,0,0,,10,,,81,127
20120,note_off,176,0,0,,10,,,81,127
20121,note_on,1,0,0,,6,,,78,127
20297,note_off,176,0,0,,6,,,78,127
20297,note_off,0,0,0,,10,,,57,127
20297,note_off,0,0,0,,0,,,60,127
20298,note_on,1,0,0,,7,,,55,127
20298,note_on,0,0,0,,12,,,59,127
20298,note_on,0,0,0,,7,,,79,127
20474,note_off,176,0,0,,7,,,79,127
20475,note_on,1,0,0,,2,,,74,127
20651,note_off,176,0,0,,2,,,74,127
20652,note_on,1,0,0,,12,,,71,127
20828,note_off,176,0,0,,12,,,71,127
20828,note_off,0,0,0,,12,,,59,127
20828,note_off,0,0,0,,7,,,55,127
20829,note_on,1,0,0,,0,,,60,127
20829,note_on,0,0,0,,10,,,57,127
20829,note_on,0,0,0,,0,,,72,127
21005,note_off,176,0,0,,0,,,72,127
21006,note_on,1,0,0,,10,,,69,127
21182,note_off,176,0,0,,10,,,69,127
21183,note_on,1,0,0,,6,,,66,127
21359,note_off,176,0,0,,6,,,66,127
21359,note_off,0,0,0,,10,,,57,127
21359,note_off,0,0,0,,0,,,60,127
21360,note_on,1,0,0,,7,,,55,127
21360,note_on,0,0,0,,12,,,59,127
21360,note_on,0,0,0,,7,,,67,127
21536,note_off,176,0,0,,7,,,67,127
21537,note_on,1,0,0,,2,,,62,127
21711,note_off,174,0,0,,12,,,59,127
21714,note_off,3,0,0,,2,,,62,127
21715,note_on,1,0,0,,12,,,59,127
21891,note_off,176,0,0,,12,,,59,127
21891,note_off,0,0,0,,7,,,55,127
21892,note_on,1,0,0,,10,,,45,127
21892,note_on,0,0,0,,0,,,60,127
22068,note_off,176,0,0,,0,,,60,127
22069,note_on,1,0,0,,10,,,57,127
22245,note_off,176,0,0,,10,,,57,127
22246,note_on,1,0,0,,6,,,54,127
22422,note_off,176,0,0,,6,,,54,127
22422,note_off,0,0,0,,10,,,45,127
22423,note_on,1,0,0,,7,,,43,127
22423,note_on,0,0,0,,7,,,55,127
22774,note_off,351,0,0,,7,,,55,127
22954,note_off,180,0,0,,7,,,43,127
22955,note_on,1,0,0,,0,,,60,127
22955,note_on,0,0,0,,4,,,64,127
23131,note_off,176,0,0,,4,,,64,127
23131,note_off,0,0,0,,0,,,60,127
23132,note_on,1,0,0,,2,,,62,127
23132,note_on,0,0,0,,5,,,65,127
23308,note_off,176,0,0,,5,,,65,127
23308,note_off,0,0,0,,2,,,62,127
23309,note_on,1,0,0,,2,,,50,127
23309,note_on,0,0,0,,5,,,77,127
23485,note_off,176,0,0,,5,,,77,127
23485,note_off,0,0,0,,2,,,50,127
23486,note_on,1,0,0,,2,,,62,127
23486,note_on,0,0,0,,5,,,65,127
23662,note_off,176,0,0,,5,,,65,127
23662,note_off,0,0,0,,2,,,62,127
23663,note_on,1,0,0,,4,,,64,127
23663,note_on,0,0,0,,7,,,67,127
23839,note_off,176,0,0,,7,,,67,127
23839,note_off,0,0,0,,4,,,64,127
23840,note_on,1,0,0,,4,,,52,127
23840,note_on,0,0,0,,7,,,79,127
24016,note_off,176,0,0,,7,,,79,127
24016,note_off,0,0,0,,4,,,52,127
24017,note_on,1,0,0,,4,,,64,127
24017,note_on,0,0,0,,7,,,67,127
24193,note_off,176,0,0,,7,,,67,127
24193,note_off,0,0,0,,4,,,64,127
24194,note_on,1,0,0,,5,,,65,127
24194,note_on,0,0,0,,10,,,69,127
24370,note_off,176,0,0,,10,,,69,127
24370,note_off,0,0,0,,5,,,65,127
24371,note_on,1,0,0,,5,,,53,127
24371,note_on,0,0,0,,10,,,81,127
24547,note_off,176,0,0,,10,,,81,127
24547,note_off,0,0,0,,5,,,53,127
24548,note_on,1,0,0,,5,,,65,127
24548,note_on,0,0,0,,10,,,69,127
24724,note_off,176,0,0,,10,,,69,127
24724,note_off,0,0,0,,5,,,65,127
24725,note_on,1,0,0,,7,,,67,127
24725,note_on,0,0,0,,12,,,71,127
24901,note_off,176,0,0,,12,,,71,127
24901,note_off,0,0,0,,7,,,67,127
24902,note_on,1,0,0,,7,,,55,127
24902,note_on,0,0,0,,12,,,83,127
25078,note_off,176,0,0,,12,,,83,127
25078,note_off,0,0,0,,7,,,55,127
25079,note_on,1,0,0,,4,,,64,127
25079,note_on,0,0,0,,0,,,84,127
25255,note_off,176,0,0,,0,,,84,127
25255,note_off,0,0,0,,4,,,64,127
25256,note_on,1,0,0,,2,,,62,127
25256,note_on,0,0,0,,7,,,79,127
25432,note_off,176,0,0,,7,,,79,127
25432,note_off,0,0,0,,2,,,62,127
25433,note_on,1,0,0,,0,,,60,127
25433,note_on,0,0,0,,10,,,81,127
25609,note_off,176,0,0,,10,,,81,127
25609,note_off,0,0,0,,0,,,60,127
25610,note_on,1,0,0,,12,,,59,127
25610,note_on,0,0,0,,7,,,79,127
25786,note_off,176,0,0,,7,,,79,127
25787,note_on,1,0,0,,2,,,74,127
25963,note_off,176,0,0,,2,,,74,127
25963,note_off,0,0,0,,12,,,59,127
25964,note_on,1,0,0,,0,,,60,127
25964,note_on,0,0,0,,4,,,76,127
26140,note_off,176,0,0,,4,,,76,127
26140,note_off,0,0,0,,0,,,60,127
26141,note_on,1,0,0,,5,,,53,127
26141,note_on,0,0,0,,7,,,79,127
26141,note_on,0,0,0,,5,,,77,127
26317,note_off,176,0,0,,5,,,77,127
26317,note_off,0,0,0,,7,,,79,127
26317,note_off,0,0,0,,5,,,53,127
26318,note_on,1,0,0,,7,,,55,127
26318,note_on,0,0,0,,4,,,76,127
26494,note_off,176,0,0,,4,,,76,127
26495,note_on,1,0,0,,7,,,43,127
26495,note_on,0,0,0,,2,,,74,127
26671,note_off,176,0,0,,2,,,74,127
26671,note_off,0,0,0,,7,,,43,127
26671,note_off,0,0,0,,7,,,55,127
26672,note_on,1,0,0,,0,,,48,127
26672,note_on,0,0,0,,2,,,74,127
26724,note_off,52,0,0,,2,,,74,127
26725,note_on,1,0,0,,0,,,72,127
26778,note_off,53,0,0,,0,,,72,127
26779,note_on,1,0,0,,2,,,74,127
26831,note_off,52,0,0,,2,,,74,127
26832,note_on,1,0,0,,0,,,72,127
26885,note_off,53,0,0,,0,,,72,127
26886,note_on,1,0,0,,2,,,74,127
26939,note_off,53,0,0,,2,,,74,127
26940,note_on,1,0,0,,0,,,72,127
26992,note_off,52,0,0,,0,,,72,127
26993,note_on,1,0,0,,2,,,74,127
27046,note_off,53,0,0,,2,,,74,127
27047,note_on,1,0,0,,0,,,72,127
27099,note_off,52,0,0,,0,,,72,127
27100,note_on,1,0,0,,2,,,74,127
27153,note_off,53,0,0,,2,,,74,127
27154,note_on,1,0,0,,0,,,72,127
27207,note_off,53,0,0,,0,,,72,127
27207,note_off,0,0,0,,0,,,48,127
27208,note_on,1,0,0,,0,,,60,127
27208,note_on,0,0,0,,4,,,64,127
27384,note_off,176,0,0,,4,,,64,127
27384,note_off,0,0,0,,0,,,60,127
27385,note_on,1,0,0,,2,,,62,127
27385,note_on,0,0,0,,5,,,65,127
27561,note_off,176,0,0,,5,,,65,127
27561,note_off,0,0,0,,2,,,62,127
27562,note_on,1,0,0,,2,,,50,127
27562,note_on,0,0,0,,5,,,77,127
27738,note_off,176,0,0,,5,,,77,127
27738,note_off,0,0,0,,2,,,50,127
27739,note_on,1,0,0,,2,,,62,127
27739,note_on,0,0,0,,5,,,65,127
27915,note_off,176,0,0,,5,,,65,127
27915,note_off,0,0,0,,2,,,62,127
27916,note_on,1,0,0,,4,,,64,127
27916,note_on,0,0,0,,7,,,67,127
28092,note_off,176,0,0,,7,,,67,127
28092,note_off,0,0,0,,4,,,64,127
28093,note_on,1,0,0,,4,,,52,127
28093,note_on,0,0,0,,7,,,79,127
28269,note_off,176,0,0,,7,,,79,127
28269,note_off,0,0,0,,4,,,52,127
28270,note_on,1,0,0,,4,,,64,127
28270,note_on,0,0,0,,7,,,67,127
28446,note_off,176,0,0,,7,,,67,127
28446,note_off,0,0,0,,4,,,64,127
28447,note_on,1,0,0,,5,,,65,127
28447,note_on,0,0,0,,10,,,69,127
28623,note_off,176,0,0,,10,,,69,127
28623,note_off,0,0,0,,5,,,65,127
28624,note_on,1,0,0,,5,,,53,127
28624,note_on,0,0,0,,10,,,81,127
28800,note_off,176,0,0,,10,,,81,127
28800,note_off,0,0,0,,5,,,53,127
28801,note_on,1,0,0,,5,,,65,127
28801,note_on,0,0,0,,10,,,69,127
28977,note_off,176,0,0,,10,,,69,127
28977,note_off,0,0,0,,5,,,65,127
28978,note_on,1,0,0,,7,,,67,127
28978,note_on,0,0,0,,12,,,71,127
29154,note_off,176,0,0,,12,,,71,127
29154,note_off,0,0,0,,7,,,67,127
29155,note_on,1,0,0,,7,,,55,127
29155,note_on,0,0,0,,12,,,83,127
29331,note_off,176,0,0,,12,,,83,127
29331,note_off,0,0,0,,7,,,55,127
29332,note_on,1,0,0,,4,,,64,127
29332,note_on,0,0,0,,0,,,84,127
29508,note_off,176,0,0,,0,,,84,127
29508,note_off,0,0,0,,4,,,64,127
29509,note_on,1,0,0,,2,,,62,127
29509,note_on,0,0,0,,7,,,79,127
29685,note_off,176,0,0,,7,,,79,127
29685,note_off,0,0,0,,2,,,62,127
29686,note_on,1,0,0,,0,,,60,127
29686,note_on,0,0,0,,10,,,81,127
29862,note_off,176,0,0,,10,,,81,127
29862,note_off,0,0,0,,0,,,60,127
29863,note_on,1,0,0,,12,,,59,127
29863,note_on,0,0,0,,7,,,79,127
30039,note_off,176,0,0,,7,,,79,127
30040,note_on,1,0,0,,2,,,74,127
30216,note_off,176,0,0,,2,,,74,127
30216,note_off,0,0,0,,12,,,59,127
30217,note_on,1,0,0,,0,,,60,127
30217,note_on,0,0,0,,4,,,76,127
30393,note_off,176,0,0,,4,,,76,127
30393,note_off,0,0,0,,0,,,60,127
30394,note_on,1,0,0,,5,,,53,127
30394,note_on,0,0,0,,7,,,79,127
30394,note_on,0,0,0,,5,,,77,127
30570,note_off,176,0,0,,5,,,77,127
30570,note_off,0,0,0,,7,,,79,127
30570,note_off,0,0,0,,5,,,53,127
30571,note_on,1,0,0,,7,,,55,127
30571,note_on,0,0,0,,4,,,76,127
30747,note_off,176,0,0,,4,,,76,127
30748,note_on,1,0,0,,7,,,43,127
30748,note_on,0,0,0,,2,,,74,127
30924,note_off,176,0,0,,2,,,74,127
30924,note_off,0,0,0,,7,,,43,127
30924,note_off,0,0,0,,7,,,55,127
30925,note_on,1,0,0,,0,,,48,127
30925,note_on,0,0,0,,2,,,74,127
30984,note_on,59,0,0,,0,,,72,127
31013,note_off,29,0,0,,2,,,74,127
31043,note_on,30,0,0,,2,,,74,127
31072,note_off,29,0,0,,0,,,72,127
31102,note_on,30,0,0,,0,,,72,127
31131,note_off,29,0,0,,2,,,74,127
31161,note_on,30,0,0,,2,,,74,127
31190,note_off,29,0,0,,0,,,72,127
31220,note_on,30,0,0,,0,,,72,127
31249,note_off,29,0,0,,2,,,74,127
31279,note_on,30,0,0,,12,,,71,127
31308,note_off,29,0,0,,0,,,72,127
31338,note_on,30,0,0,,0,,,72,127
31367,note_off,29,0,0,,12,,,71,127
31397,note_on,30,0,0,,2,,,74,127
31426,note_off,29,0,0,,0,,,72,127
31456,note_off,30,0,0,,0,,,48,127
31457,note_on,1,0,0,,0,,,60,127
31457,note_on,0,0,0,,4,,,76,127
31486,note_off,29,0,0,,2,,,74,127
31634,note_off,148,0,0,,0,,,60,127
31635,note_on,1,0,0,,7,,,55,127
31635,note_on,0,0,0,,7,,,67,127
31811,note_off,176,0,0,,7,,,55,127
31812,note_on,1,0,0,,0,,,48,127
31988,note_off,176,0,0,,0,,,48,127
31988,note_off,0,0,0,,7,,,67,127
31988,note_off,0,0,0,,4,,,76,127
31989,note_on,1,0,0,,7,,,55,127
31989,note_on,0,0,0,,7,,,79,127
31989,note_on,0,0,0,,7,,,67,127
32165,note_off,176,0,0,,7,,,79,127
32165,note_off,0,0,0,,7,,,55,127
32166,note_on,1,0,0,,2,,,50,127
32166,note_on,0,0,0,,5,,,77,127
32342,note_off,176,0,0,,5,,,77,127
32342,note_off,0,0,0,,2,,,50,127
32343,note_on,1,0,0,,7,,,43,127
32343,note_on,0,0,0,,2,,,74,127
32519,note_off,176,0,0,,2,,,74,127
32519,note_off,0,0,0,,7,,,43,127
32520,note_on,1,0,0,,0,,,48,127
32520,note_on,0,0,0,,5,,,77,127
32696,note_off,176,0,0,,5,,,77,127
32696,note_off,0,0,0,,0,,,48,127
32697,note_on,1,0,0,,7,,,43,127
32697,note_on,0,0,0,,4,,,76,127
32873,note_off,176,0,0,,4,,,76,127
32873,note_off,0,0,0,,7,,,43,127
32874,note_on,1,0,0,,0,,,36,127
32874,note_on,0,0,0,,0,,,72,127
33050,note_off,176,0,0,,0,,,72,127
33050,note_off,0,0,0,,0,,,36,127
33051,note_off,1,0,0,,7,,,67,127
33051,note_on,0,0,0,,7,,,31,127
33051,note_on,0,0,0,,4,,,76,127
33103,note_off,52,0,0,,4,,,76,127
33104,note_on,1,0,0,,2,,,74,127
33157,note_off,53,0,0,,2,,,74,127
33158,note_on,1,0,0,,4,,,76,127
33210,note_off,52,0,0,,4,,,76,127
33211,note_on,1,0,0,,2,,,74,127
33264,note_off,53,0,0,,2,,,74,127
33265,note_on,1,0,0,,4,,,76,127
33318,note_off,53,0,0,,4,,,76,127
33319,note_on,1,0,0,,2,,,74,127
33371,note_off,52,0,0,,2,,,74,127
33372,note_on,1,0,0,,4,,,76,127
33425,note_off,53,0,0,,4,,,76,127
33426,note_on,1,0,0,,2,,,74,127
33478,note_off,52,0,0,,2,,,74,127
33479,note_on,1,0,0,,0,,,72,127
33531,note_off,52,0,0,,0,,,72,127
33532,note_on,1,0,0,,2,,,74,127
33586,note_off,54,0,0,,2,,,74,127
33586,note_off,0,0,0,,7,,,31,127
33587,note_on,1,0,0,,0,,,60,127
33587,note_on,0,0,0,,4,,,76,127
33763,note_off,176,0,0,,0,,,60,127
33764,note_on,1,0,0,,7,,,55,127
33764,note_on,0,0,0,,7,,,67,127
33940,note_off,176,0,0,,7,,,55,127
33941,note_on,1,0,0,,0,,,48,127
34117,note_off,176,0,0,,0,,,48,127
34117,note_off,0,0,0,,7,,,67,127
34117,note_off,0,0,0,,4,,,76,127
34118,note_on,1,0,0,,7,,,55,127
34118,note_on,0,0,0,,7,,,67,127
34118,note_on,0,0,0,,7,,,79,127
34294,note_off,176,0,0,,7,,,79,127
34294,note_off,0,0,0,,7,,,55,127
34295,note_on,1,0,0,,2,,,50,127
34295,note_on,0,0,0,,5,,,77,127
34471,note_off,176,0,0,,5,,,77,127
34471,note_off,0,0,0,,2,,,50,127
34472,note_on,1,0,0,,7,,,43,127
34472,note_on,0,0,0,,2,,,74,127
34648,note_off,176,0,0,,2,,,74,127
34648,note_off,0,0,0,,7,,,43,127
34649,note_on,1,0,0,,0,,,48,127
34649,note_on,0,0,0,,5,,,77,127
34825,note_off,176,0,0,,5,,,77,127
34825,note_off,0,0,0,,0,,,48,127
34826,note_on,1,0,0,,7,,,43,127
34826,note_on,0,0,0,,4,,,76,127
35002,note_off,176,0,0,,4,,,76,127
35002,note_off,0,0,0,,7,,,43,127
35003,note_on,1,0,0,,0,,,36,127
35003,note_on,0,0,0,,0,,,72,127
35179,note_off,176,0,0,,0,,,72,127
35179,note_off,0,0,0,,0,,,36,127
35179,note_off,0,0,0,,7,,,67,127
35180,note_on,1,0,0,,7,,,31,127
35180,note_on,0,0,0,,4,,,76,127
35232,note_off,52,0,0,,4,,,76,127
35233,note_on,1,0,0,,2,,,74,127
35286,note_off,53,0,0,,2,,,74,127
35287,note_on,1,0,0,,4,,,76,127
35339,note_off,52,0,0,,4,,,76,127
35340,note_on,1,0,0,,2,,,74,127
35393,note_off,53,0,0,,2,,,74,127
35394,note_on,1,0,0,,4,,,76,127
35447,note_off,53,0,0,,4,,,76,127
35448,note_on,1,0,0,,2,,,74,127
35500,note_off,52,0,0,,2,,,74,127
35501,note_on,1,0,0,,4,,,76,127
35554,note_off,53,0,0,,4,,,76,127
35555,note_on,1,0,0,,2,,,74,127
35607,note_off,52,0,0,,2,,,74,127
35608,note_on,1,0,0,,4,,,76,127
35661,note_off,53,0,0,,4,,,76,127
35662,note_on,1,0,0,,2,,,74,127
35715,note_off,53,0,0,,2,,,74,127
35715,note_off,0,0,0,,7,,,31,127
35716,note_on,1,0,0,,4,,,52,127
35716,note_on,0,0,0,,0,,,72,127
35804,note_off,88,0,0,,0,,,72,127
35805,note_on,1,0,0,,12,,,71,127
35893,note_off,88,0,0,,12,,,71,127
35894,note_on,1,0,0,,10,,,69,127
35982,note_off,88,0,0,,10,,,69,127
35983,note_on,1,0,0,,7,,,67,127
36071,note_off,88,0,0,,7,,,67,127
36072,note_on,1,0,0,,10,,,69,127
36130,note_off,58,0,0,,10,,,69,127
36131,note_on,1,0,0,,12,,,71,127
36189,note_off,58,0,0,,12,,,71,127
36190,note_on,1,0,0,,0,,,72,127
36248,note_off,58,0,0,,0,,,72,127
36248,note_off,0,0,0,,4,,,52,127
36249,note_on,1,0,0,,5,,,53,127
36249,note_on,0,0,0,,2,,,74,127
36425,note_off,176,0,0,,2,,,74,127
36426,note_on,1,0,0,,4,,,76,127
36602,note_off,176,0,0,,4,,,76,127
36603,note_on,1,0,0,,5,,,77,127
36779,note_off,176,0,0,,5,,,77,127
36779,note_off,0,0,0,,5,,,53,127
36780,note_on,1,0,0,,7,,,55,127
36780,note_on,0,0,0,,7,,,79,127
36780,note_on,0,0,0,,5,,,77,127
36956,note_off,176,0,0,,5,,,77,127
36956,note_off,0,0,0,,7,,,79,127
36957,note_on,1,0,0,,4,,,76,127
37133,note_off,176,0,0,,4,,,76,127
37134,note_on,1,0,0,,7,,,43,127
37134,note_on,0,0,0,,2,,,74,127
37310,note_off,176,0,0,,2,,,74,127
37310,note_off,0,0,0,,7,,,43,127
37310,note_off,0,0,0,,7,,,55,127
37311,note_on,1,0,0,,0,,,36,127
37311,note_on,0,0,0,,2,,,74,127
37370,note_on,59,0,0,,0,,,72,127
37399,note_off,29,0,0,,2,,,74,127
37429,note_on,30,0,0,,2,,,74,127
37458,note_off,29,0,0,,0,,,72,127
37488,note_on,30,0,0,,0,,,72,127
37517,note_off,29,0,0,,2,,,74,127
37547,note_on,30,0,0,,2,,,74,127
37576,note_off,29,0,0,,0,,,72,127
37606,note_on,30,0,0,,0,,,72,127
37635,note_off,29,0,0,,2,,,74,127
37665,note_on,30,0,0,,12,,,71,127
37694,note_off,29,0,0,,0,,,72,127
37724,note_on,30,0,0,,0,,,72,127
37753,note_off,29,0,0,,12,,,71,127
37783,note_on,30,0,0,,2,,,74,127
37812,note_off,29,0,0,,0,,,72,127
37842,note_off,30,0,0,,0,,,36,127
37843,note_on,1,0,0,,0,,,60,127
37843,note_on,0,0,0,,4,,,76,127
37872,note_off,29,0,0,,2,,,74,127
38020,note_off,148,0,0,,0,,,60,127
38021,note_on,1,0,0,,7,,,55,127
38021,note_on,0,0,0,,7,,,67,127
38197,note_off,176,0,0,,7,,,55,127
38198,note_on,1,0,0,,0,,,48,127
38374,note_off,176,0,0,,0,,,48,127
38374,note_off,0,0,0,,7,,,67,127
38374,note_off,0,0,0,,4,,,76,127
38375,note_on,1,0,0,,7,,,55,127
38375,note_on,0,0,0,,7,,,79,127
38375,note_on,0,0,0,,7,,,67,127
38551,note_off,176,0,0,,7,,,79,127
38551,note_off,0,0,0,,7,,,55,127
38552,note_on,1,0,0,,2,,,50,127
38552,note_on,0,0,0,,5,,,77,127
38728,note_off,176,0,0,,5,,,77,127
38728,note_off,0,0,0,,2,,,50,127
38729,note_on,1,0,0,,7,,,43,127
38729,note_on,0,0,0,,2,,,74,127
38905,note_off,176,0,0,,2,,,74,127
38905,note_off,0,0,0,,7,,,43,127
38906,note_on,1,0,0,,0,,,48,127
38906,note_on,0,0,0,,5,,,77,127
39082,note_off,176,0,0,,5,,,77,127
39082,note_off,0,0,0,,0,,,48,127
39083,note_on,1,0,0,,7,,,43,127
39083,note_on,0,0,0,,4,,,76,127
39259,note_off,176,0,0,,4,,,76,127
39259,note_off,0,0,0,,7,,,43,127
39260,note_on,1,0,0,,0,,,36,127
39260,note_on,0,0,0,,0,,,72,127
39436,note_off,176,0,0,,0,,,72,127
39436,note_off,0,0,0,,0,,,36,127
39436,note_off,0,0,0,,7,,,67,127
39437,note_on,1,0,0,,7,,,43,127
39437,note_on,0,0,0,,4,,,76,127
39489,note_off,52,0,0,,4,,,76,127
39490,note_on,1,0,0,,2,,,74,127
39543,note_off,53,0,0,,2,,,74,127
39544,note_on,1,0,0,,4,,,76,127
39596,note_off,52,0,0,,4,,,76,127
39597,note_on,1,0,0,,2,,,74,127
39650,note_off,53,0,0,,2,,,74,127
39651,note_on,1,0,0,,4,,,76,127
39704,note_off,53,0,0,,4,,,76,127
39705,note_on,1,0,0,,2,,,74,127
39757,note_off,52,0,0,,2,,,74,127
39758,note_on,1,0,0,,4,,,76,127
39811,note_off,53,0,0,,4,,,76,127
39812,note_on,1,0,0,,2,,,74,127
39864,note_off,52,0,0,,2,,,74,127
39865,note_on,1,0,0,,0,,,72,127
39917,note_off,52,0,0,,0,,,72,127
39918,note_on,1,0,0,,2,,,74,127
39972,note_off,54,0,0,,2,,,74,127
39972,note_off,0,0,0,,7,,,43,127
39973,note_on,1,0,0,,0,,,60,127
39973,note_on,0,0,0,,4,,,76,127
40149,note_off,176,0,0,,0,,,60,127
40150,note_on,1,0,0,,7,,,55,127
40150,note_on,0,0,0,,7,,,67,127
40326,note_off,176,0,0,,7,,,55,127
40327,note_on,1,0,0,,0,,,48,127
40503,note_off,176,0,0,,0,,,48,127
40503,note_off,0,0,0,,7,,,67,127
40503,note_off,0,0,0,,4,,,76,127
40504,note_on,1,0,0,,7,,,55,127
40504,note_on,0,0,0,,7,,,67,127
40504,note_on,0,0,0,,7,,,79,127
40680,note_off,176,0,0,,7,,,79,127
40680,note_off,0,0,0,,7,,,55,127
40681,note_on,1,0,0,,2,,,50,127
40681,note_on,0,0,0,,5,,,77,127
40857,note_off,176,0,0,,5,,,77,127
40857,note_off,0,0,0,,2,,,50,127
40858,note_on,1,0,0,,7,,,43,127
40858,note_on,0,0,0,,2,,,74,127
41034,note_off,176,0,0,,2,,,74,127
41034,note_off,0,0,0,,7,,,43,127
41035,note_on,1,0,0,,0,,,48,127
41035,note_on,0,0,0,,5,,,77,127
41211,note_off,176,0,0,,5,,,77,127
41211,note_off,0,0,0,,0,,,48,127
41212,note_on,1,0,0,,7,,,43,127
41212,note_on,0,0,0,,4,,,76,127
41388,note_off,176,0,0,,4,,,76,127
41388,note_off,0,0,0,,7,,,43,127
41389,note_on,1,0,0,,0,,,36,127
41389,note_on,0,0,0,,0,,,72,127
41565,note_off,176,0,0,,0,,,72,127
41565,note_off,0,0,0,,0,,,36,127
41565,note_off,0,0,0,,7,,,67,127
41566,note_on,1,0,0,,7,,,43,127
41566,note_on,0,0,0,,4,,,76,127
41618,note_off,52,0,0,,4,,,76,127
41619,note_on,1,0,0,,2,,,74,127
41672,note_off,53,0,0,,2,,,74,127
41673,note_on,1,0,0,,4,,,76,127
41725,note_off,52,0,0,,4,,,76,127
41726,note_on,1,0,0,,2,,,74,127
41779,note_off,53,0,0,,2,,,74,127
41780,note_on,1,0,0,,4,,,76,127
41833,note_off,53,0,0,,4,,,76,127
41834,note_on,1,0,0,,2,,,74,127
41886,note_off,52,0,0,,2,,,74,127
41887,note_on,1,0,0,,4,,,76,127
41940,note_off,53,0,0,,4,,,76,127
41941,note_on,1,0,0,,2,,,74,127
41993,note_off,52,0,0,,2,,,74,127
41994,note_on,1,0,0,,4,,,76,127
42047,note_off,53,0,0,,4,,,76,127
42048,note_on,1,0,0,,2,,,74,127
42101,note_off,53,0,0,,2,,,74,127
42101,note_off,0,0,0,,7,,,43,127
42102,note_on,1,0,0,,4,,,52,127
42102,note_on,0,0,0,,0,,,72,127
42190,note_off,88,0,0,,0,,,72,127
42191,note_on,1,0,0,,12,,,71,127
42279,note_off,88,0,0,,12,,,71,127
42280,note_on,1,0,0,,10,,,69,127
42368,note_off,88,0,0,,10,,,69,127
42369,note_on,1,0,0,,7,,,67,127
42457,note_off,88,0,0,,7,,,67,127
42458,note_on,1,0,0,,10,,,69,127
42516,note_off,58,0,0,,10,,,69,127
42517,note_on,1,0,0,,12,,,71,127
42575,note_off,58,0,0,,12,,,71,127
42576,note_on,1,0,0,,0,,,72,127
42634,note_off,58,0,0,,0,,,72,127
42634,note_off,0,0,0,,4,,,52,127
42635,note_on,1,0,0,,5,,,53,127
42635,note_on,0,0,0,,2,,,74,127
42811,note_off,176,0,0,,2,,,74,127
42812,note_on,1,0,0,,4,,,76,127
42988,note_off,176,0,0,,4,,,76,127
42989,note_on,1,0,0,,5,,,77,127
43165,note_off,176,0,0,,5,,,77,127
43165,note_off,0,0,0,,5,,,53,127
43166,note_on,1,0,0,,7,,,55,127
43166,note_on,0,0,0,,7,,,79,127
43166,note_on,0,0,0,,5,,,77,127
43342,note_off,176,0,0,,5,,,77,127
43342,note_off,0,0,0,,7,,,79,127
43343,note_on,1,0,0,,4,,,76,127
43519,note_off,176,0,0,,4,,,76,127
43520,note_on,1,0,0,,7,,,43,127
43520,note_on,0,0,0,,2,,,74,127
43696,note_off,176,0,0,,2,,,74,127
43696,note_off,0,0,0,,7,,,43,127
43696,note_off,0,0,0,,7,,,55,127
43697,note_on,1,0,0,,0,,,48,127
43697,note_on,0,0,0,,2,,,74,127
43740,note_off,43,0,0,,2,,,74,127
43741,note_on,1,0,0,,0,,,72,127
43784,note_off,43,0,0,,0,,,72,127
43785,note_on,1,0,0,,2,,,74,127
43828,note_off,43,0,0,,2,,,74,127
43829,note_on,1,0,0,,0,,,72,127
43872,note_off,43,0,0,,0,,,72,127
43873,note_on,1,0,0,,12,,,71,127
44049,note_off,176,0,0,,12,,,71,127
44050,note_on,1,0,0,,0,,,36,127
44050,note_on,0,0,0,,0,,,72,127
44226,note_off,176,0,0,,0,,,72,127
44226,note_off,0,0,0,,0,,,36,127
44226,note_off,0,0,0,,0,,,48,127
44227,note_on,1,0,0,,4,,,40,127
44227,note_on,0,0,0,,4,,,52,127
44227,note_on,0,0,0,,0,,,72,127
44315,note_off,88,0,0,,0,,,72,127
44316,note_on,1,0,0,,12,,,71,127
44404,note_off,88,0,0,,12,,,71,127
44405,note_on,1,0,0,,10,,,69,127
44493,note_off,88,0,0,,10,,,69,127
44494,note_on,1,0,0,,7,,,67,127
44582,note_off,88,0,0,,7,,,67,127
44583,note_on,1,0,0,,10,,,69,127
44641,note_off,58,0,0,,10,,,69,127
44642,note_on,1,0,0,,12,,,71,127
44700,note_off,58,0,0,,12,,,71,127
44701,note_on,1,0,0,,0,,,72,127
44759,note_off,58,0,0,,0,,,72,127
44759,note_off,0,0,0,,4,,,52,127
44759,note_off,0,0,0,,4,,,40,127
44760,note_on,1,0,0,,5,,,53,127
44760,note_on,0,0,0,,5,,,41,127
44760,note_on,0,0,0,,2,,,74,127
44848,note_off,88,0,0,,2,,,74,127
44849,note_on,1,0,0,,4,,,76,127
44937,note_off,88,0,0,,4,,,76,127
44938,note_on,1,0,0,,5,,,77,127
45026,note_off,88,0,0,,5,,,77,127
45027,note_on,1,0,0,,7,,,79,127
45115,note_off,88,0,0,,7,,,79,127
45116,note_on,1,0,0,,10,,,81,127
45292,note_off,176,0,0,,5,,,41,127
45292,note_off,0,0,0,,5,,,53,127
45293,note_on,1,0,0,,7,,,55,127
45293,note_on,0,0,0,,7,,,43,127
45434,note_off,141,0,0,,10,,,81,127
45470,note_on,36,0,0,,7,,,79,127
45558,note_off,88,0,0,,7,,,79,127
45559,note_on,1,0,0,,5,,,77,127
45647,note_off,88,0,0,,5,,,77,127
45648,note_on,1,0,0,,4,,,76,127
45736,note_off,88,0,0,,4,,,76,127
45737,note_on,1,0,0,,2,,,74,127
45825,note_off,88,0,0,,2,,,74,127
45825,note_off,0,0,0,,7,,,43,127
45825,note_off,0,0,0,,7,,,55,127
45826,note_on,1,0,0,,0,,,36,127
45826,note_on,0,0,0,,2,,,74,127
45869,note_off,43,0,0,,2,,,74,127
45870,note_on,1,0,0,,0,,,72,127
45913,note_off,43,0,0,,0,,,72,127
45914,note_on,1,0,0,,2,,,74,127
45957,note_off,43,0,0,,2,,,74,127
45958,note_on,1,0,0,,0,,,72,127
46224,note_off,266,0,0,,0,,,72,127
46356,note_off,132,0,0,,0,,,36,127
46357,note_on,1,0,0,,4,,,64,127
46357,note_on,0,0,0,,0,,,60,127
46357,note_on,0,0,0,,0,,,72,127
46445,note_off,88,0,0,,0,,,72,127
46446,note_on,1,0,0,,12,,,71,127
46534,note_off,88,0,0,,12,,,71,127
46535,note_on,1,0,0,,10,,,69,127
46623,note_off,88,0,0,,10,,,69,127
46624,note_on,1,0,0,,7,,,67,127
46712,note_off,88,0,0,,7,,,67,127
46713,note_on,1,0,0,,10,,,69,127
46771,note_off,58,0,0,,10,,,69,127
46772,note_on,1,0,0,,12,,,71,127
46830,note_off,58,0,0,,12,,,71,127
46831,note_on,1,0,0,,0,,,72,127
46889,note_off,58,0,0,,0,,,72,127
46889,note_off,0,0,0,,0,,,60,127
46889,note_off,0,0,0,,4,,,64,127
46890,note_on,1,0,0,,2,,,62,127
46890,note_on,0,0,0,,12,,,59,127
46890,note_on,0,0,0,,0,,,72,127
47066,note_off,176,0,0,,0,,,72,127
47067,note_on,1,0,0,,1,,,73,127
47243,note_off,176,0,0,,1,,,73,127
47244,note_on,1,0,0,,2,,,74,127
47420,note_off,176,0,0,,2,,,74,127
47420,note_off,0,0,0,,12,,,59,127
47420,note_off,0,0,0,,2,,,62,127
47421,note_on,1,0,0,,12,,,59,127
47421,note_on,0,0,0,,7,,,55,127
47421,note_on,0,0,0,,2,,,74,127
47509,note_off,88,0,0,,2,,,74,127
47510,note_on,1,0,0,,0,,,72,127
47598,note_off,88,0,0,,0,,,72,127
47599,note_on,1,0,0,,12,,,71,127
47687,note_off,88,0,0,,12,,,71,127
47688,note_on,1,0,0,,10,,,69,127
47776,note_off,88,0,0,,10,,,69,127
47777,note_on,1,0,0,,12,,,71,127
47835,note_off,58,0,0,,12,,,71,127
47836,note_on,1,0,0,,0,,,72,127
47894,note_off,58,0,0,,0,,,72,127
47895,note_on,1,0,0,,2,,,74,127
47953,note_off,58,0,0,,2,,,74,127
47953,note_off,0,0,0,,7,,,55,127
47953,note_off,0,0,0,,12,,,59,127
47954,note_on,1,0,0,,4,,,64,127
47954,note_on,0,0,0,,0,,,60,127
47954,note_on,0,0,0,,2,,,74,127
48130,note_off,176,0,0,,2,,,74,127
48131,note_on,1,0,0,,3,,,75,127
48307,note_off,176,0,0,,3,,,75,127
48308,note_on,1,0,0,,4,,,76,127
48484,note_off,176,0,0,,4,,,76,127
48484,note_off,0,0,0,,0,,,60,127
48484,note_off,0,0,0,,4,,,64,127
48485,note_on,1,0,0,,0,,,60,127
48485,note_on,0,0,0,,4,,,64,127
48485,note_on,0,0,0,,4,,,76,127
48573,note_off,88,0,0,,4,,,76,127
48574,note_on,1,0,0,,2,,,74,127
48662,note_off,88,0,0,,2,,,74,127
48663,note_on,1,0,0,,0,,,72,127
48751,note_off,88,0,0,,0,,,72,127
48752,note_on,1,0,0,,12,,,71,127
48840,note_off,88,0,0,,12,,,71,127
48841,note_on,1,0,0,,0,,,72,127
48899,note_off,58,0,0,,0,,,72,127
48900,note_on,1,0,0,,2,,,74,127
48958,note_off,58,0,0,,2,,,74,127
48959,note_on,1,0,0,,4,,,76,127
49017,note_off,58,0,0,,4,,,76,127
49017,note_off,0,0,0,,4,,,64,127
49017,note_off,0,0,0,,0,,,60,127
49018,note_on,1,0,0,,2,,,50,127
49018,note_on,0,0,0,,2,,,74,127
49018,note_on,0,0,0,,5,,,77,127
49194,note_off,176,0,0,,5,,,77,127
49194,note_off,0,0,0,,2,,,74,127
49195,note_on,1,0,0,,4,,,76,127
49195,note_on,0,0,0,,0,,,72,127
49371,note_off,176,0,0,,0,,,72,127
49371,note_off,0,0,0,,4,,,76,127
49372,note_on,1,0,0,,12,,,71,127
49372,note_on,0,0,0,,2,,,74,127
49548,note_off,176,0,0,,2,,,74,127
49548,note_off,0,0,0,,12,,,71,127
49548,note_off,0,0,0,,2,,,50,127
49549,note_on,1,0,0,,2,,,50,127
49549,note_on,0,0,0,,0,,,72,127
49549,note_on,0,0,0,,10,,,69,127
49725,note_off,176,0,0,,10,,,69,127
49725,note_off,0,0,0,,0,,,72,127
49726,note_on,1,0,0,,8,,,68,127
49726,note_on,0,0,0,,12,,,71,127
49902,note_off,176,0,0,,12,,,71,127
49902,note_off,0,0,0,,8,,,68,127
49902,note_off,0,0,0,,2,,,50,127
49903,note_on,1,0,0,,3,,,51,127
49903,note_on,0,0,0,,10,,,69,127
49903,note_on,0,0,0,,0,,,72,127
50079,note_off,176,0,0,,0,,,72,127
50079,note_off,0,0,0,,10,,,69,127
50079,note_off,0,0,0,,3,,,51,127
50080,note_on,1,0,0,,4,,,52,127
50080,note_on,0,0,0,,0,,,72,127
50080,note_on,0,0,0,,10,,,69,127
50434,note_off,354,0,0,,10,,,69,127
50434,note_off,0,0,0,,0,,,72,127
50435,note_on,1,0,0,,4,,,40,127
50435,note_on,0,0,0,,8,,,68,127
50435,note_on,0,0,0,,12,,,71,127
50583,note_off,148,0,0,,12,,,71,127
50612,note_off,29,0,0,,8,,,68,127
50612,note_off,0,0,0,,4,,,40,127
50612,note_off,0,0,0,,4,,,52,127
50613,note_on,1,0,0,,4,,,64,127
50613,note_on,0,0,0,,0,,,60,127
50613,note_on,0,0,0,,8,,,80,127
50789,note_off,176,0,0,,8,,,80,127
50790,note_on,1,0,0,,11,,,82,127
50833,note_off,43,0,0,,11,,,82,127
50834,note_on,1,0,0,,10,,,81,127
50877,note_off,43,0,0,,10,,,81,127
50878,note_on,1,0,0,,8,,,80,127
50921,note_off,43,0,0,,8,,,80,127
50922,note_on,1,0,0,,10,,,81,127
50965,note_off,43,0,0,,10,,,81,127
50966,note_on,1,0,0,,10,,,69,127
51142,note_off,176,0,0,,10,,,69,127
51142,note_off,0,0,0,,0,,,60,127
51142,note_off,0,0,0,,4,,,64,127
51143,note_on,1,0,0,,2,,,62,127
51143,note_on,0,0,0,,5,,,65,127
51143,note_on,0,0,0,,4,,,76,127
51319,note_off,176,0,0,,4,,,76,127
51320,note_on,1,0,0,,7,,,79,127
51363,note_off,43,0,0,,7,,,79,127
51364,note_on,1,0,0,,5,,,77,127
51407,note_off,43,0,0,,5,,,77,127
51408,note_on,1,0,0,,4,,,76,127
51451,note_off,43,0,0,,4,,,76,127
51452,note_on,1,0,0,,5,,,77,127
51495,note_off,43,0,0,,5,,,77,127
51495,note_off,0,0,0,,5,,,65,127
51496,note_on,1,0,0,,5,,,65,127
51672,note_off,176,0,0,,5,,,65,127
51672,note_off,0,0,0,,2,,,62,127
51673,note_on,1,0,0,,12,,,59,127
51673,note_on,0,0,0,,2,,,62,127
51673,note_on,0,0,0,,1,,,73,127
51849,note_off,176,0,0,,1,,,73,127
51850,note_on,1,0,0,,4,,,76,127
51893,note_off,43,0,0,,4,,,76,127
51894,note_on,1,0,0,,2,,,74,127
51937,note_off,43,0,0,,2,,,74,127
51938,note_on,1,0,0,,0,,,72,127
51981,note_off,43,0,0,,0,,,72,127
51982,note_on,1,0,0,,2,,,74,127
52025,note_off,43,0,0,,2,,,74,127
52025,note_off,0,0,0,,2,,,62,127
52026,note_on,1,0,0,,2,,,62,127
52202,note_off,176,0,0,,2,,,62,127
52202,note_off,0,0,0,,12,,,59,127
52203,note_on,1,0,0,,12,,,59,127
52203,note_on,0,0,0,,8,,,56,127
52203,note_on,0,0,0,,3,,,75,127
52379,note_off,176,0,0,,3,,,75,127
52380,note_on,1,0,0,,5,,,77,127
52423,note_off,43,0,0,,5,,,77,127
52424,note_on,1,0,0,,4,,,76,127
52467,note_off,43,0,0,,4,,,76,127
52468,note_on,1,0,0,,3,,,75,127
52511,note_off,43,0,0,,3,,,75,127
52512,note_on,1,0,0,,4,,,76,127
52555,note_off,43,0,0,,4,,,76,127
52556,note_on,1,0,0,,4,,,64,127
52713,note_off,157,0,0,,4,,,64,127
52732,note_off,19,0,0,,8,,,56,127
52732,note_off,0,0,0,,12,,,59,127
52733,note_on,1,0,0,,4,,,64,127
52733,note_on,0,0,0,,0,,,60,127
52733,note_on,0,0,0,,8,,,80,127
52909,note_off,176,0,0,,8,,,80,127
52910,note_on,1,0,0,,11,,,82,127
52953,note_off,43,0,0,,11,,,82,127
52954,note_on,1,0,0,,10,,,81,127
52997,note_off,43,0,0,,10,,,81,127
52998,note_on,1,0,0,,8,,,80,127
53041,note_off,43,0,0,,8,,,80,127
53042,note_on,1,0,0,,10,,,81,127
53085,note_off,43,0,0,,10,,,81,127
53086,note_on,1,0,0,,10,,,69,127
53262,note_off,176,0,0,,10,,,69,127
53262,note_off,0,0,0,,0,,,60,127
53262,note_off,0,0,0,,4,,,64,127
53263,note_on,1,0,0,,5,,,65,127
53263,note_on,0,0,0,,2,,,62,127
53263,note_on,0,0,0,,4,,,76,127
53439,note_off,176,0,0,,4,,,76,127
53440,note_on,1,0,0,,7,,,79,127
53483,note_off,43,0,0,,7,,,79,127
53484,note_on,1,0,0,,5,,,77,127
53527,note_off,43,0,0,,5,,,77,127
53528,note_on,1,0,0,,4,,,76,127
53571,note_off,43,0,0,,4,,,76,127
53572,note_on,1,0,0,,5,,,77,127
53615,note_off,43,0,0,,5,,,77,127
53615,note_off,0,0,0,,5,,,65,127
53616,note_on,1,0,0,,5,,,65,127
53792,note_off,176,0,0,,5,,,65,127
53792,note_off,0,0,0,,2,,,62,127
53793,note_on,1,0,0,,12,,,59,127
53793,note_on,0,0,0,,2,,,62,127
53793,note_on,0,0,0,,1,,,73,127
53969,note_off,176,0,0,,1,,,73,127
53970,note_on,1,0,0,,4,,,76,127
54013,note_off,43,0,0,,4,,,76,127
54014,note_on,1,0,0,,2,,,74,127
54057,note_off,43,0,0,,2,,,74,127
54058,note_on,1,0,0,,0,,,72,127
54101,note_off,43,0,0,,0,,,72,127
54102,note_on,1,0,0,,2,,,74,127
54145,note_off,43,0,0,,2,,,74,127
54145,note_off,0,0,0,,2,,,62,127
54146,note_on,1,0,0,,2,,,62,127
54322,note_off,176,0,0,,2,,,62,127
54322,note_off,0,0,0,,12,,,59,127
54323,note_on,1,0,0,,8,,,56,127
54323,note_on,0,0,0,,12,,,59,127
54323,note_on,0,0,0,,3,,,75,127
54499,note_off,176,0,0,,3,,,75,127
54500,note_on,1,0,0,,5,,,77,127
54543,note_off,43,0,0,,5,,,77,127
54544,note_on,1,0,0,,4,,,76,127
54587,note_off,43,0,0,,4,,,76,127
54588,note_on,1,0,0,,3,,,75,127
54631,note_off,43,0,0,,3,,,75,127
54632,note_on,1,0,0,,4,,,76,127
54675,note_off,43,0,0,,4,,,76,127
54676,note_on,1,0,0,,4,,,64,127
54842,note_off,166,0,0,,4,,,64,127
54852,note_off,10,0,0,,12,,,59,127
54852,note_off,0,0,0,,8,,,56,127
54853,note_on,1,0,0,,8,,,56,127
54853,note_on,0,0,0,,12,,,71,127
54853,note_on,0,0,0,,4,,,76,127
55029,note_off,176,0,0,,12,,,71,127
55029,note_off,0,0,0,,8,,,56,127
55030,note_on,1,0,0,,10,,,57,127
55030,note_on,0,0,0,,0,,,72,127
55206,note_off,176,0,0,,10,,,57,127
55207,note_on,1,0,0,,10,,,45,127
55383,note_off,176,0,0,,10,,,45,127
55383,note_off,0,0,0,,0,,,72,127
55383,note_off,0,0,0,,4,,,76,127
55384,note_on,1,0,0,,4,,,52,127
55384,note_on,0,0,0,,8,,,68,127
55560,note_off,176,0,0,,8,,,68,127
55560,note_off,0,0,0,,4,,,52,127
55561,note_on,1,0,0,,5,,,53,127
55561,note_on,0,0,0,,10,,,69,127
55737,note_off,176,0,0,,5,,,53,127
55738,note_on,1,0,0,,5,,,41,127
55914,note_off,176,0,0,,5,,,41,127
55914,note_off,0,0,0,,10,,,69,127
55915,note_on,1,0,0,,1,,,49,127
55915,note_on,0,0,0,,10,,,69,127
55915,note_on,0,0,0,,4,,,76,127
56091,note_off,176,0,0,,4,,,76,127
56091,note_off,0,0,0,,1,,,49,127
56092,note_on,1,0,0,,2,,,50,127
56092,note_on,0,0,0,,5,,,77,127
56268,note_off,176,0,0,,2,,,50,127
56269,note_on,1,0,0,,2,,,38,127
56445,note_off,176,0,0,,2,,,38,127
56445,note_off,0,0,0,,5,,,77,127
56445,note_off,0,0,0,,10,,,69,127
56446,note_on,1,0,0,,3,,,51,127
56446,note_on,0,0,0,,0,,,72,127
56498,note_off,52,0,0,,0,,,72,127
56499,note_on,1,0,0,,12,,,71,127
56552,note_off,53,0,0,,12,,,71,127
56553,note_on,1,0,0,,0,,,72,127
56605,note_off,52,0,0,,0,,,72,127
56606,note_on,1,0,0,,12,,,71,127
56624,note_off,18,0,0,,3,,,51,127
56625,note_on,1,0,0,,4,,,52,127
56659,note_off,34,0,0,,12,,,71,127
56660,note_on,1,0,0,,0,,,72,127
56713,note_off,53,0,0,,0,,,72,127
56714,note_on,1,0,0,,12,,,71,127
56766,note_off,52,0,0,,12,,,71,127
56767,note_on,1,0,0,,0,,,72,127
56802,note_off,35,0,0,,4,,,52,127
56803,note_on,1,0,0,,4,,,40,127
56820,note_off,17,0,0,,0,,,72,127
56821,note_on,1,0,0,,12,,,71,127
56873,note_off,52,0,0,,12,,,71,127
56874,note_on,1,0,0,,0,,,72,127
56927,note_off,53,0,0,,0,,,72,127
56928,note_on,1,0,0,,12,,,71,127
56981,note_off,53,0,0,,12,,,71,127
56981,note_off,0,0,0,,4,,,40,127
56982,note_on,1,0,0,,8,,,56,127
56982,note_on,0,0,0,,12,,,71,127
56982,note_on,0,0,0,,4,,,76,127
57158,note_off,176,0,0,,12,,,71,127
57158,note_off,0,0,0,,8,,,56,127
57159,note_on,1,0,0,,10,,,57,127
57159,note_on,0,0,0,,0,,,72,127
57335,note_off,176,0,0,,10,,,57,127
57336,note_on,1,0,0,,10,,,45,127
57512,note_off,176,0,0,,10,,,45,127
57512,note_off,0,0,0,,0,,,72,127
57512,note_off,0,0,0,,4,,,76,127
57513,note_on,1,0,0,,4,,,52,127
57513,note_on,0,0,0,,8,,,68,127
57689,note_off,176,0,0,,8,,,68,127
57689,note_off,0,0,0,,4,,,52,127
57690,note_on,1,0,0,,5,,,53,127
57690,note_on,0,0,0,,10,,,69,127
57866,note_off,176,0,0,,5,,,53,127
57867,note_on,1,0,0,,5,,,41,127
58043,note_off,176,0,0,,5,,,41,127
58043,note_off,0,0,0,,10,,,69,127
58044,note_on,1,0,0,,1,,,49,127
58044,note_on,0,0,0,,4,,,76,127
58044,note_on,0,0,0,,10,,,69,127
58220,note_off,176,0,0,,4,,,76,127
58220,note_off,0,0,0,,1,,,49,127
58221,note_on,1,0,0,,2,,,50,127
58221,note_on,0,0,0,,5,,,77,127
58397,note_off,176,0,0,,2,,,50,127
58398,note_on,1,0,0,,2,,,38,127
58574,note_off,176,0,0,,2,,,38,127
58574,note_off,0,0,0,,5,,,77,127
58574,note_off,0,0,0,,10,,,69,127
58575,note_on,1,0,0,,3,,,51,127
58575,note_on,0,0,0,,0,,,72,127
58627,note_off,52,0,0,,0,,,72,127
58628,note_on,1,0,0,,12,,,71,127
58681,note_off,53,0,0,,12,,,71,127
58682,note_on,1,0,0,,0,,,72,127
58734,note_off,52,0,0,,0,,,72,127
58735,note_on,1,0,0,,12,,,71,127
58753,note_off,18,0,0,,3,,,51,127
58754,note_on,1,0,0,,4,,,52,127
58788,note_off,34,0,0,,12,,,71,127
58789,note_on,1,0,0,,0,,,72,127
58842,note_off,53,0,0,,0,,,72,127
58843,note_on,1,0,0,,12,,,71,127
58895,note_off,52,0,0,,12,,,71,127
58896,note_on,1,0,0,,0,,,72,127
58931,note_off,35,0,0,,4,,,52,127
58932,note_on,1,0,0,,4,,,40,127
58949,note_off,17,0,0,,0,,,72,127
58950,note_on,1,0,0,,12,,,71,127
59002,note_off,52,0,0,,12,,,71,127
59003,note_on,1,0,0,,0,,,72,127
59056,note_off,53,0,0,,0,,,72,127
59057,note_on,1,0,0,,12,,,71,127
59110,note_off,53,0,0,,12,,,71,127
59110,note_off,0,0,0,,4,,,40,127
59111,note_on,1,0,0,,12,,,71,127
59111,note_on,0,0,0,,8,,,68,127
59111,note_on,0,0,0,,10,,,81,127
59287,note_off,176,0,0,,10,,,81,127
59288,note_on,1,0,0,,0,,,84,127
59331,note_off,43,0,0,,0,,,84,127
59332,note_on,1,0,0,,12,,,83,127
59375,note_off,43,0,0,,12,,,83,127
59376,note_on,1,0,0,,11,,,82,127
59419,note_off,43,0,0,,11,,,82,127
59420,note_on,1,0,0,,12,,,83,127
59463,note_off,43,0,0,,12,,,83,127
59464,note_on,1,0,0,,2,,,74,127
59640,note_off,176,0,0,,2,,,74,127
59640,note_off,0,0,0,,8,,,68,127
59640,note_off,0,0,0,,12,,,71,127
59641,note_on,1,0,0,,10,,,69,127
59641,note_on,0,0,0,,2,,,74,127
59684,note_off,43,0,0,,2,,,74,127
59685,note_on,1,0,0,,0,,,72,127
59728,note_off,43,0,0,,0,,,72,127
59729,note_on,1,0,0,,2,,,74,127
59772,note_off,43,0,0,,2,,,74,127
59773,note_on,1,0,0,,0,,,72,127
59816,note_off,43,0,0,,0,,,72,127
59817,note_on,1,0,0,,12,,,71,127
59993,note_off,176,0,0,,12,,,71,127
59994,note_on,1,0,0,,0,,,72,127
60160,note_off,166,0,0,,0,,,72,127
60170,note_off,10,0,0,,10,,,69,127
60171,note_on,1,0,0,,12,,,71,127
60171,note_on,0,0,0,,8,,,68,127
60171,note_on,0,0,0,,10,,,81,127
60347,note_off,176,0,0,,10,,,81,127
60348,note_on,1,0,0,,0,,,84,127
60391,note_off,43,0,0,,0,,,84,127
60392,note_on,1,0,0,,12,,,83,127
60435,note_off,43,0,0,,12,,,83,127
60436,note_on,1,0,0,,11,,,82,127
60479,note_off,43,0,0,,11,,,82,127
60480,note_on,1,0,0,,12,,,83,127
60523,note_off,43,0,0,,12,,,83,127
60524,note_on,1,0,0,,2,,,74,127
60700,note_off,176,0,0,,2,,,74,127
60700,note_off,0,0,0,,8,,,68,127
60700,note_off,0,0,0,,12,,,71,127
60701,note_on,1,0,0,,10,,,69,127
60701,note_on,0,0,0,,2,,,74,127
60744,note_off,43,0,0,,2,,,74,127
60745,note_on,1,0,0,,0,,,72,127
60788,note_off,43,0,0,,0,,,72,127
60789,note_on,1,0,0,,2,,,74,127
60832,note_off,43,0,0,,2,,,74,127
60833,note_on,1,0,0,,0,,,72,127
60876,note_off,43,0,0,,0,,,72,127
60877,note_on,1,0,0,,12,,,71,127
61053,note_off,176,0,0,,12,,,71,127
61054,note_on,1,0,0,,0,,,72,127
61211,note_off,157,0,0,,0,,,72,127
61230,note_off,19,0,0,,10,,,69,127
61231,note_on,1,0,0,,10,,,69,127
61231,note_on,0,0,0,,6,,,66,127
61231,note_on,0,0,0,,7,,,79,127
61407,note_off,176,0,0,,7,,,79,127
61408,note_on,1,0,0,,11,,,82,127
61451,note_off,43,0,0,,11,,,82,127
61452,note_on,1,0,0,,10,,,81,127
61495,note_off,43,0,0,,10,,,81,127
61496,note_on,1,0,0,,8,,,80,127
61539,note_off,43,0,0,,8,,,80,127
61540,note_on,1,0,0,,10,,,81,127
61583,note_off,43,0,0,,10,,,81,127
61584,note_on,1,0,0,,0,,,72,127
61760,note_off,176,0,0,,0,,,72,127
61760,note_off,0,0,0,,6,,,66,127
61760,note_off,0,0,0,,10,,,69,127
61761,note_on,1,0,0,,7,,,67,127
61761,note_on,0,0,0,,0,,,72,127
61804,note_off,43,0,0,,0,,,72,127
61805,note_on,1,0,0,,11,,,70,127
61848,note_off,43,0,0,,11,,,70,127
61849,note_on,1,0,0,,0,,,72,127
61892,note_off,43,0,0,,0,,,72,127
61893,note_on,1,0,0,,11,,,70,127
61936,note_off,43,0,0,,11,,,70,127
61937,note_on,1,0,0,,10,,,69,127
62113,note_off,176,0,0,,10,,,69,127
62114,note_on,1,0,0,,11,,,70,127
62271,note_off,157,0,0,,11,,,70,127
62290,note_off,19,0,0,,7,,,67,127
62291,note_on,1,0,0,,10,,,69,127
62291,note_on,0,0,0,,6,,,66,127
62291,note_on,0,0,0,,7,,,79,127
62467,note_off,176,0,0,,7,,,79,127
62468,note_on,1,0,0,,11,,,82,127
62511,note_off,43,0,0,,11,,,82,127
62512,note_on,1,0,0,,10,,,81,127
62555,note_off,43,0,0,,10,,,81,127
62556,note_on,1,0,0,,8,,,80,127
62599,note_off,43,0,0,,8,,,80,127
62600,note_on,1,0,0,,10,,,81,127
62643,note_off,43,0,0,,10,,,81,127
62644,note_on,1,0,0,,0,,,72,127
62820,note_off,176,0,0,,0,,,72,127
62820,note_off,0,0,0,,6,,,66,127
62820,note_off,0,0,0,,10,,,69,127
62821,note_on,1,0,0,,7,,,67,127
62821,note_on,0,0,0,,0,,,72,127
62864,note_off,43,0,0,,0,,,72,127
62865,note_on,1,0,0,,11,,,70,127
62908,note_off,43,0,0,,11,,,70,127
62909,note_on,1,0,0,,0,,,72,127
62952,note_off,43,0,0,,0,,,72,127
62953,note_on,1,0,0,,11,,,70,127
62996,note_off,43,0,0,,11,,,70,127
62997,note_on,1,0,0,,10,,,69,127
63173,note_off,176,0,0,,10,,,69,127
63174,note_on,1,0,0,,11,,,70,127
63322,note_off,148,0,0,,11,,,70,127
63351,note_off,29,0,0,,7,,,67,127
63352,note_on,1,0,0,,1,,,61,127
63352,note_on,0,0,0,,4,,,64,127
63352,note_on,0,0,0,,2,,,74,127
63528,note_off,176,0,0,,2,,,74,127
63529,note_on,1,0,0,,5,,,77,127
63572,note_off,43,0,0,,5,,,77,127
63573,note_on,1,0,0,,4,,,76,127
63616,note_off,43,0,0,,4,,,76,127
63617,note_on,1,0,0,,3,,,75,127
63660,note_off,43,0,0,,3,,,75,127
63661,note_on,1,0,0,,4,,,76,127
63704,note_off,43,0,0,,4,,,76,127
63705,note_on,1,0,0,,7,,,67,127
63881,note_off,176,0,0,,7,,,67,127
63881,note_off,0,0,0,,4,,,64,127
63881,note_off,0,0,0,,1,,,61,127
63882,note_on,1,0,0,,2,,,62,127
63882,note_on,0,0,0,,7,,,67,127
63925,note_off,43,0,0,,7,,,67,127
63926,note_on,1,0,0,,5,,,65,127
63969,note_off,43,0,0,,5,,,65,127
63970,note_on,1,0,0,,7,,,67,127
64013,note_off,43,0,0,,7,,,67,127
64014,note_on,1,0,0,,5,,,65,127
64057,note_off,43,0,0,,5,,,65,127
64058,note_on,1,0,0,,4,,,64,127
64234,note_off,176,0,0,,4,,,64,127
64235,note_on,1,0,0,,5,,,65,127
64411,note_off,176,0,0,,5,,,65,127
64411,note_off,0,0,0,,2,,,62,127
64412,note_on,1,0,0,,1,,,61,127
64412,note_on,0,0,0,,4,,,64,127
64412,note_on,0,0,0,,2,,,74,127
64588,note_off,176,0,0,,2,,,74,127
64589,note_on,1,0,0,,5,,,77,127
64632,note_off,43,0,0,,5,,,77,127
64633,note_on,1,0,0,,4,,,76,127
64676,note_off,43,0,0,,4,,,76,127
64677,note_on,1,0,0,,3,,,75,127
64720,note_off,43,0,0,,3,,,75,127
64721,note_on,1,0,0,,4,,,76,127
64764,note_off,43,0,0,,4,,,76,127
64765,note_on,1,0,0,,7,,,67,127
64941,note_off,176,0,0,,7,,,67,127
64941,note_off,0,0,0,,4,,,64,127
64941,note_off,0,0,0,,1,,,61,127
64942,note_on,1,0,0,,2,,,62,127
64942,note_on,0,0,0,,7,,,67,127
64985,note_off,43,0,0,,7,,,67,127
64986,note_on,1,0,0,,5,,,65,127
65029,note_off,43,0,0,,5,,,65,127
65030,note_on,1,0,0,,7,,,67,127
65073,note_off,43,0,0,,7,,,67,127
65074,note_on,1,0,0,,5,,,65,127
65117,note_off,43,0,0,,5,,,65,127
65118,note_on,1,0,0,,4,,,64,127
65294,note_off,176,0,0,,4,,,64,127
65295,note_on,1,0,0,,5,,,65,127
65447,note_off,152,0,0,,5,,,65,127
65471,note_off,24,0,0,,2,,,62,127
65472,note_on,1,0,0,,12,,,59,127
65472,note_on,0,0,0,,2,,,62,127
65472,note_on,0,0,0,,0,,,72,127
65648,note_off,176,0,0,,0,,,72,127
65649,note_on,1,0,0,,4,,,76,127
65692,note_off,43,0,0,,4,,,76,127
65693,note_on,1,0,0,,2,,,74,127
65736,note_off,43,0,0,,2,,,74,127
65737,note_on,1,0,0,,0,,,72,127
65780,note_off,43,0,0,,0,,,72,127
65781,note_on,1,0,0,,2,,,74,127
65824,note_off,43,0,0,,2,,,74,127
65825,note_on,1,0,0,,5,,,65,127
66001,note_off,176,0,0,,5,,,65,127
66001,note_off,0,0,0,,2,,,62,127
66001,note_off,0,0,0,,12,,,59,127
66002,note_on,1,0,0,,0,,,60,127
66002,note_on,0,0,0,,5,,,65,127
66045,note_off,43,0,0,,5,,,65,127
66046,note_on,1,0,0,,4,,,64,127
66089,note_off,43,0,0,,4,,,64,127
66090,note_on,1,0,0,,5,,,65,127
66133,note_off,43,0,0,,5,,,65,127
66134,note_on,1,0,0,,4,,,64,127
66177,note_off,43,0,0,,4,,,64,127
66178,note_on,1,0,0,,2,,,62,127
66354,note_off,176,0,0,,2,,,62,127
66355,note_on,1,0,0,,4,,,64,127
66521,note_off,166,0,0,,4,,,64,127
66531,note_off,10,0,0,,0,,,60,127
66532,note_on,1,0,0,,2,,,62,127
66532,note_on,0,0,0,,12,,,59,127
66532,note_on,0,0,0,,0,,,72,127
66708,note_off,176,0,0,,0,,,72,127
66709,note_on,1,0,0,,4,,,76,127
66752,note_off,43,0,0,,4,,,76,127
66753,note_on,1,0,0,,2,,,74,127
66796,note_off,43,0,0,,2,,,74,127
66797,note_on,1,0,0,,0,,,72,127
66840,note_off,43,0,0,,0,,,72,127
66841,note_on,1,0,0,,2,,,74,127
66884,note_off,43,0,0,,2,,,74,127
66885,note_on,1,0,0,,5,,,65,127
67061,note_off,176,0,0,,5,,,65,127
67061,note_off,0,0,0,,12,,,59,127
67061,note_off,0,0,0,,2,,,62,127
67062,note_on,1,0,0,,0,,,60,127
67062,note_on,0,0,0,,5,,,65,127
67105,note_off,43,0,0,,5,,,65,127
67106,note_on,1,0,0,,4,,,64,127
67149,note_off,43,0,0,,4,,,64,127
67150,note_on,1,0,0,,5,,,65,127
67193,note_off,43,0,0,,5,,,65,127
67194,note_on,1,0,0,,4,,,64,127
67237,note_off,43,0,0,,4,,,64,127
67238,note_on,1,0,0,,2,,,62,127
67414,note_off,176,0,0,,2,,,62,127
67414,note_off,0,0,0,,0,,,60,127
67415,note_on,1,0,0,,11,,,58,127
67415,note_on,0,0,0,,4,,,64,127
67591,note_off,176,0,0,,4,,,64,127
67591,note_off,0,0,0,,11,,,58,127
67592,note_on,1,0,0,,10,,,57,127
67592,note_on,0,0,0,,7,,,67,127
67651,note_on,59,0,0,,5,,,65,127
67680,note_off,29,0,0,,7,,,67,127
67710,note_on,30,0,0,,7,,,67,127
67739,note_off,29,0,0,,5,,,65,127
67769,note_off,30,0,0,,10,,,57,127
67770,note_on,1,0,0,,5,,,53,127
67770,note_on,0,0,0,,5,,,65,127
67799,note_off,29,0,0,,7,,,67,127
67829,note_on,30,0,0,,7,,,67,127
67858,note_off,29,0,0,,5,,,65,127
67888,note_on,30,0,0,,5,,,65,127
67917,note_off,29,0,0,,7,,,67,127
67947,note_off,30,0,0,,5,,,53,127
67948,note_on,1,0,0,,4,,,52,127
67948,note_on,0,0,0,,4,,,64,127
67977,note_off,29,0,0,,5,,,65,127
68007,note_on,30,0,0,,5,,,65,127
68036,note_off,29,0,0,,4,,,64,127
68066,note_on,30,0,0,,7,,,67,127
68095,note_off,29,0,0,,5,,,65,127
68125,note_off,30,0,0,,4,,,52,127
68126,note_on,1,0,0,,2,,,50,127
68126,note_on,0,0,0,,10,,,69,127
68155,note_off,29,0,0,,7,,,67,127
68303,note_off,148,0,0,,10,,,69,127
68304,note_on,1,0,0,,0,,,72,127
68392,note_off,88,0,0,,0,,,72,127
68393,note_on,1,0,0,,12,,,71,127
68481,note_off,88,0,0,,12,,,71,127
68482,note_on,1,0,0,,10,,,69,127
68570,note_off,88,0,0,,10,,,69,127
68571,note_on,1,0,0,,12,,,71,127
68659,note_off,88,0,0,,12,,,71,127
68659,note_off,0,0,0,,2,,,50,127
68660,note_on,1,0,0,,0,,,48,127
68660,note_on,0,0,0,,0,,,72,127
68836,note_off,176,0,0,,0,,,72,127
68837,note_on,1,0,0,,2,,,74,127
69013,note_off,176,0,0,,2,,,74,127
69014,note_on,1,0,0,,4,,,76,127
69190,note_off,176,0,0,,4,,,76,127
69190,note_off,0,0,0,,0,,,48,127
69191,note_on,1,0,0,,5,,,53,127
69191,note_on,0,0,0,,7,,,55,127
69191,note_on,0,0,0,,12,,,59,127
69191,note_on,0,0,0,,2,,,50,127
69191,note_on,0,0,0,,5,,,77,127
69367,note_off,176,0,0,,5,,,77,127
69368,note_on,1,0,0,,2,,,74,127
69544,note_off,176,0,0,,2,,,74,127
69545,note_on,1,0,0,,12,,,71,127
69721,note_off,176,0,0,,12,,,71,127
69721,note_off,0,0,0,,2,,,50,127
69721,note_off,0,0,0,,12,,,59,127
69721,note_off,0,0,0,,7,,,55,127
69721,note_off,0,0,0,,5,,,53,127
69722,note_on,1,0,0,,0,,,60,127
69722,note_on,0,0,0,,0,,,48,127
69722,note_on,0,0,0,,7,,,55,127
69722,note_on,0,0,0,,0,,,72,127
69898,note_off,176,0,0,,0,,,72,127
69899,note_on,1,0,0,,7,,,67,127
70075,note_off,176,0,0,,7,,,67,127
70076,note_on,1,0,0,,4,,,64,127
70252,note_off,176,0,0,,4,,,64,127
70252,note_off,0,0,0,,7,,,55,127
70252,note_off,0,0,0,,0,,,48,127
70252,note_off,0,0,0,,0,,,60,127
70253,note_on,1,0,0,,2,,,50,127
70253,note_on,0,0,0,,5,,,65,127
70429,note_off,176,0,0,,5,,,65,127
70430,note_on,1,0,0,,2,,,62,127
70606,note_off,176,0,0,,2,,,62,127
70607,note_on,1,0,0,,12,,,59,127
70783,note_off,176,0,0,,12,,,59,127
70783,note_off,0,0,0,,2,,,50,127
70784,note_on,1,0,0,,0,,,48,127
70784,note_on,0,0,0,,0,,,60,127
70836,note_off,52,0,0,,0,,,60,127
70837,note_on,1,0,0,,2,,,62,127
70890,note_off,53,0,0,,2,,,62,127
70891,note_on,1,0,0,,4,,,64,127
70943,note_off,52,0,0,,4,,,64,127
70944,note_on,1,0,0,,5,,,65,127
70997,note_off,53,0,0,,5,,,65,127
70998,note_on,1,0,0,,7,,,67,127
71051,note_off,53,0,0,,7,,,67,127
71052,note_on,1,0,0,,10,,,69,127
71104,note_off,52,0,0,,10,,,69,127
71105,note_on,1,0,0,,12,,,71,127
71158,note_off,53,0,0,,12,,,71,127
71159,note_on,1,0,0,,0,,,72,127
71211,note_off,52,0,0,,0,,,72,127
71212,note_on,1,0,0,,2,,,74,127
71265,note_off,53,0,0,,2,,,74,127
71266,note_on,1,0,0,,4,,,76,127
71319,note_off,53,0,0,,4,,,76,127
71319,note_off,0,0,0,,0,,,48,127
71320,note_on,1,0,0,,2,,,50,127
71320,note_on,0,0,0,,5,,,77,127
71496,note_off,176,0,0,,5,,,77,127
71497,note_on,1,0,0,,2,,,74,127
71673,note_off,176,0,0,,2,,,74,127
71674,note_on,1,0,0,,12,,,71,127
71850,note_off,176,0,0,,12,,,71,127
71850,note_off,0,0,0,,2,,,50,127
71851,note_on,1,0,0,,0,,,48,127
71851,note_on,0,0,0,,0,,,72,127
72202,note_off,351,0,0,,0,,,72,127
72382,note_off,180,0,0,,0,,,48,127
72383,note_on,1,0,0,,5,,,65,127
72383,note_on,0,0,0,,10,,,69,127
72559,note_off,176,0,0,,10,,,69,127
72559,note_off,0,0,0,,5,,,65,127
72560,note_on,1,0,0,,7,,,67,127
72560,note_on,0,0,0,,11,,,70,127
72736,note_off,176,0,0,,11,,,70,127
72736,note_off,0,0,0,,7,,,67,127
72737,note_on,1,0,0,,7,,,55,127
72737,note_on,0,0,0,,11,,,82,127
72913,note_off,176,0,0,,11,,,82,127
72913,note_off,0,0,0,,7,,,55,127
72914,note_on,1,0,0,,7,,,67,127
72914,note_on,0,0,0,,11,,,70,127
73090,note_off,176,0,0,,11,,,70,127
73090,note_off,0,0,0,,7,,,67,127
73091,note_on,1,0,0,,10,,,69,127
73091,note_on,0,0,0,,0,,,72,127
73267,note_off,176,0,0,,0,,,72,127
73267,note_off,0,0,0,,10,,,69,127
73268,note_on,1,0,0,,10,,,57,127
73268,note_on,0,0,0,,0,,,84,127
73444,note_off,176,0,0,,0,,,84,127
73444,note_off,0,0,0,,10,,,57,127
73445,note_on,1,0,0,,10,,,69,127
73445,note_on,0,0,0,,0,,,72,127
73621,note_off,176,0,0,,0,,,72,127
73621,note_off,0,0,0,,10,,,69,127
73622,note_on,1,0,0,,11,,,70,127
73622,note_on,0,0,0,,2,,,74,127
73798,note_off,176,0,0,,2,,,74,127
73798,note_off,0,0,0,,11,,,70,127
73799,note_on,1,0,0,,11,,,58,127
73799,note_on,0,0,0,,2,,,86,127
73975,note_off,176,0,0,,2,,,86,127
73975,note_off,0,0,0,,11,,,58,127
73976,note_on,1,0,0,,11,,,70,127
73976,note_on,0,0,0,,2,,,74,127
74152,note_off,176,0,0,,2,,,74,127
74152,note_off,0,0,0,,11,,,70,127
74153,note_on,1,0,0,,0,,,72,127
74153,note_on,0,0,0,,4,,,76,127
74329,note_off,176,0,0,,4,,,76,127
74329,note_off,0,0,0,,0,,,72,127
74330,note_on,1,0,0,,0,,,60,127
74330,note_on,0,0,0,,4,,,88,127
74506,note_off,176,0,0,,4,,,88,127
74506,note_off,0,0,0,,0,,,60,127
74507,note_on,1,0,0,,10,,,69,127
74507,note_on,0,0,0,,5,,,89,127
74683,note_off,176,0,0,,5,,,89,127
74683,note_off,0,0,0,,10,,,69,127
74684,note_on,1,0,0,,7,,,67,127
74684,note_on,0,0,0,,0,,,84,127
74860,note_off,176,0,0,,0,,,84,127
74860,note_off,0,0,0,,7,,,67,127
74861,note_on,1,0,0,,5,,,65,127
74861,note_on,0,0,0,,2,,,86,127
75037,note_off,176,0,0,,2,,,86,127
75037,note_off,0,0,0,,5,,,65,127
75038,note_on,1,0,0,,4,,,64,127
75038,note_on,0,0,0,,0,,,84,127
75214,note_off,176,0,0,,0,,,84,127
75215,note_on,1,0,0,,7,,,79,127
75391,note_off,176,0,0,,7,,,79,127
75391,note_off,0,0,0,,4,,,64,127
75392,note_on,1,0,0,,5,,,65,127
75392,note_on,0,0,0,,10,,,81,127
75568,note_off,176,0,0,,10,,,81,127
75568,note_off,0,0,0,,5,,,65,127
75569,note_on,1,0,0,,11,,,58,127
75569,note_on,0,0,0,,11,,,82,127
75569,note_on,0,0,0,,0,,,84,127
75745,note_off,176,0,0,,0,,,84,127
75745,note_off,0,0,0,,11,,,82,127
75745,note_off,0,0,0,,11,,,58,127
75746,note_on,1,0,0,,0,,,60,127
75746,note_on,0,0,0,,10,,,81,127
75922,note_off,176,0,0,,10,,,81,127
75923,note_on,1,0,0,,0,,,48,127
75923,note_on,0,0,0,,7,,,79,127
76099,note_off,176,0,0,,7,,,79,127
76099,note_off,0,0,0,,0,,,48,127
76099,note_off,0,0,0,,0,,,60,127
76100,note_on,1,0,0,,5,,,41,127
76100,note_on,0,0,0,,7,,,79,127
76152,note_off,52,0,0,,7,,,79,127
76153,note_on,1,0,0,,5,,,77,127
76206,note_off,53,0,0,,5,,,77,127
76207,note_on,1,0,0,,7,,,79,127
76259,note_off,52,0,0,,7,,,79,127
76260,note_on,1,0,0,,5,,,77,127
76313,note_off,53,0,0,,5,,,77,127
76314,note_on,1,0,0,,7,,,79,127
76367,note_off,53,0,0,,7,,,79,127
76368,note_on,1,0,0,,5,,,77,127
76420,note_off,52,0,0,,5,,,77,127
76421,note_on,1,0,0,,7,,,79,127
76474,note_off,53,0,0,,7,,,79,127
76475,note_on,1,0,0,,5,,,77,127
76527,note_off,52,0,0,,5,,,77,127
76528,note_on,1,0,0,,7,,,79,127
76581,note_off,53,0,0,,7,,,79,127
76582,note_on,1,0,0,,5,,,77,127
76635,note_off,53,0,0,,5,,,77,127
76635,note_off,0,0,0,,5,,,41,127
76636,note_on,1,0,0,,5,,,53,127
76636,note_on,0,0,0,,10,,,57,127
76812,note_off,176,0,0,,10,,,57,127
76812,note_off,0,0,0,,5,,,53,127
76813,note_on,1,0,0,,7,,,55,127
76813,note_on,0,0,0,,11,,,58,127
76989,note_off,176,0,0,,11,,,58,127
76989,note_off,0,0,0,,7,,,55,127
76990,note_on,1,0,0,,7,,,43,127
76990,note_on,0,0,0,,11,,,70,127
77166,note_off,176,0,0,,11,,,70,127
77166,note_off,0,0,0,,7,,,43,127
77167,note_on,1,0,0,,7,,,55,127
77167,note_on,0,0,0,,11,,,58,127
77343,note_off,176,0,0,,11,,,58,127
77343,note_off,0,0,0,,7,,,55,127
77344,note_on,1,0,0,,10,,,57,127
77344,note_on,0,0,0,,0,,,60,127
77520,note_off,176,0,0,,0,,,60,127
77520,note_off,0,0,0,,10,,,57,127
77521,note_on,1,0,0,,10,,,45,127
77521,note_on,0,0,0,,0,,,72,127
77697,note_off,176,0,0,,0,,,72,127
77697,note_off,0,0,0,,10,,,45,127
77698,note_on,1,0,0,,10,,,57,127
77698,note_on,0,0,0,,0,,,60,127
77874,note_off,176,0,0,,0,,,60,127
77874,note_off,0,0,0,,10,,,57,127
77875,note_on,1,0,0,,11,,,58,127
77875,note_on,0,0,0,,2,,,62,127
78051,note_off,176,0,0,,2,,,62,127
78051,note_off,0,0,0,,11,,,58,127
78052,note_on,1,0,0,,11,,,46,127
78052,note_on,0,0,0,,2,,,74,127
78228,note_off,176,0,0,,2,,,74,127
78228,note_off,0,0,0,,11,,,46,127
78229,note_on,1,0,0,,11,,,58,127
78229,note_on,0,0,0,,2,,,62,127
78405,note_off,176,0,0,,2,,,62,127
78405,note_off,0,0,0,,11,,,58,127
78406,note_on,1,0,0,,0,,,60,127
78406,note_on,0,0,0,,4,,,64,127
78582,note_off,176,0,0,,4,,,64,127
78582,note_off,0,0,0,,0,,,60,127
78583,note_on,1,0,0,,0,,,48,127
78583,note_on,0,0,0,,4,,,76,127
78759,note_off,176,0,0,,4,,,76,127
78759,note_off,0,0,0,,0,,,48,127
78760,note_on,1,0,0,,10,,,57,127
78760,note_on,0,0,0,,5,,,77,127
78936,note_off,176,0,0,,5,,,77,127
78936,note_off,0,0,0,,10,,,57,127
78937,note_on,1,0,0,,7,,,55,127
78937,note_on,0,0,0,,0,,,72,127
79113,note_off,176,0,0,,0,,,72,127
79113,note_off,0,0,0,,7,,,55,127
79114,note_on,1,0,0,,5,,,53,127
79114,note_on,0,0,0,,2,,,74,127
79290,note_off,176,0,0,,2,,,74,127
79290,note_off,0,0,0,,5,,,53,127
79291,note_on,1,0,0,,4,,,52,127
79291,note_on,0,0,0,,0,,,72,127
79467,note_off,176,0,0,,0,,,72,127
79468,note_on,1,0,0,,7,,,67,127
79644,note_off,176,0,0,,7,,,67,127
79644,note_off,0,0,0,,4,,,52,127
79645,note_on,1,0,0,,5,,,53,127
79645,note_on,0,0,0,,10,,,69,127
79821,note_off,176,0,0,,10,,,69,127
79821,note_off,0,0,0,,5,,,53,127
79822,note_on,1,0,0,,11,,,46,127
79822,note_on,0,0,0,,11,,,70,127
79822,note_on,0,0,0,,0,,,72,127
79998,note_off,176,0,0,,0,,,72,127
79998,note_off,0,0,0,,11,,,70,127
79998,note_off,0,0,0,,11,,,46,127
79999,note_on,1,0,0,,0,,,48,127
79999,note_on,0,0,0,,10,,,69,127
80175,note_off,176,0,0,,10,,,69,127
80176,note_on,1,0,0,,0,,,36,127
80176,note_on,0,0,0,,7,,,67,127
80352,note_off,176,0,0,,7,,,67,127
80352,note_off,0,0,0,,0,,,36,127
80352,note_off,0,0,0,,0,,,48,127
80353,note_on,1,0,0,,5,,,41,127
80353,note_on,0,0,0,,5,,,65,127
80704,note_off,351,0,0,,5,,,65,127
80884,note_off,180,0,0,,5,,,41,127
80885,note_on,1,0,0,,5,,,65,127
80885,note_on,0,0,0,,10,,,81,127
81061,note_off,176,0,0,,5,,,65,127
81062,note_on,1,0,0,,0,,,60,127
81062,note_on,0,0,0,,0,,,72,127
81238,note_off,176,0,0,,0,,,60,127
81239,note_on,1,0,0,,5,,,53,127
81415,note_off,176,0,0,,5,,,53,127
81415,note_off,0,0,0,,0,,,72,127
81415,note_off,0,0,0,,10,,,81,127
81416,note_on,1,0,0,,0,,,60,127
81416,note_on,0,0,0,,0,,,84,127
81416,note_on,0,0,0,,0,,,72,127
81592,note_off,176,0,0,,0,,,84,127
81592,note_off,0,0,0,,0,,,60,127
81593,note_on,1,0,0,,7,,,55,127
81593,note_on,0,0,0,,11,,,82,127
81769,note_off,176,0,0,,11,,,82,127
81769,note_off,0,0,0,,7,,,55,127
81770,note_on,1,0,0,,0,,,48,127
81770,note_on,0,0,0,,7,,,79,127
81946,note_off,176,0,0,,7,,,79,127
81946,note_off,0,0,0,,0,,,48,127
81947,note_on,1,0,0,,5,,,53,127
81947,note_on,0,0,0,,11,,,82,127
82123,note_off,176,0,0,,11,,,82,127
82123,note_off,0,0,0,,5,,,53,127
82124,note_on,1,0,0,,0,,,48,127
82124,note_on,0,0,0,,10,,,81,127
82300,note_off,176,0,0,,10,,,81,127
82300,note_off,0,0,0,,0,,,48,127
82301,note_on,1,0,0,,5,,,41,127
82301,note_on,0,0,0,,5,,,77,127
82477,note_off,176,0,0,,5,,,77,127
82477,note_off,0,0,0,,5,,,41,127
82477,note_off,0,0,0,,0,,,72,127
82478,note_on,1,0,0,,0,,,36,127
82478,note_on,0,0,0,,10,,,81,127
82536,note_off,58,0,0,,10,,,81,127
82537,note_on,1,0,0,,7,,,79,127
82595,note_off,58,0,0,,7,,,79,127
82596,note_on,1,0,0,,10,,,81,127
82654,note_off,58,0,0,,10,,,81,127
82655,note_on,1,0,0,,7,,,79,127
82713,note_off,58,0,0,,7,,,79,127
82714,note_on,1,0,0,,10,,,81,127
82772,note_off,58,0,0,,10,,,81,127
82773,note_on,1,0,0,,7,,,79,127
82831,note_off,58,0,0,,7,,,79,127
82832,note_on,1,0,0,,5,,,77,127
82920,note_off,88,0,0,,5,,,77,127
82921,note_on,1,0,0,,7,,,79,127
83009,note_off,88,0,0,,7,,,79,127
83009,note_off,0,0,0,,0,,,36,127
83010,note_on,1,0,0,,5,,,65,127
83010,note_on,0,0,0,,10,,,81,127
83186,note_off,176,0,0,,5,,,65,127
83187,note_on,1,0,0,,0,,,60,127
83187,note_on,0,0,0,,0,,,72,127
83363,note_off,176,0,0,,0,,,60,127
83364,note_on,1,0,0,,5,,,53,127
83540,note_off,176,0,0,,5,,,53,127
83540,note_off,0,0,0,,0,,,72,127
83540,note_off,0,0,0,,10,,,81,127
83541,note_on,1,0,0,,0,,,60,127
83541,note_on,0,0,0,,0,,,84,127
83541,note_on,0,0,0,,0,,,72,127
83717,note_off,176,0,0,,0,,,84,127
83717,note_off,0,0,0,,0,,,60,127
83718,note_on,1,0,0,,7,,,55,127
83718,note_on,0,0,0,,11,,,82,127
83894,note_off,176,0,0,,11,,,82,127
83894,note_off,0,0,0,,7,,,55,127
83895,note_on,1,0,0,,0,,,48,127
83895,note_on,0,0,0,,7,,,79,127
84071,note_off,176,0,0,,7,,,79,127
84071,note_off,0,0,0,,0,,,48,127
84072,note_on,1,0,0,,5,,,53,127
84072,note_on,0,0,0,,11,,,82,127
84248,note_off,176,0,0,,11,,,82,127
84248,note_off,0,0,0,,5,,,53,127
84249,note_on,1,0,0,,0,,,48,127
84249,note_on,0,0,0,,10,,,81,127
84425,note_off,176,0,0,,10,,,81,127
84425,note_off,0,0,0,,0,,,48,127
84426,note_on,1,0,0,,5,,,41,127
84426,note_on,0,0,0,,5,,,77,127
84602,note_off,176,0,0,,5,,,77,127
84602,note_off,0,0,0,,5,,,41,127
84602,note_off,0,0,0,,0,,,72,127
84603,note_on,1,0,0,,0,,,36,127
84603,note_on,0,0,0,,10,,,81,127
84655,note_off,52,0,0,,10,,,81,127
84656,note_on,1,0,0,,7,,,79,127
84709,note_off,53,0,0,,7,,,79,127
84710,note_on,1,0,0,,10,,,81,127
84762,note_off,52,0,0,,10,,,81,127
84763,note_on,1,0,0,,7,,,79,127
84816,note_off,53,0,0,,7,,,79,127
84817,note_on,1,0,0,,10,,,81,127
84870,note_off,53,0,0,,10,,,81,127
84871,note_on,1,0,0,,7,,,79,127
84923,note_off,52,0,0,,7,,,79,127
84924,note_on,1,0,0,,10,,,81,127
84977,note_off,53,0,0,,10,,,81,127
84978,note_on,1,0,0,,7,,,79,127
85030,note_off,52,0,0,,7,,,79,127
85031,note_on,1,0,0,,10,,,81,127
85084,note_off,53,0,0,,10,,,81,127
85085,note_on,1,0,0,,7,,,79,127
85105,note_off,20,0,0,,0,,,36,127
85137,note_off,32,0,0,,7,,,79,127
85138,note_on,1,0,0,,10,,,57,127
85138,note_on,0,0,0,,5,,,77,127
85226,note_off,88,0,0,,5,,,77,127
85227,note_on,1,0,0,,4,,,76,127
85315,note_off,88,0,0,,4,,,76,127
85316,note_on,1,0,0,,2,,,74,127
85404,note_off,88,0,0,,2,,,74,127
85405,note_on,1,0,0,,0,,,72,127
85493,note_off,88,0,0,,0,,,72,127
85494,note_on,1,0,0,,2,,,74,127
85552,note_off,58,0,0,,2,,,74,127
85553,note_on,1,0,0,,4,,,76,127
85611,note_off,58,0,0,,4,,,76,127
85612,note_on,1,0,0,,5,,,77,127
85670,note_off,58,0,0,,5,,,77,127
85670,note_off,0,0,0,,10,,,57,127
85671,note_on,1,0,0,,11,,,58,127
85671,note_on,0,0,0,,7,,,79,127
85847,note_off,176,0,0,,7,,,79,127
85848,note_on,1,0,0,,10,,,81,127
86024,note_off,176,0,0,,10,,,81,127
86025,note_on,1,0,0,,11,,,82,127
86201,note_off,176,0,0,,11,,,82,127
86201,note_off,0,0,0,,11,,,58,127
86202,note_on,1,0,0,,0,,,60,127
86202,note_on,0,0,0,,11,,,82,127
86202,note_on,0,0,0,,0,,,84,127
86378,note_off,176,0,0,,0,,,84,127
86378,note_off,0,0,0,,11,,,82,127
86379,note_on,1,0,0,,10,,,81,127
86555,note_off,176,0,0,,10,,,81,127
86556,note_on,1,0,0,,0,,,48,127
86556,note_on,0,0,0,,7,,,79,127
86732,note_off,176,0,0,,7,,,79,127
86732,note_off,0,0,0,,0,,,48,127
86732,note_off,0,0,0,,0,,,60,127
86733,note_on,1,0,0,,5,,,41,127
86733,note_on,0,0,0,,7,,,79,127
86776,note_off,43,0,0,,7,,,79,127
86777,note_on,1,0,0,,5,,,77,127
86820,note_off,43,0,0,,5,,,77,127
86821,note_on,1,0,0,,7,,,79,127
86864,note_off,43,0,0,,7,,,79,127
86865,note_on,1,0,0,,5,,,77,127
86908,note_off,43,0,0,,5,,,77,127
86909,note_on,1,0,0,,4,,,76,127
87085,note_off,176,0,0,,4,,,76,127
87086,note_on,1,0,0,,5,,,77,127
87262,note_off,176,0,0,,5,,,77,127
87262,note_off,0,0,0,,5,,,41,127
87263,note_on,1,0,0,,5,,,53,127
87263,note_on,0,0,0,,10,,,69,127
87439,note_off,176,0,0,,5,,,53,127
87440,note_on,1,0,0,,0,,,48,127
87440,note_on,0,0,0,,0,,,60,127
87616,note_off,176,0,0,,0,,,48,127
87617,note_on,1,0,0,,5,,,41,127
87793,note_off,176,0,0,,5,,,41,127
87793,note_off,0,0,0,,0,,,60,127
87793,note_off,0,0,0,,10,,,69,127
87794,note_on,1,0,0,,0,,,48,127
87794,note_on,0,0,0,,0,,,72,127
87794,note_on,0,0,0,,0,,,60,127
87970,note_off,176,0,0,,0,,,72,127
87970,note_off,0,0,0,,0,,,48,127
87971,note_on,1,0,0,,7,,,43,127
87971,note_on,0,0,0,,11,,,70,127
88147,note_off,176,0,0,,11,,,70,127
88147,note_off,0,0,0,,7,,,43,127
88148,note_on,1,0,0,,0,,,36,127
88148,note_on,0,0,0,,7,,,67,127
88324,note_off,176,0,0,,7,,,67,127
88324,note_off,0,0,0,,0,,,36,127
88325,note_on,1,0,0,,5,,,41,127
88325,note_on,0,0,0,,11,,,70,127
88501,note_off,176,0,0,,11,,,70,127
88501,note_off,0,0,0,,5,,,41,127
88502,note_on,1,0,0,,0,,,36,127
88502,note_on,0,0,0,,10,,,69,127
88678,note_off,176,0,0,,10,,,69,127
88678,note_off,0,0,0,,0,,,36,127
88679,note_on,1,0,0,,5,,,29,127
88679,note_on,0,0,0,,5,,,65,127
88855,note_off,176,0,0,,5,,,65,127
88855,note_off,0,0,0,,5,,,29,127
88855,note_off,0,0,0,,0,,,60,127
88856,note_on,1,0,0,,0,,,36,127
88856,note_on,0,0,0,,10,,,69,127
88914,note_off,58,0,0,,10,,,69,127
88915,note_on,1,0,0,,7,,,67,127
88973,note_off,58,0,0,,7,,,67,127
88974,note_on,1,0,0,,10,,,69,127
89032,note_off,58,0,0,,10,,,69,127
89033,note_on,1,0,0,,7,,,67,127
89091,note_off,58,0,0,,7,,,67,127
89092,note_on,1,0,0,,10,,,69,127
89150,note_off,58,0,0,,10,,,69,127
89151,note_on,1,0,0,,7,,,67,127
89209,note_off,58,0,0,,7,,,67,127
89210,note_on,1,0,0,,5,,,65,127
89298,note_off,88,0,0,,5,,,65,127
89299,note_on,1,0,0,,7,,,67,127
89387,note_off,88,0,0,,7,,,67,127
89387,note_off,0,0,0,,0,,,36,127
89388,note_on,1,0,0,,5,,,53,127
89388,note_on,0,0,0,,10,,,69,127
89564,note_off,176,0,0,,5,,,53,127
89565,note_on,1,0,0,,0,,,48,127
89565,note_on,0,0,0,,0,,,60,127
89741,note_off,176,0,0,,0,,,48,127
89742,note_on,1,0,0,,5,,,41,127
89918,note_off,176,0,0,,5,,,41,127
89918,note_off,0,0,0,,0,,,60,127
89918,note_off,0,0,0,,10,,,69,127
89919,note_on,1,0,0,,0,,,48,127
89919,note_on,0,0,0,,0,,,72,127
89919,note_on,0,0,0,,0,,,60,127
90095,note_off,176,0,0,,0,,,72,127
90095,note_off,0,0,0,,0,,,48,127
90096,note_on,1,0,0,,7,,,43,127
90096,note_on,0,0,0,,11,,,70,127
90272,note_off,176,0,0,,11,,,70,127
90272,note_off,0,0,0,,7,,,43,127
90273,note_on,1,0,0,,0,,,36,127
90273,note_on,0,0,0,,7,,,67,127
90449,note_off,176,0,0,,7,,,67,127
90449,note_off,0,0,0,,0,,,36,127
90450,note_on,1,0,0,,5,,,41,127
90450,note_on,0,0,0,,11,,,70,127
90626,note_off,176,0,0,,11,,,70,127
90626,note_off,0,0,0,,5,,,41,127
90627,note_on,1,0,0,,0,,,36,127
90627,note_on,0,0,0,,10,,,69,127
90803,note_off,176,0,0,,10,,,69,127
90803,note_off,0,0,0,,0,,,36,127
90804,note_on,1,0,0,,5,,,29,127
90804,note_on,0,0,0,,5,,,65,127
90980,note_off,176,0,0,,5,,,65,127
90980,note_off,0,0,0,,5,,,29,127
90980,note_off,0,0,0,,0,,,60,127
90981,note_on,1,0,0,,0,,,36,127
90981,note_on,0,0,0,,10,,,69,127
91033,note_off,52,0,0,,10,,,69,127
91034,note_on,1,0,0,,7,,,67,127
91087,note_off,53,0,0,,7,,,67,127
91088,note_on,1,0,0,,10,,,69,127
91140,note_off,52,0,0,,10,,,69,127
91141,note_on,1,0,0,,7,,,67,127
91194,note_off,53,0,0,,7,,,67,127
91195,note_on,1,0,0,,10,,,69,127
91248,note_off,53,0,0,,10,,,69,127
91249,note_on,1,0,0,,7,,,67,127
91301,note_off,52,0,0,,7,,,67,127
91302,note_on,1,0,0,,10,,,69,127
91355,note_off,53,0,0,,10,,,69,127
91356,note_on,1,0,0,,7,,,67,127
91408,note_off,52,0,0,,7,,,67,127
91409,note_on,1,0,0,,10,,,69,127
91462,note_off,53,0,0,,10,,,69,127
91463,note_on,1,0,0,,7,,,67,127
91483,note_off,20,0,0,,0,,,36,127
91515,note_off,32,0,0,,7,,,67,127
91516,note_on,1,0,0,,10,,,45,127
91516,note_on,0,0,0,,5,,,65,127
91604,note_off,88,0,0,,5,,,65,127
91605,note_on,1,0,0,,4,,,64,127
91693,note_off,88,0,0,,4,,,64,127
91694,note_on,1,0,0,,2,,,62,127
91782,note_off,88,0,0,,2,,,62,127
91783,note_on,1,0,0,,0,,,60,127
91871,note_off,88,0,0,,0,,,60,127
91872,note_on,1,0,0,,2,,,62,127
91930,note_off,58,0,0,,2,,,62,127
91931,note_on,1,0,0,,4,,,64,127
91989,note_off,58,0,0,,4,,,64,127
91990,note_on,1,0,0,,5,,,65,127
92048,note_off,58,0,0,,5,,,65,127
92048,note_off,0,0,0,,10,,,45,127
92049,note_on,1,0,0,,11,,,46,127
92049,note_on,0,0,0,,7,,,67,127
92225,note_off,176,0,0,,7,,,67,127
92226,note_on,1,0,0,,10,,,69,127
92402,note_off,176,0,0,,10,,,69,127
92403,note_on,1,0,0,,11,,,70,127
92579,note_off,176,0,0,,11,,,70,127
92579,note_off,0,0,0,,11,,,46,127
92580,note_on,1,0,0,,0,,,48,127
92580,note_on,0,0,0,,11,,,70,127
92580,note_on,0,0,0,,0,,,72,127
92756,note_off,176,0,0,,0,,,72,127
92756,note_off,0,0,0,,11,,,70,127
92757,note_on,1,0,0,,10,,,69,127
92933,note_off,176,0,0,,10,,,69,127
92934,note_on,1,0,0,,0,,,36,127
92934,note_on,0,0,0,,7,,,67,127
93110,note_off,176,0,0,,7,,,67,127
93110,note_off,0,0,0,,0,,,36,127
93110,note_off,0,0,0,,0,,,48,127
93111,note_on,1,0,0,,5,,,41,127
93111,note_on,0,0,0,,7,,,67,127
93154,note_off,43,0,0,,7,,,67,127
93155,note_on,1,0,0,,5,,,65,127
93198,note_off,43,0,0,,5,,,65,127
93199,note_on,1,0,0,,7,,,67,127
93242,note_off,43,0,0,,7,,,67,127
93243,note_on,1,0,0,,5,,,65,127
93286,note_off,43,0,0,,5,,,65,127
93287,note_on,1,0,0,,4,,,64,127
93463,note_off,176,0,0,,4,,,64,127
93464,note_on,1,0,0,,5,,,65,127
93640,note_off,176,0,0,,5,,,65,127
93640,note_off,0,0,0,,5,,,41,127
93641,note_on,1,0,0,,10,,,57,127
93641,note_on,0,0,0,,10,,,45,127
93641,note_on,0,0,0,,5,,,77,127
93729,note_off,88,0,0,,5,,,77,127
93730,note_on,1,0,0,,4,,,76,127
93818,note_off,88,0,0,,4,,,76,127
93819,note_on,1,0,0,,2,,,74,127
93907,note_off,88,0,0,,2,,,74,127
93908,note_on,1,0,0,,0,,,72,127
93996,note_off,88,0,0,,0,,,72,127
93997,note_on,1,0,0,,2,,,74,127
94055,note_off,58,0,0,,2,,,74,127
94056,note_on,1,0,0,,4,,,76,127
94114,note_off,58,0,0,,4,,,76,127
94115,note_on,1,0,0,,5,,,77,127
94173,note_off,58,0,0,,5,,,77,127
94173,note_off,0,0,0,,10,,,45,127
94173,note_off,0,0,0,,10,,,57,127
94174,note_on,1,0,0,,11,,,46,127
94174,note_on,0,0,0,,11,,,58,127
94174,note_on,0,0,0,,7,,,79,127
94262,note_off,88,0,0,,7,,,79,127
94263,note_on,1,0,0,,10,,,81,127
94351,note_off,88,0,0,,10,,,81,127
94352,note_on,1,0,0,,11,,,82,127
94440,note_off,88,0,0,,11,,,82,127
94441,note_on,1,0,0,,0,,,84,127
94529,note_off,88,0,0,,0,,,84,127
94530,note_on,1,0,0,,2,,,86,127
94706,note_off,176,0,0,,11,,,58,127
94706,note_off,0,0,0,,11,,,46,127
94707,note_on,1,0,0,,0,,,48,127
94707,note_on,0,0,0,,0,,,60,127
94883,note_off,176,0,0,,2,,,86,127
94898,note_on,15,0,0,,0,,,84,127
94997,note_off,99,0,0,,0,,,84,127
95000,note_on,3,0,0,,11,,,82,127
95099,note_off,99,0,0,,11,,,82,127
95104,note_on,5,0,0,,10,,,81,127
95203,note_off,99,0,0,,10,,,81,127
95207,note_on,4,0,0,,7,,,79,127
95239,note_off,32,0,0,,0,,,60,127
95239,note_off,0,0,0,,0,,,48,127
95305,note_off,66,0,0,,7,,,79,127
95320,note_on,15,0,0,,5,,,41,127
95320,note_on,0,0,0,,7,,,79,127
95368,note_off,48,0,0,,7,,,79,127
95372,note_on,4,0,0,,5,,,77,127
95420,note_off,48,0,0,,5,,,77,127
95424,note_on,4,0,0,,7,,,79,127
95472,note_off,48,0,0,,7,,,79,127
95475,note_on,3,0,0,,5,,,77,127
97456,note_off,1981,0,0,,5,,,77,127
97456,note_off,0,0,0,,5,,,41,127
102912,end_of_track,5456,1,0,,,,,,
