tick,type,time,meta,track,program,channel,pitch,tempo,note,velocity
0,copyright,0,1,0,,,,,,
0,program_change,0,0,0,6,0,,,,
0,pitchwheel,0,0,0,,0,0,,,
0,program_change,0,0,0,6,1,,,,
0,pitchwheel,0,0,0,,1,-590,,,
0,program_change,0,0,0,6,2,,,,
0,pitchwheel,0,0,0,,2,-272,,,
0,program_change,0,0,0,6,3,,,,
0,pitchwheel,0,0,0,,3,-353,,,
0,program_change,0,0,0,6,4,,,,
0,pitchwheel,0,0,0,,4,-560,,,
0,program_change,0,0,0,6,5,,,,
0,pitchwheel,0,0,0,,5,-80,,,
0,program_change,0,0,0,6,6,,,,
0,pitchwheel,0,0,0,,6,-625,,,
0,program_change,0,0,0,6,7,,,,
0,pitchwheel,0,0,0,,7,-130,,,
0,program_change,0,0,0,6,8,,,,
0,pitchwheel,0,0,0,,8,-512,,,
0,program_change,0,0,0,6,10,,,,
0,pitchwheel,0,0,0,,10,-464,,,
0,program_change,0,0,0,6,11,,,,
0,pitchwheel,0,0,0,,11,-208,,,
0,program_change,0,0,0,6,12,,,,
0,pitchwheel,0,0,0,,12,-553,,,
0,set_tempo,0,1,0,,,,500000,,
160,note_on,160,0,0,,0,,,72,127
212,note_off,52,0,0,,0,,,72,127
214,note_on,2,0,0,,11,,,70,127
266,note_off,52,0,0,,11,,,70,127
268,note_on,2,0,0,,0,,,72,127
320,note_off,52,0,0,,0,,,72,127
322,note_on,2,0,0,,11,,,70,127
640,note_off,318,0,0,,11,,,70,127
642,note_on,2,0,0,,11,,,70,127
800,note_off,158,0,0,,11,,,70,127
802,note_on,2,0,0,,0,,,72,127
854,note_off,52,0,0,,0,,,72,127
856,note_on,2,0,0,,11,,,70,127
908,note_off,52,0,0,,11,,,70,127
910,note_on,2,0,0,,0,,,72,127
962,note_off,52,0,0,,0,,,72,127
964,note_on,2,0,0,,11,,,70,127
1124,note_on,160,0,0,,10,,,69,127
1442,note_off,318,0,0,,10,,,69,127
1444,note_on,2,0,0,,7,,,67,127
1762,note_off,318,0,0,,7,,,67,127
1762,note_off,0,0,0,,11,,,70,127
1764,note_on,2,0,0,,5,,,65,127
1764,note_on,0,0,0,,12,,,71,127
2064,note_off,300,0,0,,12,,,71,127
2082,note_off,18,0,0,,5,,,65,127
2084,note_on,2,0,0,,3,,,63,127
2084,note_on,0,0,0,,2,,,74,127
2136,note_off,52,0,0,,2,,,74,127
2138,note_on,2,0,0,,0,,,72,127
2190,note_off,52,0,0,,0,,,72,127
2192,note_on,2,0,0,,2,,,74,127
2244,note_off,52,0,0,,2,,,74,127
2246,note_on,2,0,0,,0,,,72,127
2404,note_off,158,0,0,,3,,,63,127
2406,note_on,2,0,0,,2,,,62,127
2564,note_off,158,0,0,,0,,,72,127
2566,note_on,2,0,0,,0,,,72,127
2724,note_off,158,0,0,,0,,,72,127
2724,note_off,0,0,0,,2,,,62,127
2726,note_on,2,0,0,,0,,,60,127
2726,note_on,0,0,0,,2,,,74,127
2778,note_off,52,0,0,,2,,,74,127
2780,note_on,2,0,0,,0,,,72,127
2832,note_off,52,0,0,,0,,,72,127
2834,note_on,2,0,0,,2,,,74,127
2886,note_off,52,0,0,,2,,,74,127
2888,note_on,2,0,0,,0,,,72,127
3046,note_off,158,0,0,,0,,,60,127
3048,note_on,2,0,0,,11,,,58,127
3366,note_off,318,0,0,,11,,,58,127
3368,note_on,2,0,0,,10,,,57,127
3686,note_off,318,0,0,,10,,,57,127
3686,note_off,0,0,0,,0,,,72,127
3688,note_on,2,0,0,,7,,,55,127
3688,note_on,0,0,0,,2,,,74,127
3988,note_off,300,0,0,,2,,,74,127
4006,note_off,18,0,0,,7,,,55,127
4008,note_on,2,0,0,,5,,,41,127
4008,note_on,0,0,0,,5,,,77,127
4008,note_on,0,0,0,,2,,,74,127
4326,note_off,318,0,0,,2,,,74,127
4326,note_off,0,0,0,,5,,,77,127
4328,note_on,2,0,0,,0,,,72,127
4328,note_on,0,0,0,,3,,,75,127
4646,note_off,318,0,0,,3,,,75,127
4646,note_off,0,0,0,,0,,,72,127
4646,note_off,0,0,0,,5,,,41,127
4648,note_on,2,0,0,,5,,,41,127
4648,note_on,0,0,0,,3,,,75,127
4648,note_on,0,0,0,,0,,,72,127
4966,note_off,318,0,0,,0,,,72,127
4966,note_off,0,0,0,,3,,,75,127
4968,note_on,2,0,0,,2,,,74,127
4968,note_on,0,0,0,,11,,,70,127
5286,note_off,318,0,0,,11,,,70,127
5286,note_off,0,0,0,,2,,,74,127
5286,note_off,0,0,0,,5,,,41,127
5288,note_on,2,0,0,,5,,,41,127
5288,note_on,0,0,0,,11,,,70,127
5288,note_on,0,0,0,,2,,,74,127
5606,note_off,318,0,0,,2,,,74,127
5606,note_off,0,0,0,,11,,,70,127
5608,note_on,2,0,0,,0,,,72,127
5608,note_on,0,0,0,,10,,,69,127
5916,note_off,308,0,0,,0,,,72,127
5926,note_off,10,0,0,,10,,,69,127
5926,note_off,0,0,0,,5,,,41,127
5928,note_on,2,0,0,,11,,,34,127
5928,note_on,0,0,0,,0,,,72,127
5980,note_off,52,0,0,,0,,,72,127
5982,note_on,2,0,0,,11,,,70,127
6034,note_off,52,0,0,,11,,,70,127
6036,note_on,2,0,0,,0,,,72,127
6088,note_off,52,0,0,,0,,,72,127
6090,note_on,2,0,0,,11,,,70,127
6408,note_off,318,0,0,,11,,,70,127
6410,note_on,2,0,0,,11,,,70,127
6568,note_off,158,0,0,,11,,,70,127
6570,note_on,2,0,0,,0,,,72,127
6622,note_off,52,0,0,,0,,,72,127
6624,note_on,2,0,0,,11,,,70,127
6676,note_off,52,0,0,,11,,,70,127
6678,note_on,2,0,0,,0,,,72,127
6730,note_off,52,0,0,,0,,,72,127
6732,note_on,2,0,0,,11,,,70,127
6890,note_off,158,0,0,,11,,,34,127
6892,note_on,2,0,0,,10,,,69,127
7210,note_off,318,0,0,,10,,,69,127
7212,note_on,2,0,0,,7,,,67,127
7530,note_off,318,0,0,,7,,,67,127
7530,note_off,0,0,0,,11,,,70,127
7532,note_on,2,0,0,,5,,,65,127
7532,note_on,0,0,0,,12,,,71,127
7839,note_off,307,0,0,,12,,,71,127
7851,note_off,12,0,0,,5,,,65,127
7853,note_on,2,0,0,,3,,,63,127
7853,note_on,0,0,0,,2,,,74,127
7905,note_off,52,0,0,,2,,,74,127
7907,note_on,2,0,0,,0,,,72,127
7959,note_off,52,0,0,,0,,,72,127
7961,note_on,2,0,0,,2,,,74,127
8013,note_off,52,0,0,,2,,,74,127
8015,note_on,2,0,0,,0,,,72,127
8173,note_off,158,0,0,,3,,,63,127
8175,note_on,2,0,0,,2,,,62,127
8333,note_off,158,0,0,,0,,,72,127
8335,note_on,2,0,0,,0,,,72,127
8493,note_off,158,0,0,,0,,,72,127
8493,note_off,0,0,0,,2,,,62,127
8495,note_on,2,0,0,,0,,,60,127
8495,note_on,0,0,0,,2,,,74,127
8547,note_off,52,0,0,,2,,,74,127
8549,note_on,2,0,0,,0,,,72,127
8601,note_off,52,0,0,,0,,,72,127
8603,note_on,2,0,0,,2,,,74,127
8655,note_off,52,0,0,,2,,,74,127
8657,note_on,2,0,0,,0,,,72,127
8815,note_off,158,0,0,,0,,,60,127
8817,note_on,2,0,0,,11,,,58,127
9135,note_off,318,0,0,,11,,,58,127
9137,note_on,2,0,0,,8,,,56,127
9455,note_off,318,0,0,,8,,,56,127
9455,note_off,0,0,0,,0,,,72,127
9457,note_on,2,0,0,,7,,,55,127
9457,note_on,0,0,0,,2,,,74,127
9764,note_off,307,0,0,,2,,,74,127
9776,note_off,12,0,0,,7,,,55,127
9778,note_on,2,0,0,,5,,,41,127
9778,note_on,0,0,0,,5,,,77,127
9778,note_on,0,0,0,,8,,,80,127
10096,note_off,318,0,0,,8,,,80,127
10096,note_off,0,0,0,,5,,,77,127
10098,note_on,2,0,0,,3,,,75,127
10098,note_on,0,0,0,,7,,,79,127
10416,note_off,318,0,0,,7,,,79,127
10416,note_off,0,0,0,,3,,,75,127
10416,note_off,0,0,0,,5,,,41,127
10418,note_on,2,0,0,,7,,,43,127
10418,note_on,0,0,0,,7,,,79,127
10418,note_on,0,0,0,,3,,,75,127
10736,note_off,318,0,0,,3,,,75,127
10736,note_off,0,0,0,,7,,,79,127
10738,note_on,2,0,0,,5,,,77,127
10738,note_on,0,0,0,,2,,,74,127
11056,note_off,318,0,0,,2,,,74,127
11056,note_off,0,0,0,,5,,,77,127
11056,note_off,0,0,0,,7,,,43,127
11058,note_on,2,0,0,,7,,,43,127
11058,note_on,0,0,0,,3,,,75,127
11058,note_on,0,0,0,,0,,,72,127
11376,note_off,318,0,0,,0,,,72,127
11376,note_off,0,0,0,,3,,,75,127
11378,note_on,2,0,0,,12,,,71,127
11378,note_on,0,0,0,,2,,,74,127
11696,note_off,318,0,0,,2,,,74,127
11696,note_off,0,0,0,,12,,,71,127
11696,note_off,0,0,0,,7,,,43,127
11698,note_on,2,0,0,,0,,,36,127
11698,note_on,0,0,0,,2,,,74,127
11750,note_off,52,0,0,,2,,,74,127
11752,note_on,2,0,0,,0,,,72,127
11804,note_off,52,0,0,,0,,,72,127
11806,note_on,2,0,0,,2,,,74,127
11858,note_off,52,0,0,,2,,,74,127
11860,note_on,2,0,0,,0,,,72,127
12178,note_off,318,0,0,,0,,,72,127
12180,note_on,2,0,0,,0,,,72,127
12338,note_off,158,0,0,,0,,,72,127
12340,note_on,2,0,0,,2,,,74,127
12392,note_off,52,0,0,,2,,,74,127
12394,note_on,2,0,0,,0,,,72,127
12446,note_off,52,0,0,,0,,,72,127
12448,note_on,2,0,0,,2,,,74,127
12500,note_off,52,0,0,,2,,,74,127
12502,note_off,2,0,0,,0,,,36,127
12502,note_on,0,0,0,,0,,,72,127
12662,note_on,160,0,0,,7,,,67,127
12662,note_on,0,0,0,,0,,,60,127
12980,note_off,318,0,0,,0,,,60,127
12980,note_off,0,0,0,,7,,,67,127
12982,note_on,2,0,0,,5,,,65,127
12982,note_on,0,0,0,,1,,,61,127
13300,note_off,318,0,0,,0,,,72,127
13302,note_on,2,0,0,,11,,,70,127
13620,note_off,318,0,0,,11,,,70,127
13620,note_off,0,0,0,,1,,,61,127
13620,note_off,0,0,0,,5,,,65,127
13622,note_on,2,0,0,,3,,,63,127
13622,note_on,0,0,0,,0,,,60,127
13622,note_on,0,0,0,,10,,,69,127
13712,note_off,90,0,0,,10,,,69,127
13712,note_on,0,0,0,,11,,,70,127
13802,note_on,90,0,0,,10,,,69,127
13805,note_off,3,0,0,,11,,,70,127
14095,note_off,290,0,0,,10,,,69,127
14102,note_on,7,0,0,,10,,,69,127
14260,note_off,158,0,0,,10,,,69,127
14262,note_on,2,0,0,,1,,,73,127
14580,note_off,318,0,0,,1,,,73,127
14580,note_off,0,0,0,,0,,,60,127
14580,note_off,0,0,0,,3,,,63,127
14582,note_on,2,0,0,,3,,,63,127
14582,note_on,0,0,0,,0,,,60,127
14582,note_on,0,0,0,,0,,,72,127
14900,note_off,318,0,0,,0,,,60,127
14900,note_off,0,0,0,,3,,,63,127
14902,note_on,2,0,0,,5,,,65,127
14902,note_on,0,0,0,,1,,,61,127
15220,note_off,318,0,0,,0,,,72,127
15222,note_on,2,0,0,,11,,,70,127
15302,note_off,80,0,0,,11,,,70,127
15302,note_on,0,0,0,,0,,,72,127
15382,note_off,80,0,0,,0,,,72,127
15382,note_on,0,0,0,,11,,,70,127
15540,note_off,158,0,0,,11,,,70,127
15540,note_off,0,0,0,,1,,,61,127
15540,note_off,0,0,0,,5,,,65,127
15542,note_on,2,0,0,,3,,,63,127
15542,note_on,0,0,0,,0,,,60,127
15542,note_on,0,0,0,,10,,,69,127
15635,note_on,93,0,0,,11,,,70,127
15638,note_off,3,0,0,,10,,,69,127
15728,note_on,90,0,0,,10,,,69,127
15730,note_off,2,0,0,,11,,,70,127
16017,note_off,287,0,0,,10,,,69,127
16022,note_on,5,0,0,,10,,,69,127
16180,note_off,158,0,0,,10,,,69,127
16182,note_on,2,0,0,,6,,,78,127
16500,note_off,318,0,0,,0,,,60,127
16500,note_off,0,0,0,,3,,,63,127
16502,note_on,2,0,0,,3,,,63,127
16502,note_on,0,0,0,,0,,,60,127
16820,note_off,318,0,0,,0,,,60,127
16820,note_off,0,0,0,,3,,,63,127
16822,note_on,2,0,0,,1,,,61,127
16822,note_on,0,0,0,,5,,,65,127
17140,note_off,318,0,0,,6,,,78,127
17142,note_on,2,0,0,,5,,,77,127
17460,note_off,318,0,0,,5,,,65,127
17460,note_off,0,0,0,,1,,,61,127
17462,note_on,2,0,0,,7,,,67,127
17462,note_on,0,0,0,,0,,,60,127
17462,note_on,0,0,0,,11,,,70,127
17684,note_off,222,0,0,,5,,,77,127
17781,note_off,97,0,0,,0,,,60,127
17783,note_on,2,0,0,,11,,,58,127
17783,note_on,0,0,0,,4,,,76,127
18101,note_off,318,0,0,,4,,,76,127
18101,note_off,0,0,0,,11,,,58,127
18101,note_off,0,0,0,,11,,,70,127
18101,note_off,0,0,0,,7,,,67,127
18103,note_on,2,0,0,,8,,,56,127
18103,note_on,0,0,0,,5,,,65,127
18103,note_on,0,0,0,,5,,,77,127
18421,note_off,318,0,0,,5,,,77,127
18421,note_off,0,0,0,,5,,,65,127
18421,note_off,0,0,0,,8,,,56,127
18423,note_on,2,0,0,,7,,,55,127
18423,note_on,0,0,0,,4,,,64,127
18423,note_on,0,0,0,,7,,,79,127
18741,note_off,318,0,0,,7,,,79,127
18741,note_off,0,0,0,,4,,,64,127
18741,note_off,0,0,0,,7,,,55,127
18743,note_on,2,0,0,,5,,,53,127
18743,note_on,0,0,0,,0,,,60,127
18743,note_on,0,0,0,,8,,,80,127
19061,note_off,318,0,0,,8,,,80,127
19061,note_off,0,0,0,,5,,,53,127
19063,note_on,2,0,0,,3,,,51,127
19063,note_on,0,0,0,,0,,,84,127
19063,note_on,0,0,0,,7,,,79,127
19381,note_off,318,0,0,,7,,,79,127
19381,note_off,0,0,0,,3,,,51,127
19383,note_on,2,0,0,,1,,,49,127
19383,note_on,0,0,0,,5,,,77,127
19701,note_off,318,0,0,,0,,,84,127
19701,note_off,0,0,0,,0,,,60,127
19703,note_on,2,0,0,,5,,,53,127
19703,note_on,0,0,0,,0,,,84,127
20021,note_off,318,0,0,,0,,,84,127
20021,note_off,0,0,0,,5,,,53,127
20021,note_off,0,0,0,,1,,,49,127
20023,note_on,2,0,0,,1,,,49,127
20023,note_on,0,0,0,,5,,,53,127
20023,note_on,0,0,0,,11,,,58,127
20023,note_on,0,0,0,,11,,,82,127
20128,note_off,105,0,0,,11,,,82,127
20130,note_on,2,0,0,,0,,,84,127
20235,note_off,105,0,0,,0,,,84,127
20237,note_on,2,0,0,,11,,,82,127
20342,note_off,105,0,0,,11,,,82,127
20344,note_on,2,0,0,,8,,,80,127
20662,note_off,318,0,0,,8,,,80,127
20662,note_off,0,0,0,,11,,,58,127
20662,note_off,0,0,0,,5,,,53,127
20662,note_off,0,0,0,,1,,,49,127
20662,note_off,0,0,0,,5,,,77,127
20664,note_on,2,0,0,,1,,,49,127
20664,note_on,0,0,0,,5,,,53,127
20664,note_on,0,0,0,,7,,,55,127
20664,note_on,0,0,0,,12,,,59,127
20664,note_on,0,0,0,,7,,,79,127
20787,note_on,123,0,0,,8,,,80,127
20790,note_off,3,0,0,,7,,,79,127
20910,note_on,120,0,0,,7,,,79,127
20913,note_off,3,0,0,,8,,,80,127
21036,note_off,123,0,0,,7,,,79,127
21036,note_on,0,0,0,,5,,,77,127
21296,note_off,260,0,0,,5,,,77,127
21301,note_off,5,0,0,,12,,,59,127
21301,note_off,0,0,0,,7,,,55,127
21301,note_off,0,0,0,,5,,,53,127
21301,note_off,0,0,0,,1,,,49,127
21303,note_on,2,0,0,,0,,,48,127
21303,note_on,0,0,0,,0,,,60,127
21303,note_on,0,0,0,,7,,,55,127
21303,note_on,0,0,0,,7,,,79,127
21381,note_off,78,0,0,,7,,,79,127
21383,note_on,2,0,0,,5,,,77,127
21461,note_off,78,0,0,,5,,,77,127
21463,note_on,2,0,0,,7,,,79,127
21541,note_off,78,0,0,,7,,,79,127
21543,note_on,2,0,0,,5,,,77,127
21621,note_off,78,0,0,,5,,,77,127
21623,note_on,2,0,0,,7,,,79,127
21701,note_off,78,0,0,,7,,,79,127
21703,note_on,2,0,0,,5,,,77,127
21781,note_off,78,0,0,,5,,,77,127
21783,note_on,2,0,0,,7,,,79,127
21861,note_off,78,0,0,,7,,,79,127
21863,note_on,2,0,0,,5,,,77,127
21941,note_off,78,0,0,,5,,,77,127
21943,note_on,2,0,0,,4,,,76,127
22101,note_off,158,0,0,,4,,,76,127
22103,note_on,2,0,0,,5,,,77,127
22261,note_off,158,0,0,,5,,,77,127
22263,note_on,2,0,0,,7,,,79,127
22421,note_off,158,0,0,,7,,,79,127
22423,note_on,2,0,0,,10,,,81,127
22581,note_off,158,0,0,,10,,,81,127
22583,note_on,2,0,0,,12,,,83,127
22741,note_off,158,0,0,,12,,,83,127
22743,note_on,2,0,0,,0,,,84,127
22901,note_off,158,0,0,,0,,,84,127
22903,note_on,2,0,0,,12,,,83,127
23061,note_off,158,0,0,,12,,,83,127
23063,note_on,2,0,0,,0,,,84,127
23543,note_off,480,0,0,,0,,,84,127
23863,note_off,320,0,0,,7,,,55,127
23863,note_off,0,0,0,,0,,,48,127
24503,note_off,640,0,0,,0,,,60,127
25143,note_on,640,0,0,,7,,,67,127
25195,note_off,52,0,0,,7,,,67,127
25197,note_on,2,0,0,,5,,,65,127
25249,note_off,52,0,0,,5,,,65,127
25251,note_on,2,0,0,,7,,,67,127
25303,note_off,52,0,0,,7,,,67,127
25305,note_on,2,0,0,,5,,,65,127
25623,note_off,318,0,0,,5,,,65,127
25625,note_on,2,0,0,,5,,,65,127
25783,note_off,158,0,0,,5,,,65,127
25785,note_on,2,0,0,,7,,,67,127
25837,note_off,52,0,0,,7,,,67,127
25839,note_on,2,0,0,,5,,,65,127
25891,note_off,52,0,0,,5,,,65,127
25893,note_on,2,0,0,,7,,,67,127
25945,note_off,52,0,0,,7,,,67,127
25947,note_on,2,0,0,,5,,,65,127
26107,note_on,160,0,0,,4,,,64,127
26425,note_off,318,0,0,,4,,,64,127
26427,note_on,2,0,0,,2,,,62,127
26722,note_off,295,0,0,,5,,,65,127
26745,note_off,23,0,0,,2,,,62,127
26747,note_on,2,0,0,,0,,,60,127
26747,note_on,0,0,0,,7,,,67,127
26827,note_off,80,0,0,,7,,,67,127
26827,note_on,0,0,0,,6,,,66,127
26907,note_off,80,0,0,,6,,,66,127
26907,note_on,0,0,0,,7,,,67,127
26987,note_off,80,0,0,,7,,,67,127
26987,note_on,0,0,0,,6,,,66,127
27065,note_off,78,0,0,,0,,,60,127
27067,note_off,2,0,0,,6,,,66,127
27067,note_on,0,0,0,,11,,,58,127
27067,note_on,0,0,0,,7,,,67,127
27067,note_on,0,0,0,,0,,,72,127
27119,note_off,52,0,0,,0,,,72,127
27121,note_on,2,0,0,,11,,,70,127
27173,note_off,52,0,0,,11,,,70,127
27175,note_on,2,0,0,,0,,,72,127
27227,note_off,52,0,0,,0,,,72,127
27229,note_on,2,0,0,,11,,,70,127
27387,note_off,158,0,0,,11,,,58,127
27389,note_on,2,0,0,,10,,,57,127
27547,note_off,158,0,0,,11,,,70,127
27549,note_on,2,0,0,,11,,,70,127
27707,note_off,158,0,0,,11,,,70,127
27707,note_off,0,0,0,,10,,,57,127
27709,note_on,2,0,0,,7,,,55,127
27709,note_on,0,0,0,,0,,,72,127
27761,note_off,52,0,0,,0,,,72,127
27763,note_on,2,0,0,,11,,,70,127
27815,note_off,52,0,0,,11,,,70,127
27817,note_on,2,0,0,,0,,,72,127
27869,note_off,52,0,0,,0,,,72,127
27871,note_on,2,0,0,,11,,,70,127
28029,note_off,158,0,0,,7,,,55,127
28031,note_on,2,0,0,,5,,,53,127
28349,note_off,318,0,0,,5,,,53,127
28351,note_on,2,0,0,,4,,,52,127
28669,note_off,318,0,0,,4,,,52,127
28669,note_off,0,0,0,,11,,,70,127
28671,note_off,2,0,0,,7,,,67,127
28671,note_on,0,0,0,,2,,,50,127
28671,note_on,0,0,0,,5,,,65,127
28671,note_on,0,0,0,,0,,,72,127
28751,note_off,80,0,0,,0,,,72,127
28751,note_on,0,0,0,,12,,,71,127
28831,note_off,80,0,0,,12,,,71,127
28831,note_on,0,0,0,,0,,,72,127
28911,note_off,80,0,0,,0,,,72,127
28911,note_on,0,0,0,,12,,,71,127
28989,note_off,78,0,0,,5,,,65,127
28989,note_off,0,0,0,,2,,,50,127
28991,note_off,2,0,0,,12,,,71,127
28991,note_on,0,0,0,,0,,,60,127
28991,note_on,0,0,0,,0,,,48,127
28991,note_on,0,0,0,,0,,,72,127
28991,note_on,0,0,0,,4,,,64,127
29309,note_off,318,0,0,,0,,,60,127
29311,note_on,2,0,0,,11,,,58,127
29469,note_off,158,0,0,,0,,,72,127
29471,note_on,2,0,0,,0,,,72,127
29629,note_off,158,0,0,,0,,,72,127
29629,note_off,0,0,0,,11,,,58,127
29629,note_off,0,0,0,,4,,,64,127
29631,note_on,2,0,0,,10,,,57,127
29631,note_on,0,0,0,,0,,,72,127
29631,note_on,0,0,0,,5,,,65,127
29949,note_off,318,0,0,,5,,,65,127
29949,note_off,0,0,0,,10,,,57,127
29951,note_on,2,0,0,,7,,,55,127
29951,note_on,0,0,0,,7,,,67,127
30269,note_off,318,0,0,,7,,,67,127
30269,note_off,0,0,0,,7,,,55,127
30269,note_off,0,0,0,,0,,,48,127
30271,note_on,2,0,0,,5,,,53,127
30271,note_on,0,0,0,,10,,,69,127
30589,note_off,318,0,0,,0,,,72,127
30591,note_on,2,0,0,,10,,,45,127
30591,note_on,0,0,0,,5,,,77,127
30909,note_off,318,0,0,,5,,,77,127
30909,note_off,0,0,0,,10,,,45,127
30909,note_off,0,0,0,,10,,,69,127
30909,note_off,0,0,0,,5,,,53,127
30911,note_on,2,0,0,,11,,,46,127
30911,note_on,0,0,0,,4,,,76,127
31069,note_off,158,0,0,,4,,,76,127
31071,note_on,2,0,0,,2,,,74,127
31229,note_off,158,0,0,,2,,,74,127
31229,note_off,0,0,0,,11,,,46,127
31231,note_on,2,0,0,,2,,,50,127
31231,note_on,0,0,0,,0,,,72,127
31389,note_off,158,0,0,,0,,,72,127
31391,note_on,2,0,0,,11,,,70,127
31549,note_off,158,0,0,,11,,,70,127
31549,note_off,0,0,0,,2,,,50,127
31551,note_on,2,0,0,,0,,,48,127
31551,note_on,0,0,0,,11,,,70,127
31709,note_off,158,0,0,,11,,,70,127
31711,note_on,2,0,0,,10,,,69,127
31869,note_off,158,0,0,,10,,,69,127
31871,note_on,2,0,0,,7,,,67,127
32029,note_off,158,0,0,,7,,,67,127
32031,note_on,2,0,0,,5,,,65,127
32189,note_off,158,0,0,,5,,,65,127
32191,note_on,2,0,0,,0,,,36,127
32191,note_on,0,0,0,,10,,,69,127
32269,note_off,78,0,0,,10,,,69,127
32271,note_on,2,0,0,,7,,,67,127
32349,note_off,78,0,0,,7,,,67,127
32351,note_on,2,0,0,,10,,,69,127
32429,note_off,78,0,0,,10,,,69,127
32431,note_on,2,0,0,,7,,,67,127
32509,note_off,78,0,0,,7,,,67,127
32511,note_on,2,0,0,,10,,,69,127
32589,note_off,78,0,0,,10,,,69,127
32591,note_on,2,0,0,,7,,,67,127
32669,note_off,78,0,0,,7,,,67,127
32671,note_on,2,0,0,,5,,,65,127
32749,note_off,78,0,0,,5,,,65,127
32751,note_on,2,0,0,,7,,,67,127
32774,note_off,23,0,0,,0,,,36,127
32784,note_off,10,0,0,,0,,,48,127
32829,note_off,45,0,0,,7,,,67,127
32831,note_on,2,0,0,,5,,,41,127
32831,note_on,0,0,0,,5,,,65,127
32911,note_off,80,0,0,,5,,,65,127
32911,note_on,0,0,0,,7,,,67,127
32991,note_off,80,0,0,,7,,,67,127
32991,note_on,0,0,0,,5,,,65,127
33309,note_off,318,0,0,,5,,,65,127
33311,note_on,2,0,0,,5,,,65,127
33469,note_off,158,0,0,,5,,,65,127
33471,note_on,2,0,0,,7,,,67,127
33523,note_off,52,0,0,,7,,,67,127
33525,note_on,2,0,0,,5,,,65,127
33577,note_off,52,0,0,,5,,,65,127
33579,note_on,2,0,0,,7,,,67,127
33631,note_off,52,0,0,,7,,,67,127
33633,note_on,2,0,0,,5,,,65,127
33791,note_off,158,0,0,,5,,,41,127
33793,note_on,2,0,0,,4,,,64,127
34111,note_off,318,0,0,,4,,,64,127
34113,note_on,2,0,0,,2,,,62,127
34431,note_off,318,0,0,,2,,,62,127
34431,note_off,0,0,0,,5,,,65,127
34433,note_on,2,0,0,,0,,,60,127
34433,note_on,0,0,0,,7,,,67,127
34513,note_off,80,0,0,,7,,,67,127
34513,note_on,0,0,0,,6,,,66,127
34593,note_off,80,0,0,,6,,,66,127
34593,note_on,0,0,0,,7,,,67,127
34673,note_off,80,0,0,,7,,,67,127
34673,note_on,0,0,0,,6,,,66,127
34751,note_off,78,0,0,,0,,,60,127
34753,note_off,2,0,0,,6,,,66,127
34753,note_on,0,0,0,,11,,,58,127
34753,note_on,0,0,0,,7,,,67,127
34753,note_on,0,0,0,,0,,,72,127
34806,note_off,53,0,0,,0,,,72,127
34806,note_on,0,0,0,,11,,,70,127
34858,note_off,52,0,0,,11,,,70,127
34860,note_on,2,0,0,,0,,,72,127
34912,note_off,52,0,0,,0,,,72,127
34914,note_on,2,0,0,,11,,,70,127
35072,note_off,158,0,0,,11,,,58,127
35074,note_on,2,0,0,,10,,,57,127
35232,note_off,158,0,0,,11,,,70,127
35234,note_on,2,0,0,,11,,,70,127
35392,note_off,158,0,0,,11,,,70,127
35392,note_off,0,0,0,,10,,,57,127
35394,note_on,2,0,0,,7,,,55,127
35394,note_on,0,0,0,,0,,,72,127
35446,note_off,52,0,0,,0,,,72,127
35448,note_on,2,0,0,,11,,,70,127
35500,note_off,52,0,0,,11,,,70,127
35502,note_on,2,0,0,,0,,,72,127
35554,note_off,52,0,0,,0,,,72,127
35556,note_on,2,0,0,,11,,,70,127
35714,note_off,158,0,0,,7,,,55,127
35716,note_on,2,0,0,,5,,,53,127
36034,note_off,318,0,0,,5,,,53,127
36034,note_off,0,0,0,,7,,,67,127
36036,note_on,2,0,0,,4,,,52,127
36354,note_off,318,0,0,,4,,,52,127
36354,note_off,0,0,0,,11,,,70,127
36356,note_on,2,0,0,,2,,,50,127
36356,note_on,0,0,0,,5,,,65,127
36356,note_on,0,0,0,,0,,,72,127
36436,note_off,80,0,0,,0,,,72,127
36436,note_on,0,0,0,,12,,,71,127
36516,note_off,80,0,0,,12,,,71,127
36516,note_on,0,0,0,,0,,,72,127
36596,note_off,80,0,0,,0,,,72,127
36596,note_on,0,0,0,,12,,,71,127
36674,note_off,78,0,0,,5,,,65,127
36674,note_off,0,0,0,,2,,,50,127
36676,note_off,2,0,0,,12,,,71,127
36676,note_on,0,0,0,,0,,,48,127
36676,note_on,0,0,0,,0,,,60,127
36676,note_on,0,0,0,,4,,,64,127
36676,note_on,0,0,0,,0,,,72,127
36994,note_off,318,0,0,,0,,,60,127
36996,note_on,2,0,0,,11,,,58,127
37154,note_off,158,0,0,,0,,,72,127
37156,note_on,2,0,0,,0,,,72,127
37314,note_off,158,0,0,,0,,,72,127
37314,note_off,0,0,0,,11,,,58,127
37314,note_off,0,0,0,,4,,,64,127
37316,note_on,2,0,0,,10,,,57,127
37316,note_on,0,0,0,,5,,,65,127
37316,note_on,0,0,0,,0,,,72,127
37634,note_off,318,0,0,,5,,,65,127
37634,note_off,0,0,0,,10,,,57,127
37636,note_on,2,0,0,,7,,,55,127
37636,note_on,0,0,0,,7,,,67,127
37954,note_off,318,0,0,,7,,,67,127
37954,note_off,0,0,0,,7,,,55,127
37954,note_off,0,0,0,,0,,,48,127
37956,note_on,2,0,0,,5,,,53,127
37956,note_on,0,0,0,,10,,,69,127
38274,note_off,318,0,0,,0,,,72,127
38276,note_on,2,0,0,,10,,,45,127
38276,note_on,0,0,0,,5,,,77,127
38594,note_off,318,0,0,,5,,,77,127
38594,note_off,0,0,0,,10,,,45,127
38594,note_off,0,0,0,,10,,,69,127
38594,note_off,0,0,0,,5,,,53,127
38596,note_on,2,0,0,,11,,,46,127
38596,note_on,0,0,0,,4,,,76,127
38754,note_off,158,0,0,,4,,,76,127
38756,note_on,2,0,0,,2,,,74,127
38914,note_off,158,0,0,,2,,,74,127
38914,note_off,0,0,0,,11,,,46,127
38916,note_on,2,0,0,,2,,,50,127
38916,note_on,0,0,0,,0,,,72,127
39074,note_off,158,0,0,,0,,,72,127
39076,note_on,2,0,0,,11,,,70,127
39234,note_off,158,0,0,,11,,,70,127
39234,note_off,0,0,0,,2,,,50,127
39236,note_on,2,0,0,,0,,,48,127
39236,note_on,0,0,0,,10,,,69,127
39394,note_off,158,0,0,,10,,,69,127
39396,note_on,2,0,0,,7,,,67,127
39554,note_off,158,0,0,,7,,,67,127
39556,note_on,2,0,0,,5,,,65,127
39714,note_off,158,0,0,,5,,,65,127
39716,note_on,2,0,0,,7,,,67,127
39874,note_off,158,0,0,,7,,,67,127
39876,note_on,2,0,0,,0,,,36,127
39876,note_on,0,0,0,,10,,,69,127
39954,note_off,78,0,0,,10,,,69,127
39956,note_on,2,0,0,,7,,,67,127
40034,note_off,78,0,0,,7,,,67,127
40036,note_on,2,0,0,,10,,,69,127
40114,note_off,78,0,0,,10,,,69,127
40116,note_on,2,0,0,,7,,,67,127
40194,note_off,78,0,0,,7,,,67,127
40196,note_on,2,0,0,,10,,,69,127
40274,note_off,78,0,0,,10,,,69,127
40276,note_on,2,0,0,,7,,,67,127
40354,note_off,78,0,0,,7,,,67,127
40356,note_on,2,0,0,,5,,,65,127
40434,note_off,78,0,0,,5,,,65,127
40436,note_on,2,0,0,,7,,,67,127
40514,note_off,78,0,0,,7,,,67,127
40514,note_off,0,0,0,,0,,,36,127
40514,note_off,0,0,0,,0,,,48,127
40516,note_on,2,0,0,,5,,,41,127
40516,note_on,0,0,0,,5,,,65,127
42116,note_off,1600,0,0,,5,,,65,127
42116,note_off,0,0,0,,5,,,41,127
42436,note_on,320,0,0,,2,,,74,127
42488,note_off,52,0,0,,2,,,74,127
42490,note_on,2,0,0,,0,,,72,127
42542,note_off,52,0,0,,0,,,72,127
42544,note_on,2,0,0,,2,,,74,127
42596,note_off,52,0,0,,2,,,74,127
42598,note_on,2,0,0,,0,,,72,127
42916,note_off,318,0,0,,0,,,72,127
42918,note_on,2,0,0,,0,,,72,127
43076,note_off,158,0,0,,0,,,72,127
43078,note_on,2,0,0,,2,,,74,127
43130,note_off,52,0,0,,2,,,74,127
43132,note_on,2,0,0,,0,,,72,127
43184,note_off,52,0,0,,0,,,72,127
43186,note_on,2,0,0,,2,,,74,127
43238,note_off,52,0,0,,2,,,74,127
43240,note_on,2,0,0,,0,,,72,127
43400,note_on,160,0,0,,11,,,70,127
43718,note_off,318,0,0,,11,,,70,127
43720,note_on,2,0,0,,10,,,69,127
44038,note_off,318,0,0,,10,,,69,127
44038,note_off,0,0,0,,0,,,72,127
44040,note_on,2,0,0,,7,,,67,127
44040,note_on,0,0,0,,11,,,70,127
44040,note_on,0,0,0,,1,,,73,127
44358,note_off,318,0,0,,1,,,73,127
44358,note_off,0,0,0,,11,,,70,127
44358,note_off,0,0,0,,7,,,67,127
44360,note_on,2,0,0,,6,,,66,127
44360,note_on,0,0,0,,10,,,69,127
44360,note_on,0,0,0,,2,,,74,127
44678,note_off,318,0,0,,6,,,66,127
44680,note_on,2,0,0,,4,,,64,127
44998,note_off,318,0,0,,4,,,64,127
45000,note_on,2,0,0,,2,,,62,127
45318,note_off,318,0,0,,2,,,62,127
45318,note_off,0,0,0,,2,,,74,127
45318,note_off,0,0,0,,10,,,69,127
45320,note_on,2,0,0,,0,,,60,127
45320,note_on,0,0,0,,3,,,75,127
45638,note_off,318,0,0,,3,,,75,127
45638,note_off,0,0,0,,0,,,60,127
45640,note_on,2,0,0,,12,,,59,127
45640,note_on,0,0,0,,2,,,74,127
45958,note_off,318,0,0,,12,,,59,127
45960,note_on,2,0,0,,8,,,56,127
46040,note_off,80,0,0,,2,,,74,127
46040,note_on,0,0,0,,0,,,72,127
46118,note_off,78,0,0,,0,,,72,127
46120,note_on,2,0,0,,12,,,71,127
46198,note_off,78,0,0,,12,,,71,127
46200,note_on,2,0,0,,0,,,72,127
46278,note_off,78,0,0,,0,,,72,127
46278,note_off,0,0,0,,8,,,56,127
46280,note_on,2,0,0,,7,,,55,127
46280,note_on,0,0,0,,0,,,72,127
46600,note_on,320,0,0,,8,,,68,127
46918,note_off,318,0,0,,8,,,68,127
46918,note_off,0,0,0,,0,,,72,127
46920,note_on,2,0,0,,7,,,67,127
46920,note_on,0,0,0,,12,,,71,127
47238,note_off,318,0,0,,12,,,71,127
47238,note_off,0,0,0,,7,,,67,127
47240,note_on,2,0,0,,5,,,65,127
47240,note_on,0,0,0,,8,,,80,127
47558,note_off,318,0,0,,8,,,80,127
47558,note_off,0,0,0,,5,,,65,127
47558,note_off,0,0,0,,7,,,55,127
47560,note_on,2,0,0,,4,,,64,127
47560,note_on,0,0,0,,7,,,79,127
47878,note_off,318,0,0,,4,,,64,127
47880,note_on,2,0,0,,1,,,61,127
47960,note_off,80,0,0,,7,,,79,127
47960,note_on,0,0,0,,5,,,77,127
48038,note_off,78,0,0,,5,,,77,127
48040,note_on,2,0,0,,4,,,76,127
48118,note_off,78,0,0,,4,,,76,127
48120,note_on,2,0,0,,5,,,77,127
48198,note_off,78,0,0,,5,,,77,127
48198,note_off,0,0,0,,1,,,61,127
48200,note_on,2,0,0,,0,,,60,127
48200,note_on,0,0,0,,5,,,77,127
48520,note_on,320,0,0,,1,,,73,127
48838,note_off,318,0,0,,1,,,73,127
48838,note_off,0,0,0,,5,,,77,127
48840,note_on,2,0,0,,0,,,72,127
48840,note_on,0,0,0,,4,,,76,127
49158,note_off,318,0,0,,4,,,76,127
49158,note_off,0,0,0,,0,,,72,127
49160,note_on,2,0,0,,11,,,70,127
49160,note_on,0,0,0,,1,,,85,127
49478,note_off,318,0,0,,1,,,85,127
49478,note_off,0,0,0,,11,,,70,127
49478,note_off,0,0,0,,0,,,60,127
49480,note_on,2,0,0,,10,,,69,127
49480,note_on,0,0,0,,0,,,84,127
49798,note_off,318,0,0,,10,,,69,127
49800,note_on,2,0,0,,6,,,66,127
49880,note_off,80,0,0,,0,,,84,127
49880,note_on,0,0,0,,11,,,82,127
49958,note_off,78,0,0,,11,,,82,127
49960,note_on,2,0,0,,10,,,81,127
50038,note_off,78,0,0,,10,,,81,127
50040,note_on,2,0,0,,11,,,82,127
50118,note_off,78,0,0,,11,,,82,127
50118,note_off,0,0,0,,6,,,66,127
50120,note_on,2,0,0,,5,,,65,127
50120,note_on,0,0,0,,11,,,82,127
50440,note_on,320,0,0,,6,,,78,127
50758,note_off,318,0,0,,6,,,78,127
50758,note_off,0,0,0,,11,,,82,127
50760,note_on,2,0,0,,5,,,77,127
50760,note_on,0,0,0,,10,,,81,127
51078,note_off,318,0,0,,10,,,81,127
51078,note_off,0,0,0,,5,,,77,127
51080,note_on,2,0,0,,3,,,75,127
51080,note_on,0,0,0,,10,,,81,127
51398,note_off,318,0,0,,10,,,81,127
51398,note_off,0,0,0,,3,,,75,127
51398,note_off,0,0,0,,5,,,65,127
51400,note_on,2,0,0,,1,,,73,127
51400,note_on,0,0,0,,11,,,82,127
51718,note_off,318,0,0,,11,,,82,127
51718,note_off,0,0,0,,1,,,73,127
51720,note_on,2,0,0,,11,,,70,127
51720,note_on,0,0,0,,8,,,80,127
52038,note_off,318,0,0,,8,,,80,127
52038,note_off,0,0,0,,11,,,70,127
52040,note_on,2,0,0,,3,,,75,127
52040,note_on,0,0,0,,6,,,78,127
52130,note_on,90,0,0,,8,,,80,127
52140,note_off,10,0,0,,6,,,78,127
52220,note_on,80,0,0,,6,,,78,127
52230,note_off,10,0,0,,8,,,80,127
52353,note_off,123,0,0,,6,,,78,127
52358,note_off,5,0,0,,3,,,75,127
52360,note_on,2,0,0,,1,,,73,127
52360,note_on,0,0,0,,5,,,77,127
52360,note_on,0,0,0,,11,,,82,127
52678,note_off,318,0,0,,5,,,77,127
52678,note_off,0,0,0,,1,,,73,127
52680,note_on,2,0,0,,12,,,71,127
52680,note_on,0,0,0,,3,,,75,127
52998,note_off,318,0,0,,11,,,82,127
53000,note_on,2,0,0,,8,,,80,127
53318,note_off,318,0,0,,8,,,80,127
53318,note_off,0,0,0,,12,,,71,127
53320,note_on,2,0,0,,11,,,70,127
53320,note_on,0,0,0,,6,,,78,127
53638,note_off,318,0,0,,11,,,70,127
53638,note_off,0,0,0,,3,,,75,127
53640,note_on,2,0,0,,8,,,68,127
53640,note_on,0,0,0,,2,,,74,127
53715,note_on,75,0,0,,5,,,77,127
53718,note_off,3,0,0,,6,,,78,127
53798,note_off,80,0,0,,5,,,77,127
53800,note_on,2,0,0,,3,,,75,127
53883,note_off,83,0,0,,3,,,75,127
53885,note_on,2,0,0,,5,,,77,127
53958,note_off,73,0,0,,2,,,74,127
53958,note_off,0,0,0,,8,,,68,127
53960,note_on,2,0,0,,6,,,66,127
53960,note_on,0,0,0,,3,,,75,127
53968,note_off,8,0,0,,5,,,77,127
54278,note_off,310,0,0,,3,,,75,127
54278,note_off,0,0,0,,6,,,66,127
54280,note_on,2,0,0,,5,,,65,127
54280,note_on,0,0,0,,5,,,77,127
54598,note_off,318,0,0,,5,,,77,127
54598,note_off,0,0,0,,5,,,65,127
54600,note_on,2,0,0,,3,,,63,127
54600,note_on,0,0,0,,6,,,78,127
54918,note_off,318,0,0,,6,,,78,127
54918,note_off,0,0,0,,3,,,63,127
54920,note_on,2,0,0,,1,,,61,127
54920,note_on,0,0,0,,11,,,70,127
55238,note_off,318,0,0,,11,,,70,127
55238,note_off,0,0,0,,1,,,61,127
55240,note_on,2,0,0,,0,,,60,127
55240,note_on,0,0,0,,3,,,63,127
55240,note_on,0,0,0,,10,,,69,127
55558,note_off,318,0,0,,10,,,69,127
55558,note_off,0,0,0,,3,,,63,127
55558,note_off,0,0,0,,0,,,60,127
55560,note_on,2,0,0,,1,,,61,127
55560,note_on,0,0,0,,11,,,58,127
55560,note_on,0,0,0,,0,,,72,127
55638,note_off,78,0,0,,0,,,72,127
55640,note_on,2,0,0,,11,,,70,127
55718,note_off,78,0,0,,11,,,70,127
55720,note_on,2,0,0,,10,,,69,127
55798,note_off,78,0,0,,10,,,69,127
55800,note_on,2,0,0,,11,,,70,127
55878,note_off,78,0,0,,11,,,70,127
55878,note_off,0,0,0,,11,,,58,127
55878,note_off,0,0,0,,1,,,61,127
55880,note_on,2,0,0,,0,,,60,127
55880,note_on,0,0,0,,10,,,57,127
55880,note_on,0,0,0,,0,,,72,127
56198,note_off,318,0,0,,0,,,72,127
56198,note_off,0,0,0,,10,,,57,127
56198,note_off,0,0,0,,0,,,60,127
56200,note_on,2,0,0,,11,,,58,127
56200,note_on,0,0,0,,1,,,61,127
56200,note_on,0,0,0,,1,,,73,127
56518,note_off,318,0,0,,1,,,73,127
56518,note_off,0,0,0,,1,,,61,127
56518,note_off,0,0,0,,11,,,58,127
56520,note_on,2,0,0,,11,,,58,127
56520,note_on,0,0,0,,3,,,63,127
56520,note_on,0,0,0,,6,,,54,127
56520,note_on,0,0,0,,5,,,77,127
56572,note_off,52,0,0,,5,,,77,127
56574,note_on,2,0,0,,3,,,75,127
56626,note_off,52,0,0,,3,,,75,127
56628,note_on,2,0,0,,5,,,77,127
56680,note_off,52,0,0,,5,,,77,127
56682,note_on,2,0,0,,3,,,75,127
56840,note_off,158,0,0,,3,,,75,127
56842,note_on,2,0,0,,1,,,73,127
57160,note_off,318,0,0,,1,,,73,127
57160,note_off,0,0,0,,6,,,54,127
57160,note_off,0,0,0,,3,,,63,127
57160,note_off,0,0,0,,11,,,58,127
57162,note_on,2,0,0,,4,,,64,127
57162,note_on,0,0,0,,6,,,54,127
57162,note_on,0,0,0,,11,,,58,127
57162,note_on,0,0,0,,0,,,60,127
57162,note_on,0,0,0,,1,,,73,127
57214,note_off,52,0,0,,1,,,73,127
57216,note_on,2,0,0,,0,,,72,127
57268,note_off,52,0,0,,0,,,72,127
57270,note_on,2,0,0,,1,,,73,127
57322,note_off,52,0,0,,1,,,73,127
57324,note_on,2,0,0,,0,,,72,127
57482,note_off,158,0,0,,0,,,72,127
57484,note_on,2,0,0,,11,,,70,127
57802,note_off,318,0,0,,11,,,70,127
57802,note_off,0,0,0,,0,,,60,127
57802,note_off,0,0,0,,11,,,58,127
57802,note_off,0,0,0,,6,,,54,127
57802,note_off,0,0,0,,4,,,64,127
57804,note_on,2,0,0,,0,,,60,127
57804,note_on,0,0,0,,5,,,53,127
57804,note_on,0,0,0,,5,,,65,127
57804,note_on,0,0,0,,0,,,72,127
57882,note_off,78,0,0,,0,,,72,127
57884,note_on,2,0,0,,11,,,70,127
57962,note_off,78,0,0,,11,,,70,127
57964,note_on,2,0,0,,0,,,72,127
58042,note_off,78,0,0,,0,,,72,127
58044,note_on,2,0,0,,11,,,70,127
58122,note_off,78,0,0,,11,,,70,127
58124,note_on,2,0,0,,0,,,72,127
58202,note_off,78,0,0,,0,,,72,127
58204,note_on,2,0,0,,11,,,70,127
58282,note_off,78,0,0,,11,,,70,127
58284,note_on,2,0,0,,0,,,72,127
58362,note_off,78,0,0,,0,,,72,127
58364,note_on,2,0,0,,11,,,70,127
58442,note_off,78,0,0,,11,,,70,127
58444,note_on,2,0,0,,10,,,69,127
58602,note_off,158,0,0,,10,,,69,127
58604,note_on,2,0,0,,11,,,70,127
58762,note_off,158,0,0,,11,,,70,127
58764,note_on,2,0,0,,0,,,72,127
58922,note_off,158,0,0,,0,,,72,127
58924,note_on,2,0,0,,2,,,74,127
59082,note_off,158,0,0,,2,,,74,127
59084,note_on,2,0,0,,4,,,76,127
59242,note_off,158,0,0,,4,,,76,127
59244,note_on,2,0,0,,5,,,77,127
59402,note_off,158,0,0,,5,,,77,127
59404,note_on,2,0,0,,4,,,76,127
59562,note_off,158,0,0,,4,,,76,127
59564,note_on,2,0,0,,5,,,77,127
60137,note_off,573,0,0,,0,,,60,127
60197,note_off,60,0,0,,5,,,77,127
60364,note_off,167,0,0,,5,,,53,127
60637,note_off,273,0,0,,5,,,65,127
61644,note_on,1007,0,0,,0,,,72,127
61696,note_off,52,0,0,,0,,,72,127
61698,note_on,2,0,0,,11,,,70,127
61750,note_off,52,0,0,,11,,,70,127
61752,note_on,2,0,0,,0,,,72,127
61804,note_off,52,0,0,,0,,,72,127
61806,note_on,2,0,0,,11,,,70,127
62124,note_off,318,0,0,,11,,,70,127
62126,note_on,2,0,0,,11,,,70,127
62284,note_off,158,0,0,,11,,,70,127
62286,note_on,2,0,0,,0,,,72,127
62338,note_off,52,0,0,,0,,,72,127
62340,note_on,2,0,0,,11,,,70,127
62392,note_off,52,0,0,,11,,,70,127
62394,note_on,2,0,0,,0,,,72,127
62446,note_off,52,0,0,,0,,,72,127
62448,note_on,2,0,0,,11,,,70,127
62608,note_on,160,0,0,,10,,,69,127
62926,note_off,318,0,0,,10,,,69,127
62928,note_on,2,0,0,,7,,,67,127
63246,note_off,318,0,0,,7,,,67,127
63246,note_off,0,0,0,,11,,,70,127
63248,note_on,2,0,0,,5,,,65,127
63248,note_on,0,0,0,,12,,,71,127
63566,note_off,318,0,0,,12,,,71,127
63566,note_off,0,0,0,,5,,,65,127
63568,note_on,2,0,0,,3,,,63,127
63568,note_on,0,0,0,,0,,,72,127
63568,note_on,0,0,0,,5,,,77,127
63616,note_off,48,0,0,,5,,,77,127
63621,note_on,5,0,0,,3,,,75,127
63673,note_off,52,0,0,,3,,,75,127
63675,note_on,2,0,0,,5,,,77,127
63727,note_off,52,0,0,,5,,,77,127
63729,note_on,2,0,0,,3,,,75,127
63887,note_off,158,0,0,,3,,,63,127
63889,note_on,2,0,0,,2,,,62,127
64047,note_off,158,0,0,,3,,,75,127
64049,note_on,2,0,0,,3,,,75,127
64207,note_off,158,0,0,,3,,,75,127
64207,note_off,0,0,0,,2,,,62,127
64209,note_on,2,0,0,,0,,,60,127
64209,note_on,0,0,0,,5,,,77,127
64261,note_off,52,0,0,,5,,,77,127
64263,note_on,2,0,0,,3,,,75,127
64315,note_off,52,0,0,,3,,,75,127
64317,note_on,2,0,0,,5,,,77,127
64369,note_off,52,0,0,,5,,,77,127
64371,note_on,2,0,0,,3,,,75,127
64529,note_off,158,0,0,,0,,,60,127
64531,note_on,2,0,0,,11,,,58,127
64849,note_off,318,0,0,,11,,,58,127
64851,note_on,2,0,0,,10,,,57,127
65169,note_off,318,0,0,,10,,,57,127
65169,note_off,0,0,0,,3,,,75,127
65171,note_off,2,0,0,,0,,,72,127
65171,note_on,0,0,0,,7,,,55,127
65171,note_on,0,0,0,,11,,,70,127
65171,note_on,0,0,0,,4,,,76,127
65489,note_off,318,0,0,,4,,,76,127
65489,note_off,0,0,0,,11,,,70,127
65489,note_off,0,0,0,,7,,,55,127
65491,note_on,2,0,0,,5,,,53,127
65491,note_on,0,0,0,,5,,,65,127
65491,note_on,0,0,0,,5,,,77,127
65491,note_on,0,0,0,,10,,,69,127
65809,note_off,318,0,0,,5,,,65,127
65811,note_on,2,0,0,,3,,,63,127
65969,note_off,158,0,0,,5,,,77,127
65971,note_on,2,0,0,,5,,,77,127
66129,note_off,158,0,0,,5,,,77,127
66129,note_off,0,0,0,,3,,,63,127
66129,note_off,0,0,0,,10,,,69,127
66131,note_on,2,0,0,,2,,,62,127
66131,note_on,0,0,0,,5,,,77,127
66131,note_on,0,0,0,,11,,,70,127
66449,note_off,318,0,0,,11,,,70,127
66449,note_off,0,0,0,,2,,,62,127
66451,note_on,2,0,0,,0,,,60,127
66451,note_on,0,0,0,,0,,,72,127
66769,note_off,318,0,0,,0,,,72,127
66769,note_off,0,0,0,,0,,,60,127
66769,note_off,0,0,0,,5,,,53,127
66771,note_on,2,0,0,,11,,,58,127
66771,note_on,0,0,0,,2,,,74,127
67071,note_off,300,0,0,,5,,,77,127
67091,note_on,20,0,0,,2,,,50,127
67091,note_on,0,0,0,,11,,,82,127
67409,note_off,318,0,0,,11,,,82,127
67409,note_off,0,0,0,,2,,,50,127
67409,note_off,0,0,0,,2,,,74,127
67409,note_off,0,0,0,,11,,,58,127
67411,note_on,2,0,0,,3,,,51,127
67411,note_on,0,0,0,,10,,,81,127
67569,note_off,158,0,0,,10,,,81,127
67571,note_on,2,0,0,,7,,,79,127
67729,note_off,158,0,0,,7,,,79,127
67731,note_on,2,0,0,,5,,,77,127
67889,note_off,158,0,0,,5,,,77,127
67891,note_on,2,0,0,,3,,,75,127
68049,note_off,158,0,0,,3,,,75,127
68049,note_off,0,0,0,,3,,,51,127
68051,note_on,2,0,0,,5,,,53,127
68051,note_on,0,0,0,,3,,,75,127
68209,note_off,158,0,0,,3,,,75,127
68211,note_on,2,0,0,,2,,,74,127
68369,note_off,158,0,0,,2,,,74,127
68371,note_on,2,0,0,,0,,,72,127
68529,note_off,158,0,0,,0,,,72,127
68531,note_on,2,0,0,,11,,,70,127
68689,note_off,158,0,0,,11,,,70,127
68691,note_on,2,0,0,,5,,,41,127
68691,note_on,0,0,0,,2,,,74,127
68769,note_off,78,0,0,,2,,,74,127
68771,note_on,2,0,0,,0,,,72,127
68849,note_off,78,0,0,,0,,,72,127
68851,note_on,2,0,0,,2,,,74,127
68929,note_off,78,0,0,,2,,,74,127
68931,note_on,2,0,0,,0,,,72,127
69009,note_off,78,0,0,,0,,,72,127
69011,note_on,2,0,0,,2,,,74,127
69089,note_off,78,0,0,,2,,,74,127
69091,note_on,2,0,0,,0,,,72,127
69169,note_off,78,0,0,,0,,,72,127
69171,note_on,2,0,0,,11,,,70,127
69249,note_off,78,0,0,,11,,,70,127
69251,note_on,2,0,0,,0,,,72,127
69301,note_off,50,0,0,,5,,,53,127
69308,note_off,7,0,0,,5,,,41,127
69331,note_on,23,0,0,,11,,,46,127
69381,note_off,50,0,0,,0,,,72,127
69384,note_on,3,0,0,,11,,,70,127
69436,note_off,52,0,0,,11,,,70,127
69438,note_on,2,0,0,,0,,,72,127
69490,note_off,52,0,0,,0,,,72,127
69492,note_on,2,0,0,,11,,,70,127
69810,note_off,318,0,0,,11,,,70,127
69812,note_on,2,0,0,,11,,,70,127
69970,note_off,158,0,0,,11,,,70,127
69972,note_on,2,0,0,,0,,,72,127
70024,note_off,52,0,0,,0,,,72,127
70026,note_on,2,0,0,,11,,,70,127
70078,note_off,52,0,0,,11,,,70,127
70080,note_on,2,0,0,,0,,,72,127
70132,note_off,52,0,0,,0,,,72,127
70134,note_on,2,0,0,,11,,,70,127
70292,note_off,158,0,0,,11,,,46,127
70294,note_on,2,0,0,,10,,,69,127
70612,note_off,318,0,0,,10,,,69,127
70614,note_on,2,0,0,,7,,,67,127
70932,note_off,318,0,0,,7,,,67,127
70932,note_off,0,0,0,,11,,,70,127
70934,note_on,2,0,0,,5,,,65,127
70934,note_on,0,0,0,,12,,,71,127
71252,note_off,318,0,0,,12,,,71,127
71252,note_off,0,0,0,,5,,,65,127
71254,note_on,2,0,0,,3,,,63,127
71254,note_on,0,0,0,,0,,,72,127
71254,note_on,0,0,0,,5,,,77,127
71307,note_off,53,0,0,,5,,,77,127
71307,note_on,0,0,0,,3,,,75,127
71359,note_off,52,0,0,,3,,,75,127
71361,note_on,2,0,0,,5,,,77,127
71413,note_off,52,0,0,,5,,,77,127
71415,note_on,2,0,0,,3,,,75,127
71573,note_off,158,0,0,,3,,,63,127
71575,note_on,2,0,0,,2,,,62,127
71733,note_off,158,0,0,,3,,,75,127
71735,note_on,2,0,0,,3,,,75,127
71893,note_off,158,0,0,,3,,,75,127
71893,note_off,0,0,0,,2,,,62,127
71895,note_on,2,0,0,,0,,,60,127
71895,note_on,0,0,0,,5,,,77,127
71947,note_off,52,0,0,,5,,,77,127
71949,note_on,2,0,0,,3,,,75,127
72001,note_off,52,0,0,,3,,,75,127
72003,note_on,2,0,0,,5,,,77,127
72055,note_off,52,0,0,,5,,,77,127
72057,note_on,2,0,0,,3,,,75,127
72215,note_off,158,0,0,,0,,,60,127
72217,note_on,2,0,0,,11,,,58,127
72535,note_off,318,0,0,,11,,,58,127
72537,note_on,2,0,0,,10,,,57,127
72855,note_off,318,0,0,,10,,,57,127
72855,note_off,0,0,0,,3,,,75,127
72857,note_off,2,0,0,,0,,,72,127
72857,note_on,0,0,0,,7,,,55,127
72857,note_on,0,0,0,,11,,,70,127
72857,note_on,0,0,0,,5,,,77,127
72935,note_off,78,0,0,,5,,,77,127
72937,note_on,2,0,0,,4,,,76,127
73015,note_off,78,0,0,,4,,,76,127
73017,note_on,2,0,0,,5,,,77,127
73095,note_off,78,0,0,,5,,,77,127
73097,note_on,2,0,0,,4,,,76,127
73175,note_off,78,0,0,,4,,,76,127
73175,note_off,0,0,0,,11,,,70,127
73175,note_off,0,0,0,,7,,,55,127
73177,note_on,2,0,0,,5,,,53,127
73177,note_on,0,0,0,,5,,,65,127
73177,note_on,0,0,0,,10,,,69,127
73177,note_on,0,0,0,,5,,,77,127
73495,note_off,318,0,0,,5,,,65,127
73497,note_on,2,0,0,,3,,,63,127
73655,note_off,158,0,0,,5,,,77,127
73657,note_on,2,0,0,,5,,,77,127
73815,note_off,158,0,0,,5,,,77,127
73815,note_off,0,0,0,,3,,,63,127
73815,note_off,0,0,0,,10,,,69,127
73817,note_on,2,0,0,,2,,,62,127
73817,note_on,0,0,0,,11,,,70,127
73817,note_on,0,0,0,,5,,,77,127
74135,note_off,318,0,0,,11,,,70,127
74135,note_off,0,0,0,,2,,,62,127
74137,note_on,2,0,0,,0,,,60,127
74137,note_on,0,0,0,,0,,,72,127
74455,note_off,318,0,0,,0,,,72,127
74455,note_off,0,0,0,,0,,,60,127
74457,note_on,2,0,0,,11,,,58,127
74457,note_on,0,0,0,,2,,,74,127
74710,note_off,253,0,0,,5,,,53,127
74777,note_on,67,0,0,,2,,,50,127
74777,note_on,0,0,0,,11,,,82,127
75095,note_off,318,0,0,,11,,,82,127
75095,note_off,0,0,0,,2,,,50,127
75095,note_off,0,0,0,,2,,,74,127
75095,note_off,0,0,0,,11,,,58,127
75095,note_off,0,0,0,,5,,,77,127
75097,note_on,2,0,0,,3,,,51,127
75097,note_on,0,0,0,,10,,,81,127
75255,note_off,158,0,0,,10,,,81,127
75257,note_on,2,0,0,,7,,,79,127
75415,note_off,158,0,0,,7,,,79,127
75417,note_on,2,0,0,,5,,,77,127
75575,note_off,158,0,0,,5,,,77,127
75577,note_on,2,0,0,,3,,,75,127
75735,note_off,158,0,0,,3,,,75,127
75735,note_off,0,0,0,,3,,,51,127
75737,note_on,2,0,0,,5,,,53,127
75737,note_on,0,0,0,,2,,,74,127
75895,note_off,158,0,0,,2,,,74,127
75897,note_on,2,0,0,,0,,,72,127
76055,note_off,158,0,0,,0,,,72,127
76057,note_on,2,0,0,,11,,,70,127
76215,note_off,158,0,0,,11,,,70,127
76217,note_on,2,0,0,,0,,,72,127
76375,note_off,158,0,0,,0,,,72,127
76377,note_on,2,0,0,,5,,,41,127
76377,note_on,0,0,0,,2,,,74,127
76455,note_off,78,0,0,,2,,,74,127
76457,note_on,2,0,0,,0,,,72,127
76535,note_off,78,0,0,,0,,,72,127
76537,note_on,2,0,0,,2,,,74,127
76615,note_off,78,0,0,,2,,,74,127
76617,note_on,2,0,0,,0,,,72,127
76695,note_off,78,0,0,,0,,,72,127
76697,note_on,2,0,0,,2,,,74,127
76775,note_off,78,0,0,,2,,,74,127
76777,note_on,2,0,0,,0,,,72,127
76855,note_off,78,0,0,,0,,,72,127
76857,note_on,2,0,0,,11,,,70,127
76935,note_off,78,0,0,,11,,,70,127
76937,note_on,2,0,0,,0,,,72,127
77015,note_off,78,0,0,,0,,,72,127
77015,note_off,0,0,0,,5,,,41,127
77015,note_off,0,0,0,,5,,,53,127
77030,note_on,15,0,0,,11,,,46,127
77030,note_on,0,0,0,,11,,,70,127
79257,note_off,2227,0,0,,11,,,70,127
79257,note_off,0,0,0,,11,,,46,127
81408,end_of_track,2151,1,0,,,,,,
