tick,type,time,meta,track,program,channel,pitch,tempo,note,velocity
0,copyright,0,1,0,,,,,,
0,program_change,0,0,0,6,0,,,,
0,pitchwheel,0,0,0,,0,0,,,
0,program_change,0,0,0,6,1,,,,
0,pitchwheel,0,0,0,,1,-590,,,
0,program_change,0,0,0,6,2,,,,
0,pitchwheel,0,0,0,,2,-272,,,
0,program_change,0,0,0,6,3,,,,
0,pitchwheel,0,0,0,,3,-353,,,
0,program_change,0,0,0,6,4,,,,
0,pitchwheel,0,0,0,,4,-560,,,
0,program_change,0,0,0,6,5,,,,
0,pitchwheel,0,0,0,,5,-80,,,
0,program_change,0,0,0,6,6,,,,
0,pitchwheel,0,0,0,,6,-625,,,
0,program_change,0,0,0,6,7,,,,
0,pitchwheel,0,0,0,,7,-130,,,
0,program_change,0,0,0,6,8,,,,
0,pitchwheel,0,0,0,,8,-512,,,
0,program_change,0,0,0,6,10,,,,
0,pitchwheel,0,0,0,,10,-464,,,
0,program_change,0,0,0,6,11,,,,
0,pitchwheel,0,0,0,,11,-208,,,
0,program_change,0,0,0,6,12,,,,
0,pitchwheel,0,0,0,,12,-553,,,
0,set_tempo,0,1,0,,,,500000,,
113,note_on,113,0,0,,11,,,70,127
225,note_off,112,0,0,,11,,,70,127
226,note_on,1,0,0,,2,,,74,127
338,note_off,112,0,0,,2,,,74,127
339,note_on,1,0,0,,0,,,72,127
451,note_off,112,0,0,,0,,,72,127
452,note_on,1,0,0,,3,,,75,127
564,note_off,112,0,0,,3,,,75,127
565,note_on,1,0,0,,2,,,74,127
677,note_off,112,0,0,,2,,,74,127
678,note_on,1,0,0,,5,,,77,127
790,note_off,112,0,0,,5,,,77,127
791,note_on,1,0,0,,3,,,75,127
903,note_off,112,0,0,,3,,,75,127
904,note_on,1,0,0,,7,,,79,127
1016,note_off,112,0,0,,7,,,79,127
1017,note_on,1,0,0,,5,,,77,127
1129,note_off,112,0,0,,5,,,77,127
1130,note_on,1,0,0,,11,,,82,127
1242,note_off,112,0,0,,11,,,82,127
1243,note_on,1,0,0,,2,,,74,127
1355,note_off,112,0,0,,2,,,74,127
1356,note_on,1,0,0,,5,,,77,127
1468,note_off,112,0,0,,5,,,77,127
1469,note_on,1,0,0,,3,,,75,127
1581,note_off,112,0,0,,3,,,75,127
1582,note_on,1,0,0,,7,,,79,127
1694,note_off,112,0,0,,7,,,79,127
1695,note_on,1,0,0,,10,,,69,127
1807,note_off,112,0,0,,10,,,69,127
1808,note_on,1,0,0,,0,,,72,127
1920,note_off,112,0,0,,0,,,72,127
1921,note_on,1,0,0,,11,,,70,127
2033,note_off,112,0,0,,11,,,70,127
2034,note_on,1,0,0,,2,,,74,127
2146,note_off,112,0,0,,2,,,74,127
2147,note_on,1,0,0,,2,,,62,127
2259,note_off,112,0,0,,2,,,62,127
2260,note_on,1,0,0,,11,,,70,127
2372,note_off,112,0,0,,11,,,70,127
2373,note_on,1,0,0,,3,,,63,127
2485,note_off,112,0,0,,3,,,63,127
2486,note_on,1,0,0,,0,,,72,127
2598,note_off,112,0,0,,0,,,72,127
2599,note_on,1,0,0,,5,,,65,127
2711,note_off,112,0,0,,5,,,65,127
2712,note_on,1,0,0,,10,,,69,127
2824,note_off,112,0,0,,10,,,69,127
2825,note_on,1,0,0,,11,,,58,127
2825,note_on,0,0,0,,11,,,70,127
2937,note_off,112,0,0,,11,,,58,127
2938,note_on,1,0,0,,2,,,62,127
3050,note_off,112,0,0,,2,,,62,127
3051,note_on,1,0,0,,0,,,60,127
3163,note_off,112,0,0,,0,,,60,127
3164,note_on,1,0,0,,3,,,63,127
3276,note_off,112,0,0,,3,,,63,127
3277,note_on,1,0,0,,2,,,62,127
3389,note_off,112,0,0,,2,,,62,127
3390,note_on,1,0,0,,5,,,65,127
3502,note_off,112,0,0,,5,,,65,127
3503,note_on,1,0,0,,3,,,63,127
3615,note_off,112,0,0,,3,,,63,127
3616,note_on,1,0,0,,7,,,67,127
3728,note_off,112,0,0,,7,,,67,127
3728,note_off,0,0,0,,11,,,70,127
3729,note_on,1,0,0,,5,,,65,127
3841,note_off,112,0,0,,5,,,65,127
3842,note_on,1,0,0,,11,,,70,127
3954,note_off,112,0,0,,11,,,70,127
3955,note_on,1,0,0,,2,,,62,127
4067,note_off,112,0,0,,2,,,62,127
4068,note_on,1,0,0,,5,,,65,127
4180,note_off,112,0,0,,5,,,65,127
4181,note_on,1,0,0,,3,,,63,127
4293,note_off,112,0,0,,3,,,63,127
4294,note_on,1,0,0,,7,,,67,127
4406,note_off,112,0,0,,7,,,67,127
4407,note_on,1,0,0,,10,,,57,127
4519,note_off,112,0,0,,10,,,57,127
4520,note_on,1,0,0,,0,,,60,127
4632,note_off,112,0,0,,0,,,60,127
4633,note_on,1,0,0,,11,,,58,127
4745,note_off,112,0,0,,11,,,58,127
4746,note_on,1,0,0,,2,,,62,127
4858,note_off,112,0,0,,2,,,62,127
4859,note_on,1,0,0,,2,,,50,127
4971,note_off,112,0,0,,2,,,50,127
4972,note_on,1,0,0,,11,,,58,127
5084,note_off,112,0,0,,11,,,58,127
5085,note_on,1,0,0,,3,,,51,127
5197,note_off,112,0,0,,3,,,51,127
5198,note_on,1,0,0,,0,,,60,127
5310,note_off,112,0,0,,0,,,60,127
5311,note_on,1,0,0,,5,,,53,127
5423,note_off,112,0,0,,5,,,53,127
5424,note_on,1,0,0,,10,,,57,127
5536,note_off,112,0,0,,10,,,57,127
5537,note_on,1,0,0,,11,,,58,127
5650,note_on,113,0,0,,5,,,65,127
5762,note_off,112,0,0,,5,,,65,127
5763,note_on,1,0,0,,7,,,67,127
5875,note_off,112,0,0,,7,,,67,127
5876,note_on,1,0,0,,5,,,65,127
5988,note_off,112,0,0,,5,,,65,127
5989,note_on,1,0,0,,5,,,77,127
6055,note_off,66,0,0,,11,,,58,127
6102,note_on,47,0,0,,5,,,53,127
6214,note_off,112,0,0,,5,,,53,127
6215,note_on,1,0,0,,7,,,55,127
6327,note_off,112,0,0,,7,,,55,127
6328,note_on,1,0,0,,5,,,53,127
6440,note_off,112,0,0,,5,,,53,127
6441,note_on,1,0,0,,3,,,63,127
6553,note_off,112,0,0,,5,,,77,127
6554,note_on,1,0,0,,7,,,79,127
6666,note_off,112,0,0,,7,,,79,127
6667,note_on,1,0,0,,3,,,75,127
6779,note_off,112,0,0,,3,,,75,127
6780,note_on,1,0,0,,10,,,69,127
6892,note_off,112,0,0,,10,,,69,127
6892,note_off,0,0,0,,3,,,63,127
6893,note_on,1,0,0,,2,,,62,127
6893,note_on,0,0,0,,11,,,70,127
7005,note_off,112,0,0,,11,,,70,127
7006,note_on,1,0,0,,5,,,65,127
7118,note_off,112,0,0,,5,,,65,127
7118,note_off,0,0,0,,2,,,62,127
7119,note_on,1,0,0,,0,,,60,127
7119,note_on,0,0,0,,0,,,72,127
7231,note_off,112,0,0,,0,,,72,127
7232,note_on,1,0,0,,5,,,65,127
7344,note_off,112,0,0,,5,,,65,127
7344,note_off,0,0,0,,0,,,60,127
7345,note_on,1,0,0,,11,,,58,127
7345,note_on,0,0,0,,2,,,74,127
7457,note_off,112,0,0,,2,,,74,127
7458,note_on,1,0,0,,5,,,65,127
7570,note_off,112,0,0,,5,,,65,127
7571,note_on,1,0,0,,7,,,67,127
7683,note_off,112,0,0,,7,,,67,127
7684,note_on,1,0,0,,5,,,65,127
7796,note_off,112,0,0,,5,,,65,127
7797,note_on,1,0,0,,5,,,77,127
7863,note_off,66,0,0,,11,,,58,127
7910,note_on,47,0,0,,5,,,53,127
8022,note_off,112,0,0,,5,,,53,127
8023,note_on,1,0,0,,7,,,55,127
8135,note_off,112,0,0,,7,,,55,127
8136,note_on,1,0,0,,5,,,53,127
8248,note_off,112,0,0,,5,,,53,127
8249,note_on,1,0,0,,3,,,63,127
8361,note_off,112,0,0,,5,,,77,127
8362,note_on,1,0,0,,7,,,79,127
8474,note_off,112,0,0,,7,,,79,127
8475,note_on,1,0,0,,5,,,77,127
8587,note_off,112,0,0,,5,,,77,127
8588,note_on,1,0,0,,10,,,69,127
8700,note_off,112,0,0,,10,,,69,127
8700,note_off,0,0,0,,3,,,63,127
8701,note_on,1,0,0,,2,,,62,127
8701,note_on,0,0,0,,11,,,70,127
8813,note_off,112,0,0,,11,,,70,127
8814,note_on,1,0,0,,5,,,65,127
8926,note_off,112,0,0,,5,,,65,127
8926,note_off,0,0,0,,2,,,62,127
8927,note_on,1,0,0,,0,,,60,127
8927,note_on,0,0,0,,0,,,72,127
9039,note_off,112,0,0,,0,,,72,127
9040,note_on,1,0,0,,5,,,65,127
9151,note_off,111,0,0,,0,,,60,127
9152,note_off,1,0,0,,5,,,65,127
9153,note_on,1,0,0,,2,,,74,127
9266,note_on,113,0,0,,11,,,58,127
9379,note_on,113,0,0,,2,,,62,127
9491,note_off,112,0,0,,2,,,62,127
9492,note_on,1,0,0,,5,,,65,127
9604,note_off,112,0,0,,5,,,65,127
9605,note_on,1,0,0,,8,,,68,127
9717,note_off,112,0,0,,2,,,74,127
9718,note_on,1,0,0,,5,,,77,127
9830,note_off,112,0,0,,8,,,68,127
9831,note_on,1,0,0,,7,,,67,127
9943,note_off,112,0,0,,5,,,77,127
9944,note_on,1,0,0,,3,,,75,127
10056,note_off,112,0,0,,3,,,75,127
10056,note_off,0,0,0,,11,,,58,127
10057,note_on,1,0,0,,5,,,77,127
10085,note_on,28,0,0,,3,,,75,127
10094,note_off,9,0,0,,5,,,77,127
10113,note_on,19,0,0,,5,,,77,127
10122,note_off,9,0,0,,3,,,75,127
10141,note_on,19,0,0,,3,,,75,127
10150,note_off,9,0,0,,5,,,77,127
10168,note_off,18,0,0,,7,,,67,127
10169,note_on,1,0,0,,11,,,58,127
10169,note_on,0,0,0,,2,,,74,127
10178,note_off,9,0,0,,3,,,75,127
10282,note_on,104,0,0,,2,,,62,127
10394,note_off,112,0,0,,2,,,62,127
10395,note_on,1,0,0,,5,,,65,127
10507,note_off,112,0,0,,5,,,65,127
10508,note_off,1,0,0,,2,,,74,127
10508,note_on,0,0,0,,8,,,68,127
10621,note_on,113,0,0,,5,,,77,127
10733,note_off,112,0,0,,8,,,68,127
10734,note_on,1,0,0,,7,,,67,127
10846,note_off,112,0,0,,5,,,77,127
10847,note_on,1,0,0,,3,,,75,127
10959,note_off,112,0,0,,3,,,75,127
10959,note_off,0,0,0,,11,,,58,127
10960,note_on,1,0,0,,5,,,77,127
10988,note_on,28,0,0,,3,,,75,127
10997,note_off,9,0,0,,5,,,77,127
11016,note_on,19,0,0,,5,,,77,127
11025,note_off,9,0,0,,3,,,75,127
11044,note_on,19,0,0,,3,,,75,127
11053,note_off,9,0,0,,5,,,77,127
11071,note_off,18,0,0,,7,,,67,127
11072,note_on,1,0,0,,8,,,56,127
11072,note_on,0,0,0,,2,,,74,127
11081,note_off,9,0,0,,3,,,75,127
11185,note_on,104,0,0,,2,,,62,127
11297,note_off,112,0,0,,2,,,62,127
11298,note_on,1,0,0,,5,,,65,127
11410,note_off,112,0,0,,5,,,65,127
11411,note_off,1,0,0,,2,,,74,127
11411,note_on,0,0,0,,8,,,68,127
11524,note_on,113,0,0,,5,,,77,127
11636,note_off,112,0,0,,8,,,68,127
11637,note_on,1,0,0,,7,,,67,127
11749,note_off,112,0,0,,5,,,77,127
11750,note_on,1,0,0,,3,,,75,127
11862,note_off,112,0,0,,3,,,75,127
11862,note_off,0,0,0,,8,,,56,127
11863,note_on,1,0,0,,5,,,77,127
11891,note_on,28,0,0,,3,,,75,127
11900,note_off,9,0,0,,5,,,77,127
11919,note_on,19,0,0,,5,,,77,127
11928,note_off,9,0,0,,3,,,75,127
11947,note_on,19,0,0,,3,,,75,127
11956,note_off,9,0,0,,5,,,77,127
11974,note_off,18,0,0,,7,,,67,127
11975,note_on,1,0,0,,8,,,56,127
11975,note_on,0,0,0,,2,,,74,127
11984,note_off,9,0,0,,3,,,75,127
12088,note_on,104,0,0,,2,,,62,127
12200,note_off,112,0,0,,2,,,62,127
12201,note_on,1,0,0,,5,,,65,127
12313,note_off,112,0,0,,5,,,65,127
12314,note_off,1,0,0,,2,,,74,127
12314,note_on,0,0,0,,8,,,68,127
12427,note_on,113,0,0,,5,,,77,127
12539,note_off,112,0,0,,8,,,68,127
12540,note_on,1,0,0,,7,,,67,127
12652,note_off,112,0,0,,5,,,77,127
12653,note_on,1,0,0,,3,,,75,127
12765,note_off,112,0,0,,3,,,75,127
12765,note_off,0,0,0,,8,,,56,127
12766,note_on,1,0,0,,5,,,77,127
12794,note_on,28,0,0,,3,,,75,127
12803,note_off,9,0,0,,5,,,77,127
12822,note_on,19,0,0,,5,,,77,127
12831,note_off,9,0,0,,3,,,75,127
12850,note_on,19,0,0,,3,,,75,127
12859,note_off,9,0,0,,5,,,77,127
12877,note_off,18,0,0,,7,,,67,127
12878,note_on,1,0,0,,8,,,56,127
12878,note_on,0,0,0,,2,,,74,127
12887,note_off,9,0,0,,3,,,75,127
12991,note_on,104,0,0,,0,,,60,127
13103,note_off,112,0,0,,0,,,60,127
13104,note_on,1,0,0,,2,,,62,127
13216,note_off,112,0,0,,2,,,62,127
13217,note_off,1,0,0,,2,,,74,127
13217,note_on,0,0,0,,5,,,65,127
13330,note_on,113,0,0,,2,,,74,127
13442,note_off,112,0,0,,5,,,65,127
13443,note_on,1,0,0,,3,,,63,127
13555,note_off,112,0,0,,2,,,74,127
13556,note_on,1,0,0,,0,,,72,127
13668,note_off,112,0,0,,0,,,72,127
13668,note_off,0,0,0,,8,,,56,127
13669,note_on,1,0,0,,2,,,74,127
13697,note_on,28,0,0,,0,,,72,127
13706,note_off,9,0,0,,2,,,74,127
13725,note_on,19,0,0,,2,,,74,127
13734,note_off,9,0,0,,0,,,72,127
13753,note_on,19,0,0,,0,,,72,127
13762,note_off,9,0,0,,2,,,74,127
13780,note_off,18,0,0,,3,,,63,127
13781,note_on,1,0,0,,7,,,55,127
13781,note_on,0,0,0,,12,,,71,127
13790,note_off,9,0,0,,0,,,72,127
13894,note_on,104,0,0,,12,,,59,127
14006,note_off,112,0,0,,12,,,59,127
14007,note_on,1,0,0,,2,,,62,127
14119,note_off,112,0,0,,2,,,62,127
14120,note_off,1,0,0,,12,,,71,127
14120,note_on,0,0,0,,7,,,67,127
14233,note_on,113,0,0,,3,,,75,127
14345,note_off,112,0,0,,7,,,67,127
14346,note_on,1,0,0,,5,,,65,127
14458,note_off,112,0,0,,3,,,75,127
14459,note_on,1,0,0,,2,,,74,127
14571,note_off,112,0,0,,2,,,74,127
14571,note_off,0,0,0,,7,,,55,127
14572,note_on,1,0,0,,3,,,75,127
14600,note_on,28,0,0,,2,,,74,127
14609,note_off,9,0,0,,3,,,75,127
14628,note_on,19,0,0,,3,,,75,127
14637,note_off,9,0,0,,2,,,74,127
14656,note_on,19,0,0,,2,,,74,127
14665,note_off,9,0,0,,3,,,75,127
14683,note_off,18,0,0,,5,,,65,127
14684,note_on,1,0,0,,8,,,56,127
14684,note_on,0,0,0,,0,,,72,127
14693,note_off,9,0,0,,2,,,74,127
14797,note_on,104,0,0,,0,,,60,127
14909,note_off,112,0,0,,0,,,60,127
14910,note_on,1,0,0,,2,,,62,127
15022,note_off,112,0,0,,2,,,62,127
15023,note_off,1,0,0,,0,,,72,127
15023,note_on,0,0,0,,5,,,65,127
15136,note_on,113,0,0,,2,,,74,127
15248,note_off,112,0,0,,5,,,65,127
15249,note_on,1,0,0,,3,,,63,127
15361,note_off,112,0,0,,2,,,74,127
15362,note_on,1,0,0,,0,,,72,127
15474,note_off,112,0,0,,0,,,72,127
15474,note_off,0,0,0,,8,,,56,127
15475,note_on,1,0,0,,2,,,74,127
15503,note_on,28,0,0,,0,,,72,127
15512,note_off,9,0,0,,2,,,74,127
15531,note_on,19,0,0,,2,,,74,127
15540,note_off,9,0,0,,0,,,72,127
15559,note_on,19,0,0,,0,,,72,127
15568,note_off,9,0,0,,2,,,74,127
15586,note_off,18,0,0,,3,,,63,127
15587,note_on,1,0,0,,7,,,55,127
15587,note_on,0,0,0,,12,,,71,127
15596,note_off,9,0,0,,0,,,72,127
15700,note_on,104,0,0,,12,,,59,127
15812,note_off,112,0,0,,12,,,59,127
15813,note_on,1,0,0,,2,,,62,127
15925,note_off,112,0,0,,2,,,62,127
15926,note_off,1,0,0,,12,,,71,127
15926,note_on,0,0,0,,7,,,67,127
16039,note_on,113,0,0,,3,,,75,127
16151,note_off,112,0,0,,7,,,67,127
16152,note_on,1,0,0,,5,,,65,127
16264,note_off,112,0,0,,3,,,75,127
16265,note_on,1,0,0,,2,,,74,127
16377,note_off,112,0,0,,2,,,74,127
16377,note_off,0,0,0,,7,,,55,127
16378,note_on,1,0,0,,3,,,75,127
16406,note_on,28,0,0,,2,,,74,127
16415,note_off,9,0,0,,3,,,75,127
16434,note_on,19,0,0,,3,,,75,127
16443,note_off,9,0,0,,2,,,74,127
16462,note_on,19,0,0,,2,,,74,127
16471,note_off,9,0,0,,3,,,75,127
16489,note_off,18,0,0,,5,,,65,127
16490,note_on,1,0,0,,10,,,57,127
16490,note_on,0,0,0,,0,,,72,127
16499,note_off,9,0,0,,2,,,74,127
16601,note_off,102,0,0,,10,,,57,127
16602,note_on,1,0,0,,0,,,60,127
16714,note_off,112,0,0,,0,,,60,127
16715,note_on,1,0,0,,6,,,66,127
16827,note_off,112,0,0,,6,,,66,127
16828,note_off,1,0,0,,0,,,72,127
16828,note_on,0,0,0,,10,,,69,127
16941,note_on,113,0,0,,0,,,72,127
17053,note_off,112,0,0,,0,,,72,127
17053,note_off,0,0,0,,10,,,69,127
17054,note_on,1,0,0,,10,,,57,127
17054,note_on,0,0,0,,6,,,78,127
17166,note_off,112,0,0,,6,,,78,127
17167,note_on,1,0,0,,10,,,81,127
17279,note_off,112,0,0,,10,,,81,127
17280,note_on,1,0,0,,10,,,81,127
17392,note_off,112,0,0,,10,,,57,127
17393,note_on,1,0,0,,11,,,58,127
17505,note_off,112,0,0,,11,,,58,127
17505,note_off,0,0,0,,10,,,81,127
17506,note_on,1,0,0,,2,,,62,127
17506,note_on,0,0,0,,2,,,74,127
17618,note_off,112,0,0,,2,,,62,127
17619,note_on,1,0,0,,7,,,67,127
17731,note_off,112,0,0,,7,,,67,127
17732,note_on,1,0,0,,11,,,70,127
17844,note_off,112,0,0,,2,,,74,127
17845,note_on,1,0,0,,2,,,74,127
17957,note_off,112,0,0,,2,,,74,127
17957,note_off,0,0,0,,11,,,70,127
17958,note_on,1,0,0,,11,,,58,127
17958,note_on,0,0,0,,7,,,79,127
18070,note_off,112,0,0,,7,,,79,127
18071,note_on,1,0,0,,11,,,82,127
18183,note_off,112,0,0,,11,,,82,127
18184,note_on,1,0,0,,11,,,82,127
18296,note_off,112,0,0,,11,,,58,127
18297,note_on,1,0,0,,0,,,60,127
18409,note_off,112,0,0,,0,,,60,127
18409,note_off,0,0,0,,11,,,82,127
18410,note_on,1,0,0,,3,,,63,127
18410,note_on,0,0,0,,3,,,75,127
18522,note_off,112,0,0,,3,,,63,127
18523,note_on,1,0,0,,10,,,69,127
18635,note_off,112,0,0,,10,,,69,127
18636,note_on,1,0,0,,0,,,72,127
18748,note_off,112,0,0,,3,,,75,127
18749,note_on,1,0,0,,3,,,75,127
18861,note_off,112,0,0,,3,,,75,127
18861,note_off,0,0,0,,0,,,72,127
18862,note_on,1,0,0,,0,,,60,127
18862,note_on,0,0,0,,10,,,81,127
18974,note_off,112,0,0,,10,,,81,127
18975,note_on,1,0,0,,0,,,84,127
19087,note_off,112,0,0,,0,,,84,127
19087,note_off,0,0,0,,0,,,60,127
19088,note_on,1,0,0,,0,,,72,127
19088,note_on,0,0,0,,6,,,78,127
19200,note_off,112,0,0,,6,,,78,127
19201,note_on,1,0,0,,10,,,81,127
19313,note_off,112,0,0,,10,,,81,127
19313,note_off,0,0,0,,0,,,72,127
19314,note_on,1,0,0,,11,,,70,127
19314,note_on,0,0,0,,2,,,74,127
19426,note_off,112,0,0,,2,,,74,127
19427,note_on,1,0,0,,2,,,86,127
19539,note_off,112,0,0,,11,,,70,127
19540,note_on,1,0,0,,10,,,69,127
19540,note_on,0,0,0,,4,,,76,127
19652,note_off,112,0,0,,2,,,86,127
19653,note_on,1,0,0,,0,,,84,127
19765,note_off,112,0,0,,0,,,84,127
19765,note_off,0,0,0,,4,,,76,127
19765,note_off,0,0,0,,10,,,69,127
19766,note_on,1,0,0,,2,,,62,127
19766,note_on,0,0,0,,11,,,82,127
19766,note_on,0,0,0,,6,,,78,127
19878,note_off,112,0,0,,11,,,82,127
19879,note_on,1,0,0,,10,,,81,127
19972,note_off,93,0,0,,10,,,81,127
19991,note_off,19,0,0,,6,,,78,127
19991,note_off,0,0,0,,2,,,62,127
19992,note_on,1,0,0,,11,,,58,127
19992,note_on,0,0,0,,7,,,79,127
20104,note_off,112,0,0,,11,,,58,127
20105,note_on,1,0,0,,2,,,62,127
20217,note_off,112,0,0,,2,,,62,127
20218,note_on,1,0,0,,7,,,67,127
20218,note_on,0,0,0,,11,,,82,127
20330,note_off,112,0,0,,7,,,67,127
20331,note_on,1,0,0,,11,,,70,127
20443,note_off,112,0,0,,11,,,70,127
20443,note_off,0,0,0,,7,,,79,127
20444,note_on,1,0,0,,0,,,60,127
20444,note_on,0,0,0,,3,,,75,127
20556,note_off,112,0,0,,0,,,60,127
20557,note_on,1,0,0,,0,,,72,127
20669,note_off,112,0,0,,0,,,72,127
20669,note_off,0,0,0,,11,,,82,127
20670,note_on,1,0,0,,10,,,69,127
20670,note_on,0,0,0,,10,,,81,127
20782,note_off,112,0,0,,10,,,69,127
20783,note_on,1,0,0,,6,,,66,127
20895,note_off,112,0,0,,6,,,66,127
20895,note_off,0,0,0,,3,,,75,127
20896,note_on,1,0,0,,11,,,58,127
20896,note_on,0,0,0,,2,,,74,127
21008,note_off,112,0,0,,11,,,58,127
21009,note_on,1,0,0,,2,,,62,127
21094,note_off,85,0,0,,10,,,81,127
21121,note_off,27,0,0,,2,,,62,127
21122,note_on,1,0,0,,7,,,67,127
21122,note_on,0,0,0,,11,,,82,127
21234,note_off,112,0,0,,7,,,67,127
21235,note_on,1,0,0,,11,,,70,127
21347,note_off,112,0,0,,11,,,70,127
21347,note_off,0,0,0,,2,,,74,127
21348,note_on,1,0,0,,0,,,60,127
21348,note_on,0,0,0,,3,,,75,127
21460,note_off,112,0,0,,0,,,60,127
21461,note_on,1,0,0,,0,,,72,127
21573,note_off,112,0,0,,0,,,72,127
21573,note_off,0,0,0,,11,,,82,127
21574,note_on,1,0,0,,10,,,69,127
21574,note_on,0,0,0,,10,,,81,127
21686,note_off,112,0,0,,10,,,69,127
21687,note_on,1,0,0,,6,,,66,127
21799,note_off,112,0,0,,6,,,66,127
21799,note_off,0,0,0,,10,,,81,127
21799,note_off,0,0,0,,3,,,75,127
21800,note_on,1,0,0,,11,,,58,127
21800,note_on,0,0,0,,2,,,74,127
21912,note_off,112,0,0,,11,,,58,127
21913,note_on,1,0,0,,2,,,62,127
22025,note_off,112,0,0,,2,,,62,127
22025,note_off,0,0,0,,2,,,74,127
22026,note_on,1,0,0,,7,,,67,127
22026,note_on,0,0,0,,2,,,86,127
22138,note_off,112,0,0,,7,,,67,127
22139,note_on,1,0,0,,11,,,70,127
22251,note_off,112,0,0,,11,,,70,127
22252,note_on,1,0,0,,10,,,57,127
22364,note_off,112,0,0,,10,,,57,127
22365,note_on,1,0,0,,0,,,60,127
22477,note_off,112,0,0,,0,,,60,127
22477,note_off,0,0,0,,2,,,86,127
22478,note_on,1,0,0,,6,,,66,127
22478,note_on,0,0,0,,0,,,84,127
22590,note_off,112,0,0,,6,,,66,127
22591,note_on,1,0,0,,10,,,69,127
22703,note_off,112,0,0,,10,,,69,127
22704,note_on,1,0,0,,7,,,55,127
22816,note_off,112,0,0,,7,,,55,127
22817,note_on,1,0,0,,7,,,67,127
22929,note_off,112,0,0,,7,,,67,127
22929,note_off,0,0,0,,0,,,84,127
22930,note_on,1,0,0,,3,,,63,127
22930,note_on,0,0,0,,11,,,82,127
23042,note_off,112,0,0,,3,,,63,127
23043,note_on,1,0,0,,0,,,60,127
23155,note_off,112,0,0,,0,,,60,127
23156,note_on,1,0,0,,6,,,54,127
23268,note_off,112,0,0,,6,,,54,127
23269,note_on,1,0,0,,10,,,57,127
23381,note_off,112,0,0,,10,,,57,127
23381,note_off,0,0,0,,11,,,82,127
23382,note_on,1,0,0,,2,,,62,127
23382,note_on,0,0,0,,10,,,81,127
23494,note_off,112,0,0,,2,,,62,127
23495,note_on,1,0,0,,2,,,50,127
23607,note_off,112,0,0,,2,,,50,127
23608,note_on,1,0,0,,3,,,51,127
23720,note_off,112,0,0,,3,,,51,127
23721,note_on,1,0,0,,7,,,55,127
23833,note_off,112,0,0,,7,,,55,127
23833,note_off,0,0,0,,10,,,81,127
23834,note_on,1,0,0,,0,,,60,127
23834,note_on,0,0,0,,7,,,79,127
23946,note_off,112,0,0,,0,,,60,127
23947,note_on,1,0,0,,0,,,48,127
24059,note_off,112,0,0,,0,,,48,127
24060,note_on,1,0,0,,2,,,50,127
24172,note_off,112,0,0,,7,,,79,127
24173,note_on,1,0,0,,6,,,78,127
24285,note_off,112,0,0,,6,,,78,127
24285,note_off,0,0,0,,2,,,50,127
24286,note_on,1,0,0,,0,,,48,127
24286,note_on,0,0,0,,7,,,79,127
24399,note_on,113,0,0,,3,,,75,127
24511,note_off,112,0,0,,3,,,75,127
24511,note_off,0,0,0,,0,,,48,127
24512,note_on,1,0,0,,2,,,50,127
24512,note_on,0,0,0,,2,,,74,127
24624,note_off,112,0,0,,2,,,74,127
24625,note_on,1,0,0,,0,,,72,127
24737,note_off,112,0,0,,0,,,72,127
24737,note_off,0,0,0,,2,,,50,127
24737,note_off,0,0,0,,7,,,79,127
24738,note_on,1,0,0,,2,,,38,127
24738,note_on,0,0,0,,6,,,78,127
24738,note_on,0,0,0,,11,,,70,127
24850,note_off,112,0,0,,11,,,70,127
24851,note_on,1,0,0,,10,,,69,127
24963,note_off,112,0,0,,10,,,69,127
24963,note_off,0,0,0,,6,,,78,127
24963,note_off,0,0,0,,2,,,38,127
24964,note_on,1,0,0,,11,,,58,127
24964,note_on,0,0,0,,7,,,79,127
24964,note_on,0,0,0,,7,,,67,127
25076,note_off,112,0,0,,11,,,58,127
25077,note_on,1,0,0,,2,,,62,127
25152,note_off,75,0,0,,7,,,79,127
25188,note_off,36,0,0,,2,,,62,127
25188,note_off,0,0,0,,7,,,67,127
25189,note_on,1,0,0,,7,,,67,127
25189,note_on,0,0,0,,11,,,82,127
25301,note_off,112,0,0,,7,,,67,127
25302,note_on,1,0,0,,11,,,70,127
25414,note_off,112,0,0,,11,,,70,127
25415,note_on,1,0,0,,0,,,60,127
25415,note_on,0,0,0,,3,,,75,127
25527,note_off,112,0,0,,0,,,60,127
25528,note_on,1,0,0,,0,,,72,127
25640,note_off,112,0,0,,0,,,72,127
25640,note_off,0,0,0,,11,,,82,127
25641,note_on,1,0,0,,10,,,69,127
25641,note_on,0,0,0,,10,,,81,127
25753,note_off,112,0,0,,10,,,69,127
25754,note_on,1,0,0,,6,,,66,127
25866,note_off,112,0,0,,6,,,66,127
25866,note_off,0,0,0,,3,,,75,127
25867,note_on,1,0,0,,11,,,58,127
25867,note_on,0,0,0,,2,,,74,127
25979,note_off,112,0,0,,11,,,58,127
25980,note_on,1,0,0,,2,,,62,127
26092,note_off,112,0,0,,2,,,62,127
26092,note_off,0,0,0,,10,,,81,127
26093,note_on,1,0,0,,7,,,67,127
26093,note_on,0,0,0,,11,,,82,127
26205,note_off,112,0,0,,7,,,67,127
26206,note_on,1,0,0,,11,,,70,127
26318,note_off,112,0,0,,11,,,70,127
26318,note_off,0,0,0,,2,,,74,127
26319,note_on,1,0,0,,0,,,60,127
26319,note_on,0,0,0,,3,,,75,127
26431,note_off,112,0,0,,0,,,60,127
26432,note_on,1,0,0,,0,,,72,127
26544,note_off,112,0,0,,0,,,72,127
26544,note_off,0,0,0,,11,,,82,127
26545,note_on,1,0,0,,10,,,69,127
26545,note_on,0,0,0,,10,,,81,127
26657,note_off,112,0,0,,10,,,69,127
26658,note_on,1,0,0,,6,,,66,127
26770,note_off,112,0,0,,6,,,66,127
26770,note_off,0,0,0,,3,,,75,127
26771,note_on,1,0,0,,11,,,58,127
26771,note_on,0,0,0,,2,,,74,127
26883,note_off,112,0,0,,11,,,58,127
26884,note_on,1,0,0,,2,,,62,127
26996,note_off,112,0,0,,2,,,62,127
26996,note_off,0,0,0,,2,,,74,127
26996,note_off,0,0,0,,10,,,81,127
26997,note_on,1,0,0,,7,,,67,127
26997,note_on,0,0,0,,2,,,86,127
27109,note_off,112,0,0,,7,,,67,127
27110,note_on,1,0,0,,11,,,70,127
27222,note_off,112,0,0,,11,,,70,127
27223,note_on,1,0,0,,10,,,57,127
27335,note_off,112,0,0,,10,,,57,127
27336,note_on,1,0,0,,0,,,60,127
27448,note_off,112,0,0,,0,,,60,127
27448,note_off,0,0,0,,2,,,86,127
27449,note_on,1,0,0,,6,,,66,127
27449,note_on,0,0,0,,0,,,84,127
27561,note_off,112,0,0,,6,,,66,127
27562,note_on,1,0,0,,10,,,69,127
27674,note_off,112,0,0,,10,,,69,127
27675,note_on,1,0,0,,7,,,55,127
27787,note_off,112,0,0,,7,,,55,127
27788,note_on,1,0,0,,7,,,67,127
27900,note_off,112,0,0,,7,,,67,127
27900,note_off,0,0,0,,0,,,84,127
27901,note_on,1,0,0,,3,,,63,127
27901,note_on,0,0,0,,11,,,82,127
28013,note_off,112,0,0,,3,,,63,127
28014,note_on,1,0,0,,0,,,60,127
28126,note_off,112,0,0,,0,,,60,127
28127,note_on,1,0,0,,6,,,54,127
28239,note_off,112,0,0,,6,,,54,127
28240,note_on,1,0,0,,10,,,57,127
28352,note_off,112,0,0,,10,,,57,127
28352,note_off,0,0,0,,11,,,82,127
28353,note_on,1,0,0,,2,,,62,127
28353,note_on,0,0,0,,10,,,81,127
28465,note_off,112,0,0,,2,,,62,127
28466,note_on,1,0,0,,2,,,50,127
28578,note_off,112,0,0,,2,,,50,127
28579,note_on,1,0,0,,3,,,51,127
28691,note_off,112,0,0,,3,,,51,127
28692,note_on,1,0,0,,7,,,55,127
28804,note_off,112,0,0,,7,,,55,127
28804,note_off,0,0,0,,10,,,81,127
28805,note_on,1,0,0,,0,,,60,127
28805,note_on,0,0,0,,7,,,79,127
28917,note_off,112,0,0,,0,,,60,127
28918,note_on,1,0,0,,0,,,48,127
29030,note_off,112,0,0,,0,,,48,127
29031,note_on,1,0,0,,2,,,50,127
29143,note_off,112,0,0,,7,,,79,127
29144,note_on,1,0,0,,6,,,78,127
29256,note_off,112,0,0,,6,,,78,127
29256,note_off,0,0,0,,2,,,50,127
29257,note_on,1,0,0,,0,,,48,127
29257,note_on,0,0,0,,7,,,79,127
29370,note_on,113,0,0,,3,,,75,127
29482,note_off,112,0,0,,3,,,75,127
29482,note_off,0,0,0,,0,,,48,127
29483,note_on,1,0,0,,2,,,50,127
29483,note_on,0,0,0,,2,,,74,127
29595,note_off,112,0,0,,2,,,74,127
29596,note_on,1,0,0,,0,,,72,127
29708,note_off,112,0,0,,0,,,72,127
29708,note_off,0,0,0,,7,,,79,127
29709,note_on,1,0,0,,2,,,38,127
29709,note_on,0,0,0,,11,,,70,127
29709,note_on,0,0,0,,6,,,78,127
29821,note_off,112,0,0,,11,,,70,127
29822,note_on,1,0,0,,10,,,69,127
29878,note_off,56,0,0,,6,,,78,127
29933,note_off,55,0,0,,10,,,69,127
29933,note_off,0,0,0,,2,,,38,127
29933,note_off,0,0,0,,2,,,50,127
29934,note_on,1,0,0,,7,,,43,127
29934,note_on,0,0,0,,7,,,67,127
30046,note_off,112,0,0,,7,,,67,127
30047,note_on,1,0,0,,2,,,62,127
30159,note_off,112,0,0,,2,,,62,127
30160,note_on,1,0,0,,11,,,70,127
30272,note_off,112,0,0,,7,,,43,127
30273,note_on,1,0,0,,11,,,34,127
30273,note_on,0,0,0,,11,,,46,127
30385,note_off,112,0,0,,11,,,46,127
30385,note_off,0,0,0,,11,,,34,127
30386,note_on,1,0,0,,0,,,48,127
30386,note_on,0,0,0,,0,,,36,127
30386,note_on,0,0,0,,3,,,63,127
30498,note_off,112,0,0,,3,,,63,127
30498,note_off,0,0,0,,11,,,70,127
30499,note_on,1,0,0,,10,,,69,127
30611,note_off,112,0,0,,10,,,69,127
30611,note_off,0,0,0,,0,,,36,127
30611,note_off,0,0,0,,0,,,48,127
30612,note_on,1,0,0,,3,,,51,127
30612,note_on,0,0,0,,3,,,39,127
30612,note_on,0,0,0,,0,,,60,127
30724,note_off,112,0,0,,0,,,60,127
30725,note_on,1,0,0,,7,,,67,127
30837,note_off,112,0,0,,7,,,67,127
30837,note_off,0,0,0,,3,,,39,127
30837,note_off,0,0,0,,3,,,51,127
30838,note_on,1,0,0,,2,,,38,127
30838,note_on,0,0,0,,2,,,50,127
30838,note_on,0,0,0,,10,,,69,127
30950,note_off,112,0,0,,10,,,69,127
30951,note_on,1,0,0,,2,,,62,127
31063,note_off,112,0,0,,2,,,62,127
31064,note_on,1,0,0,,11,,,70,127
31176,note_off,112,0,0,,2,,,50,127
31176,note_off,0,0,0,,2,,,38,127
31177,note_on,1,0,0,,11,,,34,127
31177,note_on,0,0,0,,11,,,46,127
31289,note_off,112,0,0,,11,,,46,127
31289,note_off,0,0,0,,11,,,34,127
31290,note_on,1,0,0,,0,,,48,127
31290,note_on,0,0,0,,0,,,36,127
31290,note_on,0,0,0,,3,,,63,127
31402,note_off,112,0,0,,11,,,70,127
31403,note_on,1,0,0,,10,,,69,127
31515,note_off,112,0,0,,3,,,63,127
31515,note_off,0,0,0,,0,,,36,127
31515,note_off,0,0,0,,0,,,48,127
31516,note_on,1,0,0,,3,,,51,127
31516,note_on,0,0,0,,3,,,39,127
31516,note_on,0,0,0,,0,,,60,127
31628,note_off,112,0,0,,10,,,69,127
31629,note_on,1,0,0,,7,,,67,127
31741,note_off,112,0,0,,7,,,67,127
31741,note_off,0,0,0,,0,,,60,127
31741,note_off,0,0,0,,3,,,39,127
31741,note_off,0,0,0,,3,,,51,127
31742,note_on,1,0,0,,2,,,50,127
31742,note_on,0,0,0,,2,,,38,127
31742,note_on,0,0,0,,10,,,69,127
31854,note_off,112,0,0,,10,,,69,127
31855,note_on,1,0,0,,2,,,62,127
31967,note_off,112,0,0,,2,,,62,127
31968,note_on,1,0,0,,11,,,70,127
32080,note_off,112,0,0,,2,,,38,127
32080,note_off,0,0,0,,2,,,50,127
32081,note_on,1,0,0,,11,,,34,127
32081,note_on,0,0,0,,11,,,46,127
32193,note_off,112,0,0,,11,,,46,127
32193,note_off,0,0,0,,11,,,34,127
32194,note_on,1,0,0,,0,,,48,127
32194,note_on,0,0,0,,0,,,36,127
32194,note_on,0,0,0,,3,,,63,127
32306,note_off,112,0,0,,11,,,70,127
32307,note_on,1,0,0,,10,,,69,127
32419,note_off,112,0,0,,3,,,63,127
32419,note_off,0,0,0,,0,,,36,127
32419,note_off,0,0,0,,0,,,48,127
32420,note_on,1,0,0,,3,,,39,127
32420,note_on,0,0,0,,3,,,51,127
32420,note_on,0,0,0,,0,,,60,127
32532,note_off,112,0,0,,10,,,69,127
32533,note_on,1,0,0,,7,,,67,127
32645,note_off,112,0,0,,7,,,67,127
32645,note_off,0,0,0,,0,,,60,127
32645,note_off,0,0,0,,3,,,51,127
32645,note_off,0,0,0,,3,,,39,127
32646,note_on,1,0,0,,2,,,50,127
32646,note_on,0,0,0,,6,,,42,127
32646,note_on,0,0,0,,10,,,69,127
32758,note_off,112,0,0,,10,,,69,127
32759,note_on,1,0,0,,2,,,62,127
32871,note_off,112,0,0,,2,,,62,127
32871,note_off,0,0,0,,6,,,42,127
32871,note_off,0,0,0,,2,,,50,127
32872,note_on,1,0,0,,7,,,43,127
32872,note_on,0,0,0,,0,,,72,127
32984,note_off,112,0,0,,0,,,72,127
32985,note_on,1,0,0,,11,,,70,127
33097,note_off,112,0,0,,11,,,70,127
33097,note_off,0,0,0,,7,,,43,127
33098,note_on,1,0,0,,2,,,50,127
33098,note_on,0,0,0,,2,,,74,127
33210,note_off,112,0,0,,2,,,74,127
33211,note_on,1,0,0,,7,,,67,127
33323,note_off,112,0,0,,7,,,67,127
33324,note_on,1,0,0,,2,,,38,127
33324,note_on,0,0,0,,10,,,69,127
33436,note_off,112,0,0,,10,,,69,127
33437,note_on,1,0,0,,6,,,66,127
33549,note_off,112,0,0,,6,,,66,127
33549,note_off,0,0,0,,2,,,38,127
33549,note_off,0,0,0,,2,,,50,127
33550,note_on,1,0,0,,7,,,43,127
33550,note_on,0,0,0,,7,,,67,127
33662,note_off,112,0,0,,7,,,67,127
33663,note_on,1,0,0,,2,,,62,127
33775,note_off,112,0,0,,2,,,62,127
33776,note_on,1,0,0,,11,,,70,127
33888,note_off,112,0,0,,7,,,43,127
33889,note_on,1,0,0,,11,,,34,127
33889,note_on,0,0,0,,11,,,46,127
34001,note_off,112,0,0,,11,,,46,127
34001,note_off,0,0,0,,11,,,34,127
34002,note_on,1,0,0,,0,,,48,127
34002,note_on,0,0,0,,0,,,36,127
34002,note_on,0,0,0,,3,,,63,127
34114,note_off,112,0,0,,11,,,70,127
34115,note_on,1,0,0,,10,,,69,127
34227,note_off,112,0,0,,3,,,63,127
34227,note_off,0,0,0,,0,,,36,127
34227,note_off,0,0,0,,0,,,48,127
34228,note_on,1,0,0,,3,,,51,127
34228,note_on,0,0,0,,3,,,39,127
34228,note_on,0,0,0,,0,,,60,127
34340,note_off,112,0,0,,10,,,69,127
34341,note_on,1,0,0,,7,,,67,127
34453,note_off,112,0,0,,7,,,67,127
34453,note_off,0,0,0,,0,,,60,127
34453,note_off,0,0,0,,3,,,39,127
34453,note_off,0,0,0,,3,,,51,127
34454,note_on,1,0,0,,2,,,50,127
34454,note_on,0,0,0,,2,,,38,127
34454,note_on,0,0,0,,10,,,69,127
34566,note_off,112,0,0,,10,,,69,127
34567,note_on,1,0,0,,2,,,62,127
34679,note_off,112,0,0,,2,,,62,127
34680,note_on,1,0,0,,11,,,70,127
34748,note_off,68,0,0,,2,,,38,127
34748,note_off,0,0,0,,2,,,50,127
34793,note_on,45,0,0,,11,,,34,127
34793,note_on,0,0,0,,11,,,46,127
34905,note_off,112,0,0,,11,,,46,127
34905,note_off,0,0,0,,11,,,34,127
34906,note_on,1,0,0,,0,,,48,127
34906,note_on,0,0,0,,0,,,36,127
34906,note_on,0,0,0,,3,,,63,127
35018,note_off,112,0,0,,11,,,70,127
35019,note_on,1,0,0,,10,,,69,127
35131,note_off,112,0,0,,3,,,63,127
35131,note_off,0,0,0,,0,,,36,127
35131,note_off,0,0,0,,0,,,48,127
35132,note_on,1,0,0,,3,,,39,127
35132,note_on,0,0,0,,3,,,51,127
35132,note_on,0,0,0,,0,,,60,127
35244,note_off,112,0,0,,10,,,69,127
35245,note_on,1,0,0,,7,,,67,127
35357,note_off,112,0,0,,7,,,67,127
35357,note_off,0,0,0,,0,,,60,127
35357,note_off,0,0,0,,3,,,51,127
35357,note_off,0,0,0,,3,,,39,127
35358,note_on,1,0,0,,2,,,50,127
35358,note_on,0,0,0,,2,,,38,127
35358,note_on,0,0,0,,10,,,69,127
35470,note_off,112,0,0,,10,,,69,127
35471,note_on,1,0,0,,2,,,62,127
35583,note_off,112,0,0,,2,,,62,127
35584,note_on,1,0,0,,11,,,70,127
35652,note_off,68,0,0,,2,,,38,127
35652,note_off,0,0,0,,2,,,50,127
35697,note_on,45,0,0,,11,,,34,127
35697,note_on,0,0,0,,11,,,46,127
35809,note_off,112,0,0,,11,,,46,127
35809,note_off,0,0,0,,11,,,34,127
35810,note_on,1,0,0,,0,,,48,127
35810,note_on,0,0,0,,0,,,36,127
35810,note_on,0,0,0,,3,,,63,127
35922,note_off,112,0,0,,11,,,70,127
35923,note_on,1,0,0,,10,,,69,127
36035,note_off,112,0,0,,3,,,63,127
36035,note_off,0,0,0,,0,,,36,127
36035,note_off,0,0,0,,0,,,48,127
36036,note_on,1,0,0,,3,,,51,127
36036,note_on,0,0,0,,3,,,39,127
36036,note_on,0,0,0,,0,,,60,127
36148,note_off,112,0,0,,10,,,69,127
36149,note_on,1,0,0,,7,,,67,127
36261,note_off,112,0,0,,7,,,67,127
36261,note_off,0,0,0,,0,,,60,127
36261,note_off,0,0,0,,3,,,39,127
36261,note_off,0,0,0,,3,,,51,127
36262,note_on,1,0,0,,2,,,50,127
36262,note_on,0,0,0,,6,,,42,127
36262,note_on,0,0,0,,10,,,69,127
36374,note_off,112,0,0,,10,,,69,127
36375,note_on,1,0,0,,2,,,62,127
36487,note_off,112,0,0,,2,,,62,127
36487,note_off,0,0,0,,6,,,42,127
36487,note_off,0,0,0,,2,,,50,127
36488,note_on,1,0,0,,7,,,43,127
36488,note_on,0,0,0,,0,,,72,127
36600,note_off,112,0,0,,0,,,72,127
36601,note_on,1,0,0,,11,,,70,127
36713,note_off,112,0,0,,11,,,70,127
36713,note_off,0,0,0,,7,,,43,127
36714,note_on,1,0,0,,2,,,50,127
36714,note_on,0,0,0,,2,,,74,127
36826,note_off,112,0,0,,2,,,74,127
36827,note_on,1,0,0,,7,,,67,127
36939,note_off,112,0,0,,7,,,67,127
36940,note_on,1,0,0,,2,,,38,127
36940,note_on,0,0,0,,10,,,69,127
37052,note_off,112,0,0,,10,,,69,127
37053,note_on,1,0,0,,6,,,66,127
37165,note_off,112,0,0,,6,,,66,127
37165,note_off,0,0,0,,2,,,38,127
37165,note_off,0,0,0,,2,,,50,127
37166,note_on,1,0,0,,2,,,62,127
37278,note_off,112,0,0,,2,,,62,127
37279,note_on,1,0,0,,7,,,67,127
37391,note_off,112,0,0,,7,,,67,127
37392,note_on,1,0,0,,7,,,43,127
37392,note_on,0,0,0,,11,,,70,127
37504,note_off,112,0,0,,11,,,70,127
37505,note_on,1,0,0,,2,,,74,127
37617,note_off,112,0,0,,2,,,74,127
37618,note_on,1,0,0,,10,,,69,127
37730,note_off,112,0,0,,10,,,69,127
37731,note_on,1,0,0,,0,,,72,127
37843,note_off,112,0,0,,0,,,72,127
37843,note_off,0,0,0,,7,,,43,127
37844,note_on,1,0,0,,10,,,45,127
37844,note_on,0,0,0,,6,,,78,127
37956,note_off,112,0,0,,6,,,78,127
37957,note_on,1,0,0,,10,,,81,127
38069,note_off,112,0,0,,10,,,81,127
38070,note_on,1,0,0,,2,,,74,127
38182,note_off,112,0,0,,2,,,74,127
38183,note_on,1,0,0,,7,,,79,127
38295,note_off,112,0,0,,7,,,79,127
38295,note_off,0,0,0,,10,,,45,127
38296,note_on,1,0,0,,11,,,46,127
38296,note_on,0,0,0,,11,,,82,127
38408,note_off,112,0,0,,11,,,82,127
38409,note_on,1,0,0,,2,,,86,127
38521,note_off,112,0,0,,2,,,86,127
38521,note_off,0,0,0,,11,,,46,127
38522,note_on,1,0,0,,0,,,48,127
38522,note_on,0,0,0,,3,,,75,127
38634,note_off,112,0,0,,3,,,75,127
38635,note_on,1,0,0,,0,,,84,127
38747,note_off,112,0,0,,0,,,84,127
38747,note_off,0,0,0,,0,,,48,127
38748,note_on,1,0,0,,10,,,45,127
38748,note_on,0,0,0,,0,,,72,127
38860,note_off,112,0,0,,0,,,72,127
38861,note_on,1,0,0,,6,,,78,127
38973,note_off,112,0,0,,6,,,78,127
38973,note_off,0,0,0,,10,,,45,127
38974,note_on,1,0,0,,11,,,46,127
38974,note_on,0,0,0,,7,,,79,127
39086,note_off,112,0,0,,7,,,79,127
39087,note_on,1,0,0,,2,,,74,127
39199,note_off,112,0,0,,2,,,74,127
39199,note_off,0,0,0,,11,,,46,127
39200,note_on,1,0,0,,0,,,48,127
39200,note_on,0,0,0,,3,,,75,127
39312,note_off,112,0,0,,3,,,75,127
39313,note_on,1,0,0,,7,,,67,127
39425,note_off,112,0,0,,0,,,48,127
39426,note_on,1,0,0,,2,,,50,127
39524,note_off,98,0,0,,7,,,67,127
39539,note_on,15,0,0,,10,,,69,127
39651,note_off,112,0,0,,10,,,69,127
39652,note_on,1,0,0,,2,,,38,127
39652,note_on,0,0,0,,2,,,62,127
39764,note_off,112,0,0,,2,,,62,127
39765,note_on,1,0,0,,6,,,66,127
39877,note_off,112,0,0,,6,,,66,127
39877,note_off,0,0,0,,2,,,38,127
39877,note_off,0,0,0,,2,,,50,127
39878,note_on,1,0,0,,2,,,62,127
39990,note_off,112,0,0,,2,,,62,127
39991,note_on,1,0,0,,7,,,67,127
40103,note_off,112,0,0,,7,,,67,127
40104,note_on,1,0,0,,7,,,31,127
40104,note_on,0,0,0,,7,,,43,127
40104,note_on,0,0,0,,11,,,70,127
40216,note_off,112,0,0,,11,,,70,127
40217,note_on,1,0,0,,2,,,74,127
40329,note_off,112,0,0,,2,,,74,127
40330,note_on,1,0,0,,10,,,69,127
40442,note_off,112,0,0,,10,,,69,127
40443,note_on,1,0,0,,0,,,72,127
40555,note_off,112,0,0,,0,,,72,127
40555,note_off,0,0,0,,7,,,43,127
40555,note_off,0,0,0,,7,,,31,127
40556,note_on,1,0,0,,10,,,33,127
40556,note_on,0,0,0,,10,,,45,127
40556,note_on,0,0,0,,6,,,78,127
40668,note_off,112,0,0,,6,,,78,127
40669,note_on,1,0,0,,10,,,81,127
40781,note_off,112,0,0,,10,,,81,127
40782,note_on,1,0,0,,2,,,74,127
40894,note_off,112,0,0,,2,,,74,127
40895,note_on,1,0,0,,7,,,79,127
41007,note_off,112,0,0,,7,,,79,127
41007,note_off,0,0,0,,10,,,45,127
41007,note_off,0,0,0,,10,,,33,127
41008,note_on,1,0,0,,11,,,34,127
41008,note_on,0,0,0,,11,,,46,127
41008,note_on,0,0,0,,11,,,82,127
41120,note_off,112,0,0,,11,,,82,127
41121,note_on,1,0,0,,2,,,86,127
41233,note_off,112,0,0,,2,,,86,127
41233,note_off,0,0,0,,11,,,46,127
41233,note_off,0,0,0,,11,,,34,127
41234,note_on,1,0,0,,0,,,36,127
41234,note_on,0,0,0,,0,,,48,127
41234,note_on,0,0,0,,3,,,75,127
41346,note_off,112,0,0,,3,,,75,127
41347,note_on,1,0,0,,0,,,84,127
41459,note_off,112,0,0,,0,,,84,127
41459,note_off,0,0,0,,0,,,48,127
41459,note_off,0,0,0,,0,,,36,127
41460,note_on,1,0,0,,10,,,33,127
41460,note_on,0,0,0,,10,,,45,127
41460,note_on,0,0,0,,0,,,72,127
41572,note_off,112,0,0,,0,,,72,127
41573,note_on,1,0,0,,6,,,78,127
41685,note_off,112,0,0,,6,,,78,127
41685,note_off,0,0,0,,10,,,45,127
41685,note_off,0,0,0,,10,,,33,127
41686,note_on,1,0,0,,11,,,34,127
41686,note_on,0,0,0,,11,,,46,127
41686,note_on,0,0,0,,7,,,79,127
41798,note_off,112,0,0,,7,,,79,127
41799,note_on,1,0,0,,2,,,74,127
41911,note_off,112,0,0,,2,,,74,127
41911,note_off,0,0,0,,11,,,46,127
41911,note_off,0,0,0,,11,,,34,127
41912,note_on,1,0,0,,0,,,36,127
41912,note_on,0,0,0,,0,,,48,127
41912,note_on,0,0,0,,3,,,75,127
42024,note_off,112,0,0,,3,,,75,127
42025,note_on,1,0,0,,7,,,67,127
42137,note_off,112,0,0,,0,,,48,127
42137,note_off,0,0,0,,0,,,36,127
42138,note_on,1,0,0,,2,,,38,127
42138,note_on,0,0,0,,2,,,50,127
42225,note_off,87,0,0,,7,,,67,127
42251,note_on,26,0,0,,10,,,69,127
42363,note_off,112,0,0,,10,,,69,127
42363,note_off,0,0,0,,2,,,50,127
42363,note_off,0,0,0,,2,,,38,127
42364,note_on,1,0,0,,0,,,36,127
42364,note_on,0,0,0,,0,,,48,127
42364,note_on,0,0,0,,2,,,62,127
42476,note_off,112,0,0,,2,,,62,127
42477,note_on,1,0,0,,6,,,66,127
42589,note_off,112,0,0,,6,,,66,127
42589,note_off,0,0,0,,0,,,48,127
42589,note_off,0,0,0,,0,,,36,127
42590,note_on,1,0,0,,11,,,34,127
42590,note_on,0,0,0,,11,,,46,127
42590,note_on,0,0,0,,7,,,67,127
42702,note_off,112,0,0,,7,,,67,127
42703,note_on,1,0,0,,2,,,62,127
42815,note_off,112,0,0,,2,,,62,127
42815,note_off,0,0,0,,11,,,46,127
42815,note_off,0,0,0,,11,,,34,127
42816,note_on,1,0,0,,0,,,48,127
42816,note_on,0,0,0,,0,,,36,127
42816,note_on,0,0,0,,3,,,63,127
42928,note_off,112,0,0,,3,,,63,127
42929,note_on,1,0,0,,0,,,60,127
43041,note_off,112,0,0,,0,,,60,127
43041,note_off,0,0,0,,0,,,36,127
43041,note_off,0,0,0,,0,,,48,127
43042,note_on,1,0,0,,2,,,50,127
43042,note_on,0,0,0,,11,,,58,127
43154,note_off,112,0,0,,11,,,58,127
43155,note_on,1,0,0,,7,,,67,127
43267,note_off,112,0,0,,7,,,67,127
43268,note_on,1,0,0,,2,,,38,127
43268,note_on,0,0,0,,10,,,57,127
43380,note_off,112,0,0,,10,,,57,127
43381,note_on,1,0,0,,6,,,66,127
43493,note_off,112,0,0,,6,,,66,127
43493,note_off,0,0,0,,2,,,38,127
43493,note_off,0,0,0,,2,,,50,127
43494,note_on,1,0,0,,7,,,43,127
43494,note_on,0,0,0,,7,,,67,127
44170,note_off,676,0,0,,7,,,67,127
44396,note_off,226,0,0,,7,,,43,127
44397,note_on,1,0,0,,7,,,43,127
44397,note_on,0,0,0,,7,,,67,127
44509,note_off,112,0,0,,7,,,67,127
44510,note_on,1,0,0,,12,,,71,127
44622,note_off,112,0,0,,12,,,71,127
44623,note_on,1,0,0,,2,,,74,127
44735,note_off,112,0,0,,2,,,74,127
44736,note_on,1,0,0,,7,,,79,127
44848,note_off,112,0,0,,7,,,79,127
44849,note_on,1,0,0,,8,,,68,127
44961,note_off,112,0,0,,8,,,68,127
44962,note_on,1,0,0,,5,,,77,127
45074,note_off,112,0,0,,5,,,77,127
45075,note_on,1,0,0,,7,,,67,127
45187,note_off,112,0,0,,7,,,67,127
45188,note_on,1,0,0,,3,,,75,127
45300,note_off,112,0,0,,3,,,75,127
45301,note_on,1,0,0,,5,,,65,127
45413,note_off,112,0,0,,5,,,65,127
45414,note_on,1,0,0,,2,,,74,127
45526,note_off,112,0,0,,2,,,74,127
45527,note_on,1,0,0,,3,,,63,127
45639,note_off,112,0,0,,3,,,63,127
45640,note_on,1,0,0,,0,,,72,127
45752,note_off,112,0,0,,0,,,72,127
45753,note_on,1,0,0,,2,,,62,127
45865,note_off,112,0,0,,2,,,62,127
45866,note_on,1,0,0,,12,,,71,127
45978,note_off,112,0,0,,12,,,71,127
45979,note_on,1,0,0,,3,,,63,127
46091,note_off,112,0,0,,3,,,63,127
46092,note_on,1,0,0,,0,,,72,127
46204,note_off,112,0,0,,0,,,72,127
46204,note_off,0,0,0,,7,,,43,127
46205,note_on,1,0,0,,7,,,55,127
46205,note_on,0,0,0,,2,,,74,127
46317,note_off,112,0,0,,7,,,55,127
46318,note_on,1,0,0,,12,,,59,127
46430,note_off,112,0,0,,12,,,59,127
46431,note_on,1,0,0,,2,,,62,127
46543,note_off,112,0,0,,2,,,62,127
46544,note_on,1,0,0,,7,,,67,127
46656,note_off,112,0,0,,7,,,67,127
46657,note_on,1,0,0,,8,,,56,127
46769,note_off,112,0,0,,8,,,56,127
46770,note_on,1,0,0,,5,,,65,127
46864,note_off,94,0,0,,2,,,74,127
46882,note_off,18,0,0,,5,,,65,127
46883,note_on,1,0,0,,7,,,55,127
46883,note_on,0,0,0,,0,,,72,127
46995,note_off,112,0,0,,7,,,55,127
46996,note_on,1,0,0,,3,,,63,127
47108,note_off,112,0,0,,3,,,63,127
47108,note_off,0,0,0,,0,,,72,127
47109,note_on,1,0,0,,5,,,53,127
47109,note_on,0,0,0,,0,,,72,127
47140,note_on,31,0,0,,12,,,71,127
47147,note_off,7,0,0,,0,,,72,127
47171,note_on,24,0,0,,0,,,72,127
47178,note_off,7,0,0,,12,,,71,127
47202,note_on,24,0,0,,12,,,71,127
47209,note_off,7,0,0,,0,,,72,127
47222,note_off,13,0,0,,5,,,53,127
47223,note_on,1,0,0,,2,,,62,127
47335,note_off,112,0,0,,2,,,62,127
47336,note_on,1,0,0,,3,,,51,127
47336,note_on,0,0,0,,0,,,72,127
47342,note_off,6,0,0,,12,,,71,127
47448,note_off,106,0,0,,3,,,51,127
47449,note_on,1,0,0,,0,,,60,127
47561,note_off,112,0,0,,0,,,60,127
47561,note_off,0,0,0,,0,,,72,127
47562,note_on,1,0,0,,2,,,50,127
47562,note_on,0,0,0,,2,,,74,127
47674,note_off,112,0,0,,2,,,50,127
47675,note_on,1,0,0,,12,,,59,127
47787,note_off,112,0,0,,12,,,59,127
47787,note_off,0,0,0,,2,,,74,127
47788,note_on,1,0,0,,0,,,48,127
47788,note_on,0,0,0,,3,,,75,127
47900,note_off,112,0,0,,0,,,48,127
47901,note_on,1,0,0,,0,,,60,127
48013,note_off,112,0,0,,0,,,60,127
48013,note_off,0,0,0,,3,,,75,127
48014,note_on,1,0,0,,7,,,43,127
48014,note_on,0,0,0,,2,,,74,127
48126,note_off,112,0,0,,2,,,74,127
48127,note_on,1,0,0,,12,,,71,127
48239,note_off,112,0,0,,12,,,71,127
48240,note_on,1,0,0,,7,,,67,127
48352,note_off,112,0,0,,7,,,67,127
48352,note_off,0,0,0,,7,,,43,127
48353,note_on,1,0,0,,0,,,36,127
48353,note_on,0,0,0,,0,,,48,127
48353,note_on,0,0,0,,3,,,75,127
48465,note_off,112,0,0,,0,,,48,127
48465,note_off,0,0,0,,0,,,36,127
48466,note_on,1,0,0,,5,,,41,127
48466,note_on,0,0,0,,5,,,53,127
48466,note_on,0,0,0,,8,,,68,127
48578,note_off,112,0,0,,3,,,75,127
48579,note_on,1,0,0,,2,,,74,127
48691,note_off,112,0,0,,8,,,68,127
48691,note_off,0,0,0,,5,,,53,127
48691,note_off,0,0,0,,5,,,41,127
48692,note_on,1,0,0,,8,,,44,127
48692,note_on,0,0,0,,8,,,56,127
48692,note_on,0,0,0,,5,,,65,127
48804,note_off,112,0,0,,2,,,74,127
48805,note_on,1,0,0,,0,,,72,127
48917,note_off,112,0,0,,0,,,72,127
48917,note_off,0,0,0,,5,,,65,127
48917,note_off,0,0,0,,8,,,56,127
48917,note_off,0,0,0,,8,,,44,127
48918,note_on,1,0,0,,7,,,55,127
48918,note_on,0,0,0,,7,,,43,127
48918,note_on,0,0,0,,2,,,74,127
49030,note_off,112,0,0,,2,,,74,127
49031,note_on,1,0,0,,12,,,71,127
49143,note_off,112,0,0,,12,,,71,127
49144,note_on,1,0,0,,7,,,67,127
49249,note_off,105,0,0,,7,,,67,127
49256,note_off,7,0,0,,7,,,43,127
49256,note_off,0,0,0,,7,,,55,127
49257,note_on,1,0,0,,0,,,48,127
49257,note_on,0,0,0,,0,,,36,127
49257,note_on,0,0,0,,3,,,75,127
49369,note_off,112,0,0,,0,,,36,127
49369,note_off,0,0,0,,0,,,48,127
49370,note_on,1,0,0,,5,,,41,127
49370,note_on,0,0,0,,5,,,53,127
49370,note_on,0,0,0,,8,,,68,127
49482,note_off,112,0,0,,3,,,75,127
49483,note_on,1,0,0,,2,,,74,127
49595,note_off,112,0,0,,8,,,68,127
49595,note_off,0,0,0,,5,,,53,127
49595,note_off,0,0,0,,5,,,41,127
49596,note_on,1,0,0,,8,,,56,127
49596,note_on,0,0,0,,8,,,44,127
49596,note_on,0,0,0,,5,,,65,127
49708,note_off,112,0,0,,2,,,74,127
49709,note_on,1,0,0,,0,,,72,127
49821,note_off,112,0,0,,0,,,72,127
49821,note_off,0,0,0,,5,,,65,127
49821,note_off,0,0,0,,8,,,44,127
49821,note_off,0,0,0,,8,,,56,127
49822,note_on,1,0,0,,7,,,55,127
49822,note_on,0,0,0,,7,,,43,127
49822,note_on,0,0,0,,2,,,74,127
49934,note_off,112,0,0,,2,,,74,127
49935,note_on,1,0,0,,12,,,71,127
50047,note_off,112,0,0,,12,,,71,127
50048,note_on,1,0,0,,7,,,67,127
50153,note_off,105,0,0,,7,,,67,127
50160,note_off,7,0,0,,7,,,43,127
50160,note_off,0,0,0,,7,,,55,127
50161,note_on,1,0,0,,7,,,55,127
50161,note_on,0,0,0,,11,,,58,127
50161,note_on,0,0,0,,4,,,76,127
50273,note_off,112,0,0,,4,,,76,127
50273,note_off,0,0,0,,11,,,58,127
50273,note_off,0,0,0,,7,,,55,127
50274,note_on,1,0,0,,0,,,60,127
50274,note_on,0,0,0,,8,,,56,127
50274,note_on,0,0,0,,0,,,72,127
50386,note_off,112,0,0,,0,,,72,127
50387,note_on,1,0,0,,5,,,77,127
50499,note_off,112,0,0,,5,,,77,127
50499,note_off,0,0,0,,8,,,56,127
50499,note_off,0,0,0,,0,,,60,127
50500,note_on,1,0,0,,11,,,58,127
50500,note_on,0,0,0,,7,,,55,127
50500,note_on,0,0,0,,11,,,70,127
50612,note_off,112,0,0,,11,,,70,127
50613,note_on,1,0,0,,4,,,76,127
50725,note_off,112,0,0,,4,,,76,127
50725,note_off,0,0,0,,7,,,55,127
50725,note_off,0,0,0,,11,,,58,127
50726,note_on,1,0,0,,5,,,53,127
50726,note_on,0,0,0,,5,,,77,127
50838,note_off,112,0,0,,5,,,77,127
50839,note_on,1,0,0,,0,,,72,127
50951,note_off,112,0,0,,0,,,72,127
50952,note_on,1,0,0,,5,,,65,127
51057,note_off,105,0,0,,5,,,65,127
51064,note_off,7,0,0,,5,,,53,127
51065,note_on,1,0,0,,11,,,34,127
51065,note_on,0,0,0,,11,,,46,127
51065,note_on,0,0,0,,1,,,73,127
51177,note_off,112,0,0,,11,,,46,127
51177,note_off,0,0,0,,11,,,34,127
51178,note_on,1,0,0,,3,,,51,127
51178,note_on,0,0,0,,3,,,39,127
51178,note_on,0,0,0,,6,,,66,127
51290,note_off,112,0,0,,1,,,73,127
51291,note_on,1,0,0,,0,,,72,127
51403,note_off,112,0,0,,6,,,66,127
51403,note_off,0,0,0,,3,,,39,127
51403,note_off,0,0,0,,3,,,51,127
51404,note_on,1,0,0,,6,,,54,127
51404,note_on,0,0,0,,6,,,42,127
51404,note_on,0,0,0,,3,,,63,127
51516,note_off,112,0,0,,0,,,72,127
51517,note_on,1,0,0,,11,,,70,127
51629,note_off,112,0,0,,11,,,70,127
51629,note_off,0,0,0,,3,,,63,127
51629,note_off,0,0,0,,6,,,42,127
51629,note_off,0,0,0,,6,,,54,127
51630,note_on,1,0,0,,5,,,41,127
51630,note_on,0,0,0,,5,,,53,127
51630,note_on,0,0,0,,0,,,72,127
51742,note_off,112,0,0,,0,,,72,127
51743,note_on,1,0,0,,10,,,69,127
51855,note_off,112,0,0,,10,,,69,127
51856,note_on,1,0,0,,5,,,65,127
51961,note_off,105,0,0,,5,,,65,127
51968,note_off,7,0,0,,5,,,53,127
51968,note_off,0,0,0,,5,,,41,127
51969,note_on,1,0,0,,11,,,34,127
51969,note_on,0,0,0,,11,,,46,127
51969,note_on,0,0,0,,1,,,73,127
52081,note_off,112,0,0,,11,,,46,127
52081,note_off,0,0,0,,11,,,34,127
52082,note_on,1,0,0,,3,,,51,127
52082,note_on,0,0,0,,3,,,39,127
52082,note_on,0,0,0,,6,,,66,127
52194,note_off,112,0,0,,1,,,73,127
52195,note_on,1,0,0,,0,,,72,127
52307,note_off,112,0,0,,6,,,66,127
52307,note_off,0,0,0,,3,,,39,127
52307,note_off,0,0,0,,3,,,51,127
52308,note_on,1,0,0,,6,,,54,127
52308,note_on,0,0,0,,6,,,42,127
52308,note_on,0,0,0,,3,,,63,127
52420,note_off,112,0,0,,0,,,72,127
52421,note_on,1,0,0,,11,,,70,127
52533,note_off,112,0,0,,11,,,70,127
52533,note_off,0,0,0,,3,,,63,127
52533,note_off,0,0,0,,6,,,42,127
52533,note_off,0,0,0,,6,,,54,127
52534,note_on,1,0,0,,5,,,53,127
52534,note_on,0,0,0,,5,,,41,127
52534,note_on,0,0,0,,0,,,72,127
52646,note_off,112,0,0,,0,,,72,127
52647,note_on,1,0,0,,10,,,69,127
52759,note_off,112,0,0,,10,,,69,127
52760,note_on,1,0,0,,5,,,65,127
52865,note_off,105,0,0,,5,,,65,127
52872,note_off,7,0,0,,5,,,41,127
52872,note_off,0,0,0,,5,,,53,127
52873,note_on,1,0,0,,5,,,53,127
52873,note_on,0,0,0,,8,,,56,127
52873,note_on,0,0,0,,2,,,74,127
52985,note_off,112,0,0,,2,,,74,127
52985,note_off,0,0,0,,8,,,56,127
52985,note_off,0,0,0,,5,,,53,127
52986,note_on,1,0,0,,6,,,54,127
52986,note_on,0,0,0,,11,,,58,127
52986,note_on,0,0,0,,11,,,70,127
53098,note_off,112,0,0,,11,,,70,127
53099,note_on,1,0,0,,3,,,75,127
53211,note_off,112,0,0,,3,,,75,127
53211,note_off,0,0,0,,11,,,58,127
53211,note_off,0,0,0,,6,,,54,127
53212,note_on,1,0,0,,5,,,53,127
53212,note_on,0,0,0,,8,,,56,127
53212,note_on,0,0,0,,8,,,68,127
53324,note_off,112,0,0,,8,,,68,127
53325,note_on,1,0,0,,5,,,77,127
53437,note_off,112,0,0,,5,,,77,127
53437,note_off,0,0,0,,8,,,56,127
53437,note_off,0,0,0,,5,,,53,127
53438,note_on,1,0,0,,3,,,51,127
53438,note_on,0,0,0,,6,,,78,127
53550,note_off,112,0,0,,6,,,78,127
53551,note_on,1,0,0,,3,,,75,127
53663,note_off,112,0,0,,3,,,75,127
53664,note_on,1,0,0,,11,,,70,127
53769,note_off,105,0,0,,11,,,70,127
53776,note_off,7,0,0,,3,,,51,127
53777,note_on,1,0,0,,3,,,39,127
53777,note_on,0,0,0,,3,,,51,127
53777,note_on,0,0,0,,6,,,78,127
53889,note_off,112,0,0,,3,,,51,127
53889,note_off,0,0,0,,3,,,39,127
53890,note_on,1,0,0,,8,,,56,127
53890,note_on,0,0,0,,8,,,44,127
53890,note_on,0,0,0,,12,,,71,127
54002,note_off,112,0,0,,6,,,78,127
54003,note_on,1,0,0,,5,,,77,127
54115,note_off,112,0,0,,12,,,71,127
54115,note_off,0,0,0,,8,,,44,127
54115,note_off,0,0,0,,8,,,56,127
54116,note_on,1,0,0,,12,,,47,127
54116,note_on,0,0,0,,12,,,59,127
54116,note_on,0,0,0,,8,,,68,127
54228,note_off,112,0,0,,5,,,77,127
54229,note_on,1,0,0,,3,,,75,127
54341,note_off,112,0,0,,3,,,75,127
54341,note_off,0,0,0,,8,,,68,127
54341,note_off,0,0,0,,12,,,59,127
54341,note_off,0,0,0,,12,,,47,127
54342,note_on,1,0,0,,11,,,58,127
54342,note_on,0,0,0,,11,,,46,127
54342,note_on,0,0,0,,5,,,77,127
54454,note_off,112,0,0,,5,,,77,127
54455,note_on,1,0,0,,2,,,74,127
54567,note_off,112,0,0,,2,,,74,127
54568,note_on,1,0,0,,11,,,70,127
54673,note_off,105,0,0,,11,,,70,127
54680,note_off,7,0,0,,11,,,46,127
54680,note_off,0,0,0,,11,,,58,127
54681,note_on,1,0,0,,3,,,39,127
54681,note_on,0,0,0,,3,,,51,127
54681,note_on,0,0,0,,6,,,78,127
54793,note_off,112,0,0,,3,,,51,127
54793,note_off,0,0,0,,3,,,39,127
54794,note_on,1,0,0,,8,,,56,127
54794,note_on,0,0,0,,8,,,44,127
54794,note_on,0,0,0,,12,,,71,127
54906,note_off,112,0,0,,6,,,78,127
54907,note_on,1,0,0,,5,,,77,127
55019,note_off,112,0,0,,12,,,71,127
55019,note_off,0,0,0,,8,,,44,127
55019,note_off,0,0,0,,8,,,56,127
55020,note_on,1,0,0,,12,,,47,127
55020,note_on,0,0,0,,12,,,59,127
55020,note_on,0,0,0,,8,,,68,127
55132,note_off,112,0,0,,5,,,77,127
55133,note_on,1,0,0,,3,,,75,127
55245,note_off,112,0,0,,3,,,75,127
55245,note_off,0,0,0,,8,,,68,127
55245,note_off,0,0,0,,12,,,59,127
55245,note_off,0,0,0,,12,,,47,127
55246,note_on,1,0,0,,11,,,58,127
55246,note_on,0,0,0,,11,,,46,127
55246,note_on,0,0,0,,5,,,77,127
55358,note_off,112,0,0,,5,,,77,127
55359,note_on,1,0,0,,2,,,74,127
55471,note_off,112,0,0,,2,,,74,127
55471,note_off,0,0,0,,11,,,46,127
55471,note_off,0,0,0,,11,,,58,127
55472,note_on,1,0,0,,8,,,56,127
55472,note_on,0,0,0,,11,,,70,127
55584,note_off,112,0,0,,11,,,70,127
55585,note_on,1,0,0,,2,,,74,127
55697,note_off,112,0,0,,2,,,74,127
55697,note_off,0,0,0,,8,,,56,127
55698,note_on,1,0,0,,7,,,55,127
55698,note_on,0,0,0,,3,,,75,127
55810,note_off,112,0,0,,3,,,75,127
55811,note_on,1,0,0,,7,,,79,127
55923,note_off,112,0,0,,7,,,79,127
55923,note_off,0,0,0,,7,,,55,127
55924,note_on,1,0,0,,5,,,53,127
55924,note_on,0,0,0,,5,,,77,127
56036,note_off,112,0,0,,5,,,77,127
56037,note_on,1,0,0,,8,,,80,127
56149,note_off,112,0,0,,8,,,80,127
56149,note_off,0,0,0,,5,,,53,127
56150,note_on,1,0,0,,3,,,63,127
56150,note_on,0,0,0,,3,,,51,127
56150,note_on,0,0,0,,7,,,79,127
56262,note_off,112,0,0,,7,,,79,127
56263,note_on,1,0,0,,3,,,75,127
56375,note_off,112,0,0,,3,,,75,127
56375,note_off,0,0,0,,3,,,51,127
56375,note_off,0,0,0,,3,,,63,127
56376,note_on,1,0,0,,2,,,62,127
56376,note_on,0,0,0,,5,,,77,127
56488,note_off,112,0,0,,5,,,77,127
56489,note_on,1,0,0,,2,,,74,127
56601,note_off,112,0,0,,2,,,74,127
56601,note_off,0,0,0,,2,,,62,127
56602,note_on,1,0,0,,0,,,60,127
56602,note_on,0,0,0,,3,,,75,127
56714,note_off,112,0,0,,3,,,75,127
56715,note_on,1,0,0,,0,,,72,127
56827,note_off,112,0,0,,0,,,72,127
56827,note_off,0,0,0,,0,,,60,127
56828,note_on,1,0,0,,11,,,58,127
56828,note_on,0,0,0,,2,,,74,127
56940,note_off,112,0,0,,2,,,74,127
56941,note_on,1,0,0,,11,,,70,127
57053,note_off,112,0,0,,11,,,70,127
57053,note_off,0,0,0,,11,,,58,127
57054,note_on,1,0,0,,10,,,57,127
57054,note_on,0,0,0,,0,,,72,127
57166,note_off,112,0,0,,0,,,72,127
57167,note_on,1,0,0,,10,,,69,127
57279,note_off,112,0,0,,10,,,69,127
57279,note_off,0,0,0,,10,,,57,127
57280,note_on,1,0,0,,7,,,55,127
57280,note_on,0,0,0,,11,,,70,127
57392,note_off,112,0,0,,11,,,70,127
57393,note_on,1,0,0,,7,,,67,127
57505,note_off,112,0,0,,7,,,67,127
57505,note_off,0,0,0,,7,,,55,127
57506,note_on,1,0,0,,5,,,53,127
57506,note_on,0,0,0,,10,,,69,127
57618,note_off,112,0,0,,10,,,69,127
57619,note_on,1,0,0,,5,,,65,127
57731,note_off,112,0,0,,5,,,65,127
57731,note_off,0,0,0,,5,,,53,127
57732,note_on,1,0,0,,3,,,51,127
57732,note_on,0,0,0,,7,,,67,127
57844,note_off,112,0,0,,7,,,67,127
57845,note_on,1,0,0,,3,,,63,127
57957,note_off,112,0,0,,3,,,63,127
57957,note_off,0,0,0,,3,,,51,127
57958,note_on,1,0,0,,2,,,50,127
57958,note_on,0,0,0,,5,,,65,127
58070,note_off,112,0,0,,2,,,50,127
58071,note_on,1,0,0,,5,,,53,127
58146,note_off,75,0,0,,5,,,65,127
58182,note_off,36,0,0,,5,,,53,127
58183,note_on,1,0,0,,11,,,58,127
58183,note_on,0,0,0,,5,,,77,127
58295,note_off,112,0,0,,11,,,58,127
58296,note_on,1,0,0,,2,,,62,127
58408,note_off,112,0,0,,2,,,62,127
58409,note_on,1,0,0,,3,,,51,127
58521,note_off,112,0,0,,3,,,51,127
58522,note_on,1,0,0,,3,,,63,127
58634,note_off,112,0,0,,3,,,63,127
58634,note_off,0,0,0,,5,,,77,127
58635,note_on,1,0,0,,0,,,60,127
58635,note_on,0,0,0,,7,,,79,127
58747,note_off,112,0,0,,7,,,79,127
58747,note_off,0,0,0,,0,,,60,127
58748,note_on,1,0,0,,10,,,57,127
58748,note_on,0,0,0,,10,,,69,127
58860,note_off,112,0,0,,10,,,69,127
58860,note_off,0,0,0,,10,,,57,127
58861,note_on,1,0,0,,2,,,50,127
58861,note_on,0,0,0,,10,,,69,127
58973,note_off,112,0,0,,2,,,50,127
58974,note_on,1,0,0,,5,,,53,127
59086,note_off,112,0,0,,5,,,53,127
59086,note_off,0,0,0,,10,,,69,127
59087,note_on,1,0,0,,11,,,58,127
59087,note_on,0,0,0,,11,,,70,127
59199,note_off,112,0,0,,11,,,58,127
59200,note_on,1,0,0,,2,,,62,127
59312,note_off,112,0,0,,2,,,62,127
59313,note_on,1,0,0,,3,,,51,127
59425,note_off,112,0,0,,3,,,51,127
59426,note_on,1,0,0,,3,,,63,127
59522,note_off,96,0,0,,11,,,70,127
59537,note_off,15,0,0,,3,,,63,127
59538,note_on,1,0,0,,0,,,60,127
59538,note_on,0,0,0,,7,,,79,127
59650,note_off,112,0,0,,7,,,79,127
59650,note_off,0,0,0,,0,,,60,127
59651,note_on,1,0,0,,10,,,57,127
59651,note_on,0,0,0,,10,,,69,127
59763,note_off,112,0,0,,10,,,69,127
59763,note_off,0,0,0,,10,,,57,127
59764,note_on,1,0,0,,2,,,50,127
59764,note_on,0,0,0,,10,,,69,127
59876,note_off,112,0,0,,10,,,69,127
59876,note_off,0,0,0,,2,,,50,127
59877,note_on,1,0,0,,5,,,53,127
59877,note_on,0,0,0,,11,,,70,127
59989,note_off,112,0,0,,11,,,70,127
59989,note_off,0,0,0,,5,,,53,127
59990,note_on,1,0,0,,11,,,58,127
59990,note_on,0,0,0,,5,,,77,127
60102,note_off,112,0,0,,11,,,58,127
60103,note_on,1,0,0,,2,,,62,127
60215,note_off,112,0,0,,2,,,62,127
60216,note_on,1,0,0,,0,,,60,127
60328,note_off,112,0,0,,0,,,60,127
60329,note_on,1,0,0,,10,,,57,127
60441,note_off,112,0,0,,10,,,57,127
60441,note_off,0,0,0,,5,,,77,127
60442,note_on,1,0,0,,3,,,51,127
60442,note_on,0,0,0,,3,,,75,127
60554,note_off,112,0,0,,3,,,51,127
60555,note_on,1,0,0,,0,,,48,127
60667,note_off,112,0,0,,0,,,48,127
60668,note_on,1,0,0,,11,,,46,127
60780,note_off,112,0,0,,11,,,46,127
60781,note_on,1,0,0,,2,,,50,127
60893,note_off,112,0,0,,2,,,50,127
60893,note_off,0,0,0,,3,,,75,127
60894,note_on,1,0,0,,5,,,53,127
60894,note_on,0,0,0,,2,,,74,127
61006,note_off,112,0,0,,5,,,53,127
61007,note_on,1,0,0,,11,,,58,127
61119,note_off,112,0,0,,11,,,58,127
61120,note_on,1,0,0,,0,,,48,127
61232,note_off,112,0,0,,0,,,48,127
61233,note_on,1,0,0,,3,,,51,127
61345,note_off,112,0,0,,3,,,51,127
61345,note_off,0,0,0,,2,,,74,127
61346,note_on,1,0,0,,10,,,57,127
61346,note_on,0,0,0,,0,,,72,127
61458,note_off,112,0,0,,10,,,57,127
61459,note_on,1,0,0,,0,,,60,127
61571,note_off,112,0,0,,0,,,60,127
61571,note_off,0,0,0,,0,,,72,127
61572,note_on,1,0,0,,2,,,50,127
61572,note_on,0,0,0,,11,,,70,127
61684,note_off,112,0,0,,2,,,50,127
61685,note_on,1,0,0,,5,,,53,127
61772,note_off,87,0,0,,11,,,70,127
61797,note_off,25,0,0,,5,,,53,127
61798,note_on,1,0,0,,11,,,58,127
61798,note_on,0,0,0,,5,,,77,127
61910,note_off,112,0,0,,11,,,58,127
61911,note_on,1,0,0,,2,,,62,127
62023,note_off,112,0,0,,2,,,62,127
62024,note_on,1,0,0,,3,,,51,127
62136,note_off,112,0,0,,3,,,51,127
62137,note_on,1,0,0,,3,,,63,127
62249,note_off,112,0,0,,3,,,63,127
62249,note_off,0,0,0,,5,,,77,127
62250,note_on,1,0,0,,0,,,60,127
62250,note_on,0,0,0,,7,,,79,127
62362,note_off,112,0,0,,7,,,79,127
62362,note_off,0,0,0,,0,,,60,127
62363,note_on,1,0,0,,10,,,57,127
62363,note_on,0,0,0,,10,,,69,127
62475,note_off,112,0,0,,10,,,69,127
62475,note_off,0,0,0,,10,,,57,127
62476,note_on,1,0,0,,2,,,50,127
62476,note_on,0,0,0,,10,,,69,127
62588,note_off,112,0,0,,2,,,50,127
62589,note_on,1,0,0,,5,,,53,127
62701,note_off,112,0,0,,5,,,53,127
62701,note_off,0,0,0,,10,,,69,127
62702,note_on,1,0,0,,11,,,58,127
62702,note_on,0,0,0,,11,,,70,127
62814,note_off,112,0,0,,11,,,58,127
62815,note_on,1,0,0,,2,,,62,127
62927,note_off,112,0,0,,2,,,62,127
62928,note_on,1,0,0,,3,,,51,127
63040,note_off,112,0,0,,3,,,51,127
63041,note_on,1,0,0,,3,,,63,127
63102,note_off,61,0,0,,11,,,70,127
63153,note_off,51,0,0,,3,,,63,127
63154,note_on,1,0,0,,0,,,60,127
63154,note_on,0,0,0,,7,,,79,127
63266,note_off,112,0,0,,7,,,79,127
63266,note_off,0,0,0,,0,,,60,127
63267,note_on,1,0,0,,10,,,57,127
63267,note_on,0,0,0,,10,,,69,127
63379,note_off,112,0,0,,10,,,69,127
63379,note_off,0,0,0,,10,,,57,127
63380,note_on,1,0,0,,2,,,50,127
63380,note_on,0,0,0,,10,,,69,127
63492,note_off,112,0,0,,10,,,69,127
63492,note_off,0,0,0,,2,,,50,127
63493,note_on,1,0,0,,5,,,53,127
63493,note_on,0,0,0,,11,,,70,127
63605,note_off,112,0,0,,11,,,70,127
63605,note_off,0,0,0,,5,,,53,127
63606,note_on,1,0,0,,11,,,58,127
63606,note_on,0,0,0,,5,,,77,127
63718,note_off,112,0,0,,11,,,58,127
63719,note_on,1,0,0,,2,,,62,127
63831,note_off,112,0,0,,2,,,62,127
63832,note_on,1,0,0,,0,,,60,127
63944,note_off,112,0,0,,0,,,60,127
63945,note_on,1,0,0,,10,,,57,127
64057,note_off,112,0,0,,10,,,57,127
64057,note_off,0,0,0,,5,,,77,127
64058,note_on,1,0,0,,3,,,51,127
64058,note_on,0,0,0,,3,,,75,127
64170,note_off,112,0,0,,3,,,51,127
64171,note_on,1,0,0,,0,,,48,127
64283,note_off,112,0,0,,0,,,48,127
64284,note_on,1,0,0,,11,,,46,127
64396,note_off,112,0,0,,11,,,46,127
64397,note_on,1,0,0,,2,,,50,127
64509,note_off,112,0,0,,2,,,50,127
64509,note_off,0,0,0,,3,,,75,127
64510,note_on,1,0,0,,5,,,53,127
64510,note_on,0,0,0,,2,,,74,127
64622,note_off,112,0,0,,5,,,53,127
64623,note_on,1,0,0,,11,,,58,127
64735,note_off,112,0,0,,11,,,58,127
64736,note_on,1,0,0,,0,,,48,127
64848,note_off,112,0,0,,0,,,48,127
64849,note_on,1,0,0,,3,,,51,127
64961,note_off,112,0,0,,3,,,51,127
64961,note_off,0,0,0,,2,,,74,127
64962,note_on,1,0,0,,10,,,57,127
64962,note_on,0,0,0,,0,,,72,127
65074,note_off,112,0,0,,10,,,57,127
65075,note_on,1,0,0,,0,,,60,127
65164,note_off,89,0,0,,0,,,72,127
65186,note_off,22,0,0,,0,,,60,127
65187,note_on,1,0,0,,2,,,50,127
65187,note_on,0,0,0,,11,,,70,127
65299,note_off,112,0,0,,11,,,70,127
65300,note_on,1,0,0,,5,,,77,127
65412,note_off,112,0,0,,5,,,77,127
65412,note_off,0,0,0,,2,,,50,127
65413,note_on,1,0,0,,3,,,51,127
65413,note_on,0,0,0,,7,,,79,127
65525,note_off,112,0,0,,7,,,79,127
65526,note_on,1,0,0,,11,,,70,127
65638,note_off,112,0,0,,3,,,51,127
65639,note_on,1,0,0,,5,,,53,127
65751,note_off,112,0,0,,11,,,70,127
65752,note_on,1,0,0,,0,,,72,127
65864,note_off,112,0,0,,0,,,72,127
65865,note_on,1,0,0,,5,,,41,127
65865,note_on,0,0,0,,5,,,65,127
65977,note_off,112,0,0,,5,,,65,127
65978,note_on,1,0,0,,10,,,69,127
66090,note_off,112,0,0,,10,,,69,127
66090,note_off,0,0,0,,5,,,41,127
66090,note_off,0,0,0,,5,,,53,127
66091,note_on,1,0,0,,11,,,46,127
66091,note_on,0,0,0,,11,,,70,127
66204,note_on,113,0,0,,5,,,65,127
66315,note_off,111,0,0,,11,,,70,127
66316,note_off,1,0,0,,5,,,65,127
66317,note_on,1,0,0,,2,,,74,127
66429,note_off,112,0,0,,11,,,46,127
66430,note_on,1,0,0,,11,,,34,127
66430,note_on,0,0,0,,11,,,46,127
66542,note_off,112,0,0,,11,,,46,127
66542,note_off,0,0,0,,11,,,34,127
66543,note_on,1,0,0,,3,,,51,127
66543,note_on,0,0,0,,3,,,39,127
66543,note_on,0,0,0,,7,,,67,127
66655,note_off,112,0,0,,2,,,74,127
66656,note_on,1,0,0,,0,,,72,127
66768,note_off,112,0,0,,7,,,67,127
66768,note_off,0,0,0,,3,,,39,127
66768,note_off,0,0,0,,3,,,51,127
66769,note_on,1,0,0,,7,,,43,127
66769,note_on,0,0,0,,7,,,55,127
66769,note_on,0,0,0,,3,,,63,127
66881,note_off,112,0,0,,0,,,72,127
66882,note_on,1,0,0,,11,,,70,127
66994,note_off,112,0,0,,11,,,70,127
66994,note_off,0,0,0,,3,,,63,127
66994,note_off,0,0,0,,7,,,55,127
66994,note_off,0,0,0,,7,,,43,127
66995,note_on,1,0,0,,5,,,53,127
66995,note_on,0,0,0,,5,,,41,127
66995,note_on,0,0,0,,0,,,72,127
67108,note_on,113,0,0,,5,,,65,127
67219,note_off,111,0,0,,0,,,72,127
67220,note_off,1,0,0,,5,,,65,127
67221,note_on,1,0,0,,2,,,74,127
67333,note_off,112,0,0,,5,,,41,127
67333,note_off,0,0,0,,5,,,53,127
67334,note_on,1,0,0,,11,,,34,127
67334,note_on,0,0,0,,11,,,46,127
67446,note_off,112,0,0,,11,,,46,127
67446,note_off,0,0,0,,11,,,34,127
67447,note_on,1,0,0,,3,,,51,127
67447,note_on,0,0,0,,3,,,39,127
67447,note_on,0,0,0,,7,,,67,127
67559,note_off,112,0,0,,2,,,74,127
67560,note_on,1,0,0,,0,,,72,127
67672,note_off,112,0,0,,7,,,67,127
67672,note_off,0,0,0,,3,,,39,127
67672,note_off,0,0,0,,3,,,51,127
67673,note_on,1,0,0,,7,,,55,127
67673,note_on,0,0,0,,7,,,43,127
67673,note_on,0,0,0,,3,,,63,127
67785,note_off,112,0,0,,0,,,72,127
67786,note_on,1,0,0,,11,,,70,127
67898,note_off,112,0,0,,11,,,70,127
67898,note_off,0,0,0,,3,,,63,127
67898,note_off,0,0,0,,7,,,43,127
67898,note_off,0,0,0,,7,,,55,127
67899,note_on,1,0,0,,5,,,53,127
67899,note_on,0,0,0,,5,,,41,127
67899,note_on,0,0,0,,0,,,72,127
68012,note_on,113,0,0,,5,,,65,127
68123,note_off,111,0,0,,0,,,72,127
68124,note_off,1,0,0,,5,,,65,127
68125,note_on,1,0,0,,2,,,74,127
68237,note_off,112,0,0,,5,,,41,127
68237,note_off,0,0,0,,5,,,53,127
68238,note_on,1,0,0,,11,,,34,127
68238,note_on,0,0,0,,11,,,46,127
68350,note_off,112,0,0,,11,,,46,127
68350,note_off,0,0,0,,11,,,34,127
68351,note_on,1,0,0,,3,,,51,127
68351,note_on,0,0,0,,3,,,39,127
68351,note_on,0,0,0,,7,,,67,127
68463,note_off,112,0,0,,2,,,74,127
68464,note_on,1,0,0,,0,,,72,127
68576,note_off,112,0,0,,7,,,67,127
68576,note_off,0,0,0,,3,,,39,127
68576,note_off,0,0,0,,3,,,51,127
68577,note_on,1,0,0,,7,,,43,127
68577,note_on,0,0,0,,7,,,55,127
68577,note_on,0,0,0,,3,,,63,127
68689,note_off,112,0,0,,0,,,72,127
68690,note_on,1,0,0,,11,,,70,127
68802,note_off,112,0,0,,11,,,70,127
68802,note_off,0,0,0,,3,,,63,127
68802,note_off,0,0,0,,7,,,55,127
68802,note_off,0,0,0,,7,,,43,127
68803,note_on,1,0,0,,5,,,53,127
68803,note_on,0,0,0,,10,,,45,127
68803,note_on,0,0,0,,0,,,72,127
68915,note_off,112,0,0,,0,,,72,127
68916,note_on,1,0,0,,5,,,65,127
69028,note_off,112,0,0,,5,,,65,127
69028,note_off,0,0,0,,10,,,45,127
69028,note_off,0,0,0,,5,,,53,127
69029,note_on,1,0,0,,11,,,46,127
69029,note_on,0,0,0,,2,,,74,127
69141,note_off,112,0,0,,2,,,74,127
69142,note_on,1,0,0,,11,,,70,127
69254,note_off,112,0,0,,11,,,70,127
69254,note_off,0,0,0,,11,,,46,127
69255,note_on,1,0,0,,3,,,51,127
69255,note_on,0,0,0,,3,,,39,127
69255,note_on,0,0,0,,0,,,72,127
69367,note_off,112,0,0,,0,,,72,127
69368,note_on,1,0,0,,7,,,67,127
69480,note_off,112,0,0,,7,,,67,127
69480,note_off,0,0,0,,3,,,39,127
69480,note_off,0,0,0,,3,,,51,127
69481,note_on,1,0,0,,5,,,53,127
69481,note_on,0,0,0,,5,,,41,127
69481,note_on,0,0,0,,11,,,70,127
69593,note_off,112,0,0,,11,,,70,127
69594,note_on,1,0,0,,10,,,69,127
69706,note_off,112,0,0,,10,,,69,127
69706,note_off,0,0,0,,5,,,41,127
69706,note_off,0,0,0,,5,,,53,127
69707,note_on,1,0,0,,11,,,58,127
69707,note_on,0,0,0,,11,,,46,127
69707,note_on,0,0,0,,11,,,70,127
69819,note_off,112,0,0,,11,,,70,127
69820,note_on,1,0,0,,5,,,77,127
69932,note_off,112,0,0,,5,,,77,127
69933,note_on,1,0,0,,2,,,74,127
70045,note_off,112,0,0,,2,,,74,127
70045,note_off,0,0,0,,11,,,46,127
70045,note_off,0,0,0,,11,,,58,127
70046,note_on,1,0,0,,11,,,58,127
70046,note_on,0,0,0,,11,,,46,127
70046,note_on,0,0,0,,11,,,70,127
70158,note_off,112,0,0,,11,,,46,127
70158,note_off,0,0,0,,11,,,58,127
70159,note_on,1,0,0,,3,,,51,127
70159,note_on,0,0,0,,3,,,63,127
70271,note_off,112,0,0,,11,,,70,127
70272,note_on,1,0,0,,7,,,79,127
70384,note_off,112,0,0,,3,,,63,127
70384,note_off,0,0,0,,3,,,51,127
70385,note_on,1,0,0,,7,,,67,127
70385,note_on,0,0,0,,7,,,55,127
70497,note_off,112,0,0,,7,,,79,127
70498,note_on,1,0,0,,3,,,75,127
70610,note_off,112,0,0,,3,,,75,127
70610,note_off,0,0,0,,7,,,55,127
70610,note_off,0,0,0,,7,,,67,127
70611,note_on,1,0,0,,5,,,53,127
70611,note_on,0,0,0,,5,,,65,127
70611,note_on,0,0,0,,10,,,81,127
70723,note_off,112,0,0,,10,,,81,127
70724,note_on,1,0,0,,5,,,77,127
70836,note_off,112,0,0,,5,,,77,127
70837,note_on,1,0,0,,11,,,82,127
70941,note_off,104,0,0,,5,,,65,127
70941,note_off,0,0,0,,5,,,53,127
70950,note_on,9,0,0,,11,,,46,127
70950,note_on,0,0,0,,11,,,58,127
71062,note_off,112,0,0,,11,,,58,127
71062,note_off,0,0,0,,11,,,46,127
71063,note_on,1,0,0,,3,,,63,127
71063,note_on,0,0,0,,3,,,51,127
71096,note_off,33,0,0,,11,,,82,127
71176,note_on,80,0,0,,7,,,79,127
71288,note_off,112,0,0,,3,,,51,127
71288,note_off,0,0,0,,3,,,63,127
71289,note_on,1,0,0,,7,,,67,127
71289,note_on,0,0,0,,7,,,55,127
71401,note_off,112,0,0,,7,,,79,127
71402,note_on,1,0,0,,3,,,75,127
71514,note_off,112,0,0,,3,,,75,127
71514,note_off,0,0,0,,7,,,55,127
71514,note_off,0,0,0,,7,,,67,127
71515,note_on,1,0,0,,5,,,65,127
71515,note_on,0,0,0,,5,,,53,127
71515,note_on,0,0,0,,10,,,81,127
71627,note_off,112,0,0,,10,,,81,127
71628,note_on,1,0,0,,5,,,77,127
71740,note_off,112,0,0,,5,,,77,127
71741,note_on,1,0,0,,11,,,82,127
71845,note_off,104,0,0,,5,,,53,127
71845,note_off,0,0,0,,5,,,65,127
71854,note_on,9,0,0,,11,,,58,127
71854,note_on,0,0,0,,11,,,46,127
71966,note_off,112,0,0,,11,,,46,127
71966,note_off,0,0,0,,11,,,58,127
71967,note_on,1,0,0,,3,,,63,127
71967,note_on,0,0,0,,3,,,51,127
72000,note_off,33,0,0,,11,,,82,127
72080,note_on,80,0,0,,7,,,79,127
72192,note_off,112,0,0,,3,,,51,127
72192,note_off,0,0,0,,3,,,63,127
72193,note_on,1,0,0,,7,,,67,127
72193,note_on,0,0,0,,7,,,55,127
72305,note_off,112,0,0,,7,,,79,127
72306,note_on,1,0,0,,3,,,75,127
72418,note_off,112,0,0,,3,,,75,127
72418,note_off,0,0,0,,7,,,55,127
72418,note_off,0,0,0,,7,,,67,127
72419,note_on,1,0,0,,10,,,57,127
72419,note_on,0,0,0,,5,,,65,127
72419,note_on,0,0,0,,5,,,77,127
72531,note_off,112,0,0,,5,,,77,127
72532,note_on,1,0,0,,0,,,72,127
72644,note_off,112,0,0,,0,,,72,127
72644,note_off,0,0,0,,10,,,57,127
72645,note_on,1,0,0,,11,,,58,127
72645,note_on,0,0,0,,2,,,74,127
72757,note_off,112,0,0,,2,,,74,127
72758,note_on,1,0,0,,11,,,70,127
72870,note_off,112,0,0,,11,,,70,127
72870,note_off,0,0,0,,11,,,58,127
72870,note_off,0,0,0,,5,,,65,127
72871,note_on,1,0,0,,3,,,51,127
72871,note_on,0,0,0,,0,,,72,127
72983,note_off,112,0,0,,0,,,72,127
72984,note_on,1,0,0,,7,,,67,127
73096,note_off,112,0,0,,7,,,67,127
73096,note_off,0,0,0,,3,,,51,127
73097,note_on,1,0,0,,5,,,53,127
73097,note_on,0,0,0,,11,,,70,127
73209,note_off,112,0,0,,11,,,70,127
73210,note_on,1,0,0,,10,,,69,127
73285,note_off,75,0,0,,10,,,69,127
73321,note_off,36,0,0,,5,,,53,127
73322,note_on,1,0,0,,2,,,62,127
73434,note_off,112,0,0,,2,,,62,127
73435,note_on,1,0,0,,5,,,65,127
73547,note_off,112,0,0,,5,,,65,127
73548,note_on,1,0,0,,11,,,46,127
73548,note_on,0,0,0,,11,,,70,127
73660,note_off,112,0,0,,11,,,70,127
73661,note_on,1,0,0,,2,,,74,127
73773,note_off,112,0,0,,2,,,74,127
73774,note_on,1,0,0,,10,,,69,127
73886,note_off,112,0,0,,10,,,69,127
73887,note_on,1,0,0,,0,,,72,127
73999,note_off,112,0,0,,0,,,72,127
73999,note_off,0,0,0,,11,,,46,127
74000,note_on,1,0,0,,0,,,48,127
74000,note_on,0,0,0,,3,,,75,127
74112,note_off,112,0,0,,3,,,75,127
74113,note_on,1,0,0,,10,,,81,127
74225,note_off,112,0,0,,10,,,81,127
74226,note_on,1,0,0,,2,,,74,127
74338,note_off,112,0,0,,2,,,74,127
74339,note_on,1,0,0,,5,,,77,127
74451,note_off,112,0,0,,5,,,77,127
74451,note_off,0,0,0,,0,,,48,127
74452,note_on,1,0,0,,2,,,50,127
74452,note_on,0,0,0,,11,,,82,127
74564,note_off,112,0,0,,11,,,82,127
74565,note_on,1,0,0,,2,,,86,127
74677,note_off,112,0,0,,2,,,86,127
74677,note_off,0,0,0,,2,,,50,127
74678,note_on,1,0,0,,3,,,51,127
74678,note_on,0,0,0,,7,,,79,127
74790,note_off,112,0,0,,7,,,79,127
74791,note_on,1,0,0,,0,,,84,127
74903,note_off,112,0,0,,0,,,84,127
74903,note_off,0,0,0,,3,,,51,127
74904,note_on,1,0,0,,0,,,48,127
74904,note_on,0,0,0,,3,,,75,127
75016,note_off,112,0,0,,3,,,75,127
75017,note_on,1,0,0,,10,,,81,127
75129,note_off,112,0,0,,10,,,81,127
75129,note_off,0,0,0,,0,,,48,127
75130,note_on,1,0,0,,2,,,50,127
75130,note_on,0,0,0,,11,,,82,127
75242,note_off,112,0,0,,11,,,82,127
75243,note_on,1,0,0,,5,,,77,127
75355,note_off,112,0,0,,5,,,77,127
75355,note_off,0,0,0,,2,,,50,127
75356,note_on,1,0,0,,3,,,51,127
75356,note_on,0,0,0,,7,,,79,127
75468,note_off,112,0,0,,7,,,79,127
75469,note_on,1,0,0,,11,,,70,127
75581,note_off,112,0,0,,3,,,51,127
75582,note_on,1,0,0,,5,,,53,127
75694,note_off,112,0,0,,11,,,70,127
75695,note_on,1,0,0,,0,,,72,127
75807,note_off,112,0,0,,0,,,72,127
75808,note_on,1,0,0,,5,,,41,127
75808,note_on,0,0,0,,5,,,65,127
75920,note_off,112,0,0,,5,,,65,127
75921,note_on,1,0,0,,10,,,69,127
76025,note_off,104,0,0,,10,,,69,127
76033,note_off,8,0,0,,5,,,41,127
76033,note_off,0,0,0,,5,,,53,127
76034,note_on,1,0,0,,2,,,62,127
76146,note_off,112,0,0,,2,,,62,127
76147,note_on,1,0,0,,5,,,65,127
76259,note_off,112,0,0,,5,,,65,127
76260,note_on,1,0,0,,11,,,34,127
76260,note_on,0,0,0,,11,,,46,127
76260,note_on,0,0,0,,11,,,70,127
76372,note_off,112,0,0,,11,,,70,127
76373,note_on,1,0,0,,2,,,74,127
76485,note_off,112,0,0,,2,,,74,127
76486,note_on,1,0,0,,10,,,69,127
76598,note_off,112,0,0,,10,,,69,127
76599,note_on,1,0,0,,0,,,72,127
76711,note_off,112,0,0,,0,,,72,127
76711,note_off,0,0,0,,11,,,46,127
76711,note_off,0,0,0,,11,,,34,127
76712,note_on,1,0,0,,0,,,48,127
76712,note_on,0,0,0,,0,,,36,127
76712,note_on,0,0,0,,3,,,75,127
76824,note_off,112,0,0,,3,,,75,127
76825,note_on,1,0,0,,10,,,81,127
76937,note_off,112,0,0,,10,,,81,127
76938,note_on,1,0,0,,2,,,74,127
77050,note_off,112,0,0,,2,,,74,127
77051,note_on,1,0,0,,5,,,77,127
77163,note_off,112,0,0,,5,,,77,127
77163,note_off,0,0,0,,0,,,36,127
77163,note_off,0,0,0,,0,,,48,127
77164,note_on,1,0,0,,2,,,50,127
77164,note_on,0,0,0,,2,,,38,127
77164,note_on,0,0,0,,11,,,82,127
77276,note_off,112,0,0,,11,,,82,127
77277,note_on,1,0,0,,2,,,86,127
77389,note_off,112,0,0,,2,,,86,127
77389,note_off,0,0,0,,2,,,38,127
77389,note_off,0,0,0,,2,,,50,127
77390,note_on,1,0,0,,3,,,51,127
77390,note_on,0,0,0,,3,,,39,127
77390,note_on,0,0,0,,7,,,79,127
77502,note_off,112,0,0,,7,,,79,127
77503,note_on,1,0,0,,0,,,84,127
77615,note_off,112,0,0,,0,,,84,127
77615,note_off,0,0,0,,3,,,39,127
77615,note_off,0,0,0,,3,,,51,127
77616,note_on,1,0,0,,0,,,48,127
77616,note_on,0,0,0,,0,,,36,127
77616,note_on,0,0,0,,3,,,75,127
77728,note_off,112,0,0,,3,,,75,127
77729,note_on,1,0,0,,10,,,81,127
77841,note_off,112,0,0,,10,,,81,127
77841,note_off,0,0,0,,0,,,36,127
77841,note_off,0,0,0,,0,,,48,127
77842,note_on,1,0,0,,2,,,38,127
77842,note_on,0,0,0,,2,,,50,127
77842,note_on,0,0,0,,11,,,82,127
77954,note_off,112,0,0,,11,,,82,127
77955,note_on,1,0,0,,5,,,77,127
78067,note_off,112,0,0,,5,,,77,127
78067,note_off,0,0,0,,2,,,50,127
78067,note_off,0,0,0,,2,,,38,127
78068,note_on,1,0,0,,3,,,51,127
78068,note_on,0,0,0,,3,,,39,127
78068,note_on,0,0,0,,7,,,79,127
78180,note_off,112,0,0,,7,,,79,127
78181,note_on,1,0,0,,11,,,70,127
78293,note_off,112,0,0,,3,,,39,127
78293,note_off,0,0,0,,3,,,51,127
78294,note_on,1,0,0,,5,,,53,127
78294,note_on,0,0,0,,5,,,41,127
78381,note_off,87,0,0,,11,,,70,127
78407,note_on,26,0,0,,0,,,72,127
78519,note_off,112,0,0,,0,,,72,127
78519,note_off,0,0,0,,5,,,41,127
78519,note_off,0,0,0,,5,,,53,127
78520,note_on,1,0,0,,3,,,51,127
78520,note_on,0,0,0,,3,,,39,127
78520,note_on,0,0,0,,5,,,65,127
78632,note_off,112,0,0,,5,,,65,127
78633,note_on,1,0,0,,10,,,69,127
78745,note_off,112,0,0,,10,,,69,127
78745,note_off,0,0,0,,3,,,39,127
78745,note_off,0,0,0,,3,,,51,127
78746,note_on,1,0,0,,2,,,38,127
78746,note_on,0,0,0,,2,,,50,127
78746,note_on,0,0,0,,11,,,70,127
78858,note_off,112,0,0,,11,,,70,127
78866,note_on,8,0,0,,5,,,65,127
78971,note_off,105,0,0,,2,,,50,127
78971,note_off,0,0,0,,2,,,38,127
78987,note_off,16,0,0,,5,,,65,127
78991,note_on,4,0,0,,3,,,51,127
78991,note_on,0,0,0,,3,,,39,127
78991,note_on,0,0,0,,7,,,67,127
79112,note_off,121,0,0,,7,,,67,127
79114,note_on,2,0,0,,3,,,63,127
79235,note_off,121,0,0,,3,,,63,127
79237,note_off,2,0,0,,3,,,39,127
79237,note_off,0,0,0,,3,,,51,127
79238,note_on,1,0,0,,5,,,53,127
79238,note_on,0,0,0,,2,,,62,127
79363,note_on,125,0,0,,11,,,70,127
79374,note_off,11,0,0,,2,,,62,127
79488,note_on,114,0,0,,5,,,41,127
79488,note_on,0,0,0,,0,,,60,127
79499,note_off,11,0,0,,11,,,70,127
79613,note_on,114,0,0,,10,,,69,127
79624,note_off,11,0,0,,0,,,60,127
79736,note_off,112,0,0,,5,,,41,127
79736,note_off,0,0,0,,5,,,53,127
79754,note_off,18,0,0,,10,,,69,127
79761,note_on,7,0,0,,11,,,46,127
79761,note_on,0,0,0,,11,,,70,127
79761,note_on,0,0,0,,11,,,34,127
81628,note_off,1867,0,0,,11,,,34,127
81628,note_off,0,0,0,,11,,,70,127
81628,note_off,0,0,0,,11,,,46,127
87552,end_of_track,5924,1,0,,,,,,
