tick,type,time,meta,track,program,channel,pitch,tempo,note,velocity
0,copyright,0,1,0,,,,,,
0,program_change,0,0,0,6,0,,,,
0,pitchwheel,0,0,0,,0,0,,,
0,program_change,0,0,0,6,1,,,,
0,pitchwheel,0,0,0,,1,-590,,,
0,program_change,0,0,0,6,2,,,,
0,pitchwheel,0,0,0,,2,-272,,,
0,program_change,0,0,0,6,3,,,,
0,pitchwheel,0,0,0,,3,-353,,,
0,program_change,0,0,0,6,4,,,,
0,pitchwheel,0,0,0,,4,-560,,,
0,program_change,0,0,0,6,5,,,,
0,pitchwheel,0,0,0,,5,-80,,,
0,program_change,0,0,0,6,6,,,,
0,pitchwheel,0,0,0,,6,-625,,,
0,program_change,0,0,0,6,7,,,,
0,pitchwheel,0,0,0,,7,-130,,,
0,program_change,0,0,0,6,8,,,,
0,pitchwheel,0,0,0,,8,-512,,,
0,program_change,0,0,0,6,10,,,,
0,pitchwheel,0,0,0,,10,-464,,,
0,program_change,0,0,0,6,11,,,,
0,pitchwheel,0,0,0,,11,-208,,,
0,program_change,0,0,0,6,12,,,,
0,pitchwheel,0,0,0,,12,-553,,,
0,set_tempo,0,1,0,,,,500000,,
121,note_on,121,0,0,,7,,,79,127
362,note_off,241,0,0,,7,,,79,127
363,note_on,1,0,0,,2,,,74,127
604,note_off,241,0,0,,2,,,74,127
605,note_on,1,0,0,,2,,,74,127
846,note_off,241,0,0,,2,,,74,127
847,note_on,1,0,0,,2,,,74,127
927,note_off,80,0,0,,2,,,74,127
928,note_on,1,0,0,,0,,,72,127
1008,note_off,80,0,0,,0,,,72,127
1009,note_on,1,0,0,,11,,,70,127
1089,note_off,80,0,0,,11,,,70,127
1090,note_on,1,0,0,,7,,,67,127
1090,note_on,0,0,0,,0,,,72,127
1170,note_off,80,0,0,,0,,,72,127
1171,note_on,1,0,0,,11,,,70,127
1251,note_off,80,0,0,,11,,,70,127
1252,note_on,1,0,0,,0,,,72,127
1332,note_off,80,0,0,,0,,,72,127
1333,note_on,1,0,0,,11,,,58,127
1333,note_on,0,0,0,,11,,,70,127
1413,note_off,80,0,0,,11,,,70,127
1414,note_on,1,0,0,,10,,,69,127
1494,note_off,80,0,0,,10,,,69,127
1495,note_on,1,0,0,,11,,,70,127
1571,note_off,76,0,0,,7,,,67,127
1575,note_off,4,0,0,,11,,,70,127
1575,note_off,0,0,0,,11,,,58,127
1576,note_on,1,0,0,,0,,,60,127
1576,note_on,0,0,0,,7,,,67,127
1576,note_on,0,0,0,,10,,,69,127
1817,note_off,241,0,0,,0,,,60,127
1818,note_on,1,0,0,,2,,,62,127
1980,note_off,162,0,0,,10,,,69,127
2056,note_off,76,0,0,,7,,,67,127
2061,note_on,5,0,0,,6,,,66,127
2061,note_on,0,0,0,,0,,,72,127
2298,note_off,237,0,0,,2,,,62,127
2301,note_off,3,0,0,,6,,,66,127
2302,note_off,1,0,0,,0,,,72,127
2303,note_on,1,0,0,,2,,,74,127
2383,note_off,80,0,0,,2,,,74,127
2384,note_on,1,0,0,,0,,,72,127
2464,note_off,80,0,0,,0,,,72,127
2465,note_on,1,0,0,,11,,,70,127
2545,note_off,80,0,0,,11,,,70,127
2546,note_on,1,0,0,,7,,,67,127
2546,note_on,0,0,0,,0,,,72,127
2626,note_off,80,0,0,,0,,,72,127
2627,note_on,1,0,0,,11,,,70,127
2707,note_off,80,0,0,,11,,,70,127
2708,note_on,1,0,0,,0,,,72,127
2788,note_off,80,0,0,,0,,,72,127
2789,note_on,1,0,0,,11,,,58,127
2789,note_on,0,0,0,,11,,,70,127
2869,note_off,80,0,0,,11,,,70,127
2870,note_on,1,0,0,,10,,,69,127
2950,note_off,80,0,0,,10,,,69,127
2951,note_on,1,0,0,,11,,,70,127
3027,note_off,76,0,0,,7,,,67,127
3031,note_off,4,0,0,,11,,,70,127
3031,note_off,0,0,0,,11,,,58,127
3032,note_on,1,0,0,,7,,,67,127
3032,note_on,0,0,0,,0,,,60,127
3032,note_on,0,0,0,,10,,,69,127
3273,note_off,241,0,0,,0,,,60,127
3274,note_on,1,0,0,,2,,,62,127
3474,note_off,200,0,0,,10,,,69,127
3512,note_off,38,0,0,,7,,,67,127
3517,note_on,5,0,0,,6,,,66,127
3517,note_on,0,0,0,,0,,,72,127
3754,note_off,237,0,0,,2,,,62,127
3758,note_off,4,0,0,,0,,,72,127
3759,note_on,1,0,0,,2,,,74,127
3839,note_off,80,0,0,,2,,,74,127
3840,note_on,1,0,0,,0,,,72,127
3880,note_off,40,0,0,,6,,,66,127
3919,note_off,39,0,0,,0,,,72,127
3920,note_on,1,0,0,,11,,,70,127
4000,note_off,80,0,0,,11,,,70,127
4001,note_on,1,0,0,,7,,,67,127
4001,note_on,0,0,0,,0,,,72,127
4081,note_off,80,0,0,,0,,,72,127
4082,note_on,1,0,0,,11,,,70,127
4162,note_off,80,0,0,,11,,,70,127
4163,note_on,1,0,0,,0,,,72,127
4243,note_off,80,0,0,,0,,,72,127
4244,note_on,1,0,0,,11,,,58,127
4244,note_on,0,0,0,,11,,,70,127
4324,note_off,80,0,0,,11,,,70,127
4325,note_on,1,0,0,,10,,,69,127
4405,note_off,80,0,0,,10,,,69,127
4406,note_on,1,0,0,,11,,,70,127
4482,note_off,76,0,0,,7,,,67,127
4486,note_off,4,0,0,,11,,,70,127
4486,note_off,0,0,0,,11,,,58,127
4487,note_on,1,0,0,,0,,,60,127
4487,note_on,0,0,0,,7,,,67,127
4487,note_on,0,0,0,,10,,,69,127
4728,note_off,241,0,0,,10,,,69,127
4728,note_off,0,0,0,,0,,,60,127
4729,note_on,1,0,0,,2,,,62,127
4729,note_on,0,0,0,,11,,,70,127
4966,note_off,237,0,0,,7,,,67,127
4970,note_off,4,0,0,,11,,,70,127
4971,note_on,1,0,0,,6,,,66,127
4971,note_on,0,0,0,,0,,,72,127
5208,note_off,237,0,0,,2,,,62,127
5212,note_off,4,0,0,,0,,,72,127
5212,note_off,0,0,0,,6,,,66,127
5213,note_on,1,0,0,,7,,,67,127
5213,note_on,0,0,0,,11,,,70,127
5293,note_off,80,0,0,,11,,,70,127
5294,note_on,1,0,0,,10,,,69,127
5371,note_off,77,0,0,,7,,,67,127
5374,note_off,3,0,0,,10,,,69,127
5375,note_on,1,0,0,,7,,,67,127
5455,note_off,80,0,0,,7,,,67,127
5456,note_on,1,0,0,,7,,,55,127
5456,note_on,0,0,0,,7,,,67,127
5697,note_off,241,0,0,,7,,,55,127
5698,note_on,1,0,0,,2,,,50,127
5819,note_off,121,0,0,,7,,,67,127
5939,note_off,120,0,0,,2,,,50,127
5940,note_on,1,0,0,,7,,,43,127
6183,note_on,243,0,0,,11,,,82,127
6263,note_off,80,0,0,,11,,,82,127
6264,note_on,1,0,0,,10,,,81,127
6304,note_off,40,0,0,,7,,,43,127
6343,note_off,39,0,0,,10,,,81,127
6344,note_on,1,0,0,,7,,,79,127
6424,note_off,80,0,0,,7,,,79,127
6425,note_on,1,0,0,,5,,,77,127
6505,note_off,80,0,0,,5,,,77,127
6506,note_on,1,0,0,,4,,,76,127
6586,note_off,80,0,0,,4,,,76,127
6587,note_on,1,0,0,,2,,,74,127
6667,note_off,80,0,0,,2,,,74,127
6668,note_on,1,0,0,,1,,,73,127
6748,note_off,80,0,0,,1,,,73,127
6749,note_on,1,0,0,,12,,,71,127
6829,note_off,80,0,0,,12,,,71,127
6830,note_on,1,0,0,,10,,,69,127
6910,note_off,80,0,0,,10,,,69,127
6911,note_on,1,0,0,,7,,,67,127
6991,note_off,80,0,0,,7,,,67,127
6992,note_on,1,0,0,,5,,,65,127
7072,note_off,80,0,0,,5,,,65,127
7073,note_on,1,0,0,,4,,,64,127
7153,note_off,80,0,0,,4,,,64,127
7154,note_on,1,0,0,,11,,,58,127
7154,note_on,0,0,0,,4,,,64,127
7226,note_off,72,0,0,,4,,,64,127
7227,note_on,1,0,0,,2,,,62,127
7298,note_off,71,0,0,,2,,,62,127
7299,note_on,1,0,0,,4,,,64,127
7371,note_off,72,0,0,,4,,,64,127
7372,note_on,1,0,0,,2,,,62,127
7395,note_off,23,0,0,,11,,,58,127
7396,note_on,1,0,0,,7,,,55,127
7443,note_off,47,0,0,,2,,,62,127
7444,note_on,1,0,0,,4,,,64,127
7516,note_off,72,0,0,,4,,,64,127
7517,note_on,1,0,0,,2,,,62,127
7588,note_off,71,0,0,,2,,,62,127
7589,note_on,1,0,0,,4,,,64,127
7637,note_off,48,0,0,,7,,,55,127
7638,note_on,1,0,0,,4,,,52,127
7661,note_off,23,0,0,,4,,,64,127
7662,note_on,1,0,0,,2,,,62,127
7733,note_off,71,0,0,,2,,,62,127
7734,note_on,1,0,0,,1,,,61,127
7806,note_off,72,0,0,,1,,,61,127
7807,note_on,1,0,0,,2,,,62,127
7879,note_off,72,0,0,,2,,,62,127
7879,note_off,0,0,0,,4,,,52,127
7880,note_on,1,0,0,,1,,,49,127
7880,note_on,0,0,0,,5,,,65,127
7952,note_off,72,0,0,,5,,,65,127
7953,note_on,1,0,0,,4,,,64,127
8024,note_off,71,0,0,,4,,,64,127
8025,note_on,1,0,0,,5,,,65,127
8097,note_off,72,0,0,,5,,,65,127
8098,note_on,1,0,0,,4,,,64,127
8121,note_off,23,0,0,,1,,,49,127
8122,note_on,1,0,0,,10,,,45,127
8169,note_off,47,0,0,,4,,,64,127
8170,note_on,1,0,0,,5,,,65,127
8243,note_on,73,0,0,,4,,,64,127
8246,note_off,3,0,0,,5,,,65,127
8314,note_off,68,0,0,,4,,,64,127
8315,note_on,1,0,0,,5,,,65,127
8363,note_off,48,0,0,,10,,,45,127
8364,note_on,1,0,0,,1,,,49,127
8388,note_on,24,0,0,,4,,,64,127
8391,note_off,3,0,0,,5,,,65,127
8459,note_off,68,0,0,,4,,,64,127
8460,note_on,1,0,0,,5,,,65,127
8532,note_off,72,0,0,,5,,,65,127
8533,note_on,1,0,0,,7,,,67,127
8605,note_off,72,0,0,,7,,,67,127
8605,note_off,0,0,0,,1,,,49,127
8606,note_on,1,0,0,,2,,,50,127
8606,note_on,0,0,0,,5,,,65,127
8686,note_off,80,0,0,,5,,,65,127
8687,note_on,1,0,0,,4,,,64,127
8767,note_off,80,0,0,,4,,,64,127
8768,note_on,1,0,0,,2,,,62,127
8848,note_off,80,0,0,,2,,,50,127
8849,note_on,1,0,0,,2,,,38,127
8930,note_off,81,0,0,,2,,,62,127
9092,note_on,162,0,0,,8,,,80,127
9172,note_off,80,0,0,,8,,,80,127
9173,note_on,1,0,0,,7,,,79,127
9213,note_off,40,0,0,,2,,,38,127
9252,note_off,39,0,0,,7,,,79,127
9253,note_on,1,0,0,,5,,,77,127
9333,note_off,80,0,0,,5,,,77,127
9334,note_on,1,0,0,,3,,,75,127
9414,note_off,80,0,0,,3,,,75,127
9415,note_on,1,0,0,,2,,,74,127
9495,note_off,80,0,0,,2,,,74,127
9496,note_on,1,0,0,,0,,,72,127
9576,note_off,80,0,0,,0,,,72,127
9577,note_on,1,0,0,,12,,,71,127
9657,note_off,80,0,0,,12,,,71,127
9658,note_on,1,0,0,,8,,,68,127
9738,note_off,80,0,0,,8,,,68,127
9739,note_on,1,0,0,,7,,,67,127
9819,note_off,80,0,0,,7,,,67,127
9820,note_on,1,0,0,,5,,,65,127
9900,note_off,80,0,0,,5,,,65,127
9901,note_on,1,0,0,,3,,,63,127
9981,note_off,80,0,0,,3,,,63,127
9982,note_on,1,0,0,,2,,,62,127
10062,note_off,80,0,0,,2,,,62,127
10063,note_on,1,0,0,,8,,,56,127
10063,note_on,0,0,0,,2,,,62,127
10135,note_off,72,0,0,,2,,,62,127
10136,note_on,1,0,0,,0,,,60,127
10207,note_off,71,0,0,,0,,,60,127
10208,note_on,1,0,0,,2,,,62,127
10280,note_off,72,0,0,,2,,,62,127
10281,note_on,1,0,0,,0,,,60,127
10304,note_off,23,0,0,,8,,,56,127
10305,note_on,1,0,0,,5,,,53,127
10352,note_off,47,0,0,,0,,,60,127
10353,note_on,1,0,0,,2,,,62,127
10425,note_off,72,0,0,,2,,,62,127
10426,note_on,1,0,0,,0,,,60,127
10497,note_off,71,0,0,,0,,,60,127
10498,note_on,1,0,0,,2,,,62,127
10546,note_off,48,0,0,,5,,,53,127
10547,note_on,1,0,0,,2,,,50,127
10570,note_off,23,0,0,,2,,,62,127
10571,note_on,1,0,0,,0,,,60,127
10642,note_off,71,0,0,,0,,,60,127
10643,note_on,1,0,0,,12,,,59,127
10715,note_off,72,0,0,,12,,,59,127
10716,note_on,1,0,0,,0,,,60,127
10788,note_off,72,0,0,,0,,,60,127
10788,note_off,0,0,0,,2,,,50,127
10789,note_on,1,0,0,,12,,,47,127
10789,note_on,0,0,0,,3,,,63,127
10861,note_off,72,0,0,,3,,,63,127
10862,note_on,1,0,0,,2,,,62,127
10933,note_off,71,0,0,,2,,,62,127
10934,note_on,1,0,0,,3,,,63,127
11006,note_off,72,0,0,,3,,,63,127
11007,note_on,1,0,0,,2,,,62,127
11030,note_off,23,0,0,,12,,,47,127
11031,note_on,1,0,0,,7,,,43,127
11078,note_off,47,0,0,,2,,,62,127
11079,note_on,1,0,0,,3,,,63,127
11151,note_off,72,0,0,,3,,,63,127
11152,note_on,1,0,0,,2,,,62,127
11223,note_off,71,0,0,,2,,,62,127
11224,note_on,1,0,0,,3,,,63,127
11272,note_off,48,0,0,,7,,,43,127
11273,note_on,1,0,0,,12,,,47,127
11296,note_off,23,0,0,,3,,,63,127
11297,note_on,1,0,0,,2,,,62,127
11368,note_off,71,0,0,,2,,,62,127
11369,note_on,1,0,0,,3,,,63,127
11441,note_off,72,0,0,,3,,,63,127
11442,note_on,1,0,0,,5,,,65,127
11514,note_off,72,0,0,,5,,,65,127
11514,note_off,0,0,0,,12,,,47,127
11515,note_on,1,0,0,,0,,,48,127
11515,note_on,0,0,0,,3,,,63,127
11595,note_off,80,0,0,,3,,,63,127
11596,note_on,1,0,0,,2,,,62,127
11676,note_off,80,0,0,,2,,,62,127
11677,note_on,1,0,0,,0,,,60,127
11757,note_off,80,0,0,,0,,,48,127
11758,note_on,1,0,0,,0,,,36,127
11839,note_off,81,0,0,,0,,,60,127
12001,note_on,162,0,0,,7,,,79,127
12081,note_off,80,0,0,,7,,,79,127
12082,note_on,1,0,0,,5,,,77,127
12122,note_off,40,0,0,,0,,,36,127
12161,note_off,39,0,0,,5,,,77,127
12162,note_on,1,0,0,,3,,,75,127
12242,note_off,80,0,0,,3,,,75,127
12243,note_on,1,0,0,,2,,,74,127
12323,note_off,80,0,0,,2,,,74,127
12324,note_on,1,0,0,,0,,,72,127
12404,note_off,80,0,0,,0,,,72,127
12405,note_on,1,0,0,,11,,,70,127
12485,note_off,80,0,0,,11,,,70,127
12486,note_on,1,0,0,,10,,,69,127
12566,note_off,80,0,0,,10,,,69,127
12567,note_on,1,0,0,,7,,,67,127
12647,note_off,80,0,0,,7,,,67,127
12648,note_on,1,0,0,,5,,,65,127
12728,note_off,80,0,0,,5,,,65,127
12729,note_on,1,0,0,,3,,,63,127
12809,note_off,80,0,0,,3,,,63,127
12810,note_on,1,0,0,,2,,,62,127
12890,note_off,80,0,0,,2,,,62,127
12891,note_on,1,0,0,,0,,,60,127
12971,note_off,80,0,0,,0,,,60,127
12972,note_on,1,0,0,,7,,,55,127
12972,note_on,0,0,0,,0,,,60,127
13044,note_off,72,0,0,,0,,,60,127
13045,note_on,1,0,0,,11,,,58,127
13116,note_off,71,0,0,,11,,,58,127
13117,note_on,1,0,0,,0,,,60,127
13189,note_off,72,0,0,,0,,,60,127
13190,note_on,1,0,0,,11,,,58,127
13213,note_off,23,0,0,,7,,,55,127
13214,note_on,1,0,0,,3,,,51,127
13261,note_off,47,0,0,,11,,,58,127
13262,note_on,1,0,0,,0,,,60,127
13334,note_off,72,0,0,,0,,,60,127
13335,note_on,1,0,0,,11,,,58,127
13406,note_off,71,0,0,,11,,,58,127
13407,note_on,1,0,0,,0,,,60,127
13455,note_off,48,0,0,,3,,,51,127
13456,note_on,1,0,0,,0,,,48,127
13479,note_off,23,0,0,,0,,,60,127
13480,note_on,1,0,0,,11,,,58,127
13551,note_off,71,0,0,,11,,,58,127
13552,note_on,1,0,0,,10,,,57,127
13624,note_off,72,0,0,,10,,,57,127
13625,note_on,1,0,0,,11,,,58,127
13697,note_off,72,0,0,,11,,,58,127
13697,note_off,0,0,0,,0,,,48,127
13698,note_on,1,0,0,,10,,,45,127
13698,note_on,0,0,0,,2,,,62,127
13770,note_off,72,0,0,,2,,,62,127
13771,note_on,1,0,0,,0,,,60,127
13842,note_off,71,0,0,,0,,,60,127
13843,note_on,1,0,0,,2,,,62,127
13915,note_off,72,0,0,,2,,,62,127
13916,note_on,1,0,0,,0,,,60,127
13939,note_off,23,0,0,,10,,,45,127
13940,note_on,1,0,0,,5,,,41,127
13987,note_off,47,0,0,,0,,,60,127
13988,note_on,1,0,0,,2,,,62,127
14060,note_off,72,0,0,,2,,,62,127
14061,note_on,1,0,0,,0,,,60,127
14132,note_off,71,0,0,,0,,,60,127
14133,note_on,1,0,0,,2,,,62,127
14181,note_off,48,0,0,,5,,,41,127
14182,note_on,1,0,0,,10,,,45,127
14205,note_off,23,0,0,,2,,,62,127
14206,note_on,1,0,0,,0,,,60,127
14277,note_off,71,0,0,,0,,,60,127
14278,note_on,1,0,0,,2,,,62,127
14350,note_off,72,0,0,,2,,,62,127
14351,note_on,1,0,0,,3,,,63,127
14423,note_off,72,0,0,,3,,,63,127
14423,note_off,0,0,0,,10,,,45,127
14424,note_on,1,0,0,,11,,,46,127
14424,note_on,0,0,0,,2,,,62,127
14504,note_off,80,0,0,,2,,,62,127
14505,note_on,1,0,0,,0,,,60,127
14585,note_off,80,0,0,,0,,,60,127
14586,note_on,1,0,0,,11,,,58,127
14666,note_off,80,0,0,,11,,,46,127
14667,note_on,1,0,0,,11,,,34,127
14908,note_off,241,0,0,,11,,,34,127
14908,note_off,0,0,0,,11,,,58,127
14909,note_on,1,0,0,,2,,,62,127
14909,note_on,0,0,0,,5,,,65,127
14909,note_on,0,0,0,,0,,,72,127
14968,note_off,59,0,0,,0,,,72,127
14969,note_on,1,0,0,,11,,,70,127
15028,note_off,59,0,0,,11,,,70,127
15029,note_on,1,0,0,,0,,,72,127
15088,note_off,59,0,0,,0,,,72,127
15089,note_on,1,0,0,,11,,,70,127
15148,note_off,59,0,0,,11,,,70,127
15148,note_off,0,0,0,,5,,,65,127
15148,note_off,0,0,0,,2,,,62,127
15149,note_on,1,0,0,,11,,,58,127
15149,note_on,0,0,0,,2,,,62,127
15149,note_on,0,0,0,,0,,,72,127
15208,note_off,59,0,0,,0,,,72,127
15209,note_on,1,0,0,,11,,,70,127
15268,note_off,59,0,0,,11,,,70,127
15269,note_on,1,0,0,,10,,,69,127
15328,note_off,59,0,0,,10,,,69,127
15329,note_on,1,0,0,,11,,,70,127
15388,note_off,59,0,0,,11,,,70,127
15388,note_off,0,0,0,,2,,,62,127
15388,note_off,0,0,0,,11,,,58,127
15389,note_on,1,0,0,,3,,,63,127
15389,note_on,0,0,0,,7,,,67,127
15630,note_off,241,0,0,,7,,,67,127
15630,note_off,0,0,0,,3,,,63,127
15631,note_on,1,0,0,,5,,,65,127
15631,note_on,0,0,0,,2,,,62,127
15631,note_on,0,0,0,,0,,,84,127
15690,note_off,59,0,0,,0,,,84,127
15691,note_on,1,0,0,,11,,,82,127
15750,note_off,59,0,0,,11,,,82,127
15751,note_on,1,0,0,,0,,,84,127
15810,note_off,59,0,0,,0,,,84,127
15811,note_on,1,0,0,,11,,,82,127
15870,note_off,59,0,0,,11,,,82,127
15870,note_off,0,0,0,,2,,,62,127
15871,note_on,1,0,0,,11,,,58,127
15871,note_on,0,0,0,,0,,,84,127
15930,note_off,59,0,0,,0,,,84,127
15931,note_on,1,0,0,,11,,,82,127
15990,note_off,59,0,0,,11,,,82,127
15991,note_on,1,0,0,,10,,,81,127
16050,note_off,59,0,0,,10,,,81,127
16051,note_on,1,0,0,,11,,,82,127
16107,note_off,56,0,0,,5,,,65,127
16111,note_off,4,0,0,,11,,,82,127
16111,note_off,0,0,0,,11,,,58,127
16112,note_on,1,0,0,,7,,,67,127
16112,note_on,0,0,0,,3,,,63,127
16112,note_on,0,0,0,,7,,,79,127
16353,note_off,241,0,0,,7,,,79,127
16353,note_off,0,0,0,,3,,,63,127
16353,note_off,0,0,0,,7,,,67,127
16354,note_on,1,0,0,,2,,,62,127
16354,note_on,0,0,0,,5,,,65,127
16354,note_on,0,0,0,,0,,,72,127
16413,note_off,59,0,0,,0,,,72,127
16414,note_on,1,0,0,,11,,,70,127
16473,note_off,59,0,0,,11,,,70,127
16474,note_on,1,0,0,,0,,,72,127
16533,note_off,59,0,0,,0,,,72,127
16534,note_on,1,0,0,,11,,,70,127
16593,note_off,59,0,0,,11,,,70,127
16593,note_off,0,0,0,,2,,,62,127
16594,note_on,1,0,0,,11,,,58,127
16594,note_on,0,0,0,,0,,,72,127
16653,note_off,59,0,0,,0,,,72,127
16654,note_on,1,0,0,,11,,,70,127
16713,note_off,59,0,0,,11,,,70,127
16714,note_on,1,0,0,,10,,,69,127
16773,note_off,59,0,0,,10,,,69,127
16774,note_on,1,0,0,,11,,,70,127
16830,note_off,56,0,0,,5,,,65,127
16834,note_off,4,0,0,,11,,,70,127
16834,note_off,0,0,0,,11,,,58,127
16835,note_on,1,0,0,,3,,,63,127
16835,note_on,0,0,0,,7,,,67,127
17076,note_off,241,0,0,,7,,,67,127
17076,note_off,0,0,0,,3,,,63,127
17077,note_on,1,0,0,,2,,,62,127
17077,note_on,0,0,0,,5,,,65,127
17077,note_on,0,0,0,,0,,,84,127
17157,note_off,80,0,0,,0,,,84,127
17158,note_on,1,0,0,,11,,,82,127
17238,note_off,80,0,0,,11,,,82,127
17239,note_on,1,0,0,,0,,,84,127
17319,note_off,80,0,0,,0,,,84,127
17319,note_off,0,0,0,,2,,,62,127
17320,note_on,1,0,0,,11,,,58,127
17320,note_on,0,0,0,,11,,,82,127
17400,note_off,80,0,0,,11,,,82,127
17401,note_on,1,0,0,,10,,,81,127
17481,note_off,80,0,0,,10,,,81,127
17482,note_on,1,0,0,,11,,,82,127
17558,note_off,76,0,0,,5,,,65,127
17562,note_off,4,0,0,,11,,,82,127
17562,note_off,0,0,0,,11,,,58,127
17563,note_on,1,0,0,,3,,,63,127
17563,note_on,0,0,0,,7,,,79,127
17683,note_off,120,0,0,,7,,,79,127
17684,note_on,1,0,0,,5,,,77,127
17804,note_off,120,0,0,,5,,,77,127
17804,note_off,0,0,0,,3,,,63,127
17805,note_on,1,0,0,,2,,,62,127
17805,note_on,0,0,0,,5,,,77,127
17925,note_off,120,0,0,,5,,,77,127
17926,note_on,1,0,0,,3,,,75,127
18046,note_off,120,0,0,,3,,,75,127
18046,note_off,0,0,0,,2,,,62,127
18047,note_on,1,0,0,,0,,,60,127
18047,note_on,0,0,0,,3,,,75,127
18167,note_off,120,0,0,,3,,,75,127
18168,note_on,1,0,0,,2,,,74,127
18288,note_off,120,0,0,,2,,,74,127
18288,note_off,0,0,0,,0,,,60,127
18289,note_on,1,0,0,,11,,,58,127
18289,note_on,0,0,0,,2,,,74,127
18409,note_off,120,0,0,,2,,,74,127
18410,note_on,1,0,0,,0,,,72,127
18530,note_off,120,0,0,,0,,,72,127
18530,note_off,0,0,0,,11,,,58,127
18531,note_on,1,0,0,,10,,,57,127
18531,note_on,0,0,0,,0,,,72,127
18651,note_off,120,0,0,,0,,,72,127
18652,note_on,1,0,0,,11,,,70,127
18772,note_off,120,0,0,,11,,,70,127
18772,note_off,0,0,0,,10,,,57,127
18773,note_on,1,0,0,,7,,,55,127
18773,note_on,0,0,0,,11,,,70,127
18893,note_off,120,0,0,,11,,,70,127
18894,note_on,1,0,0,,10,,,69,127
19014,note_off,120,0,0,,10,,,69,127
19014,note_off,0,0,0,,7,,,55,127
19015,note_on,1,0,0,,5,,,53,127
19015,note_on,0,0,0,,10,,,69,127
19256,note_off,241,0,0,,10,,,69,127
19256,note_off,0,0,0,,5,,,53,127
19257,note_on,1,0,0,,2,,,50,127
19257,note_on,0,0,0,,0,,,72,127
19337,note_off,80,0,0,,0,,,72,127
19338,note_on,1,0,0,,11,,,70,127
19418,note_off,80,0,0,,11,,,70,127
19419,note_on,1,0,0,,0,,,72,127
19499,note_off,80,0,0,,0,,,72,127
19499,note_off,0,0,0,,2,,,50,127
19500,note_on,1,0,0,,11,,,46,127
19500,note_on,0,0,0,,11,,,70,127
19580,note_off,80,0,0,,11,,,70,127
19581,note_on,1,0,0,,10,,,69,127
19661,note_off,80,0,0,,10,,,69,127
19662,note_on,1,0,0,,11,,,70,127
19742,note_off,80,0,0,,11,,,70,127
19742,note_off,0,0,0,,11,,,46,127
19743,note_on,1,0,0,,5,,,41,127
19743,note_on,0,0,0,,2,,,74,127
19984,note_off,241,0,0,,5,,,41,127
19985,note_on,1,0,0,,5,,,53,127
20226,note_off,241,0,0,,2,,,74,127
20227,note_on,1,0,0,,0,,,72,127
20464,note_off,237,0,0,,5,,,53,127
20468,note_off,4,0,0,,0,,,72,127
20469,note_on,1,0,0,,10,,,69,127
20549,note_off,80,0,0,,10,,,69,127
20550,note_on,1,0,0,,7,,,67,127
20630,note_off,80,0,0,,7,,,67,127
20631,note_on,1,0,0,,5,,,65,127
20712,note_on,81,0,0,,0,,,60,127
20712,note_on,0,0,0,,10,,,57,127
20712,note_on,0,0,0,,5,,,77,127
20953,note_off,241,0,0,,10,,,57,127
20953,note_off,0,0,0,,0,,,60,127
20954,note_on,1,0,0,,2,,,62,127
20954,note_on,0,0,0,,11,,,58,127
21195,note_off,241,0,0,,11,,,58,127
21195,note_off,0,0,0,,2,,,62,127
21196,note_on,1,0,0,,0,,,60,127
21196,note_on,0,0,0,,3,,,63,127
21437,note_off,241,0,0,,0,,,60,127
21438,note_on,1,0,0,,10,,,57,127
21675,note_off,237,0,0,,3,,,63,127
21679,note_off,4,0,0,,10,,,57,127
21679,note_off,0,0,0,,5,,,77,127
21680,note_on,1,0,0,,2,,,62,127
21680,note_on,0,0,0,,11,,,58,127
21840,note_off,160,0,0,,5,,,65,127
21920,note_off,80,0,0,,11,,,58,127
21920,note_off,0,0,0,,2,,,62,127
21923,note_on,3,0,0,,10,,,69,127
22003,note_off,80,0,0,,10,,,69,127
22004,note_on,1,0,0,,7,,,67,127
22084,note_off,80,0,0,,7,,,67,127
22085,note_on,1,0,0,,5,,,65,127
22166,note_on,81,0,0,,10,,,57,127
22166,note_on,0,0,0,,0,,,60,127
22166,note_on,0,0,0,,5,,,77,127
22407,note_off,241,0,0,,0,,,60,127
22407,note_off,0,0,0,,10,,,57,127
22408,note_on,1,0,0,,2,,,62,127
22408,note_on,0,0,0,,11,,,58,127
22649,note_off,241,0,0,,11,,,58,127
22649,note_off,0,0,0,,2,,,62,127
22650,note_on,1,0,0,,3,,,63,127
22650,note_on,0,0,0,,0,,,60,127
22891,note_off,241,0,0,,0,,,60,127
22892,note_on,1,0,0,,10,,,57,127
23129,note_off,237,0,0,,3,,,63,127
23133,note_off,4,0,0,,10,,,57,127
23133,note_off,0,0,0,,5,,,77,127
23134,note_on,1,0,0,,11,,,58,127
23134,note_on,0,0,0,,2,,,62,127
23294,note_off,160,0,0,,5,,,65,127
23375,note_off,81,0,0,,2,,,62,127
23375,note_off,0,0,0,,11,,,58,127
23376,note_on,1,0,0,,5,,,53,127
23376,note_on,0,0,0,,0,,,60,127
23376,note_on,0,0,0,,10,,,69,127
23456,note_off,80,0,0,,10,,,69,127
23457,note_on,1,0,0,,7,,,67,127
23537,note_off,80,0,0,,7,,,67,127
23538,note_on,1,0,0,,5,,,65,127
23618,note_off,80,0,0,,0,,,60,127
23619,note_on,1,0,0,,2,,,62,127
23619,note_on,0,0,0,,5,,,77,127
23860,note_off,241,0,0,,2,,,62,127
23861,note_on,1,0,0,,11,,,58,127
24021,note_off,160,0,0,,5,,,65,127
24102,note_off,81,0,0,,11,,,58,127
24102,note_off,0,0,0,,5,,,77,127
24102,note_off,0,0,0,,5,,,53,127
24103,note_on,1,0,0,,5,,,53,127
24103,note_on,0,0,0,,0,,,60,127
24103,note_on,0,0,0,,10,,,69,127
24183,note_off,80,0,0,,10,,,69,127
24184,note_on,1,0,0,,7,,,67,127
24264,note_off,80,0,0,,7,,,67,127
24265,note_on,1,0,0,,5,,,65,127
24345,note_off,80,0,0,,0,,,60,127
24346,note_on,1,0,0,,2,,,62,127
24346,note_on,0,0,0,,5,,,77,127
24587,note_off,241,0,0,,2,,,62,127
24588,note_on,1,0,0,,11,,,58,127
24748,note_off,160,0,0,,5,,,65,127
24829,note_off,81,0,0,,11,,,58,127
24829,note_off,0,0,0,,5,,,77,127
24829,note_off,0,0,0,,5,,,53,127
24830,note_on,1,0,0,,3,,,51,127
24830,note_on,0,0,0,,0,,,60,127
24830,note_on,0,0,0,,0,,,84,127
24830,note_on,0,0,0,,0,,,72,127
25071,note_off,241,0,0,,0,,,72,127
25071,note_off,0,0,0,,0,,,84,127
25071,note_off,0,0,0,,0,,,60,127
25071,note_off,0,0,0,,3,,,51,127
25072,note_on,1,0,0,,2,,,50,127
25072,note_on,0,0,0,,11,,,58,127
25072,note_on,0,0,0,,2,,,86,127
25072,note_on,0,0,0,,2,,,74,127
25313,note_off,241,0,0,,2,,,74,127
25313,note_off,0,0,0,,2,,,86,127
25314,note_on,1,0,0,,11,,,82,127
25314,note_on,0,0,0,,11,,,70,127
25555,note_off,241,0,0,,11,,,70,127
25555,note_off,0,0,0,,11,,,82,127
25555,note_off,0,0,0,,11,,,58,127
25555,note_off,0,0,0,,2,,,50,127
25556,note_on,1,0,0,,11,,,58,127
25556,note_on,0,0,0,,3,,,51,127
25556,note_on,0,0,0,,7,,,67,127
25556,note_on,0,0,0,,7,,,79,127
25676,note_off,120,0,0,,7,,,79,127
25677,note_on,1,0,0,,5,,,77,127
25797,note_off,120,0,0,,5,,,77,127
25798,note_on,1,0,0,,3,,,75,127
26035,note_off,237,0,0,,7,,,67,127
26039,note_off,4,0,0,,3,,,51,127
26039,note_off,0,0,0,,11,,,58,127
26040,note_on,1,0,0,,5,,,41,127
26040,note_on,0,0,0,,5,,,53,127
26040,note_on,0,0,0,,10,,,69,127
26255,note_off,215,0,0,,3,,,75,127
26282,note_off,27,0,0,,10,,,69,127
26282,note_off,0,0,0,,5,,,53,127
26282,note_off,0,0,0,,5,,,41,127
26283,note_on,1,0,0,,11,,,46,127
26283,note_on,0,0,0,,5,,,53,127
26283,note_on,0,0,0,,2,,,74,127
26363,note_off,80,0,0,,2,,,74,127
26364,note_on,1,0,0,,0,,,72,127
26444,note_off,80,0,0,,0,,,72,127
26445,note_on,1,0,0,,11,,,70,127
26523,note_off,78,0,0,,11,,,46,127
26524,note_off,1,0,0,,11,,,70,127
26525,note_on,1,0,0,,0,,,48,127
26525,note_on,0,0,0,,5,,,77,127
26766,note_off,241,0,0,,0,,,48,127
26767,note_on,1,0,0,,2,,,50,127
26767,note_on,0,0,0,,5,,,65,127
27004,note_off,237,0,0,,5,,,77,127
27008,note_off,4,0,0,,5,,,65,127
27008,note_off,0,0,0,,2,,,50,127
27008,note_off,0,0,0,,5,,,53,127
27009,note_on,1,0,0,,3,,,51,127
27009,note_on,0,0,0,,3,,,75,127
27009,note_on,0,0,0,,7,,,67,127
27089,note_off,80,0,0,,3,,,75,127
27090,note_on,1,0,0,,2,,,74,127
27170,note_off,80,0,0,,2,,,74,127
27171,note_on,1,0,0,,0,,,72,127
27249,note_off,78,0,0,,7,,,67,127
27250,note_off,1,0,0,,0,,,72,127
27250,note_off,0,0,0,,3,,,51,127
27251,note_on,1,0,0,,5,,,53,127
27251,note_on,0,0,0,,2,,,74,127
27251,note_on,0,0,0,,11,,,70,127
27492,note_off,241,0,0,,11,,,70,127
27492,note_off,0,0,0,,2,,,74,127
27492,note_off,0,0,0,,5,,,53,127
27493,note_on,1,0,0,,5,,,41,127
27493,note_on,0,0,0,,10,,,69,127
27493,note_on,0,0,0,,0,,,72,127
27734,note_off,241,0,0,,0,,,72,127
27734,note_off,0,0,0,,10,,,69,127
27734,note_off,0,0,0,,5,,,41,127
27735,note_on,1,0,0,,11,,,46,127
27735,note_on,0,0,0,,10,,,69,127
27735,note_on,0,0,0,,0,,,72,127
27976,note_off,241,0,0,,11,,,46,127
27977,note_on,1,0,0,,11,,,34,127
28218,note_off,241,0,0,,0,,,72,127
28218,note_off,0,0,0,,10,,,69,127
28219,note_on,1,0,0,,11,,,70,127
28401,note_off,182,0,0,,11,,,70,127
28457,note_off,56,0,0,,11,,,34,127
28462,note_on,5,0,0,,10,,,69,127
28542,note_off,80,0,0,,10,,,69,127
28543,note_on,1,0,0,,7,,,67,127
28623,note_off,80,0,0,,7,,,67,127
28624,note_on,1,0,0,,5,,,65,127
28705,note_on,81,0,0,,10,,,57,127
28705,note_on,0,0,0,,0,,,60,127
28705,note_on,0,0,0,,5,,,77,127
28946,note_off,241,0,0,,0,,,60,127
28946,note_off,0,0,0,,10,,,57,127
28947,note_on,1,0,0,,11,,,58,127
28947,note_on,0,0,0,,2,,,62,127
29188,note_off,241,0,0,,2,,,62,127
29188,note_off,0,0,0,,11,,,58,127
29189,note_on,1,0,0,,3,,,63,127
29189,note_on,0,0,0,,0,,,60,127
29430,note_off,241,0,0,,0,,,60,127
29431,note_on,1,0,0,,10,,,57,127
29668,note_off,237,0,0,,3,,,63,127
29672,note_off,4,0,0,,10,,,57,127
29673,note_on,1,0,0,,2,,,62,127
29673,note_on,0,0,0,,11,,,58,127
29833,note_off,160,0,0,,5,,,65,127
29913,note_off,80,0,0,,11,,,58,127
29913,note_off,0,0,0,,2,,,62,127
29914,note_off,1,0,0,,5,,,77,127
29915,note_on,1,0,0,,10,,,69,127
29995,note_off,80,0,0,,10,,,69,127
29996,note_on,1,0,0,,7,,,67,127
30076,note_off,80,0,0,,7,,,67,127
30077,note_on,1,0,0,,5,,,65,127
30158,note_on,81,0,0,,10,,,57,127
30158,note_on,0,0,0,,0,,,60,127
30158,note_on,0,0,0,,5,,,77,127
30399,note_off,241,0,0,,0,,,60,127
30399,note_off,0,0,0,,10,,,57,127
30400,note_on,1,0,0,,2,,,62,127
30400,note_on,0,0,0,,11,,,58,127
30641,note_off,241,0,0,,11,,,58,127
30641,note_off,0,0,0,,2,,,62,127
30642,note_on,1,0,0,,3,,,63,127
30642,note_on,0,0,0,,0,,,60,127
30883,note_off,241,0,0,,0,,,60,127
30884,note_on,1,0,0,,10,,,57,127
31121,note_off,237,0,0,,3,,,63,127
31125,note_off,4,0,0,,10,,,57,127
31126,note_on,1,0,0,,11,,,58,127
31126,note_on,0,0,0,,2,,,62,127
31286,note_off,160,0,0,,5,,,65,127
31367,note_off,81,0,0,,2,,,62,127
31367,note_off,0,0,0,,11,,,58,127
31367,note_off,0,0,0,,5,,,77,127
31368,note_on,1,0,0,,5,,,53,127
31368,note_on,0,0,0,,0,,,60,127
31368,note_on,0,0,0,,10,,,69,127
31448,note_off,80,0,0,,10,,,69,127
31449,note_on,1,0,0,,7,,,67,127
31529,note_off,80,0,0,,7,,,67,127
31530,note_on,1,0,0,,5,,,65,127
31610,note_off,80,0,0,,0,,,60,127
31611,note_on,1,0,0,,2,,,62,127
31611,note_on,0,0,0,,5,,,77,127
31852,note_off,241,0,0,,2,,,62,127
31853,note_on,1,0,0,,11,,,58,127
31974,note_off,121,0,0,,5,,,77,127
32009,note_off,35,0,0,,5,,,65,127
32094,note_off,85,0,0,,11,,,58,127
32094,note_off,0,0,0,,5,,,53,127
32095,note_on,1,0,0,,0,,,60,127
32095,note_on,0,0,0,,5,,,53,127
32095,note_on,0,0,0,,10,,,69,127
32175,note_off,80,0,0,,10,,,69,127
32176,note_on,1,0,0,,7,,,67,127
32256,note_off,80,0,0,,7,,,67,127
32257,note_on,1,0,0,,5,,,65,127
32337,note_off,80,0,0,,0,,,60,127
32338,note_on,1,0,0,,2,,,62,127
32338,note_on,0,0,0,,5,,,77,127
32579,note_off,241,0,0,,2,,,62,127
32580,note_on,1,0,0,,11,,,58,127
32701,note_off,121,0,0,,5,,,77,127
32736,note_off,35,0,0,,5,,,65,127
32821,note_off,85,0,0,,11,,,58,127
32821,note_off,0,0,0,,5,,,53,127
32822,note_on,1,0,0,,3,,,51,127
32822,note_on,0,0,0,,0,,,60,127
32822,note_on,0,0,0,,0,,,84,127
32822,note_on,0,0,0,,0,,,72,127
33063,note_off,241,0,0,,0,,,72,127
33063,note_off,0,0,0,,0,,,84,127
33063,note_off,0,0,0,,0,,,60,127
33063,note_off,0,0,0,,3,,,51,127
33064,note_on,1,0,0,,11,,,58,127
33064,note_on,0,0,0,,2,,,50,127
33064,note_on,0,0,0,,2,,,74,127
33064,note_on,0,0,0,,2,,,86,127
33305,note_off,241,0,0,,2,,,86,127
33305,note_off,0,0,0,,2,,,74,127
33306,note_on,1,0,0,,11,,,82,127
33306,note_on,0,0,0,,11,,,70,127
33547,note_off,241,0,0,,11,,,70,127
33547,note_off,0,0,0,,11,,,82,127
33547,note_off,0,0,0,,2,,,50,127
33547,note_off,0,0,0,,11,,,58,127
33548,note_on,1,0,0,,11,,,58,127
33548,note_on,0,0,0,,3,,,51,127
33548,note_on,0,0,0,,7,,,79,127
33548,note_on,0,0,0,,7,,,67,127
33668,note_off,120,0,0,,7,,,79,127
33669,note_on,1,0,0,,5,,,77,127
33789,note_off,120,0,0,,5,,,77,127
33790,note_on,1,0,0,,3,,,75,127
34027,note_off,237,0,0,,7,,,67,127
34031,note_off,4,0,0,,3,,,51,127
34031,note_off,0,0,0,,11,,,58,127
34032,note_on,1,0,0,,5,,,41,127
34032,note_on,0,0,0,,5,,,53,127
34032,note_on,0,0,0,,10,,,69,127
34067,note_off,35,0,0,,3,,,75,127
34273,note_off,206,0,0,,10,,,69,127
34273,note_off,0,0,0,,5,,,53,127
34273,note_off,0,0,0,,5,,,41,127
34274,note_on,1,0,0,,11,,,46,127
34274,note_on,0,0,0,,2,,,74,127
34354,note_off,80,0,0,,2,,,74,127
34355,note_on,1,0,0,,0,,,72,127
34435,note_off,80,0,0,,0,,,72,127
34436,note_on,1,0,0,,11,,,70,127
34516,note_off,80,0,0,,11,,,70,127
34516,note_off,0,0,0,,11,,,46,127
34517,note_on,1,0,0,,0,,,48,127
34517,note_on,0,0,0,,5,,,77,127
34758,note_off,241,0,0,,0,,,48,127
34759,note_on,1,0,0,,2,,,50,127
34759,note_on,0,0,0,,5,,,65,127
34943,note_off,184,0,0,,5,,,77,127
35000,note_off,57,0,0,,5,,,65,127
35000,note_off,0,0,0,,2,,,50,127
35001,note_on,1,0,0,,3,,,51,127
35001,note_on,0,0,0,,3,,,75,127
35001,note_on,0,0,0,,7,,,67,127
35081,note_off,80,0,0,,3,,,75,127
35082,note_on,1,0,0,,2,,,74,127
35162,note_off,80,0,0,,2,,,74,127
35163,note_on,1,0,0,,0,,,72,127
35241,note_off,78,0,0,,7,,,67,127
35242,note_off,1,0,0,,0,,,72,127
35242,note_off,0,0,0,,3,,,51,127
35243,note_on,1,0,0,,5,,,53,127
35243,note_on,0,0,0,,11,,,70,127
35243,note_on,0,0,0,,2,,,74,127
35484,note_off,241,0,0,,2,,,74,127
35484,note_off,0,0,0,,11,,,70,127
35484,note_off,0,0,0,,5,,,53,127
35485,note_on,1,0,0,,5,,,41,127
35485,note_on,0,0,0,,0,,,72,127
35485,note_on,0,0,0,,10,,,69,127
35726,note_off,241,0,0,,10,,,69,127
35726,note_off,0,0,0,,0,,,72,127
35726,note_off,0,0,0,,5,,,41,127
35727,note_on,1,0,0,,11,,,46,127
35727,note_on,0,0,0,,11,,,70,127
35807,note_off,80,0,0,,11,,,70,127
35808,note_on,1,0,0,,11,,,82,127
35888,note_off,80,0,0,,11,,,82,127
35889,note_on,1,0,0,,5,,,77,127
35969,note_off,80,0,0,,11,,,46,127
35970,note_on,1,0,0,,2,,,50,127
35990,note_off,20,0,0,,5,,,77,127
36051,note_on,61,0,0,,7,,,79,127
36131,note_off,80,0,0,,7,,,79,127
36132,note_on,1,0,0,,3,,,75,127
36212,note_off,80,0,0,,2,,,50,127
36213,note_on,1,0,0,,3,,,51,127
36233,note_off,20,0,0,,3,,,75,127
36294,note_on,61,0,0,,5,,,77,127
36374,note_off,80,0,0,,5,,,77,127
36375,note_on,1,0,0,,2,,,74,127
36455,note_off,80,0,0,,3,,,51,127
36456,note_on,1,0,0,,5,,,53,127
36476,note_off,20,0,0,,2,,,74,127
36537,note_on,61,0,0,,3,,,75,127
36617,note_off,80,0,0,,3,,,75,127
36618,note_on,1,0,0,,0,,,72,127
36698,note_off,80,0,0,,5,,,53,127
36699,note_on,1,0,0,,5,,,41,127
36719,note_off,20,0,0,,0,,,72,127
36780,note_on,61,0,0,,2,,,74,127
36860,note_off,80,0,0,,2,,,74,127
36861,note_on,1,0,0,,11,,,70,127
36941,note_off,80,0,0,,5,,,41,127
36942,note_on,1,0,0,,5,,,53,127
36962,note_off,20,0,0,,11,,,70,127
37023,note_on,61,0,0,,0,,,72,127
37103,note_off,80,0,0,,0,,,72,127
37104,note_on,1,0,0,,10,,,69,127
37184,note_off,80,0,0,,5,,,53,127
37185,note_on,1,0,0,,11,,,46,127
37205,note_off,20,0,0,,10,,,69,127
37266,note_on,61,0,0,,11,,,70,127
37346,note_off,80,0,0,,11,,,70,127
37347,note_on,1,0,0,,5,,,65,127
37427,note_off,80,0,0,,11,,,46,127
37428,note_on,1,0,0,,2,,,50,127
37461,note_off,33,0,0,,5,,,65,127
37509,note_on,48,0,0,,7,,,67,127
37589,note_off,80,0,0,,7,,,67,127
37590,note_on,1,0,0,,3,,,63,127
37670,note_off,80,0,0,,2,,,50,127
37671,note_on,1,0,0,,3,,,51,127
37704,note_off,33,0,0,,3,,,63,127
37752,note_on,48,0,0,,5,,,65,127
37832,note_off,80,0,0,,5,,,65,127
37833,note_on,1,0,0,,2,,,62,127
37913,note_off,80,0,0,,3,,,51,127
37914,note_on,1,0,0,,5,,,53,127
37947,note_off,33,0,0,,2,,,62,127
37995,note_on,48,0,0,,3,,,63,127
38075,note_off,80,0,0,,3,,,63,127
38076,note_on,1,0,0,,0,,,60,127
38156,note_off,80,0,0,,5,,,53,127
38157,note_on,1,0,0,,5,,,41,127
38190,note_off,33,0,0,,0,,,60,127
38238,note_on,48,0,0,,2,,,62,127
38318,note_off,80,0,0,,2,,,62,127
38319,note_on,1,0,0,,11,,,58,127
38399,note_off,80,0,0,,11,,,58,127
38399,note_off,0,0,0,,5,,,41,127
38400,note_on,1,0,0,,5,,,53,127
38400,note_on,0,0,0,,0,,,60,127
38520,note_off,120,0,0,,0,,,60,127
38521,note_on,1,0,0,,10,,,57,127
38641,note_off,120,0,0,,10,,,57,127
38641,note_off,0,0,0,,5,,,53,127
38642,note_on,1,0,0,,11,,,34,127
38642,note_on,0,0,0,,0,,,60,127
39126,note_off,484,0,0,,0,,,60,127
39127,note_on,1,0,0,,11,,,58,127
39368,note_off,241,0,0,,11,,,58,127
39368,note_off,0,0,0,,11,,,34,127
39369,note_on,1,0,0,,11,,,82,127
39610,note_off,241,0,0,,11,,,82,127
39611,note_on,1,0,0,,5,,,77,127
39852,note_off,241,0,0,,5,,,77,127
39853,note_on,1,0,0,,5,,,77,127
40087,note_off,234,0,0,,5,,,77,127
40096,note_on,9,0,0,,5,,,77,127
40176,note_off,80,0,0,,5,,,77,127
40177,note_on,1,0,0,,3,,,75,127
40257,note_off,80,0,0,,3,,,75,127
40258,note_on,1,0,0,,2,,,74,127
40338,note_off,80,0,0,,2,,,74,127
40339,note_on,1,0,0,,11,,,70,127
40339,note_on,0,0,0,,3,,,75,127
40419,note_off,80,0,0,,3,,,75,127
40420,note_on,1,0,0,,2,,,74,127
40500,note_off,80,0,0,,2,,,74,127
40501,note_on,1,0,0,,3,,,75,127
40581,note_off,80,0,0,,3,,,75,127
40582,note_on,1,0,0,,2,,,62,127
40582,note_on,0,0,0,,2,,,74,127
40662,note_off,80,0,0,,2,,,74,127
40663,note_on,1,0,0,,0,,,72,127
40743,note_off,80,0,0,,0,,,72,127
40744,note_on,1,0,0,,2,,,74,127
40820,note_off,76,0,0,,11,,,70,127
40824,note_off,4,0,0,,2,,,74,127
40824,note_off,0,0,0,,2,,,62,127
40825,note_on,1,0,0,,3,,,63,127
40825,note_on,0,0,0,,11,,,70,127
40825,note_on,0,0,0,,0,,,72,127
41066,note_off,241,0,0,,3,,,63,127
41067,note_on,1,0,0,,5,,,65,127
41304,note_off,237,0,0,,11,,,70,127
41308,note_off,4,0,0,,0,,,72,127
41309,note_on,1,0,0,,10,,,69,127
41309,note_on,0,0,0,,3,,,75,127
41536,note_off,227,0,0,,3,,,75,127
41546,note_off,10,0,0,,5,,,65,127
41549,note_off,3,0,0,,10,,,69,127
41552,note_on,3,0,0,,5,,,77,127
41632,note_off,80,0,0,,5,,,77,127
41633,note_on,1,0,0,,3,,,75,127
41713,note_off,80,0,0,,3,,,75,127
41714,note_on,1,0,0,,2,,,74,127
41794,note_off,80,0,0,,2,,,74,127
41795,note_on,1,0,0,,11,,,70,127
41795,note_on,0,0,0,,3,,,75,127
41875,note_off,80,0,0,,3,,,75,127
41876,note_on,1,0,0,,2,,,74,127
41956,note_off,80,0,0,,2,,,74,127
41957,note_on,1,0,0,,3,,,75,127
42037,note_off,80,0,0,,3,,,75,127
42038,note_on,1,0,0,,2,,,62,127
42038,note_on,0,0,0,,2,,,74,127
42118,note_off,80,0,0,,2,,,74,127
42119,note_on,1,0,0,,0,,,72,127
42199,note_off,80,0,0,,0,,,72,127
42200,note_on,1,0,0,,2,,,74,127
42276,note_off,76,0,0,,11,,,70,127
42280,note_off,4,0,0,,2,,,74,127
42280,note_off,0,0,0,,2,,,62,127
42281,note_on,1,0,0,,3,,,63,127
42281,note_on,0,0,0,,11,,,70,127
42281,note_on,0,0,0,,0,,,72,127
42522,note_off,241,0,0,,3,,,63,127
42523,note_on,1,0,0,,5,,,65,127
42760,note_off,237,0,0,,11,,,70,127
42764,note_off,4,0,0,,0,,,72,127
42765,note_on,1,0,0,,8,,,68,127
42765,note_on,0,0,0,,0,,,72,127
43002,note_off,237,0,0,,5,,,65,127
43006,note_off,4,0,0,,0,,,72,127
43006,note_off,0,0,0,,8,,,68,127
43007,note_on,1,0,0,,5,,,65,127
43007,note_on,0,0,0,,7,,,67,127
43007,note_on,0,0,0,,12,,,71,127
43007,note_on,0,0,0,,5,,,77,127
43087,note_off,80,0,0,,5,,,77,127
43088,note_on,1,0,0,,3,,,75,127
43168,note_off,80,0,0,,3,,,75,127
43169,note_on,1,0,0,,2,,,74,127
43249,note_off,80,0,0,,2,,,74,127
43250,note_on,1,0,0,,2,,,74,127
43491,note_off,241,0,0,,2,,,74,127
43491,note_off,0,0,0,,12,,,71,127
43491,note_off,0,0,0,,7,,,67,127
43491,note_off,0,0,0,,5,,,65,127
43492,note_on,1,0,0,,3,,,63,127
43492,note_on,0,0,0,,0,,,72,127
43492,note_on,0,0,0,,7,,,79,127
43733,note_off,241,0,0,,7,,,79,127
43733,note_off,0,0,0,,0,,,72,127
43733,note_off,0,0,0,,3,,,63,127
43734,note_on,1,0,0,,0,,,72,127
43734,note_on,0,0,0,,5,,,65,127
43734,note_on,0,0,0,,5,,,77,127
43975,note_off,241,0,0,,5,,,77,127
43975,note_off,0,0,0,,5,,,65,127
43976,note_on,1,0,0,,7,,,67,127
43976,note_on,0,0,0,,3,,,75,127
44213,note_off,237,0,0,,0,,,72,127
44217,note_off,4,0,0,,3,,,75,127
44218,note_on,1,0,0,,12,,,71,127
44218,note_on,0,0,0,,2,,,74,127
44455,note_off,237,0,0,,7,,,67,127
44459,note_off,4,0,0,,2,,,74,127
44459,note_off,0,0,0,,12,,,71,127
44460,note_on,1,0,0,,0,,,72,127
44460,note_on,0,0,0,,3,,,75,127
44540,note_off,80,0,0,,3,,,75,127
44541,note_on,1,0,0,,2,,,74,127
44618,note_off,77,0,0,,0,,,72,127
44621,note_off,3,0,0,,2,,,74,127
44622,note_on,1,0,0,,0,,,72,127
44702,note_off,80,0,0,,0,,,72,127
44703,note_on,1,0,0,,0,,,60,127
44703,note_on,0,0,0,,0,,,72,127
44944,note_off,241,0,0,,0,,,60,127
44945,note_on,1,0,0,,0,,,48,127
45182,note_off,237,0,0,,0,,,72,127
45186,note_off,4,0,0,,0,,,48,127
45187,note_on,1,0,0,,0,,,36,127
45430,note_on,243,0,0,,0,,,84,127
45667,note_off,237,0,0,,0,,,36,127
45671,note_off,4,0,0,,0,,,84,127
45672,note_on,1,0,0,,7,,,79,127
45913,note_off,241,0,0,,7,,,79,127
45914,note_on,1,0,0,,7,,,79,127
45994,note_off,80,0,0,,7,,,79,127
45995,note_on,1,0,0,,5,,,77,127
46075,note_off,80,0,0,,5,,,77,127
46076,note_on,1,0,0,,3,,,75,127
46156,note_off,80,0,0,,3,,,75,127
46157,note_on,1,0,0,,0,,,72,127
46157,note_on,0,0,0,,5,,,77,127
46237,note_off,80,0,0,,5,,,77,127
46238,note_on,1,0,0,,3,,,75,127
46318,note_off,80,0,0,,3,,,75,127
46319,note_on,1,0,0,,5,,,77,127
46399,note_off,80,0,0,,5,,,77,127
46400,note_on,1,0,0,,3,,,63,127
46400,note_on,0,0,0,,3,,,75,127
46480,note_off,80,0,0,,3,,,75,127
46481,note_on,1,0,0,,2,,,74,127
46561,note_off,80,0,0,,2,,,74,127
46562,note_on,1,0,0,,3,,,75,127
46638,note_off,76,0,0,,0,,,72,127
46642,note_off,4,0,0,,3,,,75,127
46642,note_off,0,0,0,,3,,,63,127
46643,note_on,1,0,0,,0,,,72,127
46643,note_on,0,0,0,,5,,,65,127
46643,note_on,0,0,0,,2,,,74,127
46884,note_off,241,0,0,,5,,,65,127
46885,note_on,1,0,0,,7,,,67,127
47122,note_off,237,0,0,,0,,,72,127
47126,note_off,4,0,0,,2,,,74,127
47127,note_on,1,0,0,,12,,,71,127
47127,note_on,0,0,0,,5,,,77,127
47364,note_off,237,0,0,,7,,,67,127
47367,note_off,3,0,0,,12,,,71,127
47368,note_off,1,0,0,,5,,,77,127
47369,note_on,1,0,0,,7,,,79,127
47449,note_off,80,0,0,,7,,,79,127
47450,note_on,1,0,0,,5,,,77,127
47530,note_off,80,0,0,,5,,,77,127
47531,note_on,1,0,0,,3,,,75,127
47611,note_off,80,0,0,,3,,,75,127
47612,note_on,1,0,0,,0,,,72,127
47612,note_on,0,0,0,,5,,,77,127
47692,note_off,80,0,0,,5,,,77,127
47693,note_on,1,0,0,,3,,,75,127
47773,note_off,80,0,0,,3,,,75,127
47774,note_on,1,0,0,,5,,,77,127
47854,note_off,80,0,0,,5,,,77,127
47855,note_on,1,0,0,,3,,,63,127
47855,note_on,0,0,0,,3,,,75,127
47935,note_off,80,0,0,,3,,,75,127
47936,note_on,1,0,0,,2,,,74,127
48016,note_off,80,0,0,,2,,,74,127
48017,note_on,1,0,0,,3,,,75,127
48093,note_off,76,0,0,,0,,,72,127
48097,note_off,4,0,0,,3,,,75,127
48097,note_off,0,0,0,,3,,,63,127
48098,note_on,1,0,0,,0,,,72,127
48098,note_on,0,0,0,,5,,,65,127
48098,note_on,0,0,0,,2,,,74,127
48339,note_off,241,0,0,,5,,,65,127
48340,note_on,1,0,0,,7,,,67,127
48577,note_off,237,0,0,,0,,,72,127
48581,note_off,4,0,0,,2,,,74,127
48582,note_on,1,0,0,,11,,,70,127
48582,note_on,0,0,0,,2,,,74,127
48819,note_off,237,0,0,,7,,,67,127
48823,note_off,4,0,0,,2,,,74,127
48823,note_off,0,0,0,,11,,,70,127
48824,note_on,1,0,0,,10,,,69,127
48824,note_on,0,0,0,,7,,,67,127
48824,note_on,0,0,0,,1,,,73,127
48824,note_on,0,0,0,,7,,,79,127
48904,note_off,80,0,0,,7,,,79,127
48905,note_on,1,0,0,,5,,,77,127
48985,note_off,80,0,0,,5,,,77,127
48986,note_on,1,0,0,,4,,,76,127
49066,note_off,80,0,0,,4,,,76,127
49067,note_on,1,0,0,,4,,,76,127
49308,note_off,241,0,0,,4,,,76,127
49308,note_off,0,0,0,,1,,,73,127
49308,note_off,0,0,0,,7,,,67,127
49308,note_off,0,0,0,,10,,,69,127
49309,note_on,1,0,0,,2,,,74,127
49309,note_on,0,0,0,,5,,,65,127
49309,note_on,0,0,0,,10,,,81,127
49550,note_off,241,0,0,,10,,,81,127
49550,note_off,0,0,0,,5,,,65,127
49550,note_off,0,0,0,,2,,,74,127
49551,note_on,1,0,0,,7,,,67,127
49551,note_on,0,0,0,,2,,,74,127
49551,note_on,0,0,0,,7,,,79,127
49792,note_off,241,0,0,,7,,,79,127
49792,note_off,0,0,0,,7,,,67,127
49793,note_on,1,0,0,,10,,,69,127
49793,note_on,0,0,0,,5,,,77,127
50030,note_off,237,0,0,,2,,,74,127
50034,note_off,4,0,0,,5,,,77,127
50035,note_on,1,0,0,,1,,,73,127
50035,note_on,0,0,0,,4,,,76,127
50272,note_off,237,0,0,,10,,,69,127
50276,note_off,4,0,0,,4,,,76,127
50276,note_off,0,0,0,,1,,,73,127
50277,note_on,1,0,0,,2,,,62,127
50277,note_on,0,0,0,,10,,,69,127
50277,note_on,0,0,0,,7,,,79,127
50518,note_off,241,0,0,,7,,,79,127
50518,note_off,0,0,0,,2,,,62,127
50519,note_on,1,0,0,,0,,,60,127
50519,note_on,0,0,0,,6,,,78,127
50756,note_off,237,0,0,,10,,,69,127
50760,note_off,4,0,0,,6,,,78,127
50760,note_off,0,0,0,,0,,,60,127
50761,note_on,1,0,0,,7,,,67,127
50761,note_on,0,0,0,,11,,,58,127
50761,note_on,0,0,0,,7,,,79,127
51002,note_off,241,0,0,,7,,,79,127
51002,note_off,0,0,0,,11,,,58,127
51002,note_off,0,0,0,,7,,,67,127
51003,note_on,1,0,0,,10,,,57,127
51003,note_on,0,0,0,,6,,,66,127
51003,note_on,0,0,0,,0,,,72,127
51244,note_off,241,0,0,,0,,,72,127
51244,note_off,0,0,0,,6,,,66,127
51244,note_off,0,0,0,,10,,,57,127
51245,note_on,1,0,0,,7,,,67,127
51245,note_on,0,0,0,,7,,,55,127
51245,note_on,0,0,0,,0,,,72,127
51325,note_off,80,0,0,,0,,,72,127
51326,note_on,1,0,0,,11,,,70,127
51406,note_off,80,0,0,,11,,,70,127
51407,note_on,1,0,0,,0,,,72,127
51487,note_off,80,0,0,,0,,,72,127
51487,note_off,0,0,0,,7,,,55,127
51488,note_on,1,0,0,,1,,,61,127
51488,note_on,0,0,0,,11,,,70,127
51568,note_off,80,0,0,,11,,,70,127
51569,note_on,1,0,0,,10,,,69,127
51649,note_off,80,0,0,,10,,,69,127
51650,note_on,1,0,0,,11,,,70,127
51726,note_off,76,0,0,,7,,,67,127
51730,note_off,4,0,0,,11,,,70,127
51730,note_off,0,0,0,,1,,,61,127
51731,note_on,1,0,0,,2,,,62,127
51731,note_on,0,0,0,,10,,,69,127
51972,note_off,241,0,0,,10,,,69,127
51972,note_off,0,0,0,,2,,,62,127
51973,note_on,1,0,0,,0,,,60,127
51973,note_on,0,0,0,,2,,,74,127
52214,note_off,241,0,0,,0,,,60,127
52215,note_on,1,0,0,,11,,,58,127
52215,note_on,0,0,0,,7,,,67,127
52276,note_off,61,0,0,,2,,,74,127
52457,note_off,181,0,0,,7,,,67,127
52457,note_off,0,0,0,,11,,,58,127
52458,note_on,1,0,0,,0,,,60,127
52458,note_on,0,0,0,,10,,,57,127
52458,note_on,0,0,0,,6,,,66,127
52699,note_off,241,0,0,,6,,,66,127
52699,note_off,0,0,0,,10,,,57,127
52699,note_off,0,0,0,,0,,,60,127
52700,note_on,1,0,0,,11,,,58,127
52700,note_on,0,0,0,,2,,,62,127
52700,note_on,0,0,0,,10,,,69,127
52780,note_off,80,0,0,,10,,,69,127
52781,note_on,1,0,0,,7,,,67,127
52861,note_off,80,0,0,,7,,,67,127
52862,note_on,1,0,0,,10,,,69,127
52942,note_off,80,0,0,,10,,,69,127
52942,note_off,0,0,0,,11,,,58,127
52943,note_on,1,0,0,,7,,,55,127
52943,note_on,0,0,0,,7,,,67,127
53023,note_off,80,0,0,,7,,,67,127
53024,note_on,1,0,0,,6,,,66,127
53104,note_off,80,0,0,,6,,,66,127
53105,note_on,1,0,0,,7,,,67,127
53181,note_off,76,0,0,,2,,,62,127
53185,note_off,4,0,0,,7,,,67,127
53185,note_off,0,0,0,,7,,,55,127
53186,note_on,1,0,0,,2,,,62,127
53186,note_on,0,0,0,,2,,,50,127
53186,note_on,0,0,0,,10,,,69,127
53368,note_off,182,0,0,,10,,,69,127
53427,note_off,59,0,0,,2,,,50,127
53428,note_on,1,0,0,,3,,,51,127
53428,note_on,0,0,0,,10,,,81,127
53508,note_off,80,0,0,,10,,,81,127
53509,note_on,1,0,0,,7,,,79,127
53589,note_off,80,0,0,,7,,,79,127
53590,note_on,1,0,0,,10,,,81,127
53666,note_off,76,0,0,,2,,,62,127
53670,note_off,4,0,0,,10,,,81,127
53671,note_on,1,0,0,,0,,,60,127
53671,note_on,0,0,0,,7,,,79,127
53751,note_off,80,0,0,,7,,,79,127
53752,note_on,1,0,0,,6,,,78,127
53832,note_off,80,0,0,,6,,,78,127
53833,note_on,1,0,0,,7,,,79,127
53909,note_off,76,0,0,,3,,,51,127
53913,note_off,4,0,0,,7,,,79,127
53913,note_off,0,0,0,,0,,,60,127
53914,note_on,1,0,0,,2,,,62,127
53914,note_on,0,0,0,,2,,,50,127
53914,note_on,0,0,0,,10,,,81,127
54116,note_off,202,0,0,,10,,,81,127
54155,note_off,39,0,0,,2,,,50,127
54156,note_on,1,0,0,,3,,,51,127
54156,note_on,0,0,0,,10,,,69,127
54236,note_off,80,0,0,,10,,,69,127
54237,note_on,1,0,0,,7,,,67,127
54317,note_off,80,0,0,,7,,,67,127
54318,note_on,1,0,0,,10,,,69,127
54394,note_off,76,0,0,,2,,,62,127
54398,note_off,4,0,0,,10,,,69,127
54399,note_on,1,0,0,,0,,,60,127
54399,note_on,0,0,0,,7,,,67,127
54479,note_off,80,0,0,,7,,,67,127
54480,note_on,1,0,0,,6,,,66,127
54560,note_off,80,0,0,,6,,,66,127
54561,note_on,1,0,0,,7,,,67,127
54637,note_off,76,0,0,,3,,,51,127
54641,note_off,4,0,0,,7,,,67,127
54641,note_off,0,0,0,,0,,,60,127
54642,note_on,1,0,0,,2,,,62,127
54642,note_on,0,0,0,,2,,,50,127
54642,note_on,0,0,0,,10,,,69,127
54844,note_off,202,0,0,,10,,,69,127
54883,note_off,39,0,0,,2,,,50,127
54884,note_on,1,0,0,,3,,,51,127
54884,note_on,0,0,0,,10,,,81,127
54964,note_off,80,0,0,,10,,,81,127
54965,note_on,1,0,0,,7,,,79,127
55045,note_off,80,0,0,,7,,,79,127
55046,note_on,1,0,0,,10,,,81,127
55122,note_off,76,0,0,,2,,,62,127
55126,note_off,4,0,0,,10,,,81,127
55127,note_on,1,0,0,,0,,,60,127
55127,note_on,0,0,0,,7,,,79,127
55207,note_off,80,0,0,,7,,,79,127
55208,note_on,1,0,0,,6,,,78,127
55288,note_off,80,0,0,,6,,,78,127
55289,note_on,1,0,0,,7,,,79,127
55365,note_off,76,0,0,,3,,,51,127
55369,note_off,4,0,0,,7,,,79,127
55369,note_off,0,0,0,,0,,,60,127
55370,note_on,1,0,0,,2,,,50,127
55370,note_on,0,0,0,,2,,,62,127
55370,note_on,0,0,0,,10,,,81,127
55490,note_off,120,0,0,,10,,,81,127
55491,note_on,1,0,0,,7,,,79,127
55611,note_off,120,0,0,,7,,,79,127
55611,note_off,0,0,0,,2,,,50,127
55612,note_on,1,0,0,,4,,,52,127
55612,note_on,0,0,0,,6,,,78,127
55732,note_off,120,0,0,,6,,,78,127
55733,note_on,1,0,0,,3,,,75,127
55853,note_off,120,0,0,,3,,,75,127
55853,note_off,0,0,0,,4,,,52,127
55854,note_on,1,0,0,,6,,,54,127
55854,note_on,0,0,0,,2,,,74,127
55974,note_off,120,0,0,,2,,,74,127
55975,note_on,1,0,0,,0,,,72,127
56095,note_off,120,0,0,,0,,,72,127
56095,note_off,0,0,0,,6,,,54,127
56095,note_off,0,0,0,,2,,,62,127
56096,note_on,1,0,0,,7,,,55,127
56096,note_on,0,0,0,,11,,,58,127
56096,note_on,0,0,0,,11,,,70,127
56216,note_off,120,0,0,,11,,,70,127
56217,note_on,1,0,0,,0,,,72,127
56337,note_off,120,0,0,,0,,,72,127
56337,note_off,0,0,0,,11,,,58,127
56337,note_off,0,0,0,,7,,,55,127
56338,note_on,1,0,0,,10,,,57,127
56338,note_on,0,0,0,,0,,,60,127
56338,note_on,0,0,0,,2,,,74,127
56458,note_off,120,0,0,,2,,,74,127
56459,note_on,1,0,0,,11,,,70,127
56579,note_off,120,0,0,,11,,,70,127
56579,note_off,0,0,0,,0,,,60,127
56579,note_off,0,0,0,,10,,,57,127
56580,note_on,1,0,0,,11,,,58,127
56580,note_on,0,0,0,,2,,,62,127
56580,note_on,0,0,0,,10,,,69,127
56700,note_off,120,0,0,,10,,,69,127
56701,note_on,1,0,0,,7,,,67,127
56821,note_off,120,0,0,,7,,,67,127
56821,note_off,0,0,0,,2,,,62,127
56821,note_off,0,0,0,,11,,,58,127
56822,note_on,1,0,0,,0,,,60,127
56822,note_on,0,0,0,,10,,,57,127
56822,note_on,0,0,0,,6,,,66,127
57063,note_off,241,0,0,,6,,,66,127
57063,note_off,0,0,0,,10,,,57,127
57063,note_off,0,0,0,,0,,,60,127
57064,note_on,1,0,0,,11,,,58,127
57064,note_on,0,0,0,,2,,,62,127
57064,note_on,0,0,0,,10,,,69,127
57144,note_off,80,0,0,,10,,,69,127
57145,note_on,1,0,0,,7,,,67,127
57225,note_off,80,0,0,,7,,,67,127
57226,note_on,1,0,0,,10,,,69,127
57306,note_off,80,0,0,,10,,,69,127
57306,note_off,0,0,0,,11,,,58,127
57307,note_on,1,0,0,,7,,,55,127
57307,note_on,0,0,0,,7,,,67,127
57387,note_off,80,0,0,,7,,,67,127
57388,note_on,1,0,0,,6,,,66,127
57468,note_off,80,0,0,,6,,,66,127
57469,note_on,1,0,0,,7,,,67,127
57545,note_off,76,0,0,,2,,,62,127
57549,note_off,4,0,0,,7,,,67,127
57549,note_off,0,0,0,,7,,,55,127
57550,note_on,1,0,0,,2,,,50,127
57550,note_on,0,0,0,,7,,,67,127
57791,note_off,241,0,0,,2,,,50,127
57792,note_on,1,0,0,,2,,,38,127
58033,note_off,241,0,0,,7,,,67,127
58034,note_on,1,0,0,,10,,,69,127
58271,note_off,237,0,0,,2,,,38,127
58275,note_off,4,0,0,,10,,,69,127
58276,note_on,1,0,0,,0,,,72,127
58356,note_off,80,0,0,,0,,,72,127
58357,note_on,1,0,0,,11,,,70,127
58437,note_off,80,0,0,,11,,,70,127
58438,note_on,1,0,0,,10,,,69,127
58519,note_on,81,0,0,,10,,,57,127
58519,note_on,0,0,0,,0,,,60,127
58519,note_on,0,0,0,,10,,,81,127
58760,note_off,241,0,0,,0,,,60,127
58760,note_off,0,0,0,,10,,,57,127
58761,note_on,1,0,0,,2,,,62,127
58761,note_on,0,0,0,,11,,,58,127
59002,note_off,241,0,0,,11,,,58,127
59002,note_off,0,0,0,,2,,,62,127
59003,note_on,1,0,0,,3,,,63,127
59003,note_on,0,0,0,,0,,,60,127
59244,note_off,241,0,0,,0,,,60,127
59244,note_off,0,0,0,,3,,,63,127
59244,note_off,0,0,0,,10,,,81,127
59245,note_on,1,0,0,,10,,,57,127
59245,note_on,0,0,0,,6,,,66,127
59486,note_off,241,0,0,,6,,,66,127
59486,note_off,0,0,0,,10,,,57,127
59487,note_on,1,0,0,,7,,,67,127
59487,note_on,0,0,0,,7,,,55,127
59647,note_off,160,0,0,,10,,,69,127
59727,note_off,80,0,0,,7,,,55,127
59727,note_off,0,0,0,,7,,,67,127
59730,note_on,3,0,0,,0,,,72,127
59810,note_off,80,0,0,,0,,,72,127
59811,note_on,1,0,0,,11,,,70,127
59891,note_off,80,0,0,,11,,,70,127
59892,note_on,1,0,0,,10,,,69,127
59973,note_on,81,0,0,,0,,,60,127
59973,note_on,0,0,0,,10,,,57,127
59973,note_on,0,0,0,,10,,,81,127
60214,note_off,241,0,0,,10,,,57,127
60214,note_off,0,0,0,,0,,,60,127
60215,note_on,1,0,0,,11,,,58,127
60215,note_on,0,0,0,,2,,,62,127
60456,note_off,241,0,0,,2,,,62,127
60456,note_off,0,0,0,,11,,,58,127
60457,note_on,1,0,0,,3,,,63,127
60457,note_on,0,0,0,,0,,,60,127
60698,note_off,241,0,0,,0,,,60,127
60698,note_off,0,0,0,,3,,,63,127
60698,note_off,0,0,0,,10,,,81,127
60699,note_on,1,0,0,,10,,,57,127
60699,note_on,0,0,0,,6,,,66,127
60940,note_off,241,0,0,,6,,,66,127
60940,note_off,0,0,0,,10,,,57,127
60941,note_on,1,0,0,,7,,,67,127
60941,note_on,0,0,0,,7,,,55,127
61101,note_off,160,0,0,,10,,,69,127
61181,note_off,80,0,0,,7,,,55,127
61181,note_off,0,0,0,,7,,,67,127
61184,note_on,3,0,0,,0,,,72,127
61264,note_off,80,0,0,,0,,,72,127
61265,note_on,1,0,0,,11,,,70,127
61345,note_off,80,0,0,,11,,,70,127
61346,note_on,1,0,0,,10,,,69,127
61427,note_on,81,0,0,,3,,,63,127
61427,note_on,0,0,0,,0,,,60,127
61427,note_on,0,0,0,,7,,,67,127
61427,note_on,0,0,0,,10,,,81,127
61668,note_off,241,0,0,,7,,,67,127
61668,note_off,0,0,0,,0,,,60,127
61668,note_off,0,0,0,,3,,,63,127
61669,note_on,1,0,0,,2,,,62,127
61669,note_on,0,0,0,,6,,,66,127
61826,note_off,157,0,0,,10,,,69,127
61911,note_off,85,0,0,,10,,,81,127
61912,note_on,1,0,0,,0,,,72,127
61947,note_off,35,0,0,,6,,,66,127
61947,note_off,0,0,0,,2,,,62,127
61991,note_off,44,0,0,,0,,,72,127
61992,note_on,1,0,0,,11,,,70,127
62072,note_off,80,0,0,,11,,,70,127
62073,note_on,1,0,0,,10,,,69,127
62154,note_on,81,0,0,,3,,,63,127
62154,note_on,0,0,0,,7,,,67,127
62154,note_on,0,0,0,,0,,,60,127
62154,note_on,0,0,0,,10,,,81,127
62395,note_off,241,0,0,,0,,,60,127
62395,note_off,0,0,0,,7,,,67,127
62395,note_off,0,0,0,,3,,,63,127
62396,note_on,1,0,0,,6,,,66,127
62396,note_on,0,0,0,,2,,,62,127
62553,note_off,157,0,0,,10,,,69,127
62634,note_off,81,0,0,,10,,,81,127
62638,note_off,4,0,0,,2,,,62,127
62638,note_off,0,0,0,,6,,,66,127
62639,note_on,1,0,0,,3,,,63,127
62639,note_on,0,0,0,,0,,,60,127
62639,note_on,0,0,0,,7,,,67,127
62882,note_on,243,0,0,,3,,,87,127
62882,note_on,0,0,0,,3,,,75,127
63123,note_off,241,0,0,,3,,,75,127
63123,note_off,0,0,0,,3,,,87,127
63123,note_off,0,0,0,,0,,,60,127
63123,note_off,0,0,0,,3,,,63,127
63124,note_on,1,0,0,,11,,,58,127
63124,note_on,0,0,0,,2,,,62,127
63124,note_on,0,0,0,,2,,,86,127
63124,note_on,0,0,0,,2,,,74,127
63365,note_off,241,0,0,,2,,,74,127
63365,note_off,0,0,0,,2,,,86,127
63365,note_off,0,0,0,,2,,,62,127
63365,note_off,0,0,0,,11,,,58,127
63365,note_off,0,0,0,,7,,,67,127
63366,note_on,1,0,0,,2,,,62,127
63366,note_on,0,0,0,,6,,,66,127
63366,note_on,0,0,0,,10,,,57,127
63366,note_on,0,0,0,,0,,,60,127
63366,note_on,0,0,0,,0,,,72,127
63366,note_on,0,0,0,,0,,,84,127
63607,note_off,241,0,0,,0,,,72,127
63608,note_on,1,0,0,,6,,,78,127
63669,note_off,61,0,0,,0,,,84,127
63850,note_off,181,0,0,,6,,,78,127
63850,note_off,0,0,0,,0,,,60,127
63850,note_off,0,0,0,,10,,,57,127
63850,note_off,0,0,0,,6,,,66,127
63850,note_off,0,0,0,,2,,,62,127
63851,note_on,1,0,0,,7,,,55,127
63851,note_on,0,0,0,,7,,,67,127
63851,note_on,0,0,0,,2,,,62,127
63851,note_on,0,0,0,,7,,,79,127
64092,note_off,241,0,0,,2,,,62,127
64092,note_off,0,0,0,,7,,,67,127
64092,note_off,0,0,0,,7,,,55,127
64093,note_on,1,0,0,,0,,,48,127
64093,note_on,0,0,0,,0,,,60,127
64253,note_off,160,0,0,,7,,,79,127
64254,note_on,1,0,0,,5,,,77,127
64334,note_off,80,0,0,,5,,,77,127
64335,note_on,1,0,0,,3,,,75,127
64576,note_off,241,0,0,,3,,,75,127
64576,note_off,0,0,0,,0,,,60,127
64576,note_off,0,0,0,,0,,,48,127
64577,note_on,1,0,0,,11,,,46,127
64577,note_on,0,0,0,,11,,,58,127
64577,note_on,0,0,0,,2,,,74,127
64577,note_on,0,0,0,,7,,,67,127
64818,note_off,241,0,0,,2,,,74,127
64818,note_off,0,0,0,,11,,,58,127
64818,note_off,0,0,0,,11,,,46,127
64819,note_on,1,0,0,,10,,,45,127
64819,note_on,0,0,0,,10,,,57,127
64819,note_on,0,0,0,,0,,,72,127
65056,note_off,237,0,0,,7,,,67,127
65061,note_on,5,0,0,,6,,,66,127
65298,note_off,237,0,0,,0,,,72,127
65302,note_off,4,0,0,,6,,,66,127
65302,note_off,0,0,0,,10,,,57,127
65302,note_off,0,0,0,,10,,,45,127
65303,note_on,1,0,0,,7,,,43,127
65303,note_on,0,0,0,,7,,,55,127
65303,note_on,0,0,0,,11,,,70,127
65303,note_on,0,0,0,,7,,,67,127
65544,note_off,241,0,0,,7,,,67,127
65544,note_off,0,0,0,,11,,,70,127
65544,note_off,0,0,0,,7,,,55,127
65544,note_off,0,0,0,,7,,,43,127
65545,note_on,1,0,0,,0,,,48,127
65545,note_on,0,0,0,,10,,,69,127
65705,note_off,160,0,0,,10,,,69,127
65706,note_on,1,0,0,,11,,,70,127
65786,note_off,80,0,0,,11,,,70,127
65786,note_off,0,0,0,,0,,,48,127
65787,note_on,1,0,0,,2,,,50,127
65787,note_on,0,0,0,,7,,,67,127
66028,note_off,241,0,0,,7,,,67,127
66028,note_off,0,0,0,,2,,,50,127
66029,note_on,1,0,0,,2,,,38,127
66029,note_on,0,0,0,,6,,,66,127
66270,note_off,241,0,0,,6,,,66,127
66270,note_off,0,0,0,,2,,,38,127
66271,note_on,1,0,0,,7,,,43,127
66271,note_on,0,0,0,,10,,,69,127
66512,note_off,241,0,0,,7,,,43,127
66513,note_on,1,0,0,,7,,,31,127
66754,note_off,241,0,0,,10,,,69,127
66755,note_on,1,0,0,,7,,,67,127
66992,note_off,237,0,0,,7,,,31,127
66996,note_off,4,0,0,,7,,,67,127
66997,note_on,1,0,0,,0,,,72,127
67077,note_off,80,0,0,,0,,,72,127
67078,note_on,1,0,0,,11,,,70,127
67158,note_off,80,0,0,,11,,,70,127
67159,note_on,1,0,0,,10,,,69,127
67240,note_on,81,0,0,,0,,,60,127
67240,note_on,0,0,0,,10,,,57,127
67240,note_on,0,0,0,,10,,,81,127
67481,note_off,241,0,0,,10,,,57,127
67481,note_off,0,0,0,,0,,,60,127
67482,note_on,1,0,0,,2,,,62,127
67482,note_on,0,0,0,,11,,,58,127
67723,note_off,241,0,0,,11,,,58,127
67723,note_off,0,0,0,,2,,,62,127
67724,note_on,1,0,0,,0,,,60,127
67724,note_on,0,0,0,,3,,,63,127
67965,note_off,241,0,0,,3,,,63,127
67965,note_off,0,0,0,,0,,,60,127
67966,note_on,1,0,0,,10,,,57,127
67966,note_on,0,0,0,,6,,,66,127
68207,note_off,241,0,0,,6,,,66,127
68207,note_off,0,0,0,,10,,,57,127
68208,note_on,1,0,0,,7,,,55,127
68208,note_on,0,0,0,,7,,,67,127
68368,note_off,160,0,0,,10,,,69,127
68448,note_off,80,0,0,,7,,,67,127
68448,note_off,0,0,0,,7,,,55,127
68449,note_off,1,0,0,,10,,,81,127
68450,note_on,1,0,0,,0,,,72,127
68530,note_off,80,0,0,,0,,,72,127
68531,note_on,1,0,0,,11,,,70,127
68611,note_off,80,0,0,,11,,,70,127
68612,note_on,1,0,0,,10,,,69,127
68693,note_on,81,0,0,,0,,,60,127
68693,note_on,0,0,0,,10,,,57,127
68693,note_on,0,0,0,,10,,,81,127
68934,note_off,241,0,0,,10,,,57,127
68934,note_off,0,0,0,,0,,,60,127
68935,note_on,1,0,0,,2,,,62,127
68935,note_on,0,0,0,,11,,,58,127
69176,note_off,241,0,0,,11,,,58,127
69176,note_off,0,0,0,,2,,,62,127
69177,note_on,1,0,0,,3,,,63,127
69177,note_on,0,0,0,,0,,,60,127
69418,note_off,241,0,0,,0,,,60,127
69418,note_off,0,0,0,,3,,,63,127
69419,note_on,1,0,0,,10,,,57,127
69419,note_on,0,0,0,,6,,,66,127
69660,note_off,241,0,0,,6,,,66,127
69660,note_off,0,0,0,,10,,,57,127
69661,note_on,1,0,0,,7,,,55,127
69661,note_on,0,0,0,,7,,,67,127
69821,note_off,160,0,0,,10,,,69,127
69902,note_off,81,0,0,,10,,,81,127
69903,note_on,1,0,0,,0,,,72,127
69938,note_off,35,0,0,,7,,,67,127
69938,note_off,0,0,0,,7,,,55,127
69982,note_off,44,0,0,,0,,,72,127
69983,note_on,1,0,0,,11,,,70,127
70063,note_off,80,0,0,,11,,,70,127
70064,note_on,1,0,0,,10,,,69,127
70144,note_off,80,0,0,,10,,,69,127
70145,note_on,1,0,0,,0,,,60,127
70145,note_on,0,0,0,,7,,,67,127
70145,note_on,0,0,0,,3,,,63,127
70145,note_on,0,0,0,,10,,,81,127
70385,note_off,240,0,0,,10,,,81,127
70386,note_off,1,0,0,,3,,,63,127
70386,note_off,0,0,0,,7,,,67,127
70386,note_off,0,0,0,,0,,,60,127
70387,note_on,1,0,0,,6,,,66,127
70387,note_on,0,0,0,,2,,,62,127
70627,note_off,240,0,0,,2,,,62,127
70627,note_off,0,0,0,,6,,,66,127
70630,note_on,3,0,0,,0,,,72,127
70710,note_off,80,0,0,,0,,,72,127
70711,note_on,1,0,0,,11,,,70,127
70791,note_off,80,0,0,,11,,,70,127
70792,note_on,1,0,0,,10,,,69,127
70873,note_on,81,0,0,,3,,,63,127
70873,note_on,0,0,0,,7,,,67,127
70873,note_on,0,0,0,,0,,,60,127
70873,note_on,0,0,0,,10,,,81,127
71113,note_off,240,0,0,,10,,,81,127
71114,note_off,1,0,0,,0,,,60,127
71114,note_off,0,0,0,,7,,,67,127
71114,note_off,0,0,0,,3,,,63,127
71115,note_on,1,0,0,,2,,,62,127
71115,note_on,0,0,0,,6,,,66,127
71272,note_off,157,0,0,,10,,,69,127
71357,note_off,85,0,0,,6,,,66,127
71357,note_off,0,0,0,,2,,,62,127
71358,note_on,1,0,0,,0,,,60,127
71358,note_on,0,0,0,,3,,,63,127
71358,note_on,0,0,0,,7,,,67,127
71601,note_on,243,0,0,,3,,,87,127
71601,note_on,0,0,0,,3,,,75,127
71842,note_off,241,0,0,,3,,,75,127
71842,note_off,0,0,0,,3,,,87,127
71842,note_off,0,0,0,,3,,,63,127
71842,note_off,0,0,0,,0,,,60,127
71843,note_on,1,0,0,,11,,,58,127
71843,note_on,0,0,0,,2,,,62,127
71843,note_on,0,0,0,,2,,,86,127
71843,note_on,0,0,0,,2,,,74,127
72084,note_off,241,0,0,,2,,,74,127
72084,note_off,0,0,0,,2,,,86,127
72084,note_off,0,0,0,,2,,,62,127
72084,note_off,0,0,0,,11,,,58,127
72084,note_off,0,0,0,,7,,,67,127
72085,note_on,1,0,0,,0,,,60,127
72085,note_on,0,0,0,,10,,,57,127
72085,note_on,0,0,0,,6,,,66,127
72085,note_on,0,0,0,,2,,,62,127
72085,note_on,0,0,0,,0,,,84,127
72085,note_on,0,0,0,,0,,,72,127
72326,note_off,241,0,0,,0,,,72,127
72326,note_off,0,0,0,,0,,,84,127
72327,note_on,1,0,0,,6,,,78,127
72568,note_off,241,0,0,,6,,,78,127
72568,note_off,0,0,0,,2,,,62,127
72568,note_off,0,0,0,,6,,,66,127
72568,note_off,0,0,0,,10,,,57,127
72568,note_off,0,0,0,,0,,,60,127
72569,note_on,1,0,0,,7,,,55,127
72569,note_on,0,0,0,,2,,,62,127
72569,note_on,0,0,0,,7,,,67,127
72569,note_on,0,0,0,,7,,,79,127
72810,note_off,241,0,0,,7,,,67,127
72810,note_off,0,0,0,,2,,,62,127
72810,note_off,0,0,0,,7,,,55,127
72811,note_on,1,0,0,,0,,,48,127
72811,note_on,0,0,0,,0,,,60,127
72971,note_off,160,0,0,,7,,,79,127
72972,note_on,1,0,0,,5,,,77,127
73052,note_off,80,0,0,,5,,,77,127
73053,note_on,1,0,0,,3,,,75,127
73294,note_off,241,0,0,,3,,,75,127
73294,note_off,0,0,0,,0,,,60,127
73294,note_off,0,0,0,,0,,,48,127
73295,note_on,1,0,0,,11,,,46,127
73295,note_on,0,0,0,,11,,,58,127
73295,note_on,0,0,0,,2,,,74,127
73295,note_on,0,0,0,,7,,,67,127
73535,note_off,240,0,0,,2,,,74,127
73536,note_off,1,0,0,,11,,,58,127
73536,note_off,0,0,0,,11,,,46,127
73537,note_on,1,0,0,,10,,,57,127
73537,note_on,0,0,0,,10,,,45,127
73537,note_on,0,0,0,,0,,,72,127
73774,note_off,237,0,0,,7,,,67,127
73779,note_on,5,0,0,,6,,,66,127
74016,note_off,237,0,0,,0,,,72,127
74020,note_off,4,0,0,,6,,,66,127
74020,note_off,0,0,0,,10,,,45,127
74020,note_off,0,0,0,,10,,,57,127
74021,note_on,1,0,0,,7,,,43,127
74021,note_on,0,0,0,,7,,,55,127
74021,note_on,0,0,0,,7,,,67,127
74021,note_on,0,0,0,,11,,,70,127
74262,note_off,241,0,0,,11,,,70,127
74262,note_off,0,0,0,,7,,,67,127
74262,note_off,0,0,0,,7,,,55,127
74262,note_off,0,0,0,,7,,,43,127
74263,note_on,1,0,0,,0,,,48,127
74263,note_on,0,0,0,,10,,,69,127
74423,note_off,160,0,0,,10,,,69,127
74424,note_on,1,0,0,,11,,,70,127
74504,note_off,80,0,0,,11,,,70,127
74504,note_off,0,0,0,,0,,,48,127
74505,note_on,1,0,0,,2,,,50,127
74505,note_on,0,0,0,,7,,,67,127
74746,note_off,241,0,0,,7,,,67,127
74746,note_off,0,0,0,,2,,,50,127
74747,note_on,1,0,0,,2,,,38,127
74747,note_on,0,0,0,,6,,,66,127
74988,note_off,241,0,0,,6,,,66,127
74988,note_off,0,0,0,,2,,,38,127
74989,note_on,1,0,0,,7,,,43,127
74989,note_on,0,0,0,,7,,,67,127
75069,note_off,80,0,0,,7,,,67,127
75070,note_on,1,0,0,,7,,,79,127
75150,note_off,80,0,0,,7,,,79,127
75151,note_on,1,0,0,,2,,,74,127
75231,note_off,80,0,0,,2,,,74,127
75231,note_off,0,0,0,,7,,,43,127
75232,note_on,1,0,0,,11,,,46,127
75313,note_on,81,0,0,,3,,,75,127
75393,note_off,80,0,0,,3,,,75,127
75394,note_on,1,0,0,,0,,,72,127
75474,note_off,80,0,0,,0,,,72,127
75474,note_off,0,0,0,,11,,,46,127
75475,note_on,1,0,0,,0,,,48,127
75556,note_on,81,0,0,,2,,,74,127
75636,note_off,80,0,0,,2,,,74,127
75637,note_on,1,0,0,,11,,,70,127
75717,note_off,80,0,0,,11,,,70,127
75717,note_off,0,0,0,,0,,,48,127
75718,note_on,1,0,0,,2,,,50,127
75799,note_on,81,0,0,,0,,,72,127
75879,note_off,80,0,0,,0,,,72,127
75880,note_on,1,0,0,,10,,,69,127
75960,note_off,80,0,0,,10,,,69,127
75960,note_off,0,0,0,,2,,,50,127
75961,note_on,1,0,0,,2,,,38,127
76042,note_on,81,0,0,,11,,,70,127
76122,note_off,80,0,0,,11,,,70,127
76123,note_on,1,0,0,,7,,,67,127
76203,note_off,80,0,0,,7,,,67,127
76203,note_off,0,0,0,,2,,,38,127
76204,note_on,1,0,0,,2,,,50,127
76285,note_on,81,0,0,,10,,,69,127
76365,note_off,80,0,0,,10,,,69,127
76366,note_on,1,0,0,,6,,,66,127
76446,note_off,80,0,0,,6,,,66,127
76446,note_off,0,0,0,,2,,,50,127
76447,note_on,1,0,0,,7,,,43,127
76528,note_on,81,0,0,,7,,,67,127
76608,note_off,80,0,0,,7,,,67,127
76611,note_on,3,0,0,,2,,,62,127
76689,note_off,78,0,0,,7,,,43,127
76690,note_off,1,0,0,,2,,,62,127
76693,note_on,3,0,0,,11,,,46,127
76774,note_on,81,0,0,,3,,,63,127
76845,note_off,71,0,0,,3,,,63,127
76856,note_on,11,0,0,,0,,,60,127
76934,note_off,78,0,0,,11,,,46,127
76935,note_off,1,0,0,,0,,,60,127
76936,note_on,1,0,0,,0,,,48,127
77018,note_on,82,0,0,,2,,,62,127
77089,note_off,71,0,0,,2,,,62,127
77100,note_on,11,0,0,,11,,,58,127
77177,note_off,77,0,0,,0,,,48,127
77180,note_off,3,0,0,,11,,,58,127
77181,note_on,1,0,0,,2,,,50,127
77263,note_on,82,0,0,,0,,,60,127
77334,note_off,71,0,0,,0,,,60,127
77345,note_on,11,0,0,,10,,,57,127
77422,note_off,77,0,0,,2,,,50,127
77425,note_off,3,0,0,,10,,,57,127
77426,note_on,1,0,0,,2,,,38,127
77508,note_on,82,0,0,,11,,,58,127
77579,note_off,71,0,0,,11,,,58,127
77590,note_on,11,0,0,,7,,,55,127
77667,note_off,77,0,0,,2,,,38,127
77670,note_off,3,0,0,,7,,,55,127
77671,note_on,1,0,0,,2,,,50,127
77753,note_on,82,0,0,,10,,,57,127
77824,note_off,71,0,0,,10,,,57,127
77835,note_on,11,0,0,,6,,,54,127
77912,note_off,77,0,0,,2,,,50,127
77915,note_off,3,0,0,,6,,,54,127
77916,note_on,1,0,0,,10,,,57,127
77916,note_on,0,0,0,,7,,,43,127
78284,note_on,368,0,0,,7,,,31,127
78643,note_off,359,0,0,,7,,,43,127
78644,note_off,1,0,0,,10,,,57,127
78652,note_on,8,0,0,,7,,,55,127
80103,note_off,1451,0,0,,7,,,31,127
80107,note_off,4,0,0,,7,,,55,127
82944,end_of_track,2837,1,0,,,,,,
