tick,type,time,meta,track,program,channel,pitch,tempo,note,velocity
0,copyright,0,1,0,,,,,,
0,program_change,0,0,0,6,0,,,,
0,pitchwheel,0,0,0,,0,0,,,
0,program_change,0,0,0,6,1,,,,
0,pitchwheel,0,0,0,,1,-590,,,
0,program_change,0,0,0,6,2,,,,
0,pitchwheel,0,0,0,,2,-272,,,
0,program_change,0,0,0,6,3,,,,
0,pitchwheel,0,0,0,,3,-353,,,
0,program_change,0,0,0,6,4,,,,
0,pitchwheel,0,0,0,,4,-560,,,
0,program_change,0,0,0,6,5,,,,
0,pitchwheel,0,0,0,,5,-80,,,
0,program_change,0,0,0,6,6,,,,
0,pitchwheel,0,0,0,,6,-625,,,
0,program_change,0,0,0,6,7,,,,
0,pitchwheel,0,0,0,,7,-130,,,
0,program_change,0,0,0,6,8,,,,
0,pitchwheel,0,0,0,,8,-512,,,
0,program_change,0,0,0,6,10,,,,
0,pitchwheel,0,0,0,,10,-464,,,
0,program_change,0,0,0,6,11,,,,
0,pitchwheel,0,0,0,,11,-208,,,
0,program_change,0,0,0,6,12,,,,
0,pitchwheel,0,0,0,,12,-553,,,
0,set_tempo,0,1,0,,,,500000,,
110,note_on,110,0,0,,7,,,79,127
328,note_off,218,0,0,,7,,,79,127
329,note_on,1,0,0,,2,,,74,127
438,note_off,109,0,0,,2,,,74,127
439,note_on,1,0,0,,12,,,71,127
548,note_off,109,0,0,,12,,,71,127
549,note_on,1,0,0,,7,,,67,127
767,note_off,218,0,0,,7,,,67,127
768,note_on,1,0,0,,2,,,74,127
969,note_off,201,0,0,,2,,,74,127
987,note_on,18,0,0,,0,,,72,127
1206,note_on,219,0,0,,10,,,69,127
1214,note_off,8,0,0,,0,,,72,127
1424,note_off,210,0,0,,10,,,69,127
1425,note_on,1,0,0,,2,,,62,127
1643,note_off,218,0,0,,2,,,62,127
1644,note_on,1,0,0,,0,,,72,127
1845,note_off,201,0,0,,0,,,72,127
1863,note_on,18,0,0,,12,,,71,127
2082,note_on,219,0,0,,7,,,67,127
2090,note_off,8,0,0,,12,,,71,127
2300,note_off,210,0,0,,7,,,67,127
2301,note_on,1,0,0,,2,,,62,127
2519,note_off,218,0,0,,2,,,62,127
2520,note_on,1,0,0,,2,,,74,127
2721,note_off,201,0,0,,2,,,74,127
2739,note_on,18,0,0,,0,,,72,127
2958,note_on,219,0,0,,10,,,69,127
2966,note_off,8,0,0,,0,,,72,127
3176,note_off,210,0,0,,10,,,69,127
3177,note_on,1,0,0,,2,,,62,127
3395,note_off,218,0,0,,2,,,62,127
3396,note_on,1,0,0,,0,,,72,127
3603,note_off,207,0,0,,0,,,72,127
3616,note_on,13,0,0,,7,,,67,127
3616,note_on,0,0,0,,0,,,72,127
3834,note_off,218,0,0,,7,,,67,127
3835,note_on,1,0,0,,2,,,62,127
3944,note_off,109,0,0,,2,,,62,127
3945,note_on,1,0,0,,12,,,59,127
4054,note_off,109,0,0,,12,,,59,127
4054,note_off,0,0,0,,0,,,72,127
4055,note_on,1,0,0,,7,,,55,127
4055,note_on,0,0,0,,12,,,71,127
4273,note_off,218,0,0,,7,,,55,127
4274,note_on,1,0,0,,2,,,62,127
4492,note_off,218,0,0,,2,,,62,127
4492,note_off,0,0,0,,12,,,71,127
4493,note_on,1,0,0,,0,,,60,127
4493,note_on,0,0,0,,12,,,71,127
4565,note_off,72,0,0,,12,,,71,127
4566,note_on,1,0,0,,10,,,69,127
4638,note_off,72,0,0,,10,,,69,127
4639,note_on,1,0,0,,12,,,71,127
4711,note_off,72,0,0,,12,,,71,127
4711,note_off,0,0,0,,0,,,60,127
4712,note_on,1,0,0,,10,,,57,127
4712,note_on,0,0,0,,10,,,69,127
4784,note_off,72,0,0,,10,,,69,127
4785,note_on,1,0,0,,12,,,71,127
4857,note_off,72,0,0,,12,,,71,127
4858,note_on,1,0,0,,10,,,69,127
4930,note_off,72,0,0,,10,,,69,127
4930,note_off,0,0,0,,10,,,57,127
4931,note_on,1,0,0,,2,,,50,127
4931,note_on,0,0,0,,12,,,71,127
5003,note_off,72,0,0,,12,,,71,127
5004,note_on,1,0,0,,10,,,69,127
5076,note_off,72,0,0,,10,,,69,127
5077,note_on,1,0,0,,12,,,71,127
5149,note_off,72,0,0,,12,,,71,127
5149,note_off,0,0,0,,2,,,50,127
5150,note_on,1,0,0,,0,,,60,127
5150,note_on,0,0,0,,10,,,69,127
5222,note_off,72,0,0,,10,,,69,127
5223,note_on,1,0,0,,7,,,67,127
5295,note_off,72,0,0,,7,,,67,127
5296,note_on,1,0,0,,10,,,69,127
5368,note_off,72,0,0,,10,,,69,127
5368,note_off,0,0,0,,0,,,60,127
5369,note_on,1,0,0,,12,,,59,127
5369,note_on,0,0,0,,12,,,71,127
5587,note_off,218,0,0,,12,,,59,127
5588,note_on,1,0,0,,7,,,55,127
5806,note_off,218,0,0,,7,,,55,127
5807,note_on,1,0,0,,2,,,50,127
6025,note_off,218,0,0,,2,,,50,127
6025,note_off,0,0,0,,12,,,71,127
6026,note_on,1,0,0,,2,,,62,127
6244,note_off,218,0,0,,2,,,62,127
6245,note_on,1,0,0,,0,,,60,127
6245,note_on,0,0,0,,7,,,79,127
6317,note_off,72,0,0,,7,,,79,127
6318,note_on,1,0,0,,6,,,78,127
6390,note_off,72,0,0,,6,,,78,127
6391,note_on,1,0,0,,7,,,79,127
6463,note_off,72,0,0,,7,,,79,127
6463,note_off,0,0,0,,0,,,60,127
6464,note_on,1,0,0,,10,,,57,127
6464,note_on,0,0,0,,6,,,78,127
6536,note_off,72,0,0,,6,,,78,127
6537,note_on,1,0,0,,7,,,79,127
6609,note_off,72,0,0,,7,,,79,127
6610,note_on,1,0,0,,6,,,78,127
6682,note_off,72,0,0,,6,,,78,127
6682,note_off,0,0,0,,10,,,57,127
6683,note_on,1,0,0,,2,,,50,127
6683,note_on,0,0,0,,7,,,79,127
6755,note_off,72,0,0,,7,,,79,127
6756,note_on,1,0,0,,6,,,78,127
6828,note_off,72,0,0,,6,,,78,127
6829,note_on,1,0,0,,7,,,79,127
6901,note_off,72,0,0,,7,,,79,127
6901,note_off,0,0,0,,2,,,50,127
6902,note_on,1,0,0,,0,,,60,127
6902,note_on,0,0,0,,6,,,78,127
6974,note_off,72,0,0,,6,,,78,127
6975,note_on,1,0,0,,4,,,76,127
7047,note_off,72,0,0,,4,,,76,127
7048,note_on,1,0,0,,6,,,78,127
7120,note_off,72,0,0,,6,,,78,127
7120,note_off,0,0,0,,0,,,60,127
7121,note_on,1,0,0,,12,,,59,127
7121,note_on,0,0,0,,7,,,79,127
7286,note_off,165,0,0,,7,,,79,127
7341,note_on,55,0,0,,2,,,74,127
7450,note_off,109,0,0,,2,,,74,127
7451,note_on,1,0,0,,3,,,75,127
7560,note_off,109,0,0,,3,,,75,127
7560,note_off,0,0,0,,12,,,59,127
7561,note_on,1,0,0,,0,,,60,127
7561,note_on,0,0,0,,4,,,76,127
7755,note_off,194,0,0,,4,,,76,127
7780,note_on,25,0,0,,0,,,72,127
7889,note_off,109,0,0,,0,,,72,127
7890,note_on,1,0,0,,1,,,73,127
7999,note_off,109,0,0,,1,,,73,127
7999,note_off,0,0,0,,0,,,60,127
8000,note_on,1,0,0,,2,,,62,127
8000,note_on,0,0,0,,2,,,74,127
8218,note_off,218,0,0,,2,,,74,127
8219,note_on,1,0,0,,7,,,67,127
8437,note_off,218,0,0,,7,,,67,127
8437,note_off,0,0,0,,2,,,62,127
8438,note_on,1,0,0,,2,,,50,127
8438,note_on,0,0,0,,12,,,71,127
8547,note_off,109,0,0,,12,,,71,127
8548,note_on,1,0,0,,10,,,69,127
8657,note_off,109,0,0,,10,,,69,127
8658,note_on,1,0,0,,7,,,67,127
8767,note_off,109,0,0,,7,,,67,127
8768,note_on,1,0,0,,6,,,66,127
8877,note_off,109,0,0,,6,,,66,127
8877,note_off,0,0,0,,2,,,50,127
8878,note_on,1,0,0,,7,,,55,127
8878,note_on,0,0,0,,7,,,67,127
9095,note_off,217,0,0,,7,,,67,127
9096,note_off,1,0,0,,7,,,55,127
9097,note_on,1,0,0,,2,,,62,127
9206,note_off,109,0,0,,2,,,62,127
9207,note_on,1,0,0,,3,,,63,127
9316,note_off,109,0,0,,3,,,63,127
9317,note_on,1,0,0,,4,,,64,127
9535,note_off,218,0,0,,4,,,64,127
9536,note_on,1,0,0,,0,,,60,127
9645,note_off,109,0,0,,0,,,60,127
9646,note_on,1,0,0,,1,,,61,127
9755,note_off,109,0,0,,1,,,61,127
9756,note_on,1,0,0,,2,,,62,127
9756,note_on,0,0,0,,7,,,79,127
9974,note_off,218,0,0,,7,,,79,127
9974,note_off,0,0,0,,2,,,62,127
9975,note_on,1,0,0,,7,,,55,127
9975,note_on,0,0,0,,12,,,83,127
10193,note_off,218,0,0,,12,,,83,127
10193,note_off,0,0,0,,7,,,55,127
10194,note_on,1,0,0,,0,,,48,127
10194,note_on,0,0,0,,12,,,83,127
10303,note_off,109,0,0,,12,,,83,127
10304,note_on,1,0,0,,10,,,81,127
10413,note_off,109,0,0,,10,,,81,127
10413,note_off,0,0,0,,0,,,48,127
10414,note_on,1,0,0,,2,,,50,127
10414,note_on,0,0,0,,7,,,79,127
10523,note_off,109,0,0,,7,,,79,127
10524,note_on,1,0,0,,6,,,78,127
10633,note_off,109,0,0,,6,,,78,127
10633,note_off,0,0,0,,2,,,50,127
10634,note_on,1,0,0,,7,,,43,127
10634,note_on,0,0,0,,7,,,79,127
10743,note_off,109,0,0,,7,,,79,127
10744,note_on,1,0,0,,2,,,74,127
10853,note_off,109,0,0,,2,,,74,127
10854,note_on,1,0,0,,12,,,71,127
10963,note_off,109,0,0,,12,,,71,127
10964,note_on,1,0,0,,7,,,67,127
11073,note_off,109,0,0,,7,,,67,127
11074,note_on,1,0,0,,2,,,62,127
11183,note_off,109,0,0,,2,,,62,127
11184,note_on,1,0,0,,12,,,59,127
11293,note_off,109,0,0,,12,,,59,127
11293,note_off,0,0,0,,7,,,43,127
11294,note_on,1,0,0,,7,,,55,127
11403,note_off,109,0,0,,7,,,55,127
11404,note_on,1,0,0,,2,,,50,127
11513,note_off,109,0,0,,2,,,50,127
11514,note_on,1,0,0,,7,,,43,127
12171,note_off,657,0,0,,7,,,43,127
12611,note_on,440,0,0,,10,,,69,127
12611,note_on,0,0,0,,6,,,66,127
12720,note_off,109,0,0,,6,,,66,127
12720,note_off,0,0,0,,10,,,69,127
12721,note_on,1,0,0,,2,,,74,127
12721,note_on,0,0,0,,2,,,62,127
12830,note_off,109,0,0,,2,,,62,127
12830,note_off,0,0,0,,2,,,74,127
12831,note_on,1,0,0,,12,,,71,127
12831,note_on,0,0,0,,7,,,67,127
12940,note_off,109,0,0,,7,,,67,127
12940,note_off,0,0,0,,12,,,71,127
12941,note_on,1,0,0,,4,,,76,127
12941,note_on,0,0,0,,0,,,60,127
13050,note_off,109,0,0,,0,,,60,127
13050,note_off,0,0,0,,4,,,76,127
13051,note_on,1,0,0,,10,,,69,127
13051,note_on,0,0,0,,2,,,62,127
13160,note_off,109,0,0,,2,,,62,127
13160,note_off,0,0,0,,10,,,69,127
13161,note_on,1,0,0,,2,,,74,127
13161,note_on,0,0,0,,6,,,66,127
13270,note_off,109,0,0,,6,,,66,127
13270,note_off,0,0,0,,2,,,74,127
13271,note_on,1,0,0,,12,,,71,127
13271,note_on,0,0,0,,7,,,67,127
13380,note_off,109,0,0,,7,,,67,127
13380,note_off,0,0,0,,12,,,71,127
13381,note_on,1,0,0,,4,,,76,127
13381,note_on,0,0,0,,0,,,60,127
13490,note_off,109,0,0,,0,,,60,127
13490,note_off,0,0,0,,4,,,76,127
13491,note_on,1,0,0,,10,,,69,127
13491,note_on,0,0,0,,2,,,62,127
13600,note_off,109,0,0,,2,,,62,127
13600,note_off,0,0,0,,10,,,69,127
13601,note_on,1,0,0,,2,,,74,127
13601,note_on,0,0,0,,6,,,66,127
13710,note_off,109,0,0,,6,,,66,127
13710,note_off,0,0,0,,2,,,74,127
13711,note_on,1,0,0,,12,,,71,127
13711,note_on,0,0,0,,7,,,67,127
13820,note_off,109,0,0,,7,,,67,127
13820,note_off,0,0,0,,12,,,71,127
13821,note_on,1,0,0,,4,,,76,127
13821,note_on,0,0,0,,0,,,60,127
13930,note_off,109,0,0,,0,,,60,127
13930,note_off,0,0,0,,4,,,76,127
13931,note_on,1,0,0,,10,,,69,127
13931,note_on,0,0,0,,2,,,62,127
14040,note_off,109,0,0,,2,,,62,127
14040,note_off,0,0,0,,10,,,69,127
14041,note_on,1,0,0,,2,,,74,127
14041,note_on,0,0,0,,6,,,66,127
14150,note_off,109,0,0,,6,,,66,127
14150,note_off,0,0,0,,2,,,74,127
14151,note_on,1,0,0,,12,,,71,127
14151,note_on,0,0,0,,7,,,67,127
14260,note_off,109,0,0,,7,,,67,127
14260,note_off,0,0,0,,12,,,71,127
14261,note_on,1,0,0,,4,,,76,127
14261,note_on,0,0,0,,0,,,60,127
14370,note_off,109,0,0,,0,,,60,127
14370,note_off,0,0,0,,4,,,76,127
14371,note_on,1,0,0,,10,,,69,127
14371,note_on,0,0,0,,2,,,62,127
14480,note_off,109,0,0,,2,,,62,127
14481,note_on,1,0,0,,10,,,57,127
14590,note_off,109,0,0,,10,,,57,127
14591,note_on,1,0,0,,6,,,54,127
14700,note_off,109,0,0,,6,,,54,127
14701,note_on,1,0,0,,2,,,50,127
14806,note_off,105,0,0,,10,,,69,127
14809,note_off,3,0,0,,2,,,50,127
14810,note_on,1,0,0,,2,,,38,127
15139,note_off,329,0,0,,2,,,38,127
15249,note_on,110,0,0,,12,,,71,127
15249,note_on,0,0,0,,8,,,68,127
15358,note_off,109,0,0,,8,,,68,127
15358,note_off,0,0,0,,12,,,71,127
15359,note_on,1,0,0,,4,,,76,127
15359,note_on,0,0,0,,4,,,64,127
15468,note_off,109,0,0,,4,,,64,127
15468,note_off,0,0,0,,4,,,76,127
15469,note_on,1,0,0,,0,,,72,127
15469,note_on,0,0,0,,10,,,69,127
15578,note_off,109,0,0,,10,,,69,127
15578,note_off,0,0,0,,0,,,72,127
15579,note_on,1,0,0,,5,,,77,127
15579,note_on,0,0,0,,2,,,62,127
15688,note_off,109,0,0,,2,,,62,127
15688,note_off,0,0,0,,5,,,77,127
15689,note_on,1,0,0,,12,,,71,127
15689,note_on,0,0,0,,4,,,64,127
15798,note_off,109,0,0,,4,,,64,127
15798,note_off,0,0,0,,12,,,71,127
15799,note_on,1,0,0,,4,,,76,127
15799,note_on,0,0,0,,8,,,68,127
15908,note_off,109,0,0,,8,,,68,127
15908,note_off,0,0,0,,4,,,76,127
15909,note_on,1,0,0,,0,,,72,127
15909,note_on,0,0,0,,10,,,69,127
16018,note_off,109,0,0,,10,,,69,127
16018,note_off,0,0,0,,0,,,72,127
16019,note_on,1,0,0,,5,,,77,127
16019,note_on,0,0,0,,2,,,62,127
16128,note_off,109,0,0,,2,,,62,127
16128,note_off,0,0,0,,5,,,77,127
16129,note_on,1,0,0,,12,,,71,127
16129,note_on,0,0,0,,4,,,64,127
16238,note_off,109,0,0,,4,,,64,127
16238,note_off,0,0,0,,12,,,71,127
16239,note_on,1,0,0,,4,,,76,127
16239,note_on,0,0,0,,8,,,68,127
16348,note_off,109,0,0,,8,,,68,127
16348,note_off,0,0,0,,4,,,76,127
16349,note_on,1,0,0,,0,,,72,127
16349,note_on,0,0,0,,10,,,69,127
16458,note_off,109,0,0,,10,,,69,127
16458,note_off,0,0,0,,0,,,72,127
16459,note_on,1,0,0,,5,,,77,127
16459,note_on,0,0,0,,2,,,62,127
16568,note_off,109,0,0,,2,,,62,127
16568,note_off,0,0,0,,5,,,77,127
16569,note_on,1,0,0,,12,,,71,127
16569,note_on,0,0,0,,4,,,64,127
16678,note_off,109,0,0,,4,,,64,127
16678,note_off,0,0,0,,12,,,71,127
16679,note_on,1,0,0,,4,,,76,127
16679,note_on,0,0,0,,8,,,68,127
16788,note_off,109,0,0,,8,,,68,127
16788,note_off,0,0,0,,4,,,76,127
16789,note_on,1,0,0,,0,,,72,127
16789,note_on,0,0,0,,10,,,69,127
16898,note_off,109,0,0,,10,,,69,127
16898,note_off,0,0,0,,0,,,72,127
16899,note_on,1,0,0,,5,,,77,127
16899,note_on,0,0,0,,2,,,62,127
17008,note_off,109,0,0,,2,,,62,127
17008,note_off,0,0,0,,5,,,77,127
17009,note_on,1,0,0,,12,,,71,127
17009,note_on,0,0,0,,4,,,64,127
17118,note_off,109,0,0,,4,,,64,127
17119,note_on,1,0,0,,12,,,59,127
17228,note_off,109,0,0,,12,,,59,127
17229,note_on,1,0,0,,8,,,56,127
17338,note_off,109,0,0,,8,,,56,127
17339,note_on,1,0,0,,4,,,52,127
17444,note_off,105,0,0,,12,,,71,127
17447,note_off,3,0,0,,4,,,52,127
17448,note_on,1,0,0,,4,,,40,127
17777,note_off,329,0,0,,4,,,40,127
18326,note_on,549,0,0,,4,,,76,127
18326,note_on,0,0,0,,1,,,73,127
18435,note_off,109,0,0,,1,,,73,127
18435,note_off,0,0,0,,4,,,76,127
18436,note_on,1,0,0,,10,,,81,127
18436,note_on,0,0,0,,10,,,69,127
18545,note_off,109,0,0,,10,,,69,127
18545,note_off,0,0,0,,10,,,81,127
18546,note_on,1,0,0,,5,,,77,127
18546,note_on,0,0,0,,2,,,74,127
18655,note_off,109,0,0,,2,,,74,127
18655,note_off,0,0,0,,5,,,77,127
18656,note_on,1,0,0,,11,,,82,127
18656,note_on,0,0,0,,7,,,67,127
18765,note_off,109,0,0,,7,,,67,127
18765,note_off,0,0,0,,11,,,82,127
18766,note_on,1,0,0,,4,,,76,127
18766,note_on,0,0,0,,10,,,69,127
18875,note_off,109,0,0,,10,,,69,127
18875,note_off,0,0,0,,4,,,76,127
18876,note_on,1,0,0,,10,,,81,127
18876,note_on,0,0,0,,1,,,73,127
18985,note_off,109,0,0,,1,,,73,127
18985,note_off,0,0,0,,10,,,81,127
18986,note_on,1,0,0,,5,,,77,127
18986,note_on,0,0,0,,2,,,74,127
19095,note_off,109,0,0,,2,,,74,127
19095,note_off,0,0,0,,5,,,77,127
19096,note_on,1,0,0,,11,,,82,127
19096,note_on,0,0,0,,7,,,67,127
19205,note_off,109,0,0,,7,,,67,127
19205,note_off,0,0,0,,11,,,82,127
19206,note_on,1,0,0,,4,,,76,127
19206,note_on,0,0,0,,10,,,69,127
19315,note_off,109,0,0,,10,,,69,127
19315,note_off,0,0,0,,4,,,76,127
19316,note_on,1,0,0,,10,,,81,127
19316,note_on,0,0,0,,1,,,73,127
19425,note_off,109,0,0,,1,,,73,127
19425,note_off,0,0,0,,10,,,81,127
19426,note_on,1,0,0,,5,,,77,127
19426,note_on,0,0,0,,2,,,74,127
19535,note_off,109,0,0,,2,,,74,127
19535,note_off,0,0,0,,5,,,77,127
19536,note_on,1,0,0,,2,,,74,127
19536,note_on,0,0,0,,5,,,65,127
19645,note_off,109,0,0,,5,,,65,127
19645,note_off,0,0,0,,2,,,74,127
19646,note_on,1,0,0,,11,,,70,127
19646,note_on,0,0,0,,7,,,67,127
19755,note_off,109,0,0,,7,,,67,127
19755,note_off,0,0,0,,11,,,70,127
19756,note_on,1,0,0,,7,,,79,127
19756,note_on,0,0,0,,11,,,70,127
19865,note_off,109,0,0,,11,,,70,127
19865,note_off,0,0,0,,7,,,79,127
19866,note_on,1,0,0,,4,,,76,127
19866,note_on,0,0,0,,0,,,72,127
19975,note_off,109,0,0,,0,,,72,127
19975,note_off,0,0,0,,4,,,76,127
19976,note_on,1,0,0,,0,,,72,127
19976,note_on,0,0,0,,4,,,64,127
20085,note_off,109,0,0,,4,,,64,127
20085,note_off,0,0,0,,0,,,72,127
20086,note_on,1,0,0,,10,,,69,127
20086,note_on,0,0,0,,5,,,65,127
20195,note_off,109,0,0,,5,,,65,127
20195,note_off,0,0,0,,10,,,69,127
20196,note_on,1,0,0,,5,,,77,127
20196,note_on,0,0,0,,10,,,69,127
20305,note_off,109,0,0,,10,,,69,127
20305,note_off,0,0,0,,5,,,77,127
20306,note_on,1,0,0,,2,,,74,127
20306,note_on,0,0,0,,11,,,70,127
20415,note_off,109,0,0,,11,,,70,127
20415,note_off,0,0,0,,2,,,74,127
20416,note_on,1,0,0,,11,,,70,127
20416,note_on,0,0,0,,2,,,62,127
20525,note_off,109,0,0,,2,,,62,127
20525,note_off,0,0,0,,11,,,70,127
20526,note_on,1,0,0,,7,,,67,127
20526,note_on,0,0,0,,4,,,64,127
20635,note_off,109,0,0,,4,,,64,127
20635,note_off,0,0,0,,7,,,67,127
20636,note_on,1,0,0,,4,,,76,127
20636,note_on,0,0,0,,7,,,67,127
20745,note_off,109,0,0,,7,,,67,127
20745,note_off,0,0,0,,4,,,76,127
20746,note_on,1,0,0,,1,,,73,127
20746,note_on,0,0,0,,10,,,69,127
20855,note_off,109,0,0,,10,,,69,127
20855,note_off,0,0,0,,1,,,73,127
20856,note_on,1,0,0,,10,,,69,127
20856,note_on,0,0,0,,1,,,61,127
20965,note_off,109,0,0,,1,,,61,127
20965,note_off,0,0,0,,10,,,69,127
20966,note_on,1,0,0,,5,,,65,127
20966,note_on,0,0,0,,2,,,62,127
21075,note_off,109,0,0,,2,,,62,127
21075,note_off,0,0,0,,5,,,65,127
21076,note_on,1,0,0,,2,,,74,127
21076,note_on,0,0,0,,5,,,65,127
21185,note_off,109,0,0,,5,,,65,127
21185,note_off,0,0,0,,2,,,74,127
21186,note_on,1,0,0,,11,,,70,127
21186,note_on,0,0,0,,7,,,67,127
21295,note_off,109,0,0,,7,,,67,127
21295,note_off,0,0,0,,11,,,70,127
21296,note_on,1,0,0,,7,,,67,127
21296,note_on,0,0,0,,11,,,58,127
21405,note_off,109,0,0,,11,,,58,127
21405,note_off,0,0,0,,7,,,67,127
21406,note_on,1,0,0,,4,,,64,127
21406,note_on,0,0,0,,0,,,60,127
21515,note_off,109,0,0,,0,,,60,127
21515,note_off,0,0,0,,4,,,64,127
21516,note_on,1,0,0,,0,,,72,127
21516,note_on,0,0,0,,4,,,64,127
21625,note_off,109,0,0,,4,,,64,127
21625,note_off,0,0,0,,0,,,72,127
21626,note_on,1,0,0,,10,,,69,127
21626,note_on,0,0,0,,5,,,65,127
21735,note_off,109,0,0,,5,,,65,127
21735,note_off,0,0,0,,10,,,69,127
21736,note_on,1,0,0,,5,,,65,127
21736,note_on,0,0,0,,10,,,57,127
21845,note_off,109,0,0,,10,,,57,127
21845,note_off,0,0,0,,5,,,65,127
21846,note_on,1,0,0,,2,,,62,127
21846,note_on,0,0,0,,11,,,58,127
21955,note_off,109,0,0,,11,,,58,127
21955,note_off,0,0,0,,2,,,62,127
21956,note_on,1,0,0,,11,,,70,127
21956,note_on,0,0,0,,2,,,62,127
22065,note_off,109,0,0,,2,,,62,127
22065,note_off,0,0,0,,11,,,70,127
22066,note_on,1,0,0,,7,,,67,127
22066,note_on,0,0,0,,4,,,64,127
22175,note_off,109,0,0,,4,,,64,127
22175,note_off,0,0,0,,7,,,67,127
22176,note_on,1,0,0,,4,,,64,127
22176,note_on,0,0,0,,7,,,55,127
22285,note_off,109,0,0,,7,,,55,127
22285,note_off,0,0,0,,4,,,64,127
22286,note_on,1,0,0,,1,,,61,127
22286,note_on,0,0,0,,10,,,57,127
22395,note_off,109,0,0,,1,,,61,127
22396,note_on,1,0,0,,10,,,69,127
22505,note_off,109,0,0,,10,,,69,127
22505,note_off,0,0,0,,10,,,57,127
22506,note_on,1,0,0,,2,,,62,127
22506,note_on,0,0,0,,5,,,53,127
22615,note_off,109,0,0,,2,,,62,127
22616,note_on,1,0,0,,5,,,65,127
22725,note_off,109,0,0,,5,,,65,127
22725,note_off,0,0,0,,5,,,53,127
22726,note_on,1,0,0,,4,,,64,127
22726,note_on,0,0,0,,1,,,49,127
22835,note_off,109,0,0,,4,,,64,127
22836,note_on,1,0,0,,7,,,67,127
22945,note_off,109,0,0,,7,,,67,127
22945,note_off,0,0,0,,1,,,49,127
22946,note_on,1,0,0,,5,,,65,127
22946,note_on,0,0,0,,2,,,50,127
23055,note_off,109,0,0,,5,,,65,127
23056,note_on,1,0,0,,10,,,69,127
23165,note_off,109,0,0,,10,,,69,127
23165,note_off,0,0,0,,2,,,50,127
23166,note_on,1,0,0,,7,,,67,127
23166,note_on,0,0,0,,11,,,46,127
23275,note_off,109,0,0,,7,,,67,127
23276,note_on,1,0,0,,5,,,65,127
23385,note_off,109,0,0,,5,,,65,127
23386,note_on,1,0,0,,2,,,74,127
23386,note_on,0,0,0,,4,,,64,127
23495,note_off,109,0,0,,4,,,64,127
23496,note_on,1,0,0,,2,,,62,127
23603,note_off,107,0,0,,2,,,74,127
23604,note_off,1,0,0,,2,,,62,127
23604,note_off,0,0,0,,11,,,46,127
23605,note_on,1,0,0,,4,,,64,127
23605,note_on,0,0,0,,1,,,73,127
23605,note_on,0,0,0,,10,,,33,127
23605,note_on,0,0,0,,10,,,45,127
23714,note_off,109,0,0,,4,,,64,127
23715,note_on,1,0,0,,10,,,69,127
23824,note_off,109,0,0,,10,,,69,127
23825,note_on,1,0,0,,11,,,70,127
23934,note_off,109,0,0,,11,,,70,127
23935,note_on,1,0,0,,10,,,69,127
24044,note_off,109,0,0,,10,,,69,127
24045,note_on,1,0,0,,7,,,67,127
24154,note_off,109,0,0,,7,,,67,127
24155,note_on,1,0,0,,5,,,65,127
24264,note_off,109,0,0,,5,,,65,127
24264,note_off,0,0,0,,10,,,45,127
24264,note_off,0,0,0,,10,,,33,127
24264,note_off,0,0,0,,1,,,73,127
24265,note_on,1,0,0,,2,,,74,127
24265,note_on,0,0,0,,4,,,64,127
24265,note_on,0,0,0,,11,,,34,127
24265,note_on,0,0,0,,11,,,46,127
24374,note_off,109,0,0,,4,,,64,127
24375,note_on,1,0,0,,2,,,62,127
24482,note_off,107,0,0,,2,,,74,127
24483,note_off,1,0,0,,2,,,62,127
24483,note_off,0,0,0,,11,,,46,127
24483,note_off,0,0,0,,11,,,34,127
24484,note_on,1,0,0,,1,,,73,127
24484,note_on,0,0,0,,4,,,64,127
24484,note_on,0,0,0,,10,,,33,127
24484,note_on,0,0,0,,10,,,45,127
24593,note_off,109,0,0,,4,,,64,127
24594,note_on,1,0,0,,10,,,69,127
24703,note_off,109,0,0,,10,,,69,127
24704,note_on,1,0,0,,11,,,70,127
24813,note_off,109,0,0,,11,,,70,127
24814,note_on,1,0,0,,10,,,69,127
24923,note_off,109,0,0,,10,,,69,127
24924,note_on,1,0,0,,7,,,67,127
25033,note_off,109,0,0,,7,,,67,127
25034,note_on,1,0,0,,5,,,65,127
25143,note_off,109,0,0,,5,,,65,127
25143,note_off,0,0,0,,10,,,45,127
25143,note_off,0,0,0,,10,,,33,127
25143,note_off,0,0,0,,1,,,73,127
25144,note_on,1,0,0,,4,,,64,127
25144,note_on,0,0,0,,2,,,74,127
25144,note_on,0,0,0,,11,,,34,127
25144,note_on,0,0,0,,11,,,46,127
25253,note_off,109,0,0,,4,,,64,127
25254,note_on,1,0,0,,2,,,62,127
25361,note_off,107,0,0,,2,,,74,127
25362,note_off,1,0,0,,2,,,62,127
25362,note_off,0,0,0,,11,,,46,127
25362,note_off,0,0,0,,11,,,34,127
25363,note_on,1,0,0,,1,,,73,127
25363,note_on,0,0,0,,4,,,64,127
25363,note_on,0,0,0,,10,,,33,127
25363,note_on,0,0,0,,10,,,45,127
25472,note_off,109,0,0,,4,,,64,127
25473,note_on,1,0,0,,10,,,69,127
25582,note_off,109,0,0,,10,,,69,127
25583,note_on,1,0,0,,11,,,70,127
25692,note_off,109,0,0,,11,,,70,127
25693,note_on,1,0,0,,10,,,69,127
25802,note_off,109,0,0,,10,,,69,127
25803,note_on,1,0,0,,7,,,67,127
25912,note_off,109,0,0,,7,,,67,127
25913,note_on,1,0,0,,5,,,65,127
26022,note_off,109,0,0,,5,,,65,127
26022,note_off,0,0,0,,10,,,45,127
26022,note_off,0,0,0,,10,,,33,127
26022,note_off,0,0,0,,1,,,73,127
26023,note_on,1,0,0,,2,,,74,127
26023,note_on,0,0,0,,4,,,64,127
26023,note_on,0,0,0,,11,,,34,127
26023,note_on,0,0,0,,11,,,46,127
26132,note_off,109,0,0,,4,,,64,127
26133,note_on,1,0,0,,2,,,62,127
26240,note_off,107,0,0,,2,,,74,127
26241,note_off,1,0,0,,2,,,62,127
26241,note_off,0,0,0,,11,,,46,127
26241,note_off,0,0,0,,11,,,34,127
26242,note_on,1,0,0,,4,,,76,127
26242,note_on,0,0,0,,10,,,33,127
26242,note_on,0,0,0,,10,,,45,127
26351,note_off,109,0,0,,4,,,76,127
26352,note_on,1,0,0,,1,,,73,127
26461,note_off,109,0,0,,1,,,73,127
26462,note_on,1,0,0,,10,,,69,127
26571,note_off,109,0,0,,10,,,69,127
26572,note_on,1,0,0,,4,,,64,127
26681,note_off,109,0,0,,4,,,64,127
26682,note_on,1,0,0,,1,,,61,127
26791,note_off,109,0,0,,1,,,61,127
26792,note_on,1,0,0,,10,,,57,127
26901,note_off,109,0,0,,10,,,57,127
26902,note_on,1,0,0,,4,,,52,127
27011,note_off,109,0,0,,4,,,52,127
27012,note_on,1,0,0,,1,,,49,127
27121,note_off,109,0,0,,1,,,49,127
27121,note_off,0,0,0,,10,,,45,127
27121,note_off,0,0,0,,10,,,33,127
27122,note_on,1,0,0,,10,,,45,127
27122,note_on,0,0,0,,10,,,33,127
27779,note_off,657,0,0,,10,,,45,127
27998,note_off,219,0,0,,10,,,33,127
28219,note_on,221,0,0,,2,,,38,127
28219,note_on,0,0,0,,10,,,81,127
28328,note_off,109,0,0,,2,,,38,127
28329,note_on,1,0,0,,5,,,41,127
28438,note_off,109,0,0,,5,,,41,127
28439,note_on,1,0,0,,10,,,45,127
28548,note_off,109,0,0,,10,,,45,127
28549,note_on,1,0,0,,2,,,50,127
28658,note_off,109,0,0,,2,,,50,127
28659,note_on,1,0,0,,5,,,53,127
28768,note_off,109,0,0,,5,,,53,127
28769,note_on,1,0,0,,10,,,57,127
28878,note_off,109,0,0,,10,,,57,127
28879,note_on,1,0,0,,11,,,58,127
28988,note_off,109,0,0,,11,,,58,127
28989,note_on,1,0,0,,7,,,55,127
29098,note_off,109,0,0,,7,,,55,127
29099,note_on,1,0,0,,10,,,33,127
29317,note_off,218,0,0,,10,,,81,127
29318,note_on,1,0,0,,7,,,79,127
29427,note_off,109,0,0,,7,,,79,127
29428,note_on,1,0,0,,5,,,77,127
29537,note_off,109,0,0,,5,,,77,127
29538,note_on,1,0,0,,4,,,76,127
29647,note_off,109,0,0,,4,,,76,127
29648,note_on,1,0,0,,2,,,74,127
29757,note_off,109,0,0,,2,,,74,127
29758,note_on,1,0,0,,1,,,73,127
29865,note_off,107,0,0,,10,,,33,127
29866,note_off,1,0,0,,1,,,73,127
29867,note_on,1,0,0,,4,,,76,127
29976,note_off,109,0,0,,4,,,76,127
29977,note_on,1,0,0,,2,,,38,127
29977,note_on,0,0,0,,2,,,74,127
30086,note_off,109,0,0,,2,,,38,127
30087,note_on,1,0,0,,5,,,41,127
30196,note_off,109,0,0,,5,,,41,127
30197,note_on,1,0,0,,10,,,45,127
30306,note_off,109,0,0,,10,,,45,127
30307,note_on,1,0,0,,2,,,50,127
30416,note_off,109,0,0,,2,,,50,127
30417,note_on,1,0,0,,5,,,53,127
30526,note_off,109,0,0,,5,,,53,127
30527,note_on,1,0,0,,10,,,57,127
30636,note_off,109,0,0,,10,,,57,127
30637,note_on,1,0,0,,10,,,69,127
30746,note_off,109,0,0,,10,,,69,127
30747,note_on,1,0,0,,5,,,65,127
30856,note_off,109,0,0,,5,,,65,127
30857,note_on,1,0,0,,10,,,57,127
30857,note_on,0,0,0,,4,,,64,127
31075,note_off,218,0,0,,2,,,74,127
31076,note_on,1,0,0,,1,,,73,127
31185,note_off,109,0,0,,1,,,73,127
31186,note_on,1,0,0,,2,,,74,127
31295,note_off,109,0,0,,2,,,74,127
31296,note_on,1,0,0,,4,,,76,127
31405,note_off,109,0,0,,4,,,76,127
31406,note_on,1,0,0,,5,,,77,127
31515,note_off,109,0,0,,5,,,77,127
31516,note_on,1,0,0,,7,,,79,127
31625,note_off,109,0,0,,7,,,79,127
31626,note_on,1,0,0,,4,,,76,127
31692,note_off,66,0,0,,4,,,64,127
31692,note_off,0,0,0,,10,,,57,127
31734,note_off,42,0,0,,4,,,76,127
31735,note_on,1,0,0,,2,,,38,127
31735,note_on,0,0,0,,10,,,81,127
31844,note_off,109,0,0,,2,,,38,127
31845,note_on,1,0,0,,5,,,41,127
31954,note_off,109,0,0,,5,,,41,127
31955,note_on,1,0,0,,10,,,45,127
32064,note_off,109,0,0,,10,,,45,127
32065,note_on,1,0,0,,2,,,50,127
32174,note_off,109,0,0,,2,,,50,127
32175,note_on,1,0,0,,5,,,53,127
32284,note_off,109,0,0,,5,,,53,127
32285,note_on,1,0,0,,10,,,57,127
32394,note_off,109,0,0,,10,,,57,127
32395,note_on,1,0,0,,11,,,58,127
32504,note_off,109,0,0,,11,,,58,127
32505,note_on,1,0,0,,7,,,55,127
32614,note_off,109,0,0,,7,,,55,127
32615,note_on,1,0,0,,10,,,33,127
32833,note_off,218,0,0,,10,,,81,127
32834,note_on,1,0,0,,7,,,79,127
32943,note_off,109,0,0,,7,,,79,127
32944,note_on,1,0,0,,5,,,77,127
33053,note_off,109,0,0,,5,,,77,127
33054,note_on,1,0,0,,4,,,76,127
33163,note_off,109,0,0,,4,,,76,127
33164,note_on,1,0,0,,2,,,74,127
33273,note_off,109,0,0,,2,,,74,127
33274,note_on,1,0,0,,1,,,73,127
33381,note_off,107,0,0,,10,,,33,127
33382,note_off,1,0,0,,1,,,73,127
33383,note_on,1,0,0,,4,,,76,127
33492,note_off,109,0,0,,4,,,76,127
33493,note_on,1,0,0,,2,,,38,127
33493,note_on,0,0,0,,2,,,74,127
33602,note_off,109,0,0,,2,,,38,127
33603,note_on,1,0,0,,5,,,41,127
33712,note_off,109,0,0,,5,,,41,127
33713,note_on,1,0,0,,10,,,45,127
33822,note_off,109,0,0,,10,,,45,127
33823,note_on,1,0,0,,2,,,50,127
33932,note_off,109,0,0,,2,,,50,127
33933,note_on,1,0,0,,5,,,53,127
34042,note_off,109,0,0,,5,,,53,127
34043,note_on,1,0,0,,10,,,57,127
34152,note_off,109,0,0,,10,,,57,127
34153,note_on,1,0,0,,5,,,65,127
34262,note_off,109,0,0,,5,,,65,127
34263,note_on,1,0,0,,2,,,62,127
34372,note_off,109,0,0,,2,,,62,127
34373,note_on,1,0,0,,10,,,57,127
34373,note_on,0,0,0,,4,,,64,127
34591,note_off,218,0,0,,2,,,74,127
34592,note_on,1,0,0,,1,,,73,127
34701,note_off,109,0,0,,1,,,73,127
34702,note_on,1,0,0,,2,,,74,127
34811,note_off,109,0,0,,2,,,74,127
34812,note_on,1,0,0,,4,,,76,127
34921,note_off,109,0,0,,4,,,76,127
34922,note_on,1,0,0,,6,,,78,127
35031,note_off,109,0,0,,6,,,78,127
35032,note_on,1,0,0,,7,,,79,127
35141,note_off,109,0,0,,7,,,79,127
35142,note_on,1,0,0,,4,,,76,127
35251,note_off,109,0,0,,4,,,76,127
35251,note_off,0,0,0,,4,,,64,127
35251,note_off,0,0,0,,10,,,57,127
35252,note_on,1,0,0,,2,,,86,127
35362,note_on,110,0,0,,6,,,42,127
35471,note_off,109,0,0,,6,,,42,127
35472,note_on,1,0,0,,10,,,45,127
35581,note_off,109,0,0,,10,,,45,127
35582,note_on,1,0,0,,2,,,50,127
35691,note_off,109,0,0,,2,,,50,127
35692,note_on,1,0,0,,6,,,54,127
35801,note_off,109,0,0,,6,,,54,127
35802,note_on,1,0,0,,10,,,57,127
35911,note_off,109,0,0,,10,,,57,127
35912,note_on,1,0,0,,2,,,62,127
36021,note_off,109,0,0,,2,,,62,127
36022,note_on,1,0,0,,6,,,66,127
36131,note_off,109,0,0,,6,,,66,127
36132,note_on,1,0,0,,7,,,43,127
36241,note_off,109,0,0,,2,,,86,127
36242,note_on,1,0,0,,12,,,83,127
36351,note_off,109,0,0,,12,,,83,127
36352,note_on,1,0,0,,7,,,79,127
36461,note_off,109,0,0,,7,,,79,127
36462,note_on,1,0,0,,4,,,76,127
36571,note_off,109,0,0,,4,,,76,127
36572,note_on,1,0,0,,1,,,73,127
36681,note_off,109,0,0,,1,,,73,127
36682,note_on,1,0,0,,7,,,67,127
36791,note_off,109,0,0,,7,,,67,127
36792,note_on,1,0,0,,4,,,64,127
36899,note_off,107,0,0,,7,,,43,127
36900,note_off,1,0,0,,4,,,64,127
36901,note_on,1,0,0,,1,,,61,127
37010,note_off,109,0,0,,1,,,61,127
37011,note_on,1,0,0,,2,,,86,127
37121,note_on,110,0,0,,6,,,42,127
37230,note_off,109,0,0,,6,,,42,127
37231,note_on,1,0,0,,10,,,45,127
37340,note_off,109,0,0,,10,,,45,127
37341,note_on,1,0,0,,2,,,50,127
37450,note_off,109,0,0,,2,,,50,127
37451,note_on,1,0,0,,6,,,54,127
37560,note_off,109,0,0,,6,,,54,127
37561,note_on,1,0,0,,10,,,57,127
37670,note_off,109,0,0,,10,,,57,127
37671,note_on,1,0,0,,2,,,62,127
37780,note_off,109,0,0,,2,,,62,127
37781,note_on,1,0,0,,6,,,66,127
37890,note_off,109,0,0,,6,,,66,127
37891,note_on,1,0,0,,7,,,43,127
38000,note_off,109,0,0,,2,,,86,127
38001,note_on,1,0,0,,12,,,83,127
38110,note_off,109,0,0,,12,,,83,127
38111,note_on,1,0,0,,7,,,79,127
38220,note_off,109,0,0,,7,,,79,127
38221,note_on,1,0,0,,4,,,76,127
38330,note_off,109,0,0,,4,,,76,127
38330,note_off,0,0,0,,7,,,43,127
38331,note_on,1,0,0,,7,,,55,127
38331,note_on,0,0,0,,1,,,73,127
38440,note_off,109,0,0,,1,,,73,127
38441,note_on,1,0,0,,12,,,83,127
38550,note_off,109,0,0,,12,,,83,127
38551,note_on,1,0,0,,7,,,79,127
38660,note_off,109,0,0,,7,,,79,127
38661,note_on,1,0,0,,4,,,76,127
38770,note_off,109,0,0,,4,,,76,127
38770,note_off,0,0,0,,7,,,55,127
38771,note_on,1,0,0,,10,,,57,127
38771,note_on,0,0,0,,6,,,78,127
38880,note_off,109,0,0,,6,,,78,127
38881,note_on,1,0,0,,7,,,79,127
38990,note_off,109,0,0,,7,,,79,127
38991,note_on,1,0,0,,10,,,81,127
39100,note_off,109,0,0,,10,,,81,127
39101,note_on,1,0,0,,7,,,79,127
39210,note_off,109,0,0,,7,,,79,127
39210,note_off,0,0,0,,10,,,57,127
39211,note_on,1,0,0,,10,,,45,127
39211,note_on,0,0,0,,6,,,78,127
39320,note_off,109,0,0,,6,,,78,127
39321,note_on,1,0,0,,4,,,76,127
39430,note_off,109,0,0,,4,,,76,127
39431,note_on,1,0,0,,2,,,74,127
39540,note_off,109,0,0,,2,,,74,127
39541,note_on,1,0,0,,1,,,73,127
39650,note_off,109,0,0,,1,,,73,127
39650,note_off,0,0,0,,10,,,45,127
39651,note_on,1,0,0,,2,,,38,127
39651,note_on,0,0,0,,2,,,50,127
39651,note_on,0,0,0,,2,,,74,127
39651,note_on,0,0,0,,2,,,86,127
39869,note_off,218,0,0,,2,,,86,127
39870,note_on,1,0,0,,10,,,81,127
39979,note_off,109,0,0,,10,,,81,127
39980,note_on,1,0,0,,11,,,82,127
40085,note_off,105,0,0,,2,,,74,127
40088,note_off,3,0,0,,11,,,82,127
40088,note_off,0,0,0,,2,,,50,127
40088,note_off,0,0,0,,2,,,38,127
40089,note_on,1,0,0,,7,,,43,127
40089,note_on,0,0,0,,7,,,55,127
40089,note_on,0,0,0,,12,,,83,127
40307,note_off,218,0,0,,12,,,83,127
40308,note_on,1,0,0,,7,,,79,127
40417,note_off,109,0,0,,7,,,79,127
40418,note_on,1,0,0,,8,,,80,127
40527,note_off,109,0,0,,8,,,80,127
40527,note_off,0,0,0,,7,,,55,127
40527,note_off,0,0,0,,7,,,43,127
40528,note_on,1,0,0,,10,,,57,127
40528,note_on,0,0,0,,10,,,81,127
40746,note_off,218,0,0,,10,,,81,127
40747,note_on,1,0,0,,7,,,79,127
40856,note_off,109,0,0,,7,,,79,127
40857,note_on,1,0,0,,6,,,78,127
40966,note_off,109,0,0,,6,,,78,127
40966,note_off,0,0,0,,10,,,57,127
40967,note_on,1,0,0,,10,,,45,127
40967,note_on,0,0,0,,4,,,76,127
41076,note_off,109,0,0,,4,,,76,127
41077,note_on,1,0,0,,2,,,74,127
41186,note_off,109,0,0,,2,,,74,127
41187,note_on,1,0,0,,1,,,73,127
41296,note_off,109,0,0,,1,,,73,127
41297,note_on,1,0,0,,4,,,76,127
41406,note_off,109,0,0,,4,,,76,127
41406,note_off,0,0,0,,10,,,45,127
41407,note_on,1,0,0,,2,,,38,127
41407,note_on,0,0,0,,2,,,50,127
41407,note_on,0,0,0,,2,,,74,127
41625,note_off,218,0,0,,2,,,74,127
41626,note_on,1,0,0,,10,,,69,127
41735,note_off,109,0,0,,10,,,69,127
41736,note_on,1,0,0,,11,,,70,127
41845,note_off,109,0,0,,11,,,70,127
41845,note_off,0,0,0,,2,,,50,127
41845,note_off,0,0,0,,2,,,38,127
41846,note_on,1,0,0,,7,,,55,127
41846,note_on,0,0,0,,7,,,43,127
41846,note_on,0,0,0,,12,,,71,127
42064,note_off,218,0,0,,12,,,71,127
42065,note_on,1,0,0,,7,,,67,127
42174,note_off,109,0,0,,7,,,67,127
42175,note_on,1,0,0,,8,,,68,127
42284,note_off,109,0,0,,8,,,68,127
42284,note_off,0,0,0,,7,,,43,127
42284,note_off,0,0,0,,7,,,55,127
42285,note_on,1,0,0,,10,,,57,127
42285,note_on,0,0,0,,10,,,69,127
42503,note_off,218,0,0,,10,,,69,127
42504,note_on,1,0,0,,7,,,67,127
42613,note_off,109,0,0,,7,,,67,127
42614,note_on,1,0,0,,6,,,66,127
42723,note_off,109,0,0,,6,,,66,127
42723,note_off,0,0,0,,10,,,57,127
42724,note_on,1,0,0,,10,,,45,127
42724,note_on,0,0,0,,4,,,64,127
42833,note_off,109,0,0,,4,,,64,127
42834,note_on,1,0,0,,2,,,62,127
42943,note_off,109,0,0,,2,,,62,127
42944,note_on,1,0,0,,1,,,61,127
43053,note_off,109,0,0,,1,,,61,127
43054,note_on,1,0,0,,4,,,64,127
43159,note_off,105,0,0,,10,,,45,127
43162,note_off,3,0,0,,4,,,64,127
43163,note_on,1,0,0,,2,,,62,127
43272,note_off,109,0,0,,2,,,62,127
43273,note_on,1,0,0,,6,,,66,127
43382,note_off,109,0,0,,6,,,66,127
43383,note_on,1,0,0,,2,,,50,127
43383,note_on,0,0,0,,10,,,69,127
43492,note_off,109,0,0,,10,,,69,127
43493,note_on,1,0,0,,2,,,74,127
43602,note_off,109,0,0,,2,,,74,127
43603,note_on,1,0,0,,4,,,64,127
43713,note_off,110,0,0,,4,,,64,127
43713,note_on,0,0,0,,7,,,67,127
43822,note_off,109,0,0,,7,,,67,127
43822,note_off,0,0,0,,2,,,50,127
43823,note_on,1,0,0,,4,,,52,127
43823,note_on,0,0,0,,1,,,73,127
43932,note_off,109,0,0,,1,,,73,127
43933,note_on,1,0,0,,4,,,76,127
44042,note_off,109,0,0,,4,,,76,127
44043,note_on,1,0,0,,6,,,66,127
44152,note_off,109,0,0,,6,,,66,127
44153,note_on,1,0,0,,10,,,69,127
44262,note_off,109,0,0,,10,,,69,127
44262,note_off,0,0,0,,4,,,52,127
44263,note_on,1,0,0,,6,,,54,127
44263,note_on,0,0,0,,2,,,74,127
44372,note_off,109,0,0,,2,,,74,127
44373,note_on,1,0,0,,6,,,78,127
44482,note_off,109,0,0,,6,,,78,127
44483,note_on,1,0,0,,12,,,71,127
44592,note_off,109,0,0,,12,,,71,127
44593,note_on,1,0,0,,2,,,74,127
44702,note_off,109,0,0,,2,,,74,127
44702,note_off,0,0,0,,6,,,54,127
44703,note_on,1,0,0,,7,,,55,127
44703,note_on,0,0,0,,7,,,79,127
44812,note_off,109,0,0,,7,,,79,127
44813,note_on,1,0,0,,12,,,83,127
44922,note_off,109,0,0,,12,,,83,127
44922,note_off,0,0,0,,7,,,55,127
44923,note_on,1,0,0,,6,,,54,127
44923,note_on,0,0,0,,10,,,81,127
45032,note_off,109,0,0,,10,,,81,127
45033,note_on,1,0,0,,2,,,74,127
45142,note_off,109,0,0,,2,,,74,127
45142,note_off,0,0,0,,6,,,54,127
45143,note_on,1,0,0,,7,,,55,127
45143,note_on,0,0,0,,7,,,79,127
45252,note_off,109,0,0,,7,,,79,127
45253,note_on,1,0,0,,4,,,76,127
45362,note_off,109,0,0,,4,,,76,127
45362,note_off,0,0,0,,7,,,55,127
45363,note_on,1,0,0,,10,,,57,127
45363,note_on,0,0,0,,6,,,78,127
45472,note_off,109,0,0,,6,,,78,127
45473,note_on,1,0,0,,2,,,74,127
45582,note_off,109,0,0,,2,,,74,127
45583,note_on,1,0,0,,10,,,45,127
45583,note_on,0,0,0,,10,,,69,127
45692,note_off,109,0,0,,10,,,69,127
45693,note_on,1,0,0,,1,,,73,127
45798,note_off,105,0,0,,10,,,57,127
45800,note_off,2,0,0,,10,,,45,127
45801,note_off,1,0,0,,1,,,73,127
45802,note_on,1,0,0,,2,,,62,127
45911,note_off,109,0,0,,2,,,62,127
45912,note_on,1,0,0,,6,,,66,127
46021,note_off,109,0,0,,6,,,66,127
46022,note_on,1,0,0,,2,,,38,127
46022,note_on,0,0,0,,2,,,50,127
46022,note_on,0,0,0,,10,,,69,127
46131,note_off,109,0,0,,10,,,69,127
46132,note_on,1,0,0,,2,,,74,127
46241,note_off,109,0,0,,2,,,74,127
46242,note_on,1,0,0,,4,,,64,127
46351,note_off,109,0,0,,4,,,64,127
46352,note_on,1,0,0,,7,,,67,127
46461,note_off,109,0,0,,7,,,67,127
46461,note_off,0,0,0,,2,,,50,127
46461,note_off,0,0,0,,2,,,38,127
46462,note_on,1,0,0,,4,,,40,127
46462,note_on,0,0,0,,4,,,52,127
46462,note_on,0,0,0,,1,,,73,127
46571,note_off,109,0,0,,1,,,73,127
46572,note_on,1,0,0,,4,,,76,127
46681,note_off,109,0,0,,4,,,76,127
46682,note_on,1,0,0,,6,,,66,127
46791,note_off,109,0,0,,6,,,66,127
46792,note_on,1,0,0,,10,,,69,127
46901,note_off,109,0,0,,10,,,69,127
46901,note_off,0,0,0,,4,,,52,127
46901,note_off,0,0,0,,4,,,40,127
46902,note_on,1,0,0,,6,,,42,127
46902,note_on,0,0,0,,6,,,54,127
46902,note_on,0,0,0,,2,,,74,127
47011,note_off,109,0,0,,2,,,74,127
47012,note_on,1,0,0,,6,,,78,127
47121,note_off,109,0,0,,6,,,78,127
47122,note_on,1,0,0,,12,,,71,127
47231,note_off,109,0,0,,12,,,71,127
47232,note_on,1,0,0,,2,,,74,127
47341,note_off,109,0,0,,2,,,74,127
47341,note_off,0,0,0,,6,,,54,127
47341,note_off,0,0,0,,6,,,42,127
47342,note_on,1,0,0,,7,,,43,127
47342,note_on,0,0,0,,7,,,55,127
47342,note_on,0,0,0,,7,,,79,127
47451,note_off,109,0,0,,7,,,79,127
47452,note_on,1,0,0,,12,,,83,127
47561,note_off,109,0,0,,12,,,83,127
47561,note_off,0,0,0,,7,,,55,127
47561,note_off,0,0,0,,7,,,43,127
47562,note_on,1,0,0,,6,,,54,127
47562,note_on,0,0,0,,6,,,42,127
47562,note_on,0,0,0,,10,,,81,127
47671,note_off,109,0,0,,10,,,81,127
47672,note_on,1,0,0,,2,,,74,127
47781,note_off,109,0,0,,2,,,74,127
47781,note_off,0,0,0,,6,,,42,127
47781,note_off,0,0,0,,6,,,54,127
47782,note_on,1,0,0,,7,,,43,127
47782,note_on,0,0,0,,7,,,55,127
47782,note_on,0,0,0,,7,,,79,127
47891,note_off,109,0,0,,7,,,79,127
47892,note_on,1,0,0,,4,,,76,127
48001,note_off,109,0,0,,4,,,76,127
48001,note_off,0,0,0,,7,,,55,127
48001,note_off,0,0,0,,7,,,43,127
48002,note_on,1,0,0,,10,,,57,127
48002,note_on,0,0,0,,6,,,78,127
48111,note_off,109,0,0,,6,,,78,127
48112,note_on,1,0,0,,2,,,74,127
48221,note_off,109,0,0,,2,,,74,127
48221,note_off,0,0,0,,10,,,57,127
48222,note_on,1,0,0,,10,,,45,127
48222,note_on,0,0,0,,10,,,69,127
48331,note_off,109,0,0,,10,,,69,127
48332,note_on,1,0,0,,1,,,73,127
48441,note_off,109,0,0,,1,,,73,127
48441,note_off,0,0,0,,10,,,45,127
48442,note_on,1,0,0,,2,,,38,127
48442,note_on,0,0,0,,2,,,74,127
48551,note_off,109,0,0,,2,,,74,127
48552,note_on,1,0,0,,10,,,69,127
48661,note_off,109,0,0,,10,,,69,127
48662,note_on,1,0,0,,6,,,66,127
48771,note_off,109,0,0,,6,,,66,127
48772,note_on,1,0,0,,2,,,62,127
48881,note_off,109,0,0,,2,,,62,127
48882,note_on,1,0,0,,10,,,57,127
48991,note_off,109,0,0,,10,,,57,127
48992,note_on,1,0,0,,6,,,54,127
49101,note_off,109,0,0,,6,,,54,127
49101,note_off,0,0,0,,2,,,38,127
49102,note_on,1,0,0,,2,,,50,127
49211,note_off,109,0,0,,2,,,50,127
49212,note_on,1,0,0,,10,,,45,127
49321,note_off,109,0,0,,10,,,45,127
49322,note_on,1,0,0,,2,,,38,127
50199,note_off,877,0,0,,2,,,38,127
50200,note_on,1,0,0,,2,,,74,127
50418,note_off,218,0,0,,2,,,74,127
50419,note_on,1,0,0,,10,,,69,127
50528,note_off,109,0,0,,10,,,69,127
50529,note_on,1,0,0,,11,,,70,127
50638,note_off,109,0,0,,11,,,70,127
50639,note_on,1,0,0,,12,,,71,127
50857,note_off,218,0,0,,12,,,71,127
50858,note_on,1,0,0,,7,,,67,127
50967,note_off,109,0,0,,7,,,67,127
50968,note_on,1,0,0,,8,,,68,127
51077,note_off,109,0,0,,8,,,68,127
51078,note_on,1,0,0,,10,,,69,127
51078,note_on,0,0,0,,10,,,81,127
51296,note_off,218,0,0,,10,,,81,127
51297,note_on,1,0,0,,7,,,79,127
51406,note_off,109,0,0,,7,,,79,127
51407,note_on,1,0,0,,6,,,78,127
51516,note_off,109,0,0,,6,,,78,127
51517,note_on,1,0,0,,4,,,76,127
51626,note_off,109,0,0,,4,,,76,127
51627,note_on,1,0,0,,2,,,74,127
51736,note_off,109,0,0,,2,,,74,127
51737,note_on,1,0,0,,1,,,73,127
51846,note_off,109,0,0,,1,,,73,127
51847,note_on,1,0,0,,4,,,76,127
51956,note_off,109,0,0,,4,,,76,127
51956,note_off,0,0,0,,10,,,69,127
51957,note_on,1,0,0,,2,,,62,127
51957,note_on,0,0,0,,2,,,74,127
52175,note_off,218,0,0,,2,,,62,127
52176,note_on,1,0,0,,10,,,57,127
52285,note_off,109,0,0,,10,,,57,127
52286,note_on,1,0,0,,11,,,58,127
52391,note_off,105,0,0,,2,,,74,127
52394,note_off,3,0,0,,11,,,58,127
52395,note_on,1,0,0,,12,,,59,127
52613,note_off,218,0,0,,12,,,59,127
52614,note_on,1,0,0,,7,,,55,127
52723,note_off,109,0,0,,7,,,55,127
52724,note_on,1,0,0,,8,,,56,127
52833,note_off,109,0,0,,8,,,56,127
52834,note_on,1,0,0,,10,,,57,127
52834,note_on,0,0,0,,1,,,73,127
52834,note_on,0,0,0,,4,,,76,127
53052,note_off,218,0,0,,4,,,76,127
53052,note_off,0,0,0,,1,,,73,127
53052,note_off,0,0,0,,10,,,57,127
53053,note_on,1,0,0,,7,,,55,127
53053,note_on,0,0,0,,6,,,78,127
53053,note_on,0,0,0,,2,,,74,127
53162,note_off,109,0,0,,7,,,55,127
53163,note_on,1,0,0,,6,,,54,127
53272,note_off,109,0,0,,6,,,54,127
53272,note_off,0,0,0,,2,,,74,127
53272,note_off,0,0,0,,6,,,78,127
53273,note_on,1,0,0,,4,,,52,127
53273,note_on,0,0,0,,7,,,79,127
53273,note_on,0,0,0,,4,,,76,127
53382,note_off,109,0,0,,4,,,52,127
53383,note_on,1,0,0,,2,,,50,127
53492,note_off,109,0,0,,2,,,50,127
53493,note_on,1,0,0,,1,,,49,127
53602,note_off,109,0,0,,1,,,49,127
53603,note_on,1,0,0,,4,,,52,127
53712,note_off,109,0,0,,4,,,52,127
53712,note_off,0,0,0,,4,,,76,127
53712,note_off,0,0,0,,7,,,79,127
53713,note_on,1,0,0,,2,,,50,127
53713,note_on,0,0,0,,6,,,78,127
53822,note_off,109,0,0,,6,,,78,127
53823,note_on,1,0,0,,4,,,76,127
53932,note_off,109,0,0,,4,,,76,127
53932,note_off,0,0,0,,2,,,50,127
53933,note_on,1,0,0,,6,,,54,127
53933,note_on,0,0,0,,2,,,74,127
54042,note_off,109,0,0,,2,,,74,127
54043,note_on,1,0,0,,1,,,73,127
54152,note_off,109,0,0,,1,,,73,127
54152,note_off,0,0,0,,6,,,54,127
54153,note_on,1,0,0,,7,,,55,127
54153,note_on,0,0,0,,12,,,71,127
54262,note_off,109,0,0,,12,,,71,127
54263,note_on,1,0,0,,10,,,69,127
54372,note_off,109,0,0,,10,,,69,127
54372,note_off,0,0,0,,7,,,55,127
54373,note_on,1,0,0,,7,,,43,127
54373,note_on,0,0,0,,7,,,67,127
54482,note_off,109,0,0,,7,,,67,127
54483,note_on,1,0,0,,6,,,66,127
54592,note_off,109,0,0,,6,,,66,127
54592,note_off,0,0,0,,7,,,43,127
54593,note_on,1,0,0,,10,,,45,127
54593,note_on,0,0,0,,4,,,64,127
54702,note_off,109,0,0,,4,,,64,127
54703,note_on,1,0,0,,2,,,62,127
54812,note_off,109,0,0,,2,,,62,127
54813,note_on,1,0,0,,1,,,61,127
54922,note_off,109,0,0,,1,,,61,127
54923,note_on,1,0,0,,12,,,59,127
55028,note_off,105,0,0,,10,,,45,127
55031,note_off,3,0,0,,12,,,59,127
55032,note_on,1,0,0,,10,,,57,127
55142,note_on,110,0,0,,7,,,55,127
55251,note_off,109,0,0,,7,,,55,127
55251,note_off,0,0,0,,10,,,57,127
55252,note_on,1,0,0,,6,,,54,127
55252,note_on,0,0,0,,1,,,61,127
55361,note_off,109,0,0,,6,,,54,127
55362,note_on,1,0,0,,4,,,52,127
55471,note_off,109,0,0,,4,,,52,127
55471,note_off,0,0,0,,1,,,61,127
55472,note_on,1,0,0,,2,,,50,127
55472,note_on,0,0,0,,2,,,62,127
55581,note_off,109,0,0,,2,,,62,127
55582,note_on,1,0,0,,4,,,64,127
55691,note_off,109,0,0,,4,,,64,127
55691,note_off,0,0,0,,2,,,50,127
55692,note_on,1,0,0,,7,,,43,127
55692,note_on,0,0,0,,6,,,66,127
55801,note_off,109,0,0,,6,,,66,127
55802,note_on,1,0,0,,7,,,67,127
55911,note_off,109,0,0,,7,,,67,127
55911,note_off,0,0,0,,7,,,43,127
55912,note_on,1,0,0,,10,,,45,127
55912,note_on,0,0,0,,6,,,66,127
56021,note_off,109,0,0,,6,,,66,127
56022,note_on,1,0,0,,4,,,64,127
56131,note_off,109,0,0,,4,,,64,127
56131,note_off,0,0,0,,10,,,45,127
56132,note_on,1,0,0,,10,,,33,127
56132,note_on,0,0,0,,2,,,62,127
56241,note_off,109,0,0,,2,,,62,127
56242,note_on,1,0,0,,1,,,61,127
56351,note_off,109,0,0,,1,,,61,127
56351,note_off,0,0,0,,10,,,33,127
56352,note_on,1,0,0,,2,,,38,127
56352,note_on,0,0,0,,2,,,62,127
57009,note_off,657,0,0,,2,,,62,127
57228,note_off,219,0,0,,2,,,38,127
57668,note_on,440,0,0,,5,,,53,127
57668,note_on,0,0,0,,5,,,77,127
57886,note_off,218,0,0,,5,,,77,127
57887,note_on,1,0,0,,5,,,65,127
57996,note_off,109,0,0,,5,,,65,127
57997,note_on,1,0,0,,4,,,76,127
58106,note_off,109,0,0,,4,,,76,127
58107,note_on,1,0,0,,5,,,77,127
58325,note_off,218,0,0,,5,,,77,127
58326,note_on,1,0,0,,5,,,65,127
58544,note_off,218,0,0,,5,,,65,127
58544,note_off,0,0,0,,5,,,53,127
58545,note_on,1,0,0,,3,,,51,127
58545,note_on,0,0,0,,5,,,77,127
58763,note_off,218,0,0,,5,,,77,127
58764,note_on,1,0,0,,5,,,65,127
58873,note_off,109,0,0,,5,,,65,127
58874,note_on,1,0,0,,10,,,69,127
58984,note_on,110,0,0,,5,,,77,127
59202,note_off,218,0,0,,5,,,77,127
59203,note_on,1,0,0,,5,,,65,127
59421,note_off,218,0,0,,5,,,65,127
59421,note_off,0,0,0,,3,,,51,127
59422,note_on,1,0,0,,1,,,49,127
59422,note_on,0,0,0,,5,,,77,127
59640,note_off,218,0,0,,5,,,77,127
59641,note_on,1,0,0,,5,,,65,127
59750,note_off,109,0,0,,5,,,65,127
59750,note_off,0,0,0,,10,,,69,127
59751,note_on,1,0,0,,11,,,70,127
59861,note_on,110,0,0,,5,,,77,127
60079,note_off,218,0,0,,5,,,77,127
60080,note_on,1,0,0,,5,,,65,127
60298,note_off,218,0,0,,5,,,65,127
60298,note_off,0,0,0,,1,,,49,127
60299,note_on,1,0,0,,0,,,48,127
60299,note_on,0,0,0,,5,,,77,127
60517,note_off,218,0,0,,5,,,77,127
60518,note_on,1,0,0,,5,,,65,127
60627,note_off,109,0,0,,5,,,65,127
60627,note_off,0,0,0,,11,,,70,127
60628,note_on,1,0,0,,0,,,72,127
60738,note_on,110,0,0,,5,,,77,127
60956,note_off,218,0,0,,5,,,77,127
60957,note_on,1,0,0,,5,,,65,127
61175,note_off,218,0,0,,5,,,65,127
61175,note_off,0,0,0,,0,,,48,127
61176,note_on,1,0,0,,11,,,46,127
61176,note_on,0,0,0,,5,,,77,127
61394,note_off,218,0,0,,5,,,77,127
61395,note_on,1,0,0,,5,,,65,127
61504,note_off,109,0,0,,5,,,65,127
61504,note_off,0,0,0,,0,,,72,127
61505,note_on,1,0,0,,1,,,73,127
61615,note_on,110,0,0,,5,,,77,127
61833,note_off,218,0,0,,5,,,77,127
61834,note_on,1,0,0,,5,,,65,127
62052,note_off,218,0,0,,5,,,65,127
62052,note_off,0,0,0,,11,,,46,127
62053,note_on,1,0,0,,8,,,44,127
62053,note_on,0,0,0,,5,,,77,127
62271,note_off,218,0,0,,5,,,77,127
62272,note_on,1,0,0,,5,,,65,127
62381,note_off,109,0,0,,5,,,65,127
62381,note_off,0,0,0,,1,,,73,127
62382,note_on,1,0,0,,0,,,72,127
62492,note_on,110,0,0,,5,,,77,127
62710,note_off,218,0,0,,5,,,77,127
62711,note_on,1,0,0,,5,,,65,127
62929,note_off,218,0,0,,5,,,65,127
62929,note_off,0,0,0,,8,,,44,127
62930,note_on,1,0,0,,7,,,43,127
62930,note_on,0,0,0,,5,,,77,127
63148,note_off,218,0,0,,5,,,77,127
63149,note_on,1,0,0,,5,,,65,127
63258,note_off,109,0,0,,5,,,65,127
63258,note_off,0,0,0,,0,,,72,127
63259,note_on,1,0,0,,12,,,71,127
63369,note_on,110,0,0,,5,,,77,127
63587,note_off,218,0,0,,5,,,77,127
63588,note_on,1,0,0,,5,,,65,127
63806,note_off,218,0,0,,5,,,65,127
63806,note_off,0,0,0,,7,,,43,127
63807,note_on,1,0,0,,5,,,41,127
63807,note_on,0,0,0,,5,,,77,127
64025,note_off,218,0,0,,5,,,77,127
64026,note_on,1,0,0,,5,,,65,127
64135,note_off,109,0,0,,5,,,65,127
64135,note_off,0,0,0,,12,,,71,127
64136,note_on,1,0,0,,10,,,69,127
64246,note_on,110,0,0,,5,,,77,127
64464,note_off,218,0,0,,5,,,77,127
64465,note_on,1,0,0,,5,,,65,127
64570,note_off,105,0,0,,10,,,69,127
64683,note_off,113,0,0,,5,,,65,127
64683,note_off,0,0,0,,5,,,41,127
64684,note_on,1,0,0,,4,,,40,127
64684,note_on,0,0,0,,5,,,77,127
64684,note_on,0,0,0,,12,,,71,127
64684,note_on,0,0,0,,8,,,68,127
64902,note_off,218,0,0,,5,,,77,127
64903,note_on,1,0,0,,4,,,76,127
65012,note_off,109,0,0,,4,,,76,127
65013,note_off,1,0,0,,12,,,71,127
65013,note_on,0,0,0,,2,,,74,127
65118,note_off,105,0,0,,8,,,68,127
65121,note_off,3,0,0,,2,,,74,127
65122,note_on,1,0,0,,0,,,72,127
65231,note_off,109,0,0,,0,,,72,127
65232,note_on,1,0,0,,12,,,71,127
65341,note_off,109,0,0,,12,,,71,127
65342,note_on,1,0,0,,10,,,69,127
65451,note_off,109,0,0,,10,,,69,127
65452,note_on,1,0,0,,12,,,71,127
65541,note_off,89,0,0,,4,,,40,127
65560,note_off,19,0,0,,12,,,71,127
65561,note_on,1,0,0,,10,,,45,127
65561,note_on,0,0,0,,0,,,72,127
65670,note_off,109,0,0,,0,,,72,127
65671,note_on,1,0,0,,10,,,69,127
65780,note_off,109,0,0,,10,,,69,127
65781,note_on,1,0,0,,4,,,76,127
65890,note_off,109,0,0,,4,,,76,127
65891,note_on,1,0,0,,0,,,72,127
66000,note_off,109,0,0,,0,,,72,127
66001,note_on,1,0,0,,10,,,81,127
66110,note_off,109,0,0,,10,,,81,127
66111,note_on,1,0,0,,7,,,79,127
66220,note_off,109,0,0,,7,,,79,127
66221,note_on,1,0,0,,5,,,77,127
66330,note_off,109,0,0,,5,,,77,127
66331,note_on,1,0,0,,4,,,76,127
66440,note_off,109,0,0,,4,,,76,127
66440,note_off,0,0,0,,10,,,45,127
66441,note_on,1,0,0,,2,,,38,127
66441,note_on,0,0,0,,5,,,77,127
66550,note_off,109,0,0,,5,,,77,127
66551,note_on,1,0,0,,4,,,76,127
66660,note_off,109,0,0,,4,,,76,127
66661,note_on,1,0,0,,2,,,74,127
66770,note_off,109,0,0,,2,,,74,127
66771,note_on,1,0,0,,0,,,72,127
66880,note_off,109,0,0,,0,,,72,127
66880,note_off,0,0,0,,2,,,38,127
66881,note_on,1,0,0,,2,,,50,127
66881,note_on,0,0,0,,12,,,71,127
66990,note_off,109,0,0,,12,,,71,127
66991,note_on,1,0,0,,10,,,69,127
67100,note_off,109,0,0,,10,,,69,127
67101,note_on,1,0,0,,8,,,68,127
67210,note_off,109,0,0,,8,,,68,127
67211,note_on,1,0,0,,10,,,69,127
67320,note_off,109,0,0,,10,,,69,127
67320,note_off,0,0,0,,2,,,50,127
67321,note_on,1,0,0,,4,,,40,127
67321,note_on,0,0,0,,4,,,64,127
67978,note_off,657,0,0,,4,,,64,127
68197,note_off,219,0,0,,4,,,40,127
68198,note_on,1,0,0,,8,,,68,127
68198,note_on,0,0,0,,12,,,71,127
68307,note_off,109,0,0,,12,,,71,127
68307,note_off,0,0,0,,8,,,68,127
68308,note_on,1,0,0,,4,,,64,127
68308,note_on,0,0,0,,4,,,76,127
68417,note_off,109,0,0,,4,,,76,127
68417,note_off,0,0,0,,4,,,64,127
68418,note_on,1,0,0,,10,,,69,127
68418,note_on,0,0,0,,0,,,72,127
68527,note_off,109,0,0,,0,,,72,127
68527,note_off,0,0,0,,10,,,69,127
68528,note_on,1,0,0,,2,,,62,127
68528,note_on,0,0,0,,5,,,77,127
68637,note_off,109,0,0,,5,,,77,127
68637,note_off,0,0,0,,2,,,62,127
68638,note_on,1,0,0,,4,,,64,127
68638,note_on,0,0,0,,12,,,71,127
68747,note_off,109,0,0,,12,,,71,127
68747,note_off,0,0,0,,4,,,64,127
68748,note_on,1,0,0,,8,,,68,127
68748,note_on,0,0,0,,4,,,76,127
68857,note_off,109,0,0,,4,,,76,127
68857,note_off,0,0,0,,8,,,68,127
68858,note_on,1,0,0,,10,,,69,127
68858,note_on,0,0,0,,0,,,72,127
68967,note_off,109,0,0,,0,,,72,127
68967,note_off,0,0,0,,10,,,69,127
68968,note_on,1,0,0,,2,,,62,127
68968,note_on,0,0,0,,5,,,77,127
69077,note_off,109,0,0,,5,,,77,127
69077,note_off,0,0,0,,2,,,62,127
69078,note_on,1,0,0,,4,,,64,127
69078,note_on,0,0,0,,12,,,71,127
69187,note_off,109,0,0,,12,,,71,127
69187,note_off,0,0,0,,4,,,64,127
69188,note_on,1,0,0,,8,,,68,127
69188,note_on,0,0,0,,4,,,76,127
69297,note_off,109,0,0,,4,,,76,127
69297,note_off,0,0,0,,8,,,68,127
69298,note_on,1,0,0,,10,,,69,127
69298,note_on,0,0,0,,0,,,72,127
69407,note_off,109,0,0,,0,,,72,127
69407,note_off,0,0,0,,10,,,69,127
69408,note_on,1,0,0,,2,,,62,127
69408,note_on,0,0,0,,5,,,77,127
69517,note_off,109,0,0,,5,,,77,127
69517,note_off,0,0,0,,2,,,62,127
69518,note_on,1,0,0,,4,,,64,127
69518,note_on,0,0,0,,12,,,71,127
69627,note_off,109,0,0,,12,,,71,127
69627,note_off,0,0,0,,4,,,64,127
69628,note_on,1,0,0,,8,,,68,127
69628,note_on,0,0,0,,4,,,76,127
69737,note_off,109,0,0,,4,,,76,127
69737,note_off,0,0,0,,8,,,68,127
69738,note_on,1,0,0,,10,,,69,127
69738,note_on,0,0,0,,0,,,72,127
69847,note_off,109,0,0,,0,,,72,127
69847,note_off,0,0,0,,10,,,69,127
69848,note_on,1,0,0,,2,,,62,127
69848,note_on,0,0,0,,5,,,77,127
69957,note_off,109,0,0,,5,,,77,127
69957,note_off,0,0,0,,2,,,62,127
69958,note_on,1,0,0,,4,,,64,127
69958,note_on,0,0,0,,12,,,71,127
70067,note_off,109,0,0,,4,,,64,127
70068,note_on,1,0,0,,12,,,59,127
70177,note_off,109,0,0,,12,,,59,127
70178,note_on,1,0,0,,8,,,56,127
70287,note_off,109,0,0,,8,,,56,127
70288,note_on,1,0,0,,4,,,52,127
70393,note_off,105,0,0,,12,,,71,127
70396,note_off,3,0,0,,4,,,52,127
70397,note_on,1,0,0,,4,,,40,127
70726,note_off,329,0,0,,4,,,40,127
70836,note_on,110,0,0,,1,,,73,127
70836,note_on,0,0,0,,4,,,76,127
70945,note_off,109,0,0,,4,,,76,127
70945,note_off,0,0,0,,1,,,73,127
70946,note_on,1,0,0,,10,,,69,127
70946,note_on,0,0,0,,10,,,81,127
71055,note_off,109,0,0,,10,,,81,127
71055,note_off,0,0,0,,10,,,69,127
71056,note_on,1,0,0,,2,,,74,127
71056,note_on,0,0,0,,5,,,77,127
71165,note_off,109,0,0,,5,,,77,127
71165,note_off,0,0,0,,2,,,74,127
71166,note_on,1,0,0,,7,,,67,127
71166,note_on,0,0,0,,11,,,82,127
71275,note_off,109,0,0,,11,,,82,127
71275,note_off,0,0,0,,7,,,67,127
71276,note_on,1,0,0,,10,,,69,127
71276,note_on,0,0,0,,4,,,76,127
71385,note_off,109,0,0,,4,,,76,127
71385,note_off,0,0,0,,10,,,69,127
71386,note_on,1,0,0,,1,,,73,127
71386,note_on,0,0,0,,10,,,81,127
71495,note_off,109,0,0,,10,,,81,127
71495,note_off,0,0,0,,1,,,73,127
71496,note_on,1,0,0,,2,,,74,127
71496,note_on,0,0,0,,5,,,77,127
71605,note_off,109,0,0,,5,,,77,127
71605,note_off,0,0,0,,2,,,74,127
71606,note_on,1,0,0,,7,,,67,127
71606,note_on,0,0,0,,11,,,82,127
71715,note_off,109,0,0,,11,,,82,127
71715,note_off,0,0,0,,7,,,67,127
71716,note_on,1,0,0,,10,,,69,127
71716,note_on,0,0,0,,4,,,76,127
71825,note_off,109,0,0,,4,,,76,127
71825,note_off,0,0,0,,10,,,69,127
71826,note_on,1,0,0,,1,,,73,127
71826,note_on,0,0,0,,10,,,81,127
71935,note_off,109,0,0,,10,,,81,127
71935,note_off,0,0,0,,1,,,73,127
71936,note_on,1,0,0,,2,,,74,127
71936,note_on,0,0,0,,5,,,77,127
72045,note_off,109,0,0,,5,,,77,127
72045,note_off,0,0,0,,2,,,74,127
72046,note_on,1,0,0,,7,,,67,127
72046,note_on,0,0,0,,11,,,82,127
72155,note_off,109,0,0,,11,,,82,127
72155,note_off,0,0,0,,7,,,67,127
72156,note_on,1,0,0,,10,,,69,127
72156,note_on,0,0,0,,4,,,76,127
72265,note_off,109,0,0,,4,,,76,127
72265,note_off,0,0,0,,10,,,69,127
72266,note_on,1,0,0,,1,,,73,127
72266,note_on,0,0,0,,10,,,81,127
72375,note_off,109,0,0,,10,,,81,127
72375,note_off,0,0,0,,1,,,73,127
72376,note_on,1,0,0,,2,,,74,127
72376,note_on,0,0,0,,5,,,77,127
72485,note_off,109,0,0,,5,,,77,127
72485,note_off,0,0,0,,2,,,74,127
72486,note_on,1,0,0,,7,,,67,127
72486,note_on,0,0,0,,11,,,82,127
72595,note_off,109,0,0,,11,,,82,127
72595,note_off,0,0,0,,7,,,67,127
72596,note_on,1,0,0,,10,,,69,127
72596,note_on,0,0,0,,4,,,76,127
72705,note_off,109,0,0,,10,,,69,127
72706,note_on,1,0,0,,4,,,64,127
72815,note_off,109,0,0,,4,,,64,127
72816,note_on,1,0,0,,1,,,61,127
72925,note_off,109,0,0,,1,,,61,127
72926,note_on,1,0,0,,10,,,57,127
73031,note_off,105,0,0,,4,,,76,127
73034,note_off,3,0,0,,10,,,57,127
73035,note_on,1,0,0,,10,,,45,127
73364,note_off,329,0,0,,10,,,45,127
73693,note_on,329,0,0,,10,,,81,127
73693,note_on,0,0,0,,6,,,78,127
73802,note_off,109,0,0,,6,,,78,127
73802,note_off,0,0,0,,10,,,81,127
73803,note_on,1,0,0,,2,,,86,127
73803,note_on,0,0,0,,2,,,74,127
73912,note_off,109,0,0,,2,,,74,127
73912,note_off,0,0,0,,2,,,86,127
73913,note_on,1,0,0,,11,,,82,127
73913,note_on,0,0,0,,7,,,79,127
74022,note_off,109,0,0,,7,,,79,127
74022,note_off,0,0,0,,11,,,82,127
74023,note_on,1,0,0,,3,,,87,127
74023,note_on,0,0,0,,0,,,72,127
74132,note_off,109,0,0,,0,,,72,127
74132,note_off,0,0,0,,3,,,87,127
74133,note_on,1,0,0,,10,,,81,127
74133,note_on,0,0,0,,2,,,74,127
74242,note_off,109,0,0,,2,,,74,127
74242,note_off,0,0,0,,10,,,81,127
74243,note_on,1,0,0,,2,,,86,127
74243,note_on,0,0,0,,6,,,78,127
74352,note_off,109,0,0,,6,,,78,127
74352,note_off,0,0,0,,2,,,86,127
74353,note_on,1,0,0,,11,,,82,127
74353,note_on,0,0,0,,7,,,79,127
74462,note_off,109,0,0,,7,,,79,127
74462,note_off,0,0,0,,11,,,82,127
74463,note_on,1,0,0,,3,,,87,127
74463,note_on,0,0,0,,0,,,72,127
74572,note_off,109,0,0,,0,,,72,127
74572,note_off,0,0,0,,3,,,87,127
74573,note_on,1,0,0,,10,,,81,127
74573,note_on,0,0,0,,2,,,74,127
74682,note_off,109,0,0,,2,,,74,127
74682,note_off,0,0,0,,10,,,81,127
74683,note_on,1,0,0,,2,,,86,127
74683,note_on,0,0,0,,6,,,78,127
74792,note_off,109,0,0,,6,,,78,127
74792,note_off,0,0,0,,2,,,86,127
74793,note_on,1,0,0,,11,,,82,127
74793,note_on,0,0,0,,7,,,79,127
74902,note_off,109,0,0,,7,,,79,127
74902,note_off,0,0,0,,11,,,82,127
74903,note_on,1,0,0,,7,,,79,127
74903,note_on,0,0,0,,11,,,70,127
75012,note_off,109,0,0,,11,,,70,127
75012,note_off,0,0,0,,7,,,79,127
75013,note_on,1,0,0,,3,,,75,127
75013,note_on,0,0,0,,0,,,72,127
75122,note_off,109,0,0,,0,,,72,127
75122,note_off,0,0,0,,3,,,75,127
75123,note_on,1,0,0,,0,,,84,127
75123,note_on,0,0,0,,3,,,75,127
75232,note_off,109,0,0,,3,,,75,127
75232,note_off,0,0,0,,0,,,84,127
75233,note_on,1,0,0,,10,,,81,127
75233,note_on,0,0,0,,5,,,77,127
75342,note_off,109,0,0,,5,,,77,127
75342,note_off,0,0,0,,10,,,81,127
75343,note_on,1,0,0,,5,,,77,127
75343,note_on,0,0,0,,10,,,69,127
75452,note_off,109,0,0,,10,,,69,127
75452,note_off,0,0,0,,5,,,77,127
75453,note_on,1,0,0,,2,,,74,127
75453,note_on,0,0,0,,11,,,70,127
75562,note_off,109,0,0,,11,,,70,127
75562,note_off,0,0,0,,2,,,74,127
75563,note_on,1,0,0,,11,,,82,127
75563,note_on,0,0,0,,2,,,74,127
75672,note_off,109,0,0,,2,,,74,127
75672,note_off,0,0,0,,11,,,82,127
75673,note_on,1,0,0,,7,,,79,127
75673,note_on,0,0,0,,3,,,75,127
75782,note_off,109,0,0,,3,,,75,127
75782,note_off,0,0,0,,7,,,79,127
75783,note_on,1,0,0,,3,,,75,127
75783,note_on,0,0,0,,7,,,67,127
75892,note_off,109,0,0,,7,,,67,127
75892,note_off,0,0,0,,3,,,75,127
75893,note_on,1,0,0,,0,,,72,127
75893,note_on,0,0,0,,10,,,69,127
76002,note_off,109,0,0,,10,,,69,127
76002,note_off,0,0,0,,0,,,72,127
76003,note_on,1,0,0,,10,,,81,127
76003,note_on,0,0,0,,0,,,72,127
76112,note_off,109,0,0,,0,,,72,127
76112,note_off,0,0,0,,10,,,81,127
76113,note_on,1,0,0,,6,,,78,127
76113,note_on,0,0,0,,2,,,74,127
76222,note_off,109,0,0,,2,,,74,127
76222,note_off,0,0,0,,6,,,78,127
76223,note_on,1,0,0,,2,,,74,127
76223,note_on,0,0,0,,6,,,66,127
76332,note_off,109,0,0,,6,,,66,127
76332,note_off,0,0,0,,2,,,74,127
76333,note_on,1,0,0,,11,,,70,127
76333,note_on,0,0,0,,7,,,67,127
76442,note_off,109,0,0,,7,,,67,127
76442,note_off,0,0,0,,11,,,70,127
76443,note_on,1,0,0,,7,,,79,127
76443,note_on,0,0,0,,11,,,70,127
76552,note_off,109,0,0,,11,,,70,127
76552,note_off,0,0,0,,7,,,79,127
76553,note_on,1,0,0,,3,,,75,127
76553,note_on,0,0,0,,0,,,72,127
76662,note_off,109,0,0,,0,,,72,127
76662,note_off,0,0,0,,3,,,75,127
76663,note_on,1,0,0,,0,,,72,127
76663,note_on,0,0,0,,3,,,63,127
76772,note_off,109,0,0,,3,,,63,127
76772,note_off,0,0,0,,0,,,72,127
76773,note_on,1,0,0,,10,,,69,127
76773,note_on,0,0,0,,5,,,65,127
76882,note_off,109,0,0,,5,,,65,127
76882,note_off,0,0,0,,10,,,69,127
76883,note_on,1,0,0,,5,,,77,127
76883,note_on,0,0,0,,10,,,69,127
76992,note_off,109,0,0,,10,,,69,127
76992,note_off,0,0,0,,5,,,77,127
76993,note_on,1,0,0,,2,,,74,127
76993,note_on,0,0,0,,11,,,70,127
77102,note_off,109,0,0,,11,,,70,127
77102,note_off,0,0,0,,2,,,74,127
77103,note_on,1,0,0,,11,,,70,127
77103,note_on,0,0,0,,2,,,62,127
77212,note_off,109,0,0,,2,,,62,127
77212,note_off,0,0,0,,11,,,70,127
77213,note_on,1,0,0,,7,,,67,127
77213,note_on,0,0,0,,3,,,63,127
77322,note_off,109,0,0,,3,,,63,127
77322,note_off,0,0,0,,7,,,67,127
77323,note_on,1,0,0,,3,,,75,127
77323,note_on,0,0,0,,7,,,67,127
77432,note_off,109,0,0,,7,,,67,127
77432,note_off,0,0,0,,3,,,75,127
77433,note_on,1,0,0,,0,,,72,127
77433,note_on,0,0,0,,10,,,69,127
77542,note_off,109,0,0,,10,,,69,127
77542,note_off,0,0,0,,0,,,72,127
77543,note_on,1,0,0,,10,,,69,127
77543,note_on,0,0,0,,0,,,60,127
77652,note_off,109,0,0,,0,,,60,127
77652,note_off,0,0,0,,10,,,69,127
77653,note_on,1,0,0,,6,,,66,127
77653,note_on,0,0,0,,2,,,62,127
77762,note_off,109,0,0,,6,,,66,127
77763,note_on,1,0,0,,2,,,74,127
77872,note_off,109,0,0,,2,,,74,127
77872,note_off,0,0,0,,2,,,62,127
77873,note_on,1,0,0,,7,,,67,127
77873,note_on,0,0,0,,11,,,58,127
77982,note_off,109,0,0,,7,,,67,127
77983,note_on,1,0,0,,11,,,70,127
78092,note_off,109,0,0,,11,,,70,127
78092,note_off,0,0,0,,11,,,58,127
78093,note_on,1,0,0,,10,,,69,127
78093,note_on,0,0,0,,6,,,54,127
78202,note_off,109,0,0,,10,,,69,127
78203,note_on,1,0,0,,0,,,72,127
78312,note_off,109,0,0,,0,,,72,127
78312,note_off,0,0,0,,6,,,54,127
78313,note_on,1,0,0,,11,,,70,127
78313,note_on,0,0,0,,7,,,55,127
78422,note_off,109,0,0,,11,,,70,127
78423,note_on,1,0,0,,2,,,74,127
78532,note_off,109,0,0,,2,,,74,127
78532,note_off,0,0,0,,7,,,55,127
78533,note_on,1,0,0,,0,,,72,127
78533,note_on,0,0,0,,3,,,51,127
78642,note_off,109,0,0,,0,,,72,127
78643,note_on,1,0,0,,11,,,70,127
78752,note_off,109,0,0,,11,,,70,127
78753,note_on,1,0,0,,10,,,69,127
78753,note_on,0,0,0,,7,,,79,127
78862,note_off,109,0,0,,10,,,69,127
78863,note_on,1,0,0,,7,,,67,127
78970,note_off,107,0,0,,7,,,79,127
78971,note_off,1,0,0,,7,,,67,127
78971,note_off,0,0,0,,3,,,51,127
78972,note_on,1,0,0,,6,,,78,127
78972,note_on,0,0,0,,10,,,69,127
78972,note_on,0,0,0,,2,,,38,127
78972,note_on,0,0,0,,2,,,50,127
79081,note_off,109,0,0,,10,,,69,127
79082,note_on,1,0,0,,2,,,74,127
79191,note_off,109,0,0,,2,,,74,127
79192,note_on,1,0,0,,3,,,75,127
79301,note_off,109,0,0,,3,,,75,127
79302,note_on,1,0,0,,2,,,74,127
79411,note_off,109,0,0,,2,,,74,127
79412,note_on,1,0,0,,0,,,72,127
79521,note_off,109,0,0,,0,,,72,127
79522,note_on,1,0,0,,11,,,70,127
79619,note_off,97,0,0,,2,,,50,127
79619,note_off,0,0,0,,2,,,38,127
79630,note_off,11,0,0,,11,,,70,127
79630,note_off,0,0,0,,6,,,78,127
79631,note_on,1,0,0,,7,,,79,127
79631,note_on,0,0,0,,10,,,69,127
79631,note_on,0,0,0,,3,,,51,127
79631,note_on,0,0,0,,3,,,39,127
79740,note_off,109,0,0,,10,,,69,127
79741,note_on,1,0,0,,7,,,67,127
79848,note_off,107,0,0,,7,,,79,127
79849,note_off,1,0,0,,7,,,67,127
79849,note_off,0,0,0,,3,,,39,127
79849,note_off,0,0,0,,3,,,51,127
79850,note_on,1,0,0,,6,,,78,127
79850,note_on,0,0,0,,10,,,69,127
79850,note_on,0,0,0,,2,,,50,127
79850,note_on,0,0,0,,2,,,38,127
79959,note_off,109,0,0,,10,,,69,127
79960,note_on,1,0,0,,2,,,74,127
80069,note_off,109,0,0,,2,,,74,127
80070,note_on,1,0,0,,3,,,75,127
80179,note_off,109,0,0,,3,,,75,127
80180,note_on,1,0,0,,2,,,74,127
80289,note_off,109,0,0,,2,,,74,127
80290,note_on,1,0,0,,0,,,72,127
80399,note_off,109,0,0,,0,,,72,127
80400,note_on,1,0,0,,11,,,70,127
80497,note_off,97,0,0,,2,,,38,127
80497,note_off,0,0,0,,2,,,50,127
80508,note_off,11,0,0,,11,,,70,127
80508,note_off,0,0,0,,6,,,78,127
80509,note_on,1,0,0,,7,,,79,127
80509,note_on,0,0,0,,10,,,69,127
80509,note_on,0,0,0,,3,,,51,127
80509,note_on,0,0,0,,3,,,39,127
80618,note_off,109,0,0,,10,,,69,127
80619,note_on,1,0,0,,7,,,67,127
80726,note_off,107,0,0,,7,,,79,127
80727,note_off,1,0,0,,7,,,67,127
80727,note_off,0,0,0,,3,,,39,127
80727,note_off,0,0,0,,3,,,51,127
80728,note_on,1,0,0,,6,,,78,127
80728,note_on,0,0,0,,10,,,69,127
80728,note_on,0,0,0,,2,,,38,127
80728,note_on,0,0,0,,2,,,50,127
80837,note_off,109,0,0,,10,,,69,127
80838,note_on,1,0,0,,2,,,74,127
80947,note_off,109,0,0,,2,,,74,127
80948,note_on,1,0,0,,3,,,75,127
81057,note_off,109,0,0,,3,,,75,127
81058,note_on,1,0,0,,2,,,74,127
81167,note_off,109,0,0,,2,,,74,127
81168,note_on,1,0,0,,0,,,72,127
81277,note_off,109,0,0,,0,,,72,127
81278,note_on,1,0,0,,11,,,70,127
81375,note_off,97,0,0,,2,,,50,127
81375,note_off,0,0,0,,2,,,38,127
81386,note_off,11,0,0,,11,,,70,127
81386,note_off,0,0,0,,6,,,78,127
81387,note_on,1,0,0,,10,,,69,127
81387,note_on,0,0,0,,7,,,79,127
81387,note_on,0,0,0,,3,,,39,127
81387,note_on,0,0,0,,3,,,51,127
81496,note_off,109,0,0,,10,,,69,127
81497,note_on,1,0,0,,7,,,67,127
81604,note_off,107,0,0,,7,,,79,127
81605,note_off,1,0,0,,7,,,67,127
81605,note_off,0,0,0,,3,,,51,127
81605,note_off,0,0,0,,3,,,39,127
81606,note_on,1,0,0,,10,,,81,127
81606,note_on,0,0,0,,2,,,50,127
81606,note_on,0,0,0,,2,,,38,127
81715,note_off,109,0,0,,10,,,81,127
81716,note_on,1,0,0,,6,,,78,127
81825,note_off,109,0,0,,6,,,78,127
81826,note_on,1,0,0,,2,,,74,127
81935,note_off,109,0,0,,2,,,74,127
81936,note_on,1,0,0,,10,,,69,127
82045,note_off,109,0,0,,10,,,69,127
82046,note_on,1,0,0,,6,,,66,127
82155,note_off,109,0,0,,6,,,66,127
82156,note_on,1,0,0,,2,,,62,127
82265,note_off,109,0,0,,2,,,62,127
82266,note_on,1,0,0,,10,,,57,127
82375,note_off,109,0,0,,10,,,57,127
82376,note_on,1,0,0,,6,,,54,127
82485,note_off,109,0,0,,6,,,54,127
82485,note_off,0,0,0,,2,,,38,127
82485,note_off,0,0,0,,2,,,50,127
82486,note_on,1,0,0,,2,,,50,127
82486,note_on,0,0,0,,2,,,38,127
83143,note_off,657,0,0,,2,,,50,127
83362,note_off,219,0,0,,2,,,38,127
83363,note_on,1,0,0,,2,,,86,127
83363,note_on,0,0,0,,7,,,43,127
83472,note_off,109,0,0,,7,,,43,127
83473,note_on,1,0,0,,11,,,46,127
83582,note_off,109,0,0,,11,,,46,127
83583,note_on,1,0,0,,2,,,50,127
83692,note_off,109,0,0,,2,,,50,127
83693,note_on,1,0,0,,7,,,55,127
83802,note_off,109,0,0,,7,,,55,127
83803,note_on,1,0,0,,11,,,58,127
83912,note_off,109,0,0,,11,,,58,127
83913,note_on,1,0,0,,2,,,62,127
84022,note_off,109,0,0,,2,,,62,127
84023,note_on,1,0,0,,3,,,63,127
84132,note_off,109,0,0,,3,,,63,127
84133,note_on,1,0,0,,0,,,60,127
84242,note_off,109,0,0,,0,,,60,127
84243,note_on,1,0,0,,2,,,38,127
84461,note_off,218,0,0,,2,,,86,127
84462,note_on,1,0,0,,0,,,84,127
84571,note_off,109,0,0,,0,,,84,127
84572,note_on,1,0,0,,11,,,82,127
84681,note_off,109,0,0,,11,,,82,127
84682,note_on,1,0,0,,10,,,81,127
84791,note_off,109,0,0,,10,,,81,127
84792,note_on,1,0,0,,7,,,79,127
84901,note_off,109,0,0,,7,,,79,127
84902,note_on,1,0,0,,6,,,78,127
85009,note_off,107,0,0,,2,,,38,127
85010,note_off,1,0,0,,6,,,78,127
85011,note_on,1,0,0,,10,,,81,127
85120,note_off,109,0,0,,10,,,81,127
85121,note_on,1,0,0,,7,,,79,127
85121,note_on,0,0,0,,7,,,43,127
85230,note_off,109,0,0,,7,,,43,127
85231,note_on,1,0,0,,11,,,46,127
85340,note_off,109,0,0,,11,,,46,127
85341,note_on,1,0,0,,2,,,50,127
85450,note_off,109,0,0,,2,,,50,127
85451,note_on,1,0,0,,7,,,55,127
85560,note_off,109,0,0,,7,,,55,127
85561,note_on,1,0,0,,11,,,58,127
85670,note_off,109,0,0,,11,,,58,127
85671,note_on,1,0,0,,2,,,62,127
85780,note_off,109,0,0,,2,,,62,127
85781,note_on,1,0,0,,11,,,70,127
85890,note_off,109,0,0,,11,,,70,127
85891,note_on,1,0,0,,7,,,67,127
86000,note_off,109,0,0,,7,,,67,127
86001,note_on,1,0,0,,10,,,69,127
86001,note_on,0,0,0,,2,,,62,127
86219,note_off,218,0,0,,7,,,79,127
86220,note_on,1,0,0,,6,,,78,127
86329,note_off,109,0,0,,6,,,78,127
86330,note_on,1,0,0,,7,,,79,127
86439,note_off,109,0,0,,7,,,79,127
86440,note_on,1,0,0,,10,,,81,127
86549,note_off,109,0,0,,10,,,81,127
86550,note_on,1,0,0,,11,,,82,127
86659,note_off,109,0,0,,11,,,82,127
86660,note_on,1,0,0,,0,,,84,127
86769,note_off,109,0,0,,0,,,84,127
86770,note_on,1,0,0,,10,,,81,127
86879,note_off,109,0,0,,10,,,81,127
86879,note_off,0,0,0,,2,,,62,127
86879,note_off,0,0,0,,10,,,69,127
86880,note_on,1,0,0,,2,,,86,127
86880,note_on,0,0,0,,7,,,43,127
86989,note_off,109,0,0,,7,,,43,127
86990,note_on,1,0,0,,11,,,46,127
87099,note_off,109,0,0,,11,,,46,127
87100,note_on,1,0,0,,2,,,50,127
87209,note_off,109,0,0,,2,,,50,127
87210,note_on,1,0,0,,7,,,55,127
87319,note_off,109,0,0,,7,,,55,127
87320,note_on,1,0,0,,11,,,58,127
87429,note_off,109,0,0,,11,,,58,127
87430,note_on,1,0,0,,2,,,62,127
87539,note_off,109,0,0,,2,,,62,127
87540,note_on,1,0,0,,3,,,63,127
87649,note_off,109,0,0,,3,,,63,127
87650,note_on,1,0,0,,0,,,60,127
87759,note_off,109,0,0,,0,,,60,127
87760,note_on,1,0,0,,2,,,38,127
87978,note_off,218,0,0,,2,,,86,127
87979,note_on,1,0,0,,0,,,84,127
88088,note_off,109,0,0,,0,,,84,127
88089,note_on,1,0,0,,11,,,82,127
88198,note_off,109,0,0,,11,,,82,127
88199,note_on,1,0,0,,10,,,81,127
88308,note_off,109,0,0,,10,,,81,127
88309,note_on,1,0,0,,7,,,79,127
88418,note_off,109,0,0,,7,,,79,127
88419,note_on,1,0,0,,6,,,78,127
88526,note_off,107,0,0,,2,,,38,127
88527,note_off,1,0,0,,6,,,78,127
88528,note_on,1,0,0,,10,,,81,127
88637,note_off,109,0,0,,10,,,81,127
88638,note_on,1,0,0,,7,,,79,127
88638,note_on,0,0,0,,7,,,43,127
88747,note_off,109,0,0,,7,,,43,127
88748,note_on,1,0,0,,11,,,46,127
88857,note_off,109,0,0,,11,,,46,127
88858,note_on,1,0,0,,2,,,50,127
88967,note_off,109,0,0,,2,,,50,127
88968,note_on,1,0,0,,7,,,55,127
89077,note_off,109,0,0,,7,,,55,127
89078,note_on,1,0,0,,11,,,58,127
89187,note_off,109,0,0,,11,,,58,127
89188,note_on,1,0,0,,2,,,62,127
89297,note_off,109,0,0,,2,,,62,127
89298,note_on,1,0,0,,11,,,70,127
89407,note_off,109,0,0,,11,,,70,127
89408,note_on,1,0,0,,7,,,67,127
89517,note_off,109,0,0,,7,,,67,127
89518,note_on,1,0,0,,10,,,69,127
89518,note_on,0,0,0,,2,,,62,127
89736,note_off,218,0,0,,7,,,79,127
89737,note_on,1,0,0,,6,,,78,127
89846,note_off,109,0,0,,6,,,78,127
89847,note_on,1,0,0,,7,,,79,127
89956,note_off,109,0,0,,7,,,79,127
89957,note_on,1,0,0,,10,,,81,127
90066,note_off,109,0,0,,10,,,81,127
90067,note_on,1,0,0,,12,,,83,127
90176,note_off,109,0,0,,12,,,83,127
90177,note_on,1,0,0,,0,,,84,127
90286,note_off,109,0,0,,0,,,84,127
90287,note_on,1,0,0,,10,,,81,127
90396,note_off,109,0,0,,10,,,81,127
90396,note_off,0,0,0,,2,,,62,127
90396,note_off,0,0,0,,10,,,69,127
90397,note_on,1,0,0,,2,,,86,127
90397,note_on,0,0,0,,12,,,47,127
90506,note_off,109,0,0,,2,,,86,127
90507,note_on,1,0,0,,12,,,83,127
90616,note_off,109,0,0,,12,,,83,127
90617,note_on,1,0,0,,7,,,79,127
90726,note_off,109,0,0,,7,,,79,127
90727,note_on,1,0,0,,2,,,74,127
90832,note_off,105,0,0,,12,,,47,127
90835,note_off,3,0,0,,2,,,74,127
90836,note_on,1,0,0,,12,,,71,127
90946,note_on,110,0,0,,7,,,67,127
91055,note_off,109,0,0,,7,,,67,127
91056,note_on,1,0,0,,2,,,62,127
91165,note_off,109,0,0,,2,,,62,127
91166,note_on,1,0,0,,12,,,59,127
91275,note_off,109,0,0,,12,,,59,127
91275,note_off,0,0,0,,12,,,71,127
91276,note_on,1,0,0,,4,,,76,127
91276,note_on,0,0,0,,0,,,48,127
91385,note_off,109,0,0,,4,,,76,127
91386,note_on,1,0,0,,0,,,72,127
91495,note_off,109,0,0,,0,,,72,127
91496,note_on,1,0,0,,7,,,67,127
91605,note_off,109,0,0,,7,,,67,127
91606,note_on,1,0,0,,4,,,64,127
91711,note_off,105,0,0,,0,,,48,127
91714,note_off,3,0,0,,4,,,64,127
91715,note_on,1,0,0,,0,,,60,127
91825,note_on,110,0,0,,7,,,55,127
91934,note_off,109,0,0,,7,,,55,127
91935,note_on,1,0,0,,4,,,52,127
92044,note_off,109,0,0,,4,,,52,127
92045,note_on,1,0,0,,0,,,48,127
92154,note_off,109,0,0,,0,,,48,127
92154,note_off,0,0,0,,0,,,60,127
92155,note_on,1,0,0,,2,,,86,127
92155,note_on,0,0,0,,12,,,47,127
92264,note_off,109,0,0,,2,,,86,127
92265,note_on,1,0,0,,12,,,83,127
92374,note_off,109,0,0,,12,,,83,127
92375,note_on,1,0,0,,7,,,79,127
92484,note_off,109,0,0,,7,,,79,127
92485,note_on,1,0,0,,2,,,74,127
92590,note_off,105,0,0,,12,,,47,127
92593,note_off,3,0,0,,2,,,74,127
92594,note_on,1,0,0,,12,,,71,127
92704,note_on,110,0,0,,7,,,67,127
92813,note_off,109,0,0,,7,,,67,127
92814,note_on,1,0,0,,2,,,62,127
92923,note_off,109,0,0,,2,,,62,127
92924,note_on,1,0,0,,12,,,59,127
93033,note_off,109,0,0,,12,,,59,127
93033,note_off,0,0,0,,12,,,71,127
93034,note_on,1,0,0,,4,,,76,127
93034,note_on,0,0,0,,0,,,48,127
93143,note_off,109,0,0,,4,,,76,127
93144,note_on,1,0,0,,0,,,72,127
93253,note_off,109,0,0,,0,,,72,127
93254,note_on,1,0,0,,7,,,67,127
93363,note_off,109,0,0,,7,,,67,127
93364,note_on,1,0,0,,4,,,64,127
93469,note_off,105,0,0,,0,,,48,127
93472,note_off,3,0,0,,4,,,64,127
93473,note_on,1,0,0,,0,,,60,127
93583,note_on,110,0,0,,7,,,55,127
93692,note_off,109,0,0,,7,,,55,127
93693,note_on,1,0,0,,4,,,52,127
93802,note_off,109,0,0,,4,,,52,127
93803,note_on,1,0,0,,0,,,48,127
93912,note_off,109,0,0,,0,,,48,127
93912,note_off,0,0,0,,0,,,60,127
93913,note_on,1,0,0,,12,,,71,127
93913,note_on,0,0,0,,2,,,50,127
94022,note_off,109,0,0,,12,,,71,127
94023,note_on,1,0,0,,0,,,72,127
94132,note_off,109,0,0,,0,,,72,127
94133,note_on,1,0,0,,2,,,74,127
94242,note_off,109,0,0,,2,,,74,127
94243,note_on,1,0,0,,0,,,72,127
94352,note_off,109,0,0,,0,,,72,127
94352,note_off,0,0,0,,2,,,50,127
94353,note_on,1,0,0,,12,,,71,127
94353,note_on,0,0,0,,2,,,38,127
94462,note_off,109,0,0,,12,,,71,127
94463,note_on,1,0,0,,10,,,69,127
94572,note_off,109,0,0,,10,,,69,127
94573,note_on,1,0,0,,7,,,67,127
94682,note_off,109,0,0,,7,,,67,127
94683,note_on,1,0,0,,6,,,66,127
94792,note_off,109,0,0,,6,,,66,127
94792,note_off,0,0,0,,2,,,38,127
94793,note_on,1,0,0,,7,,,79,127
94793,note_on,0,0,0,,7,,,67,127
94793,note_on,0,0,0,,7,,,43,127
95011,note_off,218,0,0,,7,,,67,127
95011,note_off,0,0,0,,7,,,79,127
95012,note_on,1,0,0,,2,,,74,127
95121,note_off,109,0,0,,2,,,74,127
95122,note_on,1,0,0,,3,,,75,127
95231,note_off,109,0,0,,3,,,75,127
95231,note_off,0,0,0,,7,,,43,127
95232,note_on,1,0,0,,4,,,76,127
95232,note_on,0,0,0,,0,,,48,127
95232,note_on,0,0,0,,0,,,36,127
95450,note_off,218,0,0,,4,,,76,127
95451,note_on,1,0,0,,0,,,72,127
95560,note_off,109,0,0,,0,,,72,127
95561,note_on,1,0,0,,1,,,73,127
95670,note_off,109,0,0,,1,,,73,127
95670,note_off,0,0,0,,0,,,36,127
95670,note_off,0,0,0,,0,,,48,127
95671,note_on,1,0,0,,2,,,74,127
95671,note_on,0,0,0,,2,,,50,127
95889,note_off,218,0,0,,2,,,74,127
95890,note_on,1,0,0,,0,,,72,127
95999,note_off,109,0,0,,0,,,72,127
96000,note_on,1,0,0,,12,,,71,127
96109,note_off,109,0,0,,12,,,71,127
96109,note_off,0,0,0,,2,,,50,127
96110,note_on,1,0,0,,10,,,69,127
96110,note_on,0,0,0,,2,,,38,127
96219,note_off,109,0,0,,10,,,69,127
96220,note_on,1,0,0,,7,,,67,127
96329,note_off,109,0,0,,7,,,67,127
96330,note_on,1,0,0,,6,,,66,127
96439,note_off,109,0,0,,6,,,66,127
96440,note_on,1,0,0,,10,,,69,127
96549,note_off,109,0,0,,10,,,69,127
96549,note_off,0,0,0,,2,,,38,127
96550,note_on,1,0,0,,7,,,67,127
96550,note_on,0,0,0,,7,,,43,127
96768,note_off,218,0,0,,7,,,67,127
96769,note_on,1,0,0,,2,,,62,127
96878,note_off,109,0,0,,2,,,62,127
96879,note_on,1,0,0,,3,,,63,127
96988,note_off,109,0,0,,3,,,63,127
96988,note_off,0,0,0,,7,,,43,127
96989,note_on,1,0,0,,4,,,64,127
96989,note_on,0,0,0,,0,,,48,127
96989,note_on,0,0,0,,0,,,36,127
97207,note_off,218,0,0,,4,,,64,127
97208,note_on,1,0,0,,0,,,60,127
97317,note_off,109,0,0,,0,,,60,127
97318,note_on,1,0,0,,1,,,61,127
97427,note_off,109,0,0,,1,,,61,127
97427,note_off,0,0,0,,0,,,36,127
97427,note_off,0,0,0,,0,,,48,127
97428,note_on,1,0,0,,2,,,62,127
97428,note_on,0,0,0,,2,,,50,127
97646,note_off,218,0,0,,2,,,62,127
97647,note_on,1,0,0,,0,,,60,127
97756,note_off,109,0,0,,0,,,60,127
97757,note_on,1,0,0,,12,,,59,127
97866,note_off,109,0,0,,12,,,59,127
97866,note_off,0,0,0,,2,,,50,127
97867,note_on,1,0,0,,10,,,57,127
97867,note_on,0,0,0,,2,,,38,127
97976,note_off,109,0,0,,10,,,57,127
97977,note_on,1,0,0,,7,,,55,127
98086,note_off,109,0,0,,7,,,55,127
98087,note_on,1,0,0,,6,,,54,127
98196,note_off,109,0,0,,6,,,54,127
98197,note_on,1,0,0,,10,,,57,127
98302,note_off,105,0,0,,2,,,38,127
98305,note_off,3,0,0,,10,,,57,127
98306,note_on,1,0,0,,7,,,55,127
98415,note_off,109,0,0,,7,,,55,127
98416,note_on,1,0,0,,12,,,59,127
98525,note_off,109,0,0,,12,,,59,127
98526,note_on,1,0,0,,2,,,62,127
98526,note_on,0,0,0,,7,,,43,127
98635,note_off,109,0,0,,2,,,62,127
98636,note_on,1,0,0,,7,,,67,127
98745,note_off,109,0,0,,7,,,67,127
98746,note_on,1,0,0,,10,,,57,127
98855,note_off,109,0,0,,10,,,57,127
98856,note_on,1,0,0,,0,,,60,127
98965,note_off,109,0,0,,0,,,60,127
98965,note_off,0,0,0,,7,,,43,127
98966,note_on,1,0,0,,6,,,66,127
98966,note_on,0,0,0,,10,,,45,127
99075,note_off,109,0,0,,6,,,66,127
99076,note_on,1,0,0,,10,,,69,127
99185,note_off,109,0,0,,10,,,69,127
99186,note_on,1,0,0,,12,,,59,127
99295,note_off,109,0,0,,12,,,59,127
99296,note_on,1,0,0,,2,,,62,127
99405,note_off,109,0,0,,2,,,62,127
99405,note_off,0,0,0,,10,,,45,127
99406,note_on,1,0,0,,7,,,67,127
99406,note_on,0,0,0,,12,,,47,127
99515,note_off,109,0,0,,7,,,67,127
99516,note_on,1,0,0,,12,,,71,127
99625,note_off,109,0,0,,12,,,71,127
99626,note_on,1,0,0,,4,,,64,127
99735,note_off,109,0,0,,4,,,64,127
99736,note_on,1,0,0,,7,,,67,127
99845,note_off,109,0,0,,7,,,67,127
99845,note_off,0,0,0,,12,,,47,127
99846,note_on,1,0,0,,0,,,72,127
99846,note_on,0,0,0,,0,,,48,127
99955,note_off,109,0,0,,0,,,72,127
99956,note_on,1,0,0,,4,,,76,127
100065,note_off,109,0,0,,4,,,76,127
100065,note_off,0,0,0,,0,,,48,127
100066,note_on,1,0,0,,2,,,74,127
100066,note_on,0,0,0,,12,,,47,127
100175,note_off,109,0,0,,2,,,74,127
100176,note_on,1,0,0,,7,,,67,127
100285,note_off,109,0,0,,7,,,67,127
100285,note_off,0,0,0,,12,,,47,127
100286,note_on,1,0,0,,0,,,72,127
100286,note_on,0,0,0,,0,,,48,127
100395,note_off,109,0,0,,0,,,72,127
100396,note_on,1,0,0,,10,,,69,127
100505,note_off,109,0,0,,10,,,69,127
100505,note_off,0,0,0,,0,,,48,127
100506,note_on,1,0,0,,12,,,71,127
100506,note_on,0,0,0,,2,,,50,127
100615,note_off,109,0,0,,12,,,71,127
100616,note_on,1,0,0,,7,,,67,127
100725,note_off,109,0,0,,7,,,67,127
100725,note_off,0,0,0,,2,,,50,127
100726,note_on,1,0,0,,2,,,62,127
100726,note_on,0,0,0,,2,,,38,127
100835,note_off,109,0,0,,2,,,62,127
100836,note_on,1,0,0,,6,,,66,127
100943,note_off,107,0,0,,2,,,38,127
100944,note_off,1,0,0,,6,,,66,127
100945,note_on,1,0,0,,7,,,55,127
101054,note_off,109,0,0,,7,,,55,127
101055,note_on,1,0,0,,12,,,59,127
101164,note_off,109,0,0,,12,,,59,127
101165,note_on,1,0,0,,2,,,62,127
101165,note_on,0,0,0,,7,,,31,127
101165,note_on,0,0,0,,7,,,43,127
101274,note_off,109,0,0,,2,,,62,127
101275,note_on,1,0,0,,7,,,67,127
101384,note_off,109,0,0,,7,,,67,127
101385,note_on,1,0,0,,10,,,57,127
101494,note_off,109,0,0,,10,,,57,127
101495,note_on,1,0,0,,0,,,60,127
101604,note_off,109,0,0,,0,,,60,127
101604,note_off,0,0,0,,7,,,43,127
101604,note_off,0,0,0,,7,,,31,127
101605,note_on,1,0,0,,6,,,66,127
101605,note_on,0,0,0,,10,,,33,127
101605,note_on,0,0,0,,10,,,45,127
101714,note_off,109,0,0,,6,,,66,127
101715,note_on,1,0,0,,10,,,69,127
101824,note_off,109,0,0,,10,,,69,127
101825,note_on,1,0,0,,12,,,59,127
101934,note_off,109,0,0,,12,,,59,127
101935,note_on,1,0,0,,2,,,62,127
102044,note_off,109,0,0,,2,,,62,127
102044,note_off,0,0,0,,10,,,45,127
102044,note_off,0,0,0,,10,,,33,127
102045,note_on,1,0,0,,7,,,67,127
102045,note_on,0,0,0,,12,,,35,127
102045,note_on,0,0,0,,12,,,47,127
102154,note_off,109,0,0,,7,,,67,127
102155,note_on,1,0,0,,12,,,71,127
102264,note_off,109,0,0,,12,,,71,127
102265,note_on,1,0,0,,4,,,64,127
102374,note_off,109,0,0,,4,,,64,127
102375,note_on,1,0,0,,7,,,67,127
102484,note_off,109,0,0,,7,,,67,127
102484,note_off,0,0,0,,12,,,47,127
102484,note_off,0,0,0,,12,,,35,127
102485,note_on,1,0,0,,0,,,72,127
102485,note_on,0,0,0,,0,,,36,127
102485,note_on,0,0,0,,0,,,48,127
102594,note_off,109,0,0,,0,,,72,127
102595,note_on,1,0,0,,4,,,76,127
102704,note_off,109,0,0,,4,,,76,127
102704,note_off,0,0,0,,0,,,48,127
102704,note_off,0,0,0,,0,,,36,127
102705,note_on,1,0,0,,2,,,74,127
102705,note_on,0,0,0,,12,,,35,127
102705,note_on,0,0,0,,12,,,47,127
102814,note_off,109,0,0,,2,,,74,127
102815,note_on,1,0,0,,7,,,67,127
102924,note_off,109,0,0,,7,,,67,127
102924,note_off,0,0,0,,12,,,47,127
102924,note_off,0,0,0,,12,,,35,127
102925,note_on,1,0,0,,0,,,72,127
102925,note_on,0,0,0,,0,,,36,127
102925,note_on,0,0,0,,0,,,48,127
103034,note_off,109,0,0,,0,,,72,127
103035,note_on,1,0,0,,10,,,69,127
103144,note_off,109,0,0,,10,,,69,127
103144,note_off,0,0,0,,0,,,48,127
103144,note_off,0,0,0,,0,,,36,127
103145,note_on,1,0,0,,12,,,71,127
103145,note_on,0,0,0,,2,,,50,127
103254,note_off,109,0,0,,12,,,71,127
103255,note_on,1,0,0,,7,,,67,127
103364,note_off,109,0,0,,7,,,67,127
103364,note_off,0,0,0,,2,,,50,127
103365,note_on,1,0,0,,2,,,62,127
103365,note_on,0,0,0,,2,,,38,127
103474,note_off,109,0,0,,2,,,62,127
103475,note_on,1,0,0,,6,,,66,127
103584,note_off,109,0,0,,6,,,66,127
103584,note_off,0,0,0,,2,,,38,127
103586,note_on,2,0,0,,7,,,43,127
103586,note_on,0,0,0,,7,,,67,127
103699,note_off,113,0,0,,7,,,67,127
103707,note_on,8,0,0,,2,,,62,127
103820,note_off,113,0,0,,2,,,62,127
103828,note_on,8,0,0,,12,,,59,127
103941,note_off,113,0,0,,12,,,59,127
103948,note_on,7,0,0,,7,,,55,127
104061,note_off,113,0,0,,7,,,55,127
104069,note_on,8,0,0,,2,,,50,127
104182,note_off,113,0,0,,2,,,50,127
104189,note_on,7,0,0,,12,,,47,127
104275,note_off,86,0,0,,7,,,43,127
104302,note_off,27,0,0,,12,,,47,127
104310,note_on,8,0,0,,7,,,43,127
104423,note_off,113,0,0,,7,,,43,127
104437,note_on,14,0,0,,2,,,38,127
104550,note_off,113,0,0,,2,,,38,127
104569,note_on,19,0,0,,7,,,31,127
106327,note_off,1758,0,0,,7,,,31,127
110592,end_of_track,4265,1,0,,,,,,
