tick,type,time,meta,track,program,channel,pitch,tempo,note,velocity
0,copyright,0,1,0,,,,,,
0,program_change,0,0,0,6,0,,,,
0,pitchwheel,0,0,0,,0,0,,,
0,program_change,0,0,0,6,1,,,,
0,pitchwheel,0,0,0,,1,-590,,,
0,program_change,0,0,0,6,2,,,,
0,pitchwheel,0,0,0,,2,-272,,,
0,program_change,0,0,0,6,3,,,,
0,pitchwheel,0,0,0,,3,-353,,,
0,program_change,0,0,0,6,4,,,,
0,pitchwheel,0,0,0,,4,-560,,,
0,program_change,0,0,0,6,5,,,,
0,pitchwheel,0,0,0,,5,-80,,,
0,program_change,0,0,0,6,6,,,,
0,pitchwheel,0,0,0,,6,-625,,,
0,program_change,0,0,0,6,7,,,,
0,pitchwheel,0,0,0,,7,-130,,,
0,program_change,0,0,0,6,8,,,,
0,pitchwheel,0,0,0,,8,-512,,,
0,program_change,0,0,0,6,10,,,,
0,pitchwheel,0,0,0,,10,-464,,,
0,program_change,0,0,0,6,11,,,,
0,pitchwheel,0,0,0,,11,-208,,,
0,program_change,0,0,0,6,12,,,,
0,pitchwheel,0,0,0,,12,-553,,,
0,set_tempo,0,1,0,,,,500000,,
144,note_on,144,0,0,,4,,,76,127
144,note_on,0,0,0,,0,,,72,127
430,note_off,286,0,0,,0,,,72,127
430,note_off,0,0,0,,4,,,76,127
432,note_on,2,0,0,,4,,,64,127
432,note_on,0,0,0,,0,,,72,127
718,note_off,286,0,0,,0,,,72,127
718,note_off,0,0,0,,4,,,64,127
720,note_on,2,0,0,,0,,,72,127
720,note_on,0,0,0,,4,,,64,127
1006,note_off,286,0,0,,4,,,64,127
1006,note_off,0,0,0,,0,,,72,127
1008,note_on,2,0,0,,0,,,72,127
1008,note_on,0,0,0,,4,,,76,127
1294,note_off,286,0,0,,4,,,76,127
1294,note_off,0,0,0,,0,,,72,127
1296,note_on,2,0,0,,0,,,72,127
1296,note_on,0,0,0,,4,,,64,127
1582,note_off,286,0,0,,4,,,64,127
1582,note_off,0,0,0,,0,,,72,127
1584,note_on,2,0,0,,4,,,64,127
1584,note_on,0,0,0,,0,,,72,127
1846,note_off,262,0,0,,0,,,72,127
1846,note_off,0,0,0,,4,,,64,127
1872,note_on,26,0,0,,7,,,79,127
1872,note_on,0,0,0,,4,,,76,127
2158,note_off,286,0,0,,4,,,76,127
2158,note_off,0,0,0,,7,,,79,127
2160,note_on,2,0,0,,0,,,72,127
2160,note_on,0,0,0,,4,,,76,127
2446,note_off,286,0,0,,4,,,76,127
2446,note_off,0,0,0,,0,,,72,127
2448,note_on,2,0,0,,4,,,76,127
2448,note_on,0,0,0,,0,,,72,127
2734,note_off,286,0,0,,0,,,72,127
2734,note_off,0,0,0,,4,,,76,127
2736,note_on,2,0,0,,4,,,76,127
2736,note_on,0,0,0,,7,,,79,127
3022,note_off,286,0,0,,7,,,79,127
3022,note_off,0,0,0,,4,,,76,127
3024,note_on,2,0,0,,4,,,76,127
3024,note_on,0,0,0,,0,,,72,127
3310,note_off,286,0,0,,0,,,72,127
3310,note_off,0,0,0,,4,,,76,127
3312,note_on,2,0,0,,4,,,76,127
3312,note_on,0,0,0,,0,,,72,127
3588,note_off,276,0,0,,0,,,72,127
3588,note_off,0,0,0,,4,,,76,127
3600,note_on,12,0,0,,10,,,81,127
3600,note_on,0,0,0,,5,,,77,127
3742,note_off,142,0,0,,5,,,77,127
3742,note_off,0,0,0,,10,,,81,127
3744,note_on,2,0,0,,2,,,74,127
3744,note_on,0,0,0,,10,,,81,127
3886,note_off,142,0,0,,10,,,81,127
3886,note_off,0,0,0,,2,,,74,127
3888,note_on,2,0,0,,4,,,76,127
3888,note_on,0,0,0,,7,,,79,127
4030,note_off,142,0,0,,7,,,79,127
4030,note_off,0,0,0,,4,,,76,127
4032,note_on,2,0,0,,0,,,72,127
4032,note_on,0,0,0,,7,,,79,127
4174,note_off,142,0,0,,7,,,79,127
4174,note_off,0,0,0,,0,,,72,127
4176,note_on,2,0,0,,5,,,77,127
4176,note_on,0,0,0,,2,,,74,127
4318,note_off,142,0,0,,2,,,74,127
4318,note_off,0,0,0,,5,,,77,127
4320,note_on,2,0,0,,7,,,67,127
4320,note_on,0,0,0,,5,,,77,127
4462,note_off,142,0,0,,5,,,77,127
4462,note_off,0,0,0,,7,,,67,127
4464,note_on,2,0,0,,7,,,67,127
4464,note_on,0,0,0,,4,,,64,127
4464,note_on,0,0,0,,0,,,72,127
4464,note_on,0,0,0,,5,,,77,127
4534,note_off,70,0,0,,5,,,77,127
4536,note_on,2,0,0,,4,,,76,127
4606,note_off,70,0,0,,4,,,76,127
4608,note_on,2,0,0,,5,,,77,127
4678,note_off,70,0,0,,5,,,77,127
4680,note_on,2,0,0,,4,,,76,127
4750,note_off,70,0,0,,4,,,64,127
4750,note_off,0,0,0,,7,,,67,127
4752,note_on,2,0,0,,0,,,60,127
4752,note_on,0,0,0,,4,,,52,127
4854,note_off,102,0,0,,0,,,72,127
4920,note_off,66,0,0,,4,,,76,127
5037,note_off,117,0,0,,4,,,52,127
5037,note_off,0,0,0,,0,,,60,127
5040,note_on,3,0,0,,4,,,52,127
5040,note_on,0,0,0,,0,,,60,127
5325,note_off,285,0,0,,0,,,60,127
5325,note_off,0,0,0,,4,,,52,127
5328,note_on,3,0,0,,0,,,60,127
5328,note_on,0,0,0,,4,,,64,127
5328,note_on,0,0,0,,0,,,72,127
5328,note_on,0,0,0,,5,,,77,127
5398,note_off,70,0,0,,5,,,77,127
5400,note_on,2,0,0,,4,,,76,127
5470,note_off,70,0,0,,4,,,76,127
5472,note_on,2,0,0,,5,,,77,127
5542,note_off,70,0,0,,5,,,77,127
5544,note_on,2,0,0,,4,,,76,127
5614,note_off,70,0,0,,4,,,64,127
5614,note_off,0,0,0,,0,,,60,127
5616,note_on,2,0,0,,4,,,52,127
5616,note_on,0,0,0,,0,,,60,127
5718,note_off,102,0,0,,0,,,72,127
5784,note_off,66,0,0,,4,,,76,127
5902,note_off,118,0,0,,0,,,60,127
5902,note_off,0,0,0,,4,,,52,127
5904,note_on,2,0,0,,4,,,52,127
5904,note_on,0,0,0,,0,,,60,127
6190,note_off,286,0,0,,0,,,60,127
6190,note_off,0,0,0,,4,,,52,127
6192,note_on,2,0,0,,4,,,64,127
6192,note_on,0,0,0,,7,,,67,127
6192,note_on,0,0,0,,4,,,76,127
6192,note_on,0,0,0,,10,,,81,127
6262,note_off,70,0,0,,10,,,81,127
6264,note_on,2,0,0,,7,,,79,127
6334,note_off,70,0,0,,7,,,79,127
6336,note_on,2,0,0,,10,,,81,127
6406,note_off,70,0,0,,10,,,81,127
6408,note_on,2,0,0,,7,,,79,127
6478,note_off,70,0,0,,7,,,67,127
6478,note_off,0,0,0,,4,,,64,127
6480,note_on,2,0,0,,0,,,60,127
6480,note_on,0,0,0,,4,,,64,127
6552,note_off,72,0,0,,4,,,76,127
6618,note_off,66,0,0,,7,,,79,127
6766,note_off,148,0,0,,4,,,64,127
6766,note_off,0,0,0,,0,,,60,127
6768,note_on,2,0,0,,4,,,64,127
6768,note_on,0,0,0,,0,,,60,127
7054,note_off,286,0,0,,0,,,60,127
7054,note_off,0,0,0,,4,,,64,127
7056,note_on,2,0,0,,7,,,67,127
7056,note_on,0,0,0,,4,,,64,127
7056,note_on,0,0,0,,4,,,76,127
7056,note_on,0,0,0,,10,,,81,127
7126,note_off,70,0,0,,10,,,81,127
7128,note_on,2,0,0,,7,,,79,127
7198,note_off,70,0,0,,7,,,79,127
7200,note_on,2,0,0,,10,,,81,127
7270,note_off,70,0,0,,10,,,81,127
7272,note_on,2,0,0,,7,,,79,127
7342,note_off,70,0,0,,4,,,64,127
7342,note_off,0,0,0,,7,,,67,127
7344,note_on,2,0,0,,0,,,60,127
7344,note_on,0,0,0,,4,,,64,127
7416,note_off,72,0,0,,4,,,76,127
7482,note_off,66,0,0,,7,,,79,127
7630,note_off,148,0,0,,4,,,64,127
7630,note_off,0,0,0,,0,,,60,127
7632,note_on,2,0,0,,0,,,60,127
7632,note_on,0,0,0,,4,,,64,127
7918,note_off,286,0,0,,4,,,64,127
7918,note_off,0,0,0,,0,,,60,127
7932,note_on,14,0,0,,5,,,65,127
7932,note_on,0,0,0,,10,,,69,127
7932,note_on,0,0,0,,0,,,72,127
8074,note_off,142,0,0,,10,,,69,127
8074,note_off,0,0,0,,5,,,65,127
8076,note_on,2,0,0,,2,,,62,127
8076,note_on,0,0,0,,10,,,69,127
8218,note_off,142,0,0,,10,,,69,127
8218,note_off,0,0,0,,2,,,62,127
8218,note_off,0,0,0,,0,,,72,127
8220,note_on,2,0,0,,4,,,64,127
8220,note_on,0,0,0,,7,,,67,127
8220,note_on,0,0,0,,0,,,84,127
8362,note_off,142,0,0,,7,,,67,127
8362,note_off,0,0,0,,4,,,64,127
8364,note_on,2,0,0,,0,,,60,127
8364,note_on,0,0,0,,7,,,67,127
8506,note_off,142,0,0,,7,,,67,127
8506,note_off,0,0,0,,0,,,60,127
8506,note_off,0,0,0,,0,,,84,127
8508,note_on,2,0,0,,5,,,65,127
8508,note_on,0,0,0,,2,,,62,127
8508,note_on,0,0,0,,0,,,84,127
8578,note_off,70,0,0,,0,,,84,127
8580,note_on,2,0,0,,12,,,83,127
8650,note_off,70,0,0,,12,,,83,127
8650,note_off,0,0,0,,2,,,62,127
8650,note_off,0,0,0,,5,,,65,127
8652,note_on,2,0,0,,7,,,55,127
8652,note_on,0,0,0,,5,,,65,127
8652,note_on,0,0,0,,10,,,81,127
8722,note_off,70,0,0,,10,,,81,127
8724,note_on,2,0,0,,12,,,83,127
8794,note_off,70,0,0,,12,,,83,127
8794,note_off,0,0,0,,5,,,65,127
8794,note_off,0,0,0,,7,,,55,127
8796,note_on,2,0,0,,0,,,60,127
8796,note_on,0,0,0,,4,,,64,127
8796,note_on,0,0,0,,0,,,84,127
8938,note_off,142,0,0,,0,,,84,127
8940,note_on,2,0,0,,7,,,79,127
9082,note_off,142,0,0,,7,,,79,127
9082,note_off,0,0,0,,4,,,64,127
9082,note_off,0,0,0,,0,,,60,127
9084,note_on,2,0,0,,0,,,72,127
9084,note_on,0,0,0,,4,,,76,127
9226,note_off,142,0,0,,4,,,76,127
9228,note_on,2,0,0,,7,,,79,127
9370,note_off,142,0,0,,7,,,79,127
9370,note_off,0,0,0,,0,,,72,127
9372,note_on,2,0,0,,12,,,71,127
9372,note_on,0,0,0,,7,,,79,127
9514,note_off,142,0,0,,7,,,79,127
9516,note_on,2,0,0,,5,,,77,127
9658,note_off,142,0,0,,5,,,77,127
9658,note_off,0,0,0,,12,,,71,127
9660,note_on,2,0,0,,0,,,72,127
9660,note_on,0,0,0,,4,,,76,127
9802,note_off,142,0,0,,0,,,72,127
9804,note_on,2,0,0,,7,,,67,127
9946,note_off,142,0,0,,7,,,67,127
9946,note_off,0,0,0,,4,,,76,127
9948,note_on,2,0,0,,4,,,64,127
9948,note_on,0,0,0,,4,,,76,127
10090,note_off,142,0,0,,4,,,64,127
10092,note_on,2,0,0,,7,,,67,127
10234,note_off,142,0,0,,7,,,67,127
10234,note_off,0,0,0,,4,,,76,127
10236,note_on,2,0,0,,5,,,65,127
10236,note_on,0,0,0,,4,,,76,127
10306,note_off,70,0,0,,4,,,76,127
10308,note_on,2,0,0,,2,,,74,127
10378,note_off,70,0,0,,2,,,74,127
10380,note_on,2,0,0,,4,,,76,127
10450,note_off,70,0,0,,4,,,76,127
10452,note_on,2,0,0,,2,,,74,127
10522,note_off,70,0,0,,2,,,74,127
10522,note_off,0,0,0,,5,,,65,127
10536,note_on,14,0,0,,4,,,64,127
10536,note_on,0,0,0,,0,,,72,127
10678,note_off,142,0,0,,0,,,72,127
10680,note_on,2,0,0,,0,,,84,127
10822,note_off,142,0,0,,0,,,84,127
10824,note_on,2,0,0,,11,,,82,127
10966,note_off,142,0,0,,11,,,82,127
10968,note_on,2,0,0,,7,,,79,127
11106,note_off,138,0,0,,4,,,64,127
11110,note_off,4,0,0,,7,,,79,127
11112,note_on,2,0,0,,4,,,76,127
11254,note_off,142,0,0,,4,,,76,127
11256,note_on,2,0,0,,0,,,72,127
11398,note_off,142,0,0,,0,,,72,127
11400,note_on,2,0,0,,11,,,70,127
11544,note_on,144,0,0,,7,,,67,127
11686,note_off,142,0,0,,7,,,67,127
11688,note_on,2,0,0,,4,,,64,127
11830,note_off,142,0,0,,4,,,64,127
11832,note_on,2,0,0,,0,,,60,127
11974,note_off,142,0,0,,0,,,60,127
11976,note_on,2,0,0,,11,,,58,127
12118,note_off,142,0,0,,11,,,58,127
12120,note_on,2,0,0,,7,,,55,127
12262,note_off,142,0,0,,7,,,55,127
12264,note_on,2,0,0,,0,,,36,127
12406,note_off,142,0,0,,11,,,70,127
12408,note_on,2,0,0,,11,,,82,127
12550,note_off,142,0,0,,11,,,82,127
12552,note_on,2,0,0,,7,,,79,127
12694,note_off,142,0,0,,7,,,79,127
12696,note_on,2,0,0,,4,,,76,127
12838,note_off,142,0,0,,4,,,76,127
12840,note_on,2,0,0,,0,,,72,127
12982,note_off,142,0,0,,0,,,72,127
12984,note_on,2,0,0,,11,,,82,127
13126,note_off,142,0,0,,11,,,82,127
13126,note_off,0,0,0,,0,,,36,127
13128,note_on,2,0,0,,5,,,41,127
13128,note_on,0,0,0,,10,,,81,127
13284,note_on,156,0,0,,2,,,86,127
13288,note_off,4,0,0,,10,,,81,127
13426,note_off,138,0,0,,2,,,86,127
13428,note_on,2,0,0,,0,,,84,127
13570,note_off,142,0,0,,0,,,84,127
13572,note_on,2,0,0,,10,,,81,127
13698,note_off,126,0,0,,5,,,41,127
13714,note_off,16,0,0,,10,,,81,127
13716,note_on,2,0,0,,6,,,78,127
13858,note_off,142,0,0,,6,,,78,127
13860,note_on,2,0,0,,2,,,74,127
14002,note_off,142,0,0,,2,,,74,127
14004,note_on,2,0,0,,0,,,72,127
14148,note_on,144,0,0,,10,,,69,127
14290,note_off,142,0,0,,10,,,69,127
14292,note_on,2,0,0,,6,,,66,127
14434,note_off,142,0,0,,6,,,66,127
14436,note_on,2,0,0,,2,,,62,127
14578,note_off,142,0,0,,2,,,62,127
14580,note_on,2,0,0,,0,,,60,127
14722,note_off,142,0,0,,0,,,60,127
14724,note_on,2,0,0,,10,,,57,127
14866,note_off,142,0,0,,10,,,57,127
14868,note_on,2,0,0,,2,,,38,127
15010,note_off,142,0,0,,0,,,72,127
15012,note_on,2,0,0,,0,,,84,127
15154,note_off,142,0,0,,0,,,84,127
15156,note_on,2,0,0,,10,,,81,127
15298,note_off,142,0,0,,10,,,81,127
15300,note_on,2,0,0,,6,,,78,127
15442,note_off,142,0,0,,6,,,78,127
15444,note_on,2,0,0,,2,,,74,127
15586,note_off,142,0,0,,2,,,74,127
15588,note_on,2,0,0,,0,,,84,127
15730,note_off,142,0,0,,0,,,84,127
15730,note_off,0,0,0,,2,,,38,127
15732,note_on,2,0,0,,7,,,43,127
15732,note_on,0,0,0,,12,,,83,127
15874,note_off,142,0,0,,12,,,83,127
15876,note_on,2,0,0,,10,,,81,127
16018,note_off,142,0,0,,10,,,81,127
16020,note_on,2,0,0,,7,,,79,127
16162,note_off,142,0,0,,7,,,79,127
16164,note_on,2,0,0,,6,,,78,127
16306,note_off,142,0,0,,6,,,78,127
16308,note_on,2,0,0,,4,,,76,127
16450,note_off,142,0,0,,4,,,76,127
16452,note_on,2,0,0,,2,,,74,127
16527,note_off,75,0,0,,7,,,43,127
16595,note_off,68,0,0,,2,,,74,127
16597,note_on,2,0,0,,0,,,36,127
16597,note_on,0,0,0,,0,,,48,127
16597,note_on,0,0,0,,3,,,75,127
16739,note_off,142,0,0,,3,,,75,127
16741,note_on,2,0,0,,4,,,76,127
16883,note_off,142,0,0,,4,,,76,127
16885,note_on,2,0,0,,2,,,74,127
16885,note_on,0,0,0,,4,,,76,127
16979,note_off,94,0,0,,4,,,76,127
16979,note_off,0,0,0,,2,,,74,127
16981,note_on,2,0,0,,0,,,72,127
17075,note_off,94,0,0,,0,,,72,127
17077,note_on,2,0,0,,12,,,71,127
17171,note_off,94,0,0,,12,,,71,127
17173,note_on,2,0,0,,10,,,69,127
17315,note_off,142,0,0,,10,,,69,127
17317,note_on,2,0,0,,7,,,67,127
17459,note_off,142,0,0,,7,,,67,127
17459,note_off,0,0,0,,0,,,48,127
17459,note_off,0,0,0,,0,,,36,127
17461,note_on,2,0,0,,2,,,50,127
17461,note_on,0,0,0,,7,,,67,127
17531,note_off,70,0,0,,7,,,67,127
17533,note_on,2,0,0,,6,,,66,127
17603,note_off,70,0,0,,6,,,66,127
17605,note_on,2,0,0,,7,,,67,127
17675,note_off,70,0,0,,7,,,67,127
17677,note_on,2,0,0,,6,,,66,127
17747,note_off,70,0,0,,6,,,66,127
17749,note_on,2,0,0,,2,,,38,127
17749,note_on,0,0,0,,7,,,67,127
17819,note_off,70,0,0,,7,,,67,127
17821,note_on,2,0,0,,6,,,66,127
17891,note_off,70,0,0,,6,,,66,127
17893,note_on,2,0,0,,4,,,64,127
18035,note_off,142,0,0,,4,,,64,127
18051,note_on,16,0,0,,2,,,62,127
18288,note_off,237,0,0,,2,,,38,127
18360,note_off,72,0,0,,2,,,50,127
18636,note_off,276,0,0,,2,,,62,127
19188,note_on,552,0,0,,2,,,74,127
19188,note_on,0,0,0,,2,,,86,127
19188,note_on,0,0,0,,7,,,67,127
19188,note_on,0,0,0,,11,,,70,127
19258,note_off,70,0,0,,2,,,86,127
19260,note_on,2,0,0,,0,,,84,127
19330,note_off,70,0,0,,0,,,84,127
19332,note_on,2,0,0,,11,,,82,127
19474,note_off,142,0,0,,11,,,70,127
19474,note_off,0,0,0,,7,,,67,127
19476,note_on,2,0,0,,7,,,67,127
19476,note_on,0,0,0,,11,,,70,127
19618,note_off,142,0,0,,11,,,82,127
19620,note_on,2,0,0,,10,,,81,127
19762,note_off,142,0,0,,11,,,70,127
19762,note_off,0,0,0,,7,,,67,127
19764,note_on,2,0,0,,7,,,67,127
19764,note_on,0,0,0,,11,,,70,127
19906,note_off,142,0,0,,10,,,81,127
19908,note_on,2,0,0,,7,,,79,127
20050,note_off,142,0,0,,7,,,79,127
20050,note_off,0,0,0,,11,,,70,127
20050,note_off,0,0,0,,7,,,67,127
20050,note_off,0,0,0,,2,,,74,127
20052,note_on,2,0,0,,3,,,75,127
20052,note_on,0,0,0,,6,,,78,127
20052,note_on,0,0,0,,10,,,69,127
20052,note_on,0,0,0,,0,,,72,127
20052,note_on,0,0,0,,7,,,67,127
20146,note_off,94,0,0,,6,,,78,127
20148,note_on,2,0,0,,7,,,79,127
20242,note_off,94,0,0,,7,,,79,127
20244,note_on,2,0,0,,10,,,81,127
20338,note_off,94,0,0,,10,,,81,127
20338,note_off,0,0,0,,7,,,67,127
20338,note_off,0,0,0,,0,,,72,127
20338,note_off,0,0,0,,10,,,69,127
20340,note_on,2,0,0,,7,,,79,127
20340,note_on,0,0,0,,0,,,72,127
20340,note_on,0,0,0,,7,,,67,127
20340,note_on,0,0,0,,10,,,69,127
20626,note_off,286,0,0,,10,,,69,127
20626,note_off,0,0,0,,7,,,67,127
20626,note_off,0,0,0,,0,,,72,127
20626,note_off,0,0,0,,7,,,79,127
20628,note_on,2,0,0,,6,,,78,127
20628,note_on,0,0,0,,0,,,72,127
20628,note_on,0,0,0,,10,,,69,127
20628,note_on,0,0,0,,7,,,67,127
20914,note_off,286,0,0,,7,,,67,127
20914,note_off,0,0,0,,10,,,69,127
20914,note_off,0,0,0,,0,,,72,127
20914,note_off,0,0,0,,6,,,78,127
20914,note_off,0,0,0,,3,,,75,127
20930,note_on,16,0,0,,11,,,70,127
20930,note_on,0,0,0,,7,,,67,127
20930,note_on,0,0,0,,2,,,74,127
20930,note_on,0,0,0,,2,,,86,127
21000,note_off,70,0,0,,2,,,86,127
21002,note_on,2,0,0,,0,,,84,127
21072,note_off,70,0,0,,0,,,84,127
21074,note_on,2,0,0,,11,,,82,127
21216,note_off,142,0,0,,7,,,67,127
21216,note_off,0,0,0,,11,,,70,127
21218,note_on,2,0,0,,7,,,67,127
21218,note_on,0,0,0,,11,,,70,127
21360,note_off,142,0,0,,11,,,82,127
21362,note_on,2,0,0,,10,,,81,127
21504,note_off,142,0,0,,11,,,70,127
21504,note_off,0,0,0,,7,,,67,127
21506,note_on,2,0,0,,11,,,70,127
21506,note_on,0,0,0,,7,,,67,127
21648,note_off,142,0,0,,10,,,81,127
21650,note_on,2,0,0,,7,,,79,127
21792,note_off,142,0,0,,7,,,79,127
21792,note_off,0,0,0,,7,,,67,127
21792,note_off,0,0,0,,11,,,70,127
21792,note_off,0,0,0,,2,,,74,127
21794,note_on,2,0,0,,7,,,67,127
21794,note_on,0,0,0,,10,,,69,127
21794,note_on,0,0,0,,0,,,72,127
21794,note_on,0,0,0,,6,,,78,127
21794,note_on,0,0,0,,3,,,75,127
21888,note_off,94,0,0,,6,,,78,127
21890,note_on,2,0,0,,7,,,79,127
21984,note_off,94,0,0,,7,,,79,127
21986,note_on,2,0,0,,10,,,81,127
22080,note_off,94,0,0,,10,,,81,127
22080,note_off,0,0,0,,0,,,72,127
22080,note_off,0,0,0,,10,,,69,127
22080,note_off,0,0,0,,7,,,67,127
22082,note_on,2,0,0,,0,,,72,127
22082,note_on,0,0,0,,10,,,69,127
22082,note_on,0,0,0,,7,,,67,127
22082,note_on,0,0,0,,7,,,79,127
22368,note_off,286,0,0,,7,,,79,127
22368,note_off,0,0,0,,7,,,67,127
22368,note_off,0,0,0,,10,,,69,127
22368,note_off,0,0,0,,0,,,72,127
22370,note_on,2,0,0,,10,,,69,127
22370,note_on,0,0,0,,0,,,72,127
22370,note_on,0,0,0,,7,,,67,127
22370,note_on,0,0,0,,6,,,78,127
22589,note_off,219,0,0,,3,,,75,127
22592,note_off,3,0,0,,6,,,78,127
22625,note_off,33,0,0,,10,,,69,127
22655,note_off,30,0,0,,0,,,72,127
22657,note_off,2,0,0,,7,,,67,127
22683,note_on,26,0,0,,0,,,84,127
22683,note_on,0,0,0,,0,,,72,127
22683,note_on,0,0,0,,8,,,68,127
22683,note_on,0,0,0,,5,,,65,127
22753,note_off,70,0,0,,0,,,84,127
22755,note_on,2,0,0,,11,,,82,127
22825,note_off,70,0,0,,11,,,82,127
22827,note_on,2,0,0,,8,,,80,127
22969,note_off,142,0,0,,5,,,65,127
22969,note_off,0,0,0,,8,,,68,127
22971,note_on,2,0,0,,8,,,68,127
22971,note_on,0,0,0,,5,,,65,127
23113,note_off,142,0,0,,8,,,80,127
23115,note_on,2,0,0,,7,,,79,127
23257,note_off,142,0,0,,5,,,65,127
23257,note_off,0,0,0,,8,,,68,127
23259,note_on,2,0,0,,5,,,65,127
23259,note_on,0,0,0,,8,,,68,127
23401,note_off,142,0,0,,7,,,79,127
23403,note_on,2,0,0,,5,,,77,127
23545,note_off,142,0,0,,5,,,77,127
23545,note_off,0,0,0,,8,,,68,127
23545,note_off,0,0,0,,5,,,65,127
23545,note_off,0,0,0,,0,,,72,127
23547,note_on,2,0,0,,4,,,76,127
23547,note_on,0,0,0,,1,,,73,127
23547,note_on,0,0,0,,11,,,70,127
23547,note_on,0,0,0,,5,,,65,127
23547,note_on,0,0,0,,7,,,67,127
23641,note_off,94,0,0,,4,,,76,127
23643,note_on,2,0,0,,5,,,77,127
23737,note_off,94,0,0,,5,,,77,127
23739,note_on,2,0,0,,7,,,79,127
23833,note_off,94,0,0,,7,,,79,127
23833,note_off,0,0,0,,7,,,67,127
23833,note_off,0,0,0,,5,,,65,127
23833,note_off,0,0,0,,11,,,70,127
23835,note_on,2,0,0,,5,,,77,127
23835,note_on,0,0,0,,5,,,65,127
23835,note_on,0,0,0,,7,,,67,127
23835,note_on,0,0,0,,11,,,70,127
24121,note_off,286,0,0,,11,,,70,127
24121,note_off,0,0,0,,7,,,67,127
24121,note_off,0,0,0,,5,,,65,127
24121,note_off,0,0,0,,5,,,77,127
24123,note_on,2,0,0,,4,,,76,127
24123,note_on,0,0,0,,5,,,65,127
24123,note_on,0,0,0,,7,,,67,127
24123,note_on,0,0,0,,11,,,70,127
24409,note_off,286,0,0,,11,,,70,127
24409,note_off,0,0,0,,7,,,67,127
24409,note_off,0,0,0,,5,,,65,127
24409,note_off,0,0,0,,4,,,76,127
24409,note_off,0,0,0,,1,,,73,127
24423,note_on,14,0,0,,0,,,72,127
24423,note_on,0,0,0,,0,,,84,127
24423,note_on,0,0,0,,8,,,68,127
24423,note_on,0,0,0,,5,,,65,127
24493,note_off,70,0,0,,0,,,84,127
24495,note_on,2,0,0,,11,,,82,127
24565,note_off,70,0,0,,11,,,82,127
24567,note_on,2,0,0,,8,,,80,127
24709,note_off,142,0,0,,5,,,65,127
24709,note_off,0,0,0,,8,,,68,127
24711,note_on,2,0,0,,5,,,65,127
24711,note_on,0,0,0,,8,,,68,127
24853,note_off,142,0,0,,8,,,80,127
24855,note_on,2,0,0,,7,,,79,127
24997,note_off,142,0,0,,8,,,68,127
24997,note_off,0,0,0,,5,,,65,127
24999,note_on,2,0,0,,5,,,65,127
24999,note_on,0,0,0,,8,,,68,127
25141,note_off,142,0,0,,7,,,79,127
25143,note_on,2,0,0,,5,,,77,127
25285,note_off,142,0,0,,5,,,77,127
25285,note_off,0,0,0,,8,,,68,127
25285,note_off,0,0,0,,5,,,65,127
25285,note_off,0,0,0,,0,,,72,127
25287,note_on,2,0,0,,1,,,73,127
25287,note_on,0,0,0,,4,,,76,127
25287,note_on,0,0,0,,5,,,65,127
25287,note_on,0,0,0,,11,,,70,127
25287,note_on,0,0,0,,7,,,67,127
25381,note_off,94,0,0,,4,,,76,127
25383,note_on,2,0,0,,5,,,77,127
25477,note_off,94,0,0,,5,,,77,127
25479,note_on,2,0,0,,7,,,79,127
25573,note_off,94,0,0,,7,,,79,127
25573,note_off,0,0,0,,7,,,67,127
25573,note_off,0,0,0,,11,,,70,127
25573,note_off,0,0,0,,5,,,65,127
25575,note_on,2,0,0,,5,,,77,127
25575,note_on,0,0,0,,7,,,67,127
25575,note_on,0,0,0,,5,,,65,127
25575,note_on,0,0,0,,11,,,70,127
25861,note_off,286,0,0,,11,,,70,127
25861,note_off,0,0,0,,5,,,65,127
25861,note_off,0,0,0,,7,,,67,127
25861,note_off,0,0,0,,5,,,77,127
25863,note_on,2,0,0,,4,,,76,127
25863,note_on,0,0,0,,5,,,65,127
25863,note_on,0,0,0,,7,,,67,127
25863,note_on,0,0,0,,11,,,70,127
26082,note_off,219,0,0,,1,,,73,127
26150,note_off,68,0,0,,11,,,70,127
26150,note_off,0,0,0,,7,,,67,127
26150,note_off,0,0,0,,5,,,65,127
26176,note_on,26,0,0,,5,,,65,127
26176,note_on,0,0,0,,0,,,72,127
26176,note_on,0,0,0,,8,,,68,127
26176,note_on,0,0,0,,11,,,82,127
26176,note_on,0,0,0,,8,,,80,127
26180,note_off,4,0,0,,4,,,76,127
26222,note_off,42,0,0,,8,,,80,127
26222,note_off,0,0,0,,11,,,82,127
26224,note_on,2,0,0,,7,,,79,127
26462,note_off,238,0,0,,7,,,79,127
26462,note_off,0,0,0,,8,,,68,127
26462,note_off,0,0,0,,0,,,72,127
26462,note_off,0,0,0,,5,,,65,127
26464,note_on,2,0,0,,0,,,72,127
26464,note_on,0,0,0,,8,,,68,127
26464,note_on,0,0,0,,5,,,65,127
26464,note_on,0,0,0,,8,,,80,127
26464,note_on,0,0,0,,11,,,82,127
26510,note_off,46,0,0,,11,,,82,127
26510,note_off,0,0,0,,8,,,80,127
26512,note_on,2,0,0,,7,,,79,127
26750,note_off,238,0,0,,7,,,79,127
26750,note_off,0,0,0,,5,,,65,127
26750,note_off,0,0,0,,8,,,68,127
26750,note_off,0,0,0,,0,,,72,127
26752,note_on,2,0,0,,8,,,68,127
26752,note_on,0,0,0,,0,,,72,127
26752,note_on,0,0,0,,5,,,65,127
26752,note_on,0,0,0,,8,,,80,127
26752,note_on,0,0,0,,11,,,82,127
26798,note_off,46,0,0,,11,,,82,127
26798,note_off,0,0,0,,8,,,80,127
26800,note_on,2,0,0,,7,,,79,127
27038,note_off,238,0,0,,7,,,79,127
27038,note_off,0,0,0,,5,,,65,127
27038,note_off,0,0,0,,0,,,72,127
27038,note_off,0,0,0,,8,,,68,127
27040,note_on,2,0,0,,3,,,63,127
27040,note_on,0,0,0,,7,,,67,127
27040,note_on,0,0,0,,0,,,72,127
27040,note_on,0,0,0,,11,,,82,127
27040,note_on,0,0,0,,8,,,80,127
27086,note_off,46,0,0,,8,,,80,127
27086,note_off,0,0,0,,11,,,82,127
27088,note_on,2,0,0,,7,,,79,127
27326,note_off,238,0,0,,7,,,79,127
27326,note_off,0,0,0,,0,,,72,127
27326,note_off,0,0,0,,7,,,67,127
27326,note_off,0,0,0,,3,,,63,127
27328,note_on,2,0,0,,3,,,63,127
27328,note_on,0,0,0,,0,,,72,127
27328,note_on,0,0,0,,7,,,67,127
27328,note_on,0,0,0,,11,,,82,127
27328,note_on,0,0,0,,8,,,80,127
27374,note_off,46,0,0,,8,,,80,127
27374,note_off,0,0,0,,11,,,82,127
27376,note_on,2,0,0,,7,,,79,127
27614,note_off,238,0,0,,7,,,79,127
27614,note_off,0,0,0,,7,,,67,127
27614,note_off,0,0,0,,0,,,72,127
27614,note_off,0,0,0,,3,,,63,127
27616,note_on,2,0,0,,3,,,63,127
27616,note_on,0,0,0,,0,,,72,127
27616,note_on,0,0,0,,7,,,67,127
27616,note_on,0,0,0,,11,,,82,127
27616,note_on,0,0,0,,8,,,80,127
27662,note_off,46,0,0,,8,,,80,127
27662,note_off,0,0,0,,11,,,82,127
27664,note_on,2,0,0,,7,,,79,127
27902,note_off,238,0,0,,7,,,79,127
27902,note_off,0,0,0,,7,,,67,127
27902,note_off,0,0,0,,0,,,72,127
27902,note_off,0,0,0,,3,,,63,127
27904,note_on,2,0,0,,2,,,62,127
27904,note_on,0,0,0,,10,,,69,127
27904,note_on,0,0,0,,6,,,66,127
27904,note_on,0,0,0,,10,,,81,127
27904,note_on,0,0,0,,11,,,82,127
27950,note_off,46,0,0,,11,,,82,127
27950,note_off,0,0,0,,10,,,81,127
27952,note_on,2,0,0,,7,,,79,127
28190,note_off,238,0,0,,7,,,79,127
28190,note_off,0,0,0,,6,,,66,127
28190,note_off,0,0,0,,10,,,69,127
28190,note_off,0,0,0,,2,,,62,127
28192,note_on,2,0,0,,2,,,62,127
28192,note_on,0,0,0,,10,,,69,127
28192,note_on,0,0,0,,6,,,66,127
28192,note_on,0,0,0,,11,,,82,127
28192,note_on,0,0,0,,10,,,81,127
28238,note_off,46,0,0,,10,,,81,127
28238,note_off,0,0,0,,11,,,82,127
28240,note_on,2,0,0,,7,,,79,127
28478,note_off,238,0,0,,7,,,79,127
28478,note_off,0,0,0,,6,,,66,127
28478,note_off,0,0,0,,10,,,69,127
28478,note_off,0,0,0,,2,,,62,127
28480,note_on,2,0,0,,10,,,69,127
28480,note_on,0,0,0,,6,,,66,127
28480,note_on,0,0,0,,2,,,62,127
28480,note_on,0,0,0,,10,,,81,127
28480,note_on,0,0,0,,11,,,82,127
28526,note_off,46,0,0,,11,,,82,127
28526,note_off,0,0,0,,10,,,81,127
28528,note_on,2,0,0,,7,,,79,127
28766,note_off,238,0,0,,7,,,79,127
28766,note_off,0,0,0,,2,,,62,127
28766,note_off,0,0,0,,6,,,66,127
28766,note_off,0,0,0,,10,,,69,127
28768,note_on,2,0,0,,6,,,66,127
28768,note_on,0,0,0,,2,,,62,127
28768,note_on,0,0,0,,10,,,69,127
28768,note_on,0,0,0,,0,,,60,127
28768,note_on,0,0,0,,10,,,81,127
28768,note_on,0,0,0,,12,,,83,127
28814,note_off,46,0,0,,12,,,83,127
28814,note_off,0,0,0,,10,,,81,127
28816,note_on,2,0,0,,7,,,79,127
29054,note_off,238,0,0,,7,,,79,127
29054,note_off,0,0,0,,0,,,60,127
29054,note_off,0,0,0,,10,,,69,127
29054,note_off,0,0,0,,2,,,62,127
29054,note_off,0,0,0,,6,,,66,127
29060,note_on,6,0,0,,12,,,83,127
29060,note_on,0,0,0,,10,,,81,127
29060,note_on,0,0,0,,0,,,60,127
29060,note_on,0,0,0,,10,,,69,127
29060,note_on,0,0,0,,2,,,62,127
29060,note_on,0,0,0,,6,,,66,127
29106,note_off,46,0,0,,10,,,81,127
29106,note_off,0,0,0,,12,,,83,127
29108,note_on,2,0,0,,7,,,79,127
29346,note_off,238,0,0,,7,,,79,127
29346,note_off,0,0,0,,6,,,66,127
29346,note_off,0,0,0,,2,,,62,127
29346,note_off,0,0,0,,10,,,69,127
29346,note_off,0,0,0,,0,,,60,127
29352,note_on,6,0,0,,6,,,66,127
29352,note_on,0,0,0,,10,,,69,127
29352,note_on,0,0,0,,2,,,62,127
29352,note_on,0,0,0,,0,,,60,127
29352,note_on,0,0,0,,12,,,83,127
29352,note_on,0,0,0,,10,,,81,127
29398,note_off,46,0,0,,10,,,81,127
29398,note_off,0,0,0,,12,,,83,127
29400,note_on,2,0,0,,7,,,79,127
29638,note_off,238,0,0,,7,,,79,127
29638,note_off,0,0,0,,0,,,60,127
29638,note_off,0,0,0,,2,,,62,127
29638,note_off,0,0,0,,10,,,69,127
29638,note_off,0,0,0,,6,,,66,127
29664,note_on,26,0,0,,12,,,59,127
29664,note_on,0,0,0,,12,,,83,127
29806,note_off,142,0,0,,12,,,59,127
29808,note_on,2,0,0,,12,,,71,127
29950,note_off,142,0,0,,12,,,71,127
29950,note_off,0,0,0,,12,,,83,127
29952,note_on,2,0,0,,10,,,57,127
29952,note_on,0,0,0,,0,,,84,127
30094,note_off,142,0,0,,10,,,57,127
30096,note_on,2,0,0,,6,,,66,127
30238,note_off,142,0,0,,6,,,66,127
30238,note_off,0,0,0,,0,,,84,127
30240,note_on,2,0,0,,7,,,55,127
30240,note_on,0,0,0,,2,,,86,127
30382,note_off,142,0,0,,2,,,86,127
30382,note_off,0,0,0,,7,,,55,127
30384,note_on,2,0,0,,7,,,67,127
30384,note_on,0,0,0,,2,,,74,127
30526,note_off,142,0,0,,2,,,74,127
30526,note_off,0,0,0,,7,,,67,127
30528,note_on,2,0,0,,0,,,48,127
30528,note_on,0,0,0,,0,,,60,127
30528,note_on,0,0,0,,4,,,76,127
30672,note_on,144,0,0,,2,,,86,127
30813,note_off,141,0,0,,4,,,76,127
30815,note_off,2,0,0,,2,,,86,127
30817,note_on,2,0,0,,0,,,84,127
30817,note_on,0,0,0,,4,,,76,127
30959,note_off,142,0,0,,4,,,76,127
30959,note_off,0,0,0,,0,,,84,127
30961,note_on,2,0,0,,12,,,83,127
30961,note_on,0,0,0,,2,,,74,127
31103,note_off,142,0,0,,2,,,74,127
31103,note_off,0,0,0,,12,,,83,127
31105,note_on,2,0,0,,10,,,81,127
31105,note_on,0,0,0,,0,,,72,127
31247,note_off,142,0,0,,0,,,72,127
31247,note_off,0,0,0,,10,,,81,127
31249,note_on,2,0,0,,7,,,79,127
31249,note_on,0,0,0,,12,,,71,127
31391,note_off,142,0,0,,12,,,71,127
31391,note_off,0,0,0,,7,,,79,127
31391,note_off,0,0,0,,0,,,60,127
31391,note_off,0,0,0,,0,,,48,127
31393,note_on,2,0,0,,2,,,38,127
31393,note_on,0,0,0,,2,,,50,127
31393,note_on,0,0,0,,10,,,69,127
31393,note_on,0,0,0,,6,,,78,127
31535,note_off,142,0,0,,6,,,78,127
31535,note_off,0,0,0,,10,,,69,127
31537,note_on,2,0,0,,4,,,76,127
31537,note_on,0,0,0,,7,,,67,127
31679,note_off,142,0,0,,7,,,67,127
31679,note_off,0,0,0,,4,,,76,127
31681,note_on,2,0,0,,2,,,74,127
31681,note_on,0,0,0,,6,,,66,127
31823,note_off,142,0,0,,6,,,66,127
31823,note_off,0,0,0,,2,,,74,127
31825,note_on,2,0,0,,0,,,72,127
31825,note_on,0,0,0,,4,,,64,127
31967,note_off,142,0,0,,4,,,64,127
31967,note_off,0,0,0,,0,,,72,127
31969,note_on,2,0,0,,12,,,71,127
31969,note_on,0,0,0,,2,,,62,127
32111,note_off,142,0,0,,2,,,62,127
32111,note_off,0,0,0,,12,,,71,127
32113,note_on,2,0,0,,0,,,60,127
32113,note_on,0,0,0,,10,,,69,127
32255,note_off,142,0,0,,10,,,69,127
32255,note_off,0,0,0,,0,,,60,127
32255,note_off,0,0,0,,2,,,50,127
32255,note_off,0,0,0,,2,,,38,127
32257,note_on,2,0,0,,4,,,40,127
32257,note_on,0,0,0,,4,,,52,127
32257,note_on,0,0,0,,7,,,67,127
32257,note_on,0,0,0,,12,,,59,127
32399,note_off,142,0,0,,12,,,59,127
32399,note_off,0,0,0,,7,,,67,127
32401,note_on,2,0,0,,10,,,69,127
32401,note_on,0,0,0,,0,,,60,127
32543,note_off,142,0,0,,0,,,60,127
32543,note_off,0,0,0,,10,,,69,127
32545,note_on,2,0,0,,2,,,62,127
32545,note_on,0,0,0,,12,,,71,127
32687,note_off,142,0,0,,12,,,71,127
32687,note_off,0,0,0,,2,,,62,127
32689,note_on,2,0,0,,0,,,72,127
32689,note_on,0,0,0,,4,,,64,127
32831,note_off,142,0,0,,4,,,64,127
32831,note_off,0,0,0,,0,,,72,127
32833,note_on,2,0,0,,6,,,66,127
32833,note_on,0,0,0,,2,,,74,127
32975,note_off,142,0,0,,2,,,74,127
32975,note_off,0,0,0,,6,,,66,127
32977,note_on,2,0,0,,7,,,67,127
32977,note_on,0,0,0,,4,,,76,127
33119,note_off,142,0,0,,4,,,76,127
33119,note_off,0,0,0,,7,,,67,127
33119,note_off,0,0,0,,4,,,52,127
33119,note_off,0,0,0,,4,,,40,127
33121,note_on,2,0,0,,2,,,38,127
33121,note_on,0,0,0,,2,,,50,127
33121,note_on,0,0,0,,10,,,69,127
33121,note_on,0,0,0,,6,,,78,127
33263,note_off,142,0,0,,6,,,78,127
33263,note_off,0,0,0,,10,,,69,127
33265,note_on,2,0,0,,2,,,74,127
33407,note_off,142,0,0,,2,,,74,127
33407,note_off,0,0,0,,2,,,50,127
33407,note_off,0,0,0,,2,,,38,127
33409,note_on,2,0,0,,0,,,48,127
33409,note_on,0,0,0,,4,,,76,127
33551,note_off,142,0,0,,4,,,76,127
33553,note_on,2,0,0,,6,,,78,127
33695,note_off,142,0,0,,6,,,78,127
33695,note_off,0,0,0,,0,,,48,127
33697,note_on,2,0,0,,12,,,47,127
33697,note_on,0,0,0,,7,,,79,127
33839,note_off,142,0,0,,7,,,79,127
33841,note_on,2,0,0,,2,,,74,127
33983,note_off,142,0,0,,2,,,74,127
33983,note_off,0,0,0,,12,,,47,127
33985,note_on,2,0,0,,0,,,48,127
33985,note_on,0,0,0,,4,,,76,127
34127,note_off,142,0,0,,4,,,76,127
34129,note_on,2,0,0,,0,,,72,127
34271,note_off,142,0,0,,0,,,72,127
34271,note_off,0,0,0,,0,,,48,127
34273,note_on,2,0,0,,2,,,50,127
34273,note_on,0,0,0,,12,,,71,127
34415,note_off,142,0,0,,12,,,71,127
34417,note_on,2,0,0,,10,,,69,127
34559,note_off,142,0,0,,10,,,69,127
34559,note_off,0,0,0,,2,,,50,127
34561,note_on,2,0,0,,2,,,38,127
34561,note_on,0,0,0,,7,,,67,127
34703,note_off,142,0,0,,7,,,67,127
34705,note_on,2,0,0,,6,,,66,127
34847,note_off,142,0,0,,6,,,66,127
34847,note_off,0,0,0,,2,,,38,127
34861,note_on,14,0,0,,12,,,47,127
34861,note_on,0,0,0,,7,,,43,127
34861,note_on,0,0,0,,10,,,69,127
34861,note_on,0,0,0,,7,,,67,127
34931,note_off,70,0,0,,7,,,67,127
34931,note_off,0,0,0,,10,,,69,127
34933,note_on,2,0,0,,6,,,66,127
35147,note_off,214,0,0,,6,,,66,127
35147,note_off,0,0,0,,7,,,43,127
35147,note_off,0,0,0,,12,,,47,127
35149,note_on,2,0,0,,0,,,48,127
35149,note_on,0,0,0,,10,,,45,127
35149,note_on,0,0,0,,10,,,69,127
35149,note_on,0,0,0,,7,,,67,127
35219,note_off,70,0,0,,7,,,67,127
35219,note_off,0,0,0,,10,,,69,127
35221,note_on,2,0,0,,6,,,66,127
35435,note_off,214,0,0,,6,,,66,127
35435,note_off,0,0,0,,10,,,45,127
35435,note_off,0,0,0,,0,,,48,127
35437,note_on,2,0,0,,12,,,47,127
35437,note_on,0,0,0,,2,,,50,127
35437,note_on,0,0,0,,7,,,67,127
35579,note_off,142,0,0,,7,,,67,127
35581,note_on,2,0,0,,8,,,68,127
35723,note_off,142,0,0,,8,,,68,127
35723,note_off,0,0,0,,2,,,50,127
35723,note_off,0,0,0,,12,,,47,127
35725,note_on,2,0,0,,0,,,48,127
35725,note_on,0,0,0,,4,,,52,127
35725,note_on,0,0,0,,10,,,69,127
35867,note_off,142,0,0,,10,,,69,127
35869,note_on,2,0,0,,12,,,71,127
36011,note_off,142,0,0,,4,,,52,127
36011,note_off,0,0,0,,0,,,48,127
36013,note_on,2,0,0,,6,,,54,127
36013,note_on,0,0,0,,2,,,50,127
36155,note_off,142,0,0,,12,,,71,127
36157,note_on,2,0,0,,0,,,72,127
36299,note_off,142,0,0,,2,,,50,127
36299,note_off,0,0,0,,6,,,54,127
36301,note_on,2,0,0,,7,,,55,127
36301,note_on,0,0,0,,4,,,52,127
36443,note_off,142,0,0,,0,,,72,127
36445,note_on,2,0,0,,1,,,73,127
36587,note_off,142,0,0,,1,,,73,127
36587,note_off,0,0,0,,4,,,52,127
36587,note_off,0,0,0,,7,,,55,127
36589,note_on,2,0,0,,6,,,54,127
36589,note_on,0,0,0,,10,,,57,127
36589,note_on,0,0,0,,2,,,74,127
36731,note_off,142,0,0,,2,,,74,127
36733,note_on,2,0,0,,4,,,76,127
36875,note_off,142,0,0,,10,,,57,127
36875,note_off,0,0,0,,6,,,54,127
36877,note_on,2,0,0,,12,,,59,127
36877,note_on,0,0,0,,7,,,55,127
37019,note_off,142,0,0,,4,,,76,127
37021,note_on,2,0,0,,6,,,78,127
37163,note_off,142,0,0,,7,,,55,127
37163,note_off,0,0,0,,12,,,59,127
37165,note_on,2,0,0,,0,,,60,127
37165,note_on,0,0,0,,10,,,57,127
37307,note_off,142,0,0,,6,,,78,127
37309,note_on,2,0,0,,10,,,81,127
37451,note_off,142,0,0,,10,,,81,127
37451,note_off,0,0,0,,10,,,57,127
37451,note_off,0,0,0,,0,,,60,127
37453,note_on,2,0,0,,12,,,59,127
37453,note_on,0,0,0,,2,,,62,127
37453,note_on,0,0,0,,7,,,79,127
37595,note_off,142,0,0,,7,,,79,127
37597,note_on,2,0,0,,6,,,78,127
37739,note_off,142,0,0,,6,,,78,127
37739,note_off,0,0,0,,12,,,59,127
37741,note_on,2,0,0,,10,,,57,127
37741,note_on,0,0,0,,4,,,76,127
37883,note_off,142,0,0,,4,,,76,127
37885,note_on,2,0,0,,2,,,74,127
38027,note_off,142,0,0,,2,,,74,127
38027,note_off,0,0,0,,10,,,57,127
38029,note_on,2,0,0,,12,,,59,127
38029,note_on,0,0,0,,0,,,72,127
38171,note_off,142,0,0,,0,,,72,127
38173,note_on,2,0,0,,12,,,71,127
38315,note_off,142,0,0,,12,,,71,127
38315,note_off,0,0,0,,12,,,59,127
38315,note_off,0,0,0,,2,,,62,127
38317,note_on,2,0,0,,0,,,60,127
38317,note_on,0,0,0,,10,,,69,127
38411,note_off,94,0,0,,10,,,69,127
38413,note_on,2,0,0,,12,,,71,127
38507,note_off,94,0,0,,12,,,71,127
38509,note_on,2,0,0,,0,,,72,127
38603,note_off,94,0,0,,0,,,72,127
38603,note_off,0,0,0,,0,,,60,127
38605,note_on,2,0,0,,2,,,62,127
38605,note_on,0,0,0,,12,,,71,127
38747,note_off,142,0,0,,12,,,71,127
38749,note_on,2,0,0,,10,,,69,127
38891,note_off,142,0,0,,10,,,69,127
38891,note_off,0,0,0,,2,,,62,127
38893,note_on,2,0,0,,2,,,50,127
38893,note_on,0,0,0,,7,,,67,127
39035,note_off,142,0,0,,7,,,67,127
39037,note_on,2,0,0,,6,,,66,127
39179,note_off,142,0,0,,6,,,66,127
39179,note_off,0,0,0,,2,,,50,127
39205,note_on,26,0,0,,7,,,43,127
39205,note_on,0,0,0,,7,,,31,127
39205,note_on,0,0,0,,10,,,69,127
39205,note_on,0,0,0,,7,,,67,127
39275,note_off,70,0,0,,7,,,67,127
39275,note_off,0,0,0,,10,,,69,127
39277,note_on,2,0,0,,6,,,66,127
39491,note_off,214,0,0,,6,,,66,127
39491,note_off,0,0,0,,7,,,31,127
39491,note_off,0,0,0,,7,,,43,127
39493,note_on,2,0,0,,10,,,45,127
39493,note_on,0,0,0,,10,,,33,127
39493,note_on,0,0,0,,10,,,69,127
39493,note_on,0,0,0,,7,,,67,127
39563,note_off,70,0,0,,7,,,67,127
39563,note_off,0,0,0,,10,,,69,127
39565,note_on,2,0,0,,6,,,66,127
39779,note_off,214,0,0,,6,,,66,127
39779,note_off,0,0,0,,10,,,33,127
39779,note_off,0,0,0,,10,,,45,127
39781,note_on,2,0,0,,12,,,47,127
39781,note_on,0,0,0,,12,,,35,127
39781,note_on,0,0,0,,7,,,67,127
39923,note_off,142,0,0,,7,,,67,127
39925,note_on,2,0,0,,8,,,68,127
40067,note_off,142,0,0,,8,,,68,127
40067,note_off,0,0,0,,12,,,35,127
40067,note_off,0,0,0,,12,,,47,127
40069,note_on,2,0,0,,0,,,36,127
40069,note_on,0,0,0,,0,,,48,127
40069,note_on,0,0,0,,10,,,69,127
40211,note_off,142,0,0,,10,,,69,127
40213,note_on,2,0,0,,12,,,71,127
40355,note_off,142,0,0,,0,,,48,127
40355,note_off,0,0,0,,0,,,36,127
40357,note_on,2,0,0,,2,,,50,127
40357,note_on,0,0,0,,2,,,38,127
40499,note_off,142,0,0,,12,,,71,127
40501,note_on,2,0,0,,0,,,72,127
40643,note_off,142,0,0,,2,,,38,127
40643,note_off,0,0,0,,2,,,50,127
40645,note_on,2,0,0,,4,,,52,127
40645,note_on,0,0,0,,4,,,40,127
40787,note_off,142,0,0,,0,,,72,127
40789,note_on,2,0,0,,1,,,73,127
40931,note_off,142,0,0,,1,,,73,127
40931,note_off,0,0,0,,4,,,40,127
40931,note_off,0,0,0,,4,,,52,127
40933,note_on,2,0,0,,6,,,42,127
40933,note_on,0,0,0,,6,,,54,127
40933,note_on,0,0,0,,2,,,74,127
41075,note_off,142,0,0,,2,,,74,127
41077,note_on,2,0,0,,4,,,76,127
41219,note_off,142,0,0,,6,,,54,127
41219,note_off,0,0,0,,6,,,42,127
41221,note_on,2,0,0,,7,,,55,127
41221,note_on,0,0,0,,7,,,43,127
41363,note_off,142,0,0,,4,,,76,127
41365,note_on,2,0,0,,6,,,78,127
41507,note_off,142,0,0,,7,,,43,127
41507,note_off,0,0,0,,7,,,55,127
41509,note_on,2,0,0,,10,,,45,127
41509,note_on,0,0,0,,10,,,57,127
41651,note_off,142,0,0,,6,,,78,127
41653,note_on,2,0,0,,10,,,81,127
41795,note_off,142,0,0,,10,,,81,127
41795,note_off,0,0,0,,10,,,57,127
41795,note_off,0,0,0,,10,,,45,127
41797,note_on,2,0,0,,12,,,59,127
41797,note_on,0,0,0,,12,,,47,127
41797,note_on,0,0,0,,7,,,79,127
41939,note_off,142,0,0,,7,,,79,127
41941,note_on,2,0,0,,6,,,78,127
42083,note_off,142,0,0,,6,,,78,127
42083,note_off,0,0,0,,12,,,47,127
42083,note_off,0,0,0,,12,,,59,127
42085,note_on,2,0,0,,10,,,57,127
42085,note_on,0,0,0,,4,,,76,127
42227,note_off,142,0,0,,4,,,76,127
42229,note_on,2,0,0,,2,,,74,127
42371,note_off,142,0,0,,2,,,74,127
42371,note_off,0,0,0,,10,,,57,127
42373,note_on,2,0,0,,12,,,59,127
42373,note_on,0,0,0,,0,,,72,127
42515,note_off,142,0,0,,0,,,72,127
42517,note_on,2,0,0,,12,,,71,127
42659,note_off,142,0,0,,12,,,71,127
42659,note_off,0,0,0,,12,,,59,127
42661,note_on,2,0,0,,0,,,60,127
42661,note_on,0,0,0,,10,,,69,127
42755,note_off,94,0,0,,10,,,69,127
42757,note_on,2,0,0,,12,,,71,127
42851,note_off,94,0,0,,12,,,71,127
42853,note_on,2,0,0,,0,,,72,127
42947,note_off,94,0,0,,0,,,72,127
42947,note_off,0,0,0,,0,,,60,127
42949,note_on,2,0,0,,2,,,62,127
42949,note_on,0,0,0,,12,,,71,127
43091,note_off,142,0,0,,12,,,71,127
43093,note_on,2,0,0,,10,,,69,127
43235,note_off,142,0,0,,10,,,69,127
43235,note_off,0,0,0,,2,,,62,127
43237,note_on,2,0,0,,2,,,50,127
43237,note_on,0,0,0,,7,,,67,127
43379,note_off,142,0,0,,7,,,67,127
43381,note_on,2,0,0,,6,,,66,127
43523,note_off,142,0,0,,6,,,66,127
43523,note_off,0,0,0,,2,,,50,127
43535,note_on,12,0,0,,7,,,55,127
43535,note_on,0,0,0,,7,,,43,127
43535,note_on,0,0,0,,2,,,74,127
43535,note_on,0,0,0,,7,,,67,127
43629,note_off,94,0,0,,2,,,74,127
43632,note_on,3,0,0,,0,,,72,127
43726,note_off,94,0,0,,0,,,72,127
43728,note_on,2,0,0,,12,,,71,127
43820,note_off,92,0,0,,7,,,67,127
43822,note_off,2,0,0,,7,,,43,127
43822,note_off,0,0,0,,7,,,55,127
43824,note_off,2,0,0,,12,,,71,127
43826,note_on,2,0,0,,0,,,36,127
43826,note_on,0,0,0,,0,,,48,127
43826,note_on,0,0,0,,0,,,72,127
43920,note_off,94,0,0,,0,,,72,127
43922,note_on,2,0,0,,12,,,71,127
44016,note_off,94,0,0,,12,,,71,127
44018,note_on,2,0,0,,10,,,69,127
44112,note_off,94,0,0,,10,,,69,127
44112,note_off,0,0,0,,0,,,48,127
44112,note_off,0,0,0,,0,,,36,127
44114,note_on,2,0,0,,2,,,38,127
44114,note_on,0,0,0,,2,,,50,127
44210,note_on,96,0,0,,6,,,66,127
44210,note_on,0,0,0,,10,,,69,127
44304,note_off,94,0,0,,10,,,69,127
44304,note_off,0,0,0,,6,,,66,127
44306,note_on,2,0,0,,6,,,66,127
44306,note_on,0,0,0,,10,,,69,127
44400,note_off,94,0,0,,10,,,69,127
44400,note_off,0,0,0,,6,,,66,127
44400,note_off,0,0,0,,2,,,50,127
44400,note_off,0,0,0,,2,,,38,127
44402,note_on,2,0,0,,7,,,43,127
44402,note_on,0,0,0,,7,,,31,127
44402,note_on,0,0,0,,7,,,67,127
44402,note_on,0,0,0,,2,,,74,127
44496,note_off,94,0,0,,2,,,74,127
44498,note_on,2,0,0,,0,,,72,127
44592,note_off,94,0,0,,0,,,72,127
44594,note_on,2,0,0,,12,,,71,127
44687,note_off,93,0,0,,7,,,67,127
44689,note_off,2,0,0,,12,,,71,127
44689,note_off,0,0,0,,7,,,31,127
44689,note_off,0,0,0,,7,,,43,127
44691,note_on,2,0,0,,0,,,48,127
44691,note_on,0,0,0,,0,,,36,127
44691,note_on,0,0,0,,0,,,72,127
44785,note_off,94,0,0,,0,,,72,127
44787,note_on,2,0,0,,12,,,71,127
44881,note_off,94,0,0,,12,,,71,127
44883,note_on,2,0,0,,10,,,69,127
44977,note_off,94,0,0,,10,,,69,127
44977,note_off,0,0,0,,0,,,36,127
44977,note_off,0,0,0,,0,,,48,127
44979,note_on,2,0,0,,2,,,50,127
44979,note_on,0,0,0,,2,,,38,127
45075,note_on,96,0,0,,6,,,66,127
45075,note_on,0,0,0,,10,,,69,127
45169,note_off,94,0,0,,10,,,69,127
45169,note_off,0,0,0,,6,,,66,127
45171,note_on,2,0,0,,10,,,69,127
45171,note_on,0,0,0,,6,,,66,127
45265,note_off,94,0,0,,6,,,66,127
45265,note_off,0,0,0,,10,,,69,127
45265,note_off,0,0,0,,2,,,38,127
45265,note_off,0,0,0,,2,,,50,127
45267,note_on,2,0,0,,7,,,43,127
45267,note_on,0,0,0,,7,,,31,127
45267,note_on,0,0,0,,2,,,74,127
45267,note_on,0,0,0,,7,,,67,127
45361,note_off,94,0,0,,2,,,74,127
45363,note_on,2,0,0,,0,,,72,127
45457,note_off,94,0,0,,0,,,72,127
45459,note_on,2,0,0,,12,,,71,127
45553,note_off,94,0,0,,12,,,71,127
45553,note_off,0,0,0,,7,,,31,127
45553,note_off,0,0,0,,7,,,43,127
45555,note_on,2,0,0,,0,,,36,127
45555,note_on,0,0,0,,0,,,48,127
45555,note_on,0,0,0,,0,,,72,127
45649,note_off,94,0,0,,0,,,72,127
45651,note_on,2,0,0,,12,,,71,127
45745,note_off,94,0,0,,12,,,71,127
45747,note_on,2,0,0,,10,,,69,127
45837,note_off,90,0,0,,7,,,67,127
45841,note_off,4,0,0,,0,,,48,127
45841,note_off,0,0,0,,0,,,36,127
45843,note_off,2,0,0,,10,,,69,127
45843,note_on,0,0,0,,2,,,38,127
45843,note_on,0,0,0,,2,,,50,127
45939,note_on,96,0,0,,10,,,69,127
45939,note_on,0,0,0,,6,,,66,127
46033,note_off,94,0,0,,6,,,66,127
46033,note_off,0,0,0,,10,,,69,127
46035,note_on,2,0,0,,6,,,66,127
46035,note_on,0,0,0,,10,,,69,127
46129,note_off,94,0,0,,10,,,69,127
46129,note_off,0,0,0,,6,,,66,127
46129,note_off,0,0,0,,2,,,50,127
46129,note_off,0,0,0,,2,,,38,127
46131,note_on,2,0,0,,7,,,43,127
46131,note_on,0,0,0,,7,,,31,127
46131,note_on,0,0,0,,10,,,69,127
46177,note_off,46,0,0,,10,,,69,127
46179,note_on,2,0,0,,7,,,67,127
46225,note_off,46,0,0,,7,,,67,127
46227,note_on,2,0,0,,10,,,69,127
46273,note_off,46,0,0,,10,,,69,127
46275,note_on,2,0,0,,7,,,67,127
46845,note_off,570,0,0,,7,,,67,127
46993,note_off,148,0,0,,7,,,31,127
46993,note_off,0,0,0,,7,,,43,127
47103,note_on,110,0,0,,7,,,55,127
47103,note_on,0,0,0,,2,,,62,127
47103,note_on,0,0,0,,2,,,74,127
47173,note_off,70,0,0,,2,,,74,127
47175,note_on,2,0,0,,0,,,72,127
47245,note_off,70,0,0,,0,,,72,127
47247,note_on,2,0,0,,12,,,71,127
47389,note_off,142,0,0,,2,,,62,127
47389,note_off,0,0,0,,7,,,55,127
47391,note_on,2,0,0,,7,,,55,127
47391,note_on,0,0,0,,2,,,62,127
47533,note_off,142,0,0,,12,,,71,127
47535,note_on,2,0,0,,10,,,69,127
47677,note_off,142,0,0,,2,,,62,127
47677,note_off,0,0,0,,7,,,55,127
47679,note_on,2,0,0,,2,,,62,127
47679,note_on,0,0,0,,7,,,55,127
47821,note_off,142,0,0,,10,,,69,127
47823,note_on,2,0,0,,7,,,67,127
47965,note_off,142,0,0,,7,,,67,127
47965,note_off,0,0,0,,7,,,55,127
47965,note_off,0,0,0,,2,,,62,127
47967,note_on,2,0,0,,2,,,62,127
47967,note_on,0,0,0,,7,,,55,127
47967,note_on,0,0,0,,5,,,65,127
47967,note_on,0,0,0,,7,,,67,127
48109,note_off,142,0,0,,7,,,67,127
48109,note_off,0,0,0,,5,,,65,127
48111,note_on,2,0,0,,4,,,64,127
48252,note_off,141,0,0,,4,,,64,127
48254,note_off,2,0,0,,7,,,55,127
48254,note_off,0,0,0,,2,,,62,127
48256,note_on,2,0,0,,7,,,55,127
48256,note_on,0,0,0,,2,,,62,127
48256,note_on,0,0,0,,4,,,64,127
48542,note_off,286,0,0,,4,,,64,127
48542,note_off,0,0,0,,2,,,62,127
48542,note_off,0,0,0,,7,,,55,127
48544,note_on,2,0,0,,2,,,62,127
48544,note_on,0,0,0,,7,,,55,127
48544,note_on,0,0,0,,5,,,65,127
48830,note_off,286,0,0,,5,,,65,127
48830,note_off,0,0,0,,7,,,55,127
48830,note_off,0,0,0,,2,,,62,127
48844,note_on,14,0,0,,5,,,53,127
48844,note_on,0,0,0,,12,,,59,127
48844,note_on,0,0,0,,2,,,62,127
48844,note_on,0,0,0,,10,,,81,127
48938,note_off,94,0,0,,10,,,81,127
48940,note_on,2,0,0,,7,,,79,127
49034,note_off,94,0,0,,7,,,79,127
49036,note_on,2,0,0,,5,,,77,127
49130,note_off,94,0,0,,5,,,77,127
49130,note_off,0,0,0,,2,,,62,127
49130,note_off,0,0,0,,12,,,59,127
49130,note_off,0,0,0,,5,,,53,127
49132,note_on,2,0,0,,12,,,59,127
49132,note_on,0,0,0,,5,,,53,127
49132,note_on,0,0,0,,2,,,62,127
49132,note_on,0,0,0,,4,,,76,127
49274,note_off,142,0,0,,4,,,76,127
49276,note_on,2,0,0,,2,,,74,127
49418,note_off,142,0,0,,2,,,74,127
49418,note_off,0,0,0,,2,,,62,127
49418,note_off,0,0,0,,5,,,53,127
49418,note_off,0,0,0,,12,,,59,127
49420,note_on,2,0,0,,5,,,53,127
49420,note_on,0,0,0,,12,,,59,127
49420,note_on,0,0,0,,2,,,62,127
49420,note_on,0,0,0,,0,,,72,127
49562,note_off,142,0,0,,0,,,72,127
49564,note_on,2,0,0,,12,,,71,127
49706,note_off,142,0,0,,12,,,71,127
49706,note_off,0,0,0,,2,,,62,127
49706,note_off,0,0,0,,12,,,59,127
49706,note_off,0,0,0,,5,,,53,127
49708,note_on,2,0,0,,4,,,52,127
49708,note_on,0,0,0,,0,,,60,127
49708,note_on,0,0,0,,0,,,72,127
49708,note_on,0,0,0,,2,,,74,127
49898,note_off,190,0,0,,2,,,74,127
49898,note_off,0,0,0,,0,,,72,127
49900,note_on,2,0,0,,12,,,71,127
49994,note_off,94,0,0,,12,,,71,127
49994,note_off,0,0,0,,0,,,60,127
49994,note_off,0,0,0,,4,,,52,127
49996,note_on,2,0,0,,4,,,52,127
49996,note_on,0,0,0,,0,,,60,127
49996,note_on,0,0,0,,12,,,71,127
50282,note_off,286,0,0,,12,,,71,127
50282,note_off,0,0,0,,0,,,60,127
50282,note_off,0,0,0,,4,,,52,127
50284,note_on,2,0,0,,4,,,52,127
50284,note_on,0,0,0,,0,,,60,127
50284,note_on,0,0,0,,0,,,72,127
50560,note_off,276,0,0,,0,,,72,127
50584,note_off,24,0,0,,0,,,60,127
50584,note_off,0,0,0,,4,,,52,127
50590,note_on,6,0,0,,7,,,79,127
50590,note_on,0,0,0,,0,,,60,127
50590,note_on,0,0,0,,4,,,52,127
50660,note_off,70,0,0,,7,,,79,127
50664,note_on,4,0,0,,5,,,77,127
50734,note_off,70,0,0,,5,,,77,127
50738,note_on,4,0,0,,4,,,76,127
50874,note_off,136,0,0,,4,,,52,127
50874,note_off,0,0,0,,0,,,60,127
50882,note_on,8,0,0,,0,,,60,127
50882,note_on,0,0,0,,4,,,52,127
51024,note_off,142,0,0,,4,,,76,127
51026,note_on,2,0,0,,2,,,74,127
51168,note_off,142,0,0,,4,,,52,127
51168,note_off,0,0,0,,0,,,60,127
51170,note_on,2,0,0,,0,,,60,127
51170,note_on,0,0,0,,4,,,52,127
51312,note_off,142,0,0,,2,,,74,127
51314,note_on,2,0,0,,0,,,72,127
51456,note_off,142,0,0,,0,,,72,127
51456,note_off,0,0,0,,4,,,52,127
51456,note_off,0,0,0,,0,,,60,127
51458,note_on,2,0,0,,11,,,70,127
51458,note_on,0,0,0,,0,,,72,127
51458,note_on,0,0,0,,2,,,50,127
51458,note_on,0,0,0,,11,,,58,127
51648,note_off,190,0,0,,0,,,72,127
51648,note_off,0,0,0,,11,,,70,127
51650,note_on,2,0,0,,10,,,69,127
51744,note_off,94,0,0,,10,,,69,127
51744,note_off,0,0,0,,11,,,58,127
51744,note_off,0,0,0,,2,,,50,127
51746,note_on,2,0,0,,10,,,69,127
51746,note_on,0,0,0,,2,,,50,127
51746,note_on,0,0,0,,11,,,58,127
52032,note_off,286,0,0,,11,,,58,127
52032,note_off,0,0,0,,2,,,50,127
52032,note_off,0,0,0,,10,,,69,127
52034,note_on,2,0,0,,11,,,70,127
52034,note_on,0,0,0,,11,,,58,127
52034,note_on,0,0,0,,2,,,50,127
52320,note_off,286,0,0,,2,,,50,127
52320,note_off,0,0,0,,11,,,58,127
52320,note_off,0,0,0,,11,,,70,127
52334,note_on,14,0,0,,2,,,86,127
52334,note_on,0,0,0,,7,,,55,127
52334,note_on,0,0,0,,11,,,58,127
52334,note_on,0,0,0,,0,,,48,127
52428,note_off,94,0,0,,2,,,86,127
52430,note_on,2,0,0,,0,,,84,127
52524,note_off,94,0,0,,0,,,84,127
52526,note_on,2,0,0,,11,,,82,127
52620,note_off,94,0,0,,11,,,82,127
52620,note_off,0,0,0,,0,,,48,127
52620,note_off,0,0,0,,11,,,58,127
52620,note_off,0,0,0,,7,,,55,127
52622,note_on,2,0,0,,10,,,81,127
52622,note_on,0,0,0,,11,,,58,127
52622,note_on,0,0,0,,0,,,48,127
52622,note_on,0,0,0,,7,,,55,127
52764,note_off,142,0,0,,10,,,81,127
52766,note_on,2,0,0,,7,,,79,127
52908,note_off,142,0,0,,7,,,79,127
52908,note_off,0,0,0,,7,,,55,127
52908,note_off,0,0,0,,0,,,48,127
52908,note_off,0,0,0,,11,,,58,127
52910,note_on,2,0,0,,5,,,77,127
52910,note_on,0,0,0,,0,,,48,127
52910,note_on,0,0,0,,7,,,55,127
52910,note_on,0,0,0,,11,,,58,127
53052,note_off,142,0,0,,5,,,77,127
53054,note_on,2,0,0,,4,,,76,127
53196,note_off,142,0,0,,4,,,76,127
53196,note_off,0,0,0,,11,,,58,127
53196,note_off,0,0,0,,7,,,55,127
53196,note_off,0,0,0,,0,,,48,127
53198,note_on,2,0,0,,5,,,77,127
53198,note_on,0,0,0,,5,,,53,127
53484,note_off,286,0,0,,5,,,53,127
53486,note_on,2,0,0,,5,,,65,127
53580,note_off,94,0,0,,5,,,65,127
53582,note_on,2,0,0,,10,,,69,127
53676,note_off,94,0,0,,10,,,69,127
53678,note_on,2,0,0,,0,,,72,127
53772,note_off,94,0,0,,0,,,72,127
53772,note_off,0,0,0,,5,,,77,127
53774,note_on,2,0,0,,10,,,81,127
53774,note_on,0,0,0,,0,,,36,127
53844,note_off,70,0,0,,10,,,81,127
53846,note_on,2,0,0,,7,,,79,127
53916,note_off,70,0,0,,7,,,79,127
53918,note_on,2,0,0,,5,,,77,127
53988,note_off,70,0,0,,5,,,77,127
53990,note_on,2,0,0,,7,,,79,127
54060,note_off,70,0,0,,7,,,79,127
54060,note_off,0,0,0,,0,,,36,127
54062,note_on,2,0,0,,10,,,81,127
54062,note_on,0,0,0,,5,,,41,127
54204,note_off,142,0,0,,10,,,81,127
54206,note_on,2,0,0,,0,,,84,127
54348,note_off,142,0,0,,5,,,41,127
54350,note_on,2,0,0,,5,,,65,127
54444,note_off,94,0,0,,5,,,65,127
54446,note_on,2,0,0,,10,,,69,127
54540,note_off,94,0,0,,10,,,69,127
54540,note_off,0,0,0,,0,,,84,127
54542,note_on,2,0,0,,5,,,77,127
54542,note_on,0,0,0,,0,,,72,127
54636,note_off,94,0,0,,0,,,72,127
54636,note_off,0,0,0,,5,,,77,127
54638,note_on,2,0,0,,10,,,81,127
54638,note_on,0,0,0,,0,,,36,127
54708,note_off,70,0,0,,10,,,81,127
54710,note_on,2,0,0,,7,,,79,127
54780,note_off,70,0,0,,7,,,79,127
54782,note_on,2,0,0,,5,,,77,127
54852,note_off,70,0,0,,5,,,77,127
54854,note_on,2,0,0,,7,,,79,127
54924,note_off,70,0,0,,7,,,79,127
54924,note_off,0,0,0,,0,,,36,127
54926,note_on,2,0,0,,10,,,81,127
54926,note_on,0,0,0,,5,,,41,127
55211,note_off,285,0,0,,10,,,81,127
55213,note_off,2,0,0,,5,,,41,127
55215,note_on,2,0,0,,2,,,62,127
55309,note_off,94,0,0,,2,,,62,127
55311,note_on,2,0,0,,5,,,65,127
55405,note_off,94,0,0,,5,,,65,127
55407,note_on,2,0,0,,2,,,74,127
55407,note_on,0,0,0,,10,,,69,127
55501,note_off,94,0,0,,10,,,69,127
55501,note_off,0,0,0,,2,,,74,127
55503,note_on,2,0,0,,5,,,77,127
55503,note_on,0,0,0,,10,,,45,127
55573,note_off,70,0,0,,5,,,77,127
55575,note_on,2,0,0,,4,,,76,127
55645,note_off,70,0,0,,4,,,76,127
55647,note_on,2,0,0,,2,,,74,127
55717,note_off,70,0,0,,2,,,74,127
55719,note_on,2,0,0,,4,,,76,127
55789,note_off,70,0,0,,4,,,76,127
55789,note_off,0,0,0,,10,,,45,127
55791,note_on,2,0,0,,5,,,77,127
55791,note_on,0,0,0,,2,,,38,127
55933,note_off,142,0,0,,5,,,77,127
55935,note_on,2,0,0,,10,,,81,127
56077,note_off,142,0,0,,2,,,38,127
56079,note_on,2,0,0,,2,,,62,127
56173,note_off,94,0,0,,2,,,62,127
56175,note_on,2,0,0,,5,,,65,127
56269,note_off,94,0,0,,5,,,65,127
56269,note_off,0,0,0,,10,,,81,127
56271,note_on,2,0,0,,2,,,74,127
56271,note_on,0,0,0,,10,,,69,127
56365,note_off,94,0,0,,10,,,69,127
56365,note_off,0,0,0,,2,,,74,127
56367,note_on,2,0,0,,5,,,77,127
56367,note_on,0,0,0,,10,,,45,127
56437,note_off,70,0,0,,5,,,77,127
56439,note_on,2,0,0,,4,,,76,127
56509,note_off,70,0,0,,4,,,76,127
56511,note_on,2,0,0,,2,,,74,127
56581,note_off,70,0,0,,2,,,74,127
56583,note_on,2,0,0,,4,,,76,127
56653,note_off,70,0,0,,4,,,76,127
56653,note_off,0,0,0,,10,,,45,127
56655,note_on,2,0,0,,5,,,77,127
56655,note_on,0,0,0,,2,,,38,127
56940,note_off,285,0,0,,5,,,77,127
56942,note_off,2,0,0,,2,,,38,127
56956,note_on,14,0,0,,11,,,58,127
57050,note_off,94,0,0,,11,,,58,127
57052,note_on,2,0,0,,2,,,62,127
57146,note_off,94,0,0,,2,,,62,127
57148,note_on,2,0,0,,11,,,70,127
57148,note_on,0,0,0,,5,,,65,127
57242,note_off,94,0,0,,5,,,65,127
57242,note_off,0,0,0,,11,,,70,127
57244,note_on,2,0,0,,2,,,74,127
57244,note_on,0,0,0,,5,,,41,127
57314,note_off,70,0,0,,2,,,74,127
57316,note_on,2,0,0,,0,,,72,127
57386,note_off,70,0,0,,0,,,72,127
57388,note_on,2,0,0,,11,,,70,127
57458,note_off,70,0,0,,11,,,70,127
57460,note_on,2,0,0,,0,,,72,127
57530,note_off,70,0,0,,0,,,72,127
57530,note_off,0,0,0,,5,,,41,127
57532,note_on,2,0,0,,2,,,74,127
57532,note_on,0,0,0,,11,,,46,127
57674,note_off,142,0,0,,2,,,74,127
57676,note_on,2,0,0,,5,,,77,127
57818,note_off,142,0,0,,11,,,46,127
57820,note_on,2,0,0,,11,,,58,127
57914,note_off,94,0,0,,11,,,58,127
57916,note_on,2,0,0,,2,,,62,127
58010,note_off,94,0,0,,2,,,62,127
58010,note_off,0,0,0,,5,,,77,127
58012,note_on,2,0,0,,11,,,70,127
58012,note_on,0,0,0,,5,,,65,127
58106,note_off,94,0,0,,5,,,65,127
58106,note_off,0,0,0,,11,,,70,127
58108,note_on,2,0,0,,2,,,74,127
58108,note_on,0,0,0,,5,,,41,127
58178,note_off,70,0,0,,2,,,74,127
58180,note_on,2,0,0,,0,,,72,127
58250,note_off,70,0,0,,0,,,72,127
58252,note_on,2,0,0,,11,,,70,127
58322,note_off,70,0,0,,11,,,70,127
58324,note_on,2,0,0,,0,,,72,127
58394,note_off,70,0,0,,0,,,72,127
58394,note_off,0,0,0,,5,,,41,127
58396,note_on,2,0,0,,4,,,76,127
58396,note_on,0,0,0,,11,,,46,127
58466,note_off,70,0,0,,4,,,76,127
58468,note_on,2,0,0,,2,,,74,127
58538,note_off,70,0,0,,2,,,74,127
58540,note_on,2,0,0,,0,,,72,127
58610,note_off,70,0,0,,0,,,72,127
58612,note_on,2,0,0,,2,,,74,127
58682,note_off,70,0,0,,2,,,74,127
58682,note_off,0,0,0,,11,,,46,127
58684,note_on,2,0,0,,5,,,77,127
58684,note_on,0,0,0,,7,,,55,127
58684,note_on,0,0,0,,11,,,58,127
58754,note_off,70,0,0,,5,,,77,127
58756,note_on,2,0,0,,4,,,76,127
58826,note_off,70,0,0,,4,,,76,127
58828,note_on,2,0,0,,2,,,74,127
58898,note_off,70,0,0,,2,,,74,127
58900,note_on,2,0,0,,4,,,76,127
58970,note_off,70,0,0,,4,,,76,127
58970,note_off,0,0,0,,11,,,58,127
58970,note_off,0,0,0,,7,,,55,127
58972,note_on,2,0,0,,7,,,79,127
58972,note_on,0,0,0,,0,,,60,127
58972,note_on,0,0,0,,10,,,57,127
59042,note_off,70,0,0,,7,,,79,127
59044,note_on,2,0,0,,5,,,77,127
59114,note_off,70,0,0,,5,,,77,127
59116,note_on,2,0,0,,4,,,76,127
59186,note_off,70,0,0,,4,,,76,127
59188,note_on,2,0,0,,5,,,77,127
59258,note_off,70,0,0,,5,,,77,127
59258,note_off,0,0,0,,10,,,57,127
59258,note_off,0,0,0,,0,,,60,127
59260,note_on,2,0,0,,10,,,81,127
59260,note_on,0,0,0,,7,,,55,127
59260,note_on,0,0,0,,4,,,52,127
59330,note_off,70,0,0,,10,,,81,127
59332,note_on,2,0,0,,7,,,79,127
59402,note_off,70,0,0,,7,,,79,127
59404,note_on,2,0,0,,5,,,77,127
59474,note_off,70,0,0,,5,,,77,127
59476,note_on,2,0,0,,7,,,79,127
59546,note_off,70,0,0,,7,,,79,127
59546,note_off,0,0,0,,4,,,52,127
59546,note_off,0,0,0,,7,,,55,127
59548,note_on,2,0,0,,11,,,82,127
59548,note_on,0,0,0,,10,,,57,127
59548,note_on,0,0,0,,5,,,53,127
59618,note_off,70,0,0,,11,,,82,127
59620,note_on,2,0,0,,10,,,81,127
59690,note_off,70,0,0,,10,,,81,127
59692,note_on,2,0,0,,7,,,79,127
59762,note_off,70,0,0,,7,,,79,127
59764,note_on,2,0,0,,10,,,81,127
59834,note_off,70,0,0,,10,,,81,127
59834,note_off,0,0,0,,5,,,53,127
59834,note_off,0,0,0,,10,,,57,127
59836,note_on,2,0,0,,0,,,84,127
59836,note_on,0,0,0,,2,,,50,127
59836,note_on,0,0,0,,5,,,53,127
59906,note_off,70,0,0,,0,,,84,127
59908,note_on,2,0,0,,12,,,83,127
59978,note_off,70,0,0,,12,,,83,127
59980,note_on,2,0,0,,10,,,81,127
60050,note_off,70,0,0,,10,,,81,127
60052,note_on,2,0,0,,12,,,83,127
60122,note_off,70,0,0,,12,,,83,127
60122,note_off,0,0,0,,5,,,53,127
60122,note_off,0,0,0,,2,,,50,127
60124,note_on,2,0,0,,0,,,84,127
60124,note_on,0,0,0,,0,,,48,127
60266,note_off,142,0,0,,0,,,84,127
60268,note_on,2,0,0,,7,,,79,127
60410,note_off,142,0,0,,7,,,79,127
60412,note_on,2,0,0,,4,,,76,127
60554,note_off,142,0,0,,4,,,76,127
60556,note_on,2,0,0,,0,,,72,127
60698,note_off,142,0,0,,0,,,72,127
60700,note_on,2,0,0,,7,,,67,127
60842,note_off,142,0,0,,7,,,67,127
60844,note_on,2,0,0,,4,,,64,127
60986,note_off,142,0,0,,4,,,64,127
60986,note_off,0,0,0,,0,,,48,127
60988,note_on,2,0,0,,0,,,60,127
61132,note_on,144,0,0,,7,,,55,127
61274,note_off,142,0,0,,7,,,55,127
61276,note_on,2,0,0,,4,,,52,127
61418,note_off,142,0,0,,4,,,52,127
61420,note_on,2,0,0,,0,,,48,127
61558,note_off,138,0,0,,0,,,60,127
61562,note_off,4,0,0,,0,,,48,127
61564,note_on,2,0,0,,7,,,43,127
61706,note_off,142,0,0,,7,,,43,127
61708,note_on,2,0,0,,4,,,40,127
61850,note_off,142,0,0,,4,,,40,127
61852,note_on,2,0,0,,0,,,36,127
63052,note_off,1200,0,0,,0,,,36,127
63436,note_on,384,0,0,,7,,,79,127
63436,note_on,0,0,0,,7,,,67,127
63436,note_on,0,0,0,,3,,,63,127
63436,note_on,0,0,0,,0,,,60,127
63506,note_off,70,0,0,,7,,,79,127
63508,note_on,2,0,0,,5,,,77,127
63578,note_off,70,0,0,,5,,,77,127
63580,note_on,2,0,0,,3,,,75,127
63722,note_off,142,0,0,,0,,,60,127
63722,note_off,0,0,0,,3,,,63,127
63724,note_on,2,0,0,,3,,,63,127
63724,note_on,0,0,0,,0,,,60,127
63866,note_off,142,0,0,,3,,,75,127
63868,note_on,2,0,0,,2,,,74,127
64010,note_off,142,0,0,,0,,,60,127
64010,note_off,0,0,0,,3,,,63,127
64012,note_on,2,0,0,,0,,,60,127
64012,note_on,0,0,0,,3,,,63,127
64154,note_off,142,0,0,,2,,,74,127
64156,note_on,2,0,0,,0,,,72,127
64298,note_off,142,0,0,,0,,,72,127
64298,note_off,0,0,0,,3,,,63,127
64298,note_off,0,0,0,,0,,,60,127
64298,note_off,0,0,0,,7,,,67,127
64300,note_on,2,0,0,,8,,,68,127
64300,note_on,0,0,0,,12,,,71,127
64300,note_on,0,0,0,,5,,,65,127
64300,note_on,0,0,0,,0,,,60,127
64300,note_on,0,0,0,,2,,,62,127
64394,note_off,94,0,0,,12,,,71,127
64396,note_on,2,0,0,,0,,,72,127
64490,note_off,94,0,0,,0,,,72,127
64492,note_on,2,0,0,,2,,,74,127
64586,note_off,94,0,0,,2,,,74,127
64586,note_off,0,0,0,,2,,,62,127
64586,note_off,0,0,0,,0,,,60,127
64586,note_off,0,0,0,,5,,,65,127
64588,note_on,2,0,0,,0,,,72,127
64588,note_on,0,0,0,,0,,,60,127
64588,note_on,0,0,0,,2,,,62,127
64588,note_on,0,0,0,,5,,,65,127
64874,note_off,286,0,0,,5,,,65,127
64874,note_off,0,0,0,,2,,,62,127
64874,note_off,0,0,0,,0,,,60,127
64874,note_off,0,0,0,,0,,,72,127
64876,note_on,2,0,0,,12,,,71,127
64876,note_on,0,0,0,,2,,,62,127
64876,note_on,0,0,0,,5,,,65,127
64876,note_on,0,0,0,,0,,,60,127
65162,note_off,286,0,0,,0,,,60,127
65162,note_off,0,0,0,,5,,,65,127
65162,note_off,0,0,0,,2,,,62,127
65162,note_off,0,0,0,,12,,,71,127
65162,note_off,0,0,0,,8,,,68,127
65180,note_on,18,0,0,,7,,,79,127
65180,note_on,0,0,0,,3,,,63,127
65180,note_on,0,0,0,,0,,,60,127
65180,note_on,0,0,0,,7,,,67,127
65250,note_off,70,0,0,,7,,,79,127
65252,note_on,2,0,0,,5,,,77,127
65322,note_off,70,0,0,,5,,,77,127
65324,note_on,2,0,0,,3,,,75,127
65466,note_off,142,0,0,,0,,,60,127
65466,note_off,0,0,0,,3,,,63,127
65468,note_on,2,0,0,,3,,,63,127
65468,note_on,0,0,0,,0,,,60,127
65610,note_off,142,0,0,,3,,,75,127
65612,note_on,2,0,0,,2,,,74,127
65754,note_off,142,0,0,,0,,,60,127
65754,note_off,0,0,0,,3,,,63,127
65756,note_on,2,0,0,,3,,,63,127
65756,note_on,0,0,0,,0,,,60,127
65898,note_off,142,0,0,,2,,,74,127
65900,note_on,2,0,0,,0,,,72,127
66042,note_off,142,0,0,,0,,,72,127
66042,note_off,0,0,0,,0,,,60,127
66042,note_off,0,0,0,,3,,,63,127
66042,note_off,0,0,0,,7,,,67,127
66044,note_on,2,0,0,,2,,,62,127
66044,note_on,0,0,0,,0,,,60,127
66044,note_on,0,0,0,,5,,,65,127
66044,note_on,0,0,0,,8,,,68,127
66044,note_on,0,0,0,,12,,,71,127
66138,note_off,94,0,0,,12,,,71,127
66140,note_on,2,0,0,,0,,,72,127
66234,note_off,94,0,0,,0,,,72,127
66236,note_on,2,0,0,,2,,,74,127
66330,note_off,94,0,0,,2,,,74,127
66330,note_off,0,0,0,,5,,,65,127
66330,note_off,0,0,0,,0,,,60,127
66330,note_off,0,0,0,,2,,,62,127
66332,note_on,2,0,0,,2,,,62,127
66332,note_on,0,0,0,,0,,,60,127
66332,note_on,0,0,0,,5,,,65,127
66332,note_on,0,0,0,,0,,,72,127
66618,note_off,286,0,0,,0,,,72,127
66618,note_off,0,0,0,,5,,,65,127
66618,note_off,0,0,0,,0,,,60,127
66618,note_off,0,0,0,,2,,,62,127
66620,note_on,2,0,0,,2,,,62,127
66620,note_on,0,0,0,,5,,,65,127
66620,note_on,0,0,0,,0,,,60,127
66620,note_on,0,0,0,,12,,,71,127
66839,note_off,219,0,0,,8,,,68,127
66842,note_off,3,0,0,,12,,,71,127
66875,note_off,33,0,0,,0,,,60,127
66875,note_off,0,0,0,,2,,,62,127
66907,note_off,32,0,0,,5,,,65,127
66933,note_on,26,0,0,,5,,,65,127
66933,note_on,0,0,0,,5,,,77,127
66933,note_on,0,0,0,,11,,,58,127
66933,note_on,0,0,0,,1,,,61,127
67003,note_off,70,0,0,,5,,,77,127
67005,note_on,2,0,0,,3,,,75,127
67075,note_off,70,0,0,,3,,,75,127
67077,note_on,2,0,0,,1,,,73,127
67219,note_off,142,0,0,,1,,,61,127
67219,note_off,0,0,0,,11,,,58,127
67221,note_on,2,0,0,,11,,,58,127
67221,note_on,0,0,0,,1,,,61,127
67363,note_off,142,0,0,,1,,,73,127
67365,note_on,2,0,0,,0,,,72,127
67507,note_off,142,0,0,,1,,,61,127
67507,note_off,0,0,0,,11,,,58,127
67509,note_on,2,0,0,,11,,,58,127
67509,note_on,0,0,0,,1,,,61,127
67651,note_off,142,0,0,,0,,,72,127
67653,note_on,2,0,0,,11,,,70,127
67795,note_off,142,0,0,,11,,,70,127
67795,note_off,0,0,0,,1,,,61,127
67795,note_off,0,0,0,,11,,,58,127
67795,note_off,0,0,0,,5,,,65,127
67797,note_on,2,0,0,,6,,,66,127
67797,note_on,0,0,0,,10,,,69,127
67797,note_on,0,0,0,,3,,,63,127
67797,note_on,0,0,0,,0,,,60,127
67797,note_on,0,0,0,,11,,,58,127
67891,note_off,94,0,0,,10,,,69,127
67893,note_on,2,0,0,,11,,,70,127
67987,note_off,94,0,0,,11,,,70,127
67989,note_on,2,0,0,,0,,,72,127
68083,note_off,94,0,0,,0,,,72,127
68083,note_off,0,0,0,,11,,,58,127
68083,note_off,0,0,0,,0,,,60,127
68083,note_off,0,0,0,,3,,,63,127
68085,note_on,2,0,0,,11,,,70,127
68085,note_on,0,0,0,,11,,,58,127
68085,note_on,0,0,0,,0,,,60,127
68085,note_on,0,0,0,,3,,,63,127
68371,note_off,286,0,0,,3,,,63,127
68371,note_off,0,0,0,,0,,,60,127
68371,note_off,0,0,0,,11,,,58,127
68371,note_off,0,0,0,,11,,,70,127
68373,note_on,2,0,0,,10,,,69,127
68373,note_on,0,0,0,,11,,,58,127
68373,note_on,0,0,0,,0,,,60,127
68373,note_on,0,0,0,,3,,,63,127
68659,note_off,286,0,0,,3,,,63,127
68659,note_off,0,0,0,,0,,,60,127
68659,note_off,0,0,0,,11,,,58,127
68659,note_off,0,0,0,,10,,,69,127
68659,note_off,0,0,0,,6,,,66,127
68673,note_on,14,0,0,,5,,,65,127
68673,note_on,0,0,0,,5,,,77,127
68673,note_on,0,0,0,,11,,,58,127
68673,note_on,0,0,0,,1,,,61,127
68743,note_off,70,0,0,,5,,,77,127
68745,note_on,2,0,0,,3,,,75,127
68815,note_off,70,0,0,,3,,,75,127
68817,note_on,2,0,0,,1,,,73,127
68959,note_off,142,0,0,,1,,,61,127
68959,note_off,0,0,0,,11,,,58,127
68961,note_on,2,0,0,,11,,,58,127
68961,note_on,0,0,0,,1,,,61,127
69103,note_off,142,0,0,,1,,,73,127
69105,note_on,2,0,0,,0,,,72,127
69247,note_off,142,0,0,,1,,,61,127
69247,note_off,0,0,0,,11,,,58,127
69249,note_on,2,0,0,,11,,,58,127
69249,note_on,0,0,0,,1,,,61,127
69391,note_off,142,0,0,,0,,,72,127
69393,note_on,2,0,0,,11,,,70,127
69535,note_off,142,0,0,,11,,,70,127
69535,note_off,0,0,0,,1,,,61,127
69535,note_off,0,0,0,,11,,,58,127
69535,note_off,0,0,0,,5,,,65,127
69537,note_on,2,0,0,,6,,,66,127
69537,note_on,0,0,0,,10,,,69,127
69537,note_on,0,0,0,,0,,,60,127
69537,note_on,0,0,0,,3,,,63,127
69537,note_on,0,0,0,,11,,,58,127
69631,note_off,94,0,0,,10,,,69,127
69633,note_on,2,0,0,,11,,,70,127
69727,note_off,94,0,0,,11,,,70,127
69729,note_on,2,0,0,,0,,,72,127
69823,note_off,94,0,0,,0,,,72,127
69823,note_off,0,0,0,,11,,,58,127
69823,note_off,0,0,0,,3,,,63,127
69823,note_off,0,0,0,,0,,,60,127
69825,note_on,2,0,0,,11,,,70,127
69825,note_on,0,0,0,,0,,,60,127
69825,note_on,0,0,0,,3,,,63,127
69825,note_on,0,0,0,,11,,,58,127
70111,note_off,286,0,0,,11,,,58,127
70111,note_off,0,0,0,,3,,,63,127
70111,note_off,0,0,0,,0,,,60,127
70111,note_off,0,0,0,,11,,,70,127
70113,note_on,2,0,0,,10,,,69,127
70113,note_on,0,0,0,,11,,,58,127
70113,note_on,0,0,0,,0,,,60,127
70113,note_on,0,0,0,,3,,,63,127
70332,note_off,219,0,0,,6,,,66,127
70400,note_off,68,0,0,,3,,,63,127
70400,note_off,0,0,0,,0,,,60,127
70400,note_off,0,0,0,,11,,,58,127
70400,note_off,0,0,0,,10,,,69,127
70414,note_on,14,0,0,,1,,,61,127
70414,note_on,0,0,0,,1,,,73,127
70414,note_on,0,0,0,,3,,,75,127
70414,note_on,0,0,0,,5,,,65,127
70414,note_on,0,0,0,,11,,,58,127
70460,note_off,46,0,0,,3,,,75,127
70460,note_off,0,0,0,,1,,,73,127
70462,note_on,2,0,0,,0,,,72,127
70700,note_off,238,0,0,,0,,,72,127
70700,note_off,0,0,0,,11,,,58,127
70700,note_off,0,0,0,,5,,,65,127
70700,note_off,0,0,0,,1,,,61,127
70702,note_on,2,0,0,,3,,,75,127
70702,note_on,0,0,0,,1,,,73,127
70702,note_on,0,0,0,,5,,,65,127
70702,note_on,0,0,0,,11,,,58,127
70702,note_on,0,0,0,,1,,,61,127
70748,note_off,46,0,0,,1,,,73,127
70748,note_off,0,0,0,,3,,,75,127
70750,note_on,2,0,0,,0,,,72,127
70988,note_off,238,0,0,,0,,,72,127
70988,note_off,0,0,0,,1,,,61,127
70988,note_off,0,0,0,,11,,,58,127
70988,note_off,0,0,0,,5,,,65,127
70990,note_on,2,0,0,,1,,,73,127
70990,note_on,0,0,0,,3,,,75,127
70990,note_on,0,0,0,,5,,,65,127
70990,note_on,0,0,0,,1,,,61,127
70990,note_on,0,0,0,,11,,,58,127
71036,note_off,46,0,0,,3,,,75,127
71036,note_off,0,0,0,,1,,,73,127
71038,note_on,2,0,0,,0,,,72,127
71276,note_off,238,0,0,,0,,,72,127
71276,note_off,0,0,0,,11,,,58,127
71276,note_off,0,0,0,,1,,,61,127
71276,note_off,0,0,0,,5,,,65,127
71278,note_on,2,0,0,,1,,,73,127
71278,note_on,0,0,0,,3,,,75,127
71278,note_on,0,0,0,,0,,,60,127
71278,note_on,0,0,0,,5,,,65,127
71278,note_on,0,0,0,,8,,,56,127
71324,note_off,46,0,0,,3,,,75,127
71324,note_off,0,0,0,,1,,,73,127
71326,note_on,2,0,0,,0,,,72,127
71564,note_off,238,0,0,,0,,,72,127
71564,note_off,0,0,0,,8,,,56,127
71564,note_off,0,0,0,,5,,,65,127
71564,note_off,0,0,0,,0,,,60,127
71566,note_on,2,0,0,,1,,,73,127
71566,note_on,0,0,0,,3,,,75,127
71566,note_on,0,0,0,,0,,,60,127
71566,note_on,0,0,0,,5,,,65,127
71566,note_on,0,0,0,,8,,,56,127
71612,note_off,46,0,0,,3,,,75,127
71612,note_off,0,0,0,,1,,,73,127
71614,note_on,2,0,0,,0,,,72,127
71852,note_off,238,0,0,,0,,,72,127
71852,note_off,0,0,0,,8,,,56,127
71852,note_off,0,0,0,,5,,,65,127
71852,note_off,0,0,0,,0,,,60,127
71854,note_on,2,0,0,,1,,,73,127
71854,note_on,0,0,0,,3,,,75,127
71854,note_on,0,0,0,,0,,,60,127
71854,note_on,0,0,0,,5,,,65,127
71854,note_on,0,0,0,,8,,,56,127
71900,note_off,46,0,0,,3,,,75,127
71900,note_off,0,0,0,,1,,,73,127
71902,note_on,2,0,0,,0,,,72,127
72140,note_off,238,0,0,,0,,,72,127
72140,note_off,0,0,0,,8,,,56,127
72140,note_off,0,0,0,,5,,,65,127
72140,note_off,0,0,0,,0,,,60,127
72154,note_on,14,0,0,,2,,,74,127
72154,note_on,0,0,0,,3,,,75,127
72154,note_on,0,0,0,,2,,,62,127
72154,note_on,0,0,0,,7,,,55,127
72154,note_on,0,0,0,,12,,,59,127
72200,note_off,46,0,0,,3,,,75,127
72200,note_off,0,0,0,,2,,,74,127
72202,note_on,2,0,0,,0,,,72,127
72440,note_off,238,0,0,,0,,,72,127
72440,note_off,0,0,0,,12,,,59,127
72440,note_off,0,0,0,,7,,,55,127
72440,note_off,0,0,0,,2,,,62,127
72442,note_on,2,0,0,,2,,,74,127
72442,note_on,0,0,0,,3,,,75,127
72442,note_on,0,0,0,,7,,,55,127
72442,note_on,0,0,0,,2,,,62,127
72442,note_on,0,0,0,,12,,,59,127
72488,note_off,46,0,0,,3,,,75,127
72488,note_off,0,0,0,,2,,,74,127
72490,note_on,2,0,0,,0,,,72,127
72728,note_off,238,0,0,,0,,,72,127
72728,note_off,0,0,0,,12,,,59,127
72728,note_off,0,0,0,,2,,,62,127
72728,note_off,0,0,0,,7,,,55,127
72730,note_on,2,0,0,,3,,,75,127
72730,note_on,0,0,0,,2,,,74,127
72730,note_on,0,0,0,,2,,,62,127
72730,note_on,0,0,0,,7,,,55,127
72730,note_on,0,0,0,,12,,,59,127
72776,note_off,46,0,0,,2,,,74,127
72776,note_off,0,0,0,,3,,,75,127
72778,note_on,2,0,0,,0,,,72,127
73016,note_off,238,0,0,,0,,,72,127
73016,note_off,0,0,0,,12,,,59,127
73016,note_off,0,0,0,,7,,,55,127
73016,note_off,0,0,0,,2,,,62,127
73018,note_on,2,0,0,,2,,,74,127
73018,note_on,0,0,0,,4,,,76,127
73018,note_on,0,0,0,,2,,,62,127
73018,note_on,0,0,0,,7,,,55,127
73018,note_on,0,0,0,,12,,,59,127
73018,note_on,0,0,0,,5,,,53,127
73064,note_off,46,0,0,,4,,,76,127
73064,note_off,0,0,0,,2,,,74,127
73066,note_on,2,0,0,,0,,,72,127
73304,note_off,238,0,0,,0,,,72,127
73304,note_off,0,0,0,,5,,,53,127
73304,note_off,0,0,0,,12,,,59,127
73304,note_off,0,0,0,,7,,,55,127
73304,note_off,0,0,0,,2,,,62,127
73312,note_on,8,0,0,,12,,,59,127
73312,note_on,0,0,0,,7,,,55,127
73312,note_on,0,0,0,,5,,,53,127
73312,note_on,0,0,0,,2,,,62,127
73312,note_on,0,0,0,,4,,,76,127
73312,note_on,0,0,0,,2,,,74,127
73358,note_off,46,0,0,,2,,,74,127
73358,note_off,0,0,0,,4,,,76,127
73360,note_on,2,0,0,,0,,,72,127
73598,note_off,238,0,0,,0,,,72,127
73598,note_off,0,0,0,,2,,,62,127
73598,note_off,0,0,0,,5,,,53,127
73598,note_off,0,0,0,,7,,,55,127
73598,note_off,0,0,0,,12,,,59,127
73606,note_on,8,0,0,,4,,,76,127
73606,note_on,0,0,0,,2,,,74,127
73606,note_on,0,0,0,,7,,,55,127
73606,note_on,0,0,0,,12,,,59,127
73606,note_on,0,0,0,,2,,,62,127
73606,note_on,0,0,0,,5,,,53,127
73652,note_off,46,0,0,,2,,,74,127
73652,note_off,0,0,0,,4,,,76,127
73654,note_on,2,0,0,,0,,,72,127
73892,note_off,238,0,0,,0,,,72,127
73892,note_off,0,0,0,,5,,,53,127
73892,note_off,0,0,0,,2,,,62,127
73892,note_off,0,0,0,,12,,,59,127
73892,note_off,0,0,0,,7,,,55,127
73914,note_on,22,0,0,,4,,,52,127
73914,note_on,0,0,0,,4,,,76,127
74056,note_off,142,0,0,,4,,,52,127
74058,note_on,2,0,0,,0,,,60,127
74200,note_off,142,0,0,,0,,,60,127
74200,note_off,0,0,0,,4,,,76,127
74202,note_on,2,0,0,,2,,,50,127
74202,note_on,0,0,0,,5,,,77,127
74344,note_off,142,0,0,,2,,,50,127
74346,note_on,2,0,0,,12,,,59,127
74488,note_off,142,0,0,,12,,,59,127
74488,note_off,0,0,0,,5,,,77,127
74490,note_on,2,0,0,,0,,,48,127
74490,note_on,0,0,0,,7,,,79,127
74632,note_off,142,0,0,,0,,,48,127
74634,note_on,2,0,0,,0,,,60,127
74776,note_off,142,0,0,,0,,,60,127
74776,note_off,0,0,0,,7,,,79,127
74778,note_on,2,0,0,,5,,,41,127
74778,note_on,0,0,0,,5,,,53,127
74778,note_on,0,0,0,,10,,,81,127
74778,note_on,0,0,0,,0,,,72,127
74920,note_off,142,0,0,,0,,,72,127
74920,note_off,0,0,0,,10,,,81,127
74922,note_on,2,0,0,,7,,,79,127
74922,note_on,0,0,0,,12,,,71,127
75064,note_off,142,0,0,,12,,,71,127
75064,note_off,0,0,0,,7,,,79,127
75066,note_on,2,0,0,,5,,,77,127
75066,note_on,0,0,0,,10,,,69,127
75208,note_off,142,0,0,,10,,,69,127
75208,note_off,0,0,0,,5,,,77,127
75210,note_on,2,0,0,,4,,,76,127
75210,note_on,0,0,0,,7,,,67,127
75352,note_off,142,0,0,,7,,,67,127
75352,note_off,0,0,0,,4,,,76,127
75354,note_on,2,0,0,,2,,,74,127
75354,note_on,0,0,0,,5,,,65,127
75496,note_off,142,0,0,,5,,,65,127
75496,note_off,0,0,0,,2,,,74,127
75498,note_on,2,0,0,,0,,,72,127
75498,note_on,0,0,0,,4,,,64,127
75640,note_off,142,0,0,,4,,,64,127
75640,note_off,0,0,0,,0,,,72,127
75640,note_off,0,0,0,,5,,,53,127
75640,note_off,0,0,0,,5,,,41,127
75642,note_on,2,0,0,,7,,,43,127
75642,note_on,0,0,0,,7,,,55,127
75642,note_on,0,0,0,,2,,,62,127
75642,note_on,0,0,0,,12,,,71,127
75784,note_off,142,0,0,,12,,,71,127
75784,note_off,0,0,0,,2,,,62,127
75786,note_on,2,0,0,,4,,,64,127
75786,note_on,0,0,0,,0,,,72,127
75928,note_off,142,0,0,,0,,,72,127
75928,note_off,0,0,0,,4,,,64,127
75930,note_on,2,0,0,,5,,,65,127
75930,note_on,0,0,0,,2,,,74,127
76072,note_off,142,0,0,,2,,,74,127
76072,note_off,0,0,0,,5,,,65,127
76074,note_on,2,0,0,,7,,,67,127
76074,note_on,0,0,0,,4,,,76,127
76216,note_off,142,0,0,,4,,,76,127
76216,note_off,0,0,0,,7,,,67,127
76218,note_on,2,0,0,,5,,,77,127
76218,note_on,0,0,0,,10,,,69,127
76360,note_off,142,0,0,,10,,,69,127
76360,note_off,0,0,0,,5,,,77,127
76362,note_on,2,0,0,,7,,,79,127
76362,note_on,0,0,0,,12,,,71,127
76504,note_off,142,0,0,,12,,,71,127
76504,note_off,0,0,0,,7,,,79,127
76504,note_off,0,0,0,,7,,,55,127
76504,note_off,0,0,0,,7,,,43,127
76506,note_on,2,0,0,,5,,,53,127
76506,note_on,0,0,0,,5,,,41,127
76506,note_on,0,0,0,,0,,,72,127
76506,note_on,0,0,0,,10,,,81,127
76640,note_off,134,0,0,,10,,,81,127
76640,note_off,0,0,0,,0,,,72,127
76650,note_on,10,0,0,,12,,,71,127
76650,note_on,0,0,0,,7,,,79,127
76784,note_off,134,0,0,,7,,,79,127
76784,note_off,0,0,0,,12,,,71,127
76794,note_on,10,0,0,,5,,,77,127
76794,note_on,0,0,0,,10,,,69,127
76928,note_off,134,0,0,,10,,,69,127
76928,note_off,0,0,0,,5,,,77,127
76938,note_on,10,0,0,,4,,,76,127
76938,note_on,0,0,0,,7,,,67,127
77072,note_off,134,0,0,,7,,,67,127
77072,note_off,0,0,0,,4,,,76,127
77082,note_on,10,0,0,,5,,,65,127
77082,note_on,0,0,0,,2,,,74,127
77216,note_off,134,0,0,,2,,,74,127
77216,note_off,0,0,0,,5,,,65,127
77226,note_on,10,0,0,,0,,,72,127
77226,note_on,0,0,0,,4,,,64,127
77360,note_off,134,0,0,,4,,,64,127
77360,note_off,0,0,0,,0,,,72,127
77369,note_off,9,0,0,,5,,,41,127
77369,note_off,0,0,0,,5,,,53,127
77371,note_on,2,0,0,,7,,,43,127
77371,note_on,0,0,0,,7,,,55,127
77371,note_on,0,0,0,,2,,,62,127
77371,note_on,0,0,0,,12,,,71,127
77505,note_off,134,0,0,,12,,,71,127
77505,note_off,0,0,0,,2,,,62,127
77515,note_on,10,0,0,,0,,,72,127
77515,note_on,0,0,0,,4,,,64,127
77649,note_off,134,0,0,,4,,,64,127
77649,note_off,0,0,0,,0,,,72,127
77659,note_on,10,0,0,,2,,,74,127
77659,note_on,0,0,0,,5,,,65,127
77793,note_off,134,0,0,,5,,,65,127
77793,note_off,0,0,0,,2,,,74,127
77803,note_on,10,0,0,,7,,,67,127
77803,note_on,0,0,0,,4,,,76,127
77937,note_off,134,0,0,,4,,,76,127
77937,note_off,0,0,0,,7,,,67,127
77947,note_on,10,0,0,,5,,,77,127
77947,note_on,0,0,0,,10,,,69,127
78081,note_off,134,0,0,,10,,,69,127
78081,note_off,0,0,0,,5,,,77,127
78091,note_on,10,0,0,,12,,,71,127
78091,note_on,0,0,0,,7,,,79,127
78225,note_off,134,0,0,,7,,,79,127
78225,note_off,0,0,0,,12,,,71,127
78234,note_off,9,0,0,,7,,,55,127
78234,note_off,0,0,0,,7,,,43,127
78236,note_on,2,0,0,,5,,,41,127
78236,note_on,0,0,0,,5,,,53,127
78236,note_on,0,0,0,,0,,,72,127
78236,note_on,0,0,0,,10,,,81,127
78378,note_off,142,0,0,,10,,,81,127
78378,note_off,0,0,0,,0,,,72,127
78392,note_on,14,0,0,,7,,,79,127
78392,note_on,0,0,0,,12,,,71,127
78534,note_off,142,0,0,,12,,,71,127
78534,note_off,0,0,0,,7,,,79,127
78536,note_on,2,0,0,,10,,,69,127
78536,note_on,0,0,0,,5,,,77,127
78678,note_off,142,0,0,,5,,,77,127
78678,note_off,0,0,0,,10,,,69,127
78680,note_on,2,0,0,,7,,,79,127
78680,note_on,0,0,0,,12,,,71,127
78822,note_off,142,0,0,,12,,,71,127
78822,note_off,0,0,0,,7,,,79,127
78824,note_on,2,0,0,,10,,,81,127
78824,note_on,0,0,0,,0,,,72,127
78966,note_off,142,0,0,,0,,,72,127
78966,note_off,0,0,0,,10,,,81,127
78968,note_on,2,0,0,,12,,,83,127
78968,note_on,0,0,0,,2,,,74,127
79098,note_off,130,0,0,,5,,,53,127
79098,note_off,0,0,0,,5,,,41,127
79110,note_off,12,0,0,,2,,,74,127
79110,note_off,0,0,0,,12,,,83,127
79112,note_on,2,0,0,,4,,,40,127
79112,note_on,0,0,0,,4,,,52,127
79112,note_on,0,0,0,,0,,,84,127
79112,note_on,0,0,0,,4,,,76,127
79254,note_off,142,0,0,,4,,,76,127
79254,note_off,0,0,0,,0,,,84,127
79256,note_on,2,0,0,,7,,,79,127
79398,note_off,142,0,0,,7,,,79,127
79398,note_off,0,0,0,,4,,,52,127
79398,note_off,0,0,0,,4,,,40,127
79400,note_on,2,0,0,,2,,,50,127
79400,note_on,0,0,0,,4,,,76,127
79542,note_off,142,0,0,,4,,,76,127
79544,note_on,2,0,0,,0,,,72,127
79686,note_off,142,0,0,,0,,,72,127
79686,note_off,0,0,0,,2,,,50,127
79688,note_on,2,0,0,,0,,,48,127
79688,note_on,0,0,0,,4,,,76,127
79830,note_off,142,0,0,,4,,,76,127
79832,note_on,2,0,0,,7,,,79,127
79974,note_off,142,0,0,,7,,,79,127
79974,note_off,0,0,0,,0,,,48,127
79976,note_on,2,0,0,,5,,,53,127
79976,note_on,0,0,0,,7,,,79,127
79976,note_on,0,0,0,,5,,,77,127
80070,note_off,94,0,0,,5,,,77,127
80070,note_off,0,0,0,,7,,,79,127
80072,note_on,2,0,0,,4,,,76,127
80166,note_off,94,0,0,,4,,,76,127
80168,note_on,2,0,0,,2,,,74,127
80262,note_off,94,0,0,,2,,,74,127
80262,note_off,0,0,0,,5,,,53,127
80264,note_on,2,0,0,,7,,,55,127
80264,note_on,0,0,0,,0,,,72,127
80550,note_off,286,0,0,,0,,,72,127
80550,note_off,0,0,0,,7,,,55,127
80552,note_on,2,0,0,,7,,,43,127
80552,note_on,0,0,0,,12,,,71,127
80856,note_off,304,0,0,,7,,,43,127
80859,note_off,3,0,0,,12,,,71,127
80863,note_on,4,0,0,,2,,,74,127
80863,note_on,0,0,0,,0,,,72,127
80863,note_on,0,0,0,,0,,,48,127
80863,note_on,0,0,0,,4,,,52,127
80933,note_off,70,0,0,,0,,,72,127
80933,note_off,0,0,0,,2,,,74,127
80935,note_on,2,0,0,,12,,,71,127
81149,note_off,214,0,0,,12,,,71,127
81149,note_off,0,0,0,,4,,,52,127
81149,note_off,0,0,0,,0,,,48,127
81151,note_on,2,0,0,,0,,,72,127
81151,note_on,0,0,0,,2,,,74,127
81151,note_on,0,0,0,,2,,,50,127
81151,note_on,0,0,0,,5,,,53,127
81221,note_off,70,0,0,,2,,,74,127
81221,note_off,0,0,0,,0,,,72,127
81223,note_on,2,0,0,,12,,,71,127
81437,note_off,214,0,0,,12,,,71,127
81437,note_off,0,0,0,,5,,,53,127
81437,note_off,0,0,0,,2,,,50,127
81439,note_on,2,0,0,,0,,,72,127
81439,note_on,0,0,0,,7,,,55,127
81439,note_on,0,0,0,,4,,,52,127
81581,note_off,142,0,0,,0,,,72,127
81583,note_on,2,0,0,,1,,,73,127
81725,note_off,142,0,0,,1,,,73,127
81725,note_off,0,0,0,,4,,,52,127
81725,note_off,0,0,0,,7,,,55,127
81727,note_on,2,0,0,,2,,,74,127
81727,note_on,0,0,0,,5,,,53,127
81727,note_on,0,0,0,,10,,,57,127
81869,note_off,142,0,0,,2,,,74,127
81871,note_on,2,0,0,,4,,,76,127
82013,note_off,142,0,0,,10,,,57,127
82013,note_off,0,0,0,,5,,,53,127
82015,note_on,2,0,0,,12,,,59,127
82015,note_on,0,0,0,,7,,,55,127
82157,note_off,142,0,0,,4,,,76,127
82159,note_on,2,0,0,,5,,,77,127
82301,note_off,142,0,0,,7,,,55,127
82301,note_off,0,0,0,,12,,,59,127
82303,note_on,2,0,0,,0,,,60,127
82303,note_on,0,0,0,,10,,,57,127
82429,note_off,126,0,0,,5,,,77,127
82447,note_on,18,0,0,,6,,,78,127
82589,note_off,142,0,0,,6,,,78,127
82589,note_off,0,0,0,,10,,,57,127
82589,note_off,0,0,0,,0,,,60,127
82591,note_on,2,0,0,,7,,,79,127
82591,note_on,0,0,0,,2,,,62,127
82591,note_on,0,0,0,,12,,,59,127
82733,note_off,142,0,0,,7,,,79,127
82735,note_on,2,0,0,,10,,,81,127
82877,note_off,142,0,0,,12,,,59,127
82877,note_off,0,0,0,,2,,,62,127
82879,note_on,2,0,0,,0,,,60,127
82879,note_on,0,0,0,,4,,,64,127
83005,note_off,126,0,0,,10,,,81,127
83023,note_on,18,0,0,,12,,,83,127
83165,note_off,142,0,0,,4,,,64,127
83165,note_off,0,0,0,,0,,,60,127
83167,note_on,2,0,0,,5,,,65,127
83167,note_on,0,0,0,,2,,,62,127
83293,note_off,126,0,0,,12,,,83,127
83311,note_on,18,0,0,,2,,,86,127
83453,note_off,142,0,0,,2,,,86,127
83453,note_off,0,0,0,,2,,,62,127
83453,note_off,0,0,0,,5,,,65,127
83455,note_on,2,0,0,,0,,,84,127
83455,note_on,0,0,0,,7,,,67,127
83455,note_on,0,0,0,,4,,,64,127
83597,note_off,142,0,0,,0,,,84,127
83599,note_on,2,0,0,,12,,,83,127
83741,note_off,142,0,0,,12,,,83,127
83741,note_off,0,0,0,,4,,,64,127
83743,note_on,2,0,0,,10,,,81,127
83743,note_on,0,0,0,,2,,,62,127
83885,note_off,142,0,0,,10,,,81,127
83887,note_on,2,0,0,,7,,,79,127
84029,note_off,142,0,0,,7,,,79,127
84029,note_off,0,0,0,,2,,,62,127
84031,note_on,2,0,0,,5,,,77,127
84031,note_on,0,0,0,,4,,,64,127
84173,note_off,142,0,0,,5,,,77,127
84175,note_on,2,0,0,,4,,,76,127
84317,note_off,142,0,0,,4,,,76,127
84317,note_off,0,0,0,,4,,,64,127
84317,note_off,0,0,0,,7,,,67,127
84319,note_on,2,0,0,,2,,,74,127
84319,note_on,0,0,0,,5,,,65,127
84413,note_off,94,0,0,,2,,,74,127
84415,note_on,2,0,0,,4,,,76,127
84509,note_off,94,0,0,,4,,,76,127
84511,note_on,2,0,0,,5,,,77,127
84605,note_off,94,0,0,,5,,,77,127
84605,note_off,0,0,0,,5,,,65,127
84607,note_on,2,0,0,,4,,,76,127
84607,note_on,0,0,0,,7,,,67,127
84749,note_off,142,0,0,,4,,,76,127
84751,note_on,2,0,0,,2,,,74,127
84893,note_off,142,0,0,,2,,,74,127
84893,note_off,0,0,0,,7,,,67,127
84895,note_on,2,0,0,,0,,,72,127
84895,note_on,0,0,0,,7,,,55,127
85037,note_off,142,0,0,,0,,,72,127
85039,note_on,2,0,0,,12,,,71,127
85181,note_off,142,0,0,,7,,,55,127
85207,note_on,26,0,0,,0,,,36,127
85207,note_on,0,0,0,,0,,,48,127
85207,note_on,0,0,0,,2,,,74,127
85207,note_on,0,0,0,,0,,,72,127
85239,note_off,32,0,0,,12,,,71,127
85278,note_off,39,0,0,,0,,,72,127
85278,note_off,0,0,0,,2,,,74,127
85280,note_on,2,0,0,,12,,,71,127
85494,note_off,214,0,0,,12,,,71,127
85494,note_off,0,0,0,,0,,,48,127
85494,note_off,0,0,0,,0,,,36,127
85496,note_on,2,0,0,,2,,,38,127
85496,note_on,0,0,0,,2,,,50,127
85496,note_on,0,0,0,,0,,,72,127
85496,note_on,0,0,0,,2,,,74,127
85568,note_off,72,0,0,,2,,,74,127
85568,note_off,0,0,0,,0,,,72,127
85568,note_on,0,0,0,,12,,,71,127
85782,note_off,214,0,0,,12,,,71,127
85782,note_off,0,0,0,,2,,,50,127
85782,note_off,0,0,0,,2,,,38,127
85784,note_on,2,0,0,,4,,,40,127
85784,note_on,0,0,0,,4,,,52,127
85784,note_on,0,0,0,,0,,,72,127
85926,note_off,142,0,0,,0,,,72,127
85928,note_on,2,0,0,,1,,,73,127
86070,note_off,142,0,0,,1,,,73,127
86070,note_off,0,0,0,,4,,,52,127
86070,note_off,0,0,0,,4,,,40,127
86072,note_on,2,0,0,,5,,,53,127
86072,note_on,0,0,0,,5,,,41,127
86072,note_on,0,0,0,,2,,,74,127
86214,note_off,142,0,0,,2,,,74,127
86216,note_on,2,0,0,,4,,,76,127
86358,note_off,142,0,0,,5,,,41,127
86358,note_off,0,0,0,,5,,,53,127
86360,note_on,2,0,0,,7,,,55,127
86360,note_on,0,0,0,,7,,,43,127
86502,note_off,142,0,0,,4,,,76,127
86504,note_on,2,0,0,,5,,,77,127
86646,note_off,142,0,0,,7,,,43,127
86646,note_off,0,0,0,,7,,,55,127
86648,note_on,2,0,0,,10,,,57,127
86648,note_on,0,0,0,,10,,,45,127
86790,note_off,142,0,0,,5,,,77,127
86792,note_on,2,0,0,,6,,,78,127
86934,note_off,142,0,0,,6,,,78,127
86934,note_off,0,0,0,,10,,,45,127
86934,note_off,0,0,0,,10,,,57,127
86936,note_on,2,0,0,,12,,,47,127
86936,note_on,0,0,0,,12,,,59,127
86936,note_on,0,0,0,,7,,,79,127
87078,note_off,142,0,0,,7,,,79,127
87080,note_on,2,0,0,,10,,,81,127
87222,note_off,142,0,0,,12,,,59,127
87222,note_off,0,0,0,,12,,,47,127
87224,note_on,2,0,0,,0,,,48,127
87224,note_on,0,0,0,,0,,,60,127
87366,note_off,142,0,0,,10,,,81,127
87368,note_on,2,0,0,,12,,,83,127
87510,note_off,142,0,0,,0,,,60,127
87510,note_off,0,0,0,,0,,,48,127
87512,note_on,2,0,0,,2,,,50,127
87512,note_on,0,0,0,,2,,,62,127
87654,note_off,142,0,0,,12,,,83,127
87656,note_on,2,0,0,,2,,,86,127
87798,note_off,142,0,0,,2,,,86,127
87798,note_off,0,0,0,,2,,,62,127
87798,note_off,0,0,0,,2,,,50,127
87800,note_on,2,0,0,,4,,,52,127
87800,note_on,0,0,0,,4,,,64,127
87800,note_on,0,0,0,,0,,,84,127
87942,note_off,142,0,0,,0,,,84,127
87944,note_on,2,0,0,,12,,,83,127
88086,note_off,142,0,0,,12,,,83,127
88086,note_off,0,0,0,,4,,,64,127
88086,note_off,0,0,0,,4,,,52,127
88088,note_on,2,0,0,,2,,,62,127
88088,note_on,0,0,0,,10,,,81,127
88230,note_off,142,0,0,,10,,,81,127
88232,note_on,2,0,0,,7,,,79,127
88374,note_off,142,0,0,,7,,,79,127
88374,note_off,0,0,0,,2,,,62,127
88376,note_on,2,0,0,,4,,,64,127
88376,note_on,0,0,0,,5,,,77,127
88518,note_off,142,0,0,,5,,,77,127
88520,note_on,2,0,0,,4,,,76,127
88662,note_off,142,0,0,,4,,,76,127
88662,note_off,0,0,0,,4,,,64,127
88664,note_on,2,0,0,,5,,,65,127
88664,note_on,0,0,0,,2,,,74,127
88758,note_off,94,0,0,,2,,,74,127
88760,note_on,2,0,0,,4,,,76,127
88854,note_off,94,0,0,,4,,,76,127
88856,note_on,2,0,0,,5,,,77,127
88950,note_off,94,0,0,,5,,,77,127
88950,note_off,0,0,0,,5,,,65,127
88952,note_on,2,0,0,,7,,,67,127
88952,note_on,0,0,0,,4,,,76,127
89094,note_off,142,0,0,,4,,,76,127
89096,note_on,2,0,0,,2,,,74,127
89238,note_off,142,0,0,,2,,,74,127
89238,note_off,0,0,0,,7,,,67,127
89240,note_on,2,0,0,,7,,,55,127
89240,note_on,0,0,0,,0,,,72,127
89382,note_off,142,0,0,,0,,,72,127
89384,note_on,2,0,0,,12,,,71,127
89526,note_off,142,0,0,,7,,,55,127
89552,note_on,26,0,0,,7,,,79,127
89552,note_on,0,0,0,,0,,,72,127
89552,note_on,0,0,0,,0,,,60,127
89552,note_on,0,0,0,,0,,,48,127
89564,note_off,12,0,0,,12,,,71,127
89646,note_off,82,0,0,,7,,,79,127
89648,note_on,2,0,0,,5,,,77,127
89742,note_off,94,0,0,,5,,,77,127
89744,note_on,2,0,0,,4,,,76,127
89837,note_off,93,0,0,,0,,,72,127
89839,note_off,2,0,0,,4,,,76,127
89839,note_off,0,0,0,,0,,,48,127
89839,note_off,0,0,0,,0,,,60,127
89841,note_on,2,0,0,,5,,,77,127
89841,note_on,0,0,0,,5,,,41,127
89841,note_on,0,0,0,,5,,,53,127
89935,note_off,94,0,0,,5,,,77,127
89937,note_on,2,0,0,,4,,,76,127
90031,note_off,94,0,0,,4,,,76,127
90033,note_on,2,0,0,,2,,,74,127
90127,note_off,94,0,0,,2,,,74,127
90127,note_off,0,0,0,,5,,,53,127
90127,note_off,0,0,0,,5,,,41,127
90129,note_on,2,0,0,,7,,,55,127
90129,note_on,0,0,0,,7,,,43,127
90225,note_on,96,0,0,,2,,,74,127
90225,note_on,0,0,0,,12,,,71,127
90319,note_off,94,0,0,,12,,,71,127
90319,note_off,0,0,0,,2,,,74,127
90321,note_on,2,0,0,,2,,,74,127
90321,note_on,0,0,0,,12,,,71,127
90415,note_off,94,0,0,,12,,,71,127
90415,note_off,0,0,0,,2,,,74,127
90415,note_off,0,0,0,,7,,,43,127
90415,note_off,0,0,0,,7,,,55,127
90429,note_on,14,0,0,,7,,,79,127
90429,note_on,0,0,0,,0,,,72,127
90429,note_on,0,0,0,,0,,,36,127
90429,note_on,0,0,0,,0,,,48,127
90523,note_off,94,0,0,,7,,,79,127
90525,note_on,2,0,0,,5,,,77,127
90619,note_off,94,0,0,,5,,,77,127
90621,note_on,2,0,0,,4,,,76,127
90715,note_off,94,0,0,,4,,,76,127
90715,note_off,0,0,0,,0,,,48,127
90715,note_off,0,0,0,,0,,,36,127
90717,note_on,2,0,0,,5,,,77,127
90717,note_on,0,0,0,,5,,,53,127
90717,note_on,0,0,0,,5,,,41,127
90804,note_off,87,0,0,,0,,,72,127
90812,note_off,8,0,0,,5,,,77,127
90814,note_on,2,0,0,,4,,,76,127
90908,note_off,94,0,0,,4,,,76,127
90910,note_on,2,0,0,,2,,,74,127
91004,note_off,94,0,0,,2,,,74,127
91004,note_off,0,0,0,,5,,,41,127
91004,note_off,0,0,0,,5,,,53,127
91006,note_on,2,0,0,,7,,,55,127
91006,note_on,0,0,0,,7,,,43,127
91102,note_on,96,0,0,,2,,,74,127
91102,note_on,0,0,0,,12,,,71,127
91196,note_off,94,0,0,,12,,,71,127
91196,note_off,0,0,0,,2,,,74,127
91198,note_on,2,0,0,,2,,,74,127
91198,note_on,0,0,0,,12,,,71,127
91292,note_off,94,0,0,,12,,,71,127
91292,note_off,0,0,0,,2,,,74,127
91292,note_off,0,0,0,,7,,,43,127
91292,note_off,0,0,0,,7,,,55,127
91312,note_on,20,0,0,,0,,,72,127
91312,note_on,0,0,0,,7,,,79,127
91312,note_on,0,0,0,,0,,,36,127
91312,note_on,0,0,0,,0,,,48,127
91406,note_off,94,0,0,,7,,,79,127
91408,note_on,2,0,0,,5,,,77,127
91502,note_off,94,0,0,,5,,,77,127
91504,note_on,2,0,0,,4,,,76,127
91598,note_off,94,0,0,,4,,,76,127
91598,note_off,0,0,0,,0,,,48,127
91598,note_off,0,0,0,,0,,,36,127
91600,note_on,2,0,0,,5,,,77,127
91600,note_on,0,0,0,,5,,,41,127
91600,note_on,0,0,0,,5,,,53,127
91694,note_off,94,0,0,,5,,,77,127
91696,note_on,2,0,0,,4,,,76,127
91790,note_off,94,0,0,,4,,,76,127
91792,note_on,2,0,0,,2,,,74,127
91882,note_off,90,0,0,,0,,,72,127
91886,note_off,4,0,0,,5,,,53,127
91886,note_off,0,0,0,,5,,,41,127
91888,note_on,2,0,0,,7,,,55,127
91888,note_on,0,0,0,,7,,,43,127
91927,note_off,39,0,0,,2,,,74,127
91993,note_on,66,0,0,,12,,,71,127
91993,note_on,0,0,0,,2,,,74,127
92087,note_off,94,0,0,,2,,,74,127
92087,note_off,0,0,0,,12,,,71,127
92089,note_on,2,0,0,,12,,,71,127
92089,note_on,0,0,0,,2,,,74,127
92175,note_off,86,0,0,,7,,,43,127
92175,note_off,0,0,0,,7,,,55,127
92201,note_off,26,0,0,,2,,,74,127
92201,note_off,0,0,0,,12,,,71,127
92222,note_on,21,0,0,,0,,,36,127
92222,note_on,0,0,0,,0,,,48,127
92222,note_on,0,0,0,,2,,,74,127
92268,note_off,46,0,0,,2,,,74,127
92270,note_on,2,0,0,,0,,,72,127
92316,note_off,46,0,0,,0,,,72,127
92318,note_on,2,0,0,,2,,,74,127
92364,note_off,46,0,0,,2,,,74,127
92366,note_on,2,0,0,,0,,,72,127
94016,note_off,1650,0,0,,0,,,72,127
94022,note_off,6,0,0,,0,,,48,127
94022,note_off,0,0,0,,0,,,36,127
95232,end_of_track,1210,1,0,,,,,,
